<svg xmlns="http://www.w3.org/2000/svg" role="img" xmlns:xlink="http://www.w3.org/1999/xlink" viewBox="142.45 309.95 326.84 171.84"><defs><clipPath id="a"><path d="M144 311.67188h1v168.65625h-1zm0 0"/></clipPath><clipPath id="b"><path d="M144 311.67188h324v168.65625H144zm0 0"/></clipPath><clipPath id="c"><path d="M467 311.67188h1v168.65625h-1zm0 0"/></clipPath><clipPath id="d"><path d="M144 478h4v2.32813h-4zm0 0"/></clipPath><clipPath id="e"><path d="M153 478h8v2.32813h-8zm0 0"/></clipPath><clipPath id="f"><path d="M159 480h2v.32813h-2zm0 0"/></clipPath><clipPath id="g"><path d="M166 479h9v1.32813h-9zm0 0"/></clipPath><clipPath id="h"><path d="M172 480h2v.32813h-2zm0 0"/></clipPath><clipPath id="i"><path d="M180 478h8v2.32813h-8zm0 0"/></clipPath><clipPath id="j"><path d="M186 480h1v.32813h-1zm0 0"/></clipPath><clipPath id="k"><path d="M193 478h8v2.32813h-8zm0 0"/></clipPath><clipPath id="l"><path d="M199 480h2v.32813h-2zm0 0"/></clipPath><clipPath id="m"><path d="M206 479h9v1.32813h-9zm0 0"/></clipPath><clipPath id="n"><path d="M212 480h2v.32813h-2zm0 0"/></clipPath><clipPath id="o"><path d="M220 480h8v.32813h-8zm0 0"/></clipPath><clipPath id="p"><path d="M226 480h2v.32813h-2zm0 0"/></clipPath><clipPath id="q"><path d="M233 479h8v1.32813h-8zm0 0"/></clipPath><clipPath id="r"><path d="M239 479h2v1.32813h-2zm0 0"/></clipPath><clipPath id="s"><path d="M246 479h9v1.32813h-9zm0 0"/></clipPath><clipPath id="t"><path d="M252 479h3v1.32813h-3zm0 0"/></clipPath><clipPath id="u"><path d="M260 479h8v1.32813h-8zm0 0"/></clipPath><clipPath id="v"><path d="M275 476h5v4.32813h-5zm0 0"/></clipPath><clipPath id="w"><path d="M286 479h9v1.32813h-9zm0 0"/></clipPath><clipPath id="x"><path d="M302 479h4v1.32813h-4zm0 0"/></clipPath><clipPath id="y"><path d="M314 478h7v2.32813h-7zm0 0"/></clipPath><clipPath id="z"><path d="M329 476h3v4.32813h-3zm0 0"/></clipPath><clipPath id="A"><path d="M343 476h2v4.32813h-2zm0 0"/></clipPath><clipPath id="B"><path d="M356 476h2v4.32813h-2zm0 0"/></clipPath><clipPath id="C"><path d="M368 477h5v3.32813h-5zm0 0"/></clipPath><clipPath id="D"><path d="M383 476h2v4.32813h-2zm0 0"/></clipPath><clipPath id="E"><path d="M393 478h8v2.32813h-8zm0 0"/></clipPath><clipPath id="F"><path d="M407 477h6v3.32813h-6zm0 0"/></clipPath><clipPath id="G"><path d="M420 478h8v2.32813h-8zm0 0"/></clipPath><clipPath id="H"><path d="M425 478h3v2.32813h-3zm0 0"/></clipPath><clipPath id="I"><path d="M433 479h8v1.32813h-8zm0 0"/></clipPath><clipPath id="J"><path d="M439 479h2v1.32813h-2zm0 0"/></clipPath><clipPath id="K"><path d="M446 479h8v1.32813h-8zm0 0"/></clipPath><clipPath id="L"><path d="M452 480h2v.32813h-2zm0 0"/></clipPath><clipPath id="M"><path d="M459 479h9v1.32813h-9zm0 0"/></clipPath><clipPath id="N"><path d="M465 479h3v1.32813h-3zm0 0"/></clipPath><clipPath id="O"><path d="M144 466h4v2h-4zm0 0"/></clipPath><clipPath id="P"><path d="M144 453h4v2h-4zm0 0"/></clipPath><clipPath id="Q"><path d="M144 440h4v1h-4zm0 0"/></clipPath><clipPath id="R"><path d="M144 426h4v2h-4zm0 0"/></clipPath><clipPath id="S"><path d="M144 412h4v3h-4zm0 0"/></clipPath><clipPath id="T"><path d="M144 398h4v5h-4zm0 0"/></clipPath><clipPath id="U"><path d="M144 385h4v5h-4zm0 0"/></clipPath><clipPath id="V"><path d="M144 372h4v4h-4zm0 0"/></clipPath><clipPath id="W"><path d="M144 358h4v4h-4zm0 0"/></clipPath><clipPath id="X"><path d="M466 359h2v3h-2zm0 0"/></clipPath><clipPath id="Y"><path d="M144 345h4v4h-4zm0 0"/></clipPath><clipPath id="Z"><path d="M466 345h2v2h-2zm0 0"/></clipPath><clipPath id="aa"><path d="M465 345h3v3h-3zm0 0"/></clipPath><clipPath id="ab"><path d="M144 332h4v4h-4zm0 0"/></clipPath><clipPath id="ac"><path d="M466 332h2v2h-2zm0 0"/></clipPath><clipPath id="ad"><path d="M465 332h3v3h-3zm0 0"/></clipPath><clipPath id="ae"><path d="M144 319h4v3h-4zm0 0"/></clipPath><clipPath id="af"><path d="M466 318h2v2h-2zm0 0"/></clipPath><clipPath id="ag"><path d="M465 318h3v3h-3zm0 0"/></clipPath><g id="ah" clip-path="url(#clip1)"><path fill="#fff" fill-opacity="0" fill-rule="evenodd" d="M0 0h1000v1000H0zm0 0"/><path fill="#d3d3d3" fill-opacity="0" fill-rule="evenodd" d="M162.15234 355.86719l-.23437.29297.0586.23437.11718.17188.17578.23437.29297.34766.11328.0586.11719-.17188.0586-.23438.17577-.17578.46485-.17578h.69922l.23437.29297.28906.8164.0586.17579.17578.23046.35156.23438.69922.69922.17188.17578.23437.34765.23438.41016.28906.58203.41015.46485.23047.23437.23438.17578.11719.23047.17578.29297.17187 1.16406v.23438l.0586.28906.05859.11719.11719.11719.34765.41015.11719.17188.17578.17578.17578.23437.11719.17188.17188.35156.05859.23438.23437.40625.23438-.0586-.17578.17578-.0586.92969h-.58203l-.23437-.11328-.34766.11328-.11719.11719-.05859.29297-.0586.17578-.11718.17187-.46484.29297-.0586.23438-.0586.11328v.64453l.0586.17187v.41016l.0586.0586v.40624l.05859.40625.11719.17579.05859.05859.23047.64062-.0586.29297v.69922l-.05859.58203v.23438l-.0586.23047-.05468.35156v1.92187l.05469.1172h.42578l-.36719.11718-.02344.35156.89063 1.16797 1.74219.53906 1.33984.35938v.53906l.08984.8086.53516.71484 1.51953.26953.89063-.08594.08984 1.16406.53516.1797 1.16015-.1797 2.05469-.98437 1.16016-.36328 1.8789-.17578 1.69531-.1797-.17968.71876-1.51563.08594-1.25.08984-.80469.26953-1.07421.8086.26953.71875.53515.89843-.17968.625-.26563.8086.26563 1.07812.625.89844.80468.17969 1.25-.1797-.26562.72267.09766.5039.05468.29297v.17188l.0586.29296v.40625l.17578.1172.35156.11718h.40625l.29297-.17578.11328-.11719.0586-.11719.11718-.23047.0586-.17578.35156-.46484.23047-.17578.17578-.0586.17578.0586.0586.17578.11718.98828.05469.46875.0586.17188.11718.23437.17578.0586.8164.05859h.28907l.11719.23437.05859.40625.0586.35156v1.10547l.11718.29297.11719.34766.28906.69922.17578.35156.58203.7539.35157.17579.17187.0586.46875.23437.64063.46484.34765.23438.29297.17578.29297.05468.23047.0625.8164.34766.29297.17578.11328.17188.35157.35156.11719.17578.52343.64063v.28906l.0586.35156v.34766l.05859.35156.0586.28906.11718.0586.17188.05859h.17578l.58203.23437.17578.1172.17578.28905.17578.23438.11328.23437.29297.23047.11719.11719v.41016l.0586.05468.28906.23438.23437.11719.0586.11718.11718.17188.0586.11719.23047.23437.05859.17578.23437.0586.1172.05859-.1172.11328-.05859.11719v.11719l-.11719.29296-.11719.28907v.58203l.17579.11719.11718.05859.0586.11719.11719.11719.11328.05859.17578.34765.0586.35157.05858.40625v.17578l-.05859.17578-.11719.69922v.17187l.1172.17579.29296.29296h.40625l.17578.1172.11719.17187.11719.29296v.23438h-.52735l-.23047-.23438h-.23437l-.17578.0586-.0586.69922.0586.34765.11719.17579.17578.41015.11718.23047.28907.46875.17578.05469h.52344l.23437.0586.75781.64062.0586.29296v.23438l.05859.0586.23047.34765v.35156l-.11719.17188v.29297l.29297.28906.29297.17578.17187.0586.29297.17577.29297.1172.58203.40624.28906.23438.29297.17578.21875.16015.01563.01172.23047.17579.64062.52343.17578.23438.1172.17578.17577.17578.11328.17188v.64062l.1172.17578.46874.11719.58203.11719.23438.05859.23047.11328.29297.11719.11328.0586.58593.35156.28907.17187.17578.0625.17578.05469.17578.0586.69922.35155.28906.17579.23438.05468.28906.17578.23437.1172.64063.40624.29297.11719.17187.0586.23438.05859.41015.05859.23047.0586.23438.11718.0586.17188-.41017.17578.46875.0586.0586.29296.11328.23438.17578.05468.23438.0586.17578.05859.40625.11719.64062.23437.11719.17188.0586.23437v.17578l-.0586.1172-.0586.40624.23438.23438.11719.05859.34766.11719.64062.23047.17578.11718.28906.1172.17578.17577.23438.46485.58203 1.10546.17578.17579.34766.17578.17578.11719.35156.11718 1.04688.52344.23437.0586.46485.11327.29297.0586.46484.17578.75781.58203.23438.23438.34765.46484.17578.17578.28907.23438.8164.69921.29297.17579.28906.28906.29297.17578.29297.28906.69531.64063.17578.17578.29297.23437.28907.23438.46875.28906.64062.58203.34766.23438.23437.29297.34766.34765.35156.46485.9336.99218.34765.40625.11719.17579.23437.05859.11328.11719.64454.17578.23047.11328.23437.0586.29297.17577.23047.1172.9336.69921.40624.40625.23438.17578.40625.17578.23437.11719.8164.34766.34766.23437.23438.11719.29297.28906.23047.11719.7578.35156.35157.17188.23047.05859.29297.11719.23437.0586.8711.17577h.8164l.46875.23047.17188.0586.875.69921.46484.1172.29297.05858.17578.0586.23047.0586.46875.05859.34766.05859.35156.0586.40625.05859h.29297l.17187.0586v.23046l.17578.17578h.29297l.34766.0586.35156.05859.69922.11719h.64063l.46484-.23438.29297-.17578.17187-.11719.41016-.17187.28906-.17578.9336-.46485.46875-.29297.52343-.29296.46485-.17188.46484-.17578 1.05078-.46485.28906-.11718.41016-.11719.28906-.11719.52735-.17578 1.51562-.69922.58203-.34765.28907-.0586.29297-.0586.34765-.11718.875-.23047.35156-.11719h.11329l.23437-.05859.875-.23437.23438-.0586h.8125l.35156-.0586.8164-.11718.17188-.0586.35156-.05468.29297-.0586.23047-.05859.8164-.17578.17579-.0586h.34765l.23438-.05859.46484-.11718.75781-.17188.23438-.0586h.34765l.41016-.11718.28906-.0586 1.28516-.05859h.28906l.41016-.0586.23047-.05858h.17578l.875-.1172h.40625l.41015-.11718h.34766l.35156-.11328.8711-.0586h1.75l1.04687.28907.41016.11719.28906.11718.35156.11719.28907.11719 1.05078.17187.28906.0586h.29297l.29297.05859.17187.0586.41016.05859.17187.0586.1172.05858h.11718l.11719.0586.35156.0586h.11328l.41016.0664 1.92187.39453 1.92578.39453 1.51953.44922 1.69532.71875 2.14453.80469 1.60547-.71875 1.42968-.80469 1.16016-1.07813 1.25-.44921 3.03516-.71875 1.875-.35938 2.14453-1.34765 2.23437-1.25391 2.5-1.25781 1.69531-.44922 1.78516-.17969 1.16016-.26953.625.53906 1.33984-.26953.71485-.98828.98437-1.34375.44531-.17969.80469-.35937 1.875-.53907 1.78516-.44921 1.25-.26954 1.16015-.08984 1.69922-.08984 1.96094-.26954 1.25-.08984h.53906l.625-.08984h.89063l2.14453-.17969 2.41015-.17969 2.58985-.08984 1.69531.17969 1.60938.08984 1.42968.35938 1.16016.71875 1.875.98828 1.16015 1.52734.26563.71484.6289.08985.35548.89844.53515.53906.53516 1.52734 1.07422.35938h.53515l-.80469.53515.08985 1.70703.71484 2.69532.89063.80468.89453.98829.71484 1.2578 1.78516.53907 1.51953-.17969.35547 1.34375 1.60937-.80469.98047-.53906.26953.26953.31641-.21484.21875-.14453.80078.44922.44922-.35938h.35547l.53515-.26953.53907-.71875.53515-.26953.625-.98828 1.16016.44922.83984.3711 1.39454.61718 1.6953-.17969h1.60548l1.78515.08985.17969-1.70704.53516-1.34375.80468.26954.4922.84765.40233.40625-.08984.53906v.35938l.71485.44922.71093-.26953h1.42969l.35938.98828.4453 1.25781.71485 1.34375 1.25.6289 1.69531.62891.71485-.17969.17969-.53906.98046-.08984.44922.35937.08594 1.25782-.26563.6289-.53515.17969v.53906l.71484.98438.26563.53906.98437.98828.80078 1.07813-.26562.35937-.08985.89844-.625 2.33203-.35546 2.0664-.08985 1.79298-.17969.71875-.08984.53906v1.4375l-.98047 1.88281-.35937 1.70703-.53516.89844-.80469 1.16797-.26562.53906 2.05469 1.2539.08593.35938-.35546.53906-.08985-.17968v.80859l.08985 1.4375-.44532.71484-1.07422.09375-.26562.71485.53515.89844.8047.71875 1.16015.80859 1.33984.26953.44531.35938-.35546.44921-1.78907-.08984-1.25-.44922-.71484-.71875-.625-.08984-.17578 3.58984-.1875 1.3086h89.35937V311.70313h-55.26953v49.08203l.76172.125 3.28906.54296 2.02344 2.83594v2.7539l2.35156.33204 2.34766.33203h4.05078l-1.3789 4.16016-2.02344.70703-2.02344.70312-.54297.34375-2.59375 1.6172-.1875.11718-2.02344-2.07813-.73046-2.74218-2.67188-2.07813-1.375-3.5-.0664-.08203-1.95704-2.67188 2.75-1.41796v-49.08204H294.42187v91.41407l.1172.03125.1328.01172.07422.07421.10547.04688.08985.0586.08593.05859.08985.0586.29687.29687.0586.08984.03125.11719.02734.11719.01563.13671-.03125.1172-.0586.08983-.0586.08594-.04296.10547-.04688.10156-.02734.1211v.14453l.17578.26953.14844.14844.07422.08594.07422.07421.04296.10547.0625.08985.0586.08593.04297.10547.0586.08985.04687.10156.04296.10547.0586.08594.11719.17968.07421.07422.0625.08594.0586.08984.04297.10547.0586.08985.05858.08593.0625.08985.0586.08984.04297.10156.11719.17969.07421.07422.0586.08594.07422.07421.08984.0586.10547.04687h.14844l.1328-.01562.13282.01562.10156-.04687.07422-.07422.04688-.10156-.01563-.13281v-.14844l-.04687-.10547-.02735-.11719-.04687-.10156-.02735-.1211-.04296-.10156-.0625-.08984-.04297-.10156-.04297-.10547-.03125-.11719-.01563-.13281-.01171-.13672.08593-.0586.0586-.08593.12109-.03125.04297.10547.01562.1328v.1172l.0586.10156.0586.08984.08983.0586.14844.14843.0586.08985.04296.10547-.01171.10156.08593.0586.10547.04687.08594.0586.08984.05858.07422.07422-.11719.02735-.10546.04687-.08594.0586-.07422.07421-.0586.08985-.0625.08594-.02734.12109-.04687.10156-.04297.10547-.03125.11719-.01172.13281-.01563.13281v.14844l.02735.11719.04687.10547.04297.10156.0586.08984.07421.07422.08985.0586.07422.07421.08984.0586.0586.08984.04296.10547.04688.10156.11719.03125.1328.01563h.14845l.11718-.03125.10547.04297.04297.10547.04688.10156.02734.1211L299.5 410l.02734.11719.03125.1211.02735.11718.10547.04297.10156.04687.13281-.01562.14844.14844.0625.08593.07422.07422.07031.07422.08984.0625.10547.04297.10156.04297.1172.03125.13671.01562.11719-.03125.07422-.07422.02734-.11718-.01172-.13282-.03125-.12109-.02734-.11719.04297-.10547h.11719l.08984.0625.11719.02735h.14843l.13282.01562h.14843l.13282.01563.1328-.01563h.14845l.1328-.01562.13282-.01172.13672.01172.11719-.02735.13281-.01562.1914-.0586-.05859.17579-.01562.1328-.02735.1211-.01562.13281-.0586.08594-.1328.01563-.10548.04687-.10546.04297-.1172.03125-.11718.02735-.26563.03125h-.14843l-.13281.01562-.07422.07422.05859.08594.14844.14843.11719.1797.07421.0703.08985.0625.08984.0586.08594.0586.08984.05858.10156.04297.10547.0625.10547.04297.08594.0586.10547.04687.10156.04297.17969.11719.0586.08984-.04298.10156-.04687.10547.01562.13281.22266.22266.0586.08985.04296.10156.03125.1211.04297.10155.01563.13282.03125.11718.01171.13672.03125.11719.14844.14844.10156.04297.10547.04296.1172.03125.1328.01563.13672.01563h.11719l.11719-.03125.08984-.0586.04297-.10547.04688-.10156.04296-.10547.03125-.11719.01172-.1328v-.14845l-.01172-.1328-.01562-.13282-.03125-.11719-.04297-.10547-.04688-.10547-.04296-.10156-.04297-.10547-.01563-.13281.01563-.13281.02734-.11719.03125-.11719.02735-.1211.04687-.10155.08984-.0586.08594-.0625.07422-.07422.08984-.05859.22266-.22266.0586-.08593.07421-.07422.11719-.17969.0586-.08594v-.14844l-.07423-.07421-.10156-.04688-.10547-.04297-.10156-.04297-.0586-.08984-.04687-.10547-.02734-.11719.08984-.05859.11719-.03125.10156-.04297.17969-.11719.14844-.14843.01172-.13282-.01172-.10546-.08985-.0586-.1328.01563h-.14845l-.1328.01562-.13282-.01562-.1211-.03125-.08593-.0586-.07422-.07422-.0586-.08984-.0625-.08594-.11718-.17969-.0586-.08593.03125-.1211.08594-.05859.1211-.03125.05859-.08594v-.1211l-.03125-.11718-.0586-.08984-.05859-.08594-.04687-.10547-.02735-.11719-.01562-.1328.0586-.08985.07421-.07422.08984-.0586.1172-.17968.07421-.07422.0586-.08594.14843-.14844.1211-.03125.1328-.01562.13282.01562.07422.07422.04297.10547.01562.13281-.03125.1172-.11719.03124-.1328.01172-.14844.14844-.04297.10547-.04688.10156-.02734.1211-.03125.11718v.14844l.03125.11719.04297.10546.05859.08985.07422.07031.07422.07422.11719.03125.12109.02734.11719-.02734.1328-.01563h.1172l.08984.0586.07422.07422.04687.10546.0586.08594.10156.04688.13281.01562.10547.04297.08594.0586-.01172.10546-.07422.07422-.17969.11719-.05859.08984-.08984.0586-.07032.07422-.07421.07421-.0625.08985-.02735.11719-.01562.1328.01562.13282-.01562.13281v.14844l.01562.13281.02735.1172.03125.12108.07421.07422.08985.0586.08594.0586.08984.05858.11719.03125v.08594l-.10157.04688-.08984.0586-.26563.03124-.11718.02735h-.14844l-.10547.04296-.10156.04688-.0586.08984-.0625.23438-.01171.13281-.03125.1211-.01563.1328v.29298l-.01172.1328.01172.13673.01563.1328.1328.01563.13282.01172.1211.03125.08593.0586.07422.07421.04688.10547.04296.10157.01563.1328v.44532l-.01563.13281v.44532l.03125.26562.02735.11719.01562.13281.03125.11719.08594.21094.03125.26562v.14844l-.03125.11719-.02734.11718-.03125.1211-.02735.11719-.03125.11718-.03125.1211-.01171.1328-.01563.13282.08984.0586.1172-.03125.10155.01562.04688.10547-.03125.26562v.44141l-.04297.10547-.04688.10547-.04296.10156-.04297.10547-.0586.08594-.03125.12109-.04296.11719-.03125.11719-.01563.1328.01563.13282.05859.08984.10547.04688.08594.0586.05859.08593-.01172.13672-.03125.11719-.04297.10156v.44531l-.01562.13281v.14844l-.03125.11719-.04297.10547-.02735.11719-.04687.10546-.04297.10157-.03125.12109-.02734.11719-.03125.13281-.03125.11719-.02735.11719-.04297.10546-.03125.1172-.03125.12108-.01171.13282-.01563.13281v.29688l.02734.11718v.14844l.04688.39844.02734.11719.0586.08984.12109.03125h.14844l.13281-.01563.0586.08985v.11719l-.0586.08984-.08984.0586-.10157.04296-.10546.04688-.08985.05859-.08594.0586-.13671.01562-.1172-.03125-.1328-.01563-.10157.04688-.0625.08594-.01172.13671-.01562.13282-.03125.11719-.02735.11718-.01562.13281-.03125.1211v.29687l.01563.13282.03125.11718v.14844l.01171.13281v.14844l-.02734.11719-.04688.10156-.02734.1211-.03125.11718-.0586.08985-.07421.07421-.10156.04297-.10547.04688-.11719.02734-.1211.03125-.10156-.04687.0586-.08594.10547-.04688.02734-.11718.03125-.11719.02734-.1211.03125-.11718v-.14844l.01563-.13281-.03125-.11719-.04297-.10547-.10547.01563-.07422.07422-.10156.04296-.08984.0625-.07422.07422-.04297.10157-.01563.1328-.03125.1172L304.25 426l-.03125.11719-.02734.11719-.03125.12109-.02735.11719-.03125.11718-.04297.10547-.08984.0586h-.08984l-.1172-.03125-.03124-.08594.01562-.13672-.03125-.11719v-.14844l-.01171-.1328v-.14844l-.0625-.23438-.02735-.1211-.04297-.10156-.04687-.10546-.0586-.08594-.05859-.08985-.04297-.10546-.0625-.08594-.14844-.14844-.0703-.07422-.10548-.04687-.10547-.04297-.10156-.04297-.29687-.29688-.08985-.07421-.08594-.0586-.10546-.04297-.08985-.0625-.08594-.0586-.10546-.04296-.08985-.0586-.08594-.0625-.07421-.0703-.10547-.04688-.08594-.0586-.10547-.04296-.08984-.0625-.10156-.04297-.10547-.04297-.08594-.0586-.10547-.04687-.10547-.04297-.10156-.04687-.08985-.0586-.10156-.04297-.10547-.04296-.08984-.0625-.11719-.02735-.13281-.01562-.13281.01562H299.75l-.13281.01563-.11719-.03125-.08984-.0586-.07422-.07422-.08985-.05859-.10156-.04688h-.14844l-.12109-.02734-.10156-.04297-.07422-.07422-.11719-.17968-.08984-.0586-.10156-.04297-.08985-.0625-.10547-.04296-.08984-.0586-.08594-.0586-.10547-.04687-.0586-.08594-.05858-.08984-.04297-.10547-.04688-.10156-.07422-.07422-.08594-.0586-.07421-.07421-.08985-.0586-.22265-.22265-.04297-.10547-.03125-.26563.10547-.04296h.14453l.10547.04296.07421.07422.08985.0586.08594.0586.10546.04687.08985.05859.14844.14844.0703.07422.14845.14843.0625.08594.07421.07422.08594.0586.07422.07421.08985.0625.08984.0586.08594.05859.26953.17578.10156.04688.10547.04296.10156.04297.04688-.07421.05859-.08594.07422-.07422.07031-.07422.10547.04297.07422.07422.0586.08984.04296.10156.04688.10547.04296.10547.1211.02735.11719-.02735.07421-.08984.04297-.10547.0586-.08985.07422-.07421.10546-.04297.1172-.02735.1328.01172.08985.0586.14844.14843.05859.08985.04297.10547.04687.10156.04297.10547.04297.10156.10547.04688.10547.04296.13281.01563.08594-.0586.0586-.08984.07421-.07422.10547-.04297.11719.02735.10547.04687.10156.04297.10547.04297.10156.04688.17969.11718v.11719l-.01563.13281.01563.13281.01562.13672.0586.08594.10156.04688.1211.02734.11718.03125h.14844l.11719-.03125.05859-.08984.17969-.1172.05859-.08983.07422-.07422.0586-.08594.11718-.17969.17969-.11719.11719.03125.08984.0586.04297.07422-.01563.1328v.1172l.08985.05859h.14843l.13282-.01563.1328-.01171.26563-.03125.10547-.04297.11719-.03125.1211-.02735.07421-.07421.07031-.07422.0625-.08985-.01562-.10547-.04688-.10156-.10156-.04297-.10547-.01562-.11718.02734-.26563.03125h-.14844l-.07421-.07422-.08985-.0586-.11719-.03124-.11718-.02735-.13282-.01562h-.14843l-.13282.01563h-.29687l-.10547-.04688-.14844-.14844-.04297-.10156-.05859-.08984.22266-.22266.08593-.0586.10547-.04296.11719-.03125.13281-.01563.13281.01563.13672.01562.10157.04297.1328-.01172.08985-.0625.10156-.04297.0625-.08984-.04687-.10156-.08984-.0586-.1172-.03125-.10155-.04296-.0586-.08985-.0625-.08984v-.11719l.01563-.13281.10547-.04688.07421-.07031v-.1211l-.08984-.05859-.03125-.11719.08985-.05859.07421-.07422.04297-.10547.0586-.08984.04687-.10156.01563-.13281v-.14844l-.04688-.10547-.04297-.10156-.08984-.0586-.13281-.01562-.10157-.04297-.13671-.01563-.1172-.03125h-.4453l-.13282-.01562-.13281-.01172-.13281-.01563-.11719-.03125h-.14844l-.13281-.01562-.13281-.01172-.26563-.03125-.1211-.04297-.08593-.0586-.07422-.07421v-.14844l.01172-.13281.10547-.04688.10156-.04296.13281-.01563h.15235l.13281-.01562h.29297l.1211.03125.10156.04296.08984.0586.23438.0625.12109-.04688.08984-.05859.10156-.04297.13282-.01562.10547.04296.10156.04688.13281.01172.1211-.02735h.14453l.12109-.03125.11719-.02734.10547-.04687.07421-.07422.08594-.0586.14844-.14843.0586-.08594.04687-.10547.02734-.11719.01563-.10547-.10156-.04296-.08985-.0586-.11719-.03125-.10546-.04297-.08985-.0625-.07422-.08594-.07422-.07421-.10156-.04297-.10547-.04688-.10156-.04297-.0586-.08984-.04687-.10156-.08594-.21094-.0625-.08594-.05859-.08984-.07422-.07422-.08594-.0586h-.26953l-.11719.03126-.08984.05859-.10156.04297-.13281.01562-.10547-.01562-.02735-.11719-.0625-.08984-.11718-.03125-.10157-.04297-.14843-.14844-.03125-.11719-.01563-.10546.07422-.07422.17969-.1172.11719-.02733.11718-.03125.13672.01562.10156.04297.10547.04297.10156.04687.10547.04297.1172.03125.1328.01563.1172.02734.1328.01563.10547-.01563.08985-.0586-.07422-.07421-.10547-.04297-.07422-.07422-.07422-.08984-.14844-.14844-.08593-.0586-.08985-.05859-.07422-.07422-.08984-.0586-.10156-.04687-.1211-.02734-.10156-.04688-.10547-.04296-.11719-.03125-.10156-.04297-.1211-.03125h-.14843l-.11719.03125-.10546.04297-.08594.0625-.17969.11718-.08594.0586-.08984.0586-.10547.04687-.08594.05859-.10547.04297-.10156.04297-.10547.04687-.07422.07422-.05859.08985-.0586.08593-.04687.10547-.0586.08594-.07421.07422-.13281-.01172-.1172-.03125h-.11718l-.07422.07422-.08984.0586-.07422.07421-.08984.0586-.08594.05859-.10547.04687-.10156.04297-.13672.01563-.10156-.04297-.14844-.14844-.10547-.04688h-.08594l-.10547.04688-.10156.04297-.1211.03125-.11718-.03125-.07422-.07422v-.11719l.03125-.1211.07422-.0703.0586-.08985.07421-.07422.11719-.03125.10547-.04296h.29297l.13281-.01563.13672-.01563.10156-.04296.08985-.0586.10156-.04687.08984-.0586.13281-.01171.08985.05859.13281.01172.08984-.0586.08594-.05859.10547-.04297.08984-.0586.08594-.0625.08985-.05859.14843-.14843.0586-.08594.05859-.08985.10547-.04296.13281-.01563.11719.02735.1211.03125.05859-.0586.05859-.08984.03125-.26563.02734-.11719.10547.01172.13281.01563.10157-.04297.08984-.0586.0586-.08984.07421-.07422.0586-.08984.04687-.10156.01172-.13281-.01172-.13282-.04687-.10547-.14844-.14843-.0586-.08985-.05859-.08594-.04297-.10546v-.44532l.01563-.1328v-.14845l.01172-.1328-.0586-.0586-.08984.0586-.10156-.04298-.17969-.11719-.08594-.05859-.0625-.08984-.0586-.08985-.07421-.07421-.08594-.0586-.1211.03125-.10155.01172-.10547.04688-.08594.05859-.10547.04297-.14844.14844-.08984.05859-.08594.0586-.08984.0625-.10547.04296-.13281.01563v-.1211l.10547-.04297.11718-.03125.07422-.0703.04297-.10548v-.14844l-.02734-.11718-.14844-.14844-.13281-.01563h-.14844l-.11719.03125-.10547.04297-.10156.04297-.08984.0625-.11719.02735-.07422-.07422.01172-.13281-.04297-.10157-.04297-.10547-.08984-.05859-.11719.02734-.1211.03125-.11718.03125-.10156.04297-.1211.03125-.10156.04297-.10547.04297-.08984.0586-.10156.01562v-.11719l.01562-.13281-.0586-.08985-.07421.04297-.14844.14844-.0586.08985-.07421.07421-.04688.10547-.04296.10156-.07422.07422-.0586.08985-.07422.07422-.05859.08593-.07422.07422-.08984.0625-.07422.07031-.07422.07422-.10156.01563-.13281.01562-.10547-.04296v-.1211l.14843-.14844.04297-.10156.0586-.08984.04687-.10156.04297-.10547.0586-.08985.03124-.11719.04297-.10156.03125-.1211.02735-.11718.04687-.10547.04297-.10156.04297-.10547.07422-.07031.08984-.0625.08985-.0586.10156-.04296h.29687l.26563-.03125.10547-.04297-.07422-.07422-.11719-.03125-.10547-.04297-.08984-.0586-.10156-.04687-.08985-.0586-.10156-.04296-.10547-.04297-.08984-.0625-.08594-.0586-.10547-.04296-.10156-.04297-.1211-.03125-.11718-.03125-.10157-.04297L297.5 410.25l-.10156-.04297-.08985-.0586-.04296-.10546-.01563-.13281.10156-.04297.13281-.01563.13672.01563.13282-.01563.10156-.04297.0586-.08984.01562-.10547-.08985-.0586-.07421-.07421-.10157-.04297-.08984-.0586-.14844-.14843-.04297-.10547-.01562-.13281v-.29297l-.0586-.08985-.08984-.05859-.07422-.07422-.04297-.10547-.03125-.11718-.0586-.08985-.07421-.07422-.11719-.02734-.07422-.07422-.08984-.0586-.08984-.0625-.08594-.05859-.07422-.07421-.0586-.08594-.04687-.10547-.08594-.0586-.14843-.14843-.19532-.0586-.1328.01563-.10157.04297-.07422.07422-.04688.10156-.04296.10547-.0586.08984-.0586.08594-.29687.29687-.08984.0586h-.08594l-.0625-.08594-.04297-.10547.03125-.11719.0586-.08984.02734-.11719-.01172-.13281-.08984-.0625-.10547.04688-.11719.02734-.11719.03125-.26953.17578-.10156.04688-.11719.02734-.10546.04687-.08985.0586-.10156.04297-.0586-.08594-.04687-.10547.01563-.13281.04687-.10547.07031-.07422.07422-.07031.0586-.08985v-.14843l-.04297-.10547h-.23829l-.10156.04687-.03125.11719-.02734.11719-.03125.1211-.07422.04296-.13281.01563-.07422-.04688-.04297-.10156-.04297-.10547-.04687-.10156-.04297-.10547-.1211.03125-.10156.04297-.13281.01562-.11719.03125-.10547.04297-.08984.0586-.10156.04687-.1211.02734-.13281.01563-.10156-.04297-.0586-.08985-.04687-.10546-.04297-.10157-.04297-.10546v-.1172l.0586-.08984.08593-.05859.17969-.11719.10156-.04687.10547-.04297.10547-.0586.10156-.04296.08985-.0625.10156-.04297.10547-.0586.10156-.04687.08984-.0586.10547-.04296.10156-.04297.08985-.0625.10156-.04297.13672-.01563.11719.03125.10156.04297.1211.03125.10156.04297.10546.04688.10157.04296.10547.04297.10156.04688.10547.04297.10156.04297.10547.04687.08594.0586.10546.04296.1172.03125.10546.04297.10156.04688.08985.0586.10547.04296.10156.04297.10547.04687.11719.02735.10156.04687.1211.02735h.14843l.08594-.0586.01562-.10156.0586-.08984-.02735-.1172-.07422-.07421-.11719-.17969-.07421-.07422-.08985-.07421-.17969-.1172-.08593-.05859-.10547-.04296-.10156-.04688-.26954-.17578-.05859-.08985-.07422-.07421-.0586-.08985-.04296-.10156-.03125-.11719-.01563-.13672v-.5625l-.01171-.1328-.01563-.13282-.03125-.11719-.01562-.13281-.01172-.13281-.03125-.1211-.22266-.22265-.0586-.08594-.01562-.10547.03125-.11719.13281-.01562v-91.41406H172.9922v1.45312l-.0586.23438-.35156 1.05078-.17187.52343-.1172.34766-.17577.41016-.11719.17187-.23438.29297-.23046.0586h-.35157l-.11718.05859-.23047.40625v.29297l.11719.17578.23046.23047.1172.23437.64062.75781.29297.46485.17578.23437.23047.35156.23437.34766.64063.8164.17578.46485.17187.41016.11719.69531.17578.46875.11719 1.39844.0586.46484v.875l.11718 1.04688v4.78125l-.0586.46484-.35156 1.28125-.17578.52344-.11328.41015-.35156.9297L172.93359 336l-.23437.58203-.11719.17578-.17187.34766-.17578.40625-.35157.8164-.0586.29297-.11327.29297-.11719.28906-.0586.17579-.11718.875-.0586.40625-.05859.11718-.0586.17579-.05859.17187-.23047.52734-.11718.17188v.23437l-.11719.23438-.0586.17187-.17577.58594v.28906l-.0586.17579v.29296l-.0586.11329-.05859.52734v.17187l-.05468.23438v2.6211l-.17578.8164-.1172.17578-.17577.23438-.1172.17187-.11327.23438-.58594.93359-.23047.28906-.29297.46485-.17578.23437-.28906.35156-.35156.69922-.11328.23047-.17579.41016-.17578.23046-.40625.52735-.8164.69922-.29297.17187-.28906.23438-.17579.11719-.17578.17578-.52344.40625-.52734.17578-.17187.17578-.23438.05469-.64062.17578h-.75782m12.21094 31.02344l-1.07422.44921.35938.89454 1.25-.71485.44531-.53906-.98047-.08985"/><path fill="#d3d3d3" fill-opacity="0" fill-rule="evenodd" d="M201.50781 416.59766h-.89453l.44922.6289.98047.35938.80469-.08985.4453-.98828-.17577.08985-.71485-.35547-.89453.35547m154.6211 59.0703l-.0586-.52343v-.29297l.11328-.29297.0586-.23046.46875-.46875h.11328l.11719-.11329.11718-.05859h.17579l.23437-.0586h.34766l.23437.0586.11719.0586.23047.17187.0586.17578.11718.58203v.29297l-.11719.17578-.17187.28906-.17579.17579-.52734.52343-.23047.23438-.11719.0586h-.17578l-.11718-.0586-.40625-.29297-.17579-.11719-.11718-.0586-.0586-.11327-.05468-.1172m6.64062-10.95702l-.0586-.17188v-1.10937l.0586-.17188.17578-.0586.17188-.05858h.17578l.23437-.0586.1172.0586.05858.69921-.05859.17188-.11719.17578-.11718.0586-.23438.52343-.11328.0586h-.23438l-.05859-.1172m9.61328-14.39062l-.11719-.17578v-.69922l.29297-.875.1172-.17187.17577-.35156.11328-.23047.1172-.29297.35155-.75781.1172-.23047.17187-.23438h.17578l.11719-.0586h.64062l.11719.0586.23437.23438.17188.11328.35156.29297.11719.11718.11328.17579v.11328l.11719.05859.11718.11719v.69922l-.05859.17578v.23047l-.0586.17578-.34765 1.05078-.11719.23047-.11719.23437-.11718.0586-.23047.23437-.64063.28906h-.875l-.41015-.11718-.64063-.46485"/><path fill="none" stroke="#bebebe" stroke-linecap="round" stroke-linejoin="round" stroke-miterlimit="10" stroke-width=".5" d="M467.95703 311.69531H144.02734v168.625h323.9297v-168.625"/><g clip-path="url(#a)"><path fill="#fff" fill-opacity="0" fill-rule="evenodd" d="M144 475.89063v4.4375h.0039H144V311.67188h.0039H144v164.21875"/></g><g clip-path="url(#b)"><path fill="#fff" fill-opacity="0" fill-rule="evenodd" d="M144.0039 480.32813V311.67188h17.75v131.30078l-2.8203 1.84765 2.8203 2.46094 3.82032-2.46094-3.82031-1.84765V311.67187h35.5078v86.9297l-1.65233 1.83593-1.56641 4.4375 3.21875 3.17969 4.4375-2.42188 2.5586 3.6836 1.8789 3.58203 2.0039-3.58203-2.0039-1.875-3.6836-2.56641-.7539-.88672-2.59375-3.55078-1.84375-1.83594v-86.92969h97.64062v116.58594l-4.4375.6836-2.53906 2.5664 2.53906 2.55469 4.4375-.46094 2.69532-2.09375-2.69532-3.25V311.67187H467.9961v168.65625H144.00391"/></g><path fill="#50fcfc" fill-rule="evenodd" d="M161.7539 447.28125l-2.8203-2.46094 2.8203-1.84765 3.82032 1.84765-3.82031 2.46094m35.5078-39.22656l-3.21874-3.17969 1.5664-4.4375 1.65235-1.83594v3.9375l-1.30469 2.33594 1.30469 1.28906 1.95703-1.28906-1.95703-2.33594v-3.9375l1.84375 1.83594 2.59375 3.55078.7539.88672 3.6836 2.5664 2.0039 1.875-2.0039 3.58204-1.8789-3.58203-2.5586-3.6836-4.4375 2.42188"/><path fill="#00e8fc" fill-rule="evenodd" d="M197.26172 406.16406l-1.30469-1.28906 1.30469-2.33594 1.95703 2.33594-1.95703 1.28906"/><path fill="#50fcfc" fill-rule="evenodd" d="M290.46484 434.0625l-2.53906-2.55469 2.53906-2.5664 4.4375-.6836 2.69532 3.25-2.69532 2.09375-4.4375.46094"/><g clip-path="url(#c)"><path fill="#fff" fill-opacity="0" fill-rule="evenodd" d="M467.9961 480.32813H468V311.67188h-.0039H468v168.65625h-.0039"/></g><g clip-path="url(#d)"><path fill="none" stroke="#000" stroke-linecap="round" stroke-linejoin="round" stroke-miterlimit="10" stroke-width=".5" d="M147.24219 481.67969l-6.48438-2.69922"/></g><g clip-path="url(#e)"><path fill="none" stroke="#000" stroke-linecap="round" stroke-linejoin="round" stroke-miterlimit="10" stroke-width=".5" d="M160.63672 481.47266l-6.64453-2.28907"/></g><g clip-path="url(#f)"><path fill="none" stroke="#000" stroke-linecap="round" stroke-linejoin="round" stroke-miterlimit="10" stroke-width=".5" d="M159.67188 481.14063l.1914 1.21093"/></g><g clip-path="url(#g)"><path fill="none" stroke="#000" stroke-linecap="round" stroke-linejoin="round" stroke-miterlimit="10" stroke-width=".5" d="M174.1211 480.73828l-6.98048-.82031"/></g><g clip-path="url(#h)"><path fill="none" stroke="#000" stroke-linecap="round" stroke-linejoin="round" stroke-miterlimit="10" stroke-width=".5" d="M173.10547 480.6211l.44531 1.14062"/></g><g clip-path="url(#i)"><path fill="none" stroke="#000" stroke-linecap="round" stroke-linejoin="round" stroke-miterlimit="10" stroke-width=".5" d="M187.23438 481.5625l-6.57813-2.46875"/></g><g clip-path="url(#j)"><path fill="none" stroke="#000" stroke-linecap="round" stroke-linejoin="round" stroke-miterlimit="10" stroke-width=".5" d="M186.27734 481.20313l.16016 1.21875"/></g><g clip-path="url(#k)"><path fill="none" stroke="#000" stroke-linecap="round" stroke-linejoin="round" stroke-miterlimit="10" stroke-width=".5" d="M200.58203 481.47656l-6.64062-2.29687"/></g><g clip-path="url(#l)"><path fill="none" stroke="#000" stroke-linecap="round" stroke-linejoin="round" stroke-miterlimit="10" stroke-width=".5" d="M199.61328 481.14453l.1914 1.21094"/></g><g clip-path="url(#m)"><path fill="none" stroke="#000" stroke-linecap="round" stroke-linejoin="round" stroke-miterlimit="10" stroke-width=".5" d="M214.00781 481.07813l-6.86328-1.5"/></g><g clip-path="url(#n)"><path fill="none" stroke="#000" stroke-linecap="round" stroke-linejoin="round" stroke-miterlimit="10" stroke-width=".5" d="M213.00781 480.85938l.33203 1.18359"/></g><g clip-path="url(#o)"><path fill="none" stroke="#000" stroke-linecap="round" stroke-linejoin="round" stroke-miterlimit="10" stroke-width=".5" d="M227.40234 480.28906l-7.02343.07813"/></g><g clip-path="url(#p)"><path fill="none" stroke="#000" stroke-linecap="round" stroke-linejoin="round" stroke-miterlimit="10" stroke-width=".5" d="M226.38281 480.30078l.58594 1.07813"/></g><g clip-path="url(#q)"><path fill="none" stroke="#000" stroke-linecap="round" stroke-linejoin="round" stroke-miterlimit="10" stroke-width=".5" d="M240.71875 480.20703l-7.02344.2461"/></g><g clip-path="url(#r)"><path fill="none" stroke="#000" stroke-linecap="round" stroke-linejoin="round" stroke-miterlimit="10" stroke-width=".5" d="M239.69531 480.24219l.61328 1.0625"/></g><g clip-path="url(#s)"><path fill="none" stroke="#000" stroke-linecap="round" stroke-linejoin="round" stroke-miterlimit="10" stroke-width=".5" d="M253.91797 479.4375l-6.79688 1.78125"/></g><g clip-path="url(#t)"><path fill="none" stroke="#000" stroke-linecap="round" stroke-linejoin="round" stroke-miterlimit="10" stroke-width=".5" d="M252.92969 479.69922l.83203.89844"/></g><g clip-path="url(#u)"><path fill="none" stroke="#000" stroke-linecap="round" stroke-linejoin="round" stroke-miterlimit="10" stroke-width=".5" d="M267.2539 481.14844l-6.83593-1.63672"/></g><g clip-path="url(#v)"><path fill="none" stroke="#000" stroke-linecap="round" stroke-linejoin="round" stroke-miterlimit="10" stroke-width=".5" d="M278.8164 483.42188l-3.33202-6.1875"/></g><g clip-path="url(#w)"><path fill="none" stroke="#000" stroke-linecap="round" stroke-linejoin="round" stroke-miterlimit="10" stroke-width=".5" d="M293.8789 479.49219l-6.82421 1.67187"/></g><g clip-path="url(#x)"><path fill="none" stroke="#000" stroke-linecap="round" stroke-linejoin="round" stroke-miterlimit="10" stroke-width=".5" d="M304.80469 480.32813l-.01953-.19922-.0586-.19141-.09375-.17578-.46094-.3789-.1914-.0586-.19922-.01953-.19922.01953-.1914.0586-.46094.3789-.09375.17578-.0586.1914-.01953.19923.01953.19921.0586.19141.09375.17969.46094.375.1914.0586.19922.01952.19922-.01953.1914-.0586.46094-.375.09375-.17968.0586-.1914.01953-.19922"/></g><g clip-path="url(#y)"><path fill="none" stroke="#000" stroke-linecap="round" stroke-linejoin="round" stroke-miterlimit="10" stroke-width=".5" d="M319.9414 482.38672l-5.6914-4.11719"/></g><g clip-path="url(#z)"><path fill="none" stroke="#000" stroke-linecap="round" stroke-linejoin="round" stroke-miterlimit="10" stroke-width=".5" d="M329.25781 477.00781l2.30469 6.64063"/></g><path fill="none" stroke="#000" stroke-linecap="round" stroke-linejoin="round" stroke-miterlimit="10" stroke-width=".5" d="M329.59375 477.97656l.83594-.90234"/><g clip-path="url(#A)"><path fill="none" stroke="#000" stroke-linecap="round" stroke-linejoin="round" stroke-miterlimit="10" stroke-width=".5" d="M344.02734 476.82813l-.60156 7"/></g><path fill="none" stroke="#000" stroke-linecap="round" stroke-linejoin="round" stroke-miterlimit="10" stroke-width=".5" d="M344.02734 476.82813l2.25391-.96485"/><g clip-path="url(#B)"><path fill="none" stroke="#000" stroke-linecap="round" stroke-linejoin="round" stroke-miterlimit="10" stroke-width=".5" d="M356.35547 476.88281l1.3711 6.89063"/></g><path fill="none" stroke="#000" stroke-linecap="round" stroke-linejoin="round" stroke-miterlimit="10" stroke-width=".5" d="M356.55469 477.88672l.94922-.77735"/><g clip-path="url(#C)"><path fill="none" stroke="#000" stroke-linecap="round" stroke-linejoin="round" stroke-miterlimit="10" stroke-width=".5" d="M372.11719 477.28906l-3.52344 6.07813"/></g><g clip-path="url(#D)"><path fill="none" stroke="#000" stroke-linecap="round" stroke-linejoin="round" stroke-miterlimit="10" stroke-width=".5" d="M383.57813 476.8164l.1875 7.02344"/></g><path fill="none" stroke="#000" stroke-linecap="round" stroke-linejoin="round" stroke-miterlimit="10" stroke-width=".5" d="M383.60547 477.83984l1.0664-.60547"/><g clip-path="url(#E)"><path fill="none" stroke="#000" stroke-linecap="round" stroke-linejoin="round" stroke-miterlimit="10" stroke-width=".5" d="M393.75 478.96484l6.47266 2.72657"/></g><path fill="none" stroke="#000" stroke-linecap="round" stroke-linejoin="round" stroke-miterlimit="10" stroke-width=".5" d="M394.6914 479.36328l-.11327-1.22265"/><g clip-path="url(#F)"><path fill="none" stroke="#000" stroke-linecap="round" stroke-linejoin="round" stroke-miterlimit="10" stroke-width=".5" d="M412.42188 477.52734l-4.2422 5.60157"/></g><path fill="none" stroke="#000" stroke-linecap="round" stroke-linejoin="round" stroke-miterlimit="10" stroke-width=".5" d="M411.80469 478.34375l1.21094.19531"/><g clip-path="url(#G)"><path fill="none" stroke="#000" stroke-linecap="round" stroke-linejoin="round" stroke-miterlimit="10" stroke-width=".5" d="M426.76953 478.78125l-6.3086 3.09375"/></g><g clip-path="url(#H)"><path fill="none" stroke="#000" stroke-linecap="round" stroke-linejoin="round" stroke-miterlimit="10" stroke-width=".5" d="M425.85156 479.23047l.9961.71875"/></g><g clip-path="url(#I)"><path fill="none" stroke="#000" stroke-linecap="round" stroke-linejoin="round" stroke-miterlimit="10" stroke-width=".5" d="M440.41016 479.82422l-6.95704 1.00781"/></g><g clip-path="url(#J)"><path fill="none" stroke="#000" stroke-linecap="round" stroke-linejoin="round" stroke-miterlimit="10" stroke-width=".5" d="M439.39844 479.97266l.72265.98828"/></g><g clip-path="url(#K)"><path fill="none" stroke="#000" stroke-linecap="round" stroke-linejoin="round" stroke-miterlimit="10" stroke-width=".5" d="M453.73047 480.79688l-6.96485-.9375"/></g><g clip-path="url(#L)"><path fill="none" stroke="#000" stroke-linecap="round" stroke-linejoin="round" stroke-miterlimit="10" stroke-width=".5" d="M452.71484 480.66016l.42579 1.15234"/></g><g clip-path="url(#M)"><path fill="none" stroke="#000" stroke-linecap="round" stroke-linejoin="round" stroke-miterlimit="10" stroke-width=".5" d="M466.96875 479.47266l-6.8164 1.71093"/></g><g clip-path="url(#N)"><path fill="none" stroke="#000" stroke-linecap="round" stroke-linejoin="round" stroke-miterlimit="10" stroke-width=".5" d="M465.97656 479.72266l.82422.91015"/></g><g clip-path="url(#O)"><path fill="none" stroke="#000" stroke-linecap="round" stroke-linejoin="round" stroke-miterlimit="10" stroke-width=".5" d="M147.49219 466.63672l-6.98438.7539"/></g><path fill="none" stroke="#000" stroke-linecap="round" stroke-linejoin="round" stroke-miterlimit="10" stroke-width=".5" d="M147.49219 466.63672l1.3789 2.03125m11.9336-1.2539l-6.98047-.80079m6.98047.80078l.89844 2.28516m12.39843-2.14453l-6.9414-1.08203m6.9414 1.08203l.80469 2.3164m12.55078-2.73047l-7.02344-.2539m7.02344.2539l1.07422 2.20704m12.23828-2.53125l-7.01562.39453m5.99218-.33594l.63672 1.05078m13.70703-.99219l-7.02734.16016m6.0039-.13672l.59766 1.07031m13.6914-.4375l-6.92968-1.14843m5.92188.98047l.39062 1.16015m13.86719-2.44922l-6.80078 1.76172m5.8125-1.5039l.82812.90234m13.38281-1.46875l-6.61328 2.3789m5.64844-2.03125l.91016.82422m13.57422.00782l-7.02735.01953m6.00782-.01563l.57812 1.07813m13.72656-1.55078l-6.96093.95703m19.60937-2.57813l-5.63281 4.19922m4.8164-3.58984l1.10547.52734m11.85938-2.14062l-3.29688 6.20703m11.85547-1.46094l6.21485-3.28516m-5.3086 2.8047l-1.01562-.6875m13.80859-2.69532l5.44531 4.4414m-4.65234-3.79687l.23828-1.20313m14.8164-.73046l.38282 7.01953m-.32813-5.9961l1.05079-.63671m13.91015-.05079l-3.01953 6.34766m3.01953-6.34766l2.45313-.10937m10.80468.08203l-2.90234 6.40234m2.48047-5.46875l1.22266-.07812m11.49218-1.14063l-.86328 6.97266m.73828-5.95703l1.14844-.4414m14.86719 1.09374l-6.01172 3.63672m5.13672-3.10547l1.05469.6289m13.55468-.1328l-6.84765 1.58203m5.85156-1.35156l.80469.92578m13.16015-2.0625l-6.15625 3.39453m6.15625-3.39453l2.05469 1.34375m11.6211 1.0625l-6.87891-1.41797m5.8789 1.21484l.34375 1.17578m13.8672-.57812l-6.67188-2.20703m5.70312 1.88672l.20313 1.20703m14.2578-2.07813l-7.02343.17578m6-.15234l.60547 1.07031"/><g clip-path="url(#P)"><path fill="none" stroke="#000" stroke-linecap="round" stroke-linejoin="round" stroke-miterlimit="10" stroke-width=".5" d="M147.5 453.41406l-7 .57031"/></g><path fill="none" stroke="#000" stroke-linecap="round" stroke-linejoin="round" stroke-miterlimit="10" stroke-width=".5" d="M147.5 453.41406l1.32422 2.0664m11.96484-2.30077l-6.94922 1.03906m6.94922-1.03906l1.46094 1.97265m11.89453-1.375l-7.02734-.15625m7.02734.15625l1.10156 2.19141m12.16797-1.71484l-6.9375-1.10938m6.9375 1.10938l.79688 2.3203m12.5625-2.875h-7.02735m7.02735 0l1.15234 2.16407m12.0586-3.01172l-6.82032 1.69532m6.82031-1.69532l1.64063 1.82422m11.5625-2.1914l-6.59375 2.42578m6.59375-2.42578l1.82813 1.63671m11.48828-1.6328l-6.59766 2.41796m6.59766-2.41797l1.82812 1.64063m11.27734-2.10547l-6.17578 3.35156m6.17578-3.35156l2.04688 1.35547m11.41797-1.03907l-6.47656 2.71875m6.47656-2.71875l1.90234 1.55079m11.39453-1.59375l-6.4414 2.80468m6.4414-2.80469l1.92188 1.52735m10.96094-2.26172l-5.57813 4.27344m4.76563-3.65235l1.11718.50782m12.52735-1.64454l-4.60938 5.3047m3.9375-4.53126l1.19531.27344m10.78907-1.89453l-.60547 7m.51953-5.98047l1.1289-.48047m8.64063 1.83985l6.66016 2.23828m10.28906-4.6172l-.61328 7m.52734-5.98046l1.1289-.48047m11.33204-.4961l1.26953 6.91016m-1.26953-6.91015l1.92187-1.52344m10.375 1.8789l3.3047 6.19923M369.18358 451.5l.6836-1.01563m10.67187 1.6211l6.26563 3.1836m-5.35547-2.71876l-.01953-1.22656m13.89453 5.44922l3.32422-6.1875m14.34765 5.34765l-5.39062-4.5078m4.60547 3.85156l-.2539 1.19921m15.08202-2.01172l-6.84765-1.5703m6.84765 1.5703l.64063 2.3711m11.95703-.91406l-5.41016-4.48829m5.41016 4.48829l-.5 2.40234m14.03515-2.70313l-5.85156-3.88671m5 3.32422l-.11719 1.21875m14.2422-.59375l-5.76954-4.00782m4.92969 3.42578l-.14453 1.21875"/><g clip-path="url(#Q)"><path fill="none" stroke="#000" stroke-linecap="round" stroke-linejoin="round" stroke-miterlimit="10" stroke-width=".5" d="M147.51172 440.34766l-7.02344.0703"/></g><path fill="none" stroke="#000" stroke-linecap="round" stroke-linejoin="round" stroke-miterlimit="10" stroke-width=".5" d="M147.51172 440.34766l1.17578 2.15625m-2.19531-2.14453l.58594 1.07812m13.73046-.67578l-6.98828-.75781m6.98828.7578l.91016 2.27735m12.30078-1.73047l-6.78125-1.84765m6.78125 1.84765l.54297 2.39063m12.73047-2.2461l-6.69531-2.13671m6.6953 2.13672l.4375 2.41406m12.98438-4.11719l-6.91015 1.26563m6.91015-1.26563l1.52344 1.92188m-2.52734-1.73829l.76172.96094m13.47265-1.5039l-6.74219 1.98437m6.7422-1.98438l1.71874 1.75391m11.64844-1.5625l-6.84375 1.60156m6.84375-1.60156l1.61328 1.84766m11.71875-1.76953l-6.8789 1.4453m6.8789-1.4453l1.57422 1.8828m11.49219-2.63671l-6.3789 2.95313m6.3789-2.95313l1.95312 1.48438M267 438.85546l-6.32813 3.0586M267 438.85546l1.98047 1.44531m11.58594-.74219l-6.83204 1.64844m6.83204-1.64844l1.6289 1.83594m11.34766-2.70703l-6.15234 3.39063m6.15234-3.39063l2.05469 1.33984m11.6289-.32812l-6.89062 1.3711m6.89062-1.3711l1.55469 1.89844m11.33984-3l-6.05078 3.57421m6.05078-3.57421l2.09375 1.27734m11.17579-1.35547l-5.96094 3.72656m5.09375-3.18359l1.0625.61328m13.44922 1.88672l-6.6172-2.35938m17.90235-2.08984l-2.5586 6.54297m2.1875-5.59375l1.21876-.14063m11.16406-1.05078l.04688 7.02735m-.04688-7.02735l2.16016-1.16797m8.48437 2.42188l5.38672 4.51563m-4.60156-3.85547l.2539-1.20313m11.46094 2.9414l7.01953-.28124m-6 .24219l-.61718-1.0625m12.92187 1.27734l7-.6289m-5.98047.53515l-.67187-1.02734m17.23828 4.23437l-1.53906-6.85547m1.53906 6.85547l-1.85938 1.59766m15.75391-1.78125l-2.69922-6.48828m2.69922 6.48828l-1.5586 1.89453m15.53907-2.26172l-4.02734-5.75781m4.02734 5.7578l-1.11719 2.1875m13.21485-1.64452l-1.59375-6.84375m1.35937 5.84765l-.92187.8086"/><g clip-path="url(#R)"><path fill="none" stroke="#000" stroke-linecap="round" stroke-linejoin="round" stroke-miterlimit="10" stroke-width=".5" d="M147.4961 426.73438l-6.9922.66796"/></g><path fill="none" stroke="#000" stroke-linecap="round" stroke-linejoin="round" stroke-miterlimit="10" stroke-width=".5" d="M147.4961 426.73438l1.35546 2.04687m-2.3711-1.94922l.67579 1.02344m13.66797-.95313l-7.01953.33204m7.01953-.33204l1.2539 2.10547m-2.27343-2.0586l.625 1.0547m13.70312-1.19922l-7.00781.52734m7.00781-.52734l1.3125 2.07422m-2.33203-1.9961l.65625 1.03516m13.625-1.51563l-6.89844 1.33203m6.89844-1.33203l1.54297 1.91016m11.4414-2.86328l-6.23437 3.23828m6.23438-3.23828l2.01953 1.39062m11.375-1.22265l-6.39844 2.90234m5.46875-2.48047l.97266.75m13.53125.91406l-6.91407-1.26953m5.90625 1.08594l.3711 1.16797m13.82031-.48047l-6.64844-2.27734m6.64844 2.27734l.38672 2.42188m12.65625-5.29688l-6.10938 3.47266m5.22266-2.96875l1.03516.65625m13.33984-.8164l-6.45313 2.78515m6.45313-2.78516l1.91406 1.53125m11.67578.13672l-7.0039-.55078m7.0039.55078l.98047 2.25m12.30469-3.05469l-6.94531 1.0586m6.94531-1.0586l1.46875 1.96875m11.64062-2.73437l-6.53125 2.58984m6.53125-2.58984l1.8711 1.58594m11.1289-2.19532l-5.90234 3.8086m5.90234-3.8086l2.14454 1.19532m10.84375-1.62891l-5.2461 4.67578m5.2461-4.67578l2.30078.85156m8.625-2.01953l-.46875 7.01172m12.09375-6.70313l2.91015 6.39454m-2.48828-5.46485l.75-.97265m10.83203 1.07812l5.53516 4.32813m-4.73047-3.69922l.21094-1.21094m11.83984 1.34766l6.44922 2.79296m-6.44922-2.79296l-.19531-2.44532m14.25781 1.35157l4.95703 4.98046m-4.95703-4.98046l.72266-2.34375m11.66406 5.6914l6.8125-1.71484m-6.8125 1.71484l-1.64453-1.82031m16.01172 3.57031l4.71094-5.21484m-4.71094 5.21484l-2.38281-.59765m17.78906 1.49218l.52734-7.0039m-.52734 7.0039l-2.25.98828m2.32422-2.0078l-1.1211.49609m14.60547.53515l.03906-7.02734m-.03125 6.0039l-1.08593.57032m15.05468.39453l-1.28515-6.91016m1.28515 6.91016l-1.91796 1.52734"/><g clip-path="url(#S)"><path fill="none" stroke="#000" stroke-linecap="round" stroke-linejoin="round" stroke-miterlimit="10" stroke-width=".5" d="M147.42578 412.97266l-6.85156 1.55859"/></g><path fill="none" stroke="#000" stroke-linecap="round" stroke-linejoin="round" stroke-miterlimit="10" stroke-width=".5" d="M147.42578 412.97266l1.60547 1.85937m-2.60156-1.63281l.80078.92969m13.4961-1.21094l-6.82423 1.67187m6.82422-1.67187l1.63672 1.82812m-2.6289-1.58593l.8164.91406m13.46484-1.25781l-6.77343 1.87109m6.77344-1.8711l1.6875 1.78126m-2.67188-1.50782l.84375.89063m13.32422-1.55078l-6.50781 2.64844m6.5078-2.64844l1.88282 1.57422m11.39453-1.66016l-6.4336 2.82031m6.4336-2.82031l1.92578 1.51953m11.52344.94922l-6.69922-2.11719m5.72266 1.8086l.22266 1.20703m12.2539 1.20312l-3.07031-6.32031m2.6211 5.40234l-.72266.98829m13.1328.27734l-.36327-7.01563m.36328 7.01563l-2.10547 1.26172m18.6875-4.09375l-6.89453-1.35156m5.89062 1.15234l.35938 1.17578m14.02344-1.6836l-7.02735.0586m6.00782-.04687l.58203 1.07812m12.73828 1.41016l-4.9961-4.9375m4.26954 4.21875l-.35157 1.17578m15.21485-1.77344l-6.63672-2.3086m5.67187 1.97266l.1875 1.21485m14.15625-2.97266l-6.76953 1.88281m5.78516-1.60937l.84765.89062m13.51954-.89062l-6.89844 1.33594m5.89453-1.14063l.76953.95313m13.47656-1.45313l-6.7539 1.94531m5.76953-1.66406l.85156.88281m11.25781-3.5l-2.375 6.61328m2.03125-5.64843l1.21094-.17578m12.32422-.82813l-2.1289 6.69531m1.8203-5.72265l1.20704-.21875m9.13672-.13282l4.42968 5.45313m-3.78515-4.66016l.47656-1.1289m11.9336.5664l4.94921 4.99219m-4.94922-4.99219l.73047-2.34375m-.00781 3.07032l.36328-1.17188m12.79688-.01172l3.8164 5.90235m-3.8164-5.90235l1.1953-2.14062m-.64062 3l1.19532-2.14063m11.26171 1.5039l4.42188 5.46095m-4.42188-5.46094l.96094-2.25781m-.3164 3.05078l.48046-1.12891m12.02735.47656l4.7461 5.17969m-4.7461-5.17969l.82031-2.3125m15.78516 8.29297l-1.83203-6.78515m1.83203 6.78515l-1.79297 1.67578M451.25 417.1211l-2.00781-6.73437m1.71484 5.7539l-.8711.86329m15.01173-.08985l-3.07422-6.32031m2.6289 5.39844l-.72265.99219"/><g clip-path="url(#T)"><path fill="none" stroke="#000" stroke-linecap="round" stroke-linejoin="round" stroke-miterlimit="10" stroke-width=".5" d="M147.08984 398.76172l-6.17968 3.35156"/></g><path fill="none" stroke="#000" stroke-linecap="round" stroke-linejoin="round" stroke-miterlimit="10" stroke-width=".5" d="M147.08984 398.76172l2.04297 1.35547m11.59375-.52735l-6.82031 1.69532m6.82031-1.69532l1.64063 1.82422m11.65625-1.89453l-6.78516 1.83594m6.78516-1.83594l1.67578 1.78906m11.02344-3.02343l-5.5547 4.30468m5.5547-4.30468l2.23828 1.0078m-3.04688-.3828l1.11719.5039m12.66406-1.50781l-4.8711 5.0664m4.8711-5.0664l2.35938.66797m11.77344 3.19531l-6.50391-2.66406m17.09766 4.80469l-1.0625-6.94532m.90625 5.9375l-.98438.73047m15.41016-.01172l-2.97266-6.36718m2.53906 5.4414l-.73828.98047m15.92969-1.29687l-5.85938-3.88282m5.85938 3.88282l-.23438 2.4414m14.125-4.6289l-7.0078.49609m7.0078-.4961l1.3047 2.07813m11.73046-3.22656l-6.44922 2.79297m5.51172-2.38672l.95703.76562m7.92188 3.00391l4.30078-5.5586m-3.67578 4.75l-1.21094-.20702m14.78516-5.04297l2.52734 6.55468m15.03515-1.42187l-5.96484-3.71094m5.09766 3.17188l-.08203 1.22265m13.71875-5.07031l-4.8711 5.0625m4.16016-4.32422l1.17969.33594m8.1914-1.26563l4.4375 5.44922m-3.79297-4.65625l.47657-1.13281m15.18359-.36328l-1.53906 6.85547m17.16406-5.11328l-6.16406 3.37109m5.26953-2.88281l1.02344.67578m11.17187-2.82813l-2.13281 6.69532m2.13281-6.69532l2.41406-.4375m9.76172.27344l.14453 7.02344m-.14453-7.02344l2.14063-1.19531m9.14453 1.89453l4.20703 5.6289m-4.20703-5.6289l1.04297-2.21875m11.34375 3.2539l6.0625 3.5547m-5.17969-3.03907l.05078-1.22265m17.86719 5l-4.91016-5.02735m4.19531 4.29297l-.37109 1.17188m13.98828-.09375l-4.08594-5.71875m4.08594 5.71875l-1.09375 2.1953m12.4961-1.54296l-.26172-7.02344"/><g clip-path="url(#U)"><path fill="none" stroke="#000" stroke-linecap="round" stroke-linejoin="round" stroke-miterlimit="10" stroke-width=".5" d="M147.10156 385.46875l-6.20312 3.3086"/></g><path fill="none" stroke="#000" stroke-linecap="round" stroke-linejoin="round" stroke-miterlimit="10" stroke-width=".5" d="M147.10156 385.46875l2.03516 1.36719m-2.9375-.88672l1.01562.6836M160.82812 387l-7.02343.2461m7.02344-.2461l1.22656 2.125m11.6914-3.625l-6.23047 3.2461m6.23047-3.2461l2.02344 1.38672m11.6875.28125l-7.02344-.08985m7.02344.08985l1.125 2.17969m10.1875-5.39844l-3.01953 6.34765m3.01953-6.34765l2.44922-.10938m-2.89063 1.03516l1.22657-.05469m13.8164.17188l-5.58984 4.26172m4.77344-3.64063l1.11719.51172m13.6875 1.5664l-6.9375-1.13671m6.9375 1.13672l.78515 2.32812m12.39063-4.01562l-6.66016 2.23828m6.66016-2.23828l1.78125 1.68359m11.64843.125l-6.89062-1.3789m6.89062 1.3789l.70313 2.35156m12.66797-3.33594l-7 .58985m7-.58985l1.33203 2.0625m-2.35156-1.97656l.66796 1.03125m13.62891-1.42187l-6.92578 1.19922m6.92578-1.19922l1.5039 1.9375m-2.51171-1.76172l.7539.96875m13.58594-1.02735l-6.96093.96485m6.96093-.96485l1.4375 1.98829m11.91016-1.50391h-7.02734m7.02734 0l1.15234 2.16406m11.94532-3.38672l-6.58985 2.44141m6.58985-2.4414l1.83203 1.6289m11.41015-1.8086l-6.44531 2.80079m6.44531-2.80078l1.92188 1.52734m-2.85938-1.1211l.96094.76563m13.27734-1.20703l-6.41406 2.8711m6.41406-2.8711l1.9375 1.50781M346 386.10547l.96875.7539m12.64063-2.13671l-5.13672 4.80078m5.13672-4.80078l2.3203.79687m11.32423-.38281l-5.79297 3.97265m5.79297-3.97265l2.17578 1.13281m-3.01953-.55469l1.08984.56641M385.28125 384l-3.21875 6.2461M385.28125 384l2.45313-.03125m-2.92188.9414l1.22656-.01562m12.03125-1.11328l-2.17187 6.6836m2.17187-6.6836l2.41797-.42578m-2.73047 1.39844l2.41407-.42579m11.95312-.20703l-3.64844 6.00391m3.64844-6.0039l2.45313.14062m-2.98047.73437l2.44922.14063m12.39062-.10547l-5.64453 4.1836m5.64453-4.1836l2.21875 1.05469m-3.03906-.44531l1.10937.52734m13.71485.83594l-7.01953.23828m7.01953-.23828l1.22656 2.125m9.9414 1.23437l-2.72656-6.47656m2.33203 5.53125l-.77734.95312m16.3125-1.76953l-6.375-2.95703m6.375 2.95703l.13281 2.44922m-1.0625-2.8789l.0664 1.22265"/><g clip-path="url(#V)"><path fill="none" stroke="#000" stroke-linecap="round" stroke-linejoin="round" stroke-miterlimit="10" stroke-width=".5" d="M147.23828 372.4414l-6.47656 2.73438"/></g><path fill="none" stroke="#000" stroke-linecap="round" stroke-linejoin="round" stroke-miterlimit="10" stroke-width=".5" d="M147.23828 372.4414l1.90234 1.55079m-2.84375-1.15235l.94922.77344m13.36328-1.03125l-6.58593 2.45313m6.58594-2.45313l1.83203 1.6289m10.7578-2.80077l-5.13671 4.79687m4.38672-4.09765l1.16016.39453m11.49609-2.01172l-2.32031 6.63281m16.84765-5.90625l-4.7461 5.17969m4.7461-5.17969l2.375.61328m-3.0664.14063l1.1875.30468m13.58593-.04296l-6.28125 3.14843m6.28125-3.14844l2.00391 1.42188m-2.91797-.96484l2.0039 1.42187m12.58985-.57422l-7.00781.53516m7.00781-.53516l1.3125 2.07422m-2.33203-1.9961l1.3125 2.07423m12.85156-2.98829l-6.66797 2.21094m6.66797-2.21094l1.77735 1.69141m-2.7461-1.3711l1.77344 1.69532m12.55469-1.875l-6.75781 1.92578m6.7578-1.92578l1.70313 1.76953m-2.6836-1.48828l1.69923 1.76953m12.72265-1.32031l-7.01172.46875m7.01172-.46875l1.29688 2.08203m-2.3164-2.01563l.64843 1.04297m13.19922-2.67578l-6.03516 3.60156m6.03516-3.60156l2.09765 1.26953m-2.97656-.74609l2.10156 1.26953m12.13282-1.72265l-6.11719 3.46093m6.11719-3.46094l2.07031 1.31641m-2.96094-.8125l2.07031 1.3164m12.30079-1.49218l-6.44532 2.80469m6.44532-2.80469l1.91796 1.52734m-2.85546-1.12109l.95703.76563m13.25-1.26563l-6.35547 2.99219m6.35547-2.99219l1.96484 1.46875m11.4961-1.10938l-6.64844 2.26954m6.64844-2.26954l1.79296 1.6797m11.69532-.90626l-6.9922.72266m6.9922-.72266l1.36718 2.03906m-2.38671-1.93359l.68359 1.01953m13.52344-1.75781l-6.73829 1.99219m6.73829-1.99219l1.71875 1.75m-2.69922-1.46094l1.71875 1.7539m12.46484-2.35937l-6.51562 2.625m6.51562-2.625l1.8789 1.57813m-2.82421-1.19922l.9375.78906m12.97656-1.82422l-5.82031 3.9375m5.82031-3.9375l2.16797 1.14844m-3.01563-.57422l1.08594.57422m12.92188-1.35937l-5.51172 4.35937m5.51172-4.35937l2.2461.98437m-3.04688-.35156l1.12109.4961m13.26563-.73438l-6.0547 3.57031m6.0547-3.57031l2.09375 1.28125m-2.97657-.76172l2.09375 1.28125m12.3711-1.23438l-6.58985 2.4375m6.58985-2.4375l1.83203 1.62891m-2.78906-1.27734l1.83203 1.6328m12.49218-1.83983l-6.6914 2.14843m6.6914-2.14844l1.75782 1.70704m-2.73047-1.39454l1.75781 1.71094m-2.73438-1.39844l.88282.85547m14.52344-.84375l-6.97266.875m6.97265-.875l1.41016 2.00391m-2.42578-1.8789l.70703 1.0039m13.23047.97656l-6.1875-3.33594m6.1875 3.33594l-.01563 2.45313"/><g clip-path="url(#W)"><path fill="none" stroke="#000" stroke-linecap="round" stroke-linejoin="round" stroke-miterlimit="10" stroke-width=".5" d="M147.28125 359.23438l-6.5625 2.51562"/></g><path fill="none" stroke="#000" stroke-linecap="round" stroke-linejoin="round" stroke-miterlimit="10" stroke-width=".5" d="M147.28125 359.23438l1.85156 1.61328m-2.8086-1.2461l.92579.80469m11.8086-2.96094l-3.48829 6.09766m3.48828-6.09766l2.45313.07422m12.10547 1.125l-5.97266 3.69922m5.97266-3.69922l2.1211 1.23438m-2.9922-.69922l1.0625.61719m13.625.27343l-6.97656.84766m6.97656-.84766l1.40235 2.01172m-2.41797-1.89062l1.40625 2.01171m-2.42188-1.88671l.70313 1.0039m14.52734-1.8164l-6.74219 1.98046m6.7422-1.98046l1.71484 1.7539m-2.69532-1.46484l1.71485 1.7539M213.75 358.9922l-6.35156 3.0039m6.35156-3.0039l1.96875 1.46484m-2.89063-1.02734l1.96485 1.46484m12.40625-1.57812l-6.6211 2.35156m6.6211-2.35156l1.8125 1.65625m-2.77344-1.3125l1.8086 1.65625m12.47656-1.97266l-6.63672 2.30078m6.63672-2.30078l1.80078 1.66797m-2.76563-1.33594l.89844.83594m13.29297-1.40625l-6.45703 2.77344m6.45703-2.77344l1.91406 1.53515m-2.85547-1.1289l1.91407 1.53515m12.57812-1.1328l-6.92969 1.15624m6.9297-1.15625l1.49218 1.94922m-2.5-1.78125l1.49219 1.94922m12.84765-1.9961l-6.96484.91407m6.96484-.91406l1.42578 2m-2.4375-1.8672l1.42188 2m12.5039-3.36327l-6.16406 3.375m6.16407-3.375l2.05078 1.34765m-2.94532-.85546l1.02344.67187m12.98438-1.48828l-5.75782 4.02734m5.75782-4.02734l2.1875 1.11719m-3.02344-.53125l1.08984.55859m13.41407-.51172l-6.46485 2.75781m6.46485-2.7578l1.91015 1.54296m11.66406-.55469l-6.98437.78125m6.98437-.78125l1.38672 2.02735m-2.40234-1.91016l.6914 1.01172m13.63672-.3164l-6.97656-.84376m6.97656.84375l.88282 2.28906m-1.89844-2.41015l.4414 1.14453m13.91407-1.49219l-7.02735.09375m7.02735-.09375l1.17969 2.15235m-2.20313-2.13672l.58984 1.07422m13.57422-2.13672l-6.67968 2.1875m6.67968-2.1875l1.76953 1.70312m-2.74218-1.38281l1.76953 1.69922m12-3.01953l-5.64063 4.1914m5.64063-4.1914l2.21484 1.05078m-3.03515-.4414l2.21484 1.05077m11.58594-2.05078L394.5 362.97656m4.97266-4.96875l2.34375.71875m-3.07032.0039l1.17579.35938m13.03515-.89843l-5.3125 4.60156m5.3125-4.60156l2.28906.88671m-3.0625-.21484l1.14454.4414m13.30468-.60937l-6.03515 3.59766m6.03515-3.59766l2.10157 1.26953m-2.97657-.74609l2.09766 1.26953m12.0664-1.83984l-5.98046 3.6875m5.98047-3.6875l2.11718 1.23828m-2.98828-.69922l2.11719 1.23828m12.19531-1.55469l-6.23047 3.2461m6.23047-3.2461l2.02344 1.38672m-2.92969-.91797l2.01953 1.39063m12.52735-.9414l-6.88282 1.40624"/><g clip-path="url(#X)"><path fill="none" stroke="#000" stroke-linecap="round" stroke-linejoin="round" stroke-miterlimit="10" stroke-width=".5" d="M467.0039 359.78906l1.5625 1.89453"/></g><path fill="none" stroke="#000" stroke-linecap="round" stroke-linejoin="round" stroke-miterlimit="10" stroke-width=".5" d="M466.0039 359.9961l1.5625 1.89062"/><g clip-path="url(#Y)"><path fill="none" stroke="#000" stroke-linecap="round" stroke-linejoin="round" stroke-miterlimit="10" stroke-width=".5" d="M147.33594 346.07422l-6.67188 2.20703"/></g><path fill="none" stroke="#000" stroke-linecap="round" stroke-linejoin="round" stroke-miterlimit="10" stroke-width=".5" d="M147.33594 346.07422l1.77344 1.69922m-2.7422-1.375l.88673.84765m12.93359-2.08984l-5.7461 4.04688m5.7461-4.04688l2.1875 1.10547m-3.02344-.51953l2.1914 1.10937m-3.02733-.51953l1.09375.55469m14.22656-1.14844l-6.41016 2.8789m6.41016-2.8789l1.9375 1.5039m-2.8711-1.08593l1.9375 1.5039m-2.87109-1.08593l.96875.7539m14.1836-1.64843l-6.35157 2.9961m6.35156-2.9961l1.96875 1.46875m-2.89062-1.03516l1.96484 1.46875m12.59766-.70312l-7.0039.59765m7.0039-.59765l1.33203 2.05859M213.88672 346l-6.6211 2.35938M213.88673 346l1.8125 1.65234m11.66406-1.01171l-6.94531 1.07421m6.94531-1.07421l1.46875 1.96484m-2.48047-1.8086l.73438.98438m13.63281-.64844l-7.02734.08985m7.02734-.08985l1.17969 2.15235m12.0625-2.82032l-6.8789 1.42579m6.8789-1.42579l1.5664 1.88672m-2.5664-1.67969l.78125.94532m13.57031-.94531l-6.95313 1.01171m6.95313-1.01171l1.45313 1.97656m-2.46485-1.82813l1.45313 1.97656m12.70703-2.79296l-6.6211 2.34765m6.6211-2.34765l1.8125 1.65625M279.5 346.34375L281.3086 348m12.17187-2.6289l-6.02734 3.61327m6.02734-3.61328l2.10156 1.26563m-2.98047-.74219l1.05078.63281m12.73438-1.70312l-5.21094 4.71094m5.21094-4.71094l2.3086.83203m-3.06641-.14844l1.15234.41797m13.53906-.14453l-6.44922 2.79688m6.44922-2.79688l1.91797 1.52734m-2.85547-1.12109l.95703.76563m13.20704-1.36329l-6.26954 3.17579m6.26954-3.17579l2.0039 1.41407m-2.91797-.94922l2.00782 1.41015m12.53906-.9375l-6.90625 1.30079m5.90234-1.10938l.76563.95703m13.35937.8164l-6.51953-2.6289m6.51953 2.6289l.25781 2.44141m-1.20703-2.82421l.1289 1.21875m14.37892-2.42188l-7.00782.54297m7.00782-.54297l1.3164 2.07031m-2.33594-1.99219l1.31641 2.07032m12.77344-3.19531l-6.51563 2.63671m6.51563-2.63671l1.8789 1.57421m-2.82812-1.1914l1.8789 1.57812m12.11329-2.4961L394 349.03126m5.97266-3.70703l2.12109 1.23437m-2.99219-.6953l2.1211 1.23437m-2.98828-.69532l1.05859.6172m13.46875-2.35157l-4.91797 5.01953m4.91797-5.01953l2.35156.69531m-3.07031.03516l2.35547.6914m-3.07031.03907l1.17968.34765m13.48828-1.88281l-4.7578 5.17188m4.7578-5.17188l2.375.61719m-3.0664.13281l2.3711.6211m-3.06641.1328l1.1875.3086m13.5078-1.8164l-4.74609 5.17968m4.7461-5.17969l2.375.61329m-3.0664.13671l2.3789.6172m12.16015-.75392l-5.8125 3.94922m5.8125-3.94921l2.17188 1.14453m-3.01563-.57032l2.16797 1.14844m12.13282-1.4961l-6.09766 3.4961"/><g clip-path="url(#Z)"><path fill="none" stroke="#000" stroke-linecap="round" stroke-linejoin="round" stroke-miterlimit="10" stroke-width=".5" d="M466.60938 345.42969l2.07812 1.3086"/></g><g clip-path="url(#aa)"><path fill="none" stroke="#000" stroke-linecap="round" stroke-linejoin="round" stroke-miterlimit="10" stroke-width=".5" d="M465.72266 345.9414l2.07812 1.3047"/></g><g clip-path="url(#ab)"><path fill="none" stroke="#000" stroke-linecap="round" stroke-linejoin="round" stroke-miterlimit="10" stroke-width=".5" d="M147.39844 332.96875l-6.79688 1.78906"/></g><path fill="none" stroke="#000" stroke-linecap="round" stroke-linejoin="round" stroke-miterlimit="10" stroke-width=".5" d="M147.39844 332.96875l1.66406 1.80078m-2.65234-1.54297l1.66406 1.80469m11.97656-3.3711l-5.47266 4.40626m5.47266-4.40625l2.25781.96484m-3.05468-.32422l2.2578.96485M173 331.26952l-4.73828 5.1875M173 331.26953l2.375.60938m-3.0664.14453l1.1914.30469m13.33594-.46485l-5.78125 4m5.78125-4l2.17969 1.125m-3.02344-.54297l2.17969 1.125m12.4375-.76562l-6.69922 2.11719m6.69922-2.1172l1.7539 1.71876m-2.72656-1.41016l.875.85938m13.21875-1.65235l-6.3125 3.08594m6.3125-3.08594l1.98828 1.4414m11.60156.8672l-6.85937-1.53125m5.85937 1.30859l.32813 1.1836m13.98437-.95704l-6.85547-1.53906m6.85547 1.53906l.65235 2.36328m12.70312-2.57421l-6.9375-1.1172m6.9375 1.1172l.79297 2.32421m-1.80078-2.48437l.39453 1.16015m13.96094-1.85156l-7 .58594m7-.58594l1.32812 2.0625m-2.34765-1.97656l1.32812 2.0625m12.96094-2.49219L273.6953 334.5m6.91016-1.27344l1.52734 1.92188m-2.53125-1.73438l1.52344 1.92188m12.79688-2.09766l-6.91407 1.25m6.91407-1.25l1.51953 1.92578m-2.52344-1.74219l.75781.96094m13.2461-2.09765l-6.28125 3.15625m6.28125-3.15625l2 1.41796m-2.91407-.95703l1 .70704m12.96485-1.60938l-5.75391 4.03906m5.7539-4.03906l2.1875 1.10938m-3.02734-.52344l1.09375.5586m12.71485-1.5625l-5.0625 4.875m5.0625-4.875l2.33203.76171m-3.0664-.05078l2.33202.76172m12.69922.99219l-7.02734-.0547m7.02734.0547l1.13672 2.17578m-2.15625-2.1836l.5664 1.08594m13.51954.19922l-6.52735-2.60938m6.52735 2.60938l.26172 2.4375m-1.21094-2.8164l.26172 2.4375m14.25-3.29688l-7.02344-.13281m7.02344.1328l1.11328 2.1875m-2.13281-2.20702l1.10937 2.1875m12.28516-4.62891l-5.14063 4.78906m5.14063-4.78906l2.32031.79688m-3.07031-.10157l2.32031.80078m11.51172-1.72265l-4.67578 5.24219m4.67578-5.2422l2.38281.58204m-3.0625.17969l1.1914.29296m13.03907-.82421l-5.14844 4.78125m5.14844-4.78125l2.32031.80468m-3.07031-.10937l1.16016.40234m12.05078-1.77344l-3.4375 6.13282m3.4375-6.13281l2.44922.05468m-2.94922.83985l1.22656.02734m12.9961-.65234l-4.25391 5.59375m4.2539-5.59375l2.42188.39062m-3.04297.42188l1.21094.1953m13.98047.84376l-6.76563 1.89062m6.76563-1.89062l1.6953 1.77734m-2.67968-1.5039l.84766.89062m13.21875-1.78125l-6.29688 3.125"/><g clip-path="url(#ac)"><path fill="none" stroke="#000" stroke-linecap="round" stroke-linejoin="round" stroke-miterlimit="10" stroke-width=".5" d="M466.71094 332.30078l1.99219 1.42969"/></g><g clip-path="url(#ad)"><path fill="none" stroke="#000" stroke-linecap="round" stroke-linejoin="round" stroke-miterlimit="10" stroke-width=".5" d="M465.79297 332.75781l1.9961 1.42578"/></g><path fill="none" stroke="#000" stroke-linecap="round" stroke-linejoin="round" stroke-miterlimit="10" stroke-width=".5" d="M464.8789 333.21094l.9961.71484"/><g clip-path="url(#ae)"><path fill="none" stroke="#000" stroke-linecap="round" stroke-linejoin="round" stroke-miterlimit="10" stroke-width=".5" d="M147.36719 319.54688l-6.73438 2.0039"/></g><path fill="none" stroke="#000" stroke-linecap="round" stroke-linejoin="round" stroke-miterlimit="10" stroke-width=".5" d="M147.36719 319.54688l1.72265 1.74609m-2.70312-1.45703l1.72266 1.75m-2.70313-1.45703l.86328.875m14.21484-1.96875l-6.33984 3.02734m6.33984-3.02734l1.97266 1.45703m-2.89453-1.01563l1.97266 1.45703m-2.89453-1.01953l.98828.73047m14.2539-1.42187l-6.50781 2.64843m6.50781-2.64843l1.88672 1.57421m-2.83203-1.1875l1.88281 1.57422m-2.82812-1.1875l1.88281 1.57032m13.41797-2.08204l-6.69531 2.12891m6.6953-2.1289l1.75392 1.71484m-2.72657-1.40625l1.7539 1.71484m-2.73046-1.40625l.8789.85938m14.46094-1.20313l-6.84765 1.58203m6.84765-1.58203l1.60938 1.85156m-2.60547-1.62109l1.60938 1.85156m-2.60547-1.62109l.80468.92578m14.32813-1.9336l-6.4961 2.67579m6.4961-2.67578l1.89062 1.5625m-2.83593-1.17578l1.89062 1.5664m-2.83594-1.17578l.94532.78125m14.5039-.6211l-6.98437.79688m6.98437-.79687l1.39063 2.02344m-2.40625-1.90625l1.39062 2.01953m12.90235-1.09766l-6.91016-1.27734m6.91016 1.27734l.73828 2.33984M239.65625 321l.73828 2.33984m13.64063-2.79296h-7.02735m7.02735 0l1.15234 2.16796m-2.17578-2.16796l1.15234 2.16796m13.16016-2.59375l-6.97656.85547m6.97656-.85547l1.40625 2.00782m-2.42188-1.88282l1.40625 2.00782m12.63672-3.15625L273.94922 322m6.40234-2.90234l1.9414 1.49609m-2.875-1.07422l1.94532 1.4961m12.59766-.82813l-6.98828.72266m6.98828-.72266l1.36718 2.03516m-2.3828-1.9297l.68359 1.01563m13.64843-1.08593l-6.99609.65234m6.9961-.65234l1.35156 2.04687m-2.3672-1.95312l1.34766 2.05078m12.52735-3.58203l-6.08203 3.52343m6.08203-3.52343l2.08203 1.29687m-2.96875-.78515l1.04297.64843m13.0586-1.3164l-5.88282 3.83984m5.88281-3.83984l2.15235 1.18359m-3.00782-.625l1.07422.58984m13.58203-.01562l-6.85156 1.57031m6.85156-1.57031l1.60547 1.85547m-2.60547-1.625l1.60938 1.85156m-2.60547-1.625l.80469.92969m14.57812-.94922l-6.9961.69531m6.9961-.69531l1.35938 2.04297m-2.3789-1.9414l.67968 1.02343m13.3789-2.17578l-6.4453 2.79687m6.4453-2.79687l1.92188 1.53125m-2.85938-1.125l.96094.76562m12.47266-2.33594l-4.80469 5.12891m4.80469-5.1289l2.36719.64062m-3.06641.10547l1.1836.32031m11.73437-1.76562l-2.61328 6.52343m2.61328-6.52343l2.4375-.26563m8.41406.21094l2.3125 6.63672m-2.3125-6.63672l1.66797-1.80078M423 317.08984l1.23437 6.91797M423 317.08984l1.92969-1.51562m13.15234 8.29297l-2.30078-6.64063m17.71875 1.9961l-6.50781 2.65234m6.50781-2.65234l1.88281 1.5703m-2.82812-1.1875l.9414.78517m12.875-1.95313l-5.61718 4.22266"/><g clip-path="url(#af)"><path fill="none" stroke="#000" stroke-linecap="round" stroke-linejoin="round" stroke-miterlimit="10" stroke-width=".5" d="M466.3711 318.4375l2.22265 1.03906"/></g><g clip-path="url(#ag)"><path fill="none" stroke="#000" stroke-linecap="round" stroke-linejoin="round" stroke-miterlimit="10" stroke-width=".5" d="M465.55469 319.05078l2.22265 1.03906"/></g><path fill="#00f" fill-rule="evenodd" d="M308.34766 476.52344h8.61718V466.3789h-8.61718v10.14453"/><path fill="azure" fill-rule="evenodd" d="M310.17969 468.21094h.83594v2.82422h3.28515v-2.82422h.83203v6.48047h-.83203v-2.91407h-3.28515v2.91407h-.83594v-6.48047"/><path fill="#00f" fill-rule="evenodd" d="M388.23828 476.52344h8.61719V466.3789h-8.61719v10.14453"/><path fill="azure" fill-rule="evenodd" d="M390.07031 468.21094h.83594v2.82422h3.28516v-2.82422h.83203v6.48047h-.83203v-2.91407h-3.28516v2.91407h-.83594v-6.48047"/><path fill="#00f" fill-rule="evenodd" d="M241.77344 467.64844h8.61719V457.5039h-8.6172v10.14453"/><path fill="azure" fill-rule="evenodd" d="M243.60547 459.33594h.83203v2.82422h3.28906v-2.82422h.83203v6.48047h-.83203v-2.91797h-3.28906v2.91797h-.83203v-6.48047"/><path fill="#ff3030" fill-rule="evenodd" d="M206.96094 449.89453h7.6914V439.75h-7.6914v10.14453"/><path fill="azure" fill-rule="evenodd" d="M208.79297 441.58203h.83203v5.73828h3.19531v.74219h-4.02734v-6.48047"/><path fill="#00f" fill-rule="evenodd" d="M388.23828 436.57813h8.61719v-10.14454h-8.61719v10.14454"/><path fill="azure" fill-rule="evenodd" d="M390.07031 428.26563h.83594v2.82421h3.28516v-2.82421h.83203v6.48046h-.83203v-2.91406h-3.28516v2.91406h-.83594v-6.48046"/><path fill="#00f" fill-rule="evenodd" d="M228.45703 423.26563h8.6211v-10.14844h-8.6211v10.14844"/><path fill="azure" fill-rule="evenodd" d="M230.28906 414.95313h.83594v2.8203h3.28516v-2.8203h.83203v6.48046h-.83203v-2.91796H231.125v2.91796h-.83594v-6.48046"/><path fill="#ff3030" fill-rule="evenodd" d="M433.3164 401.07422h7.69141v-10.14844h-7.6914v10.14844"/><path fill="azure" fill-rule="evenodd" d="M435.14844 392.76172h.83594V398.5h3.1914v.73828h-4.02734v-6.47656"/><path fill="#ff3030" fill-rule="evenodd" d="M295.72656 396.63281h7.69531v-10.14453h-7.6953v10.14453"/><path fill="azure" fill-rule="evenodd" d="M297.5586 388.32031h.83593v5.74219h3.1914v.73828h-4.02734v-6.48047"/><path fill="#ff3030" fill-rule="evenodd" d="M202.52344 370.0039h7.6914v-10.14452h-7.6914v10.14453"/><path fill="azure" fill-rule="evenodd" d="M204.35547 361.6914h.83203v5.73829h3.19531v.74219h-4.02734v-6.48047"/><path fill="#ffffe0" fill-rule="evenodd" d="M342.35547 365.79688h22.17969v-10.19141h-22.1797v10.1914"/><path fill-rule="evenodd" d="M345.85547 357.4375h.50781v6.29688h-.78515v-4.4922h-1.39063v-.55468l.5586-.0664.2539-.05079.23047-.08984.20312-.14063.17188-.21093.14453-.29688.10547-.39453m4.8125 0l.23047.01953.21875.05469.20703.08984.19531.1211.1836.14843.17187.17579.30078.42187.2461.49219.17968.54687.10938.57813.03906.59375-.03906.58984-.10938.58594-.17969.55469-.24609.5-.30078.42968-.17188.1797-.18359.15233-.19531.125-.20703.08985-.21875.0586-.23047.01952-.23047-.01953-.21875-.0586-.20703-.08983-.19531-.125-.1875-.15235-.16797-.17969-.30469-.42968-.24219-.5-.17969-.5547-.11328-.58593-.03515-.58984h.83203l.02734.5625.08203.5039.12891.44532.16016.375.1914.29687.21094.22266.22266.13672.22656.04687.22656-.04687.22266-.13672.21094-.22266.1914-.29687.16016-.375.1289-.44532.07813-.5039.03125-.5625-.03125-.5625-.07813-.5-.1289-.4375-.16016-.36328-.1914-.29297-.21094-.21485-.22266-.1328-.22656-.04298-.22656.04297-.22266.13281-.21094.21485-.1914.29297-.16016.36328-.1289.4375-.08204.5-.02734.5625h-.83203l.03515-.59375.11329-.57813.17968-.54687.24219-.49219.30469-.42188.16797-.17578.1875-.14843.1953-.1211.20704-.08984.21875-.05469.23047-.01953m5.08984 0h.51172v6.29688h-.78906v-4.4922h-1.38672v-.55468l.5586-.0664.2539-.05079.22656-.08984.20313-.14063.17578-.21093.14062-.29688.10547-.39453m2.82422 2.17578h.78906l.01954-.3164.05859-.28516.09765-.2539.14063-.21485.17969-.17188.22656-.1289.26172-.08203.3086-.02735.23827.01953.22266.0625.20703.10157.17969.14062.14844.17188.11328.20703.07031.23437.02344.26563-.01953.26953-.06641.22265-.10938.19141-.15625.17188-.19921.16406-.25.16406-.63282.39063-.53515.3125-.4375.3164-.34766.32422-.26562.33594-.1875.35156-.125.3711-.07032.39062-.01953.42188h4.21094v-.7422h-3.33203l.08203-.28515.11328-.23437.14844-.20313.1875-.17969.23047-.17187.27734-.17578.71875-.41406.41406-.20704.34766-.23046.28125-.25.21875-.26954.16406-.27734.10938-.28516.0664-.28515.01954-.28125-.04297-.38281-.1211-.34766-.1875-.3086-.25-.26171-.30469-.21094-.34375-.16016-.3828-.09765-.40626-.03516-.4336.03516-.39843.09765-.35547.16406-.30469.23438-.24609.30469-.1875.375-.11719.44531-.03906.51953"/><path fill="#ffffe0" fill-rule="evenodd" d="M217.46875 342.23047h22.17969v-10.1914h-22.17969v10.1914"/><path fill-rule="evenodd" d="M220.96875 333.8711h.50781v6.29687h-.78515v-4.49219h-1.38672v-.55469l.5586-.0664.25-.05078.23046-.08985.20313-.14453.17578-.20703.14062-.29688.10547-.39453m4.8125 0l.23047.01954.21875.05468.20703.08985.19922.12109.1836.14844.17187.17578.30078.42187.24219.4922.17968.54687.11328.57812.03907.59375-.03906.58985-.11329.58593-.17968.55469-.2422.5-.30077.42969-.17188.17969-.1836.15234-.19921.125-.20703.08984-.21875.0586-.23047.01953-.22656-.01953-.21875-.0586-.21094-.08984-.19531-.125-.1836-.15235-.17187-.17968-.30078-.42969-.24219-.5-.17969-.55469-.11328-.58594-.03906-.58984h.83594l.02734.5625.08203.5039.125.44532.16406.3711.19141.30077.20703.22266.22266.13672.22656.04688.22656-.04688.22266-.13672.21094-.22265.1914-.30079.16406-.37109.125-.44531.08204-.5039.02734-.5625-.02734-.5625-.08203-.5-.125-.4375-.16407-.36329-.1914-.29297-.21094-.21484-.22266-.13281-.22656-.04297-.22656.04296-.22266.13282-.20703.21484-.1914.29297-.16407.36328-.125.4375-.08203.5-.02734.5625h-.83594l.03906-.59375.11328-.57812.17969-.54688.24219-.49219.30078-.42187.17187-.17578.1836-.14844.19531-.1211.21094-.08984.21875-.05469.22656-.01953m5.09375 0h.50781v6.29688h-.78515v-4.49219h-1.39063v-.55469l.5625-.0664.25-.05078.23047-.08985.20313-.14453.17578-.20703.14062-.29688.10547-.39453m2.82422 2.17579h.78516l.01953-.31641.05859-.28516.10156-.2539.14063-.21485.17969-.17578.22265-.1289.26563-.07813.30859-.02734.23828.01953.22266.0625.20312.10156.17969.14063.14844.17187.11328.20703.07422.23438.02344.26562-.02344.26953-.0625.22266-.11328.1914-.15235.17188-.20312.16406-.2461.16406-.6328.39063-.53907.3125-.4375.3164-.34766.32423-.26172.33593-.1914.35156-.125.3711-.07031.39062-.01954.42188h4.21094v-.74219h-3.33203l.08594-.28515.11328-.23438.14844-.20313.1875-.17968.23047-.17188.27734-.17578.71875-.41797.41406-.20312.34375-.23047.28125-.2539.21875-.26563.16406-.27735.11328-.28515.0625-.28516.01954-.28125-.03907-.38281-.12109-.34766-.1914-.3086-.25-.26171-.30079-.21484-.34765-.15625-.37891-.09766-.40625-.03516-.4336.03516-.39843.09766-.35547.16406-.30469.23437-.25.3047-.1836.375-.11718.4453-.03906.51954"/></g></defs><use xlink:href="#ah"/></svg>