<svg xmlns="http://www.w3.org/2000/svg" role="img" xmlns:xlink="http://www.w3.org/1999/xlink" viewBox="142.45 309.95 326.84 171.84"><defs><clipPath id="a"><path d="M144 311.67188h1v168.65625h-1zm0 0"/></clipPath><clipPath id="b"><path d="M144 311.67188h324v168.65625H144zm0 0"/></clipPath><clipPath id="c"><path d="M387 479h3v1.32813h-3zm0 0"/></clipPath><clipPath id="d"><path d="M467 311.67188h1v168.65625h-1zm0 0"/></clipPath><clipPath id="e"><path d="M144 479h4v1.32813h-4zm0 0"/></clipPath><clipPath id="f"><path d="M146 480h2v.32813h-2zm0 0"/></clipPath><clipPath id="g"><path d="M153 479h9v1.32813h-9zm0 0"/></clipPath><clipPath id="h"><path d="M159 479h2v1.32813h-2zm0 0"/></clipPath><clipPath id="i"><path d="M166 479h9v1.32813h-9zm0 0"/></clipPath><clipPath id="j"><path d="M172 480h2v.32813h-2zm0 0"/></clipPath><clipPath id="k"><path d="M180 479h8v1.32813h-8zm0 0"/></clipPath><clipPath id="l"><path d="M187 480h2v.32813h-2zm0 0"/></clipPath><clipPath id="m"><path d="M193 479h8v1.32813h-8zm0 0"/></clipPath><clipPath id="n"><path d="M200 480h2v.32813h-2zm0 0"/></clipPath><clipPath id="o"><path d="M206 479h9v1.32813h-9zm0 0"/></clipPath><clipPath id="p"><path d="M213 480h3v.32813h-3zm0 0"/></clipPath><clipPath id="q"><path d="M220 479h8v1.32813h-8zm0 0"/></clipPath><clipPath id="r"><path d="M226 480h2v.32813h-2zm0 0"/></clipPath><clipPath id="s"><path d="M233 479h8v1.32813h-8zm0 0"/></clipPath><clipPath id="t"><path d="M239 480h2v.32813h-2zm0 0"/></clipPath><clipPath id="u"><path d="M247 478h7v2.32813h-7zm0 0"/></clipPath><clipPath id="v"><path d="M260 478h8v2.32813h-8zm0 0"/></clipPath><clipPath id="w"><path d="M273 478h8v2.32813h-8zm0 0"/></clipPath><clipPath id="x"><path d="M287 478h7v2.32813h-7zm0 0"/></clipPath><clipPath id="y"><path d="M300 478h8v2.32813h-8zm0 0"/></clipPath><clipPath id="z"><path d="M305 480h2v.32813h-2zm0 0"/></clipPath><clipPath id="A"><path d="M313 479h8v1.32813h-8zm0 0"/></clipPath><clipPath id="B"><path d="M319 480h2v.32813h-2zm0 0"/></clipPath><clipPath id="C"><path d="M326 479h9v1.32813h-9zm0 0"/></clipPath><clipPath id="D"><path d="M333 479h3v1.32813h-3zm0 0"/></clipPath><clipPath id="E"><path d="M340 478h8v2.32813h-8zm0 0"/></clipPath><clipPath id="F"><path d="M353 478h8v2.32813h-8zm0 0"/></clipPath><clipPath id="G"><path d="M369 476h3v4.32813h-3zm0 0"/></clipPath><clipPath id="H"><path d="M382 476h3v4.32813h-3zm0 0"/></clipPath><clipPath id="I"><path d="M395 476h4v4.32813h-4zm0 0"/></clipPath><clipPath id="J"><path d="M409 476h3v4.32813h-3zm0 0"/></clipPath><clipPath id="K"><path d="M423 476h2v4.32813h-2zm0 0"/></clipPath><clipPath id="L"><path d="M435 476h4v4.32813h-4zm0 0"/></clipPath><clipPath id="M"><path d="M447 477h6v3.32813h-6zm0 0"/></clipPath><clipPath id="N"><path d="M461 477h6v3.32813h-6zm0 0"/></clipPath><clipPath id="O"><path d="M144 466h4v2h-4zm0 0"/></clipPath><clipPath id="P"><path d="M144 453h4v2h-4zm0 0"/></clipPath><clipPath id="Q"><path d="M144 439h4v2h-4zm0 0"/></clipPath><clipPath id="R"><path d="M144 426h4v2h-4zm0 0"/></clipPath><clipPath id="S"><path d="M144 412h4v4h-4zm0 0"/></clipPath><clipPath id="T"><path d="M144 397h3v6h-3zm0 0"/></clipPath><clipPath id="U"><path d="M466 399h2v4h-2zm0 0"/></clipPath><clipPath id="V"><path d="M144 384h3v6h-3zm0 0"/></clipPath><clipPath id="W"><path d="M466 387h2v4h-2zm0 0"/></clipPath><clipPath id="X"><path d="M144 371h4v5h-4zm0 0"/></clipPath><clipPath id="Y"><path d="M466 373h2v4h-2zm0 0"/></clipPath><clipPath id="Z"><path d="M144 357h3v7h-3zm0 0"/></clipPath><clipPath id="aa"><path d="M466 359h2v3h-2zm0 0"/></clipPath><clipPath id="ab"><path d="M144 343h1v8h-1zm0 0"/></clipPath><clipPath id="ac"><path d="M144 342h3v2h-3zm0 0"/></clipPath><clipPath id="ad"><path d="M144 343h2v2h-2zm0 0"/></clipPath><clipPath id="ae"><path d="M466 345h2v3h-2zm0 0"/></clipPath><clipPath id="af"><path d="M144 331h4v5h-4zm0 0"/></clipPath><clipPath id="ag"><path d="M466 332h2v3h-2zm0 0"/></clipPath><clipPath id="ah"><path d="M144 317h3v7h-3zm0 0"/></clipPath><clipPath id="ai"><path d="M466 319h2v3h-2zm0 0"/></clipPath><g id="aj" clip-path="url(#clip1)"><path fill="#fff" fill-opacity="0" fill-rule="evenodd" d="M0 0h1000v1000H0zm0 0"/><path fill="#d3d3d3" fill-opacity="0" fill-rule="evenodd" d="M162.15234 355.86719l-.23437.29297.0586.23437.11718.17188.17578.23437.29297.34766.11328.0586.11719-.17188.0586-.23438.17577-.17578.46485-.17578h.69922l.23437.29297.28906.8164.0586.17579.17578.23046.35156.23438.69922.69922.17188.17578.23437.34765.23438.41016.28906.58203.41015.46485.23047.23437.23438.17578.11719.23047.17578.29297.17187 1.16406v.23438l.0586.28906.05859.11719.11719.11719.34765.41015.11719.17188.17578.17578.17578.23437.11719.17188.17188.35156.05859.23438.23437.40625.23438-.0586-.17578.17578-.0586.92969h-.58203l-.23437-.11328-.34766.11328-.11719.11719-.05859.29297-.0586.17578-.11718.17187-.46484.29297-.0586.23438-.0586.11328v.64453l.0586.17187v.41016l.0586.0586v.40624l.05859.40625.11719.17579.05859.05859.23047.64062-.0586.29297v.69922l-.05859.58203v.23438l-.0586.23047-.05468.35156v1.92187l.05469.1172h.42578l-.36719.11718-.02344.35156.89063 1.16797 1.74219.53906 1.33984.35938v.53906l.08984.8086.53516.71484 1.51953.26953.89063-.08594.08984 1.16406.53516.1797 1.16015-.1797 2.05469-.98437 1.16016-.36328 1.8789-.17578 1.69531-.1797-.17968.71876-1.51563.08594-1.25.08984-.80469.26953-1.07421.8086.26953.71875.53515.89843-.17968.625-.26563.8086.26563 1.07812.625.89844.80468.17969 1.25-.1797-.26562.72267.09766.5039.05468.29297v.17188l.0586.29296v.40625l.17578.1172.35156.11718h.40625l.29297-.17578.11328-.11719.0586-.11719.11718-.23047.0586-.17578.35156-.46484.23047-.17578.17578-.0586.17578.0586.0586.17578.11718.98828.05469.46875.0586.17188.11718.23437.17578.0586.8164.05859h.28907l.11719.23437.05859.40625.0586.35156v1.10547l.11718.29297.11719.34766.28906.69922.17578.35156.58203.7539.35157.17579.17187.0586.46875.23437.64063.46484.34765.23438.29297.17578.29297.05468.23047.0625.8164.34766.29297.17578.11328.17188.35157.35156.11719.17578.52343.64063v.28906l.0586.35156v.34766l.05859.35156.0586.28906.11718.0586.17188.05859h.17578l.58203.23437.17578.1172.17578.28905.17578.23438.11328.23437.29297.23047.11719.11719v.41016l.0586.05468.28906.23438.23437.11719.0586.11718.11718.17188.0586.11719.23047.23437.05859.17578.23437.0586.1172.05859-.1172.11328-.05859.11719v.11719l-.11719.29296-.11719.28907v.58203l.17579.11719.11718.05859.0586.11719.11719.11719.11328.05859.17578.34765.0586.35157.05858.40625v.17578l-.05859.17578-.11719.69922v.17187l.1172.17579.29296.29296h.40625l.17578.1172.11719.17187.11719.29296v.23438h-.52735l-.23047-.23438h-.23437l-.17578.0586-.0586.69922.0586.34765.11719.17579.17578.41015.11718.23047.28907.46875.17578.05469h.52344l.23437.0586.75781.64062.0586.29296v.23438l.05859.0586.23047.34765v.35156l-.11719.17188v.29297l.29297.28906.29297.17578.17187.0586.29297.17577.29297.1172.58203.40624.28906.23438.29297.17578.21875.16015.01563.01172.23047.17579.64062.52343.17578.23438.1172.17578.17577.17578.11328.17188v.64062l.1172.17578.46874.11719.58203.11719.23438.05859.23047.11328.29297.11719.11328.0586.58593.35156.28907.17187.17578.0625.17578.05469.17578.0586.69922.35155.28906.17579.23438.05468.28906.17578.23437.1172.64063.40624.29297.11719.17187.0586.23438.05859.41015.05859.23047.0586.23438.11718.0586.17188-.41017.17578.46875.0586.0586.29296.11328.23438.17578.05468.23438.0586.17578.05859.40625.11719.64062.23437.11719.17188.0586.23437v.17578l-.0586.1172-.0586.40624.23438.23438.11719.05859.34766.11719.64062.23047.17578.11718.28906.1172.17578.17577.23438.46485.58203 1.10546.17578.17579.34766.17578.17578.11719.35156.11718 1.04688.52344.23437.0586.46485.11327.29297.0586.46484.17578.75781.58203.23438.23438.34765.46484.17578.17578.28907.23438.8164.69921.29297.17579.28906.28906.29297.17578.29297.28906.69531.64063.17578.17578.29297.23437.28907.23438.46875.28906.64062.58203.34766.23438.23437.29297.34766.34765.35156.46485.9336.99218.34765.40625.11719.17579.23437.05859.11328.11719.64454.17578.23047.11328.23437.0586.29297.17577.23047.1172.9336.69921.40624.40625.23438.17578.40625.17578.23437.11719.8164.34766.34766.23437.23438.11719.29297.28906.23047.11719.7578.35156.35157.17188.23047.05859.29297.11719.23437.0586.8711.17577h.8164l.46875.23047.17188.0586.875.69921.46484.1172.29297.05858.17578.0586.23047.0586.46875.05859.34766.05859.35156.0586.40625.05859h.29297l.17187.0586v.23046l.17578.17578h.29297l.34766.0586.35156.05859.69922.11719h.64063l.46484-.23438.29297-.17578.17187-.11719.41016-.17187.28906-.17578.9336-.46485.46875-.29297.52343-.29296.46485-.17188.46484-.17578 1.05078-.46485.28906-.11718.41016-.11719.28906-.11719.52735-.17578 1.51562-.69922.58203-.34765.28907-.0586.29297-.0586.34765-.11718.875-.23047.35156-.11719h.11329l.23437-.05859.875-.23437.23438-.0586h.8125l.35156-.0586.8164-.11718.17188-.0586.35156-.05468.29297-.0586.23047-.05859.8164-.17578.17579-.0586h.34765l.23438-.05859.46484-.11718.75781-.17188.23438-.0586h.34765l.41016-.11718.28906-.0586 1.28516-.05859h.28906l.41016-.0586.23047-.05858h.17578l.875-.1172h.40625l.41015-.11718h.34766l.35156-.11328.8711-.0586h1.75l1.04687.28907.41016.11719.28906.11718.35156.11719.28907.11719 1.05078.17187.28906.0586h.29297l.29297.05859.17187.0586.41016.05859.17187.0586.1172.05858h.11718l.11719.0586.35156.0586h.11328l.41016.0664 1.92187.39453 1.92578.39453 1.51953.44922 1.69532.71875 2.14453.80469 1.60547-.71875 1.42968-.80469 1.16016-1.07813 1.25-.44921 3.03516-.71875 1.875-.35938 2.14453-1.34765 2.23437-1.25391 2.5-1.25781 1.69531-.44922 1.78516-.17969 1.16016-.26953.625.53906 1.33984-.26953.71485-.98828.98437-1.34375.44531-.17969.80469-.35937 1.875-.53907 1.78516-.44921 1.25-.26954 1.16015-.08984 1.69922-.08984 1.96094-.26954 1.25-.08984h.53906l.625-.08984h.89063l2.14453-.17969 2.41015-.17969 2.58985-.08984 1.69531.17969 1.60938.08984 1.42968.35938 1.16016.71875 1.875.98828 1.16015 1.52734.26563.71484.6289.08985.35548.89844.53515.53906.53516 1.52734 1.07422.35938h.53515l-.80469.53515.08985 1.70703.71484 2.69532.89063.80468.89453.98829.71484 1.2578 1.78516.53907 1.51953-.17969.35547 1.34375 1.60937-.80469.98047-.53906.26953.26953.31641-.21484.21875-.14453.80078.44922.44922-.35938h.35547l.53515-.26953.53907-.71875.53515-.26953.625-.98828 1.16016.44922.83984.3711 1.39454.61718 1.6953-.17969h1.60548l1.78515.08985.17969-1.70704.53516-1.34375.80468.26954.4922.84765.40233.40625-.08984.53906v.35938l.71485.44922.71093-.26953h1.42969l.35938.98828.4453 1.25781.71485 1.34375 1.25.6289 1.69531.62891.71485-.17969.17969-.53906.98046-.08984.44922.35937.08594 1.25782-.26563.6289-.53515.17969v.53906l.71484.98438.26563.53906.98437.98828.80078 1.07813-.26562.35937-.08985.89844-.625 2.33203-.35546 2.0664-.08985 1.79298-.17969.71875-.08984.53906v1.4375l-.98047 1.88281-.35937 1.70703-.53516.89844-.80469 1.16797-.26562.53906 2.05469 1.2539.08593.35938-.35546.53906-.08985-.17968v.80859l.08985 1.4375-.44532.71484-1.07422.09375-.26562.71485.53515.89844.8047.71875 1.16015.80859 1.33984.26953.44531.35938-.35546.44921-1.78907-.08984-1.25-.44922-.71484-.71875-.625-.08984-.17578 3.58984-.1875 1.3086h89.35937V311.70313h-55.26953v49.08203l.76172.125 3.28906.54296 2.02344 2.83594v2.7539l2.35156.33204 2.34766.33203h4.05078l-1.3789 4.16016-2.02344.70703-2.02344.70312-.54297.34375-2.59375 1.6172-.1875.11718-2.02344-2.07813-.73046-2.74218-2.67188-2.07813-1.375-3.5-.0664-.08203-1.95704-2.67188 2.75-1.41796v-49.08204H294.42187v91.41407l.1172.03125.1328.01172.07422.07421.10547.04688.08985.0586.08593.05859.08985.0586.29687.29687.0586.08984.03125.11719.02734.11719.01563.13671-.03125.1172-.0586.08983-.0586.08594-.04296.10547-.04688.10156-.02734.1211v.14453l.17578.26953.14844.14844.07422.08594.07422.07421.04296.10547.0625.08985.0586.08593.04297.10547.0586.08985.04687.10156.04296.10547.0586.08594.11719.17968.07421.07422.0625.08594.0586.08984.04297.10547.0586.08985.05858.08593.0625.08985.0586.08984.04297.10156.11719.17969.07421.07422.0586.08594.07422.07421.08984.0586.10547.04687h.14844l.1328-.01562.13282.01562.10156-.04687.07422-.07422.04688-.10156-.01563-.13281v-.14844l-.04687-.10547-.02735-.11719-.04687-.10156-.02735-.1211-.04296-.10156-.0625-.08984-.04297-.10156-.04297-.10547-.03125-.11719-.01563-.13281-.01171-.13672.08593-.0586.0586-.08593.12109-.03125.04297.10547.01562.1328v.1172l.0586.10156.0586.08984.08983.0586.14844.14843.0586.08985.04296.10547-.01171.10156.08593.0586.10547.04687.08594.0586.08984.05858.07422.07422-.11719.02735-.10546.04687-.08594.0586-.07422.07421-.0586.08985-.0625.08594-.02734.12109-.04687.10156-.04297.10547-.03125.11719-.01172.13281-.01563.13281v.14844l.02735.11719.04687.10547.04297.10156.0586.08984.07421.07422.08985.0586.07422.07421.08984.0586.0586.08984.04296.10547.04688.10156.11719.03125.1328.01563h.14845l.11718-.03125.10547.04297.04297.10547.04688.10156.02734.1211L299.5 410l.02734.11719.03125.1211.02735.11718.10547.04297.10156.04687.13281-.01562.14844.14844.0625.08593.07422.07422.07031.07422.08984.0625.10547.04297.10156.04297.1172.03125.13671.01562.11719-.03125.07422-.07422.02734-.11718-.01172-.13282-.03125-.12109-.02734-.11719.04297-.10547h.11719l.08984.0625.11719.02735h.14843l.13282.01562h.14843l.13282.01563.1328-.01563h.14845l.1328-.01562.13282-.01172.13672.01172.11719-.02735.13281-.01562.1914-.0586-.05859.17579-.01562.1328-.02735.1211-.01562.13281-.0586.08594-.1328.01563-.10548.04687-.10546.04297-.1172.03125-.11718.02735-.26563.03125h-.14843l-.13281.01562-.07422.07422.05859.08594.14844.14843.11719.1797.07421.0703.08985.0625.08984.0586.08594.0586.08984.05858.10156.04297.10547.0625.10547.04297.08594.0586.10547.04687.10156.04297.17969.11719.0586.08984-.04298.10156-.04687.10547.01562.13281.22266.22266.0586.08985.04296.10156.03125.1211.04297.10155.01563.13282.03125.11718.01171.13672.03125.11719.14844.14844.10156.04297.10547.04296.1172.03125.1328.01563.13672.01563h.11719l.11719-.03125.08984-.0586.04297-.10547.04688-.10156.04296-.10547.03125-.11719.01172-.1328v-.14845l-.01172-.1328-.01562-.13282-.03125-.11719-.04297-.10547-.04688-.10547-.04296-.10156-.04297-.10547-.01563-.13281.01563-.13281.02734-.11719.03125-.11719.02735-.1211.04687-.10155.08984-.0586.08594-.0625.07422-.07422.08984-.05859.22266-.22266.0586-.08593.07421-.07422.11719-.17969.0586-.08594v-.14844l-.07423-.07421-.10156-.04688-.10547-.04297-.10156-.04297-.0586-.08984-.04687-.10547-.02734-.11719.08984-.05859.11719-.03125.10156-.04297.17969-.11719.14844-.14843.01172-.13282-.01172-.10546-.08985-.0586-.1328.01563h-.14845l-.1328.01562-.13282-.01562-.1211-.03125-.08593-.0586-.07422-.07422-.0586-.08984-.0625-.08594-.11718-.17969-.0586-.08593.03125-.1211.08594-.05859.1211-.03125.05859-.08594v-.1211l-.03125-.11718-.0586-.08984-.05859-.08594-.04687-.10547-.02735-.11719-.01562-.1328.0586-.08985.07421-.07422.08984-.0586.1172-.17968.07421-.07422.0586-.08594.14843-.14844.1211-.03125.1328-.01562.13282.01562.07422.07422.04297.10547.01562.13281-.03125.1172-.11719.03124-.1328.01172-.14844.14844-.04297.10547-.04688.10156-.02734.1211-.03125.11718v.14844l.03125.11719.04297.10546.05859.08985.07422.07031.07422.07422.11719.03125.12109.02734.11719-.02734.1328-.01563h.1172l.08984.0586.07422.07422.04687.10546.0586.08594.10156.04688.13281.01562.10547.04297.08594.0586-.01172.10546-.07422.07422-.17969.11719-.05859.08984-.08984.0586-.07032.07422-.07421.07421-.0625.08985-.02735.11719-.01562.1328.01562.13282-.01562.13281v.14844l.01562.13281.02735.1172.03125.12108.07421.07422.08985.0586.08594.0586.08984.05858.11719.03125v.08594l-.10157.04688-.08984.0586-.26563.03124-.11718.02735h-.14844l-.10547.04296-.10156.04688-.0586.08984-.0625.23438-.01171.13281-.03125.1211-.01563.1328v.29298l-.01172.1328.01172.13673.01563.1328.1328.01563.13282.01172.1211.03125.08593.0586.07422.07421.04688.10547.04296.10157.01563.1328v.44532l-.01563.13281v.44532l.03125.26562.02735.11719.01562.13281.03125.11719.08594.21094.03125.26562v.14844l-.03125.11719-.02734.11718-.03125.1211-.02735.11719-.03125.11718-.03125.1211-.01171.1328-.01563.13282.08984.0586.1172-.03125.10155.01562.04688.10547-.03125.26562v.44141l-.04297.10547-.04688.10547-.04296.10156-.04297.10547-.0586.08594-.03125.12109-.04296.11719-.03125.11719-.01563.1328.01563.13282.05859.08984.10547.04688.08594.0586.05859.08593-.01172.13672-.03125.11719-.04297.10156v.44531l-.01562.13281v.14844l-.03125.11719-.04297.10547-.02735.11719-.04687.10546-.04297.10157-.03125.12109-.02734.11719-.03125.13281-.03125.11719-.02735.11719-.04297.10546-.03125.1172-.03125.12108-.01171.13282-.01563.13281v.29688l.02734.11718v.14844l.04688.39844.02734.11719.0586.08984.12109.03125h.14844l.13281-.01563.0586.08985v.11719l-.0586.08984-.08984.0586-.10157.04296-.10546.04688-.08985.05859-.08594.0586-.13671.01562-.1172-.03125-.1328-.01563-.10157.04688-.0625.08594-.01172.13671-.01562.13282-.03125.11719-.02735.11718-.01562.13281-.03125.1211v.29687l.01563.13282.03125.11718v.14844l.01171.13281v.14844l-.02734.11719-.04688.10156-.02734.1211-.03125.11718-.0586.08985-.07421.07421-.10156.04297-.10547.04688-.11719.02734-.1211.03125-.10156-.04687.0586-.08594.10547-.04688.02734-.11718.03125-.11719.02734-.1211.03125-.11718v-.14844l.01563-.13281-.03125-.11719-.04297-.10547-.10547.01563-.07422.07422-.10156.04296-.08984.0625-.07422.07422-.04297.10157-.01563.1328-.03125.1172L304.25 426l-.03125.11719-.02734.11719-.03125.12109-.02735.11719-.03125.11718-.04297.10547-.08984.0586h-.08984l-.1172-.03125-.03124-.08594.01562-.13672-.03125-.11719v-.14844l-.01171-.1328v-.14844l-.0625-.23438-.02735-.1211-.04297-.10156-.04687-.10546-.0586-.08594-.05859-.08985-.04297-.10546-.0625-.08594-.14844-.14844-.0703-.07422-.10548-.04687-.10547-.04297-.10156-.04297-.29687-.29688-.08985-.07421-.08594-.0586-.10546-.04297-.08985-.0625-.08594-.0586-.10546-.04296-.08985-.0586-.08594-.0625-.07421-.0703-.10547-.04688-.08594-.0586-.10547-.04296-.08984-.0625-.10156-.04297-.10547-.04297-.08594-.0586-.10547-.04687-.10547-.04297-.10156-.04687-.08985-.0586-.10156-.04297-.10547-.04296-.08984-.0625-.11719-.02735-.13281-.01562-.13281.01562H299.75l-.13281.01563-.11719-.03125-.08984-.0586-.07422-.07422-.08985-.05859-.10156-.04688h-.14844l-.12109-.02734-.10156-.04297-.07422-.07422-.11719-.17968-.08984-.0586-.10156-.04297-.08985-.0625-.10547-.04296-.08984-.0586-.08594-.0586-.10547-.04687-.0586-.08594-.05858-.08984-.04297-.10547-.04688-.10156-.07422-.07422-.08594-.0586-.07421-.07421-.08985-.0586-.22265-.22265-.04297-.10547-.03125-.26563.10547-.04296h.14453l.10547.04296.07421.07422.08985.0586.08594.0586.10546.04687.08985.05859.14844.14844.0703.07422.14845.14843.0625.08594.07421.07422.08594.0586.07422.07421.08985.0625.08984.0586.08594.05859.26953.17578.10156.04688.10547.04296.10156.04297.04688-.07421.05859-.08594.07422-.07422.07031-.07422.10547.04297.07422.07422.0586.08984.04296.10156.04688.10547.04296.10547.1211.02735.11719-.02735.07421-.08984.04297-.10547.0586-.08985.07422-.07421.10546-.04297.1172-.02735.1328.01172.08985.0586.14844.14843.05859.08985.04297.10547.04687.10156.04297.10547.04297.10156.10547.04688.10547.04296.13281.01563.08594-.0586.0586-.08984.07421-.07422.10547-.04297.11719.02735.10547.04687.10156.04297.10547.04297.10156.04688.17969.11718v.11719l-.01563.13281.01563.13281.01562.13672.0586.08594.10156.04688.1211.02734.11718.03125h.14844l.11719-.03125.05859-.08984.17969-.1172.05859-.08983.07422-.07422.0586-.08594.11718-.17969.17969-.11719.11719.03125.08984.0586.04297.07422-.01563.1328v.1172l.08985.05859h.14843l.13282-.01563.1328-.01171.26563-.03125.10547-.04297.11719-.03125.1211-.02735.07421-.07421.07031-.07422.0625-.08985-.01562-.10547-.04688-.10156-.10156-.04297-.10547-.01562-.11718.02734-.26563.03125h-.14844l-.07421-.07422-.08985-.0586-.11719-.03124-.11718-.02735-.13282-.01562h-.14843l-.13282.01563h-.29687l-.10547-.04688-.14844-.14844-.04297-.10156-.05859-.08984.22266-.22266.08593-.0586.10547-.04296.11719-.03125.13281-.01563.13281.01563.13672.01562.10157.04297.1328-.01172.08985-.0625.10156-.04297.0625-.08984-.04687-.10156-.08984-.0586-.1172-.03125-.10155-.04296-.0586-.08985-.0625-.08984v-.11719l.01563-.13281.10547-.04688.07421-.07031v-.1211l-.08984-.05859-.03125-.11719.08985-.05859.07421-.07422.04297-.10547.0586-.08984.04687-.10156.01563-.13281v-.14844l-.04688-.10547-.04297-.10156-.08984-.0586-.13281-.01562-.10157-.04297-.13671-.01563-.1172-.03125h-.4453l-.13282-.01562-.13281-.01172-.13281-.01563-.11719-.03125h-.14844l-.13281-.01562-.13281-.01172-.26563-.03125-.1211-.04297-.08593-.0586-.07422-.07421v-.14844l.01172-.13281.10547-.04688.10156-.04296.13281-.01563h.15235l.13281-.01562h.29297l.1211.03125.10156.04296.08984.0586.23438.0625.12109-.04688.08984-.05859.10156-.04297.13282-.01562.10547.04296.10156.04688.13281.01172.1211-.02735h.14453l.12109-.03125.11719-.02734.10547-.04687.07421-.07422.08594-.0586.14844-.14843.0586-.08594.04687-.10547.02734-.11719.01563-.10547-.10156-.04296-.08985-.0586-.11719-.03125-.10546-.04297-.08985-.0625-.07422-.08594-.07422-.07421-.10156-.04297-.10547-.04688-.10156-.04297-.0586-.08984-.04687-.10156-.08594-.21094-.0625-.08594-.05859-.08984-.07422-.07422-.08594-.0586h-.26953l-.11719.03126-.08984.05859-.10156.04297-.13281.01562-.10547-.01562-.02735-.11719-.0625-.08984-.11718-.03125-.10157-.04297-.14843-.14844-.03125-.11719-.01563-.10546.07422-.07422.17969-.1172.11719-.02733.11718-.03125.13672.01562.10156.04297.10547.04297.10156.04687.10547.04297.1172.03125.1328.01563.1172.02734.1328.01563.10547-.01563.08985-.0586-.07422-.07421-.10547-.04297-.07422-.07422-.07422-.08984-.14844-.14844-.08593-.0586-.08985-.05859-.07422-.07422-.08984-.0586-.10156-.04687-.1211-.02734-.10156-.04688-.10547-.04296-.11719-.03125-.10156-.04297-.1211-.03125h-.14843l-.11719.03125-.10546.04297-.08594.0625-.17969.11718-.08594.0586-.08984.0586-.10547.04687-.08594.05859-.10547.04297-.10156.04297-.10547.04687-.07422.07422-.05859.08985-.0586.08593-.04687.10547-.0586.08594-.07421.07422-.13281-.01172-.1172-.03125h-.11718l-.07422.07422-.08984.0586-.07422.07421-.08984.0586-.08594.05859-.10547.04687-.10156.04297-.13672.01563-.10156-.04297-.14844-.14844-.10547-.04688h-.08594l-.10547.04688-.10156.04297-.1211.03125-.11718-.03125-.07422-.07422v-.11719l.03125-.1211.07422-.0703.0586-.08985.07421-.07422.11719-.03125.10547-.04296h.29297l.13281-.01563.13672-.01563.10156-.04296.08985-.0586.10156-.04687.08984-.0586.13281-.01171.08985.05859.13281.01172.08984-.0586.08594-.05859.10547-.04297.08984-.0586.08594-.0625.08985-.05859.14843-.14843.0586-.08594.05859-.08985.10547-.04296.13281-.01563.11719.02735.1211.03125.05859-.0586.05859-.08984.03125-.26563.02734-.11719.10547.01172.13281.01563.10157-.04297.08984-.0586.0586-.08984.07421-.07422.0586-.08984.04687-.10156.01172-.13281-.01172-.13282-.04687-.10547-.14844-.14843-.0586-.08985-.05859-.08594-.04297-.10546v-.44532l.01563-.1328v-.14845l.01172-.1328-.0586-.0586-.08984.0586-.10156-.04298-.17969-.11719-.08594-.05859-.0625-.08984-.0586-.08985-.07421-.07421-.08594-.0586-.1211.03125-.10155.01172-.10547.04688-.08594.05859-.10547.04297-.14844.14844-.08984.05859-.08594.0586-.08984.0625-.10547.04296-.13281.01563v-.1211l.10547-.04297.11718-.03125.07422-.0703.04297-.10548v-.14844l-.02734-.11718-.14844-.14844-.13281-.01563h-.14844l-.11719.03125-.10547.04297-.10156.04297-.08984.0625-.11719.02735-.07422-.07422.01172-.13281-.04297-.10157-.04297-.10547-.08984-.05859-.11719.02734-.1211.03125-.11718.03125-.10156.04297-.1211.03125-.10156.04297-.10547.04297-.08984.0586-.10156.01562v-.11719l.01562-.13281-.0586-.08985-.07421.04297-.14844.14844-.0586.08985-.07421.07421-.04688.10547-.04296.10156-.07422.07422-.0586.08985-.07422.07422-.05859.08593-.07422.07422-.08984.0625-.07422.07031-.07422.07422-.10156.01563-.13281.01562-.10547-.04296v-.1211l.14843-.14844.04297-.10156.0586-.08984.04687-.10156.04297-.10547.0586-.08985.03124-.11719.04297-.10156.03125-.1211.02735-.11718.04687-.10547.04297-.10156.04297-.10547.07422-.07031.08984-.0625.08985-.0586.10156-.04296h.29687l.26563-.03125.10547-.04297-.07422-.07422-.11719-.03125-.10547-.04297-.08984-.0586-.10156-.04687-.08985-.0586-.10156-.04296-.10547-.04297-.08984-.0625-.08594-.0586-.10547-.04296-.10156-.04297-.1211-.03125-.11718-.03125-.10157-.04297L297.5 410.25l-.10156-.04297-.08985-.0586-.04296-.10546-.01563-.13281.10156-.04297.13281-.01563.13672.01563.13282-.01563.10156-.04297.0586-.08984.01562-.10547-.08985-.0586-.07421-.07421-.10157-.04297-.08984-.0586-.14844-.14843-.04297-.10547-.01562-.13281v-.29297l-.0586-.08985-.08984-.05859-.07422-.07422-.04297-.10547-.03125-.11718-.0586-.08985-.07421-.07422-.11719-.02734-.07422-.07422-.08984-.0586-.08984-.0625-.08594-.05859-.07422-.07421-.0586-.08594-.04687-.10547-.08594-.0586-.14843-.14843-.19532-.0586-.1328.01563-.10157.04297-.07422.07422-.04688.10156-.04296.10547-.0586.08984-.0586.08594-.29687.29687-.08984.0586h-.08594l-.0625-.08594-.04297-.10547.03125-.11719.0586-.08984.02734-.11719-.01172-.13281-.08984-.0625-.10547.04688-.11719.02734-.11719.03125-.26953.17578-.10156.04688-.11719.02734-.10546.04687-.08985.0586-.10156.04297-.0586-.08594-.04687-.10547.01563-.13281.04687-.10547.07031-.07422.07422-.07031.0586-.08985v-.14843l-.04297-.10547h-.23829l-.10156.04687-.03125.11719-.02734.11719-.03125.1211-.07422.04296-.13281.01563-.07422-.04688-.04297-.10156-.04297-.10547-.04687-.10156-.04297-.10547-.1211.03125-.10156.04297-.13281.01562-.11719.03125-.10547.04297-.08984.0586-.10156.04687-.1211.02734-.13281.01563-.10156-.04297-.0586-.08985-.04687-.10546-.04297-.10157-.04297-.10546v-.1172l.0586-.08984.08593-.05859.17969-.11719.10156-.04687.10547-.04297.10547-.0586.10156-.04296.08985-.0625.10156-.04297.10547-.0586.10156-.04687.08984-.0586.10547-.04296.10156-.04297.08985-.0625.10156-.04297.13672-.01563.11719.03125.10156.04297.1211.03125.10156.04297.10546.04688.10157.04296.10547.04297.10156.04688.10547.04297.10156.04297.10547.04687.08594.0586.10546.04296.1172.03125.10546.04297.10156.04688.08985.0586.10547.04296.10156.04297.10547.04687.11719.02735.10156.04687.1211.02735h.14843l.08594-.0586.01562-.10156.0586-.08984-.02735-.1172-.07422-.07421-.11719-.17969-.07421-.07422-.08985-.07421-.17969-.1172-.08593-.05859-.10547-.04296-.10156-.04688-.26954-.17578-.05859-.08985-.07422-.07421-.0586-.08985-.04296-.10156-.03125-.11719-.01563-.13672v-.5625l-.01171-.1328-.01563-.13282-.03125-.11719-.01562-.13281-.01172-.13281-.03125-.1211-.22266-.22265-.0586-.08594-.01562-.10547.03125-.11719.13281-.01562v-91.41406H172.9922v1.45312l-.0586.23438-.35156 1.05078-.17187.52343-.1172.34766-.17577.41016-.11719.17187-.23438.29297-.23046.0586h-.35157l-.11718.05859-.23047.40625v.29297l.11719.17578.23046.23047.1172.23437.64062.75781.29297.46485.17578.23437.23047.35156.23437.34766.64063.8164.17578.46485.17187.41016.11719.69531.17578.46875.11719 1.39844.0586.46484v.875l.11718 1.04688v4.78125l-.0586.46484-.35156 1.28125-.17578.52344-.11328.41015-.35156.9297L172.93359 336l-.23437.58203-.11719.17578-.17187.34766-.17578.40625-.35157.8164-.0586.29297-.11327.29297-.11719.28906-.0586.17579-.11718.875-.0586.40625-.05859.11718-.0586.17579-.05859.17187-.23047.52734-.11718.17188v.23437l-.11719.23438-.0586.17187-.17577.58594v.28906l-.0586.17579v.29296l-.0586.11329-.05859.52734v.17187l-.05468.23438v2.6211l-.17578.8164-.1172.17578-.17577.23438-.1172.17187-.11327.23438-.58594.93359-.23047.28906-.29297.46485-.17578.23437-.28906.35156-.35156.69922-.11328.23047-.17579.41016-.17578.23046-.40625.52735-.8164.69922-.29297.17187-.28906.23438-.17579.11719-.17578.17578-.52344.40625-.52734.17578-.17187.17578-.23438.05469-.64062.17578h-.75782m12.21094 31.02344l-1.07422.44921.35938.89454 1.25-.71485.44531-.53906-.98047-.08985"/><path fill="#d3d3d3" fill-opacity="0" fill-rule="evenodd" d="M201.50781 416.59766h-.89453l.44922.6289.98047.35938.80469-.08985.4453-.98828-.17577.08985-.71485-.35547-.89453.35547m154.6211 59.0703l-.0586-.52343v-.29297l.11328-.29297.0586-.23046.46875-.46875h.11328l.11719-.11329.11718-.05859h.17579l.23437-.0586h.34766l.23437.0586.11719.0586.23047.17187.0586.17578.11718.58203v.29297l-.11719.17578-.17187.28906-.17579.17579-.52734.52343-.23047.23438-.11719.0586h-.17578l-.11718-.0586-.40625-.29297-.17579-.11719-.11718-.0586-.0586-.11327-.05468-.1172m6.64062-10.95702l-.0586-.17188v-1.10937l.0586-.17188.17578-.0586.17188-.05858h.17578l.23437-.0586.1172.0586.05858.69921-.05859.17188-.11719.17578-.11718.0586-.23438.52343-.11328.0586h-.23438l-.05859-.1172m9.61328-14.39062l-.11719-.17578v-.69922l.29297-.875.1172-.17187.17577-.35156.11328-.23047.1172-.29297.35155-.75781.1172-.23047.17187-.23438h.17578l.11719-.0586h.64062l.11719.0586.23437.23438.17188.11328.35156.29297.11719.11718.11328.17579v.11328l.11719.05859.11718.11719v.69922l-.05859.17578v.23047l-.0586.17578-.34765 1.05078-.11719.23047-.11719.23437-.11718.0586-.23047.23437-.64063.28906h-.875l-.41015-.11718-.64063-.46485"/><path fill="none" stroke="#bebebe" stroke-linecap="round" stroke-linejoin="round" stroke-miterlimit="10" stroke-width=".5" d="M467.95703 311.69531H144.02734v168.625h323.9297v-168.625"/><g clip-path="url(#a)"><path fill="#fff" fill-opacity="0" fill-rule="evenodd" d="M144 475.89063v4.4375h.0039H144V311.67188h.0039H144v164.21875"/></g><g clip-path="url(#b)"><path fill="#fff" fill-opacity="0" fill-rule="evenodd" d="M144.0039 480.32813V311.67188h44.37891v107.28125l-4.4375 1.89062-3.7461 1.78516-.6914.49609-3.53515 3.94531-.90625 1.3164-3.3711 3.1211-1.0664.67578-4.4375 2.32422-4.4375 1.08985-.2461.34765-.23828 4.4375-3.73047 4.4375 4.21485 4.30078v1.42188l-.41797 3.15625.41797 1.05078.67578-1.05078-.67578-3.15625v-1.42188l4.4375-2.72265 4.4375-.92578 4.4375 2.43359 1.90625 1.35547 2.53515 2.3164 4.4375-.95312 2.65235-1.36328 1.78515-4.1836 4.4375 3.01954 3.82031-3.27735-3.8203-3.28906-2.12891-1.14844-1.8711-4.4375 4-1.98828 4.4414-1.98437.57423-.46485 3.86328-3.92578.1914-.51172-.1914-.13281-4.4375-2.04297-3.09375-2.26562-1.34766-1.14844-4.4375-2.52735V311.67188h8.8789v86.65235l-1.95312 2.11328-1.48437 4.4375 3.4375 3.46094 4.4375.20703.48437.77344-.48437.9453-1.80078 3.4922 1.80078 1.86328 4.4375 2.53906v19.27344l-4.4375 2.16015-1.84766.79297.4414 4.4375 1.40626.36719.65234-.36719 3.78516-2.20312 2-2.23438-2-2.95312v-19.27344l4.4375-.11328.07422.14844 4.36719 4.37109.08984.0664 2.76172 4.44141 1.58594 1.74219v6.90234l-.69922.23047.69922.21875.21484-.21875-.21484-.23047v-6.90234l4.4375 1.74219 1.73828.95312 2.69922 2.0586 1.42578 2.3789 3.01172 3.21485 4.4414.10546 1.29297 1.1172 3.14453 3.02734 4.4375-1.14844 1.84375-1.8789-1.84375-2.98048-.48828-1.45703-3.94922-3.6836-.66797-.7539-3.76953-3.63672-4.4414.03125-.4922-.83203-3.9453-3.75-.53907-.6914.53906-3.35938 1.25782-1.07812-1.25781-.98047-2.62891-3.45703-.92578-4.4375-.88281-.875-1.35547.875-3.08203.89062-4.4375.41016-4.44141-.60938-.91406-.6914-3.52344-3.19922-1.76953-1.24219-2.66797-2.26172-2.21484-2.17578-2.22266-2.11328v-86.65235h57.69531v117.84766l-4.4375 1.90235-.09375.08593.09375.07813 4.4375 1.85156 4.4414-1.84766.0625-.08203-.0625-.0664-4.4414-1.92188V311.67188h17.7539v112.17187l-4.4375 1.45703-1.9375 1.76953.44141 4.4375 1.4961 1.42578 2.64453-1.42578 1.79297-.53125 3.34765-3.90625-3.34765-3.22656V311.67187h13.3164v102.40625l-3.67968 4.11329-.75782 1.73046-2.83984 2.70704-.90234 4.4414.15625 4.4375 1.51171 4.4375 2.07422 2.08594 2.21485-2.08594 2.22265-.5586 4.4375-.8828 4.4375-.90235 2.70704-2.09375-2.70704-3.47656-.72265-.96094.32422-4.4414-.41797-4.4375-3.6211-3.58985-4.4375-.52344V311.67188h13.31641V421.6836l-1.25781.94532 1.25781 1.44921 1.4336-1.44921-1.4336-.94532V311.67188h48.82031v111.74218l-4.4375 2.03125-1.22265 1.625 1.22265 1.23047 1.39453 3.20703-1.01171 4.4375-.38282 1.82422-2.71484 2.61328-1.72266 1.55469-2.90234 2.88281-1.53906 1.67188-2.29688 2.76953 2.29688 2.5 4.4414.08984 4.4375-.05078 4.4375-2.4414 4.4375 2.14843 4.4414.30078 3.6172-2.54687-3.6172-2.72656-1.8125-1.71485 1.8125-.32031 4.4375-.28125 4.4375-.38281 3.36329-3.45313.5625-4.4375-.875-4.4375-3.05078-3.32031-4.4375-.27734-4.4375-.50782-4.4414.19532-.6172-.52735-3.8203-3.65625V311.67187h35.5078V431.0547l-.71875.45312-3.71875.69531-3.89062 3.7422 1.30469 4.4375.76172 4.4375-2.6172 1.42968-3.01562 3.01172 3.01563 3.14844 3.21875-3.14844 1.22265-2.375 3.70313-2.0664.73438-.0547 4.4375-.46093 3.26953-3.92188-3.26954-3.375-.2539-1.0625-3.78516-4.4375-.39844-.45312V311.67188h26.62891V440.8203l-4.4375.79688-4.4375.45703-3.83203 2.7461-.60938.10937-4.4375.44922-4.4375 1.92968-1.58984 1.95313 1.34766 4.4375-4.19531.70312-3.75 3.73438.14453 4.4375 3.60546 4.04687 4.4375.19922 4.4375-.16797 4.4375-1.36328 4.44141-.51953 4.4375 1.8711 4.4375-2.46485.875-1.60156 3.5625-.54297 4.01563-3.89453-1.7461-4.4375-2.26953-2.80078-.3125-1.63672.3125-1.83594 2.67969-2.60547-2.67969-2.25-4.4375-1.75V311.67187h57.69531v168.65625h-78.94921l-.9375-.4414-.2461.4414H144.00391"/></g><path fill="#50fcfc" fill-rule="evenodd" d="M161.7539 449.1211l-4.21484-4.30079 3.73047-4.4375.23828-4.4375.2461-.34765 4.4375-1.08985 4.4375-2.32422 1.0664-.67578 3.3711-3.1211.90625-1.3164 3.53515-3.94531v14.85938l-.63281 2.39843.63281 1.625 4.4375-.16406 1.70313-1.46094-1.70313-1.16406-4.4375-1.23438V423.125l.6914-.4961 3.7461-1.78515 4.4375-1.89063v3.17579l-.9336.5-3.5039 2.45312-2.42578 1.98828-.07031 4.4375 2.4961 1.07422 1.91796-1.07422 2.51953-1.16797 4.4375-.66796 2.73828-2.60157-2.73828-2.42187-3.72265-2.01953-.71485-.5v-3.17579l4.4375 2.52735 1.34766 1.14844 3.09375 2.26562 4.4375 2.04297.1914.13281-.1914.51172-3.86328 3.92578-.57422.46485-4.4414 1.98437-4 1.98828 1.87109 4.4375 2.1289 1.14844 3.82031 3.28906-3.8203 3.27735-4.4375-3.01954-1.78516 4.1836-2.65235 1.36328-4.4375.95313-2.53515-2.31641-1.90625-1.35547-4.4375-2.4336-4.4375.92579-4.4375 2.72265m0 5.62891l-.41797-1.05078.41797-3.15625.67578 3.15625-.67578 1.05078"/><path fill="#fff" fill-opacity="0" fill-rule="evenodd" d="M179.50781 437.98438l-.63281 2.39843.63281 1.625 4.4375-.16406 1.70313-1.46094-1.70313-1.16406-4.4375-1.23438"/><path fill="#00e8fc" fill-rule="evenodd" d="M183.94531 432.58203l-2.4961-1.07422.07032-4.4375 2.42578-1.98828 3.5039-2.45312.9336-.5.71485.5 3.72265 2.01953 2.73828 2.42187-2.73828 2.60156-4.4375.66797-2.51953 1.16797-1.91797 1.07422"/><path fill="#50fcfc" fill-rule="evenodd" d="M197.26172 408.33594l-3.4375-3.46094 1.48437-4.4375 1.95313-2.11328v3.77344l-1.59375 2.77734 1.59375 1.60156 2.8125-1.60156-2.8125-2.77734v-3.77344l2.22266 2.11328 2.21484 2.17578 2.66797 2.26172 1.76953 1.24219v3.57422l-3.14844 4.0625 3.14844 2.6328 4.4375-1.89062 1.79297 3.69532 2.64844 2.64843 2.39453 1.78907 2.04297 2.58593 4.19921 1.85547.23828.11719 4.4375 2.9961 3.0625 1.32421 1.17579 4.4375.19922.21094 4.4414 1.07422 3.65234 3.15234.78516.7539 1.69531-.7539.10547-4.4375-1.80078-1.67969-2.44531-2.7578-1.99219-1.92579-4.4414 1.19922-2.19141-3.71094-2.2461-2.13672-1.80078-2.30468-1.27343-4.4375-1.36328-1.6172-3.11329-2.8203-1.32422-.78516-2.6289.78516-1.8086.5-2.14453-.5-2.29687-.64844-4.4375-3.41406v-3.57422l3.52344 3.19922.91406.6914 4.4414.60938 4.4375-.41016 3.08204-.89062 1.35547-.875.8828.875.92579 4.4375 2.6289 3.45703 1.25782.98047-1.25781 1.07812-.53907 3.35938.53906.6914 3.94532 3.75.49219.83203 4.4414-.03125 3.76953 3.63672.66797.7539 3.94922 3.6836.48828 1.45703 1.84375 2.98047-1.84375 1.8789-4.4375 1.14845L238.5 440.3828l-1.29297-1.11719-4.4414-.10546-3.01172-3.21485-1.42578-2.3789-2.69922-2.0586-1.73828-.95312-4.4375-1.74219-1.58594-1.74219-2.76172-4.4414-.08984-.06641-4.3672-4.3711-.07421-.14843-4.4375.11328-4.4375-2.53906-1.80078-1.86328 1.80078-3.4922.48437-.9453-.48437-.77344-4.4375-.20703"/><path fill="#00e8fc" fill-rule="evenodd" d="M197.26172 406.47656l-1.59375-1.60156 1.59375-2.77734 2.8125 2.77734-2.8125 1.60156"/><path fill="#50fcfc" fill-rule="evenodd" d="M200.29297 444.82031l-.4414-4.4375 1.84765-.79297 4.4375-2.16015 2 2.95312-2 2.23438-3.78516 2.20312-.65234.36719-1.40625-.36719"/><path fill="#00e8fc" fill-rule="evenodd" d="M206.13672 416.38672l-3.14844-2.63281 3.14844-4.0625 4.4375 3.41406 2.29687.64844 2.14453.5 1.8086-.5 2.6289-.78516v2.17188l-4.26171 3.05078 4.26172 3.53125 2.86718.90625 1.57031.92187.53516-.92187-.53516-1.10547-1.3203-3.33203-3.1172-3.05079v-2.17187l1.32422.78516 3.11328 2.8203 1.36329 1.6172 1.27343 4.4375 1.80078 2.30468 2.2461 2.13672 2.1914 3.71094 4.44141-1.19922 1.99219 1.92578 2.44531 2.75781 1.80078 1.6797-.10547 4.4375-1.6953.7539-.78517-.7539-3.65234-3.15235-4.4414-1.07422-.19922-.21094-1.17578-4.4375-3.0625-1.32422-4.4375-2.99609-.23829-.11719-4.19922-1.85547-2.04296-2.58593-2.39453-1.78907-2.64844-2.64843-1.79297-3.69532-4.4375 1.89063"/><path fill="#00d4fc" fill-rule="evenodd" d="M219.45313 421.72266l-4.26172-3.53125 4.26172-3.05079v1.67579l-1.92188 1.375 1.92188 1.59375 1.40625-1.59375-1.40625-1.375v-1.67579l3.11718 3.05079 1.32031 3.33203.53516 1.10547-.53516.92187-1.5703-.92187-2.8672-.90625"/><path fill="#00c4fc" fill-rule="evenodd" d="M219.45313 419.78516l-1.92188-1.59375 1.92188-1.375 1.40625 1.375-1.40625 1.59375"/><path fill="#50fcfc" fill-rule="evenodd" d="M219.45313 436.16406l-.69922-.21875.69922-.23047.21484.23047-.21484.21875m31.0664-4.57812l-.09375-.07813.09375-.08594 4.4375-1.90234 4.4414 1.92188.0625.0664-.0625.08203-4.4414 1.84766-4.4375-1.85156m16.25781-.07813l-.4414-4.4375 1.9375-1.76953 4.4375-1.45703V426l-2.03125 1.07031 2.03125 1.29688 1.11328-1.29688L272.71094 426v-2.15625l3.34765 3.22656-3.34765 3.90625-1.79297.53125-2.64453 1.42578-1.4961-1.42578"/><path fill="#00e8fc" fill-rule="evenodd" d="M272.71094 428.36719l-2.03125-1.29688L272.71094 426l1.11328 1.07031-1.11328 1.29688"/><path fill="#50fcfc" fill-rule="evenodd" d="M278.0039 431.50781l-.15624-4.4375.90234-4.4414 2.83984-2.70704.75782-1.73046 3.67968-4.11329v1.62891l-2.22265 2.48438-1.77344 4.4375-.4414.45703-2.31641 3.98437.21875 4.4375 2.09765 3.38672 4.4375-.4961 4.4375-2.1875 1.85938-.70312-1.85938-2.76562-.71093-1.67188.71093-.24219 3.08985-4.19921-1.09766-4.4375-1.99219-1.97657-4.4375-.5078v-1.62892l4.4375.52344 3.6211 3.58985.41797 4.4375-.32422 4.4414.72265.96094 2.70704 3.47656-2.70704 2.09375-4.4375.90235-4.4375.8828-2.22265.5586-2.21485 2.08594-2.07421-2.08594-1.51172-4.4375"/><path fill="#00e8fc" fill-rule="evenodd" d="M279.49219 431.50781l-.21875-4.4375 2.3164-3.98437.44141-.45703 1.77344-4.4375 2.22265-2.48438v12.9375l-3.68359 2.86328 3.6836 1.24219 2.1328-1.24219-2.1328-2.86328v-12.9375l4.4375.50781v2.94532l-4.4297 3.46875 4.4297 2.05078 1.5078-2.05078-1.5078-3.46875v-2.94532l1.99218 1.97657 1.09766 4.4375-3.08985 4.19921-.71093.2422.71093 1.67187 1.85938 2.76562-1.85938.70313-4.4375 2.1875-4.4375.4961-2.09765-3.38673"/><path fill="#00d4fc" fill-rule="evenodd" d="M286.02734 432.75l-3.68359-1.24219 3.6836-2.86328 2.1328 2.86328-2.1328 1.24219m4.4375-8.07031l-4.4297-2.05078 4.4297-3.46875 1.5078 3.46875-1.5078 2.05078"/><path fill="#50fcfc" fill-rule="evenodd" d="M299.34375 424.07813l-1.25781-1.44922 1.25781-.94532 1.4336.94532-1.4336 1.44921m35.5039 27.6836l-2.29687-2.5 2.29688-2.76953 1.53906-1.67188 2.90234-2.88281 1.72266-1.55469 2.71484-2.61328.38281-1.82422 1.01172-4.4375-1.39453-3.20703-1.22265-1.23047 1.22265-1.625 4.4375-2.03125v1.45703l-2.96484 2.19922 2.05469 4.4375-2.26954 4.4375 3.1797 3.28125v.90235l-1.37891.2539 1.3789.3711.23047-.3711-.23047-.2539v-.90235l1.03906 1.15625-1.03906 1.67188-4.4375-.2539-3.34375 3.01952 3.34375 3.71875 4.4375-.6836 3.94531-3.03515.4922-.26172 4.4414-.6953 4.4375-.66798 4.4375-1.0664 1.70312-1.7461.73829-4.4375-2.44141-4.19922-.33203-.23828-4.10547-1.9414-4.4375-1.58204-4.4414.91407-2.14063-1.82813-2.29688-2.19922v-1.45703l3.82031 3.65625.6172.52735 4.4414-.19532 4.4375.50782 4.4375.27734 3.05078 3.32031.875 4.4375-.5625 4.4375-3.36328 3.45313-4.4375.38281-4.4375.28125-1.8125.32031 1.8125 1.71485 3.61719 2.72656-3.6172 2.54687-4.4414-.30078-4.4375-2.14844-4.4375 2.44141-4.4375.05078-4.4414-.08984"/><path fill="#00e8fc" fill-rule="evenodd" d="M343.72656 448.53906l-3.34375-3.71875 3.34375-3.01953 4.4375.2539 1.03906-1.67187-1.03906-1.15625-3.17969-3.28125 2.26954-4.4375-2.0547-4.4375 2.96485-2.19922 2.29688 2.19922 2.14062 1.82813 4.4414-.91406v.96093l-4.4414 2.125-.9414.4375-3.4961 1.71094-1.72265 2.72656 1.72265 1.78125 2.38672 2.65625-2.38672 3.83985-1.52734.59765 1.52734.65625.85547-.65625 3.58203-1.91406 4.4414-.10547 4.4375-1.3125 2.78126-1.10547 1.59765-4.4375-4.3789-3.42578-.44922-1.01172-3.98828-2.5625v-.96094l4.4375 1.58204 4.10547 1.9414.33203.23828 2.4414 4.19922-.73828 4.4375-1.70312 1.7461-4.4375 1.0664-4.4375.66797-4.4414.69531-.4922.26172-3.9453 3.03516-4.4375.6836"/><path fill="#00d4fc" fill-rule="evenodd" d="M348.16406 437.72656l-1.72265-1.78125 1.72265-2.72656 3.4961-1.71094.9414-.4375 4.4414-2.125v.96485l-2.99218 1.59765-1.44922 1.80078-4.4375 2.21094-.26953.42578.26953.27735 3.73438 4.16015.70312.86719 4.4414.49219 3.47657-1.35938.96094-4.35156.03125-.08594-.03125-.02344-1.95313-4.41406-2.48437-1.59765v-.96485l3.98828 2.5625.44922 1.01172 4.3789 3.42578-1.59765 4.4375-2.78125 1.10547-4.4375 1.3125-4.4414.10547-3.58204 1.91406-.85547.65625-1.52734-.65625 1.52734-.59765 2.38672-3.83985-2.38672-2.65625"/><path fill="#fff" fill-opacity="0" fill-rule="evenodd" d="M348.16406 440.1289l-1.3789.25391 1.3789.3711.23047-.3711-.23047-.2539"/><path fill="#00c4fc" fill-rule="evenodd" d="M348.16406 436.22266l-.26953-.27735.26953-.42578 4.4375-2.21094 1.44922-1.80078 2.99219-1.59765v.96484l-1.1836.63281-3.2578 4.0586-.75782.3789.75781 1.16016 2.79688 3.27734 1.64453.29688.75781-.29688 2.66406-4.4375-2.4414-4.4375-.98047-.63281v-.96484l2.48437 1.59765 1.95313 4.41406.03125.02344-.03125.08594-.96094 4.35156-3.47656 1.35938-4.4414-.49219-.70313-.86719-3.73438-4.16015"/><path fill="#00b8fc" fill-rule="evenodd" d="M352.60156 437.10547l-.75781-1.16016.75781-.3789 3.25781-4.0586 1.1836-.63281v1.20313l-3.28125 3.86718 3.28125 3.39844 2.39844-3.39844-2.39844-3.86719V430.875l.98047.63281 2.4414 4.4375-2.66406 4.4375-.75781.29688-1.64453-.29688-2.79688-3.27734"/><path fill="#00a8fc" fill-rule="evenodd" d="M357.04297 439.34375l-3.28125-3.39844 3.28125-3.86719v1.64454l-1.88281 2.22265 1.8828 1.94922 1.37892-1.94922-1.37891-2.22265v-1.64454l2.39844 3.8672-2.39844 3.39843"/><path fill="#009800" fill-rule="evenodd" d="M357.04297 437.89453l-1.88281-1.94922 1.8828-2.22265v1.64843l-.48827.57422.48828.5039.35547-.5039-.35547-.57422v-1.64843l1.3789 2.22265-1.3789 1.94922"/><path fill="#00ac00" fill-rule="evenodd" d="M357.04297 436.44922l-.48828-.5039.48828-.57423.35547.57422-.35547.5039"/><path fill="#50fcfc" fill-rule="evenodd" d="M374.79297 452.41016l-3.01563-3.14844 3.01563-3.01172v2.15625l-.85156.85547.85156.89062.91406-.89062-.91406-.85547V446.25l2.61719-1.42969-.76172-4.4375-1.30469-4.4375 3.89063-3.74219 3.71875-.6953.71875-.45313v.91406l-4.4375 2.29688-1.7461 1.67968 1.7461 2.55078.38671 1.88672 4.05079 3.78125 4.4375-2.11328 1.39062-1.66797-1.39063-1.4336-.71484-3.0039-3.72265-3.97656v-.91406l.39843.45312 3.78516 4.4375.2539 1.0625 3.26954 3.375-3.26954 3.92188-4.4375.46094-.73437.05468-3.70313 2.0664-1.22265 2.375-3.21875 3.14845"/><path fill="#00e8fc" fill-rule="evenodd" d="M374.79297 450.15234l-.85156-.89062.85156-.85547.91406.85547-.91406.89062m4.4414-11.65625l-1.74609-2.55078 1.7461-1.67969 4.4375-2.29687v.82422l-3.91407 3.15234.9414 4.4375 2.97267 2.77735 3.6953-2.77735-.74609-4.4375-2.94921-3.15234v-.82422l3.72265 3.97656.71485 3.0039 1.39062 1.4336-1.39063 1.66797-4.4375 2.11328-4.05078-3.78125-.38671-1.88672"/><path fill="#00d4fc" fill-rule="evenodd" d="M380.69922 440.38281l-.9414-4.4375 3.91406-3.15234v.82422l-2.89063 2.32812.99219 4.4375 1.89844 1.76953 2.35546-1.76953-.17968-4.4375-2.17579-2.32812v-.82422l2.94922 3.15234.7461 4.4375-3.69531 2.77735-2.97266-2.77735"/><path fill="#50fcfc" fill-rule="evenodd" d="M380.0664 462.57422l-.14452-4.4375 3.75-3.73438 4.1953-.70312-1.34765-4.4375 1.58985-1.95313 4.4375-1.92968 4.4375-.44922.60937-.10938 3.83203-2.7461 4.4375-.45702 4.4375-.79688v1.17578l-4.4375 1.84375-4.39844.98047-.03906.0039-4.4414.78907-4.4375 1.28125-2.91016 2.36719-.90235 4.4375-.625.57031-4.4375 1.30078-2.57812 2.5664.2539 4.4375 2.32423 2.60938 4.4375.98829 4.4375-.23438 4.28125-3.36328.15625-.21875 4.4414-.53516 1.34766.7539 3.08984 2.25 2.63281-2.25 1.8047-1.05077 4.4375-.3711 3.10937-3.01562-3.10938-4-.35156-.4375-.82422-4.4375.4375-4.4414-3.69922-2.82423v-1.17578l4.4375 1.75 2.67969 2.25-2.67969 2.60547-.3125 1.83594.3125 1.63672 2.26953 2.80078 1.7461 4.4375-4.01563 3.89453-3.5625.54297-.875 1.60156-4.4375 2.46485-4.4375-1.8711-4.4414.51953-4.4375 1.36328-4.4375.16797-4.4375-.19922-3.60547-4.04687"/><path fill="#00c4fc" fill-rule="evenodd" d="M381.77344 440.38281l-.99219-4.4375 2.89063-2.32812v.82422l-1.8672 1.5039 1.04688 4.4375.82031.76563 1.01954-.76563.38671-4.4375-1.40625-1.5039v-.82422l2.17579 2.32812.17968 4.4375-2.35546 1.76953-1.89844-1.76953"/><path fill="#00e8fc" fill-rule="evenodd" d="M381.34766 462.57422l-.25391-4.4375 2.57813-2.5664 4.4375-1.30079.625-.57031.90234-4.4375 2.91015-2.36719 4.4375-1.28125 4.44141-.78906.03906-.0039 4.39844-.98048 4.4375-1.84375v1.96485l-1.66015.85937-2.77735 2.08203-4.4375-.83984-4.4414.69531-4.3125 2.5039-.125.10548-2.73438 4.33203-1.70313 1.55078-4.4375 2.26563-.625.62109.4336 4.4375.1914.21484 4.4375 2.3086 4.4375-.35157 2.76563-2.17187 1.67188-2.32422 4.4414-.7539 4.4375 2.34765 4.4375-2.38281 4.4375.21875 1.59375-1.54297-1.59375-2.05078-1.91797-2.38672-.6914-4.4375-.69922-4.4414-1.1289-.85938v-1.96485L414 444.82031l-.4375 4.4414.82422 4.4375.35156.4375 3.10938 4-3.10938 3.01563-4.4375.3711-1.80469 1.05078-2.6328 2.25-3.08985-2.25-1.34766-.7539-4.4414.53515-.15625.21875-4.28125 3.36328-4.4375.23438-4.4375-.98829-2.32422-2.60937"/><path fill="#00b8fc" fill-rule="evenodd" d="M382.85156 440.38281l-1.04687-4.4375 1.86719-1.5039v.82421l-.84375.6797.84375 3.4414.6328-3.4414-.6328-.6797v-.82421l1.40625 1.5039-.38672 4.4375-1.01954.76563-.8203-.76563"/><path fill="#00a8fc" fill-rule="evenodd" d="M383.67188 439.38672l-.84375-3.4414.84375-.6797.6328.6797-.6328 3.4414"/><path fill="#00d4fc" fill-rule="evenodd" d="M383.48047 462.57422l-.4336-4.4375.625-.6211 4.4375-2.26562 1.70313-1.55078 2.73438-4.33203.125-.10547 4.3125-2.5039 4.4414-.69532v1.23828l-4.4414.59766-2.34375 1.36328-2.09375 1.8125-1.66016 2.625-2.77735 2.53515-3.28515 1.90235.64062 4.4375 2.64454 1.44531 4.4375-.46094 1.25-.98437 3.1875-4.42969.04296-.00781 4.39844-1.01172 2.57031 1.01172 1.8672.85937 2.03124-.85937 2.40625-1.64844 3.89063 1.64844.54687.07422.07813-.07422-.07813-.09766-3.48828-4.33984-.55469-4.4375-.39453-1.46094-2.75781 1.46094-1.67969 1.04297-.42578-1.04297-4.01172-1.96094v-1.23828l4.4375.83984 2.77735-2.08203 1.66015-.85937 1.1289.85937.69923 4.4414.6914 4.4375 1.91797 2.38673 1.59375 2.05078-1.59375 1.54297-4.4375-.21875-4.4375 2.38281-4.4375-2.34766-4.4414.75391-1.67188 2.32422-2.76563 2.17187-4.4375.35157-4.4375-2.3086-.1914-.21484"/><path fill="#00c4fc" fill-rule="evenodd" d="M385.46484 462.57422l-.64062-4.4375 3.28515-1.90235 2.77735-2.53515 1.66015-2.625 2.09375-1.8125 2.34375-1.36328 4.44141-.59766v1.23828l-4.4414.5-.375.22266-4.0625 3.51562-.58204.92188-3.85546 3.51562-1.58985.92188.91797 4.4375.67188.36719 2.92968-.3672 1.50781-.82421 1.9375-3.61328 2.5-2.3125 4.44141-1.1211 2.10547-1.0039-.6289-4.4375-1.47657-.72266v-1.23828l4.01172 1.96094.42578 1.04297 1.67969-1.04297 2.75781-1.46094.39453 1.46094.55469 4.4375 3.48828 4.33984.07813.09766-.07813.07422-.54687-.07422-3.89063-1.64844-2.40625 1.64844-2.03125.85937-1.86719-.85937-2.5703-1.01172-4.39845 1.01172-.04296.00781-3.1875 4.42969-1.25.98437-4.4375.46094-2.64454-1.44531"/><path fill="#00b8fc" fill-rule="evenodd" d="M387.4375 462.57422l-.91797-4.4375 1.58985-.92188 3.85546-3.51562.58204-.92188 4.0625-3.51562.375-.22266 4.4414-.5 1.47656.72266.62891 4.4375-2.10547 1.0039-4.4414 1.1211-2.5 2.3125-1.9375 3.61328-1.50782.82422-2.92969.36719-.67187-.3672"/><g clip-path="url(#c)"><path fill="#50fcfc" fill-rule="evenodd" d="M387.86328 480.32813l.2461-.44141.9375.4414h-1.1836"/></g><g clip-path="url(#d)"><path fill="#fff" fill-opacity="0" fill-rule="evenodd" d="M467.9961 480.32813H468V311.67188h-.0039H468v168.65625h-.0039"/></g><path fill="#fff" fill-opacity="0" fill-rule="evenodd" d="M201.71094 448.25781l.00781-5.83984-9.96094-.01172-.00781 5.83984 9.96094.01172"/><path fill-rule="evenodd" d="M193.58594 444.75v-.51172l6.29687.00781v.78907l-4.49219-.00782v1.39063h-.55468l-.0664-.5625-.0547-.25-.08593-.23047-.14453-.20313-.20704-.17578-.29687-.14062-.39453-.10547"/><path fill="#fff" fill-opacity="0" fill-rule="evenodd" d="M222.01953 420.57422l1.45703 5.65625 9.64844-2.48438-1.45703-5.65625-9.64844 2.48438"/><path fill-rule="evenodd" d="M230.76563 421.9375l.125.49219L224.79688 424l-.19922-.76563 4.34765-1.11718-.34375-1.34375.53906-.14063.19922.52735.1172.23046.14452.19922.1875.16407.2461.11328.3203.0664.41017.00391"/><g clip-path="url(#e)"><path fill="none" stroke="#000" stroke-linecap="round" stroke-linejoin="round" stroke-miterlimit="10" stroke-width=".5" d="M147.5039 480.5625l-7.0078-.46484"/></g><g clip-path="url(#f)"><path fill="none" stroke="#000" stroke-linecap="round" stroke-linejoin="round" stroke-miterlimit="10" stroke-width=".5" d="M146.48438 480.49219l.5039 1.1211"/></g><g clip-path="url(#g)"><path fill="none" stroke="#000" stroke-linecap="round" stroke-linejoin="round" stroke-miterlimit="10" stroke-width=".5" d="M160.78906 479.80078l-6.94922 1.05469"/></g><g clip-path="url(#h)"><path fill="none" stroke="#000" stroke-linecap="round" stroke-linejoin="round" stroke-miterlimit="10" stroke-width=".5" d="M159.77734 479.95703l.73438.98438"/></g><g clip-path="url(#i)"><path fill="none" stroke="#000" stroke-linecap="round" stroke-linejoin="round" stroke-miterlimit="10" stroke-width=".5" d="M174.13281 480.58594l-7.00781-.51563"/></g><g clip-path="url(#j)"><path fill="none" stroke="#000" stroke-linecap="round" stroke-linejoin="round" stroke-miterlimit="10" stroke-width=".5" d="M173.11328 480.51172l.4961 1.1211"/></g><g clip-path="url(#k)"><path fill="none" stroke="#000" stroke-linecap="round" stroke-linejoin="round" stroke-miterlimit="10" stroke-width=".5" d="M187.42188 480.83203l-6.95313-1.00781"/></g><g clip-path="url(#l)"><path fill="none" stroke="#000" stroke-linecap="round" stroke-linejoin="round" stroke-miterlimit="10" stroke-width=".5" d="M187.42188 480.83203l.82812 2.3125"/></g><g clip-path="url(#m)"><path fill="none" stroke="#000" stroke-linecap="round" stroke-linejoin="round" stroke-miterlimit="10" stroke-width=".5" d="M200.7461 480.7539l-6.97266-.85156"/></g><g clip-path="url(#n)"><path fill="none" stroke="#000" stroke-linecap="round" stroke-linejoin="round" stroke-miterlimit="10" stroke-width=".5" d="M200.7461 480.7539l.8828 2.28907"/></g><g clip-path="url(#o)"><path fill="none" stroke="#000" stroke-linecap="round" stroke-linejoin="round" stroke-miterlimit="10" stroke-width=".5" d="M214.08594 480.41797l-7.02344-.17969"/></g><g clip-path="url(#p)"><path fill="none" stroke="#000" stroke-linecap="round" stroke-linejoin="round" stroke-miterlimit="10" stroke-width=".5" d="M214.08594 480.41797l1.09765 2.19531"/></g><g clip-path="url(#q)"><path fill="none" stroke="#000" stroke-linecap="round" stroke-linejoin="round" stroke-miterlimit="10" stroke-width=".5" d="M227.40234 480.46094l-7.02343-.26563"/></g><g clip-path="url(#r)"><path fill="none" stroke="#000" stroke-linecap="round" stroke-linejoin="round" stroke-miterlimit="10" stroke-width=".5" d="M226.3789 480.42188l.53516 1.10546"/></g><g clip-path="url(#s)"><path fill="none" stroke="#000" stroke-linecap="round" stroke-linejoin="round" stroke-miterlimit="10" stroke-width=".5" d="M240.58984 481.27734l-6.76953-1.89453"/></g><g clip-path="url(#t)"><path fill="none" stroke="#000" stroke-linecap="round" stroke-linejoin="round" stroke-miterlimit="10" stroke-width=".5" d="M239.60547 481l.26172 1.19922"/></g><g clip-path="url(#u)"><path fill="none" stroke="#000" stroke-linecap="round" stroke-linejoin="round" stroke-miterlimit="10" stroke-width=".5" d="M253.72266 481.77734l-6.40235-2.89843"/></g><g clip-path="url(#v)"><path fill="none" stroke="#000" stroke-linecap="round" stroke-linejoin="round" stroke-miterlimit="10" stroke-width=".5" d="M266.8711 482.09375l-6.07423-3.53125"/></g><g clip-path="url(#w)"><path fill="none" stroke="#000" stroke-linecap="round" stroke-linejoin="round" stroke-miterlimit="10" stroke-width=".5" d="M280.26563 481.95313l-6.23047-3.2461"/></g><g clip-path="url(#x)"><path fill="none" stroke="#000" stroke-linecap="round" stroke-linejoin="round" stroke-miterlimit="10" stroke-width=".5" d="M293.50781 482.08984l-6.08203-3.51953"/></g><g clip-path="url(#y)"><path fill="none" stroke="#000" stroke-linecap="round" stroke-linejoin="round" stroke-miterlimit="10" stroke-width=".5" d="M307.11719 481.4336l-6.67188-2.21094"/></g><g clip-path="url(#z)"><path fill="none" stroke="#000" stroke-linecap="round" stroke-linejoin="round" stroke-miterlimit="10" stroke-width=".5" d="M306.14453 481.11328l.20703 1.21094"/></g><g clip-path="url(#A)"><path fill="none" stroke="#000" stroke-linecap="round" stroke-linejoin="round" stroke-miterlimit="10" stroke-width=".5" d="M320.60938 480.4414l-7.02344-.22265"/></g><g clip-path="url(#B)"><path fill="none" stroke="#000" stroke-linecap="round" stroke-linejoin="round" stroke-miterlimit="10" stroke-width=".5" d="M319.58594 480.40625l.54297 1.10156"/></g><g clip-path="url(#C)"><path fill="none" stroke="#000" stroke-linecap="round" stroke-linejoin="round" stroke-miterlimit="10" stroke-width=".5" d="M333.85938 479.66016L326.96094 481"/></g><g clip-path="url(#D)"><path fill="none" stroke="#000" stroke-linecap="round" stroke-linejoin="round" stroke-miterlimit="10" stroke-width=".5" d="M333.85938 479.66016l1.54296 1.90625"/></g><g clip-path="url(#E)"><path fill="none" stroke="#000" stroke-linecap="round" stroke-linejoin="round" stroke-miterlimit="10" stroke-width=".5" d="M347.03516 481.51563l-6.6172-2.3711"/></g><g clip-path="url(#F)"><path fill="none" stroke="#000" stroke-linecap="round" stroke-linejoin="round" stroke-miterlimit="10" stroke-width=".5" d="M360.30078 481.63672l-6.51953-2.61328"/></g><g clip-path="url(#G)"><path fill="none" stroke="#000" stroke-linecap="round" stroke-linejoin="round" stroke-miterlimit="10" stroke-width=".5" d="M371.02344 483.77734l-1.33203-6.89843"/></g><g clip-path="url(#H)"><path fill="none" stroke="#000" stroke-linecap="round" stroke-linejoin="round" stroke-miterlimit="10" stroke-width=".5" d="M384.4336 483.75781l-1.52344-6.85937"/></g><g clip-path="url(#I)"><path fill="none" stroke="#000" stroke-linecap="round" stroke-linejoin="round" stroke-miterlimit="10" stroke-width=".5" d="M395.51953 483.51953l2.9336-6.38281"/></g><g clip-path="url(#J)"><path fill="none" stroke="#000" stroke-linecap="round" stroke-linejoin="round" stroke-miterlimit="10" stroke-width=".5" d="M409.3086 483.69922l1.98437-6.74219"/></g><g clip-path="url(#K)"><path fill="none" stroke="#000" stroke-linecap="round" stroke-linejoin="round" stroke-miterlimit="10" stroke-width=".5" d="M423.95313 483.82422l-.67579-6.99219"/></g><g clip-path="url(#L)"><path fill="none" stroke="#000" stroke-linecap="round" stroke-linejoin="round" stroke-miterlimit="10" stroke-width=".5" d="M438.28906 483.57031l-2.71484-6.48047"/></g><g clip-path="url(#M)"><path fill="none" stroke="#000" stroke-linecap="round" stroke-linejoin="round" stroke-miterlimit="10" stroke-width=".5" d="M452.53906 482.99219l-4.58594-5.32422"/></g><g clip-path="url(#N)"><path fill="none" stroke="#000" stroke-linecap="round" stroke-linejoin="round" stroke-miterlimit="10" stroke-width=".5" d="M465.8711 482.97656l-4.6172-5.29687"/></g><g clip-path="url(#O)"><path fill="none" stroke="#000" stroke-linecap="round" stroke-linejoin="round" stroke-miterlimit="10" stroke-width=".5" d="M147.5 466.69531l-7 .63672"/></g><path fill="none" stroke="#000" stroke-linecap="round" stroke-linejoin="round" stroke-miterlimit="10" stroke-width=".5" d="M147.5 466.69531l1.34375 2.05469m11.98438-1.73438h-7.02735m7.02734 0l1.15235 2.16407m12.13281-1.69922l-6.96484-.9336m6.96484.9336l.85156 2.30078m12.4297-2.10156l-6.89845-1.33203m6.89844 1.33203l.72266 2.34375m12.63672-2.63281l-6.98828-.75391m6.98828.7539l.91406 2.27735m12.36328-2.02734l-6.91406-1.25391m6.91406 1.2539l.7461 2.33985m12.58984-2.47266l-6.95703-.98828m6.95703.98828l.83594 2.3086m12.48437-2.33203l-6.96484-.94141m6.96484.9414l.85156 2.30079m12.40625-1.9961l-6.85156-1.55078m5.85547 1.32422l.32422 1.1875m13.69531-.14453l-6.26563-3.1836m5.35157 2.72266l.02344 1.22656m14.1875-.73046l-6.23047-3.25391m5.32422 2.78125l.0078 1.22656m14.3672-1.09375l-6.53907-2.57422m5.58985 2.19922l.14062 1.21875m13.86328-.3125l-6.01562-3.63672m5.14062 3.10938l-.07031 1.22265m14.21094-.61718l-5.91797-3.79297m5.0586 3.23828l-.10157 1.22265m14.77344-1.92968l-6.91016-1.26953m5.90235 1.08593l.37109 1.16797m13.6289-.03125l-6.26562-3.17578m5.35547 2.71485l.02344 1.22656m13.54687.13672l-4.95703-4.98047m4.23438 4.2539l-.35938 1.17579m15.3789-2.33594l-6.92187-1.20703m15.26172 3.77343l3.03125-6.33984m-2.58984 5.41797l-1.22657.05078m13.02735.07813l5.17578-4.75391m-4.42188 4.0625l-1.15625-.40625m12.82813-.77734l6.95312-1.00391m-5.9414.85937l-.72656-.99218m13.96484 3.05859l5.08594-4.84766m-4.34766 4.14454l-1.16406-.38672m18.10156 1.67187l-3.63672-6.01172m3.10547 5.13672l-.6289 1.05469m14.32421-.09375l-3.33594-6.1836m2.85157 5.28516l-.67969 1.01953m16.28516-3.73047l-6.94922 1.03516m5.9414-.88281l.72657.98437"/><g clip-path="url(#P)"><path fill="none" stroke="#000" stroke-linecap="round" stroke-linejoin="round" stroke-miterlimit="10" stroke-width=".5" d="M147.51172 453.83594l-7.02344-.27344"/></g><path fill="none" stroke="#000" stroke-linecap="round" stroke-linejoin="round" stroke-miterlimit="10" stroke-width=".5" d="M147.51172 453.83594l1.0664 2.21094m12.2422-2.08594l-7.00782-.52344m7.00781.52344l.98438 2.2461m12.24219-1.6836l-6.83204-1.64844m6.83203 1.64844l.60938 2.375m12.79297-2.94531l-7.00781-.50782m7.0078.50782l.9922 2.24218m12.30859-2.10156l-6.98047-.78906m6.98047.78906l.90234 2.28125m12.39063-2.09766l-6.9336-1.15625m6.9336 1.15625l.77734 2.32422m12.58203-2.89062l-7.02734-.02344m7.02734.02344l1.14844 2.16797m12.16797-2.10157l-7.02734-.15625m7.02734.15625l1.10156 2.19141m12.19922-1.97266l-7-.59765m5.98438.51172l.48047 1.1289m13.60937-.02344l-6.51563-2.63671m5.56641 2.2539l.1289 1.21875m14.13282-.82812l-6.51172-2.64844m5.5625 2.26172l.125 1.22265m14.1836-.95312l-6.60157-2.41406m5.64063 2.0625l.16797 1.21484m14.01953-.64062l-6.42188-2.85938m5.48438 2.4414l.08594 1.22657m14.1328-.73437l-6.35156-3.00782m5.42579 2.57032l.05859 1.22265m14.51563-2.17187l-7.02344-.23828m6.0039.20703l.53516 1.10156m13.4961-2.6211l-6.41407 2.8672M346 452.68358l.96875.75391m12.3125-2.44531l-4.48047 5.41406M371.8086 450.5l-2.90234 6.39844m2.48047-5.46875l1.22265-.07813m10.12891 5.73438l1.86719-6.77344m-1.59766 5.78906l-1.19531.26563m12.71484-.15625l4.91797-5.02344m-4.20312 4.29297l-1.17578-.34766m18.4453 1.29688l-4.42187-5.46094m3.77735 4.66406l-.47656 1.13281m13.7539.09766l-3.05469-6.32812m2.60938 5.40625l-.72266.98828m13.3789.25781l-.84765-6.97656m11.23047 5.94922l5.01563-4.92188m-4.28516 4.20313l-1.17188-.3672m19.07813.72657l-5.6289-4.20312m4.8125 3.58984l-.1875 1.21484"/><g clip-path="url(#Q)"><path fill="none" stroke="#000" stroke-linecap="round" stroke-linejoin="round" stroke-miterlimit="10" stroke-width=".5" d="M147.51172 440.52734l-7.02344-.28515"/></g><path fill="none" stroke="#000" stroke-linecap="round" stroke-linejoin="round" stroke-miterlimit="10" stroke-width=".5" d="M147.51172 440.52734l1.0625 2.21094m12.23437-1.97656l-6.98828-.75781m6.98828.7578l.91016 2.27735m12.3164-1.78125l-6.80859-1.7461m5.8164 1.4922l.28907 1.1914m13.71875-.17187l-6.21094-3.28125m5.3086 2.80468l.0039 1.22657m13.16797.45703l-4.1211-5.6914m3.52345 4.86327l-.53907 1.10157m15.875-2.64844l-6.96484-.9414m5.94922.80468l.42578 1.14844m13.9336-1.33594l-7.02344-.29688m6 .25391l.53125 1.10938m13.54297-2.55079l-6.4961 2.67188m5.55078-2.28125l.94531.78125m13.35938-1.0586l-6.58594 2.44532m5.6289-2.08985l.91798.81641m13.57422.14453l-7.02344-.1836m6 .15626l.55078 1.09765m13.78906-1.27734l-7.02344.22656m6-.1914l.60938 1.0625m13.73047-.98438h-7.02735m6.00391 0l.57422 1.08594m13.75781-1.25l-7.01953.32813m7.01953-.32813l1.2539 2.10938m12.03126-1.45313l-6.95703-.98437m5.94531.84375l.41797 1.15234m13.91015-1.03125l-6.96093-.94531m5.94922.80859l.42578 1.15234m11.13672-4.92578l-1.4297 6.8789m10.8086-4.84374l6.4414 2.8086m-5.5039-2.40235l-.09375-1.22266m12.94531.02735l5.4922 4.3828m-4.69141-3.74608l.22265-1.20313m11.5664 3.29297l6.94532-1.07031m-5.9336.91406l-.73437-.98438m13.13281 1.57422l6.75391-1.9375m-6.7539 1.9375l-1.70313-1.76562m2.6836 1.48437l-.85157-.88281m15.96485 3.65625l1.1953-6.92188m-1.1953 6.92188l-2.33204.76953m16.41016-.71875l-.32813-7.01953m.32813 7.01953l-2.10938 1.25m2.0625-2.27344l-1.05468.62891m16.02734-.08594l-3.55078-6.0625m3.03516 5.17969l-.64454 1.04687m13.78125.14844l-2.16406-6.6836m1.85156 5.71095l-.85546.8828m14.01562.20704l-1.22656-6.91797m1.04687 5.91016l-.96484.75781"/><g clip-path="url(#R)"><path fill="none" stroke="#000" stroke-linecap="round" stroke-linejoin="round" stroke-miterlimit="10" stroke-width=".5" d="M147.45313 426.41406l-6.90625 1.3086"/></g><path fill="none" stroke="#000" stroke-linecap="round" stroke-linejoin="round" stroke-miterlimit="10" stroke-width=".5" d="M147.45313 426.41406l1.53515 1.91406m11.83984-1.19921l-7.02734-.1211m7.02734.1211l1.11329 2.1875m12.0703-1.29688l-6.76562-1.90234m5.78125 1.625l.26172 1.19922m14.02344-.8711l-6.73438-2.0039m5.75391 1.71093l.2461 1.20313m13.70312-.11719l-6.04297-3.58984m5.16406 3.0664l-.05859 1.22657m14.73438-2.78516l-7.00391.57422m5.98437-.49219l.66016 1.03516m12.29297-3.63281l-4.24219 5.60546m3.625-4.78906l1.21094.19531m13.95312.73829l-6.70703 2.10546m5.73047-1.79687l.875.85937m11.97656-3.0625l-3.82422 5.89454M266.67579 425l-5.67969 4.14063m18.1211-4.98438l-3.9336 5.82422m3.35938-4.97656l1.22266.1289m12.35156-1.16406l-3.30469 6.19922m18.30078-4.21484l-6.66406 2.23046m18.8789-3.82812l-4.46484 5.42578m3.8164-4.63672l1.20313.24219m13.27344-.51172l-5.48828 4.38672m5.48828-4.38672l2.25.97266m10.47656-1.5547l-4.3125 5.55079m3.6836-4.74219l1.21093.21094m11.46485-1.64453l-1.77735 6.80078m1.51563-5.8125l1.19531-.28125m10.26563-.59766l2.45312 6.58204m-2.09375-5.625l.8125-.91797m9.98047 4.17578l6.78125-1.84766m-6.78125 1.84766l-1.67969-1.78906m15.34375-.89844l6.08203 3.52734m-6.08203-3.52734l.09375-2.45313m.79297 2.96875l.04297-1.22656m13.21094 5.20313l4.42969-5.45313m-4.4297 5.45313l-2.41015-.47266M408.73047 429l-2.40625-.46875m18.15625 1.9414l-1.72656-6.80859m1.72656 6.8086l-1.82031 1.65234m1.5664-2.64062l-.90625.82421m14.96094.00391l-2.69922-6.48828m2.69922 6.48828l-1.5586 1.89453m12.69141-1.72656l1.66407-6.82422m-1.66407 6.82422l-2.3789.60547m16.80468-.51563l-.55859-7.0039m.47656 5.98437l-1.03125.66016"/><g clip-path="url(#S)"><path fill="none" stroke="#000" stroke-linecap="round" stroke-linejoin="round" stroke-miterlimit="10" stroke-width=".5" d="M147.20313 412.3086l-6.40625 2.89062"/></g><path fill="none" stroke="#000" stroke-linecap="round" stroke-linejoin="round" stroke-miterlimit="10" stroke-width=".5" d="M147.20313 412.3086l1.9414 1.5m11-2.14063l-5.66016 4.16797m5.66016-4.16797l2.21094 1.0625m11.1211-1.03906l-5.69141 4.12109m5.6914-4.1211l2.20313 1.08204m11.4414-.52735l-6.35156 3.01563m5.42578-2.57813l.98438.73438m13.57031-.0664l-6.98047.80468m5.96484-.6875l.69532 1.00781m13.22265-2.41797l-6.15625 3.39063m5.26172-2.89844l1.02735.67188m12.62109 2.98437l-5.03125-4.90625m16.04297 5.96094l-.42188-7.01563m.42188 7.01563l-2.09375 1.27734m18.5039-3.59765l-6.61328-2.375m5.64844 2.03125l.17578 1.21484m12.375 1.08203l-3.15625-6.28125m2.69531 5.36719l-.70703 1m16.20313-4.4336l-6.59766 2.41407m5.63672-2.0625l.91406.8164m13.15625-1.6289l-6.1875 3.33203m5.28907-2.84766l1.01953.6836m13.3125 1.92578l-6.42188-2.85157m20.03516 1.25l-7.01953.35157m5.9961-.30078l.6328 1.05468m12.75391-3.33593l-5.11719 4.8125m4.375-4.11329l1.16016.39454m12.8125-1.1836L341.2539 416.25m4.22656-4.26563l1.17578.35157m7.21484 2.9375l6.33985-3.03907m-5.41797 2.59375l-.98438-.72656m13.7461 1.77344l5.60156-4.24219m7.36328.57031l6.30469 3.10157m-5.39063-2.64844l-.03906-1.22656m13.6289-.58985l3.92579 5.82813m-3.92578-5.82813l1.15234-2.16797m11.4961 2.75l5.2578 4.66016m-5.2578-4.66015l.57421-2.38282m.19141 3.0625l.28516-1.1914m16.03515 6.16797l-2.28125-6.64844m1.94922 5.67969l-.83594.89843M439 416.59375l-4.13672-5.67969M439 416.59375l-1.07422 2.20703m10.57422-2l3.49219-6.09765m-2.98438 5.21093l-1.22656-.03906m19.04297-.8164l-6.52344-2.60938m5.57422 2.23047l.13281 1.21875"/><g clip-path="url(#T)"><path fill="none" stroke="#000" stroke-linecap="round" stroke-linejoin="round" stroke-miterlimit="10" stroke-width=".5" d="M146.73828 398.23828l-5.47656 4.40235"/></g><path fill="none" stroke="#000" stroke-linecap="round" stroke-linejoin="round" stroke-miterlimit="10" stroke-width=".5" d="M146.73828 398.23828l2.2539.96485m10.75391-1.30079l-4.86328 5.07422m4.86328-5.07422l2.36328.66797m10.92188-.69531L168.22656 403m4.10547-4.3789l1.1875.3203m13.8789.85548l-6.90624 1.28125m5.90234-1.09375l.76563.96093m12.89062 1.6289l-5.58203-4.26952m4.76953 3.64844l-.19922 1.21093m11.08203.75781l.90625-6.96875m-.77343 5.95704l-1.14844.42968m13.98437.51954l1.60157-6.84375m-1.3711 5.84765l-1.1836.3125m17.34767-.0625l-4.5547-5.35156m4.5547 5.35156l-.90625 2.28125m15.0664-3.34765l-6.25-3.21485m5.33984 2.7461l.01954 1.22656m13.73437-.0625l-5.30469-4.60547m4.53516 3.9336l-.27734 1.1953m13.57812.14844l-3.73828-5.94922m3.19531 5.08204l-.60937 1.0664m15.92969-2.0586l-6.66407-2.23046m6.66406 2.23047l.40625 2.41797m12.66407-5.21094l-6.17188 3.35547m5.27344-2.86719l1.02344.67578m10.91406 3.92969l-1.6211-6.83594m1.38673 5.84375l-.92188.8086m17.16406-2.98438l-7.00781-.4961m7.00781.4961l.9961 2.24219m5.30078-2.46875l7.02734-.04688m-6.0039.04297l-.58204-1.08203m15.6211 4.49219l1.53515-6.85938m12.29688 6.9336l.5039-7.00782m13.38672.00782l-.64843 6.99609m.64843-6.9961l2.26563-.94921m7.97265 2.26172l5.50391 4.37109m-5.5039-4.3711l.44921-2.41406m12.44532 6.10938l6.34375-3.02344m-5.41797 2.58594l-.98828-.73047m15.35937-3.64844l2.3789 6.61328m-2.03124-5.65234l.82422-.90625m16.0078 5.53125l-5.34765-4.5625m5.34766 4.5625l-.53125 2.39453m14.63281-5.28906l-6.92187 1.22656m5.91406-1.04687l.75781.96484m13.61328-.74219l-7.01562.42188"/><g clip-path="url(#U)"><path fill="none" stroke="#000" stroke-linecap="round" stroke-linejoin="round" stroke-miterlimit="10" stroke-width=".5" d="M467.07031 400.22656l1.27735 2.09375"/></g><path fill="none" stroke="#000" stroke-linecap="round" stroke-linejoin="round" stroke-miterlimit="10" stroke-width=".5" d="M466.04688 400.28906l1.28125 2.09375"/><g clip-path="url(#V)"><path fill="none" stroke="#000" stroke-linecap="round" stroke-linejoin="round" stroke-miterlimit="10" stroke-width=".5" d="M146.60156 384.76172l-5.20312 4.72265"/></g><path fill="none" stroke="#000" stroke-linecap="round" stroke-linejoin="round" stroke-miterlimit="10" stroke-width=".5" d="M146.60156 384.76172l2.3086.82812m11.80078.63672l-6.79297 1.79297m6.79297-1.79297l1.66797 1.80078m11.76562-.86718l-7.02734-.07422m7.02734.07422l1.1289 2.17968m-2.15234-2.1914l.5625 1.08984m12.53125-3.79687l-4.53906 5.36328m3.8789-4.58203l1.19923.2578m7.02343 1.1836l6.96485.91797m-5.95313-.78515l-.42969-1.14844m14.41016 4.48828l3.61328-6.02735m-3.61328 6.02735l-2.44922-.125m2.97656-.75l-1.22656-.0625m18.48438.21094l-5.33203-4.57422m5.33203 4.57422l-.53516 2.39453m14.67969-5.04688l-6.98828.73047m6.98828-.73047l1.3711 2.03516m-2.38673-1.92969l.6836 1.01953m13.66406-.6289l-7.02344-.26172m7.02344.26172l1.07031 2.20703m12.14844-3.17188l-6.82813 1.66797m6.82813-1.66797l1.63281 1.83203m11.64453-1.96484l-6.7539 1.9336m6.7539-1.9336l1.70313 1.76953m11.39062-2.35156l-6.30859 3.09765m6.3086-3.09765l1.98827 1.4375m11.33985-1.40235l-6.33985 3.02735m6.33985-3.02735l1.97656 1.45704m11.33203-1.47657l-6.32422 3.06641m6.32422-3.0664l1.98047 1.44921m11.24219-1.625l-6.14063 3.41797m5.25-2.91797l1.02735.66406m12.25781-2.23437l-4.29688 5.5586m4.29688-5.5586l2.41797.41406m12.05078 1.16797l-6.60547 2.39453m6.60547-2.39453l1.82031 1.64453m-2.78125-1.29687l.91016.82422m12.83984-2.125l-5.55469 4.30078m5.5547-4.30078l2.23827 1.0078m-3.04297-.3828l1.1172.5039m11.7539-2.14062l-3.05469 6.32422m3.05469-6.32422l2.45312-.09766m-2.89843 1.01563l1.22656-.04688m12.69531-.78906l-3.38281 6.16015m3.38281-6.16015l2.45703.03515m-2.94531.86329l2.45312.03125m11.32422-.94532l-3.32422 6.19141m3.32422-6.1914l2.45313.01171m-2.9375.89063l1.22656.0039m13.45313-.23437l-5.08594 4.84765m5.08594-4.84765l2.32812.77344m11.92969 2.08203l-6.97266-.86328m6.97266.86328l.8789 2.28906m11.14063.02734l-4.38281-5.49218m4.38281 5.49218l-.97266 2.25m15.5586-4.39843l-6.92578-1.19532"/><g clip-path="url(#W)"><path fill="none" stroke="#000" stroke-linecap="round" stroke-linejoin="round" stroke-miterlimit="10" stroke-width=".5" d="M467.02344 387.72266l.76562 2.32812"/></g><g clip-path="url(#X)"><path fill="none" stroke="#000" stroke-linecap="round" stroke-linejoin="round" stroke-miterlimit="10" stroke-width=".5" d="M147.08984 372.13281l-6.17968 3.34766"/></g><path fill="none" stroke="#000" stroke-linecap="round" stroke-linejoin="round" stroke-miterlimit="10" stroke-width=".5" d="M147.08984 372.13281l2.04297 1.35938m-2.9414-.8711l1.01953.6797m13.4336-.6172l-6.66017 2.25m6.66016-2.25l1.78516 1.6836m11.3711.95312l-6.34376-3.02344m5.42188 2.58204l.05468 1.22656m13.26172-4.9961l-4.5 5.39844m4.5-5.39844l2.40235.5m11.49609.1211l-5.66797 4.15625m5.66797-4.15625l2.21094 1.0664m-3.03516-.46093l1.10547.53125m13.71484 1.01172l-7.02734-.14063m7.02734.14063l1.10938 2.1875m-2.13281-2.21094l.55468 1.09765m13.54297.13282l-6.54687-2.55469m6.54687 2.55469l.28516 2.4375m12.6289-1.6914l-5.74609-4.04688m5.7461 4.04687l-.3086 2.4336m13.9336-2.97266l-6.3672-2.97266m6.3672 2.97266l.1289 2.45312m-1.05469-2.8828l.0625 1.22265m14.50782-2.38281l-7.02344.21093m7.02344-.21094l1.21484 2.12891m-2.23828-2.09765l.60937 1.0625m13.38282-2.51563l-6.33204 3.05469m6.33204-3.05469l1.97656 1.45313m-2.89844-1.00782l.98828.72656m13.32032-1.0078l-6.47657 2.72656m6.47657-2.72657l1.90234 1.55078m11.67969-.45312l-7.00782.53125m7.00782-.53125l1.3125 2.07422m10.9453-4.32813l-4.89452 5.03906m4.1836-4.30859l1.17577.34375m13.4961-.22265l-6.1875 3.33203m6.1875-3.33204l2.04297 1.36329m10.99609-1.79297l-5.63672 4.19531m5.63672-4.19531l2.21875 1.04687m11.5-.35547l-6.4414 2.8125m6.4414-2.8125l1.92187 1.52344m-2.85937-1.11328l1.92187 1.52344m12.13282-2.32031l-6.04297 3.58593m6.04297-3.58594l2.09375 1.27344m-2.97266-.7539l2.09375 1.27734m11.84766-2.16406l-5.53907 4.32031m5.53907-4.32031l2.24218 1m-3.04687-.3711l1.1211.5m12.5625-1.59375l-4.66798 5.25m4.66797-5.25l2.38672.57813m-3.0664.1836l2.38671.57812m12.14454-.74219l-5.7422 4.05469m5.7422-4.05469l2.1914 1.10547m-3.02734-.51563l2.1914 1.10547m11.6211-2.10156l-5.0664 4.86719m5.0664-4.86719l2.33203.76172m-3.0664-.05469l2.33202.76563m12.30079-.66407l-6.23047 3.25m6.23047-3.25l2.02343 1.38672m-2.92968-.91406l2.02343 1.38672m12.59375-.3789l-7.02343.28906m7.02343-.28907l1.23828 2.11719m-2.26171-2.07422l1.24218 2.11328m13.07813-1.6289l-6.98438-.76563"/><g clip-path="url(#Y)"><path fill="none" stroke="#000" stroke-linecap="round" stroke-linejoin="round" stroke-miterlimit="10" stroke-width=".5" d="M467.05469 374.1914l.90625 2.28126"/></g><path fill="none" stroke="#000" stroke-linecap="round" stroke-linejoin="round" stroke-miterlimit="10" stroke-width=".5" d="M466.03906 374.08203l.45313 1.13672"/><g clip-path="url(#Z)"><path fill="none" stroke="#000" stroke-linecap="round" stroke-linejoin="round" stroke-miterlimit="10" stroke-width=".5" d="M145.97656 357.58984l-3.95312 5.8086"/></g><path fill="none" stroke="#000" stroke-linecap="round" stroke-linejoin="round" stroke-miterlimit="10" stroke-width=".5" d="M145.97656 357.58984l2.4414.26563m9.39845-.83985l-1.00391 6.95704m.85938-5.94532l1.15234-.41406m14.10547.22266l-4.60156 5.3125m4.60156-5.3125l2.39453.55078m12.08984 1.5586l-6.9375 1.09765m6.9375-1.09766l1.47656 1.96094m11.54688-2.91406l-6.35547 3m5.42969-2.5625l.98437.73437m12.54297-2.17578l-4.92969 5.00781m4.9297-5.0078l2.35155.69921m11.98829 2.22266l-6.97657-.83594m6.97657.83594l.88672 2.28906m-1.90235-2.41016l.4414 1.14453m13.8086-2.30078l-6.8125 1.72266m6.8125-1.72266l1.64844 1.8164m-2.64063-1.5664l1.64844 1.8164m12.15234-3.1875l-5.80468 3.96095m5.80469-3.96094l2.17187 1.14453m-3.01563-.5664l2.17188 1.14062m12.16797-1.42578l-6.16406 3.375m6.16406-3.375l2.05078 1.34765m-2.94922-.85546l2.05078 1.34765m-2.94531-.85547l1.02344.67188m14.20703-1.40625l-6.41016 2.8789m6.41016-2.8789l1.9375 1.5039m-2.8711-1.08593l1.94141 1.5039m11.97656-2.5039l-5.75 4.03906m5.75-4.03906l2.1875 1.11328m-3.02343-.52344l1.09375.55469m13.13672-1.02735l-5.90625 3.8047m5.90625-3.8047l2.14062 1.19922m10.48438-1.98437l-4.52735 5.375m4.52735-5.375l2.39843.51562m-3.0586.26563l1.19923.25781m13.14062-.6836l-5.25781 4.66407m5.25781-4.66406l2.30078.85937m-3.0664-.17969l1.15234.4297m13.75781.59374l-6.91406 1.26172m6.91406-1.26172l1.51954 1.92188m-2.52735-1.73829l.76172.96094M360.22266 359l-6.36328 2.98438M360.22266 359l1.96093 1.47266m11.28907-1.60157l-6.23438 3.2422m6.23438-3.2422l2.02343 1.39063m-2.92968-.91797l1.01172.69531m12.90234-1.65234l-5.6211 4.21484m5.6211-4.21484l2.22266 1.03906M385.66406 359l2.22266 1.03906m11.5625-2.05078L394.52344 363m4.92578-5.01172l2.35156.69531m-3.0664.03516l2.35156.69531m11.9375-1.14453l-5.4414 4.44531m5.4414-4.4453l2.26172.94921m-3.0547-.30078l1.13282.47265m13.04688-1.02734l-5.58985 4.26172m5.58985-4.26172l2.23047 1.02344m-3.04297-.40235l1.11328.51172m13.41797-.46484l-6.39453 2.92188m6.39453-2.92188l1.9453 1.49219m-2.8789-1.0664l.97657.74608m13.29296-1.11718l-6.4375 2.8125m6.4375-2.8125l1.92579 1.52734m-2.85938-1.11719l.96094.76172m13.41406-.83984l-6.6914 2.14844"/><g clip-path="url(#aa)"><path fill="none" stroke="#000" stroke-linecap="round" stroke-linejoin="round" stroke-miterlimit="10" stroke-width=".5" d="M466.90625 359.41797l1.76172 1.71094"/></g><path fill="none" stroke="#000" stroke-linecap="round" stroke-linejoin="round" stroke-miterlimit="10" stroke-width=".5" d="M465.9336 359.73047l.8789.85547"/><g clip-path="url(#ab)"><path fill="none" stroke="#000" stroke-linecap="round" stroke-linejoin="round" stroke-miterlimit="10" stroke-width=".5" d="M144.24219 343.67188l-.48438 7.01171"/></g><g clip-path="url(#ac)"><path fill="none" stroke="#000" stroke-linecap="round" stroke-linejoin="round" stroke-miterlimit="10" stroke-width=".5" d="M144.24219 343.67188l2.23828-1"/></g><g clip-path="url(#ad)"><path fill="none" stroke="#000" stroke-linecap="round" stroke-linejoin="round" stroke-miterlimit="10" stroke-width=".5" d="M144.17188 344.6914l1.12109-.5"/></g><path fill="none" stroke="#000" stroke-linecap="round" stroke-linejoin="round" stroke-miterlimit="10" stroke-width=".5" d="M155.97266 343.92969l2.68359 6.4961m-2.6836-6.4961l1.5625-1.89063m14.58594 1.95703l-2.98437 6.36329m2.98437-6.36329l2.45313-.12109m-2.88672 1.04688l1.22656-.0586m13.71485.04688l-5.3672 4.53515m5.3672-4.53515l2.27734.91406m11.32031-.52735l-5.9336 3.76563m5.9336-3.76563l2.13281 1.21094m10.72266-1.79297l-5.01172 4.92579m5.01172-4.92579l2.33984.73829m-3.0703-.02344l2.33984.73828m12.23047-.76563l-6.0625 3.55079m6.0625-3.55079l2.08984 1.28516m-2.97266-.76953l2.08985 1.28515m12.0039-1.96875l-5.85156 3.89063m5.85156-3.89063l2.15625 1.16407m-3.00781-.60156l2.15625 1.16796m11.55078-2.28515l-4.9375 4.9961m4.9375-4.9961l2.35156.70312m-3.0703.02344l2.35155.70313m11.57813-1.53125l-4.72656 5.19921m4.72656-5.19921l2.3789.60546m-3.0664.15235l2.3789.60547m11.6797-1.3125l-4.83594 5.09765m4.83593-5.09765l2.36328.65625m-3.0703.08593l1.18358.32813m13.21094-.65625l-5.58203 4.26953m5.58203-4.26953l2.23047 1.01953m11.19922-.85547l-5.8164 3.9414m5.8164-3.9414l2.17188 1.14453m11.49218-.49219l-6.51172 2.63672m6.51172-2.63671l1.88282 1.57812m10.73828-2.66406l-5.1211 4.8086m5.1211-4.8086l2.3203.78906m-3.0664-.08984l1.16016.39453m13.17969-.75781l-5.6797 4.13671m5.6797-4.13671l2.20703 1.07421m-3.03516-.47265l1.10547.53906m13.70703.76953l-7.01953.3164m7.01953-.3164l1.25 2.11328m-2.26953-2.0664l.6211 1.05468m13.71093-.73437l-7.01562-.41797m7.01562.41797l1.01953 2.23047m-2.03906-2.28906l.50781 1.11328m13.51563-2.71875l-6.39453 2.91406m6.39453-2.91406l1.94922 1.49218m-2.87891-1.0703l.97266.74608m13.08203-1.53125l-6.01172 3.63672m6.01172-3.63671l2.10547 1.2539m-2.98047-.72656l1.05469.6289m12.84375-1.5664l-5.4297 4.46094m5.4297-4.46094l2.26562.9414m-3.05469-.29296l1.13282.46875m12.90625-1.19532l-5.30079 4.61329m5.30079-4.61329l2.29296.87891m-3.0625-.20703l1.14454.4375m13.23046-.72656l-5.8789 3.84765m5.8789-3.84765l2.15235 1.18359m11.50781-.50781l-6.57031 2.4961m6.57031-2.4961l1.84766 1.61719m11.49218-1.54297l-6.62109 2.35156"/><g clip-path="url(#ae)"><path fill="none" stroke="#000" stroke-linecap="round" stroke-linejoin="round" stroke-miterlimit="10" stroke-width=".5" d="M466.8711 346.0039l1.8125 1.65626"/></g><path fill="none" stroke="#000" stroke-linecap="round" stroke-linejoin="round" stroke-miterlimit="10" stroke-width=".5" d="M465.91016 346.34375l.90234.82813"/><g clip-path="url(#af)"><path fill="none" stroke="#000" stroke-linecap="round" stroke-linejoin="round" stroke-miterlimit="10" stroke-width=".5" d="M147.03516 332.08984l-6.07032 3.54688"/></g><path fill="none" stroke="#000" stroke-linecap="round" stroke-linejoin="round" stroke-miterlimit="10" stroke-width=".5" d="M147.03516 332.08984l2.08593 1.29297m-2.96875-.77734l2.08594 1.29297m11.58594-2.4961l-5.01953 4.92188m5.01953-4.92188l2.33984.7422m9.39453-1.67188l-1.85937 6.77734m1.85937-6.77734l2.39453-.53516m11.32032.67188l-2.65625 6.5078m2.65625-6.5078l2.4414-.2461m12.41797 1.47656l-5.7461 4.04688m5.7461-4.04688l2.1875 1.10938m11.14844-1.08203l-5.78516 3.99219m5.78516-3.9922l2.17578 1.12891m11.53125-.3789l-6.57031 2.49219m6.57031-2.4922l1.84375 1.61329m-2.80078-1.25l.92188.80469m13.45703-.84375l-6.78125 1.84375m6.78125-1.84375l1.67968 1.78906m-2.66797-1.51953l.83985.89453m13.16797-1.90235l-6.1914 3.32032m6.1914-3.32031l2.03906 1.36328m-2.9414-.87891l1.01952.67969m13.09766-1.33985l-5.99219 3.67188m5.9922-3.67188l2.11327 1.2422m-2.98828-.71095l1.0586.625m12.76562-1.64843l-5.26172 4.65625m5.26172-4.65625l2.30078.85937m-3.0664-.17969l1.15234.4297m13.5-.22657l-6.40625 2.89062m6.40625-2.89062l1.9414 1.5m11.42579-1.38281l-6.50782 2.65625m6.50782-2.65625l1.8828 1.5703m11.66798-.65624l-6.98047.82812m6.98047-.82812l1.39843 2.01562m-2.41406-1.89453l.69922 1.00781m13.34766-2.15625l-6.41016 2.87891m6.41016-2.8789l1.9375 1.5078m-2.8711-1.08593l.96875.75m12.40625-2.35547l-4.66797 5.25m4.66797-5.25l2.38672.57813m-3.0625.18359l1.1914.28906m12.7422-1.10547l-4.55079 5.35547m4.55079-5.35547l2.39453.52735m12.15625 2.28515l-7.02344-.26562m7.02344.26562l1.0664 2.21094M387 332.73828l-6.65625 2.25m6.65625-2.25l1.78516 1.6836m11.35546-2.10938l-6.30859 3.10156m5.39063-2.65234l.99218.71875m13.58985.1211l-7.00782.51952m7.00782-.51953l1.3086 2.07813m12.01562-1.8789l-7.02735.125m7.02735-.125l1.1914 2.14452m11.66016-3.82812l-6.09766 3.49219m5.21094-2.98438l1.03906.65625m13.3789-.71875l-6.53124 2.59766m6.53125-2.59766l1.8711 1.58984m11.5625-1.23046l-6.76954 1.8828"/><g clip-path="url(#ag)"><path fill="none" stroke="#000" stroke-linecap="round" stroke-linejoin="round" stroke-miterlimit="10" stroke-width=".5" d="M466.94531 332.92188l1.6914 1.77734"/></g><path fill="none" stroke="#000" stroke-linecap="round" stroke-linejoin="round" stroke-miterlimit="10" stroke-width=".5" d="M465.96094 333.19531l.84765.89063"/><g clip-path="url(#ah)"><path fill="none" stroke="#000" stroke-linecap="round" stroke-linejoin="round" stroke-miterlimit="10" stroke-width=".5" d="M146.61328 318.19922l-5.22656 4.69922"/></g><path fill="none" stroke="#000" stroke-linecap="round" stroke-linejoin="round" stroke-miterlimit="10" stroke-width=".5" d="M146.61328 318.19922l2.30469.83984m-3.0664-.15625l2.30468.83985m-3.0625-.15625l1.15234.41796m14.2461-.93359l-6.35547 2.9961m6.35547-2.9961l1.96484 1.46875m-2.88672-1.03515l1.96485 1.46875m-2.89063-1.03125l.98047.73437m14.20703-1.5586l-6.40234 2.89844m6.40234-2.89843l1.9414 1.5m-2.875-1.07813l.97266.75m13.52735.92188l-6.90625-1.28516m5.90234 1.09766l.36719 1.16796m13.90234-.7539l-6.8086-1.74219m6.8086 1.74219l.57813 2.38672m-1.57031-2.64063l.29296 1.1914m14-.8828l-6.77734-1.85157m6.77734 1.85157l.53907 2.39453m-1.52735-2.66406l.27344 1.19921m14.15234-1.74609l-7.02343-.21484m7.02343.21484l1.08594 2.19922m-2.10937-2.23047l.54297 1.09766m13.63671-2.21875l-6.70703 2.08984m6.70703-2.08984l1.7461 1.72656m-2.72266-1.42188l.875.86329m13.28125-1.53125l-6.4375 2.8164m6.4375-2.8164l1.92578 1.51953m11.40625-1.48047l-6.47265 2.73437m6.47265-2.73437l1.90625 1.54687m11.1211-2.09375l-5.89453 3.82813m5.89453-3.82813l2.14453 1.1914m11.55469-.39843l-6.66016 2.24219m6.66016-2.24219l1.78125 1.6875m-2.75-1.35937l.89062.84375m13.57422-.01954l-7.02734-.05859m7.02734.0586l1.13672 2.17578m12.16406-2.54297l-6.9961.67578m6.9961-.67578l1.35547 2.04297m-2.375-1.94532l.67969 1.02344m12.89062-2.99219l-5.46875 4.41407m5.46875-4.41407l2.25781.96094m9.84766-1.91797l-3.05078 6.33203m3.05078-6.33203l2.45313-.09765m10.20703-.14063l-1.73828 6.8086m1.73828-6.8086l2.38672-.57812m12.12109 1.13671l-4.125 5.69141m4.125-5.6914l2.42969.33984m11.125-.14844l-4.60157 5.3086m4.60157-5.3086l2.39062.54688m10.64844-.76563l-4.05078 5.7461m4.05078-5.7461l2.4336.30469m8.85546-.94531v7.02734m0-6.0039l1.08203-.57813m9.1211 4.69531l6.22656-3.25781m13.14844 3.54297l-5.89453-3.82422m5.03515 3.26562l-.10547 1.22266m14.84375-2.48047l-7.02343-.1914m7.02343.1914l1.09375 2.19922m-2.11328-2.22656l.54297 1.09765m13.72266-1.875l-6.88282 1.41407"/><g clip-path="url(#ai)"><path fill="none" stroke="#000" stroke-linecap="round" stroke-linejoin="round" stroke-miterlimit="10" stroke-width=".5" d="M467.0039 319.83984l1.5625 1.89063"/></g><path fill="none" stroke="#000" stroke-linecap="round" stroke-linejoin="round" stroke-miterlimit="10" stroke-width=".5" d="M466 320.04688l.78516.9453"/><path fill="#00f" fill-rule="evenodd" d="M392.67578 467.64844h8.6211V457.5039h-8.6211v10.14453"/><path fill="azure" fill-rule="evenodd" d="M394.51172 459.33594h.83203v2.82422h3.28516v-2.82422h.83203v6.48047h-.83203v-2.91797h-3.28516v2.91797h-.83203v-6.48047"/><path fill="#00f" fill-rule="evenodd" d="M383.80078 441.01953h8.61719V430.8711h-8.61719v10.14844"/><path fill="azure" fill-rule="evenodd" d="M385.63281 432.70703h.83203v2.82031h3.28907v-2.8203h.83203v6.47655h-.83203v-2.91406h-3.28907v2.91406h-.83203v-6.47656"/><path fill="#00f" fill-rule="evenodd" d="M219.58203 418.82813h8.61719v-10.14844h-8.61719v10.14844"/><path fill="azure" fill-rule="evenodd" d="M221.41406 410.51172h.83203v2.82422h3.28907v-2.82422h.83203v6.48047h-.83203v-2.91406h-3.28907v2.91406h-.83203v-6.48047"/><path fill="#00f" fill-rule="evenodd" d="M370.48438 401.07422h8.62109v-10.14844h-8.6211v10.14844"/><path fill="azure" fill-rule="evenodd" d="M372.3164 392.76172h.83594v2.82031h3.28516v-2.82031h.83203v6.47656h-.83203v-2.91406h-3.28516v2.91406h-.83593v-6.47656"/><path fill="#ff3030" fill-rule="evenodd" d="M433.3164 392.19531h7.69141v-10.14453h-7.6914v10.14453"/><path fill="azure" fill-rule="evenodd" d="M435.14844 383.88281h.83594v5.73828h3.1914v.7422h-4.02734v-6.48048"/><path fill="#ff3030" fill-rule="evenodd" d="M198.08203 370.0039h7.69531v-10.14452h-7.6953v10.14453"/><path fill="azure" fill-rule="evenodd" d="M199.91797 361.6914h.83203v5.73829h3.19531v.74219h-4.02734v-6.48047"/><path fill="#ffffe0" fill-rule="evenodd" d="M403.88281 417.8086h22.17969v-10.19141h-22.17969v10.1914"/><path fill-rule="evenodd" d="M407.3789 409.44922h.51173v6.29687h-.78907v-4.49218h-1.38672v-.5547l.5586-.0664.2539-.05078.22657-.08984.20312-.14453.17578-.20704.14063-.29687.10547-.39453m4.8164 0l.22656.01953.21875.05469.21094.08984.19531.1211.1836.14843.17187.17578.30079.42188.24609.49219.17969.54687.10937.57813.03906.59375-.03906.58984-.10937.58594-.1797.55469-.24608.5-.30079.42968-.17187.17969-.1836.15234-.1953.125-.21094.08985-.21875.0586-.22657.01952-.23047-.01953-.21875-.0586-.20703-.08984-.19922-.125-.18359-.15234-.17188-.17969-.30078-.42969-.24218-.5-.1797-.55468-.11327-.58594-.03906-.58984h.83593l.02735.5625.08203.5039.125.44531.16406.3711.1914.30078.21094.22266.22266.13671.22656.04688.22656-.04688.22266-.13671.21094-.22266.1875-.30078.16406-.3711.125-.4453.08203-.50391.03125-.5625-.03125-.5625-.08203-.5-.125-.4375-.16406-.36329-.1875-.29296-.21094-.21485-.22265-.13281-.22657-.04297-.22656.04297-.22266.13281-.21093.21485-.19141.29296-.16406.36329-.125.4375-.08203.5-.02735.5625h-.83594l.03907-.59375.11328-.57813.17969-.54687.24218-.4922.30079-.42187.17187-.17578.1836-.14844.19921-.12109.20703-.08984.21875-.05469.23047-.01953m4.95313 0l.22656.01953.21875.05469.21094.08984.19531.1211.1836.14843.17187.17578.30078.42188.24219.49219.17969.54687.11328.57813.03906.59375-.03906.58984-.11329.58594-.17968.55469-.24219.5-.30078.42968-.17188.17969-.18359.15234-.19531.125-.21094.08985-.21875.0586-.22656.01952-.23047-.01953-.21875-.0586-.20703-.08984-.19922-.125-.1836-.15234-.17187-.17969-.30078-.42969-.24219-.5-.17969-.55468-.11328-.58594-.03906-.58984h.83594l.02734.5625.08203.5039.125.44531.16406.3711.19141.30078.21094.22266.22265.13671.22657.04688.22656-.04688.22266-.13671.20703-.22266.1914-.30078.16407-.3711.125-.4453.08203-.50391.02734-.5625-.02734-.5625-.08203-.5-.125-.4375-.16407-.36329-.1914-.29296-.20703-.21485-.22266-.13281-.22656-.04297-.22656.04297-.22266.13281-.21094.21485-.1914.29296-.16407.36329-.125.4375-.08203.5-.02734.5625h-.83594l.03906-.59375.11328-.57813.1797-.54687.24218-.4922.30078-.42187.17188-.17578.18359-.14844.19922-.12109.20703-.08984.21875-.05469.23047-.01953m4.94922 0l.39062.02734.35547.08203.32422.13672.28125.1875.22656.23828.17578.28516.10938.33203.03515.3789-.01953.27344-.0586.23438-.08593.19922-.11328.17187-.1289.14454-.14063.12109-.28516.19531.23047.1211.20703.14453.1836.17187.15234.19531.125.21094.08984.23047.0586.2461.01562.2539-.03125.3086-.10547.32812-.17187.32422-.23828.3086-.3086.26562-.37109.21484-.21484.08203-.22657.0625-.24609.03516-.25781.01562-.26172-.01562-.24219-.03516-.22265-.0625-.20704-.08203-.35937-.21484-.28906-.26563-.22266-.3086-.15625-.32421-.09375-.32813-.03125-.30859h.83594l.02734.2539.07422.23438.125.21094.16016.1875.1914.15234.22266.11328.23828.07422.2539.02344.25782-.02344.23828-.07422.21875-.11328.19531-.15234.16016-.1875.1211-.21094.07812-.23437.02734-.25391-.02734-.2539-.07813-.23438-.1211-.21094-.16015-.1836-.19531-.15234-.21875-.11718-.23828-.07032-.25781-.02734-.25391.02734-.23828.07032-.22266.11718-.1914.15235-.16016.1836-.125.21093-.07422.23437-.02734.25391h-.83594l.01953-.2539.0586-.23829.08984-.22656.1211-.20703.15624-.1914.17969-.17188.21094-.15235.23047-.1328-.28516-.19532-.14063-.1211-.1289-.14453-.11328-.17187-.08594-.19922-.0586-.23438-.01952-.27343h.78515l.02344.21484.0664.1914.10157.16407.13672.14063.16796.10937.1875.08203.20704.05078.21875.01563.22265-.01563.20703-.05078.1875-.08203.16407-.10938.13671-.14062.10547-.16406.06641-.1914.02344-.21485-.02344-.21485-.0664-.1914-.10548-.16797-.13671-.14063-.16407-.10937-.1875-.08203-.20703-.05078-.22265-.01563-.21875.01563-.20704.05078-.1875.08203-.16796.10937-.13672.14063-.10156.16797-.06641.1914-.02344.21485h-.78515l.03515-.3789.10938-.33204.17187-.28516.23047-.23828.28125-.1875.32422-.13672.35547-.08203.38672-.02734"/><path fill="#ffffe0" fill-rule="evenodd" d="M341.74219 335.98438h22.1836v-10.19141h-22.1836v10.1914"/><path fill-rule="evenodd" d="M345.24219 327.625h.51172v6.29688h-.78907v-4.48829h-1.38671v-.55859l.55859-.0625.2539-.05469.22657-.08984.20312-.14063.17578-.21093.14063-.29297.10547-.39844m4.8164 0l.22657.01953.21875.0586.21093.08593.19532.1211.18359.15234.17188.17578.30078.41797.24218.49219.1797.54687.11327.58203.03906.58985-.03906.59375-.11328.58203-.17969.55469-.24218.5039-.30079.42578-.17187.1797-.1836.15233-.1953.125-.21094.09375-.21875.0547-.22657.01952-.23046-.01953-.21875-.05469-.20704-.09375-.19921-.125-.1836-.15234-.17187-.17969-.30079-.42578-.24218-.5039-.17969-.5547-.11328-.58202-.03906-.59375h.83593l.02735.5625.08203.50781.125.4414.16406.375.1914.30079.21094.21875.22266.13672.22656.04687.22657-.04687.22265-.13672.21094-.21875.1875-.30078.16406-.375.125-.44141.08203-.50781.03125-.5625-.03125-.5625-.08203-.5-.125-.4336-.16406-.36718-.1875-.29297-.21094-.21485-.22265-.1289-.22657-.04688-.22656.04688-.22265.1289-.21094.21485-.1914.29297-.16407.36718-.125.4336-.08203.5-.02735.5625h-.83593l.03906-.58985.11328-.58203.17969-.54687.24219-.49219.30078-.41797.17187-.17578.1836-.15234.19921-.1211.20704-.08594.21875-.05859.23046-.01953m5.08985 0h.50781v6.29688h-.78516v-4.48829h-1.39062v-.55859l.5625-.0625.25-.05469.23047-.08984.20312-.14063.17578-.21093.14063-.29297.10547-.39844m2.82422 2.17578h.78515l.01953-.3164.0586-.28516.10156-.2539.14063-.21485.17968-.17188.22266-.1289.26562-.08203.3086-.02735.23828.02344.22265.0625.20313.10156.17969.13672.14844.17188.11328.20703.07421.23828.02344.26172-.01953.26953-.0664.22656-.10938.1914-.15625.16798-.20313.16406-.24609.16797-.63281.38672-.53906.3125-.4375.3164-.34375.32422-.26563.33594-.1914.35156-.125.3711-.06641.39453-.02344.41796h4.21485v-.74218h-3.33594l.08594-.28125.11328-.23828.14843-.20313.1875-.17969.23047-.17187.27735-.17578.71875-.41406.41406-.20704.34375-.23046.28125-.25.22265-.26954.16016-.27734.11328-.28125.0625-.28516.01953-.28125-.03906-.38671-.1211-.34766-.1914-.30469-.25-.26562-.30078-.21094-.34766-.16016-.3789-.09765-.40625-.03516-.4336.03516-.39843.09765-.35547.16797-.30469.23438-.25.30468-.1836.3711-.11718.44922-.03906.51562"/><path fill="#ffffe0" fill-rule="evenodd" d="M213.03125 326.17969h22.17969v-10.1914h-22.17969v10.1914"/><path fill-rule="evenodd" d="M216.53125 317.82031h.50781v6.29688h-.78515V319.625h-1.39063v-.55469l.5625-.0664.25-.05079.23047-.08984.20313-.14453.17578-.20703.14062-.29688.10547-.39453m4.8125 0l.23047.01953.21875.0547.20703.08983.19922.1211.1836.14844.17187.17578.30078.42187.24219.49219.17968.54688.11328.57812.03516.58984-.03516.59375-.11328.58594-.17968.55469-.2422.5-.30077.42969-.17188.17968-.1836.15235-.19921.125-.20703.08984-.21875.0586-.23047.01953-.22656-.01954-.22266-.05859-.20703-.08984-.19531-.125-.1836-.15235-.17187-.17968-.30078-.4297-.2461-.5-.17968-.55468-.10938-.58594-.03906-.59375h.83203l.03125.56641.08203.5039.125.44141.16406.375.1875.30078.21094.22266.22266.13672.22656.04687.22656-.04687.22266-.13672.21094-.22266.1914-.30078.16406-.375.125-.4414.08204-.50391.02734-.5664-.02734-.5586-.08203-.5-.125-.4375-.16407-.36328-.1914-.29297-.21094-.21484-.22266-.13282-.22656-.04296-.22656.04296-.22266.13282-.21094.21484-.1875.29297-.16406.36328-.125.4375-.08203.5-.03125.5586h-.83203l.03906-.58985.10938-.57813.17968-.54687.2461-.49219.30078-.42187.17187-.17578.1836-.14844.19531-.1211.20703-.08984.22266-.05469.22656-.01953m5.09375 0h.50781v6.29688h-.78515V319.625h-1.39063v-.55469l.5586-.0664.2539-.05079.23047-.08984.20313-.14453.17187-.20703.14453-.29688.10547-.39453m2.82031 2.17578h.78906l.01954-.3164.05859-.28516.09766-.2539.14062-.21485.1836-.17578.22265-.1289.26563-.07813.30859-.02735.23828.01954.22266.0625.20312.10156.17969.14062.14844.17188.11328.20703.07031.23438.02734.26562-.02343.26953-.0664.22266-.10938.1914-.15625.17188-.19922.16406-.2461.16406-.63672.39063-.53515.3125-.4375.3164-.34766.32422-.26172.33594-.1914.35156-.125.3711-.07031.39062-.01954.42188h4.21094v-.74219H230l.08203-.28516.11328-.23437.14844-.20313.1875-.17968.23047-.17188.28125-.17578.71484-.41797.41797-.20312.34375-.23047.28125-.2539.21875-.26563.16406-.27735.11328-.28515.0625-.28516.01954-.28125-.04297-.38281-.11719-.34766-.1914-.3086-.25-.26171-.30079-.21485-.34765-.15625-.37891-.09765-.40625-.03516-.4375.03125-.39844.10156-.35156.16407-.30469.23437-.25.30469-.1875.375-.11328.44531-.04297.51953"/></g></defs><use xlink:href="#aj"/></svg>