<svg xmlns="http://www.w3.org/2000/svg" role="img" xmlns:xlink="http://www.w3.org/1999/xlink" viewBox="142.45 309.95 326.84 171.84"><defs><clipPath id="a"><path d="M144 311.67188h1v168.65625h-1zm0 0"/></clipPath><clipPath id="b"><path d="M144 311.67188h324v168.65625H144zm0 0"/></clipPath><clipPath id="c"><path d="M387 479h3v1.32813h-3zm0 0"/></clipPath><clipPath id="d"><path d="M467 311.67188h1v168.65625h-1zm0 0"/></clipPath><clipPath id="e"><path d="M144 479h4v1.32813h-4zm0 0"/></clipPath><clipPath id="f"><path d="M146 480h1v.32813h-1zm0 0"/></clipPath><clipPath id="g"><path d="M153 479h9v1.32813h-9zm0 0"/></clipPath><clipPath id="h"><path d="M159 480h2v.32813h-2zm0 0"/></clipPath><clipPath id="i"><path d="M166 479h9v1.32813h-9zm0 0"/></clipPath><clipPath id="j"><path d="M172 480h2v.32813h-2zm0 0"/></clipPath><clipPath id="k"><path d="M180 479h8v1.32813h-8zm0 0"/></clipPath><clipPath id="l"><path d="M187 480h2v.32813h-2zm0 0"/></clipPath><clipPath id="m"><path d="M193 479h9v1.32813h-9zm0 0"/></clipPath><clipPath id="n"><path d="M200 480h2v.32813h-2zm0 0"/></clipPath><clipPath id="o"><path d="M206 479h9v1.32813h-9zm0 0"/></clipPath><clipPath id="p"><path d="M213 480h3v.32813h-3zm0 0"/></clipPath><clipPath id="q"><path d="M220 479h8v1.32813h-8zm0 0"/></clipPath><clipPath id="r"><path d="M227 480h2v.32813h-2zm0 0"/></clipPath><clipPath id="s"><path d="M233 479h8v1.32813h-8zm0 0"/></clipPath><clipPath id="t"><path d="M239 480h2v.32813h-2zm0 0"/></clipPath><clipPath id="u"><path d="M247 478h7v2.32813h-7zm0 0"/></clipPath><clipPath id="v"><path d="M260 478h8v2.32813h-8zm0 0"/></clipPath><clipPath id="w"><path d="M273 478h8v2.32813h-8zm0 0"/></clipPath><clipPath id="x"><path d="M287 478h7v2.32813h-7zm0 0"/></clipPath><clipPath id="y"><path d="M300 479h8v1.32813h-8zm0 0"/></clipPath><clipPath id="z"><path d="M305 480h2v.32813h-2zm0 0"/></clipPath><clipPath id="A"><path d="M313 480h8v.32813h-8zm0 0"/></clipPath><clipPath id="B"><path d="M320 480h2v.32813h-2zm0 0"/></clipPath><clipPath id="C"><path d="M326 479h9v1.32813h-9zm0 0"/></clipPath><clipPath id="D"><path d="M333 480h3v.32813h-3zm0 0"/></clipPath><clipPath id="E"><path d="M340 478h8v2.32813h-8zm0 0"/></clipPath><clipPath id="F"><path d="M353 478h8v2.32813h-8zm0 0"/></clipPath><clipPath id="G"><path d="M359 480h1v.32813h-1zm0 0"/></clipPath><clipPath id="H"><path d="M368 477h5v3.32813h-5zm0 0"/></clipPath><clipPath id="I"><path d="M380 477h7v3.32813h-7zm0 0"/></clipPath><clipPath id="J"><path d="M394 477h6v3.32813h-6zm0 0"/></clipPath><clipPath id="K"><path d="M409 476h3v4.32813h-3zm0 0"/></clipPath><clipPath id="L"><path d="M422 476h3v4.32813h-3zm0 0"/></clipPath><clipPath id="M"><path d="M435 476h4v4.32813h-4zm0 0"/></clipPath><clipPath id="N"><path d="M447 477h6v3.32813h-6zm0 0"/></clipPath><clipPath id="O"><path d="M461 477h5v3.32813h-5zm0 0"/></clipPath><clipPath id="P"><path d="M144 465h4v4h-4zm0 0"/></clipPath><clipPath id="Q"><path d="M144 453h4v2h-4zm0 0"/></clipPath><clipPath id="R"><path d="M144 439h4v3h-4zm0 0"/></clipPath><clipPath id="S"><path d="M144 426h4v2h-4zm0 0"/></clipPath><clipPath id="T"><path d="M144 412h4v3h-4zm0 0"/></clipPath><clipPath id="U"><path d="M144 398h4v5h-4zm0 0"/></clipPath><clipPath id="V"><path d="M144 384h4v6h-4zm0 0"/></clipPath><clipPath id="W"><path d="M144 370h3v7h-3zm0 0"/></clipPath><clipPath id="X"><path d="M144 357h2v7h-2zm0 0"/></clipPath><clipPath id="Y"><path d="M144 343h2v8h-2zm0 0"/></clipPath><clipPath id="Z"><path d="M144 332h4v3h-4zm0 0"/></clipPath><clipPath id="aa"><path d="M466 333h2v4h-2zm0 0"/></clipPath><clipPath id="ab"><path d="M144 318h4v5h-4zm0 0"/></clipPath><clipPath id="ac"><path d="M466 319h2v3h-2zm0 0"/></clipPath><g id="ad" clip-path="url(#clip1)"><path fill="#fff" fill-opacity="0" fill-rule="evenodd" d="M0 0h1000v1000H0zm0 0"/><path fill="#d3d3d3" fill-opacity="0" fill-rule="evenodd" d="M162.15234 355.86719l-.23437.29297.0586.23437.11718.17188.17578.23437.29297.34766.11328.0586.11719-.17188.0586-.23438.17577-.17578.46485-.17578h.69922l.23437.29297.28906.8164.0586.17579.17578.23046.35156.23438.69922.69922.17188.17578.23437.34765.23438.41016.28906.58203.41015.46485.23047.23437.23438.17578.11719.23047.17578.29297.17187 1.16406v.23438l.0586.28906.05859.11719.11719.11719.34765.41015.11719.17188.17578.17578.17578.23437.11719.17188.17188.35156.05859.23438.23437.40625.23438-.0586-.17578.17578-.0586.92969h-.58203l-.23437-.11328-.34766.11328-.11719.11719-.05859.29297-.0586.17578-.11718.17187-.46484.29297-.0586.23438-.0586.11328v.64453l.0586.17187v.41016l.0586.0586v.40624l.05859.40625.11719.17579.05859.05859.23047.64062-.0586.29297v.69922l-.05859.58203v.23438l-.0586.23047-.05468.35156v1.92187l.05469.1172h.42578l-.36719.11718-.02344.35156.89063 1.16797 1.74219.53906 1.33984.35938v.53906l.08984.8086.53516.71484 1.51953.26953.89063-.08594.08984 1.16406.53516.1797 1.16015-.1797 2.05469-.98437 1.16016-.36328 1.8789-.17578 1.69531-.1797-.17968.71876-1.51563.08594-1.25.08984-.80469.26953-1.07421.8086.26953.71875.53515.89843-.17968.625-.26563.8086.26563 1.07812.625.89844.80468.17969 1.25-.1797-.26562.72267.09766.5039.05468.29297v.17188l.0586.29296v.40625l.17578.1172.35156.11718h.40625l.29297-.17578.11328-.11719.0586-.11719.11718-.23047.0586-.17578.35156-.46484.23047-.17578.17578-.0586.17578.0586.0586.17578.11718.98828.05469.46875.0586.17188.11718.23437.17578.0586.8164.05859h.28907l.11719.23437.05859.40625.0586.35156v1.10547l.11718.29297.11719.34766.28906.69922.17578.35156.58203.7539.35157.17579.17187.0586.46875.23437.64063.46484.34765.23438.29297.17578.29297.05468.23047.0625.8164.34766.29297.17578.11328.17188.35157.35156.11719.17578.52343.64063v.28906l.0586.35156v.34766l.05859.35156.0586.28906.11718.0586.17188.05859h.17578l.58203.23437.17578.1172.17578.28905.17578.23438.11328.23437.29297.23047.11719.11719v.41016l.0586.05468.28906.23438.23437.11719.0586.11718.11718.17188.0586.11719.23047.23437.05859.17578.23437.0586.1172.05859-.1172.11328-.05859.11719v.11719l-.11719.29296-.11719.28907v.58203l.17579.11719.11718.05859.0586.11719.11719.11719.11328.05859.17578.34765.0586.35157.05858.40625v.17578l-.05859.17578-.11719.69922v.17187l.1172.17579.29296.29296h.40625l.17578.1172.11719.17187.11719.29296v.23438h-.52735l-.23047-.23438h-.23437l-.17578.0586-.0586.69922.0586.34765.11719.17579.17578.41015.11718.23047.28907.46875.17578.05469h.52344l.23437.0586.75781.64062.0586.29296v.23438l.05859.0586.23047.34765v.35156l-.11719.17188v.29297l.29297.28906.29297.17578.17187.0586.29297.17577.29297.1172.58203.40624.28906.23438.29297.17578.21875.16015.01563.01172.23047.17579.64062.52343.17578.23438.1172.17578.17577.17578.11328.17188v.64062l.1172.17578.46874.11719.58203.11719.23438.05859.23047.11328.29297.11719.11328.0586.58593.35156.28907.17187.17578.0625.17578.05469.17578.0586.69922.35155.28906.17579.23438.05468.28906.17578.23437.1172.64063.40624.29297.11719.17187.0586.23438.05859.41015.05859.23047.0586.23438.11718.0586.17188-.41017.17578.46875.0586.0586.29296.11328.23438.17578.05468.23438.0586.17578.05859.40625.11719.64062.23437.11719.17188.0586.23437v.17578l-.0586.1172-.0586.40624.23438.23438.11719.05859.34766.11719.64062.23047.17578.11718.28906.1172.17578.17577.23438.46485.58203 1.10546.17578.17579.34766.17578.17578.11719.35156.11718 1.04688.52344.23437.0586.46485.11327.29297.0586.46484.17578.75781.58203.23438.23438.34765.46484.17578.17578.28907.23438.8164.69921.29297.17579.28906.28906.29297.17578.29297.28906.69531.64063.17578.17578.29297.23437.28907.23438.46875.28906.64062.58203.34766.23438.23437.29297.34766.34765.35156.46485.9336.99218.34765.40625.11719.17579.23437.05859.11328.11719.64454.17578.23047.11328.23437.0586.29297.17577.23047.1172.9336.69921.40624.40625.23438.17578.40625.17578.23437.11719.8164.34766.34766.23437.23438.11719.29297.28906.23047.11719.7578.35156.35157.17188.23047.05859.29297.11719.23437.0586.8711.17577h.8164l.46875.23047.17188.0586.875.69921.46484.1172.29297.05858.17578.0586.23047.0586.46875.05859.34766.05859.35156.0586.40625.05859h.29297l.17187.0586v.23046l.17578.17578h.29297l.34766.0586.35156.05859.69922.11719h.64063l.46484-.23438.29297-.17578.17187-.11719.41016-.17187.28906-.17578.9336-.46485.46875-.29297.52343-.29296.46485-.17188.46484-.17578 1.05078-.46485.28906-.11718.41016-.11719.28906-.11719.52735-.17578 1.51562-.69922.58203-.34765.28907-.0586.29297-.0586.34765-.11718.875-.23047.35156-.11719h.11329l.23437-.05859.875-.23437.23438-.0586h.8125l.35156-.0586.8164-.11718.17188-.0586.35156-.05468.29297-.0586.23047-.05859.8164-.17578.17579-.0586h.34765l.23438-.05859.46484-.11718.75781-.17188.23438-.0586h.34765l.41016-.11718.28906-.0586 1.28516-.05859h.28906l.41016-.0586.23047-.05858h.17578l.875-.1172h.40625l.41015-.11718h.34766l.35156-.11328.8711-.0586h1.75l1.04687.28907.41016.11719.28906.11718.35156.11719.28907.11719 1.05078.17187.28906.0586h.29297l.29297.05859.17187.0586.41016.05859.17187.0586.1172.05858h.11718l.11719.0586.35156.0586h.11328l.41016.0664 1.92187.39453 1.92578.39453 1.51953.44922 1.69532.71875 2.14453.80469 1.60547-.71875 1.42968-.80469 1.16016-1.07813 1.25-.44921 3.03516-.71875 1.875-.35938 2.14453-1.34765 2.23437-1.25391 2.5-1.25781 1.69531-.44922 1.78516-.17969 1.16016-.26953.625.53906 1.33984-.26953.71485-.98828.98437-1.34375.44531-.17969.80469-.35937 1.875-.53907 1.78516-.44921 1.25-.26954 1.16015-.08984 1.69922-.08984 1.96094-.26954 1.25-.08984h.53906l.625-.08984h.89063l2.14453-.17969 2.41015-.17969 2.58985-.08984 1.69531.17969 1.60938.08984 1.42968.35938 1.16016.71875 1.875.98828 1.16015 1.52734.26563.71484.6289.08985.35548.89844.53515.53906.53516 1.52734 1.07422.35938h.53515l-.80469.53515.08985 1.70703.71484 2.69532.89063.80468.89453.98829.71484 1.2578 1.78516.53907 1.51953-.17969.35547 1.34375 1.60937-.80469.98047-.53906.26953.26953.31641-.21484.21875-.14453.80078.44922.44922-.35938h.35547l.53515-.26953.53907-.71875.53515-.26953.625-.98828 1.16016.44922.83984.3711 1.39454.61718 1.6953-.17969h1.60548l1.78515.08985.17969-1.70704.53516-1.34375.80468.26954.4922.84765.40233.40625-.08984.53906v.35938l.71485.44922.71093-.26953h1.42969l.35938.98828.4453 1.25781.71485 1.34375 1.25.6289 1.69531.62891.71485-.17969.17969-.53906.98046-.08984.44922.35937.08594 1.25782-.26563.6289-.53515.17969v.53906l.71484.98438.26563.53906.98437.98828.80078 1.07813-.26562.35937-.08985.89844-.625 2.33203-.35546 2.0664-.08985 1.79298-.17969.71875-.08984.53906v1.4375l-.98047 1.88281-.35937 1.70703-.53516.89844-.80469 1.16797-.26562.53906 2.05469 1.2539.08593.35938-.35546.53906-.08985-.17968v.80859l.08985 1.4375-.44532.71484-1.07422.09375-.26562.71485.53515.89844.8047.71875 1.16015.80859 1.33984.26953.44531.35938-.35546.44921-1.78907-.08984-1.25-.44922-.71484-.71875-.625-.08984-.17578 3.58984-.1875 1.3086h89.35937V311.70313h-55.26953v49.08203l.76172.125 3.28906.54296 2.02344 2.83594v2.7539l2.35156.33204 2.34766.33203h4.05078l-1.3789 4.16016-2.02344.70703-2.02344.70312-.54297.34375-2.59375 1.6172-.1875.11718-2.02344-2.07813-.73046-2.74218-2.67188-2.07813-1.375-3.5-.0664-.08203-1.95704-2.67188 2.75-1.41796v-49.08204H294.42187v91.41407l.1172.03125.1328.01172.07422.07421.10547.04688.08985.0586.08593.05859.08985.0586.29687.29687.0586.08984.03125.11719.02734.11719.01563.13671-.03125.1172-.0586.08983-.0586.08594-.04296.10547-.04688.10156-.02734.1211v.14453l.17578.26953.14844.14844.07422.08594.07422.07421.04296.10547.0625.08985.0586.08593.04297.10547.0586.08985.04687.10156.04296.10547.0586.08594.11719.17968.07421.07422.0625.08594.0586.08984.04297.10547.0586.08985.05858.08593.0625.08985.0586.08984.04297.10156.11719.17969.07421.07422.0586.08594.07422.07421.08984.0586.10547.04687h.14844l.1328-.01562.13282.01562.10156-.04687.07422-.07422.04688-.10156-.01563-.13281v-.14844l-.04687-.10547-.02735-.11719-.04687-.10156-.02735-.1211-.04296-.10156-.0625-.08984-.04297-.10156-.04297-.10547-.03125-.11719-.01563-.13281-.01171-.13672.08593-.0586.0586-.08593.12109-.03125.04297.10547.01562.1328v.1172l.0586.10156.0586.08984.08983.0586.14844.14843.0586.08985.04296.10547-.01171.10156.08593.0586.10547.04687.08594.0586.08984.05858.07422.07422-.11719.02735-.10546.04687-.08594.0586-.07422.07421-.0586.08985-.0625.08594-.02734.12109-.04687.10156-.04297.10547-.03125.11719-.01172.13281-.01563.13281v.14844l.02735.11719.04687.10547.04297.10156.0586.08984.07421.07422.08985.0586.07422.07421.08984.0586.0586.08984.04296.10547.04688.10156.11719.03125.1328.01563h.14845l.11718-.03125.10547.04297.04297.10547.04688.10156.02734.1211L299.5 410l.02734.11719.03125.1211.02735.11718.10547.04297.10156.04687.13281-.01562.14844.14844.0625.08593.07422.07422.07031.07422.08984.0625.10547.04297.10156.04297.1172.03125.13671.01562.11719-.03125.07422-.07422.02734-.11718-.01172-.13282-.03125-.12109-.02734-.11719.04297-.10547h.11719l.08984.0625.11719.02735h.14843l.13282.01562h.14843l.13282.01563.1328-.01563h.14845l.1328-.01562.13282-.01172.13672.01172.11719-.02735.13281-.01562.1914-.0586-.05859.17579-.01562.1328-.02735.1211-.01562.13281-.0586.08594-.1328.01563-.10548.04687-.10546.04297-.1172.03125-.11718.02735-.26563.03125h-.14843l-.13281.01562-.07422.07422.05859.08594.14844.14843.11719.1797.07421.0703.08985.0625.08984.0586.08594.0586.08984.05858.10156.04297.10547.0625.10547.04297.08594.0586.10547.04687.10156.04297.17969.11719.0586.08984-.04298.10156-.04687.10547.01562.13281.22266.22266.0586.08985.04296.10156.03125.1211.04297.10155.01563.13282.03125.11718.01171.13672.03125.11719.14844.14844.10156.04297.10547.04296.1172.03125.1328.01563.13672.01563h.11719l.11719-.03125.08984-.0586.04297-.10547.04688-.10156.04296-.10547.03125-.11719.01172-.1328v-.14845l-.01172-.1328-.01562-.13282-.03125-.11719-.04297-.10547-.04688-.10547-.04296-.10156-.04297-.10547-.01563-.13281.01563-.13281.02734-.11719.03125-.11719.02735-.1211.04687-.10155.08984-.0586.08594-.0625.07422-.07422.08984-.05859.22266-.22266.0586-.08593.07421-.07422.11719-.17969.0586-.08594v-.14844l-.07423-.07421-.10156-.04688-.10547-.04297-.10156-.04297-.0586-.08984-.04687-.10547-.02734-.11719.08984-.05859.11719-.03125.10156-.04297.17969-.11719.14844-.14843.01172-.13282-.01172-.10546-.08985-.0586-.1328.01563h-.14845l-.1328.01562-.13282-.01562-.1211-.03125-.08593-.0586-.07422-.07422-.0586-.08984-.0625-.08594-.11718-.17969-.0586-.08593.03125-.1211.08594-.05859.1211-.03125.05859-.08594v-.1211l-.03125-.11718-.0586-.08984-.05859-.08594-.04687-.10547-.02735-.11719-.01562-.1328.0586-.08985.07421-.07422.08984-.0586.1172-.17968.07421-.07422.0586-.08594.14843-.14844.1211-.03125.1328-.01562.13282.01562.07422.07422.04297.10547.01562.13281-.03125.1172-.11719.03124-.1328.01172-.14844.14844-.04297.10547-.04688.10156-.02734.1211-.03125.11718v.14844l.03125.11719.04297.10546.05859.08985.07422.07031.07422.07422.11719.03125.12109.02734.11719-.02734.1328-.01563h.1172l.08984.0586.07422.07422.04687.10546.0586.08594.10156.04688.13281.01562.10547.04297.08594.0586-.01172.10546-.07422.07422-.17969.11719-.05859.08984-.08984.0586-.07032.07422-.07421.07421-.0625.08985-.02735.11719-.01562.1328.01562.13282-.01562.13281v.14844l.01562.13281.02735.1172.03125.12108.07421.07422.08985.0586.08594.0586.08984.05858.11719.03125v.08594l-.10157.04688-.08984.0586-.26563.03124-.11718.02735h-.14844l-.10547.04296-.10156.04688-.0586.08984-.0625.23438-.01171.13281-.03125.1211-.01563.1328v.29298l-.01172.1328.01172.13673.01563.1328.1328.01563.13282.01172.1211.03125.08593.0586.07422.07421.04688.10547.04296.10157.01563.1328v.44532l-.01563.13281v.44532l.03125.26562.02735.11719.01562.13281.03125.11719.08594.21094.03125.26562v.14844l-.03125.11719-.02734.11718-.03125.1211-.02735.11719-.03125.11718-.03125.1211-.01171.1328-.01563.13282.08984.0586.1172-.03125.10155.01562.04688.10547-.03125.26562v.44141l-.04297.10547-.04688.10547-.04296.10156-.04297.10547-.0586.08594-.03125.12109-.04296.11719-.03125.11719-.01563.1328.01563.13282.05859.08984.10547.04688.08594.0586.05859.08593-.01172.13672-.03125.11719-.04297.10156v.44531l-.01562.13281v.14844l-.03125.11719-.04297.10547-.02735.11719-.04687.10546-.04297.10157-.03125.12109-.02734.11719-.03125.13281-.03125.11719-.02735.11719-.04297.10546-.03125.1172-.03125.12108-.01171.13282-.01563.13281v.29688l.02734.11718v.14844l.04688.39844.02734.11719.0586.08984.12109.03125h.14844l.13281-.01563.0586.08985v.11719l-.0586.08984-.08984.0586-.10157.04296-.10546.04688-.08985.05859-.08594.0586-.13671.01562-.1172-.03125-.1328-.01563-.10157.04688-.0625.08594-.01172.13671-.01562.13282-.03125.11719-.02735.11718-.01562.13281-.03125.1211v.29687l.01563.13282.03125.11718v.14844l.01171.13281v.14844l-.02734.11719-.04688.10156-.02734.1211-.03125.11718-.0586.08985-.07421.07421-.10156.04297-.10547.04688-.11719.02734-.1211.03125-.10156-.04687.0586-.08594.10547-.04688.02734-.11718.03125-.11719.02734-.1211.03125-.11718v-.14844l.01563-.13281-.03125-.11719-.04297-.10547-.10547.01563-.07422.07422-.10156.04296-.08984.0625-.07422.07422-.04297.10157-.01563.1328-.03125.1172L304.25 426l-.03125.11719-.02734.11719-.03125.12109-.02735.11719-.03125.11718-.04297.10547-.08984.0586h-.08984l-.1172-.03125-.03124-.08594.01562-.13672-.03125-.11719v-.14844l-.01171-.1328v-.14844l-.0625-.23438-.02735-.1211-.04297-.10156-.04687-.10546-.0586-.08594-.05859-.08985-.04297-.10546-.0625-.08594-.14844-.14844-.0703-.07422-.10548-.04687-.10547-.04297-.10156-.04297-.29687-.29688-.08985-.07421-.08594-.0586-.10546-.04297-.08985-.0625-.08594-.0586-.10546-.04296-.08985-.0586-.08594-.0625-.07421-.0703-.10547-.04688-.08594-.0586-.10547-.04296-.08984-.0625-.10156-.04297-.10547-.04297-.08594-.0586-.10547-.04687-.10547-.04297-.10156-.04687-.08985-.0586-.10156-.04297-.10547-.04296-.08984-.0625-.11719-.02735-.13281-.01562-.13281.01562H299.75l-.13281.01563-.11719-.03125-.08984-.0586-.07422-.07422-.08985-.05859-.10156-.04688h-.14844l-.12109-.02734-.10156-.04297-.07422-.07422-.11719-.17968-.08984-.0586-.10156-.04297-.08985-.0625-.10547-.04296-.08984-.0586-.08594-.0586-.10547-.04687-.0586-.08594-.05858-.08984-.04297-.10547-.04688-.10156-.07422-.07422-.08594-.0586-.07421-.07421-.08985-.0586-.22265-.22265-.04297-.10547-.03125-.26563.10547-.04296h.14453l.10547.04296.07421.07422.08985.0586.08594.0586.10546.04687.08985.05859.14844.14844.0703.07422.14845.14843.0625.08594.07421.07422.08594.0586.07422.07421.08985.0625.08984.0586.08594.05859.26953.17578.10156.04688.10547.04296.10156.04297.04688-.07421.05859-.08594.07422-.07422.07031-.07422.10547.04297.07422.07422.0586.08984.04296.10156.04688.10547.04296.10547.1211.02735.11719-.02735.07421-.08984.04297-.10547.0586-.08985.07422-.07421.10546-.04297.1172-.02735.1328.01172.08985.0586.14844.14843.05859.08985.04297.10547.04687.10156.04297.10547.04297.10156.10547.04688.10547.04296.13281.01563.08594-.0586.0586-.08984.07421-.07422.10547-.04297.11719.02735.10547.04687.10156.04297.10547.04297.10156.04688.17969.11718v.11719l-.01563.13281.01563.13281.01562.13672.0586.08594.10156.04688.1211.02734.11718.03125h.14844l.11719-.03125.05859-.08984.17969-.1172.05859-.08983.07422-.07422.0586-.08594.11718-.17969.17969-.11719.11719.03125.08984.0586.04297.07422-.01563.1328v.1172l.08985.05859h.14843l.13282-.01563.1328-.01171.26563-.03125.10547-.04297.11719-.03125.1211-.02735.07421-.07421.07031-.07422.0625-.08985-.01562-.10547-.04688-.10156-.10156-.04297-.10547-.01562-.11718.02734-.26563.03125h-.14844l-.07421-.07422-.08985-.0586-.11719-.03124-.11718-.02735-.13282-.01562h-.14843l-.13282.01563h-.29687l-.10547-.04688-.14844-.14844-.04297-.10156-.05859-.08984.22266-.22266.08593-.0586.10547-.04296.11719-.03125.13281-.01563.13281.01563.13672.01562.10157.04297.1328-.01172.08985-.0625.10156-.04297.0625-.08984-.04687-.10156-.08984-.0586-.1172-.03125-.10155-.04296-.0586-.08985-.0625-.08984v-.11719l.01563-.13281.10547-.04688.07421-.07031v-.1211l-.08984-.05859-.03125-.11719.08985-.05859.07421-.07422.04297-.10547.0586-.08984.04687-.10156.01563-.13281v-.14844l-.04688-.10547-.04297-.10156-.08984-.0586-.13281-.01562-.10157-.04297-.13671-.01563-.1172-.03125h-.4453l-.13282-.01562-.13281-.01172-.13281-.01563-.11719-.03125h-.14844l-.13281-.01562-.13281-.01172-.26563-.03125-.1211-.04297-.08593-.0586-.07422-.07421v-.14844l.01172-.13281.10547-.04688.10156-.04296.13281-.01563h.15235l.13281-.01562h.29297l.1211.03125.10156.04296.08984.0586.23438.0625.12109-.04688.08984-.05859.10156-.04297.13282-.01562.10547.04296.10156.04688.13281.01172.1211-.02735h.14453l.12109-.03125.11719-.02734.10547-.04687.07421-.07422.08594-.0586.14844-.14843.0586-.08594.04687-.10547.02734-.11719.01563-.10547-.10156-.04296-.08985-.0586-.11719-.03125-.10546-.04297-.08985-.0625-.07422-.08594-.07422-.07421-.10156-.04297-.10547-.04688-.10156-.04297-.0586-.08984-.04687-.10156-.08594-.21094-.0625-.08594-.05859-.08984-.07422-.07422-.08594-.0586h-.26953l-.11719.03126-.08984.05859-.10156.04297-.13281.01562-.10547-.01562-.02735-.11719-.0625-.08984-.11718-.03125-.10157-.04297-.14843-.14844-.03125-.11719-.01563-.10546.07422-.07422.17969-.1172.11719-.02733.11718-.03125.13672.01562.10156.04297.10547.04297.10156.04687.10547.04297.1172.03125.1328.01563.1172.02734.1328.01563.10547-.01563.08985-.0586-.07422-.07421-.10547-.04297-.07422-.07422-.07422-.08984-.14844-.14844-.08593-.0586-.08985-.05859-.07422-.07422-.08984-.0586-.10156-.04687-.1211-.02734-.10156-.04688-.10547-.04296-.11719-.03125-.10156-.04297-.1211-.03125h-.14843l-.11719.03125-.10546.04297-.08594.0625-.17969.11718-.08594.0586-.08984.0586-.10547.04687-.08594.05859-.10547.04297-.10156.04297-.10547.04687-.07422.07422-.05859.08985-.0586.08593-.04687.10547-.0586.08594-.07421.07422-.13281-.01172-.1172-.03125h-.11718l-.07422.07422-.08984.0586-.07422.07421-.08984.0586-.08594.05859-.10547.04687-.10156.04297-.13672.01563-.10156-.04297-.14844-.14844-.10547-.04688h-.08594l-.10547.04688-.10156.04297-.1211.03125-.11718-.03125-.07422-.07422v-.11719l.03125-.1211.07422-.0703.0586-.08985.07421-.07422.11719-.03125.10547-.04296h.29297l.13281-.01563.13672-.01563.10156-.04296.08985-.0586.10156-.04687.08984-.0586.13281-.01171.08985.05859.13281.01172.08984-.0586.08594-.05859.10547-.04297.08984-.0586.08594-.0625.08985-.05859.14843-.14843.0586-.08594.05859-.08985.10547-.04296.13281-.01563.11719.02735.1211.03125.05859-.0586.05859-.08984.03125-.26563.02734-.11719.10547.01172.13281.01563.10157-.04297.08984-.0586.0586-.08984.07421-.07422.0586-.08984.04687-.10156.01172-.13281-.01172-.13282-.04687-.10547-.14844-.14843-.0586-.08985-.05859-.08594-.04297-.10546v-.44532l.01563-.1328v-.14845l.01172-.1328-.0586-.0586-.08984.0586-.10156-.04298-.17969-.11719-.08594-.05859-.0625-.08984-.0586-.08985-.07421-.07421-.08594-.0586-.1211.03125-.10155.01172-.10547.04688-.08594.05859-.10547.04297-.14844.14844-.08984.05859-.08594.0586-.08984.0625-.10547.04296-.13281.01563v-.1211l.10547-.04297.11718-.03125.07422-.0703.04297-.10548v-.14844l-.02734-.11718-.14844-.14844-.13281-.01563h-.14844l-.11719.03125-.10547.04297-.10156.04297-.08984.0625-.11719.02735-.07422-.07422.01172-.13281-.04297-.10157-.04297-.10547-.08984-.05859-.11719.02734-.1211.03125-.11718.03125-.10156.04297-.1211.03125-.10156.04297-.10547.04297-.08984.0586-.10156.01562v-.11719l.01562-.13281-.0586-.08985-.07421.04297-.14844.14844-.0586.08985-.07421.07421-.04688.10547-.04296.10156-.07422.07422-.0586.08985-.07422.07422-.05859.08593-.07422.07422-.08984.0625-.07422.07031-.07422.07422-.10156.01563-.13281.01562-.10547-.04296v-.1211l.14843-.14844.04297-.10156.0586-.08984.04687-.10156.04297-.10547.0586-.08985.03124-.11719.04297-.10156.03125-.1211.02735-.11718.04687-.10547.04297-.10156.04297-.10547.07422-.07031.08984-.0625.08985-.0586.10156-.04296h.29687l.26563-.03125.10547-.04297-.07422-.07422-.11719-.03125-.10547-.04297-.08984-.0586-.10156-.04687-.08985-.0586-.10156-.04296-.10547-.04297-.08984-.0625-.08594-.0586-.10547-.04296-.10156-.04297-.1211-.03125-.11718-.03125-.10157-.04297L297.5 410.25l-.10156-.04297-.08985-.0586-.04296-.10546-.01563-.13281.10156-.04297.13281-.01563.13672.01563.13282-.01563.10156-.04297.0586-.08984.01562-.10547-.08985-.0586-.07421-.07421-.10157-.04297-.08984-.0586-.14844-.14843-.04297-.10547-.01562-.13281v-.29297l-.0586-.08985-.08984-.05859-.07422-.07422-.04297-.10547-.03125-.11718-.0586-.08985-.07421-.07422-.11719-.02734-.07422-.07422-.08984-.0586-.08984-.0625-.08594-.05859-.07422-.07421-.0586-.08594-.04687-.10547-.08594-.0586-.14843-.14843-.19532-.0586-.1328.01563-.10157.04297-.07422.07422-.04688.10156-.04296.10547-.0586.08984-.0586.08594-.29687.29687-.08984.0586h-.08594l-.0625-.08594-.04297-.10547.03125-.11719.0586-.08984.02734-.11719-.01172-.13281-.08984-.0625-.10547.04688-.11719.02734-.11719.03125-.26953.17578-.10156.04688-.11719.02734-.10546.04687-.08985.0586-.10156.04297-.0586-.08594-.04687-.10547.01563-.13281.04687-.10547.07031-.07422.07422-.07031.0586-.08985v-.14843l-.04297-.10547h-.23829l-.10156.04687-.03125.11719-.02734.11719-.03125.1211-.07422.04296-.13281.01563-.07422-.04688-.04297-.10156-.04297-.10547-.04687-.10156-.04297-.10547-.1211.03125-.10156.04297-.13281.01562-.11719.03125-.10547.04297-.08984.0586-.10156.04687-.1211.02734-.13281.01563-.10156-.04297-.0586-.08985-.04687-.10546-.04297-.10157-.04297-.10546v-.1172l.0586-.08984.08593-.05859.17969-.11719.10156-.04687.10547-.04297.10547-.0586.10156-.04296.08985-.0625.10156-.04297.10547-.0586.10156-.04687.08984-.0586.10547-.04296.10156-.04297.08985-.0625.10156-.04297.13672-.01563.11719.03125.10156.04297.1211.03125.10156.04297.10546.04688.10157.04296.10547.04297.10156.04688.10547.04297.10156.04297.10547.04687.08594.0586.10546.04296.1172.03125.10546.04297.10156.04688.08985.0586.10547.04296.10156.04297.10547.04687.11719.02735.10156.04687.1211.02735h.14843l.08594-.0586.01562-.10156.0586-.08984-.02735-.1172-.07422-.07421-.11719-.17969-.07421-.07422-.08985-.07421-.17969-.1172-.08593-.05859-.10547-.04296-.10156-.04688-.26954-.17578-.05859-.08985-.07422-.07421-.0586-.08985-.04296-.10156-.03125-.11719-.01563-.13672v-.5625l-.01171-.1328-.01563-.13282-.03125-.11719-.01562-.13281-.01172-.13281-.03125-.1211-.22266-.22265-.0586-.08594-.01562-.10547.03125-.11719.13281-.01562v-91.41406H172.9922v1.45312l-.0586.23438-.35156 1.05078-.17187.52343-.1172.34766-.17577.41016-.11719.17187-.23438.29297-.23046.0586h-.35157l-.11718.05859-.23047.40625v.29297l.11719.17578.23046.23047.1172.23437.64062.75781.29297.46485.17578.23437.23047.35156.23437.34766.64063.8164.17578.46485.17187.41016.11719.69531.17578.46875.11719 1.39844.0586.46484v.875l.11718 1.04688v4.78125l-.0586.46484-.35156 1.28125-.17578.52344-.11328.41015-.35156.9297L172.93359 336l-.23437.58203-.11719.17578-.17187.34766-.17578.40625-.35157.8164-.0586.29297-.11327.29297-.11719.28906-.0586.17579-.11718.875-.0586.40625-.05859.11718-.0586.17579-.05859.17187-.23047.52734-.11718.17188v.23437l-.11719.23438-.0586.17187-.17577.58594v.28906l-.0586.17579v.29296l-.0586.11329-.05859.52734v.17187l-.05468.23438v2.6211l-.17578.8164-.1172.17578-.17577.23438-.1172.17187-.11327.23438-.58594.93359-.23047.28906-.29297.46485-.17578.23437-.28906.35156-.35156.69922-.11328.23047-.17579.41016-.17578.23046-.40625.52735-.8164.69922-.29297.17187-.28906.23438-.17579.11719-.17578.17578-.52344.40625-.52734.17578-.17187.17578-.23438.05469-.64062.17578h-.75782m12.21094 31.02344l-1.07422.44921.35938.89454 1.25-.71485.44531-.53906-.98047-.08985"/><path fill="#d3d3d3" fill-opacity="0" fill-rule="evenodd" d="M201.50781 416.59766h-.89453l.44922.6289.98047.35938.80469-.08985.4453-.98828-.17577.08985-.71485-.35547-.89453.35547m154.6211 59.0703l-.0586-.52343v-.29297l.11328-.29297.0586-.23046.46875-.46875h.11328l.11719-.11329.11718-.05859h.17579l.23437-.0586h.34766l.23437.0586.11719.0586.23047.17187.0586.17578.11718.58203v.29297l-.11719.17578-.17187.28906-.17579.17579-.52734.52343-.23047.23438-.11719.0586h-.17578l-.11718-.0586-.40625-.29297-.17579-.11719-.11718-.0586-.0586-.11327-.05468-.1172m6.64062-10.95702l-.0586-.17188v-1.10937l.0586-.17188.17578-.0586.17188-.05858h.17578l.23437-.0586.1172.0586.05858.69921-.05859.17188-.11719.17578-.11718.0586-.23438.52343-.11328.0586h-.23438l-.05859-.1172m9.61328-14.39062l-.11719-.17578v-.69922l.29297-.875.1172-.17187.17577-.35156.11328-.23047.1172-.29297.35155-.75781.1172-.23047.17187-.23438h.17578l.11719-.0586h.64062l.11719.0586.23437.23438.17188.11328.35156.29297.11719.11718.11328.17579v.11328l.11719.05859.11718.11719v.69922l-.05859.17578v.23047l-.0586.17578-.34765 1.05078-.11719.23047-.11719.23437-.11718.0586-.23047.23437-.64063.28906h-.875l-.41015-.11718-.64063-.46485"/><path fill="none" stroke="#bebebe" stroke-linecap="round" stroke-linejoin="round" stroke-miterlimit="10" stroke-width=".5" d="M467.95703 311.69531H144.02734v168.625h323.9297v-168.625"/><g clip-path="url(#a)"><path fill="#fff" fill-opacity="0" fill-rule="evenodd" d="M144 475.89063v4.4375h.0039H144V311.67188h.0039H144v164.21875"/></g><g clip-path="url(#b)"><path fill="#fff" fill-opacity="0" fill-rule="evenodd" d="M144.0039 480.32813V311.67188h53.25782v86.53515l-2.39453 2.23047-1.13672 4.4375 3.53125 3.53516 4.4375.73046.10156.17579-.10156.23828-1.8711 4.19922 1.8711 1.90234 4.4375 2.52344 1.15234.01172 3.28516.16015 4.3789 4.27735.0625.0703 2.5 4.3711 1.9375 2.05078 4.00391 2.38672-4.0039 2.94922-4.4375.0664-4.44141-1.13671-4.4375-1.23438-2.26563-.64453-1.79297-4.4375-.3789-.2539-4.4375-1.96485-3.08984-2.22265-1.35157-1.15625-4.4375-2.52735-4.4375 1.89453-3.75 1.78907-.6875.48828-3.7461 3.95312-.6953.89844-4.01172 3.53906-.42578.29688-4.4375 1.97265-4.4375-.83593-1.58985 3.0039-.45312 4.4375-2.28125 4.4375.10937 4.4414.8125 4.4375-.10937 4.4375 3.51172 4.08595 4.4375-2.51172 4.4375.55078 4.4375.70312 4.4414.60157 4.4375-.14454 4.4375-1.10156 4.4375-2.11328.09766-.07031 4.34375-1.48047 2.76562-2.95703 1.67188-1.01563 4.4375-2.6289 4.4375-.13281 1.47656-.66016 2.96484-.76172 4.4375-.98047 4.4375.05469 3.66407-2.7539.77344-1.76954 4.4375.2539 4.4414-.0078 4.4375.27343 4.4375-1.1875 2.07813-2-2.07813-3.3711-.30469-1.0664-4.1328-3.90625-.4961-.53125-3.9414-3.76562-4.44142-.23438-.26171-.4375-4.17578-3.89453-.4336-.54687.4336-2.65625 2.33593-1.78125-2.33594-1.82813-1.72656-2.60937-.39062-4.4375-2.32031-2.64063-3.75 2.64063-.6875.23437-4.4375.40235-4.44141-.03907-.7461-.59765-3.6914-3.37891-1.57813-1.0625-2.85937-2.82813L200 400.4375l-2.73828-2.23047v-86.53515h57.69531v117.5664l-4.4375 1.79688-.5625.47265.5625.45313 4.4375 1.75781 4.4414-1.85156.26954-.35938-.26953-.26953-4.4414-2v-117.5664h17.7539v112.10937l-4.4375 1.38672-2.07031 1.90234.46484 4.4375 1.60547 1.51953 2.97265-1.51953 1.46485-.42187 3.41797-4.01563-3.41797-3.28906V311.67187h13.3164v102.40625l-3.70312 4.11329-.73438 1.625-2.98437 2.8125-.80469 4.4414.1211 4.4375 1.53125 4.4375 2.13671 2.11328 2.23047-2.11328 2.20703-.54687 4.4375-.8789 4.4375-.82032 2.76563-2.1914-2.76563-3.52344-.6953-.91407.29687-4.4414-.41797-4.4375-3.6211-3.58985-4.4375-.52344V311.67188h13.31641V421.6836l-1.25781.94532 1.25781 1.44921 1.4336-1.44921-1.4336-.94532V311.67188h48.82031v111.30468l-4.4375 1.40625-2.35937 2.6875 2.35937 2.375 1.05469 2.0625-.78125 4.4375-.27344 1.42188-2.92969 3.01562-1.5078 1.375-3.22657 3.0625-1.21484 1.09766-3.13282 3.34375 3.13282 2.8164 4.4414-.15625 4.4375-.10156 4.4375-2.3789 4.4375 2.07421 4.4414.29297 3.6172-2.54687-3.6172-2.76563-1.7539-1.67578 1.7539-.3086 4.4375-.28905 4.4375-.3711 3.46876-3.46875.84375-4.4375-.51953-4.4375-3.79297-3.82812-4.4375.07031-4.4375-.45703-4.4414.0039-.26173-.22656-4.17578-4.09375V311.67187h35.50781V430.0586l-2.47265 1.44922-1.96485.45703-4.1875 3.98047 1.1172 4.4375 1.10937 4.4375-2.48047 1.42578-3.01953 3.01563 3.01953 3.19922 3.44922-3.19922.99219-1.9336 4.4375-2.30468 1.96093 4.23828 2.23438 4.4375-4.19531.70312-3.75 3.73438.14453 4.4375 3.60546 4.04687 4.4375.19922 4.4375-.16406 4.4375-1.28125 4.44141-.57422 4.4375 1.83985 4.4375-2.46094.8789-1.60547 3.5586-.53906 4.01953-3.89844-1.66797-4.4375-2.35156-3.22266-.21094-1.21484.21094-1.35156 2.97266-3.08985-2.97266-2.36719-4.4375-1.64843-4.4375.78515-4.4375.375-4.4414 2.63282-.54297.22265-3.89454.33985-4.4375.8828-4.03515-1.22265 4.03515-.29687 3.70313-4.14063-3.70313-4.10547-.07421-.33203L385 431.50781l-1.32813-1.44922V311.67188h84.32422v168.65625h-78.94921l-.9375-.44141-.2461.4414H144.00391"/></g><path fill="#50fcfc" fill-rule="evenodd" d="M157.53906 449.26172l-.10937-4.4414 2.28125-4.4375.45312-4.4375 1.58985-3.00391 4.4375.83593 4.4375-1.97265.42578-.29688 4.01172-3.53906.6953-.89844 3.7461-3.95312.6875-.48828 3.75-1.78907 4.4375-1.89453v3.17969l-.9375.5039-3.5 2.45313-2.44531 1.98828-1.16406 4.4375 3.60937 2.08203 2.70313-2.08203 1.73437-.88672 4.4375-.86718 2.76172-2.6836-2.76172-2.42187-3.72265-2.01953-.71485-.50391v-3.17969l4.4375 2.52735 1.35156 1.15625 3.08985 2.22265 4.4375 1.96485.3789.2539 1.79297 4.4375 2.26563.64453 4.4375 1.23438v3.64062l-4.4375 1.42188-4.4375.54297-4.4375-1.02344-4.4414 1.73828-4.4375-.83594-1.13282 1.51172-2.77344 4.4375-.53125.57813-4.4375.00781-1.28515-.58594L176 440.38281l-.9336-1.98828-4.4375.14063-1.51171 1.84765 1.51172 2.14844.94922 2.28906-.03516 4.4414-.91406.44532-4.4375 2.55469-2.81641-3 1.60938-4.4414-3.23047-2.46094-1.5547 2.46093.30079 4.4414-.39453 4.4375-.10547 4.4375 1.7539 2.04298 2.64844-2.04297 1.78907-2.91406 4.4375 1.84375 3.125 1.0703 1.3125.39845 4.4414.80859 4.4375-.48438 1.58203-.72265 2.85547-1.40235 4.4375-2.57421 1.73047-.46094 2.71094-.5 4.4375-2.57031 1.9336-1.3672 2.5039-1.96874 4.4375-.3086 4.4414-2.0078.5547-.15626-.5547-.4961-1.41796-3.9414-3.02344-3.35547v-3.64062l4.4414 1.13672 4.4375-.0664 4.00391-2.94923-4.0039-2.38672-1.9375-2.05078-2.5-4.3711-.0625-.0703-4.37891-4.27735-3.28516-.16015-1.15234-.01172-4.4375-2.52344-1.8711-1.90234 1.8711-4.19922.10156-.23828-.10156-.17579-4.4375-.73046-3.53125-3.53516 1.13672-4.4375 2.39453-2.23047v3.84766l-1.64063 2.82031 1.64063 1.64063 2.91797-1.64063-2.91797-2.82031v-3.84766L200 400.4375l1.69922 1.60938 2.85937 2.82812 1.57813 1.0625v3.45313l-3.28516 4.36328 3.28516 2.80078 4.4375-1.8711 1.61719 3.50782L215.01563 421l2.22265 1.6289 2.21484 2.76954 3.10157 1.67187 1.33594.9414v3.85157l-3.14454 4.08203 3.14453 3.01172 4.4375-.44531 1.06641-2.5664-1.0664-1.77735-4.4375-2.30469v-3.85156l4.4375 2.39453 2.41796 1.10156 1.72657 4.4375.29297 1.29297 4.4414 1.89844 1.75781 1.2461 2.6797.9414 1.97265-.9414.125-4.4375-2.09766-1.98438-2.28125-2.45313-2.15625-2.0625-4.4414.91406-1.95704-3.28906-2.48047-2.3125-1.6875-2.1289-.97265-4.4375-1.77734-2.28907-2.22657-2.14843-2.21094-1.36329-3.82421 1.36329-.61328.1914-1.02344-.1914-3.41797-.79297-4.4375-3.57031v-3.45313l3.6914 3.3789.7461.59766 4.4414.03906 4.4375-.40234.6875-.23437 3.75-2.64063 2.32032 2.64063.39062 4.4375 1.72656 2.60937 2.33594 1.82813-2.33594 1.78125-.43359 2.65625.4336.54687 4.17578 3.89453.26172.4375 4.4414.23438 3.9414 3.76562.4961.53125 4.13281 3.90625.3047 1.0664 2.07812 3.3711-2.07813 2-4.4375 1.1875-4.4375-.27344-4.4414.00782-4.4375-.2539-.77344 1.76952-3.66406 2.7539-4.4375-.05468-4.4375.98047-2.96485.76172-1.47656.66015-4.4375.13282-4.4375 2.6289-1.67188 1.01563-2.76562 2.95703-4.34375 1.48047-.09766.07031-4.4375 2.11328-4.4375 1.10156-4.4375.14454-4.4414-.60157-4.4375-.70312-4.4375-.55078-4.4375 2.51172-3.51172-4.08594.10937-4.4375-.8125-4.4375"/><path fill="#00e8fc" fill-rule="evenodd" d="M161.7539 460.17969L160 458.13672l.10547-4.4375.39453-4.4375-.30078-4.4414 1.55469-2.46094 3.23047 2.46093-1.60938 4.4414 2.8164 3 4.4375-2.55468.91407-.44531.03516-4.4414-.94922-2.28907-1.51172-2.14844 1.51172-1.84765 4.4375-.14063.93359 1.98828 2.22266 4.4375 1.28515.58594 4.4375-.00781.53125-.57813 2.77344-4.4375 1.13281-1.51172 4.4375.83594 4.4414-1.73828 4.4375 1.02344v4.64453l-4.4375.57422-4.4414-.39453-4.4375.53906-.35937.46484-4.07813 4.4336-4.4375-1.3711-1.99219 1.3789.76172 4.4375 1.23047.82032 4.4375.47656 2.23047-1.29687-2.1836-4.4375 4.39063-2.78906 1.40235 2.78906 3.03515 1.26172 3.21485-1.26172 1.22656-2.41406 4.4375-.60547 1.98437-1.42188-1.98437-1.1836v-4.64452l4.4375-.54297 4.4375-1.42188 3.02344 3.35547 1.41797 3.9414.55468.4961-.55469.15625-4.4414 2.00781-4.4375.3086-2.5039 1.96875-1.9336 1.36719-4.4375 2.5703-2.71094.5-1.73047.46095-4.4375 2.57421-2.85547 1.40235-1.58203.72265-4.4375.48438-4.4414-.8086-1.3125-.39843-3.125-1.07031-4.4375-1.84375-1.78907 2.91406-2.64843 2.04297"/><path fill="#00d4fc" fill-rule="evenodd" d="M178.27734 453.69922l-.76172-4.4375 1.9922-1.3789 4.4375 1.37109 4.07812-4.4336.35937-.46484 4.4375-.53906 4.4414.39453 4.4375-.57422 1.98438 1.1836-1.98437 1.42187-4.4375.60547-1.22656 2.41406-3.21485 1.26172-3.03515-1.26172-1.40235-2.78906-4.39062 2.78906 2.1836 4.4375-2.23048 1.29687-4.4375-.47656-1.23047-.82031"/><path fill="#00e8fc" fill-rule="evenodd" d="M183.94531 433.58984l-3.60937-2.08203 1.16406-4.4375 2.44531-1.98828 3.5-2.45312.9375-.50391.71485.5039 3.72265 2.01954 2.76172 2.42187-2.76172 2.6836-4.4375.86718-1.73437.88672-2.70313 2.08203m13.3164-27.07421l-1.64062-1.64063 1.64063-2.82031 2.91797 2.82031-2.91797 1.64063m8.875 10.03906l-3.28516-2.80078 3.28516-4.36329v4.22266l-.10547.14063.10547.08984.17187-.08984-.17187-.14063v-4.22265l4.4375 3.5703 3.41797.79298 1.02344.1914.61328-.1914 3.82422-1.36329v2.5625l-4.4375 3.14063-.06641.09766.0664.0664 4.4375 3.59766 2.50782.77344 1.92969 1.19921.65625-1.19921-.65625-1.38282-1.17579-3.05468-3.26172-3.23829v-2.5625l2.21094 1.36329 2.22656 2.14843 1.77735 2.28907.97266 4.4375 1.6875 2.1289 2.48046 2.3125 1.95703 3.28906 4.44141-.91406 2.15625 2.0625 2.28125 2.45313 2.09766 1.98437-.125 4.4375-1.97266.9414-2.67969-.9414-1.7578-1.2461-4.44142-1.89843-.29296-1.29297-1.72657-4.4375-2.41797-1.10156-4.4375-2.39453-1.33593-.9414-3.10156-1.67188-2.21485-2.76953L215.01562 421l-2.82421-2.8086-1.6172-3.5078-4.4375 1.87109"/><path fill="#00d4fc" fill-rule="evenodd" d="M206.13672 413.84375l-.10547-.08984.10547-.14063.17187.14063-.17187.08984m8.8789 4.41406l-.0664-.0664.0664-.09766 4.4375-3.14063v1.6836l-2.15625 1.55469 2.15625 1.7578 1.5625-1.7578-1.5625-1.5547v-1.68358l3.26172 3.23828 1.17578 3.05468.65625 1.38282-.65625 1.19921-1.92968-1.19921-2.50781-.77344-4.4375-3.59766"/><path fill="#00c4fc" fill-rule="evenodd" d="M219.45313 419.94922l-2.15625-1.75781 2.15625-1.5547 1.5625 1.5547-1.5625 1.7578"/><path fill="#fff" fill-opacity="0" fill-rule="evenodd" d="M223.89063 431.86328l-3.14454 4.08203 3.14453 3.01172 4.4375-.44531 1.06641-2.5664-1.0664-1.77735-4.4375-2.30469"/><path fill="#50fcfc" fill-rule="evenodd" d="M250.51953 431.96094l-.5625-.45313.5625-.47265 4.4375-1.79688 4.4414 2 .26954.26953-.26953.35938-4.4414 1.85156-4.4375-1.75781m16.14843-.45313l-.46485-4.4375 2.07032-1.90234 4.4375-1.38672v2.13672l-2.19922 1.15234 2.19922 1.40625 1.19922-1.40625-1.19922-1.15234v-2.13672l3.41797 3.28906-3.41797 4.01563-1.46485.42187-2.97265 1.51953-1.60547-1.51953"/><path fill="#00e8fc" fill-rule="evenodd" d="M272.71094 428.47656l-2.19922-1.40625 2.19922-1.15234 1.19922 1.15234-1.19922 1.40625"/><path fill="#50fcfc" fill-rule="evenodd" d="M277.92188 431.50781l-.1211-4.4375.80469-4.4414 2.98437-2.8125.73438-1.625 3.70312-4.11329v1.6211l-2.24218 2.49219-1.89063 4.4375-.30469.3125-2.375 4.1289.1836 4.4375 2.1914 3.42969 4.4375-.51953 4.4375-2.17969 1.95313-.73047-1.95313-2.8789-.65625-1.5586.65625-.22656 3.09375-4.21484-1.10156-4.4375-1.99219-1.97657-4.4375-.51562v-1.6211l4.4375.52344 3.6211 3.58985.41797 4.4375-.29688 4.4414.69531.91406 2.76563 3.52344-2.76563 2.1914-4.4375.82032-4.4375.8789-2.20703.54688-2.23047 2.11328-2.13671-2.11328-1.53125-4.4375"/><path fill="#00e8fc" fill-rule="evenodd" d="M279.39844 431.50781l-.1836-4.4375 2.375-4.1289.3047-.3125 1.89062-4.4375 2.24218-2.4922 4.4375.51563v2.94141l-4.4375 2.29297-.11328 1.17969-4.32422 4.41406-.01562.02734.01562.23438.55079 4.20312 3.88671 1.27344 2.1836-1.27344-2.1836-2.9375-4.37109-1.5 4.3711-4.15234 4.4375 1.77344 1.51562-2.0625-1.51563-3.47266v-2.9414l1.9922 1.97656 1.10155 4.4375-3.09375 4.21484-.65625.22656.65625 1.5586 1.95313 2.8789-1.95313.73047-4.4375 2.17969-4.4375.51953-2.1914-3.42969"/><path fill="#00d4fc" fill-rule="evenodd" d="M281.58984 427.30469l-.01562-.23438.01562-.02734 4.32422-4.41406.11328-1.1797 4.4375-2.29296 1.51563 3.47266-1.51563 2.0625-4.4375-1.77344-4.37109 4.15234 4.3711 1.5 2.18359 2.9375-2.1836 1.27344-3.88671-1.27344-.55079-4.20312"/><path fill="#50fcfc" fill-rule="evenodd" d="M299.34375 424.07813l-1.25781-1.44922 1.25781-.94532 1.4336.94532-1.4336 1.44921m35.5039 28l-3.1328-2.8164 3.1328-3.34375 1.21485-1.09766 3.22656-3.0625 1.50781-1.375 2.9297-3.01562L344 435.9453l.78125-4.4375-1.05469-2.0625-2.35937-2.375 2.35937-2.6875 4.4375-1.40625v1.54297l-3.50781 2.55078 2.28516 4.4375-2.0625 4.4375 3.28515 3.34375v.89453l-1.1211.19922 1.1211.29688.1836-.29688-.1836-.19922v-.89453l1 1.09375-1 1.61719-4.4375-.28906-3.41015 3.10937 3.41015 3.78125 4.4375-.73047 3.97266-3.05078.46484-.25 4.4414-.69531 4.4375-.67578 4.4375-1.0586 1.75782-1.7578.94922-4.4375-2.28125-4.4375-.42578-.4297-4.4375-1.6914-4.4375-1.51563-4.4414.78907-1.83594-1.58985-2.60157-2.55078v-1.54297l4.17578 4.09375.26172.22656 4.4414-.0039 4.4375.45703 4.4375-.07031 3.79298 3.82812.51953 4.4375-.84375 4.4375-3.46875 3.46875-4.4375.3711-4.4375.28906-1.7539.3086 1.7539 1.67577 3.61719 2.76563-3.6172 2.54687-4.4414-.29296-4.4375-2.07422-4.4375 2.3789-4.4375.10156-4.4414.15625"/><path fill="#00e8fc" fill-rule="evenodd" d="M343.72656 448.60156l-3.41015-3.78125 3.41015-3.10937 4.4375.28906 1-1.61719-1-1.09375-3.28515-3.34375 2.0625-4.4375-2.28516-4.4375 3.50781-2.55078 2.60156 2.55078 1.83594 1.58985 4.4414-.78907v.96875l-4.4414 2.09766-1.21875.57031-3.21875 1.54297-1.8164 2.89453 1.8164 1.85156 2.35938 2.58594-2.35938 3.82031-1.55469.6172 1.5547.67187.87109-.67188 3.5664-1.90625 4.4414-.10156 4.4375-1.32031 2.78907-1.10938 1.64844-4.3086.03125-.1289-.03125-.05469-4.4375-3.64062-.33594-.74219-4.10156-2.66797v-.96875l4.4375 1.51563 4.4375 1.6914.42578.4297 2.28125 4.4375-.94922 4.4375-1.75781 1.7578-4.4375 1.0586-4.4375.67578-4.4414.69531-.46485.25-3.97266 3.05078-4.4375.73047"/><path fill="#00d4fc" fill-rule="evenodd" d="M348.16406 437.79688l-1.8164-1.85157 1.8164-2.89453 3.21875-1.54297 1.21875-.57031 4.4414-2.09766v.96875l-3.11327 1.69922-1.32813 1.70703-4.4375 2.16797-.35156.5625.35156.35938 3.72266 4.07812.71484.875 4.4414.49219 3.48829-1.36719.94922-3.33594.46094-1.10156-.46094-.38281-1.82422-4.05469-2.61328-1.69922v-.96875l4.10156 2.66797.33594.74219 4.4375 3.64063.03125.05468-.03125.1289-1.64844 4.3086-2.78906 1.10938-4.4375 1.32031-4.4414.10156-3.56641 1.90625-.8711.67188-1.55469-.67188 1.5547-.61719 2.35937-3.8203-2.35938-2.58594"/><path fill="#fff" fill-opacity="0" fill-rule="evenodd" d="M348.16406 440.1836l-1.1211.19921 1.1211.29688.1836-.29688-.1836-.19922"/><path fill="#00c4fc" fill-rule="evenodd" d="M348.16406 436.30469l-.35156-.35938.35156-.5625 4.4375-2.16797 1.32813-1.70703 3.11328-1.69922v.96485l-1.34375.73437-3.09766 3.99219-.90625.44531.90625 1.29688 2.76953 3.14062 1.67188.30469.77344-.30469 2.74609-4.4375-2.39453-4.4375-1.125-.73437v-.96485l2.61328 1.69922 1.82422 4.05469.46094.38281-.46094 1.10156-.94922 3.33594-3.48828 1.36719-4.4414-.49219-.71485-.875-3.72266-4.07812"/><path fill="#00b8fc" fill-rule="evenodd" d="M352.60156 437.24219l-.90625-1.29688.90625-.44531 3.09766-3.99219 1.34375-.73437v1.14062l-3.32813 4.03125 3.32813 3.42188 2.48828-3.42188-2.48828-4.03125v-1.14062l1.125.73437 2.39453 4.4375-2.7461 4.4375-.77343.30469-1.67188-.30469-2.76953-3.14062"/><path fill="#00a8fc" fill-rule="evenodd" d="M357.04297 439.36719l-3.32813-3.42188 3.32813-4.03125v1.67578l-1.94531 2.35547 1.9453 2 1.45313-2-1.45312-2.35547v-1.67578l2.48828 4.03125-2.48828 3.42188"/><path fill="#009800" fill-rule="evenodd" d="M357.04297 437.94531l-1.94531-2 1.9453-2.35547v1.67579l-.5625.67968.5625.57813.41798-.57813-.41797-.67969v-1.67578l1.45312 2.35547-1.45312 2"/><path fill="#00ac00" fill-rule="evenodd" d="M357.04297 436.52344l-.5625-.57813.5625-.67969.41797.6797-.41797.57812"/><path fill="#50fcfc" fill-rule="evenodd" d="M374.79297 452.46094l-3.01953-3.19922 3.01953-3.01563v2.15235l-.85938.86328.85938.91406.98828-.91406-.98828-.86328v-2.15235l2.48047-1.42578-1.10938-4.4375-1.11719-4.4375 4.1875-3.98047 1.96485-.45703 2.47265-1.44922v1.78907l-4.4375 2.1914-2.0078 1.90625 2.0078 2.92969.30079 1.50781 4.13671 3.85547 4.4375-1.71094 1.91797-2.14453-1.91796-2.125-.52344-2.3125-3.91406-4.09765v-1.78907L385 431.50781l3.03516 4.4375.07421.33203 3.70313 4.10547-3.70313 4.14063-4.03515.29687 4.03515 1.22266 4.4375-.88281 3.89454-.33985.54296-.22265 4.44141-2.63282 4.4375-.375 4.4375-.78515v1.14062l-4.4375 1.8164-4.4375.82032-.38281.23828-4.0586.6836-4.4375 1.21875-3.23046 2.53906-.59375 4.4375-.61329.5625-4.4375 1.3086-2.57812 2.5664.2539 4.4375 2.32423 2.60937 4.4375.98829 4.4375-.21875 4.34375-3.37891.09375-.10547 4.4414-.61719 1.3125.72266 3.125 2.25781 2.64453-2.25781 1.79297-1.03516 4.4375-.3789 3.11719-3.02344-3.11719-4.03906-.3125-.39844-.7461-4.4375.41016-4.4414-3.78906-2.875v-1.14063l4.4375 1.64844 2.97266 2.36718-2.97266 3.08985-.21094 1.35156.21094 1.21484 2.35156 3.22266 1.66797 4.4375-4.01953 3.89844-3.5586.53906-.8789 1.60547-4.4375 2.46094-4.4375-1.83985-4.4414.57422-4.4375 1.28125-4.4375.16406-4.4375-.19922-3.60547-4.04687-.14454-4.4375 3.75-3.73438 4.19532-.70312-2.23438-4.4375-1.96094-4.23828-4.4375 2.30469-.99218 1.93359-3.44922 3.19922"/><path fill="#00e8fc" fill-rule="evenodd" d="M374.79297 450.17578l-.85938-.91406.85938-.86328.98828.86328-.98828.91406m4.4414-11.30078l-2.0078-2.92969 2.0078-1.90625 4.4375-2.1914v.78125l-4.01562 3.3164.9414 4.4375 3.07423 2.86328 3.94921-2.86328-.78515-4.4375-3.16406-3.3164v-.78125l3.91406 4.09765.52344 2.3125 1.91796 2.125-1.91796 2.14453-4.4375 1.71094-4.13672-3.85547-.30079-1.50781"/><path fill="#00d4fc" fill-rule="evenodd" d="M380.59766 440.38281l-.94141-4.4375 4.01563-3.3164v.78515l-3.06641 2.53125 1.05469 4.4375 2.01171 1.875 2.58594-1.875-.16797-4.4375-2.41796-2.53125v-.78515l3.16406 3.3164.78515 4.4375-3.94921 2.86328-3.07422-2.86328"/><path fill="#00c4fc" fill-rule="evenodd" d="M381.66016 440.38281l-1.0547-4.4375 3.06642-2.53125v.78125l-2.1172 1.75 1.16798 4.4375.94921.88281 1.21875-.8828.44922-4.4375-1.66796-1.75v-.78126l2.41796 2.53125.16797 4.4375-2.58594 1.875-2.01171-1.875"/><path fill="#00e8fc" fill-rule="evenodd" d="M381.34766 462.57422l-.25391-4.4375 2.57813-2.5664 4.4375-1.3086.61328-.5625.59375-4.4375 3.23046-2.53906 4.4375-1.21875 4.0586-.6836.38281-.23828 4.4375-.82031 4.4375-1.8164v1.90624l-1.85547.96875-2.58203 1.89844-4.4375-.71875-4.4414.67188-4.38672 2.58984-.05079.03906-2.76171 4.39844-1.67579 1.53906-4.4375 2.27735-.625.62109.4336 4.4375.1914.21484 4.4375 2.3086 4.4375-.32032 2.83594-2.20312 1.60156-1.8086 4.44141-1.21093 4.4375 2.3164 4.4375-2.37109 4.4375.19531 1.60938-1.5586-1.60938-2.08593-1.85547-2.35156-.61328-4.4375-.6914-4.4414-1.27735-.96876v-1.90625l3.78906 2.875-.41015 4.4414.7461 4.4375.3125.39845 3.11718 4.03906-3.11719 3.02344-4.4375.3789-1.79297 1.03516-2.64453 2.25781-3.125-2.25781-1.3125-.72266-4.4414.61719-.09375.10547-4.34375 3.3789-4.4375.21875-4.4375-.98828-2.32422-2.60937"/><path fill="#00b8fc" fill-rule="evenodd" d="M382.72266 440.38281l-1.16797-4.4375 2.11719-1.75v.78516l-1.16797.96484 1.16796 4.07813.92188-4.07813-.92188-.96484v-.78516l1.66797 1.75-.44921 4.4375-1.21875.88281-.94922-.8828"/><path fill="#00a8fc" fill-rule="evenodd" d="M383.67188 440.02344l-1.16797-4.07813 1.16796-.96484v.78125l-.22265.1836.22265.76952.17188-.76953-.17188-.1836v-.78124l.92188.96484-.92188 4.07813"/><path fill="#00d4fc" fill-rule="evenodd" d="M383.48047 462.57422l-.4336-4.4375.625-.6211 4.4375-2.27734 1.67579-1.53906 2.76171-4.39844.05079-.03906 4.38671-2.58985L401.42579 446v1.25l-4.4414.58984-2.40625 1.42188-2.03125 1.72656-1.69922 2.71094-2.73829 2.51172-3.30078 1.92578.65625 4.4375 2.64454 1.44531 4.4375-.41406 1.32421-1.03125 3.11329-3.51172 2.60546-.92578 1.83594-.89844 2.3789.89844 2.0586.92969 2.21485-.9297 2.22265-1.46483 3.6914 1.46484.7461.09765.10156-.09765-.10156-.13281-3.39453-4.3047-.48828-4.4375-.55469-1.96874-3.91797 1.96875-.51953.33984-.14062-.33984-4.29688-2.01172V446l4.4375.71875 2.58203-1.89844 1.85547-.96875 1.27735.96875.6914 4.4414.61328 4.4375 1.85547 2.35157 1.60938 2.08594-1.60938 1.5586-4.4375-.19532-4.4375 2.3711-4.4375-2.31641-4.4414 1.21094-1.60157 1.80859-2.83594 2.20312-4.4375.32032-4.4375-2.3086-.1914-.21484"/><path fill="#009800" fill-rule="evenodd" d="M383.67188 436.71484l-.22266-.76953.22265-.1836.17188.1836-.17188.76953"/><path fill="#00c4fc" fill-rule="evenodd" d="M385.46484 462.57422l-.65625-4.4375 3.30079-1.92578 2.73828-2.51172 1.69921-2.71094 2.03125-1.72656 2.40625-1.42188 4.44141-.58984v1.2461l-4.4414.51562-.42188.25-4.01563 3.41797-.64062 1.01953-3.79688 3.48828-1.6289.94922.95703 4.4375.67188.36719 3.2539-.3672 1.1836-.58983 2.84375-3.84766 1.59375-1.35547 4.4414-1.88672 2.55078-1.19531-.91797-4.4375-1.6328-.76563V447.25l4.29687 2.01172.14062.33984.51953-.33984 3.91797-1.96875.55469 1.96875.48828 4.4375 3.39453 4.30469.10156.1328-.10156.09767-.7461-.09766-3.6914-1.46485-2.22265 1.46485-2.21485.92969-2.0586-.9297-2.3789-.89843-1.83594.89844-2.60546.92578-3.11329 3.51172-1.32421 1.03125-4.4375.41406-2.64454-1.44531"/><path fill="#00b8fc" fill-rule="evenodd" d="M387.4375 462.57422l-.95703-4.4375 1.6289-.94922 3.79688-3.48828.64063-1.01953 4.01562-3.41797.42188-.25v4.5039l-.34766.1836.34765.10156.28907-.10156-.28906-.1836v-4.5039l4.4414-.51563 1.63281.76563.91797 4.4375-2.55078 1.19531-4.4414 1.88672-1.59375 1.35547-2.84375 3.84765-1.1836.58985-3.2539.36719-.67188-.3672"/><g clip-path="url(#c)"><path fill="#50fcfc" fill-rule="evenodd" d="M387.86328 480.32813l.2461-.44141.9375.4414h-1.1836"/></g><path fill="#00a8fc" fill-rule="evenodd" d="M396.98438 453.80078l-.34766-.10156.34765-.1836.28907.1836-.28906.10156"/><g clip-path="url(#d)"><path fill="#fff" fill-opacity="0" fill-rule="evenodd" d="M467.9961 480.32813H468V311.67188h-.0039H468v168.65625h-.0039"/></g><path fill="#fff" fill-opacity="0" fill-rule="evenodd" d="M409.25781 445.1836l5.08594 2.87109 4.89844-8.67188-5.08203-2.875-4.90235 8.67578"/><path fill-rule="evenodd" d="M416.30469 439.82813l.4414.25-3.09765 5.48046-.6836-.38671 2.20704-3.91016-1.20704-.6836.27344-.48437.51953.21875.2461.07813.24218.03515.2461-.02344.25781-.09765.26563-.1836.28906-.29296"/><path fill="#fff" fill-opacity="0" fill-rule="evenodd" d="M194.07422 401.98828l4.39062 3.85156 6.57032-7.48046-4.38672-3.85547-6.57422 7.48437"/><path fill-rule="evenodd" d="M202.0664 398.1875l.38282.33594-4.15234 4.73047-.59375-.51954 2.96484-3.37109-1.04297-.91797.36719-.41797.46094.32032.22656.1289.23047.08203.24609.02735.26953-.04297.30078-.125.33985-.23047"/><path fill="#fff" fill-opacity="0" fill-rule="evenodd" d="M233.625 448.26563l5.83594.17578.30078-9.95704-5.83594-.17578-.30078 9.95704"/><path fill-rule="evenodd" d="M237.36719 440.2461l.50781.01562-.1875 6.28906-.78906-.02344.13672-4.48437L235.64844 442l.01562-.55469.5625-.05078.2539-.04297.23048-.08594.20703-.1328.17969-.20704.15234-.28906.11719-.39063"/><path fill="#fff" fill-opacity="0" fill-rule="evenodd" d="M336.00781 457.08984l5.83985-.16796-.29297-9.95704-5.83985.17188.29297 9.95312"/><path fill-rule="evenodd" d="M339.26563 448.86328l.51171-.01172.1836 6.28906-.78516.02344-.13281-4.48828-1.38672.04297-.01953-.55469.5586-.08203.25-.0625.22656-.09375.19921-.14844.16797-.21484.13281-.30078.09375-.39844"/><g clip-path="url(#e)"><path fill="none" stroke="#000" stroke-linecap="round" stroke-linejoin="round" stroke-miterlimit="10" stroke-width=".5" d="M147.41797 481.14453l-6.83594-1.63281"/></g><g clip-path="url(#f)"><path fill="none" stroke="#000" stroke-linecap="round" stroke-linejoin="round" stroke-miterlimit="10" stroke-width=".5" d="M146.42188 480.90625l.30859 1.1875"/></g><g clip-path="url(#g)"><path fill="none" stroke="#000" stroke-linecap="round" stroke-linejoin="round" stroke-miterlimit="10" stroke-width=".5" d="M160.78516 480.8789l-6.94141-1.10156"/></g><g clip-path="url(#h)"><path fill="none" stroke="#000" stroke-linecap="round" stroke-linejoin="round" stroke-miterlimit="10" stroke-width=".5" d="M159.77734 480.71875l.39844 1.16016"/></g><g clip-path="url(#i)"><path fill="none" stroke="#000" stroke-linecap="round" stroke-linejoin="round" stroke-miterlimit="10" stroke-width=".5" d="M174.10547 480.84766l-6.94922-1.03516"/></g><g clip-path="url(#j)"><path fill="none" stroke="#000" stroke-linecap="round" stroke-linejoin="round" stroke-miterlimit="10" stroke-width=".5" d="M173.09375 480.69531l.41016 1.15625"/></g><g clip-path="url(#k)"><path fill="none" stroke="#000" stroke-linecap="round" stroke-linejoin="round" stroke-miterlimit="10" stroke-width=".5" d="M187.41797 480.86719l-6.94531-1.07422"/></g><g clip-path="url(#l)"><path fill="none" stroke="#000" stroke-linecap="round" stroke-linejoin="round" stroke-miterlimit="10" stroke-width=".5" d="M187.41797 480.86719l.80469 2.3164"/></g><g clip-path="url(#m)"><path fill="none" stroke="#000" stroke-linecap="round" stroke-linejoin="round" stroke-miterlimit="10" stroke-width=".5" d="M200.76172 480.61719l-7.0039-.57422"/></g><g clip-path="url(#n)"><path fill="none" stroke="#000" stroke-linecap="round" stroke-linejoin="round" stroke-miterlimit="10" stroke-width=".5" d="M200.76172 480.61719l.97266 2.2539"/></g><g clip-path="url(#o)"><path fill="none" stroke="#000" stroke-linecap="round" stroke-linejoin="round" stroke-miterlimit="10" stroke-width=".5" d="M214.08203 480.51953l-7.01562-.38281"/></g><g clip-path="url(#p)"><path fill="none" stroke="#000" stroke-linecap="round" stroke-linejoin="round" stroke-miterlimit="10" stroke-width=".5" d="M214.08203 480.51953l1.03516 2.22656"/></g><g clip-path="url(#q)"><path fill="none" stroke="#000" stroke-linecap="round" stroke-linejoin="round" stroke-miterlimit="10" stroke-width=".5" d="M227.3711 480.79688l-6.96485-.9336"/></g><g clip-path="url(#r)"><path fill="none" stroke="#000" stroke-linecap="round" stroke-linejoin="round" stroke-miterlimit="10" stroke-width=".5" d="M227.3711 480.79688l.85546 2.29687"/></g><g clip-path="url(#s)"><path fill="none" stroke="#000" stroke-linecap="round" stroke-linejoin="round" stroke-miterlimit="10" stroke-width=".5" d="M240.61328 481.1836l-6.8164-1.71094"/></g><g clip-path="url(#t)"><path fill="none" stroke="#000" stroke-linecap="round" stroke-linejoin="round" stroke-miterlimit="10" stroke-width=".5" d="M239.6211 480.9336l.29687 1.1914"/></g><g clip-path="url(#u)"><path fill="none" stroke="#000" stroke-linecap="round" stroke-linejoin="round" stroke-miterlimit="10" stroke-width=".5" d="M253.59375 482.03125l-6.14844-3.40625"/></g><g clip-path="url(#v)"><path fill="none" stroke="#000" stroke-linecap="round" stroke-linejoin="round" stroke-miterlimit="10" stroke-width=".5" d="M266.82031 482.17969l-5.96875-3.70313"/></g><g clip-path="url(#w)"><path fill="none" stroke="#000" stroke-linecap="round" stroke-linejoin="round" stroke-miterlimit="10" stroke-width=".5" d="M280.25 481.98438l-6.19922-3.3125"/></g><g clip-path="url(#x)"><path fill="none" stroke="#000" stroke-linecap="round" stroke-linejoin="round" stroke-miterlimit="10" stroke-width=".5" d="M293.60547 481.91016l-6.27735-3.16407"/></g><g clip-path="url(#y)"><path fill="none" stroke="#000" stroke-linecap="round" stroke-linejoin="round" stroke-miterlimit="10" stroke-width=".5" d="M307.23047 480.98828l-6.90235-1.32031"/></g><g clip-path="url(#z)"><path fill="none" stroke="#000" stroke-linecap="round" stroke-linejoin="round" stroke-miterlimit="10" stroke-width=".5" d="M306.22656 480.79688l.36328 1.17187"/></g><g clip-path="url(#A)"><path fill="none" stroke="#000" stroke-linecap="round" stroke-linejoin="round" stroke-miterlimit="10" stroke-width=".5" d="M320.60938 480.35938l-7.02735-.0586"/></g><g clip-path="url(#B)"><path fill="none" stroke="#000" stroke-linecap="round" stroke-linejoin="round" stroke-miterlimit="10" stroke-width=".5" d="M320.60938 480.35938l1.1328 2.17578"/></g><g clip-path="url(#C)"><path fill="none" stroke="#000" stroke-linecap="round" stroke-linejoin="round" stroke-miterlimit="10" stroke-width=".5" d="M333.91016 480.64844l-7-.64063"/></g><g clip-path="url(#D)"><path fill="none" stroke="#000" stroke-linecap="round" stroke-linejoin="round" stroke-miterlimit="10" stroke-width=".5" d="M333.91016 480.64844l.94921 2.26562"/></g><g clip-path="url(#E)"><path fill="none" stroke="#000" stroke-linecap="round" stroke-linejoin="round" stroke-miterlimit="10" stroke-width=".5" d="M346.9336 481.76172l-6.41407-2.86719"/></g><g clip-path="url(#F)"><path fill="none" stroke="#000" stroke-linecap="round" stroke-linejoin="round" stroke-miterlimit="10" stroke-width=".5" d="M360.34375 481.52344l-6.60547-2.39063"/></g><g clip-path="url(#G)"><path fill="none" stroke="#000" stroke-linecap="round" stroke-linejoin="round" stroke-miterlimit="10" stroke-width=".5" d="M359.38281 481.17578l.17188 1.21485"/></g><g clip-path="url(#H)"><path fill="none" stroke="#000" stroke-linecap="round" stroke-linejoin="round" stroke-miterlimit="10" stroke-width=".5" d="M372.42969 483.16406l-4.14844-5.67187"/></g><g clip-path="url(#I)"><path fill="none" stroke="#000" stroke-linecap="round" stroke-linejoin="round" stroke-miterlimit="10" stroke-width=".5" d="M386.3164 482.64453l-5.28906-4.6289"/></g><g clip-path="url(#J)"><path fill="none" stroke="#000" stroke-linecap="round" stroke-linejoin="round" stroke-miterlimit="10" stroke-width=".5" d="M399.53125 482.75l-5.08984-4.84375"/></g><g clip-path="url(#K)"><path fill="none" stroke="#000" stroke-linecap="round" stroke-linejoin="round" stroke-miterlimit="10" stroke-width=".5" d="M411.14844 483.73828l-1.69531-6.82031"/></g><g clip-path="url(#L)"><path fill="none" stroke="#000" stroke-linecap="round" stroke-linejoin="round" stroke-miterlimit="10" stroke-width=".5" d="M424.53125 483.72266l-1.82813-6.78516"/></g><g clip-path="url(#M)"><path fill="none" stroke="#000" stroke-linecap="round" stroke-linejoin="round" stroke-miterlimit="10" stroke-width=".5" d="M438.33594 483.55078l-2.8086-6.4414"/></g><g clip-path="url(#N)"><path fill="none" stroke="#000" stroke-linecap="round" stroke-linejoin="round" stroke-miterlimit="10" stroke-width=".5" d="M452.57422 482.96094l-4.65235-5.26563"/></g><g clip-path="url(#O)"><path fill="none" stroke="#000" stroke-linecap="round" stroke-linejoin="round" stroke-miterlimit="10" stroke-width=".5" d="M465.48828 483.26563l-3.85547-5.875"/></g><g clip-path="url(#P)"><path fill="none" stroke="#000" stroke-linecap="round" stroke-linejoin="round" stroke-miterlimit="10" stroke-width=".5" d="M147.40625 467.875l-6.8125-1.72266"/></g><path fill="none" stroke="#000" stroke-linecap="round" stroke-linejoin="round" stroke-miterlimit="10" stroke-width=".5" d="M147.40625 467.875l.58594 2.38281m12.71094-2.3164l-6.77735-1.85547m6.77734 1.85547l.54297 2.39062m12.8672-2.86719l-6.96876-.90234m6.96875.90234l.86719 2.29688m12.46484-2.46485l-7.0039-.5664m7.0039.5664l.97656 2.25391m12.29688-1.92187l-6.91797-1.23047m6.91797 1.23047l.7539 2.33593m12.5586-2.3203l-6.91406-1.26173m6.91406 1.26172l.7461 2.33594m12.61327-2.65625l-7-.6211m7 .6211l.95313 2.26172m12.33984-2.07813l-6.95703-.98828m6.95703.98828l.83594 2.3086m12.29688-1.58204l-6.58985-2.4414m5.6289 2.08594l.16407 1.21875m14.03125-.67188l-6.4336-2.82422m5.5 2.41406l.08985 1.22266m13.8789-.29297l-5.87109-3.86328m5.01563 3.30078l-.11328 1.22266m14.02734-.3164l-5.35547-4.55079m4.57422 3.88672l-.26172 1.19922m14.53516-.76172l-5.71094-4.09766m4.8789 3.5l-.16405 1.21485m14.8789-1.875l-6.84765-1.58203m5.85156 1.35156l.3164 1.1836m14.07813-1.54298l-7.01563-.40234m5.9961.34375l.51172 1.11328m13.73828-.46094l-6.84375-1.58984m5.84765 1.35937l.31641 1.1875m14.02344-1.08593l-6.90235-1.33203m5.89844 1.13671l.35938 1.17579m14.01953-1.4922l-7.01953-.30859m5.99609.26563l.52734 1.10547m13.35157.52344l-6.10157-3.48047m5.21485 2.97656l-.03906 1.22656m10.92968 1.03906l.51953-7.0039m-.4453 5.98437l-1.1211.4961m13.8789.45703l1.48438-6.8711m-1.26953 5.8711l-1.17969.33203m14.57813.71875l.89062-6.97266m-.89062 6.97266l-2.29688.86719m16.54297-.875l-.97266-6.95703m.97266 6.95703l-1.98828 1.4414m15.58984-1.49218l-1.54687-6.85547m1.54687 6.85547l-1.85937 1.60156m15.96875-1.88281l-3.13282-6.29297m3.13282 6.29297l-1.42578 1.99609"/><g clip-path="url(#Q)"><path fill="none" stroke="#000" stroke-linecap="round" stroke-linejoin="round" stroke-miterlimit="10" stroke-width=".5" d="M147.4961 454.04688l-6.9922-.69532"/></g><path fill="none" stroke="#000" stroke-linecap="round" stroke-linejoin="round" stroke-miterlimit="10" stroke-width=".5" d="M147.4961 454.04688l.93359 2.26953m12.23047-1.53907l-6.6875-2.16015m6.6875 2.16015l.42968 2.41797m12.89063-2.4414l-6.70313-2.10938m6.70313 2.10938l.44922 2.41015m12.80469-2.23047l-6.57813-2.46875m6.57813 2.46875l.3164 2.4336m13.14453-2.92969l-6.8711-1.47656m6.8711 1.47656l.67188 2.35938m12.71875-3.2461l-7.01953.29688m7.01953-.29688l1.24219 2.11719m12.0703-2.19922l-7.01562.45703m7.01563-.45703l1.28906 2.08984m12.02734-2.03125l-7.01953.34375m7.01953-.34375l1.25782 2.10938m12.05859-1.85938l-7.02344-.16015m7.02344.16015l1.10547 2.19141m12.21094-2.14844l-7.02344-.24219m7.02344.2422l1.07812 2.20312m12.23828-2.24219l-7.02734-.16797m7.02734.16797l1.09766 2.19531m11.92969-.88672l-6.45313-2.78125m5.51563 2.375l.10156 1.22266m13.41797.26953l-4.98438-4.95312m4.25782 4.23047l-.35157 1.17578m14.84766-1.01563l-5.89453-3.82812m5.03515 3.26953l-.10546 1.22265m14.76171-1.8164l-6.85937-1.52344m5.86328 1.30078l.32813 1.1836m14.01562-1.125l-6.92187-1.19532m5.91406 1.02344l.38281 1.16406m13.98438-1.80469l-7.01172.4297m5.99218-.3672l.64063 1.04297m13.53516-1.95703l-6.69532 2.1289m5.72266-1.8164l.875.85547m13.47266.75l-6.81641-1.70312m5.82812 1.45703l.29297 1.1875m7.47266-.20313l6.26172-3.1836m8.26562 4.53516l3.83594-5.88671m-3.27734 5.03125l-1.22266-.10938m13.44922.54297l4.89844-5.03906m-4.89844 5.03906l-2.35938-.6875m16.8086 1.42578l2.6289-6.51562m-2.6289 6.51562l-2.4414.25781M436 456.00781l-1.22266.1289m13.89063.69923l3.16016-6.27735m-3.16016 6.27735l-2.45313.05469m2.91016-.96875l-1.22656.03125m15.26172 1.23437l.80468-6.98047m-.80468 6.98047l-2.28516.89844"/><g clip-path="url(#R)"><path fill="none" stroke="#000" stroke-linecap="round" stroke-linejoin="round" stroke-miterlimit="10" stroke-width=".5" d="M147.49219 440.76172l-6.98438-.75781"/></g><path fill="none" stroke="#000" stroke-linecap="round" stroke-linejoin="round" stroke-miterlimit="10" stroke-width=".5" d="M147.49219 440.76172l.91406 2.27734m12.33594-1.8789l-6.85547-1.55079m6.85547 1.55079l.64453 2.36718m12.3789-1.5625l-6.27343-3.16406m6.27344 3.16406l.05468 2.45313m13.27735-2.48047l-6.3047-3.10938m5.38673 2.65625l.03906 1.22657m14.13672-.66407l-6.1914-3.32421m5.29296 2.83984l-.00781 1.22656m14.5-1.42187l-6.7461-1.96485m5.76563 1.6797l.25 1.19921m14.07422-1.01563L220.48828 439.5m5.8125 1.50781l.28516 1.19531m13.78906-.30078l-6.33984-3.03515m5.41797 2.59375l.05078 1.22265m14.52343-2.0625l-7.01172-.47265m7.01172.47265l1 2.23828m12.28907-2.9414l-6.96485.92969m6.96485-.9297l1.42968 1.9961m11.89844-1.88672l-6.98828.71485m6.98828-.71485l1.36719 2.03907m11.96094-1.48047l-7.01563-.40625m5.9961.34765l.51171 1.11328m13.07422.91797l-5.51562-4.35156m4.71484 3.71875l-.21875 1.20703m14.97266-1.85156l-6.79297-1.79297m5.80469 1.53125l.28125 1.19531m14.14062-1.77734l-7.02734-.10938m6.0039.09375l.5586 1.09375m13.74219-1.64843l-6.95313 1.03125m5.9414-.8789l.72657.98437m13.51562.28906l-6.78515-1.82031m18.6875 3.8125l-3.96094-5.8047m17.4414 5.6875l-4.28906-5.5664m3.66407 4.7539l-.50782 1.1172m9.23829-1.3711l6.1289-3.4375m7.07031 3.21094l6.35938-2.98438m-5.4336 2.55079l-.98046-.73438m13.61718 1.61328l5.86329-3.875m-5.86329 3.875l-2.15234-1.17187m15.77344 1.5664l5.2539-4.66406m-5.2539 4.66406l-2.30078-.85547m3.0625.17579l-1.14844-.42579m13.98047 1.38672l4.69531-5.22656m-4.69531 5.22656l-2.38281-.58984m3.0664-.17188l-1.1914-.29296m15.22656 1.82421L464.5078 437m-1.89062 6.76562l-2.39844.52735"/><g clip-path="url(#S)"><path fill="none" stroke="#000" stroke-linecap="round" stroke-linejoin="round" stroke-miterlimit="10" stroke-width=".5" d="M147.51172 427.125l-7.02344-.10938"/></g><path fill="none" stroke="#000" stroke-linecap="round" stroke-linejoin="round" stroke-miterlimit="10" stroke-width=".5" d="M147.51172 427.125l1.1211 2.1836m12.16796-1.8047l-6.97266-.87109m6.97266.8711l.875 2.29296m12.20703-1.39453l-6.5039-2.66797m6.5039 2.66797l.24219 2.44141m13.19531-2.80469l-6.75-1.9414m6.75 1.9414l.50781 2.40235m12.90235-2.82813l-6.9414-1.08984m6.9414 1.08984l.80078 2.32031m12.40234-1.83984l-6.71875-2.05078m5.7422 1.7539L213.1914 429m13.26562.46875l-5.13281-4.80078m5.13281 4.80078l-.63672 2.36719m13.78125-2.19922L234.8086 424.5m4.09766 4.39062l-.40234 1.16016m14.86328-.92187l-5.69531-4.1211m5.6953 4.1211l-.33593 2.42968m14.17188-3.49218l-6.73438-1.9961m5.7539 1.70703l.2461 1.20313m14.03516-.86328l-6.70703-2.09766m5.73046 1.79297l.22657 1.20703m14.22265-1.77734l-7.01953-.34766m5.9961.29688l.52343 1.11328m13.8125-1.07032l-7.01953-.32812m6 .27734l.52344 1.10938m13.375.47656l-6.14453-3.40234m5.25 2.91015l-.01953 1.22657m12.78125.67968l-3.2461-6.23047m2.77344 5.32422l-.69531 1.01172m11.33203-.0586l3.05469-6.32421m-2.60938 5.40625l-1.22656.04688m13.92187.78515l3.40235-6.15234m9.15625 5.58594l4.91406-5.01954m-4.19922 4.28907l-1.17578-.34375m13.3164.51953l5.83594-3.91016m-4.98828 3.33985l-1.08203-.57813m13.125-1.89063l6.6836 2.16797m-5.71094-1.85156l-.21485-1.20703m13.25 4.28516l5.29688-4.6211m-4.52344 3.94922l-1.14844-.4375m13.14063.25l6.39844-2.90234m-6.39844 2.90234l-1.94531-1.5m15.91406 2.46875l5.08984-4.83984m-5.08984 4.83984l-2.32813-.77344m3.06641.07032l-1.16406-.38672m14.70312 1.80469l3.16797-6.26954m-3.16797 6.26954l-2.45312.05078m17.29687.32812l.10547-7.02734m-.10547 7.02734l-2.1836 1.11719"/><g clip-path="url(#T)"><path fill="none" stroke="#000" stroke-linecap="round" stroke-linejoin="round" stroke-miterlimit="10" stroke-width=".5" d="M147.4375 413.01953l-6.875 1.46485"/></g><path fill="none" stroke="#000" stroke-linecap="round" stroke-linejoin="round" stroke-miterlimit="10" stroke-width=".5" d="M146.4375 413.23438l.78906.9375m13.59766-.25782l-7.01953-.32031m6 .27344l.52344 1.10937m13.28125.63672l-5.96094-3.72265m5.09375 3.18359l-.08594 1.22265m13.58203.1172l-4.58594-5.32423m3.91797 4.55078l-.44531 1.14454m13.71484.10547l-3.16015-6.27344m2.70312 5.35937l-.71094 1.0039m12.46485.25782l.8789-6.97266m-.75 5.96094l-1.14843.4336m13.4961.36718l2.55468-6.54687m-2.1836 5.59375l-1.21875.14453m16.47657.89063l-2.07422-6.71094m2.07422 6.71094l-1.72656 1.74218m16.39453-2.51953l-4.77735-5.15625m4.77735 5.15625l-.8086 2.3164m14.1914-2.38671l-4.91796-5.01953m4.20313 4.28906l-.3711 1.17188m15.17969-1.58594l-6.47266-2.72656m5.53125 2.32812l.11328 1.22266m14.33594-2.95703l-6.85547 1.53906m5.85547-1.3164l.80078.92968m11.80078-3.44922l-3.42968 6.13281m2.92968-5.24219l1.22657.02735m11.89453 2.14844l-.01953-.19922-.0586-.1914-.09375-.1797-.45703-.375-.1914-.05859-.19922-.01953-.20313.01953-.1914.0586-.45704.375-.09375.17968-.05859.1914-.01953.19923.01953.19921.0586.19141.09374.17578.45704.3789.1914.0586.20313.01953.19922-.01953.1914-.0586.45703-.3789.09375-.17578.0586-.1914.01953-.19922m11.3789 3.39062l1.82813-6.78516m-1.5625 5.80079l-1.19531.27343m14.20703-6.0625l1.90625 6.76563m13.38281-3.38281l-.01953-.19922-.0586-.1914-.09374-.1797-.45704-.375-.1914-.05859-.19922-.01953-.20313.01953-.1914.0586-.45703.375-.09375.17968-.0586.1914-.01953.19923.01953.19921.0586.19141.09375.17578.45703.3789.1914.0586.20313.01953.19922-.01953.1914-.0586.45704-.3789.09375-.17578.05859-.1914.01953-.19922m10.01563-2.67579l4.55859 5.34766m-3.89844-4.5664l.45313-1.14454m11.78125.78907l5.39843 4.5m-5.39843-4.5l.5-2.40235m12.15234 3.6211l6.72266 2.05859m-6.72266-2.0586l-.46484-2.40624m1.4453 2.70703l-.46874-2.41016m12.67969 3.58984l6.96875-.89843m-6.96875.89843l-1.41797-2.0039m2.4336 1.8711l-.71095-1m13.04688 1.34765l6.89844-1.33203m-6.89844 1.33203l-1.54297-1.90625m2.54688 1.71484l-.77344-.95703M434.23047 416l5.40234-4.49219m-4.61718 3.83594l-1.13672-.46484m15.76562 2.33593l1.20313-6.92187m-1.20313 6.92187l-2.33203.76563m16.92578-.78125l-1.35547-6.89453m1.35547 6.89453l-1.90234 1.55078"/><g clip-path="url(#U)"><path fill="none" stroke="#000" stroke-linecap="round" stroke-linejoin="round" stroke-miterlimit="10" stroke-width=".5" d="M146.83203 398.35938l-5.66406 4.16015"/></g><path fill="none" stroke="#000" stroke-linecap="round" stroke-linejoin="round" stroke-miterlimit="10" stroke-width=".5" d="M146.00781 398.96484l1.10547.53125m12.36719-1.82421l-4.33203 5.53515m3.70312-4.73047l1.20703.21485m13.59766 3.53125l-6.05469-3.56641m16.77344 5.26953l-.85938-6.97265m.73438 5.95703l-1.0039.70312m11.59374-.6289l4.83985-5.09375m-4.13672 4.35156l-1.17969-.32813m13.51172.77344l5.40234-4.4961m-4.61718 3.83985l-1.13672-.46484m15.1875 2.17968l2.35937-6.61718m-2.35937 6.61718l-2.42969.35938m16.05469-.26172l1.74219-6.8086m-1.48829 5.81641l-1.1953.28906m15.33202.8047l-.41015-7.01563m.34765 5.9961l-1.04687.63671m15.7461.03906l-3.0547-6.32812m2.60938 5.41015l-.72266.98829m16.1211-1.70704l-6.32813-3.05468m5.40625 2.60937l.04688 1.22656m14.30468-3.5625l-6.5625 2.50782m5.60938-2.14454l.92578.8086m8.9375-3.2461l2.25 6.65625m-1.92578-5.6875l.84375-.89062m9.80469 2.6836l6.93359 1.13671m-5.92578-.97265l-.39063-1.16407M329 397.21875l2.82031 6.4375m-2.41015-5.5l.76172-.96094m11.07812.75l4.95313 4.98438m-4.23438-4.25781l.36328-1.17188m15.45313-.4961l-1.48828 6.8672m1.26953-5.8672l1.18359-.33593m15.03125 1.98047l-6.84766 1.57812m6.84766-1.57812l1.60938 1.85156m11.41406-2.65234l-6.26563 3.17968m6.26563-3.17968l2.00781 1.41015m-2.92187-.94531l2.0078 1.41016m-2.91796-.94922l1.0039.70703m14.26954-1.32813l-6.53516 2.57422m6.53516-2.57422l1.86718 1.59375m-2.8164-1.21875l1.86328 1.59375m-2.8164-1.22265l.93359.79687m14.375-1.28125l-6.71875 2.05078m6.71875-2.05078l1.73437 1.73438m5.84375 1.875l4.75781-5.17188m-4.0664 4.42188l-1.1875-.3125m14.54687 1.58594l3.28516-6.21485m-3.28516 6.21485l-2.45312.0039m18.57031.20313l-2.3164-6.63282m2.3164 6.63282l-1.66797 1.80468m16.61719-2.99218l-5.58984-4.25782m5.58984 4.25782l-.39844 2.42187m-.41406-3.03906l-.39844 2.42187"/><g clip-path="url(#V)"><path fill="none" stroke="#000" stroke-linecap="round" stroke-linejoin="round" stroke-miterlimit="10" stroke-width=".5" d="M146.76172 384.94922l-5.52344 4.34765"/></g><path fill="none" stroke="#000" stroke-linecap="round" stroke-linejoin="round" stroke-miterlimit="10" stroke-width=".5" d="M146.76172 384.94922l2.24219.98828m9.48828-2.125l-2.35547 6.6211m2.35547-6.6211l2.42578-.35938m8.4336.39844l2.55859 6.54297m-2.5586-6.54297l1.59766-1.86328m9.48828 4.9414l7.01563.38673m-7.01563-.38672l-1.03125-2.22656m14.76563 4.09765l6.17578-3.35547m-6.17578 3.35547l-2.04688-1.35547m15.53906 1.64453l5.82422-3.93359m-5.82422 3.9336l-2.16797-1.15235m17.44532 2.57031l1.89843-6.76953m-1.62109 5.78516l-1.19922.26172m12.8086-.07422l4.7539-5.17578m-4.0625 4.42187l-1.1875-.3086m13.40234.6172l5.57032-4.28516m-5.57031 4.28515L245.5 388.25m16.0586 1.54688l4.55468-5.34766m-3.89453 4.57031l-1.19531-.26172m12.92578-.1836l6.40234-2.89843m-5.46875 2.47656l-.97265-.75m15.35546 3.02344l2.40235-6.60547m-2.05469 5.64453l-1.21484.17188m18.86328-3.0039l-6.96094.98046m5.94531-.83594l.72266.98829m13.625-.3086l-6.9961-.66797m5.97657.57031l.47265 1.13282m13.85938-1.00781l-6.98828-.72266m6.98828.72265l.92187 2.27344m-1.9375-2.3789l.92188 2.27343m13.32812-1.69921l-6.82812-1.66016m6.82812 1.66015l.60547 2.37891m-1.59765-2.6211l.60547 2.37891m-1.60157-2.62109l.3047 1.1914m15.0664-1.05859l-6.96485-.95703m6.96485.95703l.84375 2.30469m-1.85938-2.44531l.84766 2.30469m13.2461-3.98829l-6.4922 2.69141m6.4922-2.6914l1.89452 1.5625m-2.83984-1.17188l1.89453 1.5625m-2.83594-1.16797l.94532.77734M386.5 385.03906l-5.65625 4.16797m5.65625-4.16797l2.21094 1.0625m-3.03516-.45703l2.21484 1.0625m-3.03515-.45312l1.10547.52734m13.95312-1.60156l-5.85547 3.88672m5.85547-3.88672l2.15625 1.16797m-3.00781-.60157l2.15625 1.16797m-3.00781-.60156l1.07812.58203m14.16016-1.33203l-6.29688 3.1211m6.29688-3.1211l1.9961 1.42969m-2.91407-.97656l1.9961 1.42968m-2.91016-.97656l.9961.71484m13.92577 1.88672l-5.84765-3.89453m5.84765 3.89453l-.24219 2.44531m-.60937-3.01171l-.1211 1.22265m13.21876.38281l-3.70704-5.97265m3.70704 5.97265l-1.23438 2.1211m.69531-2.99219l-.61718 1.0625m14.83203-.44922l-4.42969-5.45703m4.42969 5.45703l-.95703 2.25781m.3125-3.05078l-.48047 1.12891m14.91406-.80078l-5.375-4.52735m5.375 4.52735l-.51563 2.39844m-.26562-3.0586l-.25781 1.19922"/><g clip-path="url(#W)"><path fill="none" stroke="#000" stroke-linecap="round" stroke-linejoin="round" stroke-miterlimit="10" stroke-width=".5" d="M146.35156 371.19922l-4.70312 5.21875"/></g><path fill="none" stroke="#000" stroke-linecap="round" stroke-linejoin="round" stroke-miterlimit="10" stroke-width=".5" d="M146.35156 371.19922l2.38281.59375m-3.0664.16406l1.1914.29688m12.13672-1.53125l-3.36328 6.17187m3.36328-6.17187l2.45313.02734m-2.9414.8711l1.22655.01171m11.38282-1.30469l-.97656 6.96094m.97656-6.96094l2.3086-.83984m-2.44923 1.85156l1.15235-.41796m13.47656-.21094l-3.32031 6.19531m2.83593-5.29297l1.22657.0039m10.36328-1.28124l1.09765 6.9414m9.7461-1.67187l6.03906-3.59375m-5.16016 3.07031l-1.04687-.63672m19.86328.39063l-6.71875-2.05469m20.13672 1.6211l-6.92578-1.1875m6.92578 1.1875l.76953 2.32812m-1.77734-2.5039l.76953 2.33202m-1.77735-2.5039l.38672 1.16406m14.98828-1.17969l-7.01172-.46094m7.01172.46094l1.00782 2.23828m-2.02735-2.30468l1.0039 2.23828m-2.02733-2.30469l.5039 1.11719m14.82422-.71485l-6.95313-1m6.95313 1l.83203 2.3086m-1.84375-2.45313l.83203 2.3086m-1.84375-2.45313l.41407 1.15235m14.94921-1.07422l-7.0039-.57813m7.0039.57813l.96875 2.2539m-1.98828-2.33594l.96875 2.25391m13.26563-3.33594l-6.80469 1.75m6.80469-1.75l1.65625 1.8125m-2.64453-1.55859l.82812.90625m13.27735-1.72656l-6.41016 2.88281m6.41016-2.88281l1.9414 1.5039m-2.8711-1.08203l1.9375 1.5039m12.60548-.21483l-7.00391-.53907m7.0039.53906l.98438 2.25M319.57813 374l.98437 2.25m13.29297-1.7539l-6.89063-1.375m6.89063 1.375l.70703 2.34765m-1.70703-2.55078l.35156 1.17578m13.98047-1.07031l-6.92578-1.17969m6.92578 1.17969l.77344 2.33203m12.57812-3.23438l-6.9961.625m6.9961-.625l1.34375 2.0547m11.61719-3.3125l-6.28516 3.14062m6.28516-3.14063l1.9961 1.42188m10.89453-2.07422l-5.44141 4.44531m5.4414-4.44531l2.26563.94922m-3.05469-.30079l1.1289.47266m12.79298-1.32812l-5.07422 4.85937m5.07422-4.85937l2.33203.76953m-3.07031-.0625l2.33203.76953m12.30078-.66797l-6.23438 3.24219m6.23438-3.24219l2.02344 1.38672m-2.9297-.91797l2.02345 1.39063m12.59375-.27344l-7.02735.0664m7.02735-.0664l1.17187 2.15625m-2.1914-2.14453l1.17187 2.15625m12.08984.39453l-4.8789-5.05469m4.8789 5.05469l-.7578 2.33203m.04687-3.0664l-.37891 1.16406m13.22656.3203l-2.52343-6.55468m2.52343 6.55469l-1.60547 1.85547m1.23829-2.8086l-.80079.92578m15.53516-.60546l-4.625-5.28907m4.625 5.28906L465 378.7461m.19922-3.0625l-.4336 1.14844"/><g clip-path="url(#X)"><path fill="none" stroke="#000" stroke-linecap="round" stroke-linejoin="round" stroke-miterlimit="10" stroke-width=".5" d="M145.40625 357.27344l-2.8125 6.4375"/></g><path fill="none" stroke="#000" stroke-linecap="round" stroke-linejoin="round" stroke-miterlimit="10" stroke-width=".5" d="M145.40625 357.27344l2.44922-.1875m11.90625.88672l-4.89453 5.04296m4.89453-5.04296l2.35547.67968m-3.0664.0547l1.17577.33983m13.69531.21875l-6.58593 2.45313m6.58594-2.45313l1.83593 1.62891m-2.79297-1.26953l1.83594 1.6289m-2.79297-1.27343l.91797.8164m14.47656-.92968l-6.91406 1.2539m6.91406-1.2539l1.51953 1.92578m-2.52734-1.74219l1.52344 1.92578m-2.52734-1.7461l1.51953 1.92579m-2.52735-1.74219l.76172.96094m15.6289-.98828l-7.02343.21094m7.02344-.21094l1.21484 2.13281m-2.23828-2.10156l1.21875 2.13281m-2.24219-2.10156l1.21875 2.1289m14.01563-1.14453l-6.76953-1.8789m6.76953 1.8789l.53125 2.39454m-1.51563-2.66797l.53125 2.39453m-1.51562-2.66797l.53125 2.39453m14.82422-2.17188l-6.91797-1.23046m6.91797 1.23046l.7578 2.33594m-1.76171-2.51562l.7539 2.33594m-1.76171-2.51563l.7539 2.33594m14.5547-1.86328l-6.875-1.45704m6.875 1.45704l.67577 2.35546m-1.67969-2.5703l.6797 2.35937m-1.6797-2.57031l.33985 1.17968m15.05078-1.32812l-7.01953-.3086m7.01953.3086l1.05469 2.21484m-2.07813-2.26172l1.0586 2.21485m13.2539-2.77735l-6.96875.91016m6.96875-.91016l1.42188 1.9961m-2.4375-1.86329l.71094.9961m13.60546-1.22656l-6.9414 1.10156m6.9414-1.10156l1.47657 1.96093m-2.48829-1.80078l.7422.98047m13.41015-1.8086l-6.58985 2.4375m6.58985-2.4375l1.83203 1.63282m-2.79297-1.27734l.91797.8164m13.52734-.52344l-6.93359 1.14454m6.9336-1.14454l1.49218 1.94922m-2.5-1.78515l.7461.97656m13.62109-.4375l-7.01953-.26172m7.01953.26172l1.07031 2.20703m-2.08984-2.2461l.53515 1.10548m13.71094-2l-6.83984 1.60546m6.83984-1.60546l1.61719 1.84375m-2.61328-1.61329l.8086.92579m13.17577-2.01563l-6.1914 3.32422m6.1914-3.32422l2.04297 1.36328m10.9414-1.875l-5.52343 4.34375m5.52344-4.34375l2.24219.99219m10.51562-1.55078l-4.41406 5.46484m3.77344-4.67187l1.20312.23437m13.05078-.75781l-5.01172 4.92578m5.01172-4.92578l2.33985.73828m10.69921-.99219l-4.45703 5.4336m4.45703-5.4336l2.40625.48047m-3.05468.3086l1.20312.24218m12.84375-.96093l-4.625 5.28906m4.625-5.28906l2.39063.5625m-3.0625.20703l1.1953.28125m13.48438-.22656l-6.0078 3.64453m6.0078-3.64454l2.10938 1.25391m-2.98438-.72656l1.0547.6289m13.60546.14454l-6.94922 1.04296m6.94922-1.04296l1.46094 1.97265m-2.47266-1.82031l.73047.98438m12.52344 1.94921l-4.80469-5.1289m4.80469 5.1289l-.79297 2.32032m.09375-3.06641l-.39453 1.16016m13.54297.17968l-3.07422-6.3203m3.07422 6.3203l-1.44532 1.98438m1-2.90235l-.72265.9922"/><g clip-path="url(#Y)"><path fill="none" stroke="#000" stroke-linecap="round" stroke-linejoin="round" stroke-miterlimit="10" stroke-width=".5" d="M145.29688 343.91406l-2.59375 6.53125"/></g><path fill="none" stroke="#000" stroke-linecap="round" stroke-linejoin="round" stroke-miterlimit="10" stroke-width=".5" d="M145.29688 343.91406l2.4375-.27344m12.4453 1.50391l-5.73046 4.07031m5.73047-4.0703l2.1914 1.09765m11.59766-.15625l-6.67969 2.1836m6.67969-2.1836l1.76953 1.70312m-2.74219-1.38672l1.76953 1.70313m12.67579-1.27735l-6.9922.69922m6.9922-.69921l1.35937 2.04296m-2.375-1.9414l1.35938 2.04297m-2.37891-1.94141l.67969 1.02344m14.6836-1.01172l-7.01954.26953m7.01953-.26953l1.23828 2.11719m-2.25781-2.07813l1.23438 2.1211m-2.25782-2.08204l.61719 1.0586m14.73438-1.26172l-7.00782.51953m7.00781-.51953l1.3125 2.07422m-2.33203-2l1.3125 2.07422m-2.33203-1.9961l.65625 1.03516m14.70703-.96875l-7.02343.08203m7.02343-.08203l1.17578 2.15625m-2.1953-2.14453l1.17577 2.15625m-2.19922-2.14453l.58594 1.07812m14.77344-1.13281l-7.02734.14453m7.02734-.14453l1.19531 2.14453m-2.21875-2.1211l1.19531 2.14063m-2.21484-2.1211l.59766 1.07032m14.69922-1.6836l-6.90625 1.28516m6.90625-1.28515l1.53125 1.91796m-2.53516-1.73046l1.53125 1.91796m12.42188-3.14453l-6.17188 3.36329m6.17188-3.36329l2.04687 1.35157m-2.94531-.86329l1.02344.67579m12.74609-1.79688l-5.28516 4.6289m5.28516-4.6289l2.29687.8711m11.71485.34765l-6.67578 2.1914m6.67578-2.1914l1.76953 1.70313m11.71875-.64454l-7.02735.07813m7.02735-.07813l1.17578 2.15235m-2.19531-2.14063l.58593 1.07422m13.7422-1.2539l-7.01173.41015m7.01172-.41015l1.27735 2.09765m-2.29688-2.03906l.64063 1.05078m13.5039-2.0625l-6.63281 2.3164m6.63281-2.3164l1.80469 1.66797m-2.76953-1.33203l.90234.83594m13.36328-1.21094l-6.60547 2.39453m6.60547-2.39453l1.82422 1.64453m-2.78515-1.29688l.91406.82422m12.8789-2.0703l-5.63671 4.1914m5.63671-4.1914l2.21875 1.05077m11.38282-.60156l-6.20703 3.29297m5.30078-2.8125l1.01953.6836m13.36719-.79688l-6.54297 2.5625m6.54297-2.5625l1.86328 1.59375m10.9414-2.48828l-5.51953 4.34765m5.51953-4.34765l2.2461.99218m10.63281-1.45312l-4.64453 5.27344m4.64453-5.27344l2.38672.5664m11.36328-.10546l-5.51953 4.34765m5.51953-4.34765l2.2461.98828m-3.04688-.35547l1.1211.49219m13.62109.10156l-6.76954 1.89453m6.76954-1.89453l1.6914 1.77734m11.46875.54688l-6.46094-2.7539m6.46094 2.7539L453.6875 351m12.92187-2.07422l-6.09375-3.4961m6.09375 3.4961l-.07812 2.45313"/><g clip-path="url(#Z)"><path fill="none" stroke="#000" stroke-linecap="round" stroke-linejoin="round" stroke-miterlimit="10" stroke-width=".5" d="M147.40625 333l-6.8125 1.72656"/></g><path fill="none" stroke="#000" stroke-linecap="round" stroke-linejoin="round" stroke-miterlimit="10" stroke-width=".5" d="M147.40625 333l1.64844 1.82031m11.7461-1.38281l-6.97267.85156m6.97266-.85156l1.40625 2.01172m11.32031-3.57422l-5.79297 3.97656m4.94922-3.39844l1.08985.56641m13.5039-.26562l-6.66797 2.21875m6.66797-2.21875l1.77735 1.6914m-2.7461-1.36719l.89063.84375m13.55078.34375l-6.98047-.80468m6.98047.80469l.89453 2.28515m-1.91016-2.40234l.44922 1.14453m13.85547-.84766l-6.92969-1.16406m6.9297 1.16406l.77734 2.32813m-1.78516-2.4961l.77734 2.32422m13.58203-3.03906l-7 .60156m7-.60156l1.33594 2.0586m-2.35547-1.97266l1.33594 2.0586m12.89844-2.73048l-6.80078 1.77344m6.80078-1.77344l1.66016 1.80469m-2.64844-1.54688l1.66015 1.8047m12.60157-2.20313l-6.71875 2.05469m6.71875-2.0547l1.73828 1.73438m-2.71485-1.4336l1.73438 1.73438m12.53516-2.11718L260.5 334.96875m6.67188-2.21484l1.77343 1.6953m-2.7461-1.37108l.88673.84765m13.45703-.97656l-6.78516 1.82422m6.78516-1.82422l1.67578 1.79687m11.73047-.43359l-6.96875-.89844m6.96875.89844l.86719 2.29688m12.38671-3.53516l-6.84765 1.57812m6.84765-1.57812l1.60938 1.85547m11.21094-3.00781l-5.85547 3.8828m5.85547-3.8828l2.15625 1.16796m11.10156-1.25l-5.74219 4.04688m5.74219-4.04688l2.1914 1.10547m-3.02734-.51953l1.09766.55469m12.86719-1.38281l-5.3672 4.53125m5.3672-4.53125l2.27734.91015m-3.0586-.2539l1.14063.45703m13.73828.57031l-6.9336 1.16406m5.92188-.99219l.75.97266M366.84375 334l7.02344-.27344m12.35547-2.28125l-5.10157 4.83594m4.35938-4.13281l1.16015.39062m11.7461-1.89844l-2.80078 6.44532m2.39453-5.50781l1.22265-.09766m14.09375.54687l-5.99218 3.67188m5.1211-3.13672l1.05858.6211m13.39844-.6172l-6.53125 2.59376m6.53125-2.59375l1.8711 1.58984m11.67968-.57813l-7.0039.57032m7.0039-.57031l1.32422 2.0664m11.9336-1.09375l-6.89063-1.375m6.89063 1.375l.70703 2.35156m-1.71094-2.55078l.35547 1.17578m14.01953-1.34765l-7-.63281"/><g clip-path="url(#aa)"><path fill="none" stroke="#000" stroke-linecap="round" stroke-linejoin="round" stroke-miterlimit="10" stroke-width=".5" d="M467.0625 334.17969l.94922 2.26172"/></g><g clip-path="url(#ab)"><path fill="none" stroke="#000" stroke-linecap="round" stroke-linejoin="round" stroke-miterlimit="10" stroke-width=".5" d="M147.2539 319.21875l-6.5078 2.65625"/></g><path fill="none" stroke="#000" stroke-linecap="round" stroke-linejoin="round" stroke-miterlimit="10" stroke-width=".5" d="M147.2539 319.21875l1.88282 1.57031m-2.83203-1.1836l1.88672 1.57032m12.26953-2.19531l-6.28906 3.13672m6.28906-3.13672l1.9961 1.42578m-2.91407-.96875l1 .71094m13.16797-1.28906l-6.16406 3.375m19.71093-.51172l-6.625-2.34766m6.625 2.34766l.36328 2.42578m13.09375-2.95703l-6.91015-1.28516m6.91015 1.28516l.73438 2.33984m-1.73828-2.52734l.36719 1.17187m14.0039-1.41797l-7.01562-.42187m7.01562.42187l1.01953 2.23438m-2.03906-2.29297l1.01953 2.23047m13.23438-3.16406l-6.85157 1.5625m6.85157-1.5625l1.60547 1.85937m-2.60157-1.6289l1.60547 1.85546m12.6914-2.14062l-6.82421 1.67578m6.82422-1.67578l1.63672 1.82812m-2.62891-1.58594l1.63672 1.82813m12.72266-1.82031l-6.92579 1.17578m6.92578-1.17578l1.5 1.9414m-2.5078-1.77343l.75.97265m13.5625-1.20312l-6.90626 1.30078m6.90625-1.30078l1.53125 1.91406m-2.53515-1.72656l.76562.95703m13.53125-1.25781l-6.85937 1.52343m6.85937-1.52343l1.59375 1.86718m-2.59375-1.64453l.79688.9336m13.60156-.34375l-7.02734-.09766m7.02734.09766l1.1211 2.17968m12.1914-2.09765l-7.02344-.26563m7.02344.26563l1.0664 2.21094m12.03126-3.5586l-6.58985 2.4336m6.58985-2.4336l1.83203 1.63281m-2.78907-1.28125l.91407.82032m13.14843-1.63282l-6.17187 3.35547m6.17187-3.35547l2.04688 1.35157m-2.94531-.86329l1.02343.67579m12.92579-1.58204l-5.64063 4.19141m5.64063-4.1914l2.21484 1.05078m-3.03516-.44141l1.10938.52734m12.58203-1.6289l-4.7539 5.17578m4.7539-5.17578l2.375.61328m-3.0664.13672l1.1875.3086m13.76952.39452l-6.65234 2.26953m5.6836-1.9414l.89453.83984m12.76953-2.27344l-5.41407 4.48047m5.41407-4.48047l2.26562.9336m10.27344-1.6289l-3.86328 5.87108m3.86328-5.87109l2.4414.22656m7.9336-.65625l2.01953 6.73047m-1.72656-5.7539l.8711-.85938m13.88671 6.6836l-1.45703-6.875m1.2461 5.875l-.94141.78906m16.6289-1.22656l-5.77734-3.9961m5.77734 3.9961l-.28515 2.4375m14.20312-4.8125l-6.98437.75m6.98437-.75l1.3789 2.03125m-2.39452-1.92188l.6875 1.01563m13.57422-1.53516l-6.84766 1.57031"/><g clip-path="url(#ac)"><path fill="none" stroke="#000" stroke-linecap="round" stroke-linejoin="round" stroke-miterlimit="10" stroke-width=".5" d="M466.98438 319.76172l1.60937 1.85547"/></g><path fill="#00f" fill-rule="evenodd" d="M401.55469 458.77344h8.61719V448.625h-8.6172v10.14844"/><path fill="azure" fill-rule="evenodd" d="M403.38672 450.45703h.83203v2.82422h3.28906v-2.82422h.83203v6.48047h-.83203v-2.91406h-3.28906v2.91406h-.83203v-6.48047"/><path fill="#ff3030" fill-rule="evenodd" d="M335.67188 449.89453h7.6953V439.75h-7.6953v10.14453"/><path fill="azure" fill-rule="evenodd" d="M337.5039 441.58203h.83594v5.73828h3.19141v.74219h-4.02734v-6.48047"/><path fill="#ff3030" fill-rule="evenodd" d="M180.33203 432.14063h7.6914v-10.14454h-7.6914v10.14454"/><path fill="azure" fill-rule="evenodd" d="M182.16406 423.82813h.83203v5.73828h3.19532v.74218h-4.02735v-6.48046"/><path fill="#00f" fill-rule="evenodd" d="M388.23828 432.14063h8.61719v-10.14454h-8.61719v10.14454"/><path fill="azure" fill-rule="evenodd" d="M390.07031 423.82813h.83594v2.82421h3.28516v-2.82421h.83203v6.48046h-.83203v-2.91796h-3.28516v2.91796h-.83594v-6.48046"/><path fill="#00f" fill-rule="evenodd" d="M219.58203 414.38672h8.61719v-10.14453h-8.61719v10.14453"/><path fill="azure" fill-rule="evenodd" d="M221.41406 406.07422h.83203v2.82422h3.28907v-2.82422h.83203v6.48047h-.83203v-2.91406h-3.28907v2.91406h-.83203v-6.48047"/><path fill="#ff3030" fill-rule="evenodd" d="M300.16406 405.51172h7.69531v-10.14453h-7.6953v10.14453"/><path fill="azure" fill-rule="evenodd" d="M302 397.19922h.83203v5.73828h3.19531v.74219H302v-6.48047"/><path fill="#00f" fill-rule="evenodd" d="M366.04688 401.07422h8.61718v-10.14844h-8.61719v10.14844"/><path fill="azure" fill-rule="evenodd" d="M367.8789 392.76172h.83594v2.82031H372v-2.82031h.83203v6.47656H372v-2.91406h-3.28516v2.91406h-.83593v-6.47656"/><path fill="#ff3030" fill-rule="evenodd" d="M424.4414 392.19531h7.69141v-10.14453h-7.6914v10.14453"/><path fill="azure" fill-rule="evenodd" d="M426.27344 383.88281h.83203v5.73828h3.19531v.7422h-4.02734v-6.48048"/><path fill="#ff3030" fill-rule="evenodd" d="M340.10938 378.88281h7.6953v-10.14844h-7.6953v10.14844"/><path fill="azure" fill-rule="evenodd" d="M341.94531 370.5664h.83203v5.7422h3.19532v.73827h-4.02735v-6.48046"/><path fill="#ff3030" fill-rule="evenodd" d="M180.33203 365.5664h7.6914v-10.14452h-7.6914v10.14453"/><path fill="azure" fill-rule="evenodd" d="M182.16406 357.2539h.83203v5.73829h3.19532v.74219h-4.02735v-6.48047"/><path fill="#ffffe0" fill-rule="evenodd" d="M328.42969 351.54297h22.17969v-10.1914h-22.1797v10.1914"/><path fill-rule="evenodd" d="M331.92969 343.1836h.50781v6.29687h-.78516v-4.49219h-1.39062v-.55469l.5586-.0664.2539-.05078.23047-.08985.20312-.14453.17188-.20703.14453-.29688.10547-.39453m4.8125 0l.23047.01954.21875.05468.20703.08985.19531.12109.1836.14844.17187.17578.30469.42187.24218.4922.1797.54687.10937.57812.03906.58985-.03906.59375-.10938.58593-.17969.55469-.24218.5-.3047.42969-.17187.17969-.18359.15234-.19531.125-.20703.08984-.21875.0586-.23047.01953-.23047-.01953-.21875-.0586-.20703-.08984-.19531-.125-.1836-.15235-.17187-.17968-.3047-.42969-.24218-.5-.17969-.55469-.10937-.58594-.03906-.59375h.83203l.02734.56641.08203.5039.1289.44141.16017.375.1914.30079.21094.22265.22265.13672.22657.04688.22656-.04688.22266-.13672.21093-.22265.19141-.30079.16016-.375.1289-.4414.07813-.5039.03125-.56642-.03125-.55859-.07813-.5-.1289-.4375-.16016-.36328-.1914-.29297-.21094-.21484-.22266-.13281-.22656-.04297-.22656.04296-.22266.13282-.21094.21484-.1914.29297-.16016.36328-.1289.4375-.08204.5-.02734.5586h-.83203l.03906-.58985.10937-.57812.1797-.54688.24218-.49219.30469-.42187.17187-.17578.1836-.14844.1953-.1211.20704-.08984.21875-.05469.23047-.01953m5.08984 0h.51172v6.29688h-.78906v-4.49219h-1.38672v-.55469l.5586-.0664.2539-.05078.22656-.08985.20313-.14453.17578-.20703.14062-.29688.10547-.39453m2.82422 2.17579h.78906l.01953-.31641.0586-.28516.09765-.2539.14063-.21485.17969-.17578.22656-.1289.26172-.07813.3086-.02734.23827.01953.22266.0625.20703.10156.17969.14063.14844.17187.11328.20703.0703.23438.02345.26562-.01954.26953-.0664.22266-.10938.1914-.15625.17188-.19921.16406-.25.16406-.63282.39063-.53515.3125-.4375.3164-.34766.32423-.26563.33593-.1875.35156-.125.3711-.0703.39062-.01954.42188h4.21094v-.74219h-3.33203l.08203-.28515.11328-.23438.14844-.20313.1875-.17968.23047-.17188.27734-.17578.71875-.41797.41406-.20312.34766-.23047.28125-.2539.21875-.26563.16406-.27735.10938-.28515.0664-.28516.01953-.28125-.04296-.38281-.1211-.34766-.1875-.3086-.25-.26171-.30469-.21484-.34375-.15625-.3828-.09766-.40626-.03516-.4336.03125-.39843.10157-.35547.16406-.30469.23437-.24609.3047-.1875.375-.11719.4453-.03906.51954"/></g></defs><use xlink:href="#ad"/></svg>