<svg xmlns="http://www.w3.org/2000/svg" role="img" xmlns:xlink="http://www.w3.org/1999/xlink" viewBox="142.45 309.95 326.84 171.84"><defs><clipPath id="a"><path d="M144 311.67188h1v168.65625h-1zm0 0"/></clipPath><clipPath id="b"><path d="M144 311.67188h324v168.65625H144zm0 0"/></clipPath><clipPath id="c"><path d="M387 479h3v1.32813h-3zm0 0"/></clipPath><clipPath id="d"><path d="M467 311.67188h1v168.65625h-1zm0 0"/></clipPath><clipPath id="e"><path d="M144 479h4v1.32813h-4zm0 0"/></clipPath><clipPath id="f"><path d="M146 480h2v.32813h-2zm0 0"/></clipPath><clipPath id="g"><path d="M153 479h9v1.32813h-9zm0 0"/></clipPath><clipPath id="h"><path d="M159 480h2v.32813h-2zm0 0"/></clipPath><clipPath id="i"><path d="M166 479h9v1.32813h-9zm0 0"/></clipPath><clipPath id="j"><path d="M172 480h2v.32813h-2zm0 0"/></clipPath><clipPath id="k"><path d="M180 479h8v1.32813h-8zm0 0"/></clipPath><clipPath id="l"><path d="M187 480h2v.32813h-2zm0 0"/></clipPath><clipPath id="m"><path d="M193 479h9v1.32813h-9zm0 0"/></clipPath><clipPath id="n"><path d="M200 480h2v.32813h-2zm0 0"/></clipPath><clipPath id="o"><path d="M206 480h9v.32813h-9zm0 0"/></clipPath><clipPath id="p"><path d="M213 480h3v.32813h-3zm0 0"/></clipPath><clipPath id="q"><path d="M220 479h8v1.32813h-8zm0 0"/></clipPath><clipPath id="r"><path d="M227 480h2v.32813h-2zm0 0"/></clipPath><clipPath id="s"><path d="M233 479h8v1.32813h-8zm0 0"/></clipPath><clipPath id="t"><path d="M239 480h2v.32813h-2zm0 0"/></clipPath><clipPath id="u"><path d="M247 478h7v2.32813h-7zm0 0"/></clipPath><clipPath id="v"><path d="M260 478h8v2.32813h-8zm0 0"/></clipPath><clipPath id="w"><path d="M273 478h8v2.32813h-8zm0 0"/></clipPath><clipPath id="x"><path d="M286 478h8v2.32813h-8zm0 0"/></clipPath><clipPath id="y"><path d="M300 479h8v1.32813h-8zm0 0"/></clipPath><clipPath id="z"><path d="M306 480h1v.32813h-1zm0 0"/></clipPath><clipPath id="A"><path d="M313 479h8v1.32813h-8zm0 0"/></clipPath><clipPath id="B"><path d="M320 479h3v1.32813h-3zm0 0"/></clipPath><clipPath id="C"><path d="M326 479h9v1.32813h-9zm0 0"/></clipPath><clipPath id="D"><path d="M333 479h3v1.32813h-3zm0 0"/></clipPath><clipPath id="E"><path d="M340 478h8v2.32813h-8zm0 0"/></clipPath><clipPath id="F"><path d="M353 479h8v1.32813h-8zm0 0"/></clipPath><clipPath id="G"><path d="M359 480h2v.32813h-2zm0 0"/></clipPath><clipPath id="H"><path d="M368 477h5v3.32813h-5zm0 0"/></clipPath><clipPath id="I"><path d="M380 477h7v3.32813h-7zm0 0"/></clipPath><clipPath id="J"><path d="M394 477h6v3.32813h-6zm0 0"/></clipPath><clipPath id="K"><path d="M410 476h1v4.32813h-1zm0 0"/></clipPath><clipPath id="L"><path d="M423 476h1v4.32813h-1zm0 0"/></clipPath><clipPath id="M"><path d="M435 476h3v4.32813h-3zm0 0"/></clipPath><clipPath id="N"><path d="M447 477h6v3.32813h-6zm0 0"/></clipPath><clipPath id="O"><path d="M461 477h5v3.32813h-5zm0 0"/></clipPath><clipPath id="P"><path d="M144 466h4v2h-4zm0 0"/></clipPath><clipPath id="Q"><path d="M144 453h4v1h-4zm0 0"/></clipPath><clipPath id="R"><path d="M144 439h4v2h-4zm0 0"/></clipPath><clipPath id="S"><path d="M144 426h4v2h-4zm0 0"/></clipPath><clipPath id="T"><path d="M144 412h4v4h-4zm0 0"/></clipPath><clipPath id="U"><path d="M144 398h4v5h-4zm0 0"/></clipPath><clipPath id="V"><path d="M144 384h3v7h-3zm0 0"/></clipPath><clipPath id="W"><path d="M144 370h3v7h-3zm0 0"/></clipPath><clipPath id="X"><path d="M144 356h2v9h-2zm0 0"/></clipPath><clipPath id="Y"><path d="M144 343h1v8h-1zm0 0"/></clipPath><clipPath id="Z"><path d="M144 342h3v2h-3zm0 0"/></clipPath><clipPath id="aa"><path d="M144 332h4v4h-4zm0 0"/></clipPath><clipPath id="ab"><path d="M466 333h2v4h-2zm0 0"/></clipPath><clipPath id="ac"><path d="M144 318h4v5h-4zm0 0"/></clipPath><clipPath id="ad"><path d="M466 319h2v3h-2zm0 0"/></clipPath><g id="ae" clip-path="url(#clip1)"><path fill="#fff" fill-opacity="0" fill-rule="evenodd" d="M0 0h1000v1000H0zm0 0"/><path fill="#d3d3d3" fill-opacity="0" fill-rule="evenodd" d="M162.15234 355.86719l-.23437.29297.0586.23437.11718.17188.17578.23437.29297.34766.11328.0586.11719-.17188.0586-.23438.17577-.17578.46485-.17578h.69922l.23437.29297.28906.8164.0586.17579.17578.23046.35156.23438.69922.69922.17188.17578.23437.34765.23438.41016.28906.58203.41015.46485.23047.23437.23438.17578.11719.23047.17578.29297.17187 1.16406v.23438l.0586.28906.05859.11719.11719.11719.34765.41015.11719.17188.17578.17578.17578.23437.11719.17188.17188.35156.05859.23438.23437.40625.23438-.0586-.17578.17578-.0586.92969h-.58203l-.23437-.11328-.34766.11328-.11719.11719-.05859.29297-.0586.17578-.11718.17187-.46484.29297-.0586.23438-.0586.11328v.64453l.0586.17187v.41016l.0586.0586v.40624l.05859.40625.11719.17579.05859.05859.23047.64062-.0586.29297v.69922l-.05859.58203v.23438l-.0586.23047-.05468.35156v1.92187l.05469.1172h.42578l-.36719.11718-.02344.35156.89063 1.16797 1.74219.53906 1.33984.35938v.53906l.08984.8086.53516.71484 1.51953.26953.89063-.08594.08984 1.16406.53516.1797 1.16015-.1797 2.05469-.98437 1.16016-.36328 1.8789-.17578 1.69531-.1797-.17968.71876-1.51563.08594-1.25.08984-.80469.26953-1.07421.8086.26953.71875.53515.89843-.17968.625-.26563.8086.26563 1.07812.625.89844.80468.17969 1.25-.1797-.26562.72267.09766.5039.05468.29297v.17188l.0586.29296v.40625l.17578.1172.35156.11718h.40625l.29297-.17578.11328-.11719.0586-.11719.11718-.23047.0586-.17578.35156-.46484.23047-.17578.17578-.0586.17578.0586.0586.17578.11718.98828.05469.46875.0586.17188.11718.23437.17578.0586.8164.05859h.28907l.11719.23437.05859.40625.0586.35156v1.10547l.11718.29297.11719.34766.28906.69922.17578.35156.58203.7539.35157.17579.17187.0586.46875.23437.64063.46484.34765.23438.29297.17578.29297.05468.23047.0625.8164.34766.29297.17578.11328.17188.35157.35156.11719.17578.52343.64063v.28906l.0586.35156v.34766l.05859.35156.0586.28906.11718.0586.17188.05859h.17578l.58203.23437.17578.1172.17578.28905.17578.23438.11328.23437.29297.23047.11719.11719v.41016l.0586.05468.28906.23438.23437.11719.0586.11718.11718.17188.0586.11719.23047.23437.05859.17578.23437.0586.1172.05859-.1172.11328-.05859.11719v.11719l-.11719.29296-.11719.28907v.58203l.17579.11719.11718.05859.0586.11719.11719.11719.11328.05859.17578.34765.0586.35157.05858.40625v.17578l-.05859.17578-.11719.69922v.17187l.1172.17579.29296.29296h.40625l.17578.1172.11719.17187.11719.29296v.23438h-.52735l-.23047-.23438h-.23437l-.17578.0586-.0586.69922.0586.34765.11719.17579.17578.41015.11718.23047.28907.46875.17578.05469h.52344l.23437.0586.75781.64062.0586.29296v.23438l.05859.0586.23047.34765v.35156l-.11719.17188v.29297l.29297.28906.29297.17578.17187.0586.29297.17577.29297.1172.58203.40624.28906.23438.29297.17578.21875.16015.01563.01172.23047.17579.64062.52343.17578.23438.1172.17578.17577.17578.11328.17188v.64062l.1172.17578.46874.11719.58203.11719.23438.05859.23047.11328.29297.11719.11328.0586.58593.35156.28907.17187.17578.0625.17578.05469.17578.0586.69922.35155.28906.17579.23438.05468.28906.17578.23437.1172.64063.40624.29297.11719.17187.0586.23438.05859.41015.05859.23047.0586.23438.11718.0586.17188-.41017.17578.46875.0586.0586.29296.11328.23438.17578.05468.23438.0586.17578.05859.40625.11719.64062.23437.11719.17188.0586.23437v.17578l-.0586.1172-.0586.40624.23438.23438.11719.05859.34766.11719.64062.23047.17578.11718.28906.1172.17578.17577.23438.46485.58203 1.10546.17578.17579.34766.17578.17578.11719.35156.11718 1.04688.52344.23437.0586.46485.11327.29297.0586.46484.17578.75781.58203.23438.23438.34765.46484.17578.17578.28907.23438.8164.69921.29297.17579.28906.28906.29297.17578.29297.28906.69531.64063.17578.17578.29297.23437.28907.23438.46875.28906.64062.58203.34766.23438.23437.29297.34766.34765.35156.46485.9336.99218.34765.40625.11719.17579.23437.05859.11328.11719.64454.17578.23047.11328.23437.0586.29297.17577.23047.1172.9336.69921.40624.40625.23438.17578.40625.17578.23437.11719.8164.34766.34766.23437.23438.11719.29297.28906.23047.11719.7578.35156.35157.17188.23047.05859.29297.11719.23437.0586.8711.17577h.8164l.46875.23047.17188.0586.875.69921.46484.1172.29297.05858.17578.0586.23047.0586.46875.05859.34766.05859.35156.0586.40625.05859h.29297l.17187.0586v.23046l.17578.17578h.29297l.34766.0586.35156.05859.69922.11719h.64063l.46484-.23438.29297-.17578.17187-.11719.41016-.17187.28906-.17578.9336-.46485.46875-.29297.52343-.29296.46485-.17188.46484-.17578 1.05078-.46485.28906-.11718.41016-.11719.28906-.11719.52735-.17578 1.51562-.69922.58203-.34765.28907-.0586.29297-.0586.34765-.11718.875-.23047.35156-.11719h.11329l.23437-.05859.875-.23437.23438-.0586h.8125l.35156-.0586.8164-.11718.17188-.0586.35156-.05468.29297-.0586.23047-.05859.8164-.17578.17579-.0586h.34765l.23438-.05859.46484-.11718.75781-.17188.23438-.0586h.34765l.41016-.11718.28906-.0586 1.28516-.05859h.28906l.41016-.0586.23047-.05858h.17578l.875-.1172h.40625l.41015-.11718h.34766l.35156-.11328.8711-.0586h1.75l1.04687.28907.41016.11719.28906.11718.35156.11719.28907.11719 1.05078.17187.28906.0586h.29297l.29297.05859.17187.0586.41016.05859.17187.0586.1172.05858h.11718l.11719.0586.35156.0586h.11328l.41016.0664 1.92187.39453 1.92578.39453 1.51953.44922 1.69532.71875 2.14453.80469 1.60547-.71875 1.42968-.80469 1.16016-1.07813 1.25-.44921 3.03516-.71875 1.875-.35938 2.14453-1.34765 2.23437-1.25391 2.5-1.25781 1.69531-.44922 1.78516-.17969 1.16016-.26953.625.53906 1.33984-.26953.71485-.98828.98437-1.34375.44531-.17969.80469-.35937 1.875-.53907 1.78516-.44921 1.25-.26954 1.16015-.08984 1.69922-.08984 1.96094-.26954 1.25-.08984h.53906l.625-.08984h.89063l2.14453-.17969 2.41015-.17969 2.58985-.08984 1.69531.17969 1.60938.08984 1.42968.35938 1.16016.71875 1.875.98828 1.16015 1.52734.26563.71484.6289.08985.35548.89844.53515.53906.53516 1.52734 1.07422.35938h.53515l-.80469.53515.08985 1.70703.71484 2.69532.89063.80468.89453.98829.71484 1.2578 1.78516.53907 1.51953-.17969.35547 1.34375 1.60937-.80469.98047-.53906.26953.26953.31641-.21484.21875-.14453.80078.44922.44922-.35938h.35547l.53515-.26953.53907-.71875.53515-.26953.625-.98828 1.16016.44922.83984.3711 1.39454.61718 1.6953-.17969h1.60548l1.78515.08985.17969-1.70704.53516-1.34375.80468.26954.4922.84765.40233.40625-.08984.53906v.35938l.71485.44922.71093-.26953h1.42969l.35938.98828.4453 1.25781.71485 1.34375 1.25.6289 1.69531.62891.71485-.17969.17969-.53906.98046-.08984.44922.35937.08594 1.25782-.26563.6289-.53515.17969v.53906l.71484.98438.26563.53906.98437.98828.80078 1.07813-.26562.35937-.08985.89844-.625 2.33203-.35546 2.0664-.08985 1.79298-.17969.71875-.08984.53906v1.4375l-.98047 1.88281-.35937 1.70703-.53516.89844-.80469 1.16797-.26562.53906 2.05469 1.2539.08593.35938-.35546.53906-.08985-.17968v.80859l.08985 1.4375-.44532.71484-1.07422.09375-.26562.71485.53515.89844.8047.71875 1.16015.80859 1.33984.26953.44531.35938-.35546.44921-1.78907-.08984-1.25-.44922-.71484-.71875-.625-.08984-.17578 3.58984-.1875 1.3086h89.35937V311.70313h-55.26953v49.08203l.76172.125 3.28906.54296 2.02344 2.83594v2.7539l2.35156.33204 2.34766.33203h4.05078l-1.3789 4.16016-2.02344.70703-2.02344.70312-.54297.34375-2.59375 1.6172-.1875.11718-2.02344-2.07813-.73046-2.74218-2.67188-2.07813-1.375-3.5-.0664-.08203-1.95704-2.67188 2.75-1.41796v-49.08204H294.42187v91.41407l.1172.03125.1328.01172.07422.07421.10547.04688.08985.0586.08593.05859.08985.0586.29687.29687.0586.08984.03125.11719.02734.11719.01563.13671-.03125.1172-.0586.08983-.0586.08594-.04296.10547-.04688.10156-.02734.1211v.14453l.17578.26953.14844.14844.07422.08594.07422.07421.04296.10547.0625.08985.0586.08593.04297.10547.0586.08985.04687.10156.04296.10547.0586.08594.11719.17968.07421.07422.0625.08594.0586.08984.04297.10547.0586.08985.05858.08593.0625.08985.0586.08984.04297.10156.11719.17969.07421.07422.0586.08594.07422.07421.08984.0586.10547.04687h.14844l.1328-.01562.13282.01562.10156-.04687.07422-.07422.04688-.10156-.01563-.13281v-.14844l-.04687-.10547-.02735-.11719-.04687-.10156-.02735-.1211-.04296-.10156-.0625-.08984-.04297-.10156-.04297-.10547-.03125-.11719-.01563-.13281-.01171-.13672.08593-.0586.0586-.08593.12109-.03125.04297.10547.01562.1328v.1172l.0586.10156.0586.08984.08983.0586.14844.14843.0586.08985.04296.10547-.01171.10156.08593.0586.10547.04687.08594.0586.08984.05858.07422.07422-.11719.02735-.10546.04687-.08594.0586-.07422.07421-.0586.08985-.0625.08594-.02734.12109-.04687.10156-.04297.10547-.03125.11719-.01172.13281-.01563.13281v.14844l.02735.11719.04687.10547.04297.10156.0586.08984.07421.07422.08985.0586.07422.07421.08984.0586.0586.08984.04296.10547.04688.10156.11719.03125.1328.01563h.14845l.11718-.03125.10547.04297.04297.10547.04688.10156.02734.1211L299.5 410l.02734.11719.03125.1211.02735.11718.10547.04297.10156.04687.13281-.01562.14844.14844.0625.08593.07422.07422.07031.07422.08984.0625.10547.04297.10156.04297.1172.03125.13671.01562.11719-.03125.07422-.07422.02734-.11718-.01172-.13282-.03125-.12109-.02734-.11719.04297-.10547h.11719l.08984.0625.11719.02735h.14843l.13282.01562h.14843l.13282.01563.1328-.01563h.14845l.1328-.01562.13282-.01172.13672.01172.11719-.02735.13281-.01562.1914-.0586-.05859.17579-.01562.1328-.02735.1211-.01562.13281-.0586.08594-.1328.01563-.10548.04687-.10546.04297-.1172.03125-.11718.02735-.26563.03125h-.14843l-.13281.01562-.07422.07422.05859.08594.14844.14843.11719.1797.07421.0703.08985.0625.08984.0586.08594.0586.08984.05858.10156.04297.10547.0625.10547.04297.08594.0586.10547.04687.10156.04297.17969.11719.0586.08984-.04298.10156-.04687.10547.01562.13281.22266.22266.0586.08985.04296.10156.03125.1211.04297.10155.01563.13282.03125.11718.01171.13672.03125.11719.14844.14844.10156.04297.10547.04296.1172.03125.1328.01563.13672.01563h.11719l.11719-.03125.08984-.0586.04297-.10547.04688-.10156.04296-.10547.03125-.11719.01172-.1328v-.14845l-.01172-.1328-.01562-.13282-.03125-.11719-.04297-.10547-.04688-.10547-.04296-.10156-.04297-.10547-.01563-.13281.01563-.13281.02734-.11719.03125-.11719.02735-.1211.04687-.10155.08984-.0586.08594-.0625.07422-.07422.08984-.05859.22266-.22266.0586-.08593.07421-.07422.11719-.17969.0586-.08594v-.14844l-.07423-.07421-.10156-.04688-.10547-.04297-.10156-.04297-.0586-.08984-.04687-.10547-.02734-.11719.08984-.05859.11719-.03125.10156-.04297.17969-.11719.14844-.14843.01172-.13282-.01172-.10546-.08985-.0586-.1328.01563h-.14845l-.1328.01562-.13282-.01562-.1211-.03125-.08593-.0586-.07422-.07422-.0586-.08984-.0625-.08594-.11718-.17969-.0586-.08593.03125-.1211.08594-.05859.1211-.03125.05859-.08594v-.1211l-.03125-.11718-.0586-.08984-.05859-.08594-.04687-.10547-.02735-.11719-.01562-.1328.0586-.08985.07421-.07422.08984-.0586.1172-.17968.07421-.07422.0586-.08594.14843-.14844.1211-.03125.1328-.01562.13282.01562.07422.07422.04297.10547.01562.13281-.03125.1172-.11719.03124-.1328.01172-.14844.14844-.04297.10547-.04688.10156-.02734.1211-.03125.11718v.14844l.03125.11719.04297.10546.05859.08985.07422.07031.07422.07422.11719.03125.12109.02734.11719-.02734.1328-.01563h.1172l.08984.0586.07422.07422.04687.10546.0586.08594.10156.04688.13281.01562.10547.04297.08594.0586-.01172.10546-.07422.07422-.17969.11719-.05859.08984-.08984.0586-.07032.07422-.07421.07421-.0625.08985-.02735.11719-.01562.1328.01562.13282-.01562.13281v.14844l.01562.13281.02735.1172.03125.12108.07421.07422.08985.0586.08594.0586.08984.05858.11719.03125v.08594l-.10157.04688-.08984.0586-.26563.03124-.11718.02735h-.14844l-.10547.04296-.10156.04688-.0586.08984-.0625.23438-.01171.13281-.03125.1211-.01563.1328v.29298l-.01172.1328.01172.13673.01563.1328.1328.01563.13282.01172.1211.03125.08593.0586.07422.07421.04688.10547.04296.10157.01563.1328v.44532l-.01563.13281v.44532l.03125.26562.02735.11719.01562.13281.03125.11719.08594.21094.03125.26562v.14844l-.03125.11719-.02734.11718-.03125.1211-.02735.11719-.03125.11718-.03125.1211-.01171.1328-.01563.13282.08984.0586.1172-.03125.10155.01562.04688.10547-.03125.26562v.44141l-.04297.10547-.04688.10547-.04296.10156-.04297.10547-.0586.08594-.03125.12109-.04296.11719-.03125.11719-.01563.1328.01563.13282.05859.08984.10547.04688.08594.0586.05859.08593-.01172.13672-.03125.11719-.04297.10156v.44531l-.01562.13281v.14844l-.03125.11719-.04297.10547-.02735.11719-.04687.10546-.04297.10157-.03125.12109-.02734.11719-.03125.13281-.03125.11719-.02735.11719-.04297.10546-.03125.1172-.03125.12108-.01171.13282-.01563.13281v.29688l.02734.11718v.14844l.04688.39844.02734.11719.0586.08984.12109.03125h.14844l.13281-.01563.0586.08985v.11719l-.0586.08984-.08984.0586-.10157.04296-.10546.04688-.08985.05859-.08594.0586-.13671.01562-.1172-.03125-.1328-.01563-.10157.04688-.0625.08594-.01172.13671-.01562.13282-.03125.11719-.02735.11718-.01562.13281-.03125.1211v.29687l.01563.13282.03125.11718v.14844l.01171.13281v.14844l-.02734.11719-.04688.10156-.02734.1211-.03125.11718-.0586.08985-.07421.07421-.10156.04297-.10547.04688-.11719.02734-.1211.03125-.10156-.04687.0586-.08594.10547-.04688.02734-.11718.03125-.11719.02734-.1211.03125-.11718v-.14844l.01563-.13281-.03125-.11719-.04297-.10547-.10547.01563-.07422.07422-.10156.04296-.08984.0625-.07422.07422-.04297.10157-.01563.1328-.03125.1172L304.25 426l-.03125.11719-.02734.11719-.03125.12109-.02735.11719-.03125.11718-.04297.10547-.08984.0586h-.08984l-.1172-.03125-.03124-.08594.01562-.13672-.03125-.11719v-.14844l-.01171-.1328v-.14844l-.0625-.23438-.02735-.1211-.04297-.10156-.04687-.10546-.0586-.08594-.05859-.08985-.04297-.10546-.0625-.08594-.14844-.14844-.0703-.07422-.10548-.04687-.10547-.04297-.10156-.04297-.29687-.29688-.08985-.07421-.08594-.0586-.10546-.04297-.08985-.0625-.08594-.0586-.10546-.04296-.08985-.0586-.08594-.0625-.07421-.0703-.10547-.04688-.08594-.0586-.10547-.04296-.08984-.0625-.10156-.04297-.10547-.04297-.08594-.0586-.10547-.04687-.10547-.04297-.10156-.04687-.08985-.0586-.10156-.04297-.10547-.04296-.08984-.0625-.11719-.02735-.13281-.01562-.13281.01562H299.75l-.13281.01563-.11719-.03125-.08984-.0586-.07422-.07422-.08985-.05859-.10156-.04688h-.14844l-.12109-.02734-.10156-.04297-.07422-.07422-.11719-.17968-.08984-.0586-.10156-.04297-.08985-.0625-.10547-.04296-.08984-.0586-.08594-.0586-.10547-.04687-.0586-.08594-.05858-.08984-.04297-.10547-.04688-.10156-.07422-.07422-.08594-.0586-.07421-.07421-.08985-.0586-.22265-.22265-.04297-.10547-.03125-.26563.10547-.04296h.14453l.10547.04296.07421.07422.08985.0586.08594.0586.10546.04687.08985.05859.14844.14844.0703.07422.14845.14843.0625.08594.07421.07422.08594.0586.07422.07421.08985.0625.08984.0586.08594.05859.26953.17578.10156.04688.10547.04296.10156.04297.04688-.07421.05859-.08594.07422-.07422.07031-.07422.10547.04297.07422.07422.0586.08984.04296.10156.04688.10547.04296.10547.1211.02735.11719-.02735.07421-.08984.04297-.10547.0586-.08985.07422-.07421.10546-.04297.1172-.02735.1328.01172.08985.0586.14844.14843.05859.08985.04297.10547.04687.10156.04297.10547.04297.10156.10547.04688.10547.04296.13281.01563.08594-.0586.0586-.08984.07421-.07422.10547-.04297.11719.02735.10547.04687.10156.04297.10547.04297.10156.04688.17969.11718v.11719l-.01563.13281.01563.13281.01562.13672.0586.08594.10156.04688.1211.02734.11718.03125h.14844l.11719-.03125.05859-.08984.17969-.1172.05859-.08983.07422-.07422.0586-.08594.11718-.17969.17969-.11719.11719.03125.08984.0586.04297.07422-.01563.1328v.1172l.08985.05859h.14843l.13282-.01563.1328-.01171.26563-.03125.10547-.04297.11719-.03125.1211-.02735.07421-.07421.07031-.07422.0625-.08985-.01562-.10547-.04688-.10156-.10156-.04297-.10547-.01562-.11718.02734-.26563.03125h-.14844l-.07421-.07422-.08985-.0586-.11719-.03124-.11718-.02735-.13282-.01562h-.14843l-.13282.01563h-.29687l-.10547-.04688-.14844-.14844-.04297-.10156-.05859-.08984.22266-.22266.08593-.0586.10547-.04296.11719-.03125.13281-.01563.13281.01563.13672.01562.10157.04297.1328-.01172.08985-.0625.10156-.04297.0625-.08984-.04687-.10156-.08984-.0586-.1172-.03125-.10155-.04296-.0586-.08985-.0625-.08984v-.11719l.01563-.13281.10547-.04688.07421-.07031v-.1211l-.08984-.05859-.03125-.11719.08985-.05859.07421-.07422.04297-.10547.0586-.08984.04687-.10156.01563-.13281v-.14844l-.04688-.10547-.04297-.10156-.08984-.0586-.13281-.01562-.10157-.04297-.13671-.01563-.1172-.03125h-.4453l-.13282-.01562-.13281-.01172-.13281-.01563-.11719-.03125h-.14844l-.13281-.01562-.13281-.01172-.26563-.03125-.1211-.04297-.08593-.0586-.07422-.07421v-.14844l.01172-.13281.10547-.04688.10156-.04296.13281-.01563h.15235l.13281-.01562h.29297l.1211.03125.10156.04296.08984.0586.23438.0625.12109-.04688.08984-.05859.10156-.04297.13282-.01562.10547.04296.10156.04688.13281.01172.1211-.02735h.14453l.12109-.03125.11719-.02734.10547-.04687.07421-.07422.08594-.0586.14844-.14843.0586-.08594.04687-.10547.02734-.11719.01563-.10547-.10156-.04296-.08985-.0586-.11719-.03125-.10546-.04297-.08985-.0625-.07422-.08594-.07422-.07421-.10156-.04297-.10547-.04688-.10156-.04297-.0586-.08984-.04687-.10156-.08594-.21094-.0625-.08594-.05859-.08984-.07422-.07422-.08594-.0586h-.26953l-.11719.03126-.08984.05859-.10156.04297-.13281.01562-.10547-.01562-.02735-.11719-.0625-.08984-.11718-.03125-.10157-.04297-.14843-.14844-.03125-.11719-.01563-.10546.07422-.07422.17969-.1172.11719-.02733.11718-.03125.13672.01562.10156.04297.10547.04297.10156.04687.10547.04297.1172.03125.1328.01563.1172.02734.1328.01563.10547-.01563.08985-.0586-.07422-.07421-.10547-.04297-.07422-.07422-.07422-.08984-.14844-.14844-.08593-.0586-.08985-.05859-.07422-.07422-.08984-.0586-.10156-.04687-.1211-.02734-.10156-.04688-.10547-.04296-.11719-.03125-.10156-.04297-.1211-.03125h-.14843l-.11719.03125-.10546.04297-.08594.0625-.17969.11718-.08594.0586-.08984.0586-.10547.04687-.08594.05859-.10547.04297-.10156.04297-.10547.04687-.07422.07422-.05859.08985-.0586.08593-.04687.10547-.0586.08594-.07421.07422-.13281-.01172-.1172-.03125h-.11718l-.07422.07422-.08984.0586-.07422.07421-.08984.0586-.08594.05859-.10547.04687-.10156.04297-.13672.01563-.10156-.04297-.14844-.14844-.10547-.04688h-.08594l-.10547.04688-.10156.04297-.1211.03125-.11718-.03125-.07422-.07422v-.11719l.03125-.1211.07422-.0703.0586-.08985.07421-.07422.11719-.03125.10547-.04296h.29297l.13281-.01563.13672-.01563.10156-.04296.08985-.0586.10156-.04687.08984-.0586.13281-.01171.08985.05859.13281.01172.08984-.0586.08594-.05859.10547-.04297.08984-.0586.08594-.0625.08985-.05859.14843-.14843.0586-.08594.05859-.08985.10547-.04296.13281-.01563.11719.02735.1211.03125.05859-.0586.05859-.08984.03125-.26563.02734-.11719.10547.01172.13281.01563.10157-.04297.08984-.0586.0586-.08984.07421-.07422.0586-.08984.04687-.10156.01172-.13281-.01172-.13282-.04687-.10547-.14844-.14843-.0586-.08985-.05859-.08594-.04297-.10546v-.44532l.01563-.1328v-.14845l.01172-.1328-.0586-.0586-.08984.0586-.10156-.04298-.17969-.11719-.08594-.05859-.0625-.08984-.0586-.08985-.07421-.07421-.08594-.0586-.1211.03125-.10155.01172-.10547.04688-.08594.05859-.10547.04297-.14844.14844-.08984.05859-.08594.0586-.08984.0625-.10547.04296-.13281.01563v-.1211l.10547-.04297.11718-.03125.07422-.0703.04297-.10548v-.14844l-.02734-.11718-.14844-.14844-.13281-.01563h-.14844l-.11719.03125-.10547.04297-.10156.04297-.08984.0625-.11719.02735-.07422-.07422.01172-.13281-.04297-.10157-.04297-.10547-.08984-.05859-.11719.02734-.1211.03125-.11718.03125-.10156.04297-.1211.03125-.10156.04297-.10547.04297-.08984.0586-.10156.01562v-.11719l.01562-.13281-.0586-.08985-.07421.04297-.14844.14844-.0586.08985-.07421.07421-.04688.10547-.04296.10156-.07422.07422-.0586.08985-.07422.07422-.05859.08593-.07422.07422-.08984.0625-.07422.07031-.07422.07422-.10156.01563-.13281.01562-.10547-.04296v-.1211l.14843-.14844.04297-.10156.0586-.08984.04687-.10156.04297-.10547.0586-.08985.03124-.11719.04297-.10156.03125-.1211.02735-.11718.04687-.10547.04297-.10156.04297-.10547.07422-.07031.08984-.0625.08985-.0586.10156-.04296h.29687l.26563-.03125.10547-.04297-.07422-.07422-.11719-.03125-.10547-.04297-.08984-.0586-.10156-.04687-.08985-.0586-.10156-.04296-.10547-.04297-.08984-.0625-.08594-.0586-.10547-.04296-.10156-.04297-.1211-.03125-.11718-.03125-.10157-.04297L297.5 410.25l-.10156-.04297-.08985-.0586-.04296-.10546-.01563-.13281.10156-.04297.13281-.01563.13672.01563.13282-.01563.10156-.04297.0586-.08984.01562-.10547-.08985-.0586-.07421-.07421-.10157-.04297-.08984-.0586-.14844-.14843-.04297-.10547-.01562-.13281v-.29297l-.0586-.08985-.08984-.05859-.07422-.07422-.04297-.10547-.03125-.11718-.0586-.08985-.07421-.07422-.11719-.02734-.07422-.07422-.08984-.0586-.08984-.0625-.08594-.05859-.07422-.07421-.0586-.08594-.04687-.10547-.08594-.0586-.14843-.14843-.19532-.0586-.1328.01563-.10157.04297-.07422.07422-.04688.10156-.04296.10547-.0586.08984-.0586.08594-.29687.29687-.08984.0586h-.08594l-.0625-.08594-.04297-.10547.03125-.11719.0586-.08984.02734-.11719-.01172-.13281-.08984-.0625-.10547.04688-.11719.02734-.11719.03125-.26953.17578-.10156.04688-.11719.02734-.10546.04687-.08985.0586-.10156.04297-.0586-.08594-.04687-.10547.01563-.13281.04687-.10547.07031-.07422.07422-.07031.0586-.08985v-.14843l-.04297-.10547h-.23829l-.10156.04687-.03125.11719-.02734.11719-.03125.1211-.07422.04296-.13281.01563-.07422-.04688-.04297-.10156-.04297-.10547-.04687-.10156-.04297-.10547-.1211.03125-.10156.04297-.13281.01562-.11719.03125-.10547.04297-.08984.0586-.10156.04687-.1211.02734-.13281.01563-.10156-.04297-.0586-.08985-.04687-.10546-.04297-.10157-.04297-.10546v-.1172l.0586-.08984.08593-.05859.17969-.11719.10156-.04687.10547-.04297.10547-.0586.10156-.04296.08985-.0625.10156-.04297.10547-.0586.10156-.04687.08984-.0586.10547-.04296.10156-.04297.08985-.0625.10156-.04297.13672-.01563.11719.03125.10156.04297.1211.03125.10156.04297.10546.04688.10157.04296.10547.04297.10156.04688.10547.04297.10156.04297.10547.04687.08594.0586.10546.04296.1172.03125.10546.04297.10156.04688.08985.0586.10547.04296.10156.04297.10547.04687.11719.02735.10156.04687.1211.02735h.14843l.08594-.0586.01562-.10156.0586-.08984-.02735-.1172-.07422-.07421-.11719-.17969-.07421-.07422-.08985-.07421-.17969-.1172-.08593-.05859-.10547-.04296-.10156-.04688-.26954-.17578-.05859-.08985-.07422-.07421-.0586-.08985-.04296-.10156-.03125-.11719-.01563-.13672v-.5625l-.01171-.1328-.01563-.13282-.03125-.11719-.01562-.13281-.01172-.13281-.03125-.1211-.22266-.22265-.0586-.08594-.01562-.10547.03125-.11719.13281-.01562v-91.41406H172.9922v1.45312l-.0586.23438-.35156 1.05078-.17187.52343-.1172.34766-.17577.41016-.11719.17187-.23438.29297-.23046.0586h-.35157l-.11718.05859-.23047.40625v.29297l.11719.17578.23046.23047.1172.23437.64062.75781.29297.46485.17578.23437.23047.35156.23437.34766.64063.8164.17578.46485.17187.41016.11719.69531.17578.46875.11719 1.39844.0586.46484v.875l.11718 1.04688v4.78125l-.0586.46484-.35156 1.28125-.17578.52344-.11328.41015-.35156.9297L172.93359 336l-.23437.58203-.11719.17578-.17187.34766-.17578.40625-.35157.8164-.0586.29297-.11327.29297-.11719.28906-.0586.17579-.11718.875-.0586.40625-.05859.11718-.0586.17579-.05859.17187-.23047.52734-.11718.17188v.23437l-.11719.23438-.0586.17187-.17577.58594v.28906l-.0586.17579v.29296l-.0586.11329-.05859.52734v.17187l-.05468.23438v2.6211l-.17578.8164-.1172.17578-.17577.23438-.1172.17187-.11327.23438-.58594.93359-.23047.28906-.29297.46485-.17578.23437-.28906.35156-.35156.69922-.11328.23047-.17579.41016-.17578.23046-.40625.52735-.8164.69922-.29297.17187-.28906.23438-.17579.11719-.17578.17578-.52344.40625-.52734.17578-.17187.17578-.23438.05469-.64062.17578h-.75782m12.21094 31.02344l-1.07422.44921.35938.89454 1.25-.71485.44531-.53906-.98047-.08985"/><path fill="#d3d3d3" fill-opacity="0" fill-rule="evenodd" d="M201.50781 416.59766h-.89453l.44922.6289.98047.35938.80469-.08985.4453-.98828-.17577.08985-.71485-.35547-.89453.35547m154.6211 59.0703l-.0586-.52343v-.29297l.11328-.29297.0586-.23046.46875-.46875h.11328l.11719-.11329.11718-.05859h.17579l.23437-.0586h.34766l.23437.0586.11719.0586.23047.17187.0586.17578.11718.58203v.29297l-.11719.17578-.17187.28906-.17579.17579-.52734.52343-.23047.23438-.11719.0586h-.17578l-.11718-.0586-.40625-.29297-.17579-.11719-.11718-.0586-.0586-.11327-.05468-.1172m6.64062-10.95702l-.0586-.17188v-1.10937l.0586-.17188.17578-.0586.17188-.05858h.17578l.23437-.0586.1172.0586.05858.69921-.05859.17188-.11719.17578-.11718.0586-.23438.52343-.11328.0586h-.23438l-.05859-.1172m9.61328-14.39062l-.11719-.17578v-.69922l.29297-.875.1172-.17187.17577-.35156.11328-.23047.1172-.29297.35155-.75781.1172-.23047.17187-.23438h.17578l.11719-.0586h.64062l.11719.0586.23437.23438.17188.11328.35156.29297.11719.11718.11328.17579v.11328l.11719.05859.11718.11719v.69922l-.05859.17578v.23047l-.0586.17578-.34765 1.05078-.11719.23047-.11719.23437-.11718.0586-.23047.23437-.64063.28906h-.875l-.41015-.11718-.64063-.46485"/><path fill="none" stroke="#bebebe" stroke-linecap="round" stroke-linejoin="round" stroke-miterlimit="10" stroke-width=".5" d="M467.95703 311.69531H144.02734v168.625h323.9297v-168.625"/><g clip-path="url(#a)"><path fill="#fff" fill-opacity="0" fill-rule="evenodd" d="M144 475.89063v4.4375h.0039H144V311.67188h.0039H144v164.21875"/></g><g clip-path="url(#b)"><path fill="#fff" fill-opacity="0" fill-rule="evenodd" d="M144.0039 480.32813V311.67188h44.37891v107.28125l-4.4375 1.89062-3.7461 1.78516-.6914.49609-3.59375 3.94531-.84765 1.1211-3.82422 3.3164-.61328.41016-4.4375 2.08984-4.4375-.29297-1.22657 2.23047-.57812 4.4375-2.51172 4.4375.41797 4.4414.63672 4.4375.04687 4.4375 3.21485 3.83595 4.4375-2.40625 4.4375.61328 4.4375.17969 4.4414.67578 4.4375-.42579 4.4375-1.5 1.78906-.97265 2.64844-.92578 4.4414-1.63672 1.6211-1.875 2.8164-1.54688 4.40626-2.89062.03125-.01953 4.4375-.26172 4.4414-1.05469 4.4375-2.47265 1.60938-.63282-.875-4.4375.09375-4.4375-.82813-.91797-4.4375-.1953-4.4414-1.3711-4.4375-1.14453-3.14063-.8086-1.08984-4.4375-.20703-.14453-4.4375-2.03125-3.09375-2.26562-1.34766-1.14844-4.4375-2.52735V311.67188h8.8789v86.63282l-2.04687 2.13281-1.40234 4.4375 3.44922 3.46875 4.4375.35547.40625.61719-.40625.80859-1.80078 3.6289 1.80078 1.86329 4.4375 2.53906 4.4375-.11328.07422.14844 4.36719 4.37109.08593.0664 2.61328 4.44141 1.73828 1.83985 4.4375 2.1914.85547.40625 3.58203 2.1836 1.32032 2.2539-.17578 4.4375 3.29297 2.33594 4.4414.07813 4.4375.67968 4.4375-1.16015 1.90234-1.9336-1.90234-2.98047-.48047-1.45703-3.95703-3.69531-.66406-.74219-3.77344-3.64062-4.4414.00781-.47657-.80469-3.96094-3.7539-.53515-.6875.53516-3.21875 1.53515-1.21875-1.53516-1.19532-2.48046-3.24218-.52735-4.4375-1.42969-1.48438-2.2578 1.48438-2.1797.6875-4.4375.38671-4.4414-.39843-.89453-.67578-3.54297-3.22266-1.67188-1.21875-2.76562-2.4961-2.0625-1.9414-2.375-2.13281v-86.63281h57.69531v117.84375l-4.4375 1.90625-.09375.08593.09375.07813 4.4375 1.85156 4.4414-1.84766.0625-.08203-.0625-.0664-4.4414-1.92579V311.67188h17.7539v112.17188l-4.4375 1.45703-1.9375 1.76953.44141 4.4375 1.4961 1.42969 2.64453-1.42969 1.79297-.53125 3.34765-3.90625-3.34765-3.22656V311.67187h13.3164v102.40625l-3.67968 4.11329-.75782 1.73046-2.83984 2.70704-.90234 4.4414.15625 4.4375 1.45312 4.4375 2.13281 2.10156 2.21485-2.10156 2.22265-.5586 4.4375-.8828 4.4375-.875 2.70704-2.1211-2.70704-3.47656-.72265-.96094.32422-4.4414-.41797-4.4375-3.6211-3.58985-4.4375-.52344V311.67188h13.31641V421.6836l-1.25781.94532 1.25781 1.44921 1.4336-1.44921-1.4336-.94532V311.67188h48.82031v111.53125l-4.4375 2.17968-1.26953 1.6875 1.26953 1.29688 1.34766 3.14062-1.01172 4.4375-.33594 1.61719-2.85547 2.82031-1.58203 1.44531-3.1211 2.9922-1.3203 1.22265-3.00391 3.21875 3.0039 2.79297 4.44141-.13281 4.4375-.10157 4.4375-2.3789 4.4375 2.07421 4.4414.29297 3.6172-2.54687-3.6172-2.76563-1.7539-1.67578 1.7539-.3086 4.4375-.28905 4.4375-.3711 3.41407-3.46875.51953-4.4375-.85156-4.4375-3.08203-3.36719-4.4375-.23437-4.4375-.50781-4.4414.14844-.5586-.47657-3.8789-3.86719V311.67188h35.5078V430.0586l-2.04687 1.44922-2.39063.67188-3.89453 3.76562 1.28516 4.4375.78516 4.4375-2.6172 1.42969-3.01562 3.01172 3.01563 3.19531 3.29297-3.19531 1.14844-2.27735 3.73437-2.16406.70313-.05078 4.4375-.41015 3.52734-3.97657-3.52735-4.07422-.07812-.36328-3.03516-4.4375-1.32421-1.44922V311.67188h26.6289V440.8203l-4.4375.78906-4.4375.38672-4.4414 2.66016-.38282.16406-4.05469.39063-4.4375 1.33594-2.33984 2.71484 2.09766 4.4375-4.19531.70312-3.75 3.73438.14453 4.4375 3.60546 4.04687 4.4375.19922 4.4375-.16406 4.4375-1.29297 4.44141-.5625 4.4375 1.83985 4.4375-2.46485.875-1.60156 3.5625-.54297 4.01563-3.89453-1.7461-4.4375-2.26953-2.90625-.28515-1.53125.28515-1.69531 2.8086-2.7461-2.8086-2.28125-4.4375-1.71875V311.67187h57.69531v168.65625h-78.94921l-.9375-.4414-.2461.4414H144.00391"/></g><path fill="#50fcfc" fill-rule="evenodd" d="M157.85547 449.26172l-.41797-4.4414 2.51172-4.4375.57812-4.4375 1.22657-2.23048v9.08594l-1.375 2.01953 1.375 2.2461v4.03906l-1.27344 2.59375.35156 4.4375.92188 1.09765 1.58593-1.09765 2.00391-4.4375-3.58984-2.59375v-4.03906l2.49609-2.2461-2.4961-2.01953v-9.08594l4.4375.29297 4.4375-2.08984.61329-.41016 3.82422-3.3164.84765-1.1211 3.59375-3.94531.6914-.4961 3.7461-1.78515 4.4375-1.89063v3.17579l-.9375.5-3.5 2.45312-2.42578 1.98828-.52734 4.4375 2.95312 1.70703 2.33594-1.70703 2.10156-1.01953 4.4375-.73828 2.73828-2.67969-2.73828-2.42187-3.72265-2.01953-.71485-.5v-3.17579l4.4375 2.52735 1.34766 1.14844 3.09375 2.26562 4.4375 2.03125.20703.14453 1.08984 4.4375 3.14063.8086 4.4375 1.14453v3.8164l-4.4375 1.51563-4.4375.32422-4.4375-.96094-4.4414 1.73438-4.4375-.60547-.87891 1.09765-2.9961 4.4375-.5625.6211-4.4375.08203-1.46875-.70313-2.09375-4.4375-.8789-1.82031-4.4375.10547-1.33203 1.71484 1.33203 1.89844 1.05468 2.53906.15235 4.4414-1.20703.75782-3.80078 3.67969 3.80078 3.0039 4.4375.2461 4.4414 1.11719 4.4375-.6836 4.4375-1.84765 3.57422-1.83594.86328-.28906 4.4414-2.3086 4.4375-1.70312.21095-.13672 4.22656-2.21485 4.4375-.39062 3.16016-1.83594-1.07032-4.4375-2.08984-3.10547v-3.8164l4.4414 1.3711 4.4375.1953.82813.91797-.09375 4.4375.875 4.4375-1.60938.63281-4.4375 2.47266-4.4414 1.05469-4.4375.26172-.03125.01953-4.40625 2.89062-2.8164 1.54688-1.6211 1.875-4.4414 1.63672-2.64845.92578-1.78906.97265-4.4375 1.5-4.4375.42579-4.4414-.67579-4.4375-.17968-4.4375-.61328-4.4375 2.40625-3.21485-3.83594-.04687-4.4375-.63672-4.4375"/><path fill="#00e8fc" fill-rule="evenodd" d="M161.7539 447.0664l-1.375-2.24609 1.375-2.01953 2.4961 2.01953-2.4961 2.2461m-.92187 11.0703l-.35156-4.4375 1.27344-2.59374 3.58984 2.59375-2.0039 4.4375-1.58594 1.09765-.92188-1.09765m9.79688-1.4336l-3.80078-3.0039 3.80078-3.67969 1.20703-.75781-.15235-4.4414-1.05468-2.53907-1.33203-1.89844 1.33203-1.71484 4.4375-.10547.8789 1.82031 2.09375 4.4375 1.46875.70313v2.4961l-1.84375 1.24218 1.84375 3.16406 2.6875 1.27344 1.75.42578.75-.42578-.75-3.85938-.16797-.57812-4.26953-1.24219v-2.4961l4.4375-.08202.5625-.6211 2.9961-4.4375.8789-1.09765 4.4375.60546v4.08594l-4.4375.42969-.32812.41406.32812 1.35156 2.07031 3.08985 2.3672.8125 1.1328-.8125 1.02735-4.4414-2.16016-.84376v-4.08594l4.4414-1.73437 4.4375.96094 4.4375-.32422 4.4375-1.51563 2.08985 3.10547 1.07031 4.4375-3.16015 1.83594-4.4375.39063-4.22656 2.21484-.21094.13672-4.4375 1.70312-4.4414 2.3086-.86329.28906-3.57422 1.83594-4.4375 1.84765-4.4375.6836-4.4414-1.1172-4.4375-.24608"/><path fill="#00d4fc" fill-rule="evenodd" d="M179.50781 452.42578l-1.84375-3.16406 1.84375-1.24219 4.26953 1.24219.16797.57812.75 3.85938-.75.42578-1.75-.42578-2.6875-1.27344"/><path fill="#00e8fc" fill-rule="evenodd" d="M183.94531 433.21484l-2.95312-1.70703.52734-4.4375 2.42578-1.98828 3.5-2.45312.9375-.5.71485.5 3.72265 2.01953 2.73828 2.42187-2.73828 2.67969-4.4375.73828-2.10156 1.01953-2.33594 1.70703"/><path fill="#00d4fc" fill-rule="evenodd" d="M188.38281 446.17188l-.32812-1.35157.32812-.41406 4.4375-.42969 2.16016.84375-1.02734 4.4414-1.13282.8125-2.36719-.8125-2.0703-3.08983"/><path fill="#50fcfc" fill-rule="evenodd" d="M197.26172 408.34375l-3.44922-3.46875 1.40234-4.4375 2.04688-2.13281v3.79297l-1.59766 2.77734 1.59766 1.60938 2.89453-1.60938-2.89453-2.77734v-3.79297l2.375 2.13281 2.0625 1.9414 2.76562 2.4961 1.67188 1.21875v3.58984l-3.15234 4.07032 3.15234 2.63671 4.4375-1.86718 1.78516 3.66797 2.65625 2.66015 2.35546 1.77735 2.08203 2.625 4.19922 1.8164.23828.13672 4.4375 2.99219 2.97266 1.3086 1.26172 4.4375.20313.78124 4.4414 1.83594 2.52734 1.82031 1.91016.76953 1.69531-.76953.13282-4.4375-1.82813-1.71094-2.4375-2.72656-2-1.92969-4.4414 1.14063-2.16407-3.64844-2.27344-2.15625-1.78515-2.28515-1.26172-4.4375-1.39063-1.63672-3.01562-2.80078-1.42188-.88672-2.84375.88672-1.59375.4453-1.96093-.4453-2.48047-.67579-4.4375-3.39453v-3.58984l3.54297 3.22266.89453.67578 4.4414.39844 4.4375-.38672 2.1797-.6875 2.2578-1.48438 1.4297 1.48438.52734 4.4375 2.48047 3.24218 1.53515 1.19532-1.53516 1.21875-.53515 3.21875.53516.6875 3.96093 3.7539.47656.80469 4.44141-.00781 3.77344 3.64062.66406.74219 3.95703 3.69531.48047 1.45703 1.90234 2.98047-1.90234 1.9336-4.4375 1.16015-4.4375-.67969-4.4414-.07812-3.29297-2.33594.17578-4.4375-1.32031-2.2539-3.58204-2.1836-.85547-.40625-4.4375-2.1914-1.73828-1.83985-2.61328-4.4414-.08594-.06641-4.36718-4.3711-.07422-.14843-4.4375.11328-4.4375-2.53906-1.80078-1.86328 1.80078-3.62891.40625-.8086-.40625-.61718-4.4375-.35547"/><path fill="#00e8fc" fill-rule="evenodd" d="M197.26172 406.48438l-1.59766-1.60938 1.59766-2.77734 2.89453 2.77734-2.89453 1.60938m8.875 9.90625l-3.15234-2.63672 3.15234-4.07032 4.4375 3.39454 2.48047.67578 1.96094.4453 1.59375-.4453 2.84375-.88672v2.2539l-4.27735 3.07032 4.27734 3.5625 2.76172.875 1.67578.96875.56641-.96875-.5664-1.16016-1.31641-3.27734-3.1211-3.07032v-2.2539l1.42188.88672 3.01563 2.80078 1.39062 1.63672 1.26172 4.4375 1.78516 2.28515 2.27343 2.15625 2.16406 3.64844 4.44141-1.14063 2 1.9297 2.4375 2.72656 1.82813 1.71093-.13282 4.4375-1.6953.76953-1.91017-.76953-2.52734-1.82031-4.4414-1.83594-.20313-.78125-1.26172-4.4375-2.97266-1.3086-4.4375-2.99218-.23828-.13672-4.19922-1.8164-2.08203-2.625-2.35547-1.77735-2.65625-2.66015-1.78515-3.66797-4.4375 1.86719"/><path fill="#00d4fc" fill-rule="evenodd" d="M219.45313 421.7539l-4.27735-3.5625 4.27734-3.0703v1.67968l-1.9375 1.39063 1.9375 1.61328 1.41407-1.61328-1.41406-1.39063v-1.67969l3.12109 3.07032 1.3164 3.27734.56641 1.16016-.5664.96875-1.67579-.96875-2.76172-.875"/><path fill="#00c4fc" fill-rule="evenodd" d="M219.45313 419.80469l-1.9375-1.61328 1.9375-1.39063 1.41406 1.39063-1.41406 1.61328"/><path fill="#50fcfc" fill-rule="evenodd" d="M250.51953 431.58594l-.09375-.07813.09375-.08594 4.4375-1.90625 4.4414 1.92579.0625.0664-.0625.08203-4.4414 1.84766-4.4375-1.85156m16.25781-.07813l-.4414-4.4375 1.9375-1.76953 4.4375-1.45703V426l-2.03125 1.07031 2.03125 1.29688 1.11328-1.29688L272.71094 426v-2.15625l3.34765 3.22656-3.34765 3.90625-1.79297.53125-2.64453 1.42969-1.4961-1.42969"/><path fill="#00e8fc" fill-rule="evenodd" d="M272.71094 428.36719l-2.03125-1.29688L272.71094 426l1.11328 1.07031-1.11328 1.29688"/><path fill="#50fcfc" fill-rule="evenodd" d="M278.0039 431.50781l-.15624-4.4375.90234-4.4414 2.83984-2.70704.75782-1.73046 3.67968-4.11329v1.625l-2.22656 2.48829-1.76953 4.4375-.4414.45703-2.31641 3.98437.21875 4.4375 2.09765 3.38672 4.4375-.4961 4.4375-2.1875 1.85938-.70312-1.85938-2.77344-.70703-1.66406.70703-.23828 3.08985-4.20312-1.09766-4.4375-1.99219-1.97657-4.4375-.51171v-1.625l4.4375.52343 3.6211 3.58985.41797 4.4375-.32422 4.4414.72265.96094 2.70704 3.47656-2.70704 2.1211-4.4375.875-4.4375.8828-2.22265.5586-2.21485 2.10156-2.1328-2.10156-1.45313-4.4375"/><path fill="#00e8fc" fill-rule="evenodd" d="M279.49219 431.50781l-.21875-4.4375 2.3164-3.98437.44141-.45703 1.76953-4.4375 2.22656-2.48829v12.94141l-3.68359 2.86328 3.6836 1.24219 2.1328-1.24219-2.1328-2.86328v-12.9414l4.4375.51171v2.94532l-4.4297 3.46875 4.4297 2.05078 1.5078-2.05078-1.5078-3.46875v-2.94532l1.99218 1.97657 1.09766 4.4375-3.08985 4.20312-.70703.23828.70703 1.66406 1.85938 2.77344-1.85938.70313-4.4375 2.1875-4.4375.4961-2.09765-3.38673"/><path fill="#00d4fc" fill-rule="evenodd" d="M286.02734 432.75l-3.68359-1.24219 3.6836-2.86328 2.1328 2.86328-2.1328 1.24219m4.4375-8.07031l-4.4297-2.05078 4.4297-3.46875 1.5078 3.46875-1.5078 2.05078"/><path fill="#50fcfc" fill-rule="evenodd" d="M299.34375 424.07813l-1.25781-1.44922 1.25781-.94532 1.4336.94532-1.4336 1.44921m35.5039 27.97657l-3.0039-2.79297 3.0039-3.21875 1.32032-1.22266 3.1211-2.99219 1.58202-1.4453 2.85547-2.82032.33594-1.61719 1.01172-4.4375-1.34766-3.14062-1.26953-1.29688 1.26953-1.6875 4.4375-2.17969v1.53907l-2.97656 2.32812 2.05078 4.4375-2.29297 4.4375 3.21875 3.32031v.91016l-1.13281.20703 1.13281.30078.1836-.30078-.1836-.20703v-.91015l1 1.11718-1 1.6211-4.4375-.29297-3.40625 3.10937 3.40625 3.78125 4.4375-.73047 3.97266-3.05078.46484-.25 4.4414-.69922 4.4375-.67578 4.4375-1.0586 1.72657-1.7539.71875-4.4375-2.44531-4.21875-.30078-.21875-4.13672-1.95312-4.4375-1.57422-4.4414.88672L350.5 427.0703l-2.33594-2.32812v-1.53906l3.8789 3.86718.5586.47656 4.4414-.14843 4.4375.50781 4.4375.23438L369 431.5078l.85156 4.4375-.51953 4.4375-3.41406 3.46875-4.4375.3711-4.4375.28906-1.7539.3086 1.7539 1.67577 3.61719 2.76563-3.6172 2.54687-4.4414-.29296-4.4375-2.07422-4.4375 2.3789-4.4375.10156-4.4414.13282"/><path fill="#00e8fc" fill-rule="evenodd" d="M343.72656 448.60156l-3.40625-3.78125 3.40625-3.10937 4.4375.29297 1-1.6211-1-1.11719-3.21875-3.3203 2.29297-4.4375-2.05078-4.4375 2.97656-2.32813L350.5 427.0703l2.10156 1.79688 4.4414-.88672v.96484l-4.4414 2.1211-.9414.4414-3.4961 1.71094-1.7461 2.72656 1.7461 1.80078 2.36328 2.63672-2.36328 3.82031-1.55469.6172 1.5547.67187.87109-.67188 3.5664-1.90625 4.4414-.10547 4.4375-1.3203 2.78126-1.10548 1.59765-4.4375-4.3789-3.44531-.4375-.99219-4-2.5625v-.96484l4.4375 1.57422 4.13672 1.95312.30078.21875 2.44531 4.21875-.71875 4.4375-1.72656 1.7539-4.4375 1.0586-4.4375.67578-4.4414.69922-.46485.25-3.97266 3.05078-4.4375.73047"/><path fill="#00d4fc" fill-rule="evenodd" d="M348.16406 437.7461l-1.7461-1.80079 1.7461-2.72656 3.4961-1.71094.9414-.4414 4.4414-2.1211v.96485l-2.99218 1.59765-1.44922 1.80078-4.4375 2.21094-.27344.42578.27344.28125 3.72656 4.15625.71094.8711 4.4414.49218 3.47657-1.36328.96094-4.35156.03125-.08594-.03125-.02344-1.94531-4.41406-2.4922-1.59765v-.96485l4 2.5625.4375.99219 4.37892 3.44531-1.59766 4.4375-2.78125 1.10547-4.4375 1.32031-4.4414.10547-3.56641 1.90625-.8711.67188-1.55469-.67188 1.5547-.61719 2.36327-3.8203-2.36328-2.63673"/><path fill="#fff" fill-opacity="0" fill-rule="evenodd" d="M348.16406 440.17578l-1.13281.20703 1.13281.30078.1836-.30078-.1836-.20703"/><path fill="#00c4fc" fill-rule="evenodd" d="M348.16406 436.22656l-.27344-.28125.27344-.42578 4.4375-2.21094 1.44922-1.80078 2.99219-1.59765v.96484l-1.1836.63281-3.2578 4.0586-.75782.3789.75781 1.16016 2.79688 3.27734 1.64453.29688.75781-.29688 2.66406-4.4375-2.4375-4.4375-.98437-.63281v-.96484l2.49219 1.59765 1.9453 4.41406.03126.02344-.03125.08594-.96094 4.35156-3.47656 1.36328-4.4414-.49218-.71094-.8711-3.72657-4.15625"/><path fill="#00b8fc" fill-rule="evenodd" d="M352.60156 437.10547l-.75781-1.16016.75781-.3789 3.25781-4.0586 1.1836-.63281v1.20313l-3.28125 3.86718 3.28125 3.39844 2.39844-3.39844-2.39844-3.86719V430.875l.98437.63281 2.4375 4.4375-2.66406 4.4375-.75781.29688-1.64453-.29688-2.79688-3.27734"/><path fill="#00a8fc" fill-rule="evenodd" d="M357.04297 439.34375l-3.28125-3.39844 3.28125-3.86719v1.64454l-1.88281 2.22265 1.8828 1.94922 1.37892-1.94922-1.37891-2.22265v-1.64454l2.39844 3.8672-2.39844 3.39843"/><path fill="#009800" fill-rule="evenodd" d="M357.04297 437.89453l-1.88281-1.94922 1.8828-2.22265v1.64843l-.48827.57422.48828.5039.35547-.5039-.35547-.57422v-1.64843l1.3789 2.22265-1.3789 1.94922"/><path fill="#00ac00" fill-rule="evenodd" d="M357.04297 436.44922l-.48828-.5039.48828-.57423.35547.57422-.35547.5039"/><path fill="#50fcfc" fill-rule="evenodd" d="M374.79297 452.45703l-3.01563-3.19531 3.01563-3.01172v2.15625l-.85156.85547.85156.90234.9336-.90234-.9336-.85547V446.25l2.61719-1.42969-.78516-4.4375-1.28516-4.4375 3.89454-3.76562 2.39062-.67188 2.04688-1.44922v1.78907l-4.4375 2.39843-1.75782 1.69922 1.75781 2.5625.38282 1.875 4.05469 3.79297 4.4375-1.83984 1.73437-1.95313-1.73438-2-.53125-2.4375-3.90625-4.09765v-1.78907l1.32422 1.44922 3.03516 4.4375.07813.36328 3.52734 4.07422-3.52735 3.97656-4.4375.41016-.70312.05078-3.73438 2.16406-1.14843 2.27735-3.29297 3.19531"/><path fill="#00e8fc" fill-rule="evenodd" d="M374.79297 450.16406l-.85156-.90234.85156-.85547.9336.85547-.9336.90234m4.4414-11.65625l-1.7578-2.5625 1.7578-1.69922 4.4375-2.39843v.79296l-3.96093 3.3047.96875 4.4375 2.99219 2.79687 3.85937-2.79688-.70703-4.4375-3.15235-3.30469v-.79296l3.90625 4.09765.53125 2.4375 1.73438 2-1.73438 1.95313-4.4375 1.83984-4.05468-3.79297-.38281-1.875"/><path fill="#00d4fc" fill-rule="evenodd" d="M380.67969 440.38281l-.96875-4.4375 3.96094-3.30469v.78907l-3.01172 2.51562 1.08203 4.4375 1.92969 1.80469 2.48828-1.80469-.08985-4.4375-2.39844-2.51562v-.78906l3.15235 3.30468.70703 4.4375-3.85938 2.79688-2.99218-2.79688"/><path fill="#50fcfc" fill-rule="evenodd" d="M380.0664 462.57422l-.14452-4.4375 3.75-3.73438 4.1953-.70312-2.09765-4.4375 2.33985-2.71485 4.4375-1.33593 4.05468-.39063.38281-.16406 4.44141-2.66016 4.4375-.38671 4.4375-.78907v1.17578l-4.4375 1.81641-4.4375.8125-.3164.19531-4.125.6875-4.4375 1.25-3.17579 2.5039-.64453 4.4375-.61719.5625-4.4375 1.3086-2.57812 2.5664.2539 4.4375 2.32423 2.60938 4.4375.98829 4.4375-.22266 4.33593-3.375.10156-.11719 4.44141-.61719 1.3125.73438 3.125 2.25781 2.64453-2.25781 1.79297-1.04688 4.4375-.375 3.10938-3.01562-3.10938-4-.35156-.4375-.79688-4.4375.4336-4.4414-3.72266-2.82423v-1.17578l4.4375 1.71875 2.8086 2.28125-2.8086 2.7461-.28515 1.6953.28515 1.53126 2.26953 2.90625 1.7461 4.4375-4.01563 3.89453-3.5625.54297-.875 1.60156-4.4375 2.46485-4.4375-1.83985-4.4414.5625-4.4375 1.29297-4.4375.16406-4.4375-.19922-3.60547-4.04687"/><path fill="#00c4fc" fill-rule="evenodd" d="M381.74219 440.38281l-1.08203-4.4375 3.01171-2.51562v.78906l-2.0664 1.72656 1.19922 4.4375.86719.8125 1.11718-.8125.52735-4.4375-1.64454-1.72656v-.78906l2.39844 2.51562.08985 4.4375-2.48829 1.80469-1.92968-1.80469"/><path fill="#00e8fc" fill-rule="evenodd" d="M381.34766 462.57422l-.25391-4.4375 2.57813-2.5664 4.4375-1.3086.61718-.5625.64453-4.4375 3.17579-2.5039 4.4375-1.25 4.125-.6875.3164-.19532 4.4375-.8125 4.4375-1.8164v1.96093l-1.67969.86328-2.7578 2.0586-4.4375-.86329-4.44142.66016-4.375 2.58594-.0625.05078-2.7578 4.38672-1.6797 1.53906-4.4375 2.27735-.625.62109.4336 4.4375.1914.21484 4.4375 2.3086 4.4375-.32422 2.82422-2.19922 1.61329-1.82813 4.4414-1.23828 4.4375 2.35156 4.4375-2.39062 4.4375.21094 1.59375-1.54297-1.59375-2.05078-1.91797-2.38672-.67187-4.4375-.70703-4.4414-1.14063-.86329v-1.96094l3.72266 2.82422-.4336 4.4414.79688 4.4375.35156.4375 3.10938 4-3.10938 3.01563-4.4375.375-1.79297 1.04688-2.64453 2.25781-3.125-2.25781-1.3125-.73438-4.4414.6172-.10157.11718-4.33594 3.375-4.4375.22265-4.4375-.98828-2.32421-2.60937"/><path fill="#00b8fc" fill-rule="evenodd" d="M382.80469 440.38281l-1.19922-4.4375 2.0664-1.72656v.79297l-1.12109.9336 1.1211 3.83984.89062-3.83985-.89063-.9336v-.79296l1.64454 1.72656-.52735 4.4375-1.11719.8125-.86718-.8125"/><path fill="#00a8fc" fill-rule="evenodd" d="M383.67188 439.78516l-1.1211-3.83985 1.1211-.9336v.78907l-.17188.14453.17188.58985.13671-.58985-.13671-.14453v-.78906l.89062.9336-.89063 3.83984"/><path fill="#00d4fc" fill-rule="evenodd" d="M383.48047 462.57422l-.4336-4.4375.625-.6211 4.4375-2.27734 1.6797-1.53906 2.7578-4.38672.0625-.05078 4.375-2.58594 4.44141-.66015v1.2539l-4.4414.57813-2.39454 1.41406L392.54688 451l-1.69532 2.69922-2.74219 2.51172-3.30078 1.92578.65625 4.4375 2.64454 1.44531 4.4375-.42187 1.3125-1.02344 3.125-3.53906 2.49218-.89844 1.94922-.98828 2.54688.98828 1.89062.8711 2.0625-.8711 2.375-1.63281 3.8789 1.6328.5586.07423.07813-.07422-.07813-.09766-3.48828-4.33984-.53906-4.4375-.41016-1.4961-2.82812 1.4961-1.60938 1.01172-.41015-1.01172-4.02735-1.99219v-1.2539l4.4375.86328 2.75781-2.0586 1.6797-.86328 1.14062.86328.70703 4.4414.67187 4.4375 1.91797 2.38673 1.59375 2.05078-1.59375 1.54297-4.4375-.21094-4.4375 2.39063-4.4375-2.35157-4.4414 1.23828-1.61329 1.82813-2.82421 2.19922-4.4375.32422-4.4375-2.3086-.19141-.21484"/><path fill="#009800" fill-rule="evenodd" d="M383.67188 436.53516l-.17188-.58985.17188-.14453.13671.14453-.13671.58985"/><path fill="#00c4fc" fill-rule="evenodd" d="M385.46484 462.57422l-.65625-4.4375 3.30079-1.92578 2.74218-2.51172L392.54687 451l2.04297-1.73828 2.39454-1.41406 4.4414-.57813v1.25l-4.4414.4961-.41407.24609-4.02344 3.42969-.6328 1.0078-3.8047 3.48829-1.6289.94922.95703 4.4375.67188.36719 3.20703-.3672 1.23046-.62108 2.78907-3.81641 1.64844-1.46094 4.4414-1.92969 2.17188-1.04687-.67579-4.4375-1.49609-.74219v-1.25l4.02735 1.99219.41015 1.01172 1.60938-1.01172 2.82812-1.4961.41016 1.4961.53906 4.4375 3.48828 4.33984.07813.09766-.07813.07422-.5586-.07422-3.8789-1.63281-2.375 1.6328-2.0625.8711-1.89062-.8711-2.54688-.98827-1.94922.98828-2.49219.89844-3.125 3.53906-1.3125 1.02344-4.4375.42187-2.64453-1.44531"/><path fill="#00b8fc" fill-rule="evenodd" d="M387.4375 462.57422l-.95703-4.4375 1.6289-.94922 3.8047-3.48828.6328-1.00781 4.02344-3.4297.41406-.24608 4.44141-.4961 1.4961.74219.67578 4.4375-2.17188 1.04687-4.4414 1.9297-1.64844 1.46093-2.78906 3.8164-1.23047.6211-3.20704.36719-.67187-.3672"/><g clip-path="url(#c)"><path fill="#50fcfc" fill-rule="evenodd" d="M387.86328 480.32813l.2461-.44141.9375.4414h-1.1836"/></g><g clip-path="url(#d)"><path fill="#fff" fill-opacity="0" fill-rule="evenodd" d="M467.9961 480.32813H468V311.67188h-.0039H468v168.65625h-.0039"/></g><path fill="#fff" fill-opacity="0" fill-rule="evenodd" d="M197.32813 461.69922l4.80078-3.32422-5.66797-8.1914-4.80078 3.32421 5.66797 8.1914"/><path fill-rule="evenodd" d="M195.57813 453.02344l.41796-.28906 3.58203 5.17578-.64453.44921-2.55468-3.6953-1.14453.79296-.3125-.45703.42187-.375.17578-.1875.13672-.20313.08984-.23046.02344-.27344-.05078-.32031-.14063-.38672"/><path fill="#fff" fill-opacity="0" fill-rule="evenodd" d="M234.94531 432.55469L239 436.76172l7.17188-6.91016-4.05079-4.20703-7.17578 6.91016"/><path fill-rule="evenodd" d="M243.23047 429.4375l.35156.36719-4.53516 4.36719-.54687-.56641 3.23438-3.11719-.96094-1 .39844-.38281.4375.35547.21093.14453.22656.10547.2422.04687.26952-.01953.3125-.10156.35938-.19922"/><g clip-path="url(#e)"><path fill="none" stroke="#000" stroke-linecap="round" stroke-linejoin="round" stroke-miterlimit="10" stroke-width=".5" d="M147.48047 480.8086l-6.96094-.96094"/></g><g clip-path="url(#f)"><path fill="none" stroke="#000" stroke-linecap="round" stroke-linejoin="round" stroke-miterlimit="10" stroke-width=".5" d="M146.46875 480.67188l.42188 1.14843"/></g><g clip-path="url(#g)"><path fill="none" stroke="#000" stroke-linecap="round" stroke-linejoin="round" stroke-miterlimit="10" stroke-width=".5" d="M160.82813 480.45703l-7.02344-.25781"/></g><g clip-path="url(#h)"><path fill="none" stroke="#000" stroke-linecap="round" stroke-linejoin="round" stroke-miterlimit="10" stroke-width=".5" d="M159.80469 480.41797l.53515 1.10547"/></g><g clip-path="url(#i)"><path fill="none" stroke="#000" stroke-linecap="round" stroke-linejoin="round" stroke-miterlimit="10" stroke-width=".5" d="M174.125 480.6914l-6.98828-.72656"/></g><g clip-path="url(#j)"><path fill="none" stroke="#000" stroke-linecap="round" stroke-linejoin="round" stroke-miterlimit="10" stroke-width=".5" d="M173.10938 480.58594l.46093 1.13672"/></g><g clip-path="url(#k)"><path fill="none" stroke="#000" stroke-linecap="round" stroke-linejoin="round" stroke-miterlimit="10" stroke-width=".5" d="M187.41016 480.91406l-6.9297-1.17187"/></g><g clip-path="url(#l)"><path fill="none" stroke="#000" stroke-linecap="round" stroke-linejoin="round" stroke-miterlimit="10" stroke-width=".5" d="M187.41016 480.91406l.77343 2.32813"/></g><g clip-path="url(#m)"><path fill="none" stroke="#000" stroke-linecap="round" stroke-linejoin="round" stroke-miterlimit="10" stroke-width=".5" d="M200.75781 480.65234l-6.9961-.64843"/></g><g clip-path="url(#n)"><path fill="none" stroke="#000" stroke-linecap="round" stroke-linejoin="round" stroke-miterlimit="10" stroke-width=".5" d="M200.75781 480.65234l.94922 2.26172"/></g><g clip-path="url(#o)"><path fill="none" stroke="#000" stroke-linecap="round" stroke-linejoin="round" stroke-miterlimit="10" stroke-width=".5" d="M214.08984 480.26563l-7.02734.125"/></g><g clip-path="url(#p)"><path fill="none" stroke="#000" stroke-linecap="round" stroke-linejoin="round" stroke-miterlimit="10" stroke-width=".5" d="M214.08984 480.26563l1.1875 2.14453"/></g><g clip-path="url(#q)"><path fill="none" stroke="#000" stroke-linecap="round" stroke-linejoin="round" stroke-miterlimit="10" stroke-width=".5" d="M227.40234 480.41016l-7.02343-.16407"/></g><g clip-path="url(#r)"><path fill="none" stroke="#000" stroke-linecap="round" stroke-linejoin="round" stroke-miterlimit="10" stroke-width=".5" d="M227.40234 480.41016l1.10157 2.1914"/></g><g clip-path="url(#s)"><path fill="none" stroke="#000" stroke-linecap="round" stroke-linejoin="round" stroke-miterlimit="10" stroke-width=".5" d="M240.66797 480.92578l-6.92578-1.19531"/></g><g clip-path="url(#t)"><path fill="none" stroke="#000" stroke-linecap="round" stroke-linejoin="round" stroke-miterlimit="10" stroke-width=".5" d="M239.66016 480.7539l.3828 1.16407"/></g><g clip-path="url(#u)"><path fill="none" stroke="#000" stroke-linecap="round" stroke-linejoin="round" stroke-miterlimit="10" stroke-width=".5" d="M253.57813 482.0586l-6.11329-3.46094"/></g><g clip-path="url(#v)"><path fill="none" stroke="#000" stroke-linecap="round" stroke-linejoin="round" stroke-miterlimit="10" stroke-width=".5" d="M267.02734 481.79297l-6.38672-2.92969"/></g><g clip-path="url(#w)"><path fill="none" stroke="#000" stroke-linecap="round" stroke-linejoin="round" stroke-miterlimit="10" stroke-width=".5" d="M280.32422 481.83203l-6.34766-3.00781"/></g><g clip-path="url(#x)"><path fill="none" stroke="#000" stroke-linecap="round" stroke-linejoin="round" stroke-miterlimit="10" stroke-width=".5" d="M293.69531 481.71094l-6.46094-2.76563"/></g><g clip-path="url(#y)"><path fill="none" stroke="#000" stroke-linecap="round" stroke-linejoin="round" stroke-miterlimit="10" stroke-width=".5" d="M307.27734 480.67969l-6.99218-.70313"/></g><g clip-path="url(#z)"><path fill="none" stroke="#000" stroke-linecap="round" stroke-linejoin="round" stroke-miterlimit="10" stroke-width=".5" d="M306.25781 480.57813l.46485 1.13671"/></g><g clip-path="url(#A)"><path fill="none" stroke="#000" stroke-linecap="round" stroke-linejoin="round" stroke-miterlimit="10" stroke-width=".5" d="M320.60156 480.10156l-7.01172.45703"/></g><g clip-path="url(#B)"><path fill="none" stroke="#000" stroke-linecap="round" stroke-linejoin="round" stroke-miterlimit="10" stroke-width=".5" d="M320.60156 480.10156l1.28906 2.08594"/></g><g clip-path="url(#C)"><path fill="none" stroke="#000" stroke-linecap="round" stroke-linejoin="round" stroke-miterlimit="10" stroke-width=".5" d="M333.91406 480.03906l-7.0039.57813"/></g><g clip-path="url(#D)"><path fill="none" stroke="#000" stroke-linecap="round" stroke-linejoin="round" stroke-miterlimit="10" stroke-width=".5" d="M333.91406 480.03906l1.32422 2.0664"/></g><g clip-path="url(#E)"><path fill="none" stroke="#000" stroke-linecap="round" stroke-linejoin="round" stroke-miterlimit="10" stroke-width=".5" d="M347.02734 481.53516l-6.60156-2.41407"/></g><g clip-path="url(#F)"><path fill="none" stroke="#000" stroke-linecap="round" stroke-linejoin="round" stroke-miterlimit="10" stroke-width=".5" d="M360.5 480.95703l-6.91797-1.2539"/></g><g clip-path="url(#G)"><path fill="none" stroke="#000" stroke-linecap="round" stroke-linejoin="round" stroke-miterlimit="10" stroke-width=".5" d="M359.49219 480.77344l.375 1.16797"/></g><g clip-path="url(#H)"><path fill="none" stroke="#000" stroke-linecap="round" stroke-linejoin="round" stroke-miterlimit="10" stroke-width=".5" d="M372.08203 483.39063l-3.45312-6.1211"/></g><g clip-path="url(#I)"><path fill="none" stroke="#000" stroke-linecap="round" stroke-linejoin="round" stroke-miterlimit="10" stroke-width=".5" d="M386.44531 482.48438l-5.54687-4.3125"/></g><g clip-path="url(#J)"><path fill="none" stroke="#000" stroke-linecap="round" stroke-linejoin="round" stroke-miterlimit="10" stroke-width=".5" d="M399.34375 482.9375l-4.71484-5.21484"/></g><g clip-path="url(#K)"><path fill="none" stroke="#000" stroke-linecap="round" stroke-linejoin="round" stroke-miterlimit="10" stroke-width=".5" d="M410.33984 483.84375l-.07421-7.02734"/></g><g clip-path="url(#L)"><path fill="none" stroke="#000" stroke-linecap="round" stroke-linejoin="round" stroke-miterlimit="10" stroke-width=".5" d="M423.5664 483.84375l.10157-7.02734"/></g><g clip-path="url(#M)"><path fill="none" stroke="#000" stroke-linecap="round" stroke-linejoin="round" stroke-miterlimit="10" stroke-width=".5" d="M437.67578 483.76172l-1.48828-6.86719"/></g><g clip-path="url(#N)"><path fill="none" stroke="#000" stroke-linecap="round" stroke-linejoin="round" stroke-miterlimit="10" stroke-width=".5" d="M452.53516 482.99219l-4.57813-5.32813"/></g><g clip-path="url(#O)"><path fill="none" stroke="#000" stroke-linecap="round" stroke-linejoin="round" stroke-miterlimit="10" stroke-width=".5" d="M465.45313 483.28906l-3.78516-5.92187"/></g><g clip-path="url(#P)"><path fill="none" stroke="#000" stroke-linecap="round" stroke-linejoin="round" stroke-miterlimit="10" stroke-width=".5" d="M147.47656 467.51563l-6.95312-1.00391"/></g><path fill="none" stroke="#000" stroke-linecap="round" stroke-linejoin="round" stroke-miterlimit="10" stroke-width=".5" d="M147.47656 467.51563l.83203 2.30859m12.41016-1.9375l-6.8086-1.7461m6.8086 1.7461l.57813 2.38281m12.78125-2.58594l-6.89844-1.33984m6.89844 1.33984l.71875 2.34375m12.6328-2.5703l-6.96874-.88673m6.96875.88672l.8711 2.29297m12.42968-2.17969l-6.9414-1.11328m6.9414 1.11328l.79297 2.32031m12.49219-2.16406l-6.87891-1.42578m6.8789 1.42578l.6875 2.35547m12.67188-2.61719l-6.96875-.90234m6.96875.90234l.86328 2.29688m12.45313-2.32422l-6.97266-.84766m6.97266.84766l.8828 2.29297m12.26563-1.5625l-6.63672-2.3086m5.67188 1.97266l.1875 1.21094m13.91406-.45703l-6.28515-3.14453m5.37109 2.6875l.03125 1.22656m13.94531-.33985l-5.77734-4.0039m4.9375 3.42187l-.14453 1.21875m14.23047-.54297l-5.63672-4.1914m4.8164 3.58203l-.18359 1.21484m14.45312-.79687l-5.90625-3.8086m5.04688 3.25391l-.10547 1.22266m14.41797-.90235l-6.1836-3.33984m5.28126 2.85547l-.00782 1.22656m14.64453-2.23828l-7.01953-.34766m5.9961.29688l.52343 1.10937m13.70313-.34765l-6.80078-1.76953m5.8125 1.51171l.28515 1.19532m14.04297-1.03125l-6.84765-1.58203m5.85156 1.35156l.3164 1.1875m14.08204-1.8789l-7.02344.26171m6-.22266l.61719 1.0625m11.91797 2.10157l-3.41407-6.14063m13.96485 6.41797l2.11328-6.69922m-1.8086 5.72656l-1.20312.22266m14.30469.77734l1.92968-6.7539m-1.92968 6.7539l-2.39844.51563m15.73437-.50781l1.89063-6.76953m-1.89063 6.76953l-2.39843.52343m16.8711-.40234l-.42579-7.01172m.42578 7.01172l-2.09375 1.28125m16.04297-1.3789l-1.69531-6.81641m1.69531 6.8164l-1.82422 1.64063m16.26172-2.13672l-3.9375-5.82422m3.9375 5.82422l-1.15234 2.16797"/><g clip-path="url(#Q)"><path fill="none" stroke="#000" stroke-linecap="round" stroke-linejoin="round" stroke-miterlimit="10" stroke-width=".5" d="M147.51172 453.73828l-7.02344-.07812"/></g><path fill="none" stroke="#000" stroke-linecap="round" stroke-linejoin="round" stroke-miterlimit="10" stroke-width=".5" d="M147.51172 453.73828l1.1289 2.17578m12.09766-1.42578l-6.84766-1.57812m6.84766 1.57812l.63672 2.36719m12.49219-1.79297l-6.47656-2.72656m5.53515 2.33203l.10938 1.21875m14.08203-.67969l-6.34375-3.01562m6.34375 3.01562l.11328 2.44922m13.47656-3.28125l-6.89453-1.35547m6.89453 1.35547l.71484 2.34766m12.66407-3.10938l-7.02344.17188m7.02344-.17188l1.20703 2.13672m12.10547-2.21875l-7.01563.33594m7.01563-.33594l1.2539 2.10938m12.0625-2.1211l-7.01953.35938m7.01953-.35938l1.26172 2.10547m12.05078-1.6836l-7.01172-.48437m7.01172.48438l.9961 2.24218m12.30078-2.05078l-6.97656-.86718m6.97656.86718l.875 2.29297m12.46484-2.82812l-7.02734.20312m7.02734-.20312l1.21485 2.1328m11.52343-.10155l-5.87109-3.86328m5.01562 3.30078l-.11328 1.22265m13.69141.02735l-4.6875-5.23438m4.00781 4.47266l-.42578 1.15234m14.6211-.58594l-5.08985-4.84375m4.35156 4.13672l-.33203 1.1836m15.13281-1.66797l-6.58203-2.46094m5.625 2.10156l.15625 1.21875m14.1836-1.0625l-6.71875-2.05468m5.74218 1.7539l.23438 1.20703m14.17187-2.44531l-6.94921 1.01953m5.9414-.8711l.72656.98829m13.3125-2.09766l-6.3789 2.94532m5.44922-2.51954l.97656.7422m11.96094 3.26952l-3.76953-5.92968m12.3828 5.0625l5.63673-4.19532m-4.8164 3.58594l-1.10938-.52734m14.43359 1.93359l3.98047-5.78906m-3.98047 5.78906l-2.4414-.27734m17.1875.85156l1.11718-6.9375m-1.11719 6.9375l-2.32422.79297m14.84375-1.01953l2.70704-6.48438m-2.70704 6.48438l-2.4414.23047m15.0039-.66016l4.21094-5.625m-4.21094 5.625l-2.42578-.3789m17.4375 1.05468l.82032-6.97656m-.82032 6.97656l-2.28906.89062"/><g clip-path="url(#R)"><path fill="none" stroke="#000" stroke-linecap="round" stroke-linejoin="round" stroke-miterlimit="10" stroke-width=".5" d="M147.50781 440.55078l-7.01562-.33594"/></g><path fill="none" stroke="#000" stroke-linecap="round" stroke-linejoin="round" stroke-miterlimit="10" stroke-width=".5" d="M147.50781 440.55078l1.05078 2.21875m12.21485-1.77344l-6.91797-1.22656m6.91797 1.22656l.75781 2.33594m12.375-1.67969l-6.55078-2.53906m6.55078 2.53906l.29297 2.4375m12.98437-2.34375l-6.47656-2.72265m5.53516 2.32422l.10937 1.22265m13.9336-.39843l-6.05078-3.57422m5.17187 3.05078l-.05469 1.22656m14.55469-1.36719l-6.66016-2.2461m5.69141 1.91798l.19922 1.21094m14.14453-1.08985L220.5 439.46875m5.79688 1.5664l.27343 1.19532m13.88672-.51172l-6.5039-2.66797m5.55859 2.27735l.1211 1.22265m14.39843-2.07031l-7.02344-.19531m7.02344.1953l1.09375 2.19923m12.21094-2.60156l-7 .60937m5.98047-.51953l.66797 1.03125m13.65625-1.22266l-6.98047.8125m5.96484-.6914l.69531 1.0078m13.65235-.48046l-7.01172-.48438m5.98828.41407l.5039 1.1211m13.32032.54687l-5.98438-3.6797m5.11328 3.14454l-.07421 1.22656m14.71484-3.21094l-6.89453 1.36329m6.89453-1.36328l1.55078 1.90234m11.25-3.15625l-5.86328 3.8711m5.00781-3.3086l1.07813.58594m13.52343-.22657l-6.73046 2.02344m18.91015-3.72656l-4.45703 5.42969m3.8086-4.64063l1.20312.24219m14.03906 1.47656l-7.01562.41406m17.84765-.20703l-.01953-.19922-.0586-.1914-.09765-.17578-.45703-.37891-.1914-.0586-.19923-.01953-.19921.01954-.19141.05859-.46094.3789-.09375.17579-.0586.1914-.01952.19922.01953.19922.0586.1914.09374.1797.46094.375.1914.05859.19923.01953.19921-.01953.19141-.0586.45703-.375.09766-.17968.0586-.1914.01952-.19923m9.21485-1.69922l6.15234 3.39844m-5.25781-2.90234l.01953-1.22656m12.22656 3.76953l6.5-2.67578m-6.5 2.67578l-1.88672-1.56641m15.86719 2.60547l5.17188-4.75781m-5.17188 4.7578l-2.3164-.8164m3.0664.125l-1.15625-.40625m14.64844 1.8164l3.3164-6.1953m-3.3164 6.1953l-2.45313-.0039m15.16797-.40234l4.51563-5.38281m-4.51563 5.3828l-2.39844-.5078m16.89844 1.16406l2.14844-6.6914m-2.14844 6.6914l-2.41406.4336"/><g clip-path="url(#S)"><path fill="none" stroke="#000" stroke-linecap="round" stroke-linejoin="round" stroke-miterlimit="10" stroke-width=".5" d="M147.50781 426.86328l-7.01562.41016"/></g><path fill="none" stroke="#000" stroke-linecap="round" stroke-linejoin="round" stroke-miterlimit="10" stroke-width=".5" d="M147.50781 426.86328l1.27344 2.09766m12.04688-1.8789l-7.02735-.02735m7.02734.02734l1.14454 2.16797m11.95703-.96875l-6.59766-2.42188m6.59766 2.42188l.33203 2.42969m12.79687-2.01563l-6.22656-3.2539m6.22656 3.2539l.01953 2.45313m13.64844-3.5039l-6.9336-1.15235m6.9336 1.15234l.78125 2.32422m12.54297-2.375l-6.94922-1.05078m5.9375.89844l.40625 1.15625m13.64844-.08204l-6.40625-2.89453m5.47266 2.47266l.07812 1.22266m13.94922-.39063l-5.96484-3.71484m5.09765 3.17187l-.08203 1.22657m14.35547-.83594l-6.14453-3.41016m5.25 2.91406l-.02344 1.22657m14.60938-1.76563l-6.89844-1.33984m5.89453 1.14453l.35938 1.17578m14.01171-1.91797l-7.0039.53906m5.98437-.46093l.66016 1.03515m13.67187-.51172l-6.99609-.66796m5.97656.5703l.47266 1.13282m13.39453.40625l-6.0625-3.55078m19.5625 3.1914l-6.4336-2.83203m5.4961 2.41797l.09375 1.22657m14.1875-3.57813l-6.48828 2.69922m5.54297-2.3086l.94922.78126m12.92968-1.85938l-5.72656 4.07422m13.13281-3.79297l6.08985 3.51172m7.55078.47266l5.4375-4.45704m-4.64453 3.8086l-1.13282-.47266m15.98829 2.38672l.77343-6.98437m-.66015 5.96484l-1.14063.45312m11.97266-.75l5.51172-4.35546m-4.71094 3.72265l-1.125-.49219m13.57422 1.04297l5.64062-4.1914m-5.64062 4.1914l-2.21485-1.05468m15.07813.24218l6.54297-2.5664m-6.54297 2.5664l-1.86328-1.59765m2.8164 1.22265l-.92968-.79687m14.74218 2.89453l3.64454-6.01172m-3.64454 6.01172l-2.44921-.14063m2.98046-.73437l-1.22656-.07031m14.13672 1.01562l3.39453-6.15234m-2.90234 5.25781l-1.22656-.01953m15.5039 1.34375l.48438-7.01172m-.48438 7.01172l-2.24219 1"/><g clip-path="url(#T)"><path fill="none" stroke="#000" stroke-linecap="round" stroke-linejoin="round" stroke-miterlimit="10" stroke-width=".5" d="M147.3086 412.57031l-6.6172 2.36328"/></g><path fill="none" stroke="#000" stroke-linecap="round" stroke-linejoin="round" stroke-miterlimit="10" stroke-width=".5" d="M147.3086 412.57031l1.8125 1.65235m11.64452-1.125l-6.90234 1.3125m5.89844-1.1211l.76953.95313m13.48438.44531l-6.77344-1.8711m5.78906 1.60157l.26563 1.19531m13.41406.3086l-5.53125-4.33594m4.72656 3.70312l-.21484 1.21094m14.51953-.83594l-5.90235-3.82031m5.04297 3.26172l-.10547 1.22265m12.98438.52344l-3.3086-6.19922m2.82813 5.29688l-.6836 1.01953m13.32813.26172l-1.00781-6.95313m.85937 5.94141l-.98828.72656m14.91406.1875l-1.93359-6.75781m1.9336 6.75781l-1.76563 1.70313m16.46875-2.47656l-4.71094-5.21485m4.71094 5.21485l-.83594 2.30859m13.58985-1.89453l-3.58985-6.03907m3.07032 5.16016l-.63672 1.05078m16.16797-2.77734l-6.98047-.82813m5.96484.70703l.44531 1.14063m13.79688-2.3164l-6.80078 1.76171m5.8125-1.5039l.82812.90234m11.13672-3.6289l-2.125 6.69921m1.8164-5.72265l1.20313-.22266m10.7539 6.0586l1.21095-6.92188m12.33593 6.95312l.7461-6.98437m12.02343.10156l1.83594 6.78125m-1.57031-5.79687l.89844-.83594m13.76562-.20313l-1.39453 6.88672m1.1914-5.88281l1.17579-.34766m9.09375.3711l5.10156 4.83593m-4.35937-4.1328l.32812-1.1836m11.91016.89453l5.77343 4.00781m-5.77343-4.00781l.28906-2.4375m.55078 3.01953l.14453-1.21875m11.92969 1.39453L400.27344 415m-6.57422-2.49219l-.3086-2.4336m1.26563 2.79688l-.3086-2.43359m1.26563 2.79687l-.15625-1.21875m11.35547 1.31641l6.97656.84375m-6.97656-.84375l-.88281-2.28906m1.89844 2.41406l-.88282-2.28906m1.89844 2.41015l-.4414-1.14453m12.18359 3.09766l6.0625-3.55469m-6.0625 3.55469l-2.08985-1.28516m16.28125 2.28125l4.3086-5.55078m-3.6836 4.7461l-1.20703-.21094m15.34766 1.6836l1.40625-6.88282m-1.20313 5.88281l-1.17578.34766m15.49219.6875l-1-6.95313m1 6.95313l-1.98047 1.44922"/><g clip-path="url(#U)"><path fill="none" stroke="#000" stroke-linecap="round" stroke-linejoin="round" stroke-miterlimit="10" stroke-width=".5" d="M147.1836 398.94922l-6.3672 2.97656"/></g><path fill="none" stroke="#000" stroke-linecap="round" stroke-linejoin="round" stroke-miterlimit="10" stroke-width=".5" d="M146.25781 399.38281l.98047.73828m12.7539-1.95703l-5.35546 4.55078m4.57812-3.89062l1.14063.45312m13.75.65625l-6.95313 1.00782m5.94141-.85938l.72656.98828M185.66406 403.5l-3.4375-6.125m2.9375 5.23438l-.66015 1.03515m10.9453-.19531l3.6211-6.02344m-3.09375 5.14844l-1.22656-.0664m13.52734.58984l4.59375-5.31641m-3.92578 4.54297l-1.19531-.27344m14.57813 1.53516l3.125-6.29297m-3.125 6.29297l-2.45313.07031m17.07813.28516l.5078-7.00782m-.43359 5.98829l-1.125.49609m14.94141.51953l-.64844-6.9961m.55469 5.97657l-1.02734.67578m14.125.35938l-.02344-7.02735m.02344 7.02735l-2.16016 1.16015m18.77344-3.5l-6.6211-2.34765m5.66016 2.0039l.17969 1.21485m14.20703-1.23829l-6.83985-1.61718m5.84375 1.3828l.3125 1.1875m8.64454-4.6953l3.86328 5.87109m8.19531-1.46484l6.3789-2.94141m-5.45312 2.51172l-.97656-.74219m15.6289-3.6875l1.85547 6.77735m-1.58593-5.79297l.89062-.83985m11.1836.28516l3.79687 5.91406m-3.79688-5.91406l1.20313-2.14063m11.74219 2.41407l4.53515 5.37109m-3.875-4.58984l.45704-1.14063m17.66796 1.59375l-6.40234 2.89844m6.40234-2.89844l1.94141 1.5m11.14063-1.92969l-5.9375 3.76172m5.9375-3.76172l2.1328 1.21094m-3-.66406l2.13282 1.21094m12.04688-1.76172l-5.9336 3.76953m5.9336-3.76953l2.1328 1.21094m-2.99609-.66407l2.13282 1.21094m-2.9961-.66016l1.0664.60157m14.03126-1.60547l-6.04688 3.58203m6.04688-3.58203l2.09375 1.27344m-2.97266-.75391l1.04688.63672m6.92969 2.09765l6.38671-2.92968m-5.45703 2.5039l-.97656-.7461m16.89063 3.20704l-.66797-6.9961m.66796 6.9961l-2.04687 1.35156m17.35938-2.22265l-4.66407-5.25391m4.66406 5.2539l-.85546 2.30079m14.89843-3.20313L460.5 398.71094m6.1211 3.45312l-.0586 2.45313m-.83203-2.95313l-.0586 2.45313"/><g clip-path="url(#V)"><path fill="none" stroke="#000" stroke-linecap="round" stroke-linejoin="round" stroke-miterlimit="10" stroke-width=".5" d="M146.11719 384.32031l-4.23438 5.60547"/></g><path fill="none" stroke="#000" stroke-linecap="round" stroke-linejoin="round" stroke-miterlimit="10" stroke-width=".5" d="M145.5039 385.13672l1.21094.1914m12.50782-1.15625l-3.81641 5.90235m3.26172-5.04297l1.22266.10547m8.34765-.58985l4.78125 5.15235m-4.08594-4.40235l.40235-1.16015m11.20703 3.8711l6.80469-1.76563m-5.8125 1.50781l-.83203-.90625m13.49609 2l6.125-3.4414m-6.125 3.4414l-2.0664-1.32422m15.41015 1.3789l6.0625-3.55077m-6.0625 3.55078l-2.08984-1.28516m19.66406 2.80469l-2.45313-6.58594m2.09375 5.625l-.8125.91797m14.16406.14453l-1.80859-6.79297m1.8086 6.79297l-1.79688 1.66797m16.58594-2.48047l-4.75781-5.16797m4.7578 5.16797l-.8125 2.3164m12.89063-1.57812l-2.28125-6.64453m2.28125 6.64453l-1.67187 1.79297m14.4375-1.65234l-1.1836-6.92578m1.01172 5.91796l-.96875.75m16.78125-1.24609l-5.83203-3.91797m4.98438 3.34766l-.12891 1.22265m14.78125-3.47265l-6.8125 1.72265m6.8125-1.72265l1.64844 1.8164m11.63281-1.9414l-6.7461 1.97265m5.76563-1.6875l.85547.87891m13.58203-.23828l-7.02734.1211m7.02734-.1211l1.1875 2.14844m-2.21094-2.1289l1.1875 2.14452m13.11328-1.59765l-6.95312-1.01172m6.95312 1.01172l.82813 2.3125m-1.83984-2.45704l.82812 2.3086m-1.83984-2.45703l.41406 1.15234m14.92578-.85937l-6.95703-1.01172m6.95703 1.01172l.82422 2.3125m-1.83594-2.46094l.82813 2.3125m13.10547-4.35547l-6.16797 3.3711m6.16797-3.3711l2.04687 1.35156m-2.94531-.85937l2.05078 1.34765m11.75781-2.42187l-5.36328 4.53906m5.36328-4.53906l2.28125.90625m-3.0586-.2461l2.27735.91016m11.85938-1.52344l-5.44922 4.44141m5.44922-4.4414l2.26172.95312m-3.0547-.30469l2.26173.94922m-3.05469-.30469l1.1289.47656m14.03516-1.39843l-5.97265 3.70312m5.97265-3.70312l2.11719 1.23047m-2.98828-.69532l2.1211 1.23438m-2.98829-.69531l1.0586.61718m14.51953.27735l-7.02344-.23828m7.02344.23828l1.07812 2.20312m-2.10156-2.23828l.53906 1.10156m11.8164 1.97657l-3.05859-6.32422m3.0586 6.32422l-1.44922 1.98046m1.0039-2.89843l-.72656.98828m14.85156-.27344l-3.78515-5.91797m3.78515 5.91797l-1.20703 2.14063m.65625-3l-.60547 1.0664m15.46094-1.15625l-5.76562-4.01953m5.76562 4.01953l-.29297 2.4336m-.54687-3.01954l-.29297 2.4375"/><g clip-path="url(#W)"><path fill="none" stroke="#000" stroke-linecap="round" stroke-linejoin="round" stroke-miterlimit="10" stroke-width=".5" d="M146.17969 371.05078l-4.35938 5.51563"/></g><path fill="none" stroke="#000" stroke-linecap="round" stroke-linejoin="round" stroke-miterlimit="10" stroke-width=".5" d="M146.17969 371.05078l2.41406.4414m-3.05078.35938l1.20703.22266m11.76953-1.5664l-2.41016 6.60156m2.41016-6.60157l2.4336-.33594m8.70312.26172l1.94922 6.75m-1.94922-6.75l1.76172-1.70703m-1.48047 2.6875l.88281-.85156m11.47656.14453l3.29688 6.20313m-2.8164-5.30079l.68359-1.01953m12.35547.01563l2.89062 6.40625m-2.47266-5.47266l.75-.97265m14.4336 6.65234l-1.6836-6.82031m1.6836 6.82031l-1.82813 1.63672m1.58203-2.6289l-.91406.8203m16.51172-1.22265l-5.75781-4.03125m5.75781 4.03125l-.30078 2.4336m14.23047-4.07032l-6.98828-.75781m6.98828.75781l.91016 2.27734m-1.92579-2.38671l.45313 1.13671m13.88672-1.67187l-7.00781.53125m7.0078-.53125l1.3125 2.07422m-2.33202-1.9961l1.3125 2.07422m13.01953-1.59765l-7-.57813m7 .57813l.96875 2.2539m-1.98828-2.33594l.97265 2.25391m13.375-2.51172l-7.02734.10156m7.02734-.10156l1.1836 2.15235m-2.20703-2.13672l1.18359 2.14844m13.13672-2.47657l-6.98828.72656m6.98828-.72656l1.3711 2.03516m-2.38673-1.92969l.6836 1.01563m13.27343-2.3711l-6.24218 3.22266m6.24218-3.22266l2.01953 1.39844m-2.92578-.92969l1.00782.69922m13.2578-1.08203l-6.33202 3.05469m6.33203-3.05469l1.97656 1.45313m-2.89844-1.00782l.98828.72656m13.5547.88672l-6.94532-1.0625m6.94531 1.0625l.8125 2.31641m-1.82031-2.47266l.40234 1.16016m13.96094-1.47266l-7.02344-.125m7.02344.125l1.11328 2.1836m-2.13281-2.20313l.55469 1.09375m13.71484-1.8086l-6.89453 1.34376m6.89453-1.34375l1.54688 1.90625m-2.55079-1.71094l.77344.95313m13.23047-2.06641l-6.26562 3.17969m6.26562-3.17969l2.00781 1.41406m10.59766-2.36719l-4.84766 5.08594m4.84766-5.08594l2.36328.66016m-3.0664.07813l1.17968.33203m12.6875-1.20703l-4.54297 5.35937m4.54297-5.35937l2.39844.51953m-3.0586.25781l2.39844.52344m12.32813-.41406l-6.04297 3.58593m6.04297-3.58594l2.09375 1.27344m-2.97266-.7539l2.09375 1.27734m12.5664-.42578l-6.97655.84375m6.97656-.84375l1.40234 2.01172m-2.41797-1.89063l1.40235 2.01172m12.90625-1.1289l-6.9336-1.16407m6.9336 1.16406l.77734 2.32422m-1.78906-2.49609l.78125 2.32813m12.3711-.07422l-4.58204-5.32813m4.58203 5.32813l-.89453 2.28515m.22656-3.0625l-.4453 1.14453m14.875-.83203l-5.48048-4.39844m5.48047 4.39844l-.45703 2.41016m-.33984-3.05078l-.45704 2.41015"/><g clip-path="url(#X)"><path fill="none" stroke="#000" stroke-linecap="round" stroke-linejoin="round" stroke-miterlimit="10" stroke-width=".5" d="M144.8086 357.07422l-1.6172 6.83984"/></g><path fill="none" stroke="#000" stroke-linecap="round" stroke-linejoin="round" stroke-miterlimit="10" stroke-width=".5" d="M144.8086 357.07422l2.375-.6211m12.23827 1.22657l-4.21093 5.625m4.21094-5.625l2.42187.3789m11.10547-.20312l-4.64063 5.27734m4.64063-5.27734l2.39062.5664m-3.0664.19922l1.19531.28516m13.88281.72266l-6.8125 1.72656m6.8125-1.72656L189 361.4492m-2.64063-1.5664l1.64844 1.8164m-2.64062-1.5664l.82422.91016m14.53515-1.125l-6.9336 1.15234m6.9336-1.15234l1.49219 1.94922m-2.5-1.78125l1.49219 1.94531m-2.5-1.77734l1.48828 1.9453m-2.5-1.77733l.7461.97265m15.62109-.51562l-6.98438-.77344m6.98438.77344l.90625 2.28125m-1.92188-2.39454l.90625 2.28125m-1.92187-2.39062l.90625 2.27734m14.45703-2.26562l-7.01563-.34766m7.01563.34766l1.04297 2.21875m-2.0625-2.26953l1.04297 2.21875m-2.06641-2.26953l1.04687 2.21875m14.31641-2.35157l-7.02734.1211m7.02734-.1211l1.1875 2.14454m-2.21094-2.12891l1.1914 2.14844m-2.21093-2.12891l.59375 1.07422m14.72266-1.58594l-6.94531 1.07031m6.9453-1.0703l1.46876 1.96483m-2.47656-1.80859l1.46875 1.96485m12.79296-2.42579l-6.8203 1.6836m6.8203-1.6836l1.63672 1.82813m-2.6289-1.58203l.8203.91015m13.4922-1.13671l-6.83204 1.64453m6.83204-1.64454l1.6289 1.83594m-2.6211-1.59765l.8125.91796m13.41407-1.43359l-6.67187 2.19922m6.67187-2.19922l1.77344 1.69531m-2.74219-1.375l.88672.84766m13.2461-1.55469l-6.3672 2.97266m6.3672-2.97266l1.96093 1.47266m11.6289-.59766l-6.91796 1.22266m6.91797-1.22266l1.51172 1.9336m-2.51563-1.75782l1.50781 1.9336m12.73438-2.44922l-6.76563 1.89844m6.76563-1.89844l1.69531 1.77734m-2.67969-1.5l.84766.88672m13.1836-1.84375l-6.22657 3.26172m6.22656-3.26172l2.02344 1.38281m11.11719-1.67968l-5.875 3.85546m5.875-3.85546l2.14844 1.17968m11.16015-1.1914l-5.86328 3.875m5.86328-3.875l2.15235 1.17578m10.52734-1.89453l-4.59766 5.3164m4.59766-5.3164l2.39453.54687m10.60938-.78906L395 363.39063m3.97266-5.79688l2.4375.27734m-3.01563.56641l1.21875.13672m12.3789-1.16016l-3.3828 6.16016m3.3828-6.16016l2.45313.03125m-2.94531.86328l1.22656.01954m13.6914.04296l-5.60155 4.2422m5.60156-4.2422l2.22656 1.03125m-3.04297-.41406l1.11328.51563m13.53907-.14844l-6.64454 2.27734m6.64454-2.27734l1.79296 1.67578m-2.7578-1.34766l.89452.83985m13.4336.96094l-6.74219-1.98047m6.74219 1.98046l.4961 2.40235m-1.47657-2.6914l.2461 1.20312m13.05468.67969l-4.7539-5.17188m4.7539 5.17188l-.8125 2.3164m.1211-3.0664l-.40626 1.15625"/><g clip-path="url(#Y)"><path fill="none" stroke="#000" stroke-linecap="round" stroke-linejoin="round" stroke-miterlimit="10" stroke-width=".5" d="M143.98438 343.66406l.03125 7.02735"/></g><g clip-path="url(#Z)"><path fill="none" stroke="#000" stroke-linecap="round" stroke-linejoin="round" stroke-miterlimit="10" stroke-width=".5" d="M143.98438 343.66406l2.16015-1.16015"/></g><path fill="none" stroke="#000" stroke-linecap="round" stroke-linejoin="round" stroke-miterlimit="10" stroke-width=".5" d="M158.76563 343.97656l-2.90235 6.40235m2.90234-6.40235l2.44922-.15234m11.9375.90625l-5.04297 4.89453m5.04297-4.89453l2.33594.7539m-3.07031-.04296l1.16797.3789m13.55078-.11328l-6.38281 2.9414m6.3828-2.9414l1.95313 1.48438m-2.8828-1.0547l1.95312 1.48438m12.55859-1.0625l-6.91797 1.23829m6.91797-1.23829l1.51563 1.9297m-2.52344-1.75l1.51562 1.92968m-2.51953-1.75l.75781.96484m14.5625-1.35547l-6.90625 1.30079m6.90625-1.30079l1.53516 1.91407m-2.53906-1.72657l1.53515 1.91797m-2.53906-1.72656l.76563.95703m14.54687-1.40234l-6.88281 1.4336m6.88281-1.4336l1.5664 1.88672m-2.5703-1.67579l1.5703 1.88672m12.72657-2.1914l-6.83984 1.6211m6.83984-1.6211l1.6211 1.83984m-2.6172-1.60547l1.6211 1.84375m-2.61719-1.60547l.8125.91797m14.48047-1.44922l-6.8086 1.73829m6.8086-1.73829l1.65234 1.8125m-2.64453-1.55859l1.65235 1.8125m-2.64063-1.5625l.82422.91016m14.23828-2.0586l-6.34375 3.02735m6.34375-3.02735l1.97266 1.46094m-2.89453-1.01953l.98437.73047m12.52735-2.17969l-4.89454 5.04297m4.89454-5.04297l2.35937.6836m11.63281.23046l-6.24609 3.21875m6.2461-3.21875l2.01562 1.39453m11.6875.32032l-7.02344-.21485m7.02344.21485l1.08594 2.20312m12.17578-2.9375l-6.91797 1.2539m6.91797-1.2539l1.51953 1.92578m-2.52735-1.74219l.76172.96094M333.71875 346l-6.61719 2.35547M333.71875 346l1.8125 1.65234m-2.77344-1.30859l1.8125 1.65234m12.5625-1.67187l-6.8164 1.70703m6.8164-1.70703l1.64453 1.82422m-2.6328-1.57422l.8203.91015m13.58203-.54296l-7.01171.47265m7.01171-.47265l1.29297 2.08593m12.02735-1.72656l-7.02344-.2461m6.0039.21094l.53516 1.10157m13.78125-1.5625l-6.98828.7461m6.98828-.7461l1.375 2.03125M400 345.37109l-6.02734 3.61329M400 345.37108l2.10156 1.26954m10.13281-2.39844l-3.86718 5.8711m3.86718-5.8711l2.44141.23047m10.80469-.27344l-3.72656 5.95703m3.72656-5.95703l2.44531.17187m11.78125.65235l-5.55078 4.3086m5.55078-4.3086l2.23828 1.00781m11.76953.57422l-6.93359 1.14453m6.9336-1.14453l1.48827 1.94922m11.66407-.1875l-6.61328-2.3789m6.61328 2.3789l.35156 2.42969m-1.3125-2.77344l.17578 1.21094"/><g clip-path="url(#aa)"><path fill="none" stroke="#000" stroke-linecap="round" stroke-linejoin="round" stroke-miterlimit="10" stroke-width=".5" d="M147.21484 332.44531l-6.42968 2.83594"/></g><path fill="none" stroke="#000" stroke-linecap="round" stroke-linejoin="round" stroke-miterlimit="10" stroke-width=".5" d="M147.21484 332.44531l1.9297 1.51953m11.3164-1.67187l-6.28906 3.13672m6.28906-3.13672l1.9961 1.42578m10.64062-2.35547l-4.9336 5m4.9336-5l2.35156.69922m10.57031-1.03516l-4.14844 5.67188m4.14844-5.67188l2.42969.35157m12.13672 1.35156l-6.65235 2.26562m6.65235-2.26562l1.78906 1.67969m-2.75781-1.35157l.89453.83985m13.57422.08984l-7.02344-.25m7.02344.25l1.07422 2.20313m-2.09375-2.2422l1.07422 2.20704m13.23437-2.73828l-6.96875.88672m6.96875-.88672l1.41797 2.0039m-2.42969-1.875l1.41406 2.00782m12.69532-2.98438l-6.53516 2.58203m6.53516-2.58203l1.86718 1.59375m-2.8164-1.21484l1.86719 1.58984m12.35156-2.07812l-6.4414 2.80469m6.4414-2.8047l1.92187 1.52735m-2.85937-1.1211l1.92187 1.52735m12.22656-2.14844l-6.23828 3.23438m6.23828-3.23438l2.02344 1.39454m-2.92969-.92579l1.01172.69922m13.3086-.96875l-6.42969 2.83594m6.42969-2.83594l1.92578 1.51563m11.6211-.76563l-6.89845 1.33594m6.89844-1.33594l1.54297 1.91016m11.83594-1.24219h-7.02735m7.02735 0l1.15234 2.16797m11.8086-3.71094l-6.3125 3.08594m6.3125-3.08594l1.98437 1.4375m10.78516-2.2461l-5.22657 4.69923m5.22657-4.69922l2.30468.84375m-3.0664-.16016l1.15234.42188m12.74219-1.29297l-4.85938 5.07812m4.85938-5.07812l2.35937.66797m-3.0664.07031l1.17969.33203m13.80078.53906l-6.77735 1.85938m5.78907-1.58985l.84375.89063m9.6875 3.26172l.76562-6.98438m-.65234 5.96875l-1.14063.45313m17.64453-4.88281L380.75 335.8164m4.99219-3.33985l1.08203.58203m11.1289-2.57421l-1.93359 6.7578m1.65234-5.77343l1.19922-.25781m14.52344.98828l-6.1875 3.32812m5.28906-2.84375l1.01953.6797m13.22266-1.11329l-6.24219 3.22656m5.33203-2.75781l1.01172.69922m13.10157-1.36719l-6.01954 3.625m6.01954-3.625l2.10546 1.26563m11.71094.44921l-7.02344.19532m7.02344-.19531l1.21485 2.1328m-2.23438-2.10546l.60547 1.0664m13.73047-.96093l-7.02735-.07031"/><g clip-path="url(#ab)"><path fill="none" stroke="#000" stroke-linecap="round" stroke-linejoin="round" stroke-miterlimit="10" stroke-width=".5" d="M467.07422 333.89844l1.13281 2.17578"/></g><path fill="none" stroke="#000" stroke-linecap="round" stroke-linejoin="round" stroke-miterlimit="10" stroke-width=".5" d="M466.05078 333.88672l.5664 1.08984"/><g clip-path="url(#ac)"><path fill="none" stroke="#000" stroke-linecap="round" stroke-linejoin="round" stroke-miterlimit="10" stroke-width=".5" d="M147.10938 318.91406l-6.21875 3.26953"/></g><path fill="none" stroke="#000" stroke-linecap="round" stroke-linejoin="round" stroke-miterlimit="10" stroke-width=".5" d="M147.10938 318.91406l2.02734 1.3789m-2.9336-.90624l2.03125 1.38281m-2.93359-.90625l1.01172.6914m14.1289-1.61327l-6.25 3.21484m6.25-3.21484l2.01173 1.39843m-2.92188-.92968l1.00781.69921m12.0039-2.5078l-3.82421 5.89452m3.26563-5.03906l1.22265.10938m14.22266 2.42187l-6.96875-.88281m5.95703.75781l.4336 1.14453m13.91405-1.23828l-7.01171-.44531m7.01172.44531l1.01562 2.23438m-2.03516-2.29688l.50782 1.11719m13.83203-1.375l-7.02344.19531m7.02344-.19531l1.21484 2.13672m-2.23437-2.10547l1.21093 2.13281m12.97266-3.09375l-6.71875 2.05469m6.71875-2.05469l1.73438 1.73828m-2.71094-1.4375l1.73437 1.73438m12.59375-1.90235l-6.79297 1.79297m6.79297-1.79297l1.66797 1.80079m-2.65625-1.54297l1.66797 1.80078m12.66797-1.9336l-6.85547 1.53907m6.85547-1.53907l1.59766 1.86329m-2.59375-1.63672l.79687.92968m13.48438-1.28515l-6.79688 1.79687m6.79688-1.79687l1.66406 1.80078m-2.65625-1.53906l.83594.90234M280.5 319.48047l-6.69531 2.13672m6.69531-2.13672l1.7539 1.71484m-2.73046-1.40625l.8789.85938m13.53516-.64063l-6.94531 1.07813m6.94531-1.07813l1.47266 1.96485m-2.48438-1.8086l.73828.98438m13.58594-.04688l-6.9375-1.10937m6.9375 1.10937l.79688 2.32422m12.32812-4.14453l-6.5586 2.53125m6.5586-2.53125l1.85547 1.60547m-2.8125-1.23438l.92969.80079m12.93359-1.9297l-5.74219 4.04688m5.74219-4.04687l2.1914 1.10937m-3.02734-.51953l1.09766.55469m12.625-1.64453l-4.88281 5.05078m4.8828-5.05078l2.35938.67578m-3.0703.0586l1.17968.33593m12.30469-1.5l-3.80078 5.91016m3.80078-5.91016l2.4453.20313m-2.99608.65625l1.22265.10156m13.73828.15625l-5.98828 3.67578m5.11719-3.14063l1.05469.6211m12.79297-1.61719l-5.3125 4.59766m5.3125-4.59766l2.28906.88281m10.58984-1.3086l-4.4414 5.44532m4.4414-5.44531l2.40625.48047m7.45313-1.04688l2.46875 6.57813m-2.10938-5.6211l.8125-.91796m15.10547 6.30859l-3.45703-6.11719M440 322.25781l-6.13672-3.42187M440 322.2578l-.04687 2.45313m13.78125-4.60156l-6.97266.875m6.97266-.875l1.41015 2.0078m-2.42578-1.8789l.70703 1.0039m13.51172-1.66796l-6.75 1.94531"/><g clip-path="url(#ad)"><path fill="none" stroke="#000" stroke-linecap="round" stroke-linejoin="round" stroke-miterlimit="10" stroke-width=".5" d="M466.9375 319.57422l1.70703 1.76172"/></g><path fill="none" stroke="#000" stroke-linecap="round" stroke-linejoin="round" stroke-miterlimit="10" stroke-width=".5" d="M465.95703 319.85938l.85156.8789"/><path fill="#00f" fill-rule="evenodd" d="M175.19922 458.77344h8.61719V448.625h-8.6172v10.14844"/><path fill="azure" fill-rule="evenodd" d="M177.03125 450.45703h.83203v2.82422h3.28516v-2.82422h.83594v6.48047h-.83594v-2.91406h-3.28516v2.91406h-.83203v-6.48047"/><path fill="#00f" fill-rule="evenodd" d="M397.11719 458.77344h8.61719V448.625h-8.6172v10.14844"/><path fill="azure" fill-rule="evenodd" d="M398.94922 450.45703h.83203v2.82422h3.28516v-2.82422h.83593v6.48047h-.83593v-2.91406h-3.28516v2.91406h-.83203v-6.48047"/><path fill="#ff3030" fill-rule="evenodd" d="M322.35938 441.01953h7.6914V430.8711h-7.6914v10.14844"/><path fill="azure" fill-rule="evenodd" d="M324.1914 432.70703h.83204v5.73828h3.19531v.73828h-4.02734v-6.47656"/><path fill="#ff3030" fill-rule="evenodd" d="M167.01563 418.82813h7.6914v-10.14844h-7.6914v10.14844"/><path fill="azure" fill-rule="evenodd" d="M168.84766 410.51172h.83203v5.74219h3.19531v.73828h-4.02734v-6.48047"/><path fill="#00f" fill-rule="evenodd" d="M370.48438 405.51172h8.62109v-10.14453h-8.6211v10.14453"/><path fill="azure" fill-rule="evenodd" d="M372.3164 397.19922h.83594v2.82422h3.28516v-2.82422h.83203v6.48047h-.83203v-2.91797h-3.28516v2.91797h-.83593v-6.48047"/><path fill="#00f" fill-rule="evenodd" d="M197.39063 396.63281h8.61718v-10.14453h-8.61719v10.14453"/><path fill="azure" fill-rule="evenodd" d="M199.22266 388.32031h.83203v2.82422h3.28515v-2.82422h.83594v6.48047h-.83594v-2.91406h-3.28515v2.91406h-.83203v-6.48047"/><path fill="#ff3030" fill-rule="evenodd" d="M424.4414 396.63281h7.69141v-10.14453h-7.6914v10.14453"/><path fill="azure" fill-rule="evenodd" d="M426.27344 388.32031h.83203v5.74219h3.19531v.73828h-4.02734v-6.48047"/><path fill="#ff3030" fill-rule="evenodd" d="M193.64453 356.6875h7.69531v-10.14453h-7.6953v10.14453"/><path fill="azure" fill-rule="evenodd" d="M195.47656 348.375h.83594v5.74219h3.1914v.73828h-4.02734V348.375"/><path fill="#ffffe0" fill-rule="evenodd" d="M346.1836 354.03516h22.17968v-10.19141H346.1836v10.1914"/><path fill-rule="evenodd" d="M349.6836 345.67578h.5078v6.29297h-.78906v-4.48828h-1.38671v-.55469l.55859-.0664.2539-.0547.23047-.08984.20313-.14062.17187-.21094.14063-.29297.10937-.39453m4.8125 0l.23047.01953.21875.05469.20703.08984.19532.1211.18359.14844.17188.17578.30078.41796.24609.4961.17969.54687.10937.57813.03906.58984-.03906.59375-.10937.58594-.17969.55078-.2461.5039-.30077.4297-.17188.17578-.1836.15625-.1953.12109-.20704.09375-.21875.05469-.23047.01953-.23046-.01953-.21875-.05469-.20704-.09375-.1953-.1211-.1875-.15624-.16798-.17579-.30469-.42968-.24218-.5039-.17969-.55079-.11328-.58594-.03516-.59375h.83203l.02735.5625.08203.50781.1289.44141.16016.375.1914.30078.21094.22266.22266.13672.22656.04687.22657-.04687.22265-.13672.21094-.22266.1914-.30078.16016-.375.125-.4414.08203-.50782.03125-.5625-.03125-.5586-.08203-.5039-.125-.4336-.16015-.36718-.19141-.29297-.21094-.21094-.22265-.1328-.22657-.04688-.22656.04687-.22265.13281-.21094.21094-.1914.29297-.16017.36719-.1289.4336-.08203.5039-.02735.5586h-.83203l.03516-.58985.11328-.57813.17969-.54687.24219-.4961.30468-.41796.16797-.17579.1875-.14843.19531-.1211.20704-.08984.21875-.05469.23046-.01953m5.08985 0h.51172v6.29297h-.78907v-4.48828h-1.38671v-.55469l.55859-.0664.2539-.0547.22657-.08984.20312-.14062.17578-.21094.14063-.29297.10547-.39453m2.82422 2.17578h.78515l.02344-.3164.0586-.28907.09765-.25.14063-.21484.17968-.17578.22266-.1289.26562-.07813.3086-.03125.23828.02344.22265.0625.20704.10156.17578.13672.15234.17578.11328.20312.07031.23828.02344.26563-.01953.26562-.0664.22657-.10938.1914-.15625.17188-.19922.16015-.25.16797-.63281.38672-.53906.3164-.4375.31641-.34375.32422-.26563.33594-.1914.35156-.125.36719-.06641.39453-.02344.41797h4.21485v-.73828h-3.33204l.08204-.28516.11328-.23828.14843-.19922.1875-.17969.23047-.17187.27735-.17578.71875-.41797.41406-.20313.34765-.23437.28125-.25.21875-.26563.16407-.27734.10937-.28515.0625-.28516.02344-.28125-.04297-.38281-.1211-.34766-.1875-.3086-.25-.26171-.30468-.21485-.34375-.15625-.38281-.10156-.40625-.03125-.4336.03125-.39843.09766-.35547.16797-.30469.23437-.2461.30469-.1875.375-.11718.44531-.03906.51953"/></g></defs><use xlink:href="#ae"/></svg>