<svg xmlns="http://www.w3.org/2000/svg" role="img" xmlns:xlink="http://www.w3.org/1999/xlink" viewBox="142.45 309.95 326.84 171.84"><defs><clipPath id="a"><path d="M144 311.67188h1v168.65625h-1zm0 0"/></clipPath><clipPath id="b"><path d="M144 311.67188h324v168.65625H144zm0 0"/></clipPath><clipPath id="c"><path d="M387 479h3v1.32813h-3zm0 0"/></clipPath><clipPath id="d"><path d="M467 311.67188h1v168.65625h-1zm0 0"/></clipPath><clipPath id="e"><path d="M144 479h4v1.32813h-4zm0 0"/></clipPath><clipPath id="f"><path d="M146 480h2v.32813h-2zm0 0"/></clipPath><clipPath id="g"><path d="M153 479h9v1.32813h-9zm0 0"/></clipPath><clipPath id="h"><path d="M159 480h2v.32813h-2zm0 0"/></clipPath><clipPath id="i"><path d="M166 479h9v1.32813h-9zm0 0"/></clipPath><clipPath id="j"><path d="M172 480h2v.32813h-2zm0 0"/></clipPath><clipPath id="k"><path d="M180 479h8v1.32813h-8zm0 0"/></clipPath><clipPath id="l"><path d="M187 480h2v.32813h-2zm0 0"/></clipPath><clipPath id="m"><path d="M193 479h9v1.32813h-9zm0 0"/></clipPath><clipPath id="n"><path d="M200 480h2v.32813h-2zm0 0"/></clipPath><clipPath id="o"><path d="M206 480h9v.32813h-9zm0 0"/></clipPath><clipPath id="p"><path d="M213 480h3v.32813h-3zm0 0"/></clipPath><clipPath id="q"><path d="M220 479h8v1.32813h-8zm0 0"/></clipPath><clipPath id="r"><path d="M227 480h2v.32813h-2zm0 0"/></clipPath><clipPath id="s"><path d="M233 479h8v1.32813h-8zm0 0"/></clipPath><clipPath id="t"><path d="M239 480h2v.32813h-2zm0 0"/></clipPath><clipPath id="u"><path d="M247 478h7v2.32813h-7zm0 0"/></clipPath><clipPath id="v"><path d="M260 478h8v2.32813h-8zm0 0"/></clipPath><clipPath id="w"><path d="M273 478h8v2.32813h-8zm0 0"/></clipPath><clipPath id="x"><path d="M287 478h7v2.32813h-7zm0 0"/></clipPath><clipPath id="y"><path d="M300 479h8v1.32813h-8zm0 0"/></clipPath><clipPath id="z"><path d="M306 480h1v.32813h-1zm0 0"/></clipPath><clipPath id="A"><path d="M313 479h8v1.32813h-8zm0 0"/></clipPath><clipPath id="B"><path d="M320 479h3v1.32813h-3zm0 0"/></clipPath><clipPath id="C"><path d="M326 480h9v.32813h-9zm0 0"/></clipPath><clipPath id="D"><path d="M333 480h3v.32813h-3zm0 0"/></clipPath><clipPath id="E"><path d="M340 478h8v2.32813h-8zm0 0"/></clipPath><clipPath id="F"><path d="M353 479h8v1.32813h-8zm0 0"/></clipPath><clipPath id="G"><path d="M359 480h2v.32813h-2zm0 0"/></clipPath><clipPath id="H"><path d="M368 477h5v3.32813h-5zm0 0"/></clipPath><clipPath id="I"><path d="M380 477h7v3.32813h-7zm0 0"/></clipPath><clipPath id="J"><path d="M394 477h6v3.32813h-6zm0 0"/></clipPath><clipPath id="K"><path d="M409 476h2v4.32813h-2zm0 0"/></clipPath><clipPath id="L"><path d="M423 476h2v4.32813h-2zm0 0"/></clipPath><clipPath id="M"><path d="M435 476h4v4.32813h-4zm0 0"/></clipPath><clipPath id="N"><path d="M447 477h6v3.32813h-6zm0 0"/></clipPath><clipPath id="O"><path d="M461 477h5v3.32813h-5zm0 0"/></clipPath><clipPath id="P"><path d="M144 466h4v2h-4zm0 0"/></clipPath><clipPath id="Q"><path d="M144 453h4v2h-4zm0 0"/></clipPath><clipPath id="R"><path d="M144 439h4v2h-4zm0 0"/></clipPath><clipPath id="S"><path d="M144 426h4v2h-4zm0 0"/></clipPath><clipPath id="T"><path d="M144 412h4v4h-4zm0 0"/></clipPath><clipPath id="U"><path d="M144 398h4v5h-4zm0 0"/></clipPath><clipPath id="V"><path d="M144 384h3v7h-3zm0 0"/></clipPath><clipPath id="W"><path d="M144 370h3v7h-3zm0 0"/></clipPath><clipPath id="X"><path d="M144 356h2v9h-2zm0 0"/></clipPath><clipPath id="Y"><path d="M144 343h1v8h-1zm0 0"/></clipPath><clipPath id="Z"><path d="M144 332h4v4h-4zm0 0"/></clipPath><clipPath id="aa"><path d="M466 333h2v4h-2zm0 0"/></clipPath><clipPath id="ab"><path d="M144 318h4v5h-4zm0 0"/></clipPath><clipPath id="ac"><path d="M466 319h2v3h-2zm0 0"/></clipPath><g id="ad" clip-path="url(#clip1)"><path fill="#fff" fill-opacity="0" fill-rule="evenodd" d="M0 0h1000v1000H0zm0 0"/><path fill="#d3d3d3" fill-opacity="0" fill-rule="evenodd" d="M162.15234 355.86719l-.23437.29297.0586.23437.11718.17188.17578.23437.29297.34766.11328.0586.11719-.17188.0586-.23438.17577-.17578.46485-.17578h.69922l.23437.29297.28906.8164.0586.17579.17578.23046.35156.23438.69922.69922.17188.17578.23437.34765.23438.41016.28906.58203.41015.46485.23047.23437.23438.17578.11719.23047.17578.29297.17187 1.16406v.23438l.0586.28906.05859.11719.11719.11719.34765.41015.11719.17188.17578.17578.17578.23437.11719.17188.17188.35156.05859.23438.23437.40625.23438-.0586-.17578.17578-.0586.92969h-.58203l-.23437-.11328-.34766.11328-.11719.11719-.05859.29297-.0586.17578-.11718.17187-.46484.29297-.0586.23438-.0586.11328v.64453l.0586.17187v.41016l.0586.0586v.40624l.05859.40625.11719.17579.05859.05859.23047.64062-.0586.29297v.69922l-.05859.58203v.23438l-.0586.23047-.05468.35156v1.92187l.05469.1172h.42578l-.36719.11718-.02344.35156.89063 1.16797 1.74219.53906 1.33984.35938v.53906l.08984.8086.53516.71484 1.51953.26953.89063-.08594.08984 1.16406.53516.1797 1.16015-.1797 2.05469-.98437 1.16016-.36328 1.8789-.17578 1.69531-.1797-.17968.71876-1.51563.08594-1.25.08984-.80469.26953-1.07421.8086.26953.71875.53515.89843-.17968.625-.26563.8086.26563 1.07812.625.89844.80468.17969 1.25-.1797-.26562.72267.09766.5039.05468.29297v.17188l.0586.29296v.40625l.17578.1172.35156.11718h.40625l.29297-.17578.11328-.11719.0586-.11719.11718-.23047.0586-.17578.35156-.46484.23047-.17578.17578-.0586.17578.0586.0586.17578.11718.98828.05469.46875.0586.17188.11718.23437.17578.0586.8164.05859h.28907l.11719.23437.05859.40625.0586.35156v1.10547l.11718.29297.11719.34766.28906.69922.17578.35156.58203.7539.35157.17579.17187.0586.46875.23437.64063.46484.34765.23438.29297.17578.29297.05468.23047.0625.8164.34766.29297.17578.11328.17188.35157.35156.11719.17578.52343.64063v.28906l.0586.35156v.34766l.05859.35156.0586.28906.11718.0586.17188.05859h.17578l.58203.23437.17578.1172.17578.28905.17578.23438.11328.23437.29297.23047.11719.11719v.41016l.0586.05468.28906.23438.23437.11719.0586.11718.11718.17188.0586.11719.23047.23437.05859.17578.23437.0586.1172.05859-.1172.11328-.05859.11719v.11719l-.11719.29296-.11719.28907v.58203l.17579.11719.11718.05859.0586.11719.11719.11719.11328.05859.17578.34765.0586.35157.05858.40625v.17578l-.05859.17578-.11719.69922v.17187l.1172.17579.29296.29296h.40625l.17578.1172.11719.17187.11719.29296v.23438h-.52735l-.23047-.23438h-.23437l-.17578.0586-.0586.69922.0586.34765.11719.17579.17578.41015.11718.23047.28907.46875.17578.05469h.52344l.23437.0586.75781.64062.0586.29296v.23438l.05859.0586.23047.34765v.35156l-.11719.17188v.29297l.29297.28906.29297.17578.17187.0586.29297.17577.29297.1172.58203.40624.28906.23438.29297.17578.21875.16015.01563.01172.23047.17579.64062.52343.17578.23438.1172.17578.17577.17578.11328.17188v.64062l.1172.17578.46874.11719.58203.11719.23438.05859.23047.11328.29297.11719.11328.0586.58593.35156.28907.17187.17578.0625.17578.05469.17578.0586.69922.35155.28906.17579.23438.05468.28906.17578.23437.1172.64063.40624.29297.11719.17187.0586.23438.05859.41015.05859.23047.0586.23438.11718.0586.17188-.41017.17578.46875.0586.0586.29296.11328.23438.17578.05468.23438.0586.17578.05859.40625.11719.64062.23437.11719.17188.0586.23437v.17578l-.0586.1172-.0586.40624.23438.23438.11719.05859.34766.11719.64062.23047.17578.11718.28906.1172.17578.17577.23438.46485.58203 1.10546.17578.17579.34766.17578.17578.11719.35156.11718 1.04688.52344.23437.0586.46485.11327.29297.0586.46484.17578.75781.58203.23438.23438.34765.46484.17578.17578.28907.23438.8164.69921.29297.17579.28906.28906.29297.17578.29297.28906.69531.64063.17578.17578.29297.23437.28907.23438.46875.28906.64062.58203.34766.23438.23437.29297.34766.34765.35156.46485.9336.99218.34765.40625.11719.17579.23437.05859.11328.11719.64454.17578.23047.11328.23437.0586.29297.17577.23047.1172.9336.69921.40624.40625.23438.17578.40625.17578.23437.11719.8164.34766.34766.23437.23438.11719.29297.28906.23047.11719.7578.35156.35157.17188.23047.05859.29297.11719.23437.0586.8711.17577h.8164l.46875.23047.17188.0586.875.69921.46484.1172.29297.05858.17578.0586.23047.0586.46875.05859.34766.05859.35156.0586.40625.05859h.29297l.17187.0586v.23046l.17578.17578h.29297l.34766.0586.35156.05859.69922.11719h.64063l.46484-.23438.29297-.17578.17187-.11719.41016-.17187.28906-.17578.9336-.46485.46875-.29297.52343-.29296.46485-.17188.46484-.17578 1.05078-.46485.28906-.11718.41016-.11719.28906-.11719.52735-.17578 1.51562-.69922.58203-.34765.28907-.0586.29297-.0586.34765-.11718.875-.23047.35156-.11719h.11329l.23437-.05859.875-.23437.23438-.0586h.8125l.35156-.0586.8164-.11718.17188-.0586.35156-.05468.29297-.0586.23047-.05859.8164-.17578.17579-.0586h.34765l.23438-.05859.46484-.11718.75781-.17188.23438-.0586h.34765l.41016-.11718.28906-.0586 1.28516-.05859h.28906l.41016-.0586.23047-.05858h.17578l.875-.1172h.40625l.41015-.11718h.34766l.35156-.11328.8711-.0586h1.75l1.04687.28907.41016.11719.28906.11718.35156.11719.28907.11719 1.05078.17187.28906.0586h.29297l.29297.05859.17187.0586.41016.05859.17187.0586.1172.05858h.11718l.11719.0586.35156.0586h.11328l.41016.0664 1.92187.39453 1.92578.39453 1.51953.44922 1.69532.71875 2.14453.80469 1.60547-.71875 1.42968-.80469 1.16016-1.07813 1.25-.44921 3.03516-.71875 1.875-.35938 2.14453-1.34765 2.23437-1.25391 2.5-1.25781 1.69531-.44922 1.78516-.17969 1.16016-.26953.625.53906 1.33984-.26953.71485-.98828.98437-1.34375.44531-.17969.80469-.35937 1.875-.53907 1.78516-.44921 1.25-.26954 1.16015-.08984 1.69922-.08984 1.96094-.26954 1.25-.08984h.53906l.625-.08984h.89063l2.14453-.17969 2.41015-.17969 2.58985-.08984 1.69531.17969 1.60938.08984 1.42968.35938 1.16016.71875 1.875.98828 1.16015 1.52734.26563.71484.6289.08985.35548.89844.53515.53906.53516 1.52734 1.07422.35938h.53515l-.80469.53515.08985 1.70703.71484 2.69532.89063.80468.89453.98829.71484 1.2578 1.78516.53907 1.51953-.17969.35547 1.34375 1.60937-.80469.98047-.53906.26953.26953.31641-.21484.21875-.14453.80078.44922.44922-.35938h.35547l.53515-.26953.53907-.71875.53515-.26953.625-.98828 1.16016.44922.83984.3711 1.39454.61718 1.6953-.17969h1.60548l1.78515.08985.17969-1.70704.53516-1.34375.80468.26954.4922.84765.40233.40625-.08984.53906v.35938l.71485.44922.71093-.26953h1.42969l.35938.98828.4453 1.25781.71485 1.34375 1.25.6289 1.69531.62891.71485-.17969.17969-.53906.98046-.08984.44922.35937.08594 1.25782-.26563.6289-.53515.17969v.53906l.71484.98438.26563.53906.98437.98828.80078 1.07813-.26562.35937-.08985.89844-.625 2.33203-.35546 2.0664-.08985 1.79298-.17969.71875-.08984.53906v1.4375l-.98047 1.88281-.35937 1.70703-.53516.89844-.80469 1.16797-.26562.53906 2.05469 1.2539.08593.35938-.35546.53906-.08985-.17968v.80859l.08985 1.4375-.44532.71484-1.07422.09375-.26562.71485.53515.89844.8047.71875 1.16015.80859 1.33984.26953.44531.35938-.35546.44921-1.78907-.08984-1.25-.44922-.71484-.71875-.625-.08984-.17578 3.58984-.1875 1.3086h89.35937V311.70313h-55.26953v49.08203l.76172.125 3.28906.54296 2.02344 2.83594v2.7539l2.35156.33204 2.34766.33203h4.05078l-1.3789 4.16016-2.02344.70703-2.02344.70312-.54297.34375-2.59375 1.6172-.1875.11718-2.02344-2.07813-.73046-2.74218-2.67188-2.07813-1.375-3.5-.0664-.08203-1.95704-2.67188 2.75-1.41796v-49.08204H294.42187v91.41407l.1172.03125.1328.01172.07422.07421.10547.04688.08985.0586.08593.05859.08985.0586.29687.29687.0586.08984.03125.11719.02734.11719.01563.13671-.03125.1172-.0586.08983-.0586.08594-.04296.10547-.04688.10156-.02734.1211v.14453l.17578.26953.14844.14844.07422.08594.07422.07421.04296.10547.0625.08985.0586.08593.04297.10547.0586.08985.04687.10156.04296.10547.0586.08594.11719.17968.07421.07422.0625.08594.0586.08984.04297.10547.0586.08985.05858.08593.0625.08985.0586.08984.04297.10156.11719.17969.07421.07422.0586.08594.07422.07421.08984.0586.10547.04687h.14844l.1328-.01562.13282.01562.10156-.04687.07422-.07422.04688-.10156-.01563-.13281v-.14844l-.04687-.10547-.02735-.11719-.04687-.10156-.02735-.1211-.04296-.10156-.0625-.08984-.04297-.10156-.04297-.10547-.03125-.11719-.01563-.13281-.01171-.13672.08593-.0586.0586-.08593.12109-.03125.04297.10547.01562.1328v.1172l.0586.10156.0586.08984.08983.0586.14844.14843.0586.08985.04296.10547-.01171.10156.08593.0586.10547.04687.08594.0586.08984.05858.07422.07422-.11719.02735-.10546.04687-.08594.0586-.07422.07421-.0586.08985-.0625.08594-.02734.12109-.04687.10156-.04297.10547-.03125.11719-.01172.13281-.01563.13281v.14844l.02735.11719.04687.10547.04297.10156.0586.08984.07421.07422.08985.0586.07422.07421.08984.0586.0586.08984.04296.10547.04688.10156.11719.03125.1328.01563h.14845l.11718-.03125.10547.04297.04297.10547.04688.10156.02734.1211L299.5 410l.02734.11719.03125.1211.02735.11718.10547.04297.10156.04687.13281-.01562.14844.14844.0625.08593.07422.07422.07031.07422.08984.0625.10547.04297.10156.04297.1172.03125.13671.01562.11719-.03125.07422-.07422.02734-.11718-.01172-.13282-.03125-.12109-.02734-.11719.04297-.10547h.11719l.08984.0625.11719.02735h.14843l.13282.01562h.14843l.13282.01563.1328-.01563h.14845l.1328-.01562.13282-.01172.13672.01172.11719-.02735.13281-.01562.1914-.0586-.05859.17579-.01562.1328-.02735.1211-.01562.13281-.0586.08594-.1328.01563-.10548.04687-.10546.04297-.1172.03125-.11718.02735-.26563.03125h-.14843l-.13281.01562-.07422.07422.05859.08594.14844.14843.11719.1797.07421.0703.08985.0625.08984.0586.08594.0586.08984.05858.10156.04297.10547.0625.10547.04297.08594.0586.10547.04687.10156.04297.17969.11719.0586.08984-.04298.10156-.04687.10547.01562.13281.22266.22266.0586.08985.04296.10156.03125.1211.04297.10155.01563.13282.03125.11718.01171.13672.03125.11719.14844.14844.10156.04297.10547.04296.1172.03125.1328.01563.13672.01563h.11719l.11719-.03125.08984-.0586.04297-.10547.04688-.10156.04296-.10547.03125-.11719.01172-.1328v-.14845l-.01172-.1328-.01562-.13282-.03125-.11719-.04297-.10547-.04688-.10547-.04296-.10156-.04297-.10547-.01563-.13281.01563-.13281.02734-.11719.03125-.11719.02735-.1211.04687-.10155.08984-.0586.08594-.0625.07422-.07422.08984-.05859.22266-.22266.0586-.08593.07421-.07422.11719-.17969.0586-.08594v-.14844l-.07423-.07421-.10156-.04688-.10547-.04297-.10156-.04297-.0586-.08984-.04687-.10547-.02734-.11719.08984-.05859.11719-.03125.10156-.04297.17969-.11719.14844-.14843.01172-.13282-.01172-.10546-.08985-.0586-.1328.01563h-.14845l-.1328.01562-.13282-.01562-.1211-.03125-.08593-.0586-.07422-.07422-.0586-.08984-.0625-.08594-.11718-.17969-.0586-.08593.03125-.1211.08594-.05859.1211-.03125.05859-.08594v-.1211l-.03125-.11718-.0586-.08984-.05859-.08594-.04687-.10547-.02735-.11719-.01562-.1328.0586-.08985.07421-.07422.08984-.0586.1172-.17968.07421-.07422.0586-.08594.14843-.14844.1211-.03125.1328-.01562.13282.01562.07422.07422.04297.10547.01562.13281-.03125.1172-.11719.03124-.1328.01172-.14844.14844-.04297.10547-.04688.10156-.02734.1211-.03125.11718v.14844l.03125.11719.04297.10546.05859.08985.07422.07031.07422.07422.11719.03125.12109.02734.11719-.02734.1328-.01563h.1172l.08984.0586.07422.07422.04687.10546.0586.08594.10156.04688.13281.01562.10547.04297.08594.0586-.01172.10546-.07422.07422-.17969.11719-.05859.08984-.08984.0586-.07032.07422-.07421.07421-.0625.08985-.02735.11719-.01562.1328.01562.13282-.01562.13281v.14844l.01562.13281.02735.1172.03125.12108.07421.07422.08985.0586.08594.0586.08984.05858.11719.03125v.08594l-.10157.04688-.08984.0586-.26563.03124-.11718.02735h-.14844l-.10547.04296-.10156.04688-.0586.08984-.0625.23438-.01171.13281-.03125.1211-.01563.1328v.29298l-.01172.1328.01172.13673.01563.1328.1328.01563.13282.01172.1211.03125.08593.0586.07422.07421.04688.10547.04296.10157.01563.1328v.44532l-.01563.13281v.44532l.03125.26562.02735.11719.01562.13281.03125.11719.08594.21094.03125.26562v.14844l-.03125.11719-.02734.11718-.03125.1211-.02735.11719-.03125.11718-.03125.1211-.01171.1328-.01563.13282.08984.0586.1172-.03125.10155.01562.04688.10547-.03125.26562v.44141l-.04297.10547-.04688.10547-.04296.10156-.04297.10547-.0586.08594-.03125.12109-.04296.11719-.03125.11719-.01563.1328.01563.13282.05859.08984.10547.04688.08594.0586.05859.08593-.01172.13672-.03125.11719-.04297.10156v.44531l-.01562.13281v.14844l-.03125.11719-.04297.10547-.02735.11719-.04687.10546-.04297.10157-.03125.12109-.02734.11719-.03125.13281-.03125.11719-.02735.11719-.04297.10546-.03125.1172-.03125.12108-.01171.13282-.01563.13281v.29688l.02734.11718v.14844l.04688.39844.02734.11719.0586.08984.12109.03125h.14844l.13281-.01563.0586.08985v.11719l-.0586.08984-.08984.0586-.10157.04296-.10546.04688-.08985.05859-.08594.0586-.13671.01562-.1172-.03125-.1328-.01563-.10157.04688-.0625.08594-.01172.13671-.01562.13282-.03125.11719-.02735.11718-.01562.13281-.03125.1211v.29687l.01563.13282.03125.11718v.14844l.01171.13281v.14844l-.02734.11719-.04688.10156-.02734.1211-.03125.11718-.0586.08985-.07421.07421-.10156.04297-.10547.04688-.11719.02734-.1211.03125-.10156-.04687.0586-.08594.10547-.04688.02734-.11718.03125-.11719.02734-.1211.03125-.11718v-.14844l.01563-.13281-.03125-.11719-.04297-.10547-.10547.01563-.07422.07422-.10156.04296-.08984.0625-.07422.07422-.04297.10157-.01563.1328-.03125.1172L304.25 426l-.03125.11719-.02734.11719-.03125.12109-.02735.11719-.03125.11718-.04297.10547-.08984.0586h-.08984l-.1172-.03125-.03124-.08594.01562-.13672-.03125-.11719v-.14844l-.01171-.1328v-.14844l-.0625-.23438-.02735-.1211-.04297-.10156-.04687-.10546-.0586-.08594-.05859-.08985-.04297-.10546-.0625-.08594-.14844-.14844-.0703-.07422-.10548-.04687-.10547-.04297-.10156-.04297-.29687-.29688-.08985-.07421-.08594-.0586-.10546-.04297-.08985-.0625-.08594-.0586-.10546-.04296-.08985-.0586-.08594-.0625-.07421-.0703-.10547-.04688-.08594-.0586-.10547-.04296-.08984-.0625-.10156-.04297-.10547-.04297-.08594-.0586-.10547-.04687-.10547-.04297-.10156-.04687-.08985-.0586-.10156-.04297-.10547-.04296-.08984-.0625-.11719-.02735-.13281-.01562-.13281.01562H299.75l-.13281.01563-.11719-.03125-.08984-.0586-.07422-.07422-.08985-.05859-.10156-.04688h-.14844l-.12109-.02734-.10156-.04297-.07422-.07422-.11719-.17968-.08984-.0586-.10156-.04297-.08985-.0625-.10547-.04296-.08984-.0586-.08594-.0586-.10547-.04687-.0586-.08594-.05858-.08984-.04297-.10547-.04688-.10156-.07422-.07422-.08594-.0586-.07421-.07421-.08985-.0586-.22265-.22265-.04297-.10547-.03125-.26563.10547-.04296h.14453l.10547.04296.07421.07422.08985.0586.08594.0586.10546.04687.08985.05859.14844.14844.0703.07422.14845.14843.0625.08594.07421.07422.08594.0586.07422.07421.08985.0625.08984.0586.08594.05859.26953.17578.10156.04688.10547.04296.10156.04297.04688-.07421.05859-.08594.07422-.07422.07031-.07422.10547.04297.07422.07422.0586.08984.04296.10156.04688.10547.04296.10547.1211.02735.11719-.02735.07421-.08984.04297-.10547.0586-.08985.07422-.07421.10546-.04297.1172-.02735.1328.01172.08985.0586.14844.14843.05859.08985.04297.10547.04687.10156.04297.10547.04297.10156.10547.04688.10547.04296.13281.01563.08594-.0586.0586-.08984.07421-.07422.10547-.04297.11719.02735.10547.04687.10156.04297.10547.04297.10156.04688.17969.11718v.11719l-.01563.13281.01563.13281.01562.13672.0586.08594.10156.04688.1211.02734.11718.03125h.14844l.11719-.03125.05859-.08984.17969-.1172.05859-.08983.07422-.07422.0586-.08594.11718-.17969.17969-.11719.11719.03125.08984.0586.04297.07422-.01563.1328v.1172l.08985.05859h.14843l.13282-.01563.1328-.01171.26563-.03125.10547-.04297.11719-.03125.1211-.02735.07421-.07421.07031-.07422.0625-.08985-.01562-.10547-.04688-.10156-.10156-.04297-.10547-.01562-.11718.02734-.26563.03125h-.14844l-.07421-.07422-.08985-.0586-.11719-.03124-.11718-.02735-.13282-.01562h-.14843l-.13282.01563h-.29687l-.10547-.04688-.14844-.14844-.04297-.10156-.05859-.08984.22266-.22266.08593-.0586.10547-.04296.11719-.03125.13281-.01563.13281.01563.13672.01562.10157.04297.1328-.01172.08985-.0625.10156-.04297.0625-.08984-.04687-.10156-.08984-.0586-.1172-.03125-.10155-.04296-.0586-.08985-.0625-.08984v-.11719l.01563-.13281.10547-.04688.07421-.07031v-.1211l-.08984-.05859-.03125-.11719.08985-.05859.07421-.07422.04297-.10547.0586-.08984.04687-.10156.01563-.13281v-.14844l-.04688-.10547-.04297-.10156-.08984-.0586-.13281-.01562-.10157-.04297-.13671-.01563-.1172-.03125h-.4453l-.13282-.01562-.13281-.01172-.13281-.01563-.11719-.03125h-.14844l-.13281-.01562-.13281-.01172-.26563-.03125-.1211-.04297-.08593-.0586-.07422-.07421v-.14844l.01172-.13281.10547-.04688.10156-.04296.13281-.01563h.15235l.13281-.01562h.29297l.1211.03125.10156.04296.08984.0586.23438.0625.12109-.04688.08984-.05859.10156-.04297.13282-.01562.10547.04296.10156.04688.13281.01172.1211-.02735h.14453l.12109-.03125.11719-.02734.10547-.04687.07421-.07422.08594-.0586.14844-.14843.0586-.08594.04687-.10547.02734-.11719.01563-.10547-.10156-.04296-.08985-.0586-.11719-.03125-.10546-.04297-.08985-.0625-.07422-.08594-.07422-.07421-.10156-.04297-.10547-.04688-.10156-.04297-.0586-.08984-.04687-.10156-.08594-.21094-.0625-.08594-.05859-.08984-.07422-.07422-.08594-.0586h-.26953l-.11719.03126-.08984.05859-.10156.04297-.13281.01562-.10547-.01562-.02735-.11719-.0625-.08984-.11718-.03125-.10157-.04297-.14843-.14844-.03125-.11719-.01563-.10546.07422-.07422.17969-.1172.11719-.02733.11718-.03125.13672.01562.10156.04297.10547.04297.10156.04687.10547.04297.1172.03125.1328.01563.1172.02734.1328.01563.10547-.01563.08985-.0586-.07422-.07421-.10547-.04297-.07422-.07422-.07422-.08984-.14844-.14844-.08593-.0586-.08985-.05859-.07422-.07422-.08984-.0586-.10156-.04687-.1211-.02734-.10156-.04688-.10547-.04296-.11719-.03125-.10156-.04297-.1211-.03125h-.14843l-.11719.03125-.10546.04297-.08594.0625-.17969.11718-.08594.0586-.08984.0586-.10547.04687-.08594.05859-.10547.04297-.10156.04297-.10547.04687-.07422.07422-.05859.08985-.0586.08593-.04687.10547-.0586.08594-.07421.07422-.13281-.01172-.1172-.03125h-.11718l-.07422.07422-.08984.0586-.07422.07421-.08984.0586-.08594.05859-.10547.04687-.10156.04297-.13672.01563-.10156-.04297-.14844-.14844-.10547-.04688h-.08594l-.10547.04688-.10156.04297-.1211.03125-.11718-.03125-.07422-.07422v-.11719l.03125-.1211.07422-.0703.0586-.08985.07421-.07422.11719-.03125.10547-.04296h.29297l.13281-.01563.13672-.01563.10156-.04296.08985-.0586.10156-.04687.08984-.0586.13281-.01171.08985.05859.13281.01172.08984-.0586.08594-.05859.10547-.04297.08984-.0586.08594-.0625.08985-.05859.14843-.14843.0586-.08594.05859-.08985.10547-.04296.13281-.01563.11719.02735.1211.03125.05859-.0586.05859-.08984.03125-.26563.02734-.11719.10547.01172.13281.01563.10157-.04297.08984-.0586.0586-.08984.07421-.07422.0586-.08984.04687-.10156.01172-.13281-.01172-.13282-.04687-.10547-.14844-.14843-.0586-.08985-.05859-.08594-.04297-.10546v-.44532l.01563-.1328v-.14845l.01172-.1328-.0586-.0586-.08984.0586-.10156-.04298-.17969-.11719-.08594-.05859-.0625-.08984-.0586-.08985-.07421-.07421-.08594-.0586-.1211.03125-.10155.01172-.10547.04688-.08594.05859-.10547.04297-.14844.14844-.08984.05859-.08594.0586-.08984.0625-.10547.04296-.13281.01563v-.1211l.10547-.04297.11718-.03125.07422-.0703.04297-.10548v-.14844l-.02734-.11718-.14844-.14844-.13281-.01563h-.14844l-.11719.03125-.10547.04297-.10156.04297-.08984.0625-.11719.02735-.07422-.07422.01172-.13281-.04297-.10157-.04297-.10547-.08984-.05859-.11719.02734-.1211.03125-.11718.03125-.10156.04297-.1211.03125-.10156.04297-.10547.04297-.08984.0586-.10156.01562v-.11719l.01562-.13281-.0586-.08985-.07421.04297-.14844.14844-.0586.08985-.07421.07421-.04688.10547-.04296.10156-.07422.07422-.0586.08985-.07422.07422-.05859.08593-.07422.07422-.08984.0625-.07422.07031-.07422.07422-.10156.01563-.13281.01562-.10547-.04296v-.1211l.14843-.14844.04297-.10156.0586-.08984.04687-.10156.04297-.10547.0586-.08985.03124-.11719.04297-.10156.03125-.1211.02735-.11718.04687-.10547.04297-.10156.04297-.10547.07422-.07031.08984-.0625.08985-.0586.10156-.04296h.29687l.26563-.03125.10547-.04297-.07422-.07422-.11719-.03125-.10547-.04297-.08984-.0586-.10156-.04687-.08985-.0586-.10156-.04296-.10547-.04297-.08984-.0625-.08594-.0586-.10547-.04296-.10156-.04297-.1211-.03125-.11718-.03125-.10157-.04297L297.5 410.25l-.10156-.04297-.08985-.0586-.04296-.10546-.01563-.13281.10156-.04297.13281-.01563.13672.01563.13282-.01563.10156-.04297.0586-.08984.01562-.10547-.08985-.0586-.07421-.07421-.10157-.04297-.08984-.0586-.14844-.14843-.04297-.10547-.01562-.13281v-.29297l-.0586-.08985-.08984-.05859-.07422-.07422-.04297-.10547-.03125-.11718-.0586-.08985-.07421-.07422-.11719-.02734-.07422-.07422-.08984-.0586-.08984-.0625-.08594-.05859-.07422-.07421-.0586-.08594-.04687-.10547-.08594-.0586-.14843-.14843-.19532-.0586-.1328.01563-.10157.04297-.07422.07422-.04688.10156-.04296.10547-.0586.08984-.0586.08594-.29687.29687-.08984.0586h-.08594l-.0625-.08594-.04297-.10547.03125-.11719.0586-.08984.02734-.11719-.01172-.13281-.08984-.0625-.10547.04688-.11719.02734-.11719.03125-.26953.17578-.10156.04688-.11719.02734-.10546.04687-.08985.0586-.10156.04297-.0586-.08594-.04687-.10547.01563-.13281.04687-.10547.07031-.07422.07422-.07031.0586-.08985v-.14843l-.04297-.10547h-.23829l-.10156.04687-.03125.11719-.02734.11719-.03125.1211-.07422.04296-.13281.01563-.07422-.04688-.04297-.10156-.04297-.10547-.04687-.10156-.04297-.10547-.1211.03125-.10156.04297-.13281.01562-.11719.03125-.10547.04297-.08984.0586-.10156.04687-.1211.02734-.13281.01563-.10156-.04297-.0586-.08985-.04687-.10546-.04297-.10157-.04297-.10546v-.1172l.0586-.08984.08593-.05859.17969-.11719.10156-.04687.10547-.04297.10547-.0586.10156-.04296.08985-.0625.10156-.04297.10547-.0586.10156-.04687.08984-.0586.10547-.04296.10156-.04297.08985-.0625.10156-.04297.13672-.01563.11719.03125.10156.04297.1211.03125.10156.04297.10546.04688.10157.04296.10547.04297.10156.04688.10547.04297.10156.04297.10547.04687.08594.0586.10546.04296.1172.03125.10546.04297.10156.04688.08985.0586.10547.04296.10156.04297.10547.04687.11719.02735.10156.04687.1211.02735h.14843l.08594-.0586.01562-.10156.0586-.08984-.02735-.1172-.07422-.07421-.11719-.17969-.07421-.07422-.08985-.07421-.17969-.1172-.08593-.05859-.10547-.04296-.10156-.04688-.26954-.17578-.05859-.08985-.07422-.07421-.0586-.08985-.04296-.10156-.03125-.11719-.01563-.13672v-.5625l-.01171-.1328-.01563-.13282-.03125-.11719-.01562-.13281-.01172-.13281-.03125-.1211-.22266-.22265-.0586-.08594-.01562-.10547.03125-.11719.13281-.01562v-91.41406H172.9922v1.45312l-.0586.23438-.35156 1.05078-.17187.52343-.1172.34766-.17577.41016-.11719.17187-.23438.29297-.23046.0586h-.35157l-.11718.05859-.23047.40625v.29297l.11719.17578.23046.23047.1172.23437.64062.75781.29297.46485.17578.23437.23047.35156.23437.34766.64063.8164.17578.46485.17187.41016.11719.69531.17578.46875.11719 1.39844.0586.46484v.875l.11718 1.04688v4.78125l-.0586.46484-.35156 1.28125-.17578.52344-.11328.41015-.35156.9297L172.93359 336l-.23437.58203-.11719.17578-.17187.34766-.17578.40625-.35157.8164-.0586.29297-.11327.29297-.11719.28906-.0586.17579-.11718.875-.0586.40625-.05859.11718-.0586.17579-.05859.17187-.23047.52734-.11718.17188v.23437l-.11719.23438-.0586.17187-.17577.58594v.28906l-.0586.17579v.29296l-.0586.11329-.05859.52734v.17187l-.05468.23438v2.6211l-.17578.8164-.1172.17578-.17577.23438-.1172.17187-.11327.23438-.58594.93359-.23047.28906-.29297.46485-.17578.23437-.28906.35156-.35156.69922-.11328.23047-.17579.41016-.17578.23046-.40625.52735-.8164.69922-.29297.17187-.28906.23438-.17579.11719-.17578.17578-.52344.40625-.52734.17578-.17187.17578-.23438.05469-.64062.17578h-.75782m12.21094 31.02344l-1.07422.44921.35938.89454 1.25-.71485.44531-.53906-.98047-.08985"/><path fill="#d3d3d3" fill-opacity="0" fill-rule="evenodd" d="M201.50781 416.59766h-.89453l.44922.6289.98047.35938.80469-.08985.4453-.98828-.17577.08985-.71485-.35547-.89453.35547m154.6211 59.0703l-.0586-.52343v-.29297l.11328-.29297.0586-.23046.46875-.46875h.11328l.11719-.11329.11718-.05859h.17579l.23437-.0586h.34766l.23437.0586.11719.0586.23047.17187.0586.17578.11718.58203v.29297l-.11719.17578-.17187.28906-.17579.17579-.52734.52343-.23047.23438-.11719.0586h-.17578l-.11718-.0586-.40625-.29297-.17579-.11719-.11718-.0586-.0586-.11327-.05468-.1172m6.64062-10.95702l-.0586-.17188v-1.10937l.0586-.17188.17578-.0586.17188-.05858h.17578l.23437-.0586.1172.0586.05858.69921-.05859.17188-.11719.17578-.11718.0586-.23438.52343-.11328.0586h-.23438l-.05859-.1172m9.61328-14.39062l-.11719-.17578v-.69922l.29297-.875.1172-.17187.17577-.35156.11328-.23047.1172-.29297.35155-.75781.1172-.23047.17187-.23438h.17578l.11719-.0586h.64062l.11719.0586.23437.23438.17188.11328.35156.29297.11719.11718.11328.17579v.11328l.11719.05859.11718.11719v.69922l-.05859.17578v.23047l-.0586.17578-.34765 1.05078-.11719.23047-.11719.23437-.11718.0586-.23047.23437-.64063.28906h-.875l-.41015-.11718-.64063-.46485"/><path fill="none" stroke="#bebebe" stroke-linecap="round" stroke-linejoin="round" stroke-miterlimit="10" stroke-width=".5" d="M467.95703 311.69531H144.02734v168.625h323.9297v-168.625"/><g clip-path="url(#a)"><path fill="#fff" fill-opacity="0" fill-rule="evenodd" d="M144 475.89063v4.4375h.0039H144V311.67188h.0039H144v164.21875"/></g><g clip-path="url(#b)"><path fill="#fff" fill-opacity="0" fill-rule="evenodd" d="M144.0039 480.32813V311.67188h53.25782v86.6289l-2.14063 2.13672-1.32422 4.4375 3.46485 3.48047 4.4375.40234.35156.5586-.35156.73828-1.8086 3.69922 1.8086 1.87109 4.4375 2.53125 4.4375-.10938.07031.14454 4.3711 4.37109.08593.0664 2.57813 4.44141 1.77344 1.86719 4.4375 2.39063.40234.17968 4.03516 2.26563 1.26171 2.17187-1.26172 3.09375-4.4375 1.24219-3.39843-4.33594-1.03906-1.16406-4.4375-.04297-4.44141-1.28906-4.4375-1.16406-2.92578-.77735-1.28906-4.4375-.22266-.15234-4.4375-2.02344-3.09375-2.26562-1.34766-1.15235-4.4375-2.52344-4.4375 1.89063-3.7461 1.78516-.6914.49218-3.65625 3.94922-.78515 1.03906-3.92188 3.39844-.51562.34766-4.4375 2.02734-4.4375-.48437-1.38282 2.54687-.51953 4.4375-2.41797 4.4375.20703 4.4414.73829 4.4375-.03125 4.4375 3.40625 3.98048 4.4375-2.41016 4.4375.55469 4.4375.6211 4.4414.64452 4.4375-.24609 4.4375-1.16797 4.13672-1.97656.30078-.125 4.4414-2.11328 1.94532-2.19922 2.49219-1.34766 4.4375-2.65625h4.4375l.88281-.4336 3.5586-1.0078 4.4375-1.70313 4.4375-1.6211.14843-.10937 4.28906-2.98047 4.4375 1.22657 4.44141-.0586 4.4375.48438 4.4375-1.16406 1.94531-1.94532-1.9453-2.98437-.47267-1.45313-3.96484-3.75-.61719-.6875-3.8203-3.64062-4.44142-.02735-.44921-.76953-3.98828-3.76953-.53125-.67187.53125-3.125 1.72265-1.3125-1.72266-1.34375-2.22656-3.09375-.44922-4.4375-1.76172-1.90625-2.89843 1.90625-1.53906.48046-4.4375.41407-4.44141-.23438-.85547-.66015-3.58203-3.26563-1.67188-1.17578-2.76562-2.52344-2.03516-1.91406-2.40234-2.13672v-86.6289h57.69531v117.8203l-4.4375 1.92579-.09766.08984.09766.08203 4.4375 1.875 4.4414-1.875.0625-.08203-.0625-.0664-4.4414-1.94922V311.67188h17.7539v112.17187l-4.4375 1.45703-1.9375 1.76953.44141 4.4375 1.4961 1.4336 2.64453-1.4336 1.79297-.53125 3.34765-3.90625-3.34765-3.22656V311.67187h13.3164v102.40625l-3.67968 4.11329-.75782 1.72265-2.84765 2.71485-.89453 4.4414.15625 4.4375 1.45312 4.4375 2.13281 2.10547 2.21485-2.10547 2.22265-.5586 4.4375-.8828 4.4375-.86329 2.70704-2.1328-2.70704-3.47657-.72265-.96094.32422-4.4414-.41797-4.4375-3.6211-3.58985-4.4375-.52344V311.67188h13.31641V421.6836l-1.25781.94532 1.25781 1.44921 1.4336-1.44921-1.4336-.94532V311.67188h48.82031V423.125l-4.4375 2.16406-1.41406 1.78125 1.41406 1.4336 1.27735 3.0039-.96875 4.4375-.3086 1.53125-2.8789 2.90625-1.5586 1.42188-3.14453 3.01562L334.84766 446l-3.06641 3.26172 3.0664 2.8125 4.44141-.15235 4.4375-.10156 4.4375-2.3789 4.4375 2.07421 4.4414.29297 3.6172-2.54687-3.6172-2.76563-1.7539-1.67578 1.7539-.3086 4.4375-.28905 4.4375-.3711 3.4297-3.46875.51953-4.4375-.79297-4.4375-3.15625-3.42187-4.4375-.19922-4.4375-.50781-4.4414.14453-.52735-.45313-3.91016-3.94531V311.67187h35.50781V430.0586l-2.08203 1.44922-2.35546.64844-3.90625 3.78906 1.16015 4.4375.91797 4.4375-2.61328 1.42969-3.01563 3.01172 3.01563 3.19531 3.32812-3.19531 1.11329-2.22656 3.85546-2.21485.58204-.03906 4.4375-.3711 3.59375-4.02734-3.59375-4.07812-.07813-.35938L385 431.50781l-1.32813-1.44922V311.67188h26.62891V440.8164l-4.4375.78906-4.4375.38281-4.4414 2.66016-.39844.17187-4.03906.38672-4.4375 1.22266-2.3672 2.83203 2.125 4.4375-4.1953.70312-3.75 3.73438.14453 4.4375 3.60546 4.04687 4.4375.19922 4.4375-.16406 4.4375-1.28125 4.44141-.57422 4.4375 1.83985 4.4375-2.46485.875-1.60156 3.5625-.53906 4.01563-3.89844-1.7422-4.4375-2.27343-2.92969-.27734-1.50781.27734-1.67188 2.8125-2.76953-2.8125-2.28515-4.4375-1.71875V311.67187h57.69531v168.65625h-78.94921l-.9375-.4414-.2461.4414H144.00391"/></g><path fill="#50fcfc" fill-rule="evenodd" d="M157.64063 449.26172l-.20704-4.4414 2.41797-4.4375.51953-4.4375 1.38282-2.54688v9.25l-1.4336 2.17187 1.4336 4.03125 2.80078-4.03125-2.80078-2.17187v-9.25l4.4375.48437 4.4375-2.02734.51562-.34766 3.92188-3.39844.78515-1.03906 3.65625-3.94922.6914-.49218 3.7461-1.78516 4.4375-1.89063v3.17579l-.9375.5-3.5 2.45312-2.4336 1.98828-.6953 4.4375 3.1289 1.86719 2.50781-1.86719 1.9297-.94922 4.4375-.80468 2.73827-2.6836-2.73828-2.42187-3.72265-2.01953-.71485-.5v-3.17579l4.4375 2.52344 1.34766 1.15235 3.09375 2.26562 4.4375 2.02344.22266.15234 1.28906 4.4375 2.92578.77735 4.4375 1.16406v3.75781l-4.4375 1.47656-4.4375.41407-4.4375-1.02735-4.4414 1.78906-4.4375-.71875-.94923 1.2422-2.9453 4.4375-.54298.58984-4.4375.04296-1.3789-.6328-2.1797-4.4375-.8828-1.86329-4.4375.11328-1.38282 1.75 1.38282 1.97266 1.01562 2.46484v4.4414l-1.01562.53126-4.4375 2.76953-4.4375-3.0625-1.57813 4.19922.1211 4.4375 1.45703 1.69922 2.32422-1.69922 2.11328-3.19922 4.4375 2.07031 3.70312 1.1289.73438.19532 4.4414.95703 4.4375-.8164.75781-.33594 3.6797-1.85547 4.4375-2.35156.39843-.23047 4.04297-1.60547 4.4375-2.23828.90234-.59375 3.53516-2.08985 4.4375-.26562 4.02734-2.08594-1.6875-4.4375-2.33984-3.17578v-3.75781l4.4414 1.28906 4.4375.04297 1.03907 1.16406 3.39844 4.33594 4.4375-1.24219 1.26171-3.09375-1.26172-2.17187-4.03515-2.26563-.40234-.17969-4.4375-2.39062-1.77344-1.86719-2.57813-4.4414-.08594-.06641-4.37109-4.3711-.07031-.14452-4.4375.10937-4.4375-2.53125-1.8086-1.8711 1.8086-3.69921.35156-.73828-.35156-.5586-4.4375-.40234-3.46484-3.48047 1.32421-4.4375 2.14063-2.13672v3.79688l-1.60547 2.77734 1.60547 1.61328 2.89453-1.61328-2.89453-2.77734v-3.79688l2.40234 2.13672 2.03516 1.91406 2.76562 2.52344 1.67188 1.17578v3.51563l-3.17188 4.1875 3.17188 2.66406 4.4375-1.83203 1.76172 3.60547 2.67969 2.67968 2.33593 1.75782 2.10156 2.64453 4.07813 1.79687.35938.22266 4.4375 2.95312 2.89843 1.26172 1.33203 4.4375.20703.89453 4.44141 1.90625 2.33984 1.63672 2.09766.77344 1.69531-.77344.16797-4.4375-1.86328-1.76562-2.40625-2.67188-2.03125-1.9375-4.4414 1.10156-2.10938-3.60156-2.32813-2.19922-1.77734-2.24218-1.16406-4.4375-1.4961-1.83594-2.73437-2.60156-1.70313-1.0625-3.2578 1.0625-1.1797.34375-1.58593-.34375-2.85547-.73438-4.4375-3.45312v-3.51563l3.58203 3.26563.85547.66015 4.4414.23438 4.4375-.41406 1.53907-.48047 2.89844-1.90625 1.76171 1.90625.44922 4.4375 2.22656 3.09375 1.72266 1.34375-1.72266 1.3125-.53125 3.125.53125.67187 3.98829 3.76953.44922.76953 4.4414.02735 3.82031 3.64062.6172.6875 3.96483 3.75.47266 1.45313 1.94531 2.98437-1.9453 1.94531-4.4375 1.16407-4.4375-.48438-4.44142.0586-4.4375-1.22657-4.28906 2.98047-.14844.10938-4.4375 1.6211-4.4375 1.70312-3.55859 1.0078-.88281.4336h-4.4375l-4.4375 2.65625-2.49219 1.34766-1.94531 2.19922-4.4414 2.11328-.30079.125-4.13672 1.97656-4.4375 1.16797-4.4375.2461-4.4414-.64454-4.4375-.6211-4.4375-.55468-4.4375 2.41016-3.40625-3.98047.03125-4.4375-.73828-4.4375"/><path fill="#00e8fc" fill-rule="evenodd" d="M160.29688 458.13672l-.1211-4.4375 1.57813-4.19922 4.4375 3.0625 4.4375-2.76953 1.01562-.53125v-4.4414l-1.01562-2.46485-1.38282-1.97266 1.38282-1.75 4.4375-.11328.8828 1.86328 2.1797 4.4375 1.3789.63281v2.45704l-1.97656 1.35156 1.0586 4.4375.91796.59375 4.4375.5625 1.72266-1.15625-1.72266-4.39063-.03125-.04687-4.40625-1.35156v-2.45704l4.4375-.04296.54297-.58985 2.94531-4.4375.94922-1.24219 4.4375.71875v4.05079l-4.4375.49218-.33203.41797.33203 1.45313 1.89844 2.98828 2.53906.92969 1.76953-.9297.67188-4.4414-2.4414-.91015v-4.05079l4.4414-1.78906 4.4375 1.02735 4.4375-.41407 4.4375-1.47656 2.33984 3.17578 1.6875 4.4375-4.02734 2.08594-4.4375.26563-3.53516 2.08984-.90234.59375-4.4375 2.23828-4.04297 1.60547-.39844.23047-4.4375 2.35156-3.67969 1.85547-.7578.33594-4.4375.8164-4.44141-.95703-.73438-.19531-3.70312-1.1289-4.4375-2.07032-2.11328 3.19922-2.32422 1.69922-1.45703-1.69922m1.45703-9.28516l-1.4336-4.03125 1.4336-2.17187 2.80078 2.17187-2.80078 4.03125"/><path fill="#00d4fc" fill-rule="evenodd" d="M178.58984 453.69922l-1.05859-4.4375 1.97656-1.35156 4.40625 1.35156.03125.04687 1.72266 4.39063-1.72266 1.15625-4.4375-.5625-.91797-.59375"/><path fill="#00e8fc" fill-rule="evenodd" d="M183.94531 433.375l-3.1289-1.86719.6953-4.4375 2.4336-1.98828 3.5-2.45312.9375-.5.71485.5 3.72265 2.01953 2.73828 2.42187-2.73828 2.6836-4.4375.80468-1.92969.94922-2.5078 1.86719"/><path fill="#00d4fc" fill-rule="evenodd" d="M188.38281 446.27344l-.33203-1.45313.33203-.41797 4.4375-.49218 2.4414.91015-.67187 4.4414-1.76953.9297-2.53906-.9297-1.89844-2.98827"/><path fill="#00e8fc" fill-rule="evenodd" d="M197.26172 406.48828l-1.60547-1.61328 1.60547-2.77734 2.89453 2.77734-2.89453 1.61328m8.875 9.92969l-3.17188-2.66406 3.17188-4.1875 4.4375 3.45312 2.85547.73438 1.58594.34375 1.17968-.34375 3.25781-1.0625v2.375l-4.3203 3.125 4.3203 3.58984 2.69922.84766 1.73828 1.0039.58594-1.0039-.58594-1.21094-1.27734-3.22656-3.16016-3.125v-2.375l1.70313 1.0625 2.73438 2.60156 1.49609 1.83594 1.16406 4.4375 1.77734 2.24218 2.32813 2.19922 2.10938 3.60156 4.4414-1.10156 2.03125 1.9375 2.40625 2.67188 1.86328 1.76562-.16797 4.4375-1.6953.77344-2.09767-.77344-2.33984-1.63672-4.4414-1.90625-.20704-.89453-1.33203-4.4375-2.89844-1.26172-4.4375-2.95312-.35937-.22266-4.07813-1.79687-2.10156-2.64453-2.33594-1.75782-2.67968-2.67968-1.76172-3.60547-4.4375 1.83203"/><path fill="#00d4fc" fill-rule="evenodd" d="M219.45313 421.78125l-4.32032-3.58984 4.32031-3.125v1.6875l-1.99218 1.4375 1.99219 1.65234 1.45312-1.65234-1.45313-1.4375v-1.6875l3.16016 3.125 1.27734 3.22656.58594 1.21094-.58594 1.0039-1.73828-1.0039-2.69922-.84766"/><path fill="#00c4fc" fill-rule="evenodd" d="M219.45313 419.84375l-1.9922-1.65234 1.9922-1.4375 1.45312 1.4375-1.45313 1.65234"/><path fill="#50fcfc" fill-rule="evenodd" d="M250.51953 431.58984l-.09766-.08203.09766-.08984 4.4375-1.92578 4.4414 1.94922.0625.0664-.0625.08203-4.4414 1.875-4.4375-1.875m16.25781-.08203l-.4414-4.4375 1.9375-1.76953 4.4375-1.45703V426l-2.03125 1.07031 2.03125 1.29688 1.11328-1.29688L272.71094 426v-2.15625l3.34765 3.22656-3.34765 3.90625-1.79297.53125-2.64453 1.4336-1.4961-1.4336"/><path fill="#00e8fc" fill-rule="evenodd" d="M272.71094 428.36719l-2.03125-1.29688L272.71094 426l1.11328 1.07031-1.11328 1.29688"/><path fill="#50fcfc" fill-rule="evenodd" d="M278.0039 431.50781l-.15624-4.4375.89453-4.4414 2.84765-2.71485.75782-1.72265 3.67968-4.11329v1.625l-2.22656 2.48829-1.78125 4.4375-.42969.4414-2.3164 4 .21875 4.4375 2.09765 3.38672 4.4375-.4961 4.4375-2.1875 1.85938-.70312-1.85938-2.77344-.70703-1.66406.70703-.23828 3.08985-4.20312-1.09766-4.4375-1.99219-1.97657-4.4375-.51171v-1.625l4.4375.52343 3.6211 3.58985.41797 4.4375-.32422 4.4414.72265.96094 2.70704 3.47656-2.70704 2.13281-4.4375.86329-4.4375.8828-2.22265.5586-2.21485 2.10547-2.1328-2.10547-1.45313-4.4375"/><path fill="#00e8fc" fill-rule="evenodd" d="M279.49219 431.50781l-.21875-4.4375 2.3164-4 .4297-.4414 1.78124-4.4375 2.22656-2.48829v12.94141l-3.68359 2.86328 3.6836 1.24219 2.1328-1.24219-2.1328-2.86328v-12.9414l4.4375.51171v2.94532l-4.4297 3.46875 4.4297 2.05078 1.5078-2.05078-1.5078-3.46875v-2.94532l1.99218 1.97657 1.09766 4.4375-3.08985 4.20312-.70703.23828.70703 1.66406 1.85938 2.77344-1.85938.70313-4.4375 2.1875-4.4375.4961-2.09765-3.38673"/><path fill="#00d4fc" fill-rule="evenodd" d="M286.02734 432.75l-3.68359-1.24219 3.6836-2.86328 2.1328 2.86328-2.1328 1.24219m4.4375-8.07031l-4.4297-2.05078 4.4297-3.46875 1.5078 3.46875-1.5078 2.05078"/><path fill="#50fcfc" fill-rule="evenodd" d="M299.34375 424.07813l-1.25781-1.44922 1.25781-.94532 1.4336.94532-1.4336 1.44921m35.5039 27.9961l-3.0664-2.8125L334.84765 446l1.29688-1.17969 3.14453-3.01562 1.5586-1.42188 2.8789-2.90625.3086-1.53125.96875-4.4375-1.27735-3.0039-1.41406-1.4336 1.41406-1.78125 4.4375-2.16406v1.5586l-3.01172 2.38671 2.06641 4.4375-2.29297 4.4375 3.23828 3.32031v.91407l-1.1289.20312 1.1289.29688.1836-.29688-.1836-.20312v-.91406l1 1.11718-1 1.61719-4.4375-.28906-3.40625 3.10937 3.40625 3.78125 4.4375-.73047 3.97266-3.05078.46484-.25 4.4414-.69922 4.4375-.67578 4.4375-1.0586 1.73438-1.7539.72266-4.4375-2.45703-4.3125-.17188-.125-4.26562-1.97265-4.4375-1.57813-4.4414.89453-2.07423-1.78125-2.36328-2.38672V423.125l3.91016 3.94531.52734.45313 4.4414-.14453 4.4375.5078 4.4375.19923 3.15626 3.42187.79297 4.4375-.51953 4.4375-3.4297 3.46875-4.4375.3711-4.4375.28906-1.7539.3086 1.7539 1.67577 3.6172 2.76563-3.6172 2.54687-4.4414-.29296-4.4375-2.07422-4.4375 2.3789-4.4375.10156-4.4414.15235"/><path fill="#00e8fc" fill-rule="evenodd" d="M343.72656 448.60156l-3.40625-3.78125 3.40625-3.10937 4.4375.28906 1-1.61719-1-1.11719-3.23828-3.3203 2.29297-4.4375-2.0664-4.4375 3.01171-2.38673 2.36328 2.38672 2.07422 1.78125 4.4414-.89453v.96485l-4.4414 2.14062-.9414.44531-3.4961 1.71094-1.75781 2.72656 1.75781 1.80078 2.36328 2.63672-2.36328 3.82031-1.55469.6172 1.5547.67187.87109-.67188 3.5664-1.90625 4.4414-.10547 4.4375-1.3203 2.78126-1.10548 1.59765-4.4375-4.3789-3.48437-.42578-.95313-4.01172-2.58594v-.96484l4.4375 1.57813 4.26562 1.97265.17188.125 2.45703 4.3125-.72266 4.4375-1.73437 1.7539-4.4375 1.0586-4.4375.67578-4.4414.69922-.46485.25-3.97266 3.05078-4.4375.73047"/><path fill="#00d4fc" fill-rule="evenodd" d="M348.16406 437.7461l-1.75781-1.80079 1.75781-2.72656 3.4961-1.71094.9414-.44531 4.4414-2.14063v.96485l-3.0078 1.6211-1.4336 1.80077-4.4375 2.21094-.27344.42578.27344.28125 3.72656 4.15625.71094.8711 4.4414.49218 3.47657-1.36328.96094-4.08594.1289-.35156-.1289-.10156-1.92188-4.33594-2.51562-1.6211v-.96483l4.01172 2.58593.42578.95313 4.3789 3.48437-1.59765 4.4375-2.78125 1.10547-4.4375 1.32031-4.4414.10547-3.56641 1.90625-.8711.67188-1.55469-.67188 1.5547-.61719 2.36327-3.8203-2.36328-2.63673"/><path fill="#fff" fill-opacity="0" fill-rule="evenodd" d="M348.16406 440.17969l-1.1289.20312 1.1289.29688.1836-.29688-.1836-.20312"/><path fill="#00c4fc" fill-rule="evenodd" d="M348.16406 436.22656l-.27344-.28125.27344-.42578 4.4375-2.21094 1.4336-1.80078 3.0078-1.6211v.96485l-1.21874.65625-3.22266 4.0586-.75781.3789.75781 1.16016 2.79688 3.27734 1.64453.29688.75781-.29688 2.6836-4.4375-2.42579-4.4375-1.01562-.65625v-.96484l2.51562 1.6211 1.92188 4.33593.1289.10156-.1289.35156-.96094 4.08594-3.47656 1.36328-4.4414-.49218-.71094-.8711-3.72657-4.15625"/><path fill="#00b8fc" fill-rule="evenodd" d="M352.60156 437.10547l-.75781-1.16016.75781-.3789 3.22266-4.0586 1.21875-.65625v1.1914l-3.28125 3.90235 3.28125 3.39844 2.41406-3.39844-2.41406-3.90234v-1.1914l1.01562.65624 2.42579 4.4375-2.6836 4.4375-.75781.29688-1.64453-.29688-2.79688-3.27734"/><path fill="#00a8fc" fill-rule="evenodd" d="M357.04297 439.34375l-3.28125-3.39844 3.28125-3.90234v1.66015l-1.88281 2.2422 1.8828 1.94921 1.38282-1.94922-1.38281-2.24219v-1.66015l2.41406 3.90234-2.41406 3.39844"/><path fill="#009800" fill-rule="evenodd" d="M357.04297 437.89453l-1.88281-1.94922 1.8828-2.24219v1.66016l-.48827.58203.48828.5039.35547-.5039-.35547-.58203v-1.66015l1.38281 2.24218-1.38281 1.94922"/><path fill="#00ac00" fill-rule="evenodd" d="M357.04297 436.44922l-.48828-.5039.48828-.58204.35547.58203-.35547.5039"/><path fill="#50fcfc" fill-rule="evenodd" d="M374.79297 452.45703l-3.01563-3.19531 3.01563-3.01172v2.15625l-.85156.85547.85156.90234.94531-.90234-.94531-.85547V446.25l2.61328-1.42969-.91797-4.4375-1.16015-4.4375 3.90625-3.78906 2.35546-.64844 2.08204-1.44922v1.78907l-4.4375 2.37109-1.77735 1.72656 1.77735 2.61719.36718 1.82031 4.07031 3.80469 4.4375-1.79297 1.79297-2.01172-1.79296-2.03515-.53125-2.40235-3.90625-4.09765v-1.78907L385 431.50781l3.03125 4.4375.07813.35938 3.59375 4.07812-3.59375 4.02735-4.4375.37109-.58204.03906-3.85546 2.21485-1.11329 2.22656-3.32812 3.19531"/><path fill="#00e8fc" fill-rule="evenodd" d="M374.79297 450.16406l-.85156-.90234.85156-.85547.94531.85547-.94531.90234m4.4414-11.60156l-1.77734-2.61719 1.77735-1.72656 4.4375-2.3711v.78907l-3.96875 3.3086.95703 4.4375 3.01171 2.8125 3.88672-2.8125-.73046-4.4375-3.15625-3.3086v-.78906l3.90625 4.09765.53125 2.40235 1.79296 2.03515-1.79296 2.01172-4.4375 1.79297-4.07032-3.80469-.36719-1.82031"/><path fill="#00d4fc" fill-rule="evenodd" d="M380.66016 440.38281l-.95704-4.4375 3.96875-3.3086v.78517l-3.02343 2.52343 1.07422 4.4375 1.94921 1.82031 2.51954-1.8203-.11329-4.4375-2.40625-2.52344v-.78516l3.15625 3.3086.73047 4.4375-3.88671 2.8125-3.01172-2.8125"/><path fill="#50fcfc" fill-rule="evenodd" d="M380.0664 462.57422l-.14452-4.4375 3.75-3.73438 4.1953-.70312-2.125-4.4375 2.3672-2.83203 4.4375-1.22266 4.03906-.38672.39844-.17187 4.4414-2.66016 4.4375-.38281 4.4375-.78906v1.17578l-4.4375 1.8125-4.4375.8164-.32031.19922-4.1211.6875-4.4375 1.25-3.17968 2.5039-.64063 4.4375-.61719.5625-4.4375 1.3086-2.57812 2.5664.2539 4.4375 2.32423 2.60938 4.4375.98829 4.4375-.21875 4.34375-3.37891.09375-.10547 4.4414-.6289 1.3125.73437 3.125 2.25781 2.64453-2.25781 1.79297-1.04297 4.4375-.3789 3.10938-3.01563-3.10938-4.0039-.34765-.4336-.78907-4.4375.42188-4.4414-3.72266-2.82813v-1.17578l4.4375 1.71875 2.8125 2.28515-2.8125 2.76953-.27734 1.67188.27734 1.50781 2.27344 2.92969 1.74219 4.4375-4.01563 3.89844-3.5625.53906-.875 1.60156-4.4375 2.46485-4.4375-1.83985-4.4414.57422-4.4375 1.28125-4.4375.16406-4.4375-.19922-3.60547-4.04687"/><path fill="#00c4fc" fill-rule="evenodd" d="M381.72266 440.38281l-1.07422-4.4375 3.02344-2.52344v.78907l-2.08204 1.73437 1.19141 4.4375.89063.83203 1.14843-.83203.50781-4.4375-1.65625-1.73437v-.78906l2.40625 2.52343.11329 4.4375-2.51954 1.82031-1.94921-1.8203"/><path fill="#00e8fc" fill-rule="evenodd" d="M381.34766 462.57422l-.25391-4.4375 2.57813-2.5664 4.4375-1.3086.61718-.5625.64063-4.4375 3.17969-2.5039 4.4375-1.25 4.12109-.6875.32031-.19923 4.4375-.8164 4.4375-1.8125v1.95703l-1.6914.8711-2.7461 2.03515-4.4375-.83985-4.4414.66016-4.375 2.58594-.0625.05078-2.75782 4.38672-1.67969 1.53906-4.4375 2.27735-.625.62109.4336 4.4375.1914.21484 4.4375 2.3086 4.4375-.32032 2.83594-2.20312 1.60156-1.8164 4.44141-1.2422 4.4375 2.34766 4.4375-2.38281 4.4375.20312 1.59766-1.54687-1.59766-2.05469-1.91015-2.38281-.65625-4.4375-.72266-4.4414-1.14844-.8711v-1.95703l3.72266 2.82812-.42188 4.4414.78906 4.4375.34766.4336 3.10938 4.0039-3.10938 3.01563-4.4375.37891-1.79297 1.04297-2.64453 2.25781-3.125-2.25781-1.3125-.73438-4.4414.62891-.09375.10547-4.34375 3.3789-4.4375.21875-4.4375-.98828-2.32422-2.60937"/><path fill="#00b8fc" fill-rule="evenodd" d="M382.78125 440.38281l-1.1914-4.4375 2.08202-1.73437v.78515l-1.13671.94922 1.13671 3.91406.90235-3.91406-.90235-.94922v-.78515l1.65625 1.73437-.5078 4.4375-1.14844.83203-.89063-.83203"/><path fill="#00a8fc" fill-rule="evenodd" d="M383.67188 439.85938l-1.13672-3.91407 1.13671-.94922v.78907l-.1953.16015.1953.66406.15235-.66406-.15235-.16015v-.78907l.90235.94922-.90235 3.91406"/><path fill="#00d4fc" fill-rule="evenodd" d="M383.48047 462.57422l-.4336-4.4375.625-.6211 4.4375-2.27734 1.6797-1.53906 2.7578-4.38672.0625-.05078 4.375-2.58594 4.44141-.66015v1.25l-4.4414.57812-2.39844 1.41797L392.54688 451l-1.69532 2.69922-2.74219 2.51172-3.30078 1.92578.65625 4.4375 2.64454 1.44531 4.4375-.41406 1.32421-1.03125 3.11329-3.53125 2.5078-.90625 1.9336-.97266 2.51563.97266 1.92187.88672 2.10547-.88672 2.33203-1.58985 3.83594 1.58985.60156.07812.08203-.07812-.08203-.10547-3.46875-4.33203-.53125-4.4375-.4375-1.58203-3.0039 1.58203-1.4336.92578-.375-.92578-4.0625-1.9961v-1.25l4.4375.83985 2.7461-2.03516 1.6914-.8711 1.14844.8711.72265 4.4414.65625 4.4375 1.91016 2.38282 1.59766 2.05469-1.59766 1.54687-4.4375-.20312-4.4375 2.38281-4.4375-2.34765-4.4414 1.24218-1.60157 1.8164-2.83594 2.20313-4.4375.32032-4.4375-2.3086-.1914-.21484"/><path fill="#009800" fill-rule="evenodd" d="M383.67188 436.60938l-.19532-.66407.19531-.16015.15235.16015-.15235.66406"/><path fill="#00c4fc" fill-rule="evenodd" d="M385.46484 462.57422l-.65625-4.4375 3.30079-1.92578 2.74218-2.51172L392.54687 451l2.03907-1.73828 2.39844-1.41797 4.4414-.57813v1.25l-4.4414.4961-.41797.25-4.01954 3.42578-.6328 1.01172-3.8047 3.48828-1.6289.94922.95703 4.4375.67188.36719 3.2539-.3672 1.1836-.59374 2.80078-3.84375 1.63671-1.44922 4.44141-1.91016 2.23047-1.07812-.71484-4.4375-1.51563-.7461v-1.25l4.0625 1.9961.375.92578 1.4336-.92578 3.0039-1.58203.4375 1.58203.53125 4.4375 3.46875 4.33203.08203.10547-.08203.07812-.60156-.07812-3.83594-1.58985-2.33203 1.58985-2.10547.88672-1.92187-.88672-2.51563-.97266-1.9336.97266-2.5078.90625-3.11329 3.53125-1.32421 1.03125-4.4375.41406-2.64454-1.44531"/><path fill="#00b8fc" fill-rule="evenodd" d="M387.4375 462.57422l-.95703-4.4375 1.6289-.94922 3.8047-3.48828.6328-1.01172 4.01954-3.42578.41796-.25 4.44141-.4961 1.51563.7461.71484 4.4375-2.23047 1.07812-4.4414 1.91016-1.63672 1.44922-2.80079 3.84375-1.18359.59375-3.2539.36719-.67188-.3672"/><g clip-path="url(#c)"><path fill="#50fcfc" fill-rule="evenodd" d="M387.86328 480.32813l.2461-.44141.9375.4414h-1.1836"/></g><g clip-path="url(#d)"><path fill="#fff" fill-opacity="0" fill-rule="evenodd" d="M467.9961 480.32813H468V311.67188h-.0039H468v168.65625h-.0039"/></g><path fill="#fff" fill-opacity="0" fill-rule="evenodd" d="M218.95313 434.5039l5.21875 2.6172 4.46875-8.90235-5.22266-2.61719-4.46484 8.90235"/><path fill-rule="evenodd" d="M225.72656 428.8086l.45313.22656-2.82422 5.6289-.70313-.35547 2.01563-4.01171-1.24219-.625.25-.4961.52734.19531.25.0625.2461.02344.2461-.03515.25-.10938.2578-.19922.27344-.30469"/><path fill="#fff" fill-opacity="0" fill-rule="evenodd" d="M208.38672 455.41406l5.6875-1.32422-2.25781-9.70312-5.69141 1.32812 2.26172 9.69922"/><path fill-rule="evenodd" d="M209.94922 446.70313l.4961-.11329 1.42968 6.12891-.76563.17969-1.01953-4.375-1.35156.3164-.1289-.53906.53125-.1914L209.375 448l.20313-.14063.16406-.18359.125-.24219.07031-.3203.01172-.41017"/><g clip-path="url(#e)"><path fill="none" stroke="#000" stroke-linecap="round" stroke-linejoin="round" stroke-miterlimit="10" stroke-width=".5" d="M147.46094 480.9336l-6.92188-1.21094"/></g><g clip-path="url(#f)"><path fill="none" stroke="#000" stroke-linecap="round" stroke-linejoin="round" stroke-miterlimit="10" stroke-width=".5" d="M146.45313 480.75781l.3828 1.16406"/></g><g clip-path="url(#g)"><path fill="none" stroke="#000" stroke-linecap="round" stroke-linejoin="round" stroke-miterlimit="10" stroke-width=".5" d="M160.8164 480.61328l-7.0039-.5664"/></g><g clip-path="url(#h)"><path fill="none" stroke="#000" stroke-linecap="round" stroke-linejoin="round" stroke-miterlimit="10" stroke-width=".5" d="M159.79688 480.53125l.48828 1.125"/></g><g clip-path="url(#i)"><path fill="none" stroke="#000" stroke-linecap="round" stroke-linejoin="round" stroke-miterlimit="10" stroke-width=".5" d="M174.1211 480.72656l-6.98048-.79687"/></g><g clip-path="url(#j)"><path fill="none" stroke="#000" stroke-linecap="round" stroke-linejoin="round" stroke-miterlimit="10" stroke-width=".5" d="M173.10547 480.61328l.44922 1.14063"/></g><g clip-path="url(#k)"><path fill="none" stroke="#000" stroke-linecap="round" stroke-linejoin="round" stroke-miterlimit="10" stroke-width=".5" d="M187.41016 480.91797l-6.9297-1.17578"/></g><g clip-path="url(#l)"><path fill="none" stroke="#000" stroke-linecap="round" stroke-linejoin="round" stroke-miterlimit="10" stroke-width=".5" d="M187.41016 480.91797l.77343 2.32812"/></g><g clip-path="url(#m)"><path fill="none" stroke="#000" stroke-linecap="round" stroke-linejoin="round" stroke-miterlimit="10" stroke-width=".5" d="M200.75781 480.64453l-6.9961-.63281"/></g><g clip-path="url(#n)"><path fill="none" stroke="#000" stroke-linecap="round" stroke-linejoin="round" stroke-miterlimit="10" stroke-width=".5" d="M200.75781 480.64453l.95313 2.26172"/></g><g clip-path="url(#o)"><path fill="none" stroke="#000" stroke-linecap="round" stroke-linejoin="round" stroke-miterlimit="10" stroke-width=".5" d="M214.08984 480.35156l-7.02734-.04297"/></g><g clip-path="url(#p)"><path fill="none" stroke="#000" stroke-linecap="round" stroke-linejoin="round" stroke-miterlimit="10" stroke-width=".5" d="M214.08984 480.35156l1.13672 2.17188"/></g><g clip-path="url(#q)"><path fill="none" stroke="#000" stroke-linecap="round" stroke-linejoin="round" stroke-miterlimit="10" stroke-width=".5" d="M227.39844 480.53125l-7.01563-.40625"/></g><g clip-path="url(#r)"><path fill="none" stroke="#000" stroke-linecap="round" stroke-linejoin="round" stroke-miterlimit="10" stroke-width=".5" d="M227.39844 480.53125l1.02344 2.23047"/></g><g clip-path="url(#s)"><path fill="none" stroke="#000" stroke-linecap="round" stroke-linejoin="round" stroke-miterlimit="10" stroke-width=".5" d="M240.65625 481l-6.89844-1.34375"/></g><g clip-path="url(#t)"><path fill="none" stroke="#000" stroke-linecap="round" stroke-linejoin="round" stroke-miterlimit="10" stroke-width=".5" d="M239.65234 480.80469l.35547 1.17187"/></g><g clip-path="url(#u)"><path fill="none" stroke="#000" stroke-linecap="round" stroke-linejoin="round" stroke-miterlimit="10" stroke-width=".5" d="M253.57031 482.07031l-6.10156-3.48437"/></g><g clip-path="url(#v)"><path fill="none" stroke="#000" stroke-linecap="round" stroke-linejoin="round" stroke-miterlimit="10" stroke-width=".5" d="M266.96875 481.92188l-6.26563-3.1875"/></g><g clip-path="url(#w)"><path fill="none" stroke="#000" stroke-linecap="round" stroke-linejoin="round" stroke-miterlimit="10" stroke-width=".5" d="M280.28516 481.91406l-6.26953-3.16797"/></g><g clip-path="url(#x)"><path fill="none" stroke="#000" stroke-linecap="round" stroke-linejoin="round" stroke-miterlimit="10" stroke-width=".5" d="M293.65625 481.79688l-6.38281-2.9336"/></g><g clip-path="url(#y)"><path fill="none" stroke="#000" stroke-linecap="round" stroke-linejoin="round" stroke-miterlimit="10" stroke-width=".5" d="M307.26172 480.80469l-6.96094-.95313"/></g><g clip-path="url(#z)"><path fill="none" stroke="#000" stroke-linecap="round" stroke-linejoin="round" stroke-miterlimit="10" stroke-width=".5" d="M306.25 480.66797l.42188 1.15234"/></g><g clip-path="url(#A)"><path fill="none" stroke="#000" stroke-linecap="round" stroke-linejoin="round" stroke-miterlimit="10" stroke-width=".5" d="M320.60547 480.19531l-7.01953.26953"/></g><g clip-path="url(#B)"><path fill="none" stroke="#000" stroke-linecap="round" stroke-linejoin="round" stroke-miterlimit="10" stroke-width=".5" d="M320.60547 480.19531l1.23437 2.1211"/></g><g clip-path="url(#C)"><path fill="none" stroke="#000" stroke-linecap="round" stroke-linejoin="round" stroke-miterlimit="10" stroke-width=".5" d="M333.92578 480.26563l-7.02734.1289"/></g><g clip-path="url(#D)"><path fill="none" stroke="#000" stroke-linecap="round" stroke-linejoin="round" stroke-miterlimit="10" stroke-width=".5" d="M333.92578 480.26563l1.1875 2.14453"/></g><g clip-path="url(#E)"><path fill="none" stroke="#000" stroke-linecap="round" stroke-linejoin="round" stroke-miterlimit="10" stroke-width=".5" d="M347.00781 481.58594l-6.5625-2.51563"/></g><g clip-path="url(#F)"><path fill="none" stroke="#000" stroke-linecap="round" stroke-linejoin="round" stroke-miterlimit="10" stroke-width=".5" d="M360.46875 481.10547l-6.85547-1.55078"/></g><g clip-path="url(#G)"><path fill="none" stroke="#000" stroke-linecap="round" stroke-linejoin="round" stroke-miterlimit="10" stroke-width=".5" d="M359.47266 480.8789l.3203 1.1836"/></g><g clip-path="url(#H)"><path fill="none" stroke="#000" stroke-linecap="round" stroke-linejoin="round" stroke-miterlimit="10" stroke-width=".5" d="M372.22656 483.30469l-3.73828-5.95313"/></g><g clip-path="url(#I)"><path fill="none" stroke="#000" stroke-linecap="round" stroke-linejoin="round" stroke-miterlimit="10" stroke-width=".5" d="M386.41406 482.52344l-5.48828-4.38672"/></g><g clip-path="url(#J)"><path fill="none" stroke="#000" stroke-linecap="round" stroke-linejoin="round" stroke-miterlimit="10" stroke-width=".5" d="M399.46094 482.82031l-4.94922-4.98437"/></g><g clip-path="url(#K)"><path fill="none" stroke="#000" stroke-linecap="round" stroke-linejoin="round" stroke-miterlimit="10" stroke-width=".5" d="M410.5586 483.83203l-.51563-7.00781"/></g><g clip-path="url(#L)"><path fill="none" stroke="#000" stroke-linecap="round" stroke-linejoin="round" stroke-miterlimit="10" stroke-width=".5" d="M423.78906 483.83984l-.34375-7.01953"/></g><g clip-path="url(#M)"><path fill="none" stroke="#000" stroke-linecap="round" stroke-linejoin="round" stroke-miterlimit="10" stroke-width=".5" d="M437.8125 483.73047l-1.76172-6.80469"/></g><g clip-path="url(#N)"><path fill="none" stroke="#000" stroke-linecap="round" stroke-linejoin="round" stroke-miterlimit="10" stroke-width=".5" d="M452.53125 483l-4.57031-5.33984"/></g><g clip-path="url(#O)"><path fill="none" stroke="#000" stroke-linecap="round" stroke-linejoin="round" stroke-miterlimit="10" stroke-width=".5" d="M465.46484 483.28125l-3.80468-5.90625"/></g><g clip-path="url(#P)"><path fill="none" stroke="#000" stroke-linecap="round" stroke-linejoin="round" stroke-miterlimit="10" stroke-width=".5" d="M147.45313 467.65625l-6.90625-1.28516"/></g><path fill="none" stroke="#000" stroke-linecap="round" stroke-linejoin="round" stroke-miterlimit="10" stroke-width=".5" d="M147.45313 467.65625l.73828 2.33984m12.51562-2.0664l-6.78516-1.83203m6.78516 1.83203l.54688 2.39062m12.84765-2.75781l-6.9414-1.09766m6.9414 1.09766l.79688 2.32031m12.53906-2.46875l-6.98438-.80078m6.98438.80078l.89453 2.28516m12.38281-2.04688l-6.91015-1.27734m6.91015 1.27734l.73828 2.33985m12.5547-2.22656l-6.86329-1.50391m6.86328 1.5039l.66016 2.36329m12.70703-2.66407l-6.96875-.90234m6.96875.90234l.86328 2.29688m12.44922-2.28906l-6.96484-.91797m6.96484.91797l.86328 2.29687m12.26563-1.53515l-6.58985-2.44141m5.6289 2.08594l.16407 1.21484m13.96875-.53125l-6.30469-3.09766m5.38672 2.64844l.03907 1.22656m13.93359-.33203l-5.78516-3.98828m4.94532 3.40625l-.14063 1.21875m14.14063-.42578l-5.47266-4.41016m4.67578 3.76953l-.23047 1.20313m14.53125-.82031l-5.85156-3.89453m5 3.32812l-.1211 1.21875m14.58594-1.20703l-6.44922-2.78516M319.38281 468l.10157 1.22266m14.43359-1.98829l-7.01563-.4414m5.9961.375l.50781 1.11719m13.72656-.41797l-6.8164-1.70703m5.82812 1.45703l.29297 1.1914m14.01563-.96093l-6.82422-1.66797m5.83203 1.42578l.30469 1.1875m14.10156-1.61719l-7.01953-.32422m5.99609.27735l.52734 1.10546m12.64844 1.39454l-4.69531-5.23047m4.01172 4.46875l-.42188 1.15234m11.3711.4375l1.40234-6.88672m-1.19922 5.88281l-1.17578.35157m14.11719.61328l1.7461-6.8086m-1.7461 6.8086l-2.38672.57812m15.9336-.52734l1.27734-6.91016m-1.27735 6.91016l-2.33984.73828m16.64453-.69531l-.69922-6.9961m.69922 6.9961l-2.04297 1.35937m15.85547-1.4453l-1.6914-6.82423m1.6914 6.82422l-1.82812 1.63672m15.99609-1.97266l-3.40234-6.14843m3.40234 6.14843l-1.33594 2.0547"/><g clip-path="url(#Q)"><path fill="none" stroke="#000" stroke-linecap="round" stroke-linejoin="round" stroke-miterlimit="10" stroke-width=".5" d="M147.51172 453.82422l-7.02344-.2539"/></g><path fill="none" stroke="#000" stroke-linecap="round" stroke-linejoin="round" stroke-miterlimit="10" stroke-width=".5" d="M147.51172 453.82422l1.07422 2.20703m12.1289-1.44531l-6.80078-1.77344m6.80078 1.77344l.56641 2.38672M173.89453 455l-6.52734-2.60156m5.57812 2.22265l.13281 1.21875m14.08204-.72265l-6.4297-2.83594m6.4297 2.83594l.17968 2.44531m13.32422-2.99219l-6.8086-1.7461m6.8086 1.7461l.57813 2.38672m12.84375-3.36328l-7.02344.20703m7.02344-.20703l1.21484 2.13281m12.10156-2.11328l-7.02343.16797m7.02343-.16797l1.20313 2.14063m12.10937-2.1875l-7.01953.26562m7.01953-.26562l1.23438 2.12109m12.07812-1.76953l-7.01172-.4375m7.01172.4375l1.01563 2.23437m12.28906-2.125l-6.9961-.66015m6.9961.66015l.94531 2.26563m12.38672-2.59375h-7.02734m7.02734 0l1.15235 2.16406m11.6875-.40234l-6.07813-3.52735m5.19531 3.01563l-.04687 1.22656m13.48047.20313l-4.54688-5.35938m3.88282 4.57813l-.45313 1.14062m14.77734-.69531l-5.23828-4.6875m4.47657 4.0039l-.29297 1.19141m15.05859-1.66797l-6.61719-2.36719m5.65625 2.02344l.17578 1.21094m14.1836-1.13281l-6.78125-1.83594m5.79297 1.5664l.27343 1.19532m14.14454-2.0625l-7.01172.4375m5.99218-.375l.64063 1.04687m13.49219-2.08593l-6.60938 2.39062m5.64844-2.04297l.91016.82031m12.86718 2.14063l-5.61328-4.22656m13.33203 4.2461l5.58203-4.26563m-4.76953 3.64453l-1.11718-.51172m14.78515 2.11328l3.25-6.23047m-3.25 6.23047l-2.45312.02344m15.79297-.01172l3.20312-6.2539m-3.20312 6.2539l-2.45704.03906m16.16407.13281l2.41797-6.59765m-2.41797 6.59765l-2.4297.33985m15.125-.63672l3.65626-6m-3.65625 6l-2.44922-.14063m17.14453.625l.89453-6.96875m-.89453 6.96875l-2.29297.8672"/><g clip-path="url(#R)"><path fill="none" stroke="#000" stroke-linecap="round" stroke-linejoin="round" stroke-miterlimit="10" stroke-width=".5" d="M147.5039 440.61719l-7.0078-.46875"/></g><path fill="none" stroke="#000" stroke-linecap="round" stroke-linejoin="round" stroke-miterlimit="10" stroke-width=".5" d="M147.5039 440.61719l1.00782 2.23828m12.25781-1.82813l-6.91016-1.28906m6.91016 1.28906l.73438 2.34375m12.35547-1.60547L167.40233 439m6.45703 2.76563l.20704 2.4453m13.05468-2.32812l-6.35156-3m5.42969 2.5625l.0586 1.22656m14.125-.67968l-6.2461-3.21485m5.33984 2.7461l.01563 1.22656m14.41015-1.23438l-6.65234-2.26171m5.6836 1.93359l.1953 1.21094m14.14844-1.08203l-6.77343-1.8672m5.78906 1.59766l.26562 1.19532m13.86328-.4414l-6.42968-2.83595m5.49219 2.42578l.08984 1.22266m14.44922-1.94531l-7.0039-.5664m7.0039.5664l.97265 2.25m12.32813-2.96094l-6.97656.85547m5.96093-.73438l.70313 1.00782m13.64062-.98438l-7.0039.5664m5.98437-.48437l.66406 1.03125m13.67188-.54687l-7.0039-.5664m5.98437.48437l.48437 1.125m13.23438.67578l-5.77344-4.00781m4.9336 3.42578l-.14454 1.21875m14.91797-2.89844l-7.00781.51953m7.00781-.51953l1.3086 2.07422m11.71875-3.22656l-6.4375 2.8203m5.5-2.41015l.96484.76172m13.52734-.3789L340.26562 441m5.91407-1.05469l.75781.96875m13.23437-2.125l-6.26171 3.1875m19.51171.125l-6.1289-3.4375m18.67969 4.375l-4.60157-5.3125m12.70313.6914l5.82422 3.9297m-4.97657-3.35547l.12891-1.22266m11.9336 3.77734l6.6328-2.32812m-6.6328 2.32812l-1.80079-1.66015m15.8086 2.83203l5.25-4.67188m-5.25 4.67188l-2.30078-.85156m3.0625.17187l-1.14844-.42578m15.00781 2.02734l2.63672-6.51171m-2.63672 6.51171l-2.4414.25391m2.82421-1.20312l-1.21875.1289m13.09375.15235l4.75391-5.17579m-4.7539 5.17579l-2.375-.6211m3.0664-.13281l-1.1875-.3086m15.1289 1.82422l2.11329-6.70312m-2.11328 6.70312l-2.41016.44532"/><g clip-path="url(#S)"><path fill="none" stroke="#000" stroke-linecap="round" stroke-linejoin="round" stroke-miterlimit="10" stroke-width=".5" d="M147.51172 426.95313l-7.02344.23046"/></g><path fill="none" stroke="#000" stroke-linecap="round" stroke-linejoin="round" stroke-miterlimit="10" stroke-width=".5" d="M147.51172 426.95313l1.22266 2.1289m12.08984-1.85937l-7.01953-.3047m7.01953.3047l1.0586 2.21093m11.97265-.97265l-6.45313-2.78516m6.45313 2.78516l.20312 2.44531m13.15235-2.54687l-6.53125-2.58204m6.53125 2.58204l.27734 2.4414m13.2461-3.20703l-6.94922-1.05078m6.94922 1.05078l.8164 2.3125m12.48047-2.21484l-6.91406-1.2461m6.91406 1.2461l.75 2.33593m12.16016-1.21484l-6.10157-3.48828m5.21485 2.98047l-.03906 1.22656m14.04687-.41797l-5.71094-4.08984m4.8789 3.4961l-.16405 1.21484m14.36718-.70313l-5.82812-3.92578m4.98047 3.35547l-.125 1.21875m14.80078-1.83594l-6.85156-1.55078m5.85546 1.32812l.32032 1.1836m14.07422-1.53907l-7.01563-.39453m5.99219.33594l.51562 1.11328m13.8086-.89453l-6.99219-.71484m5.97656.61328l.46094 1.13281m13.83984-.80078l-6.92968-1.17578m19.86328 2.26953l-6.16797-3.36328m5.26953 2.875l-.01172 1.22656m14.65235-2.29687l-7.02344-.2461m6.0039.21094l.53516 1.10156m13.78516-1.52344l-6.9961.66797m13.36719-1.0078l6.89453 1.34765m7.20313 1.61718l5.32812-4.58203m-4.55078 3.91797l-1.14453-.44531m15.64062 2.26172l1.41016-6.88672m-1.20312 5.88281l-1.17579.34766m11.96485-1.0039l6.05078-3.56641m-5.17188 3.04687l-1.04687-.64062m14.23047 2.05078l4.5586-5.34766m-3.89845 4.57031l-1.1953-.26562m12.83202-.41406l6.59375-2.4336m-6.59375 2.4336l-1.83203-1.63282m2.79297 1.27735l-.91797-.8164m14.66797 2.91015l3.80078-5.91016m-3.80078 5.91016l-2.44531-.19922m3-.66016l-1.22266-.10156m14.3086 1.14453l3.15234-6.27734m-3.15234 6.27734l-2.45313.0586m17.19531.3125l.29688-7.01954m-.29688 7.01953l-2.21484 1.0586"/><g clip-path="url(#T)"><path fill="none" stroke="#000" stroke-linecap="round" stroke-linejoin="round" stroke-miterlimit="10" stroke-width=".5" d="M147.35156 412.69531l-6.70312 2.11719"/></g><path fill="none" stroke="#000" stroke-linecap="round" stroke-linejoin="round" stroke-miterlimit="10" stroke-width=".5" d="M147.35156 412.69531l1.75 1.71875m11.71875-.92187l-7.00781.52344m5.98828-.44532l.65234 1.03516m13.45313.42187l-6.55078-2.54687m5.59766 2.17578l.14453 1.21875m13.42578.26563l-5.15625-4.77344m4.40625 4.07812l-.3125 1.1875m14.41015-.52734l-5.22265-4.70313m4.46094 4.01953l-.29688 1.1875m12.5.57813l-1.47656-6.86719m1.26172 5.86719l-.9375.79297m13.48437.27734l.49219-7.00781m-.42188 5.98828l-1.11718.5m15.72656.34375l-2.23828-6.66016m2.23828 6.66016l-1.6875 1.78516m16.33203-2.59375l-4.89453-5.03907m4.89453 5.03907l-.7539 2.33593m13.6328-1.97265l-4.02343-5.76563m3.4375 4.92578l-.5586 1.09375m15.91016-2.53906l-6.92578-1.19531m5.91797 1.01953l.38281 1.16797m13.90625-2.35156l-6.85937 1.52344m5.86328-1.30079l.79687.9297m11.64844-3.53907l-3.125 6.29687m2.66797-5.3789l1.22656-.03516m12.0039 2.26563l-.01952-.19922-.0586-.1914-.09375-.1797-.45703-.375-.1914-.05859-.19922-.01953-.20313.01953-.1914.0586-.45704.375-.09375.17968-.05859.1914-.01953.19923.01953.19921.0586.19141.09374.17578.45703.3789.19141.0586.20313.01953.19921-.01953.19141-.0586.45703-.3789.09375-.17578.0586-.1914.01953-.19922m11.8164 3.48046l.95703-6.96093m-.8203 5.94922l-1.14845.42187m13.90625-6.28906l1.79688 6.79297m13.30078-6.79688l-1.76953 6.80078m1.51172-5.80859l1.19531-.28516m9.21484.01953l4.5547 5.35157m-3.89063-4.57422l.45312-1.14063m11.625.98438l5.70313 4.10547m-5.70313-4.10547l.33203-2.42969m.4961 3.02734l.16797-1.21484m11.87109 1.46484l6.59766 2.41407m-6.59766-2.41407l-.33984-2.42968m1.30078 2.78125l-.33985-2.42969m1.29688 2.78125l-.16797-1.21484m11.35937 1.48828l7.01172.46093m-7.01172-.46093l-1.0078-2.23828m2.02734 2.30468l-1.00782-2.23828m2.02735 2.30469l-.5039-1.11719m11.90624 2.17969l6.75781-1.92969m-6.7578 1.92969l-1.70313-1.76953m16.27734 3.60547l4.23828-5.60547m-3.6211 4.79297l-1.21093-.19532m15.82422 1.71485l.40625-7.01563m-.40625 7.01563l-2.22656 1.02344m16.33203-1.06641l-1.17578-6.92969m1.17578 6.92969l-1.9414 1.4961"/><g clip-path="url(#U)"><path fill="none" stroke="#000" stroke-linecap="round" stroke-linejoin="round" stroke-miterlimit="10" stroke-width=".5" d="M147.10156 398.78906l-6.20312 3.29688"/></g><path fill="none" stroke="#000" stroke-linecap="round" stroke-linejoin="round" stroke-miterlimit="10" stroke-width=".5" d="M146.19922 399.26953l1.01953.6875m12.19531-2.33594l-4.19922 5.63282m18.92578-2.96094l-7.01953.29297m17.8711 3.20703l-2.09375-6.70703m1.78906 5.73047l-.86328.87109m11.375-.40234l4.1211-5.69532m-3.51954 4.8672l-1.21484-.16798m13.39453.51953l5.1875-4.73828m-4.4336 4.04688l-1.15234-.41016m14.85547 1.92969l2.90625-6.39844m-2.90625 6.39844l-2.44922.15234m16.54297.09766l1.34766-6.89844m-1.15235 5.89453l-1.17187.35938m15.51172.66797l-1.08985-6.94141m.92969 5.92969l-.98047.73828m14.52734.26172l-1.23828-6.91797m1.0586 5.91015l-.96485.75782m17.1797-2.11719l-6.67579-2.1875m5.70703 1.8711l.20703 1.20702m14.2539-2.04687l-7.02733.125m6.0039-.10547l.59375 1.07031m8.82422-4.24609l2.8125 6.4414m8.5664-2.14062l6.6836-2.16406m-5.71094 1.85156l-.88281-.85547m15.74219-3.32812l1.64844 6.83203m-1.40625-5.83985l.91796-.8125m11.06641.28907l3.82422 5.89453m-3.26563-5.03906l.59375-1.07032m12.71485-.07812l2.72265 6.47656m-2.32812-5.53515l.77734-.94922m16.80469 2.04296l-6.60156 2.41016m6.60156-2.41015l1.82422 1.64062m11.24219-2.17578l-6.10547 3.47656m6.10547-3.47656l2.07422 1.3125m-2.96094-.80469l2.07422 1.3086m-2.96094-.8047l1.03516.65626m14.12109-1.54688l-6.23828 3.23438m6.23828-3.23438l2.01953 1.39453m-2.92578-.92187l2.01953 1.39062m-2.92969-.92187l1.01172.69531m14.27344-1.29297l-6.54688 2.55078m6.54688-2.55078l1.85937 1.59766m-2.8125-1.22656l.9297.80078m7.03515 1.8789l6.0625-3.55468m-5.17969 3.03906l-1.04687-.64453m16.28515 2.89062l.44922-7.01172m-.44922 7.01172l-2.23828 1.00781m17.76953-1.62109l-3.98047-5.78906m3.98047 5.78906l-1.13281 2.17969m15.38672-3.13672l-5.86328-3.875m5.86328 3.875l-.23047 2.4414m-.6211-3.0039l-.23437 2.4414"/><g clip-path="url(#V)"><path fill="none" stroke="#000" stroke-linecap="round" stroke-linejoin="round" stroke-miterlimit="10" stroke-width=".5" d="M146.26953 384.4414l-4.53906 5.36329"/></g><path fill="none" stroke="#000" stroke-linecap="round" stroke-linejoin="round" stroke-miterlimit="10" stroke-width=".5" d="M145.60938 385.22266l1.19921.26171m11.46094-1.74218l-1.90625 6.76172m1.6289-5.77735l1.19532-.26172m9.38672-.1914l4.11328 5.69922m-3.51563-4.8672l.53907-1.10155m10.7539 3.58593l6.96094-.93359m-5.94922.79688l-.71484-.9961m13.5625 2.59766l5.8711-3.86328m-5.8711 3.86328l-2.15234-1.17578m15.39453 1.05468l6.01953-3.62109m-6.01953 3.6211l-2.10547-1.26173m19.1836 2.88282l-1.50782-6.86328m1.28906 5.86328l-.9336.79687m14.5586.1836l-1.6914-6.82422m1.4453 5.83203l-.91405.8164m14.71093.10547l-2.16406-6.68359m2.16406 6.6836l-1.70312 1.76562m13.21094-1.66797l1.45312-6.875m-1.45313 6.875l-2.35937.67578m14.76172-1.00781l3.27734-6.21485m-2.80078 5.3125l-1.22656.00391m16.7539 1.14453l-2.09765-6.70703m1.78906 5.73047l-.85937.875m16.89453-3.85938l-6.92188 1.21485m6.92188-1.21485l1.50781 1.9336m11.8125-1.89844l-6.9336 1.14844m5.92579-.98438l.74218.97657m13.625-.47266l-7.02343-.1875m7.02343.1875l1.09375 2.19531m-2.11328-2.22265l1.09375 2.1953m13.17578-1.57421l-6.89062-1.3789m6.89062 1.3789l.70313 2.35156m-1.70703-2.55078l.70703 2.34766m-1.70703-2.55078l.35156 1.17578m14.9961-.95313l-6.94922-1.01953m6.94921 1.01953l.82813 2.3125m-1.83984-2.46094l.82812 2.3125m13.16406-4.25l-6.28125 3.15235m6.28125-3.15235l2 1.41797m-2.91406-.96093l2.0039 1.42187m11.85157-2.46875l-5.53125 4.33203m5.53125-4.33203l2.24219.9961m-3.04688-.3672l2.24219.9961m11.9336-1.55078l-5.64454 4.1836m5.64453-4.1836l2.21485 1.0586m-3.03516-.44923l2.21484 1.0586m-3.03515-.44922l1.10547.52734m14.0586-1.42968l-6.0625 3.55468m6.0625-3.55468l2.08983 1.28515m-2.97265-.76953l2.08984 1.28516m-2.97265-.76953l1.04687.64453m14.41016.96484l-6.8125-1.73047m6.8125 1.73047l.58203 2.38281m-1.57422-2.63671l.29297 1.1914m12.35937 1.24219l-3.5039-6.08985m3.5039 6.08985l-1.30468 2.07812m.79296-2.96484l-.65234 1.03906m14.78906-.35156l-4.125-5.6914m4.125 5.6914l-1.07812 2.20313m.48047-3.03125l-.53907 1.10156m15.21094-1.02344l-5.64062-4.1914m5.64062 4.1914l-.3711 2.42578m-.44921-3.03515l-.3711 2.42578"/><g clip-path="url(#W)"><path fill="none" stroke="#000" stroke-linecap="round" stroke-linejoin="round" stroke-miterlimit="10" stroke-width=".5" d="M146.1875 371.0586l-4.375 5.5"/></g><path fill="none" stroke="#000" stroke-linecap="round" stroke-linejoin="round" stroke-miterlimit="10" stroke-width=".5" d="M146.1875 371.0586l2.41406.44921m-3.05078.35156l1.20703.22266m11.8789-1.53125l-2.64062 6.51172m2.64063-6.51172l2.4414-.25M158.25 371.5l1.22266-.125m10.52343-1.02344l1.26563 6.91406m-1.26563-6.91406l1.92578-1.52344m-1.74218 2.53125l.96484-.76171m11.85156-.17188l1.89844 6.76563m-1.6211-5.78125l.88673-.84766m11.66406.03906l2.8711 6.41406m-2.45313-5.48046l.7539-.96875m13.51172 6.7539l.13672-7.02344m-.13672 7.02344l-2.1875 1.10938m16.02344-1.13672l-.90625-6.96875m.77344 5.95312l-.9961.71094m17.48828-2.86328l-6.99609-.63281m6.9961.63281l.95312 2.26172m-1.96875-2.35547l.47656 1.13281m13.86328-1.59375l-7.01172.47656m7.01172-.47656l1.29297 2.08203m-2.3125-2.01171l1.29297 2.08203m13.03516-1.6172l-7-.59374m7 .59375l.96484 2.2539m-1.98437-2.33984l.96484 2.2539m13.375-2.21874l-7.01172-.49219m7.01172.49219l.9961 2.24219m-2.01563-2.3125l.9961 2.24218m13.29296-3.02344l-6.92187 1.21094m6.92187-1.21094l1.50781 1.9375m-2.51562-1.76171l.7539.96875m13.22657-2.15625l-6.23828 3.23437m6.23828-3.23437l2.01953 1.39062m-2.92578-.92187l1.01172.69921m13.42578-.65625l-6.66797 2.21094m6.66797-2.21094l1.77734 1.69532m-2.7461-1.375l1.77344 1.69531m12.63672-.28906l-6.91797-1.24219m6.91797 1.24219l.75 2.33594m-1.7578-2.51563l.375 1.16797m13.99608-1.41406l-7.01562-.39063m7.01562.39063l1.03125 2.22656m12.25-2.9336l-6.94921 1.02344m6.94921-1.02344l1.45704 1.97657m-2.46875-1.82813l.73046.98828m13.27344-2.17968l-6.30469 3.10546m6.3047-3.10546l1.99218 1.4375m10.74219-2.27735l-5.14063 4.78906m5.14063-4.78906l2.32031.79688m-3.07031-.10156l1.16015.39843m12.70703-1.29297l-4.74609 5.1875m4.7461-5.1875l2.375.61329m-3.06641.14062l2.375.61328m12.36328-.41406l-6.21094 3.28125m6.21094-3.28125l2.03125 1.375m-2.9336-.89844l2.03126 1.3789m12.58203-.52343l-7 .61719m7-.61719l1.33593 2.0586m-2.35546-1.96876l1.33593 2.0586m12.77344-.57031l-6.55078-2.53907m6.55078 2.53906l.29297 2.4375m-1.2461-2.80859l.14454 1.21875m12.60937.92188l-3.52344-6.08204m3.52344 6.08204l-1.29687 2.08203m.78515-2.96485l-.64843 1.03907m15.3125-.83204l-5.19922-4.72656m5.19922 4.72656l-.60547 2.37891m-.14844-3.0664l-.60547 2.3789"/><g clip-path="url(#X)"><path fill="none" stroke="#000" stroke-linecap="round" stroke-linejoin="round" stroke-miterlimit="10" stroke-width=".5" d="M144.92578 357.10547l-1.85156 6.77734"/></g><path fill="none" stroke="#000" stroke-linecap="round" stroke-linejoin="round" stroke-miterlimit="10" stroke-width=".5" d="M144.92578 357.10547l2.39453-.53906m12.19922 1.1914l-4.41016 5.47266m4.41016-5.47266l2.41016.46094m11.38281.0039l-5.36328 4.53907m5.36328-4.53906l2.27734.91015m-3.05859-.25l2.28125.91016m12.58203.02734l-6.89844 1.34375m6.89844-1.34375l1.54297 1.91016m-2.54688-1.71485l1.54297 1.91016m-2.54687-1.71484l1.54297 1.91015m13.82031-2.03906l-6.98047.82031m6.98047-.8203l1.39844 2.01952m-2.41406-1.89844l1.39843 2.01563m-2.41406-1.89844l1.39844 2.01953m-2.41406-1.89843l.69921 1.0078m15.64453-.42187l-6.9453-1.0664m6.9453 1.0664l.8125 2.31641m-1.8203-2.47266l.80859 2.31641m-1.82032-2.47266l.8086 2.31641m14.55469-2.23828l-7-.59766m7 .59766l.96484 2.2539m-1.98438-2.34375l.96485 2.25782m-1.98047-2.34375l.96094 2.25781m14.39453-2.17188l-7.01172-.42187m7.01172.42188l1.01953 2.23437m-2.03906-2.29297l1.01953 2.23047m-2.03906-2.29297l.5078 1.11719m14.84376-1.45703l-7.00781.5039m7.0078-.5039l1.3047 2.07812m-2.32422-2.00781l1.30468 2.08203m12.97266-2.58594l-6.89063 1.3711m6.89063-1.3711l1.55078 1.90235m-2.55469-1.70313l.77735.94922m13.54297-1.14844l-6.89453 1.3672m6.89453-1.3672l1.55078 1.90235m-2.55469-1.70313l.77734.94922m13.41407-1.6211l-6.63672 2.3125m6.63672-2.3125l1.80078 1.66798m-2.76953-1.33204l.90234.83594m13.40625-1.08984l-6.6914 2.14844m6.6914-2.14844l1.76172 1.71094m-2.73438-1.39844l.87891.85547m13.5625-.4414l-6.99219.69921m6.99219-.69922l1.35938 2.03906m-2.37891-1.9375l1.36328 2.03907m12.8789-2.66407l-6.80859 1.7422m6.8086-1.7422l1.65234 1.81641m-2.64453-1.5625l.82812.90625m13.19141-1.90625l-6.23828 3.23438m6.23828-3.23438l2.01953 1.39453m11.09766-1.73047l-5.83985 3.90625m5.83985-3.90625l2.16406 1.16406m10.8711-1.52734l-5.28126 4.63672m4.51172-3.96094l1.14844.4336m12.47266-1.55079l-4.35157 5.51954m4.35157-5.51954l2.41406.4375m10.80078-.51171l-4.15234 5.66796m4.15234-5.66796l2.42969.34765m-3.03516.47656l1.21485.17579m12.48828-1.14844l-3.71485 5.96484m3.71485-5.96484l2.4453.16406m-2.98827.70313l1.22656.08203m13.61719-.02735l-5.6914 4.1211m5.6914-4.1211l2.20703 1.07813m-3.03516-.48047l1.10157.54297m13.58203-.02735l-6.76953 1.89063m6.76953-1.89063l1.6914 1.77735m-2.67578-1.5l.84375.88672m13.17578 1.42578l-6.21093-3.28906m6.21093 3.28906l.0039 2.45312m-.90624-2.92968v1.22656m13.10156.5039l-3.98047-5.79296m3.98047 5.79296l-1.13281 2.17579m.55469-3.01954l-.56641 1.08594"/><g clip-path="url(#Y)"><path fill="none" stroke="#000" stroke-linecap="round" stroke-linejoin="round" stroke-miterlimit="10" stroke-width=".5" d="M144.32031 343.67969l-.64062 6.9961"/></g><path fill="none" stroke="#000" stroke-linecap="round" stroke-linejoin="round" stroke-miterlimit="10" stroke-width=".5" d="M144.32031 343.67969l2.26172-.94922m12.83984 1.63672l-4.21484 5.6211m4.21484-5.6211l2.42579.3789m11.69922.47266l-5.83204 3.91797m5.83203-3.91797l2.16407 1.15625m-3.01172-.58594l1.08203.57813m13.48828-.33203l-6.64844 2.28515m6.64844-2.28515l1.79297 1.67578m-2.76172-1.34375l1.79297 1.67578m-2.75781-1.34375l.89453.83984m14.51172-.82812l-6.96485.9375m6.96485-.9375l1.42969 1.99219m-2.44141-1.85938l1.42969 1.9961m-2.44532-1.85938l.71485 1m14.61719-1.33985l-6.94532 1.07422m6.94531-1.07421l1.46875 1.96484m-2.47656-1.8086l1.46875 1.96485m-2.48047-1.8086l.73438.98438m14.6211-1.15625l-6.98438.79297m6.98437-.79297l1.38672 2.02344m-2.40234-1.90625l1.38672 2.02344m-2.40235-1.91016l.6914 1.01172m14.64845-1.28125l-6.97266.8711m6.97266-.8711l1.41406 2.00781m-2.42969-1.88281l1.41406 2.00781m-2.42578-1.8789L239.3672 348m14.58203-1.58203l-6.85938 1.51953m6.85938-1.51953l1.59375 1.86719m-2.58984-1.64454l1.59375 1.86329m-2.59375-1.64454l.79687.9336m14.20703-2.22656l-6.24219 3.22265m6.2422-3.22265l2.01952 1.39453m-2.92968-.92578l1.01171.69921m12.55079-2.0664l-4.91797 5.01953m4.91797-5.01953l2.35156.6914m11.6914.34375l-6.375 2.95313m6.375-2.95313l1.95704 1.48047m11.68359-.0625l-7.02344.11329m7.02344-.11329l1.1875 2.14844m12.08984-2.60547l-6.94922 1.02735m6.94922-1.02735l1.45703 1.97656m-2.46875-1.82421l.73047.98437m13.45703-1.72656l-6.67187 2.21094m6.67187-2.21094l1.77344 1.6914m-2.74219-1.37109l1.77344 1.69531m12.54688-1.89453l-6.7461 1.96485m6.7461-1.96485l1.71484 1.75781m-2.69531-1.47265l.85547.8789m13.39062-1.32421l-6.64453 2.28515m6.64453-2.28515l1.79297 1.67578m11.67578-1.05469l-6.94922 1.04297m5.9375-.89063l.73047.98438m13.57031-1.27344l-6.90234 1.3164m5.89844-1.125l.76953.95704m13.04297-2.41016l-5.88672 3.83985m5.88672-3.83985l2.14844 1.1836m10.28125-2.11329l-4.11329 5.69922m4.11329-5.69921l2.42968.33593m11.03516-.21875l-4.41797 5.46485m4.41797-5.46485l2.41016.46875m-3.05079.32813l1.20313.23047m13.59766-.03125l-6.10547 3.47265m6.10547-3.47265l2.07421 1.3125m11.69532.65234l-7.01172-.45313m7.01172.45313l1.0078 2.23438m11.97657-.96485l-6.35547-2.9961m6.35547 2.9961l.1211 2.44922m-1.04297-2.88672l.05859 1.22656"/><g clip-path="url(#Z)"><path fill="none" stroke="#000" stroke-linecap="round" stroke-linejoin="round" stroke-miterlimit="10" stroke-width=".5" d="M147.28125 332.60547l-6.5625 2.51562"/></g><path fill="none" stroke="#000" stroke-linecap="round" stroke-linejoin="round" stroke-miterlimit="10" stroke-width=".5" d="M147.28125 332.60547l1.85156 1.60937m11.51172-1.47656l-6.66016 2.2461m6.66016-2.2461l1.78516 1.6875m10.76953-2.96094l-5.13672 4.79688m5.13672-4.79688l2.32031.79688m10.82813-.96485l-4.8047 5.13282m4.8047-5.13281l2.36718.64062m12.03125 1.48047l-6.97265.88672m6.97265-.88672l1.41407 2.0039m-2.4297-1.875l.71095 1.00391m13.6328-.38672l-7-.60156m7 .60156l.96485 2.25781m-1.98047-2.34375l.96094 2.25782m13.35938-2.89063l-6.97657.83594m6.97657-.83594l1.40234 2.01172m-2.41797-1.89062l1.40234 2.01171m12.70704-3.0078l-6.53516 2.58593m6.53516-2.58594l1.86718 1.58985m-2.8164-1.21485l1.86719 1.58985m12.40234-1.94922l-6.54688 2.55469m6.54688-2.5547l1.85937 1.60157m-2.8125-1.23047l1.86328 1.60156m12.35157-2.10156l-6.4375 2.8125m6.4375-2.8125l1.92187 1.52344m-2.85937-1.11328l.96094.76172m13.37109-.97657l-6.59766 2.42188m6.59766-2.42188l1.82812 1.63282m11.69532-.65235l-7.01172.45703m7.01172-.45703l1.28906 2.08985m12.01562-2.20704l-6.99218.69532m6.99218-.69531l1.35938 2.04296m11.32812-3.72265l-5.73828 4.05469m5.73828-4.0547l2.19141 1.10548m10.91406-1.3711l-5.32031 4.58594m5.32031-4.58594l2.28906.88672m-3.0625-.21875l1.14454.4414m12.80859-1.26171l-5.04688 4.89062m5.04688-4.89062l2.33203.7539m-3.0664-.04296l1.16796.375m13.78516.58984l-6.85547 1.53906m5.85938-1.3164l.79687.92968m8.17578 2.5625l3.82422-5.89453M369 335.95312l-1.22266-.10546m18.67188-4.13672l-5.55469 4.30469m4.7461-3.6797l1.11718.50391m11.41016-2.28515l-2.36328 6.61719m2.01953-5.65625l1.21094-.17579m14.3125.76954l-6.08985 3.5039m5.20313-2.99219l1.03906.65235m13.3125-.86719l-6.39453 2.91406m6.39453-2.91406l1.94922 1.4961m11.46875-1.2461l-6.59766 2.41406m6.59766-2.41406l1.82812 1.64063m11.69141-.19141l-7.00781-.48438m7.00781.48438l1 2.24219m-2.01953-2.3125l.5 1.12109m13.83984-1.11328l-7.01562-.35938"/><g clip-path="url(#aa)"><path fill="none" stroke="#000" stroke-linecap="round" stroke-linejoin="round" stroke-miterlimit="10" stroke-width=".5" d="M467.07031 334.04297l1.03906 2.22265"/></g><path fill="none" stroke="#000" stroke-linecap="round" stroke-linejoin="round" stroke-miterlimit="10" stroke-width=".5" d="M466.05078 333.99219l.51953 1.10937"/><g clip-path="url(#ab)"><path fill="none" stroke="#000" stroke-linecap="round" stroke-linejoin="round" stroke-miterlimit="10" stroke-width=".5" d="M147.17578 319.04297l-6.35156 3.00781"/></g><path fill="none" stroke="#000" stroke-linecap="round" stroke-linejoin="round" stroke-miterlimit="10" stroke-width=".5" d="M147.17578 319.04297l1.96875 1.46484m-2.89453-1.02734l1.96875 1.46484m12.20703-2.03125l-6.22266 3.26563m6.22266-3.26563l2.02734 1.38281m-2.93359-.90625l1.01563.69141m11.22265-2.85937L169.5 323.875m1.92969-5.6875l1.21094-.19531m14.77734 3.10156l-6.94531-1.08984m5.93359.92968l.40234 1.16016m13.96094-1.41406l-7.01953-.26563m7.01953.26563l1.07031 2.20703m-2.08984-2.2461l.53516 1.10547m13.80468-1.2578l-7.02734.11718m7.02734-.11719l1.1875 2.14844m-2.21093-2.1289l1.1875 2.14452m12.99218-3.14843l-6.71093 2.08593m6.71093-2.08593l1.7422 1.72656m-2.71876-1.42188l1.74219 1.72657m12.58984-1.89063l-6.79297 1.80469m6.79297-1.80469l1.66797 1.80078m-2.65625-1.53515l1.66797 1.79687m12.66797-1.92187l-6.85938 1.52734m6.85938-1.52734l1.59766 1.86328m-2.59375-1.64063l.79687.92969m13.48828-1.26172l-6.80469 1.7461m6.8047-1.7461l1.65624 1.8125m-2.64453-1.5586l.82422.90626m13.4375-1.3125l-6.72266 2.04687m6.72266-2.04687l1.73437 1.73828m-2.71093-1.4414l.86328.87109m13.5625-.48438l-6.99219.6836m6.99219-.6836l1.35937 2.04297m-2.375-1.94531l.67969 1.02344m13.64844-.39063l-6.98438-.77734m6.98438.77734l.90625 2.27734m12.1289-4.08593l-6.42578 2.83593m6.42578-2.83593l1.9297 1.51953m-2.86329-1.10547l.96484.75781m12.98438-1.71875l-5.82422 3.9336m5.82422-3.9336l2.16406 1.15235m-3.01172-.58204l1.08203.57813m12.79688-1.51172l-5.25781 4.66016m5.2578-4.66016l2.29688.85547m-3.0625-.17969l1.14844.42969m12.42188-1.57813l-4.23829 5.60547m4.23829-5.60547l2.42187.38672m-3.03906.42969l1.21094.1914m13.8203.38673l-6.4375 2.8125m5.50391-2.40235l.96094.76172m12.76953-2.01563l-5.39843 4.5m5.39843-4.5l2.26953.9297m10.51954-1.4375l-4.34766 5.51952m4.34766-5.51953l2.41406.4336m7.51953-.97266l2.41406 6.59766m-2.0625-5.64063l.82031-.91015m15.09375 6.30078l-3.48437-6.10157m18.1289 4.75782l-6.14453-3.41016m6.14454 3.41016l-.04297 2.45312m13.76562-4.65234l-6.95703.98437m6.95703-.98437l1.4414 1.98437m-2.45312-1.83984l.71875.99219m13.50391-1.6211l-6.75 1.95703"/><g clip-path="url(#ac)"><path fill="none" stroke="#000" stroke-linecap="round" stroke-linejoin="round" stroke-miterlimit="10" stroke-width=".5" d="M466.9375 319.57031l1.70703 1.75781"/></g><path fill="none" stroke="#000" stroke-linecap="round" stroke-linejoin="round" stroke-miterlimit="10" stroke-width=".5" d="M465.95313 319.85547l.85546.8789"/><path fill="#00f" fill-rule="evenodd" d="M175.19922 463.21094h8.61719V453.0625h-8.6172v10.14844"/><path fill="azure" fill-rule="evenodd" d="M177.03125 454.89844h.83203v2.82031h3.28516v-2.82031h.83594v6.48047h-.83594v-2.91797h-3.28516v2.91797h-.83203v-6.48047"/><path fill="#00f" fill-rule="evenodd" d="M401.55469 463.21094h8.61719V453.0625h-8.6172v10.14844"/><path fill="azure" fill-rule="evenodd" d="M403.38672 454.89844h.83203v2.82031h3.28906v-2.82031h.83203v6.48047h-.83203v-2.91797h-3.28906v2.91797h-.83203v-6.48047"/><path fill="#ff3030" fill-rule="evenodd" d="M322.35938 441.01953h7.6914V430.8711h-7.6914v10.14844"/><path fill="azure" fill-rule="evenodd" d="M324.1914 432.70703h.83204v5.73828h3.19531v.73828h-4.02734v-6.47656"/><path fill="#ff3030" fill-rule="evenodd" d="M189.20703 427.70313h7.6914v-10.14454h-7.6914v10.14454"/><path fill="azure" fill-rule="evenodd" d="M191.03906 419.39063h.83594v5.73828h3.1914v.74218h-4.02734v-6.48046"/><path fill="#00f" fill-rule="evenodd" d="M392.67578 427.70313h8.6211v-10.14454h-8.6211v10.14454"/><path fill="azure" fill-rule="evenodd" d="M394.51172 419.39063h.83203v2.82421h3.28516v-2.82421h.83203v6.48046h-.83203v-2.91796h-3.28516v2.91796h-.83203v-6.48046"/><path fill="#00f" fill-rule="evenodd" d="M219.58203 414.38672h8.61719v-10.14453h-8.61719v10.14453"/><path fill="azure" fill-rule="evenodd" d="M221.41406 406.07422h.83203v2.82422h3.28907v-2.82422h.83203v6.48047h-.83203v-2.91406h-3.28907v2.91406h-.83203v-6.48047"/><path fill="#ff3030" fill-rule="evenodd" d="M291.28906 405.51172h7.6914v-10.14453h-7.6914v10.14453"/><path fill="azure" fill-rule="evenodd" d="M293.1211 397.19922h.83593v5.73828h3.1914v.74219h-4.02734v-6.48047"/><path fill="#ff3030" fill-rule="evenodd" d="M424.4414 396.63281h7.69141v-10.14453h-7.6914v10.14453"/><path fill="azure" fill-rule="evenodd" d="M426.27344 388.32031h.83203v5.74219h3.19531v.73828h-4.02734v-6.48047"/><path fill="#00f" fill-rule="evenodd" d="M459.2539 392.19531h8.6172v-10.14453h-8.6172v10.14453"/><path fill="azure" fill-rule="evenodd" d="M461.08594 383.88281h.83203v2.82422h3.28515v-2.82422h.83594v6.48047h-.83594v-2.91406h-3.28515v2.91406h-.83203v-6.48047"/><path fill="#ff3030" fill-rule="evenodd" d="M193.64453 356.6875h7.69531v-10.14453h-7.6953v10.14453"/><path fill="azure" fill-rule="evenodd" d="M195.47656 348.375h.83594v5.74219h3.1914v.73828h-4.02734V348.375"/><path fill="#ffffe0" fill-rule="evenodd" d="M350.6211 355.27344h22.17968v-10.19531H350.6211v10.1953"/><path fill-rule="evenodd" d="M354.1211 346.91406h.5078v6.29297h-.78515v-4.48828h-1.39063v-.55469l.5586-.0664.2539-.0547.23047-.08983.20313-.14063.17187-.21094.14454-.29297.10546-.39453m4.8125 0l.23047.01563.21875.0586.20703.08983.19532.1211.18359.14844.17188.17578.30468.41797.24219.49609.17969.54297.10937.58203.03906.58984-.03906.59375-.10937.58204-.17969.55468-.24219.5039-.30469.42579-.17187.17969-.1836.15625-.1953.1211-.20704.09374-.21875.05469-.23047.01953-.23046-.01953-.21875-.05469-.20704-.09375-.1953-.1211-.1836-.15624-.17188-.17969-.30469-.42578-.24218-.5039-.17969-.5547-.10938-.58203-.03906-.59375h.83203l.03125.5625.07813.50782.1289.4414.16016.375.1914.30078.21094.22266.22266.13672.22656.04687.22657-.04687.22265-.13672.21094-.22266.1914-.30078.16016-.375.1289-.4414.08204-.50782.02734-.5625-.02734-.5625-.08203-.5-.1289-.43359-.16016-.36719-.19141-.29297-.21094-.21093-.22265-.13282-.22657-.04687-.22656.04687-.22265.13282-.21094.21093-.1914.29297-.16017.36719-.1289.4336-.07813.5-.03125.5625h-.83203l.03906-.58985.10938-.58203.17969-.54297.24219-.4961.30468-.41796.17188-.17578.1836-.14844.1953-.1211.20704-.08984.21875-.0586.23046-.01562m5.08985 0h.51172v6.29297h-.78907v-4.48828h-1.38671v-.55469l.55859-.0664.2539-.0547.22657-.08983.20703-.14063.17187-.21094.14063-.29297.10547-.39453m2.82422 2.17578h.78906l.01953-.3164.0586-.28906.09765-.25.14063-.21875.18359-.17188.22265-.1289.26563-.08204.30469-.02734.23828.02344.22656.0625.20313.10156.17968.13672.14844.17578.11328.20312.07031.23829.02735.26171-.02344.26954-.0664.22656-.10938.1914-.15625.17188-.19922.16015-.2461.16797-.63671.38672-.53516.3125-.4375.32031-.34765.32422-.26563.33594-.1875.34766-.125.3711-.07031.39452-.01953.41797h4.21094v-.73828h-3.33204l.08204-.28516.11328-.23828.14843-.19922.1875-.18359.23047-.16797.27735-.17578.71875-.41797.41406-.20703.34765-.23047.28125-.25.21875-.26562.16407-.28125.10937-.28125.0664-.28516.01954-.28125-.04297-.38281-.1211-.34766-.1875-.3086-.25-.26562-.30468-.21094-.34375-.16015-.3789-.09766-.41016-.03125-.4336.03125-.39843.09766-.35547.16797-.30469.23437-.2461.30469-.1875.375-.11327.44531-.04297.51953"/></g></defs><use xlink:href="#ad"/></svg>