<svg xmlns="http://www.w3.org/2000/svg" role="img" xmlns:xlink="http://www.w3.org/1999/xlink" viewBox="142.45 309.95 326.84 171.84"><defs><clipPath id="a"><path d="M144 311.67188h1v168.65625h-1zm0 0"/></clipPath><clipPath id="b"><path d="M144 311.67188h324v168.65625H144zm0 0"/></clipPath><clipPath id="c"><path d="M387 479h3v1.32813h-3zm0 0"/></clipPath><clipPath id="d"><path d="M467 311.67188h1v168.65625h-1zm0 0"/></clipPath><clipPath id="e"><path d="M144 479h4v1.32813h-4zm0 0"/></clipPath><clipPath id="f"><path d="M146 480h2v.32813h-2zm0 0"/></clipPath><clipPath id="g"><path d="M153 479h8v1.32813h-8zm0 0"/></clipPath><clipPath id="h"><path d="M159 479h2v1.32813h-2zm0 0"/></clipPath><clipPath id="i"><path d="M166 479h9v1.32813h-9zm0 0"/></clipPath><clipPath id="j"><path d="M172 480h2v.32813h-2zm0 0"/></clipPath><clipPath id="k"><path d="M180 479h8v1.32813h-8zm0 0"/></clipPath><clipPath id="l"><path d="M186 480h2v.32813h-2zm0 0"/></clipPath><clipPath id="m"><path d="M193 479h9v1.32813h-9zm0 0"/></clipPath><clipPath id="n"><path d="M199 480h2v.32813h-2zm0 0"/></clipPath><clipPath id="o"><path d="M206 479h9v1.32813h-9zm0 0"/></clipPath><clipPath id="p"><path d="M212 480h2v.32813h-2zm0 0"/></clipPath><clipPath id="q"><path d="M220 480h8v.32813h-8zm0 0"/></clipPath><clipPath id="r"><path d="M226 480h2v.32813h-2zm0 0"/></clipPath><clipPath id="s"><path d="M233 479h8v1.32813h-8zm0 0"/></clipPath><clipPath id="t"><path d="M239 480h2v.32813h-2zm0 0"/></clipPath><clipPath id="u"><path d="M246 479h9v1.32813h-9zm0 0"/></clipPath><clipPath id="v"><path d="M252 480h2v.32813h-2zm0 0"/></clipPath><clipPath id="w"><path d="M260 477h7v3.32813h-7zm0 0"/></clipPath><clipPath id="x"><path d="M273 478h8v2.32813h-8zm0 0"/></clipPath><clipPath id="y"><path d="M287 478h7v2.32813h-7zm0 0"/></clipPath><clipPath id="z"><path d="M300 478h7v2.32813h-7zm0 0"/></clipPath><clipPath id="A"><path d="M313 478h8v2.32813h-8zm0 0"/></clipPath><clipPath id="B"><path d="M319 480h1v.32813h-1zm0 0"/></clipPath><clipPath id="C"><path d="M326 479h9v1.32813h-9zm0 0"/></clipPath><clipPath id="D"><path d="M332 479h2v1.32813h-2zm0 0"/></clipPath><clipPath id="E"><path d="M339 479h9v1.32813h-9zm0 0"/></clipPath><clipPath id="F"><path d="M346 480h3v.32813h-3zm0 0"/></clipPath><clipPath id="G"><path d="M355 476h4v4.32813h-4zm0 0"/></clipPath><clipPath id="H"><path d="M369 476h3v4.32813h-3zm0 0"/></clipPath><clipPath id="I"><path d="M382 476h3v4.32813h-3zm0 0"/></clipPath><clipPath id="J"><path d="M395 476h4v4.32813h-4zm0 0"/></clipPath><clipPath id="K"><path d="M408 476h4v4.32813h-4zm0 0"/></clipPath><clipPath id="L"><path d="M423 476h2v4.32813h-2zm0 0"/></clipPath><clipPath id="M"><path d="M434 477h6v3.32813h-6zm0 0"/></clipPath><clipPath id="N"><path d="M446 479h8v1.32813h-8zm0 0"/></clipPath><clipPath id="O"><path d="M452 480h2v.32813h-2zm0 0"/></clipPath><clipPath id="P"><path d="M460 478h8v2.32813h-8zm0 0"/></clipPath><clipPath id="Q"><path d="M144 466h4v2h-4zm0 0"/></clipPath><clipPath id="R"><path d="M144 453h4v1h-4zm0 0"/></clipPath><clipPath id="S"><path d="M144 439h4v2h-4zm0 0"/></clipPath><clipPath id="T"><path d="M144 426h4v2h-4zm0 0"/></clipPath><clipPath id="U"><path d="M144 412h4v4h-4zm0 0"/></clipPath><clipPath id="V"><path d="M144 397h3v6h-3zm0 0"/></clipPath><clipPath id="W"><path d="M466 400h2v4h-2zm0 0"/></clipPath><clipPath id="X"><path d="M144 384h3v7h-3zm0 0"/></clipPath><clipPath id="Y"><path d="M144 371h4v5h-4zm0 0"/></clipPath><clipPath id="Z"><path d="M144 358h4v5h-4zm0 0"/></clipPath><clipPath id="aa"><path d="M144 344h3v7h-3zm0 0"/></clipPath><clipPath id="ab"><path d="M466 345h2v3h-2zm0 0"/></clipPath><clipPath id="ac"><path d="M144 331h4v5h-4zm0 0"/></clipPath><clipPath id="ad"><path d="M466 332h2v3h-2zm0 0"/></clipPath><clipPath id="ae"><path d="M144 319h4v3h-4zm0 0"/></clipPath><clipPath id="af"><path d="M466 319h2v3h-2zm0 0"/></clipPath><g id="ag" clip-path="url(#clip1)"><path fill="#fff" fill-opacity="0" fill-rule="evenodd" d="M0 0h1000v1000H0zm0 0"/><path fill="#d3d3d3" fill-opacity="0" fill-rule="evenodd" d="M162.15234 355.86719l-.23437.29297.0586.23437.11718.17188.17578.23437.29297.34766.11328.0586.11719-.17188.0586-.23438.17577-.17578.46485-.17578h.69922l.23437.29297.28906.8164.0586.17579.17578.23046.35156.23438.69922.69922.17188.17578.23437.34765.23438.41016.28906.58203.41015.46485.23047.23437.23438.17578.11719.23047.17578.29297.17187 1.16406v.23438l.0586.28906.05859.11719.11719.11719.34765.41015.11719.17188.17578.17578.17578.23437.11719.17188.17188.35156.05859.23438.23437.40625.23438-.0586-.17578.17578-.0586.92969h-.58203l-.23437-.11328-.34766.11328-.11719.11719-.05859.29297-.0586.17578-.11718.17187-.46484.29297-.0586.23438-.0586.11328v.64453l.0586.17187v.41016l.0586.0586v.40624l.05859.40625.11719.17579.05859.05859.23047.64062-.0586.29297v.69922l-.05859.58203v.23438l-.0586.23047-.05468.35156v1.92187l.05469.1172h.42578l-.36719.11718-.02344.35156.89063 1.16797 1.74219.53906 1.33984.35938v.53906l.08984.8086.53516.71484 1.51953.26953.89063-.08594.08984 1.16406.53516.1797 1.16015-.1797 2.05469-.98437 1.16016-.36328 1.8789-.17578 1.69531-.1797-.17968.71876-1.51563.08594-1.25.08984-.80469.26953-1.07421.8086.26953.71875.53515.89843-.17968.625-.26563.8086.26563 1.07812.625.89844.80468.17969 1.25-.1797-.26562.72267.09766.5039.05468.29297v.17188l.0586.29296v.40625l.17578.1172.35156.11718h.40625l.29297-.17578.11328-.11719.0586-.11719.11718-.23047.0586-.17578.35156-.46484.23047-.17578.17578-.0586.17578.0586.0586.17578.11718.98828.05469.46875.0586.17188.11718.23437.17578.0586.8164.05859h.28907l.11719.23437.05859.40625.0586.35156v1.10547l.11718.29297.11719.34766.28906.69922.17578.35156.58203.7539.35157.17579.17187.0586.46875.23437.64063.46484.34765.23438.29297.17578.29297.05468.23047.0625.8164.34766.29297.17578.11328.17188.35157.35156.11719.17578.52343.64063v.28906l.0586.35156v.34766l.05859.35156.0586.28906.11718.0586.17188.05859h.17578l.58203.23437.17578.1172.17578.28905.17578.23438.11328.23437.29297.23047.11719.11719v.41016l.0586.05468.28906.23438.23437.11719.0586.11718.11718.17188.0586.11719.23047.23437.05859.17578.23437.0586.1172.05859-.1172.11328-.05859.11719v.11719l-.11719.29296-.11719.28907v.58203l.17579.11719.11718.05859.0586.11719.11719.11719.11328.05859.17578.34765.0586.35157.05858.40625v.17578l-.05859.17578-.11719.69922v.17187l.1172.17579.29296.29296h.40625l.17578.1172.11719.17187.11719.29296v.23438h-.52735l-.23047-.23438h-.23437l-.17578.0586-.0586.69922.0586.34765.11719.17579.17578.41015.11718.23047.28907.46875.17578.05469h.52344l.23437.0586.75781.64062.0586.29296v.23438l.05859.0586.23047.34765v.35156l-.11719.17188v.29297l.29297.28906.29297.17578.17187.0586.29297.17577.29297.1172.58203.40624.28906.23438.29297.17578.21875.16015.01563.01172.23047.17579.64062.52343.17578.23438.1172.17578.17577.17578.11328.17188v.64062l.1172.17578.46874.11719.58203.11719.23438.05859.23047.11328.29297.11719.11328.0586.58593.35156.28907.17187.17578.0625.17578.05469.17578.0586.69922.35155.28906.17579.23438.05468.28906.17578.23437.1172.64063.40624.29297.11719.17187.0586.23438.05859.41015.05859.23047.0586.23438.11718.0586.17188-.41017.17578.46875.0586.0586.29296.11328.23438.17578.05468.23438.0586.17578.05859.40625.11719.64062.23437.11719.17188.0586.23437v.17578l-.0586.1172-.0586.40624.23438.23438.11719.05859.34766.11719.64062.23047.17578.11718.28906.1172.17578.17577.23438.46485.58203 1.10546.17578.17579.34766.17578.17578.11719.35156.11718 1.04688.52344.23437.0586.46485.11327.29297.0586.46484.17578.75781.58203.23438.23438.34765.46484.17578.17578.28907.23438.8164.69921.29297.17579.28906.28906.29297.17578.29297.28906.69531.64063.17578.17578.29297.23437.28907.23438.46875.28906.64062.58203.34766.23438.23437.29297.34766.34765.35156.46485.9336.99218.34765.40625.11719.17579.23437.05859.11328.11719.64454.17578.23047.11328.23437.0586.29297.17577.23047.1172.9336.69921.40624.40625.23438.17578.40625.17578.23437.11719.8164.34766.34766.23437.23438.11719.29297.28906.23047.11719.7578.35156.35157.17188.23047.05859.29297.11719.23437.0586.8711.17577h.8164l.46875.23047.17188.0586.875.69921.46484.1172.29297.05858.17578.0586.23047.0586.46875.05859.34766.05859.35156.0586.40625.05859h.29297l.17187.0586v.23046l.17578.17578h.29297l.34766.0586.35156.05859.69922.11719h.64063l.46484-.23438.29297-.17578.17187-.11719.41016-.17187.28906-.17578.9336-.46485.46875-.29297.52343-.29296.46485-.17188.46484-.17578 1.05078-.46485.28906-.11718.41016-.11719.28906-.11719.52735-.17578 1.51562-.69922.58203-.34765.28907-.0586.29297-.0586.34765-.11718.875-.23047.35156-.11719h.11329l.23437-.05859.875-.23437.23438-.0586h.8125l.35156-.0586.8164-.11718.17188-.0586.35156-.05468.29297-.0586.23047-.05859.8164-.17578.17579-.0586h.34765l.23438-.05859.46484-.11718.75781-.17188.23438-.0586h.34765l.41016-.11718.28906-.0586 1.28516-.05859h.28906l.41016-.0586.23047-.05858h.17578l.875-.1172h.40625l.41015-.11718h.34766l.35156-.11328.8711-.0586h1.75l1.04687.28907.41016.11719.28906.11718.35156.11719.28907.11719 1.05078.17187.28906.0586h.29297l.29297.05859.17187.0586.41016.05859.17187.0586.1172.05858h.11718l.11719.0586.35156.0586h.11328l.41016.0664 1.92187.39453 1.92578.39453 1.51953.44922 1.69532.71875 2.14453.80469 1.60547-.71875 1.42968-.80469 1.16016-1.07813 1.25-.44921 3.03516-.71875 1.875-.35938 2.14453-1.34765 2.23437-1.25391 2.5-1.25781 1.69531-.44922 1.78516-.17969 1.16016-.26953.625.53906 1.33984-.26953.71485-.98828.98437-1.34375.44531-.17969.80469-.35937 1.875-.53907 1.78516-.44921 1.25-.26954 1.16015-.08984 1.69922-.08984 1.96094-.26954 1.25-.08984h.53906l.625-.08984h.89063l2.14453-.17969 2.41015-.17969 2.58985-.08984 1.69531.17969 1.60938.08984 1.42968.35938 1.16016.71875 1.875.98828 1.16015 1.52734.26563.71484.6289.08985.35548.89844.53515.53906.53516 1.52734 1.07422.35938h.53515l-.80469.53515.08985 1.70703.71484 2.69532.89063.80468.89453.98829.71484 1.2578 1.78516.53907 1.51953-.17969.35547 1.34375 1.60937-.80469.98047-.53906.26953.26953.31641-.21484.21875-.14453.80078.44922.44922-.35938h.35547l.53515-.26953.53907-.71875.53515-.26953.625-.98828 1.16016.44922.83984.3711 1.39454.61718 1.6953-.17969h1.60548l1.78515.08985.17969-1.70704.53516-1.34375.80468.26954.4922.84765.40233.40625-.08984.53906v.35938l.71485.44922.71093-.26953h1.42969l.35938.98828.4453 1.25781.71485 1.34375 1.25.6289 1.69531.62891.71485-.17969.17969-.53906.98046-.08984.44922.35937.08594 1.25782-.26563.6289-.53515.17969v.53906l.71484.98438.26563.53906.98437.98828.80078 1.07813-.26562.35937-.08985.89844-.625 2.33203-.35546 2.0664-.08985 1.79298-.17969.71875-.08984.53906v1.4375l-.98047 1.88281-.35937 1.70703-.53516.89844-.80469 1.16797-.26562.53906 2.05469 1.2539.08593.35938-.35546.53906-.08985-.17968v.80859l.08985 1.4375-.44532.71484-1.07422.09375-.26562.71485.53515.89844.8047.71875 1.16015.80859 1.33984.26953.44531.35938-.35546.44921-1.78907-.08984-1.25-.44922-.71484-.71875-.625-.08984-.17578 3.58984-.1875 1.3086h89.35937V311.70313h-55.26953v49.08203l.76172.125 3.28906.54296 2.02344 2.83594v2.7539l2.35156.33204 2.34766.33203h4.05078l-1.3789 4.16016-2.02344.70703-2.02344.70312-.54297.34375-2.59375 1.6172-.1875.11718-2.02344-2.07813-.73046-2.74218-2.67188-2.07813-1.375-3.5-.0664-.08203-1.95704-2.67188 2.75-1.41796v-49.08204H294.42187v91.41407l.1172.03125.1328.01172.07422.07421.10547.04688.08985.0586.08593.05859.08985.0586.29687.29687.0586.08984.03125.11719.02734.11719.01563.13671-.03125.1172-.0586.08983-.0586.08594-.04296.10547-.04688.10156-.02734.1211v.14453l.17578.26953.14844.14844.07422.08594.07422.07421.04296.10547.0625.08985.0586.08593.04297.10547.0586.08985.04687.10156.04296.10547.0586.08594.11719.17968.07421.07422.0625.08594.0586.08984.04297.10547.0586.08985.05858.08593.0625.08985.0586.08984.04297.10156.11719.17969.07421.07422.0586.08594.07422.07421.08984.0586.10547.04687h.14844l.1328-.01562.13282.01562.10156-.04687.07422-.07422.04688-.10156-.01563-.13281v-.14844l-.04687-.10547-.02735-.11719-.04687-.10156-.02735-.1211-.04296-.10156-.0625-.08984-.04297-.10156-.04297-.10547-.03125-.11719-.01563-.13281-.01171-.13672.08593-.0586.0586-.08593.12109-.03125.04297.10547.01562.1328v.1172l.0586.10156.0586.08984.08983.0586.14844.14843.0586.08985.04296.10547-.01171.10156.08593.0586.10547.04687.08594.0586.08984.05858.07422.07422-.11719.02735-.10546.04687-.08594.0586-.07422.07421-.0586.08985-.0625.08594-.02734.12109-.04687.10156-.04297.10547-.03125.11719-.01172.13281-.01563.13281v.14844l.02735.11719.04687.10547.04297.10156.0586.08984.07421.07422.08985.0586.07422.07421.08984.0586.0586.08984.04296.10547.04688.10156.11719.03125.1328.01563h.14845l.11718-.03125.10547.04297.04297.10547.04688.10156.02734.1211L299.5 410l.02734.11719.03125.1211.02735.11718.10547.04297.10156.04687.13281-.01562.14844.14844.0625.08593.07422.07422.07031.07422.08984.0625.10547.04297.10156.04297.1172.03125.13671.01562.11719-.03125.07422-.07422.02734-.11718-.01172-.13282-.03125-.12109-.02734-.11719.04297-.10547h.11719l.08984.0625.11719.02735h.14843l.13282.01562h.14843l.13282.01563.1328-.01563h.14845l.1328-.01562.13282-.01172.13672.01172.11719-.02735.13281-.01562.1914-.0586-.05859.17579-.01562.1328-.02735.1211-.01562.13281-.0586.08594-.1328.01563-.10548.04687-.10546.04297-.1172.03125-.11718.02735-.26563.03125h-.14843l-.13281.01562-.07422.07422.05859.08594.14844.14843.11719.1797.07421.0703.08985.0625.08984.0586.08594.0586.08984.05858.10156.04297.10547.0625.10547.04297.08594.0586.10547.04687.10156.04297.17969.11719.0586.08984-.04298.10156-.04687.10547.01562.13281.22266.22266.0586.08985.04296.10156.03125.1211.04297.10155.01563.13282.03125.11718.01171.13672.03125.11719.14844.14844.10156.04297.10547.04296.1172.03125.1328.01563.13672.01563h.11719l.11719-.03125.08984-.0586.04297-.10547.04688-.10156.04296-.10547.03125-.11719.01172-.1328v-.14845l-.01172-.1328-.01562-.13282-.03125-.11719-.04297-.10547-.04688-.10547-.04296-.10156-.04297-.10547-.01563-.13281.01563-.13281.02734-.11719.03125-.11719.02735-.1211.04687-.10155.08984-.0586.08594-.0625.07422-.07422.08984-.05859.22266-.22266.0586-.08593.07421-.07422.11719-.17969.0586-.08594v-.14844l-.07423-.07421-.10156-.04688-.10547-.04297-.10156-.04297-.0586-.08984-.04687-.10547-.02734-.11719.08984-.05859.11719-.03125.10156-.04297.17969-.11719.14844-.14843.01172-.13282-.01172-.10546-.08985-.0586-.1328.01563h-.14845l-.1328.01562-.13282-.01562-.1211-.03125-.08593-.0586-.07422-.07422-.0586-.08984-.0625-.08594-.11718-.17969-.0586-.08593.03125-.1211.08594-.05859.1211-.03125.05859-.08594v-.1211l-.03125-.11718-.0586-.08984-.05859-.08594-.04687-.10547-.02735-.11719-.01562-.1328.0586-.08985.07421-.07422.08984-.0586.1172-.17968.07421-.07422.0586-.08594.14843-.14844.1211-.03125.1328-.01562.13282.01562.07422.07422.04297.10547.01562.13281-.03125.1172-.11719.03124-.1328.01172-.14844.14844-.04297.10547-.04688.10156-.02734.1211-.03125.11718v.14844l.03125.11719.04297.10546.05859.08985.07422.07031.07422.07422.11719.03125.12109.02734.11719-.02734.1328-.01563h.1172l.08984.0586.07422.07422.04687.10546.0586.08594.10156.04688.13281.01562.10547.04297.08594.0586-.01172.10546-.07422.07422-.17969.11719-.05859.08984-.08984.0586-.07032.07422-.07421.07421-.0625.08985-.02735.11719-.01562.1328.01562.13282-.01562.13281v.14844l.01562.13281.02735.1172.03125.12108.07421.07422.08985.0586.08594.0586.08984.05858.11719.03125v.08594l-.10157.04688-.08984.0586-.26563.03124-.11718.02735h-.14844l-.10547.04296-.10156.04688-.0586.08984-.0625.23438-.01171.13281-.03125.1211-.01563.1328v.29298l-.01172.1328.01172.13673.01563.1328.1328.01563.13282.01172.1211.03125.08593.0586.07422.07421.04688.10547.04296.10157.01563.1328v.44532l-.01563.13281v.44532l.03125.26562.02735.11719.01562.13281.03125.11719.08594.21094.03125.26562v.14844l-.03125.11719-.02734.11718-.03125.1211-.02735.11719-.03125.11718-.03125.1211-.01171.1328-.01563.13282.08984.0586.1172-.03125.10155.01562.04688.10547-.03125.26562v.44141l-.04297.10547-.04688.10547-.04296.10156-.04297.10547-.0586.08594-.03125.12109-.04296.11719-.03125.11719-.01563.1328.01563.13282.05859.08984.10547.04688.08594.0586.05859.08593-.01172.13672-.03125.11719-.04297.10156v.44531l-.01562.13281v.14844l-.03125.11719-.04297.10547-.02735.11719-.04687.10546-.04297.10157-.03125.12109-.02734.11719-.03125.13281-.03125.11719-.02735.11719-.04297.10546-.03125.1172-.03125.12108-.01171.13282-.01563.13281v.29688l.02734.11718v.14844l.04688.39844.02734.11719.0586.08984.12109.03125h.14844l.13281-.01563.0586.08985v.11719l-.0586.08984-.08984.0586-.10157.04296-.10546.04688-.08985.05859-.08594.0586-.13671.01562-.1172-.03125-.1328-.01563-.10157.04688-.0625.08594-.01172.13671-.01562.13282-.03125.11719-.02735.11718-.01562.13281-.03125.1211v.29687l.01563.13282.03125.11718v.14844l.01171.13281v.14844l-.02734.11719-.04688.10156-.02734.1211-.03125.11718-.0586.08985-.07421.07421-.10156.04297-.10547.04688-.11719.02734-.1211.03125-.10156-.04687.0586-.08594.10547-.04688.02734-.11718.03125-.11719.02734-.1211.03125-.11718v-.14844l.01563-.13281-.03125-.11719-.04297-.10547-.10547.01563-.07422.07422-.10156.04296-.08984.0625-.07422.07422-.04297.10157-.01563.1328-.03125.1172L304.25 426l-.03125.11719-.02734.11719-.03125.12109-.02735.11719-.03125.11718-.04297.10547-.08984.0586h-.08984l-.1172-.03125-.03124-.08594.01562-.13672-.03125-.11719v-.14844l-.01171-.1328v-.14844l-.0625-.23438-.02735-.1211-.04297-.10156-.04687-.10546-.0586-.08594-.05859-.08985-.04297-.10546-.0625-.08594-.14844-.14844-.0703-.07422-.10548-.04687-.10547-.04297-.10156-.04297-.29687-.29688-.08985-.07421-.08594-.0586-.10546-.04297-.08985-.0625-.08594-.0586-.10546-.04296-.08985-.0586-.08594-.0625-.07421-.0703-.10547-.04688-.08594-.0586-.10547-.04296-.08984-.0625-.10156-.04297-.10547-.04297-.08594-.0586-.10547-.04687-.10547-.04297-.10156-.04687-.08985-.0586-.10156-.04297-.10547-.04296-.08984-.0625-.11719-.02735-.13281-.01562-.13281.01562H299.75l-.13281.01563-.11719-.03125-.08984-.0586-.07422-.07422-.08985-.05859-.10156-.04688h-.14844l-.12109-.02734-.10156-.04297-.07422-.07422-.11719-.17968-.08984-.0586-.10156-.04297-.08985-.0625-.10547-.04296-.08984-.0586-.08594-.0586-.10547-.04687-.0586-.08594-.05858-.08984-.04297-.10547-.04688-.10156-.07422-.07422-.08594-.0586-.07421-.07421-.08985-.0586-.22265-.22265-.04297-.10547-.03125-.26563.10547-.04296h.14453l.10547.04296.07421.07422.08985.0586.08594.0586.10546.04687.08985.05859.14844.14844.0703.07422.14845.14843.0625.08594.07421.07422.08594.0586.07422.07421.08985.0625.08984.0586.08594.05859.26953.17578.10156.04688.10547.04296.10156.04297.04688-.07421.05859-.08594.07422-.07422.07031-.07422.10547.04297.07422.07422.0586.08984.04296.10156.04688.10547.04296.10547.1211.02735.11719-.02735.07421-.08984.04297-.10547.0586-.08985.07422-.07421.10546-.04297.1172-.02735.1328.01172.08985.0586.14844.14843.05859.08985.04297.10547.04687.10156.04297.10547.04297.10156.10547.04688.10547.04296.13281.01563.08594-.0586.0586-.08984.07421-.07422.10547-.04297.11719.02735.10547.04687.10156.04297.10547.04297.10156.04688.17969.11718v.11719l-.01563.13281.01563.13281.01562.13672.0586.08594.10156.04688.1211.02734.11718.03125h.14844l.11719-.03125.05859-.08984.17969-.1172.05859-.08983.07422-.07422.0586-.08594.11718-.17969.17969-.11719.11719.03125.08984.0586.04297.07422-.01563.1328v.1172l.08985.05859h.14843l.13282-.01563.1328-.01171.26563-.03125.10547-.04297.11719-.03125.1211-.02735.07421-.07421.07031-.07422.0625-.08985-.01562-.10547-.04688-.10156-.10156-.04297-.10547-.01562-.11718.02734-.26563.03125h-.14844l-.07421-.07422-.08985-.0586-.11719-.03124-.11718-.02735-.13282-.01562h-.14843l-.13282.01563h-.29687l-.10547-.04688-.14844-.14844-.04297-.10156-.05859-.08984.22266-.22266.08593-.0586.10547-.04296.11719-.03125.13281-.01563.13281.01563.13672.01562.10157.04297.1328-.01172.08985-.0625.10156-.04297.0625-.08984-.04687-.10156-.08984-.0586-.1172-.03125-.10155-.04296-.0586-.08985-.0625-.08984v-.11719l.01563-.13281.10547-.04688.07421-.07031v-.1211l-.08984-.05859-.03125-.11719.08985-.05859.07421-.07422.04297-.10547.0586-.08984.04687-.10156.01563-.13281v-.14844l-.04688-.10547-.04297-.10156-.08984-.0586-.13281-.01562-.10157-.04297-.13671-.01563-.1172-.03125h-.4453l-.13282-.01562-.13281-.01172-.13281-.01563-.11719-.03125h-.14844l-.13281-.01562-.13281-.01172-.26563-.03125-.1211-.04297-.08593-.0586-.07422-.07421v-.14844l.01172-.13281.10547-.04688.10156-.04296.13281-.01563h.15235l.13281-.01562h.29297l.1211.03125.10156.04296.08984.0586.23438.0625.12109-.04688.08984-.05859.10156-.04297.13282-.01562.10547.04296.10156.04688.13281.01172.1211-.02735h.14453l.12109-.03125.11719-.02734.10547-.04687.07421-.07422.08594-.0586.14844-.14843.0586-.08594.04687-.10547.02734-.11719.01563-.10547-.10156-.04296-.08985-.0586-.11719-.03125-.10546-.04297-.08985-.0625-.07422-.08594-.07422-.07421-.10156-.04297-.10547-.04688-.10156-.04297-.0586-.08984-.04687-.10156-.08594-.21094-.0625-.08594-.05859-.08984-.07422-.07422-.08594-.0586h-.26953l-.11719.03126-.08984.05859-.10156.04297-.13281.01562-.10547-.01562-.02735-.11719-.0625-.08984-.11718-.03125-.10157-.04297-.14843-.14844-.03125-.11719-.01563-.10546.07422-.07422.17969-.1172.11719-.02733.11718-.03125.13672.01562.10156.04297.10547.04297.10156.04687.10547.04297.1172.03125.1328.01563.1172.02734.1328.01563.10547-.01563.08985-.0586-.07422-.07421-.10547-.04297-.07422-.07422-.07422-.08984-.14844-.14844-.08593-.0586-.08985-.05859-.07422-.07422-.08984-.0586-.10156-.04687-.1211-.02734-.10156-.04688-.10547-.04296-.11719-.03125-.10156-.04297-.1211-.03125h-.14843l-.11719.03125-.10546.04297-.08594.0625-.17969.11718-.08594.0586-.08984.0586-.10547.04687-.08594.05859-.10547.04297-.10156.04297-.10547.04687-.07422.07422-.05859.08985-.0586.08593-.04687.10547-.0586.08594-.07421.07422-.13281-.01172-.1172-.03125h-.11718l-.07422.07422-.08984.0586-.07422.07421-.08984.0586-.08594.05859-.10547.04687-.10156.04297-.13672.01563-.10156-.04297-.14844-.14844-.10547-.04688h-.08594l-.10547.04688-.10156.04297-.1211.03125-.11718-.03125-.07422-.07422v-.11719l.03125-.1211.07422-.0703.0586-.08985.07421-.07422.11719-.03125.10547-.04296h.29297l.13281-.01563.13672-.01563.10156-.04296.08985-.0586.10156-.04687.08984-.0586.13281-.01171.08985.05859.13281.01172.08984-.0586.08594-.05859.10547-.04297.08984-.0586.08594-.0625.08985-.05859.14843-.14843.0586-.08594.05859-.08985.10547-.04296.13281-.01563.11719.02735.1211.03125.05859-.0586.05859-.08984.03125-.26563.02734-.11719.10547.01172.13281.01563.10157-.04297.08984-.0586.0586-.08984.07421-.07422.0586-.08984.04687-.10156.01172-.13281-.01172-.13282-.04687-.10547-.14844-.14843-.0586-.08985-.05859-.08594-.04297-.10546v-.44532l.01563-.1328v-.14845l.01172-.1328-.0586-.0586-.08984.0586-.10156-.04298-.17969-.11719-.08594-.05859-.0625-.08984-.0586-.08985-.07421-.07421-.08594-.0586-.1211.03125-.10155.01172-.10547.04688-.08594.05859-.10547.04297-.14844.14844-.08984.05859-.08594.0586-.08984.0625-.10547.04296-.13281.01563v-.1211l.10547-.04297.11718-.03125.07422-.0703.04297-.10548v-.14844l-.02734-.11718-.14844-.14844-.13281-.01563h-.14844l-.11719.03125-.10547.04297-.10156.04297-.08984.0625-.11719.02735-.07422-.07422.01172-.13281-.04297-.10157-.04297-.10547-.08984-.05859-.11719.02734-.1211.03125-.11718.03125-.10156.04297-.1211.03125-.10156.04297-.10547.04297-.08984.0586-.10156.01562v-.11719l.01562-.13281-.0586-.08985-.07421.04297-.14844.14844-.0586.08985-.07421.07421-.04688.10547-.04296.10156-.07422.07422-.0586.08985-.07422.07422-.05859.08593-.07422.07422-.08984.0625-.07422.07031-.07422.07422-.10156.01563-.13281.01562-.10547-.04296v-.1211l.14843-.14844.04297-.10156.0586-.08984.04687-.10156.04297-.10547.0586-.08985.03124-.11719.04297-.10156.03125-.1211.02735-.11718.04687-.10547.04297-.10156.04297-.10547.07422-.07031.08984-.0625.08985-.0586.10156-.04296h.29687l.26563-.03125.10547-.04297-.07422-.07422-.11719-.03125-.10547-.04297-.08984-.0586-.10156-.04687-.08985-.0586-.10156-.04296-.10547-.04297-.08984-.0625-.08594-.0586-.10547-.04296-.10156-.04297-.1211-.03125-.11718-.03125-.10157-.04297L297.5 410.25l-.10156-.04297-.08985-.0586-.04296-.10546-.01563-.13281.10156-.04297.13281-.01563.13672.01563.13282-.01563.10156-.04297.0586-.08984.01562-.10547-.08985-.0586-.07421-.07421-.10157-.04297-.08984-.0586-.14844-.14843-.04297-.10547-.01562-.13281v-.29297l-.0586-.08985-.08984-.05859-.07422-.07422-.04297-.10547-.03125-.11718-.0586-.08985-.07421-.07422-.11719-.02734-.07422-.07422-.08984-.0586-.08984-.0625-.08594-.05859-.07422-.07421-.0586-.08594-.04687-.10547-.08594-.0586-.14843-.14843-.19532-.0586-.1328.01563-.10157.04297-.07422.07422-.04688.10156-.04296.10547-.0586.08984-.0586.08594-.29687.29687-.08984.0586h-.08594l-.0625-.08594-.04297-.10547.03125-.11719.0586-.08984.02734-.11719-.01172-.13281-.08984-.0625-.10547.04688-.11719.02734-.11719.03125-.26953.17578-.10156.04688-.11719.02734-.10546.04687-.08985.0586-.10156.04297-.0586-.08594-.04687-.10547.01563-.13281.04687-.10547.07031-.07422.07422-.07031.0586-.08985v-.14843l-.04297-.10547h-.23829l-.10156.04687-.03125.11719-.02734.11719-.03125.1211-.07422.04296-.13281.01563-.07422-.04688-.04297-.10156-.04297-.10547-.04687-.10156-.04297-.10547-.1211.03125-.10156.04297-.13281.01562-.11719.03125-.10547.04297-.08984.0586-.10156.04687-.1211.02734-.13281.01563-.10156-.04297-.0586-.08985-.04687-.10546-.04297-.10157-.04297-.10546v-.1172l.0586-.08984.08593-.05859.17969-.11719.10156-.04687.10547-.04297.10547-.0586.10156-.04296.08985-.0625.10156-.04297.10547-.0586.10156-.04687.08984-.0586.10547-.04296.10156-.04297.08985-.0625.10156-.04297.13672-.01563.11719.03125.10156.04297.1211.03125.10156.04297.10546.04688.10157.04296.10547.04297.10156.04688.10547.04297.10156.04297.10547.04687.08594.0586.10546.04296.1172.03125.10546.04297.10156.04688.08985.0586.10547.04296.10156.04297.10547.04687.11719.02735.10156.04687.1211.02735h.14843l.08594-.0586.01562-.10156.0586-.08984-.02735-.1172-.07422-.07421-.11719-.17969-.07421-.07422-.08985-.07421-.17969-.1172-.08593-.05859-.10547-.04296-.10156-.04688-.26954-.17578-.05859-.08985-.07422-.07421-.0586-.08985-.04296-.10156-.03125-.11719-.01563-.13672v-.5625l-.01171-.1328-.01563-.13282-.03125-.11719-.01562-.13281-.01172-.13281-.03125-.1211-.22266-.22265-.0586-.08594-.01562-.10547.03125-.11719.13281-.01562v-91.41406H172.9922v1.45312l-.0586.23438-.35156 1.05078-.17187.52343-.1172.34766-.17577.41016-.11719.17187-.23438.29297-.23046.0586h-.35157l-.11718.05859-.23047.40625v.29297l.11719.17578.23046.23047.1172.23437.64062.75781.29297.46485.17578.23437.23047.35156.23437.34766.64063.8164.17578.46485.17187.41016.11719.69531.17578.46875.11719 1.39844.0586.46484v.875l.11718 1.04688v4.78125l-.0586.46484-.35156 1.28125-.17578.52344-.11328.41015-.35156.9297L172.93359 336l-.23437.58203-.11719.17578-.17187.34766-.17578.40625-.35157.8164-.0586.29297-.11327.29297-.11719.28906-.0586.17579-.11718.875-.0586.40625-.05859.11718-.0586.17579-.05859.17187-.23047.52734-.11718.17188v.23437l-.11719.23438-.0586.17187-.17577.58594v.28906l-.0586.17579v.29296l-.0586.11329-.05859.52734v.17187l-.05468.23438v2.6211l-.17578.8164-.1172.17578-.17577.23438-.1172.17187-.11327.23438-.58594.93359-.23047.28906-.29297.46485-.17578.23437-.28906.35156-.35156.69922-.11328.23047-.17579.41016-.17578.23046-.40625.52735-.8164.69922-.29297.17187-.28906.23438-.17579.11719-.17578.17578-.52344.40625-.52734.17578-.17187.17578-.23438.05469-.64062.17578h-.75782m12.21094 31.02344l-1.07422.44921.35938.89454 1.25-.71485.44531-.53906-.98047-.08985"/><path fill="#d3d3d3" fill-opacity="0" fill-rule="evenodd" d="M201.50781 416.59766h-.89453l.44922.6289.98047.35938.80469-.08985.4453-.98828-.17577.08985-.71485-.35547-.89453.35547m154.6211 59.0703l-.0586-.52343v-.29297l.11328-.29297.0586-.23046.46875-.46875h.11328l.11719-.11329.11718-.05859h.17579l.23437-.0586h.34766l.23437.0586.11719.0586.23047.17187.0586.17578.11718.58203v.29297l-.11719.17578-.17187.28906-.17579.17579-.52734.52343-.23047.23438-.11719.0586h-.17578l-.11718-.0586-.40625-.29297-.17579-.11719-.11718-.0586-.0586-.11327-.05468-.1172m6.64062-10.95702l-.0586-.17188v-1.10937l.0586-.17188.17578-.0586.17188-.05858h.17578l.23437-.0586.1172.0586.05858.69921-.05859.17188-.11719.17578-.11718.0586-.23438.52343-.11328.0586h-.23438l-.05859-.1172m9.61328-14.39062l-.11719-.17578v-.69922l.29297-.875.1172-.17187.17577-.35156.11328-.23047.1172-.29297.35155-.75781.1172-.23047.17187-.23438h.17578l.11719-.0586h.64062l.11719.0586.23437.23438.17188.11328.35156.29297.11719.11718.11328.17579v.11328l.11719.05859.11718.11719v.69922l-.05859.17578v.23047l-.0586.17578-.34765 1.05078-.11719.23047-.11719.23437-.11718.0586-.23047.23437-.64063.28906h-.875l-.41015-.11718-.64063-.46485"/><path fill="none" stroke="#bebebe" stroke-linecap="round" stroke-linejoin="round" stroke-miterlimit="10" stroke-width=".5" d="M467.95703 311.69531H144.02734v168.625h323.9297v-168.625"/><g clip-path="url(#a)"><path fill="#fff" fill-opacity="0" fill-rule="evenodd" d="M144 475.89063v4.4375h.0039H144V311.67188h.0039H144v164.21875"/></g><g clip-path="url(#b)"><path fill="#fff" fill-opacity="0" fill-rule="evenodd" d="M144.0039 480.32813V311.67188h17.75v129.97265l-4.16015 3.17578 4.16016 4.15235 4.4375-3.50782 1.7578-.64453-1.7578-1.21484-4.4375-1.96094V311.67188h26.6289v107.55468l-4.4375 2.09766-3.01953 1.30469-1.41797 2.5078-.98047 1.9336.98047 1.82031 4.4375 2.00391 4.4375-.9414 4.4375.99609 4.4414-2.53906 4.23438-1.33985-4.23437-1.00781-3.29297-3.4336-1.14844-1.0625-4.4375-2.33984V311.67187h8.8789v86.65235l-1.95312 2.11328-1.48437 4.4375 3.4375 3.46094 4.4375-.4414.83984 1.42187-.83984 1.6328-1.42188 2.8047 1.42188 1.48046 4.4375 2.77344 4.30469-4.2539-1.6836-4.4375-2.6211-2.88282-2.3164-1.55859-2.1211-1.8125-2.21483-2.625-2.22266-2.11328v-86.65235h17.7539v104.03125l-3.03515 2.48829 3.03516 3.47265.3164.96485 4.1211 4.34375.27734.09765 4.16016 3.01563 1.74218 1.42187 2.69531 2.0586 1.77344 2.3789 2.66406 2.69531 4.44141.4336 1.30469 1.3086 3.13281 3.0078 4.4375-1.13671 1.83594-1.8711-1.83594-2.05469-1.16016-2.3828-3.27734-3.40235-2.35156-1.03516-2.08594-2.03906-4.4414-1.15625-3.15235-1.24219-1.28516-1.01172-4.4375-2.53125-.33593-.89843-4.10156-3.7422-1.78516-.6953-2.65234-2.48829V311.67188h35.5039v119.75l-.08203.08594.08203.07813.09375-.07813-.09375-.08594v-119.75h17.7539V429.7461l-1.49609 1.76172 1.4961 1.42578 2.5664-1.42578-2.5664-1.76172V311.67188h13.3164v114.5664l-.91796.83203-2.66407 4.4375 1.53516 4.4375 2.04687 2.01172 2.17188-2.01172 2.26562-2.30078 4.4375.65235 4.4375-.69532 2.70704-2.09375-2.70704-3.47656-4.4375.70703-4.4375.78516-3.64453-2.45313-.79297-.83203v-114.5664h66.57422v111.74218l-4.4375 2.03125-1.22265 1.625 1.22265 1.21485 1.42188 3.22265-1.03906 4.4375-.38282 2.0664-2.29687 2.3711-1.83594 4.4375.73047 4.4414 3.40234 1.39845 1.42188-1.39844 3.01562-1.1211 3.42969-3.3203 1.00781-.48438 4.4414.04687v2.57422l-2.96483 2.30469 2.96484 2.34375 3.35937-2.34375-3.35937-2.30469v-2.57422l4.4375-.1914 4.4375-.51954 3.19531-3.28906.52735-4.4375-3.72266-3.95703-.57813-.48047-3.85937-3.21875-4.4375-.88281-4.4414.28125-.71876-.61719-3.71875-3.65625V311.67187h35.50781V431.0625l-.5.44531-3.58203 4.4375-.35546 2.39453-2.3711 2.04297.58594 4.4375-2.65625 1.4375-3.01172 3.0039 3.01172 3.02345 3.14062-3.02344 1.30079-2.5039 2.80859-1.9375 1.6289-3.1797.77344-1.2578 3.14844-4.4375-3.53125-4.4375-.39063-.44532V311.67187h26.62891V441.375l-4.4375 1.02734-4.4375.07422-3.49219 2.34375-.94921.22266-4.4375.74219-4.4375 1.57421-1.58985 1.90235 1.36328 4.4375-4.21094.80469-3.67968 3.6328.26172 4.4375 3.41796 3.94532 4.4375.29688 4.4375-.20704 4.4375-3.8164.2461-.21875 4.0664-4.4375.12891-.13281 4.4375-.83204 4.25-3.47265.1875-.14844 3.34766-4.28906-.10938-4.4414-3.23828-3.44532V311.67187h57.69531v168.65625h-78.94921l-.9375-.4414-.2461.4414H144.00391"/></g><path fill="#50fcfc" fill-rule="evenodd" d="M161.7539 448.97266l-4.16015-4.15235 4.16016-3.17578 4.4375 1.96094 1.7578 1.21484-1.7578.64453-4.4375 3.50782m17.7539-20.08204l-.98047-1.8203.98047-1.9336 1.41797-2.50781 3.01953-1.3047 4.4375-2.09765v3.36719l-.0625.03516.0625.08203 2.19922 4.35937 2.23828 1.44531 1.8164-1.4453-1.8164-1.85157-4.3789-2.58984-.0586-.03516v-3.36719l4.4375 2.33985 1.14844 1.0625 3.29297 3.43359 4.23437 1.00781-4.23437 1.33985-4.4414 2.53906-4.4375-.9961-4.4375.94141-4.4375-2.0039"/><path fill="#00e8fc" fill-rule="evenodd" d="M188.38281 422.71094l-.0625-.08203.0625-.03516.0586.03516 4.3789 2.58984 1.8164 1.85156-1.8164 1.44531-2.23828-1.4453-2.19922-4.35938"/><path fill="#50fcfc" fill-rule="evenodd" d="M197.26172 408.33594l-3.4375-3.46094 1.48437-4.4375 1.95313-2.11328v3.77344l-1.59375 2.77734 1.59375 1.60156 2.5039-1.60156-2.5039-2.77734v-3.77344l2.22266 2.11328 2.21484 2.625 2.1211 1.8125 2.3164 1.5586v3.75l-2.86719 3.5703 2.86719 2.4336 2.46484-2.4336-2.46484-3.5703v-3.75l2.6211 2.8828 1.68359 4.4375-4.3047 4.25391-4.4375-2.77344-1.42187-1.48046 1.42188-2.8047.83984-1.6328-.83984-1.42188-4.4375.4414"/><path fill="#00e8fc" fill-rule="evenodd" d="M197.26172 406.47656l-1.59375-1.60156 1.59375-2.77734 2.5039 2.77734-2.5039 1.60156m8.875 9.71094l-2.86719-2.4336 2.86719-3.5703 2.46484 3.5703-2.46484 2.4336"/><path fill="#50fcfc" fill-rule="evenodd" d="M215.01563 421.66406l-3.03516-3.47265 3.03516-2.48829 2.65234 2.48829 1.78516.6953v2.01563l-1.90235 1.72657 1.90234 2.0039 1.89063-2.0039-1.89063-1.72657v-2.01562l4.10157 3.74219.33594.89843 4.4375 2.53125 1.28515 1.01172 3.15234 1.24219 4.44141 1.15625v4.92969l-2.53906 1.54687 2.53906.7539 3.67969 3.6836.75781.72656 1.64844-.72656-.54688-4.4375-1.10156-1.14453-4.4375-.40234v-4.92969l2.08594 2.03906 2.35156 1.03516 3.27734 3.40234 1.16016 2.38281 1.83594 2.0547-1.83594 1.87109-4.4375 1.13671-3.13281-3.0078-1.30469-1.3086-4.4414-.4336-2.66407-2.6953-1.77344-2.37891-2.6953-2.0586-1.7422-1.42187-4.16015-3.01563-.27734-.09765-4.1211-4.34375-.3164-.96485"/><path fill="#00e8fc" fill-rule="evenodd" d="M219.45313 424.63281l-1.90235-2.0039 1.90234-1.72657 1.89063 1.72657-1.89063 2.0039m17.75391 12.0664l-2.53906-.7539 2.53906-1.54687 4.4375.40234 1.10156 1.14453.54688 4.4375-1.64844.72656-.75781-.72656-3.67969-3.6836"/><path fill="#50fcfc" fill-rule="evenodd" d="M250.51953 431.58594l-.08203-.07813.08203-.08594.09375.08594-.09375.07813m17.7539 1.34765l-1.49609-1.42578 1.4961-1.76172 2.5664 1.76172-2.5664 1.42578m11.26953 3.01172l-1.53516-4.4375 2.66406-4.4375.91797-.83203v2.51953l-2.08203 2.75 2.08203 3.35156 3.32032-3.35156-3.32032-2.75v-2.51953l.79297.83203 3.64453 2.45313 4.4375-.78516v2.60156l-.53906.16797.53906.16797.58985-.16797-.58985-.16797v-2.60156l4.4375-.70703 2.70704 3.47656-2.70704 2.09375-4.4375.69531-4.4375-.65234-2.26562 2.30078-2.17188 2.01172-2.04687-2.01172"/><path fill="#00e8fc" fill-rule="evenodd" d="M281.58984 434.85938l-2.08203-3.35157 2.08203-2.75 3.32032 2.75-3.32032 3.35156m8.875-3.18359l-.53906-.16797.53906-.16797.58985.16797-.58985.16797"/><path fill="#50fcfc" fill-rule="evenodd" d="M340.32422 449.26172l-.73047-4.4414 1.83594-4.4375 2.29687-2.3711.38281-2.0664 1.03907-4.4375-1.42188-3.22266-1.22265-1.21485 1.22265-1.625 4.4375-2.03125v1.45703l-2.96484 2.19922 2.08594 4.4375-2.30079 4.4375 3.1797 3.07813v.84375l-2.42579.51562 2.42578 1.09375.53125-1.09375-.53125-.51562v-.84375l1.40235 1.35937-1.40235 2.88281-3.16797 1.5547 3.16797 1.54296 1.59375-1.54297 2.84375-1.36328 4.4414.22266 4.4375-.53906 4.4375-1.41016 1.3086-1.34766.35156-4.4375-1.66015-1.76172-3.21094-2.67578-1.22656-1.02344-4.4375-2.5-4.4414.98438-2.19923-1.89844-2.23828-2.19922v-1.45703l3.71875 3.65625.71875.61719 4.4414-.28125 4.4375.88281 3.85938 3.21875.57813.48047 3.72265 3.95703-.52734 4.4375-3.19531 3.28906-4.4375.51954-4.4375.1914-4.4414-.04687-1.00782.48437-3.42969 3.32031-3.01562 1.1211-1.42188 1.39844-3.40234-1.39844"/><path fill="#00e8fc" fill-rule="evenodd" d="M348.16406 439.02344l-3.17969-3.07813 2.30079-4.4375-2.08594-4.4375 2.96484-2.19922 2.23828 2.19922 2.19922 1.89844 4.4414-.98438v.96875l-4.4414 2.14844-.89062.40625-3.54688 1.72266-1.72265 2.71484 1.72265 1.66797 2.85156 2.76953 1.58594 1.60547 4.4414.51563 4.4375-1.11329 2.19923-1.0078.36328-4.4375-2.5625-2.19923-.95313-2.23828-3.48437-2.55469v-.96875l4.4375 2.5 1.22656 1.02344 3.21094 2.67578 1.66015 1.76172-.35156 4.4375-1.3086 1.34766-4.4375 1.41015-4.4375.53907-4.4414-.22266-2.84375 1.36328-1.59375 1.54297-3.16797-1.54297 3.16797-1.55469 1.40235-2.8828-1.40235-1.35938"/><path fill="#fff" fill-opacity="0" fill-rule="evenodd" d="M348.16406 439.86719l-2.42578.51562 2.42578 1.09375.53125-1.09375-.53125-.51562"/><path fill="#00d4fc" fill-rule="evenodd" d="M348.16406 437.61328l-1.72265-1.66797 1.72265-2.71484 3.54688-1.72266.89062-.40625 4.4414-2.14844v.96875l-2.97265 1.58594-1.46875 1.8164-4.4375 2.19923-.26953.42187.26953.26172 4.30078 4.17578.13672.14063 4.4414.80469 2.89845-.94532 1.24609-4.4375-1.98047-4.4375-2.16406-1.58594v-.96875l3.48437 2.5547.95313 2.23827 2.5625 2.19922-.36328 4.4375-2.19922 1.00781-4.4375 1.11329-4.4414-.51563-1.58594-1.60547-2.85157-2.76953"/><path fill="#00c4fc" fill-rule="evenodd" d="M348.16406 436.20703l-.26953-.26172.26953-.42187 4.4375-2.19922 1.46875-1.8164 2.97266-1.58594v.96484l-1.16016.6211-3.28125 4.05859-.75781.3789.75781.69531 4.4414 3.48438 3.15235-4.17969-2.3086-4.4375-.84374-.6211v-.96483l2.16406 1.58593 1.98047 4.4375-1.2461 4.4375-2.89843.94531-4.4414-.80468-.13673-.14063-4.30078-4.17578"/><path fill="#00b8fc" fill-rule="evenodd" d="M352.60156 436.64063l-.75781-.69532.75781-.3789 3.28125-4.0586 1.16016-.6211v1.25l-3.21485 3.8086 3.21485 2.86328 2.16015-2.86328-2.16015-3.8086v-1.25l.84375.6211 2.3086 4.4375-3.15235 4.17969-4.4414-3.48438"/><path fill="#00a8fc" fill-rule="evenodd" d="M357.04297 438.8086l-3.21485-2.86329 3.21485-3.8086v1.75l-1.73828 2.0586 1.73828 1.55078 1.16797-1.55078-1.16797-2.0586v-1.75l2.16015 3.8086-2.16015 2.86328"/><path fill="#50fcfc" fill-rule="evenodd" d="M357.04297 451.60547l-2.96485-2.34375 2.96485-2.30469 3.35937 2.30469-3.35937 2.34375"/><path fill="#009800" fill-rule="evenodd" d="M357.04297 437.4961l-1.73828-1.55079 1.73828-2.0586v1.7461l-.26563.3125.26563.23438.17578-.23438-.17578-.3125v-1.7461l1.16797 2.0586-1.16797 1.55078"/><path fill="#00ac00" fill-rule="evenodd" d="M357.04297 436.17969l-.26563-.23438.26563-.3125.17578.3125-.17578.23438"/><path fill="#50fcfc" fill-rule="evenodd" d="M374.79297 452.28516l-3.01172-3.02344 3.01172-3.0039v2.15234l-.85156.85156.85156.85547.89062-.85547-.89062-.85156v-2.15235l2.65625-1.4375-.58594-4.4375 2.3711-2.04297.35546-2.39453 3.58204-4.4375.5-.44531v1.39844l-3.16016 3.48437 3.16015 3.51563 3.03516-3.51563-3.03515-3.48437v-1.39844l.39062.44531 3.53125 4.4375-3.14844 4.4375-.77344 1.25781-1.6289 3.1797-2.8086 1.9375-1.30078 2.5039-3.14062 3.02344"/><path fill="#00e8fc" fill-rule="evenodd" d="M374.79297 450.11719l-.85156-.85547.85156-.85156.89062.85156-.89062.85547"/><path fill="#50fcfc" fill-rule="evenodd" d="M380.2539 462.57422l-.26171-4.4375 3.67969-3.63281 4.21093-.8047-1.36328-4.4375 1.58985-1.90233 4.4375-1.57422 4.4375-.7422.94921-.22265 3.4922-2.34375 4.4375-.07422 4.4375-1.02734v2.6875l-2.13282.75781-2.30469 3.13281-4.4375-2.62109-4.4414.89844-4.4375 1.67578-1.94141 1.35547-1.6875 4.4375-.8086.58203-4.4375 1.4961-2.39062 2.35937.53516 4.4375 1.85546 2.14062 4.4375 1.44922 4.4375-.35156 3.58204-3.23828.85546-1.55078 2.77735-2.88672 1.66406-1.76172 4.14844-2.67578.28906-2.09766 4.4375-1.82812.39844-.51172.3164-4.4414-.71484-.75782v-2.6875l3.23828 3.44531.10938 4.4414-3.34766 4.28907-.1875.14844-4.25 3.47265-4.4375.83204-.1289.1328-4.06641 4.4375-.2461.21876-4.4375 3.8164-4.4375.20704-4.4375-.29688-3.41796-3.94531"/><path fill="#00e8fc" fill-rule="evenodd" d="M383.67188 439.46094l-3.16016-3.51563 3.16015-3.48437v1.69531l-1.62109 1.78906 1.6211 1.80469 1.55468-1.80469-1.55469-1.78906v-1.69531l3.03516 3.48437-3.03515 3.51563m-1.85547 23.11328l-.53516-4.4375 2.39063-2.35938 4.4375-1.49609.80859-.58203 1.6875-4.4375 1.9414-1.35547 4.4375-1.67578 4.44141-.89844v2.73438l-4.4414.14062-2.05079 1.05469-2.38671 1.23047-2.23829 3.20703-2.19921 1.58984-4.4375 2.60938-.2422.23828.2422 1.25.49218 3.1875 3.94531 2.50781 4.4375-.60156 2.10938-1.90625 2.32813-4.21094.21875-.22656 4.17968-4.4375.04297-.13672 1.42578-4.30078-1.42578-1.19531v-2.73438l4.4375 2.6211 2.30469-3.13282 2.13281-.75781.71485.75781-.31641 4.4414-.39844.51173-4.4375 1.82812-.28906 2.09766-4.14844 2.67578-1.66406 1.76172-2.77735 2.88672-.85546 1.55078-3.58204 3.23828-4.4375.35156-4.4375-1.44922-1.85546-2.14062"/><path fill="#00d4fc" fill-rule="evenodd" d="M383.67188 437.75l-1.6211-1.80469 1.6211-1.78906v1.69922l-.08204.08984.08204.08985.07812-.08985-.07813-.08984v-1.69922l1.5547 1.78906-1.5547 1.80469m0 21.63672l-.24218-1.25.24219-.23828 4.4375-2.60938 2.19921-1.58984 2.23829-3.20703 2.38671-1.23047 2.05079-1.05469v3.34766l-4.4375.92969-.84766 1.21484-3.58985 2.59375-2.98828 1.84375.75 4.4375 2.23829 1.42187 4.4375-.84765.63671-.57422 1.97657-4.4375 1.82421-3.0039 1.33985-1.4336-1.33985-2.14453v-3.34766l4.44141-.14062 1.42578 1.1953-1.42578 4.30079-.04297.13672-4.17969 4.4375-.21875.22656-2.32812 4.21094-2.10938 1.90625-4.4375.60156-3.9453-2.50781-.4922-3.1875"/><path fill="#00c4fc" fill-rule="evenodd" d="M383.67188 436.03516l-.08204-.08985.08204-.08984.07812.08984-.07813.08985m2.19922 26.53906l-.75-4.4375 2.98829-1.84375 3.58984-2.59375.84765-1.21485v3.69141l-4.4375 1.125-1.35546.83594.82421 4.4375.53125.33984 1.57032-.33984 2.86719-2.8711.61718-1.5664-.61719-1.96094v-3.6914l4.4375-.9297 1.33985 2.14454-1.33985 1.4336-1.82421 3.0039-1.97657 4.4375-.63671.57422-4.4375.84765-2.23829-1.42187"/><path fill="#00b8fc" fill-rule="evenodd" d="M387.57813 462.57422l-.82422-4.4375 1.35546-.83594 4.4375-1.125.6172 1.96094-.6172 1.5664-2.86718 2.8711-1.57031.33984-.53125-.33984"/><g clip-path="url(#c)"><path fill="#50fcfc" fill-rule="evenodd" d="M387.86328 480.32813l.2461-.44141.9375.4414h-1.1836"/></g><g clip-path="url(#d)"><path fill="#fff" fill-opacity="0" fill-rule="evenodd" d="M467.9961 480.32813H468V311.67188h-.0039H468v168.65625h-.0039"/></g><g clip-path="url(#e)"><path fill="none" stroke="#000" stroke-linecap="round" stroke-linejoin="round" stroke-miterlimit="10" stroke-width=".5" d="M147.5039 480.58984l-7.0078-.52343"/></g><g clip-path="url(#f)"><path fill="none" stroke="#000" stroke-linecap="round" stroke-linejoin="round" stroke-miterlimit="10" stroke-width=".5" d="M146.48438 480.51563l.49218 1.12109"/></g><g clip-path="url(#g)"><path fill="none" stroke="#000" stroke-linecap="round" stroke-linejoin="round" stroke-miterlimit="10" stroke-width=".5" d="M160.70313 479.39453l-6.77344 1.8711"/></g><g clip-path="url(#h)"><path fill="none" stroke="#000" stroke-linecap="round" stroke-linejoin="round" stroke-miterlimit="10" stroke-width=".5" d="M159.71484 479.66406l.84375.89063"/></g><g clip-path="url(#i)"><path fill="none" stroke="#000" stroke-linecap="round" stroke-linejoin="round" stroke-miterlimit="10" stroke-width=".5" d="M174.14063 480.22266l-7.02344.21093"/></g><g clip-path="url(#j)"><path fill="none" stroke="#000" stroke-linecap="round" stroke-linejoin="round" stroke-miterlimit="10" stroke-width=".5" d="M173.1211 480.2539l.60546 1.06641"/></g><g clip-path="url(#k)"><path fill="none" stroke="#000" stroke-linecap="round" stroke-linejoin="round" stroke-miterlimit="10" stroke-width=".5" d="M187.40625 480.9375l-6.92188-1.21875"/></g><g clip-path="url(#l)"><path fill="none" stroke="#000" stroke-linecap="round" stroke-linejoin="round" stroke-miterlimit="10" stroke-width=".5" d="M186.39844 480.76172l.3789 1.16797"/></g><g clip-path="url(#m)"><path fill="none" stroke="#000" stroke-linecap="round" stroke-linejoin="round" stroke-miterlimit="10" stroke-width=".5" d="M200.76172 480.60547l-7.0039-.55078"/></g><g clip-path="url(#n)"><path fill="none" stroke="#000" stroke-linecap="round" stroke-linejoin="round" stroke-miterlimit="10" stroke-width=".5" d="M199.74219 480.52344l.49219 1.125"/></g><g clip-path="url(#o)"><path fill="none" stroke="#000" stroke-linecap="round" stroke-linejoin="round" stroke-miterlimit="10" stroke-width=".5" d="M214.0625 480.7461l-6.97656-.83594"/></g><g clip-path="url(#p)"><path fill="none" stroke="#000" stroke-linecap="round" stroke-linejoin="round" stroke-miterlimit="10" stroke-width=".5" d="M213.04688 480.625l.4453 1.14453"/></g><g clip-path="url(#q)"><path fill="none" stroke="#000" stroke-linecap="round" stroke-linejoin="round" stroke-miterlimit="10" stroke-width=".5" d="M227.40234 480.3086l-7.02734.03906"/></g><g clip-path="url(#r)"><path fill="none" stroke="#000" stroke-linecap="round" stroke-linejoin="round" stroke-miterlimit="10" stroke-width=".5" d="M226.38281 480.3164l.58203 1.07813"/></g><g clip-path="url(#s)"><path fill="none" stroke="#000" stroke-linecap="round" stroke-linejoin="round" stroke-miterlimit="10" stroke-width=".5" d="M240.6875 480.79688l-6.96484-.9375"/></g><g clip-path="url(#t)"><path fill="none" stroke="#000" stroke-linecap="round" stroke-linejoin="round" stroke-miterlimit="10" stroke-width=".5" d="M239.67578 480.66016l.42578 1.15234"/></g><g clip-path="url(#u)"><path fill="none" stroke="#000" stroke-linecap="round" stroke-linejoin="round" stroke-miterlimit="10" stroke-width=".5" d="M253.94531 481.1211l-6.84765-1.58204"/></g><g clip-path="url(#v)"><path fill="none" stroke="#000" stroke-linecap="round" stroke-linejoin="round" stroke-miterlimit="10" stroke-width=".5" d="M252.94922 480.89063l.3164 1.18359"/></g><g clip-path="url(#w)"><path fill="none" stroke="#000" stroke-linecap="round" stroke-linejoin="round" stroke-miterlimit="10" stroke-width=".5" d="M266.64063 482.44531l-5.60938-4.23047"/></g><g clip-path="url(#x)"><path fill="none" stroke="#000" stroke-linecap="round" stroke-linejoin="round" stroke-miterlimit="10" stroke-width=".5" d="M280.09375 482.25l-5.88672-3.83984"/></g><g clip-path="url(#y)"><path fill="none" stroke="#000" stroke-linecap="round" stroke-linejoin="round" stroke-miterlimit="10" stroke-width=".5" d="M293.44922 482.1836l-5.96875-3.70704"/></g><g clip-path="url(#z)"><path fill="none" stroke="#000" stroke-linecap="round" stroke-linejoin="round" stroke-miterlimit="10" stroke-width=".5" d="M306.65234 482.35156l-5.74218-4.04687"/></g><g clip-path="url(#A)"><path fill="none" stroke="#000" stroke-linecap="round" stroke-linejoin="round" stroke-miterlimit="10" stroke-width=".5" d="M320.4336 481.42578l-6.67579-2.19531"/></g><g clip-path="url(#B)"><path fill="none" stroke="#000" stroke-linecap="round" stroke-linejoin="round" stroke-miterlimit="10" stroke-width=".5" d="M319.46094 481.10547l.21094 1.21094"/></g><g clip-path="url(#C)"><path fill="none" stroke="#000" stroke-linecap="round" stroke-linejoin="round" stroke-miterlimit="10" stroke-width=".5" d="M333.90625 479.97656l-6.99219.70313"/></g><g clip-path="url(#D)"><path fill="none" stroke="#000" stroke-linecap="round" stroke-linejoin="round" stroke-miterlimit="10" stroke-width=".5" d="M332.89063 480.07813l.67968 1.01953"/></g><g clip-path="url(#E)"><path fill="none" stroke="#000" stroke-linecap="round" stroke-linejoin="round" stroke-miterlimit="10" stroke-width=".5" d="M347.23047 480.58203l-7.00781-.5039"/></g><g clip-path="url(#F)"><path fill="none" stroke="#000" stroke-linecap="round" stroke-linejoin="round" stroke-miterlimit="10" stroke-width=".5" d="M347.23047 480.58203l.99219 2.24219"/></g><g clip-path="url(#G)"><path fill="none" stroke="#000" stroke-linecap="round" stroke-linejoin="round" stroke-miterlimit="10" stroke-width=".5" d="M358.23438 483.63281l-2.38672-6.60937"/></g><g clip-path="url(#H)"><path fill="none" stroke="#000" stroke-linecap="round" stroke-linejoin="round" stroke-miterlimit="10" stroke-width=".5" d="M369.41797 483.71484l1.875-6.77343"/></g><g clip-path="url(#I)"><path fill="none" stroke="#000" stroke-linecap="round" stroke-linejoin="round" stroke-miterlimit="10" stroke-width=".5" d="M384.39063 483.76953l-1.4375-6.8789"/></g><g clip-path="url(#J)"><path fill="none" stroke="#000" stroke-linecap="round" stroke-linejoin="round" stroke-miterlimit="10" stroke-width=".5" d="M396.14063 483.73828l1.6914-6.82031"/></g><g clip-path="url(#K)"><path fill="none" stroke="#000" stroke-linecap="round" stroke-linejoin="round" stroke-miterlimit="10" stroke-width=".5" d="M411.55078 483.61328l-2.5-6.5664"/></g><g clip-path="url(#L)"><path fill="none" stroke="#000" stroke-linecap="round" stroke-linejoin="round" stroke-miterlimit="10" stroke-width=".5" d="M423.91016 483.83203l-.58594-7.0039"/></g><g clip-path="url(#M)"><path fill="none" stroke="#000" stroke-linecap="round" stroke-linejoin="round" stroke-miterlimit="10" stroke-width=".5" d="M439.1211 483.07813l-4.37891-5.5"/></g><g clip-path="url(#N)"><path fill="none" stroke="#000" stroke-linecap="round" stroke-linejoin="round" stroke-miterlimit="10" stroke-width=".5" d="M453.65234 481.1875l-6.8125-1.71875"/></g><g clip-path="url(#O)"><path fill="none" stroke="#000" stroke-linecap="round" stroke-linejoin="round" stroke-miterlimit="10" stroke-width=".5" d="M452.66016 480.9375l.29687 1.1914"/></g><g clip-path="url(#P)"><path fill="none" stroke="#000" stroke-linecap="round" stroke-linejoin="round" stroke-miterlimit="10" stroke-width=".5" d="M466.79297 481.70703l-6.46485-2.7539"/></g><g clip-path="url(#Q)"><path fill="none" stroke="#000" stroke-linecap="round" stroke-linejoin="round" stroke-miterlimit="10" stroke-width=".5" d="M147.51172 466.875l-7.02344.27734"/></g><path fill="none" stroke="#000" stroke-linecap="round" stroke-linejoin="round" stroke-miterlimit="10" stroke-width=".5" d="M147.51172 466.875l1.23437 2.1211m12.06641-2.3125l-6.9961.66015m6.9961-.66016l1.35156 2.05078m11.98047-1.6914l-7.02734-.0586m7.02734.0586l1.13281 2.17578m12.125-1.58594l-6.91406-1.23828m6.91406 1.23828l.75391 2.33594m12.59766-2.57031l-6.98438-.76953m6.98438.76953l.90625 2.28125m12.42187-2.47656l-7.01562-.37891m7.01562.3789l1.03516 2.22266m12.28515-2.54297l-7.02343.26172m7.02343-.26172l1.23047 2.1211m12.07813-2.2422l-7.01172.50392m7.01172-.50391l1.30469 2.07812m12.01562-1.72656l-7.02344-.19922m7.02344.19922l1.08984 2.19922M267.34766 467l-7.02735.02734M267.34766 467l1.16015 2.16406m12.11328-1.59765l-6.9414-1.10547m5.92969.94531l.39843 1.16016m13.86719-.71094l-6.82031-1.6836m5.82812 1.4375l.30078 1.19141m13.66797-.07812l-6.14062-3.41797m5.2461 2.92187l-.02345 1.22657m13.95313-.3047l-5.58203-4.26952m4.76953 3.64843l-.19922 1.21094m14.9375-1.83984l-6.80078-1.76953m5.8086 1.51172l.28515 1.1953m14.13281-1.89843l-7.02344.15234m6-.1328l.60157 1.0703m13.6875-.42968l-6.92578-1.16797m20.21484 1.3164l-6.875-1.46484m16.96484 4.23828l-.42578-7.01172m.36328 5.99219l-1.04297.64063m12.96485.16015l2.48828-6.57422m-2.1289 5.61719l-1.21485.15234m17.0664.6172l-3.30468-6.19923m2.82422 5.29688l-.6836 1.01953m16.28125-2.5664l-6.90625-1.30079m5.90235 1.11328l.36328 1.16797m14.0039-1.34765l-7.0039-.56641m5.98437.48437l.48828 1.125m13.69532-.26953l-6.70313-2.11328m5.72656 1.80469l.22657 1.20703m13.66015-.03906l-5.89062-3.83203m5.03125 3.27734l-.10938 1.21875"/><g clip-path="url(#R)"><path fill="none" stroke="#000" stroke-linecap="round" stroke-linejoin="round" stroke-miterlimit="10" stroke-width=".5" d="M147.51172 453.71094l-7.02344-.02344"/></g><path fill="none" stroke="#000" stroke-linecap="round" stroke-linejoin="round" stroke-miterlimit="10" stroke-width=".5" d="M147.51172 453.71094l1.14453 2.17187m12.17188-2.10937l-7.02735-.14844m7.02734.14844l1.10547 2.1875m12.19922-1.97266l-7.0039-.58203m7.0039.58203l.96875 2.2539m-1.98828-2.33593l.48438 1.125m13.80078-.6875l-6.90625-1.28906m6.90625 1.28906l.73437 2.33984m12.51953-2.0664l-6.78515-1.83594m6.78515 1.83594l.54297 2.39453m12.77735-2.41016l-6.79297-1.80468m6.79297 1.80468l.55468 2.38672m12.76953-2.42578l-6.8125-1.73047m6.8125 1.73047l.58204 2.38281m12.80468-2.75l-6.95703-.9961m6.95703.9961l.83203 2.3086m12.48047-2.29297l-6.95312-1.02344m6.95312 1.02344l.82422 2.3086m12.52735-2.8711l-7.02344.10156m7.02344-.10156l1.18359 2.14843m12.11719-1.74609l-6.99219-.70312m6.99219.70312l.92969 2.26953m12.37109-2.14844l-6.96485-.9453m6.96485.9453l.84765 2.30079m12.4961-2.62891l-7.02344-.28906m7.02344.28906l1.0586 2.21094m12.18359-1.64453l-6.87891-1.42188m5.8789 1.21484l.34766 1.17579m12.19531 1.41406l-3.33593-6.1875m2.85156 5.28515l-.67969 1.02344m14.29297-.03125l-2.96094-6.3711m17.17579 5.76954l-4.76172-5.16797m12.1953 2.3086l7.00392.55468m10.26562 3.20703l-.91016-6.96875m.78125 5.95313l-1 .71094m11.44141-.76172l5.09766-4.83985m-4.35547 4.13672l-1.16406-.38672m17.47656 1.97657l-2.38281-6.60938m2.03515 5.64844l-.82422.91015m16.79297-2.92578l-6.9961-.65625m5.98048.5625l.47265 1.12891m13.41797.36719l-6.11328-3.46094m5.22266 2.95703l-.03125 1.22656m14.42968-1.11328l-6.5-2.67969m5.5547 2.28907l.11718 1.21875m14.01562-.5586l-6.24609-3.22265m5.33984 2.7539l.01172 1.22657"/><g clip-path="url(#S)"><path fill="none" stroke="#000" stroke-linecap="round" stroke-linejoin="round" stroke-miterlimit="10" stroke-width=".5" d="M147.50781 440.5664l-7.01562-.36718"/></g><path fill="none" stroke="#000" stroke-linecap="round" stroke-linejoin="round" stroke-miterlimit="10" stroke-width=".5" d="M147.50781 440.5664l1.03906 2.22266m-2.05859-2.27734l.51953 1.11328m13.8086-.96875l-7.00391-.54297m7.0039.54297l.98438 2.2461m-2.0039-2.32813l.49218 1.125m13.82031-.82813l-6.95703-.97265m6.95703.97265l.83985 2.3047m12.40234-1.9297l-6.8125-1.72265m6.8125 1.72265l.58594 2.38282m12.73047-2.39844l-6.8164-1.69531m5.82421 1.44922l.30078 1.1914m14.02735-1.03125l-6.85938-1.52344m5.86328 1.30079l.32813 1.18359m13.86719-.55078l-6.625-2.34375m5.66015 2.0039l.1836 1.21094m13.94921-3.57031l-6.32812 3.05469m5.40625-2.60938l.98828.72656m12.8789-1.77343l-5.58984 4.2578m4.77735-3.63671l1.11328.51172m13.70312 1.45703l-6.96875-.91797m6.96875.91797l.85938 2.29688m12.46875-2.40625l-6.99219-.70313m6.99219.70313l.92578 2.27343m12.40625-2.65234l-7.02735.0586m7.02735-.0586l1.16797 2.15625m12.1211-2.53125l-6.98048.80469m6.98047-.8047L308.66406 442m11.92578-1.24219l-6.98828-.75m5.97266.64063l.45703 1.14062m12.05078 1.6836l-3.34375-6.1797m13.23828 6.13673l3.5-6.09375m-2.99219 5.20703l-1.22656-.03906m12.4375-1.04297l6.6914-2.15625m-5.71484 1.84375l-.8828-.85547m13.5664-1.73828l6 3.65625m-5.125-3.125l.07031-1.22266m11.97266 3.41016l6.79687-1.78125m-5.8086 1.52344l-.83202-.90235m14.51953 3.13281l4.07422-5.72656m-3.48047 4.89453l-1.21875-.16015m18.92578.03906l-5.89844-3.82031m19.61719 2.96875l-6.70313-2.11328m5.72657 1.80468l.22265 1.20703m13.96485-.61718l-6.4961-2.6797m5.55078 2.28907l.1211 1.22266m14.34375-1.52735l-6.90625-1.28906m5.90234 1.10156l.36719 1.17188M467 441.10938l-6.875-1.45313m5.875 1.24219l.33984 1.17969"/><g clip-path="url(#T)"><path fill="none" stroke="#000" stroke-linecap="round" stroke-linejoin="round" stroke-miterlimit="10" stroke-width=".5" d="M147.48047 426.58594l-6.96094.96484"/></g><path fill="none" stroke="#000" stroke-linecap="round" stroke-linejoin="round" stroke-miterlimit="10" stroke-width=".5" d="M147.48047 426.58594l1.4375 1.98828m11.89844-1.23438l-7.00391-.54297m7.0039.54297l.98438 2.25m12.28516-1.8828l-6.91016-1.27735m5.90234 1.08984l.3711 1.17188m13.83594-.53125l-6.6797-2.1836m5.70704 1.86719l.21094 1.20703m12.5 1.0586l-3.52735-6.07813m18.54297 2.44922l-6.92578 1.17578m5.91797-1.0039l.75.96874m9.45703-4.0039l1.30469 6.90234m15.88281-2.04297l-6.4414-2.8164m5.5039 2.40625l.09375 1.22265M252 430.25391l-2.96094-6.3711m2.53125 5.44531l-.74219.97657m13.21094.27343l-.40625-7.01562m.34766 5.99219l-1.05078.63672m16.375-.34766l-4.3086-5.55078m17.77344 5.42578l-4.60937-5.30078m3.9414 4.53125l-.4414 1.14453m12.95703.38672l-1.67188-6.82422m1.42969 5.83203l-.91797.8164m15.16406-6.40234l-3.05078 6.33203m2.60547-5.41015l1.22656-.04688m13.41016-.27343l-4.80469 5.1289m4.10547-4.38281l1.1836.32031m10.99609-1.96875l-1.13281 6.9336m10.37109-3.58204l7.02344.23047m6.30078.19141l7-.61328m-5.98047.52344l-.66797-1.03125m13.77734-1.44922l5.375 4.52734m-5.375-4.52734l.51172-2.39844m16.44922 1.28125l-1.91797 6.76172m1.91797-6.76172l2.39844-.51563m11.60156.79297l-3.28906 6.20703m17.9336-1.23046l-5.94532-3.7461m5.07813 3.19922l-.08985 1.22656m14.40625-.91406l-6.21484-3.27734m5.3125 2.80078l.0039 1.22656m14.39844-1.16406l-6.58594-2.44922m5.62891 2.09375l.16016 1.21484m12.71875.8711l-3.79688-5.91016m3.24219 5.05078l-.59766 1.07031"/><g clip-path="url(#U)"><path fill="none" stroke="#000" stroke-linecap="round" stroke-linejoin="round" stroke-miterlimit="10" stroke-width=".5" d="M147.26563 412.46094l-6.53125 2.58594"/></g><path fill="none" stroke="#000" stroke-linecap="round" stroke-linejoin="round" stroke-miterlimit="10" stroke-width=".5" d="M147.26563 412.46094l1.87109 1.59375m11.38281-1.73828l-6.41016 2.875m6.41016-2.875l1.9375 1.5039m11.53125-1.10547l-6.71484 2.07813m20.00781.07031l-6.67188-2.21875m19.7461-.55078l-6.1914 3.32031m13.28124-3.2539l6.26172 3.1875m13.35156-.07422l-6.33593-3.04297m19.66797 3.0039l-6.3711-2.96093m5.44531 2.53125l.06641 1.22265M254 414.25391l-6.95703-1m5.94531.85547l.41406 1.15234m13.89063-.88281l-6.91406-1.25m5.91015 1.0664l.3711 1.16797m13.47265.25l-5.96484-3.71875m5.09765 3.17578l-.08593 1.22266m14.65625-1.54297l-6.73828-1.99219m5.7578 1.69922l.2461 1.20313m14.09766-1.10157l-6.83984-1.60937m5.84765 1.375l.3125 1.1875m14.00781-1l-6.86328-1.51563m5.86328 1.29297l.32813 1.1836m14.07031-1.76953l-7.02734.10156m6.0039-.08594l.58985 1.07422m12.04297-4.05078l-3.6172 6.02344m3.08985-5.14844l1.22657.0664m12.6953-.89453l-3.77734 5.92969m3.22657-5.0664l1.22265.09765m7.78125.1289l5.94532 3.75m7.66796-4.15624l5.34766 4.55859m-4.5664-3.89453l.26171-1.19922m12.10547.75l5.6836 4.13281m-5.6836-4.13281l.33985-2.42969M409.5 410.33203l1.60156 6.84375m-1.36718-5.84765l.92187-.8086m12.98828-.28125l-.0586 7.02735m16.10938-1.33985l-5.52734-4.34375m4.72266 3.71094l-.21485 1.20703m14.75-1.2461l-6.35547-3m5.42969 2.5625l.0586 1.22657m14.48046-1.78516l-6.95312-1.00781m5.9414.86328l.41407 1.15235"/><g clip-path="url(#V)"><path fill="none" stroke="#000" stroke-linecap="round" stroke-linejoin="round" stroke-miterlimit="10" stroke-width=".5" d="M146.72656 398.22266l-5.45312 4.43359"/></g><path fill="none" stroke="#000" stroke-linecap="round" stroke-linejoin="round" stroke-miterlimit="10" stroke-width=".5" d="M146.72656 398.22266l2.26172.95312m10.3164-1.63281l-3.98046 5.79297m3.98047-5.79297l2.4375.27734m10.02734-.70703l-2.27734 6.64844m2.27734-6.64844l2.42188-.38672m10.24218.23047l-.97656 6.96094m.97656-6.96094l2.3047-.83984m10.2578.8164l.52735 7.00782m-.44922-5.98829l1.03516-.65625m9.19921 4.4375l6.53125-2.59375m-5.57812 2.21875l-.9375-.79687m18.70312 2.66406l-4.27343-5.57812m18.96093 2.92578l-7.01953-.27344m7.01953.27344l1.06641 2.21094m12.2539-2.28907l-7.02734-.11718m6.0039.10156l.5586 1.09375m13.70313-1.86719l-6.875 1.46485m5.875-1.25391l.78906.9414m13.54297-1.0664l-6.91016 1.28906m5.90625-1.10156l.76172.96094m13.61328-.66016l-7.01953.3125m5.9961-.26563l.625 1.0586m13.30859-2.59375l-6.21094 3.28906m5.30469-2.8086l1.01953.6875m13.4961-.41015l-6.80079 1.77735m5.8125-1.51954l.82813.90235m13.33984-1.57031l-6.52734 2.59765m5.57812-2.22265l.9336.79296m12.69921-2.1953l-5.26562 4.64843m4.5-3.97266l1.14844.4336m13.14843-.84375l-5.69921 4.11718m4.86718-3.51562l1.10157.53906m12.9453-1.26953l-5.49609 4.3789m4.69532-3.74218l1.125.48828m11.95703-2.0039l-3.4336 6.1328m3.4336-6.1328l2.45312.05468m10.06641-.3789l-1.83984 6.78125m1.5703-5.79297l1.19532-.27344m13.28906 5.6836l-3.63672-6.01173m13.85938 6.27735l2.54687-6.54688m-2.17968 5.59766l-1.21485.14062m17.1836.58204l-3.4961-6.09375m2.98828 5.20703l-.65234 1.03906m15.66797-1.27344l-5.88281-3.84765m5.02734 3.28515l-.11328 1.22266m14.85156-2.42578l-7.01953-.32032"/><g clip-path="url(#W)"><path fill="none" stroke="#000" stroke-linecap="round" stroke-linejoin="round" stroke-miterlimit="10" stroke-width=".5" d="M467.07031 400.59766l1.05469 2.21875"/></g><g clip-path="url(#X)"><path fill="none" stroke="#000" stroke-linecap="round" stroke-linejoin="round" stroke-miterlimit="10" stroke-width=".5" d="M146.09766 384.30469l-4.19532 5.63672"/></g><path fill="none" stroke="#000" stroke-linecap="round" stroke-linejoin="round" stroke-miterlimit="10" stroke-width=".5" d="M146.09766 384.30469l2.42578.36719m10.42187-.66016l-3.26172 6.22265m3.26172-6.22265l2.45313-.01563m11.61719.54688l-4.77344 5.16015m4.77344-5.16015l2.375.6289m10.94921-.62109l-4.78906 5.14453m4.78906-5.14453l2.3711.63281m10.8789-.6914l-4.65625 5.26172m19.15625-2.58985l-7.02734-.08203m7.02734.08203l1.125 2.17969m11.89453-.8086l-6.4375-2.82421m6.4375 2.82422l.1836 2.4453m13.41016-3.54296l-6.9961-.6289m6.9961.6289l.95312 2.26172m12.35547-2.97266l-6.98047.79297m6.98047-.79297l1.39062 2.01953m11.80078-2.6289l-6.73437 2.01172m6.73438-2.01172l1.72265 1.7461m11.5586-1.85157l-6.66797 2.22265m6.66797-2.22265l1.77734 1.6914m11.45312-1.91406l-6.5 2.66797m6.5-2.66797l1.89063 1.5664m11.51172-1.33593l-6.67188 2.20703m5.69922-1.88672l.88672.84766m12.76953-2.3086l-5.41016 4.48829m4.6211-3.83594l1.13672.46484m13.23047-.75L327.4414 389m5.9375-3.7539l2.1328 1.21484m11.19532-1.19922l-5.96094 3.72265m5.09375-3.17968l1.0625.61328m12.92188-1.4375l-5.5664 4.28515m5.5664-4.28515l2.23437 1.01172m11.23828-.79297l-5.8828 3.84765m5.8828-3.84765l2.14844 1.1836m10.1289-2.21485l-3.80468 5.91015m3.80469-5.91015l2.44531.20703m11.0625-.07422l-4.1914 5.64453m4.1914-5.64453l2.42578.36719m11.21094-.09375l-4.83203 5.10156m4.83203-5.10156l2.36328.65234m12.04688 1.96094l-7.02735-.1289m6.0039.10937l.5586 1.09375m12.72656 1.3711l-4.91796-5.01954m4.20312 4.28906l-.3711 1.17188m14.85938-.99219l-5.83594-3.91797m4.98829 3.34766l-.12891 1.21875m14.33984-.72266l-5.92968-3.76953m5.92968 3.76953l-.1914 2.44922"/><g clip-path="url(#Y)"><path fill="none" stroke="#000" stroke-linecap="round" stroke-linejoin="round" stroke-miterlimit="10" stroke-width=".5" d="M147.01953 372.01172l-6.03906 3.59375"/></g><path fill="none" stroke="#000" stroke-linecap="round" stroke-linejoin="round" stroke-miterlimit="10" stroke-width=".5" d="M147.01953 372.01172l2.09766 1.27344m-2.97656-.75l1.05078.63671m13.54687-.15625l-6.84766 1.58204m6.84766-1.58204l1.60938 1.85157m-2.60547-1.6211l.80469.92579m13.5039-1.16016l-6.84375 1.59375m6.84375-1.59375l1.61328 1.84765m11.77735-.71093l-6.9922-.67969m6.9922.67969l.9375 2.26562m12.375-2.98047l-6.98828.75m6.98828-.75l1.375 2.03125m11.86328-2.47265l-6.83594 1.63281m6.83594-1.63281l1.625 1.83984m11.73828-.4336l-6.92969-1.17968m6.92969 1.17969l.76953 2.32812m-1.77734-2.5l.3828 1.16406m13.90626-.8203l-6.85938-1.52344m6.85938 1.52343l.65234 2.36328m-1.65234-2.58593l.32812 1.18359m14.00391-1.05078l-6.89844-1.34375m6.89844 1.34375l.71484 2.34765m12.6172-3.60937l-6.9297 1.17969m6.9297-1.17969l1.5 1.9414m-2.50782-1.76952l.75.96875m13.38672-1.8125l-6.5586 2.51953m6.5586-2.51954l1.85156 1.60938m-2.80469-1.24219l.92578.80469m13.31641-1.24219l-6.5039 2.66406m6.5039-2.66406l1.88672 1.57031m11.53125-1.27734l-6.71094 2.07813m6.71094-2.07813L308.8789 374.5m11.60937-1.60938l-6.78515 1.83594m6.78515-1.83594l1.67578 1.78907m11.40235-2.41406l-6.3125 3.08593m5.39453-2.63672l.99219.71875m12.78125-1.8789l-5.39063 4.50781m5.39063-4.50781l2.27343.92187m11.10157-.84765l-5.51172 4.35937m5.51172-4.35937l2.24609.98437m11.3789-.52344l-6.1328 3.4336m6.1328-3.4336l2.0625 1.32813m10.91407-1.82422l-5.45703 4.42969m5.45703-4.42969l2.26172.95703m-3.0547-.3125l1.12892.47656m12.38671-1.6953l-4.26953 5.57812m4.26953-5.57813l2.42188.39844m-3.04297.41015l1.21094.20313m13.13281-.64844l-5.08203 4.85156m5.08203-4.85156l2.32813.76953m-3.07032-.0625l1.16797.38282m13.125-.81641l-5.55469 4.30469m5.5547-4.30469l2.23827 1.0039m11.8125 1.0547l-7.02734.1875m6.0039-.16016l.60547 1.0664m13.58985-.01171l-6.74219-1.97657m6.74219 1.97656l.4961 2.40235m12.14843-1.14453l-5.40234-4.49219m5.40234 4.49219l-.5 2.40234"/><g clip-path="url(#Z)"><path fill="none" stroke="#000" stroke-linecap="round" stroke-linejoin="round" stroke-miterlimit="10" stroke-width=".5" d="M146.92188 358.54297l-5.84375 3.90234"/></g><path fill="none" stroke="#000" stroke-linecap="round" stroke-linejoin="round" stroke-miterlimit="10" stroke-width=".5" d="M146.92188 358.54297l2.16015 1.16015m-3.01172-.59375l2.16406 1.16407m12.50391-.5625l-6.84766 1.5664m6.84766-1.5664l1.60938 1.85547m-2.60547-1.62891l.80469.92969m13.58593-.10547l-7.00781-.53906m7.00781.53906l.98438 2.25m12.33594-2.73828l-7.01563.4375m7.01563-.4375l1.28515 2.08984m12-2.35937l-6.95703.98046m6.95703-.98046l1.44531 1.98437m11.85157-2.11719l-6.91797 1.2422m5.91015-1.0625l.75782.96483m13.60547-.20312l-7-.63672m7 .63672l.94921 2.26172m12.3672-2.89063l-7 .6211m7-.6211l1.33593 2.0547m11.61328-3.32813l-6.27344 3.16796m6.27344-3.16796l2.0039 1.41406m11.10938-1.76172l-5.86719 3.86328m5.8672-3.86328l2.15234 1.17578m11.125-1.23437l-5.79297 3.98046m5.79297-3.98046l2.17578 1.1328m10.76172-1.59374l-5.03516 4.89844m5.03515-4.89844l2.33594.75m11.38281-.2539l-5.84375 3.90624m4.9922-3.33594l1.08202.58204m12.60547-1.72266l-4.88672 5.05078m4.17579-4.3164l1.17968.33984m12.86328-1.0586L327.94922 363m4.92187-5.01563l2.35547.69532m11.38672-.1875l-5.77734 4m5.77734-4l2.1836 1.125m11.1914-1.03516l-5.89453 3.82422m5.89453-3.82422l2.14453 1.1914m11.01953-1.41015l-5.58984 4.25781m5.58984-4.2578l2.22657 1.02733m-3.03907-.40625l1.11329.51172m13.08984-1.02734l-5.74219 4.04688m5.74219-4.04688l2.1914 1.10938m-3.02734-.51954l1.09375.5547m12.76563-1.50392l-5.16016 4.76563m5.16016-4.76563l2.3164.8125m-3.0664-.11718l2.3164.8086m11.79297-1.45313l-5.25 4.66796m5.25-4.66796l2.30078.85156m-3.0625-.17188l2.30078.85157m12.07032-1.15625l-5.83594 3.91796m5.83594-3.91796l2.16406 1.15625m-3.01563-.58594l2.16407 1.15625m11.98828-1.7461l-5.8086 3.95313m5.8086-3.95313l2.17187 1.14454m-3.01562-.56641l1.08594.57031m13.39062-.57031l-6.44531 2.80078m6.44531-2.80078l1.92188 1.52734M452.53125 359.5l.96094.76172m13.29297-1.17188l-6.44532 2.8047m5.50782-2.39454l.95703.76172"/><g clip-path="url(#aa)"><path fill="none" stroke="#000" stroke-linecap="round" stroke-linejoin="round" stroke-miterlimit="10" stroke-width=".5" d="M146.125 344.3789l-4.25 5.59766"/></g><path fill="none" stroke="#000" stroke-linecap="round" stroke-linejoin="round" stroke-miterlimit="10" stroke-width=".5" d="M146.125 344.3789l2.42188.39063m-3.04297.42188l1.21093.19921m12.9375-.83593l-4.67578 5.2461m4.67578-5.2461l2.38672.58594m10.58985-.85157l-3.9961 5.77735m3.41406-4.9375l1.21875.14062m13.47266-.22265l-5.58594 4.26171m18.61328-4.59375l-5.01171 4.92579m4.28515-4.20704l1.16797.3672m13.29688-.56642l-5.85547 3.88672m5.0039-3.3203l1.07813.58202m13.4336-.47656l-6.54688 2.54688m5.59375-2.1797l.92969.80079m13.27734-1.32031l-6.42578 2.84765m6.42578-2.84765l1.92969 1.51562m11.12109-2l-5.89844 3.82031m5.89844-3.8203l2.14453 1.1914m10.67188-1.80078l-4.90235 5.03515m4.90235-5.03515l2.35547.6875m10.51562-1.0547l-4.01172 5.76954m4.01172-5.76953l2.4375.29297m10.94531-.24219l-4.14844 5.66797m4.14844-5.66797l2.42969.34766m11.38281.08984l-5.14062 4.79297m4.39062-4.09375l1.16016.39844m13.66015.16406l-6.65234 2.27344m5.6836-1.94532l.89453.83985m12.82812-2.19922l-5.53125 4.33203m4.72656-3.70313l1.1211.5m12.78515-1.3789l-5.10156 4.83203m5.10156-4.83203l2.32422.78125m11.4336-.20703l-5.98829 3.6836m5.98829-3.6836l2.11328 1.24219M373.4453 345.5l-6.17578 3.35547m6.17578-3.35547l2.04297 1.35547m-2.9414-.86719l1.02343.67969m12.80469-1.73047l-5.41016 4.48047m5.41016-4.48047l2.26953.9336m-3.05469-.28126l1.13282.46485m12.84765-1.25781l-5.16797 4.76171m5.16797-4.76171l2.3164.8125m-3.0664-.1172l1.15625.40626m13.1211-.84766l-5.59375 4.2539m5.59375-4.2539l2.23046 1.02735m-3.04296-.40625l1.11328.51171m13.22265-.82421l-6.01171 3.63671m6.01171-3.63671l2.10938 1.2578m-2.98438-.73046l1.0547.6289m13.21093-1.02343l-6.16016 3.375m6.16016-3.375l2.05078 1.34765m-2.94531-.85937l1.02344.67578m13.28906-.96094l-6.36719 2.96875m6.36719-2.96875l1.96094 1.47656m-2.88672-1.04687l.98046.73828m13.3711-.91015l-6.58594 2.45312"/><g clip-path="url(#ab)"><path fill="none" stroke="#000" stroke-linecap="round" stroke-linejoin="round" stroke-miterlimit="10" stroke-width=".5" d="M466.85547 345.95313l1.83594 1.625"/></g><path fill="none" stroke="#000" stroke-linecap="round" stroke-linejoin="round" stroke-miterlimit="10" stroke-width=".5" d="M465.89453 346.3086l.91797.8125"/><g clip-path="url(#ac)"><path fill="none" stroke="#000" stroke-linecap="round" stroke-linejoin="round" stroke-miterlimit="10" stroke-width=".5" d="M147.11328 332.23828l-6.22656 3.25"/></g><path fill="none" stroke="#000" stroke-linecap="round" stroke-linejoin="round" stroke-miterlimit="10" stroke-width=".5" d="M147.11328 332.23828l2.02344 1.38672m-2.92969-.91406l2.02344 1.38672m12.15625-1.94532l-6.14063 3.41797m6.14063-3.41797l2.0586 1.33594m-2.95313-.83594l1.03125.66407m12.83984-1.66016l-5.46875 4.41406m4.67578-3.77344l1.1289.48438m12.34767-1.73438l-4.20313 5.62891m3.59375-4.8086l1.21094.1875m12.98437-.78515l-4.7461 5.1836m19.1797-2.21094l-6.98438-.75781m5.96875.64843l.45703 1.14063m13.88281-1.09375l-7-.63281m7 .6328l.94922 2.26173m12.3672-2.89063l-7 .6211m7-.6211l1.33593 2.0586m11.73828-3.05079l-6.52344 2.60938m6.52344-2.60938l1.875 1.58204m10.90625-2.4922l-5.45703 4.4297m5.45703-4.4297l2.26172.95704m10.88281-1.15235l-5.10937 4.82032m5.10937-4.82031l2.32422.78125m-3.07031-.08204l1.16406.39454m12.77734-1.21875l-4.87109 5.0664m4.8711-5.0664l2.35937.67187m11.79297.58984l-6.54688 2.54688m5.59375-2.17578l.92969.80078m13.54297.59765l-6.95703-.99218m6.95703.99219l.83203 2.30859m12.35938-3.84766l-6.71094 2.08594m6.71094-2.08594l1.74218 1.72656m10.64844-3.22265l-4.85938 5.07812m4.85938-5.07812l2.35938.66406m9.33203-1.54687l-1.61329 6.83984m1.37891-5.84375l1.1836-.3125m12.8203-.54297l-2.51952 6.5625m2.15234-5.60547l1.21875-.15234m13.375-.28516l-4.34766 5.52344m4.34766-5.52344l2.41406.4375m-3.04687.36719l1.20703.21875m12.28125-1.32813l-3.42578 6.13282m3.42578-6.13281l2.45312.04687m11.08594.08984l-3.875 5.85938m3.875-5.85938l2.44531.23438m12.26563 1.58203l-6.66797 2.22266m6.66797-2.22266l1.77734 1.6914m11.63672-1.32421L433.5 334.60938m6.86328-1.4922l1.58594 1.8711m-2.58203-1.65234l.79297.9336m13.40625-1.5547l-6.64063 2.29688m6.64063-2.29688l1.79687 1.67188m-2.76172-1.33594l.89844.83594m13.35547-1.25l-6.58594 2.44922"/><g clip-path="url(#ad)"><path fill="none" stroke="#000" stroke-linecap="round" stroke-linejoin="round" stroke-miterlimit="10" stroke-width=".5" d="M466.85547 332.63672l1.83594 1.6289"/></g><path fill="none" stroke="#000" stroke-linecap="round" stroke-linejoin="round" stroke-miterlimit="10" stroke-width=".5" d="M465.89844 332.9961l.91406.8125"/><g clip-path="url(#ae)"><path fill="none" stroke="#000" stroke-linecap="round" stroke-linejoin="round" stroke-miterlimit="10" stroke-width=".5" d="M147.32422 319.41406l-6.64844 2.26953"/></g><path fill="none" stroke="#000" stroke-linecap="round" stroke-linejoin="round" stroke-miterlimit="10" stroke-width=".5" d="M147.32422 319.41406l1.79297 1.67578m-2.75781-1.34765l1.78906 1.67969m-2.75781-1.34766l.89453.83984m14.27343-1.71875l-6.48437 2.70703m6.48437-2.70703l1.89453 1.55469m-2.83984-1.16016l1.89844 1.5547m-2.83984-1.16017l.94921.77735m14.28516-1.48047l-6.55469 2.53516m6.55469-2.53516l1.85547 1.60547m-2.8086-1.23828l1.85547 1.60547m12.46875-1.82032l-6.66406 2.23047m6.66406-2.23047l1.78125 1.6875m-2.75-1.36328l.89063.84375m13.5664-.28515l-7.01171.46093m7.01172-.46093l1.29296 2.08984m-2.3125-2.01953l.64453 1.04297m13.62891-.1875l-6.88672-1.38672m6.88672 1.38672l.70313 2.35156m-1.70703-2.55469l.35156 1.17578m13.98828-1.09375l-6.92969-1.14843m6.92969 1.14843l.78516 2.32422m-1.79297-2.49219l.39062 1.16407m13.98047-1.69531l-7.02344.25m7.02344-.25l1.22656 2.125m-2.25-2.08594l.61328 1.0625m13.52344-2.14844l-6.6211 2.34766m6.6211-2.34766l1.8086 1.65625m-2.77344-1.3164l.90625.82812m13.23437-1.50781l-6.34375 3.02343m6.34375-3.02343l1.97266 1.46093m11.23828-1.66015l-6.13672 3.42578m6.13672-3.42578l2.0625 1.32812m11.48828-.8164l-6.60547 2.40234m6.60547-2.40234l1.82031 1.64062m-2.78125-1.29297l.91016.82422m13.41797-1.01172l-6.71094 2.07813m6.71094-2.07813l1.74219 1.73047m11.73046-.78906l-7.02734.19922m7.02735-.19922l1.21093 2.13281m-2.23437-2.10547l.60547 1.0664m13.58203-2.01562l-6.72266 2.04297m6.72266-2.04297l1.73047 1.73829m-2.71094-1.44141l.86719.86719m12.96875-2.125l-5.8047 3.96484m5.8047-3.96484l2.17187 1.13671m-3.01953-.5625l1.08984.57032m12.61329-1.6914l-4.88282 5.05468m4.88281-5.05469l2.35547.67969m-3.0664.0586l1.17969.33593m12.47265-1.38672l-4.13672 5.67969m4.13672-5.67969l2.42969.34375m9.85156-.85937l-2.07422 6.71484m2.07422-6.71484l2.41016-.46094m10.67187.39844l-1.60547 6.83984m1.60547-6.83984l2.3711-.62891m11.2539.71484l-2.22265 6.66797m1.89843-5.69922l1.21094-.20312m10.14453 5.8789l2.33985-6.625m15.04687 5.29297l-5.80469-3.96093m4.96094 3.38671l-.13281 1.21875m14.90234-2.67578l-7.02344.10547m7.02344-.10547l1.1875 2.14844m-2.20703-2.13281l.58985 1.07422m13.58593-2.09375l-6.70312 2.11328"/><g clip-path="url(#af)"><path fill="none" stroke="#000" stroke-linecap="round" stroke-linejoin="round" stroke-miterlimit="10" stroke-width=".5" d="M466.91406 319.49219l1.75 1.71875"/></g><path fill="none" stroke="#000" stroke-linecap="round" stroke-linejoin="round" stroke-miterlimit="10" stroke-width=".5" d="M465.9375 319.80078l.875.85938"/><path fill="#ff3030" fill-rule="evenodd" d="M295.72656 405.51172h7.69531v-10.14453h-7.6953v10.14453"/><path fill="azure" fill-rule="evenodd" d="M297.5586 397.19922h.83593v5.73828h3.1914v.74219h-4.02734v-6.48047"/><path fill="#ff3030" fill-rule="evenodd" d="M428.8789 401.07422h7.69141v-10.14844h-7.6914v10.14844"/><path fill="azure" fill-rule="evenodd" d="M430.71094 392.76172h.83203V398.5h3.19531v.73828h-4.02734v-6.47656"/><path fill="#ff3030" fill-rule="evenodd" d="M189.20703 374.4414h7.6914v-10.14452h-7.6914v10.14453"/><path fill="azure" fill-rule="evenodd" d="M191.03906 366.1289h.83594v5.7422h3.1914v.73827h-4.02734v-6.48046"/><path fill="#ffffe0" fill-rule="evenodd" d="M356.6875 401.30469h22.1836v-10.1914h-22.1836v10.1914"/><path fill-rule="evenodd" d="M360.1875 392.94531h.51172v6.29297h-.78906V394.75h-1.38672v-.55469l.5586-.0664.2539-.0547.22656-.08593.20313-.14453.17578-.20703.14062-.29688.10547-.39453m4.8164 0l.22657.01953.21875.0547.21094.08983.1953.1211.1836.14844.17188.17578.30078.42187.24219.49219.17968.54688.11329.57812.03906.58984-.03906.59375-.11329.58594-.17968.55469-.2422.5-.30077.42969-.17188.17968-.1836.15235-.1953.125-.21094.08984-.21875.0586-.22656.01953-.23047-.01954-.21875-.05859-.20703-.08984-.19922-.125-.1836-.15235-.17187-.17968-.30078-.4297-.24219-.5-.17969-.55468-.11328-.58594-.03906-.59375h.83594l.02734.56641.08203.5039.125.44141.16406.375.19141.30078.21094.22266.22265.13672.22657.04687.22656-.04687.22265-.13672.20704-.22266.1914-.30078.16406-.375.125-.4414.08204-.50391.02734-.5664-.02734-.5586-.08204-.5-.125-.4375-.16406-.36719-.1914-.28906-.20704-.21484-.22265-.13282-.22656-.04296-.22657.04296-.22265.13282-.21094.21484-.1914.28906-.16407.36719-.125.4375-.08203.5-.02734.5586h-.83594l.03906-.58985.11328-.57813.17969-.54687.24219-.49219.30078-.42187.17187-.17578.1836-.14844.19922-.1211.20703-.08984.21875-.05469.23047-.01953m4.94921 0l.23047.01953.21875.0547.20704.08983.19921.1211.1836.14844.17187.17578.30078.42187.2422.49219.17968.54688.11328.57812.03906.58984-.03906.59375-.11328.58594-.17969.55469-.24219.5-.30078.42969-.17187.17968-.1836.15235-.19921.125-.20704.08984-.21875.0586-.23046.01953-.22657-.01954-.21875-.05859-.21094-.08984-.1953-.125-.1836-.15235-.17188-.17968-.30078-.4297-.24219-.5-.17968-.55468-.11328-.58594-.03907-.59375h.83594l.02735.56641.08203.5039.125.44141.16406.375.1914.30078.20704.22266.22265.13672.22656.04687.22657-.04687.22265-.13672.21094-.22266.1914-.30078.16407-.375.125-.4414.08203-.50391.02735-.5664-.02735-.5586-.08203-.5-.125-.4375-.16406-.36719-.1914-.28906-.21095-.21484-.22265-.13282-.22656-.04296-.22657.04296-.22265.13282-.20704.21484-.1914.28906-.16406.36719-.125.4375-.08204.5-.02734.5586h-.83594l.03907-.58985.11328-.57813.17969-.54687.24218-.49219.30078-.42187.17188-.17578.1836-.14844.1953-.1211.21094-.08984.21875-.05469.22656-.01953m4.95313 0l.38672.02735.35937.08203.32422.13672.27735.1875.23046.23828.17579.28515.10546.33204.03907.3789-.01953.27344-.0586.23437-.08594.19922-.11328.17188-.1289.14453-.14063.1211-.28515.1953.23046.1211.20704.14453.18359.17188.15234.1953.125.21094.08985.23047.05469.2461.01953.2539-.03516.3086-.10156.32812-.17188.32422-.23828.30469-.3086.26953-.375.21484-.21093.08204-.22656.0625-.2461.03515-.26171.01563-.25782-.01563-.24219-.03515-.22265-.0625-.20703-.08204-.35938-.21484-.28906-.26953-.22266-.30469-.15625-.32422-.09375-.32812-.03125-.3086h.83594l.02344.25391.07812.23438.125.21093.16016.1875.1914.15235.21876.11328.24218.07031.25391.02734.25781-.02734.23828-.07031.21875-.11328.19532-.15235.16015-.1875.1211-.21094.07812-.23437.02735-.2539-.02735-.25391-.07812-.23438-.1211-.21094-.16015-.1875-.19532-.15234-.21875-.11328-.23828-.07031-.25781-.02735-.2539.02735-.2422.07031-.21874.11328-.19141.15235-.16016.1875-.125.21093-.07812.23438-.02344.2539h-.83594l.01954-.2539.05468-.23828.09375-.22657.1211-.20703.15625-.1914.17968-.17188.20704-.15234.23437-.13281-.28906-.19532-.13672-.1211-.1289-.14452-.11329-.17188-.08984-.19922-.05469-.23437-.02344-.27344h.78906l.02344.21094.0664.1914.10157.16797.13672.14063.16797.10937.1875.08204.20703.05078.21875.01562.22266-.01562.20703-.05079.1875-.08203.16406-.10937.13672-.14063.10547-.16796.0664-.19141.02344-.21094-.02344-.21484-.0664-.1914-.10547-.16798-.13672-.14062-.16406-.10938-.1875-.08203-.20703-.05078-.22266-.01563-.21875.01563-.20703.05078-.1875.08203-.16797.10938-.13672.14062-.10156.16797-.0664.1914-.02344.21485h-.78907l.03906-.3789.10938-.33204.17188-.28515.23046-.23828.28125-.1875.32032-.13672.35937-.08203.38672-.02735"/><path fill="#ffffe0" fill-rule="evenodd" d="M208.59375 351.39453h22.17969v-10.19531h-22.17969v10.19531"/><path fill-rule="evenodd" d="M212.09375 343.03516h.50781v6.29296h-.78515v-4.48828h-1.39063v-.55468l.5586-.06641.2539-.05469.23047-.08984.20313-.14063.17187-.21093.14453-.29297.10547-.39453m4.8125 0l.23047.01953.21875.05469.20703.08984.19531.1211.1836.14843.17187.17578.30469.41797.24219.4961.17968.54687.10938.57812.03906.58985-.03906.59375-.10938.58203-.17968.55469-.2422.5039-.30468.42578-.17187.1797-.1836.15624-.19531.1211-.20703.09375-.21875.05468-.23047.01953-.23047-.01953-.21875-.05469-.20703-.09375-.19531-.12109-.1836-.15625-.17187-.17969-.30469-.42578-.24219-.5039-.17968-.5547-.10938-.58202-.03906-.59375h.83203l.03125.5625.07813.50781.1289.4414.16016.375.1914.30079.21094.22265.22266.13672.22656.04688.22656-.04688.22266-.13672.21094-.22265.1914-.30078.16016-.375.1289-.44141.08204-.50781.02734-.5625-.02734-.5625-.08203-.5-.12891-.4336-.16016-.36718-.1914-.29297-.21094-.21094-.22266-.13281-.22656-.04688-.22656.04688-.22266.13281-.21094.21094-.1914.29297-.16016.36718-.1289.4336-.07813.5-.03125.5625h-.83203l.03906-.58985.10938-.57812.17968-.54688.2422-.49609.30468-.41797.17187-.17578.1836-.14844.19531-.1211.20703-.08983.21875-.0547.23047-.01952m4.95313 0l.23046.01953.21875.05469.20703.08984.19532.1211.1836.14843.17187.17578.30078.41797.2461.4961.17968.54687.10937.57812.03907.58985-.03907.59375-.10937.58203-.17969.55469-.2461.5039-.30077.42578-.17188.1797-.1836.15624-.1953.1211-.20704.09375-.21875.05468-.23047.01953-.23046-.01953-.21875-.05469-.20703-.09375-.19532-.12109-.1875-.15625-.16797-.17969-.30468-.42578-.2422-.5039-.17968-.5547-.11328-.58202-.03516-.59375h.83203l.02735.5625.08203.50781.1289.4414.16016.375.1914.30079.21095.22265.22265.13672.22656.04688.22657-.04688.22265-.13672.21094-.22265.1914-.30078.16016-.375.125-.44141.08203-.50781.03125-.5625-.03125-.5625-.08203-.5-.125-.4336-.16015-.36718-.1914-.29297-.21095-.21094-.22265-.13281-.22656-.04688-.22657.04688-.22265.13281-.21094.21094-.1914.29297-.16016.36718-.12891.4336-.08203.5-.02734.5625h-.83204l.03516-.58985.11328-.57812.17969-.54688.24219-.49609.30468-.41797.16797-.17578.1875-.14844.19531-.1211.20704-.08983.21875-.0547.23047-.01952m4.95312 0l.38672.02734.35937.08203.32032.13672.28125.1875.23047.23438.17187.28906.10938.33203.03906.375-.02344.27344-.05469.23828-.08984.19922-.11328.16796-.1289.14454-.13673.12109-.28906.19922.23438.11719.20703.14843.17968.17188.15625.1914.1211.21485.09375.23047.05469.24219.01953.2578-.03516.3086-.10547.32422-.17187.32813-.23828.30468-.3047.26953-.375.21485-.21093.08203-.23047.0586-.24219.03906-.26172.01171-.26171-.01171-.23828-.03907-.22657-.0586-.20312-.08202-.35938-.21485-.28906-.26953-.22266-.30469-.16015-.32812-.08985-.32422-.03125-.3086h.83203l.02735.25.07812.23829.1211.21094.16015.18359.19532.15234.21875.1172.23828.0703.25781.02735.2539-.02735.2422-.0703.21874-.1172.19141-.15234.16016-.1836.125-.21093.07812-.23828.02734-.25-.02734-.2539-.07812-.23438-.125-.21485-.16016-.1836-.1914-.15233-.21876-.11329-.24218-.07421-.25391-.02344-.25781.02344-.23828.07421-.21875.11329-.19532.15234-.16015.1836-.1211.21484-.07812.23437-.02734.2539h-.83204l.01953-.2539.0547-.24219.08984-.22265.125-.20703.15234-.19141.1836-.17188.20702-.15234.23047-.13281-.28515-.19922-.14063-.1211-.1289-.14452-.11328-.16797-.08594-.19922-.0586-.23828-.01953-.27344h.78516l.02344.21484.0664.1914.10547.16798.13672.13672.16406.11328.1875.08203.20703.05078.22266.01563.21875-.01563.20703-.05078.1875-.08203.16797-.11328.13672-.13672.10156-.16797.0664-.1914.02345-.21485-.02344-.21485-.0664-.1914-.10157-.16406-.13672-.14063-.16797-.11328-.1875-.07813-.20703-.05078-.21875-.01953-.22266.01953-.20703.05079-.1875.07812-.16406.11328-.13672.14063-.10547.16406-.0664.1914-.02344.21485h-.78516l.03906-.375.10938-.33203.17188-.28906.23046-.23438.27735-.1875.32422-.13672.35937-.08203.38672-.02734"/><path fill="#ffffe0" fill-rule="evenodd" d="M204.15625 398.09375h22.17969v-10.1914h-22.17969v10.1914"/><path fill-rule="evenodd" d="M207.65234 389.73438h.51172v6.29687h-.78906v-4.49219h-1.38672v-.55469l.5586-.0664.2539-.05078.23047-.08985.20313-.14062.17187-.21094.14063-.29687.10546-.39454m4.81641 0l.23047.01954.21875.05468.20703.08985.19531.1211.1836.14843.17187.17578.30078.42188.2461.49218.17968.54688.10938.57812.03906.59375-.03906.58985-.10938.58593-.17968.5547-.2461.5-.30078.42968-.17187.17969-.1836.15234-.19531.125-.20703.08984-.21875.0586-.23047.01953-.23047-.01953-.21875-.0586-.20703-.08984-.19531-.125-.1875-.15234-.16797-.1797-.30469-.42968-.24219-.5-.17968-.55469-.11328-.58593-.03516-.58985h.83203l.02734.5625.08203.5039.125.44532.16407.3711.1914.30078.21094.22265.22266.13672.22656.04688.22656-.04688.22266-.13672.21094-.22265.1914-.30079.16016-.37109.125-.44531.08203-.5039.03125-.5625-.03125-.5625-.08203-.5-.125-.4375-.16016-.36329-.1914-.29297-.21094-.21484-.22266-.13281-.22656-.04297-.22656.04297-.22266.1328-.21094.21485-.1914.29297-.16406.36328-.125.4375-.08204.5-.02734.5625h-.83203l.03516-.59375.11328-.57812.17968-.54688.2422-.49219.30468-.42187.16797-.17578.1875-.14844.19531-.1211.20703-.08984.21875-.05468.23047-.01954m4.95313 0l.22656.01954.21875.05468.21094.08985.1953.1211.1836.14843.17188.17578.30078.42188.2461.49218.17968.54688.10937.57812.03907.59375-.03907.58985-.10937.58593-.17969.5547-.2461.5-.30077.42968-.17188.17969-.1836.15234-.1953.125-.21094.08984-.21875.0586-.22656.01953-.23047-.01953-.21875-.0586-.20703-.08984-.19922-.125-.1836-.15234-.17187-.1797-.30078-.42968-.2422-.5-.17968-.55469-.11328-.58593-.03906-.58985h.83594l.02734.5625.08203.5039.125.44532.16406.3711.1914.30078.21095.22265.22265.13672.22656.04688.22657-.04688.22265-.13672.21094-.22265.1875-.30079.16406-.37109.125-.44531.08203-.5039.03125-.5625-.03125-.5625-.08203-.5-.125-.4375-.16406-.36329-.1875-.29297-.21094-.21484-.22265-.13281-.22656-.04297-.22657.04297-.22265.1328-.21094.21485-.1914.29297-.16407.36328-.125.4375-.08203.5-.02734.5625h-.83594l.03906-.59375.11328-.57812.17969-.54688.24219-.49219.30078-.42187.17187-.17578.1836-.14844.19922-.1211.20703-.08984.21875-.05468.23047-.01954m4.95312 0l.38672.02735.35547.08594.32422.1328.28125.1875.22656.23829.17578.28516.10938.33203.03515.3789-.01953.27344-.0586.23438-.08593.19921-.11328.17188-.1289.14453-.14063.1211-.28516.1953.23047.1211.21094.14453.17968.17188.15625.19531.1211.21094.08984.23047.0586.24609.01953.2539-.03516.3086-.10547.32813-.17187.32421-.23828.3086-.3086.26953-.3711.21094-.21484.08203-.22656.0625-.2461.03906-.2578.01172-.26172-.01172-.2422-.03906-.22265-.0625-.20703-.08203-.35547-.21094-.29297-.26953-.22265-.3086-.15625-.32421-.09375-.32813-.03125-.3086h.83594l.02734.25391.07812.23438.1211.21484.16015.1836.19141.15234.22266.11328.23828.07422.25781.02344.2539-.02344.23829-.07422.22265-.11328.19141-.15235.16016-.18359.12109-.21484.07813-.23438.02734-.2539-.02734-.25391-.07813-.23438-.1211-.21093-.16015-.1836-.1914-.15234-.22266-.11719-.23828-.07031-.25391-.02734-.25781.02734-.23828.07031-.22266.11719-.1914.15234-.16016.1836-.1211.21094-.07812.23437-.02734.2539h-.83594l.01953-.2539.0586-.23828.08984-.22266.125-.21094.15234-.1914.17969-.17188.21094-.15234.23046-.13281-.28515-.19531-.14063-.1211-.1289-.14453-.11328-.17188-.08594-.19921-.0586-.23438-.01953-.27344h.78516l.02344.21485.0664.1914.10547.16407.13672.14062.16406.10938.1875.08203.20703.05078.22266.01953.21875-.01953.20703-.05078.1875-.08203.16406-.10938.14063-.14062.10156-.16407.0664-.1914.02345-.21485-.02344-.21484-.0664-.1914-.10157-.16798-.14063-.13671-.16406-.11329-.1875-.08203-.20703-.05078-.21875-.01562-.22266.01562-.20703.05078-.1875.08204-.16406.11328-.13672.13671-.10547.16797-.0664.19141-.02344.21484h-.78516l.03516-.3789.10937-.33203.17578-.28516.22657-.23828.28125-.1875.32422-.13281.35547-.08594.39062-.02735"/><path fill="#ffffe0" fill-rule="evenodd" d="M328.42969 418.26953h22.17969v-10.1914h-22.1797v10.1914"/><path fill-rule="evenodd" d="M331.92969 409.91016h.50781v6.29687h-.78516v-4.49219h-1.39062v-.55468l.5586-.0625.2539-.0547.23047-.08983.20312-.14063.17188-.21094.14453-.29687.10547-.39453m4.8125 0l.23047.01953.21875.05469.20703.08984.19531.1211.1836.14843.17187.17578.30469.42188.24218.49218.1797.54688.10937.57812.03906.59375-.03906.59375-.10938.58204-.17969.55468-.24218.5-.3047.42969-.17187.17969-.18359.15234-.19531.125-.20703.08985-.21875.05859-.23047.01953-.23047-.01953-.21875-.0586-.20703-.08984-.19531-.125-.1836-.15234-.17187-.17969-.3047-.42969-.24218-.5-.17969-.55469-.10937-.58203-.03906-.59375h.83203l.02734.5625.08203.50391.1289.44531.16017.375.1914.30078.21094.21875.22265.13672.22657.04688.22656-.04688.22266-.13672.21093-.21875.19141-.30078.16016-.375.1289-.44531.07813-.5039.03125-.5625-.03125-.5625-.07813-.5-.1289-.4375-.16016-.36329-.1914-.29297-.21094-.21484-.22266-.13281-.22656-.04297-.22656.04297-.22266.13281-.21094.21484-.1914.29297-.16016.36328-.1289.4375-.08204.5-.02734.5625h-.83203l.03906-.59375.10937-.57812.1797-.54688.24218-.49218.30469-.42188.17187-.17578.1836-.14844.1953-.1211.20704-.08983.21875-.0547.23047-.01952m4.95312 0l.23047.01953.21875.05469.20703.08984.19531.1211.1836.14843.17187.17578.30079.42188.24609.49218.17969.54688.10937.57812.03906.59375-.03906.59375-.10937.58204-.1797.55468-.24608.5-.30079.42969-.17187.17969-.1836.15234-.1953.125-.20704.08985-.21875.05859-.23047.01953-.23047-.01953-.21875-.0586-.20703-.08984-.19531-.125-.1875-.15234-.16797-.17969-.30469-.42969-.24218-.5-.1797-.55469-.11327-.58203-.03516-.59375h.83203l.02735.5625.08203.50391.125.44531.16406.375.1914.30078.21094.21875.22266.13672.22656.04688.22656-.04688.22266-.13672.21094-.21875.1914-.30078.16016-.375.125-.44531.08203-.5039.03125-.5625-.03125-.5625-.08203-.5-.125-.4375-.16015-.36329-.19141-.29297-.21094-.21484-.22265-.13281-.22657-.04297-.22656.04297-.22266.13281-.21093.21484-.19141.29297-.16406.36328-.125.4375-.08203.5-.02735.5625h-.83203l.03516-.59375.11328-.57812.17969-.54688.24218-.49218.3047-.42188.16796-.17578.1875-.14844.19531-.1211.20703-.08983.21875-.0547.23047-.01952m4.95313 0l.38672.02734.35937.08594.32031.13281.28125.1875.23047.23828.17188.28516.10937.33203.03516.3789-.01953.27344-.0586.23438-.08593.19922-.11329.17187-.1289.14453-.13672.1211-.28906.1953.23437.1211.20703.14453.1797.17188.15624.19531.1211.21094.08984.23047.0586.2461.01952.2539-.03515.3125-.10547.32422-.17188.32421-.23828.3086-.3086.26953-.37108.21484-.21094.07813-.23047.0625-.24219.03906-.26172.01172-.26172-.01172-.24218-.03906-.22266-.0625-.20313-.07813-.35937-.21484-.29297-.26953-.22265-.3086-.15625-.32421-.09375-.32422-.02735-.3125h.83203l.02735.2539.07812.23438.1211.21484.16015.1836.19531.15234.21875.11328.23829.07422.2578.02344.25391-.02344.23829-.07422.22265-.11328.1914-.15234.16016-.1836.125-.21484.07422-.23438.02735-.2539-.02735-.25-.07422-.23828-.125-.21094-.16015-.1836-.1914-.15234-.22267-.11719-.23828-.0703-.2539-.02735-.25781.02734-.23829.07031-.21875.1172-.1953.15233-.16017.1836-.12109.21094-.07812.23828-.02735.25h-.83203l.01953-.2539.05469-.23829.08984-.22266.125-.21093.15235-.1875.1836-.17579.20702-.15234.23047-.13281-.28515-.19531-.14063-.1211-.1289-.14453-.11329-.17187-.08594-.19922-.05859-.23438-.01953-.27344h.78516l.02343.21485.06641.1914.10547.16407.13672.14062.16406.11328.1875.07813.20703.05078.22266.01953.21875-.01953.20703-.05078.1875-.07813.16797-.11328.13672-.14062.10156-.16406.0664-.19141.02344-.21485-.02344-.21484-.0664-.1914-.10156-.16797-.13672-.13672-.16797-.11328-.1875-.08204-.20703-.05078-.21875-.01562-.22266.01562-.20703.05079-.1875.08203-.16406.11328-.13672.13672-.10547.16796-.0664.19141-.02344.21485H344.75l.03906-.37891.10547-.33203.17578-.28516.23047-.23828.27735-.1875.32421-.13281.35938-.08594.38672-.02734"/><path fill="#ffffe0" fill-rule="evenodd" d="M408.32031 424.84766H430.5v-10.19532h-22.17969v10.19532"/><path fill-rule="evenodd" d="M411.82031 416.48828h.50781v6.29297h-.78906v-4.48828h-1.38672v-.55469l.5586-.0664.2539-.0547.23047-.08984.20313-.14062.17187-.21094.14063-.29297.10937-.39453m4.8125 0l.23047.01953.21875.05469.20703.08984.19531.1211.1836.14844.17187.17578.30079.41796.24609.4961.17969.54297.10937.58203.03906.58984-.03906.59375-.10937.58203-.1797.5547-.24608.5039-.30079.42578-.17187.17969-.1836.15625-.1953.12109-.20704.09375-.21875.05469-.23047.01953-.23047-.01953-.21875-.05469-.20703-.09375-.19531-.1211-.1875-.15624-.16797-.1797-.30469-.42577-.24218-.5039-.1797-.5547-.11327-.58203-.03516-.59375h.83203l.02735.5625.08203.50781.1289.44141.16016.375.1914.30078.21094.22266.22266.13672.22656.04687.22656-.04687.22266-.13672.21094-.22266.1914-.30078.16016-.375.125-.4414.08203-.50782.03125-.5625-.03125-.5625-.08203-.5-.125-.4336-.16015-.36718-.19141-.29297-.21094-.21094-.22265-.1328-.22657-.04688-.22656.04687-.22266.13281-.21093.21094-.19141.29297-.16016.36719-.1289.4336-.08203.5-.02735.5625h-.83203l.03516-.58985.11328-.58203.17969-.54297.24218-.4961.3047-.41796.16796-.17579.1875-.14843.19531-.1211.20703-.08984.21875-.05469.23047-.01953m4.95313 0l.22656.01953.22266.05469.20703.08984.19531.1211.1836.14844.17187.17578.30078.41796.2461.4961.17968.54297.10938.58203.03906.58984-.03906.59375-.10938.58203-.17969.5547-.24609.5039-.30078.42578-.17188.17969-.18359.15625-.19531.12109-.20703.09375-.22266.05469-.22656.01953-.23047-.01953-.21875-.05469-.20703-.09375-.19922-.1211-.1836-.15624-.17187-.1797-.30078-.42577-.24219-.5039-.17969-.5547-.11328-.58203-.03515-.59375h.83203l.02734.5625.08203.50781.125.44141.16406.375.19141.30078.21094.22266.22265.13672.22657.04687.22656-.04687.22266-.13672.21093-.22266.1875-.30078.16407-.375.125-.4414.08203-.50782.03125-.5625-.03125-.5625-.08203-.5-.125-.4336-.16407-.36718-.1875-.29297-.21093-.21094-.22266-.1328-.22656-.04688-.22656.04687-.22266.13281-.21094.21094-.1914.29297-.16407.36719-.125.4336-.08203.5-.02734.5625h-.83203l.03515-.58985.11328-.58203.1797-.54297.24218-.4961.30078-.41796.17188-.17579.18359-.14843.19922-.1211.20703-.08984.21875-.05469.23047-.01953m4.95312 0l.38672.02735.35938.08203.3203.13671.28126.1875.23047.23438.17187.28906.10938.33203.03515.375-.01953.27344-.0586.23828-.08593.19922-.11328.16797-.1289.14453-.14063.1211-.28516.19921.23047.1172.21094.14843.17969.17187.15625.19141.12109.21484.08984.23047.0586.24219.01953.25781-.03516.3086-.10547.32421-.17187.32813-.23828.30469-.3086.26953-.37109.21484-.21094.08203-.23047.0586-.24218.03906-.26172.01172-.26172-.01172-.24219-.03906-.22265-.0586-.20704-.08203-.35546-.21484-.29297-.26953-.22266-.30469-.15625-.32813-.09375-.32421-.02734-.3086h.83203l.02734.25.07813.23828.12109.21094.16016.1836.1953.15234.21876.11719.23828.0703.25781.02735.2539-.02734.23829-.07031.22266-.1172.1914-.15233.16016-.1836.125-.21094.07422-.23828.02734-.25-.02734-.2539-.07422-.23438-.125-.21484-.16016-.1836-.1914-.15234-.22266-.11328-.23828-.07422-.2539-.02344-.25782.02344-.23828.07422-.21875.11328-.19531.15234-.16016.1836-.1211.21484-.07812.23438-.02734.2539h-.83203l.01562-.2539.0586-.2422.08984-.22265.125-.20703.15234-.1914.1836-.17188.20703-.15234.23047-.13282-.28516-.19921-.14063-.1211-.1289-.14453-.11328-.16797-.08594-.19922-.0586-.23828-.01952-.27344h.78515l.02344.21485.0664.1914.10547.16797.13672.13672.16406.11328.1875.08203.20704.05079.22265.01562.21875-.01563.20703-.05078.1875-.08203.16797-.11328.13672-.13672.10156-.16797.06641-.1914.02344-.21485-.02344-.21484-.0664-.1914-.10157-.16407-.13672-.14062-.16797-.11329-.1875-.07812-.20703-.05078-.21875-.01953-.22265.01953-.20704.05078-.1875.07813-.16406.11328-.13672.14062-.10546.16406-.06641.19141-.02344.21484h-.78515l.03906-.375.10547-.33203.17578-.28906.23047-.23438.27734-.1875.32422-.13671.35547-.08204.39062-.02734"/><path fill="#ffffe0" fill-rule="evenodd" d="M323.99219 332.46484h22.17969v-10.1914h-22.1797v10.1914"/><path fill-rule="evenodd" d="M327.48828 324.10547H328v6.29297h-.78906v-4.48828h-1.38672v-.5547l.5586-.0664.2539-.05078.22656-.08984.20703-.14453.17188-.20704.14062-.29687.10547-.39453m4.8164 0l.22657.01953.21875.05469.21094.08984.19531.1211.1836.14843.17187.17578.30078.42188.2461.49219.17968.54687.10938.57813.03906.58984-.03906.59375-.10938.58594-.17969.55469-.24609.5-.30078.42968-.17188.17969-.18359.15234-.19531.125-.21094.08985-.21875.0586-.22656.01952-.23047-.01953-.21875-.0586-.20703-.08984-.19922-.125-.1836-.15234-.17187-.17969-.30078-.42969-.24219-.5-.17969-.55468-.11328-.58594-.03515-.59375h.83203l.02734.5664.08203.50391.125.4414.16406.375.19141.30079.21094.22266.22265.13671.22657.04688.22656-.04688.22266-.13671.21093-.22266.1875-.30078.16407-.375.125-.4414.08203-.50391.03125-.56641-.03125-.5586-.08203-.5-.125-.4375-.16407-.36327-.1875-.29297-.21093-.21485-.22266-.13281-.22656-.04297-.22656.04297-.22266.13281-.21094.21485-.1914.29296-.16407.36329-.125.4375-.08203.5-.02734.55859h-.83203l.03515-.58984.11328-.57813.1797-.54687.24218-.4922.30078-.42187.17188-.17578.18359-.14844.19922-.12109.20703-.08984.21875-.05469.23047-.01953m5.08984 0h.50781v6.29297h-.78515v-4.48828h-1.38672v-.5547l.5586-.0664.25-.05078.23046-.08984.20313-.14453.17578-.20704.14062-.29687.10547-.39453m2.82422 2.17578h.78516l.01953-.3164.0625-.28516.09765-.2539.14063-.21485.17969-.17578.22265-.12891.26563-.07813.3086-.02734.23827.01953.22266.0625.20703.10156.17578.14063.14844.17188.11328.20703.07422.23437.02344.26563-.01954.26953-.0664.22265-.10938.19141-.15625.17188-.20312.16406-.2461.16406-.6328.39063-.53907.3125-.4375.3164-.34375.32422-.26563.33594-.1914.35156-.125.3711-.0664.39062-.02344.41797h4.21484v-.73828h-3.33203l.08203-.28516.11328-.23438.14844-.20312.1875-.17969.23047-.17187.27734-.17578.71875-.41797.41406-.20313.34766-.23047.27734-.2539.22266-.26563.16406-.27734.10938-.28516.0625-.28515.02343-.28125-.04296-.38282-.1211-.34765-.1875-.3086-.2539-.26171-.30079-.21485-.34375-.15625-.3828-.09765-.40626-.03516-.4336.03125-.39843.10156-.35547.16406-.30469.23438-.25.30469-.18359.375-.11719.4453-.03906.51954"/></g></defs><use xlink:href="#ag"/></svg>