<svg xmlns="http://www.w3.org/2000/svg" role="img" xmlns:xlink="http://www.w3.org/1999/xlink" viewBox="142.45 309.95 326.84 171.84"><defs><clipPath id="a"><path d="M144 311.67188h1v168.65625h-1zm0 0"/></clipPath><clipPath id="b"><path d="M144 311.67188h324v168.65625H144zm0 0"/></clipPath><clipPath id="c"><path d="M387 479h3v1.32813h-3zm0 0"/></clipPath><clipPath id="d"><path d="M467 311.67188h1v168.65625h-1zm0 0"/></clipPath><clipPath id="e"><path d="M144 479h4v1.32813h-4zm0 0"/></clipPath><clipPath id="f"><path d="M146 480h2v.32813h-2zm0 0"/></clipPath><clipPath id="g"><path d="M153 479h9v1.32813h-9zm0 0"/></clipPath><clipPath id="h"><path d="M159 479h2v1.32813h-2zm0 0"/></clipPath><clipPath id="i"><path d="M166 479h9v1.32813h-9zm0 0"/></clipPath><clipPath id="j"><path d="M172 480h2v.32813h-2zm0 0"/></clipPath><clipPath id="k"><path d="M180 479h8v1.32813h-8zm0 0"/></clipPath><clipPath id="l"><path d="M187 480h2v.32813h-2zm0 0"/></clipPath><clipPath id="m"><path d="M193 479h8v1.32813h-8zm0 0"/></clipPath><clipPath id="n"><path d="M200 480h2v.32813h-2zm0 0"/></clipPath><clipPath id="o"><path d="M206 480h9v.32813h-9zm0 0"/></clipPath><clipPath id="p"><path d="M213 480h3v.32813h-3zm0 0"/></clipPath><clipPath id="q"><path d="M220 480h8v.32813h-8zm0 0"/></clipPath><clipPath id="r"><path d="M226 480h2v.32813h-2zm0 0"/></clipPath><clipPath id="s"><path d="M233 479h8v1.32813h-8zm0 0"/></clipPath><clipPath id="t"><path d="M239 480h2v.32813h-2zm0 0"/></clipPath><clipPath id="u"><path d="M247 478h7v2.32813h-7zm0 0"/></clipPath><clipPath id="v"><path d="M260 478h8v2.32813h-8zm0 0"/></clipPath><clipPath id="w"><path d="M273 478h8v2.32813h-8zm0 0"/></clipPath><clipPath id="x"><path d="M287 478h7v2.32813h-7zm0 0"/></clipPath><clipPath id="y"><path d="M300 479h8v1.32813h-8zm0 0"/></clipPath><clipPath id="z"><path d="M305 480h2v.32813h-2zm0 0"/></clipPath><clipPath id="A"><path d="M313 479h8v1.32813h-8zm0 0"/></clipPath><clipPath id="B"><path d="M319 479h2v1.32813h-2zm0 0"/></clipPath><clipPath id="C"><path d="M326 479h9v1.32813h-9zm0 0"/></clipPath><clipPath id="D"><path d="M333 479h3v1.32813h-3zm0 0"/></clipPath><clipPath id="E"><path d="M340 478h8v2.32813h-8zm0 0"/></clipPath><clipPath id="F"><path d="M353 479h8v1.32813h-8zm0 0"/></clipPath><clipPath id="G"><path d="M359 480h2v.32813h-2zm0 0"/></clipPath><clipPath id="H"><path d="M368 476h5v4.32813h-5zm0 0"/></clipPath><clipPath id="I"><path d="M382 476h4v4.32813h-4zm0 0"/></clipPath><clipPath id="J"><path d="M395 476h4v4.32813h-4zm0 0"/></clipPath><clipPath id="K"><path d="M408 476h4v4.32813h-4zm0 0"/></clipPath><clipPath id="L"><path d="M422 476h3v4.32813h-3zm0 0"/></clipPath><clipPath id="M"><path d="M435 476h4v4.32813h-4zm0 0"/></clipPath><clipPath id="N"><path d="M448 477h5v3.32813h-5zm0 0"/></clipPath><clipPath id="O"><path d="M461 477h5v3.32813h-5zm0 0"/></clipPath><clipPath id="P"><path d="M144 466h4v2h-4zm0 0"/></clipPath><clipPath id="Q"><path d="M144 453h4v2h-4zm0 0"/></clipPath><clipPath id="R"><path d="M144 440h4v1h-4zm0 0"/></clipPath><clipPath id="S"><path d="M144 426h4v2h-4zm0 0"/></clipPath><clipPath id="T"><path d="M144 412h4v4h-4zm0 0"/></clipPath><clipPath id="U"><path d="M144 398h4v5h-4zm0 0"/></clipPath><clipPath id="V"><path d="M466 400h2v3h-2zm0 0"/></clipPath><clipPath id="W"><path d="M144 384h3v6h-3zm0 0"/></clipPath><clipPath id="X"><path d="M144 371h4v6h-4zm0 0"/></clipPath><clipPath id="Y"><path d="M466 374h2v3h-2zm0 0"/></clipPath><clipPath id="Z"><path d="M144 356h2v9h-2zm0 0"/></clipPath><clipPath id="aa"><path d="M466 359h2v4h-2zm0 0"/></clipPath><clipPath id="ab"><path d="M144 343h1v8h-1zm0 0"/></clipPath><clipPath id="ac"><path d="M144 342h2v2h-2zm0 0"/></clipPath><clipPath id="ad"><path d="M466 346h2v3h-2zm0 0"/></clipPath><clipPath id="ae"><path d="M144 331h4v5h-4zm0 0"/></clipPath><clipPath id="af"><path d="M466 332h2v4h-2zm0 0"/></clipPath><clipPath id="ag"><path d="M144 317h3v7h-3zm0 0"/></clipPath><clipPath id="ah"><path d="M466 319h2v3h-2zm0 0"/></clipPath><g id="ai" clip-path="url(#clip1)"><path fill="#fff" fill-opacity="0" fill-rule="evenodd" d="M0 0h1000v1000H0zm0 0"/><path fill="#d3d3d3" fill-opacity="0" fill-rule="evenodd" d="M162.15234 355.86719l-.23437.29297.0586.23437.11718.17188.17578.23437.29297.34766.11328.0586.11719-.17188.0586-.23438.17577-.17578.46485-.17578h.69922l.23437.29297.28906.8164.0586.17579.17578.23046.35156.23438.69922.69922.17188.17578.23437.34765.23438.41016.28906.58203.41015.46485.23047.23437.23438.17578.11719.23047.17578.29297.17187 1.16406v.23438l.0586.28906.05859.11719.11719.11719.34765.41015.11719.17188.17578.17578.17578.23437.11719.17188.17188.35156.05859.23438.23437.40625.23438-.0586-.17578.17578-.0586.92969h-.58203l-.23437-.11328-.34766.11328-.11719.11719-.05859.29297-.0586.17578-.11718.17187-.46484.29297-.0586.23438-.0586.11328v.64453l.0586.17187v.41016l.0586.0586v.40624l.05859.40625.11719.17579.05859.05859.23047.64062-.0586.29297v.69922l-.05859.58203v.23438l-.0586.23047-.05468.35156v1.92187l.05469.1172h.42578l-.36719.11718-.02344.35156.89063 1.16797 1.74219.53906 1.33984.35938v.53906l.08984.8086.53516.71484 1.51953.26953.89063-.08594.08984 1.16406.53516.1797 1.16015-.1797 2.05469-.98437 1.16016-.36328 1.8789-.17578 1.69531-.1797-.17968.71876-1.51563.08594-1.25.08984-.80469.26953-1.07421.8086.26953.71875.53515.89843-.17968.625-.26563.8086.26563 1.07812.625.89844.80468.17969 1.25-.1797-.26562.72267.09766.5039.05468.29297v.17188l.0586.29296v.40625l.17578.1172.35156.11718h.40625l.29297-.17578.11328-.11719.0586-.11719.11718-.23047.0586-.17578.35156-.46484.23047-.17578.17578-.0586.17578.0586.0586.17578.11718.98828.05469.46875.0586.17188.11718.23437.17578.0586.8164.05859h.28907l.11719.23437.05859.40625.0586.35156v1.10547l.11718.29297.11719.34766.28906.69922.17578.35156.58203.7539.35157.17579.17187.0586.46875.23437.64063.46484.34765.23438.29297.17578.29297.05468.23047.0625.8164.34766.29297.17578.11328.17188.35157.35156.11719.17578.52343.64063v.28906l.0586.35156v.34766l.05859.35156.0586.28906.11718.0586.17188.05859h.17578l.58203.23437.17578.1172.17578.28905.17578.23438.11328.23437.29297.23047.11719.11719v.41016l.0586.05468.28906.23438.23437.11719.0586.11718.11718.17188.0586.11719.23047.23437.05859.17578.23437.0586.1172.05859-.1172.11328-.05859.11719v.11719l-.11719.29296-.11719.28907v.58203l.17579.11719.11718.05859.0586.11719.11719.11719.11328.05859.17578.34765.0586.35157.05858.40625v.17578l-.05859.17578-.11719.69922v.17187l.1172.17579.29296.29296h.40625l.17578.1172.11719.17187.11719.29296v.23438h-.52735l-.23047-.23438h-.23437l-.17578.0586-.0586.69922.0586.34765.11719.17579.17578.41015.11718.23047.28907.46875.17578.05469h.52344l.23437.0586.75781.64062.0586.29296v.23438l.05859.0586.23047.34765v.35156l-.11719.17188v.29297l.29297.28906.29297.17578.17187.0586.29297.17577.29297.1172.58203.40624.28906.23438.29297.17578.21875.16015.01563.01172.23047.17579.64062.52343.17578.23438.1172.17578.17577.17578.11328.17188v.64062l.1172.17578.46874.11719.58203.11719.23438.05859.23047.11328.29297.11719.11328.0586.58593.35156.28907.17187.17578.0625.17578.05469.17578.0586.69922.35155.28906.17579.23438.05468.28906.17578.23437.1172.64063.40624.29297.11719.17187.0586.23438.05859.41015.05859.23047.0586.23438.11718.0586.17188-.41017.17578.46875.0586.0586.29296.11328.23438.17578.05468.23438.0586.17578.05859.40625.11719.64062.23437.11719.17188.0586.23437v.17578l-.0586.1172-.0586.40624.23438.23438.11719.05859.34766.11719.64062.23047.17578.11718.28906.1172.17578.17577.23438.46485.58203 1.10546.17578.17579.34766.17578.17578.11719.35156.11718 1.04688.52344.23437.0586.46485.11327.29297.0586.46484.17578.75781.58203.23438.23438.34765.46484.17578.17578.28907.23438.8164.69921.29297.17579.28906.28906.29297.17578.29297.28906.69531.64063.17578.17578.29297.23437.28907.23438.46875.28906.64062.58203.34766.23438.23437.29297.34766.34765.35156.46485.9336.99218.34765.40625.11719.17579.23437.05859.11328.11719.64454.17578.23047.11328.23437.0586.29297.17577.23047.1172.9336.69921.40624.40625.23438.17578.40625.17578.23437.11719.8164.34766.34766.23437.23438.11719.29297.28906.23047.11719.7578.35156.35157.17188.23047.05859.29297.11719.23437.0586.8711.17577h.8164l.46875.23047.17188.0586.875.69921.46484.1172.29297.05858.17578.0586.23047.0586.46875.05859.34766.05859.35156.0586.40625.05859h.29297l.17187.0586v.23046l.17578.17578h.29297l.34766.0586.35156.05859.69922.11719h.64063l.46484-.23438.29297-.17578.17187-.11719.41016-.17187.28906-.17578.9336-.46485.46875-.29297.52343-.29296.46485-.17188.46484-.17578 1.05078-.46485.28906-.11718.41016-.11719.28906-.11719.52735-.17578 1.51562-.69922.58203-.34765.28907-.0586.29297-.0586.34765-.11718.875-.23047.35156-.11719h.11329l.23437-.05859.875-.23437.23438-.0586h.8125l.35156-.0586.8164-.11718.17188-.0586.35156-.05468.29297-.0586.23047-.05859.8164-.17578.17579-.0586h.34765l.23438-.05859.46484-.11718.75781-.17188.23438-.0586h.34765l.41016-.11718.28906-.0586 1.28516-.05859h.28906l.41016-.0586.23047-.05858h.17578l.875-.1172h.40625l.41015-.11718h.34766l.35156-.11328.8711-.0586h1.75l1.04687.28907.41016.11719.28906.11718.35156.11719.28907.11719 1.05078.17187.28906.0586h.29297l.29297.05859.17187.0586.41016.05859.17187.0586.1172.05858h.11718l.11719.0586.35156.0586h.11328l.41016.0664 1.92187.39453 1.92578.39453 1.51953.44922 1.69532.71875 2.14453.80469 1.60547-.71875 1.42968-.80469 1.16016-1.07813 1.25-.44921 3.03516-.71875 1.875-.35938 2.14453-1.34765 2.23437-1.25391 2.5-1.25781 1.69531-.44922 1.78516-.17969 1.16016-.26953.625.53906 1.33984-.26953.71485-.98828.98437-1.34375.44531-.17969.80469-.35937 1.875-.53907 1.78516-.44921 1.25-.26954 1.16015-.08984 1.69922-.08984 1.96094-.26954 1.25-.08984h.53906l.625-.08984h.89063l2.14453-.17969 2.41015-.17969 2.58985-.08984 1.69531.17969 1.60938.08984 1.42968.35938 1.16016.71875 1.875.98828 1.16015 1.52734.26563.71484.6289.08985.35548.89844.53515.53906.53516 1.52734 1.07422.35938h.53515l-.80469.53515.08985 1.70703.71484 2.69532.89063.80468.89453.98829.71484 1.2578 1.78516.53907 1.51953-.17969.35547 1.34375 1.60937-.80469.98047-.53906.26953.26953.31641-.21484.21875-.14453.80078.44922.44922-.35938h.35547l.53515-.26953.53907-.71875.53515-.26953.625-.98828 1.16016.44922.83984.3711 1.39454.61718 1.6953-.17969h1.60548l1.78515.08985.17969-1.70704.53516-1.34375.80468.26954.4922.84765.40233.40625-.08984.53906v.35938l.71485.44922.71093-.26953h1.42969l.35938.98828.4453 1.25781.71485 1.34375 1.25.6289 1.69531.62891.71485-.17969.17969-.53906.98046-.08984.44922.35937.08594 1.25782-.26563.6289-.53515.17969v.53906l.71484.98438.26563.53906.98437.98828.80078 1.07813-.26562.35937-.08985.89844-.625 2.33203-.35546 2.0664-.08985 1.79298-.17969.71875-.08984.53906v1.4375l-.98047 1.88281-.35937 1.70703-.53516.89844-.80469 1.16797-.26562.53906 2.05469 1.2539.08593.35938-.35546.53906-.08985-.17968v.80859l.08985 1.4375-.44532.71484-1.07422.09375-.26562.71485.53515.89844.8047.71875 1.16015.80859 1.33984.26953.44531.35938-.35546.44921-1.78907-.08984-1.25-.44922-.71484-.71875-.625-.08984-.17578 3.58984-.1875 1.3086h89.35937V311.70313h-55.26953v49.08203l.76172.125 3.28906.54296 2.02344 2.83594v2.7539l2.35156.33204 2.34766.33203h4.05078l-1.3789 4.16016-2.02344.70703-2.02344.70312-.54297.34375-2.59375 1.6172-.1875.11718-2.02344-2.07813-.73046-2.74218-2.67188-2.07813-1.375-3.5-.0664-.08203-1.95704-2.67188 2.75-1.41796v-49.08204H294.42187v91.41407l.1172.03125.1328.01172.07422.07421.10547.04688.08985.0586.08593.05859.08985.0586.29687.29687.0586.08984.03125.11719.02734.11719.01563.13671-.03125.1172-.0586.08983-.0586.08594-.04296.10547-.04688.10156-.02734.1211v.14453l.17578.26953.14844.14844.07422.08594.07422.07421.04296.10547.0625.08985.0586.08593.04297.10547.0586.08985.04687.10156.04296.10547.0586.08594.11719.17968.07421.07422.0625.08594.0586.08984.04297.10547.0586.08985.05858.08593.0625.08985.0586.08984.04297.10156.11719.17969.07421.07422.0586.08594.07422.07421.08984.0586.10547.04687h.14844l.1328-.01562.13282.01562.10156-.04687.07422-.07422.04688-.10156-.01563-.13281v-.14844l-.04687-.10547-.02735-.11719-.04687-.10156-.02735-.1211-.04296-.10156-.0625-.08984-.04297-.10156-.04297-.10547-.03125-.11719-.01563-.13281-.01171-.13672.08593-.0586.0586-.08593.12109-.03125.04297.10547.01562.1328v.1172l.0586.10156.0586.08984.08983.0586.14844.14843.0586.08985.04296.10547-.01171.10156.08593.0586.10547.04687.08594.0586.08984.05858.07422.07422-.11719.02735-.10546.04687-.08594.0586-.07422.07421-.0586.08985-.0625.08594-.02734.12109-.04687.10156-.04297.10547-.03125.11719-.01172.13281-.01563.13281v.14844l.02735.11719.04687.10547.04297.10156.0586.08984.07421.07422.08985.0586.07422.07421.08984.0586.0586.08984.04296.10547.04688.10156.11719.03125.1328.01563h.14845l.11718-.03125.10547.04297.04297.10547.04688.10156.02734.1211L299.5 410l.02734.11719.03125.1211.02735.11718.10547.04297.10156.04687.13281-.01562.14844.14844.0625.08593.07422.07422.07031.07422.08984.0625.10547.04297.10156.04297.1172.03125.13671.01562.11719-.03125.07422-.07422.02734-.11718-.01172-.13282-.03125-.12109-.02734-.11719.04297-.10547h.11719l.08984.0625.11719.02735h.14843l.13282.01562h.14843l.13282.01563.1328-.01563h.14845l.1328-.01562.13282-.01172.13672.01172.11719-.02735.13281-.01562.1914-.0586-.05859.17579-.01562.1328-.02735.1211-.01562.13281-.0586.08594-.1328.01563-.10548.04687-.10546.04297-.1172.03125-.11718.02735-.26563.03125h-.14843l-.13281.01562-.07422.07422.05859.08594.14844.14843.11719.1797.07421.0703.08985.0625.08984.0586.08594.0586.08984.05858.10156.04297.10547.0625.10547.04297.08594.0586.10547.04687.10156.04297.17969.11719.0586.08984-.04298.10156-.04687.10547.01562.13281.22266.22266.0586.08985.04296.10156.03125.1211.04297.10155.01563.13282.03125.11718.01171.13672.03125.11719.14844.14844.10156.04297.10547.04296.1172.03125.1328.01563.13672.01563h.11719l.11719-.03125.08984-.0586.04297-.10547.04688-.10156.04296-.10547.03125-.11719.01172-.1328v-.14845l-.01172-.1328-.01562-.13282-.03125-.11719-.04297-.10547-.04688-.10547-.04296-.10156-.04297-.10547-.01563-.13281.01563-.13281.02734-.11719.03125-.11719.02735-.1211.04687-.10155.08984-.0586.08594-.0625.07422-.07422.08984-.05859.22266-.22266.0586-.08593.07421-.07422.11719-.17969.0586-.08594v-.14844l-.07423-.07421-.10156-.04688-.10547-.04297-.10156-.04297-.0586-.08984-.04687-.10547-.02734-.11719.08984-.05859.11719-.03125.10156-.04297.17969-.11719.14844-.14843.01172-.13282-.01172-.10546-.08985-.0586-.1328.01563h-.14845l-.1328.01562-.13282-.01562-.1211-.03125-.08593-.0586-.07422-.07422-.0586-.08984-.0625-.08594-.11718-.17969-.0586-.08593.03125-.1211.08594-.05859.1211-.03125.05859-.08594v-.1211l-.03125-.11718-.0586-.08984-.05859-.08594-.04687-.10547-.02735-.11719-.01562-.1328.0586-.08985.07421-.07422.08984-.0586.1172-.17968.07421-.07422.0586-.08594.14843-.14844.1211-.03125.1328-.01562.13282.01562.07422.07422.04297.10547.01562.13281-.03125.1172-.11719.03124-.1328.01172-.14844.14844-.04297.10547-.04688.10156-.02734.1211-.03125.11718v.14844l.03125.11719.04297.10546.05859.08985.07422.07031.07422.07422.11719.03125.12109.02734.11719-.02734.1328-.01563h.1172l.08984.0586.07422.07422.04687.10546.0586.08594.10156.04688.13281.01562.10547.04297.08594.0586-.01172.10546-.07422.07422-.17969.11719-.05859.08984-.08984.0586-.07032.07422-.07421.07421-.0625.08985-.02735.11719-.01562.1328.01562.13282-.01562.13281v.14844l.01562.13281.02735.1172.03125.12108.07421.07422.08985.0586.08594.0586.08984.05858.11719.03125v.08594l-.10157.04688-.08984.0586-.26563.03124-.11718.02735h-.14844l-.10547.04296-.10156.04688-.0586.08984-.0625.23438-.01171.13281-.03125.1211-.01563.1328v.29298l-.01172.1328.01172.13673.01563.1328.1328.01563.13282.01172.1211.03125.08593.0586.07422.07421.04688.10547.04296.10157.01563.1328v.44532l-.01563.13281v.44532l.03125.26562.02735.11719.01562.13281.03125.11719.08594.21094.03125.26562v.14844l-.03125.11719-.02734.11718-.03125.1211-.02735.11719-.03125.11718-.03125.1211-.01171.1328-.01563.13282.08984.0586.1172-.03125.10155.01562.04688.10547-.03125.26562v.44141l-.04297.10547-.04688.10547-.04296.10156-.04297.10547-.0586.08594-.03125.12109-.04296.11719-.03125.11719-.01563.1328.01563.13282.05859.08984.10547.04688.08594.0586.05859.08593-.01172.13672-.03125.11719-.04297.10156v.44531l-.01562.13281v.14844l-.03125.11719-.04297.10547-.02735.11719-.04687.10546-.04297.10157-.03125.12109-.02734.11719-.03125.13281-.03125.11719-.02735.11719-.04297.10546-.03125.1172-.03125.12108-.01171.13282-.01563.13281v.29688l.02734.11718v.14844l.04688.39844.02734.11719.0586.08984.12109.03125h.14844l.13281-.01563.0586.08985v.11719l-.0586.08984-.08984.0586-.10157.04296-.10546.04688-.08985.05859-.08594.0586-.13671.01562-.1172-.03125-.1328-.01563-.10157.04688-.0625.08594-.01172.13671-.01562.13282-.03125.11719-.02735.11718-.01562.13281-.03125.1211v.29687l.01563.13282.03125.11718v.14844l.01171.13281v.14844l-.02734.11719-.04688.10156-.02734.1211-.03125.11718-.0586.08985-.07421.07421-.10156.04297-.10547.04688-.11719.02734-.1211.03125-.10156-.04687.0586-.08594.10547-.04688.02734-.11718.03125-.11719.02734-.1211.03125-.11718v-.14844l.01563-.13281-.03125-.11719-.04297-.10547-.10547.01563-.07422.07422-.10156.04296-.08984.0625-.07422.07422-.04297.10157-.01563.1328-.03125.1172L304.25 426l-.03125.11719-.02734.11719-.03125.12109-.02735.11719-.03125.11718-.04297.10547-.08984.0586h-.08984l-.1172-.03125-.03124-.08594.01562-.13672-.03125-.11719v-.14844l-.01171-.1328v-.14844l-.0625-.23438-.02735-.1211-.04297-.10156-.04687-.10546-.0586-.08594-.05859-.08985-.04297-.10546-.0625-.08594-.14844-.14844-.0703-.07422-.10548-.04687-.10547-.04297-.10156-.04297-.29687-.29688-.08985-.07421-.08594-.0586-.10546-.04297-.08985-.0625-.08594-.0586-.10546-.04296-.08985-.0586-.08594-.0625-.07421-.0703-.10547-.04688-.08594-.0586-.10547-.04296-.08984-.0625-.10156-.04297-.10547-.04297-.08594-.0586-.10547-.04687-.10547-.04297-.10156-.04687-.08985-.0586-.10156-.04297-.10547-.04296-.08984-.0625-.11719-.02735-.13281-.01562-.13281.01562H299.75l-.13281.01563-.11719-.03125-.08984-.0586-.07422-.07422-.08985-.05859-.10156-.04688h-.14844l-.12109-.02734-.10156-.04297-.07422-.07422-.11719-.17968-.08984-.0586-.10156-.04297-.08985-.0625-.10547-.04296-.08984-.0586-.08594-.0586-.10547-.04687-.0586-.08594-.05858-.08984-.04297-.10547-.04688-.10156-.07422-.07422-.08594-.0586-.07421-.07421-.08985-.0586-.22265-.22265-.04297-.10547-.03125-.26563.10547-.04296h.14453l.10547.04296.07421.07422.08985.0586.08594.0586.10546.04687.08985.05859.14844.14844.0703.07422.14845.14843.0625.08594.07421.07422.08594.0586.07422.07421.08985.0625.08984.0586.08594.05859.26953.17578.10156.04688.10547.04296.10156.04297.04688-.07421.05859-.08594.07422-.07422.07031-.07422.10547.04297.07422.07422.0586.08984.04296.10156.04688.10547.04296.10547.1211.02735.11719-.02735.07421-.08984.04297-.10547.0586-.08985.07422-.07421.10546-.04297.1172-.02735.1328.01172.08985.0586.14844.14843.05859.08985.04297.10547.04687.10156.04297.10547.04297.10156.10547.04688.10547.04296.13281.01563.08594-.0586.0586-.08984.07421-.07422.10547-.04297.11719.02735.10547.04687.10156.04297.10547.04297.10156.04688.17969.11718v.11719l-.01563.13281.01563.13281.01562.13672.0586.08594.10156.04688.1211.02734.11718.03125h.14844l.11719-.03125.05859-.08984.17969-.1172.05859-.08983.07422-.07422.0586-.08594.11718-.17969.17969-.11719.11719.03125.08984.0586.04297.07422-.01563.1328v.1172l.08985.05859h.14843l.13282-.01563.1328-.01171.26563-.03125.10547-.04297.11719-.03125.1211-.02735.07421-.07421.07031-.07422.0625-.08985-.01562-.10547-.04688-.10156-.10156-.04297-.10547-.01562-.11718.02734-.26563.03125h-.14844l-.07421-.07422-.08985-.0586-.11719-.03124-.11718-.02735-.13282-.01562h-.14843l-.13282.01563h-.29687l-.10547-.04688-.14844-.14844-.04297-.10156-.05859-.08984.22266-.22266.08593-.0586.10547-.04296.11719-.03125.13281-.01563.13281.01563.13672.01562.10157.04297.1328-.01172.08985-.0625.10156-.04297.0625-.08984-.04687-.10156-.08984-.0586-.1172-.03125-.10155-.04296-.0586-.08985-.0625-.08984v-.11719l.01563-.13281.10547-.04688.07421-.07031v-.1211l-.08984-.05859-.03125-.11719.08985-.05859.07421-.07422.04297-.10547.0586-.08984.04687-.10156.01563-.13281v-.14844l-.04688-.10547-.04297-.10156-.08984-.0586-.13281-.01562-.10157-.04297-.13671-.01563-.1172-.03125h-.4453l-.13282-.01562-.13281-.01172-.13281-.01563-.11719-.03125h-.14844l-.13281-.01562-.13281-.01172-.26563-.03125-.1211-.04297-.08593-.0586-.07422-.07421v-.14844l.01172-.13281.10547-.04688.10156-.04296.13281-.01563h.15235l.13281-.01562h.29297l.1211.03125.10156.04296.08984.0586.23438.0625.12109-.04688.08984-.05859.10156-.04297.13282-.01562.10547.04296.10156.04688.13281.01172.1211-.02735h.14453l.12109-.03125.11719-.02734.10547-.04687.07421-.07422.08594-.0586.14844-.14843.0586-.08594.04687-.10547.02734-.11719.01563-.10547-.10156-.04296-.08985-.0586-.11719-.03125-.10546-.04297-.08985-.0625-.07422-.08594-.07422-.07421-.10156-.04297-.10547-.04688-.10156-.04297-.0586-.08984-.04687-.10156-.08594-.21094-.0625-.08594-.05859-.08984-.07422-.07422-.08594-.0586h-.26953l-.11719.03126-.08984.05859-.10156.04297-.13281.01562-.10547-.01562-.02735-.11719-.0625-.08984-.11718-.03125-.10157-.04297-.14843-.14844-.03125-.11719-.01563-.10546.07422-.07422.17969-.1172.11719-.02733.11718-.03125.13672.01562.10156.04297.10547.04297.10156.04687.10547.04297.1172.03125.1328.01563.1172.02734.1328.01563.10547-.01563.08985-.0586-.07422-.07421-.10547-.04297-.07422-.07422-.07422-.08984-.14844-.14844-.08593-.0586-.08985-.05859-.07422-.07422-.08984-.0586-.10156-.04687-.1211-.02734-.10156-.04688-.10547-.04296-.11719-.03125-.10156-.04297-.1211-.03125h-.14843l-.11719.03125-.10546.04297-.08594.0625-.17969.11718-.08594.0586-.08984.0586-.10547.04687-.08594.05859-.10547.04297-.10156.04297-.10547.04687-.07422.07422-.05859.08985-.0586.08593-.04687.10547-.0586.08594-.07421.07422-.13281-.01172-.1172-.03125h-.11718l-.07422.07422-.08984.0586-.07422.07421-.08984.0586-.08594.05859-.10547.04687-.10156.04297-.13672.01563-.10156-.04297-.14844-.14844-.10547-.04688h-.08594l-.10547.04688-.10156.04297-.1211.03125-.11718-.03125-.07422-.07422v-.11719l.03125-.1211.07422-.0703.0586-.08985.07421-.07422.11719-.03125.10547-.04296h.29297l.13281-.01563.13672-.01563.10156-.04296.08985-.0586.10156-.04687.08984-.0586.13281-.01171.08985.05859.13281.01172.08984-.0586.08594-.05859.10547-.04297.08984-.0586.08594-.0625.08985-.05859.14843-.14843.0586-.08594.05859-.08985.10547-.04296.13281-.01563.11719.02735.1211.03125.05859-.0586.05859-.08984.03125-.26563.02734-.11719.10547.01172.13281.01563.10157-.04297.08984-.0586.0586-.08984.07421-.07422.0586-.08984.04687-.10156.01172-.13281-.01172-.13282-.04687-.10547-.14844-.14843-.0586-.08985-.05859-.08594-.04297-.10546v-.44532l.01563-.1328v-.14845l.01172-.1328-.0586-.0586-.08984.0586-.10156-.04298-.17969-.11719-.08594-.05859-.0625-.08984-.0586-.08985-.07421-.07421-.08594-.0586-.1211.03125-.10155.01172-.10547.04688-.08594.05859-.10547.04297-.14844.14844-.08984.05859-.08594.0586-.08984.0625-.10547.04296-.13281.01563v-.1211l.10547-.04297.11718-.03125.07422-.0703.04297-.10548v-.14844l-.02734-.11718-.14844-.14844-.13281-.01563h-.14844l-.11719.03125-.10547.04297-.10156.04297-.08984.0625-.11719.02735-.07422-.07422.01172-.13281-.04297-.10157-.04297-.10547-.08984-.05859-.11719.02734-.1211.03125-.11718.03125-.10156.04297-.1211.03125-.10156.04297-.10547.04297-.08984.0586-.10156.01562v-.11719l.01562-.13281-.0586-.08985-.07421.04297-.14844.14844-.0586.08985-.07421.07421-.04688.10547-.04296.10156-.07422.07422-.0586.08985-.07422.07422-.05859.08593-.07422.07422-.08984.0625-.07422.07031-.07422.07422-.10156.01563-.13281.01562-.10547-.04296v-.1211l.14843-.14844.04297-.10156.0586-.08984.04687-.10156.04297-.10547.0586-.08985.03124-.11719.04297-.10156.03125-.1211.02735-.11718.04687-.10547.04297-.10156.04297-.10547.07422-.07031.08984-.0625.08985-.0586.10156-.04296h.29687l.26563-.03125.10547-.04297-.07422-.07422-.11719-.03125-.10547-.04297-.08984-.0586-.10156-.04687-.08985-.0586-.10156-.04296-.10547-.04297-.08984-.0625-.08594-.0586-.10547-.04296-.10156-.04297-.1211-.03125-.11718-.03125-.10157-.04297L297.5 410.25l-.10156-.04297-.08985-.0586-.04296-.10546-.01563-.13281.10156-.04297.13281-.01563.13672.01563.13282-.01563.10156-.04297.0586-.08984.01562-.10547-.08985-.0586-.07421-.07421-.10157-.04297-.08984-.0586-.14844-.14843-.04297-.10547-.01562-.13281v-.29297l-.0586-.08985-.08984-.05859-.07422-.07422-.04297-.10547-.03125-.11718-.0586-.08985-.07421-.07422-.11719-.02734-.07422-.07422-.08984-.0586-.08984-.0625-.08594-.05859-.07422-.07421-.0586-.08594-.04687-.10547-.08594-.0586-.14843-.14843-.19532-.0586-.1328.01563-.10157.04297-.07422.07422-.04688.10156-.04296.10547-.0586.08984-.0586.08594-.29687.29687-.08984.0586h-.08594l-.0625-.08594-.04297-.10547.03125-.11719.0586-.08984.02734-.11719-.01172-.13281-.08984-.0625-.10547.04688-.11719.02734-.11719.03125-.26953.17578-.10156.04688-.11719.02734-.10546.04687-.08985.0586-.10156.04297-.0586-.08594-.04687-.10547.01563-.13281.04687-.10547.07031-.07422.07422-.07031.0586-.08985v-.14843l-.04297-.10547h-.23829l-.10156.04687-.03125.11719-.02734.11719-.03125.1211-.07422.04296-.13281.01563-.07422-.04688-.04297-.10156-.04297-.10547-.04687-.10156-.04297-.10547-.1211.03125-.10156.04297-.13281.01562-.11719.03125-.10547.04297-.08984.0586-.10156.04687-.1211.02734-.13281.01563-.10156-.04297-.0586-.08985-.04687-.10546-.04297-.10157-.04297-.10546v-.1172l.0586-.08984.08593-.05859.17969-.11719.10156-.04687.10547-.04297.10547-.0586.10156-.04296.08985-.0625.10156-.04297.10547-.0586.10156-.04687.08984-.0586.10547-.04296.10156-.04297.08985-.0625.10156-.04297.13672-.01563.11719.03125.10156.04297.1211.03125.10156.04297.10546.04688.10157.04296.10547.04297.10156.04688.10547.04297.10156.04297.10547.04687.08594.0586.10546.04296.1172.03125.10546.04297.10156.04688.08985.0586.10547.04296.10156.04297.10547.04687.11719.02735.10156.04687.1211.02735h.14843l.08594-.0586.01562-.10156.0586-.08984-.02735-.1172-.07422-.07421-.11719-.17969-.07421-.07422-.08985-.07421-.17969-.1172-.08593-.05859-.10547-.04296-.10156-.04688-.26954-.17578-.05859-.08985-.07422-.07421-.0586-.08985-.04296-.10156-.03125-.11719-.01563-.13672v-.5625l-.01171-.1328-.01563-.13282-.03125-.11719-.01562-.13281-.01172-.13281-.03125-.1211-.22266-.22265-.0586-.08594-.01562-.10547.03125-.11719.13281-.01562v-91.41406H172.9922v1.45312l-.0586.23438-.35156 1.05078-.17187.52343-.1172.34766-.17577.41016-.11719.17187-.23438.29297-.23046.0586h-.35157l-.11718.05859-.23047.40625v.29297l.11719.17578.23046.23047.1172.23437.64062.75781.29297.46485.17578.23437.23047.35156.23437.34766.64063.8164.17578.46485.17187.41016.11719.69531.17578.46875.11719 1.39844.0586.46484v.875l.11718 1.04688v4.78125l-.0586.46484-.35156 1.28125-.17578.52344-.11328.41015-.35156.9297L172.93359 336l-.23437.58203-.11719.17578-.17187.34766-.17578.40625-.35157.8164-.0586.29297-.11327.29297-.11719.28906-.0586.17579-.11718.875-.0586.40625-.05859.11718-.0586.17579-.05859.17187-.23047.52734-.11718.17188v.23437l-.11719.23438-.0586.17187-.17577.58594v.28906l-.0586.17579v.29296l-.0586.11329-.05859.52734v.17187l-.05468.23438v2.6211l-.17578.8164-.1172.17578-.17577.23438-.1172.17187-.11327.23438-.58594.93359-.23047.28906-.29297.46485-.17578.23437-.28906.35156-.35156.69922-.11328.23047-.17579.41016-.17578.23046-.40625.52735-.8164.69922-.29297.17187-.28906.23438-.17579.11719-.17578.17578-.52344.40625-.52734.17578-.17187.17578-.23438.05469-.64062.17578h-.75782m12.21094 31.02344l-1.07422.44921.35938.89454 1.25-.71485.44531-.53906-.98047-.08985"/><path fill="#d3d3d3" fill-opacity="0" fill-rule="evenodd" d="M201.50781 416.59766h-.89453l.44922.6289.98047.35938.80469-.08985.4453-.98828-.17577.08985-.71485-.35547-.89453.35547m154.6211 59.0703l-.0586-.52343v-.29297l.11328-.29297.0586-.23046.46875-.46875h.11328l.11719-.11329.11718-.05859h.17579l.23437-.0586h.34766l.23437.0586.11719.0586.23047.17187.0586.17578.11718.58203v.29297l-.11719.17578-.17187.28906-.17579.17579-.52734.52343-.23047.23438-.11719.0586h-.17578l-.11718-.0586-.40625-.29297-.17579-.11719-.11718-.0586-.0586-.11327-.05468-.1172m6.64062-10.95702l-.0586-.17188v-1.10937l.0586-.17188.17578-.0586.17188-.05858h.17578l.23437-.0586.1172.0586.05858.69921-.05859.17188-.11719.17578-.11718.0586-.23438.52343-.11328.0586h-.23438l-.05859-.1172m9.61328-14.39062l-.11719-.17578v-.69922l.29297-.875.1172-.17187.17577-.35156.11328-.23047.1172-.29297.35155-.75781.1172-.23047.17187-.23438h.17578l.11719-.0586h.64062l.11719.0586.23437.23438.17188.11328.35156.29297.11719.11718.11328.17579v.11328l.11719.05859.11718.11719v.69922l-.05859.17578v.23047l-.0586.17578-.34765 1.05078-.11719.23047-.11719.23437-.11718.0586-.23047.23437-.64063.28906h-.875l-.41015-.11718-.64063-.46485"/><path fill="none" stroke="#bebebe" stroke-linecap="round" stroke-linejoin="round" stroke-miterlimit="10" stroke-width=".5" d="M467.95703 311.69531H144.02734v168.625h323.9297v-168.625"/><g clip-path="url(#a)"><path fill="#fff" fill-opacity="0" fill-rule="evenodd" d="M144 475.89063v4.4375h.0039H144V311.67188h.0039H144v164.21875"/></g><g clip-path="url(#b)"><path fill="#fff" fill-opacity="0" fill-rule="evenodd" d="M144.0039 480.32813V311.67188h44.37891v107.28125l-4.4375 1.89062-3.7461 1.78516-.6914.49609-3.54297 3.94531-.89843 1.28516-3.40625 3.15234-1.03125.66406-4.4375 2.28125-4.4375.73438-.46875.75781-.47266 4.4375-3.29688 4.4375 3.03907 4.4414-.03516 4.4375 1.23438 3.17188 2.32812-3.17187-1.44531-4.4375 3.55469-1.33203 4.4375.91015.5078.42188.57032 4.4375 3.35938 1.98437 2.61328-1.98437 1.82812-.55469 4.4375.10938 2.14844.4453 2.28906.77345.92578-.77344 3.51172-1.60547 4.4414-2.66797.53907-.16406 3.89844-.42188 4.4375-2.03125 3.21875-1.98828 1.21875-.58594 3.67969-3.85156.76172-4.16015 4.4375-.00391.21484-.27344-.21484-.23047-4.4375.03516-4.44141-2.23438-4.4375-1.08984-4.04688-.91797-.1914-4.4375-.19922-.13672-4.4375-2.03906-3.09375-2.26562-1.34766-1.14844-4.4375-2.52735V311.67188h8.8789v86.65235l-1.95312 2.11328-1.48437 4.4375 3.4375 3.46094 4.4375.20703.48437.77344-.48437.9453-1.80078 3.4922 1.80078 1.86328 4.4375 2.53906 4.4375-.11328.07422.14844 4.36719 4.37109.08984.0664 2.73828 4.44141 1.60938 1.75 4.4375 1.78906 1.66406.89844 2.77344 2.0664 1.41796 2.3711 3.01953 3.3125 4.44141.07813 1.21875 1.04687 3.21875 3.03516 4.4375-1.15625 1.84375-1.8789-1.84375-2.98048-.48828-1.45703-3.94922-3.6836-.66797-.7539-3.76953-3.63672-4.4414.03125-.4922-.83203-3.9453-3.75-.53907-.6914.53906-3.35938 1.25782-1.07812-1.25781-.98047-2.62891-3.45703-.92578-4.4375-.88281-.875-1.35547.875-3.08203.89062-4.4375.41016-4.44141-.60938-.91406-.6914-3.52344-3.19922-1.76953-1.24219-2.66797-2.26172-2.21484-2.17578-2.22266-2.11328v-86.65235h57.69531v117.84766l-4.4375 1.90235-.09375.08593.09375.07813 4.4375 1.85156 4.4414-1.84766.0625-.08203-.0625-.0664-4.4414-1.92188V311.67188h17.7539v112.17187l-4.4375 1.45703-1.9375 1.76953.44141 4.4375 1.4961 1.42578 2.64453-1.42578 1.79297-.53125 3.34765-3.90625-3.34765-3.22656V311.67187h13.3164v102.40625l-3.67968 4.11329-.75782 1.73046-2.83984 2.70704-.90234 4.4414.15625 4.4375 1.49218 4.4375 2.09375 2.09766 2.21485-2.09766 2.22265-.5586 4.4375-.8828 4.4375-.90235 2.70704-2.09375-2.70704-3.47656-.72265-.96094.32422-4.4414-.41797-4.4375-3.6211-3.58985-4.4375-.52344V311.67188h13.31641V421.6836l-1.25781.94532 1.25781 1.44921 1.4336-1.44921-1.4336-.94532V311.67188h48.82031v111.74218l-4.4375 2.03125-1.22265 1.625 1.22265 1.23047 1.39453 3.20703-1.01171 4.4375-.38282 1.80078-2.76562 2.63672-1.67188 1.51563-2.96094 2.92187-1.48046 1.53125-2.4922 2.91016 2.4922 2.60156 4.4414.01563 4.4375-.06641 4.4375-2.3789 4.4375 2.08202 4.4414.29297 3.6172-2.54687-3.6172-2.76563-1.7578-1.67578 1.7578-.3086 4.4375-.28905 4.4375-.3711 3.38282-3.46875.54297-4.4375-.875-4.4375-3.05078-3.32031-4.4375-.27734-4.4375-.50782-4.4414.19532-.6172-.52735-3.8203-3.65625V311.67187h35.5078v118.85547l-1.4453.98047-2.9922.69531-3.89062 3.7422 1.30078 4.4375.76563 4.4375-2.6172 1.42968-3.01562 3.01172 3.01563 3.1914 3.23047-3.1914 1.21094-2.35547 3.71484-2.08594.72265-.05078 4.4375-.44922 3.29688-3.9375-3.29688-3.61719-.18359-.8203-3.3711-4.4375-.8828-.98048V311.67188h26.6289V440.8203l-4.4375.78906-4.4375.4297-4.4414 2.72265-.13672.0586-4.30079.40624-4.4375 1.32031-2.33593 2.71485 2.09375 4.4375-4.19531.70312-3.75 3.73438.14453 4.4375 3.60546 4.04687 4.4375.19922 4.4375-.16797 4.4375-1.36328 4.44141-.51953 4.4375 1.8711 4.4375-2.46485.875-1.60156 3.5625-.54297 4.01563-3.89453-1.7461-4.4375-2.26953-2.80078-.3125-1.63672.3125-1.83594 2.67969-2.60547-2.67969-2.25-4.4375-1.75V311.67187h57.69531v168.65625h-78.94921l-.9375-.4414-.2461.4414H144.00391"/></g><path fill="#50fcfc" fill-rule="evenodd" d="M160.55469 449.26172l-3.03906-4.4414 3.29687-4.4375.47266-4.4375.46875-.75782 4.4375-.73438 4.4375-2.28125 1.03125-.66406 3.40625-3.15234v10.33594l-4.4375.09375-1.22657 1.59765 1.22657 1.27735 1.74609 3.16015 2.6914 2.51172 2.4922 1.92969L179.5078 450.5l3.82031-1.23828-3.8203-1.71094-2.17188-2.73047-1.39844-4.4375-.8711-1.6914v-10.33594l.89844-1.28516 3.54297-3.94531.6914-.4961 3.7461-1.78515 4.4375-1.89063v3.17579l-.9336.5-3.5039 2.45312-2.42578 1.98828-.08984 4.4375 2.51562 1.3125 1.92188-1.3125 2.51562-1.16406v11.16797l-2.4414 3.3086 2.4414 2.5039 4.4375.6914 4.3125-3.1953-4.3125-2.84376-4.4375-.46484v-11.16797l4.4375-.66406 2.73828-2.60938-2.73828-2.42187-3.72265-2.01953-.71485-.5v-3.17579l4.4375 2.52735 1.34766 1.14844 3.09375 2.26562 4.4375 2.03906.19922.13672.1914 4.4375 4.04688.91797 4.4375 1.08985v5.11328l-4.4375 1.61328-.38672.14062-4.05078 1.40625-4.21094 3.03125 4.21094 1.11719 1.89844-1.11719 2.53906-4.29297 4.4375.52344.63672-.66797-.63672-1.7539v-5.11329l4.4414 2.23438 4.4375-.03516.21485.23047-.21484.27344-4.4375.0039-.76172 4.16016-3.6797 3.85156-1.21874.58594-3.21875 1.98828-4.4375 2.03125-3.89844.42188-.53906.16406-4.4414 2.66797-3.51173 1.60547-.92578.77344-2.28906-.77344-2.14844-.44531-4.4375-.10938-1.82812.55469-2.61328 1.98437-3.35938-1.98437-.57031-4.4375-.50781-.42188-4.4375-.91015-3.5547 1.33203 1.44532 4.4375-2.32812 3.17187-1.23438-3.17187.03516-4.4375"/><path fill="#00e8fc" fill-rule="evenodd" d="M170.6289 441.66016l-1.22656-1.27735 1.22657-1.59765 4.4375-.09375.87109 1.6914 1.39844 4.4375 2.17187 2.73047 3.82031 1.71094-3.8203 1.23828-1.94923-1.23828-2.49218-1.92969-2.69141-2.51172-1.7461-3.16015m13.31641-8.83985l-2.51562-1.3125.08984-4.4375 2.42578-1.98828 3.5039-2.45312.9336-.5.71485.5 3.72265 2.01953 2.73828 2.42187-2.73828 2.60938-4.4375.66406-2.51562 1.16406-1.92188 1.3125m4.4375 14.5039l-2.4414-2.5039 2.4414-3.3086 4.4375.46485 4.3125 2.84375-4.3125 3.19531-4.4375-.6914"/><path fill="#50fcfc" fill-rule="evenodd" d="M197.26172 408.33594l-3.4375-3.46094 1.48437-4.4375 1.95313-2.11328v3.77344l-1.59375 2.77734 1.59375 1.60156 2.8125-1.60156-2.8125-2.77734v-3.77344l2.22266 2.11328 2.21484 2.17578 2.66797 2.26172 1.76953 1.24219v3.57422l-3.14844 4.0625 3.14844 2.6328 4.4375-1.89062 1.79297 3.69532 2.64844 2.64843 2.39453 1.78907 2.04297 2.58593 4.19921 1.85547.23828.1211 4.4375 2.99218 3.0625 1.32422 1.17579 4.4375.19922.21875 4.4414 1.09375 3.63672 3.125.80078.75781 1.69531-.7578.10547-4.4375-1.80078-1.6797-2.44531-2.7578-1.99219-1.92579-4.4414 1.19922-2.19141-3.71094-2.2461-2.13672-1.80078-2.30468-1.27343-4.4375-1.36328-1.6172-3.11329-2.8203-1.32422-.78516-2.6289.78516-1.8086.5-2.14453-.5-2.29687-.64844-4.4375-3.41406v-3.57422l3.52344 3.19922.91406.6914 4.4414.60938 4.4375-.41016 3.08204-.89062 1.35547-.875.8828.875.92579 4.4375 2.6289 3.45703 1.25782.98047-1.25781 1.07812-.53907 3.35938.53906.6914 3.94532 3.75.49219.83203 4.4414-.03125 3.76953 3.63672.66797.7539 3.94922 3.6836.48828 1.45703 1.84375 2.98047-1.84375 1.8789-4.4375 1.15626-3.21875-3.03516-1.21875-1.04687-4.4414-.07813-3.01954-3.3125-1.41797-2.3711-2.77343-2.0664-1.66406-.89844-4.4375-1.78906-1.60938-1.75-2.73828-4.4414-.08984-.06641-4.3672-4.3711-.07421-.14843-4.4375.11328-4.4375-2.53906-1.80078-1.86328 1.80078-3.4922.48437-.9453-.48437-.77344-4.4375-.20703"/><path fill="#00e8fc" fill-rule="evenodd" d="M197.26172 406.47656l-1.59375-1.60156 1.59375-2.77734 2.8125 2.77734-2.8125 1.60156m4.4375 39.46094l-4.21094-1.11719 4.21094-3.03125 4.05078-1.40625.38672-.14062 4.4375-1.61328.63672 1.7539-.63672.66797-4.4375-.52344-2.53906 4.29297-1.89844 1.11719m4.4375-29.55078l-3.14844-2.63281 3.14844-4.0625 4.4375 3.41406 2.29687.64844 2.14453.5 1.8086-.5 2.6289-.78516v2.17188l-4.26171 3.05078 4.26172 3.53125 2.86718.90625 1.57031.92187.53516-.92187-.53516-1.10547-1.3203-3.33203-3.1172-3.05079v-2.17187l1.32422.78516 3.11328 2.8203 1.36329 1.6172 1.27343 4.4375 1.80078 2.30468 2.2461 2.13672 2.1914 3.71094 4.44141-1.19922 1.99219 1.92578 2.44531 2.75781 1.80078 1.6797-.10547 4.4375-1.6953.7578-.80079-.7578-3.63672-3.125-4.4414-1.09376-.19922-.21875-1.17578-4.4375-3.0625-1.32422-4.4375-2.99218-.23829-.1211-4.19922-1.85547-2.04296-2.58593-2.39453-1.78907-2.64844-2.64843-1.79297-3.69532-4.4375 1.89063"/><path fill="#00d4fc" fill-rule="evenodd" d="M219.45313 421.72266l-4.26172-3.53125 4.26172-3.05079v1.67579l-1.92188 1.375 1.92188 1.59375 1.40625-1.59375-1.40625-1.375v-1.67579l3.11718 3.05079 1.32031 3.33203.53516 1.10547-.53516.92187-1.5703-.92187-2.8672-.90625"/><path fill="#00c4fc" fill-rule="evenodd" d="M219.45313 419.78516l-1.92188-1.59375 1.92188-1.375 1.40625 1.375-1.40625 1.59375"/><path fill="#50fcfc" fill-rule="evenodd" d="M250.51953 431.58594l-.09375-.07813.09375-.08594 4.4375-1.90234 4.4414 1.92188.0625.0664-.0625.08203-4.4414 1.84766-4.4375-1.85156m16.25781-.07813l-.4414-4.4375 1.9375-1.76953 4.4375-1.45703V426l-2.03125 1.07031 2.03125 1.29688 1.11328-1.29688L272.71094 426v-2.15625l3.34765 3.22656-3.34765 3.90625-1.79297.53125-2.64453 1.42578-1.4961-1.42578"/><path fill="#00e8fc" fill-rule="evenodd" d="M272.71094 428.36719l-2.03125-1.29688L272.71094 426l1.11328 1.07031-1.11328 1.29688"/><path fill="#50fcfc" fill-rule="evenodd" d="M278.0039 431.50781l-.15624-4.4375.90234-4.4414 2.83984-2.70704.75782-1.73046 3.67968-4.11329v1.62891l-2.22265 2.48438-1.77344 4.4375-.4414.45703-2.31641 3.98437.21875 4.4375 2.09765 3.38672 4.4375-.4961 4.4375-2.1875 1.85938-.70312-1.85938-2.77344-.70703-1.66406.70703-.23828 3.08985-4.20312-1.09766-4.4375-1.99219-1.97657-4.4375-.5078v-1.62892l4.4375.52344 3.6211 3.58985.41797 4.4375-.32422 4.4414.72265.96094 2.70704 3.47656-2.70704 2.09375-4.4375.90235-4.4375.8828-2.22265.5586-2.21485 2.09766-2.09375-2.09766-1.49218-4.4375"/><path fill="#00e8fc" fill-rule="evenodd" d="M279.49219 431.50781l-.21875-4.4375 2.3164-3.98437.44141-.45703 1.77344-4.4375 2.22265-2.48438v12.9375l-3.68359 2.86328 3.6836 1.24219 2.1328-1.24219-2.1328-2.86328v-12.9375l4.4375.50781v2.94532l-4.4297 3.46875 4.4297 2.05078 1.5078-2.05078-1.5078-3.46875v-2.94532l1.99218 1.97657 1.09766 4.4375-3.08985 4.20312-.70703.23828.70703 1.66406 1.85938 2.77344-1.85938.70313-4.4375 2.1875-4.4375.4961-2.09765-3.38673"/><path fill="#00d4fc" fill-rule="evenodd" d="M286.02734 432.75l-3.68359-1.24219 3.6836-2.86328 2.1328 2.86328-2.1328 1.24219m4.4375-8.07031l-4.4297-2.05078 4.4297-3.46875 1.5078 3.46875-1.5078 2.05078"/><path fill="#50fcfc" fill-rule="evenodd" d="M299.34375 424.07813l-1.25781-1.44922 1.25781-.94532 1.4336.94532-1.4336 1.44921m35.5039 27.78516l-2.49218-2.60156 2.49219-2.91016 1.48046-1.53125 2.96094-2.92187 1.67188-1.51563 2.76562-2.63672.38281-1.80078 1.01172-4.4375-1.39453-3.20703-1.22265-1.23047 1.22265-1.625 4.4375-2.03125v1.45703l-2.96484 2.19922 2.05469 4.4375-2.26954 4.4375 3.1797 3.29688v.90625l-1.28126.23437 1.28125.33985.21094-.33985-.21094-.23437v-.90625l1.02344 1.14062-1.02344 1.64844-4.4375-.26563-3.36719 3.0547 3.3672 3.76171 4.4375-.71094 3.96874-3.05078.46875-.25 4.4414-.69922 4.4375-.67578 4.4375-1.0586 1.71095-1.7539.73046-4.4375-2.4414-4.19922-.33203-.23828-4.10547-1.9414-4.4375-1.58204-4.4414.91407-2.14063-1.82813-2.29688-2.19922v-1.45703l3.82031 3.65625.6172.52735 4.4414-.19532 4.4375.50782 4.4375.27734 3.05078 3.32031.875 4.4375-.54297 4.4375-3.38281 3.46875-4.4375.3711-4.4375.28906-1.75781.3086 1.7578 1.67577 3.6172 2.76563-3.6172 2.54687-4.4414-.29296-4.4375-2.08204-4.4375 2.37891-4.4375.0664-4.4414-.01562"/><path fill="#00e8fc" fill-rule="evenodd" d="M343.72656 448.58203l-3.36719-3.76172 3.3672-3.05469 4.4375.26563 1.02343-1.64844-1.02344-1.14062-3.17969-3.29688 2.26954-4.4375-2.0547-4.4375 2.96485-2.19922 2.29688 2.19922 2.14062 1.82813 4.4414-.91406v.96093l-4.4414 2.125-.9414.4375-3.4961 1.71094-1.72656 2.72656 1.72656 1.78906 2.375 2.64844-2.375 3.82813-1.55078.60937 1.55078.67188.8711-.67188 3.5664-1.91015 4.4414-.10157 4.4375-1.3203 2.78126-1.10548 1.59765-4.4375-4.3789-3.42578-.44922-1.01172-3.98828-2.5625v-.96094l4.4375 1.58204 4.10547 1.9414.33203.23828 2.4414 4.19922-.73046 4.4375-1.71094 1.7539-4.4375 1.0586-4.4375.67578-4.4414.69922-.46876.25-3.96875 3.05078-4.4375.71094"/><path fill="#00d4fc" fill-rule="evenodd" d="M348.16406 437.73438l-1.72656-1.78907 1.72656-2.72656 3.4961-1.71094.9414-.4375 4.4414-2.125v.96485l-2.99218 1.59765-1.44922 1.80078-4.4375 2.21094-.26953.42578.26953.27735 3.73047 4.16015.70703.8711 4.4414.49218 3.47657-1.36328.96094-4.35156.03125-.08594-.03125-.02344-1.95313-4.41406-2.48437-1.59765v-.96485l3.98828 2.5625.44922 1.01172 4.3789 3.42578-1.59765 4.4375-2.78125 1.10547-4.4375 1.32031-4.4414.10157-3.56641 1.91015-.8711.67188-1.55078-.67188 1.55078-.60937 2.375-3.82813-2.375-2.64844"/><path fill="#fff" fill-opacity="0" fill-rule="evenodd" d="M348.16406 440.14844l-1.28125.23437 1.28125.33985.21094-.33985-.21094-.23437"/><path fill="#00c4fc" fill-rule="evenodd" d="M348.16406 436.22266l-.26953-.27735.26953-.42578 4.4375-2.21094 1.44922-1.80078 2.99219-1.59765v.96484l-1.1836.63281-3.2578 4.0586-.75782.3789.75781 1.16016 2.79688 3.27734 1.64453.29688.75781-.29688 2.66406-4.4375-2.4414-4.4375-.98047-.63281v-.96484l2.48437 1.59765 1.95313 4.41406.03125.02344-.03125.08594-.96094 4.35156-3.47656 1.36328-4.4414-.49218-.70704-.8711-3.73047-4.16015"/><path fill="#00b8fc" fill-rule="evenodd" d="M352.60156 437.10547l-.75781-1.16016.75781-.3789 3.25781-4.0586 1.1836-.63281v1.20313l-3.28125 3.86718 3.28125 3.39844 2.39844-3.39844-2.39844-3.86719V430.875l.98047.63281 2.4414 4.4375-2.66406 4.4375-.75781.29688-1.64453-.29688-2.79688-3.27734"/><path fill="#00a8fc" fill-rule="evenodd" d="M357.04297 439.34375l-3.28125-3.39844 3.28125-3.86719v1.64454l-1.88281 2.22265 1.8828 1.94922 1.37892-1.94922-1.37891-2.22265v-1.64454l2.39844 3.8672-2.39844 3.39843"/><path fill="#009800" fill-rule="evenodd" d="M357.04297 437.89453l-1.88281-1.94922 1.8828-2.22265v1.64843l-.48827.57422.48828.5039.35547-.5039-.35547-.57422v-1.64843l1.3789 2.22265-1.3789 1.94922"/><path fill="#00ac00" fill-rule="evenodd" d="M357.04297 436.44922l-.48828-.5039.48828-.57423.35547.57422-.35547.5039"/><path fill="#50fcfc" fill-rule="evenodd" d="M374.79297 452.45313l-3.01563-3.19141 3.01563-3.01172v2.15625l-.85156.85547.85156.90234.91797-.90234-.91797-.85547V446.25l2.61719-1.42969-.76563-4.4375-1.30078-4.4375 3.89063-3.74219 2.99218-.6953 1.44531-.98048v1.38672l-4.4375 2.35156-1.75 1.6797 1.75 2.55468.38672 1.88281 4.05079 3.78125 4.4375-2.03906 1.45703-1.74219-1.45704-1.60156-.64062-2.83594-3.79688-4.03125v-1.38672l.88282.98047 3.3711 4.4375.18358.82031 3.29688 3.6172-3.29688 3.9375-4.4375.44921-.72265.05078-3.71485 2.08594-1.21093 2.35547-3.23047 3.1914"/><path fill="#00e8fc" fill-rule="evenodd" d="M374.79297 450.16406l-.85156-.90234.85156-.85547.91797.85547-.91797.90234m4.4414-11.66406l-1.75-2.55469 1.75-1.67969 4.4375-2.35156v.80469l-3.9375 3.22656.96485 4.4375 2.97265 2.77735 3.73047-2.77735-.6914-4.4375-3.03906-3.22656v-.80469l3.79687 4.03125.64063 2.83594 1.45703 1.60156-1.45704 1.74219-4.4375 2.03906-4.05078-3.78125-.38671-1.88281"/><path fill="#00d4fc" fill-rule="evenodd" d="M380.69922 440.38281l-.96485-4.4375 3.9375-3.22656v.80469l-2.95312 2.42187 1.05469 4.4375 1.89844 1.77344 2.3789-1.77344-.10156-4.4375-2.27735-2.42187v-.80469l3.03907 3.22656.6914 4.4375-3.73046 2.77735-2.97266-2.77735"/><path fill="#50fcfc" fill-rule="evenodd" d="M380.0664 462.57422l-.14452-4.4375 3.75-3.73438 4.1953-.70312-2.09374-4.4375 2.33594-2.71485 4.4375-1.3203 4.30078-.40626.13671-.0586 4.44141-2.72265 4.4375-.42969 4.4375-.78906v1.17578l-4.4375 1.81641-4.4375.92188-.14062.08593-4.30079.69531-4.4375 1.25391-3.17578 2.49219-.64062 4.4375-.6211.57031-4.4375 1.30078-2.57812 2.5664.2539 4.4375 2.32423 2.60938 4.4375.98829 4.4375-.23438 4.28125-3.36328.15625-.17578 4.4414-.57813 1.34766.7539 3.08984 2.25 2.63281-2.25 1.8047-1.05077 4.4375-.3711 3.10937-3.01562-3.10938-4-.35156-.4375-.82422-4.4375.4375-4.4414-3.69922-2.82423v-1.17578l4.4375 1.75 2.67969 2.25-2.67969 2.60547-.3125 1.83594.3125 1.63672 2.26953 2.80078 1.7461 4.4375-4.01563 3.89453-3.5625.54297-.875 1.60156-4.4375 2.46485-4.4375-1.8711-4.4414.51953-4.4375 1.36328-4.4375.16797-4.4375-.19922-3.60547-4.04687"/><path fill="#00c4fc" fill-rule="evenodd" d="M381.77344 440.38281l-1.05469-4.4375 2.95313-2.42187v.8086l-1.96875 1.61327 1.14843 4.4375.82031.76563 1.02735-.76563.49219-4.4375-1.51954-1.61328v-.8086l2.27735 2.42188.10156 4.4375-2.3789 1.77344-1.89844-1.77344"/><path fill="#00e8fc" fill-rule="evenodd" d="M381.34766 462.57422l-.25391-4.4375 2.57813-2.5664 4.4375-1.30079.62109-.57031.64062-4.4375 3.17579-2.49219 4.4375-1.2539 4.30078-.69532.14062-.08594 4.4375-.92187 4.4375-1.8164v1.96484l-1.67187.85937-2.76563 2.0664-4.4375-.84374-4.4414.64453-4.3711 2.57422-.0664.05469-2.7461 4.3828-1.6914 1.55079-4.4375 2.26563-.625.62109.43359 4.4375.1914.21484 4.4375 2.3086 4.4375-.35157 2.76563-2.17187 1.67188-1.86719 4.4414-1.21094 4.4375 2.34766 4.4375-2.38281 4.4375.21875 1.59375-1.54297-1.59375-2.05078-1.91797-2.38672-.6914-4.4375-.69922-4.4414-1.1289-.85938v-1.96485L414 444.82031l-.4375 4.4414.82422 4.4375.35156.4375 3.10938 4-3.10938 3.01563-4.4375.3711-1.80469 1.05078-2.6328 2.25-3.08985-2.25-1.34766-.7539-4.4414.57812-.15625.17578-4.28125 3.36328-4.4375.23438-4.4375-.98829-2.32422-2.60937"/><path fill="#00b8fc" fill-rule="evenodd" d="M382.85156 440.38281l-1.14844-4.4375 1.96875-1.61328v.80469l-.98437.8086.98438 3.58593.76171-3.58594-.76171-.8086v-.80468l1.51953 1.61328-.4922 4.4375-1.02733.76563-.82032-.76563"/><path fill="#00a8fc" fill-rule="evenodd" d="M383.67188 439.53125l-.98438-3.58594.98438-.8086v.8125-.8125l.76171.8086-.76171 3.58594"/><path fill="#00d4fc" fill-rule="evenodd" d="M383.48047 462.57422l-.4336-4.4375.625-.6211 4.4375-2.26562 1.69141-1.55078 2.7461-4.38281.0664-.0547 4.3711-2.57421 4.4414-.64453v1.24219l-4.4414.5703-2.38672 1.40626-2.05079 1.76562-1.67187 2.67188-2.76563 2.53515-3.28515 1.90235.64062 4.4375 2.64454 1.44531 4.4375-.46094 1.25-.98437 3.1875-3.55469 2.46875-.88281 1.97265-1.01172 2.57031 1.01172 1.8672.85937 2.03124-.85937 2.40625-1.64844 3.89063 1.64844.54687.07422.07813-.07422-.07813-.09766-3.48828-4.33984-.55469-4.4375-.39453-1.46094-2.75781 1.46094-1.67969 1.04297-.42187-1.04297-4.01563-1.97656v-1.2422l4.4375.84376 2.76563-2.0664 1.67187-.85938 1.1289.85937.69923 4.4414.6914 4.4375 1.91797 2.38673 1.59375 2.05078-1.59375 1.54297-4.4375-.21875-4.4375 2.38281-4.4375-2.34766-4.4414 1.21094-1.67188 1.86719-2.76563 2.17187-4.4375.35157-4.4375-2.3086-.1914-.21484"/><path fill="#00c4fc" fill-rule="evenodd" d="M385.46484 462.57422l-.64062-4.4375 3.28515-1.90235 2.76563-2.53515 1.67188-2.67188 2.05078-1.76562 2.38671-1.40625 4.44141-.57031v1.24609l-4.4414.49219-.39844.23828-4.03906 3.47656-.60157.96094-3.83594 3.51562-1.58984.92188.91797 4.4375.67188.36719 2.92968-.3672 1.50781-.8164 2.75-3.6211 1.6875-1.52343 4.44141-1.91015 2.10547-1.00391-.6211-4.4375-1.48437-.73047v-1.2461l4.01563 1.97657.42187 1.04297 1.67969-1.04297 2.75781-1.46094.39453 1.46094.55469 4.4375 3.48828 4.33984.07813.09766-.07813.07422-.54687-.07422-3.89063-1.64844-2.40625 1.64844-2.03125.85937-1.86719-.85937-2.5703-1.01172-1.97267 1.01172-2.46875.88281-3.1875 3.55469-1.25.98437-4.4375.46094-2.64453-1.44531"/><path fill="#00b8fc" fill-rule="evenodd" d="M387.4375 462.57422l-.91797-4.4375 1.58985-.92188 3.83593-3.51562.60156-.96094 4.03907-3.47656.39844-.23828 4.4414-.49219 1.48438.73047.62109 4.4375-2.10547 1.0039-4.4414 1.91016-1.6875 1.52344-2.75 3.6211-1.50782.8164-2.92969.36719-.67187-.3672"/><g clip-path="url(#c)"><path fill="#50fcfc" fill-rule="evenodd" d="M387.86328 480.32813l.2461-.44141.9375.4414h-1.1836"/></g><g clip-path="url(#d)"><path fill="#fff" fill-opacity="0" fill-rule="evenodd" d="M467.9961 480.32813H468V311.67188h-.0039H468v168.65625h-.0039"/></g><path fill="#fff" fill-opacity="0" fill-rule="evenodd" d="M176.78906 458.63281l5.78906-.78125-1.33593-9.8711-5.78906.78126 1.33593 9.8711"/><path fill-rule="evenodd" d="M179.16406 450.10938l.50781-.06641.84375 6.23437-.78125.10547-.60156-4.44531-1.375.1836-.07422-.55079.54297-.13672.2461-.08984.21484-.11719.17969-.16797.14453-.23046.10156-.3125.05078-.40625"/><path fill="#fff" fill-opacity="0" fill-rule="evenodd" d="M335.88672 456.97266l5.84375-.03516-.0586-9.96094-5.84375.03516.0586 9.96094"/><path fill-rule="evenodd" d="M339.33984 448.82422l.50782-.0039.03906 6.29687-.78906.0039-.02735-4.48828-1.38672.00781-.0039-.55859.5586-.0664.2539-.0547.22656-.08984.20313-.14453.17578-.21094.13671-.29687.10547-.39453"/><path fill="#fff" fill-opacity="0" fill-rule="evenodd" d="M252.58984 444.35547l.64453-5.8086-9.89843-1.10156-.64844 5.80469 9.90234 1.10547"/><path fill-rule="evenodd" d="M244.89844 439.97656l.05469-.50781 6.2578.69922-.08593.78125-4.46484-.4961-.15235 1.37891-.55078-.0625-.0039-.5625-.02344-.25781-.0664-.23828-.1172-.21485-.1875-.19921-.27734-.17188-.38281-.14844"/><g clip-path="url(#e)"><path fill="none" stroke="#000" stroke-linecap="round" stroke-linejoin="round" stroke-miterlimit="10" stroke-width=".5" d="M147.5039 480.60547l-7.0078-.55469"/></g><g clip-path="url(#f)"><path fill="none" stroke="#000" stroke-linecap="round" stroke-linejoin="round" stroke-miterlimit="10" stroke-width=".5" d="M146.48438 480.52344l.48828 1.125"/></g><g clip-path="url(#g)"><path fill="none" stroke="#000" stroke-linecap="round" stroke-linejoin="round" stroke-miterlimit="10" stroke-width=".5" d="M160.8086 479.95703l-6.98829.74219"/></g><g clip-path="url(#h)"><path fill="none" stroke="#000" stroke-linecap="round" stroke-linejoin="round" stroke-miterlimit="10" stroke-width=".5" d="M159.79297 480.0664l.6875 1.01563"/></g><g clip-path="url(#i)"><path fill="none" stroke="#000" stroke-linecap="round" stroke-linejoin="round" stroke-miterlimit="10" stroke-width=".5" d="M174.125 480.70703l-6.98828-.75781"/></g><g clip-path="url(#j)"><path fill="none" stroke="#000" stroke-linecap="round" stroke-linejoin="round" stroke-miterlimit="10" stroke-width=".5" d="M173.10547 480.59766l.45703 1.14062"/></g><g clip-path="url(#k)"><path fill="none" stroke="#000" stroke-linecap="round" stroke-linejoin="round" stroke-miterlimit="10" stroke-width=".5" d="M187.42578 480.8164l-6.96094-.97265"/></g><g clip-path="url(#l)"><path fill="none" stroke="#000" stroke-linecap="round" stroke-linejoin="round" stroke-miterlimit="10" stroke-width=".5" d="M187.42578 480.8164l.83984 2.3047"/></g><g clip-path="url(#m)"><path fill="none" stroke="#000" stroke-linecap="round" stroke-linejoin="round" stroke-miterlimit="10" stroke-width=".5" d="M200.7461 480.76172l-6.97266-.86328"/></g><g clip-path="url(#n)"><path fill="none" stroke="#000" stroke-linecap="round" stroke-linejoin="round" stroke-miterlimit="10" stroke-width=".5" d="M200.7461 480.76172l.8789 2.28906"/></g><g clip-path="url(#o)"><path fill="none" stroke="#000" stroke-linecap="round" stroke-linejoin="round" stroke-miterlimit="10" stroke-width=".5" d="M214.08984 480.25l-7.02734.15625"/></g><g clip-path="url(#p)"><path fill="none" stroke="#000" stroke-linecap="round" stroke-linejoin="round" stroke-miterlimit="10" stroke-width=".5" d="M214.08984 480.25l1.19922 2.14063"/></g><g clip-path="url(#q)"><path fill="none" stroke="#000" stroke-linecap="round" stroke-linejoin="round" stroke-miterlimit="10" stroke-width=".5" d="M227.40234 480.38281l-7.02343-.10547"/></g><g clip-path="url(#r)"><path fill="none" stroke="#000" stroke-linecap="round" stroke-linejoin="round" stroke-miterlimit="10" stroke-width=".5" d="M226.38281 480.36719l.5586 1.08984"/></g><g clip-path="url(#s)"><path fill="none" stroke="#000" stroke-linecap="round" stroke-linejoin="round" stroke-miterlimit="10" stroke-width=".5" d="M240.60938 481.20313l-6.8086-1.75"/></g><g clip-path="url(#t)"><path fill="none" stroke="#000" stroke-linecap="round" stroke-linejoin="round" stroke-miterlimit="10" stroke-width=".5" d="M239.61719 480.94922l.28906 1.1914"/></g><g clip-path="url(#u)"><path fill="none" stroke="#000" stroke-linecap="round" stroke-linejoin="round" stroke-miterlimit="10" stroke-width=".5" d="M253.6914 481.84375l-6.33984-3.02734"/></g><g clip-path="url(#v)"><path fill="none" stroke="#000" stroke-linecap="round" stroke-linejoin="round" stroke-miterlimit="10" stroke-width=".5" d="M266.97656 481.89844l-6.28515-3.14063"/></g><g clip-path="url(#w)"><path fill="none" stroke="#000" stroke-linecap="round" stroke-linejoin="round" stroke-miterlimit="10" stroke-width=".5" d="M280.36328 481.7539l-6.42578-2.84765"/></g><g clip-path="url(#x)"><path fill="none" stroke="#000" stroke-linecap="round" stroke-linejoin="round" stroke-miterlimit="10" stroke-width=".5" d="M293.64844 481.8164l-6.36328-2.97656"/></g><g clip-path="url(#y)"><path fill="none" stroke="#000" stroke-linecap="round" stroke-linejoin="round" stroke-miterlimit="10" stroke-width=".5" d="M307.25781 480.82813l-6.95312-1"/></g><g clip-path="url(#z)"><path fill="none" stroke="#000" stroke-linecap="round" stroke-linejoin="round" stroke-miterlimit="10" stroke-width=".5" d="M306.2461 480.6836l.41796 1.15234"/></g><g clip-path="url(#A)"><path fill="none" stroke="#000" stroke-linecap="round" stroke-linejoin="round" stroke-miterlimit="10" stroke-width=".5" d="M320.58203 479.88281l-6.97265.89453"/></g><g clip-path="url(#B)"><path fill="none" stroke="#000" stroke-linecap="round" stroke-linejoin="round" stroke-miterlimit="10" stroke-width=".5" d="M319.5664 480.01172l.71094 1"/></g><g clip-path="url(#C)"><path fill="none" stroke="#000" stroke-linecap="round" stroke-linejoin="round" stroke-miterlimit="10" stroke-width=".5" d="M333.8164 479.45703l-6.80859 1.74219"/></g><g clip-path="url(#D)"><path fill="none" stroke="#000" stroke-linecap="round" stroke-linejoin="round" stroke-miterlimit="10" stroke-width=".5" d="M333.8164 479.45703l1.65235 1.8125"/></g><g clip-path="url(#E)"><path fill="none" stroke="#000" stroke-linecap="round" stroke-linejoin="round" stroke-miterlimit="10" stroke-width=".5" d="M346.95703 481.71094l-6.46094-2.76563"/></g><g clip-path="url(#F)"><path fill="none" stroke="#000" stroke-linecap="round" stroke-linejoin="round" stroke-miterlimit="10" stroke-width=".5" d="M360.55078 480.5l-7.01953-.33984"/></g><g clip-path="url(#G)"><path fill="none" stroke="#000" stroke-linecap="round" stroke-linejoin="round" stroke-miterlimit="10" stroke-width=".5" d="M359.53125 480.44922l.51953 1.10937"/></g><g clip-path="url(#H)"><path fill="none" stroke="#000" stroke-linecap="round" stroke-linejoin="round" stroke-miterlimit="10" stroke-width=".5" d="M371.82031 483.52344l-2.92969-6.38672"/></g><g clip-path="url(#I)"><path fill="none" stroke="#000" stroke-linecap="round" stroke-linejoin="round" stroke-miterlimit="10" stroke-width=".5" d="M384.9375 483.60547l-2.53125-6.55469"/></g><g clip-path="url(#J)"><path fill="none" stroke="#000" stroke-linecap="round" stroke-linejoin="round" stroke-miterlimit="10" stroke-width=".5" d="M396.17578 483.7461l1.6211-6.83594"/></g><g clip-path="url(#K)"><path fill="none" stroke="#000" stroke-linecap="round" stroke-linejoin="round" stroke-miterlimit="10" stroke-width=".5" d="M409.17578 483.65625l2.25-6.65625"/></g><g clip-path="url(#L)"><path fill="none" stroke="#000" stroke-linecap="round" stroke-linejoin="round" stroke-miterlimit="10" stroke-width=".5" d="M424.05078 483.8164l-.86719-6.97265"/></g><g clip-path="url(#M)"><path fill="none" stroke="#000" stroke-linecap="round" stroke-linejoin="round" stroke-miterlimit="10" stroke-width=".5" d="M438.22266 483.59766l-2.58204-6.53516"/></g><g clip-path="url(#N)"><path fill="none" stroke="#000" stroke-linecap="round" stroke-linejoin="round" stroke-miterlimit="10" stroke-width=".5" d="M452.10938 483.3086l-3.72657-5.96094"/></g><g clip-path="url(#O)"><path fill="none" stroke="#000" stroke-linecap="round" stroke-linejoin="round" stroke-miterlimit="10" stroke-width=".5" d="M465.4336 483.30078l-3.7461-5.94531"/></g><g clip-path="url(#P)"><path fill="none" stroke="#000" stroke-linecap="round" stroke-linejoin="round" stroke-miterlimit="10" stroke-width=".5" d="M147.5039 466.76953l-7.0078.48828"/></g><path fill="none" stroke="#000" stroke-linecap="round" stroke-linejoin="round" stroke-miterlimit="10" stroke-width=".5" d="M147.5039 466.76953l1.30079 2.07813m12.01953-1.64063l-7.01563-.38672m7.01563.38672l1.03125 2.22656m12.20312-1.64843l-6.85547-1.54297m6.85547 1.54297l.64844 2.36718m12.67578-2.40625l-6.875-1.46484m6.875 1.46484l.67188 2.35938m12.67187-2.52344l-6.9336-1.13672m6.9336 1.13672l.78906 2.32422m12.52735-2.32031l-6.9336-1.14453m6.9336 1.14453l.78516 2.32422m12.51953-2.27735l-6.91407-1.23828m6.91407 1.23828l.7539 2.33594m12.57031-2.3789l-6.93359-1.15235m6.9336 1.15234l.78125 2.32813m12.46875-2.03125l-6.8047-1.7461m5.81641 1.4922l.28907 1.1914m13.62109.0039l-6.01563-3.6289m5.14063 3.10156l-.0664 1.22266m14.08984-.4414l-5.6836-4.13673m4.85547 3.53516l-.17187 1.21484M293.7539 468.25l-6.57813-2.47266m5.6211 2.11328l.16015 1.21485m13.8789-.35547l-6.10937-3.47266m5.21875 2.96875l-.03515 1.22657m13.90234-.23438l-5.4336-4.44922m4.64454 3.80469l-.24219 1.19922m15.125-2.42188l-6.99219-.71484m5.97656.60938l.46094 1.13671m13.52735.16407l-6.3047-3.10547m5.38673 2.65234L346 469.33984m13.66797.00391l-5.2539-4.66016m4.49218 3.98438l-.28906 1.1914m15.25-2.76953l-7.02344-.15234m14.3789 2.59766l4.89454-5.04297m8.11328 4.69922l5.51172-4.35547m-4.71094 3.72265l-1.1211-.49218m13.85547 1.3789l5.07032-4.86328m-4.33203 4.15625l-1.16407-.38281m13.8047 1.15625l4.9453-4.9961m-4.9453 4.9961l-2.35157-.70703m17.86719 1.71093l.54296-7.0039m-.46484 5.98437l-1.1211.4922m15.63282.39062l-2.00781-6.73047m1.71484 5.7539l-.8711.85938m16.98048-3.51953l-7.00782.54297m5.98828-.46485l.65625 1.03516"/><g clip-path="url(#Q)"><path fill="none" stroke="#000" stroke-linecap="round" stroke-linejoin="round" stroke-miterlimit="10" stroke-width=".5" d="M147.51172 453.84375l-7.02344-.28906"/></g><path fill="none" stroke="#000" stroke-linecap="round" stroke-linejoin="round" stroke-miterlimit="10" stroke-width=".5" d="M147.51172 453.84375l1.0586 2.21094m12.23437-1.96094l-6.98047-.78906m6.98047.78906l.90234 2.28125m12.28516-1.66016l-6.72656-2.03125m6.72656 2.03125l.48047 2.40625m12.92578-2.76562l-6.90625-1.3125m6.90625 1.3125l.72656 2.34375M200.76172 454l-7-.60547m5.98047.51953l.48047 1.1289m13.86328-1.22265l-7.02344-.24218m7.02344.24218l1.07812 2.20703m12.23828-2.35156l-7.02734.04297m7.02734-.04297l1.16797 2.16016m12.13281-2.46094l-6.99609.64453m6.9961-.64453l1.34765 2.05469m11.96094-1.33203l-6.98047-.79688m6.98047.79688l.89844 2.28515m12.27343-1.61328l-6.6953-2.14062m5.71874 1.82812l.21875 1.20703m14.11719-1.05078l-6.78516-1.82812m5.79688 1.5625l.27734 1.1953m13.85156-.43358l-6.4375-2.82032m5.5 2.41016l.09375 1.22266m13.92578-.3711l-5.97265-3.70312m5.10547 3.16406l-.08203 1.22266m14.40625-.9375l-6.25391-3.19922m5.34375 2.73437l.01953 1.22656m14.53516-3l-6.91016 1.28125m5.90234-1.09375l.76563.96094m13.60156-.80469l-7 .59375m19.02735-3.02343l-4.42579 5.45312m16.96485-5.9336l-2.875 6.41407m2.45703-5.48047l1.22266-.08203m9.92187 5.67578l2.30078-6.64062m-1.96484 5.67187l-1.21094.1914m12.8789-.03905l4.92579-5.01172m-4.20703 4.28515l-1.17969-.34765m18.41797 1.32422l-4.35938-5.51172m3.72657 4.71093l-.4922 1.125m14.17579-.1328l-3.83203-5.89063m3.27734 5.03125l-.59375 1.07422m11.0586.01953l2.98046-6.36328m-2.54687 5.4375l-1.22656.0625m12.9414-.01954l5.31641-4.59375m-5.3164 4.59375l-2.28907-.88671m19.4961 1.8789l-2.47266-6.57812m2.11328 5.62109l-.8125.91797"/><g clip-path="url(#R)"><path fill="none" stroke="#000" stroke-linecap="round" stroke-linejoin="round" stroke-miterlimit="10" stroke-width=".5" d="M147.51172 440.45313l-7.02344-.14063"/></g><path fill="none" stroke="#000" stroke-linecap="round" stroke-linejoin="round" stroke-miterlimit="10" stroke-width=".5" d="M147.51172 440.45313l1.10937 2.1875m12.1836-1.84766l-6.98047-.8164m6.98047.8164l.89453 2.28515m12.40625-2.17968l-6.94922-1.02735m5.9375.875l.41406 1.15625m13.58985.03516l-6.3047-3.10938m5.38673 2.65625l.03906 1.22657m13.3164.35156l-4.55077-5.35547m3.88671 4.57422l-.45312 1.14063m15.5664-2.1875l-6.8164-1.69922m5.82422 1.45312l.29687 1.1875m14.11328-1.80078l-7.02734.01563m6.00781-.01172l.57813 1.08203m13.66015-1.89844l-6.83203 1.64063m5.83985-1.40235l.8125.92188m13.51172-1.08203l-6.8672 1.48828m5.8711-1.27344l.78906.9375m13.60157-.42969l-7.02735.03906m6.00782-.03125l.58203 1.07813m13.73828-1.41406l-6.99219.69922m5.97266-.59766l.67968 1.01953m13.66407-.57422l-7.01563-.39844m5.9961.33985l.51171 1.11719m13.82032-.98438l-7.00782-.54687m5.98829.46875l.48828 1.125m13.83984-1.66797l-6.99219.69922m5.97266-.59766l.67969 1.01953m12.8164-3.07031l-5.3164 4.59375m4.54296-3.92578l1.14454.4414m10.72265-2.29687l-.8789 6.97265m11.58984-6.2539l4.33203 5.53515m-3.70312-4.73046l.5-1.1211m12.27734.2461l4.14844 5.67187m-3.54297-4.84766l.53515-1.10156m10.75 3.42578l7-.625m-5.98046.53516l-.67188-1.02734m12.96094.55468l7.01172.5m-7.01172-.5l-.99219-2.24218m2.01172 2.3164l-.4961-1.1211m13.45313 3.35938l5.6875-4.125m-5.6875 4.125l-2.20312-1.07812m3.03125.47656l-1.10157-.53906m17.01563 2.54297l-1.16406-6.9297m1.16406 6.9297l-1.94922 1.49609m12.79688-1.9961l3.76953-5.92968m-3.21875 5.07031l-1.22657-.09765m14.71875 1.3125l2.3125-6.63672m-2.3125 6.63672l-2.42187.375m15.9375-.3125l1.91406-6.76172m-1.91406 6.76172l-2.39844.51562"/><g clip-path="url(#S)"><path fill="none" stroke="#000" stroke-linecap="round" stroke-linejoin="round" stroke-miterlimit="10" stroke-width=".5" d="M147.45703 426.44922l-6.91406 1.23828"/></g><path fill="none" stroke="#000" stroke-linecap="round" stroke-linejoin="round" stroke-miterlimit="10" stroke-width=".5" d="M147.45703 426.44922l1.51953 1.92578m11.85156-1.23828L153.80078 427m7.02734.13672l1.10938 2.1875M174.01953 428l-6.77734-1.86328m5.78906 1.59375l.26953 1.19531m13.6875-.10156l-6.08594-3.51172m5.20313 3l-.04297 1.22656m14.42578-1.08594l-6.45703-2.76953m5.51953 2.3672l.10156 1.22265m14.42578-1.92578l-7.0039-.5586m5.98437.47656l.48828 1.125m13.54297-2.76953l-6.39843 2.89453m5.46875-2.47265l.97265.7461m13.54688.79687l-6.94922-1.03125m5.9375.8789l.41406 1.15625m13.65625-2.93359l-6.4336 2.82422m5.4961-2.41406l.96484.76171m13.4297-.78125l-6.72266 2.04297m19.33984-3.3164l-5.32422 4.58984m4.55078-3.92187l1.14063.4453m13.0039-1.04687l-5.43359 4.45703m4.64063-3.80859l1.1328.47266m13.40626 2.66406l-6.29688-3.11328m19.84375.59765l-6.76172 1.91797m5.77735-1.64062l.85156.88672m12.10938-3.0625l-4.08594 5.71484m4.08594-5.71484l2.43359.32031m10.46094-.58203l-3.2422 6.23828m2.76954-5.32813l1.22656-.01171m11.17578-1.28516l-.47265 7.01172m11.20703-6.1211l4.6914 5.23047m8.29297-.33593l5.34766-4.5586m-5.34766 4.5586l-2.28125-.90235m14.76172-1.51562l7.01953.27734m-7.01953-.27734l-1.0664-2.21094m14.8125 4.04297l6.15625-3.38672m-6.15625 3.38672l-2.0547-1.34375m2.94923.85156l-2.05078-1.34375m16.20703 3.39063l2.6836-6.4961m-2.6836 6.4961l-2.4414.23828m2.83202-1.1836l-2.4414.23828m16.16797.9297l1.08203-6.94141m-1.08203 6.9414l-2.32032.80469m14.59766-1.13672l3.15625-6.27734m-3.15625 6.27734l-2.45313.05469m16.65235.25l1.38672-6.88672m-1.38672 6.88672l-2.35156.70312"/><g clip-path="url(#T)"><path fill="none" stroke="#000" stroke-linecap="round" stroke-linejoin="round" stroke-miterlimit="10" stroke-width=".5" d="M147.19922 412.30078l-6.39844 2.90235"/></g><path fill="none" stroke="#000" stroke-linecap="round" stroke-linejoin="round" stroke-miterlimit="10" stroke-width=".5" d="M147.19922 412.30078l1.94531 1.5m11.1211-1.95703l-5.90235 3.82031m5.90234-3.82031l2.14454 1.19531m11.25-1.0664l-6.0586 3.5625m5.17578-3.04297l1.04688.64062m13.63281.63672l-7.02344-.03125m6.00391.02735l.57031 1.08593m13.75-.77734l-6.9961-.64063m5.98048.54688l.47265 1.13281m13.7461-2.29297l-6.77344 1.86719m5.78906-1.59766l.84375.89453m12.23047 2.53907l-4.32031-5.53906m3.6914 4.73437l-.5 1.1211m11.97266.41406l.6211-7m-.6211 7l-2.25781.95703m16.96484-1.11328l-2.16406-6.6875m1.85156 5.71484l-.85547.8789m15.73438-.625l-4.66406-5.2539m3.98437 4.49219l-.42578 1.14843m15.20313-4.6328l-6.23047 3.24218m5.32422-2.77344l1.01171.69531m13.34766-.87109l-6.5039 2.65625m5.55859-2.26953l.9414.78516m8.73438-3.09766l2.66015 6.5039m-2.27343-5.55468l.78515-.94531m15.96485 5.72656l-4.98047-4.95313m4.25781 4.23438l-.35547 1.17187m15.07031-4.44922l-6.33593 3.03516m5.41406-2.59375l.98828.73047m9.66797-3.14063l.82812 6.97657m-.70703-5.96094l1.00782-.70313m9.77343 1.08594l5.65235 4.17578m-4.82813-3.5664l.17969-1.21485m11.77344 1.6797l6.72656 2.03124m7.82812-3.8125l4.25 5.59375m-3.6328-4.78125l.51562-1.11328m12.65234-.0039l3.3086 6.19921m-3.3086-6.19922l1.36719-2.03515m10.77344 3.05468l5.65625 4.16407m-5.65625-4.16407l.35546-2.42968m14.21094 7.65234l3.15235-6.28125m-3.15235 6.28125l-2.45312.0586m18.30468.17968l-1.91796-6.75781m1.64062 5.77344l-.88672.85156m11.4961-.375l4.04687-5.74219m-3.45703 4.90625l-1.21875-.15234m18.01953.96875l-4.10156-5.70703m3.5039 4.8789l-.54296 1.09766"/><g clip-path="url(#U)"><path fill="none" stroke="#000" stroke-linecap="round" stroke-linejoin="round" stroke-miterlimit="10" stroke-width=".5" d="M146.85547 398.39453l-5.71094 4.08985"/></g><path fill="none" stroke="#000" stroke-linecap="round" stroke-linejoin="round" stroke-miterlimit="10" stroke-width=".5" d="M146.85547 398.39453l2.19922 1.08985m11.15234-1.03907l-5.78516 3.98828m4.94532-3.41015l1.08594.5664m13.61328.1172l-6.8711 1.46093m5.8711-1.2461l.78906.9375m13.45703.58204l-6.73438-2.00782m5.75391 1.71485l.24219 1.20312m11.03125 1.58203l-.6875-6.99218m.58594 5.97656l-1.02344.67969m13.11719.21484l1.95312-6.75m-1.66797 5.76953l-1.19922.25m14.125.69922l2.16016-6.6875m-1.84375 5.71484l-1.20703.21485m16.05469.84375l-1.53516-6.85938m1.53516 6.85938l-1.86328 1.59765m16.625-2.29687l-4.42579-5.46094m3.78125 4.66797l-.48047 1.1289m12.01563.44141l.42188-7.01562m-.42188 7.01562l-2.23047 1.01953m17.92969-1.76562l-4.34766-5.52344m3.71485 4.71875l-.4961 1.125m15.73047-2.46484l-6.91797-1.23047m6.91797 1.23047l.7539 2.33203m7.50782.1836l3.1875-6.26563m9.53125 5.8789l4.38281-5.49218m-4.38281 5.49218l-2.41406-.44921m15.08594-.21875l5.66796-4.15625m7.53125.16796l5.89844 3.82422m-5.03906-3.26953l.10547-1.22265m11.78515 2.55859l7.02735.03906m-6.0039-.03125l-.57032-1.08984m13.6211 3.28515l5.5078-4.36718m-4.70312 3.73046l-1.125-.48828m17.1914-4.48046l-1.60156 6.84375m1.60157-6.84375l2.37109-.625m9.02734.71484l2.23047 6.66406m-2.23047-6.66406l1.6875-1.77735m9.2461 4.78516l6.9961.65235m-6.9961-.65235l-.94922-2.26562m14.45703 1.39843l6.60938 2.38672m-5.64844-2.03906l-.17188-1.21484m17.82422 4.95312l-3.98828-5.78515m3.98828 5.78515l-1.13281 2.17578m15.6289-3.5664l-6.35156-3.00391m5.42969 2.5664l.0586 1.22266m14.51562-2.20703l-7.02344-.16015"/><g clip-path="url(#V)"><path fill="none" stroke="#000" stroke-linecap="round" stroke-linejoin="round" stroke-miterlimit="10" stroke-width=".5" d="M467.07422 400.51953l1.10156 2.1914"/></g><path fill="none" stroke="#000" stroke-linecap="round" stroke-linejoin="round" stroke-miterlimit="10" stroke-width=".5" d="M466.05078 400.4961l1.10547 2.1914"/><g clip-path="url(#W)"><path fill="none" stroke="#000" stroke-linecap="round" stroke-linejoin="round" stroke-miterlimit="10" stroke-width=".5" d="M146.67188 384.84375l-5.34375 4.5586"/></g><path fill="none" stroke="#000" stroke-linecap="round" stroke-linejoin="round" stroke-miterlimit="10" stroke-width=".5" d="M146.67188 384.84375l2.28515.90234m11.8711 1.27344l-7.02344.20703m7.02344-.20703l1.21484 2.13281m12.10156-2.02734h-7.02734m7.02734 0l1.15234 2.16406m8.9922-5.66406l-.6875 6.9961m.58593-5.97657l1.13672-.46875m8.4375 3.26953l6.9961-.64453m-5.97657.55078l-.67578-1.02344m13.73047 2.9961l5.47656-4.40235m-5.47656 4.40235l-2.2539-.96485m3.05077.32422l-1.125-.48046m17.78125 2.14453l-2.79687-6.44922m2.79687 6.44922l-1.53125 1.91796m16.91797-4.58593l-6.9414-1.11328m6.9414 1.11328L241.46875 390m-1.80469-2.48438l.39844 1.16016m13.875-.73828l-6.83594-1.6289m6.83594 1.6289l.6211 2.375m12.77734-3.4961l-7 .61329m7-.61328l1.33594 2.05859m-2.35547-1.96875l.66797 1.03125m13.58203-1.64453l-6.82813 1.66015m6.82813-1.66015l1.6289 1.83203m11.71875-1.67188l-6.89843 1.33985m5.89453-1.14453l.77343.95312m13.35938-1.78906l-6.52344 2.6211m6.52344-2.6211l1.875 1.58203m11.59766-1.07422l-6.83985 1.60938m6.83985-1.60938l1.61718 1.84375m10.65625-3.625l-4.75781 5.17188m4.0664-4.42188l1.1875.3086m13.52735-.15625l-6.17187 3.36328m6.17187-3.36328l2.04688 1.35156m-2.94532-.86328l2.04688 1.35156m12.47265-1.07031l-6.78515 1.82422m6.78515-1.82422l1.67579 1.79297m-2.66407-1.52735l1.67578 1.79297m12.1211-3.14844l-5.77344 4.00391m5.77344-4.0039l2.1836 1.125m-3.02345-.54298l1.08985.5625m11.83594-2.24218l-3.3125 6.19922m3.3125-6.19922l2.45312.00781m-2.9336.89453l1.22657.0039m12.91406-.6953l-4.0039 5.77734m4.0039-5.77735l2.4375.28907m-3.01953.55469l2.4375.28515m11.875-.78906l-4.83203 5.10156m4.83203-5.10156l2.36328.65234m-3.0664.08985l2.36328.65234m12.05078-.94922l-5.625 4.20703m5.625-4.20703l2.21875 1.04297m-3.03906-.42969l1.11328.51953m12.6914 3.45704l-4.96875-4.96875m4.96875 4.96875l-.71484 2.34375m13.11719-1.6875l-3.14063-6.28516m3.14063 6.28515l-1.42188 2m16.60938-4.43359l-6.88282-1.41406m6.88282 1.41406l.6914 2.35156"/><g clip-path="url(#X)"><path fill="none" stroke="#000" stroke-linecap="round" stroke-linejoin="round" stroke-miterlimit="10" stroke-width=".5" d="M146.875 371.78516l-5.75 4.04687"/></g><path fill="none" stroke="#000" stroke-linecap="round" stroke-linejoin="round" stroke-miterlimit="10" stroke-width=".5" d="M146.875 371.78516l2.1875 1.10937m-3.02344-.51953l1.09375.55469m12.08594-2.07422l-3.80469 5.90625m3.25-5.04688l1.22266.10157m11.21875-1.48829l-.95313 6.96094m15.57032-6.51172l-3.5547 6.0625m3.5547-6.0625l2.45312.10547m9.40234-.57422l-.6328 7m.6328-7l2.25782-.95312m13.89062 6.0039l-6.30469-3.10546m6.3047 3.10546l.07812 2.45313m-.9961-2.90234l.03907 1.22656m14.08984-.58203l-6.09375-3.49219m6.09375 3.49219l-.07813 2.45312m13.10938-2.02734l-5.52734-4.34375m5.52734 4.34375l-.4336 2.41406m14.22657-3.22656l-6.48047-2.71875m6.48047 2.71875l.22266 2.4414m-1.16797-2.83984l.11328 1.22266m14.39062-1.73438l-6.96875-.89844m6.96875.89844l.86719 2.29688m-1.88281-2.42969l.4336 1.14844m13.6914-2.72266l-6.5586 2.51563m6.5586-2.51563l1.85156 1.60938m-2.80469-1.2422l.92578.8047m13.52735-.4961L287 374.39062m6.92969-1.16406l1.4961 1.94531m-2.50391-1.77734l.75.97266m13.60156-.92969l-6.98828.74219m6.98828-.74219l1.375 2.03516m11.3164-3.69141l-5.73828 4.05469m5.73828-4.05469l2.19141 1.10156m11.48047-.47265l-6.44922 2.79296m6.44922-2.79296l1.91797 1.53125m11.53906-1.13282l-6.73828 1.9961m6.73828-1.9961l1.72266 1.75m11.58984-1.76562l-6.72656 2.03125m6.72656-2.03125l1.72656 1.73828m-2.70703-1.44531l1.73047 1.74219m12.2539-2.75782l-6.10937 3.47656m6.10938-3.47656l2.07422 1.3125m-2.96485-.8086l1.03906.65626m12.50782-1.99219l-4.78907 5.14063m4.78907-5.14063l2.37109.63281m-3.0664.11329l1.18359.3164m12.79687-1.08984l-4.73047 5.19531m4.73047-5.19531l2.375.60547m-3.0625.14843l2.375.60547m11.9414-1.03125l-5.35937 4.53906m5.35938-4.53906l2.28125.90625m-3.0586-.2461l2.27735.90626m12.04297-1.27344l-5.8125 3.94922m5.8125-3.94922l2.16797 1.14453m-3.01563-.57031l2.17188 1.14453m12.55078-.30469l-6.9336 1.125m6.9336-1.125l1.48437 1.95313m-2.49218-1.78906l1.48437 1.95312m12.85547-2.01172l-6.96875.91406m6.96875-.91406l1.42187 2m-2.4375-1.86719l1.42579 2m12.90234-1.1875l-6.96094-.97656"/><g clip-path="url(#Y)"><path fill="none" stroke="#000" stroke-linecap="round" stroke-linejoin="round" stroke-miterlimit="10" stroke-width=".5" d="M467.04297 374.29688l.83984 2.30468"/></g><path fill="none" stroke="#000" stroke-linecap="round" stroke-linejoin="round" stroke-miterlimit="10" stroke-width=".5" d="M466.02734 374.15234l.42188 1.15235"/><g clip-path="url(#Z)"><path fill="none" stroke="#000" stroke-linecap="round" stroke-linejoin="round" stroke-miterlimit="10" stroke-width=".5" d="M145.28516 357.22266l-2.57032 6.53906"/></g><path fill="none" stroke="#000" stroke-linecap="round" stroke-linejoin="round" stroke-miterlimit="10" stroke-width=".5" d="M145.28516 357.22266l2.4375-.27735m9.84375.04297l-.5 7.00781m.5-7.0078l2.24218-.9961m12.73828 1.5586l-3.83593 5.88671m3.83594-5.88672l2.4453.21485m-3 .64062l1.21876.10938m14.07812.89453l-6.6875 2.16796m6.6875-2.16796l1.76172 1.70312m10.67188-3.125L194.79688 363m4.92578-5.01172l2.35156.69531m11.80469.6172l-6.60938 2.38671m6.60938-2.38672l1.8203 1.64453m-2.78124-1.29687l1.82031 1.64453m12.6211-.2461l-6.9375-1.10546m6.9375 1.10546l.79687 2.32032m-1.80469-2.48438l.79688 2.32422m13.48828-3.47656l-6.85938 1.52344m6.85938-1.52344l1.59375 1.86719m-2.59375-1.64454l1.59375 1.86329m-2.58984-1.64063l.79687.92969m14.2461-2.14063l-6.32813 3.0586m6.32812-3.0586l1.98047 1.44922m-2.90234-1.0039l1.98047 1.44921m-2.89844-1.0039l.98828.72265m14.14063-1.67187l-6.27344 3.17188m6.27344-3.17188l2.0039 1.41406m-2.91797-.94922l2.00391 1.41016m12.33203-1.63281l-6.48828 2.6914m6.48828-2.6914l1.89453 1.5586m-2.83593-1.16798l.9453.78125m13.10548-1.58984l-6.07813 3.52344m6.07813-3.52344l2.08593 1.29687m-2.96875-.78515l1.04297.64844M306.67578 358.5l-5.78906 3.98438m5.78906-3.98438l2.17578 1.13281m11.03125-1.27734l-5.57422 4.27734m5.57422-4.27734l2.23438 1.01562m11.39844-.52343l-6.20704 3.29296m6.20704-3.29296l2.03125 1.375m-2.9336-.89844l2.03125 1.375m12.51172-.96485l-6.85937 1.51954m6.85937-1.51954l1.59375 1.86329m-2.59375-1.64454l.79688.9336m13.08593-2.22266l-5.9961 3.66016m5.9961-3.66016l2.11328 1.2461m11.39063-.89844l-6.3711 2.96484m6.3711-2.96484l1.95703 1.47656m-2.88672-1.04687l.98047.73828m12.85547-1.83985l-5.55469 4.3047m5.55469-4.3047l2.23828 1.00782m-3.04687-.38282l2.23828 1.00782m11.16797-2.32422l-4.1211 5.6875m4.1211-5.6875l2.43359.33984m-3.03125.48828l1.21484.16797m12.66797-1.01953l-4.0586 5.73438m4.0586-5.73438l2.4336.3125m-3.02344.52344l1.21484.15234m13.32813-.40625l-5.33985 4.57031m5.33985-4.5703l2.28515.89843m-3.0625-.23047l1.14453.44531m13.625.10156l-6.6914 2.14454m6.6914-2.14454l1.75782 1.71094m-2.73047-1.39844l.8789.85547m13.29688-1.46875l-6.46875 2.7422m6.46875-2.7422l1.90625 1.54688m-2.84766-1.14844l.95313.77344m13.5625-.1914l-6.98438.78515"/><g clip-path="url(#aa)"><path fill="none" stroke="#000" stroke-linecap="round" stroke-linejoin="round" stroke-miterlimit="10" stroke-width=".5" d="M467.05469 360.10156l1.38672 2.02344"/></g><path fill="none" stroke="#000" stroke-linecap="round" stroke-linejoin="round" stroke-miterlimit="10" stroke-width=".5" d="M466.03906 360.21484l.6914 1.01172"/><g clip-path="url(#ab)"><path fill="none" stroke="#000" stroke-linecap="round" stroke-linejoin="round" stroke-miterlimit="10" stroke-width=".5" d="M143.6836 343.67969l.6328 6.9961"/></g><g clip-path="url(#ac)"><path fill="none" stroke="#000" stroke-linecap="round" stroke-linejoin="round" stroke-miterlimit="10" stroke-width=".5" d="M143.6836 343.67969l2.05077-1.34375"/></g><path fill="none" stroke="#000" stroke-linecap="round" stroke-linejoin="round" stroke-miterlimit="10" stroke-width=".5" d="M155.98047 343.92969l2.67187 6.4961m-2.67187-6.4961l1.5625-1.89063m14.65234 1.99219l-3.13281 6.29297m3.13281-6.29297l2.45313-.0625m-2.90625.98047l1.22656-.03516m13.80469.17969l-5.65625 4.16797m5.65625-4.16797l2.21094 1.0586m-3.03516-.45313l1.10937.53125m13.33594-.64063l-6.26953 3.17579m6.26953-3.17579L202.40234 347m11.26172-1.4961l-6.17969 3.34766m6.1797-3.34765l2.04687 1.35937m-2.94531-.8711l2.04296 1.35548m12.2461-1.69532l-6.32813 3.05079m6.32813-3.05079l1.98047 1.45313m-2.90235-1.00781l1.98047 1.44921m-2.89844-1.0078l.98828.72656m14.06641-1.8086l-6.1289 3.4414m6.1289-3.4414l2.0664 1.32422m-2.95702-.82422l2.0625 1.32422m11.8828-2.22266l-5.60546 4.23829m5.60547-4.23829l2.22266 1.03516m-3.03907-.41797l2.22656 1.03516m12.1172-1.33594l-6.03126 3.60547m6.03125-3.60547l2.10156 1.26953m-2.98046-.7461l2.10156 1.26954m11.89453-2.08985l-5.63281 4.19922m5.63281-4.19921l2.21875 1.04687m-3.03906-.4375l1.10937.52344m13.22266-.83594l-6.03125 3.60547m5.15625-3.08203l1.04687.63281m13.2461-.97266l-6.23438 3.23829m5.32813-2.76563l1.01172.69531m13.55859-.125l-6.9336 1.15235m5.92579-.98438l.7461.97656m13.11718-2.3828l-6.01563 3.6289m6.01563-3.6289l2.10547 1.2578m-2.98047-.73046l1.05469.6289m13.32812-.78906l-6.40234 2.89453m6.40234-2.89453l1.94531 1.5m-2.875-1.07813l1.94141 1.5m12.4961.4336l-6.78516-1.8164m6.78515 1.8164l.5547 2.39062m-1.53907-2.65625l.27344 1.19531m13.98046-.76171l-6.6914-2.15235m6.6914 2.15235l.4336 2.41406m-1.41016-2.72656l.21875 1.20703m14.22266-2.33203l-6.99219.72265m6.99219-.72265l1.36719 2.03906M400.1953 345.75l-6.41797 2.85547m6.41797-2.85547l1.9336 1.51172m-2.8672-1.09375l.96876.7539m12.60547-2.17578l-5.07032 4.86329m5.07032-4.86329l2.33203.76563m-3.07031-.0586l1.16796.38282m11.8125-1.85156l-2.92578 6.38671m2.92578-6.38671l2.44922-.14844m11.33985.41015l-3.8711 5.86329m3.8711-5.86329l2.44531.23438m11.86328.76172l-5.85937 3.875m5.85937-3.875l2.15625 1.17187m11.6289-.11719l-6.80077 1.76563"/><g clip-path="url(#ad)"><path fill="none" stroke="#000" stroke-linecap="round" stroke-linejoin="round" stroke-miterlimit="10" stroke-width=".5" d="M466.96094 346.29688l1.66015 1.80468"/></g><g clip-path="url(#ae)"><path fill="none" stroke="#000" stroke-linecap="round" stroke-linejoin="round" stroke-miterlimit="10" stroke-width=".5" d="M147.01563 332.0625l-6.03125 3.60156"/></g><path fill="none" stroke="#000" stroke-linecap="round" stroke-linejoin="round" stroke-miterlimit="10" stroke-width=".5" d="M147.01563 332.0625l2.10156 1.26563m-2.98047-.7422l2.10156 1.26954m11.07422-2.88281l-3.9961 5.78125m3.9961-5.78125l2.4375.28515m9.02734-.90625l-.29687 7.02344m.29687-7.02344l2.21485-1.0586m12.57031 1.45313l-3.23438 6.23438m3.23438-6.23438l2.45313-.02734m12.26171 1.34766l-6.03515 3.59375m6.03515-3.59375l2.10157 1.26953m11.30078-1.1211l-6.20703 3.29688m6.20703-3.29688l2.03125 1.375m-2.9336-.89453l1.01563.6875m13.47266-.5l-6.75 1.95703m6.75-1.95703l1.71093 1.76172m-2.69531-1.47656l1.71094 1.76172m12.60937-1.96875l-6.79297 1.80469m6.79297-1.8047l1.66797 1.79688m-2.65625-1.53515l.83594.89843m13.14062-1.96875l-6.13672 3.42188m6.13672-3.42188l2.0586 1.32813m-2.95313-.83203l1.03125.66797m13.04688-1.37891l-5.875 3.85156m5.875-3.85156l2.15234 1.17969m-3.00781-.6211l1.07812.59375m12.45704-1.8789l-4.60547 5.30469m4.60547-5.3047l2.39062.55079m11.96875 1.02734l-6.6914 2.14453m6.6914-2.14453l1.75781 1.71485m11.66016-1.3047l-6.89844 1.32813m6.89844-1.32812l1.54297 1.91015m11.83594-1.29687l-7.02735.10156m7.02735-.10156l1.18359 2.15234m-2.20703-2.13671l.59375 1.07421m13.16015-2.98046l-5.85937 3.8828m5.85937-3.8828l2.15625 1.17187m-3.0078-.60547l1.07812.58203m12.39453-1.91797l-4.46875 5.42188m4.46875-5.42188l2.40234.48829m-3.05469.30078l1.20313.24218m13.36328-.39843l-5.66797 4.15234m5.66797-4.15234l2.21094 1.0703m-3.03516-.46483l1.10547.53515m13.1289 2.875l-5.85937-3.875m5.85938 3.875l-.23438 2.4414m14.02735-5.23437l-6.81641 1.71094m5.82422-1.46094l.82422.91016m13.16406-1.98438l-6.17578 3.35938m5.27734-2.8711l1.02344.67579m13.58203.02734l-6.96094.97656m5.94922-.83203l.71875.99219m13.53516-1.5039l-6.8164 1.71093m5.82421-1.46484l.82422.91015m12.83203-2.48437l-5.51172 4.36328m5.51172-4.36328l2.2461.98437m11.5664-.125l-6.50781 2.64453m6.50781-2.64453l1.88281 1.57422M467 333.14453l-6.8789 1.4375"/><g clip-path="url(#af)"><path fill="none" stroke="#000" stroke-linecap="round" stroke-linejoin="round" stroke-miterlimit="10" stroke-width=".5" d="M467 333.14453l1.57031 1.88281"/></g><path fill="none" stroke="#000" stroke-linecap="round" stroke-linejoin="round" stroke-miterlimit="10" stroke-width=".5" d="M466 333.35156l.78516.94531"/><g clip-path="url(#ag)"><path fill="none" stroke="#000" stroke-linecap="round" stroke-linejoin="round" stroke-miterlimit="10" stroke-width=".5" d="M146.4961 318.07422l-4.9922 4.94531"/></g><path fill="none" stroke="#000" stroke-linecap="round" stroke-linejoin="round" stroke-miterlimit="10" stroke-width=".5" d="M146.4961 318.07422l2.34374.73047m-3.0703-.00781l2.34374.72656m-3.07031-.00781l1.17187.36328m14.33203-.70704l-6.46484 2.75391m6.46484-2.7539l1.91016 1.54296m-2.85156-1.14453l1.91016 1.54297m-2.84766-1.14062l.95312.76953m14.19532-1.67578l-6.3711 2.96484m6.3711-2.96484l1.95703 1.47656m-2.88281-1.04688l.97656.73829m12.25781 3.0664l-4.35938-5.50781M185.4922 322.5L185 323.625m15.60938-2.01563l-6.69922-2.12109m6.69922 2.1211l.4453 2.41406m-1.41796-2.72266l.21875 1.20703m14.14844-1.19531l-6.85938-1.53125m6.85938 1.53125l.65234 2.36719m-1.64844-2.58985l.32422 1.1836m14.0625-1.96094l-7.01172.46875m7.01172-.46875l1.29688 2.08594m-2.31641-2.01563l.64844 1.04297m13.4961-2.03906l-6.62892 2.32422m6.62891-2.32422l1.80469 1.66015m-2.76953-1.32421l.90234.83203m13.41797-1.0586l-6.70703 2.10157m6.70703-2.10157l1.7461 1.72657m11.55859-1.75391l-6.6875 2.15625m6.6875-2.15625l1.76172 1.70703m11.2578-2.375l-6.09765 3.4961m6.09766-3.4961l2.07812 1.30469m11.375-1.04297l-6.37109 2.96875m6.3711-2.96875l1.95703 1.47656m-2.88672-1.04297l.98047.73829m13.48437 1.16406l-6.8164-1.70313m6.8164 1.70313l.59375 2.38281m12.79688-3.71094l-6.96485.95703m6.96485-.95703l1.43359 1.98828m-2.44922-1.85156l.71875.9961m12.44922-3.29297l-4.64063 5.27734m4.64063-5.27734l2.39062.5664m8.60547-1.4414v7.02734m0-7.02734l2.16407-1.15235m10.7539 1.17578l.79297 6.98047m-.79297-6.98047l2.01953-1.39062m13.69532 1.9961l-4.00782 5.76952m4.00782-5.76953l2.4375.28906m11.46875.22266l-5.1875 4.74219m5.1875-4.74219l2.30859.82031m10.72266-1.09765l-4.6211 5.29687m4.6211-5.29687l2.39062.5586m7.73828-1.3125l1.7539 6.80468m-1.5-5.8125l.90626-.82813m9.51562 3.23829h7.02735m12.64843 2.0625l-5.6914-4.1211m4.86328 3.51953l-.16797 1.21485m14.97656-2.7422l-7.02343.13673m7.02343-.13672l1.19532 2.14453m-2.21485-2.125l.59375 1.07031m13.66016-1.78906l-6.85938 1.53516"/><g clip-path="url(#ah)"><path fill="none" stroke="#000" stroke-linecap="round" stroke-linejoin="round" stroke-miterlimit="10" stroke-width=".5" d="M466.99219 319.78125l1.59375 1.86328"/></g><path fill="none" stroke="#000" stroke-linecap="round" stroke-linejoin="round" stroke-miterlimit="10" stroke-width=".5" d="M465.99219 320.0039l1.59765 1.86329"/><path fill="#ff3030" fill-rule="evenodd" d="M366.74219 472.08594h7.6914V461.9414h-7.6914v10.14453"/><path fill="azure" fill-rule="evenodd" d="M368.57422 463.77344h.83203v5.73828h3.19531v.74219h-4.02734v-6.48047"/><path fill="#00f" fill-rule="evenodd" d="M237.33594 467.64844h8.61719V457.5039h-8.6172v10.14453"/><path fill="azure" fill-rule="evenodd" d="M239.16797 459.33594H240v2.82422h3.28516v-2.82422h.83593v6.48047h-.83593v-2.91797H240v2.91797h-.83203v-6.48047"/><path fill="#00f" fill-rule="evenodd" d="M383.80078 441.01953h8.61719V430.8711h-8.61719v10.14844"/><path fill="azure" fill-rule="evenodd" d="M385.63281 432.70703h.83203v2.82031h3.28907v-2.8203h.83203v6.47655h-.83203v-2.91406h-3.28907v2.91406h-.83203v-6.47656"/><path fill="#00f" fill-rule="evenodd" d="M228.45703 423.26563h8.6211v-10.14844h-8.6211v10.14844"/><path fill="azure" fill-rule="evenodd" d="M230.28906 414.95313h.83594v2.8203h3.28516v-2.8203h.83203v6.48046h-.83203v-2.91796H231.125v2.91796h-.83594v-6.48046"/><path fill="#00f" fill-rule="evenodd" d="M370.48438 401.07422h8.62109v-10.14844h-8.6211v10.14844"/><path fill="azure" fill-rule="evenodd" d="M372.3164 392.76172h.83594v2.82031h3.28516v-2.82031h.83203v6.47656h-.83203v-2.91406h-3.28516v2.91406h-.83593v-6.47656"/><path fill="#ff3030" fill-rule="evenodd" d="M295.72656 396.63281h7.69531v-10.14453h-7.6953v10.14453"/><path fill="azure" fill-rule="evenodd" d="M297.5586 388.32031h.83593v5.74219h3.1914v.73828h-4.02734v-6.48047"/><path fill="#ff3030" fill-rule="evenodd" d="M437.7539 396.63281h7.69532v-10.14453h-7.69531v10.14453"/><path fill="azure" fill-rule="evenodd" d="M439.58594 388.32031h.83594v5.74219h3.1914v.73828h-4.02734v-6.48047"/><path fill="#ff3030" fill-rule="evenodd" d="M193.64453 365.5664h7.69531v-10.14452h-7.6953v10.14453"/><path fill="azure" fill-rule="evenodd" d="M195.47656 357.2539h.83594v5.73829h3.1914v.74219h-4.02734v-6.48047"/><path fill="#ffffe0" fill-rule="evenodd" d="M421.63281 418.83984h22.1836v-10.1914h-22.1836v10.1914"/><path fill-rule="evenodd" d="M425.13281 410.48047h.51172v6.29687h-.78906v-4.49218h-1.38672v-.5547l.5586-.0664.2539-.05078.22656-.08984.20313-.14453.17578-.20704.14062-.29687.10547-.39453m4.8164 0l.22657.01953.21875.05469.21094.08984.19531.1211.1836.14843.17187.17578.30078.42188.24219.49219.17969.54687.11328.57813.03906.58984-.03906.59375-.11328.58594-.1797.55469-.24218.5-.30078.42968-.17188.17969-.18359.15234-.19531.125-.21094.08985-.21875.0586-.22656.01952-.23047-.01953-.21875-.0586-.20703-.08984-.19922-.125-.1836-.15234-.17187-.17969-.30078-.42969-.24219-.5-.17969-.55468-.11328-.58594-.03906-.59375h.83594l.02734.5664.08203.50391.125.4414.16407.375.1914.30079.21094.22266.22266.13671.22656.04688.22656-.04688.22266-.13671.20703-.22266.1914-.30078.16407-.375.125-.4414.08203-.50391.02734-.56641-.02734-.5586-.08203-.5-.125-.4375-.16406-.36327-.19141-.29297-.20703-.21485-.22266-.13281-.22656-.04297-.22656.04297-.22266.13281-.21094.21485-.1914.29296-.16407.36329-.125.4375-.08203.5-.02734.55859h-.83594l.03906-.58984.11329-.57813.17968-.54687.24219-.4922.30078-.42187.17188-.17578.18359-.14844.19922-.12109.20703-.08984.21875-.05469.23047-.01953m4.94922 0l.23047.01953.21875.05469.20703.08984.19922.1211.18359.14843.17188.17578.30078.42188.24218.49219.1797.54687.11327.57813.03906.58984-.03906.59375-.11328.58594-.17969.55469-.24218.5-.30079.42968-.17187.17969-.1836.15234-.19921.125-.20703.08985-.21875.0586-.23047.01952-.22656-.01953-.21875-.0586-.21094-.08984-.19531-.125-.1836-.15234-.17187-.17969-.30079-.42969-.24218-.5-.17969-.55468-.11328-.58594-.03906-.59375h.83203l.03125.5664.08203.50391.125.4414.16406.375.1875.30079.21094.22266.22265.13671.22657.04688.22656-.04688.22266-.13671.21093-.22266.19141-.30078.16406-.375.125-.4414.08203-.50391.02735-.56641-.02735-.5586-.08203-.5-.125-.4375-.16406-.36327-.1914-.29297-.21094-.21485-.22266-.13281-.22656-.04297-.22656.04297-.22266.13281-.21094.21485-.1875.29296-.16406.36329-.125.4375-.08203.5-.03125.55859h-.83203l.03906-.58984.11328-.57813.17969-.54687.24219-.4922.30078-.42187.17187-.17578.1836-.14844.1953-.12109.21094-.08984.21875-.05469.22657-.01953m4.95312 0l.38672.02734.35938.08203.32421.13672.27735.1875.23047.23828.17578.28516.10547.33203.03906.3789-.01953.27344-.0586.23438-.08593.19922-.11328.17187-.12891.14454-.14063.12109-.28515.19531.23047.1211.20703.14453.1836.17187.15234.19531.125.21094.08984.23047.05469.2461.01953.2539-.03516.3086-.10156.32812-.17188.32422-.23828.30469-.30859.26953-.375.21484-.21094.08203-.22656.0625-.2461.03516-.26171.01562-.25781-.01562-.2422-.03516-.22265-.0625-.20703-.08203-.35938-.21484-.28906-.26954-.22265-.30468-.15625-.32422-.09375-.32813-.03125-.30859h.83593l.02344.2539.07813.23438.125.21094.16015.1875.1914.15234.21876.11328.24219.07422.2539.02344.25781-.02344.23829-.07422.21875-.11328.1953-.15234.16017-.1875.12109-.21094.07812-.23437.02735-.25391-.02735-.2539-.07812-.23438-.1211-.21094-.16015-.1836-.19531-.15234-.21875-.11718-.23829-.07032-.2578-.02734-.25391.02734-.2422.07032-.21874.11718-.1914.15235-.16016.1836-.125.21093-.07813.23437-.02344.25391h-.83593l.01953-.2539.05469-.23829.09375-.22656.12109-.20703.15625-.1914.17969-.17188.20703-.15235.23437-.1328-.28906-.19532-.13672-.1211-.1289-.14453-.11329-.17187-.08984-.19922-.05469-.23438-.02344-.27343h.78907l.02344.21484.0664.1875.10156.16797.13672.14063.16797.10937.1875.08203.20703.05078.21875.01563.22266-.01563.20703-.05078.1875-.08203.16406-.10938.13672-.14062.10547-.16797.0664-.1875.02344-.21484-.02343-.21485-.06641-.1914-.10547-.16797-.13672-.14063-.16406-.10937-.1875-.08203-.20703-.05078-.22266-.01563-.21875.01563-.20703.05078-.1875.08203-.16797.10937-.13672.14063-.10156.16797-.0664.1914-.02344.21485h-.78906l.03906-.3789.10937-.33204.17188-.28516.23047-.23828.28125-.1875.3203-.13672.35938-.08203.38672-.02734"/><path fill="#ffffe0" fill-rule="evenodd" d="M323.99219 341.83203h22.17969v-10.1914h-22.1797v10.1914"/><path fill-rule="evenodd" d="M327.48828 333.47656H328v6.29297h-.78906v-4.48828h-1.38672v-.5586l.5586-.0625.2539-.05468.22656-.08985.20703-.14062.17188-.21094.14062-.29297.10547-.39453m4.8164 0l.22657.01563.21875.0586.21094.08983.19531.1172.1836.15234.17187.17578.30078.41797.2461.49218.17968.54688.10938.58203.03906.58984-.03906.59375-.10938.58204-.17969.55468-.24609.5039-.30078.42579-.17188.17969-.18359.15234-.19531.125-.21094.09375-.21875.05469-.22656.01953-.23047-.01953-.21875-.05469-.20703-.09375-.19922-.125-.1836-.15234-.17187-.17969-.30078-.42578-.24219-.5039-.17969-.5547-.11328-.58203-.03515-.59375h.83203l.02734.5625.08203.50782.125.4414.16406.375.19141.30078.21094.21875.22265.14063.22657.04687.22656-.04687.22266-.14063.21093-.21875.1875-.30078.16407-.375.125-.4414.08203-.50782.03125-.5625-.03125-.5625-.08203-.5-.125-.43359-.16407-.36719-.1875-.29297-.21093-.21484-.22266-.1289-.22656-.04688-.22656.04687-.22266.12891-.21094.21484-.1914.29297-.16407.36719-.125.4336-.08203.5-.02734.5625h-.83203l.03515-.58985.11328-.58203.1797-.54688.24218-.49218.30078-.41797.17188-.17578.18359-.15235.19922-.11719.20703-.08984.21875-.0586.23047-.01562m5.08984 0h.50781v6.29297h-.78515v-4.48828h-1.38672v-.5586l.5586-.0625.25-.05468.23046-.08985.20313-.14062.17578-.21094.14062-.29297.10547-.39453m2.82422 2.17188h.78516l.01953-.3164.0625-.28517.09765-.25.14063-.21875.17969-.17187.22265-.1289.26563-.08204.3086-.02734.23827.02344.22266.0625.20703.10156.17578.13672.14844.17578.11328.20312.07422.23829.02344.26171-.01954.26954-.0664.22656-.10938.1914-.15625.17188-.20312.16015-.2461.16797-.6328.38672-.53907.3125-.4375.3164-.34375.32813-.26563.33204-.1914.35156-.125.3711-.0664.39452-.02344.41797h4.21484v-.74219h-3.33203l.08203-.28125.11328-.23828.14844-.20312.1875-.17969.23047-.17188.27734-.17578.71875-.41406.41406-.20703.34766-.23047.27734-.25.22266-.26953.16406-.27734.10938-.28125.0625-.28516.02343-.28125-.04296-.38281-.1211-.35156-.1875-.3047-.2539-.26562-.30079-.21094-.34375-.16015-.3828-.09766-.40626-.03125-.4336.03125-.39843.09766-.35547.16797-.30469.23437-.25.30469-.18359.3711-.11719.44921-.03906.51563"/></g></defs><use xlink:href="#ai"/></svg>