<svg xmlns="http://www.w3.org/2000/svg" role="img" xmlns:xlink="http://www.w3.org/1999/xlink" viewBox="142.45 309.95 326.84 171.84"><defs><clipPath id="a"><path d="M144 311.67188h1v168.65625h-1zm0 0"/></clipPath><clipPath id="b"><path d="M144 311.67188h324v168.65625H144zm0 0"/></clipPath><clipPath id="c"><path d="M467 311.67188h1v168.65625h-1zm0 0"/></clipPath><clipPath id="d"><path d="M144 478h4v2.32813h-4zm0 0"/></clipPath><clipPath id="e"><path d="M146 480h1v.32813h-1zm0 0"/></clipPath><clipPath id="f"><path d="M153 479h8v1.32813h-8zm0 0"/></clipPath><clipPath id="g"><path d="M159 480h2v.32813h-2zm0 0"/></clipPath><clipPath id="h"><path d="M166 479h9v1.32813h-9zm0 0"/></clipPath><clipPath id="i"><path d="M172 480h2v.32813h-2zm0 0"/></clipPath><clipPath id="j"><path d="M180 478h8v2.32813h-8zm0 0"/></clipPath><clipPath id="k"><path d="M186 480h1v.32813h-1zm0 0"/></clipPath><clipPath id="l"><path d="M193 479h8v1.32813h-8zm0 0"/></clipPath><clipPath id="m"><path d="M199 480h2v.32813h-2zm0 0"/></clipPath><clipPath id="n"><path d="M206 479h9v1.32813h-9zm0 0"/></clipPath><clipPath id="o"><path d="M212 480h2v.32813h-2zm0 0"/></clipPath><clipPath id="p"><path d="M220 479h8v1.32813h-8zm0 0"/></clipPath><clipPath id="q"><path d="M226 479h2v1.32813h-2zm0 0"/></clipPath><clipPath id="r"><path d="M233 479h8v1.32813h-8zm0 0"/></clipPath><clipPath id="s"><path d="M239 479h2v1.32813h-2zm0 0"/></clipPath><clipPath id="t"><path d="M246 479h9v1.32813h-9zm0 0"/></clipPath><clipPath id="u"><path d="M252 479h3v1.32813h-3zm0 0"/></clipPath><clipPath id="v"><path d="M260 479h8v1.32813h-8zm0 0"/></clipPath><clipPath id="w"><path d="M274 477h6v3.32813h-6zm0 0"/></clipPath><clipPath id="x"><path d="M286 479h9v1.32813h-9zm0 0"/></clipPath><clipPath id="y"><path d="M302 479h4v1.32813h-4zm0 0"/></clipPath><clipPath id="z"><path d="M314 477h7v3.32813h-7zm0 0"/></clipPath><clipPath id="A"><path d="M329 476h3v4.32813h-3zm0 0"/></clipPath><clipPath id="B"><path d="M343 476h2v4.32813h-2zm0 0"/></clipPath><clipPath id="C"><path d="M356 476h2v4.32813h-2zm0 0"/></clipPath><clipPath id="D"><path d="M368 477h5v3.32813h-5zm0 0"/></clipPath><clipPath id="E"><path d="M382 476h3v4.32813h-3zm0 0"/></clipPath><clipPath id="F"><path d="M393 478h8v2.32813h-8zm0 0"/></clipPath><clipPath id="G"><path d="M407 477h6v3.32813h-6zm0 0"/></clipPath><clipPath id="H"><path d="M420 478h8v2.32813h-8zm0 0"/></clipPath><clipPath id="I"><path d="M425 479h3v1.32813h-3zm0 0"/></clipPath><clipPath id="J"><path d="M433 479h8v1.32813h-8zm0 0"/></clipPath><clipPath id="K"><path d="M439 479h2v1.32813h-2zm0 0"/></clipPath><clipPath id="L"><path d="M446 479h9v1.32813h-9zm0 0"/></clipPath><clipPath id="M"><path d="M452 480h2v.32813h-2zm0 0"/></clipPath><clipPath id="N"><path d="M459 479h9v1.32813h-9zm0 0"/></clipPath><clipPath id="O"><path d="M465 479h3v1.32813h-3zm0 0"/></clipPath><clipPath id="P"><path d="M144 466h4v2h-4zm0 0"/></clipPath><clipPath id="Q"><path d="M144 453h4v2h-4zm0 0"/></clipPath><clipPath id="R"><path d="M144 440h4v1h-4zm0 0"/></clipPath><clipPath id="S"><path d="M144 426h4v2h-4zm0 0"/></clipPath><clipPath id="T"><path d="M144 412h4v3h-4zm0 0"/></clipPath><clipPath id="U"><path d="M144 398h4v5h-4zm0 0"/></clipPath><clipPath id="V"><path d="M144 385h4v4h-4zm0 0"/></clipPath><clipPath id="W"><path d="M144 372h4v4h-4zm0 0"/></clipPath><clipPath id="X"><path d="M144 358h4v5h-4zm0 0"/></clipPath><clipPath id="Y"><path d="M466 359h2v4h-2zm0 0"/></clipPath><clipPath id="Z"><path d="M144 345h4v4h-4zm0 0"/></clipPath><clipPath id="aa"><path d="M466 345h2v3h-2zm0 0"/></clipPath><clipPath id="ab"><path d="M465 345h3v3h-3zm0 0"/></clipPath><clipPath id="ac"><path d="M144 332h4v4h-4zm0 0"/></clipPath><clipPath id="ad"><path d="M466 331h2v3h-2zm0 0"/></clipPath><clipPath id="ae"><path d="M465 332h3v3h-3zm0 0"/></clipPath><clipPath id="af"><path d="M144 319h4v3h-4zm0 0"/></clipPath><clipPath id="ag"><path d="M466 318h2v2h-2zm0 0"/></clipPath><clipPath id="ah"><path d="M465 318h3v3h-3zm0 0"/></clipPath><g id="ai" clip-path="url(#clip1)"><path fill="#fff" fill-opacity="0" fill-rule="evenodd" d="M0 0h1000v1000H0zm0 0"/><path fill="#d3d3d3" fill-opacity="0" fill-rule="evenodd" d="M162.15234 355.86719l-.23437.29297.0586.23437.11718.17188.17578.23437.29297.34766.11328.0586.11719-.17188.0586-.23438.17577-.17578.46485-.17578h.69922l.23437.29297.28906.8164.0586.17579.17578.23046.35156.23438.69922.69922.17188.17578.23437.34765.23438.41016.28906.58203.41015.46485.23047.23437.23438.17578.11719.23047.17578.29297.17187 1.16406v.23438l.0586.28906.05859.11719.11719.11719.34765.41015.11719.17188.17578.17578.17578.23437.11719.17188.17188.35156.05859.23438.23437.40625.23438-.0586-.17578.17578-.0586.92969h-.58203l-.23437-.11328-.34766.11328-.11719.11719-.05859.29297-.0586.17578-.11718.17187-.46484.29297-.0586.23438-.0586.11328v.64453l.0586.17187v.41016l.0586.0586v.40624l.05859.40625.11719.17579.05859.05859.23047.64062-.0586.29297v.69922l-.05859.58203v.23438l-.0586.23047-.05468.35156v1.92187l.05469.1172h.42578l-.36719.11718-.02344.35156.89063 1.16797 1.74219.53906 1.33984.35938v.53906l.08984.8086.53516.71484 1.51953.26953.89063-.08594.08984 1.16406.53516.1797 1.16015-.1797 2.05469-.98437 1.16016-.36328 1.8789-.17578 1.69531-.1797-.17968.71876-1.51563.08594-1.25.08984-.80469.26953-1.07421.8086.26953.71875.53515.89843-.17968.625-.26563.8086.26563 1.07812.625.89844.80468.17969 1.25-.1797-.26562.72267.09766.5039.05468.29297v.17188l.0586.29296v.40625l.17578.1172.35156.11718h.40625l.29297-.17578.11328-.11719.0586-.11719.11718-.23047.0586-.17578.35156-.46484.23047-.17578.17578-.0586.17578.0586.0586.17578.11718.98828.05469.46875.0586.17188.11718.23437.17578.0586.8164.05859h.28907l.11719.23437.05859.40625.0586.35156v1.10547l.11718.29297.11719.34766.28906.69922.17578.35156.58203.7539.35157.17579.17187.0586.46875.23437.64063.46484.34765.23438.29297.17578.29297.05468.23047.0625.8164.34766.29297.17578.11328.17188.35157.35156.11719.17578.52343.64063v.28906l.0586.35156v.34766l.05859.35156.0586.28906.11718.0586.17188.05859h.17578l.58203.23437.17578.1172.17578.28905.17578.23438.11328.23437.29297.23047.11719.11719v.41016l.0586.05468.28906.23438.23437.11719.0586.11718.11718.17188.0586.11719.23047.23437.05859.17578.23437.0586.1172.05859-.1172.11328-.05859.11719v.11719l-.11719.29296-.11719.28907v.58203l.17579.11719.11718.05859.0586.11719.11719.11719.11328.05859.17578.34765.0586.35157.05858.40625v.17578l-.05859.17578-.11719.69922v.17187l.1172.17579.29296.29296h.40625l.17578.1172.11719.17187.11719.29296v.23438h-.52735l-.23047-.23438h-.23437l-.17578.0586-.0586.69922.0586.34765.11719.17579.17578.41015.11718.23047.28907.46875.17578.05469h.52344l.23437.0586.75781.64062.0586.29296v.23438l.05859.0586.23047.34765v.35156l-.11719.17188v.29297l.29297.28906.29297.17578.17187.0586.29297.17577.29297.1172.58203.40624.28906.23438.29297.17578.21875.16015.01563.01172.23047.17579.64062.52343.17578.23438.1172.17578.17577.17578.11328.17188v.64062l.1172.17578.46874.11719.58203.11719.23438.05859.23047.11328.29297.11719.11328.0586.58593.35156.28907.17187.17578.0625.17578.05469.17578.0586.69922.35155.28906.17579.23438.05468.28906.17578.23437.1172.64063.40624.29297.11719.17187.0586.23438.05859.41015.05859.23047.0586.23438.11718.0586.17188-.41017.17578.46875.0586.0586.29296.11328.23438.17578.05468.23438.0586.17578.05859.40625.11719.64062.23437.11719.17188.0586.23437v.17578l-.0586.1172-.0586.40624.23438.23438.11719.05859.34766.11719.64062.23047.17578.11718.28906.1172.17578.17577.23438.46485.58203 1.10546.17578.17579.34766.17578.17578.11719.35156.11718 1.04688.52344.23437.0586.46485.11327.29297.0586.46484.17578.75781.58203.23438.23438.34765.46484.17578.17578.28907.23438.8164.69921.29297.17579.28906.28906.29297.17578.29297.28906.69531.64063.17578.17578.29297.23437.28907.23438.46875.28906.64062.58203.34766.23438.23437.29297.34766.34765.35156.46485.9336.99218.34765.40625.11719.17579.23437.05859.11328.11719.64454.17578.23047.11328.23437.0586.29297.17577.23047.1172.9336.69921.40624.40625.23438.17578.40625.17578.23437.11719.8164.34766.34766.23437.23438.11719.29297.28906.23047.11719.7578.35156.35157.17188.23047.05859.29297.11719.23437.0586.8711.17577h.8164l.46875.23047.17188.0586.875.69921.46484.1172.29297.05858.17578.0586.23047.0586.46875.05859.34766.05859.35156.0586.40625.05859h.29297l.17187.0586v.23046l.17578.17578h.29297l.34766.0586.35156.05859.69922.11719h.64063l.46484-.23438.29297-.17578.17187-.11719.41016-.17187.28906-.17578.9336-.46485.46875-.29297.52343-.29296.46485-.17188.46484-.17578 1.05078-.46485.28906-.11718.41016-.11719.28906-.11719.52735-.17578 1.51562-.69922.58203-.34765.28907-.0586.29297-.0586.34765-.11718.875-.23047.35156-.11719h.11329l.23437-.05859.875-.23437.23438-.0586h.8125l.35156-.0586.8164-.11718.17188-.0586.35156-.05468.29297-.0586.23047-.05859.8164-.17578.17579-.0586h.34765l.23438-.05859.46484-.11718.75781-.17188.23438-.0586h.34765l.41016-.11718.28906-.0586 1.28516-.05859h.28906l.41016-.0586.23047-.05858h.17578l.875-.1172h.40625l.41015-.11718h.34766l.35156-.11328.8711-.0586h1.75l1.04687.28907.41016.11719.28906.11718.35156.11719.28907.11719 1.05078.17187.28906.0586h.29297l.29297.05859.17187.0586.41016.05859.17187.0586.1172.05858h.11718l.11719.0586.35156.0586h.11328l.41016.0664 1.92187.39453 1.92578.39453 1.51953.44922 1.69532.71875 2.14453.80469 1.60547-.71875 1.42968-.80469 1.16016-1.07813 1.25-.44921 3.03516-.71875 1.875-.35938 2.14453-1.34765 2.23437-1.25391 2.5-1.25781 1.69531-.44922 1.78516-.17969 1.16016-.26953.625.53906 1.33984-.26953.71485-.98828.98437-1.34375.44531-.17969.80469-.35937 1.875-.53907 1.78516-.44921 1.25-.26954 1.16015-.08984 1.69922-.08984 1.96094-.26954 1.25-.08984h.53906l.625-.08984h.89063l2.14453-.17969 2.41015-.17969 2.58985-.08984 1.69531.17969 1.60938.08984 1.42968.35938 1.16016.71875 1.875.98828 1.16015 1.52734.26563.71484.6289.08985.35548.89844.53515.53906.53516 1.52734 1.07422.35938h.53515l-.80469.53515.08985 1.70703.71484 2.69532.89063.80468.89453.98829.71484 1.2578 1.78516.53907 1.51953-.17969.35547 1.34375 1.60937-.80469.98047-.53906.26953.26953.31641-.21484.21875-.14453.80078.44922.44922-.35938h.35547l.53515-.26953.53907-.71875.53515-.26953.625-.98828 1.16016.44922.83984.3711 1.39454.61718 1.6953-.17969h1.60548l1.78515.08985.17969-1.70704.53516-1.34375.80468.26954.4922.84765.40233.40625-.08984.53906v.35938l.71485.44922.71093-.26953h1.42969l.35938.98828.4453 1.25781.71485 1.34375 1.25.6289 1.69531.62891.71485-.17969.17969-.53906.98046-.08984.44922.35937.08594 1.25782-.26563.6289-.53515.17969v.53906l.71484.98438.26563.53906.98437.98828.80078 1.07813-.26562.35937-.08985.89844-.625 2.33203-.35546 2.0664-.08985 1.79298-.17969.71875-.08984.53906v1.4375l-.98047 1.88281-.35937 1.70703-.53516.89844-.80469 1.16797-.26562.53906 2.05469 1.2539.08593.35938-.35546.53906-.08985-.17968v.80859l.08985 1.4375-.44532.71484-1.07422.09375-.26562.71485.53515.89844.8047.71875 1.16015.80859 1.33984.26953.44531.35938-.35546.44921-1.78907-.08984-1.25-.44922-.71484-.71875-.625-.08984-.17578 3.58984-.1875 1.3086h89.35937V311.70313h-55.26953v49.08203l.76172.125 3.28906.54296 2.02344 2.83594v2.7539l2.35156.33204 2.34766.33203h4.05078l-1.3789 4.16016-2.02344.70703-2.02344.70312-.54297.34375-2.59375 1.6172-.1875.11718-2.02344-2.07813-.73046-2.74218-2.67188-2.07813-1.375-3.5-.0664-.08203-1.95704-2.67188 2.75-1.41796v-49.08204H294.42187v91.41407l.1172.03125.1328.01172.07422.07421.10547.04688.08985.0586.08593.05859.08985.0586.29687.29687.0586.08984.03125.11719.02734.11719.01563.13671-.03125.1172-.0586.08983-.0586.08594-.04296.10547-.04688.10156-.02734.1211v.14453l.17578.26953.14844.14844.07422.08594.07422.07421.04296.10547.0625.08985.0586.08593.04297.10547.0586.08985.04687.10156.04296.10547.0586.08594.11719.17968.07421.07422.0625.08594.0586.08984.04297.10547.0586.08985.05858.08593.0625.08985.0586.08984.04297.10156.11719.17969.07421.07422.0586.08594.07422.07421.08984.0586.10547.04687h.14844l.1328-.01562.13282.01562.10156-.04687.07422-.07422.04688-.10156-.01563-.13281v-.14844l-.04687-.10547-.02735-.11719-.04687-.10156-.02735-.1211-.04296-.10156-.0625-.08984-.04297-.10156-.04297-.10547-.03125-.11719-.01563-.13281-.01171-.13672.08593-.0586.0586-.08593.12109-.03125.04297.10547.01562.1328v.1172l.0586.10156.0586.08984.08983.0586.14844.14843.0586.08985.04296.10547-.01171.10156.08593.0586.10547.04687.08594.0586.08984.05858.07422.07422-.11719.02735-.10546.04687-.08594.0586-.07422.07421-.0586.08985-.0625.08594-.02734.12109-.04687.10156-.04297.10547-.03125.11719-.01172.13281-.01563.13281v.14844l.02735.11719.04687.10547.04297.10156.0586.08984.07421.07422.08985.0586.07422.07421.08984.0586.0586.08984.04296.10547.04688.10156.11719.03125.1328.01563h.14845l.11718-.03125.10547.04297.04297.10547.04688.10156.02734.1211L299.5 410l.02734.11719.03125.1211.02735.11718.10547.04297.10156.04687.13281-.01562.14844.14844.0625.08593.07422.07422.07031.07422.08984.0625.10547.04297.10156.04297.1172.03125.13671.01562.11719-.03125.07422-.07422.02734-.11718-.01172-.13282-.03125-.12109-.02734-.11719.04297-.10547h.11719l.08984.0625.11719.02735h.14843l.13282.01562h.14843l.13282.01563.1328-.01563h.14845l.1328-.01562.13282-.01172.13672.01172.11719-.02735.13281-.01562.1914-.0586-.05859.17579-.01562.1328-.02735.1211-.01562.13281-.0586.08594-.1328.01563-.10548.04687-.10546.04297-.1172.03125-.11718.02735-.26563.03125h-.14843l-.13281.01562-.07422.07422.05859.08594.14844.14843.11719.1797.07421.0703.08985.0625.08984.0586.08594.0586.08984.05858.10156.04297.10547.0625.10547.04297.08594.0586.10547.04687.10156.04297.17969.11719.0586.08984-.04298.10156-.04687.10547.01562.13281.22266.22266.0586.08985.04296.10156.03125.1211.04297.10155.01563.13282.03125.11718.01171.13672.03125.11719.14844.14844.10156.04297.10547.04296.1172.03125.1328.01563.13672.01563h.11719l.11719-.03125.08984-.0586.04297-.10547.04688-.10156.04296-.10547.03125-.11719.01172-.1328v-.14845l-.01172-.1328-.01562-.13282-.03125-.11719-.04297-.10547-.04688-.10547-.04296-.10156-.04297-.10547-.01563-.13281.01563-.13281.02734-.11719.03125-.11719.02735-.1211.04687-.10155.08984-.0586.08594-.0625.07422-.07422.08984-.05859.22266-.22266.0586-.08593.07421-.07422.11719-.17969.0586-.08594v-.14844l-.07423-.07421-.10156-.04688-.10547-.04297-.10156-.04297-.0586-.08984-.04687-.10547-.02734-.11719.08984-.05859.11719-.03125.10156-.04297.17969-.11719.14844-.14843.01172-.13282-.01172-.10546-.08985-.0586-.1328.01563h-.14845l-.1328.01562-.13282-.01562-.1211-.03125-.08593-.0586-.07422-.07422-.0586-.08984-.0625-.08594-.11718-.17969-.0586-.08593.03125-.1211.08594-.05859.1211-.03125.05859-.08594v-.1211l-.03125-.11718-.0586-.08984-.05859-.08594-.04687-.10547-.02735-.11719-.01562-.1328.0586-.08985.07421-.07422.08984-.0586.1172-.17968.07421-.07422.0586-.08594.14843-.14844.1211-.03125.1328-.01562.13282.01562.07422.07422.04297.10547.01562.13281-.03125.1172-.11719.03124-.1328.01172-.14844.14844-.04297.10547-.04688.10156-.02734.1211-.03125.11718v.14844l.03125.11719.04297.10546.05859.08985.07422.07031.07422.07422.11719.03125.12109.02734.11719-.02734.1328-.01563h.1172l.08984.0586.07422.07422.04687.10546.0586.08594.10156.04688.13281.01562.10547.04297.08594.0586-.01172.10546-.07422.07422-.17969.11719-.05859.08984-.08984.0586-.07032.07422-.07421.07421-.0625.08985-.02735.11719-.01562.1328.01562.13282-.01562.13281v.14844l.01562.13281.02735.1172.03125.12108.07421.07422.08985.0586.08594.0586.08984.05858.11719.03125v.08594l-.10157.04688-.08984.0586-.26563.03124-.11718.02735h-.14844l-.10547.04296-.10156.04688-.0586.08984-.0625.23438-.01171.13281-.03125.1211-.01563.1328v.29298l-.01172.1328.01172.13673.01563.1328.1328.01563.13282.01172.1211.03125.08593.0586.07422.07421.04688.10547.04296.10157.01563.1328v.44532l-.01563.13281v.44532l.03125.26562.02735.11719.01562.13281.03125.11719.08594.21094.03125.26562v.14844l-.03125.11719-.02734.11718-.03125.1211-.02735.11719-.03125.11718-.03125.1211-.01171.1328-.01563.13282.08984.0586.1172-.03125.10155.01562.04688.10547-.03125.26562v.44141l-.04297.10547-.04688.10547-.04296.10156-.04297.10547-.0586.08594-.03125.12109-.04296.11719-.03125.11719-.01563.1328.01563.13282.05859.08984.10547.04688.08594.0586.05859.08593-.01172.13672-.03125.11719-.04297.10156v.44531l-.01562.13281v.14844l-.03125.11719-.04297.10547-.02735.11719-.04687.10546-.04297.10157-.03125.12109-.02734.11719-.03125.13281-.03125.11719-.02735.11719-.04297.10546-.03125.1172-.03125.12108-.01171.13282-.01563.13281v.29688l.02734.11718v.14844l.04688.39844.02734.11719.0586.08984.12109.03125h.14844l.13281-.01563.0586.08985v.11719l-.0586.08984-.08984.0586-.10157.04296-.10546.04688-.08985.05859-.08594.0586-.13671.01562-.1172-.03125-.1328-.01563-.10157.04688-.0625.08594-.01172.13671-.01562.13282-.03125.11719-.02735.11718-.01562.13281-.03125.1211v.29687l.01563.13282.03125.11718v.14844l.01171.13281v.14844l-.02734.11719-.04688.10156-.02734.1211-.03125.11718-.0586.08985-.07421.07421-.10156.04297-.10547.04688-.11719.02734-.1211.03125-.10156-.04687.0586-.08594.10547-.04688.02734-.11718.03125-.11719.02734-.1211.03125-.11718v-.14844l.01563-.13281-.03125-.11719-.04297-.10547-.10547.01563-.07422.07422-.10156.04296-.08984.0625-.07422.07422-.04297.10157-.01563.1328-.03125.1172L304.25 426l-.03125.11719-.02734.11719-.03125.12109-.02735.11719-.03125.11718-.04297.10547-.08984.0586h-.08984l-.1172-.03125-.03124-.08594.01562-.13672-.03125-.11719v-.14844l-.01171-.1328v-.14844l-.0625-.23438-.02735-.1211-.04297-.10156-.04687-.10546-.0586-.08594-.05859-.08985-.04297-.10546-.0625-.08594-.14844-.14844-.0703-.07422-.10548-.04687-.10547-.04297-.10156-.04297-.29687-.29688-.08985-.07421-.08594-.0586-.10546-.04297-.08985-.0625-.08594-.0586-.10546-.04296-.08985-.0586-.08594-.0625-.07421-.0703-.10547-.04688-.08594-.0586-.10547-.04296-.08984-.0625-.10156-.04297-.10547-.04297-.08594-.0586-.10547-.04687-.10547-.04297-.10156-.04687-.08985-.0586-.10156-.04297-.10547-.04296-.08984-.0625-.11719-.02735-.13281-.01562-.13281.01562H299.75l-.13281.01563-.11719-.03125-.08984-.0586-.07422-.07422-.08985-.05859-.10156-.04688h-.14844l-.12109-.02734-.10156-.04297-.07422-.07422-.11719-.17968-.08984-.0586-.10156-.04297-.08985-.0625-.10547-.04296-.08984-.0586-.08594-.0586-.10547-.04687-.0586-.08594-.05858-.08984-.04297-.10547-.04688-.10156-.07422-.07422-.08594-.0586-.07421-.07421-.08985-.0586-.22265-.22265-.04297-.10547-.03125-.26563.10547-.04296h.14453l.10547.04296.07421.07422.08985.0586.08594.0586.10546.04687.08985.05859.14844.14844.0703.07422.14845.14843.0625.08594.07421.07422.08594.0586.07422.07421.08985.0625.08984.0586.08594.05859.26953.17578.10156.04688.10547.04296.10156.04297.04688-.07421.05859-.08594.07422-.07422.07031-.07422.10547.04297.07422.07422.0586.08984.04296.10156.04688.10547.04296.10547.1211.02735.11719-.02735.07421-.08984.04297-.10547.0586-.08985.07422-.07421.10546-.04297.1172-.02735.1328.01172.08985.0586.14844.14843.05859.08985.04297.10547.04687.10156.04297.10547.04297.10156.10547.04688.10547.04296.13281.01563.08594-.0586.0586-.08984.07421-.07422.10547-.04297.11719.02735.10547.04687.10156.04297.10547.04297.10156.04688.17969.11718v.11719l-.01563.13281.01563.13281.01562.13672.0586.08594.10156.04688.1211.02734.11718.03125h.14844l.11719-.03125.05859-.08984.17969-.1172.05859-.08983.07422-.07422.0586-.08594.11718-.17969.17969-.11719.11719.03125.08984.0586.04297.07422-.01563.1328v.1172l.08985.05859h.14843l.13282-.01563.1328-.01171.26563-.03125.10547-.04297.11719-.03125.1211-.02735.07421-.07421.07031-.07422.0625-.08985-.01562-.10547-.04688-.10156-.10156-.04297-.10547-.01562-.11718.02734-.26563.03125h-.14844l-.07421-.07422-.08985-.0586-.11719-.03124-.11718-.02735-.13282-.01562h-.14843l-.13282.01563h-.29687l-.10547-.04688-.14844-.14844-.04297-.10156-.05859-.08984.22266-.22266.08593-.0586.10547-.04296.11719-.03125.13281-.01563.13281.01563.13672.01562.10157.04297.1328-.01172.08985-.0625.10156-.04297.0625-.08984-.04687-.10156-.08984-.0586-.1172-.03125-.10155-.04296-.0586-.08985-.0625-.08984v-.11719l.01563-.13281.10547-.04688.07421-.07031v-.1211l-.08984-.05859-.03125-.11719.08985-.05859.07421-.07422.04297-.10547.0586-.08984.04687-.10156.01563-.13281v-.14844l-.04688-.10547-.04297-.10156-.08984-.0586-.13281-.01562-.10157-.04297-.13671-.01563-.1172-.03125h-.4453l-.13282-.01562-.13281-.01172-.13281-.01563-.11719-.03125h-.14844l-.13281-.01562-.13281-.01172-.26563-.03125-.1211-.04297-.08593-.0586-.07422-.07421v-.14844l.01172-.13281.10547-.04688.10156-.04296.13281-.01563h.15235l.13281-.01562h.29297l.1211.03125.10156.04296.08984.0586.23438.0625.12109-.04688.08984-.05859.10156-.04297.13282-.01562.10547.04296.10156.04688.13281.01172.1211-.02735h.14453l.12109-.03125.11719-.02734.10547-.04687.07421-.07422.08594-.0586.14844-.14843.0586-.08594.04687-.10547.02734-.11719.01563-.10547-.10156-.04296-.08985-.0586-.11719-.03125-.10546-.04297-.08985-.0625-.07422-.08594-.07422-.07421-.10156-.04297-.10547-.04688-.10156-.04297-.0586-.08984-.04687-.10156-.08594-.21094-.0625-.08594-.05859-.08984-.07422-.07422-.08594-.0586h-.26953l-.11719.03126-.08984.05859-.10156.04297-.13281.01562-.10547-.01562-.02735-.11719-.0625-.08984-.11718-.03125-.10157-.04297-.14843-.14844-.03125-.11719-.01563-.10546.07422-.07422.17969-.1172.11719-.02733.11718-.03125.13672.01562.10156.04297.10547.04297.10156.04687.10547.04297.1172.03125.1328.01563.1172.02734.1328.01563.10547-.01563.08985-.0586-.07422-.07421-.10547-.04297-.07422-.07422-.07422-.08984-.14844-.14844-.08593-.0586-.08985-.05859-.07422-.07422-.08984-.0586-.10156-.04687-.1211-.02734-.10156-.04688-.10547-.04296-.11719-.03125-.10156-.04297-.1211-.03125h-.14843l-.11719.03125-.10546.04297-.08594.0625-.17969.11718-.08594.0586-.08984.0586-.10547.04687-.08594.05859-.10547.04297-.10156.04297-.10547.04687-.07422.07422-.05859.08985-.0586.08593-.04687.10547-.0586.08594-.07421.07422-.13281-.01172-.1172-.03125h-.11718l-.07422.07422-.08984.0586-.07422.07421-.08984.0586-.08594.05859-.10547.04687-.10156.04297-.13672.01563-.10156-.04297-.14844-.14844-.10547-.04688h-.08594l-.10547.04688-.10156.04297-.1211.03125-.11718-.03125-.07422-.07422v-.11719l.03125-.1211.07422-.0703.0586-.08985.07421-.07422.11719-.03125.10547-.04296h.29297l.13281-.01563.13672-.01563.10156-.04296.08985-.0586.10156-.04687.08984-.0586.13281-.01171.08985.05859.13281.01172.08984-.0586.08594-.05859.10547-.04297.08984-.0586.08594-.0625.08985-.05859.14843-.14843.0586-.08594.05859-.08985.10547-.04296.13281-.01563.11719.02735.1211.03125.05859-.0586.05859-.08984.03125-.26563.02734-.11719.10547.01172.13281.01563.10157-.04297.08984-.0586.0586-.08984.07421-.07422.0586-.08984.04687-.10156.01172-.13281-.01172-.13282-.04687-.10547-.14844-.14843-.0586-.08985-.05859-.08594-.04297-.10546v-.44532l.01563-.1328v-.14845l.01172-.1328-.0586-.0586-.08984.0586-.10156-.04298-.17969-.11719-.08594-.05859-.0625-.08984-.0586-.08985-.07421-.07421-.08594-.0586-.1211.03125-.10155.01172-.10547.04688-.08594.05859-.10547.04297-.14844.14844-.08984.05859-.08594.0586-.08984.0625-.10547.04296-.13281.01563v-.1211l.10547-.04297.11718-.03125.07422-.0703.04297-.10548v-.14844l-.02734-.11718-.14844-.14844-.13281-.01563h-.14844l-.11719.03125-.10547.04297-.10156.04297-.08984.0625-.11719.02735-.07422-.07422.01172-.13281-.04297-.10157-.04297-.10547-.08984-.05859-.11719.02734-.1211.03125-.11718.03125-.10156.04297-.1211.03125-.10156.04297-.10547.04297-.08984.0586-.10156.01562v-.11719l.01562-.13281-.0586-.08985-.07421.04297-.14844.14844-.0586.08985-.07421.07421-.04688.10547-.04296.10156-.07422.07422-.0586.08985-.07422.07422-.05859.08593-.07422.07422-.08984.0625-.07422.07031-.07422.07422-.10156.01563-.13281.01562-.10547-.04296v-.1211l.14843-.14844.04297-.10156.0586-.08984.04687-.10156.04297-.10547.0586-.08985.03124-.11719.04297-.10156.03125-.1211.02735-.11718.04687-.10547.04297-.10156.04297-.10547.07422-.07031.08984-.0625.08985-.0586.10156-.04296h.29687l.26563-.03125.10547-.04297-.07422-.07422-.11719-.03125-.10547-.04297-.08984-.0586-.10156-.04687-.08985-.0586-.10156-.04296-.10547-.04297-.08984-.0625-.08594-.0586-.10547-.04296-.10156-.04297-.1211-.03125-.11718-.03125-.10157-.04297L297.5 410.25l-.10156-.04297-.08985-.0586-.04296-.10546-.01563-.13281.10156-.04297.13281-.01563.13672.01563.13282-.01563.10156-.04297.0586-.08984.01562-.10547-.08985-.0586-.07421-.07421-.10157-.04297-.08984-.0586-.14844-.14843-.04297-.10547-.01562-.13281v-.29297l-.0586-.08985-.08984-.05859-.07422-.07422-.04297-.10547-.03125-.11718-.0586-.08985-.07421-.07422-.11719-.02734-.07422-.07422-.08984-.0586-.08984-.0625-.08594-.05859-.07422-.07421-.0586-.08594-.04687-.10547-.08594-.0586-.14843-.14843-.19532-.0586-.1328.01563-.10157.04297-.07422.07422-.04688.10156-.04296.10547-.0586.08984-.0586.08594-.29687.29687-.08984.0586h-.08594l-.0625-.08594-.04297-.10547.03125-.11719.0586-.08984.02734-.11719-.01172-.13281-.08984-.0625-.10547.04688-.11719.02734-.11719.03125-.26953.17578-.10156.04688-.11719.02734-.10546.04687-.08985.0586-.10156.04297-.0586-.08594-.04687-.10547.01563-.13281.04687-.10547.07031-.07422.07422-.07031.0586-.08985v-.14843l-.04297-.10547h-.23829l-.10156.04687-.03125.11719-.02734.11719-.03125.1211-.07422.04296-.13281.01563-.07422-.04688-.04297-.10156-.04297-.10547-.04687-.10156-.04297-.10547-.1211.03125-.10156.04297-.13281.01562-.11719.03125-.10547.04297-.08984.0586-.10156.04687-.1211.02734-.13281.01563-.10156-.04297-.0586-.08985-.04687-.10546-.04297-.10157-.04297-.10546v-.1172l.0586-.08984.08593-.05859.17969-.11719.10156-.04687.10547-.04297.10547-.0586.10156-.04296.08985-.0625.10156-.04297.10547-.0586.10156-.04687.08984-.0586.10547-.04296.10156-.04297.08985-.0625.10156-.04297.13672-.01563.11719.03125.10156.04297.1211.03125.10156.04297.10546.04688.10157.04296.10547.04297.10156.04688.10547.04297.10156.04297.10547.04687.08594.0586.10546.04296.1172.03125.10546.04297.10156.04688.08985.0586.10547.04296.10156.04297.10547.04687.11719.02735.10156.04687.1211.02735h.14843l.08594-.0586.01562-.10156.0586-.08984-.02735-.1172-.07422-.07421-.11719-.17969-.07421-.07422-.08985-.07421-.17969-.1172-.08593-.05859-.10547-.04296-.10156-.04688-.26954-.17578-.05859-.08985-.07422-.07421-.0586-.08985-.04296-.10156-.03125-.11719-.01563-.13672v-.5625l-.01171-.1328-.01563-.13282-.03125-.11719-.01562-.13281-.01172-.13281-.03125-.1211-.22266-.22265-.0586-.08594-.01562-.10547.03125-.11719.13281-.01562v-91.41406H172.9922v1.45312l-.0586.23438-.35156 1.05078-.17187.52343-.1172.34766-.17577.41016-.11719.17187-.23438.29297-.23046.0586h-.35157l-.11718.05859-.23047.40625v.29297l.11719.17578.23046.23047.1172.23437.64062.75781.29297.46485.17578.23437.23047.35156.23437.34766.64063.8164.17578.46485.17187.41016.11719.69531.17578.46875.11719 1.39844.0586.46484v.875l.11718 1.04688v4.78125l-.0586.46484-.35156 1.28125-.17578.52344-.11328.41015-.35156.9297L172.93359 336l-.23437.58203-.11719.17578-.17187.34766-.17578.40625-.35157.8164-.0586.29297-.11327.29297-.11719.28906-.0586.17579-.11718.875-.0586.40625-.05859.11718-.0586.17579-.05859.17187-.23047.52734-.11718.17188v.23437l-.11719.23438-.0586.17187-.17577.58594v.28906l-.0586.17579v.29296l-.0586.11329-.05859.52734v.17187l-.05468.23438v2.6211l-.17578.8164-.1172.17578-.17577.23438-.1172.17187-.11327.23438-.58594.93359-.23047.28906-.29297.46485-.17578.23437-.28906.35156-.35156.69922-.11328.23047-.17579.41016-.17578.23046-.40625.52735-.8164.69922-.29297.17187-.28906.23438-.17579.11719-.17578.17578-.52344.40625-.52734.17578-.17187.17578-.23438.05469-.64062.17578h-.75782m12.21094 31.02344l-1.07422.44921.35938.89454 1.25-.71485.44531-.53906-.98047-.08985"/><path fill="#d3d3d3" fill-opacity="0" fill-rule="evenodd" d="M201.50781 416.59766h-.89453l.44922.6289.98047.35938.80469-.08985.4453-.98828-.17577.08985-.71485-.35547-.89453.35547m154.6211 59.0703l-.0586-.52343v-.29297l.11328-.29297.0586-.23046.46875-.46875h.11328l.11719-.11329.11718-.05859h.17579l.23437-.0586h.34766l.23437.0586.11719.0586.23047.17187.0586.17578.11718.58203v.29297l-.11719.17578-.17187.28906-.17579.17579-.52734.52343-.23047.23438-.11719.0586h-.17578l-.11718-.0586-.40625-.29297-.17579-.11719-.11718-.0586-.0586-.11327-.05468-.1172m6.64062-10.95702l-.0586-.17188v-1.10937l.0586-.17188.17578-.0586.17188-.05858h.17578l.23437-.0586.1172.0586.05858.69921-.05859.17188-.11719.17578-.11718.0586-.23438.52343-.11328.0586h-.23438l-.05859-.1172m9.61328-14.39062l-.11719-.17578v-.69922l.29297-.875.1172-.17187.17577-.35156.11328-.23047.1172-.29297.35155-.75781.1172-.23047.17187-.23438h.17578l.11719-.0586h.64062l.11719.0586.23437.23438.17188.11328.35156.29297.11719.11718.11328.17579v.11328l.11719.05859.11718.11719v.69922l-.05859.17578v.23047l-.0586.17578-.34765 1.05078-.11719.23047-.11719.23437-.11718.0586-.23047.23437-.64063.28906h-.875l-.41015-.11718-.64063-.46485"/><path fill="none" stroke="#bebebe" stroke-linecap="round" stroke-linejoin="round" stroke-miterlimit="10" stroke-width=".5" d="M467.95703 311.69531H144.02734v168.625h323.9297v-168.625"/><g clip-path="url(#a)"><path fill="#fff" fill-opacity="0" fill-rule="evenodd" d="M144 475.89063v4.4375h.0039H144V311.67188h.0039H144v164.21875"/></g><g clip-path="url(#b)"><path fill="#fff" fill-opacity="0" fill-rule="evenodd" d="M144.0039 480.32813V311.67188h17.75v131.22265l-2.89843 1.92578 2.89844 2.84766 4.01953-2.84766-4.01953-1.92578V311.67188h35.5078v86.92968l-1.65233 1.83594-1.56641 4.4375 3.21875 3.17969 4.4375-2.42188 2.5586 3.6836 1.8789 3.58203 2.0039-3.58203-2.0039-1.875-3.6836-2.56641-.7539-.88672-2.59375-3.55078-1.84375-1.83594v-86.92969h97.64062v116.58594l-4.4375.6836-2.53906 2.5664 2.53906 2.55469 4.4375-.46094 2.69532-2.09375-2.69532-3.25V311.67187H467.9961v168.65625H144.00391"/></g><path fill="#50fcfc" fill-rule="evenodd" d="M161.7539 447.66797l-2.89843-2.84766 2.89844-1.92578 4.01953 1.92578-4.01953 2.84766m35.5078-39.61328l-3.21874-3.17969 1.5664-4.4375 1.65235-1.83594v3.9375l-1.30469 2.33594 1.30469 1.28906 1.95703-1.28906-1.95703-2.33594v-3.9375l1.84375 1.83594 2.59375 3.55078.7539.88672 3.6836 2.5664 2.0039 1.875-2.0039 3.58204-1.8789-3.58203-2.5586-3.6836-4.4375 2.42188"/><path fill="#00e8fc" fill-rule="evenodd" d="M197.26172 406.16406l-1.30469-1.28906 1.30469-2.33594 1.95703 2.33594-1.95703 1.28906"/><path fill="#50fcfc" fill-rule="evenodd" d="M290.46484 434.0625l-2.53906-2.55469 2.53906-2.5664 4.4375-.6836 2.69532 3.25-2.69532 2.09375-4.4375.46094"/><g clip-path="url(#c)"><path fill="#fff" fill-opacity="0" fill-rule="evenodd" d="M467.9961 480.32813H468V311.67188h-.0039H468v168.65625h-.0039"/></g><g clip-path="url(#d)"><path fill="none" stroke="#000" stroke-linecap="round" stroke-linejoin="round" stroke-miterlimit="10" stroke-width=".5" d="M147.26953 481.6211l-6.53906-2.58204"/></g><g clip-path="url(#e)"><path fill="none" stroke="#000" stroke-linecap="round" stroke-linejoin="round" stroke-miterlimit="10" stroke-width=".5" d="M146.3164 481.24219l.13673 1.21875"/></g><g clip-path="url(#f)"><path fill="none" stroke="#000" stroke-linecap="round" stroke-linejoin="round" stroke-miterlimit="10" stroke-width=".5" d="M160.66406 481.39063l-6.69922-2.125"/></g><g clip-path="url(#g)"><path fill="none" stroke="#000" stroke-linecap="round" stroke-linejoin="round" stroke-miterlimit="10" stroke-width=".5" d="M159.6914 481.08203l.21876 1.20703"/></g><g clip-path="url(#h)"><path fill="none" stroke="#000" stroke-linecap="round" stroke-linejoin="round" stroke-miterlimit="10" stroke-width=".5" d="M174.125 480.69922l-6.98828-.74219"/></g><g clip-path="url(#i)"><path fill="none" stroke="#000" stroke-linecap="round" stroke-linejoin="round" stroke-miterlimit="10" stroke-width=".5" d="M173.10547 480.59375l.46094 1.13672"/></g><g clip-path="url(#j)"><path fill="none" stroke="#000" stroke-linecap="round" stroke-linejoin="round" stroke-miterlimit="10" stroke-width=".5" d="M187.26172 481.48438l-6.63672-2.3086"/></g><g clip-path="url(#k)"><path fill="none" stroke="#000" stroke-linecap="round" stroke-linejoin="round" stroke-miterlimit="10" stroke-width=".5" d="M186.29688 481.14844l.1875 1.21094"/></g><g clip-path="url(#l)"><path fill="none" stroke="#000" stroke-linecap="round" stroke-linejoin="round" stroke-miterlimit="10" stroke-width=".5" d="M200.6289 481.32422l-6.73827-1.98828"/></g><g clip-path="url(#m)"><path fill="none" stroke="#000" stroke-linecap="round" stroke-linejoin="round" stroke-miterlimit="10" stroke-width=".5" d="M199.64844 481.03516l.2461 1.19922"/></g><g clip-path="url(#n)"><path fill="none" stroke="#000" stroke-linecap="round" stroke-linejoin="round" stroke-miterlimit="10" stroke-width=".5" d="M214.0586 480.77734l-6.96876-.89453"/></g><g clip-path="url(#o)"><path fill="none" stroke="#000" stroke-linecap="round" stroke-linejoin="round" stroke-miterlimit="10" stroke-width=".5" d="M213.04688 480.64453l.43359 1.14844"/></g><g clip-path="url(#p)"><path fill="none" stroke="#000" stroke-linecap="round" stroke-linejoin="round" stroke-miterlimit="10" stroke-width=".5" d="M227.40234 480.1836l-7.02343.28906"/></g><g clip-path="url(#q)"><path fill="none" stroke="#000" stroke-linecap="round" stroke-linejoin="round" stroke-miterlimit="10" stroke-width=".5" d="M226.3789 480.22656l.6211 1.0586"/></g><g clip-path="url(#r)"><path fill="none" stroke="#000" stroke-linecap="round" stroke-linejoin="round" stroke-miterlimit="10" stroke-width=".5" d="M240.70313 480l-6.9961.65625"/></g><g clip-path="url(#s)"><path fill="none" stroke="#000" stroke-linecap="round" stroke-linejoin="round" stroke-miterlimit="10" stroke-width=".5" d="M239.6875 480.09766l.67188 1.02343"/></g><g clip-path="url(#t)"><path fill="none" stroke="#000" stroke-linecap="round" stroke-linejoin="round" stroke-miterlimit="10" stroke-width=".5" d="M253.92969 479.47656l-6.8164 1.70313"/></g><g clip-path="url(#u)"><path fill="none" stroke="#000" stroke-linecap="round" stroke-linejoin="round" stroke-miterlimit="10" stroke-width=".5" d="M252.9375 479.72266l.82031.91406"/></g><g clip-path="url(#v)"><path fill="none" stroke="#000" stroke-linecap="round" stroke-linejoin="round" stroke-miterlimit="10" stroke-width=".5" d="M267.26172 481.10938l-6.85156-1.5586"/></g><g clip-path="url(#w)"><path fill="none" stroke="#000" stroke-linecap="round" stroke-linejoin="round" stroke-miterlimit="10" stroke-width=".5" d="M279.42969 483.0039l-4.5586-5.34765"/></g><g clip-path="url(#x)"><path fill="none" stroke="#000" stroke-linecap="round" stroke-linejoin="round" stroke-miterlimit="10" stroke-width=".5" d="M293.88672 479.51953l-6.83985 1.61719"/></g><g clip-path="url(#y)"><path fill="none" stroke="#000" stroke-linecap="round" stroke-linejoin="round" stroke-miterlimit="10" stroke-width=".5" d="M304.80469 480.32813l-.01953-.19922-.0586-.19141-.09375-.17578-.46094-.3789-.1914-.0586-.19922-.01953-.19922.01953-.1914.0586-.46094.3789-.09375.17578-.0586.1914-.01953.19923.01953.19921.0586.19141.09375.17969.46094.375.1914.0586.19922.01952.19922-.01953.1914-.0586.46094-.375.09375-.17968.0586-.1914.01953-.19922"/></g><g clip-path="url(#z)"><path fill="none" stroke="#000" stroke-linecap="round" stroke-linejoin="round" stroke-miterlimit="10" stroke-width=".5" d="M319.82031 482.55078l-5.44531-4.4414"/></g><g clip-path="url(#A)"><path fill="none" stroke="#000" stroke-linecap="round" stroke-linejoin="round" stroke-miterlimit="10" stroke-width=".5" d="M329.46484 476.94531l1.89063 6.76953"/></g><path fill="none" stroke="#000" stroke-linecap="round" stroke-linejoin="round" stroke-miterlimit="10" stroke-width=".5" d="M329.74219 477.92969l.88672-.84766"/><g clip-path="url(#B)"><path fill="none" stroke="#000" stroke-linecap="round" stroke-linejoin="round" stroke-miterlimit="10" stroke-width=".5" d="M344.10156 476.83594l-.7539 6.98437"/></g><path fill="none" stroke="#000" stroke-linecap="round" stroke-linejoin="round" stroke-miterlimit="10" stroke-width=".5" d="M344.10156 476.83594l2.27735-.91406"/><g clip-path="url(#C)"><path fill="none" stroke="#000" stroke-linecap="round" stroke-linejoin="round" stroke-miterlimit="10" stroke-width=".5" d="M357.375 476.83203l-.66797 6.9961"/></g><path fill="none" stroke="#000" stroke-linecap="round" stroke-linejoin="round" stroke-miterlimit="10" stroke-width=".5" d="M357.27734 477.84766l1.13282-.46875"/><g clip-path="url(#D)"><path fill="none" stroke="#000" stroke-linecap="round" stroke-linejoin="round" stroke-miterlimit="10" stroke-width=".5" d="M372.28125 477.39063l-3.85156 5.8789"/></g><g clip-path="url(#E)"><path fill="none" stroke="#000" stroke-linecap="round" stroke-linejoin="round" stroke-miterlimit="10" stroke-width=".5" d="M384.14844 476.84766l-.95703 6.96093"/></g><path fill="none" stroke="#000" stroke-linecap="round" stroke-linejoin="round" stroke-miterlimit="10" stroke-width=".5" d="M384.01172 477.85938l1.14844-.42188"/><g clip-path="url(#F)"><path fill="none" stroke="#000" stroke-linecap="round" stroke-linejoin="round" stroke-miterlimit="10" stroke-width=".5" d="M394.1289 478.28125l5.71485 4.09375"/></g><path fill="none" stroke="#000" stroke-linecap="round" stroke-linejoin="round" stroke-miterlimit="10" stroke-width=".5" d="M394.96094 478.8789l.16406-1.21874"/><g clip-path="url(#G)"><path fill="none" stroke="#000" stroke-linecap="round" stroke-linejoin="round" stroke-miterlimit="10" stroke-width=".5" d="M412.39063 477.5039l-4.1797 5.64844"/></g><path fill="none" stroke="#000" stroke-linecap="round" stroke-linejoin="round" stroke-miterlimit="10" stroke-width=".5" d="M411.78125 478.32422l1.21484.1836"/><g clip-path="url(#H)"><path fill="none" stroke="#000" stroke-linecap="round" stroke-linejoin="round" stroke-miterlimit="10" stroke-width=".5" d="M426.78516 478.8086l-6.33594 3.03906"/></g><g clip-path="url(#I)"><path fill="none" stroke="#000" stroke-linecap="round" stroke-linejoin="round" stroke-miterlimit="10" stroke-width=".5" d="M425.86328 479.2539l.98828.72657"/></g><g clip-path="url(#J)"><path fill="none" stroke="#000" stroke-linecap="round" stroke-linejoin="round" stroke-miterlimit="10" stroke-width=".5" d="M440.39844 479.75781l-6.9336 1.14063"/></g><g clip-path="url(#K)"><path fill="none" stroke="#000" stroke-linecap="round" stroke-linejoin="round" stroke-miterlimit="10" stroke-width=".5" d="M439.39063 479.92578l.74218.97266"/></g><g clip-path="url(#L)"><path fill="none" stroke="#000" stroke-linecap="round" stroke-linejoin="round" stroke-miterlimit="10" stroke-width=".5" d="M453.7539 480.54688l-7.01562-.4375"/></g><g clip-path="url(#M)"><path fill="none" stroke="#000" stroke-linecap="round" stroke-linejoin="round" stroke-miterlimit="10" stroke-width=".5" d="M452.73438 480.48438l.5078 1.11718"/></g><g clip-path="url(#N)"><path fill="none" stroke="#000" stroke-linecap="round" stroke-linejoin="round" stroke-miterlimit="10" stroke-width=".5" d="M467 479.60156l-6.875 1.45313"/></g><g clip-path="url(#O)"><path fill="none" stroke="#000" stroke-linecap="round" stroke-linejoin="round" stroke-miterlimit="10" stroke-width=".5" d="M466 479.8125l.78516.9414"/></g><g clip-path="url(#P)"><path fill="none" stroke="#000" stroke-linecap="round" stroke-linejoin="round" stroke-miterlimit="10" stroke-width=".5" d="M147.5 466.6875l-7 .65234"/></g><path fill="none" stroke="#000" stroke-linecap="round" stroke-linejoin="round" stroke-miterlimit="10" stroke-width=".5" d="M147.5 466.6875l1.34766 2.05078m11.96484-1.375l-6.99219-.69922m6.99219.69922l.92969 2.26953m12.35937-2.07422l-6.9414-1.08984m6.9414 1.08984l.80078 2.32032m12.5547-2.75391l-7.02345-.22266m7.02344.22266l1.08203 2.19922m12.23438-2.35547l-7.02735.08984m6.00391-.07421l.58984 1.07421m13.75-.98828l-7.02734-.11328m6.0039.09766l.5586 1.08984m13.73438-.5625l-6.9375-1.13672m5.92578.96875l.39453 1.16407m13.85937-2.46875l-6.78906 1.80859m5.80078-1.54688l.83594.89844m13.3086-1.625l-6.47266 2.73828m5.53125-2.33984l.94922.77344m13.57812.36718l-7.01563-.33984m5.9961.28906l.52344 1.11328m13.80859-.96875l-7.00781-.52734m5.98828.44922l.49219 1.125m13.5078-2.82031l-6.34374 3.01953m5.42187-2.57813l.98438.73047m13.20703-1.26953l-6.25 3.21484m13.67187.5547l5.53516-4.32423m8.01953-.27734l5.0586 4.8789m-4.32422-4.16796l.33593-1.1797m15.0547-.59374l-.5625 7.0039m.48046-5.98437l1.125-.48828m13.63672-.13281l-3.29297 6.20703m3.29297-6.20703l2.45312-.00391m10.84766-.0039l-3.26172 6.22265m2.78516-5.3164l1.22656-.00782m11.19531-1.28906l-.52734 7.0039m.45312-5.98437l1.1211-.4961m15.32812 1.83204l-6.64453 2.29297m5.67578-1.95704l.89844.83594m13.55078-.44922l-6.97656.84766m5.96094-.72266l.70312 1.00391m13.42578-1.95313l-6.5703 2.4961m6.5703-2.4961l1.84375 1.61329m11.63672.28906l-6.90234-1.3086m5.89844 1.1172l.36328 1.17187m13.79687-.40625l-6.58594-2.45703m5.62891 2.10156l.16016 1.21484m14.32812-1.89844l-7.01562-.3789m5.9961.32422l.51562 1.11328"/><g clip-path="url(#Q)"><path fill="none" stroke="#000" stroke-linecap="round" stroke-linejoin="round" stroke-miterlimit="10" stroke-width=".5" d="M147.5 453.375l-7 .64453"/></g><path fill="none" stroke="#000" stroke-linecap="round" stroke-linejoin="round" stroke-miterlimit="10" stroke-width=".5" d="M147.5 453.375l1.34375 2.05469m11.96875-2.08594l-6.99219.71094m6.99219-.71094l1.36328 2.03906m11.96094-1.48437l-7.01563-.39844m7.01563.39844l1.02734 2.22656m12.22266-1.72266l-6.88281-1.40625m6.8828 1.40625l.69532 2.35157m12.6875-3.23438l-7.01953.35547m7.01953-.35547l1.25781 2.10547M214 452.90625l-6.84766 1.58594M214 452.90625l1.60938 1.85156m11.58203-2.26172l-6.60157 2.40625m6.60157-2.40625l1.82422 1.64063m11.54687-1.47656l-6.71484 2.07812m6.71484-2.07812l1.74219 1.72656m11.25-2.45703l-6.07031 3.53906m6.0703-3.53906l2.08595 1.28906m11.36718-1.02734l-6.34375 3.01562m6.34375-3.01562l1.97266 1.46093m11.4336-1.2539L273.88671 455m6.52734-2.60156l1.8711 1.58593m11.1289-2.1953l-5.89844 3.8203m5.03907-3.26562l1.07422.59766m12.82421-1.52735l-5.34375 4.5664m4.56641-3.89843l1.14063.44922m10.8203-2.30469l-1.08202 6.94531m10.38281-2.94921l6.94922-1.05078m10.73828-2.8711l-1.79688 6.79297m1.53516-5.80469l1.19531-.27734m10.85938-.76953l1.2461 6.91406m-1.2461-6.91406l1.92969-1.51953m10.6914 1.71875l2.63281 6.51562m-2.25-5.5664l.78907-.94141m10.14843 2.07422l6.6211 2.35156m-5.65625-2.01172l-.17969-1.21094m12.85156 3.89063l5.98047-3.6875m-5.10937 3.15234l-1.0586-.6211m19.03516 1.73829l-5.08594-4.85156m4.34766 4.14453l-.33203 1.1836m15.13672-1.6797l-6.58594-2.4453m6.58594 2.4453l.32421 2.4336m12.40235-1.41406l-5.41016-4.48438m5.41016 4.48438l-.4961 2.40234m13.69532-2.26953l-5.17969-4.75m4.42578 4.0586l-.3086 1.1875m14.4961-.63282l-5.41797-4.47656m4.63281 3.82422l-.24609 1.20312"/><g clip-path="url(#R)"><path fill="none" stroke="#000" stroke-linecap="round" stroke-linejoin="round" stroke-miterlimit="10" stroke-width=".5" d="M147.51172 440.2539l-7.02344.25782"/></g><path fill="none" stroke="#000" stroke-linecap="round" stroke-linejoin="round" stroke-miterlimit="10" stroke-width=".5" d="M147.51172 440.2539l1.23047 2.1211m-2.2539-2.08203l.61718 1.0586m13.70312-.58985l-6.98828-.75781m6.98828.7578l.91016 2.27735m12.32422-1.82812l-6.82813-1.65625m6.82813 1.65625l.60937 2.3789m12.70313-2.35547l-6.82031-1.69921m6.8203 1.69922l.59376 2.3789m12.73437-4.01953l-6.84765 1.57813m6.84765-1.57813l1.60938 1.85547m-2.60547-1.625l.80469.92578m13.51953-1.10547l-6.8711 1.47656m6.8711-1.47656l1.57812 1.8789m11.75391-1.77734l-6.91016 1.27735m6.91016-1.27735l1.52734 1.91797m11.78125-1.96484l-6.89453 1.36719m6.89453-1.3672l1.55078 1.90235m11.57032-2.55078l-6.5039 2.66406m6.5039-2.66406l1.88672 1.57031m11.41797-1.59375l-6.48438 2.71094m6.48438-2.71094l1.89843 1.5547m11.58985-1.02345l-6.83203 1.65235m6.83203-1.65235l1.6289 1.83204m11.59375-2.14454l-6.64843 2.27735m6.64843-2.27735l1.79297 1.67579m11.60547-1.39063l-6.8164 1.70313m6.8164-1.70313l1.64453 1.82422m11.33203-2.6836l-6.13672 3.42579m6.13672-3.42578L322.22656 440m11.4336-.95703l-6.4961 2.67969m5.55078-2.28907l.94532.78125m13.375 1.35157l-6.6172-2.36328m5.65235 2.01953l.17969 1.21093m13.38672-4.41796l-5.1914 4.73437m4.4375-4.04687l1.15234.41406m9.86328-2.21875l.91406 6.96875m-.78125-5.95313l1-.71093m10.41406.46093l4.45313 5.4375m-4.45313-5.4375l.94532-2.26172m11.22656 3.98438l6.73828 1.99219m-5.75781-1.70313l-.2461-1.19922m12.4375 1.77344l7.02344.26563m-7.02344-.26563l-1.0664-2.21094m18.28906 5.83594l-.79297-6.98437m.79297 6.98437l-2.01953 1.39063m16.1875-1.59766l-2.4961-6.57031m2.4961 6.5703l-1.61719 1.84767m15.59766-2.1836l-3.82813-5.89453m3.26953 5.03516l-.59375 1.07422m13.33203.26171l-1.55468-6.85156m1.32812 5.85547l-.92969.80078"/><g clip-path="url(#S)"><path fill="none" stroke="#000" stroke-linecap="round" stroke-linejoin="round" stroke-miterlimit="10" stroke-width=".5" d="M147.49219 426.69531l-6.98438.7461"/></g><path fill="none" stroke="#000" stroke-linecap="round" stroke-linejoin="round" stroke-miterlimit="10" stroke-width=".5" d="M147.49219 426.69531l1.375 2.03125m-2.39063-1.92187l.6875 1.01562m13.66016-.91406l-7.01953.32422m7.01953-.32422l1.25 2.11328m-2.26953-2.0664l.625 1.05859m13.71094-1.10156l-7.01954.3164m7.01953-.3164l1.2461 2.11328m12.03906-2.44922l-6.96094.98828m6.96094-.98828l1.4414 1.98437m11.48438-3.15625l-6.1836 3.33203m6.1836-3.33203l2.04297 1.35938m11.57031-.625L207.1875 428m5.78906-1.59375l.84375.89453m13.33594 1.0625l-6.53125-2.58984m5.58203 2.21484l.13281 1.21875m14.09375-.7539l-6.45703-2.76954m5.51953 2.3672l.10157 1.22265m14.19922-3.47266l-6.5547 2.53516m5.60157-2.16797l.92969.80469m13.4961-.65235l-6.8672 1.5m6.8672-1.5l1.58593 1.86719m11.80078-1.35156l-7.01172.46484m7.01172-.46484l1.29297 2.08593m11.92187-2.72265l-6.80859 1.73828m6.8086-1.73828l1.65234 1.8125m11.6211-1.95313l-6.73048 2.01953m6.73047-2.01953l1.72656 1.7461m11.30078-2.4336l-6.15234 3.39453m6.15234-3.39453l2.0547 1.34375m10.96093-1.79687l-5.55469 4.30078m5.55469-4.30078l2.23828 1.00781m8.83203-2.33203l-1.0625 6.94922m12.7539-6.8164l2.1836 6.68359m-1.86328-5.71094l.84766-.88281m10.22265 1.45312l6.03516 3.59766m-5.16016-3.07422l.0625-1.22656m12.10157 1.28125l6.58593 2.4453m-6.58593-2.4453l-.32813-2.4336m14.57031 1.05469l4.73047 5.19922m-4.04297-4.4414l.41407-1.15626m11.10937 3.5664l6.9375-1.13671m-6.9375 1.13672l-1.48437-1.95313m15.92578 4l4.6875-5.23047m-4.6875 5.23047l-2.38282-.58593m3.0625-.17579l-1.1914-.29296m15.51953 1.89453l1.30078-6.90625m-1.30078 6.90625l-2.33984.73047m2.53125-1.73828l-1.17188.36718m14.61328.6836l.66406-6.9961m-.5664 5.97657l-1.13281.47265m15.26171.51563l-1.16015-6.9336m1.16015 6.9336l-1.9453 1.49218"/><g clip-path="url(#T)"><path fill="none" stroke="#000" stroke-linecap="round" stroke-linejoin="round" stroke-miterlimit="10" stroke-width=".5" d="M147.40625 412.89063l-6.8125 1.72656"/></g><path fill="none" stroke="#000" stroke-linecap="round" stroke-linejoin="round" stroke-miterlimit="10" stroke-width=".5" d="M147.40625 412.89063l1.64844 1.8164m-2.64063-1.5664l.82422.91015m13.49219-1.125l-6.83203 1.65625m6.83203-1.65625l1.6289 1.83594m-2.625-1.59375l.81641.91797m13.46875-1.25l-6.78125 1.83594m6.78125-1.83594l1.67969 1.78906m-2.66406-1.52344l.83984.89453m13.32422-1.5664l-6.50781 2.64453m6.5078-2.64453l1.88282 1.57422m11.36719-1.72266l-6.3789 2.94531m6.3789-2.94531l1.95312 1.48438m11.51953 1.05468l-6.6953-2.13281m5.72265 1.82031l.21875 1.20703m11.66016 1.42578l-1.875-6.77343m1.60156 5.78906l-.89063.84375m13.23828.2539l.60547-7m-.60547 7l-2.2578.96094m19.28515-3.60546l-6.8164-1.71485m5.82421 1.46875l.29297 1.1875m14.08594-1.3086l-6.96094-.97655m5.94531.83593l.42188 1.15235m12.96484.92968l-5.07422-4.85937m4.33594 4.15234l-.33203 1.17969m15.35937-2.74219l-7.01953-.32031m5.9961.27344l.52734 1.10937m13.35937-2.95312l-6.11718 3.45703m5.22656-2.95313l1.03515.66016m13.39063-.69922l-6.55469 2.53125m5.59766-2.16406l.92969.80078m13.35937-1.11719l-6.59375 2.42969m5.63672-2.07812l.91406.8203m11.25781-3.26171l-2.39062 6.60937m2.04297-5.64843l1.21484-.17188m13.09766-.47656l-3.6914 5.98047m3.15624-5.10938l1.22266.07813m8.58203-.69531l4.40234 5.47656m-3.76171-4.67969l.48046-1.1289m11.98047.51562l4.82422 5.10937m-4.82422-5.10937l.78516-2.32422m-.08203 3.0664l.39453-1.16015m12.46875.20313l4.32422 5.53906m-4.32422-5.53906l1-2.2422m-.3711 3.04688l1-2.24218m11.8672 1.30468l3.96093 5.80469m-3.96094-5.80469l1.14063-2.17187m-.5625 3.01562l.57031-1.08593m11.20313 1.23046l5.89062 3.82813m-5.89063-3.82813l.21094-2.4453m16.33203 7.85937l-.5664-7.00391m.5664 7.0039l-2.0664 1.32423m15.29297-1.31641l-.39063-7.01563m.33594 5.9961l-1.05078.63281m15.55469.13281L462.23438 410.5m2.26953 5.5586l-.78516.9453"/><g clip-path="url(#U)"><path fill="none" stroke="#000" stroke-linecap="round" stroke-linejoin="round" stroke-miterlimit="10" stroke-width=".5" d="M147.07422 398.73828l-6.14844 3.40235"/></g><path fill="none" stroke="#000" stroke-linecap="round" stroke-linejoin="round" stroke-miterlimit="10" stroke-width=".5" d="M147.07422 398.73828l2.0586 1.33985m11.59374-.48047l-6.82422 1.67968m6.82422-1.67968l1.63672 1.82812M173.9375 399.25l-6.61328 2.3789m6.61328-2.3789l1.8164 1.64844m11.07423-2.46875l-5.76563 4.01562m5.76563-4.01562l2.18359 1.1211m-3.02344-.53517l1.09375.5586m12.90625-1.34766l-5.45703 4.42578m4.66406-3.78125l1.1289.47657m13.29298 2.84765l-6.08594-3.51562m16.6875 5.25781l-.65625-6.9961m.5586 5.97657l-1.02344.67578m15.35547.1289l-2.4922-6.5703m2.4922 6.5703l-1.6172 1.84766m16.63282-3.21875l-5.89453-3.82812m5.89453 3.82812l-.21484 2.44531m14.04687-4.93359l-6.92969 1.14844m5.92188-.98047l.7461.97266m13.35546-1.91407l-6.48828 2.69532m5.54297-2.30079l.94922.77735m7.98047 3.0039l4.17187-5.65625m9.78906-.375l2.88282 6.40625m15.22656-2.15234l-6.70703-2.10156m5.73047 1.79687l.22656 1.20704m12.66015-4.875l-3.89843 5.84765m3.33203-4.9961l1.21875.1211m9.24219-1.23828l2.9453 6.3789m-2.51562-5.45312l.7422-.97656M357.76171 397l-1.4414 6.8789M357.55077 398l1.17969-.34375M373.5 398.86719l-6.28516 3.14062m5.3711-2.6836l.9961.71095m11.30077-2.89454l-2.42187 6.59766m2.42187-6.59765l2.42969-.33594m9.6289.1211l.08985 7.02733m-.08984-7.02734l2.14843-1.17969m9.59766 1.57032l3.22656 6.24218m-3.22656-6.24218l1.39844-2.01563m10.4414 3.46875l6.1797 3.33985m-5.28126-2.85547l.00781-1.22657m17.61328 5.21485l-4.23046-5.60938m3.61718 4.79297l-.51953 1.11328m14.10156-.0625l-3.53515-6.07422m3.53515 6.07422l-1.29296 2.08203m12.28906-1.64843l1.09765-6.94141m-.9375 5.92969l-1.16015.39844"/><g clip-path="url(#V)"><path fill="none" stroke="#000" stroke-linecap="round" stroke-linejoin="round" stroke-miterlimit="10" stroke-width=".5" d="M147.1289 385.52344l-6.2578 3.19922"/></g><path fill="none" stroke="#000" stroke-linecap="round" stroke-linejoin="round" stroke-miterlimit="10" stroke-width=".5" d="M147.1289 385.52344l2.01173 1.40234m11.67187-.11719l-6.9961.62891m6.9961-.6289l1.34375 2.05468m11.36328-3.73828l-5.78125 3.9961m5.78125-3.9961l2.17969 1.125m11.75781.875h-7.02344m7.02344 0l1.15234 2.16406m10.14844-5.34375l-2.9961 6.35547m2.9961-6.35547l2.45313-.11719m-2.88672 1.04297l1.22266-.05859m14.21093.82031l-6.36328 2.98047m6.36328-2.98047l1.96094 1.47266m11.64453.54687l-6.94531-1.05859m6.94531 1.0586l.8125 2.3164m12.41406-3.78516l-6.76953 1.87891m6.76953-1.8789l1.69141 1.77734m11.26563.94922l-6.05079-3.57422m6.05078 3.57422l-.10937 2.44921m13.89453-4.5664l-6.9961.66015m6.9961-.66015l1.35156 2.04687m-2.36718-1.95312l.67578 1.02734m13.57031-1.6289l-6.82422 1.67578m6.82422-1.67578l1.63672 1.83203m-2.6289-1.58594l.8164.91406m13.58203-.60547l-7.0039.56641m7.0039-.5664l1.32031 2.0664m11.99219-1.46875l-7-.625m7 .625l.95313 2.25781m12.0703-4.0039l-6.41796 2.86328m6.41797-2.86328l1.9336 1.5078m11.47265-1.28124l-6.60156 2.41406m6.60156-2.41406l1.82422 1.63672m-2.78516-1.28516l.91406.8164m13.38281-1.10546l-6.64453 2.28515m6.64454-2.28515l1.79687 1.67187m-2.76172-1.33984l.89844.83594m12.73437-2.30469l-5.34765 4.5625m5.34765-4.5625l2.28125.89844m11.25-.61328l-5.78125 3.99218m5.78125-3.99218l2.1797 1.1289m-3.01954-.55078l1.08984.5664m11.92188-2.19921l-3.4961 6.09765m3.4961-6.09765l2.45312.08203m-2.96093.80469l1.22656.04297m12.61719-.91797l-3.53516 6.07422m3.53516-6.07422l2.45312.09765m-2.96875.78516l2.45313.09766m12.05078-.47266l-4.8789 5.0586m4.8789-5.0586l2.35547.67578m-3.06641.0586l2.35938.67578m12.07421-.94141l-5.6953 4.1211m5.6953-4.1211l2.20313 1.08203m-3.03516-.48047l1.10156.53906m13.57032 1.91016l-6.7461-1.98047m6.7461 1.98047l.49219 2.40235m10.62109-.07813l-2.34375-6.625m2.0039 5.66016l-.82812.90234m16.46484-1.69922l-6.30468-3.10547m6.30468 3.10547l.07422 2.45313m-.99219-2.90235l.03516 1.22656"/><g clip-path="url(#W)"><path fill="none" stroke="#000" stroke-linecap="round" stroke-linejoin="round" stroke-miterlimit="10" stroke-width=".5" d="M147.1914 372.34375l-6.3828 2.92969"/></g><path fill="none" stroke="#000" stroke-linecap="round" stroke-linejoin="round" stroke-miterlimit="10" stroke-width=".5" d="M147.1914 372.34375l1.95313 1.48828m-2.8789-1.0625l.97265.74219m13.1289-1.44531l-6.10155 3.48437m6.10156-3.48437l2.07422 1.30859m9.0664-2.96875l-1.7539 6.80469m1.49609-5.8164l1.19531-.28517m11.21875-.80468l.5625 7.00781m-.48047-5.98828l1.03516-.66016m14.67188.39844l-4.38282 5.49219m4.38281-5.49219l2.41016.44922m-3.05078.34765l1.20703.22657m13.91406.6914l-6.71875 2.0586m6.71875-2.0586l1.73828 1.73438m-2.71484-1.4336l1.73438 1.73438m12.71093-1.14453l-7.02343.28125m7.02343-.28125l1.23438 2.1211m-2.25781-2.07813l1.23828 2.11719m12.88281-3.2422l-6.58984 2.44532m6.58984-2.44531l1.83203 1.6289m-2.79297-1.27343l1.83594 1.6289m12.63281-1.17969l-6.97656.83594m6.97656-.83594l1.40235 2.01563m-2.41797-1.89453l1.40234 2.01562m12.95313-1.80468l-7.02344.17187m7.02344-.17187l1.20312 2.13671m-2.22656-2.11328l.60547 1.07032m13.1875-2.89063l-5.9336 3.76172m5.9336-3.76172l2.13281 1.21485m-2.9961-.66407l2.13282 1.21094m12.27344-1.34375l-6.38672 2.92969m6.38672-2.92969l1.94922 1.48828m-2.87891-1.0625l1.94922 1.48828m12.38281-1.70312L300.5 375.0625m6.5625-2.50781l1.85156 1.61328m-2.80468-1.2461l.92187.8047m13.25-1.39844l-6.3711 2.96093m6.3711-2.96094l1.95703 1.48047m-2.88281-1.05078l.97656.74219m13.55469-.19531l-6.95313 1.00781m6.95313-1.00781l1.45312 1.98047m11.88672-1.77735l-7 .60156m7-.60156l1.33594 2.0586m-2.35547-1.97266l.66797 1.03125m13.52734-1.83594l-6.72265 2.03906m6.72265-2.03906l1.73047 1.73828m-2.70703-1.4414l1.73047 1.73828m12.35547-2.5586l-6.3125 3.08594m6.3125-3.08594l1.98828 1.44141m-2.90625-.99219l.99219.71875m13.01562-1.5625l-5.86328 3.875m5.86328-3.875l2.15625 1.17188m-3.00781-.60938l1.07813.58985m13.0703-1.17969l-5.82421 3.92969m5.82422-3.92969l2.16797 1.15234m-3.01563-.58203l1.08203.57813m13.23047-.91016l-6.125 3.44922m6.125-3.44922l2.0664 1.32422m-2.95702-.82031l2.0664 1.32031m12.38672-1.28125l-6.61719 2.36719m6.6172-2.36719l1.8125 1.65234m-2.77735-1.30859l1.8164 1.65234m12.57813-1.60546l-6.84766 1.58593m6.84766-1.58594l1.60937 1.85157m-2.60546-1.6211l1.60937 1.85157m-2.60547-1.6211l.80469.92578m14.58984-.49218l-7.02343-.20313m7.02343.20313l1.08985 2.19921m-2.10938-2.23046l.54297 1.10156m13.0664.96875l-5.57421-4.28125m5.57422 4.28125l-.40235 2.41797m-.40625-3.04297l-.20312 1.21094"/><g clip-path="url(#X)"><path fill="none" stroke="#000" stroke-linecap="round" stroke-linejoin="round" stroke-miterlimit="10" stroke-width=".5" d="M147.1836 359.00781l-6.3672 2.97266"/></g><path fill="none" stroke="#000" stroke-linecap="round" stroke-linejoin="round" stroke-miterlimit="10" stroke-width=".5" d="M147.1836 359.00781l1.96093 1.47656m-2.88672-1.04687l1.96094 1.47656m11.1836-3.2461l-4.17579 5.65235m4.17578-5.65234l2.42578.35937m-3.03125.46094l1.21094.17969m13.8789.5039l-6.51171 2.64454m6.51172-2.64454l1.88281 1.57422m-2.83203-1.1914l1.88281 1.57422m12.6289-.90235l-7.0078.53125m7.0078-.53125l1.3125 2.07422m-2.33202-1.9961l1.3125 2.07423m12.79687-3.14454l-6.5586 2.51563m6.5586-2.51563l1.85156 1.60938m-2.80468-1.24219l1.85156 1.60938m12.38281-2.0664l-6.48828 2.69921m6.48828-2.69922l1.89453 1.5586m-2.83984-1.16797l1.89453 1.55859m12.48438-1.60938l-6.73047 2.01954m6.73047-2.01954l1.72656 1.7422m-2.70313-1.44923l1.72657 1.7422m12.48828-2.26563l-6.57422 2.48046m6.57422-2.48046l1.84375 1.61718m-2.80078-1.2578l.92187.80858m13.35938-1.14843l-6.58985 2.4375m6.58985-2.4375l1.83203 1.63672m-2.79297-1.28125l1.83203 1.6328m12.65625-.98827l-7.01563.4375m7.01563-.4375l1.28516 2.08984m-2.3086-2.02734l1.28516 2.09375m13.02734-2.41016l-6.96484.94922m6.96484-.94922l1.4336 1.98828m-2.44922-1.85156l.71875.9961m13.22656-2.31641l-6.19531 3.3164m6.19531-3.3164l2.03906 1.36328m-2.9414-.88281l1.01953.68359m12.9336-1.58984l-5.66407 4.16406m5.66406-4.16406l2.21094 1.0664m-3.03516-.46094l1.10547.53516m13.38672-.53906l-6.3711 2.96094m6.3711-2.96094l1.95703 1.48047m-2.88281-1.04688l.97656.73828m13.55469.82813l-6.94922-1.03906m6.94922 1.03906l.82031 2.3125m-1.83203-2.46485l.41016 1.15625m13.91797-1.01171l-6.95313-1.01954m6.95313 1.01954l.82421 2.3125m-1.83593-2.46094l.41015 1.15625m13.94532-1.28516l-7.01172-.46484m7.01172.46484l1.0078 2.23828m-2.02734-2.30859l.50391 1.1211m13.64063-2.44141l-6.63282 2.3125m6.63282-2.3125l1.80468 1.66797m-2.76953-1.33204l.90235.83594m12.80859-2.20703l-5.49219 4.38281m5.49219-4.3828l2.25.97655m-3.05078-.33984l2.2539.97656m11.52735-1.97265l-4.82422 5.10546m4.82422-5.10546l2.36719.64843m-3.06641.09375l2.36328.65235m11.8711-1.16797l-5.26563 4.65234m5.26562-4.65234l2.29688.85937m-3.0625-.18359l1.14844.42969m13.2539-.6836l-5.90625 3.8086m5.90625-3.8086l2.14063 1.19532m-3-.64063l2.14062 1.19531m12.08594-1.66796l-6.01172 3.64453m6.01172-3.64454l2.10547 1.25391m-2.98047-.72265l2.10938 1.2539m12.32421-1.30469L447 361.83204m6.4961-2.6797l1.89062 1.5625m-2.83594-1.17187l1.89063 1.5625m12.61718-.96485l-6.99218.70313"/><g clip-path="url(#Y)"><path fill="none" stroke="#000" stroke-linecap="round" stroke-linejoin="round" stroke-miterlimit="10" stroke-width=".5" d="M467.0586 360.14063l1.36327 2.04296"/></g><path fill="none" stroke="#000" stroke-linecap="round" stroke-linejoin="round" stroke-miterlimit="10" stroke-width=".5" d="M466.03906 360.24219l1.36328 2.04297"/><g clip-path="url(#Z)"><path fill="none" stroke="#000" stroke-linecap="round" stroke-linejoin="round" stroke-miterlimit="10" stroke-width=".5" d="M147.22656 345.78906l-6.45312 2.77735"/></g><path fill="none" stroke="#000" stroke-linecap="round" stroke-linejoin="round" stroke-miterlimit="10" stroke-width=".5" d="M147.22656 345.78906l1.91406 1.53516m-2.85156-1.13281l1.91406 1.53515m11.88672-2.70312l-5.55078 4.3086m5.55078-4.3086l2.23828 1.00781m-3.04296-.3789l2.23828 1.0039m12.2539-1.03906l-6.29687 3.1211m6.29687-3.1211l1.9961 1.42969m-2.91016-.97657l1.99219 1.42969m12.30078-1.7461l-6.42188 2.84766m6.42188-2.84765l1.9336 1.51562m-2.8672-1.10156l1.9297 1.51562m12.5664-1.1328l-6.91406 1.2539m5.90625-1.07031l.76172.96093m13.48828-1.46094l-6.76953 1.88672m6.76953-1.88671l1.6914 1.77734m11.72266-1.27344l-6.96875.8789m6.96875-.8789l1.41406 2.0039m-2.42578-1.875l.70703 1m13.64844-.59374l-7.02734-.1914m7.02734.1914l1.08984 2.19531m12.08985-3.2539l-6.75781 1.92577m6.7578-1.92578l1.70313 1.76954m-2.6836-1.48829l.84767.88282m13.5664-.53125l-6.9961.66015m6.9961-.66015l1.35156 2.05078m-2.36718-1.95313l1.34765 2.05078m12.82032-2.92578l-6.66797 2.21485m6.66797-2.21485l1.77734 1.69531m-2.7461-1.37109l1.77344 1.6914m12.19922-2.6953l-6.04687 3.57421m6.04687-3.57421l2.09766 1.27734m-2.97656-.75781l1.04687.64062m12.83984-1.60156l-5.42968 4.46094m5.42968-4.46094l2.26563.9414m-3.05469-.29296l1.13281.46875m13.39844-.46094l-6.28515 3.14453m6.28515-3.14453l2 1.42578m-2.91406-.96875l1 .71094m13.30469-1.00781l-6.4336 2.82421m6.4336-2.82421l1.92578 1.51953m-2.86328-1.10938l.96484.76172m13.5586-.17578l-6.97657.83203m6.97656-.83203l1.39844 2.01562m11.67578-.2578l-6.4961-2.6836m6.4961 2.6836l.23828 2.4414m-1.18359-2.83203l.11719 1.22265m14.40625-2.30469l-7.02344.26563m7.02344-.26563l1.23437 2.1211m-2.25781-2.08203l1.23438 2.1211m12.84375-3.36329l-6.5 2.66797m6.5-2.66797l1.88671 1.57031m-2.83203-1.17969l1.88672 1.56641m12.05469-2.5586l-5.86328 3.875m5.86328-3.875l2.15625 1.17188m-3.00781-.60937l2.15234 1.17187m-3.00781-.60937l1.07812.58594m13.39453-2.35547l-4.76562 5.16406m4.76562-5.16406l2.375.62109m-3.0664.1289l2.3711.6211m-3.06641.1289l1.1875.3125m13.40234-1.91406l-4.53906 5.36329m4.53906-5.36329l2.39844.51954m-3.0586.26171l2.39844.51954m-3.0586.26171l1.19923.25782m13.6328-1.64063l-4.93359 5.0039m4.9336-5.0039l2.35156.70313m-3.07031.02734l2.35156.69922m12.16406-.83594l-5.89843 3.82031m5.89843-3.8203l2.14453 1.1914m-3.0039-.63672l2.14453 1.1914m12.23828-1.375l-6.3164 3.07422"/><g clip-path="url(#aa)"><path fill="none" stroke="#000" stroke-linecap="round" stroke-linejoin="round" stroke-miterlimit="10" stroke-width=".5" d="M466.71875 345.64063l1.98438 1.4414"/></g><g clip-path="url(#ab)"><path fill="none" stroke="#000" stroke-linecap="round" stroke-linejoin="round" stroke-miterlimit="10" stroke-width=".5" d="M465.80078 346.08594l1.98438 1.44531"/></g><g clip-path="url(#ac)"><path fill="none" stroke="#000" stroke-linecap="round" stroke-linejoin="round" stroke-miterlimit="10" stroke-width=".5" d="M147.32422 332.72266l-6.64844 2.28125"/></g><path fill="none" stroke="#000" stroke-linecap="round" stroke-linejoin="round" stroke-miterlimit="10" stroke-width=".5" d="M147.32422 332.72266l1.79297 1.67578m-2.76172-1.34375l1.79297 1.67578m11.8789-3.10156l-5.42578 4.46875m5.42578-4.46875l2.26563.9414m-3.05469-.28906l2.26563.9375m11.45312-1.98828l-4.65234 5.26562m4.65234-5.26562l2.38672.57031m-3.0664.19531l1.1953.28516m13.56641-.08203l-6.1875 3.32812m6.1875-3.32812l2.04297 1.36328m-2.9414-.8789l2.03906 1.36327m12.40234-1.32421l-6.64453 2.28125m6.64453-2.28125l1.79297 1.67578m-2.75781-1.34375l.89453.83984m13.16016-1.6914l-6.19141 3.3203m6.1914-3.3203l2.03907 1.36328m11.48047 1.5l-6.60157-2.40625m5.64063 2.05468l.17187 1.21485m14.21094-1.21485l-6.8164-1.70312m6.8164 1.70312l.59375 2.38282m12.8164-2.97657l-7.0078-.51562m7.0078.51562l.9922 2.2422m-2.01172-2.32032l.49609 1.125m13.82813-1.67578l-6.98829.74219m6.98828-.7422l1.375 2.03126m-2.39062-1.92188l1.375 2.03125m12.89844-2.5l-6.8711 1.46094m6.8711-1.46094l1.57812 1.8789m-2.57812-1.66796l1.57812 1.88281m12.75-2.04297l-6.89453 1.35938m6.89453-1.35938l1.54688 1.90235m-2.55078-1.70313l.77343.94922m13.0547-2.36328l-5.91407 3.78906m5.91406-3.78906l2.14063 1.19922m-3-.64844l1.0703.60156m13.03126-1.26171l-5.76953 4.0078m5.76953-4.0078l2.1836 1.12109m-3.02345-.53906l2.1836 1.12109m11.83984-1.88281l-5.50781 4.36719m5.50781-4.3672l2.25.98438m-3.05078-.34765l2.25.98046m12.5586 1.25l-6.89063-1.36718m6.89062 1.36719l.70704 2.34765m-1.71094-2.54687l.35547 1.17578m13.75-.28125l-6.46485-2.76172m6.46485 2.76172l.20703 2.44531m-1.14844-2.84375l.10547 1.22266m14.42969-2.13282l-7.02344-.14453m7.02344.14453l1.10937 2.19141m-2.1289-2.21094l1.10546 2.1914m12.21875-4.71093l-5.0039 4.9336m5.0039-4.9336l2.34375.73438m-3.0703-.01563l2.33984.73438m11.30859-1.79688l-4.21484 5.625m4.21484-5.625l2.42578.3789m-3.03906.44141l1.21094.1875m13.05078-.72265l-4.88282 5.05469m4.88282-5.0547l2.35937.67579m-3.07031.0586l1.17969.33984m12.0586-1.64844l-3.3086 6.19922m3.3086-6.19922l2.45702.00781m-2.9375.89453l1.22656.0039m13.08204-.57421l-4.33204 5.53516m4.33204-5.53516l2.41406.42969m-3.04688.3789l1.21094.21094m13.9336.73047l-6.72657 2.03906m6.72656-2.03906l1.73047 1.73828m-2.71093-1.4414l1.73437 1.73828m12.3164-2.63672l-6.23437 3.24219"/><g clip-path="url(#ad)"><path fill="none" stroke="#000" stroke-linecap="round" stroke-linejoin="round" stroke-miterlimit="10" stroke-width=".5" d="M466.67969 332.24219l2.01953 1.39062"/></g><g clip-path="url(#ae)"><path fill="none" stroke="#000" stroke-linecap="round" stroke-linejoin="round" stroke-miterlimit="10" stroke-width=".5" d="M465.77344 332.71484l2.01953 1.38672"/></g><path fill="none" stroke="#000" stroke-linecap="round" stroke-linejoin="round" stroke-miterlimit="10" stroke-width=".5" d="M464.86328 333.1836l1.01172.6953"/><g clip-path="url(#af)"><path fill="none" stroke="#000" stroke-linecap="round" stroke-linejoin="round" stroke-miterlimit="10" stroke-width=".5" d="M147.32813 319.42188l-6.65625 2.2539"/></g><path fill="none" stroke="#000" stroke-linecap="round" stroke-linejoin="round" stroke-miterlimit="10" stroke-width=".5" d="M147.32813 319.42188l1.78515 1.67968m-2.7539-1.35156l1.78515 1.67969m-2.7539-1.35156l.89453.83984m14.21093-1.85938l-6.36328 2.98047m6.36328-2.98047l1.96485 1.47266m-2.89063-1.03906l1.96485 1.47265m-2.89063-1.03906l.98047.73438m14.26953-1.41407l-6.52734 2.60547m6.52734-2.60547l1.8711 1.58204m-2.82032-1.20313l1.8711 1.58203m-2.82422-1.20312l1.875 1.58203m13.4375-2.0664l-6.71875 2.05468m6.71875-2.05469l1.73437 1.73438m-2.71094-1.4336l1.73438 1.73438m-2.71094-1.4375l.86719.86719m14.46094-1.2422l-6.83985 1.60938m6.83985-1.60937l1.61719 1.84765m-2.61329-1.61328l1.6211 1.84766m-2.61328-1.61328l.80859.92187m14.3711-1.79687l-6.59376 2.42578m6.59375-2.42578l1.83203 1.63281m-2.78906-1.28125l1.82813 1.63672m-2.78906-1.28516l.91406.82031m14.53125-.5l-7.01563.375m7.01563-.375l1.26562 2.10547m-2.28515-2.05078l1.26562 2.10547m13.01953-1.34765l-6.91797-1.2461m6.91797 1.2461l.75 2.33593m-1.75781-2.51953l.75 2.33594m13.6289-2.82422l-7.02734.09766m7.02735-.09766l1.17968 2.15234m-2.20312-2.13671l1.17969 2.14843m13.12109-2.61328l-6.95703.99219m6.95703-.99219l1.44922 1.98047m-2.46094-1.83594l1.44922 1.98047m12.6836-2.88281l-6.56641 2.51172m6.5664-2.51172l1.84766 1.61328m-2.80469-1.2461l1.85156 1.60938m12.64063-.99219l-7.00781.53907m7.00781-.53907l1.3164 2.07422m-2.33593-1.9961l.65625 1.03907m13.64844-1.38672l-6.94532 1.08203m6.94532-1.08203l1.46875 1.96094m-2.48047-1.80469l1.47265 1.96094m12.53907-3.11719l-6.31641 3.07813m6.3164-3.07813l1.98438 1.44531m-2.90234-.99609l1.98437 1.44531m12.3086-1.76562l-6.4375 2.82031m6.4375-2.82031l1.92578 1.52344m-2.86328-1.11329l.96484.76172m13.54297-.30078l-6.94531 1.08203m6.9453-1.08203l1.46876 1.96094m-2.48047-1.80469l1.47266 1.96094m-2.48438-1.80469l.73828.98438m14.61719-1.14844l-6.98047.78125m6.98047-.78125l1.38672 2.02344m-2.40235-1.91016l.69532 1.01172m13.38281-2.09766l-6.47656 2.73047m6.47656-2.73047l1.90234 1.54688m-2.84375-1.15235l.94922.77735m12.51563-2.32813l-4.89453 5.04297m4.89453-5.04297l2.35937.6836m-3.07031.05078l1.17969.33984m11.40625-1.91797l-2.01172 6.73047m2.01172-6.73047l2.40625-.48437m8.7461.53125l2.3125 6.63672m-2.3125-6.63672l1.66405-1.80078m12.47266 1.6211l.67188 6.99608m-.67188-6.99609l2.04688-1.35547m13.6328 7.72266l-4.05859-5.73828m3.46875 4.90234l-.55078 1.09375m15.6289-4.57422l-6.40624 2.89063m6.40625-2.89063l1.9414 1.5039m-2.875-1.08202l.97266.75m12.85938-1.86328l-5.57422 4.27734"/><g clip-path="url(#ag)"><path fill="none" stroke="#000" stroke-linecap="round" stroke-linejoin="round" stroke-miterlimit="10" stroke-width=".5" d="M466.34766 318.41016l2.23437 1.01562"/></g><g clip-path="url(#ah)"><path fill="none" stroke="#000" stroke-linecap="round" stroke-linejoin="round" stroke-miterlimit="10" stroke-width=".5" d="M465.53906 319.03125l2.23047 1.01563"/></g><path fill="#00f" fill-rule="evenodd" d="M388.23828 476.52344h8.61719V466.3789h-8.61719v10.14453"/><path fill="azure" fill-rule="evenodd" d="M390.07031 468.21094h.83594v2.82422h3.28516v-2.82422h.83203v6.48047h-.83203v-2.91407h-3.28516v2.91407h-.83594v-6.48047"/><path fill="#00f" fill-rule="evenodd" d="M246.21094 472.08594h8.61719V461.9414h-8.6172v10.14453"/><path fill="azure" fill-rule="evenodd" d="M248.04297 463.77344h.83594v2.82422h3.28515v-2.82422h.83203v6.48047h-.83203v-2.91797h-3.28515v2.91797h-.83594v-6.48047"/><path fill="#00f" fill-rule="evenodd" d="M388.23828 436.57813h8.61719v-10.14454h-8.61719v10.14454"/><path fill="azure" fill-rule="evenodd" d="M390.07031 428.26563h.83594v2.82421h3.28516v-2.82421h.83203v6.48046h-.83203v-2.91406h-3.28516v2.91406h-.83594v-6.48046"/><path fill="#00f" fill-rule="evenodd" d="M228.45703 423.26563h8.6211v-10.14844h-8.6211v10.14844"/><path fill="azure" fill-rule="evenodd" d="M230.28906 414.95313h.83594v2.8203h3.28516v-2.8203h.83203v6.48046h-.83203v-2.91796H231.125v2.91796h-.83594v-6.48046"/><path fill="#ff3030" fill-rule="evenodd" d="M295.72656 409.94922h7.69531v-10.14453h-7.6953v10.14453"/><path fill="azure" fill-rule="evenodd" d="M297.5586 401.63672h.83593v5.73828h3.1914v.74219h-4.02734v-6.48047"/><path fill="#ff3030" fill-rule="evenodd" d="M344.55078 409.94922h7.6914v-10.14453h-7.6914v10.14453"/><path fill="azure" fill-rule="evenodd" d="M346.38281 401.63672h.83203v5.73828h3.19532v.74219h-4.02735v-6.48047"/><path fill="#ff3030" fill-rule="evenodd" d="M433.3164 396.63281h7.69141v-10.14453h-7.6914v10.14453"/><path fill="azure" fill-rule="evenodd" d="M435.14844 388.32031h.83594v5.74219h3.1914v.73828h-4.02734v-6.48047"/><path fill="#ff3030" fill-rule="evenodd" d="M206.96094 370.0039h7.6914v-10.14452h-7.6914v10.14453"/><path fill="azure" fill-rule="evenodd" d="M208.79297 361.6914h.83203v5.73829h3.19531v.74219h-4.02734v-6.48047"/><path fill="#ffffe0" fill-rule="evenodd" d="M409.55469 459.0039h22.17969v-10.1914h-22.1797v10.1914"/><path fill-rule="evenodd" d="M413.05469 450.64453h.50781v6.29297h-.78906v-4.48828h-1.38672v-.55469l.5586-.0664.2539-.0547.23047-.08984.20312-.14062.17188-.21094.14062-.29297.10938-.39453m4.8125 0l.23047.01953.21875.05469.20703.08984.19531.1211.1836.14844.17187.17578.30078.41796.2461.4961.17968.54687.10938.57813.03906.58984-.03906.59375-.10938.58594-.17969.55078-.24609.5039-.30078.4297-.17188.17968-.18359.15235-.19531.12109-.20703.09375-.21875.0586-.23047.01952-.23047-.01953-.21875-.05859-.20703-.09375-.19531-.1211-.1875-.15234-.16797-.17969-.3047-.42968-.24218-.5039-.17969-.55079-.11328-.58594-.03515-.59375h.83203l.02734.5625.08203.50781.1289.44141.16017.375.1914.30078.21094.22266.22265.13672.22657.04687.22656-.04687.22266-.13672.21093-.22266.19141-.30078.16016-.375.125-.4414.08203-.50782.03125-.5625-.03125-.5586-.08203-.5039-.125-.4336-.16016-.36718-.1914-.28906-.21094-.21485-.22266-.1328-.22656-.04298-.22656.04297-.22266.13281-.21094.21485-.1914.28906-.16016.36719-.1289.4336-.08204.5039-.02734.5586h-.83203l.03515-.58985.11328-.57813.1797-.54687.24218-.4961.30469-.41796.16796-.17579.1875-.14843.19532-.1211.20703-.08984.21875-.05469.23047-.01953m5.08984 0h.51172v6.29297h-.78906v-4.48828h-1.38672v-.55469l.5586-.0664.2539-.0547.22656-.08984.20313-.14062.17578-.21094.14062-.29297.10547-.39453m2.82422 2.17578h.78516l.02343-.3164.0586-.28907.09765-.25.14063-.21484.17969-.17578.22265-.1289.26563-.07813.3086-.02735.23827.01954.22266.0625.20703.10156.17969.13672.14844.17578.11328.20703.0703.23437.02345.26563-.01954.26562-.0664.22657-.10938.1914-.15625.17188-.19921.16015-.25.16797-.63282.38672-.53906.3164-.4375.31641-.34375.32422-.26563.33594-.1914.35156-.125.36719-.0664.39453-.01954.41797h4.21094v-.73828h-3.33203l.08203-.28516.11328-.23828.14844-.19922.1875-.17969.23047-.17187.27734-.17578.71875-.41797.41406-.20313.34766-.23437.28125-.25.21875-.26563.16406-.27734.10938-.28515.0625-.28516.02343-.28125-.04296-.38281-.1211-.34766-.1875-.3086-.25-.26171-.30469-.21485-.34375-.15625-.3828-.10156-.40626-.03125-.4336.03125-.39843.10156-.35547.16407-.30469.23437-.24609.30469-.1875.375-.11719.44531-.03906.51953"/><path fill="#ffffe0" fill-rule="evenodd" d="M332.86719 355.1875h22.17969v-10.1914h-22.1797v10.1914"/><path fill-rule="evenodd" d="M336.36719 346.82813h.50781v6.29296h-.78516v-4.48828h-1.39062v-.55469l.5625-.0664.25-.05469.23047-.08594.20312-.14453.17578-.20703.14063-.29687.10547-.39454m4.8125 0l.23047.01954.21875.05468.20703.08985.19531.1211.1875.14843.16797.17578.30469.42188.24218.49218.1797.54688.11327.57812.03516.58985-.03516.59375-.11328.58593-.17969.5547-.24218.5-.3047.42968-.16796.17969-.1875.15234-.19531.125-.20703.08984-.21875.0586-.23047.01953-.23047-.01953-.21875-.0586-.20703-.08984-.19531-.125-.1836-.15234-.17187-.1797-.30079-.42968-.24609-.5-.17969-.55469-.10937-.58593-.03906-.59375h.83203l.03125.5664.08203.5039.125.44142.16015.375.19141.30078.21094.22265.22265.13672.22657.04688.22656-.04688.22266-.13672.21093-.22265.19141-.30079.16016-.375.1289-.4414.08203-.5039.02735-.56641-.02735-.5586-.08203-.5-.1289-.4375-.16016-.36719-.1914-.28906-.21094-.21484-.22266-.13281-.22656-.04297-.22656.04297-.22266.1328-.21094.21485-.1914.28906-.16016.3672-.125.4375-.08203.5-.03125.55859h-.83203l.03906-.58985.10937-.57812.1797-.54688.24608-.49219.30079-.42187.17187-.17578.1836-.14844.1953-.1211.20704-.08984.21875-.05468.23047-.01954m5.09375 0h.50781v6.29297h-.78906v-4.48828h-1.38672v-.55469l.5586-.0664.2539-.05469.23047-.08594.20312-.14453.17188-.20703.14062-.29687.10938-.39454m2.82031 2.17579h.78906l.01953-.31641.0586-.28516.09765-.2539.14063-.21485.1836-.17578.22265-.1289.26562-.07813.3086-.02734.23437.01953.22656.0625.20313.10156.17969.14063.14844.17187.11328.20703.0703.23438.02735.26562-.02344.26953-.0664.22266-.10938.1914-.15625.17188-.19921.16406-.2461.16407-.63672.39062-.53515.3125-.4375.3164-.34766.32423-.26172.33593-.1914.35157-.125.36718-.07032.39454-.01953.41796h4.21094v-.73828h-3.33203l.08203-.28515.11328-.23438.14844-.20312.1875-.1797.23047-.17187.28125-.17578.71484-.41797.41797-.20312.34375-.23047.28125-.2539.21875-.26563.16406-.27735.10938-.28515.0664-.28516.01953-.28125-.04296-.38281-.1211-.34766-.1875-.30859-.25-.26172-.30078-.21484-.34766-.15625-.3789-.09766-.40625-.03515-.4375.03125-.39844.10156-.35547.16406-.30469.23438-.24609.30468-.1875.375-.11328.44531-.04297.51954"/><path fill="#ffffe0" fill-rule="evenodd" d="M226.34766 343.22266h22.17968v-10.19141h-22.17968v10.1914"/><path fill-rule="evenodd" d="M229.84766 334.86328h.5078v6.29688h-.78905v-4.4922h-1.38672v-.55468l.5586-.0625.2539-.05469.23047-.08984.20312-.14063.17188-.21093.14453-.29297.10547-.39844m4.8125 0l.23047.01953.21875.05469.20703.08984.1953.1211.1836.15234.17188.17578.30078.41797.2461.49219.17968.54687.10938.57813.03906.59375-.03906.59375-.10938.58203-.17969.55469-.2461.5039-.30077.42579-.17188.17968-.1836.15235-.1953.125-.20703.08984-.21875.0586-.23047.01952-.23047-.01953-.21875-.05859-.20703-.08984-.19532-.125-.1875-.15235-.16797-.17969-.30468-.42578-.24219-.5039-.17969-.55469-.11328-.58203-.03516-.59375h.83204l.02734.5625.08203.5039.1289.44532.16016.375.19141.30078.21094.21875.22265.13672.22657.04687.22656-.04687.22266-.13672.21093-.21875.1914-.30078.16017-.375.1289-.44531.07813-.50391.03125-.5625-.03125-.5625-.07813-.5-.1289-.4336-.16016-.36718-.1914-.29297-.21095-.21485-.22265-.1289-.22656-.04688-.22657.04688-.22265.1289-.21094.21485-.1914.29297-.16016.36719-.1289.43359-.08204.5-.02734.5625h-.83203l.03515-.59375.11328-.57813.17969-.54687.24219-.49219.30469-.41797.16796-.17578.1875-.15234.19532-.1211.20703-.08984.21875-.05469.23047-.01953m5.08984 0h.51172v6.29688h-.78906v-4.4922h-1.38672v-.55468l.5586-.0625.2539-.05469.22656-.08984.20313-.14063.17578-.21093.14062-.29297.10547-.39844m2.82422 2.17578h.78906l.01953-.3164.0586-.28516.09765-.2539.14063-.21485.17969-.17188.22265-.1289.26563-.08203.30859-.02735.23828.02344.22266.0625.20703.10156.17969.13672.14843.17188.11328.20703.07032.23437.02344.26563-.01954.26953-.0664.22266-.10938.1953-.15625.16798-.19922.16406-.25.16406-.6328.39063-.53517.3125-.4414.3164-.34375.32422-.26563.33594-.1875.35156-.125.3711-.0703.39062-.01954.42188h4.21094v-.7422h-3.33203l.08203-.28515.11328-.23437.14844-.20313.1875-.17969.23047-.17187.27734-.17578.71875-.41406.41406-.20704.34766-.23046.28125-.25.21875-.26954.16406-.27734.10938-.28515.0625-.28516.02343-.28125-.04297-.38281-.12109-.34766-.1875-.3086-.25-.26171-.30469-.21094-.34375-.16016-.38281-.09765-.40625-.03516-.4336.03516-.39843.09765-.35547.16797-.30469.23438-.2461.30078-.1875.375-.11718.44531-.03906.51953"/></g></defs><use xlink:href="#ai"/></svg>