<svg xmlns="http://www.w3.org/2000/svg" role="img" xmlns:xlink="http://www.w3.org/1999/xlink" viewBox="142.45 309.95 326.84 171.84"><defs><clipPath id="a"><path d="M144 311.67188h1v168.65625h-1zm0 0"/></clipPath><clipPath id="b"><path d="M144 311.67188h324v168.65625H144zm0 0"/></clipPath><clipPath id="c"><path d="M387 479h3v1.32813h-3zm0 0"/></clipPath><clipPath id="d"><path d="M467 311.67188h1v168.65625h-1zm0 0"/></clipPath><clipPath id="e"><path d="M144 478h4v2.32813h-4zm0 0"/></clipPath><clipPath id="f"><path d="M146 480h1v.32813h-1zm0 0"/></clipPath><clipPath id="g"><path d="M153 478h8v2.32813h-8zm0 0"/></clipPath><clipPath id="h"><path d="M167 478h8v2.32813h-8zm0 0"/></clipPath><clipPath id="i"><path d="M180 479h8v1.32813h-8zm0 0"/></clipPath><clipPath id="j"><path d="M187 480h2v.32813h-2zm0 0"/></clipPath><clipPath id="k"><path d="M193 479h8v1.32813h-8zm0 0"/></clipPath><clipPath id="l"><path d="M200 480h2v.32813h-2zm0 0"/></clipPath><clipPath id="m"><path d="M206 479h9v1.32813h-9zm0 0"/></clipPath><clipPath id="n"><path d="M213 480h2v.32813h-2zm0 0"/></clipPath><clipPath id="o"><path d="M220 478h8v2.32813h-8zm0 0"/></clipPath><clipPath id="p"><path d="M233 478h8v2.32813h-8zm0 0"/></clipPath><clipPath id="q"><path d="M247 478h7v2.32813h-7zm0 0"/></clipPath><clipPath id="r"><path d="M260 477h7v3.32813h-7zm0 0"/></clipPath><clipPath id="s"><path d="M273 478h8v2.32813h-8zm0 0"/></clipPath><clipPath id="t"><path d="M287 478h7v2.32813h-7zm0 0"/></clipPath><clipPath id="u"><path d="M300 479h8v1.32813h-8zm0 0"/></clipPath><clipPath id="v"><path d="M305 480h2v.32813h-2zm0 0"/></clipPath><clipPath id="w"><path d="M313 479h8v1.32813h-8zm0 0"/></clipPath><clipPath id="x"><path d="M319 480h2v.32813h-2zm0 0"/></clipPath><clipPath id="y"><path d="M326 478h8v2.32813h-8zm0 0"/></clipPath><clipPath id="z"><path d="M340 478h7v2.32813h-7zm0 0"/></clipPath><clipPath id="A"><path d="M353 478h8v2.32813h-8zm0 0"/></clipPath><clipPath id="B"><path d="M367 477h6v3.32813h-6zm0 0"/></clipPath><clipPath id="C"><path d="M380 477h7v3.32813h-7zm0 0"/></clipPath><clipPath id="D"><path d="M394 477h6v3.32813h-6zm0 0"/></clipPath><clipPath id="E"><path d="M407 477h7v3.32813h-7zm0 0"/></clipPath><clipPath id="F"><path d="M420 478h7v2.32813h-7zm0 0"/></clipPath><clipPath id="G"><path d="M433 478h8v2.32813h-8zm0 0"/></clipPath><clipPath id="H"><path d="M447 478h7v2.32813h-7zm0 0"/></clipPath><clipPath id="I"><path d="M460 477h7v3.32813h-7zm0 0"/></clipPath><clipPath id="J"><path d="M144 465h4v4h-4zm0 0"/></clipPath><clipPath id="K"><path d="M144 452h4v3h-4zm0 0"/></clipPath><clipPath id="L"><path d="M144 439h4v3h-4zm0 0"/></clipPath><clipPath id="M"><path d="M144 426h4v2h-4zm0 0"/></clipPath><clipPath id="N"><path d="M144 412h4v3h-4zm0 0"/></clipPath><clipPath id="O"><path d="M144 397h2v7h-2zm0 0"/></clipPath><clipPath id="P"><path d="M144 385h4v4h-4zm0 0"/></clipPath><clipPath id="Q"><path d="M144 371h3v6h-3zm0 0"/></clipPath><clipPath id="R"><path d="M144 357h3v7h-3zm0 0"/></clipPath><clipPath id="S"><path d="M144 345h4v5h-4zm0 0"/></clipPath><clipPath id="T"><path d="M144 333h4v2h-4zm0 0"/></clipPath><clipPath id="U"><path d="M466 334h2v3h-2zm0 0"/></clipPath><clipPath id="V"><path d="M144 319h4v3h-4zm0 0"/></clipPath><clipPath id="W"><path d="M466 320h2v3h-2zm0 0"/></clipPath><g id="X" clip-path="url(#clip1)"><path fill="#fff" fill-opacity="0" fill-rule="evenodd" d="M0 0h1000v1000H0zm0 0"/><path fill="#d3d3d3" fill-opacity="0" fill-rule="evenodd" d="M162.15234 355.86719l-.23437.29297.0586.23437.11718.17188.17578.23437.29297.34766.11328.0586.11719-.17188.0586-.23438.17577-.17578.46485-.17578h.69922l.23437.29297.28906.8164.0586.17579.17578.23046.35156.23438.69922.69922.17188.17578.23437.34765.23438.41016.28906.58203.41015.46485.23047.23437.23438.17578.11719.23047.17578.29297.17187 1.16406v.23438l.0586.28906.05859.11719.11719.11719.34765.41015.11719.17188.17578.17578.17578.23437.11719.17188.17188.35156.05859.23438.23437.40625.23438-.0586-.17578.17578-.0586.92969h-.58203l-.23437-.11328-.34766.11328-.11719.11719-.05859.29297-.0586.17578-.11718.17187-.46484.29297-.0586.23438-.0586.11328v.64453l.0586.17187v.41016l.0586.0586v.40624l.05859.40625.11719.17579.05859.05859.23047.64062-.0586.29297v.69922l-.05859.58203v.23438l-.0586.23047-.05468.35156v1.92187l.05469.1172h.42578l-.36719.11718-.02344.35156.89063 1.16797 1.74219.53906 1.33984.35938v.53906l.08984.8086.53516.71484 1.51953.26953.89063-.08594.08984 1.16406.53516.1797 1.16015-.1797 2.05469-.98437 1.16016-.36328 1.8789-.17578 1.69531-.1797-.17968.71876-1.51563.08594-1.25.08984-.80469.26953-1.07421.8086.26953.71875.53515.89843-.17968.625-.26563.8086.26563 1.07812.625.89844.80468.17969 1.25-.1797-.26562.72267.09766.5039.05468.29297v.17188l.0586.29296v.40625l.17578.1172.35156.11718h.40625l.29297-.17578.11328-.11719.0586-.11719.11718-.23047.0586-.17578.35156-.46484.23047-.17578.17578-.0586.17578.0586.0586.17578.11718.98828.05469.46875.0586.17188.11718.23437.17578.0586.8164.05859h.28907l.11719.23437.05859.40625.0586.35156v1.10547l.11718.29297.11719.34766.28906.69922.17578.35156.58203.7539.35157.17579.17187.0586.46875.23437.64063.46484.34765.23438.29297.17578.29297.05468.23047.0625.8164.34766.29297.17578.11328.17188.35157.35156.11719.17578.52343.64063v.28906l.0586.35156v.34766l.05859.35156.0586.28906.11718.0586.17188.05859h.17578l.58203.23437.17578.1172.17578.28905.17578.23438.11328.23437.29297.23047.11719.11719v.41016l.0586.05468.28906.23438.23437.11719.0586.11718.11718.17188.0586.11719.23047.23437.05859.17578.23437.0586.1172.05859-.1172.11328-.05859.11719v.11719l-.11719.29296-.11719.28907v.58203l.17579.11719.11718.05859.0586.11719.11719.11719.11328.05859.17578.34765.0586.35157.05858.40625v.17578l-.05859.17578-.11719.69922v.17187l.1172.17579.29296.29296h.40625l.17578.1172.11719.17187.11719.29296v.23438h-.52735l-.23047-.23438h-.23437l-.17578.0586-.0586.69922.0586.34765.11719.17579.17578.41015.11718.23047.28907.46875.17578.05469h.52344l.23437.0586.75781.64062.0586.29296v.23438l.05859.0586.23047.34765v.35156l-.11719.17188v.29297l.29297.28906.29297.17578.17187.0586.29297.17577.29297.1172.58203.40624.28906.23438.29297.17578.21875.16015.01563.01172.23047.17579.64062.52343.17578.23438.1172.17578.17577.17578.11328.17188v.64062l.1172.17578.46874.11719.58203.11719.23438.05859.23047.11328.29297.11719.11328.0586.58593.35156.28907.17187.17578.0625.17578.05469.17578.0586.69922.35155.28906.17579.23438.05468.28906.17578.23437.1172.64063.40624.29297.11719.17187.0586.23438.05859.41015.05859.23047.0586.23438.11718.0586.17188-.41017.17578.46875.0586.0586.29296.11328.23438.17578.05468.23438.0586.17578.05859.40625.11719.64062.23437.11719.17188.0586.23437v.17578l-.0586.1172-.0586.40624.23438.23438.11719.05859.34766.11719.64062.23047.17578.11718.28906.1172.17578.17577.23438.46485.58203 1.10546.17578.17579.34766.17578.17578.11719.35156.11718 1.04688.52344.23437.0586.46485.11327.29297.0586.46484.17578.75781.58203.23438.23438.34765.46484.17578.17578.28907.23438.8164.69921.29297.17579.28906.28906.29297.17578.29297.28906.69531.64063.17578.17578.29297.23437.28907.23438.46875.28906.64062.58203.34766.23438.23437.29297.34766.34765.35156.46485.9336.99218.34765.40625.11719.17579.23437.05859.11328.11719.64454.17578.23047.11328.23437.0586.29297.17577.23047.1172.9336.69921.40624.40625.23438.17578.40625.17578.23437.11719.8164.34766.34766.23437.23438.11719.29297.28906.23047.11719.7578.35156.35157.17188.23047.05859.29297.11719.23437.0586.8711.17577h.8164l.46875.23047.17188.0586.875.69921.46484.1172.29297.05858.17578.0586.23047.0586.46875.05859.34766.05859.35156.0586.40625.05859h.29297l.17187.0586v.23046l.17578.17578h.29297l.34766.0586.35156.05859.69922.11719h.64063l.46484-.23438.29297-.17578.17187-.11719.41016-.17187.28906-.17578.9336-.46485.46875-.29297.52343-.29296.46485-.17188.46484-.17578 1.05078-.46485.28906-.11718.41016-.11719.28906-.11719.52735-.17578 1.51562-.69922.58203-.34765.28907-.0586.29297-.0586.34765-.11718.875-.23047.35156-.11719h.11329l.23437-.05859.875-.23437.23438-.0586h.8125l.35156-.0586.8164-.11718.17188-.0586.35156-.05468.29297-.0586.23047-.05859.8164-.17578.17579-.0586h.34765l.23438-.05859.46484-.11718.75781-.17188.23438-.0586h.34765l.41016-.11718.28906-.0586 1.28516-.05859h.28906l.41016-.0586.23047-.05858h.17578l.875-.1172h.40625l.41015-.11718h.34766l.35156-.11328.8711-.0586h1.75l1.04687.28907.41016.11719.28906.11718.35156.11719.28907.11719 1.05078.17187.28906.0586h.29297l.29297.05859.17187.0586.41016.05859.17187.0586.1172.05858h.11718l.11719.0586.35156.0586h.11328l.41016.0664 1.92187.39453 1.92578.39453 1.51953.44922 1.69532.71875 2.14453.80469 1.60547-.71875 1.42968-.80469 1.16016-1.07813 1.25-.44921 3.03516-.71875 1.875-.35938 2.14453-1.34765 2.23437-1.25391 2.5-1.25781 1.69531-.44922 1.78516-.17969 1.16016-.26953.625.53906 1.33984-.26953.71485-.98828.98437-1.34375.44531-.17969.80469-.35937 1.875-.53907 1.78516-.44921 1.25-.26954 1.16015-.08984 1.69922-.08984 1.96094-.26954 1.25-.08984h.53906l.625-.08984h.89063l2.14453-.17969 2.41015-.17969 2.58985-.08984 1.69531.17969 1.60938.08984 1.42968.35938 1.16016.71875 1.875.98828 1.16015 1.52734.26563.71484.6289.08985.35548.89844.53515.53906.53516 1.52734 1.07422.35938h.53515l-.80469.53515.08985 1.70703.71484 2.69532.89063.80468.89453.98829.71484 1.2578 1.78516.53907 1.51953-.17969.35547 1.34375 1.60937-.80469.98047-.53906.26953.26953.31641-.21484.21875-.14453.80078.44922.44922-.35938h.35547l.53515-.26953.53907-.71875.53515-.26953.625-.98828 1.16016.44922.83984.3711 1.39454.61718 1.6953-.17969h1.60548l1.78515.08985.17969-1.70704.53516-1.34375.80468.26954.4922.84765.40233.40625-.08984.53906v.35938l.71485.44922.71093-.26953h1.42969l.35938.98828.4453 1.25781.71485 1.34375 1.25.6289 1.69531.62891.71485-.17969.17969-.53906.98046-.08984.44922.35937.08594 1.25782-.26563.6289-.53515.17969v.53906l.71484.98438.26563.53906.98437.98828.80078 1.07813-.26562.35937-.08985.89844-.625 2.33203-.35546 2.0664-.08985 1.79298-.17969.71875-.08984.53906v1.4375l-.98047 1.88281-.35937 1.70703-.53516.89844-.80469 1.16797-.26562.53906 2.05469 1.2539.08593.35938-.35546.53906-.08985-.17968v.80859l.08985 1.4375-.44532.71484-1.07422.09375-.26562.71485.53515.89844.8047.71875 1.16015.80859 1.33984.26953.44531.35938-.35546.44921-1.78907-.08984-1.25-.44922-.71484-.71875-.625-.08984-.17578 3.58984-.1875 1.3086h89.35937V311.70313h-55.26953v49.08203l.76172.125 3.28906.54296 2.02344 2.83594v2.7539l2.35156.33204 2.34766.33203h4.05078l-1.3789 4.16016-2.02344.70703-2.02344.70312-.54297.34375-2.59375 1.6172-.1875.11718-2.02344-2.07813-.73046-2.74218-2.67188-2.07813-1.375-3.5-.0664-.08203-1.95704-2.67188 2.75-1.41796v-49.08204H294.42187v91.41407l.1172.03125.1328.01172.07422.07421.10547.04688.08985.0586.08593.05859.08985.0586.29687.29687.0586.08984.03125.11719.02734.11719.01563.13671-.03125.1172-.0586.08983-.0586.08594-.04296.10547-.04688.10156-.02734.1211v.14453l.17578.26953.14844.14844.07422.08594.07422.07421.04296.10547.0625.08985.0586.08593.04297.10547.0586.08985.04687.10156.04296.10547.0586.08594.11719.17968.07421.07422.0625.08594.0586.08984.04297.10547.0586.08985.05858.08593.0625.08985.0586.08984.04297.10156.11719.17969.07421.07422.0586.08594.07422.07421.08984.0586.10547.04687h.14844l.1328-.01562.13282.01562.10156-.04687.07422-.07422.04688-.10156-.01563-.13281v-.14844l-.04687-.10547-.02735-.11719-.04687-.10156-.02735-.1211-.04296-.10156-.0625-.08984-.04297-.10156-.04297-.10547-.03125-.11719-.01563-.13281-.01171-.13672.08593-.0586.0586-.08593.12109-.03125.04297.10547.01562.1328v.1172l.0586.10156.0586.08984.08983.0586.14844.14843.0586.08985.04296.10547-.01171.10156.08593.0586.10547.04687.08594.0586.08984.05858.07422.07422-.11719.02735-.10546.04687-.08594.0586-.07422.07421-.0586.08985-.0625.08594-.02734.12109-.04687.10156-.04297.10547-.03125.11719-.01172.13281-.01563.13281v.14844l.02735.11719.04687.10547.04297.10156.0586.08984.07421.07422.08985.0586.07422.07421.08984.0586.0586.08984.04296.10547.04688.10156.11719.03125.1328.01563h.14845l.11718-.03125.10547.04297.04297.10547.04688.10156.02734.1211L299.5 410l.02734.11719.03125.1211.02735.11718.10547.04297.10156.04687.13281-.01562.14844.14844.0625.08593.07422.07422.07031.07422.08984.0625.10547.04297.10156.04297.1172.03125.13671.01562.11719-.03125.07422-.07422.02734-.11718-.01172-.13282-.03125-.12109-.02734-.11719.04297-.10547h.11719l.08984.0625.11719.02735h.14843l.13282.01562h.14843l.13282.01563.1328-.01563h.14845l.1328-.01562.13282-.01172.13672.01172.11719-.02735.13281-.01562.1914-.0586-.05859.17579-.01562.1328-.02735.1211-.01562.13281-.0586.08594-.1328.01563-.10548.04687-.10546.04297-.1172.03125-.11718.02735-.26563.03125h-.14843l-.13281.01562-.07422.07422.05859.08594.14844.14843.11719.1797.07421.0703.08985.0625.08984.0586.08594.0586.08984.05858.10156.04297.10547.0625.10547.04297.08594.0586.10547.04687.10156.04297.17969.11719.0586.08984-.04298.10156-.04687.10547.01562.13281.22266.22266.0586.08985.04296.10156.03125.1211.04297.10155.01563.13282.03125.11718.01171.13672.03125.11719.14844.14844.10156.04297.10547.04296.1172.03125.1328.01563.13672.01563h.11719l.11719-.03125.08984-.0586.04297-.10547.04688-.10156.04296-.10547.03125-.11719.01172-.1328v-.14845l-.01172-.1328-.01562-.13282-.03125-.11719-.04297-.10547-.04688-.10547-.04296-.10156-.04297-.10547-.01563-.13281.01563-.13281.02734-.11719.03125-.11719.02735-.1211.04687-.10155.08984-.0586.08594-.0625.07422-.07422.08984-.05859.22266-.22266.0586-.08593.07421-.07422.11719-.17969.0586-.08594v-.14844l-.07423-.07421-.10156-.04688-.10547-.04297-.10156-.04297-.0586-.08984-.04687-.10547-.02734-.11719.08984-.05859.11719-.03125.10156-.04297.17969-.11719.14844-.14843.01172-.13282-.01172-.10546-.08985-.0586-.1328.01563h-.14845l-.1328.01562-.13282-.01562-.1211-.03125-.08593-.0586-.07422-.07422-.0586-.08984-.0625-.08594-.11718-.17969-.0586-.08593.03125-.1211.08594-.05859.1211-.03125.05859-.08594v-.1211l-.03125-.11718-.0586-.08984-.05859-.08594-.04687-.10547-.02735-.11719-.01562-.1328.0586-.08985.07421-.07422.08984-.0586.1172-.17968.07421-.07422.0586-.08594.14843-.14844.1211-.03125.1328-.01562.13282.01562.07422.07422.04297.10547.01562.13281-.03125.1172-.11719.03124-.1328.01172-.14844.14844-.04297.10547-.04688.10156-.02734.1211-.03125.11718v.14844l.03125.11719.04297.10546.05859.08985.07422.07031.07422.07422.11719.03125.12109.02734.11719-.02734.1328-.01563h.1172l.08984.0586.07422.07422.04687.10546.0586.08594.10156.04688.13281.01562.10547.04297.08594.0586-.01172.10546-.07422.07422-.17969.11719-.05859.08984-.08984.0586-.07032.07422-.07421.07421-.0625.08985-.02735.11719-.01562.1328.01562.13282-.01562.13281v.14844l.01562.13281.02735.1172.03125.12108.07421.07422.08985.0586.08594.0586.08984.05858.11719.03125v.08594l-.10157.04688-.08984.0586-.26563.03124-.11718.02735h-.14844l-.10547.04296-.10156.04688-.0586.08984-.0625.23438-.01171.13281-.03125.1211-.01563.1328v.29298l-.01172.1328.01172.13673.01563.1328.1328.01563.13282.01172.1211.03125.08593.0586.07422.07421.04688.10547.04296.10157.01563.1328v.44532l-.01563.13281v.44532l.03125.26562.02735.11719.01562.13281.03125.11719.08594.21094.03125.26562v.14844l-.03125.11719-.02734.11718-.03125.1211-.02735.11719-.03125.11718-.03125.1211-.01171.1328-.01563.13282.08984.0586.1172-.03125.10155.01562.04688.10547-.03125.26562v.44141l-.04297.10547-.04688.10547-.04296.10156-.04297.10547-.0586.08594-.03125.12109-.04296.11719-.03125.11719-.01563.1328.01563.13282.05859.08984.10547.04688.08594.0586.05859.08593-.01172.13672-.03125.11719-.04297.10156v.44531l-.01562.13281v.14844l-.03125.11719-.04297.10547-.02735.11719-.04687.10546-.04297.10157-.03125.12109-.02734.11719-.03125.13281-.03125.11719-.02735.11719-.04297.10546-.03125.1172-.03125.12108-.01171.13282-.01563.13281v.29688l.02734.11718v.14844l.04688.39844.02734.11719.0586.08984.12109.03125h.14844l.13281-.01563.0586.08985v.11719l-.0586.08984-.08984.0586-.10157.04296-.10546.04688-.08985.05859-.08594.0586-.13671.01562-.1172-.03125-.1328-.01563-.10157.04688-.0625.08594-.01172.13671-.01562.13282-.03125.11719-.02735.11718-.01562.13281-.03125.1211v.29687l.01563.13282.03125.11718v.14844l.01171.13281v.14844l-.02734.11719-.04688.10156-.02734.1211-.03125.11718-.0586.08985-.07421.07421-.10156.04297-.10547.04688-.11719.02734-.1211.03125-.10156-.04687.0586-.08594.10547-.04688.02734-.11718.03125-.11719.02734-.1211.03125-.11718v-.14844l.01563-.13281-.03125-.11719-.04297-.10547-.10547.01563-.07422.07422-.10156.04296-.08984.0625-.07422.07422-.04297.10157-.01563.1328-.03125.1172L304.25 426l-.03125.11719-.02734.11719-.03125.12109-.02735.11719-.03125.11718-.04297.10547-.08984.0586h-.08984l-.1172-.03125-.03124-.08594.01562-.13672-.03125-.11719v-.14844l-.01171-.1328v-.14844l-.0625-.23438-.02735-.1211-.04297-.10156-.04687-.10546-.0586-.08594-.05859-.08985-.04297-.10546-.0625-.08594-.14844-.14844-.0703-.07422-.10548-.04687-.10547-.04297-.10156-.04297-.29687-.29688-.08985-.07421-.08594-.0586-.10546-.04297-.08985-.0625-.08594-.0586-.10546-.04296-.08985-.0586-.08594-.0625-.07421-.0703-.10547-.04688-.08594-.0586-.10547-.04296-.08984-.0625-.10156-.04297-.10547-.04297-.08594-.0586-.10547-.04687-.10547-.04297-.10156-.04687-.08985-.0586-.10156-.04297-.10547-.04296-.08984-.0625-.11719-.02735-.13281-.01562-.13281.01562H299.75l-.13281.01563-.11719-.03125-.08984-.0586-.07422-.07422-.08985-.05859-.10156-.04688h-.14844l-.12109-.02734-.10156-.04297-.07422-.07422-.11719-.17968-.08984-.0586-.10156-.04297-.08985-.0625-.10547-.04296-.08984-.0586-.08594-.0586-.10547-.04687-.0586-.08594-.05858-.08984-.04297-.10547-.04688-.10156-.07422-.07422-.08594-.0586-.07421-.07421-.08985-.0586-.22265-.22265-.04297-.10547-.03125-.26563.10547-.04296h.14453l.10547.04296.07421.07422.08985.0586.08594.0586.10546.04687.08985.05859.14844.14844.0703.07422.14845.14843.0625.08594.07421.07422.08594.0586.07422.07421.08985.0625.08984.0586.08594.05859.26953.17578.10156.04688.10547.04296.10156.04297.04688-.07421.05859-.08594.07422-.07422.07031-.07422.10547.04297.07422.07422.0586.08984.04296.10156.04688.10547.04296.10547.1211.02735.11719-.02735.07421-.08984.04297-.10547.0586-.08985.07422-.07421.10546-.04297.1172-.02735.1328.01172.08985.0586.14844.14843.05859.08985.04297.10547.04687.10156.04297.10547.04297.10156.10547.04688.10547.04296.13281.01563.08594-.0586.0586-.08984.07421-.07422.10547-.04297.11719.02735.10547.04687.10156.04297.10547.04297.10156.04688.17969.11718v.11719l-.01563.13281.01563.13281.01562.13672.0586.08594.10156.04688.1211.02734.11718.03125h.14844l.11719-.03125.05859-.08984.17969-.1172.05859-.08983.07422-.07422.0586-.08594.11718-.17969.17969-.11719.11719.03125.08984.0586.04297.07422-.01563.1328v.1172l.08985.05859h.14843l.13282-.01563.1328-.01171.26563-.03125.10547-.04297.11719-.03125.1211-.02735.07421-.07421.07031-.07422.0625-.08985-.01562-.10547-.04688-.10156-.10156-.04297-.10547-.01562-.11718.02734-.26563.03125h-.14844l-.07421-.07422-.08985-.0586-.11719-.03124-.11718-.02735-.13282-.01562h-.14843l-.13282.01563h-.29687l-.10547-.04688-.14844-.14844-.04297-.10156-.05859-.08984.22266-.22266.08593-.0586.10547-.04296.11719-.03125.13281-.01563.13281.01563.13672.01562.10157.04297.1328-.01172.08985-.0625.10156-.04297.0625-.08984-.04687-.10156-.08984-.0586-.1172-.03125-.10155-.04296-.0586-.08985-.0625-.08984v-.11719l.01563-.13281.10547-.04688.07421-.07031v-.1211l-.08984-.05859-.03125-.11719.08985-.05859.07421-.07422.04297-.10547.0586-.08984.04687-.10156.01563-.13281v-.14844l-.04688-.10547-.04297-.10156-.08984-.0586-.13281-.01562-.10157-.04297-.13671-.01563-.1172-.03125h-.4453l-.13282-.01562-.13281-.01172-.13281-.01563-.11719-.03125h-.14844l-.13281-.01562-.13281-.01172-.26563-.03125-.1211-.04297-.08593-.0586-.07422-.07421v-.14844l.01172-.13281.10547-.04688.10156-.04296.13281-.01563h.15235l.13281-.01562h.29297l.1211.03125.10156.04296.08984.0586.23438.0625.12109-.04688.08984-.05859.10156-.04297.13282-.01562.10547.04296.10156.04688.13281.01172.1211-.02735h.14453l.12109-.03125.11719-.02734.10547-.04687.07421-.07422.08594-.0586.14844-.14843.0586-.08594.04687-.10547.02734-.11719.01563-.10547-.10156-.04296-.08985-.0586-.11719-.03125-.10546-.04297-.08985-.0625-.07422-.08594-.07422-.07421-.10156-.04297-.10547-.04688-.10156-.04297-.0586-.08984-.04687-.10156-.08594-.21094-.0625-.08594-.05859-.08984-.07422-.07422-.08594-.0586h-.26953l-.11719.03126-.08984.05859-.10156.04297-.13281.01562-.10547-.01562-.02735-.11719-.0625-.08984-.11718-.03125-.10157-.04297-.14843-.14844-.03125-.11719-.01563-.10546.07422-.07422.17969-.1172.11719-.02733.11718-.03125.13672.01562.10156.04297.10547.04297.10156.04687.10547.04297.1172.03125.1328.01563.1172.02734.1328.01563.10547-.01563.08985-.0586-.07422-.07421-.10547-.04297-.07422-.07422-.07422-.08984-.14844-.14844-.08593-.0586-.08985-.05859-.07422-.07422-.08984-.0586-.10156-.04687-.1211-.02734-.10156-.04688-.10547-.04296-.11719-.03125-.10156-.04297-.1211-.03125h-.14843l-.11719.03125-.10546.04297-.08594.0625-.17969.11718-.08594.0586-.08984.0586-.10547.04687-.08594.05859-.10547.04297-.10156.04297-.10547.04687-.07422.07422-.05859.08985-.0586.08593-.04687.10547-.0586.08594-.07421.07422-.13281-.01172-.1172-.03125h-.11718l-.07422.07422-.08984.0586-.07422.07421-.08984.0586-.08594.05859-.10547.04687-.10156.04297-.13672.01563-.10156-.04297-.14844-.14844-.10547-.04688h-.08594l-.10547.04688-.10156.04297-.1211.03125-.11718-.03125-.07422-.07422v-.11719l.03125-.1211.07422-.0703.0586-.08985.07421-.07422.11719-.03125.10547-.04296h.29297l.13281-.01563.13672-.01563.10156-.04296.08985-.0586.10156-.04687.08984-.0586.13281-.01171.08985.05859.13281.01172.08984-.0586.08594-.05859.10547-.04297.08984-.0586.08594-.0625.08985-.05859.14843-.14843.0586-.08594.05859-.08985.10547-.04296.13281-.01563.11719.02735.1211.03125.05859-.0586.05859-.08984.03125-.26563.02734-.11719.10547.01172.13281.01563.10157-.04297.08984-.0586.0586-.08984.07421-.07422.0586-.08984.04687-.10156.01172-.13281-.01172-.13282-.04687-.10547-.14844-.14843-.0586-.08985-.05859-.08594-.04297-.10546v-.44532l.01563-.1328v-.14845l.01172-.1328-.0586-.0586-.08984.0586-.10156-.04298-.17969-.11719-.08594-.05859-.0625-.08984-.0586-.08985-.07421-.07421-.08594-.0586-.1211.03125-.10155.01172-.10547.04688-.08594.05859-.10547.04297-.14844.14844-.08984.05859-.08594.0586-.08984.0625-.10547.04296-.13281.01563v-.1211l.10547-.04297.11718-.03125.07422-.0703.04297-.10548v-.14844l-.02734-.11718-.14844-.14844-.13281-.01563h-.14844l-.11719.03125-.10547.04297-.10156.04297-.08984.0625-.11719.02735-.07422-.07422.01172-.13281-.04297-.10157-.04297-.10547-.08984-.05859-.11719.02734-.1211.03125-.11718.03125-.10156.04297-.1211.03125-.10156.04297-.10547.04297-.08984.0586-.10156.01562v-.11719l.01562-.13281-.0586-.08985-.07421.04297-.14844.14844-.0586.08985-.07421.07421-.04688.10547-.04296.10156-.07422.07422-.0586.08985-.07422.07422-.05859.08593-.07422.07422-.08984.0625-.07422.07031-.07422.07422-.10156.01563-.13281.01562-.10547-.04296v-.1211l.14843-.14844.04297-.10156.0586-.08984.04687-.10156.04297-.10547.0586-.08985.03124-.11719.04297-.10156.03125-.1211.02735-.11718.04687-.10547.04297-.10156.04297-.10547.07422-.07031.08984-.0625.08985-.0586.10156-.04296h.29687l.26563-.03125.10547-.04297-.07422-.07422-.11719-.03125-.10547-.04297-.08984-.0586-.10156-.04687-.08985-.0586-.10156-.04296-.10547-.04297-.08984-.0625-.08594-.0586-.10547-.04296-.10156-.04297-.1211-.03125-.11718-.03125-.10157-.04297L297.5 410.25l-.10156-.04297-.08985-.0586-.04296-.10546-.01563-.13281.10156-.04297.13281-.01563.13672.01563.13282-.01563.10156-.04297.0586-.08984.01562-.10547-.08985-.0586-.07421-.07421-.10157-.04297-.08984-.0586-.14844-.14843-.04297-.10547-.01562-.13281v-.29297l-.0586-.08985-.08984-.05859-.07422-.07422-.04297-.10547-.03125-.11718-.0586-.08985-.07421-.07422-.11719-.02734-.07422-.07422-.08984-.0586-.08984-.0625-.08594-.05859-.07422-.07421-.0586-.08594-.04687-.10547-.08594-.0586-.14843-.14843-.19532-.0586-.1328.01563-.10157.04297-.07422.07422-.04688.10156-.04296.10547-.0586.08984-.0586.08594-.29687.29687-.08984.0586h-.08594l-.0625-.08594-.04297-.10547.03125-.11719.0586-.08984.02734-.11719-.01172-.13281-.08984-.0625-.10547.04688-.11719.02734-.11719.03125-.26953.17578-.10156.04688-.11719.02734-.10546.04687-.08985.0586-.10156.04297-.0586-.08594-.04687-.10547.01563-.13281.04687-.10547.07031-.07422.07422-.07031.0586-.08985v-.14843l-.04297-.10547h-.23829l-.10156.04687-.03125.11719-.02734.11719-.03125.1211-.07422.04296-.13281.01563-.07422-.04688-.04297-.10156-.04297-.10547-.04687-.10156-.04297-.10547-.1211.03125-.10156.04297-.13281.01562-.11719.03125-.10547.04297-.08984.0586-.10156.04687-.1211.02734-.13281.01563-.10156-.04297-.0586-.08985-.04687-.10546-.04297-.10157-.04297-.10546v-.1172l.0586-.08984.08593-.05859.17969-.11719.10156-.04687.10547-.04297.10547-.0586.10156-.04296.08985-.0625.10156-.04297.10547-.0586.10156-.04687.08984-.0586.10547-.04296.10156-.04297.08985-.0625.10156-.04297.13672-.01563.11719.03125.10156.04297.1211.03125.10156.04297.10546.04688.10157.04296.10547.04297.10156.04688.10547.04297.10156.04297.10547.04687.08594.0586.10546.04296.1172.03125.10546.04297.10156.04688.08985.0586.10547.04296.10156.04297.10547.04687.11719.02735.10156.04687.1211.02735h.14843l.08594-.0586.01562-.10156.0586-.08984-.02735-.1172-.07422-.07421-.11719-.17969-.07421-.07422-.08985-.07421-.17969-.1172-.08593-.05859-.10547-.04296-.10156-.04688-.26954-.17578-.05859-.08985-.07422-.07421-.0586-.08985-.04296-.10156-.03125-.11719-.01563-.13672v-.5625l-.01171-.1328-.01563-.13282-.03125-.11719-.01562-.13281-.01172-.13281-.03125-.1211-.22266-.22265-.0586-.08594-.01562-.10547.03125-.11719.13281-.01562v-91.41406H172.9922v1.45312l-.0586.23438-.35156 1.05078-.17187.52343-.1172.34766-.17577.41016-.11719.17187-.23438.29297-.23046.0586h-.35157l-.11718.05859-.23047.40625v.29297l.11719.17578.23046.23047.1172.23437.64062.75781.29297.46485.17578.23437.23047.35156.23437.34766.64063.8164.17578.46485.17187.41016.11719.69531.17578.46875.11719 1.39844.0586.46484v.875l.11718 1.04688v4.78125l-.0586.46484-.35156 1.28125-.17578.52344-.11328.41015-.35156.9297L172.93359 336l-.23437.58203-.11719.17578-.17187.34766-.17578.40625-.35157.8164-.0586.29297-.11327.29297-.11719.28906-.0586.17579-.11718.875-.0586.40625-.05859.11718-.0586.17579-.05859.17187-.23047.52734-.11718.17188v.23437l-.11719.23438-.0586.17187-.17577.58594v.28906l-.0586.17579v.29296l-.0586.11329-.05859.52734v.17187l-.05468.23438v2.6211l-.17578.8164-.1172.17578-.17577.23438-.1172.17187-.11327.23438-.58594.93359-.23047.28906-.29297.46485-.17578.23437-.28906.35156-.35156.69922-.11328.23047-.17579.41016-.17578.23046-.40625.52735-.8164.69922-.29297.17187-.28906.23438-.17579.11719-.17578.17578-.52344.40625-.52734.17578-.17187.17578-.23438.05469-.64062.17578h-.75782m12.21094 31.02344l-1.07422.44921.35938.89454 1.25-.71485.44531-.53906-.98047-.08985"/><path fill="#d3d3d3" fill-opacity="0" fill-rule="evenodd" d="M201.50781 416.59766h-.89453l.44922.6289.98047.35938.80469-.08985.4453-.98828-.17577.08985-.71485-.35547-.89453.35547m154.6211 59.0703l-.0586-.52343v-.29297l.11328-.29297.0586-.23046.46875-.46875h.11328l.11719-.11329.11718-.05859h.17579l.23437-.0586h.34766l.23437.0586.11719.0586.23047.17187.0586.17578.11718.58203v.29297l-.11719.17578-.17187.28906-.17579.17579-.52734.52343-.23047.23438-.11719.0586h-.17578l-.11718-.0586-.40625-.29297-.17579-.11719-.11718-.0586-.0586-.11327-.05468-.1172m6.64062-10.95702l-.0586-.17188v-1.10937l.0586-.17188.17578-.0586.17188-.05858h.17578l.23437-.0586.1172.0586.05858.69921-.05859.17188-.11719.17578-.11718.0586-.23438.52343-.11328.0586h-.23438l-.05859-.1172m9.61328-14.39062l-.11719-.17578v-.69922l.29297-.875.1172-.17187.17577-.35156.11328-.23047.1172-.29297.35155-.75781.1172-.23047.17187-.23438h.17578l.11719-.0586h.64062l.11719.0586.23437.23438.17188.11328.35156.29297.11719.11718.11328.17579v.11328l.11719.05859.11718.11719v.69922l-.05859.17578v.23047l-.0586.17578-.34765 1.05078-.11719.23047-.11719.23437-.11718.0586-.23047.23437-.64063.28906h-.875l-.41015-.11718-.64063-.46485"/><path fill="none" stroke="#bebebe" stroke-linecap="round" stroke-linejoin="round" stroke-miterlimit="10" stroke-width=".5" d="M467.95703 311.69531H144.02734v168.625h323.9297v-168.625"/><g clip-path="url(#a)"><path fill="#fff" fill-opacity="0" fill-rule="evenodd" d="M144 475.89063v4.4375h.0039H144V311.67188h.0039H144v164.21875"/></g><g clip-path="url(#b)"><path fill="#fff" fill-opacity="0" fill-rule="evenodd" d="M144.0039 480.32813V311.67188h26.625V413l-1.86718.7539 1.86719.35157.3828-.35156-.3828-.75391V311.67187h26.6328v86.38672l-2.65233 2.37891-1.07422 4.4375 3.72656 3.66016 2.36719.78125-.60157 4.4375 2.67188 2.46875 3.73437 1.96875.70313.5703 4.4375 1.39063 2.58594 2.47657 1.85547 1.98828 1.80468 2.45312 2.63281 2.94922 2.98438 1.48828-2.98438 2.32031-4.4375.13282-4.4414-.84766-4.4375-1.42187-.4336-.1836-1.02343-4.4375-2.98047-1.63672-3.1211-2.80468-1.3164-1.95313-2.01563-2.48437.25-4.4375-2.67578-2.50782-3.625 2.50782-.8125.8203-3.01172 3.6172-1.42578 1.16406-4.4375 2.80469-.46875.46875-3.63672 4.4414-.33593.48438-4.0625 3.95312-.375.28125-4.4375 1.79688-4.4375-1.74219-1.80078 4.10156-.44922 4.4375-2.08594 4.4375.09375 4.4414.78516 4.4375-.10938 4.4375 3.5664 4.23048 4.4375-2.65625 4.4375.61719 4.4375.71484 4.44141.52734 4.4375-.07812 4.4375-1.04297 4.4375-2.10156.30469-.21094 4.13672-1.36719 2.97266-3.07031 1.46484-.83203 4.4375-2.41406 4.4375.0039 2.84766-1.19531 1.59375-.36328 4.4375-.91406 4.4375-.00782 4.14062-3.15625.29688-.73047 4.4375-.2578 4.4414-.22657 4.4375.08984 4.4375-1.28125 2.11328-2.03125-2.11328-3.92578-.125-.51172-4.3125-4.08203-.32422-.35547-4.11328-4.05469-4.4414-.37109-.00782-.01172-4.42969-4.35156-.0703-.08984.0703-.44141 4.08594-3.9961-4.08594-4.0625-.20703-.375-1.19922-4.4375-3.03125-3.21874-4.4375.08203-4.4375.48828-4.4414-.98438-4.4375-.34375-.89063-.46484-3.54687-3.16406-1.3164-1.27344-3.1211-2.3789v-86.38673h57.69531v116.8047l-4.4375 1.87109-1.47266 1.16015 1.47266 1.23828 4.4375 1.6211 4.4414-.48438 1.28126-2.375-1.28125-1.02734-4.4414-2.0039v-116.8047h17.7539V423.5586l-4.4375 1.07422-2.5586 2.4375.0625 4.4375 2.4961 1.94531 4.4375-1.5078.6914-.4375 3.0586-4.4375-3.75-3.51173V311.67188h13.3164v102.40234l-3.74218 4.11719-.69532 1.45703-3.42187 2.98047-.58594 4.4414.11719 4.4375 1.64453 4.4375 2.2461 2.22266 2.52343-2.22266 1.91406-.45312 4.4375-.8789 4.4375-.88282 2.8125-2.22266-2.8125-3.54687-.66406-.89063.26953-4.4414-.42187-4.4375-3.6211-3.59375-4.4375-.52344V311.67187h13.31641V421.6797l-1.25781.94922 1.25781 1.45312 1.4375-1.45312-1.4375-.94922V311.67188h39.94531v109.625l-2.16797 1.33203 2.16797.55859 1.03125 3.88281 3.40625 3.29297.84375 1.14453-.64453 4.4375-.19922 1.20703-3.26172 3.23047-1.17578 1.0664-3.44531 3.3711-.9961.89844-3.16015 3.54297 3.16016 2.8164 4.4414-.15625 4.4375-.10156 4.4375-2.3789 4.4375 2.07812 4.4414.29297 3.6211-2.55078-3.6211-2.76953-1.7539-1.67188 1.7539-.30078 4.4375-.29297 4.4375-.28515 3.58985-3.5586.84766-3.48047 4.4375 1.26172.61328 2.21875 1.42188 4.4375-2.03516.76172-3.67969 3.67969 3.67969 3.79687 3.95703-3.79687.48438-1.47656 4.4375-2.16016 1.5703 3.63672 1.96485 4.4375-3.53515.70312-3.75391 3.73438.14844 4.4375 3.60546 4.14844 4.4375.1289 4.4375-.14453 4.4375-1.27734 4.44141-.4375 4.4375 1.67578 4.4375-2.17578 1.11328-1.91797 3.32422-.51563 4.0664-3.92187-1.42577-4.4375-2.64063-3.79297-.10547-.64453.10547-.70703 3.3125-3.73438-3.3125-2.65625-4.4375-1.41406-4.4375.73047-4.4375.42187-4.4414 1.77344-2.25782 1.14453-2.17969.29297-4.4375.51172-2.86718-.80469 2.86719-.20703 3.7539-4.23047-3.7539-4.17578-.0625-.26172-2.75782-4.4375-1.61719-1.75781-4.07421 1.75781-.36329.0664-4.4414 3.34376-4.35547-3.41016 4.35547-3.3711.94922-1.0664-.94922-1.34765-1.13672 1.34765-3.30078 4.34766-4.4375-4.0586-4.4375.20704-4.4375-.38282-4.11328-.11328-.32813-1.0039-4.4375-3.40235-4.4375.47266-3.3125-.50781-1.125-1.33204v-109.625H467.9961v168.65625h-78.80078l-1.08594-.53515-.29687.53515H144.0039"/></g><path fill="#50fcfc" fill-rule="evenodd" d="M157.51172 449.26172l-.09375-4.4414 2.08594-4.4375.44922-4.4375 1.80078-4.10157 4.4375 1.74219 4.4375-1.79688.375-.28125 4.0625-3.95312.33593-.48438 3.63672-4.4414.46875-.46875 4.4375-2.8047 1.42578-1.16405 3.01172-3.6172v5.66798l-3.17187 2.38672-1.26563 1.1328L181 427.07032l-1.39063 4.4375 4.33594 2.48828 4.0625-2.48828.375-.15234 4.4375-1.5586 3.1836-2.72656-3.1836-3.88281-1.10156-.5586-3.33594-2.38671v-5.66797l.8125-.82031 3.625-2.50782 2.67578 2.50782-.25 4.4375 2.01563 2.48437 1.3164 1.95313 3.1211 2.80468 2.98047 1.63672 1.02344 4.4375.43359.1836 4.4375 1.42187v3.44922l-4.4375 1.40625-4.4375.86719-4.4375-1.08985-4.4414 1.80079-4.4375-.83204-1.1836 1.66797-2.75 4.4375-.5039.5625h-4.4375l-1.23829-.5625-2.21094-4.4375-.99218-2.13672-4.4375.0625-2.02344 2.07422 2.02344 2.53906.83984 1.89844v4.4414l-.83984.39063-4.4375 2.38672-2.28125-2.77734 2.19922-4.4414-4.35547-3.08204-1.88282 3.08203.23047 4.4414-.13672 4.4375-.125 4.4375 1.91407 2.26954 2.80468-2.26953 1.63282-2.78125 4.4375 1.75781 2.80078 1.02344 1.63672.52734 4.4414.69922 4.4375-.27734 2.0664-.94922 2.3711-1.25781 4.4375-2.51172 2.79688-.66797 1.64453-.28516 4.4375-2.4336 2.41016-1.71874 2.02734-1.79688 4.4375-.1289 4.4414-1.28516 3.71094-1.23047-3.71094-2.60156-1.26171-1.83594-3.1797-3.82031v-3.44922l4.44142.84766 4.4375-.13281 2.98437-2.32032-2.98438-1.48828-2.6328-2.94922-1.8047-2.45312-1.85546-1.98828-2.58594-2.47657-4.4375-1.39062-.70313-.57031-3.73437-1.96875-2.67188-2.46875.60157-4.4375-2.3672-.78125-3.72655-3.66016 1.07422-4.4375 2.65234-2.3789v3.8203l-1.7539 2.9961 1.7539 1.72266 3.0625-1.72266-3.0625-2.9961v-3.8203l3.1211 2.3789 1.3164 1.27344 3.54687 3.16406.89063.46484v3.0547l-1.41016.92187-2.39844 4.4375 3.8086 3.17187 4.4375-.94531.90234 2.21094 3.53906 3.48437 1.46875.95313 2.96875 3.60156 1.4961.83984 2.9414 1.78516v3.69922l-2.80859 3.39062 2.8086 2.9414 4.4375-.8203.79296-2.1211-.79297-1.0625-4.4375-2.32812v-3.69922l4.4375 2.44531.57032.20703 2.98047 4.4375.88672 2.875 4.4414.89844 1.01172.66406 3.42578 1.22656L244 440.38281l-.01953-4.4375-2.33594-2.21094-2.02734-2.22656-2.41016-2.3789-4.4414.73046-1.59375-2.78906-2.84375-2.79297-1.32422-1.64843-.3047-4.4375-2.80858-4.2461-.1797-.1914-4.2578-2.60547-4.4375 1.99219-4.44141-1.25-3.19922-2.57422-1.23828-.92188v-3.05469l4.4375.34375 4.4414.98438 4.4375-.48828 4.4375-.08203 3.03125 3.21875 1.19922 4.4375.20703.375 4.08594 4.0625-4.08594 3.99609-.0703.4414.0703.08985 4.4297 4.35156.0078.01172 4.44141.3711 4.11328 4.05468.32422.35547 4.3125 4.08203.125.51172 2.11328 3.92578-2.11328 2.03125-4.4375 1.28125-4.4375-.08984-4.4414.22656-4.4375.25781-.29688.73047-4.14063 3.15625-4.4375.00781-4.4375.91407-1.59375.36328-2.84765 1.19531-4.4375-.0039-4.4375 2.41406-1.46484.83203-2.97266 3.07031-4.13672 1.36719-.30469.21094-4.4375 2.10156-4.4375 1.04297-4.4375.07812-4.4414-.52734-4.4375-.71485-4.4375-.61718-4.4375 2.65625-3.56641-4.23047.10938-4.4375-.78516-4.4375"/><path fill="#00e8fc" fill-rule="evenodd" d="M161.7539 460.40625l-1.91406-2.26953.125-4.4375.13672-4.4375-.23047-4.4414 1.88282-3.08204 4.35547 3.08203-2.19922 4.4414 2.28125 2.77735 4.4375-2.38672.83984-.39062v-4.4414l-.83984-1.89844-2.02344-2.53907 2.02344-2.07422 4.4375-.0625.99218 2.13672 2.21094 4.4375 1.23828.5625h4.4375l.5039-.5625 2.75-4.4375 1.1836-1.66797 4.4375.83204 4.4414-1.80079 4.4375 1.08985v4.71094l-4.4375.55859-4.4414-.44531-4.4375.57421-.45703.58594-3.98047 4.4336-4.4375-1.38282-1.99219 1.39063.73829 4.4375 1.2539.83203 4.4375.58203 2.35547-1.41406-2.30469-4.4375 4.38672-2.41406 1.27735 2.41406 3.16015 1.33984 3.47266-1.33984.96875-1.9414 4.4375-.72266 2.14062-1.77735-2.14062-1.27344v-4.71093l4.4375-.86719 4.4375-1.40625 3.17969 3.82031 1.26172 1.83594 3.71093 2.60156-3.71094 1.23047-4.4414 1.28516-4.4375.1289-2.02734 1.79688-2.41016 1.71875-4.4375 2.4336-1.64453.28515-2.79688.66797-4.4375 2.51172-2.3711 1.2578-2.0664.94923-4.4375.27734-4.4414-.69922-1.63672-.52734-2.80078-1.02344-4.4375-1.75781-1.63282 2.78125-2.80468 2.26953"/><path fill="#50fcfc" fill-rule="evenodd" d="M170.6289 414.10547l-1.86718-.35156L170.6289 413l.3828.7539-.3828.35157"/><path fill="#00d4fc" fill-rule="evenodd" d="M178.2539 453.69922l-.73827-4.4375 1.99218-1.39063 4.4375 1.38282 3.98047-4.4336.45703-.58594 4.4375-.57421 4.4414.4453 4.4375-.55858 2.14063 1.27343-2.14062 1.77735-4.4375.72265-.96875 1.9414-3.47266 1.33985-3.16015-1.33984-1.27735-2.41406-4.38672 2.41406 2.3047 4.4375-2.35548 1.41406-4.4375-.58203-1.2539-.83203"/><path fill="#00e8fc" fill-rule="evenodd" d="M183.94531 433.9961l-4.33594-2.48829L181 427.07031l2.94531-3.3086 1.26563-1.1328 3.17187-2.38672 3.33594 2.38672 1.10156.55859 3.1836 3.88281-3.1836 2.72656-4.4375 1.5586-.375.15234-4.0625 2.48828m13.3164-27.39843l-1.7539-1.72266 1.7539-2.9961 3.0625 2.9961-3.0625 1.72266m8.875 10.32812l-3.80858-3.17187 2.39843-4.4375 1.41016-.92188v4.0039l-1.00781 1.35548 1.0078.83593 1.5625-.83593-1.5625-1.35547v-4.0039l1.23829.92187 3.19922 2.57421 4.4414 1.25 4.4375-1.99218v3.39062l-4.4375 2.52344-.84765 1.1289.84766.83594 4.4375 3.09766 1.58593.5039 2.85156 1.88282 3.9961 2.5586.4414.28906.19532-.28907-.19531-.1914-3.41407-4.25-1.02344-2.21485-.83203-2.22265-3.60547-3.65235v-3.39062l4.25782 2.60547.17969.1914 2.80859 4.2461.30469 4.4375 1.32422 1.64843 2.84375 2.79297 1.59375 2.78906 4.4414-.73046 2.41016 2.3789 2.02734 2.22656 2.33594 2.21094.01953 4.4375-2.35547 1.22656-3.42578-1.22656-1.01172-.66406-4.4414-.89844-.88672-2.875-2.98047-4.4375-.57031-.20703-4.4375-2.44531-2.94141-1.78516-1.4961-.83984-2.96875-3.60156-1.46875-.95313-3.53906-3.48437-.90234-2.21094-4.4375.94531"/><path fill="#00d4fc" fill-rule="evenodd" d="M206.13672 414.58984l-1.00781-.83593 1.0078-1.35547 1.5625 1.35547-1.5625.83593m8.87892 4.4375l-.84766-.83593.84766-1.12891 4.4375-2.52344v1.71875l-2.76172 1.9336 2.76172 2.08203 1.91015-2.08203-1.91016-1.9336v-1.71875l3.60547 3.65235.83203 2.22265 1.02344 2.21485 3.41406 4.25.19532.1914-.19531.28906-.44141-.28906-3.9961-2.5586-2.85156-1.8828-1.58594-.50391-4.4375-3.09766"/><path fill="#00c4fc" fill-rule="evenodd" d="M219.45313 420.27344l-2.76172-2.08203 2.76172-1.9336v1.71875l-.3086.21485.3086.23437.21093-.23437-.21094-.21485v-1.71875l1.91016 1.9336-1.91016 2.08203"/><path fill="#00b8fc" fill-rule="evenodd" d="M219.45313 418.42578l-.3086-.23437.3086-.21485.21093.21485-.21094.23437"/><path fill="#fff" fill-opacity="0" fill-rule="evenodd" d="M223.89063 432.55469l-2.8086 3.39062 2.8086 2.9414 4.4375-.8203.79296-2.1211-.79297-1.0625-4.4375-2.32812"/><path fill="#50fcfc" fill-rule="evenodd" d="M250.51953 432.7461l-1.47266-1.23829 1.47266-1.16015 4.4375-1.8711 4.4414 2.0039 1.28126 1.02735-1.28125 2.375-4.4414.48438-4.4375-1.6211m15.2578-1.23828l-.0625-4.4375 2.5586-2.4375 4.4375-1.07422v2.09766l-2.77344 1.41406 2.77344 1.86328 1.51172-1.86328-1.51172-1.41406v-2.09766l3.75 3.51172-3.0586 4.4375-.6914.4375-4.4375 1.50781-2.4961-1.9453"/><path fill="#00e8fc" fill-rule="evenodd" d="M272.71094 428.9336l-2.77344-1.86329 2.77344-1.41406 1.51172 1.41406-1.51172 1.86328"/><path fill="#50fcfc" fill-rule="evenodd" d="M277.69922 431.50781l-.11719-4.4375.58594-4.4414 3.42187-2.98047.69532-1.45703 3.74218-4.1172v1.6172l-2.27343 2.5-2.08985 4.4375-.07422.07421-2.59765 4.3672.19922 4.4375 2.39843 3.5703 4.4375-.5703 4.4375-2.21485 2.04297-.78516-2.04297-3.125-.52734-1.3125.52734-.1875 3.09766-4.2539-1.10547-4.4375-1.99219-1.97657-4.4375-.52343v-1.6172l4.4375.52345 3.6211 3.59375.42187 4.4375-.26953 4.4414.66406.89063 2.8125 3.54687-2.8125 2.22266-4.4375.88281-4.4375.8789-1.91406.45313-2.52344 2.22266-2.24609-2.22266-1.64453-4.4375"/><path fill="#00e8fc" fill-rule="evenodd" d="M279.1914 431.50781l-.19921-4.4375 2.59765-4.36719.07422-.07421 2.08985-4.4375 2.27343-2.5 4.4375.52343v2.9336l-4.4375 1.51953-.23046 1.96094-4.20704 4.01562-.2539.42578.2539 3.32422.1836 1.11328 4.2539 1.36719 2.26954-1.36719-2.26954-3.08594-3.43359-1.35156 3.4336-3.85547 4.4375 1.50782 1.52343-2.09375-1.52344-3.48047v-2.9336l1.9922 1.97657 1.10546 4.4375-3.09766 4.2539-.52734.1875.52734 1.3125 2.04297 3.125-2.04297.78516-4.4375 2.21484-4.4375.57031-2.39843-3.5703"/><path fill="#00d4fc" fill-rule="evenodd" d="M281.58984 430.39453l-.2539-3.32422.2539-.42578 4.20704-4.01562.23046-1.96094 4.4375-1.51953 1.52344 3.48047-1.52344 2.09375-4.4375-1.50782-3.43359 3.85547 3.4336 1.35156 2.26952 3.08594-2.26953 1.36719-4.2539-1.36719-.1836-1.11328"/><path fill="#50fcfc" fill-rule="evenodd" d="M299.34375 424.08203l-1.25781-1.45312 1.25781-.94922 1.4375.94922-1.4375 1.45312m35.5039 27.9961l-3.16015-2.81641 3.16016-3.54297.99609-.89844 3.44531-3.3711 1.17578-1.0664 3.26172-3.23047.19922-1.20703.64453-4.4375-.84375-1.14453-3.40625-3.29297-1.03125-3.88281-2.16797-.5586 2.16797-1.33202 1.125 1.33203 3.3125.5078 4.4375-.47265v1.52735l-4.4375 2.01953-.74219.85937.7422.71485 2.74609 3.72265-1.75 4.4375 3.4414 3.46094v.80078l-1.10937.17578 1.10937.29297.17188-.29297-.17188-.17578v-.80078l.9414.97656-.9414 1.61328-4.4375-.30078-3.41015 3.125 3.41015 3.78125 4.4375-.72656 3.97266-3.05469.46484-.23047 4.4414-.6953 4.4375-.6797 4.4375-.82812 2.01954-2.0039 1-4.4375-1.94922-4.4375-1.07031-.9961-4.4375-1.35547-4.4375-1.39063-4.4414.65625-1.51954-1.35156-2.91797-2.8789v-1.52735l4.4375 3.40235.32813 1.0039 4.11328.11328 4.4375.38282 4.4375-.20704 4.4375 4.0586 3.30078-4.34766 1.13672-1.34765.94922 1.34765-.94922 1.0664-4.35547 3.3711 4.35547 3.41016 4.4414-3.34375.36329-.0664 4.07421-1.75782v2.05078l-4.4375 1.82031-2.47656 2.32422 2.47656 3.32422.23829 1.11328 4.19921 3.89063 4.4375-1.59375 2.03907-2.29688-2.03906-2.26562-.50782-2.17188-3.92969-4.14453V429.75l1.6172 1.75781 2.7578 4.4375.0625.26172 3.75391 4.17578-3.7539 4.23047-2.8672.20703 2.8672.80469 4.4375-.51172 2.17968-.29297 2.25781-1.14453 4.44141-1.77344 4.4375-.42187 4.4375-.73047v1.1289l-4.4375 1.69141-4.4375.91406-.6211.33594-3.8203.57422-4.4375 1.26563-3.41016 2.60156-.51563 4.4375-.51171.5-4.4375 1.3711-2.57813 2.5664.25 4.4375 2.32813 2.67969 4.4375.9453 4.4375-.20312 4.375-3.42187.0625-.07031 4.4414-.57813 1.23438.64844 3.20312 2.29687 2.72266-2.29687 1.71484-.96875 4.4375-.42188 3.16016-3.04687-3.16016-4.13281-.21484-.3047-.73047-4.4375.44922-4.4414-3.9414-2.9414V440.75l4.4375 1.41406 3.3125 2.65625-3.3125 3.73438-.10548.70703.10547.64453 2.64063 3.79297 1.42578 4.4375-4.0664 3.92187-3.32423.51563-1.11328 1.91797-4.4375 2.17578-4.4375-1.67578-4.4414.4375-4.4375 1.27734-4.4375.14453-4.4375-.1289-3.60547-4.14844-.14844-4.4375 3.7539-3.73438 3.53516-.70312-1.96484-4.4375-1.57031-3.63672-4.4375 2.16016-.48438 1.47656-3.95703 3.79687-3.67969-3.79687 3.67969-3.67969v1.15235l-2.52735 2.52734 2.52735 2.60547 2.71875-2.60547-2.71875-2.52735v-1.15234l2.03515-.76172-1.42187-4.4375-.61328-2.21875-4.4375-1.26172-.84766 3.48047-3.58984 3.5586-4.4375.28515-4.4375.29297-1.7539.30078 1.7539 1.67188 3.6211 2.76953-3.6211 2.55078-4.4414-.29297-4.4375-2.07812-4.4375 2.3789-4.4375.10156-4.44141.15625"/><path fill="#00e8fc" fill-rule="evenodd" d="M343.72656 448.60156l-3.41015-3.78125 3.41015-3.125 4.4375.30078.9414-1.61328-.9414-.97656-3.4414-3.46094 1.75-4.4375-2.7461-3.72265-.74219-.71485.7422-.85937 4.4375-2.01953v2.53906l-.60938.33984.60937.98438 2.54297 3.45312-2.54297 1.00781-2.11328 3.4297 2.11328 2.125 2.22656 2.3125-2.22656 3.8125-1.5664.625 1.5664.67577.8789-.67578 3.5586-1.77734 4.4414-.1875 4.4375-1.32813 3.32813-1.14453 1.10938-3.19922.24219-1.23828-.2422-.4336-4.4375-3.61327-.17187-.39063-4.26562-2.76562-4.4414 1.96875-4.09376-3.64063-.34375-.33984v-2.53906l2.91797 2.8789 1.51953 1.35156 4.4414-.65625 4.4375 1.39063 4.4375 1.35547 1.07032.9961 1.94922 4.4375-1 4.4375-2.01953 2.0039-4.4375.82812-4.4375.6797-4.4414.6953-.46485.23047-3.97266 3.05469-4.4375.72656"/><path fill="#00d4fc" fill-rule="evenodd" d="M348.16406 438.07031l-2.11328-2.125 2.11328-3.42969 2.54297-1.0078-2.54297-3.45313-.60937-.98438.60937-.33984.34375.33984 4.09375 3.64063 4.4414-1.96875v.97265l-3.27733 1.79297-1.16407 1.4375-4.4375 1.72656-.78515 1.27344.78515.78906 3.51172 3.64844.92578 1.11328 4.4414.32032 3.59767-1.4336.83984-2.77734.76953-1.66016-.76953-.65234-1.67578-3.78516-2.76172-1.79297v-.97265l4.26562 2.76562.17188.39063 4.4375 3.61328.24219.4336-.2422 1.23827-1.10937 3.19922-3.32812 1.14453-4.4375 1.32813-4.4414.1875-3.5586 1.77734-.8789.67578-1.56641-.67578 1.5664-.625 2.22656-3.8125-2.22656-2.3125"/><path fill="#fff" fill-opacity="0" fill-rule="evenodd" d="M348.16406 440.20703l-1.10937.17578 1.10937.29297.17188-.29297-.17188-.17578"/><path fill="#00c4fc" fill-rule="evenodd" d="M348.16406 436.73438l-.78515-.78907.78515-1.27344 4.4375-1.72656 1.16406-1.4375 3.27735-1.79297v.97266l-1.5.82031-2.9414 3.64453-2.07032.79297 2.07031 2.49219 1.8789 1.94531 2.5625.39844.9922-.39844 2.62109-4.4375-2.35156-4.4375-1.26172-.82031v-.97266l2.76172 1.79297 1.67578 3.78516.76953.65234-.76953 1.66016-.83985 2.77734-3.59765 1.4336-4.4414-.32032-.92579-1.11328-3.51172-3.64844"/><path fill="#00b8fc" fill-rule="evenodd" d="M352.60156 438.4375l-2.07031-2.49219 2.07031-.79297 2.9414-3.64453 1.5-.82031v1.07813l-3.54687 4.17968 3.54688 3.57031 2.59375-3.5703-2.59375-4.1797v-1.07812l1.26172.82031 2.35156 4.4375-2.6211 4.4375-.99218.39844-2.5625-.39844-1.8789-1.94531"/><path fill="#00a8fc" fill-rule="evenodd" d="M357.04297 439.51563l-3.54688-3.57032 3.54688-4.17969v1.64454l-2.15235 2.53515 2.15235 2.16797 1.57422-2.16797-1.57422-2.53515v-1.64454l2.59375 4.1797-2.59375 3.5703"/><path fill="#009800" fill-rule="evenodd" d="M357.04297 438.11328l-2.15235-2.16797 2.15235-2.53515v1.64062l-.76172.89453.76172.76563.55469-.76563-.5547-.89453v-1.64062l1.57423 2.53515-1.57422 2.16797"/><path fill="#00ac00" fill-rule="evenodd" d="M357.04297 436.71094l-.76172-.76563.76172-.89453.55469.89453-.5547.76563"/><path fill="#00e8fc" fill-rule="evenodd" d="M374.79297 451.86719l-2.52735-2.60547 2.52735-2.52735v1.92188l-.60547.60547.60547.625.65234-.625-.65234-.60547v-1.92188l2.71875 2.52735-2.71875 2.60547"/><path fill="#00d4fc" fill-rule="evenodd" d="M374.79297 449.88672l-.60547-.625.60547-.60547.65234.60547-.65234.625"/><path fill="#00e8fc" fill-rule="evenodd" d="M379.23438 439.26953l-2.47657-3.32422 2.47656-2.32422 4.4375-1.8203v.78515l-4.1328 3.35937.98046 4.4375 3.15235 2.91797 4.05078-2.91797-.86329-4.4375-3.1875-3.35937v-.78516l3.9297 4.14453.5078 2.17188 2.03907 2.26562-2.03906 2.29688-4.4375 1.59375-4.19922-3.89063-.23829-1.11328"/><path fill="#00d4fc" fill-rule="evenodd" d="M380.51953 440.38281l-.98047-4.4375 4.13281-3.35937v.78125l-3.16796 2.57812 1.0664 4.4375 2.10156 1.94922 2.70313-1.94922-.25781-4.4375-2.44531-2.57812v-.78125l3.1875 3.35937.86328 4.4375-4.05079 2.91797-3.15234-2.91797"/><path fill="#00c4fc" fill-rule="evenodd" d="M381.57031 440.38281l-1.0664-4.4375 3.16796-2.57812v.78125l-2.20703 1.79687 1.15235 4.4375 1.05469.97656 1.35156-.97656.35156-4.4375-1.70313-1.79687v-.78125l2.44532 2.57812.25781 4.4375-2.70313 1.94922-2.10156-1.94922"/><path fill="#00e8fc" fill-rule="evenodd" d="M381.34375 462.57422l-.25-4.4375 2.57813-2.5664 4.4375-1.3711.51171-.5.51563-4.4375 3.41015-2.60156 4.4375-1.26563 3.82032-.57422.6211-.33594 4.4375-.91406 4.4375-1.6914v1.88671l-2.06642 1.0547-2.37109 1.73046-4.4375-.58984-4.4414.6211-4.4375 2.66015-.02344.01953-2.89453 4.4375-1.51954 1.48828-4.4375 2.32813-.625.62109.42188 4.4375.20313.23047 4.4375 2.3164 4.4375-.30468 2.86328-2.2422 1.57421-1.74608 4.44141-1.10547 4.4375 2.21093 4.4375-2.34375 4.4375.13282 1.64844-1.58594-1.64844-2.15235-1.6289-2.28515-.71485-4.4375-.67969-4.4414-1.41406-1.0547v-1.88671l3.9414 2.9414-.44921 4.4414.73047 4.4375.21484.3047 3.16016 4.1328-3.16016 3.04688-4.4375.42188-1.71484.96875-2.72266 2.29687-3.20312-2.29687-1.23438-.64844-4.4414.57813-.0625.0703-4.375 3.42188-4.4375.20313-4.4375-.94531-2.32813-2.6797"/><path fill="#00b8fc" fill-rule="evenodd" d="M382.61719 440.38281l-1.15235-4.4375 2.20704-1.79687v.78515l-1.2461 1.01172 1.24219 4.4375.0039.0039.00391-.0039.95703-4.4375-.96094-1.01172v-.78515l1.70313 1.79687-.35156 4.4375-1.35156.97656-1.0547-.97656"/><path fill="#00a8fc" fill-rule="evenodd" d="M383.66797 440.38281l-1.24219-4.4375 1.2461-1.01172v.78125l-.28516.23047.28515 1.01172.21875-1.01172-.21875-.23047v-.78125l.96094 1.01172-.95703 4.4375-.0039.0039-.00391-.0039"/><path fill="#00d4fc" fill-rule="evenodd" d="M383.46875 462.57422l-.42188-4.4375.625-.6211 4.4375-2.32812 1.51954-1.48828 2.89453-4.4375.02344-.01953 4.4375-2.66016 4.4414-.6211 4.4375.58985 2.3711-1.73047 2.0664-1.05469v3.14063l-4.4375 2.33984-4.4375-2.05078-4.4414.57422-2.48047 1.49219-1.95704 1.51953-1.91406 2.91797-2.52344 2.47265-3.30859 1.96485.65235 4.4375 2.65625 1.46484 4.4375-.40625 1.35156-1.0586 3.08594-3.41796 3.04296-1.01953 1.39844-.65235 1.84766.65235 2.58984 1.0664 2.58594-1.0664 1.85156-.97656 3.3789.97656 1.0586.1289.13281-.1289-.1328-.17188-3.03907-4.26562-.70313-4.4375-.6953-2.35547v-3.14063l1.41405 1.0547.6797 4.4414.71483 4.4375 1.62891 2.28515 1.64844 2.15235-1.64844 1.58594-4.4375-.13282-4.4375 2.34375-4.4375-2.21093-4.4414 1.10546-1.57422 1.7461-2.86329 2.24219-4.4375.30468-4.4375-2.3164-.20312-.23047"/><path fill="#009800" fill-rule="evenodd" d="M383.67188 436.95703l-.28516-1.01172.28515-.23047.21875.23047-.21875 1.01172"/><path fill="#00c4fc" fill-rule="evenodd" d="M385.45313 462.57422l-.65235-4.4375 3.3086-1.96485 2.52343-2.47265 1.91406-2.91797 1.95704-1.51953 2.48046-1.49219 4.44141-.57422v1.23047l-4.4414.52735-.50782.30859-3.92969 3.05469-.90625 1.3828-3.53125 3.46095-1.64843.97656.95703 4.4375.6914.38281 3.39844-.38281 1.03906-.4961 3.03907-3.9414 1.39844-1.16016 4.4414-1.83594 3.1211-1.4414-1.32813-4.4375-1.79297-.83594v-1.23047l4.4375 2.05078 4.4375-2.33984.69531 2.35547.70313 4.4375 3.03906 4.26562.13281.17188-.1328.1289-1.0586-.1289-3.3789-.97656-1.85157.97656-2.58594 1.0664-2.58984-1.0664-1.84766-.65235-1.39844.65235-3.04296 1.01953-3.08594 3.41797-1.35156 1.0586-4.4375.40624-2.65625-1.46484"/><path fill="#00b8fc" fill-rule="evenodd" d="M387.41797 462.57422l-.95703-4.4375 1.64844-.97656 3.53125-3.46094.90625-1.38281 3.92968-3.0547.50781-.30858v4.20312l-2.26562.54297 2.26563.3086.9453-.3086-.9453-.54297v-4.20313l4.4414-.52734 1.79297.83594 1.32813 4.4375-3.1211 1.4414-4.4414 1.83594-1.39844 1.16016-3.03906 3.9414-1.03907.4961-3.39844.38281-.6914-.38281"/><g clip-path="url(#c)"><path fill="#50fcfc" fill-rule="evenodd" d="M387.8125 480.32813l.29688-.53516 1.08593.53515h-1.38281"/></g><path fill="#00a8fc" fill-rule="evenodd" d="M396.98438 454.00781l-2.26563-.3086 2.26563-.54296.9453.54297-.9453.3086"/><g clip-path="url(#d)"><path fill="#fff" fill-opacity="0" fill-rule="evenodd" d="M467.9961 480.32813H468V311.67188h-.0039H468v168.65625h-.0039"/></g><path fill="#fff" fill-opacity="0" fill-rule="evenodd" d="M333.28125 424.375l4.14453 4.11328 7.01563-7.07031-4.14454-4.11328-7.01562 7.07031"/><path fill-rule="evenodd" d="M341.48828 421.07031l.36328.35938-4.4336 4.46484-.55858-.55078 3.16015-3.1875-.98437-.98047.39062-.39453.4414.35156.21876.13672.22656.09766.24219.04297.27344-.02344.30859-.10938.35156-.20703"/><path fill="#fff" fill-opacity="0" fill-rule="evenodd" d="M406.51172 445.5586l5.82812.42577.72266-9.93359-5.82813-.42578-.72265 9.9336"/><path fill-rule="evenodd" d="M410.59375 437.70703l.50781.03516-.45703 6.28125-.78515-.0586.32421-4.47656-1.3828-.10156.03905-.55469.5625-.02344.25782-.03515.23437-.07422.21094-.125.1914-.19531.16016-.28516.13672-.38672"/><path fill="#fff" fill-opacity="0" fill-rule="evenodd" d="M195.96875 418.38281l4.76953 3.3711 5.75-8.13282-4.76953-3.37109-5.75 8.13281"/><path fill-rule="evenodd" d="M203.51953 413.76563l.41406.29687-3.6328 5.13672-.64454-.45313 2.59375-3.66406-1.13281-.80469.32031-.45312.4961.26953.23437.10156.23828.0625h.25l.26172-.07031.28516-.16016.3164-.26171"/><path fill="#fff" fill-opacity="0" fill-rule="evenodd" d="M238.90234 449.17188l5.79297-.76172-1.29687-9.875-5.78906.7578 1.29296 9.87892"/><path fill-rule="evenodd" d="M241.3164 440.65625l.50391-.0664.8164 6.24218-.77733.10156-.58594-4.44921-1.375.17968-.07422-.55078.54687-.13672.2461-.08594.21484-.12109.1836-.16406.14453-.23047.10156-.3125.05469-.40625"/><g clip-path="url(#e)"><path fill="none" stroke="#000" stroke-linecap="round" stroke-linejoin="round" stroke-miterlimit="10" stroke-width=".5" d="M147.28516 481.57813l-6.57032-2.5"/></g><g clip-path="url(#f)"><path fill="none" stroke="#000" stroke-linecap="round" stroke-linejoin="round" stroke-miterlimit="10" stroke-width=".5" d="M146.32813 481.21484l.15234 1.21875"/></g><g clip-path="url(#g)"><path fill="none" stroke="#000" stroke-linecap="round" stroke-linejoin="round" stroke-miterlimit="10" stroke-width=".5" d="M160.625 481.50781l-6.6211-2.35937"/></g><g clip-path="url(#h)"><path fill="none" stroke="#000" stroke-linecap="round" stroke-linejoin="round" stroke-miterlimit="10" stroke-width=".5" d="M173.97266 481.41016l-6.6875-2.16407"/></g><g clip-path="url(#i)"><path fill="none" stroke="#000" stroke-linecap="round" stroke-linejoin="round" stroke-miterlimit="10" stroke-width=".5" d="M187.35938 481.16406l-6.82813-1.67187"/></g><g clip-path="url(#j)"><path fill="none" stroke="#000" stroke-linecap="round" stroke-linejoin="round" stroke-miterlimit="10" stroke-width=".5" d="M187.35938 481.16406l.60156 2.3789"/></g><g clip-path="url(#k)"><path fill="none" stroke="#000" stroke-linecap="round" stroke-linejoin="round" stroke-miterlimit="10" stroke-width=".5" d="M200.73047 480.88281l-6.9414-1.10937"/></g><g clip-path="url(#l)"><path fill="none" stroke="#000" stroke-linecap="round" stroke-linejoin="round" stroke-miterlimit="10" stroke-width=".5" d="M200.73047 480.88281l.79297 2.32422"/></g><g clip-path="url(#m)"><path fill="none" stroke="#000" stroke-linecap="round" stroke-linejoin="round" stroke-miterlimit="10" stroke-width=".5" d="M214.0039 481.10156l-6.85546-1.54687"/></g><g clip-path="url(#n)"><path fill="none" stroke="#000" stroke-linecap="round" stroke-linejoin="round" stroke-miterlimit="10" stroke-width=".5" d="M214.0039 481.10156l.64454 2.36719"/></g><g clip-path="url(#o)"><path fill="none" stroke="#000" stroke-linecap="round" stroke-linejoin="round" stroke-miterlimit="10" stroke-width=".5" d="M227.1914 481.53125l-6.60156-2.40234"/></g><g clip-path="url(#p)"><path fill="none" stroke="#000" stroke-linecap="round" stroke-linejoin="round" stroke-miterlimit="10" stroke-width=".5" d="M240.45313 481.66797l-6.4961-2.67578"/></g><g clip-path="url(#q)"><path fill="none" stroke="#000" stroke-linecap="round" stroke-linejoin="round" stroke-miterlimit="10" stroke-width=".5" d="M253.54688 482.11719l-6.05079-3.57422"/></g><g clip-path="url(#r)"><path fill="none" stroke="#000" stroke-linecap="round" stroke-linejoin="round" stroke-miterlimit="10" stroke-width=".5" d="M266.4375 482.6875l-5.20703-4.71875"/></g><g clip-path="url(#s)"><path fill="none" stroke="#000" stroke-linecap="round" stroke-linejoin="round" stroke-miterlimit="10" stroke-width=".5" d="M280.08594 482.25781l-5.8711-3.85937"/></g><g clip-path="url(#t)"><path fill="none" stroke="#000" stroke-linecap="round" stroke-linejoin="round" stroke-miterlimit="10" stroke-width=".5" d="M293.47656 482.14063l-6.02344-3.6211"/></g><g clip-path="url(#u)"><path fill="none" stroke="#000" stroke-linecap="round" stroke-linejoin="round" stroke-miterlimit="10" stroke-width=".5" d="M307.14063 481.36328l-6.71875-2.0664"/></g><g clip-path="url(#v)"><path fill="none" stroke="#000" stroke-linecap="round" stroke-linejoin="round" stroke-miterlimit="10" stroke-width=".5" d="M306.16016 481.0625l.23437 1.20313"/></g><g clip-path="url(#w)"><path fill="none" stroke="#000" stroke-linecap="round" stroke-linejoin="round" stroke-miterlimit="10" stroke-width=".5" d="M320.57422 480.83594l-6.95313-1.01563"/></g><g clip-path="url(#x)"><path fill="none" stroke="#000" stroke-linecap="round" stroke-linejoin="round" stroke-miterlimit="10" stroke-width=".5" d="M319.5625 480.6914l.41016 1.15235"/></g><g clip-path="url(#y)"><path fill="none" stroke="#000" stroke-linecap="round" stroke-linejoin="round" stroke-miterlimit="10" stroke-width=".5" d="M333.73438 481.46875l-6.64844-2.28125"/></g><g clip-path="url(#z)"><path fill="none" stroke="#000" stroke-linecap="round" stroke-linejoin="round" stroke-miterlimit="10" stroke-width=".5" d="M346.75 482.1211l-6.04688-3.58204"/></g><g clip-path="url(#A)"><path fill="none" stroke="#000" stroke-linecap="round" stroke-linejoin="round" stroke-miterlimit="10" stroke-width=".5" d="M359.91797 482.34375l-5.7539-4.03125"/></g><g clip-path="url(#B)"><path fill="none" stroke="#000" stroke-linecap="round" stroke-linejoin="round" stroke-miterlimit="10" stroke-width=".5" d="M372.6914 482.95313l-4.67187-5.25"/></g><g clip-path="url(#C)"><path fill="none" stroke="#000" stroke-linecap="round" stroke-linejoin="round" stroke-miterlimit="10" stroke-width=".5" d="M386.28516 482.67578l-5.23047-4.69531"/></g><g clip-path="url(#D)"><path fill="none" stroke="#000" stroke-linecap="round" stroke-linejoin="round" stroke-miterlimit="10" stroke-width=".5" d="M399.72266 482.53125L394.25 478.125"/></g><g clip-path="url(#E)"><path fill="none" stroke="#000" stroke-linecap="round" stroke-linejoin="round" stroke-miterlimit="10" stroke-width=".5" d="M413.125 482.41797l-5.64844-4.17969"/></g><g clip-path="url(#F)"><path fill="none" stroke="#000" stroke-linecap="round" stroke-linejoin="round" stroke-miterlimit="10" stroke-width=".5" d="M426.46094 482.39453l-5.6875-4.1289"/></g><g clip-path="url(#G)"><path fill="none" stroke="#000" stroke-linecap="round" stroke-linejoin="round" stroke-miterlimit="10" stroke-width=".5" d="M439.80078 482.35547l-5.73828-4.05078"/></g><g clip-path="url(#H)"><path fill="none" stroke="#000" stroke-linecap="round" stroke-linejoin="round" stroke-miterlimit="10" stroke-width=".5" d="M453.1289 482.33594l-5.76562-4.01563"/></g><g clip-path="url(#I)"><path fill="none" stroke="#000" stroke-linecap="round" stroke-linejoin="round" stroke-miterlimit="10" stroke-width=".5" d="M465.96484 482.89063l-4.80859-5.125"/></g><g clip-path="url(#J)"><path fill="none" stroke="#000" stroke-linecap="round" stroke-linejoin="round" stroke-miterlimit="10" stroke-width=".5" d="M147.21484 468.4336l-6.42968-2.83985"/></g><path fill="none" stroke="#000" stroke-linecap="round" stroke-linejoin="round" stroke-miterlimit="10" stroke-width=".5" d="M147.21484 468.4336l.1797 2.4453m13.10937-2.39062l-6.37891-2.94922m6.3789 2.94922l.13673 2.44922m13.30468-2.75781l-6.6289-2.33203m6.6289 2.33203l.36719 2.42578m12.9961-2.57813L180.58202 466m6.72656 2.02734l.47657 2.41016m12.83203-2.38281l-6.71485-2.08203m6.71485 2.08203l.45703 2.41015m12.91797-2.6289l-6.83203-1.64453m6.83203 1.64453l.61328 2.375m12.73828-2.54688l-6.90625-1.30078m6.90625 1.30078l.73047 2.33985m12.44922-1.83594l-6.63672-2.3086m6.63672 2.3086l.375 2.42578m12.76172-2.0039l-6.28125-3.14844m5.36718 2.6875l.03125 1.22656m14.19922-.76953l-6.28515-3.14453m5.37109 2.6875l.03125 1.22656m13.74219-.07813l-5.3711-4.52734m4.58985 3.8711l-.25782 1.19921m14.0547-.22656l-4.76954-5.16016m4.07422 4.41016L291.75 470m14.26953-.27734l-4.47656-5.41797m3.82422 4.6289l-.46875 1.13282m15.66797-2.51172l-6.94141-1.08203m5.9336.92578l.40234 1.16015m13.84375-.63672l-6.78907-1.8164m5.80079 1.55469l.27734 1.1953M347 468.28517l-6.55078-2.54297m5.59765 2.17187l.14844 1.21875m14.3086-1.53515l-6.92579-1.16797m5.91797 1l.39063 1.16406m13.97656-1.33984l-7.01172-.48047m5.98828.41015l.50391 1.1211m13.71094-.34375l-6.76563-1.89453m18.73047 3.8125l-4.0664-5.73047m16.01953 6.3125l-1.34375-6.89453m1.14843 5.89062l-.95312.77344m15.11719.03906l-2.64844-6.51172m2.26172 5.5625l-.78516.9414m13.86719.19532l-1.41016-6.88672m1.20313 5.88281l-.94532.78125m15.33204-.07812l-3.14063-6.28516m2.6836 5.3711l-.71094 1m14.48437-.08594l-3.14062-6.28516m2.6836 5.3711l-.71095 1"/><g clip-path="url(#K)"><path fill="none" stroke="#000" stroke-linecap="round" stroke-linejoin="round" stroke-miterlimit="10" stroke-width=".5" d="M147.41797 454.51563l-6.83594-1.63282"/></g><path fill="none" stroke="#000" stroke-linecap="round" stroke-linejoin="round" stroke-miterlimit="10" stroke-width=".5" d="M147.41797 454.51563l.61719 2.375m12.35547-1.4922L154.24219 452m6.14844 3.39844l-.04297 2.45312m13.52734-2.80469l-6.48828-2.6953m6.48828 2.6953l.23438 2.44141m13.16796-2.67187l-6.66406-2.23438m6.66406 2.23438l.40235 2.42187m13.05469-3.01953l-6.94922-1.03906m6.94922 1.03906l.8203 2.3125m12.53516-2.85547l-7.02734.04688m7.02734-.04688l1.16797 2.15625m12.14063-2.33594l-7.01563.40625m7.01563-.40625l1.27344 2.09766m12.04296-1.76563l-7.01953-.2578m7.01953.2578l1.07422 2.20704m12.21875-1.91797l-6.97656-.83594m6.97656.83594l.88672 2.28906m12.44531-2.45312l-7.0078-.51172m7.0078.51172l.9922 2.24609m12.1914-1.51953l-6.7461-1.96094m6.7461 1.96094l.5 2.40234m12.61718-1.875l-6.34765-3.01562m6.34765 3.01562l.10938 2.45313m12.8086-1.8086l-5.5547-4.30469m4.7461 3.67579l-.20703 1.21093m14.52344-.85937l-5.94141-3.75m5.07813 3.20312l-.08985 1.22266m14.70313-1.67969l-6.8086-1.74219m5.8164 1.48829l.28907 1.1914m14.01953-.95703l-6.8164-1.70312m5.82812 1.45703l.29297 1.1875m14.11328-1.9414l-7.01953.29687m6-.25391l.6211 1.0586m13.66796-1.53907l-6.92969 1.16797m5.92188-.9961l.75.97266m13.4336.57422l-6.65235-2.26562m5.6875 1.93359l.19531 1.21094m10.51563 1.49218l.48828-7.0078m11.5 6.64452l3.14062-6.28515m-2.68359 5.3711l-1.22656.03124m14.59375 1.08984l2.125-6.6953m-1.8164 5.72265l-1.20704.21875m13.47656.42187l3.59766-6.03515m-3.07422 5.16015l-1.22656-.0625m15.77734 1.4336l.08203-7.02735m-.07031 6.00782l-1.08984.5625m14.27734.45312l.3125-7.01953m-.26953 6l-1.10547.52734"/><g clip-path="url(#L)"><path fill="none" stroke="#000" stroke-linecap="round" stroke-linejoin="round" stroke-miterlimit="10" stroke-width=".5" d="M147.4336 441.1211l-6.8672-1.47657"/></g><path fill="none" stroke="#000" stroke-linecap="round" stroke-linejoin="round" stroke-miterlimit="10" stroke-width=".5" d="M147.4336 441.1211l.67187 2.35937m12.53906-1.97656l-6.66016-2.23829m6.66016 2.23829l.40234 2.41797m12.41797-1.46094l-5.66797-4.15235m5.66797 4.15235l-.35156 2.42578m13.94531-2.875l-6.22656-3.2539m6.22656 3.2539l.01953 2.45312m13.46485-2.82812l-6.5664-2.50781m6.5664 2.5078l.30469 2.4336m13.0625-2.58594l-6.67188-2.20312m5.70313 1.88281l.20703 1.21094m13.96875-.60156l-6.45313-2.78125m5.51563 2.3789l.09765 1.22266m14.41797-2.60156l-6.98047.78515m5.96485-.67187l.69531 1.01172m13.59375-.07032l-6.89844-1.32812m5.89453 1.13672l.36328 1.17187m14.01954-1.71484l-7.02344.14453m7.02344-.14453l1.19922 2.14063m12.10546-1.79297l-7.0039-.55078m7.0039.55078l.98047 2.24609m12.33203-2.1914l-6.99609-.66407m5.97656.5664l.47266 1.13282m13.01953.9336l-5.3125-4.60157m4.53906 3.9336l-.27344 1.1953m13.48829.19923l-3.56641-6.0547m3.04687 5.17579l-.64062 1.04297m15.73437-1.42969l-6.08203-3.51953m5.19532 3.00781l-.04297 1.22266m14.60547-3.34375l-6.8086 1.74219m5.82031-1.48829l.82422.90625m11.86328-3.3125l-3.57421 6.05079m16.58203-6.21485l-2.96094 6.375m2.53125-5.44531l1.22656-.0664m7.5586 2.80078l6.96093-.94922m7.02735 2.58593l5.61328-4.22265m7.9414 4.50781l5.13282-4.79687m-4.38672 4.10156l-1.16016-.39844m14.21485 1.52734l4.16015-5.66406m-3.55469 4.83985l-1.21484-.17579m14.4336 1.3125l3.14453-6.28515m-2.6875 5.3711l-1.22657.02734m14.8086 1.15234l1.69531-6.82031m-1.44922 5.82812l-1.1914.29688m15.88671.71093l-1.55468-6.85156m1.32812 5.85547l-.92969.80078"/><g clip-path="url(#M)"><path fill="none" stroke="#000" stroke-linecap="round" stroke-linejoin="round" stroke-miterlimit="10" stroke-width=".5" d="M147.47656 427.58203l-6.95312-1.02734"/></g><path fill="none" stroke="#000" stroke-linecap="round" stroke-linejoin="round" stroke-miterlimit="10" stroke-width=".5" d="M147.47656 427.58203l.82031 2.3125m12.28125-1.51953l-6.52343-2.61328m5.57422 2.23047l.1328 1.22265m13.6836-.04297l-5.6289-4.20703m4.80859 3.59375l-.1875 1.21485m14.2539-.51172l-5.49218-4.38672m5.49219 4.38672l-.44922 2.41015m13.88672-2.57421l-5.73438-4.0586m4.89844 3.46875l-.15625 1.21875m13.78125-.04297l-4.6875-5.23046m4.00781 4.47265l-.42187 1.14844m11.97265.50781l.20313-7.02734m12.9336 7.01562l.55858-7.0039m-.47656 5.98437l-1.125.48828m15.8711.32032l-2.46875-6.58204m2.10937 5.625l-.8086.91797m14.6836-.04297l-2.86719-6.41796m2.44922 5.48437l-.7539.96875m13.0703.26953l-.03124-7.02734m.02344 6.0039l-1.07813.58204m15.01172.3828l-1.25781-6.91015m1.07812 5.90625l-.96484.76172m13.01562.20313l1.63282-6.83204m-1.39844 5.83985l-1.1875.3086m16.10547-2.73048l-.01953-.20312-.0586-.1914-.09375-.17579-.45703-.375-.1914-.0586-.19922-.01952-.20313.01953-.1914.05859-.45704.375-.09375.17578-.05859.1914-.01953.20313.01953.19922.0586.1914.09374.17579.45703.375.19141.0586.20313.01952.19921-.01953.19141-.0586.45703-.375.09375-.17577.0586-.1914.01953-.19923m15.69922-.86718l-6.8125 1.73046m5.8203-1.47656l.82423.90625m12.58984-2.75l-5.02344 4.91016m16.84766-2.45313l-.01953-.20312-.0586-.1914-.09375-.17579-.45703-.375-.1914-.0586-.19922-.01952-.20313.01953-.1914.05859-.45703.375-.09375.17578-.0586.1914-.01953.20313.01953.19922.0586.1914.09375.17579.45703.375.1914.0586.20313.01952.19922-.01953.1914-.0586.45703-.375.09375-.17577.0586-.1914.01953-.19923m9.33203-1.89062l5.92578 3.77734m8.01172-4.51172l4.67578 5.2461m-3.9961-4.48047l.42579-1.15235m16.23828-.0703l-3.3789 6.16015m2.88671-5.26563l1.22657.01563m7.41796 1.64844l6.94922 1.04296m10.89063 2.83204l-2.10156-6.70704m14.66406 6.85547l-.59766-7.0039m.51172 5.98437l-1.03125.66406m14.6211.33204l-.97657-6.95704m.83594 5.94532l-.99219.72265m15.59375-.07812l-3.26953-6.22266m2.79688 5.3164l-.69141 1.01563"/><g clip-path="url(#N)"><path fill="none" stroke="#000" stroke-linecap="round" stroke-linejoin="round" stroke-miterlimit="10" stroke-width=".5" d="M147.46484 414.34375l-6.92968-1.1836"/></g><path fill="none" stroke="#000" stroke-linecap="round" stroke-linejoin="round" stroke-miterlimit="10" stroke-width=".5" d="M146.45703 414.17188l.38281 1.16796m13.81641-.49609l-6.67969-2.1836m5.70703 1.8672l.21094 1.21093m10.10938 1.47266l1.2539-6.91406m12.97266 6.95703l-.57031-7.00391m.48828 5.98828l-1.03516.66016m14.46484.35547l-.63671-7m.54687 5.98047l-1.02734.67187m12.53515-.01563l3.15625-6.27734m-2.6953 5.36719l-1.22657.02734m14.70312 1.125l1.91407-6.76172m-1.63672 5.78125l-1.19922.25782m13.46484.40234l3.46094-6.11719m-2.95703 5.22657l-1.22656-.03125m14.73437 1.22265l2.0625-6.71875m-1.76172 5.73828l-1.20312.23438m14.46484.8125l1.5664-6.85156m-1.33593 5.85546l-1.1836.32032m13.32423.30859l3.46093-6.11719m-2.96094 5.22657l-1.22265-.03125m13.02734.0664l5.47656-4.40625m8.75 5.20313l3.65625-6m10.75 6.43359l1.47266-6.8711m11.54688 6.79688l2.0625-6.71875m8.76953 3.39844l7.02734-.07813m11.61719-2.97265l-3.6289 6.01953m13.22655-5.96094l3.8086 5.90625m-3.2539-5.04687l.59765-1.07032m11.08203 1.3047l5.96484 3.71484m-5.09375-3.17188l.08203-1.22656m11.95704 1.61328l6.77734 1.85547m-6.77734-1.85547l-.53907-2.39063m13.85938 2.3672l6.76562 1.90624m-6.76562-1.90625l-.51953-2.39844m13.73437 3.8047l6.96875-.91016m-5.95703.78125l-.71094-1m19.85938 1.70312l-6.72266-2.05469m5.74219 1.7539l.23437 1.20313m11.72266 1.4297l-2.04687-6.72266m1.75 5.74609l-.8672.86719m15.46485-.3672l-4.01953-5.76562m3.4336 4.92579l-.5586 1.09375"/><g clip-path="url(#O)"><path fill="none" stroke="#000" stroke-linecap="round" stroke-linejoin="round" stroke-miterlimit="10" stroke-width=".5" d="M145.51953 397.26953l-3.03906 6.33594"/></g><path fill="none" stroke="#000" stroke-linecap="round" stroke-linejoin="round" stroke-miterlimit="10" stroke-width=".5" d="M145.07813 398.1914l1.22656-.04687m11.51172-1.1836l-1 6.95704m.85156-5.94531l1.15625-.41407M167.42578 399l6.41016 2.8789m9.35547 1.9922l1.5078-6.86329m-1.28905 5.86328l-1.1836.32813m12.33203-.51563l5.40235-4.49218m-4.61719 3.83984l-1.13281-.46484m13.71094 1.17187l5.30859-4.60156m-5.3086 4.60156l-2.29296-.88281m16.11718 1.36719l4.28907-5.56641m-3.66407 4.7539l-1.21093-.20312m17.94922 1.1836l-3.8086-5.90235m14.47656 6.38281l1.48438-6.86718M262.5 403.6875l2.67188-6.5m13.75 6.28516l-3.54297-6.06641m17.30078.30469l-4.42969 5.45703m14.73438-6.15235l1.59375 6.84375M320.30078 399l-6.41015 2.8789m14.74218-4.47265l3.55469 6.0625M346.13281 403l-4.8125-5.1211m19.1289 3.41016l-6.8164-1.70312m5.82422 1.45703l.29688 1.1914m14.07422-2.34375l-6.94141 1.09375m6.9414-1.09375l1.47266 1.96094m11.32813-3.3125l-5.91407 3.79688m5.91407-3.79688l2.14062 1.20313m10.3125-2.125l-4.1914 5.64062m3.58203-4.82031l1.21093.1875m7.125 2.20703l6.98438-.78515m7.41797 2.94921l4.8125-5.11718m-4.11328 4.375l-1.1836-.32422m17.03516 1.92187l-1.66016-6.82812m1.41797 5.83594l-.91406.8164m15.7461-.42578l-4.21094-5.625m3.60156 4.8086l-.52344 1.10937m14.58203-.39844l-4.48047-5.41406m4.48047 5.41406l-.9336 2.26953"/><g clip-path="url(#P)"><path fill="none" stroke="#000" stroke-linecap="round" stroke-linejoin="round" stroke-miterlimit="10" stroke-width=".5" d="M147.11719 385.5l-6.23438 3.2461"/></g><path fill="none" stroke="#000" stroke-linecap="round" stroke-linejoin="round" stroke-miterlimit="10" stroke-width=".5" d="M147.11719 385.5l2.01953 1.39063M159 384.04296l-3.3711 6.16406M159 384.04297l2.45703.02734m8.9414-.45312l.46485 7.01172m-.46484-7.01172l2.08594-1.29297m7.95703 4.52344l7.0078.55078m-5.98827-.47266l-.48828-1.125m12.98828 2.52735l6.60156-2.41016m-6.60156 2.41015l-1.82422-1.64062m18.78125 3.9336l-.6875-6.9961m.58984 5.97656l-1.02344.67969m17.33204-4.52344l-6.47657 2.73047m15.57813-4.74219l1.94922 6.75391m10.26172-.54297l4.15625-5.66797m-3.55078 4.84375l-1.21485-.17578m15.82422 1.67578l.35938-7.01953m16.61328 3.01563l-6.95703.98828m17.53906-3.92578l-1.49219 6.86328m17.3086-4.77735l-6.4922 2.69141m5.54688-2.30078l.94531.78125m13.54297.70703l-6.94531-1.0664m5.9336.91406l.40234 1.15625m13.96094-1.65235l-7.02344.23047m6.0039-.19531l.60938 1.0625m13.13281.97265l-5.83984-3.91015m5.83984 3.91015l-.2461 2.44141m13.7461-2.7461l-6.20703-3.30077m6.20703 3.30078v2.45312m13.5625-5.16406l-6.69922 2.1211m6.69922-2.1211l1.75 1.71875m10.8164-3.01953l-5.20312 4.72265m5.20313-4.72265l2.3086.82812m10.91405-.92578l-5.01953 4.91797m5.01953-4.91797l2.33985.74219m11.08594-.6211l-5.2422 4.67579m5.2422-4.67578l2.30468.84765m10.14063 4.53906l-3.5-6.09375m2.98828 5.20704l-.65235 1.03906m14.1875-.0039l-2.91796-6.39454m2.49218 5.46485l-.74609.97265m14.79297-.20312l-3.53125-6.07422m3.53125 6.07422l-1.29297 2.08593m14.96875-2.32812l-4.2539-5.58985m4.2539 5.58985l-1.02734 2.23047"/><g clip-path="url(#Q)"><path fill="none" stroke="#000" stroke-linecap="round" stroke-linejoin="round" stroke-miterlimit="10" stroke-width=".5" d="M146.66797 371.51953l-5.33594 4.57422"/></g><path fill="none" stroke="#000" stroke-linecap="round" stroke-linejoin="round" stroke-miterlimit="10" stroke-width=".5" d="M146.66797 371.51953l2.28516.89453m-3.0625-.22656l1.14453.44531m12.4453-1.59375l-4.32812 5.53906m4.32813-5.53906l2.41406.42969m-3.04687.375l2.41797.42969m12.33203-.34375l-5.9336 3.75781m5.9336-3.75781l2.1328 1.21094m-2.99608-.66407l1.0664.60547m13.60156.09766l-6.91406 1.25781m5.90625-1.07422l.76172.96094m7.64844 1.9961l4.91015-5.02735m-4.1953 4.29687l-1.17579-.34375m13.0586-2.9414l6.34765 3.00781m13.46875-.3789l-6.65625-2.25391m5.6875 1.92969l.19922 1.20703m14.10156-.9297l-6.6875-2.15624m6.6875 2.15625l.42969 2.41406m-1.40234-2.72656l.21484 1.20703m14.04687-.82422l-6.64062-2.29687m6.64062 2.29687l.38282 2.42578m-1.34766-2.76172l.1914 1.21485m14.12891-1.0039l-6.72265-2.04688m6.72265 2.04687l.47266 2.40625m-1.44922-2.70312l.23438 1.20312m14.10546-1.07812l-6.8164-1.70313m6.8164 1.70313l.59375 2.3789m-1.58593-2.6289l.29687 1.1914m14.10156-1.47656l-7-.63672m7 .63672l.94922 2.26172m12.3711-2.32422l-7.00782-.51172m7.00782.51172l.99218 2.2461m-2.01171-2.32032l.49609 1.125m13.67578-.22265l-6.6836-2.16407m6.6836 2.16406l.42969 2.41407m-1.40235-2.73047l.21485 1.20703m14.08984-.9336l-6.71484-2.07812m6.71484 2.07813l.46094 2.41015m12.91016-2.61719l-6.82813-1.66406m5.83203 1.42188l.30469 1.1914m13.6914-3.4414l-6.1953 3.3164m5.29296-2.83203l1.01953.6836m12.91407-1.60938l-5.63282 4.20313m4.8125-3.58985l1.10938.52344m12.90234-1.29688l-5.38281 4.51954m5.38281-4.51954l2.27344.91797m10.7461-1.22656l-4.79298 5.14063m4.79297-5.14063l2.3711.63281m11.28125-.26953l-5.46875 4.41406m5.46875-4.41406l2.2578.96094m11.8047 1.71094l-6.96485-.92969m5.95313.79297l.42578 1.15234m10.26172 2.02735l.3164-7.01954m-.26953 6l-1.10937.52735m14.5625.4961l-.05469-7.02735m.05469 7.02734l-2.15625 1.17188m16.24219-1.26172l-1.59375-6.84375m1.59375 6.84375l-1.84766 1.61328"/><g clip-path="url(#R)"><path fill="none" stroke="#000" stroke-linecap="round" stroke-linejoin="round" stroke-miterlimit="10" stroke-width=".5" d="M146.51172 358.03516l-5.02344 4.91796"/></g><path fill="none" stroke="#000" stroke-linecap="round" stroke-linejoin="round" stroke-miterlimit="10" stroke-width=".5" d="M146.51172 358.03516l2.33594.74218m11.6328.1875l-6.32812 3.0547m6.32813-3.0547l1.97656 1.44922m-2.89844-1.0039l1.98047 1.44921m12.58985-.67578l-7 .6172m7-.6172l1.33984 2.0586m-2.35547-1.96875l1.33594 2.0586m13.00781-1.83985h-7.02344m7.02344 0l1.15234 2.16797m-2.17187-2.16797l1.15234 2.16797m-2.17578-2.16797l.57422 1.08594m14.58594.08593l-6.625-2.33984m6.625 2.33984l.36328 2.42578m-1.32813-2.76562l.36329 2.42578m13.8164-1.83984l-6.42969-2.83204m6.4297 2.83204l.18359 2.4453m-1.1172-2.85937l.1797 2.44922m13.80859-1.54687l-5.90625-3.8125m5.90625 3.8125l-.20703 2.44531m-.65234-3l-.10547 1.22266m14.5078-1.08594l-6.36327-2.97656m6.36328 2.97656l.125 2.45312m-1.05078-2.88671l.0625 1.22656m14.49219-1.90625l-6.98829-.7461m6.98828.7461l.91407 2.27344m12.41406-2.8672l-7.01563.4375m7.01563-.4375l1.28516 2.08985m12.0078-2.3125l-6.97265.88281m6.97266-.8828l1.41406 2.0039m11.92578-1.71094l-7.01953.29688m7.01953-.29688l1.24219 2.11719m12.07422-1.96875h-7.02734m7.02734 0l1.15234 2.16797m12.16016-2.03125l-7.01953-.27344m7.01953.27344l1.0664 2.21093m12.22266-2.80078l-6.96875.90625m5.95703-.77344l.71094 1m13.17188-2.4414l-6.07813 3.52734m5.1914-3.01562l1.04298.64844m12.52734-1.95704l-4.8164 5.1211m4.11327-4.375l1.1836.32031m12.5625-1.29688l-4.27344 5.57813m4.27344-5.57813l2.42187.40625m10.82032-.46093l-4.125 5.6914m4.125-5.6914l2.42968.33984m11.41407.13281l-5.1836 4.7422m5.1836-4.7422l2.3125.82422m11.09765-.71484l-5.375 4.52344m5.375-4.52344l2.27735.91797m11.54687-.10938l-6.39453 2.91016m6.39453-2.91016l1.94922 1.49219m11.66406.3125l-6.99219-.69922m5.97657.59766l.46484 1.13281m10.72656 2.11328l-.71093-6.99219m.71093 6.9922l-2.03515 1.36718m14.53125-1.3789l.92968-6.96485m-.92968 6.96484l-2.30078.85547"/><g clip-path="url(#S)"><path fill="none" stroke="#000" stroke-linecap="round" stroke-linejoin="round" stroke-miterlimit="10" stroke-width=".5" d="M147.02734 345.39844l-6.05468 3.5625"/></g><path fill="none" stroke="#000" stroke-linecap="round" stroke-linejoin="round" stroke-miterlimit="10" stroke-width=".5" d="M146.14844 345.91406l1.04297.64453m13.62109.28907l-6.9961.66015m6.9961-.66015l1.35156 2.05078m11.96875-1.42969l-7.0039-.58203m7.0039.58203l.96485 2.25781m-1.98438-2.33984l.48438 1.125m13.82812-.84766l-6.96094-.97265m6.96094.97265l.83984 2.3086m-1.85156-2.44922l.83985 2.30469m13.36718-1.6211l-6.71875-2.0586m6.71875 2.0586l.46485 2.40625m-1.44531-2.70703l.46875 2.41016m13.85937-2.23438l-6.78906-1.8086m6.78906 1.8086l.5586 2.39063m-1.54298-2.65235l.5547 2.39063m13.85155-2.70703l-7-.65235m7 .65235l.94532 2.26171m-1.96485-2.35546l.47266 1.1289m13.875-1.27344l-7.02734-.17578m7.02734.17579l1.09375 2.1953m12.16016-2.93359l-6.90625 1.30079m6.90625-1.30079l1.53515 1.91797m11.35156-3.0586l-6.04687 3.58204m6.04688-3.58203l2.09375 1.27734m11.22265-1.27734l-6.04687 3.58203m5.16406-3.0586l1.05078.63673m13.58203 1.23437l-6.92187-1.20703m6.92187 1.20703l.76563 2.33203m12.59375-2.67187l-7.00782-.52735m7.00782.52735l.98437 2.25m12.3125-2.96094l-6.97265.89453m6.97265-.89453L322 348.73437m11.58594-3.0664l-6.34766 3.01953m6.34766-3.01953l1.96875 1.46484m9.99219-2.96094l-3.64063 6.01172m3.10938-5.13671l1.22656.0703m12.76953-.84765l-3.9414 5.8164m3.37109-4.96874l1.21875.1289m12.99609-.72656l-4.59766 5.3164m4.59766-5.3164l2.39063.54688m10.77343-.66797l-4.29687 5.5586m4.29687-5.5586l2.41797.41015m10.66016-.57812l-3.82422 5.89453m3.82422-5.89453l2.4414.21094m11.57813.39062l-5.23047 4.6914m5.23047-4.6914l2.30078.84375m11.46094-.22265l-6.125 3.44921m6.125-3.44921l2.0664 1.32421m11.66797-.07421l-6.96484.94921m6.96484-.94921l1.4336 1.99218m11.69922-.3125l-6.60157-2.41015m5.64063 2.05859l.17187 1.21484m12.58594.96094l-3.5664-6.05469m3.05078 5.17188l-.64454 1.04687"/><g clip-path="url(#T)"><path fill="none" stroke="#000" stroke-linecap="round" stroke-linejoin="round" stroke-miterlimit="10" stroke-width=".5" d="M147.51172 333.73438l-7.02344.2578"/></g><path fill="none" stroke="#000" stroke-linecap="round" stroke-linejoin="round" stroke-miterlimit="10" stroke-width=".5" d="M147.51172 333.73438l1.23047 2.12109m12.01172-1.27735l-6.87891-1.42968m6.8789 1.42969l.6875 2.35546m12.69532-2.83593l-7.01172-.46875m7.01172.46875l1.0039 2.23828m11.88672-.78906l-6.16406-3.3672m6.16406 3.3672L187 338m-.86719-2.9414l-.01562 1.22656m14.45703-1.25l-6.625-2.34375m6.625 2.34375l.36328 2.42578m-1.32813-2.76563l.1797 1.21094m14.26562-1.54297l-6.95703-1m6.95703 1l.83203 2.3086m-1.84375-2.45313l.82812 2.3086m-1.84375-2.45704l.41797 1.15625m14.95313-1.14062l-7.01563-.44531m7.01563.4453l1.01172 2.23438m-2.03516-2.30078l1.01563 2.23438m13.30468-2.79297l-6.98047.80469m6.98047-.8047l1.39063 2.02344m-2.40625-1.90625l.69531 1.01172m13.45703-1.90234l-6.625 2.34766m6.625-2.34766l1.8086 1.66016m11.34765-2.03516l-6.30469 3.10156m6.3047-3.10156l1.98827 1.4375m11.67188.42969l-6.9961-.63281m6.9961.6328l.95312 2.26173m12.11328-1.2422l-6.49609-2.67577m6.4961 2.67578l.23828 2.44531m13.33593-3.60937l-7.01562-.34375m7.01562.34375l1.04297 2.22265m12.15625-3.3125l-6.78515 1.83594m6.78515-1.83594l1.67578 1.78906m11.51172-2.16796l-6.53125 2.59375m6.53125-2.59375l1.8711 1.58593m10.99218-2.39453l-5.6289 4.21094m5.6289-4.21094l2.22266 1.04688m7.40625-2.34375l1.7461 6.80469m-1.4922-5.81641l.90626-.82422m10.0625 1.35547l5.93359 3.76562m-5.07031-3.21875l.09375-1.22265m16.72265-.66406l-2.80078 6.4453m2.39453-5.5078l1.22266-.09766m11.42578-1.11719l-.65234 7m.55468-5.98047l1.13282-.47265m11.90234-.5586l.10156 7.02344m-.08593-6.0039l1.07421-.58985m15.26954 1.23828l-5.98438 3.6875m5.11328-3.15234l1.0586.6211m13.64453.53124l-7.01953.3086m7.01953-.3086l1.24609 2.11719m12.07031-2.11328l-7.01953.30469m7.01953-.3047l1.2461 2.11329m12.04297-1.52735l-6.97266-.86718"/><g clip-path="url(#U)"><path fill="none" stroke="#000" stroke-linecap="round" stroke-linejoin="round" stroke-miterlimit="10" stroke-width=".5" d="M467.04688 334.29688l.8789 2.28906"/></g><g clip-path="url(#V)"><path fill="none" stroke="#000" stroke-linecap="round" stroke-linejoin="round" stroke-miterlimit="10" stroke-width=".5" d="M147.42578 319.76172l-6.85156 1.57422"/></g><path fill="none" stroke="#000" stroke-linecap="round" stroke-linejoin="round" stroke-miterlimit="10" stroke-width=".5" d="M147.42578 319.76172l1.60547 1.85547m-2.60156-1.625l.80078.92578m13.42969-1.44922l-6.6875 2.16016m6.6875-2.16016l1.76172 1.70703m11.5664.41016l-6.71484-2.07422m6.71484 2.07422l.46094 2.40625m12.5625-1.72656l-6.13281-3.4336m6.1328 3.4336l-.05468 2.45312m-.83984-2.95313l-.05078 2.45313m14.55078-2.63672l-6.71485-2.07031m6.71485 2.07031l.46484 2.41016m-1.4414-2.71094l.46484 2.41016m13.95312-2.67579l-6.96484-.93359m6.96484.9336l.85157 2.29687m-1.8672-2.4336l.4297 1.14844m13.92968-1.5625l-7.02343.16797m7.02343-.16797l1.20313 2.13672m-2.22266-2.11328l.59766 1.07031m13.60937-1.96093l-6.76562 1.89843m6.76562-1.89843l1.69141 1.77734m11.64063-1.70703l-6.8047 1.75781m6.8047-1.75781l1.65625 1.8125m11.72656-1.4961l-6.9375 1.125m6.9375-1.125l1.48437 1.95704m11.86719-1.625l-7.01172.46093m7.01172-.46093l1.29297 2.08593m11.89062-.875l-6.75-1.95703m5.76953 1.67188l.25 1.19922m13.66016-3.7422l-5.97656 3.69532m5.10547-3.15625l1.0625.61719m13.63281.375l-6.9961.63281m5.98048-.53906l.66796 1.02734m13.6211-1.4336l-6.91406 1.25782m6.91406-1.25781l1.52344 1.92578m11.33984-3.11328l-6.01172 3.63672m6.01172-3.63672l2.10937 1.2539m10.84375-1.7539l-5.28515 4.63281m5.28515-4.63281l2.29297.8711m10.40235-1.42579l-4.04688 5.7461m3.46094-4.91016l1.21484.15234m12.63672-1.02344l-3.94531 5.8125m3.3711-4.96484l1.21874.1289m11.46875-1.49609l-1.54297 6.85547m1.31641-5.85937l1.1836-.32422m11.0039-.71094l1.16406 6.92969m-.99219-5.92188l.97266-.74609m10.05469 5.45703l5.39453-4.5039m-4.60938 3.84765l-1.13671-.46094m17.84375 2.05079l-2.96094-6.3711m2.53125 5.44531l-.73828.97657m16.47656-2.69532l-6.94531-1.08593m6.94531 1.08593l.80469 2.32032m12.54687-3.04297l-7.01562.36328"/><g clip-path="url(#W)"><path fill="none" stroke="#000" stroke-linecap="round" stroke-linejoin="round" stroke-miterlimit="10" stroke-width=".5" d="M467.07031 320.36719l1.26172 2.10156"/></g><path fill="#ff3030" fill-rule="evenodd" d="M446.63281 472.08594h7.6914V461.9414h-7.6914v10.14453"/><path fill="azure" fill-rule="evenodd" d="M448.46484 463.77344h.83204v5.73828h3.1953v.74219h-4.02734v-6.48047"/><path fill="#00f" fill-rule="evenodd" d="M383.80078 432.14063h8.61719v-10.14454h-8.61719v10.14454"/><path fill="azure" fill-rule="evenodd" d="M385.63281 423.82813h.83203v2.82421h3.28907v-2.82421h.83203v6.48046h-.83203v-2.91796h-3.28907v2.91796h-.83203v-6.48046"/><path fill="#ff3030" fill-rule="evenodd" d="M295.72656 405.51172h7.69531v-10.14453h-7.6953v10.14453"/><path fill="azure" fill-rule="evenodd" d="M297.5586 397.19922h.83593v5.73828h3.1914v.74219h-4.02734v-6.48047"/><path fill="#00f" fill-rule="evenodd" d="M370.48438 401.07422h8.62109v-10.14844h-8.6211v10.14844"/><path fill="azure" fill-rule="evenodd" d="M372.3164 392.76172h.83594v2.82031h3.28516v-2.82031h.83203v6.47656h-.83203v-2.91406h-3.28516v2.91406h-.83593v-6.47656"/><path fill="#ff3030" fill-rule="evenodd" d="M442.1914 401.07422h7.69532v-10.14844h-7.69531v10.14844"/><path fill="azure" fill-rule="evenodd" d="M444.02734 392.76172h.83204V398.5h3.1953v.73828h-4.02734v-6.47656"/><path fill="#ff3030" fill-rule="evenodd" d="M175.89063 365.5664h7.6953v-10.14452h-7.6953v10.14453"/><path fill="azure" fill-rule="evenodd" d="M177.72656 357.2539h.83203v5.73829H181.75v.74219h-4.02344v-6.48047"/><path fill="#ffffe0" fill-rule="evenodd" d="M386.1289 414.76953h22.1797v-10.1914h-22.1797v10.1914"/><path fill-rule="evenodd" d="M389.625 406.41016h.51172v6.29687h-.78906v-4.49219h-1.38672v-.55468l.5586-.0625.2539-.0547.23047-.08983.20312-.14063.17188-.21094.14062-.29687.10547-.39453m4.8164 0l.22657.01953.22265.05469.20704.08984.1953.1211.1836.14843.17188.17578.30078.42188.2461.49218.17968.54688.10938.57812.03906.59375-.03906.59375-.10938.58204-.17969.55468-.2461.5-.30077.42969-.17188.17969-.1836.15234-.1953.125-.20704.08985-.22265.05859-.22656.01953-.23047-.01953-.21875-.0586-.20703-.08984-.19922-.125-.1836-.15234-.17187-.17969-.30078-.42969-.24219-.5-.17969-.55469-.11328-.58203-.03515-.59375h.83203l.02734.5625.08203.50391.125.44531.16406.375.19141.30078.21094.21875.22265.13672.22657.04688.22656-.04688.22265-.13672.21094-.21875.1914-.30078.16017-.375.125-.44531.08203-.5039.03125-.5625-.03125-.5625-.08204-.5-.125-.4375-.16015-.36329-.1914-.29297-.21094-.21484-.22266-.13281-.22656-.04297-.22657.04297-.22265.13281-.21094.21484-.1914.29297-.16407.36328-.125.4375-.08203.5-.02734.5625h-.83204l.03516-.59375.11328-.57812.17969-.54688.24219-.49218.30078-.42188.17187-.17578.1836-.14844.19922-.1211.20703-.08983.21875-.0547.23047-.01952m4.95312 0l.22656.01953.21875.05469.21094.08984.19531.1211.1836.14843.17187.17578.30078.42188.2461.49218.17969.54688.10937.57812.03906.59375-.03906.59375-.10938.58204-.17968.55468-.2461.5-.30078.42969-.17187.17969-.1836.15234-.1953.125-.21095.08985-.21875.05859-.22656.01953-.23047-.01953-.21875-.0586-.20703-.08984-.19922-.125-.1836-.15234-.17187-.17969-.30078-.42969-.24219-.5-.17968-.55469-.11328-.58203-.03907-.59375h.83594l.02735.5625.08203.50391.125.44531.16406.375.1914.30078.21094.21875.22266.13672.22656.04688.22656-.04688.22266-.13672.21094-.21875.1875-.30078.16406-.375.125-.44531.08203-.5039.03125-.5625-.03125-.5625-.08203-.5-.125-.4375-.16406-.36329-.1875-.29297-.21094-.21484-.22266-.13281-.22656-.04297-.22656.04297-.22266.13281-.21094.21484-.1914.29297-.16406.36328-.125.4375-.08204.5-.02734.5625h-.83594l.03907-.59375.11328-.57812.17969-.54688.24218-.49218.30078-.42188.17188-.17578.1836-.14844.19921-.1211.20703-.08983.21875-.0547.23047-.01952m4.95313 0l.38671.02734.35547.08594.32422.13281.28125.1875.22656.23828.17579.28516.10937.33203.03516.3789-.01953.27344-.0586.23438-.08594.19922-.11328.17187-.1289.14453-.14063.1211-.28515.1953.23046.1211.21094.14453.17969.17188.15625.19531.1211.21094.08984.23047.0586.2461.01952.2539-.03515.3125-.10547.32422-.17188.32421-.23828.3086-.3086.26953-.37109.21484-.21484.07813-.22656.0625-.2461.03906-.2578.01172-.26173-.01172-.24219-.03906-.22265-.0625-.20703-.07813-.35547-.21484-.29297-.26953-.22266-.3086-.15625-.32421-.09375-.32422-.03125-.3125h.83594l.02735.2539.07812.23438.1211.21484.16015.1836.1914.15234.22266.11328.23828.07422.25782.02344.2539-.02344.23828-.07422.22266-.11328.1914-.15234.16016-.1836.1211-.21484.07812-.23438.02735-.2539-.02735-.25-.07812-.23828-.1211-.21094-.16015-.1836-.19141-.15234-.22266-.11719-.23828-.0703-.2539-.02735-.25782.02734-.23828.07031-.22265.1172-.19141.15233-.16016.1836-.12109.21094-.07813.23828-.02734.25h-.83594l.01954-.2539.05859-.23829.08984-.22266.125-.21093.15235-.1875.17968-.17579.21094-.15234.23047-.13281-.28516-.19531-.14062-.1211-.1289-.14453-.11329-.17187-.08594-.19922-.05859-.23438-.01953-.27344h.78515l.02344.21485.0664.1914.10548.16407.13672.14062.16406.11328.1875.07813.20703.05078.22266.01953.21875-.01953.20703-.05078.1875-.07813.16406-.11328.14063-.14062.10156-.16406.0664-.19141.02344-.21485-.02344-.21484-.0664-.1914-.10156-.16797-.14063-.13672-.16406-.11328-.1875-.08204-.20703-.05078-.21875-.01562-.22266.01562-.20703.05079-.1875.08203-.16406.11328-.13672.13672-.10547.16796-.0664.19141-.02344.21485h-.78516l.03515-.37891.10938-.33203.17578-.28516.22656-.23828.28125-.1875.32422-.13281.35547-.08594.39063-.02734"/></g></defs><use xlink:href="#X"/></svg>