<svg xmlns="http://www.w3.org/2000/svg" role="img" xmlns:xlink="http://www.w3.org/1999/xlink" viewBox="142.45 309.95 326.84 171.84"><defs><clipPath id="a"><path d="M144 311.67188h1v168.65625h-1zm0 0"/></clipPath><clipPath id="b"><path d="M144 311.67188h324v168.65625H144zm0 0"/></clipPath><clipPath id="c"><path d="M387 479h3v1.32813h-3zm0 0"/></clipPath><clipPath id="d"><path d="M467 311.67188h1v168.65625h-1zm0 0"/></clipPath><clipPath id="e"><path d="M144 479h4v1.32813h-4zm0 0"/></clipPath><clipPath id="f"><path d="M146 480h2v.32813h-2zm0 0"/></clipPath><clipPath id="g"><path d="M153 479h9v1.32813h-9zm0 0"/></clipPath><clipPath id="h"><path d="M159 480h2v.32813h-2zm0 0"/></clipPath><clipPath id="i"><path d="M166 479h9v1.32813h-9zm0 0"/></clipPath><clipPath id="j"><path d="M172 480h2v.32813h-2zm0 0"/></clipPath><clipPath id="k"><path d="M180 479h8v1.32813h-8zm0 0"/></clipPath><clipPath id="l"><path d="M187 480h2v.32813h-2zm0 0"/></clipPath><clipPath id="m"><path d="M193 479h9v1.32813h-9zm0 0"/></clipPath><clipPath id="n"><path d="M200 480h2v.32813h-2zm0 0"/></clipPath><clipPath id="o"><path d="M206 480h9v.32813h-9zm0 0"/></clipPath><clipPath id="p"><path d="M213 480h3v.32813h-3zm0 0"/></clipPath><clipPath id="q"><path d="M220 479h8v1.32813h-8zm0 0"/></clipPath><clipPath id="r"><path d="M227 480h2v.32813h-2zm0 0"/></clipPath><clipPath id="s"><path d="M233 479h8v1.32813h-8zm0 0"/></clipPath><clipPath id="t"><path d="M239 480h2v.32813h-2zm0 0"/></clipPath><clipPath id="u"><path d="M247 478h7v2.32813h-7zm0 0"/></clipPath><clipPath id="v"><path d="M260 478h8v2.32813h-8zm0 0"/></clipPath><clipPath id="w"><path d="M273 478h8v2.32813h-8zm0 0"/></clipPath><clipPath id="x"><path d="M287 478h7v2.32813h-7zm0 0"/></clipPath><clipPath id="y"><path d="M300 479h8v1.32813h-8zm0 0"/></clipPath><clipPath id="z"><path d="M306 480h1v.32813h-1zm0 0"/></clipPath><clipPath id="A"><path d="M313 479h8v1.32813h-8zm0 0"/></clipPath><clipPath id="B"><path d="M320 479h3v1.32813h-3zm0 0"/></clipPath><clipPath id="C"><path d="M326 479h9v1.32813h-9zm0 0"/></clipPath><clipPath id="D"><path d="M333 479h3v1.32813h-3zm0 0"/></clipPath><clipPath id="E"><path d="M340 478h8v2.32813h-8zm0 0"/></clipPath><clipPath id="F"><path d="M353 479h8v1.32813h-8zm0 0"/></clipPath><clipPath id="G"><path d="M359 480h2v.32813h-2zm0 0"/></clipPath><clipPath id="H"><path d="M368 477h5v3.32813h-5zm0 0"/></clipPath><clipPath id="I"><path d="M380 477h7v3.32813h-7zm0 0"/></clipPath><clipPath id="J"><path d="M394 477h6v3.32813h-6zm0 0"/></clipPath><clipPath id="K"><path d="M409 476h2v4.32813h-2zm0 0"/></clipPath><clipPath id="L"><path d="M423 476h1v4.32813h-1zm0 0"/></clipPath><clipPath id="M"><path d="M435 476h3v4.32813h-3zm0 0"/></clipPath><clipPath id="N"><path d="M447 477h6v3.32813h-6zm0 0"/></clipPath><clipPath id="O"><path d="M461 477h5v3.32813h-5zm0 0"/></clipPath><clipPath id="P"><path d="M144 466h4v2h-4zm0 0"/></clipPath><clipPath id="Q"><path d="M144 453h4v2h-4zm0 0"/></clipPath><clipPath id="R"><path d="M144 439h4v2h-4zm0 0"/></clipPath><clipPath id="S"><path d="M144 426h4v2h-4zm0 0"/></clipPath><clipPath id="T"><path d="M144 412h4v4h-4zm0 0"/></clipPath><clipPath id="U"><path d="M144 398h4v5h-4zm0 0"/></clipPath><clipPath id="V"><path d="M144 384h3v7h-3zm0 0"/></clipPath><clipPath id="W"><path d="M144 370h3v7h-3zm0 0"/></clipPath><clipPath id="X"><path d="M144 356h2v9h-2zm0 0"/></clipPath><clipPath id="Y"><path d="M144 343h1v8h-1zm0 0"/></clipPath><clipPath id="Z"><path d="M144 342h3v2h-3zm0 0"/></clipPath><clipPath id="aa"><path d="M144 332h4v4h-4zm0 0"/></clipPath><clipPath id="ab"><path d="M466 333h2v4h-2zm0 0"/></clipPath><clipPath id="ac"><path d="M144 318h4v5h-4zm0 0"/></clipPath><clipPath id="ad"><path d="M466 319h2v3h-2zm0 0"/></clipPath><g id="ae" clip-path="url(#clip1)"><path fill="#fff" fill-opacity="0" fill-rule="evenodd" d="M0 0h1000v1000H0zm0 0"/><path fill="#d3d3d3" fill-opacity="0" fill-rule="evenodd" d="M162.15234 355.86719l-.23437.29297.0586.23437.11718.17188.17578.23437.29297.34766.11328.0586.11719-.17188.0586-.23438.17577-.17578.46485-.17578h.69922l.23437.29297.28906.8164.0586.17579.17578.23046.35156.23438.69922.69922.17188.17578.23437.34765.23438.41016.28906.58203.41015.46485.23047.23437.23438.17578.11719.23047.17578.29297.17187 1.16406v.23438l.0586.28906.05859.11719.11719.11719.34765.41015.11719.17188.17578.17578.17578.23437.11719.17188.17188.35156.05859.23438.23437.40625.23438-.0586-.17578.17578-.0586.92969h-.58203l-.23437-.11328-.34766.11328-.11719.11719-.05859.29297-.0586.17578-.11718.17187-.46484.29297-.0586.23438-.0586.11328v.64453l.0586.17187v.41016l.0586.0586v.40624l.05859.40625.11719.17579.05859.05859.23047.64062-.0586.29297v.69922l-.05859.58203v.23438l-.0586.23047-.05468.35156v1.92187l.05469.1172h.42578l-.36719.11718-.02344.35156.89063 1.16797 1.74219.53906 1.33984.35938v.53906l.08984.8086.53516.71484 1.51953.26953.89063-.08594.08984 1.16406.53516.1797 1.16015-.1797 2.05469-.98437 1.16016-.36328 1.8789-.17578 1.69531-.1797-.17968.71876-1.51563.08594-1.25.08984-.80469.26953-1.07421.8086.26953.71875.53515.89843-.17968.625-.26563.8086.26563 1.07812.625.89844.80468.17969 1.25-.1797-.26562.72267.09766.5039.05468.29297v.17188l.0586.29296v.40625l.17578.1172.35156.11718h.40625l.29297-.17578.11328-.11719.0586-.11719.11718-.23047.0586-.17578.35156-.46484.23047-.17578.17578-.0586.17578.0586.0586.17578.11718.98828.05469.46875.0586.17188.11718.23437.17578.0586.8164.05859h.28907l.11719.23437.05859.40625.0586.35156v1.10547l.11718.29297.11719.34766.28906.69922.17578.35156.58203.7539.35157.17579.17187.0586.46875.23437.64063.46484.34765.23438.29297.17578.29297.05468.23047.0625.8164.34766.29297.17578.11328.17188.35157.35156.11719.17578.52343.64063v.28906l.0586.35156v.34766l.05859.35156.0586.28906.11718.0586.17188.05859h.17578l.58203.23437.17578.1172.17578.28905.17578.23438.11328.23437.29297.23047.11719.11719v.41016l.0586.05468.28906.23438.23437.11719.0586.11718.11718.17188.0586.11719.23047.23437.05859.17578.23437.0586.1172.05859-.1172.11328-.05859.11719v.11719l-.11719.29296-.11719.28907v.58203l.17579.11719.11718.05859.0586.11719.11719.11719.11328.05859.17578.34765.0586.35157.05858.40625v.17578l-.05859.17578-.11719.69922v.17187l.1172.17579.29296.29296h.40625l.17578.1172.11719.17187.11719.29296v.23438h-.52735l-.23047-.23438h-.23437l-.17578.0586-.0586.69922.0586.34765.11719.17579.17578.41015.11718.23047.28907.46875.17578.05469h.52344l.23437.0586.75781.64062.0586.29296v.23438l.05859.0586.23047.34765v.35156l-.11719.17188v.29297l.29297.28906.29297.17578.17187.0586.29297.17577.29297.1172.58203.40624.28906.23438.29297.17578.21875.16015.01563.01172.23047.17579.64062.52343.17578.23438.1172.17578.17577.17578.11328.17188v.64062l.1172.17578.46874.11719.58203.11719.23438.05859.23047.11328.29297.11719.11328.0586.58593.35156.28907.17187.17578.0625.17578.05469.17578.0586.69922.35155.28906.17579.23438.05468.28906.17578.23437.1172.64063.40624.29297.11719.17187.0586.23438.05859.41015.05859.23047.0586.23438.11718.0586.17188-.41017.17578.46875.0586.0586.29296.11328.23438.17578.05468.23438.0586.17578.05859.40625.11719.64062.23437.11719.17188.0586.23437v.17578l-.0586.1172-.0586.40624.23438.23438.11719.05859.34766.11719.64062.23047.17578.11718.28906.1172.17578.17577.23438.46485.58203 1.10546.17578.17579.34766.17578.17578.11719.35156.11718 1.04688.52344.23437.0586.46485.11327.29297.0586.46484.17578.75781.58203.23438.23438.34765.46484.17578.17578.28907.23438.8164.69921.29297.17579.28906.28906.29297.17578.29297.28906.69531.64063.17578.17578.29297.23437.28907.23438.46875.28906.64062.58203.34766.23438.23437.29297.34766.34765.35156.46485.9336.99218.34765.40625.11719.17579.23437.05859.11328.11719.64454.17578.23047.11328.23437.0586.29297.17577.23047.1172.9336.69921.40624.40625.23438.17578.40625.17578.23437.11719.8164.34766.34766.23437.23438.11719.29297.28906.23047.11719.7578.35156.35157.17188.23047.05859.29297.11719.23437.0586.8711.17577h.8164l.46875.23047.17188.0586.875.69921.46484.1172.29297.05858.17578.0586.23047.0586.46875.05859.34766.05859.35156.0586.40625.05859h.29297l.17187.0586v.23046l.17578.17578h.29297l.34766.0586.35156.05859.69922.11719h.64063l.46484-.23438.29297-.17578.17187-.11719.41016-.17187.28906-.17578.9336-.46485.46875-.29297.52343-.29296.46485-.17188.46484-.17578 1.05078-.46485.28906-.11718.41016-.11719.28906-.11719.52735-.17578 1.51562-.69922.58203-.34765.28907-.0586.29297-.0586.34765-.11718.875-.23047.35156-.11719h.11329l.23437-.05859.875-.23437.23438-.0586h.8125l.35156-.0586.8164-.11718.17188-.0586.35156-.05468.29297-.0586.23047-.05859.8164-.17578.17579-.0586h.34765l.23438-.05859.46484-.11718.75781-.17188.23438-.0586h.34765l.41016-.11718.28906-.0586 1.28516-.05859h.28906l.41016-.0586.23047-.05858h.17578l.875-.1172h.40625l.41015-.11718h.34766l.35156-.11328.8711-.0586h1.75l1.04687.28907.41016.11719.28906.11718.35156.11719.28907.11719 1.05078.17187.28906.0586h.29297l.29297.05859.17187.0586.41016.05859.17187.0586.1172.05858h.11718l.11719.0586.35156.0586h.11328l.41016.0664 1.92187.39453 1.92578.39453 1.51953.44922 1.69532.71875 2.14453.80469 1.60547-.71875 1.42968-.80469 1.16016-1.07813 1.25-.44921 3.03516-.71875 1.875-.35938 2.14453-1.34765 2.23437-1.25391 2.5-1.25781 1.69531-.44922 1.78516-.17969 1.16016-.26953.625.53906 1.33984-.26953.71485-.98828.98437-1.34375.44531-.17969.80469-.35937 1.875-.53907 1.78516-.44921 1.25-.26954 1.16015-.08984 1.69922-.08984 1.96094-.26954 1.25-.08984h.53906l.625-.08984h.89063l2.14453-.17969 2.41015-.17969 2.58985-.08984 1.69531.17969 1.60938.08984 1.42968.35938 1.16016.71875 1.875.98828 1.16015 1.52734.26563.71484.6289.08985.35548.89844.53515.53906.53516 1.52734 1.07422.35938h.53515l-.80469.53515.08985 1.70703.71484 2.69532.89063.80468.89453.98829.71484 1.2578 1.78516.53907 1.51953-.17969.35547 1.34375 1.60937-.80469.98047-.53906.26953.26953.31641-.21484.21875-.14453.80078.44922.44922-.35938h.35547l.53515-.26953.53907-.71875.53515-.26953.625-.98828 1.16016.44922.83984.3711 1.39454.61718 1.6953-.17969h1.60548l1.78515.08985.17969-1.70704.53516-1.34375.80468.26954.4922.84765.40233.40625-.08984.53906v.35938l.71485.44922.71093-.26953h1.42969l.35938.98828.4453 1.25781.71485 1.34375 1.25.6289 1.69531.62891.71485-.17969.17969-.53906.98046-.08984.44922.35937.08594 1.25782-.26563.6289-.53515.17969v.53906l.71484.98438.26563.53906.98437.98828.80078 1.07813-.26562.35937-.08985.89844-.625 2.33203-.35546 2.0664-.08985 1.79298-.17969.71875-.08984.53906v1.4375l-.98047 1.88281-.35937 1.70703-.53516.89844-.80469 1.16797-.26562.53906 2.05469 1.2539.08593.35938-.35546.53906-.08985-.17968v.80859l.08985 1.4375-.44532.71484-1.07422.09375-.26562.71485.53515.89844.8047.71875 1.16015.80859 1.33984.26953.44531.35938-.35546.44921-1.78907-.08984-1.25-.44922-.71484-.71875-.625-.08984-.17578 3.58984-.1875 1.3086h89.35937V311.70313h-55.26953v49.08203l.76172.125 3.28906.54296 2.02344 2.83594v2.7539l2.35156.33204 2.34766.33203h4.05078l-1.3789 4.16016-2.02344.70703-2.02344.70312-.54297.34375-2.59375 1.6172-.1875.11718-2.02344-2.07813-.73046-2.74218-2.67188-2.07813-1.375-3.5-.0664-.08203-1.95704-2.67188 2.75-1.41796v-49.08204H294.42187v91.41407l.1172.03125.1328.01172.07422.07421.10547.04688.08985.0586.08593.05859.08985.0586.29687.29687.0586.08984.03125.11719.02734.11719.01563.13671-.03125.1172-.0586.08983-.0586.08594-.04296.10547-.04688.10156-.02734.1211v.14453l.17578.26953.14844.14844.07422.08594.07422.07421.04296.10547.0625.08985.0586.08593.04297.10547.0586.08985.04687.10156.04296.10547.0586.08594.11719.17968.07421.07422.0625.08594.0586.08984.04297.10547.0586.08985.05858.08593.0625.08985.0586.08984.04297.10156.11719.17969.07421.07422.0586.08594.07422.07421.08984.0586.10547.04687h.14844l.1328-.01562.13282.01562.10156-.04687.07422-.07422.04688-.10156-.01563-.13281v-.14844l-.04687-.10547-.02735-.11719-.04687-.10156-.02735-.1211-.04296-.10156-.0625-.08984-.04297-.10156-.04297-.10547-.03125-.11719-.01563-.13281-.01171-.13672.08593-.0586.0586-.08593.12109-.03125.04297.10547.01562.1328v.1172l.0586.10156.0586.08984.08983.0586.14844.14843.0586.08985.04296.10547-.01171.10156.08593.0586.10547.04687.08594.0586.08984.05858.07422.07422-.11719.02735-.10546.04687-.08594.0586-.07422.07421-.0586.08985-.0625.08594-.02734.12109-.04687.10156-.04297.10547-.03125.11719-.01172.13281-.01563.13281v.14844l.02735.11719.04687.10547.04297.10156.0586.08984.07421.07422.08985.0586.07422.07421.08984.0586.0586.08984.04296.10547.04688.10156.11719.03125.1328.01563h.14845l.11718-.03125.10547.04297.04297.10547.04688.10156.02734.1211L299.5 410l.02734.11719.03125.1211.02735.11718.10547.04297.10156.04687.13281-.01562.14844.14844.0625.08593.07422.07422.07031.07422.08984.0625.10547.04297.10156.04297.1172.03125.13671.01562.11719-.03125.07422-.07422.02734-.11718-.01172-.13282-.03125-.12109-.02734-.11719.04297-.10547h.11719l.08984.0625.11719.02735h.14843l.13282.01562h.14843l.13282.01563.1328-.01563h.14845l.1328-.01562.13282-.01172.13672.01172.11719-.02735.13281-.01562.1914-.0586-.05859.17579-.01562.1328-.02735.1211-.01562.13281-.0586.08594-.1328.01563-.10548.04687-.10546.04297-.1172.03125-.11718.02735-.26563.03125h-.14843l-.13281.01562-.07422.07422.05859.08594.14844.14843.11719.1797.07421.0703.08985.0625.08984.0586.08594.0586.08984.05858.10156.04297.10547.0625.10547.04297.08594.0586.10547.04687.10156.04297.17969.11719.0586.08984-.04298.10156-.04687.10547.01562.13281.22266.22266.0586.08985.04296.10156.03125.1211.04297.10155.01563.13282.03125.11718.01171.13672.03125.11719.14844.14844.10156.04297.10547.04296.1172.03125.1328.01563.13672.01563h.11719l.11719-.03125.08984-.0586.04297-.10547.04688-.10156.04296-.10547.03125-.11719.01172-.1328v-.14845l-.01172-.1328-.01562-.13282-.03125-.11719-.04297-.10547-.04688-.10547-.04296-.10156-.04297-.10547-.01563-.13281.01563-.13281.02734-.11719.03125-.11719.02735-.1211.04687-.10155.08984-.0586.08594-.0625.07422-.07422.08984-.05859.22266-.22266.0586-.08593.07421-.07422.11719-.17969.0586-.08594v-.14844l-.07423-.07421-.10156-.04688-.10547-.04297-.10156-.04297-.0586-.08984-.04687-.10547-.02734-.11719.08984-.05859.11719-.03125.10156-.04297.17969-.11719.14844-.14843.01172-.13282-.01172-.10546-.08985-.0586-.1328.01563h-.14845l-.1328.01562-.13282-.01562-.1211-.03125-.08593-.0586-.07422-.07422-.0586-.08984-.0625-.08594-.11718-.17969-.0586-.08593.03125-.1211.08594-.05859.1211-.03125.05859-.08594v-.1211l-.03125-.11718-.0586-.08984-.05859-.08594-.04687-.10547-.02735-.11719-.01562-.1328.0586-.08985.07421-.07422.08984-.0586.1172-.17968.07421-.07422.0586-.08594.14843-.14844.1211-.03125.1328-.01562.13282.01562.07422.07422.04297.10547.01562.13281-.03125.1172-.11719.03124-.1328.01172-.14844.14844-.04297.10547-.04688.10156-.02734.1211-.03125.11718v.14844l.03125.11719.04297.10546.05859.08985.07422.07031.07422.07422.11719.03125.12109.02734.11719-.02734.1328-.01563h.1172l.08984.0586.07422.07422.04687.10546.0586.08594.10156.04688.13281.01562.10547.04297.08594.0586-.01172.10546-.07422.07422-.17969.11719-.05859.08984-.08984.0586-.07032.07422-.07421.07421-.0625.08985-.02735.11719-.01562.1328.01562.13282-.01562.13281v.14844l.01562.13281.02735.1172.03125.12108.07421.07422.08985.0586.08594.0586.08984.05858.11719.03125v.08594l-.10157.04688-.08984.0586-.26563.03124-.11718.02735h-.14844l-.10547.04296-.10156.04688-.0586.08984-.0625.23438-.01171.13281-.03125.1211-.01563.1328v.29298l-.01172.1328.01172.13673.01563.1328.1328.01563.13282.01172.1211.03125.08593.0586.07422.07421.04688.10547.04296.10157.01563.1328v.44532l-.01563.13281v.44532l.03125.26562.02735.11719.01562.13281.03125.11719.08594.21094.03125.26562v.14844l-.03125.11719-.02734.11718-.03125.1211-.02735.11719-.03125.11718-.03125.1211-.01171.1328-.01563.13282.08984.0586.1172-.03125.10155.01562.04688.10547-.03125.26562v.44141l-.04297.10547-.04688.10547-.04296.10156-.04297.10547-.0586.08594-.03125.12109-.04296.11719-.03125.11719-.01563.1328.01563.13282.05859.08984.10547.04688.08594.0586.05859.08593-.01172.13672-.03125.11719-.04297.10156v.44531l-.01562.13281v.14844l-.03125.11719-.04297.10547-.02735.11719-.04687.10546-.04297.10157-.03125.12109-.02734.11719-.03125.13281-.03125.11719-.02735.11719-.04297.10546-.03125.1172-.03125.12108-.01171.13282-.01563.13281v.29688l.02734.11718v.14844l.04688.39844.02734.11719.0586.08984.12109.03125h.14844l.13281-.01563.0586.08985v.11719l-.0586.08984-.08984.0586-.10157.04296-.10546.04688-.08985.05859-.08594.0586-.13671.01562-.1172-.03125-.1328-.01563-.10157.04688-.0625.08594-.01172.13671-.01562.13282-.03125.11719-.02735.11718-.01562.13281-.03125.1211v.29687l.01563.13282.03125.11718v.14844l.01171.13281v.14844l-.02734.11719-.04688.10156-.02734.1211-.03125.11718-.0586.08985-.07421.07421-.10156.04297-.10547.04688-.11719.02734-.1211.03125-.10156-.04687.0586-.08594.10547-.04688.02734-.11718.03125-.11719.02734-.1211.03125-.11718v-.14844l.01563-.13281-.03125-.11719-.04297-.10547-.10547.01563-.07422.07422-.10156.04296-.08984.0625-.07422.07422-.04297.10157-.01563.1328-.03125.1172L304.25 426l-.03125.11719-.02734.11719-.03125.12109-.02735.11719-.03125.11718-.04297.10547-.08984.0586h-.08984l-.1172-.03125-.03124-.08594.01562-.13672-.03125-.11719v-.14844l-.01171-.1328v-.14844l-.0625-.23438-.02735-.1211-.04297-.10156-.04687-.10546-.0586-.08594-.05859-.08985-.04297-.10546-.0625-.08594-.14844-.14844-.0703-.07422-.10548-.04687-.10547-.04297-.10156-.04297-.29687-.29688-.08985-.07421-.08594-.0586-.10546-.04297-.08985-.0625-.08594-.0586-.10546-.04296-.08985-.0586-.08594-.0625-.07421-.0703-.10547-.04688-.08594-.0586-.10547-.04296-.08984-.0625-.10156-.04297-.10547-.04297-.08594-.0586-.10547-.04687-.10547-.04297-.10156-.04687-.08985-.0586-.10156-.04297-.10547-.04296-.08984-.0625-.11719-.02735-.13281-.01562-.13281.01562H299.75l-.13281.01563-.11719-.03125-.08984-.0586-.07422-.07422-.08985-.05859-.10156-.04688h-.14844l-.12109-.02734-.10156-.04297-.07422-.07422-.11719-.17968-.08984-.0586-.10156-.04297-.08985-.0625-.10547-.04296-.08984-.0586-.08594-.0586-.10547-.04687-.0586-.08594-.05858-.08984-.04297-.10547-.04688-.10156-.07422-.07422-.08594-.0586-.07421-.07421-.08985-.0586-.22265-.22265-.04297-.10547-.03125-.26563.10547-.04296h.14453l.10547.04296.07421.07422.08985.0586.08594.0586.10546.04687.08985.05859.14844.14844.0703.07422.14845.14843.0625.08594.07421.07422.08594.0586.07422.07421.08985.0625.08984.0586.08594.05859.26953.17578.10156.04688.10547.04296.10156.04297.04688-.07421.05859-.08594.07422-.07422.07031-.07422.10547.04297.07422.07422.0586.08984.04296.10156.04688.10547.04296.10547.1211.02735.11719-.02735.07421-.08984.04297-.10547.0586-.08985.07422-.07421.10546-.04297.1172-.02735.1328.01172.08985.0586.14844.14843.05859.08985.04297.10547.04687.10156.04297.10547.04297.10156.10547.04688.10547.04296.13281.01563.08594-.0586.0586-.08984.07421-.07422.10547-.04297.11719.02735.10547.04687.10156.04297.10547.04297.10156.04688.17969.11718v.11719l-.01563.13281.01563.13281.01562.13672.0586.08594.10156.04688.1211.02734.11718.03125h.14844l.11719-.03125.05859-.08984.17969-.1172.05859-.08983.07422-.07422.0586-.08594.11718-.17969.17969-.11719.11719.03125.08984.0586.04297.07422-.01563.1328v.1172l.08985.05859h.14843l.13282-.01563.1328-.01171.26563-.03125.10547-.04297.11719-.03125.1211-.02735.07421-.07421.07031-.07422.0625-.08985-.01562-.10547-.04688-.10156-.10156-.04297-.10547-.01562-.11718.02734-.26563.03125h-.14844l-.07421-.07422-.08985-.0586-.11719-.03124-.11718-.02735-.13282-.01562h-.14843l-.13282.01563h-.29687l-.10547-.04688-.14844-.14844-.04297-.10156-.05859-.08984.22266-.22266.08593-.0586.10547-.04296.11719-.03125.13281-.01563.13281.01563.13672.01562.10157.04297.1328-.01172.08985-.0625.10156-.04297.0625-.08984-.04687-.10156-.08984-.0586-.1172-.03125-.10155-.04296-.0586-.08985-.0625-.08984v-.11719l.01563-.13281.10547-.04688.07421-.07031v-.1211l-.08984-.05859-.03125-.11719.08985-.05859.07421-.07422.04297-.10547.0586-.08984.04687-.10156.01563-.13281v-.14844l-.04688-.10547-.04297-.10156-.08984-.0586-.13281-.01562-.10157-.04297-.13671-.01563-.1172-.03125h-.4453l-.13282-.01562-.13281-.01172-.13281-.01563-.11719-.03125h-.14844l-.13281-.01562-.13281-.01172-.26563-.03125-.1211-.04297-.08593-.0586-.07422-.07421v-.14844l.01172-.13281.10547-.04688.10156-.04296.13281-.01563h.15235l.13281-.01562h.29297l.1211.03125.10156.04296.08984.0586.23438.0625.12109-.04688.08984-.05859.10156-.04297.13282-.01562.10547.04296.10156.04688.13281.01172.1211-.02735h.14453l.12109-.03125.11719-.02734.10547-.04687.07421-.07422.08594-.0586.14844-.14843.0586-.08594.04687-.10547.02734-.11719.01563-.10547-.10156-.04296-.08985-.0586-.11719-.03125-.10546-.04297-.08985-.0625-.07422-.08594-.07422-.07421-.10156-.04297-.10547-.04688-.10156-.04297-.0586-.08984-.04687-.10156-.08594-.21094-.0625-.08594-.05859-.08984-.07422-.07422-.08594-.0586h-.26953l-.11719.03126-.08984.05859-.10156.04297-.13281.01562-.10547-.01562-.02735-.11719-.0625-.08984-.11718-.03125-.10157-.04297-.14843-.14844-.03125-.11719-.01563-.10546.07422-.07422.17969-.1172.11719-.02733.11718-.03125.13672.01562.10156.04297.10547.04297.10156.04687.10547.04297.1172.03125.1328.01563.1172.02734.1328.01563.10547-.01563.08985-.0586-.07422-.07421-.10547-.04297-.07422-.07422-.07422-.08984-.14844-.14844-.08593-.0586-.08985-.05859-.07422-.07422-.08984-.0586-.10156-.04687-.1211-.02734-.10156-.04688-.10547-.04296-.11719-.03125-.10156-.04297-.1211-.03125h-.14843l-.11719.03125-.10546.04297-.08594.0625-.17969.11718-.08594.0586-.08984.0586-.10547.04687-.08594.05859-.10547.04297-.10156.04297-.10547.04687-.07422.07422-.05859.08985-.0586.08593-.04687.10547-.0586.08594-.07421.07422-.13281-.01172-.1172-.03125h-.11718l-.07422.07422-.08984.0586-.07422.07421-.08984.0586-.08594.05859-.10547.04687-.10156.04297-.13672.01563-.10156-.04297-.14844-.14844-.10547-.04688h-.08594l-.10547.04688-.10156.04297-.1211.03125-.11718-.03125-.07422-.07422v-.11719l.03125-.1211.07422-.0703.0586-.08985.07421-.07422.11719-.03125.10547-.04296h.29297l.13281-.01563.13672-.01563.10156-.04296.08985-.0586.10156-.04687.08984-.0586.13281-.01171.08985.05859.13281.01172.08984-.0586.08594-.05859.10547-.04297.08984-.0586.08594-.0625.08985-.05859.14843-.14843.0586-.08594.05859-.08985.10547-.04296.13281-.01563.11719.02735.1211.03125.05859-.0586.05859-.08984.03125-.26563.02734-.11719.10547.01172.13281.01563.10157-.04297.08984-.0586.0586-.08984.07421-.07422.0586-.08984.04687-.10156.01172-.13281-.01172-.13282-.04687-.10547-.14844-.14843-.0586-.08985-.05859-.08594-.04297-.10546v-.44532l.01563-.1328v-.14845l.01172-.1328-.0586-.0586-.08984.0586-.10156-.04298-.17969-.11719-.08594-.05859-.0625-.08984-.0586-.08985-.07421-.07421-.08594-.0586-.1211.03125-.10155.01172-.10547.04688-.08594.05859-.10547.04297-.14844.14844-.08984.05859-.08594.0586-.08984.0625-.10547.04296-.13281.01563v-.1211l.10547-.04297.11718-.03125.07422-.0703.04297-.10548v-.14844l-.02734-.11718-.14844-.14844-.13281-.01563h-.14844l-.11719.03125-.10547.04297-.10156.04297-.08984.0625-.11719.02735-.07422-.07422.01172-.13281-.04297-.10157-.04297-.10547-.08984-.05859-.11719.02734-.1211.03125-.11718.03125-.10156.04297-.1211.03125-.10156.04297-.10547.04297-.08984.0586-.10156.01562v-.11719l.01562-.13281-.0586-.08985-.07421.04297-.14844.14844-.0586.08985-.07421.07421-.04688.10547-.04296.10156-.07422.07422-.0586.08985-.07422.07422-.05859.08593-.07422.07422-.08984.0625-.07422.07031-.07422.07422-.10156.01563-.13281.01562-.10547-.04296v-.1211l.14843-.14844.04297-.10156.0586-.08984.04687-.10156.04297-.10547.0586-.08985.03124-.11719.04297-.10156.03125-.1211.02735-.11718.04687-.10547.04297-.10156.04297-.10547.07422-.07031.08984-.0625.08985-.0586.10156-.04296h.29687l.26563-.03125.10547-.04297-.07422-.07422-.11719-.03125-.10547-.04297-.08984-.0586-.10156-.04687-.08985-.0586-.10156-.04296-.10547-.04297-.08984-.0625-.08594-.0586-.10547-.04296-.10156-.04297-.1211-.03125-.11718-.03125-.10157-.04297L297.5 410.25l-.10156-.04297-.08985-.0586-.04296-.10546-.01563-.13281.10156-.04297.13281-.01563.13672.01563.13282-.01563.10156-.04297.0586-.08984.01562-.10547-.08985-.0586-.07421-.07421-.10157-.04297-.08984-.0586-.14844-.14843-.04297-.10547-.01562-.13281v-.29297l-.0586-.08985-.08984-.05859-.07422-.07422-.04297-.10547-.03125-.11718-.0586-.08985-.07421-.07422-.11719-.02734-.07422-.07422-.08984-.0586-.08984-.0625-.08594-.05859-.07422-.07421-.0586-.08594-.04687-.10547-.08594-.0586-.14843-.14843-.19532-.0586-.1328.01563-.10157.04297-.07422.07422-.04688.10156-.04296.10547-.0586.08984-.0586.08594-.29687.29687-.08984.0586h-.08594l-.0625-.08594-.04297-.10547.03125-.11719.0586-.08984.02734-.11719-.01172-.13281-.08984-.0625-.10547.04688-.11719.02734-.11719.03125-.26953.17578-.10156.04688-.11719.02734-.10546.04687-.08985.0586-.10156.04297-.0586-.08594-.04687-.10547.01563-.13281.04687-.10547.07031-.07422.07422-.07031.0586-.08985v-.14843l-.04297-.10547h-.23829l-.10156.04687-.03125.11719-.02734.11719-.03125.1211-.07422.04296-.13281.01563-.07422-.04688-.04297-.10156-.04297-.10547-.04687-.10156-.04297-.10547-.1211.03125-.10156.04297-.13281.01562-.11719.03125-.10547.04297-.08984.0586-.10156.04687-.1211.02734-.13281.01563-.10156-.04297-.0586-.08985-.04687-.10546-.04297-.10157-.04297-.10546v-.1172l.0586-.08984.08593-.05859.17969-.11719.10156-.04687.10547-.04297.10547-.0586.10156-.04296.08985-.0625.10156-.04297.10547-.0586.10156-.04687.08984-.0586.10547-.04296.10156-.04297.08985-.0625.10156-.04297.13672-.01563.11719.03125.10156.04297.1211.03125.10156.04297.10546.04688.10157.04296.10547.04297.10156.04688.10547.04297.10156.04297.10547.04687.08594.0586.10546.04296.1172.03125.10546.04297.10156.04688.08985.0586.10547.04296.10156.04297.10547.04687.11719.02735.10156.04687.1211.02735h.14843l.08594-.0586.01562-.10156.0586-.08984-.02735-.1172-.07422-.07421-.11719-.17969-.07421-.07422-.08985-.07421-.17969-.1172-.08593-.05859-.10547-.04296-.10156-.04688-.26954-.17578-.05859-.08985-.07422-.07421-.0586-.08985-.04296-.10156-.03125-.11719-.01563-.13672v-.5625l-.01171-.1328-.01563-.13282-.03125-.11719-.01562-.13281-.01172-.13281-.03125-.1211-.22266-.22265-.0586-.08594-.01562-.10547.03125-.11719.13281-.01562v-91.41406H172.9922v1.45312l-.0586.23438-.35156 1.05078-.17187.52343-.1172.34766-.17577.41016-.11719.17187-.23438.29297-.23046.0586h-.35157l-.11718.05859-.23047.40625v.29297l.11719.17578.23046.23047.1172.23437.64062.75781.29297.46485.17578.23437.23047.35156.23437.34766.64063.8164.17578.46485.17187.41016.11719.69531.17578.46875.11719 1.39844.0586.46484v.875l.11718 1.04688v4.78125l-.0586.46484-.35156 1.28125-.17578.52344-.11328.41015-.35156.9297L172.93359 336l-.23437.58203-.11719.17578-.17187.34766-.17578.40625-.35157.8164-.0586.29297-.11327.29297-.11719.28906-.0586.17579-.11718.875-.0586.40625-.05859.11718-.0586.17579-.05859.17187-.23047.52734-.11718.17188v.23437l-.11719.23438-.0586.17187-.17577.58594v.28906l-.0586.17579v.29296l-.0586.11329-.05859.52734v.17187l-.05468.23438v2.6211l-.17578.8164-.1172.17578-.17577.23438-.1172.17187-.11327.23438-.58594.93359-.23047.28906-.29297.46485-.17578.23437-.28906.35156-.35156.69922-.11328.23047-.17579.41016-.17578.23046-.40625.52735-.8164.69922-.29297.17187-.28906.23438-.17579.11719-.17578.17578-.52344.40625-.52734.17578-.17187.17578-.23438.05469-.64062.17578h-.75782m12.21094 31.02344l-1.07422.44921.35938.89454 1.25-.71485.44531-.53906-.98047-.08985"/><path fill="#d3d3d3" fill-opacity="0" fill-rule="evenodd" d="M201.50781 416.59766h-.89453l.44922.6289.98047.35938.80469-.08985.4453-.98828-.17577.08985-.71485-.35547-.89453.35547m154.6211 59.0703l-.0586-.52343v-.29297l.11328-.29297.0586-.23046.46875-.46875h.11328l.11719-.11329.11718-.05859h.17579l.23437-.0586h.34766l.23437.0586.11719.0586.23047.17187.0586.17578.11718.58203v.29297l-.11719.17578-.17187.28906-.17579.17579-.52734.52343-.23047.23438-.11719.0586h-.17578l-.11718-.0586-.40625-.29297-.17579-.11719-.11718-.0586-.0586-.11327-.05468-.1172m6.64062-10.95702l-.0586-.17188v-1.10937l.0586-.17188.17578-.0586.17188-.05858h.17578l.23437-.0586.1172.0586.05858.69921-.05859.17188-.11719.17578-.11718.0586-.23438.52343-.11328.0586h-.23438l-.05859-.1172m9.61328-14.39062l-.11719-.17578v-.69922l.29297-.875.1172-.17187.17577-.35156.11328-.23047.1172-.29297.35155-.75781.1172-.23047.17187-.23438h.17578l.11719-.0586h.64062l.11719.0586.23437.23438.17188.11328.35156.29297.11719.11718.11328.17579v.11328l.11719.05859.11718.11719v.69922l-.05859.17578v.23047l-.0586.17578-.34765 1.05078-.11719.23047-.11719.23437-.11718.0586-.23047.23437-.64063.28906h-.875l-.41015-.11718-.64063-.46485"/><path fill="none" stroke="#bebebe" stroke-linecap="round" stroke-linejoin="round" stroke-miterlimit="10" stroke-width=".5" d="M467.95703 311.69531H144.02734v168.625h323.9297v-168.625"/><g clip-path="url(#a)"><path fill="#fff" fill-opacity="0" fill-rule="evenodd" d="M144 475.89063v4.4375h.0039H144V311.67188h.0039H144v164.21875"/></g><g clip-path="url(#b)"><path fill="#fff" fill-opacity="0" fill-rule="evenodd" d="M144.0039 480.32813V311.67188h44.37891v107.28125l-4.4375 1.89062-3.7461 1.78516-.6914.49218-3.63672 3.94922-.80468 1.0625-3.90625 3.375-.53125.35547-4.4375 2.0664-4.4375-.5-1.35938 2.51563-.51562 4.4375-2.44532 4.4375.26563 4.4414.67969 4.4375-.01953 4.4375 3.39453 3.96485 4.4375-2.41797 4.4375.57813 4.4375.58984 4.4414.61719 4.4375-.28125 4.4375-1.32813 3.66406-1.72265.77344-.28125 4.4414-1.98047 1.91798-2.17578 2.51953-1.41016 4.4375-2.6836 4.4375-.1914.33203-.15234 4.10938-1.02344 4.4375-1.84375 4.21093-1.57422-1.90234-4.4375-1.32813-4.4375-.98047-1.08984-4.4375-.08203-4.4414-1.3164-4.4375-1.16407-2.98438-.78516-1.23437-4.4375-.21875-.15234-4.4375-2.02344-3.09375-2.26562-1.34766-1.14844-4.4375-2.52735V311.67188h8.8789v86.62891l-2.11327 2.13672-1.34766 4.4375 3.46094 3.47656 4.4375.3789.375.58595-.375.77343-1.80469 3.66407 1.80469 1.86718 4.4375 2.53516 4.4375-.10938.07031.14454 4.3711 4.37109.08593.0664 2.58985 4.44141 1.76172 1.85547 4.4375 2.35156.51171.23047 3.92578 2.23828 1.28125 2.19922-1.28125 3.14453-2.60937 1.29297 2.60938 1.40625 4.4375 1.21485 4.4414-.04297 4.4375.52344 4.4375-1.16016 1.9414-1.9414-1.9414-2.98438-.47656-1.45313-3.96094-3.73828-.6289-.69922-3.8086-3.64062-4.4414-.01953-.45704-.77735-3.98047-3.76562-.53125-.67578.53125-3.125 1.6797-1.3125-1.6797-1.34375-2.27734-3.09375-.51562-4.4375-1.64453-1.75782-2.71875 1.75782-1.71875.52343-4.4375.41797-4.44141-.27734-.875-.66406-3.5625-3.2461-1.67188-1.19531-2.76562-2.52344-2.03516-1.91406-2.40234-2.13672v-86.6289h57.69531V429.5l-4.4375 1.91797-.09375.08984.09375.07813 4.4375 1.86719 4.4414-1.86329.0625-.08203-.0625-.0664-4.4414-1.94141V311.67187h17.7539v112.17188l-4.4375 1.45703-1.9375 1.76953.44141 4.4375 1.4961 1.4336 2.64453-1.4336 1.79297-.53125 3.34765-3.90625-3.34765-3.22656V311.67187h13.3164v102.40625l-3.67968 4.11329-.75782 1.73046-2.83984 2.70704-.90234 4.4414.15625 4.4375 1.45312 4.4375 2.13281 2.10547 2.21485-2.10547 2.22265-.5586 4.4375-.8828 4.4375-.8672 2.70704-2.1289-2.70704-3.47656-.72265-.96094.32422-4.4414-.41797-4.4375-3.6211-3.58985-4.4375-.52344V311.67188h13.31641V421.6836l-1.25781.94532 1.25781 1.44921 1.4336-1.44921-1.4336-.94532V311.67188h48.82031V423.1328l-4.4375 2.1836-1.36328 1.7539 1.36328 1.39063 1.29688 3.04687-.98438 4.4375-.3125 1.55078-2.8711 2.88672-1.5664 1.42969-3.14062 3.00781-1.30078 1.1875-3.04688 3.2539 3.04688 2.8086 4.4414-.14844 4.4375-.10156 4.4375-2.3789 4.4375 2.07421 4.4414.29297 3.6172-2.54687-3.6172-2.76563-1.7539-1.67578 1.7539-.3086 4.4375-.28905 4.4375-.3711 3.42579-3.46875.51953-4.4375-.84375-4.4375-3.10156-3.39453-4.4375-.22656-4.4375-.5039-4.4414.14452-.53516-.45703-3.90235-3.9375V311.67187h35.50781V430.0586l-2.0625 1.44922-2.375.66016-3.90234 3.77734 1.19922 4.4375.8789 4.4375-2.61718 1.42969-3.01563 3.01172 3.01563 3.19531 3.32031-3.19531 1.1211-2.23828 3.82812-2.20313.60938-.04297 4.4375-.39062 3.57812-4.0039-3.57813-4.07813-.07812-.35938L385 431.50781l-1.32813-1.44922V311.67188h26.62891V440.8164l-4.4375.78906-4.4375.38672-4.4414 2.66015-.38672.16797-4.05079.38672-4.4375 1.28125-2.35156 2.77344 2.10938 4.4375-4.19531.70312-3.75 3.73438.14453 4.4375 3.60546 4.04687 4.4375.19922 4.4375-.16406 4.4375-1.28125 4.44141-.57422 4.4375 1.83985 4.4375-2.46485.875-1.60156 3.5625-.54297 4.01563-3.89453-1.7422-4.4375-2.27343-2.91016-.28125-1.52734.28125-1.6914 2.8086-2.75-2.8086-2.28516-4.4375-1.71875V311.67187h57.69531v168.65625h-78.94921l-.9375-.4414-.2461.4414H144.00391"/></g><path fill="#50fcfc" fill-rule="evenodd" d="M157.69922 449.26172l-.26563-4.4414 2.44532-4.4375.51562-4.4375 1.35938-2.51563v9.26172l-1.41797 2.1289 1.41797 3.1289 2.69922-3.1289-2.69922-2.1289v-9.26172l4.4375.5 4.4375-2.0664.53125-.35548 3.90625-3.375.80468-1.0625 3.63672-3.94922.6914-.49218 3.7461-1.78516 4.4375-1.89063v3.17579l-.9375.5-3.5 2.45312-2.42969 1.98828-.64843 4.4375 3.07812 1.82422 2.42578-1.82422 2.01172-.99219 4.4375-.76171 2.73828-2.6836-2.73828-2.42187-3.72265-2.01953-.71485-.5v-3.17579l4.4375 2.52735 1.34766 1.14844 3.09375 2.26562 4.4375 2.02344.21875.15234 1.23437 4.4375 2.98438.78516 4.4375 1.16406v3.77344l-4.4375 1.48828-4.4375.38281-4.4375-1.00781-4.4414 1.78125-4.4375-.6914-.9375 1.19921-2.95313 4.4375-.54688.59766-4.4375.04687-1.39062-.64453-2.16797-4.4375-.88281-1.85937-4.4375.1211-1.3672 1.73827 1.3672 1.94922 1.03125 2.48828.03125 4.4414-1.0625.5586-4.4375 3.03906-4.4375-2.7578-1.57422 3.59765.15625 4.4375 1.41797 1.65625 2.26953-1.65625 2.16797-3.5039 4.4375 2.36327 3.97265 1.14063.46485.11719 4.4414.86718 4.4375-.91796.14063-.06641 4.29687-2.1289 4.4375-2.14063.30469-.16797 4.13672-1.78516 4.4375-2.21094.67969-.4414 3.7578-2.11719 4.4375-.29687 4.00782-2.02735-1.70703-4.4375-2.30078-3.15234v-3.77344l4.4414 1.3164 4.4375.08204.98047 1.08984 1.32813 4.4375 1.90234 4.4375-4.21094 1.57422-4.4375 1.84375-4.10937 1.02344-.33203.15234-4.4375.1914-4.4375 2.6836-2.51953 1.41016-1.91797 2.17578-4.4414 1.98047-.77345.28125-3.66406 1.72265-4.4375 1.32813-4.4375.28125-4.4414-.61719-4.4375-.58984-4.4375-.57813-4.4375 2.41797-3.39453-3.96484.01953-4.4375-.6797-4.4375"/><path fill="#00e8fc" fill-rule="evenodd" d="M160.33594 458.13672l-.15625-4.4375 1.57422-3.59766 4.4375 2.75781 4.4375-3.03906 1.0625-.5586-.03125-4.4414-1.03125-2.48828-1.3672-1.94922 1.3672-1.73828 4.4375-.1211.8828 1.85938 2.16798 4.4375 1.39062.64453v2.46875l-1.94531 1.32813 1.59766 4.4375.34765.20312 4.4375.83985 1.54688-1.04297-1.54688-4.36719-.04297-.07031-4.39453-1.32813v-2.46875l4.4375-.04687.54688-.59766 2.95312-4.4375.9375-1.19922 4.4375.69141v4.03906l-4.4375.48828-.33203.41797.33203 1.44922 1.91797 2.99219 2.51953.91406 1.53516-.91406.7461-4.4414-2.28126-.90626V439.875l4.4414-1.78125 4.4375 1.00781 4.4375-.38281 4.4375-1.48828 2.30079 3.15234 1.70703 4.4375-4.00781 2.02735-4.4375.29687-3.75781 2.11719-.6797.4414-4.4375 2.21094-4.13671 1.78516-.30469.16797-4.4375 2.14062-4.29687 2.1289-.14063.06642-4.4375.91796-4.4414-.86718-.46485-.1172-3.97265-1.14062-4.4375-2.36328-2.16797 3.5039-2.26953 1.65626-1.41797-1.65625m1.41797-10.1875l-1.41797-3.1289 1.41797-2.12891 2.69922 2.1289-2.69922 3.1289"/><path fill="#00d4fc" fill-rule="evenodd" d="M179.16016 453.69922l-1.59766-4.4375 1.94531-1.32813 4.39453 1.32813.04297.07031 1.54688 4.36719-1.54688 1.04297-4.4375-.83985-.34765-.20312"/><path fill="#00e8fc" fill-rule="evenodd" d="M183.94531 433.33203l-3.07812-1.82422.64844-4.4375 2.42968-1.98828 3.5-2.45312.9375-.5.71485.5 3.72265 2.01953 2.73828 2.42187-2.73828 2.6836-4.4375.76171-2.01172.9922-2.42578 1.82421"/><path fill="#00d4fc" fill-rule="evenodd" d="M188.38281 446.26953l-.33203-1.44922.33203-.41797 4.4375-.48828 2.28125.90625-.7461 4.4414-1.53515.91407-2.51953-.91406-1.91797-2.99219"/><path fill="#50fcfc" fill-rule="evenodd" d="M197.26172 408.35156l-3.46094-3.47656 1.34766-4.4375 2.11328-2.13672v3.79688l-1.60156 2.77734 1.60156 1.61328 2.89453-1.61328-2.89453-2.77734v-3.79688l2.40234 2.13672 2.03516 1.91406 2.76562 2.52344 1.67188 1.19531v3.54688l-3.16797 4.13672 3.16797 2.65625 4.4375-1.82422 1.76953 3.60547 2.67188 2.67187 2.34375 1.76563 2.09375 2.63671 4.1328 1.8047.3047.1875 4.4375 2.97656 2.92187 1.27343 1.3086 4.4375.20702.85938 4.44141 1.89844 2.38281 1.67968 2.0547.77344 1.6953-.77344.15625-4.4375-1.85156-1.75-2.41406-2.6875-2.02344-1.9336-4.4414 1.10938-2.1211-3.61328-2.3164-2.1914-1.78125-2.25-1.19141-4.4375-1.46484-1.77344-2.8086-2.66406-1.6289-1.01954-3.15625 1.01954-1.28125.37109-1.66016-.3711-2.78125-.73046-4.4375-3.40625v-3.54688l3.5625 3.2461.875.66406 4.4414.27734 4.4375-.41797 1.71875-.52343 2.71875-1.75782 1.64454 1.75782.51562 4.4375 2.27734 3.09375 1.6797 1.34375-1.6797 1.3125-.53125 3.125.53125.67578 3.98047 3.76562.45703.77735 4.44141.01953 3.8086 3.64062.6289.69922 3.96094 3.73828.47656 1.45313 1.9414 2.98437-1.9414 1.9414-4.4375 1.16017-4.4375-.52344-4.4414.04297-4.4375-1.21485-2.60938-1.40625 2.60938-1.29297 1.28125-3.14453-1.28125-2.19922-3.92579-2.23828-.51172-.23047-4.4375-2.35156-1.76171-1.85547-2.58985-4.4414-.08594-.06641-4.37109-4.3711-.07031-.14452-4.4375.10937-4.4375-2.53516-1.80469-1.86718 1.80469-3.66407.375-.77343-.375-.58594-4.4375-.3789"/><path fill="#00e8fc" fill-rule="evenodd" d="M197.26172 406.48828l-1.60156-1.61328 1.60156-2.77734 2.89453 2.77734-2.89453 1.61328m8.875 9.92188l-3.16797-2.65625 3.16797-4.13672 4.4375 3.40625 2.78125.73047 1.66016.37109 1.28125-.3711 3.15625-1.01952v2.34765l-4.3086 3.10938 4.3086 3.57812 2.72656.85938 1.71094.99218.57812-.99218-.57813-1.19141-1.28906-3.2461-3.14844-3.10937v-2.34765l1.62891 1.01953 2.8086 2.66406 1.46484 1.77344 1.1914 4.4375 1.78125 2.25 2.31641 2.1914 2.1211 3.61328 4.4414-1.10937 2.02344 1.9336 2.41406 2.6875 1.85156 1.75-.15625 4.4375-1.6953.77343-2.0547-.77344-2.3828-1.67969-4.44142-1.89843-.20703-.85938-1.30859-4.4375-2.92188-1.27344-4.4375-2.97656-.30468-.1875-4.13281-1.80469-2.09375-2.63671-2.34375-1.76563-2.67188-2.67187-1.76953-3.60547-4.4375 1.82422"/><path fill="#00d4fc" fill-rule="evenodd" d="M219.45313 421.76953l-4.3086-3.57812 4.3086-3.10938v1.6836l-1.97657 1.42578 1.97656 1.64062 1.44141-1.64062-1.4414-1.42579v-1.68359l3.14843 3.10938 1.28906 3.24609.57813 1.1914-.57813.9922-1.71093-.9922-2.72656-.85937"/><path fill="#00c4fc" fill-rule="evenodd" d="M219.45313 419.83203l-1.97657-1.64062 1.97656-1.42579 1.44141 1.42579-1.4414 1.64062"/><path fill="#50fcfc" fill-rule="evenodd" d="M250.51953 431.58594l-.09375-.07813.09375-.08984 4.4375-1.91797 4.4414 1.9414.0625.06641-.0625.08203-4.4414 1.86329-4.4375-1.8672m16.25781-.07812l-.4414-4.4375 1.9375-1.76953 4.4375-1.45703V426l-2.03125 1.07031 2.03125 1.29688 1.11328-1.29688L272.71094 426v-2.15625l3.34765 3.22656-3.34765 3.90625-1.79297.53125-2.64453 1.4336-1.4961-1.4336"/><path fill="#00e8fc" fill-rule="evenodd" d="M272.71094 428.36719l-2.03125-1.29688L272.71094 426l1.11328 1.07031-1.11328 1.29688"/><path fill="#50fcfc" fill-rule="evenodd" d="M278.0039 431.50781l-.15624-4.4375.90234-4.4414 2.83984-2.70704.75782-1.73046 3.67968-4.11329v1.625l-2.22656 2.48829-1.76953 4.4375-.4414.45312-2.31641 3.98828.21875 4.4375 2.09765 3.38672 4.4375-.4961 4.4375-2.1875 1.85938-.70312-1.85938-2.77344-.70703-1.66406.70703-.23828 3.08985-4.20312-1.09766-4.4375-1.99219-1.97657-4.4375-.51171v-1.625l4.4375.52343 3.6211 3.58985.41797 4.4375-.32422 4.4414.72265.96094 2.70704 3.47656-2.70704 2.1289-4.4375.8672-4.4375.8828-2.22265.5586-2.21485 2.10547-2.1328-2.10547-1.45313-4.4375"/><path fill="#00e8fc" fill-rule="evenodd" d="M279.49219 431.50781l-.21875-4.4375 2.3164-3.98828.44141-.45312 1.76953-4.4375 2.22656-2.48829v12.94141l-3.68359 2.86328 3.6836 1.24219 2.1328-1.24219-2.1328-2.86328v-12.9414l4.4375.51171v2.94532l-4.4297 3.46875 4.4297 2.05078 1.5078-2.05078-1.5078-3.46875v-2.94532l1.99218 1.97657 1.09766 4.4375-3.08985 4.20312-.70703.23828.70703 1.66406 1.85938 2.77344-1.85938.70313-4.4375 2.1875-4.4375.4961-2.09765-3.38673"/><path fill="#00d4fc" fill-rule="evenodd" d="M286.02734 432.75l-3.68359-1.24219 3.6836-2.86328 2.1328 2.86328-2.1328 1.24219m4.4375-8.07031l-4.4297-2.05078 4.4297-3.46875 1.5078 3.46875-1.5078 2.05078"/><path fill="#50fcfc" fill-rule="evenodd" d="M299.34375 424.07813l-1.25781-1.44922 1.25781-.94532 1.4336.94532-1.4336 1.44921m35.5039 27.9922l-3.04687-2.8086 3.04688-3.2539 1.30078-1.1875 3.14062-3.00782 1.5664-1.42969 2.8711-2.88672.3125-1.55078.98438-4.4375-1.29688-3.04687-1.36328-1.39063 1.36328-1.7539 4.4375-2.1836v1.5586l-3.0039 2.3789 2.0664 4.4375-2.29687 4.4375 3.23437 3.32031v.91407l-1.1289.20312 1.1289.29688.1836-.29688-.1836-.20312v-.91406l1 1.11718-1 1.6211-4.4375-.29297-3.40625 3.10937 3.40625 3.78125 4.4375-.73047 3.97266-3.05078.46484-.25 4.4414-.69922 4.4375-.67578 4.4375-1.0586 1.73438-1.7539.71875-4.4375-2.45312-4.23828-.27344-.19922-4.16406-1.97265-4.4375-1.57032-4.4414.89063-2.07813-1.78516-2.35938-2.3789v-1.5586l3.90235 3.9375.53515.45703 4.4414-.14453 4.4375.5039 4.4375.22657 3.10157 3.39453.84375 4.4375-.51953 4.4375-3.42578 3.46875-4.4375.3711-4.4375.28906-1.7539.3086 1.7539 1.67577 3.61719 2.76563-3.6172 2.54687-4.4414-.29296-4.4375-2.07422-4.4375 2.3789-4.4375.10156-4.4414.14844"/><path fill="#00e8fc" fill-rule="evenodd" d="M343.72656 448.60156l-3.40625-3.78125 3.40625-3.10937 4.4375.29297 1-1.6211-1-1.11719-3.23437-3.3203 2.29687-4.4375-2.0664-4.4375 3.0039-2.37891 2.35938 2.3789 2.07812 1.78516 4.4414-.89063v.96875l-4.4414 2.12891-.9414.44531-3.4961 1.71094-1.7539 2.72656 1.7539 1.80078 2.36328 2.63672-2.36328 3.82031-1.55469.6172 1.5547.67187.87109-.67188 3.5664-1.90625 4.4414-.10547 4.4375-1.3203 2.78126-1.10548 1.59765-4.4375-4.3789-3.47656-.42578-.96094-4.01172-2.57422v-.96875l4.4375 1.57032 4.16406 1.97265.27344.19922 2.45312 4.23828-.71875 4.4375-1.73437 1.7539-4.4375 1.0586-4.4375.67578-4.4414.69922-.46485.25-3.97266 3.05078-4.4375.73047"/><path fill="#00d4fc" fill-rule="evenodd" d="M348.16406 437.7461l-1.7539-1.80079 1.7539-2.72656 3.4961-1.71094.9414-.44531 4.4414-2.1289v.96484l-3 1.60937-1.4414 1.80078-4.4375 2.21094-.27344.42578.27344.28125 3.72656 4.15625.71094.8711 4.4414.49218 3.47657-1.36328.96094-4.20312.08203-.23438-.08203-.0664-1.9336-4.3711-2.5039-1.60937v-.96485l4.01172 2.57422.42578.96094 4.3789 3.47656-1.59765 4.4375-2.78125 1.10547-4.4375 1.32031-4.4414.10547-3.56641 1.90625-.8711.67188-1.55469-.67188 1.5547-.61719 2.36327-3.8203-2.36328-2.63673"/><path fill="#fff" fill-opacity="0" fill-rule="evenodd" d="M348.16406 440.17969l-1.1289.20312 1.1289.29688.1836-.29688-.1836-.20312"/><path fill="#00c4fc" fill-rule="evenodd" d="M348.16406 436.22656l-.27344-.28125.27344-.42578 4.4375-2.21094 1.4414-1.80078 3-1.60937v.96875l-1.1914.64062-3.25 4.0586-.75781.3789.75781 1.16016 2.79688 3.27734 1.64453.29688.75781-.29688 2.67578-4.4375-2.4414-4.4375-.9922-.64062v-.96875l2.50392 1.60937 1.93359 4.3711.08203.0664-.08203.23438-.96094 4.20312-3.47656 1.36328-4.4414-.49218-.71094-.8711-3.72657-4.15625"/><path fill="#00b8fc" fill-rule="evenodd" d="M352.60156 437.10547l-.75781-1.16016.75781-.3789 3.25-4.0586 1.1914-.64062v1.19922l-3.28124 3.8789 3.28125 3.39844 2.40625-3.39844-2.40625-3.8789v-1.19922l.99219.64062 2.4414 4.4375-2.67578 4.4375-.75781.29688-1.64453-.29688-2.79688-3.27734"/><path fill="#00a8fc" fill-rule="evenodd" d="M357.04297 439.34375l-3.28125-3.39844 3.28125-3.8789v1.65234l-1.88281 2.22656 1.8828 1.94922 1.38282-1.94922-1.38281-2.22656v-1.65234l2.40625 3.8789-2.40625 3.39844"/><path fill="#009800" fill-rule="evenodd" d="M357.04297 437.89453l-1.88281-1.94922 1.8828-2.22656v1.65234l-.48827.57422.48828.5039.35547-.5039-.35547-.57422v-1.65234l1.38281 2.22656-1.38281 1.94922"/><path fill="#00ac00" fill-rule="evenodd" d="M357.04297 436.44922l-.48828-.5039.48828-.57423.35547.57422-.35547.5039"/><path fill="#50fcfc" fill-rule="evenodd" d="M374.79297 452.45703l-3.01563-3.19531 3.01563-3.01172v2.15625l-.85156.85547.85156.90234.9414-.90234-.9414-.85547V446.25l2.61719-1.42969-.87891-4.4375-1.19922-4.4375 3.90235-3.77734 2.375-.66016 2.0625-1.44922v1.78907l-4.4375 2.3789-1.77344 1.71875 1.77344 2.61328.36718 1.82422 4.07031 3.80078 4.4375-1.80468 1.78516-1.9961-1.78515-2.03125-.53125-2.40625-3.90625-4.09765v-1.78907L385 431.50781l3.03125 4.4375.07813.35938 3.57812 4.07812-3.57813 4.0039-4.4375.39063-.60937.04297-3.82813 2.20313-1.12109 2.23828-3.32031 3.19531"/><path fill="#00e8fc" fill-rule="evenodd" d="M374.79297 450.16406l-.85156-.90234.85156-.85547.9414.85547-.9414.90234m4.4414-11.60547l-1.77343-2.61328 1.77344-1.71875 4.4375-2.3789v.78906l-3.96875 3.3086.96093 4.4375 3.00781 2.80859 3.88672-2.8086-.73046-4.4375-3.15625-3.3086v-.78905l3.90625 4.09765.53125 2.40625 1.78515 2.03125-1.78515 1.9961-4.4375 1.80468-4.07032-3.80078-.36719-1.82422"/><path fill="#00d4fc" fill-rule="evenodd" d="M380.66406 440.38281l-.96094-4.4375 3.96875-3.3086v.78517l-3.02343 2.52343 1.07812 4.4375 1.94531 1.82031 2.51563-1.8203-.10938-4.4375-2.40625-2.52344v-.78516l3.15625 3.3086.73047 4.4375-3.88671 2.80859-3.00782-2.8086"/><path fill="#50fcfc" fill-rule="evenodd" d="M380.0664 462.57422l-.14452-4.4375 3.75-3.73438 4.1953-.70312-2.10937-4.4375 2.35156-2.77344 4.4375-1.28125 4.05079-.38672.38671-.16797 4.44141-2.66015 4.4375-.38672 4.4375-.78906v1.17578l-4.4375 1.8164-4.4375.81641-.3164.19531-4.125.6875-4.4375 1.25-3.1797 2.5039-.64062 4.4375-.61719.5625-4.4375 1.3086-2.57812 2.5664.2539 4.4375 2.32423 2.60938 4.4375.98829 4.4375-.21875 4.34375-3.37891.09375-.10547 4.4414-.6289 1.3125.73437 3.125 2.25781 2.64453-2.25781 1.79297-1.04297 4.4375-.3789 3.10938-3.01563-3.10938-4.0039-.34765-.4336-.79297-4.4375.42578-4.4414-3.72266-2.82813v-1.17578l4.4375 1.71875 2.8086 2.28515-2.8086 2.75-.28125 1.6914.28125 1.52735 2.27344 2.91016 1.74219 4.4375-4.01563 3.89453-3.5625.54297-.875 1.60156-4.4375 2.46485-4.4375-1.83985-4.4414.57422-4.4375 1.28125-4.4375.16406-4.4375-.19922-3.60547-4.04687"/><path fill="#00c4fc" fill-rule="evenodd" d="M381.72656 440.38281l-1.07812-4.4375 3.02344-2.52344v.78907l-2.07813 1.73437 1.1914 4.4375.88673.82813 1.14453-.82813.5078-4.4375-1.65233-1.73437v-.78906l2.40625 2.52343.10937 4.4375-2.51563 1.82031-1.9453-1.8203"/><path fill="#00e8fc" fill-rule="evenodd" d="M381.34766 462.57422l-.25391-4.4375 2.57813-2.5664 4.4375-1.3086.61718-.5625.64063-4.4375 3.17969-2.5039 4.4375-1.25 4.125-.6875.3164-.19532 4.4375-.8164 4.4375-1.81641v1.95703l-1.6875.8711-2.75 2.05077-4.4375-.85546-4.4414.66015-4.375 2.58594-.0625.05078-2.75782 4.38672-1.67969 1.53906-4.4375 2.27735-.625.62109.4336 4.4375.1914.21484 4.4375 2.3086 4.4375-.32032 2.83594-2.20312 1.60156-1.82031 4.44141-1.2422 4.4375 2.35157 4.4375-2.38672 4.4375.20313 1.59375-1.54297-1.59375-2.05078-1.91406-2.38672-.66016-4.4375-.71484-4.4414-1.14844-.8711v-1.95703l3.72266 2.82812-.42578 4.4414.79296 4.4375.34766.4336 3.10938 4.0039-3.10938 3.01563-4.4375.37891-1.79297 1.04297-2.64453 2.25781-3.125-2.25781-1.3125-.73438-4.4414.62891-.09375.10547-4.34375 3.3789-4.4375.21875-4.4375-.98828-2.32422-2.60937"/><path fill="#00b8fc" fill-rule="evenodd" d="M382.78516 440.38281l-1.19141-4.4375 2.07813-1.73437v.78515l-1.13672.94922 1.13671 3.90235.90235-3.90235-.90235-.94922v-.78515l1.65235 1.73437-.50781 4.4375-1.14454.82813-.88671-.82813"/><path fill="#00a8fc" fill-rule="evenodd" d="M383.67188 439.84766l-1.13672-3.90235 1.13671-.94922v.78907l-.1914.16015.1914.66016.15235-.66016-.15235-.16015v-.78907l.90235.94922-.90235 3.90235"/><path fill="#00d4fc" fill-rule="evenodd" d="M383.48047 462.57422l-.4336-4.4375.625-.6211 4.4375-2.27734 1.6797-1.53906 2.7578-4.38672.0625-.05078 4.375-2.58594 4.44141-.66015v1.2539l-4.4414.57422-2.39454 1.41797L392.54688 451l-1.69532 2.69922-2.74219 2.51172-3.30078 1.92578.65625 4.4375 2.64454 1.44531 4.4375-.41797 1.32421-1.02734 3.11329-3.53516 2.49609-.90234 1.94531-.98438 2.52344.98438 1.91406.88672 2.09766-.88672 2.33984-1.60938 3.875 1.60938.5625.07422.07813-.07422-.07813-.09766-3.48047-4.33984-.52734-4.4375-.42969-1.55469-2.92187 1.55469-1.51563.97265-.39453-.97265-4.04297-1.99219v-1.2539l4.4375.85546 2.75-2.05078 1.6875-.8711 1.14844.8711.71484 4.4414.66016 4.4375 1.91406 2.38673 1.59375 2.05078-1.59375 1.54297-4.4375-.20313-4.4375 2.38672-4.4375-2.35156-4.4414 1.24219-1.60157 1.8203-2.83594 2.20313-4.4375.32032-4.4375-2.3086-.1914-.21484"/><path fill="#009800" fill-rule="evenodd" d="M383.67188 436.60547l-.19141-.66016.1914-.16015.15235.16015-.15235.66016"/><path fill="#00c4fc" fill-rule="evenodd" d="M385.46484 462.57422l-.65625-4.4375 3.30079-1.92578 2.74218-2.51172L392.54687 451l2.04297-1.73828 2.39454-1.41797 4.4414-.57422v1.25l-4.4414.49219-.41797.25-4.01954 3.42969-.6328 1.0078-3.8047 3.48829-1.6289.94922.95703 4.4375.67188.36719 3.24609-.3672 1.1914-.59765 2.79688-3.83984 1.64063-1.45313 4.4414-1.92578 2.20313-1.0586-.69922-4.4375-1.5039-.74218v-1.25l4.04296 1.99219.39453.97265 1.51563-.97265 2.92187-1.55469.42969 1.55469.52734 4.4375 3.48047 4.33984.07813.09766-.07813.07422-.5625-.07422-3.875-1.60938-2.33984 1.60938-2.09766.88672-1.91406-.88672-2.52344-.98438-1.94531.98438-2.4961.90234-3.11328 3.53516-1.32421 1.02734-4.4375.41797-2.64454-1.44531"/><path fill="#00b8fc" fill-rule="evenodd" d="M387.4375 462.57422l-.95703-4.4375 1.6289-.94922 3.8047-3.48828.6328-1.00781 4.01954-3.4297.41796-.25 4.44141-.49218 1.5039.74219.69923 4.4375-2.20313 1.0586-4.4414 1.92577-1.64063 1.45313-2.79688 3.83984-1.1914.59766-3.2461.36719-.67187-.3672"/><g clip-path="url(#c)"><path fill="#50fcfc" fill-rule="evenodd" d="M387.86328 480.32813l.2461-.44141.9375.4414h-1.1836"/></g><g clip-path="url(#d)"><path fill="#fff" fill-opacity="0" fill-rule="evenodd" d="M467.9961 480.32813H468V311.67188h-.0039H468v168.65625h-.0039"/></g><path fill="#fff" fill-opacity="0" fill-rule="evenodd" d="M166.57031 464.84375l5.78906.76172 1.29688-9.8789-5.78906-.75782-1.29688 9.875"/><path fill-rule="evenodd" d="M171.09766 457.24219l.5039.0664-.82031 6.23829L170 463.4453l.58594-4.45312-1.375-.17969.07031-.55078.5625.00781.25781-.01953.24219-.0586.21875-.11327.19922-.1875.17969-.27344.15625-.375"/><path fill="#fff" fill-opacity="0" fill-rule="evenodd" d="M227.26563 430.53516l5.0625 2.91406 4.96484-8.63672-5.0625-2.91016-4.96484 8.63282"/><path fill-rule="evenodd" d="M234.35156 425.23438l.4414.2539-3.14062 5.45703-.67968-.39062 2.23828-3.89453-1.20703-.69141.27734-.48047.51953.22266.2461.07812.24218.03516.2461-.01953.2578-.09375.26954-.1875.28906-.28906"/><g clip-path="url(#e)"><path fill="none" stroke="#000" stroke-linecap="round" stroke-linejoin="round" stroke-miterlimit="10" stroke-width=".5" d="M147.46875 480.89844l-6.9375-1.14063"/></g><g clip-path="url(#f)"><path fill="none" stroke="#000" stroke-linecap="round" stroke-linejoin="round" stroke-miterlimit="10" stroke-width=".5" d="M146.45703 480.73438l.39453 1.16015"/></g><g clip-path="url(#g)"><path fill="none" stroke="#000" stroke-linecap="round" stroke-linejoin="round" stroke-miterlimit="10" stroke-width=".5" d="M160.82031 480.5664l-7.01172-.47656"/></g><g clip-path="url(#h)"><path fill="none" stroke="#000" stroke-linecap="round" stroke-linejoin="round" stroke-miterlimit="10" stroke-width=".5" d="M159.80078 480.5l.5 1.11719"/></g><g clip-path="url(#i)"><path fill="none" stroke="#000" stroke-linecap="round" stroke-linejoin="round" stroke-miterlimit="10" stroke-width=".5" d="M174.1211 480.71484l-6.98438-.77343"/></g><g clip-path="url(#j)"><path fill="none" stroke="#000" stroke-linecap="round" stroke-linejoin="round" stroke-miterlimit="10" stroke-width=".5" d="M173.10547 480.60156l.45312 1.14063"/></g><g clip-path="url(#k)"><path fill="none" stroke="#000" stroke-linecap="round" stroke-linejoin="round" stroke-miterlimit="10" stroke-width=".5" d="M187.41016 480.91016l-6.9297-1.16016"/></g><g clip-path="url(#l)"><path fill="none" stroke="#000" stroke-linecap="round" stroke-linejoin="round" stroke-miterlimit="10" stroke-width=".5" d="M187.41016 480.91016l.77734 2.32422"/></g><g clip-path="url(#m)"><path fill="none" stroke="#000" stroke-linecap="round" stroke-linejoin="round" stroke-miterlimit="10" stroke-width=".5" d="M200.76172 480.63672l-7-.61719"/></g><g clip-path="url(#n)"><path fill="none" stroke="#000" stroke-linecap="round" stroke-linejoin="round" stroke-miterlimit="10" stroke-width=".5" d="M200.76172 480.63672l.95703 2.25781"/></g><g clip-path="url(#o)"><path fill="none" stroke="#000" stroke-linecap="round" stroke-linejoin="round" stroke-miterlimit="10" stroke-width=".5" d="M214.08984 480.3164l-7.02734.02344"/></g><g clip-path="url(#p)"><path fill="none" stroke="#000" stroke-linecap="round" stroke-linejoin="round" stroke-miterlimit="10" stroke-width=".5" d="M214.08984 480.3164l1.15625 2.16407"/></g><g clip-path="url(#q)"><path fill="none" stroke="#000" stroke-linecap="round" stroke-linejoin="round" stroke-miterlimit="10" stroke-width=".5" d="M227.39844 480.49219l-7.01953-.32422"/></g><g clip-path="url(#r)"><path fill="none" stroke="#000" stroke-linecap="round" stroke-linejoin="round" stroke-miterlimit="10" stroke-width=".5" d="M227.39844 480.49219l1.05078 2.21484"/></g><g clip-path="url(#s)"><path fill="none" stroke="#000" stroke-linecap="round" stroke-linejoin="round" stroke-miterlimit="10" stroke-width=".5" d="M240.66016 480.97266L233.75 479.6875"/></g><g clip-path="url(#t)"><path fill="none" stroke="#000" stroke-linecap="round" stroke-linejoin="round" stroke-miterlimit="10" stroke-width=".5" d="M239.65625 480.78516l.36719 1.16797"/></g><g clip-path="url(#u)"><path fill="none" stroke="#000" stroke-linecap="round" stroke-linejoin="round" stroke-miterlimit="10" stroke-width=".5" d="M253.57031 482.07422l-6.09765-3.49219"/></g><g clip-path="url(#v)"><path fill="none" stroke="#000" stroke-linecap="round" stroke-linejoin="round" stroke-miterlimit="10" stroke-width=".5" d="M266.98438 481.88672l-6.29688-3.11328"/></g><g clip-path="url(#w)"><path fill="none" stroke="#000" stroke-linecap="round" stroke-linejoin="round" stroke-miterlimit="10" stroke-width=".5" d="M280.29297 481.89844l-6.28516-3.14063"/></g><g clip-path="url(#x)"><path fill="none" stroke="#000" stroke-linecap="round" stroke-linejoin="round" stroke-miterlimit="10" stroke-width=".5" d="M293.67188 481.76172l-6.41407-2.86719"/></g><g clip-path="url(#y)"><path fill="none" stroke="#000" stroke-linecap="round" stroke-linejoin="round" stroke-miterlimit="10" stroke-width=".5" d="M307.26953 480.75781l-6.97656-.85937"/></g><g clip-path="url(#z)"><path fill="none" stroke="#000" stroke-linecap="round" stroke-linejoin="round" stroke-miterlimit="10" stroke-width=".5" d="M306.2539 480.63281l.4375 1.14453"/></g><g clip-path="url(#A)"><path fill="none" stroke="#000" stroke-linecap="round" stroke-linejoin="round" stroke-miterlimit="10" stroke-width=".5" d="M320.60547 480.16016l-7.01953.33593"/></g><g clip-path="url(#B)"><path fill="none" stroke="#000" stroke-linecap="round" stroke-linejoin="round" stroke-miterlimit="10" stroke-width=".5" d="M320.60547 480.16016l1.2539 2.10937"/></g><g clip-path="url(#C)"><path fill="none" stroke="#000" stroke-linecap="round" stroke-linejoin="round" stroke-miterlimit="10" stroke-width=".5" d="M333.92188 480.19922l-7.02344.25781"/></g><g clip-path="url(#D)"><path fill="none" stroke="#000" stroke-linecap="round" stroke-linejoin="round" stroke-miterlimit="10" stroke-width=".5" d="M333.92188 480.19922l1.23046 2.125"/></g><g clip-path="url(#E)"><path fill="none" stroke="#000" stroke-linecap="round" stroke-linejoin="round" stroke-miterlimit="10" stroke-width=".5" d="M347.01563 481.5586l-6.58204-2.46094"/></g><g clip-path="url(#F)"><path fill="none" stroke="#000" stroke-linecap="round" stroke-linejoin="round" stroke-miterlimit="10" stroke-width=".5" d="M360.47656 481.0625l-6.8711-1.46484"/></g><g clip-path="url(#G)"><path fill="none" stroke="#000" stroke-linecap="round" stroke-linejoin="round" stroke-miterlimit="10" stroke-width=".5" d="M359.47656 480.84766l.33985 1.17968"/></g><g clip-path="url(#H)"><path fill="none" stroke="#000" stroke-linecap="round" stroke-linejoin="round" stroke-miterlimit="10" stroke-width=".5" d="M372.1836 483.32813l-3.65626-6"/></g><g clip-path="url(#I)"><path fill="none" stroke="#000" stroke-linecap="round" stroke-linejoin="round" stroke-miterlimit="10" stroke-width=".5" d="M386.42969 482.5039l-5.51563-4.35156"/></g><g clip-path="url(#J)"><path fill="none" stroke="#000" stroke-linecap="round" stroke-linejoin="round" stroke-miterlimit="10" stroke-width=".5" d="M399.45313 482.82813l-4.9336-5"/></g><g clip-path="url(#K)"><path fill="none" stroke="#000" stroke-linecap="round" stroke-linejoin="round" stroke-miterlimit="10" stroke-width=".5" d="M410.5039 483.83594l-.40624-7.01563"/></g><g clip-path="url(#L)"><path fill="none" stroke="#000" stroke-linecap="round" stroke-linejoin="round" stroke-miterlimit="10" stroke-width=".5" d="M423.70703 483.83984l-.1836-7.02343"/></g><g clip-path="url(#M)"><path fill="none" stroke="#000" stroke-linecap="round" stroke-linejoin="round" stroke-miterlimit="10" stroke-width=".5" d="M437.73438 483.75l-1.60938-6.83984"/></g><g clip-path="url(#N)"><path fill="none" stroke="#000" stroke-linecap="round" stroke-linejoin="round" stroke-miterlimit="10" stroke-width=".5" d="M452.53516 482.9961l-4.57813-5.33204"/></g><g clip-path="url(#O)"><path fill="none" stroke="#000" stroke-linecap="round" stroke-linejoin="round" stroke-miterlimit="10" stroke-width=".5" d="M465.46484 483.28125l-3.80468-5.90625"/></g><g clip-path="url(#P)"><path fill="none" stroke="#000" stroke-linecap="round" stroke-linejoin="round" stroke-miterlimit="10" stroke-width=".5" d="M147.46094 467.6211l-6.92188-1.21485"/></g><path fill="none" stroke="#000" stroke-linecap="round" stroke-linejoin="round" stroke-miterlimit="10" stroke-width=".5" d="M147.46094 467.6211l.76172 2.33202m12.48437-2.01953l-6.78125-1.83984m6.78125 1.83984l.54297 2.39453m12.85156-2.76171l-6.9414-1.10547m6.9414 1.10547l.79297 2.32422m12.54297-2.47657l-6.98438-.80078m6.98438.80078l.89844 2.28125m12.38281-2.0625l-6.91797-1.23828m6.91797 1.23828l.7539 2.33594m12.53907-2.22656l-6.875-1.45703m6.875 1.45703l.67969 2.35937m12.68359-2.64453l-6.96875-.88672m6.96875.88672l.86719 2.29688m12.44922-2.30078l-6.97266-.87891m6.97266.8789l.87109 2.29688m12.25781-1.52734l-6.59765-2.41797m5.63672 2.0664l.16796 1.21485m13.96094-.51953l-6.30469-3.10547m5.38672 2.65234l.03907 1.22656m13.9375-.33593l-5.79297-3.98047m4.94922 3.40234l-.14063 1.21875m14.16797-.46484l-5.53125-4.33203m4.72656 3.70312l-.21484 1.20703m14.5-.8086l-5.86328-3.87108m5.01171 3.30859l-.11718 1.22266m14.55078-1.13282l-6.39063-2.92578m5.45703 2.5l.07422 1.22266m14.48438-2.0586l-7.01563-.40234m5.9961.34375l.51172 1.11719m13.72265-.40625l-6.8164-1.70703m5.82812 1.45703l.29297 1.1914m14.01953-.96875l-6.83203-1.65234m5.83594 1.41406l.30468 1.1875m14.10157-1.67578l-7.02344-.19922m6.0039.17188l.54297 1.09765m12.50782 1.54688l-4.45703-5.4336m3.80859 4.64454l-.47266 1.1289m11.41407.36719l1.58984-6.84766m-1.35938 5.85157l-1.18359.3164m14.17969.65625l1.76953-6.80078m-1.76953 6.80078l-2.38672.57032m15.89453-.52735l1.38281-6.88672m-1.3828 6.88672l-2.35157.70313m16.66797-.64844l-.6211-6.9961m.6211 6.9961l-2.05469 1.33984m15.91406-1.42968l-1.70703-6.81641m1.70703 6.8164l-1.82422 1.64454m16.01563-1.9961l-3.46094-6.11328m3.46094 6.11328l-1.32031 2.07032"/><g clip-path="url(#Q)"><path fill="none" stroke="#000" stroke-linecap="round" stroke-linejoin="round" stroke-miterlimit="10" stroke-width=".5" d="M147.51172 453.78516l-7.02344-.17578"/></g><path fill="none" stroke="#000" stroke-linecap="round" stroke-linejoin="round" stroke-miterlimit="10" stroke-width=".5" d="M147.51172 453.78516l1.09766 2.1953m12.11718-1.4375l-6.82031-1.6914m6.82031 1.6914l.59375 2.38282m12.5625-1.90234l-6.50781-2.65235m5.5625 2.26563l.125 1.22266m14.1289-.82032l-6.49218-2.6836m6.49219 2.6836l.23828 2.44532m13.2461-2.96485l-6.83204-1.64062m6.83203 1.64062l.61719 2.375m12.79297-3.30078l-7.02344.21094m7.02344-.21094l1.21875 2.13281m12.09765-2.14062l-7.02343.22656m7.02343-.22656l1.21875 2.1289m12.09375-2.17187l-7.01953.3125m7.01953-.3125l1.2461 2.11328m12.0664-1.73828l-7.01172-.4414m7.01172.4414l1.01172 2.23437m12.29297-2.11328l-6.99219-.67969m6.9922.6797l.9375 2.26562m12.39452-2.64063l-7.02734.07031m7.02734-.0703l1.17188 2.15624m11.65625-.33594l-6.05078-3.57421m5.16797 3.05468l-.0547 1.22657m13.5.18359l-4.55077-5.35156m3.89062 4.57422l-.45312 1.14062m14.7539-.67578l-5.19922-4.73047m4.44141 4.04297l-.30078 1.1875m15.07812-1.67188l-6.60937-2.3828m5.64844 2.03515l.17578 1.21484m14.17969-1.11719l-6.76954-1.88671m5.78516 1.61328l.26563 1.19922m14.15234-2.16016l-7.0039.58594m5.98437-.5l.66406 1.03125m13.44531-2.09375l-6.55469 2.53906m5.60157-2.16797l.92969.80078M386.32813 456l-5.3125-4.60156m13.1914 4.45312l5.5586-4.30469m-4.75 3.67579l-1.1172-.50391m14.6836 2.04687l3.4375-6.1328m-3.4375 6.1328l-2.45312-.05468m16.0703.20312l2.83595-6.42969m-2.83594 6.4297l-2.44922.17968m15.94531-.10547l2.47266-6.57812m-2.47266 6.57812l-2.42969.3164m15.08985-.64452l3.78515-5.92188m-3.78515 5.92188l-2.44922-.19922m17.21875.72265l.8711-6.97265m-.8711 6.97265l-2.29297.875"/><g clip-path="url(#R)"><path fill="none" stroke="#000" stroke-linecap="round" stroke-linejoin="round" stroke-miterlimit="10" stroke-width=".5" d="M147.50781 440.59375l-7.01562-.42188"/></g><path fill="none" stroke="#000" stroke-linecap="round" stroke-linejoin="round" stroke-miterlimit="10" stroke-width=".5" d="M147.50781 440.59375l1.01953 2.23438m12.2461-1.81641l-6.91406-1.25781m6.91406 1.2578l.74219 2.33985m12.36328-1.6289l-6.4961-2.6797m6.4961 2.6797l.23828 2.4414m13.03125-2.33594l-6.40625-2.89062m5.47265 2.46875l.08203 1.22656m14.0586-.58594l-6.1914-3.32812m5.28905 2.84375l-.0039 1.22656m14.4414-1.23828l-6.6289-2.33594m5.66406 1.9961l.1836 1.21484m14.17187-1.11719L220.5 439.46094m5.79297 1.57812l.27344 1.19531m13.8789-.49218l-6.48047-2.71485m5.53907 2.32032l.11328 1.21875m14.41015-1.96094l-7.01172-.44531m7.01172.4453l1.01172 2.23829m12.28516-2.8711l-6.97656.82032m5.96093-.69922l.69922 1.00781m13.64453-1.02344l-7 .61329m5.98047-.52735l.66797 1.03125m13.66797-.54297l-7.00781-.53515m5.98828.45703l.49219 1.125m13.2539.64844l-5.82812-3.9297m4.98047 3.35938l-.12891 1.21875m14.8711-2.98828l-6.98829.75m6.98828-.75l1.375 2.03125m11.58594-3.23437l-6.27734 3.15625m5.36328-2.69531l1 .70703m13.54687-.20703l-6.91797 1.23828m5.91407-1.0586l.75781.96485m13.03516-2.46485l-5.86329 3.8789m19.46485-.53124l-6.4375-2.82031m18.79297 4.10156l-4.51563-5.38281M394 438.53125l5.97266 3.70703m-5.10157-3.16797l.08203-1.22265m12.04297 3.72656l6.61328-2.3789m-6.61328 2.3789l-1.8164-1.65234m15.82812 2.8125l5.21875-4.70313m-5.21875 4.70313l-2.3086-.83594m3.06641.15234l-1.15234-.41797m15.03516 2.02344l2.5664-6.54297m-2.5664 6.54297l-2.4375.28125m2.8125-1.23437l-1.21875.14062m13.08593.14453l4.71485-5.21094m-4.71485 5.21094l-2.3828-.59765m3.0664-.16016l-1.1875-.30078m15.1289 1.8086l2.09375-6.70704m-2.09375 6.70703l-2.41015.45313"/><g clip-path="url(#S)"><path fill="none" stroke="#000" stroke-linecap="round" stroke-linejoin="round" stroke-miterlimit="10" stroke-width=".5" d="M147.51172 426.9336l-7.02344.26952"/></g><path fill="none" stroke="#000" stroke-linecap="round" stroke-linejoin="round" stroke-miterlimit="10" stroke-width=".5" d="M147.51172 426.9336l1.23437 2.12109m12.08203-1.89063l-7.02343-.1914m7.02344.1914l1.09375 2.19531m11.95312-.9414l-6.48828-2.69922m6.48828 2.69922l.23047 2.44531m13.07422-2.42578l-6.46875-2.73828m6.46875 2.73828l.21875 2.4414m13.33594-3.28515l-6.94922-1.05078m6.94922 1.05078l.8164 2.3125m12.48828-2.23828l-6.92578-1.19922m6.92578 1.19922L214.80078 430m12.1914-1.27734l-6.20312-3.3086m5.30078 2.82813l-.0039 1.22656m13.9961-.38281l-5.75392-4.03516M239.2461 428.5l-.15234 1.21875m14.3789-.74219l-5.90234-3.8164m5.04297 3.26172l-.10547 1.22265m14.75781-1.82031l-6.85937-1.51172m5.86328 1.29297l.32813 1.17969m14.0664-1.65625l-7.02734-.1211m6.0039.10547l.5586 1.09375m13.76172-.77344l-6.98828-.73047m5.97265.625l.45703 1.13672m13.80079-.60547l-6.84375-1.58203m19.83984 2.44141l-6.20703-3.30078m5.30469 2.82031l-.00391 1.22656m14.61719-2.71484l-7 .63672m5.98047-.54297l.67187 1.02734m13.52734-1.8125l-6.73046 2.01953m13.33984-2.09375l6.6836 2.16797m7.28515 1.1797l5.375-4.52735m-4.58984 3.8711l-1.14063-.45704m15.82422 2.32031l1.07031-6.9414m-.91406 5.93359l-1.16016.40234m11.97657-.84765l5.7539-4.03516M394.94531 428.5l-1.09375-.5586m14.04297 1.6875l4.8125-5.12109m-4.10937 4.375l-1.1836-.32031m12.91407-.25781l6.57812-2.47266m-6.57812 2.47266l-1.83985-1.6211m2.79688 1.26172l-.92188-.8125m14.66406 2.89063l3.8086-5.90625m-3.8086 5.90625l-2.4453-.20703m3-.65235l-1.22266-.10547m14.28125 1.13672l3.21093-6.25m-3.21093 6.25l-2.45313.03125m17.22656.35156l.29297-7.01953m-.29297 7.01953l-2.21093 1.0625"/><g clip-path="url(#T)"><path fill="none" stroke="#000" stroke-linecap="round" stroke-linejoin="round" stroke-miterlimit="10" stroke-width=".5" d="M147.33984 412.66016l-6.67968 2.18359"/></g><path fill="none" stroke="#000" stroke-linecap="round" stroke-linejoin="round" stroke-miterlimit="10" stroke-width=".5" d="M147.33984 412.66016l1.76953 1.70312m11.70313-.94531l-6.9961.67187m5.97657-.57421l.67969 1.02343m13.46875.38672l-6.625-2.34375m5.66015 2.0039l.1836 1.21095m13.42187.27734l-5.27344-4.64453m4.50391 3.96875l-.28125 1.19531m14.4375-.60156l-5.41797-4.47656m4.6289 3.82421l-.24609 1.20313m12.56641.60156l-1.84766-6.78125m1.57813 5.79297l-.89453.83984m13.47656.26954l.15625-7.02344m-.13281 6l-1.09766.55469m15.5664.29296l-2.19921-6.67187m2.19922 6.67187l-1.69922 1.77344m16.35547-2.58203l-4.88281-5.05469m4.8828 5.05469l-.7578 2.33203m13.57812-1.9336l-3.89063-5.85155m3.32422 5l-.58203 1.07812m15.99219-2.6289l-6.94922-1.04688m5.9375.89453l.41016 1.15625m13.8711-2.29687l-6.85548 1.53906m5.85547-1.3164l.80078.92968m11.57813-3.5625l-2.98438 6.35937m2.55078-5.43359l1.22657-.0625m12.05078 2.3164l-.01953-.19921-.0586-.1914-.09375-.1797-.45703-.375-.1914-.05859-.19922-.01953-.20313.01953-.1914.0586-.45704.375-.09375.17968-.05859.1914-.01953.19923.01953.19922.0586.1914.09374.17578.45703.3789.19141.0586.20313.01953.19921-.01953.19141-.0586.45703-.3789.09375-.17578.0586-.1914.01953-.19922m11.79687 3.47656l.9961-6.95313m-.85157 5.94141l-1.15625.41797m13.92578-6.28125l1.79688 6.79687m13.25-6.8125l-1.66797 6.82813m1.42578-5.83594l1.1875-.30078m9.16797.1289l4.73828 5.1875m-4.05078-4.43359l.41406-1.15625m11.70703.97657l5.75 4.03906m-5.75-4.03906l.30079-2.4336m.53515 3.01953l.14844-1.21484m11.90625 1.4375l6.59766 2.42187m-6.59766-2.42187l-.33594-2.42969m1.29688 2.78125l-.33594-2.42969m1.29297 2.78125l-.16406-1.21484m11.35546 1.44531l7.00782.55469m-7.00782-.55469l-.97656-2.25m1.9961 2.33203l-.97657-2.25m1.9961 2.32813l-.48828-1.125m11.95703 2.41406l6.625-2.34375m-6.625 2.34375l-1.8086-1.66015m16.33594 3.30468l4.19922-5.63672m-3.58594 4.81641l-1.21484-.1836m15.71094 1.6875l.60937-7m-.60937 7l-2.25782.95704m16.4336-.98828l-1.11328-6.9375m1.11328 6.9375l-1.95703 1.48047"/><g clip-path="url(#U)"><path fill="none" stroke="#000" stroke-linecap="round" stroke-linejoin="round" stroke-miterlimit="10" stroke-width=".5" d="M147.14453 398.8711l-6.28906 3.13671"/></g><path fill="none" stroke="#000" stroke-linecap="round" stroke-linejoin="round" stroke-miterlimit="10" stroke-width=".5" d="M146.23047 399.32813l.9961.71093m12.33593-2.30078l-4.4961 5.40235m3.84376-4.6172l1.19922.25m14.01562 1.32032l-6.99219.6914m18.02735 2.94923l-2.4297-6.59375m2.07813 5.63671l-.8164.91407m11.28906-.35157l3.96094-5.80468m-3.38672 4.96093l-1.21875-.1328m13.40234.5078l5.07031-4.86718m-4.33203 4.16015l-1.16406-.38281m14.77734 1.83203l3-6.35156m-3 6.35156l-2.45312.11719m16.67969.17187l1.17578-6.92968m-1.0039 5.92187l-1.16407.38672m15.39844.63281l-1.0039-6.95312m.85546 5.9414l-.98828.72657m14.39062.29687l-.8828-6.97265m.8828 6.97265l-2.0039 1.41406m18.21484-3.80468l-6.67578-2.19532m5.70312 1.875l.21094 1.21094m14.25-1.8086l-7.01953-.35937m5.9961.3086l.51953 1.10937m8.84765-4.4336l2.92188 6.39063m8.54687-2.0039l6.61328-2.38282m-5.64843 2.03907l-.91016-.82422m15.76172-3.4414l1.60937 6.83983m-1.375-5.84765l.92188-.8086m11.0625.28125l3.80078 5.91016m-3.2461-5.05078l.59766-1.07031m12.42969.05469l3.26953 6.22265m-2.79297-5.3164l.6914-1.01563m17.06641 1.97656l-6.5703 2.48828m6.5703-2.48828l1.84766 1.61719m11.22266-2.13672l-6.07813 3.52735m6.07813-3.52735l2.08203 1.29297m-2.96875-.78125l2.08594 1.29688m-2.96875-.78516l1.04296.64844m14.08594-1.59375l-6.16797 3.36718m6.16797-3.36718l2.05078 1.34765m-2.94922-.85547l2.05079 1.34766m-2.94922-.85938l1.02734.67579m14.2461-1.3125l-6.4922 2.68359m6.4922-2.6836l1.89453 1.5625m-2.83594-1.17187l.94531.78125m7.0039 1.89063l6.125-3.44141m-5.23437 2.9414l-1.03515-.66406m16.5 2.95704l.04296-7.02735m-.04296 7.02735l-2.17579 1.13671m17.59375-1.82421l-4.16406-5.65625m4.16406 5.65625l-1.05859 2.21484m15.25781-3.16016l-5.93359-3.76562m5.9336 3.76562l-.1875 2.44922m-.67579-2.9961l-.1875 2.44532"/><g clip-path="url(#V)"><path fill="none" stroke="#000" stroke-linecap="round" stroke-linejoin="round" stroke-miterlimit="10" stroke-width=".5" d="M146.19922 384.38281l-4.39844 5.48047"/></g><path fill="none" stroke="#000" stroke-linecap="round" stroke-linejoin="round" stroke-miterlimit="10" stroke-width=".5" d="M145.5586 385.17969l1.20702.23047m11.64844-1.625l-2.19922 6.67578m1.87891-5.70313l1.21094-.21094m9.1836-.20703l4.28515 5.56641m-3.66406-4.75781l.5078-1.11719m10.85938 3.66016l6.9375-1.13672m-5.92578.97265l-.7461-.97656m13.56641 2.47656l5.90235-3.80859m-5.90235 3.8086l-2.14453-1.19532m15.39063 1.08594l6.04297-3.58985m-6.04297 3.58985l-2.09766-1.27344m19.3125 2.8789l-1.75781-6.80077m1.5 5.8125l-.90234.82812m14.46093.16406l-1.73047-6.80859m1.73047 6.8086l-1.8164 1.65234m15.64453-1.82422l-2.7539-6.46485m2.7539 6.46485l-1.54297 1.91015m13.09766-1.64843l.76562-6.98828m-.76563 6.98828l-2.27734.91015m14.71485-1.125l2.51953-6.55859m-2.15235 5.60547l-1.21875.14844m17.01563.66015l-3.17969-6.26953m2.71875 5.35547l-.70703 1.0039m16.33203-3.94921l-6.875 1.44922m6.875-1.44922l1.57422 1.88281m11.74219-1.88281l-6.87891 1.44922m5.8789-1.23829l.78516.94141m13.60547-.3711l-7.02734-.11327m7.02734.11328l1.11328 2.1875m-2.13672-2.20313l1.1172 2.1836m13.16015-1.57813l-6.90625-1.28906m6.90625 1.28906l.73437 2.33985m-1.73828-2.52735l.73438 2.33985m-1.7422-2.52735l.3711 1.16797m14.97657-.92188l-6.94922-1.03125m6.94922 1.03125l.82421 2.3086m-1.83593-2.46094l.82422 2.3125m13.15234-4.28125l-6.25 3.21094m6.25-3.21094l2.01562 1.39844m-2.92578-.9336l2.01563 1.40235m11.82812-2.45703l-5.48828 4.38672m5.48828-4.38672l2.2539.97265m-3.05077-.33593l2.2539.97265m11.90625-1.54687l-5.58203 4.26562m5.58203-4.26562l2.23047 1.01953m-3.04297-.40235l2.23047 1.02344m-3.04297-.40234l1.1172.51172m14.0625-1.39453l-6.0625 3.55468m6.0625-3.55468l2.08984 1.28515m-2.97266-.76953l2.08984 1.28516m-2.97265-.76953l1.04687.64453m14.44922.77734l-6.89453-1.35547m6.89453 1.35547l.71094 2.35156m-1.71094-2.54687l.35547 1.17187m12.20312 1.42579l-3.3789-6.16016m3.3789 6.16015l-1.34375 2.05079m.85157-2.94532l-.67188 1.02344m14.82031-.34375l-4.0625-5.73047m4.0625 5.73047l-1.10156 2.19531m.51172-3.02734l-.55078 1.09766m15.25781-1.0547l-5.66797-4.15233m5.66797 4.15234l-.35156 2.42969m-.47266-3.03125l-.35156 2.42578"/><g clip-path="url(#W)"><path fill="none" stroke="#000" stroke-linecap="round" stroke-linejoin="round" stroke-miterlimit="10" stroke-width=".5" d="M146.17188 371.04688l-4.34375 5.52343"/></g><path fill="none" stroke="#000" stroke-linecap="round" stroke-linejoin="round" stroke-miterlimit="10" stroke-width=".5" d="M146.17188 371.04688l2.41406.42968m-3.04688.3711l1.20703.21875m11.85547-1.52735l-2.57422 6.53906m2.57422-6.53906l2.4375-.27734m-2.8125 1.23047l1.21875-.14063m10.47266-.98437l1.42187 6.88281m-1.42187-6.88281l1.89062-1.5664m-1.68359 2.5664l.94531-.78125m11.72266-.09766l2.30469 6.64063m-2.3047-6.64063l1.66798-1.79687m11.33984 1.92187l2.91797 6.39063m-2.49219-5.46094l.7461-.97656m13.80859 6.75l-.41406-7.01563m.41406 7.01563l-2.09375 1.27734m16.70703-1.60938l-3.00781-6.35156m2.57031 5.42578l-.73437.98438m16.48047-2.92188l-6.9961-.6289m6.9961.6289l.95312 2.26172m-1.96875-2.35156l.47656 1.1289m13.85938-1.625l-7.0039.54688m7.0039-.54687l1.3164 2.0703m-2.33593-1.99218l1.3164 2.07031m13.01563-1.58984l-7.0039-.57031m7.0039.57031l.97265 2.2539m-1.98828-2.33593l.96875 2.25m13.3711-2.26563l-7.01953-.375m7.01953.375l1.03125 2.22657m-2.0547-2.28125l1.03517 2.22656m13.26171-2.92188l-6.9375 1.125m6.9375-1.125l1.48438 1.95313m-2.49219-1.78906l.74219.97656m13.23047-2.19531l-6.23828 3.23437m6.23828-3.23437l2.01953 1.39062m-2.92578-.92187l1.01172.6953m13.3828-.77733l-6.58202 2.46093m6.58203-2.46094l1.83984 1.625m-2.79687-1.26953l1.83593 1.62891m12.60938-.16797l-6.92969-1.17187m6.92969 1.17187l.77344 2.32813m-1.78125-2.5l.38672 1.16796m13.98437-1.43359l-7.02344-.29687m7.02344.29687l1.05469 2.21485m12.21875-2.91407l-6.9414 1.10156m6.9414-1.10156l1.47656 1.95703M359.5 373.41797l.74219.97656m13.26562-2.14062l-6.30469 3.10546m6.3047-3.10546L375.5 373.6875m10.70312-2.3164l-5.0664 4.87109m5.0664-4.8711l2.33204.76563m-3.06641-.05469l1.16406.38281m12.69922-1.27343l-4.6914 5.23437m4.6914-5.23437l2.38281.58984m-3.0664.17188l2.38281.58984m12.35937-.40625l-6.17968 3.34375m6.17968-3.34375l2.04688 1.35547m-2.94531-.8711l2.04297 1.35547m12.57812-.50781l-6.99219.67969m6.9922-.67969l1.35546 2.04688m-2.3711-1.94922l1.35547 2.04687m12.81641-.70703l-6.67578-2.19531m6.67578 2.19531l.41797 2.41797m-1.39063-2.73828l.21094 1.20703m12.64844.96484l-3.82031-5.89844m3.82031 5.89844l-1.1914 2.14453m.63671-3.0039l-.59765 1.07422m15.1914-.83594l-5.26562-4.65625m5.26562 4.65625l-.57422 2.38281m-.1914-3.0625l-.57422 2.38672"/><g clip-path="url(#X)"><path fill="none" stroke="#000" stroke-linecap="round" stroke-linejoin="round" stroke-miterlimit="10" stroke-width=".5" d="M144.8789 357.08984l-1.7578 6.8047"/></g><path fill="none" stroke="#000" stroke-linecap="round" stroke-linejoin="round" stroke-miterlimit="10" stroke-width=".5" d="M144.8789 357.08984l2.38673-.5703M159.5 357.74218l-4.3711 5.5m4.3711-5.5l2.41406.44531m11.3086-.0664l-5.1875 4.74218m5.1875-4.74219l2.3125.82422m-3.06641-.13281l2.3125.82031m12.61328.1836l-6.89844 1.35546m6.89844-1.35546l1.54688 1.90234m-2.55078-1.70703l1.54687 1.90625m-2.55078-1.70703l1.54687 1.90234m13.8125-2.0625l-6.97265.88281m6.97265-.8828l1.41407 2.0039m-2.4297-1.875l1.41798 2.0039m-2.42969-1.875l1.41406 2.00391m-2.42969-1.875l.70704 1m15.64453-.46094l-6.96094-.96875m6.96094.96875l.84375 2.30469m-1.85547-2.44531l.84375 2.30469m-1.85547-2.44532L212.87109 363m14.51953-2.22266l-7.0039-.5664m7.0039.5664l.97657 2.25m-1.99219-2.33203l.97266 2.25m-1.9922-2.33594l.97267 2.25391m14.38671-2.22265l-7.01953-.29297m7.01953.29296l1.0625 2.21094m-2.08203-2.2539l1.0586 2.21093m-2.08203-2.2539l.53125 1.10547m14.8164-1.48047l-7 .625m7-.625l1.33984 2.05469M253 360.26952l1.34375 2.0586m12.92969-2.56641l-6.875 1.46484m6.875-1.46484l1.57812 1.875m-2.57812-1.66406l.78906.9414m13.53125-1.125l-6.88672 1.40625m6.88672-1.40625l1.5625 1.89063m-2.5664-1.6875l.78124.94922m13.42188-1.58204l-6.65235 2.26563m6.65235-2.26563l1.78906 1.6836m-2.75781-1.35156l.89453.83984m13.3789-1.19922l-6.6328 2.32031m6.6328-2.3203l1.80079 1.66405m-2.76563-1.32421l.90235.83203m13.55078-.4297l-6.98047.83595m6.98047-.83594l1.39843 2.01562m-2.41406-1.89062l1.39844 2.01172m12.83594-2.63281l-6.78516 1.82812m6.78516-1.82813l1.67578 1.79297m-2.66406-1.52734l.83593.89844m13.1875-1.875l-6.22656 3.2539m6.22656-3.2539l2.02344 1.38281m11.11328-1.6914l-5.8711 3.86718m5.8711-3.86719l2.15235 1.17579m10.94921-1.46485l-5.4414 4.44922m4.64844-3.80078l1.1328.47265m12.4297-1.65625l-4.35157 5.51954m4.35157-5.51954l2.41406.4375m10.78515-.52734l-4.12109 5.69531m4.1211-5.6953l2.42968.33983m-3.03125.4922l1.21485.16796m12.44921-1.16406l-3.61718 6.02344m3.61718-6.02344l2.45313.1289m-2.97656.75l1.22265.0625m13.63282-.01953l-5.64844 4.1797m5.64844-4.1797l2.21484 1.0547m-3.03906-.44532l1.10937.52734m13.57422-.04297l-6.73828 1.9961m6.73828-1.9961l1.71875 1.75m-2.69922-1.46093l.85938.875m13.25 1.3164l-6.36719-2.96875m6.36719 2.96875l.1289 2.45313m-1.05468-2.88281l.0664 1.22265m13.0625.5625l-4.14453-5.67578m4.14453 5.67578l-1.07031 2.20703m.46875-3.03515l-.53516 1.10546"/><g clip-path="url(#Y)"><path fill="none" stroke="#000" stroke-linecap="round" stroke-linejoin="round" stroke-miterlimit="10" stroke-width=".5" d="M144.20703 343.67188l-.41406 7.01171"/></g><g clip-path="url(#Z)"><path fill="none" stroke="#000" stroke-linecap="round" stroke-linejoin="round" stroke-miterlimit="10" stroke-width=".5" d="M144.20703 343.67188l2.23047-1.02344"/></g><path fill="none" stroke="#000" stroke-linecap="round" stroke-linejoin="round" stroke-miterlimit="10" stroke-width=".5" d="M159.29297 344.27344l-3.95703 5.8086m3.95703-5.8086l2.4375.26953m11.73828.5625l-5.67578 4.14453m5.67578-4.14453l2.20703 1.07031m-3.03516-.46484l1.10547.53515m13.48438-.30859l-6.57031 2.48047m6.5703-2.48047l1.84376 1.6211m-2.79688-1.26173l1.83985 1.6211m-2.79688-1.25781l.92188.80859m14.4961-.78516l-6.95704.98829m6.95703-.98829l1.44531 1.98047m-2.45703-1.83594l1.44531 1.98047m-2.45703-1.83593l.72266.98828m14.60938-1.32422l-6.94532 1.08203m6.94531-1.08203l1.47266 1.96484m-2.48437-1.80469l1.47265 1.96094m-2.48047-1.80469l.73438.98047m14.61328-1.21875l-6.96875.92579m6.96875-.92579l1.42578 1.9922m-2.4414-1.85938l1.42968 1.99609m-2.4414-1.85938l.71093.9961m14.6211-1.32031l-6.94922 1.03515m6.94922-1.03515l1.46094 1.97265m-2.47266-1.82031l1.46094 1.97266m-2.46875-1.82422l.72656.98828m14.5586-1.55469l-6.85157 1.5664m6.85156-1.5664l1.60547 1.85938m-2.60156-1.62891l1.60547 1.85547m-2.60156-1.6289l.80078.92968m14.23047-2.16406l-6.29688 3.1211m6.29688-3.1211l1.99218 1.42969m-2.91015-.97657l1 .71485m12.54297-2.1172l-4.91797 5.01954m4.91797-5.01953l2.35156.6914m11.6875.32813l-6.36328 2.98438m6.36328-2.98438l1.96094 1.47266m11.68359.01953h-7.02734m7.02734 0l1.15234 2.16406m12.1211-2.71094l-6.94141 1.08985m6.9414-1.08985l1.47266 1.96094m-2.48047-1.80078l.73438.98047m13.45312-1.70703l-6.66796 2.22265m6.66796-2.22265l1.77735 1.6914m-2.75-1.36719l1.77734 1.69141m12.5625-1.83984l-6.77344 1.8711m6.77344-1.8711l1.6875 1.78125m-2.67187-1.50781l.84375.89062m13.45703-1.15234l-6.77735 1.84765m6.77735-1.84765l1.6836 1.78906m11.73827-1.22266l-6.99218.71485m5.97656-.60938l.67969 1.01953m13.62109-1.33594l-6.9336 1.14063m5.92579-.97656l.74609.97656m13.07031-2.46484l-5.91797 3.78515m5.91797-3.78515l2.13672 1.20312m10.23047-2.1914l-4.02344 5.76171m4.02344-5.76171l2.4375.29687m10.99219-.21094l-4.2539 5.58985m4.2539-5.58985l2.42187.39453m-3.03906.41797l1.21094.19922m13.58984-.0586l-5.98828 3.6836m5.98828-3.6836l2.11328 1.2422m11.72266.6328l-7.02734-.0625m7.02734.0625l1.1289 2.17579m11.87891-.77344l-6.41406-2.8711m6.41406 2.8711l.16406 2.44922m-1.09765-2.86719l.08203 1.22656"/><g clip-path="url(#aa)"><path fill="none" stroke="#000" stroke-linecap="round" stroke-linejoin="round" stroke-miterlimit="10" stroke-width=".5" d="M147.25781 332.55078l-6.51562 2.625"/></g><path fill="none" stroke="#000" stroke-linecap="round" stroke-linejoin="round" stroke-miterlimit="10" stroke-width=".5" d="M147.25781 332.55078l1.8789 1.58203m11.47267-1.48828l-6.58985 2.4375m6.58984-2.4375l1.83204 1.6289m10.73828-2.82812l-5.09766 4.83594m5.09766-4.83594l2.32422.77735m10.75-1.00782l-4.6211 5.29688m4.6211-5.29688l2.39062.5586m12.08203 1.5039l-6.92969 1.16797m6.9297-1.16797l1.49609 1.94532m-2.50782-1.77344l.75.97265m13.61328-.30468l-7.0078-.50781m7.0078.5078l.9961 2.2422m-2.01563-2.31641l.9961 2.24219m13.32422-2.83985l-6.97657.83594m6.97657-.83594l1.40234 2.01563m-2.41797-1.89453l1.40234 2.01562m12.70313-3.02344l-6.52734 2.60938m6.52734-2.60938l1.875 1.58204m-2.82422-1.20313l1.875 1.58594m12.38672-1.96485l-6.52344 2.60938m6.52344-2.60938l1.875 1.58204m-2.82422-1.20313l1.875 1.58594m12.32813-2.11328l-6.39844 2.90625m6.39844-2.90625l1.9453 1.49609m-2.875-1.07422l.97267.75m13.35546-.97265l-6.5664 2.5078m6.5664-2.5078l1.84766 1.60937m11.67969-.69531l-6.99219.67969m6.99219-.6797l1.35937 2.04688m11.96485-1.94922l-7.00782.48438m7.00782-.48438l1.30078 2.08204m11.44531-3.76954l-5.8711 3.85938m5.8711-3.85938l2.15234 1.1797m10.8711-1.56642l-5.28516 4.63282m5.28516-4.63281l2.29297.87109m-3.0625-.19531l1.14843.43359m12.78516-1.26953l-4.98438 4.95312m4.98438-4.95312l2.34375.72265m-3.07031-.0039l1.17187.36328m13.79688.58594l-6.83985 1.61719m5.84375-1.38282l.8086.92188m8.57031 2.82422l3.02734-6.34375m-2.58984 5.41796l-1.22266.0547M386.5 331.78124l-5.66016 4.16406m4.83985-3.5586l1.10547.53126m11.33984-2.3789l-2.27734 6.64843m1.9453-5.67969l1.21095-.19531m14.35937.82422l-6.1211 3.45312m5.23048-2.94921l1.03125.66015m13.28515-.94922l-6.34375 3.02344m6.34375-3.02344l1.97266 1.46094m11.41015-1.3086l-6.48046 2.71876m6.48046-2.71875l1.89844 1.55078m11.6875-.03906l-7.01953-.3086m7.01953.3086l1.05469 2.21875m-2.07813-2.26172l.52735 1.10546m13.8125-1.07421l-7.02344-.28125"/><g clip-path="url(#ab)"><path fill="none" stroke="#000" stroke-linecap="round" stroke-linejoin="round" stroke-miterlimit="10" stroke-width=".5" d="M467.07422 334.0039l1.0625 2.21094"/></g><path fill="none" stroke="#000" stroke-linecap="round" stroke-linejoin="round" stroke-miterlimit="10" stroke-width=".5" d="M466.05078 333.96094l.53125 1.10547"/><g clip-path="url(#ac)"><path fill="none" stroke="#000" stroke-linecap="round" stroke-linejoin="round" stroke-miterlimit="10" stroke-width=".5" d="M147.16797 319.03125l-6.33594 3.03125"/></g><path fill="none" stroke="#000" stroke-linecap="round" stroke-linejoin="round" stroke-miterlimit="10" stroke-width=".5" d="M147.16797 319.03125l1.97656 1.45703m-2.89844-1.01562l1.97657 1.45703m12.1953-2.02735l-6.20702 3.28907m6.20703-3.28907l2.03516 1.375m-2.9375-.89453l1.01562.6875m11.25-2.84375l-2.30078 6.64063m1.96484-5.67188l1.21094-.1914M187.42969 321l-6.96875-.90234m5.95312.76953l.4336 1.14844m13.92578-1.34375l-7.02344-.2461m7.02344.2461l1.07422 2.20312m-2.09766-2.24219l.53906 1.10547m13.79688-1.28125l-7.02344.17969m7.02344-.17969l1.20703 2.13672m-2.22656-2.10938l1.20703 2.13672m12.97265-3.11328l-6.71093 2.08203m6.71093-2.08203l1.7422 1.72656m-2.71876-1.42578l1.74219 1.73047m12.58984-1.88672l-6.79297 1.78907m6.79297-1.78907l1.66797 1.8047m-2.65625-1.54298l1.66797 1.80078m12.66797-1.9414l-6.85547 1.54687m6.85547-1.54687l1.59766 1.85937M252.94922 320l.80078.92969m13.48828-1.25781l-6.80469 1.7539m6.8047-1.7539l1.65624 1.80859m-2.64844-1.55469l.82813.90625m13.4336-1.32031l-6.71485 2.07031m6.71484-2.07031l1.73828 1.73047m-2.71484-1.42969l.8711.86719m13.55468-.52735l-6.98047.79297m6.98047-.79297l1.39063 2.01954m-2.40625-1.90625l.6953 1.01171m13.63282-.30468l-6.97656-.84766m6.97656.84766l.88281 2.28906m12.16797-4.11328l-6.44922 2.79687m6.44922-2.79687l1.91797 1.52734m-2.85547-1.1211l.95703.76563m12.96875-1.76172l-5.79296 3.98047m5.79296-3.98047l2.17579 1.13282m-3.01954-.5547l1.08594.56642m12.77735-1.51563l-5.20313 4.72266m5.20313-4.72266l2.30859.82813m-3.0664-.14063l1.15624.41406m12.39453-1.57422l-4.16015 5.66407m4.16015-5.66407l2.42579.35547m-3.03125.46875l1.21484.17578m13.8086.34766l-6.3672 2.97266m5.44141-2.54297l.98047.73828m12.76172-1.94922l-5.36719 4.53516m5.36719-4.53516l2.27734.91016m10.54688-1.39063l-4.38672 5.49219m4.38672-5.49219l2.41015.45313m7.4922-1l2.4414 6.58984m-2.08594-5.63281l.8125-.91406m15.21484 6.23828l-3.69921-5.97657m18.24609 4.6797l-6.16016-3.38282m6.16016 3.38281l-.03125 2.45313m13.7461-4.62891l-6.96094.96875m6.96093-.96875l1.4414 1.98828m-2.45312-1.84765l.71875.99609m13.4961-1.64844l-6.73828 1.9961"/><g clip-path="url(#ad)"><path fill="none" stroke="#000" stroke-linecap="round" stroke-linejoin="round" stroke-miterlimit="10" stroke-width=".5" d="M466.92969 319.55078l1.72265 1.75"/></g><path fill="none" stroke="#000" stroke-linecap="round" stroke-linejoin="round" stroke-miterlimit="10" stroke-width=".5" d="M465.94922 319.83984l.85937.875"/><path fill="#00f" fill-rule="evenodd" d="M401.55469 458.77344h8.61719V448.625h-8.6172v10.14844"/><path fill="azure" fill-rule="evenodd" d="M403.38672 450.45703h.83203v2.82422h3.28906v-2.82422h.83203v6.48047h-.83203v-2.91406h-3.28906v2.91406h-.83203v-6.48047"/><path fill="#ff3030" fill-rule="evenodd" d="M322.35938 441.01953h7.6914V430.8711h-7.6914v10.14844"/><path fill="azure" fill-rule="evenodd" d="M324.1914 432.70703h.83204v5.73828h3.19531v.73828h-4.02734v-6.47656"/><path fill="#ff3030" fill-rule="evenodd" d="M189.20703 427.70313h7.6914v-10.14454h-7.6914v10.14454"/><path fill="azure" fill-rule="evenodd" d="M191.03906 419.39063h.83594v5.73828h3.1914v.74218h-4.02734v-6.48046"/><path fill="#ff3030" fill-rule="evenodd" d="M291.28906 405.51172h7.6914v-10.14453h-7.6914v10.14453"/><path fill="azure" fill-rule="evenodd" d="M293.1211 397.19922h.83593v5.73828h3.1914v.74219h-4.02734v-6.48047"/><path fill="#00f" fill-rule="evenodd" d="M197.39063 396.63281h8.61718v-10.14453h-8.61719v10.14453"/><path fill="azure" fill-rule="evenodd" d="M199.22266 388.32031h.83203v2.82422h3.28515v-2.82422h.83594v6.48047h-.83594v-2.91406h-3.28515v2.91406h-.83203v-6.48047"/><path fill="#ff3030" fill-rule="evenodd" d="M424.4414 396.63281h7.69141v-10.14453h-7.6914v10.14453"/><path fill="azure" fill-rule="evenodd" d="M426.27344 388.32031h.83203v5.74219h3.19531v.73828h-4.02734v-6.48047"/><path fill="#00f" fill-rule="evenodd" d="M459.2539 392.19531h8.6172v-10.14453h-8.6172v10.14453"/><path fill="azure" fill-rule="evenodd" d="M461.08594 383.88281h.83203v2.82422h3.28515v-2.82422h.83594v6.48047h-.83594v-2.91406h-3.28515v2.91406h-.83203v-6.48047"/><path fill="#ff3030" fill-rule="evenodd" d="M193.64453 356.6875h7.69531v-10.14453h-7.6953v10.14453"/><path fill="azure" fill-rule="evenodd" d="M195.47656 348.375h.83594v5.74219h3.1914v.73828h-4.02734V348.375"/><path fill="#ffffe0" fill-rule="evenodd" d="M304.13281 339.16797h22.17969v-10.1914h-22.17969v10.1914"/><path fill-rule="evenodd" d="M307.63281 330.8086h.50781v6.29296h-.78515v-4.48828h-1.39063v-.55469l.5625-.0664.25-.05469.23047-.08594.20313-.14453.17578-.20703.14062-.29688.10547-.39453m4.8125 0l.23047.01954.21875.05468.20703.08985.19531.12109.1875.14844.16797.17578.3047.42187.24218.4922.17969.54687.11328.57812.03515.58985-.03515.59375-.11328.58593-.1797.55469-.24218.5-.30469.42969-.16796.17969-.1875.15234-.19532.125-.20703.08984-.21875.0586-.23047.01953-.23047-.01953-.21875-.0586-.20703-.08984-.19531-.125-.1836-.15235-.17187-.17968-.30078-.42969-.2461-.5-.17968-.55469-.10938-.58594-.03906-.59375h.83203l.03125.56641.08203.5039.125.44141.16016.375.1914.30079.21094.22265.22266.13672.22656.04688.22656-.04688.22266-.13672.21094-.22265.1914-.30079.16016-.375.1289-.4414.08204-.5039.02734-.56642-.02734-.55859-.08203-.5-.1289-.4375-.16017-.36719-.1914-.28906-.21094-.21484-.22265-.13281-.22657-.04297-.22656.04296-.22266.13282-.21093.21484-.19141.28906-.16016.3672-.125.4375-.08203.5-.03125.55858h-.83203l.03906-.58984.10938-.57812.17969-.54688.24609-.49219.30078-.42187.17188-.17578.18359-.14844.19531-.1211.20703-.08984.21875-.05469.23047-.01953m5.09375 0h.50781v6.29297h-.78906v-4.48828h-1.38672v-.55469l.5586-.0664.2539-.05469.23047-.08594.20313-.14453.17187-.20703.14063-.29688.10937-.39453m2.82031 2.17579h.78907l.01953-.31641.0586-.28516.09765-.2539.14062-.21485.1836-.17578.22265-.1289.26563-.07813.3086-.02734.23437.01953.22656.0625.20313.10156.17968.14063.14844.17187.11328.20703.07031.23438.02735.26562-.02344.26953-.0664.22266-.10938.1914-.15625.17188-.19922.16406-.2461.16406-.63671.39063-.53516.3125-.4375.3164-.34765.32423-.26172.33593-.19141.35156-.125.3672-.07031.39452-.01953.41797h4.21093v-.73828h-3.33203l.08203-.28515.11329-.23829.14843-.19921.1875-.1797.23047-.17187.28125-.17578.71485-.41797.41406-.20312.34765-.23047.28125-.2539.21875-.26563.16407-.27735.10937-.28515.0664-.28516.01954-.28125-.04297-.38281-.1211-.34766-.1875-.3086-.25-.26171-.30077-.21484-.34766-.15625-.3789-.09766-.40626-.03516-.4375.03125-.39844.10157-.35546.16406-.3047.23437-.24608.3047-.1875.375-.11329.4453-.04296.51954"/></g></defs><use xlink:href="#ae"/></svg>