<svg xmlns="http://www.w3.org/2000/svg" role="img" xmlns:xlink="http://www.w3.org/1999/xlink" viewBox="142.45 309.95 326.84 171.84"><defs><clipPath id="a"><path d="M144 311.67188h1v168.65625h-1zm0 0"/></clipPath><clipPath id="b"><path d="M144 311.67188h324v168.65625H144zm0 0"/></clipPath><clipPath id="c"><path d="M467 311.67188h1v168.65625h-1zm0 0"/></clipPath><clipPath id="d"><path d="M144 478h4v2.32813h-4zm0 0"/></clipPath><clipPath id="e"><path d="M154 477h7v3.32813h-7zm0 0"/></clipPath><clipPath id="f"><path d="M167 478h7v2.32813h-7zm0 0"/></clipPath><clipPath id="g"><path d="M180 478h8v2.32813h-8zm0 0"/></clipPath><clipPath id="h"><path d="M194 477h6v3.32813h-6zm0 0"/></clipPath><clipPath id="i"><path d="M207 477h7v3.32813h-7zm0 0"/></clipPath><clipPath id="j"><path d="M220 478h8v2.32813h-8zm0 0"/></clipPath><clipPath id="k"><path d="M236 476h3v4.32813h-3zm0 0"/></clipPath><clipPath id="l"><path d="M248 477h5v3.32813h-5zm0 0"/></clipPath><clipPath id="m"><path d="M260 477h7v3.32813h-7zm0 0"/></clipPath><clipPath id="n"><path d="M276 476h3v4.32813h-3zm0 0"/></clipPath><clipPath id="o"><path d="M289 476h2v4.32813h-2zm0 0"/></clipPath><clipPath id="p"><path d="M303 476h2v4.32813h-2zm0 0"/></clipPath><clipPath id="q"><path d="M316 476h2v4.32813h-2zm0 0"/></clipPath><clipPath id="r"><path d="M329 476h3v4.32813h-3zm0 0"/></clipPath><clipPath id="s"><path d="M342 476h4v4.32813h-4zm0 0"/></clipPath><clipPath id="t"><path d="M353 479h8v1.32813h-8zm0 0"/></clipPath><clipPath id="u"><path d="M359 480h2v.32813h-2zm0 0"/></clipPath><clipPath id="v"><path d="M366 480h9v.32813h-9zm0 0"/></clipPath><clipPath id="w"><path d="M372 480h2v.32813h-2zm0 0"/></clipPath><clipPath id="x"><path d="M380 478h7v2.32813h-7zm0 0"/></clipPath><clipPath id="y"><path d="M395 476h4v4.32813h-4zm0 0"/></clipPath><clipPath id="z"><path d="M406 480h9v.32813h-9zm0 0"/></clipPath><clipPath id="A"><path d="M420 478h7v2.32813h-7zm0 0"/></clipPath><clipPath id="B"><path d="M434 477h6v3.32813h-6zm0 0"/></clipPath><clipPath id="C"><path d="M446 478h8v2.32813h-8zm0 0"/></clipPath><clipPath id="D"><path d="M460 477h7v3.32813h-7zm0 0"/></clipPath><clipPath id="E"><path d="M144 464h3v6h-3zm0 0"/></clipPath><clipPath id="F"><path d="M144 450h2v8h-2zm0 0"/></clipPath><clipPath id="G"><path d="M144 439h4v3h-4zm0 0"/></clipPath><clipPath id="H"><path d="M144 426h4v2h-4zm0 0"/></clipPath><clipPath id="I"><path d="M144 413h4v2h-4zm0 0"/></clipPath><clipPath id="J"><path d="M144 399h4v3h-4zm0 0"/></clipPath><clipPath id="K"><path d="M144 385h4v5h-4zm0 0"/></clipPath><clipPath id="L"><path d="M144 370h3v8h-3zm0 0"/></clipPath><clipPath id="M"><path d="M144 356h2v9h-2zm0 0"/></clipPath><clipPath id="N"><path d="M144 363h2v3h-2zm0 0"/></clipPath><clipPath id="O"><path d="M465 357h3v3h-3zm0 0"/></clipPath><clipPath id="P"><path d="M144 343h2v8h-2zm0 0"/></clipPath><clipPath id="Q"><path d="M466 344h2v3h-2zm0 0"/></clipPath><clipPath id="R"><path d="M144 331h3v6h-3zm0 0"/></clipPath><clipPath id="S"><path d="M465 331h3v2h-3zm0 0"/></clipPath><clipPath id="T"><path d="M144 318h4v5h-4zm0 0"/></clipPath><clipPath id="U"><path d="M465 317h3v2h-3zm0 0"/></clipPath><g id="V" clip-path="url(#clip1)"><path fill="#fff" fill-opacity="0" fill-rule="evenodd" d="M0 0h1000v1000H0zm0 0"/><path fill="#d3d3d3" fill-opacity="0" fill-rule="evenodd" d="M162.15234 355.86719l-.23437.29297.0586.23437.11718.17188.17578.23437.29297.34766.11328.0586.11719-.17188.0586-.23438.17577-.17578.46485-.17578h.69922l.23437.29297.28906.8164.0586.17579.17578.23046.35156.23438.69922.69922.17188.17578.23437.34765.23438.41016.28906.58203.41015.46485.23047.23437.23438.17578.11719.23047.17578.29297.17187 1.16406v.23438l.0586.28906.05859.11719.11719.11719.34765.41015.11719.17188.17578.17578.17578.23437.11719.17188.17188.35156.05859.23438.23437.40625.23438-.0586-.17578.17578-.0586.92969h-.58203l-.23437-.11328-.34766.11328-.11719.11719-.05859.29297-.0586.17578-.11718.17187-.46484.29297-.0586.23438-.0586.11328v.64453l.0586.17187v.41016l.0586.0586v.40624l.05859.40625.11719.17579.05859.05859.23047.64062-.0586.29297v.69922l-.05859.58203v.23438l-.0586.23047-.05468.35156v1.92187l.05469.1172h.42578l-.36719.11718-.02344.35156.89063 1.16797 1.74219.53906 1.33984.35938v.53906l.08984.8086.53516.71484 1.51953.26953.89063-.08594.08984 1.16406.53516.1797 1.16015-.1797 2.05469-.98437 1.16016-.36328 1.8789-.17578 1.69531-.1797-.17968.71876-1.51563.08594-1.25.08984-.80469.26953-1.07421.8086.26953.71875.53515.89843-.17968.625-.26563.8086.26563 1.07812.625.89844.80468.17969 1.25-.1797-.26562.72267.09766.5039.05468.29297v.17188l.0586.29296v.40625l.17578.1172.35156.11718h.40625l.29297-.17578.11328-.11719.0586-.11719.11718-.23047.0586-.17578.35156-.46484.23047-.17578.17578-.0586.17578.0586.0586.17578.11718.98828.05469.46875.0586.17188.11718.23437.17578.0586.8164.05859h.28907l.11719.23437.05859.40625.0586.35156v1.10547l.11718.29297.11719.34766.28906.69922.17578.35156.58203.7539.35157.17579.17187.0586.46875.23437.64063.46484.34765.23438.29297.17578.29297.05468.23047.0625.8164.34766.29297.17578.11328.17188.35157.35156.11719.17578.52343.64063v.28906l.0586.35156v.34766l.05859.35156.0586.28906.11718.0586.17188.05859h.17578l.58203.23437.17578.1172.17578.28905.17578.23438.11328.23437.29297.23047.11719.11719v.41016l.0586.05468.28906.23438.23437.11719.0586.11718.11718.17188.0586.11719.23047.23437.05859.17578.23437.0586.1172.05859-.1172.11328-.05859.11719v.11719l-.11719.29296-.11719.28907v.58203l.17579.11719.11718.05859.0586.11719.11719.11719.11328.05859.17578.34765.0586.35157.05858.40625v.17578l-.05859.17578-.11719.69922v.17187l.1172.17579.29296.29296h.40625l.17578.1172.11719.17187.11719.29296v.23438h-.52735l-.23047-.23438h-.23437l-.17578.0586-.0586.69922.0586.34765.11719.17579.17578.41015.11718.23047.28907.46875.17578.05469h.52344l.23437.0586.75781.64062.0586.29296v.23438l.05859.0586.23047.34765v.35156l-.11719.17188v.29297l.29297.28906.29297.17578.17187.0586.29297.17577.29297.1172.58203.40624.28906.23438.29297.17578.21875.16015.01563.01172.23047.17579.64062.52343.17578.23438.1172.17578.17577.17578.11328.17188v.64062l.1172.17578.46874.11719.58203.11719.23438.05859.23047.11328.29297.11719.11328.0586.58593.35156.28907.17187.17578.0625.17578.05469.17578.0586.69922.35155.28906.17579.23438.05468.28906.17578.23437.1172.64063.40624.29297.11719.17187.0586.23438.05859.41015.05859.23047.0586.23438.11718.0586.17188-.41017.17578.46875.0586.0586.29296.11328.23438.17578.05468.23438.0586.17578.05859.40625.11719.64062.23437.11719.17188.0586.23437v.17578l-.0586.1172-.0586.40624.23438.23438.11719.05859.34766.11719.64062.23047.17578.11718.28906.1172.17578.17577.23438.46485.58203 1.10546.17578.17579.34766.17578.17578.11719.35156.11718 1.04688.52344.23437.0586.46485.11327.29297.0586.46484.17578.75781.58203.23438.23438.34765.46484.17578.17578.28907.23438.8164.69921.29297.17579.28906.28906.29297.17578.29297.28906.69531.64063.17578.17578.29297.23437.28907.23438.46875.28906.64062.58203.34766.23438.23437.29297.34766.34765.35156.46485.9336.99218.34765.40625.11719.17579.23437.05859.11328.11719.64454.17578.23047.11328.23437.0586.29297.17577.23047.1172.9336.69921.40624.40625.23438.17578.40625.17578.23437.11719.8164.34766.34766.23437.23438.11719.29297.28906.23047.11719.7578.35156.35157.17188.23047.05859.29297.11719.23437.0586.8711.17577h.8164l.46875.23047.17188.0586.875.69921.46484.1172.29297.05858.17578.0586.23047.0586.46875.05859.34766.05859.35156.0586.40625.05859h.29297l.17187.0586v.23046l.17578.17578h.29297l.34766.0586.35156.05859.69922.11719h.64063l.46484-.23438.29297-.17578.17187-.11719.41016-.17187.28906-.17578.9336-.46485.46875-.29297.52343-.29296.46485-.17188.46484-.17578 1.05078-.46485.28906-.11718.41016-.11719.28906-.11719.52735-.17578 1.51562-.69922.58203-.34765.28907-.0586.29297-.0586.34765-.11718.875-.23047.35156-.11719h.11329l.23437-.05859.875-.23437.23438-.0586h.8125l.35156-.0586.8164-.11718.17188-.0586.35156-.05468.29297-.0586.23047-.05859.8164-.17578.17579-.0586h.34765l.23438-.05859.46484-.11718.75781-.17188.23438-.0586h.34765l.41016-.11718.28906-.0586 1.28516-.05859h.28906l.41016-.0586.23047-.05858h.17578l.875-.1172h.40625l.41015-.11718h.34766l.35156-.11328.8711-.0586h1.75l1.04687.28907.41016.11719.28906.11718.35156.11719.28907.11719 1.05078.17187.28906.0586h.29297l.29297.05859.17187.0586.41016.05859.17187.0586.1172.05858h.11718l.11719.0586.35156.0586h.11328l.41016.0664 1.92187.39453 1.92578.39453 1.51953.44922 1.69532.71875 2.14453.80469 1.60547-.71875 1.42968-.80469 1.16016-1.07813 1.25-.44921 3.03516-.71875 1.875-.35938 2.14453-1.34765 2.23437-1.25391 2.5-1.25781 1.69531-.44922 1.78516-.17969 1.16016-.26953.625.53906 1.33984-.26953.71485-.98828.98437-1.34375.44531-.17969.80469-.35937 1.875-.53907 1.78516-.44921 1.25-.26954 1.16015-.08984 1.69922-.08984 1.96094-.26954 1.25-.08984h.53906l.625-.08984h.89063l2.14453-.17969 2.41015-.17969 2.58985-.08984 1.69531.17969 1.60938.08984 1.42968.35938 1.16016.71875 1.875.98828 1.16015 1.52734.26563.71484.6289.08985.35548.89844.53515.53906.53516 1.52734 1.07422.35938h.53515l-.80469.53515.08985 1.70703.71484 2.69532.89063.80468.89453.98829.71484 1.2578 1.78516.53907 1.51953-.17969.35547 1.34375 1.60937-.80469.98047-.53906.26953.26953.31641-.21484.21875-.14453.80078.44922.44922-.35938h.35547l.53515-.26953.53907-.71875.53515-.26953.625-.98828 1.16016.44922.83984.3711 1.39454.61718 1.6953-.17969h1.60548l1.78515.08985.17969-1.70704.53516-1.34375.80468.26954.4922.84765.40233.40625-.08984.53906v.35938l.71485.44922.71093-.26953h1.42969l.35938.98828.4453 1.25781.71485 1.34375 1.25.6289 1.69531.62891.71485-.17969.17969-.53906.98046-.08984.44922.35937.08594 1.25782-.26563.6289-.53515.17969v.53906l.71484.98438.26563.53906.98437.98828.80078 1.07813-.26562.35937-.08985.89844-.625 2.33203-.35546 2.0664-.08985 1.79298-.17969.71875-.08984.53906v1.4375l-.98047 1.88281-.35937 1.70703-.53516.89844-.80469 1.16797-.26562.53906 2.05469 1.2539.08593.35938-.35546.53906-.08985-.17968v.80859l.08985 1.4375-.44532.71484-1.07422.09375-.26562.71485.53515.89844.8047.71875 1.16015.80859 1.33984.26953.44531.35938-.35546.44921-1.78907-.08984-1.25-.44922-.71484-.71875-.625-.08984-.17578 3.58984-.1875 1.3086h89.35937V311.70313h-55.26953v49.08203l.76172.125 3.28906.54296 2.02344 2.83594v2.7539l2.35156.33204 2.34766.33203h4.05078l-1.3789 4.16016-2.02344.70703-2.02344.70312-.54297.34375-2.59375 1.6172-.1875.11718-2.02344-2.07813-.73046-2.74218-2.67188-2.07813-1.375-3.5-.0664-.08203-1.95704-2.67188 2.75-1.41796v-49.08204H294.42187v91.41407l.1172.03125.1328.01172.07422.07421.10547.04688.08985.0586.08593.05859.08985.0586.29687.29687.0586.08984.03125.11719.02734.11719.01563.13671-.03125.1172-.0586.08983-.0586.08594-.04296.10547-.04688.10156-.02734.1211v.14453l.17578.26953.14844.14844.07422.08594.07422.07421.04296.10547.0625.08985.0586.08593.04297.10547.0586.08985.04687.10156.04296.10547.0586.08594.11719.17968.07421.07422.0625.08594.0586.08984.04297.10547.0586.08985.05858.08593.0625.08985.0586.08984.04297.10156.11719.17969.07421.07422.0586.08594.07422.07421.08984.0586.10547.04687h.14844l.1328-.01562.13282.01562.10156-.04687.07422-.07422.04688-.10156-.01563-.13281v-.14844l-.04687-.10547-.02735-.11719-.04687-.10156-.02735-.1211-.04296-.10156-.0625-.08984-.04297-.10156-.04297-.10547-.03125-.11719-.01563-.13281-.01171-.13672.08593-.0586.0586-.08593.12109-.03125.04297.10547.01562.1328v.1172l.0586.10156.0586.08984.08983.0586.14844.14843.0586.08985.04296.10547-.01171.10156.08593.0586.10547.04687.08594.0586.08984.05858.07422.07422-.11719.02735-.10546.04687-.08594.0586-.07422.07421-.0586.08985-.0625.08594-.02734.12109-.04687.10156-.04297.10547-.03125.11719-.01172.13281-.01563.13281v.14844l.02735.11719.04687.10547.04297.10156.0586.08984.07421.07422.08985.0586.07422.07421.08984.0586.0586.08984.04296.10547.04688.10156.11719.03125.1328.01563h.14845l.11718-.03125.10547.04297.04297.10547.04688.10156.02734.1211L299.5 410l.02734.11719.03125.1211.02735.11718.10547.04297.10156.04687.13281-.01562.14844.14844.0625.08593.07422.07422.07031.07422.08984.0625.10547.04297.10156.04297.1172.03125.13671.01562.11719-.03125.07422-.07422.02734-.11718-.01172-.13282-.03125-.12109-.02734-.11719.04297-.10547h.11719l.08984.0625.11719.02735h.14843l.13282.01562h.14843l.13282.01563.1328-.01563h.14845l.1328-.01562.13282-.01172.13672.01172.11719-.02735.13281-.01562.1914-.0586-.05859.17579-.01562.1328-.02735.1211-.01562.13281-.0586.08594-.1328.01563-.10548.04687-.10546.04297-.1172.03125-.11718.02735-.26563.03125h-.14843l-.13281.01562-.07422.07422.05859.08594.14844.14843.11719.1797.07421.0703.08985.0625.08984.0586.08594.0586.08984.05858.10156.04297.10547.0625.10547.04297.08594.0586.10547.04687.10156.04297.17969.11719.0586.08984-.04298.10156-.04687.10547.01562.13281.22266.22266.0586.08985.04296.10156.03125.1211.04297.10155.01563.13282.03125.11718.01171.13672.03125.11719.14844.14844.10156.04297.10547.04296.1172.03125.1328.01563.13672.01563h.11719l.11719-.03125.08984-.0586.04297-.10547.04688-.10156.04296-.10547.03125-.11719.01172-.1328v-.14845l-.01172-.1328-.01562-.13282-.03125-.11719-.04297-.10547-.04688-.10547-.04296-.10156-.04297-.10547-.01563-.13281.01563-.13281.02734-.11719.03125-.11719.02735-.1211.04687-.10155.08984-.0586.08594-.0625.07422-.07422.08984-.05859.22266-.22266.0586-.08593.07421-.07422.11719-.17969.0586-.08594v-.14844l-.07423-.07421-.10156-.04688-.10547-.04297-.10156-.04297-.0586-.08984-.04687-.10547-.02734-.11719.08984-.05859.11719-.03125.10156-.04297.17969-.11719.14844-.14843.01172-.13282-.01172-.10546-.08985-.0586-.1328.01563h-.14845l-.1328.01562-.13282-.01562-.1211-.03125-.08593-.0586-.07422-.07422-.0586-.08984-.0625-.08594-.11718-.17969-.0586-.08593.03125-.1211.08594-.05859.1211-.03125.05859-.08594v-.1211l-.03125-.11718-.0586-.08984-.05859-.08594-.04687-.10547-.02735-.11719-.01562-.1328.0586-.08985.07421-.07422.08984-.0586.1172-.17968.07421-.07422.0586-.08594.14843-.14844.1211-.03125.1328-.01562.13282.01562.07422.07422.04297.10547.01562.13281-.03125.1172-.11719.03124-.1328.01172-.14844.14844-.04297.10547-.04688.10156-.02734.1211-.03125.11718v.14844l.03125.11719.04297.10546.05859.08985.07422.07031.07422.07422.11719.03125.12109.02734.11719-.02734.1328-.01563h.1172l.08984.0586.07422.07422.04687.10546.0586.08594.10156.04688.13281.01562.10547.04297.08594.0586-.01172.10546-.07422.07422-.17969.11719-.05859.08984-.08984.0586-.07032.07422-.07421.07421-.0625.08985-.02735.11719-.01562.1328.01562.13282-.01562.13281v.14844l.01562.13281.02735.1172.03125.12108.07421.07422.08985.0586.08594.0586.08984.05858.11719.03125v.08594l-.10157.04688-.08984.0586-.26563.03124-.11718.02735h-.14844l-.10547.04296-.10156.04688-.0586.08984-.0625.23438-.01171.13281-.03125.1211-.01563.1328v.29298l-.01172.1328.01172.13673.01563.1328.1328.01563.13282.01172.1211.03125.08593.0586.07422.07421.04688.10547.04296.10157.01563.1328v.44532l-.01563.13281v.44532l.03125.26562.02735.11719.01562.13281.03125.11719.08594.21094.03125.26562v.14844l-.03125.11719-.02734.11718-.03125.1211-.02735.11719-.03125.11718-.03125.1211-.01171.1328-.01563.13282.08984.0586.1172-.03125.10155.01562.04688.10547-.03125.26562v.44141l-.04297.10547-.04688.10547-.04296.10156-.04297.10547-.0586.08594-.03125.12109-.04296.11719-.03125.11719-.01563.1328.01563.13282.05859.08984.10547.04688.08594.0586.05859.08593-.01172.13672-.03125.11719-.04297.10156v.44531l-.01562.13281v.14844l-.03125.11719-.04297.10547-.02735.11719-.04687.10546-.04297.10157-.03125.12109-.02734.11719-.03125.13281-.03125.11719-.02735.11719-.04297.10546-.03125.1172-.03125.12108-.01171.13282-.01563.13281v.29688l.02734.11718v.14844l.04688.39844.02734.11719.0586.08984.12109.03125h.14844l.13281-.01563.0586.08985v.11719l-.0586.08984-.08984.0586-.10157.04296-.10546.04688-.08985.05859-.08594.0586-.13671.01562-.1172-.03125-.1328-.01563-.10157.04688-.0625.08594-.01172.13671-.01562.13282-.03125.11719-.02735.11718-.01562.13281-.03125.1211v.29687l.01563.13282.03125.11718v.14844l.01171.13281v.14844l-.02734.11719-.04688.10156-.02734.1211-.03125.11718-.0586.08985-.07421.07421-.10156.04297-.10547.04688-.11719.02734-.1211.03125-.10156-.04687.0586-.08594.10547-.04688.02734-.11718.03125-.11719.02734-.1211.03125-.11718v-.14844l.01563-.13281-.03125-.11719-.04297-.10547-.10547.01563-.07422.07422-.10156.04296-.08984.0625-.07422.07422-.04297.10157-.01563.1328-.03125.1172L304.25 426l-.03125.11719-.02734.11719-.03125.12109-.02735.11719-.03125.11718-.04297.10547-.08984.0586h-.08984l-.1172-.03125-.03124-.08594.01562-.13672-.03125-.11719v-.14844l-.01171-.1328v-.14844l-.0625-.23438-.02735-.1211-.04297-.10156-.04687-.10546-.0586-.08594-.05859-.08985-.04297-.10546-.0625-.08594-.14844-.14844-.0703-.07422-.10548-.04687-.10547-.04297-.10156-.04297-.29687-.29688-.08985-.07421-.08594-.0586-.10546-.04297-.08985-.0625-.08594-.0586-.10546-.04296-.08985-.0586-.08594-.0625-.07421-.0703-.10547-.04688-.08594-.0586-.10547-.04296-.08984-.0625-.10156-.04297-.10547-.04297-.08594-.0586-.10547-.04687-.10547-.04297-.10156-.04687-.08985-.0586-.10156-.04297-.10547-.04296-.08984-.0625-.11719-.02735-.13281-.01562-.13281.01562H299.75l-.13281.01563-.11719-.03125-.08984-.0586-.07422-.07422-.08985-.05859-.10156-.04688h-.14844l-.12109-.02734-.10156-.04297-.07422-.07422-.11719-.17968-.08984-.0586-.10156-.04297-.08985-.0625-.10547-.04296-.08984-.0586-.08594-.0586-.10547-.04687-.0586-.08594-.05858-.08984-.04297-.10547-.04688-.10156-.07422-.07422-.08594-.0586-.07421-.07421-.08985-.0586-.22265-.22265-.04297-.10547-.03125-.26563.10547-.04296h.14453l.10547.04296.07421.07422.08985.0586.08594.0586.10546.04687.08985.05859.14844.14844.0703.07422.14845.14843.0625.08594.07421.07422.08594.0586.07422.07421.08985.0625.08984.0586.08594.05859.26953.17578.10156.04688.10547.04296.10156.04297.04688-.07421.05859-.08594.07422-.07422.07031-.07422.10547.04297.07422.07422.0586.08984.04296.10156.04688.10547.04296.10547.1211.02735.11719-.02735.07421-.08984.04297-.10547.0586-.08985.07422-.07421.10546-.04297.1172-.02735.1328.01172.08985.0586.14844.14843.05859.08985.04297.10547.04687.10156.04297.10547.04297.10156.10547.04688.10547.04296.13281.01563.08594-.0586.0586-.08984.07421-.07422.10547-.04297.11719.02735.10547.04687.10156.04297.10547.04297.10156.04688.17969.11718v.11719l-.01563.13281.01563.13281.01562.13672.0586.08594.10156.04688.1211.02734.11718.03125h.14844l.11719-.03125.05859-.08984.17969-.1172.05859-.08983.07422-.07422.0586-.08594.11718-.17969.17969-.11719.11719.03125.08984.0586.04297.07422-.01563.1328v.1172l.08985.05859h.14843l.13282-.01563.1328-.01171.26563-.03125.10547-.04297.11719-.03125.1211-.02735.07421-.07421.07031-.07422.0625-.08985-.01562-.10547-.04688-.10156-.10156-.04297-.10547-.01562-.11718.02734-.26563.03125h-.14844l-.07421-.07422-.08985-.0586-.11719-.03124-.11718-.02735-.13282-.01562h-.14843l-.13282.01563h-.29687l-.10547-.04688-.14844-.14844-.04297-.10156-.05859-.08984.22266-.22266.08593-.0586.10547-.04296.11719-.03125.13281-.01563.13281.01563.13672.01562.10157.04297.1328-.01172.08985-.0625.10156-.04297.0625-.08984-.04687-.10156-.08984-.0586-.1172-.03125-.10155-.04296-.0586-.08985-.0625-.08984v-.11719l.01563-.13281.10547-.04688.07421-.07031v-.1211l-.08984-.05859-.03125-.11719.08985-.05859.07421-.07422.04297-.10547.0586-.08984.04687-.10156.01563-.13281v-.14844l-.04688-.10547-.04297-.10156-.08984-.0586-.13281-.01562-.10157-.04297-.13671-.01563-.1172-.03125h-.4453l-.13282-.01562-.13281-.01172-.13281-.01563-.11719-.03125h-.14844l-.13281-.01562-.13281-.01172-.26563-.03125-.1211-.04297-.08593-.0586-.07422-.07421v-.14844l.01172-.13281.10547-.04688.10156-.04296.13281-.01563h.15235l.13281-.01562h.29297l.1211.03125.10156.04296.08984.0586.23438.0625.12109-.04688.08984-.05859.10156-.04297.13282-.01562.10547.04296.10156.04688.13281.01172.1211-.02735h.14453l.12109-.03125.11719-.02734.10547-.04687.07421-.07422.08594-.0586.14844-.14843.0586-.08594.04687-.10547.02734-.11719.01563-.10547-.10156-.04296-.08985-.0586-.11719-.03125-.10546-.04297-.08985-.0625-.07422-.08594-.07422-.07421-.10156-.04297-.10547-.04688-.10156-.04297-.0586-.08984-.04687-.10156-.08594-.21094-.0625-.08594-.05859-.08984-.07422-.07422-.08594-.0586h-.26953l-.11719.03126-.08984.05859-.10156.04297-.13281.01562-.10547-.01562-.02735-.11719-.0625-.08984-.11718-.03125-.10157-.04297-.14843-.14844-.03125-.11719-.01563-.10546.07422-.07422.17969-.1172.11719-.02733.11718-.03125.13672.01562.10156.04297.10547.04297.10156.04687.10547.04297.1172.03125.1328.01563.1172.02734.1328.01563.10547-.01563.08985-.0586-.07422-.07421-.10547-.04297-.07422-.07422-.07422-.08984-.14844-.14844-.08593-.0586-.08985-.05859-.07422-.07422-.08984-.0586-.10156-.04687-.1211-.02734-.10156-.04688-.10547-.04296-.11719-.03125-.10156-.04297-.1211-.03125h-.14843l-.11719.03125-.10546.04297-.08594.0625-.17969.11718-.08594.0586-.08984.0586-.10547.04687-.08594.05859-.10547.04297-.10156.04297-.10547.04687-.07422.07422-.05859.08985-.0586.08593-.04687.10547-.0586.08594-.07421.07422-.13281-.01172-.1172-.03125h-.11718l-.07422.07422-.08984.0586-.07422.07421-.08984.0586-.08594.05859-.10547.04687-.10156.04297-.13672.01563-.10156-.04297-.14844-.14844-.10547-.04688h-.08594l-.10547.04688-.10156.04297-.1211.03125-.11718-.03125-.07422-.07422v-.11719l.03125-.1211.07422-.0703.0586-.08985.07421-.07422.11719-.03125.10547-.04296h.29297l.13281-.01563.13672-.01563.10156-.04296.08985-.0586.10156-.04687.08984-.0586.13281-.01171.08985.05859.13281.01172.08984-.0586.08594-.05859.10547-.04297.08984-.0586.08594-.0625.08985-.05859.14843-.14843.0586-.08594.05859-.08985.10547-.04296.13281-.01563.11719.02735.1211.03125.05859-.0586.05859-.08984.03125-.26563.02734-.11719.10547.01172.13281.01563.10157-.04297.08984-.0586.0586-.08984.07421-.07422.0586-.08984.04687-.10156.01172-.13281-.01172-.13282-.04687-.10547-.14844-.14843-.0586-.08985-.05859-.08594-.04297-.10546v-.44532l.01563-.1328v-.14845l.01172-.1328-.0586-.0586-.08984.0586-.10156-.04298-.17969-.11719-.08594-.05859-.0625-.08984-.0586-.08985-.07421-.07421-.08594-.0586-.1211.03125-.10155.01172-.10547.04688-.08594.05859-.10547.04297-.14844.14844-.08984.05859-.08594.0586-.08984.0625-.10547.04296-.13281.01563v-.1211l.10547-.04297.11718-.03125.07422-.0703.04297-.10548v-.14844l-.02734-.11718-.14844-.14844-.13281-.01563h-.14844l-.11719.03125-.10547.04297-.10156.04297-.08984.0625-.11719.02735-.07422-.07422.01172-.13281-.04297-.10157-.04297-.10547-.08984-.05859-.11719.02734-.1211.03125-.11718.03125-.10156.04297-.1211.03125-.10156.04297-.10547.04297-.08984.0586-.10156.01562v-.11719l.01562-.13281-.0586-.08985-.07421.04297-.14844.14844-.0586.08985-.07421.07421-.04688.10547-.04296.10156-.07422.07422-.0586.08985-.07422.07422-.05859.08593-.07422.07422-.08984.0625-.07422.07031-.07422.07422-.10156.01563-.13281.01562-.10547-.04296v-.1211l.14843-.14844.04297-.10156.0586-.08984.04687-.10156.04297-.10547.0586-.08985.03124-.11719.04297-.10156.03125-.1211.02735-.11718.04687-.10547.04297-.10156.04297-.10547.07422-.07031.08984-.0625.08985-.0586.10156-.04296h.29687l.26563-.03125.10547-.04297-.07422-.07422-.11719-.03125-.10547-.04297-.08984-.0586-.10156-.04687-.08985-.0586-.10156-.04296-.10547-.04297-.08984-.0625-.08594-.0586-.10547-.04296-.10156-.04297-.1211-.03125-.11718-.03125-.10157-.04297L297.5 410.25l-.10156-.04297-.08985-.0586-.04296-.10546-.01563-.13281.10156-.04297.13281-.01563.13672.01563.13282-.01563.10156-.04297.0586-.08984.01562-.10547-.08985-.0586-.07421-.07421-.10157-.04297-.08984-.0586-.14844-.14843-.04297-.10547-.01562-.13281v-.29297l-.0586-.08985-.08984-.05859-.07422-.07422-.04297-.10547-.03125-.11718-.0586-.08985-.07421-.07422-.11719-.02734-.07422-.07422-.08984-.0586-.08984-.0625-.08594-.05859-.07422-.07421-.0586-.08594-.04687-.10547-.08594-.0586-.14843-.14843-.19532-.0586-.1328.01563-.10157.04297-.07422.07422-.04688.10156-.04296.10547-.0586.08984-.0586.08594-.29687.29687-.08984.0586h-.08594l-.0625-.08594-.04297-.10547.03125-.11719.0586-.08984.02734-.11719-.01172-.13281-.08984-.0625-.10547.04688-.11719.02734-.11719.03125-.26953.17578-.10156.04688-.11719.02734-.10546.04687-.08985.0586-.10156.04297-.0586-.08594-.04687-.10547.01563-.13281.04687-.10547.07031-.07422.07422-.07031.0586-.08985v-.14843l-.04297-.10547h-.23829l-.10156.04687-.03125.11719-.02734.11719-.03125.1211-.07422.04296-.13281.01563-.07422-.04688-.04297-.10156-.04297-.10547-.04687-.10156-.04297-.10547-.1211.03125-.10156.04297-.13281.01562-.11719.03125-.10547.04297-.08984.0586-.10156.04687-.1211.02734-.13281.01563-.10156-.04297-.0586-.08985-.04687-.10546-.04297-.10157-.04297-.10546v-.1172l.0586-.08984.08593-.05859.17969-.11719.10156-.04687.10547-.04297.10547-.0586.10156-.04296.08985-.0625.10156-.04297.10547-.0586.10156-.04687.08984-.0586.10547-.04296.10156-.04297.08985-.0625.10156-.04297.13672-.01563.11719.03125.10156.04297.1211.03125.10156.04297.10546.04688.10157.04296.10547.04297.10156.04688.10547.04297.10156.04297.10547.04687.08594.0586.10546.04296.1172.03125.10546.04297.10156.04688.08985.0586.10547.04296.10156.04297.10547.04687.11719.02735.10156.04687.1211.02735h.14843l.08594-.0586.01562-.10156.0586-.08984-.02735-.1172-.07422-.07421-.11719-.17969-.07421-.07422-.08985-.07421-.17969-.1172-.08593-.05859-.10547-.04296-.10156-.04688-.26954-.17578-.05859-.08985-.07422-.07421-.0586-.08985-.04296-.10156-.03125-.11719-.01563-.13672v-.5625l-.01171-.1328-.01563-.13282-.03125-.11719-.01562-.13281-.01172-.13281-.03125-.1211-.22266-.22265-.0586-.08594-.01562-.10547.03125-.11719.13281-.01562v-91.41406H172.9922v1.45312l-.0586.23438-.35156 1.05078-.17187.52343-.1172.34766-.17577.41016-.11719.17187-.23438.29297-.23046.0586h-.35157l-.11718.05859-.23047.40625v.29297l.11719.17578.23046.23047.1172.23437.64062.75781.29297.46485.17578.23437.23047.35156.23437.34766.64063.8164.17578.46485.17187.41016.11719.69531.17578.46875.11719 1.39844.0586.46484v.875l.11718 1.04688v4.78125l-.0586.46484-.35156 1.28125-.17578.52344-.11328.41015-.35156.9297L172.93359 336l-.23437.58203-.11719.17578-.17187.34766-.17578.40625-.35157.8164-.0586.29297-.11327.29297-.11719.28906-.0586.17579-.11718.875-.0586.40625-.05859.11718-.0586.17579-.05859.17187-.23047.52734-.11718.17188v.23437l-.11719.23438-.0586.17187-.17577.58594v.28906l-.0586.17579v.29296l-.0586.11329-.05859.52734v.17187l-.05468.23438v2.6211l-.17578.8164-.1172.17578-.17577.23438-.1172.17187-.11327.23438-.58594.93359-.23047.28906-.29297.46485-.17578.23437-.28906.35156-.35156.69922-.11328.23047-.17579.41016-.17578.23046-.40625.52735-.8164.69922-.29297.17187-.28906.23438-.17579.11719-.17578.17578-.52344.40625-.52734.17578-.17187.17578-.23438.05469-.64062.17578h-.75782m12.21094 31.02344l-1.07422.44921.35938.89454 1.25-.71485.44531-.53906-.98047-.08985"/><path fill="#d3d3d3" fill-opacity="0" fill-rule="evenodd" d="M201.50781 416.59766h-.89453l.44922.6289.98047.35938.80469-.08985.4453-.98828-.17577.08985-.71485-.35547-.89453.35547m154.6211 59.0703l-.0586-.52343v-.29297l.11328-.29297.0586-.23046.46875-.46875h.11328l.11719-.11329.11718-.05859h.17579l.23437-.0586h.34766l.23437.0586.11719.0586.23047.17187.0586.17578.11718.58203v.29297l-.11719.17578-.17187.28906-.17579.17579-.52734.52343-.23047.23438-.11719.0586h-.17578l-.11718-.0586-.40625-.29297-.17579-.11719-.11718-.0586-.0586-.11327-.05468-.1172m6.64062-10.95702l-.0586-.17188v-1.10937l.0586-.17188.17578-.0586.17188-.05858h.17578l.23437-.0586.1172.0586.05858.69921-.05859.17188-.11719.17578-.11718.0586-.23438.52343-.11328.0586h-.23438l-.05859-.1172m9.61328-14.39062l-.11719-.17578v-.69922l.29297-.875.1172-.17187.17577-.35156.11328-.23047.1172-.29297.35155-.75781.1172-.23047.17187-.23438h.17578l.11719-.0586h.64062l.11719.0586.23437.23438.17188.11328.35156.29297.11719.11718.11328.17579v.11328l.11719.05859.11718.11719v.69922l-.05859.17578v.23047l-.0586.17578-.34765 1.05078-.11719.23047-.11719.23437-.11718.0586-.23047.23437-.64063.28906h-.875l-.41015-.11718-.64063-.46485"/><path fill="none" stroke="#bebebe" stroke-linecap="round" stroke-linejoin="round" stroke-miterlimit="10" stroke-width=".5" d="M467.95703 311.69531H144.02734v168.625h323.9297v-168.625"/><g clip-path="url(#a)"><path fill="#fff" fill-opacity="0" fill-rule="evenodd" d="M144 475.89063v4.4375h.0039H144V311.67188h.0039H144v164.21875"/></g><g clip-path="url(#b)"><path fill="#fff" fill-opacity="0" fill-rule="evenodd" d="M144.0039 480.32813V311.67188h22.1875v125.72265l-4.4375 1.19922-2.0078 1.78906-1.8125 4.4375.6953 4.4414 3.08985 4.4375.03516.04298.88672 4.39453 1.68359 4.4375 1.86719 1.96875 4.4375 1.2539 4.4375.70313 4.4414-.4336 4.4375.3047 4.4375-.0586 4.4375.01563 1.78125.6875 2.66016 2.8828 4.2461 1.5547.1914.1328.17187-.1328 4.26563-2.0625 3.22656-2.375 1.21094-.26954 4.4414-.55468 4.4375-.36329 4.4375-.11718 4.4375.0586 4.4375-.86329 4.44141-.55078 2.6836-1.78125.3828-4.4375.92188-4.4375-3.98828-2.89844-3.5625-1.53906-.8789-.4414-1.79297.4414-2.64453.23047-4.4375.76172-4.4375.15625-4.4375.14062-2.01954-1.28906-2.42187-2.20703-4.4375-1.9375-.71094-.29688-3.72656-1.97656-4.4375-1.48047-4.4414.19531-4.4375-.43359-4.4375-.11328-4.4375-.47656-.58985-.15235-3.85156-1.69531-4.4375-1.02734-4.4375-.26563V311.67188h137.58984V455.6328l-3.9336 2.5039-.5039.36329-4.4414 3.52734-.51563.54688.51562.48437 4.44141 2.37891 4.4375-.48828 3.74219-2.375-.4375-4.4375-3.30469-2.5039V311.67187h22.1914v139.92578l-2.05859 2.10156 2.0586 2.23047 2.60546-2.23047-2.60546-2.10156V311.67187h4.4375v147.125l-4.4375 1.4336-4.4375.19531-4.4375 1.83594-.31641.3125.3164.3125 4.4375 1.84375.82423 2.28515-.82422 1.70704-4.4375.48828-3.1875 2.24219.14062 4.4375 3.04688 2.41015 4.4375-1.5039 1.07812-.90625 3.35938-.5625 4.4375-.17188 2.46484.73438 1.97266 1.60937 3.52343-1.60938-3.52343-1.98437-.73047-2.45313.71094-4.4375.01953-.10156 2.89453.10156 1.54687.1836.125-.1836 1.78516-4.4414-1.91016-1.85547-4.4414-1.10156-4.4375-.82031v-147.125h39.9453v97.42968l-.21093.21485-2.65625 4.4375 2.86719 2.85546 3.2539-2.85546-3.01953-4.4375-.23437-.21485v-97.42969h8.8789v102.70704l-2.65625 3.8125-.42187 4.4375 3.07813 4.125.20703.3164 4.23046 3.91016 4.4375-1.30469 2.16797-2.60547-2.16796-3.16406-.35157-1.27734-1.3125-4.4375-2.77344-3.29688-4.4375-.51562V311.67187h17.75v120l-4.4375.00391-4.4375.32031-4.4375.58594-3.41796 3.36328 2.01171 4.4375 1.40625.55469 4.4375 2.4414.70704 1.44141.125 4.4414-.83204 3.60938-.7578.82813-2.82032 4.4375-.85938 1.11719-.8164-1.1172-3.6211-3.76952-4.4414 1.49219-2.0664 2.27734-.32032 4.4375 2.38672 2.25781 4.4414 1.72656.60157.45704-.47266 4.4375.35547 4.4375 3.95313 3.68359 4.4375-.57422 3.40234-3.10938 1.03515-.45703 4.4375.22266.5.23438 3.94141 3.40625 4.04297-3.40625-4.04297-4.14454-.13672-.29296.13672-.27735 4.4375-1.33984 4.4375-.64063.83203-2.17969 2.14844-4.4414-2.98047-3.19922-4.4375-.84766-.59375-.39062.03906-4.4375.5547-.51172 4.4375-2.3789 1.3789-1.54688-1.3789-1.4414-.9336-3-2.35156-4.4375-1.15235-1.44532-.64062-2.99219-3.79688-3.7461-4.4414-.52733v-120h71.01171v168.65625H144.00391"/></g><path fill="#50fcfc" fill-rule="evenodd" d="M158.6289 449.26172l-.6953-4.4414 1.8125-4.4375 2.0078-1.78907 4.4375-1.19922 4.4375.26563v3.09375l-4.4375.24218-4.4375.70313-2.30077 3.1211 1.85937 4.4414.4414.6289 2.31641 3.8086.57422 4.4375 1.54688 2.57031 4.1875 1.86719.25.10547 4.4375 1.23828 4.4414-.46485 4.4375 1.35547 4.4375-.03515 4.4375.10547 4.4414 1.63671 1.71095.5 2.72656 1.42188 2.125-1.42188 2.3125-1.03515 4.4375-.67578 4.4414-.57813 4.4375-.92969 4.4375-.18359 4.4375.1914 3.0625-1.23046 1.375-3.44531.71094-.9922 2.27735-4.4375-2.98828-2.26952-4.4375.33203-4.4375 1.63672-4.4375.15234-.86329.14844-3.57422.33203-1.02734-.33203-3.41406-2.28516-3.14453-2.15234-1.29297-.82422-4.4375-.64063-4.4375-2.17578-2.85156-.80078-1.58985-.33984-4.4375-1.30078-4.4375 1.29297-4.4375-1.3086-4.4414-1.60937-4.4375-.80078v-3.09375l4.4375 1.02734 3.85156 1.69531.58984.15235 4.4375.47656 4.4375.11328 4.4375.4336 4.4414-.19532 4.4375 1.48047 3.72657 1.97656.71094.29688 4.4375 1.9375 2.42187 2.20703 2.01953 1.28906 4.4375-.14062 4.4375-.15625 4.4375-.76172 2.64454-.23047 1.79297-.4414.8789.4414 3.5625 1.53906 3.98828 2.89844-.92187 4.4375-.38281 4.4375-2.6836 1.78125-4.4414.55078-4.4375.86328-4.4375-.0586-4.4375.1172-4.4375.36328-4.44141.55468-1.21094.26954-3.22656 2.375-4.26563 2.0625-.17187.1328-.1914-.1328-4.2461-1.5547-2.66016-2.8828-1.78125-.6875-4.4375-.01563-4.4375.0586-4.4375-.3047-4.4414.4336-4.4375-.70313-4.4375-1.2539-1.8672-1.96875-1.68358-4.4375-.88672-4.39453-.03516-.04297-3.08984-4.4375"/><path fill="#00e8fc" fill-rule="evenodd" d="M161.3125 449.26172l-1.85938-4.4414 2.30079-3.1211 4.4375-.70313 4.4375-.24218v7.78515l-1.3672.72266 1.15235 4.4375-1.5039 4.4375 1.71875 4.15234 1.92187-4.15234-1.71094-4.4375.41016-4.4375-.6211-.72266v-7.78515l4.4375.80078v3.16406l-.42577.10156.42578.71485.22265-.71485-.22265-.10156v-3.16406l4.4414 1.60937 4.4375 1.3086v.98828l-4.4375 2.38281-.78515 1.41797.78515 3.45312 1.04688.98438 3.39062 1.3164 2.13281-1.3164.71094-4.4375-2.84375-3.80078v-.98828l4.4375-1.29297 4.4375 1.30078 1.58985.33984 2.85156.80078v6.3086l-4.4414 1.14453-.44141.625-.54688 4.4375.98828 3.75781.47266.67969 3.96875 1.09765 4.4375-.23828 4.35547-.85937.08203-.10156.10547.10156 4.33203.32812 2.38281-.32812 2.0586-.94531 3.17968-3.4922-3.17969-1.23827-4.4414-.36328-4.4375.33593-4.4375-3.16796-.00781-.00391-4.4297-1.76953v-6.3086l4.4375 2.17579 4.4375.64062 1.29298.82422 3.14453 2.15234 3.41406 2.28516 1.02734.33203 3.57422-.33203.86328-.14844 4.4375-.15234 4.4375-1.63672 4.4375-.33203 2.98829 2.26953-2.27735 4.4375-.71094.99219-1.375 3.4453-3.0625 1.23048-4.4375-.1914-4.4375.18358-4.4375.9297-4.4414.57812-4.4375.67578-2.3125 1.03515-2.125 1.42188-2.72656-1.42188-1.71094-.5-4.4414-1.63671-4.4375-.10547-4.4375.03515-4.4375-1.35546-4.44141.46484-4.4375-1.23828-.25-.10547-4.1875-1.86719-1.54688-2.57031-.57422-4.4375-2.3164-3.8086-.44141-.6289"/><path fill="#50fcfc" fill-rule="evenodd" d="M170.41406 453.69922l-1.5039 4.4375 1.71875 4.15234 1.92187-4.15234-1.71094-4.4375.41016-4.4375-.6211-.72266-1.36718.72266 1.15234 4.4375"/><path fill="#00d4fc" fill-rule="evenodd" d="M175.0664 445.53516l-.42577-.71485.42578-.10156.22265.10156-.22265.71485"/><path fill="#50fcfc" fill-rule="evenodd" d="M179.50781 447.84375l-.78515 1.41797.78515 3.45312 1.04688.98438 3.39062 1.3164 2.13281-1.3164.71094-4.4375-2.84375-3.80078-4.4375 2.38281"/><path fill="#00d4fc" fill-rule="evenodd" d="M192.82031 461.89453l-.98828-3.75781.54688-4.4375.4414-.625 4.4414-1.14453 4.4297 1.76953.0078.0039 4.4375 3.16797 4.4375-.33593 4.44142.36328 3.17968 1.23828-3.17969 3.49219-2.05859.9453-2.38281.32813-4.33203-.32812-.10547-.10156-.08203.10156-4.35547.85937-4.4375.23829-3.96875-1.09766-.47266-.67969"/><path fill="#50fcfc" fill-rule="evenodd" d="M294.90234 463.0586l-.51562-.48438.51562-.54688 4.44141-3.52734v3.41406l-.77344.66016.77344.46484 2-.46484-2-.66016V458.5l.5039-.36328 3.9336-2.5039 3.30469 2.5039.4375 4.4375-3.74219 2.375-4.4375.48828-4.4414-2.3789"/><path fill="#00e8fc" fill-rule="evenodd" d="M299.34375 463.03906l-.77344-.46484.77344-.66016 2 .66016-2 .46484"/><path fill="#50fcfc" fill-rule="evenodd" d="M314.05078 475.89063l-.14062-4.4375 3.1875-2.2422 4.4375-.48827.82421-1.70704-.82421-2.28515-4.4375-1.84375-.31641-.3125.3164-.3125 4.4375-1.83594 4.4375-.19531 4.4375-1.4336v1.10547l-3.78906 2.67188-.64843.95312-2.17579 3.48829-2.12109 4.4375 4.29688 2.8164 4.4375-.66797 2.15234-2.14844 1.5-4.4375.78516-3.49609 1.47265-.94531-1.47265-.64063-4.4375-2.03125v-1.10546l4.4375.8203 4.4414 1.10157 1.91016 1.85547-1.78516 4.4414-.125.1836-1.54687-.1836-2.89453-.10156-.01954.10156-.71093 4.4375.73047 2.45313 3.52343 1.98438-3.52343 1.60937-1.97266-1.60938-2.46484-.73437-4.4375.17188-3.35938.5625-1.07812.90625-4.4375 1.5039-3.04688-2.41015"/><path fill="#00e8fc" fill-rule="evenodd" d="M325.97266 474.26953l-4.29688-2.8164 2.1211-4.4375 2.17578-3.48829.64843-.95312 3.78907-2.67188v1.83594l-1.1836.83594-3.04687 4.4414-.20703.58594-1.61329 3.85156 1.61329 1.0547 3.45703-1.0547.98047-.37109 2.3789-4.0664-.8125-4.44141-1.5664-.83594v-1.83594l4.4375 2.03125 1.47265.64063-1.47265.94531-.78516 3.4961-1.5 4.4375-2.15234 2.14843-4.4375.66797"/><path fill="#50fcfc" fill-rule="evenodd" d="M325.97266 455.92969l-2.0586-2.23047 2.0586-2.10156 2.60546 2.10156-2.60546 2.23047"/><path fill="#00d4fc" fill-rule="evenodd" d="M325.97266 472.50781l-1.61329-1.05469 1.61329-3.85156.20703-.58594 3.04687-4.4414 1.1836-.83594v2.55078l-1.96485 2.72656 1.96485 1.88672 1.10546-1.88671-1.10546-2.72657v-2.55078l1.5664.83594.8125 4.4414-2.3789 4.06641-.98047.3711-3.45703 1.05468"/><path fill="#00c4fc" fill-rule="evenodd" d="M330.41016 468.90234l-1.96485-1.88671 1.96485-2.72657 1.10546 2.72656-1.10546 1.88672"/><path fill="#50fcfc" fill-rule="evenodd" d="M370.35547 416.60938l-2.86719-2.85547 2.65625-4.4375.21094-.21485v3.88281l-.48438.76954.48438.48046.55078-.48046-.55078-.76954v-3.8828l.23437.21484 3.01954 4.4375-3.25391 2.85546"/><path fill="#00e8fc" fill-rule="evenodd" d="M370.35547 414.23438l-.48438-.48047.48438-.76954.55078.76954-.55078.48046"/><path fill="#50fcfc" fill-rule="evenodd" d="M374.79297 464.83203l-2.38672-2.25781.32031-4.4375 2.0664-2.27735 4.44142-1.49218 3.62109 3.76953.8164 1.11719.85938-1.1172 2.82031-4.4375.75781-.82812.83204-3.60937-.125-4.4414-.70704-1.44141-4.4375-2.44141-1.40625-.55469-2.01171-4.4375 3.41796-3.36328 4.4375-.58594 4.4375-.3203v.9375l-4.4375.92187-4.40625 2.41015 3.5547 4.4375.85156.54297 1.91015 3.89453.32422 4.4414-.85938 4.4375-1.375 1.63673-2.13671 2.80078-2.30079 2.99219-2.18359-2.9922-2.2539-2.34765-3.41016 2.34766-.67188 4.4375 4.08204 3.10547L381 467.01563l-1.09766 4.4375 1.03125 4.4375 2.73829 2.55078 4.4375-1.4336 1.22265-1.11719 3.21485-1.42187 4.4375-.17188 3.39062 1.59375 1.05078.91016 1.07813-.91015-1.07813-1.10547-1.52734-3.33204 1.52734-3.13671 2.45703-1.30079 1.98047-.60937 4.4375-3.4414.23438-.39063-.23438-.25-4.4375-2.57813-2.44922-1.60937-.82422-4.4375 3.27344-3.01953 1.98047-1.41797.02734-4.4414-2.0078-2.82423-.21095-1.61328-1.7578-4.4375-2.46876-2.4375-4.4414-.89062-4.4375-.0039v-.9375l4.4375-.00392 4.4414.52735 3.79688 3.7461.64062 2.99218 1.15235 1.44531 2.35156 4.4375.9336 3 1.3789 1.4414-1.3789 1.54688-4.4375 2.37891-.5547.51172-.03906 4.4375.59375.39062 4.4375.84766 2.98047 3.19922-2.14844 4.4414-.83203 2.1797-4.4375.64062-4.4375 1.33984-.13672.27735.13672.29296 4.04297 4.14454-4.04297 3.40625-3.9414-3.40625-.5-.23438-4.4375-.22266-1.03516.45704L388.10937 479l-4.4375.57422-3.95312-3.6836-.35547-4.4375.47266-4.4375-.60156-.45703-4.44141-1.72656"/><path fill="#00e8fc" fill-rule="evenodd" d="M379.23438 465.67969l-4.08204-3.10547.67188-4.4375 3.41015-2.34766 2.25391 2.34766 2.1836 2.99219 2.30078-2.9922 2.13671-2.80077 1.375-1.63672.85938-4.4375-.32422-4.4414-1.91015-3.89454-.85157-.54297-3.55469-4.4375 4.40625-2.41015 4.4375-.92188v1.57031l-4.21093 1.76172 1.0039 4.4375 2.6875 4.4375.51954 3.65235.05468.78906-.05469 1.1914-.40625 3.2461-3.65625 4.4375-.375.10547-3.98046 4.33203-.45704 2.60547-1.4414-2.60547-2.9961-4.39453-2.15625 4.39453 2.15625 1.64062 3.70313 2.80079-2.13281 4.4375 2.15625 4.4375.71094.66406 1.53515-.66406 2.90235-.5547 4.4375-2.46874 4.4375-.83594.59375-.57813 2.28125-4.4375 1.5664-1.66796 4.4375-1.69922 1.29297-1.07422-1.29297-.79297-4.4375-2.6289-.71484-1.01563-.26563-4.4375.98047-1.34375 3.19922-3.09375 1.0664-4.4414-.49218-4.4375-3.51953-4.4375-.2539-.25-4.44142-1.4961-4.4375-.01563v-1.5703l4.4375.0039 4.44141.89062 2.46875 2.4375 1.75781 4.4375.21094 1.61328 2.00781 2.82422-.02734 4.4414-1.98047 1.41798-3.27344 3.01953.82422 4.4375 2.44922 1.60937 4.4375 2.57813.23438.25-.23438.39062-4.4375 3.44141-1.98047.60938-2.45703 1.30078-1.52734 3.13671 1.52734 3.33204 1.07813 1.10546-1.07813.91016-1.05078-.91015-3.39063-1.59375-4.4375.17187-3.21484 1.42188-1.22265 1.11718-4.4375 1.4336-2.73829-2.55079-1.03125-4.4375L381 467.01563l-1.76563-1.33593"/><path fill="#50fcfc" fill-rule="evenodd" d="M379.23438 426.7539l-3.07813-4.125.42188-4.4375 2.65625-3.8125 4.4375.51563v3.41016l-4.4375.54687-1.03907 3.77735 1.03906 1.39062 2.00782 3.05078 2.42969 2.24219 3.16015-2.24219-.98828-4.4414-2.17188-4.32422v-3.41016l2.77344 3.29688 1.3125 4.4375.35156 1.27734 2.16797 3.16406-2.16796 2.60547-4.4375 1.30469-4.23047-3.91016-.20704-.3164"/><path fill="#00d4fc" fill-rule="evenodd" d="M379.23438 464.21484l-2.15625-1.64062 2.15625-4.39453v3.9336l-.22657.46093.22656.17187.3125-.17187-.3125-.46094v-3.9336l2.9961 4.39454 1.4414 2.60547.45704-2.60547 3.98046-4.33203.375-.10547 3.65625-4.4375.40625-3.2461.0547-1.1914-.0547-.78906-.51953-3.65235-2.6875-4.4375-1.0039-4.4375 4.21094-1.76172V435.75l-.46094.19531-1.32813 4.4375 1.78906 2.80078.6172 1.63672.41406 4.4414.49218 4.4375-1.52344 3.55079-.71093.88672-3.72656 1.03515-3.125 3.40235-.36329 4.4414-.94921.98047-1.96875 3.45704 1.96875 3.42187 4.4375-.3789 4.30078-3.04298.13671-.22265 4.4375-2.83985.72266-1.375 3.71875-3.96875 1.1211-.47265-1.1211-.58594-2.71094-3.85156.41016-4.4375 2.30078-3.15235 1.33203-1.28515 2.04297-4.4414-.0586-4.4375-3.3164-3.95704-3.96484-.48047-.47656-.16797-4.4375-.02734v-1.5664l4.4375.01562 4.4414 1.4961.2539.25 3.51954 4.4375.49219 4.4375-1.06641 4.4414-3.19922 3.09375-.98047 1.34375.26563 4.4375.71484 1.01562 4.4375 2.62891 1.29297.79297-1.29297 1.07422-4.4375 1.69922-1.5664 1.66796-2.28125 4.4375-.59375.57813-4.4375.83594-4.4375 2.46875-2.90235.55469-1.53515.66406-.71094-.66406-2.15625-4.4375 2.13281-4.4375-3.70313-2.80079"/><path fill="#00e8fc" fill-rule="evenodd" d="M379.23438 424.01953l-1.03907-1.39062 1.03906-3.77735 4.4375-.54687 2.17188 4.32422.98828 4.4414-3.16015 2.24219-2.4297-2.24219-2.0078-3.05078"/><path fill="#00c4fc" fill-rule="evenodd" d="M379.23438 462.7461l-.22657-.17188.22656-.46094.3125.46094-.3125.17187m4.4375 12.12891l-1.96875-3.42188 1.96875-3.45703.94922-.98046.36329-4.44141 3.125-3.40235 3.72656-1.03515.71094-.88672 1.52343-3.55078-.49219-4.4375-.41406-4.4414-.61719-1.63673-1.78906-2.80078 1.32813-4.4375.46094-.19531 4.4375.02734v.55079l-4.4375 3.02734-.375 1.02734.375.58594L394 444.82031l.55469 4.4414 1.3125 4.4375 1.11719 3.65626v1.11719l-4.4375.85937-4.4375.76953-2.27344 2.47266.3125 4.4414-2.47656 2.5625-1.07032 1.875 1.07031 1.85547 4.4375.35157 3.1172-2.20704 1.3203-2.10937 2.88672-2.32813 1.55079-1.28906 2.98437-3.15234-2.98438-4.10156v-1.1172l.82422-3.65624 3.15625-4.4375.46094-.41406 2.48828-4.02735.3711-4.4375-2.85938-3.41406-4.4414-.64063v-.55078l.47656.16797 3.96484.48047 3.3164 3.95703.0586 4.4375-2.04297 4.4414-1.33203 1.28517-2.30078 3.15234-.41016 4.4375 2.71094 3.85156 1.1211.58594-1.1211.47265-3.71875 3.96875-.72265 1.375-4.4375 2.83985-.13672.22265-4.30079 3.04297-4.4375.37891"/><path fill="#00b8fc" fill-rule="evenodd" d="M383.67188 473.3086l-1.07032-1.85548 1.07031-1.875 2.47657-2.5625-.3125-4.4414 2.27344-2.47266 4.4375-.76953v1.51953l-4.4375.17578-1.41797 1.54688.98437 4.4414-4.0039 4.14063-.16797.29688.16796.29296 4.4375 1.07422 1.9336-1.36719 2.5039-4 .54688-.4375 3.89063-3.23046 1.14453-1.21094L396.98437 461l-4.4375-.14844v-1.51953l4.4375-.85937 2.98438 4.10156-2.98438 3.15234-1.55078 1.28906-2.88671 2.32813-1.32032 2.10938-3.11719 2.20703-4.4375-.35157"/><path fill="#00a8fc" fill-rule="evenodd" d="M383.67188 471.7461l-.16797-.29298.16796-.29687 4.00391-4.14063-.98437-4.4414 1.41796-1.54688v.9297l-.5664.61718.5664 2.13672v4.65625l-1.9453 2.08594 1.9453.53125.75391-.53125-.7539-2.08594v-4.65625l4.4375-1.46875 1.17578-.66797-1.17579-.20313-4.4375-.41406v-.92969l4.4375-.17578 4.4375.14844 1.14454 1.57422-1.14454 1.21094-3.89062 3.23046-.54688.4375-2.5039 4-1.9336 1.3672-4.4375-1.07423"/><path fill="#009800" fill-rule="evenodd" d="M388.10938 471.98438l-1.94532-.53125 1.94531-2.08594.75391 2.08594-.7539.53125m0-7.27344l-.56641-2.13672.5664-.61719 4.4375.41406 1.17579.20313-1.17579.66797-4.4375 1.46875"/><path fill="#00b8fc" fill-rule="evenodd" d="M392.54688 440.96875l-.375-.58594.375-1.02734 4.4375-3.02735v.4336l-4.07813 3.6211 1.92969 4.4375.69531 4.4414 1.45313 3.53906 2.3828-3.53906 2.0586-1.84766 1.60156-2.59375.8047-4.4375-2.40626-2.86719-4.4414-.7539v-.4336l4.4414.64063 2.85938 3.41406-.3711 4.4375-2.48828 4.02735-.46094.41406-3.15625 4.4375-.82421 3.65625-1.1172-3.65625-1.3125-4.4375-.55468-4.4414-1.45313-3.85157"/><path fill="#00a8fc" fill-rule="evenodd" d="M394.83594 444.82031l-1.92969-4.4375 4.07813-3.6211v.4297l-3.59375 3.1914 2.28125 4.4375.83593 4.4414.47656 1.16407.78516-1.16406 3.65625-3.28516.71485-1.15625 1.23437-4.4375-1.94922-2.32422-4.4414-.86718v-.4297l4.4414.75392 2.40625 2.86718-.80469 4.4375-1.60156 2.59375-2.0586 1.84766-2.3828 3.53906-1.45313-3.53906-.69531-4.4414"/><path fill="#009800" fill-rule="evenodd" d="M395.67188 444.82031l-2.28125-4.4375 3.59375-3.1914v.42968l-3.10938 2.76172 2.63281 4.4375.47656 2.35156 3.31641-2.35156 1.125-.2461 1.49219-4.1914-1.49219-1.78125-4.4414-.98047v-.42968l4.4414.86718 1.94922 2.32422-1.23438 4.4375-.71484 1.15625-3.65625 3.28516-.78515 1.16406-.47657-1.16406-.83594-4.4414"/><path fill="#00ac00" fill-rule="evenodd" d="M396.50781 444.82031l-2.63281-4.4375 3.10938-2.76172v.4297l-2.625 2.33202 2.625 4.11719 4.4414-1.20703 1.03516-2.91016-1.03516-1.23828-4.4414-1.09375v-.42969l4.4414.98047 1.49219 1.78125-1.49219 4.1914-1.125.2461-3.3164 2.35156-.47657-2.35156"/><path fill="#00c800" fill-rule="evenodd" d="M396.98438 444.5l-2.625-4.11719 2.625-2.33203v.85938l-1.65625 1.47265 1.65625 2.59766 4.4414-2.24219.125-.35547-.125-.14844-4.4414-1.32421v-.85938l4.4414 1.09375 1.03516 1.23828-1.03516 2.91016-4.4414 1.20703"/><path fill="#10cc00" fill-rule="evenodd" d="M396.98438 442.98047l-1.65625-2.59766 1.65625-1.47265v.86328l-.6875.60937.6875 1.07813 2.0078-1.07813-2.0078-.60937v-.86328l4.4414 1.32421.125.14844-.125.35547-4.4414 2.24219"/><path fill="#24d000" fill-rule="evenodd" d="M396.98438 441.46094l-.6875-1.07813.6875-.60937 2.0078.60937-2.0078 1.07813"/><g clip-path="url(#c)"><path fill="#fff" fill-opacity="0" fill-rule="evenodd" d="M467.9961 480.32813H468V311.67188h-.0039H468v168.65625h-.0039"/></g><path fill="#fff" fill-opacity="0" fill-rule="evenodd" d="M406.54688 445.92188l.10546 5.83984 9.95704-.17969-.10547-5.83984-9.95704.17969"/><path fill-rule="evenodd" d="M414.73438 449.27344l.01171.51172-6.29687.11328-.01172-.78906 4.48828-.07813-.02344-1.39063.5547-.0078.07421.55859.0586.25.09374.22656.14454.20312.21484.16797.29687.13672.39454.09766"/><path fill="#fff" fill-opacity="0" fill-rule="evenodd" d="M207.1914 451.19922l4.63282 3.55469 6.0625-7.90625-4.63672-3.5547-6.0586 7.90626"/><path fill-rule="evenodd" d="M214.91016 446.8789l.40625.3086-3.83203 4.9961-.6211-.48048 2.73047-3.5625-1.10156-.84375.33594-.4414.48437.28906.23438.10938.23437.0703.25.01173.26563-.0625.28906-.14453.32422-.25"/><g clip-path="url(#d)"><path fill="none" stroke="#000" stroke-linecap="round" stroke-linejoin="round" stroke-miterlimit="10" stroke-width=".5" d="M140.8789 478.71484l6.2422 3.23047"/></g><g clip-path="url(#e)"><path fill="none" stroke="#000" stroke-linecap="round" stroke-linejoin="round" stroke-miterlimit="10" stroke-width=".5" d="M154.57422 478.1289l5.48047 4.39844"/></g><path fill="none" stroke="#000" stroke-linecap="round" stroke-linejoin="round" stroke-miterlimit="10" stroke-width=".5" d="M155.3711 478.76953l.23046-1.20703"/><g clip-path="url(#f)"><path fill="none" stroke="#000" stroke-linecap="round" stroke-linejoin="round" stroke-miterlimit="10" stroke-width=".5" d="M167.69922 478.39063l5.85937 3.875"/></g><path fill="none" stroke="#000" stroke-linecap="round" stroke-linejoin="round" stroke-miterlimit="10" stroke-width=".5" d="M168.55078 478.95313l.11719-1.21875"/><g clip-path="url(#g)"><path fill="none" stroke="#000" stroke-linecap="round" stroke-linejoin="round" stroke-miterlimit="10" stroke-width=".5" d="M180.92578 478.53125l6.03906 3.59375"/></g><path fill="none" stroke="#000" stroke-linecap="round" stroke-linejoin="round" stroke-miterlimit="10" stroke-width=".5" d="M181.80469 479.05469l.0586-1.22656"/><g clip-path="url(#h)"><path fill="none" stroke="#000" stroke-linecap="round" stroke-linejoin="round" stroke-miterlimit="10" stroke-width=".5" d="M195.20703 477.48047l4.10938 5.69922"/></g><path fill="none" stroke="#000" stroke-linecap="round" stroke-linejoin="round" stroke-miterlimit="10" stroke-width=".5" d="M195.80469 478.3086l.53906-1.10157"/><g clip-path="url(#i)"><path fill="none" stroke="#000" stroke-linecap="round" stroke-linejoin="round" stroke-miterlimit="10" stroke-width=".5" d="M208.23828 477.70313l4.67188 5.25"/></g><path fill="none" stroke="#000" stroke-linecap="round" stroke-linejoin="round" stroke-miterlimit="10" stroke-width=".5" d="M208.91797 478.46875l.42578-1.15234"/><g clip-path="url(#j)"><path fill="none" stroke="#000" stroke-linecap="round" stroke-linejoin="round" stroke-miterlimit="10" stroke-width=".5" d="M220.80078 482l6.17969-3.34375"/></g><g clip-path="url(#k)"><path fill="none" stroke="#000" stroke-linecap="round" stroke-linejoin="round" stroke-miterlimit="10" stroke-width=".5" d="M237.94922 483.76172l-1.48828-6.86719"/></g><g clip-path="url(#l)"><path fill="none" stroke="#000" stroke-linecap="round" stroke-linejoin="round" stroke-miterlimit="10" stroke-width=".5" d="M252.51953 483.21875l-4-5.77734"/></g><g clip-path="url(#m)"><path fill="none" stroke="#000" stroke-linecap="round" stroke-linejoin="round" stroke-miterlimit="10" stroke-width=".5" d="M266.64063 482.44531l-5.60938-4.23047"/></g><g clip-path="url(#n)"><path fill="none" stroke="#000" stroke-linecap="round" stroke-linejoin="round" stroke-miterlimit="10" stroke-width=".5" d="M278.0039 483.73828l-1.70702-6.8164"/></g><g clip-path="url(#o)"><path fill="none" stroke="#000" stroke-linecap="round" stroke-linejoin="round" stroke-miterlimit="10" stroke-width=".5" d="M290.71094 483.83203l-.49219-7.00781"/></g><g clip-path="url(#p)"><path fill="none" stroke="#000" stroke-linecap="round" stroke-linejoin="round" stroke-miterlimit="10" stroke-width=".5" d="M304.0625 483.83203l-.5625-7.0039"/></g><g clip-path="url(#q)"><path fill="none" stroke="#000" stroke-linecap="round" stroke-linejoin="round" stroke-miterlimit="10" stroke-width=".5" d="M316.88281 483.83594l.42578-7.01563"/></g><g clip-path="url(#r)"><path fill="none" stroke="#000" stroke-linecap="round" stroke-linejoin="round" stroke-miterlimit="10" stroke-width=".5" d="M329.96875 483.8125l.88281-6.96875"/></g><g clip-path="url(#s)"><path fill="none" stroke="#000" stroke-linecap="round" stroke-linejoin="round" stroke-miterlimit="10" stroke-width=".5" d="M345.08203 483.57031l-2.71094-6.48437"/></g><g clip-path="url(#t)"><path fill="none" stroke="#000" stroke-linecap="round" stroke-linejoin="round" stroke-miterlimit="10" stroke-width=".5" d="M360.55078 480.51563l-7.01953-.3711"/></g><g clip-path="url(#u)"><path fill="none" stroke="#000" stroke-linecap="round" stroke-linejoin="round" stroke-miterlimit="10" stroke-width=".5" d="M359.52734 480.46094l.51954 1.11328"/></g><g clip-path="url(#v)"><path fill="none" stroke="#000" stroke-linecap="round" stroke-linejoin="round" stroke-miterlimit="10" stroke-width=".5" d="M373.86719 480.25781l-7.02344.14063"/></g><g clip-path="url(#w)"><path fill="none" stroke="#000" stroke-linecap="round" stroke-linejoin="round" stroke-miterlimit="10" stroke-width=".5" d="M372.84766 480.27734l.59765 1.07422"/></g><g clip-path="url(#x)"><path fill="none" stroke="#000" stroke-linecap="round" stroke-linejoin="round" stroke-miterlimit="10" stroke-width=".5" d="M386.59766 478.38672l-5.85547 3.88672"/></g><path fill="none" stroke="#000" stroke-linecap="round" stroke-linejoin="round" stroke-miterlimit="10" stroke-width=".5" d="M385.7461 478.95313l1.07812.58203"/><g clip-path="url(#y)"><path fill="none" stroke="#000" stroke-linecap="round" stroke-linejoin="round" stroke-miterlimit="10" stroke-width=".5" d="M395.97266 476.96484L398 483.69141"/></g><path fill="none" stroke="#000" stroke-linecap="round" stroke-linejoin="round" stroke-miterlimit="10" stroke-width=".5" d="M396.26563 477.94531l.87109-.86719"/><g clip-path="url(#z)"><path fill="none" stroke="#000" stroke-linecap="round" stroke-linejoin="round" stroke-miterlimit="10" stroke-width=".5" d="M406.78906 480.29297l7.02735.07031"/></g><g clip-path="url(#A)"><path fill="none" stroke="#000" stroke-linecap="round" stroke-linejoin="round" stroke-miterlimit="10" stroke-width=".5" d="M420.54688 478.6211l6.14062 3.41406"/></g><path fill="none" stroke="#000" stroke-linecap="round" stroke-linejoin="round" stroke-miterlimit="10" stroke-width=".5" d="M421.4375 479.11719l.02344-1.22656"/><g clip-path="url(#B)"><path fill="none" stroke="#000" stroke-linecap="round" stroke-linejoin="round" stroke-miterlimit="10" stroke-width=".5" d="M434.67578 477.63281l4.51172 5.39063"/></g><path fill="none" stroke="#000" stroke-linecap="round" stroke-linejoin="round" stroke-miterlimit="10" stroke-width=".5" d="M435.33203 478.41797l.46094-1.13672"/><g clip-path="url(#C)"><path fill="none" stroke="#000" stroke-linecap="round" stroke-linejoin="round" stroke-miterlimit="10" stroke-width=".5" d="M447.125 478.71875l6.24219 3.22266"/></g><path fill="none" stroke="#000" stroke-linecap="round" stroke-linejoin="round" stroke-miterlimit="10" stroke-width=".5" d="M448.03125 479.1875l-.01172-1.22656"/><g clip-path="url(#D)"><path fill="none" stroke="#000" stroke-linecap="round" stroke-linejoin="round" stroke-miterlimit="10" stroke-width=".5" d="M460.85938 478.08203l5.40234 4.4961"/></g><path fill="none" stroke="#000" stroke-linecap="round" stroke-linejoin="round" stroke-miterlimit="10" stroke-width=".5" d="M461.64844 478.73438l.25-1.19922"/><g clip-path="url(#E)"><path fill="none" stroke="#000" stroke-linecap="round" stroke-linejoin="round" stroke-miterlimit="10" stroke-width=".5" d="M141.26563 464.8086l5.46875 4.41015"/></g><path fill="none" stroke="#000" stroke-linecap="round" stroke-linejoin="round" stroke-miterlimit="10" stroke-width=".5" d="M155.49219 464.01172l3.64844 6.0039m-3.1211-5.1328l.6289-1.0547m11.625.57813l4.71485 5.21484m-4.02734-4.45703l.41406-1.15234m11.70313.97265l5.73437 4.0586m-4.90234-3.46875l.15625-1.21875m13.12109-.17969l4.14453 5.67578m-3.54297-4.84765l.53516-1.10547m12.07031.35937l4.35938 5.51172m-3.72266-4.71094l.49219-1.12109m12.9336-.13281l2.86718 6.41797m11.64844.29687l.46484-7.01172m-.39844 5.99219l-1.11719.5039m16.3125.07813l-3.42968-6.13672m2.92969 5.24219l-.66407 1.03125m15.78125-1.40234l-6.03125-3.60547m5.15235 3.08203l-.0625 1.22656m14.53906-1.29687l-6.59766-2.41797m5.63672 2.0664l.17188 1.21485m14.03906-3.44532l-6.46875 2.7461m16.45312 2.14062l.19532-7.02734m-.16797 6.0039l-1.09766.54688m15.46094.33985l-1.95313-6.75391m1.95313 6.7539l-1.76172 1.70704M333.78516 468l-6.7461-1.97266m5.76172 1.6836l.25 1.20312m13.19922.54297l-5.04687-4.88672m4.3125 4.17578l-.33985 1.1797m15.36328-2.58985l-6.9961-.64453m5.98048.55078l.47265 1.13281m13.77344-.52734l-6.82812-1.66797m5.83593 1.42578l.30079 1.1875m7.10937-2.22266l6.96875.88672m7.3164-2.89844l5.02735 4.91016m-4.29297-4.19531l.34375-1.17969m12.32031.38281l4.85938 5.07422m-4.15234-4.33594l.38671-1.16797m12.15625.4922l4.9922 4.94921m-4.26563-4.22656l.35156-1.17578m11.88281.875l5.69922 4.10547m-5.69922-4.10547l.33203-2.4336m12.96094 2.46094l5.74219 4.05078m-4.90625-3.46094l.15625-1.21875m11.82422 1.66016l6.73828 1.98828m-5.75781-1.69922l-.2461-1.20312"/><g clip-path="url(#F)"><path fill="none" stroke="#000" stroke-linecap="round" stroke-linejoin="round" stroke-miterlimit="10" stroke-width=".5" d="M143.1836 450.28125l1.6328 6.83594"/></g><path fill="none" stroke="#000" stroke-linecap="round" stroke-linejoin="round" stroke-miterlimit="10" stroke-width=".5" d="M156.86328 450.21484l.90625 6.96875m-.77734-5.95703l1-.71094m11.79687-.22656l1.6836 6.82031m-1.4375-5.82812l.91015-.82031m12.48438-.23828l1.03125 6.95312m-.8789-5.9414l.98437-.72657m13.12109-.29687l-.85547 6.97656m.73047-5.96094l1.14453-.4414m13.17578-.34766l-2.61328 6.52344m2.23047-5.57422l1.22266-.13281m14.67968 2.5703l-7.02343-.25m18.1953 3.35938l-2.73827-6.47265m16.77734 6.0586l-4.1875-5.64454m3.57813 4.82422l-.52735 1.10937m15.26563-1.13672l-5.8125-3.94921m4.96484 3.375l-.13281 1.22265m14.73047-1.53125l-6.67969-2.1836m5.70703 1.8672l.21094 1.20703m14.125-2.90235l-6.78125 1.83985m6.78125-1.83985l1.67969 1.78907m11.15234 1.10937l-5.8125-3.95312m5.8125 3.95312l-.26562 2.4375m12.14453-1.22266l-2.94141-6.3828m2.9414 6.3828l-1.48827 1.95313m14.5664-1.85547l-2.46875-6.57812m2.10938 5.62109l-.8125.91797m16.59375-2.16406l-6.6836-2.17188m5.71094 1.85547l.21484 1.20703m14.0586-.84766l-6.65235-2.2578m6.65235 2.2578l.39844 2.42188m12.57421-1.69531l-5.96875-3.71094m5.10157 3.17187l-.08203 1.22266m14.3828-4.1914l-6.20312 3.30468m5.30078-2.82422l1.01563.6875m8.13281-2.42578l3.9336 5.82031m-3.36329-4.97656l.57813-1.08203m11.1914 1.22656l5.88282 3.84375m-5.02735-3.28515l.10938-1.22266m12.80078.10938l4.98438 4.95312m-4.26172-4.23437l.35547-1.17188m12.14453.54688l5.16797 4.76562m-4.41407-4.07031l.3086-1.1875m11.8125 1.08594l6.05078 3.57421m-5.17188-3.05078l.05469-1.22656m12.08984 1.33203l6.63282 2.3164m-5.66797-1.97655l-.1875-1.21485"/><g clip-path="url(#G)"><path fill="none" stroke="#000" stroke-linecap="round" stroke-linejoin="round" stroke-miterlimit="10" stroke-width=".5" d="M147.38281 441.33594l-6.76562-1.90625"/></g><path fill="none" stroke="#000" stroke-linecap="round" stroke-linejoin="round" stroke-miterlimit="10" stroke-width=".5" d="M146.39844 441.0586l.26172 1.19921m14.1328-2.36719l-6.95702.98438m5.94531-.83984l.72266.99218m13.53125-1.51562l-6.8086 1.74219m5.8164-1.48829l.82813.90625m13.41797-1.36328l-6.6875 2.14844m5.71485-1.83594l.8789.85547m13.42969-1.10547l-6.73047 2.02735m5.75-1.73438l.86328.8711m13.58203-.08204l-7.02734-.14062m6.0039.1211l.5547 1.09374m13.74609-.64062l-6.95313-1.0039m5.9414.85546l.41407 1.15625m13.64844-.08594l-6.42578-2.84765m5.49219 2.4336l.08593 1.22265m14.07813-.63672l-6.25781-3.19531m6.2578 3.1953l.04298 2.45313m13.30078-2.51172l-6.3164-3.07812m6.3164 3.07812l.08594 2.45313m13.47656-3.1211l-6.8086-1.74218m6.8086 1.74219l.57812 2.38671m12.58985-4.57812l-6.51172 2.64453m6.51172-2.64453l1.8828 1.57031m11.6875-.34375l-7.02343.1875m7.02344-.1875l1.21094 2.13672m11.73047-.46094l-6.27735-3.16015m6.27735 3.16015l.05468 2.45313m13.58594-3.44922l-6.92969-1.17188m6.92969 1.17188l.77344 2.32812m12.57812-2.62109l-7-.58594m7 .58594l.96875 2.25781m11.95703-.91797L353.9297 438.75m6.22265 3.26562l.01172 2.45313m13.69922-4.3125l-7.01172.45312m7.01172-.45312l1.28906 2.08984m10.80079-4.53515l-4.5625 5.34375m4.5625-5.34375l2.39453.53125m10.92187-.53125l-4.5664 5.34375m4.5664-5.34375l2.39453.53125m10.8789-.5625l-4.48437 5.41015m3.83204-4.625l1.20312.25m10.375-1.83984l.29297 7.01953m-.25-6l1.0586-.6211m10.65234.03907l3.41797 6.14062m-2.92188-5.24609l.66797-1.03125m11.58984.52734l4.54297 5.35938m-3.88281-4.57813l.45312-1.14062m11.67188.91797l5.59766 4.2461m-4.78125-3.62891l.1953-1.21094"/><g clip-path="url(#H)"><path fill="none" stroke="#000" stroke-linecap="round" stroke-linejoin="round" stroke-miterlimit="10" stroke-width=".5" d="M147.44922 426.40234l-6.89844 1.33203"/></g><path fill="none" stroke="#000" stroke-linecap="round" stroke-linejoin="round" stroke-miterlimit="10" stroke-width=".5" d="M146.44531 426.59766l.77344.95312m13.58594-.88281l-6.98047.80078m6.98047-.80078l1.39453 2.01953m11.91016-2.10547l-6.95704.97656m6.95703-.97656l1.44141 1.98438m11.79297-2.39063l-6.79688 1.78516m6.79688-1.78516l1.66406 1.80469m11.625-1.90234l-6.74219 1.98046m5.75782-1.6914l.85937.875m13.55469-.59766l-6.97656.84766m5.96094-.72657l.70312 1.00782m13.0039 1.33203l-5.72656-4.07422m4.89453 3.48047l-.16015 1.21875m13.65625.0664l-4.42578-5.45703m3.78125 4.66407l-.47656 1.1289m14.23046-.17969l-4.01172-5.76953m3.4297 4.9297l-.5625 1.08983m13.8164.10157l-2.72656-6.47266m2.33203 5.53125l-.77735.95313m15.57422-.73047l-4.90234-5.03516m4.1914 4.30078l-.375 1.17188m15.46485-2.99219l-7.02735.07422m6.00391-.0625l.58594 1.07812m13.71875-.58203l-6.96094-.9414m5.94922.80468l.42578 1.14844m13.89063-2.01953l-6.94141 1.07422m6.9414-1.07422l1.47266 1.96484m11.79297-.62109l-6.83984-1.61328m5.84375 1.3789l.3125 1.1875m13.98437-.90625l-6.8164-1.70703m6.8164 1.70703l.59375 2.37891m12.38672-1.53125l-6.14453-3.40234m5.25 2.90625l-.01953 1.23047m14.57422-1.6172L366.9414 426.25m5.83593 1.39844l.3086 1.1875m12.26562-4.85547l-3.35937 6.17578m3.35937-6.17578l2.45313.02344m10.96875.03906l-3.57422 6.05078m3.05469-5.17188l1.22656.0586m10.54297-1.41406l.55469 7.0039m-.5547-7.0039l2.06641-1.32032m12.08985 1.35547l-1.1289 6.9336m1.1289-6.9336l2.32422-.78906m11.0664.80078l-1.27734 6.91016m1.27734-6.91016l2.33985-.73828m9.78125.72266l1.10937 6.9414m-1.10937-6.9414l1.95703-1.47657m10.95703 1.56641l1.91015 6.76172m-1.6328-5.77735l.88671-.84765"/><g clip-path="url(#I)"><path fill="none" stroke="#000" stroke-linecap="round" stroke-linejoin="round" stroke-miterlimit="10" stroke-width=".5" d="M147.50781 413.57813l-7.01562.35156"/></g><path fill="none" stroke="#000" stroke-linecap="round" stroke-linejoin="round" stroke-miterlimit="10" stroke-width=".5" d="M146.48828 413.6289l.6289 1.0547m13.71095-.9297h-7.02735m7.02734 0l1.15235 2.16798m12.14844-1.85547l-7-.625m5.98437.53125l.47656 1.1328m13.81641-1.96093l-6.92188 1.21875m5.91407-1.04297l.7539.96875m13.5586-1.19531l-6.90235 1.3164m19.25 1.82813l-4.96875-4.96875m15.08203 5.92188l1.4375-6.875m11.58594 6.80078l2.01953-6.73047m-1.72656 5.7539l-1.20312.23829m17.34765.17968l-4.22656-5.61328m3.61328 4.79688l-.51953 1.11328m14.60547-.42188l-4.53906-5.36328m3.8789 4.58594l-.45312 1.13672m14.1836-.16797l-4.05079-5.74219m3.46094 4.90625l-.55078 1.09375m15.90625-2.625l-6.95313-1.00781m5.9414.85938l.41798 1.15625m13.80859-2.4922l-6.75 1.96095m5.76562-1.67579l.85547.87891m13.40625-1.28516l-6.67578 2.20313m5.70313-1.88281l.88672.84765m13.53125-.64062l-6.9336 1.14844m5.92188-.98047l.7461.97265m12.97655 1.47266l-5.72656-4.07813m4.89063 3.48438l-.15625 1.21484m13.47265.20703l-4.0586-5.73437m3.46876 4.89844l-.55078 1.09765m14.03515-.0039l-3.21875-6.25m14.44922-.35547l.95313 6.96094m13.0625-6.98829l-.44922 7.01172m.44922-7.01172l2.23828-1.0078m11.08203 1.0078l-.46094 7.01172m.46094-7.01172l2.23828-1.0039m10.17969 1.0625l1.33203 6.89844m-1.33203-6.89844l1.91015-1.54297m11.02344 1.63672l2.09766 6.70703m-2.09766-6.70703l1.72656-1.7461m10.90235 2.04688l3.46875 6.10937m-3.46875-6.10937l1.3125-2.07422m12.10937 2.01563l3.25391 6.22656m-3.2539-6.22656l1.39062-2.02735"/><g clip-path="url(#J)"><path fill="none" stroke="#000" stroke-linecap="round" stroke-linejoin="round" stroke-miterlimit="10" stroke-width=".5" d="M147.46484 401.02344l-6.92968-1.17188"/></g><path fill="none" stroke="#000" stroke-linecap="round" stroke-linejoin="round" stroke-miterlimit="10" stroke-width=".5" d="M146.45703 400.85547l.38672 1.16406m13.98438-1.5l-7.02735-.16406m6.0039.14062l.55079 1.09766m13.61328-2.2539l-6.67578 2.1953m5.70312-1.875l.88672.84766m10.625-3.53906l-1.125 6.9375m.96094-5.92578l1.16016-.39844m10.42187-.39453l2.67188 6.5m8.65234-2.11328l6.65234-2.26953m7.01172 3l5.95313-3.73047m-5.08594 3.1875l-1.0664-.61328m14.27343 2.01562l4.4375-5.44922m-3.79297 4.65625l-1.20312-.23828m14.89062 1.60938l2.40235-6.60547m-2.0547 5.64453l-1.21483.16797m14.89453.96875l.97656-6.95703m-.83594 5.94531l-1.15234.41797m15.63672.53125l-1.64063-6.83203m1.39844 5.83594l-.91797.8125m16.54688-1.2422l-5.78907-3.98046m4.94922 3.40234l-.14062 1.21875m14.6289-4.02344l-6.45312 2.78125m5.51562-2.375l.95703.76563m11.97657-2.73047l-3.81641 5.89844m18.72266-3.2461l-7 .59766m20.13671.84766l-6.64062-2.29297m5.67578 1.95703l.1875 1.21484m13.58594.07813l-5.6289-4.20703m4.80859 3.59375l-.1875 1.21094m14.85937-1.64844l-6.70312-2.10938m5.72656 1.80469l.22656 1.20703m14.1836-2.50781l-6.9375 1.10547m5.92968-.94531l.73828.97656m11.96875-3.57031l-3.70703 5.97265m3.16797-5.10547l1.22266.08203m11.875-1.30078l-2.1914 6.67578m1.87108-5.70703l1.21094-.20703m11.55469-.92969l-.45313 7.01172m.45313-7.01172l2.23828-1.01171m10.78125 1.0039L437 403.95313m-.13672-7.02735l2.14453-1.1914m10.42969 1.28515l1.6211 6.83594m-1.6211-6.83594l1.83984-1.6211m11.3125 1.66407l1.94532 6.75m-1.66407-5.76953l.88282-.85156"/><g clip-path="url(#K)"><path fill="none" stroke="#000" stroke-linecap="round" stroke-linejoin="round" stroke-miterlimit="10" stroke-width=".5" d="M147.05078 388.86719l-6.10156-3.48828"/></g><path fill="none" stroke="#000" stroke-linecap="round" stroke-linejoin="round" stroke-miterlimit="10" stroke-width=".5" d="M146.16406 388.35938l-.03906 1.22656m14.53516-3.53516l-6.69141 2.14453m5.71875-1.83203l.8789.85547m10.90626-3.50781l-1.6836 6.82422m1.6836-6.82422l2.3789-.59766m9.08985.64063l2.0078 6.73828m-2.0078-6.73828l1.75-1.71875m9.23828 3.97265l6.66406 2.23047m-5.69531-1.90625l-.20313-1.20703m12.3789 1.71094l7.00392.57812m6.34375.26563l6.9375-1.11328m-5.9297.95312l-.73827-.98047m13.15625 1.6211l6.71484-2.07032m-6.71484 2.07032l-1.73828-1.73438m15.05859 1.7539l6.70312-2.11327m-6.70312 2.11328l-1.75-1.71875m15.14062 1.92578l6.5547-2.52735m-6.5547 2.52735l-1.85547-1.60547m15.78125 2.6289l5.33204-4.57421m-5.33203 4.57422l-2.28516-.89454m16.3164 1.53125l3.89844-5.84765m-3.33203 4.9961l-1.21875-.1211m12.78516-.36328l6.26562-3.17578m7.57032-.76172l5.22656 4.69922m13.39062-.08985l-5.3789-4.51953m4.59375 3.86328l-.25391 1.19922m14.4375-.64453l-5.54687-4.3164m4.73828 3.6875l-.21094 1.21093m14.59766-.97265l-6.07422-3.53516m6.07422 3.53515l-.09766 2.45313m13.88672-4.04688l-7.01953-.34765m7.01953.34765l1.04297 2.21875m12.0625-3.60156l-6.60157 2.41797m6.60157-2.41797l1.82422 1.64063m10.54296-3.03906l-4.70703 5.21484m4.70703-5.21485l2.37891.59766m10.00781-1.20312l-2.85156 6.42578m2.85156-6.42578l2.44922-.17188m9.74219-.11719l-.60156 7.00391m.60156-7.0039l2.25781-.96094m10.3125.97656l.88672 6.97265m-.88672-6.97265l2.0039-1.41406m10.19923 1.75l3.10937 6.30078m-3.10937-6.30078l1.43359-1.9922m12.44531 1.77345l1.98438 6.73828m-1.98438-6.73828l1.75-1.71875"/><g clip-path="url(#L)"><path fill="none" stroke="#000" stroke-linecap="round" stroke-linejoin="round" stroke-miterlimit="10" stroke-width=".5" d="M145.79688 376.82813l-3.59375-6.03907"/></g><path fill="none" stroke="#000" stroke-linecap="round" stroke-linejoin="round" stroke-miterlimit="10" stroke-width=".5" d="M145.27344 375.94922l-.63672 1.04687m15.49219-5.29296L154.5 375.91015m4.8086-3.59375l1.11327.52343m12.22657-1.90625l-4.03516 5.75m4.03516-5.75l2.4336.30079m-3.01954.53515l1.21484.14844m13.10547-.64063l-4.875 5.0625m4.875-5.0625l2.35938.67188m11.84375 2.98828l-6.65235-2.25781m6.65235 2.25781l.39453 2.42188M213.5039 375.75l-5.85547-3.88672m5.85547 3.88672l-.23828 2.44531m13.8789-3.0586l-6.50781-2.65624m6.50781 2.65625l.2461 2.4414m13.17578-2.74218l-6.71875-2.05469m6.71875 2.05469l.46484 2.41015m-1.44531-2.70703l.23437 1.20313m14.21094-1.78516l-7.01953-.29687m7.01953.29687l1.0586 2.21485m-2.08204-2.25782l1.0625 2.21094m13.23047-2.88672l-6.9336 1.14063m6.9336-1.14063l1.49219 1.94922m-2.5-1.78516l.7461.97657m13.10937 1.26171l-5.9961-3.66406m5.9961 3.66406L280 378.08985m13.17578-2.04687l-5.41797-4.47266m4.6289 3.82422l-.24608 1.20313m15.15234-2.82813l-7.02734.07813m6.0078-.06641l.58595 1.07422M320.5664 373.25l-6.94141 1.11719m5.92969-.95313l.74219.97656m12.85937 1.61329l-5.48828-4.39063m5.48828 4.39063l-.45703 2.41015m13.4961-2.10547l-4.9375-5m4.9375 5l-.73048 2.33985m.01172-3.0664l-.36328 1.16796m14.90235-1.07031l-5.94922-3.74219m5.94922 3.74219l-.1797 2.44531m-.6875-2.98828l-.08984 1.22265m14.76563-1.97656l-6.9336-1.14844m6.9336 1.14844l.78125 2.32422m12.01953-4.80078l-5.90625 3.80469m5.90625-3.80469l2.14063 1.19922m9.88671-2.39063l-3.33203 6.1875m3.33203-6.1875l2.45313.01172m10.64453-.11719l-2.89844 6.39844m2.89844-6.39844l2.44922-.15625m10.0586-.10156l-1.28126 6.91016m1.28125-6.91016l2.33985-.73437m10.73828.69922l-.8086 6.98046m.8086-6.98046l2.28515-.89454m10.45704.875l.33593 7.01954m-.33593-7.01954l2.10937-1.25m11.05078 1.26172l.64453 7m-.55078-5.98046l1.02735-.67188"/><g clip-path="url(#M)"><path fill="none" stroke="#000" stroke-linecap="round" stroke-linejoin="round" stroke-miterlimit="10" stroke-width=".5" d="M145.07813 363.83594l-2.15625-6.6875"/></g><g clip-path="url(#N)"><path fill="none" stroke="#000" stroke-linecap="round" stroke-linejoin="round" stroke-miterlimit="10" stroke-width=".5" d="M145.07813 363.83594l-1.70704 1.76172"/></g><path fill="none" stroke="#000" stroke-linecap="round" stroke-linejoin="round" stroke-miterlimit="10" stroke-width=".5" d="M160.60156 359.2539l-6.57422 2.47657m6.57422-2.47656l1.84375 1.62109m11.42578-1.73438l-6.48437 2.70704m6.48437-2.70704l1.89844 1.5547m-2.83984-1.16016l.94922.77734m13.57812.26172l-7.02344-.16406m7.02344.16406l1.10156 2.1914m-2.12109-2.21484l1.09766 2.1914m13.18359-1.63671l-6.91797-1.22266m6.91797 1.22266l.75781 2.33203m-1.76172-2.51172l.75782 2.33594m-1.76563-2.51172l.3789 1.16406m14.96095-.88672l-6.94532-1.0703m6.94531 1.0703l.8086 2.31641m-1.8164-2.47266l.80859 2.31641m-1.82032-2.47266l.40235 1.16016m14.95312-.98828l-6.98437-.78516m6.98437.78516l.90235 2.28125m-1.91797-2.39453l.90234 2.28125m13.4414-2.77735l-7.01171.4336m7.01172-.4336l1.28515 2.08985m-2.30468-2.02735l.64062 1.04688m13.61719-1.66797l-6.85547 1.55078m6.85547-1.55078l1.60156 1.85938m11.73438-1.76172l-6.89844 1.35546m6.89844-1.35546l1.54687 1.90234m-2.55078-1.70703l.77344.95312m13.60937-.43359l-7.02734-.07422m7.02734.07422l1.1289 2.17578m12.1836-2.32031l-7.02344.21094m6.00391-.1797l.60547 1.06642m13.23828-2.78907l-6.03906 3.59375m5.16015-3.07031l1.04688.63672m13.53906 1.46875l-6.82422-1.66016m6.82422 1.66016l.60938 2.3789m11.80468-.75l-5.01953-4.91796m5.01953 4.91796l-.6953 2.35157m-.03516-3.0664l-.34766 1.17577m14.58594-.67969l-5.41016-4.48437m5.41016 4.48438l-.4961 2.40625m14.48047-3.66797l-6.7461-1.96094m6.7461 1.96094l.5039 2.40234m12.6836-4.73047l-6.48828 2.69531m6.48828-2.6953l1.89453 1.55858m10.59766-2.7539l-4.84766 5.08594m4.84766-5.08594l2.36328.66015m10.38672-1.10156l-3.71484 5.96875m3.71484-5.96875l2.44531.16797m11.82813.71875l-5.63282 4.19922m5.63282-4.19922l2.21875 1.04688m10.85937-1.33204l-5.16015 4.76954m5.16015-4.76954l2.3164.8086m10.86329-.94922l-4.88672 5.05078m4.88672-5.05078l2.35937.67578m10.85547-.76953l-4.6875 5.23438m4.6875-5.23438l2.38282.58984m11.26953-.24609l-5.35938 4.54688"/><g clip-path="url(#O)"><path fill="none" stroke="#000" stroke-linecap="round" stroke-linejoin="round" stroke-miterlimit="10" stroke-width=".5" d="M466.24219 358.21875l2.27734.91016"/></g><g clip-path="url(#P)"><path fill="none" stroke="#000" stroke-linecap="round" stroke-linejoin="round" stroke-miterlimit="10" stroke-width=".5" d="M145.64063 350.28516l-3.28125-6.21485"/></g><path fill="none" stroke="#000" stroke-linecap="round" stroke-linejoin="round" stroke-miterlimit="10" stroke-width=".5" d="M145.64063 350.28516l-1.375 2.03125m.89843-2.9375l-.6875 1.01562m16.28906-2.54687l-6.89843-1.33985m6.89844 1.33985l.71875 2.34375m-1.72266-2.53907l.35937 1.17188m14.02344-1.64453h-7.02734m7.02734 0l1.15234 2.16406m-2.17578-2.16406l1.15235 2.16406m13.1836-2.04688l-7.02345-.23828m7.02344.23829l1.07813 2.20312m-2.10157-2.23828l1.07813 2.20312m13.25781-2.42187l-7.01953.26953m7.01953-.26953l1.23438 2.1211m-2.25391-2.08204l1.23438 2.1211m12.99609-2.89844l-6.8086 1.7461m6.8086-1.7461l1.65234 1.8164m-2.64453-1.5625l1.65234 1.8125m12.46485-2.60937l-6.42969 2.83203m6.42969-2.83203l1.92969 1.51562m-2.86328-1.10546l.96093.76171m12.90625-1.83203l-5.66797 4.15235m5.66797-4.15235l2.21094 1.0664m-3.03516-.46093l1.10547.53125m13.67188.39453l-6.9414 1.08985m6.9414-1.08985l1.47265 1.96485m11.64453-2.69922l-6.54687 2.5586m5.59375-2.1875l.92969.80077m13.54297-.38672l-6.95703.98829m5.9453-.84375l.72266.99218m13.625-.3086l-6.99609-.66796m5.97656.57031l.46875 1.13281m13.6289-.0625l-6.52343-2.60937m5.57422 2.22656l.13281 1.22266m13.71875-.09375l-5.69922-4.10547m5.69922 4.10547l-.32812 2.4336m-.5-3.03126l-.16407 1.21875m14.35157-.67969l-5.78907-3.98437m5.78907 3.98438l-.28125 2.4375m14.1914-4.03125l-6.98047-.80079m6.98047.80079l.89844 2.28515M360.5 346.5586l-6.91797 1.23829m6.91797-1.23829l1.51562 1.92579m11.08594-3.5l-5.48828 4.38671m5.48828-4.38671l2.25.97265m10.65235-1.40625l-4.66407 5.2539m4.66407-5.2539l2.38671.57813m12.08204 1.61718l-6.97266.8672m5.95703-.7422l.70703 1.00391m13.65235-.7461l-7.02735.10157m7.02735-.10156l1.17968 2.14843m12.08203-2.6953l-6.92578 1.1914m6.92578-1.1914l1.50391 1.9414m-2.51172-1.76563l.7539.96875m13.48438-1.52344l-6.7539 1.94922m6.7539-1.94921l1.70703 1.76562m-2.6914-1.48047l1.70703 1.76172m12.23437-2.8711l-6.03906 3.59766m6.03906-3.59765l2.09766 1.27343m-2.97656-.75l2.09765 1.27344m11.80079-2.21875l-5.44922 4.4414"/><g clip-path="url(#Q)"><path fill="none" stroke="#000" stroke-linecap="round" stroke-linejoin="round" stroke-miterlimit="10" stroke-width=".5" d="M466.28516 344.95703l2.26171.95313"/></g><path fill="none" stroke="#000" stroke-linecap="round" stroke-linejoin="round" stroke-miterlimit="10" stroke-width=".5" d="M465.49219 345.60547l1.13281.47656"/><g clip-path="url(#R)"><path fill="none" stroke="#000" stroke-linecap="round" stroke-linejoin="round" stroke-miterlimit="10" stroke-width=".5" d="M146.54688 336.28516l-5.09375-4.84375"/></g><path fill="none" stroke="#000" stroke-linecap="round" stroke-linejoin="round" stroke-miterlimit="10" stroke-width=".5" d="M146.54688 336.28516l-.66016 2.36328m-.08203-3.07031l-.32813 1.18359m15.02735-1.41797l-6.375-2.96094m6.375 2.96094l.1328 2.44922m-1.0625-2.88281l.13282 2.45312m14.42188-3.1914l-7-.6172m7 .6172l.95703 2.2578m-1.97266-2.34765l.47656 1.1289m13.8086-1.99218l-6.90625 1.28906m6.90625-1.28906l1.53125 1.91797m-2.53516-1.73047l.76563.95703m13.40625-1.6914l-6.61328 2.3828m6.61328-2.3828l1.8164 1.64843m11.26563-2.16015L207.5 335.5664m6.14844-3.40625l2.0586 1.33984m-2.95313-.84375l1.03125.66797m11.89453-2.48438l-3.57813 6.04688m3.57813-6.04688l2.44922.10938m-2.97266.76953l1.22656.05469m11.22266-1.40235l-.80078 6.98438m.80078-6.98438l2.28516-.89843m-2.40235 1.91406l1.14453-.44922m10.85156-.4336l2.07032 6.71485m-2.07031-6.71484l1.73046-1.73829m9.14063 4.60547l6.95703.98438m-5.94531-.83985l-.41797-1.15625m13.85547 4.1211l4.6914-5.23438m14.48438 2.57032l-7.02735.09375m18.72266 2.91015l-3.78906-5.91406m3.78906 5.91406l-1.20312 2.14063m15.36718-2.90235l-5.48828-4.39062m5.48828 4.39062l-.45312 2.41016m-.34375-3.05078l-.23047 1.20703m15.09375-2.40234l-6.99219-.71875m6.99219.71875l.92578 2.27343m12.01172-4.2539l-6.23438 3.24219m5.32813-2.76954l1.00781.69532m12.92578-1.62891l-5.66015 4.16406m4.83593-3.5586l1.10547.53126m13.1875-.91016l-5.96875 3.71094m5.96875-3.71094l2.1211 1.23047m10.52734-2.01953l-4.63281 5.28516m4.63281-5.28516l2.38672.5625m-3.0625.20703l1.19531.28125M400 335.66797l-6.02734-3.60938m5.15234 3.08204l-.0625 1.22656m14.11719-.49219l-5.75782-4.02344m5.75782 4.02344l-.29688 2.4375m14.07813-3.375l-6.6914-2.14844m6.6914 2.14844l.4336 2.41406m-1.40626-2.72656l.21875 1.20703m13.80469-3.66015l-6.16016 3.3828m6.16016-3.3828l2.05078 1.34375m-2.94531-.85157l1.02343.67188m12.67579-1.8711l-5.14063 4.79297m5.14063-4.79297l2.3203.80079m-3.0703-.10157l2.3203.79688m-3.0664-.10156l1.16016.40234m13.72265-1.71875l-5.28125 4.64062"/><g clip-path="url(#S)"><path fill="none" stroke="#000" stroke-linecap="round" stroke-linejoin="round" stroke-miterlimit="10" stroke-width=".5" d="M466.20313 331.54297l2.29296.86719"/></g><path fill="none" stroke="#000" stroke-linecap="round" stroke-linejoin="round" stroke-miterlimit="10" stroke-width=".5" d="M465.4336 332.21875l2.29296.86719m-3.0625-.1914l1.14844.43358"/><g clip-path="url(#T)"><path fill="none" stroke="#000" stroke-linecap="round" stroke-linejoin="round" stroke-miterlimit="10" stroke-width=".5" d="M146.86328 322.58203l-5.72656-4.07031"/></g><path fill="none" stroke="#000" stroke-linecap="round" stroke-linejoin="round" stroke-miterlimit="10" stroke-width=".5" d="M146.86328 322.58203l-.3125 2.4336m-.51953-3.02344l-.15625 1.21484m14.55469-1.03125l-6.22656-3.25781m6.22656 3.25781l.01562 2.45313m-.92187-2.92579l.00781 1.22657m14.61328-2.42188l-7.02734.07813m7.02734-.07813l1.17578 2.15625m-2.19922-2.14453l.58985 1.07813m13.42187-2.52344l-6.375 2.94922m6.375-2.94922l1.95703 1.48047m11.32032-1.5664l-6.29688 3.11718m6.29688-3.11719l1.99218 1.42969m11.23047-1.60547l-6.11328 3.46875m6.11328-3.46875l2.07031 1.3164m-2.96093-.8125l1.03515.66016m12.06641-2.35156l-3.90625 5.84375m3.90625-5.84375l2.4414.2461m-3.01171.60546l1.22265.1211m11.57032-1.45704l-1.72266 6.8125m1.72266-6.8125l2.3828-.58593m-2.6328 1.57812l1.1914-.29297m10.6211-.6914l1.78515 6.79687m-1.52734-5.8086l.90234-.83202m9.55078 2.89844l6.9922.6914m-5.97657-.58984l-.46485-1.13672m14.375 4.34375l3.76954-5.92969m-3.76953 5.92969l-2.44532-.1914m19.0039.46874l-2.71874-6.48047m2.71875 6.48047l-1.55078 1.89844m1.15625-2.84375l-.77344.95313m15.59766-.75391l-4.94922-4.98828m4.94922 4.98828l-.72657 2.34375m.00782-3.07031l-.72657 2.34375m15.58985-2.91016l-6.60157-2.40625m6.60157 2.40625l.33984 2.42969m-1.30078-2.77735l.33984 2.4297m14.12891-3.62892l-6.99219.69141m6.99219-.6914l1.35937 2.04296m-2.375-1.9453l1.35938 2.04296m12.6875-3.22266l-6.42188 2.85157m6.42188-2.85157l1.9336 1.51563m-2.8672-1.09766l1.9297 1.51172m12.1289-2.29687l-6.04297 3.58984m6.04297-3.58984l2.09766 1.27343m11.43359-.84765l-6.47266 2.73437m6.47266-2.73437l1.90234 1.54687m10.89453-2.40625l-5.4375 4.45313m5.4375-4.45313l2.26172.94922m-3.05468-.30078l1.1328.47266M400.5 320.49219l-7.02734.10937m7.02734-.10937l1.1836 2.14844m10.70312.73437l-4.17188-5.65625m4.17188 5.65625l-1.0586 2.21484m12.40235-1.53125l-.22656-7.02343m.1914 6.0039l-1.0625.60938m15.32031-3.10156l-.01953-.19922-.05859-.19141-.09375-.17578-.45703-.3789-.1914-.0547-.20313-.01953-.19922.01954-.1914.05468-.45704.3789-.09375.17579-.0586.1914-.01952.19923.01953.19921.0586.19141.09374.17969.45703.375.1914.0586.19923.01952.20312-.01953.1914-.0586.45704-.375.09375-.17968.0586-.1914.01952-.19923m15.30079-1.8164l-6.01563 3.63281m6.01563-3.63281l2.10546 1.26172m-2.98046-.73047l1.05468.6289m12.46485-1.96875l-4.67188 5.25"/><g clip-path="url(#U)"><path fill="none" stroke="#000" stroke-linecap="round" stroke-linejoin="round" stroke-miterlimit="10" stroke-width=".5" d="M465.89844 317.92188l2.38281.58203"/></g><path fill="none" stroke="#000" stroke-linecap="round" stroke-linejoin="round" stroke-miterlimit="10" stroke-width=".5" d="M465.21875 318.6875l2.38281.57813m-3.0625.18359l1.1914.29297"/><path fill="#00f" fill-rule="evenodd" d="M312.78516 476.52344h8.62109V466.3789h-8.6211v10.14453"/><path fill="azure" fill-rule="evenodd" d="M314.6211 468.21094h.83202v2.82422h3.28516v-2.82422h.83203v6.48047h-.83203v-2.91407h-3.28515v2.91407h-.83204v-6.48047"/><path fill="#00f" fill-rule="evenodd" d="M388.23828 472.08594h8.61719V461.9414h-8.61719v10.14453"/><path fill="azure" fill-rule="evenodd" d="M390.07031 463.77344h.83594v2.82422h3.28516v-2.82422h.83203v6.48047h-.83203v-2.91797h-3.28516v2.91797h-.83594v-6.48047"/><path fill="#00f" fill-rule="evenodd" d="M388.23828 432.14063h8.61719v-10.14454h-8.61719v10.14454"/><path fill="azure" fill-rule="evenodd" d="M390.07031 423.82813h.83594v2.82421h3.28516v-2.82421h.83203v6.48046h-.83203v-2.91796h-3.28516v2.91796h-.83594v-6.48046"/><path fill="#00f" fill-rule="evenodd" d="M370.48438 401.07422h8.62109v-10.14844h-8.6211v10.14844"/><path fill="azure" fill-rule="evenodd" d="M372.3164 392.76172h.83594v2.82031h3.28516v-2.82031h.83203v6.47656h-.83203v-2.91406h-3.28516v2.91406h-.83593v-6.47656"/><path fill="#ff3030" fill-rule="evenodd" d="M322.35938 392.19531h7.6914v-10.14453h-7.6914v10.14453"/><path fill="azure" fill-rule="evenodd" d="M324.1914 383.88281h.83204v5.73828h3.19531v.7422h-4.02734v-6.48048"/><path fill="#ff3030" fill-rule="evenodd" d="M189.20703 374.4414h7.6914v-10.14452h-7.6914v10.14453"/><path fill="azure" fill-rule="evenodd" d="M191.03906 366.1289h.83594v5.7422h3.1914v.73827h-4.02734v-6.48046"/><path fill="#ffffe0" fill-rule="evenodd" d="M353.78906 383.55078h22.17969v-10.1914h-22.17969v10.1914"/><path fill-rule="evenodd" d="M357.28906 375.1914h.50781v6.29688h-.78515v-4.49219h-1.39063v-.55468l.5625-.06641.25-.05078.23047-.08985.20313-.14453.17578-.20703.14062-.29687.10547-.39453m4.8125 0l.23047.01953.21875.05469.20703.08984.19531.1211.1875.14843.16797.17578.3047.42188.24218.49218.17969.54688.11328.57812.03515.59375-.03515.58985-.11328.58594-.1797.55468-.24218.5-.30469.42969-.16796.17969-.1875.15234-.19532.125-.20703.08985-.21875.05859-.23047.01953-.23047-.01953-.21875-.0586-.20703-.08984-.19531-.125-.1836-.15234-.17187-.17969-.30078-.42969-.2461-.5-.17968-.55469-.10938-.58593-.03906-.58985h.83203l.03125.5625.08203.50391.125.44531.16016.3711.1914.30078.21094.22265.22266.13672.22656.04688.22656-.04688.22266-.13672.21094-.22265.1914-.30078.16016-.3711.1289-.44531.08204-.5039.02734-.5625-.02734-.5625-.08203-.5-.1289-.4375-.16017-.36329-.1914-.29297-.21094-.21484-.22265-.13281-.22657-.04297-.22656.04297-.22266.13281-.21093.21484-.19141.29297-.16016.36328-.125.4375-.08203.5-.03125.5625h-.83203l.03906-.59375.10938-.57812.17969-.54688.24609-.49218.30078-.42188.17188-.17578.18359-.14844.19531-.1211.20703-.08983.21875-.0547.23047-.01952m5.09375 0h.50781v6.29687h-.78906v-4.49219h-1.38672v-.55468l.5586-.06641.2539-.05078.23047-.08985.20313-.14453.17187-.20703.14063-.29687.10937-.39453m2.82031 2.17578h.78907l.01953-.3164.0586-.28517.09765-.2539.14062-.21485.1836-.17578.22265-.1289.26563-.07813.3086-.02734.23437.01953.22656.0625.20313.10156.17968.14063.14844.17187.11328.20703.07031.23438.02735.26562-.02344.26954-.0664.22265-.10938.1914-.15625.17188-.19922.16406-.2461.16407-.63671.39062-.53516.3125-.4375.3164-.34765.32423-.26563.33594-.1875.35156-.125.3711-.07031.39062-.01953.42187h4.21093v-.74219h-3.33203l.08203-.28515.11329-.23438.14843-.20312.1875-.17969.23047-.17188.28125-.17578.71485-.41796.41406-.20313.34765-.23047.28125-.2539.21875-.26563.16407-.27734.10937-.28516.0664-.28516.01954-.28125-.04297-.3828-.1211-.34767-.1875-.30859-.25-.26172-.30077-.21484-.34766-.15625-.3789-.09766-.40626-.03515-.4375.03125-.39844.10156-.35546.16406-.3047.23438-.24608.30468-.1875.375-.11329.44532-.04296.51953"/><path fill="#ffffe0" fill-rule="evenodd" d="M168.03125 392.42578h22.17969v-10.1914h-22.17969v10.1914"/><path fill-rule="evenodd" d="M171.53125 384.07031h.50781v6.29297h-.78515V385.875h-1.39063v-.5586l.5586-.0625.2539-.05468.23047-.08985.20313-.14062.17187-.21094.14453-.29297.10547-.39453m4.8125 0l.23047.01563.21875.0586.20703.08983.19531.1172.1836.15234.17187.17578.30469.41797.24219.49218.17968.54688.10938.58203.03906.58984-.03906.59375-.10938.58204-.17968.55468-.2422.5039-.30468.42579-.17187.17969-.1836.15234-.19531.125-.20703.09375-.21875.05469-.23047.01953-.23047-.01953-.21875-.05469-.20703-.09375-.19531-.125-.1836-.15234-.17187-.17969-.30469-.42578-.24219-.5039-.17968-.5547-.10938-.58203-.03906-.59375h.83203l.02734.5625.08203.50782.12891.4414.16016.375.1914.30078.21094.21875.22266.14063.22656.04687.22656-.04687.22266-.14063.21094-.21875.1914-.30078.16016-.375.1289-.4414.07813-.50782.03125-.5625-.03125-.5625-.07813-.5-.1289-.43359-.16016-.36719-.1914-.29297-.21094-.21484-.22266-.1289-.22656-.04688-.22656.04687-.22266.12891-.21094.21484-.1914.29297-.16016.36719-.1289.4336-.08204.5-.02734.5625h-.83203l.03906-.58985.10938-.58203.17968-.54688.2422-.49218.30468-.41797.17187-.17578.1836-.15235.19531-.11719.20703-.08984.21875-.0586.23047-.01562m5.08984 0h.51172v6.29297h-.78906V385.875h-1.38672v-.5586l.5586-.0625.2539-.05468.22656-.08985.20313-.14062.17578-.21094.14063-.29297.10546-.39453m2.82422 2.17188h.78906l.01954-.3164.05859-.28517.09766-.25.14062-.21875.17969-.17187.22656-.1289.26172-.08204.3086-.02734.23827.02344.22266.0625.20703.10156.17969.13672.14844.17578.11328.20312.07031.23829.02344.26171-.01953.26954-.0664.22656-.10938.1914-.15625.17188-.19922.16015-.25.16797-.63281.38672-.53516.3125-.4375.3164-.34766.32813-.26562.33204-.1875.35156-.125.3711-.07031.39452-.01954.41797h4.21094v-.74219H185l.08203-.28125.11328-.23828.14844-.20312.1875-.17969.23047-.17188.27734-.17578.71875-.41406.41406-.20703.34766-.23047.28125-.25.21875-.26953.16406-.27734.10938-.28125.0664-.28516.01954-.28125-.04297-.38281-.1211-.35156-.1875-.3047-.25-.26562-.30468-.21094-.34375-.16015-.38282-.09766-.40625-.03125-.43359.03125-.39844.09766-.35547.16797-.30468.23437-.2461.30469-.1875.3711-.11719.44921-.03906.51563"/><path fill="#ffffe0" fill-rule="evenodd" d="M213.03125 443.75h22.17969v-10.19531h-22.17969V443.75"/><path fill-rule="evenodd" d="M216.53125 435.39063h.50781v6.29296h-.78515v-4.48828h-1.39063v-.55469l.5625-.0664.25-.05469.23047-.08984.20313-.14063.17578-.21094.14062-.29296.10547-.39454m4.8125 0l.23047.01954.21875.05468.20703.08985.19922.1211.1836.14843.17187.17578.30078.41797.24219.4961.17968.54687.11328.57812.03516.58985-.03516.59375-.11328.58593-.17968.55079-.2422.5039-.30077.42578-.17188.17969-.1836.15625-.19921.1211-.20703.09374-.21875.0547-.23047.01952-.22656-.01953-.22266-.05469-.20703-.09375-.19531-.12109-.1836-.15625-.17187-.17969-.30078-.42578-.2461-.5039-.17968-.55079-.10938-.58593-.03906-.59375h.83203l.03125.5625.08203.5078.125.44142.16406.375.1875.30078.21094.22265.22266.13672.22656.04688.22656-.04688.22266-.13672.21094-.22265.1914-.30079.16406-.375.125-.4414.08204-.50781.02734-.5625-.02734-.5625-.08203-.5-.125-.4336-.16407-.36719-.1914-.29296-.21094-.21094-.22266-.13281-.22656-.04688-.22656.04688-.22266.1328-.21094.21095-.1875.29296-.16406.3672-.125.43359-.08203.5-.03125.5625h-.83203l.03906-.58985.10938-.57812.17968-.54688.2461-.4961.30078-.41796.17187-.17578.1836-.14844.19531-.1211.20703-.08984.22266-.05468.22656-.01954m5.09375 0h.50781v6.29297h-.78515v-4.48828h-1.39063v-.55469l.5586-.0664.2539-.05469.23047-.08984.20313-.14063.17187-.21094.14453-.29296.10547-.39454m2.82031 2.17579h.78906l.01954-.31641.05859-.28906.09766-.25.14062-.21485.1836-.17578.22265-.1289.26563-.08204.30859-.02734.23828.02344.22266.0625.20312.10156.17969.13672.14844.17578.11328.20313.07031.23828.02734.26172-.02343.26953-.0664.22656-.10938.1914-.15625.17188-.19922.16016-.2461.16797-.63672.38671-.53515.31641-.4375.3164-.34766.32423-.26172.33593-.1914.35157-.125.36718-.07031.39454-.01954.41796h4.21094v-.73828H230l.08203-.28515.11328-.23829.14844-.19921.1875-.1797.23047-.17187.28125-.17578.71484-.41797.41797-.20703.34375-.23047.28125-.25.21875-.26562.16406-.28125.11328-.28125.0625-.28516.01954-.28125-.04297-.38281-.11719-.34766-.1914-.30859-.25-.26172-.30079-.21484-.34765-.15625-.37891-.10156-.40625-.03125-.4375.03125-.39844.09765-.35156.16797-.30469.23438-.25.30468-.1875.375-.11328.44531-.04297.51954"/></g></defs><use xlink:href="#V"/></svg>