<svg xmlns="http://www.w3.org/2000/svg" role="img" xmlns:xlink="http://www.w3.org/1999/xlink" viewBox="142.45 309.95 326.84 171.84"><defs><clipPath id="a"><path d="M144 311.67188h1v168.65625h-1zm0 0"/></clipPath><clipPath id="b"><path d="M144 311.67188h324v168.65625H144zm0 0"/></clipPath><clipPath id="c"><path d="M467 311.67188h1v168.65625h-1zm0 0"/></clipPath><clipPath id="d"><path d="M144 478h4v2.32813h-4zm0 0"/></clipPath><clipPath id="e"><path d="M154 478h7v2.32813h-7zm0 0"/></clipPath><clipPath id="f"><path d="M167 478h7v2.32813h-7zm0 0"/></clipPath><clipPath id="g"><path d="M180 478h8v2.32813h-8zm0 0"/></clipPath><clipPath id="h"><path d="M195 477h5v3.32813h-5zm0 0"/></clipPath><clipPath id="i"><path d="M207 477h7v3.32813h-7zm0 0"/></clipPath><clipPath id="j"><path d="M220 478h8v2.32813h-8zm0 0"/></clipPath><clipPath id="k"><path d="M235 476h4v4.32813h-4zm0 0"/></clipPath><clipPath id="l"><path d="M247 477h7v3.32813h-7zm0 0"/></clipPath><clipPath id="m"><path d="M260 478h8v2.32813h-8zm0 0"/></clipPath><clipPath id="n"><path d="M276 476h3v4.32813h-3zm0 0"/></clipPath><clipPath id="o"><path d="M290 476h1v4.32813h-1zm0 0"/></clipPath><clipPath id="p"><path d="M303 476h2v4.32813h-2zm0 0"/></clipPath><clipPath id="q"><path d="M316 476h2v4.32813h-2zm0 0"/></clipPath><clipPath id="r"><path d="M329 476h3v4.32813h-3zm0 0"/></clipPath><clipPath id="s"><path d="M341 477h5v3.32813h-5zm0 0"/></clipPath><clipPath id="t"><path d="M353 479h8v1.32813h-8zm0 0"/></clipPath><clipPath id="u"><path d="M359 479h2v1.32813h-2zm0 0"/></clipPath><clipPath id="v"><path d="M366 479h9v1.32813h-9zm0 0"/></clipPath><clipPath id="w"><path d="M372 479h2v1.32813h-2zm0 0"/></clipPath><clipPath id="x"><path d="M380 477h7v3.32813h-7zm0 0"/></clipPath><clipPath id="y"><path d="M395 476h4v4.32813h-4zm0 0"/></clipPath><clipPath id="z"><path d="M406 479h9v1.32813h-9zm0 0"/></clipPath><clipPath id="A"><path d="M407 478h2v2.32813h-2zm0 0"/></clipPath><clipPath id="B"><path d="M420 478h8v2.32813h-8zm0 0"/></clipPath><clipPath id="C"><path d="M434 477h6v3.32813h-6zm0 0"/></clipPath><clipPath id="D"><path d="M446 478h8v2.32813h-8zm0 0"/></clipPath><clipPath id="E"><path d="M460 477h7v3.32813h-7zm0 0"/></clipPath><clipPath id="F"><path d="M144 464h3v6h-3zm0 0"/></clipPath><clipPath id="G"><path d="M144 450h2v8h-2zm0 0"/></clipPath><clipPath id="H"><path d="M144 439h4v2h-4zm0 0"/></clipPath><clipPath id="I"><path d="M144 425h4v4h-4zm0 0"/></clipPath><clipPath id="J"><path d="M144 413h4v2h-4zm0 0"/></clipPath><clipPath id="K"><path d="M144 399h4v3h-4zm0 0"/></clipPath><clipPath id="L"><path d="M144 385h4v4h-4zm0 0"/></clipPath><clipPath id="M"><path d="M144 370h3v7h-3zm0 0"/></clipPath><clipPath id="N"><path d="M144 356h2v9h-2zm0 0"/></clipPath><clipPath id="O"><path d="M144 363h2v3h-2zm0 0"/></clipPath><clipPath id="P"><path d="M465 357h3v2h-3zm0 0"/></clipPath><clipPath id="Q"><path d="M144 343h2v8h-2zm0 0"/></clipPath><clipPath id="R"><path d="M144 350h2v3h-2zm0 0"/></clipPath><clipPath id="S"><path d="M465 344h3v2h-3zm0 0"/></clipPath><clipPath id="T"><path d="M144 331h3v6h-3zm0 0"/></clipPath><clipPath id="U"><path d="M465 331h3v2h-3zm0 0"/></clipPath><clipPath id="V"><path d="M144 318h4v5h-4zm0 0"/></clipPath><clipPath id="W"><path d="M465 317h3v2h-3zm0 0"/></clipPath><g id="X" clip-path="url(#clip1)"><path fill="#fff" fill-opacity="0" fill-rule="evenodd" d="M0 0h1000v1000H0zm0 0"/><path fill="#d3d3d3" fill-opacity="0" fill-rule="evenodd" d="M162.15234 355.86719l-.23437.29297.0586.23437.11718.17188.17578.23437.29297.34766.11328.0586.11719-.17188.0586-.23438.17577-.17578.46485-.17578h.69922l.23437.29297.28906.8164.0586.17579.17578.23046.35156.23438.69922.69922.17188.17578.23437.34765.23438.41016.28906.58203.41015.46485.23047.23437.23438.17578.11719.23047.17578.29297.17187 1.16406v.23438l.0586.28906.05859.11719.11719.11719.34765.41015.11719.17188.17578.17578.17578.23437.11719.17188.17188.35156.05859.23438.23437.40625.23438-.0586-.17578.17578-.0586.92969h-.58203l-.23437-.11328-.34766.11328-.11719.11719-.05859.29297-.0586.17578-.11718.17187-.46484.29297-.0586.23438-.0586.11328v.64453l.0586.17187v.41016l.0586.0586v.40624l.05859.40625.11719.17579.05859.05859.23047.64062-.0586.29297v.69922l-.05859.58203v.23438l-.0586.23047-.05468.35156v1.92187l.05469.1172h.42578l-.36719.11718-.02344.35156.89063 1.16797 1.74219.53906 1.33984.35938v.53906l.08984.8086.53516.71484 1.51953.26953.89063-.08594.08984 1.16406.53516.1797 1.16015-.1797 2.05469-.98437 1.16016-.36328 1.8789-.17578 1.69531-.1797-.17968.71876-1.51563.08594-1.25.08984-.80469.26953-1.07421.8086.26953.71875.53515.89843-.17968.625-.26563.8086.26563 1.07812.625.89844.80468.17969 1.25-.1797-.26562.72267.09766.5039.05468.29297v.17188l.0586.29296v.40625l.17578.1172.35156.11718h.40625l.29297-.17578.11328-.11719.0586-.11719.11718-.23047.0586-.17578.35156-.46484.23047-.17578.17578-.0586.17578.0586.0586.17578.11718.98828.05469.46875.0586.17188.11718.23437.17578.0586.8164.05859h.28907l.11719.23437.05859.40625.0586.35156v1.10547l.11718.29297.11719.34766.28906.69922.17578.35156.58203.7539.35157.17579.17187.0586.46875.23437.64063.46484.34765.23438.29297.17578.29297.05468.23047.0625.8164.34766.29297.17578.11328.17188.35157.35156.11719.17578.52343.64063v.28906l.0586.35156v.34766l.05859.35156.0586.28906.11718.0586.17188.05859h.17578l.58203.23437.17578.1172.17578.28905.17578.23438.11328.23437.29297.23047.11719.11719v.41016l.0586.05468.28906.23438.23437.11719.0586.11718.11718.17188.0586.11719.23047.23437.05859.17578.23437.0586.1172.05859-.1172.11328-.05859.11719v.11719l-.11719.29296-.11719.28907v.58203l.17579.11719.11718.05859.0586.11719.11719.11719.11328.05859.17578.34765.0586.35157.05858.40625v.17578l-.05859.17578-.11719.69922v.17187l.1172.17579.29296.29296h.40625l.17578.1172.11719.17187.11719.29296v.23438h-.52735l-.23047-.23438h-.23437l-.17578.0586-.0586.69922.0586.34765.11719.17579.17578.41015.11718.23047.28907.46875.17578.05469h.52344l.23437.0586.75781.64062.0586.29296v.23438l.05859.0586.23047.34765v.35156l-.11719.17188v.29297l.29297.28906.29297.17578.17187.0586.29297.17577.29297.1172.58203.40624.28906.23438.29297.17578.21875.16015.01563.01172.23047.17579.64062.52343.17578.23438.1172.17578.17577.17578.11328.17188v.64062l.1172.17578.46874.11719.58203.11719.23438.05859.23047.11328.29297.11719.11328.0586.58593.35156.28907.17187.17578.0625.17578.05469.17578.0586.69922.35155.28906.17579.23438.05468.28906.17578.23437.1172.64063.40624.29297.11719.17187.0586.23438.05859.41015.05859.23047.0586.23438.11718.0586.17188-.41017.17578.46875.0586.0586.29296.11328.23438.17578.05468.23438.0586.17578.05859.40625.11719.64062.23437.11719.17188.0586.23437v.17578l-.0586.1172-.0586.40624.23438.23438.11719.05859.34766.11719.64062.23047.17578.11718.28906.1172.17578.17577.23438.46485.58203 1.10546.17578.17579.34766.17578.17578.11719.35156.11718 1.04688.52344.23437.0586.46485.11327.29297.0586.46484.17578.75781.58203.23438.23438.34765.46484.17578.17578.28907.23438.8164.69921.29297.17579.28906.28906.29297.17578.29297.28906.69531.64063.17578.17578.29297.23437.28907.23438.46875.28906.64062.58203.34766.23438.23437.29297.34766.34765.35156.46485.9336.99218.34765.40625.11719.17579.23437.05859.11328.11719.64454.17578.23047.11328.23437.0586.29297.17577.23047.1172.9336.69921.40624.40625.23438.17578.40625.17578.23437.11719.8164.34766.34766.23437.23438.11719.29297.28906.23047.11719.7578.35156.35157.17188.23047.05859.29297.11719.23437.0586.8711.17577h.8164l.46875.23047.17188.0586.875.69921.46484.1172.29297.05858.17578.0586.23047.0586.46875.05859.34766.05859.35156.0586.40625.05859h.29297l.17187.0586v.23046l.17578.17578h.29297l.34766.0586.35156.05859.69922.11719h.64063l.46484-.23438.29297-.17578.17187-.11719.41016-.17187.28906-.17578.9336-.46485.46875-.29297.52343-.29296.46485-.17188.46484-.17578 1.05078-.46485.28906-.11718.41016-.11719.28906-.11719.52735-.17578 1.51562-.69922.58203-.34765.28907-.0586.29297-.0586.34765-.11718.875-.23047.35156-.11719h.11329l.23437-.05859.875-.23437.23438-.0586h.8125l.35156-.0586.8164-.11718.17188-.0586.35156-.05468.29297-.0586.23047-.05859.8164-.17578.17579-.0586h.34765l.23438-.05859.46484-.11718.75781-.17188.23438-.0586h.34765l.41016-.11718.28906-.0586 1.28516-.05859h.28906l.41016-.0586.23047-.05858h.17578l.875-.1172h.40625l.41015-.11718h.34766l.35156-.11328.8711-.0586h1.75l1.04687.28907.41016.11719.28906.11718.35156.11719.28907.11719 1.05078.17187.28906.0586h.29297l.29297.05859.17187.0586.41016.05859.17187.0586.1172.05858h.11718l.11719.0586.35156.0586h.11328l.41016.0664 1.92187.39453 1.92578.39453 1.51953.44922 1.69532.71875 2.14453.80469 1.60547-.71875 1.42968-.80469 1.16016-1.07813 1.25-.44921 3.03516-.71875 1.875-.35938 2.14453-1.34765 2.23437-1.25391 2.5-1.25781 1.69531-.44922 1.78516-.17969 1.16016-.26953.625.53906 1.33984-.26953.71485-.98828.98437-1.34375.44531-.17969.80469-.35937 1.875-.53907 1.78516-.44921 1.25-.26954 1.16015-.08984 1.69922-.08984 1.96094-.26954 1.25-.08984h.53906l.625-.08984h.89063l2.14453-.17969 2.41015-.17969 2.58985-.08984 1.69531.17969 1.60938.08984 1.42968.35938 1.16016.71875 1.875.98828 1.16015 1.52734.26563.71484.6289.08985.35548.89844.53515.53906.53516 1.52734 1.07422.35938h.53515l-.80469.53515.08985 1.70703.71484 2.69532.89063.80468.89453.98829.71484 1.2578 1.78516.53907 1.51953-.17969.35547 1.34375 1.60937-.80469.98047-.53906.26953.26953.31641-.21484.21875-.14453.80078.44922.44922-.35938h.35547l.53515-.26953.53907-.71875.53515-.26953.625-.98828 1.16016.44922.83984.3711 1.39454.61718 1.6953-.17969h1.60548l1.78515.08985.17969-1.70704.53516-1.34375.80468.26954.4922.84765.40233.40625-.08984.53906v.35938l.71485.44922.71093-.26953h1.42969l.35938.98828.4453 1.25781.71485 1.34375 1.25.6289 1.69531.62891.71485-.17969.17969-.53906.98046-.08984.44922.35937.08594 1.25782-.26563.6289-.53515.17969v.53906l.71484.98438.26563.53906.98437.98828.80078 1.07813-.26562.35937-.08985.89844-.625 2.33203-.35546 2.0664-.08985 1.79298-.17969.71875-.08984.53906v1.4375l-.98047 1.88281-.35937 1.70703-.53516.89844-.80469 1.16797-.26562.53906 2.05469 1.2539.08593.35938-.35546.53906-.08985-.17968v.80859l.08985 1.4375-.44532.71484-1.07422.09375-.26562.71485.53515.89844.8047.71875 1.16015.80859 1.33984.26953.44531.35938-.35546.44921-1.78907-.08984-1.25-.44922-.71484-.71875-.625-.08984-.17578 3.58984-.1875 1.3086h89.35937V311.70313h-55.26953v49.08203l.76172.125 3.28906.54296 2.02344 2.83594v2.7539l2.35156.33204 2.34766.33203h4.05078l-1.3789 4.16016-2.02344.70703-2.02344.70312-.54297.34375-2.59375 1.6172-.1875.11718-2.02344-2.07813-.73046-2.74218-2.67188-2.07813-1.375-3.5-.0664-.08203-1.95704-2.67188 2.75-1.41796v-49.08204H294.42187v91.41407l.1172.03125.1328.01172.07422.07421.10547.04688.08985.0586.08593.05859.08985.0586.29687.29687.0586.08984.03125.11719.02734.11719.01563.13671-.03125.1172-.0586.08983-.0586.08594-.04296.10547-.04688.10156-.02734.1211v.14453l.17578.26953.14844.14844.07422.08594.07422.07421.04296.10547.0625.08985.0586.08593.04297.10547.0586.08985.04687.10156.04296.10547.0586.08594.11719.17968.07421.07422.0625.08594.0586.08984.04297.10547.0586.08985.05858.08593.0625.08985.0586.08984.04297.10156.11719.17969.07421.07422.0586.08594.07422.07421.08984.0586.10547.04687h.14844l.1328-.01562.13282.01562.10156-.04687.07422-.07422.04688-.10156-.01563-.13281v-.14844l-.04687-.10547-.02735-.11719-.04687-.10156-.02735-.1211-.04296-.10156-.0625-.08984-.04297-.10156-.04297-.10547-.03125-.11719-.01563-.13281-.01171-.13672.08593-.0586.0586-.08593.12109-.03125.04297.10547.01562.1328v.1172l.0586.10156.0586.08984.08983.0586.14844.14843.0586.08985.04296.10547-.01171.10156.08593.0586.10547.04687.08594.0586.08984.05858.07422.07422-.11719.02735-.10546.04687-.08594.0586-.07422.07421-.0586.08985-.0625.08594-.02734.12109-.04687.10156-.04297.10547-.03125.11719-.01172.13281-.01563.13281v.14844l.02735.11719.04687.10547.04297.10156.0586.08984.07421.07422.08985.0586.07422.07421.08984.0586.0586.08984.04296.10547.04688.10156.11719.03125.1328.01563h.14845l.11718-.03125.10547.04297.04297.10547.04688.10156.02734.1211L299.5 410l.02734.11719.03125.1211.02735.11718.10547.04297.10156.04687.13281-.01562.14844.14844.0625.08593.07422.07422.07031.07422.08984.0625.10547.04297.10156.04297.1172.03125.13671.01562.11719-.03125.07422-.07422.02734-.11718-.01172-.13282-.03125-.12109-.02734-.11719.04297-.10547h.11719l.08984.0625.11719.02735h.14843l.13282.01562h.14843l.13282.01563.1328-.01563h.14845l.1328-.01562.13282-.01172.13672.01172.11719-.02735.13281-.01562.1914-.0586-.05859.17579-.01562.1328-.02735.1211-.01562.13281-.0586.08594-.1328.01563-.10548.04687-.10546.04297-.1172.03125-.11718.02735-.26563.03125h-.14843l-.13281.01562-.07422.07422.05859.08594.14844.14843.11719.1797.07421.0703.08985.0625.08984.0586.08594.0586.08984.05858.10156.04297.10547.0625.10547.04297.08594.0586.10547.04687.10156.04297.17969.11719.0586.08984-.04298.10156-.04687.10547.01562.13281.22266.22266.0586.08985.04296.10156.03125.1211.04297.10155.01563.13282.03125.11718.01171.13672.03125.11719.14844.14844.10156.04297.10547.04296.1172.03125.1328.01563.13672.01563h.11719l.11719-.03125.08984-.0586.04297-.10547.04688-.10156.04296-.10547.03125-.11719.01172-.1328v-.14845l-.01172-.1328-.01562-.13282-.03125-.11719-.04297-.10547-.04688-.10547-.04296-.10156-.04297-.10547-.01563-.13281.01563-.13281.02734-.11719.03125-.11719.02735-.1211.04687-.10155.08984-.0586.08594-.0625.07422-.07422.08984-.05859.22266-.22266.0586-.08593.07421-.07422.11719-.17969.0586-.08594v-.14844l-.07423-.07421-.10156-.04688-.10547-.04297-.10156-.04297-.0586-.08984-.04687-.10547-.02734-.11719.08984-.05859.11719-.03125.10156-.04297.17969-.11719.14844-.14843.01172-.13282-.01172-.10546-.08985-.0586-.1328.01563h-.14845l-.1328.01562-.13282-.01562-.1211-.03125-.08593-.0586-.07422-.07422-.0586-.08984-.0625-.08594-.11718-.17969-.0586-.08593.03125-.1211.08594-.05859.1211-.03125.05859-.08594v-.1211l-.03125-.11718-.0586-.08984-.05859-.08594-.04687-.10547-.02735-.11719-.01562-.1328.0586-.08985.07421-.07422.08984-.0586.1172-.17968.07421-.07422.0586-.08594.14843-.14844.1211-.03125.1328-.01562.13282.01562.07422.07422.04297.10547.01562.13281-.03125.1172-.11719.03124-.1328.01172-.14844.14844-.04297.10547-.04688.10156-.02734.1211-.03125.11718v.14844l.03125.11719.04297.10546.05859.08985.07422.07031.07422.07422.11719.03125.12109.02734.11719-.02734.1328-.01563h.1172l.08984.0586.07422.07422.04687.10546.0586.08594.10156.04688.13281.01562.10547.04297.08594.0586-.01172.10546-.07422.07422-.17969.11719-.05859.08984-.08984.0586-.07032.07422-.07421.07421-.0625.08985-.02735.11719-.01562.1328.01562.13282-.01562.13281v.14844l.01562.13281.02735.1172.03125.12108.07421.07422.08985.0586.08594.0586.08984.05858.11719.03125v.08594l-.10157.04688-.08984.0586-.26563.03124-.11718.02735h-.14844l-.10547.04296-.10156.04688-.0586.08984-.0625.23438-.01171.13281-.03125.1211-.01563.1328v.29298l-.01172.1328.01172.13673.01563.1328.1328.01563.13282.01172.1211.03125.08593.0586.07422.07421.04688.10547.04296.10157.01563.1328v.44532l-.01563.13281v.44532l.03125.26562.02735.11719.01562.13281.03125.11719.08594.21094.03125.26562v.14844l-.03125.11719-.02734.11718-.03125.1211-.02735.11719-.03125.11718-.03125.1211-.01171.1328-.01563.13282.08984.0586.1172-.03125.10155.01562.04688.10547-.03125.26562v.44141l-.04297.10547-.04688.10547-.04296.10156-.04297.10547-.0586.08594-.03125.12109-.04296.11719-.03125.11719-.01563.1328.01563.13282.05859.08984.10547.04688.08594.0586.05859.08593-.01172.13672-.03125.11719-.04297.10156v.44531l-.01562.13281v.14844l-.03125.11719-.04297.10547-.02735.11719-.04687.10546-.04297.10157-.03125.12109-.02734.11719-.03125.13281-.03125.11719-.02735.11719-.04297.10546-.03125.1172-.03125.12108-.01171.13282-.01563.13281v.29688l.02734.11718v.14844l.04688.39844.02734.11719.0586.08984.12109.03125h.14844l.13281-.01563.0586.08985v.11719l-.0586.08984-.08984.0586-.10157.04296-.10546.04688-.08985.05859-.08594.0586-.13671.01562-.1172-.03125-.1328-.01563-.10157.04688-.0625.08594-.01172.13671-.01562.13282-.03125.11719-.02735.11718-.01562.13281-.03125.1211v.29687l.01563.13282.03125.11718v.14844l.01171.13281v.14844l-.02734.11719-.04688.10156-.02734.1211-.03125.11718-.0586.08985-.07421.07421-.10156.04297-.10547.04688-.11719.02734-.1211.03125-.10156-.04687.0586-.08594.10547-.04688.02734-.11718.03125-.11719.02734-.1211.03125-.11718v-.14844l.01563-.13281-.03125-.11719-.04297-.10547-.10547.01563-.07422.07422-.10156.04296-.08984.0625-.07422.07422-.04297.10157-.01563.1328-.03125.1172L304.25 426l-.03125.11719-.02734.11719-.03125.12109-.02735.11719-.03125.11718-.04297.10547-.08984.0586h-.08984l-.1172-.03125-.03124-.08594.01562-.13672-.03125-.11719v-.14844l-.01171-.1328v-.14844l-.0625-.23438-.02735-.1211-.04297-.10156-.04687-.10546-.0586-.08594-.05859-.08985-.04297-.10546-.0625-.08594-.14844-.14844-.0703-.07422-.10548-.04687-.10547-.04297-.10156-.04297-.29687-.29688-.08985-.07421-.08594-.0586-.10546-.04297-.08985-.0625-.08594-.0586-.10546-.04296-.08985-.0586-.08594-.0625-.07421-.0703-.10547-.04688-.08594-.0586-.10547-.04296-.08984-.0625-.10156-.04297-.10547-.04297-.08594-.0586-.10547-.04687-.10547-.04297-.10156-.04687-.08985-.0586-.10156-.04297-.10547-.04296-.08984-.0625-.11719-.02735-.13281-.01562-.13281.01562H299.75l-.13281.01563-.11719-.03125-.08984-.0586-.07422-.07422-.08985-.05859-.10156-.04688h-.14844l-.12109-.02734-.10156-.04297-.07422-.07422-.11719-.17968-.08984-.0586-.10156-.04297-.08985-.0625-.10547-.04296-.08984-.0586-.08594-.0586-.10547-.04687-.0586-.08594-.05858-.08984-.04297-.10547-.04688-.10156-.07422-.07422-.08594-.0586-.07421-.07421-.08985-.0586-.22265-.22265-.04297-.10547-.03125-.26563.10547-.04296h.14453l.10547.04296.07421.07422.08985.0586.08594.0586.10546.04687.08985.05859.14844.14844.0703.07422.14845.14843.0625.08594.07421.07422.08594.0586.07422.07421.08985.0625.08984.0586.08594.05859.26953.17578.10156.04688.10547.04296.10156.04297.04688-.07421.05859-.08594.07422-.07422.07031-.07422.10547.04297.07422.07422.0586.08984.04296.10156.04688.10547.04296.10547.1211.02735.11719-.02735.07421-.08984.04297-.10547.0586-.08985.07422-.07421.10546-.04297.1172-.02735.1328.01172.08985.0586.14844.14843.05859.08985.04297.10547.04687.10156.04297.10547.04297.10156.10547.04688.10547.04296.13281.01563.08594-.0586.0586-.08984.07421-.07422.10547-.04297.11719.02735.10547.04687.10156.04297.10547.04297.10156.04688.17969.11718v.11719l-.01563.13281.01563.13281.01562.13672.0586.08594.10156.04688.1211.02734.11718.03125h.14844l.11719-.03125.05859-.08984.17969-.1172.05859-.08983.07422-.07422.0586-.08594.11718-.17969.17969-.11719.11719.03125.08984.0586.04297.07422-.01563.1328v.1172l.08985.05859h.14843l.13282-.01563.1328-.01171.26563-.03125.10547-.04297.11719-.03125.1211-.02735.07421-.07421.07031-.07422.0625-.08985-.01562-.10547-.04688-.10156-.10156-.04297-.10547-.01562-.11718.02734-.26563.03125h-.14844l-.07421-.07422-.08985-.0586-.11719-.03124-.11718-.02735-.13282-.01562h-.14843l-.13282.01563h-.29687l-.10547-.04688-.14844-.14844-.04297-.10156-.05859-.08984.22266-.22266.08593-.0586.10547-.04296.11719-.03125.13281-.01563.13281.01563.13672.01562.10157.04297.1328-.01172.08985-.0625.10156-.04297.0625-.08984-.04687-.10156-.08984-.0586-.1172-.03125-.10155-.04296-.0586-.08985-.0625-.08984v-.11719l.01563-.13281.10547-.04688.07421-.07031v-.1211l-.08984-.05859-.03125-.11719.08985-.05859.07421-.07422.04297-.10547.0586-.08984.04687-.10156.01563-.13281v-.14844l-.04688-.10547-.04297-.10156-.08984-.0586-.13281-.01562-.10157-.04297-.13671-.01563-.1172-.03125h-.4453l-.13282-.01562-.13281-.01172-.13281-.01563-.11719-.03125h-.14844l-.13281-.01562-.13281-.01172-.26563-.03125-.1211-.04297-.08593-.0586-.07422-.07421v-.14844l.01172-.13281.10547-.04688.10156-.04296.13281-.01563h.15235l.13281-.01562h.29297l.1211.03125.10156.04296.08984.0586.23438.0625.12109-.04688.08984-.05859.10156-.04297.13282-.01562.10547.04296.10156.04688.13281.01172.1211-.02735h.14453l.12109-.03125.11719-.02734.10547-.04687.07421-.07422.08594-.0586.14844-.14843.0586-.08594.04687-.10547.02734-.11719.01563-.10547-.10156-.04296-.08985-.0586-.11719-.03125-.10546-.04297-.08985-.0625-.07422-.08594-.07422-.07421-.10156-.04297-.10547-.04688-.10156-.04297-.0586-.08984-.04687-.10156-.08594-.21094-.0625-.08594-.05859-.08984-.07422-.07422-.08594-.0586h-.26953l-.11719.03126-.08984.05859-.10156.04297-.13281.01562-.10547-.01562-.02735-.11719-.0625-.08984-.11718-.03125-.10157-.04297-.14843-.14844-.03125-.11719-.01563-.10546.07422-.07422.17969-.1172.11719-.02733.11718-.03125.13672.01562.10156.04297.10547.04297.10156.04687.10547.04297.1172.03125.1328.01563.1172.02734.1328.01563.10547-.01563.08985-.0586-.07422-.07421-.10547-.04297-.07422-.07422-.07422-.08984-.14844-.14844-.08593-.0586-.08985-.05859-.07422-.07422-.08984-.0586-.10156-.04687-.1211-.02734-.10156-.04688-.10547-.04296-.11719-.03125-.10156-.04297-.1211-.03125h-.14843l-.11719.03125-.10546.04297-.08594.0625-.17969.11718-.08594.0586-.08984.0586-.10547.04687-.08594.05859-.10547.04297-.10156.04297-.10547.04687-.07422.07422-.05859.08985-.0586.08593-.04687.10547-.0586.08594-.07421.07422-.13281-.01172-.1172-.03125h-.11718l-.07422.07422-.08984.0586-.07422.07421-.08984.0586-.08594.05859-.10547.04687-.10156.04297-.13672.01563-.10156-.04297-.14844-.14844-.10547-.04688h-.08594l-.10547.04688-.10156.04297-.1211.03125-.11718-.03125-.07422-.07422v-.11719l.03125-.1211.07422-.0703.0586-.08985.07421-.07422.11719-.03125.10547-.04296h.29297l.13281-.01563.13672-.01563.10156-.04296.08985-.0586.10156-.04687.08984-.0586.13281-.01171.08985.05859.13281.01172.08984-.0586.08594-.05859.10547-.04297.08984-.0586.08594-.0625.08985-.05859.14843-.14843.0586-.08594.05859-.08985.10547-.04296.13281-.01563.11719.02735.1211.03125.05859-.0586.05859-.08984.03125-.26563.02734-.11719.10547.01172.13281.01563.10157-.04297.08984-.0586.0586-.08984.07421-.07422.0586-.08984.04687-.10156.01172-.13281-.01172-.13282-.04687-.10547-.14844-.14843-.0586-.08985-.05859-.08594-.04297-.10546v-.44532l.01563-.1328v-.14845l.01172-.1328-.0586-.0586-.08984.0586-.10156-.04298-.17969-.11719-.08594-.05859-.0625-.08984-.0586-.08985-.07421-.07421-.08594-.0586-.1211.03125-.10155.01172-.10547.04688-.08594.05859-.10547.04297-.14844.14844-.08984.05859-.08594.0586-.08984.0625-.10547.04296-.13281.01563v-.1211l.10547-.04297.11718-.03125.07422-.0703.04297-.10548v-.14844l-.02734-.11718-.14844-.14844-.13281-.01563h-.14844l-.11719.03125-.10547.04297-.10156.04297-.08984.0625-.11719.02735-.07422-.07422.01172-.13281-.04297-.10157-.04297-.10547-.08984-.05859-.11719.02734-.1211.03125-.11718.03125-.10156.04297-.1211.03125-.10156.04297-.10547.04297-.08984.0586-.10156.01562v-.11719l.01562-.13281-.0586-.08985-.07421.04297-.14844.14844-.0586.08985-.07421.07421-.04688.10547-.04296.10156-.07422.07422-.0586.08985-.07422.07422-.05859.08593-.07422.07422-.08984.0625-.07422.07031-.07422.07422-.10156.01563-.13281.01562-.10547-.04296v-.1211l.14843-.14844.04297-.10156.0586-.08984.04687-.10156.04297-.10547.0586-.08985.03124-.11719.04297-.10156.03125-.1211.02735-.11718.04687-.10547.04297-.10156.04297-.10547.07422-.07031.08984-.0625.08985-.0586.10156-.04296h.29687l.26563-.03125.10547-.04297-.07422-.07422-.11719-.03125-.10547-.04297-.08984-.0586-.10156-.04687-.08985-.0586-.10156-.04296-.10547-.04297-.08984-.0625-.08594-.0586-.10547-.04296-.10156-.04297-.1211-.03125-.11718-.03125-.10157-.04297L297.5 410.25l-.10156-.04297-.08985-.0586-.04296-.10546-.01563-.13281.10156-.04297.13281-.01563.13672.01563.13282-.01563.10156-.04297.0586-.08984.01562-.10547-.08985-.0586-.07421-.07421-.10157-.04297-.08984-.0586-.14844-.14843-.04297-.10547-.01562-.13281v-.29297l-.0586-.08985-.08984-.05859-.07422-.07422-.04297-.10547-.03125-.11718-.0586-.08985-.07421-.07422-.11719-.02734-.07422-.07422-.08984-.0586-.08984-.0625-.08594-.05859-.07422-.07421-.0586-.08594-.04687-.10547-.08594-.0586-.14843-.14843-.19532-.0586-.1328.01563-.10157.04297-.07422.07422-.04688.10156-.04296.10547-.0586.08984-.0586.08594-.29687.29687-.08984.0586h-.08594l-.0625-.08594-.04297-.10547.03125-.11719.0586-.08984.02734-.11719-.01172-.13281-.08984-.0625-.10547.04688-.11719.02734-.11719.03125-.26953.17578-.10156.04688-.11719.02734-.10546.04687-.08985.0586-.10156.04297-.0586-.08594-.04687-.10547.01563-.13281.04687-.10547.07031-.07422.07422-.07031.0586-.08985v-.14843l-.04297-.10547h-.23829l-.10156.04687-.03125.11719-.02734.11719-.03125.1211-.07422.04296-.13281.01563-.07422-.04688-.04297-.10156-.04297-.10547-.04687-.10156-.04297-.10547-.1211.03125-.10156.04297-.13281.01562-.11719.03125-.10547.04297-.08984.0586-.10156.04687-.1211.02734-.13281.01563-.10156-.04297-.0586-.08985-.04687-.10546-.04297-.10157-.04297-.10546v-.1172l.0586-.08984.08593-.05859.17969-.11719.10156-.04687.10547-.04297.10547-.0586.10156-.04296.08985-.0625.10156-.04297.10547-.0586.10156-.04687.08984-.0586.10547-.04296.10156-.04297.08985-.0625.10156-.04297.13672-.01563.11719.03125.10156.04297.1211.03125.10156.04297.10546.04688.10157.04296.10547.04297.10156.04688.10547.04297.10156.04297.10547.04687.08594.0586.10546.04296.1172.03125.10546.04297.10156.04688.08985.0586.10547.04296.10156.04297.10547.04687.11719.02735.10156.04687.1211.02735h.14843l.08594-.0586.01562-.10156.0586-.08984-.02735-.1172-.07422-.07421-.11719-.17969-.07421-.07422-.08985-.07421-.17969-.1172-.08593-.05859-.10547-.04296-.10156-.04688-.26954-.17578-.05859-.08985-.07422-.07421-.0586-.08985-.04296-.10156-.03125-.11719-.01563-.13672v-.5625l-.01171-.1328-.01563-.13282-.03125-.11719-.01562-.13281-.01172-.13281-.03125-.1211-.22266-.22265-.0586-.08594-.01562-.10547.03125-.11719.13281-.01562v-91.41406H172.9922v1.45312l-.0586.23438-.35156 1.05078-.17187.52343-.1172.34766-.17577.41016-.11719.17187-.23438.29297-.23046.0586h-.35157l-.11718.05859-.23047.40625v.29297l.11719.17578.23046.23047.1172.23437.64062.75781.29297.46485.17578.23437.23047.35156.23437.34766.64063.8164.17578.46485.17187.41016.11719.69531.17578.46875.11719 1.39844.0586.46484v.875l.11718 1.04688v4.78125l-.0586.46484-.35156 1.28125-.17578.52344-.11328.41015-.35156.9297L172.93359 336l-.23437.58203-.11719.17578-.17187.34766-.17578.40625-.35157.8164-.0586.29297-.11327.29297-.11719.28906-.0586.17579-.11718.875-.0586.40625-.05859.11718-.0586.17579-.05859.17187-.23047.52734-.11718.17188v.23437l-.11719.23438-.0586.17187-.17577.58594v.28906l-.0586.17579v.29296l-.0586.11329-.05859.52734v.17187l-.05468.23438v2.6211l-.17578.8164-.1172.17578-.17577.23438-.1172.17187-.11327.23438-.58594.93359-.23047.28906-.29297.46485-.17578.23437-.28906.35156-.35156.69922-.11328.23047-.17579.41016-.17578.23046-.40625.52735-.8164.69922-.29297.17187-.28906.23438-.17579.11719-.17578.17578-.52344.40625-.52734.17578-.17187.17578-.23438.05469-.64062.17578h-.75782m12.21094 31.02344l-1.07422.44921.35938.89454 1.25-.71485.44531-.53906-.98047-.08985"/><path fill="#d3d3d3" fill-opacity="0" fill-rule="evenodd" d="M201.50781 416.59766h-.89453l.44922.6289.98047.35938.80469-.08985.4453-.98828-.17577.08985-.71485-.35547-.89453.35547m154.6211 59.0703l-.0586-.52343v-.29297l.11328-.29297.0586-.23046.46875-.46875h.11328l.11719-.11329.11718-.05859h.17579l.23437-.0586h.34766l.23437.0586.11719.0586.23047.17187.0586.17578.11718.58203v.29297l-.11719.17578-.17187.28906-.17579.17579-.52734.52343-.23047.23438-.11719.0586h-.17578l-.11718-.0586-.40625-.29297-.17579-.11719-.11718-.0586-.0586-.11327-.05468-.1172m6.64062-10.95702l-.0586-.17188v-1.10937l.0586-.17188.17578-.0586.17188-.05858h.17578l.23437-.0586.1172.0586.05858.69921-.05859.17188-.11719.17578-.11718.0586-.23438.52343-.11328.0586h-.23438l-.05859-.1172m9.61328-14.39062l-.11719-.17578v-.69922l.29297-.875.1172-.17187.17577-.35156.11328-.23047.1172-.29297.35155-.75781.1172-.23047.17187-.23438h.17578l.11719-.0586h.64062l.11719.0586.23437.23438.17188.11328.35156.29297.11719.11718.11328.17579v.11328l.11719.05859.11718.11719v.69922l-.05859.17578v.23047l-.0586.17578-.34765 1.05078-.11719.23047-.11719.23437-.11718.0586-.23047.23437-.64063.28906h-.875l-.41015-.11718-.64063-.46485"/><path fill="none" stroke="#bebebe" stroke-linecap="round" stroke-linejoin="round" stroke-miterlimit="10" stroke-width=".5" d="M467.95703 311.69531H144.02734v168.625h323.9297v-168.625"/><g clip-path="url(#a)"><path fill="#fff" fill-opacity="0" fill-rule="evenodd" d="M144 475.89063v4.4375h.0039H144V311.67188h.0039H144v164.21875"/></g><g clip-path="url(#b)"><path fill="#fff" fill-opacity="0" fill-rule="evenodd" d="M144.0039 480.32813V311.67188h22.1875v125.08984l-4.4375 1.60547-2.2539 2.01562-1.59375 4.4375.57813 4.4414 1.66796 4.4375 1.60157 2.13673.5664 2.30078 1.42188 4.4375 2.44922 2.57422 4.4375.79687 4.4375.75781 4.4414-.14453 4.4375.09375 4.4375-.17187 4.4375-.0039 1.72266.53906 2.71875 2.89062 4.2461 1.54688.1914.1328.17187-.1328 4.26563-2.0625 3.22656-2.375 1.21094-.22657 4.4414-.50781 4.4375-.35156 4.4375-.21875 4.4375.0586 4.4375-.86329 4.44141-.53125 2.71875-1.80078.45703-4.4375 1.26172-3.69531.48828-.7422-.48828-.36718-2.82812-4.07031-1.60938-1.55078-4.4414-1.6289-4.4375.30077-4.4375 1.39453-4.4375.84766-4.4375-.58203-4.44141-2.58594-2.32031-.63672-2.1172-1.22656-4.4375-2.19531-1.67577-1.01563-2.76172-1.33203-4.4414-.86328-4.4375-.10938-4.4375-.17578-4.4375.3711-4.44141-.73828L170.6289 437l-4.4375-.23828V311.67187h137.58984V455.6211l-3.94922 2.51563-.48828.35156-4.4414 3.53516-.51563.55078.51562.48437 4.44141 2.37891 4.4375-.47656 3.77344-2.38672.66406-1.16797 1.69922-3.26953-1.69922-1.625-4.4375-.89063V311.67188h22.1914v122.73828l-4.08984 1.53515-.34765.21875-2.81641 4.21875 2.8164 4.3125 2.80079-4.3125 1.63672-2.17578 2.24218-2.26172-2.24218-1.53515V311.67187h17.7539v114.1797l-1.05469 1.21874 1.0547 1.02344v19.60547l-2.20704 1.5625-2.23047 1.125-4.4414.41015-4.4375 1.01172-4.4375-.69921-4.4375-.03125-2.35938 2.62109 2.35938 3.2539 4.4375-.875 4.4375-.53906 4.4375.75 4.4414 1.66797v.49219l-4.4414 1.16406-4.4375-.8164-4.4375 1.43359-4.4375-.65625-4.4375 2.6836-.32032.3164.32032.32422 4.4375 1.83594.79687 2.28125-.79687 1.67578-4.4375.46875-3.8125 2.29296.5 4.4375 3.3125 2.6836 4.4375-1.09766 1.83593-1.58594 2.60157-.48828 4.4375-.21093 2.46093.69921 1.97657 1.61329 3.52734-1.61329-3.52734-1.98437-.69532-2.45313.67579-4.4375.01953-.10156 2.89062.10156 1.55078.1836.125-.1836 1.84375-4.4414-1.96875-4.125v-.49219l4.4375-1.14844 1.9414-3.10937.44923-4.4375-2.39063-1.5625v-19.60547l1.11719-1.02344-1.11719-1.21875V311.67187h4.4375V432.8125l-3.75781 3.13281 3.75781 2.9961 1.02344 1.4414 3.41406 3.41406 3.53125-3.41406-3.53125-3.53906-1.28125-.89844-3.15625-3.13281V311.67187h22.1914v97.38282l-.2578.26172-2.62891 4.4375 2.88672 2.86718 3.26562-2.86718-2.98046-4.4375-.28516-.26172v-97.38281h8.8789v102.6953l-2.66015 3.82423-.41797 4.4375 3.07813 4.125.20703.3164 4.23046 3.91016 4.4375-1.30469 2.17188-2.60547-2.17188-3.17578-.34765-1.26562-1.3086-4.4375-2.78125-3.31641-4.4375-.50781V311.67188h17.75v119.99609l-4.4375.0039-4.4375.32422-4.4375.58594-3.42187 3.36328 1.98438 4.4375 1.4375.5586 4.4375 2.4414.70703 1.4375.10546 4.4414-.8125 3.41017-.93359 1.02734-2.71875 4.4375-.78515 1.05078-.76172-1.05078-3.67579-3.76953-4.4414 1.39062-2.10547 2.3789-.28906 4.4375 2.39453 2.25782 4.4414 1.72656.60157.45704-.47266 4.4375.35547 4.4375 3.95313 3.69921 4.4375-.57421 3.58593-3.125.85156-.3086 4.4375.20703.21875.10156 4.22266 3.58204 4.28906-3.58204-3.51171-4.4375 3.66015-1.25 4.4375.48438 1.1914-3.67188 1.8125-4.4414-3.0039-3.21875-4.4375-.875-.52344-.34375-.0039-4.4375.52734-.49219 4.4375-2.38281 1.39844-1.5625-1.39844-1.46094-.92969-2.98047-2.33593-4.4375-1.17188-1.46875-.64062-2.96875-3.79688-3.75-4.4414-.52734v-119.9961h71.01171v168.65625H144.00391"/></g><path fill="#50fcfc" fill-rule="evenodd" d="M158.48438 449.26172l-.57813-4.4414 1.59375-4.4375 2.2539-2.01563 4.4375-1.60547v2.01953l-2.60937 1.60156-1.82812 1.16406-2.34766 3.27344 1.71484 4.4414.63282 1.1211 1.61718 3.3164.77735 4.4375 2.04297 3.58204 2.85937.85547 1.57813.4336 4.4375 1.91406 4.4414.18359 4.4375.4375 4.4375-.30078 4.4375.05469 4.4414 1.40625 1.6836.3125 2.7539 1.42187 2.125-1.42188 2.3125-.8125 4.4375-.625 4.44142-.59765 4.4375-.90625 4.4375-.45703 4.4375.1875 3.0625-1.23047 1.375-2.89844 1.1875-1.53906 2.875-4.4375-4.0625-3.39453-4.4375-.39453-4.4375 1.78125-4.4375-.58985-4.4375.13672-4.44141-1.8086-.29297-.16796-4.14453-2.0586-4.4375-1.1953-2.78906-1.1875-1.64844-1.14454-4.4414-1.3711-4.4375-1.19921-4.4375-.26172-4.4375.42578-3.6836-.88672-.75781-.22656-4.4375-1.17578-4.4375-.19922v-2.01953l4.4375.23828 4.4375.53516 4.4414.73828 4.4375-.3711 4.4375.17579 4.4375.10937 4.4414.86328 2.76173 1.33203 1.67578 1.01563 4.4375 2.19531 2.11719 1.22656 2.3203.63672 4.44142 2.58594 4.4375.58203 4.4375-.84766 4.4375-1.39453 4.4375-.30078 4.4414 1.6289 1.60938 1.55079 2.82812 4.07031.48828.36719-.48828.74219-1.26172 3.6953-.45703 4.4375-2.71875 1.80079-4.4414.53125-4.4375.86328-4.4375-.0586-4.4375.21876-4.4375.35156-4.44141.50781-1.21094.22656-3.22656 2.375-4.26563 2.0625-.17187.13282-.1914-.13281-4.2461-1.54688-2.71875-2.89063-1.72266-.53906-4.4375.0039-4.4375.17188-4.4375-.09375-4.4414.14454-4.4375-.75782-4.4375-.79687-2.44922-2.57422-1.42188-4.4375-.5664-2.30078-1.60157-2.13672-1.66797-4.4375"/><path fill="#00e8fc" fill-rule="evenodd" d="M161.1211 449.26172l-1.71485-4.4414 2.34766-3.27344 1.82812-1.16407 2.60938-1.60156v4.4414l-3.67578 1.59766L166.1914 447l4.4375.02734v9.39063l-1.08203 1.71875 1.08203 3.15234.79687-3.15234-.79687-1.71875v-9.39063l3.17968 2.23438 1.20313 4.4375L175.0664 457l.05468-3.30078.84375-4.4375 3.54297-4.29297 1.1914-.14844-1.1914-.05078-4.4414-.8164-4.4375-.59375-4.4375-.13672v-4.44141l4.4375.19922 4.4375 1.17578.7578.22656 3.6836.88672 4.4375-.42578 4.4375.26172 4.4375 1.19922 4.4414 1.3711v6.08202l-4.4414 1.90625-2.54297 2.03516-1.89453 2.69922-4.21875 1.73828-.21875.0625-4.4375.83594-.77734 3.53906.77734.10937 4.4375 1.01172 4.4375-.52344 4.4375.16016 4.4414 1.54297 4.4375-.51563 4.4375-.83203 4.4375.03907 4.44142-.75782.76171-.23437 3.67578-3.82031.83985-.6172-.83984-1.16015-4.4375-1.875-4.44141-.67969-3.21484-.72265-1.22266-.55078-4.4375-2.44531-4.4375-.94532v-6.08203l1.64844 1.14453 2.78906 1.1875 4.4375 1.19531 4.14453 2.0586.29297.16797 4.4414 1.8086 4.4375-.13673 4.4375.58985 4.4375-1.78125 4.4375.39453 4.0625 3.39453-2.875 4.4375-1.1875 1.53906-1.375 2.89844-3.0625 1.23047-4.4375-.1875-4.4375.45703-4.4375.90625-4.4414.59765-4.4375.625-2.3125.8125-2.125 1.42188-2.7539-1.42188-1.6836-.3125-4.4414-1.40625-4.4375-.05468-4.4375.30078-4.4375-.4375-4.44141-.1836-4.4375-1.91406-1.57813-.4336-2.85937-.85546-2.04297-3.58203-.77735-4.4375-1.61718-3.3164-.63282-1.1211"/><path fill="#00d4fc" fill-rule="evenodd" d="M166.1914 447l-3.67577-2.17969 3.67578-1.59765 4.4375.13671 4.4375.59375 4.4414.81641 1.1914.05078-1.1914.14844-3.54297 4.29297-.84375 4.4375L175.06641 457l-.0547-3.30078-1.20312-4.4375-3.17968-2.23438L166.1914 447"/><path fill="#50fcfc" fill-rule="evenodd" d="M170.6289 456.41797l-1.08202 1.71875 1.08203 3.15234.79687-3.15234-.79687-1.71875"/><path fill="#00d4fc" fill-rule="evenodd" d="M179.50781 462.6836l-.77734-.10938.77734-3.53906 4.4375-.83594.21875-.0625 4.21875-1.73828 1.89453-2.69922 2.54297-2.03516 4.4414-1.90625v5.02735l-4.4414 3.30859-.03125.04297.03125.04687 3.1289 4.39063 1.3125.47265 1.48048-.47265 2.95703-2.38281 3.85937-2.0547-3.85937-2.4453-4.4375-.90625v-5.02735l4.4375.94531 4.4375 2.44532 1.22266.55078 3.21484.72265v3.50391l-2.10547.21094 2.10547.46875 1.3125-.46875-1.3125-.21094v-3.5039l4.4414.67968 4.4375 1.875.83985 1.16016-.83984.61719-3.67579 3.8203-.76172.23438-4.4414.75782-4.4375-.03907-4.4375.83204-4.4375.51562-4.4414-1.54297-4.4375-.16015-4.4375.52343-4.4375-1.01172"/><path fill="#00c4fc" fill-rule="evenodd" d="M192.82031 458.1836l-.03125-.04688.03125-.04297 4.4414-3.3086 4.4375.90626 3.85938 2.4453-3.85937 2.0547-2.95703 2.3828-1.48047.47267-1.3125-.47266-3.1289-4.39063m17.7539.42188l-2.10547-.46875 2.10547-.21094 1.3125.21094-1.3125.46875"/><path fill="#50fcfc" fill-rule="evenodd" d="M294.90234 463.0586l-.51562-.48438.51562-.55078 4.44141-3.53516v3.42188l-.77344.66406.77344.46484 2.03125-.46484-2.03125-.66406v-3.42188l.48828-.35156 3.94922-2.51563 4.4375.89063 1.69922 1.625-1.69922 3.26953-.66406 1.16797-3.77344 2.38672-4.4375.47656-4.4414-2.3789"/><path fill="#00e8fc" fill-rule="evenodd" d="M299.34375 463.03906l-.77344-.46484.77344-.66406 2.03125.66406-2.03125.46484"/><path fill="#50fcfc" fill-rule="evenodd" d="M313.78516 475.89063l-.5-4.4375 3.8125-2.29297v6.48046l-.06641.25.0664.05079.13282-.05079-.13281-.25v-6.48046l4.4375-.46875.79687-1.67579-.79687-2.28125-4.4375-1.83593-.32032-.32422.32032-.3164 4.4375-2.6836 4.4375.65625 4.4375-1.4336v1.10157l-3.78907 2.67578-.64843.91406-2.23829 3.52735-2.12109 4.4375 4.35938 3.01953 4.4375-.76172 2.26171-2.25781 1.39844-4.4375.77735-3.4961 1.47265-.94531-1.47265-.64063-4.4375-2.03515v-1.10156l4.4375.8164 4.4414-1.16406 1.96875 4.125-1.84375 4.4414-.125.1836-1.55078-.1836-2.89062-.10156-.01954.10156-.67578 4.4375.69532 2.45313 3.52734 1.98438-3.52734 1.61328-1.97657-1.61329-2.46093-.69921-4.4375.21093-2.60157.48829-1.83593 1.58593-4.4375 1.09766-3.3125-2.6836"/><path fill="#00e8fc" fill-rule="evenodd" d="M317.09766 475.9414l-.06641-.05077.0664-.25.13282.25-.13281.05078"/><path fill="#50fcfc" fill-rule="evenodd" d="M321.53516 444.69531l-2.81641-4.3125 2.8164-4.21875.34766-.21875 4.08985-1.53515 2.24218 1.53515-2.24218 2.26172-1.63672 2.17578-2.80078 4.3125m0 12.25781l-2.35938-3.2539 2.35938-2.6211 4.4375.03125 4.4375.69922 4.4375-1.01171 4.4414-.41016 2.23047-1.125 2.20703-1.5625 2.39063 1.5625-.44922 4.4375-1.9414 3.10937-4.4375 1.14844-4.44141-1.66797-4.4375-.75-4.4375.53906-4.4375.875"/><path fill="#00e8fc" fill-rule="evenodd" d="M325.97266 474.47266l-4.35938-3.01954 2.1211-4.4375 2.23828-3.52734.64843-.91406 3.78907-2.67578v1.83984l-1.1836.83594-3.16406 4.4414-.08984.17579-2.125 4.26171 2.125 1.47266 4.07421-1.47265.36329-.19141 2.39843-4.2461-.83203-4.4414-1.5664-.83594v-1.83984l4.4375 2.03515 1.47265.64063-1.47265.94531-.77735 3.4961-1.39844 4.4375-2.26171 2.2578-4.4375.76173"/><path fill="#00d4fc" fill-rule="evenodd" d="M325.97266 472.92578l-2.125-1.47265 2.125-4.26172.08984-.17579 3.16406-4.4414 1.1836-.83594v2.50781l-2.0625 2.76954 2.0625 2.01171 1.13671-2.01171-1.13671-2.76954v-2.5078l1.5664.83593.83203 4.4414-2.39843 4.2461-.36329.1914-4.07421 1.47266"/><path fill="#00c4fc" fill-rule="evenodd" d="M330.41016 469.02734l-2.0625-2.01171 2.0625-2.76954 1.13671 2.76954-1.13671 2.01171"/><path fill="#50fcfc" fill-rule="evenodd" d="M343.72656 428.09375l-1.05469-1.02344 1.0547-1.21875 1.11718 1.21875-1.11719 1.02344m4.4375 10.84766l-3.75781-2.9961 3.75781-3.13281v2.25781l-1.04687.875 1.04687.83594 2.5625 3.60156 1.875 1.8789 1.9414-1.8789-1.9414-1.94531-3.55469-2.49219-.8828-.875v-2.25781l3.15624 3.13281 1.28125.89844 3.53125 3.53906-3.53125 3.41406-3.41406-3.41406-1.02344-1.4414"/><path fill="#00e8fc" fill-rule="evenodd" d="M348.16406 436.78125l-1.04687-.83594 1.04687-.875.88281.875 3.5547 2.49219 1.9414 1.94531-1.9414 1.8789-1.875-1.8789-2.5625-3.60156"/><path fill="#50fcfc" fill-rule="evenodd" d="M370.35547 416.6211l-2.88672-2.8672 2.6289-4.4375.25782-.26171v3.90234l-.5.79688.5.5.57031-.5-.57031-.79688v-3.90234l.28515.26172 2.98047 4.4375-3.26562 2.86718"/><path fill="#00e8fc" fill-rule="evenodd" d="M370.35547 414.2539l-.5-.5.5-.79687.57031.79688-.57031.5"/><path fill="#50fcfc" fill-rule="evenodd" d="M374.79297 464.83203l-2.39453-2.25781.28906-4.4375 2.10547-2.3789 4.4414-1.39063 3.67579 3.76953.76171 1.05078.78516-1.05078 2.71875-4.4375.9336-1.02735.8125-3.41015-.10547-4.4414-.70704-1.4375-4.4375-2.44141-1.4375-.5586-1.98437-4.4375 3.42188-3.36328 4.4375-.58594 4.4375-.32421 4.4375-.00391v.94531h-4.4375l-4.4375.92188-4.41407 2.41015 3.5625 4.4375.85156.54297 1.91016 3.89453.28516 4.4414-.88281 4.4375-1.3125 1.53517-2.22266 2.90234-2.21485 2.96484-2.15234-2.96484-2.28515-2.34766-3.41016 2.34766-.67188 4.4375 4.08204 3.10547L381 467.01563l-1.09766 4.4375 1.03125 4.4375 2.73829 2.5625 4.4375-1.40625 1.32421-1.15625 3.11329-1.1211 4.4375-.33984 3.13671 1.46094 1.3047 1.10546 1.32421-1.10546-1.32422-1.4297-1.33594-3.0078 1.33594-2.92188 2.78125-1.51563 1.65625-.48437 4.4375-3.46484.28125-.4922-.28125-.30077-4.4375-2.58203-2.375-1.5547-.85937-4.4375 3.23437-3.01562 1.98828-1.42187.02735-4.4414-2.01563-2.83594-.20703-1.60157-1.76172-4.4375-2.46875-2.4375-4.4414-.89453v-.94531l4.4414.52734 3.79688 3.75.64062 2.96875 1.17188 1.46875 2.33593 4.4375.9297 2.98047 1.39843 1.46094-1.39844 1.5625-4.4375 2.38281-.52734.49219.0039 4.4375.52344.34375 4.4375.875 3.0039 3.21875-1.8125 4.4414-1.1914 3.67188-4.4375-.48438-3.66015 1.25 3.51171 4.4375-4.28906 3.58204-4.22265-3.58204-.21875-.10156-4.4375-.20703-.85157.3086-3.58594 3.125-4.4375.57421-3.95312-3.69921-.35547-4.4375.47266-4.4375-.60156-.45704-4.44141-1.72656"/><path fill="#00e8fc" fill-rule="evenodd" d="M379.23438 465.67969l-4.08204-3.10547.67188-4.4375 3.41015-2.34766 2.28516 2.34766 2.15235 2.96484 2.21484-2.96484 2.22265-2.90235 1.3125-1.53515.88282-4.4375-.28516-4.4414-1.91015-3.89454-.85157-.54297-3.5625-4.4375 4.41406-2.41015 4.4375-.92188v1.5664l-4.21093 1.76563 1 4.4375 2.6875 4.4375.52344 4.01953.02734.42188-.02735.59765-.46484 3.83985-3.75 4.4375-.22265.0625-3.98829 4.375-.44921 2.60547-1.44141-2.60547-2.9961-4.39453-2.15625 4.39453 2.15625 1.64062 3.70313 2.80079-2.13672 4.4375 2.15625 4.4375.71485.66796 1.5625-.66796 2.875-.53125 4.4375-1.94922 4.4375-1.25.73828-.70704 2.17578-4.4375 1.52734-1.60156 4.4375-1.65234 1.39063-1.1875-1.39063-.86328-4.4375-2.64844-.65625-.92578-.3125-4.4375.96875-1.33203 3.20313-3.10547 1.0625-4.4414-.4922-4.4375-3.51952-4.4375-.2539-.25391-4.44142-1.5-4.4375-.01172v-1.5664h4.4375l4.44141.89452 2.46875 2.4375 1.76172 4.4375.20703 1.60156 2.01563 2.83594-.02735 4.4414-1.98828 1.42188-3.23437 3.01563.85937 4.4375 2.375 1.55469 4.4375 2.58203.28125.30078-.28125.49219-4.4375 3.46484-1.65625.48438-2.78125 1.51562-1.33594 2.92188 1.33594 3.0078 1.32422 1.4297-1.32422 1.10546-1.30469-1.10546-3.13671-1.46094-4.4375.33984-3.11329 1.1211-1.32421 1.15625-4.4375 1.40625-2.73829-2.5625-1.03125-4.4375L381 467.01563l-1.76563-1.33594"/><path fill="#50fcfc" fill-rule="evenodd" d="M379.23438 426.7539l-3.07813-4.125.41797-4.4375 2.66015-3.82421 4.4375.50781v3.41406l-4.4375.55469-1.03906 3.78516 1.03906 1.39062 2.00782 3.05078 2.42969 2.24219 3.16015-2.24219-.98047-4.4414-2.17969-4.33985V414.875l2.78125 3.3164 1.3086 4.4375.34765 1.26563 2.17188 3.17578-2.17188 2.60547-4.4375 1.30469-4.23046-3.91016-.20704-.3164"/><path fill="#00d4fc" fill-rule="evenodd" d="M379.23438 464.21484l-2.15625-1.64062 2.15625-4.39453v3.9336l-.22657.46093.22656.17187.3125-.17187-.3125-.46094v-3.9336l2.9961 4.39454 1.4414 2.60547.44922-2.60547 3.98829-4.375.22265-.0625 3.75-4.4375.46485-3.83985.02734-.59765-.02735-.42188-.52343-4.01953-2.6875-4.4375-1-4.4375 4.21094-1.76562V435.75l-.46875.19531-1.32422 4.4375 1.79296 2.80469.6172 1.63281.39452 4.4414.48047 4.4375-1.49219 3.3672-.875 1.0703-3.5625.98438-3.14453 3.45313-.36328 4.4414-.92969.98047-1.96875 3.45704 1.96875 3.42187 4.4375-.33203 4.4375-2.48828 1.7422-.60156 2.6953-2.95313.75-1.48438 3.69141-3.86718 1.35938-.57422-1.35938-.70703-2.64062-3.73047.35156-4.4375 2.28906-3.14453 1.33203-1.29297 2.04688-4.4414-.0625-4.4375-3.3164-3.95704-3.9375-.48047-.50392-.17578-4.4375-.01953v-1.57031l4.4375.01172 4.44141 1.5.2539.2539 3.51954 4.4375.49219 4.4375-1.0625 4.4414-3.20313 3.10548-.96875 1.33203.3125 4.4375.65625.92578 4.4375 2.64844 1.39063.86328-1.39063 1.1875-4.4375 1.65234-1.52734 1.60156-2.17578 4.4375-.73829.70704-4.4375 1.25-4.4375 1.94921-2.875.53125-1.5625.66797-.71484-.66796-2.15625-4.4375 2.13672-4.4375-3.70313-2.80079"/><path fill="#00e8fc" fill-rule="evenodd" d="M379.23438 424.01953l-1.03907-1.39062 1.03906-3.78516 4.4375-.55469 2.1797 4.33985.98046 4.4414-3.16015 2.24219-2.4297-2.24219-2.0078-3.05078"/><path fill="#00c4fc" fill-rule="evenodd" d="M379.23438 462.7461l-.22657-.17188.22656-.46094.3125.46094-.3125.17187m4.4375 12.12891l-1.96875-3.42188 1.96875-3.45703.9297-.98046.36327-4.44141 3.14454-3.45313 3.5625-.98437.875-1.07031 1.49218-3.3672-.48047-4.4375-.39453-4.4414-.61719-1.63281-1.79296-2.80469 1.32421-4.4375.46875-.19531 4.4375.01953v.5586l-4.4375 3.01562-.3789 1.03906.3789.58985L394 444.8203l.53906 4.4414 1.3086 4.4375 1.13671 3.8711v.80078l-4.4375.88672-4.4375.78906-2.30468 2.52735.29297 4.4414-2.42579 2.5586-1.0703 1.8789 1.0703 1.85938 4.4375.41016 3.69922-2.26954.73829-1.24609 3.04687-3.1914 1.39063-1.25 3.0703-3.19141-3.0703-4.20313v-.80078l.83203-3.8711 3.14843-4.4375.46094-.41405 2.49219-4.02735.36719-4.4375-2.85938-3.41406-4.4414-.64063v-.55859l.5039.17578 3.9375.48047 3.3164 3.95703.0625 4.4375-2.04687 4.4414-1.33203 1.29298-2.28906 3.14453-.35156 4.4375 2.64062 3.73047 1.35938.70703-1.35938.57422-3.6914 3.86719-.75 1.48437-2.69532 2.95313-1.74219.60156-4.4375 2.48828-4.4375.33203"/><path fill="#00b8fc" fill-rule="evenodd" d="M383.67188 473.3125l-1.07032-1.85938 1.07031-1.8789 2.42579-2.5586-.29297-4.4414 2.30469-2.52735 4.4375-.78906v1.51953l-4.4375.19141-1.46094 1.60547.94922 4.4414-3.92579 4.13672-.17187.30079.17188.29687 4.4375 1.15625 2.36718-1.45313 2.07031-3.48046.91407-.95704 3.52344-3.16015 1.23437-1.28125-1.23438-1.6875-4.4375-.10938v-1.51953l4.4375-.88672 3.07032 4.20313-3.07031 3.1914-1.39063 1.25-3.04688 3.19141-.73828 1.2461-3.69921 2.26953-4.4375-.41016"/><path fill="#00a8fc" fill-rule="evenodd" d="M383.67188 471.75l-.17188-.29688.17188-.30078 3.92578-4.13671-.94922-4.44141 1.46094-1.60547v.92578l-.6211.67969.6211 2.35156v4.125l-2.17188 2.40235 2.17188.6328 1.03515-.6328-1.03515-2.40235v-4.125l4.4375-1.26172 1.60156-1.08984-1.60156-.28125-4.4375-.39844v-.92578l4.4375-.1914 4.4375.10937 1.23437 1.6875-1.23438 1.28125-3.52343 3.16015-.91406.95704-2.07032 3.48046-2.36719 1.45313-4.4375-1.15625"/><path fill="#009800" fill-rule="evenodd" d="M388.10938 472.08594l-2.17188-.63281 2.17188-2.40235 1.03515 2.40235-1.03515.6328m0-7.16015l-.6211-2.35156.6211-.67969 4.4375.39844 1.60156.28125-1.60156 1.08984-4.4375 1.26172"/><path fill="#00b8fc" fill-rule="evenodd" d="M392.54688 440.97266l-.37891-.58985.3789-1.03906 4.4375-3.01563v.4297l-4.08203 3.625 1.9336 4.4375.6836 4.4414 1.46483 3.55469 2.38672-3.5547 2.0547-1.84765 1.60155-2.59375.8047-4.4375-2.40626-2.8711-4.4414-.7539v-.42969l4.4414.64063 2.85938 3.41406-.3672 4.4375-2.49218 4.02735-.46094.41406-3.14843 4.4375-.83204 3.8711-1.13671-3.8711-1.3086-4.4375-.53906-4.4414-1.45313-3.84766"/><path fill="#00a8fc" fill-rule="evenodd" d="M394.83594 444.82031l-1.9336-4.4375 4.08204-3.625v.42969l-3.59766 3.19531 2.28515 4.4375.83204 4.4414.48046 1.17188.78516-1.17187 3.65625-3.28516.71485-1.15625 1.23437-4.4375-1.94922-2.32422-4.4414-.87109v-.42969l4.4414.7539 2.40625 2.8711-.80469 4.4375-1.60156 2.59375-2.05469 1.84766-2.38671 3.55469-1.46485-3.5547-.6836-4.4414"/><path fill="#009800" fill-rule="evenodd" d="M395.67188 444.82031l-2.28516-4.4375 3.59765-3.19531v.42969l-3.10937 2.76562 2.63281 4.4375.47656 2.35547 3.32032-2.35547 1.1211-.2461 1.49218-4.1914-1.49219-1.78125-4.4414-.98437v-.42969l4.4414.8711 1.94922 2.32421-1.23438 4.4375-.71484 1.15625-3.65625 3.28516-.78515 1.17187-.48047-1.17187-.83204-4.4414"/><path fill="#00ac00" fill-rule="evenodd" d="M396.50781 444.82031l-2.63281-4.4375 3.10938-2.76562v.4336l-2.625 2.33202 2.625 4.11719 4.4414-1.20703 1.03906-2.91016-1.03906-1.23828-4.4414-1.09375v-.4336l4.4414.98438 1.49219 1.78125-1.49219 4.1914-1.1211.2461-3.3203 2.35547-.47657-2.35547"/><path fill="#00c800" fill-rule="evenodd" d="M396.98438 444.5l-2.625-4.11719 2.625-2.33203v.85938l-1.65625 1.47265 1.65625 2.59766 4.4414-2.24219.125-.35547-.125-.14844-4.4414-1.32421v-.85938l4.4414 1.09375 1.03906 1.23828-1.03906 2.91016-4.4414 1.20703"/><path fill="#10cc00" fill-rule="evenodd" d="M396.98438 442.98047l-1.65625-2.59766 1.65625-1.47265v.86328l-.6875.60937.6875 1.07813 2.0078-1.07813-2.0078-.60937v-.86328l4.4414 1.32421.125.14844-.125.35547-4.4414 2.24219"/><path fill="#24d000" fill-rule="evenodd" d="M396.98438 441.46094l-.6875-1.07813.6875-.60937 2.0078.60937-2.0078 1.07813"/><g clip-path="url(#c)"><path fill="#fff" fill-opacity="0" fill-rule="evenodd" d="M467.9961 480.32813H468V311.67188h-.0039H468v168.65625h-.0039"/></g><path fill="#fff" fill-opacity="0" fill-rule="evenodd" d="M242.48828 468.13672l3.02344-4.9961-8.51953-5.16015-3.02735 4.9961 8.52344 5.16015"/><path fill-rule="evenodd" d="M237.34766 460.9336l.26172-.4375 5.38671 3.26171-.41015.67578-3.83985-2.32812-.71875 1.1875-.47265-.28516.23437-.51562.08203-.24219.04297-.24219-.01562-.2461-.08985-.2578-.17968-.27344-.28125-.29688"/><path fill="#fff" fill-opacity="0" fill-rule="evenodd" d="M405.07422 470.375l6.83203-4.01172-5.16406-8.78906-6.83203 4.01562 5.16406 8.78516"/><path fill-rule="evenodd" d="M402.98047 461.91016l2.83203-1.66407.375.64063-2.27344 1.33594.71485 1.67187.11328-.2539.16406-.25.23438-.2422.3125-.22265.29296-.14062.33594-.09766.36328-.04297.375.03125.38281.10938.1875.08984.1875.11719.1797.14453.17187.17578.16406.20313.15625.23828.1914.40234.125.41016.04688.42187-.03515.41016-.1211.40234-.09765.1875-.1172.1875-.14062.17188-.16797.16796-.1914.15235-.21875.14453-.42188.20703-.39453.11328-.3711.02735-.34765-.04297-.32031-.11328-.30078-.17188-.27735-.21875-.2539-.26172.67578-.39844.1875.16016.19531.125.19922.09375.20313.0586.20312.02343.21094-.01562.21094-.0586.20703-.10156.26171-.17969.20313-.20703.15234-.22656.09375-.2461.03516-.26952-.03125-.28907-.08984-.30469-.16016-.3203-.15234-.21876-.1836-.19531-.21484-.16406-.24219-.1211-.26172-.0703-.28515-.00782-.29688.0586-.3125.14452-.27344.19922-.1875.23828-.13671.30079-.13282.38671-.59765.35157-1.33594-3.1875"/><g clip-path="url(#d)"><path fill="none" stroke="#000" stroke-linecap="round" stroke-linejoin="round" stroke-miterlimit="10" stroke-width=".5" d="M140.8125 478.85547l6.375 2.94922"/></g><g clip-path="url(#e)"><path fill="none" stroke="#000" stroke-linecap="round" stroke-linejoin="round" stroke-miterlimit="10" stroke-width=".5" d="M154.39453 478.375l5.83984 3.90625"/></g><path fill="none" stroke="#000" stroke-linecap="round" stroke-linejoin="round" stroke-miterlimit="10" stroke-width=".5" d="M155.2461 478.94531l.12109-1.22265"/><g clip-path="url(#f)"><path fill="none" stroke="#000" stroke-linecap="round" stroke-linejoin="round" stroke-miterlimit="10" stroke-width=".5" d="M167.51953 478.69531l6.22266 3.26563"/></g><path fill="none" stroke="#000" stroke-linecap="round" stroke-linejoin="round" stroke-miterlimit="10" stroke-width=".5" d="M168.42578 479.17188l-.00781-1.22657"/><g clip-path="url(#g)"><path fill="none" stroke="#000" stroke-linecap="round" stroke-linejoin="round" stroke-miterlimit="10" stroke-width=".5" d="M180.83594 478.6914l6.21875 3.27344"/></g><path fill="none" stroke="#000" stroke-linecap="round" stroke-linejoin="round" stroke-miterlimit="10" stroke-width=".5" d="M181.74219 479.16797l-.00781-1.22656"/><g clip-path="url(#h)"><path fill="none" stroke="#000" stroke-linecap="round" stroke-linejoin="round" stroke-miterlimit="10" stroke-width=".5" d="M195.25781 477.4414l4.0039 5.77344"/></g><path fill="none" stroke="#000" stroke-linecap="round" stroke-linejoin="round" stroke-miterlimit="10" stroke-width=".5" d="M195.83984 478.28125l.5625-1.08984"/><g clip-path="url(#i)"><path fill="none" stroke="#000" stroke-linecap="round" stroke-linejoin="round" stroke-miterlimit="10" stroke-width=".5" d="M208.16016 477.77734l4.83203 5.10157"/></g><g clip-path="url(#j)"><path fill="none" stroke="#000" stroke-linecap="round" stroke-linejoin="round" stroke-miterlimit="10" stroke-width=".5" d="M221.00781 482.33984l5.76172-4.02343"/></g><g clip-path="url(#k)"><path fill="none" stroke="#000" stroke-linecap="round" stroke-linejoin="round" stroke-miterlimit="10" stroke-width=".5" d="M238.7461 483.48828l-3.08204-6.3164"/></g><g clip-path="url(#l)"><path fill="none" stroke="#000" stroke-linecap="round" stroke-linejoin="round" stroke-miterlimit="10" stroke-width=".5" d="M252.8789 482.9336l-4.71874-5.20704"/></g><g clip-path="url(#m)"><path fill="none" stroke="#000" stroke-linecap="round" stroke-linejoin="round" stroke-miterlimit="10" stroke-width=".5" d="M266.7539 482.28516l-5.83593-3.91407"/></g><g clip-path="url(#n)"><path fill="none" stroke="#000" stroke-linecap="round" stroke-linejoin="round" stroke-miterlimit="10" stroke-width=".5" d="M277.96094 483.7461l-1.6211-6.83594"/></g><g clip-path="url(#o)"><path fill="none" stroke="#000" stroke-linecap="round" stroke-linejoin="round" stroke-miterlimit="10" stroke-width=".5" d="M290.64453 483.83594l-.35937-7.01563"/></g><g clip-path="url(#p)"><path fill="none" stroke="#000" stroke-linecap="round" stroke-linejoin="round" stroke-miterlimit="10" stroke-width=".5" d="M304.16797 483.82031l-.77344-6.98437"/></g><g clip-path="url(#q)"><path fill="none" stroke="#000" stroke-linecap="round" stroke-linejoin="round" stroke-miterlimit="10" stroke-width=".5" d="M317.03125 483.83984l.1289-7.02343"/></g><g clip-path="url(#r)"><path fill="none" stroke="#000" stroke-linecap="round" stroke-linejoin="round" stroke-miterlimit="10" stroke-width=".5" d="M330.02734 483.82031l.76563-6.98437"/></g><g clip-path="url(#s)"><path fill="none" stroke="#000" stroke-linecap="round" stroke-linejoin="round" stroke-miterlimit="10" stroke-width=".5" d="M345.66797 483.2539l-3.88672-5.85156"/></g><g clip-path="url(#t)"><path fill="none" stroke="#000" stroke-linecap="round" stroke-linejoin="round" stroke-miterlimit="10" stroke-width=".5" d="M360.55078 480.19922l-7.01953.25781"/></g><g clip-path="url(#u)"><path fill="none" stroke="#000" stroke-linecap="round" stroke-linejoin="round" stroke-miterlimit="10" stroke-width=".5" d="M359.53125 480.23828l.61328 1.0586"/></g><g clip-path="url(#v)"><path fill="none" stroke="#000" stroke-linecap="round" stroke-linejoin="round" stroke-miterlimit="10" stroke-width=".5" d="M373.85547 480.01953l-7 .61719"/></g><g clip-path="url(#w)"><path fill="none" stroke="#000" stroke-linecap="round" stroke-linejoin="round" stroke-miterlimit="10" stroke-width=".5" d="M372.83594 480.10938l.67187 1.02734"/></g><g clip-path="url(#x)"><path fill="none" stroke="#000" stroke-linecap="round" stroke-linejoin="round" stroke-miterlimit="10" stroke-width=".5" d="M386.28125 477.97656l-5.21875 4.70703"/></g><path fill="none" stroke="#000" stroke-linecap="round" stroke-linejoin="round" stroke-miterlimit="10" stroke-width=".5" d="M386.28125 477.97656l2.30469.83594"/><g clip-path="url(#y)"><path fill="none" stroke="#000" stroke-linecap="round" stroke-linejoin="round" stroke-miterlimit="10" stroke-width=".5" d="M395.96094 476.96875l2.05078 6.71875"/></g><path fill="none" stroke="#000" stroke-linecap="round" stroke-linejoin="round" stroke-miterlimit="10" stroke-width=".5" d="M396.25781 477.94531l.86719-.86719"/><g clip-path="url(#z)"><path fill="none" stroke="#000" stroke-linecap="round" stroke-linejoin="round" stroke-miterlimit="10" stroke-width=".5" d="M406.84375 479.70313l6.91406 1.25"/></g><g clip-path="url(#A)"><path fill="none" stroke="#000" stroke-linecap="round" stroke-linejoin="round" stroke-miterlimit="10" stroke-width=".5" d="M407.85156 479.88281l-.375-1.16797"/></g><g clip-path="url(#B)"><path fill="none" stroke="#000" stroke-linecap="round" stroke-linejoin="round" stroke-miterlimit="10" stroke-width=".5" d="M420.46484 478.77734l6.3047 3.10157"/></g><path fill="none" stroke="#000" stroke-linecap="round" stroke-linejoin="round" stroke-miterlimit="10" stroke-width=".5" d="M421.38281 479.23047l-.03906-1.22656"/><g clip-path="url(#C)"><path fill="none" stroke="#000" stroke-linecap="round" stroke-linejoin="round" stroke-miterlimit="10" stroke-width=".5" d="M434.57422 477.72656l4.71484 5.20703"/></g><path fill="none" stroke="#000" stroke-linecap="round" stroke-linejoin="round" stroke-miterlimit="10" stroke-width=".5" d="M435.25781 478.48438l.41797-1.15625"/><g clip-path="url(#D)"><path fill="none" stroke="#000" stroke-linecap="round" stroke-linejoin="round" stroke-miterlimit="10" stroke-width=".5" d="M447.03906 478.89453l6.41406 2.8711"/></g><path fill="none" stroke="#000" stroke-linecap="round" stroke-linejoin="round" stroke-miterlimit="10" stroke-width=".5" d="M447.97266 479.3125l-.08204-1.22656"/><g clip-path="url(#E)"><path fill="none" stroke="#000" stroke-linecap="round" stroke-linejoin="round" stroke-miterlimit="10" stroke-width=".5" d="M460.78125 478.1836l5.5625 4.29296"/></g><path fill="none" stroke="#000" stroke-linecap="round" stroke-linejoin="round" stroke-miterlimit="10" stroke-width=".5" d="M461.58984 478.8086l.20704-1.21094"/><g clip-path="url(#F)"><path fill="none" stroke="#000" stroke-linecap="round" stroke-linejoin="round" stroke-miterlimit="10" stroke-width=".5" d="M141.34766 464.71094l5.30468 4.60547"/></g><path fill="none" stroke="#000" stroke-linecap="round" stroke-linejoin="round" stroke-miterlimit="10" stroke-width=".5" d="M155.25 464.17188l4.13281 5.68359M155.85156 465l.53516-1.10547m11.58984.8164l5.3086 4.60548m-4.53907-3.9336l.27735-1.19531m11.86719 1.08984L187 468.75m-5.21875-2.96875l.03516-1.22656m13.32812-.34766l4.23047 5.61328m-3.61328-4.79687l.51953-1.10938m12.23828.25l4.10938 5.69922m-3.51172-4.8711l.54297-1.10155m14.97656-.3086l-1.49219 6.86719m14.34766.0664l-.57031-7.0039m.48437 5.98437l-1.03125.66407M252.3711 470l-3.69923-5.97266m3.16016 5.10547l-.61719 1.0586m15.79688-1.67578l-6.35156-3.00391m5.42578 2.5664l.0586 1.22657m14.4414-1.5586l-6.8711-1.46484m5.8711 1.2539l.33984 1.1797m11.5625-1.69922l-.01953-.20313-.0586-.1914-.09374-.17579-.46094-.375-.1914-.0586-.19923-.01952-.19922.01953-.1914.0586-.45703.375-.09766.17577-.05469.19141-.01953.20313.01953.19921.0547.19141.09765.17578.45703.375.1914.0586.19922.01953.19922-.01953.1914-.0586.46095-.375.09375-.17578.05859-.1914.01953-.19923m11.78516 3.47657l1.01562-6.95313m-.86718 5.9414l-1.15625.41016m16.19921.35938l-2.73828-6.47266m2.73828 6.47266l-1.54687 1.90625m16.89844-6l-6.8125 1.71484m5.82422-1.46484l.8203.91016m12.40235 2.33203l-4.64844-5.26953m3.97266 4.5039l-.42969 1.14844m15.54688-2.35937l-6.90235-1.31641m5.89844 1.125l.36328 1.17187m13.94922-.94921l-6.89062-1.37891m5.89062 1.17969l.35156 1.17187m7.01172-1.48047l7.01563-.36328m7.35156-2.33203l4.91016 5.02734m-4.19532-4.29297l.3711-1.17187m11.60547 1.25781l6.15625 3.38672m-5.25782-2.89453l.01563-1.22656m12.7461.22265l5.46874 4.41016m-4.67578-3.76953l.23438-1.20313m11.94922 1.0625l6.14453 3.41016m-5.25-2.91406l.02343-1.22656m12.59375.41406l5.75 4.04297m-4.91406-3.45313l.15235-1.21875m11.8203 1.6914l6.76173 1.91798m-5.77735-1.64063l-.25781-1.19922"/><g clip-path="url(#G)"><path fill="none" stroke="#000" stroke-linecap="round" stroke-linejoin="round" stroke-miterlimit="10" stroke-width=".5" d="M142.85156 450.3789l2.29688 6.64063"/></g><path fill="none" stroke="#000" stroke-linecap="round" stroke-linejoin="round" stroke-miterlimit="10" stroke-width=".5" d="M155.96094 450.45703l2.71094 6.48438m-2.31641-5.54297l.77734-.94922m11.75.20312l3.4961 6.09375m-2.98828-5.20703l.65234-1.03906m12.75781-.125l2.28906 6.64453m-1.95312-5.67578l.83594-.89844m13.02343-.25l.52735 7.00781m-.44922-5.98828l1.03516-.65625m13.01953-.32812l-1.10547 6.9375m.9414-5.92969l1.16407-.39844m14.38672 5.19532l-5.25-4.67188m17.58984 5.4375l-3.30078-6.20312m2.82031 5.30078l-.6836 1.01562m14.34376-.04297l-3.02735-6.34375m2.58594 5.41797l-.73047.98828m16.26563-2.01172l-6.58594-2.4453m5.6289 2.08984l.16016 1.21484m14.30078-1.6211l-6.96484-.92187m5.95312.78516l.4297 1.15234m13.76171-2.54687l-6.69531 2.14062m5.72265-1.82812l.87891.85547m12.4336 2.49609l-4.7422-5.1875m4.05079 4.42969l-.41016 1.15625m12.8164.43359l-1.54296-6.85547m1.54297 6.85547l-1.85938 1.60156m16.10157-1.95312l-3.39844-6.14844m2.90625 5.2539l-.67188 1.02735m15.72266-1.28516l-5.88281-3.84765m5.02734 3.28906l-.11328 1.22266m14.39844-.85157l-6.11328-3.46875m5.22265 2.96094l-.03125 1.22656m14.60547-1.66406l-6.84766-1.57812m5.85157 1.34765l.3164 1.1836m12.75-4.5l-4.35937 5.51171m3.72265-4.70703l1.20704.21875m7.71484-.3203l5.69922 4.10937m-4.8711-3.51172l.16797-1.21485m11.92969 1.3125l6.48047 2.71875m-5.53906-2.32422l-.11328-1.22265m13.89062-.8086l3.67188 5.9922m-3.14063-5.1211l.625-1.05469m11.29297.9336l5.40234 4.49218m-4.61718-3.83984l.25-1.19922m11.7539 1.40234l6.45313 2.78125m-5.51563-2.3789l-.09765-1.22266m12.67968.41797l6.04297 3.58594m-5.16406-3.0625l.0586-1.22657"/><g clip-path="url(#H)"><path fill="none" stroke="#000" stroke-linecap="round" stroke-linejoin="round" stroke-miterlimit="10" stroke-width=".5" d="M147.50781 440.57031l-7.01562-.375"/></g><path fill="none" stroke="#000" stroke-linecap="round" stroke-linejoin="round" stroke-miterlimit="10" stroke-width=".5" d="M146.48828 440.51563l.51563 1.11328m13.40625-2.90625l-6.19141 3.3203m5.29297-2.83593l1.01953.67969m12.73828-1.82031l-5.28125 4.6328m4.51563-3.95702l1.14453.4336m13.21875-.7422l-5.84375 3.90235M186.01563 439l1.08203.58203m13.55859-.09375l-6.79297 1.79297m5.80469-1.53516l.83594.90235m13.58203-.35547l-7.02344.1836m6.0039-.15626l.60157 1.0664m13.69922-.48827l-6.95313-1.03125m5.9414.88281l.41017 1.15625m13.68359-.17188l-6.48828-2.69921m5.54297 2.30468l.11718 1.22266m13.07422.58203l-4.34765-5.51953m3.71484 4.71484l-.4961 1.125m15.40626-1.49609l-6.27344-3.17188m6.27344 3.17188l.04687 2.45312m13.40625-2.76953l-6.55078-2.53906m5.59766 2.17188l.14453 1.21875m14.16797-3.26954l-6.64063 2.29688m6.64063-2.29688l1.79687 1.67188m11.69531-.17188l-6.99218-.70312m6.99218.70312l.9297 2.26954m11.48437-.25391L314.5 438.01562m5.1914 4.73438l-.60546 2.3789m14.36328-2.97656l-6.07422-3.53515m6.07422 3.53515l-.09375 2.44922m13.8164-3.52344l-6.89062-1.39062m6.89063 1.39062l.69921 2.35157m12.46094-1.8164l-6.58203-2.46095m5.625 2.10547l.16016 1.21485m14.2539-2.83985l-6.86328 1.5039m5.86328-1.28515l.79688.9336m12.60156-2.85547l-5.03125 4.90625m4.29688-4.1914l1.17187.37108m11.77344-1.85156l-2.82422 6.4375m2.41406-5.5l1.22266-.09375m13.25-.39453l-4.32031 5.54297m3.6914-4.73828l1.20703.21094m10.72266-1.75782l-.28906 7.02344m.24609-6l1.10547-.53125m11.70703-.46875l.80078 6.98047m-.6836-5.96484l1.00782-.69922m12.58984-.33985v7.02735m0-6.00782l1.08204-.57421m10.68359-.08594l3.09766 6.30469m-2.64454-5.38672l.71485-.9961"/><g clip-path="url(#I)"><path fill="none" stroke="#000" stroke-linecap="round" stroke-linejoin="round" stroke-miterlimit="10" stroke-width=".5" d="M147.38281 426.11719l-6.76562 1.90234"/></g><path fill="none" stroke="#000" stroke-linecap="round" stroke-linejoin="round" stroke-miterlimit="10" stroke-width=".5" d="M146.39844 426.39453l.84765.88672m13.5547-.64453l-6.97267.86328m6.97266-.86328l1.41016 2.00781m11.92578-1.8086l-7.01172.46485m7.01172-.46484l1.29297 2.08593m12-2.29687l-6.96875.88672m5.95703-.75781l.70703 1.0039m13.48828-1.73437l-6.70703 2.08984m5.73438-1.78516l.87109.86329m13.5586-.48829l-6.98829.73047m5.97266-.625l.6836 1.01563m13.66405-.64063l-7.02343-.22656m18.58593 3.15234l-3.51562-6.08203m3.0039 5.19922l-.65234 1.03906m14.54688-.1953l-3.65235-6.00391m3.1211 5.1289l-.625 1.05469m13.66797.17969l-2.05079-6.72266m1.75391 5.7461l-.86719.86328m13.85938.24218l-.8086-6.98047m.69141 5.96485l-1.01172.69531m16.69922-.875l-5.32031-4.58984m4.54687 3.92187l-.26953 1.19531m13.38281.26172l-3.36718-6.16797m2.875 5.26954l-.67579 1.02734m16.29688-3.52734l-6.9961.6289m6.9961-.6289l1.34375 2.05468m11.80078-.61718l-6.65625-2.2461m6.65625 2.2461l.40235 2.42187m12.8125-2.15625L340.5 425.6797m5.51563 2.375l.10156 1.22265m13.5.1797l-5.15235-4.77735m4.40235 4.08203l-.3125 1.1875m12.45312.57031l-1.30078-6.90234m14.41797-.03125l-.90625 6.96484m.90625-6.96484l2.29688-.86328m12.51953 1.42578l-3.91016 5.83984m3.91016-5.83984l2.4414.25m8.80469-.83985l.22656 7.02344m-.22656-7.02344l2.1289-1.22265m12.20313 1.33593l-1.80469 6.79297m1.8047-6.79297l2.38671-.55468m10.91016.55078l-1.76954 6.80078m1.76954-6.80078l2.38671-.57031m10.21485.46093l-.34375 7.01953m.34375-7.01953l2.21875-1.04297m11.07031 1.04297l-.29297 7.01953m.25-6l1.10547-.52734"/><g clip-path="url(#J)"><path fill="none" stroke="#000" stroke-linecap="round" stroke-linejoin="round" stroke-miterlimit="10" stroke-width=".5" d="M147.51172 413.64453l-7.02344.21875"/></g><path fill="none" stroke="#000" stroke-linecap="round" stroke-linejoin="round" stroke-miterlimit="10" stroke-width=".5" d="M146.48828 413.67578l.60938 1.0664m13.73047-.89062l-7.02344-.19531m6 .16797l.54687 1.09766m13.78906-.98438l-7.01953-.36719m5.9961.3125l.51953 1.11328m13.4336-2.84765l-6.25 3.21094m5.33984-2.7461l1.0078.70313m13.34767-.88282l-6.51172 2.64063m18.5703-4.21094l-4 5.77735m12.77345-.46485l5.08593-4.84765m10.08985 5.87109l1.36328-6.89453m-1.16406 5.89453l-1.17578.35156m14.47265.67969l1.0039-6.95313m-.85937 5.94141l-1.15625.41406m14.60938.6289l.4375-7.01562m-.375 5.9922l-1.11719.5078m13.76172.42188l1.65234-6.82813m-1.41015 5.83594l-1.1875.30469m15.79687.71484l-1.41797-6.88281m1.21094 5.8789l-.94531.78516m15.98437-.50781l-4.45703-5.42969m3.8086 4.64063l-.46876 1.13281m14.5-.39844l-4.58984-5.32031m3.92188 4.54687l-.44532 1.14454m14.4922-.42579l-4.71485-5.21093m4.02734 4.45312l-.41797 1.15235m14.5586-.53125l-4.9961-4.94141m4.26953 4.22266l-.35156 1.17578m13.88281-.02735l-3.97265-5.79687m3.39453 4.95312l-.5664 1.08594m12.63671.36719l-.32812-7.01953m13.60937 0l-.26172 7.02343m.22656-6l1.10157-.53515m12.58984-.45703l-.9414 6.96093m.9414-6.96093l2.30078-.85547m10.83985.83594l-.59375 7m.59375-7l2.2578-.96485m10.33595.97656l.84765 6.97657m-.84765-6.97657l2.01171-1.40625m11.25782 1.41407l.9414 6.96093m-.9414-6.96093l1.99218-1.4336m10.94532 1.50391l1.69922 6.82031m-1.69922-6.82031l1.82422-1.64063m11.39453 1.66407l1.88672 6.76953m-1.61329-5.78125l.89063-.84766"/><g clip-path="url(#K)"><path fill="none" stroke="#000" stroke-linecap="round" stroke-linejoin="round" stroke-miterlimit="10" stroke-width=".5" d="M147.4961 400.77734l-6.9922-.67968"/></g><path fill="none" stroke="#000" stroke-linecap="round" stroke-linejoin="round" stroke-miterlimit="10" stroke-width=".5" d="M146.48047 400.67969l.46875 1.13281m13.84766-1.85547l-6.96094.96485m5.94531-.82422l.72266.99218m12.92578-2.77734l-5.59766 4.25m4.78125-3.63281l1.11328.51562m10.1211-2.51953l.1953 7.02344m-.16796-6l1.0664-.60547m11.23438-.2461l2.16797 6.6836m-1.85156-5.71094l.85156-.88281m9.75 3.72656l6.96484-.94922m-5.95312.8086l-.71484-.9961m13.3203 2.15625l6.35938-2.98828m-5.4336 2.55469l-.98437-.73828m19.36328 1.78515l-5.62109-4.21875m15.26953 5.51954l1.71094-6.81641m-1.46094 5.82422l-1.1914.29297m13.43359.375l3.35938-6.17188m-2.8711 5.27344l-1.22656-.01172m15.1914 1.29688l1.08204-6.94532m-.92578 5.9336l-1.15625.40234m17.91796-1.13672l-6.12109-3.44922m19.69531.57032l-6.64062 2.30859m19.96484-2.27734l-6.66015 2.24609m5.6914-1.92188l.89063.84375m13.47656.78907L327 399.60156m5.83203 1.42969l.30078 1.1875m14.09766-2.03906l-7.00781.51953m5.98828-.44531l.65234 1.03906m13.42188.49219l-6.48829-2.69532m5.54297 2.3047l.1172 1.22265m14.36718-2.75l-6.9336 1.14062m5.92188-.97265l.7461.97265m13.3125-2.02344l-6.39844 2.90625m5.46484-2.48437l.97266.75m11.61328-2.8789l-3.07422 6.3203m2.625-5.39843l1.22656-.04688m11.36719-1.20703l-.73438 6.98828m.62891-5.97265l1.13672-.46094m11.73437-.57031l.3672 7.01562m-.3672-7.01562l2.10157-1.26563m10.7539 1.32031l1.28516 6.91016m-1.28516-6.91015l1.91797-1.52735m11.21875 1.5664l1.64063 6.83204m-1.64063-6.83203l1.83594-1.6289M462.83594 397l1.45312 6.875M463.04687 398l.94141-.78516"/><g clip-path="url(#L)"><path fill="none" stroke="#000" stroke-linecap="round" stroke-linejoin="round" stroke-miterlimit="10" stroke-width=".5" d="M147.14844 388.67969l-6.29688-3.11328"/></g><path fill="none" stroke="#000" stroke-linecap="round" stroke-linejoin="round" stroke-miterlimit="10" stroke-width=".5" d="M146.23438 388.22656l.03515 1.22656m13.82422-4.48046l-5.5586 4.30078m4.75-3.67578l1.1172.5078m11.02343-2.40624l-1.58984 6.84765m1.58984-6.84765l2.3711-.6289m9.49218.60156l1.3125 6.90234m-1.3125-6.90235l1.91016-1.53515m8.64844 4.15625l6.82812 1.66015m-5.83594-1.41796l-.30468-1.19141m18.99609 3.67969l-5.91016-3.80078m5.05078 3.24609l-.10156 1.22266m13.13281.4414l-3.625-6.01953m11.6172 3.1836l7.01952-.34766m-5.99609.29687l-.6289-1.05078m12.91796.98047l7.02735-.10547m-6.00391.08985l-.59375-1.07422m12.92188.52344l6.95312 1.02734m-5.9414-.8789l-.41016-1.15626m13.42968 3.69531l5.51954-4.34765m-4.71485 3.71484l-1.125-.49219m19.61719-2.45312l-6.4414 2.8125M305.39061 384l-3.21875 6.2461m14.10547-6.53907l1.63672 6.83203m-1.39844-5.83984l.91797-.8125m16.48829 3.35547l-7.02344-.23438m19.8711 1.875l-6.08595-3.51953m5.19922 3.00781l-.04297 1.22657m14.66407-1.88282l-6.92579-1.18359m5.91797 1.01172l.38672 1.16406m13.72266-2.92187l-6.5 2.67578m5.55469-2.28516l.9453.78125m12.61329-2.2539l-5.09375 4.83984m4.35156-4.13672l1.16406.39063m11.98047-1.78125l-3.26953 6.21875m2.79688-5.31641l1.22656-.0039m11.35156-1.27735l-.85156 6.97265m.85156-6.97265l2.28906-.88281m10.08594.89453l1.03125 6.94922m-1.03125-6.94922l1.97266-1.45703m10.70312 1.61328l2.3086 6.63672m-2.3086-6.63672l1.67188-1.80078m10.66797 2.32421l4.26172 5.58985m-4.26172-5.58985l1.02344-2.22656m12.77734 1.91797l3.28906 6.20703m-2.8125-5.30469l.6875-1.01562"/><g clip-path="url(#M)"><path fill="none" stroke="#000" stroke-linecap="round" stroke-linejoin="round" stroke-miterlimit="10" stroke-width=".5" d="M146.03906 376.66797l-4.07812-5.71875"/></g><path fill="none" stroke="#000" stroke-linecap="round" stroke-linejoin="round" stroke-miterlimit="10" stroke-width=".5" d="M145.44531 375.83594l-.54687 1.09765m14.65234-5.83593l-4.47266 5.42187m3.82422-4.63281l1.19922.2461m12.91406-.90235l-4.77343 5.15625m4.77344-5.15625l2.375.625m-3.06641.125l1.1836.3125m12.89062-1l-4.90625 5.03125m4.1914-4.30078l1.1797.34375m13.67187 2.71094l-6.55078-2.53907m6.55078 2.53906l.29297 2.4375m13.15625-2.85937l-6.82032-1.69531m5.82813 1.44922l.29687 1.1875m13.96094-.75782l-6.71875-2.0664m5.73828 1.76562l.23438 1.20703m14.03906-.84375l-6.67578-2.1875m6.67578 2.1875l.42187 2.41797m13.02735-2.96094l-6.9414-1.10156m6.9414 1.10156l.79687 2.32032m12.51172-3.44922l-6.92969 1.15625m6.9297-1.15625l1.49218 1.94531m11.08203.85156l-5.44922-4.4375m4.65625 3.79297l-.23828 1.20313M293.76953 375l-6.60937-2.38281m5.64843 2.03515l.17579 1.21485m14.27343-2.57813l-6.95312 1.03906m5.9414-.88671l.72657.98437m13.60156-1.1211l-6.95703 1.00782m5.94531-.86328l.72266.98828m12.91015 1.51172l-5.57031-4.28125m4.76172 3.65625l-.20313 1.21094m14.48829-.8086l-5.89063-3.83594m5.03125 3.27735l-.10547 1.22265m14.84766-2.58203h-7.02735m6.00391 0l.57813 1.08204m13.71875-1.6211l-6.94532 1.07422m5.9336-.91797l.73828.98438m12.4961-3.1875l-4.76173 5.16796m4.07032-4.41406l1.1875.3086m11.32421-1.87891l-1.76953 6.80078m1.51172-5.8086l1.19531-.28515m12.01954-.77734l-1.05079 6.94531m1.05079-6.94531l2.3125-.8164m10.8203.79296l-.6875 6.99219m.6875-6.99219l2.26954-.9336m10.42187.92579l.5586 7.00781m-.5586-7.00781l2.07032-1.32031m10.6914 1.41015l1.66407 6.82813m-1.66407-6.82813l1.83594-1.63281m11.16797 1.72656l2.28906 6.64063m-1.95703-5.67579l.83594-.89843"/><g clip-path="url(#N)"><path fill="none" stroke="#000" stroke-linecap="round" stroke-linejoin="round" stroke-miterlimit="10" stroke-width=".5" d="M145.27344 363.76953l-2.54688-6.55078"/></g><g clip-path="url(#O)"><path fill="none" stroke="#000" stroke-linecap="round" stroke-linejoin="round" stroke-miterlimit="10" stroke-width=".5" d="M145.27344 363.76953l-1.60156 1.85547"/></g><path fill="none" stroke="#000" stroke-linecap="round" stroke-linejoin="round" stroke-miterlimit="10" stroke-width=".5" d="M160.48047 358.96875l-6.33203 3.04688m6.33203-3.04688l1.97656 1.45313m11.46875-1.15235l-6.58984 2.44531m6.58984-2.4453l1.83203 1.6289m-2.79297-1.27344l.91797.8164m13.57422.20313l-7.02344-.30078m7.02344.30078l1.05469 2.21485m-2.07813-2.25782l1.0586 2.21485m13.24219-1.79688l-6.94922-1.05078m6.94922 1.05078l.8164 2.3125m-1.82812-2.46484l.8164 2.3125m13.53516-2.35156l-6.9961-.67188m6.9961.67188l.9375 2.26953m-1.95703-2.3672l.46875 1.13673m13.8125-.67969l-6.89063-1.39063m6.89063 1.39063l.69922 2.35547m-1.70313-2.55469l.35156 1.17578m14.02735-1.91015l-7.01172.47656m7.01172-.47656l1.29687 2.08203m12-2.26563l-6.97656.84766m5.96094-.72656l.70312 1.0078m13.42969-1.9414l-6.57813 2.46875m5.6211-2.10937l.91797.8125m13.57812.01953l-7.02734.08594m6.0039-.07032l.58985 1.07422m13.30078-2.76172l-6.1289 3.4336m5.23827-2.9336l1.03125.66016m13.50391-.35156l-6.78906 1.8125m5.80078-1.54688l.83594.89844m13.53515.33984l-6.92578-1.1953m6.92578 1.1953l.76563 2.33204m12.01172-.98047l-5.84766-3.89844m5.84766 3.89844l-.2461 2.4414m13.72266-2.70703l-6.17188-3.36328m5.27344 2.8711l-.01172 1.23046m14.57422-3.15234l-6.8711 1.46094m5.8711-1.2461l.78906.9375m12.1797-3.2461l-4.17579 5.65235m3.5664-4.83203l1.21485.1836m12.625-1.06641l-4.00781 5.77344m4.00781-5.77344l2.4375.29297m11.1914-.04688l-4.63671 5.28125m4.63672-5.28125l2.38672.5625m10.98437-.51172l-4.75 5.1797m4.75-5.1797l2.375.6172m10.92578-.62892l-4.71875 5.20704m4.71875-5.20704l2.3789.60157m10.90626-.6289l-4.66016 5.2578m4.66016-5.2578l2.38672.57421m10.54297-.8711l-3.89063 5.85157m3.89063-5.85156l2.4414.24218m11.14063-.04296l-4.42578 5.45703"/><g clip-path="url(#P)"><path fill="none" stroke="#000" stroke-linecap="round" stroke-linejoin="round" stroke-miterlimit="10" stroke-width=".5" d="M465.77344 357.76563l2.41015.46875"/></g><g clip-path="url(#Q)"><path fill="none" stroke="#000" stroke-linecap="round" stroke-linejoin="round" stroke-miterlimit="10" stroke-width=".5" d="M145.6289 350.29297l-3.2578-6.23047"/></g><g clip-path="url(#R)"><path fill="none" stroke="#000" stroke-linecap="round" stroke-linejoin="round" stroke-miterlimit="10" stroke-width=".5" d="M145.6289 350.29297l-1.38671 2.02344"/></g><path fill="none" stroke="#000" stroke-linecap="round" stroke-linejoin="round" stroke-miterlimit="10" stroke-width=".5" d="M160.74219 347.95313l-6.85547-1.54688m6.85547 1.54688l.64844 2.36718m-1.64454-2.59375l.32422 1.1836m14.0625-1.44922l-7.0039-.5664m7.0039.5664l.97266 2.2539m-1.99219-2.33593l.97266 2.2539m13.35156-2.08594l-6.98438-.73828m6.98438.73829l.91797 2.27734m-1.9336-2.38281l.46094 1.13671m13.89063-1.29296l-7.02344-.21485m7.02344.21485l1.08594 2.19921m-2.10938-2.23046l.54297 1.10156m13.75-1.7461l-6.9336 1.13672m6.9336-1.13671l1.48828 1.95312m-2.4961-1.78516l.7422.97657m13.3164-2.01563l-6.40625 2.8789m6.40625-2.8789l1.9414 1.5039m-2.87109-1.08593l.96875.7539m12.96094-1.73437l-5.77344 4.0039m5.77344-4.0039l2.17969 1.125m10.97656-1.33594l-5.46094 4.42579m4.66797-3.78125l1.1289.48046m13.0625-1.01562l-5.625 4.21094m4.8047-3.60157l1.11328.52344m12.80468-1.39844l-5.1914 4.73829m4.4375-4.04688l1.15234.41016m13.36328-.4922l-6.08203 3.51954m5.19531-3.00781l1.04297.64844m13.29297 2.10156l-6.35156-3m5.42969 2.5625l.05859 1.22656m14.0625-.5625l-6.1211-3.45703m6.1211 3.45703l-.0625 2.45313m13.5664-2.84375l-6.5-2.67579m6.5 2.67579l.23829 2.4414m13.23047-4.65234l-6.8047 1.7461m5.81642-1.4922l.82421.90625m13.34766-1.5703l-6.54297 2.5664m5.58985-2.1914l.93359.79687m12.96484-1.8672l-5.80468 3.95704m5.80468-3.95703l2.17188 1.14062m10.65625-1.71484l-4.82813 5.10547m4.82813-5.10547l2.36328.65234m11.54687.08594l-6.01953 3.6289m5.14063-3.10156l1.05469.62891m13.5664-.0664l-6.875 1.44921m6.875-1.44921l1.57422 1.8828m11.7539-1.8125l-6.90234 1.3125m6.90235-1.3125l1.53906 1.91016m-2.54297-1.72265l.76953.95703m13.34766-1.83203l-6.4961 2.6875m6.4961-2.6875l1.89062 1.5586m-2.83593-1.16798l1.89062 1.5586m11.83203-2.84375l-5.42187 4.47265m5.42187-4.47265l2.26563.9414m-3.0547-.28906l2.26954.9375m11.46484-1.97266l-4.68359 5.23829"/><g clip-path="url(#S)"><path fill="none" stroke="#000" stroke-linecap="round" stroke-linejoin="round" stroke-miterlimit="10" stroke-width=".5" d="M465.90234 344.5586l2.38282.58593"/></g><path fill="none" stroke="#000" stroke-linecap="round" stroke-linejoin="round" stroke-miterlimit="10" stroke-width=".5" d="M465.22266 345.32031l1.1914.29297"/><g clip-path="url(#T)"><path fill="none" stroke="#000" stroke-linecap="round" stroke-linejoin="round" stroke-miterlimit="10" stroke-width=".5" d="M146.61719 336.20703l-5.23438-4.6875"/></g><path fill="none" stroke="#000" stroke-linecap="round" stroke-linejoin="round" stroke-miterlimit="10" stroke-width=".5" d="M146.61719 336.20703l-.58594 2.38281m-.17578-3.0664l-.29297 1.1914m14.8086-1.12109l-6.11329-3.46484m6.11328 3.46484l-.0664 2.45313m-.82422-2.95704l-.0625 2.45313m14.69922-3.26172l-6.97656-.83594m6.97656.83594l.88672 2.28906m-1.90235-2.41015l.88672 2.28906m13.46875-2.65625l-7.02344.14062m7.02344-.14062l1.19531 2.14062m-2.21484-2.12109l.59766 1.07031m13.66015-1.7539l-6.8711 1.46875m6.8711-1.46875l1.58203 1.8789m11.44532-2.70703l-6.29688 3.125m6.29688-3.125l1.99609 1.42969m-2.91016-.97266l.9961.71485m12.25781-2.3711l-4.34375 5.52344m4.34375-5.52344l2.41406.42969m-3.04687.3711l1.20703.21874m11.57031-1.625l-2.0039 6.73438m2.0039-6.73438l2.40625-.48828m9.6211.35156l.5703 7.00391m-.48827-5.98437l1.03515-.66016m11.88672-.32031l1.1914 6.92578m15.84376-5.07031l-6.2461 3.21875m19.41797.2539L287.48828 332m5.08985 3.1836l-.08594 1.22656m14.00781-.32032l-5.4375-4.45312m5.4375 4.45312l-.48047 2.40235m14.3125-3.26172l-6.47265-2.73438m6.47265 2.73438l.21875 2.44531m-1.16015-2.84375l.10937 1.22266m14.41406-2.48047l-7.0039.57812m7.0039-.57812l1.32422 2.0625m11.5039-3.57422l-6.03515 3.60156m6.03516-3.60156l2.10156 1.26953m9.89063-2.54687l-3.38282 6.15625m2.89063-5.26172l1.22656.01562m13.16016-.51172l-4.54688 5.35938m4.54688-5.35938l2.39843.52344m10.76563-.64453l-4.2461 5.60156m4.2461-5.60156l2.42187.39063m-3.03906.42578l1.21094.1953m13.83594 3.15626l-6.47266-2.73828m5.53125 2.33984l.10938 1.22266m13.98437-.48828l-6.14453-3.40625m6.14453 3.40625l-.04688 2.45312m13.75-3.54687l-6.92187-1.21875m6.92188 1.21875l.7578 2.33203m12.29298-4.39844l-6.39454 2.91406m6.39454-2.91406l1.9453 1.4961m-2.875-1.07032l.97267.7461m12.7539-1.98829l-5.35937 4.54297m5.35937-4.54297l2.28125.91016m-3.0586-.2461l2.27735.90626m11.67578-1.72266l-5.08203 4.85156"/><g clip-path="url(#U)"><path fill="none" stroke="#000" stroke-linecap="round" stroke-linejoin="round" stroke-miterlimit="10" stroke-width=".5" d="M466.10156 331.4375l2.33203.76953"/></g><path fill="none" stroke="#000" stroke-linecap="round" stroke-linejoin="round" stroke-miterlimit="10" stroke-width=".5" d="M465.36328 332.14063l2.32813.77343"/><g clip-path="url(#V)"><path fill="none" stroke="#000" stroke-linecap="round" stroke-linejoin="round" stroke-miterlimit="10" stroke-width=".5" d="M146.8164 322.64844l-5.6328-4.20313"/></g><path fill="none" stroke="#000" stroke-linecap="round" stroke-linejoin="round" stroke-miterlimit="10" stroke-width=".5" d="M146.8164 322.64844l-.37109 2.42578m-.44922-3.03516l-.18359 1.21094m14.54297-.9375l-6.07813-3.52734m6.07813 3.52734l-.09375 2.44922m-.79297-2.96485l-.04297 1.22657m14.71875-2.39453l-7.02734-.16016m7.02734.16016l1.10156 2.1914m-2.125-2.21484l.55078 1.09375m13.70704-1.89453l-6.8672 1.48437m6.8672-1.48437l1.58593 1.875m11.65235-2.16797l-6.71485 2.07031m6.71485-2.07031l1.73828 1.73047m10.83594-3.03906l-5.23438 4.6875m5.23438-4.6875l2.30468.84765m9.59766-1.80469l-2.40625 6.60157m2.40625-6.60157l2.42969-.33984m-2.78125 1.30078l1.21484-.17187m11.1875-1l.1211 7.02734m-.1211-7.02734l2.14844-1.1875m-2.1289 2.21093l1.0703-.59765m10.25.22265l4.07032 5.72657m-3.47656-4.89454l.54687-1.09375m10.83203 2.16016l6.75781 1.9336m-5.77343-1.65235l-.25782-1.19922m14.41407 5.03516l3.10547-6.30078m-2.65235 5.38281l-1.22656.03906m16.80078 1.04297l-2.3164-6.63281m2.3164 6.63281l-1.66797 1.80469m16.46094-2.79688l-5.27344-4.64453m5.27344 4.64453l-.5664 2.38672m-.19923-3.0625l-.28515 1.1914m15.09765-1.84374l-6.73828-1.99219m6.73828 1.99219l.4922 2.40625m-1.47266-2.69531l.24609 1.20312m14.15234-2.4414l-6.94531 1.0664m6.94531-1.0664l1.46875 1.96484m-2.47656-1.8125l1.46484 1.96875m12.54297-3.1289l-6.3164 3.07812m6.3164-3.07813l1.98438 1.44531m-2.90235-.99609l1.98438 1.4414m11.78516-2.60546l-5.38672 4.51172m5.38672-4.51172l2.27343.92187m-3.05468-.26562l1.13671.46094m12.98047-1.09375l-5.42968 4.46093m4.64062-3.8125l1.13281.47266m12.84375-1.26563l-5.17187 4.75391m5.17187-4.7539l2.3125.8125m-3.0664-.1211l1.16015.40625m13.80469.8125l-6.96484.9336m6.96484-.9336l1.42969 1.99219m10.39453 1.36719l-3.98047-5.78907m3.39844 4.94922l-.5664 1.08594m12.125.35547l.6953-6.99219m-.59375 5.97656l-1.13671.46485m15.23046-6.41797l-1.0664 6.94531m17.01953-4.98047l-6.34375 3.01953m6.34375-3.01953l1.97266 1.46094m-2.89454-1.02344l.98438.73047m12.4375-2.26562l-4.71094 5.21484"/><g clip-path="url(#W)"><path fill="none" stroke="#000" stroke-linecap="round" stroke-linejoin="round" stroke-miterlimit="10" stroke-width=".5" d="M465.91797 317.9414l2.3789.59766"/></g><path fill="none" stroke="#000" stroke-linecap="round" stroke-linejoin="round" stroke-miterlimit="10" stroke-width=".5" d="M465.23047 318.69922l2.38281.59765m-3.0664.16016l1.1914.30078"/><path fill="#00f" fill-rule="evenodd" d="M312.78516 476.52344h8.62109V466.3789h-8.6211v10.14453"/><path fill="azure" fill-rule="evenodd" d="M314.6211 468.21094h.83202v2.82422h3.28516v-2.82422h.83203v6.48047h-.83203v-2.91407h-3.28515v2.91407h-.83204v-6.48047"/><path fill="#00f" fill-rule="evenodd" d="M388.23828 476.52344h8.61719V466.3789h-8.61719v10.14453"/><path fill="azure" fill-rule="evenodd" d="M390.07031 468.21094h.83594v2.82422h3.28516v-2.82422h.83203v6.48047h-.83203v-2.91407h-3.28516v2.91407h-.83594v-6.48047"/><path fill="#00f" fill-rule="evenodd" d="M383.80078 436.57813h8.61719v-10.14454h-8.61719v10.14454"/><path fill="azure" fill-rule="evenodd" d="M385.63281 428.26563h.83203v2.82421h3.28907v-2.82421h.83203v6.48046h-.83203v-2.91406h-3.28907v2.91406h-.83203v-6.48046"/><path fill="#00f" fill-rule="evenodd" d="M370.48438 396.63281h8.62109v-10.14453h-8.6211v10.14453"/><path fill="azure" fill-rule="evenodd" d="M372.3164 388.32031h.83594v2.82422h3.28516v-2.82422h.83203v6.48047h-.83203v-2.91406h-3.28516v2.91406h-.83593v-6.48047"/><path fill="#ff3030" fill-rule="evenodd" d="M322.35938 387.75781h7.6914v-10.14453h-7.6914v10.14453"/><path fill="azure" fill-rule="evenodd" d="M324.1914 379.44531h.83204v5.73828h3.19531v.7422h-4.02734v-6.48048"/><path fill="#ff3030" fill-rule="evenodd" d="M193.64453 374.4414h7.69531v-10.14452h-7.6953v10.14453"/><path fill="azure" fill-rule="evenodd" d="M195.47656 366.1289h.83594v5.7422h3.1914v.73827h-4.02734v-6.48046"/><path fill="#ffffe0" fill-rule="evenodd" d="M319.55078 349.1289h22.1836v-10.1914h-22.1836v10.1914"/><path fill-rule="evenodd" d="M323.05078 340.76953h.51172v6.29688h-.78906v-4.4922h-1.38672v-.55468l.5586-.0664.25-.05079.23046-.08984.20313-.14063.17578-.21093.14062-.29688.10547-.39453m4.8125 0l.23047.01953.21875.05469.21094.08984.19531.1211.1836.14844.17187.17578.30078.42187.24219.49219.17969.54687.11328.57813.03906.59375-.03906.58984-.11329.58594-.17968.55469-.24219.5-.30078.42969-.17188.17968-.18359.15235-.19531.125-.21094.08984-.21875.0586-.23047.01952-.22656-.01953-.21875-.05859-.21094-.08984-.19531-.125-.1836-.15235-.17187-.17969-.30078-.42968-.24219-.5-.17969-.55469-.11328-.58594-.03906-.58984h.83594l.02734.5625.08203.5039.125.44532.16406.375.19141.29687.21094.22266.22265.13672.22266.04687.22656-.04687.22266-.13672.21094-.22266.1914-.29687.16407-.375.125-.44531.08203-.50391.02734-.5625-.02734-.5625-.08203-.5-.125-.4375-.16407-.36328-.1914-.29297-.21094-.21485-.22266-.1328-.22656-.04298-.22265.04297-.22266.13281-.21094.21485-.1914.29297-.16407.36328-.125.4375-.08203.5-.02734.5625h-.83594l.03906-.59375.11328-.57813.1797-.54687.24218-.49219.30078-.42187.17188-.17579.18359-.14843.19531-.1211.21094-.08984.21875-.05469.22656-.01953m5.09375 0h.50781v6.29688h-.78515v-4.4922h-1.39063v-.55468l.5625-.0664.25-.05079.23047-.08984.20313-.14063.17578-.21093.14062-.29688.10547-.39453m2.82422 2.17578h.78516l.01953-.3164.0586-.28516.10155-.2539.14063-.21485.17969-.17188.22265-.1289.26563-.08203.3086-.02735.23827.01954.22266.0625.20312.10156.1797.14062.14843.17188.11328.20703.07422.23437.02344.26563-.02344.26953-.0625.22266-.11328.1914-.15235.17188-.20312.16406-.2461.16406-.6328.39063-.53907.3125-.4375.3164-.34766.32422-.26171.33594-.19141.35156-.125.3711-.0664.39062-.02344.42188h4.21093v-.7422h-3.33203l.08594-.28515.11328-.23437.14844-.20313.1875-.17969.23047-.17187.27734-.17578.71875-.41406.41406-.20704.34375-.23046.28125-.25.21875-.26954.16406-.27734.11329-.28515.0625-.28516.01953-.28125-.03906-.38281-.1211-.34766-.1914-.3086-.25-.26171-.30079-.21094-.34765-.16016-.3789-.09765-.40626-.03516-.4336.03516-.39843.09765-.35547.16407-.30469.23437-.25.30469-.18359.375-.11719.44531-.03906.51953"/><path fill="#ffffe0" fill-rule="evenodd" d="M168.64844 396.22266h22.17969v-10.19532h-22.1797v10.19532"/><path fill-rule="evenodd" d="M172.14844 387.86328h.50781v6.29297h-.78516v-4.48828h-1.39062v-.5586l.5586-.0625.2539-.05468.23047-.08985.20312-.14062.17188-.21094.14453-.29297.10547-.39453m4.8125 0l.23047.01563.21875.05859.20703.08984.19531.1211.1836.14844.17187.17578.30469.41796.24218.4961.1797.54297.10937.58203.03906.58984-.03906.59375-.10938.58203-.17969.5547-.24218.5039-.3047.42578-.17187.17969-.18359.15625-.19531.12109-.20703.09375-.21875.05469-.23047.01953-.23047-.01953-.21875-.05469-.20703-.09375-.19531-.1211-.1836-.15624-.17187-.1797-.3047-.42577-.24218-.5039-.17969-.5547-.10937-.58203-.03906-.59375h.83203l.03125.5625.07812.50781.1289.44141.16017.375.1914.30078.21094.22266.22266.13672.22656.04687.22656-.04687.22266-.13672.21093-.22266.19141-.30078.16016-.375.1289-.4414.08203-.50782.02735-.5625-.02735-.5625-.08203-.5-.1289-.4336-.16016-.36718-.1914-.29297-.21094-.21484-.22266-.1289-.22656-.04688-.22656.04687-.22266.1289-.21094.21485-.1914.29297-.16016.36719-.1289.4336-.07813.5-.03125.5625h-.83203l.03906-.58985.10937-.58203.1797-.54297.24218-.4961.30469-.41796.17187-.17579.1836-.14843.1953-.1211.20704-.08984.21875-.0586.23047-.01562m5.08984 0h.51172v6.29297h-.78906v-4.48828h-1.38672v-.5586l.5586-.0625.2539-.05468.22656-.08985.20703-.14062.17188-.21094.14062-.29297.10547-.39453m2.82422 2.17188h.78906l.01953-.3125.0586-.28907.09765-.25.14063-.21875.1836-.17187.22265-.1289.26562-.08204.3047-.02734.23827.02344.22656.0625.20313.10156.17969.13672.14844.17578.11328.20312.0703.23828.02735.26172-.02344.26953-.0664.22657-.10938.1914-.15625.17188-.19922.16015-.24609.16797-.63672.38672-.53515.3125-.4375.32031-.34766.32422-.26563.33594-.1875.34766-.125.37109-.0703.39453-.01954.41797h4.21094v-.74219h-3.33203l.08203-.28125.11328-.23828.14844-.19922.1875-.1836.23047-.16796.27734-.17578.71875-.41797.41406-.20703.34766-.23047.28125-.25.21875-.26563.16406-.28125.10938-.28125.0664-.28515.01953-.28125-.04297-.38281-.12109-.34766-.1875-.3086-.25-.26562-.30469-.21094-.34375-.16015-.3789-.09766-.41016-.03125-.4336.03125-.39843.09766-.35547.16797-.30469.23437-.24609.30469-.1875.375-.11328.44531-.04297.51563"/><path fill="#ffffe0" fill-rule="evenodd" d="M239.66016 425.51953h22.18359v-10.1914h-22.1836v10.1914"/><path fill-rule="evenodd" d="M243.16016 417.16016h.51172v6.29296h-.78907v-4.48828h-1.38672v-.55468l.5586-.06641.2539-.05469.22657-.08984.20312-.14063.17578-.21093.14063-.29297.10547-.39453m4.8164 0l.22656.01953.21875.05469.21094.08984.19531.1211.1836.14843.17187.17578.30078.41797.2422.4961.17968.54687.11328.57812.03906.58985-.03906.59375-.11328.58594-.17969.55078-.24219.5039-.30078.42969-.17187.17969-.1836.15234-.1953.1211-.21095.09375-.21875.05468-.22656.01953-.23047-.01953-.21875-.05469-.20703-.09375-.19922-.12109-.18359-.15234-.17188-.17969-.30078-.42969-.24218-.5039-.1797-.55079-.11327-.58593-.03906-.59375h.83593l.02735.5625.08203.50781.125.4414.16406.375.1914.30079.21094.22265.22266.13672.22656.04688.22656-.04688.22266-.13672.20703-.22265.1914-.30078.16407-.375.125-.44141.08203-.50781.02735-.5625-.02735-.5586-.08203-.5039-.125-.4336-.16406-.36718-.1914-.29297-.20704-.21094-.22266-.13281-.22656-.04688-.22656.04688-.22266.13281-.21093.21094-.19141.29297-.16406.36718-.125.4336-.08203.5039-.02735.5586h-.83594l.03907-.58985.11328-.57812.17969-.54688.24218-.49609.30078-.41797.17188-.17578.1836-.14844.19921-.1211.20703-.08983.21875-.0547.23047-.01952m5.08985 0h.5078v6.29296h-.78515v-4.48828h-1.39062v-.55468l.5625-.06641.25-.05469.23047-.08984.20312-.14063.17578-.21093.14063-.29297.10547-.39453m2.82422 2.17578h.78515l.01953-.3164.0586-.28907.10156-.25.14062-.21485.1797-.17578.22265-.1289.26562-.07813.3086-.03125.23828.02344.22265.0625.20313.10156.17969.13672.14843.17578.11329.20313.07421.23828.02344.26562-.02344.26563-.0625.22656-.11328.1914-.15234.17188-.20313.16016-.24609.16797-.63281.38672-.53906.3164-.4375.3164-.34766.32423-.26172.33594-.1914.35156-.125.36719-.06641.39453-.02344.41796h4.21094v-.73828h-3.33203l.08593-.28515.11329-.23828.14843-.19922.1875-.17969.23047-.17188.27735-.17578.71875-.41796.41406-.20313.34375-.23438.28125-.25.22265-.26562.16016-.27734.11328-.28516.0625-.28516.01953-.28125-.03906-.3828-.1211-.34767-.1914-.30859-.25-.26172-.30078-.21484-.34766-.15625-.3789-.10156-.40625-.03125-.4336.03125-.39844.09765-.35546.16797-.3047.23438-.25.30468-.18358.375-.1172.44532-.03905.51953"/></g></defs><use xlink:href="#X"/></svg>