<svg xmlns="http://www.w3.org/2000/svg" role="img" xmlns:xlink="http://www.w3.org/1999/xlink" viewBox="142.45 309.95 326.84 171.84"><defs><clipPath id="a"><path d="M144 311.67188h1v168.65625h-1zm0 0"/></clipPath><clipPath id="b"><path d="M144 311.67188h324v168.65625H144zm0 0"/></clipPath><clipPath id="c"><path d="M467 311.67188h1v168.65625h-1zm0 0"/></clipPath><clipPath id="d"><path d="M144 478h4v2.32813h-4zm0 0"/></clipPath><clipPath id="e"><path d="M154 477h7v3.32813h-7zm0 0"/></clipPath><clipPath id="f"><path d="M167 478h7v2.32813h-7zm0 0"/></clipPath><clipPath id="g"><path d="M180 478h8v2.32813h-8zm0 0"/></clipPath><clipPath id="h"><path d="M194 477h6v3.32813h-6zm0 0"/></clipPath><clipPath id="i"><path d="M207 477h7v3.32813h-7zm0 0"/></clipPath><clipPath id="j"><path d="M220 478h8v2.32813h-8zm0 0"/></clipPath><clipPath id="k"><path d="M236 476h3v4.32813h-3zm0 0"/></clipPath><clipPath id="l"><path d="M248 477h5v3.32813h-5zm0 0"/></clipPath><clipPath id="m"><path d="M260 477h7v3.32813h-7zm0 0"/></clipPath><clipPath id="n"><path d="M276 476h3v4.32813h-3zm0 0"/></clipPath><clipPath id="o"><path d="M289 476h2v4.32813h-2zm0 0"/></clipPath><clipPath id="p"><path d="M303 476h2v4.32813h-2zm0 0"/></clipPath><clipPath id="q"><path d="M316 476h2v4.32813h-2zm0 0"/></clipPath><clipPath id="r"><path d="M329 476h3v4.32813h-3zm0 0"/></clipPath><clipPath id="s"><path d="M342 476h4v4.32813h-4zm0 0"/></clipPath><clipPath id="t"><path d="M353 479h8v1.32813h-8zm0 0"/></clipPath><clipPath id="u"><path d="M359 480h2v.32813h-2zm0 0"/></clipPath><clipPath id="v"><path d="M366 480h9v.32813h-9zm0 0"/></clipPath><clipPath id="w"><path d="M372 480h2v.32813h-2zm0 0"/></clipPath><clipPath id="x"><path d="M380 478h7v2.32813h-7zm0 0"/></clipPath><clipPath id="y"><path d="M395 476h4v4.32813h-4zm0 0"/></clipPath><clipPath id="z"><path d="M406 479h9v1.32813h-9zm0 0"/></clipPath><clipPath id="A"><path d="M420 478h7v2.32813h-7zm0 0"/></clipPath><clipPath id="B"><path d="M434 477h6v3.32813h-6zm0 0"/></clipPath><clipPath id="C"><path d="M446 478h8v2.32813h-8zm0 0"/></clipPath><clipPath id="D"><path d="M460 477h7v3.32813h-7zm0 0"/></clipPath><clipPath id="E"><path d="M144 464h4v6h-4zm0 0"/></clipPath><clipPath id="F"><path d="M144 450h2v8h-2zm0 0"/></clipPath><clipPath id="G"><path d="M144 439h4v3h-4zm0 0"/></clipPath><clipPath id="H"><path d="M144 426h4v2h-4zm0 0"/></clipPath><clipPath id="I"><path d="M144 413h4v2h-4zm0 0"/></clipPath><clipPath id="J"><path d="M144 399h4v3h-4zm0 0"/></clipPath><clipPath id="K"><path d="M144 385h4v5h-4zm0 0"/></clipPath><clipPath id="L"><path d="M144 370h3v8h-3zm0 0"/></clipPath><clipPath id="M"><path d="M144 356h2v9h-2zm0 0"/></clipPath><clipPath id="N"><path d="M144 363h2v3h-2zm0 0"/></clipPath><clipPath id="O"><path d="M466 358h2v2h-2zm0 0"/></clipPath><clipPath id="P"><path d="M144 343h2v8h-2zm0 0"/></clipPath><clipPath id="Q"><path d="M466 344h2v3h-2zm0 0"/></clipPath><clipPath id="R"><path d="M144 331h3v6h-3zm0 0"/></clipPath><clipPath id="S"><path d="M465 331h3v2h-3zm0 0"/></clipPath><clipPath id="T"><path d="M144 318h4v5h-4zm0 0"/></clipPath><clipPath id="U"><path d="M465 317h3v2h-3zm0 0"/></clipPath><g id="V" clip-path="url(#clip1)"><path fill="#fff" fill-opacity="0" fill-rule="evenodd" d="M0 0h1000v1000H0zm0 0"/><path fill="#d3d3d3" fill-opacity="0" fill-rule="evenodd" d="M162.15234 355.86719l-.23437.29297.0586.23437.11718.17188.17578.23437.29297.34766.11328.0586.11719-.17188.0586-.23438.17577-.17578.46485-.17578h.69922l.23437.29297.28906.8164.0586.17579.17578.23046.35156.23438.69922.69922.17188.17578.23437.34765.23438.41016.28906.58203.41015.46485.23047.23437.23438.17578.11719.23047.17578.29297.17187 1.16406v.23438l.0586.28906.05859.11719.11719.11719.34765.41015.11719.17188.17578.17578.17578.23437.11719.17188.17188.35156.05859.23438.23437.40625.23438-.0586-.17578.17578-.0586.92969h-.58203l-.23437-.11328-.34766.11328-.11719.11719-.05859.29297-.0586.17578-.11718.17187-.46484.29297-.0586.23438-.0586.11328v.64453l.0586.17187v.41016l.0586.0586v.40624l.05859.40625.11719.17579.05859.05859.23047.64062-.0586.29297v.69922l-.05859.58203v.23438l-.0586.23047-.05468.35156v1.92187l.05469.1172h.42578l-.36719.11718-.02344.35156.89063 1.16797 1.74219.53906 1.33984.35938v.53906l.08984.8086.53516.71484 1.51953.26953.89063-.08594.08984 1.16406.53516.1797 1.16015-.1797 2.05469-.98437 1.16016-.36328 1.8789-.17578 1.69531-.1797-.17968.71876-1.51563.08594-1.25.08984-.80469.26953-1.07421.8086.26953.71875.53515.89843-.17968.625-.26563.8086.26563 1.07812.625.89844.80468.17969 1.25-.1797-.26562.72267.09766.5039.05468.29297v.17188l.0586.29296v.40625l.17578.1172.35156.11718h.40625l.29297-.17578.11328-.11719.0586-.11719.11718-.23047.0586-.17578.35156-.46484.23047-.17578.17578-.0586.17578.0586.0586.17578.11718.98828.05469.46875.0586.17188.11718.23437.17578.0586.8164.05859h.28907l.11719.23437.05859.40625.0586.35156v1.10547l.11718.29297.11719.34766.28906.69922.17578.35156.58203.7539.35157.17579.17187.0586.46875.23437.64063.46484.34765.23438.29297.17578.29297.05468.23047.0625.8164.34766.29297.17578.11328.17188.35157.35156.11719.17578.52343.64063v.28906l.0586.35156v.34766l.05859.35156.0586.28906.11718.0586.17188.05859h.17578l.58203.23437.17578.1172.17578.28905.17578.23438.11328.23437.29297.23047.11719.11719v.41016l.0586.05468.28906.23438.23437.11719.0586.11718.11718.17188.0586.11719.23047.23437.05859.17578.23437.0586.1172.05859-.1172.11328-.05859.11719v.11719l-.11719.29296-.11719.28907v.58203l.17579.11719.11718.05859.0586.11719.11719.11719.11328.05859.17578.34765.0586.35157.05858.40625v.17578l-.05859.17578-.11719.69922v.17187l.1172.17579.29296.29296h.40625l.17578.1172.11719.17187.11719.29296v.23438h-.52735l-.23047-.23438h-.23437l-.17578.0586-.0586.69922.0586.34765.11719.17579.17578.41015.11718.23047.28907.46875.17578.05469h.52344l.23437.0586.75781.64062.0586.29296v.23438l.05859.0586.23047.34765v.35156l-.11719.17188v.29297l.29297.28906.29297.17578.17187.0586.29297.17577.29297.1172.58203.40624.28906.23438.29297.17578.21875.16015.01563.01172.23047.17579.64062.52343.17578.23438.1172.17578.17577.17578.11328.17188v.64062l.1172.17578.46874.11719.58203.11719.23438.05859.23047.11328.29297.11719.11328.0586.58593.35156.28907.17187.17578.0625.17578.05469.17578.0586.69922.35155.28906.17579.23438.05468.28906.17578.23437.1172.64063.40624.29297.11719.17187.0586.23438.05859.41015.05859.23047.0586.23438.11718.0586.17188-.41017.17578.46875.0586.0586.29296.11328.23438.17578.05468.23438.0586.17578.05859.40625.11719.64062.23437.11719.17188.0586.23437v.17578l-.0586.1172-.0586.40624.23438.23438.11719.05859.34766.11719.64062.23047.17578.11718.28906.1172.17578.17577.23438.46485.58203 1.10546.17578.17579.34766.17578.17578.11719.35156.11718 1.04688.52344.23437.0586.46485.11327.29297.0586.46484.17578.75781.58203.23438.23438.34765.46484.17578.17578.28907.23438.8164.69921.29297.17579.28906.28906.29297.17578.29297.28906.69531.64063.17578.17578.29297.23437.28907.23438.46875.28906.64062.58203.34766.23438.23437.29297.34766.34765.35156.46485.9336.99218.34765.40625.11719.17579.23437.05859.11328.11719.64454.17578.23047.11328.23437.0586.29297.17577.23047.1172.9336.69921.40624.40625.23438.17578.40625.17578.23437.11719.8164.34766.34766.23437.23438.11719.29297.28906.23047.11719.7578.35156.35157.17188.23047.05859.29297.11719.23437.0586.8711.17577h.8164l.46875.23047.17188.0586.875.69921.46484.1172.29297.05858.17578.0586.23047.0586.46875.05859.34766.05859.35156.0586.40625.05859h.29297l.17187.0586v.23046l.17578.17578h.29297l.34766.0586.35156.05859.69922.11719h.64063l.46484-.23438.29297-.17578.17187-.11719.41016-.17187.28906-.17578.9336-.46485.46875-.29297.52343-.29296.46485-.17188.46484-.17578 1.05078-.46485.28906-.11718.41016-.11719.28906-.11719.52735-.17578 1.51562-.69922.58203-.34765.28907-.0586.29297-.0586.34765-.11718.875-.23047.35156-.11719h.11329l.23437-.05859.875-.23437.23438-.0586h.8125l.35156-.0586.8164-.11718.17188-.0586.35156-.05468.29297-.0586.23047-.05859.8164-.17578.17579-.0586h.34765l.23438-.05859.46484-.11718.75781-.17188.23438-.0586h.34765l.41016-.11718.28906-.0586 1.28516-.05859h.28906l.41016-.0586.23047-.05858h.17578l.875-.1172h.40625l.41015-.11718h.34766l.35156-.11328.8711-.0586h1.75l1.04687.28907.41016.11719.28906.11718.35156.11719.28907.11719 1.05078.17187.28906.0586h.29297l.29297.05859.17187.0586.41016.05859.17187.0586.1172.05858h.11718l.11719.0586.35156.0586h.11328l.41016.0664 1.92187.39453 1.92578.39453 1.51953.44922 1.69532.71875 2.14453.80469 1.60547-.71875 1.42968-.80469 1.16016-1.07813 1.25-.44921 3.03516-.71875 1.875-.35938 2.14453-1.34765 2.23437-1.25391 2.5-1.25781 1.69531-.44922 1.78516-.17969 1.16016-.26953.625.53906 1.33984-.26953.71485-.98828.98437-1.34375.44531-.17969.80469-.35937 1.875-.53907 1.78516-.44921 1.25-.26954 1.16015-.08984 1.69922-.08984 1.96094-.26954 1.25-.08984h.53906l.625-.08984h.89063l2.14453-.17969 2.41015-.17969 2.58985-.08984 1.69531.17969 1.60938.08984 1.42968.35938 1.16016.71875 1.875.98828 1.16015 1.52734.26563.71484.6289.08985.35548.89844.53515.53906.53516 1.52734 1.07422.35938h.53515l-.80469.53515.08985 1.70703.71484 2.69532.89063.80468.89453.98829.71484 1.2578 1.78516.53907 1.51953-.17969.35547 1.34375 1.60937-.80469.98047-.53906.26953.26953.31641-.21484.21875-.14453.80078.44922.44922-.35938h.35547l.53515-.26953.53907-.71875.53515-.26953.625-.98828 1.16016.44922.83984.3711 1.39454.61718 1.6953-.17969h1.60548l1.78515.08985.17969-1.70704.53516-1.34375.80468.26954.4922.84765.40233.40625-.08984.53906v.35938l.71485.44922.71093-.26953h1.42969l.35938.98828.4453 1.25781.71485 1.34375 1.25.6289 1.69531.62891.71485-.17969.17969-.53906.98046-.08984.44922.35937.08594 1.25782-.26563.6289-.53515.17969v.53906l.71484.98438.26563.53906.98437.98828.80078 1.07813-.26562.35937-.08985.89844-.625 2.33203-.35546 2.0664-.08985 1.79298-.17969.71875-.08984.53906v1.4375l-.98047 1.88281-.35937 1.70703-.53516.89844-.80469 1.16797-.26562.53906 2.05469 1.2539.08593.35938-.35546.53906-.08985-.17968v.80859l.08985 1.4375-.44532.71484-1.07422.09375-.26562.71485.53515.89844.8047.71875 1.16015.80859 1.33984.26953.44531.35938-.35546.44921-1.78907-.08984-1.25-.44922-.71484-.71875-.625-.08984-.17578 3.58984-.1875 1.3086h89.35937V311.70313h-55.26953v49.08203l.76172.125 3.28906.54296 2.02344 2.83594v2.7539l2.35156.33204 2.34766.33203h4.05078l-1.3789 4.16016-2.02344.70703-2.02344.70312-.54297.34375-2.59375 1.6172-.1875.11718-2.02344-2.07813-.73046-2.74218-2.67188-2.07813-1.375-3.5-.0664-.08203-1.95704-2.67188 2.75-1.41796v-49.08204H294.42187v91.41407l.1172.03125.1328.01172.07422.07421.10547.04688.08985.0586.08593.05859.08985.0586.29687.29687.0586.08984.03125.11719.02734.11719.01563.13671-.03125.1172-.0586.08983-.0586.08594-.04296.10547-.04688.10156-.02734.1211v.14453l.17578.26953.14844.14844.07422.08594.07422.07421.04296.10547.0625.08985.0586.08593.04297.10547.0586.08985.04687.10156.04296.10547.0586.08594.11719.17968.07421.07422.0625.08594.0586.08984.04297.10547.0586.08985.05858.08593.0625.08985.0586.08984.04297.10156.11719.17969.07421.07422.0586.08594.07422.07421.08984.0586.10547.04687h.14844l.1328-.01562.13282.01562.10156-.04687.07422-.07422.04688-.10156-.01563-.13281v-.14844l-.04687-.10547-.02735-.11719-.04687-.10156-.02735-.1211-.04296-.10156-.0625-.08984-.04297-.10156-.04297-.10547-.03125-.11719-.01563-.13281-.01171-.13672.08593-.0586.0586-.08593.12109-.03125.04297.10547.01562.1328v.1172l.0586.10156.0586.08984.08983.0586.14844.14843.0586.08985.04296.10547-.01171.10156.08593.0586.10547.04687.08594.0586.08984.05858.07422.07422-.11719.02735-.10546.04687-.08594.0586-.07422.07421-.0586.08985-.0625.08594-.02734.12109-.04687.10156-.04297.10547-.03125.11719-.01172.13281-.01563.13281v.14844l.02735.11719.04687.10547.04297.10156.0586.08984.07421.07422.08985.0586.07422.07421.08984.0586.0586.08984.04296.10547.04688.10156.11719.03125.1328.01563h.14845l.11718-.03125.10547.04297.04297.10547.04688.10156.02734.1211L299.5 410l.02734.11719.03125.1211.02735.11718.10547.04297.10156.04687.13281-.01562.14844.14844.0625.08593.07422.07422.07031.07422.08984.0625.10547.04297.10156.04297.1172.03125.13671.01562.11719-.03125.07422-.07422.02734-.11718-.01172-.13282-.03125-.12109-.02734-.11719.04297-.10547h.11719l.08984.0625.11719.02735h.14843l.13282.01562h.14843l.13282.01563.1328-.01563h.14845l.1328-.01562.13282-.01172.13672.01172.11719-.02735.13281-.01562.1914-.0586-.05859.17579-.01562.1328-.02735.1211-.01562.13281-.0586.08594-.1328.01563-.10548.04687-.10546.04297-.1172.03125-.11718.02735-.26563.03125h-.14843l-.13281.01562-.07422.07422.05859.08594.14844.14843.11719.1797.07421.0703.08985.0625.08984.0586.08594.0586.08984.05858.10156.04297.10547.0625.10547.04297.08594.0586.10547.04687.10156.04297.17969.11719.0586.08984-.04298.10156-.04687.10547.01562.13281.22266.22266.0586.08985.04296.10156.03125.1211.04297.10155.01563.13282.03125.11718.01171.13672.03125.11719.14844.14844.10156.04297.10547.04296.1172.03125.1328.01563.13672.01563h.11719l.11719-.03125.08984-.0586.04297-.10547.04688-.10156.04296-.10547.03125-.11719.01172-.1328v-.14845l-.01172-.1328-.01562-.13282-.03125-.11719-.04297-.10547-.04688-.10547-.04296-.10156-.04297-.10547-.01563-.13281.01563-.13281.02734-.11719.03125-.11719.02735-.1211.04687-.10155.08984-.0586.08594-.0625.07422-.07422.08984-.05859.22266-.22266.0586-.08593.07421-.07422.11719-.17969.0586-.08594v-.14844l-.07423-.07421-.10156-.04688-.10547-.04297-.10156-.04297-.0586-.08984-.04687-.10547-.02734-.11719.08984-.05859.11719-.03125.10156-.04297.17969-.11719.14844-.14843.01172-.13282-.01172-.10546-.08985-.0586-.1328.01563h-.14845l-.1328.01562-.13282-.01562-.1211-.03125-.08593-.0586-.07422-.07422-.0586-.08984-.0625-.08594-.11718-.17969-.0586-.08593.03125-.1211.08594-.05859.1211-.03125.05859-.08594v-.1211l-.03125-.11718-.0586-.08984-.05859-.08594-.04687-.10547-.02735-.11719-.01562-.1328.0586-.08985.07421-.07422.08984-.0586.1172-.17968.07421-.07422.0586-.08594.14843-.14844.1211-.03125.1328-.01562.13282.01562.07422.07422.04297.10547.01562.13281-.03125.1172-.11719.03124-.1328.01172-.14844.14844-.04297.10547-.04688.10156-.02734.1211-.03125.11718v.14844l.03125.11719.04297.10546.05859.08985.07422.07031.07422.07422.11719.03125.12109.02734.11719-.02734.1328-.01563h.1172l.08984.0586.07422.07422.04687.10546.0586.08594.10156.04688.13281.01562.10547.04297.08594.0586-.01172.10546-.07422.07422-.17969.11719-.05859.08984-.08984.0586-.07032.07422-.07421.07421-.0625.08985-.02735.11719-.01562.1328.01562.13282-.01562.13281v.14844l.01562.13281.02735.1172.03125.12108.07421.07422.08985.0586.08594.0586.08984.05858.11719.03125v.08594l-.10157.04688-.08984.0586-.26563.03124-.11718.02735h-.14844l-.10547.04296-.10156.04688-.0586.08984-.0625.23438-.01171.13281-.03125.1211-.01563.1328v.29298l-.01172.1328.01172.13673.01563.1328.1328.01563.13282.01172.1211.03125.08593.0586.07422.07421.04688.10547.04296.10157.01563.1328v.44532l-.01563.13281v.44532l.03125.26562.02735.11719.01562.13281.03125.11719.08594.21094.03125.26562v.14844l-.03125.11719-.02734.11718-.03125.1211-.02735.11719-.03125.11718-.03125.1211-.01171.1328-.01563.13282.08984.0586.1172-.03125.10155.01562.04688.10547-.03125.26562v.44141l-.04297.10547-.04688.10547-.04296.10156-.04297.10547-.0586.08594-.03125.12109-.04296.11719-.03125.11719-.01563.1328.01563.13282.05859.08984.10547.04688.08594.0586.05859.08593-.01172.13672-.03125.11719-.04297.10156v.44531l-.01562.13281v.14844l-.03125.11719-.04297.10547-.02735.11719-.04687.10546-.04297.10157-.03125.12109-.02734.11719-.03125.13281-.03125.11719-.02735.11719-.04297.10546-.03125.1172-.03125.12108-.01171.13282-.01563.13281v.29688l.02734.11718v.14844l.04688.39844.02734.11719.0586.08984.12109.03125h.14844l.13281-.01563.0586.08985v.11719l-.0586.08984-.08984.0586-.10157.04296-.10546.04688-.08985.05859-.08594.0586-.13671.01562-.1172-.03125-.1328-.01563-.10157.04688-.0625.08594-.01172.13671-.01562.13282-.03125.11719-.02735.11718-.01562.13281-.03125.1211v.29687l.01563.13282.03125.11718v.14844l.01171.13281v.14844l-.02734.11719-.04688.10156-.02734.1211-.03125.11718-.0586.08985-.07421.07421-.10156.04297-.10547.04688-.11719.02734-.1211.03125-.10156-.04687.0586-.08594.10547-.04688.02734-.11718.03125-.11719.02734-.1211.03125-.11718v-.14844l.01563-.13281-.03125-.11719-.04297-.10547-.10547.01563-.07422.07422-.10156.04296-.08984.0625-.07422.07422-.04297.10157-.01563.1328-.03125.1172L304.25 426l-.03125.11719-.02734.11719-.03125.12109-.02735.11719-.03125.11718-.04297.10547-.08984.0586h-.08984l-.1172-.03125-.03124-.08594.01562-.13672-.03125-.11719v-.14844l-.01171-.1328v-.14844l-.0625-.23438-.02735-.1211-.04297-.10156-.04687-.10546-.0586-.08594-.05859-.08985-.04297-.10546-.0625-.08594-.14844-.14844-.0703-.07422-.10548-.04687-.10547-.04297-.10156-.04297-.29687-.29688-.08985-.07421-.08594-.0586-.10546-.04297-.08985-.0625-.08594-.0586-.10546-.04296-.08985-.0586-.08594-.0625-.07421-.0703-.10547-.04688-.08594-.0586-.10547-.04296-.08984-.0625-.10156-.04297-.10547-.04297-.08594-.0586-.10547-.04687-.10547-.04297-.10156-.04687-.08985-.0586-.10156-.04297-.10547-.04296-.08984-.0625-.11719-.02735-.13281-.01562-.13281.01562H299.75l-.13281.01563-.11719-.03125-.08984-.0586-.07422-.07422-.08985-.05859-.10156-.04688h-.14844l-.12109-.02734-.10156-.04297-.07422-.07422-.11719-.17968-.08984-.0586-.10156-.04297-.08985-.0625-.10547-.04296-.08984-.0586-.08594-.0586-.10547-.04687-.0586-.08594-.05858-.08984-.04297-.10547-.04688-.10156-.07422-.07422-.08594-.0586-.07421-.07421-.08985-.0586-.22265-.22265-.04297-.10547-.03125-.26563.10547-.04296h.14453l.10547.04296.07421.07422.08985.0586.08594.0586.10546.04687.08985.05859.14844.14844.0703.07422.14845.14843.0625.08594.07421.07422.08594.0586.07422.07421.08985.0625.08984.0586.08594.05859.26953.17578.10156.04688.10547.04296.10156.04297.04688-.07421.05859-.08594.07422-.07422.07031-.07422.10547.04297.07422.07422.0586.08984.04296.10156.04688.10547.04296.10547.1211.02735.11719-.02735.07421-.08984.04297-.10547.0586-.08985.07422-.07421.10546-.04297.1172-.02735.1328.01172.08985.0586.14844.14843.05859.08985.04297.10547.04687.10156.04297.10547.04297.10156.10547.04688.10547.04296.13281.01563.08594-.0586.0586-.08984.07421-.07422.10547-.04297.11719.02735.10547.04687.10156.04297.10547.04297.10156.04688.17969.11718v.11719l-.01563.13281.01563.13281.01562.13672.0586.08594.10156.04688.1211.02734.11718.03125h.14844l.11719-.03125.05859-.08984.17969-.1172.05859-.08983.07422-.07422.0586-.08594.11718-.17969.17969-.11719.11719.03125.08984.0586.04297.07422-.01563.1328v.1172l.08985.05859h.14843l.13282-.01563.1328-.01171.26563-.03125.10547-.04297.11719-.03125.1211-.02735.07421-.07421.07031-.07422.0625-.08985-.01562-.10547-.04688-.10156-.10156-.04297-.10547-.01562-.11718.02734-.26563.03125h-.14844l-.07421-.07422-.08985-.0586-.11719-.03124-.11718-.02735-.13282-.01562h-.14843l-.13282.01563h-.29687l-.10547-.04688-.14844-.14844-.04297-.10156-.05859-.08984.22266-.22266.08593-.0586.10547-.04296.11719-.03125.13281-.01563.13281.01563.13672.01562.10157.04297.1328-.01172.08985-.0625.10156-.04297.0625-.08984-.04687-.10156-.08984-.0586-.1172-.03125-.10155-.04296-.0586-.08985-.0625-.08984v-.11719l.01563-.13281.10547-.04688.07421-.07031v-.1211l-.08984-.05859-.03125-.11719.08985-.05859.07421-.07422.04297-.10547.0586-.08984.04687-.10156.01563-.13281v-.14844l-.04688-.10547-.04297-.10156-.08984-.0586-.13281-.01562-.10157-.04297-.13671-.01563-.1172-.03125h-.4453l-.13282-.01562-.13281-.01172-.13281-.01563-.11719-.03125h-.14844l-.13281-.01562-.13281-.01172-.26563-.03125-.1211-.04297-.08593-.0586-.07422-.07421v-.14844l.01172-.13281.10547-.04688.10156-.04296.13281-.01563h.15235l.13281-.01562h.29297l.1211.03125.10156.04296.08984.0586.23438.0625.12109-.04688.08984-.05859.10156-.04297.13282-.01562.10547.04296.10156.04688.13281.01172.1211-.02735h.14453l.12109-.03125.11719-.02734.10547-.04687.07421-.07422.08594-.0586.14844-.14843.0586-.08594.04687-.10547.02734-.11719.01563-.10547-.10156-.04296-.08985-.0586-.11719-.03125-.10546-.04297-.08985-.0625-.07422-.08594-.07422-.07421-.10156-.04297-.10547-.04688-.10156-.04297-.0586-.08984-.04687-.10156-.08594-.21094-.0625-.08594-.05859-.08984-.07422-.07422-.08594-.0586h-.26953l-.11719.03126-.08984.05859-.10156.04297-.13281.01562-.10547-.01562-.02735-.11719-.0625-.08984-.11718-.03125-.10157-.04297-.14843-.14844-.03125-.11719-.01563-.10546.07422-.07422.17969-.1172.11719-.02733.11718-.03125.13672.01562.10156.04297.10547.04297.10156.04687.10547.04297.1172.03125.1328.01563.1172.02734.1328.01563.10547-.01563.08985-.0586-.07422-.07421-.10547-.04297-.07422-.07422-.07422-.08984-.14844-.14844-.08593-.0586-.08985-.05859-.07422-.07422-.08984-.0586-.10156-.04687-.1211-.02734-.10156-.04688-.10547-.04296-.11719-.03125-.10156-.04297-.1211-.03125h-.14843l-.11719.03125-.10546.04297-.08594.0625-.17969.11718-.08594.0586-.08984.0586-.10547.04687-.08594.05859-.10547.04297-.10156.04297-.10547.04687-.07422.07422-.05859.08985-.0586.08593-.04687.10547-.0586.08594-.07421.07422-.13281-.01172-.1172-.03125h-.11718l-.07422.07422-.08984.0586-.07422.07421-.08984.0586-.08594.05859-.10547.04687-.10156.04297-.13672.01563-.10156-.04297-.14844-.14844-.10547-.04688h-.08594l-.10547.04688-.10156.04297-.1211.03125-.11718-.03125-.07422-.07422v-.11719l.03125-.1211.07422-.0703.0586-.08985.07421-.07422.11719-.03125.10547-.04296h.29297l.13281-.01563.13672-.01563.10156-.04296.08985-.0586.10156-.04687.08984-.0586.13281-.01171.08985.05859.13281.01172.08984-.0586.08594-.05859.10547-.04297.08984-.0586.08594-.0625.08985-.05859.14843-.14843.0586-.08594.05859-.08985.10547-.04296.13281-.01563.11719.02735.1211.03125.05859-.0586.05859-.08984.03125-.26563.02734-.11719.10547.01172.13281.01563.10157-.04297.08984-.0586.0586-.08984.07421-.07422.0586-.08984.04687-.10156.01172-.13281-.01172-.13282-.04687-.10547-.14844-.14843-.0586-.08985-.05859-.08594-.04297-.10546v-.44532l.01563-.1328v-.14845l.01172-.1328-.0586-.0586-.08984.0586-.10156-.04298-.17969-.11719-.08594-.05859-.0625-.08984-.0586-.08985-.07421-.07421-.08594-.0586-.1211.03125-.10155.01172-.10547.04688-.08594.05859-.10547.04297-.14844.14844-.08984.05859-.08594.0586-.08984.0625-.10547.04296-.13281.01563v-.1211l.10547-.04297.11718-.03125.07422-.0703.04297-.10548v-.14844l-.02734-.11718-.14844-.14844-.13281-.01563h-.14844l-.11719.03125-.10547.04297-.10156.04297-.08984.0625-.11719.02735-.07422-.07422.01172-.13281-.04297-.10157-.04297-.10547-.08984-.05859-.11719.02734-.1211.03125-.11718.03125-.10156.04297-.1211.03125-.10156.04297-.10547.04297-.08984.0586-.10156.01562v-.11719l.01562-.13281-.0586-.08985-.07421.04297-.14844.14844-.0586.08985-.07421.07421-.04688.10547-.04296.10156-.07422.07422-.0586.08985-.07422.07422-.05859.08593-.07422.07422-.08984.0625-.07422.07031-.07422.07422-.10156.01563-.13281.01562-.10547-.04296v-.1211l.14843-.14844.04297-.10156.0586-.08984.04687-.10156.04297-.10547.0586-.08985.03124-.11719.04297-.10156.03125-.1211.02735-.11718.04687-.10547.04297-.10156.04297-.10547.07422-.07031.08984-.0625.08985-.0586.10156-.04296h.29687l.26563-.03125.10547-.04297-.07422-.07422-.11719-.03125-.10547-.04297-.08984-.0586-.10156-.04687-.08985-.0586-.10156-.04296-.10547-.04297-.08984-.0625-.08594-.0586-.10547-.04296-.10156-.04297-.1211-.03125-.11718-.03125-.10157-.04297L297.5 410.25l-.10156-.04297-.08985-.0586-.04296-.10546-.01563-.13281.10156-.04297.13281-.01563.13672.01563.13282-.01563.10156-.04297.0586-.08984.01562-.10547-.08985-.0586-.07421-.07421-.10157-.04297-.08984-.0586-.14844-.14843-.04297-.10547-.01562-.13281v-.29297l-.0586-.08985-.08984-.05859-.07422-.07422-.04297-.10547-.03125-.11718-.0586-.08985-.07421-.07422-.11719-.02734-.07422-.07422-.08984-.0586-.08984-.0625-.08594-.05859-.07422-.07421-.0586-.08594-.04687-.10547-.08594-.0586-.14843-.14843-.19532-.0586-.1328.01563-.10157.04297-.07422.07422-.04688.10156-.04296.10547-.0586.08984-.0586.08594-.29687.29687-.08984.0586h-.08594l-.0625-.08594-.04297-.10547.03125-.11719.0586-.08984.02734-.11719-.01172-.13281-.08984-.0625-.10547.04688-.11719.02734-.11719.03125-.26953.17578-.10156.04688-.11719.02734-.10546.04687-.08985.0586-.10156.04297-.0586-.08594-.04687-.10547.01563-.13281.04687-.10547.07031-.07422.07422-.07031.0586-.08985v-.14843l-.04297-.10547h-.23829l-.10156.04687-.03125.11719-.02734.11719-.03125.1211-.07422.04296-.13281.01563-.07422-.04688-.04297-.10156-.04297-.10547-.04687-.10156-.04297-.10547-.1211.03125-.10156.04297-.13281.01562-.11719.03125-.10547.04297-.08984.0586-.10156.04687-.1211.02734-.13281.01563-.10156-.04297-.0586-.08985-.04687-.10546-.04297-.10157-.04297-.10546v-.1172l.0586-.08984.08593-.05859.17969-.11719.10156-.04687.10547-.04297.10547-.0586.10156-.04296.08985-.0625.10156-.04297.10547-.0586.10156-.04687.08984-.0586.10547-.04296.10156-.04297.08985-.0625.10156-.04297.13672-.01563.11719.03125.10156.04297.1211.03125.10156.04297.10546.04688.10157.04296.10547.04297.10156.04688.10547.04297.10156.04297.10547.04687.08594.0586.10546.04296.1172.03125.10546.04297.10156.04688.08985.0586.10547.04296.10156.04297.10547.04687.11719.02735.10156.04687.1211.02735h.14843l.08594-.0586.01562-.10156.0586-.08984-.02735-.1172-.07422-.07421-.11719-.17969-.07421-.07422-.08985-.07421-.17969-.1172-.08593-.05859-.10547-.04296-.10156-.04688-.26954-.17578-.05859-.08985-.07422-.07421-.0586-.08985-.04296-.10156-.03125-.11719-.01563-.13672v-.5625l-.01171-.1328-.01563-.13282-.03125-.11719-.01562-.13281-.01172-.13281-.03125-.1211-.22266-.22265-.0586-.08594-.01562-.10547.03125-.11719.13281-.01562v-91.41406H172.9922v1.45312l-.0586.23438-.35156 1.05078-.17187.52343-.1172.34766-.17577.41016-.11719.17187-.23438.29297-.23046.0586h-.35157l-.11718.05859-.23047.40625v.29297l.11719.17578.23046.23047.1172.23437.64062.75781.29297.46485.17578.23437.23047.35156.23437.34766.64063.8164.17578.46485.17187.41016.11719.69531.17578.46875.11719 1.39844.0586.46484v.875l.11718 1.04688v4.78125l-.0586.46484-.35156 1.28125-.17578.52344-.11328.41015-.35156.9297L172.93359 336l-.23437.58203-.11719.17578-.17187.34766-.17578.40625-.35157.8164-.0586.29297-.11327.29297-.11719.28906-.0586.17579-.11718.875-.0586.40625-.05859.11718-.0586.17579-.05859.17187-.23047.52734-.11718.17188v.23437l-.11719.23438-.0586.17187-.17577.58594v.28906l-.0586.17579v.29296l-.0586.11329-.05859.52734v.17187l-.05468.23438v2.6211l-.17578.8164-.1172.17578-.17577.23438-.1172.17187-.11327.23438-.58594.93359-.23047.28906-.29297.46485-.17578.23437-.28906.35156-.35156.69922-.11328.23047-.17579.41016-.17578.23046-.40625.52735-.8164.69922-.29297.17187-.28906.23438-.17579.11719-.17578.17578-.52344.40625-.52734.17578-.17187.17578-.23438.05469-.64062.17578h-.75782m12.21094 31.02344l-1.07422.44921.35938.89454 1.25-.71485.44531-.53906-.98047-.08985"/><path fill="#d3d3d3" fill-opacity="0" fill-rule="evenodd" d="M201.50781 416.59766h-.89453l.44922.6289.98047.35938.80469-.08985.4453-.98828-.17577.08985-.71485-.35547-.89453.35547m154.6211 59.0703l-.0586-.52343v-.29297l.11328-.29297.0586-.23046.46875-.46875h.11328l.11719-.11329.11718-.05859h.17579l.23437-.0586h.34766l.23437.0586.11719.0586.23047.17187.0586.17578.11718.58203v.29297l-.11719.17578-.17187.28906-.17579.17579-.52734.52343-.23047.23438-.11719.0586h-.17578l-.11718-.0586-.40625-.29297-.17579-.11719-.11718-.0586-.0586-.11327-.05468-.1172m6.64062-10.95702l-.0586-.17188v-1.10937l.0586-.17188.17578-.0586.17188-.05858h.17578l.23437-.0586.1172.0586.05858.69921-.05859.17188-.11719.17578-.11718.0586-.23438.52343-.11328.0586h-.23438l-.05859-.1172m9.61328-14.39062l-.11719-.17578v-.69922l.29297-.875.1172-.17187.17577-.35156.11328-.23047.1172-.29297.35155-.75781.1172-.23047.17187-.23438h.17578l.11719-.0586h.64062l.11719.0586.23437.23438.17188.11328.35156.29297.11719.11718.11328.17579v.11328l.11719.05859.11718.11719v.69922l-.05859.17578v.23047l-.0586.17578-.34765 1.05078-.11719.23047-.11719.23437-.11718.0586-.23047.23437-.64063.28906h-.875l-.41015-.11718-.64063-.46485"/><path fill="none" stroke="#bebebe" stroke-linecap="round" stroke-linejoin="round" stroke-miterlimit="10" stroke-width=".5" d="M467.95703 311.69531H144.02734v168.625h323.9297v-168.625"/><g clip-path="url(#a)"><path fill="#fff" fill-opacity="0" fill-rule="evenodd" d="M144 475.89063v4.4375h.0039H144V311.67188h.0039H144v164.21875"/></g><g clip-path="url(#b)"><path fill="#fff" fill-opacity="0" fill-rule="evenodd" d="M144.0039 480.32813V311.67188h22.1875v126.03125l-4.4375.92578-1.96874 1.7539-1.85157 4.4375.70313 4.4414 3.08594 4.4375.03125.03517.89453 4.40234 1.67578 4.4375 1.86719 1.96094 4.4375 1.24609 4.4375.67188 4.4414-.44922 4.4375.3164 4.4375-.08594 4.4375.08204 1.78125.69921 2.66016 2.87891 4.2461 1.5586.1914.1328.17187-.1328 4.26563-2.0625 3.22656-2.375 1.21094-.28125 4.4414-.57422 4.4375-.35547 4.4375-.09375 4.4375.0586 4.4375-.86329 4.44141-.57422 2.66406-1.75781.375-4.4375.72266-4.4375-3.76172-2.6211-4.4414-1.5039-4.4375-.01172-4.4375.73828-4.4375.26953-4.4375.32422-2.32032-1.63281-2.1211-1.9414-4.4375-2.1875-.79296-.3125-3.64453-1.8125-4.4375-1.23829-4.4414-.07031-4.4375-.51953-4.4375.23437-4.4375-.39453-1.85938-.63672-2.58203-1.48047-4.4375-.85156-4.4375-.34765V311.67188h137.58984V455.6328l-3.92578 2.5039-.51172.3672-4.4414 3.52343-.51563.54688.51562.48437 4.44141 2.37891 4.4375-.48828 3.73047-2.375-.47266-4.4375-3.25781-2.5039V311.67187h22.1914v141.33984l-.66406.6875.66407.75781.95703-.75781-.95703-.6875V311.67187h4.4375v147.12891l-4.4375 1.42969-4.4375.21875-4.4375 1.8164-.31641.3086.3164.3125 4.4375 1.84375.83594 2.28515-.83593 1.71094-4.4375.48828-3.12891 2.23829.14063 4.4375 2.98828 2.36718 4.4375-1.55078.97656-.8164 3.46094-.57813 4.4375-.16797 2.46484.7461 1.97266 1.60937 3.52343-1.60938-3.52343-1.98437-.73829-2.45313.71875-4.4375.01954-.10156 2.89453.10156 1.54687.1836.125-.1836 1.78516-4.4414-1.91016-1.85547-4.4414-1.10156-4.4375-.8164V311.67186h39.9453v97.4336l-.20702.21094-2.66016 4.4375 2.86719 2.85546 3.2539-2.85546-3.02343-4.4375-.23047-.21094v-97.4336h8.8789v102.70704l-2.65625 3.8125-.42187 4.4375 3.07813 4.125.20703.3164 4.23046 3.91016 4.4375-1.30469 2.16797-2.60547-2.16796-3.16406-.35157-1.27734-1.3164-4.4375-2.76954-3.29688-4.4375-.51562V311.67187h17.75v120l-4.4375.00391-4.4375.32031-4.4375.58985-3.41796 3.35937 2.01171 4.4375 1.40625.55469 4.4375 2.4414.70704 1.44141.1289 4.4414-.83594 3.64845-.72265.78906-2.84375 4.4375-.8711 1.1289-.82421-1.1289-3.61329-3.76953-4.4414 1.51172-2.0664 2.2578-.31641 4.4375 2.3828 2.25782 4.44142 1.72656.60156.45704-.47266 4.4375.35547 4.4375 3.95313 3.68359 4.4375-.58203 3.35937-3.10156 1.07813-.4922 4.4375.2461.52343.2461 3.91797 3.39843 4.01172-3.39844-4.01172-4.02343-.19531-.41406.19531-.4375 4.4375-1.23047 4.4375-.79297.76563-1.97656 2.21093-4.44141-2.97656-3.1914-4.4375-.84766-.60547-.39844.04297-4.4375.5625-.51953 4.4375-2.375 1.375-1.54297-1.375-1.4375-.9336-3.0039-2.35156-4.4375-1.15234-1.44532-.64062-2.99219-3.79688-3.7461-4.4414-.52733v-120h71.01171v168.65625H144.00391"/></g><path fill="#50fcfc" fill-rule="evenodd" d="M158.63672 449.26172l-.70313-4.4414 1.85157-4.4375 1.96875-1.75391 4.4375-.92579 4.4375.34766v3.42578l-4.4375.89844-4.4375-.65625-2.29688 3.10156 1.85547 4.4414.4414.62892 2.32813 3.80859.5664 4.4375 1.54298 2.57031 4.24218 1.86719.19532.08203 4.4375 1.0586 4.4414-.47657 4.4375 1.40625 4.4375-.10937 4.4375.30859 4.4414 1.66016 1.71095.51171 2.72656 1.42188 2.125-1.42188 2.3125-1.09375 4.4375-.6953 4.4414-.58594 4.4375-.91016 4.4375-.11719 4.4375.1914 3.0625-1.23046 1.375-3.48828.66016-.94922 1.9414-4.4375-2.60155-1.76563-4.4375-.14062-4.4375 1.61328-3.06641.29297-1.3711.14453-4.4375.4961-1.80468-.64063-2.63672-1.99219-3.48828-2.44531-.94922-.63281-4.4375.41796-4.4375-2.96484-4.4414-.94922-.27735-.3125-4.16016-1.44922-3.71094 1.44922 2.26172 4.4414-.5 4.4375-2.48828 1.62892-3.6875-1.62891-.75-.91016-.82031-3.52734.82031-2.10547 3.17969-2.33594-3.17969-.9375-4.4414-2.21484-4.4375-.1914v-3.42579l4.4375.85156 2.58203 1.48047 1.85937.63672 4.4375.39453 4.4375-.23437 4.4375.51953 4.4414.07031 4.4375 1.23828 3.64454 1.8125.79297.3125 4.4375 2.1875 2.1211 1.9414 2.3203 1.63282 4.4375-.32422 4.4375-.26953 4.4375-.73828 4.4375.01172 4.44141 1.5039 3.76172 2.6211-.72266 4.4375-.375 4.4375-2.66406 1.75781-4.4414.57422-4.4375.86328-4.4375-.0586-4.4375.09376-4.4375.35547-4.44141.57421-1.21094.28125-3.22656 2.375-4.26563 2.0625-.17187.13282-.1914-.13281-4.2461-1.5586-2.66016-2.8789-1.78125-.69922-4.4375-.08204-4.4375.08594-4.4375-.3164-4.4414.44921-4.4375-.67187-4.4375-1.2461-1.8672-1.96093-1.67577-4.4375-.89453-4.40235-.03125-.03515-3.08594-4.4375"/><path fill="#00e8fc" fill-rule="evenodd" d="M161.3125 449.26172l-1.85547-4.4414 2.29688-3.10157 4.4375.65625 4.4375-.89844v6.71875l-1.85157 1.0664 1.23438 4.4375-1.125 4.4375 1.74219 4.21876 1.9453-4.21875-1.28515-4.4375.29688-4.4375-.95703-1.0664v-6.71876l4.4375.1914v3.09767l-.2461.05468.2461.35938.10156-.35938-.10156-.05469v-3.09765l4.4414 2.21484 3.17969.9375-3.17969 2.33594-.82031 2.10547.82031 3.52734.75.91016 3.6875 1.6289 2.48828-1.6289.5-4.4375-2.26172-4.4414 3.71094-1.44923 4.16016 1.44922.27734.3125 4.4414.94922v6.03906l-4.4414 1.5547-.01562.02343-.47266 4.4375.48828 2.625.78125 1.8125 3.66016 1.01953 4.4375-.16016 3.15625-.85937 1.16406-4.4375-4.32031-3.6914-1.26563-.7461-3.17187-1.57813v-6.03906l4.4375 2.96485 4.4375-.41797.94922.6328 3.48828 2.44532v5.29688l-4.17578 1.1328 2.21094 4.4375 1.96484.14063 1.03125-.14062 3.41016-1.61719 2.5-2.82031-2.5-.92188-4.44141-.21093v-5.29688l2.63672 1.99219 1.80469.64062 4.4375-.49609 1.37109-.14453 3.0664-.29297 4.4375-1.61328 4.4375.14062 2.60157 1.76563-1.9414 4.4375-.66017.94922-1.375 3.48828-3.0625 1.23047-4.4375-.1914-4.4375.11718-4.4375.91015-4.4414.58594-4.4375.69531-2.3125 1.09375-2.125 1.42188-2.72656-1.42188-1.71094-.51171-4.4414-1.66016-4.4375-.3086-4.4375.10938-4.4375-1.40625-4.44141.47656-4.4375-1.05859-.19532-.08203-4.24218-1.86719-1.54297-2.57031-.5664-4.4375-2.32813-3.8086-.44141-.6289"/><path fill="#50fcfc" fill-rule="evenodd" d="M170.6289 448.19531l-1.85156 1.0664 1.23438 4.4375-1.125 4.4375 1.74219 4.21876 1.9453-4.21875-1.28515-4.4375.29688-4.4375-.95703-1.0664"/><path fill="#00d4fc" fill-rule="evenodd" d="M175.0664 445.17969l-.24609-.35938.2461-.05469.10156.0547-.10156.35937m17.7539 15.58203l-.48828-2.625.47266-4.4375.01562-.02344 4.4414-1.55469 3.17188 1.57813 1.26563.7461 4.32031 3.6914-1.16406 4.4375-3.15625.85937-4.4375.16016-3.66016-1.01953-.78125-1.8125m15.78906 1.8125l-2.21093-4.4375 4.17578-1.13281 4.4414.21093 2.5.92188-2.5 2.82031-3.41015 1.61719-1.03125.14062-1.96484-.14062"/><path fill="#50fcfc" fill-rule="evenodd" d="M294.90234 463.0586l-.51562-.48438.51562-.54688 4.44141-3.52343v3.41015l-.77344.66016.77344.46484 2-.46484-2-.66016v-3.41015l.51172-.3672 3.92578-2.5039 3.25781 2.5039.47266 4.4375-3.73047 2.375-4.4375.48829-4.4414-2.3789"/><path fill="#00e8fc" fill-rule="evenodd" d="M299.34375 463.03906l-.77344-.46484.77344-.66016 2 .66016-2 .46484"/><path fill="#50fcfc" fill-rule="evenodd" d="M314.10938 475.89063l-.14063-4.4375 3.1289-2.23829 4.4375-.48828.83594-1.71094-.83593-2.28515-4.4375-1.84375-.31641-.3125.3164-.3086 4.4375-1.8164 4.4375-.21875 4.4375-1.42969v1.10156l-3.78906 2.67188-.64843.97656-2.14454 3.46485-2.14843 4.4375 4.29297 2.77343 4.4375-.65625 2.12109-2.11719 1.52734-4.4375.78907-3.49609 1.47265-.94531-1.47265-.64063-4.4375-2.03125v-1.10156l4.4375.8164 4.4414 1.10157 1.91016 1.85547-1.78516 4.4414-.125.1836-1.54687-.1836-2.89453-.10156-.01954.10156-.71875 4.4375.73829 2.45313 3.52343 1.98438-3.52343 1.60937-1.97266-1.60938-2.46484-.74609-4.4375.16797-3.46094.57813-.97656.8164-4.4375 1.55078-2.98829-2.36719"/><path fill="#00e8fc" fill-rule="evenodd" d="M325.97266 474.22656l-4.29297-2.77344 2.14844-4.4375 2.14453-3.46484.64843-.97656 3.78907-2.67188v1.83594l-1.1836.83594-2.98828 4.4414-.26562.79688-1.4961 3.64063 1.4961.96484 3.26171-.96485 1.17579-.42187 2.36718-4.01563-.80078-4.4414-1.5664-.83594v-1.83594l4.4375 2.03125 1.47265.64063-1.47265.94531-.78907 3.4961-1.52734 4.4375-2.1211 2.11718-4.4375.65625"/><path fill="#00d4fc" fill-rule="evenodd" d="M325.97266 472.41797l-1.4961-.96485 1.4961-3.64062.26562-.79688 2.98828-4.4414 1.1836-.83594v2.57422l-1.91407 2.70313 1.91407 1.84375 1.08593-1.84375-1.08593-2.70313v-2.57422l1.5664.83594.80078 4.4414-2.36718 4.01563-1.17579.42188-3.26171.96484"/><path fill="#50fcfc" fill-rule="evenodd" d="M325.97266 454.45703l-.66407-.75781.66407-.6875.95703.6875-.95703.75781"/><path fill="#00c4fc" fill-rule="evenodd" d="M330.41016 468.85938l-1.91407-1.84375 1.91407-2.70313 1.08593 2.70313-1.08593 1.84375"/><path fill="#50fcfc" fill-rule="evenodd" d="M370.35547 416.60938l-2.86719-2.85547 2.66016-4.4375.20703-.21094v3.8789l-.48438.76954.48438.48046.55078-.48046-.55078-.76954v-3.8789l.23047.21094 3.02344 4.4375-3.25391 2.85546"/><path fill="#00e8fc" fill-rule="evenodd" d="M370.35547 414.23438l-.48438-.48047.48438-.76954.55078.76954-.55078.48046"/><path fill="#50fcfc" fill-rule="evenodd" d="M374.79297 464.83203l-2.38281-2.25781.3164-4.4375 2.0664-2.25781 4.44142-1.51172 3.61328 3.76953.82421 1.1289.8711-1.1289 2.84375-4.4375.72265-.78906.83594-3.64844-.1289-4.4414-.70704-1.44141-4.4375-2.44141-1.40625-.55469-2.01171-4.4375 3.41796-3.35937 4.4375-.58985 4.4375-.3203v.9375l-4.4375.92187-4.40234 2.41015 3.55078 4.4375.85156.54297 1.91016 3.89453.33203 4.4414-.85156 4.4375-1.39063 1.65235-2.12109 2.78516-2.3164 2.9961-2.19141-2.9961-2.2461-2.34766-3.41015 2.34766-.67188 4.4375 4.08204 3.10547L381 467.01563l-1.09375 4.4375 1.02734 4.4375 2.73829 2.55078 4.4375-1.45313 1.1875-1.09765 3.25-1.48047 4.4375-.12891 3.41796 1.60938 1.02344.88671 1.04688-.88671-1.04688-1.05079-1.57812-3.38671 1.57812-3.55079 1.90625-.88671 2.53125-.62891 4.4375-3.4375.22656-.375-.22656-.24219-4.4375-2.57422-2.46484-1.6211-.82422-4.4375 3.28906-3.02733 1.97656-1.41016.03125-4.4414-2.0078-2.82423-.21095-1.61328-1.7578-4.4375-2.46876-2.4375-4.4414-.88672-4.4375-.0078v-.9375l4.4375-.00392 4.4414.52735 3.79688 3.7461.64062 2.99218 1.15235 1.44531 2.35156 4.4375.9336 3.0039 1.375 1.4375-1.375 1.54298-4.4375 2.375-.5625.51953-.04298 4.4375.60547.39844 4.4375.84765 2.97656 3.1914-2.21093 4.44142-.76563 1.97656-4.4375.79297-4.4375 1.23046-.19531.4375.19531.41407 4.01172 4.02344-4.01172 3.39843-3.91797-3.39844-.52344-.24609-4.4375-.2461-1.07812.4922-3.35938 3.10156-4.4375.58203-3.95312-3.6836-.35547-4.4375.47266-4.4375-.60156-.45703-4.44141-1.72656"/><path fill="#00e8fc" fill-rule="evenodd" d="M379.23438 465.67969l-4.08204-3.10547.67188-4.4375 3.41015-2.34766 2.2461 2.34766 2.1914 2.9961 2.31641-2.9961 2.1211-2.78516 1.39062-1.65234.85156-4.4375-.33203-4.4414-1.91015-3.89454-.85157-.54297-3.55078-4.4375 4.40235-2.41015 4.4375-.92188v1.57031l-4.21094 1.76172 1.0039 4.4375 2.6875 4.4375.51954 3.57031.0625.8711-.0625 1.33203-.39063 3.10547-3.64453 4.4375-.40235.10937-3.98046 4.32813-.45704 2.60547-1.4414-2.60547-2.9961-4.39453-2.15625 4.39453 2.15625 1.64062 3.70313 2.80079-2.13281 4.4375 2.16015 4.4375.70704.66015 1.51953-.66015 2.91796-.56641 4.4375-2.5664 4.4375-.75391.5625-.55079 2.17579-4.4375 1.70312-1.8164 4.4375-1.5664 1.27735-1.0586-1.27735-.78125-4.4375-2.625-.72656-1.03125-.25781-4.4375.98437-1.34766 3.19922-3.08984 1.0664-4.4414-.49218-4.4375-3.51953-4.4375-.2539-.25-4.44142-1.4961-4.4375-.01563v-1.5703l4.4375.0078 4.44141.88672 2.46875 2.4375 1.75781 4.4375.21094 1.61328 2.00781 2.82422-.03125 4.4414-1.97656 1.41017-3.28906 3.02734.82422 4.4375 2.46484 1.6211 4.4375 2.57421.22656.24219-.22656.375-4.4375 3.4375-2.53125.6289-1.90625.88672-1.57812 3.55079 1.57812 3.38671 1.04688 1.05079-1.04688.88671-1.02344-.88671-3.41796-1.60938-4.4375.1289-3.25 1.48048-1.1875 1.09765-4.4375 1.45313-2.73829-2.55079-1.02734-4.4375L381 467.01563l-1.76563-1.33593"/><path fill="#50fcfc" fill-rule="evenodd" d="M379.23438 426.7539l-3.07813-4.125.42188-4.4375 2.65625-3.8125 4.4375.51563v3.41406l-4.4375.54297-1.03907 3.77735 1.03906 1.39062 2.00782 3.05078 2.42969 2.24219 3.16015-2.24219-.98828-4.4414-2.17188-4.32032v-3.41406l2.76954 3.29688 1.3164 4.4375.35156 1.27734 2.16797 3.16406-2.16796 2.60547-4.4375 1.30469-4.23047-3.91016-.20704-.3164"/><path fill="#00d4fc" fill-rule="evenodd" d="M379.23438 464.21484l-2.15625-1.64062 2.15625-4.39453v3.9336l-.22657.46093.22656.17187.3125-.17187-.3125-.46094v-3.9336l2.9961 4.39454 1.4414 2.60547.45704-2.60547 3.98046-4.32813.40235-.10937 3.64453-4.4375.39063-3.10547.0625-1.33203-.0625-.8711-.51954-3.5703-2.6875-4.4375-1.0039-4.4375 4.21094-1.76173V435.75l-.46094.19531-1.32813 4.4375 1.78906 2.80078.6172 1.63672.42187 4.4414.49219 4.4375-1.53125 3.57813-.6836.85938-3.7539 1.03906-3.125 3.39844-.35938 4.4414-.95313.98438-1.96484 3.45313 1.96485 3.41796 4.4375-.39062 4.1953-3.02735.2422-.3828 4.4375-2.70313.68359-1.35156 3.75781-4.00391 1.08203-.4375-1.08203-.5664-2.72265-3.8711.41796-4.4375 2.3047-3.15235 1.32812-1.28515 2.04687-4.4414-.0586-4.4375-3.3164-3.95704-3.96875-.48047-.47265-.16797-4.4375-.02734v-1.5664l4.4375.01562 4.4414 1.4961.2539.25 3.51954 4.4375.49219 4.4375-1.06641 4.4414-3.19922 3.08984-.98437 1.34766.2578 4.4375.72657 1.03125 4.4375 2.625 1.27735.78125-1.27735 1.0586-4.4375 1.5664-1.70312 1.8164-2.17579 4.4375-.5625.55079-4.4375.7539-4.4375 2.5664-2.91796.56642-1.51954.66015-.70703-.66015-2.16015-4.4375 2.13281-4.4375-3.70313-2.80079"/><path fill="#00e8fc" fill-rule="evenodd" d="M379.23438 424.01953l-1.03907-1.39062 1.03906-3.77735 4.4375-.54297 2.17188 4.32032.98828 4.4414-3.16015 2.24219-2.4297-2.24219-2.0078-3.05078"/><path fill="#00c4fc" fill-rule="evenodd" d="M379.23438 462.7461l-.22657-.17188.22656-.46094.3125.46094-.3125.17187m4.4375 12.125l-1.96484-3.41796L383.67188 468l.95312-.98438.35938-4.4414 3.125-3.39844 3.7539-1.03906.6836-.85938 1.53125-3.57812-.4922-4.4375-.42187-4.4414-.61719-1.63673-1.78906-2.80078 1.32813-4.4375.46094-.19531 4.4375.02734v.55079l-4.4375 3.02734-.375 1.02734.375.58594L394 444.82031l.5586 4.4414 1.3164 4.4375 1.10938 3.6211v1.17188l-4.4375.85156-4.4375.76172-2.26954 2.46875.31641 4.4414-2.48438 2.56641-1.0664 1.8711 1.0664 1.85156 4.4375.33203 3.02735-2.1836 1.41015-2.22265 2.85547-2.21485 1.58204-1.30078 2.96875-3.14062-2.96875-4.08203v-1.17188l.8203-3.6211 3.16016-4.4375.46094-.41405 2.48828-4.02735.3711-4.4375-2.85938-3.41406-4.4414-.64063v-.55078l.47265.16797 3.96875.48047 3.3164 3.95703.0586 4.4375-2.04687 4.4414-1.32813 1.28517-2.30469 3.15234-.41796 4.4375 2.72265 3.8711 1.08203.5664-1.08203.4375-3.75781 4.0039-.6836 1.35157-4.4375 2.70312-.24218.38281-4.19531 3.02735-4.4375.39062"/><path fill="#00b8fc" fill-rule="evenodd" d="M383.67188 473.30469l-1.06641-1.85156 1.0664-1.8711 2.48438-2.5664-.3164-4.44141 2.26952-2.46875 4.4375-.76172v1.51953l-4.4375.17188-1.41796 1.53906 1 4.4414-4.01954 4.14844-.16406.28906.16406.28516 4.4375 1.05469 1.85938-1.33985 2.57813-4.0625.48828-.375 3.94921-3.24218 1.13282-1.19922-1.13281-1.55469-4.4375-.15625v-1.51953l4.4375-.85156 2.96875 4.08203-2.96875 3.14062-1.58204 1.30079-2.85546 2.21484-1.41016 2.22265-3.02735 2.1836-4.4375-.33203"/><path fill="#00a8fc" fill-rule="evenodd" d="M383.67188 471.73828l-.16407-.28515.16406-.28907 4.01954-4.14844-1-4.4414 1.41796-1.53906v.92968l-.5625.60938.5625 2.11328v4.77344l-1.86328 1.99219 1.86329.49609.6914-.4961-.6914-1.99218v-4.77344l4.4375-1.4961 1.10937-.61718-1.10938-.1914-4.4375-.41798v-.92968l4.4375-.17188 4.4375.15625 1.13282 1.55469-1.13281 1.19922-3.94922 3.24219-.48829.375-2.57812 4.0625-1.85938 1.33984-4.4375-1.05469"/><path fill="#009800" fill-rule="evenodd" d="M388.10938 471.94922l-1.86329-.4961 1.86329-1.99218.6914 1.99219-.6914.49609m0-7.26172l-.5625-2.11328.5625-.60938 4.4375.41797 1.10937.1914-1.10938.6172-4.4375 1.49609"/><path fill="#00b8fc" fill-rule="evenodd" d="M392.54688 440.96875l-.375-.58594.375-1.02734 4.4375-3.02735v.4336l-4.07813 3.6211 1.92969 4.4375.69922 4.4414 1.44921 3.53515 2.38282-3.53515 2.0586-1.85156 1.60155-2.58985.8047-4.4375-2.40626-2.86719-4.4414-.7539v-.4336l4.4414.64063 2.85938 3.41406-.3711 4.4375-2.48828 4.02735-.46094.41406-3.16015 4.4375-.82031 3.6211-1.10938-3.6211-1.3164-4.4375-.5586-4.4414-1.45313-3.85157"/><path fill="#00a8fc" fill-rule="evenodd" d="M394.83594 444.82031l-1.92969-4.4375 4.07813-3.6211v.4297l-3.59375 3.1914 2.28125 4.4375.83593 4.4414.47656 1.16017.78516-1.16016 3.65625-3.28516.71485-1.15625 1.23437-4.4375-1.94922-2.32422-4.4414-.86718v-.4297l4.4414.75392 2.40625 2.86718-.80469 4.4375-1.60156 2.58985-2.0586 1.85156-2.3828 3.53515-1.44922-3.53515-.69922-4.4414"/><path fill="#009800" fill-rule="evenodd" d="M395.67188 444.82031l-2.28125-4.4375 3.59375-3.1914v.42968l-3.10938 2.76172 2.63281 4.4375.47656 2.35156 3.31641-2.35156 1.125-.2461 1.49219-4.1914-1.49219-1.78125-4.4414-.98047v-.42968l4.4414.86718 1.94922 2.32422-1.23438 4.4375-.71484 1.15625-3.65625 3.28516-.78515 1.16015-.47657-1.16015-.83594-4.4414"/><path fill="#00ac00" fill-rule="evenodd" d="M396.50781 444.82031l-2.63281-4.4375 3.10938-2.76172v.4297l-2.625 2.33202 2.625 4.11719 4.4414-1.20703 1.03516-2.91016-1.03516-1.23828-4.4414-1.09375v-.42969l4.4414.98047 1.49219 1.78125-1.49219 4.1914-1.125.2461-3.3164 2.35156-.47657-2.35156"/><path fill="#00c800" fill-rule="evenodd" d="M396.98438 444.5l-2.625-4.11719 2.625-2.33203v.85938l-1.65625 1.47265 1.65625 2.59766 4.4414-2.24219.125-.35547-.125-.14844-4.4414-1.32421v-.85938l4.4414 1.09375 1.03516 1.23828-1.03516 2.91016-4.4414 1.20703"/><path fill="#10cc00" fill-rule="evenodd" d="M396.98438 442.98047l-1.65625-2.59766 1.65625-1.47265v.86328l-.6875.60937.6875 1.07813 2.0078-1.07813-2.0078-.60937v-.86328l4.4414 1.32421.125.14844-.125.35547-4.4414 2.24219"/><path fill="#24d000" fill-rule="evenodd" d="M396.98438 441.46094l-.6875-1.07813.6875-.60937 2.0078.60937-2.0078 1.07813"/><g clip-path="url(#c)"><path fill="#fff" fill-opacity="0" fill-rule="evenodd" d="M467.9961 480.32813H468V311.67188h-.0039H468v168.65625h-.0039"/></g><path fill="#fff" fill-opacity="0" fill-rule="evenodd" d="M414.32422 472.19922l2.35937-5.34375-9.11328-4.02344-2.35937 5.34375 9.11328 4.02344"/><path fill-rule="evenodd" d="M408.30078 465.71484l.20703-.46484 5.75781 2.54297-.3164.71875-4.10938-1.8125-.55859 1.26953-.50781-.22266.16406-.53906.05469-.2539.00781-.2461-.04688-.24219-.12109-.24218-.21094-.25-.3203-.25782"/><path fill="#fff" fill-opacity="0" fill-rule="evenodd" d="M231.85938 454.0625l5.21484 2.63281 4.48437-8.89453-5.21484-2.6289-4.48438 8.89062"/><path fill-rule="evenodd" d="M238.64453 448.38281l.45313.23047-2.83594 5.6211-.70313-.35547 2.02344-4.00782-1.23828-.625.25-.49609.52734.1914.25.06641.2461.02344.2461-.03516.25-.10937.2578-.19922.27344-.30469"/><g clip-path="url(#d)"><path fill="none" stroke="#000" stroke-linecap="round" stroke-linejoin="round" stroke-miterlimit="10" stroke-width=".5" d="M140.88281 478.71094l6.23438 3.23828"/></g><g clip-path="url(#e)"><path fill="none" stroke="#000" stroke-linecap="round" stroke-linejoin="round" stroke-miterlimit="10" stroke-width=".5" d="M154.59375 478.10547l5.44531 4.44531"/></g><path fill="none" stroke="#000" stroke-linecap="round" stroke-linejoin="round" stroke-miterlimit="10" stroke-width=".5" d="M155.38672 478.7539l.23828-1.20312"/><g clip-path="url(#f)"><path fill="none" stroke="#000" stroke-linecap="round" stroke-linejoin="round" stroke-miterlimit="10" stroke-width=".5" d="M167.73828 478.33203l5.78125 3.99219"/></g><path fill="none" stroke="#000" stroke-linecap="round" stroke-linejoin="round" stroke-miterlimit="10" stroke-width=".5" d="M168.58203 478.91406l.14063-1.21875"/><g clip-path="url(#g)"><path fill="none" stroke="#000" stroke-linecap="round" stroke-linejoin="round" stroke-miterlimit="10" stroke-width=".5" d="M180.9414 478.50781l6.00782 3.64453"/></g><path fill="none" stroke="#000" stroke-linecap="round" stroke-linejoin="round" stroke-miterlimit="10" stroke-width=".5" d="M181.8164 479.03516l.06641-1.22266"/><g clip-path="url(#h)"><path fill="none" stroke="#000" stroke-linecap="round" stroke-linejoin="round" stroke-miterlimit="10" stroke-width=".5" d="M195.1875 477.49219l4.14453 5.67187"/></g><path fill="none" stroke="#000" stroke-linecap="round" stroke-linejoin="round" stroke-miterlimit="10" stroke-width=".5" d="M195.78906 478.3164l.53516-1.10156"/><g clip-path="url(#i)"><path fill="none" stroke="#000" stroke-linecap="round" stroke-linejoin="round" stroke-miterlimit="10" stroke-width=".5" d="M208.23438 477.70703l4.67968 5.24219"/></g><path fill="none" stroke="#000" stroke-linecap="round" stroke-linejoin="round" stroke-miterlimit="10" stroke-width=".5" d="M208.91797 478.46875l.42187-1.14844"/><g clip-path="url(#j)"><path fill="none" stroke="#000" stroke-linecap="round" stroke-linejoin="round" stroke-miterlimit="10" stroke-width=".5" d="M220.74219 481.88672l6.29687-3.11719"/></g><g clip-path="url(#k)"><path fill="none" stroke="#000" stroke-linecap="round" stroke-linejoin="round" stroke-miterlimit="10" stroke-width=".5" d="M237.76563 483.79688l-1.1172-6.9375"/></g><g clip-path="url(#l)"><path fill="none" stroke="#000" stroke-linecap="round" stroke-linejoin="round" stroke-miterlimit="10" stroke-width=".5" d="M252.42188 483.28516l-3.80079-5.91016"/></g><g clip-path="url(#m)"><path fill="none" stroke="#000" stroke-linecap="round" stroke-linejoin="round" stroke-miterlimit="10" stroke-width=".5" d="M266.6211 482.46875l-5.57423-4.28125"/></g><g clip-path="url(#n)"><path fill="none" stroke="#000" stroke-linecap="round" stroke-linejoin="round" stroke-miterlimit="10" stroke-width=".5" d="M278.00781 483.73438l-1.71484-6.8125"/></g><g clip-path="url(#o)"><path fill="none" stroke="#000" stroke-linecap="round" stroke-linejoin="round" stroke-miterlimit="10" stroke-width=".5" d="M290.73047 483.83203l-.52735-7.00781"/></g><g clip-path="url(#p)"><path fill="none" stroke="#000" stroke-linecap="round" stroke-linejoin="round" stroke-miterlimit="10" stroke-width=".5" d="M304.03125 483.83203l-.5-7.00781"/></g><g clip-path="url(#q)"><path fill="none" stroke="#000" stroke-linecap="round" stroke-linejoin="round" stroke-miterlimit="10" stroke-width=".5" d="M316.86719 483.83594l.46094-7.01172"/></g><g clip-path="url(#r)"><path fill="none" stroke="#000" stroke-linecap="round" stroke-linejoin="round" stroke-miterlimit="10" stroke-width=".5" d="M329.98047 483.8164l.86328-6.97265"/></g><g clip-path="url(#s)"><path fill="none" stroke="#000" stroke-linecap="round" stroke-linejoin="round" stroke-miterlimit="10" stroke-width=".5" d="M345.03125 483.58984l-2.60938-6.52343"/></g><g clip-path="url(#t)"><path fill="none" stroke="#000" stroke-linecap="round" stroke-linejoin="round" stroke-miterlimit="10" stroke-width=".5" d="M360.54688 480.5586l-7.01172-.46094"/></g><g clip-path="url(#u)"><path fill="none" stroke="#000" stroke-linecap="round" stroke-linejoin="round" stroke-miterlimit="10" stroke-width=".5" d="M359.52734 480.49219l.50391 1.11719"/></g><g clip-path="url(#v)"><path fill="none" stroke="#000" stroke-linecap="round" stroke-linejoin="round" stroke-miterlimit="10" stroke-width=".5" d="M373.86719 480.26563l-7.02344.1289"/></g><g clip-path="url(#w)"><path fill="none" stroke="#000" stroke-linecap="round" stroke-linejoin="round" stroke-miterlimit="10" stroke-width=".5" d="M372.84766 480.28516l.59375 1.0703"/></g><g clip-path="url(#x)"><path fill="none" stroke="#000" stroke-linecap="round" stroke-linejoin="round" stroke-miterlimit="10" stroke-width=".5" d="M386.64453 478.45313l-5.94531 3.75"/></g><path fill="none" stroke="#000" stroke-linecap="round" stroke-linejoin="round" stroke-miterlimit="10" stroke-width=".5" d="M385.77734 479l1.06641.60938"/><g clip-path="url(#y)"><path fill="none" stroke="#000" stroke-linecap="round" stroke-linejoin="round" stroke-miterlimit="10" stroke-width=".5" d="M395.95313 476.96875l2.0664 6.71875"/></g><path fill="none" stroke="#000" stroke-linecap="round" stroke-linejoin="round" stroke-miterlimit="10" stroke-width=".5" d="M396.2539 477.94922l.8672-.8711"/><g clip-path="url(#z)"><path fill="none" stroke="#000" stroke-linecap="round" stroke-linejoin="round" stroke-miterlimit="10" stroke-width=".5" d="M406.78906 480.41016l7.02344-.16407"/></g><g clip-path="url(#A)"><path fill="none" stroke="#000" stroke-linecap="round" stroke-linejoin="round" stroke-miterlimit="10" stroke-width=".5" d="M420.5586 478.59766l6.11327 3.46484"/></g><path fill="none" stroke="#000" stroke-linecap="round" stroke-linejoin="round" stroke-miterlimit="10" stroke-width=".5" d="M421.44922 479.10156l.03125-1.22656"/><g clip-path="url(#B)"><path fill="none" stroke="#000" stroke-linecap="round" stroke-linejoin="round" stroke-miterlimit="10" stroke-width=".5" d="M434.67188 477.63672l4.51953 5.38281"/></g><path fill="none" stroke="#000" stroke-linecap="round" stroke-linejoin="round" stroke-miterlimit="10" stroke-width=".5" d="M435.32813 478.42188l.46093-1.14063"/><g clip-path="url(#C)"><path fill="none" stroke="#000" stroke-linecap="round" stroke-linejoin="round" stroke-miterlimit="10" stroke-width=".5" d="M447.1211 478.72656l6.2539 3.20313"/></g><path fill="none" stroke="#000" stroke-linecap="round" stroke-linejoin="round" stroke-miterlimit="10" stroke-width=".5" d="M448.03125 479.1914l-.01953-1.22656"/><g clip-path="url(#D)"><path fill="none" stroke="#000" stroke-linecap="round" stroke-linejoin="round" stroke-miterlimit="10" stroke-width=".5" d="M460.82031 478.13281l5.48438 4.39063"/></g><path fill="none" stroke="#000" stroke-linecap="round" stroke-linejoin="round" stroke-miterlimit="10" stroke-width=".5" d="M461.61719 478.77344l.22656-1.20703"/><g clip-path="url(#E)"><path fill="none" stroke="#000" stroke-linecap="round" stroke-linejoin="round" stroke-miterlimit="10" stroke-width=".5" d="M141.24219 464.83594l5.51562 4.35547"/></g><path fill="none" stroke="#000" stroke-linecap="round" stroke-linejoin="round" stroke-miterlimit="10" stroke-width=".5" d="M155.46875 464.02734L159.16406 470m-3.16015-5.10547l.62109-1.0586m11.66797.5547l4.67578 5.24609m-3.9961-4.48438l.42579-1.14843m11.73828.89843l5.61719 4.22266m-4.80078-3.60937l.1914-1.21094m13.01953-.10938l4.1914 5.64063m-3.58202-4.82031l.52734-1.10938m12.14063.3164l4.26562 5.58204m-3.64453-4.76953l.51172-1.1172m12.6875-.01952l3.25781 6.23047m11.51563.39453l.34375-7.01953m-.29688 5.99609l-1.10937.52344m16.28125.04687l-3.46875-6.11328m2.96484 5.22266l-.65625 1.03515m15.74219-1.375l-6.0039-3.65234m5.1328 3.1211l-.0703 1.22265m14.54687-1.28906l-6.58203-2.45703m5.625 2.10156l.16015 1.21484m14.04688-3.48047l-6.45313 2.78516m16.54297 2.1211V463.5m0 6.0039l-1.08203.57813m15.3164.32422l-1.83984-6.78516m1.83985 6.78516l-1.79297 1.67578m17.41015-3.67187l-6.44531-2.79297m5.50781 2.38672l.09766 1.22265m13.48828.19922l-5.10938-4.82422m4.3672 4.1211l-.32423 1.18359m15.32813-2.59766l-7.0039-.58984m5.98437.5039l.48437 1.125m13.76563-.52343l-6.83594-1.6211m5.84375 1.38672l.3086 1.1875m7.1289-2.40625l6.90625 1.28516m7.38281-3.13281l4.95703 4.98047m-4.23437-4.25782l.35937-1.17187m12.3711.3164l4.67969 5.2461m-3.9961-4.48047l.42188-1.15234m12.16796.42578L426 469.59766m-4.07422-4.41407l.40625-1.16015m11.77344.89844l5.65234 4.18359m-5.65234-4.1836l.36328-2.42578m12.92969 2.46094l5.69531 4.11328m-4.86719-3.51562l.16797-1.21485m11.8164 1.61329l6.69923 2.12109m-5.72266-1.8125l-.22266-1.20703"/><g clip-path="url(#F)"><path fill="none" stroke="#000" stroke-linecap="round" stroke-linejoin="round" stroke-miterlimit="10" stroke-width=".5" d="M143.15625 450.28906l1.6875 6.82031"/></g><path fill="none" stroke="#000" stroke-linecap="round" stroke-linejoin="round" stroke-miterlimit="10" stroke-width=".5" d="M156.76953 450.22656l1.08984 6.9414m-.92968-5.92968l.98047-.73828m12.0625-.2539l1.3164 6.90234m-1.125-5.89844l.95313-.76563m12.38672-.26953l.8828 6.96875m-.7539-5.95703l1-.70703m13.10547-.30078l-.95312 6.96094m.8125-5.94922l1.15234-.42188m13.0625-.39843l-2.47266 6.57812m2.11328-5.6211l1.21485-.16015m14.73047 2.30469l-7.01563.3711m18.45313 2.92968l-3.25781-6.22656m17.07421 5.90625l-4.26172-5.58594m3.64063 4.77344l-.51172 1.11328m15.16016-1.03516l-5.6914-4.1211m4.86327 3.52345l-.16797 1.21484m14.77735-1.5l-6.6211-2.35156m5.66016 2.00781l.17969 1.21484m14.17969-2.96093l-6.78516 1.82812m6.78516-1.82812l1.67578 1.79296m11.1875 1.03907l-5.88282-3.83985m5.88282 3.83985l-.21875 2.44531m12.17578-1.22656l-3.16406-6.27344m3.16406 6.27344l-1.41797 2.0039m14.24219-1.80078l-2.1875-6.67969m1.87109 5.70704l-.85156.8828m16.8125-2.45312l-6.84375-1.59765m5.84765 1.36718l.3125 1.1836m13.9336-.71875l-6.71485-2.0625m6.71485 2.0625l.46484 2.41015m12.44531-1.53515l-5.90234-3.8164m5.04297 3.26171l-.10547 1.22266m14.52344-4.03907l-6.39063 2.9297m5.46094-2.50391l.97266.74609m8.30859-2.74219l3.53516 6.07031m-3.01953-5.1875l.64453-1.04296m11.08203 1.1289l5.67969 4.13281m-4.85547-3.53125l.17187-1.21484m12.61719.2539l5.08203 4.85157m-5.08203-4.85156l.66406-2.36328m12.78125 2.23046l4.82422 5.11329m-4.1211-4.3672l.39454-1.16405m11.71094 1.01953l5.83593 3.91015m-5.83593-3.91015l.24609-2.4414m12.65625 3.27733l6.66016 2.2422m-5.69141-1.91798L461 451.69141"/><g clip-path="url(#G)"><path fill="none" stroke="#000" stroke-linecap="round" stroke-linejoin="round" stroke-miterlimit="10" stroke-width=".5" d="M147.34766 441.44531l-6.69532-2.125"/></g><path fill="none" stroke="#000" stroke-linecap="round" stroke-linejoin="round" stroke-miterlimit="10" stroke-width=".5" d="M146.375 441.13672l.21875 1.20703m14.21094-2.35547l-6.98047.79297m5.96484-.67969l.69531 1.01172m13.58594-1.44531l-6.8789 1.42969m5.8789-1.22266l.78516.94531m13.47266-1.39062l-6.76563 1.91015m5.78125-1.6328l.84766.88671M200.625 439.375l-6.73047 2.01953m5.75-1.72656l.86328.8711m13.58203-.12891l-7.02734-.05078m6.0039.04296l.57032 1.08594m13.73437-.61719l-6.96093-.97656m5.94922.83594l.41796 1.15234m13.66407-.1289l-6.47266-2.73829m5.53125 2.33985l.10938 1.22265m14.08984-.6953l-6.35547-2.9961m6.35547 2.9961l.11719 2.44921m13.16797-2.38672l-6.29688-3.1211m6.29688 3.1211l.0703 2.45313m13.51563-3.19922l-6.83594-1.6289m6.83594 1.6289l.61719 2.3711m12.53125-4.51563l-6.50781 2.65625m6.50781-2.65625l1.88672 1.57422m11.6836-.41407l-7.01954.33594m7.01953-.33594l1.2539 2.10938m11.73829-.45703l-6.3711-2.96875m6.3711 2.96875l.1289 2.45312m13.48048-3.44531l-6.95704-.98047m6.95704.98047l.83984 2.30469m12.5039-2.58985l-7.01562-.41406m7.01563.41406l1.02343 2.23047m11.92188-.85937l-6.27735-3.15625m6.27735 3.15625l.05469 2.45312m13.6328-4.17969l-7.01952.30079m7.01953-.30079l1.24219 2.11329m10.79296-4.6797l-4.46093 5.4297m4.46093-5.4297l2.40625.48829m11.1797-.24219l-5.00392 4.9375m5.00391-4.9375l2.33985.73438m10.4414-1.17578l-3.9375 5.8203m3.36328-4.97265l1.22266.1289m10.10937-1.53124l1.1797 6.92969m-1.00782-5.92188l.96875-.7461m10.82422.27344l3.875 5.86329m-3.3086-5.01172l.58594-1.07813m11.7461.55078l4.71093 5.21485m-4.02344-4.45703l.41797-1.15235M460.59766 438.5l5.92968 3.76562m-5.0703-3.21875l.09765-1.22265"/><g clip-path="url(#H)"><path fill="none" stroke="#000" stroke-linecap="round" stroke-linejoin="round" stroke-miterlimit="10" stroke-width=".5" d="M147.46484 426.48438l-6.92968 1.16796"/></g><path fill="none" stroke="#000" stroke-linecap="round" stroke-linejoin="round" stroke-miterlimit="10" stroke-width=".5" d="M146.45703 426.65625l.7461.97266m13.60156-.95313l-6.98047.78516m6.98047-.78516l1.39062 2.02344m11.91797-2.10156l-6.96484.9414m6.96484-.9414l1.42969 1.99218m11.80469-2.39843l-6.8047 1.7539m6.8047-1.7539l1.65625 1.8125m11.65234-1.83594l-6.79297 1.80078m5.80469-1.53906l.83594.89844m13.5664-.6211l-6.98828.72266m5.97266-.61719l.6836 1.01953m12.91015 1.41016l-5.51563-4.34766m4.71485 3.71485l-.21875 1.20703m13.48047.20703l-3.8086-5.91016m3.2539 5.05078l-.59765 1.07032m14.73828-.40625l-4.35156-5.51954m3.71875 4.71485l-.49219 1.125m14.125-.10156l-3.71875-5.95704m3.17969 5.08985l-.61328 1.0625m15.17187-.76953l-5.125-4.8086m4.37891 4.10938l-.32031 1.1836m15.32031-3.14063l-7.00781.5039m5.98828-.42968l.65234 1.03906m13.6914-.86719l-7.02733.01172m6.0078-.01172l.57813 1.08203m13.71875-1.60937l-6.94531 1.0703m6.94531-1.0703l1.46485 1.96484m11.84765-.89062l-6.94531-1.08204m5.9336.92188l.40234 1.16016m13.8789-.75782l-6.85156-1.5664m6.85156 1.5664l.64063 2.36719m12.35547-1.51172l-6.21485-3.27734m5.3086 2.80078l.0039 1.22656m14.60938-2.0625l-6.9961-.65234m5.97657.5586l.47265 1.1289m12.16797-4.375l-3.60937 6.02734m3.60937-6.02734l2.44922.1211m10.74219-.19141l-3.36328 6.16796m2.875-5.26953l1.22656.01172m10.5-1.3164l.79297 6.98046m-.79297-6.98047l2.01953-1.39062m12.14063 1.39453l-.89844 6.97266m.89844-6.97266l2.29296-.86328m10.94532.85547l-.7461 6.98828m.7461-6.98828l2.27734-.91406m9.90235.97656L451.0078 430.5m-1.52344-6.86328l1.86329-1.59375m10.95312 1.7461l2.52344 6.55859m-2.15625-5.60547l.80469-.92578"/><g clip-path="url(#I)"><path fill="none" stroke="#000" stroke-linecap="round" stroke-linejoin="round" stroke-miterlimit="10" stroke-width=".5" d="M147.50781 413.5664l-7.01562.375"/></g><path fill="none" stroke="#000" stroke-linecap="round" stroke-linejoin="round" stroke-miterlimit="10" stroke-width=".5" d="M146.48828 413.6211l.63281 1.05077m13.70703-.91796h-7.02734m7.02734 0l1.15235 2.16797m12.14844-1.86329l-7-.60937m5.98437.51953l.48047 1.1289m13.8164-1.92187l-6.92968 1.15235m5.92187-.98438l.7461.97656m13.5625-1.22265l-6.90235 1.3125m18.6836 2.28906l-3.83594-5.89063m15.01953 6.45313l.42969-7.01563m-.36719 5.9922l-1.11719.51171m13.71875.41016l1.73047-6.8125m-1.47656 5.8203l-1.1914.29298m17.33202.01953l-4.42968-5.45313m3.78515 4.66016l-.47656 1.1289m14.69531-.5664l-4.9453-4.99219m4.22655 4.26563l-.36328 1.17187M279.5 416.3672l-4.69922-5.22656m4.01563 4.46484l-.41797 1.15234M293.96875 414l-7.00781-.49219m7.00781.49219l1 2.24219m12.10156-3.71875l-6.57812 2.46094m5.6211-2.10547l.91796.8125m13.3125-1.27344l-6.4961 2.67187m5.55079-2.28515l.94531.78515m13.44922-.78906l-6.76563 1.90235m5.78125-1.625l.84766.88671m13.23047 1.32813l-6.32031-3.07813m5.39843 2.62891l.04297 1.22656m13.60156.07813l-5.13671-4.78906m4.39062 4.09375l-.3164 1.18359m14.03515-.16797l-4.45312-5.4336m15.02343-.7578l1.03516 6.95312m12.99219-6.98438l-.38672 7.01563m.33203-5.9961l1.11328-.51562m12.23438-.50781l-.34375 7.01953m.34375-7.01953l2.22265-1.04297m10.21875 1.11328l1.40625 6.88281m-1.40625-6.88281l1.89063-1.5625m10.99218 1.67969l2.26954 6.64844m-2.26954-6.64844l1.6797-1.79297m10.8789 2.15625l3.78125 5.92187m-3.78125-5.92187l1.20703-2.13672m12.21094 2.07422l3.57812 6.04687m-3.57812-6.04687l1.27734-2.09375"/><g clip-path="url(#J)"><path fill="none" stroke="#000" stroke-linecap="round" stroke-linejoin="round" stroke-miterlimit="10" stroke-width=".5" d="M147.45703 401.0586l-6.91406-1.2422"/></g><path fill="none" stroke="#000" stroke-linecap="round" stroke-linejoin="round" stroke-miterlimit="10" stroke-width=".5" d="M146.45313 400.8789l.375 1.16798m14-1.47657l-7.02344-.26172m6 .22266l.53515 1.10156M174.01562 399.5l-6.77343 1.875m5.78906-1.60156l.84375.89062m10.7539-3.67187l-1.36718 6.89062m1.16797-5.88672l1.17578-.35546m10.38281-.47657l2.54688 6.55078m8.7578-2.02734l6.56642-2.5m7.10546 3.19531l5.85157-3.89062m-5 3.32422l-1.08203-.58204m14.6289 2.19532l3.6836-5.98438m-3.14844 5.11328l-1.22266-.07421m15.04688 1.375l1.59765-6.84375m-1.36719 5.84765l-1.18359.3164m15.21484.76954l-.29687-7.01953m.2539 5.9961l-1.05859.62108m15.96485-.03125l-3.39453-6.15234m2.90234 5.2539l-.67188 1.03126m16.02344-1.85547l-6.48437-2.71094m5.54296 2.3164l.11329 1.22266m14.0078-3.82812l-6.21093 3.28906m5.30469-2.8086l1.01953.6875m11.11328-2.88671l-2.03516 6.72656m17.76172-4.13281l-6.85547 1.53906m20.0625.375l-6.64453-2.28906m5.6797 1.95703l.1914 1.21094m13.58203.07812l-5.6289-4.20312m4.80859 3.59375l-.1836 1.21094m14.69922-1.2422l-6.39062-2.92187m5.46093 2.4961l.07422 1.22656m14.4375-2.86719l-6.92187 1.21485m5.91406-1.03907l.7539.96875m11.90235-3.5586l-3.58984 6.03907m3.0664-5.16015l1.22656.05859m12.04688-1.20703l-2.46094 6.58203m2.10156-5.625l1.21875-.16016m11.56641-1.0039l-.67969 6.99218m.6797-6.99218l2.26562-.9375m10.76171.92187l-.10546 7.02735m.10546-7.02735l2.1797-1.1211m10.28515 1.21094l1.59765 6.84375m-1.59765-6.84375l1.84765-1.61328m11.2422 1.67579l2.04687 6.72265m-2.04688-6.72265l1.73438-1.73438"/><g clip-path="url(#K)"><path fill="none" stroke="#000" stroke-linecap="round" stroke-linejoin="round" stroke-miterlimit="10" stroke-width=".5" d="M147.04688 388.875l-6.09375-3.5039"/></g><path fill="none" stroke="#000" stroke-linecap="round" stroke-linejoin="round" stroke-miterlimit="10" stroke-width=".5" d="M146.16016 388.36719l-.04297 1.22656m14.6211-3.25781l-6.84767 1.57422m5.85157-1.34766l.80469.92969m10.9414-3.77735l-1.71484 6.81641m1.71484-6.8164l2.38281-.58594m9.0586.6328l2.03125 6.72657m-2.03125-6.72656l1.73828-1.73047m9.27734 3.92188l6.6289 2.33984m-5.66405-2l-.1797-1.21094m12.33985 1.79688l7.01172.48828m-5.99219-.41797l-.5-1.1211m12.82422 1.79688l6.95313-1.0039m-5.9414.85937l-.72657-.99219m13.1914 1.79688l6.62891-2.32422m-6.6289 2.32422l-1.8047-1.66407m15.10548 1.625L253.85156 386m-6.66015 2.2461l-1.78516-1.6875m15.16797 1.87109l6.52344-2.60938m-6.52344 2.60938l-1.875-1.58594m15.78515 2.57031l5.33204-4.58203m-5.33203 4.58203l-2.28516-.89453m16.47656 1.6289l3.57813-6.05077m-3.0586 5.16796l-1.22265-.05468m12.30468-2.34766l7.00782.51953m6.90234-2.23047l5.8164 3.94141m12.8711.53516l-4.92578-5.01172m4.20703 4.28125l-.36719 1.17187m14.78125-.88672l-5.6914-4.12109m4.86328 3.52344l-.16797 1.21484m14.35547-.67578l-5.77735-4m5.77735 4l-.28516 2.4336m-.55469-3.01563l-.14453 1.21484m14.91797-2.39453l-7.01172-.48047m7.01172.48047l1 2.24219m12.14453-3.58594l-6.67187 2.20703m6.67187-2.20703l1.77344 1.69531m10.57812-3.18359l-4.74609 5.1836m4.7461-5.1836l2.375.61328m9.96093-1.2461l-2.78906 6.44923m2.78906-6.44922l2.44531-.19922m9.77344-.07813l-.59765 7.00391m.59765-7.0039l2.25781-.96094m10.04297 1.02343l1.4336 6.87891m-1.4336-6.8789l1.88282-1.57032m10.72265 1.79688l2.85156 6.42578m-2.85156-6.42578l1.51563-1.9297m12.42187 1.72267l1.60938 6.83984m-1.60938-6.83985l1.84375-1.61718"/><g clip-path="url(#L)"><path fill="none" stroke="#000" stroke-linecap="round" stroke-linejoin="round" stroke-miterlimit="10" stroke-width=".5" d="M145.76953 376.84375l-3.53906-6.07031"/></g><path fill="none" stroke="#000" stroke-linecap="round" stroke-linejoin="round" stroke-miterlimit="10" stroke-width=".5" d="M145.2539 375.96094l-.64843 1.04297m15.67578-5.07813l-5.9336 3.76563m5.07032-3.21875l1.0664.60546m12.08204-2.19921l-3.875 5.85937m3.875-5.85937l2.4453.23437m-3.0078.61719l1.22265.11719m13.125-.59766l-4.8125 5.11719m4.8125-5.11719l2.36719.64453m11.8789 3.01172l-6.67577-2.19531m6.67578 2.19531l.41797 2.41797m12.5703-1.70703l-6.02343-3.6211m6.02344 3.6211l-.1289 2.45312m13.58593-2.70703l-6.30469-3.10937m6.30469 3.10937l.07422 2.45313m13.4336-2.9297l-6.6875-2.15624m6.6875 2.15625l.42968 2.41406m-1.40234-2.72656l.21484 1.20703m14.23828-1.82422l-7.01953-.29687m7.01953.29687l1.0586 2.21094m-2.08204-2.2539l1.0625 2.21093m13.22656-2.92188l-6.92187 1.21094m6.92188-1.21094l1.5078 1.9375m-2.51562-1.76171l.7539.96875m13.25782 1.01953l-6.29687-3.11719m6.29687 3.11719l.07031 2.45312m12.77735-1.7461l-5.36719-4.53515m4.58594 3.875l-.25782 1.19922m15.17579-3.04297l-7.01172.47266m5.99218-.40235l.64844 1.04297m13.48828-2.0625l-6.61328 2.3711m5.65235-2.02344l.90625.82422m12.80468 2.21094l-5.48437-4.39454m5.48437 4.39454l-.45703 2.41406m13.41797-2.03516l-4.77734-5.15234m4.77734 5.15234l-.80469 2.32031m.10938-3.0664l-.40235 1.15625m14.94141-1.02735l-5.83203-3.91406m5.83203 3.91406l-.25 2.44141m-.59766-3.01172l-.125 1.22266m14.82422-1.96875l-6.90625-1.28516m6.90625 1.28516l.73828 2.34375m12.07422-4.89063l-5.90234 3.8125m5.90234-3.8125l2.14453 1.19532m9.66407-2.4922l-2.88672 6.40626m2.88672-6.40625l2.44922-.16016m11.03125.23828l-3.21875 6.25m3.21875-6.25l2.45312-.03125m9.6836-.33203l-.86329 6.97656m.86328-6.97656l2.29297-.875m10.95703.86719l-.73046 6.98828m.73046-6.98828l2.27735-.91797m10.69531.89844l-.04687 7.02734m.04687-7.02734l2.17578-1.13672m10.96485 1.14063l.30468 7.02343m-.26172-6l1.0586-.625"/><g clip-path="url(#M)"><path fill="none" stroke="#000" stroke-linecap="round" stroke-linejoin="round" stroke-miterlimit="10" stroke-width=".5" d="M145.0586 363.84375l-2.1172-6.70313"/></g><g clip-path="url(#N)"><path fill="none" stroke="#000" stroke-linecap="round" stroke-linejoin="round" stroke-miterlimit="10" stroke-width=".5" d="M145.0586 363.84375l-1.72266 1.75"/></g><path fill="none" stroke="#000" stroke-linecap="round" stroke-linejoin="round" stroke-miterlimit="10" stroke-width=".5" d="M160.63281 359.33984l-6.63672 2.3086m6.63672-2.3086l1.80078 1.66797m11.4297-1.88672l-6.46876 2.7461m6.46875-2.7461l1.90625 1.54297m-2.84766-1.14453l.95313.77344m13.58203.21484l-7.02344-.03125m7.02344.03125l1.14453 2.17188m-2.16406-2.17578l1.14063 2.17187m13.14453-1.57812l-6.92188-1.21094m6.92188 1.21094l.76172 2.33203m-1.76954-2.50781l.76172 2.33203m-1.76953-2.50782l.38281 1.16797M214.05078 361l-6.95312-1.01563M214.05078 361l.82813 2.3125m-1.83985-2.45703l.82813 2.3086m-1.83985-2.45704l.41407 1.15235m14.92187-.83594l-6.94531-1.0586m6.94531 1.0586l.8125 2.3125m-1.82422-2.46875l.8164 2.3164m13.54688-2.89453l-7.01562.40625m7.01562-.40625l1.27344 2.09766m-2.29687-2.03516l.63672 1.04688m13.6289-1.64063l-6.8711 1.47266m6.8711-1.47266l1.57813 1.875m11.76172-1.74219l-6.92188 1.20313m6.92188-1.20313l1.5078 1.9375m-2.51562-1.76171l.7539.96875m13.61329-.28516l-7.00781-.51563m7.00781.51563l.98828 2.2461m12.33594-2.44923l-7.02734-.10937m6.0039.09375l.5586 1.09375m13.10937-3.19531l-5.6875 4.125m4.85938-3.52344l1.10156.53906m13.67187 1.4414l-6.94922-1.03515m6.94922 1.03516l.82032 2.3086M332.87109 363l-4.92187-5.01563M332.87109 363l-.73828 2.33984m.02344-3.0703l-.3711 1.17187m14.48829-.52735l-5.09375-4.83984m5.09375 4.83984l-.65625 2.36328m-.08594-3.0703l-.32812 1.18358m15.1328-1.67578l-6.58984-2.4453m6.58985 2.4453l.32422 2.4336m12.96484-4.9414l-6.53906 2.57421m6.53906-2.57422l1.86719 1.59375m10.48047-2.96094l-4.60547 5.3086m4.60547-5.3086l2.39062.55079m10.20703-1.03516l-3.16797 6.27344m2.70704-5.35938l1.22656-.02734m13.6875.03125l-5.44531 4.4414m5.4453-4.4414l2.26173.94922m10.87109-1.15625l-5.08203 4.85156m5.08203-4.85156l2.33203.77343m10.6914-1.04687l-4.49609 5.40234m4.4961-5.40234l2.40234.5m11.1211-.3125l-4.91407 5.02344m4.91407-5.02344l2.35546.6914m11.26954-.34375l-5.53516 4.32813"/><g clip-path="url(#O)"><path fill="none" stroke="#000" stroke-linecap="round" stroke-linejoin="round" stroke-miterlimit="10" stroke-width=".5" d="M466.32813 358.32813l2.24218.99609"/></g><g clip-path="url(#P)"><path fill="none" stroke="#000" stroke-linecap="round" stroke-linejoin="round" stroke-miterlimit="10" stroke-width=".5" d="M145.64844 350.28125l-3.29688-6.20703"/></g><path fill="none" stroke="#000" stroke-linecap="round" stroke-linejoin="round" stroke-miterlimit="10" stroke-width=".5" d="M145.64844 350.28125l-1.3711 2.03516m.89063-2.9375l-.6836 1.01562m16.28125-2.55078l-6.90234-1.32813m6.90234 1.32813l.72266 2.34375m-1.72656-2.53906l.35937 1.17187m14.02344-1.69922l-7.02734.1172m7.02734-.1172l1.1875 2.14454m-2.21094-2.12891l1.1875 2.14844m13.14844-2.01563l-7.02344-.17969m7.02344.1797l1.09766 2.1953m-2.1211-2.22265l1.09766 2.19531m13.23828-2.41406l-7.01953.3125m7.01953-.3125l1.25 2.10937m-2.26953-2.0664l1.2461 2.11328m12.97656-2.90235l-6.79297 1.80079m6.79297-1.80079l1.66797 1.79688m-2.65625-1.53516l1.66796 1.79688m12.44141-2.60156l-6.40625 2.88671m6.40625-2.88671l1.9414 1.5039m-2.87109-1.08203l.96875.75m12.94531-1.7539l-5.74218 4.05077m5.74219-4.05078l2.1875 1.10547m11.75.54297l-6.98829.7539m6.98828-.7539l1.375 2.03125m11.79297-2.71875l-6.6953 2.13281m5.72265-1.82421l.875.85546m13.5664-.37109l-7.0039.54297m5.98437-.46485l.66016 1.03907m13.64062-.28125l-6.9375-1.1289m5.9297.96483l.39452 1.16016m13.7461-.3125l-6.57032-2.4961m5.61328 2.13282l.15235 1.21875m13.66406-.01953l-5.66016-4.16797m5.66016 4.16797l-.35937 2.42969m13.72265-2.5l-5.75781-4.02735m5.75781 4.02735l-.29687 2.4375m14.23047-4.10938l-6.9922-.6836m6.9922.6836l.9375 2.26953m12.29296-3.44531l-6.82421 1.66797m6.82421-1.66797l1.63282 1.83203M373 344.86328l-5.28516 4.63281M373 344.8633l2.29297.86718m10.65625-1.22656l-4.55469 5.35156m4.55469-5.35156l2.39453.52734m12.14453 1.88281l-7.0039.52735m5.98437-.44922l.65625 1.03515m13.6914-.84765h-7.02734m7.02735 0l1.15234 2.16406m12.09766-2.83594l-6.89844 1.34375m6.89844-1.34375l1.54296 1.90625m-2.54687-1.71094l.77344.95313m13.48047-1.42578l-6.76954 1.89453m6.76954-1.89453l1.6914 1.77344m-2.67578-1.5l1.6914 1.77734m12.27735-2.84375l-6.10547 3.48047m6.10547-3.48047l2.07031 1.3125m-2.96093-.80469l2.07421 1.3125m11.8672-2.21484l-5.57813 4.27344"/><g clip-path="url(#Q)"><path fill="none" stroke="#000" stroke-linecap="round" stroke-linejoin="round" stroke-miterlimit="10" stroke-width=".5" d="M466.35156 345.04297l2.23047 1.01562"/></g><path fill="none" stroke="#000" stroke-linecap="round" stroke-linejoin="round" stroke-miterlimit="10" stroke-width=".5" d="M465.53906 345.66406l1.11719.50781"/><g clip-path="url(#R)"><path fill="none" stroke="#000" stroke-linecap="round" stroke-linejoin="round" stroke-miterlimit="10" stroke-width=".5" d="M146.52734 336.30469l-5.05468-4.88281"/></g><path fill="none" stroke="#000" stroke-linecap="round" stroke-linejoin="round" stroke-miterlimit="10" stroke-width=".5" d="M146.52734 336.30469l-.67578 2.35937m-.0586-3.07031l-.33983 1.17969m15.0703-1.47656l-6.41405-2.8672m6.41406 2.8672l.16406 2.44921m-1.09766-2.86718l.16407 2.44921m14.3789-3.17578l-7.0039-.57812m7.0039.57812l.96875 2.25391m-1.98828-2.33984l.48438 1.1289m13.80468-1.96484l-6.91406 1.26562m6.91406-1.26562l1.52344 1.92187m-2.53125-1.73828l.76172.96094m13.41406-1.6875l-6.6211 2.35156m6.6211-2.35156l1.8125 1.65625m11.28906-2.13672l-6.1953 3.3125m6.1953-3.3125l2.03907 1.36328m-2.9375-.88281l1.01562.6836m11.84375-2.5586l-3.48437 6.10156m3.48437-6.10156l2.45313.07422m-2.96094.8125l1.22656.03906m11.1914-1.3711l-.67577 6.9922m.67578-6.9922l2.26562-.9414m-2.36328 1.95703l1.13281-.46875m10.85938-.39453l2.16406 6.6875m-2.16406-6.6875l1.70703-1.76172m9.23047 4.50781l6.92188 1.19532m-5.91407-1.02344l-.38672-1.16406m15.03516 4.92187l2.23828-6.66406m15.71094 3.3789l-7.02734-.09374m18.77343 2.97265l-3.89062-5.85156m3.89062 5.85156l-1.16797 2.16016m15.26563-2.8711l-5.45703-4.42968m5.45703 4.42969l-.47266 2.40625m-.32031-3.05079l-.23828 1.20313m15.10547-2.33594l-6.97266-.875m6.97266.875l.8711 2.29297m12.14843-4.20313l-6.38281 2.94532m5.45312-2.51563l.97656.74219m12.72657-2.0039l-5.30078 4.60937m4.53125-3.9375l1.14453.4375m13.3125-.59766l-6.04297 3.58594m6.04297-3.58594l2.09375 1.27344m10.55078-2.09375l-4.70313 5.22656m4.70313-5.22656l2.3789.59375m-3.0664.16797l1.1914.29687m13.40625 3.46875l-5.89453-3.82812m5.03516 3.26953l-.10547 1.22266m14.16016-.4922l-5.65625-4.17187m5.65625 4.17188l-.35938 2.42578m-.46484-3.03516l-.17578 1.21485m14.78906-1.49219l-6.60156-2.39844m6.60156 2.39844l.34375 2.42969m-1.30469-2.77735l.17188 1.21485m13.91406-3.69531l-6.22266 3.2578m6.22266-3.2578l2.02734 1.3828m-2.9336-.91015l1.01563.6914m12.65235-1.9453l-5.11328 4.8203m5.11328-4.8203l2.32422.78515m-3.07032-.08594l2.32422.78907m-3.0664-.08594l1.16015.39453m13.72266-1.71094l-5.27344 4.64453"/><g clip-path="url(#S)"><path fill="none" stroke="#000" stroke-linecap="round" stroke-linejoin="round" stroke-miterlimit="10" stroke-width=".5" d="M466.19922 331.53906l2.29687.86719"/></g><path fill="none" stroke="#000" stroke-linecap="round" stroke-linejoin="round" stroke-miterlimit="10" stroke-width=".5" d="M465.42969 332.21484l2.29687.8672m-3.0625-.19142l1.14844.4336"/><g clip-path="url(#T)"><path fill="none" stroke="#000" stroke-linecap="round" stroke-linejoin="round" stroke-miterlimit="10" stroke-width=".5" d="M146.8711 322.57031l-5.7422-4.04687"/></g><path fill="none" stroke="#000" stroke-linecap="round" stroke-linejoin="round" stroke-miterlimit="10" stroke-width=".5" d="M146.8711 322.57031l-.3047 2.4375m-.53124-3.02344l-.15235 1.21485m14.57031-1.07031l-6.27343-3.16407m6.27344 3.16407l.05078 2.45312m-.96485-2.91406l.02735 1.22656m14.57812-2.38672l-7.02734.07813m7.02734-.07813l1.17578 2.15625m-2.19922-2.14453l.58985 1.07813m13.39062-2.58985l-6.3125 3.08203m6.3125-3.08203l1.98828 1.4414m11.28125-1.53515l-6.22265 3.26953m6.22265-3.26953l2.02735 1.38281m11.22265-1.49609l-6.09375 3.4961m6.09375-3.4961l2.07813 1.30469m-2.96484-.79688l1.03906.65235m12.0664-2.33594l-3.89843 5.84766m3.89843-5.84766l2.44141.24219m-3.00781.60937l1.21875.1211m11.65625-1.4336l-1.88672 6.76953m1.88672-6.76953l2.39844-.52734m-2.67188 1.51172l1.19922-.26172m10.625-.7539l1.64062 6.83202m-1.40234-5.83984l.91797-.8125m9.46875 3.30469l7.02344-.14063m-6.00391.1211l-.59766-1.07032m14.50391 3.97657l3.80078-5.91016m-3.80078 5.91016l-2.44531-.20313m18.94922.51563l-2.57813-6.53516m2.57813 6.53516l-1.58985 1.86718m1.21485-2.8203l-.79297.93358m15.58984-.67968l-4.78906-5.14063m4.78906 5.14063l-.80078 2.32031m.10547-3.0664l-.80078 2.3203m15.6875-2.86327l-6.54297-2.5586m6.54297 2.5586l.28515 2.4375m-1.23828-2.8086l.28516 2.4375m14.21484-3.63672l-7.0039.58203m7.0039-.58203l1.32422 2.0625m-2.34375-1.97656l1.32422 2.0625m12.71484-3.29297l-6.41406 2.8711m6.41406-2.8711l1.9375 1.50781M346 319.53125l1.9375 1.50781m12.17188-2.19922l-6.13672 3.41797m6.13672-3.41797l2.0625 1.32813m11.48046-.83203l-6.59375 2.42578m6.59375-2.42578l1.83204 1.63281m10.9375-2.60547l-5.5 4.3711m5.5-4.3711l2.25.97656m-3.05079-.34375l1.125.4922M400.5 320.57421l-7.02734-.05078m7.02734.05078l1.13672 2.17578m10.76562.61328l-4.20312-5.63281m4.20312 5.63281l-1.04687 2.21875m12.34766-1.52344l-.17188-7.02343m.14453 6.0039l-1.0664.60156m15.34375-3.09375l-.01954-.19921-.05859-.19141-.09375-.17578-.45703-.3789-.1914-.0547-.20313-.01953-.19922.01954-.1914.05468-.45704.3789-.09375.17579-.0586.1914-.01952.19923.01953.19921.0586.19141.09374.17969.45703.375.1914.0586.19923.01952.20312-.01953.1914-.0586.45704-.375.09375-.17968.0586-.1914.01953-.19923m15.22265-1.9414l-5.85937 3.88281m5.85937-3.88281l2.15625 1.16797m-3.00781-.60156l1.07812.58203m12.48829-1.83594l-4.65625 5.26172"/><g clip-path="url(#U)"><path fill="none" stroke="#000" stroke-linecap="round" stroke-linejoin="round" stroke-miterlimit="10" stroke-width=".5" d="M465.89063 317.91797l2.38671.57422"/></g><path fill="none" stroke="#000" stroke-linecap="round" stroke-linejoin="round" stroke-miterlimit="10" stroke-width=".5" d="M465.21094 318.6836l2.38672.57421m-3.0625.1914l1.1914.28517"/><path fill="#00f" fill-rule="evenodd" d="M312.78516 476.52344h8.62109V466.3789h-8.6211v10.14453"/><path fill="azure" fill-rule="evenodd" d="M314.6211 468.21094h.83202v2.82422h3.28516v-2.82422h.83203v6.48047h-.83203v-2.91407h-3.28515v2.91407h-.83204v-6.48047"/><path fill="#00f" fill-rule="evenodd" d="M388.23828 472.08594h8.61719V461.9414h-8.61719v10.14453"/><path fill="azure" fill-rule="evenodd" d="M390.07031 463.77344h.83594v2.82422h3.28516v-2.82422h.83203v6.48047h-.83203v-2.91797h-3.28516v2.91797h-.83594v-6.48047"/><path fill="#00f" fill-rule="evenodd" d="M388.23828 432.14063h8.61719v-10.14454h-8.61719v10.14454"/><path fill="azure" fill-rule="evenodd" d="M390.07031 423.82813h.83594v2.82421h3.28516v-2.82421h.83203v6.48046h-.83203v-2.91796h-3.28516v2.91796h-.83594v-6.48046"/><path fill="#00f" fill-rule="evenodd" d="M370.48438 401.07422h8.62109v-10.14844h-8.6211v10.14844"/><path fill="azure" fill-rule="evenodd" d="M372.3164 392.76172h.83594v2.82031h3.28516v-2.82031h.83203v6.47656h-.83203v-2.91406h-3.28516v2.91406h-.83593v-6.47656"/><path fill="#ff3030" fill-rule="evenodd" d="M277.97266 378.88281h7.6953v-10.14844h-7.6953v10.14844"/><path fill="azure" fill-rule="evenodd" d="M279.8086 370.5664h.83202v5.7422h3.19141v.73827h-4.02344v-6.48046"/><path fill="#ff3030" fill-rule="evenodd" d="M189.20703 374.4414h7.6914v-10.14452h-7.6914v10.14453"/><path fill="azure" fill-rule="evenodd" d="M191.03906 366.1289h.83594v5.7422h3.1914v.73827h-4.02734v-6.48046"/><path fill="#ffffe0" fill-rule="evenodd" d="M394.52344 450.125h22.17969v-10.1914h-22.1797v10.1914"/><path fill-rule="evenodd" d="M398.01953 441.76563h.51172v6.29687h-.78906v-4.49219h-1.38672v-.55469l.5586-.0625.2539-.05468.23047-.08985.20312-.14062.17188-.21094.14062-.29297.10547-.39844m4.8164 0l.22657.01954.22266.05468.20703.08985.19531.1211.1836.15233.17187.17579.30078.41796.2461.4922.17968.54687.10938.57812.03906.59375-.03906.59375-.10938.58203-.17969.5547-.24609.5039-.30078.42578-.17188.17969-.18359.15234-.19531.125-.20703.08984-.22266.0586-.22656.01953-.23047-.01953-.21875-.0586-.20703-.08984-.19922-.125-.1836-.15234-.17187-.1797-.30078-.42577-.24219-.5039-.17969-.5547-.11328-.58203-.03515-.59375h.83203l.02734.5625.08203.5039.125.44532.16406.375.19141.30078.21094.21875.22265.13672.22657.04688.22656-.04688.22266-.13672.21093-.21875.19141-.30078.16016-.375.125-.44531.08203-.5039.03125-.5625-.03125-.5625-.08203-.5-.125-.4336-.16016-.36719-.1914-.29297-.21094-.21484-.22266-.1289-.22656-.04688-.22656.04687-.22266.1289-.21094.21485-.1914.29297-.16407.36719-.125.4336-.08203.5-.02734.5625h-.83203l.03515-.59376.11328-.57812.1797-.54688.24218-.49219.30078-.41796.17188-.17579.18359-.15234.19922-.1211.20703-.08984.21875-.05468.23047-.01954m5.08984 0h.51172v6.29688h-.78906v-4.49219h-1.38672v-.55469l.5586-.0625.2539-.05468.22656-.08985.20313-.14062.17578-.21094.14062-.29297.10547-.39844m2.82422 2.17579h.78516l.01953-.31641.0625-.28516.09765-.2539.14063-.21485.17969-.17187.22265-.1289.26563-.08204.3086-.02734.23827.02344.22266.0625.20703.10156.17578.13672.15235.17187.10937.20703.07422.23828.02344.26172-.01954.26953-.0664.22266-.10938.19531-.15625.16797-.19921.16406-.25.16407-.63282.39062-.53906.3125-.4375.3164-.34375.32423-.26563.33593-.1914.35157-.125.37109-.0664.39063-.02344.42187h4.21484v-.74219h-3.33203l.08203-.28125.11328-.23828.14844-.20312.1875-.1797.23047-.17187.27734-.17578.71875-.41406.41406-.20703.34766-.23047.27734-.25.22266-.26953.16406-.27735.10938-.28515.0625-.28516.02343-.28125-.04296-.38281-.1211-.34766-.1875-.30468-.25-.26563-.30469-.21094-.34375-.16015-.3828-.09766-.40626-.03515-.4336.03515-.39843.09766-.35547.16797-.30469.23437-.25.30078-.18359.375-.11719.44531-.03906.51954"/><path fill="#ffffe0" fill-rule="evenodd" d="M351.69531 383.55078H373.875v-10.1914h-22.17969v10.1914"/><path fill-rule="evenodd" d="M355.1914 375.1914h.51173v6.29688h-.78907v-4.49219h-1.38672v-.55468l.5586-.06641.2539-.05078.22657-.08985.20312-.14453.17578-.20703.14063-.29687.10547-.39453m4.8164 0l.22656.01953.21875.05469.21094.08984.19531.1211.1836.14843.17187.17578.30079.42188.24609.49218.17969.54688.10937.57812.03906.59375-.03906.58985-.10937.58594-.1797.55468-.24608.5-.30079.42969-.17187.17969-.1836.15234-.1953.125-.21094.08985-.21875.05859-.22657.01953-.23047-.01953-.21875-.0586-.20703-.08984-.19922-.125-.18359-.15234-.17188-.17969-.30078-.42969-.24218-.5-.1797-.55469-.11327-.58593-.03906-.58985h.83593l.02735.5625.08203.50391.125.44531.16406.3711.1914.30078.21094.22265.22266.13672.22656.04688.22656-.04688.22266-.13672.21094-.22265.1875-.30078.16406-.3711.125-.44531.08203-.5039.03125-.5625-.03125-.5625-.08203-.5-.125-.4375-.16406-.36329-.1875-.29297-.21094-.21484-.22265-.13281-.22657-.04297-.22656.04297-.22266.13281-.21093.21484-.19141.29297-.16406.36328-.125.4375-.08203.5-.02735.5625h-.83594l.03907-.59375.11328-.57812.17969-.54688.24218-.49218.30079-.42188.17187-.17578.1836-.14844.19921-.1211.20703-.08983.21875-.0547.23047-.01952m5.08985 0h.5078v6.29687h-.78515v-4.49219h-1.38672v-.55468l.5586-.06641.25-.05078.23047-.08985.20312-.14453.17578-.20703.14063-.29687.10547-.39453m2.82421 2.17578h.78516l.01953-.3164.0586-.28517.10156-.2539.14062-.21485.1797-.17578.22265-.1289.26562-.07813.3086-.02734.23828.01953.22265.0625.20313.10156.17969.14063.14843.17187.11329.20703.07421.23438.02344.26562-.01953.26954-.0664.22265-.10938.1914-.15625.17188-.20313.16406-.24609.16407-.63281.39062-.53906.3125-.4375.3164-.34375.32423-.26563.33594-.1914.35156-.125.3711-.06641.39062-.02344.42187h4.21484v-.74219h-3.33593l.08593-.28515.11329-.23438.14843-.20312.1875-.17969.23047-.17188.27735-.17578.71875-.41796.41406-.20313.34375-.23047.28125-.2539.22265-.26563.16016-.27734.11328-.28516.0625-.28516.01953-.28125-.03906-.3828-.1211-.34767-.1914-.30859-.25-.26172-.30078-.21484-.34375-.15625-.38281-.09766-.40625-.03515-.4336.03125-.39844.10156-.35546.16406-.3047.23438-.25.30468-.18358.375-.1172.44532-.03906.51953"/><path fill="#ffffe0" fill-rule="evenodd" d="M161.01172 383.55078h22.17969v-10.1914h-22.1797v10.1914"/><path fill-rule="evenodd" d="M164.51172 375.1914h.50781v6.29688h-.78516v-4.49219h-1.39062v-.55468l.5586-.06641.2539-.05078.23047-.08985.20312-.14453.17188-.20703.14453-.29687.10547-.39453m4.8125 0l.23047.01953.21875.05469.20703.08984.19531.1211.1875.14843.16797.17578.30469.42188.24219.49218.17968.54688.10938.57812.03906.59375-.03906.58985-.10938.58594-.17969.55468-.24218.5-.30469.42969-.16797.17969-.1875.15234-.19531.125-.20703.08985-.21875.05859-.23047.01953-.23047-.01953-.21875-.0586-.20703-.08984-.19531-.125-.1836-.15234-.17187-.17969-.30469-.42969-.24219-.5-.17969-.55469-.10937-.58593-.03906-.58985h.83203l.03125.5625.07812.50391.12891.44531.16016.3711.1914.30078.21094.22265.22266.13672.22656.04688.22656-.04688.22266-.13672.21094-.22265.1914-.30078.16016-.3711.1289-.44531.08203-.5039.02735-.5625-.02734-.5625-.08204-.5-.1289-.4375-.16016-.36329-.1914-.29297-.21094-.21484-.22266-.13281-.22656-.04297-.22656.04297-.22266.13281-.21094.21484-.1914.29297-.16016.36328-.1289.4375-.07813.5-.03125.5625h-.83203l.03906-.59375.10938-.57812.17968-.54688.24219-.49218.30469-.42188.17187-.17578.1836-.14844.1953-.1211.20704-.08983.21875-.0547.23047-.01952m5.08984 0h.51172v6.29687h-.78906v-4.49219H172.75v-.55468l.5586-.06641.2539-.05078.23047-.08985.20312-.14453.17188-.20703.14062-.29687.10547-.39453m2.82422 2.17578h.78906l.01953-.3164.0586-.28517.09766-.2539.14062-.21485.1836-.17578.22265-.1289.26563-.07813.30468-.02734.23828.01953.22657.0625.20312.10156.17969.14063.14844.17187.11328.20703.07031.23438.02734.26562-.02343.26954-.06641.22265-.10938.1914-.15625.17188-.19921.16406-.2461.16407-.63672.39062-.53515.3125-.4375.3164-.34766.32423-.26562.33594-.1875.35156-.125.3711-.07032.39062-.01953.42187h4.21094v-.74219h-3.33203l.08203-.28515.11328-.23438.14844-.20312.1875-.17969.23047-.17188.27734-.17578.71875-.41796.41406-.20313.34766-.23047.28125-.2539L181 378.125l.16406-.27734.10938-.28516.0664-.28516.01953-.28125-.04296-.3828-.1211-.34767-.1875-.30859-.25-.26172-.30469-.21484-.34375-.15625-.3789-.09766-.41016-.03515-.4336.03125-.39843.10156-.35547.16406-.30469.23438-.24609.30468-.1875.375-.11328.44532-.04297.51953"/><path fill="#ffffe0" fill-rule="evenodd" d="M226.34766 438.73828h22.17968v-10.1914h-22.17968v10.1914"/><path fill-rule="evenodd" d="M229.84766 430.3789h.5078v6.29688h-.78905v-4.49219h-1.38672v-.55468l.5586-.0625.2539-.0547.23047-.08983.20312-.14063.17188-.21094.14453-.29297.10547-.39843m4.8125 0l.23047.01953.21875.05469.20703.08984.1953.1211.1836.15234.17188.17578.30078.41797.2461.49218.17968.54688.10938.57812.03906.59375-.03906.59375-.10938.58204-.17969.55468-.2461.5-.30077.42969-.17188.17969-.1836.15234-.1953.125-.20703.08985-.21875.05859-.23047.01953-.23047-.01953-.21875-.0586-.20703-.08984-.19532-.125-.1875-.15234-.16797-.17969-.30468-.42969-.24219-.5-.17969-.55469-.11328-.58203-.03516-.59375h.83204l.02734.5625.08203.50391.1289.44531.16016.375.19141.30078.21094.21875.22265.13672.22657.04688.22656-.04688.22266-.13672.21093-.21875.1914-.30078.16017-.375.1289-.44531.07813-.5039.03125-.5625-.03125-.5625-.07813-.5-.1289-.4336-.16016-.36719-.1914-.29297-.21095-.21484-.22265-.1289-.22656-.04688-.22657.04687-.22265.12891-.21094.21484-.1914.29297-.16016.36719-.1289.4336-.08204.5-.02734.5625h-.83203l.03515-.59376.11328-.57812.17969-.54688.24219-.49218.30469-.41797.16796-.17578.1875-.15235.19532-.1211.20703-.08983.21875-.0547.23047-.01952m5.08984 0h.51172v6.29687h-.78906v-4.49219h-1.38672v-.55468l.5586-.0625.2539-.0547.22656-.08983.20313-.14063.17578-.21094.14062-.29297.10547-.39843m2.82422 2.17578h.78906l.01953-.3164.0586-.28517.09765-.2539.14063-.21485.17969-.17187.22265-.1289.26563-.08204.30859-.02734.23828.02344.22266.0625.20703.10156.17969.13672.14843.17187.11328.20703.07032.23438.02344.26562-.01954.26954-.0664.22265-.10938.19531-.15625.16797-.19922.16406-.25.16407-.6328.39062-.53517.3125-.4414.3164-.34375.32423-.26563.33594-.1875.35156-.125.3711-.0703.39062-.01954.42187h4.21094v-.74219h-3.33203l.08203-.28515.11328-.23438.14844-.20312.1875-.17969.23047-.17188.27734-.17578.71875-.41406.41406-.20703.34766-.23047.28125-.25.21875-.26953.16406-.27734.10938-.28516.0625-.28516.02343-.28125-.04297-.3828-.12109-.34767-.1875-.30859-.25-.26172-.30469-.21094-.34375-.16015-.38281-.09766-.40625-.03515-.4336.03515-.39843.09766-.35547.16797-.30469.23437-.2461.30078-.1875.375-.11718.44532-.03906.51953"/><path fill="#ffffe0" fill-rule="evenodd" d="M239.66016 472.19922h22.18359v-10.1914h-22.1836v10.1914"/><path fill-rule="evenodd" d="M243.16016 463.84375h.51172v6.29297h-.78907v-4.48828h-1.38672v-.5586l.5586-.0625.2539-.05468.22657-.08985.20312-.14062.17578-.21094.14063-.29297.10547-.39453m4.8164 0l.22656.01563.21875.05859.21094.08984.19531.11719.1836.15234.17187.17579.30078.41796.2422.4922.17968.54687.11328.58203.03906.58984-.03906.59375-.11328.58203-.17969.55469-.24219.5039-.30078.42579-.17187.17969-.1836.15234-.1953.125-.21095.09375-.21875.05469-.22656.01953-.23047-.01953-.21875-.0547-.20703-.09374-.19922-.125-.18359-.15235-.17188-.17968-.30078-.42578-.24218-.50391-.1797-.55469-.11327-.58203-.03906-.59375h.83593l.02735.5625.08203.50781.125.44141.16406.375.1914.30078.21094.21875.22266.14063.22656.04687.22656-.04687.22266-.14063.20703-.21875.1914-.30078.16407-.375.125-.4414.08203-.50782.02735-.5625-.02735-.5625-.08203-.5-.125-.4336-.16406-.36718-.1914-.29297-.20704-.21484-.22266-.1289-.22656-.04688-.22656.04687-.22266.1289-.21093.21485-.19141.29297-.16406.36719-.125.4336-.08203.5-.02735.5625h-.83594l.03907-.58985.11328-.58203.17969-.54688.24218-.49219.30078-.41796.17188-.17579.1836-.15234.19921-.11719.20703-.08984.21875-.0586.23047-.01562m5.08985 0h.5078v6.29297h-.78515v-4.48828h-1.39062v-.5586l.5625-.0625.25-.05468.23047-.08985.20312-.14062.17578-.21094.14063-.29297.10547-.39453m2.82422 2.17188h.78515l.01953-.3125.0586-.28907.10156-.25.14062-.21875.1797-.17187.22265-.1289.26562-.08204.3086-.02734.23828.02343.22265.0625.20313.10157.17969.13671.14843.17579.11329.20312.07421.23828.02344.26172-.02344.26953-.0625.22656-.11328.19141-.15234.17188-.20313.16015-.24609.16797-.63281.38672-.53906.3125-.4375.3164-.34766.32813-.26172.33594-.1914.34765-.125.3711-.06641.39453-.02344.41797h4.21094v-.74219h-3.33203l.08593-.28125.11329-.23828.14843-.20313.1875-.17968.23047-.17188.27735-.17187.71875-.41797.41406-.20703.34375-.23047.28125-.25.22265-.26953.16016-.27735.11328-.28125.0625-.28515.01953-.28125-.03906-.38281-.1211-.35157-.1914-.30469-.25-.26562-.30078-.21094-.34766-.16015-.3789-.09766-.40625-.03125-.4336.03125-.39844.09766-.35546.16796-.3047.23438-.25.30469-.18358.3711-.1172.44921-.03905.51563"/></g></defs><use xlink:href="#V"/></svg>