<svg xmlns="http://www.w3.org/2000/svg" role="img" xmlns:xlink="http://www.w3.org/1999/xlink" viewBox="142.45 309.95 326.84 171.84"><defs><clipPath id="a"><path d="M144 311.67188h1v168.65625h-1zm0 0"/></clipPath><clipPath id="b"><path d="M144 311.67188h324v168.65625H144zm0 0"/></clipPath><clipPath id="c"><path d="M467 311.67188h1v168.65625h-1zm0 0"/></clipPath><clipPath id="d"><path d="M144 479h2v1.32813h-2zm0 0"/></clipPath><clipPath id="e"><path d="M154 477h6v3.32813h-6zm0 0"/></clipPath><clipPath id="f"><path d="M168 477h6v3.32813h-6zm0 0"/></clipPath><clipPath id="g"><path d="M180 477h8v3.32813h-8zm0 0"/></clipPath><clipPath id="h"><path d="M194 477h7v3.32813h-7zm0 0"/></clipPath><clipPath id="i"><path d="M207 477h7v3.32813h-7zm0 0"/></clipPath><clipPath id="j"><path d="M220 480h8v.32813h-8zm0 0"/></clipPath><clipPath id="k"><path d="M220 479h2v1.32813h-2zm0 0"/></clipPath><clipPath id="l"><path d="M234 477h6v3.32813h-6zm0 0"/></clipPath><clipPath id="m"><path d="M249 476h3v4.32813h-3zm0 0"/></clipPath><clipPath id="n"><path d="M260 477h7v3.32813h-7zm0 0"/></clipPath><clipPath id="o"><path d="M275 476h4v4.32813h-4zm0 0"/></clipPath><clipPath id="p"><path d="M289 476h3v4.32813h-3zm0 0"/></clipPath><clipPath id="q"><path d="M303 476h2v4.32813h-2zm0 0"/></clipPath><clipPath id="r"><path d="M316 476h3v4.32813h-3zm0 0"/></clipPath><clipPath id="s"><path d="M329 476h3v4.32813h-3zm0 0"/></clipPath><clipPath id="t"><path d="M343 476h2v4.32813h-2zm0 0"/></clipPath><clipPath id="u"><path d="M354 477h6v3.32813h-6zm0 0"/></clipPath><clipPath id="v"><path d="M366 478h8v2.32813h-8zm0 0"/></clipPath><clipPath id="w"><path d="M381 477h5v3.32813h-5zm0 0"/></clipPath><clipPath id="x"><path d="M393 479h8v1.32813h-8zm0 0"/></clipPath><clipPath id="y"><path d="M408 476h5v4.32813h-5zm0 0"/></clipPath><clipPath id="z"><path d="M419 479h9v1.32813h-9zm0 0"/></clipPath><clipPath id="A"><path d="M420 479h2v1.32813h-2zm0 0"/></clipPath><clipPath id="B"><path d="M433 479h8v1.32813h-8zm0 0"/></clipPath><clipPath id="C"><path d="M433 479h2v1.32813h-2zm0 0"/></clipPath><clipPath id="D"><path d="M446 479h8v1.32813h-8zm0 0"/></clipPath><clipPath id="E"><path d="M447 478h2v2.32813h-2zm0 0"/></clipPath><clipPath id="F"><path d="M459 479h9v1.32813h-9zm0 0"/></clipPath><clipPath id="G"><path d="M460 478h2v2.32813h-2zm0 0"/></clipPath><clipPath id="H"><path d="M144 465h4v5h-4zm0 0"/></clipPath><clipPath id="I"><path d="M144 450h2v8h-2zm0 0"/></clipPath><clipPath id="J"><path d="M144 437h3v7h-3zm0 0"/></clipPath><clipPath id="K"><path d="M144 425h4v4h-4zm0 0"/></clipPath><clipPath id="L"><path d="M144 413h4v2h-4zm0 0"/></clipPath><clipPath id="M"><path d="M144 398h4v4h-4zm0 0"/></clipPath><clipPath id="N"><path d="M144 384h3v6h-3zm0 0"/></clipPath><clipPath id="O"><path d="M144 370h2v8h-2zm0 0"/></clipPath><clipPath id="P"><path d="M144 376h2v4h-2zm0 0"/></clipPath><clipPath id="Q"><path d="M144 356h1v9h-1zm0 0"/></clipPath><clipPath id="R"><path d="M144 363h1v3h-1zm0 0"/></clipPath><clipPath id="S"><path d="M466 358h2v2h-2zm0 0"/></clipPath><clipPath id="T"><path d="M144 344h3v7h-3zm0 0"/></clipPath><clipPath id="U"><path d="M466 345h2v3h-2zm0 0"/></clipPath><clipPath id="V"><path d="M144 330h3v7h-3zm0 0"/></clipPath><clipPath id="W"><path d="M465 331h3v2h-3zm0 0"/></clipPath><clipPath id="X"><path d="M144 318h4v5h-4zm0 0"/></clipPath><clipPath id="Y"><path d="M465 317h3v2h-3zm0 0"/></clipPath><g id="Z" clip-path="url(#clip1)"><path fill="#fff" fill-opacity="0" fill-rule="evenodd" d="M0 0h1000v1000H0zm0 0"/><path fill="#d3d3d3" fill-opacity="0" fill-rule="evenodd" d="M162.15234 355.86719l-.23437.29297.0586.23437.11718.17188.17578.23437.29297.34766.11328.0586.11719-.17188.0586-.23438.17577-.17578.46485-.17578h.69922l.23437.29297.28906.8164.0586.17579.17578.23046.35156.23438.69922.69922.17188.17578.23437.34765.23438.41016.28906.58203.41015.46485.23047.23437.23438.17578.11719.23047.17578.29297.17187 1.16406v.23438l.0586.28906.05859.11719.11719.11719.34765.41015.11719.17188.17578.17578.17578.23437.11719.17188.17188.35156.05859.23438.23437.40625.23438-.0586-.17578.17578-.0586.92969h-.58203l-.23437-.11328-.34766.11328-.11719.11719-.05859.29297-.0586.17578-.11718.17187-.46484.29297-.0586.23438-.0586.11328v.64453l.0586.17187v.41016l.0586.0586v.40624l.05859.40625.11719.17579.05859.05859.23047.64062-.0586.29297v.69922l-.05859.58203v.23438l-.0586.23047-.05468.35156v1.92187l.05469.1172h.42578l-.36719.11718-.02344.35156.89063 1.16797 1.74219.53906 1.33984.35938v.53906l.08984.8086.53516.71484 1.51953.26953.89063-.08594.08984 1.16406.53516.1797 1.16015-.1797 2.05469-.98437 1.16016-.36328 1.8789-.17578 1.69531-.1797-.17968.71876-1.51563.08594-1.25.08984-.80469.26953-1.07421.8086.26953.71875.53515.89843-.17968.625-.26563.8086.26563 1.07812.625.89844.80468.17969 1.25-.1797-.26562.72267.09766.5039.05468.29297v.17188l.0586.29296v.40625l.17578.1172.35156.11718h.40625l.29297-.17578.11328-.11719.0586-.11719.11718-.23047.0586-.17578.35156-.46484.23047-.17578.17578-.0586.17578.0586.0586.17578.11718.98828.05469.46875.0586.17188.11718.23437.17578.0586.8164.05859h.28907l.11719.23437.05859.40625.0586.35156v1.10547l.11718.29297.11719.34766.28906.69922.17578.35156.58203.7539.35157.17579.17187.0586.46875.23437.64063.46484.34765.23438.29297.17578.29297.05468.23047.0625.8164.34766.29297.17578.11328.17188.35157.35156.11719.17578.52343.64063v.28906l.0586.35156v.34766l.05859.35156.0586.28906.11718.0586.17188.05859h.17578l.58203.23437.17578.1172.17578.28905.17578.23438.11328.23437.29297.23047.11719.11719v.41016l.0586.05468.28906.23438.23437.11719.0586.11718.11718.17188.0586.11719.23047.23437.05859.17578.23437.0586.1172.05859-.1172.11328-.05859.11719v.11719l-.11719.29296-.11719.28907v.58203l.17579.11719.11718.05859.0586.11719.11719.11719.11328.05859.17578.34765.0586.35157.05858.40625v.17578l-.05859.17578-.11719.69922v.17187l.1172.17579.29296.29296h.40625l.17578.1172.11719.17187.11719.29296v.23438h-.52735l-.23047-.23438h-.23437l-.17578.0586-.0586.69922.0586.34765.11719.17579.17578.41015.11718.23047.28907.46875.17578.05469h.52344l.23437.0586.75781.64062.0586.29296v.23438l.05859.0586.23047.34765v.35156l-.11719.17188v.29297l.29297.28906.29297.17578.17187.0586.29297.17577.29297.1172.58203.40624.28906.23438.29297.17578.21875.16015.01563.01172.23047.17579.64062.52343.17578.23438.1172.17578.17577.17578.11328.17188v.64062l.1172.17578.46874.11719.58203.11719.23438.05859.23047.11328.29297.11719.11328.0586.58593.35156.28907.17187.17578.0625.17578.05469.17578.0586.69922.35155.28906.17579.23438.05468.28906.17578.23437.1172.64063.40624.29297.11719.17187.0586.23438.05859.41015.05859.23047.0586.23438.11718.0586.17188-.41017.17578.46875.0586.0586.29296.11328.23438.17578.05468.23438.0586.17578.05859.40625.11719.64062.23437.11719.17188.0586.23437v.17578l-.0586.1172-.0586.40624.23438.23438.11719.05859.34766.11719.64062.23047.17578.11718.28906.1172.17578.17577.23438.46485.58203 1.10546.17578.17579.34766.17578.17578.11719.35156.11718 1.04688.52344.23437.0586.46485.11327.29297.0586.46484.17578.75781.58203.23438.23438.34765.46484.17578.17578.28907.23438.8164.69921.29297.17579.28906.28906.29297.17578.29297.28906.69531.64063.17578.17578.29297.23437.28907.23438.46875.28906.64062.58203.34766.23438.23437.29297.34766.34765.35156.46485.9336.99218.34765.40625.11719.17579.23437.05859.11328.11719.64454.17578.23047.11328.23437.0586.29297.17577.23047.1172.9336.69921.40624.40625.23438.17578.40625.17578.23437.11719.8164.34766.34766.23437.23438.11719.29297.28906.23047.11719.7578.35156.35157.17188.23047.05859.29297.11719.23437.0586.8711.17577h.8164l.46875.23047.17188.0586.875.69921.46484.1172.29297.05858.17578.0586.23047.0586.46875.05859.34766.05859.35156.0586.40625.05859h.29297l.17187.0586v.23046l.17578.17578h.29297l.34766.0586.35156.05859.69922.11719h.64063l.46484-.23438.29297-.17578.17187-.11719.41016-.17187.28906-.17578.9336-.46485.46875-.29297.52343-.29296.46485-.17188.46484-.17578 1.05078-.46485.28906-.11718.41016-.11719.28906-.11719.52735-.17578 1.51562-.69922.58203-.34765.28907-.0586.29297-.0586.34765-.11718.875-.23047.35156-.11719h.11329l.23437-.05859.875-.23437.23438-.0586h.8125l.35156-.0586.8164-.11718.17188-.0586.35156-.05468.29297-.0586.23047-.05859.8164-.17578.17579-.0586h.34765l.23438-.05859.46484-.11718.75781-.17188.23438-.0586h.34765l.41016-.11718.28906-.0586 1.28516-.05859h.28906l.41016-.0586.23047-.05858h.17578l.875-.1172h.40625l.41015-.11718h.34766l.35156-.11328.8711-.0586h1.75l1.04687.28907.41016.11719.28906.11718.35156.11719.28907.11719 1.05078.17187.28906.0586h.29297l.29297.05859.17187.0586.41016.05859.17187.0586.1172.05858h.11718l.11719.0586.35156.0586h.11328l.41016.0664 1.92187.39453 1.92578.39453 1.51953.44922 1.69532.71875 2.14453.80469 1.60547-.71875 1.42968-.80469 1.16016-1.07813 1.25-.44921 3.03516-.71875 1.875-.35938 2.14453-1.34765 2.23437-1.25391 2.5-1.25781 1.69531-.44922 1.78516-.17969 1.16016-.26953.625.53906 1.33984-.26953.71485-.98828.98437-1.34375.44531-.17969.80469-.35937 1.875-.53907 1.78516-.44921 1.25-.26954 1.16015-.08984 1.69922-.08984 1.96094-.26954 1.25-.08984h.53906l.625-.08984h.89063l2.14453-.17969 2.41015-.17969 2.58985-.08984 1.69531.17969 1.60938.08984 1.42968.35938 1.16016.71875 1.875.98828 1.16015 1.52734.26563.71484.6289.08985.35548.89844.53515.53906.53516 1.52734 1.07422.35938h.53515l-.80469.53515.08985 1.70703.71484 2.69532.89063.80468.89453.98829.71484 1.2578 1.78516.53907 1.51953-.17969.35547 1.34375 1.60937-.80469.98047-.53906.26953.26953.31641-.21484.21875-.14453.80078.44922.44922-.35938h.35547l.53515-.26953.53907-.71875.53515-.26953.625-.98828 1.16016.44922.83984.3711 1.39454.61718 1.6953-.17969h1.60548l1.78515.08985.17969-1.70704.53516-1.34375.80468.26954.4922.84765.40233.40625-.08984.53906v.35938l.71485.44922.71093-.26953h1.42969l.35938.98828.4453 1.25781.71485 1.34375 1.25.6289 1.69531.62891.71485-.17969.17969-.53906.98046-.08984.44922.35937.08594 1.25782-.26563.6289-.53515.17969v.53906l.71484.98438.26563.53906.98437.98828.80078 1.07813-.26562.35937-.08985.89844-.625 2.33203-.35546 2.0664-.08985 1.79298-.17969.71875-.08984.53906v1.4375l-.98047 1.88281-.35937 1.70703-.53516.89844-.80469 1.16797-.26562.53906 2.05469 1.2539.08593.35938-.35546.53906-.08985-.17968v.80859l.08985 1.4375-.44532.71484-1.07422.09375-.26562.71485.53515.89844.8047.71875 1.16015.80859 1.33984.26953.44531.35938-.35546.44921-1.78907-.08984-1.25-.44922-.71484-.71875-.625-.08984-.17578 3.58984-.1875 1.3086h89.35937V311.70313h-55.26953v49.08203l.76172.125 3.28906.54296 2.02344 2.83594v2.7539l2.35156.33204 2.34766.33203h4.05078l-1.3789 4.16016-2.02344.70703-2.02344.70312-.54297.34375-2.59375 1.6172-.1875.11718-2.02344-2.07813-.73046-2.74218-2.67188-2.07813-1.375-3.5-.0664-.08203-1.95704-2.67188 2.75-1.41796v-49.08204H294.42187v91.41407l.1172.03125.1328.01172.07422.07421.10547.04688.08985.0586.08593.05859.08985.0586.29687.29687.0586.08984.03125.11719.02734.11719.01563.13671-.03125.1172-.0586.08983-.0586.08594-.04296.10547-.04688.10156-.02734.1211v.14453l.17578.26953.14844.14844.07422.08594.07422.07421.04296.10547.0625.08985.0586.08593.04297.10547.0586.08985.04687.10156.04296.10547.0586.08594.11719.17968.07421.07422.0625.08594.0586.08984.04297.10547.0586.08985.05858.08593.0625.08985.0586.08984.04297.10156.11719.17969.07421.07422.0586.08594.07422.07421.08984.0586.10547.04687h.14844l.1328-.01562.13282.01562.10156-.04687.07422-.07422.04688-.10156-.01563-.13281v-.14844l-.04687-.10547-.02735-.11719-.04687-.10156-.02735-.1211-.04296-.10156-.0625-.08984-.04297-.10156-.04297-.10547-.03125-.11719-.01563-.13281-.01171-.13672.08593-.0586.0586-.08593.12109-.03125.04297.10547.01562.1328v.1172l.0586.10156.0586.08984.08983.0586.14844.14843.0586.08985.04296.10547-.01171.10156.08593.0586.10547.04687.08594.0586.08984.05858.07422.07422-.11719.02735-.10546.04687-.08594.0586-.07422.07421-.0586.08985-.0625.08594-.02734.12109-.04687.10156-.04297.10547-.03125.11719-.01172.13281-.01563.13281v.14844l.02735.11719.04687.10547.04297.10156.0586.08984.07421.07422.08985.0586.07422.07421.08984.0586.0586.08984.04296.10547.04688.10156.11719.03125.1328.01563h.14845l.11718-.03125.10547.04297.04297.10547.04688.10156.02734.1211L299.5 410l.02734.11719.03125.1211.02735.11718.10547.04297.10156.04687.13281-.01562.14844.14844.0625.08593.07422.07422.07031.07422.08984.0625.10547.04297.10156.04297.1172.03125.13671.01562.11719-.03125.07422-.07422.02734-.11718-.01172-.13282-.03125-.12109-.02734-.11719.04297-.10547h.11719l.08984.0625.11719.02735h.14843l.13282.01562h.14843l.13282.01563.1328-.01563h.14845l.1328-.01562.13282-.01172.13672.01172.11719-.02735.13281-.01562.1914-.0586-.05859.17579-.01562.1328-.02735.1211-.01562.13281-.0586.08594-.1328.01563-.10548.04687-.10546.04297-.1172.03125-.11718.02735-.26563.03125h-.14843l-.13281.01562-.07422.07422.05859.08594.14844.14843.11719.1797.07421.0703.08985.0625.08984.0586.08594.0586.08984.05858.10156.04297.10547.0625.10547.04297.08594.0586.10547.04687.10156.04297.17969.11719.0586.08984-.04298.10156-.04687.10547.01562.13281.22266.22266.0586.08985.04296.10156.03125.1211.04297.10155.01563.13282.03125.11718.01171.13672.03125.11719.14844.14844.10156.04297.10547.04296.1172.03125.1328.01563.13672.01563h.11719l.11719-.03125.08984-.0586.04297-.10547.04688-.10156.04296-.10547.03125-.11719.01172-.1328v-.14845l-.01172-.1328-.01562-.13282-.03125-.11719-.04297-.10547-.04688-.10547-.04296-.10156-.04297-.10547-.01563-.13281.01563-.13281.02734-.11719.03125-.11719.02735-.1211.04687-.10155.08984-.0586.08594-.0625.07422-.07422.08984-.05859.22266-.22266.0586-.08593.07421-.07422.11719-.17969.0586-.08594v-.14844l-.07423-.07421-.10156-.04688-.10547-.04297-.10156-.04297-.0586-.08984-.04687-.10547-.02734-.11719.08984-.05859.11719-.03125.10156-.04297.17969-.11719.14844-.14843.01172-.13282-.01172-.10546-.08985-.0586-.1328.01563h-.14845l-.1328.01562-.13282-.01562-.1211-.03125-.08593-.0586-.07422-.07422-.0586-.08984-.0625-.08594-.11718-.17969-.0586-.08593.03125-.1211.08594-.05859.1211-.03125.05859-.08594v-.1211l-.03125-.11718-.0586-.08984-.05859-.08594-.04687-.10547-.02735-.11719-.01562-.1328.0586-.08985.07421-.07422.08984-.0586.1172-.17968.07421-.07422.0586-.08594.14843-.14844.1211-.03125.1328-.01562.13282.01562.07422.07422.04297.10547.01562.13281-.03125.1172-.11719.03124-.1328.01172-.14844.14844-.04297.10547-.04688.10156-.02734.1211-.03125.11718v.14844l.03125.11719.04297.10546.05859.08985.07422.07031.07422.07422.11719.03125.12109.02734.11719-.02734.1328-.01563h.1172l.08984.0586.07422.07422.04687.10546.0586.08594.10156.04688.13281.01562.10547.04297.08594.0586-.01172.10546-.07422.07422-.17969.11719-.05859.08984-.08984.0586-.07032.07422-.07421.07421-.0625.08985-.02735.11719-.01562.1328.01562.13282-.01562.13281v.14844l.01562.13281.02735.1172.03125.12108.07421.07422.08985.0586.08594.0586.08984.05858.11719.03125v.08594l-.10157.04688-.08984.0586-.26563.03124-.11718.02735h-.14844l-.10547.04296-.10156.04688-.0586.08984-.0625.23438-.01171.13281-.03125.1211-.01563.1328v.29298l-.01172.1328.01172.13673.01563.1328.1328.01563.13282.01172.1211.03125.08593.0586.07422.07421.04688.10547.04296.10157.01563.1328v.44532l-.01563.13281v.44532l.03125.26562.02735.11719.01562.13281.03125.11719.08594.21094.03125.26562v.14844l-.03125.11719-.02734.11718-.03125.1211-.02735.11719-.03125.11718-.03125.1211-.01171.1328-.01563.13282.08984.0586.1172-.03125.10155.01562.04688.10547-.03125.26562v.44141l-.04297.10547-.04688.10547-.04296.10156-.04297.10547-.0586.08594-.03125.12109-.04296.11719-.03125.11719-.01563.1328.01563.13282.05859.08984.10547.04688.08594.0586.05859.08593-.01172.13672-.03125.11719-.04297.10156v.44531l-.01562.13281v.14844l-.03125.11719-.04297.10547-.02735.11719-.04687.10546-.04297.10157-.03125.12109-.02734.11719-.03125.13281-.03125.11719-.02735.11719-.04297.10546-.03125.1172-.03125.12108-.01171.13282-.01563.13281v.29688l.02734.11718v.14844l.04688.39844.02734.11719.0586.08984.12109.03125h.14844l.13281-.01563.0586.08985v.11719l-.0586.08984-.08984.0586-.10157.04296-.10546.04688-.08985.05859-.08594.0586-.13671.01562-.1172-.03125-.1328-.01563-.10157.04688-.0625.08594-.01172.13671-.01562.13282-.03125.11719-.02735.11718-.01562.13281-.03125.1211v.29687l.01563.13282.03125.11718v.14844l.01171.13281v.14844l-.02734.11719-.04688.10156-.02734.1211-.03125.11718-.0586.08985-.07421.07421-.10156.04297-.10547.04688-.11719.02734-.1211.03125-.10156-.04687.0586-.08594.10547-.04688.02734-.11718.03125-.11719.02734-.1211.03125-.11718v-.14844l.01563-.13281-.03125-.11719-.04297-.10547-.10547.01563-.07422.07422-.10156.04296-.08984.0625-.07422.07422-.04297.10157-.01563.1328-.03125.1172L304.25 426l-.03125.11719-.02734.11719-.03125.12109-.02735.11719-.03125.11718-.04297.10547-.08984.0586h-.08984l-.1172-.03125-.03124-.08594.01562-.13672-.03125-.11719v-.14844l-.01171-.1328v-.14844l-.0625-.23438-.02735-.1211-.04297-.10156-.04687-.10546-.0586-.08594-.05859-.08985-.04297-.10546-.0625-.08594-.14844-.14844-.0703-.07422-.10548-.04687-.10547-.04297-.10156-.04297-.29687-.29688-.08985-.07421-.08594-.0586-.10546-.04297-.08985-.0625-.08594-.0586-.10546-.04296-.08985-.0586-.08594-.0625-.07421-.0703-.10547-.04688-.08594-.0586-.10547-.04296-.08984-.0625-.10156-.04297-.10547-.04297-.08594-.0586-.10547-.04687-.10547-.04297-.10156-.04687-.08985-.0586-.10156-.04297-.10547-.04296-.08984-.0625-.11719-.02735-.13281-.01562-.13281.01562H299.75l-.13281.01563-.11719-.03125-.08984-.0586-.07422-.07422-.08985-.05859-.10156-.04688h-.14844l-.12109-.02734-.10156-.04297-.07422-.07422-.11719-.17968-.08984-.0586-.10156-.04297-.08985-.0625-.10547-.04296-.08984-.0586-.08594-.0586-.10547-.04687-.0586-.08594-.05858-.08984-.04297-.10547-.04688-.10156-.07422-.07422-.08594-.0586-.07421-.07421-.08985-.0586-.22265-.22265-.04297-.10547-.03125-.26563.10547-.04296h.14453l.10547.04296.07421.07422.08985.0586.08594.0586.10546.04687.08985.05859.14844.14844.0703.07422.14845.14843.0625.08594.07421.07422.08594.0586.07422.07421.08985.0625.08984.0586.08594.05859.26953.17578.10156.04688.10547.04296.10156.04297.04688-.07421.05859-.08594.07422-.07422.07031-.07422.10547.04297.07422.07422.0586.08984.04296.10156.04688.10547.04296.10547.1211.02735.11719-.02735.07421-.08984.04297-.10547.0586-.08985.07422-.07421.10546-.04297.1172-.02735.1328.01172.08985.0586.14844.14843.05859.08985.04297.10547.04687.10156.04297.10547.04297.10156.10547.04688.10547.04296.13281.01563.08594-.0586.0586-.08984.07421-.07422.10547-.04297.11719.02735.10547.04687.10156.04297.10547.04297.10156.04688.17969.11718v.11719l-.01563.13281.01563.13281.01562.13672.0586.08594.10156.04688.1211.02734.11718.03125h.14844l.11719-.03125.05859-.08984.17969-.1172.05859-.08983.07422-.07422.0586-.08594.11718-.17969.17969-.11719.11719.03125.08984.0586.04297.07422-.01563.1328v.1172l.08985.05859h.14843l.13282-.01563.1328-.01171.26563-.03125.10547-.04297.11719-.03125.1211-.02735.07421-.07421.07031-.07422.0625-.08985-.01562-.10547-.04688-.10156-.10156-.04297-.10547-.01562-.11718.02734-.26563.03125h-.14844l-.07421-.07422-.08985-.0586-.11719-.03124-.11718-.02735-.13282-.01562h-.14843l-.13282.01563h-.29687l-.10547-.04688-.14844-.14844-.04297-.10156-.05859-.08984.22266-.22266.08593-.0586.10547-.04296.11719-.03125.13281-.01563.13281.01563.13672.01562.10157.04297.1328-.01172.08985-.0625.10156-.04297.0625-.08984-.04687-.10156-.08984-.0586-.1172-.03125-.10155-.04296-.0586-.08985-.0625-.08984v-.11719l.01563-.13281.10547-.04688.07421-.07031v-.1211l-.08984-.05859-.03125-.11719.08985-.05859.07421-.07422.04297-.10547.0586-.08984.04687-.10156.01563-.13281v-.14844l-.04688-.10547-.04297-.10156-.08984-.0586-.13281-.01562-.10157-.04297-.13671-.01563-.1172-.03125h-.4453l-.13282-.01562-.13281-.01172-.13281-.01563-.11719-.03125h-.14844l-.13281-.01562-.13281-.01172-.26563-.03125-.1211-.04297-.08593-.0586-.07422-.07421v-.14844l.01172-.13281.10547-.04688.10156-.04296.13281-.01563h.15235l.13281-.01562h.29297l.1211.03125.10156.04296.08984.0586.23438.0625.12109-.04688.08984-.05859.10156-.04297.13282-.01562.10547.04296.10156.04688.13281.01172.1211-.02735h.14453l.12109-.03125.11719-.02734.10547-.04687.07421-.07422.08594-.0586.14844-.14843.0586-.08594.04687-.10547.02734-.11719.01563-.10547-.10156-.04296-.08985-.0586-.11719-.03125-.10546-.04297-.08985-.0625-.07422-.08594-.07422-.07421-.10156-.04297-.10547-.04688-.10156-.04297-.0586-.08984-.04687-.10156-.08594-.21094-.0625-.08594-.05859-.08984-.07422-.07422-.08594-.0586h-.26953l-.11719.03126-.08984.05859-.10156.04297-.13281.01562-.10547-.01562-.02735-.11719-.0625-.08984-.11718-.03125-.10157-.04297-.14843-.14844-.03125-.11719-.01563-.10546.07422-.07422.17969-.1172.11719-.02733.11718-.03125.13672.01562.10156.04297.10547.04297.10156.04687.10547.04297.1172.03125.1328.01563.1172.02734.1328.01563.10547-.01563.08985-.0586-.07422-.07421-.10547-.04297-.07422-.07422-.07422-.08984-.14844-.14844-.08593-.0586-.08985-.05859-.07422-.07422-.08984-.0586-.10156-.04687-.1211-.02734-.10156-.04688-.10547-.04296-.11719-.03125-.10156-.04297-.1211-.03125h-.14843l-.11719.03125-.10546.04297-.08594.0625-.17969.11718-.08594.0586-.08984.0586-.10547.04687-.08594.05859-.10547.04297-.10156.04297-.10547.04687-.07422.07422-.05859.08985-.0586.08593-.04687.10547-.0586.08594-.07421.07422-.13281-.01172-.1172-.03125h-.11718l-.07422.07422-.08984.0586-.07422.07421-.08984.0586-.08594.05859-.10547.04687-.10156.04297-.13672.01563-.10156-.04297-.14844-.14844-.10547-.04688h-.08594l-.10547.04688-.10156.04297-.1211.03125-.11718-.03125-.07422-.07422v-.11719l.03125-.1211.07422-.0703.0586-.08985.07421-.07422.11719-.03125.10547-.04296h.29297l.13281-.01563.13672-.01563.10156-.04296.08985-.0586.10156-.04687.08984-.0586.13281-.01171.08985.05859.13281.01172.08984-.0586.08594-.05859.10547-.04297.08984-.0586.08594-.0625.08985-.05859.14843-.14843.0586-.08594.05859-.08985.10547-.04296.13281-.01563.11719.02735.1211.03125.05859-.0586.05859-.08984.03125-.26563.02734-.11719.10547.01172.13281.01563.10157-.04297.08984-.0586.0586-.08984.07421-.07422.0586-.08984.04687-.10156.01172-.13281-.01172-.13282-.04687-.10547-.14844-.14843-.0586-.08985-.05859-.08594-.04297-.10546v-.44532l.01563-.1328v-.14845l.01172-.1328-.0586-.0586-.08984.0586-.10156-.04298-.17969-.11719-.08594-.05859-.0625-.08984-.0586-.08985-.07421-.07421-.08594-.0586-.1211.03125-.10155.01172-.10547.04688-.08594.05859-.10547.04297-.14844.14844-.08984.05859-.08594.0586-.08984.0625-.10547.04296-.13281.01563v-.1211l.10547-.04297.11718-.03125.07422-.0703.04297-.10548v-.14844l-.02734-.11718-.14844-.14844-.13281-.01563h-.14844l-.11719.03125-.10547.04297-.10156.04297-.08984.0625-.11719.02735-.07422-.07422.01172-.13281-.04297-.10157-.04297-.10547-.08984-.05859-.11719.02734-.1211.03125-.11718.03125-.10156.04297-.1211.03125-.10156.04297-.10547.04297-.08984.0586-.10156.01562v-.11719l.01562-.13281-.0586-.08985-.07421.04297-.14844.14844-.0586.08985-.07421.07421-.04688.10547-.04296.10156-.07422.07422-.0586.08985-.07422.07422-.05859.08593-.07422.07422-.08984.0625-.07422.07031-.07422.07422-.10156.01563-.13281.01562-.10547-.04296v-.1211l.14843-.14844.04297-.10156.0586-.08984.04687-.10156.04297-.10547.0586-.08985.03124-.11719.04297-.10156.03125-.1211.02735-.11718.04687-.10547.04297-.10156.04297-.10547.07422-.07031.08984-.0625.08985-.0586.10156-.04296h.29687l.26563-.03125.10547-.04297-.07422-.07422-.11719-.03125-.10547-.04297-.08984-.0586-.10156-.04687-.08985-.0586-.10156-.04296-.10547-.04297-.08984-.0625-.08594-.0586-.10547-.04296-.10156-.04297-.1211-.03125-.11718-.03125-.10157-.04297L297.5 410.25l-.10156-.04297-.08985-.0586-.04296-.10546-.01563-.13281.10156-.04297.13281-.01563.13672.01563.13282-.01563.10156-.04297.0586-.08984.01562-.10547-.08985-.0586-.07421-.07421-.10157-.04297-.08984-.0586-.14844-.14843-.04297-.10547-.01562-.13281v-.29297l-.0586-.08985-.08984-.05859-.07422-.07422-.04297-.10547-.03125-.11718-.0586-.08985-.07421-.07422-.11719-.02734-.07422-.07422-.08984-.0586-.08984-.0625-.08594-.05859-.07422-.07421-.0586-.08594-.04687-.10547-.08594-.0586-.14843-.14843-.19532-.0586-.1328.01563-.10157.04297-.07422.07422-.04688.10156-.04296.10547-.0586.08984-.0586.08594-.29687.29687-.08984.0586h-.08594l-.0625-.08594-.04297-.10547.03125-.11719.0586-.08984.02734-.11719-.01172-.13281-.08984-.0625-.10547.04688-.11719.02734-.11719.03125-.26953.17578-.10156.04688-.11719.02734-.10546.04687-.08985.0586-.10156.04297-.0586-.08594-.04687-.10547.01563-.13281.04687-.10547.07031-.07422.07422-.07031.0586-.08985v-.14843l-.04297-.10547h-.23829l-.10156.04687-.03125.11719-.02734.11719-.03125.1211-.07422.04296-.13281.01563-.07422-.04688-.04297-.10156-.04297-.10547-.04687-.10156-.04297-.10547-.1211.03125-.10156.04297-.13281.01562-.11719.03125-.10547.04297-.08984.0586-.10156.04687-.1211.02734-.13281.01563-.10156-.04297-.0586-.08985-.04687-.10546-.04297-.10157-.04297-.10546v-.1172l.0586-.08984.08593-.05859.17969-.11719.10156-.04687.10547-.04297.10547-.0586.10156-.04296.08985-.0625.10156-.04297.10547-.0586.10156-.04687.08984-.0586.10547-.04296.10156-.04297.08985-.0625.10156-.04297.13672-.01563.11719.03125.10156.04297.1211.03125.10156.04297.10546.04688.10157.04296.10547.04297.10156.04688.10547.04297.10156.04297.10547.04687.08594.0586.10546.04296.1172.03125.10546.04297.10156.04688.08985.0586.10547.04296.10156.04297.10547.04687.11719.02735.10156.04687.1211.02735h.14843l.08594-.0586.01562-.10156.0586-.08984-.02735-.1172-.07422-.07421-.11719-.17969-.07421-.07422-.08985-.07421-.17969-.1172-.08593-.05859-.10547-.04296-.10156-.04688-.26954-.17578-.05859-.08985-.07422-.07421-.0586-.08985-.04296-.10156-.03125-.11719-.01563-.13672v-.5625l-.01171-.1328-.01563-.13282-.03125-.11719-.01562-.13281-.01172-.13281-.03125-.1211-.22266-.22265-.0586-.08594-.01562-.10547.03125-.11719.13281-.01562v-91.41406H172.9922v1.45312l-.0586.23438-.35156 1.05078-.17187.52343-.1172.34766-.17577.41016-.11719.17187-.23438.29297-.23046.0586h-.35157l-.11718.05859-.23047.40625v.29297l.11719.17578.23046.23047.1172.23437.64062.75781.29297.46485.17578.23437.23047.35156.23437.34766.64063.8164.17578.46485.17187.41016.11719.69531.17578.46875.11719 1.39844.0586.46484v.875l.11718 1.04688v4.78125l-.0586.46484-.35156 1.28125-.17578.52344-.11328.41015-.35156.9297L172.93359 336l-.23437.58203-.11719.17578-.17187.34766-.17578.40625-.35157.8164-.0586.29297-.11327.29297-.11719.28906-.0586.17579-.11718.875-.0586.40625-.05859.11718-.0586.17579-.05859.17187-.23047.52734-.11718.17188v.23437l-.11719.23438-.0586.17187-.17577.58594v.28906l-.0586.17579v.29296l-.0586.11329-.05859.52734v.17187l-.05468.23438v2.6211l-.17578.8164-.1172.17578-.17577.23438-.1172.17187-.11327.23438-.58594.93359-.23047.28906-.29297.46485-.17578.23437-.28906.35156-.35156.69922-.11328.23047-.17579.41016-.17578.23046-.40625.52735-.8164.69922-.29297.17187-.28906.23438-.17579.11719-.17578.17578-.52344.40625-.52734.17578-.17187.17578-.23438.05469-.64062.17578h-.75782m12.21094 31.02344l-1.07422.44921.35938.89454 1.25-.71485.44531-.53906-.98047-.08985"/><path fill="#d3d3d3" fill-opacity="0" fill-rule="evenodd" d="M201.50781 416.59766h-.89453l.44922.6289.98047.35938.80469-.08985.4453-.98828-.17577.08985-.71485-.35547-.89453.35547m154.6211 59.0703l-.0586-.52343v-.29297l.11328-.29297.0586-.23046.46875-.46875h.11328l.11719-.11329.11718-.05859h.17579l.23437-.0586h.34766l.23437.0586.11719.0586.23047.17187.0586.17578.11718.58203v.29297l-.11719.17578-.17187.28906-.17579.17579-.52734.52343-.23047.23438-.11719.0586h-.17578l-.11718-.0586-.40625-.29297-.17579-.11719-.11718-.0586-.0586-.11327-.05468-.1172m6.64062-10.95702l-.0586-.17188v-1.10937l.0586-.17188.17578-.0586.17188-.05858h.17578l.23437-.0586.1172.0586.05858.69921-.05859.17188-.11719.17578-.11718.0586-.23438.52343-.11328.0586h-.23438l-.05859-.1172m9.61328-14.39062l-.11719-.17578v-.69922l.29297-.875.1172-.17187.17577-.35156.11328-.23047.1172-.29297.35155-.75781.1172-.23047.17187-.23438h.17578l.11719-.0586h.64062l.11719.0586.23437.23438.17188.11328.35156.29297.11719.11718.11328.17579v.11328l.11719.05859.11718.11719v.69922l-.05859.17578v.23047l-.0586.17578-.34765 1.05078-.11719.23047-.11719.23437-.11718.0586-.23047.23437-.64063.28906h-.875l-.41015-.11718-.64063-.46485"/><path fill="none" stroke="#bebebe" stroke-linecap="round" stroke-linejoin="round" stroke-miterlimit="10" stroke-width=".5" d="M467.95703 311.69531H144.02734v168.625h323.9297v-168.625"/><g clip-path="url(#a)"><path fill="#fff" fill-opacity="0" fill-rule="evenodd" d="M144 475.89063v4.4375h.0039H144V311.67188h.0039H144v164.21875"/></g><g clip-path="url(#b)"><path fill="#fff" fill-opacity="0" fill-rule="evenodd" d="M144.0039 480.32813V311.67188h17.75v128.30078l-.4375.41015.4375.46875.71876-.46875-.71875-.41015V311.67187h4.4375v140.85938l-1.86328 1.16797.35156 4.4375 1.51172 1.92187 3.6914-1.92187-1.6836-4.4375-2.0078-1.16797V311.67187h22.1914v134.23047l-3.67578 3.35938 3.67578 2.41797 1.22656 2.01953-.70703 4.4375-.51953.375-1.65625-.375-2.78125-1.5586-4.4375-.46093-2.46094-2.41797 2.46094-1.69531 3.24219-2.7422-3.24219-2.02343-4.4414.54297-1.16016 1.48047-.3789 4.4375L171 458.13672l-.09375 4.4375 4.16016 2.82031 4.4414-1.3086 4.4375.26563 4.4375 1.10938 4.4375.20312 4.4414.42188 2.31642.92969 2.12109 1.88671 4.4375-1.1328 1.36328-.75392 3.07422-.39843 4.4414-.79688 4.4375-.66406 4.4375.34375 4.4375.26563 4.4375-.8672 4.44141-.5664 2.66406-1.75781-1.12109-4.4375-1.54297-2.72266-2.82031-1.71484-1.6211-.42578-.58984.42578-3.84766 2.33594-4.4375.74609-4.4375-.44922-4.4375-2.01953-1.43359-.61328-3.00781-1.66016-4.4375-1.26562-4.4375-.48047-4.4375-.03516-4.4414-.1875-1.45313-.8086-2.98438-3.35937V311.67188h142.02735v147.43359l-4.4375 1.45703-2.09766 2.01172 2.09766 3.85937.23046.58204-.23046.58593-2.0586 3.85156 2.0586 2.21485 4.4375-.13672 2.01953-2.07813 2.32031-4.4375.09766-.11718 3.02734.11719 1.41406.18359.125-.1836 1.77344-4.4414-1.89844-1.82813-4.4414-1.08593-4.4375-.5547V311.67189h39.9453v97.43359l-.20702.21094-2.65625 4.4375 2.86328 2.85546 3.2539-2.85546-3.02343-4.4375-.23047-.21094v-97.4336h8.8789v102.71094l-2.65625 3.8086-.41015 4.4375 3.0664 3.33203.76954 1.10937 3.66796 3.85938 4.4375-2.55078 1.09766-1.3086-1.09765-2.3086-.35157-2.1328-1.3164-4.4375-2.76954-3.29297-4.4375-.51563V311.67187h17.75v120.00391l-4.4375.04297-4.4375.48438-4.4375.52734-3.28515 3.21484 3.28515 2.67188 2.27344 1.76562 2.16406 2.1836.73438 2.2539.16016 4.4414-.89454 4.01173-.39453.42578-2.91015 4.4375-1.13281 1.27344-4.4375 2.73437-.36329.42969.36329.41406 1.23046 4.02735-.42968 4.4375 3.63671 3.64062 4.4375-.46484 4.4375-1.45313 4.4375.2539 2.21875-1.97656 2.22266-2.01953 4.4375-.42968 4.10156-1.98829.33594-.21484 2.58203-4.22656-2.58203-2.75781-4.4375-.89063-.72265-.78906.03515-4.4375.6875-.67578 4.4375-2.2539 1.35156-1.50782-1.35156-1.41016-.9375-3.03125-2.34765-4.4375-1.15235-1.42187-.65625-3.01563-3.78125-3.7461-4.4414-.52343v-120.0039h71.01171v168.65625H144.00391"/></g><path fill="#50fcfc" fill-rule="evenodd" d="M161.7539 440.85156l-.4375-.46875.4375-.41015.71876.41015-.71875.46875m2.92578 17.28516l-.35156-4.4375 1.86328-1.16797 2.0078 1.16797 1.6836 4.4375-3.6914 1.92187-1.51172-1.92187m10.38672 7.25781l-4.16016-2.82031.09375-4.4375 2.52734-4.4375.37891-4.4375 1.16016-1.48047 4.4414-.54297 3.24219 2.02344-3.24219 2.74219-2.46094 1.6953 2.46094 2.41798 4.4375.46094 2.78125 1.55859 1.65625.375.51953-.375.70703-4.4375-1.22656-2.01953-3.67578-2.41797 3.67578-3.35938 2.98438 3.35938 1.45312.8086 4.4414.1875v2.16406l-4.4414 1.24218-.03125.03516.03125.14453 1.8711 4.29297-1.8711 2.26562-4.4375 2.13672-.0625.03516.0625.02734 4.4375.66016 4.4414-.02735 2.47267-.66015 1.96484-.60156 1.59375.60156 2.84375 1.17187 4.4375.88672 4.4414-.9336 3.26954-1.125-2.46094-4.4375-.8086-.46093-4.4414-.94531-4.4375-.98438-4.4375-1.48437-.98828-.5625-3.44922-1.27735v-2.16406l4.4375.03516 4.4375.48047 4.4375 1.26562 3.00781 1.66016 1.4336.61328 4.4375 2.01953 4.4375.44922 4.4375-.7461v4.31641l-4.4375 1.27344-2.29688.94922 2.29688.49219 4.4375.72656 3.02734-1.21875-3.02734-2.22266v-4.3164l3.84765-2.33594.58984-.42578 1.6211.42578 2.82031 1.71484 1.54297 2.72266 1.1211 4.4375-2.66407 1.75781-4.4414.5664-4.4375.8672-4.4375-.26563-4.4375-.34375-4.4375.66406-4.44141.79688-3.07422.39844-1.36328.7539-4.4375 1.13281-2.1211-1.88671-2.3164-.9297-4.4414-.42187-4.4375-.20312-4.4375-1.10938-4.4375-.26562-4.44141 1.3086"/><path fill="#00e8fc" fill-rule="evenodd" d="M188.38281 462.60156l-.0625-.02734.0625-.03516 4.4375-2.13672 1.8711-2.26562-1.8711-4.29297-.03125-.14453.03125-.03516 4.4414-1.24219 3.44923 1.27735.98828.5625 4.4375 1.48437 4.4375.98438 4.4414.94531.8086.46094 2.46094 4.4375-3.26953 1.125-4.44141.9336-4.4375-.88673-2.84375-1.17187-1.59375-.60156-1.96484.60156-2.47266.66015-4.4414.02735-4.4375-.66016m35.5078.46485l-2.29687-.4922 2.29688-.94921 4.4375-1.27344 3.02734 2.22266-3.02734 1.21875-4.4375-.72656"/><path fill="#50fcfc" fill-rule="evenodd" d="M325.97266 466.4336l-2.09766-3.85938 2.09766-2.01172 4.4375-1.45703v1.47265l-3.31641 1.9961 1.92578 4.4414 1.39063 2.03516 1.43359-2.03515 3.0039-3.53516 1.42579-.90625-1.42578-.60938-4.4375-1.38671v-1.47266l4.4375.55469 4.4414 1.08593 1.89844 1.82813-1.77344 4.4414-.125.1836-1.41406-.1836-3.02734-.11718-.09766.11719-2.32031 4.4375-2.01953 2.07812-4.4375.13672-2.0586-2.21485 2.0586-3.85156.23046-.58594-.23046-.58203"/><path fill="#00e8fc" fill-rule="evenodd" d="M329.01953 467.01563l-1.92578-4.44141 3.3164-1.9961 4.4375 1.38672 1.42579.60938-1.42578.90625-3.00391 3.53515-1.4336 2.03516-1.39062-2.03515"/><path fill="#50fcfc" fill-rule="evenodd" d="M370.35547 416.60938l-2.86328-2.85547 2.65625-4.4375.20703-.21094v3.8789l-.48047.76954.48047.48046.54687-.48046-.54687-.76954v-3.8789l.23047.21094 3.02344 4.4375-3.25391 2.85546"/><path fill="#00e8fc" fill-rule="evenodd" d="M370.35547 414.23438l-.48047-.48047.48047-.76954.54687.76954-.54687.48046"/><path fill="#50fcfc" fill-rule="evenodd" d="M379.23438 425.96094l-3.06641-3.33203.41015-4.4375 2.65625-3.8086 4.4375.51563v3.41015l-4.4375.56641-1.0039 3.7539 1.0039 1.08985 2.33204 3.35156 2.10546 2.21485 2.78125-2.21485-.60937-4.4414-2.17188-4.32032v-3.41015l2.76954 3.29297 1.3164 4.4375.35156 2.1328 1.09766 2.3086-1.09765 1.3086-4.4375 2.55078-3.66797-3.85938-.76954-1.10937"/><path fill="#00e8fc" fill-rule="evenodd" d="M379.23438 423.71875l-1.00391-1.08984 1.0039-3.75391 4.4375-.5664 2.17188 4.3203.60938 4.44141-2.78125 2.21485-2.10547-2.21485-2.33204-3.35156"/><path fill="#50fcfc" fill-rule="evenodd" d="M379.23438 462.98828l-.36329-.41406.36329-.42969 4.4375-2.73437 1.1328-1.27344 2.91016-4.4375.39454-.42578.89453-4.01172-.16016-4.4414-.73438-2.25391-2.16406-2.1836-2.27344-1.76562-3.28515-2.67188 3.28515-3.21484 4.4375-.52735 4.4375-.48437 4.4375-.04297v.94531l-4.4375.02735-4.4375 1.03125-4.23046 2.26562 4.23046 3.48438.32032.95312 1.64062 4.4375.41016 4.4414-.6211 4.4375-1.75 2.25782-1.5664 2.17969-2.8711 3.21484-1.78125 1.22266.70704 4.4414-1.2461 4.4375 2.32031 2.32032 4.4375-1.3164 1.97657-1.00392 2.46094-1.76562 4.4375.38281 3.23828-3.05469 1.20312-1.09765 4.4375-.65235 3.54688-2.6914-3.54688-1.60547-2.59375-2.83203-.82422-4.4375 3.41797-3.3711 1.59375-1.0664.41406-4.4414-2.0078-2.82423-.21095-1.61328-1.76953-4.4375-2.45703-2.4375-4.4414-.88672v-.9453l4.4414.52343 3.78125 3.7461.65625 3.01562 1.15235 1.42187 2.34765 4.4375.9375 3.03125 1.35156 1.41016-1.35156 1.50781-4.4375 2.2539-.6875.67579-.03515 4.4375.72265.78906 4.4375.89063 2.58203 2.7578-2.58203 4.22657-.33594.21485-4.10156 1.98828-4.4375.42968-2.22265 2.01954-2.21875 1.97656-4.4375-.2539-4.4375 1.45312-4.4375.46484-3.63672-3.64063.42968-4.4375-1.23046-4.02734"/><path fill="#00e8fc" fill-rule="evenodd" d="M383.67188 473.77344l-2.32032-2.32031 1.2461-4.4375-.70704-4.44141 1.78125-1.22266 2.8711-3.21484 1.5664-2.17969 1.75-2.25781.6211-4.4375-.41016-4.4414-1.64062-4.4375-.32031-.95313-4.23047-3.48438 4.23046-2.26562 4.4375-1.03125 4.4375-.02735v1.57813l-4.4375.0039-4.14453 1.7422 1.28907 4.4375 2.42578 4.4375.42969 2.53515.15234 1.90625.09765 4.4375.10157 4.4375-.35156.36719-4.4375.625-3.19141 3.4453 2.01953 4.44142-3.26563 4.11328-.12109.32421.1211.1172.3125-.1172 4.125-3.29687 1.53125-1.14063 2.90625-1.30078 4.4375.16016 3.58593-3.30078-.26172-4.4375.00782-4.4375 1.10937-1.82031 2.63672-2.6172 1.6289-4.4414-.49218-4.4375-3.51953-4.4375-.2539-.25-4.44142-1.4961v-1.57812l4.44141.88672 2.45703 2.4375 1.76953 4.4375.21094 1.61328 2.00781 2.82422-.41406 4.4414-1.59375 1.06642-3.41797 3.37109.82422 4.4375 2.59375 2.83203 3.54688 1.60547-3.54688 2.6914-4.4375.65235-1.20312 1.09765-3.23829 3.0547-4.4375-.38282-2.46093 1.76563-1.97656 1.0039-4.4375 1.3164"/><path fill="#00d4fc" fill-rule="evenodd" d="M383.67188 471.57031l-.1211-.11719.1211-.32421 3.26562-4.11329-2.01953-4.4414 3.1914-3.44531 4.4375-.625.35157-.3672-.10156-4.4375-.09766-4.4375-.15235-1.90624-.42968-2.53516-2.42578-4.4375-1.28907-4.4375 4.14454-1.74219v1.55079l-.45313.1914-1.14063 4.4375 1.59375 2.73047.66797 1.70703.44922 4.4414.92969 4.4375 1.66406 4.4375-3.71094 3.91798-4.4375-.76563-1.1875 1.28516 1.1875 1.96094 4.4375-1.5586 2.26954-.40234 2.16796-1.73828.59375-2.69922 1.3086-4.4375 2.53906-4.17188.26953-.26562 3.10156-4.4414-.05468-4.4375-3.3164-3.95704-3.96876-.48047-.47265-.16797-4.4375-.02343v-1.55079l4.4375-.0039 4.4414 1.4961.2539.25 3.51954 4.4375.49219 4.4375-1.62891 4.4414-2.63672 2.61719-1.10937 1.8203-.00782 4.4375.26172 4.4375-3.58594 3.30079-4.4375-.16016-2.90625 1.30079-1.53125 1.14062-4.125 3.29688-.3125.11718"/><path fill="#00c4fc" fill-rule="evenodd" d="M388.10938 464.53516l-1.1875-1.96094 1.1875-1.28516 4.4375.76563 3.71093-3.91797-1.66406-4.4375-.92969-4.4375-.44922-4.4414-.66796-1.70704-1.59375-2.73047 1.14062-4.4375.45313-.1914 4.4375.02343v.5547l-4.4375 3.03515-.32813 1.01562.32813.5664 1.5078 3.8711.57423 4.4414 1.76171 4.4375.59375 1.31642.47266-1.31641 2.78906-4.4375 1.1797-1.07422 2.48046-3.36719.3789-4.4375-2.85937-3.41406-4.4414-.63672v-.55469l.47265.16797 3.96875.48047 3.3164 3.95703.0547 4.4375-3.10157 4.4414-.26953.26563-2.53906 4.17188-1.3086 4.4375-.59375 2.69922-2.16796 1.73828-2.26954.40234-4.4375 1.5586"/><path fill="#00b8fc" fill-rule="evenodd" d="M392.54688 440.94922l-.32813-.5664.32813-1.01563 4.4375-3.03516v.42969l-4.07813 3.6211 1.99219 4.4375.6914 4.4414 1.39454 3.03125 1.92968-3.03125 2.51172-2.28516 1.58594-2.15625.82031-4.4375-2.40625-2.86719-4.4414-.7539v-.42969l4.4414.63672 2.85938 3.41406-.37891 4.4375-2.48047 3.36719-1.17969 1.07422-2.78906 4.4375-.47265 1.3164-.59375-1.3164-1.76172-4.4375-.57422-4.4414-1.50781-3.8711"/><path fill="#00a8fc" fill-rule="evenodd" d="M394.89844 444.82031l-1.99219-4.4375 4.07813-3.6211v.4297l-3.59375 3.1914 2.34765 4.4375.8164 4.4414.4297.9375.59765-.9375 3.84375-3.49608.69531-.94532 1.25391-4.4375-1.94922-2.32422-4.4414-.86718v-.4297l4.4414.75392 2.40625 2.86718-.82031 4.4375-1.58594 2.15625-2.51172 2.28516-1.92969 3.03125-1.39453-3.03125-.6914-4.4414"/><path fill="#009800" fill-rule="evenodd" d="M395.73828 444.82031l-2.34765-4.4375 3.59375-3.1914v.42968l-3.10938 2.76172 2.70703 4.4375.40235 2.0664 3.04687-2.0664 1.39453-.27734 1.49219-4.16016-1.49219-1.78125-4.4414-.98047v-.42968l4.4414.86718 1.94922 2.32422-1.2539 4.4375-.69532.94531-3.84375 3.4961-.59765.9375-.4297-.9375-.8164-4.4414"/><path fill="#00ac00" fill-rule="evenodd" d="M396.58203 444.82031l-2.70703-4.4375 3.10938-2.76172v.4297l-2.625 2.33202 2.625 4.05078 4.4414-1.16015 1.03516-2.89063-1.03516-1.23828-4.4414-1.09375v-.42969l4.4414.98047 1.49219 1.78125-1.49219 4.16016-1.39453.27734-3.04688 2.0664-.40234-2.0664"/><path fill="#00c800" fill-rule="evenodd" d="M396.98438 444.4336l-2.625-4.05079 2.625-2.33203v.86328l-1.65625 1.46875 1.65625 2.5586 4.4414-2.20704.125-.35156-.125-.14844-4.4414-1.3203v-.86329l4.4414 1.09375 1.03516 1.23828-1.03516 2.89063-4.4414 1.16015"/><path fill="#10cc00" fill-rule="evenodd" d="M396.98438 442.9414l-1.65625-2.55859 1.65625-1.46875v.85938l-.6875.60937.6875 1.0625 2.0078-1.0625-2.0078-.60937v-.85938l4.4414 1.32031.125.14844-.125.35156-4.4414 2.20704"/><path fill="#24d000" fill-rule="evenodd" d="M396.98438 441.44531l-.6875-1.0625.6875-.60937 2.0078.60937-2.0078 1.0625"/><g clip-path="url(#c)"><path fill="#fff" fill-opacity="0" fill-rule="evenodd" d="M467.9961 480.32813H468V311.67188h-.0039H468v168.65625h-.0039"/></g><path fill="#fff" fill-opacity="0" fill-rule="evenodd" d="M220.6289 461.96484l5.83985-.1914-.32813-9.95703-5.83984.1914.32813 9.95703"/><path fill-rule="evenodd" d="M223.85938 453.72656l.5078-.01562.20704 6.28906-.78516.02734-.14844-4.48828-1.38671.04688-.01953-.55469.55859-.08594.25-.0625.22656-.09375.19922-.14844.16406-.21875.13281-.29687.09375-.39844"/><g clip-path="url(#d)"><path fill="none" stroke="#000" stroke-linecap="round" stroke-linejoin="round" stroke-miterlimit="10" stroke-width=".5" d="M145.02344 480.32813l-.01953-.19922-.0586-.19141-.09375-.17578-.46094-.3789-.1914-.0586-.19922-.01953-.19922.01953-.1914.0586-.46094.3789-.09375.17578-.0586.1914-.01953.19923.01953.19921.0586.19141.09375.17969.46094.375.1914.0586.19922.01952.19922-.01953.1914-.0586.46094-.375.09375-.17968.0586-.1914.01953-.19922"/></g><g clip-path="url(#e)"><path fill="none" stroke="#000" stroke-linecap="round" stroke-linejoin="round" stroke-miterlimit="10" stroke-width=".5" d="M155.21094 477.51172l4.20703 5.63281"/></g><g clip-path="url(#f)"><path fill="none" stroke="#000" stroke-linecap="round" stroke-linejoin="round" stroke-miterlimit="10" stroke-width=".5" d="M168.39453 477.61719l4.47266 5.42187"/></g><path fill="none" stroke="#000" stroke-linecap="round" stroke-linejoin="round" stroke-miterlimit="10" stroke-width=".5" d="M169.04297 478.40625l.46875-1.13281"/><g clip-path="url(#g)"><path fill="none" stroke="#000" stroke-linecap="round" stroke-linejoin="round" stroke-miterlimit="10" stroke-width=".5" d="M181.13281 478.21875l5.625 4.21875"/></g><path fill="none" stroke="#000" stroke-linecap="round" stroke-linejoin="round" stroke-miterlimit="10" stroke-width=".5" d="M181.95313 478.83594l.1875-1.21485"/><g clip-path="url(#h)"><path fill="none" stroke="#000" stroke-linecap="round" stroke-linejoin="round" stroke-miterlimit="10" stroke-width=".5" d="M194.76172 477.85938l4.9961 4.9375"/></g><path fill="none" stroke="#000" stroke-linecap="round" stroke-linejoin="round" stroke-miterlimit="10" stroke-width=".5" d="M195.48828 478.57813l.35156-1.17579"/><g clip-path="url(#i)"><path fill="none" stroke="#000" stroke-linecap="round" stroke-linejoin="round" stroke-miterlimit="10" stroke-width=".5" d="M207.83594 478.1289l5.48047 4.39844"/></g><path fill="none" stroke="#000" stroke-linecap="round" stroke-linejoin="round" stroke-miterlimit="10" stroke-width=".5" d="M208.63281 478.76953l.22656-1.20312"/><g clip-path="url(#j)"><path fill="none" stroke="#000" stroke-linecap="round" stroke-linejoin="round" stroke-miterlimit="10" stroke-width=".5" d="M220.3789 480.40625l7.02344-.15625"/></g><g clip-path="url(#k)"><path fill="none" stroke="#000" stroke-linecap="round" stroke-linejoin="round" stroke-miterlimit="10" stroke-width=".5" d="M221.39844 480.38281l-.59766-1.07031"/></g><g clip-path="url(#l)"><path fill="none" stroke="#000" stroke-linecap="round" stroke-linejoin="round" stroke-miterlimit="10" stroke-width=".5" d="M235.10547 483.14453l4.20312-5.63281"/></g><g clip-path="url(#m)"><path fill="none" stroke="#000" stroke-linecap="round" stroke-linejoin="round" stroke-miterlimit="10" stroke-width=".5" d="M250.03125 483.8086l.97656-6.96094"/></g><g clip-path="url(#n)"><path fill="none" stroke="#000" stroke-linecap="round" stroke-linejoin="round" stroke-miterlimit="10" stroke-width=".5" d="M266.4375 482.6914l-5.20313-4.72656"/></g><g clip-path="url(#o)"><path fill="none" stroke="#000" stroke-linecap="round" stroke-linejoin="round" stroke-miterlimit="10" stroke-width=".5" d="M278.60938 483.52344l-2.91797-6.39063"/></g><g clip-path="url(#p)"><path fill="none" stroke="#000" stroke-linecap="round" stroke-linejoin="round" stroke-miterlimit="10" stroke-width=".5" d="M291.08594 483.78906l-1.24219-6.91797"/></g><g clip-path="url(#q)"><path fill="none" stroke="#000" stroke-linecap="round" stroke-linejoin="round" stroke-miterlimit="10" stroke-width=".5" d="M303.39063 483.82031l.78125-6.98437"/></g><g clip-path="url(#r)"><path fill="none" stroke="#000" stroke-linecap="round" stroke-linejoin="round" stroke-miterlimit="10" stroke-width=".5" d="M316.41016 483.77344l1.37109-6.89063"/></g><g clip-path="url(#s)"><path fill="none" stroke="#000" stroke-linecap="round" stroke-linejoin="round" stroke-miterlimit="10" stroke-width=".5" d="M329.96875 483.8125l.88672-6.96875"/></g><g clip-path="url(#t)"><path fill="none" stroke="#000" stroke-linecap="round" stroke-linejoin="round" stroke-miterlimit="10" stroke-width=".5" d="M344.0039 483.83203l-.55468-7.0039"/></g><g clip-path="url(#u)"><path fill="none" stroke="#000" stroke-linecap="round" stroke-linejoin="round" stroke-miterlimit="10" stroke-width=".5" d="M359.29688 483.02344l-4.51172-5.39063"/></g><g clip-path="url(#v)"><path fill="none" stroke="#000" stroke-linecap="round" stroke-linejoin="round" stroke-miterlimit="10" stroke-width=".5" d="M373.48438 481.92578l-6.25782-3.19531"/></g><g clip-path="url(#w)"><path fill="none" stroke="#000" stroke-linecap="round" stroke-linejoin="round" stroke-miterlimit="10" stroke-width=".5" d="M385.57422 483.28125l-3.80469-5.90625"/></g><g clip-path="url(#x)"><path fill="none" stroke="#000" stroke-linecap="round" stroke-linejoin="round" stroke-miterlimit="10" stroke-width=".5" d="M393.48828 479.98438l6.9961.6875"/></g><g clip-path="url(#y)"><path fill="none" stroke="#000" stroke-linecap="round" stroke-linejoin="round" stroke-miterlimit="10" stroke-width=".5" d="M411.95313 483.42969l-3.3047-6.19922"/></g><g clip-path="url(#z)"><path fill="none" stroke="#000" stroke-linecap="round" stroke-linejoin="round" stroke-miterlimit="10" stroke-width=".5" d="M420.13281 480.78516l6.96875-.91016"/></g><g clip-path="url(#A)"><path fill="none" stroke="#000" stroke-linecap="round" stroke-linejoin="round" stroke-miterlimit="10" stroke-width=".5" d="M421.14453 480.65234l-.71094-1"/></g><g clip-path="url(#B)"><path fill="none" stroke="#000" stroke-linecap="round" stroke-linejoin="round" stroke-miterlimit="10" stroke-width=".5" d="M433.42188 480.5039l7.01953-.35156"/></g><g clip-path="url(#C)"><path fill="none" stroke="#000" stroke-linecap="round" stroke-linejoin="round" stroke-miterlimit="10" stroke-width=".5" d="M434.44531 480.45313l-.63281-1.0547"/></g><g clip-path="url(#D)"><path fill="none" stroke="#000" stroke-linecap="round" stroke-linejoin="round" stroke-miterlimit="10" stroke-width=".5" d="M446.74219 480.08594l7.00781.48437"/></g><g clip-path="url(#E)"><path fill="none" stroke="#000" stroke-linecap="round" stroke-linejoin="round" stroke-miterlimit="10" stroke-width=".5" d="M447.76172 480.15625l-.5-1.1211"/></g><g clip-path="url(#F)"><path fill="none" stroke="#000" stroke-linecap="round" stroke-linejoin="round" stroke-miterlimit="10" stroke-width=".5" d="M460.125 479.59766l6.875 1.46093"/></g><g clip-path="url(#G)"><path fill="none" stroke="#000" stroke-linecap="round" stroke-linejoin="round" stroke-miterlimit="10" stroke-width=".5" d="M461.125 479.8125l-.33984-1.17969"/></g><g clip-path="url(#H)"><path fill="none" stroke="#000" stroke-linecap="round" stroke-linejoin="round" stroke-miterlimit="10" stroke-width=".5" d="M140.95703 465.26172l6.08594 3.5039"/></g><path fill="none" stroke="#000" stroke-linecap="round" stroke-linejoin="round" stroke-miterlimit="10" stroke-width=".5" d="M155.8086 463.83984l3.01562 6.34766m-2.57813-5.42188l.73047-.98828m11.1875.73438l4.9336 5.0039m-4.21875-4.27343l.36718-1.17188m11.66016 1.1836l6.07813 3.51953m-5.19532-3.00781l.04297-1.22657m12.63672.33985l5.58203 4.26953M195.28125 465.5l.19922-1.21094m12.5039.35157l5.1797 4.74609m-4.42579-4.05469l.3086-1.1875m11.35937 2.41797l6.96875.90234m9.50781 3.04688l.64844-6.9961m-.55469 5.98047l-1.13281.47266m14.70313.5586l-.0547-7.02735m.04688 6.0039l-1.07812.58594m16.75781-.49609l-4.76563-5.16016m18.91797 3.98047l-6.4414-2.80078m19.99218.77735l-6.91406 1.24609m19.86328 1.05078l-6.17968-3.34766m15.9375 5.15625l.93359-6.96484m-.79688 5.95313l-1.14843.42578m15.26562.58593l-.94531-6.96484m.94531 6.96484l-1.98828 1.4336m17.14844-2.27735l-4.63281-5.27734m18.29687 4.92969l-5.33203-4.58203m19.1289 3.85547l-6.29296-3.12891m5.375 2.67187l.03515 1.22657m10.03907 1.03125l2.01953-6.73047m11.3164-.00782l1.98047 6.7461m-1.6914-5.76172l.875-.85938m9.8828 1.9375l6.51954 2.6211m-5.57031-2.24219l-.13282-1.21875m13.23829-.29687l5.03906 4.89453m-4.3086-4.1836l.34375-1.17968m11.34766 2.07421l6.82422 1.6836m-5.83203-1.4375l-.29688-1.1914m14.05078-1.11329l3.96094 5.80078m-3.38281-4.95703l.5664-1.08594m10.85547 1.92578l6.58985 2.4336m-5.6289-2.08203l-.16798-1.21485"/><g clip-path="url(#I)"><path fill="none" stroke="#000" stroke-linecap="round" stroke-linejoin="round" stroke-miterlimit="10" stroke-width=".5" d="M142.63672 450.46094l2.72656 6.47656"/></g><path fill="none" stroke="#000" stroke-linecap="round" stroke-linejoin="round" stroke-miterlimit="10" stroke-width=".5" d="M156.9336 450.20703l.76562 6.98438m10.79297-6.28125l4.27734 5.57812m-3.65625-4.76562l.51172-1.1172m11.85156.58985l4.9375 5.0039m-4.21875-4.27343l.36719-1.17187m13.17188-.21875l3.05078 6.32812m-2.60547-5.41015l.72656-.98829m14.42578-.1953l-1.51562 6.85937m16.46093-.85157l-4.77343-5.15625m4.07812 4.40625l-.40234 1.15625m12.89844.41797l-1.7461-6.80468m1.49219 5.8164l-.90625.82422m13.99219.2539l-.78125-6.98437m.66797 5.96875l-1.01172.6914m15.21875.14454l-2.33594-6.625m1.9961 5.66016l-.82813.90625m16.6836-2.26172l-6.73829-1.98438m5.75781 1.69531l.2461 1.20313m14.15625-2.41797l-6.95313 1.02344m5.9414-.875l.72657.98828m13.63672-.7539l-7.02344.2539m7.02344-.2539l1.23047 2.125m11.61719-.2422l-6.08985-3.51171m6.08985 3.51172l-.08594 2.45312m11.88281-1.04297l-3.05078-6.32812m2.60547 5.40625l-.72656.99218m15.67187-5.46875l-5.42187 4.46875m4.6328-3.8203l1.13282.47265m13.72266.51172l-6.92578 1.20312m5.91796-1.03125l.75391.96875m12.57813 1.95703l-4.94532-4.99218m4.22657 4.26562l-.36329 1.17188m10.82422-6.27735l2.19922 6.67188m11.19922-6.69922l2.03516 6.72656m-2.03516-6.72656l1.73828-1.73047m10.85938 2.03906l3.46875 6.10938m-3.46875-6.10938l1.3164-2.07422m11.53907 2.38282l4.39062 5.48828m-4.39062-5.48828l.97265-2.25m-.33594 3.05078l.48829-1.12891m11.53515 1.01563l5.69922 4.11328m-5.69922-4.11328l.33594-2.4297m13.84766 1.58594l3.96093 5.8047m-3.96093-5.8047l1.14062-2.17187m11 3.52734l6.3125 3.08985m-5.39453-2.64063l-.04297-1.22265"/><g clip-path="url(#J)"><path fill="none" stroke="#000" stroke-linecap="round" stroke-linejoin="round" stroke-miterlimit="10" stroke-width=".5" d="M146.29688 443.04297l-4.59375-5.3164"/></g><path fill="none" stroke="#000" stroke-linecap="round" stroke-linejoin="round" stroke-miterlimit="10" stroke-width=".5" d="M145.6289 442.26953l-.4453 1.14453m15.48437-1.98047l-6.70703-2.10156m5.73047 1.79688l.22656 1.20703m7.98437.26172l5.45313-4.4297m14.07031 2.6875l-6.96094-.9453m5.94922.80859l.42578 1.15234m13.91407-1.875l-6.98438.77344m6.98438-.77344l1.3828 2.02735m11.89063-2.30078l-6.90234 1.32421m6.90234-1.32421l1.53907 1.91015m11.82422-.92969l-7-.63671m7 .63671l.94921 2.26172m12.375-2.78515l-7.01562.40625m7.01562-.40625l1.27344 2.09375m11.9961-1.30078l-6.9297-1.17579m6.9297 1.17579l.77343 2.32812m12.5-2.11328l-6.84375-1.60547m6.84375 1.60547l.625 2.3711m12.76953-3.48048l-7 .61329m7-.61329l1.33594 2.0586m11.66016-3.23828l-6.36719 2.96875m6.36719-2.96875l1.96093 1.47656m11.23829-1.70703l-6.13282 3.4336m6.13282-3.4336l2.0625 1.32422m11.67187.8164l-6.97266-.85156m6.97266.85156l.88281 2.28907m12.41797-2.1797l-6.94531-1.0703m6.94531 1.0703l.8086 2.32032m12.39843-3.8711l-6.72656 2.03126m5.7461-1.73438l.86718.86719m13.46485-1.03516l-6.80079 1.77344m6.80079-1.77344l1.66015 1.8047m11.72656-1.44923l-6.9453 1.0625m6.9453-1.0625l1.46875 1.96875m10.45313-4.26953l-4.15625 5.66797m3.55078-4.84375l1.21484.17578m12.55079-1.10547l-3.84766 5.8789m3.84766-5.8789l2.4453.21875m9.63673-.72656l-1.3789 6.89062m1.3789-6.89062l2.34765-.70313m10.41797.63672l-.28125 7.02344m.28125-7.02344l2.21094-1.0625m11.49219 1.10157l-1.0586 6.9453m1.0586-6.9453l2.3125-.8125m9.63281.875l1.67969 6.82421m-1.67969-6.82421l1.82812-1.63672m8.85547 4.51953l6.94532 1.0586m-6.94532-1.0586l-.8164-2.3164"/><g clip-path="url(#K)"><path fill="none" stroke="#000" stroke-linecap="round" stroke-linejoin="round" stroke-miterlimit="10" stroke-width=".5" d="M147.17188 428.58203l-6.34375-3.02734"/></g><path fill="none" stroke="#000" stroke-linecap="round" stroke-linejoin="round" stroke-miterlimit="10" stroke-width=".5" d="M146.25 428.14063l.05078 1.22656m14.50781-1.9336l-6.98828-.73047m5.97266.625l.46094 1.13672m13.82812-.73828l-6.90234-1.3164m6.90234 1.3164l.72656 2.34375m12.63672-2.6836l-7-.63671m7 .63672l.94922 2.26172m12.375-2.42578l-7.01953-.3086m7.01953.3086l1.0586 2.21484m12.26171-2.29688l-7.02734-.14453m7.02734.14453l1.10547 2.1875m11.97656-1.0078l-6.5664-2.50391m6.5664 2.5039l.3086 2.4336m13.10156-2.71875l-6.7539-1.9336m6.7539 1.9336l.51172 2.39843m12.91406-2.9414l-6.97656-.84766m6.97656.84766l.88281 2.28906m12.44922-2.98438l-7.0078.54297m7.0078-.54297l1.31641 2.07032m11.98047-2.22656l-6.97266.85546m6.97266-.85547l1.41015 2.01172m10.51954-4.39843l-4.20313 5.6328m3.59375-4.8164l1.21094.1875m12.98828-.77734l-4.75 5.17578m4.0586-4.42188l1.1875.3086m13.6328.04687l-6.375 2.95703m6.375-2.95703l1.95313 1.48047m11.28516-1.6289l-6.22656 3.2539m6.22656-3.2539l2.02734 1.38671m11.54688-.75l-6.7422 1.98047m5.76173-1.6914l.85547.8789m13.46484-1.08203l-6.79297 1.8086m5.80469-1.54688l.83594.89844m13.52343.39453l-6.90625-1.30078m5.90235 1.11328l.36328 1.17187m12.375-4.60546l-3.7461 5.9453m3.7461-5.9453l2.44922.17968m12.50781 2.8672l-7.02734-.15235m17.70312-3.32813l-1.75 6.8086m1.75-6.8086l2.38672-.57422m9.0625.60938l1.98438 6.73828m-1.98438-6.73828l1.7539-1.71875m12.55079 1.57422v7.02734m0-7.02734l2.16797-1.15235m11.34765 1.16016l-.39843 7.01562m.39843-7.01562l2.23047-1.02734m7.72656 3l6.32032 3.0664m-5.40235-2.6211l-.04687-1.22655"/><g clip-path="url(#L)"><path fill="none" stroke="#000" stroke-linecap="round" stroke-linejoin="round" stroke-miterlimit="10" stroke-width=".5" d="M147.50781 413.91797l-7.01562-.33203"/></g><path fill="none" stroke="#000" stroke-linecap="round" stroke-linejoin="round" stroke-miterlimit="10" stroke-width=".5" d="M146.48828 413.8711l.52344 1.10937m13.73047-.44531l-6.85156-1.5625m6.85156 1.5625l.64062 2.36718m12.7539-2.93359l-7.01171-.42969m7.01172.42969l1.01953 2.23047m12.28125-2.84375l-6.98438.79687m6.98438-.79687l1.38672 2.02344m11.88281-2.3125l-6.89453 1.37109m5.89063-1.17188l.77734.95313m13.4375.61719l-6.6836-2.16406m17.54688 4.48046L223 410.35547m1.51953 5.8086l-.89844.83202m15.08203-.0625l-2.99218-6.35937m2.99219 6.35937l-1.47266 1.96485m16.60937-3.99219l-6.63672-2.30469m5.67188 1.96875l.1875 1.21485m14.2461-1.50782l-6.94923-1.04687m6.94922 1.04687l.81641 2.3125m12.53516-2.64062l-7.01953-.39063m5.99609.33203l.51562 1.11329m13.07422-3.42188l-5.52344 4.34375m4.71875-3.71484l1.125.4961m11.42579-2.25782l-2.38282 6.60937m2.03516-5.64843l1.21484-.17579m14.0625.40625l-5.61328 4.22657m5.61328-4.22657l2.22266 1.03907m10.63672-1.53516l-4.70313 5.21875m4.70313-5.21875l2.38281.59375m10.60938-.85547l-4.0547 5.73828m3.46485-4.90234l1.21485.15625m13.4453 4.02344l-5.5664-4.28906m12.79297 3.33203l6.61328-2.375m-5.65234 2.02734l-.91016-.82422m18.46875-2.97265l-3.79687 5.91406m3.24218-5.05469l1.22266.10156m10.48438-1.50781l.52734 7.00781m-.52734-7.00781l2.0703-1.3125m11.7422 1.3086l-.46875 7.01171m.46875-7.01172l2.23828-1.0039m9.23047 1.39062l3.22656 6.24219m-3.22656-6.24219l1.39453-2.01953m-.92578 2.92578l.69921-1.00781m12.32422.01562l2.8711 6.41407m-2.8711-6.41407L437 408.60937m12.32031 1.75391l1.85156 6.78125m-1.85156-6.78125l1.78516-1.67969m10.14453 2.42578l4.625 5.28907m-4.625-5.28907l.8711-2.29296"/><g clip-path="url(#M)"><path fill="none" stroke="#000" stroke-linecap="round" stroke-linejoin="round" stroke-miterlimit="10" stroke-width=".5" d="M147.29688 401.65625l-6.59375-2.4375"/></g><path fill="none" stroke="#000" stroke-linecap="round" stroke-linejoin="round" stroke-miterlimit="10" stroke-width=".5" d="M146.33594 401.30469l.16406 1.21484m14.19922-1.14062L153.92969 399.5m6.76953 1.8789l.53125 2.39454m12.90625-3.08594l-7.01172-.4961m7.01172.4961l.99219 2.24219m12.32812-2.5664l-7.02344.14843m6.00391-.125l.59766 1.07031m13.35547.57422l-6.26172-3.1836m5.35156 2.71876l.02344 1.22656m12.1328-5.70313l-2.125 6.69922m12.80079-.21094l3.15625-6.27734m-2.69922 5.36328l-1.22656.02735m16.36719 1.1875l-1.40625-6.88282m1.40625 6.88282l-1.89453 1.5625m15.5664-1.65235l-2.125-6.69922m17.49219 4.97266l-6.23047-3.25m5.32422 2.77734l.01172 1.22657m12.29297.92578l-2.39454-6.60547m2.39454 6.60547l-1.64454 1.82031m17.15625-4.21094l-6.78515-1.82812m5.79687 1.5625l.27344 1.19531m11.6836-5.19531l-2.09376 6.70703m1.78907-5.73438l1.20312-.22656m9.10156-.07812l4.53516 5.36718m-3.875-4.58593l.45703-1.13672m14.72656-.46485l-.52343 7.00782m.44922-5.98829l1.12109-.49218m14.4375.4414l-4.85938 5.07422m4.85938-5.07422l2.35937.66407m7.26563-1.40625l2.52344 6.55859m-2.15625-5.60547l.80078-.92578m13.72656 6.75l-.64062-6.9961m.64062 6.9961l-2.05078 1.34375m18.38281-5.94922l-6.67187 2.21485m17.28906-4.5625l-1.27734 6.91015m1.09375-5.90625l1.16796-.36719m13.76172-.01953l-4.14062 5.67578m3.53906-4.85156l1.21484.17188m12.54688-1.10547l-3.82813 5.89062m3.82813-5.89062l2.44531.21484m10.10156-.58984l-2.29296 6.64453m2.29296-6.64453l2.42188-.38281m8.13281.58203l3.23047 6.24218m-3.23047-6.24218l1.39453-2.01563m-.92578 2.92578l.69531-1.01172m12.04688.16016l3.4336 6.1289m-3.4336-6.1289l1.32812-2.0664m-.82812 2.95702l.66406-1.03125"/><g clip-path="url(#N)"><path fill="none" stroke="#000" stroke-linecap="round" stroke-linejoin="round" stroke-miterlimit="10" stroke-width=".5" d="M146.71484 389.35156l-5.42968-4.45703"/></g><path fill="none" stroke="#000" stroke-linecap="round" stroke-linejoin="round" stroke-miterlimit="10" stroke-width=".5" d="M145.92578 388.70313l-.24219 1.20312m14.70313-1.07813l-6.14453-3.40625m6.14453 3.40625l-.04297 2.45313m12.45703-6.92188l-4.34375 5.52735m3.71094-4.72266l1.21094.21875m9.05468-1.4336l3.02344 6.34767m-3.02344-6.34766l1.46094-1.96875m10.3125 3.40234l6.10547 3.48047m-6.10547-3.48047l.07422-2.45312m19 6.4336l-5.41016-4.48048m4.6211 3.82813l-.2461 1.20312m10.6211.57031l2.04687-6.72265m-1.75 5.7461l-1.20312.23437m16.85547.5039L235.59766 384m2.75 5.33594l-.69922 1.01172m13.6289.20703l-1.51172-6.86328m1.29297 5.86328l-.93359.79687m17.13672-2.45312l-6.85156-1.54688m5.85546 1.32031l.32422 1.1836m9.10157 1.46484l2.91796-6.39453m-2.49218 5.46485l-1.22656.0703m18.8789-1.14062l-6.60937-2.39453m5.64843 2.04688l.17188 1.21484m10.55078-5.57031l.5 7.01172m11.46094-6.63282l3.21094 6.25391m-3.21094-6.2539l1.39844-2.01173m10.0664 5.77344l6.91016-1.26953m13.28125-.16406l-6.84375 1.59765m6.84375-1.59765l1.61328 1.84765m11.6211.03125l-6.6836-2.16015m6.6836 2.16015l.43359 2.41797m-1.40625-2.73046l.42968 2.41406m-1.40234-2.73047l.21484 1.20703m15.21485-1.73438l-7.02344.15235m7.02344-.15235l1.19922 2.14063m-2.21875-2.11719l1.19922 2.14063m12.7578-3.67578l-6.26562 3.17578m6.26563-3.17578l2.00781 1.41015m9.59766-3.03515l-2.84766 6.42578m2.84766-6.42578l2.44922-.17188m9.70312-.11719l-.52344 7.00782m.52344-7.00782l2.25-.98828m9.60156 1.1875l2.40625 6.60547m-2.40625-6.60547L424.0547 382m10.98828 2.16016l3.77734 5.92578m-3.23047-5.0625l.60547-1.07031m12.14453.21875l3.8125 5.90234m-3.8125-5.90235l1.19532-2.14453m13.375 1.64454l1.30468 6.90234m-1.30468-6.90235l1.91406-1.53515m-1.72656 2.53906l.95703-.76562"/><g clip-path="url(#O)"><path fill="none" stroke="#000" stroke-linecap="round" stroke-linejoin="round" stroke-miterlimit="10" stroke-width=".5" d="M145.21875 377.10547l-2.4375-6.59375"/></g><g clip-path="url(#P)"><path fill="none" stroke="#000" stroke-linecap="round" stroke-linejoin="round" stroke-miterlimit="10" stroke-width=".5" d="M145.21875 377.10547l-1.63672 1.82812"/></g><path fill="none" stroke="#000" stroke-linecap="round" stroke-linejoin="round" stroke-miterlimit="10" stroke-width=".5" d="M158.85547 376.96484l-3.08203-6.3164m3.08203 6.3164l-1.4414 1.98829m13.08984-8.65625l.25 7.02343m-.21094-6l1.0625-.61719m11.77734-.36328l1.125 6.9375m-1.125-6.9375l1.95313-1.48437m-1.78906 2.49219l.97656-.7422m14.21875.01954l-2.96485 6.36719m2.53516-5.4414l1.22656-.06642m14.54688 2.23047l-7.02344.1875m7.02344-.1875l1.21094 2.13282m12.04687-1.39454l-6.90625-1.28906m6.90625 1.28906l.73438 2.33985m-1.73829-2.52735l.3672 1.17188m13.99608-1.30469l-6.99609-.64844m6.9961.64844l.94921 2.26172m12.26953-3.47265l-6.80078 1.77343m6.80078-1.77344l1.66016 1.8047m10.77734-3.36329l-5.04687 4.89063m5.04688-4.89063l2.33593.75781m11.89453.97266l-6.8789 1.42969m6.8789-1.42969l1.57032 1.88672m11.6875-.22266l-6.76563-1.90234m5.78125 1.6289l.26172 1.19532m13.59375-3.79688l-5.8789 3.85156m5.02343-3.28906l1.07813.58985m11.99218-2.22266l-3.67578 5.99219m3.14063-5.1211l1.22656.07813m13.97656.57812l-6.38281 2.9375m5.45312-2.51171l.97657.74218m12.59375 2.75l-5.03516-4.90234m5.03516 4.90234l-.6836 2.35547m14.38282-2.82422l-5.80079-3.96094m5.80079 3.96094l-.26954 2.4375m13.9922-3.23047l-6.61329-2.375m6.61328 2.375l.35156 2.42579m13.14454-4.02344l-6.97657.82031m5.96094-.70313l.69922 1.01172m10.8086-4.16796l-1.33204 6.89843m1.14063-5.89453l1.17187-.35937m10.55078-.52735l2.23828 6.66406m-2.23828-6.66406l1.6836-1.78125m10.73828 2.23047l4.02344 5.76172m-4.02344-5.76172l1.11719-2.1836m11.92578 2.39454l4.5664 5.34375m-3.90234-4.5664l.44922-1.14063m12.85156-.07813l3.26563 6.22266m-2.78907-5.3164l.69141-1.01173m13.10156-.23046l1.35938 6.89453m-1.35938-6.89454l1.90235-1.54687"/><g clip-path="url(#Q)"><path fill="none" stroke="#000" stroke-linecap="round" stroke-linejoin="round" stroke-miterlimit="10" stroke-width=".5" d="M144.71484 363.9336l-1.42968-6.87891"/></g><g clip-path="url(#R)"><path fill="none" stroke="#000" stroke-linecap="round" stroke-linejoin="round" stroke-miterlimit="10" stroke-width=".5" d="M144.71484 363.9336l-1.8828 1.5703"/></g><path fill="none" stroke="#000" stroke-linecap="round" stroke-linejoin="round" stroke-miterlimit="10" stroke-width=".5" d="M157.86328 363.96484l-1.09766-6.9414m1.09766 6.9414l-1.96094 1.47266m16.52735-7.96094l-3.59766 6.03516m3.59766-6.03516l2.44922.11719m12.35547 1.66797l-6.57813 2.46484m6.57813-2.46484l1.83984 1.625m-2.79688-1.26953l1.83985 1.625m12.65625-.66797l-7.02735-.16016m7.02735.16016l1.10156 2.1914m-2.125-2.21484l1.10156 2.1914m13.21875-1.90624l-6.99219-.6875m6.9922.6875l.9375 2.26953m-1.95313-2.36719l.46875 1.13281m13.73828-2.36328l-6.74219 1.97266m6.74219-1.97266l1.71484 1.75781m-2.69531-1.47265l.85547.8789m13.5039-.90625l-6.87109 1.45704m6.8711-1.45704l1.57812 1.87891m-2.57813-1.66797l.78907.9414m13.54687-1.05468l-6.91406 1.25781m6.91406-1.2578l1.52344 1.92577m11.625-2.53125l-6.57813 2.46875m6.57813-2.46875l1.83984 1.625m11.66016-.92578l-6.94531 1.07031m6.94531-1.0703l1.46484 1.96483m11.76953-2.33203l-6.78906 1.8086m5.80469-1.54688l.83203.89844m13.32422-1.58594l-6.5039 2.66016m5.55859-2.27344l.94531.78516m11.67188-2.96875l-3.21485 6.25m2.7461-5.33985l1.22656-.01562m14.39062 2.94531l-6.88281-1.42578M332.85156 361l.34375 1.17578m13.14453.66406l-5.22656-4.6953m5.22656 4.6953l-.58984 2.38282m14.64453-3.6836l-6.70703-2.08984m5.73047 1.78515l.23047 1.20313m13.55469-4.0039l-5.69141 4.12109m4.86328-3.52344l1.10156.53906m9.98047-2.58594L383.88672 364m-.36719-5.99219l1.04688-.64062m12.10937-.375l.6211 7m-.6211-7l2.0586-1.33594m12.59765 1.47656l-2.0586 6.71875m2.0586-6.71875l2.40625-.46484m9.72656.3164l.30079 7.01954m-.25391-6l1.05469-.6211m13.14062-.3164l-1.55078 6.85546m1.32422-5.85937l1.1836-.32031m13.17577-.38281l-3.18359 6.26562m2.71875-5.35156l1.22656-.02344m13.78516.15234l-5.64844 4.1797"/><g clip-path="url(#S)"><path fill="none" stroke="#000" stroke-linecap="round" stroke-linejoin="round" stroke-miterlimit="10" stroke-width=".5" d="M466.38672 358.40234l2.21484 1.0547"/></g><g clip-path="url(#T)"><path fill="none" stroke="#000" stroke-linecap="round" stroke-linejoin="round" stroke-miterlimit="10" stroke-width=".5" d="M145.9414 350.10547l-3.8828-5.85547"/></g><path fill="none" stroke="#000" stroke-linecap="round" stroke-linejoin="round" stroke-miterlimit="10" stroke-width=".5" d="M145.9414 350.10547l-1.17187 2.16015M159.5 349.9297l-4.36719-5.5039m4.36719 5.5039l-.98438 2.25m15.375-6.30469l-6.52343 2.60938m6.52344-2.60938l1.875 1.58203m-2.82422-1.20312l.9375.78906m13.47265-.72266l-6.8125 1.71875m6.8125-1.71875L189 348.13671m-2.64063-1.5664l.82422.90625m13.46094-1.24219l-6.76953 1.88672m6.76953-1.88671l1.6914 1.77734m-2.67577-1.5039l1.6914 1.77734M213.88672 346l-6.6211 2.35547M213.88673 346l1.8086 1.65625m-2.77345-1.3125L214.73438 348m12.0625-2.79688l-5.8125 3.95313m5.8125-3.95313l2.16797 1.14063m-3.01562-.5664l1.08594.5703m12.83984-1.45312l-5.33984 4.5664m5.33984-4.5664l2.28516.89844m11.51172-.17188l-6.30079 3.11329m6.30078-3.11329l1.9922 1.4336m11.44921-1.14453l-6.55469 2.53515m5.60157-2.16406l.92578.80078m13.57422.26563l-7.01953-.33594m6 .28515l.52343 1.10938m13.78516-1.6914l-6.96485.92577m5.94922-.78906l.71485.9961m13.21094-2.36329l-6.15625 3.38672m5.26171-2.89453l1.02344.67188m13.21094 2.17187l-6.20703-3.28515m5.30469 2.80859l.0039 1.22656m14.40235-1.16015l-6.58204-2.46094m6.58204 2.46094l.3203 2.42968m13.19532-4.03515l-6.98438.7461m5.96875-.63673l.6875 1.01563m12.6211-3.25l-4.9414 4.9961m4.22265-4.26954l1.17578.35156m11.8125-1.79297l-2.85156 6.42579m2.4375-5.48829l1.22265-.08984m12.11329-.99219l-2.06641 6.71485m2.0664-6.71485l2.41016-.46484m12.28906 1.27344l-4.83203 5.09765m4.1289-4.35547l1.1836.32813m13.88281.88281l-6.92578 1.1914m6.92579-1.1914l1.5 1.9414m11.5039-2.89452l-6.30469 3.09765m6.3047-3.09765l1.98827 1.4375m11.27735-1.53516l-6.20704 3.29297m6.20704-3.29297l2.03125 1.3711m-2.9336-.89454l1.01563.6875m13.10937-1.32422l-6.02344 3.61329m6.02344-3.61329l2.10547 1.26563m-2.98047-.74219l1.05078.63281m13.20704-1.03906l-6.16016 3.3789"/><g clip-path="url(#U)"><path fill="none" stroke="#000" stroke-linecap="round" stroke-linejoin="round" stroke-miterlimit="10" stroke-width=".5" d="M466.64063 345.48828l2.05468 1.34375"/></g><path fill="none" stroke="#000" stroke-linecap="round" stroke-linejoin="round" stroke-miterlimit="10" stroke-width=".5" d="M465.7461 345.98047l1.02734.67187"/><g clip-path="url(#V)"><path fill="none" stroke="#000" stroke-linecap="round" stroke-linejoin="round" stroke-miterlimit="10" stroke-width=".5" d="M146.23828 336.57031l-4.47656-5.41797"/></g><path fill="none" stroke="#000" stroke-linecap="round" stroke-linejoin="round" stroke-miterlimit="10" stroke-width=".5" d="M146.23828 336.57031l-.9375 2.26953m15.3086-3.7578l-6.58985-2.4375m6.58984 2.4375l.33204 2.42968m13.14453-4.27344l-6.91406 1.25m6.91406-1.25l1.51953 1.92578m-2.52344-1.7461l.75781.96485m13.60938-.77344l-7.00781.50782m7.0078-.50781l1.3047 2.07421m-2.32422-2l.65234 1.03516m13.46875-2.08594l-6.58203 2.46094m6.58203-2.46094l1.83984 1.625m-2.79687-1.26953l1.83984 1.625m12.3086-2.26953l-6.33594 3.03906m6.33594-3.03906l1.97656 1.45313m-2.89844-1.01172l1.97656 1.45312m-2.89843-1.01172l.98828.72656m13.5664-2.49218l-5.125 4.80469m5.125-4.8047l2.32032.78907m-3.0664-.08984l1.16015.39453m11.82812-1.875l-2.98047 6.36328m2.98047-6.36328l2.44922-.1211m-2.88281 1.04688l1.22656-.0586m10.73047-1.18359l.60156 7m-.51172-5.98047l1.02735-.66797m9.60156 1.16016l5.79688 3.97266m-4.95313-3.39454l.13672-1.21875m15.11328 6.14063l.24219-7.02344m-.20703 6l-1.10547.53906m17.3086-.91015l-5.60938-4.23438m4.79297 3.6172l-.19141 1.21093m14.19922-.4375l-5.35938-4.54688m5.35938 4.54688l-.52735 2.39844m14.38282-3.26954l-6.44141-2.80859m6.4414 2.8086l.19141 2.44921m-1.1289-2.85546l.1914 2.4453m14.30469-2.86327l-6.92969-1.15625m6.92969 1.15625l.78125 2.32421m-1.78906-2.49218l.78125 2.32422m13.5586-2.25391l-6.96095-.96094m6.96094.96094l.84375 2.30078m12.1211-1.1836l-6.26172-3.1953m16.99609-1.8711l-1.10156 6.9375m15.9961-6.26172l-4.25782 5.58594m4.25781-5.58594l2.42188.39453m-3.04297.41797l1.21094.19922m13.32421-.4336l-5.45703 4.4297m4.66406-3.78516l1.12891.47656m12.92969 3.36719l-5.35547-4.54688m5.35547 4.54688l-.52735 2.39844m13.97266-2.5625L420.8086 331.75m5.6172 4.22266l-.38282 2.42578m14.38672-4.20703l-6.9961-.65625m6.9961.65625l.94531 2.26171m-1.96484-2.35937l.47265 1.13281m13.11328-3.55469L447.5 336.0547m5.4961-4.38281l2.25.97656m-3.05079-.33985l2.25.97657m-3.05078-.33594l1.125.48828m13.6211-1.96094l-5.16016 4.76953"/><g clip-path="url(#W)"><path fill="none" stroke="#000" stroke-linecap="round" stroke-linejoin="round" stroke-miterlimit="10" stroke-width=".5" d="M466.14063 331.47656l2.3164.8086"/></g><path fill="none" stroke="#000" stroke-linecap="round" stroke-linejoin="round" stroke-miterlimit="10" stroke-width=".5" d="M465.39063 332.17188l2.3164.80859m-3.0664-.11328l1.15625.40234"/><g clip-path="url(#X)"><path fill="none" stroke="#000" stroke-linecap="round" stroke-linejoin="round" stroke-miterlimit="10" stroke-width=".5" d="M146.94531 322.46094l-5.89062-3.82813"/></g><path fill="none" stroke="#000" stroke-linecap="round" stroke-linejoin="round" stroke-miterlimit="10" stroke-width=".5" d="M146.94531 322.46094l-.21484 2.44531m-.64063-3l-.10937 1.22266m14.63281-1.3672l-6.59375-2.42577m6.59375 2.42578l.33203 2.42969m13.1836-3.96094l-6.9961.63281m6.9961-.63281l1.34375 2.05469m11.48047-3.5547l-6.01563 3.63282m5.14063-3.10156l1.05078.6289m12.60937-1.83203l-4.95703 4.98047m4.23438-4.25781l1.17578.35547m13.46484-.27735l-6.16016 3.37891m6.16016-3.3789l2.05078 1.34375m-2.94922-.85157l1.02735.67188m12.68359-1.86328l-5.15625 4.77343m5.15625-4.77343l2.3164.80859m-3.0664-.11328l1.16016.40234m12.58984-1.39844l-4.52734 5.375m4.52734-5.375l2.39844.51563m-3.0586.26563l1.19922.2578m12.54688-1.21484l-4.0664 5.73047m4.0664-5.73047l2.4336.3125m6.7539 5.375l4.1875-5.64453m9.70312 5.98828l3.03906-6.33593m-3.03906 6.33593l-2.45312.10157m18.27344.10546l-1.97266-6.74609m1.97265 6.7461l-1.7578 1.71093m1.46874-2.69531l-.875.85938m15.53906-.39063l-4.09375-5.71484m4.09375 5.71484l-1.09375 2.19531m.4961-3.02734l-1.08985 2.19531M320.29688 322l-6.40234-2.90234M320.29688 322l.15234 2.44922m-1.08594-2.8711l.15625 2.44532m14.375-3.9375l-6.96484.92578m6.96484-.92578l1.42578 1.9961m-2.4414-1.86329l.71484 1m13.01172-2.6875l-5.75781 4.03125m5.7578-4.03125l2.1836 1.11719m-3.02344-.52735l1.09375.5547m12.79688-1.47657l-5.23047 4.69531m5.23047-4.69531l2.30469.84375m11.73437.40625l-6.67578 2.19922m6.67578-2.19922l1.76953 1.69922m10.85547-2.91016l-5.29687 4.61719m5.29687-4.61719l2.29297.875m-3.0625-.20312l2.28906.875m12.17579-1.01954l-6.0586 3.56641m6.0586-3.5664l2.08984 1.28125m-2.97266-.76172l1.04688.64062m12.84375 2.84375l-5.44531-4.4414m5.4453 4.4414l-.47656 2.40625m11.42579-1.13281l-.71094-6.99219m.71094 6.99219l-2.03907 1.36719m12.26563-2.65235l5.46484-4.41797m11.51953-1.17968l-1.875 6.77343m1.875-6.77343l2.39844-.53125m-2.67187 1.51953l1.19921-.26563m13.53907-.16015l-4.17188 5.65234"/><g clip-path="url(#Y)"><path fill="none" stroke="#000" stroke-linecap="round" stroke-linejoin="round" stroke-miterlimit="10" stroke-width=".5" d="M465.64844 317.72266l2.42578.35937"/></g><path fill="none" stroke="#000" stroke-linecap="round" stroke-linejoin="round" stroke-miterlimit="10" stroke-width=".5" d="M465.04297 318.54297l2.42578.35937m-3.03516.46485l2.42579.35937"/><path fill="#00f" fill-rule="evenodd" d="M392.67578 467.64844h8.6211V457.5039h-8.6211v10.14453"/><path fill="azure" fill-rule="evenodd" d="M394.51172 459.33594h.83203v2.82422h3.28516v-2.82422h.83203v6.48047h-.83203v-2.91797h-3.28516v2.91797h-.83203v-6.48047"/><path fill="#ff3030" fill-rule="evenodd" d="M202.52344 449.89453h7.6914V439.75h-7.6914v10.14453"/><path fill="azure" fill-rule="evenodd" d="M204.35547 441.58203h.83203v5.73828h3.19531v.74219h-4.02734v-6.48047"/><path fill="#00f" fill-rule="evenodd" d="M388.23828 436.57813h8.61719v-10.14454h-8.61719v10.14454"/><path fill="azure" fill-rule="evenodd" d="M390.07031 428.26563h.83594v2.82421h3.28516v-2.82421h.83203v6.48046h-.83203v-2.91406h-3.28516v2.91406h-.83594v-6.48046"/><path fill="#00f" fill-rule="evenodd" d="M224.01953 418.82813h8.61719v-10.14844h-8.61719v10.14844"/><path fill="azure" fill-rule="evenodd" d="M225.85156 410.51172h.83594v2.82422h3.28516v-2.82422h.83203v6.48047h-.83203v-2.91406h-3.28516v2.91406h-.83594v-6.48047"/><path fill="#00f" fill-rule="evenodd" d="M370.48438 401.07422h8.62109v-10.14844h-8.6211v10.14844"/><path fill="azure" fill-rule="evenodd" d="M372.3164 392.76172h.83594v2.82031h3.28516v-2.82031h.83203v6.47656h-.83203v-2.91406h-3.28516v2.91406h-.83593v-6.47656"/><path fill="#ff3030" fill-rule="evenodd" d="M304.60547 387.75781h7.6914v-10.14453h-7.6914v10.14453"/><path fill="azure" fill-rule="evenodd" d="M306.4375 379.44531h.83203v5.73828h3.19531v.7422h-4.02734v-6.48048"/><path fill="#ff3030" fill-rule="evenodd" d="M206.96094 365.5664h7.6914v-10.14452h-7.6914v10.14453"/><path fill="azure" fill-rule="evenodd" d="M208.79297 357.2539h.83203v5.73829h3.19531v.74219h-4.02734v-6.48047"/><path fill="#ffffe0" fill-rule="evenodd" d="M311.9375 348.04297h22.17969v-10.1914H311.9375v10.1914"/><path fill-rule="evenodd" d="M315.4375 339.6836h.50781v6.29687h-.78515v-4.49219h-1.39063v-.55469l.5625-.0625.25-.05468.23047-.08985.20313-.14062.17578-.21094.14062-.29297.10547-.39844m4.8125 0l.23047.01954.21875.05468.20703.08985.19531.12109.1875.15234.16797.17579.30469.41796.24219.4922.17968.54687.11329.57812.03515.59375-.03515.59375-.11329.58203-.17968.55469-.2422.5-.30468.42969-.16797.17969-.1875.15234-.19531.125-.20703.08984-.21875.0586-.23047.01953-.23047-.01953-.21875-.0586-.20703-.08984-.19531-.125-.1836-.15235-.17187-.17968-.30078-.42969-.2461-.5-.17968-.55469-.10938-.58203-.03906-.59375H319l.03125.5625.08203.5039.125.44532.16016.375.1914.30078.21094.21875.22266.13672.22656.04688.22656-.04688.22266-.13672.21094-.21875.1914-.30078.16016-.375.1289-.44531.08204-.5039.02734-.5625-.02734-.5625-.08204-.5-.1289-.4336-.16016-.36719-.1914-.29297-.21094-.21484-.22266-.1289-.22656-.04688-.22656.04687-.22266.1289-.21094.21485-.1914.29297-.16016.36719-.125.4336-.08203.5-.03125.5625h-.83203l.03906-.59376.10938-.57812.17968-.54688.2461-.49219.30078-.41796.17187-.17579.1836-.15234.19531-.1211.20703-.08984.21875-.05469.23047-.01953m5.09375 0h.50781v6.29688h-.78906v-4.49219h-1.38672v-.55469l.5586-.0625.2539-.05468.23047-.08985.20313-.14062.17187-.21094.14063-.29297.10937-.39844m2.82031 2.17579h.78906l.01954-.31641.05859-.28516.09766-.2539.14062-.21485.1836-.17187.22265-.1289.26563-.08204.30859-.02734.23438.02343.22656.0625.20312.10157.17969.13671.14844.17188.11328.20703.07031.23438.02735.26562-.02344.26953-.0664.22266-.10938.19531-.15625.16797-.19922.16406-.2461.16406-.63671.39063-.53516.3125-.4375.3164-.34766.32423-.26172.33593-.1914.35156-.125.3711-.07031.39062-.01954.42188h4.21094v-.74219h-3.33203l.08203-.28515.11328-.23438.14844-.20313.1875-.17968.23047-.17188.28125-.17578.71484-.41406.41797-.20703.34375-.23047.28125-.25.21875-.26953.16406-.27735.10938-.28515.0664-.28516.01954-.28125-.04297-.38281-.1211-.34766-.1875-.3086-.25-.26171-.30078-.21094-.34765-.16015-.37891-.09766-.40625-.03516-.4375.03516-.39844.09766-.35547.16796-.30468.23438-.2461.30078-.1875.375-.11328.44531-.04297.51954"/><path fill="#ffffe0" fill-rule="evenodd" d="M439.38672 435.27344h22.17969v-10.1914h-22.1797v10.1914"/><path fill-rule="evenodd" d="M442.88672 426.91406h.50781v6.29688h-.78515v-4.49219h-1.38672v-.55469l.55859-.0625.25-.05469.23047-.08984.20312-.14062.17579-.21094.14062-.29688.10547-.39453m4.8125 0l.23047.01953.21875.0547.20703.08983.19922.1211.1836.14844.17187.17578.30078.42187.24219.49219.17968.54688.11328.57812.03907.59375-.03907.59375-.11328.58203-.17969.55469-.24218.5-.30078.42969-.17188.17968-.1836.15235-.19921.125-.20703.08984-.21875.0586-.23047.01953-.22656-.01954-.21875-.05859-.21094-.08984-.19531-.125-.1836-.15235-.17187-.17968-.30078-.4297-.2422-.5-.17968-.55468-.11328-.58203-.03906-.59375h.83203l.03125.5625.08203.5039.125.44532.16406.375.1875.30078.21094.21875.22266.13672.22656.04687.22656-.04687.22266-.13672.21094-.21875.1914-.30078.16406-.375.125-.44531.08204-.50391.02734-.5625-.02735-.5625-.08203-.5-.125-.4375-.16406-.36328-.1914-.29297-.21094-.21484-.22266-.13282-.22656-.04296-.22656.04296-.22266.13282-.21094.21484-.1875.29297-.16406.36328-.125.4375-.08203.5-.03125.5625h-.83203l.03906-.59375.11328-.57813.17969-.54687.24219-.49219.30078-.42187.17187-.17578.1836-.14844.1953-.1211.21095-.08984.21875-.05469.22656-.01953m5.09375 0h.50781v6.29688h-.78515v-4.49219H451.125v-.55469l.5625-.0625.25-.05469.23047-.08984.20312-.14062.17579-.21094.14062-.29688.10547-.39453m2.82422 2.17578h.78515l.01954-.3164.05859-.28516.10156-.2539.14063-.21485.17968-.17187.22266-.12891.26563-.08203.30859-.02735.23828.01954.22266.0625.20312.10156.17969.14062.14844.17188.11328.20703.07031.23438.02734.26562-.02343.26953-.0625.22266-.11329.1914-.15234.17188-.20312.16406-.2461.16406-.63281.39063-.53906.3125-.4375.3164-.34766.32422-.26172.33594-.1914.35156-.125.3711-.07032.39062-.01953.42188h4.21094v-.74219h-3.33203l.08594-.28516.11328-.23437.14844-.20313.18359-.17968.23437-.17188.27735-.17578.71484-.41406.41797-.20703.34375-.23047.28125-.25.21875-.26953.16406-.27735.11328-.28515.0625-.28516.01954-.28125-.04297-.38281-.1172-.34766-.1914-.3086-.25-.26171-.30078-.21094-.34765-.16015-.37891-.09766-.40625-.03516-.4375.03516-.39453.09765-.35547.16407-.30469.23828-.25.30078-.1836.375-.11718.44531-.03906.51953"/><path fill="#ffffe0" fill-rule="evenodd" d="M161.95313 348.04297h22.17968v-10.1914h-22.17969v10.1914"/><path fill-rule="evenodd" d="M165.45313 339.6836h.51171v6.29687h-.78906v-4.49219h-1.38672v-.55469l.5586-.0625.25-.05468.23047-.08985.20312-.14062.17578-.21094.14063-.29297.10547-.39844m4.8125 0l.23046.01954.21875.05468.20703.08985.19922.12109.1836.15234.17187.17579.30078.41796.2422.4922.17968.54687.11328.57812.03906.59375-.03906.59375-.11328.58203-.17969.55469-.24219.5-.30078.42969-.17187.17969-.1836.15234-.19922.125-.20703.08984-.21875.0586-.23047.01953-.22656-.01953-.21875-.0586-.21094-.08984-.1953-.125-.1836-.15235-.17188-.17968-.30078-.42969-.24219-.5-.17968-.55469-.11328-.58203-.03907-.59375h.83594l.02734.5625.08204.5039.125.44532.16406.375.1914.30078.21094.21875.22266.13672.22266.04688.22656-.04688.22265-.13672.21094-.21875.1914-.30078.16407-.375.125-.44531.08203-.5039.02734-.5625-.02734-.5625-.08203-.5-.125-.4336-.16406-.36719-.1914-.29297-.21095-.21484-.22265-.1289-.22656-.04688-.22266.04687-.22266.1289-.21094.21485-.1914.29297-.16406.36719-.125.4336-.08203.5-.02735.5625h-.83594l.03907-.59376.11328-.57812.17969-.54688.24218-.49219.30078-.41796.17188-.17579.1836-.15234.1953-.1211.21094-.08984.21875-.05469.22656-.01953m5.09375 0h.50782v6.29688h-.78516v-4.49219h-1.39062v-.55469l.5625-.0625.25-.05468.23047-.08985.20312-.14062.17578-.21094.14063-.29297.10547-.39844m2.82421 2.17579h.78516l.01953-.31641.0586-.28516.10156-.2539.14062-.21485.17969-.17187.22266-.1289.26562-.08204.3086-.02734.23828.02343.22265.0625.20313.10157.17969.13671.14843.17188.11328.20703.07422.23438.02344.26562-.02344.26953-.0625.22266-.11328.19531-.15234.16797-.20313.16406-.2461.16406-.6328.39063-.53907.3125-.4375.3164-.34765.32423-.26172.33593-.1914.35156-.125.3711-.06641.39062-.02344.42188h4.21094v-.74219h-3.33203l.08593-.28515.11328-.23438.14844-.20313.1875-.17968.23047-.17188.27734-.17578.71875-.41406.41407-.20703.34375-.23047.28125-.25.21875-.26953.16406-.27735.11328-.28515.0625-.28516.01953-.28125-.03906-.38281-.1211-.34766-.1914-.3086-.25-.26171-.30078-.21094-.34766-.16015-.3789-.09766-.40625-.03516-.4336.03516-.39844.09766-.35547.16796-.30468.23438-.25.30078-.1836.375-.11718.44531-.03907.51954"/></g></defs><use xlink:href="#Z"/></svg>