<svg xmlns="http://www.w3.org/2000/svg" role="img" xmlns:xlink="http://www.w3.org/1999/xlink" viewBox="142.45 309.95 326.84 171.84"><defs><clipPath id="a"><path d="M144 311.67188h1v168.65625h-1zm0 0"/></clipPath><clipPath id="b"><path d="M144 311.67188h324v168.65625H144zm0 0"/></clipPath><clipPath id="c"><path d="M467 311.67188h1v168.65625h-1zm0 0"/></clipPath><clipPath id="d"><path d="M144 477h3v3.32813h-3zm0 0"/></clipPath><clipPath id="e"><path d="M153 478h8v2.32813h-8zm0 0"/></clipPath><clipPath id="f"><path d="M159 479h2v1.32813h-2zm0 0"/></clipPath><clipPath id="g"><path d="M166 479h9v1.32813h-9zm0 0"/></clipPath><clipPath id="h"><path d="M172 479h3v1.32813h-3zm0 0"/></clipPath><clipPath id="i"><path d="M180 479h8v1.32813h-8zm0 0"/></clipPath><clipPath id="j"><path d="M194 477h6v3.32813h-6zm0 0"/></clipPath><clipPath id="k"><path d="M207 478h7v2.32813h-7zm0 0"/></clipPath><clipPath id="l"><path d="M220 479h8v1.32813h-8zm0 0"/></clipPath><clipPath id="m"><path d="M226 480h1v.32813h-1zm0 0"/></clipPath><clipPath id="n"><path d="M233 478h8v2.32813h-8zm0 0"/></clipPath><clipPath id="o"><path d="M246 479h9v1.32813h-9zm0 0"/></clipPath><clipPath id="p"><path d="M253 480h2v.32813h-2zm0 0"/></clipPath><clipPath id="q"><path d="M260 479h8v1.32813h-8zm0 0"/></clipPath><clipPath id="r"><path d="M273 478h8v2.32813h-8zm0 0"/></clipPath><clipPath id="s"><path d="M286 479h9v1.32813h-9zm0 0"/></clipPath><clipPath id="t"><path d="M293 480h2v.32813h-2zm0 0"/></clipPath><clipPath id="u"><path d="M300 478h8v2.32813h-8zm0 0"/></clipPath><clipPath id="v"><path d="M313 478h8v2.32813h-8zm0 0"/></clipPath><clipPath id="w"><path d="M326 478h8v2.32813h-8zm0 0"/></clipPath><clipPath id="x"><path d="M340 479h8v1.32813h-8zm0 0"/></clipPath><clipPath id="y"><path d="M353 479h8v1.32813h-8zm0 0"/></clipPath><clipPath id="z"><path d="M360 480h2v.32813h-2zm0 0"/></clipPath><clipPath id="A"><path d="M366 479h9v1.32813h-9zm0 0"/></clipPath><clipPath id="B"><path d="M372 480h2v.32813h-2zm0 0"/></clipPath><clipPath id="C"><path d="M380 479h8v1.32813h-8zm0 0"/></clipPath><clipPath id="D"><path d="M385 479h3v1.32813h-3zm0 0"/></clipPath><clipPath id="E"><path d="M393 479h8v1.32813h-8zm0 0"/></clipPath><clipPath id="F"><path d="M399 479h2v1.32813h-2zm0 0"/></clipPath><clipPath id="G"><path d="M406 478h8v2.32813h-8zm0 0"/></clipPath><clipPath id="H"><path d="M412 479h2v1.32813h-2zm0 0"/></clipPath><clipPath id="I"><path d="M420 478h7v2.32813h-7zm0 0"/></clipPath><clipPath id="J"><path d="M425 478h3v2.32813h-3zm0 0"/></clipPath><clipPath id="K"><path d="M433 480h8v.32813h-8zm0 0"/></clipPath><clipPath id="L"><path d="M439 480h2v.32813h-2zm0 0"/></clipPath><clipPath id="M"><path d="M446 478h8v2.32813h-8zm0 0"/></clipPath><clipPath id="N"><path d="M460 478h7v2.32813h-7zm0 0"/></clipPath><clipPath id="O"><path d="M144 464h3v6h-3zm0 0"/></clipPath><clipPath id="P"><path d="M144 451h3v6h-3zm0 0"/></clipPath><clipPath id="Q"><path d="M144 437h3v7h-3zm0 0"/></clipPath><clipPath id="R"><path d="M144 424h4v6h-4zm0 0"/></clipPath><clipPath id="S"><path d="M144 412h4v3h-4zm0 0"/></clipPath><clipPath id="T"><path d="M144 399h4v3h-4zm0 0"/></clipPath><clipPath id="U"><path d="M144 383h2v8h-2zm0 0"/></clipPath><clipPath id="V"><path d="M144 370h2v8h-2zm0 0"/></clipPath><clipPath id="W"><path d="M466 371h2v3h-2zm0 0"/></clipPath><clipPath id="X"><path d="M144 358h4v5h-4zm0 0"/></clipPath><clipPath id="Y"><path d="M466 358h2v2h-2zm0 0"/></clipPath><clipPath id="Z"><path d="M144 345h4v4h-4zm0 0"/></clipPath><clipPath id="aa"><path d="M466 345h2v3h-2zm0 0"/></clipPath><clipPath id="ab"><path d="M144 330h2v8h-2zm0 0"/></clipPath><clipPath id="ac"><path d="M466 332h2v3h-2zm0 0"/></clipPath><clipPath id="ad"><path d="M144 316h1v9h-1zm0 0"/></clipPath><clipPath id="ae"><path d="M466 318h2v3h-2zm0 0"/></clipPath><clipPath id="af"><path d="M465 319h3v3h-3zm0 0"/></clipPath><g id="ag" clip-path="url(#clip1)"><path fill="#fff" fill-opacity="0" fill-rule="evenodd" d="M0 0h1000v1000H0zm0 0"/><path fill="#d3d3d3" fill-opacity="0" fill-rule="evenodd" d="M162.15234 355.86719l-.23437.29297.0586.23437.11718.17188.17578.23437.29297.34766.11328.0586.11719-.17188.0586-.23438.17577-.17578.46485-.17578h.69922l.23437.29297.28906.8164.0586.17579.17578.23046.35156.23438.69922.69922.17188.17578.23437.34765.23438.41016.28906.58203.41015.46485.23047.23437.23438.17578.11719.23047.17578.29297.17187 1.16406v.23438l.0586.28906.05859.11719.11719.11719.34765.41015.11719.17188.17578.17578.17578.23437.11719.17188.17188.35156.05859.23438.23437.40625.23438-.0586-.17578.17578-.0586.92969h-.58203l-.23437-.11328-.34766.11328-.11719.11719-.05859.29297-.0586.17578-.11718.17187-.46484.29297-.0586.23438-.0586.11328v.64453l.0586.17187v.41016l.0586.0586v.40624l.05859.40625.11719.17579.05859.05859.23047.64062-.0586.29297v.69922l-.05859.58203v.23438l-.0586.23047-.05468.35156v1.92187l.05469.1172h.42578l-.36719.11718-.02344.35156.89063 1.16797 1.74219.53906 1.33984.35938v.53906l.08984.8086.53516.71484 1.51953.26953.89063-.08594.08984 1.16406.53516.1797 1.16015-.1797 2.05469-.98437 1.16016-.36328 1.8789-.17578 1.69531-.1797-.17968.71876-1.51563.08594-1.25.08984-.80469.26953-1.07421.8086.26953.71875.53515.89843-.17968.625-.26563.8086.26563 1.07812.625.89844.80468.17969 1.25-.1797-.26562.72267.09766.5039.05468.29297v.17188l.0586.29296v.40625l.17578.1172.35156.11718h.40625l.29297-.17578.11328-.11719.0586-.11719.11718-.23047.0586-.17578.35156-.46484.23047-.17578.17578-.0586.17578.0586.0586.17578.11718.98828.05469.46875.0586.17188.11718.23437.17578.0586.8164.05859h.28907l.11719.23437.05859.40625.0586.35156v1.10547l.11718.29297.11719.34766.28906.69922.17578.35156.58203.7539.35157.17579.17187.0586.46875.23437.64063.46484.34765.23438.29297.17578.29297.05468.23047.0625.8164.34766.29297.17578.11328.17188.35157.35156.11719.17578.52343.64063v.28906l.0586.35156v.34766l.05859.35156.0586.28906.11718.0586.17188.05859h.17578l.58203.23437.17578.1172.17578.28905.17578.23438.11328.23437.29297.23047.11719.11719v.41016l.0586.05468.28906.23438.23437.11719.0586.11718.11718.17188.0586.11719.23047.23437.05859.17578.23437.0586.1172.05859-.1172.11328-.05859.11719v.11719l-.11719.29296-.11719.28907v.58203l.17579.11719.11718.05859.0586.11719.11719.11719.11328.05859.17578.34765.0586.35157.05858.40625v.17578l-.05859.17578-.11719.69922v.17187l.1172.17579.29296.29296h.40625l.17578.1172.11719.17187.11719.29296v.23438h-.52735l-.23047-.23438h-.23437l-.17578.0586-.0586.69922.0586.34765.11719.17579.17578.41015.11718.23047.28907.46875.17578.05469h.52344l.23437.0586.75781.64062.0586.29296v.23438l.05859.0586.23047.34765v.35156l-.11719.17188v.29297l.29297.28906.29297.17578.17187.0586.29297.17577.29297.1172.58203.40624.28906.23438.29297.17578.21875.16015.01563.01172.23047.17579.64062.52343.17578.23438.1172.17578.17577.17578.11328.17188v.64062l.1172.17578.46874.11719.58203.11719.23438.05859.23047.11328.29297.11719.11328.0586.58593.35156.28907.17187.17578.0625.17578.05469.17578.0586.69922.35155.28906.17579.23438.05468.28906.17578.23437.1172.64063.40624.29297.11719.17187.0586.23438.05859.41015.05859.23047.0586.23438.11718.0586.17188-.41017.17578.46875.0586.0586.29296.11328.23438.17578.05468.23438.0586.17578.05859.40625.11719.64062.23437.11719.17188.0586.23437v.17578l-.0586.1172-.0586.40624.23438.23438.11719.05859.34766.11719.64062.23047.17578.11718.28906.1172.17578.17577.23438.46485.58203 1.10546.17578.17579.34766.17578.17578.11719.35156.11718 1.04688.52344.23437.0586.46485.11327.29297.0586.46484.17578.75781.58203.23438.23438.34765.46484.17578.17578.28907.23438.8164.69921.29297.17579.28906.28906.29297.17578.29297.28906.69531.64063.17578.17578.29297.23437.28907.23438.46875.28906.64062.58203.34766.23438.23437.29297.34766.34765.35156.46485.9336.99218.34765.40625.11719.17579.23437.05859.11328.11719.64454.17578.23047.11328.23437.0586.29297.17577.23047.1172.9336.69921.40624.40625.23438.17578.40625.17578.23437.11719.8164.34766.34766.23437.23438.11719.29297.28906.23047.11719.7578.35156.35157.17188.23047.05859.29297.11719.23437.0586.8711.17577h.8164l.46875.23047.17188.0586.875.69921.46484.1172.29297.05858.17578.0586.23047.0586.46875.05859.34766.05859.35156.0586.40625.05859h.29297l.17187.0586v.23046l.17578.17578h.29297l.34766.0586.35156.05859.69922.11719h.64063l.46484-.23438.29297-.17578.17187-.11719.41016-.17187.28906-.17578.9336-.46485.46875-.29297.52343-.29296.46485-.17188.46484-.17578 1.05078-.46485.28906-.11718.41016-.11719.28906-.11719.52735-.17578 1.51562-.69922.58203-.34765.28907-.0586.29297-.0586.34765-.11718.875-.23047.35156-.11719h.11329l.23437-.05859.875-.23437.23438-.0586h.8125l.35156-.0586.8164-.11718.17188-.0586.35156-.05468.29297-.0586.23047-.05859.8164-.17578.17579-.0586h.34765l.23438-.05859.46484-.11718.75781-.17188.23438-.0586h.34765l.41016-.11718.28906-.0586 1.28516-.05859h.28906l.41016-.0586.23047-.05858h.17578l.875-.1172h.40625l.41015-.11718h.34766l.35156-.11328.8711-.0586h1.75l1.04687.28907.41016.11719.28906.11718.35156.11719.28907.11719 1.05078.17187.28906.0586h.29297l.29297.05859.17187.0586.41016.05859.17187.0586.1172.05858h.11718l.11719.0586.35156.0586h.11328l.41016.0664 1.92187.39453 1.92578.39453 1.51953.44922 1.69532.71875 2.14453.80469 1.60547-.71875 1.42968-.80469 1.16016-1.07813 1.25-.44921 3.03516-.71875 1.875-.35938 2.14453-1.34765 2.23437-1.25391 2.5-1.25781 1.69531-.44922 1.78516-.17969 1.16016-.26953.625.53906 1.33984-.26953.71485-.98828.98437-1.34375.44531-.17969.80469-.35937 1.875-.53907 1.78516-.44921 1.25-.26954 1.16015-.08984 1.69922-.08984 1.96094-.26954 1.25-.08984h.53906l.625-.08984h.89063l2.14453-.17969 2.41015-.17969 2.58985-.08984 1.69531.17969 1.60938.08984 1.42968.35938 1.16016.71875 1.875.98828 1.16015 1.52734.26563.71484.6289.08985.35548.89844.53515.53906.53516 1.52734 1.07422.35938h.53515l-.80469.53515.08985 1.70703.71484 2.69532.89063.80468.89453.98829.71484 1.2578 1.78516.53907 1.51953-.17969.35547 1.34375 1.60937-.80469.98047-.53906.26953.26953.31641-.21484.21875-.14453.80078.44922.44922-.35938h.35547l.53515-.26953.53907-.71875.53515-.26953.625-.98828 1.16016.44922.83984.3711 1.39454.61718 1.6953-.17969h1.60548l1.78515.08985.17969-1.70704.53516-1.34375.80468.26954.4922.84765.40233.40625-.08984.53906v.35938l.71485.44922.71093-.26953h1.42969l.35938.98828.4453 1.25781.71485 1.34375 1.25.6289 1.69531.62891.71485-.17969.17969-.53906.98046-.08984.44922.35937.08594 1.25782-.26563.6289-.53515.17969v.53906l.71484.98438.26563.53906.98437.98828.80078 1.07813-.26562.35937-.08985.89844-.625 2.33203-.35546 2.0664-.08985 1.79298-.17969.71875-.08984.53906v1.4375l-.98047 1.88281-.35937 1.70703-.53516.89844-.80469 1.16797-.26562.53906 2.05469 1.2539.08593.35938-.35546.53906-.08985-.17968v.80859l.08985 1.4375-.44532.71484-1.07422.09375-.26562.71485.53515.89844.8047.71875 1.16015.80859 1.33984.26953.44531.35938-.35546.44921-1.78907-.08984-1.25-.44922-.71484-.71875-.625-.08984-.17578 3.58984-.1875 1.3086h89.35937V311.70313h-55.26953v49.08203l.76172.125 3.28906.54296 2.02344 2.83594v2.7539l2.35156.33204 2.34766.33203h4.05078l-1.3789 4.16016-2.02344.70703-2.02344.70312-.54297.34375-2.59375 1.6172-.1875.11718-2.02344-2.07813-.73046-2.74218-2.67188-2.07813-1.375-3.5-.0664-.08203-1.95704-2.67188 2.75-1.41796v-49.08204H294.42187v91.41407l.1172.03125.1328.01172.07422.07421.10547.04688.08985.0586.08593.05859.08985.0586.29687.29687.0586.08984.03125.11719.02734.11719.01563.13671-.03125.1172-.0586.08983-.0586.08594-.04296.10547-.04688.10156-.02734.1211v.14453l.17578.26953.14844.14844.07422.08594.07422.07421.04296.10547.0625.08985.0586.08593.04297.10547.0586.08985.04687.10156.04296.10547.0586.08594.11719.17968.07421.07422.0625.08594.0586.08984.04297.10547.0586.08985.05858.08593.0625.08985.0586.08984.04297.10156.11719.17969.07421.07422.0586.08594.07422.07421.08984.0586.10547.04687h.14844l.1328-.01562.13282.01562.10156-.04687.07422-.07422.04688-.10156-.01563-.13281v-.14844l-.04687-.10547-.02735-.11719-.04687-.10156-.02735-.1211-.04296-.10156-.0625-.08984-.04297-.10156-.04297-.10547-.03125-.11719-.01563-.13281-.01171-.13672.08593-.0586.0586-.08593.12109-.03125.04297.10547.01562.1328v.1172l.0586.10156.0586.08984.08983.0586.14844.14843.0586.08985.04296.10547-.01171.10156.08593.0586.10547.04687.08594.0586.08984.05858.07422.07422-.11719.02735-.10546.04687-.08594.0586-.07422.07421-.0586.08985-.0625.08594-.02734.12109-.04687.10156-.04297.10547-.03125.11719-.01172.13281-.01563.13281v.14844l.02735.11719.04687.10547.04297.10156.0586.08984.07421.07422.08985.0586.07422.07421.08984.0586.0586.08984.04296.10547.04688.10156.11719.03125.1328.01563h.14845l.11718-.03125.10547.04297.04297.10547.04688.10156.02734.1211L299.5 410l.02734.11719.03125.1211.02735.11718.10547.04297.10156.04687.13281-.01562.14844.14844.0625.08593.07422.07422.07031.07422.08984.0625.10547.04297.10156.04297.1172.03125.13671.01562.11719-.03125.07422-.07422.02734-.11718-.01172-.13282-.03125-.12109-.02734-.11719.04297-.10547h.11719l.08984.0625.11719.02735h.14843l.13282.01562h.14843l.13282.01563.1328-.01563h.14845l.1328-.01562.13282-.01172.13672.01172.11719-.02735.13281-.01562.1914-.0586-.05859.17579-.01562.1328-.02735.1211-.01562.13281-.0586.08594-.1328.01563-.10548.04687-.10546.04297-.1172.03125-.11718.02735-.26563.03125h-.14843l-.13281.01562-.07422.07422.05859.08594.14844.14843.11719.1797.07421.0703.08985.0625.08984.0586.08594.0586.08984.05858.10156.04297.10547.0625.10547.04297.08594.0586.10547.04687.10156.04297.17969.11719.0586.08984-.04298.10156-.04687.10547.01562.13281.22266.22266.0586.08985.04296.10156.03125.1211.04297.10155.01563.13282.03125.11718.01171.13672.03125.11719.14844.14844.10156.04297.10547.04296.1172.03125.1328.01563.13672.01563h.11719l.11719-.03125.08984-.0586.04297-.10547.04688-.10156.04296-.10547.03125-.11719.01172-.1328v-.14845l-.01172-.1328-.01562-.13282-.03125-.11719-.04297-.10547-.04688-.10547-.04296-.10156-.04297-.10547-.01563-.13281.01563-.13281.02734-.11719.03125-.11719.02735-.1211.04687-.10155.08984-.0586.08594-.0625.07422-.07422.08984-.05859.22266-.22266.0586-.08593.07421-.07422.11719-.17969.0586-.08594v-.14844l-.07423-.07421-.10156-.04688-.10547-.04297-.10156-.04297-.0586-.08984-.04687-.10547-.02734-.11719.08984-.05859.11719-.03125.10156-.04297.17969-.11719.14844-.14843.01172-.13282-.01172-.10546-.08985-.0586-.1328.01563h-.14845l-.1328.01562-.13282-.01562-.1211-.03125-.08593-.0586-.07422-.07422-.0586-.08984-.0625-.08594-.11718-.17969-.0586-.08593.03125-.1211.08594-.05859.1211-.03125.05859-.08594v-.1211l-.03125-.11718-.0586-.08984-.05859-.08594-.04687-.10547-.02735-.11719-.01562-.1328.0586-.08985.07421-.07422.08984-.0586.1172-.17968.07421-.07422.0586-.08594.14843-.14844.1211-.03125.1328-.01562.13282.01562.07422.07422.04297.10547.01562.13281-.03125.1172-.11719.03124-.1328.01172-.14844.14844-.04297.10547-.04688.10156-.02734.1211-.03125.11718v.14844l.03125.11719.04297.10546.05859.08985.07422.07031.07422.07422.11719.03125.12109.02734.11719-.02734.1328-.01563h.1172l.08984.0586.07422.07422.04687.10546.0586.08594.10156.04688.13281.01562.10547.04297.08594.0586-.01172.10546-.07422.07422-.17969.11719-.05859.08984-.08984.0586-.07032.07422-.07421.07421-.0625.08985-.02735.11719-.01562.1328.01562.13282-.01562.13281v.14844l.01562.13281.02735.1172.03125.12108.07421.07422.08985.0586.08594.0586.08984.05858.11719.03125v.08594l-.10157.04688-.08984.0586-.26563.03124-.11718.02735h-.14844l-.10547.04296-.10156.04688-.0586.08984-.0625.23438-.01171.13281-.03125.1211-.01563.1328v.29298l-.01172.1328.01172.13673.01563.1328.1328.01563.13282.01172.1211.03125.08593.0586.07422.07421.04688.10547.04296.10157.01563.1328v.44532l-.01563.13281v.44532l.03125.26562.02735.11719.01562.13281.03125.11719.08594.21094.03125.26562v.14844l-.03125.11719-.02734.11718-.03125.1211-.02735.11719-.03125.11718-.03125.1211-.01171.1328-.01563.13282.08984.0586.1172-.03125.10155.01562.04688.10547-.03125.26562v.44141l-.04297.10547-.04688.10547-.04296.10156-.04297.10547-.0586.08594-.03125.12109-.04296.11719-.03125.11719-.01563.1328.01563.13282.05859.08984.10547.04688.08594.0586.05859.08593-.01172.13672-.03125.11719-.04297.10156v.44531l-.01562.13281v.14844l-.03125.11719-.04297.10547-.02735.11719-.04687.10546-.04297.10157-.03125.12109-.02734.11719-.03125.13281-.03125.11719-.02735.11719-.04297.10546-.03125.1172-.03125.12108-.01171.13282-.01563.13281v.29688l.02734.11718v.14844l.04688.39844.02734.11719.0586.08984.12109.03125h.14844l.13281-.01563.0586.08985v.11719l-.0586.08984-.08984.0586-.10157.04296-.10546.04688-.08985.05859-.08594.0586-.13671.01562-.1172-.03125-.1328-.01563-.10157.04688-.0625.08594-.01172.13671-.01562.13282-.03125.11719-.02735.11718-.01562.13281-.03125.1211v.29687l.01563.13282.03125.11718v.14844l.01171.13281v.14844l-.02734.11719-.04688.10156-.02734.1211-.03125.11718-.0586.08985-.07421.07421-.10156.04297-.10547.04688-.11719.02734-.1211.03125-.10156-.04687.0586-.08594.10547-.04688.02734-.11718.03125-.11719.02734-.1211.03125-.11718v-.14844l.01563-.13281-.03125-.11719-.04297-.10547-.10547.01563-.07422.07422-.10156.04296-.08984.0625-.07422.07422-.04297.10157-.01563.1328-.03125.1172L304.25 426l-.03125.11719-.02734.11719-.03125.12109-.02735.11719-.03125.11718-.04297.10547-.08984.0586h-.08984l-.1172-.03125-.03124-.08594.01562-.13672-.03125-.11719v-.14844l-.01171-.1328v-.14844l-.0625-.23438-.02735-.1211-.04297-.10156-.04687-.10546-.0586-.08594-.05859-.08985-.04297-.10546-.0625-.08594-.14844-.14844-.0703-.07422-.10548-.04687-.10547-.04297-.10156-.04297-.29687-.29688-.08985-.07421-.08594-.0586-.10546-.04297-.08985-.0625-.08594-.0586-.10546-.04296-.08985-.0586-.08594-.0625-.07421-.0703-.10547-.04688-.08594-.0586-.10547-.04296-.08984-.0625-.10156-.04297-.10547-.04297-.08594-.0586-.10547-.04687-.10547-.04297-.10156-.04687-.08985-.0586-.10156-.04297-.10547-.04296-.08984-.0625-.11719-.02735-.13281-.01562-.13281.01562H299.75l-.13281.01563-.11719-.03125-.08984-.0586-.07422-.07422-.08985-.05859-.10156-.04688h-.14844l-.12109-.02734-.10156-.04297-.07422-.07422-.11719-.17968-.08984-.0586-.10156-.04297-.08985-.0625-.10547-.04296-.08984-.0586-.08594-.0586-.10547-.04687-.0586-.08594-.05858-.08984-.04297-.10547-.04688-.10156-.07422-.07422-.08594-.0586-.07421-.07421-.08985-.0586-.22265-.22265-.04297-.10547-.03125-.26563.10547-.04296h.14453l.10547.04296.07421.07422.08985.0586.08594.0586.10546.04687.08985.05859.14844.14844.0703.07422.14845.14843.0625.08594.07421.07422.08594.0586.07422.07421.08985.0625.08984.0586.08594.05859.26953.17578.10156.04688.10547.04296.10156.04297.04688-.07421.05859-.08594.07422-.07422.07031-.07422.10547.04297.07422.07422.0586.08984.04296.10156.04688.10547.04296.10547.1211.02735.11719-.02735.07421-.08984.04297-.10547.0586-.08985.07422-.07421.10546-.04297.1172-.02735.1328.01172.08985.0586.14844.14843.05859.08985.04297.10547.04687.10156.04297.10547.04297.10156.10547.04688.10547.04296.13281.01563.08594-.0586.0586-.08984.07421-.07422.10547-.04297.11719.02735.10547.04687.10156.04297.10547.04297.10156.04688.17969.11718v.11719l-.01563.13281.01563.13281.01562.13672.0586.08594.10156.04688.1211.02734.11718.03125h.14844l.11719-.03125.05859-.08984.17969-.1172.05859-.08983.07422-.07422.0586-.08594.11718-.17969.17969-.11719.11719.03125.08984.0586.04297.07422-.01563.1328v.1172l.08985.05859h.14843l.13282-.01563.1328-.01171.26563-.03125.10547-.04297.11719-.03125.1211-.02735.07421-.07421.07031-.07422.0625-.08985-.01562-.10547-.04688-.10156-.10156-.04297-.10547-.01562-.11718.02734-.26563.03125h-.14844l-.07421-.07422-.08985-.0586-.11719-.03124-.11718-.02735-.13282-.01562h-.14843l-.13282.01563h-.29687l-.10547-.04688-.14844-.14844-.04297-.10156-.05859-.08984.22266-.22266.08593-.0586.10547-.04296.11719-.03125.13281-.01563.13281.01563.13672.01562.10157.04297.1328-.01172.08985-.0625.10156-.04297.0625-.08984-.04687-.10156-.08984-.0586-.1172-.03125-.10155-.04296-.0586-.08985-.0625-.08984v-.11719l.01563-.13281.10547-.04688.07421-.07031v-.1211l-.08984-.05859-.03125-.11719.08985-.05859.07421-.07422.04297-.10547.0586-.08984.04687-.10156.01563-.13281v-.14844l-.04688-.10547-.04297-.10156-.08984-.0586-.13281-.01562-.10157-.04297-.13671-.01563-.1172-.03125h-.4453l-.13282-.01562-.13281-.01172-.13281-.01563-.11719-.03125h-.14844l-.13281-.01562-.13281-.01172-.26563-.03125-.1211-.04297-.08593-.0586-.07422-.07421v-.14844l.01172-.13281.10547-.04688.10156-.04296.13281-.01563h.15235l.13281-.01562h.29297l.1211.03125.10156.04296.08984.0586.23438.0625.12109-.04688.08984-.05859.10156-.04297.13282-.01562.10547.04296.10156.04688.13281.01172.1211-.02735h.14453l.12109-.03125.11719-.02734.10547-.04687.07421-.07422.08594-.0586.14844-.14843.0586-.08594.04687-.10547.02734-.11719.01563-.10547-.10156-.04296-.08985-.0586-.11719-.03125-.10546-.04297-.08985-.0625-.07422-.08594-.07422-.07421-.10156-.04297-.10547-.04688-.10156-.04297-.0586-.08984-.04687-.10156-.08594-.21094-.0625-.08594-.05859-.08984-.07422-.07422-.08594-.0586h-.26953l-.11719.03126-.08984.05859-.10156.04297-.13281.01562-.10547-.01562-.02735-.11719-.0625-.08984-.11718-.03125-.10157-.04297-.14843-.14844-.03125-.11719-.01563-.10546.07422-.07422.17969-.1172.11719-.02733.11718-.03125.13672.01562.10156.04297.10547.04297.10156.04687.10547.04297.1172.03125.1328.01563.1172.02734.1328.01563.10547-.01563.08985-.0586-.07422-.07421-.10547-.04297-.07422-.07422-.07422-.08984-.14844-.14844-.08593-.0586-.08985-.05859-.07422-.07422-.08984-.0586-.10156-.04687-.1211-.02734-.10156-.04688-.10547-.04296-.11719-.03125-.10156-.04297-.1211-.03125h-.14843l-.11719.03125-.10546.04297-.08594.0625-.17969.11718-.08594.0586-.08984.0586-.10547.04687-.08594.05859-.10547.04297-.10156.04297-.10547.04687-.07422.07422-.05859.08985-.0586.08593-.04687.10547-.0586.08594-.07421.07422-.13281-.01172-.1172-.03125h-.11718l-.07422.07422-.08984.0586-.07422.07421-.08984.0586-.08594.05859-.10547.04687-.10156.04297-.13672.01563-.10156-.04297-.14844-.14844-.10547-.04688h-.08594l-.10547.04688-.10156.04297-.1211.03125-.11718-.03125-.07422-.07422v-.11719l.03125-.1211.07422-.0703.0586-.08985.07421-.07422.11719-.03125.10547-.04296h.29297l.13281-.01563.13672-.01563.10156-.04296.08985-.0586.10156-.04687.08984-.0586.13281-.01171.08985.05859.13281.01172.08984-.0586.08594-.05859.10547-.04297.08984-.0586.08594-.0625.08985-.05859.14843-.14843.0586-.08594.05859-.08985.10547-.04296.13281-.01563.11719.02735.1211.03125.05859-.0586.05859-.08984.03125-.26563.02734-.11719.10547.01172.13281.01563.10157-.04297.08984-.0586.0586-.08984.07421-.07422.0586-.08984.04687-.10156.01172-.13281-.01172-.13282-.04687-.10547-.14844-.14843-.0586-.08985-.05859-.08594-.04297-.10546v-.44532l.01563-.1328v-.14845l.01172-.1328-.0586-.0586-.08984.0586-.10156-.04298-.17969-.11719-.08594-.05859-.0625-.08984-.0586-.08985-.07421-.07421-.08594-.0586-.1211.03125-.10155.01172-.10547.04688-.08594.05859-.10547.04297-.14844.14844-.08984.05859-.08594.0586-.08984.0625-.10547.04296-.13281.01563v-.1211l.10547-.04297.11718-.03125.07422-.0703.04297-.10548v-.14844l-.02734-.11718-.14844-.14844-.13281-.01563h-.14844l-.11719.03125-.10547.04297-.10156.04297-.08984.0625-.11719.02735-.07422-.07422.01172-.13281-.04297-.10157-.04297-.10547-.08984-.05859-.11719.02734-.1211.03125-.11718.03125-.10156.04297-.1211.03125-.10156.04297-.10547.04297-.08984.0586-.10156.01562v-.11719l.01562-.13281-.0586-.08985-.07421.04297-.14844.14844-.0586.08985-.07421.07421-.04688.10547-.04296.10156-.07422.07422-.0586.08985-.07422.07422-.05859.08593-.07422.07422-.08984.0625-.07422.07031-.07422.07422-.10156.01563-.13281.01562-.10547-.04296v-.1211l.14843-.14844.04297-.10156.0586-.08984.04687-.10156.04297-.10547.0586-.08985.03124-.11719.04297-.10156.03125-.1211.02735-.11718.04687-.10547.04297-.10156.04297-.10547.07422-.07031.08984-.0625.08985-.0586.10156-.04296h.29687l.26563-.03125.10547-.04297-.07422-.07422-.11719-.03125-.10547-.04297-.08984-.0586-.10156-.04687-.08985-.0586-.10156-.04296-.10547-.04297-.08984-.0625-.08594-.0586-.10547-.04296-.10156-.04297-.1211-.03125-.11718-.03125-.10157-.04297L297.5 410.25l-.10156-.04297-.08985-.0586-.04296-.10546-.01563-.13281.10156-.04297.13281-.01563.13672.01563.13282-.01563.10156-.04297.0586-.08984.01562-.10547-.08985-.0586-.07421-.07421-.10157-.04297-.08984-.0586-.14844-.14843-.04297-.10547-.01562-.13281v-.29297l-.0586-.08985-.08984-.05859-.07422-.07422-.04297-.10547-.03125-.11718-.0586-.08985-.07421-.07422-.11719-.02734-.07422-.07422-.08984-.0586-.08984-.0625-.08594-.05859-.07422-.07421-.0586-.08594-.04687-.10547-.08594-.0586-.14843-.14843-.19532-.0586-.1328.01563-.10157.04297-.07422.07422-.04688.10156-.04296.10547-.0586.08984-.0586.08594-.29687.29687-.08984.0586h-.08594l-.0625-.08594-.04297-.10547.03125-.11719.0586-.08984.02734-.11719-.01172-.13281-.08984-.0625-.10547.04688-.11719.02734-.11719.03125-.26953.17578-.10156.04688-.11719.02734-.10546.04687-.08985.0586-.10156.04297-.0586-.08594-.04687-.10547.01563-.13281.04687-.10547.07031-.07422.07422-.07031.0586-.08985v-.14843l-.04297-.10547h-.23829l-.10156.04687-.03125.11719-.02734.11719-.03125.1211-.07422.04296-.13281.01563-.07422-.04688-.04297-.10156-.04297-.10547-.04687-.10156-.04297-.10547-.1211.03125-.10156.04297-.13281.01562-.11719.03125-.10547.04297-.08984.0586-.10156.04687-.1211.02734-.13281.01563-.10156-.04297-.0586-.08985-.04687-.10546-.04297-.10157-.04297-.10546v-.1172l.0586-.08984.08593-.05859.17969-.11719.10156-.04687.10547-.04297.10547-.0586.10156-.04296.08985-.0625.10156-.04297.10547-.0586.10156-.04687.08984-.0586.10547-.04296.10156-.04297.08985-.0625.10156-.04297.13672-.01563.11719.03125.10156.04297.1211.03125.10156.04297.10546.04688.10157.04296.10547.04297.10156.04688.10547.04297.10156.04297.10547.04687.08594.0586.10546.04296.1172.03125.10546.04297.10156.04688.08985.0586.10547.04296.10156.04297.10547.04687.11719.02735.10156.04687.1211.02735h.14843l.08594-.0586.01562-.10156.0586-.08984-.02735-.1172-.07422-.07421-.11719-.17969-.07421-.07422-.08985-.07421-.17969-.1172-.08593-.05859-.10547-.04296-.10156-.04688-.26954-.17578-.05859-.08985-.07422-.07421-.0586-.08985-.04296-.10156-.03125-.11719-.01563-.13672v-.5625l-.01171-.1328-.01563-.13282-.03125-.11719-.01562-.13281-.01172-.13281-.03125-.1211-.22266-.22265-.0586-.08594-.01562-.10547.03125-.11719.13281-.01562v-91.41406H172.9922v1.45312l-.0586.23438-.35156 1.05078-.17187.52343-.1172.34766-.17577.41016-.11719.17187-.23438.29297-.23046.0586h-.35157l-.11718.05859-.23047.40625v.29297l.11719.17578.23046.23047.1172.23437.64062.75781.29297.46485.17578.23437.23047.35156.23437.34766.64063.8164.17578.46485.17187.41016.11719.69531.17578.46875.11719 1.39844.0586.46484v.875l.11718 1.04688v4.78125l-.0586.46484-.35156 1.28125-.17578.52344-.11328.41015-.35156.9297L172.93359 336l-.23437.58203-.11719.17578-.17187.34766-.17578.40625-.35157.8164-.0586.29297-.11327.29297-.11719.28906-.0586.17579-.11718.875-.0586.40625-.05859.11718-.0586.17579-.05859.17187-.23047.52734-.11718.17188v.23437l-.11719.23438-.0586.17187-.17577.58594v.28906l-.0586.17579v.29296l-.0586.11329-.05859.52734v.17187l-.05468.23438v2.6211l-.17578.8164-.1172.17578-.17577.23438-.1172.17187-.11327.23438-.58594.93359-.23047.28906-.29297.46485-.17578.23437-.28906.35156-.35156.69922-.11328.23047-.17579.41016-.17578.23046-.40625.52735-.8164.69922-.29297.17187-.28906.23438-.17579.11719-.17578.17578-.52344.40625-.52734.17578-.17187.17578-.23438.05469-.64062.17578h-.75782m12.21094 31.02344l-1.07422.44921.35938.89454 1.25-.71485.44531-.53906-.98047-.08985"/><path fill="#d3d3d3" fill-opacity="0" fill-rule="evenodd" d="M201.50781 416.59766h-.89453l.44922.6289.98047.35938.80469-.08985.4453-.98828-.17577.08985-.71485-.35547-.89453.35547m154.6211 59.0703l-.0586-.52343v-.29297l.11328-.29297.0586-.23046.46875-.46875h.11328l.11719-.11329.11718-.05859h.17579l.23437-.0586h.34766l.23437.0586.11719.0586.23047.17187.0586.17578.11718.58203v.29297l-.11719.17578-.17187.28906-.17579.17579-.52734.52343-.23047.23438-.11719.0586h-.17578l-.11718-.0586-.40625-.29297-.17579-.11719-.11718-.0586-.0586-.11327-.05468-.1172m6.64062-10.95702l-.0586-.17188v-1.10937l.0586-.17188.17578-.0586.17188-.05858h.17578l.23437-.0586.1172.0586.05858.69921-.05859.17188-.11719.17578-.11718.0586-.23438.52343-.11328.0586h-.23438l-.05859-.1172m9.61328-14.39062l-.11719-.17578v-.69922l.29297-.875.1172-.17187.17577-.35156.11328-.23047.1172-.29297.35155-.75781.1172-.23047.17187-.23438h.17578l.11719-.0586h.64062l.11719.0586.23437.23438.17188.11328.35156.29297.11719.11718.11328.17579v.11328l.11719.05859.11718.11719v.69922l-.05859.17578v.23047l-.0586.17578-.34765 1.05078-.11719.23047-.11719.23437-.11718.0586-.23047.23437-.64063.28906h-.875l-.41015-.11718-.64063-.46485"/><path fill="none" stroke="#bebebe" stroke-linecap="round" stroke-linejoin="round" stroke-miterlimit="10" stroke-width=".5" d="M467.95703 311.69531H144.02734v168.625h323.9297v-168.625"/><g clip-path="url(#a)"><path fill="#fff" fill-opacity="0" fill-rule="evenodd" d="M144 475.89063v4.4375h.0039H144V311.67188h.0039H144v164.21875"/></g><g clip-path="url(#b)"><path fill="#fff" fill-opacity="0" fill-rule="evenodd" d="M144.0039 480.32813V311.67188h22.1875V421.75l-.10546.8789-.90235 4.44141 1.00782.91797 3.59375-.91797-2.52344-4.4414-1.07031-.87891V311.67187h22.1914v102.97657l-4.4375.11328-4.4375.96875-3.82422 2.46094-.61718.8125-4.3086 3.625 4.3086 3.3164.98437 1.125 3.45703 3.40625.85938 1.03125-.85938.95313-4.4414.75781-4.4375-1.57031-4.4375.98828-2.95703 3.3086-1.48047 1.9414-2.10938 2.4961-.85547 4.4375-.66406 4.4414-.375 4.4375-.4336 2.5586-1.2578 1.8789 1.2578 1.89062.50391 2.54688 3.9336 3.57812 4.4375.29688 4.4375-.08985 4.4375-.10546 4.4414.0625 4.4375.15625 4.4375-.03907 4.4375.09766 4.4414-.10156 4.4375.13672 4.4375.02734 4.4375.0586 4.44142-.26563 4.4375-1.92969 2.67578-1.88281.72265-4.4375-3.39844-1.72266-4.4375-1.48828-2.85546-1.22656-1.58594-2.75781-.44531-1.6797.4453-.5078 4.07813-3.9336.36328-.27734 4.4375-4.125.125-.03516 2.51563-4.4375 1.79688-.40234 3.2539.40234 1.1836.28125.35937-.28125-.35938-2.27734-.14843-2.16016.14844-.28515 4.4375-1.14454 2.74609 1.4297 1.69531 1.51952v6.89063l-.46484.46484.46484.3789.39844-.3789-.39844-.46484v-6.89063l4.4375 2.25391 4.4375-2.26953 1.39453-1.5039 2.76172-4.4375.28125-.64454.76953-3.79687-.76953-.73829-1.00781.73829-3.42969 2.5625-4.4375-.9375-4.4375.6914-4.4414-.72265-4.4375.5664-2.42579 2.28125-2.01172 1.30078-4.4375 2.48438-4.4375-1.67578-1.30859-2.10938-3.13281-2.59765-4.4375-.70704-3.0586-1.13671 1.5625-4.4375-2.9414-2.96875-4.4375.21875-4.4414-.63672-4.4375-.15625V311.67188h97.64452v91.51171l-1.71484 1.69141-1.32422 4.4414 3.03906 1.90235 1.90235-1.90234-.35156-4.44141-1.55079-1.6914v-91.51173H467.9961v168.65625H144.00391"/></g><path fill="#50fcfc" fill-rule="evenodd" d="M157.3164 460.02734l-1.2578-1.89062 1.2578-1.8789.4336-2.5586.375-4.4375.66406-4.4414.85547-4.4375 2.10938-2.4961 1.48047-1.9414 2.95703-3.3086 4.4375-.98828 4.4375 1.57031 4.4414-.75781.85938-.95313-.85938-1.03125-3.45703-3.40625-.98437-1.125-4.3086-3.3164 4.3086-3.625.61718-.8125 3.82422-2.46094 4.4375-.96875v1.70312l-3.5 1.72657-.9375 3.03125-.92969 1.40625.9297 1.11718 4.4375 3.32032.0039.0039 3.03516 4.4375-2.53907 4.4375-.5.82031-4.4375-.11718-4.4414.01562-4.4375 1.63672-4.4375-.85547-2.41797 2.9375-1.36719 4.4375-.65234.45703-1.875 3.98438-.83203 4.4375-.95704 4.4375 1.26172 4.4375 2.40235 2.1836 4.4375.73437 4.4375-.16016 4.4375-.23437 4.4414.05078 4.4375.33984 4.4375-.14062 4.4375-.01172 4.4414-.21875 4.4375.00781 4.4375-.35938 4.4375-1.1289 2.12892-1.0625 1.0625-4.4375-3.19141-1.52735-3.58984-2.91015-.84766-3.6289-3.1836-.8086 3.1836-.10156 4.08203-4.33985.35547-.5039 4.4414-3.53907.41797-.39453.52344-4.4375-.9414-1.14844-4.11329-3.28906-.32812-.79297-.96484-3.64453-3.47266-1.52734-4.4375-.9961-4.4375.16016-4.02734-2.07812 3.03125-4.4375-3.44532-1.70313-4.4375.04297-4.4375-.0664v-1.70313l4.4375-.11328 4.4375.15625 4.4414.63672 4.4375-.21875v2.72265l-1.04687.2461 1.04688.5.24219-.5-.2422-.2461v-2.72265l2.94142 2.96875-1.5625 4.4375 3.05859 1.13671 4.4375.70704 3.13281 2.59765 1.3086 2.10938 4.4375 1.67578 4.4375-2.48438v2.8711l-.40625.26562.40625.33985.36328-.33985-.36328-.26562v-2.8711l2.01171-1.30078 2.42578-2.28125 4.4375-.5664 4.44141.72265 4.4375-.6914v2.99218l-3.24219 4.26172 3.2422 2.50781 3.27733-2.5078-3.27734-4.26173v-2.99218l4.4375.9375 3.42969-2.5625 1.00781-.73829.76953.73829-.76953 3.79687-.28125.64453-2.76172 4.4375-1.39453 1.5039-4.4375 2.26954-4.4375-2.2539-1.69531-1.51954-2.7461-1.42969-4.4375 1.14454-.14843.28515.14844 2.16016.35937 2.27734-.35938.28125-1.18359-.28125-3.2539-.40234-1.79688.40234-2.51563 4.4375-.125.03516-4.4375 4.125-.36328.27734-4.07812 3.9336-.44531.5078.4453 1.6797 1.58595 2.7578 2.85547 1.22657 4.4375 1.48828 3.39843 1.72266-.72265 4.4375-2.67578 1.88281-4.4375 1.92969-4.44141.26562-4.4375-.05859-4.4375-.02734-4.4375-.13672-4.4414.10156-4.4375-.09766-4.4375.03907-4.4375-.15625-4.44141-.0625-4.4375.10546-4.4375.08985-4.4375-.29688-3.9336-3.57812-.5039-2.54688"/><path fill="#00e8fc" fill-rule="evenodd" d="M159.35156 462.57422l-1.26172-4.4375.95703-4.4375.83204-4.4375 1.875-3.98438.65234-.45703 1.36719-4.4375 2.41797-2.9375 4.4375.85547 4.4375-1.63672 4.4414-.01562v3.83203l-3.73437 4.33984L175.0664 447l-4.16407 2.26172-.27343.0625-.13672-.0625-4.30078-1.21875-1.67578 1.21875-2.76172 2.625-.53907 1.8125-1.41015 4.4375 1.94922 4.21875.30078.21875 4.13672 1.3164 4.4375-.26562 4.4375-.45313 4.4414.03516 4.4375.64063 4.4375-.3047 4.4375-.19921 4.4414-.41016 4.4375-.21093.78907-.14844-.78906-.8711-2.23047-3.5664-2.20703-1.7461-2.44922-2.6914-1.99219-3.25781-4.4375-.8672-.53125-.3125-3.90625-3.88671-.3711-.55469-4.0664-4.33984v-3.83203l4.4375.11719.5-.82032 2.53906-4.4375-3.03515-4.4375-.0039-.0039-4.4375-3.32032-.9297-1.11718.9297-1.40625.9375-3.03125 3.5-1.72657 4.4375.06641v5.49219l-.51563.60547.51562.84765 2.875-.84765-2.875-.60547v-5.49219l4.4375-.04297v7.125l-1.3789 3.45703 1.3789 1.32031 1.0664-1.3203-1.0664-3.45704v-7.125l3.44531 1.70313-3.03125 4.4375 4.02735 2.07812v3.55469l-3.03516 3.2461-1.14453 4.4375-.26172.91406-.6914-.91407-3.7461-.95312-.80469.95312-.92968 4.4375 1.73437 1.98438 4.4375.4336 1.53516 2.01952 2.90625 1.17578 4.4375-.23437 4.4375-.4375.47266-.5039 1.55468-4.4375 2.41016-.73829 2.55078-3.69922-2.55078-2.42578-4.4375 1.47656-4.4375-3.32421-.21875-.16407-4.21875-3.2461v-3.55468l4.4375-.16015 4.4375.99609 3.47266 1.52734.96484 3.64453.32812.79297 4.11328 3.28906.94141 1.14844-.52344 4.4375-.41797.39453-4.4414 3.53907-.35547.5039-4.08203 4.33985-3.1836.10156 3.1836.8086.84766 3.6289 3.58984 2.91015 3.1914 1.52735-1.0625 4.4375-2.1289 1.0625-4.4375 1.1289-4.4375.35938-4.4375-.00781-4.4414.21875-4.4375.01172-4.4375.14062-4.4375-.33984-4.44141-.05078-4.4375.23437-4.4375.16016-4.4375-.73438-2.40235-2.1836"/><path fill="#00d4fc" fill-rule="evenodd" d="M161.7539 462.35547l-1.94921-4.21875 1.41015-4.4375.53907-1.8125 2.76172-2.625 1.67578-1.21875v9.36328l-4.4375.04688-.23438.68359.23438.50781 4.4375 1.32813 1.07422-1.83594-1.07422-.73047v-9.36328l4.30078 1.21875.13672.0625.27343-.0625L175.06641 447v6.5l-.33985.19922.33985.29297 1.1914-.29297-1.1914-.19922V447l.70703-2.17969 3.73437-4.33984 4.0664 4.33984.3711.55469v7.79297l-1.9336.53125-.47265 4.4375 2.40625 3.05469 4.4375-.76563 4.4375-2.05469.19531-.23437-.1953-.21094-4.4375-2.33594-3.58204-1.89062-.85547-.53125V445.375l3.90625 3.88672.53125.3125 4.4375.86719 1.99219 3.2578 2.44922 2.69142 2.20703 1.74609 2.23047 3.5664.78906.8711-.78906.14844-4.4375.21093-4.4414.41016-4.4375.19922-4.4375.30469-4.4375-.64063-4.44141-.03515-4.4375.45312-4.4375.26563-4.13672-1.31641-.30078-.21875"/><path fill="#00c4fc" fill-rule="evenodd" d="M161.7539 458.64453l-.23437-.50781.23438-.6836 4.4375-.04687 1.07422.73047-1.07422 1.83594-4.4375-1.32813"/><path fill="#50fcfc" fill-rule="evenodd" d="M166.1914 427.98828l-1.0078-.91797.90234-4.4414.10547-.87891 1.0703.8789 2.52345 4.44141-3.59375.91797"/><path fill="#00c4fc" fill-rule="evenodd" d="M175.0664 453.99219l-.33984-.29297.33985-.19922 1.1914.19922-1.1914.29297m8.8789 7.19922l-2.40625-3.0547.47266-4.4375 1.9336-.53124.85546.53125 3.58203 1.89062 4.4375 2.33594.19531.21094-.1953.23437-4.4375 2.0547-4.4375.76562"/><path fill="#00d4fc" fill-rule="evenodd" d="M188.38281 442.36719l-1.73437-1.98438.92969-4.4375.80468-.95312 3.7461.95312.6914.91406.26172-.91406 1.14453-4.4375 3.03516-3.2461v2.42188l-.77344.82422.77344 2.61328 1.02734 1.82422 3.1914 4.4375.21876.07422.0664-.07422 2.23829-4.4375-2.3047-1.88672-3.36718-2.55078-1.07031-.82422v-2.42187l4.21875 3.2461.21875.16406 4.4375 3.32421 4.4375-1.47656v2.08203l-.82031.34375.8203.52735.36329-.52735-.36328-.34375v-2.08203l2.55078 2.42578-2.55078 3.69922-2.41016.73828-1.55469 4.4375-.47265.5039-4.4375.4375-4.4375.23438-2.90625-1.17578-1.53516-2.01953-4.4375-.4336"/><path fill="#50fcfc" fill-rule="evenodd" d="M188.38281 422.02344l-.51562.60547.51562.84765 2.875-.84765-2.875-.60547m4.4375 1.58984l-1.3789 3.45703 1.3789 1.32031 1.0664-1.3203-1.0664-3.45704"/><path fill="#00c4fc" fill-rule="evenodd" d="M197.26172 434.1211l-.77344-2.61329.77344-.82422 1.07031.82422 3.36719 2.55078 2.30469 1.88672-2.23828 4.4375-.06641.07422-.21875-.07422-3.1914-4.4375-1.02735-1.82422"/><path fill="#00e8fc" fill-rule="evenodd" d="M201.69922 418.6914l-1.04688-.5 1.04688-.24609.24219.2461-.2422.5"/><path fill="#00c4fc" fill-rule="evenodd" d="M210.57422 436.47266l-.82031-.52735.8203-.34375.36329.34375-.36328.52735"/><path fill="#00e8fc" fill-rule="evenodd" d="M223.89063 431.84766l-.40625-.33985.40625-.26562.36328.26562-.36328.33985"/><path fill="#50fcfc" fill-rule="evenodd" d="M237.20703 440.76172l-.46484-.3789.46484-.46485.39844.46484-.39844.3789"/><path fill="#00e8fc" fill-rule="evenodd" d="M241.64453 434.01563l-3.24219-2.50782 3.2422-4.26172v3.59375l-.50782.66797.50781.39063.51172-.39063-.51172-.66797v-3.59375l3.27734 4.26172-3.27734 2.50781"/><path fill="#00d4fc" fill-rule="evenodd" d="M241.64453 431.89844l-.50781-.39063.50781-.66797.51172.66797-.51172.39063"/><path fill="#50fcfc" fill-rule="evenodd" d="M286.02734 411.21875l-3.03906-1.90234 1.32422-4.44141 1.71484-1.6914 1.55079 1.6914.35156 4.4414-1.90235 1.90235"/><g clip-path="url(#c)"><path fill="#fff" fill-opacity="0" fill-rule="evenodd" d="M467.9961 480.32813H468V311.67188h-.0039H468v168.65625h-.0039"/></g><path fill="#fff" fill-opacity="0" fill-rule="evenodd" d="M216.41016 436.16797l5.82422-.4336-.7422-9.93359-5.82421.4336.74219 9.93359"/><path fill-rule="evenodd" d="M219.29297 427.80078l.50781-.03515.46875 6.27734-.78516.0586-.33203-4.47657-1.38672.10156-.03906-.55469.55078-.10546.25-.07422.22266-.10547.1914-.15625.15626-.22266.12109-.30469.07422-.40234"/><path fill="#fff" fill-opacity="0" fill-rule="evenodd" d="M202.66016 471.63672l5.83984.05469.09375-9.96094-5.83984-.05469-.09375 9.96094"/><path fill-rule="evenodd" d="M206.23438 463.54297l.51171.0039-.0625 6.29297-.78515-.0078.04297-4.48829-1.39063-.01172.00781-.5586.5586-.05859.2539-.05078.23047-.08594.20313-.14062.17578-.20703.14453-.29297.10938-.39453"/><g clip-path="url(#d)"><path fill="none" stroke="#000" stroke-linecap="round" stroke-linejoin="round" stroke-miterlimit="10" stroke-width=".5" d="M146.59375 477.95703l-5.1875 4.74219"/></g><path fill="none" stroke="#000" stroke-linecap="round" stroke-linejoin="round" stroke-miterlimit="10" stroke-width=".5" d="M145.83984 478.64844l1.15625.41015"/><g clip-path="url(#e)"><path fill="none" stroke="#000" stroke-linecap="round" stroke-linejoin="round" stroke-miterlimit="10" stroke-width=".5" d="M160.55078 478.96094l-6.47266 2.73437"/></g><g clip-path="url(#f)"><path fill="none" stroke="#000" stroke-linecap="round" stroke-linejoin="round" stroke-miterlimit="10" stroke-width=".5" d="M159.60938 479.35938l.95312.77343"/></g><g clip-path="url(#g)"><path fill="none" stroke="#000" stroke-linecap="round" stroke-linejoin="round" stroke-miterlimit="10" stroke-width=".5" d="M174.07813 479.64844l-6.89454 1.35937"/></g><g clip-path="url(#h)"><path fill="none" stroke="#000" stroke-linecap="round" stroke-linejoin="round" stroke-miterlimit="10" stroke-width=".5" d="M173.07422 479.84766l.77344.94922"/></g><g clip-path="url(#i)"><path fill="none" stroke="#000" stroke-linecap="round" stroke-linejoin="round" stroke-miterlimit="10" stroke-width=".5" d="M187.36328 481.14063l-6.83594-1.625"/></g><g clip-path="url(#j)"><path fill="none" stroke="#000" stroke-linecap="round" stroke-linejoin="round" stroke-miterlimit="10" stroke-width=".5" d="M199.58203 482.96484l-4.64453-5.27343"/></g><g clip-path="url(#k)"><path fill="none" stroke="#000" stroke-linecap="round" stroke-linejoin="round" stroke-miterlimit="10" stroke-width=".5" d="M213.5 482.27734l-5.84766-3.89843"/></g><g clip-path="url(#l)"><path fill="none" stroke="#000" stroke-linecap="round" stroke-linejoin="round" stroke-miterlimit="10" stroke-width=".5" d="M227.23438 481.40234l-6.6875-2.14843"/></g><g clip-path="url(#m)"><path fill="none" stroke="#000" stroke-linecap="round" stroke-linejoin="round" stroke-miterlimit="10" stroke-width=".5" d="M226.26172 481.08984l.21875 1.20703"/></g><g clip-path="url(#n)"><path fill="none" stroke="#000" stroke-linecap="round" stroke-linejoin="round" stroke-miterlimit="10" stroke-width=".5" d="M240.5039 481.53906l-6.59765-2.41797"/></g><g clip-path="url(#o)"><path fill="none" stroke="#000" stroke-linecap="round" stroke-linejoin="round" stroke-miterlimit="10" stroke-width=".5" d="M253.94922 481.09766l-6.85547-1.53516"/></g><g clip-path="url(#p)"><path fill="none" stroke="#000" stroke-linecap="round" stroke-linejoin="round" stroke-miterlimit="10" stroke-width=".5" d="M253.94922 481.09766l.65234 2.36328"/></g><g clip-path="url(#q)"><path fill="none" stroke="#000" stroke-linecap="round" stroke-linejoin="round" stroke-miterlimit="10" stroke-width=".5" d="M267.19531 481.35938l-6.71875-2.0625"/></g><g clip-path="url(#r)"><path fill="none" stroke="#000" stroke-linecap="round" stroke-linejoin="round" stroke-miterlimit="10" stroke-width=".5" d="M280.46875 481.48828l-6.63281-2.32031"/></g><g clip-path="url(#s)"><path fill="none" stroke="#000" stroke-linecap="round" stroke-linejoin="round" stroke-miterlimit="10" stroke-width=".5" d="M293.89844 481.08594l-6.86328-1.51563"/></g><g clip-path="url(#t)"><path fill="none" stroke="#000" stroke-linecap="round" stroke-linejoin="round" stroke-miterlimit="10" stroke-width=".5" d="M293.89844 481.08594l.65625 2.36328"/></g><g clip-path="url(#u)"><path fill="none" stroke="#000" stroke-linecap="round" stroke-linejoin="round" stroke-miterlimit="10" stroke-width=".5" d="M307.05078 481.61719l-6.53906-2.57813"/></g><g clip-path="url(#v)"><path fill="none" stroke="#000" stroke-linecap="round" stroke-linejoin="round" stroke-miterlimit="10" stroke-width=".5" d="M320.35156 481.64844l-6.51172-2.64063"/></g><g clip-path="url(#w)"><path fill="none" stroke="#000" stroke-linecap="round" stroke-linejoin="round" stroke-miterlimit="10" stroke-width=".5" d="M333.61719 481.76953l-6.41016-2.8789"/></g><g clip-path="url(#x)"><path fill="none" stroke="#000" stroke-linecap="round" stroke-linejoin="round" stroke-miterlimit="10" stroke-width=".5" d="M347.08203 481.375l-6.71094-2.08984"/></g><g clip-path="url(#y)"><path fill="none" stroke="#000" stroke-linecap="round" stroke-linejoin="round" stroke-miterlimit="10" stroke-width=".5" d="M360.55078 480.44922l-7.01953-.24219"/></g><g clip-path="url(#z)"><path fill="none" stroke="#000" stroke-linecap="round" stroke-linejoin="round" stroke-miterlimit="10" stroke-width=".5" d="M360.55078 480.44922l1.07813 2.20703"/></g><g clip-path="url(#A)"><path fill="none" stroke="#000" stroke-linecap="round" stroke-linejoin="round" stroke-miterlimit="10" stroke-width=".5" d="M373.83203 480.82813l-6.95312-1"/></g><g clip-path="url(#B)"><path fill="none" stroke="#000" stroke-linecap="round" stroke-linejoin="round" stroke-miterlimit="10" stroke-width=".5" d="M372.82031 480.6836l.41797 1.15624"/></g><g clip-path="url(#C)"><path fill="none" stroke="#000" stroke-linecap="round" stroke-linejoin="round" stroke-miterlimit="10" stroke-width=".5" d="M387.03906 479.32813l-6.73437 2"/></g><g clip-path="url(#D)"><path fill="none" stroke="#000" stroke-linecap="round" stroke-linejoin="round" stroke-miterlimit="10" stroke-width=".5" d="M386.0586 479.61719l.85937.875"/></g><g clip-path="url(#E)"><path fill="none" stroke="#000" stroke-linecap="round" stroke-linejoin="round" stroke-miterlimit="10" stroke-width=".5" d="M400.34766 479.30078l-6.72266 2.05469"/></g><g clip-path="url(#F)"><path fill="none" stroke="#000" stroke-linecap="round" stroke-linejoin="round" stroke-miterlimit="10" stroke-width=".5" d="M399.36719 479.60156l.86719.86719"/></g><g clip-path="url(#G)"><path fill="none" stroke="#000" stroke-linecap="round" stroke-linejoin="round" stroke-miterlimit="10" stroke-width=".5" d="M413.63281 479.21484l-6.66406 2.23047"/></g><g clip-path="url(#H)"><path fill="none" stroke="#000" stroke-linecap="round" stroke-linejoin="round" stroke-miterlimit="10" stroke-width=".5" d="M412.66406 479.53906l.89063.84375"/></g><g clip-path="url(#I)"><path fill="none" stroke="#000" stroke-linecap="round" stroke-linejoin="round" stroke-miterlimit="10" stroke-width=".5" d="M426.70313 478.65234l-6.17579 3.35157"/></g><g clip-path="url(#J)"><path fill="none" stroke="#000" stroke-linecap="round" stroke-linejoin="round" stroke-miterlimit="10" stroke-width=".5" d="M425.80469 479.14063l1.02344.67578"/></g><g clip-path="url(#K)"><path fill="none" stroke="#000" stroke-linecap="round" stroke-linejoin="round" stroke-miterlimit="10" stroke-width=".5" d="M440.44531 480.40234l-7.02734-.14843"/></g><g clip-path="url(#L)"><path fill="none" stroke="#000" stroke-linecap="round" stroke-linejoin="round" stroke-miterlimit="10" stroke-width=".5" d="M439.42188 480.3789l.55468 1.09766"/></g><g clip-path="url(#M)"><path fill="none" stroke="#000" stroke-linecap="round" stroke-linejoin="round" stroke-miterlimit="10" stroke-width=".5" d="M453.27344 482.10938l-6.05469-3.5625"/></g><g clip-path="url(#N)"><path fill="none" stroke="#000" stroke-linecap="round" stroke-linejoin="round" stroke-miterlimit="10" stroke-width=".5" d="M466.67578 481.95313l-6.23047-3.25"/></g><g clip-path="url(#O)"><path fill="none" stroke="#000" stroke-linecap="round" stroke-linejoin="round" stroke-miterlimit="10" stroke-width=".5" d="M146.5625 464.60938l-5.125 4.80859"/></g><path fill="none" stroke="#000" stroke-linecap="round" stroke-linejoin="round" stroke-miterlimit="10" stroke-width=".5" d="M145.8164 465.3086l1.16016.39452m13.21094-.71484l-5.74219 4.05078m4.90625-3.46093l1.09375.55468m13.53906-.16015l-6.71093 2.08203m20.02344.01172l-6.70313-2.10547m19.01953 3.66015l-4.70703-5.21484m18.71875 4.34766l-6.10156-3.48047m19.66797 2.94531l-6.60157-2.41016m5.64063 2.0586l.16797 1.21484m13.9961-.59375l-6.37892-2.94922m5.44922 2.51953l.07032 1.22657m14.2539-.98438l-6.53906-2.57422m6.53906 2.57422l.28125 2.4375m13.11328-2.66406l-6.69922-2.1211m6.69922 2.1211l.44532 2.41406m12.65234-1.8789l-6.26172-3.19141m5.35156 2.72656l.01954 1.22656m14.3164-1l-6.48437-2.71484m5.54297 2.32031l.11328 1.21875m13.9453-.42968l-6.08983-3.50391m6.08984 3.5039l-.08203 2.45313m13.07031-1.97656l-5.4336-4.45703m5.4336 4.45703l-.48438 2.40625m14.00782-2.6914l-5.85156-3.88673m5.85156 3.88672l-.23828 2.44531m13.42187-2.26171l-5.58984-4.25391m5.58984 4.2539l-.39453 2.42188m14.20703-3.3164l-6.58203-2.46485m6.58203 2.46484l.3164 2.4336m13.22266-3.64844l-7.02734-.03516m6.0039.03125l.57032 1.08594m13.73437-1.57812l-6.96093.95703m5.94921-.8164l.71875.99218m13.39454-1.94531l-6.53516 2.58203m5.58594-2.20703l.9336.79687m13.09374-1.65625l-6.0625 3.55078m5.17969-3.03515l1.04687.64453m13.26954-.9414l-6.30079 3.11327m5.38672-2.66015l.9961.71484m13.34375-.92188l-6.51954 2.6211m5.57032-2.23828l.9375.78906m13.26172 1.59766l-6.39063-2.91797m5.46094 2.49218l.07422 1.22657m14.0586-.57813l-6.16798-3.36328m5.27344 2.875l-.01563 1.22656"/><g clip-path="url(#P)"><path fill="none" stroke="#000" stroke-linecap="round" stroke-linejoin="round" stroke-miterlimit="10" stroke-width=".5" d="M146.63281 451.3711l-5.26562 4.65234"/></g><path fill="none" stroke="#000" stroke-linecap="round" stroke-linejoin="round" stroke-miterlimit="10" stroke-width=".5" d="M145.86719 452.05078l1.14844.42969m12.33203-1.64844l-4.0625 5.73438m3.46875-4.90235l1.21875.15625m11.34375-1.5664l-1.375 6.89062m16.1914-6.19531l-4.375 5.5m18.91016-1.89453l-6.8164-1.71485m5.82421 1.46875l.29297 1.1875m13.71094-.15234l-6.21094-3.28906m5.3086 2.8086v1.23046m13.53906.14844l-4.85157-5.08594m4.14453 4.34375l-.38671 1.16406m14.82812-.90234l-5.6914-4.125m4.86328 3.52344l-.17188 1.21484m14.51953-.92969l-6.09765-3.49218m5.21093 2.98437l-.03906 1.22656m14.2461-.72656l-6.10938-3.47656m6.10938 3.47656l-.07032 2.45313m13.35156-2.40235l-6.04296-3.58203m6.04297 3.58203l-.11329 2.45313m13.64063-2.8711l-6.46875-2.74218m6.46875 2.74218l.21484 2.44532m13.17578-2.63672l-6.61718-2.35938m6.61718 2.35938l.35938 2.42578m12.44922-1.48828l-5.60547-4.23828m5.60547 4.23828l-.38672 2.42187m13.82422-2.58984l-5.84766-3.89844m5.84766 3.89844l-.2461 2.4414m13.88672-3.05468l-6.5-2.67188m6.5 2.67188l.23828 2.4414m-1.18359-2.83203l.1211 1.22266m14.29687-1.32031l-6.8164-1.69532m6.8164 1.69532l.59765 2.3789m12.64844-2.13281l-6.67578-2.1914m5.70313 1.875l.21093 1.20702m14.2422-2.23437l-7.00782.5m7.00781-.5l1.30078 2.08203m11.875-2.84375l-6.73047 2.01953m18.98047-3.66406L408 456.35547m3.9336-4.53906l1.1953.27343m13.44532-.28515l-5.91797 3.78906m18.65234-4.48047l-4.7539 5.17188m4.0625-4.42188l1.1875.3125m9.46484-1.85156l1.95313 6.75m15.83593-3.05469l-6.99609-.64062m5.98047.54687l.47265 1.13281"/><g clip-path="url(#Q)"><path fill="none" stroke="#000" stroke-linecap="round" stroke-linejoin="round" stroke-miterlimit="10" stroke-width=".5" d="M146.23047 437.66797l-4.46094 5.4336"/></g><path fill="none" stroke="#000" stroke-linecap="round" stroke-linejoin="round" stroke-miterlimit="10" stroke-width=".5" d="M145.58203 438.45703l1.19922.24219m12.57422-1.17578l-4.07813 5.72265m3.48438-4.89062l1.21484.16016m12.1289-1.32032l-2.94921 6.3789m2.51953-5.45312l1.22656-.0664m13.90625.29687l-5.73047 4.0664m13.78516-4.60546l4.79297 5.14063m13.01172.2539l-4.1875-5.64453m17.98047 5.21875l-5.14063-4.79297m4.39063 4.09375l-.3164 1.1836m14.46483-.58204l-5.30859-4.60156m4.53906 3.9336l-.27734 1.1953m13.90234-.08202l-4.39062-5.48828m3.7539 4.6875l-.48828 1.1289m14.94141-.8164l-5.39063-4.51172m4.60547 3.85547l-.2539 1.19921m14.3125-.5l-5.3086-4.60156m4.53516 3.9336l-.27344 1.1953m14.70703-.99609l-5.99609-3.66406m5.9961 3.66406l-.14844 2.44922m13.78515-3.1289l-6.64062-2.3047m6.64062 2.3047l.3789 2.42578m13.09376-3.09375l-6.95703-.96485m6.95703.96485l.84375 2.30469m12.41406-1.9922l-6.84375-1.59374m6.84375 1.59375l.6289 2.3711m12.10157-1.08985l-5.67188-4.15235m5.67188 4.15235l-.35156 2.42578m12.48828-1.40625l-3.3164-6.19531m2.83202 5.29297l-.67968 1.01953m16.04296-1.8086l-6.4414-2.8125m5.5039 2.40235l.09375 1.22265m14.44922-2.30078l-7.02343.16406m20.3125-.52343l-6.97266.88672m5.95703-.75782l.70703 1m12.77344-3.00781l-5.27344 4.64063m17.04688-5.66016l-2.1875 6.67969m1.86719-5.70703l1.21093-.21094M437.8711 437l-1.8789 6.76953m1.60547-5.78515l1.19921-.26563m11.1211-.83203l.65625 6.9961m16.48828-3.78907l-7.0039.57813m5.98437-.4922l.66406 1.03126"/><g clip-path="url(#R)"><path fill="none" stroke="#000" stroke-linecap="round" stroke-linejoin="round" stroke-miterlimit="10" stroke-width=".5" d="M146.80469 424.95313l-5.60938 4.23046"/></g><path fill="none" stroke="#000" stroke-linecap="round" stroke-linejoin="round" stroke-miterlimit="10" stroke-width=".5" d="M145.98828 425.5664l1.11328.51954m13.64063.20703l-6.85547 1.55469m5.85937-1.33203l.80078.92968m13.11329-2.16015l-6.0586 3.5664m18.76563-4.32812l-4.84766 5.08984m14.0625-5.63281l3.35547 6.17578m8.51953-1.46484l6.23438-3.2461m10.60156 5.11328l-.80469-6.98046m.6875 5.96484l-1.00781.69531m13.6875.32813l.69922-6.9922m-.59766 5.97267l-1.13281.46484m16.54687.04297l-3.70312-5.97266m3.16406 5.10547l-.61719 1.0586m14.9961-.58985l-4.75-5.17578m4.0586 4.42187l-.40626 1.15625m12.97266.39844l-1.86719-6.77734m1.59375 5.78906l-.89062.84375m14.08984.22656l-1.09375-6.9414m.9336 5.93359l-.98048.73438m16.09375-.44532l-4.36718-5.5039m4.36718 5.5039l-.98046 2.25m14.29296-2.2461l-4.36328-5.51171m4.36328 5.51172l-.98437 2.2461m14.66797-2.58594l-5.10156-4.83204m4.35937 4.12891l-.32812 1.1836m12.68359.51171l-1.69922-6.8164m1.45313 5.82422l-.91016.8203m13.98828.25782l-.73047-6.98828m.625 5.97265l-1.01953.6836m12.5586.00781l3.03515-6.33984m8.35156 2.47656l6.89063 1.38672m10.66406-4.11719l-1.58984 6.84766m16.08593-6.32813l-3.95312 5.8086m17.35937-5.7461l-4.13671 5.6836m3.53515-4.85547l1.21485.17187m13.37109-.36328l-5.47266 4.41016m5.47266-4.41016l2.25781.96875m11.4336-.39844l-6.22266 3.26953m5.3164-2.79296l1.01172.6914m13.17579-1.22656l-6.15625 3.38672m5.26171-2.89453l1.02344.67187"/><g clip-path="url(#S)"><path fill="none" stroke="#000" stroke-linecap="round" stroke-linejoin="round" stroke-miterlimit="10" stroke-width=".5" d="M147.42188 412.95703l-6.84375 1.58985"/></g><path fill="none" stroke="#000" stroke-linecap="round" stroke-linejoin="round" stroke-miterlimit="10" stroke-width=".5" d="M146.42578 413.1914l.8086.92188m13.52734-1.04687l-6.89453 1.37109m5.89062-1.17188l.77735.95313m13.60547-.5625l-7.02344.19531m6.0039-.16797l.60547 1.06641m13.73047-1.03125l-7.02344.0664m14.28125 2.39063l5.08985-4.84375m7.79297 4.28516l5.95703-3.72656m-5.09375 3.18359l-1.0625-.61328m13.29687.7539l6.39063-2.92578m-5.46094 2.5l-.97266-.74218m16.0547 3.18359l.99608-6.95313m-.85156 5.94141l-1.15234.41797m14.55469.6211l.53125-7.00782m-.53125 7.00781l-2.2461.98438m16.84375-1.125l-2.03125-6.72656m2.03125 6.72656l-1.74219 1.73047m15.2422-1.79297l-2.40235-6.60156M278 416.09375l-.82031.91406m14.07031.17188l-1.5664-6.85156m1.33593 5.85546l-.92578.80079m14.46875.1953L303 410.32814m1.33594 5.85546l-.92969.80079m13.8711.27734l-.36329-7.01563m.3086 5.9961l-1.05079.6289m14.06641.39063l.34375-7.01953m-.29297 6l-1.10937.52344m16.79297-.3125l-4.4961-5.39844m18.80078 1.33203l-6.47265 2.73437m5.53125-2.33593l.95312.77343m6.66797-.6875l6.80078 1.76563m-5.8125-1.51172l-.28515-1.1914m12.71875.58984l6.58203 2.46094m-6.58203-2.46094l-.32032-2.4336m13.69532 2.28516l6.46484 2.75781m-6.46484-2.75781l-.20704-2.44531m16.35938.33203l.78906 6.98437m-.78906-6.98437l2.02344-1.38672m12.67578 1.50781l-1.97656 6.74219m1.6875-5.76172l1.20312-.25m11.20313-.86719l.41796 7.01563m13.96875-6.91406l-1.72656 6.8125m1.47656-5.82032l1.19141-.29296m14.53125.91406l-6.04297 3.58594m5.16406-3.06641l1.05079.64062"/><g clip-path="url(#T)"><path fill="none" stroke="#000" stroke-linecap="round" stroke-linejoin="round" stroke-miterlimit="10" stroke-width=".5" d="M147.38281 399.48828l-6.76562 1.90235"/></g><path fill="none" stroke="#000" stroke-linecap="round" stroke-linejoin="round" stroke-miterlimit="10" stroke-width=".5" d="M146.39844 399.76563l.84765.88671m13.20313-1.80078l-6.26953 3.17578m5.35937-2.71484l1 .70703m10.4336-3.07812l-.6836 6.99218m10.49219-5.02343l6.32813 3.05468m-5.40625-2.60937l-.05079-1.22656m12.21485 1.40234l6.78906 1.8164m-5.80078-1.55468l-.27734-1.19531m12.54687 1.17968l6.90234 1.32032m-6.90234-1.32032l-.72266-2.34375m13.98047 3.19922l7.01563-.39062m-7.01563.39062l-1.26953-2.09765m15.3164 4.05468l5.5547-4.30468m-4.7461 3.67968l-1.1211-.5039m15.71876 2.42578l1.36719-6.89453m-1.3672 6.89453l-2.34765.70703m15.76172-.6914l1.17188-6.9297m-1.17188 6.9297l-2.33203.77343m15.71094-.76172l1.04296-6.94922m-.89062 5.9375l-1.15625.40625m13.83203.4961l2.01563-6.73047m-2.01563 6.73047l-2.40625.48047m16.17578-.37891l1.10938-6.9375m-.94922 5.92969l-1.16016.39844m13.03125.13671l3.67969-5.98828m-3.14453 5.11719l-1.22656-.07813m13.98047.9336l3.72656-5.96094m-3.1836 5.09375l-1.22265-.08594m18.26172.53907l-4.8047-5.12891m4.10548 4.38281l-.39844 1.16016m9.20313-.86719l5.61328-4.22265m-4.79688 3.60546l-1.11328-.51953m12.98828-.21484l6.85938-1.52344m-5.85938 1.30469l-.79687-.9336m13.5664-1.47656l5.94922 3.73828m-5.08203-3.1953l.08594-1.22267m11.98828 1.48438l6.69922 2.1289m-5.72266-1.8203l-.22265-1.20704m12.6328.69922l6.5547 2.52735m-5.60157-2.16016l-.14843-1.21875m16.05078-1.39063l-.52735 7.00782m.52735-7.00782l2.24609-.98437m8.58984 1.76562l4.4336 5.44922m-3.78906-4.65625l.47656-1.13281m11.8164 5.4336l5.1875-4.73829m12.625-.58594l-3.80859 5.90625m3.2539-5.04687l1.22266.10547"/><g clip-path="url(#U)"><path fill="none" stroke="#000" stroke-linecap="round" stroke-linejoin="round" stroke-miterlimit="10" stroke-width=".5" d="M145.51563 383.95313l-3.03125 6.33984"/></g><path fill="none" stroke="#000" stroke-linecap="round" stroke-linejoin="round" stroke-miterlimit="10" stroke-width=".5" d="M157.41797 383.60938l-.20313 7.02734m.17188-6.0039l1.09766-.54298m10.85546-.23437l2.57813 6.53515m-2.57813-6.53515l1.59375-1.86719m10.73047 2.46485l4.5625 5.33984m-4.5625-5.33985l.89844-2.28515m11.77734 3l5.83985 3.91015m-5.83985-3.91015l.25-2.4414m13.3047 2.125l5.35937 4.54296m-5.35938-4.54297l.52344-2.39844m.25781 3.0586l.26172-1.19922m11.89453 1.08594l6.11719 3.45312m-6.11719-3.45312l.0586-2.45313m13.49218 6.26953l5.64844-4.18359m-5.64844 4.1836l-2.21484-1.0586m3.03516.44922l-1.10938-.52735m14.32813 1.86329l4.19921-5.63672m-4.19922 5.63672l-2.42578-.375m15.35547.04296l4.96875-4.96875m-4.96875 4.96875l-2.34765-.71875m15.80859.85547l4.67578-5.24609m-3.9961 4.48438l-1.1914-.29297m14.44531 1.49609l3.44141-6.1289m-3.4414 6.1289l-2.45313-.0586m15.03515-.49218l4.90625-5.02735m-4.90625 5.02735l-2.35546-.6875m15.1289.01562l5.98828-3.68359m-5.98828 3.6836l-2.11328-1.2422m15.39844 1.1875l6.04687-3.57421m-5.16796 3.05469l-1.04688-.64063m18.76953 2.0625l-4.52344-5.3789m3.86329 4.59765l-.45704 1.13672M359.0625 390l-4.03906-5.75m18.84765 2.83984l-7.02734.06641m6.0039-.05469l.58594 1.07813m13.6875-1.73047l-6.89843 1.34765m6.89843-1.34765l1.54297 1.90625m11.80078-1.71875l-6.95703.97265m6.95703-.97265l1.44141 1.98437m11.47656-3.1875l-6.16406 3.37891m6.16406-3.3789l2.05078 1.34765m10.88672-1.90234l-5.40625 4.48828m5.40625-4.48828l2.26953.92968m11-.98437l-5.3164 4.59765m5.3164-4.59765l2.28907.88672m11.46875 3.0625l-6.20313-3.30078m5.30078 2.8203v1.22657m13.8711-4.57812l-5.50782 4.36328m4.70704-3.72656l1.12109.48828"/><g clip-path="url(#V)"><path fill="none" stroke="#000" stroke-linecap="round" stroke-linejoin="round" stroke-miterlimit="10" stroke-width=".5" d="M145.45313 370.60938l-2.90625 6.39843"/></g><path fill="none" stroke="#000" stroke-linecap="round" stroke-linejoin="round" stroke-miterlimit="10" stroke-width=".5" d="M145.03125 371.53906l1.22266-.07422m11.61328-1.125l-1.10547 6.9375m1.10547-6.9375l2.32031-.80078m9.73438.82813l1.41406 6.88281m-1.41406-6.88281l1.89453-1.5664m9.64453 2.52343l4.96875 4.96875m-4.96875-4.96875l.71875-2.34766m12.125 2.92969l5.91015 3.80469m-5.91015-3.80469l.20312-2.44531m14.71485 1.10547l2.70312 6.48437m-2.70312-6.48437l1.55859-1.89844m14.25 1.8164l-2.28125 6.64844m1.94922-5.67969l1.21094-.1914m9.84375 5.7461l2.90234-6.39844m-2.90234 6.39843l-2.44922.15625m16.91797.14453l.59765-7m-.59765 7l-2.25782.96485M261.3086 376.25l5.0547-4.88281m-4.32032 4.17187l-1.16406-.3789m12.86718-.48829l6.8086-1.72656m-6.8086 1.72656l-1.65234-1.8164m15.34375 2.73437l6.0586-3.5625m-5.1797 3.04297l-1.04296-.64062m13.4375 1.08984l6.14062-3.42187m-6.14062 3.42187l-2.0586-1.33203m15.73829 1.85938l5.41015-4.48047m-5.41015 4.48046l-2.26954-.93359m16.625 1.78906l3.32813-6.1875m-2.84375 5.28907l-1.22656-.00782m14.60156 1.14063l2.24219-6.65625m-1.91797 5.6875l-1.21094.19922M359.5 376.3164l-4.91797-5.01563m4.91797 5.01563l-.73828 2.33984m15.0586-4.2539l-6.92579-1.1875m6.92578 1.1875l.76953 2.32812m12.51954-3.64063l-6.87891 1.4336m6.8789-1.4336l1.57032 1.88672m11.71484-2.02344l-6.8164 1.71094m6.8164-1.71094l1.64453 1.82032m-2.63672-1.57422l.82422.91015m13.3789-1.5L407 375.00781m6.60547-2.39844l1.82031 1.64063m11.03906-2.5l-5.6953 4.11719m5.6953-4.11719l2.20313 1.07813m11.03516-1.1797l-5.54297 4.32032m5.54297-4.32031l2.24218 1.0039m11.30469-.67187l-6.0039 3.65234m6.0039-3.65234l2.10938 1.2539m11.30468-1.0703l-6.20703 3.28906"/><g clip-path="url(#W)"><path fill="none" stroke="#000" stroke-linecap="round" stroke-linejoin="round" stroke-miterlimit="10" stroke-width=".5" d="M466.66406 372.16406l2.03516 1.375"/></g><g clip-path="url(#X)"><path fill="none" stroke="#000" stroke-linecap="round" stroke-linejoin="round" stroke-miterlimit="10" stroke-width=".5" d="M147.2461 359.14844l-6.4922 2.6914"/></g><path fill="none" stroke="#000" stroke-linecap="round" stroke-linejoin="round" stroke-miterlimit="10" stroke-width=".5" d="M147.2461 359.14844l1.89452 1.5586m11.09375-2.17188l-5.83593 3.91406m5.83594-3.91406l2.16015 1.15625m10.1289-2.16016l-3.78515 5.92188m3.78516-5.92188l2.44531.19531m6.83984-.02344l4.27344 5.57813m-3.65234-4.76563l.51172-1.11718m11.46484 1.04297l5.70703 4.10156m-4.875-3.5039l.16406-1.21485m18.23828.94922l-6.1289 3.4375m5.23828-2.9375l1.03125.66406m13.57031-.0586l-6.92187 1.22657m6.92187-1.22656l1.51172 1.93359m10.8711 1.1211l-5.0547-4.88282m5.0547 4.88281l-.67579 2.35938m14.84375-3.84375l-6.76172-1.91406m6.76172 1.91406l.51563 2.39844m12.125-1.11329l-5.41406-4.48046m5.41406 4.48046l-.4961 2.40235m14.5625-5.2539l-6.91796 1.21874m6.91797-1.21875l1.51171 1.9336m11.6875-2.40235l-6.6875 2.16016m6.6875-2.16016l1.76172 1.70703m10.63672-3.16796l-4.85547 5.07812m4.85547-5.07813l2.36328.66407m11.67188.3086l-6.29297 3.1328m5.375-2.67578l1 .71485m11.0625 3.76953l-1.95313-6.75m1.95313 6.75l-1.76172 1.71094m15.63281-1.92188l-3.0625-6.32422m3.0625 6.32422l-1.44922 1.98047m1.00391-2.90235l-.72656.9922m15.32812-.64063l-4.7461-5.1836m4.7461 5.1836l-.82031 2.3125m15.24219-4.42578l-6.96094-.95704m5.94922.81641l.42187 1.15235m13.76563-2.58594l-6.67969 2.1875m6.67969-2.1875l1.76562 1.70312m11.22657-2.40625l-6.03516 3.59375m6.03516-3.59375l2.09765 1.27344m11.09766-1.46484l-5.79297 3.97656m5.79297-3.97656l2.17578 1.13671m11.39453-.6953l-6.3086 3.09765m6.3086-3.09766l1.98828 1.4375m10.44531-2.57031l-4.54296 5.35938m3.8828-4.57813l1.19923.26172m13.10937-.71875l-5.21094 4.71094m5.21094-4.71094l2.3086.83594m11.17187-.64454l-5.53906 4.32813"/><g clip-path="url(#Y)"><path fill="none" stroke="#000" stroke-linecap="round" stroke-linejoin="round" stroke-miterlimit="10" stroke-width=".5" d="M466.33203 358.32813l2.23828 1"/></g><g clip-path="url(#Z)"><path fill="none" stroke="#000" stroke-linecap="round" stroke-linejoin="round" stroke-miterlimit="10" stroke-width=".5" d="M147.20703 345.73828l-6.41406 2.8789"/></g><path fill="none" stroke="#000" stroke-linecap="round" stroke-linejoin="round" stroke-miterlimit="10" stroke-width=".5" d="M147.20703 345.73828l1.9375 1.5039m10.60938-2.59374l-4.87891 5.0586m4.16797-4.32032l1.17969.33594m12.26562-1.52735l-3.71484 5.96485m3.71484-5.96485l2.44531.16797m11.63282.47656l-5.2422 4.67579m5.2422-4.67579l2.30468.85157m11.40235-.31641l-6.02735 3.60547m5.15235-3.08203l1.05078.63281m13.61328.23047l-6.97656.83594m5.96094-.71485l.70312 1.00781m13.64453-.4453l-7.00781-.53516m5.98828.45703l.49219 1.125m13.78125-.61328l-6.88672-1.40235m5.88672 1.19922l.34765 1.17578m13.84375-2.82422l-6.64062 2.30079m5.67578-1.96485l.89844.83203m13.41797-1.05469l-6.71094 2.07422m5.73437-1.77343l.8711.86718m10.4961-3.61718l-.86329 6.97265m15.50781-6.52734l-3.52344 6.08203m3.01172-5.19531l1.22657.04297m12.85937-.76172l-4.03906 5.7461m4.03906-5.7461l2.4375.30469m10.89844-.29297l-4.08203 5.72265m4.08203-5.72265l2.42969.3203m10.98828 5.32423l-4.28907-5.5664m3.66407 4.7578l-.5039 1.1172m12.8828.375l-1.16406-6.9297m1.16406 6.9297l-1.9453 1.49218m16.8203-2.17188l-4.28515-5.57421m4.28515 5.57421l-1.01562 2.23438m15.60937-4.22266l-6.84375-1.59765m5.84766 1.36328l.3164 1.1875m13.92188-2.8125l-6.69922 2.1211m6.69922-2.1211l1.7539 1.71875m10.9297-2.88672l-5.4336 4.45703m5.4336-4.45703l2.26562.94531m11.00781-.9961l-5.35156 4.5586m5.35156-4.5586l2.28125.90626m11.05078-.88281l-5.3828 4.51562m5.3828-4.51563l2.27344.91797m10.30469-1.58203l-3.91016 5.83985m3.91016-5.83985l2.4414.25m10.59766-.41406l-3.35937 6.16797m3.35937-6.16797l2.45313.02344m12.39843 1.64453l-6.42968 2.83203"/><g clip-path="url(#aa)"><path fill="none" stroke="#000" stroke-linecap="round" stroke-linejoin="round" stroke-miterlimit="10" stroke-width=".5" d="M466.77734 345.76172l1.92579 1.51562"/></g><g clip-path="url(#ab)"><path fill="none" stroke="#000" stroke-linecap="round" stroke-linejoin="round" stroke-miterlimit="10" stroke-width=".5" d="M145.59375 330.73438l-3.1875 6.2578"/></g><path fill="none" stroke="#000" stroke-linecap="round" stroke-linejoin="round" stroke-miterlimit="10" stroke-width=".5" d="M145.59375 330.73438l2.45703-.04297m9.1914-.33985l.14454 7.02344m-.14453-7.02344l2.14062-1.19922m10.26563 1.33594l1.96094 6.75m-1.96094-6.75l1.75781-1.71094m-1.47266 2.69532l.87891-.85547m11.20313.3086l3.85546 5.875m-3.85547-5.875l1.1797-2.15235m-.6172 3.00781l.58985-1.07813m11.57422.70704l5.03515 4.90234m-5.03515-4.90234l.6875-2.35547m12.3164 2.72656l5.66016 4.16406m-4.83984-3.5586l.17968-1.21483m18.65625 2.54296l-7.02343.29688m19.66406 1.92578l-5.67188-4.14844m4.84375 3.54297l-.17187 1.21485m13.05469.45703l-3.15625-6.28125m11.7539 1.5625l6.28125 3.15625m-5.36719-2.69532l-.02734-1.22656m12.53125.57813l6.07422 3.52734m-5.1914-3.01172l.04687-1.22656M287.48828 332l5.95703 3.72656M287.48828 332l.17188-2.44922m13.57421 1.89453l5.09375 4.83594m-5.09375-4.83594l.65625-2.36719m14.88672 1.28516l.63672 7m-.63672-7l2.05078-1.34375m14.36329 6.99219l-5.5586-4.29688m4.75 3.67188l-.20703 1.21094m12.97266.47656l-2.84375-6.42578m2.84375 6.42578l-1.51563 1.9336m14.91406-1.97266l-3.01171-6.34766m3.01171 6.34766l-1.46093 1.97265m16.4375-3.6211l-6.33203-3.04687m6.33203 3.04688l.09765 2.44922m13.55078-4.25l-7.0039.55469m7.0039-.5547l1.32032 2.07032m-2.33594-1.98828l.65625 1.03125m13.51562-1.92578l-6.68359 2.17578m6.6836-2.17578l1.76562 1.70703m11.3711-2.14453l-6.32813 3.05469m6.32812-3.0547l1.98047 1.44923m11.64063-.46875l-6.9414 1.09375m6.9414-1.09375l1.47656 1.96093m11.6211-2.74609l-6.50391 2.66406m6.5039-2.66406l1.88672 1.5664m-2.83203-1.17968l.9414.78515m13.20704-1.41796l-6.28125 3.15625m6.28125-3.15625l2 1.41796m11.55469-.80078l-6.75782 1.92188"/><g clip-path="url(#ac)"><path fill="none" stroke="#000" stroke-linecap="round" stroke-linejoin="round" stroke-miterlimit="10" stroke-width=".5" d="M466.9414 332.90234l1.69923 1.76954"/></g><g clip-path="url(#ad)"><path fill="none" stroke="#000" stroke-linecap="round" stroke-linejoin="round" stroke-miterlimit="10" stroke-width=".5" d="M144.54297 317.07813l-1.08594 6.9414"/></g><path fill="none" stroke="#000" stroke-linecap="round" stroke-linejoin="round" stroke-miterlimit="10" stroke-width=".5" d="M144.54297 317.07813l2.32031-.8047m9.60547.86329l1.6914 6.82031m-1.6914-6.82031l1.82422-1.64063m11.1289 1.75391l2.41797 6.59766m-2.41797-6.59766l1.63672-1.82813m-1.28515 2.78516l.82031-.91015m11.88281.05859l2.9375 6.38281m-2.9375-6.38281l1.48438-1.95313m10.91406 2.56641l4.76953 5.16016m-4.76953-5.16016l.8086-2.3164m12.0078 2.88671l5.76563 4.01953m-5.76562-4.01953l.29687-2.4375m12.77734 2.83594l6.25 3.21875m-6.25-3.21875l-.03125-2.45313m13.125 2.98829l6.69141 2.15234m-6.6914-2.15234l-.4336-2.41407m13.63672 2.86329l6.91406 1.25m-5.90625-1.06641l-.375-1.16797m13.15625 3.46484l5.96875-3.70703m-5.10156 3.16797l-1.0586-.61719m12.98048-.59375l7.02343-.20703m-7.02344.20703l-1.21875-2.1328m14.84766.5664l6.39063 2.92187m-6.39063-2.92187l-.14453-2.44922m1.07422 2.875l-.07031-1.22656m12.35156 1.0625l6.60156 2.40234m-6.60156-2.40234l-.34375-2.4297m1.30469 2.77735l-.34375-2.42969m12.60156 2.38672l6.79297 1.79297m-6.79297-1.79297l-.5625-2.39062m15.39062 6.25l3.76953-5.92969m-3.22265 5.0664l-1.22266-.09374m16.33985 1.47656l-.9297-6.96484m.79298 5.94921l-.9961.71485m14.76953.24219l-1.57421-6.84766m1.57421 6.84766l-1.85156 1.60937m15.66016-1.76172l-2.5625-6.54297m2.1914 5.58985l-.80078.9336m16.23828-1.47657l-6.0625-3.55078m6.0625 3.55078l-.10156 2.44922m13.85156-4.79297l-6.93359 1.13281m6.9336-1.13281l1.48828 1.95312m10.5703-4.11718l-4.42187 5.46093m3.78125-4.66406l1.20313.23438m11.91015 4.9375l-2.73828-6.47266m17.61328 5.17578l-5.85546-3.8789m5.85546 3.8789l-.23437 2.4414m13.90234-5.64452l-6.55859 2.52343m6.5586-2.52343l1.85156 1.60937m-2.8086-1.24219l1.85547 1.60938m12.26563-2.3086l-6.25782 3.19141"/><g clip-path="url(#ae)"><path fill="none" stroke="#000" stroke-linecap="round" stroke-linejoin="round" stroke-miterlimit="10" stroke-width=".5" d="M466.6914 318.95313l2.01173 1.40625"/></g><g clip-path="url(#af)"><path fill="none" stroke="#000" stroke-linecap="round" stroke-linejoin="round" stroke-miterlimit="10" stroke-width=".5" d="M465.78125 319.41797l2.01172 1.40625"/></g><path fill="#00f" fill-rule="evenodd" d="M392.67578 467.64844h8.6211V457.5039h-8.6211v10.14453"/><path fill="azure" fill-rule="evenodd" d="M394.51172 459.33594h.83203v2.82422h3.28516v-2.82422h.83203v6.48047h-.83203v-2.91797h-3.28516v2.91797h-.83203v-6.48047"/><path fill="#ff3030" fill-rule="evenodd" d="M215.83594 454.33203h7.69531V444.1875h-7.69531v10.14453"/><path fill="azure" fill-rule="evenodd" d="M217.67188 446.01953h.83203v5.73828h3.1914V452.5h-4.02344v-6.48047"/><path fill="#00f" fill-rule="evenodd" d="M388.23828 432.14063h8.61719v-10.14454h-8.61719v10.14454"/><path fill="azure" fill-rule="evenodd" d="M390.07031 423.82813h.83594v2.82421h3.28516v-2.82421h.83203v6.48046h-.83203v-2.91796h-3.28516v2.91796h-.83594v-6.48046"/><path fill="#00f" fill-rule="evenodd" d="M366.04688 401.07422h8.61718v-10.14844h-8.61719v10.14844"/><path fill="azure" fill-rule="evenodd" d="M367.8789 392.76172h.83594v2.82031H372v-2.82031h.83203v6.47656H372v-2.91406h-3.28516v2.91406h-.83593v-6.47656"/><path fill="#00f" fill-rule="evenodd" d="M197.39063 396.63281h8.61718v-10.14453h-8.61719v10.14453"/><path fill="azure" fill-rule="evenodd" d="M199.22266 388.32031h.83203v2.82422h3.28515v-2.82422h.83594v6.48047h-.83594v-2.91406h-3.28515v2.91406h-.83203v-6.48047"/><path fill="#ff3030" fill-rule="evenodd" d="M322.35938 378.88281h7.6914v-10.14844h-7.6914v10.14844"/><path fill="azure" fill-rule="evenodd" d="M324.1914 370.5664h.83204v5.7422h3.19531v.73827h-4.02734v-6.48046"/><path fill="#ff3030" fill-rule="evenodd" d="M455.50781 374.4414h7.6914v-10.14452h-7.6914v10.14453"/><path fill="azure" fill-rule="evenodd" d="M457.33984 366.1289h.83594v5.7422h3.1914v.73827h-4.02734v-6.48046"/><path fill="#ff3030" fill-rule="evenodd" d="M269.09766 356.6875h7.6914v-10.14453h-7.6914v10.14453"/><path fill="azure" fill-rule="evenodd" d="M270.92969 348.375h.83203v5.74219h3.19531v.73828h-4.02734V348.375"/><path fill="#ffffe0" fill-rule="evenodd" d="M397.96094 414.6211h22.17969v-10.19532h-22.1797v10.19531"/><path fill-rule="evenodd" d="M401.45703 406.26172h.51172v6.29297h-.78906v-4.48828h-1.38672v-.5547l.5586-.0664.2539-.05469.22656-.08984.20703-.14062.17188-.21094.14062-.29297.10547-.39453m4.8164 0l.22657.01953.22266.05469.20703.08984.19531.1211.1836.14843.17187.17578.30078.41797.2461.4961.17968.54296.10938.58204.03906.58984-.03906.59375-.10938.58203-.17969.55469-.24609.5039-.30078.42579-.17188.17968-.18359.15625-.19531.1211-.20703.09375-.22266.05469-.22656.01953-.23047-.01954-.21875-.05468-.20703-.09375-.19922-.1211-.1836-.15625-.17187-.17968-.30078-.42579-.24219-.5039-.17969-.55469-.11328-.58203-.03515-.59375h.83203l.02734.5625.08203.50781.125.4414.16406.375.19141.30079.21094.22266.22265.13671.22657.04688.22656-.04688.22266-.13671.21093-.22266.1875-.30078.16407-.375.125-.4414.08203-.50782.03125-.5625-.03125-.5625-.08203-.5-.125-.4336-.16407-.36718-.1875-.29297-.21093-.21094L406.5 407l-.22656-.04688-.22656.04688-.22266.13281-.21094.21094-.1914.29297-.16407.36719-.125.43359-.08203.5-.02734.5625h-.83203l.03515-.58984.11328-.58204.1797-.54296.24218-.4961.30078-.41797.17188-.17578.18359-.14844.19922-.12109.20703-.08984.21875-.05469.23047-.01953m4.95312 0l.22656.01953.21875.05469.21094.08984.19531.1211.1836.14843.17187.17578.30079.41797.24218.4961.1836.54296.10937.58204.03906.58984-.03906.59375-.10937.58203-.1836.55469-.24219.5039-.30078.42579-.17187.17968-.1836.15625-.1953.1211-.21094.09375-.21875.05469-.22657.01953-.23047-.01954-.21875-.05468-.20703-.09375-.19922-.1211-.18359-.15625-.17188-.17968-.30078-.42579-.24218-.5039-.1797-.55469-.11327-.58203-.03906-.59375h.83593l.02735.5625.08203.50781.125.4414.16406.375.1914.30079.21094.22266.22266.13671.22656.04688.22656-.04688.22266-.13671.21094-.22266.1875-.30078.16406-.375.125-.4414.08203-.50782.03125-.5625-.03125-.5625-.08203-.5-.125-.4336-.16406-.36718-.1875-.29297-.21094-.21094-.22265-.13281-.22657-.04688L411 407l-.22266.13281-.21093.21094-.19141.29297-.16406.36719-.125.43359-.08203.5-.02735.5625h-.83594l.03907-.58984.11328-.58204.17969-.54296.24218-.4961.30079-.41797.17187-.17578.1836-.14844.19921-.12109.20703-.08984.21875-.05469.23047-.01953m4.94922 0l.39063.02734.35546.08203.32422.13672.28125.1875.22657.23438.17578.28906.10937.33203.03516.375-.01953.27344-.0586.23828-.08593.19922-.11329.16797-.1289.14453-.14063.1211-.28515.19921.23047.11719.21093.14844.1797.17187.15233.1914.125.21485.08985.23047.0586.24219.01952.25781-.03515.3086-.10547.32421-.17188.32813-.23828.30469-.3086.26953-.37108.21484-.21485.08203-.22656.0586-.2461.03906-.2578.01172-.26173-.01172-.24218-.03906-.22266-.0586-.20703-.08203-.35547-.21484-.29297-.26954-.22265-.30468-.15625-.32813-.09375-.32422-.03125-.30859h.83593l.02735.25.07812.23828.1211.21094.16015.1836.1914.15234.22266.11718.23829.07032.2539.02734.25781-.02734.23829-.07032.22265-.11718.1914-.15235.16016-.1836.1211-.21093.07812-.23828.02735-.25-.02735-.2539-.07812-.23438-.1211-.21485-.16015-.18359-.1914-.15234-.22267-.11328-.23828-.07422-.2578-.02344-.25392.02344-.23828.07422-.22265.11328-.1914.15234-.16017.1836-.12109.21484-.07812.23437-.02735.25391h-.83594l.01954-.2539.05859-.2422.08984-.22265.1211-.20703.15625-.1914.17969-.17188.21093-.15235.23047-.1328-.28515-.19923-.14063-.1211-.1289-.14452-.11329-.16797-.08594-.19922-.05859-.23828-.01953-.27344h.78516l.02343.21485.06641.1914.10156.16797.14063.13672.16406.11328.1875.08203.20703.05078.21875.01563.22266-.01563.20703-.05078.1875-.08203.16406-.11328.14063-.13672.10156-.16797.0664-.1914.02344-.21485-.02344-.21484-.0664-.1914-.10156-.16407-.14063-.14063-.16406-.11328-.1875-.07812-.20703-.05078-.22266-.01954-.21875.01954-.20703.05078-.1875.07812-.16406.11328-.14063.14063-.10156.16406-.0664.1914-.02344.21485h-.78516l.03516-.375.10937-.33203.17578-.28906.22656-.23438.28125-.1875.32422-.13672.35547-.08203.38672-.02734"/><path fill="#ffffe0" fill-rule="evenodd" d="M270.73047 399.83594h22.17969v-10.1914h-22.1797v10.1914"/><path fill-rule="evenodd" d="M274.23047 391.47656h.50781v6.29688h-.78515v-4.49219h-1.39063v-.55469l.5625-.0625.25-.05469.23047-.08984.20312-.14062.17188-.21094.14453-.29297.10547-.39844m4.8125 0l.23047.01953.21875.0547.20703.08983.19531.1211.1875.15234.16797.17578.30469.41797.24219.49219.17968.54688.11328.57812.03516.59375-.03516.59375-.11328.58203-.17969.55469-.24218.5-.30469.42969-.16797.17968-.1875.15235-.19531.125-.20703.08984-.21875.0586-.23047.01953-.23047-.01954-.21875-.05859-.20703-.08984-.19531-.125-.1836-.15235-.17187-.17968-.30078-.4297-.2461-.5-.17969-.55468L277 395.3125l-.03906-.59375h.83203l.03125.5625.07812.5039.12891.44532.16016.375.1914.30078.21094.21875.22266.13672.22656.04687.22656-.04687.22266-.13672.21094-.21875.1914-.30078.16016-.375.1289-.44531.08204-.50391.02734-.5625-.02735-.5625-.08203-.5-.1289-.4375-.16016-.36328-.1914-.29297-.21094-.21484-.22266-.12891-.22656-.04688-.22656.04688-.22266.1289-.21094.21485-.1914.29297-.16016.36328-.1289.4375-.07813.5-.03125.5625h-.83203L277 394.125l.10938-.57813.17968-.54687.2461-.49219.30078-.41797.17187-.17578.1836-.15234.1953-.1211.20704-.08984.21875-.05469.23047-.01953m4.95312 0l.23047.01953.21875.0547.20703.08983.19532.1211.18359.15234.17188.17578.30468.41797L285.75 393l.17969.54688.10937.57812.03906.59375-.03906.59375-.10937.58203-.17969.55469-.24219.5-.30469.42969-.17187.17968-.1836.15235-.1953.125-.20704.08984-.21875.0586-.23047.01953-.23046-.01954-.21875-.05859-.20704-.08984-.1953-.125-.1836-.15235-.17188-.17968-.30469-.4297-.24218-.5-.17969-.55468-.10938-.58203-.03906-.59375h.83203l.02735.5625.08203.5039.1289.44532.16016.375.1914.30078.21094.21875.22266.13672.22656.04687.22657-.04687.22265-.13672.21094-.21875.1914-.30078.16016-.375.1289-.44531.07813-.50391.03125-.5625-.03125-.5625-.07812-.5-.1289-.4375-.16016-.36328-.19141-.29297-.21094-.21484-.22265-.12891-.22657-.04688-.22656.04688-.22265.1289-.21094.21485-.1914.29297-.16017.36328-.1289.4375-.08203.5-.02735.5625h-.83203l.03906-.59375.10938-.57813.17969-.54687.24219-.49219.30468-.41797.17188-.17578.1836-.15234.1953-.1211.20704-.08984.21875-.05469.23046-.01953m4.95313 0l.38672.02735.35937.08593.32031.13282.28125.1875.23047.23828.17188.28515.10937.33204.03907.3789-.02344.27344-.05469.23437-.08984.19922-.10938.17188-.13281.14453-.13672.1211-.28906.19921.23437.11719.20704.14453.17968.17188.15625.1953.1211.21485.09375.22656.05468.2461.01954.2539-.03516.3125-.10156.32422-.17188.32422-.24219.3086-.30468.26953-.375.21484-.21094.07813-.23047.0625-.24219.03906-.26172.01172-.26171-.01172-.23829-.03906-.22656-.0625-.20312-.07813-.35938-.21484-.28906-.26954-.22266-.30859-.16015-.32422-.08985-.32422-.03125-.3125h.83203l.02735.25391.07812.23438.1211.21484.16015.1836.19531.15234.21875.11328.2422.07422.2539.02343.2539-.02343.2422-.07422.21874-.11328.1914-.15235.16017-.1836.125-.21483.07812-.23438.02734-.2539-.02734-.25-.07813-.23829-.125-.21094-.16015-.18359-.1914-.15234-.21876-.11719-.24219-.07031-.2539-.02735-.2539.02735-.2422.07031-.21875.11719-.1953.15234-.16016.1836-.1211.21093-.07812.23828-.02735.25h-.83203l.01953-.2539.0547-.23828.08983-.22266.125-.21094.15235-.1875.1836-.17578.20702-.15234.23047-.1289-.28515-.19923-.14063-.1211-.1289-.14452-.11329-.17188-.08593-.19922-.0586-.23437-.01953-.27344h.78516l.02344.21485.0664.1914.10547.16406.13672.14063.16406.11328.1875.07813.20703.05078.22266.01953.21875-.01953.20703-.05079.1875-.07812.16797-.11328.13672-.14063.10156-.16406.0664-.1914.02344-.21485-.02343-.21484-.06641-.1914-.10156-.16798-.13672-.13672-.16797-.11328-.1875-.08203-.20703-.05078-.21875-.01563-.22266.01563-.20703.05078-.1875.08203-.16406.11328-.13672.13672-.10547.16797-.0664.1914-.02344.21485h-.78516l.03906-.3789.10938-.33204.17187-.28515.23047-.23828.27735-.1875.32421-.13282.35938-.08593.38672-.02735"/><path fill="#ffffe0" fill-rule="evenodd" d="M336.15234 374.67578h22.1797v-10.19531h-22.1797v10.19531"/><path fill-rule="evenodd" d="M339.64844 366.3164h.51172v6.29298h-.78907v-4.48829h-1.38671v-.55468l.55859-.06641.2539-.05469.22657-.08984.20312-.14063.17578-.21093.14063-.29297.10547-.39453m4.8164 0l.22657.01953.21875.05469.21093.08984.19532.1211.18359.14843.17188.17578.30078.41797.24218.4961.1836.54687.10937.57812.03906.58985-.03906.59375-.10937.58594-.1836.55078-.24218.5039-.30079.42578-.17187.1797-.1836.15624-.1953.1211-.21094.09375-.21875.05468-.22657.01953-.23046-.01953-.21875-.05469-.20704-.09375-.19921-.12109-.1836-.15625-.17187-.17969-.30079-.42578-.24218-.5039-.17969-.55079-.11328-.58593-.03906-.59375h.83593l.02735.5625.08203.50781.125.4414.16406.375.1914.30079.21094.22265.22266.13672.22656.04688.22657-.04688.22265-.13672.21094-.22265.1875-.30078.16406-.375.125-.44141.08203-.50781.03125-.5625-.03125-.5625-.08203-.5-.125-.4336-.16406-.36718-.1875-.29297-.21094-.21094-.22265-.13281-.22657-.04688-.22656.04688-.22265.13281-.21094.21094-.1914.29297-.16407.36718-.125.4336-.08203.5-.02735.5625h-.83593l.03906-.58985.11328-.57812.17969-.54688.24219-.49609.30078-.41797.17187-.17578.1836-.14844.19921-.1211.20704-.08983.21875-.0547.23046-.01952m4.95313 0l.22656.01953.21875.05469.21094.08984.19531.1211.1836.14843.17187.17578.30078.41797.24219.4961.17969.54687.11328.57812.03906.58985-.03906.59375-.11328.58594-.1797.55078-.24218.5039-.30078.42578-.17188.1797-.18359.15624-.19531.1211-.21094.09375-.21875.05468-.22656.01953-.23047-.01953-.21875-.05469-.20703-.09375-.19922-.12109-.1836-.15625-.17187-.17969-.30078-.42578-.24219-.5039-.17969-.55079-.11328-.58593-.03906-.59375h.83594l.02734.5625.08203.50781.125.4414.16407.375.1914.30079.21094.22265.22266.13672.22656.04688.22265-.04688.22266-.13672.21094-.22265.1914-.30078.16407-.375.125-.44141.08203-.50781.02734-.5625-.02734-.5625-.08203-.5-.125-.4336-.16406-.36718-.19141-.29297-.21094-.21094-.22265-.13281-.22266-.04688-.22656.04688-.22266.13281-.21094.21094-.1914.29297-.16407.36718-.125.4336-.08203.5-.02734.5625h-.83594l.03906-.58985.11329-.57812.17968-.54688.24219-.49609.30078-.41797.17188-.17578.18359-.14844.19922-.1211.20703-.08983.21875-.0547.23047-.01952m4.94922 0l.39062.02734.35547.08203.32422.13672.27734.1875.23047.23438.17578.28906.10547.33203.03906.375-.01953.27344-.05859.23828-.08594.19922-.11328.16796-.1289.14454-.14063.12109-.28516.19922.23047.11719.20703.14843.1836.17188.15234.1914.125.21485.08985.23047.05859.24219.01562.2578-.03125.3086-.10546.32422-.17188.32813-.23828.30468-.3086.26953-.37109.21485-.21484.08203-.22656.0586-.2461.03906-.25781.01171-.26172-.01171-.24219-.03907-.22265-.0586-.20704-.08202-.35937-.21485-.28906-.26953-.22266-.30469-.15625-.32812-.09375-.32422-.03125-.3086h.83594l.02734.25.07422.23829.125.21094.16016.18359.1914.15234.22266.1172.23828.0703.2539.02735.25782-.02735.23828-.0703.21875-.1172.19531-.15234.16016-.1836.1211-.21093.07812-.23828.02734-.25-.02734-.2539-.07813-.23438-.12109-.21485-.16016-.1836-.1953-.15233-.21876-.11329-.23828-.07421-.25781-.02344-.2539.02344-.23829.07421-.22266.11329-.1914.15234-.16016.1836-.125.21484-.07422.23437-.02734.2539h-.83594l.01953-.2539.0586-.24219.08984-.22265.1211-.20703.15624-.19141.1797-.17188.21093-.15234.23047-.13281-.28516-.19922-.14062-.1211-.12891-.14452-.11328-.16797-.08594-.19922-.0586-.23828-.01952-.27344h.78515l.02344.21484.0664.1914.10157.16798.13672.13672.16797.11328.1875.08203.20703.05078.21875.01563.22265-.01563.20704-.05078.1875-.08203.16406-.11328.13672-.13672.10546-.16797.06641-.1914.02344-.21485-.02344-.21485-.0664-.1914-.10547-.16406-.13672-.14063-.16406-.11328-.1875-.07813-.20704-.05078-.22265-.01953-.21875.01953-.20703.05079-.1875.07812-.16797.11328-.13672.14063-.10156.16406-.06641.1914-.02344.21485h-.78515l.03515-.375.10938-.33203.17187-.28906.23047-.23438.28125-.1875.32031-.13672.35938-.08203.38672-.02734"/></g></defs><use xlink:href="#ag"/></svg>