<svg xmlns="http://www.w3.org/2000/svg" role="img" xmlns:xlink="http://www.w3.org/1999/xlink" viewBox="142.45 309.95 326.84 171.84"><defs><clipPath id="a"><path d="M144 311.67188h1v168.65625h-1zm0 0"/></clipPath><clipPath id="b"><path d="M144 311.67188h324v168.65625H144zm0 0"/></clipPath><clipPath id="c"><path d="M467 311.67188h1v168.65625h-1zm0 0"/></clipPath><clipPath id="d"><path d="M144 478h4v2.32813h-4zm0 0"/></clipPath><clipPath id="e"><path d="M153 479h9v1.32813h-9zm0 0"/></clipPath><clipPath id="f"><path d="M159 480h2v.32813h-2zm0 0"/></clipPath><clipPath id="g"><path d="M167 478h8v2.32813h-8zm0 0"/></clipPath><clipPath id="h"><path d="M181 477h6v3.32813h-6zm0 0"/></clipPath><clipPath id="i"><path d="M195 476h4v4.32813h-4zm0 0"/></clipPath><clipPath id="j"><path d="M207 478h7v2.32813h-7zm0 0"/></clipPath><clipPath id="k"><path d="M220 479h8v1.32813h-8zm0 0"/></clipPath><clipPath id="l"><path d="M226 480h1v.32813h-1zm0 0"/></clipPath><clipPath id="m"><path d="M233 479h8v1.32813h-8zm0 0"/></clipPath><clipPath id="n"><path d="M240 480h2v.32813h-2zm0 0"/></clipPath><clipPath id="o"><path d="M246 479h9v1.32813h-9zm0 0"/></clipPath><clipPath id="p"><path d="M253 480h2v.32813h-2zm0 0"/></clipPath><clipPath id="q"><path d="M252 480h2v.32813h-2zm0 0"/></clipPath><clipPath id="r"><path d="M260 479h8v1.32813h-8zm0 0"/></clipPath><clipPath id="s"><path d="M266 480h3v.32813h-3zm0 0"/></clipPath><clipPath id="t"><path d="M273 478h8v2.32813h-8zm0 0"/></clipPath><clipPath id="u"><path d="M287 478h7v2.32813h-7zm0 0"/></clipPath><clipPath id="v"><path d="M300 478h7v2.32813h-7zm0 0"/></clipPath><clipPath id="w"><path d="M313 478h8v2.32813h-8zm0 0"/></clipPath><clipPath id="x"><path d="M326 478h8v2.32813h-8zm0 0"/></clipPath><clipPath id="y"><path d="M339 479h9v1.32813h-9zm0 0"/></clipPath><clipPath id="z"><path d="M346 480h3v.32813h-3zm0 0"/></clipPath><clipPath id="A"><path d="M353 479h8v1.32813h-8zm0 0"/></clipPath><clipPath id="B"><path d="M359 479h2v1.32813h-2zm0 0"/></clipPath><clipPath id="C"><path d="M366 479h9v1.32813h-9zm0 0"/></clipPath><clipPath id="D"><path d="M372 480h2v.32813h-2zm0 0"/></clipPath><clipPath id="E"><path d="M379 479h9v1.32813h-9zm0 0"/></clipPath><clipPath id="F"><path d="M386 480h3v.32813h-3zm0 0"/></clipPath><clipPath id="G"><path d="M393 479h8v1.32813h-8zm0 0"/></clipPath><clipPath id="H"><path d="M399 480h1v.32813h-1zm0 0"/></clipPath><clipPath id="I"><path d="M407 477h6v3.32813h-6zm0 0"/></clipPath><clipPath id="J"><path d="M420 478h8v2.32813h-8zm0 0"/></clipPath><clipPath id="K"><path d="M433 478h8v2.32813h-8zm0 0"/></clipPath><clipPath id="L"><path d="M446 478h8v2.32813h-8zm0 0"/></clipPath><clipPath id="M"><path d="M452 480h2v.32813h-2zm0 0"/></clipPath><clipPath id="N"><path d="M460 478h7v2.32813h-7zm0 0"/></clipPath><clipPath id="O"><path d="M144 464h4v6h-4zm0 0"/></clipPath><clipPath id="P"><path d="M144 451h4v5h-4zm0 0"/></clipPath><clipPath id="Q"><path d="M144 437h3v6h-3zm0 0"/></clipPath><clipPath id="R"><path d="M144 424h4v6h-4zm0 0"/></clipPath><clipPath id="S"><path d="M144 411h4v5h-4zm0 0"/></clipPath><clipPath id="T"><path d="M144 398h4v5h-4zm0 0"/></clipPath><clipPath id="U"><path d="M144 383h2v8h-2zm0 0"/></clipPath><clipPath id="V"><path d="M144 371h4v6h-4zm0 0"/></clipPath><clipPath id="W"><path d="M466 373h2v3h-2zm0 0"/></clipPath><clipPath id="X"><path d="M144 359h4v3h-4zm0 0"/></clipPath><clipPath id="Y"><path d="M144 345h4v5h-4zm0 0"/></clipPath><clipPath id="Z"><path d="M465 344h3v2h-3zm0 0"/></clipPath><clipPath id="aa"><path d="M144 330h2v8h-2zm0 0"/></clipPath><clipPath id="ab"><path d="M466 331h2v2h-2zm0 0"/></clipPath><clipPath id="ac"><path d="M144 316h1v9h-1zm0 0"/></clipPath><clipPath id="ad"><path d="M144 315h2v3h-2zm0 0"/></clipPath><clipPath id="ae"><path d="M466 318h2v3h-2zm0 0"/></clipPath><g id="af" clip-path="url(#clip1)"><path fill="#fff" fill-opacity="0" fill-rule="evenodd" d="M0 0h1000v1000H0zm0 0"/><path fill="#d3d3d3" fill-opacity="0" fill-rule="evenodd" d="M162.15234 355.86719l-.23437.29297.0586.23437.11718.17188.17578.23437.29297.34766.11328.0586.11719-.17188.0586-.23438.17577-.17578.46485-.17578h.69922l.23437.29297.28906.8164.0586.17579.17578.23046.35156.23438.69922.69922.17188.17578.23437.34765.23438.41016.28906.58203.41015.46485.23047.23437.23438.17578.11719.23047.17578.29297.17187 1.16406v.23438l.0586.28906.05859.11719.11719.11719.34765.41015.11719.17188.17578.17578.17578.23437.11719.17188.17188.35156.05859.23438.23437.40625.23438-.0586-.17578.17578-.0586.92969h-.58203l-.23437-.11328-.34766.11328-.11719.11719-.05859.29297-.0586.17578-.11718.17187-.46484.29297-.0586.23438-.0586.11328v.64453l.0586.17187v.41016l.0586.0586v.40624l.05859.40625.11719.17579.05859.05859.23047.64062-.0586.29297v.69922l-.05859.58203v.23438l-.0586.23047-.05468.35156v1.92187l.05469.1172h.42578l-.36719.11718-.02344.35156.89063 1.16797 1.74219.53906 1.33984.35938v.53906l.08984.8086.53516.71484 1.51953.26953.89063-.08594.08984 1.16406.53516.1797 1.16015-.1797 2.05469-.98437 1.16016-.36328 1.8789-.17578 1.69531-.1797-.17968.71876-1.51563.08594-1.25.08984-.80469.26953-1.07421.8086.26953.71875.53515.89843-.17968.625-.26563.8086.26563 1.07812.625.89844.80468.17969 1.25-.1797-.26562.72267.09766.5039.05468.29297v.17188l.0586.29296v.40625l.17578.1172.35156.11718h.40625l.29297-.17578.11328-.11719.0586-.11719.11718-.23047.0586-.17578.35156-.46484.23047-.17578.17578-.0586.17578.0586.0586.17578.11718.98828.05469.46875.0586.17188.11718.23437.17578.0586.8164.05859h.28907l.11719.23437.05859.40625.0586.35156v1.10547l.11718.29297.11719.34766.28906.69922.17578.35156.58203.7539.35157.17579.17187.0586.46875.23437.64063.46484.34765.23438.29297.17578.29297.05468.23047.0625.8164.34766.29297.17578.11328.17188.35157.35156.11719.17578.52343.64063v.28906l.0586.35156v.34766l.05859.35156.0586.28906.11718.0586.17188.05859h.17578l.58203.23437.17578.1172.17578.28905.17578.23438.11328.23437.29297.23047.11719.11719v.41016l.0586.05468.28906.23438.23437.11719.0586.11718.11718.17188.0586.11719.23047.23437.05859.17578.23437.0586.1172.05859-.1172.11328-.05859.11719v.11719l-.11719.29296-.11719.28907v.58203l.17579.11719.11718.05859.0586.11719.11719.11719.11328.05859.17578.34765.0586.35157.05858.40625v.17578l-.05859.17578-.11719.69922v.17187l.1172.17579.29296.29296h.40625l.17578.1172.11719.17187.11719.29296v.23438h-.52735l-.23047-.23438h-.23437l-.17578.0586-.0586.69922.0586.34765.11719.17579.17578.41015.11718.23047.28907.46875.17578.05469h.52344l.23437.0586.75781.64062.0586.29296v.23438l.05859.0586.23047.34765v.35156l-.11719.17188v.29297l.29297.28906.29297.17578.17187.0586.29297.17577.29297.1172.58203.40624.28906.23438.29297.17578.21875.16015.01563.01172.23047.17579.64062.52343.17578.23438.1172.17578.17577.17578.11328.17188v.64062l.1172.17578.46874.11719.58203.11719.23438.05859.23047.11328.29297.11719.11328.0586.58593.35156.28907.17187.17578.0625.17578.05469.17578.0586.69922.35155.28906.17579.23438.05468.28906.17578.23437.1172.64063.40624.29297.11719.17187.0586.23438.05859.41015.05859.23047.0586.23438.11718.0586.17188-.41017.17578.46875.0586.0586.29296.11328.23438.17578.05468.23438.0586.17578.05859.40625.11719.64062.23437.11719.17188.0586.23437v.17578l-.0586.1172-.0586.40624.23438.23438.11719.05859.34766.11719.64062.23047.17578.11718.28906.1172.17578.17577.23438.46485.58203 1.10546.17578.17579.34766.17578.17578.11719.35156.11718 1.04688.52344.23437.0586.46485.11327.29297.0586.46484.17578.75781.58203.23438.23438.34765.46484.17578.17578.28907.23438.8164.69921.29297.17579.28906.28906.29297.17578.29297.28906.69531.64063.17578.17578.29297.23437.28907.23438.46875.28906.64062.58203.34766.23438.23437.29297.34766.34765.35156.46485.9336.99218.34765.40625.11719.17579.23437.05859.11328.11719.64454.17578.23047.11328.23437.0586.29297.17577.23047.1172.9336.69921.40624.40625.23438.17578.40625.17578.23437.11719.8164.34766.34766.23437.23438.11719.29297.28906.23047.11719.7578.35156.35157.17188.23047.05859.29297.11719.23437.0586.8711.17577h.8164l.46875.23047.17188.0586.875.69921.46484.1172.29297.05858.17578.0586.23047.0586.46875.05859.34766.05859.35156.0586.40625.05859h.29297l.17187.0586v.23046l.17578.17578h.29297l.34766.0586.35156.05859.69922.11719h.64063l.46484-.23438.29297-.17578.17187-.11719.41016-.17187.28906-.17578.9336-.46485.46875-.29297.52343-.29296.46485-.17188.46484-.17578 1.05078-.46485.28906-.11718.41016-.11719.28906-.11719.52735-.17578 1.51562-.69922.58203-.34765.28907-.0586.29297-.0586.34765-.11718.875-.23047.35156-.11719h.11329l.23437-.05859.875-.23437.23438-.0586h.8125l.35156-.0586.8164-.11718.17188-.0586.35156-.05468.29297-.0586.23047-.05859.8164-.17578.17579-.0586h.34765l.23438-.05859.46484-.11718.75781-.17188.23438-.0586h.34765l.41016-.11718.28906-.0586 1.28516-.05859h.28906l.41016-.0586.23047-.05858h.17578l.875-.1172h.40625l.41015-.11718h.34766l.35156-.11328.8711-.0586h1.75l1.04687.28907.41016.11719.28906.11718.35156.11719.28907.11719 1.05078.17187.28906.0586h.29297l.29297.05859.17187.0586.41016.05859.17187.0586.1172.05858h.11718l.11719.0586.35156.0586h.11328l.41016.0664 1.92187.39453 1.92578.39453 1.51953.44922 1.69532.71875 2.14453.80469 1.60547-.71875 1.42968-.80469 1.16016-1.07813 1.25-.44921 3.03516-.71875 1.875-.35938 2.14453-1.34765 2.23437-1.25391 2.5-1.25781 1.69531-.44922 1.78516-.17969 1.16016-.26953.625.53906 1.33984-.26953.71485-.98828.98437-1.34375.44531-.17969.80469-.35937 1.875-.53907 1.78516-.44921 1.25-.26954 1.16015-.08984 1.69922-.08984 1.96094-.26954 1.25-.08984h.53906l.625-.08984h.89063l2.14453-.17969 2.41015-.17969 2.58985-.08984 1.69531.17969 1.60938.08984 1.42968.35938 1.16016.71875 1.875.98828 1.16015 1.52734.26563.71484.6289.08985.35548.89844.53515.53906.53516 1.52734 1.07422.35938h.53515l-.80469.53515.08985 1.70703.71484 2.69532.89063.80468.89453.98829.71484 1.2578 1.78516.53907 1.51953-.17969.35547 1.34375 1.60937-.80469.98047-.53906.26953.26953.31641-.21484.21875-.14453.80078.44922.44922-.35938h.35547l.53515-.26953.53907-.71875.53515-.26953.625-.98828 1.16016.44922.83984.3711 1.39454.61718 1.6953-.17969h1.60548l1.78515.08985.17969-1.70704.53516-1.34375.80468.26954.4922.84765.40233.40625-.08984.53906v.35938l.71485.44922.71093-.26953h1.42969l.35938.98828.4453 1.25781.71485 1.34375 1.25.6289 1.69531.62891.71485-.17969.17969-.53906.98046-.08984.44922.35937.08594 1.25782-.26563.6289-.53515.17969v.53906l.71484.98438.26563.53906.98437.98828.80078 1.07813-.26562.35937-.08985.89844-.625 2.33203-.35546 2.0664-.08985 1.79298-.17969.71875-.08984.53906v1.4375l-.98047 1.88281-.35937 1.70703-.53516.89844-.80469 1.16797-.26562.53906 2.05469 1.2539.08593.35938-.35546.53906-.08985-.17968v.80859l.08985 1.4375-.44532.71484-1.07422.09375-.26562.71485.53515.89844.8047.71875 1.16015.80859 1.33984.26953.44531.35938-.35546.44921-1.78907-.08984-1.25-.44922-.71484-.71875-.625-.08984-.17578 3.58984-.1875 1.3086h89.35937V311.70313h-55.26953v49.08203l.76172.125 3.28906.54296 2.02344 2.83594v2.7539l2.35156.33204 2.34766.33203h4.05078l-1.3789 4.16016-2.02344.70703-2.02344.70312-.54297.34375-2.59375 1.6172-.1875.11718-2.02344-2.07813-.73046-2.74218-2.67188-2.07813-1.375-3.5-.0664-.08203-1.95704-2.67188 2.75-1.41796v-49.08204H294.42187v91.41407l.1172.03125.1328.01172.07422.07421.10547.04688.08985.0586.08593.05859.08985.0586.29687.29687.0586.08984.03125.11719.02734.11719.01563.13671-.03125.1172-.0586.08983-.0586.08594-.04296.10547-.04688.10156-.02734.1211v.14453l.17578.26953.14844.14844.07422.08594.07422.07421.04296.10547.0625.08985.0586.08593.04297.10547.0586.08985.04687.10156.04296.10547.0586.08594.11719.17968.07421.07422.0625.08594.0586.08984.04297.10547.0586.08985.05858.08593.0625.08985.0586.08984.04297.10156.11719.17969.07421.07422.0586.08594.07422.07421.08984.0586.10547.04687h.14844l.1328-.01562.13282.01562.10156-.04687.07422-.07422.04688-.10156-.01563-.13281v-.14844l-.04687-.10547-.02735-.11719-.04687-.10156-.02735-.1211-.04296-.10156-.0625-.08984-.04297-.10156-.04297-.10547-.03125-.11719-.01563-.13281-.01171-.13672.08593-.0586.0586-.08593.12109-.03125.04297.10547.01562.1328v.1172l.0586.10156.0586.08984.08983.0586.14844.14843.0586.08985.04296.10547-.01171.10156.08593.0586.10547.04687.08594.0586.08984.05858.07422.07422-.11719.02735-.10546.04687-.08594.0586-.07422.07421-.0586.08985-.0625.08594-.02734.12109-.04687.10156-.04297.10547-.03125.11719-.01172.13281-.01563.13281v.14844l.02735.11719.04687.10547.04297.10156.0586.08984.07421.07422.08985.0586.07422.07421.08984.0586.0586.08984.04296.10547.04688.10156.11719.03125.1328.01563h.14845l.11718-.03125.10547.04297.04297.10547.04688.10156.02734.1211L299.5 410l.02734.11719.03125.1211.02735.11718.10547.04297.10156.04687.13281-.01562.14844.14844.0625.08593.07422.07422.07031.07422.08984.0625.10547.04297.10156.04297.1172.03125.13671.01562.11719-.03125.07422-.07422.02734-.11718-.01172-.13282-.03125-.12109-.02734-.11719.04297-.10547h.11719l.08984.0625.11719.02735h.14843l.13282.01562h.14843l.13282.01563.1328-.01563h.14845l.1328-.01562.13282-.01172.13672.01172.11719-.02735.13281-.01562.1914-.0586-.05859.17579-.01562.1328-.02735.1211-.01562.13281-.0586.08594-.1328.01563-.10548.04687-.10546.04297-.1172.03125-.11718.02735-.26563.03125h-.14843l-.13281.01562-.07422.07422.05859.08594.14844.14843.11719.1797.07421.0703.08985.0625.08984.0586.08594.0586.08984.05858.10156.04297.10547.0625.10547.04297.08594.0586.10547.04687.10156.04297.17969.11719.0586.08984-.04298.10156-.04687.10547.01562.13281.22266.22266.0586.08985.04296.10156.03125.1211.04297.10155.01563.13282.03125.11718.01171.13672.03125.11719.14844.14844.10156.04297.10547.04296.1172.03125.1328.01563.13672.01563h.11719l.11719-.03125.08984-.0586.04297-.10547.04688-.10156.04296-.10547.03125-.11719.01172-.1328v-.14845l-.01172-.1328-.01562-.13282-.03125-.11719-.04297-.10547-.04688-.10547-.04296-.10156-.04297-.10547-.01563-.13281.01563-.13281.02734-.11719.03125-.11719.02735-.1211.04687-.10155.08984-.0586.08594-.0625.07422-.07422.08984-.05859.22266-.22266.0586-.08593.07421-.07422.11719-.17969.0586-.08594v-.14844l-.07423-.07421-.10156-.04688-.10547-.04297-.10156-.04297-.0586-.08984-.04687-.10547-.02734-.11719.08984-.05859.11719-.03125.10156-.04297.17969-.11719.14844-.14843.01172-.13282-.01172-.10546-.08985-.0586-.1328.01563h-.14845l-.1328.01562-.13282-.01562-.1211-.03125-.08593-.0586-.07422-.07422-.0586-.08984-.0625-.08594-.11718-.17969-.0586-.08593.03125-.1211.08594-.05859.1211-.03125.05859-.08594v-.1211l-.03125-.11718-.0586-.08984-.05859-.08594-.04687-.10547-.02735-.11719-.01562-.1328.0586-.08985.07421-.07422.08984-.0586.1172-.17968.07421-.07422.0586-.08594.14843-.14844.1211-.03125.1328-.01562.13282.01562.07422.07422.04297.10547.01562.13281-.03125.1172-.11719.03124-.1328.01172-.14844.14844-.04297.10547-.04688.10156-.02734.1211-.03125.11718v.14844l.03125.11719.04297.10546.05859.08985.07422.07031.07422.07422.11719.03125.12109.02734.11719-.02734.1328-.01563h.1172l.08984.0586.07422.07422.04687.10546.0586.08594.10156.04688.13281.01562.10547.04297.08594.0586-.01172.10546-.07422.07422-.17969.11719-.05859.08984-.08984.0586-.07032.07422-.07421.07421-.0625.08985-.02735.11719-.01562.1328.01562.13282-.01562.13281v.14844l.01562.13281.02735.1172.03125.12108.07421.07422.08985.0586.08594.0586.08984.05858.11719.03125v.08594l-.10157.04688-.08984.0586-.26563.03124-.11718.02735h-.14844l-.10547.04296-.10156.04688-.0586.08984-.0625.23438-.01171.13281-.03125.1211-.01563.1328v.29298l-.01172.1328.01172.13673.01563.1328.1328.01563.13282.01172.1211.03125.08593.0586.07422.07421.04688.10547.04296.10157.01563.1328v.44532l-.01563.13281v.44532l.03125.26562.02735.11719.01562.13281.03125.11719.08594.21094.03125.26562v.14844l-.03125.11719-.02734.11718-.03125.1211-.02735.11719-.03125.11718-.03125.1211-.01171.1328-.01563.13282.08984.0586.1172-.03125.10155.01562.04688.10547-.03125.26562v.44141l-.04297.10547-.04688.10547-.04296.10156-.04297.10547-.0586.08594-.03125.12109-.04296.11719-.03125.11719-.01563.1328.01563.13282.05859.08984.10547.04688.08594.0586.05859.08593-.01172.13672-.03125.11719-.04297.10156v.44531l-.01562.13281v.14844l-.03125.11719-.04297.10547-.02735.11719-.04687.10546-.04297.10157-.03125.12109-.02734.11719-.03125.13281-.03125.11719-.02735.11719-.04297.10546-.03125.1172-.03125.12108-.01171.13282-.01563.13281v.29688l.02734.11718v.14844l.04688.39844.02734.11719.0586.08984.12109.03125h.14844l.13281-.01563.0586.08985v.11719l-.0586.08984-.08984.0586-.10157.04296-.10546.04688-.08985.05859-.08594.0586-.13671.01562-.1172-.03125-.1328-.01563-.10157.04688-.0625.08594-.01172.13671-.01562.13282-.03125.11719-.02735.11718-.01562.13281-.03125.1211v.29687l.01563.13282.03125.11718v.14844l.01171.13281v.14844l-.02734.11719-.04688.10156-.02734.1211-.03125.11718-.0586.08985-.07421.07421-.10156.04297-.10547.04688-.11719.02734-.1211.03125-.10156-.04687.0586-.08594.10547-.04688.02734-.11718.03125-.11719.02734-.1211.03125-.11718v-.14844l.01563-.13281-.03125-.11719-.04297-.10547-.10547.01563-.07422.07422-.10156.04296-.08984.0625-.07422.07422-.04297.10157-.01563.1328-.03125.1172L304.25 426l-.03125.11719-.02734.11719-.03125.12109-.02735.11719-.03125.11718-.04297.10547-.08984.0586h-.08984l-.1172-.03125-.03124-.08594.01562-.13672-.03125-.11719v-.14844l-.01171-.1328v-.14844l-.0625-.23438-.02735-.1211-.04297-.10156-.04687-.10546-.0586-.08594-.05859-.08985-.04297-.10546-.0625-.08594-.14844-.14844-.0703-.07422-.10548-.04687-.10547-.04297-.10156-.04297-.29687-.29688-.08985-.07421-.08594-.0586-.10546-.04297-.08985-.0625-.08594-.0586-.10546-.04296-.08985-.0586-.08594-.0625-.07421-.0703-.10547-.04688-.08594-.0586-.10547-.04296-.08984-.0625-.10156-.04297-.10547-.04297-.08594-.0586-.10547-.04687-.10547-.04297-.10156-.04687-.08985-.0586-.10156-.04297-.10547-.04296-.08984-.0625-.11719-.02735-.13281-.01562-.13281.01562H299.75l-.13281.01563-.11719-.03125-.08984-.0586-.07422-.07422-.08985-.05859-.10156-.04688h-.14844l-.12109-.02734-.10156-.04297-.07422-.07422-.11719-.17968-.08984-.0586-.10156-.04297-.08985-.0625-.10547-.04296-.08984-.0586-.08594-.0586-.10547-.04687-.0586-.08594-.05858-.08984-.04297-.10547-.04688-.10156-.07422-.07422-.08594-.0586-.07421-.07421-.08985-.0586-.22265-.22265-.04297-.10547-.03125-.26563.10547-.04296h.14453l.10547.04296.07421.07422.08985.0586.08594.0586.10546.04687.08985.05859.14844.14844.0703.07422.14845.14843.0625.08594.07421.07422.08594.0586.07422.07421.08985.0625.08984.0586.08594.05859.26953.17578.10156.04688.10547.04296.10156.04297.04688-.07421.05859-.08594.07422-.07422.07031-.07422.10547.04297.07422.07422.0586.08984.04296.10156.04688.10547.04296.10547.1211.02735.11719-.02735.07421-.08984.04297-.10547.0586-.08985.07422-.07421.10546-.04297.1172-.02735.1328.01172.08985.0586.14844.14843.05859.08985.04297.10547.04687.10156.04297.10547.04297.10156.10547.04688.10547.04296.13281.01563.08594-.0586.0586-.08984.07421-.07422.10547-.04297.11719.02735.10547.04687.10156.04297.10547.04297.10156.04688.17969.11718v.11719l-.01563.13281.01563.13281.01562.13672.0586.08594.10156.04688.1211.02734.11718.03125h.14844l.11719-.03125.05859-.08984.17969-.1172.05859-.08983.07422-.07422.0586-.08594.11718-.17969.17969-.11719.11719.03125.08984.0586.04297.07422-.01563.1328v.1172l.08985.05859h.14843l.13282-.01563.1328-.01171.26563-.03125.10547-.04297.11719-.03125.1211-.02735.07421-.07421.07031-.07422.0625-.08985-.01562-.10547-.04688-.10156-.10156-.04297-.10547-.01562-.11718.02734-.26563.03125h-.14844l-.07421-.07422-.08985-.0586-.11719-.03124-.11718-.02735-.13282-.01562h-.14843l-.13282.01563h-.29687l-.10547-.04688-.14844-.14844-.04297-.10156-.05859-.08984.22266-.22266.08593-.0586.10547-.04296.11719-.03125.13281-.01563.13281.01563.13672.01562.10157.04297.1328-.01172.08985-.0625.10156-.04297.0625-.08984-.04687-.10156-.08984-.0586-.1172-.03125-.10155-.04296-.0586-.08985-.0625-.08984v-.11719l.01563-.13281.10547-.04688.07421-.07031v-.1211l-.08984-.05859-.03125-.11719.08985-.05859.07421-.07422.04297-.10547.0586-.08984.04687-.10156.01563-.13281v-.14844l-.04688-.10547-.04297-.10156-.08984-.0586-.13281-.01562-.10157-.04297-.13671-.01563-.1172-.03125h-.4453l-.13282-.01562-.13281-.01172-.13281-.01563-.11719-.03125h-.14844l-.13281-.01562-.13281-.01172-.26563-.03125-.1211-.04297-.08593-.0586-.07422-.07421v-.14844l.01172-.13281.10547-.04688.10156-.04296.13281-.01563h.15235l.13281-.01562h.29297l.1211.03125.10156.04296.08984.0586.23438.0625.12109-.04688.08984-.05859.10156-.04297.13282-.01562.10547.04296.10156.04688.13281.01172.1211-.02735h.14453l.12109-.03125.11719-.02734.10547-.04687.07421-.07422.08594-.0586.14844-.14843.0586-.08594.04687-.10547.02734-.11719.01563-.10547-.10156-.04296-.08985-.0586-.11719-.03125-.10546-.04297-.08985-.0625-.07422-.08594-.07422-.07421-.10156-.04297-.10547-.04688-.10156-.04297-.0586-.08984-.04687-.10156-.08594-.21094-.0625-.08594-.05859-.08984-.07422-.07422-.08594-.0586h-.26953l-.11719.03126-.08984.05859-.10156.04297-.13281.01562-.10547-.01562-.02735-.11719-.0625-.08984-.11718-.03125-.10157-.04297-.14843-.14844-.03125-.11719-.01563-.10546.07422-.07422.17969-.1172.11719-.02733.11718-.03125.13672.01562.10156.04297.10547.04297.10156.04687.10547.04297.1172.03125.1328.01563.1172.02734.1328.01563.10547-.01563.08985-.0586-.07422-.07421-.10547-.04297-.07422-.07422-.07422-.08984-.14844-.14844-.08593-.0586-.08985-.05859-.07422-.07422-.08984-.0586-.10156-.04687-.1211-.02734-.10156-.04688-.10547-.04296-.11719-.03125-.10156-.04297-.1211-.03125h-.14843l-.11719.03125-.10546.04297-.08594.0625-.17969.11718-.08594.0586-.08984.0586-.10547.04687-.08594.05859-.10547.04297-.10156.04297-.10547.04687-.07422.07422-.05859.08985-.0586.08593-.04687.10547-.0586.08594-.07421.07422-.13281-.01172-.1172-.03125h-.11718l-.07422.07422-.08984.0586-.07422.07421-.08984.0586-.08594.05859-.10547.04687-.10156.04297-.13672.01563-.10156-.04297-.14844-.14844-.10547-.04688h-.08594l-.10547.04688-.10156.04297-.1211.03125-.11718-.03125-.07422-.07422v-.11719l.03125-.1211.07422-.0703.0586-.08985.07421-.07422.11719-.03125.10547-.04296h.29297l.13281-.01563.13672-.01563.10156-.04296.08985-.0586.10156-.04687.08984-.0586.13281-.01171.08985.05859.13281.01172.08984-.0586.08594-.05859.10547-.04297.08984-.0586.08594-.0625.08985-.05859.14843-.14843.0586-.08594.05859-.08985.10547-.04296.13281-.01563.11719.02735.1211.03125.05859-.0586.05859-.08984.03125-.26563.02734-.11719.10547.01172.13281.01563.10157-.04297.08984-.0586.0586-.08984.07421-.07422.0586-.08984.04687-.10156.01172-.13281-.01172-.13282-.04687-.10547-.14844-.14843-.0586-.08985-.05859-.08594-.04297-.10546v-.44532l.01563-.1328v-.14845l.01172-.1328-.0586-.0586-.08984.0586-.10156-.04298-.17969-.11719-.08594-.05859-.0625-.08984-.0586-.08985-.07421-.07421-.08594-.0586-.1211.03125-.10155.01172-.10547.04688-.08594.05859-.10547.04297-.14844.14844-.08984.05859-.08594.0586-.08984.0625-.10547.04296-.13281.01563v-.1211l.10547-.04297.11718-.03125.07422-.0703.04297-.10548v-.14844l-.02734-.11718-.14844-.14844-.13281-.01563h-.14844l-.11719.03125-.10547.04297-.10156.04297-.08984.0625-.11719.02735-.07422-.07422.01172-.13281-.04297-.10157-.04297-.10547-.08984-.05859-.11719.02734-.1211.03125-.11718.03125-.10156.04297-.1211.03125-.10156.04297-.10547.04297-.08984.0586-.10156.01562v-.11719l.01562-.13281-.0586-.08985-.07421.04297-.14844.14844-.0586.08985-.07421.07421-.04688.10547-.04296.10156-.07422.07422-.0586.08985-.07422.07422-.05859.08593-.07422.07422-.08984.0625-.07422.07031-.07422.07422-.10156.01563-.13281.01562-.10547-.04296v-.1211l.14843-.14844.04297-.10156.0586-.08984.04687-.10156.04297-.10547.0586-.08985.03124-.11719.04297-.10156.03125-.1211.02735-.11718.04687-.10547.04297-.10156.04297-.10547.07422-.07031.08984-.0625.08985-.0586.10156-.04296h.29687l.26563-.03125.10547-.04297-.07422-.07422-.11719-.03125-.10547-.04297-.08984-.0586-.10156-.04687-.08985-.0586-.10156-.04296-.10547-.04297-.08984-.0625-.08594-.0586-.10547-.04296-.10156-.04297-.1211-.03125-.11718-.03125-.10157-.04297L297.5 410.25l-.10156-.04297-.08985-.0586-.04296-.10546-.01563-.13281.10156-.04297.13281-.01563.13672.01563.13282-.01563.10156-.04297.0586-.08984.01562-.10547-.08985-.0586-.07421-.07421-.10157-.04297-.08984-.0586-.14844-.14843-.04297-.10547-.01562-.13281v-.29297l-.0586-.08985-.08984-.05859-.07422-.07422-.04297-.10547-.03125-.11718-.0586-.08985-.07421-.07422-.11719-.02734-.07422-.07422-.08984-.0586-.08984-.0625-.08594-.05859-.07422-.07421-.0586-.08594-.04687-.10547-.08594-.0586-.14843-.14843-.19532-.0586-.1328.01563-.10157.04297-.07422.07422-.04688.10156-.04296.10547-.0586.08984-.0586.08594-.29687.29687-.08984.0586h-.08594l-.0625-.08594-.04297-.10547.03125-.11719.0586-.08984.02734-.11719-.01172-.13281-.08984-.0625-.10547.04688-.11719.02734-.11719.03125-.26953.17578-.10156.04688-.11719.02734-.10546.04687-.08985.0586-.10156.04297-.0586-.08594-.04687-.10547.01563-.13281.04687-.10547.07031-.07422.07422-.07031.0586-.08985v-.14843l-.04297-.10547h-.23829l-.10156.04687-.03125.11719-.02734.11719-.03125.1211-.07422.04296-.13281.01563-.07422-.04688-.04297-.10156-.04297-.10547-.04687-.10156-.04297-.10547-.1211.03125-.10156.04297-.13281.01562-.11719.03125-.10547.04297-.08984.0586-.10156.04687-.1211.02734-.13281.01563-.10156-.04297-.0586-.08985-.04687-.10546-.04297-.10157-.04297-.10546v-.1172l.0586-.08984.08593-.05859.17969-.11719.10156-.04687.10547-.04297.10547-.0586.10156-.04296.08985-.0625.10156-.04297.10547-.0586.10156-.04687.08984-.0586.10547-.04296.10156-.04297.08985-.0625.10156-.04297.13672-.01563.11719.03125.10156.04297.1211.03125.10156.04297.10546.04688.10157.04296.10547.04297.10156.04688.10547.04297.10156.04297.10547.04687.08594.0586.10546.04296.1172.03125.10546.04297.10156.04688.08985.0586.10547.04296.10156.04297.10547.04687.11719.02735.10156.04687.1211.02735h.14843l.08594-.0586.01562-.10156.0586-.08984-.02735-.1172-.07422-.07421-.11719-.17969-.07421-.07422-.08985-.07421-.17969-.1172-.08593-.05859-.10547-.04296-.10156-.04688-.26954-.17578-.05859-.08985-.07422-.07421-.0586-.08985-.04296-.10156-.03125-.11719-.01563-.13672v-.5625l-.01171-.1328-.01563-.13282-.03125-.11719-.01562-.13281-.01172-.13281-.03125-.1211-.22266-.22265-.0586-.08594-.01562-.10547.03125-.11719.13281-.01562v-91.41406H172.9922v1.45312l-.0586.23438-.35156 1.05078-.17187.52343-.1172.34766-.17577.41016-.11719.17187-.23438.29297-.23046.0586h-.35157l-.11718.05859-.23047.40625v.29297l.11719.17578.23046.23047.1172.23437.64062.75781.29297.46485.17578.23437.23047.35156.23437.34766.64063.8164.17578.46485.17187.41016.11719.69531.17578.46875.11719 1.39844.0586.46484v.875l.11718 1.04688v4.78125l-.0586.46484-.35156 1.28125-.17578.52344-.11328.41015-.35156.9297L172.93359 336l-.23437.58203-.11719.17578-.17187.34766-.17578.40625-.35157.8164-.0586.29297-.11327.29297-.11719.28906-.0586.17579-.11718.875-.0586.40625-.05859.11718-.0586.17579-.05859.17187-.23047.52734-.11718.17188v.23437l-.11719.23438-.0586.17187-.17577.58594v.28906l-.0586.17579v.29296l-.0586.11329-.05859.52734v.17187l-.05468.23438v2.6211l-.17578.8164-.1172.17578-.17577.23438-.1172.17187-.11327.23438-.58594.93359-.23047.28906-.29297.46485-.17578.23437-.28906.35156-.35156.69922-.11328.23047-.17579.41016-.17578.23046-.40625.52735-.8164.69922-.29297.17187-.28906.23438-.17579.11719-.17578.17578-.52344.40625-.52734.17578-.17187.17578-.23438.05469-.64062.17578h-.75782m12.21094 31.02344l-1.07422.44921.35938.89454 1.25-.71485.44531-.53906-.98047-.08985"/><path fill="#d3d3d3" fill-opacity="0" fill-rule="evenodd" d="M201.50781 416.59766h-.89453l.44922.6289.98047.35938.80469-.08985.4453-.98828-.17577.08985-.71485-.35547-.89453.35547m154.6211 59.0703l-.0586-.52343v-.29297l.11328-.29297.0586-.23046.46875-.46875h.11328l.11719-.11329.11718-.05859h.17579l.23437-.0586h.34766l.23437.0586.11719.0586.23047.17187.0586.17578.11718.58203v.29297l-.11719.17578-.17187.28906-.17579.17579-.52734.52343-.23047.23438-.11719.0586h-.17578l-.11718-.0586-.40625-.29297-.17579-.11719-.11718-.0586-.0586-.11327-.05468-.1172m6.64062-10.95702l-.0586-.17188v-1.10937l.0586-.17188.17578-.0586.17188-.05858h.17578l.23437-.0586.1172.0586.05858.69921-.05859.17188-.11719.17578-.11718.0586-.23438.52343-.11328.0586h-.23438l-.05859-.1172m9.61328-14.39062l-.11719-.17578v-.69922l.29297-.875.1172-.17187.17577-.35156.11328-.23047.1172-.29297.35155-.75781.1172-.23047.17187-.23438h.17578l.11719-.0586h.64062l.11719.0586.23437.23438.17188.11328.35156.29297.11719.11718.11328.17579v.11328l.11719.05859.11718.11719v.69922l-.05859.17578v.23047l-.0586.17578-.34765 1.05078-.11719.23047-.11719.23437-.11718.0586-.23047.23437-.64063.28906h-.875l-.41015-.11718-.64063-.46485"/><path fill="none" stroke="#bebebe" stroke-linecap="round" stroke-linejoin="round" stroke-miterlimit="10" stroke-width=".5" d="M467.95703 311.69531H144.02734v168.625h323.9297v-168.625"/><g clip-path="url(#a)"><path fill="#fff" fill-opacity="0" fill-rule="evenodd" d="M144 475.89063v4.4375h.0039H144V311.67188h.0039H144v164.21875"/></g><g clip-path="url(#b)"><path fill="#fff" fill-opacity="0" fill-rule="evenodd" d="M144.0039 480.32813V311.67188h84.32423v97.85546l-4.4375 1.53125-4.4375 1.22657-4.4375-.82813-4.44141-1.22265-3.72266 3.51953-.71484.77734-4.4375.34766-4.4375-.01954-4.4414-.33984-2.85548-.76562-1.58203-1.38672-1.72265 1.38672-2.71485.53515-4.4375.15625-4.4414.34375-4.4375.55469-4.4375 2.60938-.26563.23828-3.54297 4.4375-.41406 4.4414.5 4.4375-.17188 4.4375-.54296 1.40625-2.32422 3.03125-.82031 4.4375-.65625 4.4414-.25782 4.4375-.3789 2.5586-1.25782 1.8789 1.25782 1.89063.44922 2.54688 3.98828 3.66797 4.4375.21875 8.875-.20313 4.4414.09766 4.4375.15234 4.4375-.0039 4.4375.09765 4.4414-.00781 4.4375.19531 4.4375.10156 4.4375.07813 4.44142-.09375 4.4375-1.02734 4.4375-2.26954 1.35156-1.0039 3.08594-2.15235 3.21484-2.28515 1-4.4375.22266-3.92578.0664-.51172 1.1289-4.4414 3.2461-3.95313 4.4375 2.57031 3.4375-3.05469 1-.57031 3.83984-3.86719.29688-4.4375.30078-2.34375 1.19531-2.09375-.10937-4.4414-1.08594-1.04688-2.00781 1.04688-2.42969.74218-.86719-.74218-3.5703-3.66016-.92188-.77734-3.51563-2.9336-4.4414-1.14844-1.06641-.35546-3.3711-4.22657v-97.85546h31.07032v118.32421l-4.0625 1.51172 4.0625 2.69531 1.32422-2.6953-1.32422-1.51173V311.67188h4.4375v102.05859l-.01953.02344.01953.01171.02734-.01171-.02734-.02344v-102.0586h8.875v112.03907l-3.33203 3.35937.88671 4.4375 2.44532 2.14063 2.70312-2.14063 1.73828-2.83984 1.80079 2.83984 2.63671 2.44922 2.21875-2.44922-2.21875-2.45312-3.0078-1.98438-1.4297-3.04687-4.4414-.3125V311.67188h13.3164v91.43359l-1.85937 1.76953-2.03125 4.4414 3.89062 2.33594 2.3672-2.33593-.66017-4.44141-1.70703-1.76953v-91.4336h53.26172V414.75l-4.4414 2.89844-.78516.54297.78516.37109 4.4414 2.4375 3.76172-2.8086-3.76172-3.4414V311.67187h17.7539v118.66797l-1.48437 1.16797 1.48438 1.5039 1.16406-1.5039-1.16406-1.16797V311.67188h17.75v135.10156l-2.53516 2.48828 2.53516 3.03515 2.5586-3.03515-2.5586-2.48828V311.67188h8.8789V432.6914l-3.45703 3.2539 3.45704 2.96094v17.60547l-1.71094 1.625 1.71094 2.16406 2.0039-2.16406-2.0039-1.625v-17.60547l3.09765-2.96094-3.09765-3.2539V311.67187h8.875v141.17188l-.41797.85547.41796.72656.91016-.72656-.91015-.85547V311.67187h75.44921v168.65625H144.00391"/></g><path fill="#50fcfc" fill-rule="evenodd" d="M157.3164 460.02734l-1.2578-1.89062 1.2578-1.8789.37891-2.5586.25781-4.4375.65625-4.4414.82032-4.4375 2.32422-3.03126.54297-1.40625.17187-4.4375-.5-4.4375.41406-4.4414 3.54297-4.4375.26563-.23829 4.4375-2.60937 4.4375-.55469 4.4414-.34375 4.4375-.15625 2.71485-.53515 1.72265-1.38672 1.58203 1.38672 2.85547.76562 4.4414.33985 4.4375.01953 4.4375-.34766.71485-.77734 3.72266-3.51954v1.95704l-1.64844 1.5625-2.78906 3.03125-4.4375 1.1328-4.4375-.29687-4.4414-1.66796-4.4375-.95313-4.4375.4375-4.4375.28125-4.44141.80078-3.66407 1.67188-.77343.47656-4.4375 3.52344-.36328.4375-1.63672 4.4414 1.16797 4.4375-.72657 4.4375-1.7461 4.4375-1.1328 4.32813-.03907.10937-2.32812 4.4414-.55469 4.4375-.79687 4.4375 1.08984 4.4375 2.6289 2.41407 4.4375.53516 4.4375-.1875 4.4375-.23047 4.44141.14844 4.4375.33203 4.4375-.05078 4.4375.04687 4.4414.0586 4.4375.42187 4.4375.1289 4.4375-.02343 4.44142-.7461 4.4375-1.80468 1.61328-1.04297 2.82422-2.0039 2.84375-2.4336 1.59375-2.875.98046-1.5625.07422-4.4375-1.05469-1.46875-2.8125-2.97266 1.17579-4.4375-.15235-4.4375 1.78906-1.71094 1.07813 1.71094 3.35938 2.96875v.99219l-2.7422.47656 2.7422 3.0625 3.86328-3.0625-3.86328-.47656v-.99219l4.4414-.66406 3.16797 2.13281 1.26953.82813.92969-.82813 3.50781-2.0039 2.41797-2.4336-.08984-4.4375-1.89844-4.4375-.42969-.3086-4.4375-4.0078-.21484-.125-4.22266-3.91407-.6836-.52343-3.7578-2.45704-4.4375-1.3789-4.4375.29687-4.4375 1.60938-4.4375-.44922-1.5-2.0586-2.94141-1.5625v-1.95702l4.4414 1.22265 4.4375.82813 4.4375-1.22657 4.4375-1.53125 3.3711 4.22657 1.0664.35546 4.44141 1.14844 3.51563 2.9336.92187.77734 3.57031 3.66016.8672.74218 2.42968-.74218 2.00781-1.04688 1.08594 1.04688.10937 4.4414-1.1953 2.09375-.30079 2.34375-.29688 4.4375-3.83984 3.86719-1 .57031-3.4375 3.05469-4.4375-2.57031-3.2461 3.95312-1.1289 4.4414-.0664.51173-.22266 3.92578-1 4.4375-3.21484 2.28515-3.08594 2.15235-1.35156 1.0039-4.4375 2.26954-4.4375 1.02734-4.44141.09375-4.4375-.07813-4.4375-.10156-4.4375-.19531-4.4414.00781-4.4375-.09765-4.4375.0039-4.4375-.15234-4.44141-.09766-8.875.20313-4.4375-.21875-3.98828-3.66797-.44922-2.54688"/><path fill="#00e8fc" fill-rule="evenodd" d="M159.125 462.57422l-1.08984-4.4375.79687-4.4375.55469-4.4375 2.32812-4.4414.03907-.10938 1.1328-4.32813 1.7461-4.4375.72656-4.4375-1.16796-4.4375 1.63672-4.4414.36328-.4375 4.4375-3.52344.77343-.47656 3.66407-1.67188 4.4414-.80078 4.4375-.28125v1.91016l-4.4375.49218-1.25781.35157-3.1836 1.14843-4.4375 3.23047-.0703.0586-1.66016 4.4414.9336 4.4375.79687 4.38672.01172.05078 1.63671 4.4375-1.64843 3.76172-3.4336.67578-1.0039.1289-4.35547 4.3125-.08203.07423-1.02735 4.36328-1.09765 4.4375 1.76562 4.4375.35938.32812 4.4375 1.0547 4.4375-.32813 4.4375-.4375 4.4414.23046 4.4375.62891 4.4375-.125 4.4375-.05078 4.4414.1836 4.4375.79296 4.4375.16797 4.4375-.1914L215.01564 463l.86328-.42578 3.57422-1.3711L223 458.13673l-.39063-4.4375 1.28125-3.35547.41016-1.08203-.41016-.42578-2.74609-4.01563 1.69922-4.4375-.4414-4.4375-2.94923-.85937L215.01563 434l-.97265-2.49219-3.46875-1.76172-4.4375-1.125-4.4375-1.26562-.44922-.28516-3.98828-2.1211-4.4414-1.18358-2.25391-1.13672.33593-4.4375-2.51953-.23829-4.4375-.60546v-1.91016l4.4375-.4375 4.4375.95313 4.4414 1.66796 4.4375.29688v.80469l-4.4375 2.03906-.58983 1.86719.58984.1914 4.4375 1.1875 4.4375 1.46875 3.77734 1.59375.66016.23438 4.4414 1.75781 1.73829-1.99219-1.73828-2.75781-1.33594-1.6836-3.10547-2.4414-4.4375-.77344-4.4375-.6914v-.8047l4.4375-1.1328 2.78906-3.03125 1.64844-1.5625 2.9414 1.5625 1.5 2.05859 4.4375.44922 4.4375-1.60938v2.69922l-1.48046.83985-2.95703.88671-3.57422 3.55079 3.55078 4.4414.02344.02735v3.60937l-.96485.80078.96484.64844 1.10938-.64844-1.10938-.80078v-3.60937l.27735-.02735 4.16016-.3164.39062.3164 4.04688 4.17188.49218.26562 2.45703 4.4375 1.48828 1.3164 2.96094-1.3164 1.48047-1.01172 1.05078 1.01172 3.38672 2.76172 4.4375-2.71484.04688-.04688-.04688-.36328-.27344-4.07422-1.6914-4.4375-2.47266-2.34765-3.65234-2.09375-.78516-.72657-2.0586.72657-2.3828.63671-4.4375-.0078-.51172-.62891.51172-2.3711 2.97656-2.0664-2.97656-.60547-4.4375-.23438v-2.69922l4.4375-.29687 4.4375 1.3789 3.7578 2.45704.6836.52343 4.22266 3.91407.21484.125 4.4375 4.0078.42969.3086 1.89844 4.4375.08984 4.4375-2.41797 2.4336-3.50781 2.0039-.92969.82813-1.26953-.82813-3.16797-2.13281-4.4414.66406-3.35938-2.96875-1.07813-1.71094-1.78906 1.71094.15235 4.4375-1.17578 4.4375 2.8125 2.97266 1.05468 1.46875-.07422 4.4375-.98047 1.5625-1.59375 2.875-2.84375 2.4336-2.82421 2.0039-1.61328 1.04297-4.4375 1.80469-4.44141.74609-4.4375.02344-4.4375-.12891-4.4375-.42188-4.4414-.05859-4.4375-.04687-4.4375.05078-4.4375-.33203-4.44141-.14844-4.4375.23047-4.4375.1875-4.4375-.53516-2.62891-2.41406"/><path fill="#00d4fc" fill-rule="evenodd" d="M161.39453 462.57422l-1.76562-4.4375 1.09765-4.4375 1.02735-4.36328.08203-.07422 4.35547-4.3125v10.27734l-4.4375 1.03516-.53516 1.875.53516 1.26562 4.4375 2.55079 3.6914-3.81641-3.6914-2.91016v-10.27734l1.0039-.1289 3.4336-.67579 1.64843-3.76172-1.63672-4.4375-.01171-.05078-.79688-4.38672-.9336-4.4375 1.66016-4.4414.07032-.0586 4.4375-3.23047v2.73829l-.75.55078.75 2.14843 2.33593 2.29297 1.36328 4.4375-2.64843 4.4375 3.39062 3.78516.34766.65234-.34766.57031-2.52734 3.8672.38281 4.4414-2.29687 2.5625-1.89453 1.875 1.89453 1.4336 2.65625 3.0039 1.78515 1.49219 4.4375 2.74609 4.4375-.3125 4.4375-.01953 4.4414.41406.30079.11719 4.13672 1.0664 4.4375.21094 4.4375-.36328 2.00781-.91406 2.4336-1.17188 4.4375-2.10546 1.33984-1.16016-1.33984-2.76953-1.23829-1.66797 1.23828-4.2461.07813-.1914-.07813-.14063-1.36328-4.30078 1.00391-4.4375-4.07813-2.51172-1.15234-1.92578-3.28906-3.97656-4.4375-.15625-.91406-.30469-3.52344-1.61719-4.4375-2.8164-.0625-.0039-4.3789-.54298-4.4375-1.60546-4.21485-2.29297-.22266-.23829-1.16797.23829-3.26953 1.39453-1.35937-1.39453-3.08203-.55079v-2.73828l3.18359-1.14843 1.25781-.35157 4.4375-.49218 4.4375.60546 2.51953.23829-.33593 4.4375 2.2539 1.13671 4.4414 1.1836 3.98829 2.1211.44922.28515 4.4375 1.26562 4.4375 1.125 3.46875 1.76172.97266 2.49219 4.4375 1.08594 2.94921.85937.44141 4.4375-1.69922 4.4375 2.7461 4.01563.41015.42578-.41016 1.08203-1.28125 3.35547.39063 4.4375-3.54688 3.0664-3.57421 1.3711-.86328.42578-4.44141 1.82813-4.4375.1914-4.4375-.16797-4.4375-.79297-4.4414-.18359-4.4375.05078-4.4375.125-4.4375-.6289-4.44141-.23047-4.4375.4375-4.4375.32812-4.4375-1.05469-.35938-.32812"/><path fill="#00c4fc" fill-rule="evenodd" d="M161.7539 459.40234l-.53515-1.26562.53516-1.875 4.4375-1.03516 3.6914 2.91016-3.6914 3.8164-4.4375-2.55078m13.3125-4.26953l-1.89453-1.4336 1.89453-1.875 2.29687-2.5625-.38281-4.4414 2.52734-3.86719.34766-.5703-.34766-.65235-3.39062-3.78516 2.64844-4.4375-1.36329-4.4375-2.33593-2.29297-.75-2.14843.75-.55079 3.08203.55079 1.35937 1.39453 3.26953-1.39453 1.16797-.23829.22266.23829 4.21484 2.29296 4.4375 1.60547 4.3789.54297.0625.0039v1.56642l-4.4414 1.29687-3.39844 1.57031-1.03906.82031-3.08203 3.6172-1.3125 4.4375 4.39453 3.68359.88672.7539 3.55078 4 3.71875.4414-3.71875.4961-3.7539 3.9414-.6836 1.25-2.78515 3.1875 2.78515.78126 4.4375.875 4.4414.83203 4.4375 1.66406 2.52345.28516 1.91406.10937.98828-.10937 3.44922-.75781 4.4414-1.83594 3.40625-1.84375-3.40625-4.26563-.71484-.17187-1.09766-4.4375 1.8125-2.39844.44141-2.04297-.07812-4.4375-.36328-.22265-2.52344-4.21485-1.91797-2.32031-4.4375.03516-4.4375-1.5-.73828-.65235-3.69922-2.86719v-1.5664l4.4375 2.8164 3.52344 1.6172.91406.30468 4.4375.15625 3.28906 3.97656 1.15234 1.92578 4.07813 2.51172-1.0039 4.4375 1.36327 4.30078.07813.14063-.07813.1914-1.23828 4.2461 1.23828 1.66797 1.33985 2.76953-1.33984 1.16015-4.4375 2.10547-2.4336 1.17188-2.00781.91406-4.4375.36328-4.4375-.21094-4.13672-1.0664-.30078-.11719-4.4414-.41406-4.4375.01953-4.4375.3125-4.4375-2.7461-1.78516-1.49218-2.65625-3.0039"/><path fill="#00b8fc" fill-rule="evenodd" d="M188.38281 444.0664l-4.39453-3.68359 1.3125-4.4375 3.08203-3.61719 1.03906-.8203 3.39844-1.57032 4.4414-1.29688v1.57032l-2.64843 1.29687.30078 4.4375 2.19531 4.4375.15235.08203 4.4375-.01562 4.4375 4.0586v8.89062l-.32813.30078-4.10937 1.92187-4.4375-.01171-2.55469 2.52734 2.55469.65625 4.4375 1.11328 4.4375.64063 4.4375-1.1211 4.4414-.86719.78125-.42187-.78125-.97656-4.4414-.91797-4.17578-2.54297-.26172-.30078v-8.89063l2.2461-4.125 2.1914-1.11328.55078-3.32422-.55078-.66406-4.4375.23047-4.4375-1.55078-2.76563-2.45313-1.67187-1.29687v-1.57031l3.69922 2.86718.73828.65235 4.4375 1.5 4.4375-.03516 1.91797 2.32031 2.52344 4.21485.36328.22265.07812 4.4375-.4414 2.04297-1.8125 2.39844 1.09765 4.4375.71484.17187 3.40625 4.26563-3.40625 1.84375-4.4414 1.83594-3.44922.7578-.98828.10938-1.91406-.10937-2.52344-.28516-4.4375-1.66406-4.4414-.83203-4.4375-.875-2.78516-.78125 2.78515-3.1875.6836-1.25 3.7539-3.9414 3.71875-.4961-3.71875-.4414-3.55078-4-.88672-.75391"/><path fill="#00a8fc" fill-rule="evenodd" d="M194.91406 435.94531l-.30078-4.4375 2.64844-1.29687 1.67187 1.29687 2.76563 2.45313v1.79687l-.54688.1875.54688.42188.53125-.42188-.53125-.1875v-1.79687l4.4375 1.55078 4.4375-.23047.55078.66406-.55078 3.32422-2.1914 1.11328-2.2461 4.125-4.4375-4.0586-4.4375.01563-.15234-.08203-2.19532-4.4375m2.34766 22.84766l-2.55469-.65625 2.55469-2.52735 4.4375.01172 4.10937-1.92187.32813-.30078v4.40234l-1.03125.33594 1.03125.17578.64453-.17578-.64453-.33594v-4.40234l.26172.30078 4.17578 2.54297 4.4414.91797.78125.97656-.78125.42187-4.4414.8672-4.4375 1.12108-4.4375-.64062-4.4375-1.11328"/><path fill="#50fcfc" fill-rule="evenodd" d="M197.26172 420.76172l-.58984 1.86719.58984.1914 4.4375 1.1875 4.4375 1.46875 3.77734 1.59375.66016.23438 4.4414 1.75781 1.73829-1.99219-1.73828-2.75781v2.53906l.13671.21875-.13672.15625-.41406-.15625.41406-.21875v-2.53906l-1.33593-1.6836-3.10547-2.4414-4.4375-.77344v1.96094l4.4375.39844 1.08984.85547-1.08984 1.73828-4.4375-.6289-2.91406-1.10938 2.91406-1.25391v-1.96094l-4.4375-.6914-4.4375 2.03906"/><path fill="#009800" fill-rule="evenodd" d="M201.69922 436.36719l-.54688-.42188.54688-.1875.53125.1875-.53125.42188"/><path fill="#fff" fill-opacity="0" fill-rule="evenodd" d="M206.13672 421.375l-2.91406 1.2539 2.91406 1.10938 4.4375.6289 1.08984-1.73827-1.08984-.85547-4.4375-.39844"/><path fill="#009800" fill-rule="evenodd" d="M206.13672 458.3125l-1.03125-.17578 1.03125-.33594.64453.33594-.64453.17578"/><path fill="#fff" fill-opacity="0" fill-rule="evenodd" d="M215.01563 426.85156l-.41407.21875.41406.15625.13672-.15625-.13672-.21875"/><path fill="#00d4fc" fill-rule="evenodd" d="M219.42969 427.07031l-3.55078-4.4414 3.57422-3.55079 2.95703-.88671 1.48047-.83985v3.125l-4.4375.02735-2.14063 2.125 2.14063 2.66796 4.4375-1.04687 3.49218 2.82031.94531.97266 4.4375 1.82031 2.1875 1.64453 2.25391.89453 3.69531 3.54297.7422.60156.98437-.60156 1.97656-4.4375-2.5664-4.4375-.39454-.375-4.4375-.19922-4.4414-.83203-4.4375.51563-2.89454-3.55078-1.54297-2.15235v-3.125l4.4375.23438 2.97657.60547-2.97656 2.0664-.51172 2.3711.51172.6289 4.4375.00781 2.3828-.63671 2.0586-.72657.78516.72657 3.65234 2.09375 2.47266 2.34765 1.6914 4.4375.27344 4.07422.04688.36328-.04688.04688-4.4375 2.71484-3.38672-2.76172-1.05078-1.01172-1.48047 1.01172-2.96094 1.3164-1.48828-1.3164-2.45703-4.4375-.49219-.26562-4.04687-4.17188-.39063-.3164-4.16015.3164-.27734.02735-.02344-.02735"/><path fill="#00c4fc" fill-rule="evenodd" d="M219.45313 425.29688l-2.14063-2.66797 2.14063-2.125v1.42187l-.70704.70313.70703.8828 2.58985-.8828-2.58984-.70313v-1.42187l4.4375-.02735 1.54296 2.15235 2.89453 3.55078 4.4375-.51563 4.44141.83203 4.4375.19922v1.95703l-3.07422 2.85547 3.07422 2.96875 1.7539-2.96875-1.7539-2.85547v-1.95703l.39453.375 2.5664 4.4375-1.97655 4.4375-.98438.60156-.74219-.60156-3.6953-3.54297-2.25392-.89453-2.1875-1.64453-4.4375-1.82031-.9453-.97266-3.4922-2.82031-4.4375 1.04688"/><path fill="#50fcfc" fill-rule="evenodd" d="M219.45313 430.70703l-.96485.80078.96484.64844 1.10938-.64844-1.10938-.80078"/><path fill="#00b8fc" fill-rule="evenodd" d="M219.45313 423.51172l-.70704-.88281.70703-.70313 2.58985.70313-2.58984.8828"/><path fill="#fff" fill-opacity="0" fill-rule="evenodd" d="M232.76563 439.90625l-2.7422.47656 2.7422 3.0625 3.86328-3.0625-3.86328-.47656"/><path fill="#00b8fc" fill-rule="evenodd" d="M241.64453 434.47656l-3.07422-2.96875 3.07422-2.85547v1.95704l-.96875.89843.96875.9336.55078-.9336-.55078-.89844v-1.95703l1.7539 2.85547-1.7539 2.96875"/><path fill="#00a8fc" fill-rule="evenodd" d="M241.64453 432.4414l-.96875-.93359.96875-.89844.55078.89844-.55078.9336"/><path fill="#50fcfc" fill-rule="evenodd" d="M259.39844 434.20313l-4.0625-2.69532 4.0625-1.51172 1.32422 1.51172-1.32422 2.69531m4.4375-20.4375l-.01953-.01171.01953-.02344.02734.02344-.02734.01171m6.42969 17.7422l-.88672-4.4375 3.33203-3.35938 4.4414.3125 1.4297 3.04687 3.0078 1.98438 2.21875 2.45312-2.21875 2.44922-2.63671-2.44922-1.80079-2.83984-1.73828 2.83984-2.70312 2.14063-2.44531-2.14063m15.76171-19.85547l-3.89062-2.33593 2.03125-4.44141 1.85937-1.76953 1.70704 1.76953.66015 4.4414-2.36719 2.33594m48.82032 6.91016l-.78516-.3711.78516-.54296 4.4414-2.89844 3.76172 3.4414L339.28906 421l-4.4414-2.4375m22.1953 14.44922l-1.48437-1.5039 1.48438-1.16798 1.16406 1.16797-1.16406 1.5039m17.75 19.28517l-2.53516-3.03516 2.53516-2.48828 2.5586 2.48828-2.5586 3.03515m8.8789-13.39062l-3.45703-2.96094 3.45704-3.2539v2.46875l-.83204.78515.83204.71485.74609-.71485-.7461-.78515v-2.46875l3.09766 3.2539-3.09765 2.96094m0 21.39453l-1.71094-2.16406 1.71094-1.625 2.0039 1.625-2.0039 2.16406"/><path fill="#00e8fc" fill-rule="evenodd" d="M383.67188 436.66016l-.83204-.71485.83204-.78515.74609.78515-.7461.71485"/><path fill="#50fcfc" fill-rule="evenodd" d="M392.54688 454.42578l-.41797-.72656.41796-.85547.91016.85547-.91015.72656"/><g clip-path="url(#c)"><path fill="#fff" fill-opacity="0" fill-rule="evenodd" d="M467.9961 480.32813H468V311.67188h-.0039H468v168.65625h-.0039"/></g><path fill="#fff" fill-opacity="0" fill-rule="evenodd" d="M253.1289 441.16016l2.40626-5.32422-9.07422-4.10156-2.40625 5.32421 9.07422 4.10157"/><path fill-rule="evenodd" d="M247.16406 434.625l.21094-.46484 5.73438 2.59375-.32422.71484-4.08985-1.84766-.57031 1.26563-.50781-.23047.17187-.53516.05469-.2539.01172-.2461-.04297-.24218-.1211-.2461-.21093-.25-.3164-.25781"/><path fill="#fff" fill-opacity="0" fill-rule="evenodd" d="M156.6289 469.59766l5.39063 2.2539 3.84766-9.1875-5.39063-2.25781-3.84765 9.1914"/><path fill-rule="evenodd" d="M162.9961 463.44922l.47265.19922-2.4336 5.80469-.72656-.3047 1.73438-4.14062-1.28125-.53515.21484-.51172.54297.15625.2539.04687.2461.0039.24219-.05077.24219-.125.24218-.21875.25-.32422"/><path fill="#fff" fill-opacity="0" fill-rule="evenodd" d="M192.67578 468.89063l7.875.86328 1.10938-10.13282-7.875-.85937-1.10938 10.1289"/><path fill-rule="evenodd" d="M196.05078 460.85156l3.26563.35938-.07813.73437-2.625-.28515-.42578 1.76562.2461-.13672.28124-.10156.33203-.05078.38282.00781.32031.0625.32813.1211.3125.18359.28906.2461.23828.3164.09766.1875.07812.20312.05469.22266.03515.2461.01172.26171-.01953.28125-.08203.4375-.14844.40625-.21094.36328-.27734.3086-.33594.25-.1875.09375-.20703.07812-.21875.05469-.23437.03516-.2461.0078-.26172-.01562-.45703-.08593-.38672-.14454-.3164-.19921-.25-.2422-.1914-.28515-.13673-.3164-.08984-.33985-.05078-.36328.78516.08594.05468.23828.07813.21875.10156.19531.1289.16797.15235.14063.17969.10937.20312.08203.22656.04297.31641.01172.28516-.04297.25781-.08984.22266-.14453.1875-.19532.15234-.25.10547-.29687.0664-.35547.00782-.26172-.03125-.26953-.07422-.25781-.1211-.24219-.17187-.21484-.22266-.17579-.27343-.1289-.33203-.07031-.33985-.00391-.29297.07813-.29297.15625-.33593.23437-.69141-.07422.83203-3.35547"/><g clip-path="url(#d)"><path fill="none" stroke="#000" stroke-linecap="round" stroke-linejoin="round" stroke-miterlimit="10" stroke-width=".5" d="M146.86328 478.29297l-5.72656 4.07422"/></g><path fill="none" stroke="#000" stroke-linecap="round" stroke-linejoin="round" stroke-miterlimit="10" stroke-width=".5" d="M146.03125 478.88281l1.09766.55078"/><g clip-path="url(#e)"><path fill="none" stroke="#000" stroke-linecap="round" stroke-linejoin="round" stroke-miterlimit="10" stroke-width=".5" d="M160.82813 480.23047l-7.02344.19922"/></g><g clip-path="url(#f)"><path fill="none" stroke="#000" stroke-linecap="round" stroke-linejoin="round" stroke-miterlimit="10" stroke-width=".5" d="M159.80469 480.25781l.60547 1.0664"/></g><g clip-path="url(#g)"><path fill="none" stroke="#000" stroke-linecap="round" stroke-linejoin="round" stroke-miterlimit="10" stroke-width=".5" d="M173.79688 481.85156l-6.33204-3.04687"/></g><g clip-path="url(#h)"><path fill="none" stroke="#000" stroke-linecap="round" stroke-linejoin="round" stroke-miterlimit="10" stroke-width=".5" d="M186.14063 483.07422l-4.39063-5.48828"/></g><g clip-path="url(#i)"><path fill="none" stroke="#000" stroke-linecap="round" stroke-linejoin="round" stroke-miterlimit="10" stroke-width=".5" d="M198.58203 483.58594l-2.64453-6.51172"/></g><g clip-path="url(#j)"><path fill="none" stroke="#000" stroke-linecap="round" stroke-linejoin="round" stroke-miterlimit="10" stroke-width=".5" d="M213.42578 482.38281l-5.69922-4.10937"/></g><g clip-path="url(#k)"><path fill="none" stroke="#000" stroke-linecap="round" stroke-linejoin="round" stroke-miterlimit="10" stroke-width=".5" d="M227.24219 481.3789l-6.70313-2.10156"/></g><g clip-path="url(#l)"><path fill="none" stroke="#000" stroke-linecap="round" stroke-linejoin="round" stroke-miterlimit="10" stroke-width=".5" d="M226.26953 481.07422l.22266 1.20703"/></g><g clip-path="url(#m)"><path fill="none" stroke="#000" stroke-linecap="round" stroke-linejoin="round" stroke-miterlimit="10" stroke-width=".5" d="M240.67578 480.88281l-6.9414-1.10937"/></g><g clip-path="url(#n)"><path fill="none" stroke="#000" stroke-linecap="round" stroke-linejoin="round" stroke-miterlimit="10" stroke-width=".5" d="M240.67578 480.88281l.79297 2.32422"/></g><g clip-path="url(#o)"><path fill="none" stroke="#000" stroke-linecap="round" stroke-linejoin="round" stroke-miterlimit="10" stroke-width=".5" d="M253.94922 481.09375l-6.85938-1.53125"/></g><g clip-path="url(#p)"><path fill="none" stroke="#000" stroke-linecap="round" stroke-linejoin="round" stroke-miterlimit="10" stroke-width=".5" d="M253.94922 481.09375l.65234 2.36719"/></g><g clip-path="url(#q)"><path fill="none" stroke="#000" stroke-linecap="round" stroke-linejoin="round" stroke-miterlimit="10" stroke-width=".5" d="M252.95313 480.8711l.32421 1.18359"/></g><g clip-path="url(#r)"><path fill="none" stroke="#000" stroke-linecap="round" stroke-linejoin="round" stroke-miterlimit="10" stroke-width=".5" d="M267.24219 481.1914l-6.8125-1.72656"/></g><g clip-path="url(#s)"><path fill="none" stroke="#000" stroke-linecap="round" stroke-linejoin="round" stroke-miterlimit="10" stroke-width=".5" d="M267.24219 481.1914l.58203 2.38282"/></g><g clip-path="url(#t)"><path fill="none" stroke="#000" stroke-linecap="round" stroke-linejoin="round" stroke-miterlimit="10" stroke-width=".5" d="M280.40625 481.65234l-6.51172-2.64843"/></g><g clip-path="url(#u)"><path fill="none" stroke="#000" stroke-linecap="round" stroke-linejoin="round" stroke-miterlimit="10" stroke-width=".5" d="M293.67188 481.76953l-6.41016-2.8789"/></g><g clip-path="url(#v)"><path fill="none" stroke="#000" stroke-linecap="round" stroke-linejoin="round" stroke-miterlimit="10" stroke-width=".5" d="M306.7461 482.21484l-5.9297-3.77343"/></g><g clip-path="url(#w)"><path fill="none" stroke="#000" stroke-linecap="round" stroke-linejoin="round" stroke-miterlimit="10" stroke-width=".5" d="M320.23438 481.91016l-6.27735-3.16016"/></g><g clip-path="url(#x)"><path fill="none" stroke="#000" stroke-linecap="round" stroke-linejoin="round" stroke-miterlimit="10" stroke-width=".5" d="M333.64063 481.71094l-6.46094-2.76563"/></g><g clip-path="url(#y)"><path fill="none" stroke="#000" stroke-linecap="round" stroke-linejoin="round" stroke-miterlimit="10" stroke-width=".5" d="M347.21094 480.76563l-6.97266-.8711"/></g><g clip-path="url(#z)"><path fill="none" stroke="#000" stroke-linecap="round" stroke-linejoin="round" stroke-miterlimit="10" stroke-width=".5" d="M347.21094 480.76563l.875 2.29296"/></g><g clip-path="url(#A)"><path fill="none" stroke="#000" stroke-linecap="round" stroke-linejoin="round" stroke-miterlimit="10" stroke-width=".5" d="M360.4414 479.44922l-6.80077 1.75781"/></g><g clip-path="url(#B)"><path fill="none" stroke="#000" stroke-linecap="round" stroke-linejoin="round" stroke-miterlimit="10" stroke-width=".5" d="M359.45313 479.70313l.82812.90625"/></g><g clip-path="url(#C)"><path fill="none" stroke="#000" stroke-linecap="round" stroke-linejoin="round" stroke-miterlimit="10" stroke-width=".5" d="M373.83984 480.79297l-6.96484-.92969"/></g><g clip-path="url(#D)"><path fill="none" stroke="#000" stroke-linecap="round" stroke-linejoin="round" stroke-miterlimit="10" stroke-width=".5" d="M372.82422 480.66016l.42969 1.14843"/></g><g clip-path="url(#E)"><path fill="none" stroke="#000" stroke-linecap="round" stroke-linejoin="round" stroke-miterlimit="10" stroke-width=".5" d="M387.1836 480.4414l-7.02344-.22265"/></g><g clip-path="url(#F)"><path fill="none" stroke="#000" stroke-linecap="round" stroke-linejoin="round" stroke-miterlimit="10" stroke-width=".5" d="M387.1836 480.4414l1.08202 2.19923"/></g><g clip-path="url(#G)"><path fill="none" stroke="#000" stroke-linecap="round" stroke-linejoin="round" stroke-miterlimit="10" stroke-width=".5" d="M400.41406 481.09766l-6.85547-1.53907"/></g><g clip-path="url(#H)"><path fill="none" stroke="#000" stroke-linecap="round" stroke-linejoin="round" stroke-miterlimit="10" stroke-width=".5" d="M399.41797 480.875l.32422 1.1836"/></g><g clip-path="url(#I)"><path fill="none" stroke="#000" stroke-linecap="round" stroke-linejoin="round" stroke-miterlimit="10" stroke-width=".5" d="M412.55078 483.02734l-4.5-5.39453"/></g><g clip-path="url(#J)"><path fill="none" stroke="#000" stroke-linecap="round" stroke-linejoin="round" stroke-miterlimit="10" stroke-width=".5" d="M426.84766 481.70703l-6.46485-2.75781"/></g><g clip-path="url(#K)"><path fill="none" stroke="#000" stroke-linecap="round" stroke-linejoin="round" stroke-miterlimit="10" stroke-width=".5" d="M440.02344 482l-6.1836-3.34375"/></g><g clip-path="url(#L)"><path fill="none" stroke="#000" stroke-linecap="round" stroke-linejoin="round" stroke-miterlimit="10" stroke-width=".5" d="M453.58594 481.42188l-6.67969-2.1836"/></g><g clip-path="url(#M)"><path fill="none" stroke="#000" stroke-linecap="round" stroke-linejoin="round" stroke-miterlimit="10" stroke-width=".5" d="M452.61328 481.10156l.21094 1.21094"/></g><g clip-path="url(#N)"><path fill="none" stroke="#000" stroke-linecap="round" stroke-linejoin="round" stroke-miterlimit="10" stroke-width=".5" d="M466.625 482.05078l-6.125-3.44531"/></g><g clip-path="url(#O)"><path fill="none" stroke="#000" stroke-linecap="round" stroke-linejoin="round" stroke-miterlimit="10" stroke-width=".5" d="M146.95313 465.10938l-5.90625 3.80859"/></g><path fill="none" stroke="#000" stroke-linecap="round" stroke-linejoin="round" stroke-miterlimit="10" stroke-width=".5" d="M146.09375 465.66406l1.07031.59766m13.66016.61719l-7.01953.26953m20.09375 1.15625l-6.53516-2.58203m5.58203 2.20703l.14063 1.21875m13.39844.29687l-5.07813-4.86328m4.33984 4.15625l-.33593 1.17969m13.27734.3086l-2.85547-6.42579m2.4414 5.48828l-.7578.96875m15.18359-.44531l-4.25-5.59766m3.63281 4.78125l-.51562 1.1172m15.48828-1.57423l-6.32813-3.05078m5.41016 2.60547l.04687 1.22656m14.07032-.5625l-6.09766-3.48828m6.09766 3.48828l-.07422 2.45313m13.26172-2.2461l-5.84375-3.90234m5.84375 3.90234l-.2461 2.44141m13.78906-2.83203l-6.29687-3.1211m6.29688 3.1211l.0703 2.45312m13.00782-2.05078l-5.82422-3.92578m5.82422 3.92578l-.2539 2.4414m13.4414-2.2578l-5.5664-4.29297m5.5664 4.29297l-.41016 2.41796m13.6211-2.29296l-5.35938-4.54297m5.35938 4.54297l-.51953 2.39843m13.8789-2.45312l-5.44922-4.4336m5.44922 4.4336l-.47265 2.40625m13.9453-2.61328l-5.76171-4.01953m5.76172 4.01953l-.29688 2.4375m14.01954-3.21485l-6.58204-2.46484m6.58204 2.46484l.3203 2.4336m13.1836-4.17578l-6.95312 1.01953m6.95312-1.01953l1.45313 1.97656m11.89062-1.65625l-7.01562.3789m5.99609-.32421l.63281 1.05078m13.53125.1875l-6.67187-2.20703m5.69922 1.88671l.20703 1.20704m13.94531-.53907l-6.40234-2.90234m19.65234 3.03125l-6.27344-3.16016m5.36328 2.69922l.02735 1.22656m14.2539-.875l-6.3828-2.9414m5.45312 2.51562l.0703 1.22266m14.01954-.5l-6.07422-3.53516m5.1914 3.01953l-.05077 1.22657m13.86718-.17969l-5.3125-4.59766m4.53907 3.9297l-.27344 1.1953m14.77734-1.11718l-6.14062-3.41407m5.2461 2.91407l-.02345 1.22656"/><g clip-path="url(#P)"><path fill="none" stroke="#000" stroke-linecap="round" stroke-linejoin="round" stroke-miterlimit="10" stroke-width=".5" d="M147.10547 452.05469l-6.21094 3.28515"/></g><path fill="none" stroke="#000" stroke-linecap="round" stroke-linejoin="round" stroke-miterlimit="10" stroke-width=".5" d="M146.20313 452.53516l1.01562.6875m13.01953-1.47266l-5.84766 3.89453m19.63282-2.85156l-6.78906 1.8125m15.73437 2.46875l1.95313-6.75m11.09765 6.66016l2.48047-6.57422m11.89063 6.79687l.37109-7.01562m-.3164 5.99609l-1.11329.51563m16.52734-.09375l-3.9375-5.82032m3.36329 4.97266l-.57422 1.08594m14.42187-.21094l-3.85156-5.875m3.28906 5.01953l-.58984 1.07813m15.3164-1.00391l-5.55078-4.3125m5.55078 4.3125l-.42187 2.41406m13.66797-2.33203l-5.41406-4.47656m5.41406 4.47656l-.49219 2.40234m13.6211-2.1953L274.6289 451.25m5.04297 4.89453l-.6797 2.35938m14.07813-2.44532l-5.20703-4.71875m5.20703 4.71875l-.60547 2.37891m13.38282-1.89844l-4.13672-5.67969m4.13672 5.6797l-1.07032 2.20702m15.03125-2.8164l-5.42578-4.46094m5.42578 4.46094l-.48437 2.40625m14.05469-2.75782l-5.9375-3.7578m5.9375 3.7578l-.1836 2.44532m13.8086-3.05469l-6.5547-2.53906m6.5547 2.53906l.28906 2.4336m13.24219-4.08594l-6.98828.76562m5.96875-.65234l.6914 1.01172m12.41797-3.42579l-4.53906 5.3672m3.8789-4.58595l1.19922.25782m12.73438-1.07422l-4.45313 5.4375m3.80469-4.64844l1.20313.24219m12.30078-1.34766l-3.53516 6.07031m3.01953-5.1875l1.22656.04688m14.10938.82422l-6.54297 2.5625m5.58984-2.1914l.9297.79687m13.5664-.17188l-7.0039.57031m5.98437-.48828l.66406 1.03125m13.33594.69532l-6.33203-3.04688m5.41015 2.60547l.05078 1.22266m14.20703-.82813l-6.375-2.95312m5.44922 2.52343l.0664 1.22657m14.25392-.98047l-6.53516-2.58594m5.58594 2.20703l.13672 1.22266"/><g clip-path="url(#Q)"><path fill="none" stroke="#000" stroke-linecap="round" stroke-linejoin="round" stroke-miterlimit="10" stroke-width=".5" d="M146.74219 438.1875l-5.48438 4.39453"/></g><path fill="none" stroke="#000" stroke-linecap="round" stroke-linejoin="round" stroke-miterlimit="10" stroke-width=".5" d="M145.94531 438.82422l1.125.48437m13.14453-.91015l-5.80078 3.96875m4.95703-3.39063l1.08594.57031m9.03906-2.48828l2.26953 6.64844m9.58985-5.69531l5.17969 4.7461m7.3164-3.23048l6.8164 1.71094m10.02735 2.65625l-.23828-7.02344m14.1875 6.94532l-1.50781-6.86329m1.28906 5.86329l-.9375.79687m14.61719.16797l-1.80078-6.79297m1.53906 5.80469l-.89844.83203m14.9375-.0039l-2.72265-6.47657m2.32422 5.53516l-.77344.94922m15.91797-1.11329l-5.58594-4.26562m5.58594 4.26562l-.39844 2.42188m13.5039-2.17188L274.56642 438m5.16797 4.76562l-.6211 2.375m14.17188-2.66406l-5.64063-4.1875m5.64063 4.1875l-.36328 2.42578m13.39062-2.08203l-5.0625-4.8711m5.0625 4.8711l-.67187 2.35938m13.58593-2l-4.26172-5.58985m4.26172 5.58985l-1.02734 2.22656m14.13672-2.08203l-3.85156-5.8789m3.85156 5.8789l-1.17969 2.14844m15.6289-3.36329l-6.12109-3.45312m5.23047 2.94922l-.02734 1.22656m12.07031-5.84766l-1.79297 6.79688m13.57031-6.85156L371 443.83594m-1.10156-5.90235l.96094-.76172m9.51953 4.44141l6.58203-2.46094m-5.6211 2.10547l-.92187-.8164m19.61328-1.8125l-6.08984 3.5078m19.74609-2.6953l-6.76953 1.88671m5.78516-1.61328l.84375.89063m13.55859.20703l-6.97656-.85938m6.97656.85938l.875 2.29297m12.36328-1.88281l-6.82422-1.67579m6.82422 1.67579l.60156 2.3789m-1.59375-2.625l.30078 1.1914m14.03125-1.05859l-6.875-1.45312m6.875 1.45313l.6797 2.35937m-1.6797-2.57031l.33985 1.17969m14.04297-1.4297l-7.00782-.53124m5.98829.45703l.49218 1.1211"/><g clip-path="url(#R)"><path fill="none" stroke="#000" stroke-linecap="round" stroke-linejoin="round" stroke-miterlimit="10" stroke-width=".5" d="M146.82813 424.98047l-5.65625 4.17578"/></g><path fill="none" stroke="#000" stroke-linecap="round" stroke-linejoin="round" stroke-miterlimit="10" stroke-width=".5" d="M146.0039 425.58984l1.10548.52735m13.22265-.85157l-6.03125 3.60547m5.15234-3.08203l1.05079.63281m9.36328-2.78515l1.52344 6.86328m-1.30079-5.86328l.9336-.79688m11.5664-.01172l2.71094 6.48047m-2.3164-5.53906l.77734-.94922m11.98437.07813l3.03125 6.33984m-2.58984-5.41797l.72656-.98437M213 429.60937l-4.85156-5.08203m13.39453 5.15625l4.69531-5.23047m-4.01172 4.46875l-1.1914-.29296m15.16797 1.80859l2.0039-6.73828m-1.71094 5.75781l-1.20312.24219m15.78906.83594l-1.125-6.9336m.96094 5.92578l-.97656.7422m14.30468.28905l-.8203-6.98047m.8203 6.98047l-2.01953 1.39453m16.26563-1.63671l-2.6836-6.4961m2.29297 5.55078l-.78125.94532m12.92969.2578l.42969-7.01171m-.36719 5.99219l-1.11328.50781m14.39062.51563l.38282-7.01954m-.38282 7.01954l-2.22656 1.03125m17.78516-1.69141l-4.10547-5.69922m3.50781 4.8711l-.54297 1.10156m14.55078-.33985l-4.29297-5.5664m3.66797 4.7539l-.5078 1.1211m14.8789-.70313l-5.15625-4.77344m4.40625 4.07813l-.3125 1.1836m8.55468-1.52344l6.48829-2.70704m6.78906 2.60547l6.5664-2.5039m8.89063-2.07032l2.27734 6.64454m-1.9453-5.6797l.83983-.89452m16.78125 2.92187l-6.99609.66016m6.9961-.66016l1.35156 2.05078m11.9414-1.20312l-6.94922-1.03516m6.94922 1.03516l.81641 2.3164m12.5-3.32812l-6.95703.98828m6.95703-.98828l1.44531 1.98047m-2.45703-1.83594l.72266.98828m13.57031-1.32812l-6.89063 1.3789m6.89063-1.3789l1.55469 1.89843m-2.55469-1.69921l.77734.94921m13.60938-.44922l-7.02735-.01953m7.02735.01953l1.14453 2.16797m-2.16797-2.17187l.57422 1.08594m13.65625-.23438l-6.8125-1.71484m6.8125 1.71484l.58594 2.38281"/><g clip-path="url(#S)"><path fill="none" stroke="#000" stroke-linecap="round" stroke-linejoin="round" stroke-miterlimit="10" stroke-width=".5" d="M147.17188 412.24219l-6.34375 3.02344"/></g><path fill="none" stroke="#000" stroke-linecap="round" stroke-linejoin="round" stroke-miterlimit="10" stroke-width=".5" d="M146.25 412.6836l.98438.72656m13.28906-1.08985l-6.41797 2.86719m5.48437-2.44922l.96875.7539m13.08594-1.54296l-6.03125 3.60937m5.15625-3.08203l1.05078.63281m13.03906-1.3164l-5.83203 3.92187m4.98438-3.35156l1.08203.57813m12.44922-1.85938l-4.5664 5.34375m3.90234-4.5664l1.19922.26562m7.7539-.5664l5.48828 4.39062m-4.6914-3.7539l.22656-1.20313m12.03125 4.58203l6.00781-3.64063m-5.13672 3.10938l-1.05078-.6289m17.14063 2.79296l-1.28516-6.90625m1.09766 5.90234l-.96094.76563m13.96094.29687l-.27735-7.02343m.23828 6l-1.0625.61718m13.6875.35938l1.17578-6.92969m-1.17578 6.92969l-2.32812.77344m16.58594-.74219l-.70704-6.99219m.60547 5.97266l-1.01953.6836m13.16406.23046l1.83594-6.78125m-1.5664 5.79297l-1.19922.27344m15.42578.82812l-.52344-7.00781m.44531 5.98828l-1.03515.65625m14.6211.34375l-.91017-6.96875m.77735 5.95313l-1 .71093m13.73047.32422l.52343-7.00781m-.4453 5.98828l-1.125.49219m13.82812.44531l1.59375-6.84375m-1.36328 5.84766l-1.1836.3164m16.73828.34766l-3.34765-6.17969m2.85937 5.28125l-.67578 1.01953m13.82813-3.21093l-.01954-.19922-.05859-.1914-.09375-.1797-.46094-.375-.1914-.05859-.19922-.01953-.19922.01953-.1914.0586-.45704.375-.09765.17968-.0586.1914-.01953.19923.01953.19921.0586.19141.09765.17578.45703.3789.19141.0586.19922.01953.19922-.01953.1914-.0586.46094-.3789.09375-.17578.0586-.1914.01953-.19922m13.16406-3.40625l-1.74219 6.80859m16-6.41016l-3.6289 6.01563m3.10156-5.14063l1.22656.06641m12.53516-.98828l-3.46875 6.10937m3.46875-6.10937l2.45312.0664m11.69922.59375l-5.14063 4.78907m5.14063-4.78907l2.32031.79688m11.86328.8789l-6.8789 1.4375m6.8789-1.4375l1.57032 1.88672m11.66015-2.21484l-6.70703 2.09375m6.70703-2.09375l1.74219 1.72266m-2.71875-1.41797l.8711.86328m11.1875-3.44922l-2.2461 6.65625m2.2461-6.65625l2.42187-.40234"/><g clip-path="url(#T)"><path fill="none" stroke="#000" stroke-linecap="round" stroke-linejoin="round" stroke-miterlimit="10" stroke-width=".5" d="M146.98047 398.57813l-5.96094 3.72265"/></g><path fill="none" stroke="#000" stroke-linecap="round" stroke-linejoin="round" stroke-miterlimit="10" stroke-width=".5" d="M146.11328 399.11719l1.0625.61328m11.85938-2.35547l-3.44141 6.125m2.9414-5.23438l1.22657.03125m10.48828-1.35156l.75781 6.98438m-.64844-5.96875l1.01563-.6875m10.3086.47656l4.52343 5.375m-3.86719-4.59375l.45703-1.13672m12.71094-.0039l3.5039 6.09375m-2.99218-5.20704l.65234-1.03906m10.44141 2.60938l6.92578 1.18359m-5.91797-1.01172l-.38672-1.16797m12.64454 1.60938l7.02343-.04688m-6.0039.03906l-.58203-1.07812m18.13672 4.10938l-3.4961-6.09375m15.64844 6.51171l-1.17188-6.92968m1.00391 5.92187l-.97266.75m13.64453.30078l.45313-7.01172m-.38672 5.9922l-1.1211.5039M277 403.94922l.30078-7.01953m-.25781 5.9961l-1.10547.53124m15.05469.45703l-1.05469-6.94922m.90234 5.9375l-.98437.73047m14.01953.3164l-.1875-7.02343m.16016 6.0039l-1.06641.60548m15.14063.3203l-1.65235-6.83202m1.41016 5.83594l-.91797.8164m14.91406.04297l-2.52734-6.5586m2.15625 5.60157l-.80078.92969m16.47265-1.92188l-6.5039-2.66015m5.55859 2.27343l.125 1.21875m13.80078-.20312l-5.83203-3.91797m13.28125.05078l5.89844 3.8164m13.75-2.85546l-6.76563 1.89062m5.78125-1.61328l.84766.88672m13.20703-1.80078l-6.27734 3.16406m5.36328-2.70312l1 .70703m13.59375.13672l-7.00781.55468m5.98828-.47265l.66015 1.03515m13.5664-1.75l-6.78905 1.82032m6.78906-1.82032l1.67187 1.79688m11.71094-1.48828l-6.92578 1.20703m6.92578-1.20703l1.5039 1.9336m11.79688-2.01173l-6.89453 1.36328m6.89453-1.36328l1.54688 1.90235m-2.55078-1.70313l.77343.94922m11.79688-3.54297l-3.39844 6.15235m3.39844-6.15235l2.45312.03906"/><g clip-path="url(#U)"><path fill="none" stroke="#000" stroke-linecap="round" stroke-linejoin="round" stroke-miterlimit="10" stroke-width=".5" d="M145.1211 383.79297l-2.2422 6.66015"/></g><path fill="none" stroke="#000" stroke-linecap="round" stroke-linejoin="round" stroke-miterlimit="10" stroke-width=".5" d="M144.79297 384.76172l1.21094-.19922m11.82422-.91406l-1.02735 6.94922m.8789-5.9375l1.15626-.41407m11.5586-.6289l.47265 7.01172m-.40625-5.9922l1.04297-.64452m11.625-.28516l1.6328 6.83203m-1.39452-5.83984l.92187-.8125m9.74219 1.84765l6.45703 2.77735m-5.51562-2.375l-.10157-1.22266m12.4375.91797l6.53516 2.58594m-5.58594-2.21094l-.13672-1.21875m12.54297 3.52735l6.45313-2.78516m-5.51172 2.3789l-.96094-.76562m14.66406 2.73828l3.79297-5.91797m-3.24219 5.05469l-1.22265-.09766m14.44531 1.20704l2.875-6.41016M249.5 389.39453l-1.22266.08594m14.98047 1.10937l1.15625-6.93359m-.98828 5.92578l-1.16406.38672m14.36328.6289l1.05078-6.94921m-.89844 5.9375l-1.15625.41015m15.10547.63282l-.52343-7.00782m.44921 5.98829l-1.03906.65234m12.8711.125l2.59375-6.52735m-2.21875 5.57813l-1.21875.13672m13.35156.36328l4.20703-5.6289m13.60547 5.38671l-4.78516-5.14453m4.08985 4.39453l-.40235 1.16016m15.52735-2.8125l-7.01954-.33985m6 .29297l.52344 1.10938m12.46094 1.53906l-4.3164-5.54297m18.84765 1.78906l-6.7461 1.96485m6.7461-1.96485l1.71094 1.75782m11.5703-1.86328l-6.67968 2.17578m6.67969-2.17578l1.76562 1.70312m11.4297-2.01562l-6.44141 2.80468m5.5039-2.39843l.96094.76171m13.21875-1.32421l-6.29688 3.11328m6.29688-3.11328l1.9961 1.42968m11.42968-1.18359l-6.51953 2.6211m6.51953-2.6211l1.8789 1.58203m11.65626-.76953l-6.95703.9961m6.95703-.9961l1.44922 1.98047m11.74609-2.51563l-6.71875 2.06641m6.71875-2.0664l1.73828 1.73046m11.73047-.57031l-7.02344-.2539m6 .21874l.53516 1.10157"/><g clip-path="url(#V)"><path fill="none" stroke="#000" stroke-linecap="round" stroke-linejoin="round" stroke-miterlimit="10" stroke-width=".5" d="M146.8789 371.79688l-5.7578 4.02343"/></g><path fill="none" stroke="#000" stroke-linecap="round" stroke-linejoin="round" stroke-miterlimit="10" stroke-width=".5" d="M146.04297 372.3789l1.08984.5586m12.1289-2.05469l-3.89452 5.84766m3.89453-5.84766l2.4414.24219m9.79688-.72266l-1.73828 6.8086m1.73828-6.8086l2.38281-.57812m6.98828 2.28125l6.14844 3.40625m-5.2539-2.91016l.01953-1.22656m12.0078 1.86328l6.9336 1.14063m-5.92578-.97657l-.39062-1.16015m13.14062-.21875l6.05078 3.57031m-5.17187-3.05078l.05469-1.22656m11.97656 1.73046l6.85937 1.52344m-5.86328-1.30078l-.32812-1.1836m13.27734 3.84376l5.60156-4.24219m-5.60156 4.24219l-2.22656-1.03125m16.35937 1.8125l3.96485-5.80469m-3.38672 4.96094l-1.22266-.13672m13.92969.96094l4.01953-5.76563m-3.4336 4.92578l-1.21874-.14844m13.80078.87891l4.3164-5.54687m-3.6875 4.73828l-1.21093-.21094m14.35156 1.32031l3.40625-6.14844m-2.91016 5.25391l-1.22656-.02344m12.6914-.42578l6.1172-3.46094m-5.22657 2.95704l-1.03515-.65625m13.95312 1.82812l5.1289-4.80078m-4.3828 4.10547l-1.16016-.39844m15.4414 2.10547l1.70313-6.82031m-1.45313 5.82812l-1.1914.29297m17.14844.15235l-4.07813-5.72657m18.48828 1.27735l-6.26953 3.17187m19.95703-1.38672l-7.01562-.39844m5.99609.33985l.51172 1.11719m13.66016-2.33985l-6.6875 2.16406m5.71484-1.84765l.8789.85156m12.125-2.9336l-4.12109 5.69141m4.1211-5.6914l2.42968.33984m11.875.76172l-6.10156 3.49219m5.21484-2.98438l1.03516.65625m13.47266-.45703l-6.71485 2.07422m6.71485-2.07422l1.74218 1.73047m11.10547-2.6914l-5.77734 4m5.77734-4L442 372.9336m11.6875.16406l-6.88281 1.42187m6.88281-1.42187l1.5664 1.89062m-2.5664-1.6836l.78125.94532m13.57813-.88281l-6.97266.88281"/><g clip-path="url(#W)"><path fill="none" stroke="#000" stroke-linecap="round" stroke-linejoin="round" stroke-miterlimit="10" stroke-width=".5" d="M467.04688 373.36719l1.41406 2.0039"/></g><g clip-path="url(#X)"><path fill="none" stroke="#000" stroke-linecap="round" stroke-linejoin="round" stroke-miterlimit="10" stroke-width=".5" d="M147.40234 359.61328l-6.80468 1.75781"/></g><path fill="none" stroke="#000" stroke-linecap="round" stroke-linejoin="round" stroke-miterlimit="10" stroke-width=".5" d="M147.40234 359.61328l1.65625 1.8125m10.9336-3.21094l-5.35156 4.5547m5.35156-4.5547l2.28125.90625m8.88281-2.10156l-1.05469 6.94922m1.05469-6.94922l2.3164-.8125m9.57813.88672l1.78906 6.79688m-1.52734-5.8047l.89844-.83593m10.13672 1.27734l5.82422 3.9336m-4.97657-3.36328l.1289-1.21875m11.73829 2.54296l7.02734.14454m-6.0039-.125l-.55469-1.09375m12.89063 1.69921l6.9375-1.10937m-5.9297.94922l-.73827-.98047m14.11718 3.15625l4.79297-5.13672m-4.09765 4.38672l-1.1836-.3164m14.98438 1.79296l2.42969-6.59375m-2.07422 5.63672l-1.21485.16406m14.75.95313l1.28125-6.91016m-1.09375 5.90235l-1.17187.37109m17 .02734l-4.1211-5.6914m3.52344 4.86328l-.53906 1.10156m13.72265.13281l-2.66015-6.5039m2.27344 5.5586l-.78516.9414m16.65234-3.59375l-6.99218.6875m5.97656-.58594l.67578 1.01953m6.66016-.46875l7-.61719m7.9453 3.28516l3.73829-5.94922m-3.19531 5.08203l-1.22266-.08984m16.9375 1.32812l-2.14844-6.6914m1.83594 5.71484l-.85547.88281m13.48438.25782l-.15235-7.02344m.13282 6.0039l-1.07032.59766m17.3047-4.95703l-5.94923 3.73828m5.08203-3.19531l1.06641.60937m12.75781-1.625l-5.23828 4.6836m4.47656-4.0039l1.15235.42577m12.64453-1.38672l-4.67578 5.2461m4.67578-5.2461l2.38281.58204m10.46875-.9336l-3.75 5.94531m3.75-5.9453l2.44531.18358m11.26172.10547l-4.53515 5.3672m4.53515-5.3672l2.39844.51954m10.25781-.95704l-3.21875 6.2461m3.21875-6.2461l2.45703-.03125m11.47266.4336l-4.44531 5.4414m4.44531-5.4414l2.41016.48047m11.89062.80468l-6.41406 2.8672m5.48047-2.44923l.96875.7539"/><g clip-path="url(#Y)"><path fill="none" stroke="#000" stroke-linecap="round" stroke-linejoin="round" stroke-miterlimit="10" stroke-width=".5" d="M146.96875 345.30078l-5.9375 3.7539"/></g><path fill="none" stroke="#000" stroke-linecap="round" stroke-linejoin="round" stroke-miterlimit="10" stroke-width=".5" d="M146.96875 345.30078l2.13281 1.21875m9.52735-2.59765L156 350.4375m2.2461-5.57031l1.22265-.1289m12.28125-.89063l-2.23828 6.66015m2.23828-6.66015l2.41797-.40235m8.42578.49219l2.70313 6.48438m-2.70313-6.48438l1.55469-1.89844m11.52344 2.0039l3.17578 6.26954m-2.71485-5.35547l.70703-1.0039m10.3672 2.21875l6.73437 2.01171m-5.75391-1.71875l-.24219-1.20312m12.55078 2.82031l6.78907-1.80469m-5.80078 1.53907l-.83594-.89844m13.44922 1.89844l6.21484-3.27735m-5.3086 2.80078l-1.01562-.6875m15.05078 2.71094L252 343.99218m-2.52734 5.44532l-1.22657.0664m13.23438.28126l4.71094-5.21485m-4.02735 4.45703l-1.1875-.30078m14.04297 1.2461l4.26172-5.58985m-3.64063 4.77735l-1.21093-.19922m19.2539-.3711l-6.43359-2.82421m5.4961 2.41406l.09374 1.22265m12.8672-5.16406l-3.85157 5.8789m18.70312-3.53515l-6.92578 1.1914m16.05078 2.84376l1.45313-6.875m-1.24219 5.875l-1.17969.33594m12.10547-.79688l5.8125-3.95313m-4.96484 3.375l-1.08594-.5703m19.96094-1.11329l-7.0039.5664m5.98437-.48437l.66015 1.03516m13.6172-1.52735l-6.89063 1.38672m5.88671-1.18359l.78125.94922m12.9922-2.44531l-5.79688 3.97265m5.79687-3.97265l2.17578 1.13671m10.91797-1.42578l-5.35547 4.55079m5.35547-4.55079l2.28125.90625m10.98047-.96484l-5.25 4.67188m5.25-4.67188l2.30078.85156m10.6875-1.17578l-4.59375 5.3164m4.59375-5.3164l2.39063.54297m10.60547-.78906l-3.95704 5.8086m3.95704-5.8086l2.4375.26953m10.34375-.5664l-2.89063 6.40234m2.89063-6.40235l2.44921-.16015m11.88282.85156l-4.92188 5.01953"/><g clip-path="url(#Z)"><path fill="none" stroke="#000" stroke-linecap="round" stroke-linejoin="round" stroke-miterlimit="10" stroke-width=".5" d="M466.02344 344.66797l2.35156.69531"/></g><g clip-path="url(#aa)"><path fill="none" stroke="#000" stroke-linecap="round" stroke-linejoin="round" stroke-miterlimit="10" stroke-width=".5" d="M145.29297 330.59766l-2.58594 6.53125"/></g><path fill="none" stroke="#000" stroke-linecap="round" stroke-linejoin="round" stroke-miterlimit="10" stroke-width=".5" d="M145.29297 330.59766l2.4414-.27344m9.16407.05078l.83203 6.97656m-.83203-6.97656l2.01562-1.40234m12.15235 1.40234l-.8711 6.97266m.8711-6.97266l2.29297-.8711m10.41406.85157l.34375 7.01562m-.34375-7.01562l2.10937-1.25781m10.10938 1.48828l2.53515 6.55469m-2.53515-6.5547l1.60156-1.85546m9.71484 3.84375l6.53516 2.57812m-5.58594-2.20312l-.13672-1.21875m12.32422 1.4414l6.89063 1.38282m-5.88672-1.1836l-.35156-1.17578m12.65625 2.32031l6.90234-1.30859m-5.89844 1.1211l-.76562-.95704m13.45312 2.19532l6.14844-3.40625m-5.2539 2.91015l-1.02735-.66797m13.6914 1.53907l5.66407-4.15625m-5.66406 4.15625l-2.21094-1.06641m15.5625 1.11328l5.59375-4.2539m-5.59375 4.2539l-2.23047-1.02734m15.34766.73828l5.98828-3.67188m-5.98828 3.67188l-2.1172-1.24219m15.12892.6211l6.59375-2.4297m-5.63672 2.07423l-.91407-.81641m13.10547-.625l6.92969 1.16406m7.54297 2.07031l4.61328-5.30468m7.51953 3.07031l6.97656-.83594m-5.96093.71485l-.70313-1.00782m14.16016 3.33985l4.66015-5.25781m-3.98046 4.49218l-1.19532-.28515m16.90235 1.85546l-1.48438-6.86718m17.35156 2.21484l-6.58984 2.4375M386.00781 333l.91406.8164m12.52344-2.46093l-4.91797 5.01562m4.91797-5.01562l2.35547.6914m10.17188-1.27734l-3.33985 6.1836m3.33985-6.1836l2.45312.01953m11.04688.08985l-3.71094 5.96875m3.17187-5.09766l1.22266.08203m13.53906-.13672l-5.52734 4.33594m5.52734-4.33594l2.2461.99219m11.3789-.52344l-6.14844 3.39844m6.14844-3.39844l2.0586 1.33594m-2.95313-.84375l1.02735.67188m12.83984-1.67579l-5.46094 4.42188"/><g clip-path="url(#ab)"><path fill="none" stroke="#000" stroke-linecap="round" stroke-linejoin="round" stroke-miterlimit="10" stroke-width=".5" d="M466.29297 331.65234l2.25781.96094"/></g><g clip-path="url(#ac)"><path fill="none" stroke="#000" stroke-linecap="round" stroke-linejoin="round" stroke-miterlimit="10" stroke-width=".5" d="M143.65625 317.05078l.6875 6.99219"/></g><g clip-path="url(#ad)"><path fill="none" stroke="#000" stroke-linecap="round" stroke-linejoin="round" stroke-miterlimit="10" stroke-width=".5" d="M143.65625 317.05078l2.04688-1.35547"/></g><path fill="none" stroke="#000" stroke-linecap="round" stroke-linejoin="round" stroke-miterlimit="10" stroke-width=".5" d="M156.0625 317.26563l2.5039 6.5664m-2.5039-6.5664l1.61328-1.84766m-1.25 2.80078l.8086-.92188m12.04687.00782l2.69531 6.48828m-2.69531-6.48828l1.5625-1.89453m-1.16797 2.83593l.77734-.9453m12.36329-.08204l2.2578 6.65625m-2.2578-6.65625l1.67968-1.78516m10.92188 2.125l3.6875 5.98047m-3.6875-5.98047l1.23828-2.11718m11.28516 2.78125l5.26562 4.65234m-5.26562-4.65234l.57422-2.38672m12.40234 2.83594l5.9414 3.7539m-5.9414-3.7539l.1836-2.44532m12.73046 3.33594l6.7461 1.97266m-5.76172-1.6875l-.25-1.19922m12.45703 1.54297l6.99219.71093m-5.97266-.60546l-.46484-1.13672m12.77734 1.875l6.96094-.97266m-6.96094.97266l-1.4414-1.98438m14.72265 1.57422l7.02734-.15234m-7.02734.15234l-1.19531-2.14063m14.53125 1.6875l6.98828.75391m-6.98828-.7539l-.91407-2.27735m14.21094 2.53125l7.02344.24219m-7.02344-.24219l-1.07812-2.20312m14.41796 2.74218l6.97657-.83593m-6.97657.83593l-1.40234-2.01171m15.4414 3.76562l5.52735-4.33984m-4.72266 3.70703l-1.125-.4961m14.51563 1.92579l3.76172-5.9336m-3.21485 5.07031l-1.22265-.09375m13.48047.5625l4.78515-5.14453m-4.08984 4.39453l-1.1836-.3164m12.78516-2.34766l6.82422 1.67969m-5.83203-1.4336l-.30078-1.1914m19.54687 1.83203l-7.02734-.08984m6.00781.07421l.5586 1.09375m12.98828-3.33984l-5.44922 4.4336m5.44922-4.4336l2.26172.95313m9.9414-1.85938l-3.22656 6.24219m3.22656-6.24219l2.45313-.02734m8.66797-.3164l1.16406 6.92968m-.9961-5.92188l.97266-.74609m15.89453 4.78516l-6.27734-3.16016m5.36328 2.69922l.02734 1.22656m14.4375-3.32031l-6.75 1.94531m6.75-1.94531l1.70703 1.76172m-2.6875-1.47656l1.70704 1.76171m12.3164-2.71875l-6.20703 3.29297"/><g clip-path="url(#ae)"><path fill="none" stroke="#000" stroke-linecap="round" stroke-linejoin="round" stroke-miterlimit="10" stroke-width=".5" d="M466.66406 318.90234l2.03516 1.3711"/></g><path fill="none" stroke="#000" stroke-linecap="round" stroke-linejoin="round" stroke-miterlimit="10" stroke-width=".5" d="M465.76172 319.3789l1.01562.6875"/><path fill="#00f" fill-rule="evenodd" d="M388.23828 472.08594h8.61719V461.9414h-8.61719v10.14453"/><path fill="azure" fill-rule="evenodd" d="M390.07031 463.77344h.83594v2.82422h3.28516v-2.82422h.83203v6.48047h-.83203v-2.91797h-3.28516v2.91797h-.83594v-6.48047"/><path fill="#00f" fill-rule="evenodd" d="M201.82813 458.77344h8.61718V448.625h-8.61719v10.14844"/><path fill="azure" fill-rule="evenodd" d="M203.66016 450.45703h.83203v2.82422h3.28906v-2.82422h.83203v6.48047h-.83203v-2.91406h-3.28906v2.91406h-.83203v-6.48047"/><path fill="#00f" fill-rule="evenodd" d="M383.80078 436.57813h8.61719v-10.14454h-8.61719v10.14454"/><path fill="azure" fill-rule="evenodd" d="M385.63281 428.26563h.83203v2.82421h3.28907v-2.82421h.83203v6.48046h-.83203v-2.91406h-3.28907v2.91406h-.83203v-6.48046"/><path fill="#ff3030" fill-rule="evenodd" d="M322.35938 378.88281h7.6914v-10.14844h-7.6914v10.14844"/><path fill="azure" fill-rule="evenodd" d="M324.1914 370.5664h.83204v5.7422h3.19531v.73827h-4.02734v-6.48046"/><path fill="#ff3030" fill-rule="evenodd" d="M238.02734 374.4414h7.69532v-10.14452h-7.69532v10.14453"/><path fill="azure" fill-rule="evenodd" d="M239.86328 366.1289h.83203v5.7422h3.19531v.73827h-4.02734v-6.48046"/><path fill="#ffffe0" fill-rule="evenodd" d="M356.42188 334.73047h22.17968v-10.19531h-22.17969v10.1953"/><path fill-rule="evenodd" d="M359.92188 326.3711h.5078v6.29296h-.78515v-4.48828h-1.38672v-.55469l.5586-.0664.25-.05469.23046-.08984.20313-.14063.17578-.21094.14063-.29296.10546-.39454m4.8125 0l.23047.01954.21875.05468.20704.08985.19921.12109.1836.14844.17187.17578.30078.41797.2422.4961.17968.54687.11328.57812.03906.58985-.03906.59375-.11328.58593-.17969.55078-.24219.50391-.30078.42578-.17187.17969-.1836.15625-.19921.1211-.20704.09374-.21875.05469-.23046.01953-.22657-.01953-.21875-.05469-.21094-.09375-.1953-.1211-.1836-.15624-.17188-.17969-.30078-.42578-.24219-.5039-.17968-.55079-.11328-.58594-.03907-.59375h.83594l.02735.5625.08203.50782.125.4414.16406.375.1914.30079.20704.22265.22265.13672.22656.04688.22657-.04688.22265-.13672.21094-.22265.1914-.30079.16407-.375.125-.4414.08203-.50781.02735-.5625-.02735-.5625-.08203-.5-.125-.4336-.16406-.36719-.1914-.29296-.21095-.21094-.22265-.13281-.22656-.04688-.22657.04688-.22265.1328-.20704.21094-.1914.29297-.16406.3672-.125.43358-.08204.5-.02734.5625h-.83594l.03907-.58984.11328-.57812.17969-.54688.24218-.4961.30078-.41796.17188-.17578.1836-.14844.1953-.1211.21094-.08984.21875-.05469.22656-.01953m4.95313 0l.23047.01954.21875.05468.20703.08985.19922.12109.1836.14844.17187.17578.30078.41797.24219.4961.17968.54687.11329.57812.03906.58985-.03906.59375-.11329.58593-.17968.55078-.2422.50391-.30077.42578-.17188.17969-.1836.15625-.19921.1211-.20703.09374-.21875.05469-.23047.01953-.22656-.01953-.21875-.05469-.21094-.09375-.19531-.1211-.1836-.15624-.17187-.17969-.30078-.42578-.2461-.5039-.17968-.55079-.10938-.58594-.03906-.59375h.83203l.03125.5625.08203.50782.125.4414.16406.375.1875.30079.21094.22265.22266.13672.22656.04688.22656-.04688.22266-.13672.21094-.22265.1914-.30079.16406-.375.125-.4414.08204-.50781.02734-.5625-.02734-.5625-.08204-.5-.125-.4336-.16406-.36719-.1914-.29296-.21094-.21094-.22266-.13281-.22656-.04688-.22656.04688-.22266.1328-.21094.21094-.1875.29297-.16406.3672-.125.43358-.08203.5-.03125.5625h-.83203l.03906-.58984.10938-.57812.17968-.54688.2461-.4961.30078-.41796.17187-.17578.1836-.14844.19531-.1211.21094-.08984.21875-.05469.22656-.01953m4.95313 0l.38671.02735.35938.08203.32422.13672.27734.1875.23047.23828.17188.28515.10937.33204.03906.375-.01953.27343-.0586.23829-.08593.19921-.11328.16797-.1289.14453-.14063.125-.28516.19532.23047.11718.20703.14844.1836.17188.15234.1914.125.21485.08984.23046.05469.2422.01953.2578-.03515.3086-.10157.32422-.17187.32812-.23828.30469-.3086.26953-.375.21485-.21094.08203-.22656.05859-.2461.03906-.26171.01172-.25781-.01172-.24219-.03906-.22266-.0586-.20703-.08202-.35937-.21485-.28906-.26953-.22266-.30469-.15625-.32812-.09375-.32422-.03125-.3086h.83203l.02734.25391.07813.23438.125.21093.16015.1836.19141.15234.21875.11719.24219.07031.2539.02735.25391-.02735.24219-.07031.21875-.11719.19531-.15234.16016-.1836.1211-.21093.07812-.23438.02734-.2539-.02734-.25391-.07813-.23438-.1211-.21484-.16015-.1836-.19531-.15234-.21875-.11328-.24219-.07422-.2539-.02344-.25391.02344-.24219.07422-.21875.11328-.1914.15235-.16016.18359-.125.21484-.07813.23438-.02734.2539h-.83203l.01953-.2539.05469-.24219.09375-.22265.1211-.20704.15624-.1914.17969-.17188.20703-.15234.23438-.13281-.28907-.19532-.13672-.125-.1328-.14453-.10938-.16797-.08985-.19921-.05469-.23829-.02343-.27343h.78906l.02344.21484.0664.1914.10157.16798.13671.13671.16797.11329.1875.08203.20704.05078.21875.01562.22265-.01562.20703-.05078.1875-.08204.16406-.11328.13672-.13671.10547-.16797.0664-.19141.02345-.21484-.02344-.21485-.0664-.1914-.10548-.16407-.13671-.14062-.16407-.10938-.1875-.08203-.20703-.05078-.22265-.01953-.21875.01953-.20704.05078-.1875.08203-.16796.10938-.13672.14062-.10157.16407-.0664.1914-.02344.21485h-.78906l.03906-.375.10938-.33204.17187-.28515.23047-.23828.28125-.1875.32031-.13672.35938-.08203.38671-.02735"/><path fill="#ffffe0" fill-rule="evenodd" d="M168.64844 404.64453h22.17969v-10.1914h-22.1797v10.1914"/><path fill-rule="evenodd" d="M172.14844 396.28516h.50781v6.29687h-.78516v-4.49219h-1.39062v-.55468l.5586-.0625.2539-.0547.23047-.08983.20312-.14063.17188-.21094.14453-.29297.10547-.39843m4.8125 0l.23047.01953.21875.05469.20703.08984.19531.1211.1836.15234.17187.17578.30469.41797.24218.49218.1797.54688.10937.57812.03906.59375-.03906.59375-.10938.58204-.17969.55468-.24218.5-.3047.42969-.17187.17969-.18359.15234-.19531.125-.20703.08985-.21875.05859-.23047.01953-.23047-.01953-.21875-.0586-.20703-.08984-.19531-.125-.1836-.15234-.17187-.17969-.3047-.42969-.24218-.5-.17969-.55469-.10937-.58203-.03906-.59375h.83203l.03125.5625.07812.50391.1289.44531.16017.375.1914.30078.21094.21875.22266.13672.22656.04688.22656-.04688.22266-.13672.21093-.21875.19141-.30078.16016-.375.1289-.44531.08203-.5039.02735-.5625-.02735-.5625-.08203-.5-.1289-.4336-.16016-.36719-.1914-.29297-.21094-.21484-.22266-.1289-.22656-.04688-.22656.04687-.22266.12891-.21094.21484-.1914.29297-.16016.36719-.1289.4336-.07813.5-.03125.5625h-.83203l.03906-.59376.10937-.57812.1797-.54688.24218-.49218.30469-.41797.17187-.17578.1836-.15235.1953-.1211.20704-.08983.21875-.0547.23047-.01952m4.95312 0l.23047.01953.21875.05469.20703.08984.19531.1211.1836.15234.17187.17578.30078.41797.2461.49218.17969.54688.10937.57812.03906.59375-.03906.59375-.10937.58204-.1797.55468-.24608.5-.30079.42969-.17187.17969-.1836.15234-.1953.125-.20704.08985-.21875.05859-.23047.01953-.23047-.01953-.21875-.0586-.20703-.08984-.19531-.125-.1875-.15234-.16797-.17969-.30469-.42969-.24218-.5-.1797-.55469-.11327-.58203-.03516-.59375h.83203l.02735.5625.08203.50391.1289.44531.16016.375.1914.30078.21094.21875.22266.13672.22656.04688.22656-.04688.22266-.13672.21094-.21875.1914-.30078.16016-.375.1289-.44531.07813-.5039.03125-.5625-.03125-.5625-.07812-.5-.1289-.4336-.16017-.36719-.1914-.29297-.21094-.21484-.22266-.1289-.22656-.04688-.22656.04687-.22266.12891-.21093.21484-.19141.29297-.16016.36719-.1289.4336-.08203.5-.02735.5625h-.83203l.03516-.59376.11328-.57812.17969-.54688.24218-.49218.3047-.41797.16796-.17578.1875-.15235.19531-.1211.20703-.08983.21875-.0547.23047-.01952m4.95313 0l.38672.02734.35937.08594.32031.13281.28125.1875.23047.23828.17188.28516.10937.33203.03906.3789-.02343.27344-.05469.23438-.08984.20312-.11328.16797-.12891.14453-.13672.1211-.28906.19921.23437.1172.20703.14452.1797.17188.15624.19531.1211.21485.09375.22656.05468.2461.01953.2539-.03515.3125-.10547.32422-.17188.32421-.23828.3086-.30469.26953-.375.21484-.21093.07813-.23047.0625-.24219.03906-.26172.01172-.26172-.01172-.23828-.03906-.22656-.0625-.20313-.07813-.35937-.21484-.28906-.26953-.22266-.3086-.16016-.32421-.08984-.32422-.03125-.3125h.83203l.02735.2539.07812.23438.1211.21484.16015.1836.19531.15234.21875.11328.23828.07422.25782.02344.2539-.02344.2422-.07422.21874-.11328.1914-.15234.16016-.1836.125-.21484.07813-.23438.02734-.2539-.02734-.25-.07813-.23828-.125-.21094-.16015-.1836-.1914-.15234-.21876-.11719-.24219-.0703-.2539-.02735-.25781.02734-.23829.07031-.21875.1172-.1953.15233-.16017.1836-.12109.21094-.07812.23828-.02735.25h-.83203l.01953-.2539.05469-.23829.08984-.22266.125-.21093.15235-.1875.1836-.17579.20702-.15234.23047-.1289-.28516-.19922-.14062-.1211-.1289-.14453-.11329-.16797-.08594-.20312-.05859-.23438-.01953-.27344h.78516l.02343.21485.06641.1914.10547.16407.13672.14062.16406.11328.1875.07813.20703.05078.22266.01953.21875-.01953.20703-.05078.1875-.07813.16797-.11328.13672-.14062.10156-.16406.0664-.19141.02344-.21485-.02344-.21484-.0664-.1914-.10156-.16797-.13672-.13672-.16797-.11328-.1875-.08204-.20703-.05078-.21875-.01562-.22266.01562-.20703.05079-.1875.08203-.16406.11328-.13672.13672-.10547.16796-.0664.19141-.02344.21485h-.78516l.03906-.37891.10938-.33203.17187-.28516.23047-.23828.27734-.1875.32422-.13281.35938-.08594.38672-.02734"/><path fill="#ffffe0" fill-rule="evenodd" d="M278.45313 445.6875h22.18359v-10.1914h-22.1836v10.1914"/><path fill-rule="evenodd" d="M281.95313 437.32813h.51171v6.29687h-.78906v-4.49219h-1.38672v-.55469l.5586-.0664.2539-.05078.22656-.08985.20313-.14062.17578-.21094.14063-.29687.10546-.39454m4.81641 0l.22656.01954.21875.05468.21094.08985.19531.1211.1836.14843.17187.17578.30078.42188.2422.49218.17968.54688.11328.57812.03906.59375-.03906.58985-.11328.58593-.17969.5547-.24219.5-.30078.42968-.17187.17969-.1836.15234-.1953.125-.21095.08984-.21875.0586-.22656.01953-.23047-.01953-.21875-.0586-.20703-.08984-.19922-.125-.1836-.15234-.17187-.1797-.30078-.42968-.24219-.5-.17968-.55469-.11328-.58593-.03907-.58985h.83594l.02735.5625.08203.5039.125.44532.16406.3711.1914.30078.21094.22265.22266.13672.22656.04688.22266-.04688.22265-.13672.21094-.22265.1914-.30079.16407-.37109.125-.44531.08203-.5039.02735-.5625-.02735-.5625-.08203-.5-.125-.4375-.16406-.36329-.1914-.29297-.21095-.21484-.22265-.13281-.22266-.04297-.22656.04297-.22266.1328-.21094.21485-.1914.29297-.16406.36328-.125.4375-.08204.5-.02734.5625h-.83594l.03907-.59375.11328-.57812.17969-.54688.24218-.49219.30078-.42187.17188-.17578.1836-.14844.19921-.1211.20703-.08984.21875-.05468.23047-.01954m4.94922 0l.23047.01954.21875.05468.20703.08985.19922.1211.1836.14843.17187.17578.30078.42188.24219.49218.17968.54688.11329.57812.03906.59375-.03906.58985-.11329.58593-.17968.5547-.2422.5-.30077.42968-.17188.17969-.1836.15234-.19921.125-.20703.08984-.21875.0586-.23047.01953-.22656-.01953-.21875-.0586-.21094-.08984-.19531-.125-.1836-.15234-.17187-.1797-.30078-.42968-.24219-.5-.1836-.55469-.10937-.58593-.03906-.58985h.83203l.03125.5625.08203.5039.125.44532.16406.3711.1875.30078.21094.22265.22266.13672.22656.04688.22656-.04688.22266-.13672.21094-.22265.1914-.30079.16406-.37109.125-.44531.08204-.5039.02734-.5625-.02734-.5625-.08204-.5-.125-.4375-.16406-.36329-.1914-.29297-.21094-.21484-.22266-.13281-.22656-.04297-.22656.04297-.22266.1328-.21094.21485-.1875.29297-.16406.36328-.125.4375-.08203.5-.03125.5625h-.83203l.03906-.59375.10938-.57812.18359-.54688.24219-.49219.30078-.42187.17187-.17578.1836-.14844.19531-.1211.21094-.08984.21875-.05468.22656-.01954m4.95313 0l.38671.02735.35938.08203.32422.13672.27734.1875L298.25 438l.17188.28516.10937.33203.03906.3789-.01953.27344-.0586.23438-.08593.19921-.11328.17188-.1289.14453-.14063.1211-.28516.1953.23047.1211.20703.14453.1836.17188.15234.19531.125.21094.08984.23047.05469.24609.01953.2539-.03515.3086-.10157.32813-.17187.32421-.23828.3086-.3086.26953-.375.21094-.21094.08203-.22656.0625-.2461.03906-.26171.01172-.25781-.01172-.24219-.03906-.22266-.0625-.20703-.08203-.35937-.21094-.28906-.26953-.22266-.3086-.15625-.32421-.09375-.32813-.03125-.3086h.83203l.02734.25391.07813.23438.125.21484.16015.1836.19141.15234.21875.11328.24219.07422.2539.02344.25782-.02344.23828-.07422.21875-.11328.19531-.15235.16016-.18359.1211-.21484.07812-.23438.02734-.2539-.02734-.25391-.07813-.23438-.1211-.21093-.16015-.1836-.19531-.15234-.21875-.11719-.23828-.07031-.25781-.02734-.25391.02734-.24219.07031-.21875.11719-.1914.15234-.16016.1836-.125.21094-.07813.23437-.02734.2539h-.83203l.01953-.2539.05469-.23828.09375-.22266.1211-.21094.15624-.1914.17969-.17188.20703-.15234.23438-.13281-.28907-.19531-.13672-.1211-.1289-.14453-.11328-.17188-.08985-.19921-.05469-.23438-.02343-.27344h.78906l.02344.21485.0664.1914.10157.16407.13671.14062.16797.10938.1875.08203.20704.05078.21875.01953.22265-.01953.20703-.05078.1875-.08203.16406-.10938.13672-.14062.10547-.16407.0664-.1914.02345-.21485-.02344-.21484-.0664-.1914-.10548-.16798-.13671-.13671-.16407-.11329-.1875-.08203-.20703-.05078-.22265-.01562-.21875.01562-.20704.05078-.1875.08204-.16796.11328-.13672.13671-.10157.16797-.0664.19141-.02344.21484h-.78906l.03906-.3789.10938-.33203.17187-.28516.23047-.23828.28125-.1875.32031-.13672.35938-.08203.38671-.02735"/></g></defs><use xlink:href="#af"/></svg>