<svg xmlns="http://www.w3.org/2000/svg" role="img" xmlns:xlink="http://www.w3.org/1999/xlink" viewBox="142.45 309.95 326.84 171.84"><defs><clipPath id="a"><path d="M144 311.67188h1v168.65625h-1zm0 0"/></clipPath><clipPath id="b"><path d="M144 311.67188h324v168.65625H144zm0 0"/></clipPath><clipPath id="c"><path d="M467 311.67188h1v168.65625h-1zm0 0"/></clipPath><clipPath id="d"><path d="M144 476h2v4.32813h-2zm0 0"/></clipPath><clipPath id="e"><path d="M154 477h7v3.32813h-7zm0 0"/></clipPath><clipPath id="f"><path d="M167 478h7v2.32813h-7zm0 0"/></clipPath><clipPath id="g"><path d="M172 478h3v2.32813h-3zm0 0"/></clipPath><clipPath id="h"><path d="M180 479h8v1.32813h-8zm0 0"/></clipPath><clipPath id="i"><path d="M186 479h2v1.32813h-2zm0 0"/></clipPath><clipPath id="j"><path d="M193 479h8v1.32813h-8zm0 0"/></clipPath><clipPath id="k"><path d="M199 480h2v.32813h-2zm0 0"/></clipPath><clipPath id="l"><path d="M206 479h9v1.32813h-9zm0 0"/></clipPath><clipPath id="m"><path d="M212 480h2v.32813h-2zm0 0"/></clipPath><clipPath id="n"><path d="M220 480h8v.32813h-8zm0 0"/></clipPath><clipPath id="o"><path d="M226 480h2v.32813h-2zm0 0"/></clipPath><clipPath id="p"><path d="M233 479h8v1.32813h-8zm0 0"/></clipPath><clipPath id="q"><path d="M239 480h2v.32813h-2zm0 0"/></clipPath><clipPath id="r"><path d="M246 479h9v1.32813h-9zm0 0"/></clipPath><clipPath id="s"><path d="M252 480h2v.32813h-2zm0 0"/></clipPath><clipPath id="t"><path d="M260 478h8v2.32813h-8zm0 0"/></clipPath><clipPath id="u"><path d="M273 478h8v2.32813h-8zm0 0"/></clipPath><clipPath id="v"><path d="M286 478h9v2.32813h-9zm0 0"/></clipPath><clipPath id="w"><path d="M292 480h2v.32813h-2zm0 0"/></clipPath><clipPath id="x"><path d="M300 479h8v1.32813h-8zm0 0"/></clipPath><clipPath id="y"><path d="M306 480h2v.32813h-2zm0 0"/></clipPath><clipPath id="z"><path d="M313 479h8v1.32813h-8zm0 0"/></clipPath><clipPath id="A"><path d="M319 480h1v.32813h-1zm0 0"/></clipPath><clipPath id="B"><path d="M327 478h7v2.32813h-7zm0 0"/></clipPath><clipPath id="C"><path d="M340 478h8v2.32813h-8zm0 0"/></clipPath><clipPath id="D"><path d="M353 479h8v1.32813h-8zm0 0"/></clipPath><clipPath id="E"><path d="M360 480h2v.32813h-2zm0 0"/></clipPath><clipPath id="F"><path d="M367 477h7v3.32813h-7zm0 0"/></clipPath><clipPath id="G"><path d="M379 479h9v1.32813h-9zm0 0"/></clipPath><clipPath id="H"><path d="M386 479h3v1.32813h-3zm0 0"/></clipPath><clipPath id="I"><path d="M393 478h8v2.32813h-8zm0 0"/></clipPath><clipPath id="J"><path d="M407 477h7v3.32813h-7zm0 0"/></clipPath><clipPath id="K"><path d="M420 477h7v3.32813h-7zm0 0"/></clipPath><clipPath id="L"><path d="M433 478h8v2.32813h-8zm0 0"/></clipPath><clipPath id="M"><path d="M439 478h4v2.32813h-4zm0 0"/></clipPath><clipPath id="N"><path d="M446 479h8v1.32813h-8zm0 0"/></clipPath><clipPath id="O"><path d="M452 480h2v.32813h-2zm0 0"/></clipPath><clipPath id="P"><path d="M460 477h7v3.32813h-7zm0 0"/></clipPath><clipPath id="Q"><path d="M144 463h3v8h-3zm0 0"/></clipPath><clipPath id="R"><path d="M144 451h3v6h-3zm0 0"/></clipPath><clipPath id="S"><path d="M144 437h3v7h-3zm0 0"/></clipPath><clipPath id="T"><path d="M144 423h2v8h-2zm0 0"/></clipPath><clipPath id="U"><path d="M144 410h3v7h-3zm0 0"/></clipPath><clipPath id="V"><path d="M144 399h4v3h-4zm0 0"/></clipPath><clipPath id="W"><path d="M144 385h2v4h-2zm0 0"/></clipPath><clipPath id="X"><path d="M144 372h4v3h-4zm0 0"/></clipPath><clipPath id="Y"><path d="M144 360h4v1h-4zm0 0"/></clipPath><clipPath id="Z"><path d="M144 345h4v4h-4zm0 0"/></clipPath><clipPath id="aa"><path d="M144 331h3v6h-3zm0 0"/></clipPath><clipPath id="ab"><path d="M144 316h2v9h-2zm0 0"/></clipPath><clipPath id="ac"><path d="M466 318h2v2h-2zm0 0"/></clipPath><clipPath id="ad"><path d="M465 318h3v3h-3zm0 0"/></clipPath><g id="ae" clip-path="url(#clip1)"><path fill="#fff" fill-opacity="0" fill-rule="evenodd" d="M0 0h1000v1000H0zm0 0"/><path fill="#d3d3d3" fill-opacity="0" fill-rule="evenodd" d="M162.15234 355.86719l-.23437.29297.0586.23437.11718.17188.17578.23437.29297.34766.11328.0586.11719-.17188.0586-.23438.17577-.17578.46485-.17578h.69922l.23437.29297.28906.8164.0586.17579.17578.23046.35156.23438.69922.69922.17188.17578.23437.34765.23438.41016.28906.58203.41015.46485.23047.23437.23438.17578.11719.23047.17578.29297.17187 1.16406v.23438l.0586.28906.05859.11719.11719.11719.34765.41015.11719.17188.17578.17578.17578.23437.11719.17188.17188.35156.05859.23438.23437.40625.23438-.0586-.17578.17578-.0586.92969h-.58203l-.23437-.11328-.34766.11328-.11719.11719-.05859.29297-.0586.17578-.11718.17187-.46484.29297-.0586.23438-.0586.11328v.64453l.0586.17187v.41016l.0586.0586v.40624l.05859.40625.11719.17579.05859.05859.23047.64062-.0586.29297v.69922l-.05859.58203v.23438l-.0586.23047-.05468.35156v1.92187l.05469.1172h.42578l-.36719.11718-.02344.35156.89063 1.16797 1.74219.53906 1.33984.35938v.53906l.08984.8086.53516.71484 1.51953.26953.89063-.08594.08984 1.16406.53516.1797 1.16015-.1797 2.05469-.98437 1.16016-.36328 1.8789-.17578 1.69531-.1797-.17968.71876-1.51563.08594-1.25.08984-.80469.26953-1.07421.8086.26953.71875.53515.89843-.17968.625-.26563.8086.26563 1.07812.625.89844.80468.17969 1.25-.1797-.26562.72267.09766.5039.05468.29297v.17188l.0586.29296v.40625l.17578.1172.35156.11718h.40625l.29297-.17578.11328-.11719.0586-.11719.11718-.23047.0586-.17578.35156-.46484.23047-.17578.17578-.0586.17578.0586.0586.17578.11718.98828.05469.46875.0586.17188.11718.23437.17578.0586.8164.05859h.28907l.11719.23437.05859.40625.0586.35156v1.10547l.11718.29297.11719.34766.28906.69922.17578.35156.58203.7539.35157.17579.17187.0586.46875.23437.64063.46484.34765.23438.29297.17578.29297.05468.23047.0625.8164.34766.29297.17578.11328.17188.35157.35156.11719.17578.52343.64063v.28906l.0586.35156v.34766l.05859.35156.0586.28906.11718.0586.17188.05859h.17578l.58203.23437.17578.1172.17578.28905.17578.23438.11328.23437.29297.23047.11719.11719v.41016l.0586.05468.28906.23438.23437.11719.0586.11718.11718.17188.0586.11719.23047.23437.05859.17578.23437.0586.1172.05859-.1172.11328-.05859.11719v.11719l-.11719.29296-.11719.28907v.58203l.17579.11719.11718.05859.0586.11719.11719.11719.11328.05859.17578.34765.0586.35157.05858.40625v.17578l-.05859.17578-.11719.69922v.17187l.1172.17579.29296.29296h.40625l.17578.1172.11719.17187.11719.29296v.23438h-.52735l-.23047-.23438h-.23437l-.17578.0586-.0586.69922.0586.34765.11719.17579.17578.41015.11718.23047.28907.46875.17578.05469h.52344l.23437.0586.75781.64062.0586.29296v.23438l.05859.0586.23047.34765v.35156l-.11719.17188v.29297l.29297.28906.29297.17578.17187.0586.29297.17577.29297.1172.58203.40624.28906.23438.29297.17578.21875.16015.01563.01172.23047.17579.64062.52343.17578.23438.1172.17578.17577.17578.11328.17188v.64062l.1172.17578.46874.11719.58203.11719.23438.05859.23047.11328.29297.11719.11328.0586.58593.35156.28907.17187.17578.0625.17578.05469.17578.0586.69922.35155.28906.17579.23438.05468.28906.17578.23437.1172.64063.40624.29297.11719.17187.0586.23438.05859.41015.05859.23047.0586.23438.11718.0586.17188-.41017.17578.46875.0586.0586.29296.11328.23438.17578.05468.23438.0586.17578.05859.40625.11719.64062.23437.11719.17188.0586.23437v.17578l-.0586.1172-.0586.40624.23438.23438.11719.05859.34766.11719.64062.23047.17578.11718.28906.1172.17578.17577.23438.46485.58203 1.10546.17578.17579.34766.17578.17578.11719.35156.11718 1.04688.52344.23437.0586.46485.11327.29297.0586.46484.17578.75781.58203.23438.23438.34765.46484.17578.17578.28907.23438.8164.69921.29297.17579.28906.28906.29297.17578.29297.28906.69531.64063.17578.17578.29297.23437.28907.23438.46875.28906.64062.58203.34766.23438.23437.29297.34766.34765.35156.46485.9336.99218.34765.40625.11719.17579.23437.05859.11328.11719.64454.17578.23047.11328.23437.0586.29297.17577.23047.1172.9336.69921.40624.40625.23438.17578.40625.17578.23437.11719.8164.34766.34766.23437.23438.11719.29297.28906.23047.11719.7578.35156.35157.17188.23047.05859.29297.11719.23437.0586.8711.17577h.8164l.46875.23047.17188.0586.875.69921.46484.1172.29297.05858.17578.0586.23047.0586.46875.05859.34766.05859.35156.0586.40625.05859h.29297l.17187.0586v.23046l.17578.17578h.29297l.34766.0586.35156.05859.69922.11719h.64063l.46484-.23438.29297-.17578.17187-.11719.41016-.17187.28906-.17578.9336-.46485.46875-.29297.52343-.29296.46485-.17188.46484-.17578 1.05078-.46485.28906-.11718.41016-.11719.28906-.11719.52735-.17578 1.51562-.69922.58203-.34765.28907-.0586.29297-.0586.34765-.11718.875-.23047.35156-.11719h.11329l.23437-.05859.875-.23437.23438-.0586h.8125l.35156-.0586.8164-.11718.17188-.0586.35156-.05468.29297-.0586.23047-.05859.8164-.17578.17579-.0586h.34765l.23438-.05859.46484-.11718.75781-.17188.23438-.0586h.34765l.41016-.11718.28906-.0586 1.28516-.05859h.28906l.41016-.0586.23047-.05858h.17578l.875-.1172h.40625l.41015-.11718h.34766l.35156-.11328.8711-.0586h1.75l1.04687.28907.41016.11719.28906.11718.35156.11719.28907.11719 1.05078.17187.28906.0586h.29297l.29297.05859.17187.0586.41016.05859.17187.0586.1172.05858h.11718l.11719.0586.35156.0586h.11328l.41016.0664 1.92187.39453 1.92578.39453 1.51953.44922 1.69532.71875 2.14453.80469 1.60547-.71875 1.42968-.80469 1.16016-1.07813 1.25-.44921 3.03516-.71875 1.875-.35938 2.14453-1.34765 2.23437-1.25391 2.5-1.25781 1.69531-.44922 1.78516-.17969 1.16016-.26953.625.53906 1.33984-.26953.71485-.98828.98437-1.34375.44531-.17969.80469-.35937 1.875-.53907 1.78516-.44921 1.25-.26954 1.16015-.08984 1.69922-.08984 1.96094-.26954 1.25-.08984h.53906l.625-.08984h.89063l2.14453-.17969 2.41015-.17969 2.58985-.08984 1.69531.17969 1.60938.08984 1.42968.35938 1.16016.71875 1.875.98828 1.16015 1.52734.26563.71484.6289.08985.35548.89844.53515.53906.53516 1.52734 1.07422.35938h.53515l-.80469.53515.08985 1.70703.71484 2.69532.89063.80468.89453.98829.71484 1.2578 1.78516.53907 1.51953-.17969.35547 1.34375 1.60937-.80469.98047-.53906.26953.26953.31641-.21484.21875-.14453.80078.44922.44922-.35938h.35547l.53515-.26953.53907-.71875.53515-.26953.625-.98828 1.16016.44922.83984.3711 1.39454.61718 1.6953-.17969h1.60548l1.78515.08985.17969-1.70704.53516-1.34375.80468.26954.4922.84765.40233.40625-.08984.53906v.35938l.71485.44922.71093-.26953h1.42969l.35938.98828.4453 1.25781.71485 1.34375 1.25.6289 1.69531.62891.71485-.17969.17969-.53906.98046-.08984.44922.35937.08594 1.25782-.26563.6289-.53515.17969v.53906l.71484.98438.26563.53906.98437.98828.80078 1.07813-.26562.35937-.08985.89844-.625 2.33203-.35546 2.0664-.08985 1.79298-.17969.71875-.08984.53906v1.4375l-.98047 1.88281-.35937 1.70703-.53516.89844-.80469 1.16797-.26562.53906 2.05469 1.2539.08593.35938-.35546.53906-.08985-.17968v.80859l.08985 1.4375-.44532.71484-1.07422.09375-.26562.71485.53515.89844.8047.71875 1.16015.80859 1.33984.26953.44531.35938-.35546.44921-1.78907-.08984-1.25-.44922-.71484-.71875-.625-.08984-.17578 3.58984-.1875 1.3086h89.35937V311.70313h-55.26953v49.08203l.76172.125 3.28906.54296 2.02344 2.83594v2.7539l2.35156.33204 2.34766.33203h4.05078l-1.3789 4.16016-2.02344.70703-2.02344.70312-.54297.34375-2.59375 1.6172-.1875.11718-2.02344-2.07813-.73046-2.74218-2.67188-2.07813-1.375-3.5-.0664-.08203-1.95704-2.67188 2.75-1.41796v-49.08204H294.42187v91.41407l.1172.03125.1328.01172.07422.07421.10547.04688.08985.0586.08593.05859.08985.0586.29687.29687.0586.08984.03125.11719.02734.11719.01563.13671-.03125.1172-.0586.08983-.0586.08594-.04296.10547-.04688.10156-.02734.1211v.14453l.17578.26953.14844.14844.07422.08594.07422.07421.04296.10547.0625.08985.0586.08593.04297.10547.0586.08985.04687.10156.04296.10547.0586.08594.11719.17968.07421.07422.0625.08594.0586.08984.04297.10547.0586.08985.05858.08593.0625.08985.0586.08984.04297.10156.11719.17969.07421.07422.0586.08594.07422.07421.08984.0586.10547.04687h.14844l.1328-.01562.13282.01562.10156-.04687.07422-.07422.04688-.10156-.01563-.13281v-.14844l-.04687-.10547-.02735-.11719-.04687-.10156-.02735-.1211-.04296-.10156-.0625-.08984-.04297-.10156-.04297-.10547-.03125-.11719-.01563-.13281-.01171-.13672.08593-.0586.0586-.08593.12109-.03125.04297.10547.01562.1328v.1172l.0586.10156.0586.08984.08983.0586.14844.14843.0586.08985.04296.10547-.01171.10156.08593.0586.10547.04687.08594.0586.08984.05858.07422.07422-.11719.02735-.10546.04687-.08594.0586-.07422.07421-.0586.08985-.0625.08594-.02734.12109-.04687.10156-.04297.10547-.03125.11719-.01172.13281-.01563.13281v.14844l.02735.11719.04687.10547.04297.10156.0586.08984.07421.07422.08985.0586.07422.07421.08984.0586.0586.08984.04296.10547.04688.10156.11719.03125.1328.01563h.14845l.11718-.03125.10547.04297.04297.10547.04688.10156.02734.1211L299.5 410l.02734.11719.03125.1211.02735.11718.10547.04297.10156.04687.13281-.01562.14844.14844.0625.08593.07422.07422.07031.07422.08984.0625.10547.04297.10156.04297.1172.03125.13671.01562.11719-.03125.07422-.07422.02734-.11718-.01172-.13282-.03125-.12109-.02734-.11719.04297-.10547h.11719l.08984.0625.11719.02735h.14843l.13282.01562h.14843l.13282.01563.1328-.01563h.14845l.1328-.01562.13282-.01172.13672.01172.11719-.02735.13281-.01562.1914-.0586-.05859.17579-.01562.1328-.02735.1211-.01562.13281-.0586.08594-.1328.01563-.10548.04687-.10546.04297-.1172.03125-.11718.02735-.26563.03125h-.14843l-.13281.01562-.07422.07422.05859.08594.14844.14843.11719.1797.07421.0703.08985.0625.08984.0586.08594.0586.08984.05858.10156.04297.10547.0625.10547.04297.08594.0586.10547.04687.10156.04297.17969.11719.0586.08984-.04298.10156-.04687.10547.01562.13281.22266.22266.0586.08985.04296.10156.03125.1211.04297.10155.01563.13282.03125.11718.01171.13672.03125.11719.14844.14844.10156.04297.10547.04296.1172.03125.1328.01563.13672.01563h.11719l.11719-.03125.08984-.0586.04297-.10547.04688-.10156.04296-.10547.03125-.11719.01172-.1328v-.14845l-.01172-.1328-.01562-.13282-.03125-.11719-.04297-.10547-.04688-.10547-.04296-.10156-.04297-.10547-.01563-.13281.01563-.13281.02734-.11719.03125-.11719.02735-.1211.04687-.10155.08984-.0586.08594-.0625.07422-.07422.08984-.05859.22266-.22266.0586-.08593.07421-.07422.11719-.17969.0586-.08594v-.14844l-.07423-.07421-.10156-.04688-.10547-.04297-.10156-.04297-.0586-.08984-.04687-.10547-.02734-.11719.08984-.05859.11719-.03125.10156-.04297.17969-.11719.14844-.14843.01172-.13282-.01172-.10546-.08985-.0586-.1328.01563h-.14845l-.1328.01562-.13282-.01562-.1211-.03125-.08593-.0586-.07422-.07422-.0586-.08984-.0625-.08594-.11718-.17969-.0586-.08593.03125-.1211.08594-.05859.1211-.03125.05859-.08594v-.1211l-.03125-.11718-.0586-.08984-.05859-.08594-.04687-.10547-.02735-.11719-.01562-.1328.0586-.08985.07421-.07422.08984-.0586.1172-.17968.07421-.07422.0586-.08594.14843-.14844.1211-.03125.1328-.01562.13282.01562.07422.07422.04297.10547.01562.13281-.03125.1172-.11719.03124-.1328.01172-.14844.14844-.04297.10547-.04688.10156-.02734.1211-.03125.11718v.14844l.03125.11719.04297.10546.05859.08985.07422.07031.07422.07422.11719.03125.12109.02734.11719-.02734.1328-.01563h.1172l.08984.0586.07422.07422.04687.10546.0586.08594.10156.04688.13281.01562.10547.04297.08594.0586-.01172.10546-.07422.07422-.17969.11719-.05859.08984-.08984.0586-.07032.07422-.07421.07421-.0625.08985-.02735.11719-.01562.1328.01562.13282-.01562.13281v.14844l.01562.13281.02735.1172.03125.12108.07421.07422.08985.0586.08594.0586.08984.05858.11719.03125v.08594l-.10157.04688-.08984.0586-.26563.03124-.11718.02735h-.14844l-.10547.04296-.10156.04688-.0586.08984-.0625.23438-.01171.13281-.03125.1211-.01563.1328v.29298l-.01172.1328.01172.13673.01563.1328.1328.01563.13282.01172.1211.03125.08593.0586.07422.07421.04688.10547.04296.10157.01563.1328v.44532l-.01563.13281v.44532l.03125.26562.02735.11719.01562.13281.03125.11719.08594.21094.03125.26562v.14844l-.03125.11719-.02734.11718-.03125.1211-.02735.11719-.03125.11718-.03125.1211-.01171.1328-.01563.13282.08984.0586.1172-.03125.10155.01562.04688.10547-.03125.26562v.44141l-.04297.10547-.04688.10547-.04296.10156-.04297.10547-.0586.08594-.03125.12109-.04296.11719-.03125.11719-.01563.1328.01563.13282.05859.08984.10547.04688.08594.0586.05859.08593-.01172.13672-.03125.11719-.04297.10156v.44531l-.01562.13281v.14844l-.03125.11719-.04297.10547-.02735.11719-.04687.10546-.04297.10157-.03125.12109-.02734.11719-.03125.13281-.03125.11719-.02735.11719-.04297.10546-.03125.1172-.03125.12108-.01171.13282-.01563.13281v.29688l.02734.11718v.14844l.04688.39844.02734.11719.0586.08984.12109.03125h.14844l.13281-.01563.0586.08985v.11719l-.0586.08984-.08984.0586-.10157.04296-.10546.04688-.08985.05859-.08594.0586-.13671.01562-.1172-.03125-.1328-.01563-.10157.04688-.0625.08594-.01172.13671-.01562.13282-.03125.11719-.02735.11718-.01562.13281-.03125.1211v.29687l.01563.13282.03125.11718v.14844l.01171.13281v.14844l-.02734.11719-.04688.10156-.02734.1211-.03125.11718-.0586.08985-.07421.07421-.10156.04297-.10547.04688-.11719.02734-.1211.03125-.10156-.04687.0586-.08594.10547-.04688.02734-.11718.03125-.11719.02734-.1211.03125-.11718v-.14844l.01563-.13281-.03125-.11719-.04297-.10547-.10547.01563-.07422.07422-.10156.04296-.08984.0625-.07422.07422-.04297.10157-.01563.1328-.03125.1172L304.25 426l-.03125.11719-.02734.11719-.03125.12109-.02735.11719-.03125.11718-.04297.10547-.08984.0586h-.08984l-.1172-.03125-.03124-.08594.01562-.13672-.03125-.11719v-.14844l-.01171-.1328v-.14844l-.0625-.23438-.02735-.1211-.04297-.10156-.04687-.10546-.0586-.08594-.05859-.08985-.04297-.10546-.0625-.08594-.14844-.14844-.0703-.07422-.10548-.04687-.10547-.04297-.10156-.04297-.29687-.29688-.08985-.07421-.08594-.0586-.10546-.04297-.08985-.0625-.08594-.0586-.10546-.04296-.08985-.0586-.08594-.0625-.07421-.0703-.10547-.04688-.08594-.0586-.10547-.04296-.08984-.0625-.10156-.04297-.10547-.04297-.08594-.0586-.10547-.04687-.10547-.04297-.10156-.04687-.08985-.0586-.10156-.04297-.10547-.04296-.08984-.0625-.11719-.02735-.13281-.01562-.13281.01562H299.75l-.13281.01563-.11719-.03125-.08984-.0586-.07422-.07422-.08985-.05859-.10156-.04688h-.14844l-.12109-.02734-.10156-.04297-.07422-.07422-.11719-.17968-.08984-.0586-.10156-.04297-.08985-.0625-.10547-.04296-.08984-.0586-.08594-.0586-.10547-.04687-.0586-.08594-.05858-.08984-.04297-.10547-.04688-.10156-.07422-.07422-.08594-.0586-.07421-.07421-.08985-.0586-.22265-.22265-.04297-.10547-.03125-.26563.10547-.04296h.14453l.10547.04296.07421.07422.08985.0586.08594.0586.10546.04687.08985.05859.14844.14844.0703.07422.14845.14843.0625.08594.07421.07422.08594.0586.07422.07421.08985.0625.08984.0586.08594.05859.26953.17578.10156.04688.10547.04296.10156.04297.04688-.07421.05859-.08594.07422-.07422.07031-.07422.10547.04297.07422.07422.0586.08984.04296.10156.04688.10547.04296.10547.1211.02735.11719-.02735.07421-.08984.04297-.10547.0586-.08985.07422-.07421.10546-.04297.1172-.02735.1328.01172.08985.0586.14844.14843.05859.08985.04297.10547.04687.10156.04297.10547.04297.10156.10547.04688.10547.04296.13281.01563.08594-.0586.0586-.08984.07421-.07422.10547-.04297.11719.02735.10547.04687.10156.04297.10547.04297.10156.04688.17969.11718v.11719l-.01563.13281.01563.13281.01562.13672.0586.08594.10156.04688.1211.02734.11718.03125h.14844l.11719-.03125.05859-.08984.17969-.1172.05859-.08983.07422-.07422.0586-.08594.11718-.17969.17969-.11719.11719.03125.08984.0586.04297.07422-.01563.1328v.1172l.08985.05859h.14843l.13282-.01563.1328-.01171.26563-.03125.10547-.04297.11719-.03125.1211-.02735.07421-.07421.07031-.07422.0625-.08985-.01562-.10547-.04688-.10156-.10156-.04297-.10547-.01562-.11718.02734-.26563.03125h-.14844l-.07421-.07422-.08985-.0586-.11719-.03124-.11718-.02735-.13282-.01562h-.14843l-.13282.01563h-.29687l-.10547-.04688-.14844-.14844-.04297-.10156-.05859-.08984.22266-.22266.08593-.0586.10547-.04296.11719-.03125.13281-.01563.13281.01563.13672.01562.10157.04297.1328-.01172.08985-.0625.10156-.04297.0625-.08984-.04687-.10156-.08984-.0586-.1172-.03125-.10155-.04296-.0586-.08985-.0625-.08984v-.11719l.01563-.13281.10547-.04688.07421-.07031v-.1211l-.08984-.05859-.03125-.11719.08985-.05859.07421-.07422.04297-.10547.0586-.08984.04687-.10156.01563-.13281v-.14844l-.04688-.10547-.04297-.10156-.08984-.0586-.13281-.01562-.10157-.04297-.13671-.01563-.1172-.03125h-.4453l-.13282-.01562-.13281-.01172-.13281-.01563-.11719-.03125h-.14844l-.13281-.01562-.13281-.01172-.26563-.03125-.1211-.04297-.08593-.0586-.07422-.07421v-.14844l.01172-.13281.10547-.04688.10156-.04296.13281-.01563h.15235l.13281-.01562h.29297l.1211.03125.10156.04296.08984.0586.23438.0625.12109-.04688.08984-.05859.10156-.04297.13282-.01562.10547.04296.10156.04688.13281.01172.1211-.02735h.14453l.12109-.03125.11719-.02734.10547-.04687.07421-.07422.08594-.0586.14844-.14843.0586-.08594.04687-.10547.02734-.11719.01563-.10547-.10156-.04296-.08985-.0586-.11719-.03125-.10546-.04297-.08985-.0625-.07422-.08594-.07422-.07421-.10156-.04297-.10547-.04688-.10156-.04297-.0586-.08984-.04687-.10156-.08594-.21094-.0625-.08594-.05859-.08984-.07422-.07422-.08594-.0586h-.26953l-.11719.03126-.08984.05859-.10156.04297-.13281.01562-.10547-.01562-.02735-.11719-.0625-.08984-.11718-.03125-.10157-.04297-.14843-.14844-.03125-.11719-.01563-.10546.07422-.07422.17969-.1172.11719-.02733.11718-.03125.13672.01562.10156.04297.10547.04297.10156.04687.10547.04297.1172.03125.1328.01563.1172.02734.1328.01563.10547-.01563.08985-.0586-.07422-.07421-.10547-.04297-.07422-.07422-.07422-.08984-.14844-.14844-.08593-.0586-.08985-.05859-.07422-.07422-.08984-.0586-.10156-.04687-.1211-.02734-.10156-.04688-.10547-.04296-.11719-.03125-.10156-.04297-.1211-.03125h-.14843l-.11719.03125-.10546.04297-.08594.0625-.17969.11718-.08594.0586-.08984.0586-.10547.04687-.08594.05859-.10547.04297-.10156.04297-.10547.04687-.07422.07422-.05859.08985-.0586.08593-.04687.10547-.0586.08594-.07421.07422-.13281-.01172-.1172-.03125h-.11718l-.07422.07422-.08984.0586-.07422.07421-.08984.0586-.08594.05859-.10547.04687-.10156.04297-.13672.01563-.10156-.04297-.14844-.14844-.10547-.04688h-.08594l-.10547.04688-.10156.04297-.1211.03125-.11718-.03125-.07422-.07422v-.11719l.03125-.1211.07422-.0703.0586-.08985.07421-.07422.11719-.03125.10547-.04296h.29297l.13281-.01563.13672-.01563.10156-.04296.08985-.0586.10156-.04687.08984-.0586.13281-.01171.08985.05859.13281.01172.08984-.0586.08594-.05859.10547-.04297.08984-.0586.08594-.0625.08985-.05859.14843-.14843.0586-.08594.05859-.08985.10547-.04296.13281-.01563.11719.02735.1211.03125.05859-.0586.05859-.08984.03125-.26563.02734-.11719.10547.01172.13281.01563.10157-.04297.08984-.0586.0586-.08984.07421-.07422.0586-.08984.04687-.10156.01172-.13281-.01172-.13282-.04687-.10547-.14844-.14843-.0586-.08985-.05859-.08594-.04297-.10546v-.44532l.01563-.1328v-.14845l.01172-.1328-.0586-.0586-.08984.0586-.10156-.04298-.17969-.11719-.08594-.05859-.0625-.08984-.0586-.08985-.07421-.07421-.08594-.0586-.1211.03125-.10155.01172-.10547.04688-.08594.05859-.10547.04297-.14844.14844-.08984.05859-.08594.0586-.08984.0625-.10547.04296-.13281.01563v-.1211l.10547-.04297.11718-.03125.07422-.0703.04297-.10548v-.14844l-.02734-.11718-.14844-.14844-.13281-.01563h-.14844l-.11719.03125-.10547.04297-.10156.04297-.08984.0625-.11719.02735-.07422-.07422.01172-.13281-.04297-.10157-.04297-.10547-.08984-.05859-.11719.02734-.1211.03125-.11718.03125-.10156.04297-.1211.03125-.10156.04297-.10547.04297-.08984.0586-.10156.01562v-.11719l.01562-.13281-.0586-.08985-.07421.04297-.14844.14844-.0586.08985-.07421.07421-.04688.10547-.04296.10156-.07422.07422-.0586.08985-.07422.07422-.05859.08593-.07422.07422-.08984.0625-.07422.07031-.07422.07422-.10156.01563-.13281.01562-.10547-.04296v-.1211l.14843-.14844.04297-.10156.0586-.08984.04687-.10156.04297-.10547.0586-.08985.03124-.11719.04297-.10156.03125-.1211.02735-.11718.04687-.10547.04297-.10156.04297-.10547.07422-.07031.08984-.0625.08985-.0586.10156-.04296h.29687l.26563-.03125.10547-.04297-.07422-.07422-.11719-.03125-.10547-.04297-.08984-.0586-.10156-.04687-.08985-.0586-.10156-.04296-.10547-.04297-.08984-.0625-.08594-.0586-.10547-.04296-.10156-.04297-.1211-.03125-.11718-.03125-.10157-.04297L297.5 410.25l-.10156-.04297-.08985-.0586-.04296-.10546-.01563-.13281.10156-.04297.13281-.01563.13672.01563.13282-.01563.10156-.04297.0586-.08984.01562-.10547-.08985-.0586-.07421-.07421-.10157-.04297-.08984-.0586-.14844-.14843-.04297-.10547-.01562-.13281v-.29297l-.0586-.08985-.08984-.05859-.07422-.07422-.04297-.10547-.03125-.11718-.0586-.08985-.07421-.07422-.11719-.02734-.07422-.07422-.08984-.0586-.08984-.0625-.08594-.05859-.07422-.07421-.0586-.08594-.04687-.10547-.08594-.0586-.14843-.14843-.19532-.0586-.1328.01563-.10157.04297-.07422.07422-.04688.10156-.04296.10547-.0586.08984-.0586.08594-.29687.29687-.08984.0586h-.08594l-.0625-.08594-.04297-.10547.03125-.11719.0586-.08984.02734-.11719-.01172-.13281-.08984-.0625-.10547.04688-.11719.02734-.11719.03125-.26953.17578-.10156.04688-.11719.02734-.10546.04687-.08985.0586-.10156.04297-.0586-.08594-.04687-.10547.01563-.13281.04687-.10547.07031-.07422.07422-.07031.0586-.08985v-.14843l-.04297-.10547h-.23829l-.10156.04687-.03125.11719-.02734.11719-.03125.1211-.07422.04296-.13281.01563-.07422-.04688-.04297-.10156-.04297-.10547-.04687-.10156-.04297-.10547-.1211.03125-.10156.04297-.13281.01562-.11719.03125-.10547.04297-.08984.0586-.10156.04687-.1211.02734-.13281.01563-.10156-.04297-.0586-.08985-.04687-.10546-.04297-.10157-.04297-.10546v-.1172l.0586-.08984.08593-.05859.17969-.11719.10156-.04687.10547-.04297.10547-.0586.10156-.04296.08985-.0625.10156-.04297.10547-.0586.10156-.04687.08984-.0586.10547-.04296.10156-.04297.08985-.0625.10156-.04297.13672-.01563.11719.03125.10156.04297.1211.03125.10156.04297.10546.04688.10157.04296.10547.04297.10156.04688.10547.04297.10156.04297.10547.04687.08594.0586.10546.04296.1172.03125.10546.04297.10156.04688.08985.0586.10547.04296.10156.04297.10547.04687.11719.02735.10156.04687.1211.02735h.14843l.08594-.0586.01562-.10156.0586-.08984-.02735-.1172-.07422-.07421-.11719-.17969-.07421-.07422-.08985-.07421-.17969-.1172-.08593-.05859-.10547-.04296-.10156-.04688-.26954-.17578-.05859-.08985-.07422-.07421-.0586-.08985-.04296-.10156-.03125-.11719-.01563-.13672v-.5625l-.01171-.1328-.01563-.13282-.03125-.11719-.01562-.13281-.01172-.13281-.03125-.1211-.22266-.22265-.0586-.08594-.01562-.10547.03125-.11719.13281-.01562v-91.41406H172.9922v1.45312l-.0586.23438-.35156 1.05078-.17187.52343-.1172.34766-.17577.41016-.11719.17187-.23438.29297-.23046.0586h-.35157l-.11718.05859-.23047.40625v.29297l.11719.17578.23046.23047.1172.23437.64062.75781.29297.46485.17578.23437.23047.35156.23437.34766.64063.8164.17578.46485.17187.41016.11719.69531.17578.46875.11719 1.39844.0586.46484v.875l.11718 1.04688v4.78125l-.0586.46484-.35156 1.28125-.17578.52344-.11328.41015-.35156.9297L172.93359 336l-.23437.58203-.11719.17578-.17187.34766-.17578.40625-.35157.8164-.0586.29297-.11327.29297-.11719.28906-.0586.17579-.11718.875-.0586.40625-.05859.11718-.0586.17579-.05859.17187-.23047.52734-.11718.17188v.23437l-.11719.23438-.0586.17187-.17577.58594v.28906l-.0586.17579v.29296l-.0586.11329-.05859.52734v.17187l-.05468.23438v2.6211l-.17578.8164-.1172.17578-.17577.23438-.1172.17187-.11327.23438-.58594.93359-.23047.28906-.29297.46485-.17578.23437-.28906.35156-.35156.69922-.11328.23047-.17579.41016-.17578.23046-.40625.52735-.8164.69922-.29297.17187-.28906.23438-.17579.11719-.17578.17578-.52344.40625-.52734.17578-.17187.17578-.23438.05469-.64062.17578h-.75782m12.21094 31.02344l-1.07422.44921.35938.89454 1.25-.71485.44531-.53906-.98047-.08985"/><path fill="#d3d3d3" fill-opacity="0" fill-rule="evenodd" d="M201.50781 416.59766h-.89453l.44922.6289.98047.35938.80469-.08985.4453-.98828-.17577.08985-.71485-.35547-.89453.35547m154.6211 59.0703l-.0586-.52343v-.29297l.11328-.29297.0586-.23046.46875-.46875h.11328l.11719-.11329.11718-.05859h.17579l.23437-.0586h.34766l.23437.0586.11719.0586.23047.17187.0586.17578.11718.58203v.29297l-.11719.17578-.17187.28906-.17579.17579-.52734.52343-.23047.23438-.11719.0586h-.17578l-.11718-.0586-.40625-.29297-.17579-.11719-.11718-.0586-.0586-.11327-.05468-.1172m6.64062-10.95702l-.0586-.17188v-1.10937l.0586-.17188.17578-.0586.17188-.05858h.17578l.23437-.0586.1172.0586.05858.69921-.05859.17188-.11719.17578-.11718.0586-.23438.52343-.11328.0586h-.23438l-.05859-.1172m9.61328-14.39062l-.11719-.17578v-.69922l.29297-.875.1172-.17187.17577-.35156.11328-.23047.1172-.29297.35155-.75781.1172-.23047.17187-.23438h.17578l.11719-.0586h.64062l.11719.0586.23437.23438.17188.11328.35156.29297.11719.11718.11328.17579v.11328l.11719.05859.11718.11719v.69922l-.05859.17578v.23047l-.0586.17578-.34765 1.05078-.11719.23047-.11719.23437-.11718.0586-.23047.23437-.64063.28906h-.875l-.41015-.11718-.64063-.46485"/><path fill="none" stroke="#bebebe" stroke-linecap="round" stroke-linejoin="round" stroke-miterlimit="10" stroke-width=".5" d="M467.95703 311.69531H144.02734v168.625h323.9297v-168.625"/><g clip-path="url(#a)"><path fill="#fff" fill-opacity="0" fill-rule="evenodd" d="M144 475.89063v4.4375h.0039H144V311.67188h.0039H144v164.21875"/></g><g clip-path="url(#b)"><path fill="#fff" fill-opacity="0" fill-rule="evenodd" d="M144.0039 480.32813V311.67188h35.50391v130.80078l-2.01172 2.34765-2.21484 4.4414-.21484.16407-4.4375.23438-4.4375.61718-4.4375 1.3672-2.44922 2.05468-1.98828 3.54297-.59766.89453.59766.82812 1.16797 3.60938 3.26953 2.9414 4.4375.48829 4.4375-.33204 4.4375-.41796 4.4414-.33594 4.4375.85156 4.4375-.26953 4.4375.0664 4.4414-.86327 4.4375 1.26953 4.4375.23046 4.4375.00391 4.44142-1.76562 4.4375-1.25.79687-.6172-.79688-1.8164-4.4375.4375-1.92968-3.0586-2.51172-1.98827-4.4375-1.36719-3.41406-1.08203-1.02344-.65625-4.4375-.71485-4.4414-.1328-4.00782-2.9336-.42969-.33594-4.4375-3.44531-1.3711-.66016-3.0664-2.34765V311.67187h71.01172V422l-.7461.6289-3.6914 3.05079-4.4375-1.0039-4.4375 1.02733-4.4414-.7539-4.4375.61719-1.50782 1.5039 1.50781 2.03125 4.4375.2539 4.1211 2.15235.32031.27735 4.4375 3.35546 4.4375-2.1953 1.33984-1.4375 2.73829-4.4375.35937-.73438.67578-3.70703-.67578-.62891V311.67187h35.50781v91.51172l-1.71484 1.69141-1.32422 4.4414 3.03906 1.90235 1.90235-1.90234-.35156-4.44141-1.55079-1.6914v-91.51173H467.9961v168.65625H144.00391"/></g><path fill="#50fcfc" fill-rule="evenodd" d="M157.3164 458.96484l-.59765-.82812.59766-.89453 1.98828-3.54297 2.44922-2.05469 4.4375-1.36719v3.88282l-4.4375 3.51953-.27344.45703-.3164 4.4375.58984.53125 4.4375 1.17969 4.4375-.71485 4.4375-.9961h.0078l-.0078-.0039-2.85547-4.4336-1.58203-1.71874-4.4375-2.25781v-3.88282l4.4375-.61718 4.4375-.23438.21484-.16406 2.21484-4.4414 2.01172-2.34766 3.0664 2.34765 1.3711.66016v13.71875l-2.625 3.375 2.625 1.01172 4.4375-.73828 4.4375-.22266.14844-.05078-.14844-.51953-4.4375-1.13281-4.4375-1.72266v-13.71875l4.4375 3.44531.42969.33594 4.00781 2.9336 4.4414.1328 4.4375.71485v5.08203l-.08202.01172-1.78125 4.4375 1.86328.89453 4.4375.03516 3.2461-.9297-3.2461-3.07812-4.375-1.35937-.0625-.01172v-5.08203l1.02344.65625 3.41406 1.08203 4.4375 1.36719 2.51172 1.98828 1.92969 3.0586 4.4375-.4375.79687 1.8164-.79688.61719-4.4375 1.25-4.4414 1.76562-4.4375-.0039-4.4375-.23047-4.4375-1.26954-4.4414.86329-4.4375-.06641-4.4375.26953-4.4375-.85156-4.44141.33594-4.4375.41796-4.4375.33204-4.4375-.48829-3.26953-2.9414-1.16797-3.60938"/><path fill="#00e8fc" fill-rule="evenodd" d="M161.7539 463.10547l-.58984-.53125.3164-4.4375.27345-.45703 4.4375-3.51953 4.4375 2.2578 1.58203 1.71876 2.85547 4.4336.0078.0039h-.0078l-4.4375.9961-4.4375.71484-4.4375-1.1797m22.1914.48048l-2.625-1.01172 2.625-3.375 4.4375 1.72265 4.4375 1.13282.14844.51953-.14844.05078-4.4375.22266-4.4375.73828m17.7539-.11719l-1.86327-.89453 1.78125-4.4375.08203-.01172.0625.01172 4.375 1.35937 3.2461 3.07813-3.2461.92969-4.4375-.03516"/><path fill="#50fcfc" fill-rule="evenodd" d="M228.32813 429.10156l-1.50782-2.03125 1.50781-1.5039 4.4375-.6172 4.44141.75392 4.4375-1.02735v2.86719l-2.92187 3.96484 2.92187 2.35547 3.20313-2.35547-3.20313-3.96484v-2.86719l4.4375 1.0039 3.6914-3.05077.7461-.62891.67578.6289-.67578 3.70704-.35937.73437-2.73828 4.4375-1.33985 1.4375-4.4375 2.19531-4.4375-3.35546-.32031-.27735-4.1211-2.15234-4.4375-.2539"/><path fill="#00e8fc" fill-rule="evenodd" d="M241.64453 433.86328l-2.92187-2.35547 2.92187-3.96484v3.58203l-.28125.38281.28125.22656.3086-.22656-.3086-.38281v-3.58203l3.20313 3.96484-3.20313 2.35547"/><path fill="#00d4fc" fill-rule="evenodd" d="M241.64453 431.73438l-.28125-.22657.28125-.38281.3086.38281-.3086.22656"/><path fill="#50fcfc" fill-rule="evenodd" d="M286.02734 411.21875l-3.03906-1.90234 1.32422-4.44141 1.71484-1.6914 1.55079 1.6914.35156 4.4414-1.90235 1.90235"/><g clip-path="url(#c)"><path fill="#fff" fill-opacity="0" fill-rule="evenodd" d="M467.9961 480.32813H468V311.67188h-.0039H468v168.65625h-.0039"/></g><path fill="#fff" fill-opacity="0" fill-rule="evenodd" d="M189.85547 470.92188l5.8164-.51954-.8828-9.91796-5.81641.51562.8828 9.92188"/><path fill-rule="evenodd" d="M192.6211 462.51563l.5078-.04688.5547 6.27344-.78126.0664-.39843-4.46875-1.38282.1211-.05078-.55078.55469-.1172.2461-.07421.21874-.10938.19141-.16015.15234-.22266.1172-.3086.0703-.40233"/><g clip-path="url(#d)"><path fill="none" stroke="#000" stroke-linecap="round" stroke-linejoin="round" stroke-miterlimit="10" stroke-width=".5" d="M145.35547 477.08594l-2.71094 6.48437"/></g><path fill="none" stroke="#000" stroke-linecap="round" stroke-linejoin="round" stroke-miterlimit="10" stroke-width=".5" d="M144.96094 478.03125l1.22265-.11328"/><g clip-path="url(#e)"><path fill="none" stroke="#000" stroke-linecap="round" stroke-linejoin="round" stroke-miterlimit="10" stroke-width=".5" d="M160.07422 478.15234l-5.51563 4.35547"/></g><path fill="none" stroke="#000" stroke-linecap="round" stroke-linejoin="round" stroke-miterlimit="10" stroke-width=".5" d="M159.26953 478.78516l1.125.49218"/><g clip-path="url(#f)"><path fill="none" stroke="#000" stroke-linecap="round" stroke-linejoin="round" stroke-miterlimit="10" stroke-width=".5" d="M173.71484 478.64844l-6.17187 3.35937"/></g><g clip-path="url(#g)"><path fill="none" stroke="#000" stroke-linecap="round" stroke-linejoin="round" stroke-miterlimit="10" stroke-width=".5" d="M172.82031 479.13672l1.02344.67969"/></g><g clip-path="url(#h)"><path fill="none" stroke="#000" stroke-linecap="round" stroke-linejoin="round" stroke-miterlimit="10" stroke-width=".5" d="M187.40234 479.71094l-6.91406 1.23437"/></g><g clip-path="url(#i)"><path fill="none" stroke="#000" stroke-linecap="round" stroke-linejoin="round" stroke-miterlimit="10" stroke-width=".5" d="M186.39844 479.89063l.75781.96484"/></g><g clip-path="url(#j)"><path fill="none" stroke="#000" stroke-linecap="round" stroke-linejoin="round" stroke-miterlimit="10" stroke-width=".5" d="M200.73828 480.83594l-6.95312-1.01563"/></g><g clip-path="url(#k)"><path fill="none" stroke="#000" stroke-linecap="round" stroke-linejoin="round" stroke-miterlimit="10" stroke-width=".5" d="M199.72656 480.6875l.41016 1.15625"/></g><g clip-path="url(#l)"><path fill="none" stroke="#000" stroke-linecap="round" stroke-linejoin="round" stroke-miterlimit="10" stroke-width=".5" d="M214.05078 480.84375l-6.94922-1.03125"/></g><g clip-path="url(#m)"><path fill="none" stroke="#000" stroke-linecap="round" stroke-linejoin="round" stroke-miterlimit="10" stroke-width=".5" d="M213.03906 480.69531l.41016 1.15625"/></g><g clip-path="url(#n)"><path fill="none" stroke="#000" stroke-linecap="round" stroke-linejoin="round" stroke-miterlimit="10" stroke-width=".5" d="M227.40234 480.30078l-7.02343.05469"/></g><g clip-path="url(#o)"><path fill="none" stroke="#000" stroke-linecap="round" stroke-linejoin="round" stroke-miterlimit="10" stroke-width=".5" d="M226.38281 480.3086l.58203 1.08202"/></g><g clip-path="url(#p)"><path fill="none" stroke="#000" stroke-linecap="round" stroke-linejoin="round" stroke-miterlimit="10" stroke-width=".5" d="M240.6836 480.83203l-6.95704-1.00781"/></g><g clip-path="url(#q)"><path fill="none" stroke="#000" stroke-linecap="round" stroke-linejoin="round" stroke-miterlimit="10" stroke-width=".5" d="M239.67188 480.6875l.41406 1.15234"/></g><g clip-path="url(#r)"><path fill="none" stroke="#000" stroke-linecap="round" stroke-linejoin="round" stroke-miterlimit="10" stroke-width=".5" d="M253.96875 481.0039l-6.89453-1.35156"/></g><g clip-path="url(#s)"><path fill="none" stroke="#000" stroke-linecap="round" stroke-linejoin="round" stroke-miterlimit="10" stroke-width=".5" d="M252.96484 480.8086l.35547 1.17577"/></g><g clip-path="url(#t)"><path fill="none" stroke="#000" stroke-linecap="round" stroke-linejoin="round" stroke-miterlimit="10" stroke-width=".5" d="M266.97266 481.91406l-6.27344-3.16797"/></g><g clip-path="url(#u)"><path fill="none" stroke="#000" stroke-linecap="round" stroke-linejoin="round" stroke-miterlimit="10" stroke-width=".5" d="M280.41016 481.64453l-6.51953-2.6289"/></g><g clip-path="url(#v)"><path fill="none" stroke="#000" stroke-linecap="round" stroke-linejoin="round" stroke-miterlimit="10" stroke-width=".5" d="M293.76172 481.54297l-6.59375-2.42969"/></g><g clip-path="url(#w)"><path fill="none" stroke="#000" stroke-linecap="round" stroke-linejoin="round" stroke-miterlimit="10" stroke-width=".5" d="M292.80469 481.1914l.16406 1.21485"/></g><g clip-path="url(#x)"><path fill="none" stroke="#000" stroke-linecap="round" stroke-linejoin="round" stroke-miterlimit="10" stroke-width=".5" d="M307.28906 480.54297l-7.01562-.42969"/></g><g clip-path="url(#y)"><path fill="none" stroke="#000" stroke-linecap="round" stroke-linejoin="round" stroke-miterlimit="10" stroke-width=".5" d="M306.26563 480.48047l.51171 1.11719"/></g><g clip-path="url(#z)"><path fill="none" stroke="#000" stroke-linecap="round" stroke-linejoin="round" stroke-miterlimit="10" stroke-width=".5" d="M320.47266 481.30469l-6.75-1.95313"/></g><g clip-path="url(#A)"><path fill="none" stroke="#000" stroke-linecap="round" stroke-linejoin="round" stroke-miterlimit="10" stroke-width=".5" d="M319.48828 481.02344l.2539 1.19922"/></g><g clip-path="url(#B)"><path fill="none" stroke="#000" stroke-linecap="round" stroke-linejoin="round" stroke-miterlimit="10" stroke-width=".5" d="M333.47656 482.04688l-6.13281-3.4336"/></g><g clip-path="url(#C)"><path fill="none" stroke="#000" stroke-linecap="round" stroke-linejoin="round" stroke-miterlimit="10" stroke-width=".5" d="M346.98047 481.65234l-6.50781-2.64843"/></g><g clip-path="url(#D)"><path fill="none" stroke="#000" stroke-linecap="round" stroke-linejoin="round" stroke-miterlimit="10" stroke-width=".5" d="M360.5 480.9414l-6.91797-1.22656"/></g><g clip-path="url(#E)"><path fill="none" stroke="#000" stroke-linecap="round" stroke-linejoin="round" stroke-miterlimit="10" stroke-width=".5" d="M360.5 480.9414l.75781 2.33204"/></g><g clip-path="url(#F)"><path fill="none" stroke="#000" stroke-linecap="round" stroke-linejoin="round" stroke-miterlimit="10" stroke-width=".5" d="M372.75781 477.76563l-4.80469 5.125"/></g><path fill="none" stroke="#000" stroke-linecap="round" stroke-linejoin="round" stroke-miterlimit="10" stroke-width=".5" d="M372.75781 477.76563l2.3711.64062"/><g clip-path="url(#G)"><path fill="none" stroke="#000" stroke-linecap="round" stroke-linejoin="round" stroke-miterlimit="10" stroke-width=".5" d="M387.125 479.6875l-6.91016 1.28125"/></g><g clip-path="url(#H)"><path fill="none" stroke="#000" stroke-linecap="round" stroke-linejoin="round" stroke-miterlimit="10" stroke-width=".5" d="M387.125 479.6875l1.52734 1.92188"/></g><g clip-path="url(#I)"><path fill="none" stroke="#000" stroke-linecap="round" stroke-linejoin="round" stroke-miterlimit="10" stroke-width=".5" d="M399.8789 478.33594l-5.78515 3.98437"/></g><path fill="none" stroke="#000" stroke-linecap="round" stroke-linejoin="round" stroke-miterlimit="10" stroke-width=".5" d="M399.8789 478.33594l2.1797 1.13281"/><g clip-path="url(#J)"><path fill="none" stroke="#000" stroke-linecap="round" stroke-linejoin="round" stroke-miterlimit="10" stroke-width=".5" d="M412.97266 478.04297l-5.33985 4.57031"/></g><path fill="none" stroke="#000" stroke-linecap="round" stroke-linejoin="round" stroke-miterlimit="10" stroke-width=".5" d="M412.97266 478.04297l2.28125.89844"/><g clip-path="url(#K)"><path fill="none" stroke="#000" stroke-linecap="round" stroke-linejoin="round" stroke-miterlimit="10" stroke-width=".5" d="M426.40625 478.19531l-5.57813 4.26953"/></g><path fill="none" stroke="#000" stroke-linecap="round" stroke-linejoin="round" stroke-miterlimit="10" stroke-width=".5" d="M426.40625 478.19531l2.23047 1.01953m-3.04297-.39843l1.11719.5078"/><g clip-path="url(#L)"><path fill="none" stroke="#000" stroke-linecap="round" stroke-linejoin="round" stroke-miterlimit="10" stroke-width=".5" d="M440.00781 478.6289l-6.15234 3.39844"/></g><g clip-path="url(#M)"><path fill="none" stroke="#000" stroke-linecap="round" stroke-linejoin="round" stroke-miterlimit="10" stroke-width=".5" d="M440.00781 478.6289l2.05469 1.33985"/></g><g clip-path="url(#N)"><path fill="none" stroke="#000" stroke-linecap="round" stroke-linejoin="round" stroke-miterlimit="10" stroke-width=".5" d="M453.73047 480.79688l-6.96485-.9375"/></g><g clip-path="url(#O)"><path fill="none" stroke="#000" stroke-linecap="round" stroke-linejoin="round" stroke-miterlimit="10" stroke-width=".5" d="M452.71484 480.66016l.42579 1.15234"/></g><g clip-path="url(#P)"><path fill="none" stroke="#000" stroke-linecap="round" stroke-linejoin="round" stroke-miterlimit="10" stroke-width=".5" d="M466.14844 482.70703l-5.17188-4.75781"/></g><g clip-path="url(#Q)"><path fill="none" stroke="#000" stroke-linecap="round" stroke-linejoin="round" stroke-miterlimit="10" stroke-width=".5" d="M145.78906 463.99219l-3.57812 6.04297"/></g><path fill="none" stroke="#000" stroke-linecap="round" stroke-linejoin="round" stroke-miterlimit="10" stroke-width=".5" d="M145.26953 464.8711l1.22656.05468m14.23438 1.26563l-6.83203 1.64453m5.83984-1.40625l.8125.91797m13.41016-1.45704l-6.66016 2.2461m5.6914-1.92188l.89063.84375m13.46485-.92578l-6.8047 1.76172m5.8125-1.5039l.83204.90234m13.5586-.73047l-6.96876.90234m5.95313-.76953l.71094 1m13.51562.26563l-6.76562-1.89453m5.78125 1.62109l.26172 1.19531m13.99218-.76562l-6.67187-2.20703m5.69922 1.88671l.20703 1.21094m13.7461-.17187l-6.00392-3.64453m5.13282 3.11328l-.07031 1.22656m14.48828-1.14063l-6.46485-2.7539m5.52344 2.35156l.10547 1.22266m13.9414-.40625l-6.04687-3.58203m5.16406 3.0625l-.05469 1.22656m14.3672-.91797l-6.27735-3.16016m5.36328 2.69922l.02734 1.22656m14.41407-3.39843l-6.70313 2.10547m5.73047-1.79688l.8711.85938m13.52734-.72266l-6.92188 1.21875m5.91406-1.04297l.75391.96484m13.35938.79688l-6.50391-2.65625m5.5586 2.26953l.125 1.21875m13.59374.07813l-5.41797-4.47657m4.62891 3.82422l-.2461 1.19922m14.63282-.94922l-5.98828-3.67578m5.98828 3.67578l-.14844 2.44922m13.7539-3.03906l-6.5664-2.4961m6.5664 2.4961l.3086 2.4336m12.77735-1.94141l-6.10547-3.48047m5.21484 2.97265l-.03516 1.22657m14.53907-3.51172l-6.70313 2.10547m5.72656-1.80079l.875.86329m12.625-2.51954l-5.125 4.8086m5.125-4.8086l2.32422.79297m10.9297-.85547l-5 4.9336m5-4.9336l2.34374.73047m11.10938-.58203l-5.27735 4.63672m5.27735-4.63672l2.29687.86328m10.74219-1.14843l-4.72266 5.20703m4.72266-5.20703l2.3789.60156m11.46094-.0039l-5.76953 4.01171m4.92969-3.42969l1.08984.5625m11.875-2.21484l-3.39062 6.15234"/><g clip-path="url(#R)"><path fill="none" stroke="#000" stroke-linecap="round" stroke-linejoin="round" stroke-miterlimit="10" stroke-width=".5" d="M146.53906 451.27344l-5.07812 4.85156"/></g><path fill="none" stroke="#000" stroke-linecap="round" stroke-linejoin="round" stroke-miterlimit="10" stroke-width=".5" d="M145.80078 451.97656l1.16406.38672m12.70313-1.27344l-4.70703 5.21875m4.02344-4.46093l1.1875.29687m13.02343-.84765l-5.1289 4.80468m4.3828-4.10547l1.16017.39844m13.16796-.77344l-5.66406 4.15625m4.83984-3.55078l1.10547.53125m13.5547-.10547l-6.70704 2.09375m5.73047-1.78906l.875.86328m13.47656.70703l-6.82812-1.66015m5.83593 1.41797l.3047 1.1914m12.8789.88672l-4.57813-5.33203m3.91016 4.5586l-.44531 1.14062m13.98828-.04297l-3.69922-5.97656m3.16016 5.10547l-.6172 1.05859m14.48048-.19531l-3.71485-5.96485m3.17188 5.09766l-.61328 1.0625m15.5664-1.27344l-5.90625-3.8086m5.04688 3.25391l-.10156 1.22266m14.53906-1.15625l-6.4336-2.82812m5.4961 2.41406l.09375 1.22656m14.41015-1.66406l-6.9375-1.125m6.9375 1.125l.78907 2.32422m12.54296-2.42969l-6.96875-.91797m6.96875.91797l.85938 2.30078m12.47266-2.49219l-7.00391-.53125m7.0039.53125l.98829 2.2461m11.7461-.5586l-5.84376-3.90625m4.99219 3.33594l-.1211 1.22266m14.47657-.97266l-6.22266-3.26562m5.32031 2.78906l.00391 1.22656m14.58594-1.92187l-6.96485-.92579m6.96485.92579l.85547 2.30078m12.46484-2.32813l-6.97266-.8711m6.97266.8711l.875 2.29297m12.46094-2.5586l-7.01953-.33593m7.01953.33594l1.04687 2.21875m11.82031-4.11328l-6.12109 3.45312m6.1211-3.45312l2.0664 1.3203m11.46875-.85155l-6.5625 2.51171m5.60938-2.14453l.92578.8047m12.11328-2.76563l-4.10547 5.70312m4.10547-5.70312l2.4336.33203m11.19921-.07813l-4.73828 5.1914m4.04687-4.43359l1.1875.3047m10.8086-1.96095l-.71875 6.9922m.61328-5.97657l1.13672-.46094m8.85547 1.23047l6.13672 3.42188m-5.2422-2.92579l.02345-1.22656"/><g clip-path="url(#S)"><path fill="none" stroke="#000" stroke-linecap="round" stroke-linejoin="round" stroke-miterlimit="10" stroke-width=".5" d="M146.19922 437.64453l-4.39844 5.48047"/></g><path fill="none" stroke="#000" stroke-linecap="round" stroke-linejoin="round" stroke-miterlimit="10" stroke-width=".5" d="M145.5586 438.4414l1.20702.22657m12.77735-1l-4.45703 5.4336m3.8086-4.64454l1.20312.24219m13-.8164l-4.9375 5m4.21875-4.27344l1.17578.35156m13.25-.61719l-5.71875 4.07813M200.7539 440l-6.98438.76563m5.96875-.65235l.6875 1.01172m13.65625-.9414l-7.01562.39843m7.01562-.39844l1.27344 2.09766m11.73047-.4336l-6.39063-2.92968m5.46094 2.5039l.07031 1.22266m14.28906-1.08203l-6.62109-2.35547m5.65625 2.01172l.1836 1.21484m14.29296-1.82422l-7.01172-.45312m5.9922.38672l.5039 1.11719m13.77344-.60157l-6.89844-1.35156m5.89453 1.15625l.35547 1.17188m13.94531-.89844l-6.86328-1.5039m5.86719 1.28515l.32812 1.17969m14-1.03516l-6.89453-1.35547m5.89063 1.15625l.35547 1.17578m13.85156-.55078l-6.67188-2.21094m5.69922 1.89063l.20703 1.21094m14.0625-.83594l-6.63281-2.32031m6.63281 2.3203l.3711 2.42579m13.1328-3.76953l-7.01562.3711m7.01563-.3711l1.26562 2.10156m12.05079-2.10937l-7.01563.38671m7.01563-.38671l1.26953 2.09765m11.96875-1.14453l-6.86328-1.51953m5.86328 1.29688l.32812 1.18359m13.91797-2.7461l-6.72266 2.04688m5.7422-1.75l.86718.8711m13.28125 1.26952l-6.4336-2.82812m5.5 2.41797l.08985 1.22265m14.42578-2.69921l-6.96484.94922m5.94922-.8125l.71875.99609m13.46093.45312l-6.66406-2.22656m5.69531 1.90234l.20313 1.21094m13.625-4.01562l-5.7539 4.03125m4.91796-3.44531l1.09375.55859m12.50781-1.76172l-4.65234 5.26953m3.97266-4.5039l1.1953.28515m9.94923-1.89062l1.04687 6.94922m9.6914-5.125l6.20313 3.30078m-5.30078-2.82032v-1.22656"/><g clip-path="url(#T)"><path fill="none" stroke="#000" stroke-linecap="round" stroke-linejoin="round" stroke-miterlimit="10" stroke-width=".5" d="M145.16016 423.7539l-2.32032 6.62891"/></g><path fill="none" stroke="#000" stroke-linecap="round" stroke-linejoin="round" stroke-miterlimit="10" stroke-width=".5" d="M156.9961 423.57031l.63671 6.9961m13.21875-7.00391l-.4414 7.01172m16.76172-4.89453l-6.45313 2.77734m20.05078-1.23828l-7.01953-.29688m7.01953.29688l1.0625 2.21094m12.13281-1.4414l-6.78125-1.83985m5.79688 1.57422l.26953 1.1953m13.4375.27735l-5.59375-4.25m4.78125 3.6289l-.19531 1.21095m14.69922-1.20704l-6.34766-3.01953m5.42578 2.57813l.05469 1.22656m13.42969.25l-4.84375-5.08984m4.14062 4.35156l-.38672 1.16406m15.4414-3.58594l-6.91796 1.23047m5.91406-1.05078l.75781.96485m13.4922.40625l-6.77344-1.8711m6.77343 1.8711l.53125 2.39453m12.21875-1.23828l-5.64453-4.1836m4.82422 3.57422l-.1836 1.21484m13.46094.21485l-3.92968-5.82422m3.35937 4.97656l-.57812 1.08203m15.93359-2.41406l-6.8711-1.46484m5.8711 1.25l.33984 1.17968m14.05079-1.53125l-7.01954-.33203m5.9961.28516l.52344 1.10937m13.8164-1.125l-7.02344-.20312m6 .17187l.54688 1.09766M360 425.17578l-5.91797 3.78516m14.04688.82422l4.45312-5.4336m-3.80469 4.64453l-1.20312-.24218m13.80469-4.35157l4.58203 5.33203m-3.91406-4.55468l.4453-1.14453m14.14063 6.52734l.70703-6.98828m-.60546 5.97265l-1.13672.46485m13.53125.3711l2.34375-6.625m8.85156 4.54296l6.58203-2.46484m-5.6211 2.10547l-.92187-.8125m18.55469-2.96094l-3.97266 5.80078m3.39453-4.95703l1.21875.13672m10.87891-1.58985l-.38281 7.01953m.32812-5.99609l1.11328-.51562m13.51563-.19922l-2.89844 6.40234"/><g clip-path="url(#U)"><path fill="none" stroke="#000" stroke-linecap="round" stroke-linejoin="round" stroke-miterlimit="10" stroke-width=".5" d="M145.98828 410.85938l-3.97656 5.78906"/></g><path fill="none" stroke="#000" stroke-linecap="round" stroke-linejoin="round" stroke-miterlimit="10" stroke-width=".5" d="M160.79297 413.2539l-6.95703 1m20.30078-.28906l-7.01563-.42187m5.9961.35937l.50781 1.1172m13.8086-1.67188l-6.97657.8125m5.96094-.69532l.69922 1.01172m13.10937 1.16016l-5.92969-3.76953m5.06641 3.22265l-.09766 1.22266m13.37891.28125l-4.13672-5.67969m3.53516 4.85157l-.53516 1.10546m11.25.20704l2.26172-6.65235m-1.92969 5.6875l-1.21093.19531m15.77343.9297l-.89453-6.96876m.89453 6.96875l-2.0039 1.41797m17.82422-3l-5.90625-3.80469m5.04687 3.25l-.10156 1.22266m9.80078.59375l3.04688-6.33203M262.7539 416l-1.22266.04688m14.41797 1.0078l2.40234-6.60155m-2.05469 5.64062l-1.21484.17188m16.89453.66015l-3.01953-6.34375m2.57813 5.42188l-.73047.98437m12.14843.17969l1.65625-6.82813m-1.65625 6.82813l-2.375.60937m18.71485-1.28125l-4.39453-5.48437m4.39453 5.48437l-.96875 2.25391m15.33594-3.66016l-6.5-2.67187m5.55468 2.28125l.1211 1.22265m7.92968-4.0625l5.92188 3.78516m10.92187-5.35937l-1.13671 6.9375m.96875-5.92578l1.16406-.39454m8.95703 4.98047l5.58984-4.25781m-5.58984 4.25781l-2.23047-1.02344m15.16016-2.60156l6.35937 2.99219m-5.4336-2.5586l-.05859-1.22265m17.13282-.89063l-3.01172 6.35157m2.57422-5.42578l1.22656-.0586m11.51953-1.16797l-1 6.95313m.85547-5.9414l1.15234-.41798m11.37891-.60547l.85547 6.97657m-.73047-5.96094l1.00781-.70313m13.65625-.17968l-2.08984 6.71094m1.78515-5.73438l1.20704-.22656m13.76953.04297l-4.80469 5.125m4.10547-4.37891l1.1836.32031m6.94921 1.00781l6.95703.97657m-5.94531-.83594l-.41797-1.15234"/><g clip-path="url(#V)"><path fill="none" stroke="#000" stroke-linecap="round" stroke-linejoin="round" stroke-miterlimit="10" stroke-width=".5" d="M147.35938 399.41406l-6.71875 2.04688"/></g><path fill="none" stroke="#000" stroke-linecap="round" stroke-linejoin="round" stroke-miterlimit="10" stroke-width=".5" d="M159.80469 397.95703l-4.97656 4.96094m18.41406-4.83203l-5.22266 4.70312m4.46094-4.01562l1.15234.41797m13.125-.85938l-5.625 4.21094m4.8086-3.59766l1.10937.52344m9.26953-2.41406l1.88281 6.76953m-1.60937-5.78516l.88672-.84765m10.1914 5.22656l5.8047-3.96094m-5.8047 3.96094L205.5 401.27734m16.47656 2.10547l3.82813-5.89062m-3.26953 5.03515l-1.22266-.10546m17.1289 1.30468l-2.47265-6.57812m2.47266 6.57812l-1.6211 1.83985m1.26172-2.79688l-.8086.92188m13.10548.2578l.28125-7.02343m-.28125 7.02344l-2.21094 1.0664m16.60547-1.1914l-1.875-6.77344m1.875 6.77344l-1.78125 1.6875m14.5-1.57813l-.6836-6.99218m.58203 5.97656l-1.01953.67969m14.71094.30078l-1.23437-6.91797m1.05468 5.91015l-.96484.75782m12.29688-.05469l3.09375-6.3086m-3.09375 6.3086l-2.45313.07813m16.96094.26171l.70703-6.99218m-.70703 6.99218l-2.26953.9297m19.0078-2.71485l-6.14062-3.41797m5.2461 2.91797l-.01953 1.22656m14.07421-4.39844l-5.83203 3.92188m12.72266-2.11328l7.01953.30859m-6-.26563l-.52734-1.10546m12.875 1.84765l6.91406-1.26562m-5.90625 1.08203l-.76172-.96094m15.8789 3.96485l1.29688-6.90625m-1.10937 5.90234l-1.16797.36719m15.6875-6.25l-1.48828 6.86718m15.36719-6.6953l-2.6172 6.52343m2.23438-5.57422l1.22266-.1289m12.375-.85548l-2.41797 6.59766m2.41797-6.59765l2.42969-.33594m9.41796.1289l.51954 7.00782m-.44532-5.98829l1.03907-.65234m10.02734 5.67188l4.86719-5.07032m8.29297.16016l5.17968 4.75m-4.42578-4.0586l.30469-1.1875"/><g clip-path="url(#W)"><path fill="none" stroke="#000" stroke-linecap="round" stroke-linejoin="round" stroke-miterlimit="10" stroke-width=".5" d="M145.02344 387.125l-.01953-.20313-.0586-.1914-.09375-.17578-.46094-.375-.1914-.0586-.19922-.01953-.19922.01953-.1914.0586-.46094.375-.09375.17578-.0586.1914-.01953.20313.01953.19922.0586.1914.09375.17579.46094.375.1914.05859.19922.01953.19922-.01953.1914-.0586.46094-.375.09375-.17577.0586-.19141.01953-.19922"/></g><path fill="none" stroke="#000" stroke-linecap="round" stroke-linejoin="round" stroke-miterlimit="10" stroke-width=".5" d="M157.3086 383.60938l.01171 7.02734m-.00781-6.0039l1.08203-.57813m14.67969.54687l-4.89063 5.04297m4.1797-4.3086l1.17968.33985m11.9414-1.71094l-3.07812 6.31641m2.6289-5.39844l1.22657-.04297m8.59375-.28125l4.8086 5.12891m-4.8086-5.1289l.79297-2.32032m12.84375 2.05469l4.16406 5.66015m-4.16406-5.66015l1.0625-2.21094m-.45703 3.03516l.53125-1.10547m14.41015 6.6211l-.30078-7.01954m.30078 7.01953l-2.11328 1.2461m18.45313-3.2461l-6.34766-3.01953m5.42188 2.58203l.05468 1.22266m9.28906.76953l3.44532-6.125m-2.9414 5.23047l-1.22657-.02735m15.11328 1.3125l1.29688-6.90625m-1.29688 6.90625l-2.34375.73047m12.82422-3.72265l6.96484-.92578m-5.95312.79296l-.71094-1m17.32422 4.08594l-1.65235-6.83203m1.41016 5.83594l-.91406.8164m12.98047.21485l1.32422-6.90235m-1.12891 5.89844l-1.17187.35938m12.5664-.23047l4.78125-5.15235m10.66016 6.07813l.52734-7.0039m-.52734 7.0039l-2.25.98828m18.80078-2.61719l-5.94531-3.74218m5.08203 3.1953l-.08985 1.22267m14.76954-3.06641l-6.94922 1.03515m5.9375-.88671l.73047.98828m13.54687-1.40625l-6.84766 1.57422m6.84766-1.57422l1.60938 1.85156m11.14062-3.10547l-5.71875 4.08203m5.71875-4.08203l2.19531 1.09375m-3.02734-.5l1.09766.54688m13.28906-.75782l-6.19922 3.31641m6.19922-3.3164l2.03515 1.36718m11.47657-.92187l-6.59375 2.42578m5.63672-2.07422l.91406.82031m11.34375-3.23047l-2.5664 6.54297m2.5664-6.54297l2.4375-.28125m11.07812.36719l-2.96484 6.3711m2.96484-6.3711l2.44922-.13281m-2.88281 1.0586l1.22656-.06642m10.05078 5.69922l1.98047-6.74218m-1.69531 5.7578l-1.19922.25m14.53516-6.08593l1.36718 6.89453m-1.16796-5.89062l.94921-.77735"/><g clip-path="url(#X)"><path fill="none" stroke="#000" stroke-linecap="round" stroke-linejoin="round" stroke-miterlimit="10" stroke-width=".5" d="M147.39063 372.88281l-6.78125 1.85156"/></g><path fill="none" stroke="#000" stroke-linecap="round" stroke-linejoin="round" stroke-miterlimit="10" stroke-width=".5" d="M158.08203 370.3789l-1.53125 6.85938m1.3086-5.86328l1.17968-.32422m11.73047-.7539l-.27734 7.02343m.23437-6l1.10547-.53515m11.82422-.48047l.57422 7.0039m-.48828-5.98437l1.03125-.66016m11.53515-.23828l1.90625 6.76563m-1.90625-6.76563l1.76953-1.69531m11.3125 1.76953l2.3672 6.61719m-2.3672-6.61719l1.65235-1.8164m16 3.57421l-6.30469 3.10156m5.38672-2.65234l.9961.71875m11.78906 3.45703l-3.40625-6.14844m3.40625 6.14844l-1.33594 2.05469m15.8711-3.17969l-5.84766-3.89844m4.99609 3.33204l-.1211 1.21875m14.15626-4.73438l-5.58594 4.26563m4.77344-3.64454l1.11328.51172m13.73437 1.07813l-7.02734-.15625m6.0039.13281l.55079 1.09766m12.92968 1.14844l-5.30859-4.60547m4.53516 3.9375l-.27735 1.1953m14.26172-.41405l-5.10156-4.83204m4.35937 4.12891l-.32812 1.1836m11.60937-6.40235l.44922 7.01563m-.38281-5.9961l1.04297-.64062m13.8711 6.33203l-2.87891-6.41016m2.46093 5.48047l-.7539.96875m15.51562-.7461l-4.9414-4.99609m4.22265 4.26954l-.36328 1.17187m15.3086-1.98438l-6.76172-1.91406m6.76172 1.91406l.51953 2.39844m12.82422-4.20312l-6.82032 1.69531m6.82032-1.69531l1.64062 1.82812m11.08203-3.08203l-5.63281 4.20313m5.63281-4.20313l2.21875 1.04688m11.33594-.6797l-6.11328 3.46485m6.11328-3.46484l2.07031 1.32031m11.05469-1.61719l-5.73438 4.0625m5.73438-4.0625l2.1914 1.10157m10.59376-1.69141l-4.67579 5.24219m4.67579-5.24219l2.38671.58203m10.44922-.94531l-3.71484 5.96484m3.71484-5.96484l2.44922.16797m11.25781.11719l-4.5 5.39843m4.5-5.39844l2.40235.5m7.08594-.9414l3.15625 6.28125m-2.69922-5.36719l.71093-1"/><g clip-path="url(#Y)"><path fill="none" stroke="#000" stroke-linecap="round" stroke-linejoin="round" stroke-miterlimit="10" stroke-width=".5" d="M147.50781 360.3164l-7.01562.35548"/></g><path fill="none" stroke="#000" stroke-linecap="round" stroke-linejoin="round" stroke-miterlimit="10" stroke-width=".5" d="M146.48828 360.36719l.6289 1.05078m9.85157-4.42188l.6914 6.9922m-.58984-5.97267l1.01953-.67968m10.35547.40625l4.3711 5.5m-4.3711-5.5l.97656-2.25m11.26172 3.69531l6.52344 2.61328m-6.52344-2.61328l-.26172-2.4414m13.82032 5.55077l6.03515-3.60546m-5.15625 3.07812l-1.05078-.63281m16.47656-4.15625l.0547 7.02734m12.49218-6.9375l1.59375 6.84375m-1.36328-5.84765l.92578-.8047m13.38281 6.71876l-.85547-6.97656m14.8125 6.83593l-2.13672-6.6953m1.82422 5.72265l-.85547.8789m13.15625-6.7578l.51563 7.0078m-.4414-5.98828l1.03906-.65234m15.23437.98437l-5.55078 4.3047m4.7461-3.6797l1.11718.50391m7.0039-.375l6.44532 2.80078m6.58594-1.63672l7.01172.47266m-5.98829-.40235l-.5039-1.12109m14.33984 4.19922l3.92578-5.82813m-3.35547 4.98047l-1.21875-.1289m19.39063-2.53516l-6.92578 1.19531m5.91797-1.01953l.75.96875m13.3125.89453l-6.40625-2.8828m5.47265 2.46483l.08203 1.22266m14.29688-1.14062l-6.66797-2.21094m5.69922 1.89062l.20312 1.21094m13.8125-.27734l-6.1289-3.4375m5.23437 2.9375L372.5 362.9375m14.59766-3.22656l-6.85157 1.5625m6.85157-1.5625l1.60546 1.85547m11.32032-2.83985l-6.07422 3.53516m6.07422-3.53516l2.08593 1.28906m11.26954-1.21875l-6.15235 3.39454m6.15235-3.39454l2.05468 1.33985m11.26563-1.32813l-6.16797 3.3672m5.27344-2.875l1.02343.67187m11.98438-2.44922l-3.76172 5.9375m3.76172-5.9375l2.44531.1875m9.76172-.64453l-1.54687 6.85546m1.54687-6.85546l2.36719-.64844m11.4375.79687l-2.52344 6.5586m2.52344-6.5586l2.4375-.29687m-2.80469 1.25l1.21875-.14844"/><g clip-path="url(#Z)"><path fill="none" stroke="#000" stroke-linecap="round" stroke-linejoin="round" stroke-miterlimit="10" stroke-width=".5" d="M147.27344 345.89844l-6.54688 2.5625"/></g><path fill="none" stroke="#000" stroke-linecap="round" stroke-linejoin="round" stroke-miterlimit="10" stroke-width=".5" d="M147.27344 345.89844l1.85937 1.59375m10.35938-3.07031l-4.35547 5.51562m3.72266-4.71484l1.20703.21875m12.4414-1.23047l-3.75781 5.9375m3.75781-5.9375l2.44922.1836m-2.9961.67968l1.22657.08984m13.5-.1836l-5.48438 4.39454m5.48438-4.39453l2.2539.96875m11.3672 2.98047l-6.09376-3.5m5.20703 2.98828l-.04296 1.22656m7.6875-2.28515L214.08594 347m-6 .30469l-.6289-1.05078m14.8203-2.19922l3.22266 6.2461m-2.7539-5.33595l.69921-1.0078m12.16406.08983l3.19141 6.26172m-2.72656-5.35156l.70312-1.0039m13.59375-.28516l.30078 7.01953m-.2578-6l1.05859-.6211m12.10156-.39062l.52344 7.00781m-.44532-5.98828l1.03516-.65625m10.54297.19531l3.83984 5.88672m-3.28125-5.02734l.59375-1.07422m11.98047.34375l4.20313 5.63281m-3.58985-4.8164l.52344-1.10938m11.4414 1.03906l5.6797 4.14063m-5.6797-4.14063l.34766-2.42968m12.30469 4.78515l7.0039-.57421m-5.98437.49218l-.66406-1.03125m15.17578 4.09766l2.57031-6.54297M329.5 349.49609l-1.21875.14063m18.88672-1.75l-6.88281-1.41797m5.8828 1.21094l.34376 1.17578m13.50781.1875l-5.95703-3.73047m5.08984 3.1875l-.08593 1.22266m14.7578-1.97657l-6.9375-1.1328m5.9297.96483l.39062 1.16407m13.96875-1.80469l-7.01172.48047m5.99219-.41016l.64844 1.03906m13.5039-2.01171l-6.64453 2.28906m5.67578-1.95703l.89844.83594m13.08203-1.82422l-6.03515 3.59765m6.03515-3.59765l2.09766 1.26953m11.6836.08594l-6.96876.89062m6.96875-.89063l1.41797 2m10.44922-4.41796l-4.07422 5.72265m4.07422-5.72265l2.4336.3164m9.24609-.94531l-.80469 6.98047m.6875-5.96485l1.14453-.44921m12.42578-.54688l-1.08203 6.9414m.92578-5.93359l1.16016-.40234"/><g clip-path="url(#aa)"><path fill="none" stroke="#000" stroke-linecap="round" stroke-linejoin="round" stroke-miterlimit="10" stroke-width=".5" d="M146.66016 331.57031l-5.32032 4.58594"/></g><path fill="none" stroke="#000" stroke-linecap="round" stroke-linejoin="round" stroke-miterlimit="10" stroke-width=".5" d="M146.66016 331.57031l2.28906.88672m8.19922-2.10547l.33203 7.01953m-.28125-5.99609l1.05469-.625m13.07812-.32813l-1.40625 6.88282m1.40625-6.88281l2.35547-.69532m11.0039.70313l-1.49218 6.86719m1.49219-6.8672l2.35937-.66796m10.95703.66797l-1.4961 6.86719m1.4961-6.8672l2.36328-.66406m10.98828.67188l-1.5664 6.85156m1.5664-6.85156l2.3672-.64063m6.91796 2.71875l6.49219 2.69532m-5.54688-2.30469l-.11718-1.21875m13.0078-.03906l5.45313 4.42969m-5.45312-4.4297l.47266-2.41015m12.58203 2.77344l5.97265 3.70312m-5.97265-3.70312l.16015-2.44922m.70703 2.98828l.08203-1.22265m13.28516-.3047l4.13281 5.6797m-4.1328-5.6797l1.07421-2.20702m11.34766 3.15234l5.91797 3.78906m-5.91797-3.78906l.19922-2.44531m.66406 2.9961l.09765-1.22267m11.98828 1.4336l6.65235 2.26562m-6.65235-2.26562l-.39062-2.42188m1.35938 2.75l-.19922-1.21093m12.8164.28125l6.10938 3.46875m-6.10938-3.46875l.0664-2.45313m.82032 2.95703l.03516-1.22656m11.9375 2.64844l7.01953-.38281m-7.01953.3828l-1.26563-2.10156m17.95313 5.42188l.27344-7.02344m15.05859 6.48047l-3.75781-5.9375m3.21093 5.07422l-.60937 1.0664m15.94922-2.14062l-6.71485-2.0625m5.73829 1.76172l.23437 1.20313m12.00781 1.32812l-2.61718-6.52344m2.61718 6.52344L370.08203 339m17.08985-5.4414l-7 .60937m7-.60938l1.33593 2.0586m11.25-3.91016l-5.54297 4.3125m5.54297-4.3125l2.24219 1m10.48047-1.60156l-4.35547 5.51562m4.35547-5.51562l2.41406.4375m11.70313.46094l-5.96094 3.71875m5.09375-3.1797l1.0625.6172m13.6211.23828l-6.96485.92969m5.95312-.79297l.71094.99609m13.51953-1.60156l-6.77343 1.86719m5.78906-1.59766l.84375.89062m13.26953-1.67578l-6.40234 2.89844m5.47265-2.47656l.96875.75"/><g clip-path="url(#ab)"><path fill="none" stroke="#000" stroke-linecap="round" stroke-linejoin="round" stroke-miterlimit="10" stroke-width=".5" d="M144.86328 317.14063l-1.72656 6.8125"/></g><path fill="none" stroke="#000" stroke-linecap="round" stroke-linejoin="round" stroke-miterlimit="10" stroke-width=".5" d="M144.86328 317.14063l2.38281-.58204m9.08203.6172l1.97266 6.74218m-1.97266-6.74219l1.75391-1.71484m10.74219 2.07031l3.60937 6.03125m-3.60937-6.03125l1.26953-2.09766m-.74219 2.97657l.63281-1.05079m11.64063.55079l4.64063 5.27734m-4.64063-5.27734l.86719-2.29688m-.1914 3.0625l.43358-1.14453m11.875.71094l5.3047 4.60937m-5.3047-4.60937l.55079-2.39063m.21875 3.0625l.27734-1.19531m12.55078.23438l4.73828 5.1875m-4.73828-5.1875l.82031-2.3125m-.1328 3.0664l.41405-1.15625m11.37891 1.55078l6.40625 2.89453m-6.40625-2.89453l-.15625-2.44922m13.26563 3.04297l6.8164 1.70703m-6.8164-1.70703l-.58985-2.38281m13.85938 2.60156l6.91015 1.26563m-6.91015-1.26563l-.7461-2.33984m14.2539 1.66797l6.52345 2.60937m-6.52344-2.60937l-.26563-2.4375m1.21485 2.8164l-.13282-1.21875m12.53516.75l6.44922 2.78907m-6.44922-2.78907l-.19922-2.4453m1.13672 2.85155l-.19922-2.4453m12.3164 3l6.97266.87108m-6.97265-.87109l-.875-2.29297m1.88672 2.41797l-.8711-2.29297m1.88672 2.42188l-.4375-1.14844m11.70703 1.07031l7.00782.51953m-7.00782-.51953l-.98828-2.2461m2.00781 2.32032l-.98828-2.2461m13.6875 4.08594l6.19922-3.3125m-6.19922 3.3125l-2.03515-1.36718m2.9375.88672l-1.01953-.6836m13.11718.32813l6.83203-1.64063m-5.83984 1.40235l-.8125-.91797m16.3711 3.84765l.35937-7.01953m-.3086 5.9961l-1.10937.51953m12.48828-.16406l4.1289-5.6875m-3.52734 4.86328l-1.21484-.17188m19.10156-.20703l-6.21484-3.27734m5.3086 2.80078l.0039 1.22656m14.3125-.94922l-6.40625-2.88281m6.40625 2.88281l.16016 2.44922m13.1289-5.39063l-6.35547 3.00391m6.35547-3.0039l1.96485 1.46484m10.10546-2.89844l-3.86328 5.8711m3.86328-5.8711l2.44141.23047m10.125-.60547l-2.36719 6.61719m2.02344-5.65235l1.21484-.17968m14.0586 4.64844l-5.59766-4.2461m5.59766 4.2461l-.39063 2.42187m14.33985-5.29297l-6.86719 1.49219m6.86719-1.49219l1.58593 1.875m-2.58593-1.65625l.79297.9375m12.88671-2.53515l-5.59375 4.2539"/><g clip-path="url(#ac)"><path fill="none" stroke="#000" stroke-linecap="round" stroke-linejoin="round" stroke-miterlimit="10" stroke-width=".5" d="M466.35938 318.42188l2.22656 1.02343"/></g><g clip-path="url(#ad)"><path fill="none" stroke="#000" stroke-linecap="round" stroke-linejoin="round" stroke-miterlimit="10" stroke-width=".5" d="M465.54297 319.03906l2.23047 1.02735"/></g><path fill="none" stroke="#000" stroke-linecap="round" stroke-linejoin="round" stroke-miterlimit="10" stroke-width=".5" d="M464.73047 319.66016l1.11328.51171"/><path fill="#00f" fill-rule="evenodd" d="M303.91016 472.08594h8.61718V461.9414h-8.61718v10.14453"/><path fill="azure" fill-rule="evenodd" d="M305.74219 463.77344h.83203v2.82422h3.28906v-2.82422h.83203v6.48047h-.83203v-2.91797h-3.28906v2.91797h-.83203v-6.48047"/><path fill="#00f" fill-rule="evenodd" d="M157.44531 463.21094h8.61719V453.0625h-8.61719v10.14844"/><path fill="azure" fill-rule="evenodd" d="M159.27734 454.89844h.83203v2.82031h3.28907v-2.82031h.83203v6.48047h-.83203v-2.91797h-3.28906v2.91797h-.83204v-6.48047"/><path fill="#00f" fill-rule="evenodd" d="M388.23828 436.57813h8.61719v-10.14454h-8.61719v10.14454"/><path fill="azure" fill-rule="evenodd" d="M390.07031 428.26563h.83594v2.82421h3.28516v-2.82421h.83203v6.48046h-.83203v-2.91406h-3.28516v2.91406h-.83594v-6.48046"/><path fill="#00f" fill-rule="evenodd" d="M281.71875 432.14063h8.61719v-10.14454h-8.61719v10.14454"/><path fill="azure" fill-rule="evenodd" d="M283.55078 423.82813h.83203v2.82421h3.28906v-2.82421h.83204v6.48046h-.83204v-2.91796h-3.28906v2.91796h-.83203v-6.48046"/><path fill="#00f" fill-rule="evenodd" d="M224.01953 418.82813h8.61719v-10.14844h-8.61719v10.14844"/><path fill="azure" fill-rule="evenodd" d="M225.85156 410.51172h.83594v2.82422h3.28516v-2.82422h.83203v6.48047h-.83203v-2.91406h-3.28516v2.91406h-.83594v-6.48047"/><path fill="#00f" fill-rule="evenodd" d="M370.48438 401.07422h8.62109v-10.14844h-8.6211v10.14844"/><path fill="azure" fill-rule="evenodd" d="M372.3164 392.76172h.83594v2.82031h3.28516v-2.82031h.83203v6.47656h-.83203v-2.91406h-3.28516v2.91406h-.83593v-6.47656"/><path fill="#ff3030" fill-rule="evenodd" d="M309.04297 378.88281h7.6914v-10.14844h-7.6914v10.14844"/><path fill="azure" fill-rule="evenodd" d="M310.875 370.5664h.83203v5.7422h3.19531v.73827H310.875v-6.48046"/><path fill="#ff3030" fill-rule="evenodd" d="M206.96094 365.5664h7.6914v-10.14452h-7.6914v10.14453"/><path fill="azure" fill-rule="evenodd" d="M208.79297 357.2539h.83203v5.73829h3.19531v.74219h-4.02734v-6.48047"/><path fill="#ffffe0" fill-rule="evenodd" d="M343.69531 339.16797H365.875v-10.1914h-22.17969v10.1914"/><path fill-rule="evenodd" d="M347.19531 330.8086h.50781v6.29296h-.78515v-4.48828h-1.39063v-.55469l.5625-.0664.25-.05469.23047-.08594.20313-.14453.17578-.20703.14062-.29688.10547-.39453m4.8125 0l.23047.01954.21875.05468.20703.08985.19531.12109.1875.14844.16797.17578.3047.42187.24218.4922.17969.54687.11328.57812.03515.58985-.03515.59375-.11328.58593-.1797.55469-.24218.5-.30469.42969-.16796.17969-.1875.15234-.19532.125-.20703.08984-.21875.0586-.23047.01953-.23047-.01953-.21875-.0586-.20703-.08984-.19531-.125-.1836-.15235-.17187-.17968-.30078-.42969-.2461-.5-.17968-.55469-.10938-.58594-.03906-.59375h.83203l.03125.56641.08203.5039.125.44141.16016.375.1914.30079.21094.22265.22266.13672.22656.04688.22656-.04688.22266-.13672.21094-.22265.1914-.30079.16407-.375.125-.4414.08203-.5039.02734-.56642-.02734-.55859-.08203-.5-.125-.4375-.16406-.36719-.19141-.28906-.21094-.21484-.22265-.13281-.22657-.04297-.22656.04296-.22266.13282-.21093.21484-.19141.28906-.16016.3672-.125.4375-.08203.5-.03125.55858h-.83203l.03906-.58984.10938-.57812.17969-.54688.24609-.49219.30078-.42187.17188-.17578.18359-.14844.19531-.1211.20703-.08984.21875-.05469.23047-.01953m4.95313 0l.23047.01954.21875.05468.20703.08985.19531.12109.1836.14844.17187.17578.30469.42187.24218.4922.1797.54687.10937.57812.03906.58985-.03906.59375-.10938.58593-.17969.55469-.24218.5-.3047.42969-.17187.17969-.18359.15234-.19531.125-.20703.08984-.21875.0586-.23047.01953-.23047-.01953-.21875-.0586-.20703-.08984-.19531-.125-.1836-.15235-.17187-.17968-.3047-.42969-.24218-.5-.17969-.55469-.10937-.58594-.03906-.59375h.83203l.03125.56641.07812.5039.1289.44141.16017.375.1914.30079.21094.22265.22265.13672.22657.04688.22656-.04688.22266-.13672.21093-.22265.19141-.30079.16016-.375.1289-.4414.08203-.5039.02735-.56642-.02735-.55859-.08203-.5-.1289-.4375-.16016-.36719-.1914-.28906-.21094-.21484-.22266-.13281-.22656-.04297-.22656.04296-.22266.13282-.21094.21484-.1914.28906-.16016.3672-.1289.4375-.07813.5-.03125.55858h-.83203l.03906-.58984.10937-.57812.1797-.54688.24218-.49219.30469-.42187.17187-.17578.1836-.14844.1953-.1211.20704-.08984.21875-.05469.23047-.01953m4.95312 0l.38672.02735.35938.08203.3203.13672.28126.1875.23047.23828.17187.28515.10938.33204.03906.375-.02344.27734-.05469.23438-.08984.19921-.10937.17188-.12891.14062-.14063.125-.28906.19532.23438.12109.20703.14453.1836.17188.15234.1953.12109.21095.09375.23046.05469.2461.01953.2539-.03516.3086-.10156.32812-.17188.32422-.24218.30469-.30469.26953-.375.21485-.21094.08203-.23047.0625-.24218.03515-.26172.01563-.25781-.01563-.2422-.03515-.22656-.0625-.20312-.08204-.35938-.21484-.28906-.26953-.22265-.30469-.15625-.32422-.09375-.32812-.03125-.3086h.83203l.02734.25391.07813.23438.12109.21093.16016.1875.1953.15235.21876.11328.24219.07031.2539.02735.2539-.02735.2422-.07031.21875-.11328.1914-.15235.16406-.1875.1211-.21093.07812-.23438.02735-.2539-.02735-.25391-.07812-.23438-.1211-.21093-.16406-.1875-.1914-.15235-.21875-.11328-.2422-.07422-.2539-.02344-.2539.02344-.2422.07422-.21874.11328-.19531.15235-.16016.1875-.1211.21093-.07812.23438-.02734.2539h-.83203l.01953-.2539.05469-.23828.08984-.22656.125-.20704.15234-.1914.1836-.17188.20703-.15234.23047-.13281-.28516-.19532-.14063-.125-.1289-.14062-.10938-.17188-.08984-.19921-.0586-.23438-.01952-.27734h.78906l.01953.21484.0664.1914.10547.16798.13672.14062.16406.10938.1875.08203.20704.05078.22265.01562.21875-.01562.20703-.05078.19141-.08204.16406-.10937.13672-.14063.10547-.16796.0625-.19141.02344-.21484-.02344-.21094-.0625-.1914-.10547-.16798-.13672-.14062-.16406-.10938-.1914-.08203-.20704-.05078-.21875-.01562-.22265.01562-.20704.05078-.1875.08203-.16406.10938-.13672.14062-.10546.16797-.06641.1914-.01953.21095h-.78906l.03906-.375.10937-.33204.17188-.28515.23047-.23828.27734-.1875.32422-.13672.35937-.08203.38672-.02735"/><path fill="#ffffe0" fill-rule="evenodd" d="M177.52344 385.72656h22.1836v-10.1914h-22.1836v10.1914"/><path fill-rule="evenodd" d="M181.02344 377.36719h.51172v6.29687h-.78907v-4.49219h-1.38672v-.55468l.5586-.0664.25-.05079.23047-.08984.20312-.14454.17578-.20703.14063-.29687.10547-.39453m4.8125 0l.23047.01953.21875.05469.20703.08984.19922.1211.18359.14843.17188.17578.30078.42188.24218.49219.1797.54687.11327.57813.03906.58984-.03906.59375-.11328.58594-.17969.55468-.24218.5-.30078.4297-.17188.17968-.1836.15234-.19921.125-.20703.08985-.21875.05859-.23047.01953-.22656-.01953-.21875-.0586-.21094-.08984-.19531-.125-.1836-.15234-.17187-.17969-.30078-.42969-.2422-.5-.17968-.55468-.11328-.58594-.03906-.59375h.83593l.02735.5664.08203.50391.125.4414.16406.375.1914.30079.21095.22265.22265.13672.22266.04688.22656-.04688.22266-.13671.21093-.22266.19141-.30078.16406-.375.125-.4414.08203-.50392.02735-.5664-.02735-.5586-.08203-.5-.125-.4375-.16406-.36328-.1914-.29296-.21094-.21485-.22266-.13281-.22656-.04297-.22266.04297-.22266.13281-.21093.21485-.1914.29296-.16407.36329-.125.4375-.08203.5-.02735.55859h-.83593l.03906-.58985.11328-.57812.17969-.54688.24219-.49218.30078-.42188.17187-.17578.1836-.14844.1953-.12109.21095-.08984.21875-.0547.22656-.01952m4.95312 0l.23047.01953.21875.05469.20703.08984.19922.1211.1836.14843.17187.17578.30078.42188.24219.49219.17969.54687.11328.57813.03906.58984-.03906.59375-.11328.58594-.1797.55468-.24218.5-.30078.4297-.17188.17968-.18359.15234-.19922.125-.20703.08985-.21875.05859-.23047.01953-.22656-.01953-.21875-.0586-.21094-.08984-.19531-.125-.1836-.15234-.17187-.17969-.30078-.42969-.2461-.5-.17968-.55468-.10938-.58594-.03906-.59375h.83203l.03125.5664.08203.50391.125.4414.16407.375.1875.30079.21093.22265.22266.13672.22656.04688.22656-.04688.22266-.13671.21094-.22266.1914-.30078.16407-.375.125-.4414.08203-.50392.02734-.5664-.02734-.5586-.08203-.5-.125-.4375-.16406-.36328-.19141-.29296-.21094-.21485-.22266-.13281-.22656-.04297-.22656.04297-.22266.13281-.21093.21485-.1875.29296-.16407.36329-.125.4375-.08203.5-.03125.55859h-.83203l.03906-.58985.10938-.57812.17969-.54688.24609-.49218.30078-.42188.17188-.17578.18359-.14844.19531-.12109.21094-.08984.21875-.0547.22656-.01952m4.95313 0l.38672.02734.35937.08203.32422.13672.27734.1875.23047.23828.17188.28516.10937.33203.03906.3789-.01953.27344-.05859.23438-.08594.19922-.11328.17187-.1289.14453-.14063.1211-.28516.19531.23047.1211.20703.14452.1836.17188.15234.19531.125.21094.08984.23047.0547.2461.01952.2539-.03515.3086-.10156.32812-.17188.32422-.23828.30468-.3086.26954-.375.21484-.21093.08203-.22656.0625-.2461.03516-.26172.01562-.25781-.01562-.24219-.03516-.22265-.0625-.20703-.08203-.35938-.21485-.28906-.26953-.22266-.30468-.15625-.32422-.09375-.32813-.03125-.3086h.83203l.02735.25392.07812.23437.125.21094.16016.1875.1914.15234.21875.11328.2422.07422.2539.02344.2539-.02344.2422-.07422.21874-.11328.19531-.15234.16016-.1875.1211-.21094.07812-.23438.02734-.2539-.02734-.2539-.07813-.23438-.12109-.21094-.16016-.1875-.1953-.14844-.21876-.11719-.24219-.0703-.2539-.02735-.2539.02734-.2422.07031-.21875.1172-.1914.14843-.16016.1875-.125.21094-.07812.23437-.02735.2539h-.83203l.01953-.2539.05469-.23828.09375-.22656.1211-.20703.15624-.1914.1797-.17188.20702-.15235.23438-.13281-.28906-.19531-.13672-.1211-.13282-.14453-.10937-.17187-.08984-.19922-.0547-.23438-.02343-.27343h.78906l.02344.21484.0664.1875.10157.16797.13672.14062.16797.10938.1875.08203.20703.05078.21875.01563.22265-.01563.20703-.05078.1875-.08203.16407-.10938.13672-.14062.10547-.16797.0664-.1875.02344-.21484-.02344-.21485-.0664-.1914-.10547-.16797-.13672-.14063-.16406-.10937-.1875-.08203-.20704-.05079-.22265-.01562-.21875.01563-.20703.05078-.1875.08203-.16797.10937-.13672.14063-.10156.16797-.06641.1914-.02344.21485h-.78906l.03906-.37891.10938-.33203.17187-.28516.23047-.23828.28125-.1875.32031-.13672.35938-.08203.38672-.02734"/><path fill="#ffffe0" fill-rule="evenodd" d="M315.11328 403.10547h22.17969v-10.1914h-22.17969v10.1914"/><path fill-rule="evenodd" d="M318.61328 394.7461h.50781v6.29687h-.78515v-4.49219h-1.39063v-.55469l.5625-.0664.25-.05078.23047-.08985.20313-.14062.17578-.21094.14062-.29688.10547-.39453m4.8125 0l.23047.01954.21875.05468.20703.08985.19922.12109.1836.14844.17187.17578.30078.42187.24219.4922.17969.54687.11328.57812.03515.59375-.03515.58985-.11329.58593-.17968.55469-.24219.5-.30078.42969-.17188.17969-.18359.15234-.19922.125-.20703.08984-.21875.0586-.23047.01953-.22656-.01953-.21875-.0586-.21094-.08984-.19531-.125-.1836-.15235-.17187-.17968-.30078-.42969-.2461-.5-.17968-.55469-.10938-.58594-.03906-.58984h.83203l.03125.5625.08203.5039.125.44532.16406.3711.1875.30077.21094.22266.22266.13672.22656.04688.22656-.04688.22266-.13672.21094-.22265.1914-.30079.16407-.37109.125-.44531.08203-.5039.02734-.5625-.02734-.5625-.08203-.5-.125-.4375-.16407-.36329-.1914-.29297-.21094-.21484-.22266-.13281-.22656-.04297-.22656.04296-.22266.13282-.21094.21484-.1875.29297-.16406.36328-.125.4375-.08203.5-.03125.5625h-.83203l.03906-.59375.10938-.57812.17969-.54688.24609-.49219.30078-.42187.17188-.17578.18359-.14844.19531-.1211.21094-.08984.21875-.05469.22656-.01953m4.95313 0l.23046.01954.21875.05468.20704.08985.1953.12109.1875.14844.16798.17578.30469.42187.24218.4922.17969.54687.11328.57812.03516.59375-.03516.58985-.11328.58593-.17969.55469-.24219.5-.30468.42969-.16797.17969-.1875.15234-.19531.125-.20704.08984-.21875.0586-.23046.01953-.23047-.01953-.21875-.0586-.20703-.08984-.19532-.125-.18359-.15235-.17188-.17968-.30078-.42969-.24609-.5-.17969-.55469-.10937-.58594-.03906-.58984h.83203l.03125.5625.08203.5039.125.44532.16015.3711.19141.30077.21094.22266.22265.13672.22657.04688.22656-.04688.22265-.13672.21094-.22265.1914-.30079.16017-.37109.1289-.44531.08203-.5039.02735-.5625-.02735-.5625-.08203-.5-.1289-.4375-.16016-.36329-.1914-.29297-.21094-.21484-.22266-.13281-.22656-.04297-.22657.04296-.22265.13282-.21094.21484-.1914.29297-.16016.36328-.125.4375-.08203.5-.03125.5625h-.83204l.03907-.59375.10937-.57812.17969-.54688.2461-.49219.30077-.42187.17188-.17578.1836-.14844.1953-.1211.20704-.08984.21875-.05469.23047-.01953m4.95312 0l.38672.02735.35938.08203.3203.13672.28126.1875.23047.23828.17187.28515.10938.33204.03906.3789-.01953.27344-.0586.23438-.08984.19921-.10938.17188-.1289.14453-.14063.1211-.28515.1953.23047.1211.20703.14453.1836.17188.15233.1953.125.21095.08985.23046.05469.2461.01953.2539-.03516.3086-.10156.32812-.17188.32422-.24218.3086-.3047.26953-.375.21094-.21093.08203-.22656.0625-.2461.03906-.26171.01172-.25782-.01172-.24218-.03906-.22266-.0625-.20703-.08204-.35938-.21093-.28906-.26953-.22265-.3086-.15625-.32422-.09375-.32812-.03125-.3086h.83203l.02734.25391.07813.23438.12109.21484.16015.1836.19532.15234.21875.11328.24219.07422.2539.02344.2539-.02344.2422-.07422.21875-.11328.1953-.15235.16016-.18359.1211-.21484.07812-.23438.02735-.2539-.02735-.25391-.07812-.23438-.1211-.21093-.16015-.1836-.19531-.15234-.21875-.11719-.2422-.07031-.2539-.02735-.2539.02735-.2422.07031-.21874.11719-.19531.15234-.16016.1836-.1211.21093-.07812.23438-.02734.2539h-.83204l.01954-.2539.05468-.23828.08985-.22266.125-.21094.15234-.1914.1836-.17188.20703-.15234.23046-.13281-.28515-.19532-.14063-.12109-.1289-.14453-.10938-.17188-.08984-.19921-.0586-.23438-.01953-.27344h.78907l.02343.21485.0625.1914.10547.16406.13672.14063.16406.10938.19141.08203.20703.05078.21875.01953.21875-.01953.20703-.05078.1914-.08204.16407-.10937.13672-.14063.10547-.16406.0625-.1914.02344-.21485-.02344-.21484-.0625-.1914-.10547-.16798-.13672-.13671-.16406-.11329-.1914-.08203-.20704-.05078-.21875-.01562-.21875.01562-.20703.05078-.1914.08203-.16407.11329-.13672.13671-.10547.16797-.0625.1914-.02343.21485h-.78907l.03907-.3789.10937-.33204.17188-.28515.23046-.23828.28125-.1875.32032-.13672.35937-.08203.38672-.02735"/><path fill="#ffffe0" fill-rule="evenodd" d="M440.39844 441.25h22.1836v-10.1914h-22.1836V441.25"/><path fill-rule="evenodd" d="M443.89844 432.89063h.51172v6.29296h-.78907v-4.48828h-1.38671v-.55469l.55859-.0664.25-.05469.23047-.08594.20312-.14453.17578-.20703.14063-.29687.10547-.39454m4.8125 0l.23047.01954.21875.05468.21093.08985.19532.1211.18359.14843.17188.17578.30078.42188.24218.49218.1797.54688.11327.57812.03906.58985-.03906.59375-.11328.58593-.17969.5547-.24218.5-.30079.42968-.17187.17969-.1836.15234-.1953.125-.21094.08984-.21875.0586-.23047.01953-.22656-.01953-.21875-.0586-.21094-.08984-.19531-.125-.1836-.15234-.17187-.1797-.30079-.42968-.24218-.5-.17969-.55469-.11328-.58593-.03906-.59375h.83593l.02735.5664.08203.5039.125.44142.16406.375.1914.30078.21094.22265.22266.13672.22266.04688.22656-.04688.22266-.13672.21093-.22265.19141-.30079.16406-.375.125-.4414.08203-.5039.02735-.56641-.02735-.5586-.08203-.5-.125-.4375-.16406-.36719-.1914-.28906-.21094-.21484-.22266-.13281-.22656-.04297-.22266.04297-.22265.1328-.21094.21485-.1914.28906-.16407.3672-.125.4375-.08203.5-.02735.55859h-.83593l.03906-.58985.11328-.57812.17969-.54688.24219-.49219.30078-.42187.17187-.17578.1836-.14844.1953-.1211.21094-.08984.21875-.05468.22657-.01954m4.95312 0l.23047.01954.21875.05468.20703.08985.19922.1211.1836.14843.17187.17578.30078.42188.24219.49218.17969.54688.11328.57812.03906.58985-.03906.59375-.11328.58593-.1797.5547-.24218.5-.30078.42968-.17188.17969-.18359.15234-.19922.125-.20703.08984-.21875.0586-.23047.01953-.22656-.01953-.21875-.0586-.21094-.08984-.19531-.125-.1836-.15234-.17187-.1797-.30078-.42968-.24219-.5-.1836-.55469-.10937-.58593-.03906-.59375h.83203l.03125.5664.08203.5039.125.44142.16407.375.1875.30078.21093.22265.22266.13672.22656.04688.22656-.04688.22266-.13672.21094-.22265.1914-.30079.16407-.375.125-.4414.08203-.5039.02734-.56641-.02734-.5586-.08203-.5-.125-.4375-.16406-.36719-.19141-.28906-.21094-.21484-.22265-.13281-.22657-.04297-.22656.04297-.22266.1328-.21093.21485-.1875.28906-.16407.3672-.125.4375-.08203.5-.03125.55859h-.83203l.03906-.58985.10938-.57812.1836-.54688.24218-.49219.30078-.42187.17188-.17578.18359-.14844.19531-.1211.21094-.08984.21875-.05468.22656-.01954m4.95313 0l.38672.02735.35937.08203.32422.13672.27734.1875.23047.23828.17188.28516.10937.33203.03906.375-.01953.27734-.05859.23438-.08594.19921-.11328.17188-.1289.14063-.14063.125-.28516.1953.23047.1211.20703.14453.1836.17188.15234.19531.125.21094.08985.23047.05468.24609.01953.2539-.03515.3086-.10156.32813-.17188.32421-.23828.3047-.3086.26952-.375.21485-.21093.08203-.22656.0625-.2461.03515-.26172.01563-.25781-.01563-.24219-.03515-.22265-.0625-.20704-.08203-.35937-.21485-.28906-.26953-.22266-.30469-.15625-.32421-.09375-.32813-.03125-.3086h.83203l.02735.25391.07812.23438.125.21094.16016.1875.1914.15234.21875.11328.2422.07031.2539.02735.25781-.02735.23828-.07031.21875-.11328.19531-.15235.16016-.1875.1211-.21093.07812-.23438.02734-.2539-.02734-.25391-.07813-.23438-.12109-.21093-.16016-.1875-.1953-.15235-.21876-.11328-.23828-.07031-.25781-.02734-.2539.02734-.2422.07031-.21875.11328-.1914.15235-.16016.1875-.125.21094-.07812.23437-.02735.2539h-.83203l.01953-.2539.05469-.23828.09375-.22656.1211-.20704.15624-.1914.1797-.17188.20702-.15234.23438-.13281-.28906-.19531-.13672-.125L457 435.4375l-.11328-.17188-.08985-.19921-.05468-.23438-.02344-.27734h.78906l.02344.21484.0664.1914.10157.16798.13672.14062.16797.10938.1875.08203.20703.05078.21875.01562.22265-.01562.20704-.05078.1875-.08203.16406-.10938.13672-.14062.10546-.16797.06641-.1914.02344-.21485-.02344-.21094-.0664-.1914-.10547-.16798-.13672-.14062-.16406-.10938-.1875-.08203-.20704-.05078-.22265-.01562-.21875.01562-.20703.05078-.1875.08204-.16797.10937-.13672.14063-.10156.16796-.06641.19141-.02344.21094h-.78906l.03906-.375.10938-.33203.17187-.28516.23047-.23828.28125-.1875.32031-.13672.35938-.08203.38672-.02735"/></g></defs><use xlink:href="#ae"/></svg>