<svg xmlns="http://www.w3.org/2000/svg" role="img" xmlns:xlink="http://www.w3.org/1999/xlink" viewBox="142.45 309.95 326.84 171.84"><defs><clipPath id="a"><path d="M144 441h1v39.32813h-1zm0 0"/></clipPath><clipPath id="b"><path d="M144 311.67188h1V433h-1zm0 0"/></clipPath><clipPath id="c"><path d="M144 311.67188h324v168.65625H144zm0 0"/></clipPath><clipPath id="d"><path d="M424 470h12v10.32813h-12zm0 0"/></clipPath><clipPath id="e"><path d="M467 311.67188h1v168.65625h-1zm0 0"/></clipPath><clipPath id="f"><path d="M144 477h3v3.32813h-3zm0 0"/></clipPath><clipPath id="g"><path d="M153 478h8v2.32813h-8zm0 0"/></clipPath><clipPath id="h"><path d="M169 476h4v4.32813h-4zm0 0"/></clipPath><clipPath id="i"><path d="M181 477h6v3.32813h-6zm0 0"/></clipPath><clipPath id="j"><path d="M195 477h5v3.32813h-5zm0 0"/></clipPath><clipPath id="k"><path d="M208 477h6v3.32813h-6zm0 0"/></clipPath><clipPath id="l"><path d="M221 477h6v3.32813h-6zm0 0"/></clipPath><clipPath id="m"><path d="M234 477h6v3.32813h-6zm0 0"/></clipPath><clipPath id="n"><path d="M248 477h6v3.32813h-6zm0 0"/></clipPath><clipPath id="o"><path d="M261 477h6v3.32813h-6zm0 0"/></clipPath><clipPath id="p"><path d="M275 476h4v4.32813h-4zm0 0"/></clipPath><clipPath id="q"><path d="M290 476h1v4.32813h-1zm0 0"/></clipPath><clipPath id="r"><path d="M303 476h2v4.32813h-2zm0 0"/></clipPath><clipPath id="s"><path d="M316 476h2v4.32813h-2zm0 0"/></clipPath><clipPath id="t"><path d="M327 477h7v3.32813h-7zm0 0"/></clipPath><clipPath id="u"><path d="M340 478h8v2.32813h-8zm0 0"/></clipPath><clipPath id="v"><path d="M353 478h8v2.32813h-8zm0 0"/></clipPath><clipPath id="w"><path d="M367 478h7v2.32813h-7zm0 0"/></clipPath><clipPath id="x"><path d="M366 480h3v.32813h-3zm0 0"/></clipPath><clipPath id="y"><path d="M380 477h7v3.32813h-7zm0 0"/></clipPath><clipPath id="z"><path d="M394 477h6v3.32813h-6zm0 0"/></clipPath><clipPath id="A"><path d="M407 477h6v3.32813h-6zm0 0"/></clipPath><clipPath id="B"><path d="M422 476h3v4.32813h-3zm0 0"/></clipPath><clipPath id="C"><path d="M434 477h5v3.32813h-5zm0 0"/></clipPath><clipPath id="D"><path d="M449 476h3v4.32813h-3zm0 0"/></clipPath><clipPath id="E"><path d="M461 477h5v3.32813h-5zm0 0"/></clipPath><clipPath id="F"><path d="M144 464h3v6h-3zm0 0"/></clipPath><clipPath id="G"><path d="M144 450h3v7h-3zm0 0"/></clipPath><clipPath id="H"><path d="M144 437h3v7h-3zm0 0"/></clipPath><clipPath id="I"><path d="M144 423h2v8h-2zm0 0"/></clipPath><clipPath id="J"><path d="M144 429h2v2h-2zm0 0"/></clipPath><clipPath id="K"><path d="M144 410h3v7h-3zm0 0"/></clipPath><clipPath id="L"><path d="M144 398h4v4h-4zm0 0"/></clipPath><clipPath id="M"><path d="M144 384h3v7h-3zm0 0"/></clipPath><clipPath id="N"><path d="M144 370h1v8h-1zm0 0"/></clipPath><clipPath id="O"><path d="M144 377h1v2h-1zm0 0"/></clipPath><clipPath id="P"><path d="M144 356h2v9h-2zm0 0"/></clipPath><clipPath id="Q"><path d="M144 343h1v8h-1zm0 0"/></clipPath><clipPath id="R"><path d="M144 330h3v8h-3zm0 0"/></clipPath><clipPath id="S"><path d="M466 331h2v3h-2zm0 0"/></clipPath><clipPath id="T"><path d="M465 332h3v3h-3zm0 0"/></clipPath><clipPath id="U"><path d="M144 318h4v5h-4zm0 0"/></clipPath><clipPath id="V"><path d="M465 317h3v2h-3zm0 0"/></clipPath><g id="W" clip-path="url(#clip1)"><path fill="#fff" fill-opacity="0" fill-rule="evenodd" d="M0 0h1000v1000H0zm0 0"/><path fill="#d3d3d3" fill-opacity="0" fill-rule="evenodd" d="M162.15234 355.86719l-.23437.29297.0586.23437.11718.17188.17578.23437.29297.34766.11328.0586.11719-.17188.0586-.23438.17577-.17578.46485-.17578h.69922l.23437.29297.28906.8164.0586.17579.17578.23046.35156.23438.69922.69922.17188.17578.23437.34765.23438.41016.28906.58203.41015.46485.23047.23437.23438.17578.11719.23047.17578.29297.17187 1.16406v.23438l.0586.28906.05859.11719.11719.11719.34765.41015.11719.17188.17578.17578.17578.23437.11719.17188.17188.35156.05859.23438.23437.40625.23438-.0586-.17578.17578-.0586.92969h-.58203l-.23437-.11328-.34766.11328-.11719.11719-.05859.29297-.0586.17578-.11718.17187-.46484.29297-.0586.23438-.0586.11328v.64453l.0586.17187v.41016l.0586.0586v.40624l.05859.40625.11719.17579.05859.05859.23047.64062-.0586.29297v.69922l-.05859.58203v.23438l-.0586.23047-.05468.35156v1.92187l.05469.1172h.42578l-.36719.11718-.02344.35156.89063 1.16797 1.74219.53906 1.33984.35938v.53906l.08984.8086.53516.71484 1.51953.26953.89063-.08594.08984 1.16406.53516.1797 1.16015-.1797 2.05469-.98437 1.16016-.36328 1.8789-.17578 1.69531-.1797-.17968.71876-1.51563.08594-1.25.08984-.80469.26953-1.07421.8086.26953.71875.53515.89843-.17968.625-.26563.8086.26563 1.07812.625.89844.80468.17969 1.25-.1797-.26562.72267.09766.5039.05468.29297v.17188l.0586.29296v.40625l.17578.1172.35156.11718h.40625l.29297-.17578.11328-.11719.0586-.11719.11718-.23047.0586-.17578.35156-.46484.23047-.17578.17578-.0586.17578.0586.0586.17578.11718.98828.05469.46875.0586.17188.11718.23437.17578.0586.8164.05859h.28907l.11719.23437.05859.40625.0586.35156v1.10547l.11718.29297.11719.34766.28906.69922.17578.35156.58203.7539.35157.17579.17187.0586.46875.23437.64063.46484.34765.23438.29297.17578.29297.05468.23047.0625.8164.34766.29297.17578.11328.17188.35157.35156.11719.17578.52343.64063v.28906l.0586.35156v.34766l.05859.35156.0586.28906.11718.0586.17188.05859h.17578l.58203.23437.17578.1172.17578.28905.17578.23438.11328.23437.29297.23047.11719.11719v.41016l.0586.05468.28906.23438.23437.11719.0586.11718.11718.17188.0586.11719.23047.23437.05859.17578.23437.0586.1172.05859-.1172.11328-.05859.11719v.11719l-.11719.29296-.11719.28907v.58203l.17579.11719.11718.05859.0586.11719.11719.11719.11328.05859.17578.34765.0586.35157.05858.40625v.17578l-.05859.17578-.11719.69922v.17187l.1172.17579.29296.29296h.40625l.17578.1172.11719.17187.11719.29296v.23438h-.52735l-.23047-.23438h-.23437l-.17578.0586-.0586.69922.0586.34765.11719.17579.17578.41015.11718.23047.28907.46875.17578.05469h.52344l.23437.0586.75781.64062.0586.29296v.23438l.05859.0586.23047.34765v.35156l-.11719.17188v.29297l.29297.28906.29297.17578.17187.0586.29297.17577.29297.1172.58203.40624.28906.23438.29297.17578.21875.16015.01563.01172.23047.17579.64062.52343.17578.23438.1172.17578.17577.17578.11328.17188v.64062l.1172.17578.46874.11719.58203.11719.23438.05859.23047.11328.29297.11719.11328.0586.58593.35156.28907.17187.17578.0625.17578.05469.17578.0586.69922.35155.28906.17579.23438.05468.28906.17578.23437.1172.64063.40624.29297.11719.17187.0586.23438.05859.41015.05859.23047.0586.23438.11718.0586.17188-.41017.17578.46875.0586.0586.29296.11328.23438.17578.05468.23438.0586.17578.05859.40625.11719.64062.23437.11719.17188.0586.23437v.17578l-.0586.1172-.0586.40624.23438.23438.11719.05859.34766.11719.64062.23047.17578.11718.28906.1172.17578.17577.23438.46485.58203 1.10546.17578.17579.34766.17578.17578.11719.35156.11718 1.04688.52344.23437.0586.46485.11327.29297.0586.46484.17578.75781.58203.23438.23438.34765.46484.17578.17578.28907.23438.8164.69921.29297.17579.28906.28906.29297.17578.29297.28906.69531.64063.17578.17578.29297.23437.28907.23438.46875.28906.64062.58203.34766.23438.23437.29297.34766.34765.35156.46485.9336.99218.34765.40625.11719.17579.23437.05859.11328.11719.64454.17578.23047.11328.23437.0586.29297.17577.23047.1172.9336.69921.40624.40625.23438.17578.40625.17578.23437.11719.8164.34766.34766.23437.23438.11719.29297.28906.23047.11719.7578.35156.35157.17188.23047.05859.29297.11719.23437.0586.8711.17577h.8164l.46875.23047.17188.0586.875.69921.46484.1172.29297.05858.17578.0586.23047.0586.46875.05859.34766.05859.35156.0586.40625.05859h.29297l.17187.0586v.23046l.17578.17578h.29297l.34766.0586.35156.05859.69922.11719h.64063l.46484-.23438.29297-.17578.17187-.11719.41016-.17187.28906-.17578.9336-.46485.46875-.29297.52343-.29296.46485-.17188.46484-.17578 1.05078-.46485.28906-.11718.41016-.11719.28906-.11719.52735-.17578 1.51562-.69922.58203-.34765.28907-.0586.29297-.0586.34765-.11718.875-.23047.35156-.11719h.11329l.23437-.05859.875-.23437.23438-.0586h.8125l.35156-.0586.8164-.11718.17188-.0586.35156-.05468.29297-.0586.23047-.05859.8164-.17578.17579-.0586h.34765l.23438-.05859.46484-.11718.75781-.17188.23438-.0586h.34765l.41016-.11718.28906-.0586 1.28516-.05859h.28906l.41016-.0586.23047-.05858h.17578l.875-.1172h.40625l.41015-.11718h.34766l.35156-.11328.8711-.0586h1.75l1.04687.28907.41016.11719.28906.11718.35156.11719.28907.11719 1.05078.17187.28906.0586h.29297l.29297.05859.17187.0586.41016.05859.17187.0586.1172.05858h.11718l.11719.0586.35156.0586h.11328l.41016.0664 1.92187.39453 1.92578.39453 1.51953.44922 1.69532.71875 2.14453.80469 1.60547-.71875 1.42968-.80469 1.16016-1.07813 1.25-.44921 3.03516-.71875 1.875-.35938 2.14453-1.34765 2.23437-1.25391 2.5-1.25781 1.69531-.44922 1.78516-.17969 1.16016-.26953.625.53906 1.33984-.26953.71485-.98828.98437-1.34375.44531-.17969.80469-.35937 1.875-.53907 1.78516-.44921 1.25-.26954 1.16015-.08984 1.69922-.08984 1.96094-.26954 1.25-.08984h.53906l.625-.08984h.89063l2.14453-.17969 2.41015-.17969 2.58985-.08984 1.69531.17969 1.60938.08984 1.42968.35938 1.16016.71875 1.875.98828 1.16015 1.52734.26563.71484.6289.08985.35548.89844.53515.53906.53516 1.52734 1.07422.35938h.53515l-.80469.53515.08985 1.70703.71484 2.69532.89063.80468.89453.98829.71484 1.2578 1.78516.53907 1.51953-.17969.35547 1.34375 1.60937-.80469.98047-.53906.26953.26953.31641-.21484.21875-.14453.80078.44922.44922-.35938h.35547l.53515-.26953.53907-.71875.53515-.26953.625-.98828 1.16016.44922.83984.3711 1.39454.61718 1.6953-.17969h1.60548l1.78515.08985.17969-1.70704.53516-1.34375.80468.26954.4922.84765.40233.40625-.08984.53906v.35938l.71485.44922.71093-.26953h1.42969l.35938.98828.4453 1.25781.71485 1.34375 1.25.6289 1.69531.62891.71485-.17969.17969-.53906.98046-.08984.44922.35937.08594 1.25782-.26563.6289-.53515.17969v.53906l.71484.98438.26563.53906.98437.98828.80078 1.07813-.26562.35937-.08985.89844-.625 2.33203-.35546 2.0664-.08985 1.79298-.17969.71875-.08984.53906v1.4375l-.98047 1.88281-.35937 1.70703-.53516.89844-.80469 1.16797-.26562.53906 2.05469 1.2539.08593.35938-.35546.53906-.08985-.17968v.80859l.08985 1.4375-.44532.71484-1.07422.09375-.26562.71485.53515.89844.8047.71875 1.16015.80859 1.33984.26953.44531.35938-.35546.44921-1.78907-.08984-1.25-.44922-.71484-.71875-.625-.08984-.17578 3.58984-.1875 1.3086h89.35937V311.70313h-55.26953v49.08203l.76172.125 3.28906.54296 2.02344 2.83594v2.7539l2.35156.33204 2.34766.33203h4.05078l-1.3789 4.16016-2.02344.70703-2.02344.70312-.54297.34375-2.59375 1.6172-.1875.11718-2.02344-2.07813-.73046-2.74218-2.67188-2.07813-1.375-3.5-.0664-.08203-1.95704-2.67188 2.75-1.41796v-49.08204H294.42187v91.41407l.1172.03125.1328.01172.07422.07421.10547.04688.08985.0586.08593.05859.08985.0586.29687.29687.0586.08984.03125.11719.02734.11719.01563.13671-.03125.1172-.0586.08983-.0586.08594-.04296.10547-.04688.10156-.02734.1211v.14453l.17578.26953.14844.14844.07422.08594.07422.07421.04296.10547.0625.08985.0586.08593.04297.10547.0586.08985.04687.10156.04296.10547.0586.08594.11719.17968.07421.07422.0625.08594.0586.08984.04297.10547.0586.08985.05858.08593.0625.08985.0586.08984.04297.10156.11719.17969.07421.07422.0586.08594.07422.07421.08984.0586.10547.04687h.14844l.1328-.01562.13282.01562.10156-.04687.07422-.07422.04688-.10156-.01563-.13281v-.14844l-.04687-.10547-.02735-.11719-.04687-.10156-.02735-.1211-.04296-.10156-.0625-.08984-.04297-.10156-.04297-.10547-.03125-.11719-.01563-.13281-.01171-.13672.08593-.0586.0586-.08593.12109-.03125.04297.10547.01562.1328v.1172l.0586.10156.0586.08984.08983.0586.14844.14843.0586.08985.04296.10547-.01171.10156.08593.0586.10547.04687.08594.0586.08984.05858.07422.07422-.11719.02735-.10546.04687-.08594.0586-.07422.07421-.0586.08985-.0625.08594-.02734.12109-.04687.10156-.04297.10547-.03125.11719-.01172.13281-.01563.13281v.14844l.02735.11719.04687.10547.04297.10156.0586.08984.07421.07422.08985.0586.07422.07421.08984.0586.0586.08984.04296.10547.04688.10156.11719.03125.1328.01563h.14845l.11718-.03125.10547.04297.04297.10547.04688.10156.02734.1211L299.5 410l.02734.11719.03125.1211.02735.11718.10547.04297.10156.04687.13281-.01562.14844.14844.0625.08593.07422.07422.07031.07422.08984.0625.10547.04297.10156.04297.1172.03125.13671.01562.11719-.03125.07422-.07422.02734-.11718-.01172-.13282-.03125-.12109-.02734-.11719.04297-.10547h.11719l.08984.0625.11719.02735h.14843l.13282.01562h.14843l.13282.01563.1328-.01563h.14845l.1328-.01562.13282-.01172.13672.01172.11719-.02735.13281-.01562.1914-.0586-.05859.17579-.01562.1328-.02735.1211-.01562.13281-.0586.08594-.1328.01563-.10548.04687-.10546.04297-.1172.03125-.11718.02735-.26563.03125h-.14843l-.13281.01562-.07422.07422.05859.08594.14844.14843.11719.1797.07421.0703.08985.0625.08984.0586.08594.0586.08984.05858.10156.04297.10547.0625.10547.04297.08594.0586.10547.04687.10156.04297.17969.11719.0586.08984-.04298.10156-.04687.10547.01562.13281.22266.22266.0586.08985.04296.10156.03125.1211.04297.10155.01563.13282.03125.11718.01171.13672.03125.11719.14844.14844.10156.04297.10547.04296.1172.03125.1328.01563.13672.01563h.11719l.11719-.03125.08984-.0586.04297-.10547.04688-.10156.04296-.10547.03125-.11719.01172-.1328v-.14845l-.01172-.1328-.01562-.13282-.03125-.11719-.04297-.10547-.04688-.10547-.04296-.10156-.04297-.10547-.01563-.13281.01563-.13281.02734-.11719.03125-.11719.02735-.1211.04687-.10155.08984-.0586.08594-.0625.07422-.07422.08984-.05859.22266-.22266.0586-.08593.07421-.07422.11719-.17969.0586-.08594v-.14844l-.07423-.07421-.10156-.04688-.10547-.04297-.10156-.04297-.0586-.08984-.04687-.10547-.02734-.11719.08984-.05859.11719-.03125.10156-.04297.17969-.11719.14844-.14843.01172-.13282-.01172-.10546-.08985-.0586-.1328.01563h-.14845l-.1328.01562-.13282-.01562-.1211-.03125-.08593-.0586-.07422-.07422-.0586-.08984-.0625-.08594-.11718-.17969-.0586-.08593.03125-.1211.08594-.05859.1211-.03125.05859-.08594v-.1211l-.03125-.11718-.0586-.08984-.05859-.08594-.04687-.10547-.02735-.11719-.01562-.1328.0586-.08985.07421-.07422.08984-.0586.1172-.17968.07421-.07422.0586-.08594.14843-.14844.1211-.03125.1328-.01562.13282.01562.07422.07422.04297.10547.01562.13281-.03125.1172-.11719.03124-.1328.01172-.14844.14844-.04297.10547-.04688.10156-.02734.1211-.03125.11718v.14844l.03125.11719.04297.10546.05859.08985.07422.07031.07422.07422.11719.03125.12109.02734.11719-.02734.1328-.01563h.1172l.08984.0586.07422.07422.04687.10546.0586.08594.10156.04688.13281.01562.10547.04297.08594.0586-.01172.10546-.07422.07422-.17969.11719-.05859.08984-.08984.0586-.07032.07422-.07421.07421-.0625.08985-.02735.11719-.01562.1328.01562.13282-.01562.13281v.14844l.01562.13281.02735.1172.03125.12108.07421.07422.08985.0586.08594.0586.08984.05858.11719.03125v.08594l-.10157.04688-.08984.0586-.26563.03124-.11718.02735h-.14844l-.10547.04296-.10156.04688-.0586.08984-.0625.23438-.01171.13281-.03125.1211-.01563.1328v.29298l-.01172.1328.01172.13673.01563.1328.1328.01563.13282.01172.1211.03125.08593.0586.07422.07421.04688.10547.04296.10157.01563.1328v.44532l-.01563.13281v.44532l.03125.26562.02735.11719.01562.13281.03125.11719.08594.21094.03125.26562v.14844l-.03125.11719-.02734.11718-.03125.1211-.02735.11719-.03125.11718-.03125.1211-.01171.1328-.01563.13282.08984.0586.1172-.03125.10155.01562.04688.10547-.03125.26562v.44141l-.04297.10547-.04688.10547-.04296.10156-.04297.10547-.0586.08594-.03125.12109-.04296.11719-.03125.11719-.01563.1328.01563.13282.05859.08984.10547.04688.08594.0586.05859.08593-.01172.13672-.03125.11719-.04297.10156v.44531l-.01562.13281v.14844l-.03125.11719-.04297.10547-.02735.11719-.04687.10546-.04297.10157-.03125.12109-.02734.11719-.03125.13281-.03125.11719-.02735.11719-.04297.10546-.03125.1172-.03125.12108-.01171.13282-.01563.13281v.29688l.02734.11718v.14844l.04688.39844.02734.11719.0586.08984.12109.03125h.14844l.13281-.01563.0586.08985v.11719l-.0586.08984-.08984.0586-.10157.04296-.10546.04688-.08985.05859-.08594.0586-.13671.01562-.1172-.03125-.1328-.01563-.10157.04688-.0625.08594-.01172.13671-.01562.13282-.03125.11719-.02735.11718-.01562.13281-.03125.1211v.29687l.01563.13282.03125.11718v.14844l.01171.13281v.14844l-.02734.11719-.04688.10156-.02734.1211-.03125.11718-.0586.08985-.07421.07421-.10156.04297-.10547.04688-.11719.02734-.1211.03125-.10156-.04687.0586-.08594.10547-.04688.02734-.11718.03125-.11719.02734-.1211.03125-.11718v-.14844l.01563-.13281-.03125-.11719-.04297-.10547-.10547.01563-.07422.07422-.10156.04296-.08984.0625-.07422.07422-.04297.10157-.01563.1328-.03125.1172L304.25 426l-.03125.11719-.02734.11719-.03125.12109-.02735.11719-.03125.11718-.04297.10547-.08984.0586h-.08984l-.1172-.03125-.03124-.08594.01562-.13672-.03125-.11719v-.14844l-.01171-.1328v-.14844l-.0625-.23438-.02735-.1211-.04297-.10156-.04687-.10546-.0586-.08594-.05859-.08985-.04297-.10546-.0625-.08594-.14844-.14844-.0703-.07422-.10548-.04687-.10547-.04297-.10156-.04297-.29687-.29688-.08985-.07421-.08594-.0586-.10546-.04297-.08985-.0625-.08594-.0586-.10546-.04296-.08985-.0586-.08594-.0625-.07421-.0703-.10547-.04688-.08594-.0586-.10547-.04296-.08984-.0625-.10156-.04297-.10547-.04297-.08594-.0586-.10547-.04687-.10547-.04297-.10156-.04687-.08985-.0586-.10156-.04297-.10547-.04296-.08984-.0625-.11719-.02735-.13281-.01562-.13281.01562H299.75l-.13281.01563-.11719-.03125-.08984-.0586-.07422-.07422-.08985-.05859-.10156-.04688h-.14844l-.12109-.02734-.10156-.04297-.07422-.07422-.11719-.17968-.08984-.0586-.10156-.04297-.08985-.0625-.10547-.04296-.08984-.0586-.08594-.0586-.10547-.04687-.0586-.08594-.05858-.08984-.04297-.10547-.04688-.10156-.07422-.07422-.08594-.0586-.07421-.07421-.08985-.0586-.22265-.22265-.04297-.10547-.03125-.26563.10547-.04296h.14453l.10547.04296.07421.07422.08985.0586.08594.0586.10546.04687.08985.05859.14844.14844.0703.07422.14845.14843.0625.08594.07421.07422.08594.0586.07422.07421.08985.0625.08984.0586.08594.05859.26953.17578.10156.04688.10547.04296.10156.04297.04688-.07421.05859-.08594.07422-.07422.07031-.07422.10547.04297.07422.07422.0586.08984.04296.10156.04688.10547.04296.10547.1211.02735.11719-.02735.07421-.08984.04297-.10547.0586-.08985.07422-.07421.10546-.04297.1172-.02735.1328.01172.08985.0586.14844.14843.05859.08985.04297.10547.04687.10156.04297.10547.04297.10156.10547.04688.10547.04296.13281.01563.08594-.0586.0586-.08984.07421-.07422.10547-.04297.11719.02735.10547.04687.10156.04297.10547.04297.10156.04688.17969.11718v.11719l-.01563.13281.01563.13281.01562.13672.0586.08594.10156.04688.1211.02734.11718.03125h.14844l.11719-.03125.05859-.08984.17969-.1172.05859-.08983.07422-.07422.0586-.08594.11718-.17969.17969-.11719.11719.03125.08984.0586.04297.07422-.01563.1328v.1172l.08985.05859h.14843l.13282-.01563.1328-.01171.26563-.03125.10547-.04297.11719-.03125.1211-.02735.07421-.07421.07031-.07422.0625-.08985-.01562-.10547-.04688-.10156-.10156-.04297-.10547-.01562-.11718.02734-.26563.03125h-.14844l-.07421-.07422-.08985-.0586-.11719-.03124-.11718-.02735-.13282-.01562h-.14843l-.13282.01563h-.29687l-.10547-.04688-.14844-.14844-.04297-.10156-.05859-.08984.22266-.22266.08593-.0586.10547-.04296.11719-.03125.13281-.01563.13281.01563.13672.01562.10157.04297.1328-.01172.08985-.0625.10156-.04297.0625-.08984-.04687-.10156-.08984-.0586-.1172-.03125-.10155-.04296-.0586-.08985-.0625-.08984v-.11719l.01563-.13281.10547-.04688.07421-.07031v-.1211l-.08984-.05859-.03125-.11719.08985-.05859.07421-.07422.04297-.10547.0586-.08984.04687-.10156.01563-.13281v-.14844l-.04688-.10547-.04297-.10156-.08984-.0586-.13281-.01562-.10157-.04297-.13671-.01563-.1172-.03125h-.4453l-.13282-.01562-.13281-.01172-.13281-.01563-.11719-.03125h-.14844l-.13281-.01562-.13281-.01172-.26563-.03125-.1211-.04297-.08593-.0586-.07422-.07421v-.14844l.01172-.13281.10547-.04688.10156-.04296.13281-.01563h.15235l.13281-.01562h.29297l.1211.03125.10156.04296.08984.0586.23438.0625.12109-.04688.08984-.05859.10156-.04297.13282-.01562.10547.04296.10156.04688.13281.01172.1211-.02735h.14453l.12109-.03125.11719-.02734.10547-.04687.07421-.07422.08594-.0586.14844-.14843.0586-.08594.04687-.10547.02734-.11719.01563-.10547-.10156-.04296-.08985-.0586-.11719-.03125-.10546-.04297-.08985-.0625-.07422-.08594-.07422-.07421-.10156-.04297-.10547-.04688-.10156-.04297-.0586-.08984-.04687-.10156-.08594-.21094-.0625-.08594-.05859-.08984-.07422-.07422-.08594-.0586h-.26953l-.11719.03126-.08984.05859-.10156.04297-.13281.01562-.10547-.01562-.02735-.11719-.0625-.08984-.11718-.03125-.10157-.04297-.14843-.14844-.03125-.11719-.01563-.10546.07422-.07422.17969-.1172.11719-.02733.11718-.03125.13672.01562.10156.04297.10547.04297.10156.04687.10547.04297.1172.03125.1328.01563.1172.02734.1328.01563.10547-.01563.08985-.0586-.07422-.07421-.10547-.04297-.07422-.07422-.07422-.08984-.14844-.14844-.08593-.0586-.08985-.05859-.07422-.07422-.08984-.0586-.10156-.04687-.1211-.02734-.10156-.04688-.10547-.04296-.11719-.03125-.10156-.04297-.1211-.03125h-.14843l-.11719.03125-.10546.04297-.08594.0625-.17969.11718-.08594.0586-.08984.0586-.10547.04687-.08594.05859-.10547.04297-.10156.04297-.10547.04687-.07422.07422-.05859.08985-.0586.08593-.04687.10547-.0586.08594-.07421.07422-.13281-.01172-.1172-.03125h-.11718l-.07422.07422-.08984.0586-.07422.07421-.08984.0586-.08594.05859-.10547.04687-.10156.04297-.13672.01563-.10156-.04297-.14844-.14844-.10547-.04688h-.08594l-.10547.04688-.10156.04297-.1211.03125-.11718-.03125-.07422-.07422v-.11719l.03125-.1211.07422-.0703.0586-.08985.07421-.07422.11719-.03125.10547-.04296h.29297l.13281-.01563.13672-.01563.10156-.04296.08985-.0586.10156-.04687.08984-.0586.13281-.01171.08985.05859.13281.01172.08984-.0586.08594-.05859.10547-.04297.08984-.0586.08594-.0625.08985-.05859.14843-.14843.0586-.08594.05859-.08985.10547-.04296.13281-.01563.11719.02735.1211.03125.05859-.0586.05859-.08984.03125-.26563.02734-.11719.10547.01172.13281.01563.10157-.04297.08984-.0586.0586-.08984.07421-.07422.0586-.08984.04687-.10156.01172-.13281-.01172-.13282-.04687-.10547-.14844-.14843-.0586-.08985-.05859-.08594-.04297-.10546v-.44532l.01563-.1328v-.14845l.01172-.1328-.0586-.0586-.08984.0586-.10156-.04298-.17969-.11719-.08594-.05859-.0625-.08984-.0586-.08985-.07421-.07421-.08594-.0586-.1211.03125-.10155.01172-.10547.04688-.08594.05859-.10547.04297-.14844.14844-.08984.05859-.08594.0586-.08984.0625-.10547.04296-.13281.01563v-.1211l.10547-.04297.11718-.03125.07422-.0703.04297-.10548v-.14844l-.02734-.11718-.14844-.14844-.13281-.01563h-.14844l-.11719.03125-.10547.04297-.10156.04297-.08984.0625-.11719.02735-.07422-.07422.01172-.13281-.04297-.10157-.04297-.10547-.08984-.05859-.11719.02734-.1211.03125-.11718.03125-.10156.04297-.1211.03125-.10156.04297-.10547.04297-.08984.0586-.10156.01562v-.11719l.01562-.13281-.0586-.08985-.07421.04297-.14844.14844-.0586.08985-.07421.07421-.04688.10547-.04296.10156-.07422.07422-.0586.08985-.07422.07422-.05859.08593-.07422.07422-.08984.0625-.07422.07031-.07422.07422-.10156.01563-.13281.01562-.10547-.04296v-.1211l.14843-.14844.04297-.10156.0586-.08984.04687-.10156.04297-.10547.0586-.08985.03124-.11719.04297-.10156.03125-.1211.02735-.11718.04687-.10547.04297-.10156.04297-.10547.07422-.07031.08984-.0625.08985-.0586.10156-.04296h.29687l.26563-.03125.10547-.04297-.07422-.07422-.11719-.03125-.10547-.04297-.08984-.0586-.10156-.04687-.08985-.0586-.10156-.04296-.10547-.04297-.08984-.0625-.08594-.0586-.10547-.04296-.10156-.04297-.1211-.03125-.11718-.03125-.10157-.04297L297.5 410.25l-.10156-.04297-.08985-.0586-.04296-.10546-.01563-.13281.10156-.04297.13281-.01563.13672.01563.13282-.01563.10156-.04297.0586-.08984.01562-.10547-.08985-.0586-.07421-.07421-.10157-.04297-.08984-.0586-.14844-.14843-.04297-.10547-.01562-.13281v-.29297l-.0586-.08985-.08984-.05859-.07422-.07422-.04297-.10547-.03125-.11718-.0586-.08985-.07421-.07422-.11719-.02734-.07422-.07422-.08984-.0586-.08984-.0625-.08594-.05859-.07422-.07421-.0586-.08594-.04687-.10547-.08594-.0586-.14843-.14843-.19532-.0586-.1328.01563-.10157.04297-.07422.07422-.04688.10156-.04296.10547-.0586.08984-.0586.08594-.29687.29687-.08984.0586h-.08594l-.0625-.08594-.04297-.10547.03125-.11719.0586-.08984.02734-.11719-.01172-.13281-.08984-.0625-.10547.04688-.11719.02734-.11719.03125-.26953.17578-.10156.04688-.11719.02734-.10546.04687-.08985.0586-.10156.04297-.0586-.08594-.04687-.10547.01563-.13281.04687-.10547.07031-.07422.07422-.07031.0586-.08985v-.14843l-.04297-.10547h-.23829l-.10156.04687-.03125.11719-.02734.11719-.03125.1211-.07422.04296-.13281.01563-.07422-.04688-.04297-.10156-.04297-.10547-.04687-.10156-.04297-.10547-.1211.03125-.10156.04297-.13281.01562-.11719.03125-.10547.04297-.08984.0586-.10156.04687-.1211.02734-.13281.01563-.10156-.04297-.0586-.08985-.04687-.10546-.04297-.10157-.04297-.10546v-.1172l.0586-.08984.08593-.05859.17969-.11719.10156-.04687.10547-.04297.10547-.0586.10156-.04296.08985-.0625.10156-.04297.10547-.0586.10156-.04687.08984-.0586.10547-.04296.10156-.04297.08985-.0625.10156-.04297.13672-.01563.11719.03125.10156.04297.1211.03125.10156.04297.10546.04688.10157.04296.10547.04297.10156.04688.10547.04297.10156.04297.10547.04687.08594.0586.10546.04296.1172.03125.10546.04297.10156.04688.08985.0586.10547.04296.10156.04297.10547.04687.11719.02735.10156.04687.1211.02735h.14843l.08594-.0586.01562-.10156.0586-.08984-.02735-.1172-.07422-.07421-.11719-.17969-.07421-.07422-.08985-.07421-.17969-.1172-.08593-.05859-.10547-.04296-.10156-.04688-.26954-.17578-.05859-.08985-.07422-.07421-.0586-.08985-.04296-.10156-.03125-.11719-.01563-.13672v-.5625l-.01171-.1328-.01563-.13282-.03125-.11719-.01562-.13281-.01172-.13281-.03125-.1211-.22266-.22265-.0586-.08594-.01562-.10547.03125-.11719.13281-.01562v-91.41406H172.9922v1.45312l-.0586.23438-.35156 1.05078-.17187.52343-.1172.34766-.17577.41016-.11719.17187-.23438.29297-.23046.0586h-.35157l-.11718.05859-.23047.40625v.29297l.11719.17578.23046.23047.1172.23437.64062.75781.29297.46485.17578.23437.23047.35156.23437.34766.64063.8164.17578.46485.17187.41016.11719.69531.17578.46875.11719 1.39844.0586.46484v.875l.11718 1.04688v4.78125l-.0586.46484-.35156 1.28125-.17578.52344-.11328.41015-.35156.9297L172.93359 336l-.23437.58203-.11719.17578-.17187.34766-.17578.40625-.35157.8164-.0586.29297-.11327.29297-.11719.28906-.0586.17579-.11718.875-.0586.40625-.05859.11718-.0586.17579-.05859.17187-.23047.52734-.11718.17188v.23437l-.11719.23438-.0586.17187-.17577.58594v.28906l-.0586.17579v.29296l-.0586.11329-.05859.52734v.17187l-.05468.23438v2.6211l-.17578.8164-.1172.17578-.17577.23438-.1172.17187-.11327.23438-.58594.93359-.23047.28906-.29297.46485-.17578.23437-.28906.35156-.35156.69922-.11328.23047-.17579.41016-.17578.23046-.40625.52735-.8164.69922-.29297.17187-.28906.23438-.17579.11719-.17578.17578-.52344.40625-.52734.17578-.17187.17578-.23438.05469-.64062.17578h-.75782m12.21094 31.02344l-1.07422.44921.35938.89454 1.25-.71485.44531-.53906-.98047-.08985"/><path fill="#d3d3d3" fill-opacity="0" fill-rule="evenodd" d="M201.50781 416.59766h-.89453l.44922.6289.98047.35938.80469-.08985.4453-.98828-.17577.08985-.71485-.35547-.89453.35547m154.6211 59.0703l-.0586-.52343v-.29297l.11328-.29297.0586-.23046.46875-.46875h.11328l.11719-.11329.11718-.05859h.17579l.23437-.0586h.34766l.23437.0586.11719.0586.23047.17187.0586.17578.11718.58203v.29297l-.11719.17578-.17187.28906-.17579.17579-.52734.52343-.23047.23438-.11719.0586h-.17578l-.11718-.0586-.40625-.29297-.17579-.11719-.11718-.0586-.0586-.11327-.05468-.1172m6.64062-10.95702l-.0586-.17188v-1.10937l.0586-.17188.17578-.0586.17188-.05858h.17578l.23437-.0586.1172.0586.05858.69921-.05859.17188-.11719.17578-.11718.0586-.23438.52343-.11328.0586h-.23438l-.05859-.1172m9.61328-14.39062l-.11719-.17578v-.69922l.29297-.875.1172-.17187.17577-.35156.11328-.23047.1172-.29297.35155-.75781.1172-.23047.17187-.23438h.17578l.11719-.0586h.64062l.11719.0586.23437.23438.17188.11328.35156.29297.11719.11718.11328.17579v.11328l.11719.05859.11718.11719v.69922l-.05859.17578v.23047l-.0586.17578-.34765 1.05078-.11719.23047-.11719.23437-.11718.0586-.23047.23437-.64063.28906h-.875l-.41015-.11718-.64063-.46485"/><path fill="none" stroke="#bebebe" stroke-linecap="round" stroke-linejoin="round" stroke-miterlimit="10" stroke-width=".5" d="M467.95703 311.69531H144.02734v168.625h323.9297v-168.625"/><g clip-path="url(#a)"><path fill="#fff" fill-opacity="0" fill-rule="evenodd" d="M144 475.89063v4.4375h.0039H144v-39 34.5625"/></g><g clip-path="url(#b)"><path fill="#fff" fill-opacity="0" fill-rule="evenodd" d="M144 431.50781v1.48047-121.3164h.0039H144V431.5078"/></g><path fill="#50fcfc" fill-rule="evenodd" d="M144 432.98828v8.33985h.0039v-8.33594l-.0039-.0039"/><g clip-path="url(#c)"><path fill="#fff" fill-opacity="0" fill-rule="evenodd" d="M144.0039 480.32813v-39l1.65626-.94532.41406-4.4375-2.07031-2.95312V311.67188h75.44922v7.01171l-1.0547 1.86329-3.3828 3.6289-4.44141-1.63672-1.76953 2.44531-.52735 4.44141 2.29688 1.67969 2.90625-1.67969 1.53516-3.2539.875-1.1875 3.5625-3.3047.36718-1.1328-.36719-1.86329v-7.01171h13.3125v93.83593l-4.4375.46094-2.77734 3.34766-1.66016 2.43359-1.99218 2.0039-.78906 4.4375 2.78125 2.76563.49609 1.67188 1.97656 4.4414-2.47266.875-3.61328 3.5625-.82422 2.9336-1.20312 1.5039.625 4.4375.57813.54688 4.4375 2.28906 1.5664 1.60156 2.8711 3.66406 3.1953-3.66406-2.39843-4.4375-.79688-.86719-4.4375-1.30468-3.26562-2.26563 3.26563-1.08984 3.57421-3.34766.86328-2.45312 4.4375 1.6211 1.25782.83202 3.1836 3.11328 4.35937 1.32422.07812.07422.11328-.07422 3.26953-4.4375-3.3828-4.1875-.15626-.25.15625-.11328 4.30078-4.32812.13672-1.20704 3.83203-3.23046-3.83203-3.09375-4.4375-1.22657-.40234-.11718-.58594-4.4375-3.44922-2.8672-4.4414-.9414v-93.83594h48.82421v137.4375l-.14843.15235.14843.2461.36329-.2461-.36329-.15235v-137.4375h35.50782v135.16797l-2.33985 2.42188-2.10156.88672-4.4375 2.17187-1.32031 1.3789-1.20703 4.4375 2.52734 3.00392 3.60156 1.43359.83594.53125.5625-.53125 2.76953-4.4375 1.10938-1.47266 3.625-2.96484-1.32032-4.4375-2.30468-2.42188V311.67188h13.3125V446.4453l-4.37891 2.8164-.0586.10157-3.53124 4.33594 3.53125 3.98047 2.47656.45703 1.96094.4336.34375-.4336 2.33593-4.4375.09375-4.4375-2.77343-2.8164V311.67187h44.3828V459.5078l-4.4375.77344-2.26171 2.29297 1.94531 4.4414.3164.35157 1.4375 4.08594 3 2.16015 4.44142.57813 2.74218-2.73829 1.02735-4.4375-3.76954-4.2539-.32812-.1875-4.11328-3.0664V311.67187h35.50781v103.67578l-4.4375 1.23046-4.4375.9297-2.83984.68359-1.60156.15625-3.44141 4.28125.16406 4.4414 3.27735 3.25 4.4414 1.03906 4.4375-1.2578 4.4375.46093 4.4375-.4336 4.4414-.38671 4.4375-2.15625.60157-.51563 1.22656-4.4414-1.82812-1.52735-3.16016-2.91015-1.27734-1.20704-4.4414-1.375-4.4375-.26171V311.67187h22.1914v105.85547l-.20313.66407.20313.1289v18.01953l-4.4375.5586-3.05078 3.48437-1.38672 1.2461-4.4375 1.53906-1.6875 1.65234 1.6875 1.57813v23.46484l-4.20703 1.58985 4.20703 1.5664 3.375-1.5664-3.375-1.58985v-23.46484l1.58984 2.86328 2.84766 3.14453 1.28125 1.29297 1.54297 4.4375 1.32421 4.4375.28907.46484 4.4375 3.42188 4.4375-1.64063 4.4414-1.70703 4.4375-.34375 4.4375 2.30469.75782 1.9414 1.33203 4.4375 2.34765 2.40625 4.44141.83594 3.6914-3.24219.7461-.4453 3.1875-3.9922.74219-4.4414-1.02735-4.4375-2.90234-2.9336-1.80078-1.5039-2.63672-3.66797-4.4414.8086-.67579-1.57813-1.91406-4.4414-1.84766-1.84376-3.76562 1.84375-.67188.375-1.08984-.375-3.34766-1.34375-4.4414-.41406-1.8789-2.67969-2.5586-4.04297v-18.01953l.15234-.1289-.15234-.66407V311.67188h17.7539v114.79687l-.57812.60156-3.85938 3.04297-1.55859 1.39453 1.5586 3.38672 4.4375-.35937 4-3.02735-2.8711-4.4375-1.1289-.60156V311.67187h17.75v168.65625h-34.46094l1.86718-4.4375-2.91015-3.48046-2.98828-.95704-1.44922-1.08593-3.28906 1.08594-.66016 4.4375 3.94922 2.94921 3.03515 1.48829H144.00391"/></g><path fill="#50fcfc" fill-rule="evenodd" d="M145.66016 440.38281l-1.65625.94531v-8.33593l2.0703 2.95312-.41405 4.4375m64.91406-109.27734l-2.29688-1.67969.52735-4.4414 1.76953-2.44532 4.4414 1.63672 3.38282-3.6289 1.05469-1.86329.36718 1.86329-.36719 1.1328-3.5625 3.3047-.875 1.1875-1.53515 3.2539-2.90625 1.67969M218.875 440.3828l-.625-4.4375 1.20313-1.5039.82421-2.9336 3.61328-3.5625v1.94922l-1.63671 1.61328 1.63672 1.51563 1.61718-1.51563-1.61719-1.61328v-1.94922l2.47266-.875-1.97656-4.4414-.4961-1.67188-2.78125-2.76562.78907-4.4375 1.99219-2.00391 1.66015-2.4336 2.77734-3.34765 4.4375-.46094v1.48438L228.32813 409l-.2578.3164-3.58985 4.4375-.58984 3.94923-.14844.48828.14844.14843 1.27343 4.28907 3.16406 3.83593 1.22657.60547 3.21094 2.26172 3.28906 2.17578 1.15234 1.125 4.4375.96875 1.58594-2.09375-1.58594-1.96484-1.53906-2.47266 1.53906-1.08984 3.32813-3.35156.49218-4.4375-3.8203-3.4375-3.41798-1-1.01953-2.70704-.53906-1.73046-3.90234-2.32422v-1.48438l4.4414.9414 3.44922 2.8672.58594 4.4375.40234.11718 4.4375 1.22657 3.83203 3.09375-3.83203 3.23046-.13672 1.20704-4.30078 4.32812-.15625.11328.15625.25 3.38281 4.1875-3.26953 4.4375-.11328.07422-.07812-.07422-4.35938-1.32422-3.1836-3.11328-1.2578-.83203-4.4375-1.6211-.86329 2.45313-3.57422 3.34766-3.26562 1.08984 3.26563 2.26563 4.4375 1.30469.79687.86718 2.39844 4.4375-3.19531 3.66406-2.8711-3.66406-1.5664-1.60156-4.4375-2.28906-.57813-.54688"/><path fill="#00e8fc" fill-rule="evenodd" d="M223.89063 433.02344l-1.63672-1.51563 1.63672-1.61328 1.61718 1.61328-1.61719 1.51563m0-14.6836l-.14843-.14843.14844-.48829.58984-3.94921 3.58984-4.4375.25781-.31641v2.71875l-1.70312 2.03516-.66406 4.4375.5 4.4375 1.86719 2.26171 4.40234 2.1797.03516.02343 4.4414 1.21875.58984-1.24219 3.84766-2.72265 1.70703-1.71875.47266-4.4375-2.17969-1.96094-4.4375-1.4375-4.21094-1.03906-.23047-1.88672-4.4375-.14844V409l4.4375-2.00781 3.90235 2.32422.53906 1.73046 1.01953 2.70704 3.41797 1 3.82031 3.4375-.49218 4.4375-3.32813 3.35156-1.53906 1.08984 1.53906 2.47266 1.58594 1.96484-1.58594 2.09375-4.4375-.96875-1.15234-1.125-3.28906-2.17578-3.21094-2.26172-1.22656-.60547-3.16407-3.83593-1.27344-4.28907"/><path fill="#00d4fc" fill-rule="evenodd" d="M226.46094 422.6289l-.5-4.4375.66406-4.4375 1.70313-2.03515 4.4375.14844.23046 1.88672 4.21094 1.03906v1.30469l-4.4414.96484-4.4375-.3711-.22657 1.5-.34375 4.4375.57031.69141 4.4375 2.0586 4.44141.73437 4.4375-3.39844.08594-.08593.45703-4.4375-.54297-.48829-4.4375-1.60546v-1.3047l4.4375 1.4375 2.17969 1.96095-.47266 4.4375-1.70703 1.71875-3.84766 2.72265-.58984 1.24219-4.4414-1.21875-.03516-.02344-4.40234-2.17969-1.8672-2.26171"/><path fill="#00c4fc" fill-rule="evenodd" d="M228.32813 423.32031l-.57032-.6914.34375-4.4375.22656-1.5 4.4375.37109 4.44141-.96484v1.30468l-2.10156.78907-2.33984 2.33203-2.3086 2.10547 2.3086 1.03906 4.4414 1.16015 2.85547-2.19921-.75-4.4375-2.10547-.78907v-1.30468l4.4375 1.60546.54297.48829-.45703 4.4375-.08594.08593-4.4375 3.39844-4.4414-.73437-4.4375-2.0586"/><path fill="#00b8fc" fill-rule="evenodd" d="M232.76563 423.66797l-2.3086-1.03906 2.3086-2.10547 2.33984-2.33203 2.10156-.78907v2.37891l-2.85937 2.84766 2.85937.91406 1.1836-.91406-1.1836-2.84766v-2.3789l2.10547.78906.75 4.4375-2.85547 2.19921-4.4414-1.16015"/><path fill="#00a8fc" fill-rule="evenodd" d="M237.20703 423.54297l-2.85937-.91406 2.85937-2.84766 1.1836 2.84766-1.1836.91406"/><path fill="#50fcfc" fill-rule="evenodd" d="M281.58984 449.50781l-.14843-.2461.14843-.15233.36329.15234-.36329.2461m26.62891 11.6328l-2.52734-3.0039 1.20703-4.4375 1.32031-1.3789 4.4375-2.17188v2.98828l-.90625.5625.66797 4.4375.23828.05078.03516-.05078 1.59375-4.4375-1.62891-.5625v-2.98828l2.10156-.88672 2.33985-2.42188 2.30468 2.42188 1.32032 4.4375-3.625 2.96484-1.10938 1.47266-2.76953 4.4375-.5625.53125-.83594-.53125-3.60156-1.4336"/><path fill="#00e8fc" fill-rule="evenodd" d="M312.41797 458.13672l-.66797-4.4375.90625-.5625 1.6289.5625-1.59374 4.4375-.03516.05078-.23828-.05078"/><path fill="#50fcfc" fill-rule="evenodd" d="M325.97266 457.67969l-3.53125-3.98047 3.53125-4.33594.05859-.10156 4.3789-2.8164v2.74218l-.11327.07422.11328.7539.07421-.7539-.07421-.07422v-2.74219l2.77343 2.8164-.09375 4.4375-2.33593 4.4375-.34375.4336-1.96094-.4336-2.47656-.45702"/><path fill="#00e8fc" fill-rule="evenodd" d="M330.41016 450.01563l-.11329-.75391.11329-.07422.07421.07422-.07421.7539"/><path fill="#50fcfc" fill-rule="evenodd" d="M370.03906 467.01563l-1.94531-4.44141 2.26172-2.29297 4.4375-.77344v2.57422l-1.625.49219-1.51953 4.4414 3.14453 3.83985 3.6914.59765.75.1875.1875-.1875 1.84375-4.4375-2.03125-2.29296-3.77734-2.14844-.66406-.49219v-2.57422l4.11328 3.0664.32813.1875 3.76953 4.25392-1.02735 4.4375-2.74219 2.73828-4.4414-.57813-3-2.16015-1.4375-4.08594-.3164-.35156"/><path fill="#00e8fc" fill-rule="evenodd" d="M374.79297 470.85547l-3.14453-3.83985 1.51953-4.4414 1.625-.49219v3.4961l-.9336 1.4375.9336 1.14062 2.60156-1.14063-2.60156-1.4375v-3.49609l.66406.49219 3.77735 2.14844 2.03125 2.29296-1.84375 4.4375-.1875.1875-.75-.1875-3.69141-.59765"/><path fill="#00d4fc" fill-rule="evenodd" d="M374.79297 468.15625l-.9336-1.14063.9336-1.4375 2.60156 1.4375-2.60156 1.14063"/><path fill="#50fcfc" fill-rule="evenodd" d="M393.70703 427.07031l-.16406-4.4414 3.4414-4.28125 1.60157-.15625 2.83984-.6836v2.15625l-4.4414.99219-1.58594 1.97266.16406 4.4414 1.42188 1.41016 4.4414 1.40234 3.98828-2.8125-.57812-4.4414-3.41016-2.96485v-2.15625l4.4375-.92969 4.4375-1.23046 4.4375.26171v2.71485l-4.4375.22265-2.875 4.08204.44922 4.4414 2.42578.71485 4.4375.14843 4.28125-.86328.16016-.09765 2.21094-4.34375-2.21094-2.09766-4.4414-2.20703v-2.71485l4.4414 1.375 1.27734 1.20704 3.16016 2.91015 1.82812 1.52735-1.22656 4.4414-.60156.51563-4.4375 2.15625-4.4414.38672-4.4375.43359-4.4375-.46094-4.4375 1.25781-4.44142-1.03906-3.27734-3.25"/><path fill="#00e8fc" fill-rule="evenodd" d="M395.5625 427.07031l-.16406-4.4414 1.58594-1.97266 4.4414-.99219v2.78906l-.51172.17579-.41406 4.4414.92578.34766.4961-.34766-.29297-4.4414-.20313-.17579v-2.78906l3.41016 2.96485.57812 4.4414-3.98828 2.8125-4.4414-1.40234-1.42188-1.41016"/><path fill="#00d4fc" fill-rule="evenodd" d="M401.42578 427.41797l-.92578-.34766.41406-4.4414.51172-.17579.20313.17579.29296 4.4414-.49609.34766"/><path fill="#00e8fc" fill-rule="evenodd" d="M407.875 427.07031l-.44922-4.4414 2.875-4.08204 4.4375-.22265v3.04687l-2.22656 1.25782 2.22656 1.55859 1.82031-1.5586-1.8203-1.2578v-3.04688l4.4414 2.20703 2.21094 2.09766-2.21094 4.34375-.16016.09765-4.28125.86328-4.4375-.14843-2.42578-.71485"/><path fill="#00d4fc" fill-rule="evenodd" d="M414.73828 424.1875l-2.22656-1.5586 2.22656-1.2578 1.82031 1.2578-1.8203 1.5586"/><path fill="#50fcfc" fill-rule="evenodd" d="M419.17969 473.01953l-4.20703-1.5664 4.20703-1.58985 3.375 1.58985-3.375 1.5664m0-26.6211l-1.6875-1.57812 1.6875-1.65234 4.4375-1.53906 1.38672-1.2461 3.05078-3.48437v2.58984l-.78516.89453-3.65234 3.28516-2.09375 1.15234 1.66406 4.4414.42969.47267 3.92969 3.96484.5078 1.01562 2.87891 3.42188 1.5586 1.99219 4.4375 1.67578 4.4414-.1836 4.4375-.36328 4.4375-.1289 2.90235 1.4453 1.53515 3.4375.59375 1.00392 3.84766 4.07812 4.4375-2.4375 1.3125-1.64063 1.625-4.4414-2.36328-4.4375-.57422-.58203-4.4375-3.3789-4.4414-.44532-.00782-.03125-1.89453-4.4375-2.53516-3.53906-4.26171 3.53906-.17579.08203-1.4375-.08203-3-.85938-4.4414-.14453-4.4375.55469-3.1875-3.99219 1.59375-4.4375-2.84375-.89453v-2.58984l4.4375-.5586v7.67188l-.48438.8086.48438.60937 1.40234-.60938-1.40234-.8086v-7.67187l2.5586 4.04297 1.8789 2.67969 4.4414.41406 3.34766 1.34375 1.08984.375.67188-.375 3.76562-1.84375 1.84766 1.84375 1.91406 4.4414.67578 1.57813 4.44141-.80859 2.63672 3.66797 1.80078 1.5039 2.90234 2.9336 1.02735 4.4375-.74219 4.4414-3.1875 3.9922-.7461.4453-3.6914 3.2422-4.4414-.83594-2.34766-2.40625-1.33203-4.4375-.75782-1.94141-4.4375-2.30469-4.4375.34375-4.4414 1.70703-4.4375 1.64063-4.4375-3.42188-.28906-.46484-1.32422-4.4375-1.54297-4.4375-1.28125-1.29297-2.84766-3.14453-1.58984-2.86328"/><path fill="#00e8fc" fill-rule="evenodd" d="M423.1875 449.26172l-1.66406-4.4414 2.09375-1.15235 3.65234-3.28516.78516-.89453 2.84375.89453-1.59375 4.4375 3.1875 3.99219 4.4375-.55469 4.4414.14453 3 .85938 1.4375.08203.17579-.08203 4.26171-3.53906v2.85156l-.82421.6875-3.61329 1.7461-4.4375-.5-4.4414.0703-4.4375 1.19141-1.97266 1.92969 1.97266 2.09765 2.96484 2.33985 1.47266 1.03515 4.4414.69922L445.8086 459l3.9297-.86328.30468-4.4375.20312-1.08985.4922-3.34765-.4922-.6875v-2.85156l2.53516 3.53906 1.89453 4.4375.00781.03125 4.44141.44531 4.4375 3.3789v2.89454l-4.4375 1.90234-.20313.22266.20313.28125 4.4375 2.26953 1.28906-2.55078-1.28906-2.125v-2.89453l.57422.58203 2.36328 4.4375-1.625 4.4414-1.3125 1.64063-4.4375 2.4375-3.84766-4.07813-.59375-1.0039-1.53515-3.4375-2.90235-1.44531-4.4375.1289-4.4375.36328-4.4414.1836-4.4375-1.67578-1.5586-1.9922-2.8789-3.42187-.50781-1.01562-3.9297-3.96485-.42968-.47265"/><g clip-path="url(#d)"><path fill="#50fcfc" fill-rule="evenodd" d="M428.05469 478.83984l-3.94922-2.94921.66015-4.4375 3.28907-1.08594 1.44922 1.08594 2.98828.95703 2.91015 3.48046-1.86718 4.4375h-2.44532l-3.03515-1.48828"/></g><path fill="#00d4fc" fill-rule="evenodd" d="M432.49219 455.79688l-1.97266-2.09766 1.97266-1.92969 4.4375-1.1914 4.4414-.07032v1.39453l-4.4414.14844-3.51953 1.64844 3.51953 2.875 4.4414 1.53125 4.4375-2.1875 1.61329-2.21875-1.61329-1.02735-4.4375-.76953v-1.39453l4.4375.5 3.61329-1.7461.82421-.6875.4922.6875-.4922 3.34767-.20312 1.08984-.30469 4.4375L445.8086 459l-4.4375.8711-4.4414-.69923-1.47266-1.03515-2.96484-2.33985"/><path fill="#fff" fill-opacity="0" fill-rule="evenodd" d="M432.49219 444.01172l-.48438.8086.48438.60937 1.40234-.60938-1.40234-.8086"/><path fill="#50fcfc" fill-rule="evenodd" d="M432.49219 418.32031l-.20313-.1289.20313-.66407.15234.66407-.15234.1289"/><path fill="#00c4fc" fill-rule="evenodd" d="M436.92969 456.57422l-3.51953-2.875 3.51953-1.64844 4.4414-.14844v1.39454l-4.4414.22656-.3711.17578.3711.30469 4.4414.67578 1.89844-.98047-1.89844-.40235v-1.39453l4.4375.76954 1.61329 1.02734-1.61329 2.21875-4.4375 2.1875-4.4414-1.53125"/><path fill="#00b8fc" fill-rule="evenodd" d="M436.92969 454.0039l-.3711-.30468.3711-.17578 4.4414-.22656 1.89844.40234-1.89844.98047-4.4414-.67578"/><path fill="#50fcfc" fill-rule="evenodd" d="M445.8086 434.89453l-1.5586-3.38672 1.5586-1.39453 3.85937-3.04297.57812-.60156V430.5l-1.21875 1.00781 1.21875.63281.83594-.6328-.83594-1.00782v-4.03125l1.12891.60156 2.8711 4.4375-4 3.02735-4.4375.35937"/><path fill="#00e8fc" fill-rule="evenodd" d="M450.2461 432.14063l-1.21876-.63282L450.2461 430.5l.83594 1.00781-.83594.63281"/><path fill="#00d4fc" fill-rule="evenodd" d="M459.125 462.85547l-.20313-.28125.20313-.22266 4.4375-1.90234 1.28906 2.125-1.28906 2.55078-4.4375-2.26953"/><g clip-path="url(#e)"><path fill="#fff" fill-opacity="0" fill-rule="evenodd" d="M467.9961 480.32813H468V311.67188h-.0039H468v168.65625h-.0039"/></g><g clip-path="url(#f)"><path fill="none" stroke="#000" stroke-linecap="round" stroke-linejoin="round" stroke-miterlimit="10" stroke-width=".5" d="M146.0664 483.16797l-4.1328-5.67969"/></g><g clip-path="url(#g)"><path fill="none" stroke="#000" stroke-linecap="round" stroke-linejoin="round" stroke-miterlimit="10" stroke-width=".5" d="M160.59375 481.58984l-6.5586-2.52343"/></g><g clip-path="url(#h)"><path fill="none" stroke="#000" stroke-linecap="round" stroke-linejoin="round" stroke-miterlimit="10" stroke-width=".5" d="M171.85547 477.03516l-2.45313 6.58593"/></g><g clip-path="url(#i)"><path fill="none" stroke="#000" stroke-linecap="round" stroke-linejoin="round" stroke-miterlimit="10" stroke-width=".5" d="M182.13672 477.3164l3.61719 6.02344"/></g><path fill="none" stroke="#000" stroke-linecap="round" stroke-linejoin="round" stroke-miterlimit="10" stroke-width=".5" d="M182.66406 478.1914l.63281-1.05077"/><g clip-path="url(#j)"><path fill="none" stroke="#000" stroke-linecap="round" stroke-linejoin="round" stroke-miterlimit="10" stroke-width=".5" d="M195.26563 477.4375l3.98828 5.78125"/></g><path fill="none" stroke="#000" stroke-linecap="round" stroke-linejoin="round" stroke-miterlimit="10" stroke-width=".5" d="M195.26563 477.4375l1.1289-2.17969"/><g clip-path="url(#k)"><path fill="none" stroke="#000" stroke-linecap="round" stroke-linejoin="round" stroke-miterlimit="10" stroke-width=".5" d="M208.25781 477.6875l4.63281 5.28125"/></g><path fill="none" stroke="#000" stroke-linecap="round" stroke-linejoin="round" stroke-miterlimit="10" stroke-width=".5" d="M208.25781 477.6875l.8711-2.29688"/><g clip-path="url(#l)"><path fill="none" stroke="#000" stroke-linecap="round" stroke-linejoin="round" stroke-miterlimit="10" stroke-width=".5" d="M221.60156 477.66406l4.57813 5.33203"/></g><path fill="none" stroke="#000" stroke-linecap="round" stroke-linejoin="round" stroke-miterlimit="10" stroke-width=".5" d="M221.60156 477.66406l.89453-2.28515"/><g clip-path="url(#m)"><path fill="none" stroke="#000" stroke-linecap="round" stroke-linejoin="round" stroke-miterlimit="10" stroke-width=".5" d="M234.83203 477.73828l4.7461 5.1836"/></g><path fill="none" stroke="#000" stroke-linecap="round" stroke-linejoin="round" stroke-miterlimit="10" stroke-width=".5" d="M234.83203 477.73828l.82422-2.3125"/><g clip-path="url(#n)"><path fill="none" stroke="#000" stroke-linecap="round" stroke-linejoin="round" stroke-miterlimit="10" stroke-width=".5" d="M248.25781 477.64063l4.52735 5.375"/></g><path fill="none" stroke="#000" stroke-linecap="round" stroke-linejoin="round" stroke-miterlimit="10" stroke-width=".5" d="M248.25781 477.64063l.91406-2.27735"/><g clip-path="url(#o)"><path fill="none" stroke="#000" stroke-linecap="round" stroke-linejoin="round" stroke-miterlimit="10" stroke-width=".5" d="M261.72266 477.51953l4.22656 5.61719"/></g><path fill="none" stroke="#000" stroke-linecap="round" stroke-linejoin="round" stroke-miterlimit="10" stroke-width=".5" d="M262.33984 478.33984l.51563-1.11328"/><g clip-path="url(#p)"><path fill="none" stroke="#000" stroke-linecap="round" stroke-linejoin="round" stroke-miterlimit="10" stroke-width=".5" d="M275.74219 477.10938l2.8164 6.4375"/></g><path fill="none" stroke="#000" stroke-linecap="round" stroke-linejoin="round" stroke-miterlimit="10" stroke-width=".5" d="M276.15234 478.04688l.76172-.96094"/><g clip-path="url(#q)"><path fill="none" stroke="#000" stroke-linecap="round" stroke-linejoin="round" stroke-miterlimit="10" stroke-width=".5" d="M290.44531 476.8164l.04297 7.02735"/></g><g clip-path="url(#r)"><path fill="none" stroke="#000" stroke-linecap="round" stroke-linejoin="round" stroke-miterlimit="10" stroke-width=".5" d="M304.14063 476.83203l-.71875 6.99219"/></g><path fill="none" stroke="#000" stroke-linecap="round" stroke-linejoin="round" stroke-miterlimit="10" stroke-width=".5" d="M304.03516 477.85156l1.13671-.46484"/><g clip-path="url(#s)"><path fill="none" stroke="#000" stroke-linecap="round" stroke-linejoin="round" stroke-miterlimit="10" stroke-width=".5" d="M317.71094 476.8711l-1.23047 6.91796"/></g><path fill="none" stroke="#000" stroke-linecap="round" stroke-linejoin="round" stroke-miterlimit="10" stroke-width=".5" d="M317.53125 477.875l1.16797-.375"/><g clip-path="url(#t)"><path fill="none" stroke="#000" stroke-linecap="round" stroke-linejoin="round" stroke-miterlimit="10" stroke-width=".5" d="M327.85156 477.92188l5.11719 4.8125"/></g><path fill="none" stroke="#000" stroke-linecap="round" stroke-linejoin="round" stroke-miterlimit="10" stroke-width=".5" d="M328.59766 478.6211l.3203-1.1836"/><g clip-path="url(#u)"><path fill="none" stroke="#000" stroke-linecap="round" stroke-linejoin="round" stroke-miterlimit="10" stroke-width=".5" d="M340.54688 478.83203l6.35937 2.99219"/></g><path fill="none" stroke="#000" stroke-linecap="round" stroke-linejoin="round" stroke-miterlimit="10" stroke-width=".5" d="M341.47266 479.26953l-.0586-1.22656"/><g clip-path="url(#v)"><path fill="none" stroke="#000" stroke-linecap="round" stroke-linejoin="round" stroke-miterlimit="10" stroke-width=".5" d="M353.73828 479.13281l6.60547 2.39453"/></g><path fill="none" stroke="#000" stroke-linecap="round" stroke-linejoin="round" stroke-miterlimit="10" stroke-width=".5" d="M354.69922 479.48047l-.17188-1.21485"/><g clip-path="url(#w)"><path fill="none" stroke="#000" stroke-linecap="round" stroke-linejoin="round" stroke-miterlimit="10" stroke-width=".5" d="M367.42188 482.26172l5.86718-3.86719"/></g><g clip-path="url(#x)"><path fill="none" stroke="#000" stroke-linecap="round" stroke-linejoin="round" stroke-miterlimit="10" stroke-width=".5" d="M368.27734 481.69922l-1.07812-.58594"/></g><g clip-path="url(#y)"><path fill="none" stroke="#000" stroke-linecap="round" stroke-linejoin="round" stroke-miterlimit="10" stroke-width=".5" d="M380.875 482.45703l5.58984-4.25781"/></g><g clip-path="url(#z)"><path fill="none" stroke="#000" stroke-linecap="round" stroke-linejoin="round" stroke-miterlimit="10" stroke-width=".5" d="M394.38672 482.6914l5.19922-4.72656"/></g><g clip-path="url(#A)"><path fill="none" stroke="#000" stroke-linecap="round" stroke-linejoin="round" stroke-miterlimit="10" stroke-width=".5" d="M407.97266 482.96094l4.65625-5.26563"/></g><g clip-path="url(#B)"><path fill="none" stroke="#000" stroke-linecap="round" stroke-linejoin="round" stroke-miterlimit="10" stroke-width=".5" d="M422.90234 483.76953l1.42579-6.88281"/></g><g clip-path="url(#C)"><path fill="none" stroke="#000" stroke-linecap="round" stroke-linejoin="round" stroke-miterlimit="10" stroke-width=".5" d="M435.23438 483.40625l3.39453-6.15234"/></g><g clip-path="url(#D)"><path fill="none" stroke="#000" stroke-linecap="round" stroke-linejoin="round" stroke-miterlimit="10" stroke-width=".5" d="M451.21094 483.70703l-1.92969-6.75781"/></g><g clip-path="url(#E)"><path fill="none" stroke="#000" stroke-linecap="round" stroke-linejoin="round" stroke-miterlimit="10" stroke-width=".5" d="M461.5625 483.21875l4-5.77734"/></g><g clip-path="url(#F)"><path fill="none" stroke="#000" stroke-linecap="round" stroke-linejoin="round" stroke-miterlimit="10" stroke-width=".5" d="M141.5586 469.53906l4.8828-5.05078"/></g><path fill="none" stroke="#000" stroke-linecap="round" stroke-linejoin="round" stroke-miterlimit="10" stroke-width=".5" d="M154.08984 468.40625l6.45313-2.78516M155.02734 468l-.95703-.76563m14.08985-2.71875l4.9375 5m-4.21875-4.27343l.36718-1.17188m13.20703-.23828l2.98047 6.36328m-2.54687-5.4375l.73828-.98047m12.03516.10938l3.19922 6.2539m-3.19922-6.2539l1.40234-2.01172m11.51953 2.2461l3.98828 5.78515m-3.98828-5.78516l1.1289-2.17968m12.34376 2.07812l3.67187 5.98828m-3.67187-5.98828l1.2461-2.11719m12.23046 2.02344l3.34766 6.17578m-3.34766-6.17578l1.35547-2.04687m11.49219 2.34765l4.28125 5.57422m-3.65625-4.76172l.5078-1.11718m11.8672.58203l4.91406 5.01953m-4.19922-4.28906l.3711-1.17188m12.12109.54688l5.1289 4.80859m14.26172-2.3125l-7.02344-.1836m19.86329 1.85938l-6.07032-3.53516m19.64063.53516l-6.58203 2.46484m5.625-2.10546l.91797.80859m12.87109-2.04688l-5.61719 4.22266m5.61719-4.22266l2.22266 1.03907m11.24609-.82032l-5.92188 3.78516m5.0586-3.23437l1.07031.60546m13.41797 2.01563l-6.54297-2.55469m13.875 3.50781l5.42188-4.46484m-4.63282 3.8164l-1.1328-.46874m13.8203 1.30078l5.09766-4.83203m-5.09766 4.83203l-2.32422-.77735m16.1211 1.20313l4.13672-5.6836m-4.13672 5.6836l-2.42969-.34375m15.53516.17969l4.55468-5.35547m-4.55468 5.35547l-2.39453-.52735m3.05859-.2539l-1.19922-.26172m13.41797.60156l5.41797-4.47266m-5.41797 4.47266l-2.26563-.9375m3.0547.28906l-1.13282-.46875m13.83203 1.3125l5.07422-4.86328m-5.07422 4.86328l-2.33203-.76953m15.78516.90625l4.79687-5.13672m-4.09766 4.39063l-1.18359-.32031m13.73438 1.0039l4.92968-5.01172m-4.92968 5.01172l-2.35157-.69922"/><g clip-path="url(#G)"><path fill="none" stroke="#000" stroke-linecap="round" stroke-linejoin="round" stroke-miterlimit="10" stroke-width=".5" d="M141.7539 456.40234l4.4922-5.40625"/></g><path fill="none" stroke="#000" stroke-linecap="round" stroke-linejoin="round" stroke-miterlimit="10" stroke-width=".5" d="M155.41797 456.65625l3.79297-5.91406m7.92969 2.55078l6.98046.8086m-5.96484-.6875l-.44922-1.14454m13.8711-1.16797l4.73437 5.19531m-4.04297-4.4414l.41016-1.15235m12.94922-.11718l3.26172 6.22656m-2.78516-5.32031l.6914-1.01172m13.58594-.28906l.38281 7.01562m-.32421-5.9961l1.05078-.6328m12.95312-.34766l-1.10937 6.9375m.94922-5.92969l1.16015-.39844m13.35938-.26953l-3.19922 6.25781m3.19922-6.2578l2.45312-.03907m10.65625-.0586l-2.78906 6.45313m2.38281-5.51562l1.22266-.09766m14.14062.61719l-6.0703 3.53906m5.1875-3.02344l1.04296.64453m12.10938 3.50391l-3.98047-5.78906m3.40234 4.94531l-.5664 1.08984m15.40234-1.20312l-5.86328-3.875m5.0078 3.3086l-.11327 1.22265m13.89453-.17188l-5.08594-4.84765m4.34766 4.14453l-.33203 1.17969m15.16406-1.75l-6.64453-2.29688m5.67578 1.96094l.1914 1.21094m14.23438-2.60938l-6.92969 1.17188m6.92969-1.17188l1.4961 1.9414m-2.50391-1.77343l.75.97266m13.60547-.90625l-6.9922.69921m6.9922-.69921l1.35937 2.04296m11.96484-1.9453l-7.01171.5078m7.01171-.5078l1.3047 2.07812m7.48046 1.53515l2.04688-6.72265m-1.75 5.7461l-1.20313.23437m13.21094.24609l4.0664-5.73047m-3.47265 4.89844l-1.21875-.15625m13.30078.40625l5.34766-4.5625m-5.34766 4.5625l-2.28125-.90235m15.82031 1.13672l4.89844-5.03515m-4.89844 5.03515l-2.35547-.68359m3.06641-.04688l-1.17578-.34375m13.65625.94922l5.14844-4.78125m-5.14844 4.78125l-2.32031-.80468m3.0664.10937l-1.15625-.40234m13.08203.11718l6.4336-2.82421m-6.4336 2.82421l-1.92578-1.51953m2.85938 1.10938l-1.92188-1.51953m14.73828 2.66406l5.5625-4.28906m-5.5625 4.28906l-2.23437-1.01172m3.04297.38672l-2.23438-1.01172m14.92578 1.85938l5.19141-4.73438m-5.1914 4.73438l-2.3086-.82422m3.0664.13672l-1.15624-.41407"/><g clip-path="url(#H)"><path fill="none" stroke="#000" stroke-linecap="round" stroke-linejoin="round" stroke-miterlimit="10" stroke-width=".5" d="M146.35938 442.98828l-4.71875-5.20703"/></g><path fill="none" stroke="#000" stroke-linecap="round" stroke-linejoin="round" stroke-miterlimit="10" stroke-width=".5" d="M145.67188 442.23047l-.41407 1.15234m13.46485.21875l-2.8125-6.4375m2.40234 5.5039l-.76172.96095m12.30469.18359l1.54687-6.85547m10.73047.41797l3.625 6.01953m14.3789-5.03125l-5.75 4.03906m5.75-4.03906l2.1875 1.10938m10.77345-1.53516l-5.04297 4.89063m5.04297-4.89063l2.33593.7539m9.3086-1.71484l-1.70313 6.8164m1.45703-5.82812l1.1875-.29296m14.20703.4453l-5.37109 4.53126m4.58984-3.8711l1.14063.45704m13.5664-.07032l-6.58984 2.4375m6.58985-2.4375l1.83203 1.63282m11.67187-.84766l-6.97265.8711m6.97265-.8711l1.41407 2.0039m11.62109-.1328l-6.41016-2.875m6.41016 2.875l.16406 2.44921m12-1.03515l-4.10547-5.70313m4.10547 5.70313l-1.08594 2.20312m15.20704-3.01172l-5.71875-4.08594m5.71875 4.08594l-.32422 2.4336m14.23047-3.8086l-6.90235-1.33594m6.90235 1.33594l.71875 2.34766m12.42968-1.76953l-6.57031-2.4922m6.57031 2.4922l.3086 2.4375m-1.26563-2.80078l.15625 1.21875m13.67969-.04297l-5.69531-4.11328m5.6953 4.11328l-.33202 2.42968m-.4961-3.03125l-.16796 1.21875m14.23437-.51562l-5.54297-4.3164m5.54297 4.3164l-.42187 2.41797m-.38282-3.04688l-.42187 2.41797m13.375-.82422l-3.21094-6.25m2.7461 5.33985l-.69922 1.0078m13.5664.22267l-1.38672-6.89063m1.1875 5.88672l-.94922.78125m11.69922-.38281l4.14453-5.67578m-3.54296 4.84765l-1.21485-.17187m13.1914.26953l5.6172-4.21875m-5.6172 4.21875l-2.22265-1.03906m16.09766 1.6289l4.5-5.39844m-4.5 5.39844l-2.40235-.5039m3.0547-.28125l-1.19923-.25m13.10157.14843l6.01953-3.625m-6.01953 3.625l-2.10547-1.26172m2.98047.73438l-2.10547-1.26172m14.61718 1.90625l5.875-3.85547m-5.875 3.85547l-2.15234-1.17969m3.00781.61719l-2.15234-1.17969m14.79297 1.99219l5.51562-4.35547m-5.51562 4.35547l-2.2461-.98828m3.04688.35156l-2.2461-.98437"/><g clip-path="url(#I)"><path fill="none" stroke="#000" stroke-linecap="round" stroke-linejoin="round" stroke-miterlimit="10" stroke-width=".5" d="M145.33203 430.32031l-2.66406-6.5039"/></g><g clip-path="url(#J)"><path fill="none" stroke="#000" stroke-linecap="round" stroke-linejoin="round" stroke-miterlimit="10" stroke-width=".5" d="M144.94531 429.375l-.78515.9414"/></g><path fill="none" stroke="#000" stroke-linecap="round" stroke-linejoin="round" stroke-miterlimit="10" stroke-width=".5" d="M159.21094 430.02734l-3.78906-5.91797m3.23437 5.0586l-.60156 1.0664m15.88672-1.99218l-6.6211-2.34766m5.65625 2.00781l.1836 1.21094M187 425.33203l-6.10938 3.47266m5.21875-2.96875l1.03907.65625m13.625.48828l-7.02735.17578m6.00391-.15234l.60547 1.0703m13.57031-2.0703l-6.69922 2.1289m5.72266-1.8164l.8789.85547m13.52735-.67579l-6.9336 1.14454m6.9336-1.14454l1.49219 1.94922m11.85547-1.70312l-6.9961.65234m6.9961-.65234l1.35156 2.04687m11.95312-1.30078l-6.97656-.83984m6.97656.83984l.88672 2.28906m12.4336-2.32812l-6.98438-.76172m6.98438.76172l.91015 2.27734m12.03906-1.05469l-6.2539-3.20703m6.2539 3.20703l.03516 2.45313m11.8789-.9961l-3.45312-6.12109m3.45313 6.1211l-1.32032 2.0664m14.42188-1.95312l-3.02344-6.34766m3.02344 6.34766l-1.46094 1.96875m15.1914-2.20313l-3.85546-5.875m3.29297 5.01953l-.58594 1.07422m14.51953-.25781l-3.96875-5.80078m3.96875 5.80078l-1.13281 2.17188m14.35547-2.10938l-3.78125-5.92578m3.78125 5.92578l-1.20703 2.13672m14.4375-2.08594l-3.61328-6.02734m3.61328 6.02734l-1.26563 2.10156m15.72266-3.20312l-5.89453-3.82422m5.03515 3.26953l-.10547 1.21875m13.94922-.23047l-5.23437-4.6914m4.47265 4.0078l-.29687 1.19142m14.20312-.33204l-4.89453-5.04297m4.89453 5.04297l-.75 2.33594m9.38672-2.14453l4.46485-5.42578m-4.46485 5.42578l-2.40625-.48438m14.65235-1.01953l6.59765-2.41797m-6.59765 2.41797l-1.82422-1.63672m2.78515 1.28516l-.91406-.82031m13.50781 1.6875l6.1211-3.44922m-6.1211 3.44922l-2.0664-1.32031m2.95703.8203l-2.0664-1.32421m14.69921 2.14844l5.70703-4.09766m-5.70703 4.09766l-2.20312-1.08594m3.03125.49219l-2.19922-1.08985m14.92187 1.98047l5.23047-4.6914m-5.23047 4.6914l-2.30468-.84375m3.0664.16016l-2.30469-.84375"/><g clip-path="url(#K)"><path fill="none" stroke="#000" stroke-linecap="round" stroke-linejoin="round" stroke-miterlimit="10" stroke-width=".5" d="M146.1836 416.5039L141.8164 411"/></g><path fill="none" stroke="#000" stroke-linecap="round" stroke-linejoin="round" stroke-miterlimit="10" stroke-width=".5" d="M145.54688 415.70313l-.48829 1.125m15.44922-1.60938l-6.38672-2.92969m5.45703 2.5039l.07422 1.22266m14.48047-2.0078L167.125 413.5m5.98828.4336l.5 1.12109m13.66797-.19532l-6.67188-2.21093m5.69922 1.89062l.20703 1.20703m14.16797-1.1953l-6.84375-1.59767m5.84766 1.3672l.3125 1.1875m13.07813.71093l-5.00391-4.92969m4.27734 4.21094L212 416.67578m15.00781-4.54297l-6.23437 3.23828m5.32812-2.76562l1.01172.69531m12.60156 2.91016l-5.01953-4.91406m4.28906 4.19921l-.34375 1.17579m14.57813-.66797l-5.39453-4.5m5.39453 4.5l-.5039 2.40234m14.1328-2.83984l-6.02343-3.625m6.02344 3.625l-.13282 2.44922m12.77344-1.63672l-4.67578-5.25m4.67578 5.25l-.85156 2.30078m13.96094-2.13281l-4.26172-5.58594m4.26172 5.58594l-1.02735 2.23046m12.33594-1.51171l-.25-7.02344m.25 7.02344l-2.125 1.22656m15.67188-1.24219l-.71485-6.99219m.71485 6.99219l-2.03516 1.36719m15.64844-1.41406l-1.3125-6.90235m1.3125 6.90235l-1.91016 1.53906m14.57031-1.47656v-7.02735m0 7.02735l-2.16797 1.15234m17.16016-1.57813l-3.35547-6.17187m2.86719 5.27344l-.67578 1.02343m13.20312.27735l-.80468-6.98047m.6875 5.96484l-1.00782.69922m13.3086.26563l1.46093-6.875m-1.46093 6.875l-2.35938.67578m14.78125-1l3.2461-6.23047m11.14062-.35156l1.10547 6.9375m-.94531-5.9297l.97656-.73827m9.80469 1.25l5.84765 3.89844m-4.9961-3.33204l.1211-1.21875m13.3086-.3164l3.91797 5.83203m-3.91797-5.83203l1.15234-2.16406m10.91016 6.5039l6.42187-2.84765m-6.42187 2.84765l-1.9336-1.51172m2.86719 1.09766l-.96484-.75781m13.15234.60937l6.8125-1.71875m-6.8125 1.71875l-1.64844-1.82031m2.63672 1.57031l-.82031-.91015"/><g clip-path="url(#L)"><path fill="none" stroke="#000" stroke-linecap="round" stroke-linejoin="round" stroke-miterlimit="10" stroke-width=".5" d="M147.27344 401.71094l-6.54688-2.54688"/></g><path fill="none" stroke="#000" stroke-linecap="round" stroke-linejoin="round" stroke-miterlimit="10" stroke-width=".5" d="M146.32031 401.34375l.14453 1.21484m13.8086-.22265l-5.91406-3.79688m5.05078 3.2461l-.09766 1.22265m14.27344-.67187l-5.91406-3.79688m5.91406 3.79688l-.19922 2.44531m13.42578-6.3711l-5.73438 4.0586M185.98048 399l1.09375.55078m9.7461-2.59765l.8789 6.97265m-.8789-6.97265l2.0078-1.41407m8.23829 4.70313l7.01562.39453m-5.99219-.33985l-.51562-1.11328M225.0625 403.75l-2.34375-6.625m2.0039 5.66016l-.82812.90625m15.6914-.67188l-4.76171-5.16406m4.07031 4.41406l-.40625 1.15625m13.0039.39063l-1.9414-6.75391m1.9414 6.7539l-1.76562 1.70313m1.48047-2.6875l-.8789.85156m15.48828-.34375l-3.96485-5.80078m3.39063 4.95703l-.57031 1.08594m13.5-3.14453l-.01954-.19922-.05859-.1914-.09375-.17579-.45703-.3789-.1914-.05469-.19923-.02344-.19921.02344-.19532.05469-.45703.3789-.09375.17579-.0586.1914-.01952.19922.01953.19922.0586.1914.09374.1797.45703.375.19532.05859.19921.01953.19922-.01953.1914-.0586.45704-.375.09375-.17969.0586-.1914.01953-.19922m12.73437 3.48828l-.8789-6.97265m.75 5.95703l-1 .70703m12.57812.03125l2.85156-6.42188m-2.4375 5.48828l-1.22265.08594m13.96875.77344l3.16015-6.27344m-3.16015 6.27344l-2.45313.05469m15.96875.03906l2.76172-6.46094m-2.36328 5.52344l-1.21875.10156m16.10547 1.07031l-1.1797-6.92578m1.00782 5.91797l-.97265.75m11.09375-1.05078l5.55078-4.3086m-5.55078 4.3086l-2.23829-1.00781m15.41797.82422l5.82032-3.94141m-4.97266 3.36719l-1.08203-.57422m12.96094-1.15235l6.99609.66016m-6.9961-.66015l-.9414-2.26563m14.25 2.35547l7.01172.47656m-7.01172-.47656l-1.0039-2.23828m15 .39062l5.64843 4.17578m-4.82812-3.5703l.18359-1.21095m14.30078-.72265l1.66797 6.82812m-1.66797-6.82812l1.83203-1.63281m-1.58984 2.6289l.91797-.8164m10.95312.37109l4.07422 5.72656m-4.07422-5.72656l1.10156-2.19531m-.5078 3.02734l.55077-1.09375m11.2539 1.22266l5.90626 3.80859m-5.90625-3.8086l.20703-2.4453m.65234 3l.10547-1.22266m12.07032 1.19922l6.46875 2.74218m-6.46875-2.74218l-.21485-2.44532"/><g clip-path="url(#M)"><path fill="none" stroke="#000" stroke-linecap="round" stroke-linejoin="round" stroke-miterlimit="10" stroke-width=".5" d="M146.32813 389.75781l-4.65625-5.26562"/></g><path fill="none" stroke="#000" stroke-linecap="round" stroke-linejoin="round" stroke-miterlimit="10" stroke-width=".5" d="M145.64844 388.98828l-.42969 1.15235m14.72656-.69141l-5.26172-4.65235m5.26172 4.65235l-.57031 2.38672M174.08594 386.5l-6.91406 1.2461m5.91015-1.06641l.75781.96484m12.41407-3.16797l-4.6172 5.29297m4.6172-5.29297l2.39062.55469m11.3086-.16797l-5.38282 4.51953m5.38281-4.51953l2.27344.92188m-3.0586-.26172l1.13673.45703m12.91406 3.45703l-5.28516-4.6289m5.28516 4.6289l-.5625 2.39063m-.20703-3.0625l-.28125 1.1953m15.23437-2.91796l-7.02343.16015m7.02343-.16015l1.20313 2.14062m11.70312-.41406l-6.20703-3.29297m13.67188 3.83594l5.4961-4.3789m-4.69923 3.74218l-1.125-.48828m14.71875 2.02734l3.34375-6.17968m-3.34375 6.17968l-2.45312-.01953m13.97656-2.46875l6.92578-1.20703m-5.91797 1.03125l-.7539-.96875m13.02343.8164l7.00391-.54687m-5.98828.46485l-.65625-1.03516m13.1875 2.1289l6.53906-2.57421m-6.53906 2.57422l-1.86719-1.59375m15.26953 1.79687l6.36328-2.98047m-6.36328 2.98047l-1.96094-1.47265m16.26954 2.73046l4.3789-5.49609m-3.74219 4.69531l-1.20703-.22265m15.41797 1.72656l1.3125-6.90235m-1.1211 5.89844l-1.17187.36328m11.44532-3.01171l7.01171.40625m-7.01171-.40625l-1.02735-2.23047m14.80078.68359l6.09375 3.4961m-5.20703-2.98829l.03906-1.22656m18.64063 1.01953l-6.40625 2.89453m6.40625-2.89453l1.9414 1.5039m11.21094-1.8164l-6.08203 3.52344m6.08203-3.52344l2.08203 1.29688m8.34375-3.04688l-.30468 7.01953m.30468-7.01953l2.21485-1.0586m12.60156 1.46876l-3.30469 6.20312m3.3047-6.20312h2.45312m-2.9336.90234h1.22656m11.98829-1.14844l-2.14844 6.69141m2.14844-6.6914l2.41796-.4336m-2.73046 1.40625l1.21093-.21484m11.64844-.91407l-.60547 7.00391m.60547-7.0039l2.25781-.95704m-2.34765 1.97656l1.1289-.48046m12.73047-.46875l-1.51562 6.86328m1.51562-6.86328l2.36328-.65625m-2.58593 1.65625l2.36718-.65625"/><g clip-path="url(#N)"><path fill="none" stroke="#000" stroke-linecap="round" stroke-linejoin="round" stroke-miterlimit="10" stroke-width=".5" d="M144.375 377.30078l-.75-6.98437"/></g><g clip-path="url(#O)"><path fill="none" stroke="#000" stroke-linecap="round" stroke-linejoin="round" stroke-miterlimit="10" stroke-width=".5" d="M144.375 377.30078l-2.03125 1.3789"/></g><path fill="none" stroke="#000" stroke-linecap="round" stroke-linejoin="round" stroke-miterlimit="10" stroke-width=".5" d="M159.0664 376.85547l-3.5-6.09375m3.5 6.09375l-1.30468 2.07812m16.28516-5.94921l-6.83204 1.64843m5.83594-1.41015l.8164.91796m13.5586-.80468l-6.96094.94531m6.96094-.94531l1.4336 1.98828m11.55468-3.0664l-6.30469 3.10156m6.3047-3.10157l1.98827 1.4336m11.28516-1.51172l-6.22656 3.25781m6.22656-3.25781l2.02734 1.38281m9.60547 3.45703l-2.85937-6.42187m2.4414 5.48828l-.7539.96484m16.5664-3.11719l-7.01953-.2539m7.01953.2539l1.07422 2.20704m12.0586-3.46094l-6.65625 2.25781m6.65625-2.25781l1.78515 1.67969m-2.7539-1.35157l.89453.83985m13.45312-.95313l-6.78515 1.82813m6.78515-1.82813l1.67578 1.79297m-2.66015-1.52734l.83594.89453m13.23437-1.78125l-6.32031 3.07031m6.32031-3.07031l1.98047 1.44531m9.88281-2.98047l-3.41797 6.14063m2.91797-5.2461l1.22656.02344m12.55079-.9375l-3.34375 6.17969m2.85937-5.28125l1.22656.00781m13.53125-.14453l-5.26172 4.65625m18.84375-.33985l-5.79296-3.97656m4.94921 3.39844l-.13671 1.21875m8.21875-1.13281l6.35937-2.99219m13.5664 2.2539l-6.86327-1.51562m6.86328 1.51563l.65625 2.36328m12.5664-2.03125l-6.67968-2.17969m6.67968 2.17969l.42578 2.41406m-1.39453-2.73047l.42188 2.41406m14.03515-3.23437l-7.02734.09375m7.02734-.09375l1.1836 2.14844m-2.20313-2.13672l1.17969 2.15234m-2.20312-2.13672l.58984 1.07422m14.73437-1.55469l-6.95703 1m6.95703-1l1.44922 1.98047m-2.46093-1.83594l.72265.9922m10.46094-4.13282l-.66797 6.99219m.57031-5.97656l1.13282-.46875m10.98046-.4297l1.92579 6.75782m-1.92579-6.75781l1.76954-1.70313m11.16796 1.83594l2.6836 6.49219m-2.6836-6.49219l1.5586-1.89453m-1.16797 2.83984l.78125-.94922m12.6211-.15625l1.73046 6.8125m-1.73047-6.8125l1.8125-1.64843m-1.5625 2.64062l.90625-.82422m12.7539-.26562l.53517 7.00781m-.53516-7.00781l2.07422-1.3125m-1.9961 2.33203l2.07422-1.3125"/><g clip-path="url(#P)"><path fill="none" stroke="#000" stroke-linecap="round" stroke-linejoin="round" stroke-miterlimit="10" stroke-width=".5" d="M143.19531 363.91406l1.60938-6.83984"/></g><path fill="none" stroke="#000" stroke-linecap="round" stroke-linejoin="round" stroke-miterlimit="10" stroke-width=".5" d="M158.32422 363.85938l-2.01953-6.73047m2.01953 6.73046l-1.7461 1.72657m17.48047-4.3164l-6.85547-1.5547m5.85547 1.32813l.32422 1.1836m13.92969-.73048l-6.73438-2.0039m5.75391 1.71094l.24219 1.20312m14.1289-2.61328l-6.88671 1.39844m6.88672-1.39844l1.55859 1.89453m11.75781-1.89063l-6.88672 1.39063m6.88672-1.39063l1.5586 1.89844M213.01563 360l.78125.94922m13.60546-.4336l-7.02734-.04296m7.02734.04296l1.14063 2.17188m-2.16016-2.17969l1.13672 2.17188m13.19531-2.03906l-7.01953-.29688m7.01953.29688l1.0625 2.21484m-2.08203-2.25781l1.0586 2.21484m13.16015-3.22656l-6.78906 1.8125m6.78906-1.8125l1.67188 1.79687m-2.66016-1.53125l.83594.89453m13.32031-1.60156l-6.49219 2.69531m6.4922-2.6953l1.89452 1.55858m-2.83984-1.16406l.94531.77735m13.53906-.375l-6.9414 1.10156m6.9414-1.10156l1.47657 1.96093m11.42187-3.14453l-6.10937 3.47266m6.10937-3.47266l2.07422 1.3125m11.33594-1.13672l-6.29688 3.1211m6.29688-3.1211l1.99219 1.4297m8.36328-3.37892L316.90625 364m.32422-5.9961l1.11328-.51562m9.63281.46875l4.86719 5.07031m13.67578-4.66796l-5.58594 4.26562m18.82813.09375l-5.4414-4.44922m5.4414 4.44922l-.48047 2.40625m-.3125-3.05469l-.23828 1.20313m15.0625-2.0586l-6.875-1.4453m6.875 1.4453l.6836 2.35938m12.3789-4.57031l-6.36719 2.97656m6.36719-2.97656l1.96094 1.47656m9.94922-3.01953l-3.5586 6.0625m3.5586-6.0625l2.44921.10547m9.08594-.58594v7.02734m0-7.02734l2.16797-1.15235m9.23047 1.72266l3.83594 5.88672m-3.83594-5.88672l1.1836-2.14844m11.37109 2.81641l5.35547 4.55078m-5.35547-4.55078l.52343-2.39844m.25391 3.0586l.26563-1.19532m12.97265-.09375l3.95313 5.8086m-3.95313-5.8086l1.14063-2.17187m-.56641 3.01562l.57031-1.08593m12.76953-.08594l2.75391 6.46484m-2.7539-6.46484l1.54296-1.91016m-1.14062 2.84766l.76953-.95313"/><g clip-path="url(#Q)"><path fill="none" stroke="#000" stroke-linecap="round" stroke-linejoin="round" stroke-miterlimit="10" stroke-width=".5" d="M143.61719 350.67188l.76562-6.98438"/></g><path fill="none" stroke="#000" stroke-linecap="round" stroke-linejoin="round" stroke-miterlimit="10" stroke-width=".5" d="M158.99219 350.26563l-3.35156-6.17579m3.35156 6.17579l-1.35547 2.04687m.86719-2.94531l-.6797 1.02344m15.76954-1.32813l-5.92969-3.76953m5.92969 3.76953l-.1875 2.44531m14.03125-4.71094l-6.98438.76172m6.98438-.76171l1.3789 2.03125m11.89844-2.29297l-6.91015 1.28515m6.91015-1.28515l1.52735 1.91796m11.83984-1.51953l-7.01172.48829m7.01172-.48829l1.29688 2.08204m-2.32032-2.01172l1.30078 2.08203m13.04297-1.98047l-7.02343.14844m7.02343-.14844l1.19922 2.14062m-2.21875-2.12109l1.19531 2.14063m-2.21875-2.1172l.59766 1.07032m14.70703-1.66406l-6.91797 1.2461m6.91797-1.2461l1.51563 1.92969m-2.52344-1.75l1.51953 1.92968m12.72266-2.46094l-6.7539 1.94922m6.7539-1.94921l1.70703 1.76562m-2.6914-1.48047l1.70702 1.76172m12.55078-2.17969L260.5 348.28516m6.67188-2.21485l1.77343 1.69531m-2.7461-1.37109l.88673.84766m13.48437-.86719l-6.83984 1.60547m6.83984-1.60547l1.61719 1.84375m11.78516-1.28516l-7.01172.48829m7.01172-.48829l1.29687 2.08204m10.83203-4.47657l-4.64062 5.27735m4.64062-5.27735l2.38672.5664m9.9375-1.17968l-2.66016 6.5039m2.27344-5.55859l1.21875-.12109m13.3789-.29297l-4.44921 5.4414m3.80078-4.64843l1.20313.24219m13.59765 3.40625l-6.125-3.4414m6.125 3.4414l-.05469 2.45312m13.25-2.2539l-5.88671-3.83594m5.88671 3.83594l-.21484 2.4414m-.64062-3l-.10938 1.21875m14.83594-2.91406l-6.9961.66797m6.9961-.66797l1.35156 2.04688m-2.3711-1.94922l.67579 1.02343m12.34765-3.53515l-4.375 5.4961m4.375-5.4961l2.41016.44531m-3.04687.35547l1.20703.22265m10.46484-1.78906l.1836 7.02735m-.1836-7.02735l2.13281-1.20703m-2.10937 2.23047l1.07031-.60547m11.23438-.2461l2.16015 6.6875m-2.16015-6.6875l1.70703-1.76171m-1.39453 2.73437l.85546-.8828m10.96094.5664l4.52735 5.375m-4.52735-5.375l.91797-2.27735m11.71875 3.04297l5.88672 3.83985m-5.03125-3.28125l.10937-1.22266m13.85938-.625l2.86719 6.41797m-2.44922-5.48438l.7539-.96484m13.82032-.26563l-.48828 7.01172m.48828-7.01171l2.24218-.9961"/><g clip-path="url(#R)"><path fill="none" stroke="#000" stroke-linecap="round" stroke-linejoin="round" stroke-miterlimit="10" stroke-width=".5" d="M145.82813 336.86328l-3.65625-6"/></g><path fill="none" stroke="#000" stroke-linecap="round" stroke-linejoin="round" stroke-miterlimit="10" stroke-width=".5" d="M145.82813 336.86328l-1.25 2.10938m.71875-2.98047l-.625 1.05469m15.11718-.69141l-4.94922-4.98438m4.94922 4.98438l-.72265 2.34375m.0039-3.07031l-.72656 2.34765M173.5 335.89062l-5.73828-4.05468m5.73828 4.05469l-.3125 2.43359m-.52344-3.02344l-.15625 1.21875m14.1875-.47265l-5.5-4.3672m5.5 4.3672l-.44531 2.41406m-.35547-3.04688l-.22266 1.20313m14.58204-.91797l-5.98828-3.67188m5.98828 3.67188l-.14844 2.44922m-.72266-2.98438l-.07422 1.22656m14.78125-2.57421l-7.02734.08984m7.02734-.08984l1.1797 2.15234m-2.20313-2.13672l1.17968 2.15235m-2.20312-2.14063l1.17969 2.15234m-2.19922-2.14062l.58984 1.07812m15.66016-2.01171l-6.76953 1.8828m6.76953-1.8828l1.6914 1.77734m-2.67578-1.5039l1.6914 1.77734m-2.67577-1.50391l1.6914 1.77734m-2.67578-1.5039l.84375.89062m15.16406-2.3789l-6.24609 3.21875m6.2461-3.21875l2.01562 1.39843m-2.92188-.92968l2.01563 1.39843m-2.92578-.92968l1.00781.69921m14.05469-1.76562l-6.10547 3.47656m6.10547-3.47656l2.07422 1.3125m-2.96485-.8086l2.07422 1.3125m11.67188-2.4453l-5.1914 4.73437m5.1914-4.73438l2.3125.82422m-3.0664-.13672l1.15624.41407m12.6875-1.33204l-4.73828 5.19141m4.73828-5.1914l2.375.60937m12 1.22656l-6.85937 1.52344m5.86328-1.30078l.79687.92969m13.59375-.58594l-7.01562.38672m7.01562-.38672l1.26953 2.10156m12.05079-1.98828l-7.02735.16406m7.02735-.16406l1.20312 2.13672m12.10938-2.21094l-7.01954.3125m7.01954-.3125l1.24609 2.10938m11.61328-.21875l-6.11328-3.46875m6.11328 3.46875l-.0664 2.45312m-.82032-2.95703l-.03515 1.22656m14.41796-1.08594l-6.47265-2.74218m6.47265 2.74219l.21094 2.4453m-1.15234-2.84374l.10547 1.22265m14.3828-2.75l-6.9375 1.10938m6.9375-1.10938l1.48048 1.95704m-2.48828-1.79688l.73828.97656m12.59375-3.07422l-4.95313 4.98438m4.95313-4.98438l2.34765.71094m-3.0703.01563l2.35155.70703m9.85938-2.39453l-1.30078 6.90625m1.30078-6.90625l2.33984-.73047m-2.53125 1.73437l1.17188-.36719m10.8789-.60546l1.60938 6.84375m-1.60938-6.84375l1.84766-1.6172m-1.61328 2.61329l1.84766-1.61719m12.98046.66016l-1.88671 6.76562m1.61328-5.78125l1.19922-.26562m14.54687 4.32031l-6.19922-3.3125m6.19922 3.3125l-.00781 2.45313m-.89453-2.9336l-.00782 2.45313m14.63282-3.41016l-7.01563-.4375m7.01563.4375l1.01172 2.23438m-2.03125-2.29688l1.01171 2.23438m12.84375-4.17188l-6.05468 3.5625"/><g clip-path="url(#S)"><path fill="none" stroke="#000" stroke-linecap="round" stroke-linejoin="round" stroke-miterlimit="10" stroke-width=".5" d="M466.58984 332.08203l2.08985 1.28125"/></g><g clip-path="url(#T)"><path fill="none" stroke="#000" stroke-linecap="round" stroke-linejoin="round" stroke-miterlimit="10" stroke-width=".5" d="M465.70703 332.60156l2.09375 1.28125"/></g><g clip-path="url(#U)"><path fill="none" stroke="#000" stroke-linecap="round" stroke-linejoin="round" stroke-miterlimit="10" stroke-width=".5" d="M147.13672 322.13281l-6.27344-3.16797"/></g><path fill="none" stroke="#000" stroke-linecap="round" stroke-linejoin="round" stroke-miterlimit="10" stroke-width=".5" d="M147.13672 322.13281l.05078 2.45313m-.96484-2.91406l.05078 2.45312m13.98437-1.65625L154.375 318.625m5.88281 3.84375l-.22265 2.44531m-.63282-3.0039l-.22265 2.4453m-.63672-3.0039l-.10938 1.22266m15.32032-.41797l-6.2461-3.21875m6.2461 3.21875l.03125 2.45313m-.94141-2.92188l.03125 2.45313m13.26953-.85547l-4.40234-5.47657m4.40234 5.47657l-.96484 2.2578m13.74219-1.89843l-3.32422-6.1914m3.32422 6.1914l-1.36329 2.03906m.87891-2.9414l-.67969 1.01953m15.70313-1.21094l-5.77344-4.0039m5.77344 4.0039l-.28516 2.4375m-.55469-3.01953l-.14062 1.21875m14.39453-4.49219l-5.97266 3.70313m5.97266-3.70313l2.1211 1.23828m-2.98829-.69921l2.1211 1.23437M240 318.41797l-5.58984 4.25781M240 318.41797l2.23047 1.02734m-3.04297-.40625l2.23047 1.02344m-3.04297-.40625l1.11328.51563m13.85547-1.71485l-5.64453 4.1836m5.64453-4.1836l2.21484 1.05469m-3.03515-.44531l2.21484 1.05078m11.13672-2.42969l-4.07813 5.72266m4.07813-5.72266l2.4336.32031m-3.02735.51172l2.4336.32031m10.52343-1.6328l-2.17578 6.68358m2.17578-6.68359l2.41797-.42578m-2.73438 1.39844l1.20704-.21094m13.76562.04297l-4.85937 5.07422m4.15234-4.33594l1.1836.33203m13.91406 1.69922l-7.01172-.46875m7.01172.46875l1.0078 2.23828m11.91017-.83594l-6.21485-3.27343m6.21485 3.27343l.01171 2.45313m-.91406-2.92969l.0039 1.22656m14.60548-2.07812l-7-.61328m7 .61328l.96093 2.25781m-1.97656-2.34765l.95703 2.2578m13.30078-1.6953l-6.85156-1.5586m6.85156 1.5586l.64063 2.36718m-1.63672-2.59375l.64063 2.36719m13.74218-2.60156l-6.9961-.63672m6.9961.63672l.95313 2.26172m-1.96875-2.35547l.47265 1.13281m13.52735-2.88281l-6.33203 3.04687m6.33203-3.04687l1.97656 1.45312m-2.89844-1.00781l.98828.72656m12.35157-2.32812l-4.53907 5.36328m4.53907-5.36328l2.39843.51953m-3.05859.25781l2.39844.52344m10.29687-1.99219l-1.98047 6.74219m1.98047-6.74219l2.40235-.4961m-2.69141 1.47657l2.40234-.49219m11.14454-.5039l-1.8672 6.77343m1.8672-6.77343l2.39453-.53516m-2.66407 1.51953l2.39454-.53125m13.17187.97656l-5.83203 3.91797m5.83203-3.91797l2.16406 1.15235m10.67188 3.33594l-4.8711-5.0625m4.8711 5.0625l-.76172 2.33203m.05469-3.06641l-.76563 2.33203m15.76172-4.97265l-6.82031 1.6914m6.82031-1.6914l1.64063 1.82421m-2.63282-1.57812l.82031.91015m12.00782-3.24609l-3.85938 5.8711"/><g clip-path="url(#V)"><path fill="none" stroke="#000" stroke-linecap="round" stroke-linejoin="round" stroke-miterlimit="10" stroke-width=".5" d="M465.49219 317.61328l2.4414.22656"/></g><path fill="none" stroke="#000" stroke-linecap="round" stroke-linejoin="round" stroke-miterlimit="10" stroke-width=".5" d="M464.92969 318.46484l2.44531.23047m-3.00781.625l2.44531.22656"/><path fill="#00f" fill-rule="evenodd" d="M445.9375 467.64844h8.61719V457.5039h-8.61719v10.14453"/><path fill="azure" fill-rule="evenodd" d="M447.76953 459.33594h.83203v2.82422h3.28906v-2.82422h.83204v6.48047h-.83204v-2.91797h-3.28906v2.91797h-.83203v-6.48047"/><path fill="#ff3030" fill-rule="evenodd" d="M206.96094 454.33203h7.6914V444.1875h-7.6914v10.14453"/><path fill="azure" fill-rule="evenodd" d="M208.79297 446.01953h.83203v5.73828h3.19531V452.5h-4.02734v-6.48047"/><path fill="#00f" fill-rule="evenodd" d="M210.70313 414.38672h8.62109v-10.14453h-8.6211v10.14453"/><path fill="azure" fill-rule="evenodd" d="M212.53906 406.07422h.83203v2.82422h3.28516v-2.82422h.83203v6.48047h-.83203v-2.91406h-3.28516v2.91406h-.83203v-6.48047"/><path fill="#ff3030" fill-rule="evenodd" d="M384.4961 414.38672h7.6914v-10.14453h-7.6914v10.14453"/><path fill="azure" fill-rule="evenodd" d="M386.32813 406.07422h.83203v5.74219h3.1953v.73828h-4.02733v-6.48047"/><path fill="#ff3030" fill-rule="evenodd" d="M211.39844 370.0039h7.6914v-10.14452h-7.6914v10.14453"/><path fill="azure" fill-rule="evenodd" d="M213.23047 361.6914h.83594v5.73829h3.1914v.74219h-4.02734v-6.48047"/><path fill="#ff3030" fill-rule="evenodd" d="M317.91797 370.0039h7.69531v-10.14452h-7.69531v10.14453"/><path fill="azure" fill-rule="evenodd" d="M319.7539 361.6914h.83204v5.73829h3.1914v.74219h-4.02343v-6.48047"/><path fill="#ffffe0" fill-rule="evenodd" d="M425.64453 427.9336h22.1836v-10.19141h-22.1836v10.1914"/><path fill-rule="evenodd" d="M429.14453 419.57422h.51172v6.29687h-.78906v-4.49218h-1.38672v-.5547l.5586-.0625.2539-.05468.22656-.08984.20313-.14063.17578-.21094.14062-.29687.10547-.39453m4.8164 0l.22657.01953.21875.05469.21094.08984.19531.1211.1836.15234.17187.17187.30078.42188.24219.49219.17969.54687.11328.57813.03906.59375-.03906.59375-.11329.58203-.17968.55469-.24219.5-.30078.42968-.17188.17969-.18359.15234-.19531.125-.21094.08985-.21875.0586-.22656.01952-.23047-.01953-.21875-.0586-.20703-.08984-.19922-.125-.1836-.15234-.17187-.17969-.30078-.42969-.24219-.5-.17969-.55468-.11328-.58203-.03906-.59375h.83594l.02734.5625.08203.5039.125.44531.16406.375.19141.30079.21094.21875.22265.13671.22657.04688.22656-.04688.22266-.13671.21093-.21875.1875-.30079.16407-.375.125-.4453.08203-.50391.03125-.5625-.03125-.5625-.08203-.5-.125-.4375-.16407-.36329-.1875-.29296-.21093-.21485-.22266-.13281-.22656-.04297-.22656.04297-.22266.13281-.21094.21485-.1914.29296-.16407.36329-.125.4375-.08203.5-.02734.5625h-.83594l.03906-.59375.11328-.57813.1797-.54687.24218-.4922.30078-.42187.17188-.17187.18359-.15235.19922-.12109.20703-.08984.21875-.05469.23047-.01953m5.08984 0h.50781v6.29687h-.78515v-4.49218h-1.39063v-.5547l.5625-.0625.25-.05468.23047-.08984.20313-.14063.17578-.21094.14062-.29687.10547-.39453M441.875 421.75h.78516l.01953-.3164.0586-.28516.10155-.2539.14063-.21485.17969-.17188.22265-.1289.26563-.08204.3086-.02734.23827.01953.22266.0625.20312.10156.1797.14063.14843.17188.11328.20703.07422.23437.02344.26563-.01954.26953-.0664.22265-.11328.19141-.15235.17188-.20312.16406-.2461.16406-.6328.39063-.53907.3125-.4375.3164-.34375.32422-.26563.33594-.1914.35156-.125.3711-.0664.39062-.02344.42187h4.21484v-.74218h-3.33594l.08594-.28516.11328-.23438.14844-.20312.1875-.17969.23047-.17187.27734-.17578.71875-.41407.41406-.20703.34375-.23047.28125-.25.22266-.26953.16015-.27734.11329-.28516.0625-.28515.01953-.28125-.03906-.38282-.1211-.34765-.1914-.3086-.25-.26171-.30079-.21094-.34765-.16016-.3789-.09765-.40626-.03516-.4336.03515-.39843.09766-.35547.16797-.30469.23438-.25.30078-.18359.375-.11719.4453-.03906.51954"/><path fill="#ffffe0" fill-rule="evenodd" d="M310.67578 327.75781h22.17969v-10.1914h-22.17969v10.1914"/><path fill-rule="evenodd" d="M314.17578 319.39844h.50781v6.29687h-.78515v-4.49219h-1.39063v-.55468l.5586-.0664.2539-.05079.23047-.08984.20313-.14454.17187-.20703.14453-.29687.10547-.39453m4.8125 0l.23047.01953.21875.05469.20703.08984.19531.1211.1836.14843.17187.17578.30469.42188.24219.49219.17969.54687.10937.57813.03906.58984-.03906.59375-.10938.58594-.17968.55468-.24219.5-.30469.4297-.17187.17968-.1836.15234-.1953.125-.20704.08985-.21875.05859-.23047.01953-.23047-.01953-.21875-.0586-.20703-.08984-.19531-.125-.1836-.15234-.17187-.17969-.30469-.42969-.24219-.5-.17968-.55468-.10938-.58594-.03906-.59375h.83203l.03125.5664.07813.50391.1289.4414.16016.375.1914.30079.21094.22265.22266.13672.22656.04688.22656-.04688.22266-.13671.21094-.22266.1914-.30078.16016-.375.1289-.4414.08204-.50392.02734-.5664-.02734-.5586-.08203-.5-.12891-.4375-.16016-.36328-.1914-.29296-.21094-.21485-.22266-.13281-.22656-.04297-.22656.04297-.22266.13281-.21094.21485-.1914.29296-.16016.36329-.1289.4375-.07813.5-.03125.55859h-.83203l.03906-.58985.10938-.57812.17969-.54688.24218-.49218.30469-.42188.17188-.17578.18359-.14844.19531-.12109.20703-.08984.21875-.0547.23047-.01952m5.08985 0h.51171v6.29687h-.78906v-4.49219h-1.38672v-.55468l.5586-.0664.2539-.05079.23047-.08984.20313-.14454.17187-.20703.14063-.29687.10546-.39453m2.82422 2.17578h.78907l.01953-.3164.0586-.28516.09765-.25391.14062-.21484.1836-.17579.22265-.1289.26563-.07813.30469-.02734.23828.01953.22656.0625.20312.10156.1797.14063.14843.17187.11328.20704.07031.23437.02735.26563-.02344.26953-.0664.22265-.10938.1914-.15625.17188-.19922.16407-.2461.16406-.63671.39062-.53516.3125-.4375.31641-.34766.32422-.26562.33594-.1875.35156-.125.3711-.07031.39062-.01954.42187h4.21094v-.74219h-3.33203l.08203-.28515.11328-.23438.14844-.20312.1875-.17969.23047-.17187.27734-.17579.71875-.41796.41407-.20313.34765-.23047.28125-.2539.21875-.26563.16406-.27734.10938-.28516.0664-.28515.01954-.28125-.04297-.38282-.1211-.34765-.1875-.3086-.25-.26172-.30468-.21484-.34375-.15625-.3789-.09766-.41017-.03515-.43359.03125-.39844.10156-.35546.16406-.3047.23438-.24609.30469-.1875.375-.11328.4453-.04297.51954"/><path fill="#ffffe0" fill-rule="evenodd" d="M159.76953 342.65234h22.1836v-10.1914h-22.1836v10.1914"/><path fill-rule="evenodd" d="M163.26953 334.29297h.51172v6.29687h-.78906v-4.49218h-1.38672v-.5547l.5586-.0625.2539-.05468.22656-.08984.20313-.14063.17578-.21094.14062-.29296.10547-.39844m4.8164 0l.22657.01953.21875.05469.21094.08984.19531.1211.1836.15234.17187.17578.30078.41797.24219.49219.1836.54687.10937.57813.03906.59375-.03906.59375-.10938.58203-.1836.55469-.24218.5-.30078.42968-.17188.17969-.18359.15234-.19531.125-.21094.08985-.21875.0586-.22656.01952-.23047-.01953-.21875-.0586-.20703-.08984-.19922-.125-.1836-.15234-.17187-.17969-.30078-.42969-.24219-.5-.17969-.55468-.11328-.58203-.03906-.59375h.83594l.02734.5625.08203.5039.125.44531.16406.375.19141.30079.21094.21875.22266.13671.22656.04688.22656-.04688.22266-.13671.21093-.21875.1875-.30079.16407-.375.125-.4453.08203-.50391.03125-.5625-.03125-.5625-.08203-.5-.125-.4336-.16407-.36719-.1875-.29296-.21093-.21485-.22266-.1289-.22656-.04688-.22656.04688-.22266.1289-.21094.21485-.1914.29296-.16407.3672-.125.43359-.08203.5-.02734.5625H166l.03906-.59375.11328-.57813.1797-.54687.24218-.4922.30078-.41796.17188-.17578.18359-.15235.19922-.12109.20703-.08984.21875-.05469.23047-.01953m5.08984 0h.50781v6.29687h-.78515v-4.49218h-1.39063v-.5547l.5625-.0625.25-.05468.23047-.08984.20313-.14063.17578-.21094.14062-.29296.10547-.39844M176 336.46875h.78516l.01953-.3164.0586-.28516.10155-.2539.14063-.21485.17969-.17188.22265-.1289.26563-.08204.3086-.02734.23827.02344.22266.0625.20312.10156.1797.13672.14843.17188.11328.20703.07422.23437.02344.26563-.01953.26953-.06641.22265-.11328.19532-.15235.16796-.20312.16407-.2461.16406-.6328.39063-.53907.3125-.4375.3164-.34375.32422-.26563.33594-.1914.35156-.125.3711-.0664.39062-.02345.42187h4.21485v-.74218h-3.33594l.08594-.28516.11328-.23438.14844-.20312.1875-.17969.23047-.17187.27734-.17578.71875-.41407.41406-.20703.34375-.23047.28125-.25.22266-.26953.16016-.27734.11328-.28516.0625-.28515.01953-.28125-.03906-.38282-.1211-.34765-.1914-.3086-.25-.26171-.30079-.21094-.34765-.16016-.3789-.09765-.40626-.03516-.4336.03515-.39843.09766-.35547.16797-.30469.23438-.25.30078-.18359.375-.11719.4453-.03906.51954"/></g></defs><use xlink:href="#W"/></svg>