<svg xmlns="http://www.w3.org/2000/svg" role="img" xmlns:xlink="http://www.w3.org/1999/xlink" viewBox="142.45 309.95 326.84 171.84"><defs><clipPath id="a"><path d="M144 441h1v39.32813h-1zm0 0"/></clipPath><clipPath id="b"><path d="M144 311.67188h1V433h-1zm0 0"/></clipPath><clipPath id="c"><path d="M144 311.67188h324v168.65625H144zm0 0"/></clipPath><clipPath id="d"><path d="M412 436h56v44.32813h-56zm0 0"/></clipPath><clipPath id="e"><path d="M467 311.67188h1v168.65625h-1zm0 0"/></clipPath><clipPath id="f"><path d="M144 477h3v3.32813h-3zm0 0"/></clipPath><clipPath id="g"><path d="M153 479h9v1.32813h-9zm0 0"/></clipPath><clipPath id="h"><path d="M168 476h5v4.32813h-5zm0 0"/></clipPath><clipPath id="i"><path d="M182 476h4v4.32813h-4zm0 0"/></clipPath><clipPath id="j"><path d="M195 477h5v3.32813h-5zm0 0"/></clipPath><clipPath id="k"><path d="M208 477h6v3.32813h-6zm0 0"/></clipPath><clipPath id="l"><path d="M221 477h6v3.32813h-6zm0 0"/></clipPath><clipPath id="m"><path d="M234 477h6v3.32813h-6zm0 0"/></clipPath><clipPath id="n"><path d="M247 477h7v3.32813h-7zm0 0"/></clipPath><clipPath id="o"><path d="M261 477h6v3.32813h-6zm0 0"/></clipPath><clipPath id="p"><path d="M275 476h4v4.32813h-4zm0 0"/></clipPath><clipPath id="q"><path d="M289 476h3v4.32813h-3zm0 0"/></clipPath><clipPath id="r"><path d="M302 476h3v4.32813h-3zm0 0"/></clipPath><clipPath id="s"><path d="M316 476h3v4.32813h-3zm0 0"/></clipPath><clipPath id="t"><path d="M327 478h7v2.32813h-7zm0 0"/></clipPath><clipPath id="u"><path d="M340 478h8v2.32813h-8zm0 0"/></clipPath><clipPath id="v"><path d="M353 478h8v2.32813h-8zm0 0"/></clipPath><clipPath id="w"><path d="M367 477h7v3.32813h-7zm0 0"/></clipPath><clipPath id="x"><path d="M380 477h7v3.32813h-7zm0 0"/></clipPath><clipPath id="y"><path d="M394 477h6v3.32813h-6zm0 0"/></clipPath><clipPath id="z"><path d="M408 477h5v3.32813h-5zm0 0"/></clipPath><clipPath id="A"><path d="M423 476h2v4.32813h-2zm0 0"/></clipPath><clipPath id="B"><path d="M434 477h6v3.32813h-6zm0 0"/></clipPath><clipPath id="C"><path d="M448 476h4v4.32813h-4zm0 0"/></clipPath><clipPath id="D"><path d="M460 477h7v3.32813h-7zm0 0"/></clipPath><clipPath id="E"><path d="M144 464h3v6h-3zm0 0"/></clipPath><clipPath id="F"><path d="M144 450h3v7h-3zm0 0"/></clipPath><clipPath id="G"><path d="M144 437h3v7h-3zm0 0"/></clipPath><clipPath id="H"><path d="M144 423h2v8h-2zm0 0"/></clipPath><clipPath id="I"><path d="M144 411h3v6h-3zm0 0"/></clipPath><clipPath id="J"><path d="M144 398h4v4h-4zm0 0"/></clipPath><clipPath id="K"><path d="M144 384h3v6h-3zm0 0"/></clipPath><clipPath id="L"><path d="M144 370h1v8h-1zm0 0"/></clipPath><clipPath id="M"><path d="M144 377h1v3h-1zm0 0"/></clipPath><clipPath id="N"><path d="M144 356h1v9h-1zm0 0"/></clipPath><clipPath id="O"><path d="M144 343h1v8h-1zm0 0"/></clipPath><clipPath id="P"><path d="M144 350h1v3h-1zm0 0"/></clipPath><clipPath id="Q"><path d="M144 330h2v8h-2zm0 0"/></clipPath><clipPath id="R"><path d="M144 336h2v4h-2zm0 0"/></clipPath><clipPath id="S"><path d="M466 331h2v3h-2zm0 0"/></clipPath><clipPath id="T"><path d="M465 332h3v3h-3zm0 0"/></clipPath><clipPath id="U"><path d="M144 318h4v5h-4zm0 0"/></clipPath><clipPath id="V"><path d="M465 317h3v1h-3zm0 0"/></clipPath><g id="W" clip-path="url(#clip1)"><path fill="#fff" fill-opacity="0" fill-rule="evenodd" d="M0 0h1000v1000H0zm0 0"/><path fill="#d3d3d3" fill-opacity="0" fill-rule="evenodd" d="M162.15234 355.86719l-.23437.29297.0586.23437.11718.17188.17578.23437.29297.34766.11328.0586.11719-.17188.0586-.23438.17577-.17578.46485-.17578h.69922l.23437.29297.28906.8164.0586.17579.17578.23046.35156.23438.69922.69922.17188.17578.23437.34765.23438.41016.28906.58203.41015.46485.23047.23437.23438.17578.11719.23047.17578.29297.17187 1.16406v.23438l.0586.28906.05859.11719.11719.11719.34765.41015.11719.17188.17578.17578.17578.23437.11719.17188.17188.35156.05859.23438.23437.40625.23438-.0586-.17578.17578-.0586.92969h-.58203l-.23437-.11328-.34766.11328-.11719.11719-.05859.29297-.0586.17578-.11718.17187-.46484.29297-.0586.23438-.0586.11328v.64453l.0586.17187v.41016l.0586.0586v.40624l.05859.40625.11719.17579.05859.05859.23047.64062-.0586.29297v.69922l-.05859.58203v.23438l-.0586.23047-.05468.35156v1.92187l.05469.1172h.42578l-.36719.11718-.02344.35156.89063 1.16797 1.74219.53906 1.33984.35938v.53906l.08984.8086.53516.71484 1.51953.26953.89063-.08594.08984 1.16406.53516.1797 1.16015-.1797 2.05469-.98437 1.16016-.36328 1.8789-.17578 1.69531-.1797-.17968.71876-1.51563.08594-1.25.08984-.80469.26953-1.07421.8086.26953.71875.53515.89843-.17968.625-.26563.8086.26563 1.07812.625.89844.80468.17969 1.25-.1797-.26562.72267.09766.5039.05468.29297v.17188l.0586.29296v.40625l.17578.1172.35156.11718h.40625l.29297-.17578.11328-.11719.0586-.11719.11718-.23047.0586-.17578.35156-.46484.23047-.17578.17578-.0586.17578.0586.0586.17578.11718.98828.05469.46875.0586.17188.11718.23437.17578.0586.8164.05859h.28907l.11719.23437.05859.40625.0586.35156v1.10547l.11718.29297.11719.34766.28906.69922.17578.35156.58203.7539.35157.17579.17187.0586.46875.23437.64063.46484.34765.23438.29297.17578.29297.05468.23047.0625.8164.34766.29297.17578.11328.17188.35157.35156.11719.17578.52343.64063v.28906l.0586.35156v.34766l.05859.35156.0586.28906.11718.0586.17188.05859h.17578l.58203.23437.17578.1172.17578.28905.17578.23438.11328.23437.29297.23047.11719.11719v.41016l.0586.05468.28906.23438.23437.11719.0586.11718.11718.17188.0586.11719.23047.23437.05859.17578.23437.0586.1172.05859-.1172.11328-.05859.11719v.11719l-.11719.29296-.11719.28907v.58203l.17579.11719.11718.05859.0586.11719.11719.11719.11328.05859.17578.34765.0586.35157.05858.40625v.17578l-.05859.17578-.11719.69922v.17187l.1172.17579.29296.29296h.40625l.17578.1172.11719.17187.11719.29296v.23438h-.52735l-.23047-.23438h-.23437l-.17578.0586-.0586.69922.0586.34765.11719.17579.17578.41015.11718.23047.28907.46875.17578.05469h.52344l.23437.0586.75781.64062.0586.29296v.23438l.05859.0586.23047.34765v.35156l-.11719.17188v.29297l.29297.28906.29297.17578.17187.0586.29297.17577.29297.1172.58203.40624.28906.23438.29297.17578.21875.16015.01563.01172.23047.17579.64062.52343.17578.23438.1172.17578.17577.17578.11328.17188v.64062l.1172.17578.46874.11719.58203.11719.23438.05859.23047.11328.29297.11719.11328.0586.58593.35156.28907.17187.17578.0625.17578.05469.17578.0586.69922.35155.28906.17579.23438.05468.28906.17578.23437.1172.64063.40624.29297.11719.17187.0586.23438.05859.41015.05859.23047.0586.23438.11718.0586.17188-.41017.17578.46875.0586.0586.29296.11328.23438.17578.05468.23438.0586.17578.05859.40625.11719.64062.23437.11719.17188.0586.23437v.17578l-.0586.1172-.0586.40624.23438.23438.11719.05859.34766.11719.64062.23047.17578.11718.28906.1172.17578.17577.23438.46485.58203 1.10546.17578.17579.34766.17578.17578.11719.35156.11718 1.04688.52344.23437.0586.46485.11327.29297.0586.46484.17578.75781.58203.23438.23438.34765.46484.17578.17578.28907.23438.8164.69921.29297.17579.28906.28906.29297.17578.29297.28906.69531.64063.17578.17578.29297.23437.28907.23438.46875.28906.64062.58203.34766.23438.23437.29297.34766.34765.35156.46485.9336.99218.34765.40625.11719.17579.23437.05859.11328.11719.64454.17578.23047.11328.23437.0586.29297.17577.23047.1172.9336.69921.40624.40625.23438.17578.40625.17578.23437.11719.8164.34766.34766.23437.23438.11719.29297.28906.23047.11719.7578.35156.35157.17188.23047.05859.29297.11719.23437.0586.8711.17577h.8164l.46875.23047.17188.0586.875.69921.46484.1172.29297.05858.17578.0586.23047.0586.46875.05859.34766.05859.35156.0586.40625.05859h.29297l.17187.0586v.23046l.17578.17578h.29297l.34766.0586.35156.05859.69922.11719h.64063l.46484-.23438.29297-.17578.17187-.11719.41016-.17187.28906-.17578.9336-.46485.46875-.29297.52343-.29296.46485-.17188.46484-.17578 1.05078-.46485.28906-.11718.41016-.11719.28906-.11719.52735-.17578 1.51562-.69922.58203-.34765.28907-.0586.29297-.0586.34765-.11718.875-.23047.35156-.11719h.11329l.23437-.05859.875-.23437.23438-.0586h.8125l.35156-.0586.8164-.11718.17188-.0586.35156-.05468.29297-.0586.23047-.05859.8164-.17578.17579-.0586h.34765l.23438-.05859.46484-.11718.75781-.17188.23438-.0586h.34765l.41016-.11718.28906-.0586 1.28516-.05859h.28906l.41016-.0586.23047-.05858h.17578l.875-.1172h.40625l.41015-.11718h.34766l.35156-.11328.8711-.0586h1.75l1.04687.28907.41016.11719.28906.11718.35156.11719.28907.11719 1.05078.17187.28906.0586h.29297l.29297.05859.17187.0586.41016.05859.17187.0586.1172.05858h.11718l.11719.0586.35156.0586h.11328l.41016.0664 1.92187.39453 1.92578.39453 1.51953.44922 1.69532.71875 2.14453.80469 1.60547-.71875 1.42968-.80469 1.16016-1.07813 1.25-.44921 3.03516-.71875 1.875-.35938 2.14453-1.34765 2.23437-1.25391 2.5-1.25781 1.69531-.44922 1.78516-.17969 1.16016-.26953.625.53906 1.33984-.26953.71485-.98828.98437-1.34375.44531-.17969.80469-.35937 1.875-.53907 1.78516-.44921 1.25-.26954 1.16015-.08984 1.69922-.08984 1.96094-.26954 1.25-.08984h.53906l.625-.08984h.89063l2.14453-.17969 2.41015-.17969 2.58985-.08984 1.69531.17969 1.60938.08984 1.42968.35938 1.16016.71875 1.875.98828 1.16015 1.52734.26563.71484.6289.08985.35548.89844.53515.53906.53516 1.52734 1.07422.35938h.53515l-.80469.53515.08985 1.70703.71484 2.69532.89063.80468.89453.98829.71484 1.2578 1.78516.53907 1.51953-.17969.35547 1.34375 1.60937-.80469.98047-.53906.26953.26953.31641-.21484.21875-.14453.80078.44922.44922-.35938h.35547l.53515-.26953.53907-.71875.53515-.26953.625-.98828 1.16016.44922.83984.3711 1.39454.61718 1.6953-.17969h1.60548l1.78515.08985.17969-1.70704.53516-1.34375.80468.26954.4922.84765.40233.40625-.08984.53906v.35938l.71485.44922.71093-.26953h1.42969l.35938.98828.4453 1.25781.71485 1.34375 1.25.6289 1.69531.62891.71485-.17969.17969-.53906.98046-.08984.44922.35937.08594 1.25782-.26563.6289-.53515.17969v.53906l.71484.98438.26563.53906.98437.98828.80078 1.07813-.26562.35937-.08985.89844-.625 2.33203-.35546 2.0664-.08985 1.79298-.17969.71875-.08984.53906v1.4375l-.98047 1.88281-.35937 1.70703-.53516.89844-.80469 1.16797-.26562.53906 2.05469 1.2539.08593.35938-.35546.53906-.08985-.17968v.80859l.08985 1.4375-.44532.71484-1.07422.09375-.26562.71485.53515.89844.8047.71875 1.16015.80859 1.33984.26953.44531.35938-.35546.44921-1.78907-.08984-1.25-.44922-.71484-.71875-.625-.08984-.17578 3.58984-.1875 1.3086h89.35937V311.70313h-55.26953v49.08203l.76172.125 3.28906.54296 2.02344 2.83594v2.7539l2.35156.33204 2.34766.33203h4.05078l-1.3789 4.16016-2.02344.70703-2.02344.70312-.54297.34375-2.59375 1.6172-.1875.11718-2.02344-2.07813-.73046-2.74218-2.67188-2.07813-1.375-3.5-.0664-.08203-1.95704-2.67188 2.75-1.41796v-49.08204H294.42187v91.41407l.1172.03125.1328.01172.07422.07421.10547.04688.08985.0586.08593.05859.08985.0586.29687.29687.0586.08984.03125.11719.02734.11719.01563.13671-.03125.1172-.0586.08983-.0586.08594-.04296.10547-.04688.10156-.02734.1211v.14453l.17578.26953.14844.14844.07422.08594.07422.07421.04296.10547.0625.08985.0586.08593.04297.10547.0586.08985.04687.10156.04296.10547.0586.08594.11719.17968.07421.07422.0625.08594.0586.08984.04297.10547.0586.08985.05858.08593.0625.08985.0586.08984.04297.10156.11719.17969.07421.07422.0586.08594.07422.07421.08984.0586.10547.04687h.14844l.1328-.01562.13282.01562.10156-.04687.07422-.07422.04688-.10156-.01563-.13281v-.14844l-.04687-.10547-.02735-.11719-.04687-.10156-.02735-.1211-.04296-.10156-.0625-.08984-.04297-.10156-.04297-.10547-.03125-.11719-.01563-.13281-.01171-.13672.08593-.0586.0586-.08593.12109-.03125.04297.10547.01562.1328v.1172l.0586.10156.0586.08984.08983.0586.14844.14843.0586.08985.04296.10547-.01171.10156.08593.0586.10547.04687.08594.0586.08984.05858.07422.07422-.11719.02735-.10546.04687-.08594.0586-.07422.07421-.0586.08985-.0625.08594-.02734.12109-.04687.10156-.04297.10547-.03125.11719-.01172.13281-.01563.13281v.14844l.02735.11719.04687.10547.04297.10156.0586.08984.07421.07422.08985.0586.07422.07421.08984.0586.0586.08984.04296.10547.04688.10156.11719.03125.1328.01563h.14845l.11718-.03125.10547.04297.04297.10547.04688.10156.02734.1211L299.5 410l.02734.11719.03125.1211.02735.11718.10547.04297.10156.04687.13281-.01562.14844.14844.0625.08593.07422.07422.07031.07422.08984.0625.10547.04297.10156.04297.1172.03125.13671.01562.11719-.03125.07422-.07422.02734-.11718-.01172-.13282-.03125-.12109-.02734-.11719.04297-.10547h.11719l.08984.0625.11719.02735h.14843l.13282.01562h.14843l.13282.01563.1328-.01563h.14845l.1328-.01562.13282-.01172.13672.01172.11719-.02735.13281-.01562.1914-.0586-.05859.17579-.01562.1328-.02735.1211-.01562.13281-.0586.08594-.1328.01563-.10548.04687-.10546.04297-.1172.03125-.11718.02735-.26563.03125h-.14843l-.13281.01562-.07422.07422.05859.08594.14844.14843.11719.1797.07421.0703.08985.0625.08984.0586.08594.0586.08984.05858.10156.04297.10547.0625.10547.04297.08594.0586.10547.04687.10156.04297.17969.11719.0586.08984-.04298.10156-.04687.10547.01562.13281.22266.22266.0586.08985.04296.10156.03125.1211.04297.10155.01563.13282.03125.11718.01171.13672.03125.11719.14844.14844.10156.04297.10547.04296.1172.03125.1328.01563.13672.01563h.11719l.11719-.03125.08984-.0586.04297-.10547.04688-.10156.04296-.10547.03125-.11719.01172-.1328v-.14845l-.01172-.1328-.01562-.13282-.03125-.11719-.04297-.10547-.04688-.10547-.04296-.10156-.04297-.10547-.01563-.13281.01563-.13281.02734-.11719.03125-.11719.02735-.1211.04687-.10155.08984-.0586.08594-.0625.07422-.07422.08984-.05859.22266-.22266.0586-.08593.07421-.07422.11719-.17969.0586-.08594v-.14844l-.07423-.07421-.10156-.04688-.10547-.04297-.10156-.04297-.0586-.08984-.04687-.10547-.02734-.11719.08984-.05859.11719-.03125.10156-.04297.17969-.11719.14844-.14843.01172-.13282-.01172-.10546-.08985-.0586-.1328.01563h-.14845l-.1328.01562-.13282-.01562-.1211-.03125-.08593-.0586-.07422-.07422-.0586-.08984-.0625-.08594-.11718-.17969-.0586-.08593.03125-.1211.08594-.05859.1211-.03125.05859-.08594v-.1211l-.03125-.11718-.0586-.08984-.05859-.08594-.04687-.10547-.02735-.11719-.01562-.1328.0586-.08985.07421-.07422.08984-.0586.1172-.17968.07421-.07422.0586-.08594.14843-.14844.1211-.03125.1328-.01562.13282.01562.07422.07422.04297.10547.01562.13281-.03125.1172-.11719.03124-.1328.01172-.14844.14844-.04297.10547-.04688.10156-.02734.1211-.03125.11718v.14844l.03125.11719.04297.10546.05859.08985.07422.07031.07422.07422.11719.03125.12109.02734.11719-.02734.1328-.01563h.1172l.08984.0586.07422.07422.04687.10546.0586.08594.10156.04688.13281.01562.10547.04297.08594.0586-.01172.10546-.07422.07422-.17969.11719-.05859.08984-.08984.0586-.07032.07422-.07421.07421-.0625.08985-.02735.11719-.01562.1328.01562.13282-.01562.13281v.14844l.01562.13281.02735.1172.03125.12108.07421.07422.08985.0586.08594.0586.08984.05858.11719.03125v.08594l-.10157.04688-.08984.0586-.26563.03124-.11718.02735h-.14844l-.10547.04296-.10156.04688-.0586.08984-.0625.23438-.01171.13281-.03125.1211-.01563.1328v.29298l-.01172.1328.01172.13673.01563.1328.1328.01563.13282.01172.1211.03125.08593.0586.07422.07421.04688.10547.04296.10157.01563.1328v.44532l-.01563.13281v.44532l.03125.26562.02735.11719.01562.13281.03125.11719.08594.21094.03125.26562v.14844l-.03125.11719-.02734.11718-.03125.1211-.02735.11719-.03125.11718-.03125.1211-.01171.1328-.01563.13282.08984.0586.1172-.03125.10155.01562.04688.10547-.03125.26562v.44141l-.04297.10547-.04688.10547-.04296.10156-.04297.10547-.0586.08594-.03125.12109-.04296.11719-.03125.11719-.01563.1328.01563.13282.05859.08984.10547.04688.08594.0586.05859.08593-.01172.13672-.03125.11719-.04297.10156v.44531l-.01562.13281v.14844l-.03125.11719-.04297.10547-.02735.11719-.04687.10546-.04297.10157-.03125.12109-.02734.11719-.03125.13281-.03125.11719-.02735.11719-.04297.10546-.03125.1172-.03125.12108-.01171.13282-.01563.13281v.29688l.02734.11718v.14844l.04688.39844.02734.11719.0586.08984.12109.03125h.14844l.13281-.01563.0586.08985v.11719l-.0586.08984-.08984.0586-.10157.04296-.10546.04688-.08985.05859-.08594.0586-.13671.01562-.1172-.03125-.1328-.01563-.10157.04688-.0625.08594-.01172.13671-.01562.13282-.03125.11719-.02735.11718-.01562.13281-.03125.1211v.29687l.01563.13282.03125.11718v.14844l.01171.13281v.14844l-.02734.11719-.04688.10156-.02734.1211-.03125.11718-.0586.08985-.07421.07421-.10156.04297-.10547.04688-.11719.02734-.1211.03125-.10156-.04687.0586-.08594.10547-.04688.02734-.11718.03125-.11719.02734-.1211.03125-.11718v-.14844l.01563-.13281-.03125-.11719-.04297-.10547-.10547.01563-.07422.07422-.10156.04296-.08984.0625-.07422.07422-.04297.10157-.01563.1328-.03125.1172L304.25 426l-.03125.11719-.02734.11719-.03125.12109-.02735.11719-.03125.11718-.04297.10547-.08984.0586h-.08984l-.1172-.03125-.03124-.08594.01562-.13672-.03125-.11719v-.14844l-.01171-.1328v-.14844l-.0625-.23438-.02735-.1211-.04297-.10156-.04687-.10546-.0586-.08594-.05859-.08985-.04297-.10546-.0625-.08594-.14844-.14844-.0703-.07422-.10548-.04687-.10547-.04297-.10156-.04297-.29687-.29688-.08985-.07421-.08594-.0586-.10546-.04297-.08985-.0625-.08594-.0586-.10546-.04296-.08985-.0586-.08594-.0625-.07421-.0703-.10547-.04688-.08594-.0586-.10547-.04296-.08984-.0625-.10156-.04297-.10547-.04297-.08594-.0586-.10547-.04687-.10547-.04297-.10156-.04687-.08985-.0586-.10156-.04297-.10547-.04296-.08984-.0625-.11719-.02735-.13281-.01562-.13281.01562H299.75l-.13281.01563-.11719-.03125-.08984-.0586-.07422-.07422-.08985-.05859-.10156-.04688h-.14844l-.12109-.02734-.10156-.04297-.07422-.07422-.11719-.17968-.08984-.0586-.10156-.04297-.08985-.0625-.10547-.04296-.08984-.0586-.08594-.0586-.10547-.04687-.0586-.08594-.05858-.08984-.04297-.10547-.04688-.10156-.07422-.07422-.08594-.0586-.07421-.07421-.08985-.0586-.22265-.22265-.04297-.10547-.03125-.26563.10547-.04296h.14453l.10547.04296.07421.07422.08985.0586.08594.0586.10546.04687.08985.05859.14844.14844.0703.07422.14845.14843.0625.08594.07421.07422.08594.0586.07422.07421.08985.0625.08984.0586.08594.05859.26953.17578.10156.04688.10547.04296.10156.04297.04688-.07421.05859-.08594.07422-.07422.07031-.07422.10547.04297.07422.07422.0586.08984.04296.10156.04688.10547.04296.10547.1211.02735.11719-.02735.07421-.08984.04297-.10547.0586-.08985.07422-.07421.10546-.04297.1172-.02735.1328.01172.08985.0586.14844.14843.05859.08985.04297.10547.04687.10156.04297.10547.04297.10156.10547.04688.10547.04296.13281.01563.08594-.0586.0586-.08984.07421-.07422.10547-.04297.11719.02735.10547.04687.10156.04297.10547.04297.10156.04688.17969.11718v.11719l-.01563.13281.01563.13281.01562.13672.0586.08594.10156.04688.1211.02734.11718.03125h.14844l.11719-.03125.05859-.08984.17969-.1172.05859-.08983.07422-.07422.0586-.08594.11718-.17969.17969-.11719.11719.03125.08984.0586.04297.07422-.01563.1328v.1172l.08985.05859h.14843l.13282-.01563.1328-.01171.26563-.03125.10547-.04297.11719-.03125.1211-.02735.07421-.07421.07031-.07422.0625-.08985-.01562-.10547-.04688-.10156-.10156-.04297-.10547-.01562-.11718.02734-.26563.03125h-.14844l-.07421-.07422-.08985-.0586-.11719-.03124-.11718-.02735-.13282-.01562h-.14843l-.13282.01563h-.29687l-.10547-.04688-.14844-.14844-.04297-.10156-.05859-.08984.22266-.22266.08593-.0586.10547-.04296.11719-.03125.13281-.01563.13281.01563.13672.01562.10157.04297.1328-.01172.08985-.0625.10156-.04297.0625-.08984-.04687-.10156-.08984-.0586-.1172-.03125-.10155-.04296-.0586-.08985-.0625-.08984v-.11719l.01563-.13281.10547-.04688.07421-.07031v-.1211l-.08984-.05859-.03125-.11719.08985-.05859.07421-.07422.04297-.10547.0586-.08984.04687-.10156.01563-.13281v-.14844l-.04688-.10547-.04297-.10156-.08984-.0586-.13281-.01562-.10157-.04297-.13671-.01563-.1172-.03125h-.4453l-.13282-.01562-.13281-.01172-.13281-.01563-.11719-.03125h-.14844l-.13281-.01562-.13281-.01172-.26563-.03125-.1211-.04297-.08593-.0586-.07422-.07421v-.14844l.01172-.13281.10547-.04688.10156-.04296.13281-.01563h.15235l.13281-.01562h.29297l.1211.03125.10156.04296.08984.0586.23438.0625.12109-.04688.08984-.05859.10156-.04297.13282-.01562.10547.04296.10156.04688.13281.01172.1211-.02735h.14453l.12109-.03125.11719-.02734.10547-.04687.07421-.07422.08594-.0586.14844-.14843.0586-.08594.04687-.10547.02734-.11719.01563-.10547-.10156-.04296-.08985-.0586-.11719-.03125-.10546-.04297-.08985-.0625-.07422-.08594-.07422-.07421-.10156-.04297-.10547-.04688-.10156-.04297-.0586-.08984-.04687-.10156-.08594-.21094-.0625-.08594-.05859-.08984-.07422-.07422-.08594-.0586h-.26953l-.11719.03126-.08984.05859-.10156.04297-.13281.01562-.10547-.01562-.02735-.11719-.0625-.08984-.11718-.03125-.10157-.04297-.14843-.14844-.03125-.11719-.01563-.10546.07422-.07422.17969-.1172.11719-.02733.11718-.03125.13672.01562.10156.04297.10547.04297.10156.04687.10547.04297.1172.03125.1328.01563.1172.02734.1328.01563.10547-.01563.08985-.0586-.07422-.07421-.10547-.04297-.07422-.07422-.07422-.08984-.14844-.14844-.08593-.0586-.08985-.05859-.07422-.07422-.08984-.0586-.10156-.04687-.1211-.02734-.10156-.04688-.10547-.04296-.11719-.03125-.10156-.04297-.1211-.03125h-.14843l-.11719.03125-.10546.04297-.08594.0625-.17969.11718-.08594.0586-.08984.0586-.10547.04687-.08594.05859-.10547.04297-.10156.04297-.10547.04687-.07422.07422-.05859.08985-.0586.08593-.04687.10547-.0586.08594-.07421.07422-.13281-.01172-.1172-.03125h-.11718l-.07422.07422-.08984.0586-.07422.07421-.08984.0586-.08594.05859-.10547.04687-.10156.04297-.13672.01563-.10156-.04297-.14844-.14844-.10547-.04688h-.08594l-.10547.04688-.10156.04297-.1211.03125-.11718-.03125-.07422-.07422v-.11719l.03125-.1211.07422-.0703.0586-.08985.07421-.07422.11719-.03125.10547-.04296h.29297l.13281-.01563.13672-.01563.10156-.04296.08985-.0586.10156-.04687.08984-.0586.13281-.01171.08985.05859.13281.01172.08984-.0586.08594-.05859.10547-.04297.08984-.0586.08594-.0625.08985-.05859.14843-.14843.0586-.08594.05859-.08985.10547-.04296.13281-.01563.11719.02735.1211.03125.05859-.0586.05859-.08984.03125-.26563.02734-.11719.10547.01172.13281.01563.10157-.04297.08984-.0586.0586-.08984.07421-.07422.0586-.08984.04687-.10156.01172-.13281-.01172-.13282-.04687-.10547-.14844-.14843-.0586-.08985-.05859-.08594-.04297-.10546v-.44532l.01563-.1328v-.14845l.01172-.1328-.0586-.0586-.08984.0586-.10156-.04298-.17969-.11719-.08594-.05859-.0625-.08984-.0586-.08985-.07421-.07421-.08594-.0586-.1211.03125-.10155.01172-.10547.04688-.08594.05859-.10547.04297-.14844.14844-.08984.05859-.08594.0586-.08984.0625-.10547.04296-.13281.01563v-.1211l.10547-.04297.11718-.03125.07422-.0703.04297-.10548v-.14844l-.02734-.11718-.14844-.14844-.13281-.01563h-.14844l-.11719.03125-.10547.04297-.10156.04297-.08984.0625-.11719.02735-.07422-.07422.01172-.13281-.04297-.10157-.04297-.10547-.08984-.05859-.11719.02734-.1211.03125-.11718.03125-.10156.04297-.1211.03125-.10156.04297-.10547.04297-.08984.0586-.10156.01562v-.11719l.01562-.13281-.0586-.08985-.07421.04297-.14844.14844-.0586.08985-.07421.07421-.04688.10547-.04296.10156-.07422.07422-.0586.08985-.07422.07422-.05859.08593-.07422.07422-.08984.0625-.07422.07031-.07422.07422-.10156.01563-.13281.01562-.10547-.04296v-.1211l.14843-.14844.04297-.10156.0586-.08984.04687-.10156.04297-.10547.0586-.08985.03124-.11719.04297-.10156.03125-.1211.02735-.11718.04687-.10547.04297-.10156.04297-.10547.07422-.07031.08984-.0625.08985-.0586.10156-.04296h.29687l.26563-.03125.10547-.04297-.07422-.07422-.11719-.03125-.10547-.04297-.08984-.0586-.10156-.04687-.08985-.0586-.10156-.04296-.10547-.04297-.08984-.0625-.08594-.0586-.10547-.04296-.10156-.04297-.1211-.03125-.11718-.03125-.10157-.04297L297.5 410.25l-.10156-.04297-.08985-.0586-.04296-.10546-.01563-.13281.10156-.04297.13281-.01563.13672.01563.13282-.01563.10156-.04297.0586-.08984.01562-.10547-.08985-.0586-.07421-.07421-.10157-.04297-.08984-.0586-.14844-.14843-.04297-.10547-.01562-.13281v-.29297l-.0586-.08985-.08984-.05859-.07422-.07422-.04297-.10547-.03125-.11718-.0586-.08985-.07421-.07422-.11719-.02734-.07422-.07422-.08984-.0586-.08984-.0625-.08594-.05859-.07422-.07421-.0586-.08594-.04687-.10547-.08594-.0586-.14843-.14843-.19532-.0586-.1328.01563-.10157.04297-.07422.07422-.04688.10156-.04296.10547-.0586.08984-.0586.08594-.29687.29687-.08984.0586h-.08594l-.0625-.08594-.04297-.10547.03125-.11719.0586-.08984.02734-.11719-.01172-.13281-.08984-.0625-.10547.04688-.11719.02734-.11719.03125-.26953.17578-.10156.04688-.11719.02734-.10546.04687-.08985.0586-.10156.04297-.0586-.08594-.04687-.10547.01563-.13281.04687-.10547.07031-.07422.07422-.07031.0586-.08985v-.14843l-.04297-.10547h-.23829l-.10156.04687-.03125.11719-.02734.11719-.03125.1211-.07422.04296-.13281.01563-.07422-.04688-.04297-.10156-.04297-.10547-.04687-.10156-.04297-.10547-.1211.03125-.10156.04297-.13281.01562-.11719.03125-.10547.04297-.08984.0586-.10156.04687-.1211.02734-.13281.01563-.10156-.04297-.0586-.08985-.04687-.10546-.04297-.10157-.04297-.10546v-.1172l.0586-.08984.08593-.05859.17969-.11719.10156-.04687.10547-.04297.10547-.0586.10156-.04296.08985-.0625.10156-.04297.10547-.0586.10156-.04687.08984-.0586.10547-.04296.10156-.04297.08985-.0625.10156-.04297.13672-.01563.11719.03125.10156.04297.1211.03125.10156.04297.10546.04688.10157.04296.10547.04297.10156.04688.10547.04297.10156.04297.10547.04687.08594.0586.10546.04296.1172.03125.10546.04297.10156.04688.08985.0586.10547.04296.10156.04297.10547.04687.11719.02735.10156.04687.1211.02735h.14843l.08594-.0586.01562-.10156.0586-.08984-.02735-.1172-.07422-.07421-.11719-.17969-.07421-.07422-.08985-.07421-.17969-.1172-.08593-.05859-.10547-.04296-.10156-.04688-.26954-.17578-.05859-.08985-.07422-.07421-.0586-.08985-.04296-.10156-.03125-.11719-.01563-.13672v-.5625l-.01171-.1328-.01563-.13282-.03125-.11719-.01562-.13281-.01172-.13281-.03125-.1211-.22266-.22265-.0586-.08594-.01562-.10547.03125-.11719.13281-.01562v-91.41406H172.9922v1.45312l-.0586.23438-.35156 1.05078-.17187.52343-.1172.34766-.17577.41016-.11719.17187-.23438.29297-.23046.0586h-.35157l-.11718.05859-.23047.40625v.29297l.11719.17578.23046.23047.1172.23437.64062.75781.29297.46485.17578.23437.23047.35156.23437.34766.64063.8164.17578.46485.17187.41016.11719.69531.17578.46875.11719 1.39844.0586.46484v.875l.11718 1.04688v4.78125l-.0586.46484-.35156 1.28125-.17578.52344-.11328.41015-.35156.9297L172.93359 336l-.23437.58203-.11719.17578-.17187.34766-.17578.40625-.35157.8164-.0586.29297-.11327.29297-.11719.28906-.0586.17579-.11718.875-.0586.40625-.05859.11718-.0586.17579-.05859.17187-.23047.52734-.11718.17188v.23437l-.11719.23438-.0586.17187-.17577.58594v.28906l-.0586.17579v.29296l-.0586.11329-.05859.52734v.17187l-.05468.23438v2.6211l-.17578.8164-.1172.17578-.17577.23438-.1172.17187-.11327.23438-.58594.93359-.23047.28906-.29297.46485-.17578.23437-.28906.35156-.35156.69922-.11328.23047-.17579.41016-.17578.23046-.40625.52735-.8164.69922-.29297.17187-.28906.23438-.17579.11719-.17578.17578-.52344.40625-.52734.17578-.17187.17578-.23438.05469-.64062.17578h-.75782m12.21094 31.02344l-1.07422.44921.35938.89454 1.25-.71485.44531-.53906-.98047-.08985"/><path fill="#d3d3d3" fill-opacity="0" fill-rule="evenodd" d="M201.50781 416.59766h-.89453l.44922.6289.98047.35938.80469-.08985.4453-.98828-.17577.08985-.71485-.35547-.89453.35547m154.6211 59.0703l-.0586-.52343v-.29297l.11328-.29297.0586-.23046.46875-.46875h.11328l.11719-.11329.11718-.05859h.17579l.23437-.0586h.34766l.23437.0586.11719.0586.23047.17187.0586.17578.11718.58203v.29297l-.11719.17578-.17187.28906-.17579.17579-.52734.52343-.23047.23438-.11719.0586h-.17578l-.11718-.0586-.40625-.29297-.17579-.11719-.11718-.0586-.0586-.11327-.05468-.1172m6.64062-10.95702l-.0586-.17188v-1.10937l.0586-.17188.17578-.0586.17188-.05858h.17578l.23437-.0586.1172.0586.05858.69921-.05859.17188-.11719.17578-.11718.0586-.23438.52343-.11328.0586h-.23438l-.05859-.1172m9.61328-14.39062l-.11719-.17578v-.69922l.29297-.875.1172-.17187.17577-.35156.11328-.23047.1172-.29297.35155-.75781.1172-.23047.17187-.23438h.17578l.11719-.0586h.64062l.11719.0586.23437.23438.17188.11328.35156.29297.11719.11718.11328.17579v.11328l.11719.05859.11718.11719v.69922l-.05859.17578v.23047l-.0586.17578-.34765 1.05078-.11719.23047-.11719.23437-.11718.0586-.23047.23437-.64063.28906h-.875l-.41015-.11718-.64063-.46485"/><path fill="none" stroke="#bebebe" stroke-linecap="round" stroke-linejoin="round" stroke-miterlimit="10" stroke-width=".5" d="M467.95703 311.69531H144.02734v168.625h323.9297v-168.625"/><g clip-path="url(#a)"><path fill="#fff" fill-opacity="0" fill-rule="evenodd" d="M144 475.89063v4.4375h.0039H144v-39 34.5625"/></g><g clip-path="url(#b)"><path fill="#fff" fill-opacity="0" fill-rule="evenodd" d="M144 431.50781v1.48047-121.3164h.0039H144V431.5078"/></g><path fill="#50fcfc" fill-rule="evenodd" d="M144 432.98828v8.33985h.0039v-8.33594l-.0039-.0039"/><g clip-path="url(#c)"><path fill="#fff" fill-opacity="0" fill-rule="evenodd" d="M144.0039 480.32813v-39l1.76563-.94532.3711-4.4375-2.13672-2.95312V311.67188h75.44922v7.01171l-1.0547 1.86329-3.3828 3.13671-4.44141-1.54687-1.76953 2.84765-.52735 4.44141 2.29688 1.67969 2.90625-1.67969 1.53516-2.64844 1.39062-1.79296 3.04688-3.3047.36718-1.1328-.36719-1.86329v-7.01171h13.3125v93.83593l-4.4375.46094-2.77734 3.34766-1.66016 2.43359-1.99218 2.0039-.78906 4.4375 2.78125 2.76563.49609 1.67188 1.84766 4.4414-2.34375.79297-3.625 3.64453-.8125 2.5-2.73829 1.9375-1.69922 4.16406-.09375.27344.09375 1.36719.13672 3.07031 3.76953 4.4414.53125.76173 4.4375 3.45703 4.4375-2.11328 1.57813-2.10547 1.64844-4.4414-2.0664-4.4375-1.16017-1.32813-4.4375-.96875-2.84375-2.14063 2.84375-1.05469 3.57422-3.3828.86328-2.45313 4.4375 1.6211 1.25782.83202 3.1836 3.11328 4.35937 1.32422.07812.07422.11328-.07422 3.27735-4.4375-3.39063-4.1875-.15625-.25.15625-.11328 4.30078-4.32812.13672-1.20704 3.83203-3.23046-3.83203-3.09375-4.4375-1.22657-.40234-.11718-.58594-4.4375-3.44922-2.8672-4.4414-.9414v-93.83594h48.82421v135.9297l-3.37109 1.66015-1.0664 1.64844-1.83985 2.78906-.2539 4.4375 2.09374 1.67578 4.4375-.15234 1.53516-1.52344 1.80469-4.4375-.54297-4.4375-2.79688-1.66016V311.67187h35.50782v135.16797l-2.33985 2.42188-2.10156.88672-4.4375 2.14062-1.33594 1.41016-1.19922 4.4375 2.53516 3.01172 3.60156 1.42578.83594.53125.5625-.53125 2.76953-4.4375 1.10938-1.47266 3.625-2.96484-1.32032-4.4375-2.30468-2.42188V311.67188h13.3125V446.4453l-4.37891 2.8164-.0586.10157-3.53124 4.33594 3.53125 3.98047 2.47656.45703 1.96094.4336.34375-.4336 2.33593-4.4375.09375-4.4375-2.77343-2.8164V311.67187h44.3828V459.5078l-4.4375.77344-2.26171 2.29297 1.94531 4.4414.3164.35157 1.4375 4.08594 3 2.16015 4.44142.57813 2.74218-2.73829 1.02735-4.4375-3.76954-4.2578-.32812-.1836-4.11328-3.0664V311.67187h35.50781v103.67578l-4.4375 1.23046-4.4375.9297-2.83984.68359-1.60156.15625-3.44141 4.28125.07422 4.4414 3.36719 3.3125 4.4414 1.03906 4.4375-.66015 4.4375.63672 4.4375-.89844 4.4414-.20703 4.4375-1.09766 2.50782-2.125.15625-4.4414-2.66406-2.1797-3.15625-2.2578-1.28125-1.20704-4.4414-1.375-4.4375-.26171V311.67187h22.1914v105.85547l-.20313.66407.20313.1289.15234-.1289-.15234-.66407V311.67188h17.7539v114.24218l-1.13671 1.15625-3.30079 2.73438-1.85546 1.70312-2.58204 3.60938-1.10156.82812 1.10156.79297 4.37891-.79297.0586-.01953 4.4375-1.16406 4.1289-3.2539.3086-2.98438.47656-1.45313-.47657-1.05078-4.4375-.10547V311.67187h17.75v168.65625h-34.46093l1.86718-4.4375-2.91015-3.48437-2.98438-.95313 2.98438-2.03515 1.79687-2.40235 2.64063-1.28125 4.4414-2.22656 4.4375-.73047 4.4297 4.23829.0078.01171 1.38282 4.42579 3.05468 2.85937 4.44141.38281 3.78906-3.24219.64844-.3789 3.19531-4.0586.73438-4.4414-1.01563-4.4375-2.91406-2.96485-1.32031-1.47265-3.11719-3.92969-4.4414.54297-.41407-1.05078-.91797-4.4414-3.10547-3.07813-4.20703 3.07812-.23047.1875-1.07812-.1875-3.35938-1.34375-4.4414-.44922-1.82813-2.64453-2.60937-4.05078-4.4375.5586-3.07422 3.49218-1.36328 1.23828-4.4375 1.54297-1.6914 1.65625 1.6914 1.57813 1.58984 2.86328 2.84766 3.26953 1.14453 1.16797 1.66015 4.4375 1.34375 4.4375.28907.46484 2.47656 3.97656-2.47656 3.34766-3.65235 1.08985-.78515.05468-.23438-.05469-4.20312-2.9375-4.4414.72657-2.53126 2.21094 2.53125 2.98046.9336 1.45704 3.5078 2.8164 4.4375.5586 4.4375-.08985 3.03516 1.15235H144.00391"/></g><path fill="#50fcfc" fill-rule="evenodd" d="M145.76953 440.38281l-1.76562.94531v-8.33593l2.13672 2.95312-.3711 4.4375m64.80469-109.27734l-2.29688-1.67969.52735-4.4414 1.76953-2.84766 4.4414 1.54687 3.38282-3.13671 1.05469-1.86329.36718 1.86329-.36719 1.1328-3.04687 3.3047-1.39063 1.79296-1.53515 2.64844-2.90625 1.67969m4.4414 110.64453l-.09375-1.36719.09375-.27344 1.69922-4.16406 2.73828-1.9375v4.33985l-1.63671 2.03515 1.63672 3.74219 2.64843-3.74219-2.64844-2.03515v-4.33985l.8125-2.5 3.625-3.64453v1.99219l-1.64453 1.65234 1.64453 1.53516 1.6211-1.53516-1.6211-1.65234v-1.99219l2.34375-.79297-1.84765-4.4414-.4961-1.67188-2.78125-2.76562.78907-4.4375 1.99219-2.00391 1.66015-2.4336 2.77734-3.34765 4.4375-.46094v1.48438L228.32813 409l-.2578.3164-3.58985 4.4375-.58984 3.94923-.14844.48828.14844.14843 1.27343 4.28907 3.16406 3.83593 1.22657.60547 3.21094 2.26172 3.28906 2.17578 1.15234 1.125 4.4375.96875 1.58984-2.09375-1.58984-1.96484-1.53906-2.47266 1.53906-1.08984 3.32813-3.35156.49218-4.4375-3.8203-3.4375-3.41798-1-1.01953-2.70704-.53906-1.73046-3.90234-2.32422v-1.48438l4.4414.9414 3.44922 2.8672.58594 4.4375.40234.11718 4.4375 1.22657 3.83203 3.09375-3.83203 3.23046-.13672 1.20704-4.30078 4.32812-.15625.11328.15625.25 3.39063 4.1875-3.27735 4.4375-.11328.07422-.07812-.07422-4.35938-1.32422-3.1836-3.11328-1.2578-.83203-4.4375-1.6211-.86329 2.45313-3.57422 3.38281-2.84375 1.0547 2.84375 2.14062 4.4375.96875 1.16016 1.32812 2.0664 4.4375-1.64843 4.4414-1.57813 2.10548-4.4375 2.11328-4.4375-3.45703-.53125-.76172-3.76953-4.4414-.13672-3.07032"/><path fill="#00e8fc" fill-rule="evenodd" d="M219.45313 444.125l-1.63672-3.74219 1.63672-2.03515 2.64843 2.03515-2.64844 3.74219m4.4375-11.08203l-1.64453-1.53516 1.64453-1.65234 1.6211 1.65234-1.6211 1.53516m0-14.70313l-.14843-.14843.14844-.48829.58984-3.94921 3.58984-4.4375.25781-.31641v2.71875l-1.70312 2.03516-.66406 4.4375.4961 4.4375 1.87108 2.26562 4.40235 2.17578.03516.02344 4.4414 1.21875.58984-1.24219 3.84766-2.72265 1.70703-1.71875.47266-4.4375-2.17969-1.96094-4.4375-1.4375-4.21094-1.03906-.23047-1.88672-4.4375-.14844V409l4.4375-2.00781 3.90235 2.32422.53906 1.73046 1.01953 2.70704 3.41797 1 3.82031 3.4375-.49218 4.4375-3.32813 3.35156-1.53906 1.08984 1.53906 2.47266 1.58984 1.96484-1.58984 2.09375-4.4375-.96875-1.15234-1.125-3.28906-2.17578-3.21094-2.26172-1.22656-.60547-3.16407-3.83593-1.27344-4.28907"/><path fill="#00d4fc" fill-rule="evenodd" d="M226.45703 422.6289l-.4961-4.4375.66407-4.4375 1.70313-2.03515 4.4375.14844.23046 1.88672 4.21094 1.03906v1.30469l-4.4414.96484-4.4375-.3711-.22657 1.5-.34765 4.4375.57422.69923 4.4375 2.05078 4.4414.73437 4.4375-3.39844.08594-.08593.45703-4.4375-.54297-.48829-4.4375-1.60546v-1.3047l4.4375 1.4375 2.17969 1.96095-.47266 4.4375-1.70703 1.71875-3.84766 2.72265-.58984 1.24219-4.4414-1.21875-.03516-.02344-4.40234-2.17578-1.8711-2.26562"/><path fill="#00c4fc" fill-rule="evenodd" d="M228.32813 423.32813l-.57422-.69922.34765-4.4375.22656-1.5 4.4375.37109 4.44141-.96484v1.30468l-2.10156.78907-2.33984 2.33203-2.32032 2.10547 2.32031 1.03906 4.44141 1.16015 2.85547-2.19921-.75-4.4375-2.10547-.78907v-1.30468l4.4375 1.60546.54297.48829-.45703 4.4375-.08594.08593-4.4375 3.39844-4.4414-.73437-4.4375-2.05079"/><path fill="#00b8fc" fill-rule="evenodd" d="M232.76563 423.66797l-2.32032-1.03906 2.32031-2.10547 2.33985-2.33203 2.10156-.78907v2.37891l-2.85937 2.84766 2.85937.91406 1.1836-.91406-1.1836-2.84766v-2.3789l2.10547.78906.75 4.4375-2.85547 2.19921-4.4414-1.16015"/><path fill="#00a8fc" fill-rule="evenodd" d="M237.20703 423.54297l-2.85937-.91406 2.85937-2.84766 1.1836 2.84766-1.1836.91406"/><path fill="#50fcfc" fill-rule="evenodd" d="M277.15234 459.8125l-2.09375-1.67578.25391-4.4375 1.83984-2.78906 1.06641-1.64844 3.3711-1.66016 2.79687 1.66016.54297 4.4375-1.80469 4.4375-1.53516 1.52344-4.4375.15234m31.06641 1.33594l-2.53516-3.01172 1.19922-4.4375 1.33594-1.41016 4.4375-2.14062v2.98828l-.91016.5625.66407 4.4375.24609.05078.03516-.05078 1.59375-4.4375-1.62891-.5625v-2.98828l2.10156-.88672 2.33985-2.42188 2.30468 2.42188 1.32032 4.4375-3.625 2.96484-1.10938 1.47266-2.76953 4.4375-.5625.53125-.83594-.53125-3.60156-1.42578"/><path fill="#00e8fc" fill-rule="evenodd" d="M312.41016 458.13672l-.66407-4.4375.91016-.5625 1.6289.5625-1.59374 4.4375-.03516.05078-.2461-.05078"/><path fill="#50fcfc" fill-rule="evenodd" d="M325.97266 457.67969l-3.53125-3.98047 3.53125-4.33594.05859-.10156 4.3789-2.8164v2.74218l-.11327.07422.11328.7539.07421-.7539-.07421-.07422v-2.74219l2.77343 2.8164-.09375 4.4375-2.33593 4.4375-.34375.4336-1.96094-.4336-2.47656-.45702"/><path fill="#00e8fc" fill-rule="evenodd" d="M330.41016 450.01563l-.11329-.75391.11329-.07422.07421.07422-.07421.7539"/><path fill="#50fcfc" fill-rule="evenodd" d="M370.03906 467.01563l-1.94531-4.44141 2.26172-2.29297 4.4375-.77344v2.57422l-1.625.49219-1.51953 4.4414 3.14453 3.83985 3.6914.59765.75.1875.1875-.1875 1.84375-4.4375-2.03125-2.29296-3.77734-2.14844-.66406-.49219v-2.57422l4.11328 3.0664.32813.1836 3.76953 4.25781-1.02735 4.4375-2.74219 2.73829-4.4414-.57813-3-2.16015-1.4375-4.08594-.3164-.35156"/><path fill="#00e8fc" fill-rule="evenodd" d="M374.79297 470.85547l-3.14453-3.83985 1.51953-4.4414 1.625-.49219v3.4961l-.9336 1.4375.9336 1.14062 2.60156-1.14063-2.60156-1.4375v-3.49609l.66406.49219 3.77735 2.14844 2.03125 2.29296-1.84375 4.4375-.1875.1875-.75-.1875-3.69141-.59765"/><path fill="#00d4fc" fill-rule="evenodd" d="M374.79297 468.15625l-.9336-1.14063.9336-1.4375 2.60156 1.4375-2.60156 1.14063"/><path fill="#50fcfc" fill-rule="evenodd" d="M393.61719 427.07031l-.07422-4.4414 3.4414-4.28125 1.60157-.15625 2.83984-.6836 4.4375-.92969 4.4375-1.23046 4.4375.26171v2.70313l-4.4375.15625-3.21484 4.16016-1.22266 2.9453-.95703-2.9453-3.48047-2.96485-4.4414.99219-1.58594 1.97266-.00781 4.4414 1.59375 1.5664 4.4414 1.31642 4.4375-2.15235 4.4375 1.41797 4.4375-.40234 4.4414-.42579 2.79298-1.3203.375-4.44141-3.16797-2.56641-4.4414-1.75v-2.70313l4.4414 1.375 1.28125 1.20704 3.15625 2.2578 2.66406 2.1797-.15625 4.4414-2.50781 2.125-4.4375 1.09766-4.4414.20703-4.4375.89844-4.4375-.63672-4.4375.66015-4.44142-1.03906-3.36718-3.3125"/><path fill="#00e8fc" fill-rule="evenodd" d="M396.98438 428.63672l-1.59375-1.5664.0078-4.44141 1.58594-1.97266 4.44141-.99219v2.78906l-.51953.17579-.71484 4.4414 1.23437.4336.76172-.4336-.55469-4.4414-.20703-.17579v-2.78906l3.48047 2.96485.95703 2.9453 1.22266-2.9453 3.21484-4.16016 4.4375-.15625v2.83594l-3.07812 1.48047 3.07812 2.58203 2.57422-2.58203-2.57422-1.48047v-2.83594l4.4414 1.75 3.16798 2.5664-.375 4.44141-2.79297 1.32031-4.4414.42579-4.4375.40234-4.4375-1.41797-4.4375 2.15235-4.44142-1.31641"/><path fill="#00d4fc" fill-rule="evenodd" d="M401.42578 427.5039l-1.23437-.43359.71484-4.4414.51953-.17579.20703.17579.55469 4.4414-.76172.4336m13.3125-2.29297l-3.07812-2.58203 3.07812-1.48047 2.57422 1.48047-2.57422 2.58203"/><g clip-path="url(#d)"><path fill="#50fcfc" fill-rule="evenodd" d="M414.73828 474.4336l-2.53125-2.98048 2.53125-2.21093 4.4414-.72656 4.20313 2.9375.23438.05468v2.07031l-4.4375 1.54688-.34375.76563.34375.27734 4.4375 1.5039 4.4375-1.09765 3.47656-.6836-3.47656-1.02343-4.4375-1.28906v-2.07032l.78515-.05469 3.65235-1.08984 2.47656-3.34765-2.47656-3.97657-.28906-.46484-1.34375-4.4375-1.66016-4.4375-1.14453-1.16797-2.84766-3.26953-1.58984-2.86328-1.6914-1.57813 1.6914-1.65625 4.4375-1.54297 1.36328-1.23828 3.07422-3.49219v2.5547l-.82813.9375-3.60937 3.28124-2.09375 1.15625 1.66406 4.4414.42969.4922 3.86328 3.9453.57422 1.10157 2.86719 3.33594 1.5703 3.60156 2.07813.83594 2.35938.26953.45312-.26953 3.98828-.64063 4.4375-.21875 4.4375-.10156 1.19532.96094 2.32812 4.4414.91406 3.44141 4.44141.65625 4.4375-2.40625 1.33203-1.6914 1.61328-4.44141-2.34375-4.4375-.60156-.61328-3.42578-3.82422-1.01172-1.27735-4.4414-.17187-1.17579-2.98828-2.21484-4.4414-1.04688-1.03516-1.41796 1.03515-3.01954 2.40235-4.4375 1-4.4414-.48047-4.4375.36328-2.88281-3.28516 1.45703-4.4375-3.01172-.9375v-2.55469l4.4375-.55859v7.92578l-.3086.5625.3086.35156 1.03906-.35156-1.03906-.5625v-7.92578l2.60937 4.05078 1.82813 2.64453 4.4414.44922 3.35938 1.34375 1.07812.1875.23047-.1875 4.20703-3.07812 3.10547 3.07812.91797 4.4414.41406 1.05079 4.44141-.54297 3.11719 3.92969 1.32031 1.47265 2.91406 2.96485 1.01563 4.4375-.73438 4.4414-3.19531 4.0586-.64844.3789-3.78906 3.2422-4.4414-.38282-3.0547-2.85938-1.3828-4.42578-.00782-.01171-4.42969-4.23829-4.4375.73047-4.4414 2.22656-2.64063 1.28125-1.79687 2.40235-2.98438 2.03515 2.98438.95313 2.91015 3.48438-1.86718 4.4375h-2.44532l-3.03515-1.15235-4.4375.08985-4.4375-.5586-3.50781-2.8164-.9336-1.45704"/></g><path fill="#00e8fc" fill-rule="evenodd" d="M419.17969 476.16797l-.34375-.27735.34375-.76562 4.4375-1.54688 4.4375 1.28907 3.47656 1.02344-3.47656.68359-4.4375 1.09765-4.4375-1.5039m4.00781-26.90625l-1.66406-4.4414 2.09375-1.15626 3.60937-3.28125.82813-.9375 3.01172.9375-1.45704 4.4375 2.88282 3.28516 4.4375-.36328 4.4414.48047 4.4375-1 3.01954-2.40235 1.41796-1.03515v2.39843l-3.44921 3.07813-.98829.59375-4.4375.60547-4.4414.01172-4.4375.96875-2.10938 2.2578 2.10938 2.21876 1.85547 2.21875 2.58203 2.39062 4.4414.10938 4.4375-.39844 4.4375-1.55469 4.4375 2.34766 1.54688 1.54297 2.89453 1.2539 4.4375 1.33204 1.30078-2.58594-1.30078-2.15235-4.4375-.09375-2.1914-2.1914-2.25-1.19922-1.5-3.23828-.94532-4.4375-1.99219-3.07813v-2.39843l1.04688 1.03515 2.21484 4.4414 1.17578 2.98829 4.44141.17188 1.01172 1.27734 3.42578 3.82422.60156.61328 2.34375 4.4375-1.61328 4.4414-1.33203 1.69141-4.4375 2.40625-4.4414-.65625-.91407-3.4414-2.32812-4.44141-1.19532-.96094-4.4375.10156-4.4375.21875-3.98828.64063-.45312.26953-2.35938-.26953-2.07812-.83594-1.57031-3.60156-2.8672-3.33594-.57421-1.10156-3.86328-3.94531-.42969-.4922"/><path fill="#00d4fc" fill-rule="evenodd" d="M432.49219 455.91797l-2.10938-2.21875 2.10938-2.25781 4.4375-.96875 4.4414-.01172 4.4375-.60547.98829-.59375 3.44921-3.07813v1.96485L449 449.26172l-3.1914 1.91797-4.4375.67187-4.44141.11719-3.7539 1.73047 3.51952 4.4375.23438.21875 4.4414.98437 4.4375-.57421 1.52344-.62891 2.91406-4.05469.21094-.38281.50781-4.4375-.71875-1.11328v-1.96485l1.9922 3.07813.9453 4.4375 1.5 3.23828 2.25 1.19922 2.19141 2.1914 4.4375.09375 1.30078 2.15235-1.30078 2.58594-4.4375-1.33204-2.89453-1.2539-1.54688-1.54297-4.4375-2.34766-4.4375 1.5547-4.4375.39843-4.4414-.10938-2.58203-2.39062-1.85547-2.21875"/><path fill="#fff" fill-opacity="0" fill-rule="evenodd" d="M432.49219 444.25781l-.3086.5625.3086.35156 1.03906-.35156-1.03906-.5625"/><path fill="#50fcfc" fill-rule="evenodd" d="M432.49219 418.32031l-.20313-.1289.20313-.66407.15234.66407-.15234.1289"/><path fill="#00c4fc" fill-rule="evenodd" d="M436.69531 458.13672l-3.51953-4.4375 3.7539-1.73047 4.44141-.11719 4.4375-.67187v1.32422l-4.4375.73828-4.4414.22656-.5.23047.5.65234 4.4414 3 4.4375-.9414 2.19532-2.71094-2.19532-1.19531v-1.32422L449 449.26172l1.2461-1.11328.71874 1.11328-.5078 4.4375-.21095.38281-2.91406 4.05469-1.52344.6289-4.4375.57422-4.4414-.98437-.23438-.21875"/><path fill="#00b8fc" fill-rule="evenodd" d="M436.92969 454.35156l-.5-.65234.5-.23047 4.4414-.22656 4.4375-.73828 2.19532 1.1953-2.19532 2.71095-4.4375.9414-4.4414-3"/><path fill="#50fcfc" fill-rule="evenodd" d="M441.3711 436.73828l-1.10157-.79297 1.10156-.82812 2.58204-3.60938 1.85546-1.70312 3.30079-2.73438 1.13671-1.15625v3.625l-2.2578 1.96875 2.2578 1.24219 1.57422-1.24219-1.57422-1.96875v-3.625l4.4375.10547.47657 1.05078-.47657 1.45313-.30859 2.98437-4.1289 3.2539-4.4375 1.16407-.0586.01953-4.3789.79297"/><path fill="#00e8fc" fill-rule="evenodd" d="M450.2461 432.75l-2.25782-1.24219 2.25781-1.96875 1.57422 1.96875-1.57422 1.24219"/><g clip-path="url(#e)"><path fill="#fff" fill-opacity="0" fill-rule="evenodd" d="M467.9961 480.32813H468V311.67188h-.0039H468v168.65625h-.0039"/></g><path fill="#fff" fill-opacity="0" fill-rule="evenodd" d="M454.02344 453.16016l5.40625 2.21875 3.78125-9.21485-5.40625-2.21875-3.78125 9.21485"/><path fill-rule="evenodd" d="M460.34766 446.96875l.46875.19531-2.38672 5.82422-.73047-.30078 1.70703-4.15234-1.28516-.52735.21094-.51562.54297.15234.2539.04688.2461.0039.24219-.05078.23828-.1289.24219-.21875.25-.32813"/><path fill="#fff" fill-opacity="0" fill-rule="evenodd" d="M223.65625 441.01172l4.96094-3.08594-5.26172-8.45703-4.95703 3.08203 5.25781 8.46094"/><path fill-rule="evenodd" d="M222.33594 432.26172l.4336-.26953 3.32421 5.34765-.66797.41407-2.3711-3.8125-1.17968.73437-.29297-.47265.4414-.35157.1836-.17969.14844-.1953.09766-.23048.03906-.26953-.03516-.32422-.1211-.39062"/><g clip-path="url(#f)"><path fill="none" stroke="#000" stroke-linecap="round" stroke-linejoin="round" stroke-miterlimit="10" stroke-width=".5" d="M146.33984 482.95313l-4.67968-5.2461"/></g><g clip-path="url(#g)"><path fill="none" stroke="#000" stroke-linecap="round" stroke-linejoin="round" stroke-miterlimit="10" stroke-width=".5" d="M160.80078 479.89453l-6.97266.86719"/></g><g clip-path="url(#h)"><path fill="none" stroke="#000" stroke-linecap="round" stroke-linejoin="round" stroke-miterlimit="10" stroke-width=".5" d="M172.08203 477.1289l-2.90625 6.39844"/></g><g clip-path="url(#i)"><path fill="none" stroke="#000" stroke-linecap="round" stroke-linejoin="round" stroke-miterlimit="10" stroke-width=".5" d="M182.29688 477.22656l3.29687 6.20313"/></g><path fill="none" stroke="#000" stroke-linecap="round" stroke-linejoin="round" stroke-miterlimit="10" stroke-width=".5" d="M182.77734 478.1289l.6836-1.01562"/><g clip-path="url(#j)"><path fill="none" stroke="#000" stroke-linecap="round" stroke-linejoin="round" stroke-miterlimit="10" stroke-width=".5" d="M195.375 477.36328l3.76953 5.92969"/></g><path fill="none" stroke="#000" stroke-linecap="round" stroke-linejoin="round" stroke-miterlimit="10" stroke-width=".5" d="M195.375 477.36328l1.21484-2.13281"/><g clip-path="url(#k)"><path fill="none" stroke="#000" stroke-linecap="round" stroke-linejoin="round" stroke-miterlimit="10" stroke-width=".5" d="M208.3125 477.64063l4.52344 5.375"/></g><path fill="none" stroke="#000" stroke-linecap="round" stroke-linejoin="round" stroke-miterlimit="10" stroke-width=".5" d="M208.3125 477.64063l.91797-2.27735"/><g clip-path="url(#l)"><path fill="none" stroke="#000" stroke-linecap="round" stroke-linejoin="round" stroke-miterlimit="10" stroke-width=".5" d="M221.64844 477.625l4.48437 5.41016"/></g><path fill="none" stroke="#000" stroke-linecap="round" stroke-linejoin="round" stroke-miterlimit="10" stroke-width=".5" d="M221.64844 477.625l.9336-2.26953"/><g clip-path="url(#m)"><path fill="none" stroke="#000" stroke-linecap="round" stroke-linejoin="round" stroke-miterlimit="10" stroke-width=".5" d="M234.85938 477.71484l4.6953 5.22657"/></g><path fill="none" stroke="#000" stroke-linecap="round" stroke-linejoin="round" stroke-miterlimit="10" stroke-width=".5" d="M234.85938 477.71484l.83984-2.30468"/><g clip-path="url(#n)"><path fill="none" stroke="#000" stroke-linecap="round" stroke-linejoin="round" stroke-miterlimit="10" stroke-width=".5" d="M248.22656 477.66797l4.58594 5.32422"/></g><path fill="none" stroke="#000" stroke-linecap="round" stroke-linejoin="round" stroke-miterlimit="10" stroke-width=".5" d="M248.89453 478.4414l.44531-1.14452"/><g clip-path="url(#o)"><path fill="none" stroke="#000" stroke-linecap="round" stroke-linejoin="round" stroke-miterlimit="10" stroke-width=".5" d="M261.84375 477.4336l3.98438 5.78906"/></g><path fill="none" stroke="#000" stroke-linecap="round" stroke-linejoin="round" stroke-miterlimit="10" stroke-width=".5" d="M262.42188 478.27734l.5664-1.08984"/><g clip-path="url(#p)"><path fill="none" stroke="#000" stroke-linecap="round" stroke-linejoin="round" stroke-miterlimit="10" stroke-width=".5" d="M276.0625 476.98828l2.17578 6.67969"/></g><path fill="none" stroke="#000" stroke-linecap="round" stroke-linejoin="round" stroke-miterlimit="10" stroke-width=".5" d="M276.3789 477.96094l.85157-.88281"/><g clip-path="url(#q)"><path fill="none" stroke="#000" stroke-linecap="round" stroke-linejoin="round" stroke-miterlimit="10" stroke-width=".5" d="M291.33984 476.92578l-1.75 6.80469"/></g><g clip-path="url(#r)"><path fill="none" stroke="#000" stroke-linecap="round" stroke-linejoin="round" stroke-miterlimit="10" stroke-width=".5" d="M304.57031 476.90625l-1.57812 6.84766"/></g><g clip-path="url(#s)"><path fill="none" stroke="#000" stroke-linecap="round" stroke-linejoin="round" stroke-miterlimit="10" stroke-width=".5" d="M317.85547 476.89844l-1.51953 6.85937"/></g><path fill="none" stroke="#000" stroke-linecap="round" stroke-linejoin="round" stroke-miterlimit="10" stroke-width=".5" d="M317.63281 477.89453l1.1836-.32812"/><g clip-path="url(#t)"><path fill="none" stroke="#000" stroke-linecap="round" stroke-linejoin="round" stroke-miterlimit="10" stroke-width=".5" d="M327.50781 478.35156l5.8086 3.95313"/></g><path fill="none" stroke="#000" stroke-linecap="round" stroke-linejoin="round" stroke-miterlimit="10" stroke-width=".5" d="M328.35156 478.92578l.13281-1.21875"/><g clip-path="url(#u)"><path fill="none" stroke="#000" stroke-linecap="round" stroke-linejoin="round" stroke-miterlimit="10" stroke-width=".5" d="M340.57422 478.77734l6.30469 3.10157"/></g><path fill="none" stroke="#000" stroke-linecap="round" stroke-linejoin="round" stroke-miterlimit="10" stroke-width=".5" d="M341.49219 479.23047l-.03906-1.22656"/><g clip-path="url(#v)"><path fill="none" stroke="#000" stroke-linecap="round" stroke-linejoin="round" stroke-miterlimit="10" stroke-width=".5" d="M353.73828 479.1289l6.60547 2.40235"/></g><path fill="none" stroke="#000" stroke-linecap="round" stroke-linejoin="round" stroke-miterlimit="10" stroke-width=".5" d="M354.69922 479.47656l-.17188-1.21484"/><g clip-path="url(#w)"><path fill="none" stroke="#000" stroke-linecap="round" stroke-linejoin="round" stroke-miterlimit="10" stroke-width=".5" d="M367.64063 482.55469l5.43359-4.45313"/></g><g clip-path="url(#x)"><path fill="none" stroke="#000" stroke-linecap="round" stroke-linejoin="round" stroke-miterlimit="10" stroke-width=".5" d="M380.9336 482.53125l5.47265-4.40625"/></g><g clip-path="url(#y)"><path fill="none" stroke="#000" stroke-linecap="round" stroke-linejoin="round" stroke-miterlimit="10" stroke-width=".5" d="M394.6289 482.9336l4.71485-5.21094"/></g><g clip-path="url(#z)"><path fill="none" stroke="#000" stroke-linecap="round" stroke-linejoin="round" stroke-miterlimit="10" stroke-width=".5" d="M408.30469 483.21875l3.9961-5.78125"/></g><g clip-path="url(#A)"><path fill="none" stroke="#000" stroke-linecap="round" stroke-linejoin="round" stroke-miterlimit="10" stroke-width=".5" d="M423.3711 483.83203l.49218-7.00781"/></g><g clip-path="url(#B)"><path fill="none" stroke="#000" stroke-linecap="round" stroke-linejoin="round" stroke-miterlimit="10" stroke-width=".5" d="M435.09766 483.32813l3.66406-5.9961"/></g><g clip-path="url(#C)"><path fill="none" stroke="#000" stroke-linecap="round" stroke-linejoin="round" stroke-miterlimit="10" stroke-width=".5" d="M451.26953 483.6914l-2.04687-6.72265"/></g><g clip-path="url(#D)"><path fill="none" stroke="#000" stroke-linecap="round" stroke-linejoin="round" stroke-miterlimit="10" stroke-width=".5" d="M460.7461 482.42969l5.6328-4.20313"/></g><g clip-path="url(#E)"><path fill="none" stroke="#000" stroke-linecap="round" stroke-linejoin="round" stroke-miterlimit="10" stroke-width=".5" d="M141.49219 469.47266l5.01562-4.91797"/></g><path fill="none" stroke="#000" stroke-linecap="round" stroke-linejoin="round" stroke-miterlimit="10" stroke-width=".5" d="M153.88281 467.75781l6.86719-1.48828m7.82813-2.10937l4.10546 5.70703m-3.5078-4.875l.54296-1.10156m12.82422-.09766l2.80469 6.4414m-2.39844-5.5039l.76562-.96094m12.14844.01953l2.79297 6.44922m-2.79297-6.44922l1.52734-1.91797m11.3047 2.17579l3.7578 5.93359m-3.7578-5.9336l1.21484-2.1328m12.5703 1.8789l2.81642 6.4414m-2.81641-6.4414l1.52344-1.92188m11.91797 1.8711l2.5664 6.54297m-2.5664-6.54297l1.59765-1.86328m11.375 2.01953l3.25 6.23047m-2.77734-5.32422l.69531-1.01172m11.30469.72266l4.9375 4.99609m-4.21875-4.26953l.36328-1.17188m15.72265 2.94532l-.01953-.20313-.05859-.1914L278 466.4453l-.45703-.375-.1914-.0586-.19923-.01952-.19922.01953-.1953.0586-.45704.375-.09375.17577-.0586.19141-.01952.20313.01953.19921.0586.19141.09374.17578.45703.375.19532.0586.19921.01953.19922-.01953.1914-.0586.45704-.375.09375-.17578.0586-.1914.01953-.19922m15.70703.82421l-6.82813-1.65234m19.71094 2.6836l-5.96484-3.71485m5.09765 3.17578l-.08203 1.22266m14.63281-3.60547l-6.69922 2.1289m6.69922-2.1289l1.7539 1.71875m11.50392-1.88672l-6.58204 2.46484m6.58204-2.46484l1.83593 1.625m11.34375-1.9375l-6.3125 3.08984m5.39453-2.64062l.9922.71875m13.58202.70312l-6.9961-.65234m5.97657.5586l.47656 1.1328m7.80079 1.04298l5.11718-4.81641m-4.3711 4.11719l-1.16405-.39453m13.96093 1.3164L386 464.38281m-4.66016 5.26172l-2.3828-.57422m16.28905.9961l3.48047-6.10547m-3.48047 6.10547l-2.45312-.07422m15.48828-.10156l4.03906-5.75391m-4.03906 5.7539l-2.4336-.30468m3.02344-.53516l-1.21875-.14844m13.47266.58985l4.98047-4.95703m-4.98047 4.95703l-2.34375-.72266m15.50781.5586l5.28516-4.62891m-5.28516 4.6289l-2.29297-.86718m16.07032 1.3086l4.36328-5.51173m-3.73047 4.70703l-1.20703-.21875m13.29297.41797l5.55468-4.30078m-5.55468 4.30078l-2.23828-1.00781"/><g clip-path="url(#F)"><path fill="none" stroke="#000" stroke-linecap="round" stroke-linejoin="round" stroke-miterlimit="10" stroke-width=".5" d="M141.71094 456.36328l4.57812-5.32812"/></g><path fill="none" stroke="#000" stroke-linecap="round" stroke-linejoin="round" stroke-miterlimit="10" stroke-width=".5" d="M155.17969 456.48828l4.27344-5.57812m7.67578 2.47656l7 .6211m7.90625-3.25782l3.8203 5.89453m-3.26562-5.03515l.59375-1.07422m14.06641-.35157l.01953 7.02735m-.01562-6.0039l1.08203-.57813m12.52344-.4336l-.57032 7.0039m.48828-5.98437l1.12891-.48437m12.99219-.39844l-2.01563 6.73047m1.72266-5.75l1.20312-.24219m13.41407-.2461l-4.03516 5.75m3.44922-4.91405l1.21875.15234m13.16016-.58594l-4.9922 4.94532m4.26563-4.22657l1.17188.36328m13.8789 1.63282l-7.0078-.48438m5.98827.41406l.5 1.1211m12.60938 1.38281l-4.5586-5.35156m3.89453 4.57031l-.44921 1.14063m14.73437-.65625l-5.16797-4.75782m4.41407 4.0664l-.3086 1.1875m14.77344-1.01171l-5.96094-3.72656m5.09375 3.1836l-.08594 1.22265m14.79297-2.32031l-7.01172-.44532m7.01172.44532l1.01563 2.23437m12.30469-2.5625l-7.02344.20703m7.02344-.20703l1.21484 2.13281m-2.23438-2.10156l.60547 1.0664m13.72657-.76952l-7.01563-.44532m7.01563.44532l1.01171 2.23437m12.3047-2.33203l-7.01954-.25m7.01953.25l1.07422 2.20312m6.27344.1797l4.91797-5.01954m-4.20313 4.28906l-1.17578-.34375m14.96094 1.83985l2.54297-6.55078m-2.17188 5.59765l-1.21875.14453m13.36328.3711l4.14453-5.67188m-4.14453 5.67188l-2.42968-.34766m16.02343.53516l3.58594-6.04688m-3.58594 6.04688l-2.44922-.1172m15.33985-.18358l4.4375-5.44922m-4.4375 5.44922l-2.40625-.47266m15.23828-.0039l5.40234-4.4922m-5.40234 4.4922l-2.27344-.9336m3.0586.27734l-1.13672-.46484m13.5039.91016l5.72657-4.07032m-5.72657 4.07032l-2.19531-1.09766m3.02734.5039l-2.1914-1.09765m14.76562 1.8164l5.54297-4.3203m-5.54297 4.3203l-2.23828-1.0039"/><g clip-path="url(#G)"><path fill="none" stroke="#000" stroke-linecap="round" stroke-linejoin="round" stroke-miterlimit="10" stroke-width=".5" d="M146.3164 443.02734l-4.6328-5.28515"/></g><path fill="none" stroke="#000" stroke-linecap="round" stroke-linejoin="round" stroke-miterlimit="10" stroke-width=".5" d="M145.64063 442.25781l-.4336 1.14844m13.60938.15234l-3.00391-6.35156m2.5664 5.42969l-.73046.98437m12.97265.27735l.01953-7.02735m15.51954.78516l-4.4297 5.45703m3.78517-4.66406l1.20312.23437m13.34766-.41015l-5.61328 4.22265m5.61328-4.22265l2.22656 1.03906m10.23047-1.85156l-3.89844 5.84765m3.33203-4.99609l1.22266.1211m11.69531-1.42188l-1.96875 6.7461m1.6836-5.76563l1.19921-.25m14.7539 1.54297l-6.67577 2.1953m5.70312-1.875l.88672.84767m13.46875-.94141l-6.8086 1.7461m6.8086-1.7461l1.65234 1.8125m11.76172-.67578l-7.0078-.52735m7.0078.52735l.98438 2.2461m11.80469-.64454l-5.95704-3.73047m5.95704 3.73047l-.17578 2.44531m12.73046-1.58594l-4.43359-5.45312m4.4336 5.45312l-.95704 2.26172m14.76953-2.7578l-5.43359-4.45704m4.64453 3.8086l-.24219 1.20312m14.97266-1.69531l-6.6836-2.17579m6.6836 2.17579l.42188 2.41406m12.79296-2.14453l-6.48046-2.71875m6.48046 2.71875l.22266 2.4414m-1.16797-2.83593l.11328 1.22265m13.83594-.2461l-5.85938-3.8789m5.85938 3.8789l-.23828 2.44141m-.61328-3.0078l-.23828 2.4453M359.5 442.89454l-4.91797-5.01953m4.91797 5.01953l-.74219 2.33985m.02735-3.07032l-.3711 1.16797m13.44531.22656l-3.0078-6.35156m2.5703 5.42969l-.73437.98437m14.05469.10938l-2.14453-6.6914m1.83203 5.71874l-.85547.8789m12.02344-.02343l2.77734-6.45703m-2.3711 5.51563l-1.22265.10156m13.21484.26172l4.61329-5.30078m-4.61329 5.30078l-2.39062-.5547m15.64062.4961l4.7422-5.1875m-4.7422 5.1875l-2.375-.60937m3.06641-.14453l-1.1914-.3047m13.55468.79298l5.26172-4.65625m-5.26172 4.65625L432 441.85156m3.0664.1836l-1.14843-.4297m13.58203.97267l5.49219-4.38672M447.5 442.57813l-2.25-.97657m3.05078.33594l-2.2539-.97266m14.73437 1.57032l5.5586-4.30078m-5.5586 4.30078l-2.23438-1.00782m3.04297.38282l-2.23437-1.01172"/><g clip-path="url(#H)"><path fill="none" stroke="#000" stroke-linecap="round" stroke-linejoin="round" stroke-miterlimit="10" stroke-width=".5" d="M145.66406 430.16406l-3.32812-6.1914"/></g><path fill="none" stroke="#000" stroke-linecap="round" stroke-linejoin="round" stroke-miterlimit="10" stroke-width=".5" d="M145.17969 429.26172l-.67969 1.01953m15.42578-.86328l-5.22266-4.69922m4.46485 4.01563l-.29688 1.1914m15.26953-3.02344l-7.01953.33204m5.9961-.28516l.6289 1.05469m13.34766-2.4961l-6.29688 3.1211m5.37891-2.66797l1 .71484m13.55078-.1875l-6.92969 1.16016m5.92188-.99219l.7461.97266m13.25-2.14063l-6.27735 3.16016m5.36328-2.69922l1 .70703m13.57422-.03125l-6.96875.88672m6.96875-.88672l1.41797 2.0039m11.92578-1.44921l-7.02344-.22266m7.02344.22266l1.08203 2.20312m12.20703-1.88672l-6.97656-.85546m6.97656.85546l.8789 2.28907m12.36329-1.87891l-6.82813-1.67187m6.82813 1.67187l.60156 2.375m11.72656-.67187l-4.85546-5.08204m4.85547 5.08204l-.76954 2.32812m13.66016-1.98437l-4.00781-5.76954m4.00781 5.76954l-1.1211 2.18359m14.45313-2.1914l-4.03906-5.75391m4.03906 5.7539l-1.11328 2.1875m14.48828-2.23437l-4.16015-5.66016m4.16015 5.66016l-1.0625 2.21094m14.3711-2.20704l-4.14844-5.66796m4.14844 5.66796l-1.06641 2.21094m14.47266-2.27734l-4.32813-5.53516m4.32813 5.53516l-1 2.24219m13.875-1.94922l-3.44922-6.1211m3.44922 6.1211l-1.32032 2.0664m15.9336-3.33593l-6.04297-3.58204m5.16406 3.0625l-.0586 1.22657m13.89063-.20313l-5.32031-4.58984m5.32031 4.58984l-.54297 2.39453m13.01953-1.6875l-3.64453-6.0039m3.64453 6.0039l-1.2539 2.10938m11.17187-1.97266l3.15235-6.27734m-3.15235 6.27734l-2.45312.0586m14.14844-1.73438l6.38671-2.92578m-6.38671 2.92578l-1.94922-1.48828m2.8789 1.0625l-.97656-.74219m13.375 1.19531l6.36328-2.98047M433.75 428.5586l-1.96094-1.47656m2.88672 1.04297l-.98047-.73828m13.55078 1.51172l6-3.66016m-6 3.66016l-2.10937-1.25m2.98437.71875l-2.11328-1.2539M460.8086 429.25l5.50782-4.36328m-5.50782 4.36328l-2.25-.98438m3.05079.34766l-2.25-.98047m3.05078.34766l-1.125-.49219"/><g clip-path="url(#I)"><path fill="none" stroke="#000" stroke-linecap="round" stroke-linejoin="round" stroke-miterlimit="10" stroke-width=".5" d="M146.6289 416.08594l-5.2578-4.66406"/></g><path fill="none" stroke="#000" stroke-linecap="round" stroke-linejoin="round" stroke-miterlimit="10" stroke-width=".5" d="M145.86328 415.40625l-.28516 1.1914m14.94922-1.42187l-6.42578-2.84375m6.42578 2.84375l.17578 2.44531M174.125 414.125l-6.98828-.74219m5.97266.63281l.45703 1.13672m13.49218.23047l-6.22656-3.26172m5.32031 2.78907l.00782 1.22656m14.5039-1.51172l-6.8086-1.74219m5.82032 1.48828l.28906 1.19141m14.04688-2.53516l-6.875 1.45313m20.17578-1.51953l-6.84375 1.58593m5.84766-1.35546l.80468.92578m12.82032 1.83984l-5.47266-4.40625m5.47266 4.40625l-.46094 2.41016m14.16016-2.9961l-6.23829-3.23828m6.23828 3.23828l.02344 2.45703m13.21485-2.3203L260.79297 412m6.08594 3.50781l-.08203 2.45313m12.17187-1.19922l-3.63672-6.01563m3.63672 6.01563l-1.25781 2.10547m14.11328-1.875l-2.71485-6.48047m2.71485 6.48047l-1.55469 1.90234m13.82422-1.64062l-.625-7m.625 7l-2.05469 1.33984m15.95703-1.44531l-1.80078-6.79297m1.80078 6.79297l-1.79687 1.67187m14.36328-1.55469l-.30469-7.02343m.30469 7.02343l-2.11328 1.2422m15.29297-1.2422l-.03125-7.02734m.03125 7.02734l-2.16016 1.16407m16.03125-1.21094l-1.14453-6.9336m1.14453 6.9336l-1.94922 1.49219m14.76172-1.44532l-.14062-7.02343m.12109 6l-1.07422.59765m14.01563.41407l.64843-7m-.55468 5.98046l-1.13282.47266m15.89063.34375l-2.42578-6.59375m2.07422 5.63281l-.82032.91797m13.16407-6.76562l.22265 7.02343m-.1914-6.0039l1.0625-.60938m9.78906.67578l5.08203 4.85157m-5.08203-4.85157l.66406-2.36328m13.29688 1.83203l3.79296 5.91407m-3.79296-5.91407l1.19921-2.14062m10.5 5.19531l7.02344-.19531m-7.02344.19531l-1.21093-2.13281m14.58203 2.67578l6.91015-1.28125m-6.91015 1.28125l-1.52735-1.92187m2.53516 1.73437l-.76562-.96094"/><g clip-path="url(#J)"><path fill="none" stroke="#000" stroke-linecap="round" stroke-linejoin="round" stroke-miterlimit="10" stroke-width=".5" d="M147.30469 401.63281l-6.60938-2.39062"/></g><path fill="none" stroke="#000" stroke-linecap="round" stroke-linejoin="round" stroke-miterlimit="10" stroke-width=".5" d="M146.34375 401.28516l.17188 1.21484m13.64453 0l-5.69141-4.1211m4.86328 3.51954l-.16797 1.21484m14.44922-.82031l-5.96484-3.71094m5.96484 3.71094l-.16406 2.44922m12.67187-7.0625l-4.35156 5.51953m3.71875-4.71875l1.20703.21875m10.57813-1.77344l-.02344 7.02735m.01953-6.00782l1.08594-.57031m9.01562 4.5l6.41016-2.875m-5.48047 2.45703l-.96875-.75m19.78906 1.11328l-6.46093-2.76172m5.51953 2.35938l.10547 1.22265m13.41015.27735l-4.98047-4.96094m4.25391 4.23828l-.35547 1.17578m12.54297.52344l-1.27344-6.91015m1.27344 6.91015l-1.92188 1.52344m17.33594-2.77344l-5.46875-4.41406m4.67188 3.77344l-.23047 1.20312m15.01953-3.61719l-6.82031 1.69532m15.8789 2.5625l1.69141-6.82032m-1.44531 5.82813l-1.1914.30078m13.38671.34766L305.5 397.375m-3.4375 6.1289l-2.45313-.05468m15.9336.14062l3.10547-6.30468m-2.65235 5.38671l-1.22656.03907m14.02735.84765l3.23046-6.24218m-2.76171 5.33593l-1.22657.01172m16.05469 1.26953l-.73438-6.98828m.625 5.96875l-1.01562.6875m11.76172-.51562l4.6211-5.29688m-4.6211 5.29688l-2.39063-.55469m14.80079-.67188l6.42968-2.83984m-5.49219 2.42578l-.96484-.75781m13.26953-1.48828l6.57813 2.47656m-5.6211-2.11328l-.15625-1.21875m12.3086 1.71484l6.98828.75782m-6.98828-.75782l-.91016-2.27734m15.32813.08203l4.78125 5.15235m-4.08594-4.40235l.40234-1.16015m14.14453-.4961l.92579 6.96485m-.92579-6.96485l1.9961-1.42969m-1.85938 2.44141l.9961-.71484m12.70312-.32813l-.11328 7.02735m.11328-7.02735l2.1875-1.11719m-2.20312 2.14063l1.09375-.5586m10.49609-.03515l3.3711 6.16406m-3.3711-6.16406l1.34766-2.05078m-.85938 2.94922l.67578-1.02735m10.98438 1.16016l5.70312 4.10156m-5.70312-4.10156l.32812-2.42969"/><g clip-path="url(#K)"><path fill="none" stroke="#000" stroke-linecap="round" stroke-linejoin="round" stroke-miterlimit="10" stroke-width=".5" d="M146.40234 389.6875l-4.80468-5.1289"/></g><path fill="none" stroke="#000" stroke-linecap="round" stroke-linejoin="round" stroke-miterlimit="10" stroke-width=".5" d="M145.70313 388.9414l-.39454 1.16016m14.52735-.53125l-5.04297-4.89453m5.04297 4.89453l-.6836 2.35547m14.66797-6.27344l-6.38281 2.94141m5.45313-2.51172l.97656.74219m13.16406-1.3789l-6.17188 3.35546m6.17188-3.35547l2.04688 1.35156m10.91015-1.88671l-5.45703 4.42578m5.45703-4.42578l2.25781.95312m-3.05078-.3086l1.1289.47657m12.45704 3.82422l-4.41406-5.46485m4.41406 5.46485l-.96094 2.25781m15.58203-4.84375l-7.02343-.29297m7.02343.29297l1.0586 2.21094m10.20312-5.55469l-2.91406 6.39453m12.58594-.44531l4.3711-5.5039m-3.73438 4.70312l-1.20703-.22266m13.65234.82031l4.83594-5.09765m-4.83594 5.09765l-2.36719-.65625m14.88672-3.3125l6.42578 2.83985m-5.49219-2.42578l-.08593-1.22656m12.17187 2.43359l7.01563-.40235m-5.9922.34375l-.63671-1.04687m13.3086 2.50781l6.2539-3.20703m-6.2539 3.20703l-2.01172-1.40234m2.92187.9336l-1.0039-.69923m13.09374.26172l6.88672-1.39453m-6.88672 1.39453l-1.55859-1.89453m15.54297 3.35156l5.55078-4.30859m-4.7461 3.6836l-1.11718-.50391m14.625 2.0039l3.55469-6.05859m-3.03907 5.17969l-1.22656-.05469m12.3086-1.74219l6.98828-.70703m-6.98828.70703l-1.36329-2.04297m16.73047-1.51562l2.88282 6.41015m-2.46094-5.47656l.75-.96875m16.5586 1.36719l-5.94532 3.7461m5.94531-3.7461l2.1289 1.21875m11.1172-1.32031l-5.8086 3.94922m5.8086-3.94922l2.17187 1.14453m10.33984-1.98438l-4.20312 5.63282m4.20312-5.63282l2.42579.3711m10.89453-.36719l-4.21485 5.6211m4.21485-5.6211l2.42578.3789m-3.03906.4375l1.21484.19141m12.34766-1.25l-3.48047 6.10547m3.48047-6.10547l2.45312.07422m-2.96094.8164l1.22657.03516m11.53125-1.3203l-1.34766 6.89452m1.34766-6.89453l2.34765-.71484m-2.54687 1.71875l1.17578-.35938m12.77344-.53125l-2.22266 6.66797m2.22266-6.66797l2.42187-.40625m-2.7461 1.3789l2.42188-.41015"/><g clip-path="url(#L)"><path fill="none" stroke="#000" stroke-linecap="round" stroke-linejoin="round" stroke-miterlimit="10" stroke-width=".5" d="M144.61328 377.26953l-1.22656-6.92187"/></g><g clip-path="url(#M)"><path fill="none" stroke="#000" stroke-linecap="round" stroke-linejoin="round" stroke-miterlimit="10" stroke-width=".5" d="M144.61328 377.26953l-1.9336 1.51172"/></g><path fill="none" stroke="#000" stroke-linecap="round" stroke-linejoin="round" stroke-miterlimit="10" stroke-width=".5" d="M159.22266 376.75781l-3.81641-5.89844m3.8164 5.89844l-1.1914 2.14453m16.07031-4.55859l-6.94531-1.07031m5.9375.91406l.40234 1.15625m13.82032-2.52734l-6.7422 1.98046m6.7422-1.98046l1.71484 1.7539m11.03906-2.8711l-5.6211 4.21876m5.6211-4.21875l2.22266 1.04297m11.73828.42578l-6.91016 1.28125m5.90235-1.09375l.76562.96094m11.52344 2.70312l-2.84375-6.42578m2.84375 6.42578l-1.51563 1.9336m16.89063-4.6875l-6.96484-.91407m6.96484.91406l.86328 2.29688m-1.875-2.42969l.85938 2.29688m13.49609-2.80469l-7.01953.36328m7.01953-.36328l1.26172 2.10547m-2.28516-2.05078l1.26172 2.10547m13.07813-1.89454l-7.02344-.16406m7.02344.16406l1.10156 2.19141m-2.125-2.21484l1.10156 2.1914m13.23438-2.3789l-7.01953.25781m7.01953-.25781l1.23047 2.125m-2.25-2.08594l.61328 1.0625m13.36328-2.53125l-6.30078 3.11328m5.3828-2.66015l.9961.71875m12.70313-1.95704l-5.23438 4.6875m4.47266-4.0078l1.15234.42577m13.73828.48438l-6.86328 1.5039m6.86328-1.5039l1.58985 1.8711m10.79687 1.34765l-5.00781-4.92969m4.28125 4.21094l-.35156 1.17578m10.20703.16406l3.36719-6.17187m-2.87891 5.27343l-1.22656-.01562m17.54687.83984l-3.6211-6.02344m3.09376 5.14454l-.6289 1.05468m15.95312-1.96484l-6.58594-2.44531m6.58594 2.44531l.32812 2.4336m-1.28515-2.78907l.32422 2.42969m14.16015-3.07422l-7.01172-.44531m7.01172.44531l1.01563 2.23438m-2.03516-2.30079l1.01172 2.23829M400.5 373.84375l-7.02734-.07422m7.02734.07422l1.1289 2.17969m-2.15234-2.1875l.5664 1.08984m11.85157-4.25l-3.1875 6.26172m2.72656-5.34766l1.22657-.02343m9.21875-.8125l3.47265 6.10937m-3.47265-6.10937l1.3164-2.07032m12.11719 2.00782l3.23828 6.23437m-3.23828-6.23437l1.39453-2.02344m-.92187 2.92969l.6953-1.01172m13.00392-.20703l1.52343 6.85937m-1.52343-6.85937l1.86328-1.59375m-1.64063 2.58984l.9336-.79688m12.68359-.27343l.47656 7.00781m-.47656-7.00781l2.08203-1.29688m-2.01172 2.3164l2.08203-1.29687"/><g clip-path="url(#N)"><path fill="none" stroke="#000" stroke-linecap="round" stroke-linejoin="round" stroke-miterlimit="10" stroke-width=".5" d="M143.54688 363.97656l.90625-6.96875"/></g><path fill="none" stroke="#000" stroke-linecap="round" stroke-linejoin="round" stroke-miterlimit="10" stroke-width=".5" d="M158.65625 363.74219l-2.67969-6.4961m2.67969 6.4961l-1.5625 1.89062m16.42578-3.13672l-5.77734-4.0039m4.9336 3.42187l-.14063 1.21485m14.92187-2.72266l-7.02344.17188m7.02344-.17188l1.20313 2.14063m11.7539-3.60157l-6.3086 3.09766m6.3086-3.09766l1.98828 1.4375m11.60938-.625l-6.8711 1.47266m6.8711-1.47266l1.57812 1.875m-2.57812-1.66015l.78906.9375m13.46484.5664l-6.75-1.96484m6.75 1.96484l.5 2.40235m-1.48437-2.6875l.5 2.40234m13.92578-2.82813l-7.0039-.54687m7.0039.54688l.98047 2.25m-2-2.32813l.98047 2.25m13.32812-2.96875l-6.94922 1.05078m6.94922-1.05078l1.46094 1.96875m-2.47266-1.8164l.73047.98437m13.38282-1.91797l-6.52344 2.60938m6.52344-2.60938l1.875 1.58594m11.61328-1.02735l-6.86719 1.4922m6.86719-1.4922l1.58203 1.8711m11.40234-2.76953l-6.20703 3.29296m6.20703-3.29296l2.03125 1.37109m11.3164-1.30469l-6.27733 3.15625m5.36718-2.69531l1 .70703m10.08985-3.10156v7.02734m0-6.0039l1.08203-.57813m12.82422-.39453l-1.1875 6.92578m17.2539-2.39062l-6.6914-2.14454m5.71875 1.83204l.21875 1.20703m13.58984.0625l-5.73047-4.0625m5.73047 4.0625l-.3086 2.4336m-.52343-3.02345l-.3125 2.4336m-.52344-3.02344l-.15625 1.21484m15.69922-1.28906l-6.85156-1.55078m6.85156 1.55078l.64844 2.36719m-1.64453-2.59375l.32422 1.1836m13.54296-3.59376l-5.96093 3.71875m5.96093-3.71875l2.125 1.23047m-2.99218-.6875l1.0625.61328m11.86328-2.35547l-3.44922 6.1211m3.44922-6.1211l2.45312.0586m9.05469-.51172l.16406 7.02344m-.16406-7.02344l2.14063-1.20313m9.3828 1.7461l3.75 5.9414m-3.75-5.9414l1.21485-2.13281m11.55469 2.55468l4.83984 5.09375m-4.83984-5.09375l.77734-2.32812m-.07422 3.07031l.39063-1.16406m12.46484.21094l4.35157 5.51562m-4.35157-5.51563l.98828-2.24609m-.35546 3.05078l.49218-1.125m13.15235-.21875l2.42578 6.59375m-2.42578-6.59375l1.63672-1.82812m-1.28125 2.78906l.8164-.91406"/><g clip-path="url(#O)"><path fill="none" stroke="#000" stroke-linecap="round" stroke-linejoin="round" stroke-miterlimit="10" stroke-width=".5" d="M143.92969 350.6914l.14062-7.02734"/></g><g clip-path="url(#P)"><path fill="none" stroke="#000" stroke-linecap="round" stroke-linejoin="round" stroke-miterlimit="10" stroke-width=".5" d="M143.92969 350.6914l-2.1875 1.10938"/></g><path fill="none" stroke="#000" stroke-linecap="round" stroke-linejoin="round" stroke-miterlimit="10" stroke-width=".5" d="M159.60547 349.83984l-4.58203-5.32421m4.58203 5.32421l-.88672 2.28907m.22266-3.0625l-.44532 1.14453m14.79297-.73438l-5.3164-4.59765m5.3164 4.59765l-.54687 2.39063m14.66797-5.27735l-6.9297 1.17579m6.9297-1.17579l1.49609 1.94532m11.86719-1.32032l-7.02735-.07421m7.02735.07421l1.1289 2.1797m-2.15234-2.1875l.5664 1.08983m13.77344-1.05078l-7.02734-.13671m7.02734.13671l1.10547 2.19141m-2.1289-2.21094l1.10937 2.1875m-2.13281-2.20703l.55469 1.09375m14.80468-1.27344l-7.02343.30079m7.02343-.30079l1.2422 2.1172m-2.26563-2.07032l1.24218 2.11328m-2.26172-2.07031l.6211 1.05469m14.69922-1.51954l-6.94922 1.05079m6.94922-1.05079l1.46484 1.96875m-2.47656-1.8164l1.46484 1.96875m12.84766-2.21094l-6.91797 1.23047m6.91797-1.23047l1.51172 1.92969m-2.51953-1.75l1.51562 1.92969m12.73438-2.42579l-6.77344 1.86329m6.77344-1.86329l1.6875 1.78516m-2.67188-1.51172l.84375.89063m13.44531-1.20313l-6.7539 1.9414m6.7539-1.9414l1.70704 1.76172m11.6953-1.3789L287 347.76561m5.92188-1.0039l.75.96875m13.0664-2.44922l-5.91406 3.79688m5.05469-3.2461l1.0664.60156m11.28125-2.58203l-2.26172 6.65235m1.9336-5.6836l1.21094-.19531m14.32812.77344l-6.05469 3.5625m5.17578-3.04688l1.04688.64453m12.55469 3.15235l-4.8672-5.0664m4.8672 5.0664l-.76563 2.33203m.0586-3.0664l-.38282 1.16406m14.82813-.91407l-5.71485-4.09375m5.71485 4.09375l-.32813 2.42969m-.5039-3.02734l-.16407 1.21484m14.94141-3.09766l-6.97266.86329m6.97266-.86329l1.41016 2.00782m-2.42578-1.88282l.70312 1.00391m12.02344-3.66016l-3.76953 5.9297m3.76953-5.9297l2.44922.1875m-2.9961.67188l1.22266.09765m10.78125-1.5078l-.05078 7.02734m.05078-7.02735l2.17578-1.13672m-2.1836 2.16016l1.08985-.57031m11.33203-.33985l1.7539 6.8047m-1.7539-6.8047l1.8086-1.65625m-1.5547 2.64454l.90626-.82813m11.28515.1914l3.4922 6.09766m-3.4922-6.09765l1.3086-2.07422m10.8086 3.20703l5.88671 3.83203m-5.03125-3.27344l.10938-1.22265m14.39843-.81641l1.78907 6.79297m-1.52735-5.80469l.89844-.83203m14.14062-.09766l-2.18359 6.6797m2.1836-6.6797l2.41796-.42187"/><g clip-path="url(#Q)"><path fill="none" stroke="#000" stroke-linecap="round" stroke-linejoin="round" stroke-miterlimit="10" stroke-width=".5" d="M145.6211 336.98047l-3.2422-6.23438"/></g><g clip-path="url(#R)"><path fill="none" stroke="#000" stroke-linecap="round" stroke-linejoin="round" stroke-miterlimit="10" stroke-width=".5" d="M145.6211 336.98047L144.22655 339"/></g><path fill="none" stroke="#000" stroke-linecap="round" stroke-linejoin="round" stroke-miterlimit="10" stroke-width=".5" d="M145.14844 336.07422l-.69531 1.01172m15.42968-.82422l-5.13672-4.79688m5.13672 4.79688l-.63672 2.3711m-.10937-3.07032l-.63672 2.3711m14.89453-1.90235l-5.52734-4.33594m5.52734 4.33594l-.4336 2.41797m-.37109-3.04688l-.21484 1.20704m14.5625-.90625l-5.98438-3.6797m5.98438 3.6797l-.15234 2.44921m-.71875-2.98437l-.07422 1.22265m14.3789-.89453l-6.22265-3.26562m6.22265 3.26562l.01172 2.45313m-.91797-2.92969l.01172 2.45703m14.61328-3.5664l-7.02734-.09375m7.02734.09375l1.1211 2.17968m-2.14453-2.1953l1.125 2.18358m-2.14844-2.1953l1.125 2.17968m-2.14453-2.19531l.5586 1.09375m15.66405-2.13281l-6.71093 2.0703m6.71093-2.0703l1.7422 1.73046m-2.71876-1.42968l1.74219 1.73046m-2.71875-1.42968l1.74219 1.73047m-2.71875-1.4297l.87109.8672m15.16406-2.29688l-6.29297 3.125m6.29297-3.125l1.9961 1.42578m-2.91016-.97265l1.9961 1.42968m-2.91407-.97265l1 .71094m14.125-1.66797l-6.2461 3.21875m6.2461-3.21875l2.01563 1.39843m-2.92578-.92968l2.01562 1.39843m11.8164-2.46875l-5.46093 4.42188m5.46094-4.42188l2.2578.95704m-3.05468-.3125l1.13281.47656m12.0547-1.92578l-3.61329 6.03125m3.08594-5.15235l1.22656.0625m13.92578.44922l-6.23047 3.25m5.32422-2.77734l1.01172.69531m13.47656 1.41016l-6.76562-1.90625m6.76562 1.90625l.51953 2.39843m12.89454-2.89843l-6.96485-.90625m6.96485.90625l.86328 2.29687M333.92187 334l-7.02343-.27734m7.02344.27734l1.0664 2.21094m11.58985-.29688l-5.70313-4.10156m5.70313 4.10156l-.32813 2.42969m-.5-3.02734l-.16797 1.21484m14.73828-1.40625l-6.5586-2.52344m6.5586 2.52344l.29688 2.4375m-1.25-2.80469l.14844 1.21875m14.09375-3.4414l-6.50782 2.65625m6.50781-2.65625l1.88672 1.5703m-2.83203-1.18358l.9414.78515m12.2422-2.60156l-4.35547 5.51562m4.35547-5.51562l2.41406.4414m-3.04688.36329l2.41407.4375m9.70312-1.98047l-.6914 6.99219m.6914-6.9922l2.27344-.93359m-2.3711 1.94922l1.13282-.46484m11.30469-.51172l1.2578 6.91406m-1.2578-6.91406l1.92578-1.52344m-1.7422 2.53125l1.92579-1.52344m15.34766 3.8711l-7.02344.20312m7.02344-.20312l1.21484 2.13281m11.4375.02735l-5.69922-4.1172m5.69922 4.1172l-.33594 2.42968m-.4961-3.03125l-.33202 2.4336m15.14453-3.89063h-7.02735m7.02735 0l1.14844 2.16797m-2.17188-2.16797l1.15235 2.16797m12.6914-3.96094l-6.04297 3.58594"/><g clip-path="url(#S)"><path fill="none" stroke="#000" stroke-linecap="round" stroke-linejoin="round" stroke-miterlimit="10" stroke-width=".5" d="M466.58203 332.07031l2.09766 1.27344"/></g><g clip-path="url(#T)"><path fill="none" stroke="#000" stroke-linecap="round" stroke-linejoin="round" stroke-miterlimit="10" stroke-width=".5" d="M465.70313 332.58984l2.09765 1.27735"/></g><g clip-path="url(#U)"><path fill="none" stroke="#000" stroke-linecap="round" stroke-linejoin="round" stroke-miterlimit="10" stroke-width=".5" d="M147.01172 322.35938l-6.02344-3.6211"/></g><path fill="none" stroke="#000" stroke-linecap="round" stroke-linejoin="round" stroke-miterlimit="10" stroke-width=".5" d="M147.01172 322.35938l-.1289 2.44921m-.7461-2.97656l-.1289 2.44922m-.75-2.97656l-.0625 1.22656m15.05468-.05469l-5.8711-3.85937m5.8711 3.85937l-.22656 2.44531m-.625-3.0039l-.23047 2.4414m-.625-3.0039l-.11328 1.22265m15.07031-.0039l-5.74219-4.05078m5.74219 4.05078l-.30469 2.4336m-.52734-3.02344l-.3086 2.43359m13.13282-.71485l-3.09375-6.30859m3.09375 6.3086l-1.4375 1.98828m14.0586-1.73438l-1.70704-6.8164m1.70703 6.8164l-1.82422 1.64063m1.57422-2.63282l-.91016.82032m16.88672-1.9375l-6.52734-2.60157m6.52734 2.60157l.26563 2.4414m12.60547-5.83594l-5.64063 4.19141m5.64063-4.1914l2.21484 1.05078m-3.03516-.44141l1.10547.52344m13.01563-1.15235l-5.61328 4.23047m5.61328-4.23047l2.22266 1.03516m-3.03907-.42188l2.22266 1.03907m-3.03906-.42188l1.11328.51953m13.83203-1.75l-5.60938 4.23047m5.60938-4.23047l2.22656 1.03516m-3.04297-.42188l2.22656 1.03907m10.76172-2.63281l-3.3203 6.1914m3.3203-6.1914l2.45313.0078m-2.9375.89063l2.45703.01172m10.30078-1.27344l-1.23828 6.91797m1.23828-6.91797l2.33594-.7539m-2.51563 1.75781l1.16797-.375m14.33985.5039l-5.26563 4.65235m4.5-3.97656l1.14844.42969m13.58594 2.46093l-6.57422-2.48437m6.57422 2.48437l.3125 2.4336m12.84375-2.07032l-6.25391-3.21093m6.2539 3.21093l.03516 2.45313m-.94531-2.91797l.03516 2.45313m14.48437-2.80079l-6.84375-1.58593m6.84375 1.58593l.63672 2.3711m-1.63281-2.60156l.63672 2.37109m13.53515-1.67188l-6.5625-2.51953m6.5625 2.51953l.29688 2.4336m-1.2539-2.80078l.30077 2.43359m14.20313-3.3789l-7.02735.10156m7.02735-.10157l1.1836 2.15235m11.59765-3.96094l-5.96094 3.72266m5.96094-3.72266l2.125 1.22656m-2.99219-.6875l1.0625.61328m12.21484-2.1289l-4.14843 5.67187m4.14843-5.67187l2.4297.35156m-3.03126.47656l2.42578.34766m10.33985-1.73047l-1.84766 6.78125m1.84766-6.78125l2.39062-.53906m-2.66015 1.52734l2.39453-.54297m11.41015-.375l-2.28906 6.64453m2.28906-6.64453l2.42188-.38281m-2.7539 1.34766l2.42187-.38282m13.4453 3.75782l-6.72655-2.03516m6.72656 2.03516l.47266 2.40625m11.80859-.79297l-4.66016-5.26172m4.66016 5.26172l-.85938 2.29687m.1797-3.0625l-.85548 2.29688m15.83985-5.3164l-6.63672 2.30858m6.63672-2.30859l1.79687 1.66797m-2.76562-1.33203l.90234.83203m11.875-3.02344l-3.625 6.01953"/><g clip-path="url(#V)"><path fill="none" stroke="#000" stroke-linecap="round" stroke-linejoin="round" stroke-miterlimit="10" stroke-width=".5" d="M465.375 317.53906l2.44922.1289"/></g><path fill="none" stroke="#000" stroke-linecap="round" stroke-linejoin="round" stroke-miterlimit="10" stroke-width=".5" d="M464.84766 318.41406l2.44921.1289m-2.97656.7461l2.44922.13281"/><path fill="#00f" fill-rule="evenodd" d="M441.5 467.64844h8.61719V457.5039H441.5v10.14453"/><path fill="azure" fill-rule="evenodd" d="M443.33203 459.33594h.83203v2.82422h3.28906v-2.82422h.83204v6.48047h-.83204v-2.91797h-3.28906v2.91797h-.83203v-6.48047"/><path fill="#ff3030" fill-rule="evenodd" d="M229.15234 449.89453h7.69141V439.75h-7.6914v10.14453"/><path fill="azure" fill-rule="evenodd" d="M230.98438 441.58203h.83203v5.73828h3.1953v.74219h-4.02733v-6.48047"/><path fill="#ff3030" fill-rule="evenodd" d="M357.86328 449.89453h7.69531V439.75h-7.6953v10.14453"/><path fill="azure" fill-rule="evenodd" d="M359.69922 441.58203h.83203v5.73828h3.1914v.74219h-4.02343v-6.48047"/><path fill="#ff3030" fill-rule="evenodd" d="M273.53516 401.07422h7.6914v-10.14844h-7.6914v10.14844"/><path fill="azure" fill-rule="evenodd" d="M275.36719 392.76172h.83594V398.5h3.1914v.73828h-4.02734v-6.47656"/><path fill="#ff3030" fill-rule="evenodd" d="M211.39844 370.0039h7.6914v-10.14452h-7.6914v10.14453"/><path fill="azure" fill-rule="evenodd" d="M213.23047 361.6914h.83594v5.73829h3.1914v.74219h-4.02734v-6.48047"/><path fill="#ff3030" fill-rule="evenodd" d="M304.60547 370.0039h7.6914v-10.14452h-7.6914v10.14453"/><path fill="azure" fill-rule="evenodd" d="M306.4375 361.6914h.83203v5.73829h3.19531v.74219h-4.02734v-6.48047"/><path fill="#ffffe0" fill-rule="evenodd" d="M346.85156 405.74219h22.17969v-10.1914h-22.17969v10.1914"/><path fill-rule="evenodd" d="M350.34766 397.38281h.51171v6.29688h-.78906v-4.49219h-1.38672v-.55469l.5586-.0664.2539-.05079.22657-.08984.20312-.14062.17578-.21094.14063-.29688.10547-.39453m4.8164 0l.22656.01953.21875.0547.21094.08983.19531.1211.1836.14844.17187.17578.30079.42187.24609.49219.17969.54688.10937.57812.03906.59375-.03906.58984-.10937.58594-.1797.55469-.24608.5-.30079.42969-.17187.17968-.1836.15235-.1953.125-.21094.08984-.21875.0586-.22657.01953-.23047-.01954-.21875-.05859-.20703-.08984-.19922-.125-.18359-.15235-.17188-.17968-.30078-.4297-.24218-.5-.1797-.55468-.11327-.58594-.03906-.58984h.83593l.02735.5625.08203.5039.125.44532.16406.3711.1914.30077.21094.22266.22266.13672.22656.04687.22656-.04687.22266-.13672.21094-.22266.1875-.30078.16406-.3711.125-.4453.08203-.50391.03125-.5625-.03125-.5625-.08203-.5-.125-.4375-.16406-.36328-.1875-.29297-.21094-.21484-.22265-.13282-.22657-.04296-.22656.04296-.22266.13282-.21093.21484-.19141.29297-.16406.36328-.125.4375-.08203.5-.02735.5625h-.83594l.03907-.59375.11328-.57813.17969-.54687.24218-.49219.30079-.42187.17187-.17578.1836-.14844.19921-.1211.20703-.08984.21875-.05469.23047-.01953m5.08985 0h.5078v6.29688h-.78515v-4.49219h-1.38672v-.55469l.5586-.0664.25-.05079.23047-.08984.20312-.14062.17578-.21094.14063-.29688.10547-.39453m2.82421 2.17578h.78516l.01953-.3164.0586-.28516.10156-.2539.14062-.21485.1797-.17187.22265-.13282.26562-.07812.3086-.02735.23828.01954.22265.0625.20313.10156.17969.14062.14843.17188.11329.20703.07421.23438.02344.26562-.01953.26953-.0664.22266-.10938.1914-.15625.17188-.20313.16406-.24609.16406-.63281.39063-.53906.3125-.4375.3164-.34375.32422-.26563.33594-.1914.35156-.125.3711-.06641.39062-.02344.42188h4.21484v-.74219h-3.33593l.08593-.28516.11329-.23437.14843-.20313.1875-.17968.23047-.17188.27735-.17578.71875-.41406.41406-.20703.34375-.23047.28125-.25.22265-.26953.16016-.27735.11328-.28515.0625-.28516.01953-.28125-.03906-.38281-.1211-.34766-.1914-.3086-.25-.26171-.30078-.21094-.34375-.16015-.38281-.09766-.40625-.03516-.4336.03516-.39844.09765-.35546.16407-.3047.23437-.25.30469-.18358.375-.1172.44531-.03906.51953"/><path fill="#ffffe0" fill-rule="evenodd" d="M195.27734 337.75781h22.1797v-10.1914h-22.1797v10.1914"/><path fill-rule="evenodd" d="M198.77734 329.39844h.50782v6.29297H198.5v-4.48829h-1.39063v-.55468l.5625-.0664.25-.0547.23047-.08984.20313-.14063.17578-.21093.14063-.29297.10546-.39453m4.8125 0l.23047.01953.21875.05469.20703.08984.19922.1211.1836.14843.17187.17578.30078.41797.24219.4961.17969.54687.11328.57813.03906.58984-.03906.59375-.11328.58594-.17969.55078-.24219.5039-.30078.4297-.17187.17968-.1836.15234-.19922.1211-.20703.09375-.21875.05859-.23047.01953-.22656-.01953-.21875-.0586-.21094-.09374-.1953-.1211-.1836-.15234-.17188-.17969-.30078-.42969-.24219-.5039-.18359-.55078-.10938-.58594-.03906-.59375h.83203l.03125.5625.08203.50781.125.4414.16407.375.1875.30079.21094.22265.22265.13672.22656.04688.22657-.04688.22265-.13671.21094-.22266.1914-.30078.16407-.375.125-.4414.08203-.50782.02734-.5625-.02734-.5586-.08203-.5039-.125-.4336-.16406-.36718-.19141-.28906-.21094-.21485-.22265-.13281-.22657-.04297-.22656.04297-.22266.13281-.21093.21485-.1875.28906-.16406.36719-.125.43359-.08204.5039-.03125.5586h-.83203l.03906-.58985.10938-.57812.1836-.54688.24218-.49609.30078-.41797.17188-.17578.1836-.14844.1953-.12109.21094-.08984.21875-.0547.22656-.01952m5.09375 0h.50782v6.29297h-.78516v-4.48829h-1.39063v-.55468l.5625-.0664.25-.0547.23047-.08984.20313-.14063.17187-.21093.14453-.29297.10547-.39453m2.82422 2.17578h.78516l.01953-.3164.0586-.28907.10156-.25.13672-.21484.18359-.17579.22266-.1289.26562-.07813.3086-.02734.23827.01953.22266.0625.20313.10156.17968.13672.14844.17578.11328.20704.07031.23437.02735.26563-.02344.26562-.0664.22656-.10938.1914-.15234.17188-.20313.16016-.2461.16797-.6328.38672-.53907.3164-.4375.31641-.34765.32422-.26172.33594-.1914.35156-.125.36719-.07032.39453-.01953.41797h4.21094v-.73829h-3.33204l.08203-.28515.1172-.23828.14452-.19922.1875-.17969.23047-.17187.28125-.17579.71485-.41796.41797-.20313.34375-.23437.28125-.25.21875-.26563.16406-.27734.11328-.28516.0625-.28515.01953-.28125-.04297-.38282-.11719-.34765-.1914-.3086-.25-.26172-.30078-.21484-.34766-.15625-.3789-.10156-.40626-.03125-.4375.03125-.39843.09765-.35157.16797-.30468.23438-.25.30469-.1836.375-.11719.4453-.03906.51954"/></g></defs><use xlink:href="#W"/></svg>