<svg xmlns="http://www.w3.org/2000/svg" role="img" xmlns:xlink="http://www.w3.org/1999/xlink" viewBox="142.45 309.95 326.84 171.84"><defs><clipPath id="a"><path d="M144 441h1v39.32813h-1zm0 0"/></clipPath><clipPath id="b"><path d="M144 311.67188h1V433h-1zm0 0"/></clipPath><clipPath id="c"><path d="M144 311.67188h324v168.65625H144zm0 0"/></clipPath><clipPath id="d"><path d="M411 436h57v44.32813h-57zm0 0"/></clipPath><clipPath id="e"><path d="M467 311.67188h1v168.65625h-1zm0 0"/></clipPath><clipPath id="f"><path d="M144 477h4v3.32813h-4zm0 0"/></clipPath><clipPath id="g"><path d="M153 479h9v1.32813h-9zm0 0"/></clipPath><clipPath id="h"><path d="M170 476h1v4.32813h-1zm0 0"/></clipPath><clipPath id="i"><path d="M181 477h5v3.32813h-5zm0 0"/></clipPath><clipPath id="j"><path d="M195 477h5v3.32813h-5zm0 0"/></clipPath><clipPath id="k"><path d="M208 476h5v4.32813h-5zm0 0"/></clipPath><clipPath id="l"><path d="M221 477h6v3.32813h-6zm0 0"/></clipPath><clipPath id="m"><path d="M234 477h6v3.32813h-6zm0 0"/></clipPath><clipPath id="n"><path d="M248 477h5v3.32813h-5zm0 0"/></clipPath><clipPath id="o"><path d="M261 477h5v3.32813h-5zm0 0"/></clipPath><clipPath id="p"><path d="M275 476h4v4.32813h-4zm0 0"/></clipPath><clipPath id="q"><path d="M286 478h8v2.32813h-8zm0 0"/></clipPath><clipPath id="r"><path d="M300 480h8v.32813h-8zm0 0"/></clipPath><clipPath id="s"><path d="M314 477h6v3.32813h-6zm0 0"/></clipPath><clipPath id="t"><path d="M327 478h7v2.32813h-7zm0 0"/></clipPath><clipPath id="u"><path d="M340 479h8v1.32813h-8zm0 0"/></clipPath><clipPath id="v"><path d="M353 479h8v1.32813h-8zm0 0"/></clipPath><clipPath id="w"><path d="M353 478h2v2.32813h-2zm0 0"/></clipPath><clipPath id="x"><path d="M368 477h5v3.32813h-5zm0 0"/></clipPath><clipPath id="y"><path d="M382 476h3v4.32813h-3zm0 0"/></clipPath><clipPath id="z"><path d="M396 476h2v4.32813h-2zm0 0"/></clipPath><clipPath id="A"><path d="M409 476h2v4.32813h-2zm0 0"/></clipPath><clipPath id="B"><path d="M421 477h5v3.32813h-5zm0 0"/></clipPath><clipPath id="C"><path d="M434 477h5v3.32813h-5zm0 0"/></clipPath><clipPath id="D"><path d="M446 478h8v2.32813h-8zm0 0"/></clipPath><clipPath id="E"><path d="M446 480h3v.32813h-3zm0 0"/></clipPath><clipPath id="F"><path d="M459 479h9v1.32813h-9zm0 0"/></clipPath><clipPath id="G"><path d="M458 479h3v1.32813h-3zm0 0"/></clipPath><clipPath id="H"><path d="M144 464h3v6h-3zm0 0"/></clipPath><clipPath id="I"><path d="M144 450h3v7h-3zm0 0"/></clipPath><clipPath id="J"><path d="M144 437h3v7h-3zm0 0"/></clipPath><clipPath id="K"><path d="M144 424h4v6h-4zm0 0"/></clipPath><clipPath id="L"><path d="M144 411h4v5h-4zm0 0"/></clipPath><clipPath id="M"><path d="M144 398h4v4h-4zm0 0"/></clipPath><clipPath id="N"><path d="M144 384h3v6h-3zm0 0"/></clipPath><clipPath id="O"><path d="M144 370h1v8h-1zm0 0"/></clipPath><clipPath id="P"><path d="M144 377h1v3h-1zm0 0"/></clipPath><clipPath id="Q"><path d="M144 356h1v9h-1zm0 0"/></clipPath><clipPath id="R"><path d="M144 363h1v3h-1zm0 0"/></clipPath><clipPath id="S"><path d="M144 362h1v2h-1zm0 0"/></clipPath><clipPath id="T"><path d="M144 343h1v8h-1zm0 0"/></clipPath><clipPath id="U"><path d="M144 350h1v3h-1zm0 0"/></clipPath><clipPath id="V"><path d="M144 349h1v2h-1zm0 0"/></clipPath><clipPath id="W"><path d="M465 344h3v2h-3zm0 0"/></clipPath><clipPath id="X"><path d="M144 330h2v8h-2zm0 0"/></clipPath><clipPath id="Y"><path d="M144 335h2v4h-2zm0 0"/></clipPath><clipPath id="Z"><path d="M465 331h3v2h-3zm0 0"/></clipPath><clipPath id="aa"><path d="M144 318h3v6h-3zm0 0"/></clipPath><clipPath id="ab"><path d="M465 317h3v2h-3zm0 0"/></clipPath><g id="ac" clip-path="url(#clip1)"><path fill="#fff" fill-opacity="0" fill-rule="evenodd" d="M0 0h1000v1000H0zm0 0"/><path fill="#d3d3d3" fill-opacity="0" fill-rule="evenodd" d="M162.15234 355.86719l-.23437.29297.0586.23437.11718.17188.17578.23437.29297.34766.11328.0586.11719-.17188.0586-.23438.17577-.17578.46485-.17578h.69922l.23437.29297.28906.8164.0586.17579.17578.23046.35156.23438.69922.69922.17188.17578.23437.34765.23438.41016.28906.58203.41015.46485.23047.23437.23438.17578.11719.23047.17578.29297.17187 1.16406v.23438l.0586.28906.05859.11719.11719.11719.34765.41015.11719.17188.17578.17578.17578.23437.11719.17188.17188.35156.05859.23438.23437.40625.23438-.0586-.17578.17578-.0586.92969h-.58203l-.23437-.11328-.34766.11328-.11719.11719-.05859.29297-.0586.17578-.11718.17187-.46484.29297-.0586.23438-.0586.11328v.64453l.0586.17187v.41016l.0586.0586v.40624l.05859.40625.11719.17579.05859.05859.23047.64062-.0586.29297v.69922l-.05859.58203v.23438l-.0586.23047-.05468.35156v1.92187l.05469.1172h.42578l-.36719.11718-.02344.35156.89063 1.16797 1.74219.53906 1.33984.35938v.53906l.08984.8086.53516.71484 1.51953.26953.89063-.08594.08984 1.16406.53516.1797 1.16015-.1797 2.05469-.98437 1.16016-.36328 1.8789-.17578 1.69531-.1797-.17968.71876-1.51563.08594-1.25.08984-.80469.26953-1.07421.8086.26953.71875.53515.89843-.17968.625-.26563.8086.26563 1.07812.625.89844.80468.17969 1.25-.1797-.26562.72267.09766.5039.05468.29297v.17188l.0586.29296v.40625l.17578.1172.35156.11718h.40625l.29297-.17578.11328-.11719.0586-.11719.11718-.23047.0586-.17578.35156-.46484.23047-.17578.17578-.0586.17578.0586.0586.17578.11718.98828.05469.46875.0586.17188.11718.23437.17578.0586.8164.05859h.28907l.11719.23437.05859.40625.0586.35156v1.10547l.11718.29297.11719.34766.28906.69922.17578.35156.58203.7539.35157.17579.17187.0586.46875.23437.64063.46484.34765.23438.29297.17578.29297.05468.23047.0625.8164.34766.29297.17578.11328.17188.35157.35156.11719.17578.52343.64063v.28906l.0586.35156v.34766l.05859.35156.0586.28906.11718.0586.17188.05859h.17578l.58203.23437.17578.1172.17578.28905.17578.23438.11328.23437.29297.23047.11719.11719v.41016l.0586.05468.28906.23438.23437.11719.0586.11718.11718.17188.0586.11719.23047.23437.05859.17578.23437.0586.1172.05859-.1172.11328-.05859.11719v.11719l-.11719.29296-.11719.28907v.58203l.17579.11719.11718.05859.0586.11719.11719.11719.11328.05859.17578.34765.0586.35157.05858.40625v.17578l-.05859.17578-.11719.69922v.17187l.1172.17579.29296.29296h.40625l.17578.1172.11719.17187.11719.29296v.23438h-.52735l-.23047-.23438h-.23437l-.17578.0586-.0586.69922.0586.34765.11719.17579.17578.41015.11718.23047.28907.46875.17578.05469h.52344l.23437.0586.75781.64062.0586.29296v.23438l.05859.0586.23047.34765v.35156l-.11719.17188v.29297l.29297.28906.29297.17578.17187.0586.29297.17577.29297.1172.58203.40624.28906.23438.29297.17578.21875.16015.01563.01172.23047.17579.64062.52343.17578.23438.1172.17578.17577.17578.11328.17188v.64062l.1172.17578.46874.11719.58203.11719.23438.05859.23047.11328.29297.11719.11328.0586.58593.35156.28907.17187.17578.0625.17578.05469.17578.0586.69922.35155.28906.17579.23438.05468.28906.17578.23437.1172.64063.40624.29297.11719.17187.0586.23438.05859.41015.05859.23047.0586.23438.11718.0586.17188-.41017.17578.46875.0586.0586.29296.11328.23438.17578.05468.23438.0586.17578.05859.40625.11719.64062.23437.11719.17188.0586.23437v.17578l-.0586.1172-.0586.40624.23438.23438.11719.05859.34766.11719.64062.23047.17578.11718.28906.1172.17578.17577.23438.46485.58203 1.10546.17578.17579.34766.17578.17578.11719.35156.11718 1.04688.52344.23437.0586.46485.11327.29297.0586.46484.17578.75781.58203.23438.23438.34765.46484.17578.17578.28907.23438.8164.69921.29297.17579.28906.28906.29297.17578.29297.28906.69531.64063.17578.17578.29297.23437.28907.23438.46875.28906.64062.58203.34766.23438.23437.29297.34766.34765.35156.46485.9336.99218.34765.40625.11719.17579.23437.05859.11328.11719.64454.17578.23047.11328.23437.0586.29297.17577.23047.1172.9336.69921.40624.40625.23438.17578.40625.17578.23437.11719.8164.34766.34766.23437.23438.11719.29297.28906.23047.11719.7578.35156.35157.17188.23047.05859.29297.11719.23437.0586.8711.17577h.8164l.46875.23047.17188.0586.875.69921.46484.1172.29297.05858.17578.0586.23047.0586.46875.05859.34766.05859.35156.0586.40625.05859h.29297l.17187.0586v.23046l.17578.17578h.29297l.34766.0586.35156.05859.69922.11719h.64063l.46484-.23438.29297-.17578.17187-.11719.41016-.17187.28906-.17578.9336-.46485.46875-.29297.52343-.29296.46485-.17188.46484-.17578 1.05078-.46485.28906-.11718.41016-.11719.28906-.11719.52735-.17578 1.51562-.69922.58203-.34765.28907-.0586.29297-.0586.34765-.11718.875-.23047.35156-.11719h.11329l.23437-.05859.875-.23437.23438-.0586h.8125l.35156-.0586.8164-.11718.17188-.0586.35156-.05468.29297-.0586.23047-.05859.8164-.17578.17579-.0586h.34765l.23438-.05859.46484-.11718.75781-.17188.23438-.0586h.34765l.41016-.11718.28906-.0586 1.28516-.05859h.28906l.41016-.0586.23047-.05858h.17578l.875-.1172h.40625l.41015-.11718h.34766l.35156-.11328.8711-.0586h1.75l1.04687.28907.41016.11719.28906.11718.35156.11719.28907.11719 1.05078.17187.28906.0586h.29297l.29297.05859.17187.0586.41016.05859.17187.0586.1172.05858h.11718l.11719.0586.35156.0586h.11328l.41016.0664 1.92187.39453 1.92578.39453 1.51953.44922 1.69532.71875 2.14453.80469 1.60547-.71875 1.42968-.80469 1.16016-1.07813 1.25-.44921 3.03516-.71875 1.875-.35938 2.14453-1.34765 2.23437-1.25391 2.5-1.25781 1.69531-.44922 1.78516-.17969 1.16016-.26953.625.53906 1.33984-.26953.71485-.98828.98437-1.34375.44531-.17969.80469-.35937 1.875-.53907 1.78516-.44921 1.25-.26954 1.16015-.08984 1.69922-.08984 1.96094-.26954 1.25-.08984h.53906l.625-.08984h.89063l2.14453-.17969 2.41015-.17969 2.58985-.08984 1.69531.17969 1.60938.08984 1.42968.35938 1.16016.71875 1.875.98828 1.16015 1.52734.26563.71484.6289.08985.35548.89844.53515.53906.53516 1.52734 1.07422.35938h.53515l-.80469.53515.08985 1.70703.71484 2.69532.89063.80468.89453.98829.71484 1.2578 1.78516.53907 1.51953-.17969.35547 1.34375 1.60937-.80469.98047-.53906.26953.26953.31641-.21484.21875-.14453.80078.44922.44922-.35938h.35547l.53515-.26953.53907-.71875.53515-.26953.625-.98828 1.16016.44922.83984.3711 1.39454.61718 1.6953-.17969h1.60548l1.78515.08985.17969-1.70704.53516-1.34375.80468.26954.4922.84765.40233.40625-.08984.53906v.35938l.71485.44922.71093-.26953h1.42969l.35938.98828.4453 1.25781.71485 1.34375 1.25.6289 1.69531.62891.71485-.17969.17969-.53906.98046-.08984.44922.35937.08594 1.25782-.26563.6289-.53515.17969v.53906l.71484.98438.26563.53906.98437.98828.80078 1.07813-.26562.35937-.08985.89844-.625 2.33203-.35546 2.0664-.08985 1.79298-.17969.71875-.08984.53906v1.4375l-.98047 1.88281-.35937 1.70703-.53516.89844-.80469 1.16797-.26562.53906 2.05469 1.2539.08593.35938-.35546.53906-.08985-.17968v.80859l.08985 1.4375-.44532.71484-1.07422.09375-.26562.71485.53515.89844.8047.71875 1.16015.80859 1.33984.26953.44531.35938-.35546.44921-1.78907-.08984-1.25-.44922-.71484-.71875-.625-.08984-.17578 3.58984-.1875 1.3086h89.35937V311.70313h-55.26953v49.08203l.76172.125 3.28906.54296 2.02344 2.83594v2.7539l2.35156.33204 2.34766.33203h4.05078l-1.3789 4.16016-2.02344.70703-2.02344.70312-.54297.34375-2.59375 1.6172-.1875.11718-2.02344-2.07813-.73046-2.74218-2.67188-2.07813-1.375-3.5-.0664-.08203-1.95704-2.67188 2.75-1.41796v-49.08204H294.42187v91.41407l.1172.03125.1328.01172.07422.07421.10547.04688.08985.0586.08593.05859.08985.0586.29687.29687.0586.08984.03125.11719.02734.11719.01563.13671-.03125.1172-.0586.08983-.0586.08594-.04296.10547-.04688.10156-.02734.1211v.14453l.17578.26953.14844.14844.07422.08594.07422.07421.04296.10547.0625.08985.0586.08593.04297.10547.0586.08985.04687.10156.04296.10547.0586.08594.11719.17968.07421.07422.0625.08594.0586.08984.04297.10547.0586.08985.05858.08593.0625.08985.0586.08984.04297.10156.11719.17969.07421.07422.0586.08594.07422.07421.08984.0586.10547.04687h.14844l.1328-.01562.13282.01562.10156-.04687.07422-.07422.04688-.10156-.01563-.13281v-.14844l-.04687-.10547-.02735-.11719-.04687-.10156-.02735-.1211-.04296-.10156-.0625-.08984-.04297-.10156-.04297-.10547-.03125-.11719-.01563-.13281-.01171-.13672.08593-.0586.0586-.08593.12109-.03125.04297.10547.01562.1328v.1172l.0586.10156.0586.08984.08983.0586.14844.14843.0586.08985.04296.10547-.01171.10156.08593.0586.10547.04687.08594.0586.08984.05858.07422.07422-.11719.02735-.10546.04687-.08594.0586-.07422.07421-.0586.08985-.0625.08594-.02734.12109-.04687.10156-.04297.10547-.03125.11719-.01172.13281-.01563.13281v.14844l.02735.11719.04687.10547.04297.10156.0586.08984.07421.07422.08985.0586.07422.07421.08984.0586.0586.08984.04296.10547.04688.10156.11719.03125.1328.01563h.14845l.11718-.03125.10547.04297.04297.10547.04688.10156.02734.1211L299.5 410l.02734.11719.03125.1211.02735.11718.10547.04297.10156.04687.13281-.01562.14844.14844.0625.08593.07422.07422.07031.07422.08984.0625.10547.04297.10156.04297.1172.03125.13671.01562.11719-.03125.07422-.07422.02734-.11718-.01172-.13282-.03125-.12109-.02734-.11719.04297-.10547h.11719l.08984.0625.11719.02735h.14843l.13282.01562h.14843l.13282.01563.1328-.01563h.14845l.1328-.01562.13282-.01172.13672.01172.11719-.02735.13281-.01562.1914-.0586-.05859.17579-.01562.1328-.02735.1211-.01562.13281-.0586.08594-.1328.01563-.10548.04687-.10546.04297-.1172.03125-.11718.02735-.26563.03125h-.14843l-.13281.01562-.07422.07422.05859.08594.14844.14843.11719.1797.07421.0703.08985.0625.08984.0586.08594.0586.08984.05858.10156.04297.10547.0625.10547.04297.08594.0586.10547.04687.10156.04297.17969.11719.0586.08984-.04298.10156-.04687.10547.01562.13281.22266.22266.0586.08985.04296.10156.03125.1211.04297.10155.01563.13282.03125.11718.01171.13672.03125.11719.14844.14844.10156.04297.10547.04296.1172.03125.1328.01563.13672.01563h.11719l.11719-.03125.08984-.0586.04297-.10547.04688-.10156.04296-.10547.03125-.11719.01172-.1328v-.14845l-.01172-.1328-.01562-.13282-.03125-.11719-.04297-.10547-.04688-.10547-.04296-.10156-.04297-.10547-.01563-.13281.01563-.13281.02734-.11719.03125-.11719.02735-.1211.04687-.10155.08984-.0586.08594-.0625.07422-.07422.08984-.05859.22266-.22266.0586-.08593.07421-.07422.11719-.17969.0586-.08594v-.14844l-.07423-.07421-.10156-.04688-.10547-.04297-.10156-.04297-.0586-.08984-.04687-.10547-.02734-.11719.08984-.05859.11719-.03125.10156-.04297.17969-.11719.14844-.14843.01172-.13282-.01172-.10546-.08985-.0586-.1328.01563h-.14845l-.1328.01562-.13282-.01562-.1211-.03125-.08593-.0586-.07422-.07422-.0586-.08984-.0625-.08594-.11718-.17969-.0586-.08593.03125-.1211.08594-.05859.1211-.03125.05859-.08594v-.1211l-.03125-.11718-.0586-.08984-.05859-.08594-.04687-.10547-.02735-.11719-.01562-.1328.0586-.08985.07421-.07422.08984-.0586.1172-.17968.07421-.07422.0586-.08594.14843-.14844.1211-.03125.1328-.01562.13282.01562.07422.07422.04297.10547.01562.13281-.03125.1172-.11719.03124-.1328.01172-.14844.14844-.04297.10547-.04688.10156-.02734.1211-.03125.11718v.14844l.03125.11719.04297.10546.05859.08985.07422.07031.07422.07422.11719.03125.12109.02734.11719-.02734.1328-.01563h.1172l.08984.0586.07422.07422.04687.10546.0586.08594.10156.04688.13281.01562.10547.04297.08594.0586-.01172.10546-.07422.07422-.17969.11719-.05859.08984-.08984.0586-.07032.07422-.07421.07421-.0625.08985-.02735.11719-.01562.1328.01562.13282-.01562.13281v.14844l.01562.13281.02735.1172.03125.12108.07421.07422.08985.0586.08594.0586.08984.05858.11719.03125v.08594l-.10157.04688-.08984.0586-.26563.03124-.11718.02735h-.14844l-.10547.04296-.10156.04688-.0586.08984-.0625.23438-.01171.13281-.03125.1211-.01563.1328v.29298l-.01172.1328.01172.13673.01563.1328.1328.01563.13282.01172.1211.03125.08593.0586.07422.07421.04688.10547.04296.10157.01563.1328v.44532l-.01563.13281v.44532l.03125.26562.02735.11719.01562.13281.03125.11719.08594.21094.03125.26562v.14844l-.03125.11719-.02734.11718-.03125.1211-.02735.11719-.03125.11718-.03125.1211-.01171.1328-.01563.13282.08984.0586.1172-.03125.10155.01562.04688.10547-.03125.26562v.44141l-.04297.10547-.04688.10547-.04296.10156-.04297.10547-.0586.08594-.03125.12109-.04296.11719-.03125.11719-.01563.1328.01563.13282.05859.08984.10547.04688.08594.0586.05859.08593-.01172.13672-.03125.11719-.04297.10156v.44531l-.01562.13281v.14844l-.03125.11719-.04297.10547-.02735.11719-.04687.10546-.04297.10157-.03125.12109-.02734.11719-.03125.13281-.03125.11719-.02735.11719-.04297.10546-.03125.1172-.03125.12108-.01171.13282-.01563.13281v.29688l.02734.11718v.14844l.04688.39844.02734.11719.0586.08984.12109.03125h.14844l.13281-.01563.0586.08985v.11719l-.0586.08984-.08984.0586-.10157.04296-.10546.04688-.08985.05859-.08594.0586-.13671.01562-.1172-.03125-.1328-.01563-.10157.04688-.0625.08594-.01172.13671-.01562.13282-.03125.11719-.02735.11718-.01562.13281-.03125.1211v.29687l.01563.13282.03125.11718v.14844l.01171.13281v.14844l-.02734.11719-.04688.10156-.02734.1211-.03125.11718-.0586.08985-.07421.07421-.10156.04297-.10547.04688-.11719.02734-.1211.03125-.10156-.04687.0586-.08594.10547-.04688.02734-.11718.03125-.11719.02734-.1211.03125-.11718v-.14844l.01563-.13281-.03125-.11719-.04297-.10547-.10547.01563-.07422.07422-.10156.04296-.08984.0625-.07422.07422-.04297.10157-.01563.1328-.03125.1172L304.25 426l-.03125.11719-.02734.11719-.03125.12109-.02735.11719-.03125.11718-.04297.10547-.08984.0586h-.08984l-.1172-.03125-.03124-.08594.01562-.13672-.03125-.11719v-.14844l-.01171-.1328v-.14844l-.0625-.23438-.02735-.1211-.04297-.10156-.04687-.10546-.0586-.08594-.05859-.08985-.04297-.10546-.0625-.08594-.14844-.14844-.0703-.07422-.10548-.04687-.10547-.04297-.10156-.04297-.29687-.29688-.08985-.07421-.08594-.0586-.10546-.04297-.08985-.0625-.08594-.0586-.10546-.04296-.08985-.0586-.08594-.0625-.07421-.0703-.10547-.04688-.08594-.0586-.10547-.04296-.08984-.0625-.10156-.04297-.10547-.04297-.08594-.0586-.10547-.04687-.10547-.04297-.10156-.04687-.08985-.0586-.10156-.04297-.10547-.04296-.08984-.0625-.11719-.02735-.13281-.01562-.13281.01562H299.75l-.13281.01563-.11719-.03125-.08984-.0586-.07422-.07422-.08985-.05859-.10156-.04688h-.14844l-.12109-.02734-.10156-.04297-.07422-.07422-.11719-.17968-.08984-.0586-.10156-.04297-.08985-.0625-.10547-.04296-.08984-.0586-.08594-.0586-.10547-.04687-.0586-.08594-.05858-.08984-.04297-.10547-.04688-.10156-.07422-.07422-.08594-.0586-.07421-.07421-.08985-.0586-.22265-.22265-.04297-.10547-.03125-.26563.10547-.04296h.14453l.10547.04296.07421.07422.08985.0586.08594.0586.10546.04687.08985.05859.14844.14844.0703.07422.14845.14843.0625.08594.07421.07422.08594.0586.07422.07421.08985.0625.08984.0586.08594.05859.26953.17578.10156.04688.10547.04296.10156.04297.04688-.07421.05859-.08594.07422-.07422.07031-.07422.10547.04297.07422.07422.0586.08984.04296.10156.04688.10547.04296.10547.1211.02735.11719-.02735.07421-.08984.04297-.10547.0586-.08985.07422-.07421.10546-.04297.1172-.02735.1328.01172.08985.0586.14844.14843.05859.08985.04297.10547.04687.10156.04297.10547.04297.10156.10547.04688.10547.04296.13281.01563.08594-.0586.0586-.08984.07421-.07422.10547-.04297.11719.02735.10547.04687.10156.04297.10547.04297.10156.04688.17969.11718v.11719l-.01563.13281.01563.13281.01562.13672.0586.08594.10156.04688.1211.02734.11718.03125h.14844l.11719-.03125.05859-.08984.17969-.1172.05859-.08983.07422-.07422.0586-.08594.11718-.17969.17969-.11719.11719.03125.08984.0586.04297.07422-.01563.1328v.1172l.08985.05859h.14843l.13282-.01563.1328-.01171.26563-.03125.10547-.04297.11719-.03125.1211-.02735.07421-.07421.07031-.07422.0625-.08985-.01562-.10547-.04688-.10156-.10156-.04297-.10547-.01562-.11718.02734-.26563.03125h-.14844l-.07421-.07422-.08985-.0586-.11719-.03124-.11718-.02735-.13282-.01562h-.14843l-.13282.01563h-.29687l-.10547-.04688-.14844-.14844-.04297-.10156-.05859-.08984.22266-.22266.08593-.0586.10547-.04296.11719-.03125.13281-.01563.13281.01563.13672.01562.10157.04297.1328-.01172.08985-.0625.10156-.04297.0625-.08984-.04687-.10156-.08984-.0586-.1172-.03125-.10155-.04296-.0586-.08985-.0625-.08984v-.11719l.01563-.13281.10547-.04688.07421-.07031v-.1211l-.08984-.05859-.03125-.11719.08985-.05859.07421-.07422.04297-.10547.0586-.08984.04687-.10156.01563-.13281v-.14844l-.04688-.10547-.04297-.10156-.08984-.0586-.13281-.01562-.10157-.04297-.13671-.01563-.1172-.03125h-.4453l-.13282-.01562-.13281-.01172-.13281-.01563-.11719-.03125h-.14844l-.13281-.01562-.13281-.01172-.26563-.03125-.1211-.04297-.08593-.0586-.07422-.07421v-.14844l.01172-.13281.10547-.04688.10156-.04296.13281-.01563h.15235l.13281-.01562h.29297l.1211.03125.10156.04296.08984.0586.23438.0625.12109-.04688.08984-.05859.10156-.04297.13282-.01562.10547.04296.10156.04688.13281.01172.1211-.02735h.14453l.12109-.03125.11719-.02734.10547-.04687.07421-.07422.08594-.0586.14844-.14843.0586-.08594.04687-.10547.02734-.11719.01563-.10547-.10156-.04296-.08985-.0586-.11719-.03125-.10546-.04297-.08985-.0625-.07422-.08594-.07422-.07421-.10156-.04297-.10547-.04688-.10156-.04297-.0586-.08984-.04687-.10156-.08594-.21094-.0625-.08594-.05859-.08984-.07422-.07422-.08594-.0586h-.26953l-.11719.03126-.08984.05859-.10156.04297-.13281.01562-.10547-.01562-.02735-.11719-.0625-.08984-.11718-.03125-.10157-.04297-.14843-.14844-.03125-.11719-.01563-.10546.07422-.07422.17969-.1172.11719-.02733.11718-.03125.13672.01562.10156.04297.10547.04297.10156.04687.10547.04297.1172.03125.1328.01563.1172.02734.1328.01563.10547-.01563.08985-.0586-.07422-.07421-.10547-.04297-.07422-.07422-.07422-.08984-.14844-.14844-.08593-.0586-.08985-.05859-.07422-.07422-.08984-.0586-.10156-.04687-.1211-.02734-.10156-.04688-.10547-.04296-.11719-.03125-.10156-.04297-.1211-.03125h-.14843l-.11719.03125-.10546.04297-.08594.0625-.17969.11718-.08594.0586-.08984.0586-.10547.04687-.08594.05859-.10547.04297-.10156.04297-.10547.04687-.07422.07422-.05859.08985-.0586.08593-.04687.10547-.0586.08594-.07421.07422-.13281-.01172-.1172-.03125h-.11718l-.07422.07422-.08984.0586-.07422.07421-.08984.0586-.08594.05859-.10547.04687-.10156.04297-.13672.01563-.10156-.04297-.14844-.14844-.10547-.04688h-.08594l-.10547.04688-.10156.04297-.1211.03125-.11718-.03125-.07422-.07422v-.11719l.03125-.1211.07422-.0703.0586-.08985.07421-.07422.11719-.03125.10547-.04296h.29297l.13281-.01563.13672-.01563.10156-.04296.08985-.0586.10156-.04687.08984-.0586.13281-.01171.08985.05859.13281.01172.08984-.0586.08594-.05859.10547-.04297.08984-.0586.08594-.0625.08985-.05859.14843-.14843.0586-.08594.05859-.08985.10547-.04296.13281-.01563.11719.02735.1211.03125.05859-.0586.05859-.08984.03125-.26563.02734-.11719.10547.01172.13281.01563.10157-.04297.08984-.0586.0586-.08984.07421-.07422.0586-.08984.04687-.10156.01172-.13281-.01172-.13282-.04687-.10547-.14844-.14843-.0586-.08985-.05859-.08594-.04297-.10546v-.44532l.01563-.1328v-.14845l.01172-.1328-.0586-.0586-.08984.0586-.10156-.04298-.17969-.11719-.08594-.05859-.0625-.08984-.0586-.08985-.07421-.07421-.08594-.0586-.1211.03125-.10155.01172-.10547.04688-.08594.05859-.10547.04297-.14844.14844-.08984.05859-.08594.0586-.08984.0625-.10547.04296-.13281.01563v-.1211l.10547-.04297.11718-.03125.07422-.0703.04297-.10548v-.14844l-.02734-.11718-.14844-.14844-.13281-.01563h-.14844l-.11719.03125-.10547.04297-.10156.04297-.08984.0625-.11719.02735-.07422-.07422.01172-.13281-.04297-.10157-.04297-.10547-.08984-.05859-.11719.02734-.1211.03125-.11718.03125-.10156.04297-.1211.03125-.10156.04297-.10547.04297-.08984.0586-.10156.01562v-.11719l.01562-.13281-.0586-.08985-.07421.04297-.14844.14844-.0586.08985-.07421.07421-.04688.10547-.04296.10156-.07422.07422-.0586.08985-.07422.07422-.05859.08593-.07422.07422-.08984.0625-.07422.07031-.07422.07422-.10156.01563-.13281.01562-.10547-.04296v-.1211l.14843-.14844.04297-.10156.0586-.08984.04687-.10156.04297-.10547.0586-.08985.03124-.11719.04297-.10156.03125-.1211.02735-.11718.04687-.10547.04297-.10156.04297-.10547.07422-.07031.08984-.0625.08985-.0586.10156-.04296h.29687l.26563-.03125.10547-.04297-.07422-.07422-.11719-.03125-.10547-.04297-.08984-.0586-.10156-.04687-.08985-.0586-.10156-.04296-.10547-.04297-.08984-.0625-.08594-.0586-.10547-.04296-.10156-.04297-.1211-.03125-.11718-.03125-.10157-.04297L297.5 410.25l-.10156-.04297-.08985-.0586-.04296-.10546-.01563-.13281.10156-.04297.13281-.01563.13672.01563.13282-.01563.10156-.04297.0586-.08984.01562-.10547-.08985-.0586-.07421-.07421-.10157-.04297-.08984-.0586-.14844-.14843-.04297-.10547-.01562-.13281v-.29297l-.0586-.08985-.08984-.05859-.07422-.07422-.04297-.10547-.03125-.11718-.0586-.08985-.07421-.07422-.11719-.02734-.07422-.07422-.08984-.0586-.08984-.0625-.08594-.05859-.07422-.07421-.0586-.08594-.04687-.10547-.08594-.0586-.14843-.14843-.19532-.0586-.1328.01563-.10157.04297-.07422.07422-.04688.10156-.04296.10547-.0586.08984-.0586.08594-.29687.29687-.08984.0586h-.08594l-.0625-.08594-.04297-.10547.03125-.11719.0586-.08984.02734-.11719-.01172-.13281-.08984-.0625-.10547.04688-.11719.02734-.11719.03125-.26953.17578-.10156.04688-.11719.02734-.10546.04687-.08985.0586-.10156.04297-.0586-.08594-.04687-.10547.01563-.13281.04687-.10547.07031-.07422.07422-.07031.0586-.08985v-.14843l-.04297-.10547h-.23829l-.10156.04687-.03125.11719-.02734.11719-.03125.1211-.07422.04296-.13281.01563-.07422-.04688-.04297-.10156-.04297-.10547-.04687-.10156-.04297-.10547-.1211.03125-.10156.04297-.13281.01562-.11719.03125-.10547.04297-.08984.0586-.10156.04687-.1211.02734-.13281.01563-.10156-.04297-.0586-.08985-.04687-.10546-.04297-.10157-.04297-.10546v-.1172l.0586-.08984.08593-.05859.17969-.11719.10156-.04687.10547-.04297.10547-.0586.10156-.04296.08985-.0625.10156-.04297.10547-.0586.10156-.04687.08984-.0586.10547-.04296.10156-.04297.08985-.0625.10156-.04297.13672-.01563.11719.03125.10156.04297.1211.03125.10156.04297.10546.04688.10157.04296.10547.04297.10156.04688.10547.04297.10156.04297.10547.04687.08594.0586.10546.04296.1172.03125.10546.04297.10156.04688.08985.0586.10547.04296.10156.04297.10547.04687.11719.02735.10156.04687.1211.02735h.14843l.08594-.0586.01562-.10156.0586-.08984-.02735-.1172-.07422-.07421-.11719-.17969-.07421-.07422-.08985-.07421-.17969-.1172-.08593-.05859-.10547-.04296-.10156-.04688-.26954-.17578-.05859-.08985-.07422-.07421-.0586-.08985-.04296-.10156-.03125-.11719-.01563-.13672v-.5625l-.01171-.1328-.01563-.13282-.03125-.11719-.01562-.13281-.01172-.13281-.03125-.1211-.22266-.22265-.0586-.08594-.01562-.10547.03125-.11719.13281-.01562v-91.41406H172.9922v1.45312l-.0586.23438-.35156 1.05078-.17187.52343-.1172.34766-.17577.41016-.11719.17187-.23438.29297-.23046.0586h-.35157l-.11718.05859-.23047.40625v.29297l.11719.17578.23046.23047.1172.23437.64062.75781.29297.46485.17578.23437.23047.35156.23437.34766.64063.8164.17578.46485.17187.41016.11719.69531.17578.46875.11719 1.39844.0586.46484v.875l.11718 1.04688v4.78125l-.0586.46484-.35156 1.28125-.17578.52344-.11328.41015-.35156.9297L172.93359 336l-.23437.58203-.11719.17578-.17187.34766-.17578.40625-.35157.8164-.0586.29297-.11327.29297-.11719.28906-.0586.17579-.11718.875-.0586.40625-.05859.11718-.0586.17579-.05859.17187-.23047.52734-.11718.17188v.23437l-.11719.23438-.0586.17187-.17577.58594v.28906l-.0586.17579v.29296l-.0586.11329-.05859.52734v.17187l-.05468.23438v2.6211l-.17578.8164-.1172.17578-.17577.23438-.1172.17187-.11327.23438-.58594.93359-.23047.28906-.29297.46485-.17578.23437-.28906.35156-.35156.69922-.11328.23047-.17579.41016-.17578.23046-.40625.52735-.8164.69922-.29297.17187-.28906.23438-.17579.11719-.17578.17578-.52344.40625-.52734.17578-.17187.17578-.23438.05469-.64062.17578h-.75782m12.21094 31.02344l-1.07422.44921.35938.89454 1.25-.71485.44531-.53906-.98047-.08985"/><path fill="#d3d3d3" fill-opacity="0" fill-rule="evenodd" d="M201.50781 416.59766h-.89453l.44922.6289.98047.35938.80469-.08985.4453-.98828-.17577.08985-.71485-.35547-.89453.35547m154.6211 59.0703l-.0586-.52343v-.29297l.11328-.29297.0586-.23046.46875-.46875h.11328l.11719-.11329.11718-.05859h.17579l.23437-.0586h.34766l.23437.0586.11719.0586.23047.17187.0586.17578.11718.58203v.29297l-.11719.17578-.17187.28906-.17579.17579-.52734.52343-.23047.23438-.11719.0586h-.17578l-.11718-.0586-.40625-.29297-.17579-.11719-.11718-.0586-.0586-.11327-.05468-.1172m6.64062-10.95702l-.0586-.17188v-1.10937l.0586-.17188.17578-.0586.17188-.05858h.17578l.23437-.0586.1172.0586.05858.69921-.05859.17188-.11719.17578-.11718.0586-.23438.52343-.11328.0586h-.23438l-.05859-.1172m9.61328-14.39062l-.11719-.17578v-.69922l.29297-.875.1172-.17187.17577-.35156.11328-.23047.1172-.29297.35155-.75781.1172-.23047.17187-.23438h.17578l.11719-.0586h.64062l.11719.0586.23437.23438.17188.11328.35156.29297.11719.11718.11328.17579v.11328l.11719.05859.11718.11719v.69922l-.05859.17578v.23047l-.0586.17578-.34765 1.05078-.11719.23047-.11719.23437-.11718.0586-.23047.23437-.64063.28906h-.875l-.41015-.11718-.64063-.46485"/><path fill="none" stroke="#bebebe" stroke-linecap="round" stroke-linejoin="round" stroke-miterlimit="10" stroke-width=".5" d="M467.95703 311.69531H144.02734v168.625h323.9297v-168.625"/><g clip-path="url(#a)"><path fill="#fff" fill-opacity="0" fill-rule="evenodd" d="M144 475.89063v4.4375h.0039H144v-38.94141 34.5039"/></g><g clip-path="url(#b)"><path fill="#fff" fill-opacity="0" fill-rule="evenodd" d="M144 431.50781v1.48047-121.3164h.0039H144V431.5078"/></g><path fill="#50fcfc" fill-rule="evenodd" d="M144 432.98828v8.39844h.0039v-8.39453l-.0039-.0039"/><g clip-path="url(#c)"><path fill="#fff" fill-opacity="0" fill-rule="evenodd" d="M144.0039 480.32813v-38.94141l1.85157-1.0039.34375-4.4375-2.19531-2.95313V311.67188h75.44922v7.01171l-1.0547 1.86329-3.3828 2.99609-4.44141-2.5625-2.54297 4.0039-.45703 4.44141 3 2.5039 3.49219-2.5039.94922-2.48828 1.53906-1.95313 2.89844-3.30468.36718-1.13281-.36719-1.86329v-7.01171h13.3125v93.83593l-4.4375.46094-2.77734 3.34766-1.66016 2.43359-1.99218 2.0039-.78906 4.4375 2.78125 2.76563.49609 1.67188 1.74219 4.4414-2.23828.78125-3.625 3.65625-.8125 1.98047-4.4375.47656-1.85938 1.98047-2.58203 2.64844-2.07422 1.78906-1.03125 4.4375 3.10547 4.0039 4.4414-.66405 1.7422 1.10156-.44141 4.4375-1.30078 3.80469-.22266.6328-4.21875 3.09376-4.4375-.73047-3.92578 2.07422 3.92578 1.6211 4.4375-1.125 4.4414.80077 4.4375-.67578 4.4375.41406 1.08204-1.03515-1.08203-3.0625-4.4375.55078-3.9336-1.92578 3.9336-1.55469 4.4375.32813 2.05468-3.21094 2.38281-1.09766 2.77735-3.33984 1.66016-3.625.54687-.8164-.54688-.66016-1.08593-3.77735-3.35156-3.58594-4.4375.64063-2.01563-1.49219 2.01563-.83203 3.96875-3.60547.46875-1.59765 4.4375.89453 1.0625.70312 3.3789 3.34766 3.46094 1.08984.97656 1.14844 1.19531-1.14844 2.2422-4.4375-3.4375-4.21094-.14454-.22656.14453-.10547 4.30078-4.33593.13672-1.20704 3.83203-3.23046-3.83203-3.09375-4.4375-1.22657-.40234-.11718-.58203-4.4375-3.45313-2.8672-4.4414-.9414v-93.83594h48.82421V447.1797l-4.4375.24219-2.57421 1.83984-1.8672 1.30469-2.3203 3.1328.05078 4.4375 2.26953 2.30079 4.4414.82813 4.4375-1.53125 1.62891-1.59766 2.8086-2.5039 1.90624-1.9336-1.90625-3.23047-1.22265-1.20703-3.21485-2.08203V311.67188h35.50782v135.16796l-2.33985 2.42188-2.10156.88672-4.4375 2.13281-1.33594 1.41797-1.19922 4.4375 2.53516 3.01172 3.60156 1.42578.83594.53125.5625-.53125 2.76953-4.4375 1.10938-1.47266 3.625-2.96484-1.32032-4.4375-2.30468-2.42188V311.67188h13.3125V446.4453l-4.37891 2.8164-.0586.10157-3.53124 4.33594 3.53125 3.98047 2.47656.45703 1.96094.4336.34375-.4336 2.33593-4.4375.09375-4.4375-2.77343-2.8164V311.67187h44.3828V459.5078l-4.4375.77344-2.26171 2.29297 1.94531 4.4414.3164.35157 1.4375 4.08594 3 2.16015 4.44142.57813 2.75-2.73829 1.02343-4.4375-3.77344-4.2578-.32421-.1836-4.1172-3.0664V311.67187h35.50782v103.66796l-4.4375 1.20313-4.4375.95312-3 .69532-1.4414.1328-3.46875 4.3047-.03125 4.4414 3.5 3.66016 4.25.77734.1914.13672.4375-.13672 4-.48437 4.4375.47656 4.4375-.94531 4.4414-.20703 4.4375-.6875 3.32813-2.58985-.47265-4.4414-2.85547-2.50782-3.03906-1.92968-1.39844-1.21094-4.4414-1.40235-4.4375-.23828V311.67188h22.1914v105.48437l-.40235 1.03516.40235.21875.2539-.21875-.2539-1.03516V311.67187h22.1914v109.3672l-.98437 1.58984-3.45313 3.26171-1.15625 1.1797-3.28125 2.72656-1.875 1.71093-2.5625 3.08985-1.76171 1.34765 1.76171 1.3125 4.4375-1.27344.03125-.03906 4.40625-1.15625 4.14844-3.28125.28906-.72265 3.59375-3.71485-1.94921-4.4414-1.64454-1.58985V311.67187h8.87891v104.03907l-2.8711 2.48047-.35937 4.4375 3.23047 2.79687 3.6836-2.79687-1.20704-4.4375-2.47656-2.48047V311.67188h4.4336v168.65625h-34.3086l1.73438-4.4375-2.9297-3.88672-1.26562-.55079 1.26563-1.05859 2.25781-3.3789 2.17969-1.08204 4.4414-1.60937 4.4375-.3164 3.16016 3.0078 1.27734 1.85157 1.13672 2.58594 3.30078 2.96875 4.44141.47265 4.41406-3.4414.02344-.01172 3.2539-4.42579.67579-4.4414-1.01172-4.4375-2.91797-3.07031-1.1289-1.3672-3.3086-4.0664-4.4414-.08594-.13673-.28515-.9375-4.4414-3.36328-3.28907-4.4375 2.98438-4.4375-1.3086-4.4414-.55078-1.63672-2.27344-2.80078-4.08984-4.4375.58594-3.09375 3.5039-1.34375 1.23047-4.4375 1.53906-1.70313 1.66797 1.70313 1.58594 1.58984 2.85547 2.84766 3.27344 1.11719 1.16406 1.29687 4.4375.91797 4.4375-3.33203 3.76953-1.39844.67188-3.03906.64843-4.4414.69922-3.46485 3.08985 3.46484 3.84765.29688.58985 4.14453 3.65625 4.4375.34375 4.4375-.28125 2.85547.71875H144.0039"/></g><path fill="#50fcfc" fill-rule="evenodd" d="M145.85547 440.38281l-1.85156 1.0039v-8.39452l2.1953 2.95312-.34374 4.4375m60.28125 23.8125l-3.92578-1.6211 3.92578-2.07421 4.4375.73047 4.21875-3.09375.22266-.63281 1.30078-3.8047.4414-4.4375-1.74219-1.10155-4.4414.66406-3.10547-4.0039 1.03125-4.4375 2.07422-1.78907 2.58203-2.64844 1.85938-1.98047 4.4375-.47656v3.63281l-4.4375.21094-3.00782 3.05078.92969 4.4375 2.07813 1.125 4.4375 2.07031 2.68359-3.1953 1.27344-4.4375-3.95703-3.26173v-3.6328l.8125-1.98048 3.625-3.65625v1.99219l-1.64844 1.66406 1.64844 1.63672 1.80468-1.63672-1.80469-1.66406v-1.99219l2.23829-.78125-1.7422-4.4414-.49608-1.67188-2.78125-2.76562.78906-4.4375 1.99219-2.00391 1.66015-2.4336 2.77734-3.34765 4.4375-.46094v1.48438L228.32813 409l-.2578.3164-3.58985 4.4375-.58984 3.94923-.14844.48828.14844.14843 1.27343 4.28907 3.16406 3.85937 1.16797.58203 3.26953 2.35938 3.13672 2.07812 1.3047 1.29297 4.4375 1.02344 1.65624-2.3164-1.65625-2.02735-1.52344-2.41016 1.52344-1.08594 3.32813-3.35546.49218-4.4375-3.8203-3.4375-3.41798-1-1.01953-2.70704-.53906-1.73046-3.90234-2.32422v-1.48438l4.4414.9414 3.45313 2.8672.58203 4.4375.40234.11718 4.4375 1.22657 3.83203 3.09375-3.83203 3.23046-.13672 1.20704-4.30078 4.33593-.14453.10547.14453.22656 3.4375 4.21094-2.24219 4.4375-1.1953 1.14844-.97657-1.14844-3.46094-1.08984-3.3789-3.34766-1.0625-.70312-4.4375-.89453-.46875 1.59765-3.96875 3.60547-2.01563.83203 2.01563 1.49219 4.4375-.64063v2.2422l-3.48047 1.34374 2.72656 4.4375.7539.8789.35938-.8789.89453-4.4375-1.2539-1.34375v-2.24219l3.35156 3.58594 1.08594 3.77735.54687.66015-.54688.8164-1.66015 3.625-2.77734 3.33985-2.38282 1.09766-2.05469 3.21094-4.4375-.32813-3.93359 1.55469 3.9336 1.92578 4.4375-.55078 1.08203 3.0625-1.08203 1.03515-4.4375-.41406-4.4375.67578-4.44141-.80078-4.4375 1.125m4.4375-132.26562l-3-2.5039.45703-4.44142 2.54297-4.0039 4.4414 2.5625 3.38282-2.9961 1.05469-1.86328.36718 1.86329-.36719 1.1328-2.89843 3.3047-1.53906 1.95312-.94922 2.48828-3.4922 2.5039"/><path fill="#00e8fc" fill-rule="evenodd" d="M212.9375 444.82031l-.92969-4.4375 3.00781-3.05078 4.4375-.21094 3.95704 3.26172-1.27344 4.4375-2.6836 3.19531-4.4375-2.0703-2.07812-1.125m10.95313-11.67579l-1.64844-1.63672 1.64844-1.66406 1.80468 1.66406-1.80469 1.63672m0-14.80469l-.14843-.14843.14844-.48829.58984-3.94921 3.58984-4.4375.25781-.31641v2.71875l-1.70312 2.03516-.66406 4.4375.4961 4.4375 1.87108 2.28515 4.33594 2.15625.10156.07031 4.44141 1.27735.6211-1.34766 3.8164-2.71875 1.70703-1.72265.47266-4.4375-2.17969-1.96094-4.4375-1.4375-4.21094-1.03906-.23047-1.88672-4.4375-.14844V409l4.4375-2.00781 3.90235 2.32422.53906 1.73046 1.01953 2.70704 3.41797 1 3.82031 3.4375-.49218 4.4375-3.32813 3.35546-1.52344 1.08594 1.52344 2.41016 1.65625 2.02734-1.65625 2.3164-4.4375-1.02343-1.30469-1.29297-3.13672-2.07812-3.26953-2.35938-1.16797-.58203-3.16406-3.85937-1.27344-4.28907m3.6836 26.48047l-2.72656-4.4375 3.48047-1.34375 1.2539 1.34375-.89453 4.4375-.35938.8789-.7539-.8789"/><path fill="#00d4fc" fill-rule="evenodd" d="M226.45703 422.6289l-.4961-4.4375.66407-4.4375 1.70313-2.03515 4.4375.14844.23046 1.88672 4.21094 1.03906v1.30469l-4.4414.96484-4.4375-.3711-.22657 1.5-.35156 4.4375.57813.70704 4.4375 2.07031 4.4414.72266 4.4375-3.41016.08594-.08984.45703-4.4375-.54297-.48829-4.4375-1.60546v-1.3047l4.4375 1.4375 2.17969 1.96095-.47266 4.4375-1.70703 1.72265-3.8164 2.71875-.6211 1.34766-4.4414-1.27735-.10157-.0703-4.33594-2.15626-1.87109-2.28515"/><path fill="#00c4fc" fill-rule="evenodd" d="M228.32813 423.33594l-.57813-.70703.35156-4.4375.22656-1.5 4.4375.37109 4.44141-.96484v1.30468l-2.10156.78907-2.33984 2.3125-2.33985 2.125 2.33984 1.0625 4.44141 1.14453 2.85547-2.20703-.75-4.4375-2.10547-.78907v-1.30468l4.4375 1.60546.54297.48829-.45703 4.4375-.08594.08984-4.4375 3.41016-4.4414-.72266-4.4375-2.07031"/><path fill="#00b8fc" fill-rule="evenodd" d="M232.76563 423.6914l-2.33985-1.0625 2.33984-2.125 2.33985-2.3125 2.10156-.78906v2.37891l-2.88672 2.84766 2.88672.91796 1.1836-.91796-1.1836-2.84766v-2.3789l2.10547.78906.75 4.4375-2.85547 2.20703-4.4414-1.14453"/><path fill="#00a8fc" fill-rule="evenodd" d="M237.20703 423.54688l-2.88672-.91797 2.88672-2.84766 1.1836 2.84766-1.1836.91796"/><path fill="#50fcfc" fill-rule="evenodd" d="M270.4414 458.13672l-.05077-4.4375 2.3203-3.13281 1.8672-1.3047 2.57421-1.83983v3.8164l-3.03515 2.46094.4961 4.4375 2.53905 1.01562 1.90235-1.01562 1.9336-4.4375-3.83595-2.46094v-3.8164l4.4375-.2422 3.21485 2.08204 1.22265 1.20703 1.90625 3.23047-1.90625 1.9336-2.80859 2.5039-1.6289 1.59765-4.4375 1.53125-4.44141-.82812-2.26953-2.30078"/><path fill="#00e8fc" fill-rule="evenodd" d="M274.61328 458.13672l-.4961-4.4375 3.03516-2.46094 3.83594 2.46094-1.9336 4.4375-1.90234 1.01562-2.53906-1.01562"/><path fill="#50fcfc" fill-rule="evenodd" d="M308.21875 461.14844l-2.53516-3.01172 1.19922-4.4375 1.33594-1.41797 4.4375-2.13281v2.98828l-.91016.5625.66407 4.4375.24609.05078.03516-.05078 1.59375-4.4375-1.62891-.5625v-2.98828l2.10156-.88672 2.33985-2.42188 2.30468 2.42188 1.32032 4.4375-3.625 2.96484-1.10938 1.47266-2.76953 4.4375-.5625.53125-.83594-.53125-3.60156-1.42578"/><path fill="#00e8fc" fill-rule="evenodd" d="M312.41016 458.13672l-.66407-4.4375.91016-.5625 1.6289.5625-1.59374 4.4375-.03516.05078-.2461-.05078"/><path fill="#50fcfc" fill-rule="evenodd" d="M325.97266 457.67969l-3.53125-3.98047 3.53125-4.33594.05859-.10156 4.3789-2.8164v2.74218l-.11327.07422.11328.7539.07421-.7539-.07421-.07422v-2.74219l2.77343 2.8164-.09375 4.4375-2.33593 4.4375-.34375.4336-1.96094-.4336-2.47656-.45702"/><path fill="#00e8fc" fill-rule="evenodd" d="M330.41016 450.01563l-.11329-.75391.11329-.07422.07421.07422-.07421.7539"/><path fill="#50fcfc" fill-rule="evenodd" d="M370.03906 467.01563l-1.94531-4.44141 2.26172-2.29297 4.4375-.77344v2.57422l-1.625.49219-1.51953 4.4414 3.14453 3.83985 3.6914.59765.75.1875.1875-.1875 1.84375-4.4375-2.03125-2.29296-3.77734-2.14844-.66406-.49219v-2.57422l4.11719 3.0664.32421.1836 3.77344 4.25781-1.02344 4.4375-2.75 2.73829-4.4414-.57813-3-2.16015-1.4375-4.08594-.3164-.35156"/><path fill="#00e8fc" fill-rule="evenodd" d="M374.79297 470.85547l-3.14453-3.83985 1.51953-4.4414 1.625-.49219v3.4961l-.9336 1.4375.9336 1.14062 2.60156-1.14063-2.60156-1.4375v-3.49609l.66406.49219 3.77735 2.14844 2.03125 2.29296-1.84375 4.4375-.1875.1875-.75-.1875-3.69141-.59765"/><path fill="#00d4fc" fill-rule="evenodd" d="M374.79297 468.15625l-.9336-1.14063.9336-1.4375 2.60156 1.4375-2.60156 1.14063"/><path fill="#50fcfc" fill-rule="evenodd" d="M396.98438 430.73047l-3.5-3.66016.03125-4.4414 3.46875-4.3047 1.4414-.1328 3-.69532 4.4375-.95312 4.4375-1.20313 4.4375.23829v2.73046l-4.4375.14844-3.22656 4.17188-1.21094 1.98828-.90234-1.98828-3.53516-3.02344-4.4414.95312-1.66797 2.07032-.26172 4.4414 1.92969 2.01953 4.4414 1.06641 4.4375-1.61719 4.4375.73047 4.4375-.3164 4.4414-.4297 3.90235-1.45312-.41015-4.4414-3.4922-2.64844-4.4414-1.67188v-2.73046l4.4414 1.40234 1.39844 1.21094 3.03907 1.92968 2.85547 2.50782.47265 4.4414-3.32812 2.58985-4.4375.6875-4.4414.20703-4.4375.94531-4.4375-.47656-4 .48437-.4375.13672-.19142-.13672-4.25-.77734"/><path fill="#00e8fc" fill-rule="evenodd" d="M396.98438 429.08984l-1.9297-2.01953.26173-4.4414 1.66796-2.07032 4.44141-.95312v2.67969l-.9961.34375-1.51952 4.4414 2.51562.78516 1.53516-.78516-1.13281-4.4414-.40235-.34375v-2.6797l3.53516 3.02345.90234 1.98828 1.21094-1.98828 3.22656-4.17188 4.4375-.14844v2.76954l-3.14062 1.55078 3.14062 2.91015 2.79297-2.91015-2.79297-1.55079v-2.76953l4.4414 1.67188 3.4922 2.64844.41015 4.4414-3.90234 1.45313-4.4414.42969-4.4375.3164-4.4375-.73047-4.4375 1.61719-4.44142-1.0664"/><path fill="#00d4fc" fill-rule="evenodd" d="M401.42578 427.85547l-2.51562-.78516 1.51953-4.4414.9961-.34375.40233.34375 1.13282 4.4414-1.53516.78516"/><g clip-path="url(#d)"><path fill="#50fcfc" fill-rule="evenodd" d="M414.73828 475.30078l-3.46484-3.84765 3.46484-3.08985v2.23047l-.96094.85938.96094 1.0664 1.6836 3.3711 2.7578 2.42968 4.4375.91016 4.4375-1.23828 4.25-2.10156-4.25-2.9375-4.4375-1.09766-2.9375-.40235-1.5-.78125-4.4414-.07812v-2.23047l4.4414-.69922 3.03907-.64844 1.39844-.67187 3.33203-3.76953-.91797-4.4375-1.29688-4.4375-1.11718-1.16406-2.84766-3.27344-1.58984-2.85547-1.70313-1.58594 1.70313-1.66797 4.4375-1.53906 1.34375-1.23047 3.09375-3.5039v2.53515l-.85547.96875-3.58203 3.27735-2.09766 1.16015 1.66797 4.4414.42969.4922 3.79297 3.9453.64453 1.38282v9.07813l-3.42188 2.85546 3.42188 2.20704 1.9414-2.20704-1.9414-2.85546v-9.07813l2.48437 3.05469 1.69531 4.4375.25782.36328 4.4375.39453 1.39844-.75781 3.04296-.48828 4.4375-.13281 4.4375.45312.29688.16797 2.73437 4.4414 1.40625 4.12891 1.46875.3086 2.97266.17187.21875-.17188 4.21875-2.42968 1.47656-2.00781 1.46875-4.44141-2.32812-4.4375-.61719-.64844-3.125-3.78906-1.3125-1.61328-4.4414-.89453-.91798-1.9297-2.15234-4.4414-1.36719-1.33594-1.83984 1.33594-2.59766 2.10547-4.4375.67188-4.4414-.44141-4.4375.375-2.57031-2.71094 1.58203-4.4375-3.44922-.96875v-2.53515l4.4375-.58594v8.48437l-.02344.04297.02344.02735.08203-.02735-.08203-.04297v-8.48437l2.80078 4.08984 1.63672 2.27344 4.4414.55078 4.4375 1.3086 4.4375-2.98438 3.36329 3.28906.9375 4.4414.13671.28517 4.44141.08593 3.3086 4.0664 1.1289 1.3672 2.91797 3.0703 1.01172 4.4375-.67578 4.44142-3.25391 4.42578-.02344.01171-4.41406 3.44141-4.4414-.47265-3.30079-2.96875-1.13672-2.58594-1.27734-1.85156-3.16016-3.00782-4.4375.3164-4.4414 1.60938-2.17969 1.08204-2.25781 3.3789-1.26563 1.0586 1.26563.55078 2.92969 3.88671-1.73438 4.4375h-2.77734l-2.85547-.71875-4.4375.28125-4.4375-.34375-4.14453-3.65625-.29688-.58984"/></g><path fill="#00d4fc" fill-rule="evenodd" d="M414.73828 425.53906l-3.14062-2.91015 3.14062-1.55079 2.79297 1.55079-2.79297 2.91015"/><path fill="#00e8fc" fill-rule="evenodd" d="M414.73828 472.51953l-.96094-1.0664.96094-.85938 4.4414.07813 1.5.78125 2.9375.40234v1.32812l-4.4375 1.88672-.4414.82031.4414.39063 4.4375 1.85156 4.00391-2.24219-4.0039-2.70703v-1.32812l4.4375 1.09765 4.25 2.9375-4.25 2.10157-4.4375 1.23828-4.4375-.91016-2.75781-2.42969-1.6836-3.37109"/><path fill="#00d4fc" fill-rule="evenodd" d="M419.17969 476.28125l-.4414-.39063.4414-.8203 4.4375-1.88673v1.32422l-2.5 1.38281 2.5 1.14454 2.04297-1.14454-2.04297-1.3828v-1.32423l4.0039 2.70704-4.0039 2.24218-4.4375-1.85156"/><path fill="#00c4fc" fill-rule="evenodd" d="M423.61719 477.03516l-2.5-1.14454 2.5-1.3828v1.32812l-.10156.05469.10156.04687.08203-.04688-.08203-.05468v-1.32813l2.04297 1.38281-2.04297 1.14454"/><path fill="#00e8fc" fill-rule="evenodd" d="M423.1875 449.26172l-1.66797-4.4414 2.09766-1.16016 3.58203-3.27735.85547-.96875 3.44922.96875-1.58204 4.4375 2.57032 2.71094 4.4375-.375 4.4414.4414 4.4375-.67187 2.59766-2.10547 1.83984-1.33594v2.48047l-3.66796 3.29688-.76954.39453-4.4375.66016-4.4414.03125-4.4375.70703-3.42969-1.79297-1.00781-1.08203-.7461 1.08203.7461.77344 2.15625 3.66406 2.28125 2.42969 1.71875 2.0078 2.71875 2.6172 4.4414.03906 4.4375-.29297 4.4375.125 3.38282 1.94922 1.05468 1.34765 4.44141-.03515 4.4375 1.41015 1.30469-2.72265-1.30469-2.15625-4.4375-.95313-.35938-1.32812-4.08203-4.10156-.22265-.33594-1.9961-4.4375-2.21875-3.29688v-2.48046l1.3672 1.33593 2.15233 4.4414.91797 1.9297 4.44141.89453 1.3125 1.61328 3.125 3.78906.61719.64844 2.32812 4.4375-1.46875 4.4414-1.47656 2.00782-4.21875 2.42969-.21875.17187-2.97266-.17188-1.46875-.30859-1.40625-4.1289-2.73437-4.44141-.29688-.16797-4.4375-.45313-4.4375.13282-3.04296.48828-1.39844.75781-4.4375-.39453-.25781-.36328-1.69532-4.4375-2.48437-3.05469-.64453-1.38281-3.79297-3.94531-.42969-.4922"/><path fill="#00b8fc" fill-rule="evenodd" d="M423.61719 475.9375l-.10156-.04688.10156-.05468.08203.05469-.08203.04687"/><path fill="#fff" fill-opacity="0" fill-rule="evenodd" d="M428.05469 464.16016l-3.42188 2.85546 3.42188 2.20704 1.9414-2.20704-1.9414-2.85546"/><path fill="#00d4fc" fill-rule="evenodd" d="M428.05469 450.03516l-.7461-.77344.7461-1.08203 1.00781 1.08203 3.42969 1.79297 4.4375-.70703 4.4414-.03125 4.4375-.66016.76954-.39453 3.66796-3.29688v1.9336l-1.51562 1.36328-2.92188 1.50781-4.4375.9336-4.4414.14453-4.1211 1.85156 3.69922 4.4375.42188.41015 4.4414.95313 4.4375-.45313 4.4375-.20312 4.4375-.59766.06641-.10937-.0664-.0664-2.88673-4.3711-.6328-4.4375-.91798-1.36328v-1.9336l2.21875 3.29688 1.9961 4.4375.22265.33594 4.08204 4.10156.35937 1.32812 4.4375.95313 1.30469 2.15625-1.30469 2.72265-4.4375-1.41015-4.4414.03515-1.0547-1.34765-3.3828-1.94922-4.4375-.125-4.4375.29297-4.44141-.03906-2.71875-2.6172-1.71875-2.0078-2.28125-2.4297-2.15625-3.66405"/><path fill="#50fcfc" fill-rule="evenodd" d="M432.49219 418.41016l-.40235-.21875.40235-1.03516.2539 1.03516-.2539.21875"/><path fill="#fff" fill-opacity="0" fill-rule="evenodd" d="M432.49219 444.77734l-.02344.04297.02344.02735.08203-.02735-.08203-.04297"/><path fill="#00c4fc" fill-rule="evenodd" d="M436.50781 458.13672l-3.69922-4.4375 4.1211-1.85156 4.4414-.14454 4.4375-.93359v1.10938l-4.4375 1.21093-4.4414.25391-.78906.35547.78906 1.0039 4.15234 3.4336.28906.07422.58594-.07422 3.85156-.82813 3.53516-3.60937-3.53516-1.82031v-1.10938l2.92188-1.50781 1.51562-1.36328.91797 1.36328.63281 4.4375 2.88672 4.3711.06641.0664-.0664.10937-4.4375.59766-4.4375.20313-4.4375.45312-4.44141-.95313-.42188-.41015"/><path fill="#00b8fc" fill-rule="evenodd" d="M436.92969 454.70313l-.78906-1.00391.78906-.35547 4.4414-.2539 4.4375-1.21094v1.11328l-2.35937.70703 2.35937 1.40625 1.375-1.40625-1.375-.70703v-1.11328l3.53516 1.8203-3.53516 3.60938-3.85156.82813-.58594.07422-.28906-.07422-4.15234-3.4336"/><path fill="#50fcfc" fill-rule="evenodd" d="M441.3711 437.25781l-1.76173-1.3125 1.76172-1.34765 2.5625-3.08985 1.875-1.71094 3.28125-2.72656 1.15625-1.17969v3.63282l-2.27343 1.98437 2.27343 1.25781 1.59375-1.2578-1.59375-1.98438v-3.63281l3.45313-3.26172.98437-1.58985 1.64454 1.58985 1.94921 4.4414-3.59375 3.71485-.28906.72265-4.14844 3.28125-4.40625 1.15625-.03125.03906-4.4375 1.27344"/><path fill="#00a8fc" fill-rule="evenodd" d="M445.8086 455.10547l-2.35938-1.40625 2.35937-.70703 1.375.70703-1.375 1.40625"/><path fill="#00e8fc" fill-rule="evenodd" d="M450.2461 432.76563l-2.27344-1.25782 2.27343-1.98437 1.59375 1.98437-1.59375 1.25781"/><path fill="#50fcfc" fill-rule="evenodd" d="M463.5625 425.42578l-3.23047-2.79687.35938-4.4375 2.87109-2.48047 2.47656 2.48047 1.20703 4.4375-3.68359 2.79687"/><g clip-path="url(#e)"><path fill="#fff" fill-opacity="0" fill-rule="evenodd" d="M467.9961 480.32813H468V311.67188h-.0039H468v168.65625h-.0039"/></g><path fill="#fff" fill-opacity="0" fill-rule="evenodd" d="M445.26172 471.64844l3.42578 4.73047 8.07031-5.83985-3.42578-4.73047-8.07031 5.83985"/><path fill-rule="evenodd" d="M453.89844 469.71875l.29687.41016-5.09765 3.6914-.46094-.63672 3.63672-2.6328-.8125-1.125.44922-.32423.3789.41406.1914.17188.20704.13281.23438.08203.27343.01954.32031-.0586.38282-.14453"/><path fill="#fff" fill-opacity="0" fill-rule="evenodd" d="M228.01172 436.02734l5.0039-3.01953-5.14843-8.52734-5 3.01953 5.14453 8.52734"/><path fill-rule="evenodd" d="M226.8086 427.26172l.4375-.26563 3.25 5.39063-.67188.40625-2.32031-3.84375-1.1875.71875-.28907-.47656.44922-.34375.1875-.17579.14844-.1953.10156-.22657.03906-.26953-.03125-.32813-.11328-.39062"/><g clip-path="url(#f)"><path fill="none" stroke="#000" stroke-linecap="round" stroke-linejoin="round" stroke-miterlimit="10" stroke-width=".5" d="M146.79688 482.45313l-5.59375-4.25"/></g><g clip-path="url(#g)"><path fill="none" stroke="#000" stroke-linecap="round" stroke-linejoin="round" stroke-miterlimit="10" stroke-width=".5" d="M160.82031 480.07813l-7.00781.5039"/></g><g clip-path="url(#h)"><path fill="none" stroke="#000" stroke-linecap="round" stroke-linejoin="round" stroke-miterlimit="10" stroke-width=".5" d="M170.73047 476.8164l-.20313 7.02344"/></g><g clip-path="url(#i)"><path fill="none" stroke="#000" stroke-linecap="round" stroke-linejoin="round" stroke-miterlimit="10" stroke-width=".5" d="M182.17188 477.29688l3.54687 6.0664"/></g><path fill="none" stroke="#000" stroke-linecap="round" stroke-linejoin="round" stroke-miterlimit="10" stroke-width=".5" d="M182.6875 478.17969l.64453-1.04688"/><g clip-path="url(#j)"><path fill="none" stroke="#000" stroke-linecap="round" stroke-linejoin="round" stroke-miterlimit="10" stroke-width=".5" d="M195.5039 477.28516l3.51173 6.08593"/></g><path fill="none" stroke="#000" stroke-linecap="round" stroke-linejoin="round" stroke-miterlimit="10" stroke-width=".5" d="M195.5039 477.28516l1.30079-2.07813"/><g clip-path="url(#k)"><path fill="none" stroke="#000" stroke-linecap="round" stroke-linejoin="round" stroke-miterlimit="10" stroke-width=".5" d="M208.9375 477.21875l3.27344 6.21875"/></g><path fill="none" stroke="#000" stroke-linecap="round" stroke-linejoin="round" stroke-miterlimit="10" stroke-width=".5" d="M208.9375 477.21875l1.3789-2.02734"/><g clip-path="url(#l)"><path fill="none" stroke="#000" stroke-linecap="round" stroke-linejoin="round" stroke-miterlimit="10" stroke-width=".5" d="M221.9375 477.41016l3.90625 5.83984"/></g><path fill="none" stroke="#000" stroke-linecap="round" stroke-linejoin="round" stroke-miterlimit="10" stroke-width=".5" d="M221.9375 477.41016l1.16016-2.16407"/><g clip-path="url(#m)"><path fill="none" stroke="#000" stroke-linecap="round" stroke-linejoin="round" stroke-miterlimit="10" stroke-width=".5" d="M235.09375 477.51953l4.22266 5.61719"/></g><path fill="none" stroke="#000" stroke-linecap="round" stroke-linejoin="round" stroke-miterlimit="10" stroke-width=".5" d="M235.70703 478.33594l.52344-1.10938"/><g clip-path="url(#n)"><path fill="none" stroke="#000" stroke-linecap="round" stroke-linejoin="round" stroke-miterlimit="10" stroke-width=".5" d="M248.40234 477.52344l4.23438 5.60937"/></g><path fill="none" stroke="#000" stroke-linecap="round" stroke-linejoin="round" stroke-miterlimit="10" stroke-width=".5" d="M249.01953 478.33984l.51563-1.10937"/><g clip-path="url(#o)"><path fill="none" stroke="#000" stroke-linecap="round" stroke-linejoin="round" stroke-miterlimit="10" stroke-width=".5" d="M262.0586 477.29688l3.55468 6.0625"/></g><path fill="none" stroke="#000" stroke-linecap="round" stroke-linejoin="round" stroke-miterlimit="10" stroke-width=".5" d="M262.57422 478.17969l.64453-1.04297"/><g clip-path="url(#p)"><path fill="none" stroke="#000" stroke-linecap="round" stroke-linejoin="round" stroke-miterlimit="10" stroke-width=".5" d="M278.34375 477.02344l-2.38672 6.60937"/></g><g clip-path="url(#q)"><path fill="none" stroke="#000" stroke-linecap="round" stroke-linejoin="round" stroke-miterlimit="10" stroke-width=".5" d="M293.70313 481.69531l-6.47266-2.73437"/></g><g clip-path="url(#r)"><path fill="none" stroke="#000" stroke-linecap="round" stroke-linejoin="round" stroke-miterlimit="10" stroke-width=".5" d="M307.29297 480.33984l-7.02735-.02343"/></g><g clip-path="url(#s)"><path fill="none" stroke="#000" stroke-linecap="round" stroke-linejoin="round" stroke-miterlimit="10" stroke-width=".5" d="M319.15234 477.48047l-4.11328 5.69922"/></g><path fill="none" stroke="#000" stroke-linecap="round" stroke-linejoin="round" stroke-miterlimit="10" stroke-width=".5" d="M318.55469 478.3086l1.21484.16406"/><g clip-path="url(#t)"><path fill="none" stroke="#000" stroke-linecap="round" stroke-linejoin="round" stroke-miterlimit="10" stroke-width=".5" d="M327.54297 482.35938l5.73437-4.0625"/></g><g clip-path="url(#u)"><path fill="none" stroke="#000" stroke-linecap="round" stroke-linejoin="round" stroke-miterlimit="10" stroke-width=".5" d="M340.33594 479.41016l6.78125 1.83984"/></g><g clip-path="url(#v)"><path fill="none" stroke="#000" stroke-linecap="round" stroke-linejoin="round" stroke-miterlimit="10" stroke-width=".5" d="M353.54297 479.98047l6.9961.69531"/></g><g clip-path="url(#w)"><path fill="none" stroke="#000" stroke-linecap="round" stroke-linejoin="round" stroke-miterlimit="10" stroke-width=".5" d="M354.5625 480.08203l-.46484-1.13672"/></g><g clip-path="url(#x)"><path fill="none" stroke="#000" stroke-linecap="round" stroke-linejoin="round" stroke-miterlimit="10" stroke-width=".5" d="M368.4961 483.3086l3.71874-5.96094"/></g><g clip-path="url(#y)"><path fill="none" stroke="#000" stroke-linecap="round" stroke-linejoin="round" stroke-miterlimit="10" stroke-width=".5" d="M382.60547 483.67578l2.13281-6.69531"/></g><g clip-path="url(#z)"><path fill="none" stroke="#000" stroke-linecap="round" stroke-linejoin="round" stroke-miterlimit="10" stroke-width=".5" d="M396.6914 483.82813l.58985-7"/></g><g clip-path="url(#A)"><path fill="none" stroke="#000" stroke-linecap="round" stroke-linejoin="round" stroke-miterlimit="10" stroke-width=".5" d="M410.64063 483.82422l-.67579-6.99219"/></g><g clip-path="url(#B)"><path fill="none" stroke="#000" stroke-linecap="round" stroke-linejoin="round" stroke-miterlimit="10" stroke-width=".5" d="M421.86719 483.375l3.4961-6.09375"/></g><g clip-path="url(#C)"><path fill="none" stroke="#000" stroke-linecap="round" stroke-linejoin="round" stroke-miterlimit="10" stroke-width=".5" d="M435.1836 483.375l3.49609-6.09375"/></g><g clip-path="url(#D)"><path fill="none" stroke="#000" stroke-linecap="round" stroke-linejoin="round" stroke-miterlimit="10" stroke-width=".5" d="M447.21875 482.10938l6.05469-3.5625"/></g><g clip-path="url(#E)"><path fill="none" stroke="#000" stroke-linecap="round" stroke-linejoin="round" stroke-miterlimit="10" stroke-width=".5" d="M448.09766 481.59375l-1.04297-.64453"/></g><g clip-path="url(#F)"><path fill="none" stroke="#000" stroke-linecap="round" stroke-linejoin="round" stroke-miterlimit="10" stroke-width=".5" d="M460.14453 481.15234l6.83203-1.64453"/></g><g clip-path="url(#G)"><path fill="none" stroke="#000" stroke-linecap="round" stroke-linejoin="round" stroke-miterlimit="10" stroke-width=".5" d="M460.14453 481.15234l-1.625-1.83593"/></g><g clip-path="url(#H)"><path fill="none" stroke="#000" stroke-linecap="round" stroke-linejoin="round" stroke-miterlimit="10" stroke-width=".5" d="M141.26172 469.21875l5.47656-4.41016"/></g><path fill="none" stroke="#000" stroke-linecap="round" stroke-linejoin="round" stroke-miterlimit="10" stroke-width=".5" d="M153.82422 466.60938l6.98047.80859m-5.96485-.6914l-.4453-1.14063m13.80858-1.11328l4.85547 5.08203m-4.14843-4.34375l.3828-1.16407m13.22267-.24218l2.85937 6.41797m-2.44531-5.48438l.75781-.96875m12.30469-.03125l2.53515 6.55078m-2.53515-6.55078l1.60547-1.85547m12.0664 1.73828l1.82031 6.78516m-1.8203-6.78516l1.79687-1.67578m11.7539 1.6211l1.35157 6.89453m-1.35157-6.89453l1.90235-1.54688m11.2461 1.58203l1.6875 6.82422m-1.44532-5.83203l.91406-.8164m11.09766.28124l3.80469 5.91016m-3.25-5.05078l.59765-1.07031m15.08984 3.16796l-.01953-.20312-.05859-.1914-.09375-.17579-.46094-.375-.1914-.0586-.19922-.01952-.19922.01953-.1914.0586-.46094.375-.09375.17577-.0586.19141-.01953.20312.01953.19922.0586.19141.09375.17578.46093.375.1914.0586.19923.01953.19922-.01954.1914-.05859.46094-.375.09375-.17578.0586-.1914.01952-.19923m15.125 2.07422l-5.66796-4.15234m19.21093 3.80078l-6.12109-3.44922m5.23047 2.94922l-.03125 1.22656m14.60937-1.70703l-6.86718-1.48828m6.86718 1.48828l.66797 2.36328m11.99219-5.2578l-5.5586 4.30077m5.5586-4.30078l2.23828 1.01172m11.71094 1.96484l-6.82813-1.65234m6.82813 1.65234l.60937 2.37891m12.6211-4.33203l-6.65625 2.2539m5.6875-1.92578l.89453.83985m11.03125 3.33593l-1.9414-6.7539m12.49609 6.39844l3.58203-6.04297m-3.0625 5.16406l-1.22656-.05469m14.72656 1.2539l2.17187-6.68359m-1.85547 5.71094l-1.20703.21485m15.89844.875l-1.21484-6.91797m1.03906 5.91406l-.96875.7539m12.83984.15626l2.02344-6.73047m-2.02344 6.73047l-2.40625.47656m14.39063-1.22266l4.6875-5.23828m-4.6875 5.23828l-2.38281-.58594m16.28515 1.01172l3.50781-6.08984m-3.5078 6.08984l-2.44923-.08203m14.00782-2.85547l7.02343-.21484m-6 .1836l-.60937-1.06641m13.19922 2.40625l6.42968-2.83203m-6.42968 2.83203l-1.9297-1.51563"/><g clip-path="url(#I)"><path fill="none" stroke="#000" stroke-linecap="round" stroke-linejoin="round" stroke-miterlimit="10" stroke-width=".5" d="M142.19531 456.71094l3.60938-6.02735"/></g><path fill="none" stroke="#000" stroke-linecap="round" stroke-linejoin="round" stroke-miterlimit="10" stroke-width=".5" d="M153.875 454.40625l6.88281-1.41406m-5.88281 1.20703l-.78125-.94531m14.3711-2.32422l4.32812 5.53515m-3.69922-4.73047l.5-1.11718m14.09766-.42188l.5078 7.00781m-.43358-5.98828l1.03906-.65234m12.72265-.36719l-.53515 7.00781m.53515-7.0078l2.25-.98438m11.35938 1.01953l-1.1211 6.9375m.95704-5.92969l1.16015-.39453m12.17188-.63281l-.83203 6.97656m.71093-5.96094l1.14453-.44531m14.19922.28125l-4.64453 5.27344m3.96875-4.50781l1.19531.28515m13.79297.42969l-6.63672 2.3125m5.66797-1.97656l.90235.83203m12.66015 2.35156l-5.1953-4.72656m4.4414 4.03906l-.30469 1.1875m13.9961-.14062l-4.44141-5.44532m3.79687 4.65235l-.47656 1.1289m15.55078-1.94922l-6.66797-2.22265m5.69531 1.90234l.20313 1.20703m13.85937-.36328l-6.22265-3.26562m6.22265 3.26562l.01563 2.45313m13.66797-4.57813l-6.95703.98438m6.95703-.98438l1.44531 1.98438m-2.45703-1.83985l.72266.99219m13.60546-1.13672l-6.95703.98438m6.95703-.98438l1.44532 1.98047m-2.45703-1.83984l.72265.99218m13.59375-.08593l-6.9375-1.11328m6.9375 1.11328l.79297 2.32422m12.52734-2.35938l-6.94921-1.03906m6.94921 1.03906l.82032 2.3125m8.01953.53516l2.0039-6.73438m-1.71484 5.7539l-1.20312.2422m15.0078.8789l.44532-7.01562m-.38281 5.99218l-1.11719.50782m14.10547.48828l.97266-6.96094m-.83204 5.94531l-1.15234.42188m14.25.58203l1.125-6.9375m-.96094 5.92578l-1.16015.39844m13.625.42578l2.5-6.5664m-2.5 6.5664l-2.4336.3086m15.2422-.54688l3.51171-6.08594m-3.51172 6.08594l-2.45312-.08594m15.03906-.47266l4.96875-4.96875m-4.96875 4.96875l-2.34766-.71875m3.07031-.0039l-1.17187-.35938m13.35156.58594l5.79297-3.97656m-4.94922 3.39844l-1.08594-.56641"/><g clip-path="url(#J)"><path fill="none" stroke="#000" stroke-linecap="round" stroke-linejoin="round" stroke-miterlimit="10" stroke-width=".5" d="M146.26172 443.07422l-4.52344-5.3789"/></g><path fill="none" stroke="#000" stroke-linecap="round" stroke-linejoin="round" stroke-miterlimit="10" stroke-width=".5" d="M145.60156 442.28906l-.45703 1.14063m14.27734-.23438l-4.21093-5.625m3.59765 4.8086l-.52343 1.10937m14.29297-6.02734l-3.89454 5.84765m3.32813-5l1.21875.1211m12.1836-1.23828l-2.9375 6.3828m2.51171-5.45312l1.22266-.0703m12.20703-.98438l-2.3125 6.63672m1.97656-5.67188l1.21094-.1875m12.33594-.8125l-2.10547 6.70313m1.79687-5.72657l1.20703-.22656m12.40235-.7539l-2.07813 6.71093m1.77735-5.73437l1.20312-.23047m14.4336.88672l-6.1211 3.44921m5.23047-2.94921l1.03516.66015m13.59375.10156l-6.96485.92579m5.94922-.79297l.71484 1m13.1875 1.0625l-6.11328-3.46485m6.11328 3.46485l-.0625 2.45312m12.0547-1.1289l-3.46485-6.1172m3.46484 6.1172l-1.32031 2.0703m15.45312-2.71093l-5.10156-4.83203m4.35938 4.1289l-.32422 1.1836m15.01172-1.40234l-6.35938-2.9922m6.35938 2.9922l.11718 2.45312m13.3086-2.72266l-6.58203-2.45312m6.58203 2.45312l.32422 2.4336m-1.28125-2.78906l.16406 1.21484m14.19922-1.1289l-6.76172-1.91016m6.76172 1.91015l.51953 2.39844m-1.5039-2.67578l.2578 1.19922m13.7422-.1914l-6.16407-3.375m6.16406 3.375l-.03125 2.45312m-.86718-2.94532l-.01172 1.22657m12.97265.57812l-3.66015-6m3.66015 6l-1.25 2.11328m14.90235-2.34765l-4.33594-5.53125m3.70703 4.72656l-.5 1.1211M386.01563 443l-4.6875-5.23438m4.0039 4.47266l-.42187 1.15234m11.39453.44141l1.36328-6.89453m-1.16406 5.89062l-1.17579.35547m13.46485.3711l3.01562-6.34375m-2.57812 5.42187l-1.22266.05469m13.7539.67969l3.71095-5.96875M422.30078 442.5l-1.22266-.08203m13.42188.5l4.86328-5.07031m-4.86328 5.0703l-2.36328-.66796m15.74219.73047l4.73437-5.1914m-4.73437 5.1914l-2.37891-.60938m3.0664-.14843l-1.1875-.3047m13.13672.21485l6.09375-3.5m-6.09375 3.5l-2.07812-1.30469m2.96484.79688l-1.03906-.65234"/><g clip-path="url(#K)"><path fill="none" stroke="#000" stroke-linecap="round" stroke-linejoin="round" stroke-miterlimit="10" stroke-width=".5" d="M146.77344 429.22266l-5.54688-4.3086"/></g><path fill="none" stroke="#000" stroke-linecap="round" stroke-linejoin="round" stroke-miterlimit="10" stroke-width=".5" d="M145.96875 428.59766l-.21094 1.20703m14.6211-1.01563l-6.12891-3.4414m5.23828 2.9414l-.02734 1.22657m14.6211-3.10547l-6.90235 1.3164m5.89844-1.125l.76953.95703m13.58593-.91015l-6.97656.84375m5.96094-.72266l.70312 1.00781m13.35938-2.11718l-6.4414 2.8164m5.5039-2.40625l.96094.76172m13.05468-1.61719l-5.96875 3.70704m5.96875-3.70704l2.1211 1.23047m11.52734-.53515l-6.63281 2.3164m5.66797-1.98047l.90234.83203m13.55078.39063l-6.98047-.80078m5.96485.6836l.44922 1.14062m13.78515-.51563l-6.78906-1.8164m6.78906 1.8164l.55469 2.39063m11.34766-.39453l-3.96094-5.8086m3.96094 5.8086l-1.14453 2.17187m13.6875-1.77734l-2.41797-6.59766m2.41797 6.59766l-1.63672 1.82812m15.2578-1.95703l-3.02733-6.33984m3.02734 6.33984l-1.46094 1.97266m15.03516-2.10938l-3.54688-6.0664m3.54688 6.0664l-1.28516 2.08594m15.26563-2.58984l-4.87891-5.0586m4.8789 5.0586l-.7578 2.33203m14.3125-2.58594l-5.35938-4.54688m5.35937 4.54688l-.52343 2.39453m13.61718-2.15625l-4.91406-5.02734m4.91406 5.02734l-.74609 2.33594m13.23047-1.73438l-3.2539-6.23047m2.78124 5.32422l-.69531 1.01172m11.67578.08985l2.36328-6.6211m-2.01953 5.65625l-1.21484.17969m15.4375-6.03906l-.14063 7.02734m16.5625-2.01953l-6.35547-2.98828m5.4336 2.55469l.0586 1.22656m8.91015.53906l4.17968-5.65234m-3.5703 4.82812l-1.21485-.17969m12.53515-2.34375l6.94922 1.04297m-5.9375-.89062l-.41015-1.15625M433.4453 427.5l6.97266-.85938m-6.97266.85938l-1.41015-2.01172m15.01953 3.05078l6.38281-2.9414m-6.38281 2.9414l-1.95313-1.48828m15.34375 1.64063l6.23438-3.2461m-6.23438 3.2461l-2.02344-1.39063"/><g clip-path="url(#L)"><path fill="none" stroke="#000" stroke-linecap="round" stroke-linejoin="round" stroke-miterlimit="10" stroke-width=".5" d="M146.97266 415.625l-5.94532-3.74219"/></g><path fill="none" stroke="#000" stroke-linecap="round" stroke-linejoin="round" stroke-miterlimit="10" stroke-width=".5" d="M146.10938 415.07813l-.08985 1.22656m14.15625-.51563l-5.72266-4.07422m4.89063 3.48438l-.15625 1.21484m14.82813-1.71875l-6.76954-1.88281m5.78516 1.60937l.26563 1.19532m14.08593-1.1289l-6.875-1.46876m5.875 1.2539l.33594 1.1797m13.89844-2.73438l-6.71485 2.07031m5.73828-1.76953l.8711.86328m12.15234-2.95312l-4.17578 5.64843m3.5664-4.82812l1.21485.17969m14.1211 1.5039l-7 .64063m5.98046-.54688l.67188 1.02735m11.6289 2.39062l-2.92968-6.38672m2.5 5.46094l-.74219.97266M251.86328 417l-2.6875-6.49219m2.29688 5.54688L250.6914 417m14.84765-.17578l-3.40625-6.14453m2.91016 5.2539l-.66797 1.02735m12.90234.30468l-.2539-7.02343m.21875 6l-1.0625.61718m14.51562.39844l-.45703-7.01172m.39063 5.9922l-1.04297.64452m14.45703.375l-.52735-7.00781m.52735 7.00781l-2.07031 1.3125m15.54687-1.32812l-.84766-6.97657m.84766 6.97657l-2.01172 1.40234m14.86328-1.3789l.07813-7.02735m-.07813 7.02734l-2.17968 1.12891m16.65234-1.3086l-2.23438-6.66406m2.23438 6.66407l-1.6875 1.78125m13.5039-1.6211l.76172-6.98437m-.65234 5.96875l-1.13672.45312m11.42188-1.73047l6.60156-2.40234m-5.64063 2.05469l-.91015-.82031m13.3164 1.30078l6.5-2.66406m-5.55468 2.27734l-.94532-.78516m13.89454-2.44531l5.33984 4.57031m-4.5625-3.90625l.26562-1.19531m16.57032-.29687l-3.25782 6.22656m3.25782-6.22656l2.45312-.01563m8.79297-.35547l.88281 6.96875m-.8828-6.96875l2.0039-1.41797m9.15625 2.53516l5.1914 4.73437m-5.1914-4.73437l.60547-2.3789m12.23437 3.04296l6.14453 3.40625m-5.2539-2.91015l.02343-1.22657m11.96485 2.66406l7.01172-.46093m-5.9922.39453l-.64452-1.04688"/><g clip-path="url(#M)"><path fill="none" stroke="#000" stroke-linecap="round" stroke-linejoin="round" stroke-miterlimit="10" stroke-width=".5" d="M147.26563 401.73047l-6.53125-2.58203"/></g><path fill="none" stroke="#000" stroke-linecap="round" stroke-linejoin="round" stroke-miterlimit="10" stroke-width=".5" d="M146.3164 401.35547l.13673 1.21875m13.625.03515l-5.52735-4.34375m4.72266 3.71094l-.21485 1.20703m14.98828-1.92578l-6.83203-1.64062m5.83594 1.40234l.3086 1.1875m13.72656-3.34765l-6.28125 3.15625m5.36719-2.69532l1 .70703m8.9453-2.91015l2.28516 6.64453m9.7461-.78125l4.85547-5.08203m-4.14844 4.33984l-1.1836-.33203m15.51172 1.97266l1.41407-6.88282m15.80468 4.90235l-6.39453-2.91797m16.61328 4.96875l-.19922-7.02344m11.83594 6.65235l3.15625-6.27735m-2.69922 5.36328l-1.22656.02735m14.6914 1.125l1.94141-6.75391m-1.66015 5.76953l-1.19922.2539m13.89844.61329l2.60937-6.52344m-2.23047 5.57422l-1.21875.13281m13.9375.72266l3.04688-6.33203m-2.60547 5.41015l-1.22266.05079m13.76172.6875l3.71484-5.96485m-3.71484 5.96485l-2.44531-.16797m15.95312.27734l3.33203-6.1875m-3.33203 6.1875l-2.45312-.01172m16.42969.28516l2.0078-6.73438m-1.71484 5.7539l-1.20312.2422m13.14062.1953l4.17579-5.64843m-3.57032 4.82813l-1.21093-.1797m12.52734-2.28515l6.96484.92578m-5.95312-.79296l-.42969-1.14844m14.4336-1.55078l3.5625 6.05468m-3.04688-5.17187l.64062-1.04688m10.4297 3.01954l7.01952.34765m-7.01953-.34765l-1.04297-2.22266m15.60157-.28906l4.53125 5.37109m-4.53125-5.3711l.91015-2.27734m14.33985 1.46485l.66406 6.99609m-.66406-6.9961l2.04687-1.35156m12.07031 1.3672l-.9414 6.96483m.9414-6.96484l2.30078-.85156m10.89844.83594l-.71094 6.99218m.60938-5.97265l1.13281-.46485m8.46875 2.32032l6.91797 1.24218m-5.91016-1.0625l-.375-1.16796"/><g clip-path="url(#N)"><path fill="none" stroke="#000" stroke-linecap="round" stroke-linejoin="round" stroke-miterlimit="10" stroke-width=".5" d="M146.53906 389.55078l-5.07812-4.85547"/></g><path fill="none" stroke="#000" stroke-linecap="round" stroke-linejoin="round" stroke-miterlimit="10" stroke-width=".5" d="M145.80078 388.84375l-.33203 1.17969m14.79688-.9961l-5.90235-3.80859m5.90234 3.8086l-.20703 2.4453m14-5.11718l-6.85547 1.53515m5.85938-1.3125l.79688.9336m13.55078-.96485l-6.9297 1.15235m6.9297-1.15235l1.49218 1.94922m11.83203-1.89062l-6.94921 1.03906m6.94922-1.03906l1.46093 1.96875m11.2539.57031l-5.74608-4.04297m5.74609 4.04297l-.30469 2.4375m14-3.13281l-6.50781-2.65235m5.5586 2.26563l.125 1.22266m14.39843-2.10938l-7.02734-.10547m13.86328 1.9375l5.9336-3.76953m-5.07032 3.21875l-1.0664-.60547m13.24218.6289l6.48047-2.71483m-5.53516 2.3203l-.94922-.77734m13.25782 1.01563l6.60546-2.40235m-5.64453 2.0547l-.91015-.82423m13.30468 1.27735l6.52344-2.60938m-5.57422 2.22656l-.9375-.78906m14.09375 2.36328l4.94532-4.99609m-4.94532 4.9961l-2.34765-.70704m15.35937.36328l5.55078-4.30859m-5.55078 4.3086l-2.23828-1.00391m15.6211 1.08594l5.41796-4.47266m-4.6289 3.82422l-1.13672-.46875m14.22656 1.66406l4.28906-5.5664m-4.28906 5.5664l-2.42187-.41016m15.87109.50782l4.02344-5.76172m-3.4414 4.92187l-1.21485-.14844m13.55078-4.45312l4.8125 5.1211m12.20312-5.82813l-2.58593 6.53515m2.21093-5.58203l1.21875-.13671m14.6172 1.72656l-6.87892 1.44922m5.875-1.23829l.78907.94141m12.76562-2.70703l-5.34765 4.5586m4.5664-3.89454l1.14453.44922m11.3047-2.19531l-2.0547 6.72265m1.75391-5.74218l1.20312-.23438m12.28516-.78125l-1.80078 6.79297m1.80078-6.79297l2.39063-.55469m9.75.44922l.54687 7.00391m-.54687-7.0039l2.0703-1.31641m11.17579 1.32031l.6875 6.9961m-.6875-6.9961l2.04297-1.35547"/><g clip-path="url(#O)"><path fill="none" stroke="#000" stroke-linecap="round" stroke-linejoin="round" stroke-miterlimit="10" stroke-width=".5" d="M144.5586 377.27734l-1.1172-6.9375"/></g><g clip-path="url(#P)"><path fill="none" stroke="#000" stroke-linecap="round" stroke-linejoin="round" stroke-miterlimit="10" stroke-width=".5" d="M144.5586 377.27734l-1.95704 1.48047"/></g><path fill="none" stroke="#000" stroke-linecap="round" stroke-linejoin="round" stroke-miterlimit="10" stroke-width=".5" d="M160.23047 375.76953l-5.83203-3.92187m4.98437 3.35156l-.125 1.21875m14.88672-2.69531l-7.02734.17187m7.02734-.17187l1.20313 2.14062m11.96484-3.0586l-6.73438 2.00391m6.73438-2.0039l1.72266 1.75m11.46093-2.11719l-6.47265 2.74219m6.47265-2.74219l1.90625 1.54688m10.33985 2.58984l-4.33203-5.53125m3.69922 4.72656l-.4961 1.1211m15.55469-1.81641l-6.55469-2.53125m5.60156 2.16406l.14453 1.21875m14.23829-1.19531l-6.78125-1.84375m6.78125 1.84375l.54297 2.39062m-1.53125-2.66015l.27343 1.19531m14.05078-1.01563l-6.82812-1.66406m6.82812 1.66406l.60547 2.375m-1.59765-2.61718l.30468 1.1875m13.95703-.77735l-6.73437-2m6.73438 2l.48828 2.40625m12.97265-3.51953l-7.02343.22656m6-.1953l.60937 1.0664m13.72656-.89453l-7.02343-.17969m6.0039.15234l.54688 1.09766m12.54687 1.52344l-4.53906-5.36719m3.8789 4.58594l-.45703 1.13672m11.77344.45312l.77735-6.98437m-.66407 5.96875l-1.14062.44921m12.65234-.09375l4.16016-5.66406m-3.55469 4.83985l-1.21484-.1797m13.22265.32032l5.5625-4.29687m-5.5625 4.29687l-2.23437-1.01172m16.41406 1.8086l3.83203-5.89063m-3.27734 5.03125l-1.21875-.10547m19.11719-.57422l-6.44141-2.8125m6.4414 2.8125l.1875 2.44532m13.3711-4.4297l-6.92969 1.15626m6.92969-1.15625l1.49219 1.94922m11.45703-3.02344l-6.19922 3.30469m6.19922-3.30469l2.03515 1.36719m9.21485-3.07422l-2.07031 6.71484m1.76953-5.73828l1.20312-.23047m11.11328-.89062l.53125 7.00781m-.53125-7.00781l2.07422-1.3125m10.92578 1.35156l1.16016 6.92969m-1.16016-6.92969l1.94532-1.4961m10.53906 1.7422l2.82031 6.4375m-2.82031-6.4375l1.51953-1.92579m12.32812 1.74219l1.75782 6.80469m-1.75782-6.80469l1.8086-1.65625"/><g clip-path="url(#Q)"><path fill="none" stroke="#000" stroke-linecap="round" stroke-linejoin="round" stroke-miterlimit="10" stroke-width=".5" d="M143.98438 364.00781l.03125-7.02734"/></g><g clip-path="url(#R)"><path fill="none" stroke="#000" stroke-linecap="round" stroke-linejoin="round" stroke-miterlimit="10" stroke-width=".5" d="M143.98438 364.00781l-2.17188 1.14063"/></g><g clip-path="url(#S)"><path fill="none" stroke="#000" stroke-linecap="round" stroke-linejoin="round" stroke-miterlimit="10" stroke-width=".5" d="M143.98828 362.98438l-1.08594.5703"/></g><path fill="none" stroke="#000" stroke-linecap="round" stroke-linejoin="round" stroke-miterlimit="10" stroke-width=".5" d="M159.65234 363.11719l-4.67187-5.25m4.67187 5.25l-.85156 2.30078m15.33984-4.75781l-7.01953-.33204m7.01953.33204l1.04688 2.21875m12.15625-3.27735l-6.79688 1.78125m6.79688-1.78125l1.66406 1.80469m11.70313-1.57031l-6.90235 1.3164m6.90235-1.3164l1.53906 1.91015m-2.54297-1.71875l.76953.95313m13.36719.80078l-6.53906-2.57813m6.53906 2.57813l.27734 2.4375m-1.22656-2.8125l.13672 1.21875m14.05078-.66406l-6.38281-2.9336m6.38281 2.9336l.14453 2.44922m-1.07422-2.87891l.14453 2.45313m14.35547-2.81641l-6.89453-1.34766m6.89453 1.34766l.71485 2.34765m-1.71485-2.54687l.35547 1.17578m14.02344-1.75l-7.02344.19531m7.02344-.1953l1.21484 2.13671m-2.23437-2.10547l.60547 1.0664m13.64453-1.78124l-6.85156 1.5664m6.85156-1.5664l1.60547 1.85156m11.2539-2.94531l-5.9414 3.75m5.9414-3.75l2.13282 1.21875m11.03515-1.4336l-5.64844 4.1797m5.64844-4.1797l2.21485 1.0547m11.68359.18358l-6.8164 1.70313m5.82812-1.45313l.82031.91016m13.54297-.8789l-6.9336 1.14453m5.92579-.98047l.74218.97656m12.5625 1.95313l-4.89453-5.04297m4.1797 4.30859l-.375 1.16797m14.55077-.58594l-5.1875-4.73828m5.1875 4.73828l-.60937 2.375m-.14453-3.0664l-.3047 1.1875m14.64063-.82422l-5.72265-4.08204m5.72265 4.08204l-.3203 2.42968m-.51173-3.02343l-.32031 2.42968m15.0586-3.22656l-6.90626-1.30078m6.90625 1.30078l.73047 2.34375m-1.73437-2.53515l.36328 1.17187m13.73047-3.01953l-6.45313 2.77734m6.45313-2.77734l1.91406 1.53125m10.11328-3.07422l-3.8789 5.85938m3.8789-5.85938l2.4414.23828m-3.0039.61719l1.21875.11719m11.25781-1.51563l-1.07812 6.94531m1.07812-6.9453l2.32032-.8047m-2.47657 1.81641l1.16016-.40234m10.96484-.5547l1.6172 6.83985m-1.6172-6.83984l1.83985-1.6211m-1.60547 2.6172l.92187-.8125m11.60547-.00391l2.72266 6.47656m-2.72266-6.47656l1.55078-1.90235m12.90625 1.63672L450.46875 364m-.4414-7.01172l2.08593-1.28906m11.23828 1.28515L463.77344 364m-.42188-7.01563l2.08985-1.27734"/><g clip-path="url(#T)"><path fill="none" stroke="#000" stroke-linecap="round" stroke-linejoin="round" stroke-miterlimit="10" stroke-width=".5" d="M144.41016 350.66797l-.82032-6.98047"/></g><g clip-path="url(#U)"><path fill="none" stroke="#000" stroke-linecap="round" stroke-linejoin="round" stroke-miterlimit="10" stroke-width=".5" d="M144.41016 350.66797l-2.01953 1.39453"/></g><g clip-path="url(#V)"><path fill="none" stroke="#000" stroke-linecap="round" stroke-linejoin="round" stroke-miterlimit="10" stroke-width=".5" d="M144.28906 349.65234l-1.00781.69922"/></g><path fill="none" stroke="#000" stroke-linecap="round" stroke-linejoin="round" stroke-miterlimit="10" stroke-width=".5" d="M159.71484 349.74219l-4.80078-5.1289m4.80078 5.1289l-.79297 2.32422m.09375-3.07032l-.39453 1.16016m15.45313-2.27344l-6.88672-1.40625m6.88672 1.40625l.69531 2.35156m12.67969-2.77734l-7.00781-.5586m7.0078.5586l.97267 2.25m-1.9922-2.33203l.48829 1.125m13.7461-.45313l-6.8086-1.73828m6.8086 1.73829l.57812 2.38671m-1.57031-2.63671l.58203 2.3828m-1.57032-2.63671l.28907 1.1914m15.11328-1.40234l-7.01953-.30469m7.01953.3047l1.05469 2.21483m-2.07813-2.26171l1.0586 2.21484m-2.07813-2.25781l.52734 1.10547m14.83203-1.22266l-7.02343.10547m7.02343-.10547l1.1875 2.14844m-2.20703-2.13281l1.1836 2.14843m13.08203-2.8086l-6.88672 1.39454m6.88672-1.39453l1.5586 1.89453m-2.5586-1.6914l.77734.9453m13.41016-1.60937l-6.63281 2.32031m6.6328-2.3203l1.8047 1.66405m-2.76954-1.32812l.90235.83203m13.03125-1.89063l-5.9375 3.76172m5.9375-3.76171l2.13281 1.21484m-2.9961-.66797l1.06641.60938m12.72657-1.65625l-5.16797 4.76171m5.16797-4.76171l2.3164.8125m10.26953-1.41407l-3.71093 5.96485m3.17187-5.09766l1.22656.08203m13.52735-.14844l-5.50782 4.36329m4.70704-3.73047l1.12109.49218m13.375-.52734l-6.26953 3.17188m5.35937-2.71094l1 .70703M333.25 349.25l-5.67969-4.14063M333.25 349.25l-.34766 2.42578m13.1797-1.89062l-4.71095-5.21485m4.71094 5.21485l-.83203 2.30468m.14844-3.0625l-.41797 1.15235m15.07422-1.19531l-6.02735-3.61329m6.02735 3.61329l-.1289 2.45312m-.75-2.97656l-.0625 1.22265m14.67968-3.22656l-6.875 1.44531m6.875-1.4453l1.57422 1.8828m-2.57422-1.67578l.78906.94531m12.41016-3.0703l-4.64063 5.27734m4.64063-5.27735l2.38672.5664m-3.0625.20313l1.1953.28125m11.4297-1.79296l-1.91016 6.76171m1.91016-6.76171l2.39843-.51954m-2.67578 1.50391l1.19922-.25781m11.78906-.83985l-.70312 6.9922m.70312-6.9922l2.27344-.92968m-2.375 1.9453l1.13672-.46483m13.01172-.39844l-2.16406 6.6836m2.16406-6.6836l2.41406-.42969m12.98047 2.24219l-6.32422 3.0586m6.32422-3.0586l1.98047 1.44531m10.95312-2.0625l-5.5625 4.29688m5.5625-4.29688l2.23438 1.00781m10.44922-1.64062l-4.29688 5.5625"/><g clip-path="url(#W)"><path fill="none" stroke="#000" stroke-linecap="round" stroke-linejoin="round" stroke-miterlimit="10" stroke-width=".5" d="M465.71094 344.39844l2.41797.41015"/></g><path fill="none" stroke="#000" stroke-linecap="round" stroke-linejoin="round" stroke-miterlimit="10" stroke-width=".5" d="M465.08594 345.20703l1.20703.20703"/><g clip-path="url(#X)"><path fill="none" stroke="#000" stroke-linecap="round" stroke-linejoin="round" stroke-miterlimit="10" stroke-width=".5" d="M145.70313 336.9375l-3.40625-6.14844"/></g><path fill="none" stroke="#000" stroke-linecap="round" stroke-linejoin="round" stroke-miterlimit="10" stroke-width=".5" d="M145.70313 336.9375l-1.33594 2.05469"/><g clip-path="url(#Y)"><path fill="none" stroke="#000" stroke-linecap="round" stroke-linejoin="round" stroke-miterlimit="10" stroke-width=".5" d="M145.20703 336.04297l-1.33594 2.0586"/></g><path fill="none" stroke="#000" stroke-linecap="round" stroke-linejoin="round" stroke-miterlimit="10" stroke-width=".5" d="M159.92578 336.21484l-5.21875-4.70312m5.21875 4.70312l-.59766 2.38282m-.16406-3.06641l-.59375 2.3789m15.02735-2.16796l-5.9375-3.75781m5.9375 3.7578l-.1875 2.44923m-.67578-2.9961l-.09375 1.22266m14.32421-.76172l-6.03906-3.58984m6.03906 3.58984l-.11718 2.45313m-.76172-2.97266l-.0586 1.22265m14.4336-1.04687l-6.40235-2.89844m6.40235 2.89844l.15625 2.44922m-1.08594-2.8711l.15625 2.44922m14.34375-4.11718l-6.91016 1.28125m6.91016-1.28125l1.52734 1.92187m-2.53515-1.73437l1.52734 1.91796m-2.53125-1.73437l1.52734 1.92188m13.63282-2.89063l-6.57813 2.47656m6.57813-2.47656l1.83984 1.625m-2.79687-1.26563l1.83984 1.625m-2.79688-1.26171l.92188.80859m14.21094-1.75781l-6.38672 2.92969m6.38672-2.9297l1.94922 1.48829m-2.87891-1.0625l1.95313 1.48828m12.1328-2.21875l-6.0703 3.53906m6.0703-3.53906l2.08595 1.28906m-2.96875-.77734l2.08593 1.29297m11.44531-2.63281l-4.73437 5.1914m4.73438-5.1914l2.3789.60937m-3.0664.14844l1.1875.30469m11.47656-1.82422l-2.0586 6.71875m1.75782-5.7422l1.20703-.23437m12.8164-.58984l-2.87109 6.41406m2.45313-5.48047l1.22265-.08203m14.41406 3.4414l-6.68359-2.17187m5.71094 1.85547l.21484 1.20703m14.21875-1.53515l-6.97265-.88281m6.97265.8828l.8711 2.29298m11.79687-.66407l-5.67969-4.14062m5.67969 4.14062l-.34375 2.42579m-.48047-3.03125l-.34765 2.42968m14.70312-2.16406l-6.11328-3.46484m6.11328 3.46484l-.0625 2.45313m-.82422-2.95704l-.03515 1.22657m14.67578-2.09766l-6.98829-.71484m6.98829.71484l.92578 2.27344m11.72656-4.71094l-5.66016 4.16406m5.66016-4.16406l2.21094 1.0586m-3.03516-.45313l1.10547.53125m12.08984-2.01953l-3.77343 5.92969m3.77343-5.9297l2.44532.19141m-2.9961.67188l2.44922.1914m10.3086-1.51562l-1.5586 6.85156m1.5586-6.85156l2.36718-.64453m-2.59375 1.64062l2.36719-.64453m11.20703-.34375l-1.625 6.83594m1.625-6.83594l2.375-.6211m-2.61328 1.61329l1.1875-.3086m14.92578 3.72657l-6.74219-1.98438m5.76172 1.69532l.2461 1.20312m14.16015-1.42969l-6.96484-.95312m6.96484.95312l.84766 2.30079m-1.86328-2.44141l.42578 1.15234m13.76172-2.57812l-6.67969 2.17969m6.67969-2.1797l1.76953 1.69923m-2.74219-1.38282l1.76953 1.70313M466.16016 331.5l-5.19922 4.72656"/><g clip-path="url(#Z)"><path fill="none" stroke="#000" stroke-linecap="round" stroke-linejoin="round" stroke-miterlimit="10" stroke-width=".5" d="M466.16016 331.5l2.3125.82813"/></g><path fill="none" stroke="#000" stroke-linecap="round" stroke-linejoin="round" stroke-miterlimit="10" stroke-width=".5" d="M465.40625 332.1875l2.3086.82813"/><g clip-path="url(#aa)"><path fill="none" stroke="#000" stroke-linecap="round" stroke-linejoin="round" stroke-miterlimit="10" stroke-width=".5" d="M146.70313 322.79297l-5.40625-4.48828"/></g><path fill="none" stroke="#000" stroke-linecap="round" stroke-linejoin="round" stroke-miterlimit="10" stroke-width=".5" d="M146.70313 322.79297l-.4961 2.40234m-.28906-3.0586l-.4961 2.40626m-.29296-3.0586l-.2461 1.20313m15.09375.15625l-5.32031-4.58984m5.32031 4.58984l-.54297 2.39063m-.23047-3.0586l-.54296 2.39063m13.72265-.97266l-3.50781-6.08984m3.50781 6.08984l-1.30078 2.07813m14.70313-2.12891l-3.6797-5.98828m3.6797 5.98828l-1.2461 2.11328m15.55469-3.02734l-5.66406-4.16016m5.66406 4.16016l-.35547 2.42578m-.46875-3.03125l-.17969 1.21094m14.9961-2.85547l-7.01953.33593m7.01953-.33593l1.2539 2.10937m11.39063-4.01172l-5.67969 4.14063m5.67969-4.14063l2.20703 1.07031m-3.03516-.46875l1.10547.53907m13.13281-1l-5.87109 3.85937m5.8711-3.85937l2.15234 1.17969m-3.0039-.6172l1.07421.58985m12.82422-1.51172l-5.33203 4.57813m5.33203-4.57813l2.28516.89453m-3.0625-.22656l1.14453.44531m12.19922-1.76562l-3.83594 5.88672m3.83594-5.88672l2.4453.21875m-3.0039.63672l1.22266.10937m12.21484-1.20703l-2.96484 6.3711m2.96484-6.3711l2.44922-.13281m12.0039.97656l-5.23827 4.6836m4.47656-4.00391l1.14844.42578m12.96875 3.53125l-5.32032-4.58984m5.32032 4.58984l-.54297 2.39063m14.44922-3.35547l-6.50391-2.66016m6.5039 2.66016l.2461 2.4414m-1.1914-2.82812l.12109 1.21875m14.28125-1.25l-6.78516-1.82813m6.78516 1.82813l.54687 2.39453m-1.53515-2.66016l.27343 1.19531m14.14844-1.9414l-7.02344.19922m7.02344-.19922l1.21485 2.13281m-2.23829-2.10547l.60938 1.0664m13.35937-2.5664l-6.28515 3.14453m6.28515-3.14453l2 1.42188m-2.91406-.96485l1 .71094m12.6875-1.96094l-5.19922 4.72657m5.19922-4.72657l2.3086.82813m9.96484-1.61328l-3.11719 6.29687m3.11719-6.29687l2.44922-.07031m-2.90235.98828l1.22657-.03907m12.3203-.98046l-2.67577 6.5m2.67578-6.5l2.4414-.23829m-2.83203 1.1836l1.22266-.11719m12.13281-.94922l-1.97656 6.74219m1.97656-6.74219l2.40625-.4961m-2.6914 1.47657l1.19922-.2461m12.36718 6.01954l-1.90625-6.76172m1.90625 6.76172l-1.77343 1.69531m16.66796-2.64063l-5.0664-4.87109m5.0664 4.8711l-.67187 2.35937m14.79297-5.89063l-6.67969 2.19141m6.67969-2.1914l1.76953 1.69921m-2.74219-1.3828l.88672.85155m12.17578-2.8789l-4.23047 5.60937"/><g clip-path="url(#ab)"><path fill="none" stroke="#000" stroke-linecap="round" stroke-linejoin="round" stroke-miterlimit="10" stroke-width=".5" d="M465.67578 317.74219l2.42578.38281"/></g><path fill="none" stroke="#000" stroke-linecap="round" stroke-linejoin="round" stroke-miterlimit="10" stroke-width=".5" d="M465.0625 318.5586l2.42188.3828m-3.03907.4336l1.21094.1914"/><path fill="#ff3030" fill-rule="evenodd" d="M348.98828 458.77344h7.6914V448.625h-7.6914v10.14844"/><path fill="azure" fill-rule="evenodd" d="M350.82031 450.45703h.83203v5.74219h3.19532v.73828h-4.02735v-6.48047"/><path fill="#00f" fill-rule="evenodd" d="M388.23828 432.14063h8.61719v-10.14454h-8.61719v10.14454"/><path fill="azure" fill-rule="evenodd" d="M390.07031 423.82813h.83594v2.82421h3.28516v-2.82421h.83203v6.48046h-.83203v-2.91796h-3.28516v2.91796h-.83594v-6.48046"/><path fill="#00f" fill-rule="evenodd" d="M281.71875 423.26563h8.61719v-10.14844h-8.61719v10.14844"/><path fill="azure" fill-rule="evenodd" d="M283.55078 414.95313h.83203v2.8203h3.28906v-2.8203h.83204v6.48046h-.83204v-2.91796h-3.28906v2.91796h-.83203v-6.48046"/><path fill="#00f" fill-rule="evenodd" d="M361.60938 401.07422h8.61718v-10.14844h-8.61719v10.14844"/><path fill="azure" fill-rule="evenodd" d="M363.4414 392.76172h.83204v2.82031h3.28906v-2.82031h.83203v6.47656h-.83203v-2.91406h-3.28906v2.91406h-.83203v-6.47656"/><path fill="#ff3030" fill-rule="evenodd" d="M206.96094 374.4414h7.6914v-10.14452h-7.6914v10.14453"/><path fill="azure" fill-rule="evenodd" d="M208.79297 366.1289h.83203v5.7422h3.19531v.73827h-4.02734v-6.48046"/><path fill="#ff3030" fill-rule="evenodd" d="M291.28906 370.0039h7.6914v-10.14452h-7.6914v10.14453"/><path fill="azure" fill-rule="evenodd" d="M293.1211 361.6914h.83593v5.73829h3.1914v.74219h-4.02734v-6.48047"/><path fill="#ffffe0" fill-rule="evenodd" d="M359.4961 372.63281h22.17968v-10.1914H359.4961v10.1914"/><path fill-rule="evenodd" d="M362.9961 364.27344h.51171v6.29687h-.78906v-4.48828h-1.38672v-.5586l.5586-.0625.25-.05468.23046-.08984.20313-.14063.17578-.21094.14063-.29296.10546-.39844m4.8125 0l.23047.01953.21875.0586.20703.08984.19922.11718.1836.15235.17187.17578.30078.41797.24219.49219.17969.54687.11328.58203.03906.58985-.03906.59375-.11328.58203-.17969.55468-.24219.50391-.30078.42578-.17187.17969-.1836.15234-.19922.125-.20703.09375-.21875.05469-.23047.01953-.22656-.01953-.21875-.05469-.21094-.09375-.1953-.125-.1836-.15234-.17188-.17969-.30078-.42578-.24219-.5039-.17968-.5547-.11329-.58202-.03906-.59375h.83594l.02734.5625.08204.5078.125.44141.16406.375.1914.30079.21094.21875.22266.13671.22265.04688.22657-.04688.22265-.13671.21094-.21875.1914-.30079.16407-.375.125-.4414.08203-.50781.02734-.5625-.02734-.5625-.08203-.5-.125-.4336-.16406-.36719-.19141-.29296-.21094-.21485-.22265-.1289-.22657-.04688-.22265.04688-.22266.1289-.21094.21485-.1914.29296-.16406.3672-.125.43358-.08204.5-.02734.5625h-.83594l.03906-.58984.11329-.58203.17968-.54688.2422-.49218.30077-.41797.17188-.17578.1836-.15235.1953-.11718.21094-.08985.21875-.0586.22656-.01952m5.09375 0h.50782v6.29687h-.78516v-4.48828h-1.39063v-.5586l.5625-.0625.25-.05468.23047-.08984.20313-.14063.17578-.21094.14063-.29296.10546-.39844m2.82422 2.17578h.78516l.01953-.3164.0586-.28516.10156-.25391.14062-.21484.17969-.17188.22265-.1289.26563-.08204.3086-.02734.23827.02344.22266.0625.20313.10156.17968.13672.14844.17578.11328.20313.07422.23828.02344.26171-.02344.26954-.0625.22656-.11328.1914-.15234.17188-.20313.16016-.2461.16796-.6328.38672-.53907.3125-.4375.31641-.34765.32813-.26172.33203-.1914.35156-.125.3711-.06642.39452-.02343.41797h4.21094v-.74219h-3.33204l.08594-.28125.11328-.23828.14844-.20312.1875-.17969.23047-.17187.27734-.17579.71875-.41406.41406-.20703.34375-.23047.28125-.25.21875-.26953.16407-.27734.11328-.28125.0625-.28516.01953-.28125-.03906-.38281-.1211-.35156-.1914-.3047-.25-.26562-.30078-.21093-.34766-.16016-.3789-.09766-.40626-.03515-.43359.03515-.39844.09766-.35547.16797-.30468.23437-.25.3047-.1836.37108-.11719.44922-.03906.51563"/><path fill="#ffffe0" fill-rule="evenodd" d="M181.96484 341.84766h22.1797v-10.19141h-22.1797v10.1914"/><path fill-rule="evenodd" d="M185.46094 333.48828h.51172v6.29297h-.78907v-4.48828h-1.38672v-.55469l.5586-.0664.2539-.0547.22657-.08984.20703-.14062.17187-.21094.14063-.29297.10547-.39453m4.8164 0l.22657.01953.21875.05469.21093.08984.19532.1211.18359.14844.17188.17578.30078.41796.24609.4961.17969.54687.10937.57813.03906.58984-.03906.59375-.10937.58594-.17969.55078-.2461.5039-.30077.4297-.17188.17968-.1836.15235-.1953.12109-.21094.09375-.21875.0586-.22657.01952-.23047-.01953-.21875-.05859-.20703-.09375-.19922-.1211-.18359-.15234-.17187-.17969-.30078-.42968-.2422-.5039-.17968-.55079-.11328-.58594-.03906-.59375h.83593l.02735.5625.08203.50781.125.44141.16406.375.1914.30078.21095.22266.22265.13672.22656.04687.22657-.04687.22265-.13672.21094-.22266.1875-.30078.16406-.375.125-.4414.08203-.50782.03125-.5625-.03125-.5586-.08203-.5039-.125-.4336-.16406-.36718-.1875-.28906-.21094-.21485-.22265-.1328-.22657-.04298-.22656.04297-.22266.13281-.21093.21485-.1914.28906-.16407.36719-.125.4336-.08203.5039-.02735.5586h-.83593l.03906-.58985.11328-.57813.17969-.54687.24219-.4961.30078-.41796.17187-.17579.1836-.14843.19921-.1211.20703-.08984.21875-.05469.23047-.01953m5.08985 0h.50781v6.29297h-.78516v-4.48828h-1.38672v-.55469l.5586-.0664.25-.0547.23047-.08984.20312-.14062.17578-.21094.14063-.29297.10547-.39453m2.82422 2.17578h.78515l.01953-.3164.0625-.28907.09766-.25.14063-.21484.17968-.17578.22266-.1289.26562-.07813.3086-.02735.23828.01954.22266.0625.20703.10156.17578.13672.14844.17578.11328.20703.07422.23437.02343.26563-.01953.26562-.0664.22657-.10938.1914-.15625.17188-.20313.16015-.24609.16797-.63281.38672-.53906.3164-.4375.31641-.34375.32422-.26563.33594-.1914.35156-.125.36719-.06641.39453-.02344.41797h4.21484v-.73828h-3.33593l.08594-.28516.11328-.23828.14843-.19922.1875-.17969.23047-.17187.27735-.17578.71875-.41797.41406-.20313.34766-.23437.27734-.25.22266-.26563.16015-.27734.11328-.28515.0625-.28516.01953-.28125-.03906-.38281-.1211-.34766-.1875-.3086-.2539-.26171-.30078-.21485-.34375-.15625-.38281-.10156-.40625-.03125-.4336.03125-.39843.09766-.35547.16797-.30469.23437-.25.30469-.1836.375-.11718.44531-.03906.51953"/><path fill="#ffffe0" fill-rule="evenodd" d="M162.14453 476.75781h22.17969V466.5625h-22.17969v10.19531"/><path fill-rule="evenodd" d="M165.64453 468.39844h.50781v6.29297h-.78515v-4.48829h-1.39063v-.55468l.5625-.0664.25-.0547.23047-.08984.20313-.14063.17578-.21093.14062-.29297.10547-.39453m4.8125 0l.23047.01953.21875.05469.20703.08984.19922.1211.1836.14843.17187.17578.30078.41797.24219.4961.17969.54687.11328.57813.03515.58984-.03515.59375-.11328.58594-.1797.55078-.24218.5039-.30078.42579-.17188.17968-.18359.15625-.19922.1211-.20703.09375-.21875.05468-.23047.01954-.22656-.01954-.22266-.05468-.20703-.09375-.19531-.1211-.1836-.15625-.17187-.17969-.30078-.42578-.2461-.5039-.17968-.55078-.10938-.58594-.03906-.59375h.83203l.03125.5625.08203.50781.125.4414.16406.375.1875.30079.21094.22265.22266.13672.22656.04688.22656-.04688.22266-.13671.21094-.22266.1914-.30078.16407-.375.125-.4414.08203-.50782.02734-.5625-.02734-.5625-.08203-.5-.125-.4336-.16407-.36718-.1914-.29297-.21094-.21094-.22266-.13281-.22656-.04688-.22656.04688-.22266.13281-.21094.21094-.1875.29297-.16406.36719-.125.43359-.08203.5-.03125.5625h-.83203l.03906-.58985.10938-.57812.17969-.54688.24609-.49609.30078-.41797.17188-.17578.18359-.14844.19531-.12109.20703-.08984.22266-.0547.22656-.01952m5.09375 0h.50781v6.29297h-.78515v-4.48829h-1.39063v-.55468l.5586-.0664.2539-.0547.23047-.08984.20313-.14063.17187-.21093.14453-.29297.10547-.39453m2.82031 2.17578h.78907l.01953-.3164.0586-.28907.09765-.25.14062-.21484.1836-.17579.22265-.1289.26563-.08203.3086-.02735.23827.02344.22266.0625.20312.10156.1797.13672.14843.17578.11328.20313.07031.23828.02735.26172-.02344.26953-.0664.22656-.10938.1914-.15625.17188-.19922.16016-.2461.16797-.63671.38672-.53516.3164-.4375.31641-.34766.32422-.26172.33594-.1914.35156-.125.36719-.07031.39453-.01953.41797h4.21093v-.73829h-3.33203l.08203-.28515.11328-.23828.14844-.19922.1875-.17969.23047-.17187.28125-.17579.71484-.41796.41797-.20704.34375-.23046.28125-.25.21875-.26563.16406-.28125.11329-.28125.0625-.28515.01953-.28125-.04297-.38282-.11719-.34765-.1914-.3086-.25-.26172-.30079-.21484-.34765-.15625-.3789-.10156-.40626-.03125-.4375.03125-.39844.09765-.35156.16797-.30469.23438-.25.30469-.1875.375-.11328.4453-.04297.51954"/></g></defs><use xlink:href="#ac"/></svg>