<svg xmlns="http://www.w3.org/2000/svg" role="img" xmlns:xlink="http://www.w3.org/1999/xlink" viewBox="142.45 309.95 326.84 171.84"><defs><clipPath id="a"><path d="M144 441h1v39.32813h-1zm0 0"/></clipPath><clipPath id="b"><path d="M144 311.67188h1V433h-1zm0 0"/></clipPath><clipPath id="c"><path d="M144 311.67188h324v168.65625H144zm0 0"/></clipPath><clipPath id="d"><path d="M385 479h5v1.32813h-5zm0 0"/></clipPath><clipPath id="e"><path d="M411 436h57v44.32813h-57zm0 0"/></clipPath><clipPath id="f"><path d="M467 425h1v55.32813h-1zm0 0"/></clipPath><clipPath id="g"><path d="M467 311.67188h1V421h-1zm0 0"/></clipPath><clipPath id="h"><path d="M144 476h2v4.32813h-2zm0 0"/></clipPath><clipPath id="i"><path d="M156 479h3v1.32813h-3zm0 0"/></clipPath><clipPath id="j"><path d="M168 476h5v4.32813h-5zm0 0"/></clipPath><clipPath id="k"><path d="M181 477h6v3.32813h-6zm0 0"/></clipPath><clipPath id="l"><path d="M195 477h5v3.32813h-5zm0 0"/></clipPath><clipPath id="m"><path d="M208 477h5v3.32813h-5zm0 0"/></clipPath><clipPath id="n"><path d="M221 477h6v3.32813h-6zm0 0"/></clipPath><clipPath id="o"><path d="M234 477h6v3.32813h-6zm0 0"/></clipPath><clipPath id="p"><path d="M247 477h7v3.32813h-7zm0 0"/></clipPath><clipPath id="q"><path d="M261 477h6v3.32813h-6zm0 0"/></clipPath><clipPath id="r"><path d="M273 478h8v2.32813h-8zm0 0"/></clipPath><clipPath id="s"><path d="M287 478h7v2.32813h-7zm0 0"/></clipPath><clipPath id="t"><path d="M300 479h8v1.32813h-8zm0 0"/></clipPath><clipPath id="u"><path d="M305 480h2v.32813h-2zm0 0"/></clipPath><clipPath id="v"><path d="M314 477h6v3.32813h-6zm0 0"/></clipPath><clipPath id="w"><path d="M328 477h5v3.32813h-5zm0 0"/></clipPath><clipPath id="x"><path d="M339 479h9v1.32813h-9zm0 0"/></clipPath><clipPath id="y"><path d="M353 479h8v1.32813h-8zm0 0"/></clipPath><clipPath id="z"><path d="M353 479h2v1.32813h-2zm0 0"/></clipPath><clipPath id="A"><path d="M368 476h4v4.32813h-4zm0 0"/></clipPath><clipPath id="B"><path d="M382 476h3v4.32813h-3zm0 0"/></clipPath><clipPath id="C"><path d="M395 476h4v4.32813h-4zm0 0"/></clipPath><clipPath id="D"><path d="M409 476h2v4.32813h-2zm0 0"/></clipPath><clipPath id="E"><path d="M420 478h8v2.32813h-8zm0 0"/></clipPath><clipPath id="F"><path d="M433 479h8v1.32813h-8zm0 0"/></clipPath><clipPath id="G"><path d="M446 478h8v2.32813h-8zm0 0"/></clipPath><clipPath id="H"><path d="M446 480h3v.32813h-3zm0 0"/></clipPath><clipPath id="I"><path d="M460 478h8v2.32813h-8zm0 0"/></clipPath><clipPath id="J"><path d="M458 479h3v1.32813h-3zm0 0"/></clipPath><clipPath id="K"><path d="M144 465h4v4h-4zm0 0"/></clipPath><clipPath id="L"><path d="M144 452h4v4h-4zm0 0"/></clipPath><clipPath id="M"><path d="M144 437h3v7h-3zm0 0"/></clipPath><clipPath id="N"><path d="M144 424h3v6h-3zm0 0"/></clipPath><clipPath id="O"><path d="M144 411h4v6h-4zm0 0"/></clipPath><clipPath id="P"><path d="M144 398h4v5h-4zm0 0"/></clipPath><clipPath id="Q"><path d="M144 384h3v6h-3zm0 0"/></clipPath><clipPath id="R"><path d="M144 370h1v8h-1zm0 0"/></clipPath><clipPath id="S"><path d="M144 377h1v2h-1zm0 0"/></clipPath><clipPath id="T"><path d="M144 356h1v9h-1zm0 0"/></clipPath><clipPath id="U"><path d="M144 363h1v3h-1zm0 0"/></clipPath><clipPath id="V"><path d="M144 362h1v2h-1zm0 0"/></clipPath><clipPath id="W"><path d="M144 343h1v8h-1zm0 0"/></clipPath><clipPath id="X"><path d="M144 350h1v3h-1zm0 0"/></clipPath><clipPath id="Y"><path d="M144 349h1v2h-1zm0 0"/></clipPath><clipPath id="Z"><path d="M465 344h3v2h-3zm0 0"/></clipPath><clipPath id="aa"><path d="M144 330h2v8h-2zm0 0"/></clipPath><clipPath id="ab"><path d="M144 335h2v4h-2zm0 0"/></clipPath><clipPath id="ac"><path d="M465 331h3v2h-3zm0 0"/></clipPath><clipPath id="ad"><path d="M144 317h3v7h-3zm0 0"/></clipPath><clipPath id="ae"><path d="M465 317h3v2h-3zm0 0"/></clipPath><g id="af" clip-path="url(#clip1)"><path fill="#fff" fill-opacity="0" fill-rule="evenodd" d="M0 0h1000v1000H0zm0 0"/><path fill="#d3d3d3" fill-opacity="0" fill-rule="evenodd" d="M162.15234 355.86719l-.23437.29297.0586.23437.11718.17188.17578.23437.29297.34766.11328.0586.11719-.17188.0586-.23438.17577-.17578.46485-.17578h.69922l.23437.29297.28906.8164.0586.17579.17578.23046.35156.23438.69922.69922.17188.17578.23437.34765.23438.41016.28906.58203.41015.46485.23047.23437.23438.17578.11719.23047.17578.29297.17187 1.16406v.23438l.0586.28906.05859.11719.11719.11719.34765.41015.11719.17188.17578.17578.17578.23437.11719.17188.17188.35156.05859.23438.23437.40625.23438-.0586-.17578.17578-.0586.92969h-.58203l-.23437-.11328-.34766.11328-.11719.11719-.05859.29297-.0586.17578-.11718.17187-.46484.29297-.0586.23438-.0586.11328v.64453l.0586.17187v.41016l.0586.0586v.40624l.05859.40625.11719.17579.05859.05859.23047.64062-.0586.29297v.69922l-.05859.58203v.23438l-.0586.23047-.05468.35156v1.92187l.05469.1172h.42578l-.36719.11718-.02344.35156.89063 1.16797 1.74219.53906 1.33984.35938v.53906l.08984.8086.53516.71484 1.51953.26953.89063-.08594.08984 1.16406.53516.1797 1.16015-.1797 2.05469-.98437 1.16016-.36328 1.8789-.17578 1.69531-.1797-.17968.71876-1.51563.08594-1.25.08984-.80469.26953-1.07421.8086.26953.71875.53515.89843-.17968.625-.26563.8086.26563 1.07812.625.89844.80468.17969 1.25-.1797-.26562.72267.09766.5039.05468.29297v.17188l.0586.29296v.40625l.17578.1172.35156.11718h.40625l.29297-.17578.11328-.11719.0586-.11719.11718-.23047.0586-.17578.35156-.46484.23047-.17578.17578-.0586.17578.0586.0586.17578.11718.98828.05469.46875.0586.17188.11718.23437.17578.0586.8164.05859h.28907l.11719.23437.05859.40625.0586.35156v1.10547l.11718.29297.11719.34766.28906.69922.17578.35156.58203.7539.35157.17579.17187.0586.46875.23437.64063.46484.34765.23438.29297.17578.29297.05468.23047.0625.8164.34766.29297.17578.11328.17188.35157.35156.11719.17578.52343.64063v.28906l.0586.35156v.34766l.05859.35156.0586.28906.11718.0586.17188.05859h.17578l.58203.23437.17578.1172.17578.28905.17578.23438.11328.23437.29297.23047.11719.11719v.41016l.0586.05468.28906.23438.23437.11719.0586.11718.11718.17188.0586.11719.23047.23437.05859.17578.23437.0586.1172.05859-.1172.11328-.05859.11719v.11719l-.11719.29296-.11719.28907v.58203l.17579.11719.11718.05859.0586.11719.11719.11719.11328.05859.17578.34765.0586.35157.05858.40625v.17578l-.05859.17578-.11719.69922v.17187l.1172.17579.29296.29296h.40625l.17578.1172.11719.17187.11719.29296v.23438h-.52735l-.23047-.23438h-.23437l-.17578.0586-.0586.69922.0586.34765.11719.17579.17578.41015.11718.23047.28907.46875.17578.05469h.52344l.23437.0586.75781.64062.0586.29296v.23438l.05859.0586.23047.34765v.35156l-.11719.17188v.29297l.29297.28906.29297.17578.17187.0586.29297.17577.29297.1172.58203.40624.28906.23438.29297.17578.21875.16015.01563.01172.23047.17579.64062.52343.17578.23438.1172.17578.17577.17578.11328.17188v.64062l.1172.17578.46874.11719.58203.11719.23438.05859.23047.11328.29297.11719.11328.0586.58593.35156.28907.17187.17578.0625.17578.05469.17578.0586.69922.35155.28906.17579.23438.05468.28906.17578.23437.1172.64063.40624.29297.11719.17187.0586.23438.05859.41015.05859.23047.0586.23438.11718.0586.17188-.41017.17578.46875.0586.0586.29296.11328.23438.17578.05468.23438.0586.17578.05859.40625.11719.64062.23437.11719.17188.0586.23437v.17578l-.0586.1172-.0586.40624.23438.23438.11719.05859.34766.11719.64062.23047.17578.11718.28906.1172.17578.17577.23438.46485.58203 1.10546.17578.17579.34766.17578.17578.11719.35156.11718 1.04688.52344.23437.0586.46485.11327.29297.0586.46484.17578.75781.58203.23438.23438.34765.46484.17578.17578.28907.23438.8164.69921.29297.17579.28906.28906.29297.17578.29297.28906.69531.64063.17578.17578.29297.23437.28907.23438.46875.28906.64062.58203.34766.23438.23437.29297.34766.34765.35156.46485.9336.99218.34765.40625.11719.17579.23437.05859.11328.11719.64454.17578.23047.11328.23437.0586.29297.17577.23047.1172.9336.69921.40624.40625.23438.17578.40625.17578.23437.11719.8164.34766.34766.23437.23438.11719.29297.28906.23047.11719.7578.35156.35157.17188.23047.05859.29297.11719.23437.0586.8711.17577h.8164l.46875.23047.17188.0586.875.69921.46484.1172.29297.05858.17578.0586.23047.0586.46875.05859.34766.05859.35156.0586.40625.05859h.29297l.17187.0586v.23046l.17578.17578h.29297l.34766.0586.35156.05859.69922.11719h.64063l.46484-.23438.29297-.17578.17187-.11719.41016-.17187.28906-.17578.9336-.46485.46875-.29297.52343-.29296.46485-.17188.46484-.17578 1.05078-.46485.28906-.11718.41016-.11719.28906-.11719.52735-.17578 1.51562-.69922.58203-.34765.28907-.0586.29297-.0586.34765-.11718.875-.23047.35156-.11719h.11329l.23437-.05859.875-.23437.23438-.0586h.8125l.35156-.0586.8164-.11718.17188-.0586.35156-.05468.29297-.0586.23047-.05859.8164-.17578.17579-.0586h.34765l.23438-.05859.46484-.11718.75781-.17188.23438-.0586h.34765l.41016-.11718.28906-.0586 1.28516-.05859h.28906l.41016-.0586.23047-.05858h.17578l.875-.1172h.40625l.41015-.11718h.34766l.35156-.11328.8711-.0586h1.75l1.04687.28907.41016.11719.28906.11718.35156.11719.28907.11719 1.05078.17187.28906.0586h.29297l.29297.05859.17187.0586.41016.05859.17187.0586.1172.05858h.11718l.11719.0586.35156.0586h.11328l.41016.0664 1.92187.39453 1.92578.39453 1.51953.44922 1.69532.71875 2.14453.80469 1.60547-.71875 1.42968-.80469 1.16016-1.07813 1.25-.44921 3.03516-.71875 1.875-.35938 2.14453-1.34765 2.23437-1.25391 2.5-1.25781 1.69531-.44922 1.78516-.17969 1.16016-.26953.625.53906 1.33984-.26953.71485-.98828.98437-1.34375.44531-.17969.80469-.35937 1.875-.53907 1.78516-.44921 1.25-.26954 1.16015-.08984 1.69922-.08984 1.96094-.26954 1.25-.08984h.53906l.625-.08984h.89063l2.14453-.17969 2.41015-.17969 2.58985-.08984 1.69531.17969 1.60938.08984 1.42968.35938 1.16016.71875 1.875.98828 1.16015 1.52734.26563.71484.6289.08985.35548.89844.53515.53906.53516 1.52734 1.07422.35938h.53515l-.80469.53515.08985 1.70703.71484 2.69532.89063.80468.89453.98829.71484 1.2578 1.78516.53907 1.51953-.17969.35547 1.34375 1.60937-.80469.98047-.53906.26953.26953.31641-.21484.21875-.14453.80078.44922.44922-.35938h.35547l.53515-.26953.53907-.71875.53515-.26953.625-.98828 1.16016.44922.83984.3711 1.39454.61718 1.6953-.17969h1.60548l1.78515.08985.17969-1.70704.53516-1.34375.80468.26954.4922.84765.40233.40625-.08984.53906v.35938l.71485.44922.71093-.26953h1.42969l.35938.98828.4453 1.25781.71485 1.34375 1.25.6289 1.69531.62891.71485-.17969.17969-.53906.98046-.08984.44922.35937.08594 1.25782-.26563.6289-.53515.17969v.53906l.71484.98438.26563.53906.98437.98828.80078 1.07813-.26562.35937-.08985.89844-.625 2.33203-.35546 2.0664-.08985 1.79298-.17969.71875-.08984.53906v1.4375l-.98047 1.88281-.35937 1.70703-.53516.89844-.80469 1.16797-.26562.53906 2.05469 1.2539.08593.35938-.35546.53906-.08985-.17968v.80859l.08985 1.4375-.44532.71484-1.07422.09375-.26562.71485.53515.89844.8047.71875 1.16015.80859 1.33984.26953.44531.35938-.35546.44921-1.78907-.08984-1.25-.44922-.71484-.71875-.625-.08984-.17578 3.58984-.1875 1.3086h89.35937V311.70313h-55.26953v49.08203l.76172.125 3.28906.54296 2.02344 2.83594v2.7539l2.35156.33204 2.34766.33203h4.05078l-1.3789 4.16016-2.02344.70703-2.02344.70312-.54297.34375-2.59375 1.6172-.1875.11718-2.02344-2.07813-.73046-2.74218-2.67188-2.07813-1.375-3.5-.0664-.08203-1.95704-2.67188 2.75-1.41796v-49.08204H294.42187v91.41407l.1172.03125.1328.01172.07422.07421.10547.04688.08985.0586.08593.05859.08985.0586.29687.29687.0586.08984.03125.11719.02734.11719.01563.13671-.03125.1172-.0586.08983-.0586.08594-.04296.10547-.04688.10156-.02734.1211v.14453l.17578.26953.14844.14844.07422.08594.07422.07421.04296.10547.0625.08985.0586.08593.04297.10547.0586.08985.04687.10156.04296.10547.0586.08594.11719.17968.07421.07422.0625.08594.0586.08984.04297.10547.0586.08985.05858.08593.0625.08985.0586.08984.04297.10156.11719.17969.07421.07422.0586.08594.07422.07421.08984.0586.10547.04687h.14844l.1328-.01562.13282.01562.10156-.04687.07422-.07422.04688-.10156-.01563-.13281v-.14844l-.04687-.10547-.02735-.11719-.04687-.10156-.02735-.1211-.04296-.10156-.0625-.08984-.04297-.10156-.04297-.10547-.03125-.11719-.01563-.13281-.01171-.13672.08593-.0586.0586-.08593.12109-.03125.04297.10547.01562.1328v.1172l.0586.10156.0586.08984.08983.0586.14844.14843.0586.08985.04296.10547-.01171.10156.08593.0586.10547.04687.08594.0586.08984.05858.07422.07422-.11719.02735-.10546.04687-.08594.0586-.07422.07421-.0586.08985-.0625.08594-.02734.12109-.04687.10156-.04297.10547-.03125.11719-.01172.13281-.01563.13281v.14844l.02735.11719.04687.10547.04297.10156.0586.08984.07421.07422.08985.0586.07422.07421.08984.0586.0586.08984.04296.10547.04688.10156.11719.03125.1328.01563h.14845l.11718-.03125.10547.04297.04297.10547.04688.10156.02734.1211L299.5 410l.02734.11719.03125.1211.02735.11718.10547.04297.10156.04687.13281-.01562.14844.14844.0625.08593.07422.07422.07031.07422.08984.0625.10547.04297.10156.04297.1172.03125.13671.01562.11719-.03125.07422-.07422.02734-.11718-.01172-.13282-.03125-.12109-.02734-.11719.04297-.10547h.11719l.08984.0625.11719.02735h.14843l.13282.01562h.14843l.13282.01563.1328-.01563h.14845l.1328-.01562.13282-.01172.13672.01172.11719-.02735.13281-.01562.1914-.0586-.05859.17579-.01562.1328-.02735.1211-.01562.13281-.0586.08594-.1328.01563-.10548.04687-.10546.04297-.1172.03125-.11718.02735-.26563.03125h-.14843l-.13281.01562-.07422.07422.05859.08594.14844.14843.11719.1797.07421.0703.08985.0625.08984.0586.08594.0586.08984.05858.10156.04297.10547.0625.10547.04297.08594.0586.10547.04687.10156.04297.17969.11719.0586.08984-.04298.10156-.04687.10547.01562.13281.22266.22266.0586.08985.04296.10156.03125.1211.04297.10155.01563.13282.03125.11718.01171.13672.03125.11719.14844.14844.10156.04297.10547.04296.1172.03125.1328.01563.13672.01563h.11719l.11719-.03125.08984-.0586.04297-.10547.04688-.10156.04296-.10547.03125-.11719.01172-.1328v-.14845l-.01172-.1328-.01562-.13282-.03125-.11719-.04297-.10547-.04688-.10547-.04296-.10156-.04297-.10547-.01563-.13281.01563-.13281.02734-.11719.03125-.11719.02735-.1211.04687-.10155.08984-.0586.08594-.0625.07422-.07422.08984-.05859.22266-.22266.0586-.08593.07421-.07422.11719-.17969.0586-.08594v-.14844l-.07423-.07421-.10156-.04688-.10547-.04297-.10156-.04297-.0586-.08984-.04687-.10547-.02734-.11719.08984-.05859.11719-.03125.10156-.04297.17969-.11719.14844-.14843.01172-.13282-.01172-.10546-.08985-.0586-.1328.01563h-.14845l-.1328.01562-.13282-.01562-.1211-.03125-.08593-.0586-.07422-.07422-.0586-.08984-.0625-.08594-.11718-.17969-.0586-.08593.03125-.1211.08594-.05859.1211-.03125.05859-.08594v-.1211l-.03125-.11718-.0586-.08984-.05859-.08594-.04687-.10547-.02735-.11719-.01562-.1328.0586-.08985.07421-.07422.08984-.0586.1172-.17968.07421-.07422.0586-.08594.14843-.14844.1211-.03125.1328-.01562.13282.01562.07422.07422.04297.10547.01562.13281-.03125.1172-.11719.03124-.1328.01172-.14844.14844-.04297.10547-.04688.10156-.02734.1211-.03125.11718v.14844l.03125.11719.04297.10546.05859.08985.07422.07031.07422.07422.11719.03125.12109.02734.11719-.02734.1328-.01563h.1172l.08984.0586.07422.07422.04687.10546.0586.08594.10156.04688.13281.01562.10547.04297.08594.0586-.01172.10546-.07422.07422-.17969.11719-.05859.08984-.08984.0586-.07032.07422-.07421.07421-.0625.08985-.02735.11719-.01562.1328.01562.13282-.01562.13281v.14844l.01562.13281.02735.1172.03125.12108.07421.07422.08985.0586.08594.0586.08984.05858.11719.03125v.08594l-.10157.04688-.08984.0586-.26563.03124-.11718.02735h-.14844l-.10547.04296-.10156.04688-.0586.08984-.0625.23438-.01171.13281-.03125.1211-.01563.1328v.29298l-.01172.1328.01172.13673.01563.1328.1328.01563.13282.01172.1211.03125.08593.0586.07422.07421.04688.10547.04296.10157.01563.1328v.44532l-.01563.13281v.44532l.03125.26562.02735.11719.01562.13281.03125.11719.08594.21094.03125.26562v.14844l-.03125.11719-.02734.11718-.03125.1211-.02735.11719-.03125.11718-.03125.1211-.01171.1328-.01563.13282.08984.0586.1172-.03125.10155.01562.04688.10547-.03125.26562v.44141l-.04297.10547-.04688.10547-.04296.10156-.04297.10547-.0586.08594-.03125.12109-.04296.11719-.03125.11719-.01563.1328.01563.13282.05859.08984.10547.04688.08594.0586.05859.08593-.01172.13672-.03125.11719-.04297.10156v.44531l-.01562.13281v.14844l-.03125.11719-.04297.10547-.02735.11719-.04687.10546-.04297.10157-.03125.12109-.02734.11719-.03125.13281-.03125.11719-.02735.11719-.04297.10546-.03125.1172-.03125.12108-.01171.13282-.01563.13281v.29688l.02734.11718v.14844l.04688.39844.02734.11719.0586.08984.12109.03125h.14844l.13281-.01563.0586.08985v.11719l-.0586.08984-.08984.0586-.10157.04296-.10546.04688-.08985.05859-.08594.0586-.13671.01562-.1172-.03125-.1328-.01563-.10157.04688-.0625.08594-.01172.13671-.01562.13282-.03125.11719-.02735.11718-.01562.13281-.03125.1211v.29687l.01563.13282.03125.11718v.14844l.01171.13281v.14844l-.02734.11719-.04688.10156-.02734.1211-.03125.11718-.0586.08985-.07421.07421-.10156.04297-.10547.04688-.11719.02734-.1211.03125-.10156-.04687.0586-.08594.10547-.04688.02734-.11718.03125-.11719.02734-.1211.03125-.11718v-.14844l.01563-.13281-.03125-.11719-.04297-.10547-.10547.01563-.07422.07422-.10156.04296-.08984.0625-.07422.07422-.04297.10157-.01563.1328-.03125.1172L304.25 426l-.03125.11719-.02734.11719-.03125.12109-.02735.11719-.03125.11718-.04297.10547-.08984.0586h-.08984l-.1172-.03125-.03124-.08594.01562-.13672-.03125-.11719v-.14844l-.01171-.1328v-.14844l-.0625-.23438-.02735-.1211-.04297-.10156-.04687-.10546-.0586-.08594-.05859-.08985-.04297-.10546-.0625-.08594-.14844-.14844-.0703-.07422-.10548-.04687-.10547-.04297-.10156-.04297-.29687-.29688-.08985-.07421-.08594-.0586-.10546-.04297-.08985-.0625-.08594-.0586-.10546-.04296-.08985-.0586-.08594-.0625-.07421-.0703-.10547-.04688-.08594-.0586-.10547-.04296-.08984-.0625-.10156-.04297-.10547-.04297-.08594-.0586-.10547-.04687-.10547-.04297-.10156-.04687-.08985-.0586-.10156-.04297-.10547-.04296-.08984-.0625-.11719-.02735-.13281-.01562-.13281.01562H299.75l-.13281.01563-.11719-.03125-.08984-.0586-.07422-.07422-.08985-.05859-.10156-.04688h-.14844l-.12109-.02734-.10156-.04297-.07422-.07422-.11719-.17968-.08984-.0586-.10156-.04297-.08985-.0625-.10547-.04296-.08984-.0586-.08594-.0586-.10547-.04687-.0586-.08594-.05858-.08984-.04297-.10547-.04688-.10156-.07422-.07422-.08594-.0586-.07421-.07421-.08985-.0586-.22265-.22265-.04297-.10547-.03125-.26563.10547-.04296h.14453l.10547.04296.07421.07422.08985.0586.08594.0586.10546.04687.08985.05859.14844.14844.0703.07422.14845.14843.0625.08594.07421.07422.08594.0586.07422.07421.08985.0625.08984.0586.08594.05859.26953.17578.10156.04688.10547.04296.10156.04297.04688-.07421.05859-.08594.07422-.07422.07031-.07422.10547.04297.07422.07422.0586.08984.04296.10156.04688.10547.04296.10547.1211.02735.11719-.02735.07421-.08984.04297-.10547.0586-.08985.07422-.07421.10546-.04297.1172-.02735.1328.01172.08985.0586.14844.14843.05859.08985.04297.10547.04687.10156.04297.10547.04297.10156.10547.04688.10547.04296.13281.01563.08594-.0586.0586-.08984.07421-.07422.10547-.04297.11719.02735.10547.04687.10156.04297.10547.04297.10156.04688.17969.11718v.11719l-.01563.13281.01563.13281.01562.13672.0586.08594.10156.04688.1211.02734.11718.03125h.14844l.11719-.03125.05859-.08984.17969-.1172.05859-.08983.07422-.07422.0586-.08594.11718-.17969.17969-.11719.11719.03125.08984.0586.04297.07422-.01563.1328v.1172l.08985.05859h.14843l.13282-.01563.1328-.01171.26563-.03125.10547-.04297.11719-.03125.1211-.02735.07421-.07421.07031-.07422.0625-.08985-.01562-.10547-.04688-.10156-.10156-.04297-.10547-.01562-.11718.02734-.26563.03125h-.14844l-.07421-.07422-.08985-.0586-.11719-.03124-.11718-.02735-.13282-.01562h-.14843l-.13282.01563h-.29687l-.10547-.04688-.14844-.14844-.04297-.10156-.05859-.08984.22266-.22266.08593-.0586.10547-.04296.11719-.03125.13281-.01563.13281.01563.13672.01562.10157.04297.1328-.01172.08985-.0625.10156-.04297.0625-.08984-.04687-.10156-.08984-.0586-.1172-.03125-.10155-.04296-.0586-.08985-.0625-.08984v-.11719l.01563-.13281.10547-.04688.07421-.07031v-.1211l-.08984-.05859-.03125-.11719.08985-.05859.07421-.07422.04297-.10547.0586-.08984.04687-.10156.01563-.13281v-.14844l-.04688-.10547-.04297-.10156-.08984-.0586-.13281-.01562-.10157-.04297-.13671-.01563-.1172-.03125h-.4453l-.13282-.01562-.13281-.01172-.13281-.01563-.11719-.03125h-.14844l-.13281-.01562-.13281-.01172-.26563-.03125-.1211-.04297-.08593-.0586-.07422-.07421v-.14844l.01172-.13281.10547-.04688.10156-.04296.13281-.01563h.15235l.13281-.01562h.29297l.1211.03125.10156.04296.08984.0586.23438.0625.12109-.04688.08984-.05859.10156-.04297.13282-.01562.10547.04296.10156.04688.13281.01172.1211-.02735h.14453l.12109-.03125.11719-.02734.10547-.04687.07421-.07422.08594-.0586.14844-.14843.0586-.08594.04687-.10547.02734-.11719.01563-.10547-.10156-.04296-.08985-.0586-.11719-.03125-.10546-.04297-.08985-.0625-.07422-.08594-.07422-.07421-.10156-.04297-.10547-.04688-.10156-.04297-.0586-.08984-.04687-.10156-.08594-.21094-.0625-.08594-.05859-.08984-.07422-.07422-.08594-.0586h-.26953l-.11719.03126-.08984.05859-.10156.04297-.13281.01562-.10547-.01562-.02735-.11719-.0625-.08984-.11718-.03125-.10157-.04297-.14843-.14844-.03125-.11719-.01563-.10546.07422-.07422.17969-.1172.11719-.02733.11718-.03125.13672.01562.10156.04297.10547.04297.10156.04687.10547.04297.1172.03125.1328.01563.1172.02734.1328.01563.10547-.01563.08985-.0586-.07422-.07421-.10547-.04297-.07422-.07422-.07422-.08984-.14844-.14844-.08593-.0586-.08985-.05859-.07422-.07422-.08984-.0586-.10156-.04687-.1211-.02734-.10156-.04688-.10547-.04296-.11719-.03125-.10156-.04297-.1211-.03125h-.14843l-.11719.03125-.10546.04297-.08594.0625-.17969.11718-.08594.0586-.08984.0586-.10547.04687-.08594.05859-.10547.04297-.10156.04297-.10547.04687-.07422.07422-.05859.08985-.0586.08593-.04687.10547-.0586.08594-.07421.07422-.13281-.01172-.1172-.03125h-.11718l-.07422.07422-.08984.0586-.07422.07421-.08984.0586-.08594.05859-.10547.04687-.10156.04297-.13672.01563-.10156-.04297-.14844-.14844-.10547-.04688h-.08594l-.10547.04688-.10156.04297-.1211.03125-.11718-.03125-.07422-.07422v-.11719l.03125-.1211.07422-.0703.0586-.08985.07421-.07422.11719-.03125.10547-.04296h.29297l.13281-.01563.13672-.01563.10156-.04296.08985-.0586.10156-.04687.08984-.0586.13281-.01171.08985.05859.13281.01172.08984-.0586.08594-.05859.10547-.04297.08984-.0586.08594-.0625.08985-.05859.14843-.14843.0586-.08594.05859-.08985.10547-.04296.13281-.01563.11719.02735.1211.03125.05859-.0586.05859-.08984.03125-.26563.02734-.11719.10547.01172.13281.01563.10157-.04297.08984-.0586.0586-.08984.07421-.07422.0586-.08984.04687-.10156.01172-.13281-.01172-.13282-.04687-.10547-.14844-.14843-.0586-.08985-.05859-.08594-.04297-.10546v-.44532l.01563-.1328v-.14845l.01172-.1328-.0586-.0586-.08984.0586-.10156-.04298-.17969-.11719-.08594-.05859-.0625-.08984-.0586-.08985-.07421-.07421-.08594-.0586-.1211.03125-.10155.01172-.10547.04688-.08594.05859-.10547.04297-.14844.14844-.08984.05859-.08594.0586-.08984.0625-.10547.04296-.13281.01563v-.1211l.10547-.04297.11718-.03125.07422-.0703.04297-.10548v-.14844l-.02734-.11718-.14844-.14844-.13281-.01563h-.14844l-.11719.03125-.10547.04297-.10156.04297-.08984.0625-.11719.02735-.07422-.07422.01172-.13281-.04297-.10157-.04297-.10547-.08984-.05859-.11719.02734-.1211.03125-.11718.03125-.10156.04297-.1211.03125-.10156.04297-.10547.04297-.08984.0586-.10156.01562v-.11719l.01562-.13281-.0586-.08985-.07421.04297-.14844.14844-.0586.08985-.07421.07421-.04688.10547-.04296.10156-.07422.07422-.0586.08985-.07422.07422-.05859.08593-.07422.07422-.08984.0625-.07422.07031-.07422.07422-.10156.01563-.13281.01562-.10547-.04296v-.1211l.14843-.14844.04297-.10156.0586-.08984.04687-.10156.04297-.10547.0586-.08985.03124-.11719.04297-.10156.03125-.1211.02735-.11718.04687-.10547.04297-.10156.04297-.10547.07422-.07031.08984-.0625.08985-.0586.10156-.04296h.29687l.26563-.03125.10547-.04297-.07422-.07422-.11719-.03125-.10547-.04297-.08984-.0586-.10156-.04687-.08985-.0586-.10156-.04296-.10547-.04297-.08984-.0625-.08594-.0586-.10547-.04296-.10156-.04297-.1211-.03125-.11718-.03125-.10157-.04297L297.5 410.25l-.10156-.04297-.08985-.0586-.04296-.10546-.01563-.13281.10156-.04297.13281-.01563.13672.01563.13282-.01563.10156-.04297.0586-.08984.01562-.10547-.08985-.0586-.07421-.07421-.10157-.04297-.08984-.0586-.14844-.14843-.04297-.10547-.01562-.13281v-.29297l-.0586-.08985-.08984-.05859-.07422-.07422-.04297-.10547-.03125-.11718-.0586-.08985-.07421-.07422-.11719-.02734-.07422-.07422-.08984-.0586-.08984-.0625-.08594-.05859-.07422-.07421-.0586-.08594-.04687-.10547-.08594-.0586-.14843-.14843-.19532-.0586-.1328.01563-.10157.04297-.07422.07422-.04688.10156-.04296.10547-.0586.08984-.0586.08594-.29687.29687-.08984.0586h-.08594l-.0625-.08594-.04297-.10547.03125-.11719.0586-.08984.02734-.11719-.01172-.13281-.08984-.0625-.10547.04688-.11719.02734-.11719.03125-.26953.17578-.10156.04688-.11719.02734-.10546.04687-.08985.0586-.10156.04297-.0586-.08594-.04687-.10547.01563-.13281.04687-.10547.07031-.07422.07422-.07031.0586-.08985v-.14843l-.04297-.10547h-.23829l-.10156.04687-.03125.11719-.02734.11719-.03125.1211-.07422.04296-.13281.01563-.07422-.04688-.04297-.10156-.04297-.10547-.04687-.10156-.04297-.10547-.1211.03125-.10156.04297-.13281.01562-.11719.03125-.10547.04297-.08984.0586-.10156.04687-.1211.02734-.13281.01563-.10156-.04297-.0586-.08985-.04687-.10546-.04297-.10157-.04297-.10546v-.1172l.0586-.08984.08593-.05859.17969-.11719.10156-.04687.10547-.04297.10547-.0586.10156-.04296.08985-.0625.10156-.04297.10547-.0586.10156-.04687.08984-.0586.10547-.04296.10156-.04297.08985-.0625.10156-.04297.13672-.01563.11719.03125.10156.04297.1211.03125.10156.04297.10546.04688.10157.04296.10547.04297.10156.04688.10547.04297.10156.04297.10547.04687.08594.0586.10546.04296.1172.03125.10546.04297.10156.04688.08985.0586.10547.04296.10156.04297.10547.04687.11719.02735.10156.04687.1211.02735h.14843l.08594-.0586.01562-.10156.0586-.08984-.02735-.1172-.07422-.07421-.11719-.17969-.07421-.07422-.08985-.07421-.17969-.1172-.08593-.05859-.10547-.04296-.10156-.04688-.26954-.17578-.05859-.08985-.07422-.07421-.0586-.08985-.04296-.10156-.03125-.11719-.01563-.13672v-.5625l-.01171-.1328-.01563-.13282-.03125-.11719-.01562-.13281-.01172-.13281-.03125-.1211-.22266-.22265-.0586-.08594-.01562-.10547.03125-.11719.13281-.01562v-91.41406H172.9922v1.45312l-.0586.23438-.35156 1.05078-.17187.52343-.1172.34766-.17577.41016-.11719.17187-.23438.29297-.23046.0586h-.35157l-.11718.05859-.23047.40625v.29297l.11719.17578.23046.23047.1172.23437.64062.75781.29297.46485.17578.23437.23047.35156.23437.34766.64063.8164.17578.46485.17187.41016.11719.69531.17578.46875.11719 1.39844.0586.46484v.875l.11718 1.04688v4.78125l-.0586.46484-.35156 1.28125-.17578.52344-.11328.41015-.35156.9297L172.93359 336l-.23437.58203-.11719.17578-.17187.34766-.17578.40625-.35157.8164-.0586.29297-.11327.29297-.11719.28906-.0586.17579-.11718.875-.0586.40625-.05859.11718-.0586.17579-.05859.17187-.23047.52734-.11718.17188v.23437l-.11719.23438-.0586.17187-.17577.58594v.28906l-.0586.17579v.29296l-.0586.11329-.05859.52734v.17187l-.05468.23438v2.6211l-.17578.8164-.1172.17578-.17577.23438-.1172.17187-.11327.23438-.58594.93359-.23047.28906-.29297.46485-.17578.23437-.28906.35156-.35156.69922-.11328.23047-.17579.41016-.17578.23046-.40625.52735-.8164.69922-.29297.17187-.28906.23438-.17579.11719-.17578.17578-.52344.40625-.52734.17578-.17187.17578-.23438.05469-.64062.17578h-.75782m12.21094 31.02344l-1.07422.44921.35938.89454 1.25-.71485.44531-.53906-.98047-.08985"/><path fill="#d3d3d3" fill-opacity="0" fill-rule="evenodd" d="M201.50781 416.59766h-.89453l.44922.6289.98047.35938.80469-.08985.4453-.98828-.17577.08985-.71485-.35547-.89453.35547m154.6211 59.0703l-.0586-.52343v-.29297l.11328-.29297.0586-.23046.46875-.46875h.11328l.11719-.11329.11718-.05859h.17579l.23437-.0586h.34766l.23437.0586.11719.0586.23047.17187.0586.17578.11718.58203v.29297l-.11719.17578-.17187.28906-.17579.17579-.52734.52343-.23047.23438-.11719.0586h-.17578l-.11718-.0586-.40625-.29297-.17579-.11719-.11718-.0586-.0586-.11327-.05468-.1172m6.64062-10.95702l-.0586-.17188v-1.10937l.0586-.17188.17578-.0586.17188-.05858h.17578l.23437-.0586.1172.0586.05858.69921-.05859.17188-.11719.17578-.11718.0586-.23438.52343-.11328.0586h-.23438l-.05859-.1172m9.61328-14.39062l-.11719-.17578v-.69922l.29297-.875.1172-.17187.17577-.35156.11328-.23047.1172-.29297.35155-.75781.1172-.23047.17187-.23438h.17578l.11719-.0586h.64062l.11719.0586.23437.23438.17188.11328.35156.29297.11719.11718.11328.17579v.11328l.11719.05859.11718.11719v.69922l-.05859.17578v.23047l-.0586.17578-.34765 1.05078-.11719.23047-.11719.23437-.11718.0586-.23047.23437-.64063.28906h-.875l-.41015-.11718-.64063-.46485"/><path fill="none" stroke="#bebebe" stroke-linecap="round" stroke-linejoin="round" stroke-miterlimit="10" stroke-width=".5" d="M467.95703 311.69531H144.02734v168.625h323.9297v-168.625"/><g clip-path="url(#a)"><path fill="#fff" fill-opacity="0" fill-rule="evenodd" d="M144 475.89063v4.4375h.0039H144v-38.67188 34.23438"/></g><g clip-path="url(#b)"><path fill="#fff" fill-opacity="0" fill-rule="evenodd" d="M144 431.50781v1.47266-121.3086h.0039H144v119.83594"/></g><path fill="#50fcfc" fill-rule="evenodd" d="M144 432.98047v8.67578h.0039v-8.67188l-.0039-.0039"/><g clip-path="url(#c)"><path fill="#fff" fill-opacity="0" fill-rule="evenodd" d="M144.0039 480.32813v-38.67188l1.90235-1.27344.3125-4.4375-2.21484-2.96094v-121.3125h75.44922v7.01172l-1.08204 1.86329-3.35547 2.96093-4.4414-2.76562-2.95313 4.24219-1.48437 3.64453-.5039.79687.5039.39844 4.4375 2.17969 3.54297-2.57813.89844-2.48828 1.53906-1.95313 2.89844-3.30468.36718-1.13281-.36719-1.86329v-7.01171h13.3125v93.83203l-4.4375.45312-2.79296 3.35938-1.64453 2.41406-2.00782 2.02344-.8086 4.4375 2.81642 2.8125.48828 1.625 1.5703 4.4414-2.05858.75-3.625 3.6875-.8125 1.89844-4.4375.49219-1.92188 2.04687-2.51953 2.46485-2.52344 1.97265-1.91406 4.19922-.16016.23828-1.22265 4.4414 1.3828 1.76563 4.4375 1.7461.98438.92578-.98437 1.9336-4.4375.59765-4.4375-.75-4.23828 2.65625 1.07031 4.4375 3.16797 2.51562 4.4375-.21093 4.4375-.81641 4.4414.19922 4.4375-1.05078 4.4375 1.11328 4.4375-.45703 4.4375-.96094 4.44141-.11719.51953-.21484-.51953-.25-3.53906-4.1875-.90234-2.02344-3.75391-2.41406 3.7539-4.4375v-.0039l.7461-4.4375-.7461-.88673-1.07812-3.55078 1.07813-2.51562 4-1.92188.4414-.11328.9375.11328-.07031 4.4375 3.57031 3.41406 4.4375-.5703 2.83594-2.84376-2.83594-3.33203-3.1289-1.10547 2.15234-4.4375-3.46094-4.23828-.1289-.19922.1289-.09375 4.30078-4.34765.13672-1.20704 3.83984-3.23046-3.83984-3.11329-4.4375-1.21093-.38281-.11328-.58594-4.4375-3.46875-2.87891-4.4414-.9336v-93.83202h48.82421V446.6875l-4.4375.25781-3.23828 2.3164-1.20312.58985-2.89844 3.84766.5039 4.4375 2.39454 2.39844 4.4414.74609 4.4375-1.51953 1.66016-1.625 2.77734-2.46485 1.94922-1.97265-1.94922-3.41016-.92968-1.02734-3.50782-2.57422V311.67187h35.50782v135.16797l-2.33985 2.42188-2.10156.88672-4.4375 2.13281-1.33594 1.41797-1.19922 4.4375 2.53516 3.01172 3.60156 1.42578.83594.53125.5625-.53125 2.76953-4.4375 1.10938-1.47266 3.625-2.96484-1.32032-4.4375-2.30468-2.42188V311.67188h13.3125V446.4453l-4.37891 2.8164-.0586.10157-3.53124 4.33594 3.53125 3.98047 2.47656.45703 1.96094.4336.34375-.4336 2.33593-4.4375.09375-4.4375-2.77343-2.8164V311.67187h44.3828V459.5078l-4.4375.77344-2.26171 2.29297 1.94531 4.4414.3164.35157 1.4375 4.08594 3 2.16015 4.44142.57813 2.91015-2.73829.9336-4.4375-3.84375-4.2578-.32422-.1836-4.1172-3.0664V311.67187h8.87892v111.3828l-4.4375 2.63282-1.38282 1.38281 1.38281 1.3789.4922 3.0586 3.9453 3.96485 3.98047-3.96485.45704-1.33984 3.1289-3.09766-3.1289-3.44922-4.4375-.5664V311.67188h26.6289v103.66796l-4.4375 1.20313-4.4375.95312-3.0039.69532-1.4375.1328-3.65625 4.3047.15625 4.4414 3.5 3.67578v31.02344l-1.41407.80469 1.41406.8711.83985-.8711-.83985-.80469V430.7461l4.23829.76172.20312.14453.44922-.14453 3.98828-.48437 4.4375.47656 4.4375-.9375 4.4414-.20703 4.4375-.6914 3.33204-2.59376-.46875-4.4414-2.86328-2.5547-2.9961-1.8828-1.4414-1.21094-4.4414-1.40235-4.4375-.23828V311.67188h22.1914v105.47656l-.4336 1.04297.4336.22265.25781-.22265-.25781-1.04297V311.67188h35.5039v108.53125l-.80859-2.01172-3.625-3.19922-3.5 3.19922-.55469 4.4375-.38281 1.8203-2.76563-1.8203-1.67578-1.58985-.98437 1.58985-3.45313 3.26171-1.16015 1.1797-3.27735 2.72656-4.27343-2.72657-.16407-.16406-4.4414-1.20703-1.41406 1.3711 1.41406 1.47265 4.4414-1.28125 2.5625 4.2461-2.5625 3.08984-1.76171 1.34765 1.76171 1.3125 4.4375-1.26953.03516-.04297 4.40234-1.15625 4.14844-3.28125.28906-.71875 4.44141-1.84375 2.69531-1.875 1.74219-.36328 4.4336-1.48047v55.10156h-34.04688l1.63281-4.4375-3.04687-4.4375 2.3125-4.4375 2.08203-1.05078 4.4414-1.5 4.4375-.45703 3.16016 3.00781 1.27734 1.90625 1.05079 2.53125 3.38671 3.03125 4.44141.60938 4.4375-3.55469.05469-.08594 3.21094-4.4375.67187-4.4414-1-4.4375-2.9375-3.09375-1.10938-1.34375-3.32812-4.0664-4.4414-.10938-.1211-.26172-.92578-4.4414-3.39063-3.3047-4.4375 2.91407-4.4375-1.26953-4.4414-.50782-1.63672-2.26953-2.80078-4.08984-4.4375.58594-3.10156 3.5039-1.33594 1.22266-4.4375 1.54687-1.70313 1.66797-1 4.4414.84766 4.4375-.38281 4.4375 2.23828 4.09767.27344.33984 2.41406 4.4414-2.6875.61329-4.4414.73046-3.52735 3.09375 3.52734 3.8672.28906.5703 4.15235 3.65625 4.4375.35157 4.4375-.26953 2.59765.69921h-40.92578l-1.61719-1.0703-2.64843 1.0703H144.0039"/></g><path fill="#50fcfc" fill-rule="evenodd" d="M145.90625 440.38281l-1.90234 1.27344v-8.67188l2.21484 2.96094-.3125 4.4375m52.625 22.1914l-1.07031-4.4375 4.23828-2.65624 4.4375.75 4.4375-.59766.98437-1.9336-.98437-.92577-4.4375-1.7461-1.38281-1.76562 1.22265-4.4414.16016-.23829 1.91406-4.19922 2.52344-1.97265 2.51953-2.46485 1.92188-2.04687 4.4375-.49219v3.57031l-4.4375.23828-3.21485 3.16797.38281 4.4375 2.83203 2.26953 2.54688 2.17188 1.89063 2.42187 3.71484 2.01563.72266.53125.36718-.53125 4.07031-3.9375v6.25781l-.30859 2.11719.3086.4336.73437-.4336-.73438-2.11719v-6.25781l.48829-.5.98437-4.4414-.19531-4.4375-1.27734-1.36329-4.00391 1.36328-.4336.51563-.1875-.51563-4.25-3.40625v-3.57031l.8125-1.89844 3.625-3.6875v2.01172l-1.64843 1.67578 1.64844 1.64844 1.875-1.64844-1.875-1.67578v-2.01172l2.05859-.75-1.57031-4.4414-.48828-1.625-2.81641-2.8125.8086-4.4375 2.0078-2.02344 1.64454-2.41406 2.79297-3.35938 4.4375-.45312v1.48046l-4.4375 1.9961-.27735.33594-3.57812 4.4375-.58203 3.71484-.22657.72266.22656.22656 1.26172 4.21094 3.17578 3.90234v3.90234l-.30859 1.07422-4.1289 3.6289-1.89454.8086 1.89453 1.35156 4.4375-.5078 2.16797-.84376 2.26953-1.96875 1.02735-2.46875-1.02734-.6836-4.4375-.39062v-3.90234l1.09375.53906 3.34375 2.3789 3.08203 2.0586 1.35937 1.71875 4.4375.63672v3.89063l-1.95703 2.6289 1.95703 1.875 4.4375-1.46484.41016-.41016-.41016-.48047-4.4375-2.14843v-3.89063l1.6836-2.35547-1.6836-2.0664-1.5039-2.3711 1.5039-1.07812 3.32813-3.36328.49218-4.4375-3.8203-3.44141-3.39845-.9961L237.20703 411l-.52734-1.6836-3.91406-2.33202v-1.48047l4.4414.93359 3.46875 2.8789.58594 4.4375.38281.11329 4.4375 1.21094 3.83984 3.11328-3.83984 3.23046-.13672 1.20704-4.30078 4.34765-.1289.09375.1289.19922 3.46094 4.23828-2.15234 4.4375 3.1289 1.10547 2.83594 3.33203-2.83594 2.84375-4.4375.57031-3.57031-3.41406.07031-4.4375-.9375-.11328-.4414.11328-4 1.92188-1.07813 2.51562 1.07813 3.55078.74609.88672-.7461 4.4375v.0039l-3.7539 4.4375 3.7539 2.41407.90235 2.02344 3.53906 4.1875.51953.25-.51953.21484-4.4414.11719-4.4375.96094-4.4375.45703-4.4375-1.11328-4.4375 1.05078-4.44141-.19922-4.4375.8164-4.4375.21094-3.16797-2.51562m7.60547-132.75l-.5039-.39844.5039-.79687 1.48437-3.64454 2.95313-4.24218 4.4414 2.76562 3.35547-2.96094 1.08203-1.86328.3672 1.86329-.3672 1.1328-2.89843 3.3047-1.53906 1.95312-.89844 2.48828-3.54297 2.57813-4.4375-2.1797"/><path fill="#00e8fc" fill-rule="evenodd" d="M212.1836 444.82031l-.38282-4.4375 3.21484-3.16797 4.4375-.23828 4.25 3.40625.1875.51563.4336-.51563 4.0039-1.36328 1.27735 1.36328.19531 4.4375-.98437 4.4414-.48828.5-4.07032 3.9375-.36719.53126-.72265-.53125-3.71484-2.01563-1.89063-2.42187-2.54688-2.17188-2.83203-2.26953"/><path fill="#fff" fill-opacity="0" fill-rule="evenodd" d="M223.89063 435.13672l-1.89454.8086 1.89453 1.35156 4.4375-.50782 2.16797-.84375 2.26953-1.96875 1.02735-2.46875-1.02734-.6836-4.4375-.39062-.3086 1.07422-4.1289 3.6289"/><path fill="#00e8fc" fill-rule="evenodd" d="M223.89063 433.15625l-1.64844-1.64844 1.64844-1.67578 1.875 1.67578-1.875 1.64844m0-14.73828l-.22657-.22656.22656-.72266.58204-3.71484 3.57812-4.4375.27734-.33594 4.4375-1.9961v4.71094l-4.4375.01563-1.71093 2.04297-.6875 4.4375.51172 4.4375 1.88672 2.3164 4.3125 2.125.125.08985 4.4414 1.30859.63672-1.39844 3.80078-2.71484 1.70703-1.72656.47656-4.4375-2.18359-1.96875-4.4375-1.4336-4.1875-1.03515-.2539-2.0586v-4.71094l3.91406 2.33204.52734 1.68359 1.03906 2.7539 3.39844.9961 3.82031 3.4414-.49218 4.4375-3.32813 3.36329-1.5039 1.07812 1.5039 2.3711 1.6836 2.0664-1.6836 2.35547-4.4375-.63672-1.35937-1.71875-3.08203-2.0586-3.34375-2.3789-1.09375-.53906-3.17579-3.90234-1.26172-4.21094"/><path fill="#00d4fc" fill-rule="evenodd" d="M226.4414 422.6289l-.51171-4.4375.6875-4.4375 1.71094-2.04296 4.4375-.01563.2539 2.0586 4.1875 1.03515v1.30469l-4.4414.95313-4.4375-.4375-.2422 1.58203-.35155 4.4375.59375.73437 4.4375 2.0625 4.4414.71094 4.4375-3.41797.08594-.08984.46484-4.4375-.55078-.4961-4.4375-1.60156v-1.30469l4.4375 1.4336 2.1836 1.96875-.47657 4.4375-1.70703 1.72656-3.80078 2.71484-.63672 1.39844-4.4414-1.3086-.125-.08984-4.3125-2.125-1.88672-2.3164"/><path fill="#00c4fc" fill-rule="evenodd" d="M228.32813 423.36328l-.59375-.73437.35156-4.4375.24219-1.58204 4.4375.4375 4.4414-.95312v1.30469l-2.11719.79297-2.32422 2.28125-2.39453 2.15625 2.39453 1.08203 4.44141 1.13281 2.85547-2.21484-.73438-4.4375-2.12109-.79297v-1.30469l4.4375 1.60156.55078.4961-.46484 4.4375-.08594.08984-4.4375 3.41797-4.4414-.71094-4.4375-2.0625"/><path fill="#fff" fill-opacity="0" fill-rule="evenodd" d="M228.32813 456.01953l-.3086 2.11719.3086.4336.73437-.4336-.73438-2.11719"/><path fill="#00b8fc" fill-rule="evenodd" d="M232.76563 423.71094l-2.39454-1.08203 2.39453-2.15625 2.32422-2.28125 2.1172-.79297v2.36719l-2.9297 2.86328 2.9297.92187 1.1875-.92187-1.1875-2.86329v-2.36718l2.12108.79297.73438 4.4375-2.85547 2.21484-4.4414-1.13281"/><path fill="#00a8fc" fill-rule="evenodd" d="M237.20703 423.55078l-2.92969-.92187 2.9297-2.86329 1.1875 2.86329-1.1875.92187"/><path fill="#00e8fc" fill-rule="evenodd" d="M241.64453 442.25781l-1.95703-1.875 1.95703-2.6289 4.4375 2.14843.41016.48047-.41016.41016-4.4375 1.46484"/><path fill="#50fcfc" fill-rule="evenodd" d="M270.3164 458.13672l-.5039-4.4375 2.89844-3.84766 1.20312-.58984 3.23828-2.3164v4.08202l-4.4414 2.60157-.05078.0703.05078.25392 1.64844 4.18359 2.79296 1.0586 1.97657-1.0586 2.36328-4.4375-4.33985-2.67188v-4.08203l4.4375-.25781 3.50782 2.57422.92968 1.02734 1.94922 3.41016-1.94922 1.97265-2.77734 2.46485-1.66016 1.625-4.4375 1.51953-4.4414-.7461-2.39453-2.39843"/><path fill="#00e8fc" fill-rule="evenodd" d="M272.71094 453.95313l-.05078-.25391.05078-.07031 4.4414-2.60157 4.33985 2.67188-2.36328 4.4375-1.97657 1.0586-2.79296-1.0586-1.64844-4.1836"/><path fill="#50fcfc" fill-rule="evenodd" d="M308.21875 461.14844l-2.53516-3.01172 1.19922-4.4375 1.33594-1.41797 4.4375-2.13281v2.98828l-.91016.5625.66407 4.4375.24609.05078.03516-.05078 1.59375-4.4375-1.62891-.5625v-2.98828l2.10156-.88672 2.33985-2.42188 2.30468 2.42188 1.32032 4.4375-3.625 2.96484-1.10938 1.47266-2.76953 4.4375-.5625.53125-.83594-.53125-3.60156-1.42578"/><path fill="#00e8fc" fill-rule="evenodd" d="M312.41016 458.13672l-.66407-4.4375.91016-.5625 1.6289.5625-1.59374 4.4375-.03516.05078-.2461-.05078"/><path fill="#50fcfc" fill-rule="evenodd" d="M325.97266 457.67969l-3.53125-3.98047 3.53125-4.33594.05859-.10156 4.3789-2.8164v2.74218l-.11327.07422.11328.7539.07421-.7539-.07421-.07422v-2.74219l2.77343 2.8164-.09375 4.4375-2.33593 4.4375-.34375.4336-1.96094-.4336-2.47656-.45702"/><path fill="#00e8fc" fill-rule="evenodd" d="M330.41016 450.01563l-.11329-.75391.11329-.07422.07421.07422-.07421.7539"/><path fill="#50fcfc" fill-rule="evenodd" d="M370.03906 467.01563l-1.94531-4.44141 2.26172-2.29297 4.4375-.77344v2.57422l-1.625.49219-1.51953 4.4414 3.14453 3.83985 3.6914.59765.75.1875.19922-.1875 1.8711-4.4375-2.07031-2.29296-3.77735-2.14844-.66406-.49219v-2.57422l4.11719 3.0664.32421.1836 3.84375 4.25781-.93359 4.4375-2.91015 2.73829-4.44141-.57813-3-2.16015-1.4375-4.08594-.3164-.35156"/><path fill="#00e8fc" fill-rule="evenodd" d="M374.79297 470.85547l-3.14453-3.83985 1.51953-4.4414 1.625-.49219v3.4961l-.9336 1.4375.9336 1.14062 2.60156-1.14063-2.60156-1.4375v-3.49609l.66406.49219 3.77735 2.14844 2.0703 2.29296-1.87109 4.4375-.19921.1875-.75-.1875-3.69141-.59765"/><path fill="#00d4fc" fill-rule="evenodd" d="M374.79297 468.15625l-.9336-1.14063.9336-1.4375 2.60156 1.4375-2.60156 1.14063"/><path fill="#50fcfc" fill-rule="evenodd" d="M379.23438 428.44922l-1.38282-1.3789 1.38281-1.38282 4.4375-2.63281v1.14453l-3.47265 2.8711.26562 4.4375 3.20704 3.22265 3.23437-3.22266 1.20313-3.51562.93359-.92188-.9336-1.03125-4.4375-1.83984v-1.14453l4.4375.5664 3.12891 3.44922-3.1289 3.09766-.45704 1.33984-3.98046 3.96485-3.94532-3.96485-.49219-3.0586"/><path fill="#00e8fc" fill-rule="evenodd" d="M380.46484 431.50781l-.26562-4.4375 3.47265-2.8711v1.90235l-1.17187.96875-.80469 4.4375 1.97656 1.98438 1.9922-1.98438-.19532-4.4375-1.79688-.96875v-1.90234l4.4375 1.83984.9336 1.03125-.9336.92188-1.20312 3.51562-3.23438 3.22266-3.20703-3.22266"/><path fill="#00d4fc" fill-rule="evenodd" d="M383.67188 433.49219l-1.97657-1.98438.80469-4.4375 1.17188-.96875v2.96094l-.7461 2.44531.7461.7461.75-.7461-.75-2.44531v-2.96094l1.79687.96875.19531 4.4375-1.99219 1.98438"/><path fill="#00c4fc" fill-rule="evenodd" d="M383.67188 432.2539l-.7461-.74609.7461-2.44531.75 2.44531-.75.7461"/><g clip-path="url(#d)"><path fill="#50fcfc" fill-rule="evenodd" d="M385.46094 480.32813l2.64844-1.07032 1.61718 1.07031h-4.26562"/></g><path fill="#50fcfc" fill-rule="evenodd" d="M393.48438 427.07031l-.15625-4.4414 3.65625-4.3047 1.4375-.1328 3.0039-.69532 4.4375-.95312 4.4375-1.20313 4.4375.23829v2.73046l-4.4375.14844-3.22656 4.17188-1.21094 1.98828-.90234-1.98828-3.53516-3.02344-4.4414.95312-1.75782 2.07032-.17187 4.4414 1.92969 2.02735 4.4414 1.05859 4.4375-1.61719 4.4375.73438 4.4375-.3164 4.4414-.4297 3.90235-1.45703-.41015-4.4414-3.4922-2.65235-4.4414-1.66797v-2.73046l4.4414 1.40234 1.44141 1.21094 2.9961 1.8828 2.86328 2.5547.46875 4.4414-3.33203 2.59375-4.4375.6914-4.4414.20704-4.4375.9375-4.4375-.47656-3.98829.48437-.44922.14453-.20312-.14453-4.23829-.76172-3.5-3.67578"/><path fill="#00e8fc" fill-rule="evenodd" d="M396.98438 429.09766l-1.9297-2.02735.17188-4.4414 1.75781-2.07032 4.44141-.95312v2.67969l-.9961.34375-1.51952 4.4414 2.51562.78516 1.53516-.78516-1.13281-4.4414-.40235-.34375v-2.6797l3.53516 3.02345.90234 1.98828 1.21094-1.98828 3.22656-4.17188 4.4375-.14844v2.76954l-3.14062 1.55078 3.14062 2.91406 2.79688-2.91406-2.79688-1.55079v-2.76953l4.4414 1.66797 3.4922 2.65235.41015 4.4414-3.90234 1.45703-4.4414.4297-4.4375.3164-4.4375-.73438-4.4375 1.61719-4.44142-1.0586"/><path fill="#50fcfc" fill-rule="evenodd" d="M396.98438 463.44531l-1.41407-.8711 1.41406-.80468.83985.80469-.83985.8711"/><path fill="#00d4fc" fill-rule="evenodd" d="M401.42578 427.85547l-2.51562-.78516 1.51953-4.4414.9961-.34375.40233.34375 1.13282 4.4414-1.53516.78516"/><g clip-path="url(#e)"><path fill="#50fcfc" fill-rule="evenodd" d="M414.73828 475.32031l-3.52734-3.86719 3.52734-3.09375 4.4414-.73046v2.9414l-4.4414.01172-.99219.8711.9922 1.08593 1.67577 3.35156 2.76563 2.4336 4.4375.92969 4.4375-1.21875 4.42969-2.14454-4.4297-3.49609-4.4375-.79297-1.67968-.14844-2.75781-.8828v-2.94141l2.6875-.61329-2.41406-4.4414-.27344-.33985-2.23828-4.09765.3828-4.4375-.84765-4.4375 1-4.4414 1.70313-1.66798 4.4375-1.54687 1.33594-1.22266 3.10156-3.5039v2.53515l-.85938.96875-3.57812 3.27344-2.10156 1.16406-2.33594 4.21875-.08985.22266.08985.2461 4.4375 3.8789.08594.3125-.08594.35547-2.42578 4.08203 2.42578 3.08594 1.3789 1.35156 3.0586 1.0586v2.57421l-3.09375.8086 3.09375 1.46093 1.78515-1.46094-1.78515-.80859v-2.57422l4.4375 2.07422 4.4375-2.27344 1.6289-.85937 2.8125-.44922 4.4375-.16797 4.4375.44922.29688.16797 2.72656 4.4414 1.3125 4.4375.10156.08985 4.44141.10937.2461-.19921 4.1914-2.41407 1.48438-2.02344 1.46484-4.4414-2.3164-4.4375-.63282-.66406-3.11719-3.77344-1.32031-1.61719-4.4414-.91406-.89844-1.90625-2.13672-4.4414-1.40235-1.3672-1.88671 1.3672-2.55079 2.0664-4.4375.6289-4.4414-.375-4.4375.38672-2.57031-2.70703 1.58203-4.4375-3.44922-.96875v-2.53515l4.4375-.58594v8.48437l-.02344.04297.02344.02735.08203-.02735-.08203-.04297v-8.48437l2.80078 4.08984 1.63672 2.26953 4.4414.50782 4.4375 1.26953 4.4375-2.91406 3.39063 3.30468.92578 4.4414.1211.26173 4.4414.10937 3.32813 4.0664 1.10937 1.34376 2.9375 3.09375 1 4.4375-.67188 4.4414-3.21093 4.4375-.05469.08594-4.4375 3.55469-4.4414-.60938-3.38673-3.03125-1.05078-2.53125-1.27734-1.90625-3.16016-3.0078-4.4375.45702-4.4414 1.5-2.08203 1.05079-2.3125 4.4375 3.04687 4.4375-1.63281 4.4375h-3.29688l-2.59765-.69922-4.4375.26953-4.4375-.35156-4.15235-3.65625-.28906-.57032"/></g><path fill="#00d4fc" fill-rule="evenodd" d="M414.73828 425.54297l-3.14062-2.91406 3.14062-1.55079 2.79688 1.55079-2.79688 2.91406"/><path fill="#00e8fc" fill-rule="evenodd" d="M414.73828 472.53906l-.99219-1.08594.9922-.87109 4.4414-.01172 2.75781.88281 1.67969.14844v1.3711l-4.4375 2.07421-.44531.84375.4453.39063 4.4375 1.89844 4.07423-2.28906-4.07422-2.91797v-1.3711l4.4375.79297 4.42969 3.4961-4.4297 2.14453-4.4375 1.21875-4.4375-.9297-2.76562-2.43358-1.67578-3.35157"/><path fill="#00d4fc" fill-rule="evenodd" d="M419.17969 476.28125l-.44531-.39063.4453-.84375 4.4375-2.07421v1.37109l-2.58984 1.54688 2.58985 1.21484 2.16015-1.21485-2.16015-1.54687v-1.3711l4.07422 2.91798-4.07422 2.28906-4.4375-1.89844"/><path fill="#00e8fc" fill-rule="evenodd" d="M419.17969 449.50781l-.08985-.2461.08985-.22265 2.33594-4.21875 2.10156-1.16406 3.57812-3.27344.85938-.96875 3.44922.96875-1.58204 4.4375 2.57032 2.70703 4.4375-.38671 4.4414.375 4.4375-.62891 2.55079-2.0664 1.88671-1.3672v2.47657l-3.70703 3.33203-.73047.3789-4.4375.64844-4.4414.05078-4.4375.57422-2.82422-1.65234-1.61328-1.70313-1.46875 1.70313 1.04297 4.4375-1.89454 4.4375 2.32032 2.3086 4.4375-2.07032 4.4375 2.4414 4.4414.01954 4.4375-.3164 4.4375.10937 3.38282 1.9453 1.05468 1.34767 4.44141-.03516 4.4375 1.41406 1.3086-2.72656-1.3086-2.16406-4.4375-.94532-.35938-1.32812-4.08203-4.1211-.20312-.3164-1.99219-4.4375-2.24219-3.33203v-2.47656l1.40235 1.36718 2.13672 4.4414.89843 1.90626 4.44141.91406 1.32031 1.61719 3.11719 3.77344.63281.66406 2.3164 4.4375-1.46483 4.4414-1.48438 2.02344-4.1914 2.41406-.2461.19922-4.4414-.10937-.10157-.08985-1.3125-4.4375-2.72656-4.4414-.29688-.16797-4.4375-.44922-4.4375.16797-2.8125.44922-1.6289.85937-4.4375 2.27344-4.4375-2.07422-3.0586-1.0586-1.3789-1.35155-2.42578-3.08594 2.42578-4.08203.08594-.35547-.08594-.3125-4.4375-3.8789"/><path fill="#00c4fc" fill-rule="evenodd" d="M423.61719 477.10547l-2.58985-1.21485 2.58985-1.54687v1.36719l-.30078.17969.30078.14062.25-.14063-.25-.17968v-1.36719l2.16015 1.54688-2.16015 1.21484"/><path fill="#00b8fc" fill-rule="evenodd" d="M423.61719 476.03125l-.30078-.14063.30078-.17968.25.17969-.25.14062"/><path fill="#fff" fill-opacity="0" fill-rule="evenodd" d="M428.05469 466.20703l-3.09375.8086 3.09375 1.46093 1.78515-1.46094-1.78515-.80859"/><path fill="#00d4fc" fill-rule="evenodd" d="M428.05469 460.44531l-2.32031-2.3086 1.89453-4.4375-1.04297-4.4375 1.46875-1.70312 1.61328 1.70313 2.82422 1.65234 4.4375-.57422 4.4414-.05078 4.4375-.64844.73047-.3789 3.70703-3.33203v1.92578l-1.5625 1.40625-2.875 1.48828-4.4375.91797-4.4414.16406-4.4375 1.78516-.14063.08203.14063.1289 3.65234 4.3086.78516.47265 4.4414.94141 4.4375-.46875 4.4375-.23047 4.4375-.60547.06641-.10937-.0664-.0664-2.8125-4.3711-.6797-4.4375-.9453-1.40625v-1.92578l2.24218 3.33203 1.99219 4.4375.20312.3164 4.08204 4.1211.35937 1.32812 4.4375.94532 1.3086 2.16406-1.3086 2.72656-4.4375-1.41406-4.4414.03515-1.0547-1.34765-3.3828-1.94531-4.4375-.10938-4.4375.3164-4.44141-.01952-4.4375-2.44141-4.4375 2.07031"/><path fill="#50fcfc" fill-rule="evenodd" d="M432.49219 418.41406l-.4336-.22265.4336-1.04297.25781 1.04297-.25781.22265"/><path fill="#00c4fc" fill-rule="evenodd" d="M432.49219 453.82813l-.14063-.12891.14063-.08203 4.4375-1.78516 4.4414-.16406 4.4375-.91797v1.10938l-4.4375 1.1914-4.4414.26953-.91406.3789.91406 1.07813 3.94922 3.35938.49218.125.98047-.125 3.45703-.76172 3.61329-3.67578-3.61329-1.83985V450.75l2.875-1.48828 1.5625-1.40625.94532 1.40625.67968 4.4375 2.8125 4.3711.06641.0664-.0664.10937-4.4375.60547-4.4375.23047-4.4375.46875-4.44141-.9414-.78516-.47266-3.65234-4.3086"/><path fill="#fff" fill-opacity="0" fill-rule="evenodd" d="M432.49219 444.77734l-.02344.04297.02344.02735.08203-.02735-.08203-.04297"/><path fill="#50fcfc" fill-rule="evenodd" d="M436.92969 428.54297l-1.41406-1.47266 1.41406-1.3711 4.4414 1.20704.16407.16406 4.27343 2.72656 3.27735-2.72656 1.16015-1.17969v3.63282l-2.27343 1.98437 2.27343 1.25781 1.59375-1.2578-1.59375-1.98438v-3.63281l3.45313-3.26172.98437-1.58985 1.67579 1.58985 2.76562 1.8203.38281-1.8203.55469-4.4375 3.5-3.19922v3.96875l-2.77344 3.66797 2.77344 2.79296 3.1836-2.79296-3.1836-3.66797v-3.96875l3.625 3.19922.8086 2.01171v5.02344l-4.4336 1.48047-1.74219.36328-2.69531 1.875-4.4414 1.84375-.28907.71875-4.14844 3.28125-4.40234 1.15625-.03516.04297-4.4375 1.26953-1.76171-1.3125 1.76171-1.34765 2.5625-3.08985-2.5625-4.2461-4.4414 1.28126"/><path fill="#00b8fc" fill-rule="evenodd" d="M436.92969 454.77734l-.91406-1.07812.91406-.3789 4.4414-.26954 4.4375-1.1914v1.10937l-2.45703.73047 2.45703 1.45703 1.4336-1.45703-1.4336-.73047v-1.10938l3.61329 1.83985-3.61329 3.67578-3.45703.76172-.98047.125-.49218-.125-3.94922-3.35938"/><path fill="#00a8fc" fill-rule="evenodd" d="M445.8086 455.15625l-2.45704-1.45703 2.45703-.73047 1.4336.73047-1.4336 1.45703"/><path fill="#00e8fc" fill-rule="evenodd" d="M450.2461 432.76563l-2.27344-1.25782 2.27343-1.98437 1.59375 1.98437-1.59375 1.25781m13.31641-7.34375l-2.77344-2.79296 2.77344-3.66797v2.82031l-.64063.84766.64063.64453.73438-.64453-.73438-.84766v-2.82031l3.1836 3.66797-3.1836 2.79296"/><path fill="#00d4fc" fill-rule="evenodd" d="M463.5625 423.27344l-.64063-.64453.64063-.84766.73438.84766-.73438.64453"/><g clip-path="url(#f)"><path fill="#fff" fill-opacity="0" fill-rule="evenodd" d="M467.9961 480.32813H468v-55.10157 55.10156h-.0039"/></g><path fill="#50fcfc" fill-rule="evenodd" d="M467.9961 420.20313v5.02343H468v-5.01953l-.0039-.0039"/><g clip-path="url(#g)"><path fill="#fff" fill-opacity="0" fill-rule="evenodd" d="M467.9961 311.67188H468v108.53906-108.53906h-.0039"/></g><path fill="#fff" fill-opacity="0" fill-rule="evenodd" d="M445.17188 471.58984l3.3828 4.76563 8.1211-5.76563-3.3789-4.76171-8.125 5.76171"/><path fill-rule="evenodd" d="M453.82813 469.74219l.29296.41406-5.1328 3.64063-.45704-.64063 3.66406-2.59766-.80469-1.1328.45313-.32032.3789.41797.1875.17578.20704.13672.23437.08203.26953.01953.32422-.05469.38281-.14062"/><path fill="#fff" fill-opacity="0" fill-rule="evenodd" d="M232.07422 439.17578l2.25 5.39063 9.1914-3.84375-2.2539-5.38672-9.1875 3.83984"/><path fill-rule="evenodd" d="M240.92188 439.26953l.1953.46875-5.80859 2.42969-.30078-.72656 4.14063-1.73047-.53516-1.28125.51172-.21485.27734.4922.14453.21093.17188.17578.21094.13281.26172.08203.32422.01563.40625-.05469"/><g clip-path="url(#h)"><path fill="none" stroke="#000" stroke-linecap="round" stroke-linejoin="round" stroke-miterlimit="10" stroke-width=".5" d="M142.84766 483.64844l2.30468-6.63672"/></g><g clip-path="url(#i)"><path fill="none" stroke="#000" stroke-linecap="round" stroke-linejoin="round" stroke-miterlimit="10" stroke-width=".5" d="M158.33594 480.32813l-.01953-.19922-.0586-.19141-.09375-.17578-.45703-.3789-.1914-.0586-.19922-.01953-.19922.01953-.19531.0586-.45704.3789-.09375.17578-.05859.1914-.01953.19923.01953.19921.0586.19141.09374.17969.45703.375.19532.0586.19922.01952.19922-.01953.1914-.0586.45703-.375.09375-.17968.0586-.1914.01953-.19922"/></g><g clip-path="url(#j)"><path fill="none" stroke="#000" stroke-linecap="round" stroke-linejoin="round" stroke-miterlimit="10" stroke-width=".5" d="M169.14453 477.14453l2.97266 6.36719"/></g><g clip-path="url(#k)"><path fill="none" stroke="#000" stroke-linecap="round" stroke-linejoin="round" stroke-miterlimit="10" stroke-width=".5" d="M181.8125 477.53516l4.26563 5.58593"/></g><path fill="none" stroke="#000" stroke-linecap="round" stroke-linejoin="round" stroke-miterlimit="10" stroke-width=".5" d="M182.4336 478.34766l.51171-1.11328"/><g clip-path="url(#l)"><path fill="none" stroke="#000" stroke-linecap="round" stroke-linejoin="round" stroke-miterlimit="10" stroke-width=".5" d="M195.4336 477.32813l3.65234 6.0039"/></g><path fill="none" stroke="#000" stroke-linecap="round" stroke-linejoin="round" stroke-miterlimit="10" stroke-width=".5" d="M195.4336 477.32813l1.2539-2.10938"/><g clip-path="url(#m)"><path fill="none" stroke="#000" stroke-linecap="round" stroke-linejoin="round" stroke-miterlimit="10" stroke-width=".5" d="M208.82031 477.28516l3.51172 6.08593"/></g><path fill="none" stroke="#000" stroke-linecap="round" stroke-linejoin="round" stroke-miterlimit="10" stroke-width=".5" d="M208.82031 477.28516l1.30078-2.08203"/><g clip-path="url(#n)"><path fill="none" stroke="#000" stroke-linecap="round" stroke-linejoin="round" stroke-miterlimit="10" stroke-width=".5" d="M221.78906 477.51172l4.20313 5.63281"/></g><path fill="none" stroke="#000" stroke-linecap="round" stroke-linejoin="round" stroke-miterlimit="10" stroke-width=".5" d="M221.78906 477.51172l1.05078-2.21875"/><g clip-path="url(#o)"><path fill="none" stroke="#000" stroke-linecap="round" stroke-linejoin="round" stroke-miterlimit="10" stroke-width=".5" d="M234.97266 477.61719l4.46484 5.42578"/></g><path fill="none" stroke="#000" stroke-linecap="round" stroke-linejoin="round" stroke-miterlimit="10" stroke-width=".5" d="M235.6211 478.40625l.47265-1.13281"/><g clip-path="url(#p)"><path fill="none" stroke="#000" stroke-linecap="round" stroke-linejoin="round" stroke-miterlimit="10" stroke-width=".5" d="M248.16797 477.71875l4.70312 5.21875"/></g><path fill="none" stroke="#000" stroke-linecap="round" stroke-linejoin="round" stroke-miterlimit="10" stroke-width=".5" d="M248.85156 478.47656l.42188-1.15234"/><g clip-path="url(#q)"><path fill="none" stroke="#000" stroke-linecap="round" stroke-linejoin="round" stroke-miterlimit="10" stroke-width=".5" d="M261.60547 477.61328l4.46094 5.42969"/></g><g clip-path="url(#r)"><path fill="none" stroke="#000" stroke-linecap="round" stroke-linejoin="round" stroke-miterlimit="10" stroke-width=".5" d="M280.4414 479.10156l-6.58202 2.45313"/></g><g clip-path="url(#s)"><path fill="none" stroke="#000" stroke-linecap="round" stroke-linejoin="round" stroke-miterlimit="10" stroke-width=".5" d="M293.36719 482.3125l-5.80078-3.96484"/></g><g clip-path="url(#t)"><path fill="none" stroke="#000" stroke-linecap="round" stroke-linejoin="round" stroke-miterlimit="10" stroke-width=".5" d="M307.20703 481.11328l-6.85156-1.57031"/></g><g clip-path="url(#u)"><path fill="none" stroke="#000" stroke-linecap="round" stroke-linejoin="round" stroke-miterlimit="10" stroke-width=".5" d="M306.21094 480.88672l.3164 1.1836"/></g><g clip-path="url(#v)"><path fill="none" stroke="#000" stroke-linecap="round" stroke-linejoin="round" stroke-miterlimit="10" stroke-width=".5" d="M319.2461 477.54688l-4.29688 5.5625"/></g><path fill="none" stroke="#000" stroke-linecap="round" stroke-linejoin="round" stroke-miterlimit="10" stroke-width=".5" d="M318.61719 478.35938l1.21094.20312"/><g clip-path="url(#w)"><path fill="none" stroke="#000" stroke-linecap="round" stroke-linejoin="round" stroke-miterlimit="10" stroke-width=".5" d="M328.64453 483.36719l3.53516-6.07422"/></g><g clip-path="url(#x)"><path fill="none" stroke="#000" stroke-linecap="round" stroke-linejoin="round" stroke-miterlimit="10" stroke-width=".5" d="M340.23828 480.7539l6.97656-.85156"/></g><g clip-path="url(#y)"><path fill="none" stroke="#000" stroke-linecap="round" stroke-linejoin="round" stroke-miterlimit="10" stroke-width=".5" d="M353.57031 480.86719l6.9414-1.07813"/></g><g clip-path="url(#z)"><path fill="none" stroke="#000" stroke-linecap="round" stroke-linejoin="round" stroke-miterlimit="10" stroke-width=".5" d="M354.57813 480.71094l-.73438-.98438"/></g><g clip-path="url(#A)"><path fill="none" stroke="#000" stroke-linecap="round" stroke-linejoin="round" stroke-miterlimit="10" stroke-width=".5" d="M368.96875 483.5586l2.77344-6.45704"/></g><g clip-path="url(#B)"><path fill="none" stroke="#000" stroke-linecap="round" stroke-linejoin="round" stroke-miterlimit="10" stroke-width=".5" d="M384.38281 483.76953l-1.42187-6.88281"/></g><g clip-path="url(#C)"><path fill="none" stroke="#000" stroke-linecap="round" stroke-linejoin="round" stroke-miterlimit="10" stroke-width=".5" d="M397.9336 483.71094l-1.89454-6.76563"/></g><g clip-path="url(#D)"><path fill="none" stroke="#000" stroke-linecap="round" stroke-linejoin="round" stroke-miterlimit="10" stroke-width=".5" d="M410.54297 483.83203l-.48438-7.00781"/></g><g clip-path="url(#E)"><path fill="none" stroke="#000" stroke-linecap="round" stroke-linejoin="round" stroke-miterlimit="10" stroke-width=".5" d="M420.3164 481.53516l6.59766-2.41407"/></g><g clip-path="url(#F)"><path fill="none" stroke="#000" stroke-linecap="round" stroke-linejoin="round" stroke-miterlimit="10" stroke-width=".5" d="M433.42188 480.13281l7.01953.39063"/></g><g clip-path="url(#G)"><path fill="none" stroke="#000" stroke-linecap="round" stroke-linejoin="round" stroke-miterlimit="10" stroke-width=".5" d="M447.07031 481.82813l6.35156-3"/></g><g clip-path="url(#H)"><path fill="none" stroke="#000" stroke-linecap="round" stroke-linejoin="round" stroke-miterlimit="10" stroke-width=".5" d="M447.9961 481.39453l-.98438-.73437"/></g><g clip-path="url(#I)"><path fill="none" stroke="#000" stroke-linecap="round" stroke-linejoin="round" stroke-miterlimit="10" stroke-width=".5" d="M460.28516 481.60156l6.55078-2.54297"/></g><g clip-path="url(#J)"><path fill="none" stroke="#000" stroke-linecap="round" stroke-linejoin="round" stroke-miterlimit="10" stroke-width=".5" d="M460.28516 481.60156l-1.85547-1.60547"/></g><g clip-path="url(#K)"><path fill="none" stroke="#000" stroke-linecap="round" stroke-linejoin="round" stroke-miterlimit="10" stroke-width=".5" d="M140.76172 468.3711l6.47656-2.71485"/></g><path fill="none" stroke="#000" stroke-linecap="round" stroke-linejoin="round" stroke-miterlimit="10" stroke-width=".5" d="M153.88672 466.23828l6.85547 1.55078m-5.85547-1.32812l-.32422-1.1836M168 464.6875l5.26172 4.65234m-4.4961-3.97656l.28516-1.1914m13.47266-.3711l2.84375 6.42578m-2.42969-5.49218l.75781-.96485m12.14063.03125l2.85156 6.42578m-2.85156-6.42578l1.51172-1.92969m12.28906 1.75782l1.875 6.76953m-1.875-6.76953l1.78125-1.69141m11.94922 1.60156l1.04687 6.94922m-1.04687-6.94922l1.96875-1.46093m11.21094 1.48437l1.3164 6.90234m-1.125-5.89843l.95703-.76953m10.14844.9414l5.35547 4.55078m7.5-.69531l6.27344-3.16016m12.90234 3.80079l-5.44922-4.44141m4.65625 3.79297l-.23828 1.20312m14.76563-1.20312l-6.28516-3.14453m5.3711 2.6875l.03124 1.22656m14.53516-1.85156l-6.96094-.98047m6.96094.98047l.83594 2.30468m11.625-5.1289l-5.25391 4.66797m5.2539-4.66797l2.30079.85547m11.13672 3.66797l-5.4961-4.37891m4.69531 3.74219l-.22265 1.20703m15.10156-2.79297l-7.02734.0664m6.00781-.05468l.58594 1.07812m8.65625 2.08203l3.16015-6.27734m10.15235 6.27734l3.16406-6.27734m-2.70313 5.36328l-1.22656.02735m15.75 1.26171l-.17578-7.02734m.15234 6.0039l-1.0703.60157m15.49218.22266l-2.33984-6.62891m2 5.66406l-.83204.90235M409 470.27734l2.60156-6.52734M409 470.27734l-2.4375.26954m15.22266-.53516l3.66406-5.9961m-3.66406 5.9961l-2.44922-.14844m16.88281.58985l1.42578-6.87891m-1.42578 6.8789l-2.35547.6875m13.16016-2.72656l6.44531-2.80078m-5.50781 2.39453L447 467.2422m13.27344 1.00781l6.57812-2.47266m-6.57812 2.47266l-1.83985-1.6211"/><g clip-path="url(#L)"><path fill="none" stroke="#000" stroke-linecap="round" stroke-linejoin="round" stroke-miterlimit="10" stroke-width=".5" d="M140.70313 454.91797l6.59375-2.4375"/></g><path fill="none" stroke="#000" stroke-linecap="round" stroke-linejoin="round" stroke-miterlimit="10" stroke-width=".5" d="M153.82031 453.32422l6.98828.75m-5.96875-.64063l-.45703-1.14062m13.72656-1.04297l5.03907 4.89844m-4.30469-4.1875l.33984-1.17578m13.96094-.50782l1.60156 6.84375m-1.37109-5.84765l.92578-.8086m12.67578-.26953l.5664 7.0039m-.48437-5.98437l1.03516-.66015m12.49219-.3711l-.02344 7.02735m.02344-6.0039l1.08203-.57032m13.02734-.35938l-1.60937 6.83985m1.375-5.84375l1.1875-.3125m13.84375.07031l-4.57031 5.33594m3.90234-4.5625l1.19922.26953m13.99219 1.96484l-6.9922-.6836m5.97657.58595l.46875 1.1328m12.33594 1.53517l-3.9375-5.82032m3.36328 4.97266l-.57422 1.08594m14.72266-.4336l-4.45703-5.42968m3.80859 4.64062l-.47266 1.13281m15.4414-1.6836l-6.46874-2.75m5.52734 2.34767l.10547 1.22265m14.01953-.54297l-6.20312-3.30468m6.20312 3.30468l-.0039 2.45313m13.73046-4.17969l-7.02734.14844m7.02734-.14844l1.19532 2.14063m11.9414-3.17188l-6.67187 2.20703m6.67187-2.20703l1.77344 1.69531m-2.74219-1.3711l.88672.84767m13.39063 1.05859l-6.65625-2.2539m6.65625 2.2539l.39453 2.42187m12.49219-1.5625l-5.80079-3.96875m4.95704 3.39063l-.13672 1.21875m11.26562.88672l.25781-7.02344m-.21875 6l-1.10156.53516m14.9961.45312l-.98047-6.95703m.98047 6.95703l-1.98047 1.44531m13.83203-1.54687l1.94922-6.75m-1.66797 5.76562l-1.19922.25391m13.92969.6289l2.55468-6.54687m-2.55468 6.54688l-2.4375.28515m16.49218-.08593l1.07813-6.94532m-1.07813 6.94532l-2.3203.80468m14.5664-1.15234l3.21484-6.25m-3.21484 6.25l-2.45313.03516m14.375-1.33204l6-3.65625m-6 3.65625l-2.10937-1.25m15.33594 1.09375l6.17968-3.34375m-5.28125 2.85547l-1.02343-.67578"/><g clip-path="url(#M)"><path fill="none" stroke="#000" stroke-linecap="round" stroke-linejoin="round" stroke-miterlimit="10" stroke-width=".5" d="M146.4961 442.85547l-4.9922-4.94531"/></g><path fill="none" stroke="#000" stroke-linecap="round" stroke-linejoin="round" stroke-miterlimit="10" stroke-width=".5" d="M145.76953 442.13672l-.35156 1.17578m14.29297-.35938l-4.79297-5.14062m15.75-.9414l-.07422 7.02734m.0625-6.00782l1.08984-.5625m12.14453-.45703L184 443.89844m-.09375-6.0039l1.07422-.59376m12.44531-.42578l-.33203 7.01953m.28516-6l1.10937-.52344m13.02344-.375l-1.875 6.77344m1.60156-5.78516l1.19922-.26953m14.66406 1.2422l-6.42187 2.85546m5.48828-2.4414l.96484.7578m13.08203-1.5625l-6.01562 3.63282m5.13672-3.10547l1.05469.63281m13.48828-.3789l-6.71485 2.0703m5.73828-1.76952l.8672.86718m13.04687 1.73047l-5.96094-3.72656m5.96094 3.72656l-.17578 2.44922m12.33593-1.3086l-3.65234-6.0039m3.65234 6.0039l-1.2539 2.10938M293.4414 442.25l-5.95313-3.73438m5.08594 3.19141l-.08594 1.22656m14.23047-.62109l-5.875-3.85938m5.875 3.85938l-.22656 2.4414m13.90625-3.17187l-6.60547-2.39453m6.60547 2.39453l.34375 2.42969m-1.30469-2.77734l.17187 1.21484m14.15235-1.0039l-6.69922-2.1211m6.69922 2.1211l.44531 2.41015m-1.42187-2.71875l.22265 1.20312m14.08594-.95312l-6.73438-2.00781m6.73438 2.0078l.48437 2.40626m-1.46484-2.69922l.24219 1.20313m12.72656.9453L355 437.52345m3.48828 4.88672l-.54687 1.09765m15.04296-.79297l-5.2539-4.66406m4.48828 3.98828l-.28906 1.1914m12.8086.5l-2.13282-6.6953m1.82031 5.72265l-.85547.8789m12.5586.15626l1.71484-6.8164m-1.46484 5.82421l-1.19141.29297m13.1914.23047l3.84376-5.88281m-3.28516 5.02734l-1.22266-.10938m14.69141 1.32032l2.42187-6.59375m-2.0703 5.63672l-1.21485.16797m13.58203.5039l3.61328-6.02344m-3.61328 6.02344l-2.45313-.125m15.26172-.24219l4.625-5.28906m-4.625 5.28906l-2.38672-.55859m3.0586-.21094l-1.1914-.27734m12.98827-.05469l6.31641-3.08203m-6.3164 3.08203l-1.98438-1.4414"/><g clip-path="url(#N)"><path fill="none" stroke="#000" stroke-linecap="round" stroke-linejoin="round" stroke-miterlimit="10" stroke-width=".5" d="M146.59766 429.4375l-5.19532-4.73438"/></g><path fill="none" stroke="#000" stroke-linecap="round" stroke-linejoin="round" stroke-miterlimit="10" stroke-width=".5" d="M145.83984 428.7461l-.30468 1.1875m14.86328-1.1797l-6.16406-3.37109m5.26562 2.88281l-.01563 1.22657m13.44532.23437l-4.59766-5.3164m19.125 2.79687l-7.02344-.27734m6 .23437l.53516 1.10547m13.22656-3.13281L194.32421 429m5.8711-3.86328l2.15235 1.17578m11.28125-.98047l-6.10938 3.47266m6.10938-3.47266l2.07422 1.3164m10.16406-2.48437l-3.95313 5.8086m3.3789-4.96485l1.21876.13672m14.16016 2.4961l-6.9336-1.14454m5.92578.97657l.39063 1.16406m13.38281.39453l-5.83203-3.92578m4.98047 3.35547l-.125 1.21875m13.08984.45312l-3.42969-6.1289m2.9297 5.23828l-.66407 1.03125m13.80078.15234l-2.07422-6.71484m1.77344 5.73828l-.86328.8711m14.4414.11718l-2-6.73828m1.71094 5.75781l-.875.85938m14.50781.11328l-2.05468-6.72266m1.7539 5.74219l-.86718.86719m16.0625-.89454l-5.21485-4.70703m5.21485 4.70703l-.59375 2.37891m14.30078-2.90234l-6-3.66016m6 3.66016l-.14453 2.44922m13.71875-2.96094l-6.51563-2.63672m5.5664 2.2539l.12891 1.21876m12.86328.74218l-3.97265-5.79297m3.39453 4.94922l-.5664 1.08985m9.48827-1.28907l5.96875-3.70703m-5.10156 3.16797l-1.0586-.61719m13.35548-2.28125l6.27343 3.16797m13.66797-1.17578l-6.98047-.8125m5.96485.6914l.44531 1.14454m7.67188.78906l5.4453-4.4414m-4.65234 3.79687l-1.1328-.47656m13.73437-3.41406l5.28515 4.6289m-4.51562-3.95703l.28125-1.19531m11.72656 1.35156l6.36328 2.97266m-6.36328-2.97266l-.1289-2.45312m13.13671 4.35937l6.97657-.83984m-5.96094.71875l-.70313-1.00782m13.0039 1.14844l6.97267-.8789m-6.97266.8789L458.66406 425.5"/><g clip-path="url(#O)"><path fill="none" stroke="#000" stroke-linecap="round" stroke-linejoin="round" stroke-miterlimit="10" stroke-width=".5" d="M146.875 415.77344l-5.75-4.03906"/></g><path fill="none" stroke="#000" stroke-linecap="round" stroke-linejoin="round" stroke-miterlimit="10" stroke-width=".5" d="M146.03906 415.1836l-.15234 1.21874m13.8711-.125l-4.88673-5.04687m4.17578 4.3125l-.375 1.16797m15.4336-2.4336l-6.94922-1.05078m5.9375.89844l.40625 1.15625m13.92969-1.07422l-6.96875-.91016m5.95312.77735l.4336 1.15234m13.70703-2.69531l-6.58985 2.44531m5.62891-2.08984l.91797.8164m11.91797-2.93359l-3.71094 5.96875m18.6836-3.08203l-7.02344.19531m6-.16797l.60937 1.06641m13.23438.8086l-6.03125-3.60938m5.15234 3.08203l-.0625 1.22656m13.96484-.28906l-5.45312-4.42969m4.66016 3.78516l-.23438 1.20312m13.66406.08203l-4.09375-5.71093m3.4961 4.8789l-.54688 1.10157m14.02735-.00391l-3.23047-6.24219m2.76172 5.33203l-.69922 1.01172m13.41797.2461l-1.09766-6.94141m.9375 5.9336l-.98047.73827m14.39063.28125l-.97266-6.96093m.83203 5.94531l-.99219.72266m14.65625.2578l-1.38672-6.89062m1.1875 5.88672l-.94921.77735m13.42187.27734l.69531-6.99219m-.59375 5.97266l-1.13281.46875m15.11719.54297l-.84375-6.97657m.72265 5.96094l-1.0078.70313m16.1953-.41797l-4.34765-5.51953m12.08203 3.61328l6.8164-1.70313m-5.82812 1.45703l-.82031-.91406m13.54297-1.5039l6.01953 3.625m-5.14453-3.09766l.0664-1.22656m13.69922-.57032l3.3711 6.16407m-2.88282-5.26953l.67578-1.02344m14.78907-.17188l-1.90625 6.76563m1.90625-6.76563l2.39843-.51953m9.83204.39063l.26171 7.02343m-.26171-7.02343l2.12109-1.23047m9.29687 1.875l4.0586 5.73437m-3.46875-4.90234l.55078-1.09375m11.3711 1.05078l5.66406 4.15625m-4.83985-3.55078l.17578-1.21484m11.69531 2.03515l6.90625 1.30469m-5.90234-1.11328l-.36328-1.17188"/><g clip-path="url(#P)"><path fill="none" stroke="#000" stroke-linecap="round" stroke-linejoin="round" stroke-miterlimit="10" stroke-width=".5" d="M147.13672 402.01953l-6.27344-3.16015"/></g><path fill="none" stroke="#000" stroke-linecap="round" stroke-linejoin="round" stroke-miterlimit="10" stroke-width=".5" d="M146.22656 401.5586l.02735 1.22656m14.10937-.59766l-6.09375-3.4961m5.20703 2.98829l-.03906 1.22656m14.29688-.82031l-6.20704-3.29297m5.3047 2.8125v1.22656m14.53905-3.1836l-6.85156 1.57813m17.25-4.26562l-1.01953 6.95312m11.71875-.66406l4.21484-5.625m-3.60156 4.8086l-1.21094-.19141m18.80078.34375l-5.5625-4.29688m4.75391 3.67188l-.20703 1.21094m14.95313-1.85938l-6.8086-1.75m5.8164 1.4961l.28907 1.1914m13.91016-.58984l-6.58985-2.44141m5.6289 2.08594l.16407 1.21484m13.48438.20703l-5.33594-4.57422m18.03125 5.14063l-4.09766-5.71094m16.60547 6.14453l-2.48047-6.57422m2.11719 5.6172l-.8086.92187m11.5625-.16797l3.3672-6.16797m-2.87891 5.26953l-1.22656-.01563m15.16406 1.29688l1.14453-6.9336m-.97656 5.92188l-1.16407.39453m13.26954.26953l3.23046-6.24218m-2.76171 5.33593l-1.22657.01172m15.66407 1.28906l.04687-7.02734m9.88281 4.375l6.8164-1.72265m8.00392-2.09375l3.80468 5.91015m-3.25-5.05078l.60157-1.07031m16.92187 1.1211l-5.71875 4.08593m12.66797-2.25l7.01172.41797m-5.99219-.35938l-.51172-1.11328m13.95313-1.33984l4.71875 5.20312m-4.03125-4.44531l.41406-1.15625m14.9414-.49219l-.73437 6.98828m.73438-6.98828l2.27343-.92187m11.08594.92578l-.82812 6.97656m.82812-6.97656l2.28906-.88672m11.35547.9414l-1.48047 6.8711m1.48047-6.8711l2.35938-.67187m6.72656 4.53125l6.97656-.85156m-5.96094.72656l-.70312-1.0039"/><g clip-path="url(#Q)"><path fill="none" stroke="#000" stroke-linecap="round" stroke-linejoin="round" stroke-miterlimit="10" stroke-width=".5" d="M146.47266 389.61719l-4.94532-4.98828"/></g><path fill="none" stroke="#000" stroke-linecap="round" stroke-linejoin="round" stroke-miterlimit="10" stroke-width=".5" d="M145.7539 388.89063l-.36327 1.17187m15.0039-1.25l-6.16016-3.3789M159.5 388.3203l-.01563 1.22656m14.61329-1.85156l-6.9336-1.14453m5.92578.97656l.39063 1.16407m13.3086-3.63282l-5.6875 4.12891m4.85937-3.52734l1.10156.53906m10.61328 4.41406l-.83203-6.98047m16.0625 6.11719l-4.66406-5.2539m4.66406 5.2539l-.85547 2.30078m14.76953-2.98828l-5.85937-3.8789m5.00781 3.3164l-.1211 1.21875m14.8672-2.39844l-7.01563-.39453m5.99219.33594l.51562 1.11328m13.17969.78125l-5.73047-4.0664m18.98828 4.14062l-5.6211-4.21485m4.8047 3.60157l-.1875 1.21484m14.73046-1.30078l-6.4414-2.8164m13.3711 2.92968l6.33202-3.04297m7.73047 4.07031l4.83594-5.09765m-4.13281 4.35547l-1.1836-.32813m12.85938-.4375l6.71094-2.08203m-5.73438 1.78125l-.875-.86328m13.35938 1.5586l6.41406-2.8711m-5.48047 2.45313l-.96875-.75391m14.04687 2.1914l5.02344-4.91015m-4.29297 4.19531l-1.16797-.3711m13.61329.9375l5.30078-4.60937m-4.53125 3.9375l-1.14453-.4414m15.09765-4.48047l2.48438 6.57422m12.53125-6.76954l-.91797 6.96485m.78515-5.95313l1.14844-.42968m14.04297.16015l-4.40234 5.48047m3.76172-4.6836l1.20312.23048m11.39063-1.69922l-1.6797 6.82422m1.4375-5.83204l1.1875-.30078m11.19923-.77734l.66406 6.9961m-.57031-5.97657l1.02343-.67578m11.625-.24219l1.8086 6.79297m-1.8086-6.79297l1.80079-1.66797m11.01953 1.83985l2.79687 6.44922m-2.79687-6.44922l1.52734-1.91797m11.94922 1.85547l2.47656 6.57422m-2.47656-6.57422l1.6211-1.84375"/><g clip-path="url(#R)"><path fill="none" stroke="#000" stroke-linecap="round" stroke-linejoin="round" stroke-miterlimit="10" stroke-width=".5" d="M144.46484 377.28906l-.92968-6.96484"/></g><g clip-path="url(#S)"><path fill="none" stroke="#000" stroke-linecap="round" stroke-linejoin="round" stroke-miterlimit="10" stroke-width=".5" d="M144.46484 377.28906l-1.99218 1.42969"/></g><path fill="none" stroke="#000" stroke-linecap="round" stroke-linejoin="round" stroke-miterlimit="10" stroke-width=".5" d="M160.28906 375.67969l-5.94531-3.74219m5.07813 3.19922l-.08985 1.22265m14.32031-4.34375l-6.04297 3.58594m5.16407-3.0664l1.04687.63671m13.39844-.63671l-6.55078 2.54296m5.59766-2.17187l.92968.80078m13.5664-.19922l-7.0039.59766m5.98438-.50781l.66797 1.02734m11.64453 2.3711l-2.96094-6.375m2.53125 5.4453l-.73828.98048m16.35156-2.17188l-6.69531-2.13672m5.71875 1.82813l.22266 1.20703m14.16406-1.2539l-6.88281-1.42188m6.8828 1.42187l.6875 2.35156m12.63673-2.40234l-6.90235-1.32031m6.90235 1.32031l.72265 2.34766m12.63281-2.62891l-6.98437-.75781m5.96875.64844l.45703 1.13671m13.84375-2l-6.92578 1.1875m5.91797-1.01562l.75.97265m13.60937-.24609l-7-.60937m5.98438.51953l.48047 1.1289m11.22265 2.0586l-1.74609-6.80469m11.38281 5.51172l5.61328-4.22266m-4.79687 3.60938l-1.11328-.51953m13.39843.8164l6.04297-3.58594m-5.16406 3.0625l-1.05078-.63671m13.50781 1.1953l6-3.65624m-5.1289 3.125l-1.0547-.6289m13.375.9414l6.2461-3.21875m-5.33594 2.75l-1.0078-.69922m19.6875 1.10938l-6.3047-3.10547m5.38672 2.65625l.03907 1.22656m14.28515-3.67969l-6.48437 2.70313m5.53906-2.3125l.94922.77734m11.30078-3.10547l-2.46484 6.57813m2.10546-5.6211l1.21875-.16015m10.64844-.97266l1.14844 6.92969m-1.14844-6.92969l1.94922-1.49219m10.51953 1.74219l2.84375 6.42578m-2.84375-6.42578l1.51563-1.92969m11.30468 2.19922l3.83204 5.89063m-3.83204-5.89063l1.1875-2.14844m11.7422 2.44141l4.60546 5.30469m-4.60547-5.30469l.8789-2.29297m-.21093 3.0625l.4414-1.14453m13.10938-.19531l2.79297 6.44531m-2.79297-6.44531l1.53125-1.92188"/><g clip-path="url(#T)"><path fill="none" stroke="#000" stroke-linecap="round" stroke-linejoin="round" stroke-miterlimit="10" stroke-width=".5" d="M143.92188 364.0039l.15625-7.02343"/></g><g clip-path="url(#U)"><path fill="none" stroke="#000" stroke-linecap="round" stroke-linejoin="round" stroke-miterlimit="10" stroke-width=".5" d="M143.92188 364.0039l-2.19532 1.10548"/></g><g clip-path="url(#V)"><path fill="none" stroke="#000" stroke-linecap="round" stroke-linejoin="round" stroke-miterlimit="10" stroke-width=".5" d="M143.94531 362.98438l-1.09765.55078"/></g><path fill="none" stroke="#000" stroke-linecap="round" stroke-linejoin="round" stroke-miterlimit="10" stroke-width=".5" d="M159.66406 363.10547l-4.69922-5.22266m4.69922 5.22266l-.83984 2.30469m15.30078-5.26954l-6.99219.70313m5.97656-.59766l.6797 1.01954m13.66405-.54688l-7.01562-.44922m5.99219.38281l.50781 1.1172m13.83203-1.09767l-7.01953-.35937m7.01953.35938l1.03906 2.22265m11.69532-.46094l-5.85938-3.8789m5.85938 3.8789l-.23438 2.44141m13.42969-2.26953l-5.61719-4.22266m5.61719 4.22266l-.38281 2.42187m14.07422-3.05078l-6.3711-2.96875m6.3711 2.96875l.1289 2.45313m13.51563-3.98047l-7.02735.08984m6.0039-.07812l.58985 1.07812m13.47266-2.40625l-6.47656 2.72266m5.53515-2.32813l.94922.77344m12.64844-2.1914l-5.16016 4.76953m4.41016-4.07422l1.16015.40234m12.71485-1.28906l-4.78125 5.14844m4.08594-4.39844l1.1875.3164m13.64453.08204l-6.42188 2.85546m5.48828-2.4414l.96485.7539m12.69922-2.07421l-5.25391 4.66796m4.48828-3.98828l1.15234.42579m8.15625 4.0078l4.28907-5.5625m12.66015 5.96485l-2.97656-6.36719m2.54297 5.44141l-.73828.98047m15.5586-.82813l-5.1211-4.8164m5.1211 4.8164l-.64845 2.3672m14.6875-3.52345l-6.5664-2.5039m5.60937 2.13672l.15235 1.21875m13.60547-4.26563l-5.54297 4.32031m4.73828-3.6914l1.1211.5m11.03515-2.38672l-1.61328 6.83984m1.61328-6.83984l2.3711-.625M409.9414 357l.71875 6.98828M409.9414 357l2.03515-1.3711m10.0586 1.72657l3.16015 6.27734m-3.16015-6.27734l1.41796-2.0039m12.4297 1.78906l2.09765 6.70703m-2.09766-6.70704l1.72266-1.74609m11.48047 1.78125l2.32422 6.63281m-2.32422-6.6328l1.66015-1.80079m12.58985 1.61328L463.78906 364m-.45312-7.01172l2.08984-1.28906"/><g clip-path="url(#W)"><path fill="none" stroke="#000" stroke-linecap="round" stroke-linejoin="round" stroke-miterlimit="10" stroke-width=".5" d="M144.5039 350.65625l-1.0078-6.95703"/></g><g clip-path="url(#X)"><path fill="none" stroke="#000" stroke-linecap="round" stroke-linejoin="round" stroke-miterlimit="10" stroke-width=".5" d="M144.5039 350.65625l-1.98046 1.44922"/></g><g clip-path="url(#Y)"><path fill="none" stroke="#000" stroke-linecap="round" stroke-linejoin="round" stroke-miterlimit="10" stroke-width=".5" d="M144.35547 349.64453l-.98828.72266"/></g><path fill="none" stroke="#000" stroke-linecap="round" stroke-linejoin="round" stroke-miterlimit="10" stroke-width=".5" d="M159.53125 349.90234l-4.4336-5.44921m4.4336 5.44921l-.94922 2.26172m15.51563-4.41015l-6.9336-1.15235m6.9336 1.15235l.77734 2.32812m12.10547-1.13672l-6.07031-3.53515m6.0703 3.53515l-.09374 2.45313m13.76172-3.28516l-6.77344-1.86719m6.77344 1.8672l.53515 2.39452m-1.52343-2.66797l.26953 1.19922m14.13672-1.46484l-6.98047-.79297m6.98047.79297l.89843 2.28125m-1.91406-2.39844l.44922 1.14453m13.90234-1.28906l-7.02343-.26953m7.02343.26953l1.06641 2.21094m12.23828-2.625l-7.0039.5586m7.0039-.5586l1.32031 2.0664m11.70703-3.20312l-6.42968 2.83203m6.42969-2.83203l1.92968 1.51953m10.69531-2.54688l-5.04687 4.88672m5.04688-4.88671l2.33593.7539m10.08985-1.42187l-3.26953 6.22265m3.26953-6.22265l2.45312-.01172m10.40235-.1875l-2.35157 6.6211m2.01172-5.65626l1.21094-.1836m12.73828-.66406l-2.9375 6.38672m2.50781-5.45703l1.22657-.07031m13.83593.19531l-5.57422 4.28125m4.76172-3.66015l1.11719.5078m12.6875 3.51563l-4.92578-5.01171m4.92578 5.01171l-.73828 2.33985m13.6914-2.03125l-4.20312-5.6289m4.20313 5.6289l-1.04688 2.21875m14.99219-2.82422l-5.46485-4.41797m5.46485 4.41797l-.46485 2.41015m14.5625-4.61718h-7.02734m7.02734 0l1.15235 2.16406m10.98828-4.78906l-4.67969 5.2461m4.67969-5.2461l2.38281.58594m-3.0664.17968l1.1914.28906m11.14453-1.8789l-1.35547 6.89453m1.35547-6.89453l2.34766-.71094m-2.54297 1.71485l1.17188-.35547m11.52343-.71094l.27344 7.01953m-.27344-7.01953l2.1211-1.23438m-2.08203 2.25391l1.0625-.61719m12.98828-.34765l-1.27344 6.91015m1.08594-5.90625l1.17187-.36719m14.27344.4336l-5.16016 4.76953m4.41016-4.07422l1.15625.40625m13.125-.84375l-5.59375 4.2539m5.59375-4.2539l2.23047 1.02735m-3.04297-.40625l1.11328.51171m12.38281-1.77343l-4.32812 5.53515"/><g clip-path="url(#Z)"><path fill="none" stroke="#000" stroke-linecap="round" stroke-linejoin="round" stroke-miterlimit="10" stroke-width=".5" d="M465.72656 344.41016l2.41406.42578"/></g><path fill="none" stroke="#000" stroke-linecap="round" stroke-linejoin="round" stroke-miterlimit="10" stroke-width=".5" d="M465.09766 345.21484l1.20703.21485"/><g clip-path="url(#aa)"><path fill="none" stroke="#000" stroke-linecap="round" stroke-linejoin="round" stroke-miterlimit="10" stroke-width=".5" d="M145.70703 336.9336l-3.41406-6.14063"/></g><path fill="none" stroke="#000" stroke-linecap="round" stroke-linejoin="round" stroke-miterlimit="10" stroke-width=".5" d="M145.70703 336.9336l-1.33203 2.05859"/><g clip-path="url(#ab)"><path fill="none" stroke="#000" stroke-linecap="round" stroke-linejoin="round" stroke-miterlimit="10" stroke-width=".5" d="M145.21094 336.03906l-1.33203 2.0625"/></g><path fill="none" stroke="#000" stroke-linecap="round" stroke-linejoin="round" stroke-miterlimit="10" stroke-width=".5" d="M159.76953 336.375l-4.91016-5.02344m4.91016 5.02344l-.74219 2.33984m.02735-3.0703l-.3711 1.16796m14.95313-1.13281l-6.01172-3.63281m6.01172 3.6328l-.13672 2.44923m-.73828-2.97657l-.0664 1.22266m14.09374-.44531l-5.6875-4.13281m5.6875 4.1328l-.34375 2.4297m13.96094-2.9297l-6.28906-3.1328m6.28906 3.1328l.0625 2.45313m-.98047-2.90625l.03516 1.22266m14.55078-2.65625l-6.9961.64062m6.9961-.64062l1.34375 2.05469m-2.36328-1.96094l1.34375 2.05469m12.8086-2.9922l-6.63282 2.32813m6.63281-2.32812l1.80469 1.66406m-2.76953-1.32422l.90234.83203m13.16406-1.65625l-6.20703 3.29688m6.20703-3.29688l2.03516 1.375m-2.9375-.89453l1.01563.6875m12.7578-1.8164l-5.3203 4.58984m5.3203-4.58984l2.28907.89062m-3.0625-.22265l1.14453.4453m12.1914-1.76952l-3.8125 5.90625m3.8125-5.90625l2.44532.21093m-3 .64844l1.22266.10547m11.34375-1.47266l-1.20703 6.92188m1.20703-6.92188l2.33203-.76562m10.51953.71484l-.27734 7.02344m.23437-6l1.10547-.53516m14.26172.2422l-4.29688 5.5625m3.67188-4.75392l1.20703.20704m14.09375 1.9414l-7.01953-.35156m7.01953.35156l1.04297 2.22266m11.92969-.875l-6.33594-3.04688m6.33594 3.04688l.10156 2.44922m-1.02344-2.89453l.05078 1.22656m14.04688-.51953l-6.0547-3.57031m6.0547 3.5703l-.10938 2.45313m13.52735-2.64453l-6.26172-3.1875m5.35156 2.72266l.01953 1.22656m13.10547-5.22266l-4.0625 5.73438m4.0625-5.73438l2.4336.3125m10.63671-.46875l-3.57422 6.04688m3.57422-6.04688l2.45313.10938m-2.97266.76953l2.45313.10938m10.18359-1.4297l-1.17578 6.9297m1.17578-6.9297l2.33203-.76952m-2.5 1.77734l1.16406-.38672m11.73047-.67187v7.02734m0-7.02734l2.16797-1.14844m14.55469 5.51562l-6.8164-1.70312m5.82421 1.45703l.29688 1.1875m14.10546-1.5039l-7.0039-.57813m7.0039.57812l.96875 2.25391m12.07813-3.91406l-6.46875 2.74219m6.46875-2.7422l1.90625 1.54298m-2.84766-1.14454l1.90625 1.54297m11.66797-2.98828l-5.10156 4.83594"/><g clip-path="url(#ac)"><path fill="none" stroke="#000" stroke-linecap="round" stroke-linejoin="round" stroke-miterlimit="10" stroke-width=".5" d="M466.11328 331.44531l2.32422.78125"/></g><path fill="none" stroke="#000" stroke-linecap="round" stroke-linejoin="round" stroke-miterlimit="10" stroke-width=".5" d="M465.3711 332.14844l2.32421.78125"/><g clip-path="url(#ad)"><path fill="none" stroke="#000" stroke-linecap="round" stroke-linejoin="round" stroke-miterlimit="10" stroke-width=".5" d="M146.625 322.88281l-5.25-4.66797"/></g><path fill="none" stroke="#000" stroke-linecap="round" stroke-linejoin="round" stroke-miterlimit="10" stroke-width=".5" d="M146.625 322.88281l-.57813 2.38281m-.18359-3.0625l-.57812 2.38282m-.1875-3.0625l-.28907 1.1914m14.88672.41797l-4.75781-5.17187m4.75781 5.17187l-.8164 2.3164m.12109-3.0664l-.40625 1.15625m13.53516.1875l-3-6.35547m3 6.35547l-1.46485 1.96485m15.50781-2.42579l-4.45312-5.43359m4.45313 5.4336l-.94532 2.26562m15.25-3.5664l-6.4336-2.83204m6.4336 2.83203l.17969 2.44532m-1.11719-2.85938l.08985 1.22266m14.42187-2.7461l-6.94922 1.04297m6.94922-1.04297l1.46094 1.96875m11.01172-3.77343l-5.26563 4.64843m5.26563-4.64843l2.29687.86328m11.0664-.8086l-5.36327 4.53907m5.36328-4.53907l2.28125.91016m-3.0625-.25l1.14062.45703m12.54688-1.52734l-4.54297 5.35937m4.54297-5.35937l2.39844.52344m-3.0586.2578l1.19922.26173m12.04688-1.51954l-3.08594 6.31641m3.08594-6.3164l2.44922-.08594m-2.89844 1.0039l1.22656-.04296m12.42188-.9297l-2.85547 6.42188m2.85547-6.42187l2.44921-.17188m11.06641.26953l-3.25781 6.22657m2.78515-5.32032l1.22657-.0078m13.67578 4.41015l-5.48438-4.39063m4.6875 3.7539L305.5 323.3086m14.92187-1.6328l-6.65234-2.25392m6.65234 2.25391l.39844 2.42188m-1.36328-2.75l.19531 1.21093m14.19532-1.27343l-6.8711-1.47266m6.8711 1.47266l.67187 2.35937m-1.67187-2.57422l.33593 1.17969m14.00391-2.30078l-6.92188 1.19531m6.92188-1.19531l1.5039 1.9414m-2.51171-1.76562l.7539.96875m12.9922-2.55469l-5.76954 4.01563m5.76953-4.01563l2.1836 1.1211m-3.02344-.53516l1.08984.5586m12.39063-1.8672l-4.42188 5.46094m4.42188-5.46093l2.41015.47265m10.09766-.96094l-2.80469 6.44141m2.80469-6.4414l2.44531-.19141m-2.85156 1.1289l1.22265-.09765m12.27344-.92969l-2.35547 6.6211m2.35547-6.6211l2.42578-.36328m-2.76953 1.32422l1.21485-.17969m11.8125-.9414l-1.08985 6.9414m1.08985-6.9414l2.3164-.8047M424.26172 324l-1.28906-6.90625M424.26172 324l-1.91797 1.53125m17.10937-2.53906l-5.04296-4.89063m5.04296 4.89063l-.67968 2.35937m14.875-5.6836l-6.80469 1.76173m6.80469-1.76172l1.65625 1.8086m-2.64453-1.55079l.82812.90235m12.19531-3.08204l-4.24218 5.60157"/><g clip-path="url(#ae)"><path fill="none" stroke="#000" stroke-linecap="round" stroke-linejoin="round" stroke-miterlimit="10" stroke-width=".5" d="M465.6836 317.7461l2.42187.39062"/></g><path fill="none" stroke="#000" stroke-linecap="round" stroke-linejoin="round" stroke-miterlimit="10" stroke-width=".5" d="M465.0664 318.5625l2.42188.39063m-3.03906.42578l1.21094.1953"/><path fill="#00f" fill-rule="evenodd" d="M383.80078 432.14063h8.61719v-10.14454h-8.61719v10.14454"/><path fill="azure" fill-rule="evenodd" d="M385.63281 423.82813h.83203v2.82421h3.28907v-2.82421h.83203v6.48046h-.83203v-2.91796h-3.28907v2.91796h-.83203v-6.48046"/><path fill="#00f" fill-rule="evenodd" d="M361.60938 401.07422h8.61718v-10.14844h-8.61719v10.14844"/><path fill="azure" fill-rule="evenodd" d="M363.4414 392.76172h.83204v2.82031h3.28906v-2.82031h.83203v6.47656h-.83203v-2.91406h-3.28906v2.91406h-.83203v-6.47656"/><path fill="#ff3030" fill-rule="evenodd" d="M202.52344 374.4414h7.6914v-10.14452h-7.6914v10.14453"/><path fill="azure" fill-rule="evenodd" d="M204.35547 366.1289h.83203v5.7422h3.19531v.73827h-4.02734v-6.48046"/><path fill="#ff3030" fill-rule="evenodd" d="M282.41406 374.4414h7.6914v-10.14452h-7.6914v10.14453"/><path fill="azure" fill-rule="evenodd" d="M284.2461 366.1289h.83202v5.7422h3.19532v.73827h-4.02735v-6.48046"/><path fill="#ffffe0" fill-rule="evenodd" d="M350.6211 330.3086h22.17968v-10.19141H350.6211v10.1914"/><path fill-rule="evenodd" d="M354.1211 321.95313h.5078v6.29296h-.78515v-4.48828h-1.39063v-.5586l.5586-.0625.2539-.05468.23047-.08984.20313-.14063.17187-.21094.14454-.29296.10546-.39454m4.8125 0l.23047.01563.21875.0586.20703.08984.19532.11719.18359.15234.17188.17578.30468.41797.24219.49219.17969.54687.10937.58203.03906.58985-.03906.59375-.10937.58203-.17969.55469-.24219.5039-.30469.42578-.17187.17969-.1836.15234-.1953.125-.20704.09375-.21875.0547-.23047.01952-.23046-.01953-.21875-.05469-.20704-.09375-.1953-.125-.1836-.15234-.17188-.17969-.30469-.42578-.24218-.5039-.17969-.5547-.10938-.58202-.03906-.59375h.83203l.03125.5625.07813.5078.1289.44142.16016.375.1914.30078.21094.21875.22266.14062.22656.04688.22657-.04688.22265-.14062.21094-.21875.1914-.30079.16016-.375.1289-.4414.08204-.50781.02734-.5625-.02734-.5625-.08203-.5-.1289-.4336-.16016-.36719-.19141-.29296-.21094-.21485-.22265-.1289-.22657-.04688-.22656.04688-.22265.1289-.21094.21485-.1914.29296-.16017.3672-.1289.43359-.07813.5-.03125.5625h-.83203l.03906-.58985.10938-.58203.17969-.54687.24219-.4922.30468-.41796.17188-.17578.1836-.15235.1953-.11718.20704-.08985.21875-.05859.23046-.01563m5.08985 0h.51172v6.29297h-.78907v-4.48828h-1.38671v-.5586l.55859-.0625.2539-.05468.22657-.08984.20703-.14063.17187-.21094.14063-.29296.10547-.39454m2.82422 2.17188h.78906l.01953-.3164.0586-.28516.09765-.25.14063-.21875.18359-.17188.22265-.1289.26563-.08204.30469-.02734.23828.02344.22656.0625.20313.10156.17968.13672.14844.17578.11328.20313.07031.23828.02735.26172-.02344.26953-.0664.22656-.10938.1914-.15625.17188-.19922.16016-.2461.16797-.63671.38671-.53516.3125-.4375.31641-.34765.32813-.26563.33203-.1875.35156-.125.3711-.07031.39452-.01953.41797h4.21094v-.74218h-3.33204l.08204-.28125.11328-.23829.14843-.20312.1875-.17969.23047-.17187.27735-.17578.71875-.41407.41406-.20703.34765-.23047.28125-.25.21875-.26953.16407-.27734.10937-.28125.0664-.28516.01954-.28125-.04297-.38281-.1211-.35156-.1875-.30469-.25-.26563-.30468-.21093-.34375-.16016-.3789-.09765-.41016-.03125-.4336.03125-.39843.09765-.35547.16797-.30469.23438-.2461.30468-.1875.3711-.11327.44921-.04297.51563"/><path fill="#ffffe0" fill-rule="evenodd" d="M156.76953 348.04297h22.17969v-10.1914h-22.17969v10.1914"/><path fill-rule="evenodd" d="M160.26563 339.6836h.51171v6.29687h-.78906v-4.49219h-1.38672v-.55469l.5586-.0625.2539-.05468.23047-.08985.20313-.14062.17187-.21094.14063-.29297.10547-.39844m4.8164 0l.23047.01954.21875.05468.20703.08985.19531.12109.1836.15234.17187.17579.30078.41796.2461.4922.17969.54687.10937.57812.03906.59375-.03906.59375-.10938.58203-.17968.55469-.2461.5-.30078.42969-.17187.17969-.1836.15234-.1953.125-.20704.08984-.21875.0586-.23047.01953-.23047-.01953-.21875-.0586-.20703-.08984-.19531-.125-.1875-.15235-.17188-.17968-.30078-.42969-.24219-.5-.17968-.55469-.11328-.58203-.03516-.59375h.83203l.02734.5625.08204.5039.125.44532.16406.375.1914.30078.21094.21875.22266.13672.22656.04688.22656-.04688.22266-.13672.21094-.21875.1914-.30078.16016-.375.125-.44531.08203-.5039.03125-.5625-.03125-.5625-.08203-.5-.125-.4336-.16016-.36719-.1914-.29297-.21094-.21484-.22266-.1289-.22656-.04688-.22656.04687-.22266.1289-.21094.21485-.1914.29297-.16406.36719-.125.4336-.08203.5-.02735.5625H163l.03516-.59376.11328-.57812.17969-.54688.24218-.49219.30078-.41796.17188-.17579.1875-.15234.19531-.1211.20703-.08984.21875-.05469.23047-.01953m5.08984 0h.51172v6.29688h-.78906v-4.49219h-1.38672v-.55469l.5586-.0625.2539-.05468.22656-.08985.20313-.14062.17578-.21094.14063-.29297.10547-.39844m2.82421 2.17579h.78516l.01953-.31641.0625-.28516.09766-.2539.14062-.21485.17969-.17187.22266-.1289.26562-.08204.3086-.02734.23828.02343.22265.0625.20703.10157.17578.13671.15235.17188.10937.20703.07422.23438.02344.26562-.01953.26953-.0664.22266-.10938.19531-.15625.16797-.19922.16406-.25.16406-.63281.39063-.53907.3125-.4375.3164-.34375.32423-.26562.33593-.1914.35156-.125.3711-.06641.39062-.02344.42188h4.21484v-.74219h-3.33203l.08203-.28515.11328-.23438.14844-.20313.1875-.17968.23047-.17188.27734-.17578.71875-.41406.41407-.20703.34765-.23047.27735-.25.22265-.26953.16406-.27735.10938-.28515.0625-.28516.02344-.28125-.04297-.38281-.1211-.34766-.1875-.3086-.25-.26171-.30468-.21094-.34375-.16015-.38281-.09766-.40625-.03516-.4336.03516-.39844.09766-.35547.16796-.30468.23438-.25.30078-.1836.375-.11718.44531-.03907.51954"/></g></defs><use xlink:href="#af"/></svg>