<svg xmlns="http://www.w3.org/2000/svg" role="img" xmlns:xlink="http://www.w3.org/1999/xlink" viewBox="142.45 309.95 326.84 171.84"><defs><clipPath id="a"><path d="M144 441h1v39.32813h-1zm0 0"/></clipPath><clipPath id="b"><path d="M144 311.67188h1V433h-1zm0 0"/></clipPath><clipPath id="c"><path d="M144 311.67188h324v168.65625H144zm0 0"/></clipPath><clipPath id="d"><path d="M411 436h57v44.32813h-57zm0 0"/></clipPath><clipPath id="e"><path d="M467 311.67188h1v168.65625h-1zm0 0"/></clipPath><clipPath id="f"><path d="M144 477h3v3.32813h-3zm0 0"/></clipPath><clipPath id="g"><path d="M153 479h9v1.32813h-9zm0 0"/></clipPath><clipPath id="h"><path d="M169 476h3v4.32813h-3zm0 0"/></clipPath><clipPath id="i"><path d="M182 476h4v4.32813h-4zm0 0"/></clipPath><clipPath id="j"><path d="M195 477h5v3.32813h-5zm0 0"/></clipPath><clipPath id="k"><path d="M208 477h5v3.32813h-5zm0 0"/></clipPath><clipPath id="l"><path d="M221 477h6v3.32813h-6zm0 0"/></clipPath><clipPath id="m"><path d="M234 477h6v3.32813h-6zm0 0"/></clipPath><clipPath id="n"><path d="M248 477h5v3.32813h-5zm0 0"/></clipPath><clipPath id="o"><path d="M261 477h5v3.32813h-5zm0 0"/></clipPath><clipPath id="p"><path d="M276 476h2v4.32813h-2zm0 0"/></clipPath><clipPath id="q"><path d="M286 478h8v2.32813h-8zm0 0"/></clipPath><clipPath id="r"><path d="M300 477h7v3.32813h-7zm0 0"/></clipPath><clipPath id="s"><path d="M315 476h4v4.32813h-4zm0 0"/></clipPath><clipPath id="t"><path d="M326 479h9v1.32813h-9zm0 0"/></clipPath><clipPath id="u"><path d="M340 478h8v2.32813h-8zm0 0"/></clipPath><clipPath id="v"><path d="M353 479h8v1.32813h-8zm0 0"/></clipPath><clipPath id="w"><path d="M367 477h6v3.32813h-6zm0 0"/></clipPath><clipPath id="x"><path d="M381 477h5v3.32813h-5zm0 0"/></clipPath><clipPath id="y"><path d="M394 477h6v3.32813h-6zm0 0"/></clipPath><clipPath id="z"><path d="M409 476h3v4.32813h-3zm0 0"/></clipPath><clipPath id="A"><path d="M422 476h3v4.32813h-3zm0 0"/></clipPath><clipPath id="B"><path d="M434 477h6v3.32813h-6zm0 0"/></clipPath><clipPath id="C"><path d="M447 477h6v3.32813h-6zm0 0"/></clipPath><clipPath id="D"><path d="M460 478h8v2.32813h-8zm0 0"/></clipPath><clipPath id="E"><path d="M458 479h3v1.32813h-3zm0 0"/></clipPath><clipPath id="F"><path d="M144 464h3v6h-3zm0 0"/></clipPath><clipPath id="G"><path d="M144 450h3v7h-3zm0 0"/></clipPath><clipPath id="H"><path d="M144 437h3v7h-3zm0 0"/></clipPath><clipPath id="I"><path d="M144 424h3v6h-3zm0 0"/></clipPath><clipPath id="J"><path d="M144 411h4v5h-4zm0 0"/></clipPath><clipPath id="K"><path d="M144 399h4v3h-4zm0 0"/></clipPath><clipPath id="L"><path d="M144 384h3v6h-3zm0 0"/></clipPath><clipPath id="M"><path d="M144 370h1v8h-1zm0 0"/></clipPath><clipPath id="N"><path d="M144 377h1v3h-1zm0 0"/></clipPath><clipPath id="O"><path d="M144 356h1v9h-1zm0 0"/></clipPath><clipPath id="P"><path d="M144 363h1v3h-1zm0 0"/></clipPath><clipPath id="Q"><path d="M144 362h1v2h-1zm0 0"/></clipPath><clipPath id="R"><path d="M144 343h1v8h-1zm0 0"/></clipPath><clipPath id="S"><path d="M144 350h1v3h-1zm0 0"/></clipPath><clipPath id="T"><path d="M144 349h1v2h-1zm0 0"/></clipPath><clipPath id="U"><path d="M465 343h3v2h-3zm0 0"/></clipPath><clipPath id="V"><path d="M144 330h2v8h-2zm0 0"/></clipPath><clipPath id="W"><path d="M144 335h2v4h-2zm0 0"/></clipPath><clipPath id="X"><path d="M466 331h2v3h-2zm0 0"/></clipPath><clipPath id="Y"><path d="M465 332h3v2h-3zm0 0"/></clipPath><clipPath id="Z"><path d="M144 318h4v5h-4zm0 0"/></clipPath><clipPath id="aa"><path d="M465 317h3v2h-3zm0 0"/></clipPath><g id="ab" clip-path="url(#clip1)"><path fill="#fff" fill-opacity="0" fill-rule="evenodd" d="M0 0h1000v1000H0zm0 0"/><path fill="#d3d3d3" fill-opacity="0" fill-rule="evenodd" d="M162.15234 355.86719l-.23437.29297.0586.23437.11718.17188.17578.23437.29297.34766.11328.0586.11719-.17188.0586-.23438.17577-.17578.46485-.17578h.69922l.23437.29297.28906.8164.0586.17579.17578.23046.35156.23438.69922.69922.17188.17578.23437.34765.23438.41016.28906.58203.41015.46485.23047.23437.23438.17578.11719.23047.17578.29297.17187 1.16406v.23438l.0586.28906.05859.11719.11719.11719.34765.41015.11719.17188.17578.17578.17578.23437.11719.17188.17188.35156.05859.23438.23437.40625.23438-.0586-.17578.17578-.0586.92969h-.58203l-.23437-.11328-.34766.11328-.11719.11719-.05859.29297-.0586.17578-.11718.17187-.46484.29297-.0586.23438-.0586.11328v.64453l.0586.17187v.41016l.0586.0586v.40624l.05859.40625.11719.17579.05859.05859.23047.64062-.0586.29297v.69922l-.05859.58203v.23438l-.0586.23047-.05468.35156v1.92187l.05469.1172h.42578l-.36719.11718-.02344.35156.89063 1.16797 1.74219.53906 1.33984.35938v.53906l.08984.8086.53516.71484 1.51953.26953.89063-.08594.08984 1.16406.53516.1797 1.16015-.1797 2.05469-.98437 1.16016-.36328 1.8789-.17578 1.69531-.1797-.17968.71876-1.51563.08594-1.25.08984-.80469.26953-1.07421.8086.26953.71875.53515.89843-.17968.625-.26563.8086.26563 1.07812.625.89844.80468.17969 1.25-.1797-.26562.72267.09766.5039.05468.29297v.17188l.0586.29296v.40625l.17578.1172.35156.11718h.40625l.29297-.17578.11328-.11719.0586-.11719.11718-.23047.0586-.17578.35156-.46484.23047-.17578.17578-.0586.17578.0586.0586.17578.11718.98828.05469.46875.0586.17188.11718.23437.17578.0586.8164.05859h.28907l.11719.23437.05859.40625.0586.35156v1.10547l.11718.29297.11719.34766.28906.69922.17578.35156.58203.7539.35157.17579.17187.0586.46875.23437.64063.46484.34765.23438.29297.17578.29297.05468.23047.0625.8164.34766.29297.17578.11328.17188.35157.35156.11719.17578.52343.64063v.28906l.0586.35156v.34766l.05859.35156.0586.28906.11718.0586.17188.05859h.17578l.58203.23437.17578.1172.17578.28905.17578.23438.11328.23437.29297.23047.11719.11719v.41016l.0586.05468.28906.23438.23437.11719.0586.11718.11718.17188.0586.11719.23047.23437.05859.17578.23437.0586.1172.05859-.1172.11328-.05859.11719v.11719l-.11719.29296-.11719.28907v.58203l.17579.11719.11718.05859.0586.11719.11719.11719.11328.05859.17578.34765.0586.35157.05858.40625v.17578l-.05859.17578-.11719.69922v.17187l.1172.17579.29296.29296h.40625l.17578.1172.11719.17187.11719.29296v.23438h-.52735l-.23047-.23438h-.23437l-.17578.0586-.0586.69922.0586.34765.11719.17579.17578.41015.11718.23047.28907.46875.17578.05469h.52344l.23437.0586.75781.64062.0586.29296v.23438l.05859.0586.23047.34765v.35156l-.11719.17188v.29297l.29297.28906.29297.17578.17187.0586.29297.17577.29297.1172.58203.40624.28906.23438.29297.17578.21875.16015.01563.01172.23047.17579.64062.52343.17578.23438.1172.17578.17577.17578.11328.17188v.64062l.1172.17578.46874.11719.58203.11719.23438.05859.23047.11328.29297.11719.11328.0586.58593.35156.28907.17187.17578.0625.17578.05469.17578.0586.69922.35155.28906.17579.23438.05468.28906.17578.23437.1172.64063.40624.29297.11719.17187.0586.23438.05859.41015.05859.23047.0586.23438.11718.0586.17188-.41017.17578.46875.0586.0586.29296.11328.23438.17578.05468.23438.0586.17578.05859.40625.11719.64062.23437.11719.17188.0586.23437v.17578l-.0586.1172-.0586.40624.23438.23438.11719.05859.34766.11719.64062.23047.17578.11718.28906.1172.17578.17577.23438.46485.58203 1.10546.17578.17579.34766.17578.17578.11719.35156.11718 1.04688.52344.23437.0586.46485.11327.29297.0586.46484.17578.75781.58203.23438.23438.34765.46484.17578.17578.28907.23438.8164.69921.29297.17579.28906.28906.29297.17578.29297.28906.69531.64063.17578.17578.29297.23437.28907.23438.46875.28906.64062.58203.34766.23438.23437.29297.34766.34765.35156.46485.9336.99218.34765.40625.11719.17579.23437.05859.11328.11719.64454.17578.23047.11328.23437.0586.29297.17577.23047.1172.9336.69921.40624.40625.23438.17578.40625.17578.23437.11719.8164.34766.34766.23437.23438.11719.29297.28906.23047.11719.7578.35156.35157.17188.23047.05859.29297.11719.23437.0586.8711.17577h.8164l.46875.23047.17188.0586.875.69921.46484.1172.29297.05858.17578.0586.23047.0586.46875.05859.34766.05859.35156.0586.40625.05859h.29297l.17187.0586v.23046l.17578.17578h.29297l.34766.0586.35156.05859.69922.11719h.64063l.46484-.23438.29297-.17578.17187-.11719.41016-.17187.28906-.17578.9336-.46485.46875-.29297.52343-.29296.46485-.17188.46484-.17578 1.05078-.46485.28906-.11718.41016-.11719.28906-.11719.52735-.17578 1.51562-.69922.58203-.34765.28907-.0586.29297-.0586.34765-.11718.875-.23047.35156-.11719h.11329l.23437-.05859.875-.23437.23438-.0586h.8125l.35156-.0586.8164-.11718.17188-.0586.35156-.05468.29297-.0586.23047-.05859.8164-.17578.17579-.0586h.34765l.23438-.05859.46484-.11718.75781-.17188.23438-.0586h.34765l.41016-.11718.28906-.0586 1.28516-.05859h.28906l.41016-.0586.23047-.05858h.17578l.875-.1172h.40625l.41015-.11718h.34766l.35156-.11328.8711-.0586h1.75l1.04687.28907.41016.11719.28906.11718.35156.11719.28907.11719 1.05078.17187.28906.0586h.29297l.29297.05859.17187.0586.41016.05859.17187.0586.1172.05858h.11718l.11719.0586.35156.0586h.11328l.41016.0664 1.92187.39453 1.92578.39453 1.51953.44922 1.69532.71875 2.14453.80469 1.60547-.71875 1.42968-.80469 1.16016-1.07813 1.25-.44921 3.03516-.71875 1.875-.35938 2.14453-1.34765 2.23437-1.25391 2.5-1.25781 1.69531-.44922 1.78516-.17969 1.16016-.26953.625.53906 1.33984-.26953.71485-.98828.98437-1.34375.44531-.17969.80469-.35937 1.875-.53907 1.78516-.44921 1.25-.26954 1.16015-.08984 1.69922-.08984 1.96094-.26954 1.25-.08984h.53906l.625-.08984h.89063l2.14453-.17969 2.41015-.17969 2.58985-.08984 1.69531.17969 1.60938.08984 1.42968.35938 1.16016.71875 1.875.98828 1.16015 1.52734.26563.71484.6289.08985.35548.89844.53515.53906.53516 1.52734 1.07422.35938h.53515l-.80469.53515.08985 1.70703.71484 2.69532.89063.80468.89453.98829.71484 1.2578 1.78516.53907 1.51953-.17969.35547 1.34375 1.60937-.80469.98047-.53906.26953.26953.31641-.21484.21875-.14453.80078.44922.44922-.35938h.35547l.53515-.26953.53907-.71875.53515-.26953.625-.98828 1.16016.44922.83984.3711 1.39454.61718 1.6953-.17969h1.60548l1.78515.08985.17969-1.70704.53516-1.34375.80468.26954.4922.84765.40233.40625-.08984.53906v.35938l.71485.44922.71093-.26953h1.42969l.35938.98828.4453 1.25781.71485 1.34375 1.25.6289 1.69531.62891.71485-.17969.17969-.53906.98046-.08984.44922.35937.08594 1.25782-.26563.6289-.53515.17969v.53906l.71484.98438.26563.53906.98437.98828.80078 1.07813-.26562.35937-.08985.89844-.625 2.33203-.35546 2.0664-.08985 1.79298-.17969.71875-.08984.53906v1.4375l-.98047 1.88281-.35937 1.70703-.53516.89844-.80469 1.16797-.26562.53906 2.05469 1.2539.08593.35938-.35546.53906-.08985-.17968v.80859l.08985 1.4375-.44532.71484-1.07422.09375-.26562.71485.53515.89844.8047.71875 1.16015.80859 1.33984.26953.44531.35938-.35546.44921-1.78907-.08984-1.25-.44922-.71484-.71875-.625-.08984-.17578 3.58984-.1875 1.3086h89.35937V311.70313h-55.26953v49.08203l.76172.125 3.28906.54296 2.02344 2.83594v2.7539l2.35156.33204 2.34766.33203h4.05078l-1.3789 4.16016-2.02344.70703-2.02344.70312-.54297.34375-2.59375 1.6172-.1875.11718-2.02344-2.07813-.73046-2.74218-2.67188-2.07813-1.375-3.5-.0664-.08203-1.95704-2.67188 2.75-1.41796v-49.08204H294.42187v91.41407l.1172.03125.1328.01172.07422.07421.10547.04688.08985.0586.08593.05859.08985.0586.29687.29687.0586.08984.03125.11719.02734.11719.01563.13671-.03125.1172-.0586.08983-.0586.08594-.04296.10547-.04688.10156-.02734.1211v.14453l.17578.26953.14844.14844.07422.08594.07422.07421.04296.10547.0625.08985.0586.08593.04297.10547.0586.08985.04687.10156.04296.10547.0586.08594.11719.17968.07421.07422.0625.08594.0586.08984.04297.10547.0586.08985.05858.08593.0625.08985.0586.08984.04297.10156.11719.17969.07421.07422.0586.08594.07422.07421.08984.0586.10547.04687h.14844l.1328-.01562.13282.01562.10156-.04687.07422-.07422.04688-.10156-.01563-.13281v-.14844l-.04687-.10547-.02735-.11719-.04687-.10156-.02735-.1211-.04296-.10156-.0625-.08984-.04297-.10156-.04297-.10547-.03125-.11719-.01563-.13281-.01171-.13672.08593-.0586.0586-.08593.12109-.03125.04297.10547.01562.1328v.1172l.0586.10156.0586.08984.08983.0586.14844.14843.0586.08985.04296.10547-.01171.10156.08593.0586.10547.04687.08594.0586.08984.05858.07422.07422-.11719.02735-.10546.04687-.08594.0586-.07422.07421-.0586.08985-.0625.08594-.02734.12109-.04687.10156-.04297.10547-.03125.11719-.01172.13281-.01563.13281v.14844l.02735.11719.04687.10547.04297.10156.0586.08984.07421.07422.08985.0586.07422.07421.08984.0586.0586.08984.04296.10547.04688.10156.11719.03125.1328.01563h.14845l.11718-.03125.10547.04297.04297.10547.04688.10156.02734.1211L299.5 410l.02734.11719.03125.1211.02735.11718.10547.04297.10156.04687.13281-.01562.14844.14844.0625.08593.07422.07422.07031.07422.08984.0625.10547.04297.10156.04297.1172.03125.13671.01562.11719-.03125.07422-.07422.02734-.11718-.01172-.13282-.03125-.12109-.02734-.11719.04297-.10547h.11719l.08984.0625.11719.02735h.14843l.13282.01562h.14843l.13282.01563.1328-.01563h.14845l.1328-.01562.13282-.01172.13672.01172.11719-.02735.13281-.01562.1914-.0586-.05859.17579-.01562.1328-.02735.1211-.01562.13281-.0586.08594-.1328.01563-.10548.04687-.10546.04297-.1172.03125-.11718.02735-.26563.03125h-.14843l-.13281.01562-.07422.07422.05859.08594.14844.14843.11719.1797.07421.0703.08985.0625.08984.0586.08594.0586.08984.05858.10156.04297.10547.0625.10547.04297.08594.0586.10547.04687.10156.04297.17969.11719.0586.08984-.04298.10156-.04687.10547.01562.13281.22266.22266.0586.08985.04296.10156.03125.1211.04297.10155.01563.13282.03125.11718.01171.13672.03125.11719.14844.14844.10156.04297.10547.04296.1172.03125.1328.01563.13672.01563h.11719l.11719-.03125.08984-.0586.04297-.10547.04688-.10156.04296-.10547.03125-.11719.01172-.1328v-.14845l-.01172-.1328-.01562-.13282-.03125-.11719-.04297-.10547-.04688-.10547-.04296-.10156-.04297-.10547-.01563-.13281.01563-.13281.02734-.11719.03125-.11719.02735-.1211.04687-.10155.08984-.0586.08594-.0625.07422-.07422.08984-.05859.22266-.22266.0586-.08593.07421-.07422.11719-.17969.0586-.08594v-.14844l-.07423-.07421-.10156-.04688-.10547-.04297-.10156-.04297-.0586-.08984-.04687-.10547-.02734-.11719.08984-.05859.11719-.03125.10156-.04297.17969-.11719.14844-.14843.01172-.13282-.01172-.10546-.08985-.0586-.1328.01563h-.14845l-.1328.01562-.13282-.01562-.1211-.03125-.08593-.0586-.07422-.07422-.0586-.08984-.0625-.08594-.11718-.17969-.0586-.08593.03125-.1211.08594-.05859.1211-.03125.05859-.08594v-.1211l-.03125-.11718-.0586-.08984-.05859-.08594-.04687-.10547-.02735-.11719-.01562-.1328.0586-.08985.07421-.07422.08984-.0586.1172-.17968.07421-.07422.0586-.08594.14843-.14844.1211-.03125.1328-.01562.13282.01562.07422.07422.04297.10547.01562.13281-.03125.1172-.11719.03124-.1328.01172-.14844.14844-.04297.10547-.04688.10156-.02734.1211-.03125.11718v.14844l.03125.11719.04297.10546.05859.08985.07422.07031.07422.07422.11719.03125.12109.02734.11719-.02734.1328-.01563h.1172l.08984.0586.07422.07422.04687.10546.0586.08594.10156.04688.13281.01562.10547.04297.08594.0586-.01172.10546-.07422.07422-.17969.11719-.05859.08984-.08984.0586-.07032.07422-.07421.07421-.0625.08985-.02735.11719-.01562.1328.01562.13282-.01562.13281v.14844l.01562.13281.02735.1172.03125.12108.07421.07422.08985.0586.08594.0586.08984.05858.11719.03125v.08594l-.10157.04688-.08984.0586-.26563.03124-.11718.02735h-.14844l-.10547.04296-.10156.04688-.0586.08984-.0625.23438-.01171.13281-.03125.1211-.01563.1328v.29298l-.01172.1328.01172.13673.01563.1328.1328.01563.13282.01172.1211.03125.08593.0586.07422.07421.04688.10547.04296.10157.01563.1328v.44532l-.01563.13281v.44532l.03125.26562.02735.11719.01562.13281.03125.11719.08594.21094.03125.26562v.14844l-.03125.11719-.02734.11718-.03125.1211-.02735.11719-.03125.11718-.03125.1211-.01171.1328-.01563.13282.08984.0586.1172-.03125.10155.01562.04688.10547-.03125.26562v.44141l-.04297.10547-.04688.10547-.04296.10156-.04297.10547-.0586.08594-.03125.12109-.04296.11719-.03125.11719-.01563.1328.01563.13282.05859.08984.10547.04688.08594.0586.05859.08593-.01172.13672-.03125.11719-.04297.10156v.44531l-.01562.13281v.14844l-.03125.11719-.04297.10547-.02735.11719-.04687.10546-.04297.10157-.03125.12109-.02734.11719-.03125.13281-.03125.11719-.02735.11719-.04297.10546-.03125.1172-.03125.12108-.01171.13282-.01563.13281v.29688l.02734.11718v.14844l.04688.39844.02734.11719.0586.08984.12109.03125h.14844l.13281-.01563.0586.08985v.11719l-.0586.08984-.08984.0586-.10157.04296-.10546.04688-.08985.05859-.08594.0586-.13671.01562-.1172-.03125-.1328-.01563-.10157.04688-.0625.08594-.01172.13671-.01562.13282-.03125.11719-.02735.11718-.01562.13281-.03125.1211v.29687l.01563.13282.03125.11718v.14844l.01171.13281v.14844l-.02734.11719-.04688.10156-.02734.1211-.03125.11718-.0586.08985-.07421.07421-.10156.04297-.10547.04688-.11719.02734-.1211.03125-.10156-.04687.0586-.08594.10547-.04688.02734-.11718.03125-.11719.02734-.1211.03125-.11718v-.14844l.01563-.13281-.03125-.11719-.04297-.10547-.10547.01563-.07422.07422-.10156.04296-.08984.0625-.07422.07422-.04297.10157-.01563.1328-.03125.1172L304.25 426l-.03125.11719-.02734.11719-.03125.12109-.02735.11719-.03125.11718-.04297.10547-.08984.0586h-.08984l-.1172-.03125-.03124-.08594.01562-.13672-.03125-.11719v-.14844l-.01171-.1328v-.14844l-.0625-.23438-.02735-.1211-.04297-.10156-.04687-.10546-.0586-.08594-.05859-.08985-.04297-.10546-.0625-.08594-.14844-.14844-.0703-.07422-.10548-.04687-.10547-.04297-.10156-.04297-.29687-.29688-.08985-.07421-.08594-.0586-.10546-.04297-.08985-.0625-.08594-.0586-.10546-.04296-.08985-.0586-.08594-.0625-.07421-.0703-.10547-.04688-.08594-.0586-.10547-.04296-.08984-.0625-.10156-.04297-.10547-.04297-.08594-.0586-.10547-.04687-.10547-.04297-.10156-.04687-.08985-.0586-.10156-.04297-.10547-.04296-.08984-.0625-.11719-.02735-.13281-.01562-.13281.01562H299.75l-.13281.01563-.11719-.03125-.08984-.0586-.07422-.07422-.08985-.05859-.10156-.04688h-.14844l-.12109-.02734-.10156-.04297-.07422-.07422-.11719-.17968-.08984-.0586-.10156-.04297-.08985-.0625-.10547-.04296-.08984-.0586-.08594-.0586-.10547-.04687-.0586-.08594-.05858-.08984-.04297-.10547-.04688-.10156-.07422-.07422-.08594-.0586-.07421-.07421-.08985-.0586-.22265-.22265-.04297-.10547-.03125-.26563.10547-.04296h.14453l.10547.04296.07421.07422.08985.0586.08594.0586.10546.04687.08985.05859.14844.14844.0703.07422.14845.14843.0625.08594.07421.07422.08594.0586.07422.07421.08985.0625.08984.0586.08594.05859.26953.17578.10156.04688.10547.04296.10156.04297.04688-.07421.05859-.08594.07422-.07422.07031-.07422.10547.04297.07422.07422.0586.08984.04296.10156.04688.10547.04296.10547.1211.02735.11719-.02735.07421-.08984.04297-.10547.0586-.08985.07422-.07421.10546-.04297.1172-.02735.1328.01172.08985.0586.14844.14843.05859.08985.04297.10547.04687.10156.04297.10547.04297.10156.10547.04688.10547.04296.13281.01563.08594-.0586.0586-.08984.07421-.07422.10547-.04297.11719.02735.10547.04687.10156.04297.10547.04297.10156.04688.17969.11718v.11719l-.01563.13281.01563.13281.01562.13672.0586.08594.10156.04688.1211.02734.11718.03125h.14844l.11719-.03125.05859-.08984.17969-.1172.05859-.08983.07422-.07422.0586-.08594.11718-.17969.17969-.11719.11719.03125.08984.0586.04297.07422-.01563.1328v.1172l.08985.05859h.14843l.13282-.01563.1328-.01171.26563-.03125.10547-.04297.11719-.03125.1211-.02735.07421-.07421.07031-.07422.0625-.08985-.01562-.10547-.04688-.10156-.10156-.04297-.10547-.01562-.11718.02734-.26563.03125h-.14844l-.07421-.07422-.08985-.0586-.11719-.03124-.11718-.02735-.13282-.01562h-.14843l-.13282.01563h-.29687l-.10547-.04688-.14844-.14844-.04297-.10156-.05859-.08984.22266-.22266.08593-.0586.10547-.04296.11719-.03125.13281-.01563.13281.01563.13672.01562.10157.04297.1328-.01172.08985-.0625.10156-.04297.0625-.08984-.04687-.10156-.08984-.0586-.1172-.03125-.10155-.04296-.0586-.08985-.0625-.08984v-.11719l.01563-.13281.10547-.04688.07421-.07031v-.1211l-.08984-.05859-.03125-.11719.08985-.05859.07421-.07422.04297-.10547.0586-.08984.04687-.10156.01563-.13281v-.14844l-.04688-.10547-.04297-.10156-.08984-.0586-.13281-.01562-.10157-.04297-.13671-.01563-.1172-.03125h-.4453l-.13282-.01562-.13281-.01172-.13281-.01563-.11719-.03125h-.14844l-.13281-.01562-.13281-.01172-.26563-.03125-.1211-.04297-.08593-.0586-.07422-.07421v-.14844l.01172-.13281.10547-.04688.10156-.04296.13281-.01563h.15235l.13281-.01562h.29297l.1211.03125.10156.04296.08984.0586.23438.0625.12109-.04688.08984-.05859.10156-.04297.13282-.01562.10547.04296.10156.04688.13281.01172.1211-.02735h.14453l.12109-.03125.11719-.02734.10547-.04687.07421-.07422.08594-.0586.14844-.14843.0586-.08594.04687-.10547.02734-.11719.01563-.10547-.10156-.04296-.08985-.0586-.11719-.03125-.10546-.04297-.08985-.0625-.07422-.08594-.07422-.07421-.10156-.04297-.10547-.04688-.10156-.04297-.0586-.08984-.04687-.10156-.08594-.21094-.0625-.08594-.05859-.08984-.07422-.07422-.08594-.0586h-.26953l-.11719.03126-.08984.05859-.10156.04297-.13281.01562-.10547-.01562-.02735-.11719-.0625-.08984-.11718-.03125-.10157-.04297-.14843-.14844-.03125-.11719-.01563-.10546.07422-.07422.17969-.1172.11719-.02733.11718-.03125.13672.01562.10156.04297.10547.04297.10156.04687.10547.04297.1172.03125.1328.01563.1172.02734.1328.01563.10547-.01563.08985-.0586-.07422-.07421-.10547-.04297-.07422-.07422-.07422-.08984-.14844-.14844-.08593-.0586-.08985-.05859-.07422-.07422-.08984-.0586-.10156-.04687-.1211-.02734-.10156-.04688-.10547-.04296-.11719-.03125-.10156-.04297-.1211-.03125h-.14843l-.11719.03125-.10546.04297-.08594.0625-.17969.11718-.08594.0586-.08984.0586-.10547.04687-.08594.05859-.10547.04297-.10156.04297-.10547.04687-.07422.07422-.05859.08985-.0586.08593-.04687.10547-.0586.08594-.07421.07422-.13281-.01172-.1172-.03125h-.11718l-.07422.07422-.08984.0586-.07422.07421-.08984.0586-.08594.05859-.10547.04687-.10156.04297-.13672.01563-.10156-.04297-.14844-.14844-.10547-.04688h-.08594l-.10547.04688-.10156.04297-.1211.03125-.11718-.03125-.07422-.07422v-.11719l.03125-.1211.07422-.0703.0586-.08985.07421-.07422.11719-.03125.10547-.04296h.29297l.13281-.01563.13672-.01563.10156-.04296.08985-.0586.10156-.04687.08984-.0586.13281-.01171.08985.05859.13281.01172.08984-.0586.08594-.05859.10547-.04297.08984-.0586.08594-.0625.08985-.05859.14843-.14843.0586-.08594.05859-.08985.10547-.04296.13281-.01563.11719.02735.1211.03125.05859-.0586.05859-.08984.03125-.26563.02734-.11719.10547.01172.13281.01563.10157-.04297.08984-.0586.0586-.08984.07421-.07422.0586-.08984.04687-.10156.01172-.13281-.01172-.13282-.04687-.10547-.14844-.14843-.0586-.08985-.05859-.08594-.04297-.10546v-.44532l.01563-.1328v-.14845l.01172-.1328-.0586-.0586-.08984.0586-.10156-.04298-.17969-.11719-.08594-.05859-.0625-.08984-.0586-.08985-.07421-.07421-.08594-.0586-.1211.03125-.10155.01172-.10547.04688-.08594.05859-.10547.04297-.14844.14844-.08984.05859-.08594.0586-.08984.0625-.10547.04296-.13281.01563v-.1211l.10547-.04297.11718-.03125.07422-.0703.04297-.10548v-.14844l-.02734-.11718-.14844-.14844-.13281-.01563h-.14844l-.11719.03125-.10547.04297-.10156.04297-.08984.0625-.11719.02735-.07422-.07422.01172-.13281-.04297-.10157-.04297-.10547-.08984-.05859-.11719.02734-.1211.03125-.11718.03125-.10156.04297-.1211.03125-.10156.04297-.10547.04297-.08984.0586-.10156.01562v-.11719l.01562-.13281-.0586-.08985-.07421.04297-.14844.14844-.0586.08985-.07421.07421-.04688.10547-.04296.10156-.07422.07422-.0586.08985-.07422.07422-.05859.08593-.07422.07422-.08984.0625-.07422.07031-.07422.07422-.10156.01563-.13281.01562-.10547-.04296v-.1211l.14843-.14844.04297-.10156.0586-.08984.04687-.10156.04297-.10547.0586-.08985.03124-.11719.04297-.10156.03125-.1211.02735-.11718.04687-.10547.04297-.10156.04297-.10547.07422-.07031.08984-.0625.08985-.0586.10156-.04296h.29687l.26563-.03125.10547-.04297-.07422-.07422-.11719-.03125-.10547-.04297-.08984-.0586-.10156-.04687-.08985-.0586-.10156-.04296-.10547-.04297-.08984-.0625-.08594-.0586-.10547-.04296-.10156-.04297-.1211-.03125-.11718-.03125-.10157-.04297L297.5 410.25l-.10156-.04297-.08985-.0586-.04296-.10546-.01563-.13281.10156-.04297.13281-.01563.13672.01563.13282-.01563.10156-.04297.0586-.08984.01562-.10547-.08985-.0586-.07421-.07421-.10157-.04297-.08984-.0586-.14844-.14843-.04297-.10547-.01562-.13281v-.29297l-.0586-.08985-.08984-.05859-.07422-.07422-.04297-.10547-.03125-.11718-.0586-.08985-.07421-.07422-.11719-.02734-.07422-.07422-.08984-.0586-.08984-.0625-.08594-.05859-.07422-.07421-.0586-.08594-.04687-.10547-.08594-.0586-.14843-.14843-.19532-.0586-.1328.01563-.10157.04297-.07422.07422-.04688.10156-.04296.10547-.0586.08984-.0586.08594-.29687.29687-.08984.0586h-.08594l-.0625-.08594-.04297-.10547.03125-.11719.0586-.08984.02734-.11719-.01172-.13281-.08984-.0625-.10547.04688-.11719.02734-.11719.03125-.26953.17578-.10156.04688-.11719.02734-.10546.04687-.08985.0586-.10156.04297-.0586-.08594-.04687-.10547.01563-.13281.04687-.10547.07031-.07422.07422-.07031.0586-.08985v-.14843l-.04297-.10547h-.23829l-.10156.04687-.03125.11719-.02734.11719-.03125.1211-.07422.04296-.13281.01563-.07422-.04688-.04297-.10156-.04297-.10547-.04687-.10156-.04297-.10547-.1211.03125-.10156.04297-.13281.01562-.11719.03125-.10547.04297-.08984.0586-.10156.04687-.1211.02734-.13281.01563-.10156-.04297-.0586-.08985-.04687-.10546-.04297-.10157-.04297-.10546v-.1172l.0586-.08984.08593-.05859.17969-.11719.10156-.04687.10547-.04297.10547-.0586.10156-.04296.08985-.0625.10156-.04297.10547-.0586.10156-.04687.08984-.0586.10547-.04296.10156-.04297.08985-.0625.10156-.04297.13672-.01563.11719.03125.10156.04297.1211.03125.10156.04297.10546.04688.10157.04296.10547.04297.10156.04688.10547.04297.10156.04297.10547.04687.08594.0586.10546.04296.1172.03125.10546.04297.10156.04688.08985.0586.10547.04296.10156.04297.10547.04687.11719.02735.10156.04687.1211.02735h.14843l.08594-.0586.01562-.10156.0586-.08984-.02735-.1172-.07422-.07421-.11719-.17969-.07421-.07422-.08985-.07421-.17969-.1172-.08593-.05859-.10547-.04296-.10156-.04688-.26954-.17578-.05859-.08985-.07422-.07421-.0586-.08985-.04296-.10156-.03125-.11719-.01563-.13672v-.5625l-.01171-.1328-.01563-.13282-.03125-.11719-.01562-.13281-.01172-.13281-.03125-.1211-.22266-.22265-.0586-.08594-.01562-.10547.03125-.11719.13281-.01562v-91.41406H172.9922v1.45312l-.0586.23438-.35156 1.05078-.17187.52343-.1172.34766-.17577.41016-.11719.17187-.23438.29297-.23046.0586h-.35157l-.11718.05859-.23047.40625v.29297l.11719.17578.23046.23047.1172.23437.64062.75781.29297.46485.17578.23437.23047.35156.23437.34766.64063.8164.17578.46485.17187.41016.11719.69531.17578.46875.11719 1.39844.0586.46484v.875l.11718 1.04688v4.78125l-.0586.46484-.35156 1.28125-.17578.52344-.11328.41015-.35156.9297L172.93359 336l-.23437.58203-.11719.17578-.17187.34766-.17578.40625-.35157.8164-.0586.29297-.11327.29297-.11719.28906-.0586.17579-.11718.875-.0586.40625-.05859.11718-.0586.17579-.05859.17187-.23047.52734-.11718.17188v.23437l-.11719.23438-.0586.17187-.17577.58594v.28906l-.0586.17579v.29296l-.0586.11329-.05859.52734v.17187l-.05468.23438v2.6211l-.17578.8164-.1172.17578-.17577.23438-.1172.17187-.11327.23438-.58594.93359-.23047.28906-.29297.46485-.17578.23437-.28906.35156-.35156.69922-.11328.23047-.17579.41016-.17578.23046-.40625.52735-.8164.69922-.29297.17187-.28906.23438-.17579.11719-.17578.17578-.52344.40625-.52734.17578-.17187.17578-.23438.05469-.64062.17578h-.75782m12.21094 31.02344l-1.07422.44921.35938.89454 1.25-.71485.44531-.53906-.98047-.08985"/><path fill="#d3d3d3" fill-opacity="0" fill-rule="evenodd" d="M201.50781 416.59766h-.89453l.44922.6289.98047.35938.80469-.08985.4453-.98828-.17577.08985-.71485-.35547-.89453.35547m154.6211 59.0703l-.0586-.52343v-.29297l.11328-.29297.0586-.23046.46875-.46875h.11328l.11719-.11329.11718-.05859h.17579l.23437-.0586h.34766l.23437.0586.11719.0586.23047.17187.0586.17578.11718.58203v.29297l-.11719.17578-.17187.28906-.17579.17579-.52734.52343-.23047.23438-.11719.0586h-.17578l-.11718-.0586-.40625-.29297-.17579-.11719-.11718-.0586-.0586-.11327-.05468-.1172m6.64062-10.95702l-.0586-.17188v-1.10937l.0586-.17188.17578-.0586.17188-.05858h.17578l.23437-.0586.1172.0586.05858.69921-.05859.17188-.11719.17578-.11718.0586-.23438.52343-.11328.0586h-.23438l-.05859-.1172m9.61328-14.39062l-.11719-.17578v-.69922l.29297-.875.1172-.17187.17577-.35156.11328-.23047.1172-.29297.35155-.75781.1172-.23047.17187-.23438h.17578l.11719-.0586h.64062l.11719.0586.23437.23438.17188.11328.35156.29297.11719.11718.11328.17579v.11328l.11719.05859.11718.11719v.69922l-.05859.17578v.23047l-.0586.17578-.34765 1.05078-.11719.23047-.11719.23437-.11718.0586-.23047.23437-.64063.28906h-.875l-.41015-.11718-.64063-.46485"/><path fill="none" stroke="#bebebe" stroke-linecap="round" stroke-linejoin="round" stroke-miterlimit="10" stroke-width=".5" d="M467.95703 311.69531H144.02734v168.625h323.9297v-168.625"/><g clip-path="url(#a)"><path fill="#fff" fill-opacity="0" fill-rule="evenodd" d="M144 475.89063v4.4375h.0039H144v-38.9961 34.5586"/></g><g clip-path="url(#b)"><path fill="#fff" fill-opacity="0" fill-rule="evenodd" d="M144 431.50781v1.48047-121.3164h.0039H144V431.5078"/></g><path fill="#50fcfc" fill-rule="evenodd" d="M144 432.98828v8.34375l.0039-.0039v-8.33594l-.0039-.0039"/><g clip-path="url(#c)"><path fill="#fff" fill-opacity="0" fill-rule="evenodd" d="M144.0039 480.32813v-39l1.85157-.94532.33594-4.4375-2.1875-2.95312V311.67188h75.44922v7.01171l-1.0547 1.86329-3.3828 2.99609-4.44141-2.20703-1.78906 3.64844-.85938 4.4414 2.64844 2.125 3.21484-2.125 1.22656-2.48828 1.53907-1.95313 2.89844-3.30468.36718-1.13281-.36719-1.86329v-7.01171h13.3125v93.83593l-4.4375.46094-2.77734 3.34766-1.66016 2.43359-1.99218 2.0039-.78906 4.4375 2.78125 2.76563.49609 1.67188 1.84766 4.4414-2.34375.79297-3.625 3.64453-.8125 2.22266-4.4375.48828-1.60938 1.72656-2.83203 2.82031-1.78906 1.6172 1.78906 3.58593.2539.85156 4.1875 3.23438 1.88672 1.20703-.16015 4.4375 2.71094 2.82812 4.4375.33204v2.72265l-4.4375.76953-.60157 2.22266.60156.51953 4.4375.49219.9961-1.01172-.9961-2.99219v-2.72265l1.41797-3.16016 3.01953-2.32422 1.58985-2.11328 1.6836-4.4414-1.63673-4.4375-1.63672-1.89844-4.4375-.73829-2.40234-1.80078 2.40234-.92578 3.64454-3.51172.79297-2.33984 4.4375 1.53125 1.21875.8086 3.22265 3.15624 4.3086 1.28125.1289.13672.1836-.13672 3.21484-4.4375-3.39844-4.1875-.15625-.25.15625-.11328 4.30078-4.32812.13672-1.20704 3.83203-3.23046-3.83203-3.09375-4.4375-1.22657-.40234-.11718-.58594-4.4375-3.44922-2.8672-4.4414-.9414v-93.83594h48.82421v135.72657l-4.4375.21094-2.39453 1.65234-2.04687 2.19531-1.5 2.24219-.36719 4.4375 1.86719 1.91406 4.4414 1.20703 4.4375-1.52344 1.6211-1.59765 2.8164-2.53906 1.875-1.89844-1.875-3.09766-1.40625-1.33984-3.03125-1.86328V311.67188h35.50782v135.16796l-2.33985 2.42188-2.10156.88672-4.4375 2.13672-1.33594 1.41406-1.19922 4.4375 2.53516 3.01172 3.60156 1.42578.83594.53125.5625-.53125 2.76953-4.4375 1.10938-1.47266 3.625-2.96484-1.32032-4.4375-2.30468-2.42188V311.67188h13.3125V446.4453l-4.37891 2.8164-.0586.10157-3.53124 4.33594 3.53125 3.98047 2.47656.45703 1.96094.4336.34375-.4336 2.33593-4.4375.09375-4.4375-2.77343-2.8164V311.67187h44.3828V459.5078l-4.4375.77344-2.26171 2.29297 1.94531 4.4414.3164.35157 1.4375 4.08594 3 2.16015 4.44142.57813 2.74218-2.73829 1.02735-4.4375-3.76954-4.2578-.32421-.1836-4.1172-3.0664V311.67187h35.50782v103.67578l-4.4375 1.19921-4.4375.95313-3 .6914-1.4414.13282-3.46875 4.30469.01562 4.4414 3.45313 3.49219 4.4414.92969 4.4375-.46875 4.4375.47656 4.4375-.94922 4.4414-.20703 4.4375-.71094 3.26173-2.5625-.41016-4.4414-2.85156-2.50391-3.03906-1.9336-1.39844-1.21093-4.4414-1.38672-4.4375-.2461V311.67189h22.1914v105.52734l-.38281.99219.3828.20703.2422-.20703-.2422-.9922V311.67189h22.19141v109.36718l-.98437 1.58985-3.45313 3.26171-1.15625 1.1797-3.28125 2.72656-1.875 1.71093-2.5625 3.11328-1.72265 1.32422 1.72265 1.28125 4.4375-1.26562.01172-.01563 4.42578-1.15625 4.14844-3.28125.28906-.73828 3.32422-3.69922-1.71484-4.4414-1.60938-1.58985V311.67187h13.3125v168.65625h-34.46093l1.86718-4.4375-2.91015-3.48437-2.89063-.95313 2.89063-2.01171 1.82422-2.42579 2.61328-1.17968 4.4414-1.91797 4.4375-.20703 3.16407 3.30469 1.27343 1.85156 1.16797 2.58594 3.26953 2.875 4.44141.39843 3.97266-3.27344.46484-.26562 3.21094-4.17188.71875-4.4414-1.01563-4.4375-2.91406-2.96485-1.23047-1.47265-3.20703-4.01953-4.4414.0625-.23438-.48047-.91016-4.4414-3.29297-3.23438-4.4375 3.17578-4.4375-1.4375-4.4414-.59766-1.65235-2.34375-2.78515-4.08203-4.4375.57813-3.08594 3.5039-1.35156 1.23828-4.4375 1.54297-1.6914 1.65625 1.6914 1.57813 1.58984 2.86328 2.84766 3.26953 1.14453 1.16797 1.36719 4.4375 1.08203 4.4375.84375 1.1914 2.45312 3.25-2.45312 3.26563-4.4375-1.82422-4.4375-.58594-4.4414.59375-3.3125 2.98829 3.3125 3.79296.3164.64454 4.125 3.60546 4.4375.32032 4.4375-.29297 3.03515.80469H144.00391"/></g><path fill="#50fcfc" fill-rule="evenodd" d="M145.85547 440.38281l-1.85156.94531v-8.33593l2.1875 2.95312-.33594 4.4375m64.71875-108.83203l-2.64844-2.125.85938-4.4414 1.78906-3.64844 4.4414 2.20703 3.38282-2.9961 1.05469-1.86328.36718 1.86329-.36719 1.1328-2.89843 3.3047-1.53906 1.95312-1.22657 2.48828-3.21484 2.125m0 112.41797l-1.78906-3.58594 1.78906-1.61719 2.83203-2.8203 1.60938-1.72657v3.32422l-2.84766 2.83984 1.53125 4.4375 1.3164 1.01953 4.4375 1.94532 2.46485-2.96485.63672-4.4375-3.10156-2.36719-4.4375-.47265v-3.32422l4.4375-.48828.8125-2.22266 3.625-3.64453v1.98828l-1.64844 1.65625 1.64844 1.59375 1.65625-1.59375-1.65625-1.65625v-1.98828l2.34375-.79297-1.84766-4.4414-.4961-1.67188-2.78125-2.76562.78907-4.4375 1.99219-2.00391 1.66015-2.4336 2.77734-3.34765 4.4375-.46094v1.48438L228.32813 409l-.2578.3164-3.58985 4.4375-.58984 3.94923-.14844.48828.14844.14843 1.27343 4.28907 3.16406 3.83593 1.21875.60547 3.21875 2.28516 3.25 2.15234 1.19141 1.16406 4.4375.94922 1.60156-2.11328-1.60156-1.97656-1.53906-2.46094 1.53906-1.08984 3.32813-3.35156.49218-4.4375-3.8203-3.4375-3.41798-1-1.01953-2.70704-.53906-1.73046-3.90234-2.32422v-1.48438l4.4414.9414 3.44922 2.8672.58594 4.4375.40234.11718 4.4375 1.22657 3.83203 3.09375-3.83203 3.23046-.13672 1.20704-4.30078 4.32812-.15625.11328.15625.25 3.39844 4.1875-3.21484 4.4375-.1836.13672-.1289-.13672-4.3086-1.28125-3.22266-3.15625-1.21875-.8086-4.4375-1.53124-.79296 2.33984-3.64453 3.51172-2.40235.92578 2.40234 1.80078 4.4375.73829 1.63672 1.89843 1.63672 4.4375-1.6836 4.4414-1.58983 2.11329-3.01954 2.32422-1.41797 3.16015-4.4375-.33203-2.71093-2.82812.16015-4.4375-1.88672-1.20703-4.1875-3.23438-.2539-.85156"/><path fill="#00e8fc" fill-rule="evenodd" d="M213.69922 444.82031l-1.53125-4.4375 2.84766-2.83984 4.4375.47265 3.10156 2.3672-.63672 4.4375-2.46484 2.96484-4.4375-1.94532-1.31641-1.01953"/><path fill="#50fcfc" fill-rule="evenodd" d="M219.45313 463.09375l-.60157-.51953.60156-2.22266 4.4375-.76953.9961 2.99219-.9961 1.01172-4.4375-.49219"/><path fill="#00e8fc" fill-rule="evenodd" d="M223.89063 433.10156l-1.64844-1.59375 1.64844-1.65625 1.65625 1.65625-1.65625 1.59375m0-14.76172l-.14844-.14843.14844-.48829.58984-3.94921 3.58984-4.4375.25781-.31641v2.71875l-1.70312 2.03516-.66406 4.4375.4961 4.4375 1.87108 2.26562 4.375 2.17578.0625.04297 4.44141 1.22656.59766-1.26953 3.83984-2.72265 1.70703-1.71875.47266-4.4375-2.17969-1.96094-4.4375-1.4375-4.21094-1.03906-.23047-1.88672-4.4375-.14844V409l4.4375-2.00781 3.90235 2.32422.53906 1.73046 1.01953 2.70704 3.41797 1 3.82031 3.4375-.49218 4.4375-3.32813 3.35156-1.53906 1.08984 1.53906 2.46094 1.60156 1.97656-1.60156 2.11328-4.4375-.94921-1.1914-1.16407-3.25-2.15234-3.21875-2.28516-1.21875-.60547-3.16407-3.83593-1.27344-4.28907"/><path fill="#00d4fc" fill-rule="evenodd" d="M226.45703 422.6289l-.4961-4.4375.66407-4.4375 1.70313-2.03515 4.4375.14844.23046 1.88672 4.21094 1.03906v1.30469l-4.4414.96484-4.4375-.3711-.22657 1.5-.34765 4.4375.57422.69923 4.4375 2.05859 4.4414.73047 4.4375-3.40235.08594-.08593.45703-4.4375-.54297-.48829-4.4375-1.60546v-1.3047l4.4375 1.4375 2.17969 1.96095-.47266 4.4375-1.70703 1.71875-3.83984 2.72265-.59766 1.26953-4.4414-1.22656-.0625-.04297-4.375-2.17578-1.8711-2.26562"/><path fill="#00c4fc" fill-rule="evenodd" d="M228.32813 423.32813l-.57422-.69922.34765-4.4375.22656-1.5 4.4375.37109 4.44141-.96484v1.30468l-2.10156.78907-2.33984 2.33203-2.32032 2.10547 2.32031 1.04296 4.44141 1.16016 2.85547-2.20312-.75-4.4375-2.10547-.78907v-1.30468l4.4375 1.60546.54297.48829-.45703 4.4375-.08594.08593-4.4375 3.40235-4.4414-.73047-4.4375-2.0586"/><path fill="#00b8fc" fill-rule="evenodd" d="M232.76563 423.67188l-2.32032-1.04297 2.32031-2.10547 2.33985-2.33203 2.10156-.78907v2.37891l-2.85937 2.84766 2.85937.91406 1.1836-.91406-1.1836-2.84766v-2.3789l2.10547.78906.75 4.4375-2.85547 2.20312-4.4414-1.16015"/><path fill="#00a8fc" fill-rule="evenodd" d="M237.20703 423.54297l-2.85937-.91406 2.85937-2.84766 1.1836 2.84766-1.1836.91406"/><path fill="#50fcfc" fill-rule="evenodd" d="M272.71094 460.05078l-1.86719-1.91406.36719-4.4375 1.5-2.24219 2.04687-2.19531 2.39453-1.65235v3.67579l-2.33984 2.41406.28906 4.4375 2.05078.9961 1.875-.9961 1.78516-4.4375-3.66016-2.41406v-3.67579l4.4375-.21093 3.03125 1.86328 1.40625 1.33984 1.875 3.09766-1.875 1.89844-2.8164 2.53906-1.6211 1.59765-4.4375 1.52344-4.4414-1.20703"/><path fill="#00e8fc" fill-rule="evenodd" d="M275.10156 458.13672l-.28906-4.4375 2.33984-2.41406 3.66016 2.41406-1.78516 4.4375-1.875.9961-2.05078-.9961"/><path fill="#50fcfc" fill-rule="evenodd" d="M308.21875 461.14844l-2.53516-3.01172 1.19922-4.4375 1.33594-1.41406 4.4375-2.13672v2.98828l-.91016.5625.66407 4.4375.24609.05078.03516-.05078 1.59375-4.4375-1.62891-.5625v-2.98828l2.10156-.88672 2.33985-2.42188 2.30468 2.42188 1.32032 4.4375-3.625 2.96484-1.10938 1.47266-2.76953 4.4375-.5625.53125-.83594-.53125-3.60156-1.42578"/><path fill="#00e8fc" fill-rule="evenodd" d="M312.41016 458.13672l-.66407-4.4375.91016-.5625 1.6289.5625-1.59374 4.4375-.03516.05078-.2461-.05078"/><path fill="#50fcfc" fill-rule="evenodd" d="M325.97266 457.67969l-3.53125-3.98047 3.53125-4.33594.05859-.10156 4.3789-2.8164v2.74218l-.11327.07422.11328.7539.07421-.7539-.07421-.07422v-2.74219l2.77343 2.8164-.09375 4.4375-2.33593 4.4375-.34375.4336-1.96094-.4336-2.47656-.45702"/><path fill="#00e8fc" fill-rule="evenodd" d="M330.41016 450.01563l-.11329-.75391.11329-.07422.07421.07422-.07421.7539"/><path fill="#50fcfc" fill-rule="evenodd" d="M370.03906 467.01563l-1.94531-4.44141 2.26172-2.29297 4.4375-.77344v2.57422l-1.625.49219-1.51953 4.4414 3.14453 3.83985 3.6914.59765.75.1875.1875-.1875 1.84375-4.4375-2.03125-2.29296-3.77734-2.14844-.66406-.49219v-2.57422l4.11719 3.0664.32421.1836 3.76954 4.25781-1.02735 4.4375-2.74219 2.73829-4.4414-.57813-3-2.16015-1.4375-4.08594-.3164-.35156"/><path fill="#00e8fc" fill-rule="evenodd" d="M374.79297 470.85547l-3.14453-3.83985 1.51953-4.4414 1.625-.49219v3.4961l-.9336 1.4375.9336 1.14062 2.60156-1.14063-2.60156-1.4375v-3.49609l.66406.49219 3.77735 2.14844 2.03125 2.29296-1.84375 4.4375-.1875.1875-.75-.1875-3.69141-.59765"/><path fill="#00d4fc" fill-rule="evenodd" d="M374.79297 468.15625l-.9336-1.14063.9336-1.4375 2.60156 1.4375-2.60156 1.14063"/><path fill="#50fcfc" fill-rule="evenodd" d="M393.53125 427.07031l-.01563-4.4414 3.46875-4.3047 1.44141-.1328 3-.69141 4.4375-.95313 4.4375-1.19921 4.4375.24609v2.71484l-4.4375.15625-3.22656 4.16407-1.21094 1.99218-.91406-1.99218-3.52344-3.00782-4.4414.94532-1.66016 2.0625-.16016 4.4414 1.82031 1.83985 4.44141 1.17578 4.4375-1.55078 4.4375.73437 4.4375-.32031 4.4414-.4336 3.81641-1.4453-.32812-4.44141-3.48828-2.64844-4.4414-1.67188v-2.71484l4.4414 1.38672 1.39844 1.21094 3.03906 1.93359 2.85156 2.5039.41016 4.44141-3.26172 2.5625-4.4375.71094-4.4414.20703-4.4375.94922-4.4375-.47656-4.4375.46875-4.44142-.92969-3.45312-3.49219"/><path fill="#00e8fc" fill-rule="evenodd" d="M396.98438 428.91016l-1.82032-1.83985.16016-4.4414 1.66015-2.0625 4.44141-.94532v2.71485l-.8711.29297-1.1953 4.4414 2.0664.67188 1.36719-.67188-1.02344-4.4414-.34375-.29297v-2.71485l3.52344 3.00782.91406 1.99218 1.21094-1.99218 3.22656-4.16407 4.4375-.15625v2.76954l-3.14062 1.55078 3.14062 2.90625 2.78906-2.90625-2.78906-1.55079v-2.76953l4.4414 1.67188 3.48829 2.64844.32812 4.4414-3.8164 1.44531-4.4414.4336-4.4375.32031-4.4375-.73437-4.4375 1.55078-4.44142-1.17578"/><path fill="#00d4fc" fill-rule="evenodd" d="M401.42578 427.74219l-2.0664-.67188 1.1953-4.4414.8711-.29297.34375.29297 1.02344 4.4414-1.36719.67188"/><g clip-path="url(#d)"><path fill="#50fcfc" fill-rule="evenodd" d="M414.73828 475.2461l-3.3125-3.79298 3.3125-2.98828v2.39454l-.65625.59375.65625.7539 1.8086 3.6836 2.6328 2.30078 4.4375.85937 4.4375-1.34375 4.13673-1.8164-4.13672-2.37891-4.4375-1.30469-4.36328-.7539-.07422-.0547-4.4414-.53906v-2.39453l4.4414-.59375 4.4375.58594 4.4375 1.82422 2.45312-3.26563-2.45312-3.25-.84375-1.1914-1.08203-4.4375-1.3672-4.4375-1.14452-1.16797-2.84766-3.26953-1.58984-2.86328-1.6914-1.57813 1.6914-1.65625 4.4375-1.54297 1.35156-1.23828 3.08594-3.5039v2.53515l-.85547.96875-3.58203 3.27735-2.09375 1.16015 1.66406 4.4414.42969.4922 3.86328 3.9453.57422 1.21876 2.66797 3.21875 1.76953 4.34765.15234.08985 4.28516.59375 1.05078-.59375 3.39062-.55469 4.4375-.15234 4.4375.49219.3711.21484 2.71094 4.4414 1.35546 3.75782 4.44141.41797 4.4375-2.39454 1.3711-1.78125 1.57421-4.4414-2.33984-4.4375-.60547-.61328-3.1875-3.82422-1.25-1.5664-4.4414-.8086-1.01173-2.0625-2.17968-4.4414-1.2461-1.22266-1.68359 1.22265-2.7539 2.21485-4.4375.78906-4.44141-.5-4.4375.28515-2.60938-2.78906 1.59375-4.4375-3.42187-.96875v-2.53515l4.4375-.57813v8.36719l-.07813.15234.07813.08985.28125-.08985-.28125-.15234v-8.36719l2.78515 4.08203 1.65235 2.34375 4.4414.59766 4.4375 1.4375 4.4375-3.17578 3.29297 3.23437.91016 4.4414.23437.48048 4.44141-.0625 3.20703 4.01953 1.23047 1.47265 2.91406 2.96485 1.01563 4.4375-.71875 4.4414-3.21094 4.17188-.46484.26563-3.97266 3.27343-4.4414-.39844-3.26954-2.875-1.16797-2.58593-1.27343-1.85156-3.16407-3.3047-4.4375.20704-4.4414 1.91797-2.61328 1.17969-1.82422 2.42578-2.89063 2.01171 2.89063.95313 2.91015 3.48438-1.86718 4.4375h-2.44532l-3.03515-.8047-4.4375.29298-4.4375-.32032-4.125-3.60546-.3164-.64454"/></g><path fill="#00d4fc" fill-rule="evenodd" d="M414.73828 425.53516l-3.14062-2.90625 3.14062-1.55079 2.78906 1.55079-2.78906 2.90625"/><path fill="#00e8fc" fill-rule="evenodd" d="M414.73828 472.20703l-.65625-.7539.65625-.59375 4.4414.53906.07423.05469 4.36328.7539v1.49219l-4.4375 1.9414-.14844.25.14844.12891 4.4375 1.7539 3.48828-1.8828-3.48828-2.19141v-1.49219l4.4375 1.30469 4.13672 2.3789-4.13672 1.81641-4.4375 1.34375-4.4375-.85937-2.63281-2.30079-1.8086-3.68359"/><path fill="#00d4fc" fill-rule="evenodd" d="M419.17969 476.01953l-.14844-.1289.14844-.25 4.4375-1.94141v1.48828l-1.48438.70313 1.48438.60156 1.11719-.60156-1.1172-.70313v-1.48828l3.48829 2.1914-3.48828 1.88282-4.4375-1.7539"/><path fill="#00e8fc" fill-rule="evenodd" d="M423.1875 449.26172l-1.66406-4.4414 2.09375-1.16016 3.58203-3.27735.85547-.96875 3.42187.96875-1.59375 4.4375 2.60938 2.78906 4.4375-.28515 4.4414.5 4.4375-.78906 2.75391-2.21485 1.6836-1.22265v2.45703l-3.57032 3.20703-.86719.45312-4.4375.65625-4.4414.03516-4.4375.8164-3.72656-1.96093-.71094-.77735-.52735.77735.52735.53515 2.3164 3.90235 2.1211 2.2461 1.79297 2.1914 2.64453 2.53125 4.4414.0586 4.4375-.34376 4.4375.19922 3.44532 1.99219.99218 1.27734 4.44141.02735 4.4375 1.3125 1.30078-2.6172-1.30078-2.15233-4.4375-.94532-.36719-1.33984-4.07422-4.04297-.26171-.39453-2.03907-4.4375-2.13672-3.20703v-2.45703l1.2461 1.22265 2.17969 4.4414 1.01171 2.0625 4.44141.8086 1.25 1.5664 3.1875 3.82423.60547.61328 2.33984 4.4375-1.57422 4.4414-1.37109 1.78125-4.4375 2.39454-4.4414-.41797-1.35548-3.75781-2.71093-4.44141-.3711-.21485-4.4375-.49218-4.4375.15234-3.39062.55469-1.05078.59375-4.28516-.59375-.15234-.08985-1.76953-4.34765-2.66797-3.21875-.57422-1.21875-3.86328-3.94531-.42969-.4922"/><path fill="#00c4fc" fill-rule="evenodd" d="M423.61719 476.49219l-1.48438-.60156 1.48438-.70313 1.11719.70313-1.1172.60156"/><path fill="#00d4fc" fill-rule="evenodd" d="M428.05469 449.79688l-.52735-.53516.52735-.77735.71094.77735 3.72656 1.96094 4.4375-.81641 4.4414-.03516 4.4375-.65625.8672-.45312 3.5703-3.20703v1.9375l-1.41406 1.26953-3.02344 1.58594-4.4375.91406-4.4414.16406-3.78516 1.77344 3.44531 4.4375.33985.32812 4.4414.96875 4.4375-.53515 4.4375-.08985 4.4375-.62109.03516-.05078-.03516-.03125-2.9414-4.40625-.65235-4.4375-.84375-1.26953v-1.9375l2.13672 3.20703 2.03906 4.4375.26172.39453 4.07422 4.04297.36719 1.33984 4.4375.94531 1.30078 2.15235-1.30078 2.61719-4.4375-1.3125-4.4414-.02735-.9922-1.27734-3.4453-1.99219-4.4375-.19922-4.4375.34375-4.44141-.0586-2.64453-2.53124-1.79297-2.1914-2.1211-2.2461-2.3164-3.90235"/><path fill="#50fcfc" fill-rule="evenodd" d="M432.49219 418.39844l-.38281-.20703.3828-.9922.2422.9922-.2422.20703"/><path fill="#fff" fill-opacity="0" fill-rule="evenodd" d="M432.49219 444.66797l-.07813.15234.07813.08985.28125-.08985-.28125-.15234"/><path fill="#00c4fc" fill-rule="evenodd" d="M436.58984 458.13672l-3.4453-4.4375 3.78515-1.77344 4.4414-.16406 4.4375-.91406v1.13671l-4.4375 1.17188-4.4414.28906-.53516.2539.53516.72267 4.42578 3.71484.01562.0039.02344-.0039 4.41406-1.08203 3.4375-3.35547-3.4375-1.71485v-1.13671l3.02344-1.58594 1.41406-1.26953.84375 1.26953.65235 4.4375 2.9414 4.40625.03516.03125-.03516.05078-4.4375.6211-4.4375.08984-4.4375.53515-4.4414-.96875-.33985-.32812"/><path fill="#00b8fc" fill-rule="evenodd" d="M436.92969 454.42188l-.53516-.72266.53516-.2539 4.4414-.28907 4.4375-1.17188v1.13282l-2.02734.58203 2.02734 1.13672 1.16407-1.13672-1.16407-.58203v-1.13281l3.4375 1.71484-3.4375 3.35547-4.41406 1.08203-.02344.0039-.01562-.0039-4.42578-3.71485"/><path fill="#50fcfc" fill-rule="evenodd" d="M441.3711 437.22656l-1.72266-1.28125 1.72265-1.32422 2.5625-3.11328 1.875-1.71094 3.28125-2.72656 1.15625-1.17969v3.63282l-2.26953 1.98437 2.26953 1.25781 1.58985-1.2578-1.58985-1.98438v-3.63281l3.45313-3.26172.98437-1.58985 1.60938 1.58985 1.71484 4.4414-3.32422 3.69922-.28906.73828-4.14844 3.28125-4.42578 1.15625-.01172.01563-4.4375 1.26562"/><path fill="#00a8fc" fill-rule="evenodd" d="M445.8086 454.83594l-2.02735-1.13672 2.02734-.58203 1.16407.58203-1.16407 1.13672"/><path fill="#00e8fc" fill-rule="evenodd" d="M450.2461 432.76563l-2.26954-1.25782 2.26953-1.98437 1.58985 1.98437-1.58985 1.25781"/><g clip-path="url(#e)"><path fill="#fff" fill-opacity="0" fill-rule="evenodd" d="M467.9961 480.32813H468V311.67188h-.0039H468v168.65625h-.0039"/></g><path fill="#fff" fill-opacity="0" fill-rule="evenodd" d="M445.29688 471.71094l3.47265 4.69531 8.00781-5.92188-3.47265-4.6953-8.00781 5.92187"/><path fill-rule="evenodd" d="M453.91016 469.6914l.30468.41016-5.0625 3.74219-.46875-.63281 3.60938-2.66797-.82422-1.11719.44531-.33203.38672.41406.1914.16797.21094.13281.23438.07813.27344.01562.32031-.0625.3789-.14843"/><path fill="#fff" fill-opacity="0" fill-rule="evenodd" d="M231.67578 437.29688l5.03516 2.96093 5.05078-8.58203-5.03125-2.96484-5.05469 8.58594"/><path fill-rule="evenodd" d="M238.8164 432.0664l.4375.25782-3.1953 5.42578-.67579-.39844 2.27735-3.8711-1.19532-.70312.28125-.48046.51563.23046.24219.08204.24609.03906.2461-.01953.2578-.09375.26954-.1797.29297-.28905"/><g clip-path="url(#f)"><path fill="none" stroke="#000" stroke-linecap="round" stroke-linejoin="round" stroke-miterlimit="10" stroke-width=".5" d="M146.46484 482.83203l-4.92968-5.00781"/></g><g clip-path="url(#g)"><path fill="none" stroke="#000" stroke-linecap="round" stroke-linejoin="round" stroke-miterlimit="10" stroke-width=".5" d="M160.7539 479.61328l-6.8789 1.42969"/></g><g clip-path="url(#h)"><path fill="none" stroke="#000" stroke-linecap="round" stroke-linejoin="round" stroke-miterlimit="10" stroke-width=".5" d="M171.30078 476.8789l-1.34375 6.89844"/></g><g clip-path="url(#i)"><path fill="none" stroke="#000" stroke-linecap="round" stroke-linejoin="round" stroke-miterlimit="10" stroke-width=".5" d="M182.27344 477.23828l3.34375 6.17969"/></g><path fill="none" stroke="#000" stroke-linecap="round" stroke-linejoin="round" stroke-miterlimit="10" stroke-width=".5" d="M182.75781 478.13672l.67969-1.01953"/><g clip-path="url(#j)"><path fill="none" stroke="#000" stroke-linecap="round" stroke-linejoin="round" stroke-miterlimit="10" stroke-width=".5" d="M195.45703 477.3125l3.60547 6.03125"/></g><path fill="none" stroke="#000" stroke-linecap="round" stroke-linejoin="round" stroke-miterlimit="10" stroke-width=".5" d="M195.45703 477.3125l1.26563-2.10156"/><g clip-path="url(#k)"><path fill="none" stroke="#000" stroke-linecap="round" stroke-linejoin="round" stroke-miterlimit="10" stroke-width=".5" d="M208.6289 477.40234l3.89063 5.85157"/></g><path fill="none" stroke="#000" stroke-linecap="round" stroke-linejoin="round" stroke-miterlimit="10" stroke-width=".5" d="M208.6289 477.40234l1.16798-2.16015"/><g clip-path="url(#l)"><path fill="none" stroke="#000" stroke-linecap="round" stroke-linejoin="round" stroke-miterlimit="10" stroke-width=".5" d="M221.82031 477.48828l4.13672 5.67969"/></g><path fill="none" stroke="#000" stroke-linecap="round" stroke-linejoin="round" stroke-miterlimit="10" stroke-width=".5" d="M221.82031 477.48828l1.07422-2.20703"/><g clip-path="url(#m)"><path fill="none" stroke="#000" stroke-linecap="round" stroke-linejoin="round" stroke-miterlimit="10" stroke-width=".5" d="M234.9961 477.59766l4.41796 5.46093"/></g><path fill="none" stroke="#000" stroke-linecap="round" stroke-linejoin="round" stroke-miterlimit="10" stroke-width=".5" d="M234.9961 477.59766l.96093-2.25782"/><g clip-path="url(#n)"><path fill="none" stroke="#000" stroke-linecap="round" stroke-linejoin="round" stroke-miterlimit="10" stroke-width=".5" d="M248.32422 477.58594l4.39062 5.48828"/></g><path fill="none" stroke="#000" stroke-linecap="round" stroke-linejoin="round" stroke-miterlimit="10" stroke-width=".5" d="M248.96484 478.38281l.48438-1.125"/><g clip-path="url(#o)"><path fill="none" stroke="#000" stroke-linecap="round" stroke-linejoin="round" stroke-miterlimit="10" stroke-width=".5" d="M261.95703 477.35938l3.75781 5.9375"/></g><path fill="none" stroke="#000" stroke-linecap="round" stroke-linejoin="round" stroke-miterlimit="10" stroke-width=".5" d="M262.5039 478.22266l.60548-1.06641"/><g clip-path="url(#p)"><path fill="none" stroke="#000" stroke-linecap="round" stroke-linejoin="round" stroke-miterlimit="10" stroke-width=".5" d="M277.05469 476.8164l.1914 7.02344"/></g><path fill="none" stroke="#000" stroke-linecap="round" stroke-linejoin="round" stroke-miterlimit="10" stroke-width=".5" d="M277.08203 477.83984l1.07031-.60547"/><g clip-path="url(#q)"><path fill="none" stroke="#000" stroke-linecap="round" stroke-linejoin="round" stroke-miterlimit="10" stroke-width=".5" d="M293.72266 479.01172l-6.51563 2.63281"/></g><g clip-path="url(#r)"><path fill="none" stroke="#000" stroke-linecap="round" stroke-linejoin="round" stroke-miterlimit="10" stroke-width=".5" d="M306.59766 478.23047l-5.63282 4.19922"/></g><g clip-path="url(#s)"><path fill="none" stroke="#000" stroke-linecap="round" stroke-linejoin="round" stroke-miterlimit="10" stroke-width=".5" d="M318.5625 477.13672l-2.9336 6.38672"/></g><path fill="none" stroke="#000" stroke-linecap="round" stroke-linejoin="round" stroke-miterlimit="10" stroke-width=".5" d="M318.13672 478.0664l1.22265-.07421"/><g clip-path="url(#t)"><path fill="none" stroke="#000" stroke-linecap="round" stroke-linejoin="round" stroke-miterlimit="10" stroke-width=".5" d="M327.02734 479.3789l6.76563 1.89844"/></g><path fill="none" stroke="#000" stroke-linecap="round" stroke-linejoin="round" stroke-miterlimit="10" stroke-width=".5" d="M328.01172 479.65625l-.26172-1.19922"/><g clip-path="url(#u)"><path fill="none" stroke="#000" stroke-linecap="round" stroke-linejoin="round" stroke-miterlimit="10" stroke-width=".5" d="M340.61328 478.69922l6.22656 3.25781"/></g><g clip-path="url(#v)"><path fill="none" stroke="#000" stroke-linecap="round" stroke-linejoin="round" stroke-miterlimit="10" stroke-width=".5" d="M353.64453 479.42969l6.79297 1.79687"/></g><path fill="none" stroke="#000" stroke-linecap="round" stroke-linejoin="round" stroke-miterlimit="10" stroke-width=".5" d="M354.63281 479.6914l-.28125-1.1953"/><g clip-path="url(#w)"><path fill="none" stroke="#000" stroke-linecap="round" stroke-linejoin="round" stroke-miterlimit="10" stroke-width=".5" d="M367.98047 482.91797l4.7539-5.17578"/></g><g clip-path="url(#x)"><path fill="none" stroke="#000" stroke-linecap="round" stroke-linejoin="round" stroke-miterlimit="10" stroke-width=".5" d="M381.64063 483.19531l4.0625-5.73437"/></g><g clip-path="url(#y)"><path fill="none" stroke="#000" stroke-linecap="round" stroke-linejoin="round" stroke-miterlimit="10" stroke-width=".5" d="M395.1914 483.35156l3.58985-6.04297"/></g><g clip-path="url(#z)"><path fill="none" stroke="#000" stroke-linecap="round" stroke-linejoin="round" stroke-miterlimit="10" stroke-width=".5" d="M409.35938 483.71484l1.8828-6.76953"/></g><g clip-path="url(#A)"><path fill="none" stroke="#000" stroke-linecap="round" stroke-linejoin="round" stroke-miterlimit="10" stroke-width=".5" d="M422.76563 483.73828l1.69921-6.82031"/></g><g clip-path="url(#B)"><path fill="none" stroke="#000" stroke-linecap="round" stroke-linejoin="round" stroke-miterlimit="10" stroke-width=".5" d="M435.10938 483.33203l3.64453-6.00781"/></g><g clip-path="url(#C)"><path fill="none" stroke="#000" stroke-linecap="round" stroke-linejoin="round" stroke-miterlimit="10" stroke-width=".5" d="M448.16797 483.16016l4.15625-5.66407"/></g><g clip-path="url(#D)"><path fill="none" stroke="#000" stroke-linecap="round" stroke-linejoin="round" stroke-miterlimit="10" stroke-width=".5" d="M460.30078 481.63281l6.52344-2.60937"/></g><g clip-path="url(#E)"><path fill="none" stroke="#000" stroke-linecap="round" stroke-linejoin="round" stroke-miterlimit="10" stroke-width=".5" d="M460.30078 481.63281l-1.875-1.58203"/></g><g clip-path="url(#F)"><path fill="none" stroke="#000" stroke-linecap="round" stroke-linejoin="round" stroke-miterlimit="10" stroke-width=".5" d="M141.39844 469.375l5.20312-4.72266"/></g><path fill="none" stroke="#000" stroke-linecap="round" stroke-linejoin="round" stroke-miterlimit="10" stroke-width=".5" d="M153.8125 466.71484l7.0039.59766m-5.98437-.51172l-.48047-1.1289m14.22266-1.50782l4.10937 5.69922m-3.51172-4.8711l.54297-1.10155m12.76172-.07032l2.9375 6.38672m-2.51172-5.45703l.7461-.97656m12.3086-.02344l2.60937 6.52734m-2.60938-6.52734l1.58203-1.8711m11.86719 1.82032l2.33594 6.6289m-2.33594-6.6289l1.66016-1.80469m11.89843 1.73047l1.85157 6.77734m-1.85157-6.77734l1.78516-1.6836m11.44922 1.70704l2.01562 6.73047m-1.72265-5.75l.8711-.86328m11.77343.01953l2.76953 6.45703m-2.36719-5.51953l.76953-.95313m11.85157.15625l3.35156 6.17578m14.95703-1.9375l-6.63672-2.30078m19.92969 2.3711l-6.58984-2.44141m5.6289 2.08594l.16406 1.21484m14.19922-1.13672l-6.76953-1.88672m5.78516 1.61328l.26562 1.19532m13.60157-3.76953l-5.90235 3.80859m5.90235-3.8086l2.14453 1.19532m11.71093.30469l-6.98046.80859m6.98046-.8086l1.39063 2.02344m11.44922-3.42187l-6.03125 3.60547m5.15234-3.08203l1.05078.6328m13.625.98048l-6.9961-.66797m14.58204 3.04687l4.46484-5.42578m-3.8164 4.63672l-1.20313-.24219m14.10547 1.21094l3.98828-5.78516m-3.98828 5.78516l-2.4375-.28125m16.91797.80078l1.66016-6.82422m-1.41797 5.83203l-1.1914.3047m13.51562.41405l3.15625-6.27734m-3.15625 6.27734l-2.45313.0586m14.86328-.71094l4.96875-4.97266M421.13281 469.5l-2.34765-.71875m15.8164.86328l4.66016-5.26172m-4.66016 5.26172l-2.38672-.57422m14.60547-1.27343l6.85157-1.56641m-5.85547 1.33594l-.80078-.92578m13.42578 1.98828l6.24218-3.23047m-6.24218 3.23047l-2.01953-1.39453"/><g clip-path="url(#G)"><path fill="none" stroke="#000" stroke-linecap="round" stroke-linejoin="round" stroke-miterlimit="10" stroke-width=".5" d="M142.10547 456.65625l3.78906-5.91797"/></g><path fill="none" stroke="#000" stroke-linecap="round" stroke-linejoin="round" stroke-miterlimit="10" stroke-width=".5" d="M154.42969 455.70313l5.77344-4.00782m7.73437-.2539l5.38672 4.51172m9.8164-5.67579l1.60938 6.83985m-1.375-5.84375l.92188-.8086m13.92968-.14453l-1.92969 6.75781m1.9297-6.7578l2.39843-.51173m10.47656.41407l-1.05078 6.94921m1.05078-6.94921l2.3125-.8125m11.17188.84375l-1.39063 6.88672m1.1875-5.88282l1.17578-.35156m13.91797.11328l-4.54297 5.35938m4.54297-5.35938l2.39844.51953m11.60938.27344l-5.92579 3.77344m5.0625-3.22656l1.06641.60546m13.5 1.78516l-6.70313-2.10547m5.72657 1.80078l.22656 1.20703m12.86719.82032l-4.3086-5.55078m3.6836 4.74609l-.5039 1.11719m15.6875-2.19922l-6.79688-1.77735m5.80859 1.51954l.28516 1.1953m13.78125-.28905l-6.32032-3.07422m6.32032 3.07422l.08593 2.45312m13.51563-4.67969l-6.89063 1.3789m6.89063-1.3789l1.55078 1.89844m-2.55469-1.69531l.77735.94922m13.60937-.42578l-7.02734-.07422m7.02734.07422l1.1289 2.17968m-2.15234-2.1875l.5625 1.08594m13.76172-.83594l-7.0039-.5586m7.0039.5586l.97656 2.2539m12.32032-2.05077l-6.96485-.96094m6.96485.96094l.84375 2.30078m7.22265.2539l3.53125-6.07421m-3.01562 5.1914l-1.22656-.04687m15.03906 1.32422l1.5039-6.86328m-1.28515 5.86718l-1.17969.32813m13.96875.58594l2.1211-6.69922m-1.8125 5.72656l-1.20704.22266m14.28516.77343l1.97656-6.74218m-1.97656 6.74218l-2.40234.4961m14.6914-.98828l4.03125-5.75782m-4.03125 5.75782l-2.4336-.30079m15.71485.27735l4.09766-5.71094m-4.09766 5.71094l-2.42969-.32813m3.02735-.5039l-1.21485-.16407m13.36329.48438l5.23437-4.6914m-5.23437 4.6914l-2.30079-.84375m3.0625.16406l-2.30468-.84765m14.4961 1.04687l5.95702-3.72656m-5.95703 3.72656l-2.125-1.22656"/><g clip-path="url(#H)"><path fill="none" stroke="#000" stroke-linecap="round" stroke-linejoin="round" stroke-miterlimit="10" stroke-width=".5" d="M146.34375 443l-4.6875-5.23438"/></g><path fill="none" stroke="#000" stroke-linecap="round" stroke-linejoin="round" stroke-miterlimit="10" stroke-width=".5" d="M145.66016 442.23828l-.42188 1.15235m13.85156.02734l-3.54687-6.0664m3.03125 5.18359l-.64453 1.04296m15.97265-4.47656l-6.54297 2.5625m18.92579-3.90234l-4.6797 5.24219m4-4.48047l1.19142.29297m12.26562-1.44922l-3.60156 6.03515m3.07422-5.15625l1.22656.0586m12.27344-1.11719l-2.91797 6.39062m2.49219-5.46093l1.22656-.07422m11.6875-1.11328l-1.26563 6.91015m1.08203-5.90625l1.16797-.37109m14.92188 1.42969l-6.44922 2.78515m5.51172-2.3828l.95703.76952m13.53125-.40234l-6.91797 1.24219m6.91797-1.2422l1.51562 1.9297m11.64063-.10938l-6.60156-2.39844m6.60156 2.39844l.34375 2.42969m12.14844-1.13672l-4.95704-4.98438m4.95704 4.98438l-.72657 2.34375m13.57422-1.95313l-4.02343-5.76171m4.02343 5.76171l-1.11718 2.1836m15.65234-3.6836L300.55078 439m6.46094 2.76562l.20703 2.44532m13.13281-2.5039l-6.51172-2.64845m6.51172 2.64844l.25 2.4414m-1.19922-2.82812l.125 1.22266m14.16797-.91016l-6.57031-2.4961m6.57031 2.4961l.3086 2.4336m-1.26563-2.79688l.15625 1.21484m13.66797-.03125l-5.67578-4.14062m5.67578 4.14062l-.34375 2.4297m-.48047-3.03126l-.34765 2.42969m13.92187-1.21875l-4.54297-5.35938m4.54297 5.35938l-.90625 2.28125m13.5664-1.83984l-3.23437-6.23829m2.76563 5.32813l-.69532 1.01172m14.46875-.09766l-3.21093-6.25m2.74218 5.33985l-.69921 1.0078m12.39843.25782l.95703-6.96094m-.8164 5.94922l-1.15235.42188m12.9375.08593l3.73829-5.94921m-3.19532 5.08203l-1.22265-.08985m13.21875.29688l5.28515-4.6289m-5.28515 4.6289l-2.29297-.8711m15.42187.63672l5.66016-4.16015m-5.66016 4.16015l-2.21093-1.0664m15.85937 1.45703l4.99219-4.94531m-4.99219 4.9453l-2.34375-.72655m3.07031.0078l-1.17187-.36327m13.35156.58203l5.8125-3.94531m-5.8125 3.9453l-2.17187-1.14452m3.01562.57031l-2.16797-1.14453"/><g clip-path="url(#I)"><path fill="none" stroke="#000" stroke-linecap="round" stroke-linejoin="round" stroke-miterlimit="10" stroke-width=".5" d="M146.42969 429.60547l-4.85938-5.07422"/></g><path fill="none" stroke="#000" stroke-linecap="round" stroke-linejoin="round" stroke-miterlimit="10" stroke-width=".5" d="M145.72266 428.86719l-.38282 1.16406m15.13672-1.42969l-6.32422-3.0664m5.40235 2.62109l.04687 1.22656m14.53125-2.57031l-7.00781.51172m5.98828-.4375l.65625 1.03906m13.02344-2.91406l-5.69922 4.11328m4.8711-3.51563l1.10156.54297m13.55078-.12109l-6.71485 2.07422m5.73828-1.77344l.8711.86328m13.10937-1.88281l-6.08984 3.51172m6.08984-3.51172l2.07813 1.30469m11.67187-.03906l-6.96093.98046m6.96093-.98047l1.44141 1.98829m11.8164-.71094l-6.84765-1.57031m6.84766 1.5703l.64062 2.3672M254 427.54296l-6.96094-.94921m6.96094.94922l.85156 2.30469m12.16016-1.27735l-6.35156-3.0039m6.35156 3.0039l.11719 2.44922m11.76171-.89844l-3.48046-6.10547m3.48047 6.10547l-1.3086 2.07422m14.86328-2.22265l-3.95703-5.8086m3.95703 5.8086l-1.14453 2.17187m14.6875-2.34375l-4.41406-5.46484m4.41406 5.46484l-.96094 2.25781m14.45704-2.41406l-4.77735-5.15234m4.77735 5.15234l-.8086 2.32031m14.11328-2.30859l-4.75781-5.17578m4.75781 5.17578l-.8164 2.3125m13.8164-2.05469l-4.125-5.6914m4.125 5.6914l-1.07812 2.20313m13.65625-1.79688l-2.65235-6.5039m2.65235 6.5039l-1.57031 1.88672m16.10937-2.72266l-5.10156-4.83203m4.35937 4.12891l-.32812 1.1836m14.53125-.64454l-5.39453-4.5039m4.60937 3.84765l-.25 1.20313m13.54688.16015l-3.78516-5.91797m3.23438 5.0586l-.60157 1.0664m11.10157.02344l2.9453-6.3789m-2.9453 6.3789l-2.44922.14063m14.16797-1.6211l6.13671-3.41797m-6.13671 3.41797l-2.0586-1.32812m15.10156.71094l6.6836-2.1836m-6.6836 2.1836l-1.76562-1.70313m15.26953 2.16016l6.30469-3.09766m-6.30469 3.09766l-1.98828-1.4336m2.90625.98438l-.9961-.71875M460.625 429l5.8711-3.86328M460.625 429l-2.15234-1.17969m3.0078.61719l-1.07812-.58984"/><g clip-path="url(#J)"><path fill="none" stroke="#000" stroke-linecap="round" stroke-linejoin="round" stroke-miterlimit="10" stroke-width=".5" d="M146.9336 415.6875l-5.8672-3.86719"/></g><path fill="none" stroke="#000" stroke-linecap="round" stroke-linejoin="round" stroke-miterlimit="10" stroke-width=".5" d="M146.07813 415.125l-.11329 1.22266m14.5547-1.15235l-6.41017-2.88281m6.41016 2.88281l.16406 2.44532m13.26563-2.73829l-6.64063-2.29687m5.67578 1.96094l.19141 1.21484m14.07422-.83594l-6.60938-2.38281m5.64844 2.03516l.17578 1.21484m14.20703-2.89453l-6.82421 1.67187m5.83203-1.42968l.8164.91797m12.10157-3.19922l-4.04297 5.75m3.45312-4.91407l1.21875.15235m14.17578 1.92969l-7.02343-.08594m6.0039.07422l.5625 1.08984m13.11328.92969l-5.70312-4.10547m5.70312 4.10547l-.33203 2.4336m13.59766-2.3672l-5.60547-4.23437m5.60547 4.23437l-.38672 2.42188m13.8164-2.58594l-5.83593-3.91015m5.83594 3.91015l-.2461 2.4414m11.76953-1.0664l-2.2539-6.65625m2.2539 6.65625l-1.68359 1.78516m15.03516-1.79688l-2.32422-6.63281m2.32422 6.63281l-1.66407 1.80078m14.40625-1.65625l-1.18359-6.92578m1.1836 6.92578l-1.94141 1.50391m15.58203-1.57422l-1.83203-6.78515m1.83203 6.78515l-1.79297 1.67578m14.25-1.55468l-.11719-7.02344m.11719 7.02344l-2.14453 1.1875m16.41016-1.33204l-2.01563-6.73437m2.01563 6.73437l-1.7461 1.72266m14.67969-1.63281l-1.2539-6.91406m1.0703 5.90625l-.96093.76171m11.65234-.45703l4.35938-5.51172m-3.72266 4.71094l-1.20703-.21875m14.84766 1.5586l2.4375-6.58985m-2.08594 5.63281l-1.21485.16407m14.76563.95703l1.26172-6.91406m-1.07813 5.90625l-1.17187.37109m17.03906-5.63281l-4.21094 5.625m3.59766-4.8086l1.21094.1875m8.89843-1.25781l3.4297 6.13281m-3.4297-6.13281l1.32422-2.0625m10.84766 3.08594l5.71484 4.08594m-5.71484-4.08594l.32422-2.4336m12.64453 3.03516l6.40625 2.88281m-6.40625-2.88281l-.16406-2.44922m13.20703 4.39453l6.95312-1.01172m-6.95312 1.01172l-1.45313-1.97656"/><g clip-path="url(#K)"><path fill="none" stroke="#000" stroke-linecap="round" stroke-linejoin="round" stroke-miterlimit="10" stroke-width=".5" d="M147.3086 401.625l-6.6172-2.3711"/></g><path fill="none" stroke="#000" stroke-linecap="round" stroke-linejoin="round" stroke-miterlimit="10" stroke-width=".5" d="M146.34375 401.27734l.17969 1.21485m13.64844-.00781l-5.71485-4.08985m4.88281 3.49219l-.16015 1.21875m14.82422-1.6836l-6.7461-1.96484m6.7461 1.96485l.5 2.40234m12.1328-5.64453l-5.3828 4.51953m4.59765-3.86328l1.14063.45703m9.76172-2.33203l1.01172 6.95312m-.86329-5.9414l.98828-.72657m9.89844 5.33204l5.57422-4.27735m-4.76562 3.65235l-1.11328-.50782m19.90234-.67969l-6.9961-.65625m5.98047.5625l.47266 1.13282m13.29297.57031l-5.86328-3.8711m5.01172 3.3086l-.1172 1.21875m12.16798.82422l-1.63281-6.83594m1.39453 5.84375l-.91797.8086m14.76172.10156l-2.21094-6.67188m1.89062 5.70313l-.84765.88672m16.08594-1.01563l-5.41797-4.47656m14.78125 5.52734l2.48437-6.57422m-2.1211 5.6172l-1.21874.15624m13.72656.59375l3.375-6.16406m-3.375 6.16406l-2.45312-.03125m15.54296-.10156l3.82422-5.89453m-3.82422 5.89453l-2.4453-.21485m16.21484.46485l2.91406-6.39453m-2.91406 6.39453l-2.44922.14844m16.33984.05468l1.76172-6.80078m-1.76172 6.80078l-2.38672.57032m14.77735-.95704l3.61328-6.02734m-3.61328 6.02735l-2.45313-.12891m14.11719-2.26563l6.91406-1.24218m-5.91016 1.0625l-.7578-.96485m13.27734-.8125l6.5 2.67188m-6.5-2.67188l-.2422-2.4414m13.3047 3.51562l7.0039.52735m-7.0039-.52735l-.98829-2.25m15.19922.15625l5.21094 4.71485m-5.21094-4.71485l.60157-2.3789m14.12109 1.43359l2.39453 6.60547m-2.39453-6.60547l1.64453-1.82422m-1.29687 2.78516l.82421-.91016m12.78516-.21875l1.11328 6.9375m-1.11328-6.9375l1.95703-1.48047m10.89063 1.58985l2.04687 6.72265m-2.04687-6.72265l1.73828-1.73438m9.39453 3.65234l6.41016 2.88282m-5.47657-2.46094l-.08203-1.22656"/><g clip-path="url(#L)"><path fill="none" stroke="#000" stroke-linecap="round" stroke-linejoin="round" stroke-miterlimit="10" stroke-width=".5" d="M146.57031 389.51953l-5.14062-4.79297"/></g><path fill="none" stroke="#000" stroke-linecap="round" stroke-linejoin="round" stroke-miterlimit="10" stroke-width=".5" d="M145.82422 388.82031l-.32031 1.1875m14.71484-.91015l-5.8086-3.94922m5.8086 3.94922l-.26563 2.4414m14.01954-5.5l-6.6836 2.16797M173 386.35547l.88281.85156m13.46875-.9414l-6.8125 1.71484m6.8125-1.71485L189 388.08204m11.52734-2.2539l-6.53125 2.58984m6.53125-2.58985l1.8672 1.58985m-2.82032-1.21485l.9375.79688m12.21875 2.89844l-4.3125-5.55078m4.3125 5.55078l-1.0039 2.23828m15.6289-4.42578l-6.92969-1.17578m6.92969 1.17578l.77344 2.32812m12.41797-4l-6.6836 2.16797m5.71094-1.85156l.88281.85156m7.39453 2.20313l5.33594-4.57422m-4.5586 3.91015l-1.14062-.44921m12.98047-.17188l6.73438-2.0039m-5.75391 1.71484l-.86328-.875m13.60547-1.73047l5.92187 3.78515m-5.0625-3.23437l.09766-1.22266m11.82422 2.94922l6.98437-.76562m-6.98437.76562l-1.37891-2.03125m14.88672 2.84766l6.60156-2.40235m-6.60156 2.40235l-1.82422-1.64453m15.04687 1.35937l6.78516-1.83203m-6.78516 1.83203l-1.67578-1.79297m2.66407 1.52735l-.83985-.89844m13.28516 1.51953l6.55078-2.54297m-6.55078 2.54297l-1.85938-1.60156m15.91016 2.75781l5.07812-4.85547m-5.07812 4.85547l-2.33203-.76562m15.82031.9375l4.73047-5.19922m-4.73047 5.19922l-2.3789-.60547m15.66015-4.5586l4.80078 5.13282m-4.10156-4.38672l.39453-1.16016m14.71484-.53515l-.1875 7.02734m.16016-6.0039l1.09766-.54688m15.59375 2.33203l-6.88672 1.41406m6.88672-1.41406l1.5625 1.88672m11.34765-2.94531l-6.07812 3.52734m5.19531-3.01563l1.03906.64844m12.23047-2.20703l-4.21875 5.6211m4.21875-5.6211l2.42188.3789m10.30078-.73827l-3.03516 6.33984m3.03516-6.33985l2.44922-.10546m-2.89063 1.02734l1.22266-.05078m12.14062-1.02735l-2.25 6.65625m2.25-6.65625l2.42188-.39843m10.35156.25781l-1.16406 6.9336m1.16406-6.9336l2.32422-.77734"/><g clip-path="url(#M)"><path fill="none" stroke="#000" stroke-linecap="round" stroke-linejoin="round" stroke-miterlimit="10" stroke-width=".5" d="M144.69531 377.2539l-1.39062-6.89062"/></g><g clip-path="url(#N)"><path fill="none" stroke="#000" stroke-linecap="round" stroke-linejoin="round" stroke-miterlimit="10" stroke-width=".5" d="M144.69531 377.2539l-1.89844 1.5547"/></g><path fill="none" stroke="#000" stroke-linecap="round" stroke-linejoin="round" stroke-miterlimit="10" stroke-width=".5" d="M159.8086 376.28125l-4.98829-4.94922m4.98828 4.94922l-.70703 2.35156m15.03516-4.59375l-7.01172-.46094m7.01172.46094l1.00781 2.23438m12.23047-3.22656l-6.85938 1.52343m6.85938-1.52344l1.59375 1.8672m11.17578-3.11329l-5.76562 4.01563m5.76562-4.01563l2.1836 1.11719m10.61328 3.48828l-4.73047-5.19531m4.04297 4.4375l-.41407 1.15625m15.17188-1.38672l-6.24219-3.21875m6.24219 3.21875l.03125 2.45312m13.55469-3.14843l-6.78516-1.82813m6.78516 1.82813l.54687 2.39062m-1.53516-2.65625l.55079 2.39063m-1.53516-2.65625l.27344 1.1953m15.09375-1.03124l-6.9414-1.09766m6.9414 1.09766l.79687 2.32031m-1.8086-2.48047l.80079 2.32031m-1.8086-2.47656l.39844 1.16016m14.84766-.44531l-6.76563-1.89063m6.76563 1.89063l.52734 2.39453m-1.51172-2.67188l.26563 1.19922m14.14063-1.47265l-6.98047-.78907m6.98047.78906l.90234 2.28125m12.38672-3.2539L287 374.38672m6.92969-1.15625l1.4961 1.94922m11.86718-1.27344l-7.02344-.19531m7.02344.19531l1.08984 2.19531m12.22266-2.13281l-7.01953-.32031m7.01953.32031l1.05469 2.21484m9.76953.98829l-2.03516-6.72657m1.73828 5.7461l-.8711.86718m10.94141-.80468l5.04297-4.89063m-5.04297 4.89063L338.8672 375.5m15.39062.45313l5.5664-4.28907m-5.5664 4.28906l-2.23437-1.01171m21.57812.20703l-6.49219-2.6836m6.4922 2.6836l.23827 2.44531m-1.17968-2.83594l.11718 1.22266m14.40625-2.0586l-7.02343-.22656m7.02343.22656l1.08203 2.19922m-2.10546-2.23437l1.08203 2.20312m13.20703-2.86718l-6.92578 1.17187m6.92578-1.17187l1.5 1.9414m-2.50781-1.77344l.75.97266M412.5 371.07031l-4.39844 5.47656m3.76172-4.67968l1.20313.22656m9.11328-1.49219l2.875 6.41406m-2.875-6.41406l1.50781-1.9375m12.23437 1.77735l2.01563 6.73437m-2.01563-6.73437l1.7461-1.72266m-1.44922 2.70313l.8711-.86329m12.83593-.25l.64063 7m-.64063-7l2.05469-1.34375m-1.96094 2.36329l1.02734-.67188m12.2461-.35156l.53906 7.00781m-.53906-7.00781l2.07031-1.3125m-1.99219 2.33203l1.03516-.65625"/><g clip-path="url(#O)"><path fill="none" stroke="#000" stroke-linecap="round" stroke-linejoin="round" stroke-miterlimit="10" stroke-width=".5" d="M143.8789 364.0039l.2422-7.02343"/></g><g clip-path="url(#P)"><path fill="none" stroke="#000" stroke-linecap="round" stroke-linejoin="round" stroke-miterlimit="10" stroke-width=".5" d="M143.8789 364.0039l-2.20312 1.07813"/></g><g clip-path="url(#Q)"><path fill="none" stroke="#000" stroke-linecap="round" stroke-linejoin="round" stroke-miterlimit="10" stroke-width=".5" d="M143.91406 362.98438l-1.10156.53515"/></g><path fill="none" stroke="#000" stroke-linecap="round" stroke-linejoin="round" stroke-miterlimit="10" stroke-width=".5" d="M159.4336 363.29688l-4.23438-5.60938m4.23437 5.60938l-1.03906 2.22656m15.64453-4.17969l-6.8164-1.70313m6.8164 1.70313l.59375 2.38281m12.71485-4.11328l-6.8047 1.75781m6.8047-1.7578l1.65625 1.80858m11.53515-2.1875l-6.5586 2.51954m6.5586-2.51954l1.85156 1.60938m-2.80468-1.24219l.92578.80469m13.52344.6914l-6.92188-1.21093m6.92188 1.21094l.76172 2.33593m-1.76954-2.51171l.38282 1.16796m13.6328-.04687l-6.30468-3.10156m6.30469 3.10156l.07812 2.45312m-.99609-2.90234l.07813 2.44922m14.4453-2.85547l-6.88671-1.38672m6.88672 1.38672l.70312 2.35156m-1.70312-2.55469L240 362.16017m14.03125-1.54688l-7.02344-.23828m7.02344.23828l1.07813 2.20313m-2.09766-2.23829l.53906 1.10157m13.77344-1.60938l-6.97656.84766m6.97656-.84766l1.40234 2.01172m11.8125-2.51172l-6.77734 1.84766m6.77734-1.84766l1.6836 1.78906m11.32421-2.55468l-6.16406 3.375m5.26953-2.88281l1.02344.67187m13.4375-.59375l-6.66406 2.23438m5.69531-1.91016l.89063.84375m11.67578-3.17188l-3.23047 6.2422m2.76172-5.33204l1.22656-.01563m13.78125.15625l-5.67578 4.14454m4.84765-3.54297l1.10547.53515m12.94141 3.13282l-5.48438-4.39454m5.48438 4.39454l-.45703 2.41015m-.34375-3.05078l-.45313 2.41016m-.34375-3.05078l-.22656 1.20703m15.25781-.08203l-5.72265-4.08204m5.72265 4.08204l-.3203 2.42968m-.51173-3.02343l-.32031 2.42968m-.51172-3.02343l-.32031 2.42968m15.92578-2.85937l-6.97656-.84766m6.97656.84766l.88281 2.28906m-1.89844-2.41406l.88282 2.28906m13.07422-4.21484l-6.23047 3.25m6.23047-3.25l2.02343 1.38672m-2.92968-.91407l1.01171.69532m11.7461-2.64454l-3.30078 6.20313m3.30078-6.20313h2.45312m8.88672-.39453l.64844 6.9961m-.64844-6.9961l2.05078-1.34765m-1.95703 2.36328l1.02735-.67188m10.73046.12891l3.57813 6.04688m-3.57813-6.04688l1.27735-2.09375m-.75781 2.97266l.64062-1.04688m11.64453.53516l4.59766 5.3125m-4.59766-5.3125l.88281-2.28906m-.21484 3.0625l.4414-1.14454m12.88673-.08984l3.23437 6.23828m-3.23437-6.23828l1.39062-2.01953m-.92187 2.92578l.69921-1.00781M463.19531 357l.73438 6.98828M463.1953 357l2.03516-1.3711m-1.92969 2.38673l1.01953-.6875"/><g clip-path="url(#R)"><path fill="none" stroke="#000" stroke-linecap="round" stroke-linejoin="round" stroke-miterlimit="10" stroke-width=".5" d="M144.28516 350.67969l-.57032-7.0039"/></g><g clip-path="url(#S)"><path fill="none" stroke="#000" stroke-linecap="round" stroke-linejoin="round" stroke-miterlimit="10" stroke-width=".5" d="M144.28516 350.67969l-2.06641 1.32422"/></g><g clip-path="url(#T)"><path fill="none" stroke="#000" stroke-linecap="round" stroke-linejoin="round" stroke-miterlimit="10" stroke-width=".5" d="M144.20313 349.66016l-1.03516.66406"/></g><path fill="none" stroke="#000" stroke-linecap="round" stroke-linejoin="round" stroke-miterlimit="10" stroke-width=".5" d="M159.89063 349.5664l-5.15235-4.77734m5.15234 4.77735l-.625 2.37109m-.125-3.0664l-.3125 1.1875m14.77735-1.01563l-5.95313-3.73047m5.95313 3.73047l-.17188 2.44922m14.01563-4.58594l-7.00781.54297m7.0078-.54297l1.31642 2.07031m-2.33594-1.99219l.65625 1.03516m13.60937-.10156l-6.8711-1.48047m6.8711 1.48047l.66797 2.35937m-1.66797-2.57421l.66797 2.35937m13.71875-2.64844l-7.01172-.47265m7.01172.47265l1.0039 2.23828m-2.02343-2.30468l1 2.23828m-2.02344-2.3086l.5039 1.1211m14.85938-1.28516l-7.02343.13281m7.02343-.1328l1.19532 2.14062m-2.21485-2.125l1.1914 2.14453m-2.21483-2.125l.59765 1.07422m14.75-1.32422l-7.0039.5586m7.0039-.5586l1.32031 2.0664m-2.33984-1.98437l1.32031 2.0664m12.98047-2.43359l-6.9336 1.13281m6.9336-1.1328l1.48438 1.95312m-2.4922-1.78907l.7422.97657m13.45703-1.65625l-6.6875 2.16015m6.6875-2.16015l1.76172 1.70703m11.51953-1.80078l-6.6211 2.34765m6.6211-2.34765l1.8125 1.65625m11.53515-1.5625l-6.6875 2.16015m5.71485-1.84375l.88281.85156m12.53516-2.58593l-4.94532 4.9961m4.22657-4.26954l1.17187.35547m11.83203-1.78516l-2.88672 6.40235m2.46875-5.47266l1.22266-.07813M333.92188 347l-7.01954.35547m5.9961-.30078l.6289 1.05078m12.16797 1.98437l-3.9375-5.8203m3.9375 5.8203l-1.14843 2.16797m.57421-3.01562l-1.14843 2.16797m15.68359-1.88672l-5.23047-4.6914m5.23047 4.6914l-.58984 2.38281m-.17188-3.0664l-.29297 1.1914m15.17578-3.65234l-6.84375 1.59765m6.84375-1.59765l1.61329 1.85156m10.28906-3.9336l-4.01563 5.76563m4.01563-5.76563l2.4375.29297m-3.02344.54297l1.21875.14844m10.84766-1.61328l-.34766 7.01953m.34766-7.01953l2.21875-1.04297m-2.26953 2.0664l1.10937-.52343m11.48438-.45313l1.1953 6.92579m-1.1953-6.92579l1.9414-1.5039m-1.76562 2.51172l1.9375-1.50391m10.1328.86719l3.33595 6.1836m-3.33594-6.1836l1.35937-2.04297m-.875 2.9414l.6797-1.01953m11.3828.6797l4.8672 5.0664m-4.15626-4.32813l.38281-1.16797m16.26563-.16015l-3.21875 6.2461m2.75-5.33595l1.22656-.01562m12.8086-.7539l-3.71875 5.96484"/><g clip-path="url(#U)"><path fill="none" stroke="#000" stroke-linecap="round" stroke-linejoin="round" stroke-miterlimit="10" stroke-width=".5" d="M465.42188 344.19531l2.4453.17188"/></g><g clip-path="url(#V)"><path fill="none" stroke="#000" stroke-linecap="round" stroke-linejoin="round" stroke-miterlimit="10" stroke-width=".5" d="M145.6914 336.9414l-3.3828-6.16015"/></g><path fill="none" stroke="#000" stroke-linecap="round" stroke-linejoin="round" stroke-miterlimit="10" stroke-width=".5" d="M145.6914 336.9414l-1.34374 2.0547"/><g clip-path="url(#W)"><path fill="none" stroke="#000" stroke-linecap="round" stroke-linejoin="round" stroke-miterlimit="10" stroke-width=".5" d="M145.19922 336.04688l-1.34375 2.05078"/></g><path fill="none" stroke="#000" stroke-linecap="round" stroke-linejoin="round" stroke-miterlimit="10" stroke-width=".5" d="M159.98438 336.14453l-5.33985-4.5664m5.33984 4.5664l-.53125 2.39844m-.24609-3.0625l-.53125 2.39844m14.55469-1.65235L168.02734 331.5m5.20313 4.72656l-.60156 2.375m-.15625-3.0625l-.30078 1.1875m14.875-1.21094l-6.20313-3.30468m6.20313 3.30469l-.00391 2.45312m-.89844-2.9336l-.0039 1.22657m14.0625-.48047l-5.88672-3.83594m5.88672 3.83594l-.21485 2.44531m-.64062-3.0039l-.21875 2.4453m14.95703-3.91015l-7.02344.20703m7.02344-.20703l1.21484 2.13281m-2.23437-2.10156l1.21484 2.13281m-2.23828-2.10156l1.21484 2.13281m13.91406-3.35156l-6.5625 2.51953m6.5625-2.51953l1.85157 1.61328m-2.8086-1.24609l1.85157 1.60938m-2.8047-1.2422l1.85157 1.60938m13.26953-2.58203l-6.35547 3m6.35547-3l1.96485 1.46875m-2.89063-1.03125l1.96875 1.46875m-2.89062-1.03515l.98047.73437m14.20703-1.55078l-6.40625 2.89062m6.40625-2.89062l1.9414 1.5039m-2.8711-1.08203l1.9375 1.5M266.5 331.57422l-5.32813 4.57812m5.32813-4.57812l2.28516.89453m-3.0586-.23047l1.14063.44922m11.75-2.01563l-2.9336 6.38282m2.50782-5.45313l1.22656-.07031m12.83203-.69531l-3.5664 6.05469m3.04687-5.17579l1.22656.0547m13.5625 4.29687l-5.47656-4.40625m4.67969 3.76562l-.23047 1.20313m15.10937-2.52735l-7.01172-.47656m5.9922.40625l.5 1.1211m13.48827.24609l-6.32031-3.07031m6.32031 3.0703l.08985 2.45313m-1.00782-2.90234l.04297 1.22656m13.94922-.35937l-5.83984-3.90625m5.83984 3.90625l-.2461 2.4414m-.60155-3.00781l-.125 1.21875m14.77734-1.7539l-6.8164-1.70313m6.8164 1.70312l.59375 2.38282m-1.58594-2.62891l.29688 1.1875m13.4375-3.86719l-5.67188 4.14844m5.67188-4.14844l2.21093 1.0664m10.21094-1.92187l-3.88281 5.85547m3.88281-5.85547l2.4414.23829m-3.0078.61718l2.4453.23438m9.6875-1.66797l-.38671 7.01562m.38672-7.01562l2.22656-1.03125m-2.28516 2.05078l2.22657-1.03125m10.95312.0039v7.02735m0-7.02734l2.16797-1.14844m-2.16797 2.17187l1.08203-.57421m15.55469 4.21093l-6.64453-2.28906m6.64453 2.28906l.38281 2.42188m-1.34765-2.7539l.1914 1.21093m13.78125-.21875l-6.02734-3.60938m6.02734 3.60938l-.125 2.44922m-.75-2.97266l-.0625 1.22266m14.74219-2.78516l-7.0039.5586m7.0039-.5586l1.32031 2.07031m-2.33984-1.98828l.66016 1.03516m12.97656-2.94922l-5.61328 4.22656"/><g clip-path="url(#X)"><path fill="none" stroke="#000" stroke-linecap="round" stroke-linejoin="round" stroke-miterlimit="10" stroke-width=".5" d="M466.36719 331.75l2.22656 1.03906"/></g><g clip-path="url(#Y)"><path fill="none" stroke="#000" stroke-linecap="round" stroke-linejoin="round" stroke-miterlimit="10" stroke-width=".5" d="M465.55078 332.36328l2.22266 1.03906"/></g><g clip-path="url(#Z)"><path fill="none" stroke="#000" stroke-linecap="round" stroke-linejoin="round" stroke-miterlimit="10" stroke-width=".5" d="M146.84766 322.60547l-5.69532-4.11719"/></g><path fill="none" stroke="#000" stroke-linecap="round" stroke-linejoin="round" stroke-miterlimit="10" stroke-width=".5" d="M146.84766 322.60547l-.33594 2.42969m-.49219-3.02735l-.33594 2.42969m-.49218-3.03125l-.16797 1.21875m15.07812.0664l-5.57031-4.28515m5.57031 4.28516l-.41015 2.41796m-.40235-3.04296l-.40625 2.42187m-.40234-3.04297l-.20703 1.20703m14.73047.48829l-4.7461-5.1836m4.7461 5.1836l-.82032 2.3125m.12891-3.06641l-.41016 1.15625m13.41407.23828l-2.7422-6.46875m2.7422 6.46875l-1.54688 1.90625m15.42188-2.20313l-3.85938-5.87109m3.85938 5.8711l-1.1797 2.15234m.6172-3.00781l-.58985 1.07812m15.98047-2.45703l-6.88672-1.40234m6.88672 1.40234l.69531 2.35156m11.95703-5.19922l-5.5625 4.29297m5.5625-4.29297l2.23438 1.01172m-3.04297-.38672l1.11719.50391m13.07031-1.04688l-5.6875 4.125m5.6875-4.125l2.20313 1.07813m-3.03125-.47656l2.20312 1.07812m11.73828-1.9336l-5.28515 4.63282m5.28515-4.63281l2.29297.8711m-3.0625-.19532l2.29297.8711m10.77344-2.34376l-3.25 6.23047m3.25-6.23047l2.45312-.01953m-2.92578.92578l1.22656-.0078m11.8672-1.17188l-1.86329 6.77734m1.86328-6.77734l2.39453-.53907m13.20313 2.50391l-6.42578 2.84766m5.48828-2.4336l.96484.75781m12.89844 2.33985l-5.64844-4.17969m5.64844 4.17969l-.36328 2.42969m14.05078-3.0625l-6.39453-2.91016m6.39453 2.91016l.15234 2.44921m-1.08203-2.875l.15235 2.44922m14.19921-2.28906l-6.60937-2.38281m6.60937 2.38281l.35157 2.42969m-1.3125-2.77344l.34765 2.42578m14.0586-2.53515l-6.8672-1.47657m6.8672 1.47657l.67187 2.36328m-1.67187-2.57813l.33593 1.1836m13.9297-2.64844l-6.76954 1.88672m6.76953-1.88672l1.6914 1.77734m-2.67577-1.5039l.84375.89062m12.92968-2.26562L367.5 322.59375m5.71484-4.08984l2.19532 1.09375m-3.02735-.5l1.09766.54687m12.13281-2.02344l-3.88672 5.85547m3.88672-5.85547l2.4414.23829m-3.0078.61328l1.22265.11718m11.85547-1.36718l-2.27734 6.64843m2.27734-6.64843l2.42188-.38672m-2.75391 1.35547l1.21094-.19532m12.51562-.74609l-2.4336 6.59375m2.4336-6.59375l2.42969-.32813m-2.78516 1.28907l1.21485-.16406m13.1328 5.45703l-3.79296-5.91407m3.79297 5.91407l-1.19922 2.14062m15.0625-2.57031l-4.88672-5.05078m4.88672 5.05078l-.75781 2.33203m.04687-3.0664l-.3789 1.16796m15.17968-4.3711l-6.4375 2.82032m6.4375-2.82031l1.92579 1.52344m-2.86329-1.11329l.96485.76172m12.02344-2.67968l-3.90625 5.83984"/><g clip-path="url(#aa)"><path fill="none" stroke="#000" stroke-linecap="round" stroke-linejoin="round" stroke-miterlimit="10" stroke-width=".5" d="M465.51563 317.6289l2.4414.2461"/></g><path fill="none" stroke="#000" stroke-linecap="round" stroke-linejoin="round" stroke-miterlimit="10" stroke-width=".5" d="M464.94531 318.47656l2.4414.2461m-3.0078.60546l1.21875.1211"/><path fill="#00f" fill-rule="evenodd" d="M414.86719 476.52344h8.6211V466.3789h-8.6211v10.14453"/><path fill="azure" fill-rule="evenodd" d="M416.70313 468.21094h.83203v2.82422h3.28515v-2.82422h.83594v6.48047h-.83594v-2.91407h-3.28515v2.91407h-.83204v-6.48047"/><path fill="#ff3030" fill-rule="evenodd" d="M353.42578 458.77344h7.6914V448.625h-7.6914v10.14844"/><path fill="azure" fill-rule="evenodd" d="M355.25781 450.45703h.83594v5.74219h3.1914v.73828h-4.02734v-6.48047"/><path fill="#ff3030" fill-rule="evenodd" d="M233.58984 454.33203h7.69532V444.1875h-7.69532v10.14453"/><path fill="azure" fill-rule="evenodd" d="M235.42188 446.01953h.83593v5.73828h3.1914V452.5h-4.02733v-6.48047"/><path fill="#00f" fill-rule="evenodd" d="M392.67578 432.14063h8.6211v-10.14454h-8.6211v10.14454"/><path fill="azure" fill-rule="evenodd" d="M394.51172 423.82813h.83203v2.82421h3.28516v-2.82421h.83203v6.48046h-.83203v-2.91796h-3.28516v2.91796h-.83203v-6.48046"/><path fill="#00f" fill-rule="evenodd" d="M366.04688 401.07422h8.61718v-10.14844h-8.61719v10.14844"/><path fill="azure" fill-rule="evenodd" d="M367.8789 392.76172h.83594v2.82031H372v-2.82031h.83203v6.47656H372v-2.91406h-3.28516v2.91406h-.83593v-6.47656"/><path fill="#ff3030" fill-rule="evenodd" d="M206.96094 374.4414h7.6914v-10.14452h-7.6914v10.14453"/><path fill="azure" fill-rule="evenodd" d="M208.79297 366.1289h.83203v5.7422h3.19531v.73827h-4.02734v-6.48046"/><path fill="#ff3030" fill-rule="evenodd" d="M295.72656 370.0039h7.69531v-10.14452h-7.6953v10.14453"/><path fill="azure" fill-rule="evenodd" d="M297.5586 361.6914h.83593v5.73829h3.1914v.74219h-4.02734v-6.48047"/><path fill="#ffffe0" fill-rule="evenodd" d="M439.3086 450.125h22.17968v-10.1914H439.3086v10.1914"/><path fill-rule="evenodd" d="M442.8086 441.76563h.5078v6.29687h-.78515v-4.49219h-1.39063v-.55469l.5586-.0625.2539-.05468.23047-.08985.20313-.14062.17187-.21094.14454-.29297.10546-.39844m4.8125 0l.23047.01954.21875.05468.20703.08985.19532.1211.18359.15233.17188.17579.30468.41796.24219.4922.17969.54687.10937.57812.03906.59375-.03906.59375-.10937.58203-.17969.5547-.24219.5039-.30469.42578-.17187.17969-.1836.15234-.1953.125-.20704.08984-.21875.0586-.23047.01953-.23046-.01953-.21875-.0586-.20704-.08984-.1953-.125-.1836-.15234-.17188-.1797-.30469-.42577-.24218-.5039-.17969-.5547-.10938-.58203-.03906-.59375h.83203l.02735.5625.08203.5039.1289.44532.16016.375.1914.30078.21094.21875.22266.13672.22656.04688.22657-.04688.22265-.13672.21094-.21875.1914-.30078.16016-.375.1289-.44531.07813-.5039.03125-.5625-.03125-.5625-.07812-.5-.1289-.4336-.16016-.36719-.19141-.29297-.21094-.21484-.22265-.1289-.22657-.04688-.22656.04687-.22265.1289-.21094.21485-.1914.29297-.16017.36719-.1289.4336-.08203.5-.02735.5625h-.83203l.03906-.59376.10938-.57812.17969-.54688.24219-.49219.30468-.41796.17188-.17579.1836-.15234.1953-.1211.20704-.08984.21875-.05468.23046-.01954m5.08985 0h.51172v6.29688h-.78907v-4.49219h-1.38671v-.55469l.55859-.0625.2539-.05468.22657-.08985.20703-.14062.17187-.21094.14063-.29297.10547-.39844m2.82422 2.17579h.78906l.01953-.31641.0586-.28516.09765-.2539.14063-.21485.18359-.17187.22265-.1289.26563-.08204.30469-.02734.23828.02344.22656.0625.20313.10156.17968.13672.14844.17187.11328.20703.07031.23828.02344.26172-.01953.26953-.0664.22266-.10938.19531-.15625.16797-.19922.16406-.2461.16407-.63671.39062-.53516.3125-.4375.3164-.34765.32423-.26563.33593-.1875.35157-.125.37109-.07031.39063-.01953.42187h4.21094v-.74219h-3.33204l.08204-.28125.11328-.23828.14843-.20312.1875-.1797.23047-.17187.27735-.17578.71875-.41406.41406-.20703.34765-.23047.28125-.25.21875-.26953.16407-.27735.10937-.28515.0664-.28516.01954-.28125-.04297-.38281-.1211-.34766-.1875-.30468-.25-.26563-.30468-.21094-.34375-.16015-.38281-.09766-.40625-.03515-.4336.03515-.39843.09766-.35547.16797-.30469.23437-.2461.30078-.1875.375-.11718.44531-.03906.51954"/><path fill="#ffffe0" fill-rule="evenodd" d="M355.0586 417.10156h22.17968v-10.1914H355.0586v10.1914"/><path fill-rule="evenodd" d="M358.5586 408.74219h.5078v6.29687h-.78515v-4.48828h-1.39063v-.5586l.5625-.0625.25-.05468.23047-.08984.20313-.14063.17578-.21094.14063-.29296.10546-.39844m4.8125 0l.23047.01953.21875.0586.20703.08593.19922.1211.1836.15234.17187.17578.30078.41797.24219.49219.17969.54687.11328.58203.03515.58985-.03515.59375-.11328.58203-.17969.55468-.24219.50391-.30078.42578-.17187.17969-.1836.15234-.19922.125-.20703.08985-.21875.05859-.23047.01953-.22656-.01953-.21875-.0586-.21094-.08984-.1953-.125-.1836-.15234-.17188-.17969-.30078-.42578-.2461-.5039-.17968-.5547-.10938-.58202-.03906-.59375h.83203l.03125.5625.08204.5039.125.44531.16406.375.1875.30079.21094.21875.22265.13671.22656.04688.22657-.04688.22265-.13671.21094-.21875.1914-.30079.16407-.375.125-.4453.08203-.50392.02734-.5625-.02734-.5625-.08203-.5-.125-.43359-.16406-.36719-.19141-.29296-.21094-.21485-.22265-.1289-.22657-.04688-.22656.04688-.22265.1289-.21094.21485-.1875.29296-.16406.3672-.125.43358-.08204.5-.03125.5625h-.83203l.03906-.58984.10938-.58203.17969-.54688.2461-.49218.30077-.41797.17188-.17578.1836-.15235.1953-.12109.21094-.08594.21875-.0586.22656-.01952m5.09375 0h.50782v6.29687h-.78516v-4.48828h-1.39063v-.5586l.5586-.0625.2539-.05468.23047-.08984.20313-.14063.17187-.21094.14454-.29296.10546-.39844m2.82032 2.17578h.78906l.01953-.3164.0586-.28516.10156-.25391.13671-.21484.1836-.17188.22265-.1289.26563-.08204.3086-.02734.23827.02344.22266.0625.20313.10156.17968.13672.14844.17187.11328.20704.07031.23828.02735.26171-.02344.26954-.0664.22265-.10938.19531-.15625.16797-.19922.16407-.2461.16406-.63671.39062-.53516.3125-.4375.31641-.34765.32422-.26172.33594-.1914.35156-.125.3711-.07032.39452-.01953.41797h4.21094v-.74219h-3.33204l.08204-.28125.11328-.23828.14843-.20312.1875-.17969.23047-.17187.28125-.17579.71485-.41406.41796-.20703.34375-.23047.28125-.25.21875-.26953.16407-.27734.11328-.28516.0625-.28125.01953-.28125-.04297-.38672-.11719-.34765-.1914-.3047-.25-.26562-.30078-.21093-.34766-.16016-.3789-.09766-.40626-.03515-.4375.03515-.39843.09766-.35157.16797-.30468.23437-.25.30079-.1875.375-.11329.44921-.04296.51563"/><path fill="#ffffe0" fill-rule="evenodd" d="M297.35938 331.42578h22.17968v-10.19531h-22.17969v10.19531"/><path fill-rule="evenodd" d="M300.85938 323.0664h.5078v6.29298h-.78515v-4.48829h-1.38672v-.55468l.5586-.06641.25-.05469.23046-.08984.20313-.14063.17578-.21093.14063-.29297.10546-.39453m4.8125 0l.23047.01953.21875.05469.20704.08984.19921.1211.1836.14843.17187.17578.30078.41797.2422.4961.17968.54687.11328.57812.03906.58985-.03906.59375-.11328.58594-.17969.55078-.24219.5039-.30078.42578-.17187.1797-.1836.15624-.19921.1211-.20704.09375-.21875.05468-.23046.01953-.22657-.01953-.21875-.05469-.21094-.09375-.1953-.12109-.1836-.15625-.17188-.17969-.30078-.42578-.24219-.5039-.17968-.55079-.11328-.58593-.03907-.59375h.83204l.03125.5625.08203.50781.125.4414.16406.375.1875.30079.21094.22265.22265.13672.22656.04688.22657-.04688.22265-.13672.21094-.22265.1914-.30078.16407-.375.125-.44141.08203-.50781.02735-.5625-.02735-.5625-.08203-.5-.125-.4336-.16406-.36718-.1914-.29297-.21095-.21094-.22265-.13281-.22656-.04688-.22657.04688-.22265.13281-.21094.21094-.1875.29297-.16406.36718-.125.4336-.08204.5-.03125.5625h-.83203l.03907-.58985.11328-.57812.17969-.54688.24218-.49609.30078-.41797.17188-.17578.1836-.14844.1953-.1211.21094-.08983.21875-.0547.22656-.01952m5.09375 0h.50782v6.29296h-.78516v-4.48828h-1.39062v-.55468l.5625-.06641.25-.05469.23046-.08984.20313-.14063.17188-.21093.14453-.29297.10546-.39453m2.82422 2.17578h.78516l.01953-.3164.0586-.28907.10156-.25.14062-.21485.17969-.17578.22266-.1289.26562-.08203.3086-.02735.23828.02344.22265.0625.20313.10156.17969.13672.14843.17578.11328.20313.07032.23828.02734.26172-.02344.26953-.0625.22656-.11328.1914-.15234.17188-.20313.16016-.2461.16797-.6328.38672-.53907.3125-.4375.3203-.34765.32423-.26172.33594-.1914.34765-.125.3711-.07032.39453-.01953.41796h4.21094v-.73828h-3.33204l.08204-.28515.11718-.23828.14844-.19922.1836-.1836.23437-.16796.27734-.17579.71485-.41796.41797-.20704.34375-.23046.28125-.25.21875-.26563.16406-.28125.11328-.28125.0625-.28516.01953-.28125-.04297-.3828-.11719-.34767-.1914-.30859-.25-.26172-.30078-.21484-.34766-.15625-.3789-.10156-.40625-.03125-.4375.03125-.39454.09765-.35546.16797-.3047.23438-.25.30468-.18359.375-.11718.44532-.03907.51953"/><path fill="#ffffe0" fill-rule="evenodd" d="M217.46875 351.22656h22.17969v-10.1914h-22.17969v10.1914"/><path fill-rule="evenodd" d="M220.96875 342.86719h.50781v6.29297h-.78515v-4.48829h-1.38672v-.55468l.5586-.0664.25-.0547.23046-.08984.20313-.14063.17578-.21093.14062-.29297.10547-.39453m4.8125 0l.23047.01953.21875.05469.20703.08984.19922.1211.1836.14843.17187.17578.30078.41797.24219.4961.17968.54687.11328.57813.03907.58984-.03906.59375-.11329.58594-.17968.55078-.2422.5039-.30077.4297-.17188.17968-.1836.15234-.19921.1211-.20703.09375-.21875.05859-.23047.01953-.22656-.01953-.21875-.0586-.21094-.09374-.19531-.1211-.1836-.15234-.17187-.17969-.30078-.42969-.24219-.5039-.17969-.55078-.11328-.58594-.03906-.59375h.83594l.02734.5625.08203.50781.125.4414.16406.375.19141.30079.20703.22265.22266.13672.22656.04688.22656-.04688.22266-.13671.21094-.22266.1914-.30078.16406-.375.125-.4414.08204-.50782.02734-.5625-.02734-.5586-.08203-.5039-.125-.4336-.16407-.36718-.1914-.28906-.21094-.21485-.22266-.13281-.22656-.04297-.22656.04297-.22266.13281-.20703.21485-.1914.28906-.16407.36719-.125.43359-.08203.5039-.02734.5586h-.83594l.03906-.58985.11328-.57812.17969-.54688.24219-.49609.30078-.41797.17187-.17578.1836-.14844.19531-.12109.21094-.08984.21875-.0547.22656-.01952m5.09375 0h.50781v6.29297h-.78515v-4.48829h-1.39063v-.55468l.5625-.0664.25-.0547.23047-.08984.20313-.14063.17578-.21093.14062-.29297.10547-.39453m2.82422 2.17578h.78516l.01953-.3164.05859-.28516.10156-.25391.14063-.21484.17969-.17579.22265-.1289.26563-.07813.30859-.02734.23828.01953.22266.0625.20312.10156.17969.13672.14844.17578.11328.20704.07422.23437.02344.26563-.02344.26562-.0625.22656-.11328.1914-.15235.17188-.20312.16016-.2461.16797-.6328.39062-.53907.3125-.4375.31641-.34766.32422-.26172.33594-.1914.35156-.125.36719-.07031.39453-.01954.41797h4.21094v-.73829h-3.33203l.08594-.28515.11328-.23828.14844-.19922.1875-.17969.23047-.17187.27734-.17579.71875-.41796.41406-.20313.34375-.23047.28125-.2539.21875-.26563.16406-.27734.11328-.28516.0625-.28515.01954-.28125-.03907-.38282-.12109-.34765-.1914-.3086-.25-.26172-.30079-.21484-.34765-.15625-.37891-.10156-.40625-.03125-.4336.03125-.39843.10156-.35547.16406-.30469.23438-.25.30469-.1836.375-.11718.4453-.03906.51954"/><path fill="#ffffe0" fill-rule="evenodd" d="M168.64844 430.88281h22.17969v-10.1914h-22.1797v10.1914"/><path fill-rule="evenodd" d="M172.14844 422.52344h.50781v6.29687h-.78516v-4.49219h-1.39062v-.55468l.5586-.0625.2539-.05469.23047-.08984.20312-.14063.17188-.21094.14453-.29296.10547-.39844m4.8125 0l.23047.01953.21875.05469.20703.08984.19531.1211.1836.15234.17187.17578.30469.41797.24218.49219.1797.54687.10937.57813.03906.59375-.03906.59375-.10938.58203-.17969.55468-.24218.50391-.3047.42578-.17187.17969-.18359.15234-.19531.125-.20703.08985-.21875.05859-.23047.01953-.23047-.01953-.21875-.0586-.20703-.08984-.19531-.125-.1836-.15234-.17187-.17969-.3047-.42578-.24218-.5039-.17969-.5547-.10937-.58202-.03906-.59375h.83203l.03125.5625.07812.5039.1289.44531.16017.375.1914.30079.21094.21875.22266.13671.22656.04688.22656-.04688.22266-.13671.21093-.21875.19141-.30079.16016-.375.1289-.4453.08203-.50392.02735-.5625-.02735-.5625-.08203-.5-.1289-.43359-.16016-.36719-.1914-.29296-.21094-.21485-.22266-.1289-.22656-.04688-.22656.04688-.22266.1289-.21094.21485-.1914.29296-.16016.3672-.1289.43358-.07813.5-.03125.5625h-.83203l.03906-.59375.10937-.57812.1797-.54688.24218-.49218.30469-.41797.17187-.17578.1836-.15235.1953-.12109.20704-.08984.21875-.0547.23047-.01952m5.08984 0h.51172v6.29687h-.78906v-4.49219h-1.38672v-.55468l.5586-.0625.2539-.05469.22656-.08984.20703-.14063.17188-.21094.14062-.29296.10547-.39844m2.82422 2.17578h.78906l.01953-.3164.0586-.28516.09765-.25391.14063-.21484.1836-.17188.22265-.1289.26562-.08204.3047-.02734.23827.02344.22656.0625.20313.10156.17969.13672.14844.17187.11328.20704.0703.23828.02735.26171-.02344.26954-.0664.22265-.10938.19531-.15625.16797-.19922.16407-.24609.16406-.63672.39062-.53515.3125-.4375.31641-.34766.32422-.26563.33594-.1875.35156-.125.3711-.0703.39062-.01954.42187h4.21094v-.74219h-3.33203l.08203-.28515.11328-.23438.14844-.20312.1875-.17969.23047-.17187.27734-.17579.71875-.41406.41406-.20703.34766-.23047.28125-.25.21875-.26953.16406-.27734.10938-.28516.0664-.28515.01953-.28125-.04297-.38282-.12109-.34765-.1875-.3086-.25-.26172-.30469-.21093-.34375-.16016-.3789-.09766-.41016-.03515-.4336.03515-.39843.09766-.35547.16797-.30469.23437-.24609.30079-.1875.375-.11328.4453-.04297.51954"/></g></defs><use xlink:href="#ab"/></svg>