<svg xmlns="http://www.w3.org/2000/svg" role="img" xmlns:xlink="http://www.w3.org/1999/xlink" viewBox="142.45 309.95 326.84 171.84"><defs><clipPath id="a"><path d="M144 441h1v39.32813h-1zm0 0"/></clipPath><clipPath id="b"><path d="M144 311.67188h1V433h-1zm0 0"/></clipPath><clipPath id="c"><path d="M144 311.67188h324v168.65625H144zm0 0"/></clipPath><clipPath id="d"><path d="M386 479h3v1.32813h-3zm0 0"/></clipPath><clipPath id="e"><path d="M411 436h57v44.32813h-57zm0 0"/></clipPath><clipPath id="f"><path d="M467 425h1v55.32813h-1zm0 0"/></clipPath><clipPath id="g"><path d="M467 311.67188h1V421h-1zm0 0"/></clipPath><clipPath id="h"><path d="M144 476h2v4.32813h-2zm0 0"/></clipPath><clipPath id="i"><path d="M156 479h3v1.32813h-3zm0 0"/></clipPath><clipPath id="j"><path d="M169 476h4v4.32813h-4zm0 0"/></clipPath><clipPath id="k"><path d="M181 477h6v3.32813h-6zm0 0"/></clipPath><clipPath id="l"><path d="M195 477h5v3.32813h-5zm0 0"/></clipPath><clipPath id="m"><path d="M208 477h5v3.32813h-5zm0 0"/></clipPath><clipPath id="n"><path d="M221 477h6v3.32813h-6zm0 0"/></clipPath><clipPath id="o"><path d="M234 477h6v3.32813h-6zm0 0"/></clipPath><clipPath id="p"><path d="M247 477h7v3.32813h-7zm0 0"/></clipPath><clipPath id="q"><path d="M261 477h6v3.32813h-6zm0 0"/></clipPath><clipPath id="r"><path d="M273 478h8v2.32813h-8zm0 0"/></clipPath><clipPath id="s"><path d="M287 478h7v2.32813h-7zm0 0"/></clipPath><clipPath id="t"><path d="M300 479h8v1.32813h-8zm0 0"/></clipPath><clipPath id="u"><path d="M305 480h2v.32813h-2zm0 0"/></clipPath><clipPath id="v"><path d="M314 477h6v3.32813h-6zm0 0"/></clipPath><clipPath id="w"><path d="M328 477h5v3.32813h-5zm0 0"/></clipPath><clipPath id="x"><path d="M339 479h9v1.32813h-9zm0 0"/></clipPath><clipPath id="y"><path d="M353 479h8v1.32813h-8zm0 0"/></clipPath><clipPath id="z"><path d="M353 479h2v1.32813h-2zm0 0"/></clipPath><clipPath id="A"><path d="M368 476h5v4.32813h-5zm0 0"/></clipPath><clipPath id="B"><path d="M382 476h3v4.32813h-3zm0 0"/></clipPath><clipPath id="C"><path d="M395 476h4v4.32813h-4zm0 0"/></clipPath><clipPath id="D"><path d="M409 476h2v4.32813h-2zm0 0"/></clipPath><clipPath id="E"><path d="M420 478h8v2.32813h-8zm0 0"/></clipPath><clipPath id="F"><path d="M420 480h2v.32813h-2zm0 0"/></clipPath><clipPath id="G"><path d="M433 479h8v1.32813h-8zm0 0"/></clipPath><clipPath id="H"><path d="M446 478h8v2.32813h-8zm0 0"/></clipPath><clipPath id="I"><path d="M446 480h3v.32813h-3zm0 0"/></clipPath><clipPath id="J"><path d="M460 478h8v2.32813h-8zm0 0"/></clipPath><clipPath id="K"><path d="M458 479h3v1.32813h-3zm0 0"/></clipPath><clipPath id="L"><path d="M144 465h4v4h-4zm0 0"/></clipPath><clipPath id="M"><path d="M144 451h4v5h-4zm0 0"/></clipPath><clipPath id="N"><path d="M144 437h3v7h-3zm0 0"/></clipPath><clipPath id="O"><path d="M144 424h3v6h-3zm0 0"/></clipPath><clipPath id="P"><path d="M144 411h4v5h-4zm0 0"/></clipPath><clipPath id="Q"><path d="M144 398h4v5h-4zm0 0"/></clipPath><clipPath id="R"><path d="M144 384h3v6h-3zm0 0"/></clipPath><clipPath id="S"><path d="M144 370h1v8h-1zm0 0"/></clipPath><clipPath id="T"><path d="M144 377h1v2h-1zm0 0"/></clipPath><clipPath id="U"><path d="M144 356h1v9h-1zm0 0"/></clipPath><clipPath id="V"><path d="M144 363h1v3h-1zm0 0"/></clipPath><clipPath id="W"><path d="M144 362h1v2h-1zm0 0"/></clipPath><clipPath id="X"><path d="M144 343h1v8h-1zm0 0"/></clipPath><clipPath id="Y"><path d="M144 350h1v3h-1zm0 0"/></clipPath><clipPath id="Z"><path d="M144 349h1v2h-1zm0 0"/></clipPath><clipPath id="aa"><path d="M465 344h3v2h-3zm0 0"/></clipPath><clipPath id="ab"><path d="M144 330h2v8h-2zm0 0"/></clipPath><clipPath id="ac"><path d="M144 335h2v4h-2zm0 0"/></clipPath><clipPath id="ad"><path d="M465 331h3v2h-3zm0 0"/></clipPath><clipPath id="ae"><path d="M144 317h3v7h-3zm0 0"/></clipPath><clipPath id="af"><path d="M465 317h3v2h-3zm0 0"/></clipPath><g id="ag" clip-path="url(#clip1)"><path fill="#fff" fill-opacity="0" fill-rule="evenodd" d="M0 0h1000v1000H0zm0 0"/><path fill="#d3d3d3" fill-opacity="0" fill-rule="evenodd" d="M162.15234 355.86719l-.23437.29297.0586.23437.11718.17188.17578.23437.29297.34766.11328.0586.11719-.17188.0586-.23438.17577-.17578.46485-.17578h.69922l.23437.29297.28906.8164.0586.17579.17578.23046.35156.23438.69922.69922.17188.17578.23437.34765.23438.41016.28906.58203.41015.46485.23047.23437.23438.17578.11719.23047.17578.29297.17187 1.16406v.23438l.0586.28906.05859.11719.11719.11719.34765.41015.11719.17188.17578.17578.17578.23437.11719.17188.17188.35156.05859.23438.23437.40625.23438-.0586-.17578.17578-.0586.92969h-.58203l-.23437-.11328-.34766.11328-.11719.11719-.05859.29297-.0586.17578-.11718.17187-.46484.29297-.0586.23438-.0586.11328v.64453l.0586.17187v.41016l.0586.0586v.40624l.05859.40625.11719.17579.05859.05859.23047.64062-.0586.29297v.69922l-.05859.58203v.23438l-.0586.23047-.05468.35156v1.92187l.05469.1172h.42578l-.36719.11718-.02344.35156.89063 1.16797 1.74219.53906 1.33984.35938v.53906l.08984.8086.53516.71484 1.51953.26953.89063-.08594.08984 1.16406.53516.1797 1.16015-.1797 2.05469-.98437 1.16016-.36328 1.8789-.17578 1.69531-.1797-.17968.71876-1.51563.08594-1.25.08984-.80469.26953-1.07421.8086.26953.71875.53515.89843-.17968.625-.26563.8086.26563 1.07812.625.89844.80468.17969 1.25-.1797-.26562.72267.09766.5039.05468.29297v.17188l.0586.29296v.40625l.17578.1172.35156.11718h.40625l.29297-.17578.11328-.11719.0586-.11719.11718-.23047.0586-.17578.35156-.46484.23047-.17578.17578-.0586.17578.0586.0586.17578.11718.98828.05469.46875.0586.17188.11718.23437.17578.0586.8164.05859h.28907l.11719.23437.05859.40625.0586.35156v1.10547l.11718.29297.11719.34766.28906.69922.17578.35156.58203.7539.35157.17579.17187.0586.46875.23437.64063.46484.34765.23438.29297.17578.29297.05468.23047.0625.8164.34766.29297.17578.11328.17188.35157.35156.11719.17578.52343.64063v.28906l.0586.35156v.34766l.05859.35156.0586.28906.11718.0586.17188.05859h.17578l.58203.23437.17578.1172.17578.28905.17578.23438.11328.23437.29297.23047.11719.11719v.41016l.0586.05468.28906.23438.23437.11719.0586.11718.11718.17188.0586.11719.23047.23437.05859.17578.23437.0586.1172.05859-.1172.11328-.05859.11719v.11719l-.11719.29296-.11719.28907v.58203l.17579.11719.11718.05859.0586.11719.11719.11719.11328.05859.17578.34765.0586.35157.05858.40625v.17578l-.05859.17578-.11719.69922v.17187l.1172.17579.29296.29296h.40625l.17578.1172.11719.17187.11719.29296v.23438h-.52735l-.23047-.23438h-.23437l-.17578.0586-.0586.69922.0586.34765.11719.17579.17578.41015.11718.23047.28907.46875.17578.05469h.52344l.23437.0586.75781.64062.0586.29296v.23438l.05859.0586.23047.34765v.35156l-.11719.17188v.29297l.29297.28906.29297.17578.17187.0586.29297.17577.29297.1172.58203.40624.28906.23438.29297.17578.21875.16015.01563.01172.23047.17579.64062.52343.17578.23438.1172.17578.17577.17578.11328.17188v.64062l.1172.17578.46874.11719.58203.11719.23438.05859.23047.11328.29297.11719.11328.0586.58593.35156.28907.17187.17578.0625.17578.05469.17578.0586.69922.35155.28906.17579.23438.05468.28906.17578.23437.1172.64063.40624.29297.11719.17187.0586.23438.05859.41015.05859.23047.0586.23438.11718.0586.17188-.41017.17578.46875.0586.0586.29296.11328.23438.17578.05468.23438.0586.17578.05859.40625.11719.64062.23437.11719.17188.0586.23437v.17578l-.0586.1172-.0586.40624.23438.23438.11719.05859.34766.11719.64062.23047.17578.11718.28906.1172.17578.17577.23438.46485.58203 1.10546.17578.17579.34766.17578.17578.11719.35156.11718 1.04688.52344.23437.0586.46485.11327.29297.0586.46484.17578.75781.58203.23438.23438.34765.46484.17578.17578.28907.23438.8164.69921.29297.17579.28906.28906.29297.17578.29297.28906.69531.64063.17578.17578.29297.23437.28907.23438.46875.28906.64062.58203.34766.23438.23437.29297.34766.34765.35156.46485.9336.99218.34765.40625.11719.17579.23437.05859.11328.11719.64454.17578.23047.11328.23437.0586.29297.17577.23047.1172.9336.69921.40624.40625.23438.17578.40625.17578.23437.11719.8164.34766.34766.23437.23438.11719.29297.28906.23047.11719.7578.35156.35157.17188.23047.05859.29297.11719.23437.0586.8711.17577h.8164l.46875.23047.17188.0586.875.69921.46484.1172.29297.05858.17578.0586.23047.0586.46875.05859.34766.05859.35156.0586.40625.05859h.29297l.17187.0586v.23046l.17578.17578h.29297l.34766.0586.35156.05859.69922.11719h.64063l.46484-.23438.29297-.17578.17187-.11719.41016-.17187.28906-.17578.9336-.46485.46875-.29297.52343-.29296.46485-.17188.46484-.17578 1.05078-.46485.28906-.11718.41016-.11719.28906-.11719.52735-.17578 1.51562-.69922.58203-.34765.28907-.0586.29297-.0586.34765-.11718.875-.23047.35156-.11719h.11329l.23437-.05859.875-.23437.23438-.0586h.8125l.35156-.0586.8164-.11718.17188-.0586.35156-.05468.29297-.0586.23047-.05859.8164-.17578.17579-.0586h.34765l.23438-.05859.46484-.11718.75781-.17188.23438-.0586h.34765l.41016-.11718.28906-.0586 1.28516-.05859h.28906l.41016-.0586.23047-.05858h.17578l.875-.1172h.40625l.41015-.11718h.34766l.35156-.11328.8711-.0586h1.75l1.04687.28907.41016.11719.28906.11718.35156.11719.28907.11719 1.05078.17187.28906.0586h.29297l.29297.05859.17187.0586.41016.05859.17187.0586.1172.05858h.11718l.11719.0586.35156.0586h.11328l.41016.0664 1.92187.39453 1.92578.39453 1.51953.44922 1.69532.71875 2.14453.80469 1.60547-.71875 1.42968-.80469 1.16016-1.07813 1.25-.44921 3.03516-.71875 1.875-.35938 2.14453-1.34765 2.23437-1.25391 2.5-1.25781 1.69531-.44922 1.78516-.17969 1.16016-.26953.625.53906 1.33984-.26953.71485-.98828.98437-1.34375.44531-.17969.80469-.35937 1.875-.53907 1.78516-.44921 1.25-.26954 1.16015-.08984 1.69922-.08984 1.96094-.26954 1.25-.08984h.53906l.625-.08984h.89063l2.14453-.17969 2.41015-.17969 2.58985-.08984 1.69531.17969 1.60938.08984 1.42968.35938 1.16016.71875 1.875.98828 1.16015 1.52734.26563.71484.6289.08985.35548.89844.53515.53906.53516 1.52734 1.07422.35938h.53515l-.80469.53515.08985 1.70703.71484 2.69532.89063.80468.89453.98829.71484 1.2578 1.78516.53907 1.51953-.17969.35547 1.34375 1.60937-.80469.98047-.53906.26953.26953.31641-.21484.21875-.14453.80078.44922.44922-.35938h.35547l.53515-.26953.53907-.71875.53515-.26953.625-.98828 1.16016.44922.83984.3711 1.39454.61718 1.6953-.17969h1.60548l1.78515.08985.17969-1.70704.53516-1.34375.80468.26954.4922.84765.40233.40625-.08984.53906v.35938l.71485.44922.71093-.26953h1.42969l.35938.98828.4453 1.25781.71485 1.34375 1.25.6289 1.69531.62891.71485-.17969.17969-.53906.98046-.08984.44922.35937.08594 1.25782-.26563.6289-.53515.17969v.53906l.71484.98438.26563.53906.98437.98828.80078 1.07813-.26562.35937-.08985.89844-.625 2.33203-.35546 2.0664-.08985 1.79298-.17969.71875-.08984.53906v1.4375l-.98047 1.88281-.35937 1.70703-.53516.89844-.80469 1.16797-.26562.53906 2.05469 1.2539.08593.35938-.35546.53906-.08985-.17968v.80859l.08985 1.4375-.44532.71484-1.07422.09375-.26562.71485.53515.89844.8047.71875 1.16015.80859 1.33984.26953.44531.35938-.35546.44921-1.78907-.08984-1.25-.44922-.71484-.71875-.625-.08984-.17578 3.58984-.1875 1.3086h89.35937V311.70313h-55.26953v49.08203l.76172.125 3.28906.54296 2.02344 2.83594v2.7539l2.35156.33204 2.34766.33203h4.05078l-1.3789 4.16016-2.02344.70703-2.02344.70312-.54297.34375-2.59375 1.6172-.1875.11718-2.02344-2.07813-.73046-2.74218-2.67188-2.07813-1.375-3.5-.0664-.08203-1.95704-2.67188 2.75-1.41796v-49.08204H294.42187v91.41407l.1172.03125.1328.01172.07422.07421.10547.04688.08985.0586.08593.05859.08985.0586.29687.29687.0586.08984.03125.11719.02734.11719.01563.13671-.03125.1172-.0586.08983-.0586.08594-.04296.10547-.04688.10156-.02734.1211v.14453l.17578.26953.14844.14844.07422.08594.07422.07421.04296.10547.0625.08985.0586.08593.04297.10547.0586.08985.04687.10156.04296.10547.0586.08594.11719.17968.07421.07422.0625.08594.0586.08984.04297.10547.0586.08985.05858.08593.0625.08985.0586.08984.04297.10156.11719.17969.07421.07422.0586.08594.07422.07421.08984.0586.10547.04687h.14844l.1328-.01562.13282.01562.10156-.04687.07422-.07422.04688-.10156-.01563-.13281v-.14844l-.04687-.10547-.02735-.11719-.04687-.10156-.02735-.1211-.04296-.10156-.0625-.08984-.04297-.10156-.04297-.10547-.03125-.11719-.01563-.13281-.01171-.13672.08593-.0586.0586-.08593.12109-.03125.04297.10547.01562.1328v.1172l.0586.10156.0586.08984.08983.0586.14844.14843.0586.08985.04296.10547-.01171.10156.08593.0586.10547.04687.08594.0586.08984.05858.07422.07422-.11719.02735-.10546.04687-.08594.0586-.07422.07421-.0586.08985-.0625.08594-.02734.12109-.04687.10156-.04297.10547-.03125.11719-.01172.13281-.01563.13281v.14844l.02735.11719.04687.10547.04297.10156.0586.08984.07421.07422.08985.0586.07422.07421.08984.0586.0586.08984.04296.10547.04688.10156.11719.03125.1328.01563h.14845l.11718-.03125.10547.04297.04297.10547.04688.10156.02734.1211L299.5 410l.02734.11719.03125.1211.02735.11718.10547.04297.10156.04687.13281-.01562.14844.14844.0625.08593.07422.07422.07031.07422.08984.0625.10547.04297.10156.04297.1172.03125.13671.01562.11719-.03125.07422-.07422.02734-.11718-.01172-.13282-.03125-.12109-.02734-.11719.04297-.10547h.11719l.08984.0625.11719.02735h.14843l.13282.01562h.14843l.13282.01563.1328-.01563h.14845l.1328-.01562.13282-.01172.13672.01172.11719-.02735.13281-.01562.1914-.0586-.05859.17579-.01562.1328-.02735.1211-.01562.13281-.0586.08594-.1328.01563-.10548.04687-.10546.04297-.1172.03125-.11718.02735-.26563.03125h-.14843l-.13281.01562-.07422.07422.05859.08594.14844.14843.11719.1797.07421.0703.08985.0625.08984.0586.08594.0586.08984.05858.10156.04297.10547.0625.10547.04297.08594.0586.10547.04687.10156.04297.17969.11719.0586.08984-.04298.10156-.04687.10547.01562.13281.22266.22266.0586.08985.04296.10156.03125.1211.04297.10155.01563.13282.03125.11718.01171.13672.03125.11719.14844.14844.10156.04297.10547.04296.1172.03125.1328.01563.13672.01563h.11719l.11719-.03125.08984-.0586.04297-.10547.04688-.10156.04296-.10547.03125-.11719.01172-.1328v-.14845l-.01172-.1328-.01562-.13282-.03125-.11719-.04297-.10547-.04688-.10547-.04296-.10156-.04297-.10547-.01563-.13281.01563-.13281.02734-.11719.03125-.11719.02735-.1211.04687-.10155.08984-.0586.08594-.0625.07422-.07422.08984-.05859.22266-.22266.0586-.08593.07421-.07422.11719-.17969.0586-.08594v-.14844l-.07423-.07421-.10156-.04688-.10547-.04297-.10156-.04297-.0586-.08984-.04687-.10547-.02734-.11719.08984-.05859.11719-.03125.10156-.04297.17969-.11719.14844-.14843.01172-.13282-.01172-.10546-.08985-.0586-.1328.01563h-.14845l-.1328.01562-.13282-.01562-.1211-.03125-.08593-.0586-.07422-.07422-.0586-.08984-.0625-.08594-.11718-.17969-.0586-.08593.03125-.1211.08594-.05859.1211-.03125.05859-.08594v-.1211l-.03125-.11718-.0586-.08984-.05859-.08594-.04687-.10547-.02735-.11719-.01562-.1328.0586-.08985.07421-.07422.08984-.0586.1172-.17968.07421-.07422.0586-.08594.14843-.14844.1211-.03125.1328-.01562.13282.01562.07422.07422.04297.10547.01562.13281-.03125.1172-.11719.03124-.1328.01172-.14844.14844-.04297.10547-.04688.10156-.02734.1211-.03125.11718v.14844l.03125.11719.04297.10546.05859.08985.07422.07031.07422.07422.11719.03125.12109.02734.11719-.02734.1328-.01563h.1172l.08984.0586.07422.07422.04687.10546.0586.08594.10156.04688.13281.01562.10547.04297.08594.0586-.01172.10546-.07422.07422-.17969.11719-.05859.08984-.08984.0586-.07032.07422-.07421.07421-.0625.08985-.02735.11719-.01562.1328.01562.13282-.01562.13281v.14844l.01562.13281.02735.1172.03125.12108.07421.07422.08985.0586.08594.0586.08984.05858.11719.03125v.08594l-.10157.04688-.08984.0586-.26563.03124-.11718.02735h-.14844l-.10547.04296-.10156.04688-.0586.08984-.0625.23438-.01171.13281-.03125.1211-.01563.1328v.29298l-.01172.1328.01172.13673.01563.1328.1328.01563.13282.01172.1211.03125.08593.0586.07422.07421.04688.10547.04296.10157.01563.1328v.44532l-.01563.13281v.44532l.03125.26562.02735.11719.01562.13281.03125.11719.08594.21094.03125.26562v.14844l-.03125.11719-.02734.11718-.03125.1211-.02735.11719-.03125.11718-.03125.1211-.01171.1328-.01563.13282.08984.0586.1172-.03125.10155.01562.04688.10547-.03125.26562v.44141l-.04297.10547-.04688.10547-.04296.10156-.04297.10547-.0586.08594-.03125.12109-.04296.11719-.03125.11719-.01563.1328.01563.13282.05859.08984.10547.04688.08594.0586.05859.08593-.01172.13672-.03125.11719-.04297.10156v.44531l-.01562.13281v.14844l-.03125.11719-.04297.10547-.02735.11719-.04687.10546-.04297.10157-.03125.12109-.02734.11719-.03125.13281-.03125.11719-.02735.11719-.04297.10546-.03125.1172-.03125.12108-.01171.13282-.01563.13281v.29688l.02734.11718v.14844l.04688.39844.02734.11719.0586.08984.12109.03125h.14844l.13281-.01563.0586.08985v.11719l-.0586.08984-.08984.0586-.10157.04296-.10546.04688-.08985.05859-.08594.0586-.13671.01562-.1172-.03125-.1328-.01563-.10157.04688-.0625.08594-.01172.13671-.01562.13282-.03125.11719-.02735.11718-.01562.13281-.03125.1211v.29687l.01563.13282.03125.11718v.14844l.01171.13281v.14844l-.02734.11719-.04688.10156-.02734.1211-.03125.11718-.0586.08985-.07421.07421-.10156.04297-.10547.04688-.11719.02734-.1211.03125-.10156-.04687.0586-.08594.10547-.04688.02734-.11718.03125-.11719.02734-.1211.03125-.11718v-.14844l.01563-.13281-.03125-.11719-.04297-.10547-.10547.01563-.07422.07422-.10156.04296-.08984.0625-.07422.07422-.04297.10157-.01563.1328-.03125.1172L304.25 426l-.03125.11719-.02734.11719-.03125.12109-.02735.11719-.03125.11718-.04297.10547-.08984.0586h-.08984l-.1172-.03125-.03124-.08594.01562-.13672-.03125-.11719v-.14844l-.01171-.1328v-.14844l-.0625-.23438-.02735-.1211-.04297-.10156-.04687-.10546-.0586-.08594-.05859-.08985-.04297-.10546-.0625-.08594-.14844-.14844-.0703-.07422-.10548-.04687-.10547-.04297-.10156-.04297-.29687-.29688-.08985-.07421-.08594-.0586-.10546-.04297-.08985-.0625-.08594-.0586-.10546-.04296-.08985-.0586-.08594-.0625-.07421-.0703-.10547-.04688-.08594-.0586-.10547-.04296-.08984-.0625-.10156-.04297-.10547-.04297-.08594-.0586-.10547-.04687-.10547-.04297-.10156-.04687-.08985-.0586-.10156-.04297-.10547-.04296-.08984-.0625-.11719-.02735-.13281-.01562-.13281.01562H299.75l-.13281.01563-.11719-.03125-.08984-.0586-.07422-.07422-.08985-.05859-.10156-.04688h-.14844l-.12109-.02734-.10156-.04297-.07422-.07422-.11719-.17968-.08984-.0586-.10156-.04297-.08985-.0625-.10547-.04296-.08984-.0586-.08594-.0586-.10547-.04687-.0586-.08594-.05858-.08984-.04297-.10547-.04688-.10156-.07422-.07422-.08594-.0586-.07421-.07421-.08985-.0586-.22265-.22265-.04297-.10547-.03125-.26563.10547-.04296h.14453l.10547.04296.07421.07422.08985.0586.08594.0586.10546.04687.08985.05859.14844.14844.0703.07422.14845.14843.0625.08594.07421.07422.08594.0586.07422.07421.08985.0625.08984.0586.08594.05859.26953.17578.10156.04688.10547.04296.10156.04297.04688-.07421.05859-.08594.07422-.07422.07031-.07422.10547.04297.07422.07422.0586.08984.04296.10156.04688.10547.04296.10547.1211.02735.11719-.02735.07421-.08984.04297-.10547.0586-.08985.07422-.07421.10546-.04297.1172-.02735.1328.01172.08985.0586.14844.14843.05859.08985.04297.10547.04687.10156.04297.10547.04297.10156.10547.04688.10547.04296.13281.01563.08594-.0586.0586-.08984.07421-.07422.10547-.04297.11719.02735.10547.04687.10156.04297.10547.04297.10156.04688.17969.11718v.11719l-.01563.13281.01563.13281.01562.13672.0586.08594.10156.04688.1211.02734.11718.03125h.14844l.11719-.03125.05859-.08984.17969-.1172.05859-.08983.07422-.07422.0586-.08594.11718-.17969.17969-.11719.11719.03125.08984.0586.04297.07422-.01563.1328v.1172l.08985.05859h.14843l.13282-.01563.1328-.01171.26563-.03125.10547-.04297.11719-.03125.1211-.02735.07421-.07421.07031-.07422.0625-.08985-.01562-.10547-.04688-.10156-.10156-.04297-.10547-.01562-.11718.02734-.26563.03125h-.14844l-.07421-.07422-.08985-.0586-.11719-.03124-.11718-.02735-.13282-.01562h-.14843l-.13282.01563h-.29687l-.10547-.04688-.14844-.14844-.04297-.10156-.05859-.08984.22266-.22266.08593-.0586.10547-.04296.11719-.03125.13281-.01563.13281.01563.13672.01562.10157.04297.1328-.01172.08985-.0625.10156-.04297.0625-.08984-.04687-.10156-.08984-.0586-.1172-.03125-.10155-.04296-.0586-.08985-.0625-.08984v-.11719l.01563-.13281.10547-.04688.07421-.07031v-.1211l-.08984-.05859-.03125-.11719.08985-.05859.07421-.07422.04297-.10547.0586-.08984.04687-.10156.01563-.13281v-.14844l-.04688-.10547-.04297-.10156-.08984-.0586-.13281-.01562-.10157-.04297-.13671-.01563-.1172-.03125h-.4453l-.13282-.01562-.13281-.01172-.13281-.01563-.11719-.03125h-.14844l-.13281-.01562-.13281-.01172-.26563-.03125-.1211-.04297-.08593-.0586-.07422-.07421v-.14844l.01172-.13281.10547-.04688.10156-.04296.13281-.01563h.15235l.13281-.01562h.29297l.1211.03125.10156.04296.08984.0586.23438.0625.12109-.04688.08984-.05859.10156-.04297.13282-.01562.10547.04296.10156.04688.13281.01172.1211-.02735h.14453l.12109-.03125.11719-.02734.10547-.04687.07421-.07422.08594-.0586.14844-.14843.0586-.08594.04687-.10547.02734-.11719.01563-.10547-.10156-.04296-.08985-.0586-.11719-.03125-.10546-.04297-.08985-.0625-.07422-.08594-.07422-.07421-.10156-.04297-.10547-.04688-.10156-.04297-.0586-.08984-.04687-.10156-.08594-.21094-.0625-.08594-.05859-.08984-.07422-.07422-.08594-.0586h-.26953l-.11719.03126-.08984.05859-.10156.04297-.13281.01562-.10547-.01562-.02735-.11719-.0625-.08984-.11718-.03125-.10157-.04297-.14843-.14844-.03125-.11719-.01563-.10546.07422-.07422.17969-.1172.11719-.02733.11718-.03125.13672.01562.10156.04297.10547.04297.10156.04687.10547.04297.1172.03125.1328.01563.1172.02734.1328.01563.10547-.01563.08985-.0586-.07422-.07421-.10547-.04297-.07422-.07422-.07422-.08984-.14844-.14844-.08593-.0586-.08985-.05859-.07422-.07422-.08984-.0586-.10156-.04687-.1211-.02734-.10156-.04688-.10547-.04296-.11719-.03125-.10156-.04297-.1211-.03125h-.14843l-.11719.03125-.10546.04297-.08594.0625-.17969.11718-.08594.0586-.08984.0586-.10547.04687-.08594.05859-.10547.04297-.10156.04297-.10547.04687-.07422.07422-.05859.08985-.0586.08593-.04687.10547-.0586.08594-.07421.07422-.13281-.01172-.1172-.03125h-.11718l-.07422.07422-.08984.0586-.07422.07421-.08984.0586-.08594.05859-.10547.04687-.10156.04297-.13672.01563-.10156-.04297-.14844-.14844-.10547-.04688h-.08594l-.10547.04688-.10156.04297-.1211.03125-.11718-.03125-.07422-.07422v-.11719l.03125-.1211.07422-.0703.0586-.08985.07421-.07422.11719-.03125.10547-.04296h.29297l.13281-.01563.13672-.01563.10156-.04296.08985-.0586.10156-.04687.08984-.0586.13281-.01171.08985.05859.13281.01172.08984-.0586.08594-.05859.10547-.04297.08984-.0586.08594-.0625.08985-.05859.14843-.14843.0586-.08594.05859-.08985.10547-.04296.13281-.01563.11719.02735.1211.03125.05859-.0586.05859-.08984.03125-.26563.02734-.11719.10547.01172.13281.01563.10157-.04297.08984-.0586.0586-.08984.07421-.07422.0586-.08984.04687-.10156.01172-.13281-.01172-.13282-.04687-.10547-.14844-.14843-.0586-.08985-.05859-.08594-.04297-.10546v-.44532l.01563-.1328v-.14845l.01172-.1328-.0586-.0586-.08984.0586-.10156-.04298-.17969-.11719-.08594-.05859-.0625-.08984-.0586-.08985-.07421-.07421-.08594-.0586-.1211.03125-.10155.01172-.10547.04688-.08594.05859-.10547.04297-.14844.14844-.08984.05859-.08594.0586-.08984.0625-.10547.04296-.13281.01563v-.1211l.10547-.04297.11718-.03125.07422-.0703.04297-.10548v-.14844l-.02734-.11718-.14844-.14844-.13281-.01563h-.14844l-.11719.03125-.10547.04297-.10156.04297-.08984.0625-.11719.02735-.07422-.07422.01172-.13281-.04297-.10157-.04297-.10547-.08984-.05859-.11719.02734-.1211.03125-.11718.03125-.10156.04297-.1211.03125-.10156.04297-.10547.04297-.08984.0586-.10156.01562v-.11719l.01562-.13281-.0586-.08985-.07421.04297-.14844.14844-.0586.08985-.07421.07421-.04688.10547-.04296.10156-.07422.07422-.0586.08985-.07422.07422-.05859.08593-.07422.07422-.08984.0625-.07422.07031-.07422.07422-.10156.01563-.13281.01562-.10547-.04296v-.1211l.14843-.14844.04297-.10156.0586-.08984.04687-.10156.04297-.10547.0586-.08985.03124-.11719.04297-.10156.03125-.1211.02735-.11718.04687-.10547.04297-.10156.04297-.10547.07422-.07031.08984-.0625.08985-.0586.10156-.04296h.29687l.26563-.03125.10547-.04297-.07422-.07422-.11719-.03125-.10547-.04297-.08984-.0586-.10156-.04687-.08985-.0586-.10156-.04296-.10547-.04297-.08984-.0625-.08594-.0586-.10547-.04296-.10156-.04297-.1211-.03125-.11718-.03125-.10157-.04297L297.5 410.25l-.10156-.04297-.08985-.0586-.04296-.10546-.01563-.13281.10156-.04297.13281-.01563.13672.01563.13282-.01563.10156-.04297.0586-.08984.01562-.10547-.08985-.0586-.07421-.07421-.10157-.04297-.08984-.0586-.14844-.14843-.04297-.10547-.01562-.13281v-.29297l-.0586-.08985-.08984-.05859-.07422-.07422-.04297-.10547-.03125-.11718-.0586-.08985-.07421-.07422-.11719-.02734-.07422-.07422-.08984-.0586-.08984-.0625-.08594-.05859-.07422-.07421-.0586-.08594-.04687-.10547-.08594-.0586-.14843-.14843-.19532-.0586-.1328.01563-.10157.04297-.07422.07422-.04688.10156-.04296.10547-.0586.08984-.0586.08594-.29687.29687-.08984.0586h-.08594l-.0625-.08594-.04297-.10547.03125-.11719.0586-.08984.02734-.11719-.01172-.13281-.08984-.0625-.10547.04688-.11719.02734-.11719.03125-.26953.17578-.10156.04688-.11719.02734-.10546.04687-.08985.0586-.10156.04297-.0586-.08594-.04687-.10547.01563-.13281.04687-.10547.07031-.07422.07422-.07031.0586-.08985v-.14843l-.04297-.10547h-.23829l-.10156.04687-.03125.11719-.02734.11719-.03125.1211-.07422.04296-.13281.01563-.07422-.04688-.04297-.10156-.04297-.10547-.04687-.10156-.04297-.10547-.1211.03125-.10156.04297-.13281.01562-.11719.03125-.10547.04297-.08984.0586-.10156.04687-.1211.02734-.13281.01563-.10156-.04297-.0586-.08985-.04687-.10546-.04297-.10157-.04297-.10546v-.1172l.0586-.08984.08593-.05859.17969-.11719.10156-.04687.10547-.04297.10547-.0586.10156-.04296.08985-.0625.10156-.04297.10547-.0586.10156-.04687.08984-.0586.10547-.04296.10156-.04297.08985-.0625.10156-.04297.13672-.01563.11719.03125.10156.04297.1211.03125.10156.04297.10546.04688.10157.04296.10547.04297.10156.04688.10547.04297.10156.04297.10547.04687.08594.0586.10546.04296.1172.03125.10546.04297.10156.04688.08985.0586.10547.04296.10156.04297.10547.04687.11719.02735.10156.04687.1211.02735h.14843l.08594-.0586.01562-.10156.0586-.08984-.02735-.1172-.07422-.07421-.11719-.17969-.07421-.07422-.08985-.07421-.17969-.1172-.08593-.05859-.10547-.04296-.10156-.04688-.26954-.17578-.05859-.08985-.07422-.07421-.0586-.08985-.04296-.10156-.03125-.11719-.01563-.13672v-.5625l-.01171-.1328-.01563-.13282-.03125-.11719-.01562-.13281-.01172-.13281-.03125-.1211-.22266-.22265-.0586-.08594-.01562-.10547.03125-.11719.13281-.01562v-91.41406H172.9922v1.45312l-.0586.23438-.35156 1.05078-.17187.52343-.1172.34766-.17577.41016-.11719.17187-.23438.29297-.23046.0586h-.35157l-.11718.05859-.23047.40625v.29297l.11719.17578.23046.23047.1172.23437.64062.75781.29297.46485.17578.23437.23047.35156.23437.34766.64063.8164.17578.46485.17187.41016.11719.69531.17578.46875.11719 1.39844.0586.46484v.875l.11718 1.04688v4.78125l-.0586.46484-.35156 1.28125-.17578.52344-.11328.41015-.35156.9297L172.93359 336l-.23437.58203-.11719.17578-.17187.34766-.17578.40625-.35157.8164-.0586.29297-.11327.29297-.11719.28906-.0586.17579-.11718.875-.0586.40625-.05859.11718-.0586.17579-.05859.17187-.23047.52734-.11718.17188v.23437l-.11719.23438-.0586.17187-.17577.58594v.28906l-.0586.17579v.29296l-.0586.11329-.05859.52734v.17187l-.05468.23438v2.6211l-.17578.8164-.1172.17578-.17577.23438-.1172.17187-.11327.23438-.58594.93359-.23047.28906-.29297.46485-.17578.23437-.28906.35156-.35156.69922-.11328.23047-.17579.41016-.17578.23046-.40625.52735-.8164.69922-.29297.17187-.28906.23438-.17579.11719-.17578.17578-.52344.40625-.52734.17578-.17187.17578-.23438.05469-.64062.17578h-.75782m12.21094 31.02344l-1.07422.44921.35938.89454 1.25-.71485.44531-.53906-.98047-.08985"/><path fill="#d3d3d3" fill-opacity="0" fill-rule="evenodd" d="M201.50781 416.59766h-.89453l.44922.6289.98047.35938.80469-.08985.4453-.98828-.17577.08985-.71485-.35547-.89453.35547m154.6211 59.0703l-.0586-.52343v-.29297l.11328-.29297.0586-.23046.46875-.46875h.11328l.11719-.11329.11718-.05859h.17579l.23437-.0586h.34766l.23437.0586.11719.0586.23047.17187.0586.17578.11718.58203v.29297l-.11719.17578-.17187.28906-.17579.17579-.52734.52343-.23047.23438-.11719.0586h-.17578l-.11718-.0586-.40625-.29297-.17579-.11719-.11718-.0586-.0586-.11327-.05468-.1172m6.64062-10.95702l-.0586-.17188v-1.10937l.0586-.17188.17578-.0586.17188-.05858h.17578l.23437-.0586.1172.0586.05858.69921-.05859.17188-.11719.17578-.11718.0586-.23438.52343-.11328.0586h-.23438l-.05859-.1172m9.61328-14.39062l-.11719-.17578v-.69922l.29297-.875.1172-.17187.17577-.35156.11328-.23047.1172-.29297.35155-.75781.1172-.23047.17187-.23438h.17578l.11719-.0586h.64062l.11719.0586.23437.23438.17188.11328.35156.29297.11719.11718.11328.17579v.11328l.11719.05859.11718.11719v.69922l-.05859.17578v.23047l-.0586.17578-.34765 1.05078-.11719.23047-.11719.23437-.11718.0586-.23047.23437-.64063.28906h-.875l-.41015-.11718-.64063-.46485"/><path fill="none" stroke="#bebebe" stroke-linecap="round" stroke-linejoin="round" stroke-miterlimit="10" stroke-width=".5" d="M467.95703 311.69531H144.02734v168.625h323.9297v-168.625"/><g clip-path="url(#a)"><path fill="#fff" fill-opacity="0" fill-rule="evenodd" d="M144 475.89063v4.4375h.0039H144V441.6328v34.25781"/></g><g clip-path="url(#b)"><path fill="#fff" fill-opacity="0" fill-rule="evenodd" d="M144 431.50781v1.47266-121.3086h.0039H144v119.83594"/></g><path fill="#50fcfc" fill-rule="evenodd" d="M144 432.98047v8.65234h.0039v-8.64844l-.0039-.0039"/><g clip-path="url(#c)"><path fill="#fff" fill-opacity="0" fill-rule="evenodd" d="M144.0039 480.32813V441.6328l1.89844-1.25.3125-4.4375-2.21093-2.96094v-121.3125h75.44922v7.01172l-1.0547 1.86329-3.3828 2.99609-4.44141-2.80078-2.95313 4.24219-1.48437 3.64453-.5039.79687.5039.39844 4.4375 2.17969 3.54297-2.57813.89844-2.48828 1.53906-1.95313 2.89844-3.30468.36718-1.13281-.36719-1.86329v-7.01171h13.3125v93.83203l-4.4375.45312-2.79296 3.35938-1.64453 2.41796-2.00391 2.01954-.8086 4.4375L223.89063 421l.48829 1.6289 1.57812 4.44141-2.0664.7539-3.625 3.6836-.8125 1.89844-4.4375.49219-1.92188 2.04687-2.51953 2.48047-2.47266 1.95703-1.04687 4.4375-.91797 4.40625-.00781.03516.0078.0039 4.4375 3.48438 1.16017.94922-1.16016 3.55078h-4.4375l-4.4375-.69922-4.0664 1.58594 1.1289 4.4375 2.9375 2.50781 4.4375-.21094 4.4375-.80859 4.4414.19922 4.4375-1.05078 4.4375.80469 4.4375-1.40235 4.4375.20703.98047-.2461-.41406-4.4375-.5664-1.16015-3.9297-3.27734 3.9297-4.4375v-.0039l.74609-4.4375-.7461-.88673-1.07812-3.55078-3.35938-3.59375-4.4375.50781-1.89453-1.35156 1.89453-.8086 4.1211-3.6289.3164-1.08984 4.4375.40234 1.03125.6875 3.41016 3.40625 3.36328 1.03125-2.4961 4.4375 3.57032 3.41406 4.4375-1.29296 2.11328-2.1211-2.11328-2.6914-3.14062-1.7461 2.16015-4.4375-3.45703-4.23437-.1289-.20313.1289-.09375 4.30078-4.34765.13672-1.20704 3.83594-3.23046-3.83594-3.10938-4.4375-1.21484-.38281-.11328-.58594-4.4375-3.46875-2.87891-4.4414-.9336v-93.83202h48.82421V446.75l-4.4375.20313-3.14843 2.30859-1.29297.64062-2.89063 3.79688.5039 4.4375 2.38673 2.39062 4.4414.75 4.4375-1.52343 1.64844-1.6172 2.78906-2.46483 1.94532-1.97266-1.94532-3.375-.97656-1.0625-3.46094-2.51172V311.67187h35.50782v135.16797l-2.33985 2.42188-2.10156.88672-4.4375 2.13281-1.33594 1.41797-1.19922 4.4375 2.53516 3.01172 3.60156 1.42578.83594.53125.5625-.53125 2.76953-4.4375 1.10938-1.47266 3.625-2.96484-1.32032-4.4375-2.30468-2.42188V311.67188h13.3125V446.4453l-4.37891 2.8164-.0586.10157-3.53124 4.33594 3.53125 3.98047 2.47656.45703 1.96094.4336.34375-.4336 2.33593-4.4375.09375-4.4375-2.77343-2.8164V311.67187h44.3828V459.5078l-4.4375.77344-2.26171 2.29297 1.94531 4.4414.3164.35157 1.4375 4.08594 3 2.16015 4.44142.57813 2.91015-2.73829.9336-4.4375-3.84375-4.2578-.32422-.1836-4.1172-3.0664V311.67187h8.87892v111.66015l-4.26954 3.73828.4375 4.4375 3.83204 3.85547 3.87109-3.85547.5664-1.96875 2.50782-2.46875-2.50781-2.91015-4.4375-.82813V311.67188h26.6289v103.66796l-4.4375 1.20313-4.4375.95312-3 .69532-1.4414.1328-3.65625 4.3047.15625 4.4414 3.5 3.67578 4.23828.76172.20312.14063.44531-.14063 3.9922-.48437 4.4375.47656 4.4375-.9375 4.4414-.20703 4.4375-.6914 3.33203-2.59376-.46875-4.4414-2.86328-2.54688-3.0039-1.89062-1.4336-1.21094-4.4414-1.40235-4.4375-.23828V311.67188h22.1914v105.48437l-.42969 1.03516.42969.21875.25781-.21875-.25781-1.03516V311.67187h35.5039v108.53125l-.80859-2.01171-3.625-3.19922-3.5 3.19922-.55078 4.4375-.38672 3.1328-2.76563-3.1328-1.67578-1.58985-.98437 1.58985-3.45313 3.26171-1.15625 1.1797-3.28125 2.72656-1.875 1.71093-2.5625 3.08985-1.76171 1.34765 1.76171 1.3125 4.4375-1.26953.03516-.04297 4.40234-1.15625 4.14844-3.28125.28906-.71875 4.44141-2.94531 1.11328-.77344 3.32422-.47656 4.4336-1.375v55.10938h-34.04688l1.63281-4.4375-3.04687-4.4375 2.3125-4.4375 2.08203-1.05079 4.4414-1.5 4.4375-.45703 3.16016 3.00781 1.27734 1.90625 1.05079 2.53125 3.38671 3.03125 4.44141.60938 4.4375-3.60156.02734-.03906 3.23829-4.4375.67187-4.44141-1-4.4375-2.9375-3.09375-1.10938-1.34375-3.32812-4.0664-4.4414-.10938-.1211-.26172-.92578-4.4414-3.39063-3.3047-4.4375 2.92188-4.4375-1.27734-4.4414-.50782-1.63672-2.26953-2.80078-4.08984-4.4375.58594-3.10156 3.5039-1.33594 1.22266-4.4375 1.54687-1.70313 1.66797.17969 4.4414 1.52344 3.32813 1.07031 1.10938-1.07031 1.85156-.89844 2.58594.89844 1.8086 1.32422 2.6289 1.41015 4.4414-2.73437.61329-4.4414.73046-3.52735 3.09375 3.52734 3.8672.28906.5703 4.15235 3.65625 4.4375.35157 4.4375-.26953 2.59765.69921h-42.07812l-.46485-.375-1.35156.375h-242.7539"/></g><path fill="#50fcfc" fill-rule="evenodd" d="M145.90234 440.38281l-1.89843 1.25v-8.64844l2.21093 2.96094-.3125 4.4375m52.85938 22.1914l-1.1289-4.4375 4.0664-1.58593 4.4375.69922h4.4375l1.16016-3.55078-1.16016-.94922-4.4375-3.48438-.00781-.0039.0078-.03516.91798-4.40625 1.04687-4.4375 2.47266-1.95703 2.51953-2.48047 1.92188-2.04687 4.4375-.49219v3.58203l-4.4375.23438-3.19532 3.16015.60938 4.4375 2.58594 2.23828 2.83984 2.20313 1.59766 1.85547v6.40234l-3.87891.61719 3.8789 1.83203 1.00391-1.83203-1.0039-.61719v-6.40234l4.01171 2.58203.42578.32812.26172-.32812 4.17578-3.9375v5.16406l-1.05468 3.21094 1.05469 4.15234 2.16406-4.15234-2.16406-3.21094v-5.16406l.48828-.5.97656-4.4414-.1875-4.4375-1.27734-1.36329-4.00391 1.36328-.4336.51563-.1914-.51563-4.2461-3.39453v-3.58203l.8125-1.89844 3.625-3.6836v2.00782l-1.64843 1.67578 1.64844 1.64844 1.875-1.64844-1.875-1.67578v-2.00781l2.0664-.7539-1.57812-4.44141L223.89063 421l-2.8125-2.8086.80859-4.4375 2.0039-2.01952 1.64454-2.41797 2.79297-3.35938 4.4375-.45312v1.48046l-4.4375 1.9961-.27735.33594-3.57812 4.4375-.58203 3.72656-.22657.71094.22656.22656 1.26172 4.21094 3.17578 3.89843 1.09766.54297 3.33984 2.3789 3.08594 2.0586 1.35547 1.35156 4.4375 1.00391v3.89453l-1.95703 2.625 1.95703 1.875 3.33984-1.875-3.33984-2.625v-3.89453l1.6836-2.35547-1.6836-2.0625-1.50781-2.375 1.50781-1.07812 3.32813-3.36328.49218-4.4375-3.8203-3.44141-3.39845-.9961L237.20703 411l-.52734-1.6836-3.91406-2.33202v-1.48047l4.4414.93359 3.46875 2.8789.58594 4.4375.38281.11329 4.4375 1.21484 3.83594 3.10938-3.83594 3.23046-.13672 1.20704-4.30078 4.34765-.1289.09375.1289.20313 3.45703 4.23437-2.16015 4.4375 3.14062 1.7461 2.11328 2.6914-2.11328 2.1211-4.4375 1.29296-3.57031-3.41406 2.4961-4.4375-3.36329-1.03125-3.41016-3.40625-1.03125-.6875-4.4375-.40234-.3164 1.08984-4.1211 3.6289-1.89453.8086 1.89453 1.35156 4.4375-.5078 3.35938 3.59374 1.07813 3.55078.74609.88672-.7461 4.4375v.0039l-3.92968 4.4375 3.92969 3.27735.5664 1.16016.41406 4.4375-.98047.2461-4.4375-.20704-4.4375 1.40235-4.4375-.8047-4.4375 1.05079-4.4414-.19922-4.4375.8086-4.4375.21093-2.9375-2.50781m7.375-132.75l-.5039-.39844.5039-.79687 1.48437-3.64454 2.95313-4.24218 4.4414 2.80078 3.38282-2.9961 1.05469-1.86328.36718 1.86329-.36719 1.1328-2.89843 3.3047-1.53906 1.95312-.89844 2.48828-3.54297 2.57813-4.4375-2.1797"/><path fill="#00e8fc" fill-rule="evenodd" d="M212.42969 444.82031l-.60938-4.4375 3.19531-3.16015 4.4375-.23438 4.2461 3.39453.1914.51563.4336-.51563 4.0039-1.36328 1.27735 1.36328.1875 4.4375-.97656 4.4414-.48828.5-4.17579 3.9375-.26172.32813-.42578-.32812-4.01172-2.58203-1.59765-1.85547-2.83984-2.20313-2.58594-2.23828"/><path fill="#fff" fill-opacity="0" fill-rule="evenodd" d="M219.45313 457.51953l-3.87891.61719 3.8789 1.83203 1.00391-1.83203-1.0039-.61719"/><path fill="#00e8fc" fill-rule="evenodd" d="M223.89063 433.15625l-1.64844-1.64844 1.64844-1.67578 1.875 1.67578-1.875 1.64844m0-14.73828l-.22657-.22656.22656-.71094.58204-3.72656 3.57812-4.4375.27734-.33594 4.4375-1.9961v4.72657h-4.4375l-1.70703 2.04297-.6875 4.4375.51172 4.4375 1.88281 2.3164 4.3125 2.125.125.08985 4.44141 1.30468.63281-1.39453 3.8047-2.71484 1.70702-1.72656.47656-4.4375-2.18359-1.96875-4.4375-1.4336-4.1914-1.03515-.25-2.04297v-4.72656l3.91406 2.33203.52734 1.68359 1.03906 2.7539 3.39844.9961 3.82031 3.4414-.49218 4.4375-3.32813 3.36329-1.50781 1.07812 1.50781 2.375 1.6836 2.0625-1.6836 2.35547-4.4375-1.0039-1.35547-1.35157-3.08594-2.0586-3.33984-2.3789-1.09766-.54297-3.17578-3.89843-1.26172-4.21094"/><path fill="#00d4fc" fill-rule="evenodd" d="M226.44531 422.6289l-.51172-4.4375.6875-4.4375 1.70703-2.04296h4.4375l.25 2.04297 4.19141 1.03515v1.30469l-4.4414.95703-4.4375-.42969-.23829 1.57032-.35547 4.4375.59375.73046 4.4375 2.06641 4.44141.70703 4.4375-3.41406.08594-.08984.46094-4.4375-.54688-.4961-4.4375-1.60156v-1.30469l4.4375 1.4336 2.1836 1.96875-.47657 4.4375-1.70703 1.72656-3.80469 2.71484-.6328 1.39453-4.44142-1.30468-.125-.08985-4.3125-2.125-1.8828-2.3164"/><path fill="#fff" fill-opacity="0" fill-rule="evenodd" d="M228.32813 454.92578l-1.0547 3.21094 1.0547 4.15234 2.16406-4.15234-2.16406-3.21094"/><path fill="#00c4fc" fill-rule="evenodd" d="M228.32813 423.35938l-.59375-.73047.35546-4.4375.23828-1.57032 4.4375.4297 4.44141-.95704v1.30469l-2.11328.79297-2.32813 2.28515-2.39453 2.15235 2.39453 1.08203 4.44141 1.13281 2.85547-2.21484-.73438-4.4375-2.12109-.79297v-1.30469l4.4375 1.60156.54688.4961-.46094 4.4375-.08594.08984-4.4375 3.41406-4.4414-.70703-4.4375-2.0664"/><path fill="#00b8fc" fill-rule="evenodd" d="M232.76563 423.71094l-2.39454-1.08203 2.39453-2.15235 2.32813-2.28515 2.11328-.79297v2.3711l-2.92578 2.85937 2.92578.92187 1.1875-.92187-1.1875-2.85938v-2.3711l2.1211.79298.73437 4.4375-2.85547 2.21484-4.4414-1.13281"/><path fill="#00a8fc" fill-rule="evenodd" d="M237.20703 423.55078l-2.92578-.92187 2.92578-2.85938 1.1875 2.85938-1.1875.92187"/><path fill="#00e8fc" fill-rule="evenodd" d="M241.64453 442.25781l-1.95703-1.875 1.95703-2.625 3.33984 2.625-3.33984 1.875"/><path fill="#50fcfc" fill-rule="evenodd" d="M270.32422 458.13672l-.5039-4.4375 2.89062-3.79688 1.29297-.64062 3.14843-2.3086v4.08985l-4.4414 2.58984-.05078.0664.05078.25 1.67969 4.1875 2.76171 1.04298 1.95313-1.04297 2.35156-4.4375-4.30469-2.65625v-4.08985l4.4375-.20312 3.46094 2.51172.97656 1.0625 1.94532 3.375-1.94532 1.97265-2.78906 2.46485-1.64844 1.61719-4.4375 1.52343-4.4414-.75-2.38672-2.39062"/><path fill="#00e8fc" fill-rule="evenodd" d="M272.71094 453.94922l-.05078-.25.05078-.0664 4.4414-2.58985 4.3047 2.65625-2.35157 4.4375-1.95313 1.04297-2.76171-1.04297-1.6797-4.1875"/><path fill="#50fcfc" fill-rule="evenodd" d="M308.21875 461.14844l-2.53516-3.01172 1.19922-4.4375 1.33594-1.41797 4.4375-2.13281v2.98828l-.91016.5625.66407 4.4375.24609.05078.03516-.05078 1.59375-4.4375-1.62891-.5625v-2.98828l2.10156-.88672 2.33985-2.42188 2.30468 2.42188 1.32032 4.4375-3.625 2.96484-1.10938 1.47266-2.76953 4.4375-.5625.53125-.83594-.53125-3.60156-1.42578"/><path fill="#00e8fc" fill-rule="evenodd" d="M312.41016 458.13672l-.66407-4.4375.91016-.5625 1.6289.5625-1.59374 4.4375-.03516.05078-.2461-.05078"/><path fill="#50fcfc" fill-rule="evenodd" d="M325.97266 457.67969l-3.53125-3.98047 3.53125-4.33594.05859-.10156 4.3789-2.8164v2.74218l-.11327.07422.11328.7539.07421-.7539-.07421-.07422v-2.74219l2.77343 2.8164-.09375 4.4375-2.33593 4.4375-.34375.4336-1.96094-.4336-2.47656-.45702"/><path fill="#00e8fc" fill-rule="evenodd" d="M330.41016 450.01563l-.11329-.75391.11329-.07422.07421.07422-.07421.7539"/><path fill="#50fcfc" fill-rule="evenodd" d="M370.03906 467.01563l-1.94531-4.44141 2.26172-2.29297 4.4375-.77344v2.57422l-1.625.49219-1.51953 4.4414 3.14453 3.83985 3.6914.59765.75.1875.19922-.1875 1.8711-4.4375-2.07031-2.29296-3.77735-2.14844-.66406-.49219v-2.57422l4.11719 3.0664.32421.1836 3.84375 4.25781-.93359 4.4375-2.91015 2.73829-4.44141-.57813-3-2.16015-1.4375-4.08594-.3164-.35156"/><path fill="#00e8fc" fill-rule="evenodd" d="M374.79297 470.85547l-3.14453-3.83985 1.51953-4.4414 1.625-.49219v3.4961l-.9336 1.4375.9336 1.14062 2.60156-1.14063-2.60156-1.4375v-3.49609l.66406.49219 3.77735 2.14844 2.0703 2.29296-1.87109 4.4375-.19921.1875-.75-.1875-3.69141-.59765"/><path fill="#00d4fc" fill-rule="evenodd" d="M374.79297 468.15625l-.9336-1.14063.9336-1.4375 2.60156 1.4375-2.60156 1.14063"/><path fill="#50fcfc" fill-rule="evenodd" d="M379.83984 431.50781l-.4375-4.4375 4.26954-3.73828v1.2461l-2.84375 2.49218-.08204 4.4375 2.92579 2.9414 2.95312-2.9414 1.03516-4.4375-3.98829-2.49219v-1.24609l4.4375.82813 2.50782 2.91015-2.50781 2.46875-.56641 1.96875-3.8711 3.85547-3.83203-3.85547"/><path fill="#00e8fc" fill-rule="evenodd" d="M383.67188 434.44922l-2.92579-2.9414.08204-4.4375 2.84375-2.4922v2.07813l-.46875.41406-.94141 4.4375 1.41015 1.41797 1.42579-1.41797-.76954-4.4375-.65625-.41406v-2.07813l3.98829 2.4922-1.03516 4.4375-2.95313 2.9414"/><path fill="#00d4fc" fill-rule="evenodd" d="M383.67188 432.92578l-1.41016-1.41797.9414-4.4375.46875-.41406.65625.41406.76954 4.4375-1.42579 1.41797"/><g clip-path="url(#d)"><path fill="#50fcfc" fill-rule="evenodd" d="M386.75781 480.32813h1.8164l-.46483-.375-1.35157.375"/></g><path fill="#50fcfc" fill-rule="evenodd" d="M393.48438 427.07031l-.15625-4.4414 3.65625-4.3047 1.4414-.1328 3-.69532 4.4375-.95312 4.4375-1.20313 4.4375.23829v2.73046l-4.4375.14844-3.22656 4.17188-1.21094 1.98828-.90234-1.98828-3.53516-3.02344-4.4414.95312-1.75782 2.07032-.17187 4.4414 1.92969 2.02735 4.4414 1.05859 4.4375-1.61719 4.4375.73438 4.4375-.3164 4.4414-.4297 3.90235-1.45703-.41015-4.4414-3.4922-2.65235-4.4414-1.66797v-2.73046l4.4414 1.40234 1.4336 1.21094 3.0039 1.89062 2.86329 2.54688.46875 4.4414-3.33203 2.59375-4.4375.6914-4.4414.20704-4.4375.9375-4.4375-.47656-3.9922.48437-.4453.14063-.20313-.14063-4.23829-.76172-3.5-3.67578"/><path fill="#00e8fc" fill-rule="evenodd" d="M396.98438 429.09766l-1.9297-2.02735.17188-4.4414 1.75781-2.07032 4.44141-.95312v2.67969l-.9961.34375-1.51952 4.4414 2.51562.78516 1.53516-.78516-1.13281-4.4414-.40235-.34375v-2.6797l3.53516 3.02345.90234 1.98828 1.21094-1.98828 3.22656-4.17188 4.4375-.14844v2.76954l-3.14062 1.55078 3.14062 2.91406 2.79297-2.91406-2.79297-1.55079v-2.76953l4.4414 1.66797 3.4922 2.65235.41015 4.4414-3.90234 1.45703-4.4414.4297-4.4375.3164-4.4375-.73438-4.4375 1.61719-4.44142-1.0586"/><path fill="#00d4fc" fill-rule="evenodd" d="M401.42578 427.85547l-2.51562-.78516 1.51953-4.4414.9961-.34375.40233.34375 1.13282 4.4414-1.53516.78516"/><g clip-path="url(#e)"><path fill="#50fcfc" fill-rule="evenodd" d="M414.73828 475.32031l-3.52734-3.86719 3.52734-3.09375 4.4414-.73046v2.9414l-4.4414.01172-.99219.8711.9922 1.08593 1.67577 3.35156 2.76563 2.4336 4.4375.92969 4.4375-1.21875 4.42969-2.14454-4.4297-3.48046-4.4375-.8047-1.69921-.15233-2.73828-.88282v-2.9414l2.73437-.61329-1.41015-4.4414-1.32422-2.6289-.89844-1.8086.89844-2.58594 1.07031-1.85156-1.07031-1.10938-1.52344-3.32812-.17969-4.4414 1.70313-1.66798 4.4375-1.54687 1.33594-1.22266 3.10156-3.5039v2.53515l-.85938.96875-3.57812 3.27344-2.10156 1.16406 1.14843 4.4414.95313.96876 1.45703 3.46875-1.21485 4.4375 2.09375 4.4375 2.10157 1.03906v2.57422l-3.15235.82813 3.15235 1.49218 1.80469-1.49219-1.8047-.82812v-2.57422l4.4375 1.8164 4.4375-2 1.6211-.85546 2.82031-.45313 4.4375-.16406 4.4375.44922.29688.16797 2.72656 4.4414 1.3125 4.4375.10156.08985 4.44141.10937.2461-.19921 4.1914-2.41797 1.48047-2.01954 1.46875-4.4414-2.3164-4.4375-.63282-.66406-3.11719-3.77344-1.32031-1.61719-4.4414-.91406-.89844-1.90625-2.13672-4.4414-1.40235-1.3672-1.8828 1.3672-2.5547 2.0703-4.4375.62891-4.4414-.3789-4.4375.38671-2.57031-2.70703 1.58203-4.4375-3.44922-.96875v-2.53515l4.4375-.58594v8.48437l-.02344.04297.02344.02735.08203-.02735-.08203-.04297v-8.48437l2.80078 4.08984 1.63672 2.26953 4.4414.50782 4.4375 1.27734 4.4375-2.92188 3.39063 3.3047.92578 4.4414.1211.26172 4.4414.10937 3.32813 4.0664 1.10937 1.34376 2.9375 3.09375 1 4.4375-.67188 4.4414-3.23828 4.4375-.02734.03907-4.4375 3.60156-4.4414-.60938-3.38673-3.03125-1.05078-2.53125-1.27734-1.90625-3.16016-3.0078-4.4375.45702-4.4414 1.5-2.08203 1.05079-2.3125 4.4375 3.04687 4.4375-1.63281 4.4375h-3.29688l-2.59765-.69922-4.4375.26953-4.4375-.35156-4.15235-3.65625-.28906-.57032"/></g><path fill="#00d4fc" fill-rule="evenodd" d="M414.73828 425.54297l-3.14062-2.91406 3.14062-1.55079 2.79297 1.55079-2.79297 2.91406"/><path fill="#00e8fc" fill-rule="evenodd" d="M414.73828 472.53906l-.99219-1.08594.9922-.87109 4.4414-.01172 2.73828.88281 1.69922.15235v1.36719l-4.4375 2.07421-.44531.84375.4453.39063 4.4375 1.89844 4.07032-2.28906-4.07031-2.91797v-1.3672l4.4375.8047 4.42969 3.48046-4.4297 2.14454-4.4375 1.21875-4.4375-.9297-2.76562-2.43358-1.67578-3.35157"/><path fill="#00d4fc" fill-rule="evenodd" d="M419.17969 476.28125l-.44531-.39063.4453-.84375 4.4375-2.07421v1.37109l-2.58984 1.54688 2.58985 1.21484 2.16015-1.21485-2.16015-1.54687v-1.3711l4.07031 2.91798-4.07031 2.28906-4.4375-1.89844"/><path fill="#00c4fc" fill-rule="evenodd" d="M423.61719 477.10547l-2.58985-1.21485 2.58985-1.54687v1.36719l-.30078.17969.30078.14062.25-.14063-.25-.17968v-1.36719l2.16015 1.54688-2.16015 1.21484"/><path fill="#00e8fc" fill-rule="evenodd" d="M422.66406 449.26172l-1.14844-4.4414 2.10157-1.16407 3.57812-3.27344.85938-.96875 3.44922.96875-1.58204 4.4375 2.57032 2.70703 4.4375-.38671 4.4414.3789 4.4375-.6289 2.5547-2.07032 1.8828-1.36719v2.48047l-3.70312 3.32813-.73438.3789-4.4375.65235-4.4414.05078-4.4375.70313-3.42578-1.78516-1.01172-1.08594-.7461 1.08594.7461 2 .86719 2.4375-.8672 1.14062-1.6289 3.29688 1.6289 2.02344 2.97266-2.02344L432.4922 457l.91406 1.13672 3.52344 2.67578 4.4414.02344 4.4375-.3164 4.4375.10546 3.38282 1.94922 1.05468 1.34765 4.44141-.03515 4.4375 1.41406 1.3086-2.72656-1.3086-2.16406-4.4375-.94532-.35938-1.32812-4.08203-4.1211-.20312-.3164-1.99219-4.4375-2.24219-3.32813v-2.48046l1.40235 1.36718 2.13672 4.4414.89843 1.90626 4.44141.91406 1.32031 1.61719 3.11719 3.77344.63281.66406 2.3164 4.4375-1.46874 4.4414-1.48047 2.01954-4.1914 2.41796-.2461.19922-4.4414-.10937-.10157-.08985-1.3125-4.4375-2.72656-4.4414-.29688-.16797-4.4375-.44922-4.4375.16406-2.8203.45313-1.6211.85547-4.4375 2-4.4375-1.8164-2.10156-1.03907-2.09375-4.4375 1.21484-4.4375-1.45703-3.46875-.95313-.96875"/><path fill="#00b8fc" fill-rule="evenodd" d="M423.61719 476.03125l-.30078-.14063.30078-.17968.25.17969-.25.14062"/><path fill="#fff" fill-opacity="0" fill-rule="evenodd" d="M428.05469 466.1875l-3.15235.82813 3.15235 1.49218 1.80469-1.49219-1.8047-.82812"/><path fill="#00d4fc" fill-rule="evenodd" d="M428.05469 460.16016l-1.6289-2.02344 1.6289-3.29688.86719-1.14062-.8672-2.4375-.74609-2 .7461-1.08594 1.01172 1.08594 3.42578 1.78515 4.4375-.70312 4.4414-.05078 4.4375-.65235.73438-.3789 3.70312-3.32813v1.92188l-1.5625 1.40625-2.875 1.48828-4.4375.92188-4.4414.16015-4.13281 1.86719 3.52343 4.4375.60938.46484 4.4414.94531 4.4375-.46875 4.4375-.23437 4.4375-.59766.06641-.10937-.0664-.0664-2.8125-4.3711-.6797-4.4375-.9453-1.40625v-1.92188l2.24218 3.32813 1.99219 4.4375.20312.3164 4.08204 4.1211.35937 1.32812 4.4375.94532 1.3086 2.16406-1.3086 2.72656-4.4375-1.41406-4.4414.03515-1.0547-1.34765-3.3828-1.94922-4.4375-.10547-4.4375.3164-4.44141-.02343-3.52344-2.67578L432.49219 457l-1.46485 1.13672-2.97265 2.02344"/><path fill="#50fcfc" fill-rule="evenodd" d="M432.49219 418.41016l-.42969-.21875.42969-1.03516.25781 1.03516-.25781.21875"/><path fill="#fff" fill-opacity="0" fill-rule="evenodd" d="M432.49219 444.77734l-.02344.04297.02344.02735.08203-.02735-.08203-.04297"/><path fill="#00c4fc" fill-rule="evenodd" d="M436.32031 458.13672l-3.52344-4.4375 4.13282-1.86719 4.4414-.16015 4.4375-.92188v1.10938l-4.4375 1.1953-4.4414.26954-.82813.375.82813 1.07031 3.96094 3.36719.48046.125.96485-.125 3.47265-.76563 3.61329-3.67187-3.61329-1.83985V450.75l2.875-1.48828 1.5625-1.40625.94532 1.40625.67968 4.4375 2.8125 4.3711.06641.0664-.0664.10937-4.4375.59766-4.4375.23438-4.4375.46875-4.44141-.94532-.60938-.46484"/><path fill="#00b8fc" fill-rule="evenodd" d="M436.92969 454.76953l-.82813-1.07031.82813-.375 4.4414-.26953 4.4375-1.19531v1.10937l-2.44921.73047 2.44921 1.45312 1.4297-1.45312-1.4297-.73047v-1.10938l3.61329 1.83985-3.61329 3.67187-3.47265.76563-.96485.125-.48046-.125-3.96094-3.36719"/><path fill="#50fcfc" fill-rule="evenodd" d="M441.3711 437.25781l-1.76173-1.3125 1.76172-1.34765 2.5625-3.08985 1.875-1.71094 3.28125-2.72656 1.15625-1.17969v3.63282l-2.27343 1.98437 2.27343 1.25781 1.59375-1.2578-1.59375-1.98438v-3.63281l3.45313-3.26172.98437-1.58985 1.67579 1.58985 2.76562 3.1328.38672-3.1328.55078-4.4375 3.5-3.19922v3.98047l-2.7539 3.65625 2.7539 2.6953 3.16406-2.6953-3.16406-3.65625v-3.98047l3.625 3.19922.8086 2.01171v5.01563l-4.4336 1.375-3.32422.47656-1.11328.77344-4.4414 2.94531-.28907.71875-4.14844 3.28125-4.40234 1.15625-.03516.04297-4.4375 1.26953"/><path fill="#00a8fc" fill-rule="evenodd" d="M445.8086 455.15234l-2.44923-1.45312 2.44922-.73047 1.4297.73047-1.4297 1.45312"/><path fill="#00e8fc" fill-rule="evenodd" d="M450.2461 432.76563l-2.27344-1.25782 2.27343-1.98437 1.59375 1.98437-1.59375 1.25781m13.31641-7.4414l-2.7539-2.69531 2.7539-3.65625v2.86718l-.59375.78907.59375.58203.6836-.58203-.6836-.78907v-2.86718l3.16406 3.65625-3.16406 2.6953"/><path fill="#00d4fc" fill-rule="evenodd" d="M463.5625 423.21094l-.59375-.58203.59375-.78907.6836.78907-.6836.58203"/><g clip-path="url(#f)"><path fill="#fff" fill-opacity="0" fill-rule="evenodd" d="M467.9961 480.32813H468v-55.10938 55.10938h-.0039"/></g><path fill="#50fcfc" fill-rule="evenodd" d="M467.9961 420.20313v5.01562H468v-5.01172l-.0039-.0039"/><g clip-path="url(#g)"><path fill="#fff" fill-opacity="0" fill-rule="evenodd" d="M467.9961 311.67188H468v108.53906-108.53906h-.0039"/></g><path fill="#fff" fill-opacity="0" fill-rule="evenodd" d="M440.92578 467.70313l5.52735 1.88671 3.21484-9.42968-5.52735-1.88282-3.21484 9.42579"/><path fill-rule="evenodd" d="M446.85938 461.14063l.48437.16406-2.03516 5.95703-.74218-.2539 1.44921-4.25-1.3164-.44532.17969-.52734.55078.11718.25781.03125.2461-.0078.23827-.07032.23047-.14063.23047-.23437.22656-.33985"/><path fill="#fff" fill-opacity="0" fill-rule="evenodd" d="M244.8125 414.8086l.05469 5.83984 9.96094-.08985-.0547-5.83984-9.96093.08984"/><path fill-rule="evenodd" d="M252.97266 418.23438l.0039.5078-6.29297.0586-.0078-.78906 4.48827-.03906-.01172-1.39063.5547-.0039.0703.55859.0586.2539.08984.22657.14453.20312.21094.17188.29688.14062.39453.10156"/><g clip-path="url(#h)"><path fill="none" stroke="#000" stroke-linecap="round" stroke-linejoin="round" stroke-miterlimit="10" stroke-width=".5" d="M143.11328 483.72656l1.77344-6.79687"/></g><g clip-path="url(#i)"><path fill="none" stroke="#000" stroke-linecap="round" stroke-linejoin="round" stroke-miterlimit="10" stroke-width=".5" d="M158.33594 480.32813l-.01953-.19922-.0586-.19141-.09375-.17578-.45703-.3789-.1914-.0586-.19922-.01953-.19922.01953-.19531.0586-.45704.3789-.09375.17578-.05859.1914-.01953.19923.01953.19921.0586.19141.09374.17969.45703.375.19532.0586.19922.01952.19922-.01953.1914-.0586.45703-.375.09375-.17968.0586-.1914.01953-.19922"/></g><g clip-path="url(#j)"><path fill="none" stroke="#000" stroke-linecap="round" stroke-linejoin="round" stroke-miterlimit="10" stroke-width=".5" d="M169.30078 477.07813l2.66016 6.5039"/></g><g clip-path="url(#k)"><path fill="none" stroke="#000" stroke-linecap="round" stroke-linejoin="round" stroke-miterlimit="10" stroke-width=".5" d="M181.85938 477.5l4.17187 5.65625"/></g><path fill="none" stroke="#000" stroke-linecap="round" stroke-linejoin="round" stroke-miterlimit="10" stroke-width=".5" d="M182.46484 478.32422l.53125-1.10547"/><g clip-path="url(#l)"><path fill="none" stroke="#000" stroke-linecap="round" stroke-linejoin="round" stroke-miterlimit="10" stroke-width=".5" d="M195.44922 477.3164l3.6211 6.02344"/></g><path fill="none" stroke="#000" stroke-linecap="round" stroke-linejoin="round" stroke-miterlimit="10" stroke-width=".5" d="M195.44922 477.3164l1.26562-2.10156"/><g clip-path="url(#m)"><path fill="none" stroke="#000" stroke-linecap="round" stroke-linejoin="round" stroke-miterlimit="10" stroke-width=".5" d="M208.84766 477.26953l3.45703 6.11719"/></g><path fill="none" stroke="#000" stroke-linecap="round" stroke-linejoin="round" stroke-miterlimit="10" stroke-width=".5" d="M208.84766 477.26953l1.3203-2.07031"/><g clip-path="url(#n)"><path fill="none" stroke="#000" stroke-linecap="round" stroke-linejoin="round" stroke-miterlimit="10" stroke-width=".5" d="M221.8086 477.5l4.16406 5.66016"/></g><path fill="none" stroke="#000" stroke-linecap="round" stroke-linejoin="round" stroke-miterlimit="10" stroke-width=".5" d="M221.8086 477.5l1.0625-2.21484"/><g clip-path="url(#o)"><path fill="none" stroke="#000" stroke-linecap="round" stroke-linejoin="round" stroke-miterlimit="10" stroke-width=".5" d="M235.0039 477.59375l4.40626 5.47266"/></g><path fill="none" stroke="#000" stroke-linecap="round" stroke-linejoin="round" stroke-miterlimit="10" stroke-width=".5" d="M235.64453 478.38672l.48047-1.125"/><g clip-path="url(#p)"><path fill="none" stroke="#000" stroke-linecap="round" stroke-linejoin="round" stroke-miterlimit="10" stroke-width=".5" d="M248.23438 477.66016l4.57421 5.33593"/></g><path fill="none" stroke="#000" stroke-linecap="round" stroke-linejoin="round" stroke-miterlimit="10" stroke-width=".5" d="M248.89844 478.4375l.44922-1.14063"/><g clip-path="url(#q)"><path fill="none" stroke="#000" stroke-linecap="round" stroke-linejoin="round" stroke-miterlimit="10" stroke-width=".5" d="M261.75 477.5039l4.17188 5.65235"/></g><g clip-path="url(#r)"><path fill="none" stroke="#000" stroke-linecap="round" stroke-linejoin="round" stroke-miterlimit="10" stroke-width=".5" d="M280.20703 478.59766l-6.11328 3.46484"/></g><g clip-path="url(#s)"><path fill="none" stroke="#000" stroke-linecap="round" stroke-linejoin="round" stroke-miterlimit="10" stroke-width=".5" d="M293.41016 482.2461l-5.89063-3.83594"/></g><g clip-path="url(#t)"><path fill="none" stroke="#000" stroke-linecap="round" stroke-linejoin="round" stroke-miterlimit="10" stroke-width=".5" d="M307.22266 481.03516l-6.88282-1.41407"/></g><g clip-path="url(#u)"><path fill="none" stroke="#000" stroke-linecap="round" stroke-linejoin="round" stroke-miterlimit="10" stroke-width=".5" d="M306.22266 480.82813l.34375 1.17968"/></g><g clip-path="url(#v)"><path fill="none" stroke="#000" stroke-linecap="round" stroke-linejoin="round" stroke-miterlimit="10" stroke-width=".5" d="M319.2461 477.55078l-4.30079 5.5586"/></g><path fill="none" stroke="#000" stroke-linecap="round" stroke-linejoin="round" stroke-miterlimit="10" stroke-width=".5" d="M318.6211 478.35938l1.20702.20703"/><g clip-path="url(#w)"><path fill="none" stroke="#000" stroke-linecap="round" stroke-linejoin="round" stroke-miterlimit="10" stroke-width=".5" d="M328.60938 483.34766l3.60156-6.03516"/></g><g clip-path="url(#x)"><path fill="none" stroke="#000" stroke-linecap="round" stroke-linejoin="round" stroke-miterlimit="10" stroke-width=".5" d="M340.22656 480.64844l7-.64063"/></g><g clip-path="url(#y)"><path fill="none" stroke="#000" stroke-linecap="round" stroke-linejoin="round" stroke-miterlimit="10" stroke-width=".5" d="M353.55469 480.75l6.97265-.84375"/></g><g clip-path="url(#z)"><path fill="none" stroke="#000" stroke-linecap="round" stroke-linejoin="round" stroke-miterlimit="10" stroke-width=".5" d="M354.5664 480.6289l-.69921-1.0078"/></g><g clip-path="url(#A)"><path fill="none" stroke="#000" stroke-linecap="round" stroke-linejoin="round" stroke-miterlimit="10" stroke-width=".5" d="M368.9336 483.54297l2.84374-6.42578"/></g><g clip-path="url(#B)"><path fill="none" stroke="#000" stroke-linecap="round" stroke-linejoin="round" stroke-miterlimit="10" stroke-width=".5" d="M384.2461 483.79688l-1.14844-6.9336"/></g><g clip-path="url(#C)"><path fill="none" stroke="#000" stroke-linecap="round" stroke-linejoin="round" stroke-miterlimit="10" stroke-width=".5" d="M397.89844 483.72266l-1.82422-6.78516"/></g><g clip-path="url(#D)"><path fill="none" stroke="#000" stroke-linecap="round" stroke-linejoin="round" stroke-miterlimit="10" stroke-width=".5" d="M410.61328 483.82813l-.6211-7"/></g><g clip-path="url(#E)"><path fill="none" stroke="#000" stroke-linecap="round" stroke-linejoin="round" stroke-miterlimit="10" stroke-width=".5" d="M420.44922 481.85156l6.33203-3.04687"/></g><g clip-path="url(#F)"><path fill="none" stroke="#000" stroke-linecap="round" stroke-linejoin="round" stroke-miterlimit="10" stroke-width=".5" d="M421.3711 481.40625l-.98829-.72656"/></g><g clip-path="url(#G)"><path fill="none" stroke="#000" stroke-linecap="round" stroke-linejoin="round" stroke-miterlimit="10" stroke-width=".5" d="M433.42969 480.04297l7.0039.57031"/></g><g clip-path="url(#H)"><path fill="none" stroke="#000" stroke-linecap="round" stroke-linejoin="round" stroke-miterlimit="10" stroke-width=".5" d="M447.07031 481.82813l6.35547-3"/></g><g clip-path="url(#I)"><path fill="none" stroke="#000" stroke-linecap="round" stroke-linejoin="round" stroke-miterlimit="10" stroke-width=".5" d="M447.99219 481.39063l-.98047-.73438"/></g><g clip-path="url(#J)"><path fill="none" stroke="#000" stroke-linecap="round" stroke-linejoin="round" stroke-miterlimit="10" stroke-width=".5" d="M460.25781 481.52344l6.60547-2.39063"/></g><g clip-path="url(#K)"><path fill="none" stroke="#000" stroke-linecap="round" stroke-linejoin="round" stroke-miterlimit="10" stroke-width=".5" d="M460.25781 481.52344l-1.82031-1.64453"/></g><g clip-path="url(#L)"><path fill="none" stroke="#000" stroke-linecap="round" stroke-linejoin="round" stroke-miterlimit="10" stroke-width=".5" d="M140.8125 468.49219l6.375-2.95703"/></g><path fill="none" stroke="#000" stroke-linecap="round" stroke-linejoin="round" stroke-miterlimit="10" stroke-width=".5" d="M153.8789 466.28125L160.75 467.75m-5.8711-1.25781l-.33593-1.17969m13.46094-.63281l5.25 4.66797m-4.48438-3.98828l.28906-1.19141m13.51563-.39063l2.74219 6.47266m-2.34375-5.53125l.77343-.95313m12.10938.02735l2.8086 6.4414m-2.8086-6.4414l1.52734-1.92188m12.29297 1.7461l1.79688 6.79297m-1.79688-6.79297l1.80078-1.66797m11.89063 1.58984l1.04687 6.94922m-1.04687-6.94922l1.96875-1.46094m11.27734 1.47266l1.1836 6.92578m-1.01172-5.91797l.97265-.75m10.19531.8086l5.13672 4.79297m-4.39062-4.09766l.32031-1.1836m11.41406 3.76172l6.8047-1.7539m12.70312 3.01172l-5.58204-4.26953m4.76954 3.64843l-.19922 1.21094m14.70703-1.21094L287.29688 465.5m5.41796 2.58984l.05079 1.22266m14.49218-1.78906l-6.95312-1.01953m6.95312 1.01953l.82422 2.3125m11.6211-5.17578l-5.21485 4.70703m5.21485-4.70703l2.30859.83593m11.19922 3.64063l-5.60156-4.2461m4.78515 3.62891l-.19531 1.21094m15.03516-2.8711l-7.01954.3086m6-.26563l.625 1.0586m8.69532 2.22656l3.01172-6.34766m10.1953 6.29297l3.23048-6.23828m-2.76172 5.33203l-1.22656.01172m15.64062 1.28906l.09375-7.02734m-.08203 6.0039l-1.08984.5625m15.73828.21094L395.6875 463.75m2.21875 5.57812l-.79297.9375m11.95703.03907l2.46094-6.58203m-2.46094 6.58203l-2.42968.32031m15.15625-.60547l3.64062-6.01172m-3.64062 6.01172l-2.44922-.13672m16.79297.55469l1.58203-6.84766m-1.58203 6.84766l-2.3711.63672m13.1836-2.83594l6.58593-2.44922m-5.6289 2.09375l-.91407-.8125m13.28516 1.19922l6.5625-2.51172m-6.5625 2.51172l-1.85156-1.60937"/><g clip-path="url(#M)"><path fill="none" stroke="#000" stroke-linecap="round" stroke-linejoin="round" stroke-miterlimit="10" stroke-width=".5" d="M140.86328 455.27734l6.27344-3.15625"/></g><path fill="none" stroke="#000" stroke-linecap="round" stroke-linejoin="round" stroke-miterlimit="10" stroke-width=".5" d="M153.8125 453.4336l7.00781.52734m-5.98828-.44922l-.4961-1.125m13.85938-1.21875l4.8711 5.0625m-4.16407-4.32813l.38282-1.16406m13.96875-.48437l1.3828 6.89062m-1.18358-5.88672l.94921-.78125m12.41407-.26172l.88672 6.96875m-.75782-5.95703l1.0039-.70703m12.59376-.33594l.0664 7.02735m-.05859-6.0039l1.07813-.58595m13.01953-.35547l-1.51563 6.86329m1.29297-5.86329l1.1836-.32812m13.89453.10156l-4.59766 5.3164m3.92969-4.54296l1.19531.27344m14.0039 1.5664l-7.02734.09375m6.0039-.08203l.58985 1.07813m12.3086 1.79297l-4.14844-5.67188m3.54687 4.84375l-.53515 1.10547m14.58594-.3789l-4.41797-5.46876m3.77343 4.67188l-.48046 1.1289m15.5078-1.79687l-6.55077-2.53906m5.59765 2.16797l.14453 1.21875m13.95704-.48047l-6.21875-3.27344m6.21875 3.27344l.0078 2.45312m13.70704-4.23437l-7.01953.28906m7.01953-.28906l1.24219 2.11718m11.89453-3.08984l-6.66406 2.23047m6.66406-2.23047l1.78125 1.6914m-2.75-1.36718l.89062.84766m13.41797.98828l-6.71094-2.08594m6.71094 2.08594l.45703 2.41015m12.52344-1.65625l-6.03906-3.59375m5.16015 3.07032l-.05859 1.22656m11.05078 1.00781l.36328-7.01562m-.3125 5.99609l-1.10937.51953m15 .47656l-.89063-6.96875m.76172 5.95313l-1.0039.71094m13.08984.21484l1.82422-6.78906m-1.5586 5.80078l-1.1953.27344m14.1914.69921l1.92969-6.7578m-1.9297 6.7578l-2.39843.51172m15.67969-.52343l2-6.73438m-2 6.73438l-2.40625.48828m15.07422-.7539l3.29297-6.20704m-3.29297 6.20703l-2.45313.0039m14.44531-1.22656l5.9375-3.76171m-5.9375 3.76171l-2.1328-1.21093m15.35155 1.05078l6.12891-3.4375m-5.23437 2.9375l-1.03516-.66406"/><g clip-path="url(#N)"><path fill="none" stroke="#000" stroke-linecap="round" stroke-linejoin="round" stroke-miterlimit="10" stroke-width=".5" d="M146.47266 442.88281l-4.94532-4.9961"/></g><path fill="none" stroke="#000" stroke-linecap="round" stroke-linejoin="round" stroke-miterlimit="10" stroke-width=".5" d="M145.7539 442.15234l-.36718 1.17188m14.28125-.33203l-4.70703-5.21875m15.85156-.89844l-.36719 7.01562m.3164-5.99609l1.10938-.51562m11.88282-.50391l.3828 7.01562m-.32812-5.99609l1.05078-.63281m12.72657-.375l-.65235 6.9961m.5586-5.98048l1.1289-.47265m13.08985-.3711l-2.26953 6.64844m1.9375-5.67969l1.21093-.1953m14.44141.97265l-6.28125 3.15625m5.36719-2.69532l1 .71094m13-1.5586l-5.82422 3.9297m4.97656-3.35547l1.08594.57422m13.53906-.16407l-6.75 1.96094m5.76953-1.67578l.85547.88281m13.07422 1.6289l-6.01563-3.6328m6.01563 3.6328l-.13281 2.44923m12.26562-1.26172l-3.65234-6.0039m3.65234 6.0039l-1.2539 2.10937m15.6914-3.20312l-5.89844-3.82031m5.04297 3.26562l-.10547 1.22266m14.30079-.70313l-5.94532-3.7461m5.94532 3.7461l-.1797 2.44531m13.82813-3.1289l-6.61328-2.3789m6.61328 2.3789l.34766 2.42969m-1.3086-2.77735l.17188 1.21485m14.16406-1.05079l-6.73437-2.01171m6.73437 2.01171l.48438 2.40625m-1.46485-2.69921l.2422 1.20312m14.04687-.88672l-6.71875-2.0586m6.71875 2.0586l.46484 2.40625m-1.4414-2.70703l.23046 1.20313m12.69532.96093l-3.98829-5.78515m3.41016 4.9414l-.5664 1.08985m15.02734-.73438l-5.125-4.8086m4.3789 4.10938l-.3203 1.1836m13.05859.39843l-2.47657-6.57812m2.1172 5.6211l-.8125.92187m12.39062.15234l1.71484-6.8125m-1.46484 5.82422l-1.19141.29297m13.17187.21875l3.88282-5.85938m-3.3164 5.00782l-1.22267-.1211m14.71094 1.34375l2.40235-6.60156m-2.05079 5.64453l-1.21484.16797m13.53906.48047l3.6836-5.98438m-3.6836 5.98438l-2.44922-.15625m15.3125-.17578l4.58594-5.32031m-4.58594 5.3203l-2.39453-.53905m3.0625-.23438L447.42187 442m12.9922-.05469l6.29687-3.125m-6.29688 3.125l-1.9961-1.42969"/><g clip-path="url(#O)"><path fill="none" stroke="#000" stroke-linecap="round" stroke-linejoin="round" stroke-miterlimit="10" stroke-width=".5" d="M146.64063 429.38281l-5.28125-4.6289"/></g><path fill="none" stroke="#000" stroke-linecap="round" stroke-linejoin="round" stroke-miterlimit="10" stroke-width=".5" d="M145.875 428.71094l-.28125 1.19531m14.82422-1.1914l-6.20703-3.29298m5.30469 2.8125l.0039 1.22657m13.76563-.08985l-5.3086-4.60547m19.48047 2.37891l-7.02344-.14844m6.00391.125l.55078 1.09375m13.20313-3.08203l-5.86328 3.8711m5.86328-3.8711l2.15625 1.17188m11.28515-.96485l-6.11719 3.45704m6.1172-3.45704l2.0703 1.32032m10.33985-2.3711l-4.30469 5.5586m3.67578-4.75l1.21094.21093m14.0586 2.26954l-6.95313-1.01954m5.9414.8711l.41016 1.15625m13.39063.38672l-5.90625-3.8086m5.04687 3.2539l-.10156 1.22266m13.11328.44922l-3.58203-6.04297m3.0625 5.16407l-.63672 1.04687m13.77344.15235l-2.17969-6.6836m1.85938 5.71094l-.84766.88281m14.48047.08985l-2.17969-6.6836m1.86328 5.71094l-.85156.88281m14.54687.0664L302.625 423.75m1.97266 5.67188l-.83204.89843m15.9297-.88672L314.5 424.70313m5.19531 4.73046l-.60937 2.37891m14.29687-2.86719l-5.9414-3.7539m5.9414 3.7539l-.1836 2.44532m13.71485-2.84375l-6.375-2.95704m5.44922 2.52735l.0664 1.22265m12.9922.61329l-4.01172-5.76954m3.42578 4.9297l-.5586 1.09374m9.53516-1.1836l5.83984-3.91015m-4.99218 3.33985l-1.08204-.57813m13.63672-2.88672l5.66407 4.16016m-4.83985-3.55469l.17578-1.21484m18.65235 2.92968l-7.01172-.48046m5.99219.41015l.5 1.1211m7.64062.96875l5.3789-4.51954m-4.59765 3.86329l-1.13672-.46094m13.82813-3.57813l5.0625 4.8711m-4.32813-4.16407l.33594-1.17968m11.54687 1.52343l6.45704 2.76954m-6.45704-2.76954l-.20703-2.4453m13.29297 4.4453l6.91797-1.23046m-5.91406 1.05078l-.7539-.96485m13.05468 1.08594l6.9375-1.11328m-6.9375 1.11328l-1.48047-1.95703"/><g clip-path="url(#P)"><path fill="none" stroke="#000" stroke-linecap="round" stroke-linejoin="round" stroke-miterlimit="10" stroke-width=".5" d="M146.89453 415.74219l-5.78906-3.98047"/></g><path fill="none" stroke="#000" stroke-linecap="round" stroke-linejoin="round" stroke-miterlimit="10" stroke-width=".5" d="M146.05469 415.16406l-.14063 1.21875m13.89453-.15625l-4.98828-4.94922m4.26172 4.23047l-.35156 1.17578m15.3789-2.42968l-6.95703-1m5.94532.85546l.41406 1.15235m13.92187-1.09375l-6.97656-.82813m5.96094.70703l.44531 1.14454m13.67188-2.71485l-6.54688 2.55078m5.59375-2.17968l.92969.80078m10.83594-3.32031l-1.54688 6.85156m17.58203-3.79688l-6.98437.74219m5.96875-.63672l.6875 1.01953m13.13672 1.09766l-5.97266-3.70313m5.10547 3.16407l-.08203 1.22265m13.86719-.16015l-5.1797-4.75m4.42579 4.05859l-.30469 1.1875m13.72266.0586l-3.875-5.86329m3.3086 5.01172l-.58595 1.07813m14.00782.03125l-2.95313-6.375m2.52344 5.44921l-.74219.97657m13.44922.2461l-.8789-6.97267m.75 5.96094l-1.00391.70703m14.375.3125l-.73438-6.98828m.6289 5.97266l-1.01952.6875m14.66015.30078l-1.17578-6.92969m1.0039 5.92188l-.96874.7461m13.55078.29687l.63672-7m-.54688 5.98046l-1.1289.47657m15.14843.52343l-.95312-6.96093m.8125 5.94922l-.9961.71484m15.47657-.00781l-3.0039-6.35157m11.41015 4.03125l6.8164-1.71093m-5.82421 1.46093l-.82422-.91015m13.45703-1.35547l6.19531 3.32031m-5.29297-2.83594l.0039-1.22656m13.78516-.66406l3.44141 6.1289m-2.9414-5.23437l.66406-1.03516m14.86328-.16406l-1.98438 6.74219m1.98438-6.74219l2.40234-.49219m9.75781.35157l.32813 7.01953m-.32813-7.01953l2.10938-1.25m9.23828 1.96875l4.26172 5.58593m-3.64063-4.77343l.51172-1.11719m11.4375 1.07812l5.75 4.03907m-4.91406-3.45313l.15234-1.21484m11.7422 2.04687l6.92187 1.20313m-5.91797-1.02735l-.3789-1.16796"/><g clip-path="url(#Q)"><path fill="none" stroke="#000" stroke-linecap="round" stroke-linejoin="round" stroke-miterlimit="10" stroke-width=".5" d="M147.16016 401.96875l-6.32032-3.0625"/></g><path fill="none" stroke="#000" stroke-linecap="round" stroke-linejoin="round" stroke-miterlimit="10" stroke-width=".5" d="M146.24219 401.52344l.04687 1.22656m14.05469-.53125l-6.0586-3.5625m5.17579 3.04297l-.05078 1.22656m14.37109-.9375l-6.30469-3.10156m5.38672 2.65234l.03906 1.22656m14.46875-3.11328l-6.85156 1.57032m17.05078-4.28516l-.61719 7m11.23438-.92188l4.77344-5.15625m-4.07813 4.40625l-1.1875-.3125m19.00781.58985l-5.6289-4.20703m4.8125 3.59375l-.1875 1.21094m14.92578-1.88672l-6.83594-1.62891m5.83985 1.39063l.30859 1.1875m13.9414-.72657l-6.71484-2.07422m5.73828 1.76954l.23047 1.20703m13.11719.61328l-4.82813-5.10547m17.71485 5.44922l-3.97266-5.79688m16.0586 6.33203l-1.51172-6.86328M291 402.8711l-.9336.79688m11.9922-.16797l3.4453-6.125m-2.9453 5.23438l-1.22657-.02735m14.94531 1.27344l1.63672-6.83594m-1.39844 5.83985l-1.1875.30859m13.35938.33203l3.44531-6.125m-2.9414 5.23438l-1.22657-.02735m15.50782 1.35938l.5078-7.00782m9.85938 4.95313l6.40235-2.89453m-5.47266 2.47265l-.96875-.75m14.98438-3.41796l3.14062 6.28515m-2.6836-5.3711l.71094-1m16.39063.94532L381 402.72265m12.47656-2.45702l7.01953.34765m-5.99609-.29687l-.52344-1.11329m13.9375-1.34375l4.77344 5.16016m-4.07813-4.41015l.40625-1.16016m14.875-.51172l-.55078 7.0039m.55078-7.0039l2.25391-.98047m11.21094.99219l-.84766 6.97656m.84766-6.97656l2.28906-.88281m11.29297.92578l-1.38281 6.89062m1.38281-6.89062l2.35156-.70313m6.76953 4.42969l7.00391-.5586m-5.98438.47657l-.66015-1.03516"/><g clip-path="url(#R)"><path fill="none" stroke="#000" stroke-linecap="round" stroke-linejoin="round" stroke-miterlimit="10" stroke-width=".5" d="M146.4961 389.59375l-4.9922-4.9414"/></g><path fill="none" stroke="#000" stroke-linecap="round" stroke-linejoin="round" stroke-miterlimit="10" stroke-width=".5" d="M145.76953 388.875l-.35156 1.17578m14.98047-1.24219l-6.16797-3.37109m5.26953 2.8789l-.01172 1.22657m14.6289-1.97656l-6.97265-.88672m5.95703.75781l.4336 1.14844m13.38672-3.33203l-5.95313 3.73828m5.08594-3.19531l1.0625.61328m11.78515 3.8203l-3.28515-6.21483M213 389.66796l-4.84766-5.08985M213 389.66798l-.77344 2.32812m14.64063-3.0078l-5.95313-3.73048M226 388.44531l-.08594 1.22266m14.80078-2.33985l-7.01562-.41015m5.99219.35156l.51172 1.11719m12.91406 1.10547l-5.1914-4.73438m18.64062 4.57813l-5.46094-4.42578m4.66406 3.78125l-.23437 1.20312m12.63672-2.76953l-.01954-.20313-.05859-.1914-.09375-.17578-.45703-.375-.1914-.0586-.19923-.01953-.19922.01953-.1953.0586-.45704.375-.09375.17578-.0586.1914-.01952.20313.01953.19922.0586.1914.09374.17579.45703.375.19532.05859.19921.01953.19922-.01953.1914-.0586.45704-.375.09375-.17577.0586-.19141.01953-.19922m9.08203 1.42188l6.42578-2.84766m7.66797 3.95703l4.86718-5.0664m-4.16015 4.33202l-1.17969-.33593m12.92578-.25l6.59375-2.42578m-5.63672 2.07421l-.91406-.8164m13.4414 1.5586l6.25391-3.20704m-5.34375 2.73828l-1.00781-.69922m14.08984 2.08594l4.89844-5.04297m-4.1875 4.3086l-1.17578-.33985m13.61328.89844l5.23047-4.6914m-4.46875 4.0078l-1.15234-.42187m14.66406-4.33984l3.3125 6.19922m12.16406-6.57813l-1.00781 6.95703m.85937-5.94531l1.15625-.41406m14.16797.28125l-4.73047 5.19922m4.03907-4.44141l1.1914.30078m11.39453-1.84375l-1.88671 6.76953m1.60937-5.78515l1.19922-.26172m11.1914-.83985l.51563 7.00782m-.4414-5.98829l1.03906-.65625m11.65625-.28125l1.60547 6.83985m-1.60547-6.83985l1.84765-1.61718m10.90625 1.80078l2.73047 6.47265m-2.73047-6.47265l1.54688-1.90235m11.91797 1.83985l2.42578 6.59765m-2.42578-6.59765l1.63672-1.82813"/><g clip-path="url(#S)"><path fill="none" stroke="#000" stroke-linecap="round" stroke-linejoin="round" stroke-miterlimit="10" stroke-width=".5" d="M144.48828 377.28906l-.97656-6.96094"/></g><g clip-path="url(#T)"><path fill="none" stroke="#000" stroke-linecap="round" stroke-linejoin="round" stroke-miterlimit="10" stroke-width=".5" d="M144.48828 377.28906l-1.98437 1.4414"/></g><path fill="none" stroke="#000" stroke-linecap="round" stroke-linejoin="round" stroke-miterlimit="10" stroke-width=".5" d="M160.32031 375.625l-6.01172-3.63672m5.13672 3.10938l-.0664 1.22656M173.75 372.1914l-6.23828 3.23437m6.23828-3.23437l2.01953 1.39062m11.3711-1.23828l-6.39063 2.92969m5.46094-2.5039l.97265.74608m13.55078-.23828l-6.94921 1.0625m5.9375-.90625l.73437.98438m11.77344 2.48828l-3.3125-6.19531m2.83203 5.29297l-.6836 1.01953m16.17188-2.14844l-6.69531-2.13672m5.71875 1.82813l.22266 1.20703m14.15625-1.22656l-6.8711-1.47657m6.8711 1.47656l.67187 2.35938m12.65234-2.39844l-6.88672-1.39844m6.88672 1.39844l.69532 2.35156m12.65625-2.5625l-6.96094-.97656m5.94531.83594l.42188 1.15234m13.90234-2.01562l-6.94922 1.03125m5.9375-.88281l.73047.98828m13.60938-.19922l-6.97657-.84375m5.96094.72265l.4414 1.14454m11.1875 1.98046l-1.5703-6.85156m11.46484 5.75l5.26953-4.64844m-4.5039 3.97266l-1.14844-.42969m13.35156.64063l5.96094-3.71875m-5.09375 3.17969l-1.0625-.6172m13.53515 1.19142l5.91406-3.79297m-5.91406 3.79296l-2.14062-1.19921m15.4453 1.1875l5.9336-3.76954m-5.07031 3.22266l-1.0664-.60547m19.60937.8789l-6.2461-3.21874m6.2461 3.21875l.03125 2.45312m13.47265-5.23046l-6.6289 2.33203m5.66406-1.9922l.90625.83204m11.54297-3.1875l-2.96484 6.36719m2.53515-5.4414l1.22656-.06642m10.51172-1.14843l1.04688 6.94531m-.89453-5.9375l.98437-.73047m11.28906-.02344l2.82813 6.4336m-2.82813-6.4336l1.51954-1.92578m11.30468 2.1914l3.8086 5.90626m-3.8086-5.90625l1.19922-2.14063m11.6914 2.46094l4.65626 5.26563m-4.65625-5.26563l.85937-2.29687m-.17968 3.0625l.42968-1.14844m13.14454-.21094l2.78125 6.45313m-2.78125-6.45313l1.53125-1.91406"/><g clip-path="url(#U)"><path fill="none" stroke="#000" stroke-linecap="round" stroke-linejoin="round" stroke-miterlimit="10" stroke-width=".5" d="M143.94531 364.00781l.10938-7.02734"/></g><g clip-path="url(#V)"><path fill="none" stroke="#000" stroke-linecap="round" stroke-linejoin="round" stroke-miterlimit="10" stroke-width=".5" d="M143.94531 364.00781l-2.1836 1.11719"/></g><g clip-path="url(#W)"><path fill="none" stroke="#000" stroke-linecap="round" stroke-linejoin="round" stroke-miterlimit="10" stroke-width=".5" d="M143.96094 362.98438l-1.09375.55859"/></g><path fill="none" stroke="#000" stroke-linecap="round" stroke-linejoin="round" stroke-miterlimit="10" stroke-width=".5" d="M159.69922 363.07422l-4.76953-5.16016m4.76953 5.16016l-.8086 2.3164m15.22266-5.34375l-6.96875.89454m5.95703-.76563l.70703 1m13.64844-.63672l-7.02344-.09375m6.00391.08203l.5586 1.08985m13.77734-1.01953l-7.02344-.21094m7.02344.21094l1.08594 2.19921m11.71484-.47265l-5.9961-3.66406m5.9961 3.66406l-.14453 2.44922m13.30469-2.21485l-5.6875-4.1289m5.6875 4.1289l-.34375 2.4297m-.48438-3.03126l-.17188 1.21485m14.64063-1.16407l-6.33984-3.03125m6.33984 3.03125l.10547 2.45313m13.55469-3.9414l-7.02735-.05079m7.02735.05078l1.1328 2.17578m11.96876-3.41015l-6.60156 2.41406m5.64062-2.0625l.91406.82031m12.6875-2.29687l-5.2539 4.66796m4.48828-3.98828l1.15234.42579m12.76563-1.27735L288 362.9961m4.21094-4.27734l1.17968.34766m13.63282.07421l-6.48438 2.70313m5.54297-2.3086l.94531.77735m12.9375-1.84766l-5.73828 4.0547m4.90235-3.46485l1.09765.55469m8.42188 3.92187l3.52734-6.07813m13.1289 6.1797l-3.15624-6.27735m2.69531 5.36328l-.70703 1m15.4961-.85156l-5.1836-4.75m5.1836 4.75l-.6172 2.375m-.13671-3.0664l-.3086 1.1875m15.07422-1.62892l-6.57422-2.48046m5.61719 2.11718l.15625 1.21875m13.67969-4.14453l-5.70703 4.09766m4.8789-3.5039l1.09766.54687m11.13672-2.47656l-1.88672 6.76953m1.88672-6.76954l2.39843-.52734m9.72266.40625l.5039 7.00781m-.5039-7.0078l2.07813-1.3047m9.96875 1.64063l3.03515 6.33594m-3.03515-6.33594l1.45703-1.97656m12.32422 1.79296l2.10546 6.70313m-2.10546-6.70313l1.71875-1.74609m11.49609 1.78125l2.30469 6.63672m-2.30469-6.63672l1.66797-1.80078m12.51562 1.61719l.57032 7.0039m-.57032-7.0039l2.0625-1.32422"/><g clip-path="url(#X)"><path fill="none" stroke="#000" stroke-linecap="round" stroke-linejoin="round" stroke-miterlimit="10" stroke-width=".5" d="M144.5 350.65625l-1-6.95703"/></g><g clip-path="url(#Y)"><path fill="none" stroke="#000" stroke-linecap="round" stroke-linejoin="round" stroke-miterlimit="10" stroke-width=".5" d="M144.5 350.65625l-1.98047 1.44922"/></g><g clip-path="url(#Z)"><path fill="none" stroke="#000" stroke-linecap="round" stroke-linejoin="round" stroke-miterlimit="10" stroke-width=".5" d="M144.35547 349.64453l-.98828.72266"/></g><path fill="none" stroke="#000" stroke-linecap="round" stroke-linejoin="round" stroke-miterlimit="10" stroke-width=".5" d="M159.54688 349.89063l-4.46485-5.42579m4.46484 5.42579l-.9375 2.26562m15.47657-4.34766l-6.91406-1.26171m6.91406 1.26171l.7461 2.33594m12.21093-1.3086l-6.19531-3.3164m6.1953 3.3164l-.0078 2.45313m13.6289-3.24219l-6.8086-1.73437m6.8086 1.73438l.58203 2.3828m-1.5703-2.63671l.28905 1.1914m14.11328-1.51562l-7.0039-.58203m7.0039.58203l.96485 2.2539m-1.98438-2.33593l.48438 1.125m13.85937-1.29297l-7.02343-.08203m7.02343.08203l1.12891 2.17969m-2.14844-2.1914l.5625 1.08983m13.75781-1.44921l-6.99609.66406m6.9961-.66406l1.35156 2.04687m11.69922-3.09375l-6.46485 2.7539m6.46485-2.7539l1.90625 1.54297m10.76562-2.53906l-5.17969 4.7461m5.1797-4.7461l2.3125.82031m10.17577-1.48438l-3.52734 6.07422m3.52734-6.07421l2.45313.08984m10.27734-.36328l-2.35547 6.6211m2.01172-5.65626l1.21485-.17969m12.8828-.59375l-3.23437 6.23829m2.76172-5.33204l1.23047-.01171m13.8086.19921l-5.73829 4.0547m4.90235-3.46485l1.09765.55078m12.64453 3.39453l-4.91796-5.01953m4.91796 5.01953l-.74218 2.33984m13.69921-2.03125l-4.20312-5.6328m4.20313 5.6328l-1.05079 2.21875m14.98438-2.8125l-5.4414-4.44921m5.4414 4.44921l-.48047 2.40625m14.58984-4.67578l-7.02734.08985m7.02734-.08985l1.17579 2.15235m11.01171-4.6836l-4.77343 5.15235m4.77343-5.15235l2.3711.625m-3.0664.125l1.1875.3125m11.18358-1.91797l-1.49609 6.86329m1.4961-6.86329l2.36328-.66406m-2.58204 1.66016l1.1836-.33203m11.4961-.7422l.21093 7.02345m-.21094-7.02344l2.13281-1.21875m-2.10156 2.23828l1.0664-.60547m13.01954-.34765l-1.39063 6.88671m1.1875-5.88671l1.17579-.34766m14.26562.45312l-5.24219 4.6797m4.48047-4l1.15235.42577m13.11718-.8711l-5.625 4.20704m5.625-4.20703l2.22266 1.04297m-3.03906-.42969l1.10937.51953m12.36719-1.80078l-4.3125 5.54688"/><g clip-path="url(#aa)"><path fill="none" stroke="#000" stroke-linecap="round" stroke-linejoin="round" stroke-miterlimit="10" stroke-width=".5" d="M465.71875 344.40625l2.41797.41797"/></g><path fill="none" stroke="#000" stroke-linecap="round" stroke-linejoin="round" stroke-miterlimit="10" stroke-width=".5" d="M465.08984 345.21094l1.21094.21094"/><g clip-path="url(#ab)"><path fill="none" stroke="#000" stroke-linecap="round" stroke-linejoin="round" stroke-miterlimit="10" stroke-width=".5" d="M145.71484 336.92969l-3.42968-6.13281"/></g><path fill="none" stroke="#000" stroke-linecap="round" stroke-linejoin="round" stroke-miterlimit="10" stroke-width=".5" d="M145.71484 336.92969l-1.33203 2.0625"/><g clip-path="url(#ac)"><path fill="none" stroke="#000" stroke-linecap="round" stroke-linejoin="round" stroke-miterlimit="10" stroke-width=".5" d="M145.21484 336.03906l-1.32812 2.0625"/></g><path fill="none" stroke="#000" stroke-linecap="round" stroke-linejoin="round" stroke-miterlimit="10" stroke-width=".5" d="M159.78125 336.36719l-4.9336-5.00781m4.9336 5.0078l-.73438 2.33985m.01563-3.07031l-.36719 1.17187m14.97266-1.17968l-6.07422-3.53125m6.07422 3.53125l-.08984 2.44921m-.79297-2.96484l-.04688 1.22656m14.10938-.49609l-5.8047-3.96094m5.8047 3.96094l-.26953 2.4375m13.8203-2.83594l-6.27734-3.16406m6.27735 3.16406l.05469 2.45313m-.96875-2.91406l.02734 1.22656m14.5586-2.71485l-6.98829.73438m6.98828-.73438l1.3711 2.03516m-2.38672-1.92969l1.3711 2.03516m12.78905-2.91406l-6.64843 2.28125m6.64843-2.28125l1.79297 1.67578m-2.76172-1.34375l1.79297 1.67578m12.28906-2.48047l-6.24218 3.22656m6.24219-3.22656l2.01562 1.39453m-2.92578-.92578l1.00781.69922m12.79688-1.79688l-5.40625 4.48438m5.40625-4.48438l2.27343.9297m-3.05859-.27735l1.13672.46484m12.22656-1.78515l-3.9336 5.8203m3.9336-5.8203l2.4414.2578m-3.01171.58985l1.21875.1289m11.41797-1.5078l-1.4336 6.8828m1.4336-6.8828l2.35547-.6836m10.51562.6211l-.54687 7.0078m.46875-5.98827l1.125-.48829m14.33984.35547l-4.6875 5.23438m4.0039-4.47266l1.19141.29297m13.96485 1.83985l-7.00391-.5547m7.0039.5547l.98048 2.25m11.97656-.95704l-6.28516-3.14062m6.28516 3.14062l.0586 2.45313m-.97267-2.91016l.02735 1.22656m14.08594-.55468l-6.0547-3.57031m6.0547 3.5703l-.10938 2.44923m13.58594-2.76172l-6.3789-2.94531m5.45312 2.51562l.0664 1.22656m13.16407-5.02734l-4.35938 5.51562m4.35938-5.51562l2.41406.4414m10.52344-.69921l-3.60157 6.03125m3.60157-6.03125l2.44921.12109m-2.97265.7539l2.44922.125m10.17578-1.44921l-1.17578 6.92969m1.17578-6.9297l2.33203-.76952m-2.5 1.77734l1.16406-.38672m11.78906-.66797l-.11328 7.02344m.11329-7.02344l2.18359-1.11719m14.46484 5.53907l-6.78515-1.82422m5.80078 1.5625l.27344 1.19531m14.13671-1.55469l-7.0039-.57812m7.0039.57812l.96875 2.25391M453.48438 332.5l-6.47657 2.72656m6.47656-2.72656l1.90235 1.55078m-2.84375-1.15625l1.90234 1.55078m11.65235-3.01172l-5.07422 4.85938"/><g clip-path="url(#ad)"><path fill="none" stroke="#000" stroke-linecap="round" stroke-linejoin="round" stroke-miterlimit="10" stroke-width=".5" d="M466.09766 331.4336l2.33203.76952"/></g><path fill="none" stroke="#000" stroke-linecap="round" stroke-linejoin="round" stroke-miterlimit="10" stroke-width=".5" d="M465.35938 332.14063l2.33203.76953"/><g clip-path="url(#ae)"><path fill="none" stroke="#000" stroke-linecap="round" stroke-linejoin="round" stroke-miterlimit="10" stroke-width=".5" d="M146.6289 322.8789l-5.2578-4.66015"/></g><path fill="none" stroke="#000" stroke-linecap="round" stroke-linejoin="round" stroke-miterlimit="10" stroke-width=".5" d="M146.6289 322.8789l-.57421 2.38673m-.1914-3.06641l-.57423 2.38672m-.1914-3.0625l-.28516 1.1914m14.92578.37891l-4.84766-5.08984m4.84766 5.08984l-.77344 2.32813m.06641-3.07032l-.77344 2.32813m13.86719-.95313l-2.99219-6.35937m2.99219 6.35937l-1.46875 1.96485m15.5039-2.41797l-4.42968-5.45313m4.42969 5.45313l-.95313 2.26172m15.23828-3.5l-6.36719-2.97266m6.3672 2.97266l.125 2.44921m-1.0547-2.8828l.06641 1.22656m14.48438-2.6797l-6.98047.80079m6.98047-.80078l1.39062 2.01953m11.09766-3.91016l-5.32813 4.58203m5.32813-4.58203l2.28515.89063m11.08985-.82031l-5.44531 4.4414m5.4453-4.4414l2.26173.94921m-3.0547-.30468l1.12892.47656m12.55859-1.55469l-4.60547 5.3086m4.60547-5.3086l2.39062.55078m-3.0625.22266l1.19532.27344m12.07422-1.52735L262.25 323.6836m3.17188-6.26953l2.45312-.05078m-2.91406.96094l1.22656-.02344m12.4375-.9414l-2.94922 6.3789m2.94922-6.3789l2.44922-.14063m11.07422.24219l-3.36328 6.17187m2.87109-5.27344l1.22656.01172m13.53516 4.4961l-5.27735-4.64063m4.51172 3.96485l-.28125 1.1953m15.03907-1.67577l-6.62891-2.32813m6.6289 2.32813l.3711 2.42578m-1.33594-2.76172l.1875 1.21094m14.20313-1.25l-6.84766-1.57422m6.84766 1.57422l.63672 2.3711m-1.63282-2.60157l.31641 1.1875m14.04297-2.26953l-6.94922 1.05078m6.94922-1.05078l1.46484 1.96875m-2.47656-1.8164l.73437.98437m13.02344-2.58985l-5.8086 3.95703m5.8086-3.95703l2.17188 1.14063m-3.01563-.5664l1.08594.5703m12.35547-1.91796l-4.3711 5.5m4.3711-5.5l2.41015.4453m10.10547-.92187l-2.77343 6.45703m2.77343-6.45703l2.44532-.20312m-2.85157 1.14062l1.22266-.10156m12.29297-.91797l-2.36328 6.61719m2.36328-6.61719l2.42969-.35547m-2.77344 1.32031l1.21484-.17968m11.82422-.94531l-1.125 6.9375m1.125-6.9375l2.32422-.78907m11.05469 7.71485l-1.2539-6.91407m1.2539 6.91407l-1.92578 1.51953m17.15625-2.55078l-5.08204-4.85157m5.08204 4.85157l-.66407 2.36328m14.83594-5.67969l-6.79687 1.78516m6.79687-1.78516l1.66406 1.80078m-2.65234-1.54297l.83203.90235m12.1875-3.07422l-4.23047 5.60937"/><g clip-path="url(#af)"><path fill="none" stroke="#000" stroke-linecap="round" stroke-linejoin="round" stroke-miterlimit="10" stroke-width=".5" d="M465.67578 317.74219l2.42578.38281"/></g><path fill="none" stroke="#000" stroke-linecap="round" stroke-linejoin="round" stroke-miterlimit="10" stroke-width=".5" d="M465.0625 318.5586l2.42188.3828m-3.03907.4336l1.21094.1914"/><path fill="#00f" fill-rule="evenodd" d="M383.80078 432.14063h8.61719v-10.14454h-8.61719v10.14454"/><path fill="azure" fill-rule="evenodd" d="M385.63281 423.82813h.83203v2.82421h3.28907v-2.82421h.83203v6.48046h-.83203v-2.91796h-3.28907v2.91796h-.83203v-6.48046"/><path fill="#00f" fill-rule="evenodd" d="M361.60938 401.07422h8.61718v-10.14844h-8.61719v10.14844"/><path fill="azure" fill-rule="evenodd" d="M363.4414 392.76172h.83204v2.82031h3.28906v-2.82031h.83203v6.47656h-.83203v-2.91406h-3.28906v2.91406h-.83203v-6.47656"/><path fill="#ff3030" fill-rule="evenodd" d="M202.52344 374.4414h7.6914v-10.14452h-7.6914v10.14453"/><path fill="azure" fill-rule="evenodd" d="M204.35547 366.1289h.83203v5.7422h3.19531v.73827h-4.02734v-6.48046"/><path fill="#ff3030" fill-rule="evenodd" d="M286.85156 370.0039h7.6914v-10.14452h-7.6914v10.14453"/><path fill="azure" fill-rule="evenodd" d="M288.6836 361.6914h.83202v5.73829h3.19532v.74219h-4.02735v-6.48047"/><path fill="#ffffe0" fill-rule="evenodd" d="M358.0586 348.04297h22.17968v-10.1914H358.0586v10.1914"/><path fill-rule="evenodd" d="M361.5586 339.6836h.5078v6.29687h-.78906v-4.49219h-1.38671v-.55469l.55859-.0625.2539-.05468.23047-.08985.20313-.14062.17187-.21094.14063-.29297.10937-.39844m4.8125 0l.23047.01954.21875.05468.20703.08985.19532.12109.18359.15234.17188.17579.30078.41796.24609.4922.17969.54687.10937.57812.03906.59375-.03906.59375-.10937.58203-.17969.55469-.2461.5-.30077.42969-.17188.17969-.1836.15234-.1953.125-.20704.08984-.21875.0586-.23047.01953-.23046-.01953-.21875-.0586-.20704-.08984-.1953-.125-.1875-.15235-.16798-.17968-.30469-.42969-.24218-.5-.17969-.55469-.11328-.58203-.03516-.59375h.83203l.02735.5625.08203.5039.1289.44532.16016.375.1914.30078.21094.21875.22266.13672.22656.04688.22657-.04688.22265-.13672.21094-.21875.1914-.30078.16016-.375.125-.44531.08203-.5039.03125-.5625-.03125-.5625-.08203-.5-.125-.4336-.16015-.36719-.19141-.29297-.21094-.21484-.22265-.1289-.22657-.04688-.22656.04687-.22265.1289-.21094.21485-.1914.29297-.16017.36719-.1289.4336-.08203.5-.02735.5625h-.83203l.03516-.59376.11328-.57812.17969-.54688.24219-.49219.30468-.41796.16797-.17579.1875-.15234.19531-.1211.20704-.08984.21875-.05469.23046-.01953m5.08985 0h.51172v6.29688h-.78907v-4.49219h-1.38671v-.55469l.55859-.0625.2539-.05468.22657-.08985.20312-.14062.17578-.21094.14063-.29297.10547-.39844m2.82422 2.17579h.78906l.01953-.31641.0586-.28516.09765-.2539.14063-.21485.17968-.17187.22266-.1289.26562-.08204.3086-.02734.23828.02343.22265.0625.20704.10157.17968.13671.14844.17188.11328.20703.07031.23438.02344.26562-.01953.26953-.0664.22266-.10938.19531-.15625.16797-.19922.16406-.25.16406-.63281.39063-.53906.3125-.4375.3164-.34375.32423-.26563.33593-.1875.35156-.125.3711-.07031.39062-.01953.42188h4.21094v-.74219h-3.33204l.08204-.28515.11328-.23438.14843-.20313.1875-.17968.23047-.17188.27735-.17578.71875-.41406.41406-.20703.34765-.23047.28125-.25.21875-.26953.16407-.27735.10937-.28515.0625-.28516.02344-.28125-.04297-.38281-.1211-.34766-.1875-.3086-.25-.26171-.30468-.21094-.34375-.16015-.38281-.09766-.40625-.03516-.4336.03516-.39843.09766-.35547.16796-.30469.23438-.2461.30078-.1875.375-.11718.44531-.03906.51954"/><path fill="#ffffe0" fill-rule="evenodd" d="M177.52344 329.98828h22.1836v-10.19531h-22.1836v10.19531"/><path fill-rule="evenodd" d="M181.02344 321.6289h.51172v6.29298h-.78907v-4.48829h-1.38672v-.55859l.5586-.0625.25-.05469.23047-.08984.20312-.14063.17578-.21093.14063-.29297.10547-.39453m4.8125 0l.23047.01562.21875.0586.20703.08984.19922.11719.18359.15234.17188.17578.30078.41797.24218.4961.1797.54296.11327.58203.03906.58985-.03906.59375-.11328.58203-.17969.55469-.24218.5039-.30078.42578-.17188.1797-.1836.15233-.19921.125-.20703.09375-.21875.0547-.23047.01952-.22656-.01953-.21875-.05469-.21094-.09375-.19531-.125-.1836-.15234-.17187-.17969-.30078-.42578-.2422-.5039-.17968-.5547-.11328-.58202-.03906-.59375h.83593l.02735.5625.08203.50781.125.4414.16406.375.1914.30079.21095.22265.22265.13672.22266.04688.22656-.04688.22266-.13672.21093-.22265.19141-.30078.16406-.375.125-.44141.08203-.50781.02735-.5625-.02735-.5625-.08203-.5-.125-.4336-.16406-.36718-.1914-.29297-.21094-.21485-.22266-.1289-.22656-.04688-.22266.04688-.22266.1289-.21093.21485-.1914.29297-.16407.36718-.125.4336-.08203.5-.02735.5625h-.83593l.03906-.58985.11328-.58203.17969-.54297.24219-.49609.30078-.41797.17187-.17578.1836-.15234.1953-.1172.21095-.08983.21875-.0586.22656-.01562m5.09375 0h.50781v6.29296h-.78516v-4.48828h-1.39062v-.55859l.5625-.0625.25-.05469.23047-.08984.20312-.14063.17578-.21093.14063-.29297.10547-.39453m2.82422 2.17187h.78515l.01953-.3125.0586-.28906.10156-.25.14063-.21875.17968-.17188.22266-.1289.26562-.08203.3086-.02735.23828.02344.22266.0625.20312.10156.17969.13672.14844.17578.11328.20313.07422.23828.02343.26172-.02344.26953-.0625.22656-.11328.1914-.15234.17188-.20313.16016-.24609.16797-.63281.38672-.53906.3125-.4375.3164-.34766.32813-.26172.33594-.1914.34765-.125.3711-.06641.39453-.02344.41796h4.21094v-.74218h-3.33203l.08594-.28125.11328-.23828.14843-.20313.1875-.17969.23047-.16796.27735-.17579.71875-.41796.41406-.20704.34375-.23046.28125-.25.21875-.26954.16406-.27734.11328-.28125.0625-.28516.01953-.28125-.03906-.3828-.1211-.35157-.1914-.30469-.25-.26562-.30078-.21094-.34766-.16016-.3789-.09765-.40625-.03125-.4336.03125-.39843.09765-.35547.16797-.30469.23438-.25.30468-.1836.3711-.11718.44922-.03906.51562"/></g></defs><use xlink:href="#ag"/></svg>