<svg xmlns="http://www.w3.org/2000/svg" role="img" xmlns:xlink="http://www.w3.org/1999/xlink" viewBox="142.45 309.95 326.84 171.84"><defs><clipPath id="a"><path d="M144 443h1v37.32813h-1zm0 0"/></clipPath><clipPath id="b"><path d="M144 311.67188h1V427h-1zm0 0"/></clipPath><clipPath id="c"><path d="M144 311.67188h324v168.65625H144zm0 0"/></clipPath><clipPath id="d"><path d="M467 311.67188h1v168.65625h-1zm0 0"/></clipPath><clipPath id="e"><path d="M144 476h2v4.32813h-2zm0 0"/></clipPath><clipPath id="f"><path d="M156 476h3v4.32813h-3zm0 0"/></clipPath><clipPath id="g"><path d="M169 476h3v4.32813h-3zm0 0"/></clipPath><clipPath id="h"><path d="M180 479h8v1.32813h-8zm0 0"/></clipPath><clipPath id="i"><path d="M193 479h9v1.32813h-9zm0 0"/></clipPath><clipPath id="j"><path d="M193 479h3v1.32813h-3zm0 0"/></clipPath><clipPath id="k"><path d="M207 478h7v2.32813h-7zm0 0"/></clipPath><clipPath id="l"><path d="M220 477h7v3.32813h-7zm0 0"/></clipPath><clipPath id="m"><path d="M234 477h6v3.32813h-6zm0 0"/></clipPath><clipPath id="n"><path d="M247 477h7v3.32813h-7zm0 0"/></clipPath><clipPath id="o"><path d="M260 477h7v3.32813h-7zm0 0"/></clipPath><clipPath id="p"><path d="M274 477h7v3.32813h-7zm0 0"/></clipPath><clipPath id="q"><path d="M287 478h7v2.32813h-7zm0 0"/></clipPath><clipPath id="r"><path d="M300 478h8v2.32813h-8zm0 0"/></clipPath><clipPath id="s"><path d="M313 479h8v1.32813h-8zm0 0"/></clipPath><clipPath id="t"><path d="M326 480h9v.32813h-9zm0 0"/></clipPath><clipPath id="u"><path d="M327 479h2v1.32813h-2zm0 0"/></clipPath><clipPath id="v"><path d="M340 478h7v2.32813h-7zm0 0"/></clipPath><clipPath id="w"><path d="M354 477h6v3.32813h-6zm0 0"/></clipPath><clipPath id="x"><path d="M367 477h6v3.32813h-6zm0 0"/></clipPath><clipPath id="y"><path d="M379 479h9v1.32813h-9zm0 0"/></clipPath><clipPath id="z"><path d="M380 478h2v2.32813h-2zm0 0"/></clipPath><clipPath id="A"><path d="M395 476h4v4.32813h-4zm0 0"/></clipPath><clipPath id="B"><path d="M409 476h3v4.32813h-3zm0 0"/></clipPath><clipPath id="C"><path d="M421 477h6v3.32813h-6zm0 0"/></clipPath><clipPath id="D"><path d="M435 476h3v4.32813h-3zm0 0"/></clipPath><clipPath id="E"><path d="M448 477h5v3.32813h-5zm0 0"/></clipPath><clipPath id="F"><path d="M461 476h5v4.32813h-5zm0 0"/></clipPath><clipPath id="G"><path d="M144 464h3v6h-3zm0 0"/></clipPath><clipPath id="H"><path d="M144 451h4v5h-4zm0 0"/></clipPath><clipPath id="I"><path d="M144 439h4v3h-4zm0 0"/></clipPath><clipPath id="J"><path d="M144 426h4v2h-4zm0 0"/></clipPath><clipPath id="K"><path d="M144 411h4v5h-4zm0 0"/></clipPath><clipPath id="L"><path d="M144 397h3v7h-3zm0 0"/></clipPath><clipPath id="M"><path d="M144 383h2v8h-2zm0 0"/></clipPath><clipPath id="N"><path d="M144 372h4v3h-4zm0 0"/></clipPath><clipPath id="O"><path d="M144 360h4v1h-4zm0 0"/></clipPath><clipPath id="P"><path d="M144 344h4v6h-4zm0 0"/></clipPath><clipPath id="Q"><path d="M144 330h3v8h-3zm0 0"/></clipPath><clipPath id="R"><path d="M144 316h2v9h-2zm0 0"/></clipPath><clipPath id="S"><path d="M466 318h2v2h-2zm0 0"/></clipPath><clipPath id="T"><path d="M465 318h3v3h-3zm0 0"/></clipPath><g id="U" clip-path="url(#clip1)"><path fill="#fff" fill-opacity="0" fill-rule="evenodd" d="M0 0h1000v1000H0zm0 0"/><path fill="#d3d3d3" fill-opacity="0" fill-rule="evenodd" d="M162.15234 355.86719l-.23437.29297.0586.23437.11718.17188.17578.23437.29297.34766.11328.0586.11719-.17188.0586-.23438.17577-.17578.46485-.17578h.69922l.23437.29297.28906.8164.0586.17579.17578.23046.35156.23438.69922.69922.17188.17578.23437.34765.23438.41016.28906.58203.41015.46485.23047.23437.23438.17578.11719.23047.17578.29297.17187 1.16406v.23438l.0586.28906.05859.11719.11719.11719.34765.41015.11719.17188.17578.17578.17578.23437.11719.17188.17188.35156.05859.23438.23437.40625.23438-.0586-.17578.17578-.0586.92969h-.58203l-.23437-.11328-.34766.11328-.11719.11719-.05859.29297-.0586.17578-.11718.17187-.46484.29297-.0586.23438-.0586.11328v.64453l.0586.17187v.41016l.0586.0586v.40624l.05859.40625.11719.17579.05859.05859.23047.64062-.0586.29297v.69922l-.05859.58203v.23438l-.0586.23047-.05468.35156v1.92187l.05469.1172h.42578l-.36719.11718-.02344.35156.89063 1.16797 1.74219.53906 1.33984.35938v.53906l.08984.8086.53516.71484 1.51953.26953.89063-.08594.08984 1.16406.53516.1797 1.16015-.1797 2.05469-.98437 1.16016-.36328 1.8789-.17578 1.69531-.1797-.17968.71876-1.51563.08594-1.25.08984-.80469.26953-1.07421.8086.26953.71875.53515.89843-.17968.625-.26563.8086.26563 1.07812.625.89844.80468.17969 1.25-.1797-.26562.72267.09766.5039.05468.29297v.17188l.0586.29296v.40625l.17578.1172.35156.11718h.40625l.29297-.17578.11328-.11719.0586-.11719.11718-.23047.0586-.17578.35156-.46484.23047-.17578.17578-.0586.17578.0586.0586.17578.11718.98828.05469.46875.0586.17188.11718.23437.17578.0586.8164.05859h.28907l.11719.23437.05859.40625.0586.35156v1.10547l.11718.29297.11719.34766.28906.69922.17578.35156.58203.7539.35157.17579.17187.0586.46875.23437.64063.46484.34765.23438.29297.17578.29297.05468.23047.0625.8164.34766.29297.17578.11328.17188.35157.35156.11719.17578.52343.64063v.28906l.0586.35156v.34766l.05859.35156.0586.28906.11718.0586.17188.05859h.17578l.58203.23437.17578.1172.17578.28905.17578.23438.11328.23437.29297.23047.11719.11719v.41016l.0586.05468.28906.23438.23437.11719.0586.11718.11718.17188.0586.11719.23047.23437.05859.17578.23437.0586.1172.05859-.1172.11328-.05859.11719v.11719l-.11719.29296-.11719.28907v.58203l.17579.11719.11718.05859.0586.11719.11719.11719.11328.05859.17578.34765.0586.35157.05858.40625v.17578l-.05859.17578-.11719.69922v.17187l.1172.17579.29296.29296h.40625l.17578.1172.11719.17187.11719.29296v.23438h-.52735l-.23047-.23438h-.23437l-.17578.0586-.0586.69922.0586.34765.11719.17579.17578.41015.11718.23047.28907.46875.17578.05469h.52344l.23437.0586.75781.64062.0586.29296v.23438l.05859.0586.23047.34765v.35156l-.11719.17188v.29297l.29297.28906.29297.17578.17187.0586.29297.17577.29297.1172.58203.40624.28906.23438.29297.17578.21875.16015.01563.01172.23047.17579.64062.52343.17578.23438.1172.17578.17577.17578.11328.17188v.64062l.1172.17578.46874.11719.58203.11719.23438.05859.23047.11328.29297.11719.11328.0586.58593.35156.28907.17187.17578.0625.17578.05469.17578.0586.69922.35155.28906.17579.23438.05468.28906.17578.23437.1172.64063.40624.29297.11719.17187.0586.23438.05859.41015.05859.23047.0586.23438.11718.0586.17188-.41017.17578.46875.0586.0586.29296.11328.23438.17578.05468.23438.0586.17578.05859.40625.11719.64062.23437.11719.17188.0586.23437v.17578l-.0586.1172-.0586.40624.23438.23438.11719.05859.34766.11719.64062.23047.17578.11718.28906.1172.17578.17577.23438.46485.58203 1.10546.17578.17579.34766.17578.17578.11719.35156.11718 1.04688.52344.23437.0586.46485.11327.29297.0586.46484.17578.75781.58203.23438.23438.34765.46484.17578.17578.28907.23438.8164.69921.29297.17579.28906.28906.29297.17578.29297.28906.69531.64063.17578.17578.29297.23437.28907.23438.46875.28906.64062.58203.34766.23438.23437.29297.34766.34765.35156.46485.9336.99218.34765.40625.11719.17579.23437.05859.11328.11719.64454.17578.23047.11328.23437.0586.29297.17577.23047.1172.9336.69921.40624.40625.23438.17578.40625.17578.23437.11719.8164.34766.34766.23437.23438.11719.29297.28906.23047.11719.7578.35156.35157.17188.23047.05859.29297.11719.23437.0586.8711.17577h.8164l.46875.23047.17188.0586.875.69921.46484.1172.29297.05858.17578.0586.23047.0586.46875.05859.34766.05859.35156.0586.40625.05859h.29297l.17187.0586v.23046l.17578.17578h.29297l.34766.0586.35156.05859.69922.11719h.64063l.46484-.23438.29297-.17578.17187-.11719.41016-.17187.28906-.17578.9336-.46485.46875-.29297.52343-.29296.46485-.17188.46484-.17578 1.05078-.46485.28906-.11718.41016-.11719.28906-.11719.52735-.17578 1.51562-.69922.58203-.34765.28907-.0586.29297-.0586.34765-.11718.875-.23047.35156-.11719h.11329l.23437-.05859.875-.23437.23438-.0586h.8125l.35156-.0586.8164-.11718.17188-.0586.35156-.05468.29297-.0586.23047-.05859.8164-.17578.17579-.0586h.34765l.23438-.05859.46484-.11718.75781-.17188.23438-.0586h.34765l.41016-.11718.28906-.0586 1.28516-.05859h.28906l.41016-.0586.23047-.05858h.17578l.875-.1172h.40625l.41015-.11718h.34766l.35156-.11328.8711-.0586h1.75l1.04687.28907.41016.11719.28906.11718.35156.11719.28907.11719 1.05078.17187.28906.0586h.29297l.29297.05859.17187.0586.41016.05859.17187.0586.1172.05858h.11718l.11719.0586.35156.0586h.11328l.41016.0664 1.92187.39453 1.92578.39453 1.51953.44922 1.69532.71875 2.14453.80469 1.60547-.71875 1.42968-.80469 1.16016-1.07813 1.25-.44921 3.03516-.71875 1.875-.35938 2.14453-1.34765 2.23437-1.25391 2.5-1.25781 1.69531-.44922 1.78516-.17969 1.16016-.26953.625.53906 1.33984-.26953.71485-.98828.98437-1.34375.44531-.17969.80469-.35937 1.875-.53907 1.78516-.44921 1.25-.26954 1.16015-.08984 1.69922-.08984 1.96094-.26954 1.25-.08984h.53906l.625-.08984h.89063l2.14453-.17969 2.41015-.17969 2.58985-.08984 1.69531.17969 1.60938.08984 1.42968.35938 1.16016.71875 1.875.98828 1.16015 1.52734.26563.71484.6289.08985.35548.89844.53515.53906.53516 1.52734 1.07422.35938h.53515l-.80469.53515.08985 1.70703.71484 2.69532.89063.80468.89453.98829.71484 1.2578 1.78516.53907 1.51953-.17969.35547 1.34375 1.60937-.80469.98047-.53906.26953.26953.31641-.21484.21875-.14453.80078.44922.44922-.35938h.35547l.53515-.26953.53907-.71875.53515-.26953.625-.98828 1.16016.44922.83984.3711 1.39454.61718 1.6953-.17969h1.60548l1.78515.08985.17969-1.70704.53516-1.34375.80468.26954.4922.84765.40233.40625-.08984.53906v.35938l.71485.44922.71093-.26953h1.42969l.35938.98828.4453 1.25781.71485 1.34375 1.25.6289 1.69531.62891.71485-.17969.17969-.53906.98046-.08984.44922.35937.08594 1.25782-.26563.6289-.53515.17969v.53906l.71484.98438.26563.53906.98437.98828.80078 1.07813-.26562.35937-.08985.89844-.625 2.33203-.35546 2.0664-.08985 1.79298-.17969.71875-.08984.53906v1.4375l-.98047 1.88281-.35937 1.70703-.53516.89844-.80469 1.16797-.26562.53906 2.05469 1.2539.08593.35938-.35546.53906-.08985-.17968v.80859l.08985 1.4375-.44532.71484-1.07422.09375-.26562.71485.53515.89844.8047.71875 1.16015.80859 1.33984.26953.44531.35938-.35546.44921-1.78907-.08984-1.25-.44922-.71484-.71875-.625-.08984-.17578 3.58984-.1875 1.3086h89.35937V311.70313h-55.26953v49.08203l.76172.125 3.28906.54296 2.02344 2.83594v2.7539l2.35156.33204 2.34766.33203h4.05078l-1.3789 4.16016-2.02344.70703-2.02344.70312-.54297.34375-2.59375 1.6172-.1875.11718-2.02344-2.07813-.73046-2.74218-2.67188-2.07813-1.375-3.5-.0664-.08203-1.95704-2.67188 2.75-1.41796v-49.08204H294.42187v91.41407l.1172.03125.1328.01172.07422.07421.10547.04688.08985.0586.08593.05859.08985.0586.29687.29687.0586.08984.03125.11719.02734.11719.01563.13671-.03125.1172-.0586.08983-.0586.08594-.04296.10547-.04688.10156-.02734.1211v.14453l.17578.26953.14844.14844.07422.08594.07422.07421.04296.10547.0625.08985.0586.08593.04297.10547.0586.08985.04687.10156.04296.10547.0586.08594.11719.17968.07421.07422.0625.08594.0586.08984.04297.10547.0586.08985.05858.08593.0625.08985.0586.08984.04297.10156.11719.17969.07421.07422.0586.08594.07422.07421.08984.0586.10547.04687h.14844l.1328-.01562.13282.01562.10156-.04687.07422-.07422.04688-.10156-.01563-.13281v-.14844l-.04687-.10547-.02735-.11719-.04687-.10156-.02735-.1211-.04296-.10156-.0625-.08984-.04297-.10156-.04297-.10547-.03125-.11719-.01563-.13281-.01171-.13672.08593-.0586.0586-.08593.12109-.03125.04297.10547.01562.1328v.1172l.0586.10156.0586.08984.08983.0586.14844.14843.0586.08985.04296.10547-.01171.10156.08593.0586.10547.04687.08594.0586.08984.05858.07422.07422-.11719.02735-.10546.04687-.08594.0586-.07422.07421-.0586.08985-.0625.08594-.02734.12109-.04687.10156-.04297.10547-.03125.11719-.01172.13281-.01563.13281v.14844l.02735.11719.04687.10547.04297.10156.0586.08984.07421.07422.08985.0586.07422.07421.08984.0586.0586.08984.04296.10547.04688.10156.11719.03125.1328.01563h.14845l.11718-.03125.10547.04297.04297.10547.04688.10156.02734.1211L299.5 410l.02734.11719.03125.1211.02735.11718.10547.04297.10156.04687.13281-.01562.14844.14844.0625.08593.07422.07422.07031.07422.08984.0625.10547.04297.10156.04297.1172.03125.13671.01562.11719-.03125.07422-.07422.02734-.11718-.01172-.13282-.03125-.12109-.02734-.11719.04297-.10547h.11719l.08984.0625.11719.02735h.14843l.13282.01562h.14843l.13282.01563.1328-.01563h.14845l.1328-.01562.13282-.01172.13672.01172.11719-.02735.13281-.01562.1914-.0586-.05859.17579-.01562.1328-.02735.1211-.01562.13281-.0586.08594-.1328.01563-.10548.04687-.10546.04297-.1172.03125-.11718.02735-.26563.03125h-.14843l-.13281.01562-.07422.07422.05859.08594.14844.14843.11719.1797.07421.0703.08985.0625.08984.0586.08594.0586.08984.05858.10156.04297.10547.0625.10547.04297.08594.0586.10547.04687.10156.04297.17969.11719.0586.08984-.04298.10156-.04687.10547.01562.13281.22266.22266.0586.08985.04296.10156.03125.1211.04297.10155.01563.13282.03125.11718.01171.13672.03125.11719.14844.14844.10156.04297.10547.04296.1172.03125.1328.01563.13672.01563h.11719l.11719-.03125.08984-.0586.04297-.10547.04688-.10156.04296-.10547.03125-.11719.01172-.1328v-.14845l-.01172-.1328-.01562-.13282-.03125-.11719-.04297-.10547-.04688-.10547-.04296-.10156-.04297-.10547-.01563-.13281.01563-.13281.02734-.11719.03125-.11719.02735-.1211.04687-.10155.08984-.0586.08594-.0625.07422-.07422.08984-.05859.22266-.22266.0586-.08593.07421-.07422.11719-.17969.0586-.08594v-.14844l-.07423-.07421-.10156-.04688-.10547-.04297-.10156-.04297-.0586-.08984-.04687-.10547-.02734-.11719.08984-.05859.11719-.03125.10156-.04297.17969-.11719.14844-.14843.01172-.13282-.01172-.10546-.08985-.0586-.1328.01563h-.14845l-.1328.01562-.13282-.01562-.1211-.03125-.08593-.0586-.07422-.07422-.0586-.08984-.0625-.08594-.11718-.17969-.0586-.08593.03125-.1211.08594-.05859.1211-.03125.05859-.08594v-.1211l-.03125-.11718-.0586-.08984-.05859-.08594-.04687-.10547-.02735-.11719-.01562-.1328.0586-.08985.07421-.07422.08984-.0586.1172-.17968.07421-.07422.0586-.08594.14843-.14844.1211-.03125.1328-.01562.13282.01562.07422.07422.04297.10547.01562.13281-.03125.1172-.11719.03124-.1328.01172-.14844.14844-.04297.10547-.04688.10156-.02734.1211-.03125.11718v.14844l.03125.11719.04297.10546.05859.08985.07422.07031.07422.07422.11719.03125.12109.02734.11719-.02734.1328-.01563h.1172l.08984.0586.07422.07422.04687.10546.0586.08594.10156.04688.13281.01562.10547.04297.08594.0586-.01172.10546-.07422.07422-.17969.11719-.05859.08984-.08984.0586-.07032.07422-.07421.07421-.0625.08985-.02735.11719-.01562.1328.01562.13282-.01562.13281v.14844l.01562.13281.02735.1172.03125.12108.07421.07422.08985.0586.08594.0586.08984.05858.11719.03125v.08594l-.10157.04688-.08984.0586-.26563.03124-.11718.02735h-.14844l-.10547.04296-.10156.04688-.0586.08984-.0625.23438-.01171.13281-.03125.1211-.01563.1328v.29298l-.01172.1328.01172.13673.01563.1328.1328.01563.13282.01172.1211.03125.08593.0586.07422.07421.04688.10547.04296.10157.01563.1328v.44532l-.01563.13281v.44532l.03125.26562.02735.11719.01562.13281.03125.11719.08594.21094.03125.26562v.14844l-.03125.11719-.02734.11718-.03125.1211-.02735.11719-.03125.11718-.03125.1211-.01171.1328-.01563.13282.08984.0586.1172-.03125.10155.01562.04688.10547-.03125.26562v.44141l-.04297.10547-.04688.10547-.04296.10156-.04297.10547-.0586.08594-.03125.12109-.04296.11719-.03125.11719-.01563.1328.01563.13282.05859.08984.10547.04688.08594.0586.05859.08593-.01172.13672-.03125.11719-.04297.10156v.44531l-.01562.13281v.14844l-.03125.11719-.04297.10547-.02735.11719-.04687.10546-.04297.10157-.03125.12109-.02734.11719-.03125.13281-.03125.11719-.02735.11719-.04297.10546-.03125.1172-.03125.12108-.01171.13282-.01563.13281v.29688l.02734.11718v.14844l.04688.39844.02734.11719.0586.08984.12109.03125h.14844l.13281-.01563.0586.08985v.11719l-.0586.08984-.08984.0586-.10157.04296-.10546.04688-.08985.05859-.08594.0586-.13671.01562-.1172-.03125-.1328-.01563-.10157.04688-.0625.08594-.01172.13671-.01562.13282-.03125.11719-.02735.11718-.01562.13281-.03125.1211v.29687l.01563.13282.03125.11718v.14844l.01171.13281v.14844l-.02734.11719-.04688.10156-.02734.1211-.03125.11718-.0586.08985-.07421.07421-.10156.04297-.10547.04688-.11719.02734-.1211.03125-.10156-.04687.0586-.08594.10547-.04688.02734-.11718.03125-.11719.02734-.1211.03125-.11718v-.14844l.01563-.13281-.03125-.11719-.04297-.10547-.10547.01563-.07422.07422-.10156.04296-.08984.0625-.07422.07422-.04297.10157-.01563.1328-.03125.1172L304.25 426l-.03125.11719-.02734.11719-.03125.12109-.02735.11719-.03125.11718-.04297.10547-.08984.0586h-.08984l-.1172-.03125-.03124-.08594.01562-.13672-.03125-.11719v-.14844l-.01171-.1328v-.14844l-.0625-.23438-.02735-.1211-.04297-.10156-.04687-.10546-.0586-.08594-.05859-.08985-.04297-.10546-.0625-.08594-.14844-.14844-.0703-.07422-.10548-.04687-.10547-.04297-.10156-.04297-.29687-.29688-.08985-.07421-.08594-.0586-.10546-.04297-.08985-.0625-.08594-.0586-.10546-.04296-.08985-.0586-.08594-.0625-.07421-.0703-.10547-.04688-.08594-.0586-.10547-.04296-.08984-.0625-.10156-.04297-.10547-.04297-.08594-.0586-.10547-.04687-.10547-.04297-.10156-.04687-.08985-.0586-.10156-.04297-.10547-.04296-.08984-.0625-.11719-.02735-.13281-.01562-.13281.01562H299.75l-.13281.01563-.11719-.03125-.08984-.0586-.07422-.07422-.08985-.05859-.10156-.04688h-.14844l-.12109-.02734-.10156-.04297-.07422-.07422-.11719-.17968-.08984-.0586-.10156-.04297-.08985-.0625-.10547-.04296-.08984-.0586-.08594-.0586-.10547-.04687-.0586-.08594-.05858-.08984-.04297-.10547-.04688-.10156-.07422-.07422-.08594-.0586-.07421-.07421-.08985-.0586-.22265-.22265-.04297-.10547-.03125-.26563.10547-.04296h.14453l.10547.04296.07421.07422.08985.0586.08594.0586.10546.04687.08985.05859.14844.14844.0703.07422.14845.14843.0625.08594.07421.07422.08594.0586.07422.07421.08985.0625.08984.0586.08594.05859.26953.17578.10156.04688.10547.04296.10156.04297.04688-.07421.05859-.08594.07422-.07422.07031-.07422.10547.04297.07422.07422.0586.08984.04296.10156.04688.10547.04296.10547.1211.02735.11719-.02735.07421-.08984.04297-.10547.0586-.08985.07422-.07421.10546-.04297.1172-.02735.1328.01172.08985.0586.14844.14843.05859.08985.04297.10547.04687.10156.04297.10547.04297.10156.10547.04688.10547.04296.13281.01563.08594-.0586.0586-.08984.07421-.07422.10547-.04297.11719.02735.10547.04687.10156.04297.10547.04297.10156.04688.17969.11718v.11719l-.01563.13281.01563.13281.01562.13672.0586.08594.10156.04688.1211.02734.11718.03125h.14844l.11719-.03125.05859-.08984.17969-.1172.05859-.08983.07422-.07422.0586-.08594.11718-.17969.17969-.11719.11719.03125.08984.0586.04297.07422-.01563.1328v.1172l.08985.05859h.14843l.13282-.01563.1328-.01171.26563-.03125.10547-.04297.11719-.03125.1211-.02735.07421-.07421.07031-.07422.0625-.08985-.01562-.10547-.04688-.10156-.10156-.04297-.10547-.01562-.11718.02734-.26563.03125h-.14844l-.07421-.07422-.08985-.0586-.11719-.03124-.11718-.02735-.13282-.01562h-.14843l-.13282.01563h-.29687l-.10547-.04688-.14844-.14844-.04297-.10156-.05859-.08984.22266-.22266.08593-.0586.10547-.04296.11719-.03125.13281-.01563.13281.01563.13672.01562.10157.04297.1328-.01172.08985-.0625.10156-.04297.0625-.08984-.04687-.10156-.08984-.0586-.1172-.03125-.10155-.04296-.0586-.08985-.0625-.08984v-.11719l.01563-.13281.10547-.04688.07421-.07031v-.1211l-.08984-.05859-.03125-.11719.08985-.05859.07421-.07422.04297-.10547.0586-.08984.04687-.10156.01563-.13281v-.14844l-.04688-.10547-.04297-.10156-.08984-.0586-.13281-.01562-.10157-.04297-.13671-.01563-.1172-.03125h-.4453l-.13282-.01562-.13281-.01172-.13281-.01563-.11719-.03125h-.14844l-.13281-.01562-.13281-.01172-.26563-.03125-.1211-.04297-.08593-.0586-.07422-.07421v-.14844l.01172-.13281.10547-.04688.10156-.04296.13281-.01563h.15235l.13281-.01562h.29297l.1211.03125.10156.04296.08984.0586.23438.0625.12109-.04688.08984-.05859.10156-.04297.13282-.01562.10547.04296.10156.04688.13281.01172.1211-.02735h.14453l.12109-.03125.11719-.02734.10547-.04687.07421-.07422.08594-.0586.14844-.14843.0586-.08594.04687-.10547.02734-.11719.01563-.10547-.10156-.04296-.08985-.0586-.11719-.03125-.10546-.04297-.08985-.0625-.07422-.08594-.07422-.07421-.10156-.04297-.10547-.04688-.10156-.04297-.0586-.08984-.04687-.10156-.08594-.21094-.0625-.08594-.05859-.08984-.07422-.07422-.08594-.0586h-.26953l-.11719.03126-.08984.05859-.10156.04297-.13281.01562-.10547-.01562-.02735-.11719-.0625-.08984-.11718-.03125-.10157-.04297-.14843-.14844-.03125-.11719-.01563-.10546.07422-.07422.17969-.1172.11719-.02733.11718-.03125.13672.01562.10156.04297.10547.04297.10156.04687.10547.04297.1172.03125.1328.01563.1172.02734.1328.01563.10547-.01563.08985-.0586-.07422-.07421-.10547-.04297-.07422-.07422-.07422-.08984-.14844-.14844-.08593-.0586-.08985-.05859-.07422-.07422-.08984-.0586-.10156-.04687-.1211-.02734-.10156-.04688-.10547-.04296-.11719-.03125-.10156-.04297-.1211-.03125h-.14843l-.11719.03125-.10546.04297-.08594.0625-.17969.11718-.08594.0586-.08984.0586-.10547.04687-.08594.05859-.10547.04297-.10156.04297-.10547.04687-.07422.07422-.05859.08985-.0586.08593-.04687.10547-.0586.08594-.07421.07422-.13281-.01172-.1172-.03125h-.11718l-.07422.07422-.08984.0586-.07422.07421-.08984.0586-.08594.05859-.10547.04687-.10156.04297-.13672.01563-.10156-.04297-.14844-.14844-.10547-.04688h-.08594l-.10547.04688-.10156.04297-.1211.03125-.11718-.03125-.07422-.07422v-.11719l.03125-.1211.07422-.0703.0586-.08985.07421-.07422.11719-.03125.10547-.04296h.29297l.13281-.01563.13672-.01563.10156-.04296.08985-.0586.10156-.04687.08984-.0586.13281-.01171.08985.05859.13281.01172.08984-.0586.08594-.05859.10547-.04297.08984-.0586.08594-.0625.08985-.05859.14843-.14843.0586-.08594.05859-.08985.10547-.04296.13281-.01563.11719.02735.1211.03125.05859-.0586.05859-.08984.03125-.26563.02734-.11719.10547.01172.13281.01563.10157-.04297.08984-.0586.0586-.08984.07421-.07422.0586-.08984.04687-.10156.01172-.13281-.01172-.13282-.04687-.10547-.14844-.14843-.0586-.08985-.05859-.08594-.04297-.10546v-.44532l.01563-.1328v-.14845l.01172-.1328-.0586-.0586-.08984.0586-.10156-.04298-.17969-.11719-.08594-.05859-.0625-.08984-.0586-.08985-.07421-.07421-.08594-.0586-.1211.03125-.10155.01172-.10547.04688-.08594.05859-.10547.04297-.14844.14844-.08984.05859-.08594.0586-.08984.0625-.10547.04296-.13281.01563v-.1211l.10547-.04297.11718-.03125.07422-.0703.04297-.10548v-.14844l-.02734-.11718-.14844-.14844-.13281-.01563h-.14844l-.11719.03125-.10547.04297-.10156.04297-.08984.0625-.11719.02735-.07422-.07422.01172-.13281-.04297-.10157-.04297-.10547-.08984-.05859-.11719.02734-.1211.03125-.11718.03125-.10156.04297-.1211.03125-.10156.04297-.10547.04297-.08984.0586-.10156.01562v-.11719l.01562-.13281-.0586-.08985-.07421.04297-.14844.14844-.0586.08985-.07421.07421-.04688.10547-.04296.10156-.07422.07422-.0586.08985-.07422.07422-.05859.08593-.07422.07422-.08984.0625-.07422.07031-.07422.07422-.10156.01563-.13281.01562-.10547-.04296v-.1211l.14843-.14844.04297-.10156.0586-.08984.04687-.10156.04297-.10547.0586-.08985.03124-.11719.04297-.10156.03125-.1211.02735-.11718.04687-.10547.04297-.10156.04297-.10547.07422-.07031.08984-.0625.08985-.0586.10156-.04296h.29687l.26563-.03125.10547-.04297-.07422-.07422-.11719-.03125-.10547-.04297-.08984-.0586-.10156-.04687-.08985-.0586-.10156-.04296-.10547-.04297-.08984-.0625-.08594-.0586-.10547-.04296-.10156-.04297-.1211-.03125-.11718-.03125-.10157-.04297L297.5 410.25l-.10156-.04297-.08985-.0586-.04296-.10546-.01563-.13281.10156-.04297.13281-.01563.13672.01563.13282-.01563.10156-.04297.0586-.08984.01562-.10547-.08985-.0586-.07421-.07421-.10157-.04297-.08984-.0586-.14844-.14843-.04297-.10547-.01562-.13281v-.29297l-.0586-.08985-.08984-.05859-.07422-.07422-.04297-.10547-.03125-.11718-.0586-.08985-.07421-.07422-.11719-.02734-.07422-.07422-.08984-.0586-.08984-.0625-.08594-.05859-.07422-.07421-.0586-.08594-.04687-.10547-.08594-.0586-.14843-.14843-.19532-.0586-.1328.01563-.10157.04297-.07422.07422-.04688.10156-.04296.10547-.0586.08984-.0586.08594-.29687.29687-.08984.0586h-.08594l-.0625-.08594-.04297-.10547.03125-.11719.0586-.08984.02734-.11719-.01172-.13281-.08984-.0625-.10547.04688-.11719.02734-.11719.03125-.26953.17578-.10156.04688-.11719.02734-.10546.04687-.08985.0586-.10156.04297-.0586-.08594-.04687-.10547.01563-.13281.04687-.10547.07031-.07422.07422-.07031.0586-.08985v-.14843l-.04297-.10547h-.23829l-.10156.04687-.03125.11719-.02734.11719-.03125.1211-.07422.04296-.13281.01563-.07422-.04688-.04297-.10156-.04297-.10547-.04687-.10156-.04297-.10547-.1211.03125-.10156.04297-.13281.01562-.11719.03125-.10547.04297-.08984.0586-.10156.04687-.1211.02734-.13281.01563-.10156-.04297-.0586-.08985-.04687-.10546-.04297-.10157-.04297-.10546v-.1172l.0586-.08984.08593-.05859.17969-.11719.10156-.04687.10547-.04297.10547-.0586.10156-.04296.08985-.0625.10156-.04297.10547-.0586.10156-.04687.08984-.0586.10547-.04296.10156-.04297.08985-.0625.10156-.04297.13672-.01563.11719.03125.10156.04297.1211.03125.10156.04297.10546.04688.10157.04296.10547.04297.10156.04688.10547.04297.10156.04297.10547.04687.08594.0586.10546.04296.1172.03125.10546.04297.10156.04688.08985.0586.10547.04296.10156.04297.10547.04687.11719.02735.10156.04687.1211.02735h.14843l.08594-.0586.01562-.10156.0586-.08984-.02735-.1172-.07422-.07421-.11719-.17969-.07421-.07422-.08985-.07421-.17969-.1172-.08593-.05859-.10547-.04296-.10156-.04688-.26954-.17578-.05859-.08985-.07422-.07421-.0586-.08985-.04296-.10156-.03125-.11719-.01563-.13672v-.5625l-.01171-.1328-.01563-.13282-.03125-.11719-.01562-.13281-.01172-.13281-.03125-.1211-.22266-.22265-.0586-.08594-.01562-.10547.03125-.11719.13281-.01562v-91.41406H172.9922v1.45312l-.0586.23438-.35156 1.05078-.17187.52343-.1172.34766-.17577.41016-.11719.17187-.23438.29297-.23046.0586h-.35157l-.11718.05859-.23047.40625v.29297l.11719.17578.23046.23047.1172.23437.64062.75781.29297.46485.17578.23437.23047.35156.23437.34766.64063.8164.17578.46485.17187.41016.11719.69531.17578.46875.11719 1.39844.0586.46484v.875l.11718 1.04688v4.78125l-.0586.46484-.35156 1.28125-.17578.52344-.11328.41015-.35156.9297L172.93359 336l-.23437.58203-.11719.17578-.17187.34766-.17578.40625-.35157.8164-.0586.29297-.11327.29297-.11719.28906-.0586.17579-.11718.875-.0586.40625-.05859.11718-.0586.17579-.05859.17187-.23047.52734-.11718.17188v.23437l-.11719.23438-.0586.17187-.17577.58594v.28906l-.0586.17579v.29296l-.0586.11329-.05859.52734v.17187l-.05468.23438v2.6211l-.17578.8164-.1172.17578-.17577.23438-.1172.17187-.11327.23438-.58594.93359-.23047.28906-.29297.46485-.17578.23437-.28906.35156-.35156.69922-.11328.23047-.17579.41016-.17578.23046-.40625.52735-.8164.69922-.29297.17187-.28906.23438-.17579.11719-.17578.17578-.52344.40625-.52734.17578-.17187.17578-.23438.05469-.64062.17578h-.75782m12.21094 31.02344l-1.07422.44921.35938.89454 1.25-.71485.44531-.53906-.98047-.08985"/><path fill="#d3d3d3" fill-opacity="0" fill-rule="evenodd" d="M201.50781 416.59766h-.89453l.44922.6289.98047.35938.80469-.08985.4453-.98828-.17577.08985-.71485-.35547-.89453.35547m154.6211 59.0703l-.0586-.52343v-.29297l.11328-.29297.0586-.23046.46875-.46875h.11328l.11719-.11329.11718-.05859h.17579l.23437-.0586h.34766l.23437.0586.11719.0586.23047.17187.0586.17578.11718.58203v.29297l-.11719.17578-.17187.28906-.17579.17579-.52734.52343-.23047.23438-.11719.0586h-.17578l-.11718-.0586-.40625-.29297-.17579-.11719-.11718-.0586-.0586-.11327-.05468-.1172m6.64062-10.95702l-.0586-.17188v-1.10937l.0586-.17188.17578-.0586.17188-.05858h.17578l.23437-.0586.1172.0586.05858.69921-.05859.17188-.11719.17578-.11718.0586-.23438.52343-.11328.0586h-.23438l-.05859-.1172m9.61328-14.39062l-.11719-.17578v-.69922l.29297-.875.1172-.17187.17577-.35156.11328-.23047.1172-.29297.35155-.75781.1172-.23047.17187-.23438h.17578l.11719-.0586h.64062l.11719.0586.23437.23438.17188.11328.35156.29297.11719.11718.11328.17579v.11328l.11719.05859.11718.11719v.69922l-.05859.17578v.23047l-.0586.17578-.34765 1.05078-.11719.23047-.11719.23437-.11718.0586-.23047.23437-.64063.28906h-.875l-.41015-.11718-.64063-.46485"/><path fill="none" stroke="#bebebe" stroke-linecap="round" stroke-linejoin="round" stroke-miterlimit="10" stroke-width=".5" d="M467.95703 311.69531H144.02734v168.625h323.9297v-168.625"/><g clip-path="url(#a)"><path fill="#fff" fill-opacity="0" fill-rule="evenodd" d="M144 475.89063v4.4375h.0039H144v-36.48438 32.04688"/></g><g clip-path="url(#b)"><path fill="#fff" fill-opacity="0" fill-rule="evenodd" d="M144 422.6289v4.23829-115.19531h.0039H144V422.6289"/></g><path fill="#50fcfc" fill-rule="evenodd" d="M144 440.8125v3.03125h.0039v-3.02734L144 440.8125"/><path fill="#00e8fc" fill-rule="evenodd" d="M144 440v.8125l.0039.0039V440H144"/><path fill="#50fcfc" fill-rule="evenodd" d="M144 437.29688V440h.0039v-2.70313H144"/><path fill="#fff" fill-opacity="0" fill-rule="evenodd" d="M144 433.03516v4.26171h.0039v-4.26562l-.0039.0039"/><path fill="#50fcfc" fill-rule="evenodd" d="M144 426.86719v6.16797l.0039-.00391v-6.16406H144"/><g clip-path="url(#c)"><path fill="#fff" fill-opacity="0" fill-rule="evenodd" d="M144.0039 480.32813v-36.48438l4.4336.9375 4.4375-.29688 2.84375.33594-2.84375 4.03125-.47656.41016.47656.32422.5586-.32422 3.8828-2.46875.41407 2.46875.2461 4.4375 3.77734 3.52734 4.4375.80469 4.4375.08594.33203.01953 4.10547 1.04687 2.29297-1.04687 2.14843-.55469 4.4375-1.6875 2.0625-2.19531-2.0625-3.1875-2.59375-1.25-1.84375-1.60547-1.0039-2.83594 1.0039-2.33203 1.07813-2.10547-1.07813-2.40234L178 435.9453l-2.9336-1.80078-1.08593-2.63672-2.30469-4.4375-1.04687-.96094-4.3086.96094h-.1289l-4.4375.73438-3.73438 3.70312-.70312 2.30078-4.33203 2.13672-.10938.01172-4.4375.30078-4.4336 1.03906v-4.26562l1.26563-1.52344-1.10937-4.4375-.15625-.20312V311.67188h48.8164v8.58203l-.16015.29296.16015.19922v121.76954l-3.5039 2.30468 2.21875 4.4414 1.28515.26954.83985-.26953 3.60156-.92188 2.51953-3.51953-2.51953-2.14844-4.4414-.15625V320.7461l.3203-.19921-.3203-.29297v-8.58204h4.4414v14.1797l-2.13672 3.57421 2.13672 3.80078 1.11328.63672 1.98828 4.4375 1.33594 1.50781.54297-1.5078.97265-4.4375.23438-4.4375-1.75-2.59767-4.4375-.97656v-14.17969h4.4375v4.19532l-.25.24219.25.38671.51172-.38671-.51172-.2422v-4.1953h4.4375v150.65625l-2.2461.24609 2.2461.16015.29687-.16015-.29687-.2461V311.67188h8.8789v15.58204l-3.02343 2.17187-.94922 4.4375-.46875 2.46875-.84766 1.96875.84766 1.23047 3.27344-1.23047 1.16797-.14062 4.4375-.78125v4.0703l-1.67579 1.28907 1.67578.32422.32032-.32422-.32031-1.28906v-4.07031l2.46093-3.51563-2.46094-1.9336-2.16406-2.5039-2.27344-2.17187v-15.58204h17.75v39.13672l-1.59765.8086-1.5664 4.4375 1.0664 4.4375 2.09766 2.375v99.48437l-.375.22266.375.21875.27734-.21875-.27734-.22266V362.8672l3.41015-2.375.13672-4.4375-2.35547-4.4375-1.1914-.8086v-39.13671h13.3164v100.30078l-1.75781 1.78125-1.88281 4.4375.03515 4.4375 3.60547 3.60937 4.4375.04297 4.4375-.15234 4.4414-1.41016 3.9336-2.08984-3.9336-2.06641-3.83202-2.3711-.60938-.45312-4.4375-2.90625-2.6875-1.07812-1.75-1.78125V311.67187h26.6289v94.83985l-2.85546 2.80469-1.58203 3.78906-.63281.64844-1.9336 4.4375.45703 4.4375 2.10938.41406v7.13672l-1.1836 1.32812 1.1836 1.02735 1.29297-1.02735-1.29297-1.32812v-7.13672l.58984-.41406 3.84766-1.19922 4.4414-.69531 2.0586-2.54297 2.10937-4.4375-3.63672-4.4375-.53125-.53516-4.4414-2.26953v-94.83985h8.8789v111.9961l-4.4375.26953-2.74218 3.13281-.89454 4.4375 3.63672 3.42969 3.47657-3.42969.96093-1.11328 4.17579-3.32422-4.17579-3.40234v-111.9961h31.06641v98.69532l-1.64063 3.38672-1.8164 4.4375-.98047 1.48828-2.61719 2.94922.45313 4.4414 2.16406 2.16406 4.4375-1.42187.73828-.74219 3.11719-4.4414.58594-.69532 3.13671-3.74218-.76953-4.4375-2.36718-2.85547-4.44141-.53125v-98.69531h13.3164v92.60937l-.76562.59375.76563.58984.54296-.58984-.54296-.59375v-92.60938h22.1914v102.62891l-4.4375 1.00781-1.96875 2.88282 1.96875 2.1875.80078 2.25 3.63672 3.86718 4.4375.19141 3.95703-4.0586-.41015-4.4375-3.54688-3.72265-4.4375-.16797v-102.6289h17.7539v95.34375l-2.66405 2.30078-1.77344 1.26562-2.67578 3.17188 1.22265 4.4375.2422 4.4375-.13673 4.4414-.76953 4.4375-1.52344 4.4375-.79687.76172-3.67578 3.67578.24219 4.4375-1.00782.75-1.60156-.75 1.02344-4.4375-3.85938-4.01953-4.05078 4.01953-.38672.9414-4.4375-.08983-2.75-.85157 2.75-.41797 3.79297-4.01953.64453-.9961 3.0625-3.4414-3.0625-3.15234-3-1.28516-1.4375-1.3125-1.29687 1.3125 1.29687 1.28516 1.4375 3.15234-1.4375.97266-3.46484 3.46484-.97656 3.6211-.81641.8164.0625 4.4375.7539.77344 4.44141 2.03516 3.875 1.6328.5625.57032 2.98438 3.86719-2.98438 3.1836-1.1875 1.2539 1.1875 3.94922 4.4375-2.4414 1.5039-1.50782-.14843-4.4375 3.08203-1.1914 4.4414.5664 4.3086-3.8125.1289-.01953 4.4375-.92188.71485.9414 1.01563 4.4375.13672 4.4375-1.8672 3.95313-.49218.48438-2.22265 4.4414-1.72266 1.84766-4.4375-.08594-2.64063 2.67579 2.64063 2.62109 4.4375-.26953 4.4375-.45313 3.89844 2.53906.53906.57032 4.4375 2.76953 4.4414-.96875 3.57032-2.3711.86719-1.21875 4.26562-3.21875-4.26563-2.125-4.4375-2.30468-.0078-.00781.0078-.00782 2.8125-4.4336 1.625-3.9375.6172-.5 3.8203-.95702 4.4375-.91797 3.39844 1.875 1.03906 1.72656 4.28516 2.71094.15625.07031 4.4375 3.66016 4.4375.375 2.45313.33594 1.98437 1.45703 4.4414-.35157 1.14844-1.10546 3.28907-.8672 3.875-3.57421.5625-3.51563 4.4375 2.42579 4.4375-1.7422 4.4414 1.11329v12.1836l-2.95312 2.85156 2.95312 2.65625 2.76954-2.65625-2.76954-2.85157v-12.1836l2.8086-2.71874-2.8086-1.1211-1.07421-3.3164-.48438-4.4375-2.88281-2.36328-4.4375.29297-1.58594-2.3711-.40234-4.4375-2.44922-2.41015-4.4375-.6797-4.4375-.39452-4.4414.0586-4.4375 2.1289-4.4375-.38281-1.7422 1.67968-2.6953 1.45313-3.25782 2.98437-1.1836.86328-4.4375.00391-.72656-.86719-2.19922-4.4375 2.92579-1.75 2.80468-2.6875 1.00781-4.4375-.02734-4.4375.65235-3.64062.62109-.80078-.6211-.67188-1.48046.67188-2.95704.3125-4.4375-.12891-4.4375.03125-.51171-.21484-3.92579-3.08204-4.4414-1.1328-4.4375.42187-1.95703-.64453 1.95703-.83204 3.51953-3.60546-2.96875-4.4375-.55078-.60938-4.4375-1.6914v-95.34375h102.07812v168.65625H144.00391"/></g><path fill="#50fcfc" fill-rule="evenodd" d="M148.4375 444.78125l-4.4336-.9375v-3.02734l4.4336 3.03515 4.4375-.08203 3.92578-3.38672-3.92578-3.65625-4.4375.40235L144.0039 440v-2.70313l4.4336-1.03906 4.4375-.30078.10938-.01172 4.33203-2.13672.70312-2.30078 3.73438-3.70312 4.4375-.73438v.57031l-4.4375 1.45704-2.4336 2.41015-1.60156 4.4375.17969 4.4375.09375 4.4375.9961 4.4414 1.22655 4.4375 1.53907 1.4375 4.4375 1.66407h4.4375l4.4375-.25 4.4414-2.25 1.07813-.60156-1.07813-.76563-1.98437-3.67187-2.45703-3.53125-1.25-.91016 1.25-1.40234 1.90234-3.03516-1.90234-2.07812-1.96485-2.35938-1.48828-4.4375-.98437-1.47656-4.4375-2.39063v-.5703h.1289l4.3086-.96094 1.04687.96093 2.30469 4.4375 1.08594 2.63672L178 435.94531l1.50781 2.03516 1.07813 2.40234-1.07813 2.10547-1.0039 2.33203 1.0039 2.83594 1.84375 1.60547 2.59375 1.25 2.0625 3.1875-2.0625 2.19531-4.4375 1.6875-2.14844.55469-2.29296 1.04687-4.10547-1.04687-.33203-.01953-4.4375-.08594-4.4375-.80469-3.77735-3.52734-.2461-4.4375-.41405-2.46875-3.88282 2.46875-.55859.32422-.47656-.32422.47656-.41016 2.84375-4.03125-2.84375-.33594-4.4375.29688"/><path fill="#00e8fc" fill-rule="evenodd" d="M148.4375 443.85156l-4.4336-3.03515V440l4.4336-2.8711 4.4375-.40234v1.28906l-4.4375.56641-2.55469 1.80078 2.55469 1.92188 4.4375.26953 2.54297-2.1914-2.54297-2.3672v-1.28906l3.92578 3.65625-3.92578 3.38672-4.4375.08203"/><path fill="#50fcfc" fill-rule="evenodd" d="M145.26953 431.50781l-1.26562 1.52344v-6.16406l.15625.20312 1.10937 4.4375"/><path fill="#00d4fc" fill-rule="evenodd" d="M148.4375 442.30469l-2.55469-1.92188 2.55469-1.80078 4.4375-.5664v1.28906l-4.4375.72656-.4961.35156.4961.375 4.4375.625 1.16016-1-1.16016-1.07812v-1.28906l2.54297 2.36718-2.54297 2.1914-4.4375-.26952"/><path fill="#00c4fc" fill-rule="evenodd" d="M148.4375 440.75781l-.4961-.375.4961-.35156 4.4375-.72656 1.16016 1.07812-1.16016 1-4.4375-.625"/><path fill="#00e8fc" fill-rule="evenodd" d="M157.89844 440.38281l-.17969-4.4375 1.60156-4.4375 2.4336-2.41015 4.4375-1.45704v.94922l-4.4375 2.66016-.25782.25781-2.42578 4.4375.40625 4.4375.04688 4.4375 1.5586 4.4414.67187 1.5625 2.36328 2.875 2.07422 1.0547 4.4375-.15235 3.46875-.90234-1.34375-4.4375-2.125-1.58594-1.40235-2.85547 1.40235-2.51562 1.80859-1.92188-1.8086-2.10937-1.35546-2.32813.48437-4.4375-3.5664-2.91797v-.94921l4.4375 2.39062.98437 1.47656 1.48828 4.4375 1.96485 2.35938 1.90234 2.07812-1.90234 3.03516-1.25 1.40234 1.25.91016 2.45703 3.53125 1.98437 3.67187 1.07813.76563-1.07813.60156-4.4414 2.25-4.4375.25h-4.4375l-4.4375-1.66406-1.53907-1.4375-1.22656-4.4375-.9961-4.4414-.09374-4.4375"/><path fill="#00d4fc" fill-rule="evenodd" d="M159.47656 440.38281l-.40625-4.4375 2.42578-4.4375.25782-.25781 4.4375-2.66016v.95313l-3.11328 1.96484-1.32422 2.09766-1.32813 2.33984.6289 4.4375v4.4375l.69923 1.78125 4.4375.9961.58203-2.77735-.58203-1.69531-2.0625-2.74219 2.0625-3.5586.26953-.8789 2.13281-4.4375-2.40234-1.96484v-.95313l3.5664 2.91797-.48437 4.4375 1.35547 2.32813 1.80859 2.10937-1.8086 1.92188-1.40234 2.51562 1.40235 2.85547 2.125 1.58594 1.34375 4.4375-3.46875.90234-4.4375.15235-2.07422-1.0547-2.36328-2.875-.67188-1.5625-1.5586-4.4414-.04687-4.4375"/><path fill="#00c4fc" fill-rule="evenodd" d="M161.05469 440.38281l-.6289-4.4375 1.32812-2.33984 1.32422-2.09766 3.11328-1.96484v.94922l-1.60547 1.01562 1.60547 2.40235 1.24218-2.40235-1.24218-1.01562v-.94922l2.40234 1.96484-2.13281 4.4375-.26953.8789-2.0625 3.5586 2.0625 2.74219.58203 1.69531-.58203 2.77735-4.4375-.9961-.69922-1.78125v-4.4375"/><path fill="#00b8fc" fill-rule="evenodd" d="M166.1914 433.91016l-1.60546-2.40235 1.60547-1.01562v.94922l-.10157.0664.10157.15235.07812-.15235-.07812-.0664v-.94922l1.24218 1.01562-1.24218 2.40235"/><path fill="#00a8fc" fill-rule="evenodd" d="M166.1914 431.66016l-.10156-.15235.10157-.0664.07812.0664-.07812.15235"/><path fill="#50fcfc" fill-rule="evenodd" d="M191.53516 449.26172l-2.21875-4.4414 3.5039-2.3047 4.4414.15625 2.51954 2.14844-2.51953 3.51953-3.60156.92188-.83985.26953-1.28515-.26953m1.28515-128.51563l-.16015-.19921.16015-.29297.32031.29296-.3203.19922m4.4414 12.48047l-2.13672-3.80078 2.13672-3.57422 4.4375.97656 1.75 2.59766-.23438 4.4375-.97265 4.4375-.54297 1.50781-1.33594-1.5078-1.98828-4.4375-1.11328-.63673m4.4375-16.73047l-.25-.38671.25-.2422.51172.2422-.51172.38671m4.4375 146.23829l-2.2461-.16016 2.2461-.2461.29687.2461-.29687.16015m4.4375-123.20312l-.84766-1.23047.84766-1.96875.46875-2.46875.94922-4.4375 3.02344-2.17187v4.61718l-1.00782 1.9922 1.00781 1.08593 1.64844-1.08594-1.64844-1.99219v-4.61718l2.27344 2.17187 2.16406 2.5039 2.46094 1.9336-2.46094 3.51563-4.4375.78125-1.16796.14062-3.27344 1.23047"/><path fill="#00e8fc" fill-rule="evenodd" d="M215.01563 334.94922l-1.00782-1.08594 1.00781-1.99219 1.64844 1.9922-1.64844 1.08593"/><path fill="#50fcfc" fill-rule="evenodd" d="M219.45313 343.0625l-1.67579-.32422 1.67578-1.28906.32032 1.28906-.32031.32422m11.21484 17.42969l-1.0664-4.4375 1.5664-4.4375 1.59766-.8086 1.1914.8086 2.35547 4.4375-.13672 4.4375-3.41016 2.375-2.09765-2.375m2.09766 102.30078l-.375-.21875.375-.22266.27734.22266-.27734.21875m9.71093-40.16406l-.03515-4.4375 1.8828-4.4375 1.75782-1.78125v2.8125l-2.41016 3.40625.21875 4.4375 2.19141 2.1953 4.4375-.3164 4.4375-.42187 2.4414-1.45703-2.4414-1.9336-2.19922-2.5039-2.23828-1.625-4.4375-1.78125v-2.8125l1.75 1.78125 2.6875 1.07812 4.4375 2.90625.60938.45313 3.83203 2.37109 3.9336 2.0664-3.9336 2.08985-4.4414 1.41016-4.4375.15234-4.4375-.04297-3.60548-3.60937"/><path fill="#00e8fc" fill-rule="evenodd" d="M243.89063 422.6289l-.21875-4.4375 2.41015-3.40624v2.89843l-.35937.50782.35937 3.16406 1.27344-3.16406-1.27344-.50782v-2.89843l4.4375 1.78125 2.23828 1.625 2.19922 2.5039 2.4414 1.9336-2.4414 1.45703-4.4375.42187-4.4375.3164-2.1914-2.1953"/><path fill="#00d4fc" fill-rule="evenodd" d="M246.08203 421.35547l-.35937-3.16406.35937-.50782 1.27344.50782-1.27344 3.16406"/><path fill="#50fcfc" fill-rule="evenodd" d="M266.16406 422.6289l-.45703-4.4375 1.9336-4.4375.6328-.64843 1.58204-3.78906 2.85547-2.8047v2.45313l-.35547.35157-2.42969 4.4375 2.78516 4.01953 4.4414-.0664 3.23047-3.95313-3.23047-3.51172-3.83984-.92578-.60156-.35157v-2.45312l4.4414 2.26953.53125.53516 3.63672 4.4375-2.10937 4.4375-2.0586 2.54296-4.4414.69532-3.84766 1.19922-.58984.41406-2.10938-.41406m2.10938 9.90625l-1.1836-1.02735 1.1836-1.32812 1.29297 1.32812-1.29297 1.02735"/><path fill="#00e8fc" fill-rule="evenodd" d="M272.71094 417.77344l-2.78516-4.01953 2.42969-4.4375.35547-.35157.60156.35157 3.83984.92578v1.69922l-4.0664 1.8125 4.0664 2.03906 1.66797-2.03906-1.66797-1.8125v-1.69922l3.23047 3.51172-3.23047 3.95312-4.4414.0664"/><path fill="#00d4fc" fill-rule="evenodd" d="M277.15234 415.79297l-4.0664-2.03906 4.0664-1.8125v1.69921l-.2578.11329.2578.1289.10157-.1289-.10157-.11329v-1.69921l1.66797 1.8125-1.66797 2.03906"/><path fill="#50fcfc" fill-rule="evenodd" d="M277.15234 434.9375l-3.63671-3.42969.89453-4.4375 2.74218-3.13281 4.4375-.26953v1.86719l-4.4375 1.4375-.08203.09765-1.90625 4.4375 1.98828 1.875 1.89844-1.875 2.53906-2.9375 1.88282-1.5-1.88282-1.53515v-1.8672l4.17579 3.40235-4.17579 3.32422-.96093 1.11328-3.47657 3.42969"/><path fill="#00e8fc" fill-rule="evenodd" d="M277.15234 433.38281l-1.98828-1.875 1.90625-4.4375.08203-.09765 4.4375-1.4375 1.88282 1.53515-1.88282 1.5-2.53906 2.9375-1.89844 1.875"/><path fill="#00c4fc" fill-rule="evenodd" d="M277.15234 413.88281l-.2578-.1289.2578-.11329.10157.11329-.10157.1289"/><path fill="#50fcfc" fill-rule="evenodd" d="M306.05469 427.07031l-.45313-4.4414 2.61719-2.94922.98047-1.48828 1.8164-4.4375 1.64063-3.38672 4.4414.53125v4.80078l-4.4414.27344-1.3086 2.21875-2.55859 4.4375 3.86719 1.89453 1.51172-1.89453 2.92969-3.48047.80078-.95703-.80078-2.4922v-4.80077l2.36718 2.85547.76954 4.4375-3.13672 3.74218-.58594.69532-3.11719 4.4414-.73828.74219-4.4375 1.42188-2.16406-2.16407"/><path fill="#00e8fc" fill-rule="evenodd" d="M312.65625 424.52344l-3.86719-1.89453 2.5586-4.4375 1.30859-2.21875 4.4414-.27344.80079 2.49219-.80078.95703-2.9297 3.48047-1.51171 1.89453"/><path fill="#50fcfc" fill-rule="evenodd" d="M325.97266 405.46484l-.76563-.58984.76563-.59375.54296.59375-.54296.58984m8.12109 39.35547l-.0625-4.4375.8164-.8164.97657-3.6211 3.46484-3.46484 1.4375-.97266-1.4375-3.15234-1.29687-1.28516 1.29687-1.3125 1.4375 1.3125 3 1.28516v2.27344l-.83594.8789-3.60156 2.4375-2 2 2 2.32031 2.1875-2.3203 2.25-3.48048.85156-.95703-.85156-.8789v-2.27344l3.0625 3.15234-3.0625 3.4414-.64453.9961-3.79297 4.01953-2.75.41797 2.75.85156v3.46094l-.17969.125.1797.09766.67577-.09766-.67578-.125v-3.46094l4.4375.08985.38672-.9414 4.05078-4.01954v1.78516l-2.2539 2.23437 2.2539 3.45313 2.14844-3.45313-2.14844-2.23437v-1.78516l3.85938 4.01953L351 444.82031l1.60156.75 1.00781-.75-.24218-4.4375 3.67578-3.67578.79687-.76172 1.52344-4.4375.76953-4.4375.13672-4.4414-.24219-4.4375-1.22265-4.4375 2.67578-3.17188 1.77344-1.26562 2.66406-2.30079v2.75391l-4.4375 3.95313-.02735.03125.02735.05859 4.4375 3.89063v6.22656l-3.29688 3.14062 1.44141 4.4375 1.85547.32813.60937-.32813-.1289-4.4375-.48047-3.14062v-6.22656l4.4375-2.19532 1.71484-1.7539-1.71484-2.26954-4.4375-1.71484v-2.7539l4.4375 1.6914.55078.60938 2.96875 4.4375-3.51953 3.60546-1.95703.83204 1.95703.64453v1.4375l-2.92578 2.35547.28125 4.4414 2.23828 4.4375-4.03125 2.16797-4.4375.42969-1.26563 1.83984-3.17187 3.03125-1.40625 1.40625.74219 4.4375-3.77735 2.82031-2.95312 1.6211 2.95312 1.42578 2.48438-1.42578 1.95703-3.19922 4.4375 1.70313 4.4375-1.32422 2.14844 2.8203 2.28906 4.03517.13281.40234.17188 4.4375-.3047.47656-2.05077 3.96094-1.9336 4.4414.62891 4.4375 3.35547 2.90625 3.70703-2.90625.73047-4.01953.15625-.41796 4.28515-3.83985.37891-.60156 3.55469-4.4375.5039-.47656 4.4375-2.3125 2.97657-1.64844 1.46094-1.48438 3.49218 1.48438.94531.53515 3.98438 3.90235.45703.40625 1.4375 4.03125 3 2.51562 4.4375.75 4.4375.75782 4.4414-.15625 4.4375-1.66016 2.39063-2.20703-2.39062-4.40235-.03125-.03515-1.5625-4.4375-2.84375-2.9961-.8164-1.4414.01171-4.4414.80469-1.56641v4.71875l-.14453 1.28906.14453.25 1.53906-.25-1.53906-1.28906v-4.71875l1.92578 1.5664 2.51172 2.26563v4.36719l-.46094 2.24609.46094 1.30078.8711-1.30078-.8711-2.2461v-4.36718l4.4375-2.00781.09765-.25782-.09765-.47656-3.46485-3.96094-.97265-.23047-4.4375-1.39843-4.4414-.16016-2.4922 1.78906-1.9453.6836-4.4375.22265-4.4375 3.42969-.11329.10156-4.32813 3.15625-4.4375-.39062-2.33203-2.76563-2.10546-2.91406-.3086-1.52344.3086-.36719 4.40234-4.0703.03515-.1172 2.69141-4.3203-.28906-4.4375-2.40235-2.6172-4.4375-.66406-4.4375.28516-3.42968-1.44531-1.00781-.78907-4.44141-1.07812-4.4375-.48828v-1.4375l4.4375-.42188 4.4414 1.13281 3.92579 3.08204.51171.21484 4.4375-.03125 4.4375.1289 2.95704-.3125 1.48046-.67187.6211.67188-.6211.80078-.65234 3.64062.02735 4.4375-1.00782 4.4375-2.80469 2.6875-2.92578 1.75 2.19922 4.4375.72656.86719 4.4375-.0039 1.1836-.86329 3.25781-2.98437 2.69531-1.45313 1.7422-1.67969 4.4375.38282 4.4375-2.1289 4.4414-.0586 4.4375.39453 4.4375.67969 2.44922 2.41015.40234 4.4375 1.58594 2.3711v2.54687l-4.4375 1.5664-1.42969 2.39454 1.42969 1.89062 2.5039 2.54688 1.9336 1.3711 1.90234-1.3711 2.53516-2.33985 1.52734-2.09765-1.52734-3.20703-4.4375-.7539v-2.54688l4.4375-.29297 2.88281 2.36328.48438 4.4375 1.07421 3.3164 2.8086 1.1211-2.8086 2.71875-4.4414-1.11328-4.4375 1.74219-4.4375-2.42579-.5625 3.51563-3.875 3.57422-3.28906.86719-1.14844 1.10546-4.4414.35157-1.98438-1.45704-2.45313-.33593-4.4375-.375-4.4375-3.66016-.15625-.07031-4.28515-2.71094-1.03907-1.72656-3.39844-1.875-4.4375.91797-3.8203.95703-.6172.5-1.625 3.9375-2.8125 4.4336-.0078.0078.0078.00782 4.4375 2.30469 4.26563 2.125-4.26563 3.21875-.86718 1.21875-3.57031 2.37109-4.44141.96875-4.4375-2.76953-.53906-.57031-3.89844-2.53907-4.4375.45313-4.4375.26953-2.64063-2.6211 2.64063-2.67578 4.4375.08594 1.72265-1.84765 2.22266-4.44141.49219-.48438 1.86719-3.95312-.13672-4.4375-1.01563-4.4375-.71484-.9414-4.4375.92187-.1289.01953-4.3086 3.8125-4.4414-.5664-3.08204 1.1914.14844 4.4375-1.5039 1.50781-4.4375 2.4414-1.1875-3.94921 1.1875-1.2539 2.98437-3.1836-2.98438-3.86719-.5625-.57031-3.875-1.63281-4.4414-2.03516-.75391-.77344"/><path fill="#00e8fc" fill-rule="evenodd" d="M339.28906 438.26563l-2-2.32032 2-2 3.60156-2.4375.83594-.8789.85156.8789-.85156.95703-2.25 3.48047-2.1875 2.32031m0 6.65235l-.17969-.09766.1797-.125.67577.125-.67578.09766"/><path fill="#50fcfc" fill-rule="evenodd" d="M343.72656 420.3789l-1.96875-2.1875 1.96875-2.8828 4.4375-1.00782v1.45313l-3.46484 2.4375 1.30469 4.4375 2.16015 2.30078 4.4375.71094 2.9375-3.01172-1.02734-4.4375-1.91016-2.00391-4.4375-.4336v-1.45312l4.4375.16797 3.54688 3.72266.41015 4.4375-3.95703 4.05859-4.4375-.1914-3.63672-3.8672-.80078-2.25"/><path fill="#00e8fc" fill-rule="evenodd" d="M346.0039 422.6289l-1.30468-4.4375 3.46484-2.4375v2.42579l-.01562.01172.01562.16796.625 4.26954 3.8125 1.26953 1.23828-1.26953-1.23828-3.14454-4.36719-1.29296-.0703-.01172v-2.42578l4.4375.43359 1.91015 2.0039 1.02734 4.4375-2.9375 3.01173-4.4375-.71094-2.16015-2.30078m2.16015 21.20703l-2.2539-3.45313 2.2539-2.23437 2.14844 2.23437-2.14844 3.45313"/><path fill="#00d4fc" fill-rule="evenodd" d="M348.16406 418.35938l-.01562-.16797.01562-.01172.07031.01172 4.3672 1.29296 1.23827 3.14454-1.23828 1.26953-3.8125-1.26953-.625-4.26954"/><path fill="#00e8fc" fill-rule="evenodd" d="M352.60156 450.6875l-2.95312-1.42578 2.95312-1.6211 3.77735-2.8203-.7422-4.4375 1.40626-1.40626 3.17187-3.03125 1.26563-1.83984 4.4375-.42969 4.03125-2.16797-2.23828-4.4375-.28125-4.4414 2.92578-2.35547v2.63281l-.45703 4.16406.45703.8125 2.36328 3.625-.17188 4.4375-2.1914 3.1914-4.4375-2.69921-4.4375 1.07422-2.95703 2.8711 2.1289 4.4375.82813.48437 1.28125-.48438 3.15625-.82812 4.4375-.89063.33984 1.71875.82422 4.4414.35547 4.4375 2.91797 4.01954.27734.41797 4.16406 3.48047 3.01563-3.48047 1.42188-1.33985 3.93359-3.09765.5039-1.22266 3.19141-3.21484-3.1914-3.77735-.21875-.66406-.83594-4.4375 1.05469-1.26562 3.42968-3.17188 1.00781-3.10547.83204-1.33203-.73829-4.4375-.09375-.10547-4.4375-1.54687-4.4375.70312-4.4375-.91015-4.4414-1.6289-4.4375-.67579v-2.63281l4.4375.48828 4.4414 1.07812 1.00782.78907 3.42969 1.4453 4.4375-.28515 4.4375.66406 2.40234 2.6172.28906 4.4375-2.6914 4.3203-.03516.1172-4.40235 4.0703-.30859.3672.3086 1.52343 2.10546 2.91406 2.33204 2.76563 4.4375.39062 4.32812-3.15625.11328-.10156 4.4375-3.42969 4.4375-.22265v1.32812l-4.4375 1.1289-1.65625 1.29688-2.78125 3.38281-1.40234 1.0586 1.40234 2.21094 1.0625 2.22656.85938 4.4375 1.93359 4.4375.58203.49219 4.4375 1.37109 4.4375 1.13672 4.4414-.36328 4.3711-2.63672-4.07812-4.4375.66796-4.4375-.96093-1.01563-1.9414-3.42187-1.64454-4.4414-.85547-2.09376-4.4375-.33203v-1.32812l1.94531-.6836 2.4922-1.78906 4.4414.16016 4.4375 1.39843.97265.23047 3.46485 3.96094.09765.47656-.09765.25781-4.4375 2.00782-2.51172-2.26563-1.92578-1.5664-.80469 1.5664-.01172 4.4414.8164 1.44142 2.84376 2.99609 1.5625 4.4375.03125.03515 2.39062 4.40235-2.39062 2.20703-4.4375 1.66016-4.4414.15625-4.4375-.75782-4.4375-.75-3-2.51562-1.4375-4.03125-.45704-.40625-3.98438-3.90235-.9453-.53515-3.4922-1.48438-1.46093 1.48438-2.97656 1.64844-4.4375 2.3125-.50391.47656-3.55469 4.4375-.3789.60156-4.28516 3.83985-.15625.41796-.73047 4.01954-3.70703 2.90625L367 471.45313l-.6289-4.4375 1.93359-4.44141 2.05078-3.96094v11.86719l-.14453.97265.14453.125.16015-.125-.16015-.97265v-11.86719l.30469-.47656-.17188-4.4375-.13281-.40235-2.28906-4.03515-2.14844-2.82031-4.4375 1.32421-4.4375-1.70312-1.95703 3.19922-2.48438 1.42578"/><path fill="#00d4fc" fill-rule="evenodd" d="M360.65234 444.82031l-2.1289-4.4375 2.95703-2.8711 4.4375-1.07421v1.88281l-4.4375 1.48438-.59375.57812.59375 1.0586 4.4375.82812 2.6875-1.88672-2.6875-2.0625v-1.88281l4.4375 2.69922 2.1914-3.1914.17188-4.4375-2.36328-3.625-.45703-.8125.45703-4.16407 4.4375.67578v1.82813l-2.3711 1.66015 2.3711 3.6914.875.7461-.60547 4.4375-.26953.8086-2.6914 3.6289.44921 4.4375 2.24219 2.5625.73828 1.8789-.73828 1.97267-1.53125 2.46484 1.53125 2.10937 1.53906 2.32813 2.90235 2.42578 2.10156-2.42578 2.33594-2.20703 2.83203-2.23047 1.60546-3.89063.54688-.54687-.54688-.64844-1.24609-3.79297-.5586-4.4375 1.8047-2.16406 2.46093-2.27344.83203-4.4375-3.22265-4.4375-.07031-.02734-.125.02734-4.3125 1.5586-4.4375.0625-1.4297-1.6211-3.01171-1.66015v-1.82813l4.4414 1.6289 4.4375.91016 4.4375-.70312 4.4375 1.54687.09375.10547.73829 4.4375-.83204 1.33203-1.0078 3.10547-3.4297 3.17188-1.05468 1.26562.83594 4.4375.21875.66406 3.1914 3.77735-3.1914 3.21484-.50391 1.22266-3.9336 3.09765-1.42187 1.33985-3.01563 3.48047-4.16406-3.48047-.27734-.41797-2.91797-4.01953-.35547-4.4375-.82422-4.4414-.33984-1.71876-4.4375.89063-3.15625.82812-1.28125.48438-.82813-.48438"/><path fill="#00c4fc" fill-rule="evenodd" d="M361.48047 441.4414l-.59375-1.05859.59375-.57812 4.4375-1.48438v1.88281l-.5.1797.5.16406.23437-.16407-.23437-.17969v-1.8828l2.6875 2.0625-2.6875 1.88671-4.4375-.82812"/><path fill="#00e8fc" fill-rule="evenodd" d="M361.48047 413.8125l-.02735-.0586.02735-.03124 4.4375-3.95313v1.91797l-2.3086 2.0664 2.3086 2.04688 3.16797-2.04687-3.16797-2.06641v-1.91797l4.4375 1.71485 1.71484 2.26953-1.71484 1.7539-4.4375 2.19531-4.4375-3.89062"/><path fill="#fff" fill-opacity="0" fill-rule="evenodd" d="M365.91797 423.92969l-3.29688 3.14062 1.44141 4.4375 1.85547.32813.60937-.32813-.1289-4.4375-.48047-3.14062"/><path fill="#00d4fc" fill-rule="evenodd" d="M365.91797 415.80078l-2.3086-2.04687 2.3086-2.06641v1.91406l-.16797.15235.16797.14843.23047-.14843-.23047-.15235v-1.91406l3.16797 2.0664-3.16797 2.04688"/><path fill="#00b8fc" fill-rule="evenodd" d="M365.91797 440.54688l-.5-.16407.5-.17969.23437.1797-.23437.16406"/><path fill="#00c4fc" fill-rule="evenodd" d="M365.91797 413.90234l-.16797-.14843.16797-.15235.23047.15235-.23047.14843"/><path fill="#00d4fc" fill-rule="evenodd" d="M370.35547 471.57813l-.14453-.125.14453-.97266.16015.97265-.16015.125"/><path fill="#00c4fc" fill-rule="evenodd" d="M372.55078 444.82031l-.44922-4.4375 2.6914-3.6289.26954-.8086.60547-4.4375-.875-.7461-2.3711-3.6914 2.3711-1.66015 3.01172 1.66015 1.42969 1.6211 4.4375-.0625 4.3125-1.5586.125-.02734v2.78906l-4.35938 1.67578-.07813.02344-4.4375.34375-3.0703 4.07031-1.3711 4.10156-.2461.33594-.14062 4.4375.38672.44531 1.5664 3.9961-1.5664 4.20312-.14453.23438.14453.19922 2.80469 4.23828 1.63671 1.36719 1.1836-1.3672 3.2539-3.07421 1.73438-1.36328 1.52734-4.4375-1.09765-4.4414-.27735-4.4375 2.55079-3.0586 1.48828-1.3789-.25782-4.4375-1.23046-1.67579v-2.78906l.0703.02734 3.22266 4.4375-.83203 4.4375-2.46094 2.27344-1.80468 2.16406.5586 4.4375 1.24608 3.79297.54688.64844-.54688.54687-1.60546 3.89063-2.83204 2.23047-2.33593 2.20703-2.10156 2.42578-2.90235-2.42578-1.53906-2.32813-1.53125-2.10937 1.53125-2.46485.73828-1.97265-.73828-1.8789-2.24219-2.5625"/><path fill="#00b8fc" fill-rule="evenodd" d="M374.79297 445.26563l-.38672-.44532.14063-4.4375.24609-.33594 1.3711-4.10156 3.0703-4.07031v1.45703l-1.97265 2.61328-1.0664 4.4375.14452 4.4375.84766 4.4414-1.65625 4.4375 3.32813 4.4375.375.3125.26953-.3125 4.16796-3.9375.63282-.5 1.14844-4.4375-.64844-4.4414.00781-4.4375 3.29688-3.95703.51953-.48047-.51954-2.53125-4.4375.23438-4.4375-.3164V431.875l4.4375-.34375.07813-.02344 4.35938-1.67578 1.23046 1.67578.25782 4.4375-1.48829 1.3789-2.55078 3.0586.27735 4.4375 1.09765 4.4414-1.52734 4.4375-1.73438 1.36329-3.2539 3.07422-1.1836 1.36719-1.63671-1.3672-2.8047-4.23827-.14452-.19922.14453-.23438 1.5664-4.20312-1.5664-3.9961"/><path fill="#00a8fc" fill-rule="evenodd" d="M378.85938 458.13672l-3.32813-4.4375 1.65625-4.4375-.84766-4.4414-.14453-4.4375 1.0664-4.4375 1.97267-2.61329v1.45313l-.87891 1.16015-.59766 4.4375.53516 4.4375-.27344 4.4414-1.66797 4.4375 2.88281 3.69532 3.95704-3.69531.48046-2.99219.3047-1.44531-.19923-4.4414.28516-4.4375.28125-4.4375-.67188-.17579-4.4375-.98437v-1.45313l4.4375.3164 4.4375-.23437.51954 2.53125-.51954.48047-3.29687 3.95703-.00781 4.4375.64844 4.4414-1.14844 4.4375-.63281.5-4.16797 3.9375-.26954.3125-.375-.3125"/><path fill="#009800" fill-rule="evenodd" d="M379.23438 457.39453l-2.88282-3.69531 1.66797-4.4375.27344-4.4414-.53516-4.4375.59766-4.4375.8789-1.16016v12.3828l-.38671 2.09376-1.67188 4.4375 2.0586 2.64062 2.82812-2.64062-1.19531-4.4375-1.63281-2.09375v-12.38281l4.4375.98437.67187.17578-.28125 4.4375-.28516 4.4375.19922 4.4414-.30469 1.44532-.48046 2.99219-3.95704 3.69531"/><path fill="#00ac00" fill-rule="evenodd" d="M379.23438 456.33984l-2.0586-2.64062 1.67188-4.4375.38671-2.09375v3.25781l-1.23828 3.27344 1.23829 1.58594 1.69921-1.58594-1.69921-3.27344v-3.25781l1.6328 2.09375 1.19532 4.4375-2.82813 2.64062"/><path fill="#00c800" fill-rule="evenodd" d="M379.23438 455.28516l-1.23829-1.58594 1.23829-3.27344 1.69921 3.27344-1.69921 1.58594"/><path fill="#00d4fc" fill-rule="evenodd" d="M401.42578 451.47266l-1.40234-2.21094 1.40234-1.0586 2.78125-3.3828 1.65625-1.29688 4.4375-1.1289v1.32812l-2.94922 1.09765-1.48828 1.89063-1.99219 2.55078 1.9922 4.28906.03515.14844-.03516.35156-.46875 4.08594.46875 1.02734 3.08985 3.41016 1.34765.46484 4.4375 1.51172 4.4414-.5664 2.33594-1.41016-2.33593-2.45313-1.61328-1.98437.09375-4.4375-1.54297-4.4375-1.3789-2.83594-2.01954-1.60547-2.41797-1.09765v-1.32813l4.4375.33203.85547 2.09375 1.64453 4.4414 1.9414 3.42188.96094 1.01563-.66796 4.4375 4.07812 4.4375-4.3711 2.63672-4.4414.36328-4.4375-1.13672-4.4375-1.3711-.58203-.49218-1.9336-4.4375-.85937-4.4375-1.0625-2.22656"/><path fill="#00c4fc" fill-rule="evenodd" d="M405.86328 453.55078l-1.99219-4.28906 1.9922-2.55078 1.48827-1.89063 2.94922-1.09765v1.34765l-3.85547 4.1914 1.23438 4.4375.41015 4.4375 2.21094 2.3711 1.85547 2.0664 2.58203.95313 4.4414-.76953.30079-.1836-.30078-.3164-3.34766-4.1211-1.09375-4.03124-.17969-.40625.1797-.97266.2539-3.46484-.2539-.52344-4.4375-3.66797v-1.34765l2.41796 1.09765 2.01953 1.60547 1.3789 2.83594 1.54298 4.4375-.09375 4.4375 1.61328 1.98437 2.33594 2.45313-2.33594 1.41015-4.4414.56641-4.4375-1.51172-1.34767-.46484-3.08984-3.41016-.46875-1.02734.46875-4.08594.03516-.35156-.03516-.14844"/><path fill="#00b8fc" fill-rule="evenodd" d="M407.67969 453.69922l-1.23438-4.4375 3.85547-4.1914v1.45312l-2.51953 2.73828 1.6836 4.4375.83593 2.96484 1.35938-2.96484 1.78906-4.4375-3.14844-2.73828v-1.45313l4.4375 3.66797.2539.52344-.2539 3.46484-.17969.97266.1797.40625 1.09374 4.03125 3.34766 4.1211.30078.3164-.30078.1836-4.4414.76952-2.58204-.95312-1.85547-2.0664-2.21094-2.3711-.41015-4.4375"/><path fill="#00a8fc" fill-rule="evenodd" d="M409.46484 453.69922l-1.68359-4.4375 2.51953-2.73828v1.44922l-1.1875 1.28906 1.1875 2.77734 1.48047-2.77734-1.48047-1.28906v-1.44922l3.14844 2.73828-1.78906 4.4375-1.35938 2.96484-.83594-2.96484"/><path fill="#009800" fill-rule="evenodd" d="M410.30078 452.03906l-1.1875-2.77734 1.1875-1.28906 1.48047 1.28906-1.48047 2.77734"/><path fill="#fff" fill-opacity="0" fill-rule="evenodd" d="M419.17969 447.97266l-.14453 1.28906.14453.25 1.53906-.25-1.53906-1.28906m4.4375 3.48046l-.46094 2.2461.46094 1.30078.8711-1.30078-.8711-2.2461"/><path fill="#00e8fc" fill-rule="evenodd" d="M428.05469 455.58984l-1.42969-1.89062 1.42969-2.39453 4.4375-1.5664v1.59374l-3.16406 2.36719 3.16406 3.1875 3.32031-3.1875-3.32031-2.36719v-1.59375l4.4375.7539 1.52734 3.20704-1.52734 2.09765-2.53516 2.33985-1.90234 1.3711-1.9336-1.3711-2.5039-2.54688"/><path fill="#00d4fc" fill-rule="evenodd" d="M432.49219 456.88672l-3.16406-3.1875 3.16406-2.36719v1.59375l-1.03125.77344 1.03125 1.03906 1.08594-1.03906-1.08594-.77344v-1.59375l3.32031 2.36719-3.32031 3.1875"/><path fill="#00c4fc" fill-rule="evenodd" d="M432.49219 454.73828l-1.03125-1.03906 1.03125-.77344 1.08594.77344-1.08594 1.03906"/><path fill="#50fcfc" fill-rule="evenodd" d="M441.3711 478.54688l-2.95313-2.65625 2.95312-2.85157 2.76954 2.85156-2.76954 2.65625"/><g clip-path="url(#d)"><path fill="#fff" fill-opacity="0" fill-rule="evenodd" d="M467.9961 480.32813H468V311.67188h-.0039H468v168.65625h-.0039"/></g><path fill="#fff" fill-opacity="0" fill-rule="evenodd" d="M344.67188 441.39453l5.84375.07031.11718-9.96093-5.83984-.07032-.1211 9.96094"/><path fill-rule="evenodd" d="M348.26953 433.3086l.51172.0078-.07813 6.29298-.78515-.00782.05469-4.48828-1.39063-.01953.00781-.55469.5586-.0586.2539-.05077.23047-.08594.20703-.14063.17579-.20703.14453-.29296.10937-.39454"/><path fill="#fff" fill-opacity="0" fill-rule="evenodd" d="M385.69531 444.73438l3.20313 4.88671 8.32812-5.46093-3.19922-4.88672-8.33203 5.46094"/><path fill-rule="evenodd" d="M394.41016 443.20703l.28125.42578-5.26563 3.44922-.4336-.66015 3.75782-2.46094-.76172-1.16016.46485-.30469.35937.4336.1836.17969.20312.14453.23047.09375.26953.03125.32422-.04688.38672-.125"/><path fill="#fff" fill-opacity="0" fill-rule="evenodd" d="M427.20703 465.125l5.2461-2.57031-4.38672-8.94531-5.2422 2.57421 4.38282 8.94141"/><path fill-rule="evenodd" d="M426.77344 456.28516l.45703-.22266L430 461.71484l-.70703.34766-1.97656-4.03125-1.2461.60938-.24219-.5.47266-.3047.20313-.15624.16406-.1836.1211-.21484.0664-.26563-.0039-.32812-.07813-.40234"/><g clip-path="url(#e)"><path fill="none" stroke="#000" stroke-linecap="round" stroke-linejoin="round" stroke-miterlimit="10" stroke-width=".5" d="M142.66406 483.57813l2.67188-6.5"/></g><g clip-path="url(#f)"><path fill="none" stroke="#000" stroke-linecap="round" stroke-linejoin="round" stroke-miterlimit="10" stroke-width=".5" d="M156.6914 483.78516l1.2461-6.91407"/></g><g clip-path="url(#g)"><path fill="none" stroke="#000" stroke-linecap="round" stroke-linejoin="round" stroke-miterlimit="10" stroke-width=".5" d="M169.61719 483.6914l2.02734-6.72656"/></g><g clip-path="url(#h)"><path fill="none" stroke="#000" stroke-linecap="round" stroke-linejoin="round" stroke-miterlimit="10" stroke-width=".5" d="M180.4336 480.41797l7.02343-.17969"/></g><g clip-path="url(#i)"><path fill="none" stroke="#000" stroke-linecap="round" stroke-linejoin="round" stroke-miterlimit="10" stroke-width=".5" d="M193.7539 480.55469l7.01173-.45313"/></g><g clip-path="url(#j)"><path fill="none" stroke="#000" stroke-linecap="round" stroke-linejoin="round" stroke-miterlimit="10" stroke-width=".5" d="M194.77344 480.48828l-.64453-1.04297"/></g><g clip-path="url(#k)"><path fill="none" stroke="#000" stroke-linecap="round" stroke-linejoin="round" stroke-miterlimit="10" stroke-width=".5" d="M207.40234 478.82031l6.34766 3.01563"/></g><path fill="none" stroke="#000" stroke-linecap="round" stroke-linejoin="round" stroke-miterlimit="10" stroke-width=".5" d="M208.32422 479.26172l-.05469-1.22656"/><g clip-path="url(#l)"><path fill="none" stroke="#000" stroke-linecap="round" stroke-linejoin="round" stroke-miterlimit="10" stroke-width=".5" d="M221.1289 478.15625l5.52344 4.34375"/></g><path fill="none" stroke="#000" stroke-linecap="round" stroke-linejoin="round" stroke-miterlimit="10" stroke-width=".5" d="M221.1289 478.15625l.4336-2.41406"/><g clip-path="url(#m)"><path fill="none" stroke="#000" stroke-linecap="round" stroke-linejoin="round" stroke-miterlimit="10" stroke-width=".5" d="M234.6914 477.875l5.03126 4.90625"/></g><path fill="none" stroke="#000" stroke-linecap="round" stroke-linejoin="round" stroke-miterlimit="10" stroke-width=".5" d="M234.6914 477.875l.6875-2.35547"/><g clip-path="url(#n)"><path fill="none" stroke="#000" stroke-linecap="round" stroke-linejoin="round" stroke-miterlimit="10" stroke-width=".5" d="M247.9414 477.9414l5.15626 4.77344"/></g><path fill="none" stroke="#000" stroke-linecap="round" stroke-linejoin="round" stroke-miterlimit="10" stroke-width=".5" d="M247.9414 477.9414l.62891-2.37109"/><g clip-path="url(#o)"><path fill="none" stroke="#000" stroke-linecap="round" stroke-linejoin="round" stroke-miterlimit="10" stroke-width=".5" d="M261.16406 478.04688l5.34375 4.5664"/></g><path fill="none" stroke="#000" stroke-linecap="round" stroke-linejoin="round" stroke-miterlimit="10" stroke-width=".5" d="M261.16406 478.04688l.53516-2.39844"/><g clip-path="url(#p)"><path fill="none" stroke="#000" stroke-linecap="round" stroke-linejoin="round" stroke-miterlimit="10" stroke-width=".5" d="M274.45313 478.07813l5.39843 4.5"/></g><path fill="none" stroke="#000" stroke-linecap="round" stroke-linejoin="round" stroke-miterlimit="10" stroke-width=".5" d="M274.45313 478.07813l.5-2.40235"/><g clip-path="url(#q)"><path fill="none" stroke="#000" stroke-linecap="round" stroke-linejoin="round" stroke-miterlimit="10" stroke-width=".5" d="M287.38281 478.64063l6.16406 3.375"/></g><path fill="none" stroke="#000" stroke-linecap="round" stroke-linejoin="round" stroke-miterlimit="10" stroke-width=".5" d="M287.38281 478.64063l.03125-2.45313"/><g clip-path="url(#r)"><path fill="none" stroke="#000" stroke-linecap="round" stroke-linejoin="round" stroke-miterlimit="10" stroke-width=".5" d="M300.60547 478.82422l6.35156 3.01172"/></g><path fill="none" stroke="#000" stroke-linecap="round" stroke-linejoin="round" stroke-miterlimit="10" stroke-width=".5" d="M300.60547 478.82422l-.10938-2.45313"/><g clip-path="url(#s)"><path fill="none" stroke="#000" stroke-linecap="round" stroke-linejoin="round" stroke-miterlimit="10" stroke-width=".5" d="M313.6875 479.48047l6.82031 1.69531"/></g><path fill="none" stroke="#000" stroke-linecap="round" stroke-linejoin="round" stroke-miterlimit="10" stroke-width=".5" d="M313.6875 479.48047l-.59766-2.3789"/><g clip-path="url(#t)"><path fill="none" stroke="#000" stroke-linecap="round" stroke-linejoin="round" stroke-miterlimit="10" stroke-width=".5" d="M326.89844 480.34375l7.02734-.03125"/></g><g clip-path="url(#u)"><path fill="none" stroke="#000" stroke-linecap="round" stroke-linejoin="round" stroke-miterlimit="10" stroke-width=".5" d="M327.91797 480.33984l-.57813-1.08203"/></g><g clip-path="url(#v)"><path fill="none" stroke="#000" stroke-linecap="round" stroke-linejoin="round" stroke-miterlimit="10" stroke-width=".5" d="M340.7461 478.46484l5.95702 3.72657"/></g><path fill="none" stroke="#000" stroke-linecap="round" stroke-linejoin="round" stroke-miterlimit="10" stroke-width=".5" d="M341.61328 479.00781l.08594-1.22265"/><g clip-path="url(#w)"><path fill="none" stroke="#000" stroke-linecap="round" stroke-linejoin="round" stroke-miterlimit="10" stroke-width=".5" d="M354.76953 483.01172l4.54297-5.36328"/></g><g clip-path="url(#x)"><path fill="none" stroke="#000" stroke-linecap="round" stroke-linejoin="round" stroke-miterlimit="10" stroke-width=".5" d="M368.16797 483.07813l4.375-5.5"/></g><g clip-path="url(#y)"><path fill="none" stroke="#000" stroke-linecap="round" stroke-linejoin="round" stroke-miterlimit="10" stroke-width=".5" d="M380.17188 480l6.99609.65625"/></g><g clip-path="url(#z)"><path fill="none" stroke="#000" stroke-linecap="round" stroke-linejoin="round" stroke-miterlimit="10" stroke-width=".5" d="M381.1914 480.09766l-.47265-1.13282"/></g><g clip-path="url(#A)"><path fill="none" stroke="#000" stroke-linecap="round" stroke-linejoin="round" stroke-miterlimit="10" stroke-width=".5" d="M395.51172 483.51563l2.94922-6.375"/></g><g clip-path="url(#B)"><path fill="none" stroke="#000" stroke-linecap="round" stroke-linejoin="round" stroke-miterlimit="10" stroke-width=".5" d="M409.27344 483.6875l2.05469-6.71875"/></g><g clip-path="url(#C)"><path fill="none" stroke="#000" stroke-linecap="round" stroke-linejoin="round" stroke-miterlimit="10" stroke-width=".5" d="M421.41797 483.07031l4.39453-5.48437"/></g><g clip-path="url(#D)"><path fill="none" stroke="#000" stroke-linecap="round" stroke-linejoin="round" stroke-miterlimit="10" stroke-width=".5" d="M436.24219 483.77344l1.3789-6.89063"/></g><g clip-path="url(#E)"><path fill="none" stroke="#000" stroke-linecap="round" stroke-linejoin="round" stroke-miterlimit="10" stroke-width=".5" d="M448.44531 483.34375l3.60156-6.03125"/></g><g clip-path="url(#F)"><path fill="none" stroke="#000" stroke-linecap="round" stroke-linejoin="round" stroke-miterlimit="10" stroke-width=".5" d="M462.00781 483.48047l3.10938-6.30469"/></g><g clip-path="url(#G)"><path fill="none" stroke="#000" stroke-linecap="round" stroke-linejoin="round" stroke-miterlimit="10" stroke-width=".5" d="M141.36328 469.33594l5.27344-4.64453"/></g><path fill="none" stroke="#000" stroke-linecap="round" stroke-linejoin="round" stroke-miterlimit="10" stroke-width=".5" d="M154.58594 469.22656l5.45703-4.42578m-4.66406 3.78125l-1.12891-.47656m13.26563.53516l6.23046-3.25391m-5.32422 2.78125l-1.01171-.69531m13.08593.21875l6.89453-1.35547M181.5 467.49609l-.77344-.95312m13.1211-.36328l6.82422 1.66797m-5.83204-1.42579l-.30078-1.1875m12.98828.03125l6.09375 3.4961m-6.09375-3.4961l.07813-2.45312m13.44922 2.1289l5.67187 4.14454m-5.67187-4.14453l.34765-2.4297m13.02735 2.34766l5.55078 4.3086m-5.55078-4.3086l.41797-2.41796m13.41406 1.8828l4.51953 5.37891m-4.51953-5.3789l.91406-2.27735m-.25781 3.0586l.45703-1.13672m12.07422.46484l4.76953 5.16016m-4.76953-5.16016l.8086-2.3164m-.11329 3.0664l.40625-1.15625m11.9961.62891l5.20703 4.71484m-5.20704-4.71484l.60157-2.3789m.15625 3.0625l.30078-1.1875m12.375.375l4.96875 4.97265m-4.96875-4.97266l.71875-2.34375m12.72656 2.22266l4.71094 5.21484m-4.02735-4.45703l.41797-1.15234m11.26953 1.79687l6.59766 2.41016m-5.64062-2.0586l-.16797-1.21484m12.36328 1.46875l6.92578 1.19922m-6.92578-1.19922l-.76563-2.33203m14.19532 1.85938l6.6914 2.14453m-5.71484-1.83203l-.21875-1.20704m13.45703 4.48438l4.89453-5.03516m-4.1836 4.3047l-1.17968-.34376m13.55469.83203l5.35547-4.55078m-4.57813 3.88672l-1.14062-.44922m13.27734.53125l6.15625-3.38672m-5.26172 2.89453l-1.02734-.67187m13.7539 1.6289l5.54297-4.3164m-4.73828 3.6875l-1.11719-.5m14.50391 1.92969l3.78906-5.91797m-3.23828 5.0586l-1.22266-.10157m13.71094.76172l4.34375-5.51953m-3.71484 4.71875l-1.20703-.21875m14.42187 1.36718l3.28516-6.21484m-2.8086 5.3086l-1.22656.0039m13.13672.1914l5.14063-4.78906m-4.39454 4.08985l-1.15625-.39844m15.13282 2.01562l2.32422-6.6289m-2.32422 6.6289l-2.42578.3711"/><g clip-path="url(#H)"><path fill="none" stroke="#000" stroke-linecap="round" stroke-linejoin="round" stroke-miterlimit="10" stroke-width=".5" d="M141.0625 455.6289l5.875-3.85937"/></g><path fill="none" stroke="#000" stroke-linecap="round" stroke-linejoin="round" stroke-miterlimit="10" stroke-width=".5" d="M154.35938 455.59766l5.91406-3.79688m-5.91406 3.79688l-2.14063-1.20313m14.94531-.11328l6.92969-1.16406m-5.92188.99219l-.74609-.97266m13.02734.16406l6.98438.79688m-5.96875-.6797l-.44922-1.14452m12.97266.13672l6.53515 2.57812m-6.53515-2.57812l-.27735-2.4375m13.57032 2.5l6.58203 2.45312m-6.58203-2.45312l-.32422-2.4336m14.33203 1.29297l5.1914 4.73438m-5.1914-4.73438l.60937-2.3789m13.2422 1.90234l4.12108 5.6875m-4.12109-5.6875l1.07813-2.20703m12.61328 1.96484l3.36719 6.16797m-3.3672-6.16797l1.35157-2.04687m11.98828 2.03515l3.32031 6.1914m-3.3203-6.1914l1.36327-2.03906m11.86719 2.08594l3.48828 6.09765m-3.48828-6.09765l1.3086-2.07422m12.5664 1.8164l2.36719 6.6172m-2.02344-5.65626l.82813-.90625m12.37109-.1289l1.91406 6.76171m-1.63672-5.77734l.88672-.84766m13.34375-.26171l-.47265 7.01171m.40625-5.98828l1.11718-.5039m12.58203-.48047l-1.10546 6.9375m.9453-5.92969l1.16016-.39844m11.56641-.64843l.39063 7.01562m14.35546-.21875l-2.47265-6.57812m12.46484 6.11718l4.17188-5.65625m8.47265 5.00391l5.51563-4.35156m-4.71485 3.71875l-1.12109-.49219m13.73828 1.25l5.3086-4.60156m7.18359 2.79297l6.95703-.98829m-5.94531.84375l-.72266-.98828m13.27344 2.02344l6.45703-2.76953m-5.51563 2.36719l-.95703-.76953m13.45313 1.42578l6.21484-3.27344m-6.21484 3.27344l-2.03125-1.3789m15.39844 1.47655l6.10937-3.47265m-6.10937 3.47265l-2.07032-1.3125m16.28125 2.35157l4.31641-5.54688m-4.3164 5.54688l-2.41798-.42579"/><g clip-path="url(#I)"><path fill="none" stroke="#000" stroke-linecap="round" stroke-linejoin="round" stroke-miterlimit="10" stroke-width=".5" d="M140.61719 441.33203l6.76562-1.89844"/></g><path fill="none" stroke="#000" stroke-linecap="round" stroke-linejoin="round" stroke-miterlimit="10" stroke-width=".5" d="M154.22266 442.05469l6.18359-3.34375m-5.28125 2.85547l-1.02344-.67578m13.02735-.81641l7 .61719m-5.98047-.52735l-.48047-1.1289m12.77344 1.09375l7.0078.5078m-5.98827-.43359l-.4961-1.12109m12.89063.42578l6.8086 1.75m-5.81641-1.4961l-.28907-1.1914m14.53125-1.3711l2.97266 6.3672m-2.54297-5.44141l.73828-.98047m12.95313-.20703l1.35937 6.89453m-1.16015-5.89453l.94922-.77344m12.80078-.29297l.08984 7.02735m-.07813-6.0039l1.07813-.59376m11.84375-.40625l.85547 6.97656m-.73047-5.96093l1.0039-.70313m12.27344-.32031l.6797 6.99219m-.58204-5.97657l1.02344-.67578m12.2461-.34375l.57421 7.0039m-.49219-5.98437l1.03516-.66406m14.02344-.01562l-3.07422 6.3203m2.625-5.39843l1.22656-.04687m11.82812-1.12891l-1.65625 6.82813m1.41407-5.83594l1.1914-.30078m13.07813-.4336l-3.08203 6.3125m2.63281-5.39453l1.22656-.04297m12.35547-.95703l-2.71875 6.48047m2.32422-5.53906l1.22266-.11328m12.64843-.75782l-3.03906 6.33594m2.59766-5.41406l1.22656-.05078m13.78516.14062l-5.55079 4.3125m4.7422-3.6836l1.12109.5m11.54687-2.23046l-2.63672 6.51563m2.25-5.56641l1.22266-.1289m9 5.21093l4.32031-5.54297m-3.6914 4.73438l-1.21094-.21094m13.33593.47266l5.44141-4.44922m-4.64844 3.80078l-1.1328-.47266m15.0039 2.1289l2.74218-6.46874m-2.34375 5.52734l-1.22265.10938m15.14844 1.09375l.72265-6.98828m9.69922 4.8164l6.51172-2.64844m-5.5625 2.26172l-.9414-.78515m14.64843 2.79297l3.82813-5.89063m-3.26954 5.03516l-1.22265-.10938m12.55469-.88281l6.67578-2.19531m-5.70313 1.875l-.88672-.84766"/><g clip-path="url(#J)"><path fill="none" stroke="#000" stroke-linecap="round" stroke-linejoin="round" stroke-miterlimit="10" stroke-width=".5" d="M140.53125 426.5l6.9375 1.13672"/></g><path fill="none" stroke="#000" stroke-linecap="round" stroke-linejoin="round" stroke-miterlimit="10" stroke-width=".5" d="M154.4336 429.07813l5.76171-4.01954m-4.92187 3.4336l-1.09375-.5586m14.89844 2.28516l3.10546-6.30078m-2.65234 5.38672l-1.22656.03515m12.36719-3.55078l6.54296 2.5625m-5.58984-2.1914l-.14063-1.21875m15.96094-1.38282l-.3711 7.01953m.31642-5.99609l1.11328-.51953m10.58984-.17969l2.96484 6.3711m-2.53515-5.44532l.73828-.97656m14.8711-.05078l-2.48438 6.57422m2.1211-5.61719l1.21874-.15625m11.21875-1.02734v7.02734m0-6.0039L238.28906 424m13.08203-.33984l-1.69922 6.8164m1.45313-5.82422l1.1875-.29687m12.76563-.57422l-2.48438 6.57422m2.1211-5.61719l1.21874-.15625m13.92578.2461l-5.41406 4.48046m4.625-3.82812l1.13281.46875m12.10938-1.8711l-3.6914 5.98047m3.15234-5.10937l1.22656.07812m12.78516-.84375l-4.00782 5.76953m4.00782-5.76953l2.4375.28907M319.9375 425l-5.67969 4.13672m4.85156-3.53516l1.10157.53516m12.39062-1.8125l-4.38281 5.48828m3.7461-4.6914l1.20702.22656m12.28907-1.33594l-3.46875 6.11328m2.96484-5.22266l1.22656.03516m13.10547-.57031l-4.4961 5.40234m3.83985-4.61719l1.20313.25m10.8164-1.83593l-.59375 7.0039m.50782-5.98437l1.1289-.48047m9.6289 5.57812l4.69532-5.23047m-4.01172 4.46875l-1.1914-.29687m13.80468 1.03906l4.73047-5.1914m-4.04297 4.4375l-1.1875-.3047m14.21485 1.375l3.92968-5.82421m-3.92968 5.82422l-2.4414-.25781m14.60937-1.02344l6.22265-3.26172m-5.3164 2.78906l-1.01172-.69531m16.88281-3.95703l-.69922 6.99219m.59766-5.97657l1.13281-.46484m10.04687-.01953l3.77344 5.92578m8.08203-4.03516l6.69141 2.14453m-5.71484-1.83203l-.21875-1.20703"/><g clip-path="url(#K)"><path fill="none" stroke="#000" stroke-linecap="round" stroke-linejoin="round" stroke-miterlimit="10" stroke-width=".5" d="M146.98438 411.89844l-5.96875 3.71094"/></g><path fill="none" stroke="#000" stroke-linecap="round" stroke-linejoin="round" stroke-miterlimit="10" stroke-width=".5" d="M146.11328 412.4375l1.0625.61328m13.64844.83985l-7.01953-.27344m20.25-.64844l-6.84766 1.57031m20.14063.08985l-6.8047-1.75m5.81642 1.49218l.28906 1.19532m12.7461.97656l-4.26954-5.57813m13.95313-.39062l2.99218 6.35937M209.51562 411.5l.73438-.98438m16.6875 1.48829l-6.09375 3.5m19.30078-3.67578l-5.8789 3.85156m5.8789-3.85156l2.15234 1.18359m11.50782-.50781l-6.5664 2.5m5.60937-2.13672l.92578.8086m12.98828-1.86329l-5.85547 3.88281m5.85547-3.88281l2.16015 1.16797m11.72266.39844l-6.98828.74609m6.98828-.7461l1.375 2.03126m11.38281-3.58985l-5.87109 3.86328m5.01563-3.30078l1.07812.58985m13.23047-.92188l-6.14844 3.40625m5.2539-2.91016l1.02735.66797m12.59766-1.9375l-4.98047 4.95313m4.98047-4.95313l2.34375.72266m10.72656-.94922l-4.48828 5.40625m4.48828-5.40625l2.40234.4961m10.82813-.5625l-4.32422 5.53906m4.32422-5.53907l2.41797.42579m9.84375-.9922l-2.21485 6.66798m1.89454-5.69532l1.20703-.20703m12.76172-.63672l-2.88282 6.41016m2.88282-6.41015l2.44921-.16016m12.15235 1.15234l-5.45313 4.42969m12.79688-3.5625l6.48828 2.69531m-5.54688-2.30469l-.11328-1.21875m13.23047-.29296l5 4.9375m-4.27344-4.21875l.35157-1.17579m15.47656-.5078l-1.47656 6.86718m1.26172-5.8711l1.17968-.33203m11.58594-.74609l.05078 7.02734m-.05078-7.02734l2.16016-1.16406m9.9375 1.39062l2.48437 6.57422m-2.48437-6.57422l1.62109-1.83984m10.20703 2.91406l5.45703 4.42969m-5.45703-4.42969l.47266-2.40625"/><g clip-path="url(#L)"><path fill="none" stroke="#000" stroke-linecap="round" stroke-linejoin="round" stroke-miterlimit="10" stroke-width=".5" d="M146.0625 397.59375l-4.125 5.6914"/></g><path fill="none" stroke="#000" stroke-linecap="round" stroke-linejoin="round" stroke-miterlimit="10" stroke-width=".5" d="M145.46094 398.42188l1.21484.16796m14.14844 1.6836l-7.01953.32812m6-.28125l.625 1.0586m12.6914 1.53906l-4.98047-4.95703m4.25391 4.23437l-.35547 1.17578m14.48047-.54296l-5.14844-4.78125m4.39844 4.08593l-.3125 1.1875m13.34766-6.03906l-3.08985 6.3125m13.0625-6.17578l3.59375 6.03906m-3.0703-5.16015l.63671-1.04688m11.7461.45703l4.41406 5.46485M222.32422 398.5l.48047-1.1289m17.75781 4.10546l-6.71484-2.07812m6.71484 2.07812l.45703 2.41016m12.97656-3.95703l-6.95312 1.01953m6.95312-1.01953l1.45703 1.97265m11.89063-1.2539l-7.01563-.41797m5.9961.35547l.50781 1.11719m13.8164-1.58204l-6.99609.63672m6.9961-.63672l1.34375 2.05079m-2.35938-1.96094l.67188 1.02734m12.94531-2.94531l-5.5664 4.28906m5.5664-4.28906l2.23438 1.01562m-3.04688-.39062l1.1211.50781m12.02734-2l-3.60938 6.02735m3.60938-6.02735l2.44922.125m9.5078-.59765l-.89452 6.96875m.89453-6.96875l2.29687-.8672m-2.42578 1.88282l1.14844-.4336m10.70313-.41796l2.29296 6.64062m-2.29296-6.64062l1.67187-1.79688m12.60156 1.60938l.375 7.01562m-.32031-5.9961l1.05078-.6328m11.42969-.25391l1.9336 6.7539m-1.65235-5.77343l.88281-.85156m11.54688.10546l3.14062 6.28516m-3.14062-6.28515l1.42187-2m12.33594 1.8125l2.2539 6.65625m10.9336-6.60938l2.51172 6.5625m-2.14844-5.60547l.8086-.92578m16.7539 2.20313l-6.70703 2.09375m16.9961-4.54297l-.65626 6.99609m.5586-5.98047l1.1328-.47265m11.94923-.5586v7.02735m0-7.02735l2.16797-1.15234m10.125 1.30469l2.05078 6.71875m-2.05078-6.71875l1.73437-1.73438m-1.4375 2.71094l.86719-.86719m11.26953.30078l3.8125 5.90235m-3.8125-5.90235l1.19531-2.14453m-.64062 3l.59765-1.07031"/><g clip-path="url(#M)"><path fill="none" stroke="#000" stroke-linecap="round" stroke-linejoin="round" stroke-miterlimit="10" stroke-width=".5" d="M142.89844 383.78516l2.20312 6.67578"/></g><path fill="none" stroke="#000" stroke-linecap="round" stroke-linejoin="round" stroke-miterlimit="10" stroke-width=".5" d="M159.6836 389.71875l-4.73438-5.1914m16.75 5.9414l-2.13672-6.6914m1.82422 5.71874l-.85547.87891m12.09766-6.50781l2.6328 6.51562m9.84767-6.03515l4.30468 5.55468m-3.67969-4.75l.50391-1.11718m15.41406-.25782L209.5 390.46875m2.15234-6.6914l2.41407-.4336m9.30859.30469l1.03125 6.94922m-.88281-5.9375l.98828-.73047m15.15234 5.70312l-4.91797-5.01953m4.91797 5.01953l-.74219 2.33985m.02735-3.07032l-.3711 1.16797m15.08594-1.375l-6.28515-3.14453m6.28515 3.14453l.0625 2.45313m13.48828-4.99219l-6.7578 1.9336m6.7578-1.9336l1.70313 1.76563m-2.6875-1.48438l.85156.88281m13.57422-.42969l-7.01172.46485m7.01172-.46485l1.29297 2.08204m11.14453-4.1797l-5.25781 4.66017m4.49219-3.98438l1.15234.42969m12.14453-1.76563l-3.6875 5.98047m3.6875-5.98047l2.44922.15625m10.08594-.51562l-2.12891 6.69922m2.1289-6.69922l2.41407-.4375m-2.72266 1.41406l1.20703-.22266m12.51563-.71875L329.25 390.4375m2.32422-6.6289l2.42187-.3711m-2.76171 1.33594l1.21093-.1875m12.42578-.78516l-2.29296 6.64453m2.29296-6.64453l2.42579-.3789m10.11718.20703l-.7461 6.98828m.7461-6.98828l2.27735-.91407m11.66015 1.03907l-1.99219 6.73828m1.70313-5.75781l1.20313-.2461m13.19921-.38672l-3.58984 6.04297m3.58984-6.04297l2.45313.11719m11.28125.17578l-4.42578 5.45703m4.42578-5.45703l2.40625.46875m11.49219.13281L407.5039 389.25m4.78125-3.63281l1.11328.51172m11.16406-2.39063l-1.89453 6.76953m1.6211-5.78515l1.19921-.26172m9.32031-.13672l4.2461 5.59765m-3.6289-4.78515l.51562-1.11328m13.53906-.32813l1.53125 6.85547m-1.53125-6.85547l1.86328-1.59765m12.39844 1.51562l-.36328 7.01953m.36328-7.01953l2.22265-1.03515m-2.27343 2.05859l1.10937-.51953"/><g clip-path="url(#N)"><path fill="none" stroke="#000" stroke-linecap="round" stroke-linejoin="round" stroke-miterlimit="10" stroke-width=".5" d="M140.5586 374.50781l6.8828-1.39844"/></g><path fill="none" stroke="#000" stroke-linecap="round" stroke-linejoin="round" stroke-miterlimit="10" stroke-width=".5" d="M155.03516 376.48438l4.55859-5.35157m-3.89453 4.57031l-1.19922-.26171m14.53516 1.5l3.1875-6.26563M169.5 376.02734l-1.22656.02344m18.76953-.58594l-6.19531-3.3125m5.29297 2.83204l-.00391 1.22656m14.60156-2.89063l-6.95703.97656m5.94531-.83593l.72266.99219m10.5-4.13672l-.75 6.98437m.75-6.98437l2.27734-.91797m14.17578 4.4375l-7.02343-.05469m6.0039.04688l.5664 1.08984m12.3711 1.69531l-4.23047-5.60937m4.23047 5.60937l-1.03906 2.22656m15.48438-3.6875l-6.4922-2.6875m6.4922 2.6875L254 377.59375m12.82422-5.63281l-5.97656 3.69531m5.97656-3.69531l2.11719 1.23437m11.42578-.80078l-6.4336 2.82813m6.4336-2.82813l1.92578 1.51563m10.80469-2.4297l-5.26172 4.65626m5.26172-4.65625l2.29687.85547m-3.0625-.17969l1.14844.42969m11.10937-2.19531l-1.62109 6.83593m1.6211-6.83594l2.375-.62109m8.80077.78516l2.66016 6.5039m-2.66016-6.5039l1.57032-1.88672m11.33593 2.08984l3.48047 6.10156m-2.97656-5.21484l.65625-1.03906m12.07813.19531l3.6328 6.01563m-3.10546-5.14063l.6289-1.05469m13.22266-.24609l1.5039 6.86719m-1.5039-6.86719l1.8711-1.58594m9.23437 3.1289l5.92188 3.78126m-5.0586-3.23047l.09766-1.22266m12.27344.8047l6.08593 3.51562m-5.19922-3.00391l.03907-1.22656m15.30078-1.03906l.26172 7.02343m-.26172-7.02344l2.1211-1.23046m12.69921 1.5078l-2.75 6.46876m2.75-6.46875l2.44531-.21094m11.4922.55469l-3.9961 5.78125m3.9961-5.78125l2.4375.28515m9.6328-.82812l-1.5039 6.86328m1.28515-5.86328l1.1836-.33203m11.66406-.7461l-.13281 7.02344m.13281-7.02344l2.1875-1.11328m11.47656 1.13672l-.83203 6.97656m.83203-6.97656l2.28906-.88672m-2.41015 1.90235L465 370.89063"/><g clip-path="url(#O)"><path fill="none" stroke="#000" stroke-linecap="round" stroke-linejoin="round" stroke-miterlimit="10" stroke-width=".5" d="M140.48828 360.44531l7.02344.09375"/></g><path fill="none" stroke="#000" stroke-linecap="round" stroke-linejoin="round" stroke-miterlimit="10" stroke-width=".5" d="M154.66016 362.79688l5.30859-4.60547m-5.3086 4.60546l-2.28906-.8789m3.0625.20703l-1.14453-.4375m14.1289 1.53516l4.42579-5.45704m-4.42578 5.45704l-2.41016-.46875m18.85156 1.1328l-1.82812-6.78515m1.5625 5.79688l-.89453.83984m14.32422.1836l-1.52735-6.85938m1.52735 6.85938l-1.86328 1.59765m17.25-7.10156l-5.66797 4.15234m4.84375-3.55078l1.10547.53516m12.9453 3.13281l-5.49218-4.38672m5.49219 4.38672l-.45313 2.41016m-.34765-3.05079l-.22656 1.20704m14.45312-.71485l-5.71484-4.08984m5.71484 4.08984l-.32422 2.42969m14.29688-4.5l-7.02735.04688m7.02735-.04688l1.16406 2.16016m12.0586-2.9297l-6.84376 1.58985m6.84375-1.58984l1.61328 1.84765m-2.60937-1.61718l.80469.92578m12.5625-2.85156l-4.95704 4.97656m4.95704-4.97656l2.34765.71484m-3.0664.01172l1.17187.35547m10.27735-2.10547l.21093 7.02344m-.21094-7.02344l2.13282-1.21485m-2.10156 2.23829l1.0664-.60938m11.21094-.23437l2.22266 6.66796m-2.22266-6.66796l1.6914-1.77735m-1.36718 2.7461l.84765-.88672m11.85157.03125l2.8125 6.4414m-2.8125-6.4414l1.52343-1.92188m11.86329 1.89063l2.66406 6.5039m-2.66406-6.5039l1.5664-1.88672m10.92969 2.35937l4.30469 5.5547m-3.6797-4.7461l.50392-1.11719m13.89062-.39844l.89453 6.96875m-.76172-5.95312l1-.71094m14.8164 5.92969l-4.37108-5.5m15.5 6.26562v-7.02734m10.54296 1.35156l5.54297 4.32422m-5.54297-4.32422l.42579-2.41797m13.87109 1.55469l3.57812 6.04688m-3.05468-5.16797l.63672-1.04688m14.97265-.16797l-2.0586 6.71875m1.76173-5.74219l1.20312-.23046m11.8086-.8711l-.85938 6.97266m.73438-5.96094l1.14843-.4375m10.21485-.1914l3.30078 6.20312m-3.30078-6.20313l1.37109-2.03515m13.05469 1.66406l1.07812 6.94531m-1.07812-6.9453l1.96094-1.46876"/><g clip-path="url(#P)"><path fill="none" stroke="#000" stroke-linecap="round" stroke-linejoin="round" stroke-miterlimit="10" stroke-width=".5" d="M141.10547 345.1875l5.78906 3.98047"/></g><path fill="none" stroke="#000" stroke-linecap="round" stroke-linejoin="round" stroke-miterlimit="10" stroke-width=".5" d="M154.01172 348.3711l6.60937-2.38673m-6.60937 2.38672l-1.82031-1.64843m16.43359 3.33984l4.01172-5.76953m-4.01172 5.76953l-2.4375-.28906m3.01953-.55078l-1.21484-.14454m15.99219 1.61329l-.07813-7.02735m.07813 7.02735l-2.15235 1.17578m15.11719-1.1875l.6211-7m-.6211 7l-2.25781.95312m18.85937-6.32031l-5.95312 3.73047m5.95312-3.73047l2.1289 1.22266m10.34766 3.42968l-4.27734-5.57421m4.27734 5.57421l-1.01562 2.23438m.39453-3.04297l-1.01563 2.23047m15.72266-2.23828l-5.8164-3.9414m5.8164 3.9414l-.26172 2.4414m-.58594-3.01171l-.1289 1.21875m14.67969-1.40235l-6.59375-2.4336m6.59375 2.4336l.33203 2.42969m11.98828-6.30078l-4.60156 5.3086m4.60156-5.3086l2.39062.55078m8.4336-1.40625l.3789 7.01953m-.3789-7.01953l2.10156-1.26563m-2.04688 2.28907l1.05079-.63282m13.10937-.3203l-1.42187 6.8789m1.42187-6.8789l2.35547-.69142m11.48828.84375l-2.48047 6.57422m2.48047-6.57421l2.4336-.3125m11.03515.375l-2.78516 6.44921m2.78516-6.44921l2.44531-.19922m10.15235-.02344l-1.35157 6.89453m1.35157-6.89453l2.34765-.71485m11.38672.82422l-2.1914 6.67579m1.875-5.70313l1.20703-.21094m13.23437-.375l-3.8086 5.90625m3.25391-5.04687l1.22266.10156m14.1875 2.6836l-6.89062-1.38673m6.89062 1.38672l.70313 2.35157m12.67968-3.14454l-7.02343.19922m7.02343-.19921l1.21094 2.1328m9.44922-5.4414l-1.71484 6.8164m1.46484-5.82421l1.1914-.29297m8.37891 1.1289l6.27735 3.16016m-6.27735-3.16015l-.0586-2.45313m14.39845 1.22656l4.22656 5.61329m-4.22656-5.61329l1.03906-2.22265m12.50781 2.0625l3.76172 5.9336m-3.76172-5.9336l1.21484-2.13281m12.1172 2.12109l3.73046 5.95703m-3.73047-5.95703l1.22266-2.125M460.625 345.25l5.875 3.85547m-5.875-3.85547l.22266-2.4414"/><g clip-path="url(#Q)"><path fill="none" stroke="#000" stroke-linecap="round" stroke-linejoin="round" stroke-miterlimit="10" stroke-width=".5" d="M142.0625 330.92969l3.875 5.86328"/></g><path fill="none" stroke="#000" stroke-linecap="round" stroke-linejoin="round" stroke-miterlimit="10" stroke-width=".5" d="M154.24219 332.16016l6.14453 3.40625m-5.25-2.91016l.01953-1.22656m14.38672 5.77344l2.17578-6.6797m-2.17578 6.6797l-2.41797.42578m17.0586-.26172l-.47657-7.00781m.47656 7.0078l-2.08203 1.29688m2.01172-2.3164l-1.03906.64843m15.34766.1836l-2.32032-6.63281m2.32031 6.6328l-1.66796 1.80079m17.33203-5.01172l-7.02344-.21094m7.02344.21094l1.08594 2.19922m-2.10547-2.23047l1.08593 2.19922m12.53125-.14453l-5.58984-4.25781m5.58984 4.2578l-.39453 2.42188m-.41797-3.04297l-.39453 2.42188m15.02735-2.72266l-6.59766-2.41406m6.59766 2.41406l.33984 2.42969m-1.29688-2.78125l.33594 2.42969m14.13281-3.64453l-6.98828.71875m6.98828-.71875l1.3672 2.03515m10.10937-4.77344l-3.3125 6.19532m3.3125-6.19531l2.45312.0039m10.76563-.05469l-3.1211 6.29688m3.1211-6.29688l2.45312-.0664m11.0039.14062l-3.40624 6.14844m3.40625-6.14844l2.45312.04297m11.29688.24219l-4.27344 5.57812m4.27344-5.57812l2.42187.40234m10.9961-.32031l-4.48047 5.41406m4.48047-5.41406l2.40234.49219m10.71484-.64453l-4.08593 5.71875m4.08593-5.71875l2.4336.3203m11.03125-.20702l-4.38281 5.49219m4.3828-5.4922l2.41016.45313m11.89844.8086l-6.3711 2.96484m6.3711-2.96484l1.95703 1.48046m11.55078.97266l-6.7539-1.9375m6.7539 1.9375l.50782 2.40235m-1.49219-2.6836l.2539 1.19922m13.78126-3.51172l-6.22657 3.25m6.22657-3.25l2.02343 1.38672m-2.92968-.91406l1.01171.6914m12.3125-2.26562l-4.43359 5.45312m4.4336-5.45312l2.40624.47265m9.95704-1.02343l-2.52735 6.55469m2.52735-6.5547L414 330.28907m8.47266.25l2.28906 6.64453m-2.28906-6.64453l1.67578-1.79297m10.27734 2.65625l5.01172 4.92188m-5.01172-4.92188l.69531-2.35546m.03516 3.0703l.34766-1.17577m11.78515 1.02734l5.91797 3.78906m-5.91797-3.78906l.19531-2.44531m.66407 2.9961l.09765-1.22267m11.95313 1.55079l6.72656 2.03125m-6.72656-2.03125l-.48047-2.40625m1.45703 2.70312l-.23828-1.20312"/><g clip-path="url(#R)"><path fill="none" stroke="#000" stroke-linecap="round" stroke-linejoin="round" stroke-miterlimit="10" stroke-width=".5" d="M144.8086 317.1289l-1.6172 6.83985"/></g><path fill="none" stroke="#000" stroke-linecap="round" stroke-linejoin="round" stroke-miterlimit="10" stroke-width=".5" d="M144.57031 318.125l1.1875-.3125m15.0625 2.95703l-7.01172-.44531m5.9922.38281l.5078 1.11719m11.73438 1.9414l-2.82422-6.43359m2.82422 6.4336l-1.52344 1.92578m1.10938-2.86329l-.75782.96485m14.26953.0586l-2.39062-6.60548m2.39063 6.60547l-1.64454 1.82031m1.29688-2.78125l-.82031.91016m15.79297-.78906l-5.01172-4.92578m5.01172 4.92578l-.69922 2.35156m-.03125-3.07031l-.69532 2.35547m15.71485-3.625l-6.96094-.95313m6.96094.95313l.84765 2.30469m-1.85937-2.44141l.84766 2.30078m13.45703-2.01563l-6.91407-1.25m6.91407 1.25l.74609 2.33985m-1.7539-2.51953l.75 2.33594m13.58593-3.32422l-6.9414 1.08593m6.9414-1.08593l1.47266 1.96484m-2.48047-1.80469l1.47266 1.96094m12.49218-3.21094l-6.22265 3.26563m6.22265-3.26563l2.02735 1.38281m-2.9336-.90625l1.01172.69141m12.75-1.83984l-5.30469 4.60937m5.3047-4.60937l2.28905.88281m-3.0625-.21094l1.14844.4414m12.90625-1.15233l-5.23437 4.6875m5.23437-4.6875l2.30078.84375m-3.0625-.16016l1.14844.42187M292.88672 318l-4.83984 5.09766M292.88672 318l2.36328.65625m-3.07031.08594l1.1836.32812m12.57812-1.29297l-4.32032 5.54297m4.32032-5.54297l2.41406.42188m11.32812-.02735l-5.17578 4.75391m5.17578-4.7539l2.3125.8164m11.72266.375l-6.61719 2.36719m6.61719-2.36719l1.8164 1.65235M346.87892 319l-6.3086 3.09766M346.87891 319l1.98828 1.4375m11.3789-1.32813l-6.41015 2.87891m6.41015-2.8789l1.9375 1.5m11.67188-.36329l-7 .60157m7-.60157l1.33594 2.0625m11.65234-3.26953L380.5 322.0586m6.34375-3.01953l1.97266 1.46094m-2.89453-1.02344l.98437.73047m13.08594-1.47656l-6.01172 3.63672m6.01172-3.63672l2.10547 1.2539m-2.98047-.72656l1.05469.6289m12.33984-2.0703l-4.42188 5.46484m4.42188-5.46484l2.41016.46875m-3.0547.32421l1.20704.23438m10.78125-1.80078l-.47656 7.01172m.47656-7.01172l2.23828-1.0039m-2.3086 2.02343l2.23829-1.0039m9.28125.375l3.2539 6.23046m-3.2539-6.23047l1.38672-2.02343m-.91407 2.92968l.69532-1.01171m17.26562 2.82421l-6.98437.79297m6.98437-.79297l1.39063 2.01954m-2.40625-1.90625l.6953 1.01171m12.92188-2.8789l-5.55859 4.30078"/><g clip-path="url(#S)"><path fill="none" stroke="#000" stroke-linecap="round" stroke-linejoin="round" stroke-miterlimit="10" stroke-width=".5" d="M466.33984 318.39844l2.23829 1.00781"/></g><g clip-path="url(#T)"><path fill="none" stroke="#000" stroke-linecap="round" stroke-linejoin="round" stroke-miterlimit="10" stroke-width=".5" d="M465.53125 319.02344l2.23828 1.00781"/></g><path fill="none" stroke="#000" stroke-linecap="round" stroke-linejoin="round" stroke-miterlimit="10" stroke-width=".5" d="M464.72266 319.64844l1.11718.5039"/><path fill="#00f" fill-rule="evenodd" d="M397.11719 463.21094h8.61719V453.0625h-8.6172v10.14844"/><path fill="azure" fill-rule="evenodd" d="M398.94922 454.89844h.83203v2.82031h3.28516v-2.82031h.83593v6.48047h-.83593v-2.91797h-3.28516v2.91797h-.83203v-6.48047"/><path fill="#ff3030" fill-rule="evenodd" d="M206.96094 441.01953h7.6914V430.8711h-7.6914v10.14844"/><path fill="azure" fill-rule="evenodd" d="M208.79297 432.70703h.83203v5.73828h3.19531v.73828h-4.02734v-6.47656"/><path fill="#00f" fill-rule="evenodd" d="M388.23828 436.57813h8.61719v-10.14454h-8.61719v10.14454"/><path fill="azure" fill-rule="evenodd" d="M390.07031 428.26563h.83594v2.82421h3.28516v-2.82421h.83203v6.48046h-.83203v-2.91406h-3.28516v2.91406h-.83594v-6.48046"/><path fill="#00f" fill-rule="evenodd" d="M224.01953 414.38672h8.61719v-10.14453h-8.61719v10.14453"/><path fill="azure" fill-rule="evenodd" d="M225.85156 406.07422h.83594v2.82422h3.28516v-2.82422h.83203v6.48047h-.83203v-2.91406h-3.28516v2.91406h-.83594v-6.48047"/><path fill="#ff3030" fill-rule="evenodd" d="M291.28906 405.51172h7.6914v-10.14453h-7.6914v10.14453"/><path fill="azure" fill-rule="evenodd" d="M293.1211 397.19922h.83593v5.73828h3.1914v.74219h-4.02734v-6.48047"/><path fill="#ff3030" fill-rule="evenodd" d="M331.23438 378.88281h7.6914v-10.14844h-7.6914v10.14844"/><path fill="azure" fill-rule="evenodd" d="M333.0664 370.5664h.83594v5.7422h3.19141v.73827h-4.02734v-6.48046"/><path fill="#ff3030" fill-rule="evenodd" d="M206.96094 361.1289h7.6914v-10.14843h-7.6914v10.14844"/><path fill="azure" fill-rule="evenodd" d="M208.79297 352.8164h.83203v5.73829h3.19531v.73828h-4.02734v-6.47656"/><path fill="#ffffe0" fill-rule="evenodd" d="M412.75781 424.66406h22.17969v-10.1914h-22.17969v10.1914"/><path fill-rule="evenodd" d="M416.25781 416.30469h.50781v6.29687h-.78515v-4.48828h-1.39063v-.5586l.5625-.0625.25-.05468.23047-.08984.20313-.14063.17187-.21094.14453-.29296.10547-.39844m4.8125 0l.23047.01953.21875.0586.20703.08593.19531.1211.1875.15234.16797.17578.3047.41797.24218.49219.17969.54687.11328.58203.03515.58985-.03515.59375-.11328.58203-.1797.55468-.24218.50391-.30469.42578-.16796.17969-.1875.15234-.19532.125-.20703.09375-.21875.05469-.23047.01953-.23047-.01953-.21875-.05469-.20703-.09375-.19531-.125-.1836-.15234-.17187-.17969-.30078-.42578-.2461-.5039-.17968-.5547-.10938-.58202-.03906-.59375h.83203l.03125.5625.08203.5078.125.44141.16016.375.1914.30079.21094.21875.22266.13671.22656.04688.22656-.04688.22266-.13671.21094-.21875.1914-.30079.16016-.375.1289-.4414.08204-.50781.02734-.5625-.02734-.5625-.08203-.5-.1289-.4336-.16017-.36719-.1914-.29296-.21094-.21485-.22265-.1289L421.0703 417l-.22656.04688-.22266.1289-.21093.21485-.19141.29296-.16016.3672-.125.43358-.08203.5-.03125.5625h-.83203l.03906-.58984.10938-.58203.17969-.54688.24609-.49218.30078-.41797.17188-.17578.18359-.15235.19531-.12109.20703-.08594.21875-.0586.23047-.01952m5.09375 0h.50781v6.29687h-.78906v-4.48828h-1.38672v-.5586l.5586-.0625.2539-.05468.23047-.08984.20313-.14063.17187-.21094.14063-.29296.10937-.39844m2.82031 2.17578h.78907l.01953-.3164.0586-.28516.09765-.25391.14062-.21484.1836-.17188.22265-.1289.26563-.08204.3086-.02734.23437.02344.22656.0625.20313.10156.17968.13672.14844.17187.11328.20704.07031.23828.02735.26171-.02344.26954-.0664.22656-.10938.1914-.15625.16797-.19922.16407-.2461.16796-.63671.38672-.53516.3125-.4375.31641-.34765.32422-.26563.33594-.1875.35156-.125.3711-.07031.39452-.01953.41797h4.21093v-.74219h-3.33203l.08203-.28125.11329-.23828.14843-.20312.1875-.17969.23047-.17187.28125-.17579.71485-.41406.41406-.20703.34765-.23047.28125-.25.21875-.26953.16407-.27734.10937-.28125.0664-.28516.01954-.28125-.04297-.38672-.1211-.34765-.1875-.3047-.25-.26562-.30468-.21093-.34375-.16016-.3789-.09766-.40626-.03515-.4375.03515-.39844.09766-.35546.16797-.3047.23437-.24608.30079-.1875.375-.11329.44921-.04296.51563"/><path fill="#ffffe0" fill-rule="evenodd" d="M173.08594 338.13672h22.17969V327.9414h-22.1797v10.1953"/><path fill-rule="evenodd" d="M176.58594 329.77734h.50781v6.29297h-.78516v-4.48828h-1.39062v-.55469l.5625-.0664.25-.05469.23047-.08984.20312-.14063.17578-.21094.14063-.29296.10547-.39454m4.8125 0l.23047.01954.21875.05468.20703.08985.19922.12109.18359.14844.17188.17578.30078.41797.24218.4961.1797.54687.11327.57812.03516.58985-.03516.59375-.11328.58203-.17969.55468-.24218.50391-.30078.42578-.17188.17969-.1836.15625-.19921.1211-.20703.09374-.21875.05469-.23047.01953-.22656-.01953-.21875-.05469-.21094-.09375-.19531-.1211-.1836-.15624-.17187-.17969-.30078-.42578-.2461-.5039-.17969-.5547-.10937-.58202-.03906-.59375h.83203l.03125.5625.08203.5078.125.44141.16406.375.1875.30079.21094.22265.22266.13672.22656.04688.22656-.04688.22266-.13672.21093-.22265.19141-.30079.16406-.375.125-.4414.08203-.50781.02735-.5625-.02735-.5625-.08203-.5-.125-.4336-.16406-.36719-.1914-.29296-.21094-.21094-.22266-.13281-.22656-.04688-.22656.04688-.22266.1328-.21094.21094-.1875.29297-.16406.3672-.125.43358-.08203.5-.03125.5625h-.83203l.03906-.58984.10937-.57812.1797-.54688.24608-.4961.30079-.41796.17187-.17578.1836-.14844.1953-.1211.21095-.08984.21875-.05469.22656-.01953m5.09375 0H187v6.29297h-.78516v-4.48828h-1.39062v-.55469l.5586-.0664.2539-.05469.23047-.08984.20312-.14063.17188-.21094.14453-.29296.10547-.39454m2.82031 2.17579h.78906l.01953-.31641.0586-.28906.10156-.25.13672-.21485.1836-.17578.22265-.1289.26562-.08204.3086-.02734.23828.02344.22266.0625.20312.10156.17969.13672.14844.17578.11328.20313.0703.23828.02735.26171-.02344.26954-.0664.22656-.10938.1914-.15625.17188-.19922.16016-.24609.16796-.63672.38672-.53515.3125-.4375.32032-.34766.32421-.26172.33594-.1914.34766-.125.3711-.07032.39452-.01953.41797h4.21094v-.73828h-3.33203l.08203-.28515.11328-.23829.14844-.19921.1875-.1836.23047-.16797.28125-.17578.71484-.41797.41797-.20703.34375-.23047.28125-.25.21875-.26562.16406-.28125.11328-.28125.0625-.28516.01953-.28125-.04297-.38281-.11718-.34766-.1914-.3086-.25-.26562-.30079-.21093-.34766-.15625-.3789-.10157-.40625-.03125-.4375.03125-.39844.09766-.35156.16797-.30469.23437-.25.3047-.1875.375-.11328.4453-.04297.51954"/></g></defs><use xlink:href="#U"/></svg>