<svg xmlns="http://www.w3.org/2000/svg" role="img" xmlns:xlink="http://www.w3.org/1999/xlink" viewBox="142.45 309.95 326.84 171.84"><defs><clipPath id="a"><path d="M144 443h1v37.32813h-1zm0 0"/></clipPath><clipPath id="b"><path d="M144 311.67188h1V427h-1zm0 0"/></clipPath><clipPath id="c"><path d="M144 311.67188h324v168.65625H144zm0 0"/></clipPath><clipPath id="d"><path d="M326 407h122v73.32813H326zm0 0"/></clipPath><clipPath id="e"><path d="M467 311.67188h1v168.65625h-1zm0 0"/></clipPath><clipPath id="f"><path d="M144 476h2v4.32813h-2zm0 0"/></clipPath><clipPath id="g"><path d="M156 476h2v4.32813h-2zm0 0"/></clipPath><clipPath id="h"><path d="M169 476h3v4.32813h-3zm0 0"/></clipPath><clipPath id="i"><path d="M180 479h8v1.32813h-8zm0 0"/></clipPath><clipPath id="j"><path d="M193 479h9v1.32813h-9zm0 0"/></clipPath><clipPath id="k"><path d="M193 478h3v2.32813h-3zm0 0"/></clipPath><clipPath id="l"><path d="M207 478h7v2.32813h-7zm0 0"/></clipPath><clipPath id="m"><path d="M220 477h7v3.32813h-7zm0 0"/></clipPath><clipPath id="n"><path d="M234 477h6v3.32813h-6zm0 0"/></clipPath><clipPath id="o"><path d="M247 477h7v3.32813h-7zm0 0"/></clipPath><clipPath id="p"><path d="M261 477h6v3.32813h-6zm0 0"/></clipPath><clipPath id="q"><path d="M274 477h7v3.32813h-7zm0 0"/></clipPath><clipPath id="r"><path d="M287 478h7v2.32813h-7zm0 0"/></clipPath><clipPath id="s"><path d="M300 478h8v2.32813h-8zm0 0"/></clipPath><clipPath id="t"><path d="M313 479h8v1.32813h-8zm0 0"/></clipPath><clipPath id="u"><path d="M326 479h9v1.32813h-9zm0 0"/></clipPath><clipPath id="v"><path d="M327 479h2v1.32813h-2zm0 0"/></clipPath><clipPath id="w"><path d="M340 478h8v2.32813h-8zm0 0"/></clipPath><clipPath id="x"><path d="M354 477h6v3.32813h-6zm0 0"/></clipPath><clipPath id="y"><path d="M368 477h5v3.32813h-5zm0 0"/></clipPath><clipPath id="z"><path d="M379 479h9v1.32813h-9zm0 0"/></clipPath><clipPath id="A"><path d="M380 479h2v1.32813h-2zm0 0"/></clipPath><clipPath id="B"><path d="M395 476h4v4.32813h-4zm0 0"/></clipPath><clipPath id="C"><path d="M409 476h3v4.32813h-3zm0 0"/></clipPath><clipPath id="D"><path d="M421 477h6v3.32813h-6zm0 0"/></clipPath><clipPath id="E"><path d="M435 476h4v4.32813h-4zm0 0"/></clipPath><clipPath id="F"><path d="M448 477h5v3.32813h-5zm0 0"/></clipPath><clipPath id="G"><path d="M462 476h3v4.32813h-3zm0 0"/></clipPath><clipPath id="H"><path d="M144 464h3v6h-3zm0 0"/></clipPath><clipPath id="I"><path d="M144 451h4v5h-4zm0 0"/></clipPath><clipPath id="J"><path d="M144 438h4v5h-4zm0 0"/></clipPath><clipPath id="K"><path d="M144 425h4v4h-4zm0 0"/></clipPath><clipPath id="L"><path d="M144 412h4v4h-4zm0 0"/></clipPath><clipPath id="M"><path d="M144 397h3v7h-3zm0 0"/></clipPath><clipPath id="N"><path d="M144 383h2v8h-2zm0 0"/></clipPath><clipPath id="O"><path d="M144 372h4v4h-4zm0 0"/></clipPath><clipPath id="P"><path d="M144 359h4v3h-4zm0 0"/></clipPath><clipPath id="Q"><path d="M144 345h4v5h-4zm0 0"/></clipPath><clipPath id="R"><path d="M144 330h3v8h-3zm0 0"/></clipPath><clipPath id="S"><path d="M144 317h3v7h-3zm0 0"/></clipPath><clipPath id="T"><path d="M466 318h2v2h-2zm0 0"/></clipPath><clipPath id="U"><path d="M465 318h3v3h-3zm0 0"/></clipPath><g id="V" clip-path="url(#clip1)"><path fill="#fff" fill-opacity="0" fill-rule="evenodd" d="M0 0h1000v1000H0zm0 0"/><path fill="#d3d3d3" fill-opacity="0" fill-rule="evenodd" d="M162.15234 355.86719l-.23437.29297.0586.23437.11718.17188.17578.23437.29297.34766.11328.0586.11719-.17188.0586-.23438.17577-.17578.46485-.17578h.69922l.23437.29297.28906.8164.0586.17579.17578.23046.35156.23438.69922.69922.17188.17578.23437.34765.23438.41016.28906.58203.41015.46485.23047.23437.23438.17578.11719.23047.17578.29297.17187 1.16406v.23438l.0586.28906.05859.11719.11719.11719.34765.41015.11719.17188.17578.17578.17578.23437.11719.17188.17188.35156.05859.23438.23437.40625.23438-.0586-.17578.17578-.0586.92969h-.58203l-.23437-.11328-.34766.11328-.11719.11719-.05859.29297-.0586.17578-.11718.17187-.46484.29297-.0586.23438-.0586.11328v.64453l.0586.17187v.41016l.0586.0586v.40624l.05859.40625.11719.17579.05859.05859.23047.64062-.0586.29297v.69922l-.05859.58203v.23438l-.0586.23047-.05468.35156v1.92187l.05469.1172h.42578l-.36719.11718-.02344.35156.89063 1.16797 1.74219.53906 1.33984.35938v.53906l.08984.8086.53516.71484 1.51953.26953.89063-.08594.08984 1.16406.53516.1797 1.16015-.1797 2.05469-.98437 1.16016-.36328 1.8789-.17578 1.69531-.1797-.17968.71876-1.51563.08594-1.25.08984-.80469.26953-1.07421.8086.26953.71875.53515.89843-.17968.625-.26563.8086.26563 1.07812.625.89844.80468.17969 1.25-.1797-.26562.72267.09766.5039.05468.29297v.17188l.0586.29296v.40625l.17578.1172.35156.11718h.40625l.29297-.17578.11328-.11719.0586-.11719.11718-.23047.0586-.17578.35156-.46484.23047-.17578.17578-.0586.17578.0586.0586.17578.11718.98828.05469.46875.0586.17188.11718.23437.17578.0586.8164.05859h.28907l.11719.23437.05859.40625.0586.35156v1.10547l.11718.29297.11719.34766.28906.69922.17578.35156.58203.7539.35157.17579.17187.0586.46875.23437.64063.46484.34765.23438.29297.17578.29297.05468.23047.0625.8164.34766.29297.17578.11328.17188.35157.35156.11719.17578.52343.64063v.28906l.0586.35156v.34766l.05859.35156.0586.28906.11718.0586.17188.05859h.17578l.58203.23437.17578.1172.17578.28905.17578.23438.11328.23437.29297.23047.11719.11719v.41016l.0586.05468.28906.23438.23437.11719.0586.11718.11718.17188.0586.11719.23047.23437.05859.17578.23437.0586.1172.05859-.1172.11328-.05859.11719v.11719l-.11719.29296-.11719.28907v.58203l.17579.11719.11718.05859.0586.11719.11719.11719.11328.05859.17578.34765.0586.35157.05858.40625v.17578l-.05859.17578-.11719.69922v.17187l.1172.17579.29296.29296h.40625l.17578.1172.11719.17187.11719.29296v.23438h-.52735l-.23047-.23438h-.23437l-.17578.0586-.0586.69922.0586.34765.11719.17579.17578.41015.11718.23047.28907.46875.17578.05469h.52344l.23437.0586.75781.64062.0586.29296v.23438l.05859.0586.23047.34765v.35156l-.11719.17188v.29297l.29297.28906.29297.17578.17187.0586.29297.17577.29297.1172.58203.40624.28906.23438.29297.17578.21875.16015.01563.01172.23047.17579.64062.52343.17578.23438.1172.17578.17577.17578.11328.17188v.64062l.1172.17578.46874.11719.58203.11719.23438.05859.23047.11328.29297.11719.11328.0586.58593.35156.28907.17187.17578.0625.17578.05469.17578.0586.69922.35155.28906.17579.23438.05468.28906.17578.23437.1172.64063.40624.29297.11719.17187.0586.23438.05859.41015.05859.23047.0586.23438.11718.0586.17188-.41017.17578.46875.0586.0586.29296.11328.23438.17578.05468.23438.0586.17578.05859.40625.11719.64062.23437.11719.17188.0586.23437v.17578l-.0586.1172-.0586.40624.23438.23438.11719.05859.34766.11719.64062.23047.17578.11718.28906.1172.17578.17577.23438.46485.58203 1.10546.17578.17579.34766.17578.17578.11719.35156.11718 1.04688.52344.23437.0586.46485.11327.29297.0586.46484.17578.75781.58203.23438.23438.34765.46484.17578.17578.28907.23438.8164.69921.29297.17579.28906.28906.29297.17578.29297.28906.69531.64063.17578.17578.29297.23437.28907.23438.46875.28906.64062.58203.34766.23438.23437.29297.34766.34765.35156.46485.9336.99218.34765.40625.11719.17579.23437.05859.11328.11719.64454.17578.23047.11328.23437.0586.29297.17577.23047.1172.9336.69921.40624.40625.23438.17578.40625.17578.23437.11719.8164.34766.34766.23437.23438.11719.29297.28906.23047.11719.7578.35156.35157.17188.23047.05859.29297.11719.23437.0586.8711.17577h.8164l.46875.23047.17188.0586.875.69921.46484.1172.29297.05858.17578.0586.23047.0586.46875.05859.34766.05859.35156.0586.40625.05859h.29297l.17187.0586v.23046l.17578.17578h.29297l.34766.0586.35156.05859.69922.11719h.64063l.46484-.23438.29297-.17578.17187-.11719.41016-.17187.28906-.17578.9336-.46485.46875-.29297.52343-.29296.46485-.17188.46484-.17578 1.05078-.46485.28906-.11718.41016-.11719.28906-.11719.52735-.17578 1.51562-.69922.58203-.34765.28907-.0586.29297-.0586.34765-.11718.875-.23047.35156-.11719h.11329l.23437-.05859.875-.23437.23438-.0586h.8125l.35156-.0586.8164-.11718.17188-.0586.35156-.05468.29297-.0586.23047-.05859.8164-.17578.17579-.0586h.34765l.23438-.05859.46484-.11718.75781-.17188.23438-.0586h.34765l.41016-.11718.28906-.0586 1.28516-.05859h.28906l.41016-.0586.23047-.05858h.17578l.875-.1172h.40625l.41015-.11718h.34766l.35156-.11328.8711-.0586h1.75l1.04687.28907.41016.11719.28906.11718.35156.11719.28907.11719 1.05078.17187.28906.0586h.29297l.29297.05859.17187.0586.41016.05859.17187.0586.1172.05858h.11718l.11719.0586.35156.0586h.11328l.41016.0664 1.92187.39453 1.92578.39453 1.51953.44922 1.69532.71875 2.14453.80469 1.60547-.71875 1.42968-.80469 1.16016-1.07813 1.25-.44921 3.03516-.71875 1.875-.35938 2.14453-1.34765 2.23437-1.25391 2.5-1.25781 1.69531-.44922 1.78516-.17969 1.16016-.26953.625.53906 1.33984-.26953.71485-.98828.98437-1.34375.44531-.17969.80469-.35937 1.875-.53907 1.78516-.44921 1.25-.26954 1.16015-.08984 1.69922-.08984 1.96094-.26954 1.25-.08984h.53906l.625-.08984h.89063l2.14453-.17969 2.41015-.17969 2.58985-.08984 1.69531.17969 1.60938.08984 1.42968.35938 1.16016.71875 1.875.98828 1.16015 1.52734.26563.71484.6289.08985.35548.89844.53515.53906.53516 1.52734 1.07422.35938h.53515l-.80469.53515.08985 1.70703.71484 2.69532.89063.80468.89453.98829.71484 1.2578 1.78516.53907 1.51953-.17969.35547 1.34375 1.60937-.80469.98047-.53906.26953.26953.31641-.21484.21875-.14453.80078.44922.44922-.35938h.35547l.53515-.26953.53907-.71875.53515-.26953.625-.98828 1.16016.44922.83984.3711 1.39454.61718 1.6953-.17969h1.60548l1.78515.08985.17969-1.70704.53516-1.34375.80468.26954.4922.84765.40233.40625-.08984.53906v.35938l.71485.44922.71093-.26953h1.42969l.35938.98828.4453 1.25781.71485 1.34375 1.25.6289 1.69531.62891.71485-.17969.17969-.53906.98046-.08984.44922.35937.08594 1.25782-.26563.6289-.53515.17969v.53906l.71484.98438.26563.53906.98437.98828.80078 1.07813-.26562.35937-.08985.89844-.625 2.33203-.35546 2.0664-.08985 1.79298-.17969.71875-.08984.53906v1.4375l-.98047 1.88281-.35937 1.70703-.53516.89844-.80469 1.16797-.26562.53906 2.05469 1.2539.08593.35938-.35546.53906-.08985-.17968v.80859l.08985 1.4375-.44532.71484-1.07422.09375-.26562.71485.53515.89844.8047.71875 1.16015.80859 1.33984.26953.44531.35938-.35546.44921-1.78907-.08984-1.25-.44922-.71484-.71875-.625-.08984-.17578 3.58984-.1875 1.3086h89.35937V311.70313h-55.26953v49.08203l.76172.125 3.28906.54296 2.02344 2.83594v2.7539l2.35156.33204 2.34766.33203h4.05078l-1.3789 4.16016-2.02344.70703-2.02344.70312-.54297.34375-2.59375 1.6172-.1875.11718-2.02344-2.07813-.73046-2.74218-2.67188-2.07813-1.375-3.5-.0664-.08203-1.95704-2.67188 2.75-1.41796v-49.08204H294.42187v91.41407l.1172.03125.1328.01172.07422.07421.10547.04688.08985.0586.08593.05859.08985.0586.29687.29687.0586.08984.03125.11719.02734.11719.01563.13671-.03125.1172-.0586.08983-.0586.08594-.04296.10547-.04688.10156-.02734.1211v.14453l.17578.26953.14844.14844.07422.08594.07422.07421.04296.10547.0625.08985.0586.08593.04297.10547.0586.08985.04687.10156.04296.10547.0586.08594.11719.17968.07421.07422.0625.08594.0586.08984.04297.10547.0586.08985.05858.08593.0625.08985.0586.08984.04297.10156.11719.17969.07421.07422.0586.08594.07422.07421.08984.0586.10547.04687h.14844l.1328-.01562.13282.01562.10156-.04687.07422-.07422.04688-.10156-.01563-.13281v-.14844l-.04687-.10547-.02735-.11719-.04687-.10156-.02735-.1211-.04296-.10156-.0625-.08984-.04297-.10156-.04297-.10547-.03125-.11719-.01563-.13281-.01171-.13672.08593-.0586.0586-.08593.12109-.03125.04297.10547.01562.1328v.1172l.0586.10156.0586.08984.08983.0586.14844.14843.0586.08985.04296.10547-.01171.10156.08593.0586.10547.04687.08594.0586.08984.05858.07422.07422-.11719.02735-.10546.04687-.08594.0586-.07422.07421-.0586.08985-.0625.08594-.02734.12109-.04687.10156-.04297.10547-.03125.11719-.01172.13281-.01563.13281v.14844l.02735.11719.04687.10547.04297.10156.0586.08984.07421.07422.08985.0586.07422.07421.08984.0586.0586.08984.04296.10547.04688.10156.11719.03125.1328.01563h.14845l.11718-.03125.10547.04297.04297.10547.04688.10156.02734.1211L299.5 410l.02734.11719.03125.1211.02735.11718.10547.04297.10156.04687.13281-.01562.14844.14844.0625.08593.07422.07422.07031.07422.08984.0625.10547.04297.10156.04297.1172.03125.13671.01562.11719-.03125.07422-.07422.02734-.11718-.01172-.13282-.03125-.12109-.02734-.11719.04297-.10547h.11719l.08984.0625.11719.02735h.14843l.13282.01562h.14843l.13282.01563.1328-.01563h.14845l.1328-.01562.13282-.01172.13672.01172.11719-.02735.13281-.01562.1914-.0586-.05859.17579-.01562.1328-.02735.1211-.01562.13281-.0586.08594-.1328.01563-.10548.04687-.10546.04297-.1172.03125-.11718.02735-.26563.03125h-.14843l-.13281.01562-.07422.07422.05859.08594.14844.14843.11719.1797.07421.0703.08985.0625.08984.0586.08594.0586.08984.05858.10156.04297.10547.0625.10547.04297.08594.0586.10547.04687.10156.04297.17969.11719.0586.08984-.04298.10156-.04687.10547.01562.13281.22266.22266.0586.08985.04296.10156.03125.1211.04297.10155.01563.13282.03125.11718.01171.13672.03125.11719.14844.14844.10156.04297.10547.04296.1172.03125.1328.01563.13672.01563h.11719l.11719-.03125.08984-.0586.04297-.10547.04688-.10156.04296-.10547.03125-.11719.01172-.1328v-.14845l-.01172-.1328-.01562-.13282-.03125-.11719-.04297-.10547-.04688-.10547-.04296-.10156-.04297-.10547-.01563-.13281.01563-.13281.02734-.11719.03125-.11719.02735-.1211.04687-.10155.08984-.0586.08594-.0625.07422-.07422.08984-.05859.22266-.22266.0586-.08593.07421-.07422.11719-.17969.0586-.08594v-.14844l-.07423-.07421-.10156-.04688-.10547-.04297-.10156-.04297-.0586-.08984-.04687-.10547-.02734-.11719.08984-.05859.11719-.03125.10156-.04297.17969-.11719.14844-.14843.01172-.13282-.01172-.10546-.08985-.0586-.1328.01563h-.14845l-.1328.01562-.13282-.01562-.1211-.03125-.08593-.0586-.07422-.07422-.0586-.08984-.0625-.08594-.11718-.17969-.0586-.08593.03125-.1211.08594-.05859.1211-.03125.05859-.08594v-.1211l-.03125-.11718-.0586-.08984-.05859-.08594-.04687-.10547-.02735-.11719-.01562-.1328.0586-.08985.07421-.07422.08984-.0586.1172-.17968.07421-.07422.0586-.08594.14843-.14844.1211-.03125.1328-.01562.13282.01562.07422.07422.04297.10547.01562.13281-.03125.1172-.11719.03124-.1328.01172-.14844.14844-.04297.10547-.04688.10156-.02734.1211-.03125.11718v.14844l.03125.11719.04297.10546.05859.08985.07422.07031.07422.07422.11719.03125.12109.02734.11719-.02734.1328-.01563h.1172l.08984.0586.07422.07422.04687.10546.0586.08594.10156.04688.13281.01562.10547.04297.08594.0586-.01172.10546-.07422.07422-.17969.11719-.05859.08984-.08984.0586-.07032.07422-.07421.07421-.0625.08985-.02735.11719-.01562.1328.01562.13282-.01562.13281v.14844l.01562.13281.02735.1172.03125.12108.07421.07422.08985.0586.08594.0586.08984.05858.11719.03125v.08594l-.10157.04688-.08984.0586-.26563.03124-.11718.02735h-.14844l-.10547.04296-.10156.04688-.0586.08984-.0625.23438-.01171.13281-.03125.1211-.01563.1328v.29298l-.01172.1328.01172.13673.01563.1328.1328.01563.13282.01172.1211.03125.08593.0586.07422.07421.04688.10547.04296.10157.01563.1328v.44532l-.01563.13281v.44532l.03125.26562.02735.11719.01562.13281.03125.11719.08594.21094.03125.26562v.14844l-.03125.11719-.02734.11718-.03125.1211-.02735.11719-.03125.11718-.03125.1211-.01171.1328-.01563.13282.08984.0586.1172-.03125.10155.01562.04688.10547-.03125.26562v.44141l-.04297.10547-.04688.10547-.04296.10156-.04297.10547-.0586.08594-.03125.12109-.04296.11719-.03125.11719-.01563.1328.01563.13282.05859.08984.10547.04688.08594.0586.05859.08593-.01172.13672-.03125.11719-.04297.10156v.44531l-.01562.13281v.14844l-.03125.11719-.04297.10547-.02735.11719-.04687.10546-.04297.10157-.03125.12109-.02734.11719-.03125.13281-.03125.11719-.02735.11719-.04297.10546-.03125.1172-.03125.12108-.01171.13282-.01563.13281v.29688l.02734.11718v.14844l.04688.39844.02734.11719.0586.08984.12109.03125h.14844l.13281-.01563.0586.08985v.11719l-.0586.08984-.08984.0586-.10157.04296-.10546.04688-.08985.05859-.08594.0586-.13671.01562-.1172-.03125-.1328-.01563-.10157.04688-.0625.08594-.01172.13671-.01562.13282-.03125.11719-.02735.11718-.01562.13281-.03125.1211v.29687l.01563.13282.03125.11718v.14844l.01171.13281v.14844l-.02734.11719-.04688.10156-.02734.1211-.03125.11718-.0586.08985-.07421.07421-.10156.04297-.10547.04688-.11719.02734-.1211.03125-.10156-.04687.0586-.08594.10547-.04688.02734-.11718.03125-.11719.02734-.1211.03125-.11718v-.14844l.01563-.13281-.03125-.11719-.04297-.10547-.10547.01563-.07422.07422-.10156.04296-.08984.0625-.07422.07422-.04297.10157-.01563.1328-.03125.1172L304.25 426l-.03125.11719-.02734.11719-.03125.12109-.02735.11719-.03125.11718-.04297.10547-.08984.0586h-.08984l-.1172-.03125-.03124-.08594.01562-.13672-.03125-.11719v-.14844l-.01171-.1328v-.14844l-.0625-.23438-.02735-.1211-.04297-.10156-.04687-.10546-.0586-.08594-.05859-.08985-.04297-.10546-.0625-.08594-.14844-.14844-.0703-.07422-.10548-.04687-.10547-.04297-.10156-.04297-.29687-.29688-.08985-.07421-.08594-.0586-.10546-.04297-.08985-.0625-.08594-.0586-.10546-.04296-.08985-.0586-.08594-.0625-.07421-.0703-.10547-.04688-.08594-.0586-.10547-.04296-.08984-.0625-.10156-.04297-.10547-.04297-.08594-.0586-.10547-.04687-.10547-.04297-.10156-.04687-.08985-.0586-.10156-.04297-.10547-.04296-.08984-.0625-.11719-.02735-.13281-.01562-.13281.01562H299.75l-.13281.01563-.11719-.03125-.08984-.0586-.07422-.07422-.08985-.05859-.10156-.04688h-.14844l-.12109-.02734-.10156-.04297-.07422-.07422-.11719-.17968-.08984-.0586-.10156-.04297-.08985-.0625-.10547-.04296-.08984-.0586-.08594-.0586-.10547-.04687-.0586-.08594-.05858-.08984-.04297-.10547-.04688-.10156-.07422-.07422-.08594-.0586-.07421-.07421-.08985-.0586-.22265-.22265-.04297-.10547-.03125-.26563.10547-.04296h.14453l.10547.04296.07421.07422.08985.0586.08594.0586.10546.04687.08985.05859.14844.14844.0703.07422.14845.14843.0625.08594.07421.07422.08594.0586.07422.07421.08985.0625.08984.0586.08594.05859.26953.17578.10156.04688.10547.04296.10156.04297.04688-.07421.05859-.08594.07422-.07422.07031-.07422.10547.04297.07422.07422.0586.08984.04296.10156.04688.10547.04296.10547.1211.02735.11719-.02735.07421-.08984.04297-.10547.0586-.08985.07422-.07421.10546-.04297.1172-.02735.1328.01172.08985.0586.14844.14843.05859.08985.04297.10547.04687.10156.04297.10547.04297.10156.10547.04688.10547.04296.13281.01563.08594-.0586.0586-.08984.07421-.07422.10547-.04297.11719.02735.10547.04687.10156.04297.10547.04297.10156.04688.17969.11718v.11719l-.01563.13281.01563.13281.01562.13672.0586.08594.10156.04688.1211.02734.11718.03125h.14844l.11719-.03125.05859-.08984.17969-.1172.05859-.08983.07422-.07422.0586-.08594.11718-.17969.17969-.11719.11719.03125.08984.0586.04297.07422-.01563.1328v.1172l.08985.05859h.14843l.13282-.01563.1328-.01171.26563-.03125.10547-.04297.11719-.03125.1211-.02735.07421-.07421.07031-.07422.0625-.08985-.01562-.10547-.04688-.10156-.10156-.04297-.10547-.01562-.11718.02734-.26563.03125h-.14844l-.07421-.07422-.08985-.0586-.11719-.03124-.11718-.02735-.13282-.01562h-.14843l-.13282.01563h-.29687l-.10547-.04688-.14844-.14844-.04297-.10156-.05859-.08984.22266-.22266.08593-.0586.10547-.04296.11719-.03125.13281-.01563.13281.01563.13672.01562.10157.04297.1328-.01172.08985-.0625.10156-.04297.0625-.08984-.04687-.10156-.08984-.0586-.1172-.03125-.10155-.04296-.0586-.08985-.0625-.08984v-.11719l.01563-.13281.10547-.04688.07421-.07031v-.1211l-.08984-.05859-.03125-.11719.08985-.05859.07421-.07422.04297-.10547.0586-.08984.04687-.10156.01563-.13281v-.14844l-.04688-.10547-.04297-.10156-.08984-.0586-.13281-.01562-.10157-.04297-.13671-.01563-.1172-.03125h-.4453l-.13282-.01562-.13281-.01172-.13281-.01563-.11719-.03125h-.14844l-.13281-.01562-.13281-.01172-.26563-.03125-.1211-.04297-.08593-.0586-.07422-.07421v-.14844l.01172-.13281.10547-.04688.10156-.04296.13281-.01563h.15235l.13281-.01562h.29297l.1211.03125.10156.04296.08984.0586.23438.0625.12109-.04688.08984-.05859.10156-.04297.13282-.01562.10547.04296.10156.04688.13281.01172.1211-.02735h.14453l.12109-.03125.11719-.02734.10547-.04687.07421-.07422.08594-.0586.14844-.14843.0586-.08594.04687-.10547.02734-.11719.01563-.10547-.10156-.04296-.08985-.0586-.11719-.03125-.10546-.04297-.08985-.0625-.07422-.08594-.07422-.07421-.10156-.04297-.10547-.04688-.10156-.04297-.0586-.08984-.04687-.10156-.08594-.21094-.0625-.08594-.05859-.08984-.07422-.07422-.08594-.0586h-.26953l-.11719.03126-.08984.05859-.10156.04297-.13281.01562-.10547-.01562-.02735-.11719-.0625-.08984-.11718-.03125-.10157-.04297-.14843-.14844-.03125-.11719-.01563-.10546.07422-.07422.17969-.1172.11719-.02733.11718-.03125.13672.01562.10156.04297.10547.04297.10156.04687.10547.04297.1172.03125.1328.01563.1172.02734.1328.01563.10547-.01563.08985-.0586-.07422-.07421-.10547-.04297-.07422-.07422-.07422-.08984-.14844-.14844-.08593-.0586-.08985-.05859-.07422-.07422-.08984-.0586-.10156-.04687-.1211-.02734-.10156-.04688-.10547-.04296-.11719-.03125-.10156-.04297-.1211-.03125h-.14843l-.11719.03125-.10546.04297-.08594.0625-.17969.11718-.08594.0586-.08984.0586-.10547.04687-.08594.05859-.10547.04297-.10156.04297-.10547.04687-.07422.07422-.05859.08985-.0586.08593-.04687.10547-.0586.08594-.07421.07422-.13281-.01172-.1172-.03125h-.11718l-.07422.07422-.08984.0586-.07422.07421-.08984.0586-.08594.05859-.10547.04687-.10156.04297-.13672.01563-.10156-.04297-.14844-.14844-.10547-.04688h-.08594l-.10547.04688-.10156.04297-.1211.03125-.11718-.03125-.07422-.07422v-.11719l.03125-.1211.07422-.0703.0586-.08985.07421-.07422.11719-.03125.10547-.04296h.29297l.13281-.01563.13672-.01563.10156-.04296.08985-.0586.10156-.04687.08984-.0586.13281-.01171.08985.05859.13281.01172.08984-.0586.08594-.05859.10547-.04297.08984-.0586.08594-.0625.08985-.05859.14843-.14843.0586-.08594.05859-.08985.10547-.04296.13281-.01563.11719.02735.1211.03125.05859-.0586.05859-.08984.03125-.26563.02734-.11719.10547.01172.13281.01563.10157-.04297.08984-.0586.0586-.08984.07421-.07422.0586-.08984.04687-.10156.01172-.13281-.01172-.13282-.04687-.10547-.14844-.14843-.0586-.08985-.05859-.08594-.04297-.10546v-.44532l.01563-.1328v-.14845l.01172-.1328-.0586-.0586-.08984.0586-.10156-.04298-.17969-.11719-.08594-.05859-.0625-.08984-.0586-.08985-.07421-.07421-.08594-.0586-.1211.03125-.10155.01172-.10547.04688-.08594.05859-.10547.04297-.14844.14844-.08984.05859-.08594.0586-.08984.0625-.10547.04296-.13281.01563v-.1211l.10547-.04297.11718-.03125.07422-.0703.04297-.10548v-.14844l-.02734-.11718-.14844-.14844-.13281-.01563h-.14844l-.11719.03125-.10547.04297-.10156.04297-.08984.0625-.11719.02735-.07422-.07422.01172-.13281-.04297-.10157-.04297-.10547-.08984-.05859-.11719.02734-.1211.03125-.11718.03125-.10156.04297-.1211.03125-.10156.04297-.10547.04297-.08984.0586-.10156.01562v-.11719l.01562-.13281-.0586-.08985-.07421.04297-.14844.14844-.0586.08985-.07421.07421-.04688.10547-.04296.10156-.07422.07422-.0586.08985-.07422.07422-.05859.08593-.07422.07422-.08984.0625-.07422.07031-.07422.07422-.10156.01563-.13281.01562-.10547-.04296v-.1211l.14843-.14844.04297-.10156.0586-.08984.04687-.10156.04297-.10547.0586-.08985.03124-.11719.04297-.10156.03125-.1211.02735-.11718.04687-.10547.04297-.10156.04297-.10547.07422-.07031.08984-.0625.08985-.0586.10156-.04296h.29687l.26563-.03125.10547-.04297-.07422-.07422-.11719-.03125-.10547-.04297-.08984-.0586-.10156-.04687-.08985-.0586-.10156-.04296-.10547-.04297-.08984-.0625-.08594-.0586-.10547-.04296-.10156-.04297-.1211-.03125-.11718-.03125-.10157-.04297L297.5 410.25l-.10156-.04297-.08985-.0586-.04296-.10546-.01563-.13281.10156-.04297.13281-.01563.13672.01563.13282-.01563.10156-.04297.0586-.08984.01562-.10547-.08985-.0586-.07421-.07421-.10157-.04297-.08984-.0586-.14844-.14843-.04297-.10547-.01562-.13281v-.29297l-.0586-.08985-.08984-.05859-.07422-.07422-.04297-.10547-.03125-.11718-.0586-.08985-.07421-.07422-.11719-.02734-.07422-.07422-.08984-.0586-.08984-.0625-.08594-.05859-.07422-.07421-.0586-.08594-.04687-.10547-.08594-.0586-.14843-.14843-.19532-.0586-.1328.01563-.10157.04297-.07422.07422-.04688.10156-.04296.10547-.0586.08984-.0586.08594-.29687.29687-.08984.0586h-.08594l-.0625-.08594-.04297-.10547.03125-.11719.0586-.08984.02734-.11719-.01172-.13281-.08984-.0625-.10547.04688-.11719.02734-.11719.03125-.26953.17578-.10156.04688-.11719.02734-.10546.04687-.08985.0586-.10156.04297-.0586-.08594-.04687-.10547.01563-.13281.04687-.10547.07031-.07422.07422-.07031.0586-.08985v-.14843l-.04297-.10547h-.23829l-.10156.04687-.03125.11719-.02734.11719-.03125.1211-.07422.04296-.13281.01563-.07422-.04688-.04297-.10156-.04297-.10547-.04687-.10156-.04297-.10547-.1211.03125-.10156.04297-.13281.01562-.11719.03125-.10547.04297-.08984.0586-.10156.04687-.1211.02734-.13281.01563-.10156-.04297-.0586-.08985-.04687-.10546-.04297-.10157-.04297-.10546v-.1172l.0586-.08984.08593-.05859.17969-.11719.10156-.04687.10547-.04297.10547-.0586.10156-.04296.08985-.0625.10156-.04297.10547-.0586.10156-.04687.08984-.0586.10547-.04296.10156-.04297.08985-.0625.10156-.04297.13672-.01563.11719.03125.10156.04297.1211.03125.10156.04297.10546.04688.10157.04296.10547.04297.10156.04688.10547.04297.10156.04297.10547.04687.08594.0586.10546.04296.1172.03125.10546.04297.10156.04688.08985.0586.10547.04296.10156.04297.10547.04687.11719.02735.10156.04687.1211.02735h.14843l.08594-.0586.01562-.10156.0586-.08984-.02735-.1172-.07422-.07421-.11719-.17969-.07421-.07422-.08985-.07421-.17969-.1172-.08593-.05859-.10547-.04296-.10156-.04688-.26954-.17578-.05859-.08985-.07422-.07421-.0586-.08985-.04296-.10156-.03125-.11719-.01563-.13672v-.5625l-.01171-.1328-.01563-.13282-.03125-.11719-.01562-.13281-.01172-.13281-.03125-.1211-.22266-.22265-.0586-.08594-.01562-.10547.03125-.11719.13281-.01562v-91.41406H172.9922v1.45312l-.0586.23438-.35156 1.05078-.17187.52343-.1172.34766-.17577.41016-.11719.17187-.23438.29297-.23046.0586h-.35157l-.11718.05859-.23047.40625v.29297l.11719.17578.23046.23047.1172.23437.64062.75781.29297.46485.17578.23437.23047.35156.23437.34766.64063.8164.17578.46485.17187.41016.11719.69531.17578.46875.11719 1.39844.0586.46484v.875l.11718 1.04688v4.78125l-.0586.46484-.35156 1.28125-.17578.52344-.11328.41015-.35156.9297L172.93359 336l-.23437.58203-.11719.17578-.17187.34766-.17578.40625-.35157.8164-.0586.29297-.11327.29297-.11719.28906-.0586.17579-.11718.875-.0586.40625-.05859.11718-.0586.17579-.05859.17187-.23047.52734-.11718.17188v.23437l-.11719.23438-.0586.17187-.17577.58594v.28906l-.0586.17579v.29296l-.0586.11329-.05859.52734v.17187l-.05468.23438v2.6211l-.17578.8164-.1172.17578-.17577.23438-.1172.17187-.11327.23438-.58594.93359-.23047.28906-.29297.46485-.17578.23437-.28906.35156-.35156.69922-.11328.23047-.17579.41016-.17578.23046-.40625.52735-.8164.69922-.29297.17187-.28906.23438-.17579.11719-.17578.17578-.52344.40625-.52734.17578-.17187.17578-.23438.05469-.64062.17578h-.75782m12.21094 31.02344l-1.07422.44921.35938.89454 1.25-.71485.44531-.53906-.98047-.08985"/><path fill="#d3d3d3" fill-opacity="0" fill-rule="evenodd" d="M201.50781 416.59766h-.89453l.44922.6289.98047.35938.80469-.08985.4453-.98828-.17577.08985-.71485-.35547-.89453.35547m154.6211 59.0703l-.0586-.52343v-.29297l.11328-.29297.0586-.23046.46875-.46875h.11328l.11719-.11329.11718-.05859h.17579l.23437-.0586h.34766l.23437.0586.11719.0586.23047.17187.0586.17578.11718.58203v.29297l-.11719.17578-.17187.28906-.17579.17579-.52734.52343-.23047.23438-.11719.0586h-.17578l-.11718-.0586-.40625-.29297-.17579-.11719-.11718-.0586-.0586-.11327-.05468-.1172m6.64062-10.95702l-.0586-.17188v-1.10937l.0586-.17188.17578-.0586.17188-.05858h.17578l.23437-.0586.1172.0586.05858.69921-.05859.17188-.11719.17578-.11718.0586-.23438.52343-.11328.0586h-.23438l-.05859-.1172m9.61328-14.39062l-.11719-.17578v-.69922l.29297-.875.1172-.17187.17577-.35156.11328-.23047.1172-.29297.35155-.75781.1172-.23047.17187-.23438h.17578l.11719-.0586h.64062l.11719.0586.23437.23438.17188.11328.35156.29297.11719.11718.11328.17579v.11328l.11719.05859.11718.11719v.69922l-.05859.17578v.23047l-.0586.17578-.34765 1.05078-.11719.23047-.11719.23437-.11718.0586-.23047.23437-.64063.28906h-.875l-.41015-.11718-.64063-.46485"/><path fill="none" stroke="#bebebe" stroke-linecap="round" stroke-linejoin="round" stroke-miterlimit="10" stroke-width=".5" d="M467.95703 311.69531H144.02734v168.625h323.9297v-168.625"/><g clip-path="url(#a)"><path fill="#fff" fill-opacity="0" fill-rule="evenodd" d="M144 475.89063v4.4375h.0039H144v-36.48438 32.04688"/></g><g clip-path="url(#b)"><path fill="#fff" fill-opacity="0" fill-rule="evenodd" d="M144 422.6289v4.23829-115.19531h.0039H144V422.6289"/></g><path fill="#50fcfc" fill-rule="evenodd" d="M144 440.8164v3.02735h.0039v-3.02734H144"/><path fill="#00e8fc" fill-rule="evenodd" d="M144 439.9961v.8203h.0039v-.8203H144"/><path fill="#50fcfc" fill-rule="evenodd" d="M144 437.28125v2.71484h.0039v-2.71484H144"/><path fill="#fff" fill-opacity="0" fill-rule="evenodd" d="M144 433.1836v4.09765h.0039v-4.10156l-.0039.0039"/><path fill="#50fcfc" fill-rule="evenodd" d="M144 426.86719v6.3164l.0039-.0039v-6.3125H144"/><g clip-path="url(#c)"><path fill="#fff" fill-opacity="0" fill-rule="evenodd" d="M144.0039 480.32813v-36.48438l4.4336.9375 4.4375-.29688 2.84375.33594-2.84375 4.03125-.47656.41016.47656.32422.5586-.32422 3.8828-2.46875.40235 2.46875.25781 4.4375 3.77735 3.5625 3.1328.875 1.3047 1.02734 4.4375 1.88672 4.4375.2461 4.4414-.69922 4.4375-1.86329.71094-.59765 1.44922-4.4375 2.27734-2.9375 4.4375-1.10156 1.25-.39844 3.1914-.83203 2.52345-3.60938-2.52344-2.15234-4.4414-.35156-4.22266 2.5039-.21485.59375-4.4375 1.625-4.4375-2.13281-.01562-.08594.01562-.0586 2.47266-4.3789 1.21484-4.4375.75-1.875 1.0039-2.5625-1.0039-1.14844-4.4375-2.59765-4.4414.83203-3.1172-1.52344-1.3203-1.17578-4.4375 1.14063-.03516.03515-4.40234.69531-3.88672 3.7422-.55078 2.03906-4.33203 2.39843-.10938.00781-4.4375.29297-4.4336 1.03516v-4.10156l1.38282-1.67188-1.22656-4.4375-.15625-.20312V311.67188h48.8164v6.60546l-1.5664 2.26954 1.5664 1.79687v24.3164l-.48047.51954.3711 4.4375.10937.10937.10938-.10937.375-4.4375-.48438-.51953v-24.31641l2.96875 2.64063-1.46094 4.4414 2.9336 4.39844.11719.03906 2.46093 4.4375 1.85938 1.98828.54297-1.98828.98047-4.4375.22656-4.4375-1.75-2.67969-2.23438-1.76171-2.20312-2.2461-1.84375-2.1914-2.59766-2.26954v-6.60546h8.8789v4.16015l-.32421.27735.32422.4453.58594-.4453-.58594-.27735v-4.16015h4.4375v150.65625l-2.28125.24609 2.28125.16406.29687-.16406-.29687-.2461V311.67188h8.8789v15.58204l-3.02343 2.17187-1.35938 4.4375-.0586.59375-.84765 3.84375.84766 1.23047 4.4414 1.59766 2.76172 1.60937 1.67578.32422.32032-.32422.78906-4.4375 1.40234-4.4375-2.51172-2.0586-2.07421-2.3789-2.36328-2.17187v-15.58204h13.3125v149.83204l-.94532 1.0703.94531.7422 4.4375-.47266.33985-.26953-.33984-.4375-4.4375-.63281V311.67187h4.4375v39.01954l-2.35547.92578-.9297 4.4375 1.1875 4.4375 2.09767 2.375 3.41015-2.375.16406-4.4375-2.22656-4.4375-1.34766-.92578v-39.01954h13.31641v100.30079l-1.75781 1.78125-1.88281 4.4375.03515 4.4375 3.60547 3.60937 4.4375.04297 4.4375-.15234 4.4414-1.41016 3.9336-2.08984-3.9336-2.06641-3.83202-2.3711-.60938-.45312-4.4375-2.90625-2.6875-1.07812-1.75-1.78125V311.67187h26.6289v94.83985l-2.85546 2.80469-1.58203 3.78906-.63281.64844-1.9336 4.4375.45703 4.4375 2.10938.41406v7.13672l-1.1836 1.32812 1.1836 1.02735 1.29297-1.02735-1.29297-1.32812v-7.13672l.58984-.41406 3.84766-1.19922 4.4414-.69531 2.0586-2.54297 2.10937-4.4375-3.63672-4.4375-.53125-.53516-4.4414-2.26953v-94.83985h8.8789v111.9961l-4.4375.26953-2.74218 3.13281-.89454 4.4375 3.63672 3.44922 3.47657-3.44922.96093-1.11328 4.17579-3.32422-4.17579-3.40234v-111.9961h31.06641v98.69532l-1.64063 3.38672-1.8164 4.4375-.98047 1.48828-2.61719 2.94922.45313 4.4414 2.16406 2.16406 4.4375-1.42187.73828-.74219 3.11719-4.4414.58594-.69532 3.13671-3.74218-.76953-4.4375-2.36718-2.85547-4.44141-.53125v-98.69531h13.3164v92.60937l-.76562.59375.76563.58984.54296-.58984-.54296-.59375v-92.60938h22.1914v102.62891l-4.4375 1.00781-1.96875 2.88282 1.96875 2.1875.79688 2.25 3.64062 4.22265 4.4375-.15625 3.96094-4.0664-.41016-4.4375-3.55078-3.72657-4.4375-.16406v-102.6289h17.7539v95.34375l-2.66405 2.30078-1.77344 1.26562-2.67578 3.17188 1.22265 4.4375-.07421 4.4375-1.35547 4.4414-1.5547 1.75-2.32421 2.6875-2.11719 1.44922-1.35156-1.44922-3.08594-3.84375-4.4375-.10937-2.02734-.48438-2.41016-2.15625-2.14062 2.15625 1.3711 4.4375-3.67188 1.67578-2.78516 2.76172-1.65234 1.13281-4.07813 3.3047 3.11719 4.4375.96094 4.03515 4.4375-1.28516 1.875 1.6914.40234 4.4375 2.16406 1.91017 3.14844 2.52734 1.28906 4.14844 4.4375-2.63672 1.51563-1.51172 2.92187-3.95313 4.4414 2.63672 4.4375-1.0586 1.88282 2.375 1.05078 4.4375-1.21875 4.44142-1.71484 1.48046-4.4375-.29687-3.23047 3.2539 3.23047 3.2422 4.4375-.39844 4.4375-.66407 3.6875 2.25781.75 1.26954 4.4375 3.01562 4.4414-1.8164 3.63282-2.46875.80469-1.21485 4.26562-3.22265-4.26563-2.125-4.23046-2.3125 2.64453-4.44141 1.58594-2.67578 2.01562-1.76172 2.42188-.78516 4.4375-.61328 2.4453 1.39844 1.9922 2.82031 2.1328 1.61719 2.3086 1.84375 4.4375 2.02344 3.58594.57421.85156.73047 4.4375 1.5547 4.4414-.46485 1.75782-1.82031 2.67969-.83594 3.89062-3.60547.54688-2.67188 4.4375 1.67188 4.4375-.04297 2.79687 1.04297 1.64453.22656v9.96485l-3.02734 3.125 3.02734 2.72656 2.84766-2.72656-2.84766-3.125v-9.96485l.15625-.22656 4.28125-3.73438 1.54688-.70312-1.54688-.86719-4.4375-.36328-.97265-3.20703-.58594-4.4375-2.88281-2.36328-4.4375.19531-1.58203-2.27344-.40625-4.4375-2.44922-2.41015-4.4375-.6797-4.4375-.39452-4.4414.0586-4.4375 2.07421-4.4375-.4961-2.34376 1.84766-2.09375 1.01172-4.24219 3.42578-.19921.13281-4.4375-.0039-.08204-.1289-1.84765-4.4375 1.92969-1.46094 3.0625-2.97657.75-4.4375-.02735-4.4375.65235-3.47265.76171-.96875-.76171-.81641-1.72266.8164-2.71485.3125-4.4375-.1289-4.4375-.01172-.40625-.17187-4.03125-3.08985-4.4414-1.125-4.4375.41797-1.95703-.64062 1.95703-.83204 3.51953-3.60546-2.96875-4.4375-.55078-.60938-4.4375-1.6914v-95.34375h102.07812v168.65625H144.00391"/></g><path fill="#50fcfc" fill-rule="evenodd" d="M148.4375 444.78125l-4.4336-.9375v-3.02734l4.4336 3.03906 4.4375-.08594 3.92578-3.38672-3.92578-3.65625-4.4375.39063-4.4336 2.8789v-2.71484l4.4336-1.03516 4.4375-.29296.10938-.00782 4.33203-2.39844.55078-2.03906 3.88672-3.74219 4.40234-.6953.03516-.03516v.58593l-4.4375 1.39063-2.59375 2.4961-1.45313 4.4375.1914 4.4375.0586 4.4375.97656 4.4414 1.27735 4.4375 1.54297 1.45703 4.4375 1.88672 4.4375.72656h4.4375l4.4414-1.69922 1.9961-2.3711-1.9961-1.99218-1.48828-2.44531-.16797-4.4414.53125-4.4375.23047-4.4375.89453-.73829 2.98438-3.69922-2.98438-2.34375-4.39844 2.34375-.04296.05078-.14453-.05078-4.29297-1.67187-4.4375-2.21485v-.58593l4.4375-1.14063 1.3203 1.17578 3.1172 1.52344 4.4414-.83203 4.4375 2.59765 1.0039 1.14844-1.0039 2.5625-.75 1.875-1.21484 4.4375-2.47266 4.3789-.01562.0586.01562.08594 4.4375 2.13281 4.4375-1.625.21485-.59375 4.22265-2.5039 4.4414.35156 2.52345 2.15234-2.52344 3.60938-3.1914.83203-1.25.39844-4.4375 1.10156-2.27735 2.9375-1.44922 4.4375-.71094.59765-4.4375 1.86329-4.4414.69921-4.4375-.24609-4.4375-1.88672-1.3047-1.02734-3.1328-.875-3.77735-3.5625-.25781-4.4375-.40234-2.46875-3.88282 2.46875-.55859.32422-.47656-.32422.47656-.41016 2.84375-4.03125-2.84375-.33594-4.4375.29688"/><path fill="#00e8fc" fill-rule="evenodd" d="M148.4375 443.85547l-4.4336-3.03906v-.82032l4.4336-2.8789 4.4375-.39063v1.28906l-4.4375.5547-2.5625 1.8125 2.5625 1.92968 4.4375.26172 2.54297-2.1914-2.54297-2.3672v-1.28906l3.92578 3.65625-3.92578 3.38672-4.4375.08594"/><path fill="#50fcfc" fill-rule="evenodd" d="M145.38672 431.50781l-1.38281 1.67188v-6.3125l.15625.20312 1.22656 4.4375"/><path fill="#00d4fc" fill-rule="evenodd" d="M148.4375 442.3125l-2.5625-1.92969 2.5625-1.8125 4.4375-.55469v1.28907l-4.4375.71875-.50781.35937.50781.38672 4.4375.61328 1.16016-1-1.16016-1.07812v-1.28906l2.54297 2.36718-2.54297 2.1914-4.4375-.26171"/><path fill="#00c4fc" fill-rule="evenodd" d="M148.4375 440.76953l-.50781-.38672.50781-.35937 4.4375-.71875 1.16016 1.07812-1.16016 1-4.4375-.61328"/><path fill="#00e8fc" fill-rule="evenodd" d="M157.89844 440.38281l-.1914-4.4375 1.45312-4.4375 2.59375-2.4961 4.4375-1.39062v.92579l-4.4375 2.54296-.4336.41797-2.30078 4.4375.45313 4.4375-.0586 4.4375 1.54297 4.4414.79688 1.78517 2.35156 2.65234 2.08594 1.14453 4.4375.26172 4.4375-.5625 1.17968-.84375-1.17968-1.95703-1.3125-2.48047 1.3125-4.21094.05078-.23047-.05078-.21094-1.26172-4.22656-.07422-4.4375-3.10156-1.76562-.8125-2.67188-3.625-2.96094v-.92578l4.4375 2.21485 4.29297 1.67187.14453.05078.04297-.05078 4.39843-2.34375V431.5l-.01172.00781.01172.00781.00781-.0078-.0078-.00782v-2.33594l2.98437 2.34375-2.98438 3.69922-.89453.73828-.23047 4.4375-.53125 4.4375.16797 4.4414 1.48828 2.44532 1.9961 1.99219-1.9961 2.3711-4.4414 1.69921h-4.4375l-4.4375-.72656-4.4375-1.88672-1.54297-1.45703-1.27735-4.4375-.97656-4.4414-.0586-4.4375"/><path fill="#00d4fc" fill-rule="evenodd" d="M159.47266 440.38281l-.45313-4.4375 2.30078-4.4375.4336-.41797 4.4375-2.54296v.92578l-3.25391 2.03515-1.1836 1.88281-1.42187 2.5547.71484 4.4375-.17578 4.4375.88282 2.21874 4.23828 2.22266.19922.2461.52734-.2461 3.45313-4.4414-3.98047-4.35157-.125-.08594.125-.0586 2.85547-4.3789-.36329-4.4375-2.49218-2.03515v-.92579l3.625 2.96094.8125 2.67188 3.10156 1.76562.07422 4.4375 1.26172 4.22656.05078.21094-.05078.23047-1.3125 4.21094 1.3125 2.48047 1.17968 1.95703-1.17968.84375-4.4375.5625-4.4375-.26172-2.08594-1.14453-2.35156-2.65235-.79688-1.78515-1.54297-4.4414.0586-4.4375"/><path fill="#00c4fc" fill-rule="evenodd" d="M161.04688 440.38281l-.71485-4.4375 1.42188-2.55469 1.18359-1.8828 3.2539-2.03516v.92968l-1.76952 1.10547-2.66797 4.2461-.10938.1914.10938.57422 2.7539-.57422 1.6836-.17969 1.35547-4.2578-1.35547-1.10548v-.92968l2.49218 2.03515.36328 4.4375-2.85546 4.3789-.125.0586.125.08594 3.98047 4.35156-3.45313 4.4414-.52734.2461-.19922-.2461-4.23828-2.22265-.88282-2.21875.17578-4.4375"/><path fill="#00b8fc" fill-rule="evenodd" d="M161.7539 436.51953l-.10937-.57422.10938-.1914 2.66797-4.2461 1.76953-1.10547v.92579l-.28516.17968.28516.6914.21875-.6914-.21875-.17969v-.92578l1.35547 1.10547-1.35547 4.25781-1.6836.1797-2.7539.57421"/><path fill="#00a8fc" fill-rule="evenodd" d="M166.1914 432.19922l-.28515-.6914.28516-.1797.21875.1797-.21875.6914"/><path fill="#00d4fc" fill-rule="evenodd" d="M179.50781 431.51563l-.01172-.00782.01172-.00781.00781.00781-.0078.00781"/><path fill="#50fcfc" fill-rule="evenodd" d="M192.82031 322.34375l-1.5664-1.79688 1.5664-2.26953 2.59766 2.26954 1.84375 2.1914 2.20312 2.2461 2.23438 1.76171 1.75 2.6797-.22656 4.4375-.98047 4.4375-.54297 1.98827-1.85938-1.98828-2.46093-4.4375-.1172-.03906-2.93358-4.39844 1.46093-4.4414-2.96875-2.64063m-.10937 29.27344l-.3711-4.4375.48047-.51953.48438.51953-.375 4.4375-.10938.10937-.10937-.10937m8.98828-35.0625l-.32422-.44531.32422-.27735.58594.27735-.58594.4453m4.4375 146.1836l-2.28125-.16406 2.28125-.2461.29687.2461-.29687.16406m4.4375-123.20703l-.84766-1.23047.84766-3.84375.0586-.59375 1.35937-4.4375 3.02344-2.17187v4.3203l-1.34766 2.28907 1.34766 1.5 1.96093-1.5-1.96094-2.28906v-4.32031l2.36329 2.17187 2.07422 2.3789 2.51171 2.0586-1.40234 4.4375-.78906 4.4375-.32031.32422-1.67579-.32422-2.76172-1.60937-4.4414-1.59766"/><path fill="#00e8fc" fill-rule="evenodd" d="M215.01563 335.36328l-1.34766-1.5 1.34766-2.28906 1.96093 2.28906-1.96094 1.5"/><path fill="#50fcfc" fill-rule="evenodd" d="M228.32813 463.3164l-.94532-.74218.94531-1.07031 4.4375.6328.33985.4375-.33984.26954-4.4375.47266m2.33984-102.82422l-1.1875-4.4375.92969-4.4375 2.35547-.92578v5.3203l-.02735.04298.02734.08594.03125-.08594-.03125-.04297v-5.32031l1.34766.92578 2.22656 4.4375-.16406 4.4375-3.41016 2.375-2.09765-2.375"/><path fill="#00e8fc" fill-rule="evenodd" d="M232.76563 356.14063l-.02735-.08594.02734-.04297.03125.04297-.03125.08594"/><path fill="#50fcfc" fill-rule="evenodd" d="M242.47656 422.6289l-.03515-4.4375 1.8828-4.4375 1.75782-1.78124v2.8125l-2.41016 3.40625.21875 4.4375 2.19141 2.1953 4.4375-.3164 4.4375-.42187 2.4414-1.45703-2.4414-1.9336-2.19922-2.5039-2.23828-1.625-4.4375-1.78125v-2.8125l1.75 1.78125 2.6875 1.07812 4.4375 2.90625.60938.45313 3.83203 2.37109 3.9336 2.0664-3.9336 2.08985-4.4414 1.41016-4.4375.15234-4.4375-.04297-3.60548-3.60937"/><path fill="#00e8fc" fill-rule="evenodd" d="M243.89063 422.6289l-.21875-4.4375 2.41015-3.40624v2.89843l-.35937.50782.35937 3.16406 1.27344-3.16406-1.27344-.50782v-2.89843l4.4375 1.78125 2.23828 1.625 2.19922 2.5039 2.4414 1.9336-2.4414 1.45703-4.4375.42187-4.4375.3164-2.1914-2.1953"/><path fill="#00d4fc" fill-rule="evenodd" d="M246.08203 421.35547l-.35937-3.16406.35937-.50782 1.27344.50782-1.27344 3.16406"/><path fill="#50fcfc" fill-rule="evenodd" d="M266.16406 422.6289l-.45703-4.4375 1.9336-4.4375.6328-.64843 1.58204-3.78906 2.85547-2.8047v2.45313l-.35547.35157-2.42969 4.4375 2.78516 4.01953 4.4414-.0664 3.23047-3.95313-3.23047-3.51172-3.83984-.92578-.60156-.35157v-2.45312l4.4414 2.26953.53125.53516 3.63672 4.4375-2.10937 4.4375-2.0586 2.54296-4.4414.69532-3.84766 1.19922-.58984.41406-2.10938-.41406m2.10938 9.90625l-1.1836-1.02735 1.1836-1.32812 1.29297 1.32812-1.29297 1.02735"/><path fill="#00e8fc" fill-rule="evenodd" d="M272.71094 417.77344l-2.78516-4.01953 2.42969-4.4375.35547-.35157.60156.35157 3.83984.92578v1.69922l-4.0664 1.8125 4.0664 2.03906 1.66797-2.03906-1.66797-1.8125v-1.69922l3.23047 3.51172-3.23047 3.95312-4.4414.0664"/><path fill="#00d4fc" fill-rule="evenodd" d="M277.15234 415.79297l-4.0664-2.03906 4.0664-1.8125v1.69921l-.2578.11329.2578.1289.10157-.1289-.10157-.11329v-1.69921l1.66797 1.8125-1.66797 2.03906"/><path fill="#50fcfc" fill-rule="evenodd" d="M277.15234 434.95703l-3.63671-3.44922.89453-4.4375 2.74218-3.13281 4.4375-.26953v1.86719l-4.4375 1.4375-.08203.09765-1.90625 4.4375 1.98828 1.88281 1.89844-1.8828 2.53906-2.9375 1.88282-1.5-1.88282-1.53516v-1.8672l4.17579 3.40235-4.17579 3.32422-.96093 1.11328-3.47657 3.44922"/><path fill="#00e8fc" fill-rule="evenodd" d="M277.15234 433.39063l-1.98828-1.88282 1.90625-4.4375.08203-.09765 4.4375-1.4375 1.88282 1.53515-1.88282 1.5-2.53906 2.9375-1.89844 1.88281"/><path fill="#00c4fc" fill-rule="evenodd" d="M277.15234 413.88281l-.2578-.1289.2578-.11329.10157.11329-.10157.1289"/><path fill="#50fcfc" fill-rule="evenodd" d="M306.05469 427.07031l-.45313-4.4414 2.61719-2.94922.98047-1.48828 1.8164-4.4375 1.64063-3.38672 4.4414.53125v4.80078l-4.4414.27344-1.3086 2.21875-2.55859 4.4375 3.86719 1.89453 1.51172-1.89453 2.92969-3.48047.80078-.95703-.80078-2.4922v-4.80077l2.36718 2.85547.76954 4.4375-3.13672 3.74218-.58594.69532-3.11719 4.4414-.73828.74219-4.4375 1.42188-2.16406-2.16407"/><path fill="#00e8fc" fill-rule="evenodd" d="M312.65625 424.52344l-3.86719-1.89453 2.5586-4.4375 1.30859-2.21875 4.4414-.27344.80079 2.49219-.80078.95703-2.9297 3.48047-1.51171 1.89453"/><path fill="#50fcfc" fill-rule="evenodd" d="M325.97266 405.46484l-.76563-.58984.76563-.59375.54296.59375-.54296.58984"/><g clip-path="url(#d)"><path fill="#50fcfc" fill-rule="evenodd" d="M329.44922 444.82031l-3.11719-4.4375 4.07813-3.30469 1.65234-1.1328 2.78516-2.76173 3.67187-1.67578-1.3711-4.4375 2.14063-2.15625 2.41016 2.15625 2.02734.48438 4.4375.10937 3.08594 3.84375 1.35156 1.44922 2.11719-1.44922 2.32422-2.6875 1.55469-1.75 1.35546-4.4414.07422-4.4375-1.22265-4.4375 2.67578-3.17188 1.77344-1.26562 2.66406-2.30079v2.75391l-4.4375 3.95313-.02735.03125.02735.05859 4.4375 3.89063v6.95312l-1.69531 2.41406.875 4.4375.8203.32813.60938-.32813-.21093-4.4375-.39844-2.41406v-6.95313l4.4375-2.1953 1.71484-1.75391-1.71484-2.26954-4.4375-1.71484v-2.7539l4.4375 1.6914.55078.60938 2.96875 4.4375-3.51953 3.60546-1.95703.83204 1.95703.64062v1.42969l-3.05469 2.36719.35156 4.4414 2.29688 4.4375-4.03125 2.16797-4.4375-1.33984-2.40625 3.60937-2.03125 1.89063-4.4414-1.39453-1.9375-.4961-2.5-2.90625-.22657-1.53125-4.21094-3.01172-3.49219 3.01172-.9453 1.4961-4.44141 2.71875-.22266.22265-4.21484 2.88672-1.91407 1.55078 1.91407 2.22266 2.45312-2.22266 1.98438-3.95312 4.4414 3.42578 2.96875.52734-2.96875 3.82813-.8164.60937.8164.48828 4.4375.31641v5.2539l-2.40234 2.82032 2.40234 3.04297 2.90235-3.04297-2.90235-2.82031V445.625l3.375 3.63672 1.0625 1.03125 4.4375 1.4414 4.4414 1.39454 4.4375-2.05079 4.4375-1.28906 4.4375 3.53516.08985.375-.08984.2539-3.33203 4.1836.57812 4.4375-1.23437 4.4414.54687 4.4375 3.4414 2.9375 3.77735-2.9375.66016-3.61328.30078-.82421 4.14063-3.7461.4375-.69531 3.73828-4.4375.26171-.28906 4.4375-2 3.97266-2.14844.46485-.57031 1.5039.5703 2.9336 1.4297 3.64062 3.0078.80078.69923 1.07813 3.73828 3.35937 2.76562 4.4375.88282 4.4375.58984 4.4414-.21094 4.4375-1.75781 2.44923-2.26953-1.9375-4.4375 3.92578-2.125 2.01562 2.125 2.42188 1.6289 2.26562-1.6289 2.17188-1.96485 1.80469-2.47265-1.8047-3.42969-4.4375-.57812-4.4375 1.375-1.8203 2.6328-2.6172 4.09767-1.34765-4.09766-3.08984-3.07422-.8086-1.36328.00391-4.4414.80469-1.56641v4.78515l-.13672 1.22266.13672.22265 1.4375-.22265-1.4375-1.22266v-4.78515l1.92578 1.5664 2.51172 2.28906v5.26563l-.20313 1.32422.20313.60937.39062-.60937-.39062-1.32422v-5.26563l4.4375-2.02734.09765-.26172-.09765-.47656-3.46485-3.96094-.97265-.23047-4.4375-1.39843-4.4414-.16016-2.4961 1.78906-1.9414.67969-4.4375.1875-4.4375 3.28516-.35157.28515-4.08985 2.70703-4.4375-.55859-1.36718-2.14844-3.07031-3.85547-.15625-.58203.15625-.19922 4.4375-4.23437.0039-.0039 2.6914-4.4375-.29296-4.4375-2.40235-2.6172-4.4375-.66406-4.4375.2461-3.38671-1.40625-1.05079-.8086-4.4414-1.0586-4.4375-.5v-1.42968l4.4375-.41797 4.4414 1.125 4.03125 3.08985.40625.17187 4.4375.01172 4.4375.1289 2.71485-.3125 1.72265-.8164.76172.8164-.76171.96876-.65235 3.47265.02735 4.4375-.75 4.4375-3.0625 2.97656-1.9297 1.46094 1.84766 4.4375.08204.1289 4.4375.00392.19921-.13282 4.2422-3.42578 2.09374-1.01172 2.34375-1.84765 4.4375.49609 4.4375-2.07422 4.4414-.0586 4.4375.39454 4.4375.67969 2.44923 2.41015.40625 4.4375 1.58203 2.27344 4.4375-.19531 2.88281 2.36328.58594 4.4375.97265 3.20703 4.4375.36328 1.54688.86719-1.54688.70312-4.28125 3.73438-.15625.22656-1.64453-.22656-2.79687-1.04297-4.4375.04297-4.4375-1.67188-.54688 2.67188-3.89062 3.60547-2.67969.83594-1.75781 1.8203-4.4414.46485-4.4375-1.55469-.85157-.73046-3.58594-.57422-4.4375-2.02344-2.3086-1.84375-2.1328-1.61719-1.9922-2.82031-2.4453-1.39844-4.4375.61328-2.42188.78516-2.01563 1.76172-1.58593 2.67578-2.64453 4.4414 4.23046 2.3125 4.26563 2.125-4.26563 3.22266-.80468 1.21485-3.63281 2.46875-4.44141 1.8164-4.4375-3.01562-.75-1.26954-3.6875-2.2578-4.4375.66406-4.4375.39843-3.23047-3.24219 3.23047-3.2539v1.98828l-1.25781 1.26563 1.2578 1.26171 4.4375-1.10156.47267-.16015-.47266-.17188-4.4375-1.09375v-1.98828l4.4375.29687 1.71484-1.48046 1.21875-4.44141-1.05078-4.4375-1.88281-2.375-4.4375 1.0586-4.4414-2.63673-2.92188 3.95313-1.51563 1.51172-4.4375 2.63672-1.28906-4.14844-3.14844-2.52735-2.16406-1.91015-.40234-4.4375-1.875-1.6914-4.4375 1.28515-.96094-4.03516"/></g><path fill="#00e8fc" fill-rule="evenodd" d="M330.41016 442.60547l-1.91407-2.22266 1.91407-1.55078 4.21484-2.88672.22266-.22265 4.4414-2.71875.94531-1.4961 3.4922-3.01172v1.57813l-1.66407 1.4336-2.77344 4.39452-.07422.04297.07422.0586.0586-.0586 4.3789-2.46484v2.16015l-.53906.3047.53906 2.99609 1.85938-2.9961-1.85938-.30469v-2.16015l2.00781-1.97266-2.0078-1.4336v-1.57812l4.21093 3.01172.22656 1.53125v11.01172l-3.03125.76953 3.03125 2.67578.94531-2.67578-.9453-.76953v-11.01172l2.5 2.90625 1.9375.4961 4.4414 1.39453 2.03125-1.89063 2.40625-3.60937 4.4375 1.33984 4.03125-2.16797-2.29688-4.4375-.35156-4.4414 3.05469-2.3672v2.46095l-.47266 4.34765.47266.82813 2.35937 3.60937-.34765 4.4375-2.01172 1.17188-4.4375-.82813-4.4375.32813-3.8711 3.76562-.5664 1.01953-2.90625-1.01953-1.53516-.63672-3.10156.63672 3.10156 1.78516.84375 2.65234 1.63281 4.4414 1.96485.75392 1.21875-.75391 3.21875-.82813 4.4375-1.6953 3.6289-1.91798.8086-.35547.29687.35547.23047 4.4414.57813 4.4375-1.10547 3.12892-1.04297 1.30859 1.04297 3.0625v9.07422l-.17969 1.17969.17969.15234.19922-.15235-.19922-1.17968v-9.07422l4.4375.83203 4.4414-.19531 3.41407-3.69922 1.02344-1.14063 4.27734-3.29687.16015-.46485 3.53125-3.97265-2.60156-4.4414-.92969-1.16407-.875-3.27344.875-1.1289 3.46485-3.3086.97265-3.0664.83204-1.3711-.73829-4.4375-.09375-.10547-4.4375-1.55078-4.4375.67969-4.4375-.89063-4.4414-1.62109-4.4375-.85937v-2.46094l4.4375.5 4.4414 1.0586 1.05079.80859 3.38671 1.40625 4.4375-.2461 4.4375.66406 2.40235 2.6172.29297 4.4375-2.6914 4.4375-.00392.0039-4.4375 4.23437-.15625.19922.15625.58203 3.07032 3.85547 1.36719 2.14844 4.4375.5586 4.08984-2.70704.35156-.28515 4.4375-3.28516 4.4375-.1875v1.32813l-4.4375 1.10937-1.69922 1.32031-2.73828 3.29688-1.57812 1.14453 1.57812 2.3789.97656 2.0586.91016 4.4375 1.41797 4.4375 1.13281.9336 4.4375 1.21093 4.4375 1.01563 4.4414-.29297 4.4375-2.82422.04298-.04297-.04297-.08594-2.84375-4.35156-.41797-4.4375-1.17578-1.17188-1.9336-3.26562-1.65234-4.4414-.85547-2.09376-4.4375-.33594v-1.32812l1.9414-.67969 2.4961-1.78906 4.4414.16016 4.4375 1.39843.97266.23047 3.46485 3.96094.09765.47656-.09765.26172-4.4375 2.02735-2.51172-2.28907-1.92578-1.5664-.80469 1.5664-.0039 4.4414.80859 1.36329 3.08984 3.07422 1.34766 4.09765 2.61719-4.09765 1.8203-2.63281 4.4375-1.375v1.57421l-3.33593 2.4336 3.33594 3.42187 3.6211-3.42187-3.6211-2.4336v-1.57421l4.4375.57812 1.80469 3.42969-1.8047 2.47265-2.17187 1.96485-2.26562 1.6289-2.42188-1.6289-2.01562-2.125-3.92578 2.125 1.9375 4.4375-2.44922 2.26953-4.4375 1.75781-4.4414.21094-4.4375-.58984-4.4375-.88282-3.35938-2.76562-1.07813-3.73828-.80078-.69922-3.64063-3.00781-2.93359-1.4297-1.5039-.5703-.46485.5703-3.97265 2.14845-4.4375 2-.26172.28906-3.73829 4.4375-.4375.69531-4.14062 3.7461-.30078.82421-.66016 3.61329-3.77734 2.9375-3.4414-2.9375-.54688-4.4375 1.23437-4.44141-.57812-4.4375 3.33203-4.1836.08984-.2539-.08984-.375-4.4375-3.53516-4.4375 1.28906-4.4375 2.05079-4.4414-1.39454-4.4375-1.4414-1.0625-1.03125-3.375-3.63672-4.4375-.3164-.81641-.48829.8164-.60937 2.96875-3.82813-2.96875-.52734-4.4414-3.42578-1.98438 3.95312-2.45312 2.22266"/><path fill="#00d4fc" fill-rule="evenodd" d="M339.28906 436.0039l-.07422-.05859.07422-.04297 2.77344-4.39453 1.66406-1.4336 2.00781 1.4336-2.0078 1.97266-4.37891 2.46484-.0586.0586"/><path fill="#fff" fill-opacity="0" fill-rule="evenodd" d="M343.72656 450.8789l-2.40234 2.82032 2.40234 3.04297 2.90235-3.04297-2.90235-2.82031"/><path fill="#50fcfc" fill-rule="evenodd" d="M343.72656 420.3789l-1.96875-2.1875 1.96875-2.8828 4.4375-1.00782V415.75l-3.46875 2.4414 1.28906 4.4375 2.1797 2.52735 4.4375.49219 2.9414-3.01953-1.01563-4.4375-1.92578-2.01954-4.4375-.42187v-1.44922l4.4375.16406 3.55078 3.72657.41016 4.4375-3.96094 4.0664-4.4375.15625-3.64062-4.22265-.79688-2.25m0 15.26171l-.53906.3047.53906 2.99609 1.85938-2.9961-1.85938-.30469"/><path fill="#00e8fc" fill-rule="evenodd" d="M345.98438 422.6289l-1.28907-4.4375 3.46875-2.4414v2.41797l-.03515.02344.03515.3789.5625 4.0586 3.875 1.27343 1.24219-1.27343-1.24219-3.1797-4.28906-1.2578-.14844-.02344V415.75l4.4375.42188 1.92578 2.01953 1.01563 4.4375-2.9414 3.01953-4.4375-.49219-2.1797-2.52734"/><path fill="#50fcfc" fill-rule="evenodd" d="M348.16406 444.05078l-3.03125.76953 3.03125 2.67578.94531-2.67578-.9453-.76953"/><path fill="#00d4fc" fill-rule="evenodd" d="M348.16406 418.57031l-.03515-.3789.03515-.02344.14844.02344 4.28906 1.2578 1.24219 3.1797-1.24219 1.27343-3.875-1.27343-.5625-4.0586m4.4375 23.59766L349.5 440.3828l3.10156-.63672 1.53516.63672 2.90625 1.01953.5664-1.01953 3.8711-3.76562 4.4375-.32813 4.4375.82813 2.01172-1.17188.34765-4.4375-2.35937-3.60937-.47266-.82813.47266-4.34765 4.4375.85937v1.82813l-2.3789 1.66015 2.3789 3.69531.86719.7422-.67188 4.4375-.19531.49609-4.4375 2.41015-4.4375-1.23828-4.4375.51953-2.3125 2.25-2.125 3.80469-.66797.63281.66797 1.02344 4.4375 1.29297 3.8711-2.3164.5664-.4922 4.4375-2.03125 2.10156 2.52344 2.33594 2.88281.41797 1.5586-.41797 1.03906-2.32031 3.39844-.48047 4.4375 2.80078 1.8789 4.4414.9922 2.64844-2.8711 1.78906-1.99219 3.17188-2.44531 1.26563-3.65235.69921-.78515-.69921-1.34766-.64454-3.09375-.94921-4.4375 1.59375-2.0586 2.49218-2.3789.8086-4.4375-3.23047-4.4375-.07031-.02734-.12891.02734-4.3086 1.52344-4.4375.08594-1.42578-1.60938-3.01562-1.66015v-1.82813l4.4414 1.6211 4.4375.89062 4.4375-.67969 4.4375 1.55078.09375.10547.73829 4.4375-.83204 1.3711-.97265 3.0664-3.46485 3.3086-.875 1.1289.875 3.27344.9297 1.16406 2.60156 4.4414-3.53125 3.97267-.16016.46484-4.27735 3.29687-1.02343 1.14063-3.41406 3.69922-4.44141.19531-4.4375-.83203-1.04297-3.0625 1.04297-1.3086 1.10547-3.1289-.57813-4.4375-.23047-4.4414-.29687-.35548-.8086.35547-3.6289 1.91797-4.4375 1.69531-3.21875.82813-1.21875.7539-1.96485-.7539-1.6328-4.4414-.84376-2.65235"/><path fill="#00e8fc" fill-rule="evenodd" d="M357.04297 472.71484l-1.25781-1.26171 1.2578-1.26563 4.4375 1.09375.47267.17188-.47266.16015-4.4375 1.10156"/><path fill="#00c4fc" fill-rule="evenodd" d="M357.04297 445.84375l-.66797-1.02344.66797-.63281 2.125-3.80469 2.3125-2.25 4.4375-.51953v1.32813l-4.4375.70703-.75781.73437-1.47657 4.4375 2.23438 1.01563 1.69922-1.01563 2.73828-2.3789 4.01172-2.0586-4.01172-1.4414v-1.32813l4.4375 1.23828 4.4375-2.41015.19531-.4961.67188-4.4375-.8672-.74219-2.3789-3.6953 2.3789-1.66016 3.01563 1.66015 1.42579 1.60938 4.4375-.08594 4.30859-1.52344.1289-.02734v2.77734l-4.4375 1.67188-.09375.01562-4.34375.33594-3.17968 4.10156-1.26172 3.19531-3.54297 1.2422 3.01172 4.4375.53125.66015 1.00781 3.78125-1.00781 2.52734-1.30469 1.91016 1.30469 4.22265.11719.21485 4.32421 2.04297 1.88282-2.04297 2.55469-2.84375 2.0664-1.59375 1.39063-4.4375-.8047-4.4414-.52733-4.4375 2.3125-2.98829 1.51953-1.44922-.27735-4.4375-1.24219-1.6875v-2.77734l.07032.02734 3.23047 4.4375-.8086 4.4375-2.49219 2.3789-1.59375 2.0586.94922 4.4375.64454 3.09375.69921 1.34766-.69921.78515-1.26563 3.65235-3.17188 2.44531-1.78906 1.99219-2.64844 2.8711-4.4414-.9922-2.80078-1.8789.48047-4.4375 2.3203-3.39844.41798-1.03906-.41797-1.5586-2.33594-2.8828-2.10156-2.52344-4.4375 2.03125-.5664.49218-3.8711 2.3164-4.4375-1.29296"/><path fill="#00b8fc" fill-rule="evenodd" d="M361.48047 445.83594l-2.23438-1.01563 1.47657-4.4375.7578-.73437 4.4375-.70703v1.32421l-.66015.1172.66016.17187.33203-.17188-.33203-.11719v-1.32421l4.01172 1.4414-4.01172 2.0586-2.73828 2.3789-1.69922 1.01563"/><path fill="#00e8fc" fill-rule="evenodd" d="M361.48047 413.8125l-.02735-.0586.02735-.03124 4.4375-3.95313v1.91797l-2.3086 2.0664 2.3086 2.04688 3.16797-2.04687-3.16797-2.06641v-1.91797l4.4375 1.71485 1.71484 2.26953-1.71484 1.7539-4.4375 2.19531-4.4375-3.89062"/><path fill="#00d4fc" fill-rule="evenodd" d="M365.91797 415.80078l-2.3086-2.04687 2.3086-2.06641v1.91406l-.16797.15235.16797.14843.23047-.14843-.23047-.15235v-1.91406l3.16797 2.0664-3.16797 2.04688"/><path fill="#fff" fill-opacity="0" fill-rule="evenodd" d="M365.91797 424.65625l-1.69531 2.41406.875 4.4375.8203.32813.60938-.32813-.21093-4.4375-.39844-2.41406"/><path fill="#00a8fc" fill-rule="evenodd" d="M365.91797 440.55469l-.66016-.17188.66016-.11719.33203.1172-.33203.17187"/><path fill="#00c4fc" fill-rule="evenodd" d="M365.91797 413.90234l-.16797-.14843.16797-.15235.23047.15235-.23047.14843"/><path fill="#00d4fc" fill-rule="evenodd" d="M370.35547 471.60547l-.17969-.15235.17969-1.17968.19922 1.17969-.19922.15234"/><path fill="#00b8fc" fill-rule="evenodd" d="M374.26172 444.82031l-3.01172-4.4375 3.54297-1.24219 1.26172-3.1953 3.17969-4.10157v1.3711l-2.1172 2.73046-1.61327 4.4375.26953 4.4375.61719 4.4414-1.59766 4.01173-.28906.42578.28906.9414 1.8711 3.4961 2.5703 1.21484 1.1211-1.21484 3.3164-3.69531.96094-.7422 1.19531-4.4375-.64453-4.4414-.10156-4.4375 3.02735-3.91797.54296-.51953-.54296-2.59765-4.4375.0078-4.4375-.14062v-1.37109l4.34375-.33594.09375-.01562 4.4375-1.67188 1.24218 1.6875.27735 4.4375-1.51954 1.44922-2.3125 2.98828.52735 4.4375.80469 4.4414-1.39063 4.4375-2.0664 1.59376-2.5547 2.84375-1.8828 2.04297-4.32422-2.04297-.1172-.21485-1.30468-4.22265 1.30469-1.91016 1.00781-2.52734-1.00781-3.78125-.53125-.66016"/><path fill="#00a8fc" fill-rule="evenodd" d="M374.79297 454.64063l-.28906-.94141.28906-.42578 1.59765-4.01172-.61718-4.4414-.26953-4.4375 1.61328-4.4375 2.11719-2.73048v1.375l-1.0547 1.35547-1.36327 4.4375.35156 4.4375-.1875 4.4414-1.66797 4.4375 3.10156 4.4375.82031.38673.35547-.38672 3.97657-4.4375.10546-.72656.85938-3.71094-.49219-4.4414.32422-4.4375 1.39844-4.4375-2.08985-.73048-4.4375-.625v-1.375l4.4375.14063 4.4375-.00781.54297 2.59765-.54296.51953-3.02735 3.91797.10156 4.4375.64454 4.4414-1.19532 4.4375-.96094.7422-3.3164 3.6953-1.1211 1.21485-2.5703-1.21484-1.8711-3.4961"/><path fill="#009800" fill-rule="evenodd" d="M378.41406 458.13672l-3.10156-4.4375 1.66797-4.4375.1875-4.4414-.35156-4.4375 1.36328-4.4375 1.05469-1.35548v1.41407l-1.10938 4.3789.4336 4.4375-.98829 4.4414-1.53125 4.4375 3.19531 3.95704 3.53125-3.95703.4297-4.4375-2.10938-4.4414 2.38672-4.4375-4.23829-4.37891v-1.41407l4.4375.625 2.08985.73047-1.39844 4.4375-.32422 4.4375.49219 4.4414-.85938 3.71095-.10546.72656-3.97657 4.4375-.35546.38672-.82032-.38672"/><path fill="#00ac00" fill-rule="evenodd" d="M379.23438 457.65625l-3.19532-3.95703 1.53125-4.4375.98828-4.4414-.43359-4.4375 1.10938-4.37891v9.80078l-1.07032 3.45703-1.39844 4.4375 2.46875 3.0586 2.72657-3.0586-.17578-4.4375-2.55079-3.45703v-9.80078l4.23829 4.3789-2.38672 4.4375 2.10937 4.4414-.42969 4.4375-3.53125 3.95704"/><path fill="#00c800" fill-rule="evenodd" d="M379.23438 456.75781l-2.46875-3.0586 1.39843-4.4375 1.07031-3.45702v3.98047l-1.01562 3.91406 1.01563 1.25781 1.12109-1.25781-1.1211-3.91406v-3.98047l2.55079 3.45703.17578 4.4375-2.72656 3.0586"/><path fill="#10cc00" fill-rule="evenodd" d="M379.23438 454.95703l-1.01563-1.25781 1.01563-3.91406 1.12109 3.91406-1.1211 1.25781"/><path fill="#00d4fc" fill-rule="evenodd" d="M401.42578 451.64063l-1.57812-2.37891 1.57812-1.14453 2.73828-3.29688 1.69922-1.32031 4.4375-1.10938v1.32813l-2.96094 1.10156-1.47656 1.84375-2.0625 2.59766 2.04688 4.4375-.46094 4.4375.47656 1.41015 2.3789 3.02735 2.0586.64062 4.4375 1.44141 4.4414-.3789 2.65626-1.70313-2.65625-3.35547-1-1.08203-.22266-4.4375-1.83594-4.4375-1.3828-2.83594-2.01954-1.60547-2.41797-1.10156v-1.32813l4.4375.33594.85547 2.09375 1.65234 4.4414 1.9336 3.26563 1.17578 1.17188.41797 4.4375 2.84375 4.35156.04297.08594-.04297.04297-4.4375 2.82422-4.4414.29296-4.4375-1.01562-4.4375-1.21094-1.13282-.9336-1.41797-4.4375-.91016-4.4375-.97656-2.05858"/><path fill="#00c4fc" fill-rule="evenodd" d="M405.84766 453.69922l-2.04688-4.4375 2.0625-2.59766 1.47656-1.84375 2.96094-1.10156v1.35156l-3.8789 4.1914 1.23046 4.4375.4375 4.4375 2.21094 2.53907 1.69531 1.89844 2.7422 1.0039 4.4414-.46484.83984-.53906-.83984-1.0625-3.11328-3.375-1.29297-4.4375.21875-4.4375-.2539-.52344-4.4375-3.66797v-1.35156l2.41796 1.10156 2.01953 1.60547 1.38281 2.83594 1.83594 4.4375.22266 4.4375 1 1.08203 2.65625 3.35547-2.65625 1.70312-4.4414.37891-4.4375-1.4414-2.0586-.64063-2.3789-3.02735-.47657-1.41015.46094-4.4375"/><path fill="#00b8fc" fill-rule="evenodd" d="M407.65234 453.69922l-1.23046-4.4375 3.8789-4.1914v1.44921l-2.53515 2.74219 1.6875 4.4375.84765 2.97265 1.4336-2.97265 1.71484-4.4375-3.14844-2.74219v-1.44922l4.4375 3.66797.2539.52344-.21874 4.4375 1.29297 4.4375 3.11328 3.375.83984 1.0625-.83984.53906-4.4414.46485-2.7422-1.00391-1.6953-1.89844-2.21095-2.53906-.4375-4.4375"/><path fill="#00a8fc" fill-rule="evenodd" d="M409.45313 453.69922l-1.6875-4.4375 2.53515-2.74219v1.45313l-1.1914 1.28906 1.1914 2.78125 1.48047-2.78125-1.48047-1.28906v-1.45313l3.14844 2.74219-1.71485 4.4375-1.43359 2.97265-.84765-2.97265"/><path fill="#009800" fill-rule="evenodd" d="M410.30078 452.04297l-1.1914-2.78125 1.1914-1.28906 1.48047 1.28906-1.48047 2.78125"/><path fill="#fff" fill-opacity="0" fill-rule="evenodd" d="M419.17969 448.03906l-.13672 1.22266.13672.22265 1.4375-.22265-1.4375-1.22266m4.4375 4.33594l-.20313 1.32422.20313.60937.39062-.60937-.39062-1.32422"/><path fill="#00d4fc" fill-rule="evenodd" d="M432.49219 457.1211l-3.33594-3.42188 3.33594-2.4336v1.57422l-1.17578.85938 1.17578 1.20703 1.28125-1.20703-1.28125-.85938v-1.57421l3.6211 2.43359-3.6211 3.42187"/><path fill="#00c4fc" fill-rule="evenodd" d="M432.49219 454.90625l-1.17578-1.20703 1.17578-.85938 1.28125.85938-1.28125 1.20703"/><path fill="#50fcfc" fill-rule="evenodd" d="M441.3711 478.61719l-3.02735-2.72656 3.02734-3.125v2.9453l-.17578.1797.17578.15625.16407-.15625-.16407-.1797v-2.9453l2.84766 3.125-2.84766 2.72656"/><path fill="#00e8fc" fill-rule="evenodd" d="M441.3711 476.04688l-.17579-.15625.17578-.1797.16407.1797-.16407.15625"/><g clip-path="url(#e)"><path fill="#fff" fill-opacity="0" fill-rule="evenodd" d="M467.9961 480.32813H468V311.67188h-.0039H468v168.65625h-.0039"/></g><path fill="#fff" fill-opacity="0" fill-rule="evenodd" d="M364.42969 426.8086l.91015-5.77344-9.83984-1.54688-.91016 5.76953 9.83985 1.55078"/><path fill-rule="evenodd" d="M356.94531 422.08594l.07813-.5039 6.21875.98046-.1211.77734-4.4375-.69921-.21484 1.37109-.54688-.08594.01954-.5625-.01172-.25781-.05469-.23828-.10547-.22266-.1836-.20703-.26562-.1836-.375-.16796"/><path fill="#fff" fill-opacity="0" fill-rule="evenodd" d="M403.95703 444.35547l5.61719-1.60156-2.73438-9.57813-5.61718 1.60156 2.73437 9.57813"/><path fill-rule="evenodd" d="M405.08984 435.58203l.4922-.14062 1.72655 6.05078-.7578.21875-1.23048-4.32031-1.33594.3828-.15234-.53515.51953-.21484.22656-.1211.19922-.14843.15625-.19141.10938-.25.05469-.32422-.00782-.40625"/><path fill="#fff" fill-opacity="0" fill-rule="evenodd" d="M373.64453 465.03906l1.53906 5.63672 9.60938-2.6211-1.53516-5.63671-9.61328 2.6211"/><path fill-rule="evenodd" d="M382.41016 466.27734l.1328.4922-6.07421 1.65624-.20703-.76172 4.33203-1.17969-.36328-1.33984.53515-.14844.21094.52344.11719.23047.14453.19922.1914.15625.25.11328.32032.0586h.41016"/><path fill="#fff" fill-opacity="0" fill-rule="evenodd" d="M391.64063 445.38281l1.5625-7.76953-9.9922-2.01172-1.5625 7.76953 9.9922 2.01172"/><path fill-rule="evenodd" d="M383.9336 441.30078l.64843-3.22265.72656.14843-.51953 2.58594 1.72266.58203-.11328-.2539-.07813-.29297-.02344-.33204.04297-.3828.09375-.3125.14844-.31641.21094-.29688.27344-.26172.33593-.21094.19532-.07812.20703-.0625.23047-.03516.24218-.01562.26563.01562.27734.04297.42969.1211.39063.18359.33984.2461.28515.30077.21875.35547.07813.19922.0586.21094.03515.22266.01172.23437-.01172.2461-.03906.26171-.1289.44922-.1797.3711-.22265.29687-.26563.22656-.30078.16407-.32422.10937-.35156.0586-.36328.01562.15625-.76953.24219-.03125.22265-.0625.20313-.08203.17969-.11328.15625-.14063.125-.16797.09765-.19531.0625-.22266.03906-.3125-.01562-.28906-.0664-.26562-.125-.23438-.17579-.20312-.23437-.17188-.28907-.13672-.34765-.09375-.26172-.03125-.26563.00781-.26562.05079-.2539.09765-.22657.14844-.19531.20703-.15625.26172-.10156.32813-.03125.33593.05078.29688.1328.30469.20313.35937-.13671.67969-3.26954-1.1289"/><g clip-path="url(#f)"><path fill="none" stroke="#000" stroke-linecap="round" stroke-linejoin="round" stroke-miterlimit="10" stroke-width=".5" d="M142.77734 483.6211l2.44532-6.58594"/></g><g clip-path="url(#g)"><path fill="none" stroke="#000" stroke-linecap="round" stroke-linejoin="round" stroke-miterlimit="10" stroke-width=".5" d="M156.88672 483.8164l.85547-6.97656"/></g><g clip-path="url(#h)"><path fill="none" stroke="#000" stroke-linecap="round" stroke-linejoin="round" stroke-miterlimit="10" stroke-width=".5" d="M169.67578 483.71094l1.90625-6.76563"/></g><g clip-path="url(#i)"><path fill="none" stroke="#000" stroke-linecap="round" stroke-linejoin="round" stroke-miterlimit="10" stroke-width=".5" d="M180.4375 480.50781l7.01563-.35937"/></g><g clip-path="url(#j)"><path fill="none" stroke="#000" stroke-linecap="round" stroke-linejoin="round" stroke-miterlimit="10" stroke-width=".5" d="M193.7461 480.2461l7.02734.16406"/></g><g clip-path="url(#k)"><path fill="none" stroke="#000" stroke-linecap="round" stroke-linejoin="round" stroke-miterlimit="10" stroke-width=".5" d="M194.76953 480.27344l-.55078-1.09766"/></g><g clip-path="url(#l)"><path fill="none" stroke="#000" stroke-linecap="round" stroke-linejoin="round" stroke-miterlimit="10" stroke-width=".5" d="M207.4961 478.63672l6.16015 3.38281"/></g><path fill="none" stroke="#000" stroke-linecap="round" stroke-linejoin="round" stroke-miterlimit="10" stroke-width=".5" d="M208.39063 479.1289l.01953-1.22656"/><g clip-path="url(#m)"><path fill="none" stroke="#000" stroke-linecap="round" stroke-linejoin="round" stroke-miterlimit="10" stroke-width=".5" d="M221.21094 478.05469l5.35937 4.54687"/></g><path fill="none" stroke="#000" stroke-linecap="round" stroke-linejoin="round" stroke-miterlimit="10" stroke-width=".5" d="M221.21094 478.05469l.52344-2.39453"/><g clip-path="url(#n)"><path fill="none" stroke="#000" stroke-linecap="round" stroke-linejoin="round" stroke-miterlimit="10" stroke-width=".5" d="M234.73438 477.82813l4.9414 5"/></g><path fill="none" stroke="#000" stroke-linecap="round" stroke-linejoin="round" stroke-miterlimit="10" stroke-width=".5" d="M234.73438 477.82813l.73437-2.33985"/><g clip-path="url(#o)"><path fill="none" stroke="#000" stroke-linecap="round" stroke-linejoin="round" stroke-miterlimit="10" stroke-width=".5" d="M248.04688 477.83203l4.9453 4.99219"/></g><path fill="none" stroke="#000" stroke-linecap="round" stroke-linejoin="round" stroke-miterlimit="10" stroke-width=".5" d="M248.04688 477.83203l.73046-2.34375"/><g clip-path="url(#p)"><path fill="none" stroke="#000" stroke-linecap="round" stroke-linejoin="round" stroke-miterlimit="10" stroke-width=".5" d="M261.2539 477.94531l5.16016 4.76953"/></g><path fill="none" stroke="#000" stroke-linecap="round" stroke-linejoin="round" stroke-miterlimit="10" stroke-width=".5" d="M261.2539 477.94531l.625-2.375"/><g clip-path="url(#q)"><path fill="none" stroke="#000" stroke-linecap="round" stroke-linejoin="round" stroke-miterlimit="10" stroke-width=".5" d="M274.46094 478.07031l5.3789 4.51563"/></g><path fill="none" stroke="#000" stroke-linecap="round" stroke-linejoin="round" stroke-miterlimit="10" stroke-width=".5" d="M274.46094 478.07031l.50781-2.40234"/><g clip-path="url(#r)"><path fill="none" stroke="#000" stroke-linecap="round" stroke-linejoin="round" stroke-miterlimit="10" stroke-width=".5" d="M287.39844 478.61719l6.13672 3.42187"/></g><path fill="none" stroke="#000" stroke-linecap="round" stroke-linejoin="round" stroke-miterlimit="10" stroke-width=".5" d="M287.39844 478.61719l.05078-2.45313"/><g clip-path="url(#s)"><path fill="none" stroke="#000" stroke-linecap="round" stroke-linejoin="round" stroke-miterlimit="10" stroke-width=".5" d="M300.58594 478.86719l6.39062 2.92578"/></g><path fill="none" stroke="#000" stroke-linecap="round" stroke-linejoin="round" stroke-miterlimit="10" stroke-width=".5" d="M300.58594 478.86719l-.14453-2.44922"/><g clip-path="url(#t)"><path fill="none" stroke="#000" stroke-linecap="round" stroke-linejoin="round" stroke-miterlimit="10" stroke-width=".5" d="M313.64453 479.66406l6.90235 1.32813"/></g><path fill="none" stroke="#000" stroke-linecap="round" stroke-linejoin="round" stroke-miterlimit="10" stroke-width=".5" d="M313.64453 479.66406l-.71875-2.34375"/><g clip-path="url(#u)"><path fill="none" stroke="#000" stroke-linecap="round" stroke-linejoin="round" stroke-miterlimit="10" stroke-width=".5" d="M326.89844 480.45313l7.02344-.25"/></g><g clip-path="url(#v)"><path fill="none" stroke="#000" stroke-linecap="round" stroke-linejoin="round" stroke-miterlimit="10" stroke-width=".5" d="M327.92188 480.41797l-.61329-1.0625"/></g><g clip-path="url(#w)"><path fill="none" stroke="#000" stroke-linecap="round" stroke-linejoin="round" stroke-miterlimit="10" stroke-width=".5" d="M340.67188 478.59375l6.10937 3.47266"/></g><path fill="none" stroke="#000" stroke-linecap="round" stroke-linejoin="round" stroke-miterlimit="10" stroke-width=".5" d="M341.5586 479.09766l.03515-1.22657"/><g clip-path="url(#x)"><path fill="none" stroke="#000" stroke-linecap="round" stroke-linejoin="round" stroke-miterlimit="10" stroke-width=".5" d="M354.7539 482.9961l4.57423-5.33204"/></g><g clip-path="url(#y)"><path fill="none" stroke="#000" stroke-linecap="round" stroke-linejoin="round" stroke-miterlimit="10" stroke-width=".5" d="M368.6211 483.38281l3.46874-6.10937"/></g><g clip-path="url(#z)"><path fill="none" stroke="#000" stroke-linecap="round" stroke-linejoin="round" stroke-miterlimit="10" stroke-width=".5" d="M380.1914 480.80469l6.96094-.95313"/></g><g clip-path="url(#A)"><path fill="none" stroke="#000" stroke-linecap="round" stroke-linejoin="round" stroke-miterlimit="10" stroke-width=".5" d="M381.20313 480.66797l-.71875-.9961"/></g><g clip-path="url(#B)"><path fill="none" stroke="#000" stroke-linecap="round" stroke-linejoin="round" stroke-miterlimit="10" stroke-width=".5" d="M395.52344 483.52344l2.92578-6.39063"/></g><g clip-path="url(#C)"><path fill="none" stroke="#000" stroke-linecap="round" stroke-linejoin="round" stroke-miterlimit="10" stroke-width=".5" d="M409.27344 483.6875l2.05469-6.71875"/></g><g clip-path="url(#D)"><path fill="none" stroke="#000" stroke-linecap="round" stroke-linejoin="round" stroke-miterlimit="10" stroke-width=".5" d="M421.26563 482.9414l4.70312-5.22265"/></g><g clip-path="url(#E)"><path fill="none" stroke="#000" stroke-linecap="round" stroke-linejoin="round" stroke-miterlimit="10" stroke-width=".5" d="M436.10156 483.74219l1.66016-6.82813"/></g><g clip-path="url(#F)"><path fill="none" stroke="#000" stroke-linecap="round" stroke-linejoin="round" stroke-miterlimit="10" stroke-width=".5" d="M448.54297 483.40234l3.40625-6.14843"/></g><g clip-path="url(#G)"><path fill="none" stroke="#000" stroke-linecap="round" stroke-linejoin="round" stroke-miterlimit="10" stroke-width=".5" d="M462.51953 483.6836l2.08594-6.71094"/></g><g clip-path="url(#H)"><path fill="none" stroke="#000" stroke-linecap="round" stroke-linejoin="round" stroke-miterlimit="10" stroke-width=".5" d="M141.26953 469.22266l5.46094-4.41797"/></g><path fill="none" stroke="#000" stroke-linecap="round" stroke-linejoin="round" stroke-miterlimit="10" stroke-width=".5" d="M154.48438 469.09766l5.66015-4.16797m-4.83594 3.5625l-1.10547-.53125m13.19922.44531l6.45313-2.78516M168.34375 468l-.95703-.76562m13.13672.5703l6.84375-1.58202m-5.84766 1.35156l-.80469-.92578m13.21485-.7539l6.66015 2.23827m-5.6914-1.91406l-.19922-1.21094m12.84766.22266l6.05468 3.5664m-6.05469-3.5664l.10938-2.45313m13.52734 1.9961l5.41407 4.48047m-5.41407-4.48047l.4961-2.40625m12.83594 2.38672l5.3789 4.51953m-5.3789-4.51953l.51171-2.40235m13.375 1.85938l4.23438 5.60547m-4.23438-5.60547l1.03516-2.22656m-.41797 3.04296l.51563-1.11328m12.02734.42188l4.54688 5.35547m-4.54688-5.35547l.90625-2.28125m-.2461 3.0586l.45313-1.14063m11.98047.5664l4.98828 4.94922m-4.98828-4.94922l.70703-2.34765m.01953 3.0664l.35157-1.17187m12.38671.3125l4.69141 5.23047m-4.6914-5.23047l.84374-2.30469m12.23047 2.53906l5.16797 4.76172m-4.41406-4.07031l.3086-1.1875m11.42968 2.03125l6.82031 1.6914m-5.82812-1.4453l-.30078-1.19141m12.55468 1.29687l6.95704.98828m-5.94532-.84375l-.41797-1.15625m12.73047.94922l6.9375 1.11328m-5.92968-.95312l-.39454-1.16016m14.83985 4.8086l2.66015-6.50391m-2.27343 5.5586l-1.21875.125m12.70312-.27735l5.54688-4.3086m-4.73828 3.6836l-1.1211-.5039m13.40235.80468l6-3.66016m7.92968 4.41016l4.76953-5.16016m8.92579 5.46485l4.0078-5.76953m-3.42577 4.92968l-1.21875-.14453m13.72656.8164l4.46094-5.43358m-3.8125 4.64062l-1.20313-.24219m14.51953 1.45703l3.15625-6.27734m-2.69531 5.36328l-1.22656.02735m13.17187.22656l4.98047-4.95703m-4.25781 4.23437l-1.17188-.35937m15.0625 1.91015l2.38282-6.61328m-2.38282 6.61328l-2.42968.34766"/><g clip-path="url(#I)"><path fill="none" stroke="#000" stroke-linecap="round" stroke-linejoin="round" stroke-miterlimit="10" stroke-width=".5" d="M141.07813 455.65234l5.84375-3.90625"/></g><path fill="none" stroke="#000" stroke-linecap="round" stroke-linejoin="round" stroke-miterlimit="10" stroke-width=".5" d="M154.32031 455.53906l5.98828-3.67969m-5.98828 3.6797l-2.11328-1.2422m14.92578-.26562l6.9961-.66797m-5.98047.57422l-.67578-1.02734m13 .26562l6.9453 1.04688m-5.9375-.89453l-.40624-1.15625m12.90234.27343l6.5664 2.50781m-5.60937-2.14453l-.15234-1.21484m12.60156.63672l6.38281 2.9375m-6.3828-2.9375l-.14063-2.44922m14.4336 1.1875l4.42577 5.46094m-4.42578-5.46094l.96094-2.25781m12.60937 2.07422l3.92188 5.82812m-3.92188-5.82812l1.15235-2.16797m12.71094 1.86328l2.8203 6.4375m-2.8203-6.4375l1.52343-1.92578m11.53516 2.05078l3.33594 6.1875m-3.33594-6.1875l1.35937-2.04297m12.07813 1.98047l3.08984 6.3125m-3.08984-6.3125l1.4414-1.98828m12.86329 1.67578l1.10937 6.9375m-.94531-5.92969l.97656-.73828m11.61328-.13281l2.23438 6.66406m-1.91016-5.69531l.84375-.89063m13.26563-.26172v7.02735m0-6.0039l1.08203-.57423m12.80469-.40234l-1.14844 6.9336m.98047-5.92188l1.16406-.39453m12.26953-.625l-1.04687 6.94922m14.85546-.10938l-2.03515-6.72656m1.73828 5.7461l-.8711.86718m15.89844-5.78516l-4.86328 5.07032m12.5-1.1875l6.48828-2.69922m-5.54297 2.30859l-.94921-.78125m14.14062 2.36719l4.84766-5.08985m7.86718 4.33203l6.05079-3.5703m-5.17188 3.05077l-1.04687-.64062m13.51562 1.21875l5.98047-3.6914m-5.98047 3.6914l-2.11719-1.23828m15.39063 1.16406l6.0664-3.54297m-6.0664 3.54297l-2.08985-1.28906m15.41016 1.30468l6.05469-3.5703m-6.05469 3.5703l-2.08984-1.28125m16.375 2.34375l4.11718-5.6953m-4.11718 5.6953l-2.4336-.33984"/><g clip-path="url(#J)"><path fill="none" stroke="#000" stroke-linecap="round" stroke-linejoin="round" stroke-miterlimit="10" stroke-width=".5" d="M141.03906 442.27734l5.92188-3.78515"/></g><path fill="none" stroke="#000" stroke-linecap="round" stroke-linejoin="round" stroke-miterlimit="10" stroke-width=".5" d="M154.13672 441.8789l6.35937-2.99218m-5.43359 2.5586l-.98438-.73829m13.08594-.90625l6.92969 1.16797m-5.92188-1l-.38671-1.16406m12.67968 1.09765l6.96094.96094m-5.94922-.82031l-.42187-1.15235m13.21094-.34375l5.98828 3.67188m-5.1172-3.13672l.07423-1.22656m14.39453-.84766l1.9375 6.7539m-1.65234-5.77343l.8789-.85156m13.29688-.26172l-.35157 7.01953m.30078-6l1.10938-.51953m12.89844-.41016l-1.63672 6.83594m1.39844-5.83984l1.1875-.3086m11.45312-.78125l.1875 7.02344m-.16016-6l1.06641-.60547m12.1836-.41797l.26562 7.02344m-.22656-6l1.0586-.61719m11.90624-.3789l.88672 6.96875m-.75781-5.95313l1.0039-.71093m14.51563.21875l-3.78125 5.92187m3.23047-5.0586l1.22656.09766m11.3711-1.45703l-1.2461 6.91406m1.0664-5.90625l1.16797-.375m12.85157-.49609l-2.29297 6.64453m1.95703-5.67969l1.21484-.1914m14.4336.97656l-6.28516 3.14063m18.30078-4.5586l-3.6875 5.98047m3.15235-5.11328l1.22265.08203m14.23828 1.39844l-6.91015 1.28515m5.90234-1.10156l.76563.96094m11.60546-3.67969l-3.0078 6.35156m2.5703-5.42578l1.22657-.0586m8.79297 5.02345l4.46093-5.4297m8.2461 4.78516l5.67578-4.14062m-4.85156 3.53906l-1.10157-.53906m14.08203 1.6836l4.69532-5.22657m-4.01172 4.46875l-1.1914-.29687m14.60155 1.58593l3.14063-6.28515m8.83203 5.10547l5.82422-3.9297m-4.97656 3.35938l-1.08594-.57812m14.76953 2.26172l3.39063-6.15625m-2.89454 5.26172l-1.23046-.01954m12.57421-.64843l6.33985-3.02735m-5.41797 2.58594l-.98438-.73047"/><g clip-path="url(#K)"><path fill="none" stroke="#000" stroke-linecap="round" stroke-linejoin="round" stroke-miterlimit="10" stroke-width=".5" d="M140.61719 428.01563l6.76562-1.89454"/></g><path fill="none" stroke="#000" stroke-linecap="round" stroke-linejoin="round" stroke-miterlimit="10" stroke-width=".5" d="M154.28125 428.83984l6.0664-3.54297m-5.18359 3.02735l-1.04297-.64453m13.8711 1.71093l5.27344-4.64453m-4.50391 3.96875l-1.14844-.43359m13.22266-2.84766l6.21875 3.26953m-5.3164-2.79296l-.00392-1.22657m15.71485-1.125l-.3789 7.01954m10.53905-5.39454l5.9297 3.76953m11.89843-5.03906l-3.09375 6.3086m2.64453-5.39063l1.22656-.03906m12.13672-1.04688l-2.29297 6.64454m1.96094-5.67579l1.21094-.1914m13.0625-.48828l-3.54688 6.0664m3.03125-5.1836l1.22657.05079m12.33593-1.07813l-3.0078 6.35547m2.5703-5.42968l1.22266-.0586m14.38281 1.26953l-6.71484 2.08203m5.73828-1.77734l.8711.86328m12.5-2.65625l-4.875 5.0625m4.16796-4.32812l1.17969.33594m12.86328-1.05079l-4.91406 5.01954m4.19922-4.28907l1.17578.34375M320 425.08984l-5.8086 3.95704m4.96094-3.38282l1.08985.57032m12.78125-1.51563l-5.22266 4.69922m4.46094-4.01563l1.15234.41797m13.23438-.70312l-5.84375 3.90234m4.99218-3.33594l1.08204.58204m13.65234.38671l-6.98047.83203m5.96484-.71093l.69922 1.00781m13.16407-2.5039l-6.04688 3.58202m15.72656 1.66797l1.22657-6.91797m-1.04688 5.91016l-1.16797.3789m12.41406-.36327l5.00391-4.9336m-4.27344 4.21875l-1.17187-.36718m14.16406 1.4375l4.1875-5.64454m-4.1875 5.64454l-2.42578-.3672m14.76953-.73827l6.13281-3.4297m-5.24218 2.9297l-1.03125-.66407m16.17187-4.04687l.69922 6.98828m-.59766-5.97266l1.01953-.67968m9.87891.86718l5.32813 4.58204m7.1875-2.87891l6.92968 1.17578m-5.92187-1.0039l-.38672-1.16407"/><g clip-path="url(#L)"><path fill="none" stroke="#000" stroke-linecap="round" stroke-linejoin="round" stroke-miterlimit="10" stroke-width=".5" d="M147.23438 412.375l-6.46875 2.7539"/></g><path fill="none" stroke="#000" stroke-linecap="round" stroke-linejoin="round" stroke-miterlimit="10" stroke-width=".5" d="M146.29297 412.77734l.95312.76953m13.57813.0586l-7.01953.29687m20.28125.48047l-6.91406-1.25781m19.36328 3.0039l-5.1797-4.75m4.42579 4.0586l-.3086 1.1875m12.92188.45312l-2.26953-6.64843m12.74219.2539l3.41406 6.14063m-2.91406-5.25l.66406-1.02735m16.72656 1.17579l-5.73437 4.0625m19.46875-3.27344l-6.57422 2.48437m6.57422-2.48437l1.84375 1.61719m11.32422-1.95313l-6.27735 3.15625m5.36328-2.69531l1 .70703m13.33594-.9375l-6.49219 2.69531m6.4922-2.69531l1.89452 1.5586m11.67188-.54688l-6.9961.67187m6.9961-.67187l1.35547 2.04297m11.36328-3.6914l-5.80078 3.96874m4.95703-3.39062l1.08594.5703m13.26171-.83593l-6.17968 3.34375m6.17968-3.34375l2.04297 1.35547m10.375-2.42969L314.90234 416.5m4.38672-5.49219l2.41016.45313m10.78906-.54297l-4.15234 5.67187m3.54687-4.84765l1.21485.17578m13.33203-.41016L341.02344 416m4.61719-3.83984l1.13671.46484m11.66797-2.08984l-2.8086 6.4375m2.40235-5.50391l1.22266-.09375m12.44922-.86328l-2.70703 6.48437m2.70703-6.48437l2.4414-.23047m12.92579 2.6211l-6.81641 1.70312m5.82812-1.45703l.82032.91015m6.94922-1.90625l6.2539 3.20313m-5.34375-2.73828l-.01953-1.22657m12.0586 1.98829l6.98437.75m-5.96875-.64063l-.45703-1.13672m16.27734-2.11328l-.05469 7.02734m.04688-6.0039l1.08594-.5664m12.1875-.45704l.04297 7.02734m-.04297-7.02734l2.16015-1.16406m9.875 1.41406l2.60157 6.52734m-2.60157-6.52734l1.58594-1.8711m10.23828 3l5.58203 4.26954m-5.58203-4.26953l.40235-2.41797"/><g clip-path="url(#M)"><path fill="none" stroke="#000" stroke-linecap="round" stroke-linejoin="round" stroke-miterlimit="10" stroke-width=".5" d="M146.4414 397.91016l-4.8828 5.05468"/></g><path fill="none" stroke="#000" stroke-linecap="round" stroke-linejoin="round" stroke-miterlimit="10" stroke-width=".5" d="M145.73047 398.64844l1.17969.33594M160.82813 400.5l-7.02735-.125m6.0039.10938l.5586 1.08984m12.6211 1.47265l-4.71094-5.21484m4.02734 4.45313l-.41797 1.15625m14.88281-.91016l-5.64062-4.1875m4.82031 3.57813l-.1836 1.21484m13.91798-5.2461l-4.83594 5.09766m14.42969-5.8125l2.60156 6.52735m-2.22266-5.57813l.79297-.9375m11.9414.07422l3.00782 6.35156m-2.57031-5.42578l.73047-.98438m16.91797 4.53125l-6.53125-2.59375m6.53125 2.59375l.26953 2.44141m13.2461-4.30078l-6.9375 1.1289m6.9375-1.1289l1.48437 1.95313m11.87109-1.23047l-7.01953-.32032m6 .27344l.52734 1.10938m13.8125-1.26563l-7.02734.08985m7.02734-.08985l1.17969 2.14844m-2.20313-2.13672l.58985 1.07422m13.08203-3.09766l-5.69531 4.11328m5.69531-4.11328l2.20313 1.08203m10.23046-1.9375l-3.92968 5.82422m3.92968-5.82422l2.44141.25782m9.79297-.7461l-1.76953 6.80078m1.76953-6.80078l2.38672-.57031m-2.64453 1.5586l1.1914-.28516m10.80469-.75l1.38281 6.89062m-1.38281-6.89062l1.89844-1.55469m10.78906 1.74219l2.63672 6.51562m-2.25-5.5664l.78515-.94141m13.28907-.25781l.34765 7.01953m-.29687-6l1.05469-.6289m11.38671-.25l1.9922 6.73827m-1.70313-5.7578l.8789-.85938m11.5547.11328l3.17968 6.26562m-2.71875-5.35156l.70703-1.0039m11.27734.71484l4.91797 5.01562m-4.20312-4.28515l.3711-1.17188m11.3789 1.77344l6.6211 2.35547m10.04687-4.6914l-.08594 7.02733m.07422-6.0039l1.08984-.5664m12.28125-.45704l-.17578 7.02344m.17578-7.02344l2.19531-1.09765M449.51954 397l1.45312 6.875M449.51953 397l1.88281-1.57422M449.73047 398l.9414-.78516m11.08985.20704l3.60156 6.03125m-3.60156-6.03125l1.26953-2.10157"/><g clip-path="url(#N)"><path fill="none" stroke="#000" stroke-linecap="round" stroke-linejoin="round" stroke-miterlimit="10" stroke-width=".5" d="M142.78906 383.82422l2.42188 6.59765"/></g><path fill="none" stroke="#000" stroke-linecap="round" stroke-linejoin="round" stroke-miterlimit="10" stroke-width=".5" d="M158.73047 390.33984l-2.83203-6.43359m15.61719 6.61719l-1.76954-6.80078m1.51172 5.8125l-.90234.82812m12.05078-6.39844l3.07813 6.31641m10.45703-6.41406l2.63672 6.51172m13.5625-6.40235l-3.12891 6.29297m3.1289-6.29297l2.45313-.0664m-2.91016.98437l1.22657-.03515m13.35937-.32032l-4.75781 5.16797m18.24219-.16406l-5.09766-4.83985m5.09766 4.83985l-.65625 2.36328m14.59765-3.28125l-6.35156-3.0039m6.35156 3.0039l.11719 2.44922m-1.03906-2.88672l.0586 1.22656m14.38671-3.24219l-6.76563 1.90235m6.76563-1.90235l1.69531 1.77344m-2.67969-1.4961l.84766.88673m13.4375-1.20703l-6.73828 1.98828m6.73828-1.98828l1.71875 1.7539m10.65625-3.30078l-4.85547 5.08203m4.14844-4.34375l1.17969.33203m11.86719-1.72656l-2.90625 6.39844m2.48437-5.46875l1.22266-.07813m12.07422-1.01953l-2.02735 6.73047m2.02735-6.73047l2.40625-.47656m-2.69922 1.45703l1.20312-.23828m12.83203-.58203l-2.8789 6.41015m2.8789-6.41015l2.44532-.16406m-2.8672 1.09765l1.22657-.08203m12.33203-.92578l-2.52344 6.5586m2.52344-6.5586l2.4375-.29688m10.26172.1211l-1.29297 6.91015m1.10547-5.90234l1.16797-.36719m13.72656-.04687l-4.07812 5.72265m3.48828-4.89062l1.21484.16016m12.66797-1.00782L381.65625 390m4.03125-5.7539l2.4375.30077m11.70313.51172l-5.6836 4.12891m5.6836-4.1289l2.20703 1.07812m11.1914-.96094l-5.84765 3.89453m4.99609-3.32812l1.07813.58203m11.21875-2.55078l-2.10938 6.70312m1.80078-5.73047l1.20703-.22265m9.23438-.19531l4.2539 5.58984m-3.63671-4.77735l.51171-1.11328m13.72266-.36718l1.17969 6.92578m-1.17969-6.92578l1.94531-1.5m12.1875 1.45703l-.45312 7.01172m.45312-7.01172l2.23438-1.00781m-2.30078 2.02734l1.11718-.5039"/><g clip-path="url(#O)"><path fill="none" stroke="#000" stroke-linecap="round" stroke-linejoin="round" stroke-miterlimit="10" stroke-width=".5" d="M140.65625 374.88281l6.6875-2.14844"/></g><path fill="none" stroke="#000" stroke-linecap="round" stroke-linejoin="round" stroke-miterlimit="10" stroke-width=".5" d="M154.90234 376.36328l4.82422-5.10937m-4.1211 4.36718l-1.18358-.32421m14.65234 1.66015l3.11328-6.30078m-2.66016 5.38672l-1.22656.03515m18.19531.14844l-5.10156-4.83594m4.35938 4.13282l-.32813 1.17969m15.23047-3.79688l-6.79297 1.80469m5.80469-1.54297l.83594.89844m11.3828-3.51954l-2.625 6.51954m2.625-6.51954l2.44142-.2578m12.26953 5.7578l-5.41407-4.47656m4.625 3.82422l-.24609 1.20313m13.91406-.10547l-4.53906-5.36719m4.53906 5.36719l-.91015 2.27734m15.13672-3.46875l-6.36329-2.98437m6.36328 2.98437l.1211 2.44922m13.0039-5.78125l-5.98437 3.67969m5.98438-3.67969l2.11718 1.23828m11.5664-.41797l-6.72265 2.03906m6.72266-2.03906l1.73437 1.73828m-2.71093-1.4414l.86328.86719m12.64453-2.53516l-5.15235 4.78125m5.15235-4.78125l2.3164.80469m-3.0664-.10938l1.15625.40235m11.2461-2.10157l-1.82813 6.78516m1.82812-6.78516l2.39063-.54687m8.74218.66406l2.53516 6.55469m-2.53516-6.55469l1.60547-1.85547m11.77344 1.83203l2.41016 6.60156m-2.41016-6.60156l1.64063-1.82422m11.0664 2.11329l3.6211 6.02343m-3.09375-5.14844l.6328-1.05078m13.22657-.24609l1.48047 6.86719m-1.26563-5.86719l.9375-.79297m10.28516.88281l5.23438 4.6875m-4.47266-4.0078l.29297-1.19142m12.28125.48829l5.19531 4.73046m-4.4414-4.03906l.30468-1.1914m15.01953-.64454l-.33203 7.01954m.33203-7.01954l2.21485-1.04687m12.76562 1.5586l-3.66015 6m3.66015-6l2.44922.14452m11.76953.64844l-5.46875 4.41406m4.67188-3.76953l1.1289.48047m12.0586-1.92969l-3.6211 6.02344m3.09375-5.14844l1.22657.06641m11.1328-1.42969l-.65234 6.9961m.65235-6.9961l2.26172-.9453m10.97656.9414l-.5 7.00781m.5-7.00781l2.24219-.9961"/><g clip-path="url(#P)"><path fill="none" stroke="#000" stroke-linecap="round" stroke-linejoin="round" stroke-miterlimit="10" stroke-width=".5" d="M140.5 360.8125l7-.63672"/></g><path fill="none" stroke="#000" stroke-linecap="round" stroke-linejoin="round" stroke-miterlimit="10" stroke-width=".5" d="M154.72656 362.8711l5.17578-4.75391m-5.17578 4.7539l-2.3125-.8164m3.0664.125l-1.15624-.41016m13.98437 1.35938l4.64453-5.27344m-4.64453 5.27344l-2.38672-.56641m18.51563 1.41016l-.98438-6.95704m.98438 6.95704l-1.98047 1.4453m14.92969-1.41405l-.2539-7.02344m.21874 6.0039l-1.0625.61329m17.40235-4.72657l-6.23438 3.2422m5.32813-2.76954l1.01172.69531m12.51171 3.0039l-4.83593-5.09765m4.83593 5.09766l-.78125 2.32422m.07813-3.0664l-.39063 1.16405m14.95703-1.08984l-5.93359-3.76563m5.9336 3.76563l-.1875 2.44922m14.04687-4.17969l-7.01953-.30078m7.01953.30078l1.0586 2.21094m12.17577-3.1211l-6.85937 1.51954m6.85938-1.51954l1.59375 1.86329m-2.58985-1.64454l.79688.9336m12.34375-3.08594l-4.51953 5.38281m4.51953-5.3828l2.39843.51171m-3.05468.27344l1.19922.2539m10.29296-1.85156L290.6875 364m-.4414-7.01172l2.08984-1.28906m-2.02735 2.3086l1.04688-.64454m11.64062-.29687l1.56641 6.85156m-1.5664-6.85156l1.85546-1.60547m-1.625 2.60547l.92578-.8047m12.19141-.19921l1.50781 6.86328m-1.50781-6.86328l1.86719-1.58984m11.08984 1.6875l2.22266 6.66796m-2.22266-6.66796l1.6914-1.77735m10.96876 2.07031l3.52734 6.07813m-3.01172-5.1914l.64844-1.04298M357.40234 357l-.72265 6.98828m.61718-5.97265l1.13672-.46094m13.875 5.85937l-3.90625-5.83984m17.23438 5.83203l-3.92969-5.82422m13.23828.05078l4.08203 5.71875m-3.48828-4.88672l.54688-1.09765m12.36328.14062l3.70312 5.97266m-3.16406-5.10547l.61719-1.0586m14.625-.28124l-1.22656 6.91796m1.04687-5.91406l1.16797-.375m12.14453-.65625l-.86328 6.97266m.73828-5.96094l1.14453-.4375m10.22656-.19531l3.27735 6.21484m-3.27735-6.21484l1.37891-2.03125m12.85547 1.69922l1.4375 6.8789m-1.4375-6.8789l1.88281-1.57031"/><g clip-path="url(#Q)"><path fill="none" stroke="#000" stroke-linecap="round" stroke-linejoin="round" stroke-miterlimit="10" stroke-width=".5" d="M141.04688 345.27344l5.90625 3.8125"/></g><path fill="none" stroke="#000" stroke-linecap="round" stroke-linejoin="round" stroke-miterlimit="10" stroke-width=".5" d="M154.16797 348.74219l6.29297-3.1289m-6.29297 3.1289l-1.9961-1.42578m16.34766 2.66796l4.22266-5.61328m-4.22266 5.61329l-2.42578-.37891m3.03906-.4375l-1.21094-.1914m15.69922 1.69921l.64844-6.9961m-.64844 6.9961l-2.26172.94922m16.20313-.94531l-.60156-7.0039m.51172 5.98437l-1.02735.66796m17.35547-4.54687l-6.44922 2.79297m6.44922-2.79297l1.91797 1.52734m10.42969 2.5625l-4.51563-5.3828m4.51563 5.3828l-.91797 2.27344m.26172-3.0586l-.91797 2.27735m15.67969-2.4375l-6.09766-3.4961m6.09766 3.4961l-.08203 2.45313m-.8047-2.96094l-.03905 1.22656m14.54296-1.41406l-6.70312-2.10547m6.70312 2.10547l.45313 2.41015m11.82031-6.10937l-4.6211 5.29297m4.6211-5.29297l2.39063.55469m8.76953-1.41797l-.3086 7.01953m.3086-7.01953l2.21484-1.05469m-2.26172 2.07422l1.10938-.52734m13.20312-.31641l-2.21093 6.66797m2.21093-6.66797l2.42188-.41016m11.25.54688l-2.92188 6.39453m2.92188-6.39453l2.44922-.14453m11.24609.35156l-3.6836 5.98047m3.6836-5.98047l2.44922.15625m10.28125-.44531l-2.51172 6.5625m2.51172-6.5625l2.4336-.30469m10.91406.3164l-2.57813 6.53516m2.20313-5.58594l1.21875-.13671m13.64453-.05079l-4.92578 5.01172m4.21093-4.28125l1.17578.34766m13.60938 2.83984l-6.4375-2.82421m6.4375 2.82421l.1836 2.44532m13.42187-4.00391l-7.01953.29297m7.01953-.29297l1.2461 2.11328m9.76562-5.26562l-2.41016 6.60156m2.0586-5.64063l1.21484-.17187m8.64453.15234l5.20703 4.71875m-5.20703-4.71875l.60156-2.3789m13.17969 1.94921l4.27344 5.57422m-4.27344-5.57421l1.01562-2.23438m12.4961 2.09375l3.8789 5.85547m-3.8789-5.85547l1.16797-2.15625m11.92578 2.3164l4.32422 5.53516m-4.32422-5.53515l.9961-2.2422m11.49609 3.15235l5.96875 3.71485m-5.96875-3.71485l.16796-2.44531"/><g clip-path="url(#R)"><path fill="none" stroke="#000" stroke-linecap="round" stroke-linejoin="round" stroke-miterlimit="10" stroke-width=".5" d="M142.14453 330.8789l3.71094 5.96876"/></g><path fill="none" stroke="#000" stroke-linecap="round" stroke-linejoin="round" stroke-miterlimit="10" stroke-width=".5" d="M153.8164 333.54688l6.9961.6328m8.82422 3.0547l1.98437-6.7422m-1.98437 6.7422l-2.40234.49218m16.77343-.35156l-.125-7.02344m.125 7.02344l-2.14453 1.1914m2.125-2.21093l-1.07031.59375m16.90625-.6836l-5.1289-4.80468m5.1289 4.80469l-.64063 2.36718m14.89844-4.57031l-7.01562-.39844m7.01562.39844l1.02734 2.22656m-2.04687-2.28515l1.02734 2.23046m12.63282-.29296l-5.66407-4.16016m5.66407 4.16016l-.35547 2.42968m-.46875-3.03125l-.35547 2.42579m14.98437-2.75782l-6.64453-2.28906m6.64453 2.28906l.38282 2.42188m-1.34766-2.7539l.1914 1.21093m14.19141-2.80469l-6.85156 1.5625m6.85156-1.5625l1.60547 1.85547m10.1875-4.02734l-3.80469 5.90625m3.8047-5.90625l2.4453.20312m-3 .65625l1.22266.10156m12.41406-1.10156l-3.33984 6.1836m3.33984-6.1836l2.45313.01953m-2.9375.88281l1.22656.00782m12.875-.72656l-3.94531 5.8164m3.94531-5.8164l2.4414.26562m11.39844.17188l-4.99218 4.9453m4.99218-4.9453l2.33985.72656m11.05078-.64453l-5.14453 4.78125m5.14453-4.78125l2.32031.80078m10.96484-.83594l-5.08593 4.84766m5.08593-4.84766l2.32813.77734m11.03125-.73046l-5.17578 4.7539m5.17578-4.7539l2.3164.8164m11.83594.77735l-6.84765 1.5703m6.84765-1.5703l1.60938 1.85156m11.65625-.09375l-6.75-1.94531m6.75 1.9453l.50781 2.40235m-1.48828-2.6836l.2539 1.19923m13.71485-3.63672l-6.09766 3.49219m6.09766-3.4922l2.07812 1.3047m-2.96484-.79688l1.03906.65234m12.50782-1.98828l-4.78516 5.14844m4.78516-5.14844l2.37109.63281m10.21094-1.15625l-3.32032 6.19532m3.32032-6.19531l2.45312.0078m8.40235-.33202l1.60156 6.84375m-1.60156-6.84375l1.84765-1.61329m10.10156 2.26563l4.32813 5.53906m-4.32813-5.53906l1-2.24219m-.36718 3.05078l.4961-1.12109m11.41015 1.16016l5.88281 3.83984m-5.88281-3.83984l.21875-2.44141m.63672 3l.10937-1.21875m11.9336 1.54688l6.71484 2.0703m-6.71485-2.0703l-.46093-2.41016m1.4375 2.71094l-.23047-1.20704"/><g clip-path="url(#S)"><path fill="none" stroke="#000" stroke-linecap="round" stroke-linejoin="round" stroke-miterlimit="10" stroke-width=".5" d="M146.23438 317.83594l-4.46875 5.42578"/></g><path fill="none" stroke="#000" stroke-linecap="round" stroke-linejoin="round" stroke-miterlimit="10" stroke-width=".5" d="M145.58203 318.625l1.20313.24219m14.0039 2.19922l-6.94922-1.03516m5.9375.88281l.41016 1.15625m11.97656 1.63672l-3.07031-6.32031m3.07031 6.32031l-1.44531 1.98438m1-2.90235l-.72266.99219m14.71485-.19531l-3.53125-6.07422m3.53125 6.07422l-1.29297 2.08594m.78125-2.97266l-.64844 1.04297m15.47656-1.03125l-5.53515-4.32422m5.53515 4.32422l-.42578 2.41797m-.3789-3.04688l-.42578 2.41406m15.28906-3.82812l-7.02344-.23828m7.02344.23828l1.07812 2.20312m-2.09765-2.23828l1.07812 2.20313m13.20313-1.65625l-6.91407-1.26172m6.91407 1.26172l.74609 2.33594m-1.7539-2.51954l.74609 2.33594m13.58594-3.35937l-6.9336 1.14843m6.9336-1.14843l1.49218 1.94921m-2.5-1.78125l1.48828 1.94922m12.4961-3.14453l-6.2539 3.20703m6.2539-3.20703l2.01172 1.40235m-2.92188-.9375l1.0039.70312m12.7422-1.8711l-5.30079 4.61329m5.30078-4.61328l2.29297.875m-3.0625-.20313l1.14453.4375M279.75 318.1836l-5.19922 4.72657m5.19922-4.72657l2.3086.82813m-3.06641-.14063l1.15625.41407m12.67968-1.33985l-4.72265 5.20703m4.72265-5.20703l2.375.60156m-3.0625.15625l1.1875.30079m12.75782-1.10547l-4.60938 5.30078m4.60938-5.30078l2.39062.55078m11.41016-.03516l-5.58203 4.26953m5.58203-4.26953l2.23047 1.01953m11.66406.1211l-6.74219 1.98828m6.74219-1.98828l1.71875 1.75m11.48047-2.07813l-6.50781 2.64453m6.5078-2.64453l1.88282 1.57422m11.52344-1.32422l-6.6914 2.14063m6.6914-2.14063l1.75781 1.71485m11.72656-.64454h-7.02734m7.02734 0l1.15235 2.16797m11.9414-3.38671l-6.58984 2.4414m6.58984-2.4414l1.83204 1.6289m-2.78907-1.27344l.91406.8125m13.20313-1.53125l-6.27734 3.16407m6.27734-3.16407l2.0039 1.41797m-2.91796-.95703l1 .70703M412.5 317.8086l-4.39844 5.48047M412.5 317.8086l2.41016.45313m-3.05079.34375l1.20704.22656m10.7578-1.79297l-.41796 7.01563m.41797-7.01563l2.23047-1.01953m-2.28906 2.04297l2.23046-1.02344m9.1797.46485l3.51171 6.08984m-3.51172-6.08984l1.30469-2.07813m17.27344 4.88281l-7.01172.47657m7.01172-.47657l1.29296 2.08204m-2.3164-2.01172l.64844 1.04296m13.01953-2.94921l-5.67188 4.14843"/><g clip-path="url(#T)"><path fill="none" stroke="#000" stroke-linecap="round" stroke-linejoin="round" stroke-miterlimit="10" stroke-width=".5" d="M466.39844 318.47266l2.20703 1.0703"/></g><g clip-path="url(#U)"><path fill="none" stroke="#000" stroke-linecap="round" stroke-linejoin="round" stroke-miterlimit="10" stroke-width=".5" d="M465.57422 319.07813l2.20703 1.0664"/></g><path fill="#00f" fill-rule="evenodd" d="M397.11719 467.64844h8.61719V457.5039h-8.6172v10.14453"/><path fill="azure" fill-rule="evenodd" d="M398.94922 459.33594h.83203v2.82422h3.28516v-2.82422h.83593v6.48047h-.83593v-2.91797h-3.28516v2.91797h-.83203v-6.48047"/><path fill="#ff3030" fill-rule="evenodd" d="M198.08203 441.01953h7.69531V430.8711h-7.6953v10.14844"/><path fill="azure" fill-rule="evenodd" d="M199.91797 432.70703h.83203v5.73828h3.19531v.73828h-4.02734v-6.47656"/><path fill="#00f" fill-rule="evenodd" d="M388.23828 436.57813h8.61719v-10.14454h-8.61719v10.14454"/><path fill="azure" fill-rule="evenodd" d="M390.07031 428.26563h.83594v2.82421h3.28516v-2.82421h.83203v6.48046h-.83203v-2.91406h-3.28516v2.91406h-.83594v-6.48046"/><path fill="#ff3030" fill-rule="evenodd" d="M317.91797 432.14063h7.69531v-10.14454h-7.69531v10.14454"/><path fill="azure" fill-rule="evenodd" d="M319.7539 423.82813h.83204v5.73828h3.1914v.74218h-4.02343v-6.48046"/><path fill="#00f" fill-rule="evenodd" d="M224.01953 414.38672h8.61719v-10.14453h-8.61719v10.14453"/><path fill="azure" fill-rule="evenodd" d="M225.85156 406.07422h.83594v2.82422h3.28516v-2.82422h.83203v6.48047h-.83203v-2.91406h-3.28516v2.91406h-.83594v-6.48047"/><path fill="#ff3030" fill-rule="evenodd" d="M335.67188 378.88281h7.6953v-10.14844h-7.6953v10.14844"/><path fill="azure" fill-rule="evenodd" d="M337.5039 370.5664h.83594v5.7422h3.19141v.73827h-4.02734v-6.48046"/><path fill="#ff3030" fill-rule="evenodd" d="M211.39844 356.6875h7.6914v-10.14453h-7.6914v10.14453"/><path fill="azure" fill-rule="evenodd" d="M213.23047 348.375h.83594v5.74219h3.1914v.73828h-4.02734V348.375"/><path fill="#ffffe0" fill-rule="evenodd" d="M432.28906 467.8789h22.17969v-10.1914h-22.17969v10.1914"/><path fill-rule="evenodd" d="M435.78906 459.51953h.50781v6.29688h-.78906v-4.4922h-1.38672v-.55468l.5586-.0625.2539-.05469.23047-.08984.20313-.14063.17187-.21093.14063-.29688.10937-.39453m4.8125 0l.23047.01953.21875.05469.20703.08984.19531.1211.1836.14844.17187.17578.30079.42187.24609.49219.17969.54687.10937.57813.03906.59375-.03906.59375-.10937.58203-.1797.55469-.24608.5-.30079.42969-.17187.17968-.1836.15235-.1953.125-.20704.08984-.21875.0586-.23047.01952-.23047-.01953-.21875-.05859-.20703-.08984-.19531-.125-.1875-.15235-.16797-.17969-.30469-.42968-.24218-.5-.1797-.55469-.11327-.58203-.03516-.59375h.83203l.02735.5625.08203.5039.1289.44532.16016.375.1914.30078.21094.21875.22266.13672.22656.04687.22656-.04687.22266-.13672.21094-.21875.1914-.30078.16016-.375.125-.44531.08203-.50391.03125-.5625-.03125-.5625-.08203-.5-.125-.4375-.16015-.36328-.19141-.29297-.21094-.21485-.22265-.1328-.22657-.04298-.22656.04297-.22266.13281-.21093.21485-.19141.29297-.16016.36328-.1289.4375-.08203.5-.02735.5625h-.83203l.03516-.59375.11328-.57813.17969-.54687.24218-.49219.3047-.42187.16796-.17579.1875-.14843.19531-.1211.20703-.08984.21875-.05469.23047-.01953m5.08985 0h.51171v6.29688h-.78906v-4.4922h-1.38672v-.55468l.5586-.0625.2539-.05469.22657-.08984.20312-.14063.17578-.21093.14063-.29688.10547-.39453m2.82421 2.17578h.78907l.01953-.3164.0586-.28516.09765-.2539.14062-.21485.1797-.17188.22265-.1289.26562-.08203.3086-.02735.23828.01954.22265.0625.20704.10156.17968.14062.14844.17188.11328.20703.07031.23437.02344.26563-.01953.26953-.0664.22266-.10938.1914-.15625.17188-.19922.16406-.25.16406-.63281.39063-.53516.3125-.4414.3164-.34375.32422-.26563.33594-.1875.35156-.125.3711-.07031.39062-.01953.42188h4.21093v-.7422h-3.33203l.08203-.28515.11329-.23437.14843-.20313.1875-.17969.23047-.17187.27735-.17578.71875-.41406.41406-.20704.34765-.23046.28125-.25.21875-.26954.16407-.27734.10937-.28515.0625-.28516.02344-.28125-.04297-.38281-.1211-.34766-.1875-.3086-.25-.26171-.30468-.21094-.34375-.16016-.38281-.09765-.40625-.03516-.4336.03516-.39844.09765-.35546.16407-.3047.23828-.24608.30078-.1875.375-.1172.44531-.03906.51953"/><path fill="#ffffe0" fill-rule="evenodd" d="M199.71484 334.3711h22.1836v-10.19141h-22.1836v10.1914"/><path fill-rule="evenodd" d="M203.21484 326.01172h.51172v6.29687h-.78906v-4.49218h-1.38672v-.5547l.5586-.0625.2539-.05468.22656-.08984.20313-.14063.17578-.21094.14063-.29687.10546-.39453m4.81641 0l.22656.01953.21875.05469.21094.08984.19531.1211.1836.15234.17187.17187.30078.42188.24219.49219.17969.54687.11328.57813.03906.59375-.03906.59375-.11328.58203-.17969.55469-.24219.5-.30078.42968-.17187.17969-.1836.15234-.19531.125-.21094.08985-.21875.0586-.22656.01952-.23047-.01953-.21875-.0586-.20703-.08984-.19922-.125-.1836-.15234-.17187-.17969-.30078-.42969-.24219-.5-.17968-.55468-.11328-.58203-.03907-.59375h.83594l.02734.5625.08203.5039.125.44531.16407.375.1914.30079.21094.21875.22266.13671.22656.04688.22656-.04688.22266-.13671.21094-.21875.1875-.30079.16406-.375.125-.4453.08203-.50391.03125-.5625-.03125-.5625-.08203-.5-.125-.4375-.16406-.36329-.1875-.29296-.21094-.21485-.22266-.13281-.22656-.04297-.22656.04297-.22266.13281-.21094.21485-.1914.29296-.16406.36329-.125.4375-.08204.5-.02734.5625h-.83594l.03906-.59375.11329-.57813.17968-.54687.2422-.4922.30077-.42187.17188-.17187.1836-.15235.19921-.12109.20703-.08984.21875-.05469.23047-.01953m5.08984 0h.50782v6.29687h-.78516v-4.49218h-1.39063v-.5547l.5625-.0625.25-.05468.23047-.08984.20313-.14063.17578-.21094.14063-.29687.10546-.39453m2.82422 2.17578h.78516l.01953-.3164.0586-.28516.10156-.2539.14062-.21485.17969-.17188.22266-.1289.26562-.08204.3086-.02734.23827.01953.22266.0625.20313.10156.17968.14063.14844.17188.11328.20703.07422.23437.02344.26563-.02344.26953-.0625.22265-.11328.19141-.15234.17188-.20313.16406-.2461.16406-.6328.39063-.53907.3125-.4375.3164-.34765.32422-.26172.33594-.1914.35156-.125.3711-.06642.39062-.02343.42187h4.21484v-.74218h-3.33594l.08594-.28516.11328-.23438.14844-.20312.1875-.17969.23047-.17187.27734-.17578.71875-.41407.41406-.20703.34375-.23047.28125-.25.22266-.26953.16016-.27734.11328-.28516.0625-.28515.01953-.28125-.03906-.38282-.1211-.34765-.1914-.3086-.25-.26171-.30078-.21094-.34766-.16016-.3789-.09765-.40626-.03516-.43359.03515-.39844.09766-.35547.16797-.30468.23438-.25.30078-.1836.375-.11719.4453-.03906.51954"/></g></defs><use xlink:href="#V"/></svg>