<svg xmlns="http://www.w3.org/2000/svg" role="img" xmlns:xlink="http://www.w3.org/1999/xlink" viewBox="142.45 309.95 326.84 171.84"><defs><clipPath id="a"><path d="M144 443h1v37.32813h-1zm0 0"/></clipPath><clipPath id="b"><path d="M144 311.67188h1V428h-1zm0 0"/></clipPath><clipPath id="c"><path d="M144 311.67188h324v168.65625H144zm0 0"/></clipPath><clipPath id="d"><path d="M467 311.67188h1v168.65625h-1zm0 0"/></clipPath><clipPath id="e"><path d="M144 476h2v4.32813h-2zm0 0"/></clipPath><clipPath id="f"><path d="M156 476h3v4.32813h-3zm0 0"/></clipPath><clipPath id="g"><path d="M169 476h3v4.32813h-3zm0 0"/></clipPath><clipPath id="h"><path d="M180 479h8v1.32813h-8zm0 0"/></clipPath><clipPath id="i"><path d="M193 479h9v1.32813h-9zm0 0"/></clipPath><clipPath id="j"><path d="M193 479h3v1.32813h-3zm0 0"/></clipPath><clipPath id="k"><path d="M207 478h8v2.32813h-8zm0 0"/></clipPath><clipPath id="l"><path d="M220 477h7v3.32813h-7zm0 0"/></clipPath><clipPath id="m"><path d="M234 477h6v3.32813h-6zm0 0"/></clipPath><clipPath id="n"><path d="M247 477h7v3.32813h-7zm0 0"/></clipPath><clipPath id="o"><path d="M260 477h7v3.32813h-7zm0 0"/></clipPath><clipPath id="p"><path d="M274 477h7v3.32813h-7zm0 0"/></clipPath><clipPath id="q"><path d="M287 478h7v2.32813h-7zm0 0"/></clipPath><clipPath id="r"><path d="M300 478h8v2.32813h-8zm0 0"/></clipPath><clipPath id="s"><path d="M313 479h8v1.32813h-8zm0 0"/></clipPath><clipPath id="t"><path d="M326 480h9v.32813h-9zm0 0"/></clipPath><clipPath id="u"><path d="M327 478h2v2.32813h-2zm0 0"/></clipPath><clipPath id="v"><path d="M340 478h7v2.32813h-7zm0 0"/></clipPath><clipPath id="w"><path d="M354 477h6v3.32813h-6zm0 0"/></clipPath><clipPath id="x"><path d="M367 477h6v3.32813h-6zm0 0"/></clipPath><clipPath id="y"><path d="M379 479h9v1.32813h-9zm0 0"/></clipPath><clipPath id="z"><path d="M380 478h2v2.32813h-2zm0 0"/></clipPath><clipPath id="A"><path d="M395 476h4v4.32813h-4zm0 0"/></clipPath><clipPath id="B"><path d="M409 476h3v4.32813h-3zm0 0"/></clipPath><clipPath id="C"><path d="M421 477h6v3.32813h-6zm0 0"/></clipPath><clipPath id="D"><path d="M436 476h2v4.32813h-2zm0 0"/></clipPath><clipPath id="E"><path d="M448 477h5v3.32813h-5zm0 0"/></clipPath><clipPath id="F"><path d="M461 476h5v4.32813h-5zm0 0"/></clipPath><clipPath id="G"><path d="M144 464h3v6h-3zm0 0"/></clipPath><clipPath id="H"><path d="M144 451h4v5h-4zm0 0"/></clipPath><clipPath id="I"><path d="M144 439h4v3h-4zm0 0"/></clipPath><clipPath id="J"><path d="M144 426h4v3h-4zm0 0"/></clipPath><clipPath id="K"><path d="M144 411h4v5h-4zm0 0"/></clipPath><clipPath id="L"><path d="M144 397h3v7h-3zm0 0"/></clipPath><clipPath id="M"><path d="M144 383h2v8h-2zm0 0"/></clipPath><clipPath id="N"><path d="M144 372h4v3h-4zm0 0"/></clipPath><clipPath id="O"><path d="M144 360h4v1h-4zm0 0"/></clipPath><clipPath id="P"><path d="M144 344h4v6h-4zm0 0"/></clipPath><clipPath id="Q"><path d="M144 330h3v8h-3zm0 0"/></clipPath><clipPath id="R"><path d="M144 316h1v9h-1zm0 0"/></clipPath><clipPath id="S"><path d="M466 318h2v2h-2zm0 0"/></clipPath><clipPath id="T"><path d="M465 318h3v3h-3zm0 0"/></clipPath><g id="U" clip-path="url(#clip1)"><path fill="#fff" fill-opacity="0" fill-rule="evenodd" d="M0 0h1000v1000H0zm0 0"/><path fill="#d3d3d3" fill-opacity="0" fill-rule="evenodd" d="M162.15234 355.86719l-.23437.29297.0586.23437.11718.17188.17578.23437.29297.34766.11328.0586.11719-.17188.0586-.23438.17577-.17578.46485-.17578h.69922l.23437.29297.28906.8164.0586.17579.17578.23046.35156.23438.69922.69922.17188.17578.23437.34765.23438.41016.28906.58203.41015.46485.23047.23437.23438.17578.11719.23047.17578.29297.17187 1.16406v.23438l.0586.28906.05859.11719.11719.11719.34765.41015.11719.17188.17578.17578.17578.23437.11719.17188.17188.35156.05859.23438.23437.40625.23438-.0586-.17578.17578-.0586.92969h-.58203l-.23437-.11328-.34766.11328-.11719.11719-.05859.29297-.0586.17578-.11718.17187-.46484.29297-.0586.23438-.0586.11328v.64453l.0586.17187v.41016l.0586.0586v.40624l.05859.40625.11719.17579.05859.05859.23047.64062-.0586.29297v.69922l-.05859.58203v.23438l-.0586.23047-.05468.35156v1.92187l.05469.1172h.42578l-.36719.11718-.02344.35156.89063 1.16797 1.74219.53906 1.33984.35938v.53906l.08984.8086.53516.71484 1.51953.26953.89063-.08594.08984 1.16406.53516.1797 1.16015-.1797 2.05469-.98437 1.16016-.36328 1.8789-.17578 1.69531-.1797-.17968.71876-1.51563.08594-1.25.08984-.80469.26953-1.07421.8086.26953.71875.53515.89843-.17968.625-.26563.8086.26563 1.07812.625.89844.80468.17969 1.25-.1797-.26562.72267.09766.5039.05468.29297v.17188l.0586.29296v.40625l.17578.1172.35156.11718h.40625l.29297-.17578.11328-.11719.0586-.11719.11718-.23047.0586-.17578.35156-.46484.23047-.17578.17578-.0586.17578.0586.0586.17578.11718.98828.05469.46875.0586.17188.11718.23437.17578.0586.8164.05859h.28907l.11719.23437.05859.40625.0586.35156v1.10547l.11718.29297.11719.34766.28906.69922.17578.35156.58203.7539.35157.17579.17187.0586.46875.23437.64063.46484.34765.23438.29297.17578.29297.05468.23047.0625.8164.34766.29297.17578.11328.17188.35157.35156.11719.17578.52343.64063v.28906l.0586.35156v.34766l.05859.35156.0586.28906.11718.0586.17188.05859h.17578l.58203.23437.17578.1172.17578.28905.17578.23438.11328.23437.29297.23047.11719.11719v.41016l.0586.05468.28906.23438.23437.11719.0586.11718.11718.17188.0586.11719.23047.23437.05859.17578.23437.0586.1172.05859-.1172.11328-.05859.11719v.11719l-.11719.29296-.11719.28907v.58203l.17579.11719.11718.05859.0586.11719.11719.11719.11328.05859.17578.34765.0586.35157.05858.40625v.17578l-.05859.17578-.11719.69922v.17187l.1172.17579.29296.29296h.40625l.17578.1172.11719.17187.11719.29296v.23438h-.52735l-.23047-.23438h-.23437l-.17578.0586-.0586.69922.0586.34765.11719.17579.17578.41015.11718.23047.28907.46875.17578.05469h.52344l.23437.0586.75781.64062.0586.29296v.23438l.05859.0586.23047.34765v.35156l-.11719.17188v.29297l.29297.28906.29297.17578.17187.0586.29297.17577.29297.1172.58203.40624.28906.23438.29297.17578.21875.16015.01563.01172.23047.17579.64062.52343.17578.23438.1172.17578.17577.17578.11328.17188v.64062l.1172.17578.46874.11719.58203.11719.23438.05859.23047.11328.29297.11719.11328.0586.58593.35156.28907.17187.17578.0625.17578.05469.17578.0586.69922.35155.28906.17579.23438.05468.28906.17578.23437.1172.64063.40624.29297.11719.17187.0586.23438.05859.41015.05859.23047.0586.23438.11718.0586.17188-.41017.17578.46875.0586.0586.29296.11328.23438.17578.05468.23438.0586.17578.05859.40625.11719.64062.23437.11719.17188.0586.23437v.17578l-.0586.1172-.0586.40624.23438.23438.11719.05859.34766.11719.64062.23047.17578.11718.28906.1172.17578.17577.23438.46485.58203 1.10546.17578.17579.34766.17578.17578.11719.35156.11718 1.04688.52344.23437.0586.46485.11327.29297.0586.46484.17578.75781.58203.23438.23438.34765.46484.17578.17578.28907.23438.8164.69921.29297.17579.28906.28906.29297.17578.29297.28906.69531.64063.17578.17578.29297.23437.28907.23438.46875.28906.64062.58203.34766.23438.23437.29297.34766.34765.35156.46485.9336.99218.34765.40625.11719.17579.23437.05859.11328.11719.64454.17578.23047.11328.23437.0586.29297.17577.23047.1172.9336.69921.40624.40625.23438.17578.40625.17578.23437.11719.8164.34766.34766.23437.23438.11719.29297.28906.23047.11719.7578.35156.35157.17188.23047.05859.29297.11719.23437.0586.8711.17577h.8164l.46875.23047.17188.0586.875.69921.46484.1172.29297.05858.17578.0586.23047.0586.46875.05859.34766.05859.35156.0586.40625.05859h.29297l.17187.0586v.23046l.17578.17578h.29297l.34766.0586.35156.05859.69922.11719h.64063l.46484-.23438.29297-.17578.17187-.11719.41016-.17187.28906-.17578.9336-.46485.46875-.29297.52343-.29296.46485-.17188.46484-.17578 1.05078-.46485.28906-.11718.41016-.11719.28906-.11719.52735-.17578 1.51562-.69922.58203-.34765.28907-.0586.29297-.0586.34765-.11718.875-.23047.35156-.11719h.11329l.23437-.05859.875-.23437.23438-.0586h.8125l.35156-.0586.8164-.11718.17188-.0586.35156-.05468.29297-.0586.23047-.05859.8164-.17578.17579-.0586h.34765l.23438-.05859.46484-.11718.75781-.17188.23438-.0586h.34765l.41016-.11718.28906-.0586 1.28516-.05859h.28906l.41016-.0586.23047-.05858h.17578l.875-.1172h.40625l.41015-.11718h.34766l.35156-.11328.8711-.0586h1.75l1.04687.28907.41016.11719.28906.11718.35156.11719.28907.11719 1.05078.17187.28906.0586h.29297l.29297.05859.17187.0586.41016.05859.17187.0586.1172.05858h.11718l.11719.0586.35156.0586h.11328l.41016.0664 1.92187.39453 1.92578.39453 1.51953.44922 1.69532.71875 2.14453.80469 1.60547-.71875 1.42968-.80469 1.16016-1.07813 1.25-.44921 3.03516-.71875 1.875-.35938 2.14453-1.34765 2.23437-1.25391 2.5-1.25781 1.69531-.44922 1.78516-.17969 1.16016-.26953.625.53906 1.33984-.26953.71485-.98828.98437-1.34375.44531-.17969.80469-.35937 1.875-.53907 1.78516-.44921 1.25-.26954 1.16015-.08984 1.69922-.08984 1.96094-.26954 1.25-.08984h.53906l.625-.08984h.89063l2.14453-.17969 2.41015-.17969 2.58985-.08984 1.69531.17969 1.60938.08984 1.42968.35938 1.16016.71875 1.875.98828 1.16015 1.52734.26563.71484.6289.08985.35548.89844.53515.53906.53516 1.52734 1.07422.35938h.53515l-.80469.53515.08985 1.70703.71484 2.69532.89063.80468.89453.98829.71484 1.2578 1.78516.53907 1.51953-.17969.35547 1.34375 1.60937-.80469.98047-.53906.26953.26953.31641-.21484.21875-.14453.80078.44922.44922-.35938h.35547l.53515-.26953.53907-.71875.53515-.26953.625-.98828 1.16016.44922.83984.3711 1.39454.61718 1.6953-.17969h1.60548l1.78515.08985.17969-1.70704.53516-1.34375.80468.26954.4922.84765.40233.40625-.08984.53906v.35938l.71485.44922.71093-.26953h1.42969l.35938.98828.4453 1.25781.71485 1.34375 1.25.6289 1.69531.62891.71485-.17969.17969-.53906.98046-.08984.44922.35937.08594 1.25782-.26563.6289-.53515.17969v.53906l.71484.98438.26563.53906.98437.98828.80078 1.07813-.26562.35937-.08985.89844-.625 2.33203-.35546 2.0664-.08985 1.79298-.17969.71875-.08984.53906v1.4375l-.98047 1.88281-.35937 1.70703-.53516.89844-.80469 1.16797-.26562.53906 2.05469 1.2539.08593.35938-.35546.53906-.08985-.17968v.80859l.08985 1.4375-.44532.71484-1.07422.09375-.26562.71485.53515.89844.8047.71875 1.16015.80859 1.33984.26953.44531.35938-.35546.44921-1.78907-.08984-1.25-.44922-.71484-.71875-.625-.08984-.17578 3.58984-.1875 1.3086h89.35937V311.70313h-55.26953v49.08203l.76172.125 3.28906.54296 2.02344 2.83594v2.7539l2.35156.33204 2.34766.33203h4.05078l-1.3789 4.16016-2.02344.70703-2.02344.70312-.54297.34375-2.59375 1.6172-.1875.11718-2.02344-2.07813-.73046-2.74218-2.67188-2.07813-1.375-3.5-.0664-.08203-1.95704-2.67188 2.75-1.41796v-49.08204H294.42187v91.41407l.1172.03125.1328.01172.07422.07421.10547.04688.08985.0586.08593.05859.08985.0586.29687.29687.0586.08984.03125.11719.02734.11719.01563.13671-.03125.1172-.0586.08983-.0586.08594-.04296.10547-.04688.10156-.02734.1211v.14453l.17578.26953.14844.14844.07422.08594.07422.07421.04296.10547.0625.08985.0586.08593.04297.10547.0586.08985.04687.10156.04296.10547.0586.08594.11719.17968.07421.07422.0625.08594.0586.08984.04297.10547.0586.08985.05858.08593.0625.08985.0586.08984.04297.10156.11719.17969.07421.07422.0586.08594.07422.07421.08984.0586.10547.04687h.14844l.1328-.01562.13282.01562.10156-.04687.07422-.07422.04688-.10156-.01563-.13281v-.14844l-.04687-.10547-.02735-.11719-.04687-.10156-.02735-.1211-.04296-.10156-.0625-.08984-.04297-.10156-.04297-.10547-.03125-.11719-.01563-.13281-.01171-.13672.08593-.0586.0586-.08593.12109-.03125.04297.10547.01562.1328v.1172l.0586.10156.0586.08984.08983.0586.14844.14843.0586.08985.04296.10547-.01171.10156.08593.0586.10547.04687.08594.0586.08984.05858.07422.07422-.11719.02735-.10546.04687-.08594.0586-.07422.07421-.0586.08985-.0625.08594-.02734.12109-.04687.10156-.04297.10547-.03125.11719-.01172.13281-.01563.13281v.14844l.02735.11719.04687.10547.04297.10156.0586.08984.07421.07422.08985.0586.07422.07421.08984.0586.0586.08984.04296.10547.04688.10156.11719.03125.1328.01563h.14845l.11718-.03125.10547.04297.04297.10547.04688.10156.02734.1211L299.5 410l.02734.11719.03125.1211.02735.11718.10547.04297.10156.04687.13281-.01562.14844.14844.0625.08593.07422.07422.07031.07422.08984.0625.10547.04297.10156.04297.1172.03125.13671.01562.11719-.03125.07422-.07422.02734-.11718-.01172-.13282-.03125-.12109-.02734-.11719.04297-.10547h.11719l.08984.0625.11719.02735h.14843l.13282.01562h.14843l.13282.01563.1328-.01563h.14845l.1328-.01562.13282-.01172.13672.01172.11719-.02735.13281-.01562.1914-.0586-.05859.17579-.01562.1328-.02735.1211-.01562.13281-.0586.08594-.1328.01563-.10548.04687-.10546.04297-.1172.03125-.11718.02735-.26563.03125h-.14843l-.13281.01562-.07422.07422.05859.08594.14844.14843.11719.1797.07421.0703.08985.0625.08984.0586.08594.0586.08984.05858.10156.04297.10547.0625.10547.04297.08594.0586.10547.04687.10156.04297.17969.11719.0586.08984-.04298.10156-.04687.10547.01562.13281.22266.22266.0586.08985.04296.10156.03125.1211.04297.10155.01563.13282.03125.11718.01171.13672.03125.11719.14844.14844.10156.04297.10547.04296.1172.03125.1328.01563.13672.01563h.11719l.11719-.03125.08984-.0586.04297-.10547.04688-.10156.04296-.10547.03125-.11719.01172-.1328v-.14845l-.01172-.1328-.01562-.13282-.03125-.11719-.04297-.10547-.04688-.10547-.04296-.10156-.04297-.10547-.01563-.13281.01563-.13281.02734-.11719.03125-.11719.02735-.1211.04687-.10155.08984-.0586.08594-.0625.07422-.07422.08984-.05859.22266-.22266.0586-.08593.07421-.07422.11719-.17969.0586-.08594v-.14844l-.07423-.07421-.10156-.04688-.10547-.04297-.10156-.04297-.0586-.08984-.04687-.10547-.02734-.11719.08984-.05859.11719-.03125.10156-.04297.17969-.11719.14844-.14843.01172-.13282-.01172-.10546-.08985-.0586-.1328.01563h-.14845l-.1328.01562-.13282-.01562-.1211-.03125-.08593-.0586-.07422-.07422-.0586-.08984-.0625-.08594-.11718-.17969-.0586-.08593.03125-.1211.08594-.05859.1211-.03125.05859-.08594v-.1211l-.03125-.11718-.0586-.08984-.05859-.08594-.04687-.10547-.02735-.11719-.01562-.1328.0586-.08985.07421-.07422.08984-.0586.1172-.17968.07421-.07422.0586-.08594.14843-.14844.1211-.03125.1328-.01562.13282.01562.07422.07422.04297.10547.01562.13281-.03125.1172-.11719.03124-.1328.01172-.14844.14844-.04297.10547-.04688.10156-.02734.1211-.03125.11718v.14844l.03125.11719.04297.10546.05859.08985.07422.07031.07422.07422.11719.03125.12109.02734.11719-.02734.1328-.01563h.1172l.08984.0586.07422.07422.04687.10546.0586.08594.10156.04688.13281.01562.10547.04297.08594.0586-.01172.10546-.07422.07422-.17969.11719-.05859.08984-.08984.0586-.07032.07422-.07421.07421-.0625.08985-.02735.11719-.01562.1328.01562.13282-.01562.13281v.14844l.01562.13281.02735.1172.03125.12108.07421.07422.08985.0586.08594.0586.08984.05858.11719.03125v.08594l-.10157.04688-.08984.0586-.26563.03124-.11718.02735h-.14844l-.10547.04296-.10156.04688-.0586.08984-.0625.23438-.01171.13281-.03125.1211-.01563.1328v.29298l-.01172.1328.01172.13673.01563.1328.1328.01563.13282.01172.1211.03125.08593.0586.07422.07421.04688.10547.04296.10157.01563.1328v.44532l-.01563.13281v.44532l.03125.26562.02735.11719.01562.13281.03125.11719.08594.21094.03125.26562v.14844l-.03125.11719-.02734.11718-.03125.1211-.02735.11719-.03125.11718-.03125.1211-.01171.1328-.01563.13282.08984.0586.1172-.03125.10155.01562.04688.10547-.03125.26562v.44141l-.04297.10547-.04688.10547-.04296.10156-.04297.10547-.0586.08594-.03125.12109-.04296.11719-.03125.11719-.01563.1328.01563.13282.05859.08984.10547.04688.08594.0586.05859.08593-.01172.13672-.03125.11719-.04297.10156v.44531l-.01562.13281v.14844l-.03125.11719-.04297.10547-.02735.11719-.04687.10546-.04297.10157-.03125.12109-.02734.11719-.03125.13281-.03125.11719-.02735.11719-.04297.10546-.03125.1172-.03125.12108-.01171.13282-.01563.13281v.29688l.02734.11718v.14844l.04688.39844.02734.11719.0586.08984.12109.03125h.14844l.13281-.01563.0586.08985v.11719l-.0586.08984-.08984.0586-.10157.04296-.10546.04688-.08985.05859-.08594.0586-.13671.01562-.1172-.03125-.1328-.01563-.10157.04688-.0625.08594-.01172.13671-.01562.13282-.03125.11719-.02735.11718-.01562.13281-.03125.1211v.29687l.01563.13282.03125.11718v.14844l.01171.13281v.14844l-.02734.11719-.04688.10156-.02734.1211-.03125.11718-.0586.08985-.07421.07421-.10156.04297-.10547.04688-.11719.02734-.1211.03125-.10156-.04687.0586-.08594.10547-.04688.02734-.11718.03125-.11719.02734-.1211.03125-.11718v-.14844l.01563-.13281-.03125-.11719-.04297-.10547-.10547.01563-.07422.07422-.10156.04296-.08984.0625-.07422.07422-.04297.10157-.01563.1328-.03125.1172L304.25 426l-.03125.11719-.02734.11719-.03125.12109-.02735.11719-.03125.11718-.04297.10547-.08984.0586h-.08984l-.1172-.03125-.03124-.08594.01562-.13672-.03125-.11719v-.14844l-.01171-.1328v-.14844l-.0625-.23438-.02735-.1211-.04297-.10156-.04687-.10546-.0586-.08594-.05859-.08985-.04297-.10546-.0625-.08594-.14844-.14844-.0703-.07422-.10548-.04687-.10547-.04297-.10156-.04297-.29687-.29688-.08985-.07421-.08594-.0586-.10546-.04297-.08985-.0625-.08594-.0586-.10546-.04296-.08985-.0586-.08594-.0625-.07421-.0703-.10547-.04688-.08594-.0586-.10547-.04296-.08984-.0625-.10156-.04297-.10547-.04297-.08594-.0586-.10547-.04687-.10547-.04297-.10156-.04687-.08985-.0586-.10156-.04297-.10547-.04296-.08984-.0625-.11719-.02735-.13281-.01562-.13281.01562H299.75l-.13281.01563-.11719-.03125-.08984-.0586-.07422-.07422-.08985-.05859-.10156-.04688h-.14844l-.12109-.02734-.10156-.04297-.07422-.07422-.11719-.17968-.08984-.0586-.10156-.04297-.08985-.0625-.10547-.04296-.08984-.0586-.08594-.0586-.10547-.04687-.0586-.08594-.05858-.08984-.04297-.10547-.04688-.10156-.07422-.07422-.08594-.0586-.07421-.07421-.08985-.0586-.22265-.22265-.04297-.10547-.03125-.26563.10547-.04296h.14453l.10547.04296.07421.07422.08985.0586.08594.0586.10546.04687.08985.05859.14844.14844.0703.07422.14845.14843.0625.08594.07421.07422.08594.0586.07422.07421.08985.0625.08984.0586.08594.05859.26953.17578.10156.04688.10547.04296.10156.04297.04688-.07421.05859-.08594.07422-.07422.07031-.07422.10547.04297.07422.07422.0586.08984.04296.10156.04688.10547.04296.10547.1211.02735.11719-.02735.07421-.08984.04297-.10547.0586-.08985.07422-.07421.10546-.04297.1172-.02735.1328.01172.08985.0586.14844.14843.05859.08985.04297.10547.04687.10156.04297.10547.04297.10156.10547.04688.10547.04296.13281.01563.08594-.0586.0586-.08984.07421-.07422.10547-.04297.11719.02735.10547.04687.10156.04297.10547.04297.10156.04688.17969.11718v.11719l-.01563.13281.01563.13281.01562.13672.0586.08594.10156.04688.1211.02734.11718.03125h.14844l.11719-.03125.05859-.08984.17969-.1172.05859-.08983.07422-.07422.0586-.08594.11718-.17969.17969-.11719.11719.03125.08984.0586.04297.07422-.01563.1328v.1172l.08985.05859h.14843l.13282-.01563.1328-.01171.26563-.03125.10547-.04297.11719-.03125.1211-.02735.07421-.07421.07031-.07422.0625-.08985-.01562-.10547-.04688-.10156-.10156-.04297-.10547-.01562-.11718.02734-.26563.03125h-.14844l-.07421-.07422-.08985-.0586-.11719-.03124-.11718-.02735-.13282-.01562h-.14843l-.13282.01563h-.29687l-.10547-.04688-.14844-.14844-.04297-.10156-.05859-.08984.22266-.22266.08593-.0586.10547-.04296.11719-.03125.13281-.01563.13281.01563.13672.01562.10157.04297.1328-.01172.08985-.0625.10156-.04297.0625-.08984-.04687-.10156-.08984-.0586-.1172-.03125-.10155-.04296-.0586-.08985-.0625-.08984v-.11719l.01563-.13281.10547-.04688.07421-.07031v-.1211l-.08984-.05859-.03125-.11719.08985-.05859.07421-.07422.04297-.10547.0586-.08984.04687-.10156.01563-.13281v-.14844l-.04688-.10547-.04297-.10156-.08984-.0586-.13281-.01562-.10157-.04297-.13671-.01563-.1172-.03125h-.4453l-.13282-.01562-.13281-.01172-.13281-.01563-.11719-.03125h-.14844l-.13281-.01562-.13281-.01172-.26563-.03125-.1211-.04297-.08593-.0586-.07422-.07421v-.14844l.01172-.13281.10547-.04688.10156-.04296.13281-.01563h.15235l.13281-.01562h.29297l.1211.03125.10156.04296.08984.0586.23438.0625.12109-.04688.08984-.05859.10156-.04297.13282-.01562.10547.04296.10156.04688.13281.01172.1211-.02735h.14453l.12109-.03125.11719-.02734.10547-.04687.07421-.07422.08594-.0586.14844-.14843.0586-.08594.04687-.10547.02734-.11719.01563-.10547-.10156-.04296-.08985-.0586-.11719-.03125-.10546-.04297-.08985-.0625-.07422-.08594-.07422-.07421-.10156-.04297-.10547-.04688-.10156-.04297-.0586-.08984-.04687-.10156-.08594-.21094-.0625-.08594-.05859-.08984-.07422-.07422-.08594-.0586h-.26953l-.11719.03126-.08984.05859-.10156.04297-.13281.01562-.10547-.01562-.02735-.11719-.0625-.08984-.11718-.03125-.10157-.04297-.14843-.14844-.03125-.11719-.01563-.10546.07422-.07422.17969-.1172.11719-.02733.11718-.03125.13672.01562.10156.04297.10547.04297.10156.04687.10547.04297.1172.03125.1328.01563.1172.02734.1328.01563.10547-.01563.08985-.0586-.07422-.07421-.10547-.04297-.07422-.07422-.07422-.08984-.14844-.14844-.08593-.0586-.08985-.05859-.07422-.07422-.08984-.0586-.10156-.04687-.1211-.02734-.10156-.04688-.10547-.04296-.11719-.03125-.10156-.04297-.1211-.03125h-.14843l-.11719.03125-.10546.04297-.08594.0625-.17969.11718-.08594.0586-.08984.0586-.10547.04687-.08594.05859-.10547.04297-.10156.04297-.10547.04687-.07422.07422-.05859.08985-.0586.08593-.04687.10547-.0586.08594-.07421.07422-.13281-.01172-.1172-.03125h-.11718l-.07422.07422-.08984.0586-.07422.07421-.08984.0586-.08594.05859-.10547.04687-.10156.04297-.13672.01563-.10156-.04297-.14844-.14844-.10547-.04688h-.08594l-.10547.04688-.10156.04297-.1211.03125-.11718-.03125-.07422-.07422v-.11719l.03125-.1211.07422-.0703.0586-.08985.07421-.07422.11719-.03125.10547-.04296h.29297l.13281-.01563.13672-.01563.10156-.04296.08985-.0586.10156-.04687.08984-.0586.13281-.01171.08985.05859.13281.01172.08984-.0586.08594-.05859.10547-.04297.08984-.0586.08594-.0625.08985-.05859.14843-.14843.0586-.08594.05859-.08985.10547-.04296.13281-.01563.11719.02735.1211.03125.05859-.0586.05859-.08984.03125-.26563.02734-.11719.10547.01172.13281.01563.10157-.04297.08984-.0586.0586-.08984.07421-.07422.0586-.08984.04687-.10156.01172-.13281-.01172-.13282-.04687-.10547-.14844-.14843-.0586-.08985-.05859-.08594-.04297-.10546v-.44532l.01563-.1328v-.14845l.01172-.1328-.0586-.0586-.08984.0586-.10156-.04298-.17969-.11719-.08594-.05859-.0625-.08984-.0586-.08985-.07421-.07421-.08594-.0586-.1211.03125-.10155.01172-.10547.04688-.08594.05859-.10547.04297-.14844.14844-.08984.05859-.08594.0586-.08984.0625-.10547.04296-.13281.01563v-.1211l.10547-.04297.11718-.03125.07422-.0703.04297-.10548v-.14844l-.02734-.11718-.14844-.14844-.13281-.01563h-.14844l-.11719.03125-.10547.04297-.10156.04297-.08984.0625-.11719.02735-.07422-.07422.01172-.13281-.04297-.10157-.04297-.10547-.08984-.05859-.11719.02734-.1211.03125-.11718.03125-.10156.04297-.1211.03125-.10156.04297-.10547.04297-.08984.0586-.10156.01562v-.11719l.01562-.13281-.0586-.08985-.07421.04297-.14844.14844-.0586.08985-.07421.07421-.04688.10547-.04296.10156-.07422.07422-.0586.08985-.07422.07422-.05859.08593-.07422.07422-.08984.0625-.07422.07031-.07422.07422-.10156.01563-.13281.01562-.10547-.04296v-.1211l.14843-.14844.04297-.10156.0586-.08984.04687-.10156.04297-.10547.0586-.08985.03124-.11719.04297-.10156.03125-.1211.02735-.11718.04687-.10547.04297-.10156.04297-.10547.07422-.07031.08984-.0625.08985-.0586.10156-.04296h.29687l.26563-.03125.10547-.04297-.07422-.07422-.11719-.03125-.10547-.04297-.08984-.0586-.10156-.04687-.08985-.0586-.10156-.04296-.10547-.04297-.08984-.0625-.08594-.0586-.10547-.04296-.10156-.04297-.1211-.03125-.11718-.03125-.10157-.04297L297.5 410.25l-.10156-.04297-.08985-.0586-.04296-.10546-.01563-.13281.10156-.04297.13281-.01563.13672.01563.13282-.01563.10156-.04297.0586-.08984.01562-.10547-.08985-.0586-.07421-.07421-.10157-.04297-.08984-.0586-.14844-.14843-.04297-.10547-.01562-.13281v-.29297l-.0586-.08985-.08984-.05859-.07422-.07422-.04297-.10547-.03125-.11718-.0586-.08985-.07421-.07422-.11719-.02734-.07422-.07422-.08984-.0586-.08984-.0625-.08594-.05859-.07422-.07421-.0586-.08594-.04687-.10547-.08594-.0586-.14843-.14843-.19532-.0586-.1328.01563-.10157.04297-.07422.07422-.04688.10156-.04296.10547-.0586.08984-.0586.08594-.29687.29687-.08984.0586h-.08594l-.0625-.08594-.04297-.10547.03125-.11719.0586-.08984.02734-.11719-.01172-.13281-.08984-.0625-.10547.04688-.11719.02734-.11719.03125-.26953.17578-.10156.04688-.11719.02734-.10546.04687-.08985.0586-.10156.04297-.0586-.08594-.04687-.10547.01563-.13281.04687-.10547.07031-.07422.07422-.07031.0586-.08985v-.14843l-.04297-.10547h-.23829l-.10156.04687-.03125.11719-.02734.11719-.03125.1211-.07422.04296-.13281.01563-.07422-.04688-.04297-.10156-.04297-.10547-.04687-.10156-.04297-.10547-.1211.03125-.10156.04297-.13281.01562-.11719.03125-.10547.04297-.08984.0586-.10156.04687-.1211.02734-.13281.01563-.10156-.04297-.0586-.08985-.04687-.10546-.04297-.10157-.04297-.10546v-.1172l.0586-.08984.08593-.05859.17969-.11719.10156-.04687.10547-.04297.10547-.0586.10156-.04296.08985-.0625.10156-.04297.10547-.0586.10156-.04687.08984-.0586.10547-.04296.10156-.04297.08985-.0625.10156-.04297.13672-.01563.11719.03125.10156.04297.1211.03125.10156.04297.10546.04688.10157.04296.10547.04297.10156.04688.10547.04297.10156.04297.10547.04687.08594.0586.10546.04296.1172.03125.10546.04297.10156.04688.08985.0586.10547.04296.10156.04297.10547.04687.11719.02735.10156.04687.1211.02735h.14843l.08594-.0586.01562-.10156.0586-.08984-.02735-.1172-.07422-.07421-.11719-.17969-.07421-.07422-.08985-.07421-.17969-.1172-.08593-.05859-.10547-.04296-.10156-.04688-.26954-.17578-.05859-.08985-.07422-.07421-.0586-.08985-.04296-.10156-.03125-.11719-.01563-.13672v-.5625l-.01171-.1328-.01563-.13282-.03125-.11719-.01562-.13281-.01172-.13281-.03125-.1211-.22266-.22265-.0586-.08594-.01562-.10547.03125-.11719.13281-.01562v-91.41406H172.9922v1.45312l-.0586.23438-.35156 1.05078-.17187.52343-.1172.34766-.17577.41016-.11719.17187-.23438.29297-.23046.0586h-.35157l-.11718.05859-.23047.40625v.29297l.11719.17578.23046.23047.1172.23437.64062.75781.29297.46485.17578.23437.23047.35156.23437.34766.64063.8164.17578.46485.17187.41016.11719.69531.17578.46875.11719 1.39844.0586.46484v.875l.11718 1.04688v4.78125l-.0586.46484-.35156 1.28125-.17578.52344-.11328.41015-.35156.9297L172.93359 336l-.23437.58203-.11719.17578-.17187.34766-.17578.40625-.35157.8164-.0586.29297-.11327.29297-.11719.28906-.0586.17579-.11718.875-.0586.40625-.05859.11718-.0586.17579-.05859.17187-.23047.52734-.11718.17188v.23437l-.11719.23438-.0586.17187-.17577.58594v.28906l-.0586.17579v.29296l-.0586.11329-.05859.52734v.17187l-.05468.23438v2.6211l-.17578.8164-.1172.17578-.17577.23438-.1172.17187-.11327.23438-.58594.93359-.23047.28906-.29297.46485-.17578.23437-.28906.35156-.35156.69922-.11328.23047-.17579.41016-.17578.23046-.40625.52735-.8164.69922-.29297.17187-.28906.23438-.17579.11719-.17578.17578-.52344.40625-.52734.17578-.17187.17578-.23438.05469-.64062.17578h-.75782m12.21094 31.02344l-1.07422.44921.35938.89454 1.25-.71485.44531-.53906-.98047-.08985"/><path fill="#d3d3d3" fill-opacity="0" fill-rule="evenodd" d="M201.50781 416.59766h-.89453l.44922.6289.98047.35938.80469-.08985.4453-.98828-.17577.08985-.71485-.35547-.89453.35547m154.6211 59.0703l-.0586-.52343v-.29297l.11328-.29297.0586-.23046.46875-.46875h.11328l.11719-.11329.11718-.05859h.17579l.23437-.0586h.34766l.23437.0586.11719.0586.23047.17187.0586.17578.11718.58203v.29297l-.11719.17578-.17187.28906-.17579.17579-.52734.52343-.23047.23438-.11719.0586h-.17578l-.11718-.0586-.40625-.29297-.17579-.11719-.11718-.0586-.0586-.11327-.05468-.1172m6.64062-10.95702l-.0586-.17188v-1.10937l.0586-.17188.17578-.0586.17188-.05858h.17578l.23437-.0586.1172.0586.05858.69921-.05859.17188-.11719.17578-.11718.0586-.23438.52343-.11328.0586h-.23438l-.05859-.1172m9.61328-14.39062l-.11719-.17578v-.69922l.29297-.875.1172-.17187.17577-.35156.11328-.23047.1172-.29297.35155-.75781.1172-.23047.17187-.23438h.17578l.11719-.0586h.64062l.11719.0586.23437.23438.17188.11328.35156.29297.11719.11718.11328.17579v.11328l.11719.05859.11718.11719v.69922l-.05859.17578v.23047l-.0586.17578-.34765 1.05078-.11719.23047-.11719.23437-.11718.0586-.23047.23437-.64063.28906h-.875l-.41015-.11718-.64063-.46485"/><path fill="none" stroke="#bebebe" stroke-linecap="round" stroke-linejoin="round" stroke-miterlimit="10" stroke-width=".5" d="M467.95703 311.69531H144.02734v168.625h323.9297v-168.625"/><g clip-path="url(#a)"><path fill="#fff" fill-opacity="0" fill-rule="evenodd" d="M144 475.89063v4.4375h.0039H144v-36.48438 32.04688"/></g><g clip-path="url(#b)"><path fill="#fff" fill-opacity="0" fill-rule="evenodd" d="M144 422.6289v4.38282-115.33985h.0039H144v110.95704"/></g><path fill="#50fcfc" fill-rule="evenodd" d="M144 440.8125v3.03125h.0039v-3.02734L144 440.8125"/><path fill="#00e8fc" fill-rule="evenodd" d="M144 440v.8125l.0039.0039V440H144"/><path fill="#50fcfc" fill-rule="evenodd" d="M144 437.30078V440h.0039v-2.69922H144"/><path fill="#fff" fill-opacity="0" fill-rule="evenodd" d="M144 432.95313v4.34765h.0039v-4.35156l-.0039.0039"/><path fill="#50fcfc" fill-rule="evenodd" d="M144 427.01172v5.9414l.0039-.0039v-5.9336l-.0039-.0039"/><g clip-path="url(#c)"><path fill="#fff" fill-opacity="0" fill-rule="evenodd" d="M144.0039 480.32813v-36.48438l4.4336.9375 4.4375-.29688 2.84375.33594-2.84375 4.03125-.47656.41016.47656.32422.5586-.32422 3.8828-2.46875.42579 2.46875.23828 4.4375 3.77344 3.51172 4.4375.76172 4.4375-.04297 4.4375.13281 4.4414-.6875 4.4375-1.60938L186 453.69923l-2.05469-3.17578-2.67578-1.26172-1.76172-1.53906-1.17578-2.90235 1.17578-2.45703.98438-1.98047-.98438-1.5664-2.23047-2.8711-2.21093-1.77344-1.09766-2.66406-2.3086-4.4375-1.03124-.96094-4.29688.96094h-.14062l-4.4375.73828-3.73047 3.69922-.70703 2.3086-4.33203 2.1289-.10938.01172-4.4375.30078-4.4336 1.04297v-4.35156l1.19532-1.4414-1.15625-4.4375-.03906-.0547V311.67188h48.8164v8.85938l-.00781.01563.00781.01171v122.13282l-3.27734 2.1289 2.13281 4.4414 1.14453.26954.82422-.26953 3.61719-.95313 2.4961-3.48828-2.4961-2.1211-4.4414-.0078V320.55859l.01952-.01171-.01953-.01563v-8.85938h4.4414v14.65625l-1.99608 3.09766 1.99609 3.28516 1.75 1.15234 1.53516 4.4375 1.15234 1.50781.54297-1.5078.92578-4.4375.28125-4.4375-1.75-2.4961-4.4375-.60156v-14.65625h4.4375v4.22265l-.22266.21485.22266.35156.46484-.35156-.46484-.21485v-4.22265h4.4375v150.66015l-1.75781.24219 1.7578.16015.29688-.16015-.29687-.24219V311.67188h8.8789v15.58203l-3.02343 2.17187-.9414 4.4375-.47657 2.88672-.61719 1.55078.61719.92578 1.95703-.92578 2.48438-.33594 4.4375-1.01953v5.29688l-1.0586.4961 1.0586.17577.17187-.17578-.17188-.4961v-5.29687l2.45704-3.08203-2.45703-1.92969-2.16407-2.5078-2.27344-2.17188v-15.58204h17.75v39.1875l-1.52343.75782-1.63281 4.4375 1.05859 4.4375 2.09766 2.375 3.41015-2.375.13672-4.4375-2.42188-4.4375-1.125-.75781v-39.1875h13.31641v100.30078l-1.75781 1.78125-1.88281 4.4375.03906 4.4375 3.60156 3.60937 4.4375.04297 4.4375-.15234 4.4414-1.41016 3.9336-2.08984-3.9336-2.06641-3.83202-2.3711-.60938-.45312-4.4375-2.90625-2.6875-1.07812-1.75-1.78125V311.67187h26.6289v94.83985l-2.85546 2.80469-1.58203 3.78906-.63281.64844-1.9336 4.4375.45703 4.4375 2.10938.41406v7.13672l-1.1836 1.32812 1.1836 1.02735 1.29297-1.02735-1.29297-1.32812v-7.13672l.58984-.41406 3.84766-1.19922 4.4414-.69531 2.0586-2.54297 2.10937-4.4375-3.63672-4.4375-.53125-.53516-4.4414-2.26953v-94.83985h8.8789v111.9961l-4.4375.26953-2.74218 3.13281-.89454 4.4375 3.63672 3.42578 3.47657-3.42578.96093-1.11328 4.17579-3.32422-4.17579-3.40234v-111.9961h31.06641v98.69532l-1.64063 3.38672-1.8164 4.4375-.98047 1.48828-2.61719 2.94922.45313 4.4414 2.16406 2.16406 4.4375-1.42187.73828-.74219 3.11719-4.4414.58594-.69532 3.13671-3.74218-.76953-4.4375-2.36718-2.85547-4.44141-.53125v-98.69531h13.3164v92.60937l-.76562.59375.76563.58984.54296-.58984-.54296-.59375v-92.60938h22.1914v102.62891l-4.4375 1.00781-1.96875 2.88282 1.96875 2.1875.80469 2.25 3.63281 3.86328 4.4375.1914 3.95703-4.05468-.41015-4.4375-3.54688-3.72266-4.4375-.16797v-102.6289h17.7539v95.34375l-2.66405 2.30078-1.77344 1.26562-2.67578 3.17188 1.22265 4.4375.40625 4.4375.2422 4.4414.27733 4.4375-2.90625 4.4375-1.0039.9375-3.33985 3.5-.01171 4.4375-1.08985.77735-4.4375 1.04687-1.60547-1.82422 1.60547-1.4375 2.83203-3-2.83203-2.90234-3.32812 2.90234-1.10938 1.25781-4.4375.35547-2.80078-1.61328 2.80078-.70703 3.35547-3.73047 1.08203-1.07031 3.01172-3.36719-3.01172-3.11719-3.02344-1.3203-1.41406-1.28907-1.27344 1.28906 1.27344 1.26172 1.47266 3.17578-1.47266 1.48828-2.94531 2.94922-1.4961 3.64063-.79687.79687.14453 4.4375.65235.67188 4.4414 1.1875 4.01172 2.58203.42578.4336 2.98828 4.0039-2.98828 3.1836-1.1875 1.2539 1.1875 3.94922 4.4375-2.4414 1.5039-1.50782-.15233-4.4375 3.08593-1.20313 4.4414.42188 4.0547-3.65625.3828-.08203 4.4375-1.1836.71876 1.26563 1.01172 4.4375 2.17578 4.4375-3.34766 4.4375-.5586.9375-2.71483 3.5039-1.72266 1.85547-4.4375.1211-2.44531 2.46094 2.4453 2.42187 4.4375-.08203 4.4375-.4961 3.98048 2.59375.45703.45704 4.4375 2.59375 4.4414-.69532 3.5586-2.35546.8789-1.21875 4.26563-3.21875-4.26563-2.125-4.4375-2.28516-.01562-.02735.01563-.01562 2.8125-4.42578 1.625-4.34766.10937-.08984 4.32813-.95703 4.4375-.9414 3.63671 1.89843.80079 1.28515 4.4414 2.83985.125.3125 4.3125 3.6914 4.4375.39454 3.14453.35546 1.29297.88282 4.4414.08203 1-.96485 3.4375-.87109 3.8711-3.57031.5664-3.52344 4.4375 2.41016 4.4375-2.1914 4.44141 1.14062v12.71875l-2.92187 2.76171 2.92187 2.625 2.73438-2.625-2.73438-2.76171v-12.71875l2.0547-2.27344-2.0547-.92578-1.12109-3.51172-.4375-4.4375-2.88281-2.36328-4.4375.39453-1.58985-2.47266-.39843-4.4375-2.44922-2.41015-4.4375-.6797-4.4375-.39452-4.4414.0586-4.4375 2.1289-4.4375-.375-1.66407 1.67187-2.77344 1.58985-3.13281 2.84765-1.3086.92969-4.4375-.03125-.96875-.89844-2.17578-4.4375 3.14454-1.80469 2.7539-2.6328 1.05469-4.4375-.04297-4.4375.67188-3.75391.53515-.6875-.53515-.58204-1.32032.58204-3.11719.3203-4.4375-.13671-4.4375.03125-.51171-.21484-3.92579-3.08204-4.4414-1.1328-4.4375.42968-1.95703-.65234 1.95703-.83204 3.51953-3.60546-2.96875-4.4375-.55078-.60938-4.4375-1.6914v-95.34375h102.07812v168.65625H144.00391"/></g><path fill="#50fcfc" fill-rule="evenodd" d="M148.4375 444.78125l-4.4336-.9375v-3.02734l4.4336 3.03515 4.4375-.08203 3.92578-3.38672-3.92578-3.65625-4.4375.40235L144.0039 440v-2.69922l4.4336-1.04297 4.4375-.30078.10938-.01172 4.33203-2.1289.70703-2.3086 3.73047-3.69922 4.4375-.73828v.57031l-4.4375 1.46094-2.42578 2.40625-1.60157 4.4375.17188 4.4375.09375 4.4375 1.04297 4.4414 1.1875 4.4375 1.53125 1.42579 4.4375 1.63281 4.4375-.08984 4.4375-.3711 4.4414-2.02734 1.07422-.57031-1.07422-.76172-2.4375-3.67578-2.0039-2.82422-1.84766-1.61719 1.84766-2.32812 1.39062-2.10938-1.39062-1.5664-2.5-2.8711-.97266-4.4375-.96484-1.45312-4.4375-2.41406v-.57032h.14062l4.29688-.96094 1.03125.96094 2.30859 4.4375 1.09766 2.66406 2.21093 1.77344 2.23047 2.8711.98438 1.5664-.98438 1.98047-1.17578 2.45703 1.17578 2.90235 1.76172 1.53906 2.67578 1.26172L186 453.69922l-2.05469 2.0664-4.4375 1.60938-4.4414.6875-4.4375-.13281-4.4375.04297-4.4375-.76172-3.77344-3.51172-.23828-4.4375-.42578-2.46875-3.88282 2.46875-.55859.32422-.47656-.32422.47656-.41016 2.84375-4.03125-2.84375-.33594-4.4375.29688"/><path fill="#00e8fc" fill-rule="evenodd" d="M148.4375 443.85156l-4.4336-3.03515V440l4.4336-2.8711 4.4375-.40234v1.28906l-4.4375.56641-2.55078 1.80078 2.55078 1.92188 4.4375.26953 2.54297-2.1914-2.54297-2.3672v-1.28906l3.92578 3.65625-3.92578 3.38672-4.4375.08203"/><path fill="#50fcfc" fill-rule="evenodd" d="M145.19922 431.50781l-1.19531 1.4414v-5.93358l.03906.05468 1.15625 4.4375"/><path fill="#00d4fc" fill-rule="evenodd" d="M148.4375 442.30469l-2.55078-1.92188 2.55078-1.80078 4.4375-.5664v1.28906l-4.4375.73047-.49219.34765.49219.3711 4.4375.6289 1.16016-1-1.16016-1.07812v-1.28906l2.54297 2.36718-2.54297 2.1914-4.4375-.26952"/><path fill="#00c4fc" fill-rule="evenodd" d="M148.4375 440.7539l-.49219-.37109.49219-.34765 4.4375-.73047 1.16016 1.07812-1.16016 1-4.4375-.6289"/><path fill="#00e8fc" fill-rule="evenodd" d="M157.89844 440.38281l-.17188-4.4375 1.60156-4.4375 2.42579-2.40625 4.4375-1.46094v.95313l-4.4375 2.66016-.25391.2539-2.39063 4.4375.3711 4.4375.04297 4.4375 1.66406 4.4414.5664 1.3672 2.38282 3.0703 2.05469 1.03126 4.4375-.17188 3.4414-.85937-2.98828-4.4375-.45312-.39453-1.53125-4.04688 1.53125-3.95703.41015-.48047-.41015-.46094-1.76172-3.97656.88281-4.4375-3.5586-2.91406v-.95313l4.4375 2.41407.96485 1.45312.97266 4.4375 2.5 2.8711 1.39062 1.5664-1.39062 2.10938-1.84766 2.32812 1.84766 1.61719 2.0039 2.82422 2.4375 3.67578 1.07422.76172-1.07422.57031-4.4414 2.02735-4.4375.37109-4.4375.08984-4.4375-1.63281-1.53125-1.42578-1.1875-4.4375-1.04297-4.4414-.09375-4.4375"/><path fill="#00d4fc" fill-rule="evenodd" d="M159.48047 440.38281l-.3711-4.4375 2.39063-4.4375.2539-.2539 4.4375-2.66016v.94922l-3.10937 1.96484-1.32812 2.17578-1.26563 2.26172.57031 4.4375v4.4375l.69532 1.69531 4.4375.41797.55468-2.11328-.55468-1.07422-2.77735-3.36328 2.77735-4.26172.07812-.17578 2.32031-4.4375-2.39843-1.96484v-.94922l3.55859 2.91406-.88281 4.4375 1.76172 3.97656.41015.46094-.41015.48047-1.53125 3.95703 1.53125 4.04688.45312.39453 2.98828 4.4375-3.4414.85937-4.4375.17188-2.0547-1.03125-2.3828-3.07031-.56641-1.3672-1.66406-4.4414-.04297-4.4375"/><path fill="#00c4fc" fill-rule="evenodd" d="M161.0586 440.38281l-.57032-4.4375 1.26563-2.26172 1.32812-2.17578 3.10938-1.96484v.95312l-1.60157 1.01172 1.60157 2.32031 1.23437-2.3203-1.23437-1.01173v-.95312l2.39843 1.96484-2.3203 4.4375-.07813.17578-2.77735 4.26172 2.77735 3.36328.55468 1.07422-.55468 2.11328-4.4375-.41796-.69532-1.69532v-4.4375"/><path fill="#00b8fc" fill-rule="evenodd" d="M166.1914 433.82813l-1.60156-2.32032 1.60157-1.01172v.94922l-.09375.0625.09375.13672.07422-.13672-.07422-.0625v-.94922l1.23437 1.01172-1.23437 2.32031"/><path fill="#00a8fc" fill-rule="evenodd" d="M166.1914 431.64453l-.09374-.13672.09375-.0625.07422.0625-.07422.13672"/><path fill="#50fcfc" fill-rule="evenodd" d="M191.67578 449.26172l-2.13281-4.4414 3.27734-2.12891 4.4414.0078 2.4961 2.1211-2.4961 3.48828-3.61718.95313-.82422.26953-1.14453-.26953m1.14453-128.70313l-.00781-.01171.00781-.01563.01953.01563-.01953.01171m4.4414 12.15235l-1.99608-3.28516 1.99609-3.09765 4.4375.60156 1.75 2.4961-.28125 4.4375-.92578 4.4375-.54297 1.5078-1.15234-1.5078-1.53516-4.4375-1.75-1.15235m4.4375-16.25l-.22266-.35156.22266-.21485.46484.21485-.46484.35156m4.4375 146.27344l-1.75781-.16016 1.7578-.24219.29688.24219-.29687.16015m4.4375-123.5078l-.61719-.92579.61719-1.55078.47656-2.88672.9414-4.4375 3.02345-2.17187v4.61718l-1.00391 1.9922 1.0039 1.03905 1.64844-1.03906-1.64844-1.99219v-4.61718l2.27344 2.17187 2.16406 2.50781 2.45704 1.9297-2.45703 3.08202-4.4375 1.01953-2.48438.33594-1.95703.92578"/><path fill="#00e8fc" fill-rule="evenodd" d="M215.01563 334.90234l-1.00391-1.03906 1.0039-1.99219 1.64844 1.9922-1.64844 1.03905"/><path fill="#50fcfc" fill-rule="evenodd" d="M219.45313 342.91406l-1.0586-.17578 1.0586-.4961.17187.4961-.17188.17578m11.21485 17.57813l-1.0586-4.4375 1.63282-4.4375 1.52344-.75781 1.125.7578 2.42187 4.4375-.13672 4.4375-3.41016 2.375-2.09765-2.375m11.8125 62.13673l-.03906-4.4375 1.8828-4.4375 1.75782-1.78125v2.8125l-2.41016 3.40625.22266 4.4375 2.1875 2.1953 4.4375-.3164 4.4375-.42187 2.4414-1.45703-2.4414-1.9336-2.19922-2.5039-2.23828-1.625-4.4375-1.78125v-2.8125l1.75 1.78125 2.6875 1.07812 4.4375 2.90625.60938.45313 3.83203 2.37109 3.9336 2.0664-3.9336 2.08985-4.4414 1.41016-4.4375.15234-4.4375-.04297-3.60157-3.60937"/><path fill="#00e8fc" fill-rule="evenodd" d="M243.89453 422.6289l-.22266-4.4375 2.41016-3.40624v2.89843l-.35937.50782.35937 3.16406 1.27344-3.16406-1.27344-.50782v-2.89843l4.4375 1.78125 2.23828 1.625 2.19922 2.5039 2.4414 1.9336-2.4414 1.45703-4.4375.42187-4.4375.3164-2.1875-2.1953"/><path fill="#00d4fc" fill-rule="evenodd" d="M246.08203 421.35547l-.35937-3.16406.35937-.50782 1.27344.50782-1.27344 3.16406"/><path fill="#50fcfc" fill-rule="evenodd" d="M266.16406 422.6289l-.45703-4.4375 1.9336-4.4375.6328-.64843 1.58204-3.78906 2.85547-2.8047v2.45313l-.35547.35157-2.42969 4.4375 2.78516 4.01953 4.4414-.0664 3.23047-3.95313-3.23047-3.51172-3.83984-.92578-.60156-.35157v-2.45312l4.4414 2.26953.53125.53516 3.63672 4.4375-2.10937 4.4375-2.0586 2.54296-4.4414.69532-3.84766 1.19922-.58984.41406-2.10938-.41406m2.10938 9.90625l-1.1836-1.02735 1.1836-1.32812 1.29297 1.32812-1.29297 1.02735"/><path fill="#00e8fc" fill-rule="evenodd" d="M272.71094 417.77344l-2.78516-4.01953 2.42969-4.4375.35547-.35157.60156.35157 3.83984.92578v1.69922l-4.0664 1.8125 4.0664 2.03906 1.66797-2.03906-1.66797-1.8125v-1.69922l3.23047 3.51172-3.23047 3.95312-4.4414.0664"/><path fill="#00d4fc" fill-rule="evenodd" d="M277.15234 415.79297l-4.0664-2.03906 4.0664-1.8125v1.69921l-.2578.11329.2578.1289.10157-.1289-.10157-.11329v-1.69921l1.66797 1.8125-1.66797 2.03906"/><path fill="#50fcfc" fill-rule="evenodd" d="M277.15234 434.9336l-3.63671-3.42579.89453-4.4375 2.74218-3.13281 4.4375-.26953v1.86719l-4.4375 1.4375-.08203.09765-1.90625 4.4375 1.98828 1.8711 1.89844-1.8711 2.53906-2.9375 1.88282-1.5-1.88282-1.53515v-1.8672l4.17579 3.40235-4.17579 3.32422-.96093 1.11328-3.47657 3.42578"/><path fill="#00e8fc" fill-rule="evenodd" d="M277.15234 433.3789l-1.98828-1.87109 1.90625-4.4375.08203-.09765 4.4375-1.4375 1.88282 1.53515-1.88282 1.5-2.53906 2.9375-1.89844 1.8711"/><path fill="#00c4fc" fill-rule="evenodd" d="M277.15234 413.88281l-.2578-.1289.2578-.11329.10157.11329-.10157.1289"/><path fill="#50fcfc" fill-rule="evenodd" d="M306.05469 427.07031l-.45313-4.4414 2.61719-2.94922.98047-1.48828 1.8164-4.4375 1.64063-3.38672 4.4414.53125v4.80078l-4.4414.27344-1.3086 2.21875-2.55859 4.4375 3.86719 1.89453 1.51172-1.89453 2.92969-3.48047.80078-.95703-.80078-2.4922v-4.80077l2.36718 2.85547.76954 4.4375-3.13672 3.74218-.58594.69532-3.11719 4.4414-.73828.74219-4.4375 1.42188-2.16406-2.16407"/><path fill="#00e8fc" fill-rule="evenodd" d="M312.65625 424.52344l-3.86719-1.89453 2.5586-4.4375 1.30859-2.21875 4.4414-.27344.80079 2.49219-.80078.95703-2.9297 3.48047-1.51171 1.89453"/><path fill="#50fcfc" fill-rule="evenodd" d="M325.97266 405.46484l-.76563-.58984.76563-.59375.54296.59375-.54296.58984m8.22265 39.35547l-.14453-4.4375.79688-.79687 1.49609-3.64063 2.94531-2.94922 1.47266-1.48828-1.47266-3.17578-1.27344-1.26172 1.27344-1.28906 1.41406 1.28906 3.02344 1.32031v2.33594l-.74219.78125-3.6953 3.73438-.70313.70312.70312.89063.80078-.89063 3.63672-3.59375.7539-.84375-.7539-.78125v-2.33594l3.01172 3.1172-3.01172 3.36718-1.08203 1.07031-3.35547 3.73047-2.80078.70703 2.80078 1.61328 4.4375-.35546 1.10938-1.25782 3.32812-2.90234 2.83203 2.90234-2.83203 3-1.60547 1.4375 1.60547 1.82422 4.4375-1.04687 1.08985-.77735.01171-4.4375 3.33985-3.5 1.0039-.9375 2.90625-4.4375-.27734-4.4375-.24219-4.4414-.40625-4.4375-1.22265-4.4375 2.67578-3.17188 1.77344-1.26562 2.66406-2.30079v2.75391l-4.4375 3.95313-.02735.03125.02735.05859 4.4375 3.89063v5.79296l-3.77344 3.57422.2461 4.4375 3.52734.33985.60937-.33985-.125-4.4375-.48437-3.57422v-5.79296l4.4375-2.19532 1.71484-1.7539-1.71484-2.26954-4.4375-1.71484v-2.7539l4.4375 1.6914.55078.60938 2.96875 4.4375-3.51953 3.60546-1.95703.83204 1.95703.65234v1.44922l-2.83594 2.33594.19531 4.4414 2.23438 4.4375-4.03125 2.25-4.4375.90625-.95703 1.28125-3.48047 3.24219-1.14453 1.19531.70703 4.4375-4.0039 2.85156-2.9297 1.58985 2.9297 1.39844 2.41015-1.39844 2.03125-3.60547 4.4375 1.11328 4.4375-1.30078 2.14844 3.79297 2.28906 4.03515.14453.40235 1.67969 4.4375-1.82422 2.7539-1.38672 1.6836-2.59766 4.4414.64454 4.4375 3.33984 2.88672 3.69922-2.88671.73828-4.04297.14844-.39454 4.29296-3.84765.375-.59375 3.46485-4.4375.59765-.51953 4.4375-2.26953 2.95313-1.64844 1.48438-1.59375 4.42187 1.59375.01563.00781 4.02734 4.42969.41406.35156 1.6211 4.08594 2.8164 2.41015 4.4375.79688 4.4375.72266 4.4414-.09766 4.4375-1.6289 2.38673-2.20313-2.38672-4.3789-.05469-.0586-1.57813-4.4375-2.80468-2.95313-.82813-1.48437.02344-4.4414.80469-1.56641v4.64843l-.15625 1.35938.15625.27734 1.61719-.27734-1.6172-1.35938v-4.64843l1.92579 1.5664 2.51172 2.26563v4.32812l-.48828 2.28516.48828 1.33984.89844-1.33984-.89844-2.28516v-4.32812l4.4375-2.00781.09765-.25782-.09765-.47656-3.46485-3.96094-.97265-.23047-4.4375-1.39843-4.4414-.16016-2.4922 1.78906-1.9453.6836-4.4375.22656-4.375 3.52734-.0625.07813-4.44142 3.16015-4.4375-.3828-3.08984-2.85548-1.34765-2.04297-.33985-2.39453.33985-.39844 4.3828-4.03906.0547-.17187 2.6914-4.26563-.32422-4.4375-2.36719-2.59375-4.4375-.6875-4.4375.28516-3.42968-1.44531-1.00781-.78907-4.44141-1.07812-4.4375-.46875v-1.44922l4.4375-.42969 4.4414 1.13281 3.92579 3.08204.51171.21484 4.4375-.03125 4.4375.13672 3.1172-.32031 1.3203-.58204.53516.58204-.53515.6875-.67188 3.7539.04297 4.4375-1.05469 4.4375-2.7539 2.63281-3.14454 1.8047 2.17579 4.4375.96875.89843 4.4375.03125 1.30859-.92969 3.13281-2.84765 2.77344-1.58985 1.66406-1.67187 4.4375.375 4.4375-2.1289 4.4414-.0586 4.4375.39453 4.4375.67969 2.44923 2.41015.39843 4.4375 1.58985 2.47266v2.48437l-4.4375 1.52735-1.41797 2.39453 1.41797 1.89062 2.57422 2.54688 1.86328 1.3125 1.8086-1.3125 2.6289-2.50781 1.39844-1.9297-1.39844-3.08593-4.4375-.83594v-2.48437l4.4375-.39453 2.88281 2.36328.4375 4.4375 1.1211 3.51172 2.05468.92578-2.05469 2.27344-4.4414-1.14063-4.4375 2.1914-4.4375-2.41015-.5664 3.52344-3.8711 3.57031-3.4375.8711-1 .96484-4.4414-.08203-1.29298-.88281-3.14453-.35547-4.4375-.39454-4.3125-3.6914-.125-.3125-4.4414-2.83985-.80079-1.28515-3.63671-1.89844-4.4375.9414-4.32813.95704-.10938.08984-1.625 4.34766L379.23438 467l-.01562.01563.01563.02734 4.4375 2.28515 4.26562 2.125-4.26563 3.21875-.8789 1.21875-3.5586 2.35547-4.4414.69532-4.4375-2.59375-.45703-.45704-3.98047-2.59375-4.4375.4961-4.4375.08203-2.44531-2.42188 2.4453-2.46093 4.4375-.1211 1.72267-1.85546 2.71484-3.50391.5586-.9375 3.34765-4.4375-2.17578-4.4375-1.01172-4.4375-.71875-1.26563-4.4375 1.1836-.38281.08203-4.0547 3.65625-4.4414-.42188-3.08594 1.20313.15235 4.4375-1.5039 1.50781-4.4375 2.4414-1.1875-3.94921 1.1875-1.2539 2.98827-3.1836-2.98828-4.0039-.42578-.4336-4.01172-2.58203-4.4414-1.1875-.65235-.67188"/><path fill="#00e8fc" fill-rule="evenodd" d="M339.28906 436.83594l-.70312-.89063.70312-.70312 3.69531-3.73438.7422-.78125.7539.78125-.7539.84375-3.63673 3.59375-.80078.89063"/><path fill="#50fcfc" fill-rule="evenodd" d="M343.72656 420.3789l-1.96875-2.1875 1.96875-2.8828 4.4375-1.00782v1.45313l-3.46484 2.4375 1.30469 4.4375 2.16015 2.29687 4.4375.71485 2.9375-3.01172-1.02734-4.4375-1.91016-2.00391-4.4375-.4336v-1.45312l4.4375.16797 3.54688 3.72266.41015 4.4375-3.95703 4.05468-4.4375-.1914-3.63281-3.86328-.80469-2.25"/><path fill="#00e8fc" fill-rule="evenodd" d="M346.0039 422.6289l-1.30468-4.4375 3.46484-2.4375v2.42579l-.01562.01172.01562.16796.6289 4.26954 3.8086 1.26953 1.23828-1.26953-1.23828-3.14454-4.36719-1.29296-.0703-.01172v-2.42578l4.4375.43359 1.91015 2.0039 1.02734 4.4375-2.9375 3.01173-4.4375-.71485-2.16015-2.29687"/><path fill="#00d4fc" fill-rule="evenodd" d="M348.16406 418.35938l-.01562-.16797.01562-.01172.07031.01172 4.3672 1.29296 1.23827 3.14454-1.23828 1.26953-3.8086-1.26953-.6289-4.26954"/><path fill="#00e8fc" fill-rule="evenodd" d="M352.60156 450.66016l-2.92969-1.39844 2.9297-1.58985 4.0039-2.85156-.70703-4.4375 1.14453-1.19531 3.48047-3.24219.95703-1.28125 4.4375-.90625 4.03125-2.25-2.23438-4.4375-.1953-4.4414 2.83593-2.33594v2.92578l-.45703 3.85156.45703.8125 2.36328 3.625-.16406 4.4375-2.19922 3.39063-4.4375-2.71875-4.4375 1.41797-2.47266 2.34765 2.47266 2.78125 4.4375.21485 4.4375-.5625.34765 2.0039 1.73829 4.4414-.41407 4.4375 2.76563 3.96095.32031.47656 4.1211 3.35547 2.83203-3.35547 1.60546-1.39453 3.91797-3.04297.51954-1.22266 3.11328-3.21484-3.11329-2.9336-.58984-1.5078-.51172-4.4375 1.10156-1.28907 3.41407-3.14844 1.02344-3.125.83203-1.3125-.79297-4.4375-.03906-.04297-4.4375-1.60937-4.4375.70703-4.4375-.91406-4.44141-1.6289-4.4375-.36329v-2.92578l4.4375.46875 4.4414 1.07812 1.00782.78907 3.42969 1.4453 4.4375-.28515 4.4375.6875 2.36718 2.59375.32422 4.4375-2.6914 4.26563-.0547.17187-4.3828 4.03906-.33985.39844.33985 2.39453 1.34765 2.04297 3.08985 2.85547 4.4375.38281 4.4414-3.16015.0625-.07813 4.375-3.52734 4.4375-.22656v1.32812l-4.4375 1.14063-1.59765 1.28515-2.83985 3.42969-1.35547 1.01172 1.35547 2.1914 1.08203 2.2461.88281 4.4375 2.14844 4.4375.32422.27734 4.4375 1.46094 4.4375 1.17969 4.4414-.32422 4.3672-2.59375-4.26563-4.4375.79297-4.4375-.89453-.9414-1.95313-3.4961-1.63281-4.4414-.85547-2.09376-4.4375-.33203v-1.32812l1.94531-.6836 2.4922-1.78906 4.4414.16016 4.4375 1.39843.97265.23047 3.46485 3.96094.09765.47656-.09765.25781-4.4375 2.00782-2.51172-2.26563-1.92578-1.5664-.80469 1.5664-.02344 4.4414.82813 1.48438 2.80469 2.95313 1.57812 4.4375.05469.0586 2.38672 4.3789-2.38672 2.20312-4.4375 1.62891-4.4414.09766-4.4375-.72266-4.4375-.79688-2.81642-2.41015-1.62109-4.08594-.41406-.35156-4.02735-4.42969-.01562-.00781-4.42188-1.59375-1.48437 1.59375-2.95313 1.64844-4.4375 2.26953-.59765.51953-3.46485 4.4375-.375.59375-4.29296 3.84765-.14844.39454-.73828 4.04296-3.69922 2.88672-3.33985-2.88671-.64453-4.4375 2.59766-4.44141 1.38672-1.6836v9.6797l-.1289.8828.1289.10938.14453-.10938-.14453-.8828v-9.6797l1.82422-2.7539-1.67969-4.4375-.14453-.40235-2.28906-4.03515-2.14844-3.79297-4.4375 1.30078-4.4375-1.11328-2.03125 3.60547-2.41016 1.39844"/><path fill="#00d4fc" fill-rule="evenodd" d="M361.48047 443.16406l-2.47266-2.78125 2.47266-2.34765 4.4375-1.41797v2.14062l-3.76563 1.625 3.76563 1.29297 2.19922-1.29297-2.19922-1.625v-2.14062l4.4375 2.71875 2.19922-3.39063.16406-4.4375-2.36328-3.625-.45703-.8125.45703-3.85156 4.4375.36328v1.82813l-2.3711 1.66015 2.3711 3.6875.88672.75-.59766 4.4375-.28906.90235-2.48047 3.53515.2461 4.4375 2.23437 2.48047.84375 1.96094-.84375 2.39453-1.23828 2.04297 1.23828 1.77734 1.78515 2.66016 2.65625 2.16406 1.82422-2.16406 2.61329-2.27344 2.78906-2.16406 1.64844-3.89063.53515-.54687-.53515-.5039-1.54688-3.9375-.3164-4.4375 1.86327-2.1836 2.44532-2.2539.84765-4.4375-3.22656-4.4375-.0664-.02735-.1211.02734-4.3164 1.57813-4.4375.05078-1.4297-1.6289-3.01171-1.66016v-1.82813l4.4414 1.6289 4.4375.91407 4.4375-.70703 4.4375 1.60937.03907.04297.79297 4.4375-.83204 1.3125-1.02343 3.125-3.41406 3.14844-1.10157 1.28906.51172 4.4375.58985 1.50781 3.11328 2.9336-3.11329 3.21484-.51953 1.22266-3.91796 3.04297-1.60547 1.39453-2.83204 3.35547-4.12109-3.35547-.32031-.47656-2.76563-3.96094.41407-4.4375-1.73829-4.4414-.34765-2.00391-4.4375.5625-4.4375-.21485"/><path fill="#00e8fc" fill-rule="evenodd" d="M361.48047 413.8125l-.02735-.0586.02735-.03124 4.4375-3.95313v1.91797l-2.3086 2.0664 2.3086 2.04688 3.16797-2.04687-3.16797-2.06641v-1.91797l4.4375 1.71485 1.71484 2.26953-1.71484 1.7539-4.4375 2.19531-4.4375-3.89062"/><path fill="#fff" fill-opacity="0" fill-rule="evenodd" d="M365.91797 423.4961l-3.77344 3.57421.2461 4.4375 3.52734.33985.60937-.33985-.125-4.4375-.48437-3.57422"/><path fill="#00c4fc" fill-rule="evenodd" d="M365.91797 441.67578l-3.76563-1.29297 3.76563-1.625 2.19922 1.625-2.19922 1.29297"/><path fill="#00d4fc" fill-rule="evenodd" d="M365.91797 415.80078l-2.3086-2.04687 2.3086-2.06641v1.91406l-.16797.15235.16797.14843.23047-.14843-.23047-.15235v-1.91406l3.16797 2.0664-3.16797 2.04688"/><path fill="#00c4fc" fill-rule="evenodd" d="M365.91797 413.90234l-.16797-.14843.16797-.15235.23047.15235-.23047.14843"/><path fill="#00d4fc" fill-rule="evenodd" d="M370.35547 471.5625l-.1289-.10938.1289-.8828.14453.8828-.14453.10938"/><path fill="#00c4fc" fill-rule="evenodd" d="M372.5586 444.82031l-.2461-4.4375 2.48047-3.53515.28906-.90235.59766-4.4375-.88672-.75-2.3711-3.6875 2.3711-1.66015 3.01172 1.66015 1.42969 1.6289 4.4375-.05077 4.3164-1.57813.1211-.02734v2.78906l-4.27344 1.67578-.16406.0586-4.4375.33984-3.00391 4.03906-1.39844 4.4375-.03906.39063-.3789 4.04687.3789.42578 1.73047 4.01563-1.5664 4.4375 3.08593 4.4375 1.1914.96875.81641-.96875 3.6211-3.15235 1.65625-1.28515 1.37109-4.4375-1.09375-4.4414-.1211-4.4375 2.625-3.07423 1.47657-1.36328-.2461-4.4375-1.23046-1.67578v-2.78906l.0664.02734 3.22656 4.4375-.84765 4.4375-2.44531 2.2539-1.86329 2.1836.31641 4.4375 1.54688 3.9375.53515.5039-.53515.54688-1.64844 3.89063-2.78906 2.16406-2.61329 2.27344-1.82421 2.16406-2.65625-2.16406-1.78516-2.66016-1.23828-1.77734 1.23828-2.04297.84375-2.39453-.84375-1.96094-2.23438-2.48047"/><path fill="#00b8fc" fill-rule="evenodd" d="M374.79297 445.2461l-.3789-.42579.3789-4.04687.03906-.39063 1.39844-4.4375 3.0039-4.03906 4.4375-.33984.16407-.0586 4.27344-1.67578v3.59766l-4.4375.7461-4.4375-.72657-1.85547 2.4961-.73438 4.4375.24219 4.4375.51953 4.4414-1.58594 4.4375 3.41406 4.23437 4.4375-3.82421.52735-.41016.72265-4.4375-.27343-4.4414.07812-4.4375 3.38281-3.96876.50782-.46875-.50781-2.51562v-3.59766l1.23046 1.67578.2461 4.4375-1.47656 1.36328-2.625 3.07422.12109 4.4375 1.09375 4.4414-1.3711 4.4375-1.65625 1.28517-3.62109 3.15234-.8164.96875-1.19141-.96875-3.08594-4.4375 1.5664-4.4375-1.73046-4.01563"/><path fill="#00a8fc" fill-rule="evenodd" d="M379.23438 457.9336l-3.41407-4.23438 1.58594-4.4375-.51953-4.4414-.24219-4.4375.73438-4.4375 1.85546-2.4961v1.54687l-.70703.94922-.0703 4.4375.77733 3.54297 3.73829.89453-3.73829.41016-.9453 4.03125-1.60548 4.4375 2.55079 3.16406 3.7578-3.16406-.28515-4.4375.96485-4.15625.01953-.28516.27343-4.4375-.29296-2.41406-1.52344-2.02344-2.91406-.94922v-1.54687l4.4375.72656 4.4375-.7461.5078 2.51563-.5078.46875-3.38282 3.96875-.07812 4.4375.27344 4.4414-.72266 4.4375-.52735.41017-4.4375 3.82421"/><path fill="#009800" fill-rule="evenodd" d="M379.23438 456.86328l-2.55079-3.16406 1.60547-4.4375.94531-4.03125v3.78515l-.05859.2461-1.6289 4.4375 1.6875 2.09375 2.48437-2.09375-2.27344-4.4375-.21094-.2461v-3.78515l3.73829-.41016-3.73829-.89453-.77734-3.54297.07031-4.4375.70704-.94922 2.91406.94922 1.52344 2.02344.29296 2.41406-.27343 4.4375-.01954.28516-.96484 4.15625.28516 4.4375-3.75781 3.16406"/><path fill="#00ac00" fill-rule="evenodd" d="M379.23438 455.79297l-1.6875-2.09375 1.6289-4.4375.0586-.2461v2.44141l-.82422 2.24219.82421 1.01953 1.21094-1.01953-1.21094-2.24219v-2.4414l.21094.24609 2.27344 4.4375-2.48438 2.09375"/><path fill="#00c800" fill-rule="evenodd" d="M379.23438 454.71875l-.82422-1.01953.82421-2.24219 1.21094 2.24219-1.21094 1.01953"/><path fill="#00d4fc" fill-rule="evenodd" d="M401.42578 451.45313l-1.35547-2.19141 1.35547-1.01172 2.83985-3.42969 1.59765-1.28515 4.4375-1.14063v1.32813l-2.92969 1.09765-1.5078 1.97656-1.91798 2.46485 1.91797 4.10156.07422.33594-.07422.83203-.39062 3.60547.39062.78515 3.66797 3.65235.76953.26953 4.4375 1.63281 4.4414-.55078 2.27735-1.35156-2.27734-2.33985-1.83203-2.09765.1914-4.4375-1.4336-4.4375-1.36718-2.82813-2.01953-1.61328-2.41797-1.09765v-1.32813l4.4375.33203.85547 2.09375 1.63281 4.4414 1.95313 3.4961.89453.9414-.79297 4.4375 4.26563 4.4375-4.3672 2.59376-4.4414.32422-4.4375-1.17969-4.4375-1.46094-.32422-.27734-2.14844-4.4375-.8828-4.4375-1.08204-2.2461"/><path fill="#00c4fc" fill-rule="evenodd" d="M405.86328 453.36328l-1.91797-4.10156 1.91797-2.46485 1.50781-1.97656 2.9297-1.09765v1.35156l-3.81642 4.1875 1.22266 4.4375.4375 4.4375 2.15625 2.14844 2.14453 2.28906 2.29297.88672 4.4414-.77344.1875-.11328-.1875-.19531-3.70312-4.2422-.73828-3.59374-.26172-.84375.26172-1.32031.2461-3.1172-.2461-.5078-4.4375-3.6797v-1.35155l2.41797 1.09765 2.01953 1.61328 1.36719 2.82813 1.4336 4.4375-.19141 4.4375 1.83203 2.09765 2.27734 2.33985-2.27734 1.35156-4.4414.55078-4.4375-1.63281-.76954-.26953-3.66797-3.65235-.39062-.78515.39062-3.60547.07422-.83203-.07422-.33594"/><path fill="#00b8fc" fill-rule="evenodd" d="M407.70703 453.69922l-1.22265-4.4375 3.8164-4.1875v1.44922l-2.4961 2.73828 1.66798 4.4375.82812 2.96484 1.33594-2.96484 1.80469-4.4375-3.14063-2.73828v-1.44922l4.4375 3.67969.2461.5078-.2461 3.1172-.26172 1.3203.26172.84376.73828 3.59375 3.70313 4.24219.1875.1953-.1875.11329-4.4414.77344-2.29298-.88672-2.14453-2.28906-2.15625-2.14844-.4375-4.4375"/><path fill="#00a8fc" fill-rule="evenodd" d="M409.47266 453.69922l-1.66797-4.4375 2.4961-2.73828v1.44922l-1.17188 1.28906 1.17187 2.77734 1.47656-2.77734-1.47656-1.28906v-1.44922l3.14063 2.73828-1.8047 4.4375-1.33593 2.96484-.82812-2.96484"/><path fill="#009800" fill-rule="evenodd" d="M410.30078 452.03906l-1.17187-2.77734 1.17187-1.28906 1.47656 1.28906-1.47656 2.77734"/><path fill="#fff" fill-opacity="0" fill-rule="evenodd" d="M419.17969 447.90234l-.15625 1.35938.15625.27734 1.61719-.27734-1.6172-1.35938m4.4375 3.51172l-.48827 2.28516.48828 1.33984.89844-1.33984-.89844-2.28516"/><path fill="#00e8fc" fill-rule="evenodd" d="M428.05469 455.58984l-1.41797-1.89062 1.41797-2.39453 4.4375-1.52735v1.59375l-3.14453 2.32813 3.14453 3.1289 3.20312-3.1289-3.20312-2.32813v-1.59375l4.4375.83594 1.39844 3.08594-1.39844 1.92969-2.6289 2.5078-1.8086 1.3125-1.86328-1.3125-2.57422-2.54687"/><path fill="#00d4fc" fill-rule="evenodd" d="M432.49219 456.82813l-3.14453-3.12891 3.14453-2.32813v1.59766l-.98828.73047.98828.98437 1.00781-.98437-1.00781-.73047v-1.59766l3.20312 2.32813-3.20312 3.1289"/><path fill="#00c4fc" fill-rule="evenodd" d="M432.49219 454.6836l-.98828-.98438.98828-.73047 1.00781.73047-1.00781.98437"/><path fill="#50fcfc" fill-rule="evenodd" d="M441.3711 478.51563l-2.92188-2.625 2.92187-2.76172 2.73438 2.76171-2.73438 2.625"/><g clip-path="url(#d)"><path fill="#fff" fill-opacity="0" fill-rule="evenodd" d="M467.9961 480.32813H468V311.67188h-.0039H468v168.65625h-.0039"/></g><path fill="#fff" fill-opacity="0" fill-rule="evenodd" d="M333.16406 428.4375l3.35547 4.78125 8.15625-5.71875-3.35547-4.78125-8.15625 5.71875"/><path fill-rule="evenodd" d="M341.82813 426.63672l.29296.41406-5.15234 3.61719-.45313-.64453 3.67579-2.57813-.79688-1.13672.45313-.3203.375.42187.1875.17578.20703.13672.23437.08593.26953.01954.32422-.05079.38281-.14062"/><path fill="#fff" fill-opacity="0" fill-rule="evenodd" d="M393.25 445.14844l1.71094-5.58594-9.52344-2.91797-1.71094 5.58594 9.52344 2.91797"/><path fill-rule="evenodd" d="M386.5039 439.42188l.14844-.48438 6.01954 1.83984-.23047.75391-4.29297-1.3164-.40625 1.32812-.53125-.16016.10156-.55469.02344-.2578-.01953-.2461-.07422-.23438-.15235-.23046-.23828-.21875-.34765-.21875"/><path fill="#fff" fill-opacity="0" fill-rule="evenodd" d="M382.85938 464.1914l5.27734-2.5078-4.27344-8.9961-5.27734 2.50781 4.27344 8.9961"/><path fill-rule="evenodd" d="M382.53516 455.34766l.45703-.21875 2.70312 5.6875-.71094.33593-1.92578-4.05468-1.2539.59375-.23828-.5.47656-.29688.20312-.16015.17188-.17579.1211-.21875.0664-.26171.0039-.32813-.07421-.40234"/><g clip-path="url(#e)"><path fill="none" stroke="#000" stroke-linecap="round" stroke-linejoin="round" stroke-miterlimit="10" stroke-width=".5" d="M142.64453 483.57031l2.71094-6.48437"/></g><g clip-path="url(#f)"><path fill="none" stroke="#000" stroke-linecap="round" stroke-linejoin="round" stroke-miterlimit="10" stroke-width=".5" d="M156.64844 483.77734l1.33203-6.89843"/></g><g clip-path="url(#g)"><path fill="none" stroke="#000" stroke-linecap="round" stroke-linejoin="round" stroke-miterlimit="10" stroke-width=".5" d="M169.60938 483.6914l2.04296-6.72265"/></g><g clip-path="url(#h)"><path fill="none" stroke="#000" stroke-linecap="round" stroke-linejoin="round" stroke-miterlimit="10" stroke-width=".5" d="M180.4336 480.48828l7.02343-.32031"/></g><g clip-path="url(#i)"><path fill="none" stroke="#000" stroke-linecap="round" stroke-linejoin="round" stroke-miterlimit="10" stroke-width=".5" d="M193.75781 480.60156l7.0039-.54687"/></g><g clip-path="url(#j)"><path fill="none" stroke="#000" stroke-linecap="round" stroke-linejoin="round" stroke-miterlimit="10" stroke-width=".5" d="M194.77734 480.52344l-.66015-1.03516"/></g><g clip-path="url(#k)"><path fill="none" stroke="#000" stroke-linecap="round" stroke-linejoin="round" stroke-miterlimit="10" stroke-width=".5" d="M207.38281 478.86328l6.38672 2.92969"/></g><path fill="none" stroke="#000" stroke-linecap="round" stroke-linejoin="round" stroke-miterlimit="10" stroke-width=".5" d="M208.3125 479.28906l-.07422-1.22265"/><g clip-path="url(#l)"><path fill="none" stroke="#000" stroke-linecap="round" stroke-linejoin="round" stroke-miterlimit="10" stroke-width=".5" d="M221.11719 478.17188l5.54687 4.3125"/></g><path fill="none" stroke="#000" stroke-linecap="round" stroke-linejoin="round" stroke-miterlimit="10" stroke-width=".5" d="M221.11719 478.17188l.41797-2.41797"/><g clip-path="url(#m)"><path fill="none" stroke="#000" stroke-linecap="round" stroke-linejoin="round" stroke-miterlimit="10" stroke-width=".5" d="M234.67969 477.88672l5.05078 4.88281"/></g><path fill="none" stroke="#000" stroke-linecap="round" stroke-linejoin="round" stroke-miterlimit="10" stroke-width=".5" d="M234.67969 477.88672l.67578-2.35938"/><g clip-path="url(#n)"><path fill="none" stroke="#000" stroke-linecap="round" stroke-linejoin="round" stroke-miterlimit="10" stroke-width=".5" d="M247.92188 477.96484l5.19921 4.72657"/></g><path fill="none" stroke="#000" stroke-linecap="round" stroke-linejoin="round" stroke-miterlimit="10" stroke-width=".5" d="M247.92188 477.96484l.60546-2.3789"/><g clip-path="url(#o)"><path fill="none" stroke="#000" stroke-linecap="round" stroke-linejoin="round" stroke-miterlimit="10" stroke-width=".5" d="M261.14844 478.0664l5.375 4.52735"/></g><path fill="none" stroke="#000" stroke-linecap="round" stroke-linejoin="round" stroke-miterlimit="10" stroke-width=".5" d="M261.14844 478.0664l.51562-2.40234"/><g clip-path="url(#p)"><path fill="none" stroke="#000" stroke-linecap="round" stroke-linejoin="round" stroke-miterlimit="10" stroke-width=".5" d="M274.45703 478.07031l5.38672 4.51563"/></g><path fill="none" stroke="#000" stroke-linecap="round" stroke-linejoin="round" stroke-miterlimit="10" stroke-width=".5" d="M274.45703 478.07031l.50781-2.39844"/><g clip-path="url(#q)"><path fill="none" stroke="#000" stroke-linecap="round" stroke-linejoin="round" stroke-miterlimit="10" stroke-width=".5" d="M287.3789 478.64844l6.17188 3.35937"/></g><path fill="none" stroke="#000" stroke-linecap="round" stroke-linejoin="round" stroke-miterlimit="10" stroke-width=".5" d="M287.3789 478.64844l.02344-2.45313"/><g clip-path="url(#r)"><path fill="none" stroke="#000" stroke-linecap="round" stroke-linejoin="round" stroke-miterlimit="10" stroke-width=".5" d="M300.61719 478.79688l6.32422 3.0625"/></g><path fill="none" stroke="#000" stroke-linecap="round" stroke-linejoin="round" stroke-miterlimit="10" stroke-width=".5" d="M300.61719 478.79688l-.08985-2.45313"/><g clip-path="url(#s)"><path fill="none" stroke="#000" stroke-linecap="round" stroke-linejoin="round" stroke-miterlimit="10" stroke-width=".5" d="M313.6914 479.45313l6.8086 1.75"/></g><path fill="none" stroke="#000" stroke-linecap="round" stroke-linejoin="round" stroke-miterlimit="10" stroke-width=".5" d="M313.6914 479.45313l-.57421-2.38282"/><g clip-path="url(#t)"><path fill="none" stroke="#000" stroke-linecap="round" stroke-linejoin="round" stroke-miterlimit="10" stroke-width=".5" d="M326.89844 480.26563l7.02734.125"/></g><g clip-path="url(#u)"><path fill="none" stroke="#000" stroke-linecap="round" stroke-linejoin="round" stroke-miterlimit="10" stroke-width=".5" d="M327.92188 480.28516l-.5586-1.09375"/></g><g clip-path="url(#v)"><path fill="none" stroke="#000" stroke-linecap="round" stroke-linejoin="round" stroke-miterlimit="10" stroke-width=".5" d="M340.75 478.46484l5.95313 3.73047"/></g><path fill="none" stroke="#000" stroke-linecap="round" stroke-linejoin="round" stroke-miterlimit="10" stroke-width=".5" d="M341.61328 479.00781l.08985-1.22656"/><g clip-path="url(#w)"><path fill="none" stroke="#000" stroke-linecap="round" stroke-linejoin="round" stroke-miterlimit="10" stroke-width=".5" d="M354.76563 483.00781l4.55078-5.35937"/></g><g clip-path="url(#x)"><path fill="none" stroke="#000" stroke-linecap="round" stroke-linejoin="round" stroke-miterlimit="10" stroke-width=".5" d="M368.1211 483.03906l4.46874-5.42187"/></g><g clip-path="url(#y)"><path fill="none" stroke="#000" stroke-linecap="round" stroke-linejoin="round" stroke-miterlimit="10" stroke-width=".5" d="M380.1836 479.90234l6.97656.85157"/></g><g clip-path="url(#z)"><path fill="none" stroke="#000" stroke-linecap="round" stroke-linejoin="round" stroke-miterlimit="10" stroke-width=".5" d="M381.19922 480.02734l-.4414-1.14453"/></g><g clip-path="url(#A)"><path fill="none" stroke="#000" stroke-linecap="round" stroke-linejoin="round" stroke-miterlimit="10" stroke-width=".5" d="M395.49219 483.50781l2.98828-6.35937"/></g><g clip-path="url(#B)"><path fill="none" stroke="#000" stroke-linecap="round" stroke-linejoin="round" stroke-miterlimit="10" stroke-width=".5" d="M409.27734 483.6914l2.04688-6.72265"/></g><g clip-path="url(#C)"><path fill="none" stroke="#000" stroke-linecap="round" stroke-linejoin="round" stroke-miterlimit="10" stroke-width=".5" d="M421.41797 483.07031l4.39453-5.48437"/></g><g clip-path="url(#D)"><path fill="none" stroke="#000" stroke-linecap="round" stroke-linejoin="round" stroke-miterlimit="10" stroke-width=".5" d="M436.26172 483.77734l1.33984-6.89843"/></g><g clip-path="url(#E)"><path fill="none" stroke="#000" stroke-linecap="round" stroke-linejoin="round" stroke-miterlimit="10" stroke-width=".5" d="M448.41406 483.32813l3.66406-5.9961"/></g><g clip-path="url(#F)"><path fill="none" stroke="#000" stroke-linecap="round" stroke-linejoin="round" stroke-miterlimit="10" stroke-width=".5" d="M461.91797 483.4336l3.28906-6.21094"/></g><g clip-path="url(#G)"><path fill="none" stroke="#000" stroke-linecap="round" stroke-linejoin="round" stroke-miterlimit="10" stroke-width=".5" d="M141.38281 469.35938l5.23438-4.69141"/></g><path fill="none" stroke="#000" stroke-linecap="round" stroke-linejoin="round" stroke-miterlimit="10" stroke-width=".5" d="M154.60938 469.25781l5.41015-4.48828m-4.6211 3.83594l-1.13671-.46875m13.3086.60156l6.12109-3.44922m-5.23047 2.94922l-1.03516-.66015m13.0664.09375l6.90626-1.31641m-5.89844 1.125l-.76953-.95703m13.09766-.26563l6.86328 1.51172m-5.86328-1.29297l-.33204-1.17969m13.03907-.04296l6.08203 3.51953m-6.08203-3.51953l.08593-2.44922m13.41407 2.16015l5.71093 4.09766m-5.71093-4.09766l.32812-2.42968m13.0625 2.33203l5.5625 4.29297m-5.5625-4.29297l.41016-2.41797m13.40234 1.89453l4.5664 5.33984m-4.5664-5.33984l.89844-2.28516m-.23438 3.0625l.44922-1.14453m12.08203.47266l4.8047 5.1289m-4.8047-5.1289l.78907-2.32031m-.08985 3.0664l.39453-1.16015m12.01563.625l5.21875 4.70703m-5.21875-4.70703l.59375-2.37891m.16406 3.0625l.29688-1.1875m12.35156.40625l5.03515 4.90234m-5.03515-4.90234l.6875-2.35547m12.80078 2.1875l4.6836 5.23828m-4-4.47656l.42187-1.15234m11.28515 1.71875l6.53516 2.58203m-5.58594-2.20703l-.13671-1.21875m12.30468 1.5625l6.9336 1.14453m-6.9336-1.14453l-.78515-2.32422m14.25 1.73047l6.6289 2.33203m-5.66406-1.99219l-.1836-1.21094m13.15235 4.28516l5.39844-4.4961m-4.61328 3.84375l-1.13672-.46484m13.54687.97266l5.63281-4.20703m-4.8125 3.59375l-1.10937-.52344m13.32813.70312l6.18359-3.33984m-5.28125 2.85547l-1.02344-.67969m13.80078 1.70703l5.45703-4.42578m-4.66406 3.78125l-1.1289-.47656m14.51562 1.88672l3.73047-5.95703m-3.1875 5.08984l-1.22656-.08594m13.65625.70703l4.41406-5.46484m-3.77344 4.67187l-1.20312-.23437m14.41406 1.38672l3.33984-6.1836m-2.85156 5.28516l-1.22656-.00781m13.13672.1914l5.17578-4.7539m-4.42578 4.0625l-1.15625-.41016m15.16796 2.04688l2.28125-6.64453m-2.28125 6.64453l-2.42578.38672"/><g clip-path="url(#H)"><path fill="none" stroke="#000" stroke-linecap="round" stroke-linejoin="round" stroke-miterlimit="10" stroke-width=".5" d="M141.0664 455.6289l5.8672-3.86327"/></g><path fill="none" stroke="#000" stroke-linecap="round" stroke-linejoin="round" stroke-miterlimit="10" stroke-width=".5" d="M154.34766 455.58203l5.93359-3.76562m-5.9336 3.76562l-2.1328-1.21094m14.92577-.25l6.97657-.84375M168.15625 454l-.70313-1.00781m12.98829.4336l7.0078.54687m-5.98827-.46875l-.48828-1.125m13 .08203l6.57422 2.47656m-6.57422-2.47656l-.31641-2.4336m13.60547 2.4961l6.625 2.34765m-6.625-2.34765l-.35938-2.42578m14.3047 1.33593l5.36718 4.53125m-5.36719-4.53125l.51563-2.39843m13.39843 1.83593l4.16797 5.65625m-4.16797-5.65625l1.0586-2.21484m12.60547 1.98828l3.46875 6.10938m-3.46875-6.10938l1.3164-2.07422m12.10156 2.01953l3.26563 6.21875m-3.26563-6.21875l1.38282-2.02734m11.78906 2.10547l3.55078 6.0625m-3.55078-6.0625l1.28906-2.08984m12.45313 1.875l2.69531 6.48828m-2.30078-5.54297l.77734-.94922m12.57422-.14063l1.83594 6.78125m-1.57031-5.79687l.89453-.83984m13.15625-.26563l-.16797 7.02344m.14453-6.0039l1.09375-.55079m12.80469-.41016l-1.28907 6.90625m1.10157-5.90234l1.17187-.36719m10.80078-.58593l1.77344 6.80078m14.67969-.70313L354.78907 451m12.9414 5.03516l5.25-4.67188m8.0625 4.66406l5.25781-4.66015m-4.4961 3.98437l-1.14843-.42968m13.5.85937l5.66016-4.16406m6.97265 2.1836l7.02344-.20704m-6 .17969l-.60938-1.0664m13.13672 2.2578l6.5547-2.53125m-5.60157 2.16407l-.92969-.8047m13.4414 1.50782l6.25391-3.20312m-6.2539 3.20312l-2.01172-1.40234m15.38281 1.50781l6.14063-3.41406m-6.14063 3.41406l-2.0586-1.33203m16.30079 2.41016l4.28515-5.57032m-4.28515 5.57032L459 456.07422"/><g clip-path="url(#I)"><path fill="none" stroke="#000" stroke-linecap="round" stroke-linejoin="round" stroke-miterlimit="10" stroke-width=".5" d="M140.57813 441.17969l6.84375-1.58985"/></g><path fill="none" stroke="#000" stroke-linecap="round" stroke-linejoin="round" stroke-miterlimit="10" stroke-width=".5" d="M154.21484 442.03906l6.19922-3.3125m-5.29687 2.83203l-1.01953-.68359m13.02734-.70703l7.01172.42969m-5.99219-.3672l-.50781-1.11718m12.80469 1.01172l7.0078.51563m-5.98827-.4375l-.4961-1.125m12.8711.51953l6.84765 1.5703m-5.85156-1.33983l-.32031-1.1875m14.46094-1.38282l3.20703 6.25m-2.74219-5.33984l.69922-1.00781m12.92187-.19141l1.66407 6.82813m-1.42188-5.83204l.91797-.8164m12.7539-.26953l.46485 7.01171m-.39453-5.99218l1.03906-.64844m11.98438-.35156l.91015 6.96875m-.77734-5.95313l.9961-.71094m12.26562-.3125l.75 6.98829m-.64063-5.97266l1.01563-.6875m12.40234-.34375l.32422 7.01953m-.27734-6l1.05468-.625m13.75-.1211l-2.75 6.46876m2.35157-5.52735l1.22265-.10547m11.96485-1.01171l-1.69532 6.8203m1.44922-5.82812l1.1875-.29687m13.07422-.4375l-3.09765 6.30469m2.64843-5.38672l1.22657-.03906m12.28906-.98829l-2.60156 6.52735m2.22265-5.57813l1.22266-.13672m12.53515-.78906l-2.72656 6.47656m2.32813-5.53515l1.22265-.10938m13.79688.125l-5.33985 4.5664m4.5625-3.90233l1.14454.44921m11.21484-2.21875l-1.8711 6.77344m1.59766-5.78515l1.19922-.26954m9.01172 5.19532l4.88281-5.05078m-4.17187 4.3164l-1.1797-.33984m13.54688.82422l5.35547-4.5547m-4.57422 3.89063l-1.14062-.44921m15.22266 2.16406l2.2578-6.65625m-1.92968 5.6875l-1.21094.19922m15.3711.95703l-.08985-7.02735M433.60156 441.5l6.66016-2.23437m-5.6914 1.91015l-.89063-.84375m14.50781 2.89844l4.11719-5.69531m-3.51953 4.86718l-1.21485-.16796m12.6289-.82813l6.72267-2.04297m-5.7422 1.7461l-.86718-.8711"/><g clip-path="url(#J)"><path fill="none" stroke="#000" stroke-linecap="round" stroke-linejoin="round" stroke-miterlimit="10" stroke-width=".5" d="M140.57031 426.30078l6.85938 1.53516"/></g><path fill="none" stroke="#000" stroke-linecap="round" stroke-linejoin="round" stroke-miterlimit="10" stroke-width=".5" d="M154.5664 429.25781l5.4961-4.3789m-4.69531 3.74218l-1.125-.48828m15.07031 2.1914l2.63672-6.51171m8.66016 2.15234l6.67187 2.20704m-5.70313-1.88282l-.20703-1.21093m15.96875-1.52344l-.15625 7.02734m.13282-6.0039l1.09375-.55079m11.0625-.29687l2.20703 6.67578m-1.88672-5.70312l.84766-.88672m14.41015-.0625l-2.32031 6.6289m1.98437-5.66406l1.21094-.1875m11.15234-.97266l.25391 7.01954m-.21875-6l1.0625-.61329m13.1836-.30859l-1.67579 6.82422m1.4336-5.83203l1.1875-.30078m12.71484-.58594l-2.36719 6.61328m2.02344-5.65234l1.21485-.17578m13.80859.10156l-5.09766 4.83984m4.35547-4.13281l1.16406.38672m12.01563-1.76563l-3.34375 6.1836m2.85937-5.28125l1.22657.0078m12.83984-.75L301.84375 430m3.875-5.86328l2.4414.23437m11.7461.58594l-5.6211 4.22266m4.80079-3.60938l1.11328.52344m12.30469-1.84766l-4.1875 5.64454m3.57812-4.82032l1.21484.17969m12.28907-1.26953l-3.34766 6.17578m2.86328-5.27734l1.22656.0078m12.84375-.74608l-3.88671 5.85546m3.3203-5.0039l1.22266.1211m10.4375-1.54688l.5547 7.0039m-.47266-5.98437l1.03515-.66016m9.84375 5.46875l5.26563-4.65234m-4.5 3.97656l-1.14844-.4336m14.10547 1.50391l4.44922-5.4375m-3.80078 4.64453l-1.20313-.24218m14.0664 1.18359l4.0586-5.73828m-3.46875 4.90234l-1.21875-.15625m12.8125-.33984l6.32031-3.07422m-5.40234 2.6289l-.99219-.72265m16.92969-3.86328l-.76172 6.98828m.65234-5.96875l1.13672-.45703m10.02735-.03906l3.75781 5.9414m8.11328-4.10937l6.64844 2.27734m-5.6836-1.94531l-.1914-1.21094"/><g clip-path="url(#K)"><path fill="none" stroke="#000" stroke-linecap="round" stroke-linejoin="round" stroke-miterlimit="10" stroke-width=".5" d="M146.91016 411.78516l-5.82032 3.9375"/></g><path fill="none" stroke="#000" stroke-linecap="round" stroke-linejoin="round" stroke-miterlimit="10" stroke-width=".5" d="M146.0625 412.35547l1.08594.57422m13.67187 1.04297l-7.01172-.4375m20.23828-.59766l-6.83593 1.63281m20.1875-.16015l-6.90625-1.3125m5.89844 1.12109l.36328 1.17187m12.82422 1.00391l-4.63672-5.28125m14.37109-.64062l2.52344 6.55859m-2.15625-5.60156l.80469-.92969m16.41406 1.4375l-6.01563 3.63281m19.16797-3.8789l-5.6914 4.12109m5.6914-4.1211l2.20313 1.08204m11.57812-.19532l-6.6211 2.35157m5.65626-2.01172l.90625.82812m12.9336-2.01562l-5.7422 4.04687m5.7422-4.04687l2.1914 1.10547m11.74219.52343l-6.98047.78907m6.98047-.78907l1.39062 2.02344m11.38281-3.54297l-5.89453 3.82422m5.03516-3.26562l1.07422.59375m13.21484-.96485l-6.125 3.44922m5.23438-2.94531l1.03125.66016m12.625-1.89454l-5.02735 4.91407m5.02735-4.91407l2.33593.7461m10.75782-.95313l-4.58594 5.32422m4.58594-5.32422l2.39453.54297m10.6289-.76562l-4.0039 5.77343m3.42187-4.93359l1.21875.14453m11.92969-1.38281l-2.5 6.57031m2.13281-5.61328l1.21875-.15234m12.63672-.73047l-2.85156 6.42187m2.85156-6.42187l2.44922-.17188m11.73437.71875l-4.58593 5.32422m12.35547-3.98828l6.5039 2.65625m-5.5586-2.26953l-.125-1.22266m13.60157-.62109l4.28906 5.5664m-3.66406-4.7539l.50781-1.11719m15.17969-.32031l-1.70312 6.8164m1.45312-5.82421l1.1914-.29688m11.42579-.79687l.1914 7.02343m-.1914-7.02343l2.13281-1.21094m9.9961 1.44922l2.5625 6.54297m-2.5625-6.54297l1.59765-1.86328m10.27734 2.91797l5.44532 4.4375m-5.44532-4.4375l.47266-2.41016"/><g clip-path="url(#L)"><path fill="none" stroke="#000" stroke-linecap="round" stroke-linejoin="round" stroke-miterlimit="10" stroke-width=".5" d="M145.97656 397.53516l-3.95312 5.80859"/></g><path fill="none" stroke="#000" stroke-linecap="round" stroke-linejoin="round" stroke-miterlimit="10" stroke-width=".5" d="M145.40234 398.3789l1.21875.13282m14.20313 1.72656l-7.01563.39844m5.9922-.33985l.63671 1.05079m12.72266 1.53125L168.10156 398m4.32031 4.16797l-.33593 1.17969m14.3789-.45704l-5.03906-4.90234m4.30469 4.1875l-.34375 1.17969m13.35156-6.10547l-2.95703 6.375m12.92578-6.16406l3.73438 5.95312m-3.19141-5.08594l.61328-1.0625m11.67578.5625l4.70313 5.21875m-4.01953-4.46093l.41797-1.15235m17.95312 3.94141l-6.77344-1.8711m6.77344 1.8711l.53125 2.39453M254 399.94141l-6.95703.99609M254 399.9414l1.44531 1.98048m11.89844-1.3086l-7.01563-.35156m5.9961.30078l.51953 1.11328m13.80078-1.59765l-6.98828.72265m6.98828-.72265l1.3711 2.03515m-2.38672-1.92969l.68359 1.01954m12.9375-2.90625l-5.57031 4.28515m5.57031-4.28515l2.23438 1.01562m-3.04297-.39453l1.11718.50781m12-2.01953l-3.55468 6.0625m3.55468-6.0625l2.44922.10156m9.4375-.5664l-.69922 6.99218m.69922-6.99218l2.26953-.9297m-2.37109 1.94923l1.13672-.46485m10.75-.36718l2.35937 6.62109m-2.35937-6.6211l1.65625-1.8125m12.98437 1.61329l-.28906 7.01953m.2461-6l1.10546-.53125m10.97657-.30469l2.26171 6.65235m-1.93359-5.6875l.83985-.89063m11.67578.125l3.20703 6.2539m-3.20703-6.2539l1.40234-2.01563m12.97266 1.67188l1.08203 6.9414m11.69922-6.8164l2.15234 6.6875m-1.83984-5.71484l.85546-.87891m16.60938 2.3164l-6.77344 1.8672m17.15625-4.41798l-.91015 6.96875m.77734-5.95312l1.15234-.42969m11.82422-.61328l.03516 7.02735m-.03516-7.02735l2.16016-1.16406m10.0664 1.33984l2.21094 6.67188m-2.21094-6.67188l1.69532-1.77344m-1.375 2.7461l.84765-.88672m11.27344.34766l3.96094 5.80468m-3.96094-5.80468l1.14063-2.17188m-.56641 3.01563l.57031-1.08594"/><g clip-path="url(#M)"><path fill="none" stroke="#000" stroke-linecap="round" stroke-linejoin="round" stroke-miterlimit="10" stroke-width=".5" d="M142.89844 383.78516l2.20312 6.67578"/></g><path fill="none" stroke="#000" stroke-linecap="round" stroke-linejoin="round" stroke-miterlimit="10" stroke-width=".5" d="M159.79297 389.61719l-4.95313-4.98828m16.82813 5.85156l-2.07813-6.71485m1.77735 5.73829l-.86328.87109m12.12109-6.50781l2.64063 6.51172m9.78125-5.98438l4.42968 5.45703m-3.78515-4.66406l.47656-1.1289m15.375-.3125l-1.9336 6.7539m1.9336-6.7539l2.39844-.51173m9.1914.45704l1.51563 6.86328m-1.29297-5.86328l.9336-.79688m15.40234 5.71485l-4.96875-4.96875m4.96875 4.96875l-.71875 2.34375m-.00391-3.06641l-.35938 1.17187m15.0547-1.37109l-6.28907-3.1289m6.28906 3.1289l.0664 2.45313m13.4922-4.94532l-6.77735 1.85547m6.77735-1.85547l1.68359 1.78516m-2.66797-1.51563l.83985.89063m13.58593-.33594l-7.02344.21094m7.02344-.21094l1.21485 2.1289m11.3203-4.23046l-5.46874 4.41015m4.67578-3.76953l1.125.48047m12.1211-1.89062l-3.7422 5.94922m3.7422-5.94922l2.44921.17969m10.03516-.5625l-2.08203 6.71484m2.08203-6.71485l2.41016-.45703m-2.71485 1.4336l1.20703-.22656m12.48438-.72657l-2.22266 6.66797m2.22266-6.66797l2.41797-.40625m-2.7422 1.3789l1.21095-.20702m12.46484-.7539l-2.29687 6.64452m2.29687-6.64453l2.42188-.3789m10.02343.19921l-.5586 7.00391m.5586-7.0039l2.25-.97657m11.6836 1.08203l-1.79688 6.79297m1.53516-5.80469l1.19531-.28125m13.25-.34765l-3.53516 6.07422m3.53516-6.07422l2.45313.09375m-2.96485.78906l1.22656.05078m12.91016-.73047l-4.15234 5.66797m4.15234-5.66797l2.42969.35156m11.53515.26563l-5.45312 4.4336m4.66016-3.78907l1.1289.47656m11.17969-2.29296l-1.85156 6.77734m1.58203-5.79297l1.19531-.26953m9.35547-.13672l4.21484 5.6211m-3.60156-4.8047l.51953-1.10937m13.47656-.3164l1.625 6.83984m-1.625-6.83985l1.84375-1.62109m12.39454 1.53125l-.21875 7.02344m.21875-7.02344l2.20312-1.08594m-2.23437 2.10547l1.10156-.54297"/><g clip-path="url(#N)"><path fill="none" stroke="#000" stroke-linecap="round" stroke-linejoin="round" stroke-miterlimit="10" stroke-width=".5" d="M140.54297 374.4336l6.91406-1.25"/></g><path fill="none" stroke="#000" stroke-linecap="round" stroke-linejoin="round" stroke-miterlimit="10" stroke-width=".5" d="M155.03125 376.47656l4.5664-5.33984m-3.90234 4.5664L154.5 375.4336m14.51172 1.4922l3.23437-6.23829m-2.76172 5.33203l-1.22656.01172m18.90625-.8164l-6.4375-2.8125m5.5 2.40234l.09766 1.22265m14.41406-2.71484l-6.95703.99219m5.94531-.84766l.72266.99219m10.29687-4.15235l-.33984 7.01954m.28906-5.9961l1.10938-.52344m15.54297 2.39063l-6.91407 1.23828m5.91016-1.05469l.75781.96485m12.2539 2.2539l-4.29687-5.5625m4.29688 5.5625l-1.01172 2.23438m15.41406-3.64844l-6.47265-2.73437m6.47265 2.73437l.21875 2.4414m12.90625-5.55859l-6.09375 3.5m6.09375-3.5l2.07813 1.3047m11.36328-1.06642l-6.34766 3.02344m6.34766-3.02344l1.96875 1.46094m10.78515-2.29687l-5.22656 4.69531m5.22656-4.69531l2.3047.83984m-3.0625-.15625l1.15234.41797m11.0625-2.1875l-1.50782 6.86328m1.50782-6.86328l2.36328-.65625m8.83984.84766l2.71485 6.48437m-2.71485-6.48437l1.55469-1.89844m11.24219 2.16797l3.75 5.94531m-3.20313-5.07813l.60938-1.0664m12.26171.13672l3.54688 6.0664m-3.03125-5.18359l.64453-1.04297m13.15235-.23047l1.55078 6.85156m-1.55079-6.85156l1.85547-1.60547m9.26563 3.15235l5.9375 3.75781m-5.07422-3.21094l.09375-1.22265m12.25.85546l6.15234 3.39844m-5.2539-2.90234l.01953-1.22656m15.35547-1.08204l.23828 7.02344m-.23828-7.02344l2.125-1.22656m12.5664 1.45703l-2.51562 6.5625m2.51562-6.5625l2.4375-.30078m11.44141.57422l-3.64063 6.01172m3.64063-6.01172l2.44922.13672m9.48437-.61719l-.8789 6.97266m.75-5.95703l1.14453-.4375m11.83984-.60547l.04297 7.02734m-.04297-7.02734l2.15625-1.16406m11.5664 1.1875l-.77733 6.98437m.77734-6.98437l2.28125-.90625m-2.39453 1.92187l1.14062-.45312"/><g clip-path="url(#O)"><path fill="none" stroke="#000" stroke-linecap="round" stroke-linejoin="round" stroke-miterlimit="10" stroke-width=".5" d="M140.48828 360.3711l7.02344.24218"/></g><path fill="none" stroke="#000" stroke-linecap="round" stroke-linejoin="round" stroke-miterlimit="10" stroke-width=".5" d="M154.63672 362.76563l5.35547-4.54688m-5.35547 4.54688l-2.28125-.90235m3.0625.24219l-1.14063-.45313m14.15235 1.58204l4.39844-5.48047m-4.39844 5.48046l-2.41016-.45703m18.91016 1.08985l-1.96875-6.7461m1.6836 5.76172l-.87892.85938m14.42188.14062l-1.85547-6.77734m1.85547 6.77734l-1.78516 1.6836m16.9336-7.25l-5.51953 4.35156m4.71484-3.71875l1.125.4961m13.0664 3.1289l-5.66406-4.16406m5.66407 4.16406l-.35547 2.42969m-.46875-3.03516l-.17969 1.21484m14.33203-.6289l-5.6914-4.1211m5.6914 4.1211l-.33594 2.42969m14.32032-4.5625l-7.02735.14062m7.02735-.14063l1.1953 2.14454m12.01173-2.9297l-6.8125 1.71485m6.8125-1.71484l1.64453 1.82031m-2.63672-1.57031l.82422.91015m12.59375-2.7539l-5.03516 4.90234m5.03516-4.90234l2.33594.75m-3.06641-.03516l1.16797.3711m10.26953-2.14844l.17969 7.02344m-.17969-7.02344l2.13672-1.20703m-2.10938 2.23047l1.07032-.60547m11.11718-.21094l2.38282 6.60938m-2.38282-6.60938l1.64453-1.8164m-1.30078 2.77734l.82422-.90625m11.8125.08594l3.05078 6.33203m-3.05078-6.33204l1.45313-1.97656m11.98828 1.91797l2.80078 6.44531m-2.80078-6.4453l1.52734-1.91798m10.94531 2.4375l4.48438 5.41016m-3.83203-4.625l.46484-1.13281m13.875-.41797l1.1289 6.9375m-.96484-5.92578l.97657-.7422m15.1836 5.72267l-4.88673-5.04688m14.64453 5.85938l2.22266-6.66797m9.32031 1.32812L399.8711 362.5m-5.76953-4.01172l.28906-2.4375m14.26172 1.33985l3.30078 6.20312m-2.8203-5.30078l.68359-1.01563m14.8789-.1289l-2.16015 6.6875m1.84765-5.71485l1.20703-.21484m11.7422-.90234l-.80079 6.98046m.6836-5.96484l1.14062-.44922m10.21875-.16797l3.34765 6.1797m-3.34765-6.1797l1.35547-2.04296m13.07422 1.66406l1.11328 6.9375m-1.11328-6.9375l1.95703-1.48047"/><g clip-path="url(#P)"><path fill="none" stroke="#000" stroke-linecap="round" stroke-linejoin="round" stroke-miterlimit="10" stroke-width=".5" d="M141.10938 345.17969l5.78125 3.9961"/></g><path fill="none" stroke="#000" stroke-linecap="round" stroke-linejoin="round" stroke-miterlimit="10" stroke-width=".5" d="M153.98438 348.29688l6.66015-2.23438m-6.66016 2.23438l-1.78125-1.69141m16.44532 3.47265l3.96484-5.80078m-3.96484 5.80079l-2.4375-.26954m3.01562-.57421l-1.22265-.13672m16.0078 1.59375l-.1328-7.02735m.1328 7.02735l-2.14452 1.1914m15.14062-1.19922l.50781-7.01171m-.5078 7.01171l-2.2461.9922m18.7539-6.42188l-5.8789 3.84765m5.8789-3.84765l2.14844 1.17968m10.35547 3.53907l-4.25781-5.58985m4.25781 5.58985l-1.02344 2.23046m.40235-3.04296l-1.02344 2.23046m15.70703-2.1914l-5.75-4.04297m5.75 4.04297l-.30469 2.4336m-.53515-3.02344l-.14844 1.21875m14.71875-1.42579l-6.58594-2.44921m6.58594 2.44921l.32422 2.4336m12.00781-6.30469l-4.61719 5.29688m4.6172-5.29688l2.39062.55469m8.3828-1.41406l.46485 7.01171m-.46484-7.01171l2.08594-1.29297m-2.01563 2.3125l1.04297-.64454m13.04297-.32812l-1.21484 6.92188m1.21484-6.92188l2.33203-.76172m11.53125.90235l-2.3164 6.63671m2.3164-6.63671l2.42578-.3711m11.0664.4414l-2.66796 6.5m2.66797-6.5l2.4414-.24218m10.0625.01563l-1.04687 6.94921m1.04687-6.94921l2.31641-.81641m11.51563.9336l-2.07813 6.71484m1.77344-5.73829l1.20703-.23046m13.15625-.41797l-3.5664 6.0586m3.04687-5.17579l1.22656.05469m14.3125 2.51953l-6.97656-.85156m6.97656.85156l.88281 2.28906m12.45703-2.82031l-7.02343.20703m7.02343-.20703l1.21485 2.13281m9.3789-5.45312l-1.58203 6.84765m1.35157-5.85156l1.1875-.3164m8.36328 1.30468l6.41015 2.8789m-6.41015-2.8789l-.16407-2.44922m14.57422 1.07813l4.21485 5.6211m-4.21485-5.6211l1.04297-2.22266m12.4961 2.07031l3.76953 5.9297m-3.76953-5.9297l1.21093-2.13671m12.1289 2.11718l3.71876 5.96485m-3.71875-5.96485l1.23047-2.1211m11.01562 3.16407l5.85938 3.8789m-5.85938-3.8789l.23438-2.4414"/><g clip-path="url(#Q)"><path fill="none" stroke="#000" stroke-linecap="round" stroke-linejoin="round" stroke-miterlimit="10" stroke-width=".5" d="M142.05078 330.9414l3.89844 5.84376"/></g><path fill="none" stroke="#000" stroke-linecap="round" stroke-linejoin="round" stroke-miterlimit="10" stroke-width=".5" d="M154.3125 332.03906l6.0039 3.64844m-5.1289-3.11719l.07031-1.22656m14.2461 5.84766l2.2539-6.65625m-2.2539 6.65625l-2.42188.39453m17.15234-.22266l-.57812-7.0039m.57813 7.0039l-2.06641 1.32813m1.98047-2.34375l-1.03125.66015m15.22656.19922l-2.16406-6.6875m2.16406 6.6875l-1.70703 1.76172m1.39062-2.73438l-.85156.87891m16.91406-3.21875l-7.02734-.0625m7.02734.0625l1.13282 2.17578m-2.15625-2.1836l1.1328 2.17579m12.51563-.10938l-5.64843-4.17968m5.64843 4.17969l-.36328 2.42968m-.46094-3.03515l-.36328 2.42578m14.98828-2.73828l-6.62109-2.34375m6.6211 2.34375l.36328 2.42578m-1.32422-2.76563l.36328 2.42578m14.10156-3.58593l-6.9961.65625m6.9961-.65625l1.34766 2.05078m10.09375-4.83985l-3.25 6.23438m3.25-6.23438l2.45312-.01953m10.78906-.01562l-3.10546 6.30469m3.10547-6.3047l2.45312-.07421m10.96484.1289l-3.3125 6.19532m3.3125-6.19531l2.45313.0039m11.25.23438l-4.08594 5.71875m4.08594-5.71875l2.42969.3203m11-.23437l-4.31641 5.54688m4.3164-5.54688l2.41797.42188m10.65625-.59375l-3.83593 5.88672m3.83593-5.88672l2.44532.21875m11.0625-.08594l-4.21875 5.625m4.21875-5.625l2.42187.3789m11.91406.83594l-6.26171 3.19532m6.26171-3.19531l2.00782 1.40625m11.55468 1.15234l-6.7578-1.92578m6.7578 1.92578l.51563 2.40234m-1.5-2.67969l.25781 1.19922m13.78125-3.5039l-6.23437 3.24219m6.23437-3.2422l2.01953 1.39063m-2.92578-.91797l1.00781.69532m12.30079-2.28125l-4.41016 5.46875m4.41016-5.46875l2.41015.46093m9.86328-1.04296l-2.32422 6.6328m2.32422-6.6328l2.42578-.3711m8.4922.39844l2.46874 6.57812m-2.46875-6.57812l1.625-1.83985m10.34375 2.7422l5.16016 4.77343m-5.16016-4.77344l.6289-2.3711m.1211 3.06642l.3164-1.1875M447.26563 332l5.96094 3.72656M447.26562 332l.17188-2.44531m.69531 2.98828l.08594-1.22266m11.97656 1.54297l6.73438 2m-6.73438-2l-.48828-2.40625m1.46484 2.69531l-.24218-1.20312"/><g clip-path="url(#R)"><path fill="none" stroke="#000" stroke-linecap="round" stroke-linejoin="round" stroke-miterlimit="10" stroke-width=".5" d="M144.52344 317.07422l-1.04688 6.94922"/></g><path fill="none" stroke="#000" stroke-linecap="round" stroke-linejoin="round" stroke-miterlimit="10" stroke-width=".5" d="M144.3711 318.08594l1.15624-.41016m15.29688 3.02735l-7.01953-.3086m6 .26172l.52734 1.10938m11.70313 2.0039l-2.8086-6.4414m2.8086 6.4414l-1.52735 1.92188m1.11719-2.85938l-.76172.96094m14.22266.07812l-2.28125-6.64843m2.28125 6.64843l-1.67578 1.79297m1.34375-2.75781l-1.67578 1.78906m16.625-1.6211l-4.88672-5.05077m4.88672 5.05078l-.75782 2.33203m.04688-3.0664l-.75781 2.33202m15.8125-3.58984l-6.94532-1.0664m6.94531 1.0664l.8086 2.3164m-1.8164-2.47265l.80859 2.3164m13.51172-2.14452l-6.9375-1.10157m6.9375 1.10157l.80078 2.3203m-1.8086-2.48046l.79688 2.32031M240.67578 320l-6.9414 1.09766M240.67577 320l1.47656 1.95703m-2.48828-1.79687l1.47656 1.95703m12.4961-3.19531l-6.23047 3.25m6.23047-3.25l2.02344 1.39062m-2.9297-.91797l1.01173.69531m12.75-1.84375l-5.3125 4.60157m5.3125-4.60157l2.28906.88672m-3.0625-.21484l1.14453.4414m12.89063-1.16796l-5.20703 4.71484m5.20703-4.71484l2.30859.83203m-3.0664-.14844l1.15624.41797m12.73828-1.28516l-4.85156 5.08203m4.85156-5.08203l2.36329.66016m-3.06641.07812l1.17969.33204m12.58203-1.29297l-4.33594 5.52734m4.33594-5.52734l2.41406.42968m11.25-.11718l-5.03515 4.89843m5.03515-4.89843l2.33594.75m11.74219.4414l-6.5625 2.51563m6.5625-2.51563l1.85156 1.61328m11.30078-1.97656l-6.23438 3.2461m6.23438-3.2461l2.01953 1.39063m11.34766-1.28907l-6.33594 3.03907m6.33594-3.03907l1.97265 1.45704m11.66797-.30079l-6.98828.73047m6.98828-.73047l1.3711 2.03125m11.59375-3.23046l-6.28907 3.1289m6.28907-3.1289l1.99609 1.42578m-2.91016-.97266l.9961.71484m13.05078-1.49218l-5.92578 3.77343m5.92578-3.77343l2.13672 1.21093m-2.9961-.66015l1.06641.60547m12.30469-2.03907l-4.32031 5.54297m4.3203-5.54297l2.41798.42188m-3.04688.38281l1.21094.21485m10.77734-1.75782l-.40625 7.01563m.40625-7.01563l2.23047-1.02344m-2.28906 2.04688l2.23047-1.02734m9.3086.39843l3.26171 6.22657m-3.26172-6.22657l1.38672-2.02343m-.91016 2.92968l.69141-1.01171m17.26172 2.7578l-6.96485.92579m6.96485-.92578l1.42578 1.9961m-2.4414-1.86329l.71484 1m12.86719-2.875l-5.47266 4.41016"/><g clip-path="url(#S)"><path fill="none" stroke="#000" stroke-linecap="round" stroke-linejoin="round" stroke-miterlimit="10" stroke-width=".5" d="M466.29688 318.34375l2.2578.96484"/></g><g clip-path="url(#T)"><path fill="none" stroke="#000" stroke-linecap="round" stroke-linejoin="round" stroke-miterlimit="10" stroke-width=".5" d="M465.5 318.98438l2.25781.96484"/></g><path fill="none" stroke="#000" stroke-linecap="round" stroke-linejoin="round" stroke-miterlimit="10" stroke-width=".5" d="M464.70703 319.625l1.125.48438"/><path fill="#00f" fill-rule="evenodd" d="M401.55469 463.21094h8.61719V453.0625h-8.6172v10.14844"/><path fill="azure" fill-rule="evenodd" d="M403.38672 454.89844h.83203v2.82031h3.28906v-2.82031h.83203v6.48047h-.83203v-2.91797h-3.28906v2.91797h-.83203v-6.48047"/><path fill="#ff3030" fill-rule="evenodd" d="M206.96094 441.01953h7.6914V430.8711h-7.6914v10.14844"/><path fill="azure" fill-rule="evenodd" d="M208.79297 432.70703h.83203v5.73828h3.19531v.73828h-4.02734v-6.47656"/><path fill="#00f" fill-rule="evenodd" d="M388.23828 436.57813h8.61719v-10.14454h-8.61719v10.14454"/><path fill="azure" fill-rule="evenodd" d="M390.07031 428.26563h.83594v2.82421h3.28516v-2.82421h.83203v6.48046h-.83203v-2.91406h-3.28516v2.91406h-.83594v-6.48046"/><path fill="#ff3030" fill-rule="evenodd" d="M322.35938 432.14063h7.6914v-10.14454h-7.6914v10.14454"/><path fill="azure" fill-rule="evenodd" d="M324.1914 423.82813h.83204v5.73828h3.19531v.74218h-4.02734v-6.48046"/><path fill="#00f" fill-rule="evenodd" d="M224.01953 414.38672h8.61719v-10.14453h-8.61719v10.14453"/><path fill="azure" fill-rule="evenodd" d="M225.85156 406.07422h.83594v2.82422h3.28516v-2.82422h.83203v6.48047h-.83203v-2.91406h-3.28516v2.91406h-.83594v-6.48047"/><path fill="#ff3030" fill-rule="evenodd" d="M291.28906 405.51172h7.6914v-10.14453h-7.6914v10.14453"/><path fill="azure" fill-rule="evenodd" d="M293.1211 397.19922h.83593v5.73828h3.1914v.74219h-4.02734v-6.48047"/><path fill="#ff3030" fill-rule="evenodd" d="M242.46875 383.32031h7.6914v-10.14844h-7.6914v10.14844"/><path fill="azure" fill-rule="evenodd" d="M244.30078 375.00781h.83203v5.73828h3.19531v.7422h-4.02734v-6.48048"/><path fill="#ff3030" fill-rule="evenodd" d="M331.23438 378.88281h7.6914v-10.14844h-7.6914v10.14844"/><path fill="azure" fill-rule="evenodd" d="M333.0664 370.5664h.83594v5.7422h3.19141v.73827h-4.02734v-6.48046"/><path fill="#ffffe0" fill-rule="evenodd" d="M421.63281 436.75781h22.1836v-10.1914h-22.1836v10.1914"/><path fill-rule="evenodd" d="M425.13281 428.39844h.51172v6.29297h-.78906v-4.48829h-1.38672v-.55468l.5586-.0664.2539-.0547.22656-.08984.20313-.14063.17578-.21093.14062-.29297.10547-.39453m4.8164 0l.22657.01953.21875.05469.21094.08984.19531.1211.1836.14843.17187.17578.30078.41797.24219.4961.17969.54687.11328.57813.03906.58984-.03906.59375-.11328.58594-.1797.55078-.24218.5039-.30078.4297-.17188.17577-.18359.15625-.19531.1211-.21094.09375-.21875.05468-.22656.01954-.23047-.01954-.21875-.05468-.20703-.09375-.19922-.1211-.1836-.15625-.17187-.17578-.30078-.42969-.24219-.5039-.17969-.55078-.11328-.58594-.03906-.59375h.83594l.02734.5625.08203.50781.125.4414.16407.375.1914.30079.21094.22265.22266.13672.22656.04688.22656-.04688.22266-.13671.20703-.22266.1914-.30078.16407-.375.125-.4414.08203-.50782.02734-.5625-.02734-.5586-.08203-.5039-.125-.4336-.16406-.36718-.19141-.29297-.20703-.21094-.22266-.13281-.22656-.04688-.22656.04688-.22266.13281-.21094.21094-.1914.29297-.16407.36719-.125.43359-.08203.5039-.02734.5586h-.83594l.03906-.58985.11329-.57812.17968-.54688.24219-.49609.30078-.41797.17188-.17578.18359-.14844.19922-.12109.20703-.08984.21875-.0547.23047-.01952m5.08984 0h.50781v6.29297h-.78515v-4.48829h-1.39063v-.55468l.5625-.0664.25-.0547.23047-.08984.20313-.14063.17578-.21093.14062-.29297.10547-.39453m2.82422 2.17578h.78516l.01953-.3164.0586-.28907.10156-.25.14062-.21484.17969-.17579.22265-.1289.26563-.07813.3086-.03125.23827.02344.22266.0625.20313.10156.17968.13672.14844.17578.11328.20313.07422.23828.02344.26563-.02344.26562-.0625.22656-.11328.1914-.15235.17188-.20312.16016-.2461.16797-.6328.38672-.53907.3164-.4375.31641-.34765.32422-.26172.33594-.19141.35156-.125.36719-.0664.39453-.02344.41797h4.21093v-.73829h-3.33203l.08594-.28515.11328-.23828.14844-.19922.1875-.17969.23047-.17187.27734-.17579.71875-.41796.41406-.20313.34375-.23437.28125-.25.22266-.26563.16016-.27734.11328-.28516.0625-.28515.01953-.28125-.03906-.38282-.1211-.34765-.1914-.3086-.25-.26172-.30079-.21484-.34765-.15625-.3789-.10156-.40626-.03125-.4336.03125-.39843.09765-.35547.16797-.30469.23438-.25.30469-.18359.375-.11719.4453-.03906.51954"/><path fill="#ffffe0" fill-rule="evenodd" d="M219.3789 330.28906h22.1836v-10.1914h-22.1836v10.1914"/><path fill-rule="evenodd" d="M222.8789 321.92969h.51173v6.29687h-.78907v-4.48828h-1.38672v-.5586l.5586-.0625.2539-.05468.22657-.08984.20312-.14063.17578-.21094.14063-.29296.10547-.39844m4.8164 0l.22656.01953.21875.0586.21094.08593.19531.1211.1836.15234.17187.17578.30078.41797.2422.49219.18359.54687.10937.58203.03906.58985-.03906.59375-.10937.58203-.1836.55468-.24219.50391-.30078.42578-.17187.17969-.1836.15234-.1953.125-.21095.09375-.21875.05469-.22656.01953-.23047-.01953-.21875-.05469-.20703-.09375-.19922-.125-.18359-.15234-.17188-.17969-.30078-.42578-.24218-.5039-.1797-.5547-.11327-.58202-.03906-.59375h.83593l.02735.5625.08203.5078.125.44141.16406.375.1914.30079.21094.21875.22266.13671.22656.04688.22656-.04688.22266-.13671.21094-.21875.1875-.30079.16406-.375.125-.4414.08203-.50781.03125-.5625-.03125-.5625-.08203-.5-.125-.4336-.16406-.36719-.1875-.29296-.21094-.21485-.22266-.1289-.22656-.04688-.22656.04688-.22266.1289-.21093.21485-.19141.29296-.16406.3672-.125.43358-.08203.5-.02735.5625h-.83594l.03907-.58984.11328-.58203.17969-.54688.24218-.49218.30078-.41797.17188-.17578.1836-.15235.19921-.12109.20703-.08594.21875-.0586.23047-.01952m5.08985 0h.5078v6.29687h-.78515v-4.48828h-1.39062v-.5586l.5625-.0625.25-.05468.23047-.08984.20312-.14063.17578-.21094.14063-.29296.10547-.39844m2.82422 2.17578h.78515l.01953-.3164.0586-.28516.10156-.25391.14062-.21484.1797-.17188.22265-.1289.26562-.08204.3086-.02734.23828.02344.22265.0625.20313.10156.17969.13672.14843.17187.11328.20704.07422.23828.02344.26171-.01953.26954-.0664.22656-.11329.1914-.15234.16797-.20313.16407-.24609.16796-.63281.38672-.53906.3125-.4375.31641-.34375.32422-.26563.33594-.1914.35156-.125.3711-.06641.39452-.02344.41797h4.21484v-.74219h-3.33593l.08593-.28125.11328-.23828.14844-.20312.1875-.17969.23047-.17187.27734-.17579.71875-.41406.41407-.20703.34375-.23047.28125-.25.22265-.26953.16016-.27734.11328-.28125.0625-.28516.01953-.28125-.03906-.38672-.1211-.34765-.1914-.3047-.25-.26562-.30078-.21093-.34766-.16016-.3789-.09766-.40625-.03515-.4336.03515-.39844.09766-.35546.16797-.3047.23437-.25.3047-.18358.37108-.1172.44922-.03905.51563"/></g></defs><use xlink:href="#U"/></svg>