<svg xmlns="http://www.w3.org/2000/svg" role="img" xmlns:xlink="http://www.w3.org/1999/xlink" viewBox="142.45 309.95 326.84 171.84"><defs><clipPath id="a"><path d="M144 443h1v37.32813h-1zm0 0"/></clipPath><clipPath id="b"><path d="M144 311.67188h1V431h-1zm0 0"/></clipPath><clipPath id="c"><path d="M144 311.67188h324v168.65625H144zm0 0"/></clipPath><clipPath id="d"><path d="M467 311.67188h1v168.65625h-1zm0 0"/></clipPath><clipPath id="e"><path d="M144 476h2v4.32813h-2zm0 0"/></clipPath><clipPath id="f"><path d="M156 476h3v4.32813h-3zm0 0"/></clipPath><clipPath id="g"><path d="M170 476h2v4.32813h-2zm0 0"/></clipPath><clipPath id="h"><path d="M181 477h6v3.32813h-6zm0 0"/></clipPath><clipPath id="i"><path d="M193 479h8v1.32813h-8zm0 0"/></clipPath><clipPath id="j"><path d="M193 479h3v1.32813h-3zm0 0"/></clipPath><clipPath id="k"><path d="M206 479h9v1.32813h-9zm0 0"/></clipPath><clipPath id="l"><path d="M220 478h8v2.32813h-8zm0 0"/></clipPath><clipPath id="m"><path d="M234 477h7v3.32813h-7zm0 0"/></clipPath><clipPath id="n"><path d="M247 477h7v3.32813h-7zm0 0"/></clipPath><clipPath id="o"><path d="M260 477h7v3.32813h-7zm0 0"/></clipPath><clipPath id="p"><path d="M274 477h7v3.32813h-7zm0 0"/></clipPath><clipPath id="q"><path d="M287 478h7v2.32813h-7zm0 0"/></clipPath><clipPath id="r"><path d="M300 478h7v2.32813h-7zm0 0"/></clipPath><clipPath id="s"><path d="M313 478h8v2.32813h-8zm0 0"/></clipPath><clipPath id="t"><path d="M326 479h9v1.32813h-9zm0 0"/></clipPath><clipPath id="u"><path d="M340 478h8v2.32813h-8zm0 0"/></clipPath><clipPath id="v"><path d="M353 478h8v2.32813h-8zm0 0"/></clipPath><clipPath id="w"><path d="M353 480h3v.32813h-3zm0 0"/></clipPath><clipPath id="x"><path d="M367 478h7v2.32813h-7zm0 0"/></clipPath><clipPath id="y"><path d="M366 480h3v.32813h-3zm0 0"/></clipPath><clipPath id="z"><path d="M379 479h9v1.32813h-9zm0 0"/></clipPath><clipPath id="A"><path d="M380 478h2v2.32813h-2zm0 0"/></clipPath><clipPath id="B"><path d="M395 477h4v3.32813h-4zm0 0"/></clipPath><clipPath id="C"><path d="M408 476h4v4.32813h-4zm0 0"/></clipPath><clipPath id="D"><path d="M421 477h5v3.32813h-5zm0 0"/></clipPath><clipPath id="E"><path d="M435 476h4v4.32813h-4zm0 0"/></clipPath><clipPath id="F"><path d="M448 477h5v3.32813h-5zm0 0"/></clipPath><clipPath id="G"><path d="M461 476h5v4.32813h-5zm0 0"/></clipPath><clipPath id="H"><path d="M144 464h3v6h-3zm0 0"/></clipPath><clipPath id="I"><path d="M144 451h4v6h-4zm0 0"/></clipPath><clipPath id="J"><path d="M144 438h4v4h-4zm0 0"/></clipPath><clipPath id="K"><path d="M144 425h4v4h-4zm0 0"/></clipPath><clipPath id="L"><path d="M144 411h3v6h-3zm0 0"/></clipPath><clipPath id="M"><path d="M144 397h3v7h-3zm0 0"/></clipPath><clipPath id="N"><path d="M144 383h2v8h-2zm0 0"/></clipPath><clipPath id="O"><path d="M144 383h1v2h-1zm0 0"/></clipPath><clipPath id="P"><path d="M144 373h4v2h-4zm0 0"/></clipPath><clipPath id="Q"><path d="M144 359h4v3h-4zm0 0"/></clipPath><clipPath id="R"><path d="M144 345h4v5h-4zm0 0"/></clipPath><clipPath id="S"><path d="M144 330h3v7h-3zm0 0"/></clipPath><clipPath id="T"><path d="M144 316h2v9h-2zm0 0"/></clipPath><clipPath id="U"><path d="M144 317h1v2h-1zm0 0"/></clipPath><clipPath id="V"><path d="M465 317h3v2h-3zm0 0"/></clipPath><g id="W" clip-path="url(#clip1)"><path fill="#fff" fill-opacity="0" fill-rule="evenodd" d="M0 0h1000v1000H0zm0 0"/><path fill="#d3d3d3" fill-opacity="0" fill-rule="evenodd" d="M162.15234 355.86719l-.23437.29297.0586.23437.11718.17188.17578.23437.29297.34766.11328.0586.11719-.17188.0586-.23438.17577-.17578.46485-.17578h.69922l.23437.29297.28906.8164.0586.17579.17578.23046.35156.23438.69922.69922.17188.17578.23437.34765.23438.41016.28906.58203.41015.46485.23047.23437.23438.17578.11719.23047.17578.29297.17187 1.16406v.23438l.0586.28906.05859.11719.11719.11719.34765.41015.11719.17188.17578.17578.17578.23437.11719.17188.17188.35156.05859.23438.23437.40625.23438-.0586-.17578.17578-.0586.92969h-.58203l-.23437-.11328-.34766.11328-.11719.11719-.05859.29297-.0586.17578-.11718.17187-.46484.29297-.0586.23438-.0586.11328v.64453l.0586.17187v.41016l.0586.0586v.40624l.05859.40625.11719.17579.05859.05859.23047.64062-.0586.29297v.69922l-.05859.58203v.23438l-.0586.23047-.05468.35156v1.92187l.05469.1172h.42578l-.36719.11718-.02344.35156.89063 1.16797 1.74219.53906 1.33984.35938v.53906l.08984.8086.53516.71484 1.51953.26953.89063-.08594.08984 1.16406.53516.1797 1.16015-.1797 2.05469-.98437 1.16016-.36328 1.8789-.17578 1.69531-.1797-.17968.71876-1.51563.08594-1.25.08984-.80469.26953-1.07421.8086.26953.71875.53515.89843-.17968.625-.26563.8086.26563 1.07812.625.89844.80468.17969 1.25-.1797-.26562.72267.09766.5039.05468.29297v.17188l.0586.29296v.40625l.17578.1172.35156.11718h.40625l.29297-.17578.11328-.11719.0586-.11719.11718-.23047.0586-.17578.35156-.46484.23047-.17578.17578-.0586.17578.0586.0586.17578.11718.98828.05469.46875.0586.17188.11718.23437.17578.0586.8164.05859h.28907l.11719.23437.05859.40625.0586.35156v1.10547l.11718.29297.11719.34766.28906.69922.17578.35156.58203.7539.35157.17579.17187.0586.46875.23437.64063.46484.34765.23438.29297.17578.29297.05468.23047.0625.8164.34766.29297.17578.11328.17188.35157.35156.11719.17578.52343.64063v.28906l.0586.35156v.34766l.05859.35156.0586.28906.11718.0586.17188.05859h.17578l.58203.23437.17578.1172.17578.28905.17578.23438.11328.23437.29297.23047.11719.11719v.41016l.0586.05468.28906.23438.23437.11719.0586.11718.11718.17188.0586.11719.23047.23437.05859.17578.23437.0586.1172.05859-.1172.11328-.05859.11719v.11719l-.11719.29296-.11719.28907v.58203l.17579.11719.11718.05859.0586.11719.11719.11719.11328.05859.17578.34765.0586.35157.05858.40625v.17578l-.05859.17578-.11719.69922v.17187l.1172.17579.29296.29296h.40625l.17578.1172.11719.17187.11719.29296v.23438h-.52735l-.23047-.23438h-.23437l-.17578.0586-.0586.69922.0586.34765.11719.17579.17578.41015.11718.23047.28907.46875.17578.05469h.52344l.23437.0586.75781.64062.0586.29296v.23438l.05859.0586.23047.34765v.35156l-.11719.17188v.29297l.29297.28906.29297.17578.17187.0586.29297.17577.29297.1172.58203.40624.28906.23438.29297.17578.21875.16015.01563.01172.23047.17579.64062.52343.17578.23438.1172.17578.17577.17578.11328.17188v.64062l.1172.17578.46874.11719.58203.11719.23438.05859.23047.11328.29297.11719.11328.0586.58593.35156.28907.17187.17578.0625.17578.05469.17578.0586.69922.35155.28906.17579.23438.05468.28906.17578.23437.1172.64063.40624.29297.11719.17187.0586.23438.05859.41015.05859.23047.0586.23438.11718.0586.17188-.41017.17578.46875.0586.0586.29296.11328.23438.17578.05468.23438.0586.17578.05859.40625.11719.64062.23437.11719.17188.0586.23437v.17578l-.0586.1172-.0586.40624.23438.23438.11719.05859.34766.11719.64062.23047.17578.11718.28906.1172.17578.17577.23438.46485.58203 1.10546.17578.17579.34766.17578.17578.11719.35156.11718 1.04688.52344.23437.0586.46485.11327.29297.0586.46484.17578.75781.58203.23438.23438.34765.46484.17578.17578.28907.23438.8164.69921.29297.17579.28906.28906.29297.17578.29297.28906.69531.64063.17578.17578.29297.23437.28907.23438.46875.28906.64062.58203.34766.23438.23437.29297.34766.34765.35156.46485.9336.99218.34765.40625.11719.17579.23437.05859.11328.11719.64454.17578.23047.11328.23437.0586.29297.17577.23047.1172.9336.69921.40624.40625.23438.17578.40625.17578.23437.11719.8164.34766.34766.23437.23438.11719.29297.28906.23047.11719.7578.35156.35157.17188.23047.05859.29297.11719.23437.0586.8711.17577h.8164l.46875.23047.17188.0586.875.69921.46484.1172.29297.05858.17578.0586.23047.0586.46875.05859.34766.05859.35156.0586.40625.05859h.29297l.17187.0586v.23046l.17578.17578h.29297l.34766.0586.35156.05859.69922.11719h.64063l.46484-.23438.29297-.17578.17187-.11719.41016-.17187.28906-.17578.9336-.46485.46875-.29297.52343-.29296.46485-.17188.46484-.17578 1.05078-.46485.28906-.11718.41016-.11719.28906-.11719.52735-.17578 1.51562-.69922.58203-.34765.28907-.0586.29297-.0586.34765-.11718.875-.23047.35156-.11719h.11329l.23437-.05859.875-.23437.23438-.0586h.8125l.35156-.0586.8164-.11718.17188-.0586.35156-.05468.29297-.0586.23047-.05859.8164-.17578.17579-.0586h.34765l.23438-.05859.46484-.11718.75781-.17188.23438-.0586h.34765l.41016-.11718.28906-.0586 1.28516-.05859h.28906l.41016-.0586.23047-.05858h.17578l.875-.1172h.40625l.41015-.11718h.34766l.35156-.11328.8711-.0586h1.75l1.04687.28907.41016.11719.28906.11718.35156.11719.28907.11719 1.05078.17187.28906.0586h.29297l.29297.05859.17187.0586.41016.05859.17187.0586.1172.05858h.11718l.11719.0586.35156.0586h.11328l.41016.0664 1.92187.39453 1.92578.39453 1.51953.44922 1.69532.71875 2.14453.80469 1.60547-.71875 1.42968-.80469 1.16016-1.07813 1.25-.44921 3.03516-.71875 1.875-.35938 2.14453-1.34765 2.23437-1.25391 2.5-1.25781 1.69531-.44922 1.78516-.17969 1.16016-.26953.625.53906 1.33984-.26953.71485-.98828.98437-1.34375.44531-.17969.80469-.35937 1.875-.53907 1.78516-.44921 1.25-.26954 1.16015-.08984 1.69922-.08984 1.96094-.26954 1.25-.08984h.53906l.625-.08984h.89063l2.14453-.17969 2.41015-.17969 2.58985-.08984 1.69531.17969 1.60938.08984 1.42968.35938 1.16016.71875 1.875.98828 1.16015 1.52734.26563.71484.6289.08985.35548.89844.53515.53906.53516 1.52734 1.07422.35938h.53515l-.80469.53515.08985 1.70703.71484 2.69532.89063.80468.89453.98829.71484 1.2578 1.78516.53907 1.51953-.17969.35547 1.34375 1.60937-.80469.98047-.53906.26953.26953.31641-.21484.21875-.14453.80078.44922.44922-.35938h.35547l.53515-.26953.53907-.71875.53515-.26953.625-.98828 1.16016.44922.83984.3711 1.39454.61718 1.6953-.17969h1.60548l1.78515.08985.17969-1.70704.53516-1.34375.80468.26954.4922.84765.40233.40625-.08984.53906v.35938l.71485.44922.71093-.26953h1.42969l.35938.98828.4453 1.25781.71485 1.34375 1.25.6289 1.69531.62891.71485-.17969.17969-.53906.98046-.08984.44922.35937.08594 1.25782-.26563.6289-.53515.17969v.53906l.71484.98438.26563.53906.98437.98828.80078 1.07813-.26562.35937-.08985.89844-.625 2.33203-.35546 2.0664-.08985 1.79298-.17969.71875-.08984.53906v1.4375l-.98047 1.88281-.35937 1.70703-.53516.89844-.80469 1.16797-.26562.53906 2.05469 1.2539.08593.35938-.35546.53906-.08985-.17968v.80859l.08985 1.4375-.44532.71484-1.07422.09375-.26562.71485.53515.89844.8047.71875 1.16015.80859 1.33984.26953.44531.35938-.35546.44921-1.78907-.08984-1.25-.44922-.71484-.71875-.625-.08984-.17578 3.58984-.1875 1.3086h89.35937V311.70313h-55.26953v49.08203l.76172.125 3.28906.54296 2.02344 2.83594v2.7539l2.35156.33204 2.34766.33203h4.05078l-1.3789 4.16016-2.02344.70703-2.02344.70312-.54297.34375-2.59375 1.6172-.1875.11718-2.02344-2.07813-.73046-2.74218-2.67188-2.07813-1.375-3.5-.0664-.08203-1.95704-2.67188 2.75-1.41796v-49.08204H294.42187v91.41407l.1172.03125.1328.01172.07422.07421.10547.04688.08985.0586.08593.05859.08985.0586.29687.29687.0586.08984.03125.11719.02734.11719.01563.13671-.03125.1172-.0586.08983-.0586.08594-.04296.10547-.04688.10156-.02734.1211v.14453l.17578.26953.14844.14844.07422.08594.07422.07421.04296.10547.0625.08985.0586.08593.04297.10547.0586.08985.04687.10156.04296.10547.0586.08594.11719.17968.07421.07422.0625.08594.0586.08984.04297.10547.0586.08985.05858.08593.0625.08985.0586.08984.04297.10156.11719.17969.07421.07422.0586.08594.07422.07421.08984.0586.10547.04687h.14844l.1328-.01562.13282.01562.10156-.04687.07422-.07422.04688-.10156-.01563-.13281v-.14844l-.04687-.10547-.02735-.11719-.04687-.10156-.02735-.1211-.04296-.10156-.0625-.08984-.04297-.10156-.04297-.10547-.03125-.11719-.01563-.13281-.01171-.13672.08593-.0586.0586-.08593.12109-.03125.04297.10547.01562.1328v.1172l.0586.10156.0586.08984.08983.0586.14844.14843.0586.08985.04296.10547-.01171.10156.08593.0586.10547.04687.08594.0586.08984.05858.07422.07422-.11719.02735-.10546.04687-.08594.0586-.07422.07421-.0586.08985-.0625.08594-.02734.12109-.04687.10156-.04297.10547-.03125.11719-.01172.13281-.01563.13281v.14844l.02735.11719.04687.10547.04297.10156.0586.08984.07421.07422.08985.0586.07422.07421.08984.0586.0586.08984.04296.10547.04688.10156.11719.03125.1328.01563h.14845l.11718-.03125.10547.04297.04297.10547.04688.10156.02734.1211L299.5 410l.02734.11719.03125.1211.02735.11718.10547.04297.10156.04687.13281-.01562.14844.14844.0625.08593.07422.07422.07031.07422.08984.0625.10547.04297.10156.04297.1172.03125.13671.01562.11719-.03125.07422-.07422.02734-.11718-.01172-.13282-.03125-.12109-.02734-.11719.04297-.10547h.11719l.08984.0625.11719.02735h.14843l.13282.01562h.14843l.13282.01563.1328-.01563h.14845l.1328-.01562.13282-.01172.13672.01172.11719-.02735.13281-.01562.1914-.0586-.05859.17579-.01562.1328-.02735.1211-.01562.13281-.0586.08594-.1328.01563-.10548.04687-.10546.04297-.1172.03125-.11718.02735-.26563.03125h-.14843l-.13281.01562-.07422.07422.05859.08594.14844.14843.11719.1797.07421.0703.08985.0625.08984.0586.08594.0586.08984.05858.10156.04297.10547.0625.10547.04297.08594.0586.10547.04687.10156.04297.17969.11719.0586.08984-.04298.10156-.04687.10547.01562.13281.22266.22266.0586.08985.04296.10156.03125.1211.04297.10155.01563.13282.03125.11718.01171.13672.03125.11719.14844.14844.10156.04297.10547.04296.1172.03125.1328.01563.13672.01563h.11719l.11719-.03125.08984-.0586.04297-.10547.04688-.10156.04296-.10547.03125-.11719.01172-.1328v-.14845l-.01172-.1328-.01562-.13282-.03125-.11719-.04297-.10547-.04688-.10547-.04296-.10156-.04297-.10547-.01563-.13281.01563-.13281.02734-.11719.03125-.11719.02735-.1211.04687-.10155.08984-.0586.08594-.0625.07422-.07422.08984-.05859.22266-.22266.0586-.08593.07421-.07422.11719-.17969.0586-.08594v-.14844l-.07423-.07421-.10156-.04688-.10547-.04297-.10156-.04297-.0586-.08984-.04687-.10547-.02734-.11719.08984-.05859.11719-.03125.10156-.04297.17969-.11719.14844-.14843.01172-.13282-.01172-.10546-.08985-.0586-.1328.01563h-.14845l-.1328.01562-.13282-.01562-.1211-.03125-.08593-.0586-.07422-.07422-.0586-.08984-.0625-.08594-.11718-.17969-.0586-.08593.03125-.1211.08594-.05859.1211-.03125.05859-.08594v-.1211l-.03125-.11718-.0586-.08984-.05859-.08594-.04687-.10547-.02735-.11719-.01562-.1328.0586-.08985.07421-.07422.08984-.0586.1172-.17968.07421-.07422.0586-.08594.14843-.14844.1211-.03125.1328-.01562.13282.01562.07422.07422.04297.10547.01562.13281-.03125.1172-.11719.03124-.1328.01172-.14844.14844-.04297.10547-.04688.10156-.02734.1211-.03125.11718v.14844l.03125.11719.04297.10546.05859.08985.07422.07031.07422.07422.11719.03125.12109.02734.11719-.02734.1328-.01563h.1172l.08984.0586.07422.07422.04687.10546.0586.08594.10156.04688.13281.01562.10547.04297.08594.0586-.01172.10546-.07422.07422-.17969.11719-.05859.08984-.08984.0586-.07032.07422-.07421.07421-.0625.08985-.02735.11719-.01562.1328.01562.13282-.01562.13281v.14844l.01562.13281.02735.1172.03125.12108.07421.07422.08985.0586.08594.0586.08984.05858.11719.03125v.08594l-.10157.04688-.08984.0586-.26563.03124-.11718.02735h-.14844l-.10547.04296-.10156.04688-.0586.08984-.0625.23438-.01171.13281-.03125.1211-.01563.1328v.29298l-.01172.1328.01172.13673.01563.1328.1328.01563.13282.01172.1211.03125.08593.0586.07422.07421.04688.10547.04296.10157.01563.1328v.44532l-.01563.13281v.44532l.03125.26562.02735.11719.01562.13281.03125.11719.08594.21094.03125.26562v.14844l-.03125.11719-.02734.11718-.03125.1211-.02735.11719-.03125.11718-.03125.1211-.01171.1328-.01563.13282.08984.0586.1172-.03125.10155.01562.04688.10547-.03125.26562v.44141l-.04297.10547-.04688.10547-.04296.10156-.04297.10547-.0586.08594-.03125.12109-.04296.11719-.03125.11719-.01563.1328.01563.13282.05859.08984.10547.04688.08594.0586.05859.08593-.01172.13672-.03125.11719-.04297.10156v.44531l-.01562.13281v.14844l-.03125.11719-.04297.10547-.02735.11719-.04687.10546-.04297.10157-.03125.12109-.02734.11719-.03125.13281-.03125.11719-.02735.11719-.04297.10546-.03125.1172-.03125.12108-.01171.13282-.01563.13281v.29688l.02734.11718v.14844l.04688.39844.02734.11719.0586.08984.12109.03125h.14844l.13281-.01563.0586.08985v.11719l-.0586.08984-.08984.0586-.10157.04296-.10546.04688-.08985.05859-.08594.0586-.13671.01562-.1172-.03125-.1328-.01563-.10157.04688-.0625.08594-.01172.13671-.01562.13282-.03125.11719-.02735.11718-.01562.13281-.03125.1211v.29687l.01563.13282.03125.11718v.14844l.01171.13281v.14844l-.02734.11719-.04688.10156-.02734.1211-.03125.11718-.0586.08985-.07421.07421-.10156.04297-.10547.04688-.11719.02734-.1211.03125-.10156-.04687.0586-.08594.10547-.04688.02734-.11718.03125-.11719.02734-.1211.03125-.11718v-.14844l.01563-.13281-.03125-.11719-.04297-.10547-.10547.01563-.07422.07422-.10156.04296-.08984.0625-.07422.07422-.04297.10157-.01563.1328-.03125.1172L304.25 426l-.03125.11719-.02734.11719-.03125.12109-.02735.11719-.03125.11718-.04297.10547-.08984.0586h-.08984l-.1172-.03125-.03124-.08594.01562-.13672-.03125-.11719v-.14844l-.01171-.1328v-.14844l-.0625-.23438-.02735-.1211-.04297-.10156-.04687-.10546-.0586-.08594-.05859-.08985-.04297-.10546-.0625-.08594-.14844-.14844-.0703-.07422-.10548-.04687-.10547-.04297-.10156-.04297-.29687-.29688-.08985-.07421-.08594-.0586-.10546-.04297-.08985-.0625-.08594-.0586-.10546-.04296-.08985-.0586-.08594-.0625-.07421-.0703-.10547-.04688-.08594-.0586-.10547-.04296-.08984-.0625-.10156-.04297-.10547-.04297-.08594-.0586-.10547-.04687-.10547-.04297-.10156-.04687-.08985-.0586-.10156-.04297-.10547-.04296-.08984-.0625-.11719-.02735-.13281-.01562-.13281.01562H299.75l-.13281.01563-.11719-.03125-.08984-.0586-.07422-.07422-.08985-.05859-.10156-.04688h-.14844l-.12109-.02734-.10156-.04297-.07422-.07422-.11719-.17968-.08984-.0586-.10156-.04297-.08985-.0625-.10547-.04296-.08984-.0586-.08594-.0586-.10547-.04687-.0586-.08594-.05858-.08984-.04297-.10547-.04688-.10156-.07422-.07422-.08594-.0586-.07421-.07421-.08985-.0586-.22265-.22265-.04297-.10547-.03125-.26563.10547-.04296h.14453l.10547.04296.07421.07422.08985.0586.08594.0586.10546.04687.08985.05859.14844.14844.0703.07422.14845.14843.0625.08594.07421.07422.08594.0586.07422.07421.08985.0625.08984.0586.08594.05859.26953.17578.10156.04688.10547.04296.10156.04297.04688-.07421.05859-.08594.07422-.07422.07031-.07422.10547.04297.07422.07422.0586.08984.04296.10156.04688.10547.04296.10547.1211.02735.11719-.02735.07421-.08984.04297-.10547.0586-.08985.07422-.07421.10546-.04297.1172-.02735.1328.01172.08985.0586.14844.14843.05859.08985.04297.10547.04687.10156.04297.10547.04297.10156.10547.04688.10547.04296.13281.01563.08594-.0586.0586-.08984.07421-.07422.10547-.04297.11719.02735.10547.04687.10156.04297.10547.04297.10156.04688.17969.11718v.11719l-.01563.13281.01563.13281.01562.13672.0586.08594.10156.04688.1211.02734.11718.03125h.14844l.11719-.03125.05859-.08984.17969-.1172.05859-.08983.07422-.07422.0586-.08594.11718-.17969.17969-.11719.11719.03125.08984.0586.04297.07422-.01563.1328v.1172l.08985.05859h.14843l.13282-.01563.1328-.01171.26563-.03125.10547-.04297.11719-.03125.1211-.02735.07421-.07421.07031-.07422.0625-.08985-.01562-.10547-.04688-.10156-.10156-.04297-.10547-.01562-.11718.02734-.26563.03125h-.14844l-.07421-.07422-.08985-.0586-.11719-.03124-.11718-.02735-.13282-.01562h-.14843l-.13282.01563h-.29687l-.10547-.04688-.14844-.14844-.04297-.10156-.05859-.08984.22266-.22266.08593-.0586.10547-.04296.11719-.03125.13281-.01563.13281.01563.13672.01562.10157.04297.1328-.01172.08985-.0625.10156-.04297.0625-.08984-.04687-.10156-.08984-.0586-.1172-.03125-.10155-.04296-.0586-.08985-.0625-.08984v-.11719l.01563-.13281.10547-.04688.07421-.07031v-.1211l-.08984-.05859-.03125-.11719.08985-.05859.07421-.07422.04297-.10547.0586-.08984.04687-.10156.01563-.13281v-.14844l-.04688-.10547-.04297-.10156-.08984-.0586-.13281-.01562-.10157-.04297-.13671-.01563-.1172-.03125h-.4453l-.13282-.01562-.13281-.01172-.13281-.01563-.11719-.03125h-.14844l-.13281-.01562-.13281-.01172-.26563-.03125-.1211-.04297-.08593-.0586-.07422-.07421v-.14844l.01172-.13281.10547-.04688.10156-.04296.13281-.01563h.15235l.13281-.01562h.29297l.1211.03125.10156.04296.08984.0586.23438.0625.12109-.04688.08984-.05859.10156-.04297.13282-.01562.10547.04296.10156.04688.13281.01172.1211-.02735h.14453l.12109-.03125.11719-.02734.10547-.04687.07421-.07422.08594-.0586.14844-.14843.0586-.08594.04687-.10547.02734-.11719.01563-.10547-.10156-.04296-.08985-.0586-.11719-.03125-.10546-.04297-.08985-.0625-.07422-.08594-.07422-.07421-.10156-.04297-.10547-.04688-.10156-.04297-.0586-.08984-.04687-.10156-.08594-.21094-.0625-.08594-.05859-.08984-.07422-.07422-.08594-.0586h-.26953l-.11719.03126-.08984.05859-.10156.04297-.13281.01562-.10547-.01562-.02735-.11719-.0625-.08984-.11718-.03125-.10157-.04297-.14843-.14844-.03125-.11719-.01563-.10546.07422-.07422.17969-.1172.11719-.02733.11718-.03125.13672.01562.10156.04297.10547.04297.10156.04687.10547.04297.1172.03125.1328.01563.1172.02734.1328.01563.10547-.01563.08985-.0586-.07422-.07421-.10547-.04297-.07422-.07422-.07422-.08984-.14844-.14844-.08593-.0586-.08985-.05859-.07422-.07422-.08984-.0586-.10156-.04687-.1211-.02734-.10156-.04688-.10547-.04296-.11719-.03125-.10156-.04297-.1211-.03125h-.14843l-.11719.03125-.10546.04297-.08594.0625-.17969.11718-.08594.0586-.08984.0586-.10547.04687-.08594.05859-.10547.04297-.10156.04297-.10547.04687-.07422.07422-.05859.08985-.0586.08593-.04687.10547-.0586.08594-.07421.07422-.13281-.01172-.1172-.03125h-.11718l-.07422.07422-.08984.0586-.07422.07421-.08984.0586-.08594.05859-.10547.04687-.10156.04297-.13672.01563-.10156-.04297-.14844-.14844-.10547-.04688h-.08594l-.10547.04688-.10156.04297-.1211.03125-.11718-.03125-.07422-.07422v-.11719l.03125-.1211.07422-.0703.0586-.08985.07421-.07422.11719-.03125.10547-.04296h.29297l.13281-.01563.13672-.01563.10156-.04296.08985-.0586.10156-.04687.08984-.0586.13281-.01171.08985.05859.13281.01172.08984-.0586.08594-.05859.10547-.04297.08984-.0586.08594-.0625.08985-.05859.14843-.14843.0586-.08594.05859-.08985.10547-.04296.13281-.01563.11719.02735.1211.03125.05859-.0586.05859-.08984.03125-.26563.02734-.11719.10547.01172.13281.01563.10157-.04297.08984-.0586.0586-.08984.07421-.07422.0586-.08984.04687-.10156.01172-.13281-.01172-.13282-.04687-.10547-.14844-.14843-.0586-.08985-.05859-.08594-.04297-.10546v-.44532l.01563-.1328v-.14845l.01172-.1328-.0586-.0586-.08984.0586-.10156-.04298-.17969-.11719-.08594-.05859-.0625-.08984-.0586-.08985-.07421-.07421-.08594-.0586-.1211.03125-.10155.01172-.10547.04688-.08594.05859-.10547.04297-.14844.14844-.08984.05859-.08594.0586-.08984.0625-.10547.04296-.13281.01563v-.1211l.10547-.04297.11718-.03125.07422-.0703.04297-.10548v-.14844l-.02734-.11718-.14844-.14844-.13281-.01563h-.14844l-.11719.03125-.10547.04297-.10156.04297-.08984.0625-.11719.02735-.07422-.07422.01172-.13281-.04297-.10157-.04297-.10547-.08984-.05859-.11719.02734-.1211.03125-.11718.03125-.10156.04297-.1211.03125-.10156.04297-.10547.04297-.08984.0586-.10156.01562v-.11719l.01562-.13281-.0586-.08985-.07421.04297-.14844.14844-.0586.08985-.07421.07421-.04688.10547-.04296.10156-.07422.07422-.0586.08985-.07422.07422-.05859.08593-.07422.07422-.08984.0625-.07422.07031-.07422.07422-.10156.01563-.13281.01562-.10547-.04296v-.1211l.14843-.14844.04297-.10156.0586-.08984.04687-.10156.04297-.10547.0586-.08985.03124-.11719.04297-.10156.03125-.1211.02735-.11718.04687-.10547.04297-.10156.04297-.10547.07422-.07031.08984-.0625.08985-.0586.10156-.04296h.29687l.26563-.03125.10547-.04297-.07422-.07422-.11719-.03125-.10547-.04297-.08984-.0586-.10156-.04687-.08985-.0586-.10156-.04296-.10547-.04297-.08984-.0625-.08594-.0586-.10547-.04296-.10156-.04297-.1211-.03125-.11718-.03125-.10157-.04297L297.5 410.25l-.10156-.04297-.08985-.0586-.04296-.10546-.01563-.13281.10156-.04297.13281-.01563.13672.01563.13282-.01563.10156-.04297.0586-.08984.01562-.10547-.08985-.0586-.07421-.07421-.10157-.04297-.08984-.0586-.14844-.14843-.04297-.10547-.01562-.13281v-.29297l-.0586-.08985-.08984-.05859-.07422-.07422-.04297-.10547-.03125-.11718-.0586-.08985-.07421-.07422-.11719-.02734-.07422-.07422-.08984-.0586-.08984-.0625-.08594-.05859-.07422-.07421-.0586-.08594-.04687-.10547-.08594-.0586-.14843-.14843-.19532-.0586-.1328.01563-.10157.04297-.07422.07422-.04688.10156-.04296.10547-.0586.08984-.0586.08594-.29687.29687-.08984.0586h-.08594l-.0625-.08594-.04297-.10547.03125-.11719.0586-.08984.02734-.11719-.01172-.13281-.08984-.0625-.10547.04688-.11719.02734-.11719.03125-.26953.17578-.10156.04688-.11719.02734-.10546.04687-.08985.0586-.10156.04297-.0586-.08594-.04687-.10547.01563-.13281.04687-.10547.07031-.07422.07422-.07031.0586-.08985v-.14843l-.04297-.10547h-.23829l-.10156.04687-.03125.11719-.02734.11719-.03125.1211-.07422.04296-.13281.01563-.07422-.04688-.04297-.10156-.04297-.10547-.04687-.10156-.04297-.10547-.1211.03125-.10156.04297-.13281.01562-.11719.03125-.10547.04297-.08984.0586-.10156.04687-.1211.02734-.13281.01563-.10156-.04297-.0586-.08985-.04687-.10546-.04297-.10157-.04297-.10546v-.1172l.0586-.08984.08593-.05859.17969-.11719.10156-.04687.10547-.04297.10547-.0586.10156-.04296.08985-.0625.10156-.04297.10547-.0586.10156-.04687.08984-.0586.10547-.04296.10156-.04297.08985-.0625.10156-.04297.13672-.01563.11719.03125.10156.04297.1211.03125.10156.04297.10546.04688.10157.04296.10547.04297.10156.04688.10547.04297.10156.04297.10547.04687.08594.0586.10546.04296.1172.03125.10546.04297.10156.04688.08985.0586.10547.04296.10156.04297.10547.04687.11719.02735.10156.04687.1211.02735h.14843l.08594-.0586.01562-.10156.0586-.08984-.02735-.1172-.07422-.07421-.11719-.17969-.07421-.07422-.08985-.07421-.17969-.1172-.08593-.05859-.10547-.04296-.10156-.04688-.26954-.17578-.05859-.08985-.07422-.07421-.0586-.08985-.04296-.10156-.03125-.11719-.01563-.13672v-.5625l-.01171-.1328-.01563-.13282-.03125-.11719-.01562-.13281-.01172-.13281-.03125-.1211-.22266-.22265-.0586-.08594-.01562-.10547.03125-.11719.13281-.01562v-91.41406H172.9922v1.45312l-.0586.23438-.35156 1.05078-.17187.52343-.1172.34766-.17577.41016-.11719.17187-.23438.29297-.23046.0586h-.35157l-.11718.05859-.23047.40625v.29297l.11719.17578.23046.23047.1172.23437.64062.75781.29297.46485.17578.23437.23047.35156.23437.34766.64063.8164.17578.46485.17187.41016.11719.69531.17578.46875.11719 1.39844.0586.46484v.875l.11718 1.04688v4.78125l-.0586.46484-.35156 1.28125-.17578.52344-.11328.41015-.35156.9297L172.93359 336l-.23437.58203-.11719.17578-.17187.34766-.17578.40625-.35157.8164-.0586.29297-.11327.29297-.11719.28906-.0586.17579-.11718.875-.0586.40625-.05859.11718-.0586.17579-.05859.17187-.23047.52734-.11718.17188v.23437l-.11719.23438-.0586.17187-.17577.58594v.28906l-.0586.17579v.29296l-.0586.11329-.05859.52734v.17187l-.05468.23438v2.6211l-.17578.8164-.1172.17578-.17577.23438-.1172.17187-.11327.23438-.58594.93359-.23047.28906-.29297.46485-.17578.23437-.28906.35156-.35156.69922-.11328.23047-.17579.41016-.17578.23046-.40625.52735-.8164.69922-.29297.17187-.28906.23438-.17579.11719-.17578.17578-.52344.40625-.52734.17578-.17187.17578-.23438.05469-.64062.17578h-.75782m12.21094 31.02344l-1.07422.44921.35938.89454 1.25-.71485.44531-.53906-.98047-.08985"/><path fill="#d3d3d3" fill-opacity="0" fill-rule="evenodd" d="M201.50781 416.59766h-.89453l.44922.6289.98047.35938.80469-.08985.4453-.98828-.17577.08985-.71485-.35547-.89453.35547m154.6211 59.0703l-.0586-.52343v-.29297l.11328-.29297.0586-.23046.46875-.46875h.11328l.11719-.11329.11718-.05859h.17579l.23437-.0586h.34766l.23437.0586.11719.0586.23047.17187.0586.17578.11718.58203v.29297l-.11719.17578-.17187.28906-.17579.17579-.52734.52343-.23047.23438-.11719.0586h-.17578l-.11718-.0586-.40625-.29297-.17579-.11719-.11718-.0586-.0586-.11327-.05468-.1172m6.64062-10.95702l-.0586-.17188v-1.10937l.0586-.17188.17578-.0586.17188-.05858h.17578l.23437-.0586.1172.0586.05858.69921-.05859.17188-.11719.17578-.11718.0586-.23438.52343-.11328.0586h-.23438l-.05859-.1172m9.61328-14.39062l-.11719-.17578v-.69922l.29297-.875.1172-.17187.17577-.35156.11328-.23047.1172-.29297.35155-.75781.1172-.23047.17187-.23438h.17578l.11719-.0586h.64062l.11719.0586.23437.23438.17188.11328.35156.29297.11719.11718.11328.17579v.11328l.11719.05859.11718.11719v.69922l-.05859.17578v.23047l-.0586.17578-.34765 1.05078-.11719.23047-.11719.23437-.11718.0586-.23047.23437-.64063.28906h-.875l-.41015-.11718-.64063-.46485"/><path fill="none" stroke="#bebebe" stroke-linecap="round" stroke-linejoin="round" stroke-miterlimit="10" stroke-width=".5" d="M467.95703 311.69531H144.02734v168.625h323.9297v-168.625"/><g clip-path="url(#a)"><path fill="#fff" fill-opacity="0" fill-rule="evenodd" d="M144 475.89063v4.4375h.0039H144v-36.4961 32.0586"/></g><g clip-path="url(#b)"><path fill="#fff" fill-opacity="0" fill-rule="evenodd" d="M144 427.07031v3.8164-119.21483h.0039H144V427.0703"/></g><path fill="#50fcfc" fill-rule="evenodd" d="M144 440.76953v3.0625h.0039v-3.0625H144"/><path fill="#00e8fc" fill-rule="evenodd" d="M144 440.04297v.72656h.0039v-.72656H144"/><path fill="#50fcfc" fill-rule="evenodd" d="M144 437.35156v2.6914h.0039v-2.6914H144"/><path fill="#fff" fill-opacity="0" fill-rule="evenodd" d="M144 431.78906v5.5625h.0039v-5.5664l-.0039.0039"/><path fill="#50fcfc" fill-rule="evenodd" d="M144 430.88672v.90234l.0039-.0039v-.89063l-.0039-.00781"/><g clip-path="url(#c)"><path fill="#fff" fill-opacity="0" fill-rule="evenodd" d="M144.0039 480.32813v-36.4961l4.4336.94922 4.4375-.29688 2.84375.33594-2.84375 4.03125-.47656.41016.47656.32422.5586-.32422 3.8828-2.47266.52344 2.47266.29688 4.4375 3.61719 3.24219 4.4375.63671 4.4375-.46093 4.4375-.01953 4.4414-2.3672 3.32422-1.03124-3.32422-1.33203-1.85937-3.10547.29297-4.4414.82812-4.4375-3.70312-2.03516-2.12891-2.40235.8125-4.4375-2.34766-4.4375-.77343-.80078-3.98828.80078-.44922.00781-4.4375.87891-3.57032 3.55078-.86718 2.38672-4.25782 2.05078-.18359.01563-4.4375.3164-4.4336 1.07422v-5.5664l.22266-.27735-.22265-.61328V311.67188h57.6953v17.67578l-.55468.07812.41406 4.4375-.11718 4.4375.2578.57813.19532-.57813-.07812-4.4375-.0625-4.4375-.0547-.07812v-17.67579h13.31642v15.58204l-3.02344 2.17187-.75 4.4375 3.77344 3.875 4.4375-1.19922 2.45312-2.67578-2.45313-1.92578-2.16406-2.51172-2.27344-2.17187v-15.58204h17.75v39.67188l-.53515.27344-2.60938 4.4375 1.04688 4.4375 2.09766 2.375 3.41015-2.375.13281-4.4375-3.17187-4.4375-.3711-.27344v-39.67188h13.31641v100.30079l-1.75781 1.78125-1.875 4.4375.07031 4.4375 3.5625 3.55859 4.4375.09375 4.4375-.15234 4.4414-1.41016 3.9336-2.08984-3.9336-2.06641-3.83202-2.3711-.60938-.45312-4.4375-2.90625-2.6875-1.07812-1.75-1.78125V311.67187h26.6289v94.83985l-2.85546 2.80469-1.58203 3.78906-.63281.64844-1.9336 4.4375.45703 4.4375 2.10938.41406v7.13672l-1.1836 1.32812 1.1836 1.02735 1.29297-1.02735-1.29297-1.32812v-7.13672l.58984-.41406 3.84766-1.19922 4.4414-.69531 2.0586-2.54297 2.10937-4.4375-3.63672-4.4375-.53125-.53516-4.4414-2.26953v-94.83985h8.8789v111.9961l-4.4375.26953-2.74218 3.13281-.89454 4.4375 3.63672 3.41406 3.47657-3.41406.96093-1.11328 4.17579-3.32422-4.17579-3.40234v-111.9961h31.06641v98.69532l-1.64063 3.38672-1.8164 4.4375-.98047 1.48828-2.61719 2.94922.45313 4.4414 2.16406 2.16406 4.4375-1.42187.73828-.74219 3.11719-4.4414.58594-.69532 3.13671-3.74218-.76953-4.4375-2.36718-2.85547-4.44141-.53125v-98.69531h13.3164v92.60937l-.76562.59375.76563.58984.54296-.58984-.54296-.59375v-92.60938h22.1914v102.62891l-4.4375 1.00781-1.96875 2.88282 1.96875 2.17187.8164 2.26563 3.6211 3.82812v28.8711l-4.4375 2.4453-.36719.36329.3672.36328 4.4375 1.1211 1.47656-1.48438-1.47657-2.8086v-28.87109l4.4375.21875 3.89453-4.04687-.34765-4.4375-3.54688-3.72266-4.4375-.16797v-102.6289h17.7539v95.34375l-2.66405 2.30078-1.77344 1.26562-2.67578 3.17188 2.46484 4.4375.21094 1.32812 4.4375 1.5039.67187 1.60548.01172 4.4414.875 4.4375-1.5586 3.30469-1.41015 1.13281-2.64844 4.4375 4.0586 2.98438 1.88672 1.45312 2.3125 4.4414.23828.27345.84375 4.16406.60547 4.4375-1.44922 1.51172-3.47266 2.92578-.96484.95703-2.71485 3.48438.03516 4.4375 2.67969 1.67968 4.4375 2.53906.625.21875 3.8125 2.4375 4.4414-.16015 3.51172-2.27735.92579-1.21875 4.26562-3.21875-4.26563-2.125-4.4375-1.97656-.17187-.33594.17188-.16015 2.76953-4.28125 1.34375-4.4375.32421-.24219 4.4375-.98437 4.4375-1.09375 4.4375 1.01953 1.63672 1.30078 2.8047 2.00781 1.0625 2.42969 3.375 3.23828 4.4375.21875 4.4375.89063 1.54296.09375 2.89844.96484 1-.96485 3.4375-.875 3.85937-3.5664.57813-4.39453 4.4375 2.76172 2.9336-2.8047 1.5039-1.14452 3.17969-3.29297-1.02735-4.4375-2.15234-1.6289-4.4375.38671-1.59375-3.19922-.39453-4.4375-2.44922-2.41015-4.4375-.6797-4.4375-.35155-4.4414.09765-4.4375 2.28906-4.4375-.57812-1.62892 1.63281-2.80859 1.72656-2.89062 2.71094-1.55079 1.05078-4.4375-.03906-1.51171-1.01172-2.32032-4.4375 3.83204-1.95312 2.4414-2.48438 1.21875-4.4375-.26953-4.4375 1.04688-4.3086.1289-.1328-.1289-.14063-.34375.14063-4.09375.45312-4.4375-.26953-4.4375.03906-.53125-.22265-3.90625-3.0625-4.44141-1.14454-4.4375.71485-2.05469-.94531 2.05469-.85157 3.51953-3.58593-2.96875-4.4375-.55078-.60938-4.4375-1.6914v-95.34375h75.45312v162.10546l-2.17187 2.11329 2.17187 2.0664 2.10547-2.0664-2.10547-2.11329V311.67188h26.625v168.65625H144.00391"/></g><path fill="#50fcfc" fill-rule="evenodd" d="M148.4375 444.78125l-4.4336-.94922v-3.0625l4.4336 3.07813 4.4375-.07813 3.92578-3.38672-3.92578-3.64844-4.4375.41407-4.4336 2.89453v-2.6914l4.4336-1.07423 4.4375-.3164.1836-.01563 4.2578-2.05078.8672-2.38672 3.5703-3.55078 4.4375-.8789v.57421l-4.4375 1.82813-2.03906 2.02734-1.82812 4.4375.10156 4.4375.19922 4.4375 1.22656 4.4414 1.45313 4.4375.88672.79688 4.4375 1.11329 4.4375-.44141 4.4375-.24219 1.78906-1.22656-1.78906-2.39844-1.91016-2.03906-2.52734-4.15625-.1172-.28516-3.74608-4.4375 3.15625-4.4375.70703-2.3711.80468-2.0664-.80468-1.26562-4.4375-2.58985v-.57421l.44922-.00782 3.98828-.80078.77343.80078 2.34766 4.4375-.8125 4.4375 2.1289 2.40235 3.70313 2.03515-.82812 4.4375-.29297 4.4414 1.85937 3.10548 3.32422 1.33203-3.32422 1.03125-4.4414 2.36719-4.4375.01953-4.4375.46094-4.4375-.63672-3.6172-3.2422-.29687-4.4375-.52343-2.47265-3.88282 2.47266-.55859.32422-.47656-.32422.47656-.41016 2.84375-4.03125-2.84375-.33594-4.4375.29688"/><path fill="#00e8fc" fill-rule="evenodd" d="M148.4375 443.84766l-4.4336-3.07813v-.72656l4.4336-2.89453 4.4375-.41406v1.28515l-4.4375.58203-2.53125 1.78125 2.53125 1.91016 4.4375.28125 2.54297-2.1914-2.54297-2.36329v-1.28515l3.92578 3.64843-3.92578 3.38672-4.4375.07813"/><path fill="#50fcfc" fill-rule="evenodd" d="M144.22656 431.50781l-.22265.27735v-.89063l.22265.61328"/><path fill="#00d4fc" fill-rule="evenodd" d="M148.4375 442.29297l-2.53125-1.91016 2.53125-1.78125 4.4375-.58203v1.28516l-4.4375.7461-.46875.33202.46875.35547 4.4375.64453 1.16016-1-1.16016-1.07812v-1.28516l2.54297 2.36328-2.54297 2.1914-4.4375-.28124"/><path fill="#00c4fc" fill-rule="evenodd" d="M148.4375 440.73828l-.46875-.35547.46875-.33203 4.4375-.7461 1.16016 1.07813-1.16016 1-4.4375-.64453"/><path fill="#00e8fc" fill-rule="evenodd" d="M157.98828 440.38281l-.10156-4.4375 1.82812-4.4375 2.03907-2.02734 4.4375-1.82813v.95704l-4.16407 2.89843-.27343.69531-2.00391 3.7422.05078 4.4375.36328 4.4375 1.58985 3.91406 1.23828.52734 3.19922 1.77734 1.3789-1.77734-1.3789-3.79688-.2461-.64453-1.83203-4.4375 2.07813-3.51172.74609-.92578 2.77344-4.4375-3.51953-2.89844v-.95703l4.4375 2.58985.80468 1.26562-.80468 2.0664-.70703 2.3711-3.15625 4.4375 3.74609 4.4375.11719.28516 2.52734 4.15625 1.91016 2.03906 1.78906 2.39844-1.78906 1.22656-4.4375.24219-4.4375.4414-4.4375-1.11328-.88672-.79687-1.45313-4.4375-1.22656-4.4414-.19922-4.4375"/><path fill="#00d4fc" fill-rule="evenodd" d="M159.80078 440.38281l-.05078-4.4375 2.0039-3.74219.27344-.6953 4.16407-2.89844v.95703l-2.78516 1.9414-1.65234 4.17969-.13672.25781v4.4375l.13672 1.23438.16406-1.23438.23437-4.4375 4.03907-1.19922 2.35547-3.23828-2.35547-1.9414v-.95704l3.51953 2.89844-2.77344 4.4375-.7461.92578-2.07812 3.51172 1.83203 4.4375.2461.64453 1.3789 3.79688-1.3789 1.77734-3.19922-1.77734-1.23828-.52735-1.58985-3.91406-.36328-4.4375"/><path fill="#00c4fc" fill-rule="evenodd" d="M161.61719 440.38281v-4.4375l.13672-.25781 1.65234-4.17969 2.78516-1.9414v.95703l-1.41016.98437 1.41016 1.64063 1.1953-1.64063-1.1953-.98437v-.95703l2.35547 1.9414-2.35547 3.23828-4.03907 1.19922-.23437 4.4375-.16406 1.23438-.13672-1.23438"/><path fill="#00b8fc" fill-rule="evenodd" d="M166.1914 433.14844l-1.41015-1.64063 1.41016-.98437v.95703l-.03516.02734.03516.04297.03125-.04297-.03125-.02734v-.95703l1.1953.98437-1.1953 1.64063"/><path fill="#00a8fc" fill-rule="evenodd" d="M166.1914 431.55078l-.03515-.04297.03516-.02734.03125.02734-.03125.04297"/><path fill="#50fcfc" fill-rule="evenodd" d="M201.5586 333.86328l-.41407-4.4375.55469-.07812.05469.07812.0625 4.4375.07812 4.4375-.19531.57813-.25781-.57813.11718-4.4375m13.45703 3.875l-3.77343-3.875.75-4.4375 3.02344-2.17187 2.27343 2.17187 2.16406 2.51172 2.45313 1.92578-2.45313 2.67578-4.4375 1.19922m15.65235 22.7539l-1.04688-4.4375 2.60938-4.4375.53516-.27343.37109.27344 3.17187 4.4375-.1328 4.4375-3.41017 2.375-2.09765-2.375m11.85156 62.13672l-.07031-4.4375 1.875-4.4375 1.75781-1.78125v2.8125l-2.40625 3.40625.2461 4.4375 2.16015 2.16015 4.4375-.28125 4.4375-.42187 2.4414-1.45703-2.4414-1.9336-2.19922-2.5039-2.23828-1.625-4.4375-1.78125v-2.8125l1.75 1.78125 2.6875 1.07812 4.4375 2.90625.60938.45313 3.83203 2.37109 3.9336 2.0664-3.9336 2.08985-4.4414 1.41016-4.4375.15234-4.4375-.09375-3.5625-3.5586"/><path fill="#00e8fc" fill-rule="evenodd" d="M243.92188 422.6289l-.2461-4.4375 2.40625-3.40624v2.89843l-.35937.50782.35937 3.1328 1.27344-3.1328-1.27344-.50782v-2.89843l4.4375 1.78125 2.23828 1.625 2.19922 2.5039 2.4414 1.9336-2.4414 1.45703-4.4375.42187-4.4375.28125-2.16016-2.16015"/><path fill="#00d4fc" fill-rule="evenodd" d="M246.08203 421.32422l-.35937-3.13281.35937-.50782 1.27344.50782-1.27344 3.1328"/><path fill="#50fcfc" fill-rule="evenodd" d="M266.16406 422.6289l-.45703-4.4375 1.9336-4.4375.6328-.64843 1.58204-3.78906 2.85547-2.8047v2.45313l-.35547.35157-2.42969 4.4375 2.78516 4.01953 4.4414-.0664 3.23047-3.95313-3.23047-3.51172-3.83984-.92578-.60156-.35157v-2.45312l4.4414 2.26953.53125.53516 3.63672 4.4375-2.10937 4.4375-2.0586 2.54296-4.4414.69532-3.84766 1.19922-.58984.41406-2.10938-.41406m2.10938 9.90625l-1.1836-1.02735 1.1836-1.32812 1.29297 1.32812-1.29297 1.02735"/><path fill="#00e8fc" fill-rule="evenodd" d="M272.71094 417.77344l-2.78516-4.01953 2.42969-4.4375.35547-.35157.60156.35157 3.83984.92578v1.69922l-4.0664 1.8125 4.0664 2.03906 1.66797-2.03906-1.66797-1.8125v-1.69922l3.23047 3.51172-3.23047 3.95312-4.4414.0664"/><path fill="#00d4fc" fill-rule="evenodd" d="M277.15234 415.79297l-4.0664-2.03906 4.0664-1.8125v1.69921l-.2578.11329.2578.1289.10157-.1289-.10157-.11329v-1.69921l1.66797 1.8125-1.66797 2.03906"/><path fill="#50fcfc" fill-rule="evenodd" d="M277.15234 434.92188l-3.63671-3.41407.89453-4.4375 2.74218-3.13281 4.4375-.26953v1.86719l-4.4375 1.4375-.08203.09765-1.90625 4.4375 1.98828 1.86328 1.89844-1.86328 2.53906-2.9375 1.88282-1.5-1.88282-1.53515v-1.8672l4.17579 3.40235-4.17579 3.32422-.96093 1.11328-3.47657 3.41406"/><path fill="#00e8fc" fill-rule="evenodd" d="M277.15234 433.3711l-1.98828-1.86329 1.90625-4.4375.08203-.09765 4.4375-1.4375 1.88282 1.53515-1.88282 1.5-2.53906 2.9375-1.89844 1.86328"/><path fill="#00c4fc" fill-rule="evenodd" d="M277.15234 413.88281l-.2578-.1289.2578-.11329.10157.11329-.10157.1289"/><path fill="#50fcfc" fill-rule="evenodd" d="M306.05469 427.07031l-.45313-4.4414 2.61719-2.94922.98047-1.48828 1.8164-4.4375 1.64063-3.38672 4.4414.53125v4.80078l-4.4414.27344-1.3086 2.21875-2.55859 4.4375 3.86719 1.89453 1.51172-1.89453 2.92969-3.48047.80078-.95703-.80078-2.4922v-4.80077l2.36718 2.85547.76954 4.4375-3.13672 3.74218-.58594.69532-3.11719 4.4414-.73828.74219-4.4375 1.42188-2.16406-2.16407"/><path fill="#00e8fc" fill-rule="evenodd" d="M312.65625 424.52344l-3.86719-1.89453 2.5586-4.4375 1.30859-2.21875 4.4414-.27344.80079 2.49219-.80078.95703-2.9297 3.48047-1.51171 1.89453"/><path fill="#50fcfc" fill-rule="evenodd" d="M325.97266 405.46484l-.76563-.58984.76563-.59375.54296.59375-.54296.58984m17.7539 14.89844l-1.96875-2.17187 1.96875-2.88282 4.4375-1.0078v1.45312l-3.46484 2.4375 1.3125 4.4375 2.15234 2.27343 4.4375.73438 2.89453-3.00781-.98437-4.4375-1.91016-2.00391-4.4375-.4336v-1.45312l4.4375.16797 3.54688 3.72266.34765 4.4375-3.89453 4.04687-4.4375-.21875-3.6211-3.82812-.8164-2.26563m0 38.13672l-.36719-.36328.3672-.36328 4.4375-2.44531 1.47656 2.80859-1.47657 1.48437-4.4375-1.12109"/><path fill="#00e8fc" fill-rule="evenodd" d="M346.01172 422.6289l-1.3125-4.4375 3.46484-2.4375v2.42579l-.01562.01172.01562.16406.64063 4.27344 3.79687 1.26953 1.21875-1.26953-1.21875-3.14454-4.36719-1.29296-.0703-.01172v-2.42578l4.4375.43359 1.91015 2.0039.98437 4.4375-2.89453 3.00782-4.4375-.73438-2.15234-2.27343"/><path fill="#00d4fc" fill-rule="evenodd" d="M348.16406 418.35547l-.01562-.16406.01562-.01172.07031.01172 4.3672 1.29296 1.21874 3.14454-1.21875 1.26953-3.79687-1.26953-.64063-4.27344"/><path fill="#50fcfc" fill-rule="evenodd" d="M361.26953 418.1914l-2.46484-4.4375 2.67578-3.17187 1.77344-1.26562 2.66406-2.30079v2.75391l-4.4375 3.95313-.02735.03125.02735.04687 4.4375 3.86719 4.4375-2.17188 1.71484-1.74218-1.71484-2.26954-4.4375-1.71484v-2.7539l4.4375 1.6914.55078.60938 2.96875 4.4375-3.51953 3.58593-2.05469.85157 2.05469.9453 4.4375-.71483v2.41015l-4.4375.35156-1.5625 1.44532-.94531 4.4414 2.4375 4.4375-.47266 4.4375.54297.5039 1.08594 3.9336-.1836 4.4375 3.41797 4.4414-1.9375 4.4375 2.05469 4.10157.11719.33594-.1172.59765-3.58593 3.83985-.85156.48437-3.97656 3.95704.75 4.4375 3.22656 2.58593 3.52344-2.58594.91406-4.14453.125-.29296 4.3164-4.02344.26954-.41797 3.02734-4.4375 1.14063-.85938 4.4375-2.70312 1.91406-.875 2.52344-1.8125 4.4375-.11719 4.4414 1.75.13672.17969.83203 4.4375 2 4.4375 1.46875 1.41015 4.4375.5 4.4375 1.51954 4.4414.39062 4.4375-1.63281 2.3672-2.1875-2.3672-4.30469-.14062-.13281-1.6211-4.4375-2.67577-2.70313-.9375-1.73437.1289-4.4414.8086-1.69141v4.18359l-.27344 1.94922.27344.5 2.35937-.5-2.35937-1.94922v-4.1836l1.92578 1.69141 2.51172 2.1914v4.2422l-.53906 2.4453.53906 1.40235.94531-1.40234-.94531-2.44531v-4.2422l4.4375-1.93358.09765-.25782-.09765-.47656-3.46485-3.96094-.97265-.23047-4.4375-1.27343-4.4414-.06641-2.21485 1.57031-2.22266.77344-4.4375.19922-4.17187 3.46484-.26563.41016-4.4414 2.96875-4.4375-.3711-4.4375-2.98046-.01954-.02735-.69921-4.4375.71875-.65625 4.28515-3.78125.15235-.39453 2.40234-4.04297-.72266-4.4375-1.67969-1.97656-4.4375-1.30469-4.4375.28906-3.5-1.44921-.9375-.73829-4.4414-1.05859v-2.41015l4.4414 1.14453 3.90625 3.0625.53125.22265 4.4375-.03906 4.4375.26953 4.09375-.45312.34375-.14063.12891.14063-.1289.1328-1.04688 4.3086.26953 4.4375-1.21875 4.4375-2.4414 2.48438-3.83204 1.95312 2.32032 4.4375 1.51171 1.01172 4.4375.03906 1.55079-1.05078 2.89062-2.71094 2.8086-1.72656 1.6289-1.63281 4.4375.57813 4.4375-2.28907 4.4414-.09765 4.4375.35156 4.4375.67969 2.44923 2.41015.39453 4.4375 1.59375 3.19922v1.97656l-4.4375 1.39063-1.33594 2.3125 1.33594 1.70312 4.39062 2.73438.04688.03125.03125-.03125 4.40625-3.35547 1.04687-1.08203-1.04687-1.90235-4.4375-1.80078v-1.97656l4.4375-.38672 2.15234 1.6289 1.02735 4.4375-3.1797 3.29298-1.5039 1.14453-2.9336 2.80469-4.4375-2.76172-.57812 4.39453-3.85937 3.5664-3.4375.875-1 .96485-2.89844-.96485-1.54297-.09375-4.4375-.89062-4.4375-.21875-3.375-3.23828-1.0625-2.42969-2.80469-2.00781-1.63671-1.30078-4.4375-1.01953-4.4375 1.09375-4.4375.98437-.32422.24219-1.34375 4.4375-2.76954 4.28125-.17187.16015.17188.33594 4.4375 1.97656 4.26562 2.125-4.26563 3.21875-.92578 1.21875-3.51171 2.27735-4.44141.16015-3.8125-2.4375-.625-.21875-4.4375-2.53906-2.67969-1.67969-.03515-4.4375 2.71484-3.48437.96484-.95703 3.47266-2.92578 1.44922-1.51172-.60547-4.4375-.84375-4.16406-.23828-.27344-2.3125-4.4414-1.88672-1.45313-4.0586-2.98438 2.64844-4.4375 1.41016-1.13281 1.5586-3.30469-.875-4.4375-.01173-4.4414-.67187-1.60547-4.4375-1.5039-.21094-1.32813"/><path fill="#00e8fc" fill-rule="evenodd" d="M361.48047 413.80078l-.02735-.04687.02735-.03125 4.4375-3.95313v1.91797l-2.3086 2.0664 2.3086 2.03126 3.16797-2.03125-3.16797-2.06641v-1.91797l4.4375 1.71485 1.71484 2.26953-1.71484 1.74218-4.4375 2.17188-4.4375-3.86719"/><path fill="#00d4fc" fill-rule="evenodd" d="M365.91797 415.78516l-2.3086-2.03125 2.3086-2.06641v1.91406l-.16797.15235.16797.14843.23047-.14843-.23047-.15235v-1.91406l3.16797 2.0664-3.16797 2.03126"/><path fill="#00c4fc" fill-rule="evenodd" d="M365.91797 413.90234l-.16797-.14843.16797-.15235.23047.15235-.23047.14843"/><path fill="#00e8fc" fill-rule="evenodd" d="M367.1289 471.45313l-.75-4.4375 3.97657-3.95704.85156-.48437 3.58594-3.83985.11719-.59765-.1172-.33594-2.05468-4.10156 1.9375-4.4375-3.41797-4.4414.1836-4.4375-1.08594-3.9336-.54297-.5039.47266-4.4375-2.4375-4.4375.9453-4.44141 1.5625-1.44532 4.4375-.35156v2.94922l-4.4375 2.11328-.42968 1.17578.42969.76953 2.64844 3.66797.46484 4.4375.02344 4.4375 1.30078 3.82031.3164.6172 1.76954 4.4414-1.73047 4.4375 1.55078 4.4375 2.53515 2.67578 1.9336-2.67578 2.5039-1.88672 3.38282-2.55078 1.05469-1.78516 2.96875-2.65234-2.96875-2.36328-1.45704-2.07813-.58984-4.4375 2.04688-1.875 2.90234-2.5625 1.53515-3.92969.3047-.5078-.3047-1.15626-1.27734-3.28125-3.16015-1.65234-4.4375.71094-4.4375-.77344-4.44141-1.57422v-2.94922l4.4414 1.0586.9375.73828 3.5 1.44921 4.4375-.28906 4.4375 1.30469 1.6797 1.97656.72265 4.4375-2.40235 4.04297-.15234.39453-4.28515 3.78125-.71875.65625.69921 4.4375.01954.02735 4.4375 2.98046 4.4375.3711 4.4414-2.96875.26563-.41016 4.17187-3.46484 4.4375-.19922v1.44531l-4.4375 1.10156-1.34765 1.1172-2.87891 4.4414 3.45703 4.4375.30469 4.4375.46484.98828 4.4375 2.82031.76953.6289 3.66797 1.89454 4.4414.65625 4.33594-2.55078-4.33593-4.26953-.22266-.16797.22266-.89453.63672-3.54297-.63672-.64453-2.04688-3.79297-1.5586-4.4414-.83593-1.72657-4.4375-.49219v-1.44531l2.22266-.77344 2.21484-1.57031 4.4414.0664 4.4375 1.27344.97266.23047 3.46485 3.96094.09765.47656-.09765.25781-4.4375 1.9336-2.51172-2.1914-1.92578-1.69141-.8086 1.6914-.1289 4.4414.9375 1.73438 2.67578 2.70313 1.6211 4.4375.14062.13281 2.36719 4.30469-2.3672 2.1875-4.4375 1.63281-4.4414-.39062-4.4375-1.51954-4.4375-.5-1.46875-1.41015-2-4.4375-.83203-4.4375-.13672-.17969-4.4414-1.75-4.4375.11719-2.52344 1.8125-1.91406.875-4.4375 2.70312-1.14063.85938-3.02734 4.4375-.26954.41797-4.3164 4.02344-.125.29296-.91406 4.14454-3.52344 2.58593-3.22656-2.58594"/><path fill="#00d4fc" fill-rule="evenodd" d="M370.35547 427.83984l-.42969-.76953.42969-1.17578 4.4375-2.11328v2.07813l-1.8789 1.21093 1.8789 2.8164 1.53125 1.6211.1289 4.4375-.42968 4.4375 2.14453 4.4375.82812 4.4414-2.05859 4.4375 1.54688 4.4375.75.78907.5703-.78906 3.8672-2.91406 2.01953-1.52344 2.41796-4.08594.39454-.35156-.39454-.3125-2.89453-4.1289-.48046-4.4375 3.375-3.09376 1.52343-1.34375.8164-4.4375-2.29296-4.4375-.04688-.02734-.11718.02734-4.32031 2.10156-4.4375-.17187-2.03125-1.92969-2.41016-1.21094v-2.07812l4.4414 1.57422 4.4375.77344 4.4375-.71094 3.16016 1.65234 1.27735 3.28125.30468 1.15625-.30469.50781-1.53515 3.9297-2.90235 2.5625-2.04687 1.875.58984 4.4375 1.45704 2.07812 2.96875 2.36328-2.96875 2.65234-1.0547 1.78516-3.3828 2.55078-2.50391 1.88672-1.9336 2.67578-2.53515-2.67578-1.55078-4.4375 1.73047-4.4375-1.76954-4.4414-.3164-.6172-1.30078-3.8203-.02344-4.4375-.46484-4.4375-2.64844-3.66798"/><path fill="#00c4fc" fill-rule="evenodd" d="M374.79297 429.88672l-1.8789-2.8164 1.8789-1.21094 2.41015 1.21093L379.23438 429v6.82031l-.03125.125.03125.76172.03907-.76172-.03906-.125V429l4.4375.17188v5.84375l-.60157.92968.60156.73438v6.95312l-.45312 1.1875-1.95313 4.4414-2.03125 3.35938-.5078 1.07813.5078 1.45312 4.4375-.95703.65625-.4961 1.80079-4.4375-2.35157-4.4414-.10546-1.1875v-6.95312l.55859-.73438-.5586-.92969v-5.84375l4.32032-2.10156.11719-.02734v5.85547l-.36329 3.04687.36329.125.14062-.125-.14063-3.04687v-5.85547l.04688.02734 2.29297 4.4375-.8164 4.4375-1.52344 1.34375-3.375 3.09375.48046 4.4375 2.89454 4.1289.39453.3125-.39454.35157-2.41796 4.08594-2.01954 1.52344-3.86718 2.91406-.57031.78906-.75-.78906-1.54688-4.4375 2.0586-4.4375-.82813-4.4414-2.14453-4.4375.42969-4.4375-.12891-4.4375-1.53125-1.6211"/><path fill="#00b8fc" fill-rule="evenodd" d="M379.23438 455.15234l-.50782-1.45312.50781-1.07813 2.03125-3.35937 1.95313-4.4414.45313-1.1875v5.39843l-.1172.23047.1172.39062.11718-.39062-.11719-.23047v-5.39844l.10547 1.1875 2.35157 4.4414-1.80079 4.4375-.65625.4961-4.4375.95703m0-18.4453l-.03125-.76173.03125-.125.03907.125-.03906.76172"/><path fill="#00d4fc" fill-rule="evenodd" d="M383.67188 435.01563l-.60157.92968.60156.73438.5586-.73438-.5586-.92969"/><path fill="#00a8fc" fill-rule="evenodd" d="M383.67188 449.65234l-.1172-.39062.1172-.23047.11718.23047-.11719.39062"/><path fill="#00b8fc" fill-rule="evenodd" d="M388.10938 436.07031l-.36329-.125.36329-3.04687.14062 3.04687-.14063.125"/><path fill="#00d4fc" fill-rule="evenodd" d="M405.09375 453.69922l-3.45703-4.4375 2.8789-4.4414 1.34766-1.1172 4.4375-1.10156v1.44531l-2.24219.77344-2.1953 2.77735-1.01173 1.66406 1.01172 1.26953 1.40625 3.16797 1.2461 4.4375 1.78515 1.38281 3.7461 3.05469.6914.35937 4.4414.92188 2.17579-1.28125-2.17578-2.14063-3.03516-2.29687 1.05078-4.4375-1.17578-4.4375-1.28125-2.76172-2.51953-1.67969-1.91797-.77344v-1.4453l4.4375.49218.83594 1.72656 1.5586 4.4414 2.04687 3.79298.63672.64453-.63672 3.54297-.22266.89453.22266.16797 4.33594 4.26953-4.33594 2.55078-4.4414-.65625-3.66798-1.89453-.76953-.6289-4.4375-2.82032-.46484-.98828-.30469-4.4375"/><path fill="#00c4fc" fill-rule="evenodd" d="M405.86328 450.53125l-1.01172-1.26953 1.01172-1.66406 2.19531-2.77735 2.2422-.77344v1.59766l-3.32032 3.61719 2.08594 4.4375 1.23437 2.72656 3.64063-2.72656.79687-2.1914.17188-2.2461-.17188-.3711-4.4375-3.24609v-1.59765l1.91797.77343 2.51953 1.67969 1.28125 2.76172 1.17578 4.4375-1.05078 4.4375 3.03516 2.29687v2.125l-.04688.01563.04688.01172.01562-.01172-.01562-.01563v-2.125l2.17578 2.14063-2.17578 1.28125-4.4414-.92188-.69142-.35937-3.74609-3.05469-1.78515-1.38281-1.2461-4.4375-1.40625-3.16797"/><path fill="#00b8fc" fill-rule="evenodd" d="M409.0664 453.69922l-2.08593-4.4375 3.32031-3.61719v1.76953l-1.69531 1.84766 1.69531 3.41015 2.45313-3.41015-2.45313-1.84766v-1.76953l4.4375 3.2461.17188.37109-.17188 2.2461-.79687 2.1914-3.64063 2.72656-1.23437-2.72656"/><path fill="#00a8fc" fill-rule="evenodd" d="M410.30078 452.67188l-1.69531-3.41016 1.69531-1.84766v1.76953l-.07031.07813.07031.14062.10156-.14062-.10156-.07813v-1.76953l2.45313 1.84766-2.45313 3.41015"/><path fill="#009800" fill-rule="evenodd" d="M410.30078 449.40234l-.07031-.14062.07031-.07813.10156.07813-.10156.14062"/><path fill="#fff" fill-opacity="0" fill-rule="evenodd" d="M419.17969 447.3125l-.27344 1.94922.27344.5 2.35937-.5-2.35937-1.94922"/><path fill="#00b8fc" fill-rule="evenodd" d="M419.17969 462.58594l-.04688-.01172.04688-.01563.01562.01563-.01562.01172"/><path fill="#fff" fill-opacity="0" fill-rule="evenodd" d="M423.61719 451.2539l-.53906 2.44532.53906 1.40234.94531-1.40234-.94531-2.44531"/><path fill="#00e8fc" fill-rule="evenodd" d="M428.05469 455.40234l-1.33594-1.70312 1.33594-2.3125 4.4375-1.39063v1.58204l-3.01953 2.12109 3.01953 2.54687 2.90625-2.54687-2.90625-2.1211v-1.58203l4.4375 1.80079 1.04687 1.90234-1.04687 1.08203-4.40625 3.35547-.03125.03125-.04688-.03125-4.39062-2.73438"/><path fill="#00d4fc" fill-rule="evenodd" d="M432.49219 456.2461l-3.01953-2.54688 3.01953-2.1211v1.58594l-.76172.53516.76172.64062.73437-.64062-.73437-.53516v-1.58594l2.90625 2.1211-2.90625 2.54687"/><path fill="#00c4fc" fill-rule="evenodd" d="M432.49219 454.33984l-.76172-.64062.76172-.53516.73437.53516-.73437.64062"/><path fill="#50fcfc" fill-rule="evenodd" d="M441.3711 477.95703l-2.17188-2.0664 2.17187-2.11329 2.10547 2.11329-2.10547 2.0664"/><g clip-path="url(#d)"><path fill="#fff" fill-opacity="0" fill-rule="evenodd" d="M467.9961 480.32813H468V311.67188h-.0039H468v168.65625h-.0039"/></g><path fill="#fff" fill-opacity="0" fill-rule="evenodd" d="M149.6875 443.7539l2.3789 5.33594 9.09766-4.05468-2.375-5.33594-9.10156 4.05469"/><path fill-rule="evenodd" d="M158.53906 443.64063l.20703.46484-5.75 2.5625-.3203-.71875 4.10155-1.82813-.5664-1.26562.50781-.22656.28516.48437.15234.20703.17578.17578.21094.12891.26562.07031.32422.01172.40625-.0664"/><path fill="#fff" fill-opacity="0" fill-rule="evenodd" d="M400.89844 435.44531l.60547-5.8125-9.90625-1.03125-.60547 5.8086 9.90625 1.03515"/><path fill-rule="evenodd" d="M393.17578 431.1211l.05469-.50782 6.26172.65235-.08203.78515-4.46485-.46484-.14453 1.3789-.55469-.05468-.0039-.56641-.02735-.2539-.0664-.23829-.1211-.21875-.1914-.19531-.27735-.16797-.3828-.14844"/><path fill="#fff" fill-opacity="0" fill-rule="evenodd" d="M410.6875 471.51563l5.79297.74609 1.27734-9.8789-5.79297-.7461-1.27734 9.8789"/><path fill-rule="evenodd" d="M415.19922 463.90234l.5039.06641-.80468 6.24219-.78125-.10156.57422-4.45313-1.375-.17578.0703-.55078.5625.0039.25782-.01953.23828-.0586.22266-.11327.19922-.1875.17578-.27344.15625-.3789"/><g clip-path="url(#e)"><path fill="none" stroke="#000" stroke-linecap="round" stroke-linejoin="round" stroke-miterlimit="10" stroke-width=".5" d="M142.5625 483.53516l2.875-6.41407"/></g><g clip-path="url(#f)"><path fill="none" stroke="#000" stroke-linecap="round" stroke-linejoin="round" stroke-miterlimit="10" stroke-width=".5" d="M156.86719 483.8125l.89453-6.96875"/></g><g clip-path="url(#g)"><path fill="none" stroke="#000" stroke-linecap="round" stroke-linejoin="round" stroke-miterlimit="10" stroke-width=".5" d="M170.34766 483.83203l.5625-7.0039"/></g><g clip-path="url(#h)"><path fill="none" stroke="#000" stroke-linecap="round" stroke-linejoin="round" stroke-miterlimit="10" stroke-width=".5" d="M181.44922 482.80078l4.99219-4.94531"/></g><g clip-path="url(#i)"><path fill="none" stroke="#000" stroke-linecap="round" stroke-linejoin="round" stroke-miterlimit="10" stroke-width=".5" d="M193.84766 481.17188l6.82422-1.6875"/></g><g clip-path="url(#j)"><path fill="none" stroke="#000" stroke-linecap="round" stroke-linejoin="round" stroke-miterlimit="10" stroke-width=".5" d="M194.84375 480.92578l-.82031-.91406"/></g><g clip-path="url(#k)"><path fill="none" stroke="#000" stroke-linecap="round" stroke-linejoin="round" stroke-miterlimit="10" stroke-width=".5" d="M207.21875 479.28906l6.71484 2.07813"/></g><path fill="none" stroke="#000" stroke-linecap="round" stroke-linejoin="round" stroke-miterlimit="10" stroke-width=".5" d="M208.19531 479.59375l-.23047-1.20703"/><g clip-path="url(#l)"><path fill="none" stroke="#000" stroke-linecap="round" stroke-linejoin="round" stroke-miterlimit="10" stroke-width=".5" d="M220.89844 478.48438l5.98437 3.6875"/></g><path fill="none" stroke="#000" stroke-linecap="round" stroke-linejoin="round" stroke-miterlimit="10" stroke-width=".5" d="M220.89844 478.48438l.15625-2.44922"/><g clip-path="url(#m)"><path fill="none" stroke="#000" stroke-linecap="round" stroke-linejoin="round" stroke-miterlimit="10" stroke-width=".5" d="M234.48828 478.10156l5.4336 4.45703"/></g><path fill="none" stroke="#000" stroke-linecap="round" stroke-linejoin="round" stroke-miterlimit="10" stroke-width=".5" d="M234.48828 478.10156l.48438-2.40625"/><g clip-path="url(#n)"><path fill="none" stroke="#000" stroke-linecap="round" stroke-linejoin="round" stroke-miterlimit="10" stroke-width=".5" d="M247.78906 478.1211l5.46485 4.41796"/></g><path fill="none" stroke="#000" stroke-linecap="round" stroke-linejoin="round" stroke-miterlimit="10" stroke-width=".5" d="M247.78906 478.1211l.46485-2.41016"/><g clip-path="url(#o)"><path fill="none" stroke="#000" stroke-linecap="round" stroke-linejoin="round" stroke-miterlimit="10" stroke-width=".5" d="M261.08984 478.13672l5.4922 4.38672"/></g><path fill="none" stroke="#000" stroke-linecap="round" stroke-linejoin="round" stroke-miterlimit="10" stroke-width=".5" d="M261.08984 478.13672l.45313-2.41406"/><g clip-path="url(#p)"><path fill="none" stroke="#000" stroke-linecap="round" stroke-linejoin="round" stroke-miterlimit="10" stroke-width=".5" d="M274.46875 478.0586l5.36328 4.53906"/></g><path fill="none" stroke="#000" stroke-linecap="round" stroke-linejoin="round" stroke-miterlimit="10" stroke-width=".5" d="M274.46875 478.0586l.52344-2.39844"/><g clip-path="url(#q)"><path fill="none" stroke="#000" stroke-linecap="round" stroke-linejoin="round" stroke-miterlimit="10" stroke-width=".5" d="M287.52344 478.40625l5.88281 3.84375"/></g><path fill="none" stroke="#000" stroke-linecap="round" stroke-linejoin="round" stroke-miterlimit="10" stroke-width=".5" d="M287.52344 478.40625l.22265-2.44531"/><g clip-path="url(#r)"><path fill="none" stroke="#000" stroke-linecap="round" stroke-linejoin="round" stroke-miterlimit="10" stroke-width=".5" d="M300.8086 478.45313l5.9414 3.7539"/></g><path fill="none" stroke="#000" stroke-linecap="round" stroke-linejoin="round" stroke-miterlimit="10" stroke-width=".5" d="M300.8086 478.45313l.18359-2.44922"/><g clip-path="url(#s)"><path fill="none" stroke="#000" stroke-linecap="round" stroke-linejoin="round" stroke-miterlimit="10" stroke-width=".5" d="M313.78125 479.16016l6.6289 2.33984"/></g><path fill="none" stroke="#000" stroke-linecap="round" stroke-linejoin="round" stroke-miterlimit="10" stroke-width=".5" d="M313.78125 479.16016l-.36328-2.4297"/><g clip-path="url(#t)"><path fill="none" stroke="#000" stroke-linecap="round" stroke-linejoin="round" stroke-miterlimit="10" stroke-width=".5" d="M327.05078 479.29688l6.71875 2.0625"/></g><path fill="none" stroke="#000" stroke-linecap="round" stroke-linejoin="round" stroke-miterlimit="10" stroke-width=".5" d="M327.05078 479.29688l-.46484-2.40625"/><g clip-path="url(#u)"><path fill="none" stroke="#000" stroke-linecap="round" stroke-linejoin="round" stroke-miterlimit="10" stroke-width=".5" d="M340.38672 479.24219l6.67969 2.17578"/></g><path fill="none" stroke="#000" stroke-linecap="round" stroke-linejoin="round" stroke-miterlimit="10" stroke-width=".5" d="M341.35547 479.5586l-.21094-1.21094"/><g clip-path="url(#v)"><path fill="none" stroke="#000" stroke-linecap="round" stroke-linejoin="round" stroke-miterlimit="10" stroke-width=".5" d="M353.9336 481.96484l6.21484-3.27343"/></g><g clip-path="url(#w)"><path fill="none" stroke="#000" stroke-linecap="round" stroke-linejoin="round" stroke-miterlimit="10" stroke-width=".5" d="M354.83594 481.48828l-1.01172-.6875"/></g><g clip-path="url(#x)"><path fill="none" stroke="#000" stroke-linecap="round" stroke-linejoin="round" stroke-miterlimit="10" stroke-width=".5" d="M367.26953 482.00781l6.17188-3.35937"/></g><g clip-path="url(#y)"><path fill="none" stroke="#000" stroke-linecap="round" stroke-linejoin="round" stroke-miterlimit="10" stroke-width=".5" d="M368.16797 481.51953l-1.02344-.67578"/></g><g clip-path="url(#z)"><path fill="none" stroke="#000" stroke-linecap="round" stroke-linejoin="round" stroke-miterlimit="10" stroke-width=".5" d="M380.20313 479.7539l6.93359 1.14844"/></g><g clip-path="url(#A)"><path fill="none" stroke="#000" stroke-linecap="round" stroke-linejoin="round" stroke-miterlimit="10" stroke-width=".5" d="M381.21484 479.92188l-.39062-1.16407"/></g><g clip-path="url(#B)"><path fill="none" stroke="#000" stroke-linecap="round" stroke-linejoin="round" stroke-miterlimit="10" stroke-width=".5" d="M395.29297 483.40625l3.38672-6.15625"/></g><g clip-path="url(#C)"><path fill="none" stroke="#000" stroke-linecap="round" stroke-linejoin="round" stroke-miterlimit="10" stroke-width=".5" d="M409.1211 483.63672l2.36327-6.61719"/></g><g clip-path="url(#D)"><path fill="none" stroke="#000" stroke-linecap="round" stroke-linejoin="round" stroke-miterlimit="10" stroke-width=".5" d="M421.59766 483.20703l4.03515-5.7539"/></g><g clip-path="url(#E)"><path fill="none" stroke="#000" stroke-linecap="round" stroke-linejoin="round" stroke-miterlimit="10" stroke-width=".5" d="M435.78125 483.64844l2.30078-6.64063"/></g><g clip-path="url(#F)"><path fill="none" stroke="#000" stroke-linecap="round" stroke-linejoin="round" stroke-miterlimit="10" stroke-width=".5" d="M448.44922 483.34766l3.59375-6.03907"/></g><g clip-path="url(#G)"><path fill="none" stroke="#000" stroke-linecap="round" stroke-linejoin="round" stroke-miterlimit="10" stroke-width=".5" d="M462.14844 483.54688l2.82422-6.4336"/></g><g clip-path="url(#H)"><path fill="none" stroke="#000" stroke-linecap="round" stroke-linejoin="round" stroke-miterlimit="10" stroke-width=".5" d="M141.3711 469.34375l5.2578-4.66016"/></g><path fill="none" stroke="#000" stroke-linecap="round" stroke-linejoin="round" stroke-miterlimit="10" stroke-width=".5" d="M154.8164 469.48438l4.9961-4.94141m-4.26953 4.22265l-1.17188-.36328m13.25.42188l6.01953-3.6211m-5.14453 3.09375l-1.05078-.6289m13.02735-.11719l6.9453-1.07422m-5.93358.91797l-.73438-.98047m13.0625-.07031l6.89844 1.33984m-5.89453-1.14453l-.35938-1.17187m13.03125-.03125l6.17188 3.35547m-6.17188-3.35547l.02344-2.45703m13.40234 2.26562l5.95313 3.73828m-5.95313-3.73828l.17578-2.44531m13.32422 2.17969l5.58203 4.26953m-5.58203-4.26953l.39844-2.41797m13.125 2.17187l5.16797 4.76172m-5.16797-4.76172l.6211-2.375m.1289 3.0664l.3125-1.1875m12.08594.69141l5.5 4.3711m-5.5-4.3711l.44531-2.41406m.35547 3.05078l.22265-1.20703m12.4922.33985l5.10156 4.83203m-5.10157-4.83203l.65235-2.3672m.08984 3.07032l.32422-1.1836m11.9336.86329l5.73046 4.0664m-5.73047-4.0664l.3125-2.4336m13.86719 1.57813l4 5.77734m-3.41797-4.9375l.5625-1.08984m10.9375 1.76172l6.46484 2.7539m-5.52343-2.35546l-.10547-1.22266m12.21875 1.82813l6.98828.74609m-6.98828-.7461L326 464.3672m14.33203 1.73828l6.78906 1.8164m-6.78906-1.8164l-.55469-2.39063m13.83985 4.08985l6.84765-1.58203m-5.85156 1.35156l-.80469-.92578m13.5625 2.22265l5.96875-3.71484m-5.09765 3.17188l-1.0625-.61329m13.71093 1.44532l5.5625-4.29297m-4.7539 3.66797l-1.11719-.50391m14.09375 1.6289l4.6211-5.29296m-3.94922 4.52343l-1.19532-.27734m14.45313 1.47656l3.39062-6.15234m-2.89843 5.25781l-1.22657-.01953m12.95313-.03125l5.58594-4.26172m-4.77344 3.64063l-1.11719-.51172m14.26953 1.78515l4.28516-5.5664m-3.66406 4.75781l-1.20704-.20703m13.61329.76953l4.85937-5.07422m-4.15234 4.33594l-1.17969-.33203m15.41406 1.95312l1.60547-6.83984m-1.3711 5.84375l-1.1875.3164"/><g clip-path="url(#I)"><path fill="none" stroke="#000" stroke-linecap="round" stroke-linejoin="round" stroke-miterlimit="10" stroke-width=".5" d="M141.1875 455.80469l5.625-4.21094"/></g><path fill="none" stroke="#000" stroke-linecap="round" stroke-linejoin="round" stroke-miterlimit="10" stroke-width=".5" d="M154.40234 455.66406l5.82422-3.92969m-5.82422 3.9297l-2.16797-1.15235m14.97657-.00781l6.83984-1.60938m-6.83984 1.60938l-1.61719-1.84766m14.83984 1.14063l7.02344-.19532m-6.0039.16797l-.60547-1.0664m13.07812-.10938l6.67188 2.20703m-6.67188-2.20703l-.41406-2.41797m13.64062 2.73438L214 454.48828m-6.84766-1.57812l-.63672-2.3711m14.20313 1.64844l6.34375 3.01953m-6.34375-3.01953l-.10938-2.44922m14.125 1.46094l4.94141 4.9961m-4.9414-4.9961l.73046-2.33984m12.9297 2.03906l4.25 5.59765m-4.25-5.59765l1.03124-2.22656m12.94531 1.83203l2.9297 6.38672m-2.9297-6.38672l1.48438-1.94922m-1.0586 2.8789l.7422-.97265m11.41406.4961l4.39843 5.48046m-4.39844-5.48047l.96875-2.2539m12.78907 1.94921l3.50781 6.08985m-2.9961-5.20313L289.875 450.5m13.60938-.30078l.59375 7m-.50782-5.98438l1.03125-.66406m12.60938-.36328l-.23047 7.02344m.19531-6.0039l1.10156-.53907m11.58204-.4375l1.10546 6.9375m-.9453-5.92969L331 450.5m10.91797.1875l3.61719 6.02344m-3.08985-5.14844l.6289-1.05078m14.97657-.17969l-2.01953 6.73047m1.72656-5.75l1.19922-.24219m8.5625 4.70313l5.67188-4.14844m-4.84766 3.54297l-1.10156-.53125m13.92187 1.52344l5.01563-4.92188m-4.28906 4.20313l-1.16797-.3672m12.85546-.52343l6.81641-1.70312m-5.82422 1.45703l-.82031-.91407m13.30469 1.64844l6.49219-2.6836M408 454.64845l-.94531-.77735m13.10547.46485l6.91015-1.27344m-5.90234 1.08594l-.76563-.96094M433.66797 455l6.52734-2.60547M433.66797 455l-1.8711-1.58203m15.35157 1.9375l6.19531-3.3125m-6.19531 3.3125l-2.03906-1.36719m16.3203 2.5039l4.26173-5.58593m-4.26172 5.58594l-2.41797-.39844"/><g clip-path="url(#J)"><path fill="none" stroke="#000" stroke-linecap="round" stroke-linejoin="round" stroke-miterlimit="10" stroke-width=".5" d="M140.71094 441.625l6.57812-2.48047"/></g><path fill="none" stroke="#000" stroke-linecap="round" stroke-linejoin="round" stroke-miterlimit="10" stroke-width=".5" d="M154.27344 442.14063l6.08594-3.51172m-5.20313 3l-1.03906-.65235m13-.5625l7.02734-.0625m-6.0039.05469l-.58594-1.07812m12.88672.78125l7.0078.55078m-5.98827-.47266l-.48828-1.125m12.77734 1.49219l7.01953-.34375m-7.01953.34375l-1.2539-2.10938m15.45312-.39453l5.2539 4.66406m-4.49218-3.98437L209 437.53516m13.21875-.2422l3.34375 6.1797m-3.34375-6.1797l1.35547-2.04296m12.16016 1.9414l2.9414 6.38282m-2.9414-6.38281l1.48828-1.95313m12.3164 1.76953l1.96094 6.75m-1.67578-5.76562l.88281-.85547m12.55469-.21875l1.14844 6.9336m-1.14844-6.9336l1.94922-1.49219m12.21484 1.45313l-.55078 7.0078m.47266-5.98827l1.125-.48828m11.7578-.53125l.46876 7.01172m-.39844-5.9922l1.03906-.64843m13.07032-.32422l-1.26172 6.91406m1.26172-6.91406l2.33984-.74219m10.96484.7422l-1.23437 6.91796m1.05469-5.91406l1.16406-.375m12.5-.59375l-1.57813 6.84765m1.57813-6.84765l2.3711-.63672m11.27343.73047l-2.23828 6.66015m2.23828-6.66015l2.42187-.40235m10.54297.30078l-1.53515 6.85938m1.3125-5.85938l1.17968-.32812m11.50391-.7539l.17188 7.02343m-.14454-6l1.06641-.60547m9.80469 5.5586l5.00781-4.9297m-4.27734 4.21485l-1.17188-.36719m13.26563.45704l5.98828-3.6797m10.23437 5.35157l.17188-7.02344m-.14844 6.00391l-1.09375.54687m17.91016-2.3125l-6.875-1.45312m5.875 1.24219l.33984 1.17968m7.28125-3.01171l6.51172 2.63671m-5.5664-2.2539l-.125-1.21875m12.28906 2.75l6.92578-1.1914m-5.91797 1.01562l-.7539-.96875m13.05859 1.13672l6.92968-1.17579m-5.92187 1.00391l-.75-.97266"/><g clip-path="url(#K)"><path fill="none" stroke="#000" stroke-linecap="round" stroke-linejoin="round" stroke-miterlimit="10" stroke-width=".5" d="M140.70703 428.28906l6.58594-2.4414"/></g><path fill="none" stroke="#000" stroke-linecap="round" stroke-linejoin="round" stroke-miterlimit="10" stroke-width=".5" d="M155.60547 430.13672L159.02344 424m-2.91797 5.2461l-1.23047-.02344m16.375 1.30468l-1.23828-6.91797m1.05469 5.91016l-.96485.75781m10.35156-3.60937l6.98438.80469m-5.96875-.69141l-.44531-1.14063m14.89062-1.8164l2.6914 6.48828m-2.30077-5.54688l.78125-.9453m14.16797-.19923l-1.35547 6.89453m1.15625-5.89062l1.17578-.35547m11.86328-.70703l-.40625 7.01172m.34766-5.99219l1.11328-.51172m11.91797-.51172l.27734 7.01953m-.23438-6l1.0586-.61718m12.24219-.40235l.22265 7.02344m-.1914-6.0039l1.0664-.60938m13.3086-.27344l-1.96094 6.7461m1.67578-5.76563l1.19922-.25m13.65625-.0664l-4.47266 5.41796m15.78906-6.21484l-.47265 7.01172m.40234-5.99219l1.1211-.5m13.65234-.1289l-3.2539 6.23046m3.2539-6.23047l2.45312-.01562m11.94922.89844l-5.42578 4.46875m4.63672-3.82031l1.13281.46875m10.85547-2.34766l-1.19531 6.92578m1.02344-5.91797L332 424.23047m12.33984-.6211l-1.22656 6.91797m1.04688-5.91015l1.16796-.3789m12.07032-.66407l-.71485 6.98828m.60938-5.97266l1.13672-.46093m9.7539.17578l4.34375 5.52734m-3.71093-4.72266l.49609-1.12109m10.91797 3.78906l6.88281-1.41797m-5.88281 1.21094l-.78125-.9414m16.20312 3.9375l.66797-6.9961m-.57031 5.97656l-1.13281.47266m14.00781-6.39844l1.35547 6.89453m9.5625-1.74609l6.14844-3.40234m10.77343-1.76953l-1.0664 6.9453m1.0664-6.9453l2.31641-.8125m8.52344 1.35546l3.88672 5.85547m-3.32422-5.0039l.58593-1.07813m11.01172 1.4961l6.19532 3.3164m-5.29297-2.83594l.0039-1.22656"/><g clip-path="url(#L)"><path fill="none" stroke="#000" stroke-linecap="round" stroke-linejoin="round" stroke-miterlimit="10" stroke-width=".5" d="M146.5039 411.28516l-5.0078 4.93359"/></g><path fill="none" stroke="#000" stroke-linecap="round" stroke-linejoin="round" stroke-miterlimit="10" stroke-width=".5" d="M160.75781 414.44531l-6.88672-1.38281m20.1797 1.48828l-6.84376-1.59375m20.25.95313l-7.02344-.31641m6 .27344l.52735 1.10547m13.60937-.04297l-6.6211-2.35156m17.50782-2.22657l-1.76172 6.80469m1.5039-5.8125l1.19532-.28906m12.8789-.53125l-2.76562 6.46094m2.36328-5.52344l1.22266-.10156m13.26563-.38282l-4.3086 5.55078m4.3086-5.55078l2.41796.41797m12.1172 1.3711l-6.7461 1.97265m5.76172-1.6836l.85937.87891m12.41016-2.79687l-4.6914 5.23437m4.6914-5.23437l2.38281.58984m12.03516 1.35547l-6.89453 1.34375m6.89453-1.34375l1.54687 1.90625m11.58203-2.54297l-6.52343 2.61328m5.57421-2.23046l.9375.78906m12.875-1.97266l-5.62109 4.21875m4.80469-3.60547l1.10937.52344m13.1875-.89844l-5.94922 3.74219m5.08204-3.19922l1.0664.60938m12.58594-1.8047l-4.89063 5.04688m4.89063-5.04687l2.35937.67969m8.4336-1.66797l.15625 7.02344m-.13281-6.00391l1.0664-.59766m14.32422.21485l-4.04297 5.74609m3.45703-4.91016l1.21485.15625m11.33984-1.5664l-1.34766 6.89844m1.34766-6.89844l2.34766-.71485m7.25 2.40625l6.08593 3.51563m6.75782-1.70703l7.02734-.10156m-7.02734.10156l-1.1836-2.15235m18.61328-1.35937l-1.20312 6.92187m1.02734-5.91406l1.16797-.38281m12.72266-.53125l-2 6.73437m1.70703-5.7539l1.20312-.2461m11.02344-.85937l.76172 6.98437m-.65234-5.96875l1.01562-.6914m11.3086-.11328l2.52343 6.55859m-2.52343-6.5586l1.60937-1.85156m10.23047 2.9297l5.47266 4.40624m-5.47266-4.40625l.46094-2.41015"/><g clip-path="url(#M)"><path fill="none" stroke="#000" stroke-linecap="round" stroke-linejoin="round" stroke-miterlimit="10" stroke-width=".5" d="M145.8125 397.42578l-3.625 6.02344"/></g><path fill="none" stroke="#000" stroke-linecap="round" stroke-linejoin="round" stroke-miterlimit="10" stroke-width=".5" d="M145.28516 398.30469l1.22265.0625m14.21875 1.23828l-6.82422 1.66797m5.83203-1.42578l.81641.91406m13.22266 1.24219l-6.28906-3.13282m5.375 2.6797l.03515 1.22265m13.8125-.16406l-5.52344-4.33985m4.72266 3.70703l-.21875 1.20703m13.22266-5.84765l-3.30078 6.20312m2.8203-5.30078h1.22657m8.26563-.10156l5.30859 4.60156m-4.53906-3.9336l.27734-1.1953m11.59766 1.6875l6.64843 2.28125m-5.67968-1.94922l-.19532-1.21094m19.35547 1.6289l-6.98047.78516m6.98047-.78515l1.38672 2.02343m11.9414-1.91015l-7.0039.55859m7.0039-.5586l1.32032 2.06641m12.0039-1.76172l-7.02734-.05468m7.02735.05468l1.13672 2.17579m12.14843-2.66797l-6.96484.92968m6.96484-.92968l1.42969 1.99609m11.63672-2.90625l-6.46485 2.7539m6.46485-2.7539l1.90625 1.54297m10.17969-3.05078l-4.00782 5.76953m4.00782-5.76953l2.4375.28906m8.1953-.85156l1.35548 6.89453m-1.35547-6.89453l1.90625-1.55078m11.95312 1.48437l.26953 7.02344m-.23046-6l1.05859-.61719m13.44531-.23437l-2.1875 6.67968m2.1875-6.67968l2.41797-.41797m7.10547 1.50781l5.39453 4.5039m-5.39453-4.5039l.5039-2.40234m13.66407 1.66015l3.6875 5.98438m-3.6875-5.98438l1.24219-2.11719m17.11718 3.66016l-6.39843 2.90235m15.28515-4.7422l2.45703 6.58204m-2.45703-6.58203l1.6289-1.83985m15.70313 2.9922l-5.57422 4.27733m17.96485-5.12109l-3.72656 5.96094m3.18359-5.09375l1.22266.08594m10.6914-1.48438l.16016 7.02344m-.16016-7.02344l2.14063-1.19922m9.61328 1.60547l3.28515 6.21094m-3.28515-6.21094l1.375-2.03125m11.08203 2.66797l5 4.9375m-5-4.9375l.70312-2.35156m.02344 3.07031l.35156-1.17578"/><g clip-path="url(#N)"><path fill="none" stroke="#000" stroke-linecap="round" stroke-linejoin="round" stroke-miterlimit="10" stroke-width=".5" d="M143.05469 383.73828l1.89062 6.76953"/></g><g clip-path="url(#O)"><path fill="none" stroke="#000" stroke-linecap="round" stroke-linejoin="round" stroke-miterlimit="10" stroke-width=".5" d="M143.32813 384.72266l.88671-.84375"/></g><path fill="none" stroke="#000" stroke-linecap="round" stroke-linejoin="round" stroke-miterlimit="10" stroke-width=".5" d="M160.2461 389.0625l-5.85938-3.8789m17.28906 5.29296l-2.08984-6.70703m1.78515 5.73047l-.86328.875m12.34375-6.58984l2.1875 6.67578m-1.86719-5.70703l.84766-.88282m10.95703.58204l4.5664 5.33984m-3.90233-4.5625l.44921-1.14063m14.14453-.46484l.6797 6.9961m-.6797-6.9961l2.04688-1.35547m10.1875 1.64063l2.84375 6.42578m-2.42969-5.49219l.7539-.96484m16.09376 5.6875l-5.05078-4.88672m5.05078 4.88672l-.67578 2.35546m14.85156-3.85937l-6.76953-1.8789m5.78516 1.60546l.26562 1.19922m14.11328-2.45312l-6.92969 1.17578m6.9297-1.17578l1.49609 1.9453m-2.50391-1.77343l.7461.97266m13.61327-.25l-7-.61328m5.98047.52343l.48047 1.12891m13.5625-2.77344l-6.41797 2.85938m6.41797-2.85938l1.9336 1.50781m10.09765-3.01953l-3.85156 5.87891m3.85156-5.8789l2.44531.22656m-3.0039.6289l1.21875.11328m11.53125-1.44921l-1.60547 6.83984m1.60547-6.83985l2.375-.625m-2.60938 1.6211l1.1875-.3125m12.34375-.6875l-1.57031 6.84765m1.57031-6.84765l2.3711-.64063m-2.59766 1.63672l1.1836-.32031m12.36718-.67578l-1.58594 6.84765m1.58594-6.84765l2.3711-.63281m9.11718.69921l2.0664 6.71485m-2.0664-6.71485l1.73438-1.73828m13.3125 1.65235l-1.39844 6.88672m1.39844-6.88672l2.35547-.69531m11.78515.97265l-3.04687 6.33203m3.04687-6.33203l2.44922-.09765M384.75 384.8789l1.22656-.05079m11.92188-1.09765l-1.82422 6.78515m1.82422-6.78515l2.39062-.55078m11.77344.90234l-3.51953 6.08203m3.00781-5.19531l1.22266.04297m11.59375-1.32031l-1.5 6.86328m1.28125-5.86719l1.17968-.32813m10.7461-.64453l1.71484 6.81641m-1.46484-5.82422l.91015-.82422m12.44922-.22656l1.125 6.9336m-1.125-6.9336l1.95313-1.48438m11.6289 1.44922l.58985 7.00391m-.58985-7.0039l2.0625-1.32813"/><g clip-path="url(#P)"><path fill="none" stroke="#000" stroke-linecap="round" stroke-linejoin="round" stroke-miterlimit="10" stroke-width=".5" d="M140.49219 373.625l7.01562.36719"/></g><path fill="none" stroke="#000" stroke-linecap="round" stroke-linejoin="round" stroke-miterlimit="10" stroke-width=".5" d="M154.66406 376.11328l5.30469-4.60937m-4.53516 3.9375l-1.14453-.4375m14.73438 1.92968l3.21484-6.25m-2.75 5.33985l-1.22656.01562m19.07031-3.16406l-6.77344 1.86719m5.78907-1.59766l.84375.89063m13.0703-2.0547l-6.0039 3.65626m5.1289-3.125l1.0547.625m6.73437-.21094l6.80078 1.76563m11.28906-4.1172l-2.75 6.46876m2.75-6.46875l2.44532-.21094m11.6875 6.1875l-4.38672-5.48437m3.75 4.6875l-.48438 1.125m15.21094-1.1875l-5.9336-3.76563m5.9336 3.76563l-.1875 2.4453m13.98438-5l-6.89844 1.34376m6.89844-1.34375l1.54297 1.90625m11.23828-3.1914l-5.83203 3.91406m5.83203-3.91407l2.16406 1.15625m-3.01172-.58984l1.08203.58203m12.5625-1.76172l-4.79297 5.14063m4.79297-5.14063l2.36719.63672m-3.0664.10938l1.1875.3203m10.44921-2.01171l-.03906 7.02734m.03906-7.02734l2.17188-1.13672m9.69922 1.4414l2.84765 6.42188m-2.4336-5.48828l.75782-.96484m11.94531.125l3.24219 6.23437m-2.76953-5.32812l.69531-1.01172m12.1875.08594l3.16016 6.27343m-3.16016-6.27344l1.41797-2.0039M356 370.45312l2.08203 6.71094M356 370.45312l1.73047-1.74218m9.6875 3.16797l5.875 3.85937m-5.01953-3.29687l.11328-1.22266m12.07422 1.16406l6.42187 2.85156m-5.48828-2.4375l-.08594-1.22265m15.67579-1.28125v7.02734m0-7.02734l2.16796-1.14844m11.8711 1.22656l-1.4414 6.875m1.4414-6.875l2.35547-.68359m10.54687.6211l-.6211 7m.6211-7l2.26172-.95704m10.03125 1.01563l1.42578 6.88281m-1.21875-5.88281l.94531-.78125m12.31641-.2461l1.11719 6.9375m-1.11719-6.9375l1.95703-1.48046m12.23047 1.44921l-.6289 7m.6289-7l2.26172-.95312m-2.35156 1.97265l1.1289-.47656"/><g clip-path="url(#Q)"><path fill="none" stroke="#000" stroke-linecap="round" stroke-linejoin="round" stroke-miterlimit="10" stroke-width=".5" d="M140.5039 360.13672l6.9922.71484"/></g><path fill="none" stroke="#000" stroke-linecap="round" stroke-linejoin="round" stroke-miterlimit="10" stroke-width=".5" d="M154.3164 362.32422l6-3.66016m-6 3.66016l-2.11327-1.25m2.98437.71484l-1.05469-.625m14.58594 2.27735l3.82031-5.89844m-3.82031 5.89844l-2.4414-.21094m19.86718.0039l-4.39844-5.48046m3.75782 4.68359l-.48438 1.125m13.76172.09766l-3.03906-6.33594m3.03906 6.33594l-1.45703 1.97656m14.23047-1.76953l-1.96094-6.75m17.69922 4.25l-6.80469-1.75m6.80469 1.75l.57812 2.38672m12.15235-1.16016l-5.63672-4.19922m5.63672 4.19922l-.3711 2.42578m14.33203-5.11719l-6.92578 1.1836m5.91797-1.01172l.75.96875m13.3125-1.98828l-6.41015 2.8789m6.41015-2.8789l1.9414 1.5039m-2.87108-1.08593l.96875.75m12.58593-2.1836l-5.02734 4.91016m5.02734-4.91016l2.33594.74219m-3.0664-.03125l1.16796.375m10.61328-2.13672l-.49609 7.00781m.4961-7.0078l2.24218-.9961m-2.3164 2.01562l1.12109-.4961m10.49219-.18358l3.05468 6.32812m-3.05468-6.32813l1.44922-1.97656M302.6953 358.25l.72657-.98828m11.5039.46875l4.33985 5.52734m-4.33985-5.52734l.99219-2.2461m12.46875 2.13672l4.05078 5.7422m-4.05078-5.7422l1.10547-2.1875m11.2539 3.19922l5.96094 3.72266m-5.09375-3.1836l.08594-1.22265m13.95312-.6836l2.77735 6.45313m-2.375-5.51172l.76953-.96094m13.34375-.26171l.3789 7.01562m10.625-5.97656l4.9961 4.9414m-4.26953-4.22265l.35547-1.17578m11.4375 1.70703l6.58984 2.4375m-6.58984-2.4375l-.32813-2.42969m16.61719.15234l.64453 6.9961m-.55078-5.98047l1.02344-.67188m13.6289-.17968l-2.22265 6.66796m1.89843-5.69921l1.21094-.20313m11.57031-.9375l-.5039 7.00781m.42969-5.98828l1.125-.4961m10.60156-.23437l2.82031 6.4336m-2.82031-6.4336l1.51953-1.92578m12.49219 1.70313l1.42968 6.8789m-1.42968-6.8789l1.88672-1.57031"/><g clip-path="url(#R)"><path fill="none" stroke="#000" stroke-linecap="round" stroke-linejoin="round" stroke-miterlimit="10" stroke-width=".5" d="M141.0586 345.2539l5.8828 3.84766"/></g><path fill="none" stroke="#000" stroke-linecap="round" stroke-linejoin="round" stroke-miterlimit="10" stroke-width=".5" d="M153.86328 347.83594l6.90234-1.3164m-6.90234 1.3164l-1.53516-1.91016m16.34375 4.16797l3.91797-5.83203m-3.91797 5.83203l-2.4414-.25m3.01172-.59766l-1.22266-.125m16.11719 1.56641l-.38281-7.01953m.3828 7.01953l-2.10155 1.26563m15.72265-1.29688l-.9961-6.95703m.9961 6.95703l-1.98437 1.44531m1.83984-2.45703l-.99219.72266m16.82032-5.21875l-5.73438 4.0625m4.90234-3.47266l1.09375.55078m12.14454 3.8086l-3.91407-5.83594m3.91407 5.83594l-1.15625 2.16015m.58593-3.01172l-.57812 1.08204m14.9414-.6172l-4.87109-5.0664m4.8711 5.0664l-.76172 2.33204m.05468-3.07031l-.3828 1.16796m15.28515-1.80468l-6.63281-2.3164m6.6328 2.3164l.375 2.42578m12.19141-5.98438l-5.1328 4.80079m4.3828-4.10157l1.16407.39453m10.08203-2.19921l.5039 7.01171m-.5039-7.01171l2.08203-1.30079m-2.00781 2.32032l1.03906-.64844m12.26172-.375l.38672 7.01953m-.38672-7.01953l2.10156-1.26563m11.80078 1.28516l-.78906 6.98047m.78906-6.98047l2.28125-.90234m11.16016.91796l-1.04297 6.94922m1.04297-6.94921l2.3125-.81641m9.89062.82812l1.1836 6.92579m-1.1836-6.92579l1.9414-1.5m12.29688 1.46485l-.66406 6.9961m.66406-6.9961l2.26563-.9414m11.46094 1.0078l-1.48829 6.8672m1.27344-5.8711l1.17969-.33203m13.47266-.21094l-3.73438 5.95703m3.1914-5.08984l1.22266.08984m14.27735 1.8164l-7.01563.41016m5.99219-.34765l.64062 1.04687m10.01563-4.41406l.34766 7.01953m-.29688-5.9961l1.05469-.6289m8.92578 2.49219l6.91406 1.25m-6.91406-1.25l-.7461-2.33985m16.01172-.21093l3.01563 6.34765m-3.01563-6.34765l1.46094-1.96875m11.57031 2.12109l3.58204 6.04688m-3.58204-6.04688l1.27735-2.09766m12.11328 2.05079l3.42969 6.13671m-3.42969-6.13671l1.33203-2.0625m10.85938 3.05859l5.67578 4.14453m-5.67578-4.14453l.34765-2.42969m.48047 3.03516l.17188-1.21485"/><g clip-path="url(#S)"><path fill="none" stroke="#000" stroke-linecap="round" stroke-linejoin="round" stroke-miterlimit="10" stroke-width=".5" d="M141.9375 331.01563l4.125 5.6914"/></g><path fill="none" stroke="#000" stroke-linecap="round" stroke-linejoin="round" stroke-miterlimit="10" stroke-width=".5" d="M154.38281 331.92578l5.86328 3.875m-5.01172-3.3086l.1172-1.22265m13.625 5.69531l3.30468-6.20312m-3.30469 6.20312l-2.45312-.0039m18.13281.34375l-1.42188-6.88281m1.42188 6.8828l-1.88672 1.56641m1.67969-2.5703l-.9414.78515m14.62109.1836l-1.73828-6.8125m1.73828 6.8125l-1.81641 1.64843m1.5625-2.64063l-.90625.82422m17.1211-3.27344l-7.02735.07032m7.02734-.07031l1.17188 2.15234m11.92187-.89453l-6.58593-2.44531m6.58593 2.4453l.32813 2.4297m-1.28516-2.78516l.32422 2.42969m-1.28516-2.78516l.16407 1.21484m15.1875-.89453l-6.82422-1.66406m6.82422 1.66406l.60547 2.3789m-1.59766-2.62108l.60547 2.3789m13.77734-3.38672l-6.97656.83594m6.97656-.83594l1.40235 2.01563m9.80859-4.82813l-2.76563 6.46094m2.76563-6.46094l2.44531-.20312m10.82422.1836l-2.67187 6.5m2.67187-6.5l2.4414-.2422m11.35548.48829l-3.64063 6.0078m3.64063-6.0078l2.45312.13671m10.53906-.3125l-2.99218 6.35938m2.99218-6.35938l2.45313-.11718m10.76562.07421l-2.80078 6.44532m2.80078-6.44531l2.44532-.19141m10.41797.03125l-1.89844 6.76562m1.89844-6.76562l2.39843-.52344m11.11328.58203l-2.28906 6.64453m2.28906-6.64453l2.42188-.38281m12.04297 1.04688l-4.58985 5.3203m4.58985-5.3203l2.39453.54687m12.11328 2.55469l-6.97266-.88281m6.97266.8828l.8711 2.29298m-1.88672-2.42188l.43359 1.14844m13.53125-3.07422l-6.24219 3.22656m6.24219-3.22656l2.01953 1.39453m-2.92969-.92578l1.01172.69922m12.01953-2.49219l-3.85547 5.875m3.85547-5.875l2.4414.22266m9.16017-.79297l-.4297 7.01562m.4297-7.01562l2.23437-1.01563m9.01563 1.53516l3.70312 5.97266m-3.70312-5.97266L423 328.75781m-.69531 2.98828l.61719-1.0625m11.28515.96094l5.44922 4.4375m-5.44922-4.4375l.47656-2.41015M435 332.28906l.47656-2.40625m11.64063 2.3789l6.25781 3.20313m-6.25781-3.20312l-.03906-2.45313m.94921 2.91797l-.01953-1.22656m12.1914 1.34375l6.72657 2.03906m-6.72656-2.03906l-.47656-2.40625m1.45312 2.70313l-.23437-1.20313"/><g clip-path="url(#T)"><path fill="none" stroke="#000" stroke-linecap="round" stroke-linejoin="round" stroke-miterlimit="10" stroke-width=".5" d="M142.85938 317.22266l2.28125 6.64843"/></g><g clip-path="url(#U)"><path fill="none" stroke="#000" stroke-linecap="round" stroke-linejoin="round" stroke-miterlimit="10" stroke-width=".5" d="M143.1914 318.1914l.83985-.89452"/></g><path fill="none" stroke="#000" stroke-linecap="round" stroke-linejoin="round" stroke-miterlimit="10" stroke-width=".5" d="M159.28125 317.63672l-3.9336 5.82422m16.69141.30469l-2.82031-6.4375m2.82031 6.4375l-1.51953 1.92578m1.10938-2.86329l-.76172.96485m14.16015.09765l-2.16406-6.68359m2.16406 6.6836l-1.70703 1.76171m1.39063-2.73437l-1.70313 1.76172m16.07031-1.125l-3.63671-6.01172m3.63672 6.01172l-1.25782 2.10547m.73047-2.98047l-.6289 1.05469m16.16796-3.23047l-7.02734.08593m7.02734-.08593l1.17578 2.15234m-2.19921-2.13672l.58984 1.07422m13.74219-1.21484l-7.01563.33593m7.01563-.33593l1.2539 2.10937m-2.27343-2.0586l1.2539 2.10938m12.99219-2.79687l-6.83984 1.60937m6.83984-1.60937l1.61719 1.84765m-2.61328-1.61328l.80859.92188m13.14844-2.0664l-6.13281 3.42968m6.1328-3.42969l2.0625 1.32813m-2.95312-.82813l1.03125.66406m12.73047-1.78906l-5.24219 4.6836m5.2422-4.6836l2.30077.84766m-3.0664-.16797l1.15234.42578M279.57031 318l-4.83984 5.09375M279.5703 318l2.36328.66016m-3.0664.08203l1.17968.32812m12.72266-1.17578l-4.60547 5.3086m4.60547-5.3086l2.39063.55078m-3.0625.22266l1.1953.27344m12.55079-1.23829l-4.125 5.69141m4.125-5.6914l2.42969.33984m10.85156-.36328l-4.0586 5.73828m4.0586-5.73828l2.4336.3086m-3.02344.52343l1.21484.15625m13.40625-.3125l-5.49219 4.38281m5.49219-4.38281l2.2539.97656m10.8711-1.19531l-5.11328 4.82031m5.11328-4.82031l2.32422.78906m11.04297-.73047l-5.21485 4.70703m5.21485-4.70703l2.3086.83594m11.6289.13672l-6.46094 2.76172m6.46094-2.76172l1.91015 1.53906m10.85938-2.42578l-5.3711 4.53125m5.3711-4.53125l2.27734.91406m-3.0586-.2539l1.14063.45703m12.66016-1.42578l-4.77734 5.15234m4.77734-5.15234l2.3711.625m-3.06641.125l1.1875.3125m12.05078-1.60938l-3.23047 6.24219m3.23047-6.24219l2.45312-.02734m-2.92578.9375l1.22656-.01563m10.89454-1.28515l.10156 7.02734m-.10156-7.02734l2.14843-1.1836m-2.1328 2.20703l2.14843-1.18359m9.55469.57031l3.29296 6.20703m-3.29296-6.20703l1.375-2.03515m-.89454 2.9375l.6875-1.01563m16.78516 1.375l-5.98437 3.6836m5.11328-3.14844l1.0586.6211m12.10546-2.22267l-3.9414 5.81641"/><g clip-path="url(#V)"><path fill="none" stroke="#000" stroke-linecap="round" stroke-linejoin="round" stroke-miterlimit="10" stroke-width=".5" d="M465.53125 317.64063l2.4414.26171"/></g><path fill="none" stroke="#000" stroke-linecap="round" stroke-linejoin="round" stroke-miterlimit="10" stroke-width=".5" d="M464.96094 318.48438l1.21875.1328"/><path fill="#00f" fill-rule="evenodd" d="M401.55469 454.33203h8.61719V444.1875h-8.6172v10.14453"/><path fill="azure" fill-rule="evenodd" d="M403.38672 446.01953h.83203v2.82422h3.28906v-2.82422h.83203V452.5h-.83203v-2.91406h-3.28906V452.5h-.83203v-6.48047"/><path fill="#00f" fill-rule="evenodd" d="M370.48438 401.07422h8.62109v-10.14844h-8.6211v10.14844"/><path fill="azure" fill-rule="evenodd" d="M372.3164 392.76172h.83594v2.82031h3.28516v-2.82031h.83203v6.47656h-.83203v-2.91406h-3.28516v2.91406h-.83593v-6.47656"/><path fill="#00f" fill-rule="evenodd" d="M197.39063 396.63281h8.61718v-10.14453h-8.61719v10.14453"/><path fill="azure" fill-rule="evenodd" d="M199.22266 388.32031h.83203v2.82422h3.28515v-2.82422h.83594v6.48047h-.83594v-2.91406h-3.28515v2.91406h-.83203v-6.48047"/><path fill="#ff3030" fill-rule="evenodd" d="M331.23438 378.88281h7.6914v-10.14844h-7.6914v10.14844"/><path fill="azure" fill-rule="evenodd" d="M333.0664 370.5664h.83594v5.7422h3.19141v.73827h-4.02734v-6.48046"/><path fill="#ff3030" fill-rule="evenodd" d="M202.52344 370.0039h7.6914v-10.14452h-7.6914v10.14453"/><path fill="azure" fill-rule="evenodd" d="M204.35547 361.6914h.83203v5.73829h3.19531v.74219h-4.02734v-6.48047"/><path fill="#ffffe0" fill-rule="evenodd" d="M418.58984 432.3711h22.1797v-10.19141h-22.1797v10.1914"/><path fill-rule="evenodd" d="M422.08984 424.01172h.50782v6.29687h-.78516v-4.48828h-1.39063v-.5586l.5625-.0625.25-.05468.23047-.08984.20313-.14063.17578-.21094.14063-.29296.10546-.39844m4.8125 0l.23047.01953.21875.0586.20703.08984.19532.11719.1875.15234.17187.17578.30078.41797.24219.49219.17969.54687.11328.58203.03515.58985-.03515.59375-.11328.58203-.17969.55469-.24219.5039-.30078.42578-.17187.17969-.1875.15234-.19532.125-.20703.09375-.21875.0547-.23047.01952-.23046-.01953-.21875-.05469-.20704-.09375-.1953-.125-.1836-.15234-.17188-.17969-.30078-.42578-.2461-.5039-.17968-.5547-.10938-.58202-.03906-.59375h.83203l.03125.5625.08204.5078.125.44142.16015.375.1914.30078.21094.21875.22266.13671.22656.04688.22657-.04688.22265-.13671.21094-.21875.1914-.30079.16407-.375.125-.4414.08203-.50781.02734-.5625-.02734-.5625-.08203-.5-.125-.4336-.16406-.36719-.19141-.29296-.21094-.21485-.22265-.1289-.22657-.04688-.22656.04688-.22265.1289-.21094.21485-.1914.29296-.16017.3672-.125.43359-.08203.5-.03125.5625h-.83203l.03906-.58985.10938-.58203.17969-.54687.2461-.4922.30077-.41796.17188-.17578.1836-.15235.1953-.11718.20704-.08985.21875-.05859.23046-.01953m5.09375 0h.50782v6.29687h-.78516v-4.48828h-1.39063v-.5586l.5586-.0625.2539-.05468.23047-.08984.20313-.14063.17187-.21094.14454-.29296.10546-.39844m2.82032 2.17578h.78906l.01953-.3164.0586-.28516.09765-.2539.14063-.21485.18359-.17188.22265-.1289.26563-.08204.3086-.02734.23827.02344.22266.0625.20313.10156.17968.13672.14844.17578.11328.20313.07031.23828.02735.26172-.02344.26953-.0664.22656-.10938.1914-.15625.17188-.19922.16016-.2461.16797-.63671.38671-.53516.3125-.4375.31641-.34765.32422-.26172.33594-.1914.35156-.125.3711-.07032.39452-.01953.41797h4.21094v-.74218h-3.33204l.08204-.28125.11328-.23829.14843-.20312.1875-.17969.23047-.17187.28125-.17578.71485-.41407.41796-.20703.34375-.23047.28125-.25.21875-.26953.16407-.27734.11328-.28125.0625-.28516.01953-.28125-.04297-.38281-.11719-.35156-.1914-.30469-.25-.26563-.30078-.21093-.34766-.16016-.3789-.09765-.40626-.03516-.4375.03515-.39843.09766-.35157.16797-.30468.23438-.25.30468-.1875.3711-.11329.44921-.04296.51563"/><path fill="#ffffe0" fill-rule="evenodd" d="M186.40234 331.53125h22.1797v-10.1914h-22.1797v10.1914"/><path fill-rule="evenodd" d="M189.90234 323.17188h.50782v6.29687h-.78516v-4.49219h-1.39063v-.55469l.5586-.0664.2539-.05078.23047-.08985.20313-.14062.17187-.21094.14453-.29687.10547-.39454m4.8125 0l.23047.01954.21875.05468.20703.08985.19532.1211.18359.14843.17188.17578.30468.42188.24219.49218.17969.54688.10937.57812.03906.59375-.03906.58985-.10937.58593-.17969.5547-.24219.5-.30469.42968-.17187.17969-.1836.15234-.1953.125-.20704.08984-.21875.0586-.23047.01953-.23047-.01953-.21875-.0586-.20703-.08984-.1953-.125-.1875-.15234-.16798-.1797-.30469-.42968-.24218-.5-.17969-.55469-.10938-.58593-.03906-.58985h.83203l.02735.5625.08203.5039.1289.44532.16016.3711.1914.30078.21095.22265.22265.13672.22656.04688.22657-.04688.22265-.13672.21094-.22265.1914-.30079.16016-.37109.1289-.44531.07813-.5039.03125-.5625-.03125-.5625-.07812-.5-.1289-.4375-.16016-.36329-.19141-.29297-.21094-.21484-.22265-.13281-.22657-.04297-.22656.04297-.22266.1328-.21093.21485-.1914.29297-.16017.36328-.1289.4375-.08203.5-.02735.5625h-.83203l.03906-.59375.10938-.57812.17969-.54688.24219-.49219.30468-.42187.16797-.17578.1875-.14844.19531-.1211.20703-.08984.21875-.05468.23047-.01954m5.08985 0h.51172v6.29688h-.78907v-4.49219h-1.38672v-.55469l.5586-.0664.2539-.05078.22657-.08985.20312-.14062.17578-.21094.14063-.29687.10547-.39454m2.82422 2.17579h.78906l.01953-.31641.0586-.28516.09765-.2539.14063-.21485.17968-.17187.22656-.1289.26172-.08204.3086-.02734.23828.01953.22266.0625.20703.10156.17968.14063.14844.17187.11328.20703.07031.23438.02344.26562-.01953.26953-.0664.22266-.10938.1914-.15625.17188-.19922.16406-.25.16407-.63281.39062-.53516.3125-.4375.3164-.34765.32423-.26563.33593-.1875.35157-.125.37109-.07031.39063-.01953.42187h4.21094v-.74219h-3.33204l.08203-.28515.11329-.23438.14843-.20312.1875-.1797.23047-.17187.27735-.17578.71875-.41406.41406-.20703.34766-.23047.28125-.25.21875-.26953.16406-.27735.10937-.28515.0664-.28516.01954-.28125-.04297-.38281-.1211-.34766-.1875-.30859-.25-.26172-.30468-.21094-.34375-.16015-.38281-.09766-.40625-.03515-.4336.03515-.39843.09766-.35547.16406-.30469.23438-.2461.30468-.1875.375-.11718.44531-.03906.51954"/></g></defs><use xlink:href="#W"/></svg>