<svg xmlns="http://www.w3.org/2000/svg" role="img" xmlns:xlink="http://www.w3.org/1999/xlink" viewBox="142.45 309.95 326.84 171.84"><defs><clipPath id="a"><path d="M144 443h1v37.32813h-1zm0 0"/></clipPath><clipPath id="b"><path d="M144 311.67188h1V427h-1zm0 0"/></clipPath><clipPath id="c"><path d="M144 311.67188h324v168.65625H144zm0 0"/></clipPath><clipPath id="d"><path d="M327 407h121v73.32813H327zm0 0"/></clipPath><clipPath id="e"><path d="M467 311.67188h1v168.65625h-1zm0 0"/></clipPath><clipPath id="f"><path d="M144 476h2v4.32813h-2zm0 0"/></clipPath><clipPath id="g"><path d="M156 476h3v4.32813h-3zm0 0"/></clipPath><clipPath id="h"><path d="M169 476h3v4.32813h-3zm0 0"/></clipPath><clipPath id="i"><path d="M180 479h8v1.32813h-8zm0 0"/></clipPath><clipPath id="j"><path d="M193 480h9v.32813h-9zm0 0"/></clipPath><clipPath id="k"><path d="M193 478h3v2.32813h-3zm0 0"/></clipPath><clipPath id="l"><path d="M207 478h7v2.32813h-7zm0 0"/></clipPath><clipPath id="m"><path d="M220 477h7v3.32813h-7zm0 0"/></clipPath><clipPath id="n"><path d="M234 477h6v3.32813h-6zm0 0"/></clipPath><clipPath id="o"><path d="M247 477h7v3.32813h-7zm0 0"/></clipPath><clipPath id="p"><path d="M260 477h7v3.32813h-7zm0 0"/></clipPath><clipPath id="q"><path d="M274 477h7v3.32813h-7zm0 0"/></clipPath><clipPath id="r"><path d="M287 478h7v2.32813h-7zm0 0"/></clipPath><clipPath id="s"><path d="M300 478h8v2.32813h-8zm0 0"/></clipPath><clipPath id="t"><path d="M313 479h8v1.32813h-8zm0 0"/></clipPath><clipPath id="u"><path d="M326 479h9v1.32813h-9zm0 0"/></clipPath><clipPath id="v"><path d="M327 479h2v1.32813h-2zm0 0"/></clipPath><clipPath id="w"><path d="M340 478h8v2.32813h-8zm0 0"/></clipPath><clipPath id="x"><path d="M354 477h6v3.32813h-6zm0 0"/></clipPath><clipPath id="y"><path d="M368 477h5v3.32813h-5zm0 0"/></clipPath><clipPath id="z"><path d="M379 479h9v1.32813h-9zm0 0"/></clipPath><clipPath id="A"><path d="M380 479h2v1.32813h-2zm0 0"/></clipPath><clipPath id="B"><path d="M395 476h4v4.32813h-4zm0 0"/></clipPath><clipPath id="C"><path d="M409 476h3v4.32813h-3zm0 0"/></clipPath><clipPath id="D"><path d="M421 477h6v3.32813h-6zm0 0"/></clipPath><clipPath id="E"><path d="M435 476h3v4.32813h-3zm0 0"/></clipPath><clipPath id="F"><path d="M448 477h5v3.32813h-5zm0 0"/></clipPath><clipPath id="G"><path d="M462 476h3v4.32813h-3zm0 0"/></clipPath><clipPath id="H"><path d="M144 464h3v6h-3zm0 0"/></clipPath><clipPath id="I"><path d="M144 451h4v5h-4zm0 0"/></clipPath><clipPath id="J"><path d="M144 438h4v5h-4zm0 0"/></clipPath><clipPath id="K"><path d="M144 426h4v2h-4zm0 0"/></clipPath><clipPath id="L"><path d="M144 412h4v4h-4zm0 0"/></clipPath><clipPath id="M"><path d="M144 397h3v7h-3zm0 0"/></clipPath><clipPath id="N"><path d="M144 383h2v8h-2zm0 0"/></clipPath><clipPath id="O"><path d="M144 372h4v4h-4zm0 0"/></clipPath><clipPath id="P"><path d="M144 359h4v2h-4zm0 0"/></clipPath><clipPath id="Q"><path d="M144 345h4v5h-4zm0 0"/></clipPath><clipPath id="R"><path d="M144 330h3v8h-3zm0 0"/></clipPath><clipPath id="S"><path d="M144 317h3v7h-3zm0 0"/></clipPath><clipPath id="T"><path d="M466 318h2v2h-2zm0 0"/></clipPath><clipPath id="U"><path d="M465 318h3v3h-3zm0 0"/></clipPath><g id="V" clip-path="url(#clip1)"><path fill="#fff" fill-opacity="0" fill-rule="evenodd" d="M0 0h1000v1000H0zm0 0"/><path fill="#d3d3d3" fill-opacity="0" fill-rule="evenodd" d="M162.15234 355.86719l-.23437.29297.0586.23437.11718.17188.17578.23437.29297.34766.11328.0586.11719-.17188.0586-.23438.17577-.17578.46485-.17578h.69922l.23437.29297.28906.8164.0586.17579.17578.23046.35156.23438.69922.69922.17188.17578.23437.34765.23438.41016.28906.58203.41015.46485.23047.23437.23438.17578.11719.23047.17578.29297.17187 1.16406v.23438l.0586.28906.05859.11719.11719.11719.34765.41015.11719.17188.17578.17578.17578.23437.11719.17188.17188.35156.05859.23438.23437.40625.23438-.0586-.17578.17578-.0586.92969h-.58203l-.23437-.11328-.34766.11328-.11719.11719-.05859.29297-.0586.17578-.11718.17187-.46484.29297-.0586.23438-.0586.11328v.64453l.0586.17187v.41016l.0586.0586v.40624l.05859.40625.11719.17579.05859.05859.23047.64062-.0586.29297v.69922l-.05859.58203v.23438l-.0586.23047-.05468.35156v1.92187l.05469.1172h.42578l-.36719.11718-.02344.35156.89063 1.16797 1.74219.53906 1.33984.35938v.53906l.08984.8086.53516.71484 1.51953.26953.89063-.08594.08984 1.16406.53516.1797 1.16015-.1797 2.05469-.98437 1.16016-.36328 1.8789-.17578 1.69531-.1797-.17968.71876-1.51563.08594-1.25.08984-.80469.26953-1.07421.8086.26953.71875.53515.89843-.17968.625-.26563.8086.26563 1.07812.625.89844.80468.17969 1.25-.1797-.26562.72267.09766.5039.05468.29297v.17188l.0586.29296v.40625l.17578.1172.35156.11718h.40625l.29297-.17578.11328-.11719.0586-.11719.11718-.23047.0586-.17578.35156-.46484.23047-.17578.17578-.0586.17578.0586.0586.17578.11718.98828.05469.46875.0586.17188.11718.23437.17578.0586.8164.05859h.28907l.11719.23437.05859.40625.0586.35156v1.10547l.11718.29297.11719.34766.28906.69922.17578.35156.58203.7539.35157.17579.17187.0586.46875.23437.64063.46484.34765.23438.29297.17578.29297.05468.23047.0625.8164.34766.29297.17578.11328.17188.35157.35156.11719.17578.52343.64063v.28906l.0586.35156v.34766l.05859.35156.0586.28906.11718.0586.17188.05859h.17578l.58203.23437.17578.1172.17578.28905.17578.23438.11328.23437.29297.23047.11719.11719v.41016l.0586.05468.28906.23438.23437.11719.0586.11718.11718.17188.0586.11719.23047.23437.05859.17578.23437.0586.1172.05859-.1172.11328-.05859.11719v.11719l-.11719.29296-.11719.28907v.58203l.17579.11719.11718.05859.0586.11719.11719.11719.11328.05859.17578.34765.0586.35157.05858.40625v.17578l-.05859.17578-.11719.69922v.17187l.1172.17579.29296.29296h.40625l.17578.1172.11719.17187.11719.29296v.23438h-.52735l-.23047-.23438h-.23437l-.17578.0586-.0586.69922.0586.34765.11719.17579.17578.41015.11718.23047.28907.46875.17578.05469h.52344l.23437.0586.75781.64062.0586.29296v.23438l.05859.0586.23047.34765v.35156l-.11719.17188v.29297l.29297.28906.29297.17578.17187.0586.29297.17577.29297.1172.58203.40624.28906.23438.29297.17578.21875.16015.01563.01172.23047.17579.64062.52343.17578.23438.1172.17578.17577.17578.11328.17188v.64062l.1172.17578.46874.11719.58203.11719.23438.05859.23047.11328.29297.11719.11328.0586.58593.35156.28907.17187.17578.0625.17578.05469.17578.0586.69922.35155.28906.17579.23438.05468.28906.17578.23437.1172.64063.40624.29297.11719.17187.0586.23438.05859.41015.05859.23047.0586.23438.11718.0586.17188-.41017.17578.46875.0586.0586.29296.11328.23438.17578.05468.23438.0586.17578.05859.40625.11719.64062.23437.11719.17188.0586.23437v.17578l-.0586.1172-.0586.40624.23438.23438.11719.05859.34766.11719.64062.23047.17578.11718.28906.1172.17578.17577.23438.46485.58203 1.10546.17578.17579.34766.17578.17578.11719.35156.11718 1.04688.52344.23437.0586.46485.11327.29297.0586.46484.17578.75781.58203.23438.23438.34765.46484.17578.17578.28907.23438.8164.69921.29297.17579.28906.28906.29297.17578.29297.28906.69531.64063.17578.17578.29297.23437.28907.23438.46875.28906.64062.58203.34766.23438.23437.29297.34766.34765.35156.46485.9336.99218.34765.40625.11719.17579.23437.05859.11328.11719.64454.17578.23047.11328.23437.0586.29297.17577.23047.1172.9336.69921.40624.40625.23438.17578.40625.17578.23437.11719.8164.34766.34766.23437.23438.11719.29297.28906.23047.11719.7578.35156.35157.17188.23047.05859.29297.11719.23437.0586.8711.17577h.8164l.46875.23047.17188.0586.875.69921.46484.1172.29297.05858.17578.0586.23047.0586.46875.05859.34766.05859.35156.0586.40625.05859h.29297l.17187.0586v.23046l.17578.17578h.29297l.34766.0586.35156.05859.69922.11719h.64063l.46484-.23438.29297-.17578.17187-.11719.41016-.17187.28906-.17578.9336-.46485.46875-.29297.52343-.29296.46485-.17188.46484-.17578 1.05078-.46485.28906-.11718.41016-.11719.28906-.11719.52735-.17578 1.51562-.69922.58203-.34765.28907-.0586.29297-.0586.34765-.11718.875-.23047.35156-.11719h.11329l.23437-.05859.875-.23437.23438-.0586h.8125l.35156-.0586.8164-.11718.17188-.0586.35156-.05468.29297-.0586.23047-.05859.8164-.17578.17579-.0586h.34765l.23438-.05859.46484-.11718.75781-.17188.23438-.0586h.34765l.41016-.11718.28906-.0586 1.28516-.05859h.28906l.41016-.0586.23047-.05858h.17578l.875-.1172h.40625l.41015-.11718h.34766l.35156-.11328.8711-.0586h1.75l1.04687.28907.41016.11719.28906.11718.35156.11719.28907.11719 1.05078.17187.28906.0586h.29297l.29297.05859.17187.0586.41016.05859.17187.0586.1172.05858h.11718l.11719.0586.35156.0586h.11328l.41016.0664 1.92187.39453 1.92578.39453 1.51953.44922 1.69532.71875 2.14453.80469 1.60547-.71875 1.42968-.80469 1.16016-1.07813 1.25-.44921 3.03516-.71875 1.875-.35938 2.14453-1.34765 2.23437-1.25391 2.5-1.25781 1.69531-.44922 1.78516-.17969 1.16016-.26953.625.53906 1.33984-.26953.71485-.98828.98437-1.34375.44531-.17969.80469-.35937 1.875-.53907 1.78516-.44921 1.25-.26954 1.16015-.08984 1.69922-.08984 1.96094-.26954 1.25-.08984h.53906l.625-.08984h.89063l2.14453-.17969 2.41015-.17969 2.58985-.08984 1.69531.17969 1.60938.08984 1.42968.35938 1.16016.71875 1.875.98828 1.16015 1.52734.26563.71484.6289.08985.35548.89844.53515.53906.53516 1.52734 1.07422.35938h.53515l-.80469.53515.08985 1.70703.71484 2.69532.89063.80468.89453.98829.71484 1.2578 1.78516.53907 1.51953-.17969.35547 1.34375 1.60937-.80469.98047-.53906.26953.26953.31641-.21484.21875-.14453.80078.44922.44922-.35938h.35547l.53515-.26953.53907-.71875.53515-.26953.625-.98828 1.16016.44922.83984.3711 1.39454.61718 1.6953-.17969h1.60548l1.78515.08985.17969-1.70704.53516-1.34375.80468.26954.4922.84765.40233.40625-.08984.53906v.35938l.71485.44922.71093-.26953h1.42969l.35938.98828.4453 1.25781.71485 1.34375 1.25.6289 1.69531.62891.71485-.17969.17969-.53906.98046-.08984.44922.35937.08594 1.25782-.26563.6289-.53515.17969v.53906l.71484.98438.26563.53906.98437.98828.80078 1.07813-.26562.35937-.08985.89844-.625 2.33203-.35546 2.0664-.08985 1.79298-.17969.71875-.08984.53906v1.4375l-.98047 1.88281-.35937 1.70703-.53516.89844-.80469 1.16797-.26562.53906 2.05469 1.2539.08593.35938-.35546.53906-.08985-.17968v.80859l.08985 1.4375-.44532.71484-1.07422.09375-.26562.71485.53515.89844.8047.71875 1.16015.80859 1.33984.26953.44531.35938-.35546.44921-1.78907-.08984-1.25-.44922-.71484-.71875-.625-.08984-.17578 3.58984-.1875 1.3086h89.35937V311.70313h-55.26953v49.08203l.76172.125 3.28906.54296 2.02344 2.83594v2.7539l2.35156.33204 2.34766.33203h4.05078l-1.3789 4.16016-2.02344.70703-2.02344.70312-.54297.34375-2.59375 1.6172-.1875.11718-2.02344-2.07813-.73046-2.74218-2.67188-2.07813-1.375-3.5-.0664-.08203-1.95704-2.67188 2.75-1.41796v-49.08204H294.42187v91.41407l.1172.03125.1328.01172.07422.07421.10547.04688.08985.0586.08593.05859.08985.0586.29687.29687.0586.08984.03125.11719.02734.11719.01563.13671-.03125.1172-.0586.08983-.0586.08594-.04296.10547-.04688.10156-.02734.1211v.14453l.17578.26953.14844.14844.07422.08594.07422.07421.04296.10547.0625.08985.0586.08593.04297.10547.0586.08985.04687.10156.04296.10547.0586.08594.11719.17968.07421.07422.0625.08594.0586.08984.04297.10547.0586.08985.05858.08593.0625.08985.0586.08984.04297.10156.11719.17969.07421.07422.0586.08594.07422.07421.08984.0586.10547.04687h.14844l.1328-.01562.13282.01562.10156-.04687.07422-.07422.04688-.10156-.01563-.13281v-.14844l-.04687-.10547-.02735-.11719-.04687-.10156-.02735-.1211-.04296-.10156-.0625-.08984-.04297-.10156-.04297-.10547-.03125-.11719-.01563-.13281-.01171-.13672.08593-.0586.0586-.08593.12109-.03125.04297.10547.01562.1328v.1172l.0586.10156.0586.08984.08983.0586.14844.14843.0586.08985.04296.10547-.01171.10156.08593.0586.10547.04687.08594.0586.08984.05858.07422.07422-.11719.02735-.10546.04687-.08594.0586-.07422.07421-.0586.08985-.0625.08594-.02734.12109-.04687.10156-.04297.10547-.03125.11719-.01172.13281-.01563.13281v.14844l.02735.11719.04687.10547.04297.10156.0586.08984.07421.07422.08985.0586.07422.07421.08984.0586.0586.08984.04296.10547.04688.10156.11719.03125.1328.01563h.14845l.11718-.03125.10547.04297.04297.10547.04688.10156.02734.1211L299.5 410l.02734.11719.03125.1211.02735.11718.10547.04297.10156.04687.13281-.01562.14844.14844.0625.08593.07422.07422.07031.07422.08984.0625.10547.04297.10156.04297.1172.03125.13671.01562.11719-.03125.07422-.07422.02734-.11718-.01172-.13282-.03125-.12109-.02734-.11719.04297-.10547h.11719l.08984.0625.11719.02735h.14843l.13282.01562h.14843l.13282.01563.1328-.01563h.14845l.1328-.01562.13282-.01172.13672.01172.11719-.02735.13281-.01562.1914-.0586-.05859.17579-.01562.1328-.02735.1211-.01562.13281-.0586.08594-.1328.01563-.10548.04687-.10546.04297-.1172.03125-.11718.02735-.26563.03125h-.14843l-.13281.01562-.07422.07422.05859.08594.14844.14843.11719.1797.07421.0703.08985.0625.08984.0586.08594.0586.08984.05858.10156.04297.10547.0625.10547.04297.08594.0586.10547.04687.10156.04297.17969.11719.0586.08984-.04298.10156-.04687.10547.01562.13281.22266.22266.0586.08985.04296.10156.03125.1211.04297.10155.01563.13282.03125.11718.01171.13672.03125.11719.14844.14844.10156.04297.10547.04296.1172.03125.1328.01563.13672.01563h.11719l.11719-.03125.08984-.0586.04297-.10547.04688-.10156.04296-.10547.03125-.11719.01172-.1328v-.14845l-.01172-.1328-.01562-.13282-.03125-.11719-.04297-.10547-.04688-.10547-.04296-.10156-.04297-.10547-.01563-.13281.01563-.13281.02734-.11719.03125-.11719.02735-.1211.04687-.10155.08984-.0586.08594-.0625.07422-.07422.08984-.05859.22266-.22266.0586-.08593.07421-.07422.11719-.17969.0586-.08594v-.14844l-.07423-.07421-.10156-.04688-.10547-.04297-.10156-.04297-.0586-.08984-.04687-.10547-.02734-.11719.08984-.05859.11719-.03125.10156-.04297.17969-.11719.14844-.14843.01172-.13282-.01172-.10546-.08985-.0586-.1328.01563h-.14845l-.1328.01562-.13282-.01562-.1211-.03125-.08593-.0586-.07422-.07422-.0586-.08984-.0625-.08594-.11718-.17969-.0586-.08593.03125-.1211.08594-.05859.1211-.03125.05859-.08594v-.1211l-.03125-.11718-.0586-.08984-.05859-.08594-.04687-.10547-.02735-.11719-.01562-.1328.0586-.08985.07421-.07422.08984-.0586.1172-.17968.07421-.07422.0586-.08594.14843-.14844.1211-.03125.1328-.01562.13282.01562.07422.07422.04297.10547.01562.13281-.03125.1172-.11719.03124-.1328.01172-.14844.14844-.04297.10547-.04688.10156-.02734.1211-.03125.11718v.14844l.03125.11719.04297.10546.05859.08985.07422.07031.07422.07422.11719.03125.12109.02734.11719-.02734.1328-.01563h.1172l.08984.0586.07422.07422.04687.10546.0586.08594.10156.04688.13281.01562.10547.04297.08594.0586-.01172.10546-.07422.07422-.17969.11719-.05859.08984-.08984.0586-.07032.07422-.07421.07421-.0625.08985-.02735.11719-.01562.1328.01562.13282-.01562.13281v.14844l.01562.13281.02735.1172.03125.12108.07421.07422.08985.0586.08594.0586.08984.05858.11719.03125v.08594l-.10157.04688-.08984.0586-.26563.03124-.11718.02735h-.14844l-.10547.04296-.10156.04688-.0586.08984-.0625.23438-.01171.13281-.03125.1211-.01563.1328v.29298l-.01172.1328.01172.13673.01563.1328.1328.01563.13282.01172.1211.03125.08593.0586.07422.07421.04688.10547.04296.10157.01563.1328v.44532l-.01563.13281v.44532l.03125.26562.02735.11719.01562.13281.03125.11719.08594.21094.03125.26562v.14844l-.03125.11719-.02734.11718-.03125.1211-.02735.11719-.03125.11718-.03125.1211-.01171.1328-.01563.13282.08984.0586.1172-.03125.10155.01562.04688.10547-.03125.26562v.44141l-.04297.10547-.04688.10547-.04296.10156-.04297.10547-.0586.08594-.03125.12109-.04296.11719-.03125.11719-.01563.1328.01563.13282.05859.08984.10547.04688.08594.0586.05859.08593-.01172.13672-.03125.11719-.04297.10156v.44531l-.01562.13281v.14844l-.03125.11719-.04297.10547-.02735.11719-.04687.10546-.04297.10157-.03125.12109-.02734.11719-.03125.13281-.03125.11719-.02735.11719-.04297.10546-.03125.1172-.03125.12108-.01171.13282-.01563.13281v.29688l.02734.11718v.14844l.04688.39844.02734.11719.0586.08984.12109.03125h.14844l.13281-.01563.0586.08985v.11719l-.0586.08984-.08984.0586-.10157.04296-.10546.04688-.08985.05859-.08594.0586-.13671.01562-.1172-.03125-.1328-.01563-.10157.04688-.0625.08594-.01172.13671-.01562.13282-.03125.11719-.02735.11718-.01562.13281-.03125.1211v.29687l.01563.13282.03125.11718v.14844l.01171.13281v.14844l-.02734.11719-.04688.10156-.02734.1211-.03125.11718-.0586.08985-.07421.07421-.10156.04297-.10547.04688-.11719.02734-.1211.03125-.10156-.04687.0586-.08594.10547-.04688.02734-.11718.03125-.11719.02734-.1211.03125-.11718v-.14844l.01563-.13281-.03125-.11719-.04297-.10547-.10547.01563-.07422.07422-.10156.04296-.08984.0625-.07422.07422-.04297.10157-.01563.1328-.03125.1172L304.25 426l-.03125.11719-.02734.11719-.03125.12109-.02735.11719-.03125.11718-.04297.10547-.08984.0586h-.08984l-.1172-.03125-.03124-.08594.01562-.13672-.03125-.11719v-.14844l-.01171-.1328v-.14844l-.0625-.23438-.02735-.1211-.04297-.10156-.04687-.10546-.0586-.08594-.05859-.08985-.04297-.10546-.0625-.08594-.14844-.14844-.0703-.07422-.10548-.04687-.10547-.04297-.10156-.04297-.29687-.29688-.08985-.07421-.08594-.0586-.10546-.04297-.08985-.0625-.08594-.0586-.10546-.04296-.08985-.0586-.08594-.0625-.07421-.0703-.10547-.04688-.08594-.0586-.10547-.04296-.08984-.0625-.10156-.04297-.10547-.04297-.08594-.0586-.10547-.04687-.10547-.04297-.10156-.04687-.08985-.0586-.10156-.04297-.10547-.04296-.08984-.0625-.11719-.02735-.13281-.01562-.13281.01562H299.75l-.13281.01563-.11719-.03125-.08984-.0586-.07422-.07422-.08985-.05859-.10156-.04688h-.14844l-.12109-.02734-.10156-.04297-.07422-.07422-.11719-.17968-.08984-.0586-.10156-.04297-.08985-.0625-.10547-.04296-.08984-.0586-.08594-.0586-.10547-.04687-.0586-.08594-.05858-.08984-.04297-.10547-.04688-.10156-.07422-.07422-.08594-.0586-.07421-.07421-.08985-.0586-.22265-.22265-.04297-.10547-.03125-.26563.10547-.04296h.14453l.10547.04296.07421.07422.08985.0586.08594.0586.10546.04687.08985.05859.14844.14844.0703.07422.14845.14843.0625.08594.07421.07422.08594.0586.07422.07421.08985.0625.08984.0586.08594.05859.26953.17578.10156.04688.10547.04296.10156.04297.04688-.07421.05859-.08594.07422-.07422.07031-.07422.10547.04297.07422.07422.0586.08984.04296.10156.04688.10547.04296.10547.1211.02735.11719-.02735.07421-.08984.04297-.10547.0586-.08985.07422-.07421.10546-.04297.1172-.02735.1328.01172.08985.0586.14844.14843.05859.08985.04297.10547.04687.10156.04297.10547.04297.10156.10547.04688.10547.04296.13281.01563.08594-.0586.0586-.08984.07421-.07422.10547-.04297.11719.02735.10547.04687.10156.04297.10547.04297.10156.04688.17969.11718v.11719l-.01563.13281.01563.13281.01562.13672.0586.08594.10156.04688.1211.02734.11718.03125h.14844l.11719-.03125.05859-.08984.17969-.1172.05859-.08983.07422-.07422.0586-.08594.11718-.17969.17969-.11719.11719.03125.08984.0586.04297.07422-.01563.1328v.1172l.08985.05859h.14843l.13282-.01563.1328-.01171.26563-.03125.10547-.04297.11719-.03125.1211-.02735.07421-.07421.07031-.07422.0625-.08985-.01562-.10547-.04688-.10156-.10156-.04297-.10547-.01562-.11718.02734-.26563.03125h-.14844l-.07421-.07422-.08985-.0586-.11719-.03124-.11718-.02735-.13282-.01562h-.14843l-.13282.01563h-.29687l-.10547-.04688-.14844-.14844-.04297-.10156-.05859-.08984.22266-.22266.08593-.0586.10547-.04296.11719-.03125.13281-.01563.13281.01563.13672.01562.10157.04297.1328-.01172.08985-.0625.10156-.04297.0625-.08984-.04687-.10156-.08984-.0586-.1172-.03125-.10155-.04296-.0586-.08985-.0625-.08984v-.11719l.01563-.13281.10547-.04688.07421-.07031v-.1211l-.08984-.05859-.03125-.11719.08985-.05859.07421-.07422.04297-.10547.0586-.08984.04687-.10156.01563-.13281v-.14844l-.04688-.10547-.04297-.10156-.08984-.0586-.13281-.01562-.10157-.04297-.13671-.01563-.1172-.03125h-.4453l-.13282-.01562-.13281-.01172-.13281-.01563-.11719-.03125h-.14844l-.13281-.01562-.13281-.01172-.26563-.03125-.1211-.04297-.08593-.0586-.07422-.07421v-.14844l.01172-.13281.10547-.04688.10156-.04296.13281-.01563h.15235l.13281-.01562h.29297l.1211.03125.10156.04296.08984.0586.23438.0625.12109-.04688.08984-.05859.10156-.04297.13282-.01562.10547.04296.10156.04688.13281.01172.1211-.02735h.14453l.12109-.03125.11719-.02734.10547-.04687.07421-.07422.08594-.0586.14844-.14843.0586-.08594.04687-.10547.02734-.11719.01563-.10547-.10156-.04296-.08985-.0586-.11719-.03125-.10546-.04297-.08985-.0625-.07422-.08594-.07422-.07421-.10156-.04297-.10547-.04688-.10156-.04297-.0586-.08984-.04687-.10156-.08594-.21094-.0625-.08594-.05859-.08984-.07422-.07422-.08594-.0586h-.26953l-.11719.03126-.08984.05859-.10156.04297-.13281.01562-.10547-.01562-.02735-.11719-.0625-.08984-.11718-.03125-.10157-.04297-.14843-.14844-.03125-.11719-.01563-.10546.07422-.07422.17969-.1172.11719-.02733.11718-.03125.13672.01562.10156.04297.10547.04297.10156.04687.10547.04297.1172.03125.1328.01563.1172.02734.1328.01563.10547-.01563.08985-.0586-.07422-.07421-.10547-.04297-.07422-.07422-.07422-.08984-.14844-.14844-.08593-.0586-.08985-.05859-.07422-.07422-.08984-.0586-.10156-.04687-.1211-.02734-.10156-.04688-.10547-.04296-.11719-.03125-.10156-.04297-.1211-.03125h-.14843l-.11719.03125-.10546.04297-.08594.0625-.17969.11718-.08594.0586-.08984.0586-.10547.04687-.08594.05859-.10547.04297-.10156.04297-.10547.04687-.07422.07422-.05859.08985-.0586.08593-.04687.10547-.0586.08594-.07421.07422-.13281-.01172-.1172-.03125h-.11718l-.07422.07422-.08984.0586-.07422.07421-.08984.0586-.08594.05859-.10547.04687-.10156.04297-.13672.01563-.10156-.04297-.14844-.14844-.10547-.04688h-.08594l-.10547.04688-.10156.04297-.1211.03125-.11718-.03125-.07422-.07422v-.11719l.03125-.1211.07422-.0703.0586-.08985.07421-.07422.11719-.03125.10547-.04296h.29297l.13281-.01563.13672-.01563.10156-.04296.08985-.0586.10156-.04687.08984-.0586.13281-.01171.08985.05859.13281.01172.08984-.0586.08594-.05859.10547-.04297.08984-.0586.08594-.0625.08985-.05859.14843-.14843.0586-.08594.05859-.08985.10547-.04296.13281-.01563.11719.02735.1211.03125.05859-.0586.05859-.08984.03125-.26563.02734-.11719.10547.01172.13281.01563.10157-.04297.08984-.0586.0586-.08984.07421-.07422.0586-.08984.04687-.10156.01172-.13281-.01172-.13282-.04687-.10547-.14844-.14843-.0586-.08985-.05859-.08594-.04297-.10546v-.44532l.01563-.1328v-.14845l.01172-.1328-.0586-.0586-.08984.0586-.10156-.04298-.17969-.11719-.08594-.05859-.0625-.08984-.0586-.08985-.07421-.07421-.08594-.0586-.1211.03125-.10155.01172-.10547.04688-.08594.05859-.10547.04297-.14844.14844-.08984.05859-.08594.0586-.08984.0625-.10547.04296-.13281.01563v-.1211l.10547-.04297.11718-.03125.07422-.0703.04297-.10548v-.14844l-.02734-.11718-.14844-.14844-.13281-.01563h-.14844l-.11719.03125-.10547.04297-.10156.04297-.08984.0625-.11719.02735-.07422-.07422.01172-.13281-.04297-.10157-.04297-.10547-.08984-.05859-.11719.02734-.1211.03125-.11718.03125-.10156.04297-.1211.03125-.10156.04297-.10547.04297-.08984.0586-.10156.01562v-.11719l.01562-.13281-.0586-.08985-.07421.04297-.14844.14844-.0586.08985-.07421.07421-.04688.10547-.04296.10156-.07422.07422-.0586.08985-.07422.07422-.05859.08593-.07422.07422-.08984.0625-.07422.07031-.07422.07422-.10156.01563-.13281.01562-.10547-.04296v-.1211l.14843-.14844.04297-.10156.0586-.08984.04687-.10156.04297-.10547.0586-.08985.03124-.11719.04297-.10156.03125-.1211.02735-.11718.04687-.10547.04297-.10156.04297-.10547.07422-.07031.08984-.0625.08985-.0586.10156-.04296h.29687l.26563-.03125.10547-.04297-.07422-.07422-.11719-.03125-.10547-.04297-.08984-.0586-.10156-.04687-.08985-.0586-.10156-.04296-.10547-.04297-.08984-.0625-.08594-.0586-.10547-.04296-.10156-.04297-.1211-.03125-.11718-.03125-.10157-.04297L297.5 410.25l-.10156-.04297-.08985-.0586-.04296-.10546-.01563-.13281.10156-.04297.13281-.01563.13672.01563.13282-.01563.10156-.04297.0586-.08984.01562-.10547-.08985-.0586-.07421-.07421-.10157-.04297-.08984-.0586-.14844-.14843-.04297-.10547-.01562-.13281v-.29297l-.0586-.08985-.08984-.05859-.07422-.07422-.04297-.10547-.03125-.11718-.0586-.08985-.07421-.07422-.11719-.02734-.07422-.07422-.08984-.0586-.08984-.0625-.08594-.05859-.07422-.07421-.0586-.08594-.04687-.10547-.08594-.0586-.14843-.14843-.19532-.0586-.1328.01563-.10157.04297-.07422.07422-.04688.10156-.04296.10547-.0586.08984-.0586.08594-.29687.29687-.08984.0586h-.08594l-.0625-.08594-.04297-.10547.03125-.11719.0586-.08984.02734-.11719-.01172-.13281-.08984-.0625-.10547.04688-.11719.02734-.11719.03125-.26953.17578-.10156.04688-.11719.02734-.10546.04687-.08985.0586-.10156.04297-.0586-.08594-.04687-.10547.01563-.13281.04687-.10547.07031-.07422.07422-.07031.0586-.08985v-.14843l-.04297-.10547h-.23829l-.10156.04687-.03125.11719-.02734.11719-.03125.1211-.07422.04296-.13281.01563-.07422-.04688-.04297-.10156-.04297-.10547-.04687-.10156-.04297-.10547-.1211.03125-.10156.04297-.13281.01562-.11719.03125-.10547.04297-.08984.0586-.10156.04687-.1211.02734-.13281.01563-.10156-.04297-.0586-.08985-.04687-.10546-.04297-.10157-.04297-.10546v-.1172l.0586-.08984.08593-.05859.17969-.11719.10156-.04687.10547-.04297.10547-.0586.10156-.04296.08985-.0625.10156-.04297.10547-.0586.10156-.04687.08984-.0586.10547-.04296.10156-.04297.08985-.0625.10156-.04297.13672-.01563.11719.03125.10156.04297.1211.03125.10156.04297.10546.04688.10157.04296.10547.04297.10156.04688.10547.04297.10156.04297.10547.04687.08594.0586.10546.04296.1172.03125.10546.04297.10156.04688.08985.0586.10547.04296.10156.04297.10547.04687.11719.02735.10156.04687.1211.02735h.14843l.08594-.0586.01562-.10156.0586-.08984-.02735-.1172-.07422-.07421-.11719-.17969-.07421-.07422-.08985-.07421-.17969-.1172-.08593-.05859-.10547-.04296-.10156-.04688-.26954-.17578-.05859-.08985-.07422-.07421-.0586-.08985-.04296-.10156-.03125-.11719-.01563-.13672v-.5625l-.01171-.1328-.01563-.13282-.03125-.11719-.01562-.13281-.01172-.13281-.03125-.1211-.22266-.22265-.0586-.08594-.01562-.10547.03125-.11719.13281-.01562v-91.41406H172.9922v1.45312l-.0586.23438-.35156 1.05078-.17187.52343-.1172.34766-.17577.41016-.11719.17187-.23438.29297-.23046.0586h-.35157l-.11718.05859-.23047.40625v.29297l.11719.17578.23046.23047.1172.23437.64062.75781.29297.46485.17578.23437.23047.35156.23437.34766.64063.8164.17578.46485.17187.41016.11719.69531.17578.46875.11719 1.39844.0586.46484v.875l.11718 1.04688v4.78125l-.0586.46484-.35156 1.28125-.17578.52344-.11328.41015-.35156.9297L172.93359 336l-.23437.58203-.11719.17578-.17187.34766-.17578.40625-.35157.8164-.0586.29297-.11327.29297-.11719.28906-.0586.17579-.11718.875-.0586.40625-.05859.11718-.0586.17579-.05859.17187-.23047.52734-.11718.17188v.23437l-.11719.23438-.0586.17187-.17577.58594v.28906l-.0586.17579v.29296l-.0586.11329-.05859.52734v.17187l-.05468.23438v2.6211l-.17578.8164-.1172.17578-.17577.23438-.1172.17187-.11327.23438-.58594.93359-.23047.28906-.29297.46485-.17578.23437-.28906.35156-.35156.69922-.11328.23047-.17579.41016-.17578.23046-.40625.52735-.8164.69922-.29297.17187-.28906.23438-.17579.11719-.17578.17578-.52344.40625-.52734.17578-.17187.17578-.23438.05469-.64062.17578h-.75782m12.21094 31.02344l-1.07422.44921.35938.89454 1.25-.71485.44531-.53906-.98047-.08985"/><path fill="#d3d3d3" fill-opacity="0" fill-rule="evenodd" d="M201.50781 416.59766h-.89453l.44922.6289.98047.35938.80469-.08985.4453-.98828-.17577.08985-.71485-.35547-.89453.35547m154.6211 59.0703l-.0586-.52343v-.29297l.11328-.29297.0586-.23046.46875-.46875h.11328l.11719-.11329.11718-.05859h.17579l.23437-.0586h.34766l.23437.0586.11719.0586.23047.17187.0586.17578.11718.58203v.29297l-.11719.17578-.17187.28906-.17579.17579-.52734.52343-.23047.23438-.11719.0586h-.17578l-.11718-.0586-.40625-.29297-.17579-.11719-.11718-.0586-.0586-.11327-.05468-.1172m6.64062-10.95702l-.0586-.17188v-1.10937l.0586-.17188.17578-.0586.17188-.05858h.17578l.23437-.0586.1172.0586.05858.69921-.05859.17188-.11719.17578-.11718.0586-.23438.52343-.11328.0586h-.23438l-.05859-.1172m9.61328-14.39062l-.11719-.17578v-.69922l.29297-.875.1172-.17187.17577-.35156.11328-.23047.1172-.29297.35155-.75781.1172-.23047.17187-.23438h.17578l.11719-.0586h.64062l.11719.0586.23437.23438.17188.11328.35156.29297.11719.11718.11328.17579v.11328l.11719.05859.11718.11719v.69922l-.05859.17578v.23047l-.0586.17578-.34765 1.05078-.11719.23047-.11719.23437-.11718.0586-.23047.23437-.64063.28906h-.875l-.41015-.11718-.64063-.46485"/><path fill="none" stroke="#bebebe" stroke-linecap="round" stroke-linejoin="round" stroke-miterlimit="10" stroke-width=".5" d="M467.95703 311.69531H144.02734v168.625h323.9297v-168.625"/><g clip-path="url(#a)"><path fill="#fff" fill-opacity="0" fill-rule="evenodd" d="M144 475.89063v4.4375h.0039H144v-36.48438 32.04688"/></g><g clip-path="url(#b)"><path fill="#fff" fill-opacity="0" fill-rule="evenodd" d="M144 422.6289v4.23829-115.19531h.0039H144V422.6289"/></g><path fill="#50fcfc" fill-rule="evenodd" d="M144 440.8164v3.02735h.0039v-3.02734H144"/><path fill="#00e8fc" fill-rule="evenodd" d="M144 439.9961v.8203h.0039v-.8203H144"/><path fill="#50fcfc" fill-rule="evenodd" d="M144 437.28516v2.71093h.0039v-2.71093H144"/><path fill="#fff" fill-opacity="0" fill-rule="evenodd" d="M144 433.15625v4.1289h.0039v-4.1289H144"/><path fill="#50fcfc" fill-rule="evenodd" d="M144 426.86719v6.28906h.0039v-6.28906H144"/><g clip-path="url(#c)"><path fill="#fff" fill-opacity="0" fill-rule="evenodd" d="M144.0039 480.32813v-36.48438l4.4336.9375 4.4375-.29688 2.84375.33594-2.84375 4.03125-.47656.41016.47656.32422.5586-.32422 3.8828-2.46875.40235 2.46875.25781 4.4375 3.77735 3.5625 3.51953.875.91797.69922 4.4375 2.125 4.4375.14453 4.4414-.58203 3.71094-2.38672.72656-.9414 2.125-3.4961 2.3125-4.04297 4.4375-.03516 1.14453-.35937 3.29688-.83594 2.52344-3.60547-2.52344-2.15234-4.4414-.35156-4.22266 2.5039-.21485 1.98047-4.4375.3711-4.4375-.52735-.35547-1.82422.35547-2.03515 1.3125-2.40235 1.4375-4.4375 1.29688-4.4375-4.04688-3.59765-4.4414 1.03125-3.21485-1.8711-1.22265-1.09765-4.4375 1.08203-.01563.01562-4.42187.72656-3.83203 3.71094-.60547 2.11719-4.33203 2.32031-.10938.00781-4.4375.29688-4.4336 1.03516v-4.12891l1.36329-1.64844-1.20703-4.4375-.15625-.20312V311.67188h48.8164v6.88671L191.5 320.54688l1.32031 1.53125v24.58203l-.48047.51953.48047.48047.48438-.48047-.48438-.51953v-24.58204l3.29688 2.90625-1.6836 4.44141 2.82813 4.39453.11719.04297 2.46093 4.4375 1.85938 1.98828.54297-1.98828.98047-4.4375.22656-4.4375-1.75-2.59765-2.70703-1.84375-1.73047-1.8086-2.17188-2.6289-2.26953-1.98829v-6.88671h8.8789v4.16015l-.3203.27735.3203.4453.58595-.4453-.58594-.27735v-4.16015h4.4375v150.65625l-2.2539.24609 2.2539.16015.29687-.16015-.29687-.2461V311.67188h8.8789v15.58204l-3.02343 2.17187-1.35547 4.4375-.0625.59375-.84766 3.84375.84766 1.23047 4.4414 1.59766 2.76172 1.60937 1.67578.32422.32032-.32422.4336-4.4375 1.74218-4.4375-2.4961-1.98437-2.14453-2.45313-2.29297-2.17187v-15.58204h17.75v39.01954l-2.03125.92578-1.2539 4.4375 1.1875 4.4375 2.09766 2.375v99.27344l-3.61329.43359 3.61328.26953.33985-.26953-.33984-.4336V362.8672l3.41015-2.375.16406-4.4375-2.22656-4.4375-1.34766-.92578v-39.01954h13.31641v100.30079l-1.75781 1.78125-1.88281 4.4375.03515 4.4375 3.60547 3.60937 4.4375.04297 4.4375-.15234 4.4414-1.41016 3.9336-2.08984-3.9336-2.06641-3.83202-2.3711-.60938-.45312-4.4375-2.90625-2.6875-1.07812-1.75-1.78125V311.67187h26.6289v94.83985l-2.85546 2.80469-1.58203 3.78906-.63281.64844-1.9336 4.4375.45703 4.4375 2.10938.41406v7.13672l-1.1836 1.32812 1.1836 1.02735 1.29297-1.02735-1.29297-1.32812v-7.13672l.58984-.41406 3.84766-1.19922 4.4414-.69531 2.0586-2.54297 2.10937-4.4375-3.63672-4.4375-.53125-.53516-4.4414-2.26953v-94.83985h8.8789v111.9961l-4.4375.26953-2.74218 3.13281-.89454 4.4375 3.63672 3.44531 3.47657-3.4453.96093-1.11329 4.17579-3.32422-4.17579-3.40234v-111.9961h31.06641v98.69532l-1.64063 3.38672-1.8164 4.4375-.98047 1.48828-2.61719 2.94922.45313 4.4414 2.16406 2.16406 4.4375-1.42187.73828-.74219 3.11719-4.4414.58594-.69532 3.13671-3.74218-.76953-4.4375-2.36718-2.85547-4.44141-.53125v-98.69531h13.3164v92.60937l-.76562.59375.76563.58984.54296-.58984-.54296-.59375v-92.60938h22.1914v102.62891l-4.4375 1.00781-1.96875 2.88282 1.96875 2.1875.80078 2.25 3.63672 4.21093 4.4375-.14453 3.96094-4.0664-.41406-4.4375-3.54688-3.72266-4.4375-.16797v-102.6289h17.7539v95.34375l-2.66405 2.30078-1.77344 1.26562-2.67578 3.17188 1.22265 4.4375-.05859 4.4375-1.29688 4.4414-1.6289 2.1875-1.64063 2.25-2.80078 1.82031-4.4375-1.71875-.02734-.10156-4.41016-3.92578-2.09765-.51172-2.33985-2.15234-2.13672 2.15234 1.39844 4.4375-3.70312 1.67578-2.78516 2.76172-1.65234 1.30078-3.11329 3.13672 2.44141 4.4375.67188 3.9961 4.4375-3.0625 1.8789 3.5078.39844 4.4375 2.16406 1.90626 3.14844 2.53125 1.28906 4 4.4375-2.48828 1.51563-1.51172 2.92187-4.10938 4.4414 2.79297 4.4375-1.40625 2.28907 2.72266.66797 4.4375-1.23828 4.4414-1.71875 1.48829-4.4375-.23829-3.16406 3.1875 3.16406 3.16407 4.4375-.34766 4.4375-.66797 3.70703 2.28906.73047 1.10157 4.4375 3.01953 4.4414-1.67578 3.61329-2.44531.82421-1.21875 4.26563-3.21875-4.26563-2.125-4.29687-2.3125 2.69922-4.44141 1.59765-2.86719 1.8125-1.57031 2.625-.83203 4.4375-.6914 2.53125 1.52343 1.90625 2.72265 2.19141 1.71485 2.25 1.79687 4.4375 2.0625 3.59766.58204.83984.71484 4.4375 1.53125 4.4414-.625 1.58594-1.6211 2.85157-.84765 3.88281-3.59375.55469-2.96094 4.4375 1.92969 4.4375-.05078 4.4414.98047v10.3164l-3.01953 3.10156 3.01953 2.71875 2.84375-2.71875-2.84375-3.10156v-10.3164l4.4375-3.6875 1.44532-.64844-1.44532-.80469-4.4375-.34765-.97265-3.28516-.58594-4.4375-2.88281-2.36328-4.4375.19531-1.58203-2.27344-.40625-4.4375-2.44922-2.41015-4.4375-.6797-4.4375-.39452-4.4414.0586-4.4375 2.10546-4.4375-.42188-2.19532 1.7422-2.24219 1.0625-4.19922 3.375-.24219.16015h-4.4375l-.10156-.16016-2.34765-4.4375 2.44921-1.54297 3.0547-2.89453.7578-4.4375-.02734-4.4375.65235-3.47265.76171-.96875-.76171-.81641-1.72266.8164-2.71485.3125-4.4375-.1289-4.4375-.00781-.41796-.17578-4.01954-3.08594-4.4414-1.1289-4.4375.41796-1.95703-.64062 1.95703-.83204 3.51953-3.60546-2.96875-4.4375-.55078-.60938-4.4375-1.6914v-95.34375h102.07812v168.65625H144.00391"/></g><path fill="#50fcfc" fill-rule="evenodd" d="M148.4375 444.78125l-4.4336-.9375v-3.02734l4.4336 3.03906 4.4375-.08594 3.92578-3.38672-3.92578-3.65625-4.4375.39453-4.4336 2.875v-2.71093l4.4336-1.03516 4.4375-.29688.10938-.0078 4.33203-2.32032.60547-2.11719 3.83203-3.71094 4.42187-.72656.01563-.01562v.57031l-4.4375 1.45703-2.50391 2.42578-1.54297 4.4375.1914 4.4375.07032 4.4375.96484 4.4414 1.27735 4.4375 1.54297 1.45313 4.4375 1.82813 4.4375.70312 4.4375-.0039 4.4414-1.8789 1.73828-2.10157-1.73828-1.51563-1.73437-2.92187-.35938-4.4414.2539-4.4375.58204-4.4375 1.25781-1.13282 2.13672-3.30469-2.13672-1.89844-3.54687 1.89844-.89453 1-1.75391-1-2.6836-1.55078-4.4375-2.33203v-.57031l4.4375-1.08203 1.22266 1.09765 3.21485 1.8711 4.4414-1.03125 4.04688 3.59765-1.29688 4.4375-1.4375 4.4375-1.3125 2.40235-.35547 2.03515.35547 1.82422 4.4375.52735 4.4375-.3711.21485-1.98047 4.22265-2.5039 4.4414.35156 2.52345 2.15234-2.52344 3.60547-3.29688.83594-1.14453.35937-4.4375.03516-2.3125 4.04297-2.125 3.4961-.72656.9414-3.71094 2.38672-4.4414.58203-4.4375-.14453-4.4375-2.125-.91797-.69922-3.51953-.875-3.77735-3.5625-.25781-4.4375-.40234-2.46875-3.88282 2.46875-.55859.32422-.47656-.32422.47656-.41016 2.84375-4.03125-2.84375-.33594-4.4375.29688"/><path fill="#00e8fc" fill-rule="evenodd" d="M148.4375 443.85547l-4.4336-3.03906v-.82032l4.4336-2.875 4.4375-.39453v1.28906l-4.4375.5547-2.5586 1.8125 2.5586 1.92577 4.4375.26563 2.54297-2.1914-2.54297-2.3672v-1.28906l3.92578 3.65625-3.92578 3.38672-4.4375.08594"/><path fill="#50fcfc" fill-rule="evenodd" d="M145.36719 431.50781l-1.36328 1.64844v-6.28906l.15625.20312 1.20703 4.4375"/><path fill="#00d4fc" fill-rule="evenodd" d="M148.4375 442.3086l-2.5586-1.92579 2.5586-1.8125 4.4375-.55469v1.28907l-4.4375.71875-.50781.35937.50781.38281 4.4375.6172 1.16016-1-1.16016-1.07813v-1.28906l2.54297 2.36718-2.54297 2.1914-4.4375-.26562"/><path fill="#00c4fc" fill-rule="evenodd" d="M148.4375 440.76563l-.50781-.38282.50781-.35937 4.4375-.71875 1.16016 1.07812-1.16016 1-4.4375-.61719"/><path fill="#00e8fc" fill-rule="evenodd" d="M157.89844 440.38281l-.1914-4.4375 1.54296-4.4375 2.5039-2.42578 4.4375-1.45703v.92578l-4.4375 2.67578-.28906.28125-2.4414 4.4375.44922 4.4375-.02344 4.4375 1.50781 4.4414.79688 1.78517 2.35547 2.65234 2.08203 1.11719 4.4375.05859 4.4375-1.09766.11328-.07812-.11328-.2461-1.33594-4.1914.27734-4.4414-.20703-4.4375-2.60937-4.4375-.5625-.33594-.83594-4.10157-3.60156-2.95703v-.92578l4.4375 2.33203 2.68359 1.55078 1.7539 1 .89454-1 3.54687-1.89844 2.13672 1.89844-2.13672 3.30469-1.25781 1.13281-.58203 4.4375-.2539 4.4375.35937 4.4414 1.73437 2.92188 1.73828 1.51563-1.73828 2.10156-4.4414 1.8789-4.4375.00391-4.4375-.70312-4.4375-1.82813-1.54297-1.45312-1.27735-4.4375-.96484-4.4414-.07031-4.4375"/><path fill="#00d4fc" fill-rule="evenodd" d="M159.47266 440.38281l-.44922-4.4375 2.4414-4.4375.28907-.28125 4.4375-2.67578v.92578l-3.17578 2.03125-1.26172 1.98047-1.41797 2.45703.71094 4.4375-.11329 4.4375.82032 2.125 4.26562 2.3164.17188.21095.45312-.21094 1.90234-4.4414-2.35546-3.39063-1.05078-1.04688 1.05078-.57031 2.22656-3.86719.2461-4.4375-2.47266-2.03125v-.92578l3.60156 2.95703.83594 4.10156.5625.33594 2.60937 4.4375.20703 4.4375-.27734 4.4414 1.33594 4.19142.11328.24609-.11328.07812-4.4375 1.09766-4.4375-.0586-2.08203-1.11718-2.35547-2.65235-.79688-1.78515-1.50781-4.4414.02344-4.4375"/><path fill="#00c4fc" fill-rule="evenodd" d="M161.04688 440.38281l-.71094-4.4375 1.41797-2.45703 1.26172-1.98047 3.17578-2.03125v.92969l-1.72266 1.10156-2.71484 4.25781-.10547.1797.10547.55859 2.64062-.5586 1.79688-.1914 1.33984-4.2461-1.33984-1.10156v-.92969l2.47265 2.03125-.2461 4.4375-2.22655 3.86719-1.05078.57031 1.05078 1.04688 2.35547 3.39062-1.90235 4.4414-.45312.21095-.17188-.21094-4.26562-2.3164-.82032-2.125.11328-4.4375"/><path fill="#00b8fc" fill-rule="evenodd" d="M161.7539 436.5039l-.10546-.55859.10547-.17969 2.71484-4.2578 1.72266-1.10157v.92578l-.27344.17578.27344.67188.21093-.67188-.21093-.17578v-.92578l1.33984 1.10156-1.33984 4.2461-1.79688.1914-2.64062.5586"/><path fill="#00a8fc" fill-rule="evenodd" d="M166.1914 432.17969l-.27343-.67188.27344-.17578.21093.17578-.21093.67188"/><path fill="#50fcfc" fill-rule="evenodd" d="M192.82031 322.07813L191.5 320.54688l1.32031-1.98829 2.26953 1.98829 2.17188 2.6289 1.73047 1.8086 2.70703 1.84375 1.75 2.59765-.22656 4.4375-.98047 4.4375-.54297 1.98828-1.85938-1.98828-2.46093-4.4375-.1172-.04297-2.82812-4.39453 1.6836-4.4414-3.29688-2.90625m0 25.58203l-.48047-.48047.48047-.51953.48438.51953-.48438.48047m8.8789-31.10547l-.3203-.44531.3203-.27735.58595.27735-.58594.4453m4.4375 146.1797l-2.2539-.16016 2.2539-.2461.29687.2461-.29687.16015m4.4375-123.20312l-.84766-1.23047.84766-3.84375.0625-.59375 1.35547-4.4375 3.02344-2.17187v4.46875l-1.22657 2.14062 1.22656 1.3711 1.81641-1.3711-1.8164-2.14062v-4.46875l2.29296 2.17187 2.14453 2.45313 2.4961 1.98437-1.74219 4.4375-.4336 4.4375-.3203.32422-1.67579-.32422-2.76172-1.60937-4.4414-1.59766"/><path fill="#00e8fc" fill-rule="evenodd" d="M215.01563 335.23438l-1.22657-1.3711 1.22656-2.14062 1.81641 2.14062-1.8164 1.3711"/><path fill="#50fcfc" fill-rule="evenodd" d="M232.76563 462.84375l-3.61329-.26953 3.61328-.4336.33985.4336-.33984.26953m-2.09766-102.35156l-1.1875-4.4375 1.2539-4.4375 2.03125-.92578v5.3203l-.02734.04298.02734.08594.03125-.08594-.03125-.04297v-5.32031l1.34766.92578 2.22656 4.4375-.16406 4.4375-3.41016 2.375-2.09765-2.375"/><path fill="#00e8fc" fill-rule="evenodd" d="M232.76563 356.14063l-.02735-.08594.02734-.04297.03125.04297-.03125.08594"/><path fill="#50fcfc" fill-rule="evenodd" d="M242.47656 422.6289l-.03515-4.4375 1.8828-4.4375 1.75782-1.78124v2.8125l-2.41016 3.40625.21875 4.4375 2.19141 2.1953 4.4375-.3164 4.4375-.42187 2.4414-1.45703-2.4414-1.9336-2.19922-2.5039-2.23828-1.625-4.4375-1.78125v-2.8125l1.75 1.78125 2.6875 1.07812 4.4375 2.90625.60938.45313 3.83203 2.37109 3.9336 2.0664-3.9336 2.08985-4.4414 1.41016-4.4375.15234-4.4375-.04297-3.60548-3.60937"/><path fill="#00e8fc" fill-rule="evenodd" d="M243.89063 422.6289l-.21875-4.4375 2.41015-3.40624v2.89843l-.35937.50782.35937 3.16406 1.27344-3.16406-1.27344-.50782v-2.89843l4.4375 1.78125 2.23828 1.625 2.19922 2.5039 2.4414 1.9336-2.4414 1.45703-4.4375.42187-4.4375.3164-2.1914-2.1953"/><path fill="#00d4fc" fill-rule="evenodd" d="M246.08203 421.35547l-.35937-3.16406.35937-.50782 1.27344.50782-1.27344 3.16406"/><path fill="#50fcfc" fill-rule="evenodd" d="M266.16406 422.6289l-.45703-4.4375 1.9336-4.4375.6328-.64843 1.58204-3.78906 2.85547-2.8047v2.45313l-.35547.35157-2.42969 4.4375 2.78516 4.01953 4.4414-.0664 3.23047-3.95313-3.23047-3.51172-3.83984-.92578-.60156-.35157v-2.45312l4.4414 2.26953.53125.53516 3.63672 4.4375-2.10937 4.4375-2.0586 2.54296-4.4414.69532-3.84766 1.19922-.58984.41406-2.10938-.41406m2.10938 9.90625l-1.1836-1.02735 1.1836-1.32812 1.29297 1.32812-1.29297 1.02735"/><path fill="#00e8fc" fill-rule="evenodd" d="M272.71094 417.77344l-2.78516-4.01953 2.42969-4.4375.35547-.35157.60156.35157 3.83984.92578v1.69922l-4.0664 1.8125 4.0664 2.03906 1.66797-2.03906-1.66797-1.8125v-1.69922l3.23047 3.51172-3.23047 3.95312-4.4414.0664"/><path fill="#00d4fc" fill-rule="evenodd" d="M277.15234 415.79297l-4.0664-2.03906 4.0664-1.8125v1.69921l-.2578.11329.2578.1289.10157-.1289-.10157-.11329v-1.69921l1.66797 1.8125-1.66797 2.03906"/><path fill="#50fcfc" fill-rule="evenodd" d="M277.15234 434.95313l-3.63671-3.44532.89453-4.4375 2.74218-3.13281 4.4375-.26953v1.86719l-4.4375 1.4375-.08203.09765-1.90625 4.4375 1.98828 1.88281 1.89844-1.8828 2.53906-2.9375 1.88282-1.5-1.88282-1.53516v-1.8672l4.17579 3.40235-4.17579 3.32422-.96093 1.11328-3.47657 3.44531"/><path fill="#00e8fc" fill-rule="evenodd" d="M277.15234 433.39063l-1.98828-1.88282 1.90625-4.4375.08203-.09765 4.4375-1.4375 1.88282 1.53515-1.88282 1.5-2.53906 2.9375-1.89844 1.88281"/><path fill="#00c4fc" fill-rule="evenodd" d="M277.15234 413.88281l-.2578-.1289.2578-.11329.10157.11329-.10157.1289"/><path fill="#50fcfc" fill-rule="evenodd" d="M306.05469 427.07031l-.45313-4.4414 2.61719-2.94922.98047-1.48828 1.8164-4.4375 1.64063-3.38672 4.4414.53125v4.80078l-4.4414.27344-1.3086 2.21875-2.55859 4.4375 3.86719 1.89453 1.51172-1.89453 2.92969-3.48047.80078-.95703-.80078-2.4922v-4.80077l2.36718 2.85547.76954 4.4375-3.13672 3.74218-.58594.69532-3.11719 4.4414-.73828.74219-4.4375 1.42188-2.16406-2.16407"/><path fill="#00e8fc" fill-rule="evenodd" d="M312.65625 424.52344l-3.86719-1.89453 2.5586-4.4375 1.30859-2.21875 4.4414-.27344.80079 2.49219-.80078.95703-2.9297 3.48047-1.51171 1.89453"/><path fill="#50fcfc" fill-rule="evenodd" d="M325.97266 405.46484l-.76563-.58984.76563-.59375.54296.59375-.54296.58984"/><g clip-path="url(#d)"><path fill="#50fcfc" fill-rule="evenodd" d="M329.73828 444.82031l-2.4414-4.4375 3.11328-3.13672 1.65234-1.30078 2.78516-2.76172 3.70312-1.67578-1.39844-4.4375 2.13672-2.15234 2.33985 2.15234 2.09765.51172 4.41016 3.92578.02734.10156 4.4375 1.71875 2.80078-1.8203 1.64063-2.25 1.6289-2.1875 1.29688-4.44141.0586-4.4375-1.22266-4.4375 2.67578-3.17188 1.77344-1.26562 2.66406-2.30079v2.75391l-4.4375 3.95313-.02735.03125.02735.05859 4.4375 3.89063v6.78515l-1.90235 2.58203 1.08204 4.4375.8203.32813.60938-.32813-.15625-4.4375-.45312-2.58203v-6.78515l4.4375-2.19532 1.71484-1.7539-1.71484-2.26954-4.4375-1.71484v-2.7539l4.4375 1.6914.55078.60938 2.96875 4.4375-3.51953 3.60546-1.95703.83204 1.95703.64062v1.42969l-3.05078 2.36719.38672 4.4414 2.2578 4.4375-4.03124 2.16797-4.4375-1.3125-2.29297 3.58203-2.14453 2.25781-4.4414-.88671-3.1797-1.3711-1.2578-.5-1.08204-3.9375-3.35547-2.98828-3.48828 2.98828-.94922 1.5039-4.4414 2.71095-.22266.22265-4.21484 3.32031-1.10938 1.1172 1.10938 1.71093 1.93359-1.71094 2.5039-3.95312 4.44141 3.42578 3.0664.52734-3.0664 3.82813-.17969.60937.1797.48438 4.4375.17969v4.70703l-2.40626 3.5078 2.40625 3.04298 2.90625-3.04297-2.90625-3.50781v-4.70704l1.40625-.66406 3.03125-.89453 4.20703.89453-3.08203 4.4414 3.3125 2.40235 4.4414 1.46485 4.4375-3.44532 4.4375-.41406 4.4375 4.05078.09376.3789-.09375.40626-2.80469 4.03125.0586 4.4375-1.2422 4.4414.5586 4.4375 3.42969 2.9375 3.75781-2.9375.67969-3.79687.23047-.64063 4.21094-3.76953.42187-.67187 3.6914-4.4375.32423-.32422 4.4375-2.09766 3.70703-2.01562.73046-.8125 2.01172.8125 2.42579 1.33203 3.72265 3.10547.71875.63672 1.07813 3.80078 3.35937 2.76172 4.4375.88672 4.4375.57812 4.4414-.23437 4.4375-1.7422 2.4297-2.25-2.1797-4.4375 4.1875-2.2578 2.19532 2.2578 2.24219 1.54688 2.16797-1.54687 2.26953-1.97656 1.80469-2.46094-1.8047-3.42969-4.4375-.57812-4.4375 1.4375-1.69921 2.5703-2.73828 4.27345-1.42578-4.27344-3.01172-3.0586-.8086-1.3789.00391-4.4414.80469-1.56641v4.78515l-.13672 1.22266.13672.22656 1.44922-.22656-1.44922-1.22266v-4.78515l1.92578 1.5664 2.51172 2.27735v4.8828l-.29297 1.71876.29297.875.5586-.875-.5586-1.71875v-4.88281l4.4375-2.01954.09765-.2578-.09765-.47657-3.46485-3.96094-.97265-.23047-4.4375-1.39843-4.4414-.16016-2.4922 1.78906-1.9453.6836-4.4375.21093-4.4375 3.26563-.35157.27734-4.08985 2.73438-4.4375-.55469-1.3828-2.17969-3.0547-3.58203-.24218-.85547.24219-.3086 4.4375-4.125.0039-.0039 2.6914-4.4375-.29296-4.4375-2.40235-2.61719-4.4375-.66406-4.4375.25-3.39453-1.41015-1.04296-.80079-4.44141-1.0664-4.4375-.5v-1.42969l4.4375-.41797 4.4414 1.1289 4.01954 3.08595.41796.17578 4.4375.00781 4.4375.1289 2.71485-.3125 1.72265-.8164.76172.8164-.76171.96876-.65235 3.47265.02735 4.4375-.75782 4.4375-3.05469 2.89453-2.44921 1.54297 2.34765 4.4375.10156.16016h4.4375l.2422-.16016 4.19921-3.375 2.24219-1.0625 2.19531-1.74219 4.4375.42188 4.4375-2.10547 4.4414-.0586 4.4375.39454 4.4375.67969 2.44923 2.41015.40625 4.4375 1.58203 2.27344 4.4375-.19531 2.88281 2.36328.58594 4.4375.97265 3.28515 4.4375.34766 1.44532.80469-1.44532.64844-4.4375 3.6875-4.4414-.98047-4.4375.05078-4.4375-1.92969-.55469 2.96094-3.88281 3.59375-2.85156.84765-1.58594 1.6211-4.4414.625-4.4375-1.53125-.83985-.71485-3.59766-.58203-4.4375-2.0625-2.25-1.79687-2.1914-1.71485-1.90625-2.72265-2.53125-1.52344-4.4375.6914-2.625.83204-1.8125 1.57031-1.59766 2.86719-2.69922 4.4414 4.29688 2.3125 4.26562 2.125-4.26563 3.21875-.82421 1.21875-3.61329 2.44532-4.4414 1.67578-4.4375-3.01953-.73047-1.10156-3.70703-2.28907-4.4375.66797-4.4375.34766-3.16406-3.16406 3.16406-3.1875v2.09765l-1.08203 1.08985 1.08203 1.08203 4.4375-.94141.41406-.14063-.41406-.14843-4.4375-.9414v-2.09767l4.4375.23829 1.71875-1.48829 1.23828-4.4414-.66797-4.4375-2.28906-2.72266-4.4375 1.40625-4.4414-2.79297-2.92188 4.10938-1.51563 1.51172-4.4375 2.48828-1.28906-4-3.14844-2.53125-2.16406-1.90625-.39844-4.4375-1.8789-3.50781-4.4375 3.0625-.67188-3.9961"/></g><path fill="#00e8fc" fill-rule="evenodd" d="M330.41016 442.09375l-1.10938-1.71094 1.10938-1.11719 4.21484-3.3203.22266-.22266 4.4414-2.71094.94922-1.5039 3.48828-2.98829v1.5664l-1.66015 1.42188-2.77735 4.39453-.07422.04297.07422.0586.0586-.0586 4.3789-2.46875v2.16406l-.53906.3047.53906 3.08984 2.85156-3.08985-2.85156-.30469v-2.16406l1.59766-1.96875-1.59766-1.42187v-1.5664l3.35547 2.98827 1.08203 3.9375 1.25781.5 3.1797 1.3711 4.4414.88671 2.14453-2.2578 2.29297-3.58204 4.4375 1.3125 4.03125-2.16797-2.25781-4.4375-.38672-4.4414 3.05078-2.3672v2.46095l-.46485 4.34765.46485.82422 2.35937 3.61328-.33203 4.4375-2.02734 1.17969-4.4375-.82813-4.4375.3672-3.65625 3.71874-.78125 1.74219-1.99219 2.69531.10156 4.4414 1.89063.75392.90625-.75391 3.53125-1.42969 4.4375-1.77734 3.10156-1.23438 1.33594-.35547.30078.35547.2461 4.4414.5664 4.4375-.82031 4.4375 4.14453 3.81642 4.4414-.21485 3.26172-3.60156 1.17579-1.17969 4.17578-3.25781.26171-.71875 3.51172-3.71875-2.59375-4.4414-.91796-1.07813-.95313-3.35938.95313-1.21484 3.46484-3.22266.97265-3.0664.83204-1.3711-.73829-4.4375-.09375-.10547-4.4375-1.55078-4.4375.67969-4.4375-.88672-4.4414-1.625-4.4375-.85937v-2.46094l4.4375.5 4.4414 1.0664 1.04297.80079 3.39454 1.41015 4.4375-.25 4.4375.66406 2.40234 2.6172.29297 4.4375-2.6914 4.4375-.00392.0039-4.4375 4.125-.24218.3086.24219.85546 3.05468 3.58203L392.54687 447l4.4375.55469 4.08985-2.73438.35156-.27734 4.4375-3.26563 4.4375-.21093v1.32812l-4.4375 1.11719-1.69531 1.3086-2.74219 3.30859-1.55078 1.1328 1.55078 2.32032 1.00781 2.11719.89063 4.4375 1.40625 4.4375 1.13281.92969 4.4375 1.21484 4.4375 1.00781 4.4414-.3125 4.4375-2.83203.00391-.00781-.0039-.01172-2.8789-4.42578-.44142-4.4375-1.11718-1.13672-1.9336-3.30078-1.65234-4.4414-.85547-2.09376-4.4375-.33203v-1.32812l1.94531-.6836 2.4922-1.78906 4.4414.16016 4.4375 1.39843.97265.23047 3.46485 3.96094.09765.47656-.09765.25781-4.4375 2.01954-2.51172-2.27735-1.92578-1.5664-.80469 1.5664-.0039 4.4414.80859 1.37892 3.01172 3.05859 1.42578 4.27344 2.73828-4.27344 1.69922-2.57031 4.4375-1.4375v1.58593l-3.29297 2.42188 3.29297 3.33984 3.61328-3.33984-3.61328-2.42188v-1.58593l4.4375.57812 1.80469 3.42969-1.8047 2.46094-2.26952 1.97656-2.16797 1.54687-2.24219-1.54687-2.19531-2.25781-4.1875 2.2578 2.17969 4.4375-2.4297 2.25-4.4375 1.7422-4.4414.23437-4.4375-.57812-4.4375-.88672-3.35937-2.76172-1.07813-3.80078-.71875-.63672-3.72265-3.10547-2.42579-1.33203-2.01171-.8125-.73047.8125-3.70704 2.01562-4.4375 2.09766-.32421.32422-3.69141 4.4375-.42188.67187-4.21093 3.76954-.23047.64062-.67969 3.79688-3.75781 2.9375-3.42969-2.9375-.5586-4.4375 1.2422-4.44141-.0586-4.4375 2.80469-4.03125v16.1875l-.17969 1.16015.17969.15235.19531-.15235-.19531-1.16015v-16.1875l.09375-.40625-.09375-.3789-4.4375-4.05079-4.4375.41406-4.4375 3.44532-4.4414-1.46485-3.3125-2.40234 3.08202-4.4414-4.20703-.89454-3.03125.89453-1.40625.66406-4.4375-.17968-.17969-.48438.1797-.60937 3.0664-3.82813-3.0664-.52734-4.44141-3.42578-2.50391 3.95312-1.9336 1.71094"/><path fill="#00d4fc" fill-rule="evenodd" d="M339.28906 436.0039l-.07422-.05859.07422-.04297 2.77735-4.39453 1.66015-1.42187 1.59766 1.42187-1.59766 1.96875-4.3789 2.46875-.0586.0586"/><path fill="#fff" fill-opacity="0" fill-rule="evenodd" d="M343.72656 450.1914l-2.40625 3.50782 2.40625 3.04297 2.90625-3.04297-2.90625-3.50781"/><path fill="#50fcfc" fill-rule="evenodd" d="M343.72656 420.3789l-1.96875-2.1875 1.96875-2.8828 4.4375-1.00782V415.75l-3.46875 2.4414L346 422.6289l2.16406 2.50782 4.4375.51172 2.9414-3.01953-1.03124-4.4375-1.91016-2.00391-4.4375-.4375v-1.44922l4.4375.16797 3.54688 3.72266.41406 4.4375-3.96094 4.0664-4.4375.14453-3.63672-4.21093-.80078-2.25m0 15.26171l-.53906.3047.53906 3.08984 2.85156-3.08985-2.85156-.30469"/><path fill="#00e8fc" fill-rule="evenodd" d="M346 422.6289l-1.30469-4.4375 3.46875-2.4414v2.42188l-.03125.01953.03125.3125.61719 4.125 3.82031 1.27343 1.24219-1.27343-1.24219-3.14454-4.3086-1.29296-.1289-.01954V415.75l4.4375.4375 1.91016 2.0039 1.03125 4.4375-2.9414 3.01954-4.4375-.51172L346 422.6289"/><path fill="#00d4fc" fill-rule="evenodd" d="M348.16406 418.5039l-.03125-.3125.03125-.01952.1289.01953 4.3086 1.29296 1.24219 3.14454-1.24219 1.27343-3.82031-1.27343-.61719-4.125m6.98828 30.7578l-.10156-4.4414 1.99219-2.69531.78125-1.74219 3.65625-3.71875 4.4375-.36719 4.4375.82813 2.02734-1.17969.33203-4.4375-2.35937-3.61328-.46485-.82422.46485-4.34765 4.4375.85937v1.82813l-2.375 1.66015 2.375 3.69531.86719.7422-.66016 4.4375-.20703.51562-4.4375 2.39844-4.4375-1.21094-4.4375.55078-2.14453 2.1836-1.5625 4.4375 3.70703 1.5 2.73437-1.5 1.70313-1.03516 4.4375-1.4922 2.10937 2.52735 2.32813 2.85938.45703 1.58203-.45703 1.0625-2.30469 3.375.6211 4.4375 1.68359 1.55078 4.4414 1.11328 2.41016-2.66406 2.02735-2.03125 3.08593-2.40625 1.35156-3.71875.6797-.71875-.6797-1.3164-.65234-3.125-1.01562-4.4375 1.66796-2.1211 2.4922-2.3164.80859-4.4375-3.23047-4.4375-.07031-.02735-.12891.02734-4.3086 1.53125-4.4375.07813-1.42578-1.60938-3.01562-1.66015v-1.82813l4.4414 1.625 4.4375.88672 4.4375-.67969 4.4375 1.55078.09375.10547.73829 4.4375-.83204 1.3711-.97265 3.0664-3.46485 3.22266-.95312 1.21484.95313 3.35938.91796 1.07812 2.59375 4.4414-3.51171 3.71876-.26172.71875-4.17579 3.25781-1.17578 1.17969-3.26171 3.60156-4.44141.21485-4.14453-3.81641.82031-4.4375-.5664-4.4375-.2461-4.4414-.30078-.35548-1.33594.35547-3.10156 1.23438-4.4375 1.77734-3.53125 1.42969-.90625.7539-1.89063-.7539"/><path fill="#00e8fc" fill-rule="evenodd" d="M357.04297 472.53516l-1.08203-1.08204 1.08203-1.08984 4.4375.9414.41406.14844-.41406.14063-4.4375.9414"/><path fill="#00c4fc" fill-rule="evenodd" d="M361.48047 446.32031l-3.70703-1.5 1.5625-4.4375 2.14453-2.1836 4.4375-.55077V439l-4.4375.73438-.63672.64843.63672 4.32813 4.4375-2.60547 3.96875-1.72266L365.91797 439v-1.35156l4.4375 1.21094 4.4375-2.39844.20703-.51563.66016-4.4375-.8672-.74219-2.375-3.6953 2.375-1.66016 3.01563 1.66015 1.42579 1.60938 4.4375-.07813 4.30859-1.53125.1289-.02734v2.77734l-4.4375 1.6875-4.4375.33985-3.17187 4.09765-1.26953 3.20703-3.50781 1.23047 2.98437 4.4375.52344.64453 1.09765 3.79688-1.09765 2.55469-1.28516 1.8828 1.28516 3.55079.65234.88672 3.78906 1.72656 1.5625-1.72656 2.875-2.88281 1.9922-1.5547 1.4453-4.4375-.80078-4.4414-.58203-4.4375 2.38281-3.02734 1.51563-1.41016-.27344-4.4375-1.24219-1.6875v-2.77734l.07032.02734 3.23047 4.4375-.8086 4.4375-2.49219 2.3164-1.66796 2.1211 1.01562 4.4375.65235 3.125.67968 1.3164-.67969.71876-1.35156 3.71875-3.08594 2.40625-2.02734 2.03125-2.41015 2.66406-4.44141-1.11328-1.6836-1.55078-.62109-4.4375 2.30469-3.375.45703-1.0625-.45703-1.58203-2.32813-2.85938-2.10937-2.52734-4.4375 1.49219-1.70313 1.03515-2.73437 1.5"/><path fill="#00b8fc" fill-rule="evenodd" d="M361.48047 444.71094l-.63672-4.32813.63672-.64844 4.4375-.73437v1.35156l-.17969.03125.17969.04297.09375-.04297-.09375-.03125V439l3.96875 1.38281-3.96875 1.72266-4.4375 2.60547"/><path fill="#00e8fc" fill-rule="evenodd" d="M361.48047 413.8125l-.02735-.0586.02735-.03124 4.4375-3.95313v1.91797l-2.3086 2.0664 2.3086 2.04688 3.16797-2.04687-3.16797-2.06641v-1.91797l4.4375 1.71485 1.71484 2.26953-1.71484 1.7539-4.4375 2.19531-4.4375-3.89062"/><path fill="#00d4fc" fill-rule="evenodd" d="M365.91797 415.80078l-2.3086-2.04687 2.3086-2.06641v1.91406l-.16797.15235.16797.14843.23047-.14843-.23047-.15235v-1.91406l3.16797 2.0664-3.16797 2.04688"/><path fill="#fff" fill-opacity="0" fill-rule="evenodd" d="M365.91797 424.48828l-1.90235 2.58203 1.08204 4.4375.8203.32813.60938-.32813-.15625-4.4375-.45312-2.58203"/><path fill="#00a8fc" fill-rule="evenodd" d="M365.91797 440.42578l-.17969-.04297.17969-.03125.09375.03125-.09375.04297"/><path fill="#00c4fc" fill-rule="evenodd" d="M365.91797 413.90234l-.16797-.14843.16797-.15235.23047.15235-.23047.14843"/><path fill="#00d4fc" fill-rule="evenodd" d="M370.35547 471.60547l-.17969-.15235.17969-1.16015.19531 1.16015-.19531.15235"/><path fill="#00b8fc" fill-rule="evenodd" d="M374.26953 444.82031l-2.98437-4.4375 3.5078-1.23047 1.26954-3.20703 3.17188-4.09765v1.375l-2.10938 2.72265-1.60547 4.4375.3086 4.4375.69921 4.4414-1.73437 4.04298-.26563.39453.26563.73828 2.71094 3.69922 1.73046.78906.71094-.78906 3.72656-3.73438.89844-.70312 1.22266-4.4375-.6289-4.4414-.14844-4.4375 3.09375-3.9336.54296-.5039-.54296-2.58985-4.4375.01172-4.4375-.14453v-1.375l4.4375-.33985 4.4375-1.6875 1.24218 1.6875.27344 4.4375-1.51563 1.41016-2.3828 3.02734.58202 4.4375.80079 4.4414-1.44532 4.4375-1.99219 1.5547-2.875 2.8828-1.5625 1.72657-3.78906-1.72656-.65234-.88672-1.28516-3.55078 1.28516-1.88281 1.09765-2.5547-1.09765-3.79687-.52344-.64453"/><path fill="#00a8fc" fill-rule="evenodd" d="M374.79297 454.4375l-.26563-.73828.26563-.39453 1.73437-4.04297-.69921-4.4414-.3086-4.4375 1.60547-4.4375 2.10938-2.72266v1.375l-1.04297 1.34765-1.33594 4.4375.42969 4.4375-.1172 4.4414-1.83593 4.4375 3.90235 4.3086 4.29687-4.3086.14063-.99218.80468-3.44531-.45703-4.4414.28125-4.4375 1.4336-4.4375-2.0625-.71876-4.4375-.6289v-1.375l4.4375.14453 4.4375-.01172.54296 2.58984-.54296.5039-3.09375 3.9336.14843 4.4375.6289 4.4414-1.22265 4.4375-.89844.70313-3.72656 3.73438-.71094.78906-1.73046-.78906-2.71094-3.69922"/><path fill="#009800" fill-rule="evenodd" d="M379.23438 458.00781l-3.90235-4.3086 1.83594-4.4375.11719-4.4414-.4297-4.4375 1.33595-4.4375 1.04296-1.34765v1.46484l-1.04296 4.32031.55078 4.4375-.9336 4.4414-1.74218 4.4375 3.16796 3.5 3.48829-3.5.29296-4.4375-2.33593-4.4414 2.42578-4.4375-3.8711-4.32031v-1.46484l4.4375.6289 2.0625.71875-1.43359 4.4375-.28125 4.4375.45703 4.4414-.80469 3.44532-.14062.99219-4.29688 4.3086"/><path fill="#00ac00" fill-rule="evenodd" d="M379.23438 457.19922l-3.16797-3.5 1.74218-4.4375.9336-4.4414-.55078-4.4375 1.04296-4.32032v10.3125l-.78906 2.88672-1.64844 4.4375 2.4375 2.6914 2.6836-2.6914-.59766-4.4375-2.08594-2.88672v-10.3125l3.8711 4.32031-2.42578 4.4375 2.33594 4.4414-.29297 4.4375-3.48829 3.5"/><path fill="#00c800" fill-rule="evenodd" d="M379.23438 456.39063l-2.4375-2.69141 1.64843-4.4375.78906-2.88672v4.50781l-.97656 2.8164.97656 1.07813 1.07422-1.07812-1.07421-2.8164V446.375l2.08593 2.88672.59766 4.4375-2.6836 2.6914"/><path fill="#10cc00" fill-rule="evenodd" d="M379.23438 454.77734l-.97657-1.07812.97656-2.8164 1.07422 2.8164-1.07421 1.07812"/><path fill="#00d4fc" fill-rule="evenodd" d="M401.42578 451.58203l-1.55078-2.32031 1.55078-1.13281 2.74219-3.3086 1.69531-1.3086 4.4375-1.11718v1.32813l-2.95312 1.09765-1.48438 1.84766-2.05469 2.59375 2.03907 4.4375-.45704 4.4375.47266 1.41015 2.3789 3.02735 2.0586.64062 4.4375 1.4336 4.4414-.38672 2.63673-1.6875-2.63672-3.35547-1-1.08203-.27735-4.4375-1.78125-4.4375-1.3828-2.83594-2.01954-1.60547-2.41797-1.09765v-1.32813l4.4375.33203.85547 2.09375 1.65234 4.4414 1.9336 3.30079 1.11719 1.13672.4414 4.4375 2.8789 4.42578.00391.01172-.0039.00781-4.4375 2.83203-4.4414.3125-4.4375-1.00781-4.4375-1.21484-1.13282-.9297-1.40625-4.4375-.89063-4.4375-1.0078-2.11718"/><path fill="#00c4fc" fill-rule="evenodd" d="M405.84766 453.69922l-2.03907-4.4375 2.0547-2.59375 1.48437-1.84766 2.95312-1.09765v1.34765l-3.8789 4.1914 1.23046 4.4375.4375 4.4375 2.21094 2.53907 1.69531 1.89844 2.7422 1 4.4414-.46485.83594-.53515-.83594-1.0625-3.11328-3.375-1.29297-4.4375.21875-4.4375-.2539-.52344-4.4375-3.66797v-1.34765l2.41796 1.09765 2.01953 1.60547 1.38281 2.83594 1.78125 4.4375.27735 4.4375 1 1.08203 2.63672 3.35547-2.63672 1.6875-4.4414.38672-4.4375-1.4336-2.0586-.64062-2.3789-3.02735-.47267-1.41015.45704-4.4375"/><path fill="#00b8fc" fill-rule="evenodd" d="M407.65234 453.69922l-1.23046-4.4375 3.8789-4.1914v1.45312l-2.53515 2.73828 1.6875 4.4375.84765 2.97265 1.4336-2.97265 1.71484-4.4375-3.14844-2.73828v-1.45313l4.4375 3.66797.2539.52344-.21874 4.4375 1.29297 4.4375 3.11328 3.375.83594 1.0625-.83594.53515-4.4414.46485-2.7422-1-1.6953-1.89844-2.21095-2.53906-.4375-4.4375"/><path fill="#00a8fc" fill-rule="evenodd" d="M409.45313 453.69922l-1.6875-4.4375 2.53515-2.73828v1.44922l-1.1914 1.28906 1.1914 2.78125 1.48047-2.78125-1.48047-1.28906v-1.44922l3.14844 2.73828-1.71485 4.4375-1.43359 2.97265-.84765-2.97265"/><path fill="#009800" fill-rule="evenodd" d="M410.30078 452.04297l-1.1914-2.78125 1.1914-1.28906 1.48047 1.28906-1.48047 2.78125"/><path fill="#fff" fill-opacity="0" fill-rule="evenodd" d="M419.17969 448.03906l-.13672 1.22266.13672.22656 1.44922-.22656-1.44922-1.22266m4.4375 3.9414l-.29297 1.71876.29297.875.5586-.875-.5586-1.71875"/><path fill="#00d4fc" fill-rule="evenodd" d="M432.49219 457.03906l-3.29297-3.33984 3.29297-2.42188v1.58594l-1.13281.83594 1.1328 1.15234 1.2461-1.15234-1.2461-.83594v-1.58594l3.61329 2.42188-3.61328 3.33984"/><path fill="#00c4fc" fill-rule="evenodd" d="M432.49219 454.85156l-1.13281-1.15234 1.1328-.83594 1.2461.83594-1.2461 1.15234"/><path fill="#50fcfc" fill-rule="evenodd" d="M441.3711 478.60938l-3.01954-2.71875 3.01953-3.10157v2.9375l-.16015.16406.16015.14454.14844-.14454-.14844-.16406v-2.9375l2.84375 3.10156-2.84375 2.71875"/><path fill="#00e8fc" fill-rule="evenodd" d="M441.3711 476.03516l-.16016-.14454.16015-.16406.14844.16406-.14844.14454"/><g clip-path="url(#e)"><path fill="#fff" fill-opacity="0" fill-rule="evenodd" d="M467.9961 480.32813H468V311.67188h-.0039H468v168.65625h-.0039"/></g><path fill="#fff" fill-opacity="0" fill-rule="evenodd" d="M151.92969 452.73438l2.46875 5.29296 9.02734-4.21093-2.46875-5.29297-9.02734 4.21094"/><path fill-rule="evenodd" d="M160.77344 452.46875l.21484.46484-5.70312 2.66016-.33203-.71484 4.0664-1.89844-.58594-1.25781.50391-.23438.29688.48047.15234.20703.17969.16797.21484.125.26172.07031.32812.0039.40235-.07421"/><path fill="#fff" fill-opacity="0" fill-rule="evenodd" d="M363.02344 418.1914l1.2539-5.70702-9.73046-2.13282-1.25 5.70313 9.72656 2.13672"/><path fill-rule="evenodd" d="M355.83594 413.03125l.10937-.5 6.14844 1.35156-.16797.76953-4.38672-.96484-.29687 1.35938-.54297-.1211.0586-.5586v-.26171l-.03907-.24219-.09375-.22656-.16797-.21485-.25781-.20312-.36328-.1875"/><path fill="#fff" fill-opacity="0" fill-rule="evenodd" d="M432.07422 450.6289l5.54297 1.84376 3.14453-9.45313-5.54297-1.84375-3.14453 9.45313"/><path fill-rule="evenodd" d="M437.96094 444.01953l.48437.16406-1.98828 5.97266-.7461-.25 1.41798-4.26172-1.31641-.4375.17578-.52734.55078.11719.2539.02734.2461-.01172.23828-.07031.23047-.14453.23047-.23438.22266-.34375"/><path fill="#fff" fill-opacity="0" fill-rule="evenodd" d="M396.4336 453.86719l.89843-7.8711-10.125-1.16015-.89844 7.875 10.125 1.15625"/><path fill-rule="evenodd" d="M388.41016 450.45313l.37109-3.26563.73828.08594-.30078 2.6211 1.76563.43358-.13282-.24218-.10156-.28516-.05078-.33203.01172-.38281.0625-.32031.1211-.32422.18358-.31641.25-.28516.32032-.23828.1836-.09375.20702-.07812.22266-.05469.24219-.03516.26171-.0078.28516.01952.4375.08203.40235.15235.36328.21484.30859.27735.2461.33593.09765.1914.07422.20313.05469.21875.03125.23438.0078.2461-.01562.26171-.08984.46094-.14844.38281-.19922.3125-.24218.25-.28516.1914-.3164.13673-.34376.08984-.35937.04688.08984-.78516.23828-.05078.21875-.07813.19141-.10156.17188-.1289.14062-.15235.11328-.17578.07813-.20313.04687-.22656.01172-.3164-.03906-.28907-.09375-.2539-.14063-.22657-.19531-.1875-.2461-.15234-.30077-.10938-.35157-.0664-.26562-.00781-.26563.02734-.25781.07422-.24219.1211-.21484.16796-.17969.22266-.1289.27344-.07422.33203-.00391.33984.07813.29297.15234.29297.23437.33984-.07812.6875-3.35156-.84765"/><g clip-path="url(#f)"><path fill="none" stroke="#000" stroke-linecap="round" stroke-linejoin="round" stroke-miterlimit="10" stroke-width=".5" d="M142.7539 483.61328l2.4922-6.57031"/></g><g clip-path="url(#g)"><path fill="none" stroke="#000" stroke-linecap="round" stroke-linejoin="round" stroke-miterlimit="10" stroke-width=".5" d="M156.84375 483.8125l.9414-6.96484"/></g><g clip-path="url(#h)"><path fill="none" stroke="#000" stroke-linecap="round" stroke-linejoin="round" stroke-miterlimit="10" stroke-width=".5" d="M169.65625 483.70313l1.94922-6.75"/></g><g clip-path="url(#i)"><path fill="none" stroke="#000" stroke-linecap="round" stroke-linejoin="round" stroke-miterlimit="10" stroke-width=".5" d="M180.4336 480.46484l7.02343-.27343"/></g><g clip-path="url(#j)"><path fill="none" stroke="#000" stroke-linecap="round" stroke-linejoin="round" stroke-miterlimit="10" stroke-width=".5" d="M193.7461 480.3164l7.02734.02735"/></g><g clip-path="url(#k)"><path fill="none" stroke="#000" stroke-linecap="round" stroke-linejoin="round" stroke-miterlimit="10" stroke-width=".5" d="M194.76953 480.32031l-.57031-1.08594"/></g><g clip-path="url(#l)"><path fill="none" stroke="#000" stroke-linecap="round" stroke-linejoin="round" stroke-miterlimit="10" stroke-width=".5" d="M207.46875 478.6875l6.21484 3.28125"/></g><path fill="none" stroke="#000" stroke-linecap="round" stroke-linejoin="round" stroke-miterlimit="10" stroke-width=".5" d="M208.3711 479.16406v-1.22656"/><g clip-path="url(#m)"><path fill="none" stroke="#000" stroke-linecap="round" stroke-linejoin="round" stroke-miterlimit="10" stroke-width=".5" d="M221.1914 478.07813l5.39844 4.5"/></g><path fill="none" stroke="#000" stroke-linecap="round" stroke-linejoin="round" stroke-miterlimit="10" stroke-width=".5" d="M221.1914 478.07813l.50391-2.40235"/><g clip-path="url(#n)"><path fill="none" stroke="#000" stroke-linecap="round" stroke-linejoin="round" stroke-miterlimit="10" stroke-width=".5" d="M234.72656 477.83984l4.96094 4.97657"/></g><path fill="none" stroke="#000" stroke-linecap="round" stroke-linejoin="round" stroke-miterlimit="10" stroke-width=".5" d="M234.72656 477.83984l.71875-2.34375"/><g clip-path="url(#o)"><path fill="none" stroke="#000" stroke-linecap="round" stroke-linejoin="round" stroke-miterlimit="10" stroke-width=".5" d="M248.02344 477.85547l4.99219 4.94531"/></g><path fill="none" stroke="#000" stroke-linecap="round" stroke-linejoin="round" stroke-miterlimit="10" stroke-width=".5" d="M248.02344 477.85547l.70703-2.34766"/><g clip-path="url(#p)"><path fill="none" stroke="#000" stroke-linecap="round" stroke-linejoin="round" stroke-miterlimit="10" stroke-width=".5" d="M261.23047 477.96875l5.20703 4.71875"/></g><path fill="none" stroke="#000" stroke-linecap="round" stroke-linejoin="round" stroke-miterlimit="10" stroke-width=".5" d="M261.23047 477.96875l.60156-2.3789"/><g clip-path="url(#q)"><path fill="none" stroke="#000" stroke-linecap="round" stroke-linejoin="round" stroke-miterlimit="10" stroke-width=".5" d="M274.45703 478.07031l5.38672 4.51563"/></g><path fill="none" stroke="#000" stroke-linecap="round" stroke-linejoin="round" stroke-miterlimit="10" stroke-width=".5" d="M274.45703 478.07031l.50781-2.39844"/><g clip-path="url(#r)"><path fill="none" stroke="#000" stroke-linecap="round" stroke-linejoin="round" stroke-miterlimit="10" stroke-width=".5" d="M287.39063 478.6289l6.14843 3.39844"/></g><path fill="none" stroke="#000" stroke-linecap="round" stroke-linejoin="round" stroke-miterlimit="10" stroke-width=".5" d="M287.39063 478.6289l.03906-2.45312"/><g clip-path="url(#s)"><path fill="none" stroke="#000" stroke-linecap="round" stroke-linejoin="round" stroke-miterlimit="10" stroke-width=".5" d="M300.58594 478.86719l6.39062 2.92578"/></g><path fill="none" stroke="#000" stroke-linecap="round" stroke-linejoin="round" stroke-miterlimit="10" stroke-width=".5" d="M300.58594 478.86719l-.14453-2.44922"/><g clip-path="url(#t)"><path fill="none" stroke="#000" stroke-linecap="round" stroke-linejoin="round" stroke-miterlimit="10" stroke-width=".5" d="M313.65625 479.6211l6.88281 1.41796"/></g><path fill="none" stroke="#000" stroke-linecap="round" stroke-linejoin="round" stroke-miterlimit="10" stroke-width=".5" d="M313.65625 479.6211l-.6914-2.35548"/><g clip-path="url(#u)"><path fill="none" stroke="#000" stroke-linecap="round" stroke-linejoin="round" stroke-miterlimit="10" stroke-width=".5" d="M326.89844 480.4414l7.02344-.22656"/></g><g clip-path="url(#v)"><path fill="none" stroke="#000" stroke-linecap="round" stroke-linejoin="round" stroke-miterlimit="10" stroke-width=".5" d="M327.92188 480.41016l-.61329-1.0625"/></g><g clip-path="url(#w)"><path fill="none" stroke="#000" stroke-linecap="round" stroke-linejoin="round" stroke-miterlimit="10" stroke-width=".5" d="M340.6875 478.5625l6.07422 3.53516"/></g><path fill="none" stroke="#000" stroke-linecap="round" stroke-linejoin="round" stroke-miterlimit="10" stroke-width=".5" d="M341.57422 479.07422l.04687-1.22266"/><g clip-path="url(#x)"><path fill="none" stroke="#000" stroke-linecap="round" stroke-linejoin="round" stroke-miterlimit="10" stroke-width=".5" d="M354.75781 482.9961l4.5664-5.33594"/></g><g clip-path="url(#y)"><path fill="none" stroke="#000" stroke-linecap="round" stroke-linejoin="round" stroke-miterlimit="10" stroke-width=".5" d="M368.55078 483.34375l3.61328-6.02734"/></g><g clip-path="url(#z)"><path fill="none" stroke="#000" stroke-linecap="round" stroke-linejoin="round" stroke-miterlimit="10" stroke-width=".5" d="M380.17188 480.64453l7-.63281"/></g><g clip-path="url(#A)"><path fill="none" stroke="#000" stroke-linecap="round" stroke-linejoin="round" stroke-miterlimit="10" stroke-width=".5" d="M381.1914 480.55078l-.67187-1.02734"/></g><g clip-path="url(#B)"><path fill="none" stroke="#000" stroke-linecap="round" stroke-linejoin="round" stroke-miterlimit="10" stroke-width=".5" d="M395.51172 483.51953l2.94922-6.3789"/></g><g clip-path="url(#C)"><path fill="none" stroke="#000" stroke-linecap="round" stroke-linejoin="round" stroke-miterlimit="10" stroke-width=".5" d="M409.27344 483.6875l2.05469-6.71875"/></g><g clip-path="url(#D)"><path fill="none" stroke="#000" stroke-linecap="round" stroke-linejoin="round" stroke-miterlimit="10" stroke-width=".5" d="M421.30078 482.96875l4.63281-5.28125"/></g><g clip-path="url(#E)"><path fill="none" stroke="#000" stroke-linecap="round" stroke-linejoin="round" stroke-miterlimit="10" stroke-width=".5" d="M436.1289 483.75l1.60548-6.84375"/></g><g clip-path="url(#F)"><path fill="none" stroke="#000" stroke-linecap="round" stroke-linejoin="round" stroke-miterlimit="10" stroke-width=".5" d="M448.51563 483.38672l3.46093-6.11719"/></g><g clip-path="url(#G)"><path fill="none" stroke="#000" stroke-linecap="round" stroke-linejoin="round" stroke-miterlimit="10" stroke-width=".5" d="M462.41406 483.64844l2.29688-6.64063"/></g><g clip-path="url(#H)"><path fill="none" stroke="#000" stroke-linecap="round" stroke-linejoin="round" stroke-miterlimit="10" stroke-width=".5" d="M141.28906 469.2461l5.42188-4.46485"/></g><path fill="none" stroke="#000" stroke-linecap="round" stroke-linejoin="round" stroke-miterlimit="10" stroke-width=".5" d="M154.49219 469.10547l5.64844-4.1836m-4.82813 3.57422l-1.10547-.52734m13.1914.42578l6.46095-2.76172m-5.51954 2.35938l-.95703-.76953m13.14063.58203l6.84375-1.58203m-5.84766 1.35156l-.8086-.92578M193.89844 466l6.72657 2.02734m-5.75-1.73437l-.23828-1.20313m12.89453.16797l6.08594 3.51172m-6.08594-3.51172l.08594-2.45312m13.51953 2.02734l5.50781 4.36328m-5.50781-4.36328l.44531-2.41406m12.91406 2.35937l5.41797 4.47266m-5.41797-4.47266l.48828-2.40234m13.37891 1.86328l4.3125 5.55078m-4.3125-5.55078L249.36718 462m-.375 3.04688l.5-1.1211m12.04688.42969l4.59375 5.3164m-4.59375-5.3164l.88281-2.28906m-.21484 3.0625l.4414-1.14454m11.97657.58594l5.05078 4.88672m-5.05078-4.88672l.67969-2.35937m.05469 3.07031l.33984-1.17969m12.39453.32032l4.7461 5.18359m-4.7461-5.1836l.82031-2.3125m12.33985 2.46485l5.05468 4.88281m-4.3203-4.17578l.33983-1.17969m11.38672 1.95703l6.76172 1.91016m-5.77734-1.63281l-.26172-1.19922m12.49219 1.39844l6.96094.95703m-5.94922-.8164l-.42188-1.15235m12.75.85156l6.91016 1.27734m-5.90235-1.08984l-.37109-1.17187m14.67969 4.8203l2.91015-6.39452m-2.48828 5.46484l-1.22265.07422m12.86328-.10156l5.41406-4.48047m-4.625 3.82812l-1.13672-.46875m13.45313.83594l5.83593-3.91016m-4.98828 3.34375l-1.08203-.58203m13.86719 1.55469l5.19922-4.72266m8.65625 5.20704l4.11719-5.69141m-3.51954 4.86328l-1.21484-.16797m13.80469.90235l4.375-5.50391m-3.73828 4.70312l-1.20704-.22265m14.52344 1.42578l3.09766-6.3086m-2.64453 5.39063l-1.22656.03906m13.1328.1914l5.00782-4.93358m-4.27734 4.21484l-1.17188-.36719m15.0586 1.92188l2.40234-6.60547m-2.40235 6.60547l-2.42968.33984"/><g clip-path="url(#I)"><path fill="none" stroke="#000" stroke-linecap="round" stroke-linejoin="round" stroke-miterlimit="10" stroke-width=".5" d="M141.08594 455.66016l5.82812-3.92188"/></g><path fill="none" stroke="#000" stroke-linecap="round" stroke-linejoin="round" stroke-miterlimit="10" stroke-width=".5" d="M154.33594 455.5625l5.95703-3.72656m-5.95703 3.72656l-2.125-1.22656m14.92578-.26563l6.98828-.74219m-5.97266.63282l-.6875-1.01563m12.9922.33594l6.97655.83594m-5.96093-.71485l-.44532-1.14453m12.95313.17578l6.5586 2.52735m-5.60157-2.16016l-.14844-1.21484m12.5664.70312l6.4375 2.8164m-6.4375-2.8164l-.1875-2.44531m14.4336 1.1875l4.57813 5.33203m-4.57813-5.33203l.89453-2.28516m12.72657 2.05078l3.96484 5.80079m-3.96484-5.80079l1.14062-2.17187m12.70313 1.875l2.91015 6.39453M249.06641 450.5l1.49218-1.94531m11.58203 2.0664l3.39063 6.15625m-3.39063-6.15625l1.34375-2.05468m12.09375 1.98828l3.14454 6.28515m-3.14453-6.28515l1.42578-1.9961m12.88672 1.67578l1.14843 6.9297m-.98047-5.92188l.97266-.7461m11.51953-.08984l2.46094 6.58203m-2.10547-5.6211l.8164-.92187m13.62891-.25l-.51172 7.00781m.4375-5.98828l1.1211-.49609m12.61719-.48047l-1.21094 6.92188m1.03515-5.91407l1.16797-.3828m12.88281-.48048l-2.33203 6.6289m15.09375.14845l-1.22265-6.92188m1.04687 5.91406l-.96875.75391m16.33985-5.6875l-4.98047 4.95703m12.64062-.95312l6.32813-3.05078m-5.41016 2.60937l-.98828-.72656m14.5664 2.54687l3.96485-5.80468m8.25 4.58593l6.16797-3.36718m-5.27344 2.875l-1.02344-.67188m13.4961 1.25781l6.0625-3.55468m-6.0625 3.55468l-2.08985-1.28515m15.40235 1.28125l6.0664-3.54688m-6.0664 3.54688l-2.08985-1.28907m15.41797 1.3086l6.04297-3.58594m-6.04297 3.58594l-2.09765-1.27344m16.33203 2.29688l4.19922-5.63282m-4.19922 5.63282l-2.42578-.3711"/><g clip-path="url(#J)"><path fill="none" stroke="#000" stroke-linecap="round" stroke-linejoin="round" stroke-miterlimit="10" stroke-width=".5" d="M140.92188 442.07813l6.15625-3.38672"/></g><path fill="none" stroke="#000" stroke-linecap="round" stroke-linejoin="round" stroke-miterlimit="10" stroke-width=".5" d="M154.16016 441.9336l6.30859-3.09766m-5.39063 2.64453l-.99218-.71875m13.10937-1.11719l6.8711 1.47656m-5.8711-1.26172l-.33594-1.17968m12.60157 1.25781l6.96875.89453m-5.95703-.76562l-.4336-1.14844m13.08594-.11719l6.27344 3.16797m-5.36328-2.70703l-.02344-1.22656m14.47266-.9922l2.17968 6.6797m-1.85937-5.70704l.85156-.8828m13.26953-.26173l-.07031 7.02735m.0586-6.00782l1.08984-.5625m12.87109-.39453l-1.33984 6.89844m1.14453-5.89453l1.17187-.35938m11.54297-.70703l.2539 7.02344m-.21874-6l1.0625-.61328m12.21875-.41016l.25 7.02344m-.21485-6l1.0625-.61328m11.94141-.38672l.80078 6.98047m-.6836-5.96484l1.00782-.69922m14.48047.21094l-3.77734 5.92578m3.22656-5.06641l1.22265.09766m11.3711-1.45313l-1.23438 6.91797m1.05469-5.91406l1.16797-.375m12.91016-.47266l-2.40235 6.60156m2.05469-5.64062l1.21484-.17188m14.66016 1.6875l-6.82813 1.65235m18.83985-3.63672l-4.21875 5.6211m3.60156-4.8047l1.21484.1875m13.88282.53516l-6.55078 2.53906m5.59765-2.16796l.92969.80078m11.61719-3.0547l-3.10938 6.3047m2.65625-5.38672l1.22656-.03516m8.77735 5.0039l4.41797-5.46484m8.32422 4.875l5.5664-4.28906m-4.75781 3.66797l-1.11719-.50781m14.22266 1.73828l4.36719-5.50781m-3.73047 4.70703l-1.20703-.22266m14.57812 1.45313l2.98047-6.36328m8.85937 5.0625l5.9336-3.76563m-5.07031 3.21875l-1.06641-.60547m14.85156 2.38281l3.26563-6.22265m-2.78907 5.3164l-1.22656.00782m12.48828-.78516l6.41797-2.85937m-5.48437 2.4453l-.96485-.7578"/><g clip-path="url(#K)"><path fill="none" stroke="#000" stroke-linecap="round" stroke-linejoin="round" stroke-miterlimit="10" stroke-width=".5" d="M140.53516 427.64063l6.92968-1.14454"/></g><path fill="none" stroke="#000" stroke-linecap="round" stroke-linejoin="round" stroke-miterlimit="10" stroke-width=".5" d="M154.25781 428.80078l6.11328-3.46484m-5.22265 2.96094l-1.03516-.65625m14.01172 1.89062l5.01172-4.92578m-4.28516 4.20703l-1.16797-.36719m13.15235-3.01172l6.21875 3.27344m-5.3125-2.80078l-.00781-1.22656m15.72656-1.11719l-.40235 7.01563m.34375-5.9961l1.11328-.51172m9.34766.76172l5.42188 4.47266m12.03906-5.4414l-2.86719 6.41405m2.44922-5.48437l1.22656-.08203m12.0039-1.03125l-1.86327 6.77734m1.58984-5.78906l1.19922-.26953m13.04688-.46485l-3.17579 6.26954m2.71485-5.35547l1.22656-.02735m12.41406-.94922l-2.90625 6.39454m2.48438-5.46485l1.22265-.07812m14.33594 1.07422l-6.55078 2.54296m5.59766-2.17187l.92968.80078m12.4375-2.48828l-4.75 5.17578m4.0586-4.42187l1.1875.30468m12.82031-1.0625l-4.75 5.1836m4.0586-4.4297l1.1875.3086m13.30859-.5l-5.73047 4.0625m4.89844-3.47265l1.09765.55078m12.5664-1.69531l-4.76562 5.16796m4.07422-4.41406l1.1836.3086m12.9414-.94532l-5.0039 4.9336M345.5 425.3203l1.17188.36719m13.8164.71094l-6.89453 1.34375m5.89063-1.14844l.77343.95313m12.59375-2.95313l-4.98828 4.94922m14.91016.92187l1.79297-6.79296m-1.53125 5.80468l-1.19532.28125m12.61329-.2539l5.0664-4.8711m-4.32812 4.16407l-1.16797-.38282m14.27344 1.53907l4.0078-5.76954m-4.0078 5.76954l-2.4375-.28907m14.6875-.88672l6.14062-3.41406m-5.25 2.91406l-1.02734-.66406m16.37109-4.05469l.30078 7.01954m-.25781-6l1.0586-.6211m10.04296.47266l4.64063 5.27734m7.55468-3.34375l6.88282 1.41016m-5.88282-1.20703l-.34765-1.17578"/><g clip-path="url(#L)"><path fill="none" stroke="#000" stroke-linecap="round" stroke-linejoin="round" stroke-miterlimit="10" stroke-width=".5" d="M147.1914 412.28516l-6.3828 2.9375"/></g><path fill="none" stroke="#000" stroke-linecap="round" stroke-linejoin="round" stroke-miterlimit="10" stroke-width=".5" d="M146.26172 412.71094l.97656.7461m13.58594.125l-7.01953.34374m20.33594-.03906l-7.02344-.26563m19.5664 2.33204l-5.47656-4.40235m4.67969 3.76172l-.23047 1.20703m12.61328.59766l-2.01953-6.73047m12.51172.35937l3.6289 6.01563m-3.10156-5.14063l.6289-1.05468m16.94923 1.3203l-5.95313 3.73438m19.53516-3.22265l-6.48438 2.70703m6.48438-2.70703l1.89453 1.55469m11.34375-1.72266l-6.33203 3.04687m5.41016-2.60546l.98828.73046m13.27343-1.11718l-6.3828 2.9375m6.3828-2.9375l1.95313 1.48437m11.66797-.35937l-6.9961.6875m6.9961-.6875l1.35937 2.04297m11.36719-3.67188l-5.8164 3.94531m5.8164-3.94531l2.16797 1.14453m11.32812-.84375l-6.17968 3.34375m6.17968-3.34375l2.04297 1.35938m10.45313-2.3711l-4.54297 5.36328m4.54297-5.36328l2.39844.52344m10.76953-.64062l-4.2461 5.60156m3.6289-4.78516l1.21095.19531m13.21875-.55078l-5.2422 4.67969m4.47657-4l1.15235.42188m11.48828-2.07032l-2.36329 6.61719m2.01954-5.65625l1.21484-.17578m12.66016-.69922l-2.79688 6.44531m2.79688-6.44531l2.4453-.19531m12.83204 2.38281l-6.71875 2.0664m5.73828-1.76562l.8711.86719m6.86328-1.57813l6.40234 2.89063m-5.47266-2.46875l-.07812-1.22656m12.2461 1.43359l6.83593 1.6289m-5.83984-1.39062l-.3086-1.1875m16.23828-1.74219l-.3828 7.01563m.32812-5.9961l1.11328-.51562m12.04297-.51172l.04296 7.02735m-.04296-7.02735l2.16015-1.16406m9.91406 1.40234l2.52344 6.55469m-2.52344-6.55469l1.60547-1.85547m10.19922 2.97266l5.54688 4.3164m-5.54688-4.3164l.42188-2.41406"/><g clip-path="url(#M)"><path fill="none" stroke="#000" stroke-linecap="round" stroke-linejoin="round" stroke-miterlimit="10" stroke-width=".5" d="M146.36719 397.84375l-4.73438 5.1914"/></g><path fill="none" stroke="#000" stroke-linecap="round" stroke-linejoin="round" stroke-miterlimit="10" stroke-width=".5" d="M145.67969 398.59766l1.1875.30468m13.96094 1.53516h-7.02735m6.0039 0l.57813 1.08594m12.58985 1.53125l-4.6875-5.23438m4.0078 4.47266l-.42187 1.15234m14.85157-.85156l-5.5547-4.3086m4.7461 3.6797l-.21094 1.21093m13.69532-5.52734l-4.27344 5.57812m13.9961-5.98828l2.91015 6.39844m-2.48828-5.46485l.75-.97265m11.9961.11328l3.20312 6.2539m-2.73828-5.34374l.69922-1.00782m17.02343 4.5l-6.54297-2.55468m6.54297 2.55468l.28906 2.4375m13.22657-4.2539l-6.94531 1.07812m6.9453-1.07812l1.46876 1.96484m11.88281-1.2539l-7.01953-.33985m6 .28906l.52344 1.10938m13.8164-1.33985l-7.02344.21875m7.02344-.21875l1.21875 2.13282m-2.24219-2.10156l.60938 1.0664m13.05078-3.0664l-5.66797 4.15625m5.66797-4.15625l2.20703 1.0664m10.21094-1.91797l-3.875 5.86328m3.875-5.86328l2.4414.23438m9.72266-.72656l-1.57422 6.84765m1.57422-6.84765l2.3711-.64063m-2.60157 1.63672l1.1875-.32031m10.71875-.66016l1.70313 6.8164m-1.70313-6.8164l1.82422-1.64453m11.14844 1.7461l2.38672 6.60937m-2.03906-5.64844l.82421-.90625m12.91407-.23828l.84765 6.97656m-.72656-5.96094l1.00781-.70312m11.46875-.14844l2.28125 6.64844m-1.94922-5.67969l.83985-.89453m11.59375.17188l3.3789 6.16015m-2.88671-5.26562l.67187-1.02735m11.6211.48828l4.4414 5.44922m-3.79297-4.65625l.47266-1.13281m15.4375 3.0625l-.01953-.19922-.0586-.1914-.09375-.17579-.46093-.3789-.19141-.05469-.19922-.02344-.19922.02344-.1914.05469-.45704.3789-.09765.17579-.0586.1914-.01953.19922.01953.19922.0586.1914.09765.1797.45704.375.1914.05859.19922.01953.19922-.01953.1914-.0586.46094-.375.09375-.17969.0586-.1914.01953-.19922m12.39844-3.51172l-.21094 7.02344m.17969-6l1.10156-.54297m12.24219-.48047l-.20704 7.02344m.20704-7.02344l2.19921-1.08984m10.26172 1.17187l1.5 6.86328m-1.5-6.86328l1.8711-1.58984m-1.65235 2.58594l.9336-.79297m11.09765.21875l3.62891 6.01562m-3.6289-6.01562l1.26171-2.10547m-.73437 2.98047l.63281-1.05078"/><g clip-path="url(#N)"><path fill="none" stroke="#000" stroke-linecap="round" stroke-linejoin="round" stroke-miterlimit="10" stroke-width=".5" d="M142.8125 383.8164l2.375 6.61329"/></g><path fill="none" stroke="#000" stroke-linecap="round" stroke-linejoin="round" stroke-miterlimit="10" stroke-width=".5" d="M158.88672 390.26563l-3.14453-6.28516m15.78515 6.53906l-1.79297-6.79297m1.53125 5.80469l-.89843.83594m11.97656-6.3711l3.20313 6.25391m10.14062-6.26953l3.14453 6.28515m13.22266-6.32812l-2.95703 6.3711m2.95703-6.3711l2.44922-.13281m-2.87891 1.0586l1.22266-.06642m12.53125-.85546l-2.97657 6.36328m17.32813-.73828l-5.05078-4.88672m5.05078 4.88672l-.67578 2.35937m-.0586-3.07031l-.33984 1.17969m15.03906-1.40625l-6.34765-3.01172m6.34765 3.01172l.10938 2.45312m-1.03516-2.89062l.0586 1.22656m14.38671-3.26172l-6.7578 1.9375m6.7578-1.9375l1.70313 1.76172m-2.6875-1.48047l.85156.88281m13.47656-1.05469l-6.8164 1.71485m6.8164-1.71485l1.64453 1.82032m10.65625-3.53516l-4.78906 5.14453m4.09375-4.39453l1.1836.3164m11.9453-1.66406l-3.02343 6.34375m2.58203-5.42187l1.22656-.05469m12.04688-1.0586l-2.0586 6.72267m2.0586-6.72266l2.40625-.46485m-2.70703 1.44532l1.20703-.23438m12.75781-.61719l-2.75781 6.46485m2.75781-6.46485l2.44531-.20703m-2.84375 1.14844l1.22266-.10547m12.32422-.90234l-2.42188 6.59765m2.42188-6.59765l2.42969-.33594m10.26172.17188l-1.17579 6.92578m1.00391-5.91797l1.16406-.38672m13.5625-.15625l-3.65625 6m3.125-5.1289l1.22657.0703m12.7539-.85937l-3.92187 5.83203m3.92187-5.83203l2.4375.2539m11.65625.46485l-5.48047 4.39453m5.48047-4.39453l2.2539.96875m11.25392-.70703l-5.86329 3.875m5.00782-3.3125l1.07812.58594m11.17578-2.57422l-2.03515 6.72265m1.74218-5.74609l1.20313-.23828m9.28125-.1875l4.21484 5.6211m-3.60156-4.8047l.51953-1.10937m13.66406-.35547l1.25 6.91797m-1.25-6.91797l1.92579-1.51562m12.23437 1.46875l-.4375 7.01172m.4375-7.01172l2.23438-1.01563m-2.29688 2.03516l1.11719-.50781"/><g clip-path="url(#O)"><path fill="none" stroke="#000" stroke-linecap="round" stroke-linejoin="round" stroke-miterlimit="10" stroke-width=".5" d="M140.63281 374.8164l6.73438-2.01562"/></g><path fill="none" stroke="#000" stroke-linecap="round" stroke-linejoin="round" stroke-miterlimit="10" stroke-width=".5" d="M154.92969 376.38672l4.77344-5.15625m-4.08204 4.40625l-1.18359-.3125m14.59375 1.61328l3.19531-6.25781m-2.73047 5.34765l-1.22656.01954m18.30078.09765l-5.25-4.67187m4.48438 3.99218l-.28906 1.19141m15.15234-3.69922l-6.8164 1.70313m5.82421-1.45704l.82422.91407m11.19531-3.64063l-2.23828 6.66406m2.23828-6.66406l2.41797-.40234m12.72656 5.64453l-5.89843-3.82031m5.03906 3.26172l-.10156 1.22265m13.54297.15235l-4.4336-5.45313m4.4336 5.45313l-.95313 2.2578m15.26172-3.55858l-6.42188-2.85157m6.42188 2.85156l.17578 2.44532m12.88281-5.77344l-5.90625 3.80469m5.90625-3.80469l2.14063 1.19531m11.5664-.3711l-6.6875 2.15626m6.6875-2.15625l1.76172 1.70703m10.79297-3.00781l-5.17187 4.75781m5.17187-4.75781l2.3164.8164m-3.0664-.125l1.15625.40625m11.22266-2.11718l-1.79688 6.79296m1.79688-6.79296l2.39062-.5586m8.75.6836l2.55469 6.54687m-2.55469-6.54687l1.59766-1.85938m11.69922 1.86719l2.58984 6.53125m-2.21484-5.58203l.79687-.9336m11.59375.25782l3.6875 5.98437m-3.15234-5.11328l.6211-1.0586m13.28124-.26171l1.4414 6.8789m-1.23046-5.875l.9414-.78515m10.19532.96094l5.3789 4.52343m-4.59765-3.86719l.25781-1.19921m12.26172.55859l5.40234 4.49219m-4.61328-3.83985l.25-1.19921m15.0586-.71875l-.16016 7.02343m.16016-7.02344l2.1914-1.10546m12.78906 1.5664l-3.49218 6.09766m3.49218-6.09766l2.45313.07813m11.73437.6289L421 376.15234m5.23437-4.6875l2.30079.84375m10.08203-1.58203l-3.3711 6.16406m2.87891-5.26953l1.22656.01563m11.19531-1.32813l-.60156 7m.60156-7l2.25782-.96093m11.0664.96093l-.62109 7m.6211-7l2.26171-.95703"/><g clip-path="url(#P)"><path fill="none" stroke="#000" stroke-linecap="round" stroke-linejoin="round" stroke-miterlimit="10" stroke-width=".5" d="M140.4961 360.74219l7.0078-.4961"/></g><path fill="none" stroke="#000" stroke-linecap="round" stroke-linejoin="round" stroke-miterlimit="10" stroke-width=".5" d="M154.72266 362.86328l5.18359-4.74219m-5.1836 4.7422l-2.3125-.82032m3.06641.13281l-1.15625-.41015m13.9961 1.37109l4.6289-5.28516m-4.6289 5.28516l-2.39063-.5625m18.59766 1.38281l-1.15625-6.92969m.98828 5.92188l-.97266.7461m14.0664.30468l-.3789-7.01563m.32422 5.9961l-1.05078.63281m17.27734-4.8711l-6.08984 3.50391m5.20313-2.99609l1.03906.65234m12.59375 3.08204L221.41406 358m4.95313 4.98438l-.72266 2.34375m.0039-3.07032l-.36327 1.17578m14.8828-1.05468l-5.92577-3.77344m5.92578 3.77344l-.1914 2.44921m14.05468-4.23828l-7.02344-.1953m7.02344.1953l1.09375 2.19922m12.14063-3.05469l-6.85938 1.51563m6.85938-1.51563l1.59375 1.8672m-2.58985-1.64454l.79297.9336m12.38672-3.0547l-4.59766 5.3125m4.59766-5.3125l2.39453.55079m-3.0625.22265l1.19531.27344m10.28516-1.89844L290.67187 364m-.41015-7.01563l2.09375-1.27343m-2.03516 2.29687l1.04688-.64062m11.5625-.28125l1.70312 6.8164m-1.70312-6.8164l1.82031-1.64453m-1.57422 2.63671l.91016-.82421m12.0625-.14454l1.89453 6.76954m-1.89453-6.76954l1.77734-1.6914m11.35156 1.75l2.26953 6.65234m-2.26953-6.65234l1.67578-1.78906m10.9336 2.12109l3.67969 5.98828m-3.14454-5.11719l.6211-1.05859m14.21875-.32422L356.82032 364m.3789-5.99219l1.11719-.50781m14.01953 5.89844l-3.95703-5.8086m17.16406 5.875l-3.74219-5.9453m13.01172.21483l4.34766 5.51954m-3.71485-4.71875l.4961-1.1211m12.5078.09375l3.70313 5.97266m-3.16406-5.10547l.61719-1.0586m14.69922-.26952l-1.3789 6.89062m1.17968-5.88672l1.17578-.35156m12.07812-.69531l-.85546 6.97656m.73046-5.96094l1.14454-.4375m10.21484-.1875l3.3086 6.19922m-3.3086-6.19922l1.36719-2.03906m12.91015 1.6914l1.37891 6.89063m-1.3789-6.89063l1.89843-1.55468"/><g clip-path="url(#Q)"><path fill="none" stroke="#000" stroke-linecap="round" stroke-linejoin="round" stroke-miterlimit="10" stroke-width=".5" d="M141.0625 345.25l5.875 3.85547"/></g><path fill="none" stroke="#000" stroke-linecap="round" stroke-linejoin="round" stroke-miterlimit="10" stroke-width=".5" d="M154.13281 348.67188l6.36328-2.98438m-6.36328 2.98438l-1.96094-1.47266m16.3711 2.80469l4.17578-5.65235m-4.17578 5.65235l-2.42578-.35938m3.03125-.46094L167.9375 349m15.79688 1.6836l.42187-7.01173m-.42188 7.01172L181.5 351.70313m15.64844-1.01172l.22656-7.02344m-.22656 7.02344l-2.20313 1.08203m18.79688-6.1211l-6.33203 3.05079m6.33203-3.05079l1.97656 1.45313m10.39844 2.78906l-4.45313-5.4336m4.45313 5.4336l-.94531 2.26563m.29687-3.0547l-.94531 2.26173m15.71875-2.41797l-6.07031-3.54297m6.0703 3.54297l-.09765 2.44922m-.78516-2.96485l-.05078 1.22657m14.55078-1.38672l-6.67578-2.1914m6.67578 2.1914l.41797 2.41797m11.875-6.15625l-4.6328 5.28515m4.6328-5.28515l2.38672.5625m8.67578-1.4336l-.1289 7.02735m.1289-7.02735l2.1875-1.10937m-2.20703 2.13281l1.09375-.55469m13.21875-.3086l-2.08594 6.70704m2.08594-6.70703l2.41406-.45703m11.30079.60547l-2.88672 6.41015m2.88672-6.41015l2.44921-.16016m11.16797.3164l-3.48828 6.09766m3.48828-6.09765l2.45313.07421m10.28125-.33984l-2.32813 6.6289m2.32813-6.6289l2.42578-.3711m10.9414.39063l-2.42968 6.59375m2.07422-5.63672l1.21875-.16406m13.57031-.125l-4.66797 5.2539m3.98828-4.48827l1.1914.28906m13.73048 2.8789l-6.52344-2.61328m6.52344 2.61329l.26172 2.4414m13.30468-3.875l-7.02343.2539m7.02343-.2539l1.23047 2.1211m9.73438-5.3086l-2.32422 6.6289m1.98828-5.66406l1.21094-.1875m8.53515.34375l5.48828 4.38672m-5.48828-4.38671l.45313-2.41407m13.4375 1.83985l4.33203 5.53515m-4.33203-5.53515l.9961-2.2422M435 344.2422l3.86328 5.8711M435 344.24218l1.17578-2.15235m11.99219 2.25391l4.15625 5.66797m-4.15625-5.66797l1.0664-2.21094m11.35547 3.17188l5.94532 3.7461m-5.94532-3.7461l.1797-2.44531"/><g clip-path="url(#R)"><path fill="none" stroke="#000" stroke-linecap="round" stroke-linejoin="round" stroke-miterlimit="10" stroke-width=".5" d="M142.1211 330.89453l3.7578 5.9375"/></g><path fill="none" stroke="#000" stroke-linecap="round" stroke-linejoin="round" stroke-miterlimit="10" stroke-width=".5" d="M153.86719 333.1875l6.89453 1.35156m8.86719 2.6914l2-6.73437m-2 6.73438l-2.40235.48828m16.80078-.34375l-.16406-7.02344m.16406 7.02344l-2.14062 1.20313m2.11719-2.22266l-1.07032.59765m16.46485-.30078l-4.27735-5.57812m4.27735 5.57812l-1.01953 2.23047m15.70703-4.84765l-7.01953-.34375m7.01953.34375l1.04297 2.21875m-2.06641-2.26954l1.04688 2.21875m12.62109-.27343l-5.67969-4.13281m5.67969 4.1328l-.33984 2.4297m-.48438-3.03125l-.34375 2.42968m14.95313-2.72265l-6.6211-2.34375m6.6211 2.34375l.36328 2.42578m-1.32422-2.76563l.17969 1.21094m14.23437-2.71094l-6.89844 1.33594m6.89844-1.33594l1.54297 1.90625m10.1875-4.21875l-3.72656 5.96094m3.72656-5.96094l2.44531.17188m-2.98828.69531l1.22266.08594m12.39453-1.08985l-3.24219 6.23438m3.24219-6.23438l2.45312-.02343m-2.92578.92968l1.22656-.01171m12.83594-.73438l-3.79687 5.91406m3.79687-5.91406l2.44531.19922m11.41407.23437l-4.88672 5.04688m4.88672-5.04688l2.35937.67579m11.02735-.60938l-5.02735 4.91406m5.02735-4.91406l2.33593.74219m10.9375-.78125l-4.94531 4.99219m4.94531-4.9922l2.35157.70704m11.0078-.66406l-5.03124 4.90625m5.03125-4.90625l2.33594.75m11.84765.76562l-6.76953 1.875m6.76953-1.875l1.6914 1.77735m11.60938.14453l-6.74218-1.97266m6.74218 1.97266l.5 2.40625m-1.48047-2.69141l.25 1.20313m13.73829-3.625l-6.125 3.4453m6.125-3.4453l2.0664 1.32421m-2.95703-.82421l1.03125.66406m12.47656-2.03906l-4.73047 5.1953m4.73047-5.1953l2.3789.60937m10.16407-1.14453l-3.1875 6.26562m3.1875-6.26562l2.45313-.04297m8.40234-.23047l1.73438 6.8125m-1.73438-6.8125l1.8125-1.64844m10.14453 2.33594l4.44922 5.4375m-4.44922-5.4375l.94531-2.26562m-.29687 3.05468l.47266-1.1289m11.48437 1.125l5.86719 3.86719m-5.86719-3.8672l.23047-2.4453m.625 3.0078l.11328-1.22265m11.92188 1.55469l6.71484 2.07812m-6.71484-2.07812l-.45704-2.41016m1.4375 2.71485l-.23046-1.20704"/><g clip-path="url(#S)"><path fill="none" stroke="#000" stroke-linecap="round" stroke-linejoin="round" stroke-miterlimit="10" stroke-width=".5" d="M145.96875 317.63672l-3.9375 5.82031"/></g><path fill="none" stroke="#000" stroke-linecap="round" stroke-linejoin="round" stroke-miterlimit="10" stroke-width=".5" d="M145.39453 318.48438l1.22266.1289m14.17969 2.40235l-6.96485-.9336m5.95313.79688l.42578 1.15234m11.92969 1.6914l-3.01954-6.34765m3.01953 6.34766l-1.46484 1.96875m1.02344-2.89454l-.73047.98438m14.60938-.1211l-3.26563-6.22265m3.26563 6.22266l-1.38282 2.02734m.90625-2.9336l-.6914 1.01173m15.58203-1.00782l-5.46094-4.42187m5.46094 4.42187l-.46875 2.41016m-.32813-3.05078l-.46875 2.40625m15.35547-3.78516l-7.01562-.38281m7.01562.38281l1.03516 2.22656m-2.05469-2.28125l1.03125 2.22657m13.2461-1.69532l-6.89844-1.33203m6.89843 1.33203l.71875 2.34375m-1.72265-2.53906l.71875 2.34766m13.61719-3.39063l-6.9336 1.14453m6.9336-1.14453l1.48828 1.94922m-2.4961-1.78515l1.48828 1.95312m12.47266-3.1914l-6.21094 3.28906m6.21094-3.28907l2.03125 1.37891m-2.9336-.89844l1.01563.6875m12.75-1.82812l-5.30469 4.60937m5.3047-4.60937l2.28905.8789m-3.0625-.20703l1.14454.4375m12.89843-1.16015l-5.21484 4.71093m5.21484-4.71093l2.3086.83593M279 318.87891l1.15234.41796m12.6797-1.34375l-4.73438 5.19141m4.73437-5.1914l2.3789.60546m-3.0664.14844l1.1875.30469m12.71484-1.14844l-4.53125 5.3711m4.53125-5.3711l2.39844.51563m11.41406 0l-5.52734 4.33593m5.52734-4.33593l2.2461.99609m11.66797.15234l-6.72266 2.04297m6.72266-2.04297l1.73047 1.73438m11.45703-2.08594l-6.46875 2.74219m6.46875-2.74219l1.90625 1.54688m11.49218-1.32813l-6.63671 2.30469m6.63671-2.30469l1.80079 1.67188m11.70703-.60547l-7.02344.17578m7.02344-.17578l1.20703 2.13672m11.8711-3.32422l-6.54688 2.55078m6.54687-2.55078l1.85938 1.59765m-2.8125-1.22656l.92968.80078m13.19141-1.5l-6.2539 3.20703m6.2539-3.20703l2.01172 1.40235m-2.92188-.9375l1.00782.70312m12.29297-2.30078l-4.40625 5.47266m4.40625-5.47266l2.41015.46094m-3.05078.33594l1.20703.23046m10.77344-1.79687l-.45313 7.01172m.45313-7.01172l2.23437-1.01172m-2.30078 2.03125l2.23438-1.01172m9.21875.42188l3.40234 6.14843m-3.40234-6.14843l1.33594-2.0547m17.18359 4.8672l-7.00781.52734m7.00781-.52734l1.3125 2.07421m-2.33203-2l.65625 1.03907m12.9961-2.94531l-5.64063 4.1914"/><g clip-path="url(#T)"><path fill="none" stroke="#000" stroke-linecap="round" stroke-linejoin="round" stroke-miterlimit="10" stroke-width=".5" d="M466.38281 318.45313l2.21485 1.05078"/></g><g clip-path="url(#U)"><path fill="none" stroke="#000" stroke-linecap="round" stroke-linejoin="round" stroke-miterlimit="10" stroke-width=".5" d="M465.5625 319.0625l2.21484 1.05078"/></g><path fill="#00f" fill-rule="evenodd" d="M401.55469 467.64844h8.61719V457.5039h-8.6172v10.14453"/><path fill="azure" fill-rule="evenodd" d="M403.38672 459.33594h.83203v2.82422h3.28906v-2.82422h.83203v6.48047h-.83203v-2.91797h-3.28906v2.91797h-.83203v-6.48047"/><path fill="#ff3030" fill-rule="evenodd" d="M198.08203 441.01953h7.69531V430.8711h-7.6953v10.14844"/><path fill="azure" fill-rule="evenodd" d="M199.91797 432.70703h.83203v5.73828h3.19531v.73828h-4.02734v-6.47656"/><path fill="#00f" fill-rule="evenodd" d="M388.23828 436.57813h8.61719v-10.14454h-8.61719v10.14454"/><path fill="azure" fill-rule="evenodd" d="M390.07031 428.26563h.83594v2.82421h3.28516v-2.82421h.83203v6.48046h-.83203v-2.91406h-3.28516v2.91406h-.83594v-6.48046"/><path fill="#ff3030" fill-rule="evenodd" d="M317.91797 432.14063h7.69531v-10.14454h-7.69531v10.14454"/><path fill="azure" fill-rule="evenodd" d="M319.7539 423.82813h.83204v5.73828h3.1914v.74218h-4.02343v-6.48046"/><path fill="#00f" fill-rule="evenodd" d="M224.01953 414.38672h8.61719v-10.14453h-8.61719v10.14453"/><path fill="azure" fill-rule="evenodd" d="M225.85156 406.07422h.83594v2.82422h3.28516v-2.82422h.83203v6.48047h-.83203v-2.91406h-3.28516v2.91406h-.83594v-6.48047"/><path fill="#ff3030" fill-rule="evenodd" d="M335.67188 378.88281h7.6953v-10.14844h-7.6953v10.14844"/><path fill="azure" fill-rule="evenodd" d="M337.5039 370.5664h.83594v5.7422h3.19141v.73827h-4.02734v-6.48046"/><path fill="#ff3030" fill-rule="evenodd" d="M211.39844 361.1289h7.6914v-10.14843h-7.6914v10.14844"/><path fill="azure" fill-rule="evenodd" d="M213.23047 352.8164h.83594v5.73829h3.1914v.73828h-4.02734v-6.47656"/><path fill="#ffffe0" fill-rule="evenodd" d="M421.17969 445.6875h22.17969v-10.1914h-22.1797v10.1914"/><path fill-rule="evenodd" d="M424.67969 437.32813h.50781v6.29687h-.78516v-4.49219h-1.39062v-.55469l.5625-.0664.25-.05078.23047-.08985.20312-.14062.17578-.21094.14063-.29687.10547-.39454m4.8125 0l.23047.01954.21875.05468.20703.08985.19922.1211.18359.14843.17188.17578.30078.42188.24218.49218.1797.54688.11327.57812.03516.59375-.03516.58985-.11328.58593-.17969.5547-.24218.5-.30079.42968-.17187.17969-.1836.15234-.19921.125-.20703.08984-.21875.0586-.23047.01953-.22656-.01953-.22266-.0586-.20703-.08984-.19531-.125-.1836-.15234-.17187-.1797-.30079-.42968-.24609-.5-.17969-.55469-.10937-.58593-.03906-.58985h.83203l.03125.5625.08203.5039.125.44532.16015.3711.19141.30078.21094.22265.22265.13672.22657.04688.22656-.04688.22266-.13672.21093-.22265.19141-.30079.16406-.37109.125-.44531.08203-.5039.02735-.5625-.02735-.5625-.08203-.5-.125-.4375-.16406-.36329-.1914-.29297-.21094-.21484-.22266-.13281-.22656-.04297-.22656.04297-.22266.1328-.21094.21485-.1914.29297-.16016.36328-.125.4375-.08203.5-.03125.5625h-.83203l.03906-.59375.10937-.57812.1797-.54688.24608-.49219.30079-.42187.17187-.17578.1836-.14844.1953-.1211.20704-.08984.22265-.05468.22657-.01954m5.09375 0h.50781v6.29688h-.78516v-4.49219h-1.39062v-.55469l.5586-.0664.2539-.05078.23047-.08985.20312-.14062.17188-.21094.14453-.29687.10547-.39454m2.82031 2.17579h.78906l.01953-.31641.0586-.28516.09765-.2539.14063-.21485.1836-.17578.22265-.1289.26562-.07813.3086-.02734.23828.01953.22265.0625.20313.10156.17969.14063.14844.17187.11328.20703.0703.23438.02735.26562-.02344.26953-.0664.22266-.10938.1914-.15625.17188-.19921.16406-.2461.16407-.63672.39062-.53515.3125-.4375.3164-.34766.32423-.26172.33593-.1914.35157-.125.37109-.07032.39063-.01953.42187h4.21094v-.74219h-3.33203l.08203-.28515.11328-.23438.14844-.20312.1875-.1797.23047-.17187.28125-.17578.71484-.41797.41797-.20312.34375-.23047.28125-.2539.21875-.26563.16406-.27735.11328-.28515.0625-.28516.01953-.28125-.04296-.38281-.1172-.34766-.1914-.30859-.25-.26172-.30078-.21094-.34766-.16015-.3789-.09766-.40625-.03515-.4375.03515-.39844.09766-.35156.16406-.30469.23438-.25.30468-.1875.375-.11328.44531-.04297.51954"/><path fill="#ffffe0" fill-rule="evenodd" d="M213.03125 334.33203h22.17969v-10.1914h-22.17969v10.1914"/><path fill-rule="evenodd" d="M216.53125 325.97266h.50781v6.29687h-.78515v-4.48828h-1.39063v-.5586l.5625-.0625.25-.05468.23047-.08985.20313-.14062.17578-.21094.14062-.29297.10547-.39843m4.8125 0l.23047.01953.21875.0586.20703.08593.19922.1211.1836.15234.17187.17578.30078.41797.24219.49218.17968.54688.11328.58203.03516.58984-.03516.59375-.11328.58204-.17968.55468-.2422.5039-.30077.42579-.17188.17969-.1836.15234-.19921.125-.20703.08985-.21875.05859-.23047.01953-.22656-.01953-.22266-.0586-.20703-.08984-.19531-.125-.1836-.15234-.17187-.17969-.30078-.42578-.2461-.5039-.17968-.5547-.10938-.58203-.03906-.59375h.83203l.03125.5625.08203.50391.125.44531.16406.375.1875.30078.21094.21875.22266.13672.22656.04688.22656-.04688.22266-.13672.21094-.21875.1914-.30078.16406-.375.125-.44531.08204-.5039.02734-.5625-.02734-.5625-.08203-.5-.125-.4336-.16407-.36719-.1914-.29297-.21094-.21484-.22266-.1289-.22656-.04688-.22656.04687-.22266.12891-.21094.21484-.1875.29297-.16406.36719-.125.4336-.08203.5-.03125.5625h-.83203l.03906-.58985.10938-.58203.17968-.54688.2461-.49218.30078-.41797.17187-.17578.1836-.15235.19531-.1211.20703-.08593.22266-.0586.22656-.01952m5.09375 0h.50781v6.29687h-.78515v-4.48828h-1.39063v-.5586l.5586-.0625.2539-.05468.23047-.08985.20313-.14062.17187-.21094.14453-.29297.10547-.39843m2.82031 2.17578h.78906l.01954-.3164.05859-.28517.09766-.2539.14062-.21485.1836-.17187.22265-.1289.26563-.08204.30859-.02734.23828.02344.22266.0625.20312.10156.17969.13672.14844.17187.11328.20703.07031.23829.02734.26171-.02343.26954-.0664.22265-.10938.19531-.15625.16797-.19922.16406-.2461.16407-.63672.39062-.53515.3125-.4375.3164-.34766.32423-.26172.33594-.1914.35156-.125.3711-.07031.39452-.01954.41797h4.21094v-.74219H230l.08203-.28125.11328-.23828.14844-.20312.1875-.17969.23047-.17188.28125-.17578.71484-.41406.41797-.20703.34375-.23047.28125-.25.21875-.26953.16406-.27734.11328-.28516.0625-.28125.01954-.28125-.04297-.38672-.11719-.34765-.1914-.3047-.25-.26562-.30079-.21094-.34765-.16015-.37891-.09766-.40625-.03515-.4375.03515-.39844.09766-.35156.16797-.30469.23437-.25.30078-.1875.375-.11328.44922-.04297.51563"/></g></defs><use xlink:href="#V"/></svg>