<svg xmlns="http://www.w3.org/2000/svg" role="img" xmlns:xlink="http://www.w3.org/1999/xlink" viewBox="142.45 309.95 326.84 171.84"><defs><clipPath id="a"><path d="M144 311.67188h1v168.65625h-1zm0 0"/></clipPath><clipPath id="b"><path d="M144 311.67188h324v168.65625H144zm0 0"/></clipPath><clipPath id="c"><path d="M467 311.67188h1v168.65625h-1zm0 0"/></clipPath><clipPath id="d"><path d="M144 479h4v1.32813h-4zm0 0"/></clipPath><clipPath id="e"><path d="M146 479h2v1.32813h-2zm0 0"/></clipPath><clipPath id="f"><path d="M153 478h8v2.32813h-8zm0 0"/></clipPath><clipPath id="g"><path d="M159 480h2v.32813h-2zm0 0"/></clipPath><clipPath id="h"><path d="M167 479h8v1.32813h-8zm0 0"/></clipPath><clipPath id="i"><path d="M180 479h8v1.32813h-8zm0 0"/></clipPath><clipPath id="j"><path d="M193 478h8v2.32813h-8zm0 0"/></clipPath><clipPath id="k"><path d="M207 477h7v3.32813h-7zm0 0"/></clipPath><clipPath id="l"><path d="M220 477h7v3.32813h-7zm0 0"/></clipPath><clipPath id="m"><path d="M233 478h8v2.32813h-8zm0 0"/></clipPath><clipPath id="n"><path d="M247 477h7v3.32813h-7zm0 0"/></clipPath><clipPath id="o"><path d="M260 478h8v2.32813h-8zm0 0"/></clipPath><clipPath id="p"><path d="M265 479h3v1.32813h-3zm0 0"/></clipPath><clipPath id="q"><path d="M273 478h8v2.32813h-8zm0 0"/></clipPath><clipPath id="r"><path d="M279 479h2v1.32813h-2zm0 0"/></clipPath><clipPath id="s"><path d="M286 480h9v.32813h-9zm0 0"/></clipPath><clipPath id="t"><path d="M292 480h2v.32813h-2zm0 0"/></clipPath><clipPath id="u"><path d="M300 479h8v1.32813h-8zm0 0"/></clipPath><clipPath id="v"><path d="M313 479h8v1.32813h-8zm0 0"/></clipPath><clipPath id="w"><path d="M319 479h2v1.32813h-2zm0 0"/></clipPath><clipPath id="x"><path d="M328 476h5v4.32813h-5zm0 0"/></clipPath><clipPath id="y"><path d="M341 477h5v3.32813h-5zm0 0"/></clipPath><clipPath id="z"><path d="M354 477h6v3.32813h-6zm0 0"/></clipPath><clipPath id="A"><path d="M367 478h7v2.32813h-7zm0 0"/></clipPath><clipPath id="B"><path d="M373 478h3v2.32813h-3zm0 0"/></clipPath><clipPath id="C"><path d="M380 478h7v2.32813h-7zm0 0"/></clipPath><clipPath id="D"><path d="M394 477h6v3.32813h-6zm0 0"/></clipPath><clipPath id="E"><path d="M406 479h9v1.32813h-9zm0 0"/></clipPath><clipPath id="F"><path d="M412 480h2v.32813h-2zm0 0"/></clipPath><clipPath id="G"><path d="M419 479h9v1.32813h-9zm0 0"/></clipPath><clipPath id="H"><path d="M425 480h2v.32813h-2zm0 0"/></clipPath><clipPath id="I"><path d="M433 478h8v2.32813h-8zm0 0"/></clipPath><clipPath id="J"><path d="M438 479h3v1.32813h-3zm0 0"/></clipPath><clipPath id="K"><path d="M447 477h6v3.32813h-6zm0 0"/></clipPath><clipPath id="L"><path d="M460 477h7v3.32813h-7zm0 0"/></clipPath><clipPath id="M"><path d="M144 465h4v4h-4zm0 0"/></clipPath><clipPath id="N"><path d="M144 453h4v2h-4zm0 0"/></clipPath><clipPath id="O"><path d="M144 439h4v2h-4zm0 0"/></clipPath><clipPath id="P"><path d="M144 425h4v4h-4zm0 0"/></clipPath><clipPath id="Q"><path d="M144 412h4v4h-4zm0 0"/></clipPath><clipPath id="R"><path d="M144 399h4v3h-4zm0 0"/></clipPath><clipPath id="S"><path d="M144 386h4v2h-4zm0 0"/></clipPath><clipPath id="T"><path d="M144 371h4v5h-4zm0 0"/></clipPath><clipPath id="U"><path d="M144 358h4v5h-4zm0 0"/></clipPath><clipPath id="V"><path d="M466 360h2v4h-2zm0 0"/></clipPath><clipPath id="W"><path d="M144 345h4v4h-4zm0 0"/></clipPath><clipPath id="X"><path d="M466 346h2v3h-2zm0 0"/></clipPath><clipPath id="Y"><path d="M144 332h4v3h-4zm0 0"/></clipPath><clipPath id="Z"><path d="M466 332h2v3h-2zm0 0"/></clipPath><clipPath id="aa"><path d="M144 319h4v3h-4zm0 0"/></clipPath><clipPath id="ab"><path d="M466 318h2v2h-2zm0 0"/></clipPath><clipPath id="ac"><path d="M465 318h3v3h-3zm0 0"/></clipPath><g id="ad" clip-path="url(#clip1)"><path fill="#fff" fill-opacity="0" fill-rule="evenodd" d="M0 0h1000v1000H0zm0 0"/><path fill="#d3d3d3" fill-opacity="0" fill-rule="evenodd" d="M162.15234 355.86719l-.23437.29297.0586.23437.11718.17188.17578.23437.29297.34766.11328.0586.11719-.17188.0586-.23438.17577-.17578.46485-.17578h.69922l.23437.29297.28906.8164.0586.17579.17578.23046.35156.23438.69922.69922.17188.17578.23437.34765.23438.41016.28906.58203.41015.46485.23047.23437.23438.17578.11719.23047.17578.29297.17187 1.16406v.23438l.0586.28906.05859.11719.11719.11719.34765.41015.11719.17188.17578.17578.17578.23437.11719.17188.17188.35156.05859.23438.23437.40625.23438-.0586-.17578.17578-.0586.92969h-.58203l-.23437-.11328-.34766.11328-.11719.11719-.05859.29297-.0586.17578-.11718.17187-.46484.29297-.0586.23438-.0586.11328v.64453l.0586.17187v.41016l.0586.0586v.40624l.05859.40625.11719.17579.05859.05859.23047.64062-.0586.29297v.69922l-.05859.58203v.23438l-.0586.23047-.05468.35156v1.92187l.05469.1172h.42578l-.36719.11718-.02344.35156.89063 1.16797 1.74219.53906 1.33984.35938v.53906l.08984.8086.53516.71484 1.51953.26953.89063-.08594.08984 1.16406.53516.1797 1.16015-.1797 2.05469-.98437 1.16016-.36328 1.8789-.17578 1.69531-.1797-.17968.71876-1.51563.08594-1.25.08984-.80469.26953-1.07421.8086.26953.71875.53515.89843-.17968.625-.26563.8086.26563 1.07812.625.89844.80468.17969 1.25-.1797-.26562.72267.09766.5039.05468.29297v.17188l.0586.29296v.40625l.17578.1172.35156.11718h.40625l.29297-.17578.11328-.11719.0586-.11719.11718-.23047.0586-.17578.35156-.46484.23047-.17578.17578-.0586.17578.0586.0586.17578.11718.98828.05469.46875.0586.17188.11718.23437.17578.0586.8164.05859h.28907l.11719.23437.05859.40625.0586.35156v1.10547l.11718.29297.11719.34766.28906.69922.17578.35156.58203.7539.35157.17579.17187.0586.46875.23437.64063.46484.34765.23438.29297.17578.29297.05468.23047.0625.8164.34766.29297.17578.11328.17188.35157.35156.11719.17578.52343.64063v.28906l.0586.35156v.34766l.05859.35156.0586.28906.11718.0586.17188.05859h.17578l.58203.23437.17578.1172.17578.28905.17578.23438.11328.23437.29297.23047.11719.11719v.41016l.0586.05468.28906.23438.23437.11719.0586.11718.11718.17188.0586.11719.23047.23437.05859.17578.23437.0586.1172.05859-.1172.11328-.05859.11719v.11719l-.11719.29296-.11719.28907v.58203l.17579.11719.11718.05859.0586.11719.11719.11719.11328.05859.17578.34765.0586.35157.05858.40625v.17578l-.05859.17578-.11719.69922v.17187l.1172.17579.29296.29296h.40625l.17578.1172.11719.17187.11719.29296v.23438h-.52735l-.23047-.23438h-.23437l-.17578.0586-.0586.69922.0586.34765.11719.17579.17578.41015.11718.23047.28907.46875.17578.05469h.52344l.23437.0586.75781.64062.0586.29296v.23438l.05859.0586.23047.34765v.35156l-.11719.17188v.29297l.29297.28906.29297.17578.17187.0586.29297.17577.29297.1172.58203.40624.28906.23438.29297.17578.21875.16015.01563.01172.23047.17579.64062.52343.17578.23438.1172.17578.17577.17578.11328.17188v.64062l.1172.17578.46874.11719.58203.11719.23438.05859.23047.11328.29297.11719.11328.0586.58593.35156.28907.17187.17578.0625.17578.05469.17578.0586.69922.35155.28906.17579.23438.05468.28906.17578.23437.1172.64063.40624.29297.11719.17187.0586.23438.05859.41015.05859.23047.0586.23438.11718.0586.17188-.41017.17578.46875.0586.0586.29296.11328.23438.17578.05468.23438.0586.17578.05859.40625.11719.64062.23437.11719.17188.0586.23437v.17578l-.0586.1172-.0586.40624.23438.23438.11719.05859.34766.11719.64062.23047.17578.11718.28906.1172.17578.17577.23438.46485.58203 1.10546.17578.17579.34766.17578.17578.11719.35156.11718 1.04688.52344.23437.0586.46485.11327.29297.0586.46484.17578.75781.58203.23438.23438.34765.46484.17578.17578.28907.23438.8164.69921.29297.17579.28906.28906.29297.17578.29297.28906.69531.64063.17578.17578.29297.23437.28907.23438.46875.28906.64062.58203.34766.23438.23437.29297.34766.34765.35156.46485.9336.99218.34765.40625.11719.17579.23437.05859.11328.11719.64454.17578.23047.11328.23437.0586.29297.17577.23047.1172.9336.69921.40624.40625.23438.17578.40625.17578.23437.11719.8164.34766.34766.23437.23438.11719.29297.28906.23047.11719.7578.35156.35157.17188.23047.05859.29297.11719.23437.0586.8711.17577h.8164l.46875.23047.17188.0586.875.69921.46484.1172.29297.05858.17578.0586.23047.0586.46875.05859.34766.05859.35156.0586.40625.05859h.29297l.17187.0586v.23046l.17578.17578h.29297l.34766.0586.35156.05859.69922.11719h.64063l.46484-.23438.29297-.17578.17187-.11719.41016-.17187.28906-.17578.9336-.46485.46875-.29297.52343-.29296.46485-.17188.46484-.17578 1.05078-.46485.28906-.11718.41016-.11719.28906-.11719.52735-.17578 1.51562-.69922.58203-.34765.28907-.0586.29297-.0586.34765-.11718.875-.23047.35156-.11719h.11329l.23437-.05859.875-.23437.23438-.0586h.8125l.35156-.0586.8164-.11718.17188-.0586.35156-.05468.29297-.0586.23047-.05859.8164-.17578.17579-.0586h.34765l.23438-.05859.46484-.11718.75781-.17188.23438-.0586h.34765l.41016-.11718.28906-.0586 1.28516-.05859h.28906l.41016-.0586.23047-.05858h.17578l.875-.1172h.40625l.41015-.11718h.34766l.35156-.11328.8711-.0586h1.75l1.04687.28907.41016.11719.28906.11718.35156.11719.28907.11719 1.05078.17187.28906.0586h.29297l.29297.05859.17187.0586.41016.05859.17187.0586.1172.05858h.11718l.11719.0586.35156.0586h.11328l.41016.0664 1.92187.39453 1.92578.39453 1.51953.44922 1.69532.71875 2.14453.80469 1.60547-.71875 1.42968-.80469 1.16016-1.07813 1.25-.44921 3.03516-.71875 1.875-.35938 2.14453-1.34765 2.23437-1.25391 2.5-1.25781 1.69531-.44922 1.78516-.17969 1.16016-.26953.625.53906 1.33984-.26953.71485-.98828.98437-1.34375.44531-.17969.80469-.35937 1.875-.53907 1.78516-.44921 1.25-.26954 1.16015-.08984 1.69922-.08984 1.96094-.26954 1.25-.08984h.53906l.625-.08984h.89063l2.14453-.17969 2.41015-.17969 2.58985-.08984 1.69531.17969 1.60938.08984 1.42968.35938 1.16016.71875 1.875.98828 1.16015 1.52734.26563.71484.6289.08985.35548.89844.53515.53906.53516 1.52734 1.07422.35938h.53515l-.80469.53515.08985 1.70703.71484 2.69532.89063.80468.89453.98829.71484 1.2578 1.78516.53907 1.51953-.17969.35547 1.34375 1.60937-.80469.98047-.53906.26953.26953.31641-.21484.21875-.14453.80078.44922.44922-.35938h.35547l.53515-.26953.53907-.71875.53515-.26953.625-.98828 1.16016.44922.83984.3711 1.39454.61718 1.6953-.17969h1.60548l1.78515.08985.17969-1.70704.53516-1.34375.80468.26954.4922.84765.40233.40625-.08984.53906v.35938l.71485.44922.71093-.26953h1.42969l.35938.98828.4453 1.25781.71485 1.34375 1.25.6289 1.69531.62891.71485-.17969.17969-.53906.98046-.08984.44922.35937.08594 1.25782-.26563.6289-.53515.17969v.53906l.71484.98438.26563.53906.98437.98828.80078 1.07813-.26562.35937-.08985.89844-.625 2.33203-.35546 2.0664-.08985 1.79298-.17969.71875-.08984.53906v1.4375l-.98047 1.88281-.35937 1.70703-.53516.89844-.80469 1.16797-.26562.53906 2.05469 1.2539.08593.35938-.35546.53906-.08985-.17968v.80859l.08985 1.4375-.44532.71484-1.07422.09375-.26562.71485.53515.89844.8047.71875 1.16015.80859 1.33984.26953.44531.35938-.35546.44921-1.78907-.08984-1.25-.44922-.71484-.71875-.625-.08984-.17578 3.58984-.1875 1.3086h89.35937V311.70313h-55.26953v49.08203l.76172.125 3.28906.54296 2.02344 2.83594v2.7539l2.35156.33204 2.34766.33203h4.05078l-1.3789 4.16016-2.02344.70703-2.02344.70312-.54297.34375-2.59375 1.6172-.1875.11718-2.02344-2.07813-.73046-2.74218-2.67188-2.07813-1.375-3.5-.0664-.08203-1.95704-2.67188 2.75-1.41796v-49.08204H294.42187v91.41407l.1172.03125.1328.01172.07422.07421.10547.04688.08985.0586.08593.05859.08985.0586.29687.29687.0586.08984.03125.11719.02734.11719.01563.13671-.03125.1172-.0586.08983-.0586.08594-.04296.10547-.04688.10156-.02734.1211v.14453l.17578.26953.14844.14844.07422.08594.07422.07421.04296.10547.0625.08985.0586.08593.04297.10547.0586.08985.04687.10156.04296.10547.0586.08594.11719.17968.07421.07422.0625.08594.0586.08984.04297.10547.0586.08985.05858.08593.0625.08985.0586.08984.04297.10156.11719.17969.07421.07422.0586.08594.07422.07421.08984.0586.10547.04687h.14844l.1328-.01562.13282.01562.10156-.04687.07422-.07422.04688-.10156-.01563-.13281v-.14844l-.04687-.10547-.02735-.11719-.04687-.10156-.02735-.1211-.04296-.10156-.0625-.08984-.04297-.10156-.04297-.10547-.03125-.11719-.01563-.13281-.01171-.13672.08593-.0586.0586-.08593.12109-.03125.04297.10547.01562.1328v.1172l.0586.10156.0586.08984.08983.0586.14844.14843.0586.08985.04296.10547-.01171.10156.08593.0586.10547.04687.08594.0586.08984.05858.07422.07422-.11719.02735-.10546.04687-.08594.0586-.07422.07421-.0586.08985-.0625.08594-.02734.12109-.04687.10156-.04297.10547-.03125.11719-.01172.13281-.01563.13281v.14844l.02735.11719.04687.10547.04297.10156.0586.08984.07421.07422.08985.0586.07422.07421.08984.0586.0586.08984.04296.10547.04688.10156.11719.03125.1328.01563h.14845l.11718-.03125.10547.04297.04297.10547.04688.10156.02734.1211L299.5 410l.02734.11719.03125.1211.02735.11718.10547.04297.10156.04687.13281-.01562.14844.14844.0625.08593.07422.07422.07031.07422.08984.0625.10547.04297.10156.04297.1172.03125.13671.01562.11719-.03125.07422-.07422.02734-.11718-.01172-.13282-.03125-.12109-.02734-.11719.04297-.10547h.11719l.08984.0625.11719.02735h.14843l.13282.01562h.14843l.13282.01563.1328-.01563h.14845l.1328-.01562.13282-.01172.13672.01172.11719-.02735.13281-.01562.1914-.0586-.05859.17579-.01562.1328-.02735.1211-.01562.13281-.0586.08594-.1328.01563-.10548.04687-.10546.04297-.1172.03125-.11718.02735-.26563.03125h-.14843l-.13281.01562-.07422.07422.05859.08594.14844.14843.11719.1797.07421.0703.08985.0625.08984.0586.08594.0586.08984.05858.10156.04297.10547.0625.10547.04297.08594.0586.10547.04687.10156.04297.17969.11719.0586.08984-.04298.10156-.04687.10547.01562.13281.22266.22266.0586.08985.04296.10156.03125.1211.04297.10155.01563.13282.03125.11718.01171.13672.03125.11719.14844.14844.10156.04297.10547.04296.1172.03125.1328.01563.13672.01563h.11719l.11719-.03125.08984-.0586.04297-.10547.04688-.10156.04296-.10547.03125-.11719.01172-.1328v-.14845l-.01172-.1328-.01562-.13282-.03125-.11719-.04297-.10547-.04688-.10547-.04296-.10156-.04297-.10547-.01563-.13281.01563-.13281.02734-.11719.03125-.11719.02735-.1211.04687-.10155.08984-.0586.08594-.0625.07422-.07422.08984-.05859.22266-.22266.0586-.08593.07421-.07422.11719-.17969.0586-.08594v-.14844l-.07423-.07421-.10156-.04688-.10547-.04297-.10156-.04297-.0586-.08984-.04687-.10547-.02734-.11719.08984-.05859.11719-.03125.10156-.04297.17969-.11719.14844-.14843.01172-.13282-.01172-.10546-.08985-.0586-.1328.01563h-.14845l-.1328.01562-.13282-.01562-.1211-.03125-.08593-.0586-.07422-.07422-.0586-.08984-.0625-.08594-.11718-.17969-.0586-.08593.03125-.1211.08594-.05859.1211-.03125.05859-.08594v-.1211l-.03125-.11718-.0586-.08984-.05859-.08594-.04687-.10547-.02735-.11719-.01562-.1328.0586-.08985.07421-.07422.08984-.0586.1172-.17968.07421-.07422.0586-.08594.14843-.14844.1211-.03125.1328-.01562.13282.01562.07422.07422.04297.10547.01562.13281-.03125.1172-.11719.03124-.1328.01172-.14844.14844-.04297.10547-.04688.10156-.02734.1211-.03125.11718v.14844l.03125.11719.04297.10546.05859.08985.07422.07031.07422.07422.11719.03125.12109.02734.11719-.02734.1328-.01563h.1172l.08984.0586.07422.07422.04687.10546.0586.08594.10156.04688.13281.01562.10547.04297.08594.0586-.01172.10546-.07422.07422-.17969.11719-.05859.08984-.08984.0586-.07032.07422-.07421.07421-.0625.08985-.02735.11719-.01562.1328.01562.13282-.01562.13281v.14844l.01562.13281.02735.1172.03125.12108.07421.07422.08985.0586.08594.0586.08984.05858.11719.03125v.08594l-.10157.04688-.08984.0586-.26563.03124-.11718.02735h-.14844l-.10547.04296-.10156.04688-.0586.08984-.0625.23438-.01171.13281-.03125.1211-.01563.1328v.29298l-.01172.1328.01172.13673.01563.1328.1328.01563.13282.01172.1211.03125.08593.0586.07422.07421.04688.10547.04296.10157.01563.1328v.44532l-.01563.13281v.44532l.03125.26562.02735.11719.01562.13281.03125.11719.08594.21094.03125.26562v.14844l-.03125.11719-.02734.11718-.03125.1211-.02735.11719-.03125.11718-.03125.1211-.01171.1328-.01563.13282.08984.0586.1172-.03125.10155.01562.04688.10547-.03125.26562v.44141l-.04297.10547-.04688.10547-.04296.10156-.04297.10547-.0586.08594-.03125.12109-.04296.11719-.03125.11719-.01563.1328.01563.13282.05859.08984.10547.04688.08594.0586.05859.08593-.01172.13672-.03125.11719-.04297.10156v.44531l-.01562.13281v.14844l-.03125.11719-.04297.10547-.02735.11719-.04687.10546-.04297.10157-.03125.12109-.02734.11719-.03125.13281-.03125.11719-.02735.11719-.04297.10546-.03125.1172-.03125.12108-.01171.13282-.01563.13281v.29688l.02734.11718v.14844l.04688.39844.02734.11719.0586.08984.12109.03125h.14844l.13281-.01563.0586.08985v.11719l-.0586.08984-.08984.0586-.10157.04296-.10546.04688-.08985.05859-.08594.0586-.13671.01562-.1172-.03125-.1328-.01563-.10157.04688-.0625.08594-.01172.13671-.01562.13282-.03125.11719-.02735.11718-.01562.13281-.03125.1211v.29687l.01563.13282.03125.11718v.14844l.01171.13281v.14844l-.02734.11719-.04688.10156-.02734.1211-.03125.11718-.0586.08985-.07421.07421-.10156.04297-.10547.04688-.11719.02734-.1211.03125-.10156-.04687.0586-.08594.10547-.04688.02734-.11718.03125-.11719.02734-.1211.03125-.11718v-.14844l.01563-.13281-.03125-.11719-.04297-.10547-.10547.01563-.07422.07422-.10156.04296-.08984.0625-.07422.07422-.04297.10157-.01563.1328-.03125.1172L304.25 426l-.03125.11719-.02734.11719-.03125.12109-.02735.11719-.03125.11718-.04297.10547-.08984.0586h-.08984l-.1172-.03125-.03124-.08594.01562-.13672-.03125-.11719v-.14844l-.01171-.1328v-.14844l-.0625-.23438-.02735-.1211-.04297-.10156-.04687-.10546-.0586-.08594-.05859-.08985-.04297-.10546-.0625-.08594-.14844-.14844-.0703-.07422-.10548-.04687-.10547-.04297-.10156-.04297-.29687-.29688-.08985-.07421-.08594-.0586-.10546-.04297-.08985-.0625-.08594-.0586-.10546-.04296-.08985-.0586-.08594-.0625-.07421-.0703-.10547-.04688-.08594-.0586-.10547-.04296-.08984-.0625-.10156-.04297-.10547-.04297-.08594-.0586-.10547-.04687-.10547-.04297-.10156-.04687-.08985-.0586-.10156-.04297-.10547-.04296-.08984-.0625-.11719-.02735-.13281-.01562-.13281.01562H299.75l-.13281.01563-.11719-.03125-.08984-.0586-.07422-.07422-.08985-.05859-.10156-.04688h-.14844l-.12109-.02734-.10156-.04297-.07422-.07422-.11719-.17968-.08984-.0586-.10156-.04297-.08985-.0625-.10547-.04296-.08984-.0586-.08594-.0586-.10547-.04687-.0586-.08594-.05858-.08984-.04297-.10547-.04688-.10156-.07422-.07422-.08594-.0586-.07421-.07421-.08985-.0586-.22265-.22265-.04297-.10547-.03125-.26563.10547-.04296h.14453l.10547.04296.07421.07422.08985.0586.08594.0586.10546.04687.08985.05859.14844.14844.0703.07422.14845.14843.0625.08594.07421.07422.08594.0586.07422.07421.08985.0625.08984.0586.08594.05859.26953.17578.10156.04688.10547.04296.10156.04297.04688-.07421.05859-.08594.07422-.07422.07031-.07422.10547.04297.07422.07422.0586.08984.04296.10156.04688.10547.04296.10547.1211.02735.11719-.02735.07421-.08984.04297-.10547.0586-.08985.07422-.07421.10546-.04297.1172-.02735.1328.01172.08985.0586.14844.14843.05859.08985.04297.10547.04687.10156.04297.10547.04297.10156.10547.04688.10547.04296.13281.01563.08594-.0586.0586-.08984.07421-.07422.10547-.04297.11719.02735.10547.04687.10156.04297.10547.04297.10156.04688.17969.11718v.11719l-.01563.13281.01563.13281.01562.13672.0586.08594.10156.04688.1211.02734.11718.03125h.14844l.11719-.03125.05859-.08984.17969-.1172.05859-.08983.07422-.07422.0586-.08594.11718-.17969.17969-.11719.11719.03125.08984.0586.04297.07422-.01563.1328v.1172l.08985.05859h.14843l.13282-.01563.1328-.01171.26563-.03125.10547-.04297.11719-.03125.1211-.02735.07421-.07421.07031-.07422.0625-.08985-.01562-.10547-.04688-.10156-.10156-.04297-.10547-.01562-.11718.02734-.26563.03125h-.14844l-.07421-.07422-.08985-.0586-.11719-.03124-.11718-.02735-.13282-.01562h-.14843l-.13282.01563h-.29687l-.10547-.04688-.14844-.14844-.04297-.10156-.05859-.08984.22266-.22266.08593-.0586.10547-.04296.11719-.03125.13281-.01563.13281.01563.13672.01562.10157.04297.1328-.01172.08985-.0625.10156-.04297.0625-.08984-.04687-.10156-.08984-.0586-.1172-.03125-.10155-.04296-.0586-.08985-.0625-.08984v-.11719l.01563-.13281.10547-.04688.07421-.07031v-.1211l-.08984-.05859-.03125-.11719.08985-.05859.07421-.07422.04297-.10547.0586-.08984.04687-.10156.01563-.13281v-.14844l-.04688-.10547-.04297-.10156-.08984-.0586-.13281-.01562-.10157-.04297-.13671-.01563-.1172-.03125h-.4453l-.13282-.01562-.13281-.01172-.13281-.01563-.11719-.03125h-.14844l-.13281-.01562-.13281-.01172-.26563-.03125-.1211-.04297-.08593-.0586-.07422-.07421v-.14844l.01172-.13281.10547-.04688.10156-.04296.13281-.01563h.15235l.13281-.01562h.29297l.1211.03125.10156.04296.08984.0586.23438.0625.12109-.04688.08984-.05859.10156-.04297.13282-.01562.10547.04296.10156.04688.13281.01172.1211-.02735h.14453l.12109-.03125.11719-.02734.10547-.04687.07421-.07422.08594-.0586.14844-.14843.0586-.08594.04687-.10547.02734-.11719.01563-.10547-.10156-.04296-.08985-.0586-.11719-.03125-.10546-.04297-.08985-.0625-.07422-.08594-.07422-.07421-.10156-.04297-.10547-.04688-.10156-.04297-.0586-.08984-.04687-.10156-.08594-.21094-.0625-.08594-.05859-.08984-.07422-.07422-.08594-.0586h-.26953l-.11719.03126-.08984.05859-.10156.04297-.13281.01562-.10547-.01562-.02735-.11719-.0625-.08984-.11718-.03125-.10157-.04297-.14843-.14844-.03125-.11719-.01563-.10546.07422-.07422.17969-.1172.11719-.02733.11718-.03125.13672.01562.10156.04297.10547.04297.10156.04687.10547.04297.1172.03125.1328.01563.1172.02734.1328.01563.10547-.01563.08985-.0586-.07422-.07421-.10547-.04297-.07422-.07422-.07422-.08984-.14844-.14844-.08593-.0586-.08985-.05859-.07422-.07422-.08984-.0586-.10156-.04687-.1211-.02734-.10156-.04688-.10547-.04296-.11719-.03125-.10156-.04297-.1211-.03125h-.14843l-.11719.03125-.10546.04297-.08594.0625-.17969.11718-.08594.0586-.08984.0586-.10547.04687-.08594.05859-.10547.04297-.10156.04297-.10547.04687-.07422.07422-.05859.08985-.0586.08593-.04687.10547-.0586.08594-.07421.07422-.13281-.01172-.1172-.03125h-.11718l-.07422.07422-.08984.0586-.07422.07421-.08984.0586-.08594.05859-.10547.04687-.10156.04297-.13672.01563-.10156-.04297-.14844-.14844-.10547-.04688h-.08594l-.10547.04688-.10156.04297-.1211.03125-.11718-.03125-.07422-.07422v-.11719l.03125-.1211.07422-.0703.0586-.08985.07421-.07422.11719-.03125.10547-.04296h.29297l.13281-.01563.13672-.01563.10156-.04296.08985-.0586.10156-.04687.08984-.0586.13281-.01171.08985.05859.13281.01172.08984-.0586.08594-.05859.10547-.04297.08984-.0586.08594-.0625.08985-.05859.14843-.14843.0586-.08594.05859-.08985.10547-.04296.13281-.01563.11719.02735.1211.03125.05859-.0586.05859-.08984.03125-.26563.02734-.11719.10547.01172.13281.01563.10157-.04297.08984-.0586.0586-.08984.07421-.07422.0586-.08984.04687-.10156.01172-.13281-.01172-.13282-.04687-.10547-.14844-.14843-.0586-.08985-.05859-.08594-.04297-.10546v-.44532l.01563-.1328v-.14845l.01172-.1328-.0586-.0586-.08984.0586-.10156-.04298-.17969-.11719-.08594-.05859-.0625-.08984-.0586-.08985-.07421-.07421-.08594-.0586-.1211.03125-.10155.01172-.10547.04688-.08594.05859-.10547.04297-.14844.14844-.08984.05859-.08594.0586-.08984.0625-.10547.04296-.13281.01563v-.1211l.10547-.04297.11718-.03125.07422-.0703.04297-.10548v-.14844l-.02734-.11718-.14844-.14844-.13281-.01563h-.14844l-.11719.03125-.10547.04297-.10156.04297-.08984.0625-.11719.02735-.07422-.07422.01172-.13281-.04297-.10157-.04297-.10547-.08984-.05859-.11719.02734-.1211.03125-.11718.03125-.10156.04297-.1211.03125-.10156.04297-.10547.04297-.08984.0586-.10156.01562v-.11719l.01562-.13281-.0586-.08985-.07421.04297-.14844.14844-.0586.08985-.07421.07421-.04688.10547-.04296.10156-.07422.07422-.0586.08985-.07422.07422-.05859.08593-.07422.07422-.08984.0625-.07422.07031-.07422.07422-.10156.01563-.13281.01562-.10547-.04296v-.1211l.14843-.14844.04297-.10156.0586-.08984.04687-.10156.04297-.10547.0586-.08985.03124-.11719.04297-.10156.03125-.1211.02735-.11718.04687-.10547.04297-.10156.04297-.10547.07422-.07031.08984-.0625.08985-.0586.10156-.04296h.29687l.26563-.03125.10547-.04297-.07422-.07422-.11719-.03125-.10547-.04297-.08984-.0586-.10156-.04687-.08985-.0586-.10156-.04296-.10547-.04297-.08984-.0625-.08594-.0586-.10547-.04296-.10156-.04297-.1211-.03125-.11718-.03125-.10157-.04297L297.5 410.25l-.10156-.04297-.08985-.0586-.04296-.10546-.01563-.13281.10156-.04297.13281-.01563.13672.01563.13282-.01563.10156-.04297.0586-.08984.01562-.10547-.08985-.0586-.07421-.07421-.10157-.04297-.08984-.0586-.14844-.14843-.04297-.10547-.01562-.13281v-.29297l-.0586-.08985-.08984-.05859-.07422-.07422-.04297-.10547-.03125-.11718-.0586-.08985-.07421-.07422-.11719-.02734-.07422-.07422-.08984-.0586-.08984-.0625-.08594-.05859-.07422-.07421-.0586-.08594-.04687-.10547-.08594-.0586-.14843-.14843-.19532-.0586-.1328.01563-.10157.04297-.07422.07422-.04688.10156-.04296.10547-.0586.08984-.0586.08594-.29687.29687-.08984.0586h-.08594l-.0625-.08594-.04297-.10547.03125-.11719.0586-.08984.02734-.11719-.01172-.13281-.08984-.0625-.10547.04688-.11719.02734-.11719.03125-.26953.17578-.10156.04688-.11719.02734-.10546.04687-.08985.0586-.10156.04297-.0586-.08594-.04687-.10547.01563-.13281.04687-.10547.07031-.07422.07422-.07031.0586-.08985v-.14843l-.04297-.10547h-.23829l-.10156.04687-.03125.11719-.02734.11719-.03125.1211-.07422.04296-.13281.01563-.07422-.04688-.04297-.10156-.04297-.10547-.04687-.10156-.04297-.10547-.1211.03125-.10156.04297-.13281.01562-.11719.03125-.10547.04297-.08984.0586-.10156.04687-.1211.02734-.13281.01563-.10156-.04297-.0586-.08985-.04687-.10546-.04297-.10157-.04297-.10546v-.1172l.0586-.08984.08593-.05859.17969-.11719.10156-.04687.10547-.04297.10547-.0586.10156-.04296.08985-.0625.10156-.04297.10547-.0586.10156-.04687.08984-.0586.10547-.04296.10156-.04297.08985-.0625.10156-.04297.13672-.01563.11719.03125.10156.04297.1211.03125.10156.04297.10546.04688.10157.04296.10547.04297.10156.04688.10547.04297.10156.04297.10547.04687.08594.0586.10546.04296.1172.03125.10546.04297.10156.04688.08985.0586.10547.04296.10156.04297.10547.04687.11719.02735.10156.04687.1211.02735h.14843l.08594-.0586.01562-.10156.0586-.08984-.02735-.1172-.07422-.07421-.11719-.17969-.07421-.07422-.08985-.07421-.17969-.1172-.08593-.05859-.10547-.04296-.10156-.04688-.26954-.17578-.05859-.08985-.07422-.07421-.0586-.08985-.04296-.10156-.03125-.11719-.01563-.13672v-.5625l-.01171-.1328-.01563-.13282-.03125-.11719-.01562-.13281-.01172-.13281-.03125-.1211-.22266-.22265-.0586-.08594-.01562-.10547.03125-.11719.13281-.01562v-91.41406H172.9922v1.45312l-.0586.23438-.35156 1.05078-.17187.52343-.1172.34766-.17577.41016-.11719.17187-.23438.29297-.23046.0586h-.35157l-.11718.05859-.23047.40625v.29297l.11719.17578.23046.23047.1172.23437.64062.75781.29297.46485.17578.23437.23047.35156.23437.34766.64063.8164.17578.46485.17187.41016.11719.69531.17578.46875.11719 1.39844.0586.46484v.875l.11718 1.04688v4.78125l-.0586.46484-.35156 1.28125-.17578.52344-.11328.41015-.35156.9297L172.93359 336l-.23437.58203-.11719.17578-.17187.34766-.17578.40625-.35157.8164-.0586.29297-.11327.29297-.11719.28906-.0586.17579-.11718.875-.0586.40625-.05859.11718-.0586.17579-.05859.17187-.23047.52734-.11718.17188v.23437l-.11719.23438-.0586.17187-.17577.58594v.28906l-.0586.17579v.29296l-.0586.11329-.05859.52734v.17187l-.05468.23438v2.6211l-.17578.8164-.1172.17578-.17577.23438-.1172.17187-.11327.23438-.58594.93359-.23047.28906-.29297.46485-.17578.23437-.28906.35156-.35156.69922-.11328.23047-.17579.41016-.17578.23046-.40625.52735-.8164.69922-.29297.17187-.28906.23438-.17579.11719-.17578.17578-.52344.40625-.52734.17578-.17187.17578-.23438.05469-.64062.17578h-.75782m12.21094 31.02344l-1.07422.44921.35938.89454 1.25-.71485.44531-.53906-.98047-.08985"/><path fill="#d3d3d3" fill-opacity="0" fill-rule="evenodd" d="M201.50781 416.59766h-.89453l.44922.6289.98047.35938.80469-.08985.4453-.98828-.17577.08985-.71485-.35547-.89453.35547m154.6211 59.0703l-.0586-.52343v-.29297l.11328-.29297.0586-.23046.46875-.46875h.11328l.11719-.11329.11718-.05859h.17579l.23437-.0586h.34766l.23437.0586.11719.0586.23047.17187.0586.17578.11718.58203v.29297l-.11719.17578-.17187.28906-.17579.17579-.52734.52343-.23047.23438-.11719.0586h-.17578l-.11718-.0586-.40625-.29297-.17579-.11719-.11718-.0586-.0586-.11327-.05468-.1172m6.64062-10.95702l-.0586-.17188v-1.10937l.0586-.17188.17578-.0586.17188-.05858h.17578l.23437-.0586.1172.0586.05858.69921-.05859.17188-.11719.17578-.11718.0586-.23438.52343-.11328.0586h-.23438l-.05859-.1172m9.61328-14.39062l-.11719-.17578v-.69922l.29297-.875.1172-.17187.17577-.35156.11328-.23047.1172-.29297.35155-.75781.1172-.23047.17187-.23438h.17578l.11719-.0586h.64062l.11719.0586.23437.23438.17188.11328.35156.29297.11719.11718.11328.17579v.11328l.11719.05859.11718.11719v.69922l-.05859.17578v.23047l-.0586.17578-.34765 1.05078-.11719.23047-.11719.23437-.11718.0586-.23047.23437-.64063.28906h-.875l-.41015-.11718-.64063-.46485"/><path fill="none" stroke="#bebebe" stroke-linecap="round" stroke-linejoin="round" stroke-miterlimit="10" stroke-width=".5" d="M467.95703 311.69531H144.02734v168.625h323.9297v-168.625"/><g clip-path="url(#a)"><path fill="#fff" fill-opacity="0" fill-rule="evenodd" d="M144 475.89063v4.4375h.0039H144V311.67188h.0039H144v164.21875"/></g><g clip-path="url(#b)"><path fill="#fff" fill-opacity="0" fill-rule="evenodd" d="M144.0039 480.32813V311.67188h133.14844v111.92187l-3.49609 3.47656.27734 4.4375 3.21875 2.98438 2.98438-2.98438 1.3164-4.4375-4.30078-3.47656V311.67187h31.06641v146.78125l-4.4375 1.98438-.84766 2.13672.84766.60547 4.4375 1.64844 3.15625-2.25391-3.15625-4.1211V311.67188h26.6289v109.29297l-1.64062 1.66407 1.64063 1.64453 1.82812-1.64453-1.82812-1.66407V311.67188h13.3164v114.62109l-4.4375.71484-.0625.0625.0625.0625 4.4375.73047.7539-.79297-.7539-.77734v-114.6211h48.82031v121.3086l-4.4375 1.10156-4.4375 1.57422-.47265.28906-3.17578 4.4375-.78906 1.00781-4.4375-.40234-4.44141 1.0625-2.57813 2.76953 1.03516 4.4414 1.54297 3.98829.05078.44922 1.82422 4.4375 2.5664 3.14062 1.40625 1.29688 3.03125 2.54297 3.09766-2.54297 1.33985-1.69922.5625 1.69922 3.5664 4.4414.3086.16016.17968-.16015 4.25781-.45313 4.44141.10938 4.4375.08593 4.4375-.35547 4.4375-.08203 4.4414-.80469 2.41407-2.9414 1.79297-4.4375.23047-1 2.53906-3.4375-2.53906-2.4961-2.00781-1.9414-2.4297-2.375-4.4414-1.73438-4.4375-.14843-.15234-.1836-4.28516-4.25781-.22656-.17969-3.35938-4.4375-.85156-.78125-4.4414-2.1836V311.67189h71.01171v168.65625H144.00391"/></g><path fill="#50fcfc" fill-rule="evenodd" d="M273.9336 431.50781l-.27735-4.4375 3.4961-3.47656v1.4414l-2.04298 2.03516 1.17188 4.4375.8711.80469.80468-.80469 1.71094-4.4375-2.51563-2.03515v-1.44141l4.30079 3.47656-1.31641 4.4375-2.98438 2.98438-3.21875-2.98438"/><path fill="#00e8fc" fill-rule="evenodd" d="M276.28125 431.50781l-1.17188-4.4375 2.04297-2.03515 2.51563 2.03515-1.71094 4.4375-.80469.80469-.87109-.80469"/><path fill="#50fcfc" fill-rule="evenodd" d="M303.78125 463.17969l-.84766-.60547.84766-2.13672 4.4375-1.98438 3.15625 4.1211-3.15625 2.2539-4.4375-1.64843m31.0664-38.90625l-1.64062-1.64453 1.64063-1.66407 1.82812 1.66407-1.82812 1.64453m8.8789 2.85937l-.0625-.0625.0625-.0625 4.4375-.71484.7539.77734-.7539.79297-4.4375-.73047m29.52344 22.1289l-1.03516-4.4414 2.57813-2.76953 4.4414-1.0625 4.4375.40235.78907-1.00782 3.17578-4.4375.47265-.28906 4.4375-1.57422 4.4375-1.10156v2.23437l-1.71875.73047-2.71875.64453-4.4375 2.46875-1.05468 1.32422-3.38281 4.3086-4.4375-2.4961-4.29297 2.625 1.10156 4.4414.03515 4.4375 3.15625 4.26563.90625.17188 3.53125 2.96484 2.1172-2.96484 2.3203-1.35156.61329 1.35156 1.57421 4.4375 2.25 2.60547 4.4375.6211 4.44141.21874 4.4375.00781 4.4375-.625 4.4375-.33984 3.95703-2.48828.48438-.3711 3.05078-4.0664 1.23437-4.4375-4.28515-4.26563-.54297-.17187-3.89844-2.95313-4.4375 2.33204-3.15234-3.82032-1.28516-1.27734-3.96094-3.16016-.47656-.57422-3.21484-3.86328-1.22656-.73047v-2.23437l4.4414 2.1836.85156.78124 3.35938 4.4375.22656.17969 4.28516 4.25781.15234.1836 4.4375.14843 4.4414 1.73438 2.4297 2.375 2.0078 1.9414 2.53907 2.4961-2.53906 3.4375-.23047 1-1.79297 4.4375-2.41406 2.9414-4.4414.8047-4.4375.08202-4.4375.35547-4.4375-.08594-4.44142-.10937-4.2578.45313-.1797.16015-.30859-.16015-3.5664-4.44141-.5625-1.69922-1.33985 1.69922-3.09765 2.54297-3.03125-2.54297-1.40625-1.29688-2.56641-3.14062-1.82422-4.4375-.05078-.44922-1.54297-3.98828"/><path fill="#00e8fc" fill-rule="evenodd" d="M376.04297 449.26172l-1.10156-4.4414 4.29296-2.625 4.4375 2.49609 3.38282-4.3086 1.05469-1.32422 4.4375-2.46875v2.06641l-2.32813 1.72656-2.10938 2.95703-1.24218 1.48047-3.19531 2.75781-3.38282-2.7578-1.05469-.60938-1.0039.60937 1.0039 4.2539.09766.1875-.09765.10938-1.09766 4.32813 1.09765 1.48047 2.23829-1.48047 2.19921-2.07031 4.4375.35156 1.20313 1.71875 1.72266 4.4375 1.51171 3.52734.4375.91016 4 1.96094 4.44141.39843 4.4375-.125 4.4375-1.0703 4.4375-.76954.625-.39453 3.8164-2.9414 1.1211-1.4961 2.34766-4.4375-3.46875-3.45703-3.08203-.98047-1.35938-1.02735-1.65234 1.02735-2.78516 2.46875-4.4375-.57031-3.8086-1.89844-.6289-.39844-3.23047-4.04297-.17187-4.4375-1.03906-1.15234-4.4375-.57422v-2.0664l2.71875-.64454 1.71875-.73047 1.22656.73047 3.21484 3.86328.47656.57422 3.96094 3.16016 1.28516 1.27734 3.15234 3.82031 4.4375-2.33203 3.89844 2.95313.54297.17187 4.28515 4.26563-1.23437 4.4375-3.05078 4.0664-.48438.3711-3.95703 2.48828-4.4375.33984-4.4375.625-4.4375-.0078-4.4414-.21876-4.4375-.6211-2.25-2.60546-1.57422-4.4375-.61329-1.35156-2.3203 1.35156-2.1172 2.96484-3.53125-2.96484-.90625-.17188-3.15625-4.26562-.03515-4.4375"/><path fill="#00d4fc" fill-rule="evenodd" d="M379.23438 455.17969l-1.09766-1.48047 1.09765-4.32813.09766-.10937-.09765-.1875-1.00391-4.2539 1.0039-.60938 1.0547.60937 3.3828 2.75781 3.19532-2.7578 1.24219-1.48048 2.10937-2.95703 2.32813-1.72656v4.21875l-.76172 1.94531.76171.71485.67188-.71485-.67188-1.94531v-4.21875l4.4375.57422v9.85156l-.14843.17969.14844.02344.61328-.02344-.61329-.17969v-9.85156l1.03907 1.15234.17187 4.4375 3.23047 4.04297.6289.39844 3.8086 1.89844 4.4375.5703 2.78516-2.46874 1.65234-1.02735v1.46875l-4.15625 3.9961-.28125 1.28125-4.4375-.2539-4.4375-.83985-.36328-.1875-4.07813-2.26172-4.4375 1.875-.1914.38672.1914.69531.5547 3.74219 2.46484 4.4375 1.41796.69531 4.44141.57422 4.4375-.25781 3.2539-1.01172 1.1836-1.33203 4.4375-.88281 2.9375-2.22266 1.5039-.5039 2.65626-3.9336-2.65625-2.64453-4.4414-1.35156v-1.46875l1.35937 1.02734 3.08203.98047 3.46875 3.45703-2.34766 4.4375-1.1211 1.4961-3.8164 2.9414-.625.39453-4.4375.76953-4.4375 1.07031-4.4375.125-4.4414-.39843-4-1.96094-.4375-.91016-1.51172-3.52734-1.72266-4.4375-1.20313-1.71875-4.4375-.35156-2.19921 2.0703-2.23829 1.48048"/><path fill="#00c4fc" fill-rule="evenodd" d="M392.54688 445.53516l-.76172-.71485.76171-1.94531.67188 1.94531-.67188.71485m0 8.85937l-.1914-.69531.1914-.38672 4.4375-1.875v2.15234l-.22265.10938-2.0625 4.4375 2.28515 3.3711 3.2422 1.0664 1.19921.1836 2.19531-.1836 2.2422-1.34766 2.51952-3.08984-2.51953-.95703-4.4375-1.26563-4.24219-2.21484-.19921-.10938v-2.15234l4.07812 2.26172.36328.1875 4.4375.83984 4.4375.2539.28125-1.28124 4.15625-3.9961v.94922l-3.16797 3.04688 3.16797 4.19531 4.4414-1.46484 1.84376-2.73047-1.84375-1.83594-4.4414-1.21094v-.94921l4.4414 1.35156 2.65625 2.64453-2.65625 3.9336-1.5039.5039-2.9375 2.22265-4.4375.88282-1.1836 1.33203-3.2539 1.01172-4.4375.25781-4.44142-.57422-1.41796-.69531-2.46485-4.4375-.55469-3.74219"/><path fill="#00b8fc" fill-rule="evenodd" d="M396.98438 461.50781l-2.28516-3.3711 2.0625-4.4375.22265-.10937v3.16797l-.68359 1.3789.6836 1.01173 4.4414-.55078.60938-.46094-.60938-.19531-4.4414-1.1836v-3.16797l.19921.10938 4.2422 2.21484 4.4375 1.26563 2.51952.95703-2.51953 3.08984-2.24219 1.34766-2.1953.1836-1.19923-.1836-3.24219-1.0664"/><path fill="#00a8fc" fill-rule="evenodd" d="M396.98438 459.14844l-.6836-1.01172.6836-1.3789 4.4414 1.18359.60938.1953-.60938.46095-4.4414.55078"/><path fill="#00e8fc" fill-rule="evenodd" d="M396.98438 449.08203l-.14844.17969.14844.02344.61328-.02344-.61329-.17969"/><path fill="#00b8fc" fill-rule="evenodd" d="M414.73828 457.89453l-3.16797-4.19531 3.16797-3.04688v.95313l-2.17578 2.09375 2.17578 2.88672 4.4414-1.36328 1.02735-1.52344-1.02734-1.02735-4.4414-1.0664v-.95313l4.4414 1.21094 1.84375 1.83594-1.84375 2.73047-4.4414 1.46484"/><path fill="#00a8fc" fill-rule="evenodd" d="M414.73828 456.58594l-2.17578-2.88672 2.17578-2.09375v.94922l-1.1875 1.14453 1.1875 1.57422 4.4414-1.2539.21485-.32032-.21484-.21485-4.4414-.92968v-.94922l4.4414 1.0664 1.02734 1.02735-1.02734 1.52344-4.4414 1.36328"/><path fill="#009800" fill-rule="evenodd" d="M414.73828 455.27344l-1.1875-1.57422 1.1875-1.14453v.94922l-.19922.1953.19922.26563.96875-.26562-.96875-.19531v-.94922l4.4414.92969.21485.21484-.21484.32031-4.4414 1.2539"/><path fill="#00ac00" fill-rule="evenodd" d="M414.73828 453.96484l-.19922-.26562.19922-.19531.96875.1953-.96875.26563"/><g clip-path="url(#c)"><path fill="#fff" fill-opacity="0" fill-rule="evenodd" d="M467.9961 480.32813H468V311.67188h-.0039H468v168.65625h-.0039"/></g><path fill="#fff" fill-opacity="0" fill-rule="evenodd" d="M411.82813 471.70703l5.8125-.57422-.98438-9.91406-5.8125.57813.98438 9.91015"/><path fill-rule="evenodd" d="M414.50781 463.27344l.50781-.05078.6211 6.26562-.78516.07813-.4414-4.46875-1.38282.13671-.05468-.55078.55078-.12109.2461-.07813.21874-.11328.1875-.16015.15235-.22656.11328-.3047.0664-.40624"/><g clip-path="url(#d)"><path fill="none" stroke="#000" stroke-linecap="round" stroke-linejoin="round" stroke-miterlimit="10" stroke-width=".5" d="M147.51172 480.21484l-7.02344.23047"/></g><g clip-path="url(#e)"><path fill="none" stroke="#000" stroke-linecap="round" stroke-linejoin="round" stroke-miterlimit="10" stroke-width=".5" d="M146.48828 480.2461l.61328 1.0664"/></g><g clip-path="url(#f)"><path fill="none" stroke="#000" stroke-linecap="round" stroke-linejoin="round" stroke-miterlimit="10" stroke-width=".5" d="M160.65234 481.42578l-6.67578-2.19531"/></g><g clip-path="url(#g)"><path fill="none" stroke="#000" stroke-linecap="round" stroke-linejoin="round" stroke-miterlimit="10" stroke-width=".5" d="M159.6836 481.10547l.20702 1.21094"/></g><g clip-path="url(#h)"><path fill="none" stroke="#000" stroke-linecap="round" stroke-linejoin="round" stroke-miterlimit="10" stroke-width=".5" d="M174.0039 481.3086l-6.75-1.95704"/></g><g clip-path="url(#i)"><path fill="none" stroke="#000" stroke-linecap="round" stroke-linejoin="round" stroke-miterlimit="10" stroke-width=".5" d="M187.28906 481.40625l-6.6875-2.15625"/></g><g clip-path="url(#j)"><path fill="none" stroke="#000" stroke-linecap="round" stroke-linejoin="round" stroke-miterlimit="10" stroke-width=".5" d="M200.32813 482.04297l-6.13672-3.42578"/></g><g clip-path="url(#k)"><path fill="none" stroke="#000" stroke-linecap="round" stroke-linejoin="round" stroke-miterlimit="10" stroke-width=".5" d="M213.15234 482.71484l-5.15625-4.77343"/></g><g clip-path="url(#l)"><path fill="none" stroke="#000" stroke-linecap="round" stroke-linejoin="round" stroke-miterlimit="10" stroke-width=".5" d="M226.625 482.53516l-5.46875-4.41016"/></g><g clip-path="url(#m)"><path fill="none" stroke="#000" stroke-linecap="round" stroke-linejoin="round" stroke-miterlimit="10" stroke-width=".5" d="M240.42578 478.91797l-6.4375 2.82031"/></g><g clip-path="url(#n)"><path fill="none" stroke="#000" stroke-linecap="round" stroke-linejoin="round" stroke-miterlimit="10" stroke-width=".5" d="M253.11719 477.96094l-5.19531 4.73437"/></g><g clip-path="url(#o)"><path fill="none" stroke="#000" stroke-linecap="round" stroke-linejoin="round" stroke-miterlimit="10" stroke-width=".5" d="M267.09375 479.01563l-6.51953 2.625"/></g><g clip-path="url(#p)"><path fill="none" stroke="#000" stroke-linecap="round" stroke-linejoin="round" stroke-miterlimit="10" stroke-width=".5" d="M266.14844 479.39844l.9375.78906"/></g><g clip-path="url(#q)"><path fill="none" stroke="#000" stroke-linecap="round" stroke-linejoin="round" stroke-miterlimit="10" stroke-width=".5" d="M280.48047 479.20313l-6.66016 2.25"/></g><g clip-path="url(#r)"><path fill="none" stroke="#000" stroke-linecap="round" stroke-linejoin="round" stroke-miterlimit="10" stroke-width=".5" d="M279.51172 479.53125l.89062.84375"/></g><g clip-path="url(#s)"><path fill="none" stroke="#000" stroke-linecap="round" stroke-linejoin="round" stroke-miterlimit="10" stroke-width=".5" d="M293.98047 480.3789l-7.02735-.10156"/></g><g clip-path="url(#t)"><path fill="none" stroke="#000" stroke-linecap="round" stroke-linejoin="round" stroke-miterlimit="10" stroke-width=".5" d="M292.95703 480.36328l.5586 1.09375"/></g><g clip-path="url(#u)"><path fill="none" stroke="#000" stroke-linecap="round" stroke-linejoin="round" stroke-miterlimit="10" stroke-width=".5" d="M307.28125 480.63281l-7-.60937"/></g><g clip-path="url(#v)"><path fill="none" stroke="#000" stroke-linecap="round" stroke-linejoin="round" stroke-miterlimit="10" stroke-width=".5" d="M320.5039 479.47266l-6.8164 1.71093"/></g><g clip-path="url(#w)"><path fill="none" stroke="#000" stroke-linecap="round" stroke-linejoin="round" stroke-miterlimit="10" stroke-width=".5" d="M319.51172 479.72266l.82422.91015"/></g><g clip-path="url(#x)"><path fill="none" stroke="#000" stroke-linecap="round" stroke-linejoin="round" stroke-miterlimit="10" stroke-width=".5" d="M331.94922 477.17188l-3.07813 6.3164"/></g><path fill="none" stroke="#000" stroke-linecap="round" stroke-linejoin="round" stroke-miterlimit="10" stroke-width=".5" d="M331.5039 478.08984l1.22266-.04297"/><g clip-path="url(#y)"><path fill="none" stroke="#000" stroke-linecap="round" stroke-linejoin="round" stroke-miterlimit="10" stroke-width=".5" d="M345.4961 477.29297l-3.53907 6.07031"/></g><path fill="none" stroke="#000" stroke-linecap="round" stroke-linejoin="round" stroke-miterlimit="10" stroke-width=".5" d="M344.98047 478.17578l1.22656.05078"/><g clip-path="url(#z)"><path fill="none" stroke="#000" stroke-linecap="round" stroke-linejoin="round" stroke-miterlimit="10" stroke-width=".5" d="M359.16016 477.52734l-4.23829 5.60547"/></g><path fill="none" stroke="#000" stroke-linecap="round" stroke-linejoin="round" stroke-miterlimit="10" stroke-width=".5" d="M358.54297 478.33984l1.21094.19532"/><g clip-path="url(#A)"><path fill="none" stroke="#000" stroke-linecap="round" stroke-linejoin="round" stroke-miterlimit="10" stroke-width=".5" d="M373.375 478.53516l-6.03906 3.58984"/></g><g clip-path="url(#B)"><path fill="none" stroke="#000" stroke-linecap="round" stroke-linejoin="round" stroke-miterlimit="10" stroke-width=".5" d="M373.375 478.53516l2.09766 1.27343"/></g><g clip-path="url(#C)"><path fill="none" stroke="#000" stroke-linecap="round" stroke-linejoin="round" stroke-miterlimit="10" stroke-width=".5" d="M386.59375 478.3789l-5.84766 3.89844"/></g><path fill="none" stroke="#000" stroke-linecap="round" stroke-linejoin="round" stroke-miterlimit="10" stroke-width=".5" d="M386.59375 478.3789l2.16016 1.16407"/><g clip-path="url(#D)"><path fill="none" stroke="#000" stroke-linecap="round" stroke-linejoin="round" stroke-miterlimit="10" stroke-width=".5" d="M399.16016 477.57031l-4.34766 5.51953"/></g><path fill="none" stroke="#000" stroke-linecap="round" stroke-linejoin="round" stroke-miterlimit="10" stroke-width=".5" d="M399.16016 477.57031l2.41406.4336"/><g clip-path="url(#E)"><path fill="none" stroke="#000" stroke-linecap="round" stroke-linejoin="round" stroke-miterlimit="10" stroke-width=".5" d="M413.8125 480.44922l-7.02344-.24219"/></g><g clip-path="url(#F)"><path fill="none" stroke="#000" stroke-linecap="round" stroke-linejoin="round" stroke-miterlimit="10" stroke-width=".5" d="M412.79297 480.41406l.53515 1.10156"/></g><g clip-path="url(#G)"><path fill="none" stroke="#000" stroke-linecap="round" stroke-linejoin="round" stroke-miterlimit="10" stroke-width=".5" d="M427.01953 481.20313l-6.80469-1.75"/></g><g clip-path="url(#H)"><path fill="none" stroke="#000" stroke-linecap="round" stroke-linejoin="round" stroke-miterlimit="10" stroke-width=".5" d="M426.02734 480.94922l.28907 1.1914"/></g><g clip-path="url(#I)"><path fill="none" stroke="#000" stroke-linecap="round" stroke-linejoin="round" stroke-miterlimit="10" stroke-width=".5" d="M440.11328 478.83984l-6.36328 2.98047"/></g><g clip-path="url(#J)"><path fill="none" stroke="#000" stroke-linecap="round" stroke-linejoin="round" stroke-miterlimit="10" stroke-width=".5" d="M439.1875 479.27344l.98047.73437"/></g><g clip-path="url(#K)"><path fill="none" stroke="#000" stroke-linecap="round" stroke-linejoin="round" stroke-miterlimit="10" stroke-width=".5" d="M452.59766 482.9414l-4.70313-5.22265"/></g><g clip-path="url(#L)"><path fill="none" stroke="#000" stroke-linecap="round" stroke-linejoin="round" stroke-miterlimit="10" stroke-width=".5" d="M461.1914 482.92188l4.7422-5.1875"/></g><g clip-path="url(#M)"><path fill="none" stroke="#000" stroke-linecap="round" stroke-linejoin="round" stroke-miterlimit="10" stroke-width=".5" d="M147.41797 466.19531l-6.83594 1.63672"/></g><path fill="none" stroke="#000" stroke-linecap="round" stroke-linejoin="round" stroke-miterlimit="10" stroke-width=".5" d="M147.41797 466.19531l1.625 1.83985m11.51953-2.36328l-6.4961 2.68359m6.4961-2.6836l1.89063 1.5625m11.67968-.5039l-7.0039.5664m5.98437-.48437l.66016 1.03125m13.63672-.25l-6.9297-1.16016m5.92188.9922l.39063 1.16015m13.625-.03125l-6.3164-3.08203m5.39843 2.6328l.04297 1.22657m14.35937-1.1914l-6.65625-2.25391m5.6875 1.92578l.19922 1.21094m14.26563-1.83594l-7.01563-.34766m5.9961.29688l.52343 1.10937m13.4961-2.6953l-6.38672 2.92577m5.45703-2.5l.97656.74219m13.02735-1.60938l-5.90625 3.8086m19.20703-3.82813l-5.8789 3.84766m5.02343-3.28906l1.07812.58984m13.29688-.79687l-6.28516 3.14453m5.3711-2.6875l1 .71093m13.47265-.53906l-6.76953 1.88672m5.78516-1.61328l.84375.89062m13.36328-1.4453l-6.58594 2.44921m5.6289-2.08984l.91798.8125m12.875-2.04688l-5.62891 4.19922m4.8125-3.58984l1.10938.52343m12.41015-1.76953l-4.40625 5.47266m3.76563-4.67578l1.20703.23047m13.1875-.60547l-5.28516 4.6289m4.51563-3.95703l1.14843.4336m13.45704-.32032l-6.32422 3.0586m5.40625-2.61328l.98828.72656m13.59375.26953l-7.02344.17969m6.0039-.15625l.60157 1.07031m13.69922-1.5l-6.95703.98828m6.95703-.98828l1.44531 1.98438m11.67578-2.7461l-6.5664 2.51172m6.5664-2.51172l1.84766 1.61328m11.65234-.92187l-6.9375 1.1289m6.9375-1.1289l1.48438 1.95312m11.8125-.73437l-6.90235-1.3086m5.89844 1.1211l.36328 1.17187m13.49219-3.48828l-5.97266 3.69922m5.10547-3.16016l1.0586.6172m9.86718-2.8086l.53907 7.0039m-.53907-7.0039l2.07422-1.3164m8.00781 4.52734l7.00391.58203m-5.98437-.4961l-.48438-1.1289"/><g clip-path="url(#N)"><path fill="none" stroke="#000" stroke-linecap="round" stroke-linejoin="round" stroke-miterlimit="10" stroke-width=".5" d="M147.51172 453.82031l-7.02344-.24219"/></g><path fill="none" stroke="#000" stroke-linecap="round" stroke-linejoin="round" stroke-miterlimit="10" stroke-width=".5" d="M147.51172 453.82031l1.07422 2.20703m12.1875-2.9414l-6.91797 1.22265m6.91797-1.22265l1.51172 1.9336m11.84375-1.63673l-7 .63281m5.98047-.53906l.67187 1.02735m13.59375-.05079l-6.85938-1.51171m6.85938 1.51171l.66016 2.3672m12.58593-2.10157l-6.72265-2.04297m6.72265 2.04297l.47266 2.41016m12.92969-2.75782l-6.89453-1.34765m6.89453 1.34765l.71484 2.34766m12.6211-3.5664l-6.94141 1.09374m6.9414-1.09375l1.47657 1.96094m11.34765-3.28125l-5.95312 3.73438m5.95312-3.73438l2.125 1.22266m10.41016-2.09766l-4.39453 5.48438m4.39453-5.48438l2.41016.45313m11.40234.03515l-5.39063 4.50781m5.39063-4.5078l2.27344.92187m11.07422-.88282l-5.45703 4.4297m5.45703-4.4297l2.2578.95313m11.3047-.60547l-5.95313 3.73047m5.95313-3.73047l2.1289 1.22656m11.07032-1.39843l-5.71875 4.07812m5.71875-4.07812l2.1953 1.09375m10.67579-1.60938l-4.83203 5.10547m4.1289-4.35938l1.1836.32422m12.55078-1.30859l-4.26563 5.58203m3.64454-4.76953l1.21093.19922m12.92578-.84766l-4.66406 5.2539m3.98438-4.48827l1.1953.28906m13.7461.3125l-6.5586 2.51953m5.60548-2.15234l.92578.80468m13.04687 1.94532l-5.96484-3.71094m5.09766 3.17187l-.08594 1.22266m10.95703.95703l.65625-6.9961m-.5625 5.98048l-1.13281.47265m14.85156.5547l-.33984-7.01954m.33984 7.01953l-2.10937 1.2539m16.37109-1.42968l-2.23047-6.66406m1.90625 5.69531l-.84766.88672m15.09375-.1875l-3.4453-6.125m2.9453 5.23437l-.66406 1.03125m15.72266-1.32422l-5.9336-3.7578m5.9336 3.7578l-.1836 2.44532m12.16797-7.4336l-3.27343 6.21875m3.27343-6.21875l2.45703-.0078m-2.93359.91405l1.22656-.0078m7.72266 3.64843l6.41016-2.8789m-5.47657 2.46093l-.96875-.75"/><g clip-path="url(#O)"><path fill="none" stroke="#000" stroke-linecap="round" stroke-linejoin="round" stroke-miterlimit="10" stroke-width=".5" d="M147.5 440.08203l-7 .60547"/></g><path fill="none" stroke="#000" stroke-linecap="round" stroke-linejoin="round" stroke-miterlimit="10" stroke-width=".5" d="M147.5 440.08203l1.33594 2.0586m11.94922-2.31641l-6.9375 1.11719m6.9375-1.1172l1.48047 1.95704m11.87109-1.6211l-7.01172.44923m7.01172-.44922l1.28906 2.08593m-2.3086-2.02343l.64454 1.04687m13.6914-.71484l-7.01562-.34375m7.01563.34375l1.04687 2.22265m-2.0664-2.26953l.52343 1.10938m13.73438-1.99219l-6.86328 1.51953m6.86328-1.51953l1.59375 1.86719m-2.59375-1.64844l.79687.9336m13.52344-1.13282l-6.8711 1.48047m6.8711-1.48047l1.58203 1.875m-2.58203-1.66015l.78906.9375m13.45703-1.41016l-6.73828 1.99219m6.73828-1.9922l1.72266 1.75m-2.70313-1.46093l.86328.875m13.32813-1.47266l-6.52344 2.61329m6.52344-2.61328l1.875 1.58203M253.5 438.51953l-5.95703 3.72656m5.95703-3.72656l2.125 1.22656m10.14063-2.29687l-3.85938 5.8711m3.85938-5.8711l2.4453.22656m11.21876.03125l-4.55469 5.35156m3.89063-4.5703l1.19921.26171m13.35938-.41016l-5.71485 4.08985m4.88282-3.4961l1.09765.54688m13.01953-1.17969l-5.65625 4.16406m5.65625-4.16406l2.21485 1.0625m10.97265-1.22656l-5.40234 4.49219m5.40234-4.4922l2.27344.9297m10.88281-1.10938l-5.08593 4.85156m5.08593-4.85156l2.32813.77344m10.41797-1.2539l-3.94531 5.8164m3.37109-4.97266l1.21875.13282m12.92187-.78907l-4.44921 5.4414m3.80078-4.65233l1.20312.24218m11.40235 5.09375l-1.73438-6.8125m1.48047 5.82032l-.90625.82812m11.33984-.5586l4.53907-5.36718m-3.87891 4.58594l-1.19922-.25782m13.27344.41016l5.69922-4.10937m-4.8711 3.51171l-1.10156-.53906m13.4961 1l5.88671-3.83594m-5.88672 3.83594l-2.14843-1.1875m3.0039.6289l-1.07422-.59374m14.66016 2.2461l3.6289-6.01954m-3.6289 6.01953l-2.44922-.13281m19.01953.32812l-2.8789-6.41015m2.8789 6.41015l-1.5039 1.9375m1.08593-2.87109l-.75.96875m16.06641-1.44922l-6.04687-3.58203m6.04687 3.58203l-.11328 2.44922m9.11719-.97266l2.57812-6.53906m-2.20312 5.58594l-1.21875.14062"/><g clip-path="url(#P)"><path fill="none" stroke="#000" stroke-linecap="round" stroke-linejoin="round" stroke-miterlimit="10" stroke-width=".5" d="M147.30078 425.86328l-6.60156 2.41016"/></g><path fill="none" stroke="#000" stroke-linecap="round" stroke-linejoin="round" stroke-miterlimit="10" stroke-width=".5" d="M147.30078 425.86328l1.82422 1.64063m-2.78516-1.28907l.91407.81641m13.40234-1.05078l-6.6836 2.17578m6.6836-2.17578l1.76563 1.70703m11.71875-.73047l-7.02344.22266m7.02344-.22266l1.22265 2.1289m12.0586-2.51952l-6.95313 1.0039m6.95313-1.0039l1.44921 1.98047m-2.46093-1.83204l.72656.98828m13.57031-1.3125l-6.89453 1.35547m6.89453-1.35547l1.55078 1.90235m-2.55469-1.70703l.77735.95312m13.54687-1.125l-6.90234 1.3086m6.90234-1.3086l1.53516 1.91406m11.82422-1.60156l-6.99219.6836m6.99219-.6836l1.35937 2.04688m11.96094-2.01563l-7 .6211m7-.6211l1.33594 2.05469m11.5664-3.41797l-6.17968 3.34766m6.17969-3.34766l2.04687 1.35938m11.21484-1.45313l-6.07422 3.53516m6.07422-3.53516l2.08594 1.29297M279.25 424.25l-4.19922 5.63672m3.58594-4.8164l1.21484.18359m13.2539-.50782l-5.27733 4.64453m19.10937-3.86328l-6.3125 3.08203m5.39453-2.6328l.99219.71874m13.0664-1.48437l-5.96484 3.71484m5.96485-3.71484l2.125 1.22656m11.14062-1.30469l-5.86328 3.8711m5.00781-3.3086l1.07813.58594m11.61718-2.41016l-2.91406 6.39453m2.91406-6.39453l2.44922-.14843m10.52735.01562l-2.23828 6.66016m1.91406-5.6914l1.21094-.19923m8.6914.21485l5.23438 4.6914M368.5 425.40625l.29297-1.1914m13.22266 5.95312l3.3125-6.19922m-3.3125 6.19922l-2.45313-.00781m14.76172-.80079l5.32422-4.58203m-4.55078 3.91797l-1.14063-.44531m13.89844 1.33984l4.89062-5.04297m-4.89062 5.04297l-2.35938-.67968m15.61329.62109l5.01562-4.92578m-5.01562 4.92578l-2.33985-.73828m3.07031.01953l-2.33984-.73828m15.14063 1.66015l4.58203-5.33203m-4.58203 5.33203l-2.39454-.53906m3.0625-.23828l-2.39453-.53516m15.95313 1.87891l2.75781-6.46484m-2.75781 6.46484l-2.44531.20703m2.84765-1.14844l-1.22265.10547m13.05078.10938l4.92968-5.01172m-4.21484 4.28125l-1.17578-.34766"/><g clip-path="url(#Q)"><path fill="none" stroke="#000" stroke-linecap="round" stroke-linejoin="round" stroke-miterlimit="10" stroke-width=".5" d="M147.32422 412.61328l-6.64844 2.28125"/></g><path fill="none" stroke="#000" stroke-linecap="round" stroke-linejoin="round" stroke-miterlimit="10" stroke-width=".5" d="M147.32422 412.61328l1.79297 1.67578m-2.76172-1.34375l.89844.83985m13.46093-.91407l-6.80078 1.76563m6.80078-1.76563l1.66016 1.8047m-2.64844-1.55079l.82813.90625m13.57031-.63672l-6.98828.71875m6.98828-.71875l1.36719 2.03516m-2.38281-1.9336l.68359 1.01954m13.66406-.76172h-7.02344m7.02344 0l1.15234 2.16797m11.88672-3.53907l-6.46875 2.74219m6.46875-2.74219l1.90625 1.54297m11.6836-.26953l-7.02344.19531m6.0039-.16797l.60548 1.06641m13.1289.97266l-5.82031-3.9375m4.97266 3.36328l-.12891 1.22265M240.5 414.98047l-6.58594-2.45313m6.58594 2.45313l.32031 2.42969m13.15625-4.28907l-6.91406 1.26563m6.91406-1.26563l1.52344 1.92579m11.52734-2.76172l-6.3828 2.9375m6.3828-2.9375l1.95313 1.48437m11.03906-2.04297l-5.73828 4.05469m5.73828-4.05469l2.1914 1.10547m9.1797-2.46875l-1.85157 6.78125m1.58203-5.79297l1.19922-.27343m9.91797-.48047l3.08594 6.3125m-2.63672-5.39453l.71875-.9922m16.54688 1.1836l-5.71485 4.09375m4.88281-3.4961l1.09766.54298m12.9375-1.28516l-5.49219 4.38281m4.6914-3.7461l1.12892.48829m11.96484-1.9961L342 416.8164m3.44922-6.125l2.45312.0586m10.01563-.39844l-1.7539 6.80469m1.7539-6.80469l2.38672-.57422m8.5625.79297l2.97656 6.36719m-2.54297-5.4414l.73438-.98047m11.71093.29687l3.84766 5.8789m-3.28516-5.02343l.58985-1.07422m13.53906-.3086l1.09766 6.9375m-1.09766-6.9375l1.95703-1.48046m-1.79687 2.48828l.97656-.73828m10.4414.52734l4.57032 5.33985m-3.90235-4.5625l.44532-1.14063m11.15625 1.91797l6.66406 2.23437m-6.66406-2.23437l-.40235-2.41797m1.3711 2.74219l-.20313-1.21094m12.59766.7539l6.5664 2.5m-6.5664-2.5l-.3086-2.43359m1.26172 2.79688l-.15234-1.21485m12.89844 4.08594l5.79687-3.97265m-5.79687 3.97265l-2.17578-1.13281m3.01953.55469l-2.17578-1.13282m14.03515-.41015l7.02344.27344m-7.02344-.27344l-1.0664-2.21094"/><g clip-path="url(#R)"><path fill="none" stroke="#000" stroke-linecap="round" stroke-linejoin="round" stroke-miterlimit="10" stroke-width=".5" d="M147.47266 399.90625l-6.94532 1.0625"/></g><path fill="none" stroke="#000" stroke-linecap="round" stroke-linejoin="round" stroke-miterlimit="10" stroke-width=".5" d="M147.47266 399.90625l1.46875 1.96875m-2.48047-1.8125l.73437.98438m13.61328-.9922l-6.98437.76563m6.98437-.76562l1.37891 2.02734m-2.39453-1.91406l.6875 1.01172m13.65234-1.02344l-7.0039.5625m7.0039-.5625l1.32031 2.0664M187.25 399.2422l-6.60938 2.39062m5.64844-2.04297l.91016.82422m12.44922-2.55469l-4.77735 5.15625m4.77735-5.15625l2.3711.62891m7.05077-1.22265l3.01172 6.34765m-2.57422-5.42578l.73047-.98438m12.35156 6.5l2.60157-6.52734m-2.22266 5.57813l-1.21875.1328m18.26953-.34374l-5.6289-4.20703m4.80859 3.59375l-.1875 1.21484m14.98437-3.22265l-6.94922 1.03515m5.9375-.88672l.73047.98828m13.42578-1.8164l-6.60937 2.39453m6.60938-2.39453l1.8203 1.64453m11.48438-1.66406l-6.58984 2.43359m6.58984-2.4336l1.83203 1.63282m10.82422-2.74219l-5.27344 4.64844m5.27344-4.64844l2.29688.86719m10.0586-1.6289l-3.35548 6.17577m2.86719-5.27734l1.22656.01172m7.42188 2.66406l6.95703-.97656m13.35156.53125l-7.02734-.08203m6.0039.07031l.5625 1.08984m12.15235-4.08203l-3.78516 5.92188m3.78516-5.92188l2.44531.19531m11.96875.92188l-5.98047 3.6875m5.98047-3.6875l2.11719 1.24219m-2.98828-.70313l1.05859.61719m13.65234.71484l-7.02734-.05078m7.02734.05078l1.13672 2.17188m11.42969-4.36328l-5.53125 4.33203m5.53125-4.33203l2.24219.99219m-3.04688-.36329l1.1211.4961m11.42578-2.26563l-2.38672 6.60938m2.38672-6.60938l2.42968-.34765m11.10938.4375l-2.83594 6.42968m2.83594-6.42968l2.44531-.1797m10.36719.00392l-1.83203 6.78515m1.83203-6.78515l2.39453-.54688m-2.66016 1.53516l1.19532-.27735m10.63672-.73437l1.66796 6.82812m-1.42578-5.83203l.91797-.8164m10.00781 5.09375l5.96094-3.71875m-5.96094 3.71875l-2.125-1.22657m15.01954.2539l6.80078-1.76952m-5.8086 1.51172l-.83203-.90625"/><g clip-path="url(#S)"><path fill="none" stroke="#000" stroke-linecap="round" stroke-linejoin="round" stroke-miterlimit="10" stroke-width=".5" d="M147.51172 387.16016l-7.02344-.07422"/></g><path fill="none" stroke="#000" stroke-linecap="round" stroke-linejoin="round" stroke-miterlimit="10" stroke-width=".5" d="M147.51172 387.16016l1.1289 2.17968m-2.14843-2.1875l.5625 1.08985m13.14844-3.1211l-5.77344 4.00391m5.77344-4.0039l2.17968 1.125m10.26172-2L168.61328 390m4.03125-5.7539l2.4375.29687m12.04297 1.08594l-6.35938 2.99218m5.4336-2.55859l.98047.73438m13.48828-.52735l-6.8164 1.70703m6.8164-1.70703l1.64453 1.82031m11.66016-1.85937l-6.79688 1.78515m6.79688-1.78515l1.66406 1.80469m9.5664-4.17188l-2.625 6.51953m2.625-6.51953l2.44141-.25781m9.04297 6.99219l1.03516-6.94922m-.88672 5.9375l-1.15625.41015m18.33984-2.53515l-6.9961-.67578m6.9961.67578l.9375 2.26953M266.8086 385.25l-5.9453 3.7461m5.9453-3.7461l2.12891 1.21875m-2.9961-.67188l1.06641.60938m13.1836-1.04688l-6.08203 3.52735m6.08203-3.52735l2.08203 1.29688m11.20312-1.34375l-6.02343 3.6211m6.02343-3.6211l2.10547 1.26172m-2.98047-.73438l2.10157 1.26172m12.4453-.97265l-6.73827 1.98828m6.73828-1.98828l1.71875 1.75m-2.69531-1.46094l1.71484 1.75m12.70312-.66406l-6.98828-.76172m6.98828.76172l.91016 2.27734m-1.92578-2.38672l.45312 1.13672m13.8125-2.17969l-6.85546 1.54297m6.85546-1.54297l1.59766 1.86328m-2.59766-1.63671l1.60157 1.85937m12.6914-2.17578l-6.8125 1.72265m6.8125-1.72265l1.64844 1.8164m-2.64062-1.5664l.82421.91015M360.3711 386l-6.66015 2.2461M360.37109 386l1.78125 1.6836m-2.75-1.35548l1.78125 1.6836m12.21485-2.64844l-6.08203 3.51953m6.08203-3.51953l2.08203 1.29688m-2.96875-.78516l2.08203 1.29688m11.3125-2.75782l-4.47266 5.41797m4.47266-5.41797l2.40625.48828m-3.05469.30079l1.19922.24218m12.51172-1.22265l-3.96484 5.80078m3.96484-5.80078l2.4375.26953m-3.01562.57422l1.21875.13671m12.78906-.89843l-4.1914 5.64062m4.1914-5.64062l2.42578.36719m-3.03906.45312l2.42968.36719m11.27344-1.34375l-3.74219 5.94922m3.7422-5.94922l2.4453.17969m-2.99218.6875l1.22656.08984m14.1875 2.80469l-6.84766-1.57422m19.71485 2.65625l-5.94922-3.73828m5.94922 3.73828l-.1797 2.44922m13.66798-2.76563l-6.30078-3.10547m6.30078 3.10547l.07812 2.45313m-.99218-2.90235l.07421 2.45313m-.99218-2.90625l.07422 2.45312"/><g clip-path="url(#T)"><path fill="none" stroke="#000" stroke-linecap="round" stroke-linejoin="round" stroke-miterlimit="10" stroke-width=".5" d="M147.05469 372.07031l-6.10938 3.47656"/></g><path fill="none" stroke="#000" stroke-linecap="round" stroke-linejoin="round" stroke-miterlimit="10" stroke-width=".5" d="M147.05469 372.07031l2.07031 1.3125m10.39844-2.3086l-4.41797 5.46876m4.41797-5.46875l2.41015.46484m-3.05468.33203l2.41015.46485m11.1914-1.51563l-3.69921 5.97656m3.69922-5.97656l2.44922.16016m-2.98828.71094l1.22265.07812m14.1875 2.89844l-6.8125-1.71875m6.8125 1.71875l.58594 2.38281m-1.57813-2.63281l.29297 1.1914m14.1211-1.78515l-7.02735-.03125m7.02735.03125l1.14453 2.16797m10.86719-4.91406l-4.42188 5.46093m4.42188-5.46094l2.41015.46875m11.97656 1l-6.5625 2.51954m6.5625-2.51954l1.85157 1.60938m-2.8086-1.24219l1.85157 1.60938m12.52343.23047l-6.76953-1.89063m6.76953 1.89063l.52344 2.39843m-1.50781-2.67187l.52344 2.39453m-1.50782-2.67188l.26172 1.19922m15.03516-2.49609l-6.79297 1.80469m6.79297-1.80469l1.66797 1.79688m-2.65625-1.53516l1.66797 1.80078M267 372.27735l-6.32813 3.05859M267 372.27734l1.98047 1.45313m-2.90235-1.00781l1.98047 1.44921m12.21094-1.98437l-6.23437 3.24219m6.23437-3.24219l2.01953 1.39063m-2.92969-.91797l2.02344 1.39062m12.59375-.34375l-7.02344.20313m7.02344-.20313l1.21485 2.1289m-2.23438-2.10156l.60547 1.06641m13.58203-2.0039l-6.73047 2.02343m6.73047-2.02344l1.72656 1.7422m-2.70312-1.44923l.86328.8711m13.0586-1.98828l-5.98829 3.67187m5.98828-3.67187l2.1172 1.24609m-2.98829-.71094l1.0586.6211m13.63671.40234l-7.0039.55078m7.0039-.55078l1.3164 2.07031m-2.33593-1.98828l.66016 1.03516m13.59765-1.61328l-6.85547 1.54296m6.85547-1.54296l1.60157 1.86328m-2.59766-1.63672l.80078.92969m13.4375-1.4297l-6.70703 2.09376m6.70703-2.09375l1.7461 1.72656m-2.72266-1.42187l1.7461 1.72656m12.46093-2.26953l-6.53906 2.57031m6.53906-2.57031l1.86719 1.59375m-2.8164-1.22266l1.86327 1.59766m11.8711-2.88672l-5.47657 4.40234m5.47657-4.40234l2.2539.96875m-3.05078-.32813l1.1289.48438m12.35157-1.73438l-4.21484 5.6211m4.21484-5.6211l2.42578.37891m-3.03906.4414l1.21094.1875m13.4414-.27734l-5.66015 4.16406m5.66015-4.16406l2.21094 1.0625m-3.03516-.45703l1.10547.53125m13.66797.36328l-6.92969 1.16016m6.9297-1.16016l1.49218 1.94922m-2.5-1.77734l1.49219 1.94531m12.875-1.33984l-7.01954-.39063m7.01954.39063l1.02734 2.23046m-2.05078-2.28515l1.03125 2.22656m-2.05078-2.28515l1.02734 2.22656m13.97656-.76563l-6.3125-3.08984m6.3125 3.08984l.08203 2.45313m-1-2.90235l.08204 2.45313m-1-2.90235l.08203 2.45313m15.16015-1.75781l-6.49609-2.67969m6.4961 2.67969l.23827 2.4414m-1.18359-2.83203l.23828 2.44531m-1.1836-2.83593l.1211 1.22265"/><g clip-path="url(#U)"><path fill="none" stroke="#000" stroke-linecap="round" stroke-linejoin="round" stroke-miterlimit="10" stroke-width=".5" d="M146.96875 358.61719l-5.9375 3.7539"/></g><path fill="none" stroke="#000" stroke-linecap="round" stroke-linejoin="round" stroke-miterlimit="10" stroke-width=".5" d="M146.96875 358.61719l2.13281 1.21484m10.44531-2.05469l-4.46093 5.4297m4.46094-5.4297l2.40625.48829m-3.0547.30468l2.40235.48438m12.67188.35547l-6.6836 2.16796m6.6836-2.16796l1.76562 1.70312M173 359.72656l1.76563 1.70313m12.67578-1.28516l-6.9922.69922m6.9922-.69922l1.36328 2.03906m-2.3789-1.9375l1.35937 2.03907m12.82812-2.83985l-6.70703 2.09766m6.70703-2.09766l1.7461 1.72266m-2.72266-1.41797l1.7461 1.72266m12.70312-1.15235l-7.01953.34766m7.01953-.34766l1.25781 2.10547m-2.28125-2.05469l1.25781 2.10547m-2.27734-2.05469l1.25781 2.10547m14.09766-2.24218l-7.01563.41796m7.01563-.41796l1.27734 2.09375m-2.29687-2.03516l1.27734 2.09375m-2.30078-2.03125l1.28125 2.09375m14.08203-2.00781h-7.02734m7.02734 0l1.15234 2.16797m-2.17578-2.16797l1.15235 2.16797m-2.17188-2.16797l1.15234 2.16797m14.12891-2.90625l-6.8711 1.48046m6.8711-1.48046l1.58203 1.875m-2.58203-1.66016l1.58203 1.875m-2.58203-1.66016l.78906.9375m14.22657-2.21093l-6.27344 3.16796m6.27344-3.16796l2.0039 1.41406m-2.91797-.95313l2.00391 1.41407m-2.91406-.95313l1 .70703m14.04687-1.80078l-6.08984 3.50781m6.08984-3.5078l2.07813 1.30468m-2.96485-.79297l2.08204 1.30078m-2.96875-.78906l1.04296.64844m14.46485-.51172l-6.92578 1.1875m6.92578-1.1875l1.5 1.9414m-2.50781-1.76953l1.5 1.9414m12.82812-2.0664l-6.9414 1.09766m6.9414-1.09766l1.47656 1.96094m-2.48437-1.80078l1.47656 1.96094m12.74219-2.58204L313.73047 361.5m6.73047-2.01563l1.72656 1.7461m-2.70703-1.45313l1.72656 1.7461m12.6289-1.8086l-6.85155 1.5547m6.85156-1.5547l1.60547 1.85938m-2.60157-1.63281l1.60157 1.85937m12.76562-1.78906l-6.96094.96094m6.96094-.96094L348.64453 362m-2.44922-1.84766l.71875.9961m13.61328-1.09375l-6.97265.8789m6.97265-.8789l1.41407 2.0039m-2.4297-1.8789l.70704 1.0039m13.51563-1.65234l-6.75782 1.92578m6.75782-1.92578l1.70312 1.76563m-2.6836-1.48438l1.69923 1.76563m12.23828-2.88282l-6.03907 3.59766m6.03907-3.59766l2.09765 1.26953m-2.97656-.74609l2.09766 1.26953m12.01562-1.91797l-5.8789 3.84766m5.8789-3.84766l2.15235 1.17969m-3.00782-.6211l1.07422.58985m13.5039-.30078l-6.6914 2.14844m6.6914-2.14844l1.75782 1.71094m-2.73437-1.39844l1.76171 1.71094m12.69532-.9336l-7.02735-.03125m7.02735.03125l1.14453 2.17188m-2.16406-2.17578l1.14062 2.17187M425.08594 360.5l1.14062 2.17188m14.21094-1.96875l-7.01172-.42188m7.01172.42188l1.01953 2.23437m-2.03906-2.29297l1.01953 2.23047m-2.03906-2.29297l1.01953 2.23047m14.33594-2.10156l-7.01563-.4336m7.01563.4336l1.01562 2.23047m-2.03515-2.29688l1.01562 2.23438m-2.03906-2.29688l1.01953 2.23438m14.33984-2.14454l-7.01953-.35546"/><g clip-path="url(#V)"><path fill="none" stroke="#000" stroke-linecap="round" stroke-linejoin="round" stroke-miterlimit="10" stroke-width=".5" d="M467.07031 360.67188l1.04297 2.21875"/></g><path fill="none" stroke="#000" stroke-linecap="round" stroke-linejoin="round" stroke-miterlimit="10" stroke-width=".5" d="M466.05078 360.61719l1.03906 2.22265m-2.0625-2.27343l.52344 1.11328"/><g clip-path="url(#W)"><path fill="none" stroke="#000" stroke-linecap="round" stroke-linejoin="round" stroke-miterlimit="10" stroke-width=".5" d="M147.19922 345.73047l-6.39844 2.89453"/></g><path fill="none" stroke="#000" stroke-linecap="round" stroke-linejoin="round" stroke-miterlimit="10" stroke-width=".5" d="M147.19922 345.73047l1.94531 1.4961m10.4961-2.6797l-4.65235 5.26563m4.65234-5.26563l2.38672.57032m-3.0625.19531l1.19141.28516m13.96094 1.16015l-6.97656.83985m6.97656-.83985l1.40625 2.01172m-2.42188-1.89062l1.40625 2.01171m12.91797-1.21875l-6.96094-.98437m6.96094.98438l.83594 2.30468m-1.85156-2.44922l.83984 2.3047m-1.85156-2.44923l.83984 2.3086m-1.85156-2.44922l.41797 1.15234m15.9375-.74219l-6.96485-.94921m6.96485.94921l.84765 2.3047m-1.86328-2.44142l.85156 2.30079m-1.86328-2.4375l.42578 1.14843m14.90625-1.89843l-6.9414 1.09765m6.9414-1.09765l1.47657 1.96093m-2.48828-1.80078l1.47656 1.96094m-2.48438-1.80078l.73828.98047m14.42188-1.96875l-6.59375 2.4336m6.59375-2.4336l1.83203 1.63281m-2.79297-1.28125l1.83203 1.63281m-2.78906-1.27734l.91406.8164m14.25782-1.67968l-6.46875 2.7461m6.46875-2.7461l1.90625 1.54297M239.5 346.20312l1.90625 1.54688m12.41406-1.78125l-6.59765 2.41797m6.59765-2.41797l1.82813 1.63672m-2.78906-1.28516l1.82812 1.63672m12.46094-1.95312l-6.625 2.35156m6.625-2.35156l1.8086 1.65625m-2.77345-1.31641L267.9922 348m12.4375-2.08594l-6.5586 2.52735m6.5586-2.52735l1.85156 1.60938m-2.80469-1.23828l.92578.80078m13.53907-.41406l-6.95313 1.01171m6.95313-1.01171l1.45312 1.98046m-2.46484-1.83203l.72656.98828m13.5625-1.35546l-6.875 1.44921m6.875-1.44921l1.57422 1.8828m-2.57422-1.67187l.78516.9414m13.22265-2.01952l-6.26172 3.1836m6.26172-3.1836l2.01172 1.41015m-2.92187-.9453l2.0078 1.40624m12.02345-2.20703l-5.875 3.85547m5.875-3.85547l2.15234 1.17969m-3.0039-.61719l2.14843 1.17969m-3.0039-.6211l1.07421.58985m14.52344.34375l-7.02344-.2539m7.02344.2539l1.07031 2.20703m-2.09375-2.24219l1.07422 2.20703m13.1836-1.54297l-6.86328-1.51171m6.86328 1.51171l.66015 2.36329m-1.66015-2.58204l.66015 2.36329m13.69532-3.4336l-6.94532 1.0664m6.94532-1.0664l1.46875 1.96875m-2.47657-1.8125l1.46485 1.96485m12.85937-2.125l-6.94531 1.07421m6.94531-1.07421l1.46875 1.96484m-2.48047-1.8086l1.46875 1.96485m12.73828-2.63672l-6.70703 2.10547m6.70703-2.10547l1.7461 1.71875m-2.72266-1.41406l1.75 1.72265m12.6211-1.71875l-6.8672 1.48829m6.8672-1.48829l1.58593 1.8711m-2.58593-1.65625l1.58593 1.875m-2.58203-1.65625l.79297.9375m14.58984-.86328l-7.01171.47265m7.01171-.47265l1.29688 2.08593m-2.3164-2.01562l1.29687 2.08203m-2.3164-2.01563l1.29296 2.08594m14.0625-2.19531l-7.01172.41797m7.01172-.41797l1.28125 2.09766m-2.30078-2.03516l1.27734 2.09375m-2.29687-2.03516l1.27734 2.09766m14.05469-2.46094l-6.96875.90235m6.96875-.90235l1.42187 2.0039m-2.43359-1.87108l1.41797 2m-2.4336-1.8711l1.42188 2.0039m-2.4375-1.87109l.71094 1m15.60937-1.6289l-6.89062 1.3711"/><g clip-path="url(#X)"><path fill="none" stroke="#000" stroke-linecap="round" stroke-linejoin="round" stroke-miterlimit="10" stroke-width=".5" d="M467.00781 346.49219l1.55078 1.90234"/></g><path fill="none" stroke="#000" stroke-linecap="round" stroke-linejoin="round" stroke-miterlimit="10" stroke-width=".5" d="M466.0039 346.6914l1.5547 1.90235m-2.5547-1.70313l1.55079 1.90235"/><g clip-path="url(#Y)"><path fill="none" stroke="#000" stroke-linecap="round" stroke-linejoin="round" stroke-miterlimit="10" stroke-width=".5" d="M147.44922 333.20313l-6.89844 1.3203"/></g><path fill="none" stroke="#000" stroke-linecap="round" stroke-linejoin="round" stroke-miterlimit="10" stroke-width=".5" d="M147.44922 333.20313l1.53906 1.91015m11.35547-3.02734l-6.0586 3.55469m6.0586-3.5547l2.08984 1.28516m11.54688 1.5547l-6.69922-2.125m6.69922 2.125l.4414 2.41015m-1.41796-2.71875l.4453 2.41015m-1.41796-2.71875l.4414 2.41016m14.96094-2.42969l-6.97656-.85547m6.97656.85547l.87891 2.29297m-1.89453-2.41406l.8789 2.28906m-1.89453-2.41406l.87891 2.28906m14.48438-2.6875l-7.01172.4375m7.01172-.4375l1.28515 2.08985m-2.30469-2.02735l1.28516 2.09375m12.78125-3.30469l-6.47266 2.73438m6.47266-2.73438l1.90234 1.54688m-2.84375-1.14844l1.90235 1.54688m-2.84375-1.14844l.94922.77344m13.67578-2.4922l-5.33203 4.57813m5.33203-4.57812l2.28515.89453m-3.05859-.22656l2.28516.89062m11.22265-2.09765l-4.16797 5.65625m4.16797-5.65625l2.42578.35546m-3.03125.46485l2.42578.35937m11.62891-1.07812l-4.4336 5.45312m4.4336-5.45312l2.40625.47265m-3.05078.32032l1.20313.23828m13.33203-.4375l-5.58594 4.26562m5.58594-4.26562l2.23047 1.02344m11.625.0039l-6.66797 2.21094m6.66797-2.21094l1.77734 1.69531m11.55469.47266l-6.69922-2.125m6.69922 2.125l.4414 2.41016m-1.41797-2.71875l.22266 1.20703m14.20703-1.55078l-6.97656-.82031m6.97656.8203l.89453 2.28516m12.21094-3.95312l-6.5586 2.51562m6.5586-2.51562l1.85156 1.60937m-2.80469-1.24218l1.85157 1.60937m12.32812-2.19531l-6.3789 2.95312m6.3789-2.95312l1.95313 1.48437m-2.88282-1.05468l1.95704 1.48437m-2.88672-1.05469l.98047.7422m14.5078-.38673l-7.0078.51953m7.0078-.51953l1.3086 2.07813m-2.32812-2l1.3086 2.07422m12.92577-1.02344l-6.8086-1.73438m6.8086 1.73438l.58203 2.38672m-1.57422-2.63672l.29297 1.1914m14.10547-2.16406l-6.99219.71094m6.9922-.71094l1.36718 2.03516m-2.38281-1.9336l1.36328 2.03907m-2.38281-1.9336l.68359 1.01954m14.6836-.77344l-7.02344-.19531m7.02343.1953l1.08985 2.19923m-2.11328-2.22657l1.09375 2.19532m13.19921-2.84766l-6.93359 1.16406m6.9336-1.16406l1.49218 1.94531m-2.5039-1.77734l.75.97656m13.59375-1.01953l-6.96875.91406m6.96875-.91406l1.42187 2m-2.4375-1.86719l1.42578 2m12.91406-2.0586l-6.98437.76173m6.98437-.76172l1.37891 2.03125m-2.39453-1.91797l1.3789 2.02734m-2.39453-1.91796l.6875 1.01562m14.65235-1.30078l-6.97266.89062m6.97266-.89062l1.41406 2.0039m-2.42969-1.875l1.41797 2.00391m-2.4336-1.875l1.41798 2.0039m13.85937-2.6289l-6.83594 1.625m6.83594-1.625l1.6211 1.84375m-2.61329-1.60547l1.6211 1.83985m-2.61719-1.60547l1.6211 1.84375m-2.6172-1.60547l.8125.91797m15.3672-2.02735l-6.59766 2.42188"/><g clip-path="url(#Z)"><path fill="none" stroke="#000" stroke-linecap="round" stroke-linejoin="round" stroke-miterlimit="10" stroke-width=".5" d="M466.85938 332.65234l1.82812 1.63672"/></g><path fill="none" stroke="#000" stroke-linecap="round" stroke-linejoin="round" stroke-miterlimit="10" stroke-width=".5" d="M465.90234 333.0039l1.82422 1.64063m-2.78515-1.28515l1.82812 1.63671"/><g clip-path="url(#aa)"><path fill="none" stroke="#000" stroke-linecap="round" stroke-linejoin="round" stroke-miterlimit="10" stroke-width=".5" d="M147.46094 321.15234l-6.92188-1.21093"/></g><path fill="none" stroke="#000" stroke-linecap="round" stroke-linejoin="round" stroke-miterlimit="10" stroke-width=".5" d="M147.46094 321.15234l.76172 2.33204m-1.76953-2.50782l.3828 1.16797m13.91016-.83594l-6.85937-1.52343m6.85937 1.52343l.65235 2.3672m-1.65235-2.58595l.65625 2.36329m-1.65234-2.58594l.32422 1.1836M174 321.53515l-6.74219-1.97657M174 321.53516l.4961 2.40625m-1.47657-2.69141l.4961 2.40234m-1.47657-2.6914l.4961 2.40234m14.91406-2.53515l-7.00781-.5625m7.0078.5625l.97267 2.2539m-1.9922-2.33594L187.40235 323m-1.99218-2.33594l.48828 1.1289m14.75-2.17968l-6.77344 1.86719m6.77344-1.86719l1.6836 1.78125m-2.67188-1.50781l1.6875 1.78125m-2.67188-1.51172l.84375.89063m14.01563-2.39063l-5.91797 3.78516m5.91797-3.78516l2.13672 1.20313m-2.9961-.65235l2.13672 1.20313m-3-.65235l1.07031.60156m13.53906-2.24609l-5.0625 4.8711m5.0625-4.8711l2.33204.76172m-3.06641-.05469l2.33203.76563m11.8164-1.36719l-5.2578 4.66016m5.2578-4.66016l2.29688.85547m-3.0625-.17969l2.29688.85938m12.0625-1.17579l-5.82031 3.9375m5.8203-3.9375l2.16798 1.15235m-3.01172-.57813l2.16797 1.14844m11.85547-1.91015l-5.54688 4.3125m5.54688-4.3125l2.23828 1.0039m-3.04688-.375l1.1211.5m13.3828-.52344l-6.30859 3.10157m6.3086-3.10157l1.98828 1.4375m11.07422 2.09766l-5.80078-3.96484m5.80078 3.96484l-.27344 2.4375m-.57031-3.01563l-.27344 2.44141m15.02344-3.46484l-6.98438-.76563m6.98438.76563l.91015 2.28125m-1.92578-2.39063l.90625 2.27735m13.40235-3.10938l-6.9375 1.11719m6.9375-1.11719l1.48046 1.95703m-2.49218-1.79297l1.48437 1.95313m-2.49219-1.79297l.73829.98047m14.46484-1.83985l-6.67578 2.19141m6.67578-2.1914l1.76953 1.6953m-2.74219-1.3789l1.76953 1.69922m-2.74218-1.3789l.88672.84765m14.46484-1.15625l-6.85938 1.53125m6.85938-1.53125l1.59375 1.86328m-2.59375-1.64062l1.59766 1.86328m12.78515-.98828l-6.9961-.66016m6.9961.66016l.9414 2.26562m12.38282-2.83984l-7.01172.48437m7.01172-.48437l1.29688 2.08203m-2.32032-2.01172l1.30078 2.08203m12.94141-2.75l-6.82422 1.67969m6.82422-1.67969l1.63672 1.82813m-2.6289-1.58204l1.63671 1.82813m12.73438-1.76563l-6.94922 1.06641m6.94922-1.0664l1.46484 1.96484m-2.47656-1.8086l.73437.98047m13.625-.41015l-7.01562-.39063m7.01562.39063l1.03125 2.22656m11.7422-.53906l-5.9336-3.76563m5.07031 3.21875l-.09375 1.22266m13.76172-5.07031l-4.91016 5.02343m4.19531-4.29296l1.1797.34765m13.67187.16797l-6.55469 2.53516m6.55469-2.53516l1.85547 1.60156m-2.8086-1.23437l1.85547 1.60547m12.00781-2.72657l-5.74609 4.04297"/><g clip-path="url(#ab)"><path fill="none" stroke="#000" stroke-linecap="round" stroke-linejoin="round" stroke-miterlimit="10" stroke-width=".5" d="M466.4336 318.52734l2.1914 1.10547"/></g><g clip-path="url(#ac)"><path fill="none" stroke="#000" stroke-linecap="round" stroke-linejoin="round" stroke-miterlimit="10" stroke-width=".5" d="M465.59766 319.11328l2.1914 1.10938"/></g><path fill="none" stroke="#000" stroke-linecap="round" stroke-linejoin="round" stroke-miterlimit="10" stroke-width=".5" d="M464.76172 319.70313l2.1914 1.10937"/><path fill="#00f" fill-rule="evenodd" d="M166.32031 472.08594h8.61719V461.9414h-8.61719v10.14453"/><path fill="azure" fill-rule="evenodd" d="M168.15234 463.77344h.83594v2.82422h3.28516v-2.82422h.83203v6.48047h-.83203v-2.91797h-3.28516v2.91797h-.83594v-6.48047"/><path fill="#ff3030" fill-rule="evenodd" d="M211.39844 445.45703h7.6914V435.3125h-7.6914v10.14453"/><path fill="azure" fill-rule="evenodd" d="M213.23047 437.14453h.83594v5.73828h3.1914v.74219h-4.02734v-6.48047"/><path fill="#ff3030" fill-rule="evenodd" d="M335.67188 441.01953h7.6953V430.8711h-7.6953v10.14844"/><path fill="azure" fill-rule="evenodd" d="M337.5039 432.70703h.83594v5.73828h3.19141v.73828h-4.02734v-6.47656"/><path fill="#00f" fill-rule="evenodd" d="M414.86719 436.57813h8.6211v-10.14454h-8.6211v10.14454"/><path fill="azure" fill-rule="evenodd" d="M416.70313 428.26563h.83203v2.82421h3.28515v-2.82421h.83594v6.48046h-.83594v-2.91406h-3.28515v2.91406h-.83204v-6.48046"/><path fill="#00f" fill-rule="evenodd" d="M219.58203 414.38672h8.61719v-10.14453h-8.61719v10.14453"/><path fill="azure" fill-rule="evenodd" d="M221.41406 406.07422h.83203v2.82422h3.28907v-2.82422h.83203v6.48047h-.83203v-2.91406h-3.28907v2.91406h-.83203v-6.48047"/><path fill="#ff3030" fill-rule="evenodd" d="M282.41406 401.07422h7.6914v-10.14844h-7.6914v10.14844"/><path fill="azure" fill-rule="evenodd" d="M284.2461 392.76172h.83202V398.5h3.19532v.73828h-4.02735v-6.47656"/><path fill="#00f" fill-rule="evenodd" d="M370.48438 401.07422h8.62109v-10.14844h-8.6211v10.14844"/><path fill="azure" fill-rule="evenodd" d="M372.3164 392.76172h.83594v2.82031h3.28516v-2.82031h.83203v6.47656h-.83203v-2.91406h-3.28516v2.91406h-.83593v-6.47656"/><path fill="#ff3030" fill-rule="evenodd" d="M433.3164 392.19531h7.69141v-10.14453h-7.6914v10.14453"/><path fill="azure" fill-rule="evenodd" d="M435.14844 383.88281h.83594v5.73828h3.1914v.7422h-4.02734v-6.48048"/><path fill="#ff3030" fill-rule="evenodd" d="M180.33203 365.5664h7.6914v-10.14452h-7.6914v10.14453"/><path fill="azure" fill-rule="evenodd" d="M182.16406 357.2539h.83203v5.73829h3.19532v.74219h-4.02735v-6.48047"/><path fill="#ffffe0" fill-rule="evenodd" d="M432.94531 454.5664H455.125v-10.1953h-22.17969v10.1953"/><path fill-rule="evenodd" d="M436.44531 446.20703h.50781V452.5h-.78515v-4.48828h-1.39063v-.55469l.5586-.0664.2539-.0547.23047-.08984.20313-.14062.17187-.21094.14453-.29297.10547-.39453m4.8125 0l.23047.01563.21875.05859.20703.08984.19531.1211.1836.14844.17187.17578.3047.41796.24218.4961.17969.54297.10937.58203.03906.58984-.03906.59375-.10937.58203-.1797.5547-.24218.5039-.30469.42578-.17187.17969-.1836.15625-.1953.12109-.20704.09375-.21875.05469-.23047.01953-.23047-.01953-.21875-.05469-.20703-.09375-.19531-.1211-.1836-.15624-.17187-.1797-.30469-.42577-.24218-.5039-.1797-.5547-.10937-.58203-.03906-.59375h.83203l.03125.5625.07813.50781.1289.44141.16016.375.1914.30078.21094.22266.22266.13672.22656.04687.22656-.04687.22266-.13672.21094-.22266.1914-.30078.16016-.375.1289-.4414.08204-.50782.02734-.5625-.02734-.5625-.08203-.5-.1289-.4336-.16017-.36718-.1914-.29297-.21094-.21484-.22265-.1289-.22657-.04688-.22656.04687-.22266.1289-.21093.21485-.19141.29297-.16016.36719-.1289.4336-.07813.5-.03125.5625h-.83203l.03906-.58985.10938-.58203.17969-.54297.24218-.4961.3047-.41796.17187-.17579.18359-.14843.19531-.1211.20703-.08984.21875-.0586.23047-.01562m5.08985 0h.51171V452.5h-.78906v-4.48828h-1.38672v-.55469l.5586-.0664.2539-.0547.22657-.08984.20703-.14062.17187-.21094.14063-.29297.10547-.39453m2.82421 2.17188h.78907l.01953-.3125.0586-.28907.09765-.25.14062-.21875.1836-.17187.22265-.1289.26563-.08204.30469-.02734.23828.02344.22656.0625.20313.10156.17968.13672.14844.17578.11328.20312.07031.23828.02735.26172-.02344.26953-.0664.22657-.10938.1914-.15625.17188-.19922.16015-.2461.16797-.63671.38672-.53516.3125-.4375.32031-.34765.32422-.26563.33594-.1875.34766-.125.37109-.07031.39453-.01953.41797h4.21093v-.74219h-3.33203l.08203-.28125.11329-.23828.14843-.19922.1875-.1836.23047-.16796.27735-.17578.71875-.41797.41406-.20703.34765-.23047.28125-.25.21875-.26563.16407-.28125.10937-.28125.0664-.28515.01954-.28125-.04297-.38281-.1211-.34766-.1875-.3086-.25-.26562-.30468-.21094-.34375-.16015-.38281-.09766-.40625-.03125-.4336.03125-.39844.09766-.35546.16797-.3047.23437-.24608.30469-.1875.375-.11329.44531-.04296.51563"/><path fill="#ffffe0" fill-rule="evenodd" d="M350.6211 383.78516h22.17968v-10.19141H350.6211v10.1914"/><path fill-rule="evenodd" d="M354.1211 375.42969h.5078v6.29297h-.78515v-4.48829h-1.39063v-.55859l.5586-.0625.2539-.05469.23047-.08984.20313-.14063.17187-.21093.14454-.29297.10546-.39453m4.8125 0l.23047.01562.21875.0586.20703.08984.19532.11719.18359.15234.17188.17578.30468.41797.24219.49219.17969.54687.10937.58204.03906.58984-.03906.59375-.10937.58203-.17969.55469-.24219.5039-.30469.42579-.17187.17968-.1836.15235-.1953.125-.20704.09375-.21875.05468-.23047.01954-.23046-.01954-.21875-.05468-.20704-.09375-.1953-.125-.1836-.15235-.17188-.17969-.30469-.42578-.24218-.5039-.17969-.55469-.10938-.58203-.03906-.59375h.83203l.03125.5625.07813.50781.1289.4414.16016.375.1914.30079.21094.21875.22266.14062.22656.04688.22657-.04688.22265-.14062.21094-.21875.1914-.30078.16016-.375.1289-.4414.08204-.50782.02734-.5625-.02734-.5625-.08203-.5-.1289-.4336-.16016-.36718-.19141-.29297-.21094-.21485-.22265-.1289-.22657-.04688-.22656.04688-.22265.1289-.21094.21485-.1914.29297-.16017.36719-.1289.43359-.07813.5-.03125.5625h-.83203l.03906-.58985.10938-.58203.17969-.54687.24219-.49219.30468-.41797.17188-.17578.1836-.15234.1953-.11719.20704-.08984.21875-.0586.23046-.01562m5.08985 0h.51172v6.29297h-.78907v-4.48829h-1.38671v-.55859l.55859-.0625.2539-.05469.22657-.08984.20703-.14063.17187-.21093.14063-.29297.10547-.39453m2.82422 2.17187h.78906l.01953-.3125.0586-.28906.09765-.25.14063-.21875.18359-.17188.22265-.1289.26563-.08203.30469-.02735.23828.02344.22656.0625.20313.10156.17968.13672.14844.17578.11328.20313.07031.23828.02735.26172-.02344.26953-.0664.22656-.10938.1914-.15625.17188-.19922.16016-.2461.16797-.63671.38672-.53516.3125-.4375.3164-.34765.32813-.26563.33594-.1875.34765-.125.3711-.07031.39453-.01953.41797h4.21094v-.7422h-3.33204l.08204-.28124.11328-.23828.14843-.20313.1875-.17969.23047-.17187.27735-.17578.71875-.41406.41406-.20704.34765-.23046.28125-.25.21875-.26954.16407-.27734.10937-.28125.0664-.28515.01954-.28125-.04297-.38282-.1211-.35156-.1875-.30469-.25-.26562-.30468-.21094-.34375-.16016-.3789-.09765-.41016-.03125-.4336.03125-.39843.09765-.35547.16797-.30469.23438-.2461.30469-.1875.37109-.11327.44922-.04297.51562"/><path fill="#ffffe0" fill-rule="evenodd" d="M244.10156 349.4336h22.17969v-10.19532h-22.17969v10.19531"/><path fill-rule="evenodd" d="M247.59766 341.07422h.51172v6.29297h-.78907v-4.48828h-1.38672v-.5547l.5586-.0664.2539-.05469.23047-.08984.20313-.14062.17187-.21094.14063-.29297.10547-.39453m4.8164 0l.22656.01562.22266.0586.20703.08984.19531.1211.1836.14843.17187.17578.30078.41797.2461.4961.17969.54296.10937.58204.03906.58984-.03906.59375-.10937.58203-.1797.55469-.24608.5039-.30079.42579-.17187.17968-.1836.15625-.1953.1211-.20704.09375-.22266.05469-.22656.01953-.23047-.01954-.21875-.05468-.20703-.09375-.19922-.1211-.18359-.15625-.17188-.17968-.30078-.42579-.24218-.5039-.1797-.55469-.11327-.58203-.03516-.59375h.83203l.02735.5625.08203.50781.125.4414.16406.375.1914.30079.21094.22266.22266.13671.22656.04688.22656-.04688.22266-.13671.21094-.22266.1914-.30078.16016-.375.125-.4414.08203-.50782.03125-.5625-.03125-.5625-.08203-.5-.125-.4336-.16016-.36718-.1914-.29297-.21094-.21094-.22266-.13281-.22656-.04688-.22656.04688-.22266.13281-.21093.21094-.19141.29297-.16406.36719-.125.43359-.08203.5-.02735.5625h-.83203l.03516-.58984.11328-.58204.17969-.54296.24218-.4961.30078-.41797.17188-.17578.1836-.14844.19921-.12109.20703-.08984.21875-.0586.23047-.01562m5.08985 0h.51171v6.29297h-.78906v-4.48828h-1.38672v-.5547l.5586-.0664.25-.05469.23047-.08984.20312-.14062.17578-.21094.14063-.29297.10547-.39453m2.82421 2.17578h.78516l.01953-.3164.0625-.28907.09766-.25.14062-.21875.1797-.17187.22265-.12891.26562-.08203.3086-.02735.23828.02344.22265.0625.20704.10156.17578.13672.15234.17579.10938.20312.07421.23828.02344.26172-.01953.26953-.0664.22656-.10938.19141-.15625.17188-.19922.16015-.25.16797-.63281.38672-.53906.3125-.4375.32031-.34375.32422-.26563.33594-.1914.34765-.125.3711-.06641.39453-.02344.41797h4.21484v-.73828h-3.33203l.08203-.28516.11329-.23828.14843-.19922.1875-.1836.23047-.16796.27735-.17578.71875-.41797.41406-.20703.34765-.23047.27735-.25.22265-.26563.16407-.28125.10937-.28125.0625-.28515.02344-.28125-.04297-.38282-.1211-.34765-.1875-.3086-.25-.26562-.30468-.21094-.34375-.16015-.38281-.09766-.40625-.03125-.4336.03125-.39844.09765-.35546.16797-.3047.23438-.25.30469-.18358.375-.1172.4453-.03906.51954"/></g></defs><use xlink:href="#ad"/></svg>