<svg xmlns="http://www.w3.org/2000/svg" role="img" xmlns:xlink="http://www.w3.org/1999/xlink" viewBox="142.45 309.95 326.84 171.84"><defs><clipPath id="a"><path d="M144 311.67188h1v168.65625h-1zm0 0"/></clipPath><clipPath id="b"><path d="M144 311.67188h324v168.65625H144zm0 0"/></clipPath><clipPath id="c"><path d="M467 311.67188h1v168.65625h-1zm0 0"/></clipPath><clipPath id="d"><path d="M144 478h4v2.32813h-4zm0 0"/></clipPath><clipPath id="e"><path d="M146 479h2v1.32813h-2zm0 0"/></clipPath><clipPath id="f"><path d="M153 478h8v2.32813h-8zm0 0"/></clipPath><clipPath id="g"><path d="M159 479h2v1.32813h-2zm0 0"/></clipPath><clipPath id="h"><path d="M166 479h9v1.32813h-9zm0 0"/></clipPath><clipPath id="i"><path d="M172 479h3v1.32813h-3zm0 0"/></clipPath><clipPath id="j"><path d="M180 479h8v1.32813h-8zm0 0"/></clipPath><clipPath id="k"><path d="M186 480h2v.32813h-2zm0 0"/></clipPath><clipPath id="l"><path d="M193 479h8v1.32813h-8zm0 0"/></clipPath><clipPath id="m"><path d="M199 480h2v.32813h-2zm0 0"/></clipPath><clipPath id="n"><path d="M206 479h9v1.32813h-9zm0 0"/></clipPath><clipPath id="o"><path d="M212 480h2v.32813h-2zm0 0"/></clipPath><clipPath id="p"><path d="M220 479h8v1.32813h-8zm0 0"/></clipPath><clipPath id="q"><path d="M226 479h2v1.32813h-2zm0 0"/></clipPath><clipPath id="r"><path d="M233 479h8v1.32813h-8zm0 0"/></clipPath><clipPath id="s"><path d="M239 479h2v1.32813h-2zm0 0"/></clipPath><clipPath id="t"><path d="M246 479h9v1.32813h-9zm0 0"/></clipPath><clipPath id="u"><path d="M252 479h2v1.32813h-2zm0 0"/></clipPath><clipPath id="v"><path d="M260 479h8v1.32813h-8zm0 0"/></clipPath><clipPath id="w"><path d="M266 480h1v.32813h-1zm0 0"/></clipPath><clipPath id="x"><path d="M273 479h8v1.32813h-8zm0 0"/></clipPath><clipPath id="y"><path d="M279 480h2v.32813h-2zm0 0"/></clipPath><clipPath id="z"><path d="M286 478h8v2.32813h-8zm0 0"/></clipPath><clipPath id="A"><path d="M300 479h8v1.32813h-8zm0 0"/></clipPath><clipPath id="B"><path d="M305 480h2v.32813h-2zm0 0"/></clipPath><clipPath id="C"><path d="M313 479h8v1.32813h-8zm0 0"/></clipPath><clipPath id="D"><path d="M319 480h2v.32813h-2zm0 0"/></clipPath><clipPath id="E"><path d="M328 477h5v3.32813h-5zm0 0"/></clipPath><clipPath id="F"><path d="M342 476h3v4.32813h-3zm0 0"/></clipPath><clipPath id="G"><path d="M356 476h2v4.32813h-2zm0 0"/></clipPath><clipPath id="H"><path d="M368 476h4v4.32813h-4zm0 0"/></clipPath><clipPath id="I"><path d="M381 477h5v3.32813h-5zm0 0"/></clipPath><clipPath id="J"><path d="M393 478h8v2.32813h-8zm0 0"/></clipPath><clipPath id="K"><path d="M408 476h4v4.32813h-4zm0 0"/></clipPath><clipPath id="L"><path d="M419 479h9v1.32813h-9zm0 0"/></clipPath><clipPath id="M"><path d="M425 480h2v.32813h-2zm0 0"/></clipPath><clipPath id="N"><path d="M433 479h8v1.32813h-8zm0 0"/></clipPath><clipPath id="O"><path d="M439 479h2v1.32813h-2zm0 0"/></clipPath><clipPath id="P"><path d="M446 479h8v1.32813h-8zm0 0"/></clipPath><clipPath id="Q"><path d="M452 480h2v.32813h-2zm0 0"/></clipPath><clipPath id="R"><path d="M460 477h7v3.32813h-7zm0 0"/></clipPath><clipPath id="S"><path d="M144 465h4v4h-4zm0 0"/></clipPath><clipPath id="T"><path d="M144 453h4v2h-4zm0 0"/></clipPath><clipPath id="U"><path d="M144 439h4v2h-4zm0 0"/></clipPath><clipPath id="V"><path d="M144 426h4v2h-4zm0 0"/></clipPath><clipPath id="W"><path d="M144 413h4v2h-4zm0 0"/></clipPath><clipPath id="X"><path d="M144 398h4v4h-4zm0 0"/></clipPath><clipPath id="Y"><path d="M144 385h4v4h-4zm0 0"/></clipPath><clipPath id="Z"><path d="M144 372h4v4h-4zm0 0"/></clipPath><clipPath id="aa"><path d="M144 358h4v5h-4zm0 0"/></clipPath><clipPath id="ab"><path d="M466 360h2v3h-2zm0 0"/></clipPath><clipPath id="ac"><path d="M144 345h4v4h-4zm0 0"/></clipPath><clipPath id="ad"><path d="M466 345h2v3h-2zm0 0"/></clipPath><clipPath id="ae"><path d="M144 332h4v3h-4zm0 0"/></clipPath><clipPath id="af"><path d="M466 332h2v3h-2zm0 0"/></clipPath><clipPath id="ag"><path d="M465 332h3v3h-3zm0 0"/></clipPath><clipPath id="ah"><path d="M144 319h4v3h-4zm0 0"/></clipPath><clipPath id="ai"><path d="M466 318h2v2h-2zm0 0"/></clipPath><clipPath id="aj"><path d="M465 318h3v3h-3zm0 0"/></clipPath><g id="ak" clip-path="url(#clip1)"><path fill="#fff" fill-opacity="0" fill-rule="evenodd" d="M0 0h1000v1000H0zm0 0"/><path fill="#d3d3d3" fill-opacity="0" fill-rule="evenodd" d="M162.15234 355.86719l-.23437.29297.0586.23437.11718.17188.17578.23437.29297.34766.11328.0586.11719-.17188.0586-.23438.17577-.17578.46485-.17578h.69922l.23437.29297.28906.8164.0586.17579.17578.23046.35156.23438.69922.69922.17188.17578.23437.34765.23438.41016.28906.58203.41015.46485.23047.23437.23438.17578.11719.23047.17578.29297.17187 1.16406v.23438l.0586.28906.05859.11719.11719.11719.34765.41015.11719.17188.17578.17578.17578.23437.11719.17188.17188.35156.05859.23438.23437.40625.23438-.0586-.17578.17578-.0586.92969h-.58203l-.23437-.11328-.34766.11328-.11719.11719-.05859.29297-.0586.17578-.11718.17187-.46484.29297-.0586.23438-.0586.11328v.64453l.0586.17187v.41016l.0586.0586v.40624l.05859.40625.11719.17579.05859.05859.23047.64062-.0586.29297v.69922l-.05859.58203v.23438l-.0586.23047-.05468.35156v1.92187l.05469.1172h.42578l-.36719.11718-.02344.35156.89063 1.16797 1.74219.53906 1.33984.35938v.53906l.08984.8086.53516.71484 1.51953.26953.89063-.08594.08984 1.16406.53516.1797 1.16015-.1797 2.05469-.98437 1.16016-.36328 1.8789-.17578 1.69531-.1797-.17968.71876-1.51563.08594-1.25.08984-.80469.26953-1.07421.8086.26953.71875.53515.89843-.17968.625-.26563.8086.26563 1.07812.625.89844.80468.17969 1.25-.1797-.26562.72267.09766.5039.05468.29297v.17188l.0586.29296v.40625l.17578.1172.35156.11718h.40625l.29297-.17578.11328-.11719.0586-.11719.11718-.23047.0586-.17578.35156-.46484.23047-.17578.17578-.0586.17578.0586.0586.17578.11718.98828.05469.46875.0586.17188.11718.23437.17578.0586.8164.05859h.28907l.11719.23437.05859.40625.0586.35156v1.10547l.11718.29297.11719.34766.28906.69922.17578.35156.58203.7539.35157.17579.17187.0586.46875.23437.64063.46484.34765.23438.29297.17578.29297.05468.23047.0625.8164.34766.29297.17578.11328.17188.35157.35156.11719.17578.52343.64063v.28906l.0586.35156v.34766l.05859.35156.0586.28906.11718.0586.17188.05859h.17578l.58203.23437.17578.1172.17578.28905.17578.23438.11328.23437.29297.23047.11719.11719v.41016l.0586.05468.28906.23438.23437.11719.0586.11718.11718.17188.0586.11719.23047.23437.05859.17578.23437.0586.1172.05859-.1172.11328-.05859.11719v.11719l-.11719.29296-.11719.28907v.58203l.17579.11719.11718.05859.0586.11719.11719.11719.11328.05859.17578.34765.0586.35157.05858.40625v.17578l-.05859.17578-.11719.69922v.17187l.1172.17579.29296.29296h.40625l.17578.1172.11719.17187.11719.29296v.23438h-.52735l-.23047-.23438h-.23437l-.17578.0586-.0586.69922.0586.34765.11719.17579.17578.41015.11718.23047.28907.46875.17578.05469h.52344l.23437.0586.75781.64062.0586.29296v.23438l.05859.0586.23047.34765v.35156l-.11719.17188v.29297l.29297.28906.29297.17578.17187.0586.29297.17577.29297.1172.58203.40624.28906.23438.29297.17578.21875.16015.01563.01172.23047.17579.64062.52343.17578.23438.1172.17578.17577.17578.11328.17188v.64062l.1172.17578.46874.11719.58203.11719.23438.05859.23047.11328.29297.11719.11328.0586.58593.35156.28907.17187.17578.0625.17578.05469.17578.0586.69922.35155.28906.17579.23438.05468.28906.17578.23437.1172.64063.40624.29297.11719.17187.0586.23438.05859.41015.05859.23047.0586.23438.11718.0586.17188-.41017.17578.46875.0586.0586.29296.11328.23438.17578.05468.23438.0586.17578.05859.40625.11719.64062.23437.11719.17188.0586.23437v.17578l-.0586.1172-.0586.40624.23438.23438.11719.05859.34766.11719.64062.23047.17578.11718.28906.1172.17578.17577.23438.46485.58203 1.10546.17578.17579.34766.17578.17578.11719.35156.11718 1.04688.52344.23437.0586.46485.11327.29297.0586.46484.17578.75781.58203.23438.23438.34765.46484.17578.17578.28907.23438.8164.69921.29297.17579.28906.28906.29297.17578.29297.28906.69531.64063.17578.17578.29297.23437.28907.23438.46875.28906.64062.58203.34766.23438.23437.29297.34766.34765.35156.46485.9336.99218.34765.40625.11719.17579.23437.05859.11328.11719.64454.17578.23047.11328.23437.0586.29297.17577.23047.1172.9336.69921.40624.40625.23438.17578.40625.17578.23437.11719.8164.34766.34766.23437.23438.11719.29297.28906.23047.11719.7578.35156.35157.17188.23047.05859.29297.11719.23437.0586.8711.17577h.8164l.46875.23047.17188.0586.875.69921.46484.1172.29297.05858.17578.0586.23047.0586.46875.05859.34766.05859.35156.0586.40625.05859h.29297l.17187.0586v.23046l.17578.17578h.29297l.34766.0586.35156.05859.69922.11719h.64063l.46484-.23438.29297-.17578.17187-.11719.41016-.17187.28906-.17578.9336-.46485.46875-.29297.52343-.29296.46485-.17188.46484-.17578 1.05078-.46485.28906-.11718.41016-.11719.28906-.11719.52735-.17578 1.51562-.69922.58203-.34765.28907-.0586.29297-.0586.34765-.11718.875-.23047.35156-.11719h.11329l.23437-.05859.875-.23437.23438-.0586h.8125l.35156-.0586.8164-.11718.17188-.0586.35156-.05468.29297-.0586.23047-.05859.8164-.17578.17579-.0586h.34765l.23438-.05859.46484-.11718.75781-.17188.23438-.0586h.34765l.41016-.11718.28906-.0586 1.28516-.05859h.28906l.41016-.0586.23047-.05858h.17578l.875-.1172h.40625l.41015-.11718h.34766l.35156-.11328.8711-.0586h1.75l1.04687.28907.41016.11719.28906.11718.35156.11719.28907.11719 1.05078.17187.28906.0586h.29297l.29297.05859.17187.0586.41016.05859.17187.0586.1172.05858h.11718l.11719.0586.35156.0586h.11328l.41016.0664 1.92187.39453 1.92578.39453 1.51953.44922 1.69532.71875 2.14453.80469 1.60547-.71875 1.42968-.80469 1.16016-1.07813 1.25-.44921 3.03516-.71875 1.875-.35938 2.14453-1.34765 2.23437-1.25391 2.5-1.25781 1.69531-.44922 1.78516-.17969 1.16016-.26953.625.53906 1.33984-.26953.71485-.98828.98437-1.34375.44531-.17969.80469-.35937 1.875-.53907 1.78516-.44921 1.25-.26954 1.16015-.08984 1.69922-.08984 1.96094-.26954 1.25-.08984h.53906l.625-.08984h.89063l2.14453-.17969 2.41015-.17969 2.58985-.08984 1.69531.17969 1.60938.08984 1.42968.35938 1.16016.71875 1.875.98828 1.16015 1.52734.26563.71484.6289.08985.35548.89844.53515.53906.53516 1.52734 1.07422.35938h.53515l-.80469.53515.08985 1.70703.71484 2.69532.89063.80468.89453.98829.71484 1.2578 1.78516.53907 1.51953-.17969.35547 1.34375 1.60937-.80469.98047-.53906.26953.26953.31641-.21484.21875-.14453.80078.44922.44922-.35938h.35547l.53515-.26953.53907-.71875.53515-.26953.625-.98828 1.16016.44922.83984.3711 1.39454.61718 1.6953-.17969h1.60548l1.78515.08985.17969-1.70704.53516-1.34375.80468.26954.4922.84765.40233.40625-.08984.53906v.35938l.71485.44922.71093-.26953h1.42969l.35938.98828.4453 1.25781.71485 1.34375 1.25.6289 1.69531.62891.71485-.17969.17969-.53906.98046-.08984.44922.35937.08594 1.25782-.26563.6289-.53515.17969v.53906l.71484.98438.26563.53906.98437.98828.80078 1.07813-.26562.35937-.08985.89844-.625 2.33203-.35546 2.0664-.08985 1.79298-.17969.71875-.08984.53906v1.4375l-.98047 1.88281-.35937 1.70703-.53516.89844-.80469 1.16797-.26562.53906 2.05469 1.2539.08593.35938-.35546.53906-.08985-.17968v.80859l.08985 1.4375-.44532.71484-1.07422.09375-.26562.71485.53515.89844.8047.71875 1.16015.80859 1.33984.26953.44531.35938-.35546.44921-1.78907-.08984-1.25-.44922-.71484-.71875-.625-.08984-.17578 3.58984-.1875 1.3086h89.35937V311.70313h-55.26953v49.08203l.76172.125 3.28906.54296 2.02344 2.83594v2.7539l2.35156.33204 2.34766.33203h4.05078l-1.3789 4.16016-2.02344.70703-2.02344.70312-.54297.34375-2.59375 1.6172-.1875.11718-2.02344-2.07813-.73046-2.74218-2.67188-2.07813-1.375-3.5-.0664-.08203-1.95704-2.67188 2.75-1.41796v-49.08204H294.42187v91.41407l.1172.03125.1328.01172.07422.07421.10547.04688.08985.0586.08593.05859.08985.0586.29687.29687.0586.08984.03125.11719.02734.11719.01563.13671-.03125.1172-.0586.08983-.0586.08594-.04296.10547-.04688.10156-.02734.1211v.14453l.17578.26953.14844.14844.07422.08594.07422.07421.04296.10547.0625.08985.0586.08593.04297.10547.0586.08985.04687.10156.04296.10547.0586.08594.11719.17968.07421.07422.0625.08594.0586.08984.04297.10547.0586.08985.05858.08593.0625.08985.0586.08984.04297.10156.11719.17969.07421.07422.0586.08594.07422.07421.08984.0586.10547.04687h.14844l.1328-.01562.13282.01562.10156-.04687.07422-.07422.04688-.10156-.01563-.13281v-.14844l-.04687-.10547-.02735-.11719-.04687-.10156-.02735-.1211-.04296-.10156-.0625-.08984-.04297-.10156-.04297-.10547-.03125-.11719-.01563-.13281-.01171-.13672.08593-.0586.0586-.08593.12109-.03125.04297.10547.01562.1328v.1172l.0586.10156.0586.08984.08983.0586.14844.14843.0586.08985.04296.10547-.01171.10156.08593.0586.10547.04687.08594.0586.08984.05858.07422.07422-.11719.02735-.10546.04687-.08594.0586-.07422.07421-.0586.08985-.0625.08594-.02734.12109-.04687.10156-.04297.10547-.03125.11719-.01172.13281-.01563.13281v.14844l.02735.11719.04687.10547.04297.10156.0586.08984.07421.07422.08985.0586.07422.07421.08984.0586.0586.08984.04296.10547.04688.10156.11719.03125.1328.01563h.14845l.11718-.03125.10547.04297.04297.10547.04688.10156.02734.1211L299.5 410l.02734.11719.03125.1211.02735.11718.10547.04297.10156.04687.13281-.01562.14844.14844.0625.08593.07422.07422.07031.07422.08984.0625.10547.04297.10156.04297.1172.03125.13671.01562.11719-.03125.07422-.07422.02734-.11718-.01172-.13282-.03125-.12109-.02734-.11719.04297-.10547h.11719l.08984.0625.11719.02735h.14843l.13282.01562h.14843l.13282.01563.1328-.01563h.14845l.1328-.01562.13282-.01172.13672.01172.11719-.02735.13281-.01562.1914-.0586-.05859.17579-.01562.1328-.02735.1211-.01562.13281-.0586.08594-.1328.01563-.10548.04687-.10546.04297-.1172.03125-.11718.02735-.26563.03125h-.14843l-.13281.01562-.07422.07422.05859.08594.14844.14843.11719.1797.07421.0703.08985.0625.08984.0586.08594.0586.08984.05858.10156.04297.10547.0625.10547.04297.08594.0586.10547.04687.10156.04297.17969.11719.0586.08984-.04298.10156-.04687.10547.01562.13281.22266.22266.0586.08985.04296.10156.03125.1211.04297.10155.01563.13282.03125.11718.01171.13672.03125.11719.14844.14844.10156.04297.10547.04296.1172.03125.1328.01563.13672.01563h.11719l.11719-.03125.08984-.0586.04297-.10547.04688-.10156.04296-.10547.03125-.11719.01172-.1328v-.14845l-.01172-.1328-.01562-.13282-.03125-.11719-.04297-.10547-.04688-.10547-.04296-.10156-.04297-.10547-.01563-.13281.01563-.13281.02734-.11719.03125-.11719.02735-.1211.04687-.10155.08984-.0586.08594-.0625.07422-.07422.08984-.05859.22266-.22266.0586-.08593.07421-.07422.11719-.17969.0586-.08594v-.14844l-.07423-.07421-.10156-.04688-.10547-.04297-.10156-.04297-.0586-.08984-.04687-.10547-.02734-.11719.08984-.05859.11719-.03125.10156-.04297.17969-.11719.14844-.14843.01172-.13282-.01172-.10546-.08985-.0586-.1328.01563h-.14845l-.1328.01562-.13282-.01562-.1211-.03125-.08593-.0586-.07422-.07422-.0586-.08984-.0625-.08594-.11718-.17969-.0586-.08593.03125-.1211.08594-.05859.1211-.03125.05859-.08594v-.1211l-.03125-.11718-.0586-.08984-.05859-.08594-.04687-.10547-.02735-.11719-.01562-.1328.0586-.08985.07421-.07422.08984-.0586.1172-.17968.07421-.07422.0586-.08594.14843-.14844.1211-.03125.1328-.01562.13282.01562.07422.07422.04297.10547.01562.13281-.03125.1172-.11719.03124-.1328.01172-.14844.14844-.04297.10547-.04688.10156-.02734.1211-.03125.11718v.14844l.03125.11719.04297.10546.05859.08985.07422.07031.07422.07422.11719.03125.12109.02734.11719-.02734.1328-.01563h.1172l.08984.0586.07422.07422.04687.10546.0586.08594.10156.04688.13281.01562.10547.04297.08594.0586-.01172.10546-.07422.07422-.17969.11719-.05859.08984-.08984.0586-.07032.07422-.07421.07421-.0625.08985-.02735.11719-.01562.1328.01562.13282-.01562.13281v.14844l.01562.13281.02735.1172.03125.12108.07421.07422.08985.0586.08594.0586.08984.05858.11719.03125v.08594l-.10157.04688-.08984.0586-.26563.03124-.11718.02735h-.14844l-.10547.04296-.10156.04688-.0586.08984-.0625.23438-.01171.13281-.03125.1211-.01563.1328v.29298l-.01172.1328.01172.13673.01563.1328.1328.01563.13282.01172.1211.03125.08593.0586.07422.07421.04688.10547.04296.10157.01563.1328v.44532l-.01563.13281v.44532l.03125.26562.02735.11719.01562.13281.03125.11719.08594.21094.03125.26562v.14844l-.03125.11719-.02734.11718-.03125.1211-.02735.11719-.03125.11718-.03125.1211-.01171.1328-.01563.13282.08984.0586.1172-.03125.10155.01562.04688.10547-.03125.26562v.44141l-.04297.10547-.04688.10547-.04296.10156-.04297.10547-.0586.08594-.03125.12109-.04296.11719-.03125.11719-.01563.1328.01563.13282.05859.08984.10547.04688.08594.0586.05859.08593-.01172.13672-.03125.11719-.04297.10156v.44531l-.01562.13281v.14844l-.03125.11719-.04297.10547-.02735.11719-.04687.10546-.04297.10157-.03125.12109-.02734.11719-.03125.13281-.03125.11719-.02735.11719-.04297.10546-.03125.1172-.03125.12108-.01171.13282-.01563.13281v.29688l.02734.11718v.14844l.04688.39844.02734.11719.0586.08984.12109.03125h.14844l.13281-.01563.0586.08985v.11719l-.0586.08984-.08984.0586-.10157.04296-.10546.04688-.08985.05859-.08594.0586-.13671.01562-.1172-.03125-.1328-.01563-.10157.04688-.0625.08594-.01172.13671-.01562.13282-.03125.11719-.02735.11718-.01562.13281-.03125.1211v.29687l.01563.13282.03125.11718v.14844l.01171.13281v.14844l-.02734.11719-.04688.10156-.02734.1211-.03125.11718-.0586.08985-.07421.07421-.10156.04297-.10547.04688-.11719.02734-.1211.03125-.10156-.04687.0586-.08594.10547-.04688.02734-.11718.03125-.11719.02734-.1211.03125-.11718v-.14844l.01563-.13281-.03125-.11719-.04297-.10547-.10547.01563-.07422.07422-.10156.04296-.08984.0625-.07422.07422-.04297.10157-.01563.1328-.03125.1172L304.25 426l-.03125.11719-.02734.11719-.03125.12109-.02735.11719-.03125.11718-.04297.10547-.08984.0586h-.08984l-.1172-.03125-.03124-.08594.01562-.13672-.03125-.11719v-.14844l-.01171-.1328v-.14844l-.0625-.23438-.02735-.1211-.04297-.10156-.04687-.10546-.0586-.08594-.05859-.08985-.04297-.10546-.0625-.08594-.14844-.14844-.0703-.07422-.10548-.04687-.10547-.04297-.10156-.04297-.29687-.29688-.08985-.07421-.08594-.0586-.10546-.04297-.08985-.0625-.08594-.0586-.10546-.04296-.08985-.0586-.08594-.0625-.07421-.0703-.10547-.04688-.08594-.0586-.10547-.04296-.08984-.0625-.10156-.04297-.10547-.04297-.08594-.0586-.10547-.04687-.10547-.04297-.10156-.04687-.08985-.0586-.10156-.04297-.10547-.04296-.08984-.0625-.11719-.02735-.13281-.01562-.13281.01562H299.75l-.13281.01563-.11719-.03125-.08984-.0586-.07422-.07422-.08985-.05859-.10156-.04688h-.14844l-.12109-.02734-.10156-.04297-.07422-.07422-.11719-.17968-.08984-.0586-.10156-.04297-.08985-.0625-.10547-.04296-.08984-.0586-.08594-.0586-.10547-.04687-.0586-.08594-.05858-.08984-.04297-.10547-.04688-.10156-.07422-.07422-.08594-.0586-.07421-.07421-.08985-.0586-.22265-.22265-.04297-.10547-.03125-.26563.10547-.04296h.14453l.10547.04296.07421.07422.08985.0586.08594.0586.10546.04687.08985.05859.14844.14844.0703.07422.14845.14843.0625.08594.07421.07422.08594.0586.07422.07421.08985.0625.08984.0586.08594.05859.26953.17578.10156.04688.10547.04296.10156.04297.04688-.07421.05859-.08594.07422-.07422.07031-.07422.10547.04297.07422.07422.0586.08984.04296.10156.04688.10547.04296.10547.1211.02735.11719-.02735.07421-.08984.04297-.10547.0586-.08985.07422-.07421.10546-.04297.1172-.02735.1328.01172.08985.0586.14844.14843.05859.08985.04297.10547.04687.10156.04297.10547.04297.10156.10547.04688.10547.04296.13281.01563.08594-.0586.0586-.08984.07421-.07422.10547-.04297.11719.02735.10547.04687.10156.04297.10547.04297.10156.04688.17969.11718v.11719l-.01563.13281.01563.13281.01562.13672.0586.08594.10156.04688.1211.02734.11718.03125h.14844l.11719-.03125.05859-.08984.17969-.1172.05859-.08983.07422-.07422.0586-.08594.11718-.17969.17969-.11719.11719.03125.08984.0586.04297.07422-.01563.1328v.1172l.08985.05859h.14843l.13282-.01563.1328-.01171.26563-.03125.10547-.04297.11719-.03125.1211-.02735.07421-.07421.07031-.07422.0625-.08985-.01562-.10547-.04688-.10156-.10156-.04297-.10547-.01562-.11718.02734-.26563.03125h-.14844l-.07421-.07422-.08985-.0586-.11719-.03124-.11718-.02735-.13282-.01562h-.14843l-.13282.01563h-.29687l-.10547-.04688-.14844-.14844-.04297-.10156-.05859-.08984.22266-.22266.08593-.0586.10547-.04296.11719-.03125.13281-.01563.13281.01563.13672.01562.10157.04297.1328-.01172.08985-.0625.10156-.04297.0625-.08984-.04687-.10156-.08984-.0586-.1172-.03125-.10155-.04296-.0586-.08985-.0625-.08984v-.11719l.01563-.13281.10547-.04688.07421-.07031v-.1211l-.08984-.05859-.03125-.11719.08985-.05859.07421-.07422.04297-.10547.0586-.08984.04687-.10156.01563-.13281v-.14844l-.04688-.10547-.04297-.10156-.08984-.0586-.13281-.01562-.10157-.04297-.13671-.01563-.1172-.03125h-.4453l-.13282-.01562-.13281-.01172-.13281-.01563-.11719-.03125h-.14844l-.13281-.01562-.13281-.01172-.26563-.03125-.1211-.04297-.08593-.0586-.07422-.07421v-.14844l.01172-.13281.10547-.04688.10156-.04296.13281-.01563h.15235l.13281-.01562h.29297l.1211.03125.10156.04296.08984.0586.23438.0625.12109-.04688.08984-.05859.10156-.04297.13282-.01562.10547.04296.10156.04688.13281.01172.1211-.02735h.14453l.12109-.03125.11719-.02734.10547-.04687.07421-.07422.08594-.0586.14844-.14843.0586-.08594.04687-.10547.02734-.11719.01563-.10547-.10156-.04296-.08985-.0586-.11719-.03125-.10546-.04297-.08985-.0625-.07422-.08594-.07422-.07421-.10156-.04297-.10547-.04688-.10156-.04297-.0586-.08984-.04687-.10156-.08594-.21094-.0625-.08594-.05859-.08984-.07422-.07422-.08594-.0586h-.26953l-.11719.03126-.08984.05859-.10156.04297-.13281.01562-.10547-.01562-.02735-.11719-.0625-.08984-.11718-.03125-.10157-.04297-.14843-.14844-.03125-.11719-.01563-.10546.07422-.07422.17969-.1172.11719-.02733.11718-.03125.13672.01562.10156.04297.10547.04297.10156.04687.10547.04297.1172.03125.1328.01563.1172.02734.1328.01563.10547-.01563.08985-.0586-.07422-.07421-.10547-.04297-.07422-.07422-.07422-.08984-.14844-.14844-.08593-.0586-.08985-.05859-.07422-.07422-.08984-.0586-.10156-.04687-.1211-.02734-.10156-.04688-.10547-.04296-.11719-.03125-.10156-.04297-.1211-.03125h-.14843l-.11719.03125-.10546.04297-.08594.0625-.17969.11718-.08594.0586-.08984.0586-.10547.04687-.08594.05859-.10547.04297-.10156.04297-.10547.04687-.07422.07422-.05859.08985-.0586.08593-.04687.10547-.0586.08594-.07421.07422-.13281-.01172-.1172-.03125h-.11718l-.07422.07422-.08984.0586-.07422.07421-.08984.0586-.08594.05859-.10547.04687-.10156.04297-.13672.01563-.10156-.04297-.14844-.14844-.10547-.04688h-.08594l-.10547.04688-.10156.04297-.1211.03125-.11718-.03125-.07422-.07422v-.11719l.03125-.1211.07422-.0703.0586-.08985.07421-.07422.11719-.03125.10547-.04296h.29297l.13281-.01563.13672-.01563.10156-.04296.08985-.0586.10156-.04687.08984-.0586.13281-.01171.08985.05859.13281.01172.08984-.0586.08594-.05859.10547-.04297.08984-.0586.08594-.0625.08985-.05859.14843-.14843.0586-.08594.05859-.08985.10547-.04296.13281-.01563.11719.02735.1211.03125.05859-.0586.05859-.08984.03125-.26563.02734-.11719.10547.01172.13281.01563.10157-.04297.08984-.0586.0586-.08984.07421-.07422.0586-.08984.04687-.10156.01172-.13281-.01172-.13282-.04687-.10547-.14844-.14843-.0586-.08985-.05859-.08594-.04297-.10546v-.44532l.01563-.1328v-.14845l.01172-.1328-.0586-.0586-.08984.0586-.10156-.04298-.17969-.11719-.08594-.05859-.0625-.08984-.0586-.08985-.07421-.07421-.08594-.0586-.1211.03125-.10155.01172-.10547.04688-.08594.05859-.10547.04297-.14844.14844-.08984.05859-.08594.0586-.08984.0625-.10547.04296-.13281.01563v-.1211l.10547-.04297.11718-.03125.07422-.0703.04297-.10548v-.14844l-.02734-.11718-.14844-.14844-.13281-.01563h-.14844l-.11719.03125-.10547.04297-.10156.04297-.08984.0625-.11719.02735-.07422-.07422.01172-.13281-.04297-.10157-.04297-.10547-.08984-.05859-.11719.02734-.1211.03125-.11718.03125-.10156.04297-.1211.03125-.10156.04297-.10547.04297-.08984.0586-.10156.01562v-.11719l.01562-.13281-.0586-.08985-.07421.04297-.14844.14844-.0586.08985-.07421.07421-.04688.10547-.04296.10156-.07422.07422-.0586.08985-.07422.07422-.05859.08593-.07422.07422-.08984.0625-.07422.07031-.07422.07422-.10156.01563-.13281.01562-.10547-.04296v-.1211l.14843-.14844.04297-.10156.0586-.08984.04687-.10156.04297-.10547.0586-.08985.03124-.11719.04297-.10156.03125-.1211.02735-.11718.04687-.10547.04297-.10156.04297-.10547.07422-.07031.08984-.0625.08985-.0586.10156-.04296h.29687l.26563-.03125.10547-.04297-.07422-.07422-.11719-.03125-.10547-.04297-.08984-.0586-.10156-.04687-.08985-.0586-.10156-.04296-.10547-.04297-.08984-.0625-.08594-.0586-.10547-.04296-.10156-.04297-.1211-.03125-.11718-.03125-.10157-.04297L297.5 410.25l-.10156-.04297-.08985-.0586-.04296-.10546-.01563-.13281.10156-.04297.13281-.01563.13672.01563.13282-.01563.10156-.04297.0586-.08984.01562-.10547-.08985-.0586-.07421-.07421-.10157-.04297-.08984-.0586-.14844-.14843-.04297-.10547-.01562-.13281v-.29297l-.0586-.08985-.08984-.05859-.07422-.07422-.04297-.10547-.03125-.11718-.0586-.08985-.07421-.07422-.11719-.02734-.07422-.07422-.08984-.0586-.08984-.0625-.08594-.05859-.07422-.07421-.0586-.08594-.04687-.10547-.08594-.0586-.14843-.14843-.19532-.0586-.1328.01563-.10157.04297-.07422.07422-.04688.10156-.04296.10547-.0586.08984-.0586.08594-.29687.29687-.08984.0586h-.08594l-.0625-.08594-.04297-.10547.03125-.11719.0586-.08984.02734-.11719-.01172-.13281-.08984-.0625-.10547.04688-.11719.02734-.11719.03125-.26953.17578-.10156.04688-.11719.02734-.10546.04687-.08985.0586-.10156.04297-.0586-.08594-.04687-.10547.01563-.13281.04687-.10547.07031-.07422.07422-.07031.0586-.08985v-.14843l-.04297-.10547h-.23829l-.10156.04687-.03125.11719-.02734.11719-.03125.1211-.07422.04296-.13281.01563-.07422-.04688-.04297-.10156-.04297-.10547-.04687-.10156-.04297-.10547-.1211.03125-.10156.04297-.13281.01562-.11719.03125-.10547.04297-.08984.0586-.10156.04687-.1211.02734-.13281.01563-.10156-.04297-.0586-.08985-.04687-.10546-.04297-.10157-.04297-.10546v-.1172l.0586-.08984.08593-.05859.17969-.11719.10156-.04687.10547-.04297.10547-.0586.10156-.04296.08985-.0625.10156-.04297.10547-.0586.10156-.04687.08984-.0586.10547-.04296.10156-.04297.08985-.0625.10156-.04297.13672-.01563.11719.03125.10156.04297.1211.03125.10156.04297.10546.04688.10157.04296.10547.04297.10156.04688.10547.04297.10156.04297.10547.04687.08594.0586.10546.04296.1172.03125.10546.04297.10156.04688.08985.0586.10547.04296.10156.04297.10547.04687.11719.02735.10156.04687.1211.02735h.14843l.08594-.0586.01562-.10156.0586-.08984-.02735-.1172-.07422-.07421-.11719-.17969-.07421-.07422-.08985-.07421-.17969-.1172-.08593-.05859-.10547-.04296-.10156-.04688-.26954-.17578-.05859-.08985-.07422-.07421-.0586-.08985-.04296-.10156-.03125-.11719-.01563-.13672v-.5625l-.01171-.1328-.01563-.13282-.03125-.11719-.01562-.13281-.01172-.13281-.03125-.1211-.22266-.22265-.0586-.08594-.01562-.10547.03125-.11719.13281-.01562v-91.41406H172.9922v1.45312l-.0586.23438-.35156 1.05078-.17187.52343-.1172.34766-.17577.41016-.11719.17187-.23438.29297-.23046.0586h-.35157l-.11718.05859-.23047.40625v.29297l.11719.17578.23046.23047.1172.23437.64062.75781.29297.46485.17578.23437.23047.35156.23437.34766.64063.8164.17578.46485.17187.41016.11719.69531.17578.46875.11719 1.39844.0586.46484v.875l.11718 1.04688v4.78125l-.0586.46484-.35156 1.28125-.17578.52344-.11328.41015-.35156.9297L172.93359 336l-.23437.58203-.11719.17578-.17187.34766-.17578.40625-.35157.8164-.0586.29297-.11327.29297-.11719.28906-.0586.17579-.11718.875-.0586.40625-.05859.11718-.0586.17579-.05859.17187-.23047.52734-.11718.17188v.23437l-.11719.23438-.0586.17187-.17577.58594v.28906l-.0586.17579v.29296l-.0586.11329-.05859.52734v.17187l-.05468.23438v2.6211l-.17578.8164-.1172.17578-.17577.23438-.1172.17187-.11327.23438-.58594.93359-.23047.28906-.29297.46485-.17578.23437-.28906.35156-.35156.69922-.11328.23047-.17579.41016-.17578.23046-.40625.52735-.8164.69922-.29297.17187-.28906.23438-.17579.11719-.17578.17578-.52344.40625-.52734.17578-.17187.17578-.23438.05469-.64062.17578h-.75782m12.21094 31.02344l-1.07422.44921.35938.89454 1.25-.71485.44531-.53906-.98047-.08985"/><path fill="#d3d3d3" fill-opacity="0" fill-rule="evenodd" d="M201.50781 416.59766h-.89453l.44922.6289.98047.35938.80469-.08985.4453-.98828-.17577.08985-.71485-.35547-.89453.35547m154.6211 59.0703l-.0586-.52343v-.29297l.11328-.29297.0586-.23046.46875-.46875h.11328l.11719-.11329.11718-.05859h.17579l.23437-.0586h.34766l.23437.0586.11719.0586.23047.17187.0586.17578.11718.58203v.29297l-.11719.17578-.17187.28906-.17579.17579-.52734.52343-.23047.23438-.11719.0586h-.17578l-.11718-.0586-.40625-.29297-.17579-.11719-.11718-.0586-.0586-.11327-.05468-.1172m6.64062-10.95702l-.0586-.17188v-1.10937l.0586-.17188.17578-.0586.17188-.05858h.17578l.23437-.0586.1172.0586.05858.69921-.05859.17188-.11719.17578-.11718.0586-.23438.52343-.11328.0586h-.23438l-.05859-.1172m9.61328-14.39062l-.11719-.17578v-.69922l.29297-.875.1172-.17187.17577-.35156.11328-.23047.1172-.29297.35155-.75781.1172-.23047.17187-.23438h.17578l.11719-.0586h.64062l.11719.0586.23437.23438.17188.11328.35156.29297.11719.11718.11328.17579v.11328l.11719.05859.11718.11719v.69922l-.05859.17578v.23047l-.0586.17578-.34765 1.05078-.11719.23047-.11719.23437-.11718.0586-.23047.23437-.64063.28906h-.875l-.41015-.11718-.64063-.46485"/><path fill="none" stroke="#bebebe" stroke-linecap="round" stroke-linejoin="round" stroke-miterlimit="10" stroke-width=".5" d="M467.95703 311.69531H144.02734v168.625h323.9297v-168.625"/><g clip-path="url(#a)"><path fill="#fff" fill-opacity="0" fill-rule="evenodd" d="M144 475.89063v4.4375h.0039H144V311.67188h.0039H144v164.21875"/></g><g clip-path="url(#b)"><path fill="#fff" fill-opacity="0" fill-rule="evenodd" d="M144.0039 480.32813V311.67188h17.75v133.16796l-3.125 4.42188-.72265 4.4375.9414 4.4375 2.90626 3.24219 4.4375-1.70313 4.4375-1.05078 4.4375 1.5625 1.16406-2.05078-1.16406-1.08203-4.4375-.78906-.28907-2.56641-1.94922-4.4375-2.19921-2.0625-4.4375-2.35938V311.67188h48.8203v90.09765l-3.41405 3.10547-.5586 4.4414-.46484.9961-3.5 3.4414 2.01562 4.4375-1.92187 4.4375 2.14453 4.44141 1.26172 1.32031 4.4375-.28906 1.08984-1.03125-1.08984-1.0625-1.05078-3.3789-1.21875-4.4375 2.26953-2.34375.61719 2.34375 3.82422 4.36718 4.4375.03516v.09375l-2.33985 4.38281 2.33984 2.23047 4.4375-2.17187 2.66016 4.3789 1.77734 1.40235 2.0586 3.03515 2.3789 2.41406 4.44141-.08984.98047 2.11328 3.45703 3.375 4.4375.0039 3.26563-3.3789-.20313-4.4375-3.0625-3.1914-4.4375-.40625-4.4375 1.01171-4.4414-.93359-1.75391-.91797-2.6836-2.53125-4.3203-1.90625-.1172-.09375-4.4375-4.28906v-.09375l4.04688-4.40234-.38672-4.4375-3.66016-3.70313-.76171-.73437-3.67578-3.6797-1.19532-.76171-3.2461-3.10547v-90.09765h48.82423v109.01171l-1.94531 1.94532-2.4961 1.34765-3.07031 3.09375 2.8125 4.4375.25781.30469 3.28516 4.13281 1.15625.95703.94922-.95703.60937-4.4375.69922-4.4375.11328-4.4414-2.3711-1.94532V311.67188h62.13673v103.1953l-4.4375.48829-4.44141.27734-4.4375-.01172-1.6875 2.57032-2.75 1.3203-4.4375-.58202-4.4414-.3164-4.38282-.42188-.05469-.01954-.02734.01954-4.41016 1.80468-2.32421 2.63282-2.11329.48828-4.4375-.25-4.4414.39062-4.4375 1.26563-3.26953 2.54687.26562 4.4375 3.0039 2.73438 4.4375.23437 4.44141.61328 1.0547.85547 3.3828 3.46094 4.4375.07813 4.4375-.71485 2.77344-2.82422 1.0039-4.4375.66016-1.26562v12.67969l-2.52343 1.89843 2.52343 1.89844 2.81641-1.89844-2.8164-1.89844V430.2422l4.4414.76562 3.49219.5.94531.91406v14.2422l-2.63672 2.59765 2.63672 2.77734 2.4414-2.77734-2.4414-2.59766v-14.24219l.8711-.91406 3.08984-4.4375.47656-1.57031v32.95313l-4.4375 1.96093-.8711 2.16016.8711.61328 4.4375 1.64844 3.17969-2.26172-3.17969-4.1211V425.5l4.4375 1.42969 4.4414-2.17969 4.4375.48047 4.4375.17187 4.4375-1.64843 4.4375 2.22656 4.44141-2.6836 1.66797 3.77344 2.76953 2.6836.92578 1.7539-.20312 4.4375 3.71484 3.76563.89453.67187-.89453 4.17969-.23828.25781.23828.24219.23828-.24219 4.19922-.94922 4.4414-.48046 4.4375-.0625 3.00392-2.94532 1.43359-1.72265 3.0664-2.71485 1.3711-3.67187 4.4375.8164.14844 2.85547.52734 4.4375-.67578.94922-2.78906 3.48828-.57032 4.4414 1.06641 4.4375 2.29297 2.28126 1.86328 2.15625 2.57813 3.2539 1.28906 1.1836 3.14844 2.70703 4.4375-.46094 3.42968 2.19531 1.00781.58204.6836-.58204 3.7539-.26953 4.44141.1211 4.4375.05469 4.4375-.23438 4.4375-.29688 4.4414.05079 3.69923-3.8672.73828-.86327 4.4375-2.46094 4.4375 1.14844 2.41015-2.26172 2.02735-1.09375 4.4414-1.34766 2.26563-1.9961 2.17187-.55077 3.85938-3.88672-.03906-4.4414-3.82032-3.59376-4.4375.14844-3.1914 3.44531-1.25 1.90235-2.52344 2.53906-1.91406 1.03125-3.60938 3.40625-.82812 3.08594-.58594-3.08594-1.22266-4.4375-.76171-4.4414-1.8672-1.95313-3.1289 1.95312-1.3086.76563-4.4414-.58594-1.96875-.17969-2.46875-1.3789-4.4375-4.07813-3.08203-3.41797-1.35547-1.3125-4.4414-2.42578-4.4375 1.34766-4.4375-.125-4.19532-1.92188-.24219-.23828-4.4375-1.33984-4.4414.67969-1.53516-3.53907-2.90234-2.3125-2.15625-2.1289-2.28125-2.40625-4.4375-.38672-3.23828 2.79297-1.19922 1.04296-4.4414 1.9922-4.4375-2.60938-2.00391-.42578-2.4336-2.22266-4.4375-1.7539-4.4414-.3047-4.4375 2.76954-3.87891-2.92578-.5586-.6211-4.4375-2.70312V311.67188H445.8086v123.37109l-1.02343.90234 1.02343 1.03906.95704-1.03906-.95704-.90234v-123.3711h22.1875v168.65625H144.00391"/></g><path fill="#50fcfc" fill-rule="evenodd" d="M158.84766 458.13672l-.94141-4.4375.72266-4.4375 3.125-4.42188v3.29688l-.79297 1.125-1.1914 4.4375 1.98437 4.10937 4.4375-2.53515 1.09765-1.57422-1.09765-1.71094-2.78125-2.72656-1.65625-1.125v-3.29688l4.4375 2.35938 2.19922 2.0625 1.94921 4.4375.28907 2.5664 4.4375.78907 1.16406 1.08203-1.16406 2.05078-4.4375-1.5625-4.4375 1.05078-4.4375 1.70313-2.90625-3.2422"/><path fill="#00e8fc" fill-rule="evenodd" d="M161.7539 457.8086l-1.98437-4.10938 1.1914-4.4375.79298-1.125 1.65625 1.125 2.78125 2.72656 1.09765 1.71094-1.09765 1.57422-4.4375 2.53515"/><path fill="#50fcfc" fill-rule="evenodd" d="M204.65234 418.1914l-2.01562-4.4375 3.5-3.4414.46484-.9961.5586-4.4414 3.41406-3.10547v2.92969l-.1914.17578-2.88282 4.4414-1.36328 2.91407-1.54688 1.52344 1.54688 2.39453v3.82422l-1.71094 2.65625 1.71094 2.55859 1.70312-2.5586-1.70312-2.65624v-3.82422L208.5 413.7539l2.07422-.75 2.03906.75.39063 4.4375 2.01172 2.29687 4.4375-1.73828.51171-.5586 1.28516-4.4375-1.79688-1.8203-2.70703-2.6172-1.73047-1.73437-4.2578-2.70703-.1836-.17578v-2.92969l3.2461 3.10547 1.1953.76172 3.67579 3.67969.76172.73437 3.66015 3.70313.38672 4.4375-4.04688 4.40234-4.4375-.03516-3.82421-4.36718-.6172-2.34375-2.26952 2.34375 1.21875 4.4375 1.05078 3.3789 1.08984 1.0625-1.08984 1.03125-4.4375.28906-1.26172-1.3203-2.14453-4.44141 1.92187-4.4375"/><path fill="#00e8fc" fill-rule="evenodd" d="M206.13672 425.1875l-1.71094-2.5586 1.71094-2.65624 1.70312 2.65625-1.70312 2.55859m0-9.03906l-1.54688-2.39453 1.54688-1.52344L207.5 409.3164l2.88281-4.44141.1914-.17578v2.28906l-1.58202 2.32813 1.58203 1.89843 3.08594-1.89843-3.08594-2.32813v-2.28906l.1836.17578 4.2578 2.70703 1.73047 1.73438 2.70703 2.61718 1.79688 1.82032-1.28516 4.4375-.51172.55859-4.4375 1.73828-2.01171-2.29687-.39063-4.4375-2.03906-.75-2.07422.75-2.36328 2.39453"/><path fill="#00d4fc" fill-rule="evenodd" d="M210.57422 411.21484l-1.58203-1.89843 1.58203-2.32813v2.19531l-.08984.13282.08984.10937.17969-.10937-.1797-.13282v-2.1953l3.08595 2.32812-3.08594 1.89843"/><path fill="#00c4fc" fill-rule="evenodd" d="M210.57422 409.42578l-.08984-.10937.08984-.13282.17969.13282-.1797.10937"/><path fill="#50fcfc" fill-rule="evenodd" d="M219.45313 429.30078l-2.33985-2.23047 2.33984-4.38281 4.4375 4.28906.1172.09375 4.3203 1.90625 2.6836 2.53125 1.7539.91797 4.44141.9336 4.4375-1.01172v1.625l-3.46875 1.97265 1.65234 4.4375 1.81641 1.77344 4.4375-.22266 1.4961-1.55078-.50391-4.4375-.99219-1.03125-4.4375-.9414v-1.625l4.4375.40625 3.0625 3.1914.20313 4.4375-3.26563 3.3789-4.4375-.0039-3.45703-3.375-.98047-2.11328-4.4414.08985-2.37891-2.41407-2.0586-3.03515-1.77734-1.40235-2.66016-4.3789-4.4375 2.17187"/><path fill="#00e8fc" fill-rule="evenodd" d="M239.82813 440.38281l-1.65235-4.4375 3.46875-1.97265 4.4375.9414.99219 1.03125.5039 4.4375-1.49609 1.55078-4.4375.22266-1.8164-1.77344"/><path fill="#50fcfc" fill-rule="evenodd" d="M254.69922 431.50781l-2.8125-4.4375 3.07031-3.09375v2.07422l-1.00781 1.01953 1.00781 1.4961 1.84375-1.4961-1.84375-1.01953v-2.07422l2.4961-1.34765 1.9453-1.94532 2.3711 1.94532-.11328 4.4414-.69922 4.4375-.60937 4.4375-.94922.95703-1.15625-.95703-3.28516-4.13281-.25781-.30469"/><path fill="#00e8fc" fill-rule="evenodd" d="M254.95703 428.5664l-1.00781-1.49609 1.00781-1.01953 1.84375 1.01953-1.84375 1.4961"/><path fill="#50fcfc" fill-rule="evenodd" d="M265.26953 431.50781l-.26562-4.4375 3.26953-2.54687 4.4375-1.26563 4.4414-.39062 4.4375.25 2.11329-.48828 2.32421-2.63282 4.41016-1.80468.02734-.01954.0547.01954 4.3828.42187 4.44141.3164v1.5547l-4.4414.23046-4.4375-.05468-2.85157 1.96875-1.58594 2.16015-4.4375-.71094-4.4375-.35156-4.4414.53516-4.1875 2.8086-.25 3.40624-.14063 1.03125.14063.1289 4.4375.60548 4.4414 1.49219 2.72657 2.21093 1.71093 1.7461 4.4375.28906 4.4375-1.85938.17188-.17578 2.60547-4.4375 1.66015-3.17578 4.44141 1.80469 4.4375.47656 3.05078-3.54297 1.01563-4.4414-4.06641-.96875-4.4375-1.17579v-1.55468l4.4375.58203 2.75-1.32031 1.6875-2.57032 4.4375.01172v3.01563l-4.35547 3.98047 4.35547 2.97265 3.7461-2.97265-3.7461-3.98047v-3.01563l4.4414-.27734 4.4375-.48828v2.15234l-3.4375 1.17188 3.4375 3.625 3.29298.8125 1.14453.11328.23046-.11328-.23046-.19141-2.8086-4.2461-1.6289-1.17187v-2.15234l4.4375 2.70312.55859.6211 3.8789 2.92578 4.4375-2.76953v2.26562l-2.35937 2.01563 2.35938 1.57812 2.21484-1.57812-2.21484-2.01563v-2.26562l4.4414.30468 4.4375 1.75391 2.4336 2.22266 2.0039.42578 4.4375 2.60937 4.4414-1.99219 1.19923-1.04296 3.23828-2.79297v3.03906l-4.4375 4.1914-.0039.00391-4.4375 1-1.0625-1-3.375-2.88672-4.39844 2.88672 2.34375 4.4375-.57422 4.4375 2.6289 2.66406 2.35156 1.77344 2.08594 2.05469 4.4414-1.19531 4.4375-.16406.70704-.69532-.70703-2.27734-.1836-2.16016.1836-.77344 4.4375.7422 3.22656-4.40626.96485-4.4375-4.19141-4.17969-4.4375-.01562v-3.03906l4.4375.38672 2.28125 2.40625 2.15625 2.1289 2.90234 2.3125 1.53516 3.53906 4.4414-.67968v2.3125l-3.42187 3.70312 2.05078 4.4375-3.07031 4.3125-.09766.125-1.50781 4.4414 1.60547 3.32032.41406 1.11719L379.23438 458l.8203.13672 3.6172 3.01172 2.8164-3.01172 1.6211-.84766.14453.84766.23437 4.4375 4.0586 3.9375 4.4375-.25781 4.4414.30468 4.4375.00782 4.4375-.4961 4.4375-.89453 4.4414-.2539 2.2461-2.34766 2.1914-2.57031 2.52344-1.8672-.17578-4.4375-2.34765-3.45312-4.4375-.92187-.20703-.0625-4.23438-3.19531-4.4375 2.03906-2.32031-3.28516-2.11719-2.04297-3.16406-2.39453-1.27344-1.35937-2.8711-3.07813-1.5703-1.10937-2.79297 1.10937-1.64454.30078-4.4375.10938-.17578-.41016-4.26171-3.47656-4.4375-.22656v-2.3125l4.4375 1.33984.24218.23828 4.19531 1.92188 4.4375.125 4.4375-1.34766 4.44141 2.42578 1.35547 1.3125 3.08203 3.41797 4.4375 4.07813 2.46875 1.3789 1.96875.17969 4.4414.58594 1.3086-.76563 3.1289-1.95312 1.8672 1.95312.76171 4.4414 1.22266 4.4375.58594 3.08595.82812-3.08594 3.60938-3.40625 1.91406-1.03125 2.52344-2.53906 1.25-1.90235 3.1914-3.44531 4.4375-.14844v1.53125l-4.4375 1.26172-.74609.80078-2.85547 4.4414-.83984 1.33985-4.4375 1.69922-1.47656 1.39844 1.47656 3.02734 4.4375-1.60547 2.67578-1.42187 1.76562-1.16406 4.4375-.51172 2.7422-2.76172-.55079-4.4414-2.1914-2.0625v-1.53126l3.8203 3.59375.03907 4.4414-3.85938 3.88673-2.17187.55078-2.26563 1.9961-4.4414 1.34765-2.02735 1.09375-2.41015 2.26172-4.4375-1.14844-4.4375 2.46094-.73828.86328-3.69922 3.86719-4.4414-.05079-4.4375.29688-4.4375.23438-4.4375-.0547-4.44142-.12109-3.7539.26954-.6836.58203-1.0078-.58204-3.4297-2.1953-4.4375.46093-3.14843-2.70703-1.28906-1.1836-2.57813-3.2539-1.86328-2.15625-2.29297-2.28125-1.0664-4.4375.5703-4.4414 2.78907-3.48829.67578-.94922-.52734-4.4375-.14844-2.85547-4.4375-.8164-1.3711 3.67187-3.0664 2.71485-1.4336 1.72265-3.0039 2.94531-4.4375.0625-4.4414.48047-4.19923.94922-.23828.24219-.23828-.24219.23828-.25781.89453-4.17969-.89453-.67187-3.71484-3.76563.20312-4.4375-.92578-1.7539-2.76953-2.6836-1.66797-3.77344-4.4414 2.6836-4.4375-2.22656-4.4375 1.64843-4.4375-.17187-4.4375-.48047-4.44141 2.17969-4.4375-1.42969-.47656 1.57031-3.08985 4.4375-.87109.91406-.94531-.91406-3.49219-.5-4.4414-.76562-.66016 1.26562-1.0039 4.4375-2.77345 2.82422-4.4375.71485-4.4375-.07813-3.3828-3.46094-1.0547-.85547-4.4414-.61328-4.4375-.23437-3.0039-2.73438"/><path fill="#00e8fc" fill-rule="evenodd" d="M268.27344 431.63672l-.14063-.1289.14063-1.03126.25-3.40625 4.1875-2.8086 4.4414-.53515v1.42578l-4.4414.78516-1.6914 1.13281 1.6914 2.03125 4.4414 2.36328.02735.04297 4.41015 3.67578 4.4375.23829 4.4375-2.09766 1.11329-1.8164-1.11329-1.76563-4.4375-1.16406-2.01562-1.50782-2.42188-1.39062-4.4375-.52735v-1.42578l4.4375.35156 4.4375.71094 1.58594-2.16015 2.85156-1.96875v6.3203l-.14843.08985.14843.02344.10547-.02344-.10547-.08984v-6.32031l4.4375.05468 4.44141-.23046v2.74609l-2.8789 3.83984 2.8789 1.61328 4.4375.16797 1.53516-1.78125-1.53516-2.58203-4.4375-1.25781v-2.7461l4.4375 1.17579 4.0664.96875-1.01562 4.4414-3.05078 3.54297-4.4375-.47656-4.4414-1.80469-1.66016 3.17578-2.60547 4.4375-.17188.17578-4.4375 1.85938-4.4375-.28906-1.71093-1.7461-2.72657-2.21094-4.4414-1.49218-4.4375-.60547"/><path fill="#00d4fc" fill-rule="evenodd" d="M272.71094 429.10156l-1.6914-2.03125 1.6914-1.13281 4.4414-.78516v1.4297l-2.28515.48827 2.28515 1.11719 2.38672 3.32031 2.05078 1.71094 4.4375-.59375 2.42188-1.11719-2.42188-.83594-4.4375-3.01953-1.23828-.58203-3.19922-.48828v-1.42969l4.4375.52735 2.42188 1.39062 2.01562 1.50781 4.4375 1.16407 1.11329 1.76562-1.11329 1.8164-4.4375 2.09767-4.4375-.23829-4.41015-3.67578-.02735-.04297-4.4414-2.36328"/><path fill="#00c4fc" fill-rule="evenodd" d="M277.15234 428.1875l-2.28515-1.11719 2.28515-.48828 3.19922.48828 1.23828.58203 4.4375 3.01954 2.42188.83593-2.42188 1.11719-4.4375.59375-2.05078-1.71094-2.38672-3.32031"/><path fill="#50fcfc" fill-rule="evenodd" d="M290.46484 426.98047l-.14843.08984.14843.02344.10547-.02344-.10547-.08984m4.4375 19.73828l-2.52343-1.89844 2.52343-1.89844 2.81641 1.89844-2.8164 1.89844"/><path fill="#00d4fc" fill-rule="evenodd" d="M299.34375 428.6836l-2.8789-1.61329 2.8789-3.83984v3.44531l-.29297.39453.29297.16406 4.4375-.14843.01563-.01563-.01563-.02734-4.4375-.36719v-3.44531l4.4375 1.25781 1.53516 2.58203-1.53516 1.78125-4.4375-.16797"/><path fill="#00c4fc" fill-rule="evenodd" d="M299.34375 427.23438l-.29297-.16407.29297-.39453 4.4375.36719.01563.02734-.01563.01563-4.4375.14844"/><path fill="#50fcfc" fill-rule="evenodd" d="M303.78125 452.03906l-2.63672-2.77734 2.63672-2.59766 2.4414 2.59766-2.4414 2.77734m0 11.14844l-.8711-.61328.8711-2.16016 4.4375-1.96094 3.17969 4.1211-3.17969 2.26172-4.4375-1.64844"/><path fill="#00e8fc" fill-rule="evenodd" d="M312.65625 425.60156l-4.35547-2.97265 4.35547-3.98047v2.96875l-1.10938 1.01172 1.10938.7578.95703-.7578-.95703-1.01172v-2.96875l3.7461 3.98047-3.7461 2.97265"/><path fill="#00d4fc" fill-rule="evenodd" d="M312.65625 423.38672l-1.10938-.75781 1.10938-1.01172.95703 1.01172-.95703.7578"/><path fill="#00e8fc" fill-rule="evenodd" d="M321.53516 421.8164l-3.4375-3.625 3.4375-1.17187 1.6289 1.17188 2.8086 4.24609.23046.1914-.23046.11329-1.14454-.11328-3.29296-.8125m13.3125 2.39062l-2.35938-1.57812 2.35938-2.01563 2.21484 2.01563-2.21484 1.57812m11.26171 7.30078l-2.34375-4.4375 4.39844-2.88672 3.375 2.88672 1.0625 1 4.4375-1 .0039-.0039 4.4375-4.19141 4.4375.01563v1.29296l-4.4375 1.03516-1.95702 1.85156-2.48047.95313-4.4414 2.1211-3.26954-3.07423-1.16797-1-1.52344 1 1.52344 3.44922.83203.98828-.83203 1.11719-.8164 3.32031.8164.82813 4.4375 3.45703 4.4414-.72656 3.20704-3.5586 1.03125-4.4375.19922-.79297 1.21875.79297 3.21875 1.375 1.00781-1.375 1.88672-4.4375-2.89453-2.88672v-1.29296l4.1914 4.17968-.96484 4.4375-3.22656 4.40625-4.4375-.74219-.1836.77344.1836 2.16016.70703 2.27734-.70703.69531-4.4375.16407-4.4414 1.19531-2.08594-2.05469-2.35157-1.77344-2.6289-2.66406.57421-4.4375"/><path fill="#00d4fc" fill-rule="evenodd" d="M348.16406 430.51953l-1.52344-3.44922 1.52344-1 1.16797 1 3.26953 3.07422 4.4414-2.1211v.95313l-3.93358 2.53125-.50782.45313-3.75 3.98437 3.75 3.21485 4.4414-.8125 2.16407-2.40235.91016-4.4375-3.07422-2.53125v-.95312l2.48047-.95313 1.95703-1.85156 4.4375-1.03516v1.29688l-3.78516 1.58984 3.78516 3.07031 1.59375-3.0703-1.59375-1.58985v-1.29688l2.89453 2.88672-1.88672 4.4375-1.00781 1.375-3.21875-1.375-1.21875-.79297-.19922.79297-1.03125 4.4375-3.20703 3.5586-4.4414.72656-4.4375-3.45703-.81641-.82813.8164-3.32031.83203-1.11719-.83203-.98828"/><path fill="#00c4fc" fill-rule="evenodd" d="M352.60156 439.16016l-3.75-3.21485 3.75-3.98437.50781-.45313 3.9336-2.53125v.95313l-2.44922 1.57812-1.99219 1.77735-2.5039 2.66015 2.5039 2.14453 4.4414-.90234 1.1172-1.24219.79687-4.4375-1.91406-1.57812v-.95313l3.07422 2.53125-.91016 4.4375-2.16406 2.40235-4.4414.8125"/><path fill="#00b8fc" fill-rule="evenodd" d="M352.60156 438.08984l-2.5039-2.14453 2.5039-2.66015 1.99219-1.77735 2.44922-1.57812v.95703l-.96485.6211-3.47656 3.10546-1.2539 1.33203 1.2539 1.07422 4.4414-.99219.07423-.08203.67969-4.4375-.75391-.6211v-.95702l1.91406 1.57812-.79687 4.4375-1.1172 1.24219-4.4414.90234"/><path fill="#00a8fc" fill-rule="evenodd" d="M352.60156 437.01953l-1.2539-1.07422 1.2539-1.33203v1.32422l-.0039.00781.0039.0039.02344-.0039-.02344-.00781v-1.32422l3.47656-3.10547.96485-.6211.7539.6211-.67968 4.4375-.07422.08203-4.4414.9922"/><path fill="#009800" fill-rule="evenodd" d="M352.60156 435.94922l-.0039-.0039.0039-.00782.02344.00781-.02344.0039"/><path fill="#00c4fc" fill-rule="evenodd" d="M365.91797 430.14063l-3.78516-3.07032 3.78516-1.58984v1.29297l-.70313.29687.70313.5664.29687-.5664-.29687-.29687v-1.29297l1.59375 1.58984-1.59375 3.07031"/><path fill="#00b8fc" fill-rule="evenodd" d="M365.91797 427.63672l-.70313-.5664.70313-.29688.29687.29687-.29687.5664"/><path fill="#00e8fc" fill-rule="evenodd" d="M374.79297 452.58203l-1.60547-3.32031 1.50781-4.4414.09766-.125 3.07031-4.3125-2.05078-4.4375 3.42188-3.70313v1.57812l-1.96485 2.125 1.96485 2.98438 1.6914 1.45312-1.6914 2.59375-1.4375 1.84375-2.06641 4.4414 1.70312 4.4375 1.80079 1.92188 2.73437-1.92187 1.70313-1.82813 4.4375.5586.35156 1.26953.79297 4.4375.1953 4.4375 3.09767 3.0039 4.4375-.14062 4.4414.60938 4.4375-.07813 4.4375-.92578 4.4375-1.89063 3.51563-.57812.92578-.16406 3.76562-4.27344.61719-4.4375-4.38281-3.67188-2.5625-.76562-1.8789-1.42188-2.17188 1.42188-2.26563.9336-4.4375-.26563-2.60156-.66797-1.83594-1-2.26953-3.4414-.79297-4.4375-1.3789-1.4336-4.4375-.67188-3.88282 2.10547-.55469.97656-.54296-.97656-1.67579-4.4375-2.21875-1.8125-4.4375-.3125v-1.57812l4.4375.22656 4.26172 3.47656.17579.41016 4.4375-.10938 1.64453-.30078 2.79296-1.10937 1.57032 1.10937 2.8711 3.07813 1.27343 1.35937 3.16406 2.39453 2.11719 2.04297 2.32031 3.28516 4.4375-2.03906 4.23438 3.1953.20703.0625 4.4375.92188 2.34765 3.45313.17579 4.4375-2.52344 1.86719-2.1914 2.5703-2.2461 2.34767-4.4414.2539-4.4375.89453-4.4375.4961-4.4375-.00782-4.44142-.30468-4.4375.2578-4.05859-3.9375-.23437-4.4375-.14454-.84765-1.62109.84766-2.8164 3.01172-3.6172-3.01172-.8203-.13672-4.02735-4.30078-.41406-1.11719"/><path fill="#00d4fc" fill-rule="evenodd" d="M377.4336 453.69922l-1.70313-4.4375 2.0664-4.4414 1.4375-1.84376v3.78906l-1.42187 2.4961 1.42188 3.46484 3.14453-3.46484-3.14454-2.4961v-3.78906l1.69141-2.59375-1.6914-1.45312-1.96485-2.98438 1.96485-2.125v1.57422l-.50782.55078.50781.77344 4.27344 3.66406.16406.16406v2.58985l-2.58203 1.6836 2.58204 2.10937 2.44921-2.10938-2.44921-1.6836v-2.58983l.23046-.16407-.05078-4.4375-.17969-.14453-4.4375-.40625v-1.57422l4.4375.3125 2.21875 1.8125 1.67579 4.4375.54296.97656.5547-.97656 3.8828-2.10547v2.03125l-.13671.07422-1.56641 4.4375-2.34375 4.4414.86328 4.4375.89063 4.4375.15625 4.4375 2.13671 2.07423 4.4375-.03125 4.44141.91406 4.4375-.15625 4.4375-1.36328 2.9336-1.4375 1.5039-1.71094 4.4414-.66015 1.82423-2.06641 1.71484-4.4375-3.53906-2.96485-4.4414-1.30078-4.4375 1.88672-4.4375 1.28906-4.4375 1.01563-2.11329-4.36328-2.32813-3.03906-2.60156-1.40235-1.59375-4.4375-.24219-.07422v-2.03125l4.4375.67188 1.37891 1.4336.79297 4.4375 2.26953 3.4414 1.83594 1 2.60156.66797 4.4375.26562 2.26563-.9336 2.17187-1.42187 1.8789 1.42188 2.5625.76562 4.38282 3.67188-.61719 4.4375-3.76562 4.27344-.92578.16406-3.51563.57812-4.4375 1.89063-4.4375.92578-4.4375.07813-4.4414-.60938-4.4375.14063-3.09766-3.00391-.19531-4.4375-.79297-4.4375-.35156-1.26953-4.4375-.5586-1.70313 1.82813-2.73438 1.92187-1.80078-1.92187"/><path fill="#00c4fc" fill-rule="evenodd" d="M379.23438 452.72656l-1.42188-3.46484 1.42188-2.4961 3.14453 2.4961-3.14454 3.46484m0-16.00781l-.5078-.77344.5078-.55078 4.4375.40625.1797.14453.05077 4.4375-.23046.16406-.16407-.16406-4.27344-3.66406"/><path fill="#00e8fc" fill-rule="evenodd" d="M383.67188 443.13672l-2.58204 1.6836 2.58204 2.10937 2.44921-2.10938-2.44921-1.6836"/><path fill="#00c4fc" fill-rule="evenodd" d="M389.36328 453.69922l-.86328-4.4375 2.34375-4.4414 1.5664-4.4375.13673-.07423.24218.07422 1.59375 4.4375 2.60156 1.40235v3.17968l-4.4375.79688-2.28125 3.5.98829 4.4375.11718 4.4375 1.17579 1.14062 4.4375.08594 4.4414 1.21875 4.4375-.24219 4.4375-1.79296.83203-.41016 3.60547-4.10156 3.08594-.33594 1.35547-.08594 2.69531-4.35156-2.69531-2.25781-4.4414-1.13672-4.4375 2.13672-2.89845 1.2578-1.53906.52345-4.4375.28906-1.14062-.8125-3.30079-4.29688v-3.17968l2.32813 3.03906 2.11328 4.36328 4.4375-1.01563 4.4375-1.28906 4.4375-1.88672 4.4414 1.30079 3.53907 2.96484-1.71484 4.4375-1.82422 2.0664-4.4414.66016-1.50392 1.71094-2.93359 1.4375-4.4375 1.36328-4.4375.15625-4.4414-.91406-4.4375.03125-2.13672-2.07422-.15625-4.4375-.89063-4.4375"/><path fill="#00b8fc" fill-rule="evenodd" d="M391.2539 458.13672l-.98827-4.4375 2.28125-3.5 4.4375-.79688v1.50391l-4.4375.67578-1.37891 2.11719 1.08594 4.4375.07812 4.4375.21485.21094 4.4375.1953 4.4414 1.52345 4.4375-.32422 3.625-1.60547.8125-2.09375 1.95703-2.34375 2.48047-1.01172 4.4414-.4375 1.85157-2.98828-1.85156-1.55078-4.4414-.97656-4.4375 2.39453-.3047.1328-4.1328 1.41407-4.4375.22266-2.29688-1.63672-2.14454-2.79297v-1.5039l3.30079 4.29687 1.14062.8125 4.4375-.28906 1.53906-.52344 2.89844-1.25781 4.4375-2.13672 4.4414 1.13672 2.69532 2.2578-2.69531 4.35157-1.35547.08594-3.08594.33594-3.60547 4.10156-.83203.41015-4.4375 1.79297-4.4375.2422-4.4414-1.21876-4.4375-.08594-1.17579-1.14062-.11718-4.4375"/><path fill="#00a8fc" fill-rule="evenodd" d="M392.2539 458.13672l-1.08593-4.4375 1.3789-2.11719 4.4375-.67578v1.50781l-4.4375.55469-.47656.73047.47656 1.89453.7461 2.54297 3.6914 3.8789.6875.5586 3.75391 1.41797 4.4375-.40625 2.27735-1.01172 1.63671-4.4375L405.86328 456l-4.4375.16016-3.45312-2.46094-.98829-1.28516v-1.50781l2.14454 2.79297 2.29687 1.63672 4.4375-.22266 4.13281-1.41406.3047-.13281 4.4375-2.39454v.8672l-3.03517 1.66015 3.03516 2.25 4.4414-.625 1.00391-1.625-1.0039-.84375-4.4414-.8164v-.8672l4.4414.97657 1.85156 1.55078-1.85156 2.98828-4.4414.4375-2.48048 1.01172-1.95703 2.34375-.8125 2.09375-3.625 1.60547-4.4375.32422-4.4414-1.52344-4.4375-.19531-.21485-.21094-.07812-4.4375"/><path fill="#009800" fill-rule="evenodd" d="M392.54688 455.59375l-.47657-1.89453.47656-.73047 4.4375-.55469v1.52735l-2.64062 4.1953 2.64063 2.77345 2.05078 1.66406 2.39062.90234 4.4375-.48828.92969-.41406 1.35937-4.4375-2.28906-1.25-4.4375.10156-4.4414-3.04687v-1.52735l.98828 1.28516 3.45312 2.46094 4.4375-.16016 3.91406 2.13672-1.63671 4.4375-2.27735 1.01172-4.4375.40625-3.7539-1.41797-.6875-.5586-3.69141-3.8789-.7461-2.54297"/><path fill="#00ac00" fill-rule="evenodd" d="M396.98438 460.91016l-2.64063-2.77344 2.64063-4.19531v1.67187l-1.58594 2.52344 1.58594 1.66797 3.41015 2.76953 1.03125.39062 3.15235-.39062 1.28515-1.90235.66406-2.53515-.66406-.36328-4.4375.03906-4.4414-2.19922v-1.67187l4.4414 3.04687 4.4375-.10156 2.28906 1.25-1.35937 4.4375-.92969.41406-4.4375.48828-2.39062-.90234-2.05079-1.66406"/><path fill="#00c800" fill-rule="evenodd" d="M396.98438 459.80469l-1.58594-1.66797 1.58594-2.52344 4.4414 2.19922 4.4375-.03906.66406.36328-.66406 2.53515-1.28515 1.90235-3.15235.39062-1.03125-.39062-3.41015-2.76953"/><path fill="#009800" fill-rule="evenodd" d="M414.73828 455.94922l-3.03515-2.25 3.03515-1.66016v.86719l-1.44922.79297 1.44922 1.07422 4.4414-.8125.16016-.26172-.16015-.13672-4.4414-.65625v-.86719l4.4414.8164 1.0039.84376-1.0039 1.625-4.4414.625"/><path fill="#00ac00" fill-rule="evenodd" d="M414.73828 454.77344l-1.44922-1.07422 1.44922-.79297 4.4414.65625.16016.13672-.16015.26172-4.4414.8125"/><path fill="#00e8fc" fill-rule="evenodd" d="M432.49219 456.72656l-1.47656-3.02734 1.47656-1.39844 4.4375-1.69922.83984-1.33984 2.85547-4.4414.7461-.80079 4.4375-1.26172v3.35156l-3.25391 3.15235 3.2539.88281.87891-.88281-.8789-3.15235v-3.35156l2.1914 2.0625.55078 4.4414-2.74219 2.76173-4.4375.51172-1.76562 1.16406-2.67578 1.42187-4.4375 1.60547"/><path fill="#00d4fc" fill-rule="evenodd" d="M445.8086 450.14453l-3.25391-.88281 3.2539-3.15235.87891 3.15235-.8789.88281"/><path fill="#50fcfc" fill-rule="evenodd" d="M445.8086 436.98438l-1.02344-1.03907 1.02343-.90234.95704.90234-.95704 1.03906"/><g clip-path="url(#c)"><path fill="#fff" fill-opacity="0" fill-rule="evenodd" d="M467.9961 480.32813H468V311.67188h-.0039H468v168.65625h-.0039"/></g><path fill="#fff" fill-opacity="0" fill-rule="evenodd" d="M300.45313 437.5625l5.84375-.11719-.20313-9.95703-5.83984.11719.19921 9.95703"/><path fill-rule="evenodd" d="M303.78906 429.36719l.50781-.01172.12891 6.29297-.78906.01953-.08985-4.49219-1.38671.03125-.01172-.5586.5586-.07421.25-.0586.22655-.09375.20313-.14843.16797-.21094.13672-.29688.09765-.39843"/><path fill="#fff" fill-opacity="0" fill-rule="evenodd" d="M326.76172 426.03125l5.83594.25781.4375-9.94922-5.83594-.2578-.4375 9.94921"/><path fill-rule="evenodd" d="M330.61719 418.0664l.50781.02344-.27734 6.28907-.78907-.03516.19922-4.48438-1.38672-.0625.02344-.55468.5625-.03906.2539-.04297.23438-.08204.21094-.1328.17969-.19923.15625-.28906.125-.39062"/><path fill="#fff" fill-opacity="0" fill-rule="evenodd" d="M440.8086 444.76172l5.46484 2.0625 3.51562-9.32031-5.46484-2.0625-3.51563 9.3203"/><path fill-rule="evenodd" d="M446.94922 438.39063l.47656.17968-2.21875 5.89063-.73828-.27735 1.58594-4.19921-1.30078-.4922.1953-.51952.54688.13671.25782.03907.24609-.0039.23828-.0586.23828-.13672.23438-.22266.23828-.33594"/><g clip-path="url(#d)"><path fill="none" stroke="#000" stroke-linecap="round" stroke-linejoin="round" stroke-miterlimit="10" stroke-width=".5" d="M147.32813 479.20703l-6.65625 2.24219"/></g><g clip-path="url(#e)"><path fill="none" stroke="#000" stroke-linecap="round" stroke-linejoin="round" stroke-miterlimit="10" stroke-width=".5" d="M146.35938 479.53125l.89453.84375"/></g><g clip-path="url(#f)"><path fill="none" stroke="#000" stroke-linecap="round" stroke-linejoin="round" stroke-miterlimit="10" stroke-width=".5" d="M160.59375 479.0664l-6.5586 2.52344"/></g><g clip-path="url(#g)"><path fill="none" stroke="#000" stroke-linecap="round" stroke-linejoin="round" stroke-miterlimit="10" stroke-width=".5" d="M159.64063 479.4336l.92578.80468"/></g><g clip-path="url(#h)"><path fill="none" stroke="#000" stroke-linecap="round" stroke-linejoin="round" stroke-miterlimit="10" stroke-width=".5" d="M174.07813 479.66016l-6.89844 1.33593"/></g><g clip-path="url(#i)"><path fill="none" stroke="#000" stroke-linecap="round" stroke-linejoin="round" stroke-miterlimit="10" stroke-width=".5" d="M173.07422 479.85547l.77344.95312"/></g><g clip-path="url(#j)"><path fill="none" stroke="#000" stroke-linecap="round" stroke-linejoin="round" stroke-miterlimit="10" stroke-width=".5" d="M187.45313 480.51953l-7.01563-.38281"/></g><g clip-path="url(#k)"><path fill="none" stroke="#000" stroke-linecap="round" stroke-linejoin="round" stroke-miterlimit="10" stroke-width=".5" d="M186.4336 480.46484l.51562 1.11328"/></g><g clip-path="url(#l)"><path fill="none" stroke="#000" stroke-linecap="round" stroke-linejoin="round" stroke-miterlimit="10" stroke-width=".5" d="M200.66016 481.20703l-6.80078-1.75781"/></g><g clip-path="url(#m)"><path fill="none" stroke="#000" stroke-linecap="round" stroke-linejoin="round" stroke-miterlimit="10" stroke-width=".5" d="M199.67188 480.95313l.28515 1.1914"/></g><g clip-path="url(#n)"><path fill="none" stroke="#000" stroke-linecap="round" stroke-linejoin="round" stroke-miterlimit="10" stroke-width=".5" d="M214.08594 480.48828l-7.01953-.3164"/></g><g clip-path="url(#o)"><path fill="none" stroke="#000" stroke-linecap="round" stroke-linejoin="round" stroke-miterlimit="10" stroke-width=".5" d="M213.0625 480.4414l.52734 1.10548"/></g><g clip-path="url(#p)"><path fill="none" stroke="#000" stroke-linecap="round" stroke-linejoin="round" stroke-miterlimit="10" stroke-width=".5" d="M227.39453 480.08984l-7.00781.47657"/></g><g clip-path="url(#q)"><path fill="none" stroke="#000" stroke-linecap="round" stroke-linejoin="round" stroke-miterlimit="10" stroke-width=".5" d="M226.375 480.16016l.64844 1.04297"/></g><g clip-path="url(#r)"><path fill="none" stroke="#000" stroke-linecap="round" stroke-linejoin="round" stroke-miterlimit="10" stroke-width=".5" d="M240.66797 479.72656l-6.92578 1.20313"/></g><g clip-path="url(#s)"><path fill="none" stroke="#000" stroke-linecap="round" stroke-linejoin="round" stroke-miterlimit="10" stroke-width=".5" d="M239.66016 479.90234l.7539.96875"/></g><g clip-path="url(#t)"><path fill="none" stroke="#000" stroke-linecap="round" stroke-linejoin="round" stroke-miterlimit="10" stroke-width=".5" d="M254.02734 480.1211l-7.01562.41406"/></g><g clip-path="url(#u)"><path fill="none" stroke="#000" stroke-linecap="round" stroke-linejoin="round" stroke-miterlimit="10" stroke-width=".5" d="M253.00781 480.17969l.64063 1.04687"/></g><g clip-path="url(#v)"><path fill="none" stroke="#000" stroke-linecap="round" stroke-linejoin="round" stroke-miterlimit="10" stroke-width=".5" d="M267.26172 481.11719l-6.85156-1.57422"/></g><g clip-path="url(#w)"><path fill="none" stroke="#000" stroke-linecap="round" stroke-linejoin="round" stroke-miterlimit="10" stroke-width=".5" d="M266.26172 480.88672l.32031 1.1836"/></g><g clip-path="url(#x)"><path fill="none" stroke="#000" stroke-linecap="round" stroke-linejoin="round" stroke-miterlimit="10" stroke-width=".5" d="M280.59766 481.00781l-6.89453-1.35547"/></g><g clip-path="url(#y)"><path fill="none" stroke="#000" stroke-linecap="round" stroke-linejoin="round" stroke-miterlimit="10" stroke-width=".5" d="M279.59375 480.8086l.35547 1.17577"/></g><g clip-path="url(#z)"><path fill="none" stroke="#000" stroke-linecap="round" stroke-linejoin="round" stroke-miterlimit="10" stroke-width=".5" d="M293.6875 481.73047l-6.44531-2.80078"/></g><g clip-path="url(#A)"><path fill="none" stroke="#000" stroke-linecap="round" stroke-linejoin="round" stroke-miterlimit="10" stroke-width=".5" d="M307.17578 481.23047l-6.78906-1.80469"/></g><g clip-path="url(#B)"><path fill="none" stroke="#000" stroke-linecap="round" stroke-linejoin="round" stroke-miterlimit="10" stroke-width=".5" d="M306.1875 480.96875l.28125 1.19531"/></g><g clip-path="url(#C)"><path fill="none" stroke="#000" stroke-linecap="round" stroke-linejoin="round" stroke-miterlimit="10" stroke-width=".5" d="M320.60547 480.47266l-7.01953-.28907"/></g><g clip-path="url(#D)"><path fill="none" stroke="#000" stroke-linecap="round" stroke-linejoin="round" stroke-miterlimit="10" stroke-width=".5" d="M319.58594 480.4336l.53125 1.10546"/></g><g clip-path="url(#E)"><path fill="none" stroke="#000" stroke-linecap="round" stroke-linejoin="round" stroke-miterlimit="10" stroke-width=".5" d="M332.35938 477.40625l-3.89844 5.84766"/></g><g clip-path="url(#F)"><path fill="none" stroke="#000" stroke-linecap="round" stroke-linejoin="round" stroke-miterlimit="10" stroke-width=".5" d="M344.57422 476.91797l-1.69922 6.82031"/></g><g clip-path="url(#G)"><path fill="none" stroke="#000" stroke-linecap="round" stroke-linejoin="round" stroke-miterlimit="10" stroke-width=".5" d="M356.66016 476.83594l.76171 6.98437"/></g><path fill="none" stroke="#000" stroke-linecap="round" stroke-linejoin="round" stroke-miterlimit="10" stroke-width=".5" d="M356.77344 477.85156l1.01172-.6875"/><g clip-path="url(#H)"><path fill="none" stroke="#000" stroke-linecap="round" stroke-linejoin="round" stroke-miterlimit="10" stroke-width=".5" d="M371.49219 477.0039l-2.27344 6.64844"/></g><path fill="none" stroke="#000" stroke-linecap="round" stroke-linejoin="round" stroke-miterlimit="10" stroke-width=".5" d="M371.16016 477.97266l1.21484-.19532"/><g clip-path="url(#I)"><path fill="none" stroke="#000" stroke-linecap="round" stroke-linejoin="round" stroke-miterlimit="10" stroke-width=".5" d="M381.64453 483.19922l4.05469-5.73828"/></g><g clip-path="url(#J)"><path fill="none" stroke="#000" stroke-linecap="round" stroke-linejoin="round" stroke-miterlimit="10" stroke-width=".5" d="M393.98438 478.5039l6.0039 3.64844"/></g><g clip-path="url(#K)"><path fill="none" stroke="#000" stroke-linecap="round" stroke-linejoin="round" stroke-miterlimit="10" stroke-width=".5" d="M411.47266 483.64063l-2.33985-6.625"/></g><g clip-path="url(#L)"><path fill="none" stroke="#000" stroke-linecap="round" stroke-linejoin="round" stroke-miterlimit="10" stroke-width=".5" d="M427.10938 480.69531l-6.98829-.73437"/></g><g clip-path="url(#M)"><path fill="none" stroke="#000" stroke-linecap="round" stroke-linejoin="round" stroke-miterlimit="10" stroke-width=".5" d="M426.09375 480.58984l.46094 1.13672"/></g><g clip-path="url(#N)"><path fill="none" stroke="#000" stroke-linecap="round" stroke-linejoin="round" stroke-miterlimit="10" stroke-width=".5" d="M440.4336 480.03906l-7.00391.57813"/></g><g clip-path="url(#O)"><path fill="none" stroke="#000" stroke-linecap="round" stroke-linejoin="round" stroke-miterlimit="10" stroke-width=".5" d="M439.41406 480.125l.66406 1.03125"/></g><g clip-path="url(#P)"><path fill="none" stroke="#000" stroke-linecap="round" stroke-linejoin="round" stroke-miterlimit="10" stroke-width=".5" d="M453.6289 481.28125l-6.76562-1.90625"/></g><g clip-path="url(#Q)"><path fill="none" stroke="#000" stroke-linecap="round" stroke-linejoin="round" stroke-miterlimit="10" stroke-width=".5" d="M452.64453 481.0039l.26172 1.19923"/></g><g clip-path="url(#R)"><path fill="none" stroke="#000" stroke-linecap="round" stroke-linejoin="round" stroke-miterlimit="10" stroke-width=".5" d="M466.36328 482.44922l-5.60547-4.23828"/></g><g clip-path="url(#S)"><path fill="none" stroke="#000" stroke-linecap="round" stroke-linejoin="round" stroke-miterlimit="10" stroke-width=".5" d="M147.3711 466.01953l-6.7422 1.98828"/></g><path fill="none" stroke="#000" stroke-linecap="round" stroke-linejoin="round" stroke-miterlimit="10" stroke-width=".5" d="M147.3711 466.01953l1.71484 1.7539m11.70312-1.27734l-6.94922 1.03516m6.94922-1.03516l1.46094 1.97266m11.88672-1.22266l-7.01172-.46484m7.01172.46484l1.00781 2.23829m12.28125-1.98829l-6.96094-.96484m6.96094.96484l.84375 2.30079m12.36328-1.80079l-6.7461-1.96484m6.7461 1.96484l.5 2.40235m12.95313-3.27344l-7.02344-.22266m6.0039.19141l.53907 1.10156m13.79687-1.05468l-7.02343-.25391m6 .21875l.53906 1.10156m13.78125-1.5586l-6.98828.73048m5.97265-.625l.6836 1.01953m13.66015-.97266l-7.01562.42578m7.01562-.42578l1.28125 2.09375m12.02735-2.16797l-7.0039.57422m7.0039-.57422l1.32812 2.0625m11.98438-1.44922l-6.9961-.65234m5.98047.5586l.47266 1.1289m13.74219-.40625l-6.76172-1.91016m5.77734 1.63282l.26172 1.19922m14.01172-.83594l-6.71094-2.08203m5.73438 1.78125l.23047 1.20312m14.03906-3.05078l-6.66797 2.21484m5.69922-1.89062l.88672.84375m12.05078-2.95703l-3.97266 5.79297m3.39453-4.95313l1.21875.14063m12.09766-1.30078l-2.82422 6.43359m2.41406-5.4961l1.22266-.09375m13.3711-.30078l-4.5586 5.34766m18.03906-5.19531l-4.89062 5.04297m4.17968-4.3086l1.1797.33985m11.23437-1.96485l-1.66797 6.82422m1.42578-5.83203l1.1914-.30078m8.89063 5.03515l5.28516-4.6289m8.74609 5.2539l3.85547-5.8789m14.5625 4.4414l-6.35547-3.0039m5.42969 2.5664l.0586 1.22657m14.51562-2.42188l-7.01953.26172m6-.22265l.61328 1.0625m12.29297 1.85937l-4.16016-5.66016m17.05469 5.92578l-3.32032-6.1914m2.83594 5.29297l-.6836 1.01953"/><g clip-path="url(#T)"><path fill="none" stroke="#000" stroke-linecap="round" stroke-linejoin="round" stroke-miterlimit="10" stroke-width=".5" d="M147.50781 453.92969l-7.01562-.46094"/></g><path fill="none" stroke="#000" stroke-linecap="round" stroke-linejoin="round" stroke-miterlimit="10" stroke-width=".5" d="M147.50781 453.92969l1.0039 2.23828m12.31642-2.5l-7.02735.0625m7.02734-.0625L162 455.82422m12.11328-1.65235l-6.96484-.9453m6.96484.9453l.84766 2.30079m12.4375-2.1211l-6.90625-1.30468m6.90625 1.30468l.72656 2.34375m12.4961-1.96875l-6.71876-2.05468m6.71875 2.05468l.46485 2.41016m12.8789-2.51172l-6.77734-1.85547m5.78906 1.58594l.26953 1.19922m14.15235-2.0586l-7.01563.40625m7.01563-.40625l1.27734 2.09375m11.99219-2.48437l-6.92578 1.1875m6.92578-1.1875l1.5039 1.9414m11.84375-1.6914l-6.99218.6875m6.99219-.6875l1.35937 2.04297m11.97266-1.83203l-7.02344.26562m7.02344-.26562l1.23047 2.12109m12.0664-2.35156l-6.98828.72656m5.97266-.6211l.68359 1.01563m13.66406-.61328l-7.01953-.28906m5.9961.2461l.53125 1.10546m13.80859-1.20703h-7.02735m6.00782 0l.57422 1.08203m13.65625-1.94531l-6.8125 1.72265m5.8203-1.46875l.82423.90625m12.375-2.95312l-4.60156 5.3125m3.93359-4.53906l1.19531.27343m10.36719-1.90234l.24219 7.02344m-.20704-6.0039l1.0625-.60938m11.50391-.3125l1.66797 6.82812m-1.42578-5.83594l.91406-.8164m13.0664-.27344l-.14843 7.02344m.1289-6.0039l1.09376-.55079m9.66406.57813l5.00781 4.92968m-4.28125-4.21484l.35156-1.17578m11.375 3.9336l6.73047-2.01563m-5.75 1.72265l-.86328-.875m15.33594 3.45313l2.45312-6.58594m-2.09375 5.6289l-1.21875.16016m16.0547.95703l-1.3047-6.90625m1.11329 5.89844l-.95704.76953m15.42188-.09375l-3.22266-6.24218m2.7539 5.33203l-.6953 1.01172m12.03515.1914l1.66406-6.82812m-1.66406 6.82812l-2.3789.60547m16.14843-.52734l.75391-6.98438m-.7539 6.98438l-2.27735.91406"/><g clip-path="url(#U)"><path fill="none" stroke="#000" stroke-linecap="round" stroke-linejoin="round" stroke-miterlimit="10" stroke-width=".5" d="M147.50781 440.5664l-7.01562-.36718"/></g><path fill="none" stroke="#000" stroke-linecap="round" stroke-linejoin="round" stroke-miterlimit="10" stroke-width=".5" d="M147.50781 440.5664l1.03906 2.22266m-2.05859-2.27734l.51953 1.11328m13.76172-.60547l-6.91016-1.26953m6.91016 1.26953l.74219 2.33594m-1.7461-2.52344l.3711 1.17188m13.7461-.29688l-6.50782-2.64844m6.50781 2.64844l.25 2.4414m13.13281-2.62109l-6.64062-2.28906m6.64063 2.28906l.38671 2.42188m13.02344-2.7461l-6.83203-1.63671m6.83203 1.63672l.61719 2.375m12.79297-3.33594l-7.01953.28125m7.01953-.28125l1.23828 2.1211m12.04297-2.5l-6.95313 1.03905m6.95313-1.03906l1.45703 1.97266m11.79297-2.30078l-6.82031 1.6953m5.82812-1.44921l.82031.91406m13.51563-1.02343l-6.88281 1.42187m5.8828-1.21484l.78126.9453m13.35156-1.7539l-6.51563 2.625m5.56641-2.24218l.9414.78906m13.48829-.64844l-6.84766 1.57813m5.85157-1.34766l.80468.92578m13.57032-.8086l-6.97266.88282m5.95703-.7539l.70703 1m13.4961-1.71485l-6.71875 2.0586m5.74218-1.76173l.86719.8672m12.9336-2.16407l-5.73829 4.05469m4.90235-3.46485l1.09765.55469m11.74219-2.26562l-3.11719 6.29687m2.66407-5.3789l1.22656-.03516m11.83203-1.14453l-1.69531 6.8203m1.44922-5.82812l1.1914-.29687m10.38672-.60938l2.26953 6.65235m-1.9375-5.6836l.83985-.89453m12.57812-.1914l1.39844 6.88672m-1.19531-5.88672l.94921-.77735m9.82032 1.46094l6.08203 3.51563m-5.19531-3.00391l.04296-1.22656m12 1.69922l6.85547 1.55078m-6.85547-1.55078l-.64453-2.3672m14.09375 4.3672l6.58594-2.45313m-6.58594 2.45313l-1.83593-1.62891m2.79687 1.27344l-.91797-.81641m15.51563 3.30078l2.09765-6.70703m-2.09765 6.70703l-2.41016.44922m16.97266-.29687l-.39453-7.01563m.39453 7.01563l-2.10157 1.27343m14.6797-1.3086l1.07812-6.9453m-.92188 5.93359l-1.16015.40234m14.30078.60547l1.11718-6.9375m-1.11718 6.9375l-2.32422.79297"/><g clip-path="url(#V)"><path fill="none" stroke="#000" stroke-linecap="round" stroke-linejoin="round" stroke-miterlimit="10" stroke-width=".5" d="M147.51172 427.0586l-7.02344.01952"/></g><path fill="none" stroke="#000" stroke-linecap="round" stroke-linejoin="round" stroke-miterlimit="10" stroke-width=".5" d="M147.51172 427.0586l1.16016 2.16406m-2.1797-2.16016l.57813 1.08203m13.75-.82031l-7.00781-.51172m7.00781.51172l.99219 2.2461m12.3086-2.11329l-6.98438-.77344m6.98437.77344l.90625 2.27734m12.4297-2.66406h-7.02345m7.02344 0l1.15234 2.16406m12.06641-2.99609l-6.82812 1.66016m6.82812-1.66016l1.6289 1.83594m11.72266-1.65235l-6.90625 1.29297m5.90235-1.10547l.76562.96094m13.46094.53125l-6.71875-2.0664m5.73828 1.76562l.23438 1.20703M240.625 427.875l-6.83984-1.61328m5.84375 1.3789l.3125 1.1836m14.05468-2.28516l-6.94922 1.0586m5.9375-.90235l.73047.98438m13.55078-1.3711l-6.85937 1.51953m5.86328-1.29687l.79297.9336m13.57031-.8711l-6.96484.94922m5.94922-.8086l.71875.9922m13.28906-2.19532l-6.3164 3.07422m5.39843-2.6289l.99219.72265m12.83594-1.8125l-5.50782 4.36328m16.9961-5.57031l-1.85547 6.77734m14.14844-6.90234l.1875 7.02734m-.16016-6.0039l1.0664-.60547m11.44532-.3086l1.74219 6.8086m-1.48829-5.81641l.90625-.82813m12.28907-.1953l1.47265 6.87109m-1.2578-5.8711l.9375-.78906m10.49608.66016l4.8047 5.1289m-4.10548-4.38281l.39844-1.16016m11.51953 4.63282l6.19922-3.3086m-5.29687 2.82813l-1.01563-.6836m14.49219-3.35156l4.07422 5.72656m-4.07422-5.72656l1.09765-2.19531m10.875 6.01953l6.75782-1.92578m-6.75782 1.92578l-1.70312-1.76562m16.16797 3.51562l4.46094-5.42578m-4.46094 5.42578l-2.40625-.48437m3.05469-.3047l-1.20313-.24218m14.67969 1.53125l2.83984-6.42578m-2.83984 6.42578l-2.44531.17969m2.85937-1.11328l-1.22266.08984m15.56641 1.14453l-.04297-7.02734m.03516 6.0039l-1.07813.58204m13.66016.36718l1.4336-6.8789m-1.4336 6.8789l-2.35547.6875"/><g clip-path="url(#W)"><path fill="none" stroke="#000" stroke-linecap="round" stroke-linejoin="round" stroke-miterlimit="10" stroke-width=".5" d="M147.48047 413.26172l-6.96094.98437"/></g><path fill="none" stroke="#000" stroke-linecap="round" stroke-linejoin="round" stroke-miterlimit="10" stroke-width=".5" d="M147.48047 413.26172l1.4414 1.98437m11.875-1.96093l-6.96484.9375m6.96484-.9375l1.4297 1.99218m11.8828-2.0078l-6.96093.96483m6.96094-.96484l1.4375 1.98828m11.90625-1.71093l-7.01563.41406m7.01563-.41406l1.27734 2.09765m11.89062-2.91797l-6.72265 2.05469m5.7461-1.75781l.86718.8711m13.51562.5039l-6.90625-1.28906m5.90235 1.10156l.36719 1.16797m11.52734 1.73437l-2.05469-6.71875m1.75781 5.74219l-.86718.86719m12.84375.21093l1.21484-6.92187m-1.21484 6.92187l-2.33203.75782m19.23046-2.34766l-5.94922-3.74219m5.08204 3.19531l-.08985 1.22657m14.71875-1.76172l-6.84375-1.58203m5.84766 1.35156l.32031 1.1875m13.9375-.7539l-6.73828-1.98438m5.75781 1.69531l.2461 1.20313m14.14843-1.34375l-6.9375-1.12891m6.9375 1.1289l.78907 2.32423m10.51172-6.08594l-2.90625 6.39844m2.48046-5.46875l1.22657-.07813m13.42187 4.94922l-4.72265-5.20313m12.34765 3.72657l6.65625-2.25m-5.6875 1.92187l-.89062-.83984m15.46093-3.29297l2.21094 6.67187m-1.89062-5.69922l.84765-.89062m11.73828.08203l3.02735 6.34375m-2.58594-5.42187l.73047-.98438m12.5-.08203l2.3125 6.63281m-1.97656-5.66797l.83593-.90234m10.11329 1.77734l6.375 2.95313m-6.375-2.95313l-.13672-2.44922m14.65625 1.02344l3.96484 5.80078m-3.96484-5.80078l1.13672-2.17187m12.65234 1.89843l3.01562 6.34766m-3.01562-6.34766l1.46484-1.96875m-1.02343 2.89454l.73046-.98438m11.86329.21094l3.57812 6.04687m-3.57812-6.04687l1.27734-2.09375m13 8.53125l1.65234-6.82813m-1.65234 6.82813l-2.3789.60937m2.61718-1.60156l-2.375.60938m19.19531-1.07422l-5.83593-3.91407m4.98828 3.34375l-.125 1.22266m9.8203.54297l3.09767-6.30469m-2.64454 5.38672l-1.22656.03906"/><g clip-path="url(#X)"><path fill="none" stroke="#000" stroke-linecap="round" stroke-linejoin="round" stroke-miterlimit="10" stroke-width=".5" d="M147.27344 399.16406l-6.54688 2.54688"/></g><path fill="none" stroke="#000" stroke-linecap="round" stroke-linejoin="round" stroke-miterlimit="10" stroke-width=".5" d="M147.27344 399.16406l1.85937 1.60156m11.65235-.8828l-6.94141 1.10937m6.9414-1.10938l1.48048 1.95703m11.76171-2.30468l-6.79297 1.80468m6.79297-1.80468l1.66797 1.80078m11.30078-2.64063l-6.10156 3.48438m5.21484-2.97656l1.03516.65625m13.6289.48437l-7.02343.1914m17.84766-.09765l-.01953-.19922-.0586-.1914-.09375-.17579-.46094-.3789-.1914-.05469-.19922-.02344-.19922.02344-.1914.05469-.45704.3789-.09765.17579-.0547.1914-.01952.19922.01953.19922.05469.1914.09765.1797.45703.375.19141.05859.19922.01953.19922-.01953.1914-.0586.46094-.375.09375-.17969.0586-.1914.01953-.19922m10.97656 3.25781l2.63281-6.51562m-2.25 5.5664l-1.22266.12891m15.13672 1.0625l.66797-6.9961m-.66797 6.9961l-2.26562.9375m17.14844-1.14844l-2.46875-6.57812m2.10937 5.6211l-.8086.92187m14.50391.02734l-2.51172-6.5625m2.14844 5.60938l-.80469.92578M280.6172 401l-6.9336-1.125m5.92578.96094l.39454 1.16015m11.5078 1.79688l-2.09374-6.70703m2.09375 6.70703l-1.72266 1.7461m15.59766-8.22657l-3.21094 6.25m2.74219-5.33984l1.22656-.01954m7.91016.47657l6.08203 3.51953m7.2539.03515l6.03907-3.59375m-5.16016 3.07032l-1.04687-.63281m13.8789-2.97657l5.25 4.67188m-4.48437-3.99219l.28906-1.1914m11.51563 1.84765l6.73828 2m-5.75782-1.70703l-.24218-1.20313m12.5039 1.20704l6.88282 1.40625m-5.88282-1.19922l-.34765-1.1797m16.3203-1.83202l-.42968 7.01562m.42969-7.01562l2.23047-1.01563m9.55469 1.26563l2.6289 6.51953m-2.6289-6.51953l1.58203-1.8789m-1.19922 2.82812l.78906-.94141m10.57422 1.2461l5.76953 4.01171m-5.76953-4.01172l.28906-2.4375m.55078 3.01954l.14453-1.21875m12.14454.92968l6.13671 3.42578m-6.13671-3.42578l.05078-2.45312m.84375 2.94922l.02343-1.22657m16.52344 5.79297l-2.11328-6.70312m2.11328 6.70312l-1.72265 1.75m1.41406-2.72265l-1.71875 1.74609m17.26562-2.26563l-5.96093-3.71875m5.96093 3.71875l-.16797 2.44922m13.91797-3.47656l-6.82812-1.66406m6.82812 1.66406l.60547 2.3789"/><g clip-path="url(#Y)"><path fill="none" stroke="#000" stroke-linecap="round" stroke-linejoin="round" stroke-miterlimit="10" stroke-width=".5" d="M147.16406 385.59375l-6.32812 3.0586"/></g><path fill="none" stroke="#000" stroke-linecap="round" stroke-linejoin="round" stroke-miterlimit="10" stroke-width=".5" d="M147.16406 385.59375l1.98047 1.44922m11.6836.10937l-7.02735-.05859m7.02734.0586l1.13672 2.17577m-2.16015-2.18359l.57031 1.08594m13.1875-3.04688l-5.86328 3.87891m5.86328-3.8789l2.15234 1.17187m8.6172-2.72266l-.77345 6.98438m.66016-5.96875l1.14063-.45313m8.42187 2.42578l6.95703 1.00391m-5.94531-.85938l-.41406-1.15234m13.1328 3.22656l6.12892-3.43359m-5.23829 2.9336l-1.03125-.66407m20.03125-.41797l-7.02343-.26953m7.02343.26953l1.06641 2.20703m12.25-2.36328l-7.02734.04688m7.02734-.04688l1.16797 2.15625m12.14453-1.98437l-7.01953-.30078m7.01953.30078l1.0586 2.21484m12.21484-2.92969l-6.9375 1.12891m6.9375-1.1289l1.48437 1.95312m-2.4961-1.78906l.7422.97656m13.55859-1.26953l-6.88672 1.38672m6.88672-1.38672l1.5586 1.89453m11.72265-.34375l-6.8164-1.71485m6.8164 1.71485l.58594 2.38281m12.48828-4.75781l-6.33594 3.03906m6.33594-3.03906l1.97656 1.45312m11.39453-1.33203l-6.44922 2.79297m6.44922-2.79297l1.91797 1.53125m9.3789-3.4336l-2.41015 6.60157m2.41016-6.60156l2.42969-.33985m12.5703 1.64063l-5.78124 3.9961m5.78125-3.9961l2.17969 1.125m-3.02344-.54297l1.08984.5625m13.6211.15235l-6.88672 1.40234m6.88671-1.40235l1.5625 1.89063m-2.5664-1.6875l.78125.94531m12.71875-2.78125l-5.25 4.66797m5.25-4.66797l2.30078.85156m-3.0625-.17187l2.30078.85156m10.85547-2.26953l-3.41016 6.14453m3.41016-6.14453l2.45313.04297m-2.94922.85156l2.45312.04297m11.49219-.85937l-3.67578 5.98828m3.67578-5.98828l2.44922.15234M398.28906 385l2.44922.15234m11.9336-.625l-4.73829 5.19141m4.73829-5.1914l2.375.61327m-3.06641.14454l2.3789.60937m-3.0664.14453l1.1875.30469m13.1836-2.07422l-4.09766 5.70703m3.5039-4.875l1.21485.16406m12.6914 4.71485l-4.08984-5.71485m4.08984 5.71485l-1.08984 2.19922m.4961-3.03125l-1.09376 2.19922m15.875-2.26954l-5.83594-3.91015m5.83594 3.91015l-.2461 2.44141m13.8125-2.8789l-6.33983-3.03516m6.33984 3.03515l.10547 2.44922m-1.02735-2.89062l.05079 1.22656"/><g clip-path="url(#Z)"><path fill="none" stroke="#000" stroke-linecap="round" stroke-linejoin="round" stroke-miterlimit="10" stroke-width=".5" d="M147.26563 372.50781l-6.53125 2.60156"/></g><path fill="none" stroke="#000" stroke-linecap="round" stroke-linejoin="round" stroke-miterlimit="10" stroke-width=".5" d="M147.26563 372.50781l1.87109 1.58594m-2.82422-1.20703l.9375.79297m13.42578-.90235l-6.71875 2.0625m6.71875-2.0625l1.73438 1.73438m10.18359-3.61719l-3.92969 5.82422m3.35938-4.97656l1.21875.1289m12.45312-1.10937l-3.5 6.09375m3.5-6.09375l2.45313.08203m-2.96094.80469l1.22656.03906m13.1289-.55078l-4.5664 5.33984m4.5664-5.33984l2.39454.53515m12.14453 2.3711l-7.01172-.46875m7.01172.46875l1.0039 2.23828m-2.02343-2.3086l1.0039 2.23829m13.33594-2.29297l-7.02343-.21875m7.02343.21875l1.08594 2.19922m11.91016-3.77735l-6.38672 2.9375m6.38672-2.9375l1.94922 1.48829m-2.87891-1.0625l.97656.74609m13.58985.23437l-7.02735.125m7.02735-.125l1.1875 2.14454m-2.21094-2.12891l1.1914 2.14844m13.125-1.72657l-6.98437-.75m6.98438.75l.91406 2.27735m-1.92969-2.38672l.45703 1.13672m13.51953-2.98438l-6.27734 3.16406m6.27734-3.16406l2.0039 1.41797m-2.91796-.95703l1.0039.70703m13.57423 0l-6.97657.82813m6.97657-.82813l1.39843 2.01563m-2.41015-1.89454l1.39843 2.01563m12.48047-3.48438l-6.07812 3.52344m6.07812-3.52344l2.08203 1.29688m-2.96484-.78516l1.03906.64844m12.69532-1.78906l-5.15235 4.77734m5.15235-4.77734l2.3164.8086m-3.0664-.11329l1.16015.40235m12.45703-1.50391l-4.2539 5.59375m4.2539-5.59375l2.42188.39453m-3.04297.41797l2.42187.39453m12.75782.60156l-6.7422 1.97266m6.7422-1.97266l1.71484 1.75781m11.54688-1.92187l-6.63672 2.30469m6.63672-2.30469l1.80078 1.66797m-2.76563-1.33203l1.79688 1.66797m12.16797-2.67188l-6.00782 3.64063m6.00782-3.64063l2.10937 1.2539m-2.98437-.72656l2.10937 1.25782m11.47656-2.53125l-4.80078 5.13281m4.80078-5.13281l2.3711.64062m-3.06641.10547l2.36719.64063m11.44531-1.5586l-4.40234 5.47656m4.40234-5.47656l2.41016.45703m-3.05078.33985l2.41015.45703m12.29688-.41797l-5.90625 3.80469m5.90625-3.80469l2.14453 1.19531m-3.0039-.64062l2.14452 1.19531m-3.0039-.64453l1.0703.60156m14.47267-.41797l-6.92188 1.22266m6.92188-1.22266l1.5078 1.9336m-2.51562-1.75391l1.51172 1.9336m-2.51953-1.75782l.75781.96875m14.6211-.84375l-7.01953.26563m7.01953-.26563l1.23437 2.1211m-2.2539-2.08204l1.23046 2.1211m13.10547-1.96875l-7.02343-.11719m7.02343.11719l1.11719 2.1836m-2.13672-2.19923l.5586 1.08985m12.6875 1.41015l-4.84766-5.08594m4.84766 5.08594l-.77344 2.32813"/><g clip-path="url(#aa)"><path fill="none" stroke="#000" stroke-linecap="round" stroke-linejoin="round" stroke-miterlimit="10" stroke-width=".5" d="M147.14063 358.91406l-6.28125 3.15625"/></g><path fill="none" stroke="#000" stroke-linecap="round" stroke-linejoin="round" stroke-miterlimit="10" stroke-width=".5" d="M147.14063 358.91406l2 1.41797m-2.91407-.95703l1 .70703m12.42188-2.21484l-4.66406 5.2539m4.66406-5.2539l2.38281.57422m-3.0625.1875l1.1914.28906m13.78126.39844l-6.6211 2.35546m6.6211-2.35546l1.8125 1.65234m-2.77735-1.3125l1.8125 1.65625m11.49219-3.4414l-4.67188 5.24609m4.67188-5.2461l2.38672.58204m-3.0664.17968l1.1914.29297m12.90234-.96484l-4.86719 5.0664m4.8672-5.0664l2.35937.66797m-3.07031.0664l2.36328.67188m12.22265-.71094l-5.99219 3.67188m5.9922-3.67188l2.11327 1.2461m-2.98437-.71094l2.11328 1.24609m12.08203-1.76172l-6.01172 3.63672m6.01172-3.63672l2.10938 1.2539m-2.98047-.72656l2.10547 1.25782m12.3125-1.33985l-6.46875 2.7461m6.46875-2.7461l1.90625 1.54297m10.98047-2.28125l-5.6172 4.21875m5.6172-4.21875l2.22265 1.03906m-3.03906-.42578l2.22266 1.04297m12.49609-.44922l-6.78906 1.8086m6.78906-1.8086l1.67187 1.79688m-2.66015-1.53516l1.67187 1.79688m12.6914-1.78906l-6.91015 1.26953m6.91016-1.26954l1.52344 1.92188m-2.52735-1.73828l1.52344 1.92187m12.60156-2.78125l-6.51953 2.6172m6.51953-2.6172l1.875 1.58204m-2.82422-1.19922l.9375.78906m12.58594-2.3125l-5.03906 4.89844m5.03906-4.89844l2.33594.75m-3.07031-.03516l1.16796.375m12.44141-1.47265l-4.16016 5.66406m4.16016-5.66406l2.42578.35546m-3.03125.46875l1.21485.17579m13.23437-.51954l-5.21875 4.70704m5.21875-4.70704l2.3086.83594m-3.06641-.15234l2.30469.83984m-3.06641-.15625l1.15625.42188m14.42969-.46094l-6.71875 2.05078m6.71875-2.05078l1.73437 1.73438m11.70703-1.15625l-6.97265.89062m6.97265-.89063l1.41797 2.00391m-2.4336-1.875l.71095 1.0039m13.4453-1.86327l-6.62109 2.35546m6.6211-2.35546l1.8086 1.65625m-2.77345-1.3125l1.8125 1.65234M371.73828 360l.90625.82813m13.8125-2.47657l-5.57031 4.28125m5.57031-4.28125l2.23438 1.01563m-3.04688-.39063l2.23438 1.01563m-3.04297-.39453l1.11718.5078m13.04297-2.49608l-4.01953 5.76562m4.01953-5.76563l2.4375.29688m-3.02343.54297l2.4375.29687m11.75-.91406l-4.59375 5.32031m4.59375-5.3203l2.39062.54296m-3.0586.23047l2.39063.54687m12.42578-.2578l-6.2578 3.19921m6.2578-3.19922l2.01172 1.40235m-2.92187-.9375l2.01172 1.40234m12.30859-1.66016l-6.44922 2.78516m6.44922-2.78516l1.91797 1.53125m-2.85547-1.125l1.91797 1.53125m12.46094-1.60547l-6.69922 2.1211m6.69922-2.1211l1.75 1.71875m-2.72657-1.41015l1.75391 1.71875m12.69922-1.02344l-7.02735.11328"/><g clip-path="url(#ab)"><path fill="none" stroke="#000" stroke-linecap="round" stroke-linejoin="round" stroke-miterlimit="10" stroke-width=".5" d="M467.07422 360.4375l1.1875 2.14844"/></g><path fill="none" stroke="#000" stroke-linecap="round" stroke-linejoin="round" stroke-miterlimit="10" stroke-width=".5" d="M466.05078 360.45313l1.1875 2.14843"/><g clip-path="url(#ac)"><path fill="none" stroke="#000" stroke-linecap="round" stroke-linejoin="round" stroke-miterlimit="10" stroke-width=".5" d="M147.20703 345.74219l-6.41406 2.8711"/></g><path fill="none" stroke="#000" stroke-linecap="round" stroke-linejoin="round" stroke-miterlimit="10" stroke-width=".5" d="M147.20703 345.74219l1.9375 1.5039m-2.8711-1.08593l.96876.7539m12.8125-1.9375l-5.47656 4.40235m5.47656-4.40235l2.2539.96875m-3.05078-.32812l2.2539.96875m12.08985-1.28125l-5.94531 3.7461m5.94531-3.7461l2.1289 1.21875m-2.99218-.67188l2.1289 1.21875m11.69141-2.23828l-5.22656 4.6914m5.22656-4.6914l2.3047.84375m-3.0625-.16015l1.15233.42187m10.71485-2.25l-.8164 6.98047m.8164-6.98047l2.28516-.89063m-2.40235 1.90625l1.14063-.4453m12.98437-.41798l-2.19922 6.67579m2.19922-6.67579l2.41797-.41406m12.47656 1.48047l-5.35937 4.54688m5.35937-4.54688l2.27735.90625m11.47265-.26172l-6.22656 3.2539m6.22656-3.2539l2.02344 1.38672m10.35547-2.51563l-4.35547 5.51172m4.35547-5.51171l2.41406.4375m12.05469 1.20312l-6.66406 2.23047m6.66406-2.23047l1.78125 1.6875m-2.75-1.36328l1.77734 1.6875m12.60156-1.66797l-6.85546 1.54297m6.85546-1.54297l1.59766 1.86328m-2.59375-1.63672l1.59766 1.85938m12.52734-2.67188l-6.48047 2.71875m6.48047-2.71875l1.89844 1.55078m-2.84375-1.15625l.95312.77735m12.58203-2.26563l-5.03125 4.90625m5.03125-4.90625l2.33594.7461m-3.07031-.03516l1.17187.375m11.71875-1.875l-2.71484 6.48047m2.71484-6.48047l2.44141-.22656m11.74219.7461l-4.44922 5.4414m4.44922-5.4414l2.40625.48046m-3.05469.3125l1.20313.24219m13.8203.4375l-6.5703 2.4961m6.5703-2.4961l1.84376 1.61719m11.6836-.0586l-6.9961-.6211m6.9961.6211l.95702 2.25781m-1.97265-2.34765l.47656 1.1289m13.86328-1.16406l-7.01562-.3711m7.01562.3711l1.03906 2.22656m-2.05859-2.28125l.51953 1.11329m13.5039-2.70704l-6.39062 2.92579m6.39063-2.92579l1.94922 1.48829m-2.87891-1.0625l1.94922 1.48828M400 345.37109l-6.02734 3.61329M400 345.37108l2.10156 1.26563m-2.98047-.74219l2.10547 1.26563m-2.98047-.73829l1.05078.63282m13.34766-2.4961l-4.6875 5.23829m4.6875-5.23829l2.38281.58594m-3.0664.17578l2.38281.58594m11.67969-1.28516l-4.8164 5.11329m4.8164-5.11329l2.36718.64454m-3.0664.09765l2.36719.64844m-3.06641.09765l1.1836.32422m13.80859-1.51953l-5.375 4.52735m5.375-4.52735l2.27734.91406m-3.0586-.2539l2.27735.91406m12.33203-.76172l-6.39844 2.90235m6.39844-2.90235l1.94531 1.4961m-2.875-1.07422l1.94532 1.4961m12.36718-1.75782l-6.53515 2.58203"/><g clip-path="url(#ad)"><path fill="none" stroke="#000" stroke-linecap="round" stroke-linejoin="round" stroke-miterlimit="10" stroke-width=".5" d="M466.82813 345.88672l1.86718 1.59375"/></g><path fill="none" stroke="#000" stroke-linecap="round" stroke-linejoin="round" stroke-miterlimit="10" stroke-width=".5" d="M465.8789 346.26563l1.8672 1.58984"/><g clip-path="url(#ae)"><path fill="none" stroke="#000" stroke-linecap="round" stroke-linejoin="round" stroke-miterlimit="10" stroke-width=".5" d="M147.42188 333.07031l-6.84375 1.58594"/></g><path fill="none" stroke="#000" stroke-linecap="round" stroke-linejoin="round" stroke-miterlimit="10" stroke-width=".5" d="M147.42188 333.07031l1.61328 1.85156m-2.60938-1.62109l.80469.92578m12.97656-2.35937l-5.78516 3.98828m5.78516-3.98828L162.38672 333m-3.01953-.55078l2.17578 1.1289m11.22266-2.5078l-4.26954 5.58202m4.26953-5.58203l2.41797.40235m-3.03906.41015l1.21094.20313m12.25781-1.3164l-3.33594 6.1875m3.33594-6.1875l2.45313.01562m-2.9375.88671l1.22656.00391m13.90234.35547l-5.9961 3.66406m5.9961-3.66406l2.11328 1.2461m10.73047-1.85548l-5.05078 4.88282m5.05078-4.88281l2.33203.7539m9.80078-1.5586l-2.6875 6.4922m2.29688-5.54688l1.21875-.1211m14.51953 1.44532l-6.7539 1.95312m5.76953-1.66796l.85547.8789m13.28125 1.23047l-6.4297-2.83594m6.4297 2.83594l.17968 2.44531m13.39453-4.39844l-6.9453 1.07032m6.9453-1.07031l1.46875 1.96484m11.76953-2.32422l-6.79296 1.78906m6.79297-1.78906l1.66796 1.80469m-2.65625-1.54297l.83203.89844m13.35547-1.52735l-6.55859 2.51953m6.5586-2.51953l1.85156 1.60938m11.6875-.60938l-7.00782.52344m7.00782-.52344l1.30859 2.07422m11.39844-3.80078l-5.79297 3.97656m5.79297-3.97656l2.17578 1.13281m-3.01953-.55469l1.08984.56641m12.70313-1.59375l-5.0586 4.875m5.0586-4.875l2.33203.75781m-3.07031-.05078l1.16796.38281m13.60938.02735l-6.51172 2.64062m6.51172-2.64062l1.88281 1.57422m-2.82812-1.1914l1.8828 1.57812m12.56642.05468l-6.88672-1.39062m6.88671 1.39062l.69922 2.35157m-1.69921-2.5547l.34765 1.17579m13.70313-.16797l-6.35547-3m6.35547 3l.11718 2.44922m12.42579-6.51172l-4.8125 5.1211m4.8125-5.1211l2.36718.64453m-3.0664.10156l1.18359.32422M399 330.98438l-4.02734 5.7578M399 330.98439l2.4375.29687m-3.02344.53906l1.21875.14844m12.98828-.7461L407.98047 336.5m4.64062-5.27734l2.38672.5664m-3.0625.20313l2.38672.5664m10.7539-1.88671l-2.9375 6.3828m2.9375-6.3828l2.44923-.14063m-2.875 1.07031l1.22265-.07031m13.76172.10156l-5.42578 4.46094m5.42578-4.46094l2.26563.9414m-3.0547-.29296l1.13282.47266m13.65625.21484l-6.79687 1.78906m6.79687-1.78906l1.66406 1.80078m-2.65234-1.53906l1.66406 1.80078m12.42969-2.64453l-6.375 2.95312"/><g clip-path="url(#af)"><path fill="none" stroke="#000" stroke-linecap="round" stroke-linejoin="round" stroke-miterlimit="10" stroke-width=".5" d="M466.75 332.38672l1.95703 1.48047"/></g><g clip-path="url(#ag)"><path fill="none" stroke="#000" stroke-linecap="round" stroke-linejoin="round" stroke-miterlimit="10" stroke-width=".5" d="M465.82031 332.8164l1.95703 1.48048"/></g><path fill="none" stroke="#000" stroke-linecap="round" stroke-linejoin="round" stroke-miterlimit="10" stroke-width=".5" d="M464.89453 333.2461l.97656.74218"/><g clip-path="url(#ah)"><path fill="none" stroke="#000" stroke-linecap="round" stroke-linejoin="round" stroke-miterlimit="10" stroke-width=".5" d="M147.46875 319.97656l-6.9375 1.14063"/></g><path fill="none" stroke="#000" stroke-linecap="round" stroke-linejoin="round" stroke-miterlimit="10" stroke-width=".5" d="M147.46875 319.97656l1.48828 1.94922m-2.5-1.78125l1.48828 1.94922m-2.4961-1.78516l.7461.97657m14.45313-1.85157l-6.66406 2.22657m6.66406-2.22657l1.77734 1.69141m-2.7461-1.36719l1.77735 1.6914m-2.75-1.36718l1.78125 1.6914m13.34766-2.66015l-6.41406 2.8711m6.41406-2.8711l1.9375 1.50781m-2.8711-1.08984l1.9375 1.50781m-2.86718-1.08984l.96484.7539m14.3086-1.36328l-6.60157 2.41407m6.60156-2.41407l1.82422 1.64063m-2.78515-1.28906l1.82422 1.64062m-2.78516-1.28906l.91406.82031m14.44922-1.08203l-6.85547 1.53516m6.85547-1.53516l1.59766 1.85938m-2.59375-1.63672l1.59765 1.86328m-2.59375-1.64063l.79688.92969m14.35156-1.90234l-6.53516 2.58593m6.53516-2.58593l1.86719 1.59375m-2.82031-1.21485l1.87109 1.58985m-2.82031-1.21485l.93359.79688m14.32031-1.45313l-6.60937 2.39453m6.60937-2.39453l1.82031 1.64453m-2.78125-1.29687l.91016.82031m13.53906-.46484l-6.95703.98828m6.95703-.98828l1.44532 1.98047m-2.45703-1.83985l.72265.99219m13.57422.03125l-6.89844-1.34375m6.89844 1.34375l.71875 2.34766m-1.72266-2.54297l.35938 1.17578m13.98437-1.13281l-6.94922-1.03907m6.94922 1.03907l.82032 2.3164m-1.82813-2.46484l.8164 2.3125m13.54298-2.8125l-7.01954.26172m7.01954-.26172l1.23437 2.1211m-2.2539-2.08204l1.23046 2.1211M293.98047 320.5l-7.02735.09375m7.02735-.09375l1.17969 2.15234m-2.20313-2.13671l.58984 1.07421m13.7461-1.04296h-7.02735m7.02735 0l1.15234 2.16796m-2.17187-2.16796l1.15234 2.16796m12.66406-4.0078l-5.98828 3.67968m5.98828-3.67969l2.1172 1.2461m-2.98829-.71094l2.11719 1.2461m11.88672-2.04688l-5.6211 4.21484m5.6211-4.21484l2.21875 1.03906m-3.03907-.42578l1.11328.51953m13.41016-.47656L340.52734 322m6.39844-2.90234l1.94531 1.49609m-2.875-1.07422l1.94141 1.4961m12.5039-1.34766l-6.80078 1.75781m6.80079-1.75781l1.66015 1.8125m-2.64844-1.55469l.82813.90235m13.41016-1.38672l-6.67188 2.21093m6.67188-2.21093l1.77343 1.6953m10.76172-3l-5.10937 4.82032m5.10937-4.82031l2.32422.78515m-3.0664-.08203l1.16015.39063m12.16797-1.6836l-3.65234 6m3.65234-6l2.44922.14454m9.27344-.64844l-.46875 7.01172m.40234-5.99219l1.11719-.5039m12.82031-.4336l-1.57813 6.84766m1.57813-6.84766l2.3711-.63672m12.25 6.88281l-4.19141-5.64453m18.41797 1.00781l-6.01563 3.62891m6.01563-3.6289l2.10546 1.2578m-2.98046-.73046l1.05468.6289m12.92188-1.47656l-5.58594 4.26563"/><g clip-path="url(#ai)"><path fill="none" stroke="#000" stroke-linecap="round" stroke-linejoin="round" stroke-miterlimit="10" stroke-width=".5" d="M466.35547 318.41406l2.23047 1.02344"/></g><g clip-path="url(#aj)"><path fill="none" stroke="#000" stroke-linecap="round" stroke-linejoin="round" stroke-miterlimit="10" stroke-width=".5" d="M465.54297 319.03516l2.23047 1.02343"/></g><path fill="#00f" fill-rule="evenodd" d="M392.67578 472.08594h8.6211V461.9414h-8.6211v10.14453"/><path fill="azure" fill-rule="evenodd" d="M394.51172 463.77344h.83203v2.82422h3.28516v-2.82422h.83203v6.48047h-.83203v-2.91797h-3.28516v2.91797h-.83203v-6.48047"/><path fill="#00f" fill-rule="evenodd" d="M224.01953 418.82813h8.61719v-10.14844h-8.61719v10.14844"/><path fill="azure" fill-rule="evenodd" d="M225.85156 410.51172h.83594v2.82422h3.28516v-2.82422h.83203v6.48047h-.83203v-2.91406h-3.28516v2.91406h-.83594v-6.48047"/><path fill="#00f" fill-rule="evenodd" d="M370.48438 401.07422h8.62109v-10.14844h-8.6211v10.14844"/><path fill="azure" fill-rule="evenodd" d="M372.3164 392.76172h.83594v2.82031h3.28516v-2.82031h.83203v6.47656h-.83203v-2.91406h-3.28516v2.91406h-.83593v-6.47656"/><path fill="#ff3030" fill-rule="evenodd" d="M424.4414 401.07422h7.69141v-10.14844h-7.6914v10.14844"/><path fill="azure" fill-rule="evenodd" d="M426.27344 392.76172h.83203V398.5h3.19531v.73828h-4.02734v-6.47656"/><path fill="#ff3030" fill-rule="evenodd" d="M277.97266 392.19531h7.6953v-10.14453h-7.6953v10.14453"/><path fill="azure" fill-rule="evenodd" d="M279.8086 383.88281h.83202v5.73828h3.19141v.7422h-4.02344v-6.48048"/><path fill="#ff3030" fill-rule="evenodd" d="M202.52344 370.0039h7.6914v-10.14452h-7.6914v10.14453"/><path fill="azure" fill-rule="evenodd" d="M204.35547 361.6914h.83203v5.73829h3.19531v.74219h-4.02734v-6.48047"/><path fill="#ffffe0" fill-rule="evenodd" d="M410.01172 445.6875h22.17969v-10.1914h-22.1797v10.1914"/><path fill-rule="evenodd" d="M413.51172 437.32813h.50781v6.29687h-.78515v-4.49219h-1.39063v-.55469l.5625-.0664.25-.05078.23047-.08985.20312-.14062.17579-.21094.14062-.29687.10547-.39454m4.8125 0l.23047.01954.21875.05468.20703.08985.19922.1211.1836.14843.17187.17578.30078.42188.24219.49218.17968.54688.11328.57812.03907.59375-.03907.58985-.11328.58593-.17969.5547-.24218.5-.30078.42968-.17188.17969-.1836.15234-.19921.125-.20703.08984-.21875.0586-.23047.01953-.22656-.01953-.21875-.0586-.21094-.08984-.19531-.125-.1836-.15234-.17187-.1797-.30078-.42968-.2461-.5-.17969-.55469-.10937-.58593-.03906-.58985h.83203l.03125.5625.08203.5039.125.44532.16406.3711.1875.30078.21094.22265.22266.13672.22656.04688.22656-.04688.22266-.13672.21094-.22265.1914-.30079.16406-.37109.125-.44531.08204-.5039.02734-.5625-.02735-.5625-.08203-.5-.125-.4375-.16406-.36329-.1914-.29297-.21094-.21484-.22266-.13281-.22656-.04297-.22656.04297-.22266.1328-.21094.21485-.1875.29297-.16406.36328-.125.4375-.08203.5-.03125.5625h-.83203l.03906-.59375.10938-.57812.17968-.54688.2461-.49219.30078-.42187.17187-.17578.1836-.14844.1953-.1211.21095-.08984.21875-.05468.22656-.01954m5.09375 0h.50781v6.29688h-.78515v-4.49219H421.75v-.55469l.5586-.0664.2539-.05078.23047-.08985.20312-.14062.17188-.21094.14453-.29687.10547-.39454m2.82422 2.17579h.78515l.01954-.31641.05859-.28516.10156-.2539.13672-.21485.1836-.17578.22265-.1289.26563-.07813.30859-.02734.23828.01953.22266.0625.20312.10156.17969.14063.14844.17187.11328.20703.07031.23438.02734.26562-.02343.26953-.06641.22266-.10938.1914-.15625.17188-.19921.16406-.2461.16407-.63672.39062-.53515.3125-.4375.3164-.34766.32423-.26172.33593-.1914.35157-.125.37109-.07032.39063-.01953.42187h4.21094v-.74219h-3.33203l.08203-.28515.11328-.23438.14844-.20312.1875-.1797.23047-.17187.28125-.17578.71484-.41797.41797-.20312.34375-.23047.28125-.2539.21875-.26563.16406-.27735.11328-.28515.0625-.28516.01954-.28125-.04297-.38281-.1172-.34766-.1914-.30859-.25-.26172-.30078-.21094-.34765-.16015-.37891-.09766-.40625-.03515-.4375.03515-.39844.09766-.35156.16406-.30469.23438-.25.30468-.1836.375-.11718.44531-.03906.51954"/><path fill="#ffffe0" fill-rule="evenodd" d="M323.99219 355.58984h22.17969v-10.1914h-22.1797v10.1914"/><path fill-rule="evenodd" d="M327.48828 347.23047H328v6.29687h-.78906v-4.49218h-1.38672v-.5547l.5586-.0625.2539-.05468.22656-.08984.20703-.14063.17188-.21094.14062-.29296.10547-.39844m4.8164 0l.22657.01953.21875.05469.21094.08984.19531.1211.1836.15234.17187.17578.30078.41797.2461.49219.17968.54687.10938.57813.03906.59375-.03906.59375-.10938.58203-.17969.55469-.24609.5-.30078.42968-.17188.17969-.18359.15234-.19531.125-.21094.08985-.21875.0586-.22656.01952-.23047-.01953-.21875-.0586-.20703-.08984-.19922-.125-.1836-.15234-.17187-.17969-.30078-.42969-.24219-.5-.17969-.55468-.11328-.58203-.03515-.59375h.83203l.02734.5625.08203.5039.125.44531.16406.375.19141.30079.21094.21875.22265.13671.22657.04688.22656-.04688.22266-.13671.21093-.21875.1875-.30079.16407-.375.125-.4453.08203-.50391.03125-.5625-.03125-.5625-.08203-.5-.125-.4336-.16407-.36719-.1875-.29296-.21093-.21485-.22266-.1289-.22656-.04688-.22656.04688-.22266.1289-.21094.21485-.1914.29296-.16407.3672-.125.43359-.08203.5-.02734.5625h-.83203l.03515-.59375.11328-.57813.1797-.54687.24218-.4922.30078-.41796.17188-.17578.18359-.15235.19922-.12109.20703-.08984.21875-.05469.23047-.01953m5.08984 0h.50781v6.29687h-.78515v-4.49218h-1.38672v-.5547l.5586-.0625.25-.05468.23046-.08984.20313-.14063.17578-.21094.14062-.29296.10547-.39844m2.82422 2.17578h.78516l.01953-.3164.0625-.28516.09765-.2539.14063-.21485.17969-.17188.22265-.1289.26563-.08204.3086-.02734.23827.02344.22266.0625.20703.10156.17578.13672.14844.17188.11328.20703.07422.23437.02344.26563-.01954.26953-.0664.22265-.10938.19141-.15625.17188-.20312.16406-.2461.16406-.6328.39063-.53907.3125-.4375.3164-.34375.32422-.26563.33594-.1914.35156-.125.3711-.0664.39062-.02344.42187h4.21484v-.74218h-3.33203l.08203-.28516.11328-.23438.14844-.20312.1875-.17969.23047-.17187.27734-.17578.71875-.41407.41406-.20703.34766-.23047.27734-.25.22266-.26953.16406-.27734.10938-.28516.0625-.28515.02343-.28125-.04296-.38282-.1211-.34765-.1875-.3086-.2539-.26171-.30079-.21094-.34375-.16016-.3828-.09765-.40626-.03516-.4336.03515-.39843.09766-.35547.16797-.30469.23438-.25.30078-.18359.375-.11719.4453-.03906.51954"/><path fill="#ffffe0" fill-rule="evenodd" d="M168.64844 334.53125h22.17969v-10.1914h-22.1797v10.1914"/><path fill-rule="evenodd" d="M172.14844 326.17188h.50781v6.29687h-.78516v-4.48828h-1.39062v-.5586l.5586-.0625.2539-.05468.23047-.08985.20312-.14062.17188-.21094.14453-.29297.10547-.39844m4.8125 0l.23047.01954.21875.05859.20703.08594.19531.1211.1836.15233.17187.17579.30469.41796.24218.4922.1797.54687.10937.58203.03906.58984-.03906.59375-.10938.58203-.17969.5547-.24218.5039-.3047.42578-.17187.17969-.18359.15234-.19531.125-.20703.09375-.21875.05469-.23047.01953-.23047-.01953-.21875-.05469-.20703-.09375-.19531-.125-.1836-.15234-.17187-.1797-.3047-.42577-.24218-.5039-.17969-.5547-.10937-.58203-.03906-.59375h.83203l.03125.5625.07812.50781.1289.44141.16017.375.1914.30078.21094.21875.22266.13672.22656.04688.22656-.04688.22266-.13672.21093-.21875.19141-.30078.16016-.375.1289-.4414.08203-.50782.02735-.5625-.02735-.5625-.08203-.5-.1289-.4336-.16016-.36718-.1914-.29297-.21094-.21484-.22266-.1289-.22656-.04688-.22656.04687-.22266.1289-.21094.21485-.1914.29297-.16016.36719-.1289.4336-.07813.5-.03125.5625h-.83203l.03906-.58985.10937-.58203.1797-.54688.24218-.49219.30469-.41796.17187-.17579.1836-.15234.1953-.1211.20704-.08593.21875-.0586.23047-.01952m5.08984 0h.51172v6.29687h-.78906v-4.48828h-1.38672v-.5586l.5586-.0625.2539-.05468.22656-.08985.20703-.14062.17188-.21094.14062-.29297.10547-.39844m2.82422 2.17579h.78906l.01953-.31641.0586-.28516.09765-.2539.14063-.21485.1836-.17187.22265-.1289.26562-.08204.3047-.02734.23827.02344.22656.0625.20313.10156.17969.13672.14844.17187.11328.20703.0703.23828.02735.26172-.02344.26953-.0664.22657-.10938.1914-.15625.16797-.19922.16406-.24609.16797-.63672.38672-.53515.3125-.4375.3164-.34766.32423-.26563.33593-.1875.35157-.125.37109-.0703.39453-.01954.41797h4.21094v-.74219h-3.33203l.08203-.28125.11328-.23828.14844-.20312.1875-.1797.23047-.17187.27734-.17578.71875-.41406.41406-.20703.34766-.23047.28125-.25.21875-.26953.16406-.27735.10938-.28125.0664-.28515.01953-.28125-.04297-.38672-.12109-.34766-.1875-.30468-.25-.26563-.30469-.21094-.34375-.16015-.3789-.09766-.41016-.03515-.4336.03515-.39843.09766-.35547.16797-.30469.23437-.24609.30469-.1875.3711-.11328.44921-.04297.51563"/></g></defs><use xlink:href="#ak"/></svg>