<svg xmlns="http://www.w3.org/2000/svg" role="img" xmlns:xlink="http://www.w3.org/1999/xlink" viewBox="142.45 309.95 326.84 171.84"><defs><clipPath id="a"><path d="M144 311.67188h1v168.65625h-1zm0 0"/></clipPath><clipPath id="b"><path d="M144 311.67188h324v168.65625H144zm0 0"/></clipPath><clipPath id="c"><path d="M467 311.67188h1v168.65625h-1zm0 0"/></clipPath><clipPath id="d"><path d="M144 478h4v2.32813h-4zm0 0"/></clipPath><clipPath id="e"><path d="M146 479h2v1.32813h-2zm0 0"/></clipPath><clipPath id="f"><path d="M153 478h8v2.32813h-8zm0 0"/></clipPath><clipPath id="g"><path d="M159 479h2v1.32813h-2zm0 0"/></clipPath><clipPath id="h"><path d="M166 479h9v1.32813h-9zm0 0"/></clipPath><clipPath id="i"><path d="M172 479h3v1.32813h-3zm0 0"/></clipPath><clipPath id="j"><path d="M180 479h8v1.32813h-8zm0 0"/></clipPath><clipPath id="k"><path d="M186 480h2v.32813h-2zm0 0"/></clipPath><clipPath id="l"><path d="M193 479h8v1.32813h-8zm0 0"/></clipPath><clipPath id="m"><path d="M199 480h2v.32813h-2zm0 0"/></clipPath><clipPath id="n"><path d="M206 480h9v.32813h-9zm0 0"/></clipPath><clipPath id="o"><path d="M212 480h2v.32813h-2zm0 0"/></clipPath><clipPath id="p"><path d="M220 479h8v1.32813h-8zm0 0"/></clipPath><clipPath id="q"><path d="M226 479h2v1.32813h-2zm0 0"/></clipPath><clipPath id="r"><path d="M233 479h8v1.32813h-8zm0 0"/></clipPath><clipPath id="s"><path d="M239 479h2v1.32813h-2zm0 0"/></clipPath><clipPath id="t"><path d="M246 479h9v1.32813h-9zm0 0"/></clipPath><clipPath id="u"><path d="M252 479h2v1.32813h-2zm0 0"/></clipPath><clipPath id="v"><path d="M260 479h8v1.32813h-8zm0 0"/></clipPath><clipPath id="w"><path d="M266 480h1v.32813h-1zm0 0"/></clipPath><clipPath id="x"><path d="M273 479h8v1.32813h-8zm0 0"/></clipPath><clipPath id="y"><path d="M279 480h2v.32813h-2zm0 0"/></clipPath><clipPath id="z"><path d="M287 478h7v2.32813h-7zm0 0"/></clipPath><clipPath id="A"><path d="M300 479h8v1.32813h-8zm0 0"/></clipPath><clipPath id="B"><path d="M305 480h2v.32813h-2zm0 0"/></clipPath><clipPath id="C"><path d="M313 480h8v.32813h-8zm0 0"/></clipPath><clipPath id="D"><path d="M328 477h5v3.32813h-5zm0 0"/></clipPath><clipPath id="E"><path d="M342 476h3v4.32813h-3zm0 0"/></clipPath><clipPath id="F"><path d="M356 476h2v4.32813h-2zm0 0"/></clipPath><clipPath id="G"><path d="M369 476h3v4.32813h-3zm0 0"/></clipPath><clipPath id="H"><path d="M380 478h7v2.32813h-7zm0 0"/></clipPath><clipPath id="I"><path d="M394 477h6v3.32813h-6zm0 0"/></clipPath><clipPath id="J"><path d="M409 476h3v4.32813h-3zm0 0"/></clipPath><clipPath id="K"><path d="M419 479h9v1.32813h-9zm0 0"/></clipPath><clipPath id="L"><path d="M425 480h2v.32813h-2zm0 0"/></clipPath><clipPath id="M"><path d="M433 480h8v.32813h-8zm0 0"/></clipPath><clipPath id="N"><path d="M439 480h2v.32813h-2zm0 0"/></clipPath><clipPath id="O"><path d="M446 479h8v1.32813h-8zm0 0"/></clipPath><clipPath id="P"><path d="M452 480h2v.32813h-2zm0 0"/></clipPath><clipPath id="Q"><path d="M460 477h7v3.32813h-7zm0 0"/></clipPath><clipPath id="R"><path d="M144 465h4v4h-4zm0 0"/></clipPath><clipPath id="S"><path d="M144 453h4v2h-4zm0 0"/></clipPath><clipPath id="T"><path d="M144 439h4v2h-4zm0 0"/></clipPath><clipPath id="U"><path d="M144 426h4v2h-4zm0 0"/></clipPath><clipPath id="V"><path d="M144 413h4v2h-4zm0 0"/></clipPath><clipPath id="W"><path d="M144 399h4v3h-4zm0 0"/></clipPath><clipPath id="X"><path d="M144 385h4v4h-4zm0 0"/></clipPath><clipPath id="Y"><path d="M144 371h4v5h-4zm0 0"/></clipPath><clipPath id="Z"><path d="M144 358h4v5h-4zm0 0"/></clipPath><clipPath id="aa"><path d="M466 360h2v4h-2zm0 0"/></clipPath><clipPath id="ab"><path d="M144 345h4v5h-4zm0 0"/></clipPath><clipPath id="ac"><path d="M466 345h2v3h-2zm0 0"/></clipPath><clipPath id="ad"><path d="M144 332h4v4h-4zm0 0"/></clipPath><clipPath id="ae"><path d="M466 332h2v3h-2zm0 0"/></clipPath><clipPath id="af"><path d="M465 332h3v3h-3zm0 0"/></clipPath><clipPath id="ag"><path d="M144 319h4v3h-4zm0 0"/></clipPath><clipPath id="ah"><path d="M466 318h2v2h-2zm0 0"/></clipPath><clipPath id="ai"><path d="M465 318h3v3h-3zm0 0"/></clipPath><g id="aj" clip-path="url(#clip1)"><path fill="#fff" fill-opacity="0" fill-rule="evenodd" d="M0 0h1000v1000H0zm0 0"/><path fill="#d3d3d3" fill-opacity="0" fill-rule="evenodd" d="M162.15234 355.86719l-.23437.29297.0586.23437.11718.17188.17578.23437.29297.34766.11328.0586.11719-.17188.0586-.23438.17577-.17578.46485-.17578h.69922l.23437.29297.28906.8164.0586.17579.17578.23046.35156.23438.69922.69922.17188.17578.23437.34765.23438.41016.28906.58203.41015.46485.23047.23437.23438.17578.11719.23047.17578.29297.17187 1.16406v.23438l.0586.28906.05859.11719.11719.11719.34765.41015.11719.17188.17578.17578.17578.23437.11719.17188.17188.35156.05859.23438.23437.40625.23438-.0586-.17578.17578-.0586.92969h-.58203l-.23437-.11328-.34766.11328-.11719.11719-.05859.29297-.0586.17578-.11718.17187-.46484.29297-.0586.23438-.0586.11328v.64453l.0586.17187v.41016l.0586.0586v.40624l.05859.40625.11719.17579.05859.05859.23047.64062-.0586.29297v.69922l-.05859.58203v.23438l-.0586.23047-.05468.35156v1.92187l.05469.1172h.42578l-.36719.11718-.02344.35156.89063 1.16797 1.74219.53906 1.33984.35938v.53906l.08984.8086.53516.71484 1.51953.26953.89063-.08594.08984 1.16406.53516.1797 1.16015-.1797 2.05469-.98437 1.16016-.36328 1.8789-.17578 1.69531-.1797-.17968.71876-1.51563.08594-1.25.08984-.80469.26953-1.07421.8086.26953.71875.53515.89843-.17968.625-.26563.8086.26563 1.07812.625.89844.80468.17969 1.25-.1797-.26562.72267.09766.5039.05468.29297v.17188l.0586.29296v.40625l.17578.1172.35156.11718h.40625l.29297-.17578.11328-.11719.0586-.11719.11718-.23047.0586-.17578.35156-.46484.23047-.17578.17578-.0586.17578.0586.0586.17578.11718.98828.05469.46875.0586.17188.11718.23437.17578.0586.8164.05859h.28907l.11719.23437.05859.40625.0586.35156v1.10547l.11718.29297.11719.34766.28906.69922.17578.35156.58203.7539.35157.17579.17187.0586.46875.23437.64063.46484.34765.23438.29297.17578.29297.05468.23047.0625.8164.34766.29297.17578.11328.17188.35157.35156.11719.17578.52343.64063v.28906l.0586.35156v.34766l.05859.35156.0586.28906.11718.0586.17188.05859h.17578l.58203.23437.17578.1172.17578.28905.17578.23438.11328.23437.29297.23047.11719.11719v.41016l.0586.05468.28906.23438.23437.11719.0586.11718.11718.17188.0586.11719.23047.23437.05859.17578.23437.0586.1172.05859-.1172.11328-.05859.11719v.11719l-.11719.29296-.11719.28907v.58203l.17579.11719.11718.05859.0586.11719.11719.11719.11328.05859.17578.34765.0586.35157.05858.40625v.17578l-.05859.17578-.11719.69922v.17187l.1172.17579.29296.29296h.40625l.17578.1172.11719.17187.11719.29296v.23438h-.52735l-.23047-.23438h-.23437l-.17578.0586-.0586.69922.0586.34765.11719.17579.17578.41015.11718.23047.28907.46875.17578.05469h.52344l.23437.0586.75781.64062.0586.29296v.23438l.05859.0586.23047.34765v.35156l-.11719.17188v.29297l.29297.28906.29297.17578.17187.0586.29297.17577.29297.1172.58203.40624.28906.23438.29297.17578.21875.16015.01563.01172.23047.17579.64062.52343.17578.23438.1172.17578.17577.17578.11328.17188v.64062l.1172.17578.46874.11719.58203.11719.23438.05859.23047.11328.29297.11719.11328.0586.58593.35156.28907.17187.17578.0625.17578.05469.17578.0586.69922.35155.28906.17579.23438.05468.28906.17578.23437.1172.64063.40624.29297.11719.17187.0586.23438.05859.41015.05859.23047.0586.23438.11718.0586.17188-.41017.17578.46875.0586.0586.29296.11328.23438.17578.05468.23438.0586.17578.05859.40625.11719.64062.23437.11719.17188.0586.23437v.17578l-.0586.1172-.0586.40624.23438.23438.11719.05859.34766.11719.64062.23047.17578.11718.28906.1172.17578.17577.23438.46485.58203 1.10546.17578.17579.34766.17578.17578.11719.35156.11718 1.04688.52344.23437.0586.46485.11327.29297.0586.46484.17578.75781.58203.23438.23438.34765.46484.17578.17578.28907.23438.8164.69921.29297.17579.28906.28906.29297.17578.29297.28906.69531.64063.17578.17578.29297.23437.28907.23438.46875.28906.64062.58203.34766.23438.23437.29297.34766.34765.35156.46485.9336.99218.34765.40625.11719.17579.23437.05859.11328.11719.64454.17578.23047.11328.23437.0586.29297.17577.23047.1172.9336.69921.40624.40625.23438.17578.40625.17578.23437.11719.8164.34766.34766.23437.23438.11719.29297.28906.23047.11719.7578.35156.35157.17188.23047.05859.29297.11719.23437.0586.8711.17577h.8164l.46875.23047.17188.0586.875.69921.46484.1172.29297.05858.17578.0586.23047.0586.46875.05859.34766.05859.35156.0586.40625.05859h.29297l.17187.0586v.23046l.17578.17578h.29297l.34766.0586.35156.05859.69922.11719h.64063l.46484-.23438.29297-.17578.17187-.11719.41016-.17187.28906-.17578.9336-.46485.46875-.29297.52343-.29296.46485-.17188.46484-.17578 1.05078-.46485.28906-.11718.41016-.11719.28906-.11719.52735-.17578 1.51562-.69922.58203-.34765.28907-.0586.29297-.0586.34765-.11718.875-.23047.35156-.11719h.11329l.23437-.05859.875-.23437.23438-.0586h.8125l.35156-.0586.8164-.11718.17188-.0586.35156-.05468.29297-.0586.23047-.05859.8164-.17578.17579-.0586h.34765l.23438-.05859.46484-.11718.75781-.17188.23438-.0586h.34765l.41016-.11718.28906-.0586 1.28516-.05859h.28906l.41016-.0586.23047-.05858h.17578l.875-.1172h.40625l.41015-.11718h.34766l.35156-.11328.8711-.0586h1.75l1.04687.28907.41016.11719.28906.11718.35156.11719.28907.11719 1.05078.17187.28906.0586h.29297l.29297.05859.17187.0586.41016.05859.17187.0586.1172.05858h.11718l.11719.0586.35156.0586h.11328l.41016.0664 1.92187.39453 1.92578.39453 1.51953.44922 1.69532.71875 2.14453.80469 1.60547-.71875 1.42968-.80469 1.16016-1.07813 1.25-.44921 3.03516-.71875 1.875-.35938 2.14453-1.34765 2.23437-1.25391 2.5-1.25781 1.69531-.44922 1.78516-.17969 1.16016-.26953.625.53906 1.33984-.26953.71485-.98828.98437-1.34375.44531-.17969.80469-.35937 1.875-.53907 1.78516-.44921 1.25-.26954 1.16015-.08984 1.69922-.08984 1.96094-.26954 1.25-.08984h.53906l.625-.08984h.89063l2.14453-.17969 2.41015-.17969 2.58985-.08984 1.69531.17969 1.60938.08984 1.42968.35938 1.16016.71875 1.875.98828 1.16015 1.52734.26563.71484.6289.08985.35548.89844.53515.53906.53516 1.52734 1.07422.35938h.53515l-.80469.53515.08985 1.70703.71484 2.69532.89063.80468.89453.98829.71484 1.2578 1.78516.53907 1.51953-.17969.35547 1.34375 1.60937-.80469.98047-.53906.26953.26953.31641-.21484.21875-.14453.80078.44922.44922-.35938h.35547l.53515-.26953.53907-.71875.53515-.26953.625-.98828 1.16016.44922.83984.3711 1.39454.61718 1.6953-.17969h1.60548l1.78515.08985.17969-1.70704.53516-1.34375.80468.26954.4922.84765.40233.40625-.08984.53906v.35938l.71485.44922.71093-.26953h1.42969l.35938.98828.4453 1.25781.71485 1.34375 1.25.6289 1.69531.62891.71485-.17969.17969-.53906.98046-.08984.44922.35937.08594 1.25782-.26563.6289-.53515.17969v.53906l.71484.98438.26563.53906.98437.98828.80078 1.07813-.26562.35937-.08985.89844-.625 2.33203-.35546 2.0664-.08985 1.79298-.17969.71875-.08984.53906v1.4375l-.98047 1.88281-.35937 1.70703-.53516.89844-.80469 1.16797-.26562.53906 2.05469 1.2539.08593.35938-.35546.53906-.08985-.17968v.80859l.08985 1.4375-.44532.71484-1.07422.09375-.26562.71485.53515.89844.8047.71875 1.16015.80859 1.33984.26953.44531.35938-.35546.44921-1.78907-.08984-1.25-.44922-.71484-.71875-.625-.08984-.17578 3.58984-.1875 1.3086h89.35937V311.70313h-55.26953v49.08203l.76172.125 3.28906.54296 2.02344 2.83594v2.7539l2.35156.33204 2.34766.33203h4.05078l-1.3789 4.16016-2.02344.70703-2.02344.70312-.54297.34375-2.59375 1.6172-.1875.11718-2.02344-2.07813-.73046-2.74218-2.67188-2.07813-1.375-3.5-.0664-.08203-1.95704-2.67188 2.75-1.41796v-49.08204H294.42187v91.41407l.1172.03125.1328.01172.07422.07421.10547.04688.08985.0586.08593.05859.08985.0586.29687.29687.0586.08984.03125.11719.02734.11719.01563.13671-.03125.1172-.0586.08983-.0586.08594-.04296.10547-.04688.10156-.02734.1211v.14453l.17578.26953.14844.14844.07422.08594.07422.07421.04296.10547.0625.08985.0586.08593.04297.10547.0586.08985.04687.10156.04296.10547.0586.08594.11719.17968.07421.07422.0625.08594.0586.08984.04297.10547.0586.08985.05858.08593.0625.08985.0586.08984.04297.10156.11719.17969.07421.07422.0586.08594.07422.07421.08984.0586.10547.04687h.14844l.1328-.01562.13282.01562.10156-.04687.07422-.07422.04688-.10156-.01563-.13281v-.14844l-.04687-.10547-.02735-.11719-.04687-.10156-.02735-.1211-.04296-.10156-.0625-.08984-.04297-.10156-.04297-.10547-.03125-.11719-.01563-.13281-.01171-.13672.08593-.0586.0586-.08593.12109-.03125.04297.10547.01562.1328v.1172l.0586.10156.0586.08984.08983.0586.14844.14843.0586.08985.04296.10547-.01171.10156.08593.0586.10547.04687.08594.0586.08984.05858.07422.07422-.11719.02735-.10546.04687-.08594.0586-.07422.07421-.0586.08985-.0625.08594-.02734.12109-.04687.10156-.04297.10547-.03125.11719-.01172.13281-.01563.13281v.14844l.02735.11719.04687.10547.04297.10156.0586.08984.07421.07422.08985.0586.07422.07421.08984.0586.0586.08984.04296.10547.04688.10156.11719.03125.1328.01563h.14845l.11718-.03125.10547.04297.04297.10547.04688.10156.02734.1211L299.5 410l.02734.11719.03125.1211.02735.11718.10547.04297.10156.04687.13281-.01562.14844.14844.0625.08593.07422.07422.07031.07422.08984.0625.10547.04297.10156.04297.1172.03125.13671.01562.11719-.03125.07422-.07422.02734-.11718-.01172-.13282-.03125-.12109-.02734-.11719.04297-.10547h.11719l.08984.0625.11719.02735h.14843l.13282.01562h.14843l.13282.01563.1328-.01563h.14845l.1328-.01562.13282-.01172.13672.01172.11719-.02735.13281-.01562.1914-.0586-.05859.17579-.01562.1328-.02735.1211-.01562.13281-.0586.08594-.1328.01563-.10548.04687-.10546.04297-.1172.03125-.11718.02735-.26563.03125h-.14843l-.13281.01562-.07422.07422.05859.08594.14844.14843.11719.1797.07421.0703.08985.0625.08984.0586.08594.0586.08984.05858.10156.04297.10547.0625.10547.04297.08594.0586.10547.04687.10156.04297.17969.11719.0586.08984-.04298.10156-.04687.10547.01562.13281.22266.22266.0586.08985.04296.10156.03125.1211.04297.10155.01563.13282.03125.11718.01171.13672.03125.11719.14844.14844.10156.04297.10547.04296.1172.03125.1328.01563.13672.01563h.11719l.11719-.03125.08984-.0586.04297-.10547.04688-.10156.04296-.10547.03125-.11719.01172-.1328v-.14845l-.01172-.1328-.01562-.13282-.03125-.11719-.04297-.10547-.04688-.10547-.04296-.10156-.04297-.10547-.01563-.13281.01563-.13281.02734-.11719.03125-.11719.02735-.1211.04687-.10155.08984-.0586.08594-.0625.07422-.07422.08984-.05859.22266-.22266.0586-.08593.07421-.07422.11719-.17969.0586-.08594v-.14844l-.07423-.07421-.10156-.04688-.10547-.04297-.10156-.04297-.0586-.08984-.04687-.10547-.02734-.11719.08984-.05859.11719-.03125.10156-.04297.17969-.11719.14844-.14843.01172-.13282-.01172-.10546-.08985-.0586-.1328.01563h-.14845l-.1328.01562-.13282-.01562-.1211-.03125-.08593-.0586-.07422-.07422-.0586-.08984-.0625-.08594-.11718-.17969-.0586-.08593.03125-.1211.08594-.05859.1211-.03125.05859-.08594v-.1211l-.03125-.11718-.0586-.08984-.05859-.08594-.04687-.10547-.02735-.11719-.01562-.1328.0586-.08985.07421-.07422.08984-.0586.1172-.17968.07421-.07422.0586-.08594.14843-.14844.1211-.03125.1328-.01562.13282.01562.07422.07422.04297.10547.01562.13281-.03125.1172-.11719.03124-.1328.01172-.14844.14844-.04297.10547-.04688.10156-.02734.1211-.03125.11718v.14844l.03125.11719.04297.10546.05859.08985.07422.07031.07422.07422.11719.03125.12109.02734.11719-.02734.1328-.01563h.1172l.08984.0586.07422.07422.04687.10546.0586.08594.10156.04688.13281.01562.10547.04297.08594.0586-.01172.10546-.07422.07422-.17969.11719-.05859.08984-.08984.0586-.07032.07422-.07421.07421-.0625.08985-.02735.11719-.01562.1328.01562.13282-.01562.13281v.14844l.01562.13281.02735.1172.03125.12108.07421.07422.08985.0586.08594.0586.08984.05858.11719.03125v.08594l-.10157.04688-.08984.0586-.26563.03124-.11718.02735h-.14844l-.10547.04296-.10156.04688-.0586.08984-.0625.23438-.01171.13281-.03125.1211-.01563.1328v.29298l-.01172.1328.01172.13673.01563.1328.1328.01563.13282.01172.1211.03125.08593.0586.07422.07421.04688.10547.04296.10157.01563.1328v.44532l-.01563.13281v.44532l.03125.26562.02735.11719.01562.13281.03125.11719.08594.21094.03125.26562v.14844l-.03125.11719-.02734.11718-.03125.1211-.02735.11719-.03125.11718-.03125.1211-.01171.1328-.01563.13282.08984.0586.1172-.03125.10155.01562.04688.10547-.03125.26562v.44141l-.04297.10547-.04688.10547-.04296.10156-.04297.10547-.0586.08594-.03125.12109-.04296.11719-.03125.11719-.01563.1328.01563.13282.05859.08984.10547.04688.08594.0586.05859.08593-.01172.13672-.03125.11719-.04297.10156v.44531l-.01562.13281v.14844l-.03125.11719-.04297.10547-.02735.11719-.04687.10546-.04297.10157-.03125.12109-.02734.11719-.03125.13281-.03125.11719-.02735.11719-.04297.10546-.03125.1172-.03125.12108-.01171.13282-.01563.13281v.29688l.02734.11718v.14844l.04688.39844.02734.11719.0586.08984.12109.03125h.14844l.13281-.01563.0586.08985v.11719l-.0586.08984-.08984.0586-.10157.04296-.10546.04688-.08985.05859-.08594.0586-.13671.01562-.1172-.03125-.1328-.01563-.10157.04688-.0625.08594-.01172.13671-.01562.13282-.03125.11719-.02735.11718-.01562.13281-.03125.1211v.29687l.01563.13282.03125.11718v.14844l.01171.13281v.14844l-.02734.11719-.04688.10156-.02734.1211-.03125.11718-.0586.08985-.07421.07421-.10156.04297-.10547.04688-.11719.02734-.1211.03125-.10156-.04687.0586-.08594.10547-.04688.02734-.11718.03125-.11719.02734-.1211.03125-.11718v-.14844l.01563-.13281-.03125-.11719-.04297-.10547-.10547.01563-.07422.07422-.10156.04296-.08984.0625-.07422.07422-.04297.10157-.01563.1328-.03125.1172L304.25 426l-.03125.11719-.02734.11719-.03125.12109-.02735.11719-.03125.11718-.04297.10547-.08984.0586h-.08984l-.1172-.03125-.03124-.08594.01562-.13672-.03125-.11719v-.14844l-.01171-.1328v-.14844l-.0625-.23438-.02735-.1211-.04297-.10156-.04687-.10546-.0586-.08594-.05859-.08985-.04297-.10546-.0625-.08594-.14844-.14844-.0703-.07422-.10548-.04687-.10547-.04297-.10156-.04297-.29687-.29688-.08985-.07421-.08594-.0586-.10546-.04297-.08985-.0625-.08594-.0586-.10546-.04296-.08985-.0586-.08594-.0625-.07421-.0703-.10547-.04688-.08594-.0586-.10547-.04296-.08984-.0625-.10156-.04297-.10547-.04297-.08594-.0586-.10547-.04687-.10547-.04297-.10156-.04687-.08985-.0586-.10156-.04297-.10547-.04296-.08984-.0625-.11719-.02735-.13281-.01562-.13281.01562H299.75l-.13281.01563-.11719-.03125-.08984-.0586-.07422-.07422-.08985-.05859-.10156-.04688h-.14844l-.12109-.02734-.10156-.04297-.07422-.07422-.11719-.17968-.08984-.0586-.10156-.04297-.08985-.0625-.10547-.04296-.08984-.0586-.08594-.0586-.10547-.04687-.0586-.08594-.05858-.08984-.04297-.10547-.04688-.10156-.07422-.07422-.08594-.0586-.07421-.07421-.08985-.0586-.22265-.22265-.04297-.10547-.03125-.26563.10547-.04296h.14453l.10547.04296.07421.07422.08985.0586.08594.0586.10546.04687.08985.05859.14844.14844.0703.07422.14845.14843.0625.08594.07421.07422.08594.0586.07422.07421.08985.0625.08984.0586.08594.05859.26953.17578.10156.04688.10547.04296.10156.04297.04688-.07421.05859-.08594.07422-.07422.07031-.07422.10547.04297.07422.07422.0586.08984.04296.10156.04688.10547.04296.10547.1211.02735.11719-.02735.07421-.08984.04297-.10547.0586-.08985.07422-.07421.10546-.04297.1172-.02735.1328.01172.08985.0586.14844.14843.05859.08985.04297.10547.04687.10156.04297.10547.04297.10156.10547.04688.10547.04296.13281.01563.08594-.0586.0586-.08984.07421-.07422.10547-.04297.11719.02735.10547.04687.10156.04297.10547.04297.10156.04688.17969.11718v.11719l-.01563.13281.01563.13281.01562.13672.0586.08594.10156.04688.1211.02734.11718.03125h.14844l.11719-.03125.05859-.08984.17969-.1172.05859-.08983.07422-.07422.0586-.08594.11718-.17969.17969-.11719.11719.03125.08984.0586.04297.07422-.01563.1328v.1172l.08985.05859h.14843l.13282-.01563.1328-.01171.26563-.03125.10547-.04297.11719-.03125.1211-.02735.07421-.07421.07031-.07422.0625-.08985-.01562-.10547-.04688-.10156-.10156-.04297-.10547-.01562-.11718.02734-.26563.03125h-.14844l-.07421-.07422-.08985-.0586-.11719-.03124-.11718-.02735-.13282-.01562h-.14843l-.13282.01563h-.29687l-.10547-.04688-.14844-.14844-.04297-.10156-.05859-.08984.22266-.22266.08593-.0586.10547-.04296.11719-.03125.13281-.01563.13281.01563.13672.01562.10157.04297.1328-.01172.08985-.0625.10156-.04297.0625-.08984-.04687-.10156-.08984-.0586-.1172-.03125-.10155-.04296-.0586-.08985-.0625-.08984v-.11719l.01563-.13281.10547-.04688.07421-.07031v-.1211l-.08984-.05859-.03125-.11719.08985-.05859.07421-.07422.04297-.10547.0586-.08984.04687-.10156.01563-.13281v-.14844l-.04688-.10547-.04297-.10156-.08984-.0586-.13281-.01562-.10157-.04297-.13671-.01563-.1172-.03125h-.4453l-.13282-.01562-.13281-.01172-.13281-.01563-.11719-.03125h-.14844l-.13281-.01562-.13281-.01172-.26563-.03125-.1211-.04297-.08593-.0586-.07422-.07421v-.14844l.01172-.13281.10547-.04688.10156-.04296.13281-.01563h.15235l.13281-.01562h.29297l.1211.03125.10156.04296.08984.0586.23438.0625.12109-.04688.08984-.05859.10156-.04297.13282-.01562.10547.04296.10156.04688.13281.01172.1211-.02735h.14453l.12109-.03125.11719-.02734.10547-.04687.07421-.07422.08594-.0586.14844-.14843.0586-.08594.04687-.10547.02734-.11719.01563-.10547-.10156-.04296-.08985-.0586-.11719-.03125-.10546-.04297-.08985-.0625-.07422-.08594-.07422-.07421-.10156-.04297-.10547-.04688-.10156-.04297-.0586-.08984-.04687-.10156-.08594-.21094-.0625-.08594-.05859-.08984-.07422-.07422-.08594-.0586h-.26953l-.11719.03126-.08984.05859-.10156.04297-.13281.01562-.10547-.01562-.02735-.11719-.0625-.08984-.11718-.03125-.10157-.04297-.14843-.14844-.03125-.11719-.01563-.10546.07422-.07422.17969-.1172.11719-.02733.11718-.03125.13672.01562.10156.04297.10547.04297.10156.04687.10547.04297.1172.03125.1328.01563.1172.02734.1328.01563.10547-.01563.08985-.0586-.07422-.07421-.10547-.04297-.07422-.07422-.07422-.08984-.14844-.14844-.08593-.0586-.08985-.05859-.07422-.07422-.08984-.0586-.10156-.04687-.1211-.02734-.10156-.04688-.10547-.04296-.11719-.03125-.10156-.04297-.1211-.03125h-.14843l-.11719.03125-.10546.04297-.08594.0625-.17969.11718-.08594.0586-.08984.0586-.10547.04687-.08594.05859-.10547.04297-.10156.04297-.10547.04687-.07422.07422-.05859.08985-.0586.08593-.04687.10547-.0586.08594-.07421.07422-.13281-.01172-.1172-.03125h-.11718l-.07422.07422-.08984.0586-.07422.07421-.08984.0586-.08594.05859-.10547.04687-.10156.04297-.13672.01563-.10156-.04297-.14844-.14844-.10547-.04688h-.08594l-.10547.04688-.10156.04297-.1211.03125-.11718-.03125-.07422-.07422v-.11719l.03125-.1211.07422-.0703.0586-.08985.07421-.07422.11719-.03125.10547-.04296h.29297l.13281-.01563.13672-.01563.10156-.04296.08985-.0586.10156-.04687.08984-.0586.13281-.01171.08985.05859.13281.01172.08984-.0586.08594-.05859.10547-.04297.08984-.0586.08594-.0625.08985-.05859.14843-.14843.0586-.08594.05859-.08985.10547-.04296.13281-.01563.11719.02735.1211.03125.05859-.0586.05859-.08984.03125-.26563.02734-.11719.10547.01172.13281.01563.10157-.04297.08984-.0586.0586-.08984.07421-.07422.0586-.08984.04687-.10156.01172-.13281-.01172-.13282-.04687-.10547-.14844-.14843-.0586-.08985-.05859-.08594-.04297-.10546v-.44532l.01563-.1328v-.14845l.01172-.1328-.0586-.0586-.08984.0586-.10156-.04298-.17969-.11719-.08594-.05859-.0625-.08984-.0586-.08985-.07421-.07421-.08594-.0586-.1211.03125-.10155.01172-.10547.04688-.08594.05859-.10547.04297-.14844.14844-.08984.05859-.08594.0586-.08984.0625-.10547.04296-.13281.01563v-.1211l.10547-.04297.11718-.03125.07422-.0703.04297-.10548v-.14844l-.02734-.11718-.14844-.14844-.13281-.01563h-.14844l-.11719.03125-.10547.04297-.10156.04297-.08984.0625-.11719.02735-.07422-.07422.01172-.13281-.04297-.10157-.04297-.10547-.08984-.05859-.11719.02734-.1211.03125-.11718.03125-.10156.04297-.1211.03125-.10156.04297-.10547.04297-.08984.0586-.10156.01562v-.11719l.01562-.13281-.0586-.08985-.07421.04297-.14844.14844-.0586.08985-.07421.07421-.04688.10547-.04296.10156-.07422.07422-.0586.08985-.07422.07422-.05859.08593-.07422.07422-.08984.0625-.07422.07031-.07422.07422-.10156.01563-.13281.01562-.10547-.04296v-.1211l.14843-.14844.04297-.10156.0586-.08984.04687-.10156.04297-.10547.0586-.08985.03124-.11719.04297-.10156.03125-.1211.02735-.11718.04687-.10547.04297-.10156.04297-.10547.07422-.07031.08984-.0625.08985-.0586.10156-.04296h.29687l.26563-.03125.10547-.04297-.07422-.07422-.11719-.03125-.10547-.04297-.08984-.0586-.10156-.04687-.08985-.0586-.10156-.04296-.10547-.04297-.08984-.0625-.08594-.0586-.10547-.04296-.10156-.04297-.1211-.03125-.11718-.03125-.10157-.04297L297.5 410.25l-.10156-.04297-.08985-.0586-.04296-.10546-.01563-.13281.10156-.04297.13281-.01563.13672.01563.13282-.01563.10156-.04297.0586-.08984.01562-.10547-.08985-.0586-.07421-.07421-.10157-.04297-.08984-.0586-.14844-.14843-.04297-.10547-.01562-.13281v-.29297l-.0586-.08985-.08984-.05859-.07422-.07422-.04297-.10547-.03125-.11718-.0586-.08985-.07421-.07422-.11719-.02734-.07422-.07422-.08984-.0586-.08984-.0625-.08594-.05859-.07422-.07421-.0586-.08594-.04687-.10547-.08594-.0586-.14843-.14843-.19532-.0586-.1328.01563-.10157.04297-.07422.07422-.04688.10156-.04296.10547-.0586.08984-.0586.08594-.29687.29687-.08984.0586h-.08594l-.0625-.08594-.04297-.10547.03125-.11719.0586-.08984.02734-.11719-.01172-.13281-.08984-.0625-.10547.04688-.11719.02734-.11719.03125-.26953.17578-.10156.04688-.11719.02734-.10546.04687-.08985.0586-.10156.04297-.0586-.08594-.04687-.10547.01563-.13281.04687-.10547.07031-.07422.07422-.07031.0586-.08985v-.14843l-.04297-.10547h-.23829l-.10156.04687-.03125.11719-.02734.11719-.03125.1211-.07422.04296-.13281.01563-.07422-.04688-.04297-.10156-.04297-.10547-.04687-.10156-.04297-.10547-.1211.03125-.10156.04297-.13281.01562-.11719.03125-.10547.04297-.08984.0586-.10156.04687-.1211.02734-.13281.01563-.10156-.04297-.0586-.08985-.04687-.10546-.04297-.10157-.04297-.10546v-.1172l.0586-.08984.08593-.05859.17969-.11719.10156-.04687.10547-.04297.10547-.0586.10156-.04296.08985-.0625.10156-.04297.10547-.0586.10156-.04687.08984-.0586.10547-.04296.10156-.04297.08985-.0625.10156-.04297.13672-.01563.11719.03125.10156.04297.1211.03125.10156.04297.10546.04688.10157.04296.10547.04297.10156.04688.10547.04297.10156.04297.10547.04687.08594.0586.10546.04296.1172.03125.10546.04297.10156.04688.08985.0586.10547.04296.10156.04297.10547.04687.11719.02735.10156.04687.1211.02735h.14843l.08594-.0586.01562-.10156.0586-.08984-.02735-.1172-.07422-.07421-.11719-.17969-.07421-.07422-.08985-.07421-.17969-.1172-.08593-.05859-.10547-.04296-.10156-.04688-.26954-.17578-.05859-.08985-.07422-.07421-.0586-.08985-.04296-.10156-.03125-.11719-.01563-.13672v-.5625l-.01171-.1328-.01563-.13282-.03125-.11719-.01562-.13281-.01172-.13281-.03125-.1211-.22266-.22265-.0586-.08594-.01562-.10547.03125-.11719.13281-.01562v-91.41406H172.9922v1.45312l-.0586.23438-.35156 1.05078-.17187.52343-.1172.34766-.17577.41016-.11719.17187-.23438.29297-.23046.0586h-.35157l-.11718.05859-.23047.40625v.29297l.11719.17578.23046.23047.1172.23437.64062.75781.29297.46485.17578.23437.23047.35156.23437.34766.64063.8164.17578.46485.17187.41016.11719.69531.17578.46875.11719 1.39844.0586.46484v.875l.11718 1.04688v4.78125l-.0586.46484-.35156 1.28125-.17578.52344-.11328.41015-.35156.9297L172.93359 336l-.23437.58203-.11719.17578-.17187.34766-.17578.40625-.35157.8164-.0586.29297-.11327.29297-.11719.28906-.0586.17579-.11718.875-.0586.40625-.05859.11718-.0586.17579-.05859.17187-.23047.52734-.11718.17188v.23437l-.11719.23438-.0586.17187-.17577.58594v.28906l-.0586.17579v.29296l-.0586.11329-.05859.52734v.17187l-.05468.23438v2.6211l-.17578.8164-.1172.17578-.17577.23438-.1172.17187-.11327.23438-.58594.93359-.23047.28906-.29297.46485-.17578.23437-.28906.35156-.35156.69922-.11328.23047-.17579.41016-.17578.23046-.40625.52735-.8164.69922-.29297.17187-.28906.23438-.17579.11719-.17578.17578-.52344.40625-.52734.17578-.17187.17578-.23438.05469-.64062.17578h-.75782m12.21094 31.02344l-1.07422.44921.35938.89454 1.25-.71485.44531-.53906-.98047-.08985"/><path fill="#d3d3d3" fill-opacity="0" fill-rule="evenodd" d="M201.50781 416.59766h-.89453l.44922.6289.98047.35938.80469-.08985.4453-.98828-.17577.08985-.71485-.35547-.89453.35547m154.6211 59.0703l-.0586-.52343v-.29297l.11328-.29297.0586-.23046.46875-.46875h.11328l.11719-.11329.11718-.05859h.17579l.23437-.0586h.34766l.23437.0586.11719.0586.23047.17187.0586.17578.11718.58203v.29297l-.11719.17578-.17187.28906-.17579.17579-.52734.52343-.23047.23438-.11719.0586h-.17578l-.11718-.0586-.40625-.29297-.17579-.11719-.11718-.0586-.0586-.11327-.05468-.1172m6.64062-10.95702l-.0586-.17188v-1.10937l.0586-.17188.17578-.0586.17188-.05858h.17578l.23437-.0586.1172.0586.05858.69921-.05859.17188-.11719.17578-.11718.0586-.23438.52343-.11328.0586h-.23438l-.05859-.1172m9.61328-14.39062l-.11719-.17578v-.69922l.29297-.875.1172-.17187.17577-.35156.11328-.23047.1172-.29297.35155-.75781.1172-.23047.17187-.23438h.17578l.11719-.0586h.64062l.11719.0586.23437.23438.17188.11328.35156.29297.11719.11718.11328.17579v.11328l.11719.05859.11718.11719v.69922l-.05859.17578v.23047l-.0586.17578-.34765 1.05078-.11719.23047-.11719.23437-.11718.0586-.23047.23437-.64063.28906h-.875l-.41015-.11718-.64063-.46485"/><path fill="none" stroke="#bebebe" stroke-linecap="round" stroke-linejoin="round" stroke-miterlimit="10" stroke-width=".5" d="M467.95703 311.69531H144.02734v168.625h323.9297v-168.625"/><g clip-path="url(#a)"><path fill="#fff" fill-opacity="0" fill-rule="evenodd" d="M144 475.89063v4.4375h.0039H144V311.67188h.0039H144v164.21875"/></g><g clip-path="url(#b)"><path fill="#fff" fill-opacity="0" fill-rule="evenodd" d="M144.0039 480.32813V311.67188h17.75v133.04296l-.07812.10547-3.07031 4.4414-.74219 4.4375.8711 4.4375 3.01953 3.33595 4.4375-1.65625 4.4375-1.00391 4.4375 1.6836 1.42187-2.35938-1.42187-1.36328-4.4375-1.57031-.15625-1.50391-1.83594-4.4375-2.44531-2.28906-4.32813-2.15235-.10937-.10547V311.67188h48.8203v90.09765l-3.41405 3.10547-.5586 4.4414-.46484.9961-3.5 3.4414 2.00781 4.4375-1.91797 4.4375 2.11719 4.44141 1.29297 1.34766 4.4375-.2539 1.17187-1.09376-1.17187-1.125-1.05078-3.3164-1.21875-4.4375 2.26953-2.34375.61719 2.34375 3.82422 4.36718 4.4375.03907v.08984l-2.36329 4.38281 2.36328 2.23047 4.4375-2.13672 2.65625 4.34375 1.78125 1.40235 2.0586 3.03515 2.3789 2.42969 4.44141-.04688.9414 2.0547 3.4961 3.375 4.4375.01952 3.26563-3.39453-.20313-4.4375-3.0625-3.1914-4.4375-.40625-4.4375 1.01171-4.4414-.93359-1.75391-.91797-2.6836-2.53125-4.25-1.90625-.1875-.14453-4.4375-4.23828v-.08984L223.5 418.1914l-.36719-4.4375-3.67969-3.72266-.74609-.71484-3.6914-3.6797-1.19532-.76171-3.2461-3.10547v-90.09765h48.82423v109.01171l-1.94531 1.94532-2.4961 1.34765-3.07031 3.09375 2.8125 4.4375.25781.30469 3.28516 4.13281 1.15625.96094.94922-.96094.60937-4.4375.69922-4.4375.11328-4.4414-2.3711-1.94532V311.67188h62.13673v103.1953l-4.4375.48829-4.44141.27734-4.4375-.01172-1.6875 2.57032-2.75 1.3203-4.4375-.58202-4.4414-.3164-4.38282-.42188-.05469-.01954-.02734.01954-4.41016 1.80468-2.32421 2.63282-2.11329.48828-4.4375-.25-4.4414.39062-4.4375 1.26563-3.26953 2.54687.26562 4.4375 3.0039 2.73438 4.4375.23437 4.44141.61719 1.05079.85156 3.38671 3.48438 4.4375.0664 4.4375-.6953 2.78125-2.85548.9961-4.4375.66015-1.26562v12.66015l-2.53906 1.91797 2.53906 1.90235 2.85938-1.90235-2.85938-1.91797V430.2422l4.44141.76562 3.49219.5.94531.9375v14.21485l-2.63672 2.60156 2.63672 2.77734 2.4414-2.77734-2.4414-2.60156V432.4453l.8711-.9375 3.08984-4.4375.47656-1.57031v32.95313l-4.4375 1.95312-.8789 2.16797.8789.61719 4.4375 1.64453 3.1836-2.26172-3.1836-4.1211V425.5l4.4375 1.42969 4.4414-2.17578 4.4375.48046 4.4375.16797 4.4375-1.64843 4.4375 2.23046 4.44141-2.65234 1.64844 3.73828 2.78906 2.6836.92578 1.7539-.20312 4.4375 3.71484 3.77735.8789.66015-.8789 4.17578-.23828.26172.23828.24219.23828-.24219 4.19922-.94922 4.4414-.48046 4.4375-.0625 3.00392-2.94532 1.43359-1.72265 3.0664-2.71485 1.3711-3.67187 4.4375.8164.14844 2.85547.52734 4.4375-.67578.94922-2.78906 3.48828-.57032 4.4414 1.06641 4.4375 2.29297 2.28126 1.86328 2.15625 2.57813 3.25781 1.28906 1.17969 3.14844 2.70703 4.4375-.46094 3.42968 2.19531 1.00781.58204.6836-.58204 3.7539-.26953 4.44141.1211 4.4375.05469 4.4375-.23438 4.4375-.29688 4.4414.05079 3.69923-3.8672.73828-.86327 4.4375-2.46094 4.4375 1.14844 2.41015-2.26172 2.02735-1.09375 4.4414-1.34766 2.26563-1.9961 2.17187-.55077 3.85938-3.88672-.03906-4.4414-3.82032-3.59376-4.4375.14844-3.1914 3.44531-1.25 1.90235-2.53125 2.53906-1.90625 1.02734-3.60938 3.41016-.82812 3.08594-.58594-3.08594-1.22266-4.4375-.76171-4.4414-1.8672-1.95313-3.14062 1.95312-1.29687.75781-4.4414-.59375-1.86329-.16406-2.57422-1.3789-4.4375-4.07813-3.08203-3.41797-1.35547-1.3125-4.4414-2.42578-4.4375 1.34766-4.4375-.125-4.06641-1.92188-.3711-.36719-4.4375-1.21093-4.4414.67969-1.53516-3.53907-2.90234-2.3125-2.15625-2.1289-2.28125-2.40625-4.4375-.38672-3.23828 2.79297-1.19922 1.04296-4.4414 1.98438-4.4375-2.60938-1.98438-.41796-2.45313-2.2461-4.28906-2.1914-.14844-.1172-.8086.1172-3.6328.15625-4.4375 2.76953-3.87891-2.92578-.5586-.6211-4.4375-2.70312V311.67188H445.8086v123.37109l-1.02343.90234 1.02343 1.03906.95704-1.03906-.95704-.90234v-123.3711h22.1875v168.65625H144.00391"/></g><path fill="#50fcfc" fill-rule="evenodd" d="M158.73438 458.13672l-.8711-4.4375.74219-4.4375 3.07031-4.4414.07813-.10548v3.33204l-.85157 1.21484-1.28906 4.4375 2.10156 4.4375.03907.04297.09375-.04297 4.34375-2.60156 1.27734-1.83594-1.27734-2.04297-2.54297-2.39453-1.89453-1.21485v-3.33203l.10937.10547 4.32813 2.15235 2.4453 2.28906 1.83595 4.4375.15625 1.5039 4.4375 1.57032 1.42187 1.36328-1.42187 2.35937-4.4375-1.68359-4.4375 1.0039-4.4375 1.65626-3.01953-3.33594"/><path fill="#00e8fc" fill-rule="evenodd" d="M161.71484 458.13672l-2.10156-4.4375 1.28906-4.4375.85157-1.21485 1.89453 1.21485 2.54297 2.39453 1.27734 2.04297-1.27734 1.83594-4.34375 2.60156-.09375.04297-.03907-.04297"/><path fill="#50fcfc" fill-rule="evenodd" d="M204.64453 418.1914l-2.00781-4.4375 3.5-3.4414.46484-.9961.5586-4.4414 3.41406-3.10547v2.92969l-.1914.17578-2.88282 4.4414-1.36328 2.91407-1.54688 1.52344 1.54688 2.39453v3.82422l-1.71484 2.65625 1.71484 2.5703 1.70312-2.5703-1.70312-2.65625v-3.82422L208.5 413.7539l2.07422-.75 2.03906.75.39063 4.4375 2.01172 2.29687 4.4375-1.73047.51953-.5664 1.30468-4.4375-1.82422-1.84766-2.69921-2.58984-1.73828-1.73438-4.25782-2.70703-.1836-.17578v-2.92969l3.2461 3.10547 1.19531.76172 3.69141 3.67969.7461.71484 3.67968 3.72266.36719 4.4375-4.04688 4.40625-4.4375-.03907-3.82421-4.36718-.6172-2.34375-2.26952 2.34375 1.21875 4.4375 1.05078 3.3164 1.17187 1.125-1.17187 1.09375-4.4375.2539-1.29297-1.34765-2.11719-4.4414 1.91797-4.4375"/><path fill="#00e8fc" fill-rule="evenodd" d="M206.13672 425.19922l-1.71484-2.57031 1.71484-2.65625 1.70312 2.65625-1.70312 2.5703m0-9.05077l-1.54688-2.39453 1.54688-1.52344L207.5 409.3164l2.88281-4.44141.1914-.17578v2.28906l-1.58202 2.32813 1.58203 1.89843 3.08594-1.89843-3.08594-2.32813v-2.28906l.1836.17578 4.2578 2.70703 1.73829 1.73438 2.69922 2.58984 1.82421 1.84766-1.30468 4.4375-.51953.5664-4.4375 1.73047-2.01172-2.29687-.39063-4.4375-2.03906-.75-2.07422.75-2.36328 2.39453"/><path fill="#00d4fc" fill-rule="evenodd" d="M210.57422 411.21484l-1.58203-1.89843 1.58203-2.32813v2.19531l-.08984.13282.08984.10937.17969-.10937-.1797-.13282v-2.1953l3.08595 2.32812-3.08594 1.89843"/><path fill="#00c4fc" fill-rule="evenodd" d="M210.57422 409.42578l-.08984-.10937.08984-.13282.17969.13282-.1797.10937"/><path fill="#50fcfc" fill-rule="evenodd" d="M219.45313 429.30078l-2.36329-2.23047 2.36328-4.38281 4.4375 4.23828.1875.14453 4.25 1.90625 2.6836 2.53125 1.7539.91797 4.44141.9336 4.4375-1.01172v1.625l-3.46875 1.97265 1.63281 4.4375 1.83594 1.77344 4.4375-.21484 1.5-1.5586-.50781-4.4375-.99219-1.03125-4.4375-.9414v-1.625l4.4375.40625 3.0625 3.1914.20313 4.4375-3.26563 3.39453-4.4375-.01953-3.4961-3.375-.9414-2.05469-4.4414.04688-2.37891-2.42969-2.0586-3.03515-1.78125-1.40235-2.65625-4.34375-4.4375 2.13672"/><path fill="#00e8fc" fill-rule="evenodd" d="M239.8086 440.38281l-1.63282-4.4375 3.46875-1.97265 4.4375.9414.99219 1.03125.50781 4.4375-1.5 1.5586-4.4375.21484-1.83594-1.77344"/><path fill="#50fcfc" fill-rule="evenodd" d="M254.69922 431.50781l-2.8125-4.4375 3.07031-3.09375v2.07422l-1.00781 1.01953 1.00781 1.4961 1.84375-1.4961-1.84375-1.01953v-2.07422l2.4961-1.34765 1.9453-1.94532 2.3711 1.94532-.11328 4.4414-.69922 4.4375-.60937 4.4375-.94922.96094-1.15625-.96094-3.28516-4.13281-.25781-.30469"/><path fill="#00e8fc" fill-rule="evenodd" d="M254.95703 428.5664l-1.00781-1.49609 1.00781-1.01953 1.84375 1.01953-1.84375 1.4961"/><path fill="#50fcfc" fill-rule="evenodd" d="M265.26953 431.50781l-.26562-4.4375 3.26953-2.54687 4.4375-1.26563 4.4414-.39062 4.4375.25 2.11329-.48828 2.32421-2.63282 4.41016-1.80468.02734-.01954.0547.01954 4.3828.42187 4.44141.3164v1.5547l-4.4414.23046-4.4375-.05468-2.85157 1.96875-1.58594 2.16015-4.4375-.71094-4.4375-.35156-4.4414.53516-4.1875 2.8086-.25 3.40624-.14063 1.03125.14063.1289 4.4375.60548 4.4414 1.4961 2.72657 2.20702 1.71093 1.75781 4.4375.28516 4.4375-1.86719.17188-.17578 2.60547-4.4375 1.66015-3.17578 4.44141 1.80469 4.4375.47656 3.05078-3.54297 1.01563-4.4414-4.06641-.96875-4.4375-1.17579v-1.55468l4.4375.58203 2.75-1.32031 1.6875-2.57032 4.4375.01172v3.01563l-4.35547 3.98047 4.35547 2.97265 3.7461-2.97265-3.7461-3.98047v-3.01563l4.4414-.27734 4.4375-.48828v2.15234l-3.4375 1.17188 3.4375 3.625 3.29298.8125 1.14453.11328.23046-.11328-.23046-.19141-2.8086-4.2461-1.6289-1.17187v-2.15234l4.4375 2.70312.55859.6211 3.8789 2.92578 4.4375-2.76953v2.26562l-2.35937 2.01563 2.35938 1.58203 2.22265-1.58203-2.22265-2.01563v-2.26562l3.6328-.15625.8086-.1172.14844.1172 4.28906 2.1914 2.45313 2.2461 1.98437.41796 4.4375 2.60938 4.4414-1.98438 1.19923-1.04296 3.23828-2.79297v3.03906l-4.4375 4.1914-.0039.00391-4.4375 1-1.0625-1-3.375-2.89062-4.39844 2.89062 2.34375 4.4375-.57422 4.4375 2.6289 2.67188 2.34375 1.76562 2.09375 2.05469 4.4414-1.19531 4.4375-.16406.70704-.69532-.70703-2.27734-.1836-2.16016.1836-.77344 4.4375.7422 3.22656-4.40626.96485-4.4375-4.19141-4.17969-4.4375-.01562v-3.03906l4.4375.38672 2.28125 2.40625 2.15625 2.1289 2.90234 2.3125 1.53516 3.53906 4.4414-.67968v2.3125l-3.42187 3.70312 2.05078 4.4375-3.07031 4.3125-.09766.125-1.51562 4.4414 1.61328 3.32813.41406 1.10938 4.02735 4.30469.80859.1328 3.6289 3.01173 2.81641-3.01172 1.6211-.84766.14453.84766.23437 4.4375 4.0586 3.9375 4.4375-.25781 4.4414.30468 4.4375.00782 4.4375-.4961 4.4375-.89453 4.4414-.2539 2.2461-2.34766 2.1914-2.57031 2.52344-1.8672-.17578-4.4375-2.34765-3.45312-4.4375-.92187-.20703-.0625-4.23438-3.21094-4.4375 2.04688-2.32031-3.27735-2.11719-2.04297-3.16406-2.39453-1.27344-1.35937-2.8711-3.07813-1.5703-1.10937-2.79297 1.10937-1.64454.30078-4.4375.10938-.17578-.41016-4.26171-3.4961-4.4375-.20702v-2.3125l4.4375 1.21094.37109.36718 4.0664 1.92188 4.4375.125 4.4375-1.34766 4.44141 2.42578 1.35547 1.3125 3.08203 3.41797 4.4375 4.07813 2.57422 1.3789 1.86328.16406 4.4414.59375 1.29688-.7578 3.14063-1.95313 1.86719 1.95312.76171 4.4414 1.22266 4.4375.58594 3.08595.82812-3.08594 3.60938-3.41016 1.90625-1.02734 2.53125-2.53906 1.25-1.90235 3.1914-3.44531 4.4375-.14844v1.53125l-4.4375 1.26172-.74609.80078-2.85547 4.4414-.83984 1.33985-4.4375 1.69922-1.47656 1.39844 1.47656 3.02734 4.4375-1.60547 2.67578-1.42187 1.76562-1.16406 4.4375-.51172 2.7422-2.76172-.55079-4.4414-2.1914-2.0625v-1.53126l3.8203 3.59375.03907 4.4414-3.85938 3.88673-2.17187.55078-2.26563 1.9961-4.4414 1.34765-2.02735 1.09375-2.41015 2.26172-4.4375-1.14844-4.4375 2.46094-.73828.86328-3.69922 3.86719-4.4414-.05079-4.4375.29688-4.4375.23438-4.4375-.0547-4.44142-.12109-3.7539.26954-.6836.58203-1.0078-.58204-3.4297-2.1953-4.4375.46093-3.14843-2.70703-1.28906-1.17969-2.57813-3.25781-1.86328-2.15625-2.29297-2.28125-1.0664-4.4375.5703-4.4414 2.78907-3.48829.67578-.94922-.52734-4.4375-.14844-2.85547-4.4375-.8164-1.3711 3.67187-3.0664 2.71485-1.4336 1.72265-3.0039 2.94531-4.4375.0625-4.4414.48047-4.19923.94922-.23828.24219-.23828-.24219.23828-.26172.8789-4.17578-.8789-.66015-3.71484-3.77735.20312-4.4375-.92578-1.7539-2.78906-2.6836-1.64844-3.73828-4.4414 2.65235-4.4375-2.23047-4.4375 1.64843-4.4375-.16796-4.4375-.48047-4.44141 2.17578-4.4375-1.42969-.47656 1.57031-3.08985 4.4375-.87109.9375-.94531-.9375-3.49219-.5-4.4414-.76562-.66016 1.26562-.9961 4.4375-2.78125 2.85547-4.4375.69531-4.4375-.0664-3.38671-3.48438-1.05079-.85156-4.4414-.61719-4.4375-.23437-3.0039-2.73438"/><path fill="#00e8fc" fill-rule="evenodd" d="M268.27344 431.63672l-.14063-.1289.14063-1.03126.25-3.40625 4.1875-2.8086 4.4414-.53515v1.42578l-4.4414.78516-1.6914 1.13281 1.6914 2.03125 4.4414 2.36328.02735.04297 4.41015 3.67578 4.4375.23829 4.4375-2.09766 1.11329-1.8164-1.11329-1.76563-4.4375-1.16406-2.01562-1.50782-2.42188-1.39062-4.4375-.52735v-1.42578l4.4375.35156 4.4375.71094 1.58594-2.16015 2.85156-1.96875v6.3203l-.14843.08985.14843.02344.10547-.02344-.10547-.08984v-6.32031l4.4375.05468 4.44141-.23046v2.74609l-2.8789 3.83984 2.8789 1.61328 4.4375.16797 1.53516-1.78125-1.53516-2.58203-4.4375-1.25781v-2.7461l4.4375 1.17579 4.0664.96875-1.01562 4.4414-3.05078 3.54297-4.4375-.47656-4.4414-1.80469-1.66016 3.17578-2.60547 4.4375-.17188.17578-4.4375 1.8672-4.4375-.28517-1.71093-1.7578-2.72657-2.20704-4.4414-1.4961-4.4375-.60546"/><path fill="#00d4fc" fill-rule="evenodd" d="M272.71094 429.10156l-1.6914-2.03125 1.6914-1.13281 4.4414-.78516v1.4297l-2.28515.48827 2.28515 1.11719 2.38672 3.32031 2.05078 1.71094 4.4375-.59375 2.42188-1.11719-2.42188-.83594-4.4375-3.01953-1.23828-.58203-3.19922-.48828v-1.42969l4.4375.52735 2.42188 1.39062 2.01562 1.50781 4.4375 1.16407 1.11329 1.76562-1.11329 1.8164-4.4375 2.09767-4.4375-.23829-4.41015-3.67578-.02735-.04297-4.4414-2.36328"/><path fill="#00c4fc" fill-rule="evenodd" d="M277.15234 428.1875l-2.28515-1.11719 2.28515-.48828 3.19922.48828 1.23828.58203 4.4375 3.01954 2.42188.83593-2.42188 1.11719-4.4375.59375-2.05078-1.71094-2.38672-3.32031"/><path fill="#50fcfc" fill-rule="evenodd" d="M290.46484 426.98047l-.14843.08984.14843.02344.10547-.02344-.10547-.08984m4.4375 19.74219l-2.53906-1.90235 2.53906-1.91797 2.85938 1.91797-2.85938 1.90235"/><path fill="#00d4fc" fill-rule="evenodd" d="M299.34375 428.6836l-2.8789-1.61329 2.8789-3.83984v3.44531l-.29297.39453.29297.16406 4.4375-.14843.01563-.01563-.01563-.02734-4.4375-.36719v-3.44531l4.4375 1.25781 1.53516 2.58203-1.53516 1.78125-4.4375-.16797"/><path fill="#00c4fc" fill-rule="evenodd" d="M299.34375 427.23438l-.29297-.16407.29297-.39453 4.4375.36719.01563.02734-.01563.01563-4.4375.14844"/><path fill="#50fcfc" fill-rule="evenodd" d="M303.78125 452.03906l-2.63672-2.77734 2.63672-2.60156 2.4414 2.60156-2.4414 2.77734m0 11.15235l-.8789-.6172.8789-2.16796 4.4375-1.95313 3.1836 4.1211-3.1836 2.26172-4.4375-1.64453"/><path fill="#00e8fc" fill-rule="evenodd" d="M312.65625 425.60156l-4.35547-2.97265 4.35547-3.98047v2.96875l-1.10938 1.01172 1.10938.7578.95703-.7578-.95703-1.01172v-2.96875l3.7461 3.98047-3.7461 2.97265"/><path fill="#00d4fc" fill-rule="evenodd" d="M312.65625 423.38672l-1.10938-.75781 1.10938-1.01172.95703 1.01172-.95703.7578"/><path fill="#00e8fc" fill-rule="evenodd" d="M321.53516 421.8164l-3.4375-3.625 3.4375-1.17187 1.6289 1.17188 2.8086 4.24609.23046.1914-.23046.11329-1.14454-.11328-3.29296-.8125m13.3125 2.39453l-2.35938-1.58203 2.35938-2.01563 2.22265 2.01563-2.22265 1.58203m11.26171 7.29687l-2.34375-4.4375 4.39844-2.89062 3.375 2.89062 1.0625 1 4.4375-1 .0039-.0039 4.4375-4.19141 4.4375.01563v1.29296l-4.4375 1.03516-1.95702 1.85156-2.48047.95313-4.4414 2.1211-3.26954-3.07423-1.16797-1.0039-1.52344 1.0039 1.52344 3.44922.83203.98828-.83203 1.11719-.8164 3.32031.8164.83203 4.4375 3.45313 4.4414-.72656 3.20704-3.5586 1.03125-4.4375.19922-.79297 1.21875.79297 3.21875 1.375 1.00781-1.375 1.88672-4.4375-2.89453-2.88672v-1.29296l4.1914 4.17968-.96484 4.4375-3.22656 4.40625-4.4375-.74219-.1836.77344.1836 2.16016.70703 2.27734-.70703.69531-4.4375.16407-4.4414 1.19531-2.09376-2.05469-2.34375-1.76562-2.6289-2.67188.57421-4.4375"/><path fill="#00d4fc" fill-rule="evenodd" d="M348.16406 430.51953l-1.52344-3.44922 1.52344-1.0039 1.16797 1.0039 3.26953 3.07422 4.4414-2.1211v.95313l-3.93358 2.53125-.50782.45313-3.75 3.98437 3.75 3.21485 4.4414-.8125 2.16407-2.40235.91016-4.4375-3.07422-2.53125v-.95312l2.48047-.95313 1.95703-1.85156 4.4375-1.03516v1.29688l-3.78516 1.58984 3.78516 3.07031 1.59375-3.0703-1.59375-1.58985v-1.29688l2.89453 2.88672-1.88672 4.4375-1.00781 1.375-3.21875-1.375-1.21875-.79297-.19922.79297-1.03125 4.4375-3.20703 3.5586-4.4414.72656-4.4375-3.45313-.81641-.83203.8164-3.32031.83203-1.11719-.83203-.98828"/><path fill="#00c4fc" fill-rule="evenodd" d="M352.60156 439.16016l-3.75-3.21485 3.75-3.98437.50781-.45313 3.9336-2.53125v.95313l-2.44922 1.57812-1.99219 1.77735-2.5039 2.66015 2.5039 2.14453 4.4414-.90234 1.1172-1.24219.79687-4.4375-1.91406-1.57812v-.95313l3.07422 2.53125-.91016 4.4375-2.16406 2.40235-4.4414.8125"/><path fill="#00b8fc" fill-rule="evenodd" d="M352.60156 438.08984l-2.5039-2.14453 2.5039-2.66015 1.99219-1.77735 2.44922-1.57812v.95703l-.96485.6211-3.47656 3.10546-1.2539 1.33203 1.2539 1.07422 4.4414-.99219.07423-.08203.67969-4.4375-.75391-.6211v-.95702l1.91406 1.57812-.79687 4.4375-1.1172 1.24219-4.4414.90234"/><path fill="#00a8fc" fill-rule="evenodd" d="M352.60156 437.01953l-1.2539-1.07422 1.2539-1.33203v1.32422l-.0039.00781.0039.0039.02344-.0039-.02344-.00781v-1.32422l3.47656-3.10547.96485-.6211.7539.6211-.67968 4.4375-.07422.08203-4.4414.9922"/><path fill="#009800" fill-rule="evenodd" d="M352.60156 435.94922l-.0039-.0039.0039-.00782.02344.00781-.02344.0039"/><path fill="#00c4fc" fill-rule="evenodd" d="M365.91797 430.14063l-3.78516-3.07032 3.78516-1.58984v1.29297l-.70313.29687.70313.5664.29687-.5664-.29687-.29687v-1.29297l1.59375 1.58984-1.59375 3.07031"/><path fill="#00b8fc" fill-rule="evenodd" d="M365.91797 427.63672l-.70313-.5664.70313-.29688.29687.29687-.29687.5664"/><path fill="#00e8fc" fill-rule="evenodd" d="M374.79297 452.58984l-1.61328-3.32812 1.51562-4.4414.09766-.125 3.07031-4.3125-2.05078-4.4375 3.42188-3.70313v1.57422l-1.96485 2.1289 1.96485 2.98438 1.6914 1.45312-1.6914 2.59375-1.4375 1.84375-2.07422 4.4414 1.71093 4.4375 1.80079 1.92579 2.74609-1.92578 1.6914-1.8164 4.4375.54687.35157 1.26953.79297 4.4375.1953 4.4375 3.09767 3.0039 4.4375-.14062 4.4414.60938 4.4375-.07813 4.4375-.92578 4.4375-1.89063 3.51563-.57812.92578-.16406 3.76562-4.27344.61719-4.4375-4.38281-3.67188-2.55469-.76562-1.88672-1.42969-2.17969 1.42969-2.2578.9336-4.4375-.26563-2.60157-.66797-1.83594-1-2.26953-3.4414-.79297-4.4375-1.3789-1.4336-4.4375-.67188-3.89063 2.10547-.54688.9336-.53515-.9336-1.67969-4.4375-2.22265-1.82422-4.4375-.30468v-1.57422l4.4375.20703 4.26171 3.4961.17579.41015 4.4375-.10938 1.64453-.30078 2.79296-1.10937 1.57032 1.10937 2.8711 3.07813 1.27343 1.35937 3.16406 2.39453 2.11719 2.04297 2.32031 3.27735 4.4375-2.04688 4.23438 3.21094.20703.0625 4.4375.92187 2.34765 3.45313.17579 4.4375-2.52344 1.86719-2.1914 2.5703-2.2461 2.34767-4.4414.2539-4.4375.89453-4.4375.4961-4.4375-.00782-4.44142-.30468-4.4375.2578-4.05859-3.9375-.23437-4.4375-.14454-.84765-1.62109.84766-2.8164 3.01172-3.62891-3.01172-.8086-.13281-4.02734-4.3047-.41406-1.10937"/><path fill="#00d4fc" fill-rule="evenodd" d="M377.4336 453.69922l-1.71094-4.4375 2.07421-4.4414 1.4375-1.84376v3.78906l-1.42578 2.4961 1.42579 3.46484 3.14843-3.46484-3.14844-2.4961v-3.78906l1.69141-2.59375-1.6914-1.45312-1.96485-2.98438 1.96485-2.1289v1.57812l-.50782.55078.50781.77344 4.27344 3.66406.16406.16406v2.58985l-2.58203 1.6836 2.58204 2.10546 2.40234-2.10547-2.40235-1.6836v-2.58983l.23047-.16407-.04687-4.4375-.1836-.15234-4.4375-.39844v-1.57812l4.4375.30468 2.22266 1.82422 1.67969 4.4375.53515.9336.54688-.9336 3.89063-2.10547v2.02735l-.14454.07812-1.68359 4.4375-2.21875 4.4414.86328 4.4375.89063 4.4375.15625 4.4375 2.13671 2.07423 4.4375-.03125 4.44141.91406 4.4375-.15625 4.4375-1.36328 2.9375-1.4375 1.5-1.70703 4.4414-.66406 1.82423-2.06641 1.71484-4.4375-3.53906-2.96485-4.4414-1.30468-4.4375 1.89062-4.4375 1.28906-4.4375 1.01172-2.11329-4.35937-2.32813-3.03906-2.53125-1.40235-1.64843-4.4375-.25781-.07812v-2.02735l4.4375.67188 1.3789 1.4336.79297 4.4375 2.26953 3.4414 1.83594 1 2.60156.66797 4.4375.26562 2.25781-.9336 2.1797-1.42968 1.88671 1.42969 2.55469.76562 4.38281 3.67188-.61719 4.4375-3.76562 4.27344-.92578.16406-3.51563.57812-4.4375 1.89063-4.4375.92578-4.4375.07813-4.4414-.60938-4.4375.14063-3.09766-3.00391-.19531-4.4375-.79297-4.4375-.35156-1.26953-4.4375-.54688-1.69141 1.8164-2.7461 1.92579-1.80078-1.92578"/><path fill="#00c4fc" fill-rule="evenodd" d="M379.23438 452.72656l-1.42579-3.46484 1.42579-2.4961 3.14843 2.4961-3.14844 3.46484m0-16.00781l-.5078-.77344.5078-.55078 4.4375.39844.1836.15234.04687 4.4375-.23046.16406-.16407-.16406-4.27344-3.66406"/><path fill="#00e8fc" fill-rule="evenodd" d="M383.67188 443.13672l-2.58204 1.6836 2.58204 2.10546 2.40234-2.10547-2.40235-1.6836"/><path fill="#00c4fc" fill-rule="evenodd" d="M389.36328 453.69922l-.86328-4.4375 2.21875-4.4414 1.6836-4.4375.14452-.07813.25782.07812 1.64844 4.4375 2.53125 1.40235v3.17968l-4.4375.79688-2.28125 3.5.98828 4.4375.11718 4.4375 1.17579 1.14062 4.4375.08594 4.4414 1.21875 4.4375-.24219 4.4375-1.79296.83594-.41016 3.60156-4.10156 3.08594-.33594 1.35547-.08594 2.69531-4.35156-2.69531-2.25781-4.4414-1.14063-4.4375 2.14063-2.89845 1.2578-1.53906.52345-4.4375.28906-1.14062-.8125-3.30079-4.29688v-3.17968l2.32813 3.03906 2.11328 4.35937 4.4375-1.01171 4.4375-1.28907 4.4375-1.89062 4.4414 1.30469 3.53907 2.96484-1.71484 4.4375-1.82422 2.0664-4.4414.66407-1.5 1.70703-2.9375 1.4375-4.4375 1.36328-4.4375.15625-4.44142-.91406-4.4375.03125-2.13671-2.07422-.15625-4.4375-.89063-4.4375"/><path fill="#00b8fc" fill-rule="evenodd" d="M391.2539 458.13672l-.98827-4.4375 2.28125-3.5 4.4375-.79688v1.50391l-4.4375.67578-1.37891 2.11719 1.08594 4.4375.07812 4.4375.21485.21094 4.4375.1953 4.4414 1.52345 4.4375-.32422 3.6289-1.60547.8086-2.08985 1.95703-2.34765 2.48047-1.01172 4.4414-.4375 1.85157-2.98828-1.85156-1.55078-4.4414-.98047-4.4375 2.39844-.3047.1328-4.1328 1.41017-4.4375.22656-2.29688-1.63672-2.14454-2.79297v-1.5039l3.30079 4.29687 1.14062.8125 4.4375-.28906 1.53906-.52344 2.89844-1.25781 4.4375-2.14063 4.4414 1.14063 2.69532 2.2578-2.69531 4.35157-1.35547.08594-3.08594.33594-3.60156 4.10156-.83594.41015-4.4375 1.79297-4.4375.2422-4.4414-1.21876-4.4375-.08594-1.17579-1.14062-.11718-4.4375"/><path fill="#00a8fc" fill-rule="evenodd" d="M392.2539 458.13672l-1.08593-4.4375 1.3789-2.11719 4.4375-.67578v1.50781l-4.4375.55469-.47656.73047.47656 1.89453.7461 2.54297 3.6914 3.8789.6875.5586 3.75391 1.41797 4.4375-.40625 2.28125-1.01172 1.63281-4.4375-3.91406-2.14063-4.4375.16407-3.45312-2.46094-.98829-1.28516v-1.50781l2.14454 2.79297 2.29687 1.63672 4.4375-.22656 4.13281-1.41016.3047-.13281 4.4375-2.39844v.86719l-3.03517 1.66406 3.03516 2.25 4.4414-.625 1.00391-1.625-1.0039-.84375-4.4414-.82031v-.8672l4.4414.98048 1.85156 1.55078-1.85156 2.98828-4.4414.4375-2.48048 1.01172-1.95703 2.34765-.8086 2.08985-3.6289 1.60547-4.4375.32422-4.4414-1.52344-4.4375-.19531-.21485-.21094-.07812-4.4375"/><path fill="#009800" fill-rule="evenodd" d="M392.54688 455.59375l-.47657-1.89453.47656-.73047 4.4375-.55469v1.52735l-2.64062 4.1953 2.64063 2.77345 2.05078 1.66406 2.39062.90234 4.4375-.48828.9336-.41406 1.35937-4.4375-2.29297-1.2539-4.4375.10156-4.4414-3.04297v-1.52735l.98828 1.28516 3.45312 2.46094 4.4375-.16407 3.91406 2.14063-1.6328 4.4375-2.28126 1.01172-4.4375.40625-3.7539-1.41797-.6875-.5586-3.69141-3.8789-.7461-2.54297"/><path fill="#00ac00" fill-rule="evenodd" d="M396.98438 460.91016l-2.64063-2.77344 2.64063-4.19531v1.67187l-1.58594 2.52344 1.58594 1.66797 3.41015 2.76953 1.03125.39062 3.15235-.39062 1.28515-1.89453.66797-2.54297-.66797-.36719-4.4375.03906-4.4414-2.1953v-1.67188l4.4414 3.04296 4.4375-.10156 2.29297 1.2539-1.35938 4.4375-.93359.41407-4.4375.48828-2.39062-.90234-2.05079-1.66406"/><path fill="#00c800" fill-rule="evenodd" d="M396.98438 459.80469l-1.58594-1.66797 1.58594-2.52344 4.4414 2.19531 4.4375-.03906.66797.36719-.66797 2.54297-1.28515 1.89453-3.15235.39062-1.03125-.39062-3.41015-2.76953"/><path fill="#009800" fill-rule="evenodd" d="M414.73828 455.94922l-3.03515-2.25 3.03515-1.66406v.87109l-1.44922.79297 1.44922 1.07422 4.4414-.8125.16016-.26172-.16015-.13672-4.4414-.65625v-.8711l4.4414.82032 1.0039.84375-1.0039 1.625-4.4414.625"/><path fill="#00ac00" fill-rule="evenodd" d="M414.73828 454.77344l-1.44922-1.07422 1.44922-.79297 4.4414.65625.16016.13672-.16015.26172-4.4414.8125"/><path fill="#00e8fc" fill-rule="evenodd" d="M432.49219 456.72656l-1.47656-3.02734 1.47656-1.39844 4.4375-1.69922.83984-1.33984 2.85547-4.4414.7461-.80079 4.4375-1.26172v3.35156l-3.25391 3.15235 3.2539.88281.87891-.88281-.8789-3.15235v-3.35156l2.1914 2.0625.55078 4.4414-2.74219 2.76173-4.4375.51172-1.76562 1.16406-2.67578 1.42187-4.4375 1.60547"/><path fill="#00d4fc" fill-rule="evenodd" d="M445.8086 450.14453l-3.25391-.88281 3.2539-3.15235.87891 3.15235-.8789.88281"/><path fill="#50fcfc" fill-rule="evenodd" d="M445.8086 436.98438l-1.02344-1.03907 1.02343-.90234.95704.90234-.95704 1.03906"/><g clip-path="url(#c)"><path fill="#fff" fill-opacity="0" fill-rule="evenodd" d="M467.9961 480.32813H468V311.67188h-.0039H468v168.65625h-.0039"/></g><path fill="#fff" fill-opacity="0" fill-rule="evenodd" d="M296.07031 441.3789l2.78516-5.13671-8.75781-4.7461-2.78516 5.13672 8.75781 4.7461"/><path fill-rule="evenodd" d="M290.59375 434.42969l.24219-.44922 5.53515 3-.375.6914-3.94921-2.14062-.66016 1.22266-.48828-.26563.20703-.52344.07422-.24609.03125-.2461-.02735-.24609-.10156-.25-.1914-.26562-.29688-.28125"/><path fill="#fff" fill-opacity="0" fill-rule="evenodd" d="M320.09375 419.28516l4.4961 3.73046 6.35937-7.66796-4.4961-3.73047-6.35937 7.66797"/><path fill-rule="evenodd" d="M327.97656 415.26172l.39063.32812-4.01563 4.84375-.60547-.5 2.86329-3.45703-1.07032-.88672.35547-.42968.47266.30859.23047.1211.23437.07812.2461.01953.26562-.05078.29688-.13672.33593-.23828"/><path fill="#fff" fill-opacity="0" fill-rule="evenodd" d="M440.8086 444.76172l5.46484 2.0625 3.51562-9.32031-5.46484-2.0625-3.51563 9.3203"/><path fill-rule="evenodd" d="M446.94922 438.39063l.47656.17968-2.21875 5.89063-.73828-.27735 1.58594-4.19921-1.30078-.4922.1953-.51952.54688.13671.25782.03907.24609-.0039.23828-.0586.23828-.13672.23438-.22266.23828-.33594"/><g clip-path="url(#d)"><path fill="none" stroke="#000" stroke-linecap="round" stroke-linejoin="round" stroke-miterlimit="10" stroke-width=".5" d="M147.28906 479.09766l-6.57812 2.46484"/></g><g clip-path="url(#e)"><path fill="none" stroke="#000" stroke-linecap="round" stroke-linejoin="round" stroke-miterlimit="10" stroke-width=".5" d="M146.33203 479.45313l.92188.8125"/></g><g clip-path="url(#f)"><path fill="none" stroke="#000" stroke-linecap="round" stroke-linejoin="round" stroke-miterlimit="10" stroke-width=".5" d="M160.54688 478.95313l-6.46485 2.7539"/></g><g clip-path="url(#g)"><path fill="none" stroke="#000" stroke-linecap="round" stroke-linejoin="round" stroke-miterlimit="10" stroke-width=".5" d="M159.60547 479.35156l.95703.77344"/></g><g clip-path="url(#h)"><path fill="none" stroke="#000" stroke-linecap="round" stroke-linejoin="round" stroke-miterlimit="10" stroke-width=".5" d="M174.07422 479.64063l-6.89063 1.3789"/></g><g clip-path="url(#i)"><path fill="none" stroke="#000" stroke-linecap="round" stroke-linejoin="round" stroke-miterlimit="10" stroke-width=".5" d="M173.07422 479.83984l.77734.94922"/></g><g clip-path="url(#j)"><path fill="none" stroke="#000" stroke-linecap="round" stroke-linejoin="round" stroke-miterlimit="10" stroke-width=".5" d="M187.45703 480.4336l-7.02344-.21094"/></g><g clip-path="url(#k)"><path fill="none" stroke="#000" stroke-linecap="round" stroke-linejoin="round" stroke-miterlimit="10" stroke-width=".5" d="M186.4336 480.40234l.54296 1.10157"/></g><g clip-path="url(#l)"><path fill="none" stroke="#000" stroke-linecap="round" stroke-linejoin="round" stroke-miterlimit="10" stroke-width=".5" d="M200.69531 481.0625l-6.8711-1.46875"/></g><g clip-path="url(#m)"><path fill="none" stroke="#000" stroke-linecap="round" stroke-linejoin="round" stroke-miterlimit="10" stroke-width=".5" d="M199.69531 480.84766l.33594 1.17968"/></g><g clip-path="url(#n)"><path fill="none" stroke="#000" stroke-linecap="round" stroke-linejoin="round" stroke-miterlimit="10" stroke-width=".5" d="M214.08984 480.375l-7.02734-.09375"/></g><g clip-path="url(#o)"><path fill="none" stroke="#000" stroke-linecap="round" stroke-linejoin="round" stroke-miterlimit="10" stroke-width=".5" d="M213.0664 480.35938l.5625 1.09375"/></g><g clip-path="url(#p)"><path fill="none" stroke="#000" stroke-linecap="round" stroke-linejoin="round" stroke-miterlimit="10" stroke-width=".5" d="M227.3711 479.86328l-6.96485.92969"/></g><g clip-path="url(#q)"><path fill="none" stroke="#000" stroke-linecap="round" stroke-linejoin="round" stroke-miterlimit="10" stroke-width=".5" d="M226.35938 480l.71484.9961"/></g><g clip-path="url(#r)"><path fill="none" stroke="#000" stroke-linecap="round" stroke-linejoin="round" stroke-miterlimit="10" stroke-width=".5" d="M240.66797 479.72266l-6.92188 1.21484"/></g><g clip-path="url(#s)"><path fill="none" stroke="#000" stroke-linecap="round" stroke-linejoin="round" stroke-miterlimit="10" stroke-width=".5" d="M239.66016 479.89844l.7539.96875"/></g><g clip-path="url(#t)"><path fill="none" stroke="#000" stroke-linecap="round" stroke-linejoin="round" stroke-miterlimit="10" stroke-width=".5" d="M254.02734 480.11328l-7.01562.42969"/></g><g clip-path="url(#u)"><path fill="none" stroke="#000" stroke-linecap="round" stroke-linejoin="round" stroke-miterlimit="10" stroke-width=".5" d="M253.00781 480.17578l.64063 1.04688"/></g><g clip-path="url(#v)"><path fill="none" stroke="#000" stroke-linecap="round" stroke-linejoin="round" stroke-miterlimit="10" stroke-width=".5" d="M267.2539 481.13672l-6.83593-1.61719"/></g><g clip-path="url(#w)"><path fill="none" stroke="#000" stroke-linecap="round" stroke-linejoin="round" stroke-miterlimit="10" stroke-width=".5" d="M266.26172 480.90234l.3086 1.1875"/></g><g clip-path="url(#x)"><path fill="none" stroke="#000" stroke-linecap="round" stroke-linejoin="round" stroke-miterlimit="10" stroke-width=".5" d="M280.60156 480.98438l-6.90234-1.3125"/></g><g clip-path="url(#y)"><path fill="none" stroke="#000" stroke-linecap="round" stroke-linejoin="round" stroke-miterlimit="10" stroke-width=".5" d="M279.59766 480.79297l.36328 1.17187"/></g><g clip-path="url(#z)"><path fill="none" stroke="#000" stroke-linecap="round" stroke-linejoin="round" stroke-miterlimit="10" stroke-width=".5" d="M293.67578 481.75781l-6.41797-2.85937"/></g><g clip-path="url(#A)"><path fill="none" stroke="#000" stroke-linecap="round" stroke-linejoin="round" stroke-miterlimit="10" stroke-width=".5" d="M307.16016 481.28906l-6.75782-1.92187"/></g><g clip-path="url(#B)"><path fill="none" stroke="#000" stroke-linecap="round" stroke-linejoin="round" stroke-miterlimit="10" stroke-width=".5" d="M306.17578 481.01172l.25781 1.19922"/></g><g clip-path="url(#C)"><path fill="none" stroke="#000" stroke-linecap="round" stroke-linejoin="round" stroke-miterlimit="10" stroke-width=".5" d="M320.60938 480.28516l-7.02735.08593"/></g><g clip-path="url(#D)"><path fill="none" stroke="#000" stroke-linecap="round" stroke-linejoin="round" stroke-miterlimit="10" stroke-width=".5" d="M332.35547 477.40234l-3.88672 5.85547"/></g><g clip-path="url(#E)"><path fill="none" stroke="#000" stroke-linecap="round" stroke-linejoin="round" stroke-miterlimit="10" stroke-width=".5" d="M344.74219 476.96484l-2.03125 6.72657"/></g><g clip-path="url(#F)"><path fill="none" stroke="#000" stroke-linecap="round" stroke-linejoin="round" stroke-miterlimit="10" stroke-width=".5" d="M356.8711 476.82031l.33984 7.01953"/></g><g clip-path="url(#G)"><path fill="none" stroke="#000" stroke-linecap="round" stroke-linejoin="round" stroke-miterlimit="10" stroke-width=".5" d="M371.4375 476.98438l-2.16016 6.6875"/></g><g clip-path="url(#H)"><path fill="none" stroke="#000" stroke-linecap="round" stroke-linejoin="round" stroke-miterlimit="10" stroke-width=".5" d="M380.7539 482.28516l5.83594-3.91407"/></g><g clip-path="url(#I)"><path fill="none" stroke="#000" stroke-linecap="round" stroke-linejoin="round" stroke-miterlimit="10" stroke-width=".5" d="M395 477.42969l3.97266 5.79687"/></g><g clip-path="url(#J)"><path fill="none" stroke="#000" stroke-linecap="round" stroke-linejoin="round" stroke-miterlimit="10" stroke-width=".5" d="M411.21094 483.72266l-1.82031-6.78907"/></g><g clip-path="url(#K)"><path fill="none" stroke="#000" stroke-linecap="round" stroke-linejoin="round" stroke-miterlimit="10" stroke-width=".5" d="M427.03906 481.13281l-6.84375-1.60547"/></g><g clip-path="url(#L)"><path fill="none" stroke="#000" stroke-linecap="round" stroke-linejoin="round" stroke-miterlimit="10" stroke-width=".5" d="M426.04297 480.89844l.3125 1.1875"/></g><g clip-path="url(#M)"><path fill="none" stroke="#000" stroke-linecap="round" stroke-linejoin="round" stroke-miterlimit="10" stroke-width=".5" d="M440.44531 480.32813h-7.02734"/></g><g clip-path="url(#N)"><path fill="none" stroke="#000" stroke-linecap="round" stroke-linejoin="round" stroke-miterlimit="10" stroke-width=".5" d="M439.42188 480.32813L440 481.41015"/></g><g clip-path="url(#O)"><path fill="none" stroke="#000" stroke-linecap="round" stroke-linejoin="round" stroke-miterlimit="10" stroke-width=".5" d="M453.59766 481.39063l-6.69922-2.125"/></g><g clip-path="url(#P)"><path fill="none" stroke="#000" stroke-linecap="round" stroke-linejoin="round" stroke-miterlimit="10" stroke-width=".5" d="M452.6211 481.08203l.22265 1.20703"/></g><g clip-path="url(#Q)"><path fill="none" stroke="#000" stroke-linecap="round" stroke-linejoin="round" stroke-miterlimit="10" stroke-width=".5" d="M466.38281 482.42188l-5.64453-4.1875"/></g><g clip-path="url(#R)"><path fill="none" stroke="#000" stroke-linecap="round" stroke-linejoin="round" stroke-miterlimit="10" stroke-width=".5" d="M147.36328 466l-6.72656 2.02734"/></g><path fill="none" stroke="#000" stroke-linecap="round" stroke-linejoin="round" stroke-miterlimit="10" stroke-width=".5" d="M147.36328 466l1.73047 1.73828m11.69922-1.23437l-6.95313 1.01953m6.95313-1.01953l1.45312 1.97265m11.89063-1.22265l-7.01172-.48047m7.01172.48047l1 2.24218m12.28516-1.97656l-6.95313-1.01172m6.95313 1.01172l.82812 2.3086m12.39844-1.88672l-6.77735-1.85547m6.77735 1.85547l.53906 2.39453m12.89844-3.1875l-7.02344-.26953m6.0039.23047l.53126 1.10546m13.80468-1.07812l-7.02343-.2461m6 .21094l.53906 1.10156m13.78125-1.55078l-6.98828.72266m5.97265-.61719l.6836 1.01953m13.66406-.9414l-7.01953.35547m7.01953-.35547l1.25781 2.10937m12.0586-2.07031l-7.02344.27734m7.02344-.27734l1.23437 2.11719m12.04297-1.44922l-6.94922-1.0586m5.9375.90235l.40625 1.16015m13.76172-.37109l-6.63281-2.32422m5.66797 1.98828L293 469.05078m14.03125-.70703l-6.5039-2.66016m5.55859 2.27344l.125 1.21875m14.33203-2.84765l-6.89453 1.37109m5.89062-1.17188l.77735.94922m12.52343-3l-4.85937 5.07422m4.15234-4.33594l1.17969.33204m12.19922-1.5586l-3.57422 6.05078m3.05469-5.17187l1.22656.0586m13.08203-.60157l-4.51953 5.3789m3.86328-4.59765l1.19922.25781m12.76172-1.04687l-4.5 5.39453m3.84765-4.60938l1.19922.25m11.26563-1.76953l-1.49219 6.86328m1.27344-5.86719l1.1836-.33203m10.15234 5.96485l2.90234-6.39453m11.21875 6.65234l1.28906-6.91016m15.77735 5.09375l-6.21485-3.27734m5.3125 2.80078l.0039 1.22656m14.6211-2.41406l-7.02734.05078m6.0039-.04297l.58594 1.07813m12.41406 1.69922l-4.35156-5.51953m16.85547 5.99609l-2.72656-6.47266m2.32812 5.53125l-.77343.95313"/><g clip-path="url(#S)"><path fill="none" stroke="#000" stroke-linecap="round" stroke-linejoin="round" stroke-miterlimit="10" stroke-width=".5" d="M147.50781 453.90234l-7.01562-.41015"/></g><path fill="none" stroke="#000" stroke-linecap="round" stroke-linejoin="round" stroke-miterlimit="10" stroke-width=".5" d="M147.50781 453.90234l1.02344 2.23047m12.29688-2.44531l-7.02735.01953m7.02734-.01953l1.16016 2.16406m12.11719-1.63672l-6.94922-1.03515m6.94922 1.03515l.82031 2.3125m12.48438-2.2539l-6.9297-1.14844m6.9297 1.14844l.78515 2.32422m12.41016-1.82813l-6.6914-2.14062m6.6914 2.14062l.4375 2.41406m12.91797-2.54297l-6.76953-1.8828m5.78515 1.60937l.26172 1.19531m14.16406-1.96484l-7.02343.20312m7.02343-.20312l1.21485 2.1328m12.0625-2.5664l-6.94531 1.07031m6.9453-1.0703l1.46876 1.96484m11.86719-1.8047l-6.98829.75m6.98828-.75l1.375 2.03126m11.95704-1.65625h-7.02735m7.02735 0l1.15234 2.16406m12.15625-2.3711l-7.01172.41016m5.99219-.34765l.64062 1.04687m13.69532-.71094l-7.01563-.3828m5.9961.32812l.51562 1.11328m13.82031-1.0586l-7.01562-.38671m5.9961.33203l.51562 1.11328m13.75-1.96485l-6.87891 1.4297m5.8789-1.22266l.78516.9453m12.64844-2.84765l-5.11719 4.82032m4.3711-4.1172l1.16406.39063m11-2.13672l-1.32031 6.90235m1.1289-5.89844l1.17188-.35937m11.79687-.70313l-.2461 7.02344m.21095-6l1.10156-.53906m12.79297-.42188l-1.33594 6.89844m1.14453-5.89453l1.17188-.35938m9 .51563l5.33593 4.57422m-4.55859-3.90625l.26563-1.19922m11.51953 3.6328l6.83984-1.625m-5.84375 1.38673l-.8125-.91797m15.3789 3.65625l2.34766-6.625m-2.00781 5.66016l-1.21094.17968m15.60938.97657l-.5-7.00782m.42578 5.98828l-1.03906.65235m15.55859.09375l-2.76172-6.46094m2.35938 5.51953l-.76954.95703m12.1172.125l1.97656-6.74218m-1.97657 6.74218l-2.40234.4961m16.22656-.38672l.95703-6.96094m-.95703 6.96094l-2.30469.84375"/><g clip-path="url(#T)"><path fill="none" stroke="#000" stroke-linecap="round" stroke-linejoin="round" stroke-miterlimit="10" stroke-width=".5" d="M147.50781 440.55469l-7.01562-.34375"/></g><path fill="none" stroke="#000" stroke-linecap="round" stroke-linejoin="round" stroke-miterlimit="10" stroke-width=".5" d="M147.50781 440.55469l1.04688 2.22265m-2.0664-2.27343l.52343 1.11328m13.75781-.58985l-6.91016-1.28906m6.91016 1.28906l.73438 2.34375m-1.73828-2.53125l.36718 1.17188m13.73047-.2539l-6.46875-2.75m6.46875 2.75l.21484 2.4453m13.17579-2.63671l-6.6172-2.3672m6.6172 2.3672l.35547 2.42968m13.0664-2.79687l-6.83203-1.63281m6.83203 1.6328l.6211 2.375m12.78515-3.42968l-7.01172.48047m7.01172-.48047l1.29688 2.08203m12.0039-2.22265l-6.98437.7578m6.98437-.7578l1.3789 2.03125m11.94142-2.00391l-6.9922.70312m5.97266-.59765l.6836 1.01953m13.6289-1.29297l-6.94922 1.04297m5.9375-.89063l.73047.98438m13.42578-1.80469l-6.61328 2.375m5.65235-2.03125l.91015.82813m13.52735-.54297l-6.9336 1.1211m5.92578-.96095l.7422.98047m13.58984-1.08984l-6.95313 1.01953m5.9414-.8711l.72657.98829m13.49219-1.6289l-6.73438 2.0039m5.7539-1.71485l.86329.875m12.74219-2.4375l-5.35547 4.55079m4.57422-3.89063l1.14062.45313m12.05078-1.875l-3.54296 6.0703m3.02734-5.1875l1.22656.05079m11.80469-1.27344l-1.94922 6.75m1.66797-5.76953l1.19922-.25m10.76562-.80469l1.3164 6.90235m-1.125-5.89844l.95704-.76953m11.97656-.19531l1.69532 6.8203m-1.44922-5.82812l.91406-.8203m9.75 1.90624l6.5039 2.66406m-5.55468-2.27734l-.125-1.21875m12.3125 1.41016l6.86328 1.5078m-6.86328-1.5078l-.66016-2.36328m14.125 4.36718l6.5664-2.5m-6.5664 2.5l-1.84765-1.61328m2.80078 1.25l-.92188-.80469m15.01172 3.07032l3.10938-6.3047m-3.10938 6.3047l-2.45312.07422m17.17968.28515l.28516-7.02344m-.28516 7.02344l-2.21093 1.0625m15.11328-1.10547l1.10937-6.9375m-.94531 5.92969l-1.16016.39844m14.28125.60547l1.16797-6.9297m-1.16797 6.9297l-2.32422.77734"/><g clip-path="url(#U)"><path fill="none" stroke="#000" stroke-linecap="round" stroke-linejoin="round" stroke-miterlimit="10" stroke-width=".5" d="M147.51172 427.0586l-7.02344.01952"/></g><path fill="none" stroke="#000" stroke-linecap="round" stroke-linejoin="round" stroke-miterlimit="10" stroke-width=".5" d="M147.51172 427.0586l1.16016 2.16406m-2.1797-2.16016l.57813 1.08203m13.75-.82812l-7.01172-.4961m7.01172.4961l.9961 2.24609m12.30468-2.10547l-6.98437-.77734m6.98437.77734l.90625 2.28125m12.4297-2.71094l-7.02345.08204m7.02344-.08204l1.17969 2.15235m12.04687-2.90625l-6.84375 1.58984m6.84375-1.58984l1.61328 1.84765m11.78516-1.27343l-7.01172.4414m5.99219-.375l.64063 1.04297m13.42578.46875l-6.47657-2.71484m5.53516 2.32031l.11328 1.22266m14.14453-.82813l-6.48047-2.71484m5.53907 2.32031l.11328 1.21875m14.41797-2.21094l-7.02735.0586m6.0039-.05079l.58595 1.07813m13.72265-1.5l-6.96875.88672m5.95703-.75781l.70703 1m13.64063-.89844l-7.01172.42578m5.99219-.36328l.64062 1.04687m13.45313-2.1914l-6.53125 2.58984m5.58203-2.21484l.9336.79687m12.89843-1.95703l-5.66406 4.16016m17.14453-5.44922l-1.9961 6.73828m14.2422-6.88281l.14062 7.02734m-.11719-6.0039l1.07031-.59766m11.48438-.33203l1.61719 6.83984m-1.38282-5.84375l.92188-.8086m12.51953-.2539l.89453 6.97266m-.76562-5.95703l1.0039-.71094m9.32813 1.97265l6.60156 2.41797m6.95313.51563l6.12109-3.44922M381.5 428.29297l-1.03125-.66406m14.4961-3.4336l4.04296 5.7461m-4.04297-5.7461l1.10938-2.1875m11.02344 6.5039l6.40625-2.88671m-6.40625 2.88672l-1.94141-1.5039m16.22656 2.77343l4.46485-5.42578m-4.46485 5.42578l-2.40234-.48828m3.05469-.30078l-2.40625-.48828m15.52343 1.59375l3.5586-6.0586m-3.5586 6.0586l-2.45312-.10547m2.96875-.77735l-2.44922-.10156M450 430.57422l.49219-7.01172m-.42188 5.99219l-1.1211.4961m13.94923.46874l1.32812-6.90234m-1.32812 6.90234l-2.34766.72266"/><g clip-path="url(#V)"><path fill="none" stroke="#000" stroke-linecap="round" stroke-linejoin="round" stroke-miterlimit="10" stroke-width=".5" d="M147.48047 413.27344l-6.96094.96094"/></g><path fill="none" stroke="#000" stroke-linecap="round" stroke-linejoin="round" stroke-miterlimit="10" stroke-width=".5" d="M147.48047 413.27344l1.4375 1.98828m11.88672-1.90235l-6.98047.78907m6.98047-.78906l1.39062 2.02343m11.92578-2.03515l-6.98047.80859m6.98047-.8086l1.39453 2.01954m11.94141-1.61328h-7.02344m7.02344 0l1.15234 2.16797m12.01954-3.17188l-6.73438 2.00781m5.7539-1.71484l.85938.875m13.2461 1.33594l-6.35547-3m5.42969 2.5625l.05859 1.22656m11.5 1.1875l-.99219-6.95703m.84766 5.94531l-.99219.72266m13.39063.28125l1.1328-6.9375m-1.1328 6.9375l-2.32422.78515m18.7578-1.84375l-5.10937-4.82422m4.3672 4.125l-.32423 1.1836m15.23828-2.0586l-6.82422-1.67578m5.83204 1.4336l.30078 1.1875m13.86328-.48438l-6.53125-2.59375m5.57812 2.21484l.13672 1.21875m14.375-2.02343l-7.02343-.23047m6.0039.19922l.53906 1.10156m12.15625-4.15625l-3.74609 5.94531m3.20313-5.08203l1.22265.08984m14.24219 2.51954l-6.95703-1m13.45312 1.58984l6.67969-2.17969m-5.70703 1.86328l-.88281-.85156m15.40625-3.23828l2.3164 6.63281m-1.97656-5.66797l.83203-.90234m12.65625-.19922l1.29297 6.90625m-1.10547-5.90234l.95703-.76563m12.02344-.20703l1.58594 6.84375m-1.35547-5.84766l.92578-.80859m9.78516 1.71484l6.33593 3.03516m-6.33593-3.03516l-.10547-2.44921m14.10937 1.47656l4.95703 4.98437m-4.95703-4.98437l.72657-2.34375m-.00391 3.07031l.36328-1.17578m13.01172-.13672l3.39062 6.15625m-3.39062-6.15625l1.34375-2.05469m-.84766 2.94922l.66797-1.02734m10.94531 1.23047l5.8047 3.96093m-5.8047-3.96093l.26563-2.4375m14.83594 7.75l2.23047-6.66407m-2.23047 6.66407l-2.41797.40625m2.74219-1.375l-2.41797.40625m18.09375.3711l-3.14063-6.28517m2.6836 5.3711l-.71094 1m11.78125.09765l2.26562-6.65234m-1.9375 5.6875l-1.21093.19531"/><g clip-path="url(#W)"><path fill="none" stroke="#000" stroke-linecap="round" stroke-linejoin="round" stroke-miterlimit="10" stroke-width=".5" d="M147.30469 399.25l-6.60938 2.3789"/></g><path fill="none" stroke="#000" stroke-linecap="round" stroke-linejoin="round" stroke-miterlimit="10" stroke-width=".5" d="M147.30469 399.25l1.82031 1.64844m11.64844-1.08594l-6.91406 1.2539m6.91406-1.2539l1.51953 1.92578m11.70312-2.30078l-6.73437 2.0039m6.73437-2.0039l1.72266 1.7461m11.34766-2.36329l-6.2422 3.23438m5.33204-2.76172l1.01172.69531m13.54297-.21484l-6.90235 1.32812m13.64844.95703l6.23438-3.24218m8.71093 4.80468l2.97657-6.36328m-2.54297 5.4375l-1.22656.0625m14.90234 1.125l1.38672-6.89062m-1.1836 5.88672l-1.17578.35156m15.01953.72265l-.07812-7.02734m.0664 6.0039l-1.07421.58594m15.42187.27344l-2.11719-6.69922m1.8086 5.72266l-.85938.875m16.74219-2.09375l-6.63672-2.3125m5.67188 1.97656l.1875 1.21485m12.3125 1.125l-3.07422-6.32032m2.625 5.40235l-.72266.99219m14.24219-6.5l-2.58594 6.53515m2.21094-5.58594l1.21875-.13671m8.46484.22265l5.42969 4.46094m-4.64062-3.8125l.24218-1.19922m11.48828 2.94531l7.01954-.32812m-6 .28125l-.625-1.05469m14.05078-1.64844l4.7578 5.17188m-4.0664-4.41797l.40625-1.15625m11.21875 2.01953l6.7539 1.9414m-5.76952-1.66015l-.25781-1.19922m12.85937.25l6.21484 3.27735m-5.3125-2.80079l-.0039-1.22656m16.76953-.89844l-2.49219 6.57032m2.49219-6.57032l2.4336-.30859m-2.79688 1.26563l1.21484-.15625m11.07031-1.02344l.29297 7.01953m-.29297-7.01953l2.11329-1.24219m-2.07032 2.26172l1.05469-.6211m9.86328.64454l5.0039 4.93359m-5.0039-4.9336l.69922-2.35156m.02734 3.06641l.35157-1.17578m11.6875 1.1836l6.10156 3.48437m-6.10156-3.48438l.07422-2.45312m17.16015 7.60156l-1.73828-6.8086m1.73828 6.8086l-1.8164 1.65234m1.5625-2.64453l-1.81641 1.65235m17.32812-1.96094l-5.625-4.21094m5.625 4.21094l-.375 2.42578m14.125-3.1914l-6.49609-2.6797m6.4961 2.6797l.23828 2.4414"/><g clip-path="url(#X)"><path fill="none" stroke="#000" stroke-linecap="round" stroke-linejoin="round" stroke-miterlimit="10" stroke-width=".5" d="M147.19922 385.67188l-6.39844 2.90234"/></g><path fill="none" stroke="#000" stroke-linecap="round" stroke-linejoin="round" stroke-miterlimit="10" stroke-width=".5" d="M147.19922 385.67188l1.94531 1.49609m11.6836-.04297h-7.02735m7.02734 0l1.15235 2.16406m-2.17578-2.16406l.57812 1.08203m13-3.26953l-5.5039 4.3711m5.5039-4.3711l2.2461.98047m7.44922-2.19922l1.73437 6.8086m-1.48047-5.81641l.90625-.82813m9.57031 2.58203l6.90235 1.31641m-5.89844-1.125l-.36328-1.17188m12.72656 2.53125l6.79688-1.78515m-5.8086 1.52344l-.83203-.89844m20.07031.17578l-7.02343.1836m7.02343-.1836l1.20703 2.13672m12.10938-2.08985l-7.02734.08985m7.02734-.08985l1.17969 2.15235m12.11719-1.7461l-6.98829-.72265m6.98828.72265l.92188 2.27344M253 387.37891l.46094 1.13671m13.86328-1.79687l-6.98047.8086m6.98047-.8086l1.39453 2.02344m-2.41016-1.90625l.69922 1.01172m13.60547-1.32813l-6.92187 1.20703m6.92187-1.20703l1.50781 1.9336m11.66016-.17188l-6.63281-2.3164m6.63281 2.3164l.375 2.42578m12.88672-4.88281l-6.52735 2.59765m6.52735-2.59765l1.875 1.58594m11.15625-2.15235l-5.95703 3.73047m5.95703-3.73047l2.125 1.22656m9.73828-2.52343l-3.05469 6.32812m3.05469-6.32812l2.45312-.09766m12.51172 1.75781l-6.35156 3.00391m6.35156-3.0039l1.96875 1.46484m-2.89453-1.02735l.98438.73438m13.5664-.10156l-6.97265.86328m6.97265-.86328l1.41016 2.0078m-2.42578-1.8828l.70703 1.0039m12.9414-2.8164l-5.60546 4.23828m5.60547-4.23828l2.22265 1.03515m-3.03906-.41797l2.22656 1.03516m11.1211-2.41016L381.65234 390m4.03907-5.7539l2.43359.30468m-3.02344.53516l2.4375.30078m11.48047-1.1289l-4.0664 5.73046m4.0664-5.73047l2.4336.3164m-3.02344.51954l2.4336.3125m11.9453-.7461l-5.01562 4.92579m5.01562-4.92578l2.33985.74218m-3.07032-.02343l2.33985.73828m-3.07031-.02344l1.17187.3711m13.76953-1.625l-5.34375 4.5664m5.34375-4.5664l2.28125.89843m10.21875 4.36719l-3.71484-5.96485m3.71484 5.96485l-1.23437 2.125m.6914-2.99219l-1.23047 2.1211m16.07813-2.1797l-5.69531-4.11327m5.69531 4.11328l-.33203 2.42969m13.98437-3.00391l-6.37109-2.96485m6.3711 2.96485l.1328 2.44922m-1.05859-2.8789l.13281 2.44921"/><g clip-path="url(#Y)"><path fill="none" stroke="#000" stroke-linecap="round" stroke-linejoin="round" stroke-miterlimit="10" stroke-width=".5" d="M147.14063 372.23438l-6.28125 3.14843"/></g><path fill="none" stroke="#000" stroke-linecap="round" stroke-linejoin="round" stroke-miterlimit="10" stroke-width=".5" d="M147.14063 372.23438l2 1.42187m-2.91407-.96484l1 .71093m13.25-1.125l-6.32422 3.0625m6.32422-3.0625l1.98047 1.44532m9.63672-3.10938l-2.92578 6.39063m2.92578-6.39063l2.44922-.14453m11.29297.3789l-3.78125 5.92188m3.78125-5.92187l2.44531.1953m-2.9961.66407l1.22266.09766m13.24219-.47656l-4.98047 4.96093m4.98047-4.96094l2.34375.72266m-3.07031 0l1.17578.35938m13.88281 1.60937l-7.01562-.42187m7.01562.42187l1.01953 2.23047m-2.03906-2.29297l.50781 1.11719m13.83203-1.32031l-7.02343.10937m7.02343-.10937l1.1875 2.14843m11.78516-3.60937l-6.33984 3.03125m6.33984-3.03125l1.97266 1.46094m-2.89453-1.01954l.98828.73047m13.58984.51172l-7.01953-.33594m7.01953.33594l1.04688 2.21875m-2.07032-2.26953l1.04688 2.21875m13.27344-1.9414l-6.98438-.78907m6.98438.78906l.89843 2.28125m-1.91406-2.39453l.44922 1.14063m13.67187-2.67578l-6.5664 2.50781m6.5664-2.50781l1.84766 1.61328m-2.80469-1.25l1.85156 1.61328m12.61329-1.2461l-6.94922 1.04688m6.94922-1.04687l1.46093 1.97265m-2.47265-1.82031l1.46094 1.97266m12.3789-3.44922l-5.97656 3.69531m5.97656-3.69531l2.11719 1.23437m-2.98828-.69922l1.0625.6211m12.71094-1.69922l-5.15235 4.77734m5.15235-4.77734l2.3203.8086m-3.0703-.11329l2.3203.8086m11.4297-1.8047L328.15233 376.5m4.51954-5.38281l2.39843.51172m-3.0586.26953l2.40235.51172m12.71094.51562l-6.80078 1.76563m6.80078-1.76563l1.66016 1.80469m11.60546-1.98047l-6.69921 2.11719m6.69921-2.11719l1.75 1.71875m-2.72265-1.41016l1.75 1.71875M373.36719 372l-6.02344 3.61719M373.36719 372l2.10547 1.26172m-2.98047-.73828l2.10156 1.26562m11.51172-2.51562l-4.86719 5.07031m4.86719-5.07031l2.35937.67187m-3.0664.0664l2.35937.66798m11.42578-1.61328l-4.39453 5.48046m4.39453-5.48046l2.41407.46093m-3.05079.33985l2.41016.45703m12.46094-.13672l-6.23438 3.24219m6.23438-3.24219l2.02344 1.39063m-2.9297-.91797l2.01954 1.39062m-2.92578-.92187l1.01172.6953m14.46875-.57812l-6.9375 1.125m6.9375-1.125l1.48437 1.95313m-2.4961-1.78906l1.48438 1.95312m-2.49218-1.78906l.74218.97656m14.63672-.78125l-7.02734.07422m7.02734-.07422l1.17578 2.15625m-2.19921-2.14453l1.17578 2.15625m13.14453-1.78906l-6.99219-.67969m6.99219.67969l.9375 2.26953m-1.95313-2.36719l.46875 1.13281m12.83985 1.1211l-4.94532-4.99219m4.94532 4.99219l-.73047 2.34375"/><g clip-path="url(#Z)"><path fill="none" stroke="#000" stroke-linecap="round" stroke-linejoin="round" stroke-miterlimit="10" stroke-width=".5" d="M147.01953 358.69531l-6.03516 3.59766"/></g><path fill="none" stroke="#000" stroke-linecap="round" stroke-linejoin="round" stroke-miterlimit="10" stroke-width=".5" d="M147.01953 358.69531l2.09766 1.26953m-2.97656-.74609l1.04687.63281m12.66797-1.78515l-5.07813 4.85546m5.07813-4.85546l2.32812.76562m-3.0664-.0625l1.16406.38672m13.64844.125l-6.59766 2.42188m6.59766-2.42188l1.82812 1.63672m-2.78906-1.28516l1.82813 1.63672m11.58984-3.30469l-4.88281 5.0547m4.8828-5.0547l2.35548.67579m-3.0664.05859l1.17968.33984m12.8711-1.04687l-4.9336 5.0039m4.9336-5.0039l2.35155.69922m-3.0703.02734l2.35155.69922m12.26172-.67969l-6.08984 3.50781m6.08984-3.5078l2.07813 1.30468m-2.96484-.79297l2.07812 1.30469m12.17578-1.71875l-6.19531 3.3164m6.19531-3.3164l2.03906 1.36328m-2.9414-.88281l2.03906 1.36718m12.29297-1.61718l-6.42188 2.85546m6.42188-2.85546l1.92969 1.51171m11.10937-2.01171l-5.875 3.85156m5.875-3.85156l2.15234 1.17968m-3.0039-.61718l2.14844 1.17968m-3.00391-.62109l1.07422.58984m14.4375-.5664l-6.85156 1.5664m6.85156-1.5664l1.60547 1.85547m-2.60157-1.62891l1.60547 1.85547m12.73438-1.94922l-6.90625 1.29688m6.90625-1.29688l1.53125 1.91797m-2.53906-1.72656l1.53515 1.91406m12.61328-2.71875l-6.55859 2.52734m6.5586-2.52734l1.85156 1.60547m-2.8086-1.23828l.92969.80468m12.59766-2.34375l-5.07032 4.8672m5.07032-4.8672l2.32812.76563m-3.0664-.0586l1.16406.38282m12.57031-1.38281l-4.4336 5.45312m4.4336-5.45313l2.40625.47266m-3.05078.32031l1.20312.23829m13.26953-.51563l-5.46093 4.42188m5.46093-4.42188l2.25782.96094m-3.05078-.3164l2.2578.95702m-3.05468-.3125l1.13281.47656m14.27735-.92187l-6.47266 2.73438m6.47266-2.73438l1.90625 1.54688M360.51953 360l-6.95703.98828M360.51953 360l1.44531 1.98438m-2.45703-1.83985l.72266.98828m13.4414-1.80078l-6.6328 2.32422m6.6328-2.32422l1.8047 1.66016m-2.76954-1.32422l1.80469 1.66406m-2.76953-1.32422l.90234.83203m13.80469-2.5l-5.55469 4.3086m5.55469-4.3086l2.23437 1.00391m-3.04297-.3789l2.23829 1.0078m11.21093-2.29296l-4.20703 5.6289m4.20703-5.6289l2.42578.3711m-3.03906.4453l2.42578.375m11.83203-.91406l-4.86718 5.07031m4.86718-5.0703l2.35938.67187m-3.0664.0664l2.35937.67188m12.30469-.57422l-6.14844 3.40234m6.14844-3.40234l2.05468 1.33594m-2.94922-.84375l2.0547 1.33984m12.28515-1.57031l-6.41016 2.8789m6.41016-2.8789l1.9375 1.5039m-2.8711-1.08593l1.9375 1.5039m12.51563-1.32422l-6.82031 1.6797m6.82031-1.6797l1.63672 1.82813m-2.6289-1.58203l1.63671 1.82812m12.77344-1.11719l-7.02344-.23437"/><g clip-path="url(#aa)"><path fill="none" stroke="#000" stroke-linecap="round" stroke-linejoin="round" stroke-miterlimit="10" stroke-width=".5" d="M467.07422 360.60938l1.07812 2.20703"/></g><path fill="none" stroke="#000" stroke-linecap="round" stroke-linejoin="round" stroke-miterlimit="10" stroke-width=".5" d="M466.05078 360.57813l1.07813 2.20312"/><g clip-path="url(#ab)"><path fill="none" stroke="#000" stroke-linecap="round" stroke-linejoin="round" stroke-miterlimit="10" stroke-width=".5" d="M147.14063 345.60156l-6.28125 3.15235"/></g><path fill="none" stroke="#000" stroke-linecap="round" stroke-linejoin="round" stroke-miterlimit="10" stroke-width=".5" d="M147.14063 345.60156l2 1.42188m-2.91407-.96094l1 .70703m12.83594-1.78125l-5.49219 4.38281m5.49219-4.3828l2.25.97265m-3.05078-.33594l2.2539.97266m12.03125-1.37891l-5.83203 3.91797m5.83203-3.91797l2.16407 1.15625m-3.01172-.58594l2.16406 1.15625m11.45313-2.35937l-4.7461 5.1836m4.7461-5.1836l2.3789.61328m8.58594-1.53516l-.03906 7.02735m.03906-7.02735l2.17188-1.14062m-2.1797 2.16406l1.08595-.57031m13.14062-.32813l-1.84766 6.77735m1.84766-6.77735l2.39453-.54297m12.76172 1.76563l-5.53125 4.33203m5.53125-4.33203l2.24219.99219m11.50781-.27735l-6.40234 2.90235m6.40234-2.90235l1.9414 1.5m10.78126-2.40234l-5.21875 4.70703m5.21875-4.70703l2.30859.83984m-3.0664-.15625l1.15234.42188m13.71484.375l-6.80469 1.7461m6.8047-1.7461l1.65624 1.8125m-2.64453-1.5586l1.65234 1.8125m12.67578-1.96484l-6.85546 1.54297m6.85547-1.54297l1.60156 1.86328m-2.59766-1.63672l1.59766 1.85938m12.47265-2.79297l-6.375 2.95703m6.375-2.95703l1.95704 1.48047m-2.88282-1.05078l.97657.74218m12.34375-2.3789l-4.53125 5.3711m4.53125-5.3711l2.39843.51953m10-1.07813l-2.69531 6.48829m2.69531-6.48829l2.4414-.23437m11.89063.88281l-4.73046 5.19531m4.73046-5.1953l2.375.60546m-3.0625.14844l1.1875.30469m13.8086.51562l-6.72266 2.04297m6.72266-2.04297l1.73437 1.73438m11.72657-.50391l-7.01172-.41797m7.01172.41797l1.02343 2.23047m-2.04297-2.29297l.51172 1.11719m13.83203-1.22266l-7.02734-.08203m7.02734.08203l1.125 2.1836m-2.14843-2.19532l.5625 1.08985m13.46484-2.56641l-6.40625 2.89453m6.40625-2.89453l1.9414 1.5m-2.875-1.07813l1.94141 1.5m12.01172-2.4453l-5.8164 3.9414m5.8164-3.9414l2.16797 1.14843m-3.01172-.57422l2.16797 1.14844m-3.01562-.57422l1.08203.57422m13.35547-2.375l-4.6797 5.2461m4.6797-5.2461l2.3828.58594m-3.0625.17968l2.38282.58203m-3.0664.1797l1.1953.29296m13.53907-1.76953l-4.78906 5.14453m4.78906-5.14453l2.3711.63672m-3.07032.11328l2.3711.63281m-3.06641.11328l1.1875.32031m13.96094-1.3203l-5.66797 4.15624m5.66797-4.15625l2.21093 1.0664m-3.03515-.46483l2.21093 1.0664m12.33204-.96094l-6.47266 2.73829m6.47266-2.73829l1.90234 1.54688m-2.84766-1.14844l1.90625 1.54688m12.42578-1.75782l-6.61718 2.36329"/><g clip-path="url(#ac)"><path fill="none" stroke="#000" stroke-linecap="round" stroke-linejoin="round" stroke-miterlimit="10" stroke-width=".5" d="M466.8711 345.9961l1.8125 1.65234"/></g><path fill="none" stroke="#000" stroke-linecap="round" stroke-linejoin="round" stroke-miterlimit="10" stroke-width=".5" d="M465.90625 346.33984l1.8164 1.65235"/><g clip-path="url(#ad)"><path fill="none" stroke="#000" stroke-linecap="round" stroke-linejoin="round" stroke-miterlimit="10" stroke-width=".5" d="M147.33984 332.77734l-6.67968 2.17188"/></g><path fill="none" stroke="#000" stroke-linecap="round" stroke-linejoin="round" stroke-miterlimit="10" stroke-width=".5" d="M147.33984 332.77734l1.76563 1.70313m-2.73828-1.38672l.88281.85156m12.94531-2.09375l-5.76172 4.02344m5.76172-4.02344l2.1836 1.11328m-3.02344-.52734l2.1875 1.11328m11.16016-2.52344l-4.14844 5.67188m4.14844-5.67188l2.42968.34766m-3.03125.47656l1.21485.17578m12.41797-1.1875l-3.58204 6.04688m3.58203-6.04688l2.45313.11329m-2.97266.76562l1.22657.0586m13.86718.33593l-6.09375 3.5m6.09375-3.5l2.07813 1.30469m10.66406-2.05078l-4.94922 4.99219m4.94922-4.9922l2.34766.70704m9.63281-1.53516L222.75 337.1875m1.94922-5.67969l1.21094-.19531m14.69922 1.67969l-6.8086 1.74219m5.8164-1.48829l.82813.90625m13.32422 1.04688l-6.5-2.67188m6.5 2.67188l.24219 2.4414m13.30469-4.2578l-6.96094.96093m6.96094-.96094l1.4375 1.99219m-2.44922-1.85156l.71875.9961m13.51562-1.58595l-6.77734 1.85938m6.77734-1.85938l1.6836 1.78125m-2.66797-1.51171l.83984.89062m13.32813-1.55078l-6.51172 2.64062m6.51172-2.64062l1.8789 1.57422m11.64844-.8164l-6.9375 1.125m6.9375-1.125l1.48438 1.95312m11.10546-3.58594l-5.48828 4.39062m5.48828-4.39062l2.25391.97265m-3.05078-.33203l1.125.48438m12.86719-1.26563l-5.25 4.67188m5.25-4.67188l2.30078.85547m-3.0625-.17578l2.30078.85547m12.51562-.21094l-6.73046 2.02344m6.73046-2.02344l1.72657 1.74219m-2.70313-1.44922l1.72656 1.7461m12.65625-.38672l-6.91015-1.28125m6.91015 1.28125l.73829 2.33984m-1.7422-2.52734l.3672 1.17187m13.70703-.19531l-6.41797-2.85938m6.41797 2.85938l.17187 2.44922m12.33594-6.4414l-4.80469 5.125m4.80469-5.125l2.36719.64062m-3.06641.10546l2.36719.64063m11.26172-1.69922l-4.03516 5.75m4.03516-5.75l2.4375.30078m-3.02344.53516l1.21875.15234m12.90625-.82031l-4.48438 5.41406m4.48438-5.41406l2.40234.4961m-3.05468.29296l2.40234.49219m11.01172-1.65625l-3.3789 6.16406m3.3789-6.16406l2.45312.03125m-2.94531.86719l1.22656.01562m13.77344.15625l-5.76172 4.02344m5.76172-4.02344l2.1836 1.11328m-3.02344-.52734l1.09375.55469m13.57812-.01563l-6.79687 1.77344m6.79687-1.77344l1.66406 1.80469m-2.65234-1.54688l1.66406 1.8047m12.40625-2.69923l-6.33203 3.04688"/><g clip-path="url(#ae)"><path fill="none" stroke="#000" stroke-linecap="round" stroke-linejoin="round" stroke-miterlimit="10" stroke-width=".5" d="M466.72656 332.33984l1.98047 1.45313"/></g><g clip-path="url(#af)"><path fill="none" stroke="#000" stroke-linecap="round" stroke-linejoin="round" stroke-miterlimit="10" stroke-width=".5" d="M465.80469 332.78125l1.98047 1.45313"/></g><path fill="none" stroke="#000" stroke-linecap="round" stroke-linejoin="round" stroke-miterlimit="10" stroke-width=".5" d="M464.88672 333.22656l.98828.72656"/><g clip-path="url(#ag)"><path fill="none" stroke="#000" stroke-linecap="round" stroke-linejoin="round" stroke-miterlimit="10" stroke-width=".5" d="M147.42969 319.79297l-6.85938 1.51172"/></g><path fill="none" stroke="#000" stroke-linecap="round" stroke-linejoin="round" stroke-miterlimit="10" stroke-width=".5" d="M147.42969 319.79297l1.59375 1.86719m-2.58985-1.64844l1.58985 1.86719m-2.58985-1.64844l.79688.9375m14.40625-1.76563l-6.64453 2.28907m6.64453-2.28907l1.79687 1.67188m-2.76172-1.33985l1.79297 1.67579m-2.76172-1.33985L160.5 321.7422m13.34375-2.61328l-6.42578 2.83984m6.42578-2.83984l1.92969 1.51562m-2.86328-1.10547l1.92968 1.51953m-2.86718-1.10546l.96484.7578m14.33594-1.28906l-6.65625 2.25391m6.65625-2.2539l1.78515 1.67968m-2.7539-1.35156l1.78515 1.67969m-2.7539-1.35156l.89453.83984m14.44531-1.1914l-6.83203 1.64062m6.83203-1.64063l1.6289 1.83985m-2.62109-1.60157l1.625 1.83985m-2.62109-1.60156l.8125.92187m14.34766-1.85938l-6.54297 2.5625m6.54297-2.5625l1.86328 1.59766m-2.8164-1.22265l1.86327 1.59765m-2.8164-1.22656l.93359.80078m14.35156-1.36328l-6.67578 2.19531m6.67578-2.19531L229 321.14844m-2.74219-1.3789l.88281.85155m13.5625-.40625l-6.99609.66797m6.9961-.66797l1.35156 2.04688m-2.3711-1.94922l.6797 1.02344m13.60937-.1289l-6.90235-1.32032m6.90235 1.32031l.72265 2.34375m-1.72656-2.53515l.35938 1.17187m14-1.2539l-6.98438-.76954m6.98438.76953l.91015 2.27735m-1.92578-2.39063l.90625 2.27735m13.44531-2.55079h-7.02734m7.02734 0l1.15235 2.16797m-2.17579-2.16796l1.15235 2.16796m13.1875-2.21093l-7.02735.08593m7.02735-.08593l1.17578 2.15234m-2.19922-2.14063l.58984 1.07813m13.7461-1.16406l-7.02344.23828m7.02344-.23828l1.22265 2.125m-2.24609-2.08985l1.22656 2.125m12.6211-3.83203l-6.04297 3.58203m6.04297-3.58203l2.09765 1.27344m-2.97656-.7539l2.09766 1.27734m12.01172-1.9375l-5.8711 3.85937m5.8711-3.85937l2.15234 1.17969m-3.00781-.6172l1.07812.58985m13.3789-.61719L340.5 321.94531m6.44922-2.79297l1.91797 1.53125m-2.85547-1.125l1.91797 1.53125m12.51562-1.41406l-6.8086 1.74219m6.8086-1.74219l1.65235 1.8125m-2.64454-1.5586l.82813.90626m13.41797-1.36328l-6.6875 2.15234m6.6875-2.15234l1.76172 1.71093m10.84765-2.95703l-5.27343 4.64453m5.27343-4.64453l2.29688.86328m-3.0664-.1875l1.14843.4297m12.07422-1.81642l-3.55078 6.0625m3.55078-6.0625l2.45312.10157m9.3047-.57422l-.4375 7.01172m.4375-7.01172l2.23437-1.01563m11.79296 1.13282l-1.86328 6.77734m1.86328-6.77734l2.39454-.53516m12.33984 6.53516l-4.69922-5.22657m18.63672.7422l-5.94531 3.74218m5.94531-3.74219l2.1289 1.22266m-2.99218-.67578l1.0625.60937m12.9336-1.42187l-5.57813 4.27734"/><g clip-path="url(#ah)"><path fill="none" stroke="#000" stroke-linecap="round" stroke-linejoin="round" stroke-miterlimit="10" stroke-width=".5" d="M466.35156 318.41016l2.23047 1.01953"/></g><g clip-path="url(#ai)"><path fill="none" stroke="#000" stroke-linecap="round" stroke-linejoin="round" stroke-miterlimit="10" stroke-width=".5" d="M465.53906 319.03125l2.23047 1.01953"/></g><path fill="#00f" fill-rule="evenodd" d="M392.67578 472.08594h8.6211V461.9414h-8.6211v10.14453"/><path fill="azure" fill-rule="evenodd" d="M394.51172 463.77344h.83203v2.82422h3.28516v-2.82422h.83203v6.48047h-.83203v-2.91797h-3.28516v2.91797h-.83203v-6.48047"/><path fill="#00f" fill-rule="evenodd" d="M414.86719 436.57813h8.6211v-10.14454h-8.6211v10.14454"/><path fill="azure" fill-rule="evenodd" d="M416.70313 428.26563h.83203v2.82421h3.28515v-2.82421h.83594v6.48046h-.83594v-2.91406h-3.28515v2.91406h-.83204v-6.48046"/><path fill="#00f" fill-rule="evenodd" d="M224.01953 418.82813h8.61719v-10.14844h-8.61719v10.14844"/><path fill="azure" fill-rule="evenodd" d="M225.85156 410.51172h.83594v2.82422h3.28516v-2.82422h.83203v6.48047h-.83203v-2.91406h-3.28516v2.91406h-.83594v-6.48047"/><path fill="#00f" fill-rule="evenodd" d="M370.48438 401.07422h8.62109v-10.14844h-8.6211v10.14844"/><path fill="azure" fill-rule="evenodd" d="M372.3164 392.76172h.83594v2.82031h3.28516v-2.82031h.83203v6.47656h-.83203v-2.91406h-3.28516v2.91406h-.83593v-6.47656"/><path fill="#ff3030" fill-rule="evenodd" d="M424.4414 401.07422h7.69141v-10.14844h-7.6914v10.14844"/><path fill="azure" fill-rule="evenodd" d="M426.27344 392.76172h.83203V398.5h3.19531v.73828h-4.02734v-6.47656"/><path fill="#ff3030" fill-rule="evenodd" d="M233.58984 387.75781h7.69532v-10.14453h-7.69532v10.14453"/><path fill="azure" fill-rule="evenodd" d="M235.42188 379.44531h.83593v5.73828h3.1914v.7422h-4.02733v-6.48048"/><path fill="#ff3030" fill-rule="evenodd" d="M335.67188 387.75781h7.6953v-10.14453h-7.6953v10.14453"/><path fill="azure" fill-rule="evenodd" d="M337.5039 379.44531h.83594v5.73828h3.19141v.7422h-4.02734v-6.48048"/><path fill="#ff3030" fill-rule="evenodd" d="M198.08203 365.5664h7.69531v-10.14452h-7.6953v10.14453"/><path fill="azure" fill-rule="evenodd" d="M199.91797 357.2539h.83203v5.73829h3.19531v.74219h-4.02734v-6.48047"/><path fill="#ffffe0" fill-rule="evenodd" d="M407.3164 459.0039H429.5v-10.1914h-22.1836v10.1914"/><path fill-rule="evenodd" d="M410.8164 450.64453h.51173v6.29297h-.78907v-4.48828h-1.38672v-.55469l.5586-.0664.2539-.0547.22657-.08984.20312-.14062.17578-.21094.14063-.29297.10547-.39453m4.8164 0l.22656.01953.21875.05469.21094.08984.19531.1211.1836.14844.17187.17578.30079.41796.24218.4961.17969.54687.11328.57813.03906.58984-.03906.59375-.11328.58594-.17969.55078-.24219.5039-.30078.4297-.17187.17968-.1836.15235-.1953.12109-.21094.09375-.21875.0586-.22657.01952-.23047-.01953-.21875-.05859-.20703-.09375-.19922-.1211-.18359-.15234-.17188-.17969-.30078-.42968-.24218-.5039-.1797-.55079-.11327-.58594-.03906-.59375h.83593l.02735.5625.08203.50781.125.44141.16406.375.1914.30078.21094.22266.22266.13672.22656.04687.22656-.04687.22266-.13672.21094-.22266.1875-.30078.16406-.375.125-.4414.08203-.50782.03125-.5625-.03125-.5586-.08203-.5039-.125-.4336-.16406-.36718-.1875-.28906-.21094-.21485-.22265-.1328-.22657-.04298-.22656.04297-.22266.13281-.21093.21485-.19141.28906-.16406.36719-.125.4336-.08203.5039-.02735.5586h-.83594l.03907-.58985.11328-.57813.17969-.54687.24218-.4961.30079-.41796.17187-.17579.1836-.14843.19921-.1211.20703-.08984.21875-.05469.23047-.01953m5.08985 0h.5078v6.29297h-.78515v-4.48828h-1.39062v-.55469l.5625-.0664.25-.0547.23047-.08984.20312-.14062.17578-.21094.14063-.29297.10547-.39453m2.82421 2.17578h.78516l.01953-.3164.0586-.28907.10156-.25.14062-.21484.1797-.17578.22265-.1289.26562-.07813.3086-.02735.23828.01954.22265.0625.20313.10156.17969.13672.14843.17578.11329.20703.07421.23437.02344.26563-.01953.26562-.0664.22657-.11329.1914-.15234.17188-.20313.16015-.24609.16797-.63281.38672-.53906.3164-.4375.31641-.34375.32422-.26563.33594-.1914.35156-.125.36719-.06641.39453-.02344.41797h4.21484v-.73828h-3.33593l.08593-.28516.11329-.23828.14843-.19922.1875-.17969.23047-.17187.27735-.17578.71875-.41797.41406-.20313.34375-.23437.28125-.25.22265-.26563.16016-.27734.11328-.28515.0625-.28516.01953-.28125-.03906-.38281-.1211-.34766-.1914-.3086-.25-.26171-.30078-.21485-.34766-.15625-.3789-.10156-.40625-.03125-.4336.03125-.39844.10156-.35546.16407-.3047.23437-.25.30469-.18358.375-.1172.44531-.03906.51953"/><path fill="#ffffe0" fill-rule="evenodd" d="M323.99219 355.32422h22.17969v-10.1914h-22.1797v10.1914"/><path fill-rule="evenodd" d="M327.48828 346.96484H328v6.29297h-.78906v-4.48828h-1.38672v-.55469l.5586-.0664.2539-.05469.22656-.08594.20703-.14453.17188-.20703.14062-.29688.10547-.39453m4.8164 0l.22657.01954.21875.05468.21094.08985.19531.12109.1836.14844.17187.17578.30078.42187.2461.4922.17968.54687.10938.57812.03906.58985-.03906.59375-.10938.58593-.17969.55469-.24609.5-.30078.42969-.17188.17969-.18359.15234-.19531.125-.21094.08984-.21875.0586-.22656.01953-.23047-.01953-.21875-.0586-.20703-.08984-.19922-.125-.1836-.15235-.17187-.17968-.30078-.42969-.24219-.5-.17969-.55469-.11328-.58594-.03515-.59375h.83203l.02734.56641.08203.5039.125.44141.16406.375.19141.30079.21094.22265.22265.13672.22657.04688.22656-.04688.22266-.13672.21093-.22265.1875-.30079.16407-.375.125-.4414.08203-.5039.03125-.56642-.03125-.55859-.08203-.5-.125-.4375-.16407-.36719-.1875-.28906-.21093-.21484-.22266-.13281-.22656-.04297-.22656.04296-.22266.13282-.21094.21484-.1914.28906-.16407.3672-.125.4375-.08203.5-.02734.55858h-.83203l.03515-.58984.11328-.57812.1797-.54688.24218-.49219.30078-.42187.17188-.17578.18359-.14844.19922-.1211.20703-.08984.21875-.05469.23047-.01953m5.08984 0h.50781v6.29297h-.78515v-4.48828h-1.38672v-.55469l.5586-.0664.25-.05469.23046-.08594.20313-.14453.17578-.20703.14062-.29688.10547-.39453m2.82422 2.17579h.78516l.01953-.31641.0625-.28516.09765-.2539.14063-.21485.17969-.17578.22265-.1289.26563-.07813.3086-.02734.23827.01953.22266.0625.20703.10156.17578.14063.14844.17187.11328.20703.07422.23438.02344.26562-.01954.26953-.0664.22266-.10938.1914-.15625.17188-.20312.16406-.2461.16406-.6328.39063-.53907.3125-.4375.3164-.34375.32423-.26563.33593-.1914.35156-.125.3711-.0664.39062-.02344.41797h4.21484v-.73828h-3.33203l.08203-.28515.11328-.23438.14844-.20313.1875-.17968.23047-.17188.27734-.17578.71875-.41797.41406-.20312.34766-.23047.27734-.2539.22266-.26563.16406-.27735.10938-.28515.0625-.28516.02343-.28125-.04296-.38281-.1211-.34766-.1875-.3086-.2539-.26171-.30079-.21484-.34375-.15625-.3828-.09766-.40626-.03516-.4336.03125-.39843.10157-.35547.16406-.30469.23437-.25.3047-.18359.375-.11719.4453-.03906.51954"/><path fill="#ffffe0" fill-rule="evenodd" d="M199.71484 338.82813h22.1836v-10.19141h-22.1836v10.1914"/><path fill-rule="evenodd" d="M203.21484 330.46875h.51172v6.29688h-.78906v-4.4922h-1.38672v-.55468l.5586-.0664.2539-.05079.22656-.08984.20313-.14063.17578-.21093.14063-.29688.10546-.39453m4.81641 0l.22656.01953.21875.05469.21094.08984.19531.1211.1836.14843.17187.17579.30078.42187.24219.49219.17969.54687.11328.57813.03906.59375-.03906.58984-.11328.58594-.17969.55469-.24219.5-.30078.42968-.17187.1797-.1836.15233-.19531.125-.21094.08985-.21875.0586-.22656.01952-.23047-.01953-.21875-.0586-.20703-.08983-.19922-.125-.1836-.15235-.17187-.17969-.30078-.42968-.24219-.5-.17968-.5547-.11328-.58593-.03907-.58984h.83594l.02734.5625.08203.5039.125.44532.16407.37109.1914.30078.21094.22266.22266.13672.22656.04687.22656-.04687.22266-.13672.21094-.22266.1875-.30078.16406-.3711.125-.4453.08203-.50391.03125-.5625-.03125-.5625-.08203-.5-.125-.4375-.16406-.36328-.1875-.29297-.21094-.21485-.22266-.1328-.22656-.04298-.22656.04297-.22266.13281-.21094.21485-.1914.29297-.16406.36328-.125.4375-.08204.5-.02734.5625h-.83594l.03906-.59375.11329-.57813.17968-.54687.2422-.49219.30077-.42188.17188-.17578.1836-.14843.19921-.1211.20703-.08984.21875-.05469.23047-.01953m5.08984 0h.50782v6.29688h-.78516v-4.4922h-1.39063v-.55468l.5625-.0664.25-.05079.23047-.08984.20313-.14063.17578-.21093.14063-.29688.10546-.39453m2.82422 2.17578h.78516l.01953-.3164.0586-.28516.10156-.2539.14062-.21485.17969-.17188.22266-.1289.26562-.08203.3086-.02735.23827.01953.22266.0625.20313.10157.17968.14062.14844.17188.11328.20703.07422.23437.02344.26563-.02344.26953-.0625.22265-.11328.19141-.15234.17188-.20313.16406-.2461.16406-.6328.39063-.53907.3125-.4375.3164-.34765.32422-.26172.33594-.1914.35156-.125.3711-.06642.39062-.02343.42188h4.21484v-.7422h-3.33594l.08594-.28515.11328-.23437.14844-.20313.1875-.17969.23047-.17187.27734-.17578.71875-.41406.41406-.20704.34375-.23046.28125-.25.22266-.26954.16016-.27734.11328-.28516.0625-.28515.01953-.28125-.03906-.38281-.1211-.34766-.1914-.3086-.25-.26171-.30078-.21094-.34766-.16016-.3789-.09765-.40626-.03516-.43359.03516-.39844.09765-.35547.16406-.30468.23438-.25.30469-.1836.375-.11719.44531-.03906.51953"/></g></defs><use xlink:href="#aj"/></svg>