<svg xmlns="http://www.w3.org/2000/svg" role="img" xmlns:xlink="http://www.w3.org/1999/xlink" viewBox="142.45 309.95 326.84 171.84"><defs><clipPath id="a"><path d="M144 311.67188h1v168.65625h-1zm0 0"/></clipPath><clipPath id="b"><path d="M144 311.67188h324v168.65625H144zm0 0"/></clipPath><clipPath id="c"><path d="M467 311.67188h1v168.65625h-1zm0 0"/></clipPath><clipPath id="d"><path d="M144 479h4v1.32813h-4zm0 0"/></clipPath><clipPath id="e"><path d="M146 479h2v1.32813h-2zm0 0"/></clipPath><clipPath id="f"><path d="M153 478h8v2.32813h-8zm0 0"/></clipPath><clipPath id="g"><path d="M159 479h2v1.32813h-2zm0 0"/></clipPath><clipPath id="h"><path d="M166 479h9v1.32813h-9zm0 0"/></clipPath><clipPath id="i"><path d="M172 479h3v1.32813h-3zm0 0"/></clipPath><clipPath id="j"><path d="M180 479h8v1.32813h-8zm0 0"/></clipPath><clipPath id="k"><path d="M186 480h1v.32813h-1zm0 0"/></clipPath><clipPath id="l"><path d="M193 478h8v2.32813h-8zm0 0"/></clipPath><clipPath id="m"><path d="M206 479h9v1.32813h-9zm0 0"/></clipPath><clipPath id="n"><path d="M212 480h2v.32813h-2zm0 0"/></clipPath><clipPath id="o"><path d="M220 479h8v1.32813h-8zm0 0"/></clipPath><clipPath id="p"><path d="M226 480h1v.32813h-1zm0 0"/></clipPath><clipPath id="q"><path d="M233 479h8v1.32813h-8zm0 0"/></clipPath><clipPath id="r"><path d="M239 479h2v1.32813h-2zm0 0"/></clipPath><clipPath id="s"><path d="M246 480h9v.32813h-9zm0 0"/></clipPath><clipPath id="t"><path d="M252 480h2v.32813h-2zm0 0"/></clipPath><clipPath id="u"><path d="M260 479h8v1.32813h-8zm0 0"/></clipPath><clipPath id="v"><path d="M265 480h2v.32813h-2zm0 0"/></clipPath><clipPath id="w"><path d="M273 478h8v2.32813h-8zm0 0"/></clipPath><clipPath id="x"><path d="M287 478h7v2.32813h-7zm0 0"/></clipPath><clipPath id="y"><path d="M300 478h8v2.32813h-8zm0 0"/></clipPath><clipPath id="z"><path d="M313 478h8v2.32813h-8zm0 0"/></clipPath><clipPath id="A"><path d="M319 480h1v.32813h-1zm0 0"/></clipPath><clipPath id="B"><path d="M327 477h6v3.32813h-6zm0 0"/></clipPath><clipPath id="C"><path d="M342 476h3v4.32813h-3zm0 0"/></clipPath><clipPath id="D"><path d="M356 476h2v4.32813h-2zm0 0"/></clipPath><clipPath id="E"><path d="M368 476h4v4.32813h-4zm0 0"/></clipPath><clipPath id="F"><path d="M381 477h6v3.32813h-6zm0 0"/></clipPath><clipPath id="G"><path d="M393 478h8v2.32813h-8zm0 0"/></clipPath><clipPath id="H"><path d="M393 480h3v.32813h-3zm0 0"/></clipPath><clipPath id="I"><path d="M407 477h7v3.32813h-7zm0 0"/></clipPath><clipPath id="J"><path d="M419 480h9v.32813h-9zm0 0"/></clipPath><clipPath id="K"><path d="M425 480h2v.32813h-2zm0 0"/></clipPath><clipPath id="L"><path d="M433 479h8v1.32813h-8zm0 0"/></clipPath><clipPath id="M"><path d="M439 479h2v1.32813h-2zm0 0"/></clipPath><clipPath id="N"><path d="M446 478h8v2.32813h-8zm0 0"/></clipPath><clipPath id="O"><path d="M460 477h7v3.32813h-7zm0 0"/></clipPath><clipPath id="P"><path d="M144 465h4v4h-4zm0 0"/></clipPath><clipPath id="Q"><path d="M144 453h4v2h-4zm0 0"/></clipPath><clipPath id="R"><path d="M144 439h4v2h-4zm0 0"/></clipPath><clipPath id="S"><path d="M144 426h4v2h-4zm0 0"/></clipPath><clipPath id="T"><path d="M144 412h4v3h-4zm0 0"/></clipPath><clipPath id="U"><path d="M144 398h4v5h-4zm0 0"/></clipPath><clipPath id="V"><path d="M466 399h2v4h-2zm0 0"/></clipPath><clipPath id="W"><path d="M144 384h4v6h-4zm0 0"/></clipPath><clipPath id="X"><path d="M144 372h4v4h-4zm0 0"/></clipPath><clipPath id="Y"><path d="M144 359h4v3h-4zm0 0"/></clipPath><clipPath id="Z"><path d="M466 358h2v4h-2zm0 0"/></clipPath><clipPath id="aa"><path d="M144 346h4v3h-4zm0 0"/></clipPath><clipPath id="ab"><path d="M466 345h2v3h-2zm0 0"/></clipPath><clipPath id="ac"><path d="M465 345h3v3h-3zm0 0"/></clipPath><clipPath id="ad"><path d="M144 332h4v3h-4zm0 0"/></clipPath><clipPath id="ae"><path d="M466 332h2v3h-2zm0 0"/></clipPath><clipPath id="af"><path d="M465 332h3v3h-3zm0 0"/></clipPath><clipPath id="ag"><path d="M144 319h4v3h-4zm0 0"/></clipPath><clipPath id="ah"><path d="M466 318h2v2h-2zm0 0"/></clipPath><clipPath id="ai"><path d="M465 318h3v3h-3zm0 0"/></clipPath><g id="aj" clip-path="url(#clip1)"><path fill="#fff" fill-opacity="0" fill-rule="evenodd" d="M0 0h1000v1000H0zm0 0"/><path fill="#d3d3d3" fill-opacity="0" fill-rule="evenodd" d="M162.15234 355.86719l-.23437.29297.0586.23437.11718.17188.17578.23437.29297.34766.11328.0586.11719-.17188.0586-.23438.17577-.17578.46485-.17578h.69922l.23437.29297.28906.8164.0586.17579.17578.23046.35156.23438.69922.69922.17188.17578.23437.34765.23438.41016.28906.58203.41015.46485.23047.23437.23438.17578.11719.23047.17578.29297.17187 1.16406v.23438l.0586.28906.05859.11719.11719.11719.34765.41015.11719.17188.17578.17578.17578.23437.11719.17188.17188.35156.05859.23438.23437.40625.23438-.0586-.17578.17578-.0586.92969h-.58203l-.23437-.11328-.34766.11328-.11719.11719-.05859.29297-.0586.17578-.11718.17187-.46484.29297-.0586.23438-.0586.11328v.64453l.0586.17187v.41016l.0586.0586v.40624l.05859.40625.11719.17579.05859.05859.23047.64062-.0586.29297v.69922l-.05859.58203v.23438l-.0586.23047-.05468.35156v1.92187l.05469.1172h.42578l-.36719.11718-.02344.35156.89063 1.16797 1.74219.53906 1.33984.35938v.53906l.08984.8086.53516.71484 1.51953.26953.89063-.08594.08984 1.16406.53516.1797 1.16015-.1797 2.05469-.98437 1.16016-.36328 1.8789-.17578 1.69531-.1797-.17968.71876-1.51563.08594-1.25.08984-.80469.26953-1.07421.8086.26953.71875.53515.89843-.17968.625-.26563.8086.26563 1.07812.625.89844.80468.17969 1.25-.1797-.26562.72267.09766.5039.05468.29297v.17188l.0586.29296v.40625l.17578.1172.35156.11718h.40625l.29297-.17578.11328-.11719.0586-.11719.11718-.23047.0586-.17578.35156-.46484.23047-.17578.17578-.0586.17578.0586.0586.17578.11718.98828.05469.46875.0586.17188.11718.23437.17578.0586.8164.05859h.28907l.11719.23437.05859.40625.0586.35156v1.10547l.11718.29297.11719.34766.28906.69922.17578.35156.58203.7539.35157.17579.17187.0586.46875.23437.64063.46484.34765.23438.29297.17578.29297.05468.23047.0625.8164.34766.29297.17578.11328.17188.35157.35156.11719.17578.52343.64063v.28906l.0586.35156v.34766l.05859.35156.0586.28906.11718.0586.17188.05859h.17578l.58203.23437.17578.1172.17578.28905.17578.23438.11328.23437.29297.23047.11719.11719v.41016l.0586.05468.28906.23438.23437.11719.0586.11718.11718.17188.0586.11719.23047.23437.05859.17578.23437.0586.1172.05859-.1172.11328-.05859.11719v.11719l-.11719.29296-.11719.28907v.58203l.17579.11719.11718.05859.0586.11719.11719.11719.11328.05859.17578.34765.0586.35157.05858.40625v.17578l-.05859.17578-.11719.69922v.17187l.1172.17579.29296.29296h.40625l.17578.1172.11719.17187.11719.29296v.23438h-.52735l-.23047-.23438h-.23437l-.17578.0586-.0586.69922.0586.34765.11719.17579.17578.41015.11718.23047.28907.46875.17578.05469h.52344l.23437.0586.75781.64062.0586.29296v.23438l.05859.0586.23047.34765v.35156l-.11719.17188v.29297l.29297.28906.29297.17578.17187.0586.29297.17577.29297.1172.58203.40624.28906.23438.29297.17578.21875.16015.01563.01172.23047.17579.64062.52343.17578.23438.1172.17578.17577.17578.11328.17188v.64062l.1172.17578.46874.11719.58203.11719.23438.05859.23047.11328.29297.11719.11328.0586.58593.35156.28907.17187.17578.0625.17578.05469.17578.0586.69922.35155.28906.17579.23438.05468.28906.17578.23437.1172.64063.40624.29297.11719.17187.0586.23438.05859.41015.05859.23047.0586.23438.11718.0586.17188-.41017.17578.46875.0586.0586.29296.11328.23438.17578.05468.23438.0586.17578.05859.40625.11719.64062.23437.11719.17188.0586.23437v.17578l-.0586.1172-.0586.40624.23438.23438.11719.05859.34766.11719.64062.23047.17578.11718.28906.1172.17578.17577.23438.46485.58203 1.10546.17578.17579.34766.17578.17578.11719.35156.11718 1.04688.52344.23437.0586.46485.11327.29297.0586.46484.17578.75781.58203.23438.23438.34765.46484.17578.17578.28907.23438.8164.69921.29297.17579.28906.28906.29297.17578.29297.28906.69531.64063.17578.17578.29297.23437.28907.23438.46875.28906.64062.58203.34766.23438.23437.29297.34766.34765.35156.46485.9336.99218.34765.40625.11719.17579.23437.05859.11328.11719.64454.17578.23047.11328.23437.0586.29297.17577.23047.1172.9336.69921.40624.40625.23438.17578.40625.17578.23437.11719.8164.34766.34766.23437.23438.11719.29297.28906.23047.11719.7578.35156.35157.17188.23047.05859.29297.11719.23437.0586.8711.17577h.8164l.46875.23047.17188.0586.875.69921.46484.1172.29297.05858.17578.0586.23047.0586.46875.05859.34766.05859.35156.0586.40625.05859h.29297l.17187.0586v.23046l.17578.17578h.29297l.34766.0586.35156.05859.69922.11719h.64063l.46484-.23438.29297-.17578.17187-.11719.41016-.17187.28906-.17578.9336-.46485.46875-.29297.52343-.29296.46485-.17188.46484-.17578 1.05078-.46485.28906-.11718.41016-.11719.28906-.11719.52735-.17578 1.51562-.69922.58203-.34765.28907-.0586.29297-.0586.34765-.11718.875-.23047.35156-.11719h.11329l.23437-.05859.875-.23437.23438-.0586h.8125l.35156-.0586.8164-.11718.17188-.0586.35156-.05468.29297-.0586.23047-.05859.8164-.17578.17579-.0586h.34765l.23438-.05859.46484-.11718.75781-.17188.23438-.0586h.34765l.41016-.11718.28906-.0586 1.28516-.05859h.28906l.41016-.0586.23047-.05858h.17578l.875-.1172h.40625l.41015-.11718h.34766l.35156-.11328.8711-.0586h1.75l1.04687.28907.41016.11719.28906.11718.35156.11719.28907.11719 1.05078.17187.28906.0586h.29297l.29297.05859.17187.0586.41016.05859.17187.0586.1172.05858h.11718l.11719.0586.35156.0586h.11328l.41016.0664 1.92187.39453 1.92578.39453 1.51953.44922 1.69532.71875 2.14453.80469 1.60547-.71875 1.42968-.80469 1.16016-1.07813 1.25-.44921 3.03516-.71875 1.875-.35938 2.14453-1.34765 2.23437-1.25391 2.5-1.25781 1.69531-.44922 1.78516-.17969 1.16016-.26953.625.53906 1.33984-.26953.71485-.98828.98437-1.34375.44531-.17969.80469-.35937 1.875-.53907 1.78516-.44921 1.25-.26954 1.16015-.08984 1.69922-.08984 1.96094-.26954 1.25-.08984h.53906l.625-.08984h.89063l2.14453-.17969 2.41015-.17969 2.58985-.08984 1.69531.17969 1.60938.08984 1.42968.35938 1.16016.71875 1.875.98828 1.16015 1.52734.26563.71484.6289.08985.35548.89844.53515.53906.53516 1.52734 1.07422.35938h.53515l-.80469.53515.08985 1.70703.71484 2.69532.89063.80468.89453.98829.71484 1.2578 1.78516.53907 1.51953-.17969.35547 1.34375 1.60937-.80469.98047-.53906.26953.26953.31641-.21484.21875-.14453.80078.44922.44922-.35938h.35547l.53515-.26953.53907-.71875.53515-.26953.625-.98828 1.16016.44922.83984.3711 1.39454.61718 1.6953-.17969h1.60548l1.78515.08985.17969-1.70704.53516-1.34375.80468.26954.4922.84765.40233.40625-.08984.53906v.35938l.71485.44922.71093-.26953h1.42969l.35938.98828.4453 1.25781.71485 1.34375 1.25.6289 1.69531.62891.71485-.17969.17969-.53906.98046-.08984.44922.35937.08594 1.25782-.26563.6289-.53515.17969v.53906l.71484.98438.26563.53906.98437.98828.80078 1.07813-.26562.35937-.08985.89844-.625 2.33203-.35546 2.0664-.08985 1.79298-.17969.71875-.08984.53906v1.4375l-.98047 1.88281-.35937 1.70703-.53516.89844-.80469 1.16797-.26562.53906 2.05469 1.2539.08593.35938-.35546.53906-.08985-.17968v.80859l.08985 1.4375-.44532.71484-1.07422.09375-.26562.71485.53515.89844.8047.71875 1.16015.80859 1.33984.26953.44531.35938-.35546.44921-1.78907-.08984-1.25-.44922-.71484-.71875-.625-.08984-.17578 3.58984-.1875 1.3086h89.35937V311.70313h-55.26953v49.08203l.76172.125 3.28906.54296 2.02344 2.83594v2.7539l2.35156.33204 2.34766.33203h4.05078l-1.3789 4.16016-2.02344.70703-2.02344.70312-.54297.34375-2.59375 1.6172-.1875.11718-2.02344-2.07813-.73046-2.74218-2.67188-2.07813-1.375-3.5-.0664-.08203-1.95704-2.67188 2.75-1.41796v-49.08204H294.42187v91.41407l.1172.03125.1328.01172.07422.07421.10547.04688.08985.0586.08593.05859.08985.0586.29687.29687.0586.08984.03125.11719.02734.11719.01563.13671-.03125.1172-.0586.08983-.0586.08594-.04296.10547-.04688.10156-.02734.1211v.14453l.17578.26953.14844.14844.07422.08594.07422.07421.04296.10547.0625.08985.0586.08593.04297.10547.0586.08985.04687.10156.04296.10547.0586.08594.11719.17968.07421.07422.0625.08594.0586.08984.04297.10547.0586.08985.05858.08593.0625.08985.0586.08984.04297.10156.11719.17969.07421.07422.0586.08594.07422.07421.08984.0586.10547.04687h.14844l.1328-.01562.13282.01562.10156-.04687.07422-.07422.04688-.10156-.01563-.13281v-.14844l-.04687-.10547-.02735-.11719-.04687-.10156-.02735-.1211-.04296-.10156-.0625-.08984-.04297-.10156-.04297-.10547-.03125-.11719-.01563-.13281-.01171-.13672.08593-.0586.0586-.08593.12109-.03125.04297.10547.01562.1328v.1172l.0586.10156.0586.08984.08983.0586.14844.14843.0586.08985.04296.10547-.01171.10156.08593.0586.10547.04687.08594.0586.08984.05858.07422.07422-.11719.02735-.10546.04687-.08594.0586-.07422.07421-.0586.08985-.0625.08594-.02734.12109-.04687.10156-.04297.10547-.03125.11719-.01172.13281-.01563.13281v.14844l.02735.11719.04687.10547.04297.10156.0586.08984.07421.07422.08985.0586.07422.07421.08984.0586.0586.08984.04296.10547.04688.10156.11719.03125.1328.01563h.14845l.11718-.03125.10547.04297.04297.10547.04688.10156.02734.1211L299.5 410l.02734.11719.03125.1211.02735.11718.10547.04297.10156.04687.13281-.01562.14844.14844.0625.08593.07422.07422.07031.07422.08984.0625.10547.04297.10156.04297.1172.03125.13671.01562.11719-.03125.07422-.07422.02734-.11718-.01172-.13282-.03125-.12109-.02734-.11719.04297-.10547h.11719l.08984.0625.11719.02735h.14843l.13282.01562h.14843l.13282.01563.1328-.01563h.14845l.1328-.01562.13282-.01172.13672.01172.11719-.02735.13281-.01562.1914-.0586-.05859.17579-.01562.1328-.02735.1211-.01562.13281-.0586.08594-.1328.01563-.10548.04687-.10546.04297-.1172.03125-.11718.02735-.26563.03125h-.14843l-.13281.01562-.07422.07422.05859.08594.14844.14843.11719.1797.07421.0703.08985.0625.08984.0586.08594.0586.08984.05858.10156.04297.10547.0625.10547.04297.08594.0586.10547.04687.10156.04297.17969.11719.0586.08984-.04298.10156-.04687.10547.01562.13281.22266.22266.0586.08985.04296.10156.03125.1211.04297.10155.01563.13282.03125.11718.01171.13672.03125.11719.14844.14844.10156.04297.10547.04296.1172.03125.1328.01563.13672.01563h.11719l.11719-.03125.08984-.0586.04297-.10547.04688-.10156.04296-.10547.03125-.11719.01172-.1328v-.14845l-.01172-.1328-.01562-.13282-.03125-.11719-.04297-.10547-.04688-.10547-.04296-.10156-.04297-.10547-.01563-.13281.01563-.13281.02734-.11719.03125-.11719.02735-.1211.04687-.10155.08984-.0586.08594-.0625.07422-.07422.08984-.05859.22266-.22266.0586-.08593.07421-.07422.11719-.17969.0586-.08594v-.14844l-.07423-.07421-.10156-.04688-.10547-.04297-.10156-.04297-.0586-.08984-.04687-.10547-.02734-.11719.08984-.05859.11719-.03125.10156-.04297.17969-.11719.14844-.14843.01172-.13282-.01172-.10546-.08985-.0586-.1328.01563h-.14845l-.1328.01562-.13282-.01562-.1211-.03125-.08593-.0586-.07422-.07422-.0586-.08984-.0625-.08594-.11718-.17969-.0586-.08593.03125-.1211.08594-.05859.1211-.03125.05859-.08594v-.1211l-.03125-.11718-.0586-.08984-.05859-.08594-.04687-.10547-.02735-.11719-.01562-.1328.0586-.08985.07421-.07422.08984-.0586.1172-.17968.07421-.07422.0586-.08594.14843-.14844.1211-.03125.1328-.01562.13282.01562.07422.07422.04297.10547.01562.13281-.03125.1172-.11719.03124-.1328.01172-.14844.14844-.04297.10547-.04688.10156-.02734.1211-.03125.11718v.14844l.03125.11719.04297.10546.05859.08985.07422.07031.07422.07422.11719.03125.12109.02734.11719-.02734.1328-.01563h.1172l.08984.0586.07422.07422.04687.10546.0586.08594.10156.04688.13281.01562.10547.04297.08594.0586-.01172.10546-.07422.07422-.17969.11719-.05859.08984-.08984.0586-.07032.07422-.07421.07421-.0625.08985-.02735.11719-.01562.1328.01562.13282-.01562.13281v.14844l.01562.13281.02735.1172.03125.12108.07421.07422.08985.0586.08594.0586.08984.05858.11719.03125v.08594l-.10157.04688-.08984.0586-.26563.03124-.11718.02735h-.14844l-.10547.04296-.10156.04688-.0586.08984-.0625.23438-.01171.13281-.03125.1211-.01563.1328v.29298l-.01172.1328.01172.13673.01563.1328.1328.01563.13282.01172.1211.03125.08593.0586.07422.07421.04688.10547.04296.10157.01563.1328v.44532l-.01563.13281v.44532l.03125.26562.02735.11719.01562.13281.03125.11719.08594.21094.03125.26562v.14844l-.03125.11719-.02734.11718-.03125.1211-.02735.11719-.03125.11718-.03125.1211-.01171.1328-.01563.13282.08984.0586.1172-.03125.10155.01562.04688.10547-.03125.26562v.44141l-.04297.10547-.04688.10547-.04296.10156-.04297.10547-.0586.08594-.03125.12109-.04296.11719-.03125.11719-.01563.1328.01563.13282.05859.08984.10547.04688.08594.0586.05859.08593-.01172.13672-.03125.11719-.04297.10156v.44531l-.01562.13281v.14844l-.03125.11719-.04297.10547-.02735.11719-.04687.10546-.04297.10157-.03125.12109-.02734.11719-.03125.13281-.03125.11719-.02735.11719-.04297.10546-.03125.1172-.03125.12108-.01171.13282-.01563.13281v.29688l.02734.11718v.14844l.04688.39844.02734.11719.0586.08984.12109.03125h.14844l.13281-.01563.0586.08985v.11719l-.0586.08984-.08984.0586-.10157.04296-.10546.04688-.08985.05859-.08594.0586-.13671.01562-.1172-.03125-.1328-.01563-.10157.04688-.0625.08594-.01172.13671-.01562.13282-.03125.11719-.02735.11718-.01562.13281-.03125.1211v.29687l.01563.13282.03125.11718v.14844l.01171.13281v.14844l-.02734.11719-.04688.10156-.02734.1211-.03125.11718-.0586.08985-.07421.07421-.10156.04297-.10547.04688-.11719.02734-.1211.03125-.10156-.04687.0586-.08594.10547-.04688.02734-.11718.03125-.11719.02734-.1211.03125-.11718v-.14844l.01563-.13281-.03125-.11719-.04297-.10547-.10547.01563-.07422.07422-.10156.04296-.08984.0625-.07422.07422-.04297.10157-.01563.1328-.03125.1172L304.25 426l-.03125.11719-.02734.11719-.03125.12109-.02735.11719-.03125.11718-.04297.10547-.08984.0586h-.08984l-.1172-.03125-.03124-.08594.01562-.13672-.03125-.11719v-.14844l-.01171-.1328v-.14844l-.0625-.23438-.02735-.1211-.04297-.10156-.04687-.10546-.0586-.08594-.05859-.08985-.04297-.10546-.0625-.08594-.14844-.14844-.0703-.07422-.10548-.04687-.10547-.04297-.10156-.04297-.29687-.29688-.08985-.07421-.08594-.0586-.10546-.04297-.08985-.0625-.08594-.0586-.10546-.04296-.08985-.0586-.08594-.0625-.07421-.0703-.10547-.04688-.08594-.0586-.10547-.04296-.08984-.0625-.10156-.04297-.10547-.04297-.08594-.0586-.10547-.04687-.10547-.04297-.10156-.04687-.08985-.0586-.10156-.04297-.10547-.04296-.08984-.0625-.11719-.02735-.13281-.01562-.13281.01562H299.75l-.13281.01563-.11719-.03125-.08984-.0586-.07422-.07422-.08985-.05859-.10156-.04688h-.14844l-.12109-.02734-.10156-.04297-.07422-.07422-.11719-.17968-.08984-.0586-.10156-.04297-.08985-.0625-.10547-.04296-.08984-.0586-.08594-.0586-.10547-.04687-.0586-.08594-.05858-.08984-.04297-.10547-.04688-.10156-.07422-.07422-.08594-.0586-.07421-.07421-.08985-.0586-.22265-.22265-.04297-.10547-.03125-.26563.10547-.04296h.14453l.10547.04296.07421.07422.08985.0586.08594.0586.10546.04687.08985.05859.14844.14844.0703.07422.14845.14843.0625.08594.07421.07422.08594.0586.07422.07421.08985.0625.08984.0586.08594.05859.26953.17578.10156.04688.10547.04296.10156.04297.04688-.07421.05859-.08594.07422-.07422.07031-.07422.10547.04297.07422.07422.0586.08984.04296.10156.04688.10547.04296.10547.1211.02735.11719-.02735.07421-.08984.04297-.10547.0586-.08985.07422-.07421.10546-.04297.1172-.02735.1328.01172.08985.0586.14844.14843.05859.08985.04297.10547.04687.10156.04297.10547.04297.10156.10547.04688.10547.04296.13281.01563.08594-.0586.0586-.08984.07421-.07422.10547-.04297.11719.02735.10547.04687.10156.04297.10547.04297.10156.04688.17969.11718v.11719l-.01563.13281.01563.13281.01562.13672.0586.08594.10156.04688.1211.02734.11718.03125h.14844l.11719-.03125.05859-.08984.17969-.1172.05859-.08983.07422-.07422.0586-.08594.11718-.17969.17969-.11719.11719.03125.08984.0586.04297.07422-.01563.1328v.1172l.08985.05859h.14843l.13282-.01563.1328-.01171.26563-.03125.10547-.04297.11719-.03125.1211-.02735.07421-.07421.07031-.07422.0625-.08985-.01562-.10547-.04688-.10156-.10156-.04297-.10547-.01562-.11718.02734-.26563.03125h-.14844l-.07421-.07422-.08985-.0586-.11719-.03124-.11718-.02735-.13282-.01562h-.14843l-.13282.01563h-.29687l-.10547-.04688-.14844-.14844-.04297-.10156-.05859-.08984.22266-.22266.08593-.0586.10547-.04296.11719-.03125.13281-.01563.13281.01563.13672.01562.10157.04297.1328-.01172.08985-.0625.10156-.04297.0625-.08984-.04687-.10156-.08984-.0586-.1172-.03125-.10155-.04296-.0586-.08985-.0625-.08984v-.11719l.01563-.13281.10547-.04688.07421-.07031v-.1211l-.08984-.05859-.03125-.11719.08985-.05859.07421-.07422.04297-.10547.0586-.08984.04687-.10156.01563-.13281v-.14844l-.04688-.10547-.04297-.10156-.08984-.0586-.13281-.01562-.10157-.04297-.13671-.01563-.1172-.03125h-.4453l-.13282-.01562-.13281-.01172-.13281-.01563-.11719-.03125h-.14844l-.13281-.01562-.13281-.01172-.26563-.03125-.1211-.04297-.08593-.0586-.07422-.07421v-.14844l.01172-.13281.10547-.04688.10156-.04296.13281-.01563h.15235l.13281-.01562h.29297l.1211.03125.10156.04296.08984.0586.23438.0625.12109-.04688.08984-.05859.10156-.04297.13282-.01562.10547.04296.10156.04688.13281.01172.1211-.02735h.14453l.12109-.03125.11719-.02734.10547-.04687.07421-.07422.08594-.0586.14844-.14843.0586-.08594.04687-.10547.02734-.11719.01563-.10547-.10156-.04296-.08985-.0586-.11719-.03125-.10546-.04297-.08985-.0625-.07422-.08594-.07422-.07421-.10156-.04297-.10547-.04688-.10156-.04297-.0586-.08984-.04687-.10156-.08594-.21094-.0625-.08594-.05859-.08984-.07422-.07422-.08594-.0586h-.26953l-.11719.03126-.08984.05859-.10156.04297-.13281.01562-.10547-.01562-.02735-.11719-.0625-.08984-.11718-.03125-.10157-.04297-.14843-.14844-.03125-.11719-.01563-.10546.07422-.07422.17969-.1172.11719-.02733.11718-.03125.13672.01562.10156.04297.10547.04297.10156.04687.10547.04297.1172.03125.1328.01563.1172.02734.1328.01563.10547-.01563.08985-.0586-.07422-.07421-.10547-.04297-.07422-.07422-.07422-.08984-.14844-.14844-.08593-.0586-.08985-.05859-.07422-.07422-.08984-.0586-.10156-.04687-.1211-.02734-.10156-.04688-.10547-.04296-.11719-.03125-.10156-.04297-.1211-.03125h-.14843l-.11719.03125-.10546.04297-.08594.0625-.17969.11718-.08594.0586-.08984.0586-.10547.04687-.08594.05859-.10547.04297-.10156.04297-.10547.04687-.07422.07422-.05859.08985-.0586.08593-.04687.10547-.0586.08594-.07421.07422-.13281-.01172-.1172-.03125h-.11718l-.07422.07422-.08984.0586-.07422.07421-.08984.0586-.08594.05859-.10547.04687-.10156.04297-.13672.01563-.10156-.04297-.14844-.14844-.10547-.04688h-.08594l-.10547.04688-.10156.04297-.1211.03125-.11718-.03125-.07422-.07422v-.11719l.03125-.1211.07422-.0703.0586-.08985.07421-.07422.11719-.03125.10547-.04296h.29297l.13281-.01563.13672-.01563.10156-.04296.08985-.0586.10156-.04687.08984-.0586.13281-.01171.08985.05859.13281.01172.08984-.0586.08594-.05859.10547-.04297.08984-.0586.08594-.0625.08985-.05859.14843-.14843.0586-.08594.05859-.08985.10547-.04296.13281-.01563.11719.02735.1211.03125.05859-.0586.05859-.08984.03125-.26563.02734-.11719.10547.01172.13281.01563.10157-.04297.08984-.0586.0586-.08984.07421-.07422.0586-.08984.04687-.10156.01172-.13281-.01172-.13282-.04687-.10547-.14844-.14843-.0586-.08985-.05859-.08594-.04297-.10546v-.44532l.01563-.1328v-.14845l.01172-.1328-.0586-.0586-.08984.0586-.10156-.04298-.17969-.11719-.08594-.05859-.0625-.08984-.0586-.08985-.07421-.07421-.08594-.0586-.1211.03125-.10155.01172-.10547.04688-.08594.05859-.10547.04297-.14844.14844-.08984.05859-.08594.0586-.08984.0625-.10547.04296-.13281.01563v-.1211l.10547-.04297.11718-.03125.07422-.0703.04297-.10548v-.14844l-.02734-.11718-.14844-.14844-.13281-.01563h-.14844l-.11719.03125-.10547.04297-.10156.04297-.08984.0625-.11719.02735-.07422-.07422.01172-.13281-.04297-.10157-.04297-.10547-.08984-.05859-.11719.02734-.1211.03125-.11718.03125-.10156.04297-.1211.03125-.10156.04297-.10547.04297-.08984.0586-.10156.01562v-.11719l.01562-.13281-.0586-.08985-.07421.04297-.14844.14844-.0586.08985-.07421.07421-.04688.10547-.04296.10156-.07422.07422-.0586.08985-.07422.07422-.05859.08593-.07422.07422-.08984.0625-.07422.07031-.07422.07422-.10156.01563-.13281.01562-.10547-.04296v-.1211l.14843-.14844.04297-.10156.0586-.08984.04687-.10156.04297-.10547.0586-.08985.03124-.11719.04297-.10156.03125-.1211.02735-.11718.04687-.10547.04297-.10156.04297-.10547.07422-.07031.08984-.0625.08985-.0586.10156-.04296h.29687l.26563-.03125.10547-.04297-.07422-.07422-.11719-.03125-.10547-.04297-.08984-.0586-.10156-.04687-.08985-.0586-.10156-.04296-.10547-.04297-.08984-.0625-.08594-.0586-.10547-.04296-.10156-.04297-.1211-.03125-.11718-.03125-.10157-.04297L297.5 410.25l-.10156-.04297-.08985-.0586-.04296-.10546-.01563-.13281.10156-.04297.13281-.01563.13672.01563.13282-.01563.10156-.04297.0586-.08984.01562-.10547-.08985-.0586-.07421-.07421-.10157-.04297-.08984-.0586-.14844-.14843-.04297-.10547-.01562-.13281v-.29297l-.0586-.08985-.08984-.05859-.07422-.07422-.04297-.10547-.03125-.11718-.0586-.08985-.07421-.07422-.11719-.02734-.07422-.07422-.08984-.0586-.08984-.0625-.08594-.05859-.07422-.07421-.0586-.08594-.04687-.10547-.08594-.0586-.14843-.14843-.19532-.0586-.1328.01563-.10157.04297-.07422.07422-.04688.10156-.04296.10547-.0586.08984-.0586.08594-.29687.29687-.08984.0586h-.08594l-.0625-.08594-.04297-.10547.03125-.11719.0586-.08984.02734-.11719-.01172-.13281-.08984-.0625-.10547.04688-.11719.02734-.11719.03125-.26953.17578-.10156.04688-.11719.02734-.10546.04687-.08985.0586-.10156.04297-.0586-.08594-.04687-.10547.01563-.13281.04687-.10547.07031-.07422.07422-.07031.0586-.08985v-.14843l-.04297-.10547h-.23829l-.10156.04687-.03125.11719-.02734.11719-.03125.1211-.07422.04296-.13281.01563-.07422-.04688-.04297-.10156-.04297-.10547-.04687-.10156-.04297-.10547-.1211.03125-.10156.04297-.13281.01562-.11719.03125-.10547.04297-.08984.0586-.10156.04687-.1211.02734-.13281.01563-.10156-.04297-.0586-.08985-.04687-.10546-.04297-.10157-.04297-.10546v-.1172l.0586-.08984.08593-.05859.17969-.11719.10156-.04687.10547-.04297.10547-.0586.10156-.04296.08985-.0625.10156-.04297.10547-.0586.10156-.04687.08984-.0586.10547-.04296.10156-.04297.08985-.0625.10156-.04297.13672-.01563.11719.03125.10156.04297.1211.03125.10156.04297.10546.04688.10157.04296.10547.04297.10156.04688.10547.04297.10156.04297.10547.04687.08594.0586.10546.04296.1172.03125.10546.04297.10156.04688.08985.0586.10547.04296.10156.04297.10547.04687.11719.02735.10156.04687.1211.02735h.14843l.08594-.0586.01562-.10156.0586-.08984-.02735-.1172-.07422-.07421-.11719-.17969-.07421-.07422-.08985-.07421-.17969-.1172-.08593-.05859-.10547-.04296-.10156-.04688-.26954-.17578-.05859-.08985-.07422-.07421-.0586-.08985-.04296-.10156-.03125-.11719-.01563-.13672v-.5625l-.01171-.1328-.01563-.13282-.03125-.11719-.01562-.13281-.01172-.13281-.03125-.1211-.22266-.22265-.0586-.08594-.01562-.10547.03125-.11719.13281-.01562v-91.41406H172.9922v1.45312l-.0586.23438-.35156 1.05078-.17187.52343-.1172.34766-.17577.41016-.11719.17187-.23438.29297-.23046.0586h-.35157l-.11718.05859-.23047.40625v.29297l.11719.17578.23046.23047.1172.23437.64062.75781.29297.46485.17578.23437.23047.35156.23437.34766.64063.8164.17578.46485.17187.41016.11719.69531.17578.46875.11719 1.39844.0586.46484v.875l.11718 1.04688v4.78125l-.0586.46484-.35156 1.28125-.17578.52344-.11328.41015-.35156.9297L172.93359 336l-.23437.58203-.11719.17578-.17187.34766-.17578.40625-.35157.8164-.0586.29297-.11327.29297-.11719.28906-.0586.17579-.11718.875-.0586.40625-.05859.11718-.0586.17579-.05859.17187-.23047.52734-.11718.17188v.23437l-.11719.23438-.0586.17187-.17577.58594v.28906l-.0586.17579v.29296l-.0586.11329-.05859.52734v.17187l-.05468.23438v2.6211l-.17578.8164-.1172.17578-.17577.23438-.1172.17187-.11327.23438-.58594.93359-.23047.28906-.29297.46485-.17578.23437-.28906.35156-.35156.69922-.11328.23047-.17579.41016-.17578.23046-.40625.52735-.8164.69922-.29297.17187-.28906.23438-.17579.11719-.17578.17578-.52344.40625-.52734.17578-.17187.17578-.23438.05469-.64062.17578h-.75782m12.21094 31.02344l-1.07422.44921.35938.89454 1.25-.71485.44531-.53906-.98047-.08985"/><path fill="#d3d3d3" fill-opacity="0" fill-rule="evenodd" d="M201.50781 416.59766h-.89453l.44922.6289.98047.35938.80469-.08985.4453-.98828-.17577.08985-.71485-.35547-.89453.35547m154.6211 59.0703l-.0586-.52343v-.29297l.11328-.29297.0586-.23046.46875-.46875h.11328l.11719-.11329.11718-.05859h.17579l.23437-.0586h.34766l.23437.0586.11719.0586.23047.17187.0586.17578.11718.58203v.29297l-.11719.17578-.17187.28906-.17579.17579-.52734.52343-.23047.23438-.11719.0586h-.17578l-.11718-.0586-.40625-.29297-.17579-.11719-.11718-.0586-.0586-.11327-.05468-.1172m6.64062-10.95702l-.0586-.17188v-1.10937l.0586-.17188.17578-.0586.17188-.05858h.17578l.23437-.0586.1172.0586.05858.69921-.05859.17188-.11719.17578-.11718.0586-.23438.52343-.11328.0586h-.23438l-.05859-.1172m9.61328-14.39062l-.11719-.17578v-.69922l.29297-.875.1172-.17187.17577-.35156.11328-.23047.1172-.29297.35155-.75781.1172-.23047.17187-.23438h.17578l.11719-.0586h.64062l.11719.0586.23437.23438.17188.11328.35156.29297.11719.11718.11328.17579v.11328l.11719.05859.11718.11719v.69922l-.05859.17578v.23047l-.0586.17578-.34765 1.05078-.11719.23047-.11719.23437-.11718.0586-.23047.23437-.64063.28906h-.875l-.41015-.11718-.64063-.46485"/><path fill="none" stroke="#bebebe" stroke-linecap="round" stroke-linejoin="round" stroke-miterlimit="10" stroke-width=".5" d="M467.95703 311.69531H144.02734v168.625h323.9297v-168.625"/><g clip-path="url(#a)"><path fill="#fff" fill-opacity="0" fill-rule="evenodd" d="M144 475.89063v4.4375h.0039H144V311.67188h.0039H144v164.21875"/></g><g clip-path="url(#b)"><path fill="#fff" fill-opacity="0" fill-rule="evenodd" d="M144.0039 480.32813V311.67188h17.75v134.24609l-2.64843 3.34375-.83203 4.4375.80469 4.4375 2.67578 3.03906 4.4375-2.09765 3.03125-.94141.33984-4.4375-2.59375-4.4375-.77734-.76953-4.4375-2.57422v-134.2461h48.8203v90.09766l-3.41405 3.10547-.5586 4.4414-.46484.9961-3.5 3.4414 2.01953 4.4375 1.48047 1.46876 2.16406-1.46875 2.27344-2.34375.61719 2.34375 3.82422 4.36718 4.4375.03516v.09375l-2.27344 4.38281 2.27344 2.23047 4.4375-2.1836 2.90234 4.39063 1.53516 1.40235 2.05859 3.03515 2.3789 2.36719 4.44141-.10156 1.02344 2.17187 3.41406 3.375 4.4375-.07812 3.26172-3.29688-.19922-4.4375-3.0625-3.1914-4.4375-.40625-4.4375 1.01171-4.4414-.93359-1.75391-.91797-2.6836-2.53125-4.3203-1.90625-.1172-.09375-4.4375-4.28906v-.09375l3.90625-4.40234-.24609-4.4375-3.66016-3.70313-.76171-.73437-3.67578-3.6797-1.19532-.76171-3.2461-3.10547v-90.09765h48.82423v109.01171l-1.94531 1.94532-2.4961 1.34765-3.07031 3.09375 2.8125 4.4375.25781.30469 3.28516 4.13281 1.15625.95313.94922-.95313.60937-4.4375.69922-4.4375.11328-4.4414-2.3711-1.94532V311.67188h62.13673v103.1953l-4.4375.48829-4.44141.27734-4.4375-.01172-1.6875 2.57032-2.75 1.3203-4.4375-.58202-4.4414-.3164-4.38282-.42188-.05469-.01954-.02734.01954-4.41016 1.80468-2.32421 2.63282-2.11329.48828-4.4375-.25-4.4414.39062-4.4375 1.26563-3.26953 2.54687.26562 4.4375 3.0039 2.73438 4.4375.23047 4.44141.59765 1.08204.875 3.35546 3.39844 4.4375.10547 4.4375-.76172 2.76954-2.74219 1.0078-4.4375.66016-1.26562v12.8086l-2.22265 1.76952 2.22265 1.78516 2.57032-1.78516-2.57032-1.76953v-12.8086l4.44141.76563 3.49219.5.94531.85938v14.32812l-2.55469 2.5664 2.55469 2.76954 2.42578-2.76953-2.42578-2.5664v-14.32813l.86719-.85938 3.09375-4.4375.47656-1.57031v32.95313l-4.4375 1.97656-.85156 2.14453.85156.60547 4.4375 1.64844 3.16797-2.25391-3.16797-4.1211V425.5l4.4375 1.42969 4.4414-2.1875 4.4375.48828 4.4375.17187 4.4375-1.65234 4.4375 2.21484 4.44141-2.71484 1.71485 3.82031 2.72265 2.6836.92578 1.7539-.20312 4.4375 3.71484 3.71875.95313.71875-.95313 4.19922-.23828.23828.23828.23828.23828-.23828 4.19922-.95312 4.4414-.47656 4.4375-.0625 3.00392-2.94532 1.43359-1.72265 3.0664-2.71485 1.3711-3.67187 4.4375.8164.14844 2.85547.52734 4.4375-.67578.94922-2.78906 3.48828-.52344 4.4414 1.01953 4.4375 2.29297 2.28126 1.86328 2.15625 2.57813 3.2539 1.28906 1.1836 3.14844 2.70703 4.4375-.59766 3.42968 2.33204 1.00781.58203.6836-.58204 3.7539-.26953 4.44141.08594 4.4375.04297 4.4375-.34375 4.4375-.14844 4.4414-.1836 3.40626-3.625 1.03125-.86327 4.4375-3.5.08203-.07422 4.35547-3.25781 4.4375 1.37109 4.4414-.55469 2.26563-1.9961 2.17187-.55077 3.85938-3.88672-.03906-4.4414-3.82032-3.59376-4.4375.14844-3.11718 3.44531-1.32422 1.9961-2.375 2.4453-2.0625 3.44142-1.34766.99609-3.08984 4.33984-.58594-4.33984-1.22266-4.4375-.76171-4.4414-1.8672-1.95313-3.1289 1.95312-1.3086.76563-4.4414-.58594-1.96875-.17969-2.46875-1.3789-4.4375-4.07813-3.08203-3.41797-1.35547-1.3125-4.4414-2.42578-4.4375 1.34766-4.4375-.125-4.21485-1.92188-.22265-.22265-4.4375-1.35547-4.44141.67969-1.53516-3.53907-2.90234-2.3125-2.15625-2.1289-2.28125-2.40625-4.4375-.38672-3.23828 2.79297-1.19922 1.04296-4.4414 1.9922-4.4375-2.60938-2.01954-.42578-2.41797-2.19141-4.4375-.6211-4.4414-1.46874-4.4375 2.76953-3.87891-2.92578-.5586-.6211-4.4375-2.70312V311.67188H445.8086v123.37109l-1.02343.90234 1.02343 1.03906.95704-1.03906-.95704-.90234v-123.3711h22.1875v168.65625H144.00391"/></g><path fill="#50fcfc" fill-rule="evenodd" d="M159.07813 458.13672l-.8047-4.4375.83204-4.4375 2.64844-3.34375v4.74219l-.77735 3.03906.77735 2.3125 2.53906-2.3125-2.53906-3.03906v-4.7422l4.4375 2.57423.77734.76953 2.59375 4.4375-.33984 4.4375-3.03125.9414-4.4375 2.09766-2.67578-3.03906"/><path fill="#00e8fc" fill-rule="evenodd" d="M161.7539 456.01172l-.77734-2.3125.77735-3.03906 2.53906 3.03906-2.53906 2.3125"/><path fill="#50fcfc" fill-rule="evenodd" d="M204.65625 418.1914l-2.01953-4.4375 3.5-3.4414.46484-.9961.5586-4.4414 3.41406-3.10547v2.92969l-.1914.17578-2.88282 4.4414-1.36328 2.91407-1.54688 1.52344 1.54688 2.39453L208.5 413.7539l2.07422-.75 2.03906.75.39063 4.4375 2.01172 2.29687 4.4375-1.73828.49609-.5586 1.30078-4.4375-1.79688-1.8203-2.70703-2.6172-1.73047-1.73437-4.2578-2.70703-.1836-.17578v-2.92969l3.2461 3.10547 1.1953.76172 3.67579 3.67969.76172.73437 3.66015 3.70313.2461 4.4375-3.90625 4.40234-4.4375-.03516-3.82422-4.36718-.6172-2.34375-2.27343 2.34375-2.16406 1.46875-1.48047-1.46875"/><path fill="#00e8fc" fill-rule="evenodd" d="M206.13672 416.14844l-1.54688-2.39453 1.54688-1.52344L207.5 409.3164l2.88281-4.44141.1914-.17578v2.28906l-1.58202 2.32813 1.58203 1.89843 3.08594-1.89843-3.08594-2.32813v-2.28906l.1836.17578 4.2578 2.70703 1.73047 1.73438 2.70703 2.61718 1.79688 1.82032-1.30078 4.4375-.4961.55859-4.4375 1.73828-2.01171-2.29687-.39063-4.4375-2.03906-.75-2.07422.75-2.36328 2.39453"/><path fill="#00d4fc" fill-rule="evenodd" d="M210.57422 411.21484l-1.58203-1.89843 1.58203-2.32813v2.19531l-.08984.13282.08984.10937.17969-.10937-.1797-.13282v-2.1953l3.08595 2.32812-3.08594 1.89843"/><path fill="#00c4fc" fill-rule="evenodd" d="M210.57422 409.42578l-.08984-.10937.08984-.13282.17969.13282-.1797.10937"/><path fill="#50fcfc" fill-rule="evenodd" d="M219.45313 429.30078l-2.27344-2.23047 2.27344-4.38281 4.4375 4.28906.11718.09375 4.32031 1.90625 2.6836 2.53125 1.7539.91797 4.44141.9336 4.4375-1.01172v1.625l-3.46875 1.97265 1.67188 4.4375 1.79687 1.77344 4.4375-.26172 1.4961-1.51172-.50391-4.4375-.99219-1.03125-4.4375-.9414v-1.625l4.4375.40625 3.0625 3.1914.19922 4.4375-3.26172 3.29688-4.4375.07812-3.41406-3.375-1.02344-2.17187-4.4414.10156-2.37891-2.36719-2.0586-3.03515-1.53515-1.40235-2.90234-4.39062-4.4375 2.1836"/><path fill="#00e8fc" fill-rule="evenodd" d="M239.84766 440.38281l-1.67188-4.4375 3.46875-1.97265 4.4375.9414.99219 1.03125.5039 4.4375-1.49609 1.51172-4.4375.26172-1.79687-1.77344"/><path fill="#50fcfc" fill-rule="evenodd" d="M254.69922 431.50781l-2.8125-4.4375 3.07031-3.09375v2.07422l-1.00781 1.01953 1.00781 1.4961 1.84375-1.4961-1.84375-1.01953v-2.07422l2.4961-1.34765 1.9453-1.94532 2.3711 1.94532-.11328 4.4414-.69922 4.4375-.60937 4.4375-.94922.95313-1.15625-.95313-3.28516-4.13281-.25781-.30469"/><path fill="#00e8fc" fill-rule="evenodd" d="M254.95703 428.5664l-1.00781-1.49609 1.00781-1.01953 1.84375 1.01953-1.84375 1.4961"/><path fill="#50fcfc" fill-rule="evenodd" d="M265.26953 431.50781l-.26562-4.4375 3.26953-2.54687 4.4375-1.26563 4.4414-.39062 4.4375.25 2.11329-.48828 2.32421-2.63282 4.41016-1.80468.02734-.01954.0547.01954 4.3828.42187 4.44141.3164v1.5625l-4.4414.22266-4.4375-.05468-2.85157 1.96875-1.58594 2.16015-4.4375-.71094-4.4375-.35156-4.4414.53516-4.1875 2.8086-.25 3.40624-.14063 1.03125.14063.1289 4.4375.60548 4.4414 1.48047 2.7422 2.22265 1.6953 1.71485 4.4375.30078 4.4375-1.84375.17188-.17188 2.60547-4.4375 1.66015-3.17578 4.44141 1.80469 4.4375.47656 3.05078-3.54297 1.01563-4.4414-4.06641-.96875-4.4375-1.16797v-1.5625l4.4375.58203 2.75-1.32031 1.6875-2.57032 4.4375.01172v3.01563l-4.35547 3.98047 4.35547 2.97265 3.7461-2.97265-3.7461-3.98047v-3.01563l4.4414-.27734 4.4375-.48828v2.15234l-3.4375 1.17188 3.4375 3.625 3.29298.8125 1.14453.11328.23046-.11328-.23046-.19141-2.8086-4.2461-1.6289-1.17187v-2.15234l4.4375 2.70312.55859.6211 3.8789 2.92578 4.4375-2.76953v2.26953l-2.35546 2.01172 2.35547 1.5703 2.20703-1.5703-2.20703-2.01172v-2.26953l4.4414 1.46875 4.4375.62109 2.41797 2.1914 2.01953.42579 4.4375 2.60937 4.4414-1.99219 1.19923-1.04296 3.23828-2.79297v3.03906l-4.4375 4.1914-.0039.00391-4.4375 1-1.0625-1-3.375-2.88281-4.39844 2.88281 2.34375 4.4375-.57422 4.4375 2.6289 2.6289 2.38672 1.8086 2.05078 2.05078 4.4414-1.1914 4.4375-.16406.70704-.69532-.70703-2.27734-.1836-2.16016.1836-.77344 4.4375.7422 3.22656-4.40626.96485-4.4375-4.19141-4.17969-4.4375-.01562v-3.03906l4.4375.38672 2.28125 2.40625 2.15625 2.1289 2.90234 2.3125 1.53516 3.53906 4.4414-.67968v2.3125l-3.42187 3.70312 2.05078 4.4375-3.07031 4.3164-.09766.1211-1.48828 4.4414 1.58594 3.32032.41406 1.11719L379.23438 458l.8203.13672 3.6172 3.01172 2.8164-3.01172 1.6211-.84766.14453.84766.2539 4.4375 4.03906 3.9375 4.4375-.26172 4.44141.20313 4.4375-.13672 4.4375-.69922 4.4375-.46094 4.4414-1.125 1.3711-1.45703 3.0664-2.57031 2.32813-1.8672.01953-4.4375-2.34765-3.45312-4.4375-.92187-.20703-.0625-4.23438-3.19531-4.4375 2.0703-2.32031-3.3164-2.11719-2.04297-3.16406-2.39453-1.27344-1.35937-2.8711-3.07813-1.5703-1.10937-2.79297 1.10937-1.64454.30078-4.4375.10938-.17578-.41016-4.26171-3.47656-4.4375-.22656v-2.3125l4.4375 1.35547.22265.22265 4.21485 1.92188 4.4375.125 4.4375-1.34766 4.4414 2.42578 1.35547 1.3125 3.08203 3.41797 4.4375 4.07813 2.46875 1.3789 1.96875.17969 4.4414.58594 1.3086-.76563 3.1289-1.95312 1.8672 1.95312.76171 4.4414 1.22266 4.4375.58594 4.33985 3.08984-4.33984 1.34766-.9961 2.0625-3.4414 2.375-2.44531 1.32422-1.9961 3.11718-3.44531 4.4375-.14844v1.53125l-4.4375 1.26172-.72656.80078-2.8711 4.4414 3.59766 3.26954 4.4375-.50781 2.7422-2.76172-.55079-4.4414-2.1914-2.0625v-1.53126l3.8203 3.59375.03907 4.4414-3.85938 3.88673-2.17187.55078-2.26563 1.9961-4.4414.55468-4.4375-1.3711-4.35547 3.25782-.08203.07422-4.4375 3.5-1.03125.86328-3.40625 3.625-4.4414.1836-4.4375.14843-4.4375.34375-4.4375-.04297-4.44142-.08594-3.7539.26954-.6836.58203-1.0078-.58204-3.4297-2.33203-4.4375.59766-3.14843-2.70703-1.28906-1.1836-2.57813-3.2539-1.86328-2.15625-2.29297-2.28125-1.01953-4.4375.52344-4.4414 2.78906-3.48829.67578-.94922-.52734-4.4375-.14844-2.85547-4.4375-.8164-1.3711 3.67187-3.0664 2.71485-1.4336 1.72265-3.0039 2.94531-4.4375.0625-4.4414.47657-4.19923.95312-.23828.23828-.23828-.23828.23828-.23828.95313-4.19922-.95313-.71875-3.71484-3.71875.20312-4.4375-.92578-1.7539-2.72265-2.6836-1.71485-3.82031-4.4414 2.71484-4.4375-2.21484-4.4375 1.65234-4.4375-.17187-4.4375-.48828-4.44141 2.1875-4.4375-1.42969-.47656 1.57031-3.09375 4.4375-.86719.85938-.94531-.85938-3.49219-.5-4.4414-.76562-.66016 1.26562-1.00781 4.4375-2.76954 2.74219-4.4375.76172-4.4375-.10547-3.35546-3.39844-1.08204-.875-4.4414-.59765-4.4375-.23047-3.0039-2.73438"/><path fill="#00e8fc" fill-rule="evenodd" d="M268.27344 431.63672l-.14063-.1289.14063-1.03126.25-3.40625 4.1875-2.8086 4.4414-.53515v1.42578l-4.4414.78516-1.6914 1.13281 1.6914 2.03125 4.4414 2.36328.02735.04297 4.41015 3.67578 4.4375.23829 4.4375-2.09766 1.11329-1.8164-1.11329-1.76563-4.4375-1.16406-2.01562-1.50782-2.42188-1.39062-4.4375-.52735v-1.42578l4.4375.35156 4.4375.71094 1.58594-2.16015 2.85156-1.96875v6.3203l-.14843.08985.14843.02344.10547-.02344-.10547-.08984v-6.32031l4.4375.05468 4.44141-.22265v2.75l-2.8789 3.82812 2.8789 1.61328 4.4375.16797 1.53516-1.78125-1.53516-2.58203-4.4375-1.2461v-2.75l4.4375 1.16798 4.0664.96875-1.01562 4.4414-3.05078 3.54297-4.4375-.47656-4.4414-1.80469-1.66016 3.17578-2.60547 4.4375-.17188.17188-4.4375 1.84375-4.4375-.30078-1.6953-1.71485-2.7422-2.22265-4.4414-1.48047-4.4375-.60547"/><path fill="#00d4fc" fill-rule="evenodd" d="M272.71094 429.10156l-1.6914-2.03125 1.6914-1.13281 4.4414-.78516v1.4297l-2.28515.48827 2.28515 1.11719 2.38672 3.32031 2.05078 1.71094 4.4375-.59375 2.42188-1.11719-2.42188-.83594-4.4375-3.01953-1.23828-.58203-3.19922-.48828v-1.42969l4.4375.52735 2.42188 1.39062 2.01562 1.50781 4.4375 1.16407 1.11329 1.76562-1.11329 1.8164-4.4375 2.09767-4.4375-.23829-4.41015-3.67578-.02735-.04297-4.4414-2.36328"/><path fill="#00c4fc" fill-rule="evenodd" d="M277.15234 428.1875l-2.28515-1.11719 2.28515-.48828 3.19922.48828 1.23828.58203 4.4375 3.01954 2.42188.83593-2.42188 1.11719-4.4375.59375-2.05078-1.71094-2.38672-3.32031"/><path fill="#50fcfc" fill-rule="evenodd" d="M290.46484 426.98047l-.14843.08984.14843.02344.10547-.02344-.10547-.08984m4.4375 19.625l-2.22265-1.78516 2.22265-1.76953 2.57032 1.76953-2.57032 1.78516"/><path fill="#00d4fc" fill-rule="evenodd" d="M299.34375 428.6836l-2.8789-1.61329 2.8789-3.82812v3.4375l-.29297.39062.29297.16406 4.4375-.14843.01563-.01563-.01563-.02734-4.4375-.36328v-3.4375l4.4375 1.2461 1.53516 2.58202-1.53516 1.78125-4.4375-.16797"/><path fill="#00c4fc" fill-rule="evenodd" d="M299.34375 427.23438l-.29297-.16407.29297-.39062 4.4375.36328.01563.02734-.01563.01563-4.4375.14844"/><path fill="#50fcfc" fill-rule="evenodd" d="M303.78125 452.03125l-2.55469-2.76953 2.55469-2.5664 2.42578 2.5664-2.42578 2.76953m0 11.14844l-.85156-.60547.85156-2.14453 4.4375-1.97656 3.16797 4.12109-3.16797 2.2539-4.4375-1.64843"/><path fill="#00e8fc" fill-rule="evenodd" d="M312.65625 425.60156l-4.35547-2.97265 4.35547-3.98047v2.96875l-1.10938 1.01172 1.10938.7578.95703-.7578-.95703-1.01172v-2.96875l3.7461 3.98047-3.7461 2.97265"/><path fill="#00d4fc" fill-rule="evenodd" d="M312.65625 423.38672l-1.10938-.75781 1.10938-1.01172.95703 1.01172-.95703.7578"/><path fill="#00e8fc" fill-rule="evenodd" d="M321.53516 421.8164l-3.4375-3.625 3.4375-1.17187 1.6289 1.17188 2.8086 4.24609.23046.1914-.23046.11329-1.14454-.11328-3.29296-.8125m13.3125 2.3828l-2.35547-1.5703 2.35547-2.01172 2.20703 2.01172-2.20703 1.5703m11.26171 7.3086l-2.34375-4.4375 4.39844-2.88281 3.375 2.88281 1.0625 1 4.4375-1 .0039-.0039 4.4375-4.19141 4.4375.01563v1.29296l-4.4375 1.03516-1.95702 1.85156-2.48047.95313-4.4414 2.1211-3.26954-3.07423-1.16797-1-1.52344 1 1.52344 3.44922.83203.98828-.83203 1.11719-.8164 3.32031.8164.8164 4.4375 3.46876 4.4414-.72656 3.20704-3.5586 1.03125-4.4375.19922-.79297 1.21875.79297 3.21875 1.375 1.00781-1.375 1.88672-4.4375-2.89453-2.88672v-1.29296l4.1914 4.17968-.96484 4.4375-3.22656 4.40625-4.4375-.74219-.1836.77344.1836 2.16016.70703 2.27734-.70703.69531-4.4375.16407-4.4414 1.1914-2.05079-2.05078-2.38672-1.8086-2.6289-2.6289.57421-4.4375"/><path fill="#00d4fc" fill-rule="evenodd" d="M348.16406 430.51953l-1.52344-3.44922 1.52344-1 1.16797 1 3.26953 3.07422 4.4414-2.1211v.95313l-3.93358 2.53125-.50782.45313-3.75 3.98437 3.75 3.21485 4.4414-.8125 2.16407-2.40235.91016-4.4375-3.07422-2.53125v-.95312l2.48047-.95313 1.95703-1.85156 4.4375-1.03516v1.29688l-3.78516 1.58984 3.78516 3.07031 1.59375-3.0703-1.59375-1.58985v-1.29688l2.89453 2.88672-1.88672 4.4375-1.00781 1.375-3.21875-1.375-1.21875-.79297-.19922.79297-1.03125 4.4375-3.20703 3.5586-4.4414.72656-4.4375-3.46875-.81641-.8164.8164-3.32032.83203-1.11719-.83203-.98828"/><path fill="#00c4fc" fill-rule="evenodd" d="M352.60156 439.16016l-3.75-3.21485 3.75-3.98437.50781-.45313 3.9336-2.53125v.95313l-2.44922 1.57812-1.99219 1.77735-2.5039 2.66015 2.5039 2.14453 4.4414-.90234 1.1172-1.24219.79687-4.4375-1.91406-1.57812v-.95313l3.07422 2.53125-.91016 4.4375-2.16406 2.40235-4.4414.8125"/><path fill="#00b8fc" fill-rule="evenodd" d="M352.60156 438.08984l-2.5039-2.14453 2.5039-2.66015 1.99219-1.77735 2.44922-1.57812v.95703l-.96485.6211-3.47656 3.10546-1.2539 1.33203 1.2539 1.07422 4.4414-.99219.07423-.08203.67969-4.4375-.75391-.6211v-.95702l1.91406 1.57812-.79687 4.4375-1.1172 1.24219-4.4414.90234"/><path fill="#00a8fc" fill-rule="evenodd" d="M352.60156 437.01953l-1.2539-1.07422 1.2539-1.33203v1.32422l-.0039.00781.0039.0039.02344-.0039-.02344-.00781v-1.32422l3.47656-3.10547.96485-.6211.7539.6211-.67968 4.4375-.07422.08203-4.4414.9922"/><path fill="#009800" fill-rule="evenodd" d="M352.60156 435.94922l-.0039-.0039.0039-.00782.02344.00781-.02344.0039"/><path fill="#00c4fc" fill-rule="evenodd" d="M365.91797 430.14063l-3.78516-3.07032 3.78516-1.58984v1.29297l-.70313.29687.70313.5664.29687-.5664-.29687-.29687v-1.29297l1.59375 1.58984-1.59375 3.07031"/><path fill="#00b8fc" fill-rule="evenodd" d="M365.91797 427.63672l-.70313-.5664.70313-.29688.29687.29687-.29687.5664"/><path fill="#00e8fc" fill-rule="evenodd" d="M374.79297 452.58203l-1.58594-3.32031 1.48828-4.4414.09766-.1211 3.07031-4.3164-2.05078-4.4375 3.42188-3.70313v1.57812l-1.96485 2.125 1.96485 2.98438 1.6914 1.45312-1.6914 2.59375-1.4375 1.84375-2.06641 4.4414 1.70312 4.4375 1.80079 1.92188 2.73046-1.92187 1.70704-1.83594 4.4375.5664.35156 1.26954.79297 4.4375.21093 4.4375 3.08204 3.0039 4.4375-.15234 4.4414.39063 4.4375-.42579 4.4375-1.30078 4.4375-.97656 1.35547-.53906 3.08594-1.04297 3.76562-3.39453.61719-4.4375-4.38281-3.67188-2.5625-.76562-1.8789-1.42188-2.16407 1.42188-2.27344.96094-4.4375-.29297-2.60547-.66797-1.83203-1-2.26953-3.4414-.79297-4.4375-1.3789-1.4336-4.4375-.67188-3.88282 2.10547-.55469.98438-.54296-.98438-1.67579-4.4375-2.21875-1.8086-4.4375-.3164v-1.57812l4.4375.22656 4.26172 3.47656.17579.41016 4.4375-.10938 1.64453-.30078 2.79296-1.10937 1.57032 1.10937 2.8711 3.07813 1.27343 1.35937 3.16406 2.39453 2.11719 2.04297 2.32031 3.3164 4.4375-2.0703 4.23438 3.1953.20703.0625 4.4375.92188 2.34765 3.45313-.01953 4.4375-2.32812 1.86719-3.0664 2.5703-1.3711 1.45704-4.4414 1.125-4.4375.46094-4.4375.69922-4.4375.13671-4.44142-.20312-4.4375.26172-4.03906-3.9375-.2539-4.4375-.14454-.84766-1.62109.84766-2.8164 3.01172-3.6172-3.01172-.8203-.13672-4.02735-4.30078-.41406-1.11719"/><path fill="#00d4fc" fill-rule="evenodd" d="M377.4336 453.69922l-1.70313-4.4375 2.0664-4.4414 1.4375-1.84376v3.78906l-1.42187 2.4961 1.42188 3.46484 3.14062-3.46484-3.14063-2.4961v-3.78906l1.69141-2.59375-1.6914-1.45312-1.96485-2.98438 1.96485-2.125v1.57422l-.50782.55078.50781.77344 4.27344 3.66406.16406.16406v2.58985l-2.58203 1.6836 2.58204 2.11327 2.46093-2.11328-2.46094-1.6836v-2.58983l.23047-.16407-.05078-4.4375-.17969-.14453-4.4375-.40625v-1.57422l4.4375.3164 2.21875 1.8086 1.67579 4.4375.54296.98438.5547-.98438 3.8828-2.10547v2.03125l-.13671.07422-1.5586 4.4375-2.35156 4.4414.86328 4.4375.89063 4.4375.16796 4.4375 2.125 2.07423 4.4375-.04688 4.44141.57813 4.4375-.71875 4.42578-1.88672.01172-.00781 4.4375-1.7461 4.4414-1.03906 1.82423-1.64453 1.71484-4.4375-3.53906-2.96485-4.4414-1.30078-4.4375 1.9375-4.4375 1.23829-4.4375 1.01562-2.1172-4.36328-2.32421-3.03516-2.60157-1.40625-1.59375-4.4375-.24219-.07422v-2.03125l4.4375.67188 1.37891 1.4336.79297 4.4375 2.26953 3.4414 1.83203 1 2.60547.66797 4.4375.29297 2.27344-.96094 2.16406-1.42188 1.8789 1.42188 2.5625.76562 4.38282 3.67188-.61719 4.4375-3.76562 3.39453-3.08594 1.04297-1.35547.53906-4.4375.97656-4.4375 1.30079-4.4375.42578-4.4414-.39063-4.4375.15235-3.08204-3.00391-.21093-4.4375-.79297-4.4375-.35156-1.26953-4.4375-.5664-1.70704 1.83593-2.73046 1.92187-1.80079-1.92187"/><path fill="#00c4fc" fill-rule="evenodd" d="M379.23438 452.72656l-1.42188-3.46484 1.42188-2.4961 3.14062 2.4961-3.14063 3.46484m0-16.00781l-.5078-.77344.5078-.55078 4.4375.40625.1797.14453.05077 4.4375-.23046.16406-.16407-.16406-4.27344-3.66406"/><path fill="#00e8fc" fill-rule="evenodd" d="M383.67188 443.13672l-2.58204 1.6836 2.58204 2.11327 2.46093-2.11328-2.46094-1.6836"/><path fill="#00c4fc" fill-rule="evenodd" d="M389.36328 453.69922l-.86328-4.4375 2.35156-4.4414 1.5586-4.4375.13671-.07423.2422.07422 1.59374 4.4375 2.60156 1.40625v3.19531l-4.4375.77735-2.28125 3.5.98829 4.4375.125 4.4375 1.16796 1.14062 4.4375.0625 4.44141.76954 4.4375-1.01172 2.25-.96094 2.1875-1.71094 4.4375-2.42578 2.97656-.30078 1.46485-.08594 2.69531-4.35156-2.69531-2.25781-4.4414-1.13672-4.4375 2.21484-2.81642 1.17969-1.62109.60156-4.4375.41797-1.22656-1.01953-3.21485-4.27735v-3.1953l2.32422 3.03515 2.1172 4.36328 4.4375-1.01563 4.4375-1.23828 4.4375-1.9375 4.4414 1.30079 3.53906 2.96484-1.71484 4.4375-1.82422 1.64453-4.4414 1.03906-4.4375 1.7461-.01173.0078-4.42578 1.88673-4.4375.71875-4.4414-.57813-4.4375.04688-2.125-2.07422-.16797-4.4375-.89063-4.4375"/><path fill="#00b8fc" fill-rule="evenodd" d="M391.2539 458.13672l-.98827-4.4375 2.28125-3.5 4.4375-.77735v1.65625l-4.4375.50782-1.37891 2.11328 1.08594 4.4375.08203 4.4375.21094.21094 4.4375.16796 4.4414.95704 4.4375-1.3047.07422-.03124 4.36328-3.41016 1.8125-1.02734 2.625-1.02735 4.4414-.42187 1.85157-2.98828-1.85156-1.55078-4.4414-.97266-4.4375 2.48828-.07813.03516-4.35938 1.61328-4.4375.4414-2.47265-2.05468-1.96875-2.6211v-1.65625l3.21484 4.27735 1.22656 1.01953 4.4375-.41797 1.6211-.60156 2.8164-1.17969 4.4375-2.21484 4.4414 1.13672 2.69532 2.2578-2.69531 4.35157-1.46485.08594-2.97656.30078-4.4375 2.42578-2.1875 1.71094-2.25.96094-4.4375 1.01171-4.4414-.76953-4.4375-.0625-1.16797-1.14062-.125-4.4375"/><path fill="#00a8fc" fill-rule="evenodd" d="M392.2539 458.13672l-1.08593-4.4375 1.3789-2.11328 4.4375-.50781v1.65625l-4.4375.23437-.47656.73047.47656 1.89453.89063 2.54297 3.54688 3.72656 1.46093.71094 2.98047.69922 2.36328-.69922 2.07422-1.55469 3.6289-2.88281-3.6289-1.8125-4.4375.46094-3.71484-3.08594-.72656-.96485v-1.65625l1.96875 2.6211 2.47265 2.05469 4.4375-.44141 4.35938-1.61328.07812-.03516 4.4375-2.48828v.8711l-2.9336 1.65234 2.9336 2.23047 4.4414-.60547 1.00391-1.625-1.0039-.84375-4.4414-.8086v-.87109l4.4414.97266 1.85156 1.55078-1.85156 2.98828-4.4414.42188-2.625 1.02734-1.8125 1.02734-4.36329 3.41016-.07422.03125-4.4375 1.30469-4.4414-.95704-4.4375-.16796-.21094-.21094-.08203-4.4375"/><path fill="#009800" fill-rule="evenodd" d="M392.54688 455.59375l-.47657-1.89453.47656-.73047 4.4375-.23438v1.78907l-2.29296 3.61328 2.29296 2.41015 4.16797 2.02735.27344.0664.21485-.0664 4.22265-3.16797 1.59766-1.26953-1.59766-.79688-4.4375.48047-4.4414-3.29687v-1.78906l.72656.96484 3.71484 3.08594 4.4375-.46094 3.6289 1.8125-3.6289 2.88281-2.07422 1.55469-2.36328.69922-2.98047-.69922-1.46094-.71094-3.54687-3.72656-.89063-2.54297"/><path fill="#00ac00" fill-rule="evenodd" d="M396.98438 460.54688l-2.29297-2.41016 2.29296-3.61328V456.5l-1.03906 1.63672 1.03906 1.09375 2.41797-1.09375-2.41796-1.63672v-1.97656l4.4414 3.29687 4.4375-.48047 1.59766.79688-1.59766 1.26953-4.22265 3.16797-.21485.0664-.27344-.0664-4.16796-2.02735"/><path fill="#00c800" fill-rule="evenodd" d="M396.98438 459.23047l-1.03907-1.09375 1.03906-1.63672 2.41797 1.63672-2.41796 1.09375"/><path fill="#009800" fill-rule="evenodd" d="M414.73828 455.92969l-2.9336-2.23047 2.9336-1.65235v.8711l-1.38672.78125 1.38672 1.05469 4.4414-.79297.16016-.26172-.16015-.13672-4.4414-.64453v-.8711l4.4414.8086 1.0039.84375-1.0039 1.625-4.4414.60547"/><path fill="#00ac00" fill-rule="evenodd" d="M414.73828 454.7539l-1.38672-1.05468 1.38672-.78125 4.4414.64453.16016.13672-.16015.26172-4.4414.79297"/><path fill="#00e8fc" fill-rule="evenodd" d="M441.3711 452.53125l-3.59766-3.26953 2.8711-4.4414.72655-.80079 4.4375-1.26172v3.35156l-3.21875 3.15235 3.21875.88281.87891-.88281-.8789-3.15235v-3.35156l2.1914 2.0625.55078 4.4414-2.74219 2.76173-4.4375.50781"/><path fill="#00d4fc" fill-rule="evenodd" d="M445.8086 450.14453l-3.21876-.88281 3.21875-3.15235.87891 3.15235-.8789.88281"/><path fill="#50fcfc" fill-rule="evenodd" d="M445.8086 436.98438l-1.02344-1.03907 1.02343-.90234.95704.90234-.95704 1.03906"/><g clip-path="url(#c)"><path fill="#fff" fill-opacity="0" fill-rule="evenodd" d="M467.9961 480.32813H468V311.67188h-.0039H468v168.65625h-.0039"/></g><path fill="#fff" fill-opacity="0" fill-rule="evenodd" d="M306.32813 437.39453l3.7578-4.46875-7.6289-6.41015-3.75781 4.47265 7.6289 6.40625"/><path fill-rule="evenodd" d="M302.35547 429.48828l.32812-.39062 4.82032 4.05078-.50782.60156-3.4375-2.88672-.89453 1.0625-.42578-.35937.3125-.46875.1211-.22657.07812-.23437.02344-.2461-.05078-.26953-.13282-.29687-.23437-.33594"/><path fill="#fff" fill-opacity="0" fill-rule="evenodd" d="M326.76172 426.03125l5.83594.25781.4375-9.94922-5.83594-.2578-.4375 9.94921"/><path fill-rule="evenodd" d="M330.61719 418.0664l.50781.02344-.27734 6.28907-.78907-.03516.19922-4.48438-1.38672-.0625.02344-.55468.5625-.03906.2539-.04297.23438-.08204.21094-.1328.17969-.19923.15625-.28906.125-.39062"/><path fill="#fff" fill-opacity="0" fill-rule="evenodd" d="M453.07031 454.34766l2.20313-5.41016-9.22656-3.7539-2.19922 5.41015 9.22265 3.7539"/><path fill-rule="evenodd" d="M446.86328 448.04297l.1914-.46875 5.83204 2.3711-.29688.73046-4.16015-1.69531-.52344 1.28906-.51563-.21094.15235-.54296.04687-.25391.00391-.2461-.05469-.24218-.1289-.23828-.21875-.2422-.32813-.25"/><g clip-path="url(#d)"><path fill="none" stroke="#000" stroke-linecap="round" stroke-linejoin="round" stroke-miterlimit="10" stroke-width=".5" d="M147.3711 479.33594l-6.7422 1.98437"/></g><g clip-path="url(#e)"><path fill="none" stroke="#000" stroke-linecap="round" stroke-linejoin="round" stroke-miterlimit="10" stroke-width=".5" d="M146.39063 479.625l.85937.875"/></g><g clip-path="url(#f)"><path fill="none" stroke="#000" stroke-linecap="round" stroke-linejoin="round" stroke-miterlimit="10" stroke-width=".5" d="M160.61719 479.125l-6.60547 2.40625"/></g><g clip-path="url(#g)"><path fill="none" stroke="#000" stroke-linecap="round" stroke-linejoin="round" stroke-miterlimit="10" stroke-width=".5" d="M159.65625 479.47656l.91016.82031"/></g><g clip-path="url(#h)"><path fill="none" stroke="#000" stroke-linecap="round" stroke-linejoin="round" stroke-miterlimit="10" stroke-width=".5" d="M174.05078 479.52734l-6.83984 1.60547"/></g><g clip-path="url(#i)"><path fill="none" stroke="#000" stroke-linecap="round" stroke-linejoin="round" stroke-miterlimit="10" stroke-width=".5" d="M173.05469 479.76172l.8086.92187"/></g><g clip-path="url(#j)"><path fill="none" stroke="#000" stroke-linecap="round" stroke-linejoin="round" stroke-miterlimit="10" stroke-width=".5" d="M187.375 481.09766l-6.85938-1.53907"/></g><g clip-path="url(#k)"><path fill="none" stroke="#000" stroke-linecap="round" stroke-linejoin="round" stroke-miterlimit="10" stroke-width=".5" d="M186.375 480.875l.32422 1.1836"/></g><g clip-path="url(#l)"><path fill="none" stroke="#000" stroke-linecap="round" stroke-linejoin="round" stroke-miterlimit="10" stroke-width=".5" d="M200.40234 481.90234l-6.28125-3.14843"/></g><g clip-path="url(#m)"><path fill="none" stroke="#000" stroke-linecap="round" stroke-linejoin="round" stroke-miterlimit="10" stroke-width=".5" d="M213.97266 481.23047l-6.79297-1.80469"/></g><g clip-path="url(#n)"><path fill="none" stroke="#000" stroke-linecap="round" stroke-linejoin="round" stroke-miterlimit="10" stroke-width=".5" d="M212.98438 480.96875l.27734 1.19531"/></g><g clip-path="url(#o)"><path fill="none" stroke="#000" stroke-linecap="round" stroke-linejoin="round" stroke-miterlimit="10" stroke-width=".5" d="M227.3125 481.11719l-6.84766-1.57813"/></g><g clip-path="url(#p)"><path fill="none" stroke="#000" stroke-linecap="round" stroke-linejoin="round" stroke-miterlimit="10" stroke-width=".5" d="M226.3164 480.88672l.32032 1.1875"/></g><g clip-path="url(#q)"><path fill="none" stroke="#000" stroke-linecap="round" stroke-linejoin="round" stroke-miterlimit="10" stroke-width=".5" d="M240.70703 480.04297l-7.0039.57031"/></g><g clip-path="url(#r)"><path fill="none" stroke="#000" stroke-linecap="round" stroke-linejoin="round" stroke-miterlimit="10" stroke-width=".5" d="M239.6875 480.125l.66406 1.03516"/></g><g clip-path="url(#s)"><path fill="none" stroke="#000" stroke-linecap="round" stroke-linejoin="round" stroke-miterlimit="10" stroke-width=".5" d="M254.03516 480.2539l-7.02735.14844"/></g><g clip-path="url(#t)"><path fill="none" stroke="#000" stroke-linecap="round" stroke-linejoin="round" stroke-miterlimit="10" stroke-width=".5" d="M253.01172 480.27734l.59766 1.07032"/></g><g clip-path="url(#u)"><path fill="none" stroke="#000" stroke-linecap="round" stroke-linejoin="round" stroke-miterlimit="10" stroke-width=".5" d="M267.23438 481.21094l-6.80079-1.76563"/></g><g clip-path="url(#v)"><path fill="none" stroke="#000" stroke-linecap="round" stroke-linejoin="round" stroke-miterlimit="10" stroke-width=".5" d="M266.2461 480.95703l.28515 1.1914"/></g><g clip-path="url(#w)"><path fill="none" stroke="#000" stroke-linecap="round" stroke-linejoin="round" stroke-miterlimit="10" stroke-width=".5" d="M280.39453 481.67578l-6.48828-2.6914"/></g><g clip-path="url(#x)"><path fill="none" stroke="#000" stroke-linecap="round" stroke-linejoin="round" stroke-miterlimit="10" stroke-width=".5" d="M293.48438 482.1289l-6.03516-3.59765"/></g><g clip-path="url(#y)"><path fill="none" stroke="#000" stroke-linecap="round" stroke-linejoin="round" stroke-miterlimit="10" stroke-width=".5" d="M306.85938 482.02344l-6.15625-3.39063"/></g><g clip-path="url(#z)"><path fill="none" stroke="#000" stroke-linecap="round" stroke-linejoin="round" stroke-miterlimit="10" stroke-width=".5" d="M320.40625 481.5039l-6.6211-2.34765"/></g><g clip-path="url(#A)"><path fill="none" stroke="#000" stroke-linecap="round" stroke-linejoin="round" stroke-miterlimit="10" stroke-width=".5" d="M319.44531 481.16016l.17969 1.21484"/></g><g clip-path="url(#B)"><path fill="none" stroke="#000" stroke-linecap="round" stroke-linejoin="round" stroke-miterlimit="10" stroke-width=".5" d="M332.65234 477.6211l-4.48437 5.41406"/></g><g clip-path="url(#C)"><path fill="none" stroke="#000" stroke-linecap="round" stroke-linejoin="round" stroke-miterlimit="10" stroke-width=".5" d="M344.69922 476.95313l-1.94531 6.75"/></g><g clip-path="url(#D)"><path fill="none" stroke="#000" stroke-linecap="round" stroke-linejoin="round" stroke-miterlimit="10" stroke-width=".5" d="M356.46094 476.86328l1.16015 6.92969"/></g><path fill="none" stroke="#000" stroke-linecap="round" stroke-linejoin="round" stroke-miterlimit="10" stroke-width=".5" d="M356.6289 477.8711l.97266-.7461"/><g clip-path="url(#E)"><path fill="none" stroke="#000" stroke-linecap="round" stroke-linejoin="round" stroke-miterlimit="10" stroke-width=".5" d="M371.57422 477.03125l-2.4336 6.59375"/></g><path fill="none" stroke="#000" stroke-linecap="round" stroke-linejoin="round" stroke-miterlimit="10" stroke-width=".5" d="M371.21875 477.99219l1.21484-.16406"/><g clip-path="url(#F)"><path fill="none" stroke="#000" stroke-linecap="round" stroke-linejoin="round" stroke-miterlimit="10" stroke-width=".5" d="M385.8711 483.07031l-4.39844-5.48437"/></g><g clip-path="url(#G)"><path fill="none" stroke="#000" stroke-linecap="round" stroke-linejoin="round" stroke-miterlimit="10" stroke-width=".5" d="M393.89453 482l6.1836-3.34375"/></g><g clip-path="url(#H)"><path fill="none" stroke="#000" stroke-linecap="round" stroke-linejoin="round" stroke-miterlimit="10" stroke-width=".5" d="M394.79688 481.51563l-1.02344-.6797"/></g><g clip-path="url(#I)"><path fill="none" stroke="#000" stroke-linecap="round" stroke-linejoin="round" stroke-miterlimit="10" stroke-width=".5" d="M413.09766 482.45703l-5.59375-4.2539"/></g><g clip-path="url(#J)"><path fill="none" stroke="#000" stroke-linecap="round" stroke-linejoin="round" stroke-miterlimit="10" stroke-width=".5" d="M427.1289 480.29688l-7.02734.0625"/></g><g clip-path="url(#K)"><path fill="none" stroke="#000" stroke-linecap="round" stroke-linejoin="round" stroke-miterlimit="10" stroke-width=".5" d="M426.10938 480.30469l.58593 1.07812"/></g><g clip-path="url(#L)"><path fill="none" stroke="#000" stroke-linecap="round" stroke-linejoin="round" stroke-miterlimit="10" stroke-width=".5" d="M440.42188 479.92969l-6.98047.79687"/></g><g clip-path="url(#M)"><path fill="none" stroke="#000" stroke-linecap="round" stroke-linejoin="round" stroke-miterlimit="10" stroke-width=".5" d="M439.40625 480.04688l.69531 1.01171"/></g><g clip-path="url(#N)"><path fill="none" stroke="#000" stroke-linecap="round" stroke-linejoin="round" stroke-miterlimit="10" stroke-width=".5" d="M453.3789 481.91797l-6.26562-3.17969"/></g><g clip-path="url(#O)"><path fill="none" stroke="#000" stroke-linecap="round" stroke-linejoin="round" stroke-miterlimit="10" stroke-width=".5" d="M465.88672 482.96484l-4.64844-5.27343"/></g><g clip-path="url(#P)"><path fill="none" stroke="#000" stroke-linecap="round" stroke-linejoin="round" stroke-miterlimit="10" stroke-width=".5" d="M147.39844 466.1211l-6.79688 1.78515"/></g><path fill="none" stroke="#000" stroke-linecap="round" stroke-linejoin="round" stroke-miterlimit="10" stroke-width=".5" d="M147.39844 466.1211l1.66406 1.80468m11.73438-1.39844l-6.96094.97266m6.96094-.97266l1.4375 1.98828m11.90625-1.61328l-7.02344.22266m7.02344-.22266l1.22265 2.12891m12.0625-1.55078l-6.96094-.9336m6.96094.9336l.85547 2.30078m12.2461-1.47656l-6.53516-2.58203m6.53515 2.58203l.27735 2.4375m13.22656-3.10547l-6.91406-1.2461m5.91015 1.06641l.375 1.16797m13.97266-1.15625l-6.96875-.91016m5.95313.77735l.43359 1.14844m13.92578-1.58204l-7.02344.22266m7.02344-.22266l1.21875 2.12891m12.0664-2.46484l-6.96874.89453m6.96875-.89453l1.42187 2m11.83984-2.31641l-6.85937 1.52734m6.85938-1.52734l1.59375 1.86719m11.79687-.85938l-7.01172-.48828m5.99219.41797l.5 1.1211m13.71094-.34766l-6.76563-1.89453m5.78125 1.62109l.26172 1.19922m13.92188-.57813l-6.53125-2.58984m5.58203 2.21484l.1328 1.21875m14.22267-3.17578l-6.71485 2.07422m5.73828-1.77344l.8711.86328m12.80078-2.32812l-5.47656 4.40234m4.67968-3.76172l1.1289.48047m12.85938-1.26953l-5.22656 4.69922m19.39453-2.92578l-6.9336 1.15234m20.19923-1.39062l-6.83594 1.6289m5.84375-1.39062l.8086.92187m12.61718-2.77734l-5.07422 4.86328m4.33594-4.15625l1.16797.38281m8.10547 4.04297l4.48828-5.40234m11.25781 6.21094l-.375-7.01953m16.26563 5.68359l-5.52344-4.34766m4.71875 3.71485l-.21875 1.20703m14.98047-1.8789l-6.8086-1.73829m5.81641 1.48438l.29297 1.1953m12.99219.77345l-4.76563-5.16797m4.07031 4.41406l-.40625 1.16016m13.84766.01953l-3.625-6.01953m3.09766 5.14453l-.63282 1.05078"/><g clip-path="url(#Q)"><path fill="none" stroke="#000" stroke-linecap="round" stroke-linejoin="round" stroke-miterlimit="10" stroke-width=".5" d="M147.50781 453.89063l-7.01562-.38672"/></g><path fill="none" stroke="#000" stroke-linecap="round" stroke-linejoin="round" stroke-miterlimit="10" stroke-width=".5" d="M147.50781 453.89063l1.03125 2.22656m12.28906-2.50781l-7.02734.17968m7.02734-.17969l1.20704 2.13672m12.0664-1.5l-6.9414-1.09375m6.9414 1.09375l.80078 2.31641m12.4297-1.9336l-6.77345-1.85937m6.77344 1.85938l.53906 2.39453m12.64844-2.01172L194 452.38282m6.51953 2.6289l.25781 2.4414m13.03907-2.40234l-6.48438-2.70703m5.54297 2.3125l.11328 1.22266m14.36328-1.58203l-6.92187-1.19532m5.91406 1.01953l.38281 1.16797m13.98047-1.89062l-7.0039.60156m5.98437-.51562l.66797 1.03125m13.67578-.9922l-7.01953.34766m7.01953-.34765l1.25781 2.10937m12.02735-2.41015l-6.96094.94922m6.96094-.94922l1.43359 1.99218m11.86719-2.08984l-6.9336 1.14453m5.92578-.97656l.7422.97656m13.625-.41015l-7.01954-.32032m5.9961.27344l.52734 1.10938m13.80469-.98047l-7.00782-.48438m5.98829.41406l.5 1.1172m13.84375-1.1875l-7.02735-.20313m6.0039.17187l.54298 1.09766m13.16015-3.17969l-5.75781 4.02344m4.92188-3.4414l1.09375.55859m8.93359-2.41407l2.49219 6.57031m-2.12891-5.61328l.8086-.92578m12.3125-.08984l2.15234 6.6875m-1.83985-5.71485l.85547-.8828m13.34375-.25782l-.23828 7.02344m.20313-6.0039l1.10156-.53516m11.29297-.38672l1.67187 6.82422m-1.42969-5.83204l.91407-.8164m9.53515 2.60937l6.91407 1.25781m-5.90625-1.07421l-.375-1.16797m14.375-1.42188l3.53515 6.07031m15.03906-3.42968l-6.98437.78906m19.6914 1.60937l-5.76952-4.01171m4.92968 3.42968l-.14453 1.21875m11.59766.8672l-.36328-7.01563m.36328 7.01562l-2.10547 1.26172m16.23828-1.40234l-2.0039-6.73438m1.71484 5.7539l-.875.86329"/><g clip-path="url(#R)"><path fill="none" stroke="#000" stroke-linecap="round" stroke-linejoin="round" stroke-miterlimit="10" stroke-width=".5" d="M147.51172 440.53125l-7.02344-.29688"/></g><path fill="none" stroke="#000" stroke-linecap="round" stroke-linejoin="round" stroke-miterlimit="10" stroke-width=".5" d="M147.51172 440.53125l1.0586 2.21484m-2.08204-2.2578l.53125 1.10546m13.75781-.61328l-6.92578-1.1914m6.92578 1.1914l.76953 2.32812m-1.77734-2.5039l.38281 1.16797m13.89844-.78125l-6.83984-1.61329m6.83984 1.61329l.6211 2.37109m12.64453-2.1914l-6.7422-1.97657m6.7422 1.97656l.49609 2.40235m12.83203-2.4414l-6.76562-1.89845m6.76562 1.89844l.52344 2.39844m12.89453-2.90625l-6.97266-.8789m6.97266.8789l.8711 2.29297m12.45702-3.03125l-7 .59765m7-.59765l1.33204 2.0586m11.4453-3.65235l-5.92187 3.78515m5.92188-3.78515l2.13672 1.20312m11.39844-.80469l-6.36329 2.98438m5.4375-2.55078l.98047.73828m13.27344-1.13672l-6.39453 2.91406m5.46484-2.48828l.97266.7461m13.33984-1.01563l-6.52734 2.60156m5.57812-2.22265l.9375.79297m13.48828-.65625l-6.84765 1.5703m5.85156-1.33984l.80469.92579m13.59375-.46875l-7.02344.1953m6-.16796l.60938 1.0664m13.55859.09376l-6.6836-2.1797m5.71094 1.86329l.21094 1.20703m13.83594-3.6289l-6.20313 3.29687m16.66797-5.15234l-.5 7.0078m.42578-5.98827l1.1211-.4961m9.74218.3047l4.55079 5.35155m-3.89063-4.57422l.45313-1.14062m14.20703-.46484l.53906 7.0078m-.46094-5.98827l1.03516-.65625m9.98437.66015l4.97657 4.96094m-4.25391-4.23828l.35547-1.17187m11.41015 4.09375l6.62891-2.32813m-6.6289 2.32813l-1.8047-1.66407m2.76954 1.32422l-.90235-.82812m14.5586 2.88672l4.01562-5.76563m-3.42968 4.92969l-1.21875-.14844m15.21875 1.53906l1.47265-6.8711m-1.47265 6.8711l-2.35938.67188m16.22266-.60156l.3789-7.01563m-.32422 5.9961l-1.11328.51562m16.72266-.23047l-4.32031-5.54297m3.6914 4.73438l-.5 1.12109m12.47266.42188l-.3789-7.01563m.3789 7.01563l-2.10156 1.26953"/><g clip-path="url(#S)"><path fill="none" stroke="#000" stroke-linecap="round" stroke-linejoin="round" stroke-miterlimit="10" stroke-width=".5" d="M147.51172 427.0625l-7.02344.01563"/></g><path fill="none" stroke="#000" stroke-linecap="round" stroke-linejoin="round" stroke-miterlimit="10" stroke-width=".5" d="M147.51172 427.0625l1.16016 2.16406m-2.1797-2.16406l.57813 1.08203m13.73828-.71094l-6.98828-.73046m6.98828.73046l.92188 2.27344m-1.9375-2.3789l.46094 1.13671m13.8789-1.10156l-7.0039-.58984m7.0039.58984l.96485 2.25781m12.35937-2.58984l-7.02344.07422m7.02344-.07422l1.17578 2.15625m12.05078-2.90625l-6.84765 1.57422m6.84765-1.57422l1.60938 1.85547m11.23828-2.96875l-5.91016 3.80078m5.91016-3.80078l2.14063 1.19922m11.2578-1.0586l-6.07812 3.51953m6.07813-3.51953l2.08203 1.29688m11.67187-.04688l-6.95312 1.01953m5.9414-.87109l.72657.98828m12.625-3.09375l-5.0039 4.9336m4.27343-4.21485l1.17187.36719m12.94922-1.0039l-5.15625 4.76952m4.40625-4.07812l1.16016.40625m12.875-1.13281l-5.09766 4.83984m4.35547-4.13281l1.16406.38672m11.9336-1.80469l-3.17969 6.26563m14.1289.29296l1.5547-6.85546m13.1328-.03516l-1.1875 6.92578m15.1211-6.76172l-2.42578 6.59766m2.07031-5.63672l1.21875-.16797m11.44922-1l-.42188 7.01172m.35938-5.99219l1.11719-.51172m12.5039-.48437l-.91015 6.96484m.77734-5.95312l1.14844-.4297m11.5664-.60155l.5547 7.0039m-.47266-5.98437l1.03515-.66016m8.97656 2.82031l6.9961.64454m-6.9961-.64454l-.9453-2.26562m15.91015-.40234l3.69922 5.98046m-3.69922-5.98046l1.23828-2.1172m-.69922 2.98829l1.23828-2.11719m9.92969 3.6211l6.91797 1.23046m-6.91797-1.23046l-.7539-2.33594m1.7578 2.51562l-.375-1.16797m14.19141 4.52344l3.90625-5.83984m-3.90625 5.83984l-2.4414-.2461m3.0078-.60155l-1.21874-.125m16.10156 1.5625l-.36328-7.01954m.36328 7.01954l-2.10547 1.26171m2.05078-2.28515l-1.05078.63281m15.52344.15234l-2.57031-6.54296m2.57031 6.54296l-1.59375 1.86329m13.64453-1.6211l-.04297-7.02734m.04297 7.02734l-2.15625 1.16406"/><g clip-path="url(#T)"><path fill="none" stroke="#000" stroke-linecap="round" stroke-linejoin="round" stroke-miterlimit="10" stroke-width=".5" d="M147.47266 413.21875l-6.94532 1.07031"/></g><path fill="none" stroke="#000" stroke-linecap="round" stroke-linejoin="round" stroke-miterlimit="10" stroke-width=".5" d="M147.47266 413.21875l1.46875 1.96484m-2.48047-1.80859l.73437.98438m13.58985-1.16797l-6.9375 1.12109m6.9375-1.1211l1.48047 1.95704m11.80078-2.13281l-6.8711 1.47656m6.8711-1.47656l1.58203 1.875m11.73047-1.88282l-6.8672 1.48828m6.8672-1.48828l1.58593 1.875m11.3047-2.9414L194.25 415.5625m6.01953-3.6211l2.10547 1.26563m11.11328-1.41797l-5.82812 3.92578m4.98047-3.35156l1.08203.57422m10.95703 4.23828l-1.57813-6.84765m1.34766 5.85156l-.92578.80469m14.92969.05468l-2.4961-6.57031m2.4961 6.57031l-1.6172 1.84375m17.19532-5.23828l-7.02344.21875m6.0039-.1875l.60938 1.0625m13.17578.90625l-5.92187-3.78125m5.0586 3.23047l-.09766 1.22266m14.82812-2.66407l-7.02734.20313m6.0039-.17578l.60938 1.0664m13.72656-.8203l-7.01953-.34376m5.9961.29297l.52343 1.10938m13.75-.53907l-6.89062-1.38281m5.88672 1.17969l.35156 1.17578m7.7461.48828l5.55077-4.30469m7.0586 1.6836l6.96484.9375m11.60938 2.5625l-3.5586-6.0625m11.82813 1.73828l6.53515 2.58594m8.8672-4.60157l2.35937 6.61719m9.22265-5.27344l5.82813 3.92969m-4.98047-3.35937l.1289-1.21875m14.11329-.71094l2.27734 6.64844m-1.94531-5.6797l.83594-.89843m11.22265.41016l4.125 5.6875m-4.125-5.6875l1.07813-2.20703m12.48437 2.04296l3.63281 6.01563m-3.6328-6.01563l1.2578-2.10546m-.73046 2.98046l.6289-1.05468m15.39063 6.40234l-2.83204-6.42969m2.83204 6.42969l-1.51954 1.92578m1.10547-2.85937l-1.51562 1.92578m17.27734-3.53906l-6.89844-1.33985m5.89454 1.14453l.35937 1.17578m9.61719 1.75l1.78906-6.79687"/><g clip-path="url(#U)"><path fill="none" stroke="#000" stroke-linecap="round" stroke-linejoin="round" stroke-miterlimit="10" stroke-width=".5" d="M147.14844 398.8789l-6.29688 3.1172"/></g><path fill="none" stroke="#000" stroke-linecap="round" stroke-linejoin="round" stroke-miterlimit="10" stroke-width=".5" d="M147.14844 398.8789l1.99219 1.4336m11.57421-.7539l-6.80078 1.76171m6.80078-1.76172l1.66016 1.8086m11.67969-1.72266l-6.84766 1.58594m6.84766-1.58594l1.60937 1.85156m11.3125-2.83203l-6.0625 3.55078m6.0625-3.55078l2.08985 1.28516m11.65234-.1211l-6.91797 1.21875m5.91406-1.03906l.75391.96485m13.16406 1.1953l-6.11719-3.45702m5.23047 2.95312l-.03515 1.22656m14.61328-3.1953l-6.86719 1.48437m5.86719-1.26563l.79297.9375m13.60156-.42187l-7.02734.01953m6.0039-.01953l.58203 1.08203m13.59375-.01563l-6.69922-2.11718m6.69922 2.11718l.44532 2.41407m12.71093-2.00391l-6.3828-2.9336m6.3828 2.9336l.14453 2.44922m13.4922-3.86328l-7.02735-.10938m6.0039.09375l.5586 1.09375m13.38672.48047l-6.24219-3.22656m5.33594 2.75781l.01172 1.22656m14.59375-2.10937l-7.00782-.51953m5.98828.4414l.4922 1.125m8.60937 1.75l3.45703-6.11718m-2.95313 5.22656l-1.22656-.03125m15.4336 1.36328l.66406-6.9961m-.5664 5.97657l-1.13282.47265m11.34765-1.85156l6.67188-2.19922m7.42969 3.51954l5.09765-4.83985m-4.35547 4.13281l-1.16406-.38671m13.76953 1.125l5.03516-4.90235m-5.03516 4.90235l-2.33984-.75m16.28125-4.66407l3.77734 5.92578m-3.22656-5.0664l.60547-1.0664m11.3711.89452l5.35546 4.54688m-5.35547-4.54688l.52344-2.39844m12.6836 2.53125l5.5703 4.28125m-5.5703-4.28125l.40624-2.41796m13.35157 1.9414l4.6875 5.23438m-4.00782-4.47266l.42188-1.15234m16.70312 5.78906l-4.29296-5.5625m4.29296 5.5625l-1.01171 2.23828m15.53906-3.99219l-6.71875-2.05078m5.74219 1.75l.23437 1.20703m14.1875-2.34765l-6.97656.82812"/><g clip-path="url(#V)"><path fill="none" stroke="#000" stroke-linecap="round" stroke-linejoin="round" stroke-miterlimit="10" stroke-width=".5" d="M467.05078 400.02344l1.39844 2.01953"/></g><g clip-path="url(#W)"><path fill="none" stroke="#000" stroke-linecap="round" stroke-linejoin="round" stroke-miterlimit="10" stroke-width=".5" d="M146.90625 385.14844l-5.8125 3.94922"/></g><path fill="none" stroke="#000" stroke-linecap="round" stroke-linejoin="round" stroke-miterlimit="10" stroke-width=".5" d="M146.90625 385.14844l2.17188 1.14453m-3.01954-.57031l1.08594.57421m13.66406.45704l-6.98828.73828m6.98828-.73828l1.375 2.03515m-2.39062-1.92578l.6875 1.01563m13.52344-1.73438l-6.7461 1.95703m6.7461-1.95703l1.71093 1.75781m-2.6914-1.47265l.85547.8789m12.82422-2.36328l-5.51563 4.35547m5.51563-4.35547l2.24609.98438m5.125-.28516l6.375 2.95703M195 386.07422l-.0664-1.22266m15.26562 5.76563l.75-6.98828m-.75 6.98828l-2.27734.91406m2.38671-1.92969l-1.13672.45703m18.19922-2.46484l-6.96093-.9414m6.96093.9414l.85157 2.30078m-1.86328-2.4375l.42578 1.15235m13.46093-3.2461l-6.08203 3.51953m6.08203-3.51953l2.08203 1.29688m11.66407-.08594l-6.9414 1.09765m6.9414-1.09765l1.47656 1.96094m11.75781-2.32813l-6.78125 1.83594m6.78125-1.83594l1.67969 1.78906m-2.66797-1.52343l.83985.89453m13.46093-1.17578l-6.77734 1.86718m6.77734-1.86718l1.6836 1.78125m-2.67188-1.51172l.84375.89062m13.58594-.22656h-7.02735m7.02735 0l1.15234 2.16406m11.94531-3.3789l-6.59375 2.42578m5.63282-2.07422l.91797.82031m13.35156-1.19531l-6.57813 2.47265m6.57813-2.47265l1.83984 1.625m11.28516-2.04297l-6.19922 3.3086m5.29687-2.82813l1.01954.6875m11.33203-2.80078l-2.47266 6.57812m2.47266-6.57812l2.4336-.3164m12.53124 1.59765l-5.76953 4.01172m5.76953-4.01172l2.1836 1.125m-3.02344-.53906l1.09375.55859m12.42968-1.83594l-4.5039 5.39453m4.5039-5.39453l2.40235.50781m-3.0586.27735l1.19922.2539m11.3711-1.75l-1.70313 6.81641m1.70313-6.8164l2.38281-.59376m-2.63281 1.58594l1.1914-.29687m12.23438-.72657l-1.42578 6.87891m1.42578-6.8789l2.35547-.6875m-2.5625 1.6875l2.35547-.6875m11.74218-.14063l-2.57812 6.53515m2.57812-6.53515l2.4375-.27735m9.58985.03125v7.02735m0-7.02735l2.16406-1.15234m14.0664 6.625l-5.83203-3.91797M439 388.51172l-.125 1.21875m14.64453-1.33203l-6.54687-2.55078m6.54687 2.55078l.28906 2.4375m12.91016-2.16797l-6.3125-3.08985m6.3125 3.08985l.08203 2.45312"/><g clip-path="url(#X)"><path fill="none" stroke="#000" stroke-linecap="round" stroke-linejoin="round" stroke-miterlimit="10" stroke-width=".5" d="M147.33594 372.71094l-6.67188 2.19531"/></g><path fill="none" stroke="#000" stroke-linecap="round" stroke-linejoin="round" stroke-miterlimit="10" stroke-width=".5" d="M147.33594 372.71094l1.77344 1.69922m-2.7422-1.37891l.88673.84766m13.51562-.70313l-6.91016 1.26563m6.91016-1.26563l1.52344 1.92578m-2.52734-1.74219l.76171.96094m13.6172-.45703l-7.02735-.10937m7.02734.10937l1.11719 2.1836m10.85937-4.9961l-4.35156 5.51563m4.35156-5.51563l2.41407.4336m11.43359.08593l-5.41797 4.47656m5.41797-4.47656l2.26563.9336m11.80859.72656l-6.9336 1.15234m6.9336-1.15234l1.48828 1.94922m-2.5-1.78125l1.49219 1.94922m12.8789-1.39063l-7.02343-.29687m7.02343.29687l1.0586 2.21094m-2.08203-2.2539l.53125 1.10546m13.80859-1.125l-7.02734-.17187m7.02734.17187l1.09766 2.1914m11.99609-3.51171l-6.58203 2.46484m6.58203-2.46484l1.83594 1.625m-2.79688-1.26563l.92188.8125m13.5625-.24609l-7 .61719m7-.61719l1.33594 2.0586m-2.35547-1.96876l.66797 1.02735m13.3789-2.23438l-6.42578 2.85156m6.42578-2.85156l1.92969 1.51172m11.55078-1.04687l-6.75781 1.92187m6.75781-1.92187l1.70313 1.76953m-2.6836-1.48828l.84766.8828m13.46875-1.09374l-6.79688 1.77734m6.79688-1.77734l1.66406 1.80469m10.73828-3.39844l-4.96875 4.96875m4.96875-4.96875l2.34375.71875m10.95703-.73047l-4.94531 4.99219m4.94531-4.99219l2.35156.70313m10.13282-1.31641l-3.28125 6.21484m3.28125-6.21484l2.45312-.00781m12.07422 1.0664l-5.70703 4.09766m5.70703-4.09766l2.19922 1.08985m-3.02734-.4922l1.09765.54298m13.14453-.9961l-5.90625 3.8125m5.90625-3.8125l2.14063 1.19532m-3-.64063l2.14453 1.19531m11.80078-2.0664l-5.44531 4.44531m5.44531-4.44531l2.26172.94922m-3.05469-.30079l1.1289.47266m12.4297-1.66015l-4.34766 5.52343m4.34766-5.52344l2.41406.4336m-3.04688.3711l2.41407.43359m12.11718-.65235l-5.51562 4.35156m5.51562-4.35156l2.2461.98438m-3.04688-.35156l1.1211.49218m13.17578-.8789l-5.875 3.85546m5.875-3.85546l2.15234 1.17968m-3.00781-.61718l2.15234 1.17968m-3.00781-.61718l1.07813.58593m14.52343.14844l-7.02734.14063m7.02734-.14063l1.19531 2.14063m-2.21875-2.1211l1.19532 2.14063m-2.21875-2.1211l.59765 1.07422m14.7422-.66797l-6.98438-.75m6.98437.75l.91797 2.27344m-1.9336-2.38281l.45704 1.13672M465.5 376.73828l-3.875-5.86328m3.3086 5.01172l-.58594 1.07812"/><g clip-path="url(#Y)"><path fill="none" stroke="#000" stroke-linecap="round" stroke-linejoin="round" stroke-miterlimit="10" stroke-width=".5" d="M147.35938 359.46094l-6.71875 2.0625"/></g><path fill="none" stroke="#000" stroke-linecap="round" stroke-linejoin="round" stroke-miterlimit="10" stroke-width=".5" d="M147.35938 359.46094l1.73437 1.73437m11.10547-2.71094L154.42969 362.5m5.76953-4.01563l2.1836 1.1211m11.58593-.20313l-6.67969 2.1797m6.67969-2.1797l1.76953 1.70313M173 359.71875l1.76563 1.70313m12.34375-2.45704l-6.32813 3.0586m6.32813-3.0586l1.98046 1.44922m-2.90234-1.0039l.99219.72265m12.67578-2.00781l-5.1914 4.73438m5.1914-4.73438l2.3125.82813m-3.0664-.13672l1.15624.41015m13.16797-.78906l-5.69922 4.11328m5.69922-4.11328l2.19922 1.08203m-3.03125-.48437l1.10156.53906m13.13281-1.00781l-5.875 3.85546m5.875-3.85546l2.15235 1.17968m-3.00781-.62109l1.07812.58984m13.14063-1.0703l-5.97266 3.69921m5.97266-3.69922l2.12109 1.23438m-2.98828-.69532l1.0586.6172m12.15234-2.1875l-4.02735 5.7578m4.02735-5.7578l2.43359.29687m11.9961.98828l-6.26173 3.1914m6.26172-3.1914l2.01172 1.40625m-2.92187-.9414l1.0039.70312m13.59766.21484l-7.01172.42578m7.01172-.42578l1.28125 2.09375m11.65625-3.48047l-6.25781 3.19922m6.25781-3.19922l2.01172 1.40235m-2.92188-.9375l2.01172 1.40234m11.51953-2.80078l-4.86718 5.0664m4.86718-5.0664l2.35938.67187m-3.0664.0625l1.17968.33594m12.33203-1.47656l-3.84765 5.8789m3.84765-5.8789l2.44531.22265m-3.0039.63282l1.22265.10937m12.65625-.96094l-3.85937 5.8711m3.85937-5.8711l2.44532.22657m-3.00782.625l1.22266.11328m14.07031.89062l-6.6875 2.16016m6.6875-2.16016l1.76172 1.70703m-2.73437-1.39453l.8789.85547m13.41406-1.15625l-6.69921 2.13281m6.69921-2.1328l1.75391 1.71483m-2.73047-1.40234l.8789.85547m13.14063-1.79297l-6.15625 3.38281m6.15625-3.3828l2.0547 1.34374m-2.94923-.85156l2.05469 1.34375m12.03516-2.04297l-5.91407 3.79688m5.91407-3.79688l2.14062 1.20313m-3-.64844l2.13672 1.19922m11.70313-2.19141l-5.2461 4.67188m5.2461-4.67188l2.30078.85156m-3.0625-.17187l2.30078.85156m11.92578-1.35156l-5.54297 4.3164m5.54297-4.3164l2.23828 1m-3.04688-.375l1.1211.5039m13.1875-.86718l-5.91797 3.78906m5.91797-3.78906l2.14062 1.20312m-3-.65234l2.13672 1.20703m12.47266-.76953l-6.78516 1.8125m6.78516-1.8125L442 361.3828m-2.66016-1.53125l1.67188 1.79297m12.46484-2.53515l-6.46094 2.76953m6.46094-2.76954l1.91016 1.53907m-2.85156-1.13672l1.91406 1.53906m12.3789-1.85156l-6.53515 2.58594"/><g clip-path="url(#Z)"><path fill="none" stroke="#000" stroke-linecap="round" stroke-linejoin="round" stroke-miterlimit="10" stroke-width=".5" d="M466.82813 359.19922l1.86718 1.59375"/></g><path fill="none" stroke="#000" stroke-linecap="round" stroke-linejoin="round" stroke-miterlimit="10" stroke-width=".5" d="M465.8789 359.57813l.9336.79296"/><g clip-path="url(#aa)"><path fill="none" stroke="#000" stroke-linecap="round" stroke-linejoin="round" stroke-miterlimit="10" stroke-width=".5" d="M147.42188 346.375l-6.84375 1.60547"/></g><path fill="none" stroke="#000" stroke-linecap="round" stroke-linejoin="round" stroke-miterlimit="10" stroke-width=".5" d="M147.42188 346.375l1.61328 1.84766m-2.60938-1.61329l.8086.92188m13.04687-2.23828l-5.9336 3.76953m5.9336-3.76953l2.13281 1.21484m-2.9961-.66406l1.06642.60547m13.28906-.84375l-6.28516 3.14453m6.28516-3.14453l2 1.42578m-2.91406-.96875l2 1.42578M187 345.44531l-6.10938 3.46875M187 345.44531l2.07031 1.3125m-2.95703-.8086l2.07031 1.3125m10.9297-3.0703l-3.70704 5.97265m3.70703-5.97265l2.44922.16406m-2.98828.70703l1.22266.08203m13.21093-.5039l-4.86328 5.07421m4.86328-5.07421l2.35938.66796m-3.0664.07032l1.17968.33593M225.625 344.125l-3.46875 6.10938m3.46875-6.10938l2.45313.0664m11.78515.6875l-5.3125 4.59766m5.3125-4.59765l2.28906.8828m-3.0625-.21483l1.14453.4414m11.98047-1.89062l-3.38672 6.16015m2.89454-5.26172l1.22656.01563m12.9961-.64453l-4.21876 5.6211m4.21875-5.6211l2.42578.38281m-3.03906.4375l1.21094.1875m13.70703.14844l-6.19922 3.3086m6.19922-3.3086l2.03516 1.36719m-2.9375-.88672l2.03906 1.36718m12.28906-1.62109l-6.42187 2.85547m6.42187-2.85547l1.9336 1.51172m-2.8672-1.09375l.96485.7539m12.875-1.86718l-5.60156 4.2461m5.60156-4.2461l2.22656 1.03125m-3.04296-.41406l1.11328.51562m11.83203-2.1289l-3.23047 6.24218m3.23047-6.24219l2.45312-.03125m10.83203.01563l-3.17187 6.26953m3.17187-6.26953l2.45313-.05078m12.11328 1.10937l-5.67187 4.15235m5.67187-4.15235l2.20703 1.07031m-3.03515-.46484l2.21093 1.0664m12.58594-.0039l-6.98047.8164m6.98047-.8164l1.39453 2.01953m-2.41015-1.89844l.69921 1.00782m13.61329-1.2539l-6.94532 1.0664m6.94532-1.0664l1.46875 1.96483m-2.47657-1.80859l.73047.98047m13.16016-2.36328l-6.08203 3.51953m6.08203-3.51953l2.08203 1.29687m-2.96484-.78515l2.08203 1.29687m12.24609-1.5664l-6.33984 3.03515m6.33984-3.03515l1.97266 1.45703m-2.89453-1.01563l1.97265 1.45703m11.83594-2.57812l-5.48438 4.39453m5.48438-4.39453l2.2539.97265m-3.05078-.33203l2.25391.96875m11.53125-1.96484l-4.82812 5.10547m4.82812-5.10547l2.36328.65234m-3.0664.08985l2.36718.65234m11.90625-1.125l-5.34375 4.5664m5.34375-4.5664l2.28516.90235m-3.0625-.23829l2.28516.90235m12.30078-.8125l-6.32813 3.0586m6.32813-3.0586l1.98047 1.44922m-2.90235-1.00391l1.98047 1.44922m12.21875-1.97266l-6.25 3.21485"/><g clip-path="url(#ab)"><path fill="none" stroke="#000" stroke-linecap="round" stroke-linejoin="round" stroke-miterlimit="10" stroke-width=".5" d="M466.6875 345.57031l2.01563 1.39844"/></g><g clip-path="url(#ac)"><path fill="none" stroke="#000" stroke-linecap="round" stroke-linejoin="round" stroke-miterlimit="10" stroke-width=".5" d="M465.77734 346.03906l2.01563 1.39844"/></g><g clip-path="url(#ad)"><path fill="none" stroke="#000" stroke-linecap="round" stroke-linejoin="round" stroke-miterlimit="10" stroke-width=".5" d="M147.44531 334.54297l-6.89062-1.35938"/></g><path fill="none" stroke="#000" stroke-linecap="round" stroke-linejoin="round" stroke-miterlimit="10" stroke-width=".5" d="M147.44531 334.54297l.71094 2.34765m-1.71094-2.54687l.35547 1.17578m13.8789-2.67187l-6.72655 2.03125m6.72656-2.03125l1.72656 1.73828m-2.70703-1.44531l.86328.87109m12.32031-2.84766l-4.5039 5.39453m4.5039-5.39453l2.39844.5039m-3.05469.28126l1.19922.2539m11.48438-1.71875l-1.9297 6.75782m1.9297-6.75781l2.40234-.51172m12.78125 1.8125l-5.66406 4.15625m5.66406-4.15625l2.21094 1.0625m11.34375-.6836L207.5 335.5625m6.14844-3.39844l2.0586 1.33594m11.05077-1.66406l-5.73437 4.05469m4.90234-3.46485l1.09375.55078m13.30469-.72656l-6.23828 3.22656m5.33203-2.75781l1.00781.69531m13.60156.6875l-7.01172-.47656m7.01172.47656l1 2.24219m12.26953-3.09375l-6.92187 1.22656m6.92188-1.22656l1.51171 1.92969m11.75782-2.14844l-6.82813 1.66016m6.82813-1.66016l1.6289 1.83594m-2.625-1.59375l.8164.91797m13.4336-1.375l-6.70703 2.09375m6.70703-2.09375l1.7461 1.72265m-2.72266-1.41797l1.7461 1.72266m12.64062-1.64453l-6.89844 1.32812m6.89844-1.32812l1.54297 1.91015m-2.54688-1.71875l.76953.95704m13.17188-2.19141l-6.14063 3.41406m6.14063-3.41406l2.0586 1.33203m-2.95313-.83594l1.03125.66797m12.79297-1.72265l-5.3711 4.53125m5.3711-4.53125l2.27734.91406m-3.0586-.2539l1.13672.45702m12.5625-1.51562l-4.58203 5.32812m4.58203-5.32812l2.39454.53906m-3.0586.23438l1.19531.26953m14.00391 1.8164l-7.01953-.39062m7.01953.39062l1.02734 2.22657M359.52734 334l.51563 1.11719m13.71094-.35938l-6.79688-1.78906m6.79688 1.78906l.5625 2.38672m-1.55079-2.64844l.28125 1.19532m13.23047-4.1875l-5.21093 4.71875m5.21093-4.71875l2.3047.83203m-3.0625-.14453l1.15233.41406m12.5625-1.4414l-4.49609 5.39843m4.4961-5.39844l2.40234.5m-3.05469.28516l1.19922.25m13.3711-.39063l-5.69923 4.10938m5.69922-4.10938l2.19922 1.08204m-3.03125-.48438l1.10156.54297m12.62891-1.6211l-4.86719 5.06641m4.8672-5.0664l2.35937.67187m-3.06641.0664l1.17969.33594m12.48828-1.37109l-4.16016 5.66406m4.16016-5.66406l2.42969.35547m-3.03516.46875l1.21484.17578m13.9297.64063l-6.60938 2.3828m6.60937-2.3828l1.82031 1.64453m-2.78125-1.30079l.91016.82422m13.23437-1.48828l-6.34375 3.02344"/><g clip-path="url(#ae)"><path fill="none" stroke="#000" stroke-linecap="round" stroke-linejoin="round" stroke-miterlimit="10" stroke-width=".5" d="M466.73438 332.35156l1.97265 1.45703"/></g><g clip-path="url(#af)"><path fill="none" stroke="#000" stroke-linecap="round" stroke-linejoin="round" stroke-miterlimit="10" stroke-width=".5" d="M465.8086 332.78906l1.97265 1.46094"/></g><path fill="none" stroke="#000" stroke-linecap="round" stroke-linejoin="round" stroke-miterlimit="10" stroke-width=".5" d="M464.88672 333.23047l.98828.73047"/><g clip-path="url(#ag)"><path fill="none" stroke="#000" stroke-linecap="round" stroke-linejoin="round" stroke-miterlimit="10" stroke-width=".5" d="M147.44531 321.22656l-6.89062-1.35937"/></g><path fill="none" stroke="#000" stroke-linecap="round" stroke-linejoin="round" stroke-miterlimit="10" stroke-width=".5" d="M147.44531 321.22656l.71485 2.34766m-1.71485-2.54297l.71094 2.34766m13.59375-3.57032l-6.8711 1.47657m6.8711-1.47657l1.58203 1.87891m-2.58203-1.66406l1.58203 1.8789m-2.58203-1.66406l.79297.9375m14.21094-2.23437l-6.25 3.21093m6.25-3.21093l2.01562 1.40234m-2.92187-.9336l2.01172 1.39844m-2.92188-.93359l1.00781.70313m14.10547-1.67579l-6.21094 3.28907m6.21094-3.28907l2.03125 1.375m-2.9375-.89453l2.03516 1.375m12.45703-1.1836l-6.7539 1.94923m6.7539-1.94922l1.70703 1.76172m-2.6914-1.48047l1.71093 1.76172m12.50781-2.28906l-6.58984 2.4414m6.58984-2.4414l1.83203 1.6289m-2.79296-1.27344l1.83593 1.62891m-2.79297-1.27344l.91407.8125m14.20312-1.80078l-6.35937 2.99219m6.35937-2.99219l1.96485 1.47266m-2.89063-1.03516l1.96484 1.46875m12.36329-1.70703l-6.53125 2.59375m6.53125-2.59375l1.86718 1.58984m-2.8203-1.21093l.9375.79296m13.5664.3711l-7.00781-.49219m7.0078.49219l1 2.24219m12.17188-1.45313l-6.71875-2.0664m6.71875 2.0664l.46094 2.41016m-1.4414-2.71094l.23437 1.20313m14.20312-2.20313l-7.0039.53125m7.0039-.53125l1.3125 2.07422m-2.33203-1.9961l.65625 1.03516m13.64453-1.42187L287 321.12109m6.9336-1.14843l1.48827 1.94921m-2.5-1.78125l.7461.97266m13.60156-.99219l-6.97656.85547m6.97656-.85547l1.40625 2.01172m-2.42187-1.88672l1.40625 2.00782m12.53125-3.3711L314 322.21094m6.1914-3.32813l2.03907 1.36328m-2.9414-.8789l1.01952.6836m12.65625-1.91798l-5.10547 4.82813m5.10547-4.82813l2.32422.78516m-3.0664-.08203l1.16015.39062m13.21485-.69922l-5.7461 4.04297m5.7461-4.04297l2.1914 1.10547m-3.02734-.51953l1.09765.55469m13.22266-.8789L354 322.30858m6.08203-3.51953l2.08203 1.29688m-2.96875-.78516l2.08594 1.29688m12.38281-1.23438l-6.61719 2.3711m6.6172-2.3711l1.8164 1.64844m-2.77735-1.30469l.90625.82422m12.50782-2.5039l-4.89063 5.04296m4.89063-5.04297l2.35547.6797m-3.06641.05077l1.17969.34375m12.29297-1.51562l-3.78516 5.92187m3.78516-5.92187l2.4453.19531m9.44532-.71484l-.9375 6.96484m.9375-6.96484l2.30078-.85547m10.42969.82422l.23047 7.02343m-.23047-7.02343l2.1289-1.22266m13.89844 7.10156l-5.1914-4.73437m19.23047 1.22265l-6.64063 2.29297m6.64063-2.29297l1.79687 1.67188m-2.76172-1.33985l1.79688 1.67188m12.04297-2.8711l-5.76172 4.02344"/><g clip-path="url(#ah)"><path fill="none" stroke="#000" stroke-linecap="round" stroke-linejoin="round" stroke-miterlimit="10" stroke-width=".5" d="M466.4414 318.53516l2.1875 1.11718"/></g><g clip-path="url(#ai)"><path fill="none" stroke="#000" stroke-linecap="round" stroke-linejoin="round" stroke-miterlimit="10" stroke-width=".5" d="M465.60547 319.1211l2.1836 1.11718"/></g><path fill="#00f" fill-rule="evenodd" d="M392.67578 463.21094h8.6211V453.0625h-8.6211v10.14844"/><path fill="azure" fill-rule="evenodd" d="M394.51172 454.89844h.83203v2.82031h3.28516v-2.82031h.83203v6.48047h-.83203v-2.91797h-3.28516v2.91797h-.83203v-6.48047"/><path fill="#00f" fill-rule="evenodd" d="M383.80078 436.57813h8.61719v-10.14454h-8.61719v10.14454"/><path fill="azure" fill-rule="evenodd" d="M385.63281 428.26563h.83203v2.82421h3.28907v-2.82421h.83203v6.48046h-.83203v-2.91406h-3.28907v2.91406h-.83203v-6.48046"/><path fill="#ff3030" fill-rule="evenodd" d="M428.8789 396.63281h7.69141v-10.14453h-7.6914v10.14453"/><path fill="azure" fill-rule="evenodd" d="M430.71094 388.32031h.83203v5.74219h3.19531v.73828h-4.02734v-6.48047"/><path fill="#ff3030" fill-rule="evenodd" d="M198.08203 374.4414h7.69531v-10.14452h-7.6953v10.14453"/><path fill="azure" fill-rule="evenodd" d="M199.91797 366.1289h.83203v5.7422h3.19531v.73827h-4.02734v-6.48046"/><path fill="#ffffe0" fill-rule="evenodd" d="M427.54297 423.4961h22.17969v-10.19141h-22.1797v10.1914"/><path fill-rule="evenodd" d="M431.04297 415.13672h.50781v6.29687h-.78515v-4.49218H429.375v-.5547l.5625-.0664.25-.05078.23047-.08984.20312-.14453.17579-.20704.14062-.29687.10547-.39453m4.8125 0l.23047.01953.21875.05469.20703.08984.19531.1211.1875.14843.16797.17578.30469.42188.24219.49219.17968.54687.11328.57813.03516.58984-.03516.59375-.11328.58594-.17969.55469-.24218.5-.30469.42968-.16797.17969-.1875.15234-.19531.125-.20703.08985-.21875.0586-.23047.01952-.23047-.01953-.21875-.0586-.20703-.08984-.19531-.125-.1836-.15234-.17187-.17969-.30078-.42969-.2461-.5-.17969-.55468-.10937-.58594-.03906-.59375h.83203l.03125.5664.08203.50391.125.4414.16016.375.1914.30079.21094.22266.22266.13671.22656.04688.22656-.04688.22266-.13671.21094-.22266.1914-.30078.16016-.375.1289-.4414.08204-.50391.02734-.56641-.02735-.5586-.08203-.5-.1289-.4375-.16016-.36327-.1914-.29297-.21094-.21485-.22266-.13281-.22656-.04297-.22656.04297-.22266.13281-.21094.21485-.1914.29296-.16016.36329-.125.4375-.08203.5-.03125.55859h-.83203l.03906-.58984.10938-.57813.17968-.54687.2461-.4922.30078-.42187.17187-.17578.1836-.14844.1953-.12109.20704-.08984.21875-.05469.23047-.01953m4.95312 0l.23047.01953.21875.05469.20703.08984.19532.1211.18359.14843.17188.17578.30468.42188.24219.49219.17969.54687.10937.57813.03906.58984-.03906.59375-.10937.58594-.17969.55469-.24219.5-.30469.42968-.17187.17969-.1836.15234-.1953.125-.20704.08985-.21875.0586-.23047.01952-.23046-.01953-.21875-.0586-.20704-.08984-.1953-.125-.1836-.15234-.17188-.17969-.30469-.42969-.24218-.5-.17969-.55468-.10938-.58594-.03906-.59375h.83203l.03125.5664.07813.50391.1289.4414.16016.375.1914.30079.21094.22266.22266.13671.22656.04688.22657-.04688.22265-.13671.21094-.22266.1914-.30078.16016-.375.1289-.4414.08204-.50391.02734-.56641-.02734-.5586-.08203-.5-.1289-.4375-.16016-.36327-.19141-.29297-.21094-.21485-.22265-.13281-.22657-.04297-.22656.04297-.22265.13281-.21094.21485-.1914.29296-.16017.36329-.1289.4375-.07813.5-.03125.55859h-.83203l.03906-.58984.10938-.57813.17969-.54687.24219-.4922.30468-.42187.17188-.17578.1836-.14844.1953-.12109.20704-.08984.21875-.05469.23046-.01953m4.95313 0l.38672.02734.35937.08203.32031.13672.28125.1875.23047.23828.17188.28516.10937.33203.03907.3789-.02344.27344-.05469.23438-.08984.19922-.10938.17187-.1289.14454-.14063.12109-.28906.19531.23437.1211.20704.14453.18359.17187.15234.19531.1211.21094.09375.23047.05468.2461.01954.2539-.03516.3086-.10156.32812-.17188.32422-.24219.30469-.30468.26953-.375.21484-.21094.08203-.23047.0625-.24219.03516-.26172.01562-.2578-.01562-.2422-.03516-.22656-.0625-.20312-.08203-.35938-.21484-.28906-.26954-.22266-.30468-.15625-.32422-.09375-.32813-.03125-.30859h.83203l.02735.2539.07812.23438.1211.21094.16015.1875.19531.15234.21875.11328.2422.07422.2539.02344.2539-.02344.2422-.07422.21874-.11328.1914-.15234.16407-.1875.1211-.21094.07812-.23437.02734-.25391-.02734-.2539-.07813-.23438-.12109-.21094-.16406-.1836-.1914-.15234-.21876-.11718-.24219-.07032-.2539-.02734-.2539.02734-.2422.07032-.21875.11718-.1953.15235-.16016.1836-.1211.21093-.07812.23437-.02735.25391h-.83203l.01953-.2539.0547-.23829.08983-.22656.125-.20703.15235-.1914.1836-.17188.20702-.15235.23047-.1328-.28515-.19532-.14063-.1211-.1289-.14453-.10938-.17187-.08984-.19922-.0586-.23438-.01953-.27343h.78906l.01954.21484.0664.1875.10547.16797.13672.14063.16406.10937.1875.08203.20703.05078.22266.01563.21875-.01563.20703-.05078.1914-.08203.16407-.10938.13672-.14062.10547-.16797.0625-.1875.02343-.21484-.02343-.21485-.0625-.1914-.10547-.16797-.13672-.14063-.16406-.10937-.19141-.08203-.20703-.05078-.21875-.01563-.22266.01563-.20703.05078-.1875.08203-.16406.10937-.13672.14063-.10547.16797-.0664.1914-.01954.21485h-.78906l.03906-.3789.10938-.33204.17187-.28516.23047-.23828.27735-.1875.32421-.13672.35938-.08203.38672-.02734"/><path fill="#ffffe0" fill-rule="evenodd" d="M306.23828 349.1289h22.17969v-10.1914h-22.17969v10.1914"/><path fill-rule="evenodd" d="M309.73828 340.76953h.50781v6.29688h-.78906v-4.48829h-1.38672v-.55859l.5586-.0625.2539-.05469.23047-.08984.20313-.14063.17187-.21093.14063-.29297.10937-.39844m4.8125 0l.23047.01953.21875.0586.20703.08593.19531.1211.1836.15234.17187.17578.30078.41797.2461.49219.17969.54687.10937.58204.03906.58984-.03906.59375-.10938.58203-.17968.55469-.2461.5039-.30078.42579-.17187.17968-.1836.15235-.1953.125-.20704.09375-.21875.05468-.23047.01954-.23047-.01954-.21875-.05468-.20703-.09375-.19531-.125-.1875-.15235-.16797-.17969-.30469-.42578-.24219-.5039-.17968-.55469-.11328-.58203-.03516-.59375h.83203l.02735.5625.08203.50781.1289.4414.16016.375.1914.30079.21094.21875.22266.13672.22656.04687.22656-.04687.22266-.13672.21094-.21875.1914-.30078.16016-.375.125-.4414.08203-.50782.03125-.5625-.03125-.5625-.08203-.5-.125-.4336-.16016-.36718-.1914-.29297-.21094-.21485-.22266-.1289-.22656-.04688-.22656.04688-.22266.1289-.21094.21485-.1914.29297-.16016.36719-.1289.43359-.08204.5-.02734.5625h-.83203l.03516-.58985.11328-.58203.17969-.54687.24218-.49219.30469-.41797.16797-.17578.1875-.15234.19531-.1211.20703-.08593.21875-.0586.23047-.01953m5.08985 0h.51171v6.29688h-.78906v-4.48829h-1.38672v-.55859l.5586-.0625.2539-.05469.22656-.08984.20313-.14063.17578-.21093.14063-.29297.10546-.39844m2.82422 2.17578h.78516l.02344-.3164.0586-.28516.09765-.2539.14062-.21485.17969-.17188.22266-.1289.26562-.08203.3086-.02735.23828.02344.22265.0625.20703.10156.1797.13672.14843.17188.11328.20703.07031.23828.02344.26172-.01953.26953-.0664.22656-.10938.1914-.15625.16798-.19922.16406-.25.16797-.63281.38672-.53907.3125-.4375.3164-.34375.32422-.26562.33594-.1914.35156-.125.3711-.06641.39453-.01954.41797h4.21094v-.7422h-3.33203l.08203-.28124.11328-.23828.14844-.20313.1875-.17969.23047-.17187.27734-.17578.71875-.41406.41407-.20704.34765-.23046.28125-.25.21875-.26954.16406-.27734.10938-.28125.0625-.28515.02344-.28125-.04297-.38672-.1211-.34766-.1875-.30469-.25-.26562-.30468-.21094-.34375-.16016-.38281-.09765-.40625-.03516-.4336.03516-.39844.09765-.35546.16797-.3047.23438-.24609.30469-.1875.37109-.11718.44922-.03907.51562"/><path fill="#ffffe0" fill-rule="evenodd" d="M217.46875 336.07813h22.17969v-10.19141h-22.17969v10.1914"/><path fill-rule="evenodd" d="M220.96875 327.72266h.50781v6.29296h-.78515v-4.48828h-1.38672v-.55859l.5586-.0625.25-.05469.23046-.08984.20313-.14063.17578-.21093.14062-.29297.10547-.39453m4.8125 0l.23047.01562.21875.0586.20703.08984.19922.11719.1836.15234.17187.17578.30078.41797.24219.49219.17968.54687.11328.58203.03907.58985-.03906.59375-.11329.58203-.17968.55469-.2422.5039-.30077.42578-.17188.1797-.1836.15233-.19921.125-.20703.09375-.21875.0547-.23047.01952-.22656-.01953-.21875-.05469-.21094-.09375-.19531-.125-.1836-.15234-.17187-.17969-.30078-.42578-.24219-.5039-.17969-.5547-.11328-.58202-.03906-.59375h.83594l.02734.5625.08203.50781.125.4414.16406.375.19141.30079.20703.21875.22266.14062.22656.04688.22656-.04688.22266-.14062.21094-.21875.1914-.30078.16406-.375.125-.44141.08204-.50781.02734-.5625-.02734-.5625-.08203-.5-.125-.4336-.16407-.36718-.1914-.29297-.21094-.21485-.22266-.1289-.22656-.04688-.22656.04688-.22266.1289-.20703.21485-.1914.29297-.16407.36718-.125.4336-.08203.5-.02734.5625h-.83594l.03906-.58985.11328-.58203.17969-.54687.24219-.49219.30078-.41797.17187-.17578.1836-.15234.19531-.1172.21094-.08983.21875-.0586.22656-.01562m5.09375 0h.50781v6.29296h-.78515v-4.48828h-1.39063v-.55859l.5625-.0625.25-.05469.23047-.08984.20313-.14063.17578-.21093.14062-.29297.10547-.39453m2.82422 2.17187h.78516l.01953-.3164.05859-.28516.10156-.25.14063-.21875.17969-.17188.22265-.1289.26563-.08203.30859-.02735.23828.02344.22266.0625.20312.10156.17969.13672.14844.17578.11328.20313.07422.23828.02344.26172-.02344.26953-.0625.22656-.11328.1914-.15235.17188-.20312.16016-.2461.16797-.6328.38672-.53907.3125-.4375.3164-.34766.32813-.26172.33203-.1914.35156-.125.3711-.07031.39453-.01954.41796h4.21094v-.74218h-3.33203l.08594-.28125.11328-.23828.14844-.20313.1875-.17969.23047-.17187.27734-.17578.71875-.41406.41406-.20704.34375-.23046.28125-.25.21875-.26954.16406-.27734.11328-.28125.0625-.28516.01954-.28125-.03907-.3828-.12109-.35157-.1914-.30469-.25-.26562-.30079-.21094-.34765-.16016-.37891-.09765-.40625-.03125-.4336.03125-.39843.09765-.35547.16797-.30469.23438-.25.30468-.1836.3711-.11718.44922-.03906.51562"/></g></defs><use xlink:href="#aj"/></svg>