<svg xmlns="http://www.w3.org/2000/svg" role="img" xmlns:xlink="http://www.w3.org/1999/xlink" viewBox="142.45 309.95 326.84 171.84"><defs><clipPath id="a"><path d="M144 311.67188h1v168.65625h-1zm0 0"/></clipPath><clipPath id="b"><path d="M144 311.67188h324v168.65625H144zm0 0"/></clipPath><clipPath id="c"><path d="M467 311.67188h1v168.65625h-1zm0 0"/></clipPath><clipPath id="d"><path d="M144 478h4v2.32813h-4zm0 0"/></clipPath><clipPath id="e"><path d="M146 479h2v1.32813h-2zm0 0"/></clipPath><clipPath id="f"><path d="M153 479h9v1.32813h-9zm0 0"/></clipPath><clipPath id="g"><path d="M160 479h3v1.32813h-3zm0 0"/></clipPath><clipPath id="h"><path d="M166 479h9v1.32813h-9zm0 0"/></clipPath><clipPath id="i"><path d="M173 480h3v.32813h-3zm0 0"/></clipPath><clipPath id="j"><path d="M180 479h8v1.32813h-8zm0 0"/></clipPath><clipPath id="k"><path d="M187 480h2v.32813h-2zm0 0"/></clipPath><clipPath id="l"><path d="M193 479h9v1.32813h-9zm0 0"/></clipPath><clipPath id="m"><path d="M200 480h3v.32813h-3zm0 0"/></clipPath><clipPath id="n"><path d="M206 479h9v1.32813h-9zm0 0"/></clipPath><clipPath id="o"><path d="M213 479h3v1.32813h-3zm0 0"/></clipPath><clipPath id="p"><path d="M220 479h8v1.32813h-8zm0 0"/></clipPath><clipPath id="q"><path d="M227 479h3v1.32813h-3zm0 0"/></clipPath><clipPath id="r"><path d="M233 479h8v1.32813h-8zm0 0"/></clipPath><clipPath id="s"><path d="M240 479h3v1.32813h-3zm0 0"/></clipPath><clipPath id="t"><path d="M246 479h9v1.32813h-9zm0 0"/></clipPath><clipPath id="u"><path d="M253 480h2v.32813h-2zm0 0"/></clipPath><clipPath id="v"><path d="M260 479h8v1.32813h-8zm0 0"/></clipPath><clipPath id="w"><path d="M266 480h1v.32813h-1zm0 0"/></clipPath><clipPath id="x"><path d="M273 479h8v1.32813h-8zm0 0"/></clipPath><clipPath id="y"><path d="M279 480h2v.32813h-2zm0 0"/></clipPath><clipPath id="z"><path d="M286 479h9v1.32813h-9zm0 0"/></clipPath><clipPath id="A"><path d="M292 480h2v.32813h-2zm0 0"/></clipPath><clipPath id="B"><path d="M300 479h8v1.32813h-8zm0 0"/></clipPath><clipPath id="C"><path d="M305 479h3v1.32813h-3zm0 0"/></clipPath><clipPath id="D"><path d="M313 478h8v2.32813h-8zm0 0"/></clipPath><clipPath id="E"><path d="M327 477h7v3.32813h-7zm0 0"/></clipPath><clipPath id="F"><path d="M340 478h8v2.32813h-8zm0 0"/></clipPath><clipPath id="G"><path d="M353 479h8v1.32813h-8zm0 0"/></clipPath><clipPath id="H"><path d="M367 477h6v3.32813h-6zm0 0"/></clipPath><clipPath id="I"><path d="M379 479h9v1.32813h-9zm0 0"/></clipPath><clipPath id="J"><path d="M385 480h2v.32813h-2zm0 0"/></clipPath><clipPath id="K"><path d="M393 479h8v1.32813h-8zm0 0"/></clipPath><clipPath id="L"><path d="M408 476h4v4.32813h-4zm0 0"/></clipPath><clipPath id="M"><path d="M420 477h7v3.32813h-7zm0 0"/></clipPath><clipPath id="N"><path d="M434 477h6v3.32813h-6zm0 0"/></clipPath><clipPath id="O"><path d="M447 477h6v3.32813h-6zm0 0"/></clipPath><clipPath id="P"><path d="M460 477h7v3.32813h-7zm0 0"/></clipPath><clipPath id="Q"><path d="M144 466h4v2h-4zm0 0"/></clipPath><clipPath id="R"><path d="M144 453h4v2h-4zm0 0"/></clipPath><clipPath id="S"><path d="M144 439h4v2h-4zm0 0"/></clipPath><clipPath id="T"><path d="M144 426h4v2h-4zm0 0"/></clipPath><clipPath id="U"><path d="M144 412h4v3h-4zm0 0"/></clipPath><clipPath id="V"><path d="M144 399h4v3h-4zm0 0"/></clipPath><clipPath id="W"><path d="M144 384h3v6h-3zm0 0"/></clipPath><clipPath id="X"><path d="M144 372h4v4h-4zm0 0"/></clipPath><clipPath id="Y"><path d="M144 359h4v3h-4zm0 0"/></clipPath><clipPath id="Z"><path d="M144 345h4v5h-4zm0 0"/></clipPath><clipPath id="aa"><path d="M466 345h2v3h-2zm0 0"/></clipPath><clipPath id="ab"><path d="M144 331h4v6h-4zm0 0"/></clipPath><clipPath id="ac"><path d="M466 331h2v3h-2zm0 0"/></clipPath><clipPath id="ad"><path d="M144 318h4v5h-4zm0 0"/></clipPath><clipPath id="ae"><path d="M466 318h2v3h-2zm0 0"/></clipPath><g id="af" clip-path="url(#clip1)"><path fill="#fff" fill-opacity="0" fill-rule="evenodd" d="M0 0h1000v1000H0zm0 0"/><path fill="#d3d3d3" fill-opacity="0" fill-rule="evenodd" d="M162.15234 355.86719l-.23437.29297.0586.23437.11718.17188.17578.23437.29297.34766.11328.0586.11719-.17188.0586-.23438.17577-.17578.46485-.17578h.69922l.23437.29297.28906.8164.0586.17579.17578.23046.35156.23438.69922.69922.17188.17578.23437.34765.23438.41016.28906.58203.41015.46485.23047.23437.23438.17578.11719.23047.17578.29297.17187 1.16406v.23438l.0586.28906.05859.11719.11719.11719.34765.41015.11719.17188.17578.17578.17578.23437.11719.17188.17188.35156.05859.23438.23437.40625.23438-.0586-.17578.17578-.0586.92969h-.58203l-.23437-.11328-.34766.11328-.11719.11719-.05859.29297-.0586.17578-.11718.17187-.46484.29297-.0586.23438-.0586.11328v.64453l.0586.17187v.41016l.0586.0586v.40624l.05859.40625.11719.17579.05859.05859.23047.64062-.0586.29297v.69922l-.05859.58203v.23438l-.0586.23047-.05468.35156v1.92187l.05469.1172h.42578l-.36719.11718-.02344.35156.89063 1.16797 1.74219.53906 1.33984.35938v.53906l.08984.8086.53516.71484 1.51953.26953.89063-.08594.08984 1.16406.53516.1797 1.16015-.1797 2.05469-.98437 1.16016-.36328 1.8789-.17578 1.69531-.1797-.17968.71876-1.51563.08594-1.25.08984-.80469.26953-1.07421.8086.26953.71875.53515.89843-.17968.625-.26563.8086.26563 1.07812.625.89844.80468.17969 1.25-.1797-.26562.72267.09766.5039.05468.29297v.17188l.0586.29296v.40625l.17578.1172.35156.11718h.40625l.29297-.17578.11328-.11719.0586-.11719.11718-.23047.0586-.17578.35156-.46484.23047-.17578.17578-.0586.17578.0586.0586.17578.11718.98828.05469.46875.0586.17188.11718.23437.17578.0586.8164.05859h.28907l.11719.23437.05859.40625.0586.35156v1.10547l.11718.29297.11719.34766.28906.69922.17578.35156.58203.7539.35157.17579.17187.0586.46875.23437.64063.46484.34765.23438.29297.17578.29297.05468.23047.0625.8164.34766.29297.17578.11328.17188.35157.35156.11719.17578.52343.64063v.28906l.0586.35156v.34766l.05859.35156.0586.28906.11718.0586.17188.05859h.17578l.58203.23437.17578.1172.17578.28905.17578.23438.11328.23437.29297.23047.11719.11719v.41016l.0586.05468.28906.23438.23437.11719.0586.11718.11718.17188.0586.11719.23047.23437.05859.17578.23437.0586.1172.05859-.1172.11328-.05859.11719v.11719l-.11719.29296-.11719.28907v.58203l.17579.11719.11718.05859.0586.11719.11719.11719.11328.05859.17578.34765.0586.35157.05858.40625v.17578l-.05859.17578-.11719.69922v.17187l.1172.17579.29296.29296h.40625l.17578.1172.11719.17187.11719.29296v.23438h-.52735l-.23047-.23438h-.23437l-.17578.0586-.0586.69922.0586.34765.11719.17579.17578.41015.11718.23047.28907.46875.17578.05469h.52344l.23437.0586.75781.64062.0586.29296v.23438l.05859.0586.23047.34765v.35156l-.11719.17188v.29297l.29297.28906.29297.17578.17187.0586.29297.17577.29297.1172.58203.40624.28906.23438.29297.17578.21875.16015.01563.01172.23047.17579.64062.52343.17578.23438.1172.17578.17577.17578.11328.17188v.64062l.1172.17578.46874.11719.58203.11719.23438.05859.23047.11328.29297.11719.11328.0586.58593.35156.28907.17187.17578.0625.17578.05469.17578.0586.69922.35155.28906.17579.23438.05468.28906.17578.23437.1172.64063.40624.29297.11719.17187.0586.23438.05859.41015.05859.23047.0586.23438.11718.0586.17188-.41017.17578.46875.0586.0586.29296.11328.23438.17578.05468.23438.0586.17578.05859.40625.11719.64062.23437.11719.17188.0586.23437v.17578l-.0586.1172-.0586.40624.23438.23438.11719.05859.34766.11719.64062.23047.17578.11718.28906.1172.17578.17577.23438.46485.58203 1.10546.17578.17579.34766.17578.17578.11719.35156.11718 1.04688.52344.23437.0586.46485.11327.29297.0586.46484.17578.75781.58203.23438.23438.34765.46484.17578.17578.28907.23438.8164.69921.29297.17579.28906.28906.29297.17578.29297.28906.69531.64063.17578.17578.29297.23437.28907.23438.46875.28906.64062.58203.34766.23438.23437.29297.34766.34765.35156.46485.9336.99218.34765.40625.11719.17579.23437.05859.11328.11719.64454.17578.23047.11328.23437.0586.29297.17577.23047.1172.9336.69921.40624.40625.23438.17578.40625.17578.23437.11719.8164.34766.34766.23437.23438.11719.29297.28906.23047.11719.7578.35156.35157.17188.23047.05859.29297.11719.23437.0586.8711.17577h.8164l.46875.23047.17188.0586.875.69921.46484.1172.29297.05858.17578.0586.23047.0586.46875.05859.34766.05859.35156.0586.40625.05859h.29297l.17187.0586v.23046l.17578.17578h.29297l.34766.0586.35156.05859.69922.11719h.64063l.46484-.23438.29297-.17578.17187-.11719.41016-.17187.28906-.17578.9336-.46485.46875-.29297.52343-.29296.46485-.17188.46484-.17578 1.05078-.46485.28906-.11718.41016-.11719.28906-.11719.52735-.17578 1.51562-.69922.58203-.34765.28907-.0586.29297-.0586.34765-.11718.875-.23047.35156-.11719h.11329l.23437-.05859.875-.23437.23438-.0586h.8125l.35156-.0586.8164-.11718.17188-.0586.35156-.05468.29297-.0586.23047-.05859.8164-.17578.17579-.0586h.34765l.23438-.05859.46484-.11718.75781-.17188.23438-.0586h.34765l.41016-.11718.28906-.0586 1.28516-.05859h.28906l.41016-.0586.23047-.05858h.17578l.875-.1172h.40625l.41015-.11718h.34766l.35156-.11328.8711-.0586h1.75l1.04687.28907.41016.11719.28906.11718.35156.11719.28907.11719 1.05078.17187.28906.0586h.29297l.29297.05859.17187.0586.41016.05859.17187.0586.1172.05858h.11718l.11719.0586.35156.0586h.11328l.41016.0664 1.92187.39453 1.92578.39453 1.51953.44922 1.69532.71875 2.14453.80469 1.60547-.71875 1.42968-.80469 1.16016-1.07813 1.25-.44921 3.03516-.71875 1.875-.35938 2.14453-1.34765 2.23437-1.25391 2.5-1.25781 1.69531-.44922 1.78516-.17969 1.16016-.26953.625.53906 1.33984-.26953.71485-.98828.98437-1.34375.44531-.17969.80469-.35937 1.875-.53907 1.78516-.44921 1.25-.26954 1.16015-.08984 1.69922-.08984 1.96094-.26954 1.25-.08984h.53906l.625-.08984h.89063l2.14453-.17969 2.41015-.17969 2.58985-.08984 1.69531.17969 1.60938.08984 1.42968.35938 1.16016.71875 1.875.98828 1.16015 1.52734.26563.71484.6289.08985.35548.89844.53515.53906.53516 1.52734 1.07422.35938h.53515l-.80469.53515.08985 1.70703.71484 2.69532.89063.80468.89453.98829.71484 1.2578 1.78516.53907 1.51953-.17969.35547 1.34375 1.60937-.80469.98047-.53906.26953.26953.31641-.21484.21875-.14453.80078.44922.44922-.35938h.35547l.53515-.26953.53907-.71875.53515-.26953.625-.98828 1.16016.44922.83984.3711 1.39454.61718 1.6953-.17969h1.60548l1.78515.08985.17969-1.70704.53516-1.34375.80468.26954.4922.84765.40233.40625-.08984.53906v.35938l.71485.44922.71093-.26953h1.42969l.35938.98828.4453 1.25781.71485 1.34375 1.25.6289 1.69531.62891.71485-.17969.17969-.53906.98046-.08984.44922.35937.08594 1.25782-.26563.6289-.53515.17969v.53906l.71484.98438.26563.53906.98437.98828.80078 1.07813-.26562.35937-.08985.89844-.625 2.33203-.35546 2.0664-.08985 1.79298-.17969.71875-.08984.53906v1.4375l-.98047 1.88281-.35937 1.70703-.53516.89844-.80469 1.16797-.26562.53906 2.05469 1.2539.08593.35938-.35546.53906-.08985-.17968v.80859l.08985 1.4375-.44532.71484-1.07422.09375-.26562.71485.53515.89844.8047.71875 1.16015.80859 1.33984.26953.44531.35938-.35546.44921-1.78907-.08984-1.25-.44922-.71484-.71875-.625-.08984-.17578 3.58984-.1875 1.3086h89.35937V311.70313h-55.26953v49.08203l.76172.125 3.28906.54296 2.02344 2.83594v2.7539l2.35156.33204 2.34766.33203h4.05078l-1.3789 4.16016-2.02344.70703-2.02344.70312-.54297.34375-2.59375 1.6172-.1875.11718-2.02344-2.07813-.73046-2.74218-2.67188-2.07813-1.375-3.5-.0664-.08203-1.95704-2.67188 2.75-1.41796v-49.08204H294.42187v91.41407l.1172.03125.1328.01172.07422.07421.10547.04688.08985.0586.08593.05859.08985.0586.29687.29687.0586.08984.03125.11719.02734.11719.01563.13671-.03125.1172-.0586.08983-.0586.08594-.04296.10547-.04688.10156-.02734.1211v.14453l.17578.26953.14844.14844.07422.08594.07422.07421.04296.10547.0625.08985.0586.08593.04297.10547.0586.08985.04687.10156.04296.10547.0586.08594.11719.17968.07421.07422.0625.08594.0586.08984.04297.10547.0586.08985.05858.08593.0625.08985.0586.08984.04297.10156.11719.17969.07421.07422.0586.08594.07422.07421.08984.0586.10547.04687h.14844l.1328-.01562.13282.01562.10156-.04687.07422-.07422.04688-.10156-.01563-.13281v-.14844l-.04687-.10547-.02735-.11719-.04687-.10156-.02735-.1211-.04296-.10156-.0625-.08984-.04297-.10156-.04297-.10547-.03125-.11719-.01563-.13281-.01171-.13672.08593-.0586.0586-.08593.12109-.03125.04297.10547.01562.1328v.1172l.0586.10156.0586.08984.08983.0586.14844.14843.0586.08985.04296.10547-.01171.10156.08593.0586.10547.04687.08594.0586.08984.05858.07422.07422-.11719.02735-.10546.04687-.08594.0586-.07422.07421-.0586.08985-.0625.08594-.02734.12109-.04687.10156-.04297.10547-.03125.11719-.01172.13281-.01563.13281v.14844l.02735.11719.04687.10547.04297.10156.0586.08984.07421.07422.08985.0586.07422.07421.08984.0586.0586.08984.04296.10547.04688.10156.11719.03125.1328.01563h.14845l.11718-.03125.10547.04297.04297.10547.04688.10156.02734.1211L299.5 410l.02734.11719.03125.1211.02735.11718.10547.04297.10156.04687.13281-.01562.14844.14844.0625.08593.07422.07422.07031.07422.08984.0625.10547.04297.10156.04297.1172.03125.13671.01562.11719-.03125.07422-.07422.02734-.11718-.01172-.13282-.03125-.12109-.02734-.11719.04297-.10547h.11719l.08984.0625.11719.02735h.14843l.13282.01562h.14843l.13282.01563.1328-.01563h.14845l.1328-.01562.13282-.01172.13672.01172.11719-.02735.13281-.01562.1914-.0586-.05859.17579-.01562.1328-.02735.1211-.01562.13281-.0586.08594-.1328.01563-.10548.04687-.10546.04297-.1172.03125-.11718.02735-.26563.03125h-.14843l-.13281.01562-.07422.07422.05859.08594.14844.14843.11719.1797.07421.0703.08985.0625.08984.0586.08594.0586.08984.05858.10156.04297.10547.0625.10547.04297.08594.0586.10547.04687.10156.04297.17969.11719.0586.08984-.04298.10156-.04687.10547.01562.13281.22266.22266.0586.08985.04296.10156.03125.1211.04297.10155.01563.13282.03125.11718.01171.13672.03125.11719.14844.14844.10156.04297.10547.04296.1172.03125.1328.01563.13672.01563h.11719l.11719-.03125.08984-.0586.04297-.10547.04688-.10156.04296-.10547.03125-.11719.01172-.1328v-.14845l-.01172-.1328-.01562-.13282-.03125-.11719-.04297-.10547-.04688-.10547-.04296-.10156-.04297-.10547-.01563-.13281.01563-.13281.02734-.11719.03125-.11719.02735-.1211.04687-.10155.08984-.0586.08594-.0625.07422-.07422.08984-.05859.22266-.22266.0586-.08593.07421-.07422.11719-.17969.0586-.08594v-.14844l-.07423-.07421-.10156-.04688-.10547-.04297-.10156-.04297-.0586-.08984-.04687-.10547-.02734-.11719.08984-.05859.11719-.03125.10156-.04297.17969-.11719.14844-.14843.01172-.13282-.01172-.10546-.08985-.0586-.1328.01563h-.14845l-.1328.01562-.13282-.01562-.1211-.03125-.08593-.0586-.07422-.07422-.0586-.08984-.0625-.08594-.11718-.17969-.0586-.08593.03125-.1211.08594-.05859.1211-.03125.05859-.08594v-.1211l-.03125-.11718-.0586-.08984-.05859-.08594-.04687-.10547-.02735-.11719-.01562-.1328.0586-.08985.07421-.07422.08984-.0586.1172-.17968.07421-.07422.0586-.08594.14843-.14844.1211-.03125.1328-.01562.13282.01562.07422.07422.04297.10547.01562.13281-.03125.1172-.11719.03124-.1328.01172-.14844.14844-.04297.10547-.04688.10156-.02734.1211-.03125.11718v.14844l.03125.11719.04297.10546.05859.08985.07422.07031.07422.07422.11719.03125.12109.02734.11719-.02734.1328-.01563h.1172l.08984.0586.07422.07422.04687.10546.0586.08594.10156.04688.13281.01562.10547.04297.08594.0586-.01172.10546-.07422.07422-.17969.11719-.05859.08984-.08984.0586-.07032.07422-.07421.07421-.0625.08985-.02735.11719-.01562.1328.01562.13282-.01562.13281v.14844l.01562.13281.02735.1172.03125.12108.07421.07422.08985.0586.08594.0586.08984.05858.11719.03125v.08594l-.10157.04688-.08984.0586-.26563.03124-.11718.02735h-.14844l-.10547.04296-.10156.04688-.0586.08984-.0625.23438-.01171.13281-.03125.1211-.01563.1328v.29298l-.01172.1328.01172.13673.01563.1328.1328.01563.13282.01172.1211.03125.08593.0586.07422.07421.04688.10547.04296.10157.01563.1328v.44532l-.01563.13281v.44532l.03125.26562.02735.11719.01562.13281.03125.11719.08594.21094.03125.26562v.14844l-.03125.11719-.02734.11718-.03125.1211-.02735.11719-.03125.11718-.03125.1211-.01171.1328-.01563.13282.08984.0586.1172-.03125.10155.01562.04688.10547-.03125.26562v.44141l-.04297.10547-.04688.10547-.04296.10156-.04297.10547-.0586.08594-.03125.12109-.04296.11719-.03125.11719-.01563.1328.01563.13282.05859.08984.10547.04688.08594.0586.05859.08593-.01172.13672-.03125.11719-.04297.10156v.44531l-.01562.13281v.14844l-.03125.11719-.04297.10547-.02735.11719-.04687.10546-.04297.10157-.03125.12109-.02734.11719-.03125.13281-.03125.11719-.02735.11719-.04297.10546-.03125.1172-.03125.12108-.01171.13282-.01563.13281v.29688l.02734.11718v.14844l.04688.39844.02734.11719.0586.08984.12109.03125h.14844l.13281-.01563.0586.08985v.11719l-.0586.08984-.08984.0586-.10157.04296-.10546.04688-.08985.05859-.08594.0586-.13671.01562-.1172-.03125-.1328-.01563-.10157.04688-.0625.08594-.01172.13671-.01562.13282-.03125.11719-.02735.11718-.01562.13281-.03125.1211v.29687l.01563.13282.03125.11718v.14844l.01171.13281v.14844l-.02734.11719-.04688.10156-.02734.1211-.03125.11718-.0586.08985-.07421.07421-.10156.04297-.10547.04688-.11719.02734-.1211.03125-.10156-.04687.0586-.08594.10547-.04688.02734-.11718.03125-.11719.02734-.1211.03125-.11718v-.14844l.01563-.13281-.03125-.11719-.04297-.10547-.10547.01563-.07422.07422-.10156.04296-.08984.0625-.07422.07422-.04297.10157-.01563.1328-.03125.1172L304.25 426l-.03125.11719-.02734.11719-.03125.12109-.02735.11719-.03125.11718-.04297.10547-.08984.0586h-.08984l-.1172-.03125-.03124-.08594.01562-.13672-.03125-.11719v-.14844l-.01171-.1328v-.14844l-.0625-.23438-.02735-.1211-.04297-.10156-.04687-.10546-.0586-.08594-.05859-.08985-.04297-.10546-.0625-.08594-.14844-.14844-.0703-.07422-.10548-.04687-.10547-.04297-.10156-.04297-.29687-.29688-.08985-.07421-.08594-.0586-.10546-.04297-.08985-.0625-.08594-.0586-.10546-.04296-.08985-.0586-.08594-.0625-.07421-.0703-.10547-.04688-.08594-.0586-.10547-.04296-.08984-.0625-.10156-.04297-.10547-.04297-.08594-.0586-.10547-.04687-.10547-.04297-.10156-.04687-.08985-.0586-.10156-.04297-.10547-.04296-.08984-.0625-.11719-.02735-.13281-.01562-.13281.01562H299.75l-.13281.01563-.11719-.03125-.08984-.0586-.07422-.07422-.08985-.05859-.10156-.04688h-.14844l-.12109-.02734-.10156-.04297-.07422-.07422-.11719-.17968-.08984-.0586-.10156-.04297-.08985-.0625-.10547-.04296-.08984-.0586-.08594-.0586-.10547-.04687-.0586-.08594-.05858-.08984-.04297-.10547-.04688-.10156-.07422-.07422-.08594-.0586-.07421-.07421-.08985-.0586-.22265-.22265-.04297-.10547-.03125-.26563.10547-.04296h.14453l.10547.04296.07421.07422.08985.0586.08594.0586.10546.04687.08985.05859.14844.14844.0703.07422.14845.14843.0625.08594.07421.07422.08594.0586.07422.07421.08985.0625.08984.0586.08594.05859.26953.17578.10156.04688.10547.04296.10156.04297.04688-.07421.05859-.08594.07422-.07422.07031-.07422.10547.04297.07422.07422.0586.08984.04296.10156.04688.10547.04296.10547.1211.02735.11719-.02735.07421-.08984.04297-.10547.0586-.08985.07422-.07421.10546-.04297.1172-.02735.1328.01172.08985.0586.14844.14843.05859.08985.04297.10547.04687.10156.04297.10547.04297.10156.10547.04688.10547.04296.13281.01563.08594-.0586.0586-.08984.07421-.07422.10547-.04297.11719.02735.10547.04687.10156.04297.10547.04297.10156.04688.17969.11718v.11719l-.01563.13281.01563.13281.01562.13672.0586.08594.10156.04688.1211.02734.11718.03125h.14844l.11719-.03125.05859-.08984.17969-.1172.05859-.08983.07422-.07422.0586-.08594.11718-.17969.17969-.11719.11719.03125.08984.0586.04297.07422-.01563.1328v.1172l.08985.05859h.14843l.13282-.01563.1328-.01171.26563-.03125.10547-.04297.11719-.03125.1211-.02735.07421-.07421.07031-.07422.0625-.08985-.01562-.10547-.04688-.10156-.10156-.04297-.10547-.01562-.11718.02734-.26563.03125h-.14844l-.07421-.07422-.08985-.0586-.11719-.03124-.11718-.02735-.13282-.01562h-.14843l-.13282.01563h-.29687l-.10547-.04688-.14844-.14844-.04297-.10156-.05859-.08984.22266-.22266.08593-.0586.10547-.04296.11719-.03125.13281-.01563.13281.01563.13672.01562.10157.04297.1328-.01172.08985-.0625.10156-.04297.0625-.08984-.04687-.10156-.08984-.0586-.1172-.03125-.10155-.04296-.0586-.08985-.0625-.08984v-.11719l.01563-.13281.10547-.04688.07421-.07031v-.1211l-.08984-.05859-.03125-.11719.08985-.05859.07421-.07422.04297-.10547.0586-.08984.04687-.10156.01563-.13281v-.14844l-.04688-.10547-.04297-.10156-.08984-.0586-.13281-.01562-.10157-.04297-.13671-.01563-.1172-.03125h-.4453l-.13282-.01562-.13281-.01172-.13281-.01563-.11719-.03125h-.14844l-.13281-.01562-.13281-.01172-.26563-.03125-.1211-.04297-.08593-.0586-.07422-.07421v-.14844l.01172-.13281.10547-.04688.10156-.04296.13281-.01563h.15235l.13281-.01562h.29297l.1211.03125.10156.04296.08984.0586.23438.0625.12109-.04688.08984-.05859.10156-.04297.13282-.01562.10547.04296.10156.04688.13281.01172.1211-.02735h.14453l.12109-.03125.11719-.02734.10547-.04687.07421-.07422.08594-.0586.14844-.14843.0586-.08594.04687-.10547.02734-.11719.01563-.10547-.10156-.04296-.08985-.0586-.11719-.03125-.10546-.04297-.08985-.0625-.07422-.08594-.07422-.07421-.10156-.04297-.10547-.04688-.10156-.04297-.0586-.08984-.04687-.10156-.08594-.21094-.0625-.08594-.05859-.08984-.07422-.07422-.08594-.0586h-.26953l-.11719.03126-.08984.05859-.10156.04297-.13281.01562-.10547-.01562-.02735-.11719-.0625-.08984-.11718-.03125-.10157-.04297-.14843-.14844-.03125-.11719-.01563-.10546.07422-.07422.17969-.1172.11719-.02733.11718-.03125.13672.01562.10156.04297.10547.04297.10156.04687.10547.04297.1172.03125.1328.01563.1172.02734.1328.01563.10547-.01563.08985-.0586-.07422-.07421-.10547-.04297-.07422-.07422-.07422-.08984-.14844-.14844-.08593-.0586-.08985-.05859-.07422-.07422-.08984-.0586-.10156-.04687-.1211-.02734-.10156-.04688-.10547-.04296-.11719-.03125-.10156-.04297-.1211-.03125h-.14843l-.11719.03125-.10546.04297-.08594.0625-.17969.11718-.08594.0586-.08984.0586-.10547.04687-.08594.05859-.10547.04297-.10156.04297-.10547.04687-.07422.07422-.05859.08985-.0586.08593-.04687.10547-.0586.08594-.07421.07422-.13281-.01172-.1172-.03125h-.11718l-.07422.07422-.08984.0586-.07422.07421-.08984.0586-.08594.05859-.10547.04687-.10156.04297-.13672.01563-.10156-.04297-.14844-.14844-.10547-.04688h-.08594l-.10547.04688-.10156.04297-.1211.03125-.11718-.03125-.07422-.07422v-.11719l.03125-.1211.07422-.0703.0586-.08985.07421-.07422.11719-.03125.10547-.04296h.29297l.13281-.01563.13672-.01563.10156-.04296.08985-.0586.10156-.04687.08984-.0586.13281-.01171.08985.05859.13281.01172.08984-.0586.08594-.05859.10547-.04297.08984-.0586.08594-.0625.08985-.05859.14843-.14843.0586-.08594.05859-.08985.10547-.04296.13281-.01563.11719.02735.1211.03125.05859-.0586.05859-.08984.03125-.26563.02734-.11719.10547.01172.13281.01563.10157-.04297.08984-.0586.0586-.08984.07421-.07422.0586-.08984.04687-.10156.01172-.13281-.01172-.13282-.04687-.10547-.14844-.14843-.0586-.08985-.05859-.08594-.04297-.10546v-.44532l.01563-.1328v-.14845l.01172-.1328-.0586-.0586-.08984.0586-.10156-.04298-.17969-.11719-.08594-.05859-.0625-.08984-.0586-.08985-.07421-.07421-.08594-.0586-.1211.03125-.10155.01172-.10547.04688-.08594.05859-.10547.04297-.14844.14844-.08984.05859-.08594.0586-.08984.0625-.10547.04296-.13281.01563v-.1211l.10547-.04297.11718-.03125.07422-.0703.04297-.10548v-.14844l-.02734-.11718-.14844-.14844-.13281-.01563h-.14844l-.11719.03125-.10547.04297-.10156.04297-.08984.0625-.11719.02735-.07422-.07422.01172-.13281-.04297-.10157-.04297-.10547-.08984-.05859-.11719.02734-.1211.03125-.11718.03125-.10156.04297-.1211.03125-.10156.04297-.10547.04297-.08984.0586-.10156.01562v-.11719l.01562-.13281-.0586-.08985-.07421.04297-.14844.14844-.0586.08985-.07421.07421-.04688.10547-.04296.10156-.07422.07422-.0586.08985-.07422.07422-.05859.08593-.07422.07422-.08984.0625-.07422.07031-.07422.07422-.10156.01563-.13281.01562-.10547-.04296v-.1211l.14843-.14844.04297-.10156.0586-.08984.04687-.10156.04297-.10547.0586-.08985.03124-.11719.04297-.10156.03125-.1211.02735-.11718.04687-.10547.04297-.10156.04297-.10547.07422-.07031.08984-.0625.08985-.0586.10156-.04296h.29687l.26563-.03125.10547-.04297-.07422-.07422-.11719-.03125-.10547-.04297-.08984-.0586-.10156-.04687-.08985-.0586-.10156-.04296-.10547-.04297-.08984-.0625-.08594-.0586-.10547-.04296-.10156-.04297-.1211-.03125-.11718-.03125-.10157-.04297L297.5 410.25l-.10156-.04297-.08985-.0586-.04296-.10546-.01563-.13281.10156-.04297.13281-.01563.13672.01563.13282-.01563.10156-.04297.0586-.08984.01562-.10547-.08985-.0586-.07421-.07421-.10157-.04297-.08984-.0586-.14844-.14843-.04297-.10547-.01562-.13281v-.29297l-.0586-.08985-.08984-.05859-.07422-.07422-.04297-.10547-.03125-.11718-.0586-.08985-.07421-.07422-.11719-.02734-.07422-.07422-.08984-.0586-.08984-.0625-.08594-.05859-.07422-.07421-.0586-.08594-.04687-.10547-.08594-.0586-.14843-.14843-.19532-.0586-.1328.01563-.10157.04297-.07422.07422-.04688.10156-.04296.10547-.0586.08984-.0586.08594-.29687.29687-.08984.0586h-.08594l-.0625-.08594-.04297-.10547.03125-.11719.0586-.08984.02734-.11719-.01172-.13281-.08984-.0625-.10547.04688-.11719.02734-.11719.03125-.26953.17578-.10156.04688-.11719.02734-.10546.04687-.08985.0586-.10156.04297-.0586-.08594-.04687-.10547.01563-.13281.04687-.10547.07031-.07422.07422-.07031.0586-.08985v-.14843l-.04297-.10547h-.23829l-.10156.04687-.03125.11719-.02734.11719-.03125.1211-.07422.04296-.13281.01563-.07422-.04688-.04297-.10156-.04297-.10547-.04687-.10156-.04297-.10547-.1211.03125-.10156.04297-.13281.01562-.11719.03125-.10547.04297-.08984.0586-.10156.04687-.1211.02734-.13281.01563-.10156-.04297-.0586-.08985-.04687-.10546-.04297-.10157-.04297-.10546v-.1172l.0586-.08984.08593-.05859.17969-.11719.10156-.04687.10547-.04297.10547-.0586.10156-.04296.08985-.0625.10156-.04297.10547-.0586.10156-.04687.08984-.0586.10547-.04296.10156-.04297.08985-.0625.10156-.04297.13672-.01563.11719.03125.10156.04297.1211.03125.10156.04297.10546.04688.10157.04296.10547.04297.10156.04688.10547.04297.10156.04297.10547.04687.08594.0586.10546.04296.1172.03125.10546.04297.10156.04688.08985.0586.10547.04296.10156.04297.10547.04687.11719.02735.10156.04687.1211.02735h.14843l.08594-.0586.01562-.10156.0586-.08984-.02735-.1172-.07422-.07421-.11719-.17969-.07421-.07422-.08985-.07421-.17969-.1172-.08593-.05859-.10547-.04296-.10156-.04688-.26954-.17578-.05859-.08985-.07422-.07421-.0586-.08985-.04296-.10156-.03125-.11719-.01563-.13672v-.5625l-.01171-.1328-.01563-.13282-.03125-.11719-.01562-.13281-.01172-.13281-.03125-.1211-.22266-.22265-.0586-.08594-.01562-.10547.03125-.11719.13281-.01562v-91.41406H172.9922v1.45312l-.0586.23438-.35156 1.05078-.17187.52343-.1172.34766-.17577.41016-.11719.17187-.23438.29297-.23046.0586h-.35157l-.11718.05859-.23047.40625v.29297l.11719.17578.23046.23047.1172.23437.64062.75781.29297.46485.17578.23437.23047.35156.23437.34766.64063.8164.17578.46485.17187.41016.11719.69531.17578.46875.11719 1.39844.0586.46484v.875l.11718 1.04688v4.78125l-.0586.46484-.35156 1.28125-.17578.52344-.11328.41015-.35156.9297L172.93359 336l-.23437.58203-.11719.17578-.17187.34766-.17578.40625-.35157.8164-.0586.29297-.11327.29297-.11719.28906-.0586.17579-.11718.875-.0586.40625-.05859.11718-.0586.17579-.05859.17187-.23047.52734-.11718.17188v.23437l-.11719.23438-.0586.17187-.17577.58594v.28906l-.0586.17579v.29296l-.0586.11329-.05859.52734v.17187l-.05468.23438v2.6211l-.17578.8164-.1172.17578-.17577.23438-.1172.17187-.11327.23438-.58594.93359-.23047.28906-.29297.46485-.17578.23437-.28906.35156-.35156.69922-.11328.23047-.17579.41016-.17578.23046-.40625.52735-.8164.69922-.29297.17187-.28906.23438-.17579.11719-.17578.17578-.52344.40625-.52734.17578-.17187.17578-.23438.05469-.64062.17578h-.75782m12.21094 31.02344l-1.07422.44921.35938.89454 1.25-.71485.44531-.53906-.98047-.08985"/><path fill="#d3d3d3" fill-opacity="0" fill-rule="evenodd" d="M201.50781 416.59766h-.89453l.44922.6289.98047.35938.80469-.08985.4453-.98828-.17577.08985-.71485-.35547-.89453.35547m154.6211 59.0703l-.0586-.52343v-.29297l.11328-.29297.0586-.23046.46875-.46875h.11328l.11719-.11329.11718-.05859h.17579l.23437-.0586h.34766l.23437.0586.11719.0586.23047.17187.0586.17578.11718.58203v.29297l-.11719.17578-.17187.28906-.17579.17579-.52734.52343-.23047.23438-.11719.0586h-.17578l-.11718-.0586-.40625-.29297-.17579-.11719-.11718-.0586-.0586-.11327-.05468-.1172m6.64062-10.95702l-.0586-.17188v-1.10937l.0586-.17188.17578-.0586.17188-.05858h.17578l.23437-.0586.1172.0586.05858.69921-.05859.17188-.11719.17578-.11718.0586-.23438.52343-.11328.0586h-.23438l-.05859-.1172m9.61328-14.39062l-.11719-.17578v-.69922l.29297-.875.1172-.17187.17577-.35156.11328-.23047.1172-.29297.35155-.75781.1172-.23047.17187-.23438h.17578l.11719-.0586h.64062l.11719.0586.23437.23438.17188.11328.35156.29297.11719.11718.11328.17579v.11328l.11719.05859.11718.11719v.69922l-.05859.17578v.23047l-.0586.17578-.34765 1.05078-.11719.23047-.11719.23437-.11718.0586-.23047.23437-.64063.28906h-.875l-.41015-.11718-.64063-.46485"/><path fill="none" stroke="#bebebe" stroke-linecap="round" stroke-linejoin="round" stroke-miterlimit="10" stroke-width=".5" d="M467.95703 311.69531H144.02734v168.625h323.9297v-168.625"/><g clip-path="url(#a)"><path fill="#fff" fill-opacity="0" fill-rule="evenodd" d="M144 475.89063v4.4375h.0039H144V311.67188h.0039H144v164.21875"/></g><g clip-path="url(#b)"><path fill="#fff" fill-opacity="0" fill-rule="evenodd" d="M144.0039 480.32813V311.67188h17.75v131.93359l-.80468 1.21484-2.5039 4.4414-.64454 4.4375.6875 4.4375 3.26563 3.59376 4.4375-1.28125 4.4375-.69922 4.4375 1.39063 2.0664-3.00391-2.0664-2.41406-1.42578-2.02344-3.01172-3.90625-.34766-.53125-4.08984-3.78125-2.34766-.66016-2.08984-1.21484v-131.9336h48.8203v89.94922l-3.79296 3.25391-.54297 4.4414-.10156.23829-4.23828 4.19922 1.2461 4.4375-1.15235 4.4375 1.86328 4.4414 2.28125 1.89063 4.4375.53125 3.39062-2.42188 1.05078-1.50781.82032 1.50781 3.61719 2.8164 4.41015 1.6211.02734.02735 4.4375 2.74609 1.44141 1.66406 2.9961 3.23828 4.4414.64063.3164.5586 4.1211 3.43359 4.4375-.00391 3.3164-3.42969.11329-4.4375-3.42969-3.80078-4.4375-.44922-4.4375.14453-2.17969-.33203-2.26172-3.1211-1.94921-1.3164-2.48828-2.625-.63282-1.8164.60156-4.4375-.6328-4.4375-3.77345-3.46875L223 409.3164l-3.54688-1.44532-4.4375-2.73046-.49609-.26563-3.94531-3.2539v-89.94923h48.82422V420.25l-2.5625 2.3789-1.8789.96485-3.55079 3.47656 1.38672 4.4375 2.16406 2.46485 1.71875 1.97265 2.72266 1.77735 2.0586-1.77735 1.76171-4.4375.29688-4.4375-1.23438-4.4414-2.88281-2.37891V311.67187h62.13672v103.1875l-4.4375.4961-4.44141.27734-4.4375-.01172-1.6875 2.57032-2.75 1.3203-4.4375-.58202-4.4414-.3164-4.34766-.42188-.08985-.03125-.05078.03125-4.38672 1.59375-2.73437 2.84375-1.70313.3828-4.4375-.30468-4.4414.42188-4.4375.8203-4.26563 3.1211.0664 4.4375 4.19923 3.21485 4.4375-.00782 4.4414.48438.90235.7461 3.53515 3.66796 4.4375.02735 4.4375-.28125 3.1172-3.41407.79687-4.4375.52343-1.02344v12.34375l-2.57812 1.9922 2.57812 1.90234 2.89844-1.90235-2.89844-1.99219v-12.34375l4.44141.66016 2.83594.36328 1.60156 1.4961v13.65625l-2.63672 2.60156 2.63672 2.78125 2.4414-2.78125-2.4414-2.60156V433.0039l1.29688-1.4961 2.6953-4.4375.44532-1.4961v32.83595l-4.4375 1.78906-.96094 2.375.96094.66797 4.4375 1.61719 3.2539-2.28516-3.2539-4.16406v-32.83594l4.4375 1.41406 4.4414-1.96094 4.4375.7461 4.4375.15625 4.4375-1.04688 4.4375 1.63672 4.44141-.63281.4961 1.1836 3.9414 3.27734.76563 1.16015-.1914 4.4375 3.86327 3.9414.67188.4961-.67188 3.9961-.3711.4414.3711.32813.32813-.32813 4.10937-.88281 4.4414-.46484 4.4375-.08985 3.33204-3 1.10547-1.22656 4.4375-2.44922 3.09375 3.67578-1.48438 4.4375-.77734 4.4414 1.3086 4.4375 2.29687 2.28126 1.78515 2.15625 2.65625 3.3164 1.20313 1.1211 3.23438 2.88281 4.4375.54688 2.3828 1.01171 2.0547.89454.98828-.89454 3.44921-.23828 4.44141.13672 4.4375.04297 4.4375-.20703 4.4375-.23438 4.4414-.01171 3.73829-3.9297.69922-.83593 4.4375-2.44922 4.4375 1.1211 2.42187-2.27344 2.01563-1.05078 4.4414-1.39063 2.26954-1.9961 2.16796-.54687 3.85938-3.89062-.03906-4.4414-3.82032-3.59376-4.4375.14453-3.21484 3.44922-1.22656 1.40625-3.01953 3.03516-1.41797 1.01562-3.6289 3.42188-.8086 3.01562-.53906-3.01562-.91016-4.4375-.90625-4.4414-2.08203-2.1836-1.38281-2.2539-3.0547-2.9297-3.0703 2.9297-1.26954 4.4375-.10156.03906-.59375-.03907-3.84375-1.51953-3.23437-2.91797-1.20313-1.11719-2.89453-3.3203-1.54297-1.45704-4.4414-2.28125-4.4375 1.34375-4.4375-.14844-2.91407-1.89453-1.52344-1.52344-4.4375-2.3164-4.4414.25-.57422-.84766-3.86328-2.67187-1.86719-1.76953-2.57031-2.57422-4.4375-.6211-3.69531 3.19532-.7422.66406-4.4414 1.38281-4.4375-1.82422-1.05469-.22265-3.3828-3.53907-1.3711-.89843-3.0664-1.92188-4.44141.42188-2.2461 1.5-2.1914 1.28125-2.78516-1.28125-1.65234-1.28125-4.4375-2.05079v-103.1875h124.27343v123.3711l-1.02343.90234 1.02343 1.03906.96485-1.03906-.96485-.90234v-123.3711h22.1875v168.65625H144.00391"/></g><path fill="#50fcfc" fill-rule="evenodd" d="M158.48828 458.13672l-.6875-4.4375.64453-4.4375 2.5039-4.4414.8047-1.21485v3.75781l-1.28516 1.89844-1.07422 4.4375 1.60156 4.4375.75782.83594 2.26172-.83594 2.17578-1.33594 2.78125-3.10156-2.78125-4.125-.33203-.3125-4.10547-1.89844v-3.75781l2.08984 1.21484 2.34766.66016 4.08984 3.78125.34766.53125 3.01172 3.90625 1.42578 2.02344 2.0664 2.41406-2.0664 3.0039-4.4375-1.39062-4.4375.69922-4.4375 1.28125-3.26563-3.59375"/><path fill="#00e8fc" fill-rule="evenodd" d="M160.9961 458.13672l-1.60157-4.4375 1.07422-4.4375 1.28516-1.89844 4.10547 1.89844.33203.3125 2.78125 4.125-2.78125 3.10156-2.17578 1.33594-2.26172.83594-.75782-.83594"/><path fill="#50fcfc" fill-rule="evenodd" d="M203.14453 418.1914l-1.2461-4.4375 4.23829-4.19921.10156-.23828.54297-4.44141 3.79297-3.2539v2.625l-.73438.6289-2.73047 4.4414-.97265 2.26563-2.19531 2.17188 2.1953 3.55859v1.71094l-2.21483 3.60547 2.21484 2.9453 1.9375-2.9453-1.9375-3.60547v-1.71094l3.63281-3.5586.80469-.25v3.83985l-.8711.84766.0547 4.4375.8164 1.73437 2.28906-1.73437-1.99219-4.4375-.29687-.84766v-3.83984l.78906.25 1.14844 4.4375 2.5039 3.27343 4.4375-.76171v6.07421l-.11718.29297.11719.08985.26953-.08985-.26953-.29297v-6.07421l1.93359-2.51172.92969-4.4375-2.86328-2.89063-1.56641-1.54687-2.8711-2.48829-3.67578-1.95312-.76562-.6289v-2.625l3.94531 3.2539.4961.26563 4.4375 2.73046L223 409.31641l.89063.96875 3.77343 3.46875.63281 4.4375-.60156 4.4375.63281 1.8164 2.48829 2.625 1.94922 1.3164 2.26171 3.1211 2.1797.33203 4.4375-.14453v1.76172l-4.4375 1.75781-4.44142.31641-.25.41406.25.27344 4.44141.41406 2.1289 3.75 2.3086 1.92578 4.4375-.30859 1.5625-1.61719-.19531-4.4375-1.36719-1.51562-4.4375-.97266v-1.76172l4.4375.44922 3.42969 3.80078-.11328 4.4375-3.3164 3.42969-4.4375.0039-4.1211-3.43359-.3164-.5586-4.44142-.64062-2.99609-3.23828-1.4414-1.66406-4.4375-2.7461-.02735-.02734-4.41016-1.6211-3.61718-2.8164-.82031-1.50781-1.05079 1.50781-3.39062 2.42188-4.4375-.53125-2.28125-1.89063-1.86328-4.4414 1.15234-4.4375"/><path fill="#00e8fc" fill-rule="evenodd" d="M206.13672 425.57422l-2.21484-2.94531 2.21484-3.60547 1.9375 3.60547-1.9375 2.9453m0-8.26171l-2.19531-3.5586 2.1953-2.17187.97267-2.26562 2.73046-4.44141.73438-.6289v2.3203l-2.01563 2.75 2.01563 2.4375 4.09766-2.4375-4.09766-2.75v-2.3203l.76562.6289 3.67578 1.95313 2.8711 2.48828 1.5664 1.54687 2.86329 2.89063-.9297 4.4375-1.93358 2.51171-4.4375.76172-2.50391-3.27343-1.14844-4.4375-.78906-.25-.80469.25-3.63281 3.55859"/><path fill="#00d4fc" fill-rule="evenodd" d="M210.57422 411.7539l-2.01563-2.4375 2.01563-2.75v1.97657l-.5664.77344.5664.68359 1.15234-.6836-1.15234-.77343v-1.97656l4.09766 2.75-4.09766 2.4375"/><path fill="#fff" fill-opacity="0" fill-rule="evenodd" d="M210.57422 417.34375l-.8711.84766.0547 4.4375.8164 1.73437 2.28906-1.73437-1.99219-4.4375-.29687-.84766"/><path fill="#00c4fc" fill-rule="evenodd" d="M210.57422 410l-.5664-.6836.5664-.77343 1.15234.77344-1.15234.68359"/><path fill="#00e8fc" fill-rule="evenodd" d="M219.45313 427.16016l-.1172-.08985.1172-.29297.26953.29297-.26953.08985m13.3125 9.05859l-.25-.27344.25-.41406 4.4414-.3164 4.4375-1.75782 4.4375.97266 1.36719 1.51562.19531 4.4375L246.08203 442l-4.4375.3086-2.3086-1.92579-2.1289-3.75-4.4414-.41406"/><path fill="#50fcfc" fill-rule="evenodd" d="M252.79297 431.50781l-1.38672-4.4375 3.55078-3.47656v2.05078l-1.45312 1.42578 1.45312 2.27344 2.8086-2.27344-2.8086-1.42578v-2.05078l1.8789-.96484 2.5625-2.37891 2.88282 2.3789 1.23438 4.44141-.29688 4.4375-1.76172 4.4375-2.0586 1.77735-2.72265-1.77735-1.71875-1.97265-2.16406-2.46485"/><path fill="#00e8fc" fill-rule="evenodd" d="M254.95703 429.34375l-1.45312-2.27344 1.45312-1.42578 2.8086 1.42578-2.8086 2.27344"/><path fill="#50fcfc" fill-rule="evenodd" d="M264.07422 431.50781l-.0664-4.4375 4.26562-3.1211 4.4375-.8203 4.4414-.42188 4.4375.30469 1.70313-.38281 2.73437-2.84375 4.38672-1.59375.05078-.03125.08985.03125 4.34765.42187 4.44141.3164v1.5547l-4.4414.21093-4.4375-.1211-3.14844 2.0547-1.28907 1.70703-4.4375-.3789-4.4375-.38673-4.4414.53906-4.4375 2.57032-.52735.39062-.625 4.4375 1.15235.88281 4.4375.28125 4.4414 1.25391 2.44141 2.01953 1.9961 2.07031 4.4375.14844 4.4375-1.63672.53515-.58203 2.36719-4.4375 1.53515-2.98047 4.44141 1.72657 4.4375.42578 3.07813-3.60938 1.0039-4.4414-4.08203-.96875-4.4375-1.17579v-1.55468l4.4375.58203 2.75-1.32031 1.6875-2.57032 4.4375.01172v3.01563l-4.35938 3.98047 4.35938 3.01562 3.79297-3.01562-3.79297-3.98047v-3.01563l4.4414-.27734 4.4375-.4961v2.13282l-3.46874 1.19922 2.96093 4.4375.50782.14843 4.4375.7422 2.14453-.89063-2.14453-1.33985-2.67579-3.09765-1.76171-1.19922v-2.13281l4.4375 2.05078 1.65234 1.28125 2.78516 1.28125 2.1914-1.28125 2.2461-1.5v3.2539l-3.29688 2.6836 3.29688 2.07812 3.17578-2.07812-3.17578-2.6836v-3.2539l4.4414-.42188 3.0664 1.92188 1.3711.89843 3.38281 3.53907 1.0547.22265 4.4375 1.82422 4.4414-1.38281.74219-.66406 3.6953-3.19532v3.22657l-4.4375 4.0039-.69921.40625-3.74219.8164-.84375-.8164-3.59375-3.09375-4.4375.41016-1.42578 2.6836 1.42578 1.18359 2.15235 3.2539-.54688 4.4375 2.83203 2.89063 2.09375 1.54687 2.34375 2.21485 4.4414-1.16016 4.4375-.23828.90626-.8164 3.53125-3.91016.78906-.52735 2.78906-4.4375.69922-4.4375-4.27734-4.22656-4.4375-.1836v-3.22656l4.4375.6211 2.57031 2.57422 1.86719 1.76953 3.86328 2.67187.57422.84766 4.4414-.25v4.3086l-3.78125 3.96874 1.08985 4.4375-1.75 4.09375-.17969.34375-2.0625 4.4414L374.79297 453l.41015.69922 4.03125 4.39844.19532.03906 4.24219 3.6875 3.80078-3.6875.63671-.33985.0586.33985.20312 4.4375 4.17579 3.96875 4.4375-.25 4.4414.36719 4.4375-.0547 4.4375-.45702 4.4375-.74219 4.4414-.375 2.33594-2.45703 2.10157-2.51953 2.57422-1.91797-.10547-4.4375-2.46875-3.92188-3.46485-.51562 1.4336-4.4414-2.01953-4.4375-.38672-.3711-.39063.3711-1.22265 4.4375-2.82813 1.10156-4.4375 1.8203-2.25781-2.92187-2.17969-2.08594-3.1289-2.35156-1.3086-1.42578-2.8164-3.01172-1.625-1.11328-2.80079 1.11328-1.63671.27735-4.4375-.01563-.13672-.26172-4.30079-3.79687-4.4375-.17188v-4.3086l4.4375 2.31642 1.52344 1.52343 2.91406 1.89453 4.4375.14844 4.4375-1.34375 4.44141 2.28125 1.54297 1.45703 2.89453 3.32031 1.20313 1.1172 3.23437 2.91796 3.84375 1.51953.59375.03906.10156-.03906 1.26954-4.4375 3.0703-2.92969 3.0547 2.9297 1.3828 2.2539 2.08204 2.1836.90625 4.4414.91015 4.4375.53907 3.01562.8086-3.01562 3.6289-3.42188 1.41797-1.01562 3.01953-3.03516 1.22656-1.40625 3.21484-3.44922 4.4375-.14453v1.53125l-4.4375 1.25-.76171.8125-3.6797 4.22266-.21484.21875-4.22265 3.02734L431 453.69922l1.49219 3.0586 4.4375-1.51954 2.80078-1.53906 1.64062-1.15625 4.4375-.51953 2.7422-2.76172-.55079-4.4414-2.1914-2.0625v-1.53126l3.8203 3.59375.03907 4.4414-3.85938 3.89063-2.16796.54688-2.26954 1.9961-4.4414 1.39062-2.01563 1.05078-2.42187 2.27344-4.4375-1.1211-4.4375 2.44922-.69922.83594-3.73828 3.92969-4.4414.01171-4.4375.23438-4.4375.20703-4.4375-.04297-4.44142-.13672-3.44921.23829-.98829.89453-2.05468-.89454-2.38281-1.01171-4.4375-.54688-3.23438-2.88281-1.20313-1.1211-2.65625-3.3164-1.78515-2.15625-2.29688-2.28125-1.30859-4.4375.77734-4.4414 1.48438-4.4375-3.09375-3.67579-4.4375 2.44922-1.10547 1.22656-3.33203 3-4.4375.08985-4.4414.46484-4.10938.88281-.32813.32813-.3711-.32813.3711-.4414.67188-3.9961-.67188-.4961-3.86328-3.9414.1914-4.4375-.76562-1.16015-3.9414-3.27735-.4961-1.1836-4.4414.63282-4.4375-1.63672-4.4375 1.04688-4.4375-.15625-4.4375-.7461-4.44141 1.96094-4.4375-1.41406-.44531 1.4961-2.69531 4.4375-1.29688 1.49609-1.60156-1.4961-2.83594-.36328-4.4414-.66015-.52344 1.02343-.79688 4.4375-3.11719 3.41406-4.4375.28125-4.4375-.02734-3.53515-3.66797-.90235-.7461-4.4414-.48437-4.4375.00782-4.19922-3.21485"/><path fill="#00e8fc" fill-rule="evenodd" d="M268.27344 432.39063l-1.15235-.88282.625-4.4375.52735-.39062 4.4375-2.57031 4.4414-.53907v1.4336l-4.4414.73437-2.08985 1.33203 2.08985 2.45313 3.64844 1.98437.79296.30078 4.4375 3.6875 4.4375.1797 4.4375-2.16017 1.22266-2.0078-1.22266-1.91798-4.4375-1.14062-1.79687-1.3789-2.64063-1.53516-4.4375-.53125v-1.4336l4.4375.38672 4.4375.3789 1.28907-1.70702 3.14843-2.0547 4.4375.1211 4.44141-.21094v2.73438l-2.99219 3.85156 2.99219 1.69531 4.4375.125 1.55078-1.8203-1.55078-2.58985-4.4375-1.26172v-2.73438l4.4375 1.17579 4.08203.96875-1.0039 4.4414-3.07813 3.60938-4.4375-.42578-4.4414-1.72657-1.53516 2.98047L291 435.94531l-.53516.58203-4.4375 1.63672-4.4375-.14844-1.99609-2.0703-2.4414-2.01954-4.44141-1.2539-4.4375-.28125"/><path fill="#00d4fc" fill-rule="evenodd" d="M272.71094 429.52344l-2.08985-2.45313 2.08985-1.33203 4.4414-.73437v1.43359l-3.12109.63281 3.1211 1.5 2.08593 2.9375 2.35156 1.95703 4.4375-.6289 2.79688-1.32813-2.79688-.97656-4.4375-3.33594-.26953-.125-4.16797-.63281v-1.4336l4.4375.53126 2.64063 1.53515 1.79687 1.3789 4.4375 1.14063 1.22266 1.91797-1.22266 2.00781-4.4375 2.16016-4.4375-.17969-4.4375-3.6875-.79296-.30078-3.64844-1.98437"/><path fill="#00c4fc" fill-rule="evenodd" d="M277.15234 428.57031l-3.12109-1.5 3.1211-.63281 4.16796.63281.26953.125 4.4375 3.33594 2.79688.97656-2.79688 1.32813-4.4375.6289-2.35156-1.95703-2.08594-2.9375"/><path fill="#50fcfc" fill-rule="evenodd" d="M294.90234 446.72266l-2.57812-1.90235 2.57812-1.99219 2.89844 1.9922-2.89844 1.90234"/><path fill="#00d4fc" fill-rule="evenodd" d="M299.34375 428.76563l-2.99219-1.69532 2.99219-3.85156v3.36719l-.375.48437.375.21094 4.4375-.17969.02734-.03125-.02734-.04687-4.4375-.4375v-3.36719l4.4375 1.26172 1.55078 2.58984-1.55078 1.82031-4.4375-.125"/><path fill="#00c4fc" fill-rule="evenodd" d="M299.34375 427.28125l-.375-.21094.375-.48437 4.4375.4375.02734.04687-.02734.03125-4.4375.17969"/><path fill="#50fcfc" fill-rule="evenodd" d="M303.78125 452.04297l-2.63672-2.78125 2.63672-2.60156 2.4414 2.60156-2.4414 2.78125m0 11.19922l-.96094-.66797.96094-2.375 4.4375-1.78906 3.2539 4.16406-3.2539 2.28515-4.4375-1.61718"/><path fill="#00e8fc" fill-rule="evenodd" d="M312.65625 425.64453l-4.35938-3.01562 4.35938-3.98047v2.95703l-1.11719 1.02344 1.11719.77734.97656-.77734-.97656-1.02344v-2.95703l3.79297 3.98047-3.79297 3.01562"/><path fill="#00d4fc" fill-rule="evenodd" d="M312.65625 423.40625l-1.11719-.77734 1.11719-1.02344.97656 1.02344-.97656.77734"/><path fill="#00e8fc" fill-rule="evenodd" d="M321.02734 422.6289l-2.96093-4.4375 3.46875-1.19921 1.76171 1.19922 2.67579 3.09765 2.14453 1.33985-2.14453.89062-4.4375-.74219-.50782-.14843m13.82032 2.07812l-3.29688-2.07812 3.29688-2.6836 3.17578 2.6836-3.17578 2.07812m8.8789 3.54688l-1.42578-1.1836 1.42578-2.6836 4.4375-.41015 3.59375 3.09375.84375.8164 3.74219-.8164.69922-.40625 4.4375-4.0039 4.4375.18359v1.28906l-4.4375.88281-2.15235 2.0547-2.28515.88671L352.60157 430l-3.02344-2.92969-1.41407-1.21875-2.19922 1.21875 2.19922 4.375.05469.0625-.05469.0586-1.11328 4.3789 1.11328 1.13672 4.4375 3.29297 4.4414-.78906 3.3125-3.64063 1-4.4375.125-.48047v4.60157l-.07421.3164.07422 1.03906 1.63672-1.03906-1.63672-.3164v-4.60157l.66406.48047 3.77344 1.79297 1.33984-1.79297 1.63281-4.4375-2.97265-2.9375v-1.28906l4.27734 4.22656-.69922 4.4375-2.78906 4.4375-.78906.52735-3.53125 3.91015-.90625.8164-4.4375.23829-4.4414 1.16016-2.34376-2.21485-2.09375-1.54687-2.83203-2.89063.54688-4.4375-2.15235-3.2539"/><path fill="#00d4fc" fill-rule="evenodd" d="M348.16406 431.44531l-2.19922-4.375 2.19922-1.21875 1.41406 1.21875L352.60156 430l4.4414-2.04297v.96094l-4.01171 2.58984-.42969.3711-3.99219 4.0664 3.9922 3.36328 4.4414-.875 2.26562-2.48828.88282-4.4375-3.14844-2.58984v-.96094l2.28515-.88672 2.15235-2.05469 4.4375-.8828v1.28906l-4.03516 1.64843 4.03516 3.375 1.66797-3.375-1.66797-1.64844v-1.28906l2.97265 2.9375-1.6328 4.4375-1.33985 1.79297-3.77344-1.79297-.66406-.48047-.125.48047-1 4.4375-3.3125 3.64063-4.4414.78906-4.4375-3.29297-1.11329-1.13672 1.11328-4.3789.05469-.0586-.05469-.0625"/><path fill="#00c4fc" fill-rule="evenodd" d="M352.60156 439.3086l-3.99219-3.36329 3.9922-4.0664.42968-.3711 4.01172-2.58984v.96094l-2.52735 1.6289-1.91406 1.66016-2.72656 2.77734 2.72656 2.29688 4.4414-.96094 1.21485-1.33594.76563-4.4375-1.98047-1.6289v-.96094l3.14844 2.58984-.88282 4.4375-2.26562 2.48828-4.4414.875"/><path fill="#00b8fc" fill-rule="evenodd" d="M352.60156 438.24219l-2.72656-2.29688 2.72656-2.77734 1.91406-1.66016 2.52735-1.6289v.95703l-1.03906.67187-3.40235 2.94531-1.46094 1.4922 1.46094 1.23046 4.4414-1.05078.16407-.17969.64844-4.4375-.8125-.67187v-.95703l1.98047 1.6289-.76563 4.4375-1.21484 1.33594-4.4414.96094"/><path fill="#00a8fc" fill-rule="evenodd" d="M352.60156 437.17578l-1.46094-1.23047 1.46094-1.49219v1.28907l-.19922.20312.19922.16797.69922-.16797-.69922-.20312v-1.28906l3.40235-2.94532 1.03906-.67187.8125.67187-.64844 4.4375-.16406.17969-4.4414 1.05078"/><path fill="#009800" fill-rule="evenodd" d="M352.60156 436.11328l-.19922-.16797.19922-.20312.69922.20312-.69922.16797"/><path fill="#50fcfc" fill-rule="evenodd" d="M361.48047 435.6289l-.07422.31641.07422 1.03906 1.63672-1.03906-1.63672-.3164"/><path fill="#00c4fc" fill-rule="evenodd" d="M365.91797 430.44531l-4.03516-3.375 4.03516-1.64844v1.28516l-.88281.36328.8828.73438.36329-.73438-.36328-.36328v-1.28515l1.66797 1.64843-1.66797 3.375"/><path fill="#00b8fc" fill-rule="evenodd" d="M365.91797 427.80469l-.88281-.73438.8828-.36328.36329.36328-.36328.73438"/><path fill="#00e8fc" fill-rule="evenodd" d="M374.79297 453l-2.24219-3.73828 2.0625-4.4414.17969-.34376 1.75-4.09375-1.08985-4.4375 3.78125-3.96875v1.55469l-2.30078 2.41406 2.30079 3.80469.72265.63281-.72265 1.26953-1.78907 3.16797-2.60937 4.4414 2.58594 4.4375 1.8125 1.97657 2.78515-1.97656 1.65235-1.38672 4.4375.34375.28515 1.04297.76563 4.4375.17187 4.4375 3.21485 3.0586 4.4375-.15235 4.4414.75781 4.4375-.21875 4.4375-.8711 4.4375-1.58984 4.4336-.98437h.0078l3.98438-4.4375.45313-3.97656.08594-.46094-.08594-.14063-4.4375-3.66796-2.30469-.62891-2.13672-1.57422-2.39453 1.57422-2.04297.85547-4.4375-.28516-2.29297-.57031-2.14453-1.1211-2.23047-3.3203-.69531-4.4375-1.51563-1.57423-4.4375-.71484-4.4375 1.65625-1.98046-3.80469-2.45704-2.17187-4.4375-.24219v-1.55469l4.4375.17188 4.30079 3.79687.13671.26172 4.4375.01563 1.63672-.27735 2.80079-1.11328 1.625 1.11328 2.8164 3.01172 1.3086 1.42578 3.1289 2.35156 2.17969 2.08594 2.25781 2.92188 4.4375-1.82031 2.82813-1.10157 1.22265-4.4375.39063-.3711.38672.3711 2.01953 4.4375-1.4336 4.4414 3.46485.51563 2.46875 3.92188.10547 4.4375-2.57422 1.91797-2.10156 2.51953-2.33594 2.45703-4.4414.375-4.4375.74219-4.4375.45703-4.4375.05469-4.44142-.3672-4.4375.25-4.17578-3.96874-.20312-4.4375-.0586-.33985-.63671.33985-3.80079 3.6875-4.24218-3.6875-.19531-.03906-4.03125-4.39844-.41016-.69922"/><path fill="#00d4fc" fill-rule="evenodd" d="M377.42188 453.69922l-2.58594-4.4375 2.60937-4.4414 1.78906-3.16798.72266-1.26953-.72265-.63281-2.30079-3.80469 2.30079-2.41406v1.55078l-.82422.86328.82421 1.35938 3.51563 3.07812.92188.85547v2.59375l-1.64454.98828 1.64454 1.17188L385 444.8203l-1.32813-.98828v-2.59375l1.26954-.85547-.65235-4.4375-.61719-.54297-4.4375-.3203v-1.55079l4.4375.24219 2.45704 2.17187 1.98046 3.80469 4.4375-1.65625v1.8711l-.9453.41796-2.64063 4.4375-.85156 3.51953-4.4375.71875-4.4375-2.73828-1.80079 2.9414 1.80079 3.5 4.4375-3.3125 4.4375-.09374 1.1914 4.34375.85547 4.4375.13281 4.4375 2.25781 2.14844 4.4375-.0547 4.44141 1.14845 4.4375-.38282 4.4375-1.28906 3.41797-1.57031 1.01953-.69531 4.4414-.89454 2.5547-2.84765 1.14453-4.4375-3.69922-3.15625-4.4414-1.1875-4.4375 1.88672-4.4375 1.21484-4.4375.83985-2.04298-4.03516-2.39844-3.10156-2.0703-1.33985-1.14844-4.4375-1.21875-.41797v-1.87109l4.4375.71484 1.51562 1.57422.69531 4.4375 2.23047 3.32031 2.14453 1.1211 2.29297.57031 4.4375.28516 2.04297-.85547 2.39453-1.57422 2.13672 1.57422 2.30469.6289 4.4375 3.66797.08594.14063-.08594.46094-.45313 3.97656-3.98437 4.4375h-.00781l-4.4336.98437-4.4375 1.58985-4.4375.8711-4.4375.21874-4.4414-.75781-4.4375.15234-3.21485-3.0586-.17187-4.4375-.76563-4.4375-.28515-1.04296-4.4375-.34375-1.65235 1.38672-2.78515 1.97656-1.8125-1.97656"/><path fill="#00c4fc" fill-rule="evenodd" d="M379.23438 452.76172l-1.80079-3.5 1.80079-2.9414 4.4375 2.73827 4.4375-.71875.85156-3.51953 2.64062-4.4375.94531-.41797 1.21875.41797 1.14844 4.4375 2.07031 1.33985v3.1953l-4.4375.70313-2.33984 3.64063.9414 4.4375.09766 4.4375 1.30079 1.23437 4.4375.04688 4.4414 1.53906 4.4375-.54687 4.4375-1.70313 1.24219-.57031 3.19531-2.17578 4.4414-1.0039 1.12891-1.25782 1.8047-4.4375-2.9336-2.5039-4.4414-.97657-4.4375 2.14453-3.07423 1.33594-1.36328.45312-4.4375.29688-1.0664-.75-3.375-4.34375v-3.19531l2.39843 3.10156 2.04297 4.03515 4.4375-.83984 4.4375-1.21484 4.4375-1.88672 4.4414 1.1875 3.69923 3.15625-1.14454 4.4375-2.55468 2.84765-4.4414.89454-1.01954.6953-3.41797 1.57032-4.4375 1.28906-4.4375.38282-4.4414-1.14844-4.4375.05469-2.25782-2.14844-.13281-4.4375-.85547-4.4375-1.1914-4.34375-4.4375.09375-4.4375 3.3125m0-15.45703l-.82422-1.35938.82421-.86328 4.4375.32031.6172.54297.65234 4.4375-1.26954.85547-.92187-.85547-3.51563-3.07812"/><path fill="#00e8fc" fill-rule="evenodd" d="M383.67188 443.83203l-1.64454.98828 1.64454 1.17188L385 444.8203l-1.32813-.98828"/><path fill="#00b8fc" fill-rule="evenodd" d="M391.14844 458.13672l-.9414-4.4375 2.33983-3.64063 4.4375-.70312v1.49219l-4.4375.61718-1.4375 2.23438 1.03125 4.4375.06641 4.4375.33985.32422 4.4375.14844 4.4414 1.92578 4.4375-.71094 3.85938-1.6875.57812-.9336 4.4375-2.72265 3.17578-.78125 1.26563-.30469 2.16406-4.13281-2.16406-1.84766-4.4414-.76953-4.4375 2.40625-.48048.21094-3.95703 1.3164-4.4375.25-2.22656-1.5664-2.21485-2.85156v-1.4922l3.375 4.34376 1.06641.75 4.4375-.29688 1.36328-.45312 3.07422-1.33594 4.4375-2.14453 4.4414.97656 2.9336 2.5039-1.80469 4.4375-1.1289 1.25782-4.4414 1.0039-3.19532 2.17579-1.24219.57031-4.4375 1.70313-4.4375.54687-4.4414-1.53906-4.4375-.04688-1.30079-1.23437-.09765-4.4375"/><path fill="#00a8fc" fill-rule="evenodd" d="M392.14063 458.13672l-1.03125-4.4375 1.4375-2.23438 4.4375-.61718 2.21484 2.85156 2.22656 1.5664 4.4375-.25 3.95703-1.3164.48047-.21094 4.4375-2.40625v.86328l-3.16406 1.7539-1.27344 2.52345-4.4375-.34375-4.4375.19921-3.38672-2.3789-1.05469-1.35938-4.4375.53125-.53125.82813.53125 2.21484.625 2.22266 3.8125 3.97656.3672.46094 4.07421 1.97656 4.4375-.875 2.51953-1.10156 1.91797-3.10156 2.50781-1.33594 1.9297-.83985 4.4414-.92578 1.39844-2.67187-1.39844-1.19531-4.4414-.5586v-.86328l4.4414.76953 2.16406 1.84766-2.16406 4.13281-1.26563.30469-3.17578.78125-4.4375 2.72265-.57812.9336-3.85938 1.6875-4.4375.71094-4.4414-1.92579-4.4375-.14843-.33985-.32422-.0664-4.4375"/><path fill="#009800" fill-rule="evenodd" d="M392.54688 455.91406l-.53125-2.21484.53125-.82813 4.4375-.53125v1.50782l-2.76172 4.28906 2.76171 2.8789 1.23829 1.5586 3.20312 1.55078 4.4375-1.03516 1.17578-.51562 2.41016-4.4375-3.58594-1.39453-4.4375.15234-4.4414-3.04687v-1.50782l1.05468 1.35938 3.38672 2.3789 4.4375-.19921 4.4375.34375 1.27344-2.52344 3.16406-1.7539v.86327l-1.60547.89063 1.60547 1.82422 4.4414-.61719.63282-1.20703-.63281-.54297-4.4414-.34766v-.86328l4.4414.5586 1.39844 1.1953-1.39844 2.67188-4.4414.92579-1.9297.83984-2.5078 1.33594-1.91798 3.10156-2.51953 1.10156-4.4375.875-4.07422-1.97656-.36719-.46094-3.8125-3.97656-.625-2.22266"/><path fill="#00ac00" fill-rule="evenodd" d="M396.98438 461.01563l-2.76172-2.87891 2.76171-4.28906v1.6328l-1.70703 2.65626 1.70704 1.78125 2.10937 2.65625 2.33203 1.1289 4.24219-1.1289.19531-.73828 1.3711-3.69922-1.3711-.53516-4.4375.10547-4.4414-2.22656v-1.63281l4.4414 3.04687 4.4375-.15234 3.58594 1.39453-2.41016 4.4375-1.17578.51562-4.4375 1.03516-3.20312-1.55078-1.23829-1.5586"/><path fill="#00c800" fill-rule="evenodd" d="M396.98438 459.91797l-1.70704-1.78125 1.70704-2.65625 4.4414 2.22656v3.47656l-.58984 1.39063.58984.28515 1.07031-.28515-1.0703-1.39063v-3.47656l4.4375-.10547 1.37108.53516-1.37109 3.69922-.19531.73828-4.24219 1.1289-2.33203-1.1289-2.10938-2.65625"/><path fill="#10cc00" fill-rule="evenodd" d="M401.42578 462.85938l-.58984-.28516.58984-1.39063 1.07031 1.39063-1.0703.28515"/><path fill="#00ac00" fill-rule="evenodd" d="M414.73828 455.52344l-1.60547-1.82422 1.60547-.89063v.86329l-.04297.02734.04297.05078.63281-.05078-.6328-.02735v-.86328l4.4414.34766.63281.54297-.63281 1.20703-4.4414.61719"/><path fill="#00c800" fill-rule="evenodd" d="M414.73828 453.75l-.04297-.05078.04297-.02735.63281.02735-.6328.05078"/><path fill="#00e8fc" fill-rule="evenodd" d="M432.49219 456.75781L431 453.69921l1.49219-1.41015 4.22265-3.02734.21485-.21875 3.67969-4.22266.76171-.8125 4.4375-1.25v3.35156l-3.28125 3.15235 3.28125.88672.87891-.88672-.8789-3.15235v-3.35156l2.1914 2.0625.55078 4.4414-2.74219 2.76173-4.4375.51953-1.64062 1.15625-2.80078 1.53906-4.4375 1.51953"/><path fill="#00d4fc" fill-rule="evenodd" d="M445.8086 450.14844l-3.28126-.88672 3.28125-3.15235.87891 3.15235-.8789.88672"/><path fill="#50fcfc" fill-rule="evenodd" d="M445.8086 436.98438l-1.02344-1.03907 1.02343-.90234.96485.90234-.96485 1.03906"/><g clip-path="url(#c)"><path fill="#fff" fill-opacity="0" fill-rule="evenodd" d="M467.9961 480.32813H468V311.67188h-.0039H468v168.65625h-.0039"/></g><path fill="#fff" fill-opacity="0" fill-rule="evenodd" d="M295.25 435.69922l5.78516.80078 1.36718-9.86719-5.78906-.80078-1.36328 9.86719"/><path fill-rule="evenodd" d="M299.82813 428.1289l.5039.06641-.85937 6.23828-.78125-.10937.61718-4.44531-1.375-.19141.07422-.55078.5625.01172.25781-.01953.23829-.0547.22265-.11327.19922-.1836.1836-.27343.15625-.375"/><path fill="#fff" fill-opacity="0" fill-rule="evenodd" d="M317.33594 419.3164l5.76562.9336 1.59375-9.83203-5.76562-.9336-1.59375 9.83204"/><path fill-rule="evenodd" d="M322.08984 411.85547l.50391.07812-1.00781 6.21485-.77735-.125.71875-4.4336-1.37109-.22265.08984-.54688.5625.02735.25782-.01563.24218-.05078.22266-.10547.20703-.17969.1875-.26953.16406-.3711"/><path fill="#fff" fill-opacity="0" fill-rule="evenodd" d="M433.07031 456.3711l4.50781-3.71094-6.33203-7.6875-4.5078 3.71093 6.33202 7.6875"/><path fill-rule="evenodd" d="M430.60547 447.875l.39062-.32422L435 452.41016l-.60938.5-2.85156-3.46485-1.07422.88281-.35156-.42968.39063-.40625.16015-.20313.1211-.21484.0664-.23828v-.26953l-.07812-.32032-.16797-.37109"/><path fill="#fff" fill-opacity="0" fill-rule="evenodd" d="M244.91016 449.82422l5.375-2.28516-3.89453-9.16797-5.375 2.28516 3.89453 9.16797"/><path fill-rule="evenodd" d="M244.95313 440.97266l.46875-.19532 2.46093 5.79297-.72656.3086-1.7539-4.13282-1.27735.54297-.21875-.51172.49219-.28125.21094-.14843.17578-.17188.1289-.20703.07813-.26172.01562-.32812-.05469-.40625"/><path fill="#fff" fill-opacity="0" fill-rule="evenodd" d="M402.5039 471.77344l7.8672-.96094-1.23829-10.11719-7.86328.96094 1.23438 10.11719"/><path fill-rule="evenodd" d="M403.95313 463.17578l3.26171-.39844.08985.73438-2.61719.32031-.01172 1.82031.20703-.1914.25-.16406.3086-.125.3789-.08204.32422-.01171.34766.04296.34765.10547.33594.17578.30469.25391.13672.16016.1211.17968.10937.20704.08984.22656.07031.2539.04688.28125.01953.44141-.05469.42969-.1211.40234-.19921.36719-.26953.3164-.16406.13672-.1797.1211-.20312.10547-.21875.08593-.23828.0625-.25781.04688-.46485.01953-.41015-.05469-.35156-.11719-.30079-.17968-.25-.23438-.20703-.27344-.16406-.3125-.13281-.34375.78125-.09375.10937.21875.125.19532.14454.16406.16406.13672.17969.10156.19921.0664.21485.03126.23437-.00781.3086-.0625.26953-.10547.23047-.14844.18359-.1914.14063-.23438.08593-.27344.03906-.3164-.01953-.35938-.05078-.25781-.08984-.25391-.13281-.23438-.17579-.20703-.21484-.17187-.2539-.1211-.29688-.0625-.34375.00782-.32813.07422-.26562.14453-.25.21875-.27734.30469-.6875.08203.04296-3.45313"/><g clip-path="url(#d)"><path fill="none" stroke="#000" stroke-linecap="round" stroke-linejoin="round" stroke-miterlimit="10" stroke-width=".5" d="M147.3125 479.16016l-6.625 2.33593"/></g><g clip-path="url(#e)"><path fill="none" stroke="#000" stroke-linecap="round" stroke-linejoin="round" stroke-miterlimit="10" stroke-width=".5" d="M146.35156 479.5l.90235.83203"/></g><g clip-path="url(#f)"><path fill="none" stroke="#000" stroke-linecap="round" stroke-linejoin="round" stroke-miterlimit="10" stroke-width=".5" d="M160.76172 479.64844l-6.89453 1.35937"/></g><g clip-path="url(#g)"><path fill="none" stroke="#000" stroke-linecap="round" stroke-linejoin="round" stroke-miterlimit="10" stroke-width=".5" d="M160.76172 479.64844l1.55078 1.90234"/></g><g clip-path="url(#h)"><path fill="none" stroke="#000" stroke-linecap="round" stroke-linejoin="round" stroke-miterlimit="10" stroke-width=".5" d="M174.14063 480.45313l-7.02344-.25"/></g><g clip-path="url(#i)"><path fill="none" stroke="#000" stroke-linecap="round" stroke-linejoin="round" stroke-miterlimit="10" stroke-width=".5" d="M174.14063 480.45313l1.07421 2.20703"/></g><g clip-path="url(#j)"><path fill="none" stroke="#000" stroke-linecap="round" stroke-linejoin="round" stroke-miterlimit="10" stroke-width=".5" d="M187.39063 481.01172L180.5 479.64844"/></g><g clip-path="url(#k)"><path fill="none" stroke="#000" stroke-linecap="round" stroke-linejoin="round" stroke-miterlimit="10" stroke-width=".5" d="M187.39063 481.01172l.71093 2.34765"/></g><g clip-path="url(#l)"><path fill="none" stroke="#000" stroke-linecap="round" stroke-linejoin="round" stroke-miterlimit="10" stroke-width=".5" d="M200.76953 480.52344l-7.01562-.39063"/></g><g clip-path="url(#m)"><path fill="none" stroke="#000" stroke-linecap="round" stroke-linejoin="round" stroke-miterlimit="10" stroke-width=".5" d="M200.76953 480.52344l1.02734 2.22656"/></g><g clip-path="url(#n)"><path fill="none" stroke="#000" stroke-linecap="round" stroke-linejoin="round" stroke-miterlimit="10" stroke-width=".5" d="M214.0625 479.90625l-6.97656.84375"/></g><g clip-path="url(#o)"><path fill="none" stroke="#000" stroke-linecap="round" stroke-linejoin="round" stroke-miterlimit="10" stroke-width=".5" d="M214.0625 479.90625l1.40625 2.01172"/></g><g clip-path="url(#p)"><path fill="none" stroke="#000" stroke-linecap="round" stroke-linejoin="round" stroke-miterlimit="10" stroke-width=".5" d="M227.3164 479.5586l-6.85546 1.54296"/></g><g clip-path="url(#q)"><path fill="none" stroke="#000" stroke-linecap="round" stroke-linejoin="round" stroke-miterlimit="10" stroke-width=".5" d="M227.3164 479.5586l1.60157 1.85937"/></g><g clip-path="url(#r)"><path fill="none" stroke="#000" stroke-linecap="round" stroke-linejoin="round" stroke-miterlimit="10" stroke-width=".5" d="M240.71094 480.09766l-7.01172.46484"/></g><g clip-path="url(#s)"><path fill="none" stroke="#000" stroke-linecap="round" stroke-linejoin="round" stroke-miterlimit="10" stroke-width=".5" d="M240.71094 480.09766l1.29297 2.08593"/></g><g clip-path="url(#t)"><path fill="none" stroke="#000" stroke-linecap="round" stroke-linejoin="round" stroke-miterlimit="10" stroke-width=".5" d="M253.97656 480.95313l-6.91406-1.25"/></g><g clip-path="url(#u)"><path fill="none" stroke="#000" stroke-linecap="round" stroke-linejoin="round" stroke-miterlimit="10" stroke-width=".5" d="M253.97656 480.95313l.75 2.33593"/></g><g clip-path="url(#v)"><path fill="none" stroke="#000" stroke-linecap="round" stroke-linejoin="round" stroke-miterlimit="10" stroke-width=".5" d="M267.23828 481.19922l-6.8086-1.73828"/></g><g clip-path="url(#w)"><path fill="none" stroke="#000" stroke-linecap="round" stroke-linejoin="round" stroke-miterlimit="10" stroke-width=".5" d="M266.25 480.94531l.28906 1.1914"/></g><g clip-path="url(#x)"><path fill="none" stroke="#000" stroke-linecap="round" stroke-linejoin="round" stroke-miterlimit="10" stroke-width=".5" d="M280.64453 480.69531l-6.98828-.73047"/></g><g clip-path="url(#y)"><path fill="none" stroke="#000" stroke-linecap="round" stroke-linejoin="round" stroke-miterlimit="10" stroke-width=".5" d="M279.6289 480.58594l.46094 1.13672"/></g><g clip-path="url(#z)"><path fill="none" stroke="#000" stroke-linecap="round" stroke-linejoin="round" stroke-miterlimit="10" stroke-width=".5" d="M293.97266 480.51563l-7.01563-.375"/></g><g clip-path="url(#A)"><path fill="none" stroke="#000" stroke-linecap="round" stroke-linejoin="round" stroke-miterlimit="10" stroke-width=".5" d="M292.95313 480.46094l.51562 1.11328"/></g><g clip-path="url(#B)"><path fill="none" stroke="#000" stroke-linecap="round" stroke-linejoin="round" stroke-miterlimit="10" stroke-width=".5" d="M307.2539 479.79297l-6.9453 1.07422"/></g><g clip-path="url(#C)"><path fill="none" stroke="#000" stroke-linecap="round" stroke-linejoin="round" stroke-miterlimit="10" stroke-width=".5" d="M306.24219 479.94922l.73437.98047"/></g><g clip-path="url(#D)"><path fill="none" stroke="#000" stroke-linecap="round" stroke-linejoin="round" stroke-miterlimit="10" stroke-width=".5" d="M320.03906 478.41406l-5.88672 3.83203"/></g><path fill="none" stroke="#000" stroke-linecap="round" stroke-linejoin="round" stroke-miterlimit="10" stroke-width=".5" d="M319.1836 478.96875l1.07421.59375"/><g clip-path="url(#E)"><path fill="none" stroke="#000" stroke-linecap="round" stroke-linejoin="round" stroke-miterlimit="10" stroke-width=".5" d="M332.92969 477.8789l-5.03906 4.89844"/></g><path fill="none" stroke="#000" stroke-linecap="round" stroke-linejoin="round" stroke-miterlimit="10" stroke-width=".5" d="M332.19531 478.59375l1.16797.3711"/><g clip-path="url(#F)"><path fill="none" stroke="#000" stroke-linecap="round" stroke-linejoin="round" stroke-miterlimit="10" stroke-width=".5" d="M347 479.0586l-6.55078 2.54296"/></g><g clip-path="url(#G)"><path fill="none" stroke="#000" stroke-linecap="round" stroke-linejoin="round" stroke-miterlimit="10" stroke-width=".5" d="M360.41797 481.29688l-6.7539-1.9336"/></g><g clip-path="url(#H)"><path fill="none" stroke="#000" stroke-linecap="round" stroke-linejoin="round" stroke-miterlimit="10" stroke-width=".5" d="M372.74219 482.90625l-4.77344-5.15625"/></g><g clip-path="url(#I)"><path fill="none" stroke="#000" stroke-linecap="round" stroke-linejoin="round" stroke-miterlimit="10" stroke-width=".5" d="M387.10938 481.05078l-6.875-1.44531"/></g><g clip-path="url(#J)"><path fill="none" stroke="#000" stroke-linecap="round" stroke-linejoin="round" stroke-miterlimit="10" stroke-width=".5" d="M386.10938 480.83984l.33984 1.1797"/></g><g clip-path="url(#K)"><path fill="none" stroke="#000" stroke-linecap="round" stroke-linejoin="round" stroke-miterlimit="10" stroke-width=".5" d="M400.36328 481.30469l-6.7539-1.95313"/></g><g clip-path="url(#L)"><path fill="none" stroke="#000" stroke-linecap="round" stroke-linejoin="round" stroke-miterlimit="10" stroke-width=".5" d="M409.08203 483.625l2.4414-6.58984"/></g><g clip-path="url(#M)"><path fill="none" stroke="#000" stroke-linecap="round" stroke-linejoin="round" stroke-miterlimit="10" stroke-width=".5" d="M426.34375 482.54297l-5.45703-4.42969"/></g><g clip-path="url(#N)"><path fill="none" stroke="#000" stroke-linecap="round" stroke-linejoin="round" stroke-miterlimit="10" stroke-width=".5" d="M439.00781 483.16016l-4.15234-5.66407"/></g><g clip-path="url(#O)"><path fill="none" stroke="#000" stroke-linecap="round" stroke-linejoin="round" stroke-miterlimit="10" stroke-width=".5" d="M452.32813 483.16016l-4.16016-5.66407"/></g><g clip-path="url(#P)"><path fill="none" stroke="#000" stroke-linecap="round" stroke-linejoin="round" stroke-miterlimit="10" stroke-width=".5" d="M465.95703 482.89844l-4.78906-5.14063"/></g><g clip-path="url(#Q)"><path fill="none" stroke="#000" stroke-linecap="round" stroke-linejoin="round" stroke-miterlimit="10" stroke-width=".5" d="M147.48047 466.53516l-6.96094.96093"/></g><path fill="none" stroke="#000" stroke-linecap="round" stroke-linejoin="round" stroke-miterlimit="10" stroke-width=".5" d="M147.48047 466.53516l1.4375 1.98828M160.8203 466.75l-7.00781.52734m7.00781-.52734l1.3086 2.07422m12.01172-1.71484l-7.02344-.19141m7.02344.1914l1.09375 2.19532m12.1875-1.78516l-6.95313-1.01172m6.95313 1.01172l.82812 2.3125m12.50781-2.48828l-6.9961-.66016m6.9961.66016l.94531 2.26172m12.38282-2.5039l-7.02344-.17579m7.02344.17578l1.09765 2.19532m12.21094-2.54297l-7.00781.51953m7.00781-.51953l1.3086 2.07812m12.01171-2.01172l-7.01562.38672m7.01562-.38672l1.26953 2.09766m12.05079-1.86719l-7.02735-.07422m7.02735.07422l1.1289 2.17969m12.15235-1.73828l-6.96094-.95703m6.96094.95703l.84765 2.30469m12.4961-2.59375l-7.01953-.37891m7.01953.3789l1.03125 2.22657m12.28515-2.29688l-7.02343-.23828m6.0039.20313l.53906 1.10156m13.77344-.77734l-6.97656-.81641m5.96094.69922l.4453 1.14453m13.91017-1.40625l-7.02735-.0586m6.0039.05079l.56641 1.08593m13.75391-1.48046l-6.98828.75m5.96875-.64454l.6914 1.01563m13.66016-.60547l-7.02344-.28516m6 .2461l.53125 1.10547m13.8047-1.35938l-7.01954.30078m6-.25781l.6211 1.0586m13.36718-2.47657l-6.32812 3.05078m5.41015-2.60937l.98828.72656m11.69922 3.47656l-3.23828-6.23828m2.76953 5.33203l-.69922 1.00782m11.27735-.08594l3.17187-6.26953m12.08985 6.6289l-.71875-6.98828m15.70312 6.36328l-4.05469-5.73828m16.73829 6.09375l-2.79297-6.44922m2.38672 5.51172l-.76563.95703m14.60547-.07422l-3.02734-6.33984m2.58593 5.41797l-.73047.98828m15.35938-.65625l-4.77344-5.16016m4.07813 4.41016L464.84766 470"/><g clip-path="url(#R)"><path fill="none" stroke="#000" stroke-linecap="round" stroke-linejoin="round" stroke-miterlimit="10" stroke-width=".5" d="M147.5 453.38281l-7 .63281"/></g><path fill="none" stroke="#000" stroke-linecap="round" stroke-linejoin="round" stroke-miterlimit="10" stroke-width=".5" d="M147.5 453.38281l1.34375 2.05078m11.98438-1.72265l-7.02735-.02344m7.02734.02344l1.14454 2.17187m12.15234-1.83984l-6.99219-.6875m6.99219.6875l.9375 2.26562m12.33984-1.97656l-6.91406-1.26953m6.91406 1.26953l.73828 2.33985m12.5625-2.28125l-6.88671-1.38282m6.88672 1.38281l.70312 2.35157m12.66797-2.72266l-6.9961-.64062m6.9961.64062l.94922 2.26172m12.375-2.7461l-7.01953.32423m7.01953-.32422l1.2539 2.11328m12.0625-2.10156l-7.01953.30468m7.01953-.30468l1.2461 2.11328m12.0625-2.2461l-7.0039.57032m7.0039-.57032l1.32422 2.0625m-2.34375-1.98047l.66015 1.03125m13.65235-1.30859l-6.96094.95703m6.96094-.95703l1.4375 1.98828m-2.44922-1.84765l.71875.99609m13.6289-.96484l-7 .61328m7-.61328l1.33594 2.05859m-2.35547-1.96875l.66797 1.03125m13.66016-1.16797l-6.99219.70703m6.99219-.70703l1.36328 2.04297m11.88672-2.45703l-6.85938 1.53906m6.85938-1.53906l1.59765 1.86328m11.69532-1.94531l-6.81641 1.70312m5.82422-1.45703l.82422.91016m13.58594-.47266l-7.01954.33594m5.9961-.28906l.6289 1.05468m13.67188-.39453l-6.94531-1.07812m5.93359.92187l.40234 1.15625m13.96094-1.35547l-7.01953-.36718m5.9961.3125l.51953 1.11328m13.8203-1.34375l-7.02343.20312m20.07031 1.25l-6.48437-2.70312M395.5 456.8828l2.97266-6.36718m-2.54297 5.4414l-1.22266.0625m14.17969.89453l2.82812-6.4336m-2.41406 5.5l-1.22656.08985m13.42578.4336l4.23438-5.60938m-3.6211 4.79297l-1.21094-.19531m13.53907.6836l4.98047-4.95704m-4.25782 4.23828l-1.17187-.36328m16.6211 2.09766l-.73438-6.98828m.6289 5.97265l-1.01953.6875m15.41406.08203l-2.68359-6.49218M464.51172 456l-.78125.94531"/><g clip-path="url(#S)"><path fill="none" stroke="#000" stroke-linecap="round" stroke-linejoin="round" stroke-miterlimit="10" stroke-width=".5" d="M147.50781 440.57422l-7.01562-.38281"/></g><path fill="none" stroke="#000" stroke-linecap="round" stroke-linejoin="round" stroke-miterlimit="10" stroke-width=".5" d="M147.50781 440.57422l1.03516 2.22656m-2.05469-2.28125l.51563 1.11328m13.78906-.76172l-6.95703-.97656m6.95703.97656l.83984 2.3047m-1.85156-2.44532l.42188 1.15234m13.875-.8164l-6.89454-1.3672m6.89453 1.3672l.70704 2.34765m-1.71094-2.54687l.35547 1.17578m13.9414-.8789l-6.85156-1.5625m6.85156 1.5625l.64063 2.36718m-1.63672-2.59375l.32031 1.1836m13.94922-.78907l-6.76562-1.89844m6.76562 1.89844l.51953 2.39844m12.80469-2.4414l-6.78906-1.8125m6.78906 1.8125l.55469 2.39062m12.63672-2.01563l-6.54297-2.5625m5.59375 2.1914l.14062 1.21876m14.36328-1.98047l-7.01953-.29297m6 .25l.53125 1.10547m13.6875-.29688l-6.78515-1.82812m5.79687 1.5625l.27344 1.19531m14.1211-1.40234l-6.96876-.88281m6.96875.8828l.8711 2.29298m12.4414-3.21094l-6.96484.95703m6.96484-.95703l1.4336 1.98828m11.5703-3.02734l-6.33983 3.03125m6.33984-3.03125l1.97266 1.45703m11.32421-1.48828l-6.30859 3.09375m5.39063-2.64453l.99609.71875m12.9961-1.58594l-5.82423 3.9336m4.97657-3.36329l1.08203.57813m10.48437-2.6836l-.63281 7m15.14453-6.67187l-3.02344 6.34375m2.58204-5.42188l1.22656-.05078m9.16797-.6836l3.69922 5.97266m10.30468-6.30468l2.32032 6.6328M380.17969 440l6.98437.76563m-5.96875-.65235l-.45312-1.14062M393.47656 440.5l7.01953-.23438m-6 .19922l-.60937-1.0625m12.90625 1.1836l7.01562-.40235m-5.99609.34375l-.63672-1.05078m13.75 3.16406l5.38281-4.51562m-4.60156 3.85937l-1.13672-.46093m14.48828 1.83203l3.7461-5.94531m-3.19922 5.08203l-1.22656-.08985m15.97656 1.4922l-.21484-7.02345m.18359 6.00391l-1.0664.60547m16.40234-.27735l-4.19532-5.63671m3.58594 4.8164l-.52734 1.10938"/><g clip-path="url(#T)"><path fill="none" stroke="#000" stroke-linecap="round" stroke-linejoin="round" stroke-miterlimit="10" stroke-width=".5" d="M147.51172 427.16406l-7.02344-.1914"/></g><path fill="none" stroke="#000" stroke-linecap="round" stroke-linejoin="round" stroke-miterlimit="10" stroke-width=".5" d="M147.51172 427.16406l1.09375 2.19531m12.19922-1.89062l-6.98047-.80078m6.98047.80078l.89844 2.28516m12.42578-2.34766l-6.9961-.67188m6.9961.67188l.9375 2.26563m12.39062-2.45313l-7.02344-.30078m7.02344.30078l1.05469 2.21484m12.1875-1.64453l-6.8789-1.4414m5.8789 1.23046l.33984 1.1797m14.01953-1.21876l-6.96484-.9414m5.94922.80468l.42578 1.14844m12.98828.91797l-5.13281-4.80078m17.32812 5.60156l-2.89453-6.40234m2.47266 5.47265l-.75.96875m14.14062.09766l-2.19922-6.67578m1.87891 5.70312l-.84766.88672m15.75-.65625l-4.73437-5.1914m4.04688 4.4375l-.41407 1.15234m13.40235.25l-2.70703-6.48828m2.3125 5.54297l-.77735.94922m15.64063-.78516l-5.01172-4.92578m14.4414 5.69531l2.75782-6.46484m-2.35547 5.52343l-1.22266.10547m14.57031-5.78125l1.88672 6.76953m-1.60937-5.78515l.88672-.84375m13.25-.26563l-.3125 7.01953m.26953-6l1.10547-.52343m11.26562-.39844l1.66406 6.82422m-1.42187-5.83203l.91406-.8164m9.84766 1.66405l6.28515 3.14453m6.91797-2.89843l6.50782 2.65234m-5.5586-2.26562l-.125-1.22266m12.78906.26562l5.91407 3.79297m-5.91407-3.79297l.19922-2.4453m16.25782.83202l-.3711 7.01953m.3711-7.01953l2.22265-1.03515m7.875 2.76953l6.0625 3.55078m-5.17969-3.03516l.05079-1.22265m12.40234.67187l6.02344 3.6211m-5.14844-3.09375l.0664-1.22657m13.31641 5.35157L439 424.23046m-3.53516 4.85157l-1.21484-.17187m15.85938 1.66796l.27343-7.01953m-.23047 6l-1.10546.53125m16.67968-.2539l-4.33203-5.53516m3.70313 4.73047l-.5 1.1211"/><g clip-path="url(#U)"><path fill="none" stroke="#000" stroke-linecap="round" stroke-linejoin="round" stroke-miterlimit="10" stroke-width=".5" d="M147.4414 413.04688l-6.8828 1.41015"/></g><path fill="none" stroke="#000" stroke-linecap="round" stroke-linejoin="round" stroke-miterlimit="10" stroke-width=".5" d="M147.4414 413.04688l1.5625 1.89453m11.80079-1.59375l-6.98047.8125m6.98047-.8125l1.39453 2.01953m11.89062-2.23828l-6.91797 1.24609m5.91016-1.0625l.75781.96484m13.26953-2.05078l-6.32812 3.05469m5.40625-2.60938l.99219.72657m13.51562 1.08984l-6.8711-1.46875m5.8711 1.2539l.33985 1.1797m9.6875 1.70703l1.70312-6.81641m9.72266 5.60547l5.48437-4.39063m-4.6875 3.75l-1.125-.48437m13.67188 1.16015l5.42578-4.46093m-4.63672 3.8125l-1.13281-.47266m16.02344 2.38672l.6953-6.99219m-.59374 5.97266l-1.13281.46875m13.74218.4375l1.90625-6.76563m-1.6289 5.78125l-1.19922.26172m13.71484.52735l2.94922-6.375m-2.51953 5.44921l-1.22656.06641m16.52734-5.71484l-1.88281 6.76953m11.59765-5.67969l5.31641 4.59375m7.57031-3.96875l6.17969 3.34375m-5.28125-2.85937l.00781-1.22657m11.99219 2.15235l7.00781.52343m-5.98828-.4453l-.49219-1.125m13.23047-.41407l6.125 3.44531m-5.23437-2.94531l.03125-1.22656m14.09375-.78907l2.72265 6.47657m-2.32421-5.53516l.77343-.94922m10.97656.80469l5.0547 4.8789m-4.32032-4.16796l.33984-1.17969m11.41797 1.85156l6.69922 2.11719m-6.69922-2.11719l-.44531-2.41406m13.71094 2.59375l6.80078 1.75781m-6.80078-1.75781l-.57422-2.38672m1.5625 2.64063l-.28516-1.19141m12.66406.75l6.69532 2.1289m-6.69531-2.1289l-.44141-2.41406m13.60156 3.23437L427.1211 414m-7.0078-.49219l-1-2.24219m16.21874 5.6172l3.19922-6.25782m-2.73438 5.34766l-1.22656.01953m15.28125 1.2539l.79297-6.98437m-.67969 5.96875l-1.14062.44922m17.85156-1.30078l-6.23047-3.25m5.32422 2.77734l.01172 1.22656"/><g clip-path="url(#V)"><path fill="none" stroke="#000" stroke-linecap="round" stroke-linejoin="round" stroke-miterlimit="10" stroke-width=".5" d="M147.46484 399.85938l-6.92968 1.16015"/></g><path fill="none" stroke="#000" stroke-linecap="round" stroke-linejoin="round" stroke-miterlimit="10" stroke-width=".5" d="M146.45703 400.02734l.7461.97266m13.15625-2.3164l-6.08594 3.51171m5.19922-3l1.03906.64844m13-1.41406l-5.76563 4.01953m4.92578-3.4375l1.09375.5625m8.53907-2.24219l3.28125 6.21094m8.3086-4.11719l6.73046 2.02735m-5.75-1.73438l-.23828-1.20313m12.42578 1.8047l7.02344.23827m-6-.20312l-.53906-1.10156m12.83203 1.16015l7.02343.04688m-6.0039-.03906l-.5664-1.08594m12.85937 1.1914l7.02734-.17578m-6.0039.14844l-.60157-1.0664m13.53516 3.03124l5.74219-4.05078m-4.90625 3.46094l-1.09375-.55469m14.92968 2.28906l3.03125-6.33984m-2.58984 5.41406l-1.22656.0547m12.98828.03124l5.2539-4.66406m-4.48828 3.98828l-1.15234-.42969m16.75-4.71484l-.83985 6.97656m.71485-5.96094l1.14453-.4414m11.21094-.53516l1.32812 6.89844m-1.13672-5.89453l.95704-.76953m12.22656-.2461l1.20703 6.92188m-1.03125-5.91406l.96875-.75391m10.13281.89062l5.28125 4.63282m-4.51172-3.95704l.28125-1.1953m12.40625.36718l4.9961 4.9414m-4.26563-4.22265l.35156-1.17578m16.23047-.25l-2.9961 6.35547m2.5586-5.4336l1.22656-.05859m14.35157 1.17578l-6.64844 2.27344m6.64844-2.27344l1.79297 1.67578m11.17187-2.41406l-5.94531 3.75m5.94531-3.75l2.1289 1.21875m-2.99609-.67188l1.06641.60938m12.10547-2.19531l-3.92578 5.82812m3.35547-4.98047l1.21875.12891m10.95312-1.5664l-.4961 7.0078m10.50391-1.77343l6.1172-3.45703m-5.22657 2.95312l-1.03516-.66015m17.82422 2.6953l-2.61328-6.52343m2.23047 5.57422l-.78906.9375m14.79296-.1289l-3.22656-6.2422m2.75781 5.33594l-.69921 1.00782m15.6914-1.12891l-5.64062-4.1875m4.82031 3.57813l-.1836 1.21484"/><g clip-path="url(#W)"><path fill="none" stroke="#000" stroke-linecap="round" stroke-linejoin="round" stroke-miterlimit="10" stroke-width=".5" d="M146.53906 384.69531l-5.07812 4.85547"/></g><path fill="none" stroke="#000" stroke-linecap="round" stroke-linejoin="round" stroke-miterlimit="10" stroke-width=".5" d="M146.53906 384.69531l2.32813.76953m10.27734-1.33984l-3.66016 5.9961m3.66016-5.9961l2.44922.14453m9.54688-.6211l-1.02344 6.94923m1.02344-6.94922l2.3125-.82422m10.1953.79687l.59376 7.00391m-.50781-5.98438l1.03125-.66406m9.34765 1.58594l6.29297 3.125m-6.29297-3.125l-.0664-2.45313m15.85156.56641l1.35547 6.89453m-1.16016-5.89062l.95313-.77344m9.83203 1.41016l6.02343 3.61328m-5.14843-3.08985l.0625-1.22265m12.26172 4.10937l6.2539-3.20703m-5.34375 2.73828l-1.00781-.69922m16.625 3.07813l-.16797-7.02735m.14063 6.00391l-1.06641.60156m15.0664.34375l-1.48437-6.87109m1.26953 5.8711l-.9375.79296m17.23438-3.35547l-7.01953.25391m20.03515-1.55469l-6.42187 2.85547m5.48828-2.4414l.96484.7578m13.16406-1.41796l-6.17968 3.34765m6.17968-3.34765l2.04297 1.35547m11.42578-1.02735l-6.48828 2.69141m5.54688-2.30078l.94531.78125m13.51953-.48438l-6.90234 1.31641m6.90234-1.3164l1.53516 1.91406m11.7461-.44141l-6.83595-1.6289m6.83594 1.6289l.61719 2.375m-1.61328-2.61328l.3086 1.1875m13.96484-.8125l-6.76172-1.90235m6.76172 1.90235l.52343 2.39844m-1.50781-2.67579l.26172 1.19922m14.01562-2.90234l-6.71875 2.0586m6.71875-2.0586l1.73829 1.73438m-2.71485-1.4336l.86719.86719m12.8711-2.2539l-5.60938 4.23046m5.60937-4.23047l2.22266 1.03516m-3.03906-.41797l1.11328.51563m12.66015-1.53907l-4.89453 5.04297m4.89453-5.04297l2.35547.6836m-3.0664.05078l2.35547.6836m11.98828-1.0625l-5.53125 4.33202m5.53125-4.33203l2.24218.9961m11.69922 2.08984l-6.78125-1.83985m6.78125 1.83985l.54297 2.39453m11.85156-.8164l-4.9414-4.9961m4.9414 4.9961l-.72656 2.33984m13.5625-1.94531l-3.98437-5.78516m3.98437 5.78515l-1.13281 2.1797m15.03125-2.6836l-5.15234-4.77735m5.15234 4.77735l-.625 2.3711m-.125-3.06641l-.3125 1.1875"/><g clip-path="url(#X)"><path fill="none" stroke="#000" stroke-linecap="round" stroke-linejoin="round" stroke-miterlimit="10" stroke-width=".5" d="M147.32422 372.66797l-6.64844 2.27734"/></g><path fill="none" stroke="#000" stroke-linecap="round" stroke-linejoin="round" stroke-miterlimit="10" stroke-width=".5" d="M147.32422 372.66797l1.79297 1.67578M146.35547 373l.89844.83984m13.42187-1.05078l-6.72266 2.03906m6.72266-2.03906l1.73438 1.73828m-2.71094-1.4414l1.73047 1.73828m12.60937-1.8711l-6.8164 1.70704m6.8164-1.70704l1.64453 1.82422m-2.63672-1.57421l1.64454 1.8203m-2.63672-1.5703l1.64453 1.8203m13.59375-2.53124l-6.69531 2.13281m6.6953-2.13281l1.75392 1.71484m-2.72657-1.40625l1.7539 1.71485m-2.73046-1.40235l1.75781 1.71485m13.6289-1.82422l-6.9414 1.10937m6.9414-1.10937l1.47657 1.95703m-2.48828-1.79688l1.48047 1.96094m12.89062-1.51563l-7.02734-.10156m7.02734.10156l1.1211 2.1797m-2.14453-2.19532l1.12109 2.1836m-2.14453-2.19923l.5625 1.09375m14.79297-.88671l-7.01563-.45313m7.01563.45313l1.00781 2.23437m-2.03125-2.30078l.50781 1.11719m13.79688-.7461l-6.94531-1.0664m6.9453 1.0664l.8086 2.31641m-1.82031-2.46875l.8086 2.3164m13.40234-1.66406l-6.71875-2.0625m6.71875 2.0625l.46484 2.41016m-1.4414-2.71094l.46484 2.41016m-1.4414-2.71094l.23046 1.20703m15.01953-.54297l-6.67969-2.1914m6.6797 2.1914l.41796 2.41797m-1.39063-2.73437l.41797 2.41797m13.92188-2.28516l-6.78516-1.82422m6.78516 1.82422l.55078 2.39453m-1.53906-2.65625l.55078 2.39063m13.86328-3.29297l-7.00781.50781m7.00781-.50781l1.3086 2.07812m-2.32813-2.0039l1.3086 2.07812m12.9453-2.69531l-6.84375 1.59375m6.84375-1.59375l1.61329 1.85156m-2.60938-1.6211l1.61328 1.85157m12.78516-1.44922l-7.01953.32813m7.01953-.32813l1.25 2.10938m-2.26953-2.0625l1.25 2.10937m13.08203-1.79687l-7.01563-.39063m7.01563.39063l1.03125 2.22656m-2.05078-2.28516l1.03125 2.22656m13.26953-1.83203l-6.94531-1.0625m6.9453 1.0625l.8086 2.31641m-1.82031-2.47266l.40625 1.16016m13.96094-1.48438l-7.02735-.10156m7.02735.10156l1.1211 2.1836m-2.14454-2.19922l.5625 1.09375m13.59766-2.23438l-6.67188 2.20704m6.67188-2.20704l1.77343 1.69532m-2.74218-1.3711l.88671.84766m13.05079-1.91406l-5.97657 3.69531m5.97657-3.69531l2.11718 1.23828m-2.98828-.69922l2.1211 1.23438m11.90234-2.01172l-5.65234 4.17187m5.65234-4.17187l2.21484 1.05859m-3.03515-.45313l2.21094 1.0586m12.05468-1.48047l-5.91015 3.80469m5.91015-3.80469l2.14063 1.19922m-3.0039-.64453l2.14452 1.19922m12.58985.0703l-7.02344.15626m7.02344-.15625l1.19921 2.14062m-2.22265-2.11718l.60156 1.0703m12.97656 1.17188l-5.5039-4.375m5.5039 4.375l-.44921 2.41016m13.07421-1.7539l-4.125-5.6875m4.125 5.6875l-1.07421 2.20312m14.48046-2.26953l-4.30468-5.55469m4.30468 5.55469l-1.0078 2.23828"/><g clip-path="url(#Y)"><path fill="none" stroke="#000" stroke-linecap="round" stroke-linejoin="round" stroke-miterlimit="10" stroke-width=".5" d="M147.36328 359.48047l-6.72656 2.02344"/></g><path fill="none" stroke="#000" stroke-linecap="round" stroke-linejoin="round" stroke-miterlimit="10" stroke-width=".5" d="M147.36328 359.48047l1.72656 1.7461m-2.70312-1.44923l1.72656 1.7422m-2.70703-1.44923l.86328.8711m14.42188-1.42188l-6.75391 1.94922m6.7539-1.94922l1.70704 1.76172m-2.6914-1.48047l1.70702 1.76563m12.4961-2.32813l-6.5625 2.51172m6.5625-2.51172l1.85156 1.60938m-2.80469-1.2461l1.85156 1.61328m12.28516-2.28125l-6.29688 3.1211m6.29688-3.1211l1.99219 1.4297m-2.91016-.97657l1.9961 1.42969m12.35156-1.625l-6.52735 2.60156m6.52735-2.60156l1.8711 1.58593m-2.82032-1.20703l.9375.79297m13.51172-.55078l-6.89453 1.35938m6.89453-1.35938l1.54687 1.90234m-2.55078-1.70312l1.55078 1.90234m12.82422-1.66406l-7.00781.48438m7.00781-.48438l1.30078 2.08203m-2.32031-2.01172l1.30078 2.08203m13.03125-1.61328l-7.0039-.59375m7.0039.59375l.96484 2.25781m-1.98437-2.34375l.96484 2.25782m13.35938-2.07422l-6.98047-.78906m6.98047.78906l.90234 2.28515m-1.91797-2.39843l.90235 2.28125m13.44531-2.35547l-7.01563-.41406m7.01563.41406l1.02344 2.23047m-2.04297-2.28906l.50781 1.11328m13.78125-1.85157l-6.92578 1.1797m6.92578-1.1797l1.5 1.94532m-2.50781-1.77344l.75.97265m13.30078-2.02734l-6.3789 2.94922m6.3789-2.94922l1.95313 1.48047m-2.88282-1.05469l.97656.74219m13.1797-1.34375l-6.20313 3.30078m6.20312-3.30078l2.03516 1.3711m-2.9375-.89063l1.01562.6836m13.40235-.71094l-6.60547 2.39062m6.60547-2.39063l1.82031 1.64454m-2.78125-1.29688l.91016.82422m13.5078-.67578l-6.88671 1.39844m6.88672-1.39844l1.5586 1.89453m11.77734-1.77734l-6.9297 1.16796m6.9297-1.16796l1.49609 1.9453m11.71094-2.39452l-6.71485 2.0625m6.71485-2.0625l1.73828 1.73437m-2.71485-1.4336l.8711.8672m13.28125-1.55079l-6.4336 2.82813m6.4336-2.82813l1.92578 1.51954m-2.86328-1.10547l1.92578 1.51953m12.1914-2.19922l-6.16796 3.36328m6.16797-3.36328l2.05078 1.34766m-2.94531-.85938l2.04687 1.35156m12.16406-1.83984l-6.16797 3.35938m6.16797-3.35938l2.05078 1.35156m-2.9453-.86328l2.04687 1.35156m12.13671-1.89062l-6.11328 3.46484m6.11329-3.46484l2.0703 1.3164m-2.96093-.8125l2.07031 1.31641m12.35547-1.35547l-6.55469 2.53125m6.5547-2.53125l1.85546 1.60938m-2.8086-1.23828l1.85548 1.60546m12.59375-1.32421l-6.91797 1.22656m6.91796-1.22656l1.51172 1.93359m-2.51953-1.7539l1.51563 1.93359m12.85547-1.73438l-7.01172.47266m7.01172-.47266l1.29296 2.08203m11.98047-1.26953l-6.93359-1.15234m5.92578.98437l.39063 1.16016"/><g clip-path="url(#Z)"><path fill="none" stroke="#000" stroke-linecap="round" stroke-linejoin="round" stroke-miterlimit="10" stroke-width=".5" d="M147.03906 345.41406l-6.07812 3.53125"/></g><path fill="none" stroke="#000" stroke-linecap="round" stroke-linejoin="round" stroke-miterlimit="10" stroke-width=".5" d="M147.03906 345.41406l2.08203 1.29297m-2.96875-.78125l2.08594 1.29297m11.40234-2.67578l-4.65234 5.26953m4.65234-5.26953l2.38672.57031m-3.0625.19922l1.19141.28516m12.55469-1.25l-4.16406 5.66015m4.16406-5.66015l2.42969.35546m-3.03516.46875l1.21484.17579m13.21875-.53907l-5.1875 4.73829m5.1875-4.73829l2.3125.82422m-3.0664-.13672l1.15625.41407m13.01172-.98829l-5.38672 4.51172m5.38672-4.51171l2.27734.92578m11.09375-.85938l-5.4961 4.3789m5.4961-4.3789l2.25.97656m11.78906.67188l-6.94531 1.08203m6.94531-1.08203l1.46875 1.96484m-2.48047-1.8086l.73438.98438m13.60937-.20312l-6.98047-.79297m6.98047.79297l.90235 2.28125m-1.91797-2.39844l.45312 1.14453m13.875-.9961l-6.97656-.85546m6.97656.85547l.8789 2.29297m-1.89452-2.41797l.4414 1.14453m13.90625-1.72656l-7.0078.5586m7.0078-.5586l1.32032 2.07031m-2.33985-1.98828l.66016 1.03515m13.45703-2.07421l-6.57422 2.47656m6.57422-2.47656l1.84375 1.62109m-2.80078-1.26172l.92187.8086m13.17578-1.56641l-6.22265 3.26953m6.22265-3.26953l2.02735 1.38281m-2.9336-.90625l1.01172.6914m13.03516-1.46093l-5.875 3.85547m5.875-3.85547l2.15234 1.17969m-3.0078-.61719l2.15233 1.17969m12.14454-1.53516l-6.12891 3.4414m6.1289-3.4414l2.0625 1.32422m-2.95312-.82422l1.03125.66406m13.57031-.04687l-6.92187 1.20703m6.92187-1.20703l1.50782 1.9375m11.80078-1.97266l-6.91016 1.28125m6.91016-1.28125l1.52734 1.91797m11.8164-1.75l-6.96484.9414m6.96485-.9414l1.4336 1.99219m-2.44923-1.85547l.71875.9961m13.5-1.64844l-6.74219 1.97265m6.7422-1.97265l1.71484 1.7539m-2.69532-1.46875l1.71485 1.75781m12.27734-2.76562l-6.13672 3.42188m6.13672-3.42188l2.0625 1.32813m-2.95312-.83204l2.05859 1.33204m12.16406-1.80079l-6.16797 3.36329m6.16797-3.36329l2.05078 1.35157m-2.9453-.86329l2.04687 1.35157m12.26171-1.64844l-6.36718 2.98047m6.36719-2.98047l1.96093 1.47656m-2.88672-1.04297l1.96094 1.47657m12.33594-1.78125l-6.47656 2.72265m6.47656-2.72265l1.90234 1.55078m-2.84375-1.15625l1.90235 1.55078m12.48437-1.57813l-6.73828 1.98829m6.73828-1.98829l1.71875 1.75391m-2.69922-1.46484l1.71875 1.7539m12.52344-2.20703l-6.63281 2.3164m6.63281-2.3164l1.80469 1.66406m-2.76953-1.32812l1.80078 1.66797m12.49219-1.97266l-6.65625 2.2539"/><g clip-path="url(#aa)"><path fill="none" stroke="#000" stroke-linecap="round" stroke-linejoin="round" stroke-miterlimit="10" stroke-width=".5" d="M466.89063 346.05078l1.78515 1.67969"/></g><path fill="none" stroke="#000" stroke-linecap="round" stroke-linejoin="round" stroke-miterlimit="10" stroke-width=".5" d="M465.92188 346.3789l.89062.83985"/><g clip-path="url(#ab)"><path fill="none" stroke="#000" stroke-linecap="round" stroke-linejoin="round" stroke-miterlimit="10" stroke-width=".5" d="M146.8711 331.83594l-5.7422 4.05469"/></g><path fill="none" stroke="#000" stroke-linecap="round" stroke-linejoin="round" stroke-miterlimit="10" stroke-width=".5" d="M146.8711 331.83594l2.1875 1.10547m-3.02344-.51563l2.1914 1.10547m-3.02734-.51563l1.09766.55079m13.48437-2.20704l-4.9336 5.00391m4.9336-5.0039l2.35156.70312m-3.07031.02734l1.17578.35157m12.4375-1.4336l-4.08984 5.71094m4.08984-5.71094l2.42969.32422m-3.02734.5039l1.21875.16407m12.41406-1.17578l-3.53125 6.07812m3.53125-6.07812l2.44922.09375m11.33984.23828l-4.48047 5.41406m4.48047-5.41406l2.40234.49219m11.76172.54297l-6.17969 3.34375m6.1797-3.34375l2.04687 1.35546m11.64844-.24609l-6.9375 1.125m6.9375-1.125l1.48437 1.95313m11.63672-.1172l-6.55078-2.54687m6.55078 2.54688l.28906 2.4375m-1.24219-2.8086l.28907 2.4375m14.0664-2.3203l-6.72265-2.03907m6.72265 2.03906l.47266 2.40625m-1.44922-2.70312l.47266 2.40625m13.96093-2.89453l-7.01172-.46875m7.01172.46875l1.00782 2.23828m-2.02735-2.3086l1.00781 2.23829m13.32032-2.73829l-6.9961.67188m6.9961-.67188l1.35547 2.04688m-2.375-1.94922l1.35546 2.04688m12.80079-2.96094l-6.64063 2.30469m6.64063-2.3047l1.79687 1.67188m-2.76172-1.33594l.89844.83594m13.17578-1.64844l-6.22656 3.25782m6.22656-3.25781l2.02344 1.3828m-2.92969-.91015l1.01172.6914m13.52734-.28515l-6.86328 1.5m6.86328-1.5l1.58985 1.8711m-2.58594-1.65235l.79297.9375m13.5664-.89453l-6.96093.97656m6.96093-.97656l1.44141 1.98438m-2.45312-1.84375l.71875.99218m13.61328-1.09765l-6.96875.90234m6.96875-.90234l1.42187 2.0039m11.82813-2.35156l-6.83985 1.60156m5.84766-1.36719l.80469.92188m13.39062-1.53906l-6.61719 2.36719m6.6172-2.3672l1.8164 1.64844m11.08203-2.46484l-5.78125 4m5.78125-4l2.17969 1.1289m-3.02344-.54687l1.08984.5625m13.21485-.91015l-6.07422 3.53125m6.07422-3.53125l2.08593 1.29296m11.51954-.66015l-6.65235 2.26172m6.65235-2.26172l1.78515 1.6836m11.70313-.84766l-7 .59375m7-.59375l1.33203 2.0625m-2.35156-1.97657l.66796 1.03125m13.64454-1.32812l-6.95704 1.01172m6.95704-1.01172l1.44921 1.98047m-2.46093-1.83203l.72265.98828m13.40625-1.88672l-6.5625 2.51562m6.5625-2.51562l1.85157 1.61328m-2.8047-1.2461l1.84766 1.60938m12.23438-2.38281l-6.1875 3.32812"/><g clip-path="url(#ac)"><path fill="none" stroke="#000" stroke-linecap="round" stroke-linejoin="round" stroke-miterlimit="10" stroke-width=".5" d="M466.65625 332.19922l2.03906 1.36328"/></g><path fill="none" stroke="#000" stroke-linecap="round" stroke-linejoin="round" stroke-miterlimit="10" stroke-width=".5" d="M465.7539 332.6836l1.02344.67968"/><g clip-path="url(#ad)"><path fill="none" stroke="#000" stroke-linecap="round" stroke-linejoin="round" stroke-miterlimit="10" stroke-width=".5" d="M147.24219 319.1914l-6.48438 2.71094"/></g><path fill="none" stroke="#000" stroke-linecap="round" stroke-linejoin="round" stroke-miterlimit="10" stroke-width=".5" d="M147.24219 319.1914l1.89844 1.5547m-2.84375-1.16016l1.89843 1.55469m-2.83984-1.16016l1.89844 1.55469m13.48047-1.8047l-6.83594 1.63282m6.83594-1.63281l1.62109 1.83984m-2.61719-1.60156l1.625 1.83984m-2.6211-1.60156l.8125.91797m14.44923-1.5586l-6.7461 1.96485m6.7461-1.96484l1.71093 1.7578m-2.6914-1.47265l1.71094 1.75781m-2.69532-1.47265l.85547.8789m14.375-1.60546l-6.64844 2.27343m6.64844-2.27343l1.79297 1.67968m-2.76172-1.34765l1.79297 1.67578m-2.75781-1.34375l.89453.83594m14.3711-1.44922l-6.6836 2.17578m6.6836-2.17578l1.76562 1.70312m-2.73828-1.38672l1.76562 1.70313m-2.73828-1.38672l.88281.85156m14.45703-1.19922l-6.83984 1.60157m6.83984-1.60157l1.6172 1.84766M213 319.98047l1.61719 1.84765m12.78515-1.34765l-7.02343.13672m7.02343-.13672l1.19532 2.14062M226.3828 320.5l1.1914 2.14453M240.69142 321l-6.96875-.90234M240.6914 321l.86328 2.29297m-1.8789-2.42578l.86327 2.29687m13.40235-1.8086l-6.83985-1.61327m6.83985 1.61328l.62109 2.3711m-1.61719-2.60548l.625 2.3711m13.72266-2.32422l-6.91406-1.23828m6.91406 1.23828l.7539 2.33594m-1.7578-2.51563l.75 2.33594m13.625-2.82422l-7.02735.09766m7.02734-.09766l1.17969 2.15234m-2.20313-2.13671l.58985 1.07421m13.625-1.96093l-6.78125 1.83984m6.78125-1.83984l1.67969 1.78906m-2.66407-1.52344l.83985.89453m13.44922-1.21094l-6.75782 1.9375m6.75782-1.9375l1.70312 1.76563m-2.6875-1.48438l.85156.88282m13.51563-.875l-6.89453 1.36328m6.89453-1.36328l1.55078 1.89844m-2.55469-1.70313l1.55078 1.90234m12.66407-2.5039l-6.6836 2.17578m6.6836-2.17578l1.76562 1.70312m-2.73828-1.38672l1.76562 1.70313m12.32422-2.4961l-6.28906 3.12891m6.28906-3.1289l1.9961 1.42578m-2.91016-.97266l.9961.71484m12.83593-1.79296l-5.4961 4.3789m5.4961-4.3789l2.25.97265m11.0039-1.04687l-5.375 4.52734m4.59376-3.86719l1.13672.45703m12.40625-1.64453l-4.26563 5.58203m4.26563-5.58203l2.42187.39844m10.76172-.4961l-4.0039 5.77735m4.0039-5.77734l2.4375.28515M412.5 317.8086l-4.39844 5.48047m3.75781-4.6836l1.20704.22657m12.0039 4.91406l-2.90625-6.39843m2.48047 5.46875l-.7461.97265m16.25782-1.84765l-6.44922-2.78516m5.51172 2.3789l.10156 1.22266m14.36719-2.91797l-6.88281 1.41407m6.88281-1.41407l1.5664 1.89063m-2.5664-1.6836l.78125.94532m13.13281-2.20703l-6.07812 3.52734"/><g clip-path="url(#ae)"><path fill="none" stroke="#000" stroke-linecap="round" stroke-linejoin="round" stroke-miterlimit="10" stroke-width=".5" d="M466.60156 318.78516l2.08203 1.29296"/></g><path fill="none" stroke="#000" stroke-linecap="round" stroke-linejoin="round" stroke-miterlimit="10" stroke-width=".5" d="M465.71484 319.29688l1.04297.64843"/><path fill="#00f" fill-rule="evenodd" d="M383.80078 436.57813h8.61719v-10.14454h-8.61719v10.14454"/><path fill="azure" fill-rule="evenodd" d="M385.63281 428.26563h.83203v2.82421h3.28907v-2.82421h.83203v6.48046h-.83203v-2.91406h-3.28907v2.91406h-.83203v-6.48046"/><path fill="#ff3030" fill-rule="evenodd" d="M428.8789 401.07422h7.69141v-10.14844h-7.6914v10.14844"/><path fill="azure" fill-rule="evenodd" d="M430.71094 392.76172h.83203V398.5h3.19531v.73828h-4.02734v-6.47656"/><path fill="#00f" fill-rule="evenodd" d="M366.04688 396.63281h8.61718v-10.14453h-8.61719v10.14453"/><path fill="azure" fill-rule="evenodd" d="M367.8789 388.32031h.83594v2.82422H372v-2.82422h.83203v6.48047H372v-2.91406h-3.28516v2.91406h-.83593v-6.48047"/><path fill="#ff3030" fill-rule="evenodd" d="M224.71484 370.0039h7.69141v-10.14452h-7.6914v10.14453"/><path fill="azure" fill-rule="evenodd" d="M226.54688 361.6914h.83203v5.73829h3.1953v.74219h-4.02733v-6.48047"/><path fill="#ffffe0" fill-rule="evenodd" d="M297.35938 356.5h22.17968v-10.1914h-22.17969V356.5"/><path fill-rule="evenodd" d="M300.85938 348.14063h.5078v6.29687h-.78515v-4.49219h-1.38672v-.55469l.5586-.0625.25-.05468.23046-.08985.20313-.14062.17578-.21094.14063-.29687.10546-.39454m4.8125 0l.23047.01954.21875.05468.20704.08985.19921.1211.1836.14843.17187.17578.30078.42188.2422.49218.17968.54688.11328.57812.03906.59375-.03906.59375-.11328.58203-.17969.5547-.24219.5-.30078.42968-.17187.17969-.1836.15234-.19921.125-.20704.08984-.21875.0586-.23046.01953-.22657-.01953-.21875-.0586-.21094-.08984-.1953-.125-.1836-.15234-.17188-.1797-.30078-.42968-.24219-.5-.17968-.55469-.11328-.58203-.03907-.59375h.83204l.03125.5625.08203.5039.125.44532.16406.375.1875.30078.21094.21875.22265.13672.22656.04688.22657-.04688.22265-.13672.21094-.21875.1914-.30078.16407-.375.125-.44531.08203-.5039.02735-.5625-.02735-.5625-.08203-.5-.125-.4375-.16406-.36329-.1914-.29297-.21095-.21484-.22265-.13281-.22656-.04297-.22657.04297-.22265.1328-.21094.21485-.1875.29297-.16406.36328-.125.4375-.08204.5-.03125.5625h-.83203l.03907-.59375.11328-.57812.17969-.54688.24218-.49219.30078-.42187.17188-.17578.1836-.14844.1953-.1211.21094-.08984.21875-.05468.22656-.01954m5.09375 0h.50782v6.29688h-.78516v-4.49219h-1.39062v-.55469l.5625-.0625.25-.05468.23046-.08985.20313-.14062.17188-.21094.14453-.29687.10546-.39454m2.82422 2.17579h.78516l.01953-.31641.0586-.28516.10156-.2539.14062-.21485.17969-.17187.22266-.1289.26562-.08204.3086-.02734.23828.01953.22265.0625.20313.10156.17969.14063.14843.17187.11328.20703.07032.23438.02734.26562-.02344.26953-.0625.22266-.11328.1914-.15234.17188-.20313.16406-.2461.16407-.6328.39062-.53907.3125-.4375.3164-.34765.32423-.26172.33593-.1914.35157-.125.37109-.07032.39063-.01953.42187h4.21094v-.74219h-3.33204l.08204-.28515.11718-.23438.14844-.20312.1836-.1797.23437-.17187.27734-.17578.71485-.41406.41797-.20703.34375-.23047.28125-.25.21875-.26953.16406-.27735.11328-.28515.0625-.28516.01953-.28125-.04297-.38281-.11719-.34766-.1914-.30859-.25-.26172-.30078-.21094-.34766-.16015-.3789-.09766-.40625-.03515-.4375.03515-.39454.09766-.35546.16406-.3047.23828-.25.30078-.18359.375-.11718.44531-.03907.51954"/><path fill="#ffffe0" fill-rule="evenodd" d="M186.40234 330.76563h22.1797v-10.19141h-22.1797v10.1914"/><path fill-rule="evenodd" d="M189.90234 322.40625h.50782v6.29297h-.78516v-4.48828h-1.39063v-.55469l.5586-.0664.2539-.0547.23047-.08984.20313-.14062.17187-.20703.14453-.29688.10547-.39453m4.8125 0l.23047.01953.21875.05469.20703.08984.19532.1211.18359.14843.17188.17579.30468.42187.24219.49219.17969.54687.10937.57813.03906.58984-.03906.59375-.10937.58594-.17969.55469-.24219.5-.30469.42968-.17187.1797-.1836.15233-.1953.1211-.20704.09375-.21875.0586-.23047.01952-.23047-.01953-.21875-.0586-.20703-.09374-.1953-.1211-.1875-.15234-.16798-.17969-.30469-.42968-.24218-.5-.17969-.5547-.10938-.58593-.03906-.59375h.83203l.02735.5625.08203.50781.1289.44141.16016.375.1914.30078.21095.22266.22265.13672.22656.04687.22657-.04687.22265-.13672.21094-.22266.1914-.30078.16016-.375.1289-.4414.07813-.50782.03125-.5625-.03125-.5586-.07812-.5-.1289-.4375-.16016-.36718-.19141-.28906-.21094-.21485-.22265-.1328-.22657-.04298-.22656.04297-.22266.13281-.21093.21485-.1914.28906-.16017.36719-.1289.4375-.08203.5-.02735.5586h-.83203l.03906-.58985.10938-.57813.17969-.54687.24219-.49219.30468-.42188.16797-.17578.1875-.14843.19531-.1211.20703-.08984.21875-.05469.23047-.01953m5.08985 0h.51172v6.29297h-.78907v-4.48828h-1.38672v-.55469l.5586-.0664.2539-.0547.22657-.08984.20312-.14062.17578-.20703.14063-.29688.10547-.39453m2.82422 2.17578h.78906l.01953-.3164.0586-.28516.09765-.2539.14063-.21485.17968-.17578.22656-.1289.26172-.07813.3086-.02735.23828.01953.22266.0625.20703.10157.17968.14062.14844.17188.11328.20703.07031.23437.02344.26563-.01953.26953-.0664.22265-.10938.19141-.15625.17188-.19922.16406-.25.16406-.63281.39063-.53516.3125-.4375.3164-.34765.32422-.26563.33594-.1875.35156-.125.36719-.07031.39453-.01953.41797h4.21094v-.73828h-3.33204l.08203-.28516.11329-.23828.14843-.19922.1875-.17969.23047-.17187.27735-.17578.71875-.41797.41406-.20313.34766-.23046.28125-.25391.21875-.26563.16406-.27734.10937-.28516.0664-.28515.01954-.28125-.04297-.38281-.1211-.34766-.1875-.3086-.25-.26171-.30468-.21485-.34375-.15625-.38281-.09765-.40625-.03516-.4336.03125-.39843.10156-.35547.16406-.30469.23438-.2461.30469-.1875.375-.11718.44531-.03906.51953"/><path fill="#ffffe0" fill-rule="evenodd" d="M150.79688 467.8789h22.17968v-10.1914h-22.17969v10.1914"/><path fill-rule="evenodd" d="M154.29297 459.51953h.51172v6.29688h-.78906v-4.4922h-1.38672v-.55468l.55859-.0625.2539-.05469.22657-.08984.20703-.14063.17188-.21093.14062-.29688.10547-.39453m4.8164 0l.22657.01953.22265.05469.20703.08984.19532.1211.1836.14844.17187.17578.30078.42187.2461.49219.17968.54687.10937.57813.03907.59375-.03907.59375-.10937.58203-.17969.55469-.2461.5-.30077.42969-.17188.17968-.1836.15235-.1953.125-.20704.08984-.22265.0586-.22656.01952-.23047-.01953-.21875-.05859-.20703-.08984-.19922-.125-.1836-.15235-.17187-.17969-.30078-.42968-.2422-.5-.17968-.55469-.11328-.58203-.03516-.59375h.83203l.02735.5625.08203.5039.125.44532.16406.375.1914.30078.21095.21875.22265.13672.22656.04687.22657-.04687.22265-.13672.21094-.21875.1875-.30078.16406-.375.125-.44531.08203-.50391.03125-.5625-.03125-.5625-.08203-.5-.125-.4375-.16406-.36328-.1875-.29297-.21094-.21485-.22265-.1328-.22656-.04298-.22657.04297-.22265.13281-.21094.21485-.1914.29297-.16407.36328-.125.4375-.08203.5-.02734.5625h-.83204l.03516-.59375.11328-.57813.17969-.54687.24219-.49219.30078-.42187.17187-.17579.1836-.14843.19922-.1211.20703-.08984.21875-.05469.23047-.01953m5.08984 0h.50781v6.29688h-.78516v-4.4922h-1.38671v-.55468l.55859-.0625.25-.05469.23047-.08984.20312-.14063.17578-.21093.14063-.29688.10547-.39453m2.82422 2.17578h.78515l.01953-.3164.0625-.28516.09766-.2539.14063-.21485.17968-.17188.22266-.1289.26563-.08203.30859-.02735.23828.01954.22266.0625.20703.10156.17578.14062.14844.17188.11328.20703.07422.23437.02343.26563-.01953.26953-.0664.22266-.10938.1914-.15625.17188-.20312.16406-.2461.16406-.63281.39063-.53906.3125-.4375.3164-.34375.32422-.26563.33594-.1914.35156-.125.3711-.06641.39062-.02344.42188h4.21485v-.7422h-3.33203l.08203-.28515.11328-.23437.14844-.20313.1875-.17969.23046-.17187.27735-.17578.71875-.41406.41406-.20704.34766-.23046.27734-.25.22266-.26954.16406-.27734.10937-.28515.0625-.28516.02344-.28125-.04297-.38281-.1211-.34766-.1875-.3086-.2539-.26171-.30078-.21094-.34375-.16016-.38281-.09765-.40625-.03516-.4336.03516-.39843.09765-.35547.16407-.30469.23828-.25.30078-.1836.375-.11718.44531-.03906.51953"/></g></defs><use xlink:href="#af"/></svg>