<svg xmlns="http://www.w3.org/2000/svg" role="img" xmlns:xlink="http://www.w3.org/1999/xlink" viewBox="142.45 309.95 326.84 171.84"><defs><clipPath id="a"><path d="M144 311.67188h1v168.65625h-1zm0 0"/></clipPath><clipPath id="b"><path d="M144 311.67188h324v168.65625H144zm0 0"/></clipPath><clipPath id="c"><path d="M467 311.67188h1v168.65625h-1zm0 0"/></clipPath><clipPath id="d"><path d="M144 479h4v1.32813h-4zm0 0"/></clipPath><clipPath id="e"><path d="M146 479h2v1.32813h-2zm0 0"/></clipPath><clipPath id="f"><path d="M153 479h9v1.32813h-9zm0 0"/></clipPath><clipPath id="g"><path d="M159 479h2v1.32813h-2zm0 0"/></clipPath><clipPath id="h"><path d="M166 479h9v1.32813h-9zm0 0"/></clipPath><clipPath id="i"><path d="M172 480h2v.32813h-2zm0 0"/></clipPath><clipPath id="j"><path d="M180 478h8v2.32813h-8zm0 0"/></clipPath><clipPath id="k"><path d="M194 478h7v2.32813h-7zm0 0"/></clipPath><clipPath id="l"><path d="M207 478h7v2.32813h-7zm0 0"/></clipPath><clipPath id="m"><path d="M220 479h8v1.32813h-8zm0 0"/></clipPath><clipPath id="n"><path d="M226 480h1v.32813h-1zm0 0"/></clipPath><clipPath id="o"><path d="M233 479h8v1.32813h-8zm0 0"/></clipPath><clipPath id="p"><path d="M239 480h2v.32813h-2zm0 0"/></clipPath><clipPath id="q"><path d="M246 479h9v1.32813h-9zm0 0"/></clipPath><clipPath id="r"><path d="M252 479h2v1.32813h-2zm0 0"/></clipPath><clipPath id="s"><path d="M260 479h8v1.32813h-8zm0 0"/></clipPath><clipPath id="t"><path d="M266 479h2v1.32813h-2zm0 0"/></clipPath><clipPath id="u"><path d="M274 477h7v3.32813h-7zm0 0"/></clipPath><clipPath id="v"><path d="M286 478h8v2.32813h-8zm0 0"/></clipPath><clipPath id="w"><path d="M300 478h8v2.32813h-8zm0 0"/></clipPath><clipPath id="x"><path d="M313 480h8v.32813h-8zm0 0"/></clipPath><clipPath id="y"><path d="M328 477h5v3.32813h-5zm0 0"/></clipPath><clipPath id="z"><path d="M341 477h6v3.32813h-6zm0 0"/></clipPath><clipPath id="A"><path d="M354 477h6v3.32813h-6zm0 0"/></clipPath><clipPath id="B"><path d="M367 477h6v3.32813h-6zm0 0"/></clipPath><clipPath id="C"><path d="M382 476h3v4.32813h-3zm0 0"/></clipPath><clipPath id="D"><path d="M393 478h8v2.32813h-8zm0 0"/></clipPath><clipPath id="E"><path d="M399 479h2v1.32813h-2zm0 0"/></clipPath><clipPath id="F"><path d="M406 478h8v2.32813h-8zm0 0"/></clipPath><clipPath id="G"><path d="M412 479h2v1.32813h-2zm0 0"/></clipPath><clipPath id="H"><path d="M420 478h8v2.32813h-8zm0 0"/></clipPath><clipPath id="I"><path d="M425 479h3v1.32813h-3zm0 0"/></clipPath><clipPath id="J"><path d="M435 476h4v4.32813h-4zm0 0"/></clipPath><clipPath id="K"><path d="M447 477h6v3.32813h-6zm0 0"/></clipPath><clipPath id="L"><path d="M462 476h3v4.32813h-3zm0 0"/></clipPath><clipPath id="M"><path d="M144 465h4v4h-4zm0 0"/></clipPath><clipPath id="N"><path d="M144 453h4v2h-4zm0 0"/></clipPath><clipPath id="O"><path d="M144 439h4v3h-4zm0 0"/></clipPath><clipPath id="P"><path d="M144 425h4v4h-4zm0 0"/></clipPath><clipPath id="Q"><path d="M144 412h4v3h-4zm0 0"/></clipPath><clipPath id="R"><path d="M144 399h4v3h-4zm0 0"/></clipPath><clipPath id="S"><path d="M144 384h4v6h-4zm0 0"/></clipPath><clipPath id="T"><path d="M144 371h3v6h-3zm0 0"/></clipPath><clipPath id="U"><path d="M144 358h4v5h-4zm0 0"/></clipPath><clipPath id="V"><path d="M144 345h4v4h-4zm0 0"/></clipPath><clipPath id="W"><path d="M466 345h2v3h-2zm0 0"/></clipPath><clipPath id="X"><path d="M144 333h4v2h-4zm0 0"/></clipPath><clipPath id="Y"><path d="M466 331h2v3h-2zm0 0"/></clipPath><clipPath id="Z"><path d="M465 332h3v2h-3zm0 0"/></clipPath><clipPath id="aa"><path d="M144 318h4v5h-4zm0 0"/></clipPath><clipPath id="ab"><path d="M466 318h2v2h-2zm0 0"/></clipPath><clipPath id="ac"><path d="M465 318h3v3h-3zm0 0"/></clipPath><g id="ad" clip-path="url(#clip1)"><path fill="#fff" fill-opacity="0" fill-rule="evenodd" d="M0 0h1000v1000H0zm0 0"/><path fill="#d3d3d3" fill-opacity="0" fill-rule="evenodd" d="M162.15234 355.86719l-.23437.29297.0586.23437.11718.17188.17578.23437.29297.34766.11328.0586.11719-.17188.0586-.23438.17577-.17578.46485-.17578h.69922l.23437.29297.28906.8164.0586.17579.17578.23046.35156.23438.69922.69922.17188.17578.23437.34765.23438.41016.28906.58203.41015.46485.23047.23437.23438.17578.11719.23047.17578.29297.17187 1.16406v.23438l.0586.28906.05859.11719.11719.11719.34765.41015.11719.17188.17578.17578.17578.23437.11719.17188.17188.35156.05859.23438.23437.40625.23438-.0586-.17578.17578-.0586.92969h-.58203l-.23437-.11328-.34766.11328-.11719.11719-.05859.29297-.0586.17578-.11718.17187-.46484.29297-.0586.23438-.0586.11328v.64453l.0586.17187v.41016l.0586.0586v.40624l.05859.40625.11719.17579.05859.05859.23047.64062-.0586.29297v.69922l-.05859.58203v.23438l-.0586.23047-.05468.35156v1.92187l.05469.1172h.42578l-.36719.11718-.02344.35156.89063 1.16797 1.74219.53906 1.33984.35938v.53906l.08984.8086.53516.71484 1.51953.26953.89063-.08594.08984 1.16406.53516.1797 1.16015-.1797 2.05469-.98437 1.16016-.36328 1.8789-.17578 1.69531-.1797-.17968.71876-1.51563.08594-1.25.08984-.80469.26953-1.07421.8086.26953.71875.53515.89843-.17968.625-.26563.8086.26563 1.07812.625.89844.80468.17969 1.25-.1797-.26562.72267.09766.5039.05468.29297v.17188l.0586.29296v.40625l.17578.1172.35156.11718h.40625l.29297-.17578.11328-.11719.0586-.11719.11718-.23047.0586-.17578.35156-.46484.23047-.17578.17578-.0586.17578.0586.0586.17578.11718.98828.05469.46875.0586.17188.11718.23437.17578.0586.8164.05859h.28907l.11719.23437.05859.40625.0586.35156v1.10547l.11718.29297.11719.34766.28906.69922.17578.35156.58203.7539.35157.17579.17187.0586.46875.23437.64063.46484.34765.23438.29297.17578.29297.05468.23047.0625.8164.34766.29297.17578.11328.17188.35157.35156.11719.17578.52343.64063v.28906l.0586.35156v.34766l.05859.35156.0586.28906.11718.0586.17188.05859h.17578l.58203.23437.17578.1172.17578.28905.17578.23438.11328.23437.29297.23047.11719.11719v.41016l.0586.05468.28906.23438.23437.11719.0586.11718.11718.17188.0586.11719.23047.23437.05859.17578.23437.0586.1172.05859-.1172.11328-.05859.11719v.11719l-.11719.29296-.11719.28907v.58203l.17579.11719.11718.05859.0586.11719.11719.11719.11328.05859.17578.34765.0586.35157.05858.40625v.17578l-.05859.17578-.11719.69922v.17187l.1172.17579.29296.29296h.40625l.17578.1172.11719.17187.11719.29296v.23438h-.52735l-.23047-.23438h-.23437l-.17578.0586-.0586.69922.0586.34765.11719.17579.17578.41015.11718.23047.28907.46875.17578.05469h.52344l.23437.0586.75781.64062.0586.29296v.23438l.05859.0586.23047.34765v.35156l-.11719.17188v.29297l.29297.28906.29297.17578.17187.0586.29297.17577.29297.1172.58203.40624.28906.23438.29297.17578.21875.16015.01563.01172.23047.17579.64062.52343.17578.23438.1172.17578.17577.17578.11328.17188v.64062l.1172.17578.46874.11719.58203.11719.23438.05859.23047.11328.29297.11719.11328.0586.58593.35156.28907.17187.17578.0625.17578.05469.17578.0586.69922.35155.28906.17579.23438.05468.28906.17578.23437.1172.64063.40624.29297.11719.17187.0586.23438.05859.41015.05859.23047.0586.23438.11718.0586.17188-.41017.17578.46875.0586.0586.29296.11328.23438.17578.05468.23438.0586.17578.05859.40625.11719.64062.23437.11719.17188.0586.23437v.17578l-.0586.1172-.0586.40624.23438.23438.11719.05859.34766.11719.64062.23047.17578.11718.28906.1172.17578.17577.23438.46485.58203 1.10546.17578.17579.34766.17578.17578.11719.35156.11718 1.04688.52344.23437.0586.46485.11327.29297.0586.46484.17578.75781.58203.23438.23438.34765.46484.17578.17578.28907.23438.8164.69921.29297.17579.28906.28906.29297.17578.29297.28906.69531.64063.17578.17578.29297.23437.28907.23438.46875.28906.64062.58203.34766.23438.23437.29297.34766.34765.35156.46485.9336.99218.34765.40625.11719.17579.23437.05859.11328.11719.64454.17578.23047.11328.23437.0586.29297.17577.23047.1172.9336.69921.40624.40625.23438.17578.40625.17578.23437.11719.8164.34766.34766.23437.23438.11719.29297.28906.23047.11719.7578.35156.35157.17188.23047.05859.29297.11719.23437.0586.8711.17577h.8164l.46875.23047.17188.0586.875.69921.46484.1172.29297.05858.17578.0586.23047.0586.46875.05859.34766.05859.35156.0586.40625.05859h.29297l.17187.0586v.23046l.17578.17578h.29297l.34766.0586.35156.05859.69922.11719h.64063l.46484-.23438.29297-.17578.17187-.11719.41016-.17187.28906-.17578.9336-.46485.46875-.29297.52343-.29296.46485-.17188.46484-.17578 1.05078-.46485.28906-.11718.41016-.11719.28906-.11719.52735-.17578 1.51562-.69922.58203-.34765.28907-.0586.29297-.0586.34765-.11718.875-.23047.35156-.11719h.11329l.23437-.05859.875-.23437.23438-.0586h.8125l.35156-.0586.8164-.11718.17188-.0586.35156-.05468.29297-.0586.23047-.05859.8164-.17578.17579-.0586h.34765l.23438-.05859.46484-.11718.75781-.17188.23438-.0586h.34765l.41016-.11718.28906-.0586 1.28516-.05859h.28906l.41016-.0586.23047-.05858h.17578l.875-.1172h.40625l.41015-.11718h.34766l.35156-.11328.8711-.0586h1.75l1.04687.28907.41016.11719.28906.11718.35156.11719.28907.11719 1.05078.17187.28906.0586h.29297l.29297.05859.17187.0586.41016.05859.17187.0586.1172.05858h.11718l.11719.0586.35156.0586h.11328l.41016.0664 1.92187.39453 1.92578.39453 1.51953.44922 1.69532.71875 2.14453.80469 1.60547-.71875 1.42968-.80469 1.16016-1.07813 1.25-.44921 3.03516-.71875 1.875-.35938 2.14453-1.34765 2.23437-1.25391 2.5-1.25781 1.69531-.44922 1.78516-.17969 1.16016-.26953.625.53906 1.33984-.26953.71485-.98828.98437-1.34375.44531-.17969.80469-.35937 1.875-.53907 1.78516-.44921 1.25-.26954 1.16015-.08984 1.69922-.08984 1.96094-.26954 1.25-.08984h.53906l.625-.08984h.89063l2.14453-.17969 2.41015-.17969 2.58985-.08984 1.69531.17969 1.60938.08984 1.42968.35938 1.16016.71875 1.875.98828 1.16015 1.52734.26563.71484.6289.08985.35548.89844.53515.53906.53516 1.52734 1.07422.35938h.53515l-.80469.53515.08985 1.70703.71484 2.69532.89063.80468.89453.98829.71484 1.2578 1.78516.53907 1.51953-.17969.35547 1.34375 1.60937-.80469.98047-.53906.26953.26953.31641-.21484.21875-.14453.80078.44922.44922-.35938h.35547l.53515-.26953.53907-.71875.53515-.26953.625-.98828 1.16016.44922.83984.3711 1.39454.61718 1.6953-.17969h1.60548l1.78515.08985.17969-1.70704.53516-1.34375.80468.26954.4922.84765.40233.40625-.08984.53906v.35938l.71485.44922.71093-.26953h1.42969l.35938.98828.4453 1.25781.71485 1.34375 1.25.6289 1.69531.62891.71485-.17969.17969-.53906.98046-.08984.44922.35937.08594 1.25782-.26563.6289-.53515.17969v.53906l.71484.98438.26563.53906.98437.98828.80078 1.07813-.26562.35937-.08985.89844-.625 2.33203-.35546 2.0664-.08985 1.79298-.17969.71875-.08984.53906v1.4375l-.98047 1.88281-.35937 1.70703-.53516.89844-.80469 1.16797-.26562.53906 2.05469 1.2539.08593.35938-.35546.53906-.08985-.17968v.80859l.08985 1.4375-.44532.71484-1.07422.09375-.26562.71485.53515.89844.8047.71875 1.16015.80859 1.33984.26953.44531.35938-.35546.44921-1.78907-.08984-1.25-.44922-.71484-.71875-.625-.08984-.17578 3.58984-.1875 1.3086h89.35937V311.70313h-55.26953v49.08203l.76172.125 3.28906.54296 2.02344 2.83594v2.7539l2.35156.33204 2.34766.33203h4.05078l-1.3789 4.16016-2.02344.70703-2.02344.70312-.54297.34375-2.59375 1.6172-.1875.11718-2.02344-2.07813-.73046-2.74218-2.67188-2.07813-1.375-3.5-.0664-.08203-1.95704-2.67188 2.75-1.41796v-49.08204H294.42187v91.41407l.1172.03125.1328.01172.07422.07421.10547.04688.08985.0586.08593.05859.08985.0586.29687.29687.0586.08984.03125.11719.02734.11719.01563.13671-.03125.1172-.0586.08983-.0586.08594-.04296.10547-.04688.10156-.02734.1211v.14453l.17578.26953.14844.14844.07422.08594.07422.07421.04296.10547.0625.08985.0586.08593.04297.10547.0586.08985.04687.10156.04296.10547.0586.08594.11719.17968.07421.07422.0625.08594.0586.08984.04297.10547.0586.08985.05858.08593.0625.08985.0586.08984.04297.10156.11719.17969.07421.07422.0586.08594.07422.07421.08984.0586.10547.04687h.14844l.1328-.01562.13282.01562.10156-.04687.07422-.07422.04688-.10156-.01563-.13281v-.14844l-.04687-.10547-.02735-.11719-.04687-.10156-.02735-.1211-.04296-.10156-.0625-.08984-.04297-.10156-.04297-.10547-.03125-.11719-.01563-.13281-.01171-.13672.08593-.0586.0586-.08593.12109-.03125.04297.10547.01562.1328v.1172l.0586.10156.0586.08984.08983.0586.14844.14843.0586.08985.04296.10547-.01171.10156.08593.0586.10547.04687.08594.0586.08984.05858.07422.07422-.11719.02735-.10546.04687-.08594.0586-.07422.07421-.0586.08985-.0625.08594-.02734.12109-.04687.10156-.04297.10547-.03125.11719-.01172.13281-.01563.13281v.14844l.02735.11719.04687.10547.04297.10156.0586.08984.07421.07422.08985.0586.07422.07421.08984.0586.0586.08984.04296.10547.04688.10156.11719.03125.1328.01563h.14845l.11718-.03125.10547.04297.04297.10547.04688.10156.02734.1211L299.5 410l.02734.11719.03125.1211.02735.11718.10547.04297.10156.04687.13281-.01562.14844.14844.0625.08593.07422.07422.07031.07422.08984.0625.10547.04297.10156.04297.1172.03125.13671.01562.11719-.03125.07422-.07422.02734-.11718-.01172-.13282-.03125-.12109-.02734-.11719.04297-.10547h.11719l.08984.0625.11719.02735h.14843l.13282.01562h.14843l.13282.01563.1328-.01563h.14845l.1328-.01562.13282-.01172.13672.01172.11719-.02735.13281-.01562.1914-.0586-.05859.17579-.01562.1328-.02735.1211-.01562.13281-.0586.08594-.1328.01563-.10548.04687-.10546.04297-.1172.03125-.11718.02735-.26563.03125h-.14843l-.13281.01562-.07422.07422.05859.08594.14844.14843.11719.1797.07421.0703.08985.0625.08984.0586.08594.0586.08984.05858.10156.04297.10547.0625.10547.04297.08594.0586.10547.04687.10156.04297.17969.11719.0586.08984-.04298.10156-.04687.10547.01562.13281.22266.22266.0586.08985.04296.10156.03125.1211.04297.10155.01563.13282.03125.11718.01171.13672.03125.11719.14844.14844.10156.04297.10547.04296.1172.03125.1328.01563.13672.01563h.11719l.11719-.03125.08984-.0586.04297-.10547.04688-.10156.04296-.10547.03125-.11719.01172-.1328v-.14845l-.01172-.1328-.01562-.13282-.03125-.11719-.04297-.10547-.04688-.10547-.04296-.10156-.04297-.10547-.01563-.13281.01563-.13281.02734-.11719.03125-.11719.02735-.1211.04687-.10155.08984-.0586.08594-.0625.07422-.07422.08984-.05859.22266-.22266.0586-.08593.07421-.07422.11719-.17969.0586-.08594v-.14844l-.07423-.07421-.10156-.04688-.10547-.04297-.10156-.04297-.0586-.08984-.04687-.10547-.02734-.11719.08984-.05859.11719-.03125.10156-.04297.17969-.11719.14844-.14843.01172-.13282-.01172-.10546-.08985-.0586-.1328.01563h-.14845l-.1328.01562-.13282-.01562-.1211-.03125-.08593-.0586-.07422-.07422-.0586-.08984-.0625-.08594-.11718-.17969-.0586-.08593.03125-.1211.08594-.05859.1211-.03125.05859-.08594v-.1211l-.03125-.11718-.0586-.08984-.05859-.08594-.04687-.10547-.02735-.11719-.01562-.1328.0586-.08985.07421-.07422.08984-.0586.1172-.17968.07421-.07422.0586-.08594.14843-.14844.1211-.03125.1328-.01562.13282.01562.07422.07422.04297.10547.01562.13281-.03125.1172-.11719.03124-.1328.01172-.14844.14844-.04297.10547-.04688.10156-.02734.1211-.03125.11718v.14844l.03125.11719.04297.10546.05859.08985.07422.07031.07422.07422.11719.03125.12109.02734.11719-.02734.1328-.01563h.1172l.08984.0586.07422.07422.04687.10546.0586.08594.10156.04688.13281.01562.10547.04297.08594.0586-.01172.10546-.07422.07422-.17969.11719-.05859.08984-.08984.0586-.07032.07422-.07421.07421-.0625.08985-.02735.11719-.01562.1328.01562.13282-.01562.13281v.14844l.01562.13281.02735.1172.03125.12108.07421.07422.08985.0586.08594.0586.08984.05858.11719.03125v.08594l-.10157.04688-.08984.0586-.26563.03124-.11718.02735h-.14844l-.10547.04296-.10156.04688-.0586.08984-.0625.23438-.01171.13281-.03125.1211-.01563.1328v.29298l-.01172.1328.01172.13673.01563.1328.1328.01563.13282.01172.1211.03125.08593.0586.07422.07421.04688.10547.04296.10157.01563.1328v.44532l-.01563.13281v.44532l.03125.26562.02735.11719.01562.13281.03125.11719.08594.21094.03125.26562v.14844l-.03125.11719-.02734.11718-.03125.1211-.02735.11719-.03125.11718-.03125.1211-.01171.1328-.01563.13282.08984.0586.1172-.03125.10155.01562.04688.10547-.03125.26562v.44141l-.04297.10547-.04688.10547-.04296.10156-.04297.10547-.0586.08594-.03125.12109-.04296.11719-.03125.11719-.01563.1328.01563.13282.05859.08984.10547.04688.08594.0586.05859.08593-.01172.13672-.03125.11719-.04297.10156v.44531l-.01562.13281v.14844l-.03125.11719-.04297.10547-.02735.11719-.04687.10546-.04297.10157-.03125.12109-.02734.11719-.03125.13281-.03125.11719-.02735.11719-.04297.10546-.03125.1172-.03125.12108-.01171.13282-.01563.13281v.29688l.02734.11718v.14844l.04688.39844.02734.11719.0586.08984.12109.03125h.14844l.13281-.01563.0586.08985v.11719l-.0586.08984-.08984.0586-.10157.04296-.10546.04688-.08985.05859-.08594.0586-.13671.01562-.1172-.03125-.1328-.01563-.10157.04688-.0625.08594-.01172.13671-.01562.13282-.03125.11719-.02735.11718-.01562.13281-.03125.1211v.29687l.01563.13282.03125.11718v.14844l.01171.13281v.14844l-.02734.11719-.04688.10156-.02734.1211-.03125.11718-.0586.08985-.07421.07421-.10156.04297-.10547.04688-.11719.02734-.1211.03125-.10156-.04687.0586-.08594.10547-.04688.02734-.11718.03125-.11719.02734-.1211.03125-.11718v-.14844l.01563-.13281-.03125-.11719-.04297-.10547-.10547.01563-.07422.07422-.10156.04296-.08984.0625-.07422.07422-.04297.10157-.01563.1328-.03125.1172L304.25 426l-.03125.11719-.02734.11719-.03125.12109-.02735.11719-.03125.11718-.04297.10547-.08984.0586h-.08984l-.1172-.03125-.03124-.08594.01562-.13672-.03125-.11719v-.14844l-.01171-.1328v-.14844l-.0625-.23438-.02735-.1211-.04297-.10156-.04687-.10546-.0586-.08594-.05859-.08985-.04297-.10546-.0625-.08594-.14844-.14844-.0703-.07422-.10548-.04687-.10547-.04297-.10156-.04297-.29687-.29688-.08985-.07421-.08594-.0586-.10546-.04297-.08985-.0625-.08594-.0586-.10546-.04296-.08985-.0586-.08594-.0625-.07421-.0703-.10547-.04688-.08594-.0586-.10547-.04296-.08984-.0625-.10156-.04297-.10547-.04297-.08594-.0586-.10547-.04687-.10547-.04297-.10156-.04687-.08985-.0586-.10156-.04297-.10547-.04296-.08984-.0625-.11719-.02735-.13281-.01562-.13281.01562H299.75l-.13281.01563-.11719-.03125-.08984-.0586-.07422-.07422-.08985-.05859-.10156-.04688h-.14844l-.12109-.02734-.10156-.04297-.07422-.07422-.11719-.17968-.08984-.0586-.10156-.04297-.08985-.0625-.10547-.04296-.08984-.0586-.08594-.0586-.10547-.04687-.0586-.08594-.05858-.08984-.04297-.10547-.04688-.10156-.07422-.07422-.08594-.0586-.07421-.07421-.08985-.0586-.22265-.22265-.04297-.10547-.03125-.26563.10547-.04296h.14453l.10547.04296.07421.07422.08985.0586.08594.0586.10546.04687.08985.05859.14844.14844.0703.07422.14845.14843.0625.08594.07421.07422.08594.0586.07422.07421.08985.0625.08984.0586.08594.05859.26953.17578.10156.04688.10547.04296.10156.04297.04688-.07421.05859-.08594.07422-.07422.07031-.07422.10547.04297.07422.07422.0586.08984.04296.10156.04688.10547.04296.10547.1211.02735.11719-.02735.07421-.08984.04297-.10547.0586-.08985.07422-.07421.10546-.04297.1172-.02735.1328.01172.08985.0586.14844.14843.05859.08985.04297.10547.04687.10156.04297.10547.04297.10156.10547.04688.10547.04296.13281.01563.08594-.0586.0586-.08984.07421-.07422.10547-.04297.11719.02735.10547.04687.10156.04297.10547.04297.10156.04688.17969.11718v.11719l-.01563.13281.01563.13281.01562.13672.0586.08594.10156.04688.1211.02734.11718.03125h.14844l.11719-.03125.05859-.08984.17969-.1172.05859-.08983.07422-.07422.0586-.08594.11718-.17969.17969-.11719.11719.03125.08984.0586.04297.07422-.01563.1328v.1172l.08985.05859h.14843l.13282-.01563.1328-.01171.26563-.03125.10547-.04297.11719-.03125.1211-.02735.07421-.07421.07031-.07422.0625-.08985-.01562-.10547-.04688-.10156-.10156-.04297-.10547-.01562-.11718.02734-.26563.03125h-.14844l-.07421-.07422-.08985-.0586-.11719-.03124-.11718-.02735-.13282-.01562h-.14843l-.13282.01563h-.29687l-.10547-.04688-.14844-.14844-.04297-.10156-.05859-.08984.22266-.22266.08593-.0586.10547-.04296.11719-.03125.13281-.01563.13281.01563.13672.01562.10157.04297.1328-.01172.08985-.0625.10156-.04297.0625-.08984-.04687-.10156-.08984-.0586-.1172-.03125-.10155-.04296-.0586-.08985-.0625-.08984v-.11719l.01563-.13281.10547-.04688.07421-.07031v-.1211l-.08984-.05859-.03125-.11719.08985-.05859.07421-.07422.04297-.10547.0586-.08984.04687-.10156.01563-.13281v-.14844l-.04688-.10547-.04297-.10156-.08984-.0586-.13281-.01562-.10157-.04297-.13671-.01563-.1172-.03125h-.4453l-.13282-.01562-.13281-.01172-.13281-.01563-.11719-.03125h-.14844l-.13281-.01562-.13281-.01172-.26563-.03125-.1211-.04297-.08593-.0586-.07422-.07421v-.14844l.01172-.13281.10547-.04688.10156-.04296.13281-.01563h.15235l.13281-.01562h.29297l.1211.03125.10156.04296.08984.0586.23438.0625.12109-.04688.08984-.05859.10156-.04297.13282-.01562.10547.04296.10156.04688.13281.01172.1211-.02735h.14453l.12109-.03125.11719-.02734.10547-.04687.07421-.07422.08594-.0586.14844-.14843.0586-.08594.04687-.10547.02734-.11719.01563-.10547-.10156-.04296-.08985-.0586-.11719-.03125-.10546-.04297-.08985-.0625-.07422-.08594-.07422-.07421-.10156-.04297-.10547-.04688-.10156-.04297-.0586-.08984-.04687-.10156-.08594-.21094-.0625-.08594-.05859-.08984-.07422-.07422-.08594-.0586h-.26953l-.11719.03126-.08984.05859-.10156.04297-.13281.01562-.10547-.01562-.02735-.11719-.0625-.08984-.11718-.03125-.10157-.04297-.14843-.14844-.03125-.11719-.01563-.10546.07422-.07422.17969-.1172.11719-.02733.11718-.03125.13672.01562.10156.04297.10547.04297.10156.04687.10547.04297.1172.03125.1328.01563.1172.02734.1328.01563.10547-.01563.08985-.0586-.07422-.07421-.10547-.04297-.07422-.07422-.07422-.08984-.14844-.14844-.08593-.0586-.08985-.05859-.07422-.07422-.08984-.0586-.10156-.04687-.1211-.02734-.10156-.04688-.10547-.04296-.11719-.03125-.10156-.04297-.1211-.03125h-.14843l-.11719.03125-.10546.04297-.08594.0625-.17969.11718-.08594.0586-.08984.0586-.10547.04687-.08594.05859-.10547.04297-.10156.04297-.10547.04687-.07422.07422-.05859.08985-.0586.08593-.04687.10547-.0586.08594-.07421.07422-.13281-.01172-.1172-.03125h-.11718l-.07422.07422-.08984.0586-.07422.07421-.08984.0586-.08594.05859-.10547.04687-.10156.04297-.13672.01563-.10156-.04297-.14844-.14844-.10547-.04688h-.08594l-.10547.04688-.10156.04297-.1211.03125-.11718-.03125-.07422-.07422v-.11719l.03125-.1211.07422-.0703.0586-.08985.07421-.07422.11719-.03125.10547-.04296h.29297l.13281-.01563.13672-.01563.10156-.04296.08985-.0586.10156-.04687.08984-.0586.13281-.01171.08985.05859.13281.01172.08984-.0586.08594-.05859.10547-.04297.08984-.0586.08594-.0625.08985-.05859.14843-.14843.0586-.08594.05859-.08985.10547-.04296.13281-.01563.11719.02735.1211.03125.05859-.0586.05859-.08984.03125-.26563.02734-.11719.10547.01172.13281.01563.10157-.04297.08984-.0586.0586-.08984.07421-.07422.0586-.08984.04687-.10156.01172-.13281-.01172-.13282-.04687-.10547-.14844-.14843-.0586-.08985-.05859-.08594-.04297-.10546v-.44532l.01563-.1328v-.14845l.01172-.1328-.0586-.0586-.08984.0586-.10156-.04298-.17969-.11719-.08594-.05859-.0625-.08984-.0586-.08985-.07421-.07421-.08594-.0586-.1211.03125-.10155.01172-.10547.04688-.08594.05859-.10547.04297-.14844.14844-.08984.05859-.08594.0586-.08984.0625-.10547.04296-.13281.01563v-.1211l.10547-.04297.11718-.03125.07422-.0703.04297-.10548v-.14844l-.02734-.11718-.14844-.14844-.13281-.01563h-.14844l-.11719.03125-.10547.04297-.10156.04297-.08984.0625-.11719.02735-.07422-.07422.01172-.13281-.04297-.10157-.04297-.10547-.08984-.05859-.11719.02734-.1211.03125-.11718.03125-.10156.04297-.1211.03125-.10156.04297-.10547.04297-.08984.0586-.10156.01562v-.11719l.01562-.13281-.0586-.08985-.07421.04297-.14844.14844-.0586.08985-.07421.07421-.04688.10547-.04296.10156-.07422.07422-.0586.08985-.07422.07422-.05859.08593-.07422.07422-.08984.0625-.07422.07031-.07422.07422-.10156.01563-.13281.01562-.10547-.04296v-.1211l.14843-.14844.04297-.10156.0586-.08984.04687-.10156.04297-.10547.0586-.08985.03124-.11719.04297-.10156.03125-.1211.02735-.11718.04687-.10547.04297-.10156.04297-.10547.07422-.07031.08984-.0625.08985-.0586.10156-.04296h.29687l.26563-.03125.10547-.04297-.07422-.07422-.11719-.03125-.10547-.04297-.08984-.0586-.10156-.04687-.08985-.0586-.10156-.04296-.10547-.04297-.08984-.0625-.08594-.0586-.10547-.04296-.10156-.04297-.1211-.03125-.11718-.03125-.10157-.04297L297.5 410.25l-.10156-.04297-.08985-.0586-.04296-.10546-.01563-.13281.10156-.04297.13281-.01563.13672.01563.13282-.01563.10156-.04297.0586-.08984.01562-.10547-.08985-.0586-.07421-.07421-.10157-.04297-.08984-.0586-.14844-.14843-.04297-.10547-.01562-.13281v-.29297l-.0586-.08985-.08984-.05859-.07422-.07422-.04297-.10547-.03125-.11718-.0586-.08985-.07421-.07422-.11719-.02734-.07422-.07422-.08984-.0586-.08984-.0625-.08594-.05859-.07422-.07421-.0586-.08594-.04687-.10547-.08594-.0586-.14843-.14843-.19532-.0586-.1328.01563-.10157.04297-.07422.07422-.04688.10156-.04296.10547-.0586.08984-.0586.08594-.29687.29687-.08984.0586h-.08594l-.0625-.08594-.04297-.10547.03125-.11719.0586-.08984.02734-.11719-.01172-.13281-.08984-.0625-.10547.04688-.11719.02734-.11719.03125-.26953.17578-.10156.04688-.11719.02734-.10546.04687-.08985.0586-.10156.04297-.0586-.08594-.04687-.10547.01563-.13281.04687-.10547.07031-.07422.07422-.07031.0586-.08985v-.14843l-.04297-.10547h-.23829l-.10156.04687-.03125.11719-.02734.11719-.03125.1211-.07422.04296-.13281.01563-.07422-.04688-.04297-.10156-.04297-.10547-.04687-.10156-.04297-.10547-.1211.03125-.10156.04297-.13281.01562-.11719.03125-.10547.04297-.08984.0586-.10156.04687-.1211.02734-.13281.01563-.10156-.04297-.0586-.08985-.04687-.10546-.04297-.10157-.04297-.10546v-.1172l.0586-.08984.08593-.05859.17969-.11719.10156-.04687.10547-.04297.10547-.0586.10156-.04296.08985-.0625.10156-.04297.10547-.0586.10156-.04687.08984-.0586.10547-.04296.10156-.04297.08985-.0625.10156-.04297.13672-.01563.11719.03125.10156.04297.1211.03125.10156.04297.10546.04688.10157.04296.10547.04297.10156.04688.10547.04297.10156.04297.10547.04687.08594.0586.10546.04296.1172.03125.10546.04297.10156.04688.08985.0586.10547.04296.10156.04297.10547.04687.11719.02735.10156.04687.1211.02735h.14843l.08594-.0586.01562-.10156.0586-.08984-.02735-.1172-.07422-.07421-.11719-.17969-.07421-.07422-.08985-.07421-.17969-.1172-.08593-.05859-.10547-.04296-.10156-.04688-.26954-.17578-.05859-.08985-.07422-.07421-.0586-.08985-.04296-.10156-.03125-.11719-.01563-.13672v-.5625l-.01171-.1328-.01563-.13282-.03125-.11719-.01562-.13281-.01172-.13281-.03125-.1211-.22266-.22265-.0586-.08594-.01562-.10547.03125-.11719.13281-.01562v-91.41406H172.9922v1.45312l-.0586.23438-.35156 1.05078-.17187.52343-.1172.34766-.17577.41016-.11719.17187-.23438.29297-.23046.0586h-.35157l-.11718.05859-.23047.40625v.29297l.11719.17578.23046.23047.1172.23437.64062.75781.29297.46485.17578.23437.23047.35156.23437.34766.64063.8164.17578.46485.17187.41016.11719.69531.17578.46875.11719 1.39844.0586.46484v.875l.11718 1.04688v4.78125l-.0586.46484-.35156 1.28125-.17578.52344-.11328.41015-.35156.9297L172.93359 336l-.23437.58203-.11719.17578-.17187.34766-.17578.40625-.35157.8164-.0586.29297-.11327.29297-.11719.28906-.0586.17579-.11718.875-.0586.40625-.05859.11718-.0586.17579-.05859.17187-.23047.52734-.11718.17188v.23437l-.11719.23438-.0586.17187-.17577.58594v.28906l-.0586.17579v.29296l-.0586.11329-.05859.52734v.17187l-.05468.23438v2.6211l-.17578.8164-.1172.17578-.17577.23438-.1172.17187-.11327.23438-.58594.93359-.23047.28906-.29297.46485-.17578.23437-.28906.35156-.35156.69922-.11328.23047-.17579.41016-.17578.23046-.40625.52735-.8164.69922-.29297.17187-.28906.23438-.17579.11719-.17578.17578-.52344.40625-.52734.17578-.17187.17578-.23438.05469-.64062.17578h-.75782m12.21094 31.02344l-1.07422.44921.35938.89454 1.25-.71485.44531-.53906-.98047-.08985"/><path fill="#d3d3d3" fill-opacity="0" fill-rule="evenodd" d="M201.50781 416.59766h-.89453l.44922.6289.98047.35938.80469-.08985.4453-.98828-.17577.08985-.71485-.35547-.89453.35547m154.6211 59.0703l-.0586-.52343v-.29297l.11328-.29297.0586-.23046.46875-.46875h.11328l.11719-.11329.11718-.05859h.17579l.23437-.0586h.34766l.23437.0586.11719.0586.23047.17187.0586.17578.11718.58203v.29297l-.11719.17578-.17187.28906-.17579.17579-.52734.52343-.23047.23438-.11719.0586h-.17578l-.11718-.0586-.40625-.29297-.17579-.11719-.11718-.0586-.0586-.11327-.05468-.1172m6.64062-10.95702l-.0586-.17188v-1.10937l.0586-.17188.17578-.0586.17188-.05858h.17578l.23437-.0586.1172.0586.05858.69921-.05859.17188-.11719.17578-.11718.0586-.23438.52343-.11328.0586h-.23438l-.05859-.1172m9.61328-14.39062l-.11719-.17578v-.69922l.29297-.875.1172-.17187.17577-.35156.11328-.23047.1172-.29297.35155-.75781.1172-.23047.17187-.23438h.17578l.11719-.0586h.64062l.11719.0586.23437.23438.17188.11328.35156.29297.11719.11718.11328.17579v.11328l.11719.05859.11718.11719v.69922l-.05859.17578v.23047l-.0586.17578-.34765 1.05078-.11719.23047-.11719.23437-.11718.0586-.23047.23437-.64063.28906h-.875l-.41015-.11718-.64063-.46485"/><path fill="none" stroke="#bebebe" stroke-linecap="round" stroke-linejoin="round" stroke-miterlimit="10" stroke-width=".5" d="M467.95703 311.69531H144.02734v168.625h323.9297v-168.625"/><g clip-path="url(#a)"><path fill="#fff" fill-opacity="0" fill-rule="evenodd" d="M144 475.89063v4.4375h.0039H144V311.67188h.0039H144v164.21875"/></g><g clip-path="url(#b)"><path fill="#fff" fill-opacity="0" fill-rule="evenodd" d="M144.0039 480.32813V311.67188h17.75v137.77734l-1.625 4.25-.33984 4.4375 1.96485 2.54297 3.5078-2.54297.9297-1.34375 2.0039-3.09375-2.0039-1.9414-4.4375-2.3086V311.67187h115.39843v111.89844l-3.51953 3.5.20703 4.4375 3.3125 3.0625 3.08985-3.0625 1.2461-4.4375-4.33595-3.5V311.67187h31.06641v146.78125l-4.4375 1.97657-.84766 2.14453.84766.60547 4.4375 1.64844 3.15625-2.25391-3.15625-4.1211V311.67188h26.6289v108.85157l-2.13671 2.10547 2.13672 2.05078 2.46875-2.05078-2.46875-2.10547V311.67188h8.8789V425.75l-1.17969 1.32031 1.1797 1.125 4.4375.23438v5.13672l-1.96876 2.3789 1.96875 1.96875 2.20703-1.96875-2.20703-2.3789v-5.13672l1.08203-1.35938-1.08203-1.10937-4.4375-.21094V311.67187h17.7539v128.46094l-.26171.25.26172.24219.2539-.24219-.2539-.25V311.67187h35.5039v120.53516l-4.4375 1.34766-4.4375 1.13281-4.4375-.10938-1.7539 1.3672-.47266 4.4375-2.21094.375-4.4414.71874-2.78906 3.34375.94921 4.4414-.45312 4.4375 2.29297 2.28126 1.86328 2.15625 2.57813 3.2539 1.29296 1.1836 3.14454 2.70312 3.24218-2.70312 1.19531-1.53125.48438 1.53125 3.60156 4.4414.35156.1836.20704-.1836 4.23046-.40625 4.44141.06641 4.4375.08594 4.4375-.35156 4.4375-.08594 4.4414-.78516 2.4375-2.96484 1.78516-4.4375.21485-.88281 2.63672-3.5547-2.63672-2.61327-1.83594-1.82422-2.60156-2.53906-4.4414-1.60938-2.9961-.29297-1.4414-.89844-3.64063-3.53906-.79688-.73828-3.08203-3.69922-1.35547-1.3125-4.4414-2.42578V311.67188h71.01171v168.65625H144.00391"/></g><path fill="#50fcfc" fill-rule="evenodd" d="M161.7539 460.67969l-1.96484-2.54297.33985-4.4375 1.625-4.25 4.4375 2.3086 2.0039 1.9414-2.0039 3.09375-.9297 1.34375-3.5078 2.54297m112.08593-29.17188l-.20703-4.4375 3.51953-3.5v1.4375l-2.07421 2.0625 1.03906 4.4375 1.03515.95703.96485-.95703 1.58984-4.4375-2.55469-2.0625v-1.4375l4.33594 3.5-1.2461 4.4375-3.08984 3.0625-3.3125-3.0625"/><path fill="#00e8fc" fill-rule="evenodd" d="M276.11719 431.50781l-1.03906-4.4375 2.07421-2.0625 2.5547 2.0625-1.58985 4.4375-.96485.95703-1.03515-.95703"/><path fill="#50fcfc" fill-rule="evenodd" d="M303.78125 463.17969l-.84766-.60547.84766-2.14453 4.4375-1.97656 3.15625 4.12109-3.15625 2.2539-4.4375-1.64843m31.0664-38.5l-2.13671-2.05078 2.13672-2.10547 2.46875 2.10547-2.46875 2.05078m8.8789 3.51562l-1.17969-1.125 1.1797-1.32031 4.4375.21094 1.08202 1.10937-1.08203 1.35938-4.4375-.23438m4.4375 9.71875l-1.96875-1.96875 1.96875-2.3789 2.20703 2.3789-2.20703 1.96875m13.3164 2.71094l-.26171-.24219.26172-.25.2539.25-.2539.24219m11.47265 8.63672l-.94921-4.4414 2.78906-3.34376 4.4414-.71875 2.21094-.375.47266-4.4375 1.7539-1.36719 4.4375.10938 4.4375-1.13281 4.4375-1.34766v2.6289l-2.79296 1.10938-1.64454.30469-4.4375 1.69531-2.52343 2.4375-1.91406 3.07813-4.4375-1.4961-4.44141 2.73829-.09766.11718.09766.28906.47656 4.15235-.0625 4.4375L379.23438 458l.84765.13672 3.58985 2.96484 2.11718-2.96484 2.32031-1.35156.58594 1.35156 1.55469 4.4375 2.29688 2.61328 4.4375.74219 4.4414.09375 4.4375.0039 4.4375-.60937 4.4375-.34766 3.98438-2.4961.45703-.34765 3.0664-4.08984 1.25-4.4375-4.3164-4.3125-.40625-.125-4.03516-2.98438-4.4375 2.25-2.67578-3.70703-1.76172-1.74219-3.29687-2.6953-1.14063-1.27344-2.8711-3.16407-1.5703-1.10937v-2.6289l4.4414 2.42577 1.35547 1.3125 3.08203 3.69922.79688.73828 3.64062 3.53906 1.4414.89844 2.9961.29297 4.4414 1.60938 2.60157 2.53906 1.83594 1.82422 2.63672 2.61328-2.63672 3.55469-.21485.8828-1.78515 4.4375-2.4375 2.96485-4.4414.78516-4.4375.08594-4.4375.35156-4.4375-.08594-4.44142-.0664-4.23046.40625-.20704.18359-.35156-.1836-3.60156-4.4414-.48438-1.53125-1.1953 1.53125-3.2422 2.70312-3.14453-2.70312-1.29296-1.1836-2.57813-3.2539-1.86328-2.15625-2.29297-2.28125.45313-4.4375"/><path fill="#00e8fc" fill-rule="evenodd" d="M374.79297 445.10938l-.09766-.28907.09766-.11719 4.4414-2.73828 4.4375 1.4961 1.91407-3.07813 2.52344-2.4375 4.4375-1.69531v2.03125l-3.07422 2.10156-1.36329 2.14453-1.66015 2.29297-2.77735 2.36719-2.92578-2.36719-1.51171-.84765-1.34375.84765-1.14454 4.4414.6875 4.4375 1.80079 1.92188 2.73046-1.92187 1.70704-1.83594 4.4375.35938 1.15234 1.47656 1.63672 4.4375 1.64844 3.63672.34765.80078 4.08985 2.21875 4.4414.14062 4.4375-.125 4.4375-1.03906 4.4375-.79297.64063-.40234 3.80078-2.91016 1.14453-1.52734 2.35547-4.4375-3.5-3.5-3.03125-.9375-1.41016-1.04297-1.66015 1.04297-2.77735 2.41015-4.4375-.85546-3.27734-1.5547-1.16016-.61327-2.82031-3.82813-.26563-4.4375-1.35546-1.4336-4.4375-.66796V436.25l1.64453-.30469 2.79296-1.10937 1.57032 1.10937 2.8711 3.16406 1.14062 1.27344 3.29687 2.69531 1.76172 1.7422 2.67578 3.70702 4.4375-2.25 4.03516 2.98438.40625.125 4.3164 4.3125-1.25 4.4375-3.0664 4.08984-.45703.34766-3.98438 2.4961-4.4375.34765-4.4375.60937-4.4375-.0039-4.4414-.09375-4.4375-.74219-2.29688-2.61328-1.55469-4.4375-.58594-1.35156-2.3203 1.35156-2.1172 2.96484-3.58984-2.96484-.84765-.13672-4.02735-4.30078.0625-4.4375-.47656-4.15235"/><path fill="#00d4fc" fill-rule="evenodd" d="M377.4336 453.69922l-.6875-4.4375 1.14452-4.4414 1.34375-.84766v2.8789l-1.01171 2.41016 1.01171 3.46484 3.14063-3.46484-3.14063-2.41016v-2.8789l1.51172.84765 2.92579 2.36719 2.77734-2.36719 1.66015-2.29297 1.36329-2.14453 3.07421-2.10156v2.03516l-.09765.0664-1.13672 4.4375 1.23438 1.16016 1.09375-1.16016-.875-4.4375-.21875-.0664v-2.03516l4.4375.66797 1.35546 1.4336.26563 4.4375 2.82031 3.82812 1.16016.61328 3.27734 1.55469 4.4375.85546 2.77735-2.41015 1.66015-1.04297v1.47656l-4.19531 4.0039-.24219 1.08204-4.4375-.0586-4.4375-.85546-.30469-.16797-4.13671-2.41406-4.4375 1.59765-.3672.8164.3672 1.48048.40625 2.95703 2.03515 4.4375 1.9961 1.08594 4.4414.1875 4.4375-.25782 3.32813-1.01562 1.10937-1.17969 4.4375-1.01172 2.98828-2.2461 1.45313-.48437 2.6875-3.95312-2.6875-2.6875-4.4414-1.3164v-1.47657l1.41015 1.04297 3.03125.9375 3.5 3.5-2.35547 4.4375-1.14453 1.52734-3.80078 2.91016-.64063.40234-4.4375.79297-4.4375 1.03906-4.4375.125-4.4414-.14062-4.08985-2.21875-.34765-.80078-1.64844-3.63672-1.63672-4.4375-1.15235-1.47656-4.4375-.35938-1.70703 1.83594-2.73046 1.92187-1.80079-1.92187"/><path fill="#00c4fc" fill-rule="evenodd" d="M379.23438 452.72656l-1.01172-3.46484 1.01171-2.41016 3.14063 2.41016-3.14063 3.46484m13.3125-6.7461l-1.23437-1.16015 1.13672-4.4375.09765-.0664.21875.0664.875 4.4375-1.09375 1.16016m0 9.19922l-.36718-1.48047.36719-.8164 4.4375-1.59766v2.14843l-.54297.26563-1.8672 4.4375 2.41017 4.30469.96484.1328 3.47656.1836 2.22266-.1836 2.21484-1.3203 2.79297-3.1172-2.79297-.96483-4.4375-1.27344-3.98828-2.19922-.45313-.26563v-2.14843l4.13672 2.41406.3047.16797 4.4375.85547 4.4375.05859.24218-1.08203 4.19531-4.0039v.9375l-3.21094 3.0664 3.21094 4.21875 4.4414-1.46094 1.8711-2.75781-1.8711-1.8711-4.4414-1.1953v-.9375l4.4414 1.3164 2.6875 2.6875-2.6875 3.95312-1.45312.48438-2.98828 2.2461-4.4375 1.01171-1.10937 1.17969-3.32813 1.01562-4.4375.25782-4.4414-.1875-1.9961-1.08594-2.03515-4.4375-.40625-2.95703"/><path fill="#00b8fc" fill-rule="evenodd" d="M396.98438 462.4414l-2.41016-4.30468 1.86719-4.4375.54296-.26563v3.1172l-.78906 1.58593.78906 1.41015 4.44141-.92578.63672-.48437-.63672-.20703-4.4414-1.3789v-3.1172l.45312.26563 3.98828 2.19922 4.4375 1.27344 2.79297.96484-2.79297 3.11719-2.21484 1.3203-2.22266.1836-3.47656-.1836-.96485-.1328"/><path fill="#00a8fc" fill-rule="evenodd" d="M396.98438 459.54688l-.78907-1.41016.78906-1.58594 4.44141 1.3789.63672.20704-.63672.48437-4.4414.92579"/><path fill="#00b8fc" fill-rule="evenodd" d="M414.73828 457.91797l-3.21094-4.21875 3.21094-3.0664v.9375l-2.23047 2.1289 2.23047 2.92969 4.4414-1.3711 1.0586-1.5586-1.0586-1.05858-4.4414-1.07032v-.9375l4.4414 1.19531 1.8711 1.8711-1.8711 2.75781-4.4414 1.46094"/><path fill="#00a8fc" fill-rule="evenodd" d="M414.73828 456.6289l-2.23047-2.92968 2.23047-2.1289v.93359l-1.25 1.1953 1.25 1.64063 4.4414-1.28125.2422-.35937-.2422-.2461-4.4414-.94921v-.9336l4.4414 1.07031 1.0586 1.0586-1.0586 1.5586-4.4414 1.37109"/><path fill="#009800" fill-rule="evenodd" d="M414.73828 455.33984l-1.25-1.64062 1.25-1.19531v.9375l-.26562.2578.26562.35157 1.25-.35156-1.25-.25781v-.9375l4.4414.94921.2422.2461-.2422.35937-4.4414 1.28125"/><path fill="#00ac00" fill-rule="evenodd" d="M414.73828 454.05078l-.26562-.35156.26562-.25781 1.25.2578-1.25.35157"/><g clip-path="url(#c)"><path fill="#fff" fill-opacity="0" fill-rule="evenodd" d="M467.9961 480.32813H468V311.67188h-.0039H468v168.65625h-.0039"/></g><path fill="#fff" fill-opacity="0" fill-rule="evenodd" d="M389.76172 472.65234l5.80078-.71093-1.21875-9.88672-5.79688.71094 1.21485 9.88671"/><path fill-rule="evenodd" d="M392.24219 464.16016l.50781-.0625.76953 6.24609-.78125.09766-.55078-4.45704-1.3789.17188-.06641-.55469.54687-.13281.2461-.08203.21484-.11719.1836-.16406.14843-.23047.10547-.3086.05469-.40624"/><g clip-path="url(#d)"><path fill="none" stroke="#000" stroke-linecap="round" stroke-linejoin="round" stroke-miterlimit="10" stroke-width=".5" d="M147.48047 479.85938l-6.96094.9375"/></g><g clip-path="url(#e)"><path fill="none" stroke="#000" stroke-linecap="round" stroke-linejoin="round" stroke-miterlimit="10" stroke-width=".5" d="M146.46875 479.9961l.71484.99609"/></g><g clip-path="url(#f)"><path fill="none" stroke="#000" stroke-linecap="round" stroke-linejoin="round" stroke-miterlimit="10" stroke-width=".5" d="M160.8125 479.97266l-6.99219.71093"/></g><g clip-path="url(#g)"><path fill="none" stroke="#000" stroke-linecap="round" stroke-linejoin="round" stroke-miterlimit="10" stroke-width=".5" d="M159.79297 480.07813l.6836 1.01953"/></g><g clip-path="url(#h)"><path fill="none" stroke="#000" stroke-linecap="round" stroke-linejoin="round" stroke-miterlimit="10" stroke-width=".5" d="M174.14063 480.4375l-7.02344-.21875"/></g><g clip-path="url(#i)"><path fill="none" stroke="#000" stroke-linecap="round" stroke-linejoin="round" stroke-miterlimit="10" stroke-width=".5" d="M173.1211 480.40625l.53906 1.10156"/></g><g clip-path="url(#j)"><path fill="none" stroke="#000" stroke-linecap="round" stroke-linejoin="round" stroke-miterlimit="10" stroke-width=".5" d="M187.19922 481.65625l-6.50781-2.65234"/></g><g clip-path="url(#k)"><path fill="none" stroke="#000" stroke-linecap="round" stroke-linejoin="round" stroke-miterlimit="10" stroke-width=".5" d="M200.17578 482.29297l-5.82812-3.92578"/></g><g clip-path="url(#l)"><path fill="none" stroke="#000" stroke-linecap="round" stroke-linejoin="round" stroke-miterlimit="10" stroke-width=".5" d="M213.64844 482.03125l-6.14453-3.40625"/></g><g clip-path="url(#m)"><path fill="none" stroke="#000" stroke-linecap="round" stroke-linejoin="round" stroke-miterlimit="10" stroke-width=".5" d="M227.27344 481.27734l-6.76563-1.89453"/></g><g clip-path="url(#n)"><path fill="none" stroke="#000" stroke-linecap="round" stroke-linejoin="round" stroke-miterlimit="10" stroke-width=".5" d="M226.28906 481l.26172 1.19922"/></g><g clip-path="url(#o)"><path fill="none" stroke="#000" stroke-linecap="round" stroke-linejoin="round" stroke-miterlimit="10" stroke-width=".5" d="M240.71875 480.23828l-7.02734.17969"/></g><g clip-path="url(#p)"><path fill="none" stroke="#000" stroke-linecap="round" stroke-linejoin="round" stroke-miterlimit="10" stroke-width=".5" d="M239.69531 480.26563l.60547 1.0664"/></g><g clip-path="url(#q)"><path fill="none" stroke="#000" stroke-linecap="round" stroke-linejoin="round" stroke-miterlimit="10" stroke-width=".5" d="M253.94922 479.55469l-6.85547 1.54687"/></g><g clip-path="url(#r)"><path fill="none" stroke="#000" stroke-linecap="round" stroke-linejoin="round" stroke-miterlimit="10" stroke-width=".5" d="M252.94922 479.78125l.80078.92969"/></g><g clip-path="url(#s)"><path fill="none" stroke="#000" stroke-linecap="round" stroke-linejoin="round" stroke-miterlimit="10" stroke-width=".5" d="M267.30078 479.7539l-6.92969 1.15235"/></g><g clip-path="url(#t)"><path fill="none" stroke="#000" stroke-linecap="round" stroke-linejoin="round" stroke-miterlimit="10" stroke-width=".5" d="M266.29297 479.92188l.7461.97265"/></g><g clip-path="url(#u)"><path fill="none" stroke="#000" stroke-linecap="round" stroke-linejoin="round" stroke-miterlimit="10" stroke-width=".5" d="M279.95703 482.4414l-5.61328-4.22656"/></g><g clip-path="url(#v)"><path fill="none" stroke="#000" stroke-linecap="round" stroke-linejoin="round" stroke-miterlimit="10" stroke-width=".5" d="M293.72266 481.64453l-6.51563-2.63281"/></g><g clip-path="url(#w)"><path fill="none" stroke="#000" stroke-linecap="round" stroke-linejoin="round" stroke-miterlimit="10" stroke-width=".5" d="M307 481.73438l-6.4414-2.8086"/></g><g clip-path="url(#x)"><path fill="none" stroke="#000" stroke-linecap="round" stroke-linejoin="round" stroke-miterlimit="10" stroke-width=".5" d="M320.60938 480.32813h-7.02735"/></g><g clip-path="url(#y)"><path fill="none" stroke="#000" stroke-linecap="round" stroke-linejoin="round" stroke-miterlimit="10" stroke-width=".5" d="M332.24219 477.33203l-3.66406 5.9961"/></g><path fill="none" stroke="#000" stroke-linecap="round" stroke-linejoin="round" stroke-miterlimit="10" stroke-width=".5" d="M331.71094 478.20313l1.22265.07421"/><g clip-path="url(#z)"><path fill="none" stroke="#000" stroke-linecap="round" stroke-linejoin="round" stroke-miterlimit="10" stroke-width=".5" d="M345.97266 477.6289l-4.4961 5.39844"/></g><path fill="none" stroke="#000" stroke-linecap="round" stroke-linejoin="round" stroke-miterlimit="10" stroke-width=".5" d="M345.32031 478.41406l1.19922.25"/><g clip-path="url(#A)"><path fill="none" stroke="#000" stroke-linecap="round" stroke-linejoin="round" stroke-miterlimit="10" stroke-width=".5" d="M359 477.41016l-3.91797 5.83593"/></g><path fill="none" stroke="#000" stroke-linecap="round" stroke-linejoin="round" stroke-miterlimit="10" stroke-width=".5" d="M358.42969 478.26172l1.21875.125"/><g clip-path="url(#B)"><path fill="none" stroke="#000" stroke-linecap="round" stroke-linejoin="round" stroke-miterlimit="10" stroke-width=".5" d="M372.70313 477.71484l-4.69141 5.23047"/></g><path fill="none" stroke="#000" stroke-linecap="round" stroke-linejoin="round" stroke-miterlimit="10" stroke-width=".5" d="M372.70313 477.71484l2.3828.58594"/><g clip-path="url(#C)"><path fill="none" stroke="#000" stroke-linecap="round" stroke-linejoin="round" stroke-miterlimit="10" stroke-width=".5" d="M384.46875 476.90625l-1.59766 6.84375"/></g><path fill="none" stroke="#000" stroke-linecap="round" stroke-linejoin="round" stroke-miterlimit="10" stroke-width=".5" d="M384.23828 477.90234l1.1836-.3125"/><g clip-path="url(#D)"><path fill="none" stroke="#000" stroke-linecap="round" stroke-linejoin="round" stroke-miterlimit="10" stroke-width=".5" d="M400.17969 478.86719l-6.39063 2.92187"/></g><g clip-path="url(#E)"><path fill="none" stroke="#000" stroke-linecap="round" stroke-linejoin="round" stroke-miterlimit="10" stroke-width=".5" d="M399.25 479.29297l.97656.7461"/></g><g clip-path="url(#F)"><path fill="none" stroke="#000" stroke-linecap="round" stroke-linejoin="round" stroke-miterlimit="10" stroke-width=".5" d="M413.59375 479.10156l-6.58594 2.45313"/></g><g clip-path="url(#G)"><path fill="none" stroke="#000" stroke-linecap="round" stroke-linejoin="round" stroke-miterlimit="10" stroke-width=".5" d="M412.63672 479.46094l.91797.8125"/></g><g clip-path="url(#H)"><path fill="none" stroke="#000" stroke-linecap="round" stroke-linejoin="round" stroke-miterlimit="10" stroke-width=".5" d="M426.78125 478.80469l-6.33203 3.04687"/></g><g clip-path="url(#I)"><path fill="none" stroke="#000" stroke-linecap="round" stroke-linejoin="round" stroke-miterlimit="10" stroke-width=".5" d="M425.85938 479.25l.99218.72656"/></g><g clip-path="url(#J)"><path fill="none" stroke="#000" stroke-linecap="round" stroke-linejoin="round" stroke-miterlimit="10" stroke-width=".5" d="M438.00781 476.98438l-2.15234 6.6875"/></g><g clip-path="url(#K)"><path fill="none" stroke="#000" stroke-linecap="round" stroke-linejoin="round" stroke-miterlimit="10" stroke-width=".5" d="M452.39453 483.10938l-4.29687-5.5625"/></g><g clip-path="url(#L)"><path fill="none" stroke="#000" stroke-linecap="round" stroke-linejoin="round" stroke-miterlimit="10" stroke-width=".5" d="M464.73828 483.64063l-2.35156-6.6211"/></g><g clip-path="url(#M)"><path fill="none" stroke="#000" stroke-linecap="round" stroke-linejoin="round" stroke-miterlimit="10" stroke-width=".5" d="M147.36328 466.0039l-6.72656 2.01954"/></g><path fill="none" stroke="#000" stroke-linecap="round" stroke-linejoin="round" stroke-miterlimit="10" stroke-width=".5" d="M147.36328 466.0039l1.72656 1.7422m11.42188-2.1875l-6.39453 2.91015m6.39453-2.91016l1.94531 1.4961m11.66016-.46875l-6.97266.85547m6.97266-.85547l1.40625 2.00781m11.88281-.98047l-6.92188-1.19922m6.92188 1.19922l.76563 2.33203m12.10156-1.125l-6.02735-3.61328m6.02735 3.61328l-.125 2.44922m13.72265-3.03906l-6.58984-2.4336m5.63281 2.08204l.16406 1.21484m14.32032-1.85547l-7.01563-.44922m5.99219.38281l.50781 1.1172M240.6797 466.5l-6.94922 1.02734m5.9375-.8789l.73047.98828m13.42578-1.82422l-6.60547 2.40234m5.64453-2.05078l.91016.82031m13.54297-.4453l-6.96094.94921m5.94922-.8125l.71484.9961m13.41797-1.89844l-6.57422 2.48047m5.61719-2.1211l.92187.8125m13.45313-.85937l-6.77734 1.85547m5.78906-1.58594l.84375.89453m13.55078-.72656l-6.96094.98047m5.94531-.83985l.72266.99219m12.70703-3.02734l-5.16015 4.76953m4.41015-4.07813l1.15625.40625m12.89844-1.10937l-5.14063 4.79297m4.39454-4.09375l1.16015.39843m13.4336-.34765l-6.20313 3.29687m5.30078-2.82031l1.01563.6875m13.16015-1.24219l-6.1211 3.44922m5.23048-2.94922l1.03515.66406m13.52735-.2539l-6.83594 1.6289m6.83594-1.6289l1.625 1.83984m11.60937-2.1289l-6.67187 2.20703m6.67187-2.20703l1.77344 1.6953m-2.7461-1.375l.88673.84766m13.55468-.46093l-6.98047.79297m5.96485-.6797l.69531 1.01173m13.65234-.53125l-7.01562-.39453m5.9961.33593l.51171 1.1172m12.61719 1.39843l-4.60156-5.3086m18.11718.1875l-5.0039 4.9336m4.27344-4.21875l1.17187.36719m12.60938 4.09375l-4.47266-5.41797m3.82031 4.6289l-.46875 1.13672m13.1914.3125l-1.98437-6.73828m1.69532 5.75781l-.875.85938"/><g clip-path="url(#N)"><path fill="none" stroke="#000" stroke-linecap="round" stroke-linejoin="round" stroke-miterlimit="10" stroke-width=".5" d="M147.4961 453.35547l-6.9922.6875"/></g><path fill="none" stroke="#000" stroke-linecap="round" stroke-linejoin="round" stroke-miterlimit="10" stroke-width=".5" d="M147.4961 453.35547l1.35937 2.04297m11.97266-1.78907l-7.02735.1797m7.02734-.1797l1.20704 2.13672m12.05859-1.46484l-6.92969-1.16406m6.92969 1.16406l.77734 2.32813m12.5547-2.44141l-6.96095-.9375m6.96094.9375l.85547 2.30078m12.48828-2.61719l-7.01953-.30469m7.01953.3047l1.0586 2.21484m12.24218-2.71485l-6.99219.69532m6.9922-.69532l1.36327 2.03907m11.80078-2.77735l-6.6875 2.16797m6.6875-2.16797l1.76172 1.70703m11.55078-1.70703l-6.68359 2.17188m6.6836-2.17188l1.76562 1.70313m11.51563-1.8047l-6.61329 2.375m6.61328-2.375l1.81641 1.64845m11.13672-2.375l-5.89063 3.82812m5.89063-3.82812l2.14844 1.1875m11.60156-.23828l-6.75781 1.92578m5.77344-1.64453l.85156.8828m13.15625-1.87109l-6.17969 3.34375m5.28125-2.85937l1.02344.67969m13.23437-1.08594l-6.26562 3.1875m6.26562-3.1875l2.00781 1.41015m10.84375-2.10156l-5.33984 4.5664m4.5625-3.90234l1.14453.44922m13.14063-.86718l-5.72656 4.07421m4.89453-3.48046l1.09765.55078m13.57031-.05469l-6.76562 1.89844m5.78125-1.6211l.84766.88672m13.44921.73828l-6.76171-1.91015m5.77734 1.63281l.26172 1.19922m14.14062-2.34375l-6.96484.9375m5.94922-.80078l.71484.9961m11.15625-.66407l-.01953-.19922-.0586-.1914-.09765-.1797-.45703-.375-.1914-.05859-.19923-.01953-.19921.01953-.19141.0586-.46094.375-.09375.17968-.0586.19141-.01952.19922.01953.19922.0586.1914.09374.17578.46094.37891.1914.0586.19923.01953.19921-.01954.19141-.05859.45703-.3789.09766-.17579.0586-.1914.01952-.19922m15.73828-.67188l-6.89453 1.34375m19.73828-2.54297l-5.94921 3.7422m16.90234 1.58984l-1.22656-6.92188m12.60156 6.71484l2.65234-6.5078m-2.26953 5.55859l-1.21875.125m18.45313-.5586l-5.94922-3.74219m5.08203 3.19532l-.08985 1.22656m12.69532.67187l-2.80078-6.4453m2.80078 6.4453l-1.52735 1.91797"/><g clip-path="url(#O)"><path fill="none" stroke="#000" stroke-linecap="round" stroke-linejoin="round" stroke-miterlimit="10" stroke-width=".5" d="M147.45313 439.74219l-6.90625 1.28125"/></g><path fill="none" stroke="#000" stroke-linecap="round" stroke-linejoin="round" stroke-miterlimit="10" stroke-width=".5" d="M147.45313 439.74219l1.53125 1.91797m-2.53516-1.73047l.76562.95703m13.59766-.83984l-6.9961.67578m6.9961-.67578l1.35547 2.04687m-2.375-1.94922l.67969 1.02344m13.66797-.94922l-7.01954.32813m7.01953-.32813l1.25 2.10938m-2.27343-2.0625l.6289 1.05468m13.69141-1.30468l-6.98828.73828m6.98828-.73828l1.375 2.03125m-2.39063-1.92579l.6875 1.01954m13.66016-.95313l-7.01562.39063m7.01562-.39063l1.26953 2.10156m-2.29297-2.04297l.63672 1.04688m13.67188-1.41016l-6.95703 1m6.95703-1l1.44531 1.98047m11.84375-2.125l-6.90625 1.28906m6.90625-1.28906l1.53125 1.91797m11.66797-2.36719l-6.67578 2.1914m6.67578-2.1914l1.76953 1.69922m11.42188-2.02344l-6.4297 2.83594m5.4961-2.42187l.96484.7578m13.34766-1.02343l-6.55469 2.53906m6.5547-2.53906l1.85546 1.60547m11.1289-2.25l-5.89452 3.82812m5.03515-3.26953l1.07422.59375m13.57813-.01562l-6.85157 1.55469m5.85547-1.32813l.80078.92969m13.28906-1.82422l-6.40625 2.89062m5.47266-2.46875l.97266.75m12.98437-1.6914l-5.82422 3.92969m5.82422-3.9297l2.16797 1.15235m10.99219-1.36719l-5.51172 4.35938m5.51172-4.35938l2.2461.98438m10.99609-1.07031l-5.3711 4.53125m4.58985-3.8711l1.14062.45703m12.64844 3.73438l-4.7539-5.17188m18.0039 5.23438l-4.6211-5.29688m14.00782 5.76954l3.23437-6.23829m8.26172 2.3711l6.86719 1.49219m6.3711-.7461h7.02734m-6.00782 0l-.57421-1.08203m13.4453 3.01172l5.8711-3.85938m-5.01562 3.29688l-1.07813-.58594m13.26172.64453l6.42578-2.85156m-5.48828 2.4375l-.96875-.75781m19.9414-1.20313l-6.76562 1.89844m19.64844.96094l-5.90235-3.8164m5.04297 3.26171l-.10156 1.21875"/><g clip-path="url(#P)"><path fill="none" stroke="#000" stroke-linecap="round" stroke-linejoin="round" stroke-miterlimit="10" stroke-width=".5" d="M147.40234 426.19531l-6.80468 1.7461"/></g><path fill="none" stroke="#000" stroke-linecap="round" stroke-linejoin="round" stroke-miterlimit="10" stroke-width=".5" d="M147.40234 426.19531l1.65625 1.8125m-2.64453-1.5586l.82422.90626m13.57031-.67188l-6.98437.76953m6.98437-.76953l1.37891 2.03125m-2.39453-1.91797l.6875 1.01563m13.66016-.92578l-7.01954.36328m7.01953-.36328l1.26172 2.10547m-2.28515-2.05078l.63281 1.05078m13.70703-.85938l-7.02344-.1289m7.02344.1289l1.11328 2.1875m-2.13281-2.20703l.55469 1.09375m13.75781-.71484l-6.97656-.84766m6.97656.84766l.8789 2.28906m12.44923-2.45313l-7.00782-.51953m7.00781.51953l.98829 2.2461m11.75-4.45313l-5.85157 3.89453m5-3.32812l1.07813.58203m13.55469-.11328l-6.78516 1.82422m5.79688-1.5586l.83984.89454m13.58203-.11328l-7.02344-.26954m6.0039.23047l.53126 1.10547m13.71094-.39844l-6.83985-1.60547m5.84766 1.375l.3125 1.1836m13.67969-.10547l-6.20313-3.30078m19.80469.72265l-6.77734 1.85547m5.78906-1.58593l.84375.89062m10.14062 3.28125l-.14062-7.02734m.11719 6.0039l-1.07032.59766m16.92188-5.46484l-5.16797 4.7578m4.41797-4.0664l1.15625.40625m13.36719-.47656l-6.08594 3.51172m5.20312-3l1.03907.64844m11.52343-2.625l-2.8125 6.4414m2.40235-5.5039l1.22265-.09375m9.45703 5.48437l3.27735-6.21484m9.92578 6.15234l3.5-6.08984m-2.99219 5.20312l-1.22265-.03906m14.21875-5.26563l3.125 6.29297m-2.67188-5.3789l.71484-.9961m14.41016-.21484l-1.40234 6.88672m1.19922-5.88281l1.17578-.34766m8.21484 2.0039l6.85156 1.56641m-5.85547-1.33984l-.3203-1.1836m12.55859 1.53907l7.01562.40234m-5.9961-.34375l-.51171-1.11719m12.80469 1.42188l7.01953-.32422m-6 .27734l-.625-1.05859m13.10937 2.08594l6.64453-2.28516m-5.67968 1.95313l-.89844-.83594m20.03906-.51953l-6.9414 1.08984m5.93359-.92969l.73437.98047"/><g clip-path="url(#Q)"><path fill="none" stroke="#000" stroke-linecap="round" stroke-linejoin="round" stroke-miterlimit="10" stroke-width=".5" d="M147.45313 413.10547l-6.90625 1.29687"/></g><path fill="none" stroke="#000" stroke-linecap="round" stroke-linejoin="round" stroke-miterlimit="10" stroke-width=".5" d="M147.45313 413.10547l1.53125 1.91406m-2.53516-1.72656l.76562.95703m13.60157-.78906l-7.00391.58203m7.0039-.58203l1.32813 2.0664m-2.34766-1.98047l.66407 1.03125m13.67969-.9375l-7.02344.22266m7.02344-.22265l1.22265 2.1289m12.01953-2.7461l-6.875 1.46095m6.875-1.46094l1.57813 1.8789m11.44922-2.71093l-6.29688 3.12109m5.3789-2.66406l.9961.71484m13.59766.54297l-7.01953-.30469m5.99609.25782l.53125 1.10937m13.35156-2.95312l-6.10937 3.47656m5.21875-2.97266l1.03515.65625m9.51953-2.88281l1.19532 6.92187m14.84375-6.2578l-4.2539 5.59374m18.5664-1.1914l-6.25-3.21094m13.07422 2.61719l6.73047-2.02735m8.54687-2.20703l2.80469 6.44531m10.75781.09375l2.3125-6.63281m11.95313 6.82422l.41015-7.01563m15.83203 1.28907l-5.44531 4.4375m17.19922-5.53516l-2.32031 6.63281m1.98046-5.66797l1.21485-.1875m10.67969-.92187l1.19921 6.92187m-1.02343-5.91796l.96875-.75m9.78515 1.35546l5.97266 3.70313m7.55469-4.00781l5.54687 4.3125m-4.74219-3.6875l.21094-1.20703m12.35547.5078l5.4336 4.46095m-5.4336-4.46094l.48438-2.40625m13.11718 2.09765l4.85938 5.07422m-4.15235-4.33593l.38282-1.16407m11.89844.78907l5.51562 4.35156m-4.71484-3.71875l.21875-1.20703m14.01953-.60938l2.0664 6.71485M448 416.45702l4.49219-5.40625m-3.83985 4.61719l-1.19921-.25m19.53515-2.44922l-6.85156 1.5664m5.85156-1.33593l.80469.92578"/><g clip-path="url(#R)"><path fill="none" stroke="#000" stroke-linecap="round" stroke-linejoin="round" stroke-miterlimit="10" stroke-width=".5" d="M147.36328 399.41797l-6.72656 2.04297"/></g><path fill="none" stroke="#000" stroke-linecap="round" stroke-linejoin="round" stroke-miterlimit="10" stroke-width=".5" d="M147.36328 399.41797l1.73047 1.73828m-2.71094-1.4414l.86719.86718m13.20313-1.72656l-6.27344 3.16406m6.27344-3.16406l2.0039 1.41406m11.22656-1.57031l-6.10547 3.47656m5.21875-2.96875l1.03516.65625m13.3164-.86719l-6.40624 2.88282m6.40625-2.88282l1.9414 1.50391m11.1172-1.97266l-5.89454 3.82422m5.03906-3.26953l1.07031.59375m10.85547-2.67969l-1.40234 6.88672m16.28125-6.13281l-4.53125 5.375m3.8711-4.58984l1.19921.2578m13.5664-.08593l-6.11327 3.46094m5.22656-2.95703l1.03516.66015m12.80859-1.67968l-5.39844 4.49609m4.61328-3.84375l1.13672.46484m12.82422-1.27734l-5.11719 4.8164m4.3711-4.11718l1.16406.39453m13.33984-.51563l-6 3.65625m5.125-3.125l1.0547.625m12.01171-2.29687l-3.7539 5.9414m3.20703-5.07812l1.22265.08985m14.26172 1.70312l-7 .625m5.98047-.53125l.67187 1.02734m13.66407-1.10546l-7.00391.59375m5.98438-.50391l.66406 1.02734m13.3125-2.39062l-6.28516 3.14062m5.3711-2.6836l1 .71095m12.03515-2.51954l-3.89844 5.84766m3.33204-4.9961l1.21875.1211m14.16015 1.26953l-6.89453 1.35938m5.89063-1.16016l.77734.94922m13.60547-.36328l-7.02344-.20703m6.0039.17578l.54298 1.09765m12.30859-4.03906l-4.05469 5.73828m4.05469-5.73828l2.4336.3086m7.3789-.62891l2.94922 6.3789m-2.51953-5.45312l.74218-.97656m11.9961.1211l3.2461 6.23437m-2.77345-5.32422l.69141-1.01172m10.92969 1.15625l5.6875 4.125m-4.85938-3.52344l.16797-1.21484m12.46485.42578l5.39453 4.5039m12.58593.66016l-3.93359-5.82422m3.35938 4.97657l-.57422 1.08203m15.23047-.9414l-5.46875-4.41407m5.46875 4.41406l-.46875 2.41016"/><g clip-path="url(#S)"><path fill="none" stroke="#000" stroke-linecap="round" stroke-linejoin="round" stroke-miterlimit="10" stroke-width=".5" d="M146.90234 385.14063l-5.80468 3.96484"/></g><path fill="none" stroke="#000" stroke-linecap="round" stroke-linejoin="round" stroke-miterlimit="10" stroke-width=".5" d="M146.90234 385.14063l2.17188 1.14062m-3.01563-.5625l1.08594.57031m12.5-1.79687l-4.66016 5.26172m4.66016-5.26172l2.38672.57812m-3.0625.1875l1.1914.28906m13.82423.52344l-6.70704 2.10547m5.73047-1.79687l.875.85937m13.48828-.89062l-6.85156 1.55078m5.85547-1.32422l.80078.92969m11.96094-3.35157l-3.7539 5.94141m3.20702-5.07422l1.22657.08985m13.47265-.21875l-5.42578 4.46484m5.42578-4.46485l2.26563.94141m11.8164.8125l-6.96093.95703m5.94922-.8164l.71875.99218m13.60156-1.17187l-6.94922 1.03515m6.94922-1.03515l1.46094 1.97265m11.4453-3.17187l-6.1328 3.4336m5.24218-2.9336l1.03125.66406m13.3789-.72656l-6.54296 2.5625m6.54297-2.5625l1.86328 1.59375m11.53125-1.375l-6.69922 2.1211m6.69922-2.1211l1.7539 1.71484m11.66407-1.3125l-6.90234 1.31641m6.90234-1.3164l1.53516 1.91015m-2.53907-1.71875l.76953.95703m13.60938-.4414l-7.02344-.09766m7.02344.09765l1.1211 2.1836m12.1875-2.45313l-7.01173.44141m7.01172-.4414l1.28516 2.09374m12.03516-1.98437l-7.02344.22265m7.02344-.22265l1.21875 2.13281m12.09765-2.04687l-7.02734.05078m7.02734-.05078l1.16797 2.15625m11.79297-3.66797l-6.3164 3.07422m6.3164-3.07422l1.98437 1.44531m11.14844-1.77344l-5.95312 3.73047m5.95312-3.73047l2.1289 1.22656m10.29298-2.1914l-4.16407 5.66015m4.16407-5.66015l2.42578.35547m10.71484-.47656l-3.8164 5.90234m3.8164-5.90235l2.44531.21094m10.84766-.22265l-3.77344 5.92578m3.77344-5.92578l2.44922.1914m11.05078-.0664l-4.14062 5.67578m3.53906-4.85156l1.21484.17578m13.74219 3.46875l-6.22266-3.26172m6.22266 3.26172l.01562 2.45312m12.94922-1.91406l-5.52343-4.33985m5.52343 4.33985l-.42968 2.41797m13.7578-2.42969l-5.54687-4.3164m5.54688 4.3164l-.42188 2.41797m-.38672-3.04688l-.42187 2.41797"/><g clip-path="url(#T)"><path fill="none" stroke="#000" stroke-linecap="round" stroke-linejoin="round" stroke-miterlimit="10" stroke-width=".5" d="M146.58984 371.4375l-5.17968 4.74219"/></g><path fill="none" stroke="#000" stroke-linecap="round" stroke-linejoin="round" stroke-miterlimit="10" stroke-width=".5" d="M146.58984 371.4375l2.3125.82031m-3.0664-.13281l1.15625.41016m13.29687-.59766l-5.94922 3.74219m5.94922-3.74219l2.1289 1.22266m-2.99218-.6797l1.0625.61329m13.64453.45703l-7.00781.51563m7.00781-.51563l1.3086 2.07422m-2.32813-2l1.3086 2.07813m12.99609-2.41797l-6.94922 1.04296m6.94922-1.04296l1.46094 1.97265m-2.46875-1.82031l.73047.98828m13.29296-2.125l-6.34765 3.01563m6.34765-3.01563l1.96875 1.46485m11.52735-1.00782l-6.70703 2.10156m6.70703-2.10156l1.7461 1.72266m-2.72267-1.41797l.8711.86328m13.54297.39844l-6.95313-1.03125m6.95313 1.03125l.82031 2.3125m-1.83203-2.46094l.82031 2.3125m13.52734-2.36719l-6.99609-.6289m6.9961.6289l.95703 2.26172m-1.97266-2.35156l.95313 2.26172m13.39453-2.5586l-7.02735.14844m7.02735-.14844l1.1953 2.14063m-2.21874-2.1211l.59766 1.07423m13.70312-1.52735l-6.95313 1.01563m6.95313-1.01563l1.45313 1.97656m-2.46485-1.83203l.72656.98828m13.63672-.625h-7.02734m7.02734 0l1.15235 2.16797m-2.17578-2.16797l.57812 1.08204m13.72656-1.57032l-6.96094.97656m6.96094-.97656l1.4414 1.98438m-2.45312-1.84375l.71875.99219m13.6211-1.03907l-6.98438.78906m6.98438-.78906l1.38672 2.01953m-2.40235-1.90625l.6914 1.01172m13.62892-.26953l-6.96485-.92187m6.96485.92187l.85937 2.30078m12.48438-2.6289l-7.02344-.26954m7.02344.26954l1.0664 2.21093m12.05469-3.5039l-6.63281 2.32031m6.6328-2.32031l1.80079 1.66406m11.33594-2.08203l-6.27735 3.15625m6.27735-3.15625l2.0039 1.41797m11.20704-1.60938l-6.07032 3.53906m6.07031-3.53906l2.08594 1.29297m10.83203-1.84375l-5.27734 4.64063m5.27734-4.64063l2.29688.86719m-3.0625-.1914l1.14844.43359m12.85937-1.19141l-5.1289 4.80078m5.1289-4.80078l2.32422.79688m-3.07031-.09766l1.16015.39844m13.20704-.72266l-5.7422 4.05469m5.7422-4.05469l2.1914 1.10547m11.66797.09375l-6.82813 1.65625m6.82813-1.65625l1.6289 1.83594m-2.62109-1.59375l.8125.91406m13.4961.4961l-6.83204-1.64844m6.83204 1.64843l.61328 2.375m-1.60938-2.61719l.3086 1.19141m13.69921-.14844l-6.22656-3.25m6.22656 3.25l.01954 2.45313m-.92579-2.92578l.01172 1.22656m13.8711-.22266l-5.54688-4.3125m5.54688 4.3125l-.42188 2.41797m-.38672-3.04687l-.21093 1.21094"/><g clip-path="url(#U)"><path fill="none" stroke="#000" stroke-linecap="round" stroke-linejoin="round" stroke-miterlimit="10" stroke-width=".5" d="M146.85938 358.45313l-5.71875 4.08203"/></g><path fill="none" stroke="#000" stroke-linecap="round" stroke-linejoin="round" stroke-miterlimit="10" stroke-width=".5" d="M146.85938 358.45313l2.1953 1.09375m-3.02734-.5l1.09766.54687m13.69922 1.10938l-7.01563-.41797m7.01563.41796l1.01953 2.23047m-2.04297-2.29296l.51172 1.11718m13.8164-.9375l-6.99609-.65625m6.9961.65625l.9453 2.26563m-1.96483-2.35938l.9453 2.26563m13.39454-2.23438l-7.00781-.52734m7.0078.52734l.98438 2.2461m-2.0039-2.32422l.98437 2.2461m-2.0039-2.32032l.49218 1.1211m14.83594-.7461l-6.95703-.97266m6.95703.97266l.84375 2.30469m-1.85547-2.44922l.84375 2.3086m-1.85547-2.44923l.42188 1.15235m14.94922-1.4375l-7.02344.16796m7.02344-.16796l1.20703 2.13671m-2.22656-2.11328l1.20312 2.13672m13.13281-2.1211l-7.02343.08985m7.02343-.08984l1.1797 2.14844m-2.19923-2.13672l1.17969 2.15234m13.13281-2.53125l-6.98047.82422m6.98047-.82422l1.39844 2.01563m-2.41406-1.89454l1.39844 2.01563m12.93359-2.13281l-6.98047.8164m6.98047-.8164l1.39453 2.01953m-2.41016-1.90235l.69532 1.01172m13.61718-1.26171l-6.9453 1.07812m6.9453-1.07813l1.46875 1.96485m-2.48047-1.80469l.73438.98047m13.61719-.91797l-6.9961.63672m6.9961-.63672l1.34375 2.05078m-2.35938-1.95703l.67188 1.02344m13.65234-1.1836l-6.98437.76954m6.98437-.76954l1.38281 2.02735m-2.39843-1.91797l.6914 1.01563m13.60938-1.33985l-6.92188 1.19922m6.92188-1.19922l1.5039 1.9375m-2.51172-1.76562l.75391.97265m13.61328-.7539l-7.01172.41406m7.01172-.41406l1.28125 2.09375m12.01563-2.32032l-6.97266.8711m5.95703-.7461l.70703 1.00391m13.5547-1.5039l-6.83595 1.61718m6.83594-1.61719l1.6211 1.84375m11.63671-2.05468l-6.72265 2.04296m6.72265-2.04296l1.73047 1.73828m11.38281-2.25781l-6.3164 3.08203m6.3164-3.08204l1.98438 1.44141m-2.90625-.99219l.99219.71875m13.1875-1.27734l-6.20703 3.29688m6.20703-3.29688l2.03515 1.375m-2.9375-.89453l1.01563.6875m13.39062-.75l-6.58203 2.46094m6.58203-2.46094l1.83594 1.625m-2.79297-1.26563l1.83594 1.625m12.53906-1.66015l-6.78906 1.8164m6.78906-1.8164l1.67188 1.79297m-2.66016-1.53125l1.67188 1.79687m12.67187-1.89844l-6.86719 1.4961m6.8672-1.4961l1.58593 1.8711m-2.58594-1.65625l1.58594 1.8711m12.74219-2.01173l-6.89454 1.34766m6.89454-1.34766l1.54687 1.90625m-2.55078-1.71094l1.54687 1.90625m12.82422-1.7539l-6.99609.64844m6.9961-.64844l1.34765 2.05078m-2.36719-1.95703l.67578 1.02734m13.55078.11719l-6.78515-1.82813m5.80078 1.5625l.27344 1.19532"/><g clip-path="url(#V)"><path fill="none" stroke="#000" stroke-linecap="round" stroke-linejoin="round" stroke-miterlimit="10" stroke-width=".5" d="M147.14453 345.61328l-6.28906 3.1289"/></g><path fill="none" stroke="#000" stroke-linecap="round" stroke-linejoin="round" stroke-miterlimit="10" stroke-width=".5" d="M147.14453 345.61328l1.9961 1.42969m-2.91016-.97266l1 .71094m13.38281 1.60938l-6.59766-2.42188m6.59766 2.42188l.33594 2.42968m-1.29688-2.78515l.33594 2.43359m13.98438-2.21094l-6.6875-2.15625m6.6875 2.15625l.43359 2.41406M173 347.94142l.4336 2.41796m-1.40626-2.73046l.21485 1.20703m15.10547-.78516l-6.8047-1.7461m6.8047 1.7461l.57812 2.38672m-1.5664-2.64063l.57421 2.38672m-1.5664-2.64062l.28906 1.1914m15.11719-1.47265l-7.02735-.16797m7.02735.16797l1.09765 2.19531m-2.12109-2.21875l1.10156 2.19531m13.10547-3.20312l-6.76562 1.89453m6.76562-1.89453l1.69531 1.77344m-2.67968-1.5l1.6953 1.77734m-2.67968-1.5l.84766.88672m14.29687-1.83985l-6.48828 2.69922m6.48828-2.69921l1.89844 1.55859m-2.83984-1.16406l1.89453 1.55859m12.32812-2.03906L234 348.61329m6.41406-2.8711l1.9336 1.50781m-2.8672-1.08984l.96876.7539m13.39062-.88672l-6.63672 2.30079m6.63672-2.30079l1.79688 1.66797m-2.76172-1.33203l.89844.83203m13.5586.3125l-6.9961-.65625m6.9961.65625l.9453 2.26172m12.37891-2.83594l-7.01172.48829m7.01172-.48829l1.29688 2.08204m12.02734-1.83594h-7.02735m7.02735 0l1.15234 2.16406m-2.17578-2.16406l.57422 1.08203m13.70313-1.72266l-6.91016 1.27735m6.91015-1.27735l1.52735 1.92188m-2.53125-1.73438l.76172.96094m13.47656-1.49219l-6.7461 1.96485m6.7461-1.96485l1.71094 1.75781m-2.6914-1.47265l.85546.8789m13.49219-.96875l-6.84766 1.57422m6.84766-1.57421l1.60547 1.85546m11.73046-1.75l-6.89453 1.36329m6.89454-1.36329l1.55078 1.90235m11.82812-1.04297L353.53125 347m7.01953.35547l1.03906 2.22265m-2.0625-2.27343l.52344 1.10937m13.79688-1.625l-6.98438.77735m6.98438-.77735l1.3828 2.02735m-2.39843-1.91407l1.38281 2.02735m12.77344-2.90625l-6.63672 2.3086m6.63672-2.3086l1.80078 1.66797m-2.76562-1.33204l1.80078 1.66797m12.5586-1.75l-6.79298 1.80079m6.79297-1.80079l1.66797 1.80079m-2.65625-1.53907l1.66797 1.80078m12.6836-1.85546l-6.89063 1.38671m6.89062-1.38671l1.5586 1.89453m-2.5625-1.69141l1.5586 1.89453m12.76171-2.09765l-6.89063 1.38671m6.89063-1.38671l1.55469 1.89843m-2.5586-1.69531l1.5586 1.89453m-2.5625-1.69531l.78125.94922m14.46484-1.65625l-6.73828 2m6.73828-2l1.71875 1.7461m-2.69922-1.45704l1.71875 1.75m-2.69922-1.45703l.85938.875m14.26172-1.875l-6.42969 2.83203m6.42969-2.83203l1.92969 1.51953m-2.86329-1.10547l1.92579 1.51953m-2.86329-1.10937l.96485.76172m14.27344-1.46485l-6.53125 2.58985"/><g clip-path="url(#W)"><path fill="none" stroke="#000" stroke-linecap="round" stroke-linejoin="round" stroke-miterlimit="10" stroke-width=".5" d="M466.82813 345.88281l1.86718 1.58985"/></g><path fill="none" stroke="#000" stroke-linecap="round" stroke-linejoin="round" stroke-miterlimit="10" stroke-width=".5" d="M465.8789 346.26172l1.8672 1.58984"/><g clip-path="url(#X)"><path fill="none" stroke="#000" stroke-linecap="round" stroke-linejoin="round" stroke-miterlimit="10" stroke-width=".5" d="M147.48828 333.44922l-6.97656.82812"/></g><path fill="none" stroke="#000" stroke-linecap="round" stroke-linejoin="round" stroke-miterlimit="10" stroke-width=".5" d="M147.48828 333.44922l1.40234 2.01562m-2.41796-1.89453l.69922 1.00781m13.11718 1.15625l-5.94922-3.74218m5.94922 3.74219l-.17969 2.4453m-.6875-2.99218l-.17578 2.44922m-.6875-2.99219l-.17968 2.44922m15.51562-1.92969l-6.52734-2.60156m6.52734 2.60156l.26953 2.4375m-1.21875-2.8164l.26563 2.4375m-1.21485-2.81641l.13282 1.21875m15.32812-1.8125l-7.02344.10156m7.02344-.10156l1.1836 2.14844m-2.20313-2.13281l1.1836 2.14843m12.82421-3.59375l-6.3711 2.96094m6.3711-2.96094l1.95703 1.47656m-2.8828-1.04687l1.95702 1.48047m12.0664-2.3125l-5.93358 3.76562m5.93359-3.76562l2.13281 1.21094m-2.9961-.66407l2.13282 1.21094m-2.9961-.66406l1.06641.60937m13.52735-2.26953l-5.03907 4.89453m5.03907-4.89453l2.33593.7539m-3.0664-.03905l2.33203.75m11.61328-1.5625l-4.83984 5.09375m4.83984-5.09375l2.36328.65625m-3.0664.08593l1.18359.32813m13.16406-.71094l-5.4961 4.375m5.4961-4.375l2.25.97656m11.82422 1.41407l-7.01563-.41016m7.01563.41016l1.02344 2.23046m-2.04297-2.28906l.51172 1.11719m13.3711.46875l-6.11329-3.46094m6.11328 3.46094l-.0664 2.45313m-.82422-2.95704l-.03125 1.22657m14.625-1.75l-6.88672-1.40625m6.88672 1.40625l.6953 2.35156m-1.69921-2.5586l.34766 1.1797m14.02343-2.02735l-6.99218.70312m6.99218-.70312l1.36328 2.03906m-2.3828-1.9375l.68359 1.01953m13.59765-1.46484l-6.88672 1.39062m6.88672-1.39062l1.5586 1.89453m-2.5586-1.6914l1.5586 1.89452m12.74218-2.17187l-6.85547 1.53906m6.85547-1.53906l1.59766 1.86328m-2.59766-1.64062l.80078.93359m13.59766-.4336l-7.02734.09376m7.02734-.09375l1.17969 2.15234m12.0625-1.38672l-6.8789-1.4375m6.8789 1.4375l.6836 2.35547m12.70312-3l-7.02344-.14844m7.02344.14844l1.10937 2.1875m-2.1289-2.21094l.55078 1.09375m13.54687-2.41797l-6.55078 2.54688m6.55078-2.54688l1.85938 1.60157m-2.8125-1.23047l.92968.80078m13.48438-.70703l-6.83984 1.61719m6.83984-1.6172l1.61719 1.84376m11.7539-1.5586l-6.94922 1.04688m6.94922-1.04688l1.46094 1.97266m-2.47266-1.82031l.73047.98437m13.57813-1.22656l-6.91797 1.22656m6.91797-1.22656l1.51562 1.9336m-2.51953-1.75391l1.51172 1.92969m12.72266-2.48438l-6.7461 1.97656m6.7461-1.97656l1.71484 1.7539m-2.69922-1.46484l1.71485 1.7539m12.42187-2.48437l-6.41797 2.85938m6.41797-2.85938l1.9336 1.50782m-2.8672-1.09375l1.9336 1.51171m-2.86719-1.09375l.96485.75391m13.96484-2.05469l-5.91406 3.79688"/><g clip-path="url(#Y)"><path fill="none" stroke="#000" stroke-linecap="round" stroke-linejoin="round" stroke-miterlimit="10" stroke-width=".5" d="M466.51953 331.96484l2.13672 1.19922"/></g><g clip-path="url(#Z)"><path fill="none" stroke="#000" stroke-linecap="round" stroke-linejoin="round" stroke-miterlimit="10" stroke-width=".5" d="M465.65625 332.51563l2.14063 1.20312"/></g><g clip-path="url(#aa)"><path fill="none" stroke="#000" stroke-linecap="round" stroke-linejoin="round" stroke-miterlimit="10" stroke-width=".5" d="M147.07422 322.25l-6.14844-3.40234"/></g><path fill="none" stroke="#000" stroke-linecap="round" stroke-linejoin="round" stroke-miterlimit="10" stroke-width=".5" d="M147.07422 322.25l-.04297 2.45313m-.85156-2.94922l-.04297 2.45312m-.85156-2.94922l-.04297 2.45313m15.01953-1.2461l-5.89063-3.83203m5.89063 3.83203l-.21875 2.44532m-.64063-3.00391l-.21484 2.44531m-.64063-3.0039l-.21875 2.4453m15.78125-2.75l-6.95703-.99218m6.95703.99219l.83594 2.3086m-1.84765-2.45313l.83203 2.3086m-1.84375-2.45313l.41406 1.15625m14.79297-2.4336l-6.69531 2.14453m6.6953-2.14453l1.75782 1.71094m-2.73437-1.39844l1.7578 1.71094m-2.73046-1.39844l.8789.85547m14.04688-2.22265l-6.01953 3.625m6.01953-3.625l2.10547 1.26171m-2.98047-.73437l2.10547 1.26172m-2.98047-.73438l1.05078.63281m13.90235-1.86328l-5.79297 3.98047m5.79297-3.98047l2.17578 1.13282m-3.01953-.5547l2.17578 1.13282m-3.01953-.55469l1.08984.56641m13.96484-1.64063l-5.89843 3.81641m5.89843-3.8164l2.14453 1.1914m-3.0039-.63672l2.14453 1.1914m12.10938-1.62108l-6.0586 3.5625m6.0586-3.5625l2.08984 1.28515m-2.97266-.76562l2.09375 1.28125m12.07031-1.85938l-5.98828 3.67969m5.98828-3.67969l2.11329 1.24219m-2.98438-.70703l1.05469.6211m13.64453.47265l-7.01563.42578m7.01563-.42578l1.28125 2.09375m11.4961-.0039l-5.94141-3.75782m5.9414 3.75781l-.1875 2.44922m-.67578-2.9961l-.09375 1.22266m14.7461-1.86719l-6.89063-1.37109m6.89063 1.3711l.70703 2.34765m-1.70703-2.54687l.35156 1.17578m14.03125-1.71485l-7.02344.10157m7.02344-.10157l1.1836 2.14844m-2.20313-2.13281l.58984 1.07422M320.56641 320l-6.94141 1.09766M320.5664 320l1.47657 1.96094m-2.48828-1.80078l1.47656 1.95703m12.6836-2.76563l-6.60548 2.39453m6.60547-2.39453l1.82032 1.64063m-2.78125-1.29297l1.8203 1.64453m12.44923-2.01563l-6.59375 2.4375m6.59375-2.4375l1.82812 1.63282m-2.78906-1.27735l.91406.81641m13.4414-.91797l-6.7539 1.92969m5.77344-1.64844l.85156.88281m13.55078-.65234l-6.96875.91016m5.95703-.77735l.71094 1m13.21094-2.375l-6.15625 3.39063m6.15625-3.39063l2.05469 1.34375m-2.95313-.84765l1.02735.66796m13.2539-1.03125l-6.29297 3.12891m6.29297-3.1289l1.9961 1.42578m10.51953-2.47657l-4.6914 5.23047m4.0078-4.46875l1.19141.29297m10.55078-1.95312l-.1836 7.02343m16.89454-3.9453l-6.97266.86718m5.95703-.73828l.70703 1.0039m13.50391-1.70312l-6.73437 2.01172m6.73437-2.01172l1.72266 1.74219m-2.70313-1.44922l1.72656 1.74219m11.95704-3.21094l-5.50782 4.36328"/><g clip-path="url(#ab)"><path fill="none" stroke="#000" stroke-linecap="round" stroke-linejoin="round" stroke-miterlimit="10" stroke-width=".5" d="M466.3164 318.36719l2.2461.98047"/></g><g clip-path="url(#ac)"><path fill="none" stroke="#000" stroke-linecap="round" stroke-linejoin="round" stroke-miterlimit="10" stroke-width=".5" d="M465.51563 319l2.24609.98438"/></g><path fill="#00f" fill-rule="evenodd" d="M383.80078 436.57813h8.61719v-10.14454h-8.61719v10.14454"/><path fill="azure" fill-rule="evenodd" d="M385.63281 428.26563h.83203v2.82421h3.28907v-2.82421h.83203v6.48046h-.83203v-2.91406h-3.28907v2.91406h-.83203v-6.48046"/><path fill="#00f" fill-rule="evenodd" d="M224.01953 414.38672h8.61719v-10.14453h-8.61719v10.14453"/><path fill="azure" fill-rule="evenodd" d="M225.85156 406.07422h.83594v2.82422h3.28516v-2.82422h.83203v6.48047h-.83203v-2.91406h-3.28516v2.91406h-.83594v-6.48047"/><path fill="#00f" fill-rule="evenodd" d="M370.48438 401.07422h8.62109v-10.14844h-8.6211v10.14844"/><path fill="azure" fill-rule="evenodd" d="M372.3164 392.76172h.83594v2.82031h3.28516v-2.82031h.83203v6.47656h-.83203v-2.91406h-3.28516v2.91406h-.83593v-6.47656"/><path fill="#ff3030" fill-rule="evenodd" d="M437.7539 387.75781h7.69532v-10.14453h-7.69531v10.14453"/><path fill="azure" fill-rule="evenodd" d="M439.58594 379.44531h.83594v5.73828h3.1914v.7422h-4.02734v-6.48048"/><path fill="#ffffe0" fill-rule="evenodd" d="M337.30469 350.80469h22.17969v-10.1914h-22.1797v10.1914"/><path fill-rule="evenodd" d="M340.80469 342.44922h.50781v6.29297h-.78516v-4.48828h-1.39062v-.5586l.5625-.0625.25-.05469.23047-.08984.20312-.14062.17578-.21094.14063-.29297.10547-.39453m4.8125 0l.23047.01562.21875.0586.20703.08984.19922.11719.18359.15234.17188.17578.30078.41797.24218.49219.1797.54688.11327.58203.03906.58984-.03906.59375-.11328.58203-.17969.55469-.24218.5039-.30079.42579-.17187.17968-.1836.15235-.19921.125-.20703.09375-.21875.05469-.23047.01953-.22656-.01954-.21875-.05468-.21094-.09375-.19531-.125-.1836-.15235-.17187-.17968-.30079-.42579-.24218-.5039-.1836-.55469-.10937-.58203-.03906-.59375h.83203l.03125.5625.08203.50781.125.4414.16406.375.1875.30079.21094.21875.22265.14063.22657.04296.22656-.04296.22266-.14063.21093-.21875.19141-.30078.16406-.375.125-.4414.08203-.50782.02735-.5625-.02735-.5625-.08203-.5-.125-.4336-.16406-.36718-.1914-.29297-.21094-.21484-.22266-.12891-.22656-.04688-.22656.04688-.22266.1289-.21094.21485-.1875.29297-.16406.36719-.125.43359-.08203.5-.03125.5625h-.83203l.03906-.58984.10937-.58204.1836-.54687.24219-.49219.30078-.41797.17187-.17578.1836-.15234.1953-.11719.21094-.08984.21875-.0586.22657-.01562m5.09375 0h.50781v6.29297h-.78516v-4.48828h-1.39062v-.5586l.5625-.0625.25-.05469.23047-.08984.20312-.14062.17188-.21094.14453-.29297.10547-.39453m2.82422 2.17187h.78515l.01953-.3164.0586-.28516.10156-.25.14063-.21875.17968-.17187.22266-.12891.26562-.08203.3086-.02735.23828.02344.22265.0625.20313.10156.17969.13672.14844.17579.11328.20312.0703.23828.02735.26172-.02344.26953-.0664.22656-.10938.19141-.15234.17188-.20313.16015-.24609.16797-.63281.38672-.53906.3125-.4375.3164-.34766.32813-.26172.33203-.1914.35156-.125.3711-.07032.39453-.01953.41797h4.21094V348h-3.33203l.08203-.28125.11719-.23828.14843-.20313.1836-.17968.23437-.17188.27735-.17578.71484-.41406.41797-.20703.34375-.23047.28125-.25.21875-.26953.16406-.27735.11328-.28125.0625-.28515.01953-.28125-.04296-.38282-.1172-.35156-.1914-.30469-.25-.26562-.30078-.21094-.34766-.16015-.3789-.09766-.40625-.03125-.4375.03125-.39453.09765-.35547.16797-.30469.23438-.25.30469-.1836.37109-.11718.44922-.03906.51562"/><path fill="#ffffe0" fill-rule="evenodd" d="M181.96484 347.61328h22.1797v-10.1914h-22.1797v10.1914"/><path fill-rule="evenodd" d="M185.46094 339.2539h.51172v6.29688h-.78907v-4.49219h-1.38672v-.55468l.5586-.0625.2539-.0547.22657-.08983.20703-.14063.17187-.21094.14063-.29297.10547-.39843m4.8164 0l.22657.01953.21875.05469.21093.08984.19532.1211.18359.15234.17188.17578.30078.41797.24609.49218.17969.54688.10937.57812.03906.59375-.03906.59375-.10937.58204-.17969.55468-.2461.5039-.30077.42579-.17188.17969-.1836.15234-.1953.125-.21094.08985-.21875.05859-.22657.01953-.23047-.01953-.21875-.0586-.20703-.08984-.19922-.125-.18359-.15234-.17187-.17969-.30078-.42578-.2422-.5039-.17968-.5547-.11328-.58203-.03906-.59375h.83593l.02735.5625.08203.50391.125.44531.16406.375.1914.30078.21095.21875.22265.13672.22656.04688.22657-.04688.22265-.13672.21094-.21875.1875-.30078.16406-.375.125-.44531.08203-.5039.03125-.5625-.03125-.5625-.08203-.5-.125-.4336-.16406-.36719-.1875-.29297-.21094-.21484-.22265-.1289-.22657-.04688-.22656.04687-.22266.12891-.21093.21484-.1914.29297-.16407.36719-.125.4336-.08203.5-.02735.5625h-.83593l.03906-.59376.11328-.57812.17969-.54688.24219-.49218.30078-.41797.17187-.17578.1836-.15235.19921-.1211.20703-.08983.21875-.0547.23047-.01952m5.08985 0h.50781v6.29687h-.78516v-4.49219h-1.38672v-.55468l.5586-.0625.25-.0547.23047-.08983.20312-.14063.17578-.21094.14063-.29297.10547-.39843m2.82422 2.17578h.78515l.01953-.3164.0625-.28517.09766-.2539.14063-.21485.17968-.17187.22266-.1289.26562-.08204.3086-.02734.23828.02344.22266.0625.20703.10156.17578.13672.14844.17187.11328.20703.07422.23438.02343.26562-.01953.26954-.0664.22265-.10938.19531-.15625.16797-.20313.16406-.24609.16407-.63281.39062-.53906.3125-.4375.3164-.34375.32423-.26563.33594-.1914.35156-.125.3711-.06641.39062-.02344.42187h4.21484v-.74219h-3.33593l.08594-.28515.11328-.23438.14843-.20312.1875-.17969.23047-.17188.27735-.17578.71875-.41406.41406-.20703.34766-.23047.27734-.25.22266-.26953.16015-.27734.11328-.28516.0625-.28516.01953-.28125-.03906-.3828-.1211-.34767-.1875-.30859-.2539-.26172-.30078-.21094-.34375-.16015-.38281-.09766-.40625-.03515-.4336.03515-.39843.09766-.35547.16797-.30469.23437-.25.30078-.1836.375-.11718.44532-.03906.51953"/><path fill="#ffffe0" fill-rule="evenodd" d="M168.64844 425.16797h22.17969v-10.19531h-22.1797v10.1953"/><path fill-rule="evenodd" d="M172.14844 416.8086h.50781v6.29296h-.78516v-4.48828h-1.39062v-.55469l.5586-.0664.2539-.05469.23047-.08984.20312-.14063.17188-.21094.14453-.29296.10547-.39454m4.8125 0l.23047.01954.21875.05468.20703.08985.19531.12109.1836.14844.17187.17578.30469.41797.24218.4961.1797.54687.10937.57812.03906.58985-.03906.59375-.10938.58593-.17969.55078-.24218.50391-.3047.42578-.17187.17969-.18359.15625-.19531.1211-.20703.09374-.21875.05469-.23047.01953-.23047-.01953-.21875-.05469-.20703-.09375-.19531-.1211-.1836-.15624-.17187-.17969-.3047-.42578-.24218-.5039-.17969-.55079-.10937-.58594-.03906-.59375h.83203l.03125.5625.07812.50782.1289.4414.16017.375.1914.30079.21094.22265.22266.13672.22656.04688.22656-.04688.22266-.13672.21093-.22265.19141-.30079.16016-.375.1289-.4414.08203-.50781.02735-.5625-.02735-.5625-.08203-.5-.1289-.4336-.16016-.36719-.1914-.29296-.21094-.21094-.22266-.13281-.22656-.04688-.22656.04688-.22266.1328-.21094.21094-.1914.29297-.16016.3672-.1289.43358-.07813.5-.03125.5625h-.83203l.03906-.58984.10937-.57812.1797-.54688.24218-.4961.30469-.41796.17187-.17578.1836-.14844.1953-.1211.20704-.08984.21875-.05469.23047-.01953m5.08984 0h.51172v6.29297h-.78906v-4.48828h-1.38672v-.55469l.5586-.0664.2539-.05469.22656-.08984.20703-.14063.17188-.21094.14062-.29296.10547-.39454m2.82422 2.17579h.78906l.01953-.31641.0586-.28906.09765-.25.14063-.21485.1836-.17578.22265-.1289.26562-.07813.3047-.03125.23827.02344.22656.0625.20313.10156.17969.13672.14844.17578.11328.20313.0703.23828.02735.26562-.02344.26563-.0664.22656-.10938.1914-.15625.17188-.19922.16016-.24609.16796-.63672.38672-.53515.31641-.4375.3164-.34766.32423-.26563.33593-.1875.35156-.125.3672-.0703.39452-.01954.41797h4.21094v-.73828h-3.33203l.08203-.28515.11328-.23829.14844-.19921.1875-.1797.23047-.17187.27734-.17578.71875-.41797.41406-.20703.34766-.23047.28125-.25.21875-.26562.16406-.28125.10938-.28125.0664-.28516.01953-.28125-.04297-.38281-.12109-.34766-.1875-.3086-.25-.26171-.30469-.21484-.34375-.15625-.3789-.10157-.41016-.03125-.4336.03125-.39843.09766-.35547.16797-.30469.23437-.24609.3047-.1875.375-.11328.4453-.04297.51954"/><path fill="#ffffe0" fill-rule="evenodd" d="M221.91016 474.51172h22.17968v-10.1914h-22.17968v10.1914"/><path fill-rule="evenodd" d="M225.40625 466.15234h.51172v6.29297h-.78906v-4.48828h-1.38672v-.55469l.5586-.0664.2539-.05469.22656-.08594.20313-.14453.17578-.20703.14062-.29688.10547-.39453m4.8164 0l.22657.01954.21875.05468.21094.08985.1953.12109.1836.14844.17188.17578.30078.42187.2461.4922.17968.54687.10938.57812.03906.58985-.03906.59375-.10938.58593-.17969.55469-.2461.5-.30077.42969-.17188.17969-.1836.15234-.1953.125-.21094.08984-.21875.0586-.22656.01953-.23047-.01953-.21875-.0586-.20703-.08984-.19922-.125-.1836-.15235-.17187-.17968-.30078-.42969-.24219-.5-.17969-.55469-.11328-.58594-.03906-.59375h.83594l.02734.56641.08203.5039.125.44141.16406.375.19141.30079.21094.22265.22265.13672.22657.04688.22656-.04688.22266-.13672.21093-.22265.1875-.30079.16406-.375.125-.4414.08204-.5039.03125-.56642-.03125-.55859-.08203-.5-.125-.4375-.16407-.36719-.1875-.28906-.21094-.21484-.22265-.13281-.22656-.04297-.22657.04296-.22265.13282-.21094.21484-.1914.28906-.16407.3672-.125.4375-.08203.5-.02734.55858h-.83594l.03906-.58984.11328-.57812.17969-.54688.24219-.49219.30078-.42187.17187-.17578.1836-.14844.19922-.1211.20703-.08984.21875-.05469.23047-.01953m5.08984 0h.50781v6.29297h-.78515v-4.48828h-1.38672v-.55469l.5586-.0664.25-.05469.23046-.08594.20313-.14453.17578-.20703.14062-.29688.10547-.39453m2.82422 2.17579h.78516l.01953-.31641.0625-.28516.09765-.2539.14063-.21485.17969-.17578.22265-.1289.26563-.07813.30859-.02734.23828.01953.22266.0625.20312.10156.17969.14063.14844.17187.11328.20703.07422.23438.02344.26562-.01954.26953-.0664.22266-.10938.1914-.15625.17188-.20312.16406-.2461.16406-.6328.39063-.53907.3125-.4375.3164-.34375.32423-.26563.33593-.1914.35156-.125.3672-.0664.39452-.02345.41797h4.21485v-.73828H238.875l.08594-.28515.11328-.23829.14844-.19921.1875-.1797.23047-.17187.27734-.17578.71875-.41797.41406-.20312.34766-.23047.27734-.2539.22266-.26563.16015-.27735.11328-.28515.0625-.28516.01954-.28125-.03907-.38281-.12109-.34766-.1914-.3086-.25-.26171-.30079-.21484-.34375-.15625-.38281-.09766-.40625-.03516-.4336.03125-.39843.10157-.35547.16406-.30469.23437-.25.3047-.1836.375-.11718.4453-.03906.51954"/></g></defs><use xlink:href="#ad"/></svg>