<svg xmlns="http://www.w3.org/2000/svg" role="img" xmlns:xlink="http://www.w3.org/1999/xlink" viewBox="142.45 309.95 326.84 171.84"><defs><clipPath id="a"><path d="M144 311.67188h1v168.65625h-1zm0 0"/></clipPath><clipPath id="b"><path d="M144 311.67188h324v168.65625H144zm0 0"/></clipPath><clipPath id="c"><path d="M467 311.67188h1v168.65625h-1zm0 0"/></clipPath><clipPath id="d"><path d="M144 478h4v2.32813h-4zm0 0"/></clipPath><clipPath id="e"><path d="M145 478h3v2.32813h-3zm0 0"/></clipPath><clipPath id="f"><path d="M154 478h7v2.32813h-7zm0 0"/></clipPath><clipPath id="g"><path d="M159 478h2v2.32813h-2zm0 0"/></clipPath><clipPath id="h"><path d="M166 479h9v1.32813h-9zm0 0"/></clipPath><clipPath id="i"><path d="M172 479h3v1.32813h-3zm0 0"/></clipPath><clipPath id="j"><path d="M180 479h8v1.32813h-8zm0 0"/></clipPath><clipPath id="k"><path d="M186 479h2v1.32813h-2zm0 0"/></clipPath><clipPath id="l"><path d="M193 479h9v1.32813h-9zm0 0"/></clipPath><clipPath id="m"><path d="M199 480h2v.32813h-2zm0 0"/></clipPath><clipPath id="n"><path d="M206 479h9v1.32813h-9zm0 0"/></clipPath><clipPath id="o"><path d="M212 479h3v1.32813h-3zm0 0"/></clipPath><clipPath id="p"><path d="M220 478h8v2.32813h-8zm0 0"/></clipPath><clipPath id="q"><path d="M226 479h2v1.32813h-2zm0 0"/></clipPath><clipPath id="r"><path d="M233 479h8v1.32813h-8zm0 0"/></clipPath><clipPath id="s"><path d="M239 479h2v1.32813h-2zm0 0"/></clipPath><clipPath id="t"><path d="M246 479h9v1.32813h-9zm0 0"/></clipPath><clipPath id="u"><path d="M252 479h2v1.32813h-2zm0 0"/></clipPath><clipPath id="v"><path d="M260 479h8v1.32813h-8zm0 0"/></clipPath><clipPath id="w"><path d="M266 480h1v.32813h-1zm0 0"/></clipPath><clipPath id="x"><path d="M273 479h8v1.32813h-8zm0 0"/></clipPath><clipPath id="y"><path d="M279 480h2v.32813h-2zm0 0"/></clipPath><clipPath id="z"><path d="M286 478h8v2.32813h-8zm0 0"/></clipPath><clipPath id="A"><path d="M300 479h8v1.32813h-8zm0 0"/></clipPath><clipPath id="B"><path d="M305 480h2v.32813h-2zm0 0"/></clipPath><clipPath id="C"><path d="M313 478h8v2.32813h-8zm0 0"/></clipPath><clipPath id="D"><path d="M328 477h5v3.32813h-5zm0 0"/></clipPath><clipPath id="E"><path d="M342 476h4v4.32813h-4zm0 0"/></clipPath><clipPath id="F"><path d="M355 476h4v4.32813h-4zm0 0"/></clipPath><clipPath id="G"><path d="M369 476h3v4.32813h-3zm0 0"/></clipPath><clipPath id="H"><path d="M379 480h9v.32813h-9zm0 0"/></clipPath><clipPath id="I"><path d="M396 476h2v4.32813h-2zm0 0"/></clipPath><clipPath id="J"><path d="M409 476h3v4.32813h-3zm0 0"/></clipPath><clipPath id="K"><path d="M420 477h7v3.32813h-7zm0 0"/></clipPath><clipPath id="L"><path d="M433 478h8v2.32813h-8zm0 0"/></clipPath><clipPath id="M"><path d="M439 480h1v.32813h-1zm0 0"/></clipPath><clipPath id="N"><path d="M446 478h8v2.32813h-8zm0 0"/></clipPath><clipPath id="O"><path d="M460 478h7v2.32813h-7zm0 0"/></clipPath><clipPath id="P"><path d="M144 465h4v4h-4zm0 0"/></clipPath><clipPath id="Q"><path d="M144 453h4v2h-4zm0 0"/></clipPath><clipPath id="R"><path d="M144 439h4v2h-4zm0 0"/></clipPath><clipPath id="S"><path d="M144 426h4v2h-4zm0 0"/></clipPath><clipPath id="T"><path d="M144 413h4v2h-4zm0 0"/></clipPath><clipPath id="U"><path d="M144 399h4v3h-4zm0 0"/></clipPath><clipPath id="V"><path d="M144 385h4v4h-4zm0 0"/></clipPath><clipPath id="W"><path d="M144 371h3v6h-3zm0 0"/></clipPath><clipPath id="X"><path d="M144 358h4v5h-4zm0 0"/></clipPath><clipPath id="Y"><path d="M144 345h4v5h-4zm0 0"/></clipPath><clipPath id="Z"><path d="M466 346h2v3h-2zm0 0"/></clipPath><clipPath id="aa"><path d="M144 331h4v5h-4zm0 0"/></clipPath><clipPath id="ab"><path d="M466 331h2v3h-2zm0 0"/></clipPath><clipPath id="ac"><path d="M465 332h3v3h-3zm0 0"/></clipPath><clipPath id="ad"><path d="M144 319h4v3h-4zm0 0"/></clipPath><clipPath id="ae"><path d="M466 318h2v2h-2zm0 0"/></clipPath><clipPath id="af"><path d="M465 318h3v3h-3zm0 0"/></clipPath><g id="ag" clip-path="url(#clip1)"><path fill="#fff" fill-opacity="0" fill-rule="evenodd" d="M0 0h1000v1000H0zm0 0"/><path fill="#d3d3d3" fill-opacity="0" fill-rule="evenodd" d="M162.15234 355.86719l-.23437.29297.0586.23437.11718.17188.17578.23437.29297.34766.11328.0586.11719-.17188.0586-.23438.17577-.17578.46485-.17578h.69922l.23437.29297.28906.8164.0586.17579.17578.23046.35156.23438.69922.69922.17188.17578.23437.34765.23438.41016.28906.58203.41015.46485.23047.23437.23438.17578.11719.23047.17578.29297.17187 1.16406v.23438l.0586.28906.05859.11719.11719.11719.34765.41015.11719.17188.17578.17578.17578.23437.11719.17188.17188.35156.05859.23438.23437.40625.23438-.0586-.17578.17578-.0586.92969h-.58203l-.23437-.11328-.34766.11328-.11719.11719-.05859.29297-.0586.17578-.11718.17187-.46484.29297-.0586.23438-.0586.11328v.64453l.0586.17187v.41016l.0586.0586v.40624l.05859.40625.11719.17579.05859.05859.23047.64062-.0586.29297v.69922l-.05859.58203v.23438l-.0586.23047-.05468.35156v1.92187l.05469.1172h.42578l-.36719.11718-.02344.35156.89063 1.16797 1.74219.53906 1.33984.35938v.53906l.08984.8086.53516.71484 1.51953.26953.89063-.08594.08984 1.16406.53516.1797 1.16015-.1797 2.05469-.98437 1.16016-.36328 1.8789-.17578 1.69531-.1797-.17968.71876-1.51563.08594-1.25.08984-.80469.26953-1.07421.8086.26953.71875.53515.89843-.17968.625-.26563.8086.26563 1.07812.625.89844.80468.17969 1.25-.1797-.26562.72267.09766.5039.05468.29297v.17188l.0586.29296v.40625l.17578.1172.35156.11718h.40625l.29297-.17578.11328-.11719.0586-.11719.11718-.23047.0586-.17578.35156-.46484.23047-.17578.17578-.0586.17578.0586.0586.17578.11718.98828.05469.46875.0586.17188.11718.23437.17578.0586.8164.05859h.28907l.11719.23437.05859.40625.0586.35156v1.10547l.11718.29297.11719.34766.28906.69922.17578.35156.58203.7539.35157.17579.17187.0586.46875.23437.64063.46484.34765.23438.29297.17578.29297.05468.23047.0625.8164.34766.29297.17578.11328.17188.35157.35156.11719.17578.52343.64063v.28906l.0586.35156v.34766l.05859.35156.0586.28906.11718.0586.17188.05859h.17578l.58203.23437.17578.1172.17578.28905.17578.23438.11328.23437.29297.23047.11719.11719v.41016l.0586.05468.28906.23438.23437.11719.0586.11718.11718.17188.0586.11719.23047.23437.05859.17578.23437.0586.1172.05859-.1172.11328-.05859.11719v.11719l-.11719.29296-.11719.28907v.58203l.17579.11719.11718.05859.0586.11719.11719.11719.11328.05859.17578.34765.0586.35157.05858.40625v.17578l-.05859.17578-.11719.69922v.17187l.1172.17579.29296.29296h.40625l.17578.1172.11719.17187.11719.29296v.23438h-.52735l-.23047-.23438h-.23437l-.17578.0586-.0586.69922.0586.34765.11719.17579.17578.41015.11718.23047.28907.46875.17578.05469h.52344l.23437.0586.75781.64062.0586.29296v.23438l.05859.0586.23047.34765v.35156l-.11719.17188v.29297l.29297.28906.29297.17578.17187.0586.29297.17577.29297.1172.58203.40624.28906.23438.29297.17578.21875.16015.01563.01172.23047.17579.64062.52343.17578.23438.1172.17578.17577.17578.11328.17188v.64062l.1172.17578.46874.11719.58203.11719.23438.05859.23047.11328.29297.11719.11328.0586.58593.35156.28907.17187.17578.0625.17578.05469.17578.0586.69922.35155.28906.17579.23438.05468.28906.17578.23437.1172.64063.40624.29297.11719.17187.0586.23438.05859.41015.05859.23047.0586.23438.11718.0586.17188-.41017.17578.46875.0586.0586.29296.11328.23438.17578.05468.23438.0586.17578.05859.40625.11719.64062.23437.11719.17188.0586.23437v.17578l-.0586.1172-.0586.40624.23438.23438.11719.05859.34766.11719.64062.23047.17578.11718.28906.1172.17578.17577.23438.46485.58203 1.10546.17578.17579.34766.17578.17578.11719.35156.11718 1.04688.52344.23437.0586.46485.11327.29297.0586.46484.17578.75781.58203.23438.23438.34765.46484.17578.17578.28907.23438.8164.69921.29297.17579.28906.28906.29297.17578.29297.28906.69531.64063.17578.17578.29297.23437.28907.23438.46875.28906.64062.58203.34766.23438.23437.29297.34766.34765.35156.46485.9336.99218.34765.40625.11719.17579.23437.05859.11328.11719.64454.17578.23047.11328.23437.0586.29297.17577.23047.1172.9336.69921.40624.40625.23438.17578.40625.17578.23437.11719.8164.34766.34766.23437.23438.11719.29297.28906.23047.11719.7578.35156.35157.17188.23047.05859.29297.11719.23437.0586.8711.17577h.8164l.46875.23047.17188.0586.875.69921.46484.1172.29297.05858.17578.0586.23047.0586.46875.05859.34766.05859.35156.0586.40625.05859h.29297l.17187.0586v.23046l.17578.17578h.29297l.34766.0586.35156.05859.69922.11719h.64063l.46484-.23438.29297-.17578.17187-.11719.41016-.17187.28906-.17578.9336-.46485.46875-.29297.52343-.29296.46485-.17188.46484-.17578 1.05078-.46485.28906-.11718.41016-.11719.28906-.11719.52735-.17578 1.51562-.69922.58203-.34765.28907-.0586.29297-.0586.34765-.11718.875-.23047.35156-.11719h.11329l.23437-.05859.875-.23437.23438-.0586h.8125l.35156-.0586.8164-.11718.17188-.0586.35156-.05468.29297-.0586.23047-.05859.8164-.17578.17579-.0586h.34765l.23438-.05859.46484-.11718.75781-.17188.23438-.0586h.34765l.41016-.11718.28906-.0586 1.28516-.05859h.28906l.41016-.0586.23047-.05858h.17578l.875-.1172h.40625l.41015-.11718h.34766l.35156-.11328.8711-.0586h1.75l1.04687.28907.41016.11719.28906.11718.35156.11719.28907.11719 1.05078.17187.28906.0586h.29297l.29297.05859.17187.0586.41016.05859.17187.0586.1172.05858h.11718l.11719.0586.35156.0586h.11328l.41016.0664 1.92187.39453 1.92578.39453 1.51953.44922 1.69532.71875 2.14453.80469 1.60547-.71875 1.42968-.80469 1.16016-1.07813 1.25-.44921 3.03516-.71875 1.875-.35938 2.14453-1.34765 2.23437-1.25391 2.5-1.25781 1.69531-.44922 1.78516-.17969 1.16016-.26953.625.53906 1.33984-.26953.71485-.98828.98437-1.34375.44531-.17969.80469-.35937 1.875-.53907 1.78516-.44921 1.25-.26954 1.16015-.08984 1.69922-.08984 1.96094-.26954 1.25-.08984h.53906l.625-.08984h.89063l2.14453-.17969 2.41015-.17969 2.58985-.08984 1.69531.17969 1.60938.08984 1.42968.35938 1.16016.71875 1.875.98828 1.16015 1.52734.26563.71484.6289.08985.35548.89844.53515.53906.53516 1.52734 1.07422.35938h.53515l-.80469.53515.08985 1.70703.71484 2.69532.89063.80468.89453.98829.71484 1.2578 1.78516.53907 1.51953-.17969.35547 1.34375 1.60937-.80469.98047-.53906.26953.26953.31641-.21484.21875-.14453.80078.44922.44922-.35938h.35547l.53515-.26953.53907-.71875.53515-.26953.625-.98828 1.16016.44922.83984.3711 1.39454.61718 1.6953-.17969h1.60548l1.78515.08985.17969-1.70704.53516-1.34375.80468.26954.4922.84765.40233.40625-.08984.53906v.35938l.71485.44922.71093-.26953h1.42969l.35938.98828.4453 1.25781.71485 1.34375 1.25.6289 1.69531.62891.71485-.17969.17969-.53906.98046-.08984.44922.35937.08594 1.25782-.26563.6289-.53515.17969v.53906l.71484.98438.26563.53906.98437.98828.80078 1.07813-.26562.35937-.08985.89844-.625 2.33203-.35546 2.0664-.08985 1.79298-.17969.71875-.08984.53906v1.4375l-.98047 1.88281-.35937 1.70703-.53516.89844-.80469 1.16797-.26562.53906 2.05469 1.2539.08593.35938-.35546.53906-.08985-.17968v.80859l.08985 1.4375-.44532.71484-1.07422.09375-.26562.71485.53515.89844.8047.71875 1.16015.80859 1.33984.26953.44531.35938-.35546.44921-1.78907-.08984-1.25-.44922-.71484-.71875-.625-.08984-.17578 3.58984-.1875 1.3086h89.35937V311.70313h-55.26953v49.08203l.76172.125 3.28906.54296 2.02344 2.83594v2.7539l2.35156.33204 2.34766.33203h4.05078l-1.3789 4.16016-2.02344.70703-2.02344.70312-.54297.34375-2.59375 1.6172-.1875.11718-2.02344-2.07813-.73046-2.74218-2.67188-2.07813-1.375-3.5-.0664-.08203-1.95704-2.67188 2.75-1.41796v-49.08204H294.42187v91.41407l.1172.03125.1328.01172.07422.07421.10547.04688.08985.0586.08593.05859.08985.0586.29687.29687.0586.08984.03125.11719.02734.11719.01563.13671-.03125.1172-.0586.08983-.0586.08594-.04296.10547-.04688.10156-.02734.1211v.14453l.17578.26953.14844.14844.07422.08594.07422.07421.04296.10547.0625.08985.0586.08593.04297.10547.0586.08985.04687.10156.04296.10547.0586.08594.11719.17968.07421.07422.0625.08594.0586.08984.04297.10547.0586.08985.05858.08593.0625.08985.0586.08984.04297.10156.11719.17969.07421.07422.0586.08594.07422.07421.08984.0586.10547.04687h.14844l.1328-.01562.13282.01562.10156-.04687.07422-.07422.04688-.10156-.01563-.13281v-.14844l-.04687-.10547-.02735-.11719-.04687-.10156-.02735-.1211-.04296-.10156-.0625-.08984-.04297-.10156-.04297-.10547-.03125-.11719-.01563-.13281-.01171-.13672.08593-.0586.0586-.08593.12109-.03125.04297.10547.01562.1328v.1172l.0586.10156.0586.08984.08983.0586.14844.14843.0586.08985.04296.10547-.01171.10156.08593.0586.10547.04687.08594.0586.08984.05858.07422.07422-.11719.02735-.10546.04687-.08594.0586-.07422.07421-.0586.08985-.0625.08594-.02734.12109-.04687.10156-.04297.10547-.03125.11719-.01172.13281-.01563.13281v.14844l.02735.11719.04687.10547.04297.10156.0586.08984.07421.07422.08985.0586.07422.07421.08984.0586.0586.08984.04296.10547.04688.10156.11719.03125.1328.01563h.14845l.11718-.03125.10547.04297.04297.10547.04688.10156.02734.1211L299.5 410l.02734.11719.03125.1211.02735.11718.10547.04297.10156.04687.13281-.01562.14844.14844.0625.08593.07422.07422.07031.07422.08984.0625.10547.04297.10156.04297.1172.03125.13671.01562.11719-.03125.07422-.07422.02734-.11718-.01172-.13282-.03125-.12109-.02734-.11719.04297-.10547h.11719l.08984.0625.11719.02735h.14843l.13282.01562h.14843l.13282.01563.1328-.01563h.14845l.1328-.01562.13282-.01172.13672.01172.11719-.02735.13281-.01562.1914-.0586-.05859.17579-.01562.1328-.02735.1211-.01562.13281-.0586.08594-.1328.01563-.10548.04687-.10546.04297-.1172.03125-.11718.02735-.26563.03125h-.14843l-.13281.01562-.07422.07422.05859.08594.14844.14843.11719.1797.07421.0703.08985.0625.08984.0586.08594.0586.08984.05858.10156.04297.10547.0625.10547.04297.08594.0586.10547.04687.10156.04297.17969.11719.0586.08984-.04298.10156-.04687.10547.01562.13281.22266.22266.0586.08985.04296.10156.03125.1211.04297.10155.01563.13282.03125.11718.01171.13672.03125.11719.14844.14844.10156.04297.10547.04296.1172.03125.1328.01563.13672.01563h.11719l.11719-.03125.08984-.0586.04297-.10547.04688-.10156.04296-.10547.03125-.11719.01172-.1328v-.14845l-.01172-.1328-.01562-.13282-.03125-.11719-.04297-.10547-.04688-.10547-.04296-.10156-.04297-.10547-.01563-.13281.01563-.13281.02734-.11719.03125-.11719.02735-.1211.04687-.10155.08984-.0586.08594-.0625.07422-.07422.08984-.05859.22266-.22266.0586-.08593.07421-.07422.11719-.17969.0586-.08594v-.14844l-.07423-.07421-.10156-.04688-.10547-.04297-.10156-.04297-.0586-.08984-.04687-.10547-.02734-.11719.08984-.05859.11719-.03125.10156-.04297.17969-.11719.14844-.14843.01172-.13282-.01172-.10546-.08985-.0586-.1328.01563h-.14845l-.1328.01562-.13282-.01562-.1211-.03125-.08593-.0586-.07422-.07422-.0586-.08984-.0625-.08594-.11718-.17969-.0586-.08593.03125-.1211.08594-.05859.1211-.03125.05859-.08594v-.1211l-.03125-.11718-.0586-.08984-.05859-.08594-.04687-.10547-.02735-.11719-.01562-.1328.0586-.08985.07421-.07422.08984-.0586.1172-.17968.07421-.07422.0586-.08594.14843-.14844.1211-.03125.1328-.01562.13282.01562.07422.07422.04297.10547.01562.13281-.03125.1172-.11719.03124-.1328.01172-.14844.14844-.04297.10547-.04688.10156-.02734.1211-.03125.11718v.14844l.03125.11719.04297.10546.05859.08985.07422.07031.07422.07422.11719.03125.12109.02734.11719-.02734.1328-.01563h.1172l.08984.0586.07422.07422.04687.10546.0586.08594.10156.04688.13281.01562.10547.04297.08594.0586-.01172.10546-.07422.07422-.17969.11719-.05859.08984-.08984.0586-.07032.07422-.07421.07421-.0625.08985-.02735.11719-.01562.1328.01562.13282-.01562.13281v.14844l.01562.13281.02735.1172.03125.12108.07421.07422.08985.0586.08594.0586.08984.05858.11719.03125v.08594l-.10157.04688-.08984.0586-.26563.03124-.11718.02735h-.14844l-.10547.04296-.10156.04688-.0586.08984-.0625.23438-.01171.13281-.03125.1211-.01563.1328v.29298l-.01172.1328.01172.13673.01563.1328.1328.01563.13282.01172.1211.03125.08593.0586.07422.07421.04688.10547.04296.10157.01563.1328v.44532l-.01563.13281v.44532l.03125.26562.02735.11719.01562.13281.03125.11719.08594.21094.03125.26562v.14844l-.03125.11719-.02734.11718-.03125.1211-.02735.11719-.03125.11718-.03125.1211-.01171.1328-.01563.13282.08984.0586.1172-.03125.10155.01562.04688.10547-.03125.26562v.44141l-.04297.10547-.04688.10547-.04296.10156-.04297.10547-.0586.08594-.03125.12109-.04296.11719-.03125.11719-.01563.1328.01563.13282.05859.08984.10547.04688.08594.0586.05859.08593-.01172.13672-.03125.11719-.04297.10156v.44531l-.01562.13281v.14844l-.03125.11719-.04297.10547-.02735.11719-.04687.10546-.04297.10157-.03125.12109-.02734.11719-.03125.13281-.03125.11719-.02735.11719-.04297.10546-.03125.1172-.03125.12108-.01171.13282-.01563.13281v.29688l.02734.11718v.14844l.04688.39844.02734.11719.0586.08984.12109.03125h.14844l.13281-.01563.0586.08985v.11719l-.0586.08984-.08984.0586-.10157.04296-.10546.04688-.08985.05859-.08594.0586-.13671.01562-.1172-.03125-.1328-.01563-.10157.04688-.0625.08594-.01172.13671-.01562.13282-.03125.11719-.02735.11718-.01562.13281-.03125.1211v.29687l.01563.13282.03125.11718v.14844l.01171.13281v.14844l-.02734.11719-.04688.10156-.02734.1211-.03125.11718-.0586.08985-.07421.07421-.10156.04297-.10547.04688-.11719.02734-.1211.03125-.10156-.04687.0586-.08594.10547-.04688.02734-.11718.03125-.11719.02734-.1211.03125-.11718v-.14844l.01563-.13281-.03125-.11719-.04297-.10547-.10547.01563-.07422.07422-.10156.04296-.08984.0625-.07422.07422-.04297.10157-.01563.1328-.03125.1172L304.25 426l-.03125.11719-.02734.11719-.03125.12109-.02735.11719-.03125.11718-.04297.10547-.08984.0586h-.08984l-.1172-.03125-.03124-.08594.01562-.13672-.03125-.11719v-.14844l-.01171-.1328v-.14844l-.0625-.23438-.02735-.1211-.04297-.10156-.04687-.10546-.0586-.08594-.05859-.08985-.04297-.10546-.0625-.08594-.14844-.14844-.0703-.07422-.10548-.04687-.10547-.04297-.10156-.04297-.29687-.29688-.08985-.07421-.08594-.0586-.10546-.04297-.08985-.0625-.08594-.0586-.10546-.04296-.08985-.0586-.08594-.0625-.07421-.0703-.10547-.04688-.08594-.0586-.10547-.04296-.08984-.0625-.10156-.04297-.10547-.04297-.08594-.0586-.10547-.04687-.10547-.04297-.10156-.04687-.08985-.0586-.10156-.04297-.10547-.04296-.08984-.0625-.11719-.02735-.13281-.01562-.13281.01562H299.75l-.13281.01563-.11719-.03125-.08984-.0586-.07422-.07422-.08985-.05859-.10156-.04688h-.14844l-.12109-.02734-.10156-.04297-.07422-.07422-.11719-.17968-.08984-.0586-.10156-.04297-.08985-.0625-.10547-.04296-.08984-.0586-.08594-.0586-.10547-.04687-.0586-.08594-.05858-.08984-.04297-.10547-.04688-.10156-.07422-.07422-.08594-.0586-.07421-.07421-.08985-.0586-.22265-.22265-.04297-.10547-.03125-.26563.10547-.04296h.14453l.10547.04296.07421.07422.08985.0586.08594.0586.10546.04687.08985.05859.14844.14844.0703.07422.14845.14843.0625.08594.07421.07422.08594.0586.07422.07421.08985.0625.08984.0586.08594.05859.26953.17578.10156.04688.10547.04296.10156.04297.04688-.07421.05859-.08594.07422-.07422.07031-.07422.10547.04297.07422.07422.0586.08984.04296.10156.04688.10547.04296.10547.1211.02735.11719-.02735.07421-.08984.04297-.10547.0586-.08985.07422-.07421.10546-.04297.1172-.02735.1328.01172.08985.0586.14844.14843.05859.08985.04297.10547.04687.10156.04297.10547.04297.10156.10547.04688.10547.04296.13281.01563.08594-.0586.0586-.08984.07421-.07422.10547-.04297.11719.02735.10547.04687.10156.04297.10547.04297.10156.04688.17969.11718v.11719l-.01563.13281.01563.13281.01562.13672.0586.08594.10156.04688.1211.02734.11718.03125h.14844l.11719-.03125.05859-.08984.17969-.1172.05859-.08983.07422-.07422.0586-.08594.11718-.17969.17969-.11719.11719.03125.08984.0586.04297.07422-.01563.1328v.1172l.08985.05859h.14843l.13282-.01563.1328-.01171.26563-.03125.10547-.04297.11719-.03125.1211-.02735.07421-.07421.07031-.07422.0625-.08985-.01562-.10547-.04688-.10156-.10156-.04297-.10547-.01562-.11718.02734-.26563.03125h-.14844l-.07421-.07422-.08985-.0586-.11719-.03124-.11718-.02735-.13282-.01562h-.14843l-.13282.01563h-.29687l-.10547-.04688-.14844-.14844-.04297-.10156-.05859-.08984.22266-.22266.08593-.0586.10547-.04296.11719-.03125.13281-.01563.13281.01563.13672.01562.10157.04297.1328-.01172.08985-.0625.10156-.04297.0625-.08984-.04687-.10156-.08984-.0586-.1172-.03125-.10155-.04296-.0586-.08985-.0625-.08984v-.11719l.01563-.13281.10547-.04688.07421-.07031v-.1211l-.08984-.05859-.03125-.11719.08985-.05859.07421-.07422.04297-.10547.0586-.08984.04687-.10156.01563-.13281v-.14844l-.04688-.10547-.04297-.10156-.08984-.0586-.13281-.01562-.10157-.04297-.13671-.01563-.1172-.03125h-.4453l-.13282-.01562-.13281-.01172-.13281-.01563-.11719-.03125h-.14844l-.13281-.01562-.13281-.01172-.26563-.03125-.1211-.04297-.08593-.0586-.07422-.07421v-.14844l.01172-.13281.10547-.04688.10156-.04296.13281-.01563h.15235l.13281-.01562h.29297l.1211.03125.10156.04296.08984.0586.23438.0625.12109-.04688.08984-.05859.10156-.04297.13282-.01562.10547.04296.10156.04688.13281.01172.1211-.02735h.14453l.12109-.03125.11719-.02734.10547-.04687.07421-.07422.08594-.0586.14844-.14843.0586-.08594.04687-.10547.02734-.11719.01563-.10547-.10156-.04296-.08985-.0586-.11719-.03125-.10546-.04297-.08985-.0625-.07422-.08594-.07422-.07421-.10156-.04297-.10547-.04688-.10156-.04297-.0586-.08984-.04687-.10156-.08594-.21094-.0625-.08594-.05859-.08984-.07422-.07422-.08594-.0586h-.26953l-.11719.03126-.08984.05859-.10156.04297-.13281.01562-.10547-.01562-.02735-.11719-.0625-.08984-.11718-.03125-.10157-.04297-.14843-.14844-.03125-.11719-.01563-.10546.07422-.07422.17969-.1172.11719-.02733.11718-.03125.13672.01562.10156.04297.10547.04297.10156.04687.10547.04297.1172.03125.1328.01563.1172.02734.1328.01563.10547-.01563.08985-.0586-.07422-.07421-.10547-.04297-.07422-.07422-.07422-.08984-.14844-.14844-.08593-.0586-.08985-.05859-.07422-.07422-.08984-.0586-.10156-.04687-.1211-.02734-.10156-.04688-.10547-.04296-.11719-.03125-.10156-.04297-.1211-.03125h-.14843l-.11719.03125-.10546.04297-.08594.0625-.17969.11718-.08594.0586-.08984.0586-.10547.04687-.08594.05859-.10547.04297-.10156.04297-.10547.04687-.07422.07422-.05859.08985-.0586.08593-.04687.10547-.0586.08594-.07421.07422-.13281-.01172-.1172-.03125h-.11718l-.07422.07422-.08984.0586-.07422.07421-.08984.0586-.08594.05859-.10547.04687-.10156.04297-.13672.01563-.10156-.04297-.14844-.14844-.10547-.04688h-.08594l-.10547.04688-.10156.04297-.1211.03125-.11718-.03125-.07422-.07422v-.11719l.03125-.1211.07422-.0703.0586-.08985.07421-.07422.11719-.03125.10547-.04296h.29297l.13281-.01563.13672-.01563.10156-.04296.08985-.0586.10156-.04687.08984-.0586.13281-.01171.08985.05859.13281.01172.08984-.0586.08594-.05859.10547-.04297.08984-.0586.08594-.0625.08985-.05859.14843-.14843.0586-.08594.05859-.08985.10547-.04296.13281-.01563.11719.02735.1211.03125.05859-.0586.05859-.08984.03125-.26563.02734-.11719.10547.01172.13281.01563.10157-.04297.08984-.0586.0586-.08984.07421-.07422.0586-.08984.04687-.10156.01172-.13281-.01172-.13282-.04687-.10547-.14844-.14843-.0586-.08985-.05859-.08594-.04297-.10546v-.44532l.01563-.1328v-.14845l.01172-.1328-.0586-.0586-.08984.0586-.10156-.04298-.17969-.11719-.08594-.05859-.0625-.08984-.0586-.08985-.07421-.07421-.08594-.0586-.1211.03125-.10155.01172-.10547.04688-.08594.05859-.10547.04297-.14844.14844-.08984.05859-.08594.0586-.08984.0625-.10547.04296-.13281.01563v-.1211l.10547-.04297.11718-.03125.07422-.0703.04297-.10548v-.14844l-.02734-.11718-.14844-.14844-.13281-.01563h-.14844l-.11719.03125-.10547.04297-.10156.04297-.08984.0625-.11719.02735-.07422-.07422.01172-.13281-.04297-.10157-.04297-.10547-.08984-.05859-.11719.02734-.1211.03125-.11718.03125-.10156.04297-.1211.03125-.10156.04297-.10547.04297-.08984.0586-.10156.01562v-.11719l.01562-.13281-.0586-.08985-.07421.04297-.14844.14844-.0586.08985-.07421.07421-.04688.10547-.04296.10156-.07422.07422-.0586.08985-.07422.07422-.05859.08593-.07422.07422-.08984.0625-.07422.07031-.07422.07422-.10156.01563-.13281.01562-.10547-.04296v-.1211l.14843-.14844.04297-.10156.0586-.08984.04687-.10156.04297-.10547.0586-.08985.03124-.11719.04297-.10156.03125-.1211.02735-.11718.04687-.10547.04297-.10156.04297-.10547.07422-.07031.08984-.0625.08985-.0586.10156-.04296h.29687l.26563-.03125.10547-.04297-.07422-.07422-.11719-.03125-.10547-.04297-.08984-.0586-.10156-.04687-.08985-.0586-.10156-.04296-.10547-.04297-.08984-.0625-.08594-.0586-.10547-.04296-.10156-.04297-.1211-.03125-.11718-.03125-.10157-.04297L297.5 410.25l-.10156-.04297-.08985-.0586-.04296-.10546-.01563-.13281.10156-.04297.13281-.01563.13672.01563.13282-.01563.10156-.04297.0586-.08984.01562-.10547-.08985-.0586-.07421-.07421-.10157-.04297-.08984-.0586-.14844-.14843-.04297-.10547-.01562-.13281v-.29297l-.0586-.08985-.08984-.05859-.07422-.07422-.04297-.10547-.03125-.11718-.0586-.08985-.07421-.07422-.11719-.02734-.07422-.07422-.08984-.0586-.08984-.0625-.08594-.05859-.07422-.07421-.0586-.08594-.04687-.10547-.08594-.0586-.14843-.14843-.19532-.0586-.1328.01563-.10157.04297-.07422.07422-.04688.10156-.04296.10547-.0586.08984-.0586.08594-.29687.29687-.08984.0586h-.08594l-.0625-.08594-.04297-.10547.03125-.11719.0586-.08984.02734-.11719-.01172-.13281-.08984-.0625-.10547.04688-.11719.02734-.11719.03125-.26953.17578-.10156.04688-.11719.02734-.10546.04687-.08985.0586-.10156.04297-.0586-.08594-.04687-.10547.01563-.13281.04687-.10547.07031-.07422.07422-.07031.0586-.08985v-.14843l-.04297-.10547h-.23829l-.10156.04687-.03125.11719-.02734.11719-.03125.1211-.07422.04296-.13281.01563-.07422-.04688-.04297-.10156-.04297-.10547-.04687-.10156-.04297-.10547-.1211.03125-.10156.04297-.13281.01562-.11719.03125-.10547.04297-.08984.0586-.10156.04687-.1211.02734-.13281.01563-.10156-.04297-.0586-.08985-.04687-.10546-.04297-.10157-.04297-.10546v-.1172l.0586-.08984.08593-.05859.17969-.11719.10156-.04687.10547-.04297.10547-.0586.10156-.04296.08985-.0625.10156-.04297.10547-.0586.10156-.04687.08984-.0586.10547-.04296.10156-.04297.08985-.0625.10156-.04297.13672-.01563.11719.03125.10156.04297.1211.03125.10156.04297.10546.04688.10157.04296.10547.04297.10156.04688.10547.04297.10156.04297.10547.04687.08594.0586.10546.04296.1172.03125.10546.04297.10156.04688.08985.0586.10547.04296.10156.04297.10547.04687.11719.02735.10156.04687.1211.02735h.14843l.08594-.0586.01562-.10156.0586-.08984-.02735-.1172-.07422-.07421-.11719-.17969-.07421-.07422-.08985-.07421-.17969-.1172-.08593-.05859-.10547-.04296-.10156-.04688-.26954-.17578-.05859-.08985-.07422-.07421-.0586-.08985-.04296-.10156-.03125-.11719-.01563-.13672v-.5625l-.01171-.1328-.01563-.13282-.03125-.11719-.01562-.13281-.01172-.13281-.03125-.1211-.22266-.22265-.0586-.08594-.01562-.10547.03125-.11719.13281-.01562v-91.41406H172.9922v1.45312l-.0586.23438-.35156 1.05078-.17187.52343-.1172.34766-.17577.41016-.11719.17187-.23438.29297-.23046.0586h-.35157l-.11718.05859-.23047.40625v.29297l.11719.17578.23046.23047.1172.23437.64062.75781.29297.46485.17578.23437.23047.35156.23437.34766.64063.8164.17578.46485.17187.41016.11719.69531.17578.46875.11719 1.39844.0586.46484v.875l.11718 1.04688v4.78125l-.0586.46484-.35156 1.28125-.17578.52344-.11328.41015-.35156.9297L172.93359 336l-.23437.58203-.11719.17578-.17187.34766-.17578.40625-.35157.8164-.0586.29297-.11327.29297-.11719.28906-.0586.17579-.11718.875-.0586.40625-.05859.11718-.0586.17579-.05859.17187-.23047.52734-.11718.17188v.23437l-.11719.23438-.0586.17187-.17577.58594v.28906l-.0586.17579v.29296l-.0586.11329-.05859.52734v.17187l-.05468.23438v2.6211l-.17578.8164-.1172.17578-.17577.23438-.1172.17187-.11327.23438-.58594.93359-.23047.28906-.29297.46485-.17578.23437-.28906.35156-.35156.69922-.11328.23047-.17579.41016-.17578.23046-.40625.52735-.8164.69922-.29297.17187-.28906.23438-.17579.11719-.17578.17578-.52344.40625-.52734.17578-.17187.17578-.23438.05469-.64062.17578h-.75782m12.21094 31.02344l-1.07422.44921.35938.89454 1.25-.71485.44531-.53906-.98047-.08985"/><path fill="#d3d3d3" fill-opacity="0" fill-rule="evenodd" d="M201.50781 416.59766h-.89453l.44922.6289.98047.35938.80469-.08985.4453-.98828-.17577.08985-.71485-.35547-.89453.35547m154.6211 59.0703l-.0586-.52343v-.29297l.11328-.29297.0586-.23046.46875-.46875h.11328l.11719-.11329.11718-.05859h.17579l.23437-.0586h.34766l.23437.0586.11719.0586.23047.17187.0586.17578.11718.58203v.29297l-.11719.17578-.17187.28906-.17579.17579-.52734.52343-.23047.23438-.11719.0586h-.17578l-.11718-.0586-.40625-.29297-.17579-.11719-.11718-.0586-.0586-.11327-.05468-.1172m6.64062-10.95702l-.0586-.17188v-1.10937l.0586-.17188.17578-.0586.17188-.05858h.17578l.23437-.0586.1172.0586.05858.69921-.05859.17188-.11719.17578-.11718.0586-.23438.52343-.11328.0586h-.23438l-.05859-.1172m9.61328-14.39062l-.11719-.17578v-.69922l.29297-.875.1172-.17187.17577-.35156.11328-.23047.1172-.29297.35155-.75781.1172-.23047.17187-.23438h.17578l.11719-.0586h.64062l.11719.0586.23437.23438.17188.11328.35156.29297.11719.11718.11328.17579v.11328l.11719.05859.11718.11719v.69922l-.05859.17578v.23047l-.0586.17578-.34765 1.05078-.11719.23047-.11719.23437-.11718.0586-.23047.23437-.64063.28906h-.875l-.41015-.11718-.64063-.46485"/><path fill="none" stroke="#bebebe" stroke-linecap="round" stroke-linejoin="round" stroke-miterlimit="10" stroke-width=".5" d="M467.95703 311.69531H144.02734v168.625h323.9297v-168.625"/><g clip-path="url(#a)"><path fill="#fff" fill-opacity="0" fill-rule="evenodd" d="M144 475.89063v4.4375h.0039H144V311.67188h.0039H144v164.21875"/></g><g clip-path="url(#b)"><path fill="#fff" fill-opacity="0" fill-rule="evenodd" d="M144.0039 480.32813V311.67188h17.75v132.79296l-.25.35547-2.96484 4.4414-.69531 4.4375.73828 4.4375 3.17188 3.5 4.4375-1.45312 4.4375-.98437 4.4375 1.83984 1.94922-2.90234-1.94922-1.98047-2.875-2.45703-1.5625-1.89063-1.29297-2.54687-3.14453-2.85938-4.00782-1.58203-.42968-.35547V311.67188h48.8203v90.08203l-3.51171 3.12109-.46094 4.4414-.46484.9961-3.5 3.4414 1.91016 4.4375-1.82813 4.4375 1.98438 4.44141 1.43359 1.46875 4.4375-.14844 1.51953-1.3203-1.51953-1.35548-1.05078-3.08593-1.20313-4.4375 2.2539-2.03125.6172 2.03125 3.82422 4.375 4.4375.04296v.0586l-2.48829 4.40234 2.48828 2.23047 4.4375-1.85937 2.32032 4.0664 2.11719 1.42578 2.03125 3.01172 2.40625 2.53516 4.4414.04297.82031 1.85937 3.6172 3.375 4.4375.02735 3.27343-3.40235-.21094-4.4375-3.0625-3.1914-4.4375-.40625-4.4375 1.0078-4.4414-.9453-1.72657-.90235-2.71094-2.53515-3.91406-1.90235-.52344-.65234-4.4375-3.75v-.0586l4.07032-4.41796-.14844-4.4375-3.92188-3.91407-.5625-.52343-3.875-3.69922-1.17968-.74219-3.26172-3.1211v-90.08202h48.82422v109.01171l-1.94531 1.94532-2.4961 1.34765-3.07031 3.09375 2.8125 4.4375.25781.30469 3.28516 4.13281 1.15625.96485.97656-.96485.58203-4.4375.69922-4.4375.11328-4.4414-2.3711-1.94532V311.67188h62.13673v103.1953l-4.4375.48829-4.44141.27734-4.4375-.01172-1.6875 2.57032-2.75 1.3203-4.4375-.58202-4.4414-.3164-4.38282-.42188-.05469-.01954-.02734.01954-4.41016 1.80468-2.32812 2.63282-2.10938.48828-4.4375-.2539-4.4414.39452-4.4375 1.26563-3.26953 2.54687.26562 4.4375 3.0039 2.74219 4.4375.22656 4.44141.6211 1.04688.84765 3.39062 3.53125 4.4375.0586 4.4375-.60547 2.84766-2.98438.92969-4.4375.66015-1.26562v12.61719l-2.57421 1.96093 2.57421 1.90235 2.89844-1.90235-2.89844-1.96094V430.2422l4.44141.76562 3.49219.5.94531.97266v14.17969l-2.63672 2.60156 2.63672 2.77734 2.4414-2.77734-2.4414-2.60156v-14.1797l.8789-.97265 3.08204-4.4375.47656-1.57031v32.9414l-4.4375 1.83594-.92969 2.29688.92969.64844 4.4375 1.625 3.20313-2.27344-3.20313-4.13281V425.5l4.4375 1.42969 4.4414-2.15235 4.4375.48829 4.4375.14843 4.4375-1.63281 4.4375 2.2539 4.44141-2.5078 1.52344 3.54296 2.91406 2.6914.92578 1.7461-.21093 4.4375 3.72265 3.83203.8086.60547-.8086 4.13672-.2539.30078.2539.25.25-.25 4.1875-.94922 4.4414-.48046 4.4375-.0625 3.00392-2.94532 1.43359-1.72265 3.0664-2.71485 1.3711-3.67187 4.4375.8164.14453 2.85547.5039 4.4375-.64843.92969L372 444.82031l-.57422 4.4414 1.07422 4.4375 2.29297 2.28126 1.8164 2.15625 2.625 3.29297 1.28907 1.14453 3.14844 2.70703 4.4375-.46094 3.42968 2.19531 1.00781.58204.6836-.58204 3.7539-.26953 4.44141.1211 4.4375.05469 4.4375-.23438 4.4375-.29297 4.4414.04688 3.69923-3.8672.73828-.86327 4.4375-2.46094 4.4375 1.14844 2.41015-2.26172 2.02735-1.09375 4.4414-1.34766 2.26563-1.9961 2.17187-.55077 3.85938-3.88672-.03906-4.4414-3.82032-3.59376-4.4375.14844-3.1914 3.44531-1.25 1.90235-2.53125 2.53906-1.90625 1.02734-3.60938 3.41016-.82812 3.08594-.58594-3.08594-1.22266-4.4375-.75-4.4414-1.8789-1.9961-1.39063-2.4414-3.04687-2.9297-3.0586 2.9297-1.16796 4.4375-.21485.08593-1.20703-.08594-3.23047-1.3789-4.4375-4.07813-3.08203-3.41797-1.35547-1.3125-4.4414-2.42578-4.4375 1.34375-4.4375-.125-3.35157-1.91797-1.08594-1.07422-4.4375-.51562-4.4414.6914-1.53516-3.53906-2.90234-2.3125-2.15625-2.1289-2.28125-2.40625-4.4375-.38672-3.23828 2.79297-1.19922 1.04296-4.4414 1.98438-4.4375-2.61328-1.98048-.41406-2.45703-2.48829-3.17187-1.94921-1.26563-.89844-4.4414.64844-.34375.25-4.09375 2.8789-3.875-2.8789-.5625-.6211-4.4375-2.70312V311.67188h124.27343v123.37109l-1.02343.90234 1.02343 1.03906.95704-1.03906-.95704-.90234v-123.3711h22.1875v168.65625H144.00391"/></g><path fill="#50fcfc" fill-rule="evenodd" d="M158.58203 458.13672l-.73828-4.4375.69531-4.4375 2.96485-4.4414.25-.35548v3.33204l-1.03125 1.46484-1.15625 4.4375 1.6875 4.4375.5.55078 1.3203-.55078 3.1172-2.0625 1.73437-2.375L166.19141 451l-1.82032-1.73828-2.61718-1.46485v-3.33203l.42968.35547 4.00782 1.58203 3.14453 2.85938 1.29297 2.54687 1.5625 1.89063 2.875 2.45703 1.94922 1.98047-1.94922 2.90234-4.4375-1.83984-4.4375.98437-4.4375 1.45313-3.17188-3.5"/><path fill="#00e8fc" fill-rule="evenodd" d="M161.2539 458.13672l-1.6875-4.4375 1.15626-4.4375 1.03125-1.46485 2.61718 1.46485L166.19141 451l1.73437 2.69922-1.73437 2.375-3.1172 2.0625-1.3203.55078-.5-.55078"/><path fill="#50fcfc" fill-rule="evenodd" d="M204.54688 418.1914l-1.91016-4.4375 3.5-3.4414.46484-.9961.46094-4.4414 3.51172-3.1211v2.89844l-.25.22266-2.82813 4.4414-1.35937 2.91407-1.54688 1.52344 1.54688 2.40234v3.8086l-1.71875 2.66406 1.71875 2.62109 1.70312-2.6211-1.70312-2.66406v-3.80859l2.53125-2.40234 1.90625-.66016 1.83203.66016.59766 4.4375 2.01172 2.30078 4.4375-1.53906.70312-.76172 1.33984-4.4375-2.04297-2.03907-2.55859-2.39843-1.8789-1.79688-4.20704-2.64453-.23437-.22266v-2.89843l3.26172 3.12109 1.17969.74219 3.875 3.69922.5625.52343 3.92187 3.91407.14844 4.4375-4.07031 4.41796-4.4375-.04296-3.82422-4.375-.6172-2.03125-2.2539 2.03125 1.20313 4.4375 1.05078 3.08593 1.51953 1.35547-1.51953 1.32031-4.4375.14844-1.4336-1.46875-1.98437-4.4414 1.82813-4.4375"/><path fill="#00e8fc" fill-rule="evenodd" d="M206.13672 425.25l-1.71875-2.6211 1.71875-2.66406 1.70312 2.66407-1.70312 2.62109m0-9.09375l-1.54688-2.40234 1.54688-1.52344 1.35937-2.91406 2.82813-4.44141.25-.22266v2.32422l-1.58594 2.33985 1.58594 1.9453 3.15234-1.9453-3.15234-2.33985v-2.32422l.23437.22266 4.20703 2.64453 1.87891 1.79688 2.5586 2.39843 2.04296 2.03907-1.33984 4.4375-.70313.76171-4.4375 1.53907-2.01171-2.30078-.59766-4.4375-1.83203-.66016-1.90625.66016-2.53125 2.40234"/><path fill="#00d4fc" fill-rule="evenodd" d="M210.57422 411.26172l-1.58594-1.94531 1.58594-2.33985v2.19922l-.09375.14063.09375.11718.1914-.11718-.1914-.14063v-2.19922l3.15234 2.33985-3.15234 1.9453"/><path fill="#00c4fc" fill-rule="evenodd" d="M210.57422 409.4336l-.09375-.1172.09375-.14062.1914.14063-.1914.11718"/><path fill="#50fcfc" fill-rule="evenodd" d="M219.45313 429.30078l-2.48829-2.23047 2.48828-4.40234 4.4375 3.75.52344.65234 3.91406 1.90235 2.71094 2.53515 1.72656.90235 4.44141.9453 4.4375-1.0078v1.625l-3.47266 1.97265 1.57032 4.4375 1.90234 1.77344 4.4375-.21094 1.5039-1.5625-.51171-4.4375-.99219-1.03125-4.4375-.9414v-1.625l4.4375.40625 3.0625 3.1914.21094 4.4375-3.27344 3.40235-4.4375-.02735-3.61719-3.375-.8203-1.85937-4.44142-.04297-2.40625-2.53516-2.03125-3.01172-2.11718-1.42578-2.32031-4.0664-4.4375 1.85937"/><path fill="#00e8fc" fill-rule="evenodd" d="M239.74219 440.38281l-1.57031-4.4375 3.47265-1.97265 4.4375.9414.99219 1.03125.51172 4.4375-1.5039 1.5625-4.4375.21094-1.90235-1.77344"/><path fill="#50fcfc" fill-rule="evenodd" d="M254.69922 431.50781l-2.8125-4.4375 3.07031-3.09375v2.07422l-1.00781 1.01953 1.00781 1.4961 1.84375-1.4961-1.84375-1.01953v-2.07422l2.4961-1.34765 1.9453-1.94532 2.3711 1.94532-.11328 4.4414-.69922 4.4375-.58203 4.4375-.97656.96485-1.15625-.96485-3.28516-4.13281-.25781-.30469"/><path fill="#00e8fc" fill-rule="evenodd" d="M254.95703 428.5664l-1.00781-1.49609 1.00781-1.01953 1.84375 1.01953-1.84375 1.4961"/><path fill="#50fcfc" fill-rule="evenodd" d="M265.26953 431.50781l-.26562-4.4375 3.26953-2.54687 4.4375-1.26563 4.4414-.39453 4.4375.2539 2.10938-.48827 2.32812-2.63282 4.41016-1.80468.02734-.01954.0547.01954 4.3828.42187 4.44141.3164v1.5547l-4.4414.23046-4.4375-.05468-2.85548 1.96875-1.58203 2.16015-4.4375-.71094-4.4375-.35546-4.4414.53906-4.1875 2.8086-.25 3.40624-.14063 1.03125.14063.1289 4.4375.60548 4.4414 1.4961 2.72657 2.20702 1.71093 1.78516 4.4375.28125 4.4375-1.88281.17579-.1836 2.60156-4.4375 1.66015-3.17578 4.44141 1.80469 4.4375.47656 3.05078-3.54297 1.01563-4.4414-4.06641-.96875-4.4375-1.17579v-1.55468l4.4375.58203 2.75-1.32031 1.6875-2.57032 4.4375.01172v3.01563l-4.35547 3.98047 4.35547 2.97265 3.7461-2.97265-3.7461-3.98047v-3.01563l4.4414-.27734 4.4375-.48828v2.15234l-3.4375 1.17188 3.4375 3.625 3.29298.8125 1.14453.11328.23046-.11328-.23046-.19141-2.8086-4.2461-1.6289-1.17187v-2.15234l4.4375 2.70312.5625.6211 3.875 2.8789 4.09375-2.8789.34375-.25v2.54687l-2.37891 2.14063 2.3789 1.61328 2.25782-1.61328-2.25781-2.14063v-2.54687l4.4414-.64844 1.26563.89844 3.17187 1.94921 2.45703 2.48829 1.98047.41406 4.4375 2.61328 4.4414-1.98438 1.19923-1.04296 3.23828-2.79297v3.03906l-4.4375 4.1914-.0039.00391-4.4375 1-1.0625-1-3.375-2.89453-4.40626 2.89453 2.35156 4.4375-.57812 4.4375 2.63281 2.71094 2.30078 1.72656 2.13672 2.05469 4.4414-1.19531 4.4375-.16406.70704-.69532-.70703-2.27734-.1836-2.16016.1836-.77344 4.4375.7422 3.22656-4.40626.96485-4.4375-4.19141-4.17969-4.4375-.01562v-3.03906l4.4375.38672 2.28125 2.40625 2.15625 2.1289 2.90234 2.3125 1.53516 3.53906 4.4414-.6914v2.3164l-3.42968 3.71094 1.98047 4.4375-2.9922 4.3086-.10155.1289-1.52344 4.4414 1.625 3.33985.41406 1.09766 4.02735 4.35937.5039.07813 3.9336 3.01172 2.8164-3.01172 1.6211-.84766.14453.84766.23437 4.4375 4.0586 3.9375 4.4375-.25781 4.4414.30468 4.4375.00782 4.4375-.4922 4.4375-.88671 4.4414-.26563 2.2461-2.34765 2.1914-2.57031 2.52344-1.8672-.17578-4.4375-2.34765-3.45312-4.4375-.94921-.1211-.03516.1211-.58985 2.20312-3.85156-1.82031-4.4375-.38281-.36719-.38672.3672-1.14063 4.4375-2.91406 1.15624-4.4375 2.1211-2.32031-3.27735-2.11719-2.04297-3.16015-2.39453-1.27735-1.35937-2.8711-3.07813-1.5703-1.10937-2.79297 1.10937-1.64454.29297-4.4375.08594-.16796-.3789-4.26954-3.64454-4.4375-.0664v-2.31641l4.4375.51562 1.08594 1.07422 3.35156 1.91797 4.4375.125 4.4375-1.34375 4.44141 2.42578 1.35547 1.3125 3.08203 3.41797 4.4375 4.07813 3.23047 1.3789 1.20703.08594.21485-.08594 1.16796-4.4375 3.0586-2.92969 3.04687 2.9297 1.39063 2.4414 1.8789 1.9961.75 4.4414 1.22266 4.4375.58594 3.08594.82812-3.08594 3.60938-3.41016 1.90625-1.02734 2.53125-2.53906 1.25-1.90235 3.1914-3.44531 4.4375-.14844v1.53125l-4.4375 1.26172-.74609.80078-2.85547 4.4414-.83984 1.33985-4.4375 1.69922-1.47656 1.39844 1.47656 3.02734 4.4375-1.60547 2.67578-1.42187 1.76562-1.16406 4.4375-.51172 2.7422-2.76172-.55079-4.4414-2.1914-2.0625v-1.53126l3.8203 3.59375.03907 4.4414-3.85938 3.88673-2.17187.55078-2.26563 1.9961-4.4414 1.34765-2.02735 1.09375-2.41015 2.26172-4.4375-1.14844-4.4375 2.46094-.73828.86328-3.69922 3.86719-4.4414-.04688-4.4375.29297-4.4375.23438-4.4375-.0547-4.44142-.12109-3.7539.26954-.6836.58203-1.0078-.58204-3.4297-2.1953-4.4375.46093-3.14843-2.70703-1.28906-1.14453-2.625-3.29297-1.81641-2.15625-2.29297-2.28125-1.07422-4.4375.57422-4.4414 2.79297-3.50782.64844-.92969-.50391-4.4375-.14453-2.85547-4.4375-.8164-1.3711 3.67187-3.0664 2.71485-1.4336 1.72265-3.0039 2.94531-4.4375.0625-4.4414.48047-4.1875.94922-.25.25-.25391-.25.2539-.30078.8086-4.13672-.8086-.60547-3.72265-3.83203.21093-4.4375-.92578-1.7461-2.91406-2.6914-1.52344-3.54297-4.4414 2.50782-4.4375-2.25391-4.4375 1.63281-4.4375-.14844-4.4375-.48828-4.44141 2.15235-4.4375-1.42969-.47656 1.57031-3.08203 4.4375-.87891.97266-.94531-.97266-3.49219-.5-4.4414-.76562-.66016 1.26562-.92969 4.4375-2.84766 2.98438-4.4375.60547-4.4375-.0586-3.39062-3.53125-1.04688-.84765-4.4414-.6211-4.4375-.22656-3.0039-2.74219"/><path fill="#00e8fc" fill-rule="evenodd" d="M268.27344 431.63672l-.14063-.1289.14063-1.03126.25-3.40625 4.1875-2.8086 4.4414-.53905v1.42968l-4.4414.78516-1.6914 1.13281 1.6914 2.03125 4.4414 2.36328.02735.04297 4.41015 3.67578 4.4375.23829 4.4375-2.09766 1.11329-1.8164-1.11329-1.76563-4.4375-1.16406-2.01562-1.50782-2.42188-1.39062-4.4375-.52735v-1.42968l4.4375.35546 4.4375.71094 1.58204-2.16015 2.85546-1.96875v6.3203l-.14843.08985.14843.02344.10547-.02344-.10547-.08984v-6.32031l4.4375.05468 4.44141-.23046v2.74609l-2.8789 3.83984 2.8789 1.61328 4.4375.16797 1.53516-1.78125-1.53516-2.58203-4.4375-1.25781v-2.7461l4.4375 1.17579 4.0664.96875-1.01562 4.4414-3.05078 3.54297-4.4375-.47656-4.4414-1.80469-1.66016 3.17578-2.60156 4.4375-.17579.1836-4.4375 1.8828-4.4375-.28124-1.71093-1.78516-2.72657-2.20703-4.4414-1.4961-4.4375-.60546"/><path fill="#00d4fc" fill-rule="evenodd" d="M272.71094 429.10156l-1.6914-2.03125 1.6914-1.13281 4.4414-.78516v1.42579l-2.28515.49218 2.28515 1.11719 2.38672 3.32031 2.05078 1.71094 4.4375-.59375 2.42188-1.11719-2.42188-.83594-4.4375-3.01953-1.23828-.58203-3.19922-.49219v-1.42578l4.4375.52735 2.42188 1.39062 2.01562 1.50781 4.4375 1.16407 1.11329 1.76562-1.11329 1.8164-4.4375 2.09767-4.4375-.23829-4.41015-3.67578-.02735-.04297-4.4414-2.36328"/><path fill="#00c4fc" fill-rule="evenodd" d="M277.15234 428.1875l-2.28515-1.11719 2.28515-.49219 3.19922.4922 1.23828.58202 4.4375 3.01954 2.42188.83593-2.42188 1.11719-4.4375.59375-2.05078-1.71094-2.38672-3.32031"/><path fill="#50fcfc" fill-rule="evenodd" d="M290.46484 426.98047l-.14843.08984.14843.02344.10547-.02344-.10547-.08984m4.4375 19.74219l-2.57421-1.90235 2.57421-1.96094 2.89844 1.96094-2.89844 1.90235"/><path fill="#00d4fc" fill-rule="evenodd" d="M299.34375 428.6836l-2.8789-1.61329 2.8789-3.83984v3.44531l-.29297.39453.29297.16406 4.4375-.14843.01563-.01563-.01563-.02734-4.4375-.36719v-3.44531l4.4375 1.25781 1.53516 2.58203-1.53516 1.78125-4.4375-.16797"/><path fill="#00c4fc" fill-rule="evenodd" d="M299.34375 427.23438l-.29297-.16407.29297-.39453 4.4375.36719.01563.02734-.01563.01563-4.4375.14844"/><path fill="#50fcfc" fill-rule="evenodd" d="M303.78125 452.03906l-2.63672-2.77734 2.63672-2.60156 2.4414 2.60156-2.4414 2.77734m0 11.1836l-.92969-.64844.92969-2.29688 4.4375-1.83593 3.20313 4.1328-3.20313 2.27345-4.4375-1.625"/><path fill="#00e8fc" fill-rule="evenodd" d="M312.65625 425.60156l-4.35547-2.97265 4.35547-3.98047v2.96875l-1.10938 1.01172 1.10938.7578.95703-.7578-.95703-1.01172v-2.96875l3.7461 3.98047-3.7461 2.97265"/><path fill="#00d4fc" fill-rule="evenodd" d="M312.65625 423.38672l-1.10938-.75781 1.10938-1.01172.95703 1.01172-.95703.7578"/><path fill="#00e8fc" fill-rule="evenodd" d="M321.53516 421.8164l-3.4375-3.625 3.4375-1.17187 1.6289 1.17188 2.8086 4.24609.23046.1914-.23046.11329-1.14454-.11328-3.29296-.8125m13.3125 2.42578l-2.37891-1.61328 2.3789-2.14063 2.25782 2.14063-2.25781 1.61328m11.26171 7.26562l-2.35156-4.4375 4.40625-2.89453 3.375 2.89453 1.0625 1 4.4375-1 .0039-.0039 4.4375-4.19141 4.4375.01563v1.29296l-4.4375 1.03516-1.95702 1.85156-2.48047.95313-4.4414 2.1211-3.26563-3.07423-1.17188-1.0039-1.53125 1.0039 1.53125 3.45313.83203.98437-.83203 1.11719-.8164 3.32031.8164.84375 4.4375 3.4414 4.4414-.72655 3.20704-3.5586 1.03125-4.4375.19922-.79297 1.21875.79297 3.21875 1.375 1.00781-1.375 1.88672-4.4375-2.89453-2.88672v-1.29296l4.1914 4.17968-.96484 4.4375-3.22656 4.40625-4.4375-.74219-.1836.77344.1836 2.16016.70703 2.27734-.70703.69531-4.4375.16407-4.4414 1.19531-2.13673-2.05469-2.30078-1.72656-2.63281-2.71094.57813-4.4375"/><path fill="#00d4fc" fill-rule="evenodd" d="M348.16406 430.52344l-1.53125-3.45313 1.53125-1.0039 1.17188 1.0039 3.26562 3.07422 4.4414-2.1211v.95313l-3.93358 2.53125-.50782.45313-3.75 3.98437 3.75 3.21485 4.4414-.8125 2.16407-2.40235.91016-4.4375-3.07422-2.53125v-.95312l2.48047-.95313 1.95703-1.85156 4.4375-1.03516v1.29688l-3.78516 1.58984 3.78516 3.07031 1.59375-3.0703-1.59375-1.58985v-1.29688l2.89453 2.88672-1.88672 4.4375-1.00781 1.375-3.21875-1.375-1.21875-.79297-.19922.79297-1.03125 4.4375-3.20703 3.5586-4.4414.72656-4.4375-3.4414-.81641-.84376.8164-3.32031.83203-1.11719-.83203-.98437"/><path fill="#00c4fc" fill-rule="evenodd" d="M352.60156 439.16016l-3.75-3.21485 3.75-3.98437.50781-.45313 3.9336-2.53125v.95313l-2.44922 1.57812-1.99219 1.77735-2.5039 2.66015 2.5039 2.14453 4.4414-.90234 1.1172-1.24219.79687-4.4375-1.91406-1.57812v-.95313l3.07422 2.53125-.91016 4.4375-2.16406 2.40235-4.4414.8125"/><path fill="#00b8fc" fill-rule="evenodd" d="M352.60156 438.08984l-2.5039-2.14453 2.5039-2.66015 1.99219-1.77735 2.44922-1.57812v.95703l-.96485.6211-3.47656 3.10546-1.2539 1.33203 1.2539 1.07422 4.4414-.99219.07423-.08203.67969-4.4375-.75391-.6211v-.95702l1.91406 1.57812-.79687 4.4375-1.1172 1.24219-4.4414.90234"/><path fill="#00a8fc" fill-rule="evenodd" d="M352.60156 437.01953l-1.2539-1.07422 1.2539-1.33203v1.32422l-.0039.00781.0039.0039.02344-.0039-.02344-.00781v-1.32422l3.47656-3.10547.96485-.6211.7539.6211-.67968 4.4375-.07422.08203-4.4414.9922"/><path fill="#009800" fill-rule="evenodd" d="M352.60156 435.94922l-.0039-.0039.0039-.00782.02344.00781-.02344.0039"/><path fill="#00c4fc" fill-rule="evenodd" d="M365.91797 430.14063l-3.78516-3.07032 3.78516-1.58984v1.29297l-.70313.29687.70313.5664.29687-.5664-.29687-.29687v-1.29297l1.59375 1.58984-1.59375 3.07031"/><path fill="#00b8fc" fill-rule="evenodd" d="M365.91797 427.63672l-.70313-.5664.70313-.29688.29687.29687-.29687.5664"/><path fill="#00e8fc" fill-rule="evenodd" d="M374.79297 452.60156l-1.625-3.33984 1.52344-4.4414.10156-.12891 2.99219-4.3086-1.98047-4.4375 3.42969-3.71094v1.56641l-1.98438 2.14453 1.98438 3.04297 1.64453 1.39453-1.64454 2.54688-1.4375 1.89062-2.08593 4.4414 1.72265 4.4375 1.80079 1.94923 2.76953-1.94922 1.66796-1.78516 4.4375.51563.35157 1.26953.79297 4.4375.1953 4.4375 3.09767 3.0039 4.4375-.14062 4.4414.60938 4.4375-.07422 4.4375-.92188 4.4375-1.8711 3.55469-.60546.88672-.16406 3.76953-4.27344.61328-4.4375-4.38281-3.6914-2.46875-.7461-1.97266-1.5-2.23047 1.5-2.20703.9336-4.4375-.26563-2.60156-.66797-1.83594-1-2.26953-3.4414-.76172-4.4375-1.41015-1.46876-4.4375-.69531-4.1172 2.16406-.3203.53516-.32813-.53516-1.8125-4.4375-2.29688-1.96094-4.4375-.18359v-1.5664l4.4375.0664 4.26954 3.64453.16796.3789 4.4375-.08593 1.64454-.29297 2.79296-1.10937 1.57032 1.10937 2.8711 3.07813 1.27733 1.35937 3.16016 2.39453 2.11719 2.04297 2.32031 3.27735 4.4375-2.1211 2.91406-1.15625 1.14063-4.4375.38672-.36719.38281.3672 1.82031 4.4375-2.20312 3.85156-.1211.58984.1211.03515 4.4375.94922 2.34765 3.45313.17579 4.4375-2.52344 1.86719-2.1914 2.5703-2.2461 2.34767-4.4414.26562-4.4375.88672-4.4375.49219-4.4375-.00782-4.44142-.30468-4.4375.2578-4.05859-3.9375-.23437-4.4375-.14454-.84765-1.62109.84766-2.8164 3.01172-3.9336-3.01172-.5039-.07813-4.02735-4.35937-.41406-1.09766"/><path fill="#00d4fc" fill-rule="evenodd" d="M377.4336 453.69922l-1.72266-4.4375 2.08594-4.4414 1.4375-1.89063v3.83594l-1.4297 2.49609 1.4297 3.46484 3.16015-3.46484-3.16015-2.4961v-3.83593l1.64453-2.54688-1.64454-1.39453-1.98437-3.04297 1.98438-2.14453v1.5625l-.53907.58203.53906.82422 4.25782 3.61328.17969.17578v2.58594l-2.57813 1.67578 2.57813 2.09766 2.26562-2.09766-2.26563-1.67578v-2.58594l.26172-.17578.06641-4.4375-.32813-.28125-4.4375-.30078v-1.5625l4.4375.1836 2.29688 1.96093 1.8125 4.4375.32813.53516.3203-.53516 4.1172-2.16406v1.98047l-.35157.1836-1.86719 4.4375-1.83984 4.4414.875 4.4375.89063 4.4375.15625 4.4375 2.13671 2.07422 4.4375-.03125 4.44141.91797 4.4375-.15625 4.4375-1.35157 2.97266-1.45312 1.46484-1.67578 4.4414-.6914 1.82423-2.07032 1.71484-4.4375-3.53906-2.98047-4.4414-1.32031-4.4375 1.92187-4.4375 1.28516-4.4375.99219-2.11329-4.33594-2.32813-3.03906-2.32421-1.40235-1.53516-4.4375-.57813-.1836v-1.98046l4.4375.69531 1.41016 1.46875.76172 4.4375 2.26953 3.4414 1.83594 1 2.60156.66798 4.4375.26562 2.20703-.9336 2.23047-1.5 1.97266 1.5 2.46875.7461 4.38281 3.6914-.61328 4.4375-3.76953 4.27345-.88672.16406-3.55469.60547-4.4375 1.8711-4.4375.92187-4.4375.07421-4.4414-.60937-4.4375.14063-3.09766-3.00391-.19531-4.4375-.79297-4.4375-.35156-1.26953-4.4375-.51563-1.66797 1.78516-2.76954 1.94922-1.80078-1.94922"/><path fill="#00c4fc" fill-rule="evenodd" d="M379.23438 452.72656l-1.4297-3.46484 1.4297-2.4961 3.16015 2.4961-3.16015 3.46484m0-15.95703l-.53907-.82422.53906-.58203 4.4375.30078.32813.28125-.0664 4.4375-.26173.17578-.17968-.17578-4.25781-3.61328"/><path fill="#00e8fc" fill-rule="evenodd" d="M383.67188 443.14453l-2.57813 1.67578 2.57813 2.09766 2.26562-2.09766-2.26563-1.67578"/><path fill="#00c4fc" fill-rule="evenodd" d="M389.36328 453.69922l-.875-4.4375 1.83985-4.4414 1.86718-4.4375.35156-.1836.57813.1836 1.53516 4.4375 2.32421 1.40234v3.17968l-4.4375.78907-2.28125 3.5078.98829 4.4375.11718 4.4375 1.17579 1.14063 4.4375.08594 4.4414 1.21875 4.4375-.23828 4.4375-1.77734.875-.4297 3.5625-4.07421 3.16016-.36328 1.28125-.08594 2.69531-4.35156-2.69531-2.26953-4.4414-1.16016-4.4375 2.17188-2.89845 1.2578-1.53906.52345-4.4375.28125-1.13672-.8047-3.30469-4.29687v-3.17968l2.32813 3.03906 2.11328 4.33594 4.4375-.9922 4.4375-1.28515 4.4375-1.92187 4.4414 1.32031 3.53907 2.98047-1.71484 4.4375-1.82422 2.07031-4.4414.6914-1.46485 1.67579-2.97266 1.45312-4.4375 1.35157-4.4375.15625-4.4414-.91797-4.4375.03125-2.13672-2.07422-.15625-4.4375-.89063-4.4375"/><path fill="#00b8fc" fill-rule="evenodd" d="M391.2539 458.13672l-.98827-4.4375 2.28125-3.50781 4.4375-.78907v1.50391l-4.4375.67188-1.37891 2.12109 1.08594 4.4375.07812 4.4375.21485.21094 4.4375.1953 4.4414 1.52735 4.4375-.32031 3.65235-1.61328.78515-2.03516 1.98828-2.40234 2.44922-.99219 4.4414-.45703 1.85157-2.98828-1.85156-1.5586-4.4414-1-4.4375 2.42579-.3047.1328-4.1328 1.40626-4.4375.21875-2.29298-1.625-2.14844-2.79297v-1.5039l3.3047 4.29687 1.13671.80469 4.4375-.28125 1.53906-.52344 2.89844-1.25781 4.4375-2.17188 4.4414 1.16016 2.69532 2.26953-2.69531 4.35156-1.28125.08594-3.16016.36328-3.5625 4.07422-.875.42969-4.4375 1.77734-4.4375.23828-4.4414-1.21875-4.4375-.08594-1.17579-1.14062-.11718-4.4375"/><path fill="#00a8fc" fill-rule="evenodd" d="M392.2539 458.13672l-1.08593-4.4375 1.3789-2.1211 4.4375-.67187v1.50781l-4.4375.55078-.47656.73438.47656 1.89453.7461 2.54297 3.6914 3.88281.6875.55469 3.75391 1.41797 4.4375-.39844 2.30469-1.01953 1.6289-4.4375-3.93359-2.14844-4.4375.15625-3.44922-2.44531-.99219-1.28516v-1.50781l2.14844 2.79297 2.29297 1.625 4.4375-.21875 4.13281-1.40625.3047-.13281 4.4375-2.42579v.8672l-3.05079 1.6914 3.05078 2.27344 4.4414-.64844 1.00391-1.625-1.0039-.84766-4.4414-.84375v-.86719l4.4414 1 1.85156 1.5586-1.85156 2.98828-4.4414.45703-2.44923.99219-1.98828 2.40234-.78515 2.03516-3.65235 1.61328-4.4375.32031-4.4414-1.52734-4.4375-.19531-.21485-.21094-.07812-4.4375"/><path fill="#009800" fill-rule="evenodd" d="M392.54688 455.59375l-.47657-1.89453.47656-.73438 4.4375-.55078v1.52735l-2.64062 4.1953 2.64063 2.77735 2.04296 1.66016 2.39844.90625 4.4375-.48438.95703-.42187 1.36328-4.4375-2.3203-1.26563-4.4375.09375-4.44142-3.02343v-1.52735l.9922 1.28516 3.44921 2.44531 4.4375-.15625 3.9336 2.14844-1.62891 4.4375-2.30469 1.01953-4.4375.39844-3.7539-1.41797-.6875-.55469-3.69141-3.88281-.7461-2.54297"/><path fill="#00ac00" fill-rule="evenodd" d="M396.98438 460.91406l-2.64063-2.77734 2.64063-4.19531v1.66796l-1.58985 2.52735 1.58985 1.67578 3.40234 2.76172 1.03906.39453 3.21485-.39453 1.22265-1.77344.70313-2.66406-.70313-.38281-4.4375.03125-4.4414-2.17579v-1.66796l4.4414 3.02343 4.4375-.09375 2.32031 1.26563-1.36328 4.4375-.95703.42187-4.4375.48438-2.39844-.90625-2.04296-1.66016"/><path fill="#00c800" fill-rule="evenodd" d="M396.98438 459.8125l-1.58985-1.67578 1.58985-2.52735 4.4414 2.17579 4.4375-.03125.70313.3828-.70313 2.66407-1.22265 1.77344-3.21485.39453-1.03906-.39453-3.40235-2.76172"/><path fill="#009800" fill-rule="evenodd" d="M414.73828 455.97266l-3.05078-2.27344 3.05078-1.6914v.87109l-1.48047.8203 1.48047 1.10157 4.4414-.83984.16016-.26172-.16015-.13672-4.4414-.6836v-.87109l4.4414.84375 1.0039.84766-1.0039 1.625-4.4414.64844"/><path fill="#00ac00" fill-rule="evenodd" d="M414.73828 454.80078l-1.48047-1.10156 1.48047-.82031 4.4414.68359.16016.13672-.16015.26172-4.4414.83984"/><path fill="#00e8fc" fill-rule="evenodd" d="M432.49219 456.72656l-1.47656-3.02734 1.47656-1.39844 4.4375-1.69922.83984-1.33984 2.85547-4.4414.7461-.80079 4.4375-1.26172v3.35156l-3.25391 3.15235 3.2539.88281.87891-.88281-.8789-3.15235v-3.35156l2.1914 2.0625.55078 4.4414-2.74219 2.76173-4.4375.51172-1.76562 1.16406-2.67578 1.42187-4.4375 1.60547"/><path fill="#00d4fc" fill-rule="evenodd" d="M445.8086 450.14453l-3.25391-.88281 3.2539-3.15235.87891 3.15235-.8789.88281"/><path fill="#50fcfc" fill-rule="evenodd" d="M445.8086 436.98438l-1.02344-1.03907 1.02343-.90234.95704.90234-.95704 1.03906"/><g clip-path="url(#c)"><path fill="#fff" fill-opacity="0" fill-rule="evenodd" d="M467.9961 480.32813H468V311.67188h-.0039H468v168.65625h-.0039"/></g><path fill="#fff" fill-opacity="0" fill-rule="evenodd" d="M317.75 430.08203l5.82813.41406.71093-9.93359-5.82812-.41797-.71094 9.9375"/><path fill-rule="evenodd" d="M321.82031 422.22266l.50781.03515-.44921 6.28125-.78516-.0586.32031-4.47655-1.38281-.09766.03906-.55469.5625-.02734.2539-.03516.23829-.07031.21094-.1289.1914-.19532.16016-.28515.13281-.38672"/><path fill="#fff" fill-opacity="0" fill-rule="evenodd" d="M334.76563 421.42578l5.67968 1.36328 2.32813-9.6836-5.67969-1.36718-2.32813 9.6875"/><path fill-rule="evenodd" d="M340.07031 414.33984l.49219.1172-1.46875 6.12108-.76563-.18359 1.05079-4.36719-1.35157-.32421.12891-.53907.5586.0664.2578.00782.2461-.03125.23047-.09375.21875-.16015.20703-.25391.19531-.35938"/><path fill="#fff" fill-opacity="0" fill-rule="evenodd" d="M416.11719 440.79297l3.58594 4.60937 7.85937-6.12109-3.58984-4.60547-7.85547 6.11719"/><path fill-rule="evenodd" d="M424.67969 438.5625l.3125.39844-4.96875 3.8711-.48047-.6211 3.53906-2.75781-.85156-1.09766.4375-.33985.39453.40235.19922.16406.21094.125.23828.07422.26953.00781.32031-.07031.3789-.15625"/><path fill="#fff" fill-opacity="0" fill-rule="evenodd" d="M386.875 469.07422l7.39063 2.85547 3.67578-9.50781-7.39063-2.85547-3.67578 9.5078"/><path fill-rule="evenodd" d="M392.20313 462.17188l3.0664 1.18359-.26953.6914-2.46094-.95312-.86719 1.60156.27344-.07031.30078-.02734.33204.03515.36718.10547.29297.14453.28516.19922.25781.25781.21484.3125.14844.3711.04688.20312.02343.21875-.0039.23047-.02735.24219-.05859.25781-.08984.26953-.19141.39844-.25.35547-.29688.29687-.34765.22657-.38672.15234-.20703.04688-.21875.01953h-.22656l-.23438-.03125-.23828-.0547-.25-.08202-.42188-.19922-.33593-.24219-.2539-.26953-.1797-.30078-.10937-.32031-.05469-.34375v-.35157l.04688-.36328.73437.28516-.00781.24219.01953.23437.05078.21094.07813.19531.11328.17578.14453.15235.17578.1289.20703.10156.30078.09375.28906.03125.27344-.01953.2539-.08203.23048-.14062.20703-.20313.1836-.26172.15234-.32421.07421-.25391.03907-.26563-.0039-.26953-.0586-.26172-.10547-.2539-.17188-.22656-.23046-.19532-.3047-.15625-.32812-.08984-.30078.0039-.32422.07422-.38672.14063-.64843-.25 1.66796-3.02735"/><g clip-path="url(#d)"><path fill="none" stroke="#000" stroke-linecap="round" stroke-linejoin="round" stroke-miterlimit="10" stroke-width=".5" d="M147.16016 478.79297l-6.32032 3.07422"/></g><g clip-path="url(#e)"><path fill="none" stroke="#000" stroke-linecap="round" stroke-linejoin="round" stroke-miterlimit="10" stroke-width=".5" d="M146.24219 479.23828l.98828.72266"/></g><g clip-path="url(#f)"><path fill="none" stroke="#000" stroke-linecap="round" stroke-linejoin="round" stroke-miterlimit="10" stroke-width=".5" d="M160.375 478.60547l-6.1211 3.44531"/></g><g clip-path="url(#g)"><path fill="none" stroke="#000" stroke-linecap="round" stroke-linejoin="round" stroke-miterlimit="10" stroke-width=".5" d="M159.48438 479.10547l1.03515.66406"/></g><g clip-path="url(#h)"><path fill="none" stroke="#000" stroke-linecap="round" stroke-linejoin="round" stroke-miterlimit="10" stroke-width=".5" d="M174.04688 479.51563l-6.83594 1.625"/></g><g clip-path="url(#i)"><path fill="none" stroke="#000" stroke-linecap="round" stroke-linejoin="round" stroke-miterlimit="10" stroke-width=".5" d="M173.05469 479.75l.8086.92188"/></g><g clip-path="url(#j)"><path fill="none" stroke="#000" stroke-linecap="round" stroke-linejoin="round" stroke-miterlimit="10" stroke-width=".5" d="M187.45313 480.16797l-7.01954.32422"/></g><g clip-path="url(#k)"><path fill="none" stroke="#000" stroke-linecap="round" stroke-linejoin="round" stroke-miterlimit="10" stroke-width=".5" d="M186.4336 480.21484l.625 1.0547"/></g><g clip-path="url(#l)"><path fill="none" stroke="#000" stroke-linecap="round" stroke-linejoin="round" stroke-miterlimit="10" stroke-width=".5" d="M200.76563 480.58594l-7.00782-.51563"/></g><g clip-path="url(#m)"><path fill="none" stroke="#000" stroke-linecap="round" stroke-linejoin="round" stroke-miterlimit="10" stroke-width=".5" d="M199.7461 480.51172l.49218 1.1211"/></g><g clip-path="url(#n)"><path fill="none" stroke="#000" stroke-linecap="round" stroke-linejoin="round" stroke-miterlimit="10" stroke-width=".5" d="M214.0625 479.89453l-6.97266.86719"/></g><g clip-path="url(#o)"><path fill="none" stroke="#000" stroke-linecap="round" stroke-linejoin="round" stroke-miterlimit="10" stroke-width=".5" d="M213.04688 480.02344l.70703 1.0039"/></g><g clip-path="url(#p)"><path fill="none" stroke="#000" stroke-linecap="round" stroke-linejoin="round" stroke-miterlimit="10" stroke-width=".5" d="M227.21875 479.20313l-6.65625 2.25"/></g><g clip-path="url(#q)"><path fill="none" stroke="#000" stroke-linecap="round" stroke-linejoin="round" stroke-miterlimit="10" stroke-width=".5" d="M226.25 479.53125l.89453.83984"/></g><g clip-path="url(#r)"><path fill="none" stroke="#000" stroke-linecap="round" stroke-linejoin="round" stroke-miterlimit="10" stroke-width=".5" d="M240.63281 479.54688l-6.85156 1.5625"/></g><g clip-path="url(#s)"><path fill="none" stroke="#000" stroke-linecap="round" stroke-linejoin="round" stroke-miterlimit="10" stroke-width=".5" d="M239.63281 479.77344l.80469.92969"/></g><g clip-path="url(#t)"><path fill="none" stroke="#000" stroke-linecap="round" stroke-linejoin="round" stroke-miterlimit="10" stroke-width=".5" d="M254.00781 479.90625l-6.97656.84375"/></g><g clip-path="url(#u)"><path fill="none" stroke="#000" stroke-linecap="round" stroke-linejoin="round" stroke-miterlimit="10" stroke-width=".5" d="M252.99219 480.02734l.70312 1.00782"/></g><g clip-path="url(#v)"><path fill="none" stroke="#000" stroke-linecap="round" stroke-linejoin="round" stroke-miterlimit="10" stroke-width=".5" d="M267.29297 480.94531l-6.91797-1.23437"/></g><g clip-path="url(#w)"><path fill="none" stroke="#000" stroke-linecap="round" stroke-linejoin="round" stroke-miterlimit="10" stroke-width=".5" d="M266.28906 480.76563l.375 1.16796"/></g><g clip-path="url(#x)"><path fill="none" stroke="#000" stroke-linecap="round" stroke-linejoin="round" stroke-miterlimit="10" stroke-width=".5" d="M280.64453 480.6836l-6.98828-.71094"/></g><g clip-path="url(#y)"><path fill="none" stroke="#000" stroke-linecap="round" stroke-linejoin="round" stroke-miterlimit="10" stroke-width=".5" d="M279.6289 480.58203l.46485 1.13281"/></g><g clip-path="url(#z)"><path fill="none" stroke="#000" stroke-linecap="round" stroke-linejoin="round" stroke-miterlimit="10" stroke-width=".5" d="M293.71484 481.66797l-6.49609-2.67578"/></g><g clip-path="url(#A)"><path fill="none" stroke="#000" stroke-linecap="round" stroke-linejoin="round" stroke-miterlimit="10" stroke-width=".5" d="M307.1875 481.17969l-6.8164-1.70313"/></g><g clip-path="url(#B)"><path fill="none" stroke="#000" stroke-linecap="round" stroke-linejoin="round" stroke-miterlimit="10" stroke-width=".5" d="M306.19922 480.9336l.29297 1.1914"/></g><g clip-path="url(#C)"><path fill="none" stroke="#000" stroke-linecap="round" stroke-linejoin="round" stroke-miterlimit="10" stroke-width=".5" d="M320.34375 478.98828l-6.4961 2.67969"/></g><g clip-path="url(#D)"><path fill="none" stroke="#000" stroke-linecap="round" stroke-linejoin="round" stroke-miterlimit="10" stroke-width=".5" d="M332.20313 477.3086l-3.58594 6.04296"/></g><path fill="none" stroke="#000" stroke-linecap="round" stroke-linejoin="round" stroke-miterlimit="10" stroke-width=".5" d="M331.6836 478.1875l1.22265.05469"/><g clip-path="url(#E)"><path fill="none" stroke="#000" stroke-linecap="round" stroke-linejoin="round" stroke-miterlimit="10" stroke-width=".5" d="M345.09766 477.09375l-2.7422 6.46875"/></g><path fill="none" stroke="#000" stroke-linecap="round" stroke-linejoin="round" stroke-miterlimit="10" stroke-width=".5" d="M344.69531 478.03516l1.22266-.10938"/><g clip-path="url(#F)"><path fill="none" stroke="#000" stroke-linecap="round" stroke-linejoin="round" stroke-miterlimit="10" stroke-width=".5" d="M358.02344 476.95703l-1.96485 6.7461"/></g><g clip-path="url(#G)"><path fill="none" stroke="#000" stroke-linecap="round" stroke-linejoin="round" stroke-miterlimit="10" stroke-width=".5" d="M371.2461 476.92969l-1.78126 6.79687"/></g><g clip-path="url(#H)"><path fill="none" stroke="#000" stroke-linecap="round" stroke-linejoin="round" stroke-miterlimit="10" stroke-width=".5" d="M380.15625 480.26953l7.02734.11719"/></g><g clip-path="url(#I)"><path fill="none" stroke="#000" stroke-linecap="round" stroke-linejoin="round" stroke-miterlimit="10" stroke-width=".5" d="M397.21875 476.82422l-.46484 7.01172"/></g><path fill="none" stroke="#000" stroke-linecap="round" stroke-linejoin="round" stroke-miterlimit="10" stroke-width=".5" d="M397.15234 477.84375l1.1172-.5039"/><g clip-path="url(#J)"><path fill="none" stroke="#000" stroke-linecap="round" stroke-linejoin="round" stroke-miterlimit="10" stroke-width=".5" d="M410.76563 483.8125l-.9297-6.96484"/></g><g clip-path="url(#K)"><path fill="none" stroke="#000" stroke-linecap="round" stroke-linejoin="round" stroke-miterlimit="10" stroke-width=".5" d="M426.29688 482.60156l-5.35938-4.54687"/></g><g clip-path="url(#L)"><path fill="none" stroke="#000" stroke-linecap="round" stroke-linejoin="round" stroke-miterlimit="10" stroke-width=".5" d="M440.23047 481.54297l-6.59766-2.42578"/></g><g clip-path="url(#M)"><path fill="none" stroke="#000" stroke-linecap="round" stroke-linejoin="round" stroke-miterlimit="10" stroke-width=".5" d="M439.26953 481.1875l.16797 1.21875"/></g><g clip-path="url(#N)"><path fill="none" stroke="#000" stroke-linecap="round" stroke-linejoin="round" stroke-miterlimit="10" stroke-width=".5" d="M453.42578 481.82422l-6.35937-2.99219"/></g><g clip-path="url(#O)"><path fill="none" stroke="#000" stroke-linecap="round" stroke-linejoin="round" stroke-miterlimit="10" stroke-width=".5" d="M466.41016 482.38672l-5.69532-4.11719"/></g><g clip-path="url(#P)"><path fill="none" stroke="#000" stroke-linecap="round" stroke-linejoin="round" stroke-miterlimit="10" stroke-width=".5" d="M147.34375 465.92969l-6.6875 2.16797"/></g><path fill="none" stroke="#000" stroke-linecap="round" stroke-linejoin="round" stroke-miterlimit="10" stroke-width=".5" d="M147.34375 465.92969l1.76172 1.70703m11.67969-1.17578l-6.94141 1.10547m6.9414-1.10547l1.47657 1.95703m11.88281-1.33985l-7.02734-.1289m7.02734.1289l1.10938 2.1875m12.17187-1.78515l-6.96094-.9336m6.96094.9336l.85547 2.30078m12.4375-2.14063l-6.91406-1.2539m6.91406 1.2539l.7461 2.33594m12.625-2.97265l-7.02735.01953m7.02734-.01953l1.15625 2.16015m12.15625-2.17578l-7.02343.05078m7.02343-.05078l1.16797 2.15625m12.10156-2.69922l-6.93359 1.13672m6.9336-1.13672l1.48828 1.94922m11.85547-1.7539l-6.98829.74609m6.98828-.7461l1.375 2.03125m11.95704-1.68359l-7.02735.05078m7.02735-.05078l1.16797 2.16016m12.08593-1.47266l-6.90234-1.32422m5.89844 1.13282l.35937 1.17187m13.76563-.32031l-6.51172-2.64453m5.5625 2.26172l.125 1.21875m14.10937-.76563l-6.45312-2.78516M306.0664 468l.10156 1.22266m14.41797-2.62891l-6.97657.83984m5.96094-.71875l.69922 1.00782m13.2461-2.35547l-6.20704 3.29297m5.30078-2.81641l1.01954.6875m12.71093-1.86719l-5.22656 4.69922m4.46484-4.01562l1.15235.42187m12.72656-1.30469l-4.83203 5.09766m4.1289-4.35547l1.1836.32422m12.625-1.25l-4.41406 5.46484m3.77343-4.67187l1.20313.23437m11.4375-1.6914l-1.78516 6.79297m1.52735-5.8047l1.19531-.28124m11.88281 6.17969l-.79297-6.98047m14.125 6.98047l-.82812-6.98047m.70703 5.96484l-1.00781.69922m16.73437-.9336l-5.41015-4.48046m4.625 3.82812l-.25 1.20313m14.95703-1.61719l-6.6211-2.34766m5.65625 2.00782l.1836 1.21484m13.02343.66016l-4.47265-5.41797m16.14844 6.17187l-1.19532-6.92578m1.01953 5.91797l-.96875.75"/><g clip-path="url(#Q)"><path fill="none" stroke="#000" stroke-linecap="round" stroke-linejoin="round" stroke-miterlimit="10" stroke-width=".5" d="M147.51172 453.82031l-7.02344-.2461"/></g><path fill="none" stroke="#000" stroke-linecap="round" stroke-linejoin="round" stroke-miterlimit="10" stroke-width=".5" d="M147.51172 453.82031l1.07422 2.20703m12.23828-2.16406l-7.01953-.32812m7.01953.32812l1.05078 2.21875m12.22266-1.82031l-6.9375-1.125m6.9375 1.125l.78906 2.32422m12.55078-2.49219l-6.98438-.78906m6.98438.78906l.90234 2.28125m12.3047-1.73828l-6.76954-1.875m6.76953 1.875l.53516 2.39453m12.83984-2.63281L207.13281 453m6.88672 1.39844l.69922 2.35156m12.67969-2.89063l-7.01953-.3203m7.01953.3203l1.05469 2.21485m12.21484-2.97266l-6.92578 1.1914m6.92578-1.1914l1.5039 1.9414m11.78907-2.05468l-6.88281 1.42188m6.8828-1.42188l1.56641 1.88672m11.82032-1.32031l-7.02344.28906m7.02344-.28906l1.23828 2.11328m12.07031-2.20703l-7.01172.47656m7.01172-.47656l1.29688 2.08203m12.02343-1.9375l-7.02344.1875m6.00391-.16016l.60547 1.0664m13.72266-.72265l-7.00782-.55469m5.98829.47266l.48828 1.1289m13.85156-1.52734l-7.01563.40625m5.9922-.34765l.63671 1.04687m13.23828-2.65234l-6.09375 3.5m5.20703-2.99219l1.03906.65234m12.78516-1.6953l-5.33594 4.5703m4.5586-3.90625l1.14453.44922m12.73047-1.34765l-4.90235 5.03906m4.1875-4.30469l1.1797.33985m12.5039-1.3672l-4.21094 5.625m3.59766-4.80859l1.21484.1875m8.625-1.08984l3.96875 5.79688m-3.39063-4.95313l.56641-1.08984m10.75781 4.04297l6.79297-1.79688m-5.80469 1.53516l-.83593-.89844m14.4375 3.0625l4.24219-5.60156m-3.625 4.78515l-1.21094-.1953m16.23437 1.71874l-.40625-7.01562m.34766 5.99609l-1.05078.63672m14.63281.36328l-.82422-6.97656m.70313 5.96094l-1.00782.69921m12.82032.125l2.42187-6.59375m-2.07031 5.63282l-1.21485.16796m14.72266.94532l1.33594-6.89844m-1.33594 6.89844l-2.34375.71875"/><g clip-path="url(#R)"><path fill="none" stroke="#000" stroke-linecap="round" stroke-linejoin="round" stroke-miterlimit="10" stroke-width=".5" d="M147.51172 440.52344l-7.02344-.27735"/></g><path fill="none" stroke="#000" stroke-linecap="round" stroke-linejoin="round" stroke-miterlimit="10" stroke-width=".5" d="M147.51172 440.52344l1.0664 2.21094m-2.08984-2.25391l.53516 1.10547m13.75781-.6289l-6.9336-1.14454m6.9336 1.14453l.78516 2.32422m-1.79297-2.49219l.39062 1.16406m13.73438-.27734l-6.53516-2.58594m6.53516 2.58594l.27344 2.4375m13.14843-2.7539l-6.75-1.95313m6.75 1.95312l.5039 2.40235m12.85938-2.58985l-6.84765-1.57812m6.84765 1.57812l.63672 2.3711m12.76563-3.3164l-7.01953.3164m7.01953-.3164l1.2461 2.10937m12.05858-1.66016l-7-.58594m7 .58594l.96875 2.2539m12.29297-1.86718l-6.89453-1.35938m5.89063 1.16407l.35547 1.17187m14.01953-1.92578l-7.00781.53906m7.0078-.53906l1.31641 2.07422m11.9297-2.55469l-6.8672 1.5m6.8672-1.5l1.58593 1.8711m11.75-1.75782l-6.91016 1.27735m5.90625-1.09375l.76172.96093m13.58985-.92187l-6.97657.82812m5.96485-.70703l.69921 1.00782m13.38282-2.06641l-6.48438 2.70703m5.53906-2.3125l.94922.77734m12.65625-2.19921l-5.17187 4.7578m4.41797-4.0664l1.15625.41016m12.4961-1.48438l-4.33985 5.52344m3.70703-4.71875l1.20703.21484m12.07813-1.42968l-3.01563 6.34765m2.57813-5.42578l1.22265-.05469m10.96094-1.20703l.1211 7.02735M368.25 437.5703l4.21094 5.625m7.92578-1.5664l6.57031-2.48829m6.66797.21485l6.72266 2.05469m-5.7422-1.75391l-.23437-1.20703m12.8086 3.54687l6.24219-3.22656m-6.2422 3.22656l-2.01952-1.39453m15.59375 1.8164l5.72656-4.0703m-5.72656 4.0703l-2.19532-1.09765m16.9375 2.26953l2.8672-6.41406m-2.8672 6.41406l-2.4453.16797m16.96093.13281l.46875-7.01171m-.40235 5.98828l-1.11718.5039m14.15234.4961l.89844-6.96875m-.89844 6.96875l-2.29687.86718"/><g clip-path="url(#S)"><path fill="none" stroke="#000" stroke-linecap="round" stroke-linejoin="round" stroke-miterlimit="10" stroke-width=".5" d="M147.51172 427.07813l-7.02344-.01954"/></g><path fill="none" stroke="#000" stroke-linecap="round" stroke-linejoin="round" stroke-miterlimit="10" stroke-width=".5" d="M147.51172 427.07813l1.14844 2.17187m-2.16797-2.17578l.57031 1.08594m13.7539-.8047l-7.0039-.57421m7.0039.57422l.96876 2.2539m12.32812-2.08593l-6.96875-.91016m6.96875.91016l.86328 2.30078m-1.875-2.4336l.42969 1.14844m13.91016-1.82422l-6.9922.70704m6.9922-.70704l1.36328 2.04297m11.9414-2.14453l-6.96875.91016m6.96875-.91016l1.42188 2m11.8789-1.01172l-6.9453-1.0625m5.9375.90625l.40624 1.15625m13.45703.27735l-6.02343-3.6211m5.14453 3.09375l-.0625 1.22657m13.86328-.16407l-5.23438-4.6914m4.47266 4.0078l-.29688 1.19142m14.80079-1.10157l-6.09375-3.5039m5.20703 2.99218l-.03906 1.22657m14.70703-2.38282l-7.02344-.16796m6 .14453l.55078 1.09765m13.78516-.98437l-7.01953-.34766m6 .29688l.51953 1.11328m13.78906-1.70313l-6.96484.9336m5.94921-.79688l.71485.9961m12.8125-2.94141l-5.35938 4.55078m4.57813-3.88672l1.14062.45313m12.10938-1.83985l-3.66797 5.9961m3.13281-5.125l1.22656.07422m10.60547-1.45704l.3711 7.01953m-.32032-5.99609l1.05079-.63281m12.28906-.39453l.21875 7.02734m14.15234-6.89844l-1.89453 6.76954m1.6211-5.78516l1.19921-.26172m7.9414 2.3789l7.00392.56641m-5.98438-.48437l-.48828-1.125m13.42187 3.36328l5.72657-4.07422m-4.89453 3.48047l-1.09766-.54688m14.00781-3.42968l4.8711 5.0664m-4.16016-4.32812l.38281-1.16797m12.08594 5.35547l5.14453-4.78516m-5.14453 4.78516l-2.32031-.80078m15.89062 1.05078l4.6289-5.28516m-4.6289 5.28516l-2.38672-.5586m3.0625-.21093l-2.39062-.5586m14.69922.9961l5.29297-4.6211m-5.29297 4.6211l-2.29297-.87891m3.0625.20703l-1.14844-.4375m15.8086 2.27344l1.0625-6.94922m-1.0625 6.94922l-2.31641.8086m15.75-.79298l.82812-6.98047m-.82812 6.98047l-2.28906.88672"/><g clip-path="url(#T)"><path fill="none" stroke="#000" stroke-linecap="round" stroke-linejoin="round" stroke-miterlimit="10" stroke-width=".5" d="M147.48828 413.33203l-6.97656.84375"/></g><path fill="none" stroke="#000" stroke-linecap="round" stroke-linejoin="round" stroke-miterlimit="10" stroke-width=".5" d="M147.48828 413.33203l1.40234 2.01172m11.9336-1.72656l-7.01953.27344m7.01953-.27344l1.23828 2.1211m12.07813-2.08985l-7.02344.20703m7.02344-.20703l1.21484 2.13281m12.09375-2.27734l-7.00781.5m5.98828-.42578l.65234 1.03906m13.32422-2.42578l-6.29297 3.125m5.3789-2.66797l.9961.71094m11.8125 3.45703l-3.44922-6.125m14.84375 6.5703l.39063-7.01562m-.33594 5.9961l-1.11328.51172m13.91797.45312l1.30078-6.90625m-1.10938 5.90235l-1.17187.36328m16.99219.04297l-4.08985-5.71485m4.08985 5.71485l-1.09375 2.19921m15.07422-2.8203l-5.42188-4.46876m4.63281 3.8164l-.2461 1.20313m14.95704-1.63281l-6.63672-2.30469m5.67188 1.96875l.1875 1.21094m14.09765-3.17188l-6.64453 2.28907m5.67578-1.95703l.89844.83593m12.30078-2.73047l-4.47656 5.41407m3.82422-4.6289l1.20312.25m13.15625-.66017l-5.25781 4.66407m4.49219-3.98438l1.14844.42578m6.80078 1.52735l7-.60157m8.89062-3.08984l1.85156 6.78125m-1.58203-5.79297l.89453-.84375m13.76563-.19922l-1.3789 6.89063m1.17577-5.89063l1.17579-.35156m10.92578-.64062l1.45312 6.875m-1.24219-5.875l.94141-.78907m10.0625 1.14063l5.65234 4.17187m-5.65234-4.17187l.35938-2.42969m.46484 3.03516l.17969-1.21485m12.09765.9375l6.08203 3.51563m-6.08203-3.51563l.08594-2.45312m.79688 2.96484l.08593-2.45312m.80078 2.96484l.04297-1.22656m11.78516-.21485l5.51562 4.35157m-5.51562-4.35157l.4375-2.41406m.36328 3.04688l.4375-2.41407m.36719 3.04688l.21875-1.20703m10.86328 1.17578L427 414.69531m-6.76953-1.88281l-.52734-2.39844m1.51171 2.67188l-.26171-1.19922m13.80078 4.625l4.35547-5.51563m-4.35547 5.51563l-2.41407-.4414m3.04688-.36329l-1.20703-.21875m15.35156 1.70313l1.4336-6.87891m-1.4336 6.8789l-2.35937.6875m16.07421-.625l.63282-7m-.54297 5.98047l-1.1289.47657"/><g clip-path="url(#U)"><path fill="none" stroke="#000" stroke-linecap="round" stroke-linejoin="round" stroke-miterlimit="10" stroke-width=".5" d="M147.39063 399.51953l-6.78125 1.83594"/></g><path fill="none" stroke="#000" stroke-linecap="round" stroke-linejoin="round" stroke-miterlimit="10" stroke-width=".5" d="M147.39063 399.51953l1.67968 1.79297m11.71485-1.4336L153.84766 401m6.9375-1.1211l1.48047 1.95313m11.6914-2.52734l-6.65234 2.26562m5.6836-1.9336l.89452.83985m13.14453-1.72265l-6.16406 3.37109m5.26563-2.88281l1.02734.67578m9.54688-2.94922l1.11328 6.9375m9.3828-2.4961l6.75392-1.9453m-5.77344 1.66406l-.85156-.88282m14.24609 2.83204l4.63281-5.28125m-4.63281 5.28125l-2.39063-.5625m15.1211-.09375l5.80078-3.96875m-4.95703 3.39453l-1.08594-.57032m16.64844 2.66797l-.3789-7.01562m.32421 5.9961l-1.05078.6328m14.07812.39063l.3047-7.01953m15.71874 5.91797l-5.11328-4.81641m4.3711 4.11328l-.32423 1.1836m15.22657-3.76563l-6.80469 1.75m5.8164-1.4961l.82813.90626M304.51172 397l-1.46094 6.875m1.25-5.875l1.17969-.33594m9.17187.25l4.88672 5.04688m-4.17578-4.3125l.375-1.16797m12.76172.01172l3.82422 5.89453m-3.26953-5.03906l.59765-1.07032m12.3672.08985l3.41405 6.14062m-3.41406-6.14062l1.33594-2.0586m10.70312 3.27735l5.96875 3.70703m-5.10156-3.16797l.08203-1.22656m15.10547-.96485l.48828 7.01172m-.41797-5.99219l1.03907-.64843m15.36718 1.17578l-5.83593 3.91406m5.83593-3.91406l2.16407 1.15625m-3.01563-.58594l2.16406 1.15625m-3.01171-.58594l1.08203.57813m13.89062-1.77735l-5.7539 4.03516m5.7539-4.03515l2.1875 1.11328m-3.02344-.52735l2.1875 1.11328m9.41797-3.17968l-.66406 6.99609m.66406-6.9961l2.26563-.9414m8.09765 2.09375l5.23829 4.6875m-4.47266-4.0039l.29297-1.19141m15.07422 6.35937l-.39454-7.01562m.39454 7.01562l-2.10157 1.27344m2.04297-2.29297l-1.05078.63672m15.50781.14844l-2.5625-6.54297m2.5625 6.54297l-1.59375 1.86328m15.97657-2.52344l-4.69532-5.22656m4.69532 5.22656l-.84375 2.30469"/><g clip-path="url(#V)"><path fill="none" stroke="#000" stroke-linecap="round" stroke-linejoin="round" stroke-miterlimit="10" stroke-width=".5" d="M147.28906 385.88672l-6.57812 2.47265"/></g><path fill="none" stroke="#000" stroke-linecap="round" stroke-linejoin="round" stroke-miterlimit="10" stroke-width=".5" d="M147.28906 385.88672l1.83985 1.6211m11.66797-.84376l-6.96485.91797m6.96484-.91797l1.42579 2m10.68359-4.21484l-4.55469 5.35156m3.89453-4.57422l1.19532.26172m8.78515-1.42969l3.4375 6.12891m-2.9375-5.23828l.66406-1.03125m10.4961 2.21875l6.7461 1.97265m-6.7461-1.97265l-.4961-2.40235m14.51954 1.09766l5.32812 4.58203M208.6875 385.5l.26953-1.19922m18.3711 2.09375l-6.875 1.45703m5.875-1.2461l.78906.94142m13.4961-1.28125l-6.81642 1.71484m6.81641-1.71485l1.64453 1.82032m11.35156.71484l-6.17578-3.35547m6.17578 3.35547l-.02343 2.45313m-.875-2.94141l-.01172 1.22656m14.54297-1.55078l-6.8125-1.72656m6.8125 1.72656l.58203 2.38281m12.8086-2.77734l-6.96485-.9414m5.95312.80468l.42578 1.14844m12.84375 1.0625l-4.84765-5.08985m4.14062 4.34766l-.38672 1.16406m14.7461-5.13671l-5.52735 4.33984m4.72657-3.70703l1.1211.4961m12.6289-1.52735l-4.79297 5.13672m4.79297-5.13672l2.3711.63281m-3.06642.11328l1.1836.32031m13.19922-.66015l-5.53907 4.32422m5.53907-4.32422l2.24218 1m11.8047.86719l-7 .58984m7-.58985l1.33202 2.0625m-2.35156-1.97656l1.33203 2.0625M345.19141 387l.66406 1.03125m14.69922-.80078l-7.02735-.21485m7.02735.21485l1.08203 2.19922m-2.10547-2.23047l1.08594 2.19922m12.92187-3.76172l-6.36719 2.97265m6.3672-2.97265l1.96093 1.47656m-2.88672-1.04297l1.96094 1.47656m-2.88672-1.04296l.98047.73828m13.54297-2.54688l-5.07813 4.85547m5.07813-4.85547l2.32812.76563m-3.0664-.0586l2.32812.76563m11.70313-1.4961l-5.03516 4.90235m5.03516-4.90235l2.33593.75m-3.0664-.03515l2.33593.75m-3.0703-.03906l1.16796.375m13.72266-1.6797l-5.25782 4.66017m5.25782-4.66016l2.30078.85547m-3.0664-.17969l2.30077.85938m-3.0664-.1797l1.15234.4297m14.57813.65625l-7.02344-.22266m7.02344.22265l1.08203 2.19922m10.15234.89844L435.5 383.91406m2.86328 6.41797l-1.51172 1.9336m1.09375-2.8672l-1.50781 1.9336m16.6875-2.1914l-5.75781-4.03516m5.75781 4.03515l-.30078 2.4336m-.53906-3.01953l-.29688 2.4336m14.77344-2.41017l-6.39844-2.91015m6.39844 2.91015l.15234 2.44922m-1.08594-2.875l.15235 2.44922m-1.08203-2.8711l.07812 1.22657"/><g clip-path="url(#W)"><path fill="none" stroke="#000" stroke-linecap="round" stroke-linejoin="round" stroke-miterlimit="10" stroke-width=".5" d="M146.65625 371.50781l-5.3125 4.59766"/></g><path fill="none" stroke="#000" stroke-linecap="round" stroke-linejoin="round" stroke-miterlimit="10" stroke-width=".5" d="M146.65625 371.50781l2.28906.88672m-3.0625-.21484l1.14453.4414m12.52735-1.51953l-4.48047 5.41406m4.48047-5.41406l2.40625.4961m10.10156-.9961l-2.86719 6.41406m2.86719-6.41406l2.44922-.16797m12.08594 1.07032l-5.3047 4.60937m5.3047-4.60937l2.28906.8789m-3.0625-.21094l2.29297.87891m12.13281-1.08984l-5.97656 3.69531m5.97656-3.69531l2.11719 1.23828M199.3789 372.5l2.12109 1.23438m12.5586-.38282l-6.96485.91406m6.96484-.91406l1.42578 1.9961m11.84766-2.2461l-6.88281 1.41406m6.88281-1.41406l1.5625 1.89063m-2.5625-1.6836l.78125.94532m13.375-1.69922l-6.5664 2.50781m6.5664-2.50781l1.84766 1.60937m-2.80469-1.2461l1.85156 1.61329m-2.80469-1.2461l.92579.8047m14.5.17577l-6.96875-.91406m6.96875.91406l.85937 2.29688m-1.8711-2.42969l.85938 2.29688m13.4961-2.73828l-7.02344.23437m7.02344-.23437l1.22265 2.1289m-2.2461-2.09375l.61329 1.0625m13.72656-1.01562l-7.02734.07031m7.02734-.07031l1.17188 2.15234m-2.19531-2.14453l1.17578 2.15625m13.09765-2.8086l-6.89453 1.35938m6.89453-1.35937l1.54688 1.90234m-2.55078-1.70313l.77343.94922m13.07422-2.33593l-5.95312 3.73437m5.95312-3.73437l2.125 1.22265m-2.99218-.67969l1.0625.61329m12.65234-1.7461l-5.01953 4.91406m5.01953-4.91406l2.33984.74219m-3.07031-.02734l2.33984.74218m12.33204-.58593l-6.26954 3.17187m6.26954-3.17187l2.0039 1.41406m-2.91797-.95313l2.00782 1.41407m12.58593-.57422l-7.0039.5664m7.0039-.5664l1.32422 2.07031m-2.33984-1.98438l.66015 1.03125m13.60938-1.55468l-6.8789 1.44531m6.8789-1.44531l1.57422 1.88281m-2.57422-1.67188l1.57031 1.88282m12.47266-2.89063l-6.33594 3.03906m6.33594-3.03906L375.5 373.7422m-2.89844-1.01172l1.97657 1.45312m-2.89844-1.01171l.98828.72656m13.65625-2.39453l-5.30469 4.60937m5.30469-4.60937l2.28906.8828m-3.0625-.21093l2.29297.8789m11.59766-1.7578l-4.91016 5.02343m4.91016-5.02344l2.35547.69141m-3.07032.03906l2.35547.69141m12.44531-.30078l-6.45312 2.78125m6.45312-2.78125l1.91407 1.53515m-2.85157-1.1289l1.91407 1.53125m-2.85547-1.1289l.96094.76562m14.51562-.39844l-7.01562.42578m7.01562-.42578l1.28125 2.09375m-2.30469-2.03125l1.28125 2.09375m-2.30078-2.03125l.64063 1.04688m14.67968-.41016l-6.9414-1.09375m6.9414 1.09375l.80079 2.32031m-1.8125-2.48047l.40234 1.16016m13.64844-.08594l-6.39063-2.92187m6.39063 2.92187l.14843 2.44922m-1.07812-2.875l.07422 1.22266m13.5664.11328l-5.18359-4.7461m5.1836 4.7461l-.61329 2.3789m-.14062-3.0664l-.30469 1.1875"/><g clip-path="url(#X)"><path fill="none" stroke="#000" stroke-linecap="round" stroke-linejoin="round" stroke-miterlimit="10" stroke-width=".5" d="M146.76563 358.32422l-5.53125 4.33594"/></g><path fill="none" stroke="#000" stroke-linecap="round" stroke-linejoin="round" stroke-miterlimit="10" stroke-width=".5" d="M146.76563 358.32422l2.24218.9961m-3.04687-.36329l2.24219.99219m12.32421-.8789l-6.42578 2.84374m6.42578-2.84375l1.9297 1.51563m-2.86329-1.10156L161.52344 361m12.3789-1.78906l-6.54297 2.5625m6.54297-2.5625l1.86328 1.59765m-2.8164-1.22265l1.86328 1.59375m11.96094-2.77344l-5.65625 4.17188m5.65625-4.17188l2.21094 1.0625m-3.03516-.45313l2.21484 1.0586m11.6836-1.95703l-5.17578 4.75m5.17578-4.75l2.3164.8164m-3.07031-.125l2.3164.81641m12.4297-.4336l-6.52735 2.60548m6.52734-2.60547l1.8711 1.58593m-2.82031-1.20703l1.87109 1.58594m12.52344-1.57422l-6.78907 1.82422m6.78907-1.82422l1.67187 1.79297m-2.66016-1.52734l1.67579 1.79296m12.41015-2.64453l-6.35547 2.9961m6.35547-2.9961l1.96485 1.46875m-2.89063-1.03515l1.96875 1.46875m12.39844-1.60547l-6.60547 2.40234m6.60547-2.40234l1.82031 1.64062m-2.78125-1.29296l1.82031 1.64453m-2.78125-1.29297l.91016.82031m14.45703-1.0586l-6.86719 1.47657m6.8672-1.47656l1.58202 1.8789m-2.58203-1.66406l1.58203 1.8789m12.78125-1.83202l-6.96484.95312m6.96484-.95313l1.4336 1.9922m-2.44922-1.85157l1.4375 1.98828m12.70703-2.8711l-6.58984 2.4375m6.58984-2.4375l1.83203 1.63282m-2.79297-1.27734l.91797.8164m12.6289-2.35156l-5.13671 4.79688m5.13672-4.79688l2.3203.79688m-3.0664-.09766l1.16016.39844m12.86328-1.13672l-5.0586 4.8789m5.0586-4.8789l2.33203.76172m-3.0664-.05079l2.33203.75782m11.96875-1.17578l-5.5625 4.29296m5.5625-4.29296l2.23828 1.0078m-3.04688-.3828l2.23438 1.0078m12.01172-1.46874l-5.8047 3.96484m5.8047-3.96484l2.17187 1.13672m11.71485.3164l-6.94922 1.0547m6.94922-1.0547l1.46484 1.96875m-2.47656-1.8125l1.46484 1.96875m12.76953-2.54296l-6.76562 1.89062m6.76562-1.89063l1.69531 1.77735m-2.67968-1.5l1.6953 1.77344m12.16407-3.02344l-5.88672 3.83594m5.88672-3.83594l2.14844 1.1875m-3.0039-.6289l2.14843 1.1875m-3.0039-.62891l1.07421.59375m13.54297-2.22657l-5.0664 4.8672m5.0664-4.8672l2.33203.76563m-3.07031-.0586l2.33203.76563m-3.0664-.05469l1.16406.38281m13.92969-1.4375l-5.67579 4.14454m5.67579-4.14454l2.20703 1.07032m-3.03516-.46875l2.20703 1.07031m11.98438-1.60156l-5.77735 4m5.77735-4l2.18359 1.125m-3.02344-.54297l2.17969 1.125m-3.01953-.54297l1.08984.5625m14.36719-.78906l-6.69922 2.1289m6.69922-2.1289l1.7539 1.71484m-2.73046-1.40625l1.7539 1.71485m12.69922-1.04297l-7.02343.16406m7.02343-.16406l1.20313 2.14062m-2.22266-2.11719l1.20313 2.14063m13.0625-1.375l-6.88282-1.41406m6.88282 1.41406l.6914 2.35547M466 360.99219l.34766 1.17969"/><g clip-path="url(#Y)"><path fill="none" stroke="#000" stroke-linecap="round" stroke-linejoin="round" stroke-miterlimit="10" stroke-width=".5" d="M146.97656 345.3086l-5.95312 3.73827"/></g><path fill="none" stroke="#000" stroke-linecap="round" stroke-linejoin="round" stroke-miterlimit="10" stroke-width=".5" d="M146.97656 345.3086l2.125 1.22265m-2.99219-.67969l2.12891 1.22266m11.88672-2.0039l-5.6211 4.21484m5.6211-4.21485l2.22266 1.04297m-3.03907-.42969l2.22266 1.04297m11.86719-1.71094l-5.53516 4.32813m5.53516-4.32813l2.24219.9961m-3.04688-.36719l2.24219.9961m10.57422-2.65625l-2.9297 6.38671m2.9297-6.38671l2.44922-.14454m8.72265-.10937l1.35547 6.89453m-1.35547-6.89453l1.90625-1.54688m-1.70703 2.55079l.94922-.77344m14.39062.0625l-3.09375 6.3086m3.09375-6.3086l2.45313-.07813m-2.90234.9961l1.22656-.03907m14.01953.48829l-6.05469 3.57421m6.05469-3.57421l2.08984 1.28125m11.4414-.83985l-6.48827 2.6914m6.48828-2.6914l1.89453 1.5586m11.59375-1.02735l-6.83594 1.6289m6.83594-1.6289l1.625 1.83985m-2.61719-1.60157l1.6211 1.83985m12.76562-1.59375l-6.9961.66015m6.9961-.66015l1.35156 2.05078m-2.36718-1.95313l.67578 1.02344m13.58594-1.5664l-6.85547 1.55077m6.85547-1.55078l1.60156 1.85938m-2.59766-1.63281l.80078.92968m12.78516-2.625l-5.40625 4.48829m5.40625-4.48829l2.27344.9336m-3.0586-.28125l1.13672.46875m11.92969-1.96875l-3.33594 6.1836m3.33594-6.1836l2.45312.01562m-2.9375.88281l1.22657.00782m12.625-.8789l-3.44141 6.1289m3.4414-6.1289l2.45313.05858m-2.95312.83594l1.22656.02735m13.63281-.02735l-5.53125 4.33985m5.53125-4.33985l2.24219.9961m-3.04688-.36329l1.1211.4961m13.63672.16406l-6.8047 1.7539m6.8047-1.7539l1.65625 1.8086m11.7578-1.22657l-7.0039.58985m7.0039-.58985l1.32813 2.0625m11.98438-2.08594l-7 .63672m7-.63671l1.34375 2.05078m-2.36328-1.95704l1.34375 2.05079m12.66406-3.33985L380.5 348.69141m6.34375-3.02735l1.97266 1.46094m-2.89844-1.01953l1.97266 1.46094m-2.89454-1.01954l.98829.73047m13.73828-2.30078l-5.47266 4.40625m5.47266-4.40625l2.2578.96485m-3.05468-.32422l2.25781.96484m-3.05468-.32422l1.1289.48047m13.53907-2.03515l-4.9922 4.94921m4.9922-4.94921l2.34375.72656m-3.07032-.0039l2.34375.72655m-3.07031-.0078l1.17188.36327m13.6914-1.70312l-5.17969 4.7461m5.1797-4.7461l2.3125.8164m-3.06641-.125l2.3125.81641m-3.06641-.125l1.15625.40625m14.23047-.96094l-6.3086 3.08985m6.3086-3.08985l1.98828 1.4375m-2.90625-.98828l1.98828 1.4375m12.45703-1.34765l-6.73437 2.01562m6.73437-2.01563l1.72266 1.7422m-2.70313-1.44923l1.72657 1.7422m12.6289-1.8086l-6.85156 1.5586"/><g clip-path="url(#Z)"><path fill="none" stroke="#000" stroke-linecap="round" stroke-linejoin="round" stroke-miterlimit="10" stroke-width=".5" d="M466.98828 346.39844l1.60156 1.85547"/></g><path fill="none" stroke="#000" stroke-linecap="round" stroke-linejoin="round" stroke-miterlimit="10" stroke-width=".5" d="M465.99219 346.625l1.60156 1.85547"/><g clip-path="url(#aa)"><path fill="none" stroke="#000" stroke-linecap="round" stroke-linejoin="round" stroke-miterlimit="10" stroke-width=".5" d="M147.05469 332.125l-6.10938 3.47266"/></g><path fill="none" stroke="#000" stroke-linecap="round" stroke-linejoin="round" stroke-miterlimit="10" stroke-width=".5" d="M147.05469 332.125l2.07031 1.3164m-2.96094-.80859l2.07422 1.3125m11.72266-2.39453l-5.28906 4.625m5.28906-4.625l2.29297.8711m-3.0625-.19922l2.29297.87109m10.90625-2.26953l-3.51954 6.07812m3.51953-6.07812l2.45313.08594m-2.96484.79687l1.22656.04297m13.03125-.63281l-4.38281 5.49219m4.3828-5.4922l2.41017.44923m-3.04688.34765l1.20313.22656m13.67968.11329l-6.2461 3.21875m6.2461-3.21875l2.01563 1.39453m10.21875-2.64453l-4.08203 5.71875m4.08203-5.71875l2.4336.3203m10.25-.67968l-2.82032 6.4375m2.41016-5.5l1.22265-.09375m14.60547 2.42969l-7.02734-.10938m7.02734.10938l1.11719 2.1836m12.15625-1.71094l-6.94531-1.0547m6.9453 1.0547l.81641 2.3164m12.53907-2.80469l-7.02344-.07812m7.02344.07812l1.1289 2.1797m-2.14843-2.19142l1.125 2.1797m13.14062-2.90626l-6.88672 1.39453m6.88672-1.39453l1.5586 1.89844m-2.5586-1.69531l1.5586 1.89453m12.67577-2.41406l-6.72656 2.03125m6.72656-2.03125l1.73047 1.74218m-2.70703-1.4453l.86328.87108m13.38282-1.3125l-6.63282 2.32032m6.63282-2.32031l1.80078 1.66406m-2.76563-1.32813l.90235.83594m12.6875-2.34766l-5.25391 4.67188m5.2539-4.67188l2.30079.85547m-3.0664-.17578l1.15233.42578m13.45313-.32031l-6.30469 3.10156m6.30469-3.10156l1.99219 1.4375m-2.91016-.98828l1.99219 1.4375m-2.90625-.98438l.99219.71875m14.49609-.4375l-6.98828.73047m6.98828-.73047l1.3711 2.03516m-2.38673-1.92578l.6875 1.01562m13.6211-.21484l-6.9414-1.08594m6.9414 1.08594l.80469 2.3164m12.4375-1.96093l-6.79297-1.79688m6.79297 1.79688l.55859 2.38672m11.88281-5.72656l-5.05078 4.8828m5.05078-4.8828l2.33594.7539m-3.07031-.04297l2.33594.7539m11.36328-1.78515l-4.34766 5.52344m4.34766-5.52344l2.41406.4336m-3.04688.37109l1.20704.21484m12.85937-.92187l-4.58594 5.32812m4.58594-5.32812l2.39453.53906m-3.0625.23828l2.39453.53906m12.09375-.77734l-5.59375 4.25m5.59375-4.25l2.22656 1.02735m-3.03906-.41016l1.11328.51562m13.52344-.1914l-6.61328 2.36719m6.61328-2.3672l1.8164 1.65235m-2.77734-1.3086l.90625.82813m13.44922-.92578l-6.77344 1.875m6.77344-1.875l1.6875 1.77735m-2.67187-1.50782l1.6875 1.78125m-2.67578-1.50781l.84765.89063m14.17188-2.1172l-6.23438 3.2422"/><g clip-path="url(#ab)"><path fill="none" stroke="#000" stroke-linecap="round" stroke-linejoin="round" stroke-miterlimit="10" stroke-width=".5" d="M466.67969 332.24219l2.01953 1.39062"/></g><g clip-path="url(#ac)"><path fill="none" stroke="#000" stroke-linecap="round" stroke-linejoin="round" stroke-miterlimit="10" stroke-width=".5" d="M465.77344 332.71484l2.01953 1.38672"/></g><path fill="none" stroke="#000" stroke-linecap="round" stroke-linejoin="round" stroke-miterlimit="10" stroke-width=".5" d="M464.86328 333.1836l1.01172.6953"/><g clip-path="url(#ad)"><path fill="none" stroke="#000" stroke-linecap="round" stroke-linejoin="round" stroke-miterlimit="10" stroke-width=".5" d="M147.3086 319.36719l-6.6172 2.36328"/></g><path fill="none" stroke="#000" stroke-linecap="round" stroke-linejoin="round" stroke-miterlimit="10" stroke-width=".5" d="M147.3086 319.36719l1.8125 1.65234m-2.77344-1.3086l1.8125 1.65235m-2.77735-1.3086l1.8125 1.65235m13.39844-2.42187l-6.5586 2.52734m6.5586-2.52734l1.85547 1.60546m-2.8086-1.23828l1.85157 1.60938m-2.80469-1.24219l1.85156 1.60938m13.36719-2.35547l-6.55078 2.54687m6.55078-2.54687l1.85547 1.60156m-2.8086-1.23047l1.85938 1.60156M172 320.01563l.92969.80078m14.42187-1.12891l-6.8125 1.71875m6.8125-1.71875L189 321.50781m-2.64063-1.57031l1.64844 1.82031m-2.63672-1.57031l.82032.91016m14.47656-1.41016l-6.8125 1.72266m6.8125-1.72266l1.64453 1.8164m-2.63672-1.5664l1.64844 1.8164m-2.64063-1.5664l1.64844 1.82031m13.55469-2.63672l-6.6211 2.35547m6.6211-2.35547l1.8086 1.65235m-2.77345-1.3125l1.8125 1.65625m-2.77343-1.3125l.90234.82812m14.46484-1.0625l-6.875 1.45313m6.875-1.45313l1.57422 1.88281m-2.57422-1.67187l.78516.9414m13.60156-.24609l-7.01953-.35547m7.01953.35547l1.03907 2.21875m-2.0586-2.27344l.51953 1.11329m13.75-.53516l-6.88672-1.40234m6.88672 1.40234l.69532 2.35156m-1.69922-2.55469l.69531 2.35157m13.6875-2.63672l-7.01563-.42969m7.01563.42969l1.01563 2.23437m-2.03907-2.29687l1.01953 2.23437m-2.03906-2.29687l.50781 1.11719m14.84766-.94532l-7.00781-.52343m7.00781.52343l.98438 2.2461m-2.00391-2.32031l.98437 2.24609m13.35938-2.48438l-7.02735.10157m7.02735-.10157l1.1836 2.14844m-2.20704-2.13281l1.1836 2.14844m13.125-2.57032l-6.96876.91407m6.96875-.91407l1.42188 2m-2.4375-1.86718l1.42578 2m12.55078-3.26954l-6.26172 3.1875m6.26172-3.1875l2.01172 1.40625m-2.92187-.9414l2.0078 1.40625m12.32032-1.65235l-6.46484 2.75391m6.46484-2.7539l1.90625 1.53906m-2.84766-1.14063l1.91016 1.54297m12.42578-1.73828l-6.625 2.34766m6.625-2.34766l1.8086 1.65625m-2.77344-1.3164l1.8086 1.65624m12.54296-1.76562l-6.76953 1.88672m6.76953-1.88672l1.6914 1.77734m11.63282-1.75l-6.78516 1.83203m6.78516-1.83203l1.67578 1.78906m11.02734-3.02343l-5.5625 4.29687m5.5625-4.29687l2.23438 1.01172m-3.04297-.38672l1.11719.50781m11.76953-2.14063l-3.08984 6.3125m3.08984-6.3125l2.45312-.08203m9.66797-.2578l-.69922 6.99218m.69922-6.99219l2.26953-.92969m12.47266 1.39454l-3.55469 6.0625m3.03516-5.1797l1.22656.05079m13.6914 4.13672l-5.72265-4.07813m19.03516 0l-5.71875 4.08203m5.71875-4.08203l2.19922 1.09375m-3.03125-.5l1.09765.54688m12.96875-1.2539l-5.55468 4.30468"/><g clip-path="url(#ae)"><path fill="none" stroke="#000" stroke-linecap="round" stroke-linejoin="round" stroke-miterlimit="10" stroke-width=".5" d="M466.33984 318.39453l2.23829 1.00781"/></g><g clip-path="url(#af)"><path fill="none" stroke="#000" stroke-linecap="round" stroke-linejoin="round" stroke-miterlimit="10" stroke-width=".5" d="M465.53125 319.02344l2.23828 1.00781"/></g><path fill="#ff3030" fill-rule="evenodd" d="M313.48047 436.57813h7.6914v-10.14454h-7.6914v10.14454"/><path fill="azure" fill-rule="evenodd" d="M315.3125 428.26563h.83594v5.74218h3.1914v.73828h-4.02734v-6.48046"/><path fill="#00f" fill-rule="evenodd" d="M419.3086 436.57813h8.61718v-10.14454h-8.61719v10.14454"/><path fill="azure" fill-rule="evenodd" d="M421.14063 428.26563h.83203v2.82421h3.28515v-2.82421h.83594v6.48046h-.83594v-2.91406h-3.28515v2.91406h-.83204v-6.48046"/><path fill="#ff3030" fill-rule="evenodd" d="M189.20703 427.70313h7.6914v-10.14454h-7.6914v10.14454"/><path fill="azure" fill-rule="evenodd" d="M191.03906 419.39063h.83594v5.73828h3.1914v.74218h-4.02734v-6.48046"/><path fill="#00f" fill-rule="evenodd" d="M219.58203 414.38672h8.61719v-10.14453h-8.61719v10.14453"/><path fill="azure" fill-rule="evenodd" d="M221.41406 406.07422h.83203v2.82422h3.28907v-2.82422h.83203v6.48047h-.83203v-2.91406h-3.28907v2.91406h-.83203v-6.48047"/><path fill="#00f" fill-rule="evenodd" d="M370.48438 401.07422h8.62109v-10.14844h-8.6211v10.14844"/><path fill="azure" fill-rule="evenodd" d="M372.3164 392.76172h.83594v2.82031h3.28516v-2.82031h.83203v6.47656h-.83203v-2.91406h-3.28516v2.91406h-.83593v-6.47656"/><path fill="#ff3030" fill-rule="evenodd" d="M424.4414 401.07422h7.69141v-10.14844h-7.6914v10.14844"/><path fill="azure" fill-rule="evenodd" d="M426.27344 392.76172h.83203V398.5h3.19531v.73828h-4.02734v-6.47656"/><path fill="#ff3030" fill-rule="evenodd" d="M340.10938 383.32031h7.6953v-10.14844h-7.6953v10.14844"/><path fill="azure" fill-rule="evenodd" d="M341.94531 375.00781h.83203v5.73828h3.19532v.7422h-4.02735v-6.48048"/><path fill="#ff3030" fill-rule="evenodd" d="M193.64453 361.1289h7.69531v-10.14843h-7.6953v10.14844"/><path fill="azure" fill-rule="evenodd" d="M195.47656 352.8164h.83594v5.73829h3.1914v.73828h-4.02734v-6.47656"/><path fill="#ffffe0" fill-rule="evenodd" d="M421.63281 453.25781h22.1836v-10.1914h-22.1836v10.1914"/><path fill-rule="evenodd" d="M425.13281 444.89844h.51172v6.29687h-.78906v-4.49219h-1.38672v-.55468l.5586-.0664.2539-.05079.22656-.08984.20313-.14454.17578-.20703.14062-.29687.10547-.39453m4.8164 0l.22657.01953.21875.05469.21094.08984.19531.1211.1836.14843.17187.17578.30078.42188.24219.49219.17969.54687.11328.57813.03906.59375-.03906.58984-.11328.58594-.1797.55468-.24218.5-.30078.4297-.17188.17968-.18359.15234-.19531.125-.21094.08985-.21875.05859-.22656.01953-.23047-.01953-.21875-.0586-.20703-.08984-.19922-.125-.1836-.15234-.17187-.17969-.30078-.42969-.24219-.5-.17969-.55468-.11328-.58594-.03906-.58985h.83594l.02734.5625.08203.50391.125.44531.16407.3711.1914.30078.21094.22265.22266.13672.22656.04688.22656-.04688.22266-.13671.20703-.22266.1914-.30078.16407-.3711.125-.4453.08203-.50392.02734-.5625-.02734-.5625-.08203-.5-.125-.4375-.16406-.36328-.19141-.29296-.20703-.21485-.22266-.13281-.22656-.04297-.22656.04297-.22266.13281-.21094.21485-.1914.29296-.16407.36329-.125.4375-.08203.5-.02734.5625h-.83594l.03906-.59375.11329-.57813.17968-.54688.24219-.49218.30078-.42188.17188-.17578.18359-.14844.19922-.12109.20703-.08984.21875-.0547.23047-.01952m5.08984 0h.50781v6.29687h-.78515v-4.49219h-1.39063v-.55468l.5625-.0664.25-.05079.23047-.08984.20313-.14454.17578-.20703.14062-.29687.10547-.39453m2.82422 2.17578h.78516l.01953-.3164.0586-.28516.10156-.25391.14062-.21484.17969-.17579.22265-.1289.26563-.07813.3086-.02734.23827.01953.22266.0625.20313.10156.17968.14063.14844.17187.11328.20704.07422.23437.02344.26563-.02344.26953-.0625.22265-.11328.1914-.15235.17188-.20312.16407-.2461.16406-.6328.39062-.53907.3125-.4375.31641-.34765.32422-.26172.33594-.19141.35156-.125.3711-.0664.39062-.02344.42187h4.21093v-.74219h-3.33203l.08594-.28515.11328-.23438.14844-.20312.1875-.17969.23047-.17187.27734-.17579.71875-.41796.41406-.20313.34375-.23047.28125-.2539.22266-.26563.16016-.27734.11328-.28516.0625-.28515.01953-.28125-.03906-.38282-.1211-.34765-.1914-.3086-.25-.26172-.30079-.21484-.34765-.15625-.3789-.09766-.40626-.03515-.4336.03125-.39843.10156-.35547.16406-.30469.23438-.25.30469-.18359.375-.11719.4453-.03906.51954"/><path fill="#ffffe0" fill-rule="evenodd" d="M343.22656 361.35938h22.17969v-10.19141h-22.17969v10.1914"/><path fill-rule="evenodd" d="M346.72656 353h.50781v6.29297h-.78515v-4.48828h-1.39063V354.25l.5586-.0664.2539-.05079.23047-.08984.20313-.14453.17187-.20703.14453-.29688.10547-.39453m4.8125 0l.23047.01953.21875.05469.20703.08984.19531.1211.1836.14843.17187.17579.3047.42187.24218.49219.17969.54687.10937.57813.03906.58984-.03906.59375-.10937.58594-.1797.55469-.24218.5-.30469.42968-.17187.1797-.1836.15233-.1953.125-.20704.08985-.21875.0586-.23047.01952-.23047-.01953-.21875-.0586-.20703-.08983-.19531-.125-.1836-.15235-.17187-.17969-.30469-.42968-.24218-.5-.1797-.5547-.10937-.58593-.03906-.59375h.83203l.03125.5664.07813.50391.1289.44141.16016.375.1914.30078.21094.22266.22266.13672.22656.04687.22656-.04687.22266-.13672.21094-.22266.1914-.30078.16016-.375.1289-.4414.08204-.50391.02734-.5664-.02734-.5586-.08203-.5-.1289-.4375-.16017-.36328-.1914-.29297-.21094-.21485-.22265-.1328-.22657-.04298-.22656.04297-.22266.13281-.21093.21485-.19141.29297-.16016.36328-.1289.4375-.07813.5-.03125.5586h-.83203l.03906-.58985.10938-.57813.17969-.54687.24218-.49219.3047-.42188.17187-.17578.18359-.14843.19531-.1211.20703-.08984.21875-.05469.23047-.01953m5.08985 0h.51171v6.29297h-.78906v-4.48828h-1.38672V354.25l.5586-.0664.2539-.05079.22657-.08984.20703-.14453.17187-.20703.14063-.29688.10547-.39453m2.82421 2.17578h.78907l.01953-.3164.0586-.28516.09765-.2539.14062-.21485.1836-.17578.22265-.1289.26563-.07813.30469-.02735.23828.01953.22656.0625.20313.10157.17968.14062.14844.17188.11328.20703.07031.23437.02735.26563-.02344.26953-.0664.22265-.10938.19141-.15625.17188-.19922.16406-.2461.16406-.63671.39063-.53516.3125-.4375.3164-.34765.32422-.26563.33594-.1875.35156-.125.3711-.07031.39062-.01953.41797h4.21093v-.73828h-3.33203l.08203-.28516.11329-.23437.14843-.20313.1875-.17969.23047-.17187.27735-.17578.71875-.41797.41406-.20313.34765-.23046.28125-.25391.21875-.26563.16407-.27734.10937-.28516.0664-.28515.01954-.28125-.04297-.38281-.1211-.34766-.1875-.3086-.25-.26171-.30468-.21485-.34375-.15625-.38281-.09765-.40625-.03516-.4336.03125-.39844.10156-.35546.16406-.3047.23438-.24608.30469-.1875.375-.1172.44531-.03906.51953"/><path fill="#ffffe0" fill-rule="evenodd" d="M186.40234 331.67969h22.1797v-10.1914h-22.1797v10.1914"/><path fill-rule="evenodd" d="M189.90234 323.32031h.50782v6.29297h-.78516V325.125h-1.39063v-.55469l.5586-.0664.2539-.05079.23047-.08984.20313-.14453.17187-.20703.14453-.29688.10547-.39453m4.8125 0l.23047.01953.21875.0547.20703.08983.19532.1211.18359.14844.17188.17578.30468.42187.24219.49219.17969.54688.10937.57812.03906.58984-.03906.59375-.10937.58594-.17969.55469-.24219.5-.30469.42969-.17187.17968-.1836.15235-.1953.125-.20704.08984-.21875.0586-.23047.01953-.23047-.01954-.21875-.05859-.20703-.08984-.1953-.125-.1875-.15235-.16798-.17968-.30469-.4297-.24218-.5-.17969-.55468-.10938-.58594-.03906-.59375h.83203l.02735.56641.08203.5039.1289.44141.16016.375.1914.30078.21095.22266.22265.13672.22656.04687.22657-.04687.22265-.13672.21094-.22266.1914-.30078.16016-.375.1289-.4414.07813-.50391.03125-.5664-.03125-.5586-.07812-.5-.1289-.4375-.16016-.36719-.19141-.28906-.21094-.21484-.22265-.13282-.22657-.04296-.22656.04296-.22266.13282-.21093.21484-.1914.28906-.16017.36719-.1289.4375-.08203.5-.02735.5586h-.83203l.03906-.58985.10938-.57813.17969-.54687.24219-.49219.30468-.42187.16797-.17578.1875-.14844.19531-.1211.20703-.08984.21875-.05469.23047-.01953m5.08985 0h.51172v6.29297h-.78907V325.125h-1.38672v-.55469l.5586-.0664.2539-.05079.22657-.08984.20312-.14453.17578-.20703.14063-.29688.10547-.39453m2.82422 2.17578h.78906l.01953-.3164.0586-.28516.09765-.2539.14063-.21485.17968-.17578.22656-.1289.26172-.07813.3086-.02735.23828.01954.22266.0625.20703.10156.17968.14062.14844.17188.11328.20703.07031.23438.02344.26562-.01953.26953-.0664.22266-.10938.1914-.15625.17188-.19922.16406-.25.16406-.63281.39063-.53516.3125-.4375.3164-.34765.32422-.26563.33594-.1875.35156-.125.3711-.07031.39062-.01953.41797h4.21094v-.73828h-3.33204l.08203-.28516.11329-.23437.14843-.20313.1875-.17968.23047-.17188.27735-.17578.71875-.41797.41406-.20312.34766-.23047.28125-.2539.21875-.26563.16406-.27735.10937-.28515.0664-.28516.01954-.28125-.04297-.38281-.1211-.34766-.1875-.3086-.25-.26171-.30468-.21485-.34375-.15625-.38281-.09765-.40625-.03516-.4336.03125-.39843.10156-.35547.16407-.30469.23437-.2461.30469-.1875.375-.11718.44531-.03906.51953"/></g></defs><use xlink:href="#ag"/></svg>