<svg xmlns="http://www.w3.org/2000/svg" role="img" xmlns:xlink="http://www.w3.org/1999/xlink" viewBox="142.45 309.95 326.84 171.84"><defs><clipPath id="a"><path d="M144 311.67188h1v168.65625h-1zm0 0"/></clipPath><clipPath id="b"><path d="M144 311.67188h324v168.65625H144zm0 0"/></clipPath><clipPath id="c"><path d="M467 311.67188h1v168.65625h-1zm0 0"/></clipPath><clipPath id="d"><path d="M144 478h4v2.32813h-4zm0 0"/></clipPath><clipPath id="e"><path d="M146 479h2v1.32813h-2zm0 0"/></clipPath><clipPath id="f"><path d="M153 479h9v1.32813h-9zm0 0"/></clipPath><clipPath id="g"><path d="M159 479h2v1.32813h-2zm0 0"/></clipPath><clipPath id="h"><path d="M166 479h9v1.32813h-9zm0 0"/></clipPath><clipPath id="i"><path d="M173 480h3v.32813h-3zm0 0"/></clipPath><clipPath id="j"><path d="M180 479h8v1.32813h-8zm0 0"/></clipPath><clipPath id="k"><path d="M187 480h2v.32813h-2zm0 0"/></clipPath><clipPath id="l"><path d="M193 479h9v1.32813h-9zm0 0"/></clipPath><clipPath id="m"><path d="M200 480h3v.32813h-3zm0 0"/></clipPath><clipPath id="n"><path d="M206 479h9v1.32813h-9zm0 0"/></clipPath><clipPath id="o"><path d="M213 479h3v1.32813h-3zm0 0"/></clipPath><clipPath id="p"><path d="M220 479h8v1.32813h-8zm0 0"/></clipPath><clipPath id="q"><path d="M227 479h3v1.32813h-3zm0 0"/></clipPath><clipPath id="r"><path d="M233 479h8v1.32813h-8zm0 0"/></clipPath><clipPath id="s"><path d="M240 479h3v1.32813h-3zm0 0"/></clipPath><clipPath id="t"><path d="M246 479h9v1.32813h-9zm0 0"/></clipPath><clipPath id="u"><path d="M253 480h3v.32813h-3zm0 0"/></clipPath><clipPath id="v"><path d="M260 479h8v1.32813h-8zm0 0"/></clipPath><clipPath id="w"><path d="M266 480h1v.32813h-1zm0 0"/></clipPath><clipPath id="x"><path d="M273 479h8v1.32813h-8zm0 0"/></clipPath><clipPath id="y"><path d="M279 480h2v.32813h-2zm0 0"/></clipPath><clipPath id="z"><path d="M286 479h9v1.32813h-9zm0 0"/></clipPath><clipPath id="A"><path d="M292 480h2v.32813h-2zm0 0"/></clipPath><clipPath id="B"><path d="M300 479h8v1.32813h-8zm0 0"/></clipPath><clipPath id="C"><path d="M305 479h3v1.32813h-3zm0 0"/></clipPath><clipPath id="D"><path d="M313 478h8v2.32813h-8zm0 0"/></clipPath><clipPath id="E"><path d="M327 477h7v3.32813h-7zm0 0"/></clipPath><clipPath id="F"><path d="M340 478h8v2.32813h-8zm0 0"/></clipPath><clipPath id="G"><path d="M353 479h8v1.32813h-8zm0 0"/></clipPath><clipPath id="H"><path d="M367 477h7v3.32813h-7zm0 0"/></clipPath><clipPath id="I"><path d="M379 479h9v1.32813h-9zm0 0"/></clipPath><clipPath id="J"><path d="M385 480h2v.32813h-2zm0 0"/></clipPath><clipPath id="K"><path d="M393 479h8v1.32813h-8zm0 0"/></clipPath><clipPath id="L"><path d="M408 476h4v4.32813h-4zm0 0"/></clipPath><clipPath id="M"><path d="M420 477h7v3.32813h-7zm0 0"/></clipPath><clipPath id="N"><path d="M434 477h6v3.32813h-6zm0 0"/></clipPath><clipPath id="O"><path d="M447 477h6v3.32813h-6zm0 0"/></clipPath><clipPath id="P"><path d="M460 477h7v3.32813h-7zm0 0"/></clipPath><clipPath id="Q"><path d="M144 466h4v2h-4zm0 0"/></clipPath><clipPath id="R"><path d="M144 453h4v2h-4zm0 0"/></clipPath><clipPath id="S"><path d="M144 439h4v2h-4zm0 0"/></clipPath><clipPath id="T"><path d="M144 426h4v2h-4zm0 0"/></clipPath><clipPath id="U"><path d="M144 412h4v3h-4zm0 0"/></clipPath><clipPath id="V"><path d="M144 399h4v3h-4zm0 0"/></clipPath><clipPath id="W"><path d="M144 384h3v6h-3zm0 0"/></clipPath><clipPath id="X"><path d="M144 372h4v4h-4zm0 0"/></clipPath><clipPath id="Y"><path d="M144 359h4v3h-4zm0 0"/></clipPath><clipPath id="Z"><path d="M144 345h4v5h-4zm0 0"/></clipPath><clipPath id="aa"><path d="M466 345h2v4h-2zm0 0"/></clipPath><clipPath id="ab"><path d="M144 331h4v6h-4zm0 0"/></clipPath><clipPath id="ac"><path d="M466 331h2v3h-2zm0 0"/></clipPath><clipPath id="ad"><path d="M144 318h4v5h-4zm0 0"/></clipPath><clipPath id="ae"><path d="M466 318h2v3h-2zm0 0"/></clipPath><g id="af" clip-path="url(#clip1)"><path fill="#fff" fill-opacity="0" fill-rule="evenodd" d="M0 0h1000v1000H0zm0 0"/><path fill="#d3d3d3" fill-opacity="0" fill-rule="evenodd" d="M162.15234 355.86719l-.23437.29297.0586.23437.11718.17188.17578.23437.29297.34766.11328.0586.11719-.17188.0586-.23438.17577-.17578.46485-.17578h.69922l.23437.29297.28906.8164.0586.17579.17578.23046.35156.23438.69922.69922.17188.17578.23437.34765.23438.41016.28906.58203.41015.46485.23047.23437.23438.17578.11719.23047.17578.29297.17187 1.16406v.23438l.0586.28906.05859.11719.11719.11719.34765.41015.11719.17188.17578.17578.17578.23437.11719.17188.17188.35156.05859.23438.23437.40625.23438-.0586-.17578.17578-.0586.92969h-.58203l-.23437-.11328-.34766.11328-.11719.11719-.05859.29297-.0586.17578-.11718.17187-.46484.29297-.0586.23438-.0586.11328v.64453l.0586.17187v.41016l.0586.0586v.40624l.05859.40625.11719.17579.05859.05859.23047.64062-.0586.29297v.69922l-.05859.58203v.23438l-.0586.23047-.05468.35156v1.92187l.05469.1172h.42578l-.36719.11718-.02344.35156.89063 1.16797 1.74219.53906 1.33984.35938v.53906l.08984.8086.53516.71484 1.51953.26953.89063-.08594.08984 1.16406.53516.1797 1.16015-.1797 2.05469-.98437 1.16016-.36328 1.8789-.17578 1.69531-.1797-.17968.71876-1.51563.08594-1.25.08984-.80469.26953-1.07421.8086.26953.71875.53515.89843-.17968.625-.26563.8086.26563 1.07812.625.89844.80468.17969 1.25-.1797-.26562.72267.09766.5039.05468.29297v.17188l.0586.29296v.40625l.17578.1172.35156.11718h.40625l.29297-.17578.11328-.11719.0586-.11719.11718-.23047.0586-.17578.35156-.46484.23047-.17578.17578-.0586.17578.0586.0586.17578.11718.98828.05469.46875.0586.17188.11718.23437.17578.0586.8164.05859h.28907l.11719.23437.05859.40625.0586.35156v1.10547l.11718.29297.11719.34766.28906.69922.17578.35156.58203.7539.35157.17579.17187.0586.46875.23437.64063.46484.34765.23438.29297.17578.29297.05468.23047.0625.8164.34766.29297.17578.11328.17188.35157.35156.11719.17578.52343.64063v.28906l.0586.35156v.34766l.05859.35156.0586.28906.11718.0586.17188.05859h.17578l.58203.23437.17578.1172.17578.28905.17578.23438.11328.23437.29297.23047.11719.11719v.41016l.0586.05468.28906.23438.23437.11719.0586.11718.11718.17188.0586.11719.23047.23437.05859.17578.23437.0586.1172.05859-.1172.11328-.05859.11719v.11719l-.11719.29296-.11719.28907v.58203l.17579.11719.11718.05859.0586.11719.11719.11719.11328.05859.17578.34765.0586.35157.05858.40625v.17578l-.05859.17578-.11719.69922v.17187l.1172.17579.29296.29296h.40625l.17578.1172.11719.17187.11719.29296v.23438h-.52735l-.23047-.23438h-.23437l-.17578.0586-.0586.69922.0586.34765.11719.17579.17578.41015.11718.23047.28907.46875.17578.05469h.52344l.23437.0586.75781.64062.0586.29296v.23438l.05859.0586.23047.34765v.35156l-.11719.17188v.29297l.29297.28906.29297.17578.17187.0586.29297.17577.29297.1172.58203.40624.28906.23438.29297.17578.21875.16015.01563.01172.23047.17579.64062.52343.17578.23438.1172.17578.17577.17578.11328.17188v.64062l.1172.17578.46874.11719.58203.11719.23438.05859.23047.11328.29297.11719.11328.0586.58593.35156.28907.17187.17578.0625.17578.05469.17578.0586.69922.35155.28906.17579.23438.05468.28906.17578.23437.1172.64063.40624.29297.11719.17187.0586.23438.05859.41015.05859.23047.0586.23438.11718.0586.17188-.41017.17578.46875.0586.0586.29296.11328.23438.17578.05468.23438.0586.17578.05859.40625.11719.64062.23437.11719.17188.0586.23437v.17578l-.0586.1172-.0586.40624.23438.23438.11719.05859.34766.11719.64062.23047.17578.11718.28906.1172.17578.17577.23438.46485.58203 1.10546.17578.17579.34766.17578.17578.11719.35156.11718 1.04688.52344.23437.0586.46485.11327.29297.0586.46484.17578.75781.58203.23438.23438.34765.46484.17578.17578.28907.23438.8164.69921.29297.17579.28906.28906.29297.17578.29297.28906.69531.64063.17578.17578.29297.23437.28907.23438.46875.28906.64062.58203.34766.23438.23437.29297.34766.34765.35156.46485.9336.99218.34765.40625.11719.17579.23437.05859.11328.11719.64454.17578.23047.11328.23437.0586.29297.17577.23047.1172.9336.69921.40624.40625.23438.17578.40625.17578.23437.11719.8164.34766.34766.23437.23438.11719.29297.28906.23047.11719.7578.35156.35157.17188.23047.05859.29297.11719.23437.0586.8711.17577h.8164l.46875.23047.17188.0586.875.69921.46484.1172.29297.05858.17578.0586.23047.0586.46875.05859.34766.05859.35156.0586.40625.05859h.29297l.17187.0586v.23046l.17578.17578h.29297l.34766.0586.35156.05859.69922.11719h.64063l.46484-.23438.29297-.17578.17187-.11719.41016-.17187.28906-.17578.9336-.46485.46875-.29297.52343-.29296.46485-.17188.46484-.17578 1.05078-.46485.28906-.11718.41016-.11719.28906-.11719.52735-.17578 1.51562-.69922.58203-.34765.28907-.0586.29297-.0586.34765-.11718.875-.23047.35156-.11719h.11329l.23437-.05859.875-.23437.23438-.0586h.8125l.35156-.0586.8164-.11718.17188-.0586.35156-.05468.29297-.0586.23047-.05859.8164-.17578.17579-.0586h.34765l.23438-.05859.46484-.11718.75781-.17188.23438-.0586h.34765l.41016-.11718.28906-.0586 1.28516-.05859h.28906l.41016-.0586.23047-.05858h.17578l.875-.1172h.40625l.41015-.11718h.34766l.35156-.11328.8711-.0586h1.75l1.04687.28907.41016.11719.28906.11718.35156.11719.28907.11719 1.05078.17187.28906.0586h.29297l.29297.05859.17187.0586.41016.05859.17187.0586.1172.05858h.11718l.11719.0586.35156.0586h.11328l.41016.0664 1.92187.39453 1.92578.39453 1.51953.44922 1.69532.71875 2.14453.80469 1.60547-.71875 1.42968-.80469 1.16016-1.07813 1.25-.44921 3.03516-.71875 1.875-.35938 2.14453-1.34765 2.23437-1.25391 2.5-1.25781 1.69531-.44922 1.78516-.17969 1.16016-.26953.625.53906 1.33984-.26953.71485-.98828.98437-1.34375.44531-.17969.80469-.35937 1.875-.53907 1.78516-.44921 1.25-.26954 1.16015-.08984 1.69922-.08984 1.96094-.26954 1.25-.08984h.53906l.625-.08984h.89063l2.14453-.17969 2.41015-.17969 2.58985-.08984 1.69531.17969 1.60938.08984 1.42968.35938 1.16016.71875 1.875.98828 1.16015 1.52734.26563.71484.6289.08985.35548.89844.53515.53906.53516 1.52734 1.07422.35938h.53515l-.80469.53515.08985 1.70703.71484 2.69532.89063.80468.89453.98829.71484 1.2578 1.78516.53907 1.51953-.17969.35547 1.34375 1.60937-.80469.98047-.53906.26953.26953.31641-.21484.21875-.14453.80078.44922.44922-.35938h.35547l.53515-.26953.53907-.71875.53515-.26953.625-.98828 1.16016.44922.83984.3711 1.39454.61718 1.6953-.17969h1.60548l1.78515.08985.17969-1.70704.53516-1.34375.80468.26954.4922.84765.40233.40625-.08984.53906v.35938l.71485.44922.71093-.26953h1.42969l.35938.98828.4453 1.25781.71485 1.34375 1.25.6289 1.69531.62891.71485-.17969.17969-.53906.98046-.08984.44922.35937.08594 1.25782-.26563.6289-.53515.17969v.53906l.71484.98438.26563.53906.98437.98828.80078 1.07813-.26562.35937-.08985.89844-.625 2.33203-.35546 2.0664-.08985 1.79298-.17969.71875-.08984.53906v1.4375l-.98047 1.88281-.35937 1.70703-.53516.89844-.80469 1.16797-.26562.53906 2.05469 1.2539.08593.35938-.35546.53906-.08985-.17968v.80859l.08985 1.4375-.44532.71484-1.07422.09375-.26562.71485.53515.89844.8047.71875 1.16015.80859 1.33984.26953.44531.35938-.35546.44921-1.78907-.08984-1.25-.44922-.71484-.71875-.625-.08984-.17578 3.58984-.1875 1.3086h89.35937V311.70313h-55.26953v49.08203l.76172.125 3.28906.54296 2.02344 2.83594v2.7539l2.35156.33204 2.34766.33203h4.05078l-1.3789 4.16016-2.02344.70703-2.02344.70312-.54297.34375-2.59375 1.6172-.1875.11718-2.02344-2.07813-.73046-2.74218-2.67188-2.07813-1.375-3.5-.0664-.08203-1.95704-2.67188 2.75-1.41796v-49.08204H294.42187v91.41407l.1172.03125.1328.01172.07422.07421.10547.04688.08985.0586.08593.05859.08985.0586.29687.29687.0586.08984.03125.11719.02734.11719.01563.13671-.03125.1172-.0586.08983-.0586.08594-.04296.10547-.04688.10156-.02734.1211v.14453l.17578.26953.14844.14844.07422.08594.07422.07421.04296.10547.0625.08985.0586.08593.04297.10547.0586.08985.04687.10156.04296.10547.0586.08594.11719.17968.07421.07422.0625.08594.0586.08984.04297.10547.0586.08985.05858.08593.0625.08985.0586.08984.04297.10156.11719.17969.07421.07422.0586.08594.07422.07421.08984.0586.10547.04687h.14844l.1328-.01562.13282.01562.10156-.04687.07422-.07422.04688-.10156-.01563-.13281v-.14844l-.04687-.10547-.02735-.11719-.04687-.10156-.02735-.1211-.04296-.10156-.0625-.08984-.04297-.10156-.04297-.10547-.03125-.11719-.01563-.13281-.01171-.13672.08593-.0586.0586-.08593.12109-.03125.04297.10547.01562.1328v.1172l.0586.10156.0586.08984.08983.0586.14844.14843.0586.08985.04296.10547-.01171.10156.08593.0586.10547.04687.08594.0586.08984.05858.07422.07422-.11719.02735-.10546.04687-.08594.0586-.07422.07421-.0586.08985-.0625.08594-.02734.12109-.04687.10156-.04297.10547-.03125.11719-.01172.13281-.01563.13281v.14844l.02735.11719.04687.10547.04297.10156.0586.08984.07421.07422.08985.0586.07422.07421.08984.0586.0586.08984.04296.10547.04688.10156.11719.03125.1328.01563h.14845l.11718-.03125.10547.04297.04297.10547.04688.10156.02734.1211L299.5 410l.02734.11719.03125.1211.02735.11718.10547.04297.10156.04687.13281-.01562.14844.14844.0625.08593.07422.07422.07031.07422.08984.0625.10547.04297.10156.04297.1172.03125.13671.01562.11719-.03125.07422-.07422.02734-.11718-.01172-.13282-.03125-.12109-.02734-.11719.04297-.10547h.11719l.08984.0625.11719.02735h.14843l.13282.01562h.14843l.13282.01563.1328-.01563h.14845l.1328-.01562.13282-.01172.13672.01172.11719-.02735.13281-.01562.1914-.0586-.05859.17579-.01562.1328-.02735.1211-.01562.13281-.0586.08594-.1328.01563-.10548.04687-.10546.04297-.1172.03125-.11718.02735-.26563.03125h-.14843l-.13281.01562-.07422.07422.05859.08594.14844.14843.11719.1797.07421.0703.08985.0625.08984.0586.08594.0586.08984.05858.10156.04297.10547.0625.10547.04297.08594.0586.10547.04687.10156.04297.17969.11719.0586.08984-.04298.10156-.04687.10547.01562.13281.22266.22266.0586.08985.04296.10156.03125.1211.04297.10155.01563.13282.03125.11718.01171.13672.03125.11719.14844.14844.10156.04297.10547.04296.1172.03125.1328.01563.13672.01563h.11719l.11719-.03125.08984-.0586.04297-.10547.04688-.10156.04296-.10547.03125-.11719.01172-.1328v-.14845l-.01172-.1328-.01562-.13282-.03125-.11719-.04297-.10547-.04688-.10547-.04296-.10156-.04297-.10547-.01563-.13281.01563-.13281.02734-.11719.03125-.11719.02735-.1211.04687-.10155.08984-.0586.08594-.0625.07422-.07422.08984-.05859.22266-.22266.0586-.08593.07421-.07422.11719-.17969.0586-.08594v-.14844l-.07423-.07421-.10156-.04688-.10547-.04297-.10156-.04297-.0586-.08984-.04687-.10547-.02734-.11719.08984-.05859.11719-.03125.10156-.04297.17969-.11719.14844-.14843.01172-.13282-.01172-.10546-.08985-.0586-.1328.01563h-.14845l-.1328.01562-.13282-.01562-.1211-.03125-.08593-.0586-.07422-.07422-.0586-.08984-.0625-.08594-.11718-.17969-.0586-.08593.03125-.1211.08594-.05859.1211-.03125.05859-.08594v-.1211l-.03125-.11718-.0586-.08984-.05859-.08594-.04687-.10547-.02735-.11719-.01562-.1328.0586-.08985.07421-.07422.08984-.0586.1172-.17968.07421-.07422.0586-.08594.14843-.14844.1211-.03125.1328-.01562.13282.01562.07422.07422.04297.10547.01562.13281-.03125.1172-.11719.03124-.1328.01172-.14844.14844-.04297.10547-.04688.10156-.02734.1211-.03125.11718v.14844l.03125.11719.04297.10546.05859.08985.07422.07031.07422.07422.11719.03125.12109.02734.11719-.02734.1328-.01563h.1172l.08984.0586.07422.07422.04687.10546.0586.08594.10156.04688.13281.01562.10547.04297.08594.0586-.01172.10546-.07422.07422-.17969.11719-.05859.08984-.08984.0586-.07032.07422-.07421.07421-.0625.08985-.02735.11719-.01562.1328.01562.13282-.01562.13281v.14844l.01562.13281.02735.1172.03125.12108.07421.07422.08985.0586.08594.0586.08984.05858.11719.03125v.08594l-.10157.04688-.08984.0586-.26563.03124-.11718.02735h-.14844l-.10547.04296-.10156.04688-.0586.08984-.0625.23438-.01171.13281-.03125.1211-.01563.1328v.29298l-.01172.1328.01172.13673.01563.1328.1328.01563.13282.01172.1211.03125.08593.0586.07422.07421.04688.10547.04296.10157.01563.1328v.44532l-.01563.13281v.44532l.03125.26562.02735.11719.01562.13281.03125.11719.08594.21094.03125.26562v.14844l-.03125.11719-.02734.11718-.03125.1211-.02735.11719-.03125.11718-.03125.1211-.01171.1328-.01563.13282.08984.0586.1172-.03125.10155.01562.04688.10547-.03125.26562v.44141l-.04297.10547-.04688.10547-.04296.10156-.04297.10547-.0586.08594-.03125.12109-.04296.11719-.03125.11719-.01563.1328.01563.13282.05859.08984.10547.04688.08594.0586.05859.08593-.01172.13672-.03125.11719-.04297.10156v.44531l-.01562.13281v.14844l-.03125.11719-.04297.10547-.02735.11719-.04687.10546-.04297.10157-.03125.12109-.02734.11719-.03125.13281-.03125.11719-.02735.11719-.04297.10546-.03125.1172-.03125.12108-.01171.13282-.01563.13281v.29688l.02734.11718v.14844l.04688.39844.02734.11719.0586.08984.12109.03125h.14844l.13281-.01563.0586.08985v.11719l-.0586.08984-.08984.0586-.10157.04296-.10546.04688-.08985.05859-.08594.0586-.13671.01562-.1172-.03125-.1328-.01563-.10157.04688-.0625.08594-.01172.13671-.01562.13282-.03125.11719-.02735.11718-.01562.13281-.03125.1211v.29687l.01563.13282.03125.11718v.14844l.01171.13281v.14844l-.02734.11719-.04688.10156-.02734.1211-.03125.11718-.0586.08985-.07421.07421-.10156.04297-.10547.04688-.11719.02734-.1211.03125-.10156-.04687.0586-.08594.10547-.04688.02734-.11718.03125-.11719.02734-.1211.03125-.11718v-.14844l.01563-.13281-.03125-.11719-.04297-.10547-.10547.01563-.07422.07422-.10156.04296-.08984.0625-.07422.07422-.04297.10157-.01563.1328-.03125.1172L304.25 426l-.03125.11719-.02734.11719-.03125.12109-.02735.11719-.03125.11718-.04297.10547-.08984.0586h-.08984l-.1172-.03125-.03124-.08594.01562-.13672-.03125-.11719v-.14844l-.01171-.1328v-.14844l-.0625-.23438-.02735-.1211-.04297-.10156-.04687-.10546-.0586-.08594-.05859-.08985-.04297-.10546-.0625-.08594-.14844-.14844-.0703-.07422-.10548-.04687-.10547-.04297-.10156-.04297-.29687-.29688-.08985-.07421-.08594-.0586-.10546-.04297-.08985-.0625-.08594-.0586-.10546-.04296-.08985-.0586-.08594-.0625-.07421-.0703-.10547-.04688-.08594-.0586-.10547-.04296-.08984-.0625-.10156-.04297-.10547-.04297-.08594-.0586-.10547-.04687-.10547-.04297-.10156-.04687-.08985-.0586-.10156-.04297-.10547-.04296-.08984-.0625-.11719-.02735-.13281-.01562-.13281.01562H299.75l-.13281.01563-.11719-.03125-.08984-.0586-.07422-.07422-.08985-.05859-.10156-.04688h-.14844l-.12109-.02734-.10156-.04297-.07422-.07422-.11719-.17968-.08984-.0586-.10156-.04297-.08985-.0625-.10547-.04296-.08984-.0586-.08594-.0586-.10547-.04687-.0586-.08594-.05858-.08984-.04297-.10547-.04688-.10156-.07422-.07422-.08594-.0586-.07421-.07421-.08985-.0586-.22265-.22265-.04297-.10547-.03125-.26563.10547-.04296h.14453l.10547.04296.07421.07422.08985.0586.08594.0586.10546.04687.08985.05859.14844.14844.0703.07422.14845.14843.0625.08594.07421.07422.08594.0586.07422.07421.08985.0625.08984.0586.08594.05859.26953.17578.10156.04688.10547.04296.10156.04297.04688-.07421.05859-.08594.07422-.07422.07031-.07422.10547.04297.07422.07422.0586.08984.04296.10156.04688.10547.04296.10547.1211.02735.11719-.02735.07421-.08984.04297-.10547.0586-.08985.07422-.07421.10546-.04297.1172-.02735.1328.01172.08985.0586.14844.14843.05859.08985.04297.10547.04687.10156.04297.10547.04297.10156.10547.04688.10547.04296.13281.01563.08594-.0586.0586-.08984.07421-.07422.10547-.04297.11719.02735.10547.04687.10156.04297.10547.04297.10156.04688.17969.11718v.11719l-.01563.13281.01563.13281.01562.13672.0586.08594.10156.04688.1211.02734.11718.03125h.14844l.11719-.03125.05859-.08984.17969-.1172.05859-.08983.07422-.07422.0586-.08594.11718-.17969.17969-.11719.11719.03125.08984.0586.04297.07422-.01563.1328v.1172l.08985.05859h.14843l.13282-.01563.1328-.01171.26563-.03125.10547-.04297.11719-.03125.1211-.02735.07421-.07421.07031-.07422.0625-.08985-.01562-.10547-.04688-.10156-.10156-.04297-.10547-.01562-.11718.02734-.26563.03125h-.14844l-.07421-.07422-.08985-.0586-.11719-.03124-.11718-.02735-.13282-.01562h-.14843l-.13282.01563h-.29687l-.10547-.04688-.14844-.14844-.04297-.10156-.05859-.08984.22266-.22266.08593-.0586.10547-.04296.11719-.03125.13281-.01563.13281.01563.13672.01562.10157.04297.1328-.01172.08985-.0625.10156-.04297.0625-.08984-.04687-.10156-.08984-.0586-.1172-.03125-.10155-.04296-.0586-.08985-.0625-.08984v-.11719l.01563-.13281.10547-.04688.07421-.07031v-.1211l-.08984-.05859-.03125-.11719.08985-.05859.07421-.07422.04297-.10547.0586-.08984.04687-.10156.01563-.13281v-.14844l-.04688-.10547-.04297-.10156-.08984-.0586-.13281-.01562-.10157-.04297-.13671-.01563-.1172-.03125h-.4453l-.13282-.01562-.13281-.01172-.13281-.01563-.11719-.03125h-.14844l-.13281-.01562-.13281-.01172-.26563-.03125-.1211-.04297-.08593-.0586-.07422-.07421v-.14844l.01172-.13281.10547-.04688.10156-.04296.13281-.01563h.15235l.13281-.01562h.29297l.1211.03125.10156.04296.08984.0586.23438.0625.12109-.04688.08984-.05859.10156-.04297.13282-.01562.10547.04296.10156.04688.13281.01172.1211-.02735h.14453l.12109-.03125.11719-.02734.10547-.04687.07421-.07422.08594-.0586.14844-.14843.0586-.08594.04687-.10547.02734-.11719.01563-.10547-.10156-.04296-.08985-.0586-.11719-.03125-.10546-.04297-.08985-.0625-.07422-.08594-.07422-.07421-.10156-.04297-.10547-.04688-.10156-.04297-.0586-.08984-.04687-.10156-.08594-.21094-.0625-.08594-.05859-.08984-.07422-.07422-.08594-.0586h-.26953l-.11719.03126-.08984.05859-.10156.04297-.13281.01562-.10547-.01562-.02735-.11719-.0625-.08984-.11718-.03125-.10157-.04297-.14843-.14844-.03125-.11719-.01563-.10546.07422-.07422.17969-.1172.11719-.02733.11718-.03125.13672.01562.10156.04297.10547.04297.10156.04687.10547.04297.1172.03125.1328.01563.1172.02734.1328.01563.10547-.01563.08985-.0586-.07422-.07421-.10547-.04297-.07422-.07422-.07422-.08984-.14844-.14844-.08593-.0586-.08985-.05859-.07422-.07422-.08984-.0586-.10156-.04687-.1211-.02734-.10156-.04688-.10547-.04296-.11719-.03125-.10156-.04297-.1211-.03125h-.14843l-.11719.03125-.10546.04297-.08594.0625-.17969.11718-.08594.0586-.08984.0586-.10547.04687-.08594.05859-.10547.04297-.10156.04297-.10547.04687-.07422.07422-.05859.08985-.0586.08593-.04687.10547-.0586.08594-.07421.07422-.13281-.01172-.1172-.03125h-.11718l-.07422.07422-.08984.0586-.07422.07421-.08984.0586-.08594.05859-.10547.04687-.10156.04297-.13672.01563-.10156-.04297-.14844-.14844-.10547-.04688h-.08594l-.10547.04688-.10156.04297-.1211.03125-.11718-.03125-.07422-.07422v-.11719l.03125-.1211.07422-.0703.0586-.08985.07421-.07422.11719-.03125.10547-.04296h.29297l.13281-.01563.13672-.01563.10156-.04296.08985-.0586.10156-.04687.08984-.0586.13281-.01171.08985.05859.13281.01172.08984-.0586.08594-.05859.10547-.04297.08984-.0586.08594-.0625.08985-.05859.14843-.14843.0586-.08594.05859-.08985.10547-.04296.13281-.01563.11719.02735.1211.03125.05859-.0586.05859-.08984.03125-.26563.02734-.11719.10547.01172.13281.01563.10157-.04297.08984-.0586.0586-.08984.07421-.07422.0586-.08984.04687-.10156.01172-.13281-.01172-.13282-.04687-.10547-.14844-.14843-.0586-.08985-.05859-.08594-.04297-.10546v-.44532l.01563-.1328v-.14845l.01172-.1328-.0586-.0586-.08984.0586-.10156-.04298-.17969-.11719-.08594-.05859-.0625-.08984-.0586-.08985-.07421-.07421-.08594-.0586-.1211.03125-.10155.01172-.10547.04688-.08594.05859-.10547.04297-.14844.14844-.08984.05859-.08594.0586-.08984.0625-.10547.04296-.13281.01563v-.1211l.10547-.04297.11718-.03125.07422-.0703.04297-.10548v-.14844l-.02734-.11718-.14844-.14844-.13281-.01563h-.14844l-.11719.03125-.10547.04297-.10156.04297-.08984.0625-.11719.02735-.07422-.07422.01172-.13281-.04297-.10157-.04297-.10547-.08984-.05859-.11719.02734-.1211.03125-.11718.03125-.10156.04297-.1211.03125-.10156.04297-.10547.04297-.08984.0586-.10156.01562v-.11719l.01562-.13281-.0586-.08985-.07421.04297-.14844.14844-.0586.08985-.07421.07421-.04688.10547-.04296.10156-.07422.07422-.0586.08985-.07422.07422-.05859.08593-.07422.07422-.08984.0625-.07422.07031-.07422.07422-.10156.01563-.13281.01562-.10547-.04296v-.1211l.14843-.14844.04297-.10156.0586-.08984.04687-.10156.04297-.10547.0586-.08985.03124-.11719.04297-.10156.03125-.1211.02735-.11718.04687-.10547.04297-.10156.04297-.10547.07422-.07031.08984-.0625.08985-.0586.10156-.04296h.29687l.26563-.03125.10547-.04297-.07422-.07422-.11719-.03125-.10547-.04297-.08984-.0586-.10156-.04687-.08985-.0586-.10156-.04296-.10547-.04297-.08984-.0625-.08594-.0586-.10547-.04296-.10156-.04297-.1211-.03125-.11718-.03125-.10157-.04297L297.5 410.25l-.10156-.04297-.08985-.0586-.04296-.10546-.01563-.13281.10156-.04297.13281-.01563.13672.01563.13282-.01563.10156-.04297.0586-.08984.01562-.10547-.08985-.0586-.07421-.07421-.10157-.04297-.08984-.0586-.14844-.14843-.04297-.10547-.01562-.13281v-.29297l-.0586-.08985-.08984-.05859-.07422-.07422-.04297-.10547-.03125-.11718-.0586-.08985-.07421-.07422-.11719-.02734-.07422-.07422-.08984-.0586-.08984-.0625-.08594-.05859-.07422-.07421-.0586-.08594-.04687-.10547-.08594-.0586-.14843-.14843-.19532-.0586-.1328.01563-.10157.04297-.07422.07422-.04688.10156-.04296.10547-.0586.08984-.0586.08594-.29687.29687-.08984.0586h-.08594l-.0625-.08594-.04297-.10547.03125-.11719.0586-.08984.02734-.11719-.01172-.13281-.08984-.0625-.10547.04688-.11719.02734-.11719.03125-.26953.17578-.10156.04688-.11719.02734-.10546.04687-.08985.0586-.10156.04297-.0586-.08594-.04687-.10547.01563-.13281.04687-.10547.07031-.07422.07422-.07031.0586-.08985v-.14843l-.04297-.10547h-.23829l-.10156.04687-.03125.11719-.02734.11719-.03125.1211-.07422.04296-.13281.01563-.07422-.04688-.04297-.10156-.04297-.10547-.04687-.10156-.04297-.10547-.1211.03125-.10156.04297-.13281.01562-.11719.03125-.10547.04297-.08984.0586-.10156.04687-.1211.02734-.13281.01563-.10156-.04297-.0586-.08985-.04687-.10546-.04297-.10157-.04297-.10546v-.1172l.0586-.08984.08593-.05859.17969-.11719.10156-.04687.10547-.04297.10547-.0586.10156-.04296.08985-.0625.10156-.04297.10547-.0586.10156-.04687.08984-.0586.10547-.04296.10156-.04297.08985-.0625.10156-.04297.13672-.01563.11719.03125.10156.04297.1211.03125.10156.04297.10546.04688.10157.04296.10547.04297.10156.04688.10547.04297.10156.04297.10547.04687.08594.0586.10546.04296.1172.03125.10546.04297.10156.04688.08985.0586.10547.04296.10156.04297.10547.04687.11719.02735.10156.04687.1211.02735h.14843l.08594-.0586.01562-.10156.0586-.08984-.02735-.1172-.07422-.07421-.11719-.17969-.07421-.07422-.08985-.07421-.17969-.1172-.08593-.05859-.10547-.04296-.10156-.04688-.26954-.17578-.05859-.08985-.07422-.07421-.0586-.08985-.04296-.10156-.03125-.11719-.01563-.13672v-.5625l-.01171-.1328-.01563-.13282-.03125-.11719-.01562-.13281-.01172-.13281-.03125-.1211-.22266-.22265-.0586-.08594-.01562-.10547.03125-.11719.13281-.01562v-91.41406H172.9922v1.45312l-.0586.23438-.35156 1.05078-.17187.52343-.1172.34766-.17577.41016-.11719.17187-.23438.29297-.23046.0586h-.35157l-.11718.05859-.23047.40625v.29297l.11719.17578.23046.23047.1172.23437.64062.75781.29297.46485.17578.23437.23047.35156.23437.34766.64063.8164.17578.46485.17187.41016.11719.69531.17578.46875.11719 1.39844.0586.46484v.875l.11718 1.04688v4.78125l-.0586.46484-.35156 1.28125-.17578.52344-.11328.41015-.35156.9297L172.93359 336l-.23437.58203-.11719.17578-.17187.34766-.17578.40625-.35157.8164-.0586.29297-.11327.29297-.11719.28906-.0586.17579-.11718.875-.0586.40625-.05859.11718-.0586.17579-.05859.17187-.23047.52734-.11718.17188v.23437l-.11719.23438-.0586.17187-.17577.58594v.28906l-.0586.17579v.29296l-.0586.11329-.05859.52734v.17187l-.05468.23438v2.6211l-.17578.8164-.1172.17578-.17577.23438-.1172.17187-.11327.23438-.58594.93359-.23047.28906-.29297.46485-.17578.23437-.28906.35156-.35156.69922-.11328.23047-.17579.41016-.17578.23046-.40625.52735-.8164.69922-.29297.17187-.28906.23438-.17579.11719-.17578.17578-.52344.40625-.52734.17578-.17187.17578-.23438.05469-.64062.17578h-.75782m12.21094 31.02344l-1.07422.44921.35938.89454 1.25-.71485.44531-.53906-.98047-.08985"/><path fill="#d3d3d3" fill-opacity="0" fill-rule="evenodd" d="M201.50781 416.59766h-.89453l.44922.6289.98047.35938.80469-.08985.4453-.98828-.17577.08985-.71485-.35547-.89453.35547m154.6211 59.0703l-.0586-.52343v-.29297l.11328-.29297.0586-.23046.46875-.46875h.11328l.11719-.11329.11718-.05859h.17579l.23437-.0586h.34766l.23437.0586.11719.0586.23047.17187.0586.17578.11718.58203v.29297l-.11719.17578-.17187.28906-.17579.17579-.52734.52343-.23047.23438-.11719.0586h-.17578l-.11718-.0586-.40625-.29297-.17579-.11719-.11718-.0586-.0586-.11327-.05468-.1172m6.64062-10.95702l-.0586-.17188v-1.10937l.0586-.17188.17578-.0586.17188-.05858h.17578l.23437-.0586.1172.0586.05858.69921-.05859.17188-.11719.17578-.11718.0586-.23438.52343-.11328.0586h-.23438l-.05859-.1172m9.61328-14.39062l-.11719-.17578v-.69922l.29297-.875.1172-.17187.17577-.35156.11328-.23047.1172-.29297.35155-.75781.1172-.23047.17187-.23438h.17578l.11719-.0586h.64062l.11719.0586.23437.23438.17188.11328.35156.29297.11719.11718.11328.17579v.11328l.11719.05859.11718.11719v.69922l-.05859.17578v.23047l-.0586.17578-.34765 1.05078-.11719.23047-.11719.23437-.11718.0586-.23047.23437-.64063.28906h-.875l-.41015-.11718-.64063-.46485"/><path fill="none" stroke="#bebebe" stroke-linecap="round" stroke-linejoin="round" stroke-miterlimit="10" stroke-width=".5" d="M467.95703 311.69531H144.02734v168.625h323.9297v-168.625"/><g clip-path="url(#a)"><path fill="#fff" fill-opacity="0" fill-rule="evenodd" d="M144 475.89063v4.4375h.0039H144V311.67188h.0039H144v164.21875"/></g><g clip-path="url(#b)"><path fill="#fff" fill-opacity="0" fill-rule="evenodd" d="M144.0039 480.32813V311.67188h17.75v131.9453l-.80077 1.20313-2.50391 4.4414-.64844 4.4375.6914 4.4375 3.26173 3.59376 4.4375-1.28125 4.4375-.69922 4.4375 1.39063 2.0664-3.00391-2.0664-2.41406-1.42578-2.02344-3.01172-3.90625-.35157-.53125-4.08593-3.77735-2.35938-.66406-2.07812-1.20312V311.67188h48.8203v89.94921l-3.79296 3.25391-.45313 4.4414-.1914.4336-4.22656 4.0039 1.26953 4.4375-.76172 4.4375 1.88672 4.44141 1.83203 1.76172 4.4375.65625 3.38672-2.41797 1.05469-1.52344.8203 1.52344 3.6172 2.8125 4.41015 1.625.02734.02735 4.4375 2.625 1.44532 1.78515 2.99219 3.22266 4.4414.55469.36719.66015 4.07031 3.42188 4.4375.00781 3.3164-3.42969.07813-4.4375-3.39453-3.79687-4.4375-.44531-4.4375.15625-2.36328-.35157-2.07813-2.73437-2.6914-1.70313-1.7461-2.02344-.6953-2.41796.6328-4.4375-.73437-4.4375-3.64063-3.4336-.89062-1.0039-3.54688-1.44532-4.4375-2.72265-.5-.27344-3.9414-3.2539v-89.94923h48.82422v108.61329l-2.52735 2.34375-1.91406.96484-3.54687 3.47656 1.39062 4.4375 2.15625 2.34375 1.82813 2.09375 2.61328 1.77735 2.0586-1.77735 1.5703-4.4375.40235-4.4375-1.1836-4.4414-2.84765-2.34375V311.67187h62.13672v103.1875l-4.4375.4961-4.44141.27734-4.4375-.01172-1.6875 2.57032-2.75 1.3203-4.4375-.58202-4.4414-.3164-4.34766-.42188-.08985-.03125-.05078.03125-4.38672 1.60156-2.72656 2.83594-1.71094.3828-4.4375-.30077-4.4414.42187-4.4375.84766-4.21094 3.08984.08984 4.4375 4.1211 3.21094 4.4375-.00781 4.4414.48828.9375.7461 3.5 3.6328 4.4375.0586 4.4375-.29688 3.10157-3.39453.80859-4.4375.52734-1.03125v12.35156l-2.57812 1.9922 2.57812 1.90234 2.89844-1.90235-2.89844-1.99219v-12.35156l4.44141.66797 2.83594.36328 1.60156 1.4961v13.65625l-2.63672 2.60156 2.63672 2.78125 2.4414-2.78125-2.4414-2.60156V433.0039l1.29688-1.4961 2.67578-4.4375.46484-1.54687v32.88672l-4.4375 1.78906-.96094 2.375.96094.66797 4.4375 1.61719 3.2539-2.28516-3.2539-4.16406v-32.88672l4.4375 1.46484 4.4414-1.96094 4.4375.7422 4.4375.14843 4.4375-1.0625 4.4375 1.66015 4.44141-.6328.4961 1.1875 3.9414 3.27343.77344 1.16406-.19531 4.4375 3.85937 3.9414.67188.4961-.67188 4.00781-.35547.4297.35547.3164.3164-.3164 4.1211-.88282 4.4414-.46875 4.4375-.08984 3.28126-2.9961 1.15625-1.30078 4.4375-2.375 3.25 3.67578-1.64063 4.4375-.61328 4.4414 1.14453 4.4375 2.29688 2.28126 1.78515 2.15625 2.65625 3.3164 1.20313 1.1211 3.23438 2.8789 4.4375.53516 2.43359 1.02735 2.0039.82421.95313-.82421 3.48438-.23829 4.4414.13672 4.4375.04297 4.4375-.21094 4.4375-.23046 4.4414-.01563 3.73829-3.92578.69922-.83594 4.4375-2.44922 4.4375 1.1211 2.42187-2.27344 2.01563-1.0586 4.4414-1.3828 2.26563-1.9961 2.17187-.55078 3.85938-3.88672-.03906-4.4414-3.82032-3.59376-4.4375.14453-3.21484 3.44922-1.22656 1.40625-3.01953 3.03516-1.41797 1.01562-3.6289 3.42188-.8086 3.01953-.53906-3.01953-.91016-4.4375-.91016-4.4414-2.07812-2.1836-1.38281-2.2539-3.0547-2.9297-3.0703 2.9297-1.26954 4.4375-.10156.04296-.60937-.04297-3.82813-1.51562-3.23437-2.92188-1.20313-1.11719-2.89453-3.3203-1.54297-1.45704-4.4414-2.28125-4.4375 1.34375-4.4375-.14453-2.94141-1.89844-1.4961-1.4961-4.4375-2.34374-4.4414.25781-.57422-.85547-3.86328-2.60547-1.9375-1.83593-2.5-2.57422-4.4375-.60156-3.67969 3.17578-.75781.67968-4.4414 1.37891-4.4375-1.83203-1.0625-.22656-3.375-3.53907-1.3711-.89843-3.0664-1.92188-4.44141.42188-2.2461 1.5-2.1914 1.30468-2.78516-1.30468-1.65234-1.28125-4.4375-2.05079v-103.1875h124.27343v123.3711l-1.02343.90234 1.02343 1.03906.96485-1.03906-.96485-.90234v-123.3711h22.1875v168.65625H144.00391"/></g><path fill="#50fcfc" fill-rule="evenodd" d="M158.49219 458.13672l-.6914-4.4375.64843-4.4375 2.5039-4.4414.80079-1.20313v3.75781l-1.27735 1.88672-1.07812 4.4375L161 458.13672l.7539.82812 2.25391-.82812 2.1836-1.35156 2.76172-3.08594-2.76172-4.1211-.33203-.3164-4.10547-1.88672v-3.75781l2.07812 1.20312 2.35938.66406 4.08593 3.77735.35157.53125 3.01172 3.90625 1.42578 2.02344 2.0664 2.41406-2.0664 3.0039-4.4375-1.39062-4.4375.69922-4.4375 1.28125-3.26172-3.59375"/><path fill="#00e8fc" fill-rule="evenodd" d="M161 458.13672l-1.60156-4.4375 1.07812-4.4375 1.27735-1.88672 4.10547 1.88672.33203.3164 2.76172 4.1211-2.76172 3.08594-2.1836 1.35156-2.2539.82812-.75391-.82812"/><path fill="#50fcfc" fill-rule="evenodd" d="M203.17969 418.1914l-1.26953-4.4375 4.22656-4.0039.1914-.4336.45313-4.4414 3.79297-3.2539v2.625l-.73438.6289-2.65625 4.4414-1.04687 2.375-2.17969 2.0625 2.17969 3.53907v1.7461l-1.99219 3.58984 1.99219 2.87109 1.9375-2.8711-1.9375-3.58984v-1.7461l3.61328-3.53905.82422-.25391v3.82031l-.89844.8711.08203 4.4375.8164 1.73828 2.3047-1.73828-1.98438-4.4375-.32031-.8711V413.5l.80078.2539 1.23047 4.4375 2.41016 3.19141 4.4375-.6836v6.10157l-.10938.26953.10938.08203.23828-.08203-.23828-.26953v-6.10156l1.92968-2.50781.92188-4.4375-2.85156-2.88672-1.60547-1.55078-2.83203-2.44922-3.67579-1.99219-.76562-.6289v-2.625l3.9414 3.2539.5.27344 4.4375 2.72265L223 409.31641l.89063 1.0039 3.64062 3.4336.73438 4.4375-.63282 4.4375.69531 2.41796 1.7461 2.02344 2.6914 1.70313 2.07813 2.73437 2.36328.35156 4.4375-.15625v1.75782l-4.4375 1.92578-4.4414.16797-.2422.39062.2422.26172 4.4414.2539 2.1836 3.92188 2.2539 1.89453 4.4375-.28125 1.5625-1.61328-.20703-4.4375-1.35547-1.51562-4.4375-.96875v-1.75781l4.4375.4453 3.39453 3.79688-.07812 4.4375-3.3164 3.42969-4.4375-.00781-4.07032-3.42188-.36719-.66015-4.4414-.5547-2.9922-3.22265-1.4453-1.78515-4.4375-2.625-.02735-.02735-4.41016-1.625-3.61718-2.8125-.82031-1.52344-1.0547 1.52344-3.38671 2.41797-4.4375-.65625-1.83203-1.76172-1.88672-4.4414.76172-4.4375"/><path fill="#00e8fc" fill-rule="evenodd" d="M206.13672 417.29297l-2.17969-3.53906 2.17969-2.0625 1.04687-2.375 2.65625-4.44141.73438-.6289v2.32812l-1.96875 2.74219 1.96875 2.42578 4.01172-2.42578-4.01172-2.7422v-2.32812l.76562.62891 3.67578 1.99219 2.83204 2.44922 1.60547 1.55078 2.85156 2.88672-.92188 4.4375-1.92969 2.5078-4.4375.6836-2.41015-3.1914-1.23047-4.4375-.80078-.25391-.82422.2539-3.61328 3.53907m0 8.20703l-1.99219-2.8711 1.99219-3.58984 1.9375 3.58985-1.9375 2.87109"/><path fill="#00d4fc" fill-rule="evenodd" d="M210.57422 411.74219l-1.96875-2.42578 1.96875-2.7422v1.98048l-.54688.76172.54688.67187 1.11328-.67187-1.11328-.76172v-1.98047l4.01172 2.74219-4.01172 2.42578"/><path fill="#fff" fill-opacity="0" fill-rule="evenodd" d="M210.57422 417.32031l-.89844.8711.08203 4.4375.8164 1.73828 2.3047-1.73828-1.98438-4.4375-.32031-.8711"/><path fill="#00c4fc" fill-rule="evenodd" d="M210.57422 409.98828l-.54688-.67187.54688-.76172 1.11328.76172-1.11328.67187"/><path fill="#00e8fc" fill-rule="evenodd" d="M219.45313 427.15234l-.10938-.08203.10938-.26953.23828.26953-.23828.08203m13.3125 9.0547l-.2422-.26173.2422-.39062 4.4414-.16797 4.4375-1.92578 4.4375.96875 1.35547 1.51562.20703 4.4375-1.5625 1.61328-4.4375.28125-2.2539-1.89453-2.1836-3.92187-4.4414-.2539"/><path fill="#50fcfc" fill-rule="evenodd" d="M252.80078 431.50781l-1.39062-4.4375 3.54687-3.47656v2.05078l-1.45312 1.42578 1.45312 2.27344 2.8086-2.27344-2.8086-1.42578v-2.05078l1.91406-.96484 2.52735-2.34375 2.84765 2.34375 1.1836 4.4414-.40235 4.4375-1.5703 4.4375-2.0586 1.77735-2.61328-1.77735-1.82813-2.09375-2.15625-2.34375"/><path fill="#00e8fc" fill-rule="evenodd" d="M254.95703 429.34375l-1.45312-2.27344 1.45312-1.42578 2.8086 1.42578-2.8086 2.27344"/><path fill="#50fcfc" fill-rule="evenodd" d="M264.15234 431.50781l-.08984-4.4375 4.21094-3.08984 4.4375-.84766 4.4414-.42187 4.4375.30078 1.71094-.38281 2.72656-2.83594 4.38672-1.60156.05078-.03125.08985.03125 4.34765.42187 4.44141.3164v1.5547l-4.4414.21093-4.4375-.11719-3.13673 2.05079-1.30078 1.71875-4.4375-.38672-4.4375-.39063-4.4414.53906-4.4375 2.65235-.42188.3086-.69531 4.4375 1.11719.87109 4.4375.28515 4.4414 1.26172 2.53907 2.01953 1.89843 1.96875 4.4375.25 4.4375-1.6875.48438-.53125 2.41406-4.4375 1.53906-3.0039 4.44141 1.75 4.4375.42578 3.0586-3.60938 1.0078-4.4414-4.0664-.96875-4.4375-1.17579v-1.55468l4.4375.58203 2.75-1.32031 1.6875-2.57032 4.4375.01172v3.01563l-4.35547 3.98047 4.35547 3.01562 3.78906-3.01562-3.78906-3.98047v-3.01563l4.4414-.27734 4.4375-.4961v2.13282l-3.46874 1.19922 2.97656 4.4375.49219.14453 4.4375.72656 2.0703-.8711-2.0703-1.30859-2.67579-3.1289-1.76171-1.19922v-2.13281l4.4375 2.05078 1.65234 1.28125 2.78516 1.30468 2.1914-1.30468 2.2461-1.5v3.2578l-3.26172 2.6797 3.26172 2.0703 3.16796-2.0703-3.16796-2.6797v-3.2578l4.4414-.42188 3.0664 1.92188 1.3711.89843 3.375 3.53907 1.0625.22656 4.4375 1.83203 4.4414-1.3789.75782-.6797 3.67969-3.17577v3.23046l-4.4375 4.04297-.59766.34375-3.84375.8164-.84765-.8164-3.58985-3.08594-4.4375.41016-1.42187 2.67578 1.42187 1.17969 2.16797 3.25781-.5586 4.4375 2.82813 2.88672 2.09766 1.55078 2.33984 2.21094 4.4414-1.16016 4.4375-.23828.88673-.8125 3.55078-3.99219.6875-.4453 2.88281-4.4375.70703-4.4375-4.27734-4.22657-4.4375-.16016v-3.23046l4.4375.60156 2.5 2.57422 1.9375 1.83593 3.86328 2.60547.57422.85547 4.4414-.25781v4.3086l-3.7539 3.96874 1.10547 4.4375-1.79297 4.10547-.17969.33203-1.61719 4.4414 1.79688 3.46485.41015.97266 4.03125 4.39844.19532.03906 4.24219 3.67187 3.76953-3.67187.66796-.35938.0586.35938.20703 4.4375 4.17188 3.96484 4.4375-.25 4.4414.3711 4.4375-.0547 4.4375-.46093 4.4375-.74219 4.4414-.375 2.33594-2.45312 2.10157-2.51953 2.57422-1.91797-.10547-4.4375-2.46875-3.92188-3.46485-.51562 1.4336-4.4414-2.01953-4.4375-.38672-.3711-.39063.3711-1.21875 4.4375-2.83203 1.10156-4.4375 1.82421-2.26172-2.92578-2.17578-2.08594-3.13281-2.35156-1.30469-1.42187-2.8164-3.01563-1.625-1.11328-2.80079 1.11328-1.63671.27735-4.4375-.01172-.13672-.26563-4.30079-3.78906-4.4375-.17969v-4.3086l4.4375 2.34376 1.4961 1.4961 2.9414 1.89843 4.4375.14453 4.4375-1.34375 4.44141 2.28125 1.54297 1.45703 2.89453 3.32031 1.20313 1.1172 3.23437 2.92187 3.82813 1.51562.60937.04297.10156-.04297 1.26954-4.4375 3.0703-2.92969 3.0547 2.9297 1.3828 2.2539 2.07813 2.1836.91016 4.4414.91015 4.4375.53907 3.01953.8086-3.01953 3.6289-3.42188 1.41797-1.01562 3.01953-3.03516 1.22656-1.40625 3.21484-3.44922 4.4375-.14453v1.53125l-4.4375 1.25-.76171.8125-3.6797 4.22266-.21484.21875-4.22265 3.02734L431 453.69922l1.49219 3.0586 4.4375-1.53126 2.78515-1.52734 1.65625-1.15625 4.4375-.51953 2.7422-2.76172-.55079-4.4414-2.1914-2.0625v-1.53126l3.8203 3.59375.03907 4.4414-3.85938 3.88673-2.17187.55078-2.26563 1.9961-4.4414 1.3828-2.01563 1.0586-2.42187 2.27344-4.4375-1.1211-4.4375 2.44922-.69922.83594-3.73828 3.92578-4.4414.01563-4.4375.23046-4.4375.21094-4.4375-.04297-4.44142-.13672-3.48437.23829-.95313.82421-2.0039-.82421-2.4336-1.02735-4.4375-.53515-3.23437-2.87891-1.20313-1.1211-2.65625-3.3164-1.78515-2.15625-2.29688-2.28125-1.14453-4.4375.61328-4.4414 1.64063-4.4375-3.25-3.67579-4.4375 2.375-1.15625 1.30078-3.28125 2.9961-4.4375.08984-4.4414.46875-4.1211.88281-.3164.3164-.35548-.3164.35547-.42969.67188-4.0078-.67188-.4961-3.85937-3.9414.19531-4.4375-.77344-1.16407-3.9414-3.27344-.4961-1.1875-4.4414.63281-4.4375-1.66015-4.4375 1.0625-4.4375-.14844-4.4375-.74219-4.44141 1.96094-4.4375-1.46484-.46484 1.54687-2.67579 4.4375-1.29687 1.4961-1.60156-1.4961-2.83594-.36328-4.4414-.66797-.52735 1.03125-.8086 4.4375-3.10156 3.39453-4.4375.29688-4.4375-.0586-3.5-3.6328-.9375-.7461-4.4414-.48828-4.4375.00781-4.1211-3.21094"/><path fill="#00e8fc" fill-rule="evenodd" d="M268.27344 432.3789l-1.11719-.87109.69531-4.4375.42188-.3086 4.4375-2.65233 4.4414-.53907v1.4375l-4.4414.73438-2.0664 1.32812 2.0664 2.44922 3.66406 1.98828.77734.29688 4.4375 3.57031 4.4375.30078 4.4375-2.1875 1.21094-1.98047-1.21094-1.90234-4.4375-1.15625-1.80078-1.3789-2.63672-1.53126-4.4375-.53125v-1.4375l4.4375.39063 4.4375.38672 1.30079-1.71875 3.13671-2.05079 4.4375.1172 4.44141-.21094v2.73437l-2.97266 3.85156 2.97266 1.69531 4.4375.1211 1.54297-1.8164-1.54297-2.58594-4.4375-1.26563v-2.73438l4.4375 1.17579 4.0664.96875-1.0078 4.4414-3.0586 3.60938-4.4375-.42578-4.4414-1.75-1.53907 3.0039-2.41406 4.4375-.48438.53125-4.4375 1.6875-4.4375-.25-1.89843-1.96875-2.53907-2.01953-4.4414-1.26172-4.4375-.28515"/><path fill="#00d4fc" fill-rule="evenodd" d="M272.71094 429.51953l-2.0664-2.44922 2.0664-1.32812 4.4414-.73438v1.4375l-3.10546.625 3.10546 1.48828 2.08985 2.94922 2.34765 1.89844 4.4375-.57422 2.76563-1.32422-2.76563-.97265-4.4375-3.33204-.28515-.1328-4.15235-.625v-1.4375l4.4375.53124 2.63672 1.53125 1.80078 1.3789 4.4375 1.15626 1.21094 1.90234-1.21094 1.98047-4.4375 2.1875-4.4375-.30078-4.4375-3.57031-.77734-.29688-3.66406-1.98828"/><path fill="#00c4fc" fill-rule="evenodd" d="M277.15234 428.5586l-3.10546-1.48829 3.10546-.625 4.15235.625.28515.13281 4.4375 3.33204 2.76563.97265-2.76563 1.32422-4.4375.57422-2.34765-1.89844-2.08985-2.94922"/><path fill="#50fcfc" fill-rule="evenodd" d="M294.90234 446.72266l-2.57812-1.90235 2.57812-1.99219 2.89844 1.9922-2.89844 1.90234"/><path fill="#00d4fc" fill-rule="evenodd" d="M299.34375 428.76563l-2.97266-1.69532 2.97266-3.85156v3.36719l-.3711.48437.3711.21094 4.4375-.1836.02344-.02734-.02344-.04297-4.4375-.4414v-3.36719l4.4375 1.26563 1.54297 2.58593-1.54297 1.8164-4.4375-.12108"/><path fill="#00c4fc" fill-rule="evenodd" d="M299.34375 427.28125l-.3711-.21094.3711-.48437 4.4375.4414.02344.04297-.02344.02735-4.4375.18359"/><path fill="#50fcfc" fill-rule="evenodd" d="M303.78125 452.04297l-2.63672-2.78125 2.63672-2.60156 2.4414 2.60156-2.4414 2.78125m0 11.19922l-.96094-.66797.96094-2.375 4.4375-1.78906 3.2539 4.16406-3.2539 2.28515-4.4375-1.61718"/><path fill="#00e8fc" fill-rule="evenodd" d="M312.65625 425.64453l-4.35547-3.01562 4.35547-3.98047v2.95703l-1.11719 1.02344 1.11719.77343.97266-.77343-.97266-1.02344v-2.95703l3.78906 3.98047-3.78906 3.01562"/><path fill="#00d4fc" fill-rule="evenodd" d="M312.65625 423.40234l-1.11719-.77343 1.11719-1.02344.97266 1.02344-.97266.77343"/><path fill="#00e8fc" fill-rule="evenodd" d="M321.04297 422.6289l-2.97656-4.4375 3.46875-1.19921 1.76171 1.19922 2.67579 3.1289 2.0703 1.3086-2.0703.87109-4.4375-.72656-.4922-.14453m13.8047 2.0703l-3.26172-2.0703 3.26172-2.6797 3.16796 2.6797-3.16796 2.0703m8.8789 3.55079l-1.42187-1.17969 1.42187-2.67578 4.4375-.41015 3.58985 3.08593.84765.8164 3.84375-.8164.59766-.34375 4.4375-4.04297 4.4375.16016v1.28906l-4.4375.90625-2.125 2.03125-2.3125.89844-4.4414 2.03516-3.03907-2.9336-1.39844-1.20312-2.17578 1.20312 2.17578 4.28125.14063.15625-.14063.15235-1.10937 4.28515 1.10937 1.13281 4.4375 3.29297 4.4414-.78515 3.3125-3.64063 1-4.4375.125-.48437v4.60547l-.07421.3164.07422 1.04688 1.8164-1.04688-1.8164-.3164v-4.60547l.66797.48437 3.76953 1.76172 1.32812-1.76172 1.64454-4.4375-2.97266-2.9375v-1.28906l4.27734 4.22656-.70703 4.4375-2.88281 4.4375-.6875.44531-3.55078 3.9922-.88672.8125-4.4375.23827-4.4414 1.16016-2.33985-2.21094-2.09766-1.55078-2.82812-2.88672.5586-4.4375-2.16798-3.25781"/><path fill="#00d4fc" fill-rule="evenodd" d="M348.16406 431.35156l-2.17578-4.28125 2.17578-1.20312 1.39844 1.20312 3.03906 2.9336 4.4414-2.03516v.95703l-4.01171 2.58203-.42969.375-3.98437 4.0625 3.98437 3.34766 4.4414-.85938 2.26173-2.48828.88281-4.4375-3.14453-2.58203v-.95703l2.3125-.89844 2.125-2.03125 4.4375-.90625v1.28906l-4.00781 1.64844 4.0078 3.36719 1.66798-3.36719-1.66797-1.64844v-1.28906l2.97265 2.9375-1.64453 4.4375-1.32812 1.76172-3.76953-1.76172-.66797-.48437-.125.48437-1 4.4375-3.3125 3.64063-4.4414.78515-4.4375-3.29296-1.10938-1.13282 1.10937-4.28515.14063-.15235-.14063-.15625"/><path fill="#00c4fc" fill-rule="evenodd" d="M352.60156 439.29297l-3.98437-3.34766 3.98437-4.0625.42969-.375 4.01172-2.58203v.96094l-2.51953 1.6211-1.92188 1.67968-2.70312 2.75781 2.70312 2.27344 4.4414-.9414 1.21095-1.33204.76562-4.4375-1.97656-1.6211v-.96093l3.14453 2.58203-.88281 4.4375-2.26172 2.48828-4.4414.85938"/><path fill="#00b8fc" fill-rule="evenodd" d="M352.60156 438.21875l-2.70312-2.27344 2.70312-2.75781 1.92188-1.67969 2.51953-1.6211v.95704l-1.03125.66406-3.41016 2.98828-1.42187 1.44922 1.42187 1.19531 4.4414-1.01562.16017-.17969.64843-4.4375-.8086-.66406v-.95703l1.97657 1.6211-.76562 4.4375-1.21094 1.33202-4.4414.94141"/><path fill="#00a8fc" fill-rule="evenodd" d="M352.60156 437.14063l-1.42187-1.19532 1.42187-1.44922v1.3047l-.14062.14452.14062.1211.51953-.1211-.51953-.14453v-1.30469l3.41016-2.98828 1.03125-.66406.8086.66406-.64844 4.4375-.16016.17969-4.4414 1.01563"/><path fill="#009800" fill-rule="evenodd" d="M352.60156 436.0664l-.14062-.12109.14062-.14453.51953.14453-.51953.1211"/><path fill="#50fcfc" fill-rule="evenodd" d="M361.48047 435.6289l-.07422.31641.07422 1.04688 1.8164-1.04688-1.8164-.3164"/><path fill="#00c4fc" fill-rule="evenodd" d="M365.91797 430.4375l-4.00781-3.36719 4.0078-1.64844v1.28516l-.875.36328.875.73438.36329-.73438-.36328-.36328v-1.28515l1.66797 1.64843-1.66797 3.36719"/><path fill="#00b8fc" fill-rule="evenodd" d="M365.91797 427.80469l-.875-.73438.875-.36328.36328.36328-.36328.73438"/><path fill="#00e8fc" fill-rule="evenodd" d="M374.79297 452.72656l-1.79688-3.46484 1.6172-4.4414.17968-.33204 1.79297-4.10547-1.10547-4.4375 3.7539-3.96875v1.55469l-2.28515 2.41406 2.28515 3.80078.72657.63672-.72656 1.32422-1.73047 3.11328-1.96094 4.4414 1.8789 4.4375 1.8125 1.97657 2.78516-1.97656 1.65235-1.4375 4.4375.38672.28906 1.05078.76562 4.4375.17188 4.4375 3.21094 3.05469 4.4375-.15235 4.4414.76172 4.4375-.22265 4.4375-.8711 4.4375-1.58984 4.42578-.98047h.01563l3.98437-4.4375.45313-3.98047.08594-.45703-.08594-.14063-4.4375-3.66796-2.30469-.62891-2.13672-1.57422-2.39062 1.57422-2.04688.85547-4.4375-.28516-2.29687-.57031-2.14063-1.1211-2.23437-3.3203-.69141-4.4375-1.51563-1.57423-4.4375-.71484-4.4375 1.66016-1.98046-3.8086-2.45704-2.16406-4.4375-.25v-1.55469l4.4375.17969 4.30079 3.78906.13671.26563 4.4375.01172 1.63672-.27735 2.80079-1.11328 1.625 1.11328 2.8164 3.01563 1.30469 1.42187 3.13281 2.35156 2.17578 2.08594 2.26172 2.92578 4.4375-1.82421 2.83203-1.10157 1.21875-4.4375.39063-.3711.38672.3711 2.01953 4.4375-1.4336 4.4414 3.46485.51563 2.46875 3.92188.10547 4.4375-2.57422 1.91797-2.10156 2.51953-2.33594 2.45312-4.4414.375-4.4375.7422-4.4375.46093-4.4375.05469-4.44142-.3711-4.4375.25-4.17187-3.96484-.20703-4.4375-.0586-.35938-.66796.35938-3.76954 3.67187-4.24218-3.67187-.19531-.03906-4.03125-4.39844-.41016-.97266"/><path fill="#00d4fc" fill-rule="evenodd" d="M377.42188 453.69922l-1.87891-4.4375 1.96094-4.4414 1.73046-3.11329.72657-1.32422-.72656-.63672-2.28516-3.80078 2.28515-2.41406v1.55078l-.8164.86328.8164 1.35938 3.51954 3.07812.91796.85547v2.59375l-1.70312.98828 1.70313 1.22266 1.33203-1.22266-1.33204-.98828v-2.59375l1.26954-.85547-.65625-4.4375-.61329-.53906-4.4375-.32422v-1.55078l4.4375.25 2.45704 2.16406 1.98046 3.8086 4.4375-1.66016v1.8711l-.9453.41796-2.63673 4.4375-.85546 3.54297-4.4375.8711-4.4375-2.82032-1.51172 2.84766 1.51171 3.5 4.4375-3.47656 4.4375.0664 1.19532 4.34766.85156 4.4375.13672 4.4375 2.2539 2.14062 4.4375-.05078 4.44141 1.15235 4.4375-.38672 4.4375-1.28516 3.41406-1.57031 1.02344-.69531 4.4414-.89454 2.5547-2.84765 1.14453-4.4375-3.69922-3.15625-4.4414-1.1875-4.4375 1.88672-4.4375 1.21875-4.4375.84765-2.04298-4.04687-2.39844-3.09766-2.07421-1.34375-1.14454-4.4375-1.21875-.41797v-1.87109l4.4375.71484 1.51563 1.57422.6914 4.4375 2.23438 3.32031 2.14063 1.1211 2.29687.57031 4.4375.28516 2.04688-.85547 2.39062-1.57422 2.13672 1.57422 2.30469.6289 4.4375 3.66797.08594.14063-.08594.45703-.45313 3.98047-3.98437 4.4375h-.01563l-4.42578.98047-4.4375 1.58984-4.4375.8711-4.4375.22265-4.4414-.76172-4.4375.15235-3.21094-3.0547-.17188-4.4375-.76562-4.4375-.28906-1.05077-4.4375-.38672-1.65235 1.4375-2.78515 1.97656-1.8125-1.97656"/><path fill="#00c4fc" fill-rule="evenodd" d="M379.23438 452.76172l-1.51172-3.5 1.51171-2.84766 4.4375 2.82031 4.4375-.87109.85547-3.54297 2.63672-4.4375.94531-.41797 1.21875.41797 1.14454 4.4375 2.07421 1.34375v3.1914l-4.4375.70313-2.33984 3.64063.94531 4.4375.10157 4.4375 1.29296 1.23047 4.4375.05078 4.44141 1.53906 4.4375-.55078 4.4375-1.70313 1.23438-.5664 3.20312-2.17969 4.4414-1.0039 1.125-1.25391 1.8086-4.4375-2.9336-2.5039-4.4414-.97657-4.4375 2.14844-3.0664 1.33203-1.3711.45703-4.4375.29688-1.07031-.75391-3.3711-4.34375v-3.1914l2.39844 3.09765 2.04297 4.04687 4.4375-.84765 4.4375-1.21875 4.4375-1.88672 4.4414 1.1875 3.69923 3.15625-1.14454 4.4375-2.55468 2.84765-4.4414.89454-1.02345.6953-3.41406 1.57032-4.4375 1.28516-4.4375.38672-4.4414-1.15235-4.4375.05078-2.25391-2.14062-.13672-4.4375-.85156-4.4375-1.19531-4.34766-4.4375-.0664-4.4375 3.47656m0-15.45703l-.81641-1.35938.8164-.86328 4.4375.32422.61329.53906.65625 4.4375-1.26954.85547-.91796-.85547-3.51954-3.07812"/><path fill="#00e8fc" fill-rule="evenodd" d="M383.67188 443.83203l-1.70313.98828 1.70313 1.22266 1.33203-1.22266-1.33204-.98828"/><path fill="#00b8fc" fill-rule="evenodd" d="M391.15234 458.13672l-.9453-4.4375 2.33983-3.64063 4.4375-.70312v1.4961l-4.4375.61327-1.43359 2.23438 1.03125 4.4375.0664 4.4375.33594.32031 4.4375.14844 4.44141 1.92578 4.4375-.71094 3.85547-1.6836.58203-.9375 4.4375-2.72265 3.16406-.77734 1.27735-.3086 2.16406-4.1289-2.16406-1.84766-4.4414-.76953-4.4375 2.41016-.47267.20703-3.96484 1.32031-4.4375.2461-2.23047-1.56641-2.21094-2.84766v-1.4961l3.3711 4.34376 1.07031.7539 4.4375-.29687 1.3711-.45703 3.0664-1.33203 4.4375-2.14844 4.4414.97656 2.9336 2.5039-1.8086 4.4375-1.125 1.25392-4.4414 1.0039-3.20312 2.17969-1.23438.5664-4.4375 1.70313-4.4375.55078-4.4414-1.53906-4.4375-.05078-1.29297-1.23047-.10157-4.4375"/><path fill="#00a8fc" fill-rule="evenodd" d="M392.14453 458.13672l-1.03125-4.4375 1.4336-2.23438 4.4375-.61328 2.21093 2.84766 2.23047 1.5664 4.4375-.24609 3.96485-1.32031.47265-.20703 4.4375-2.41016v.86328l-3.16015 1.7539-1.27735 2.53517-4.4375-.35157-4.4375.19922-3.39062-2.38281-1.05079-1.35547-4.4375.52734-.53125.82813.53125 2.20312.62891 2.23438 3.8086 3.97265.37109.46485 4.07031 1.97265 4.4375-.875 2.51563-1.09765 1.92187-3.10547 2.5-1.33203 1.9375-.84375 4.4414-.92578 1.39844-2.66797-1.39843-1.19531-4.4414-.5586v-.86328l4.4414.76953 2.16406 1.84766-2.16406 4.1289-1.27735.3086-3.16406.77734-4.4375 2.72266-.58203.9375-3.85547 1.6836-4.4375.71093-4.4414-1.92578-4.4375-.14844-.33594-.32031-.0664-4.4375"/><path fill="#009800" fill-rule="evenodd" d="M392.54688 455.90234l-.53125-2.20312.53125-.82813 4.4375-.52734v1.50781l-2.75782 4.28516 2.75781 2.875 1.2461 1.5625 3.19531 1.55078 4.4375-1.03906 1.17188-.51172 2.41015-4.4375-3.58203-1.39453-4.4375.15625-4.4414-3.04688v-1.50781l1.05078 1.35547 3.39062 2.38281 4.4375-.19922 4.4375.35156 1.27735-2.53515 3.16015-1.7539v.86718l-1.60156.88672 1.60156 1.82031 4.4414-.61328.63282-1.20703-.63281-.53906-4.4414-.34766v-.86719l4.4414.5586 1.39844 1.1953-1.39844 2.66798-4.4414.92578-1.9375.84375-2.5 1.33203-1.92188 3.10547-2.51563 1.09765-4.4375.875-4.07031-1.97265-.3711-.46485-3.80859-3.97265-.6289-2.23438"/><path fill="#00ac00" fill-rule="evenodd" d="M396.98438 461.01172l-2.75782-2.875 2.75781-4.28516v1.63672l-1.70312 2.64844 1.70313 1.77734 2.11718 2.66016 2.32422 1.1289 4.23438-1.1289.20312-.75781 1.36328-3.6797-1.36328-.53124-4.4375.10547-4.4414-2.22266v-1.63672l4.4414 3.04688 4.4375-.15625 3.58203 1.39453-2.41015 4.4375-1.17188.51172-4.4375 1.03906-3.19531-1.55078-1.2461-1.5625"/><path fill="#00c800" fill-rule="evenodd" d="M396.98438 459.91406l-1.70313-1.77734 1.70313-2.64844 4.4414 2.22266v3.48437l-.58203 1.3789.58203.28126 1.0586-.28125-1.0586-1.3789v-3.48438l4.4375-.10547 1.36328.53125-1.36328 3.67969-.20312.7578-4.23438 1.12892-2.32422-1.12891-2.11719-2.66016"/><path fill="#10cc00" fill-rule="evenodd" d="M401.42578 462.85547l-.58203-.28125.58203-1.3789 1.0586 1.3789-1.0586.28125"/><path fill="#00ac00" fill-rule="evenodd" d="M414.73828 455.51953l-1.60156-1.82031 1.60156-.88672v.86328l-.03906.02344.03906.04687.59766-.04687-.59766-.02344v-.86328l4.4414.34766.63282.53906-.63281 1.20703-4.4414.61328"/><path fill="#00c800" fill-rule="evenodd" d="M414.73828 453.7461l-.03906-.04688.03906-.02344.59766.02344-.59766.04687"/><path fill="#00e8fc" fill-rule="evenodd" d="M432.49219 456.75781L431 453.69921l1.49219-1.41015 4.22265-3.02734.21485-.21875 3.67969-4.22266.76171-.8125 4.4375-1.25v3.35156l-3.28125 3.15235 3.28125.88672.87891-.88672-.8789-3.15235v-3.35156l2.1914 2.0625.55078 4.4414-2.74219 2.76173-4.4375.51953-1.65625 1.15625-2.78515 1.52734-4.4375 1.53125"/><path fill="#00d4fc" fill-rule="evenodd" d="M445.8086 450.14844l-3.28126-.88672 3.28125-3.15235.87891 3.15235-.8789.88672"/><path fill="#50fcfc" fill-rule="evenodd" d="M445.8086 436.98438l-1.02344-1.03907 1.02343-.90234.96485.90234-.96485 1.03906"/><g clip-path="url(#c)"><path fill="#fff" fill-opacity="0" fill-rule="evenodd" d="M467.9961 480.32813H468V311.67188h-.0039H468v168.65625h-.0039"/></g><path fill="#fff" fill-opacity="0" fill-rule="evenodd" d="M294.16797 436.55469l5.19531-2.66406-4.54297-8.86329-5.19922 2.66407 4.54688 8.86328"/><path fill-rule="evenodd" d="M293.57031 427.72656l.45313-.23437 2.875 5.60156-.70313.35938-2.04687-3.9961-1.23438.63672-.2539-.4961.46875-.3125.19921-.16406.16407-.18359.11719-.21875.05859-.26563-.00781-.32812-.08985-.39844"/><path fill="#fff" fill-opacity="0" fill-rule="evenodd" d="M327.23828 424.73438l5.83203-.29297-.49219-9.94532-5.83593.28907.4961 9.94921"/><path fill-rule="evenodd" d="M330.32813 416.4414l.5078-.02343.3125 6.28515-.78515.03907-.22265-4.48438-1.38672.07031-.02735-.55468.55469-.09375.25-.0664.22656-.10157.19531-.15235.16407-.21484.125-.30469.08594-.39843"/><path fill="#fff" fill-opacity="0" fill-rule="evenodd" d="M440.34766 447.41016l5.3164-2.41797-4.1211-9.0664-5.3203 2.41796 4.125 9.0664"/><path fill-rule="evenodd" d="M440.16797 438.5625l.46484-.21094 2.60547 5.73047-.71484.32422-1.85938-4.08594-1.26562.57422-.23047-.5039.48437-.29297.20704-.15235.17187-.17578.125-.21484.07422-.26172.0039-.32813-.0664-.40234"/><path fill="#fff" fill-opacity="0" fill-rule="evenodd" d="M238.05078 436.66016l5.83594.1914.32812-9.95703-5.83984-.1914-.32422 9.95703"/><path fill-rule="evenodd" d="M241.8125 428.64844l.50781.01953-.20312 6.28906-.78906-.02344.14843-4.48828-1.38672-.04687.01563-.55469.5625-.04688.2539-.04296.23438-.08204.20703-.13671.17969-.20313.15234-.28906.11719-.39453"/><g clip-path="url(#d)"><path fill="none" stroke="#000" stroke-linecap="round" stroke-linejoin="round" stroke-miterlimit="10" stroke-width=".5" d="M147.3086 479.14844l-6.6172 2.35937"/></g><g clip-path="url(#e)"><path fill="none" stroke="#000" stroke-linecap="round" stroke-linejoin="round" stroke-miterlimit="10" stroke-width=".5" d="M146.34766 479.49219l.90625.82422"/></g><g clip-path="url(#f)"><path fill="none" stroke="#000" stroke-linecap="round" stroke-linejoin="round" stroke-miterlimit="10" stroke-width=".5" d="M160.7539 479.60156l-6.875 1.45313"/></g><g clip-path="url(#g)"><path fill="none" stroke="#000" stroke-linecap="round" stroke-linejoin="round" stroke-miterlimit="10" stroke-width=".5" d="M159.7539 479.8164l.78516.9375"/></g><g clip-path="url(#h)"><path fill="none" stroke="#000" stroke-linecap="round" stroke-linejoin="round" stroke-miterlimit="10" stroke-width=".5" d="M174.14453 480.41406l-7.02734-.17187"/></g><g clip-path="url(#i)"><path fill="none" stroke="#000" stroke-linecap="round" stroke-linejoin="round" stroke-miterlimit="10" stroke-width=".5" d="M174.14453 480.41406l1.09766 2.19531"/></g><g clip-path="url(#j)"><path fill="none" stroke="#000" stroke-linecap="round" stroke-linejoin="round" stroke-miterlimit="10" stroke-width=".5" d="M187.39844 480.96875l-6.90625-1.27734"/></g><g clip-path="url(#k)"><path fill="none" stroke="#000" stroke-linecap="round" stroke-linejoin="round" stroke-miterlimit="10" stroke-width=".5" d="M187.39844 480.96875l.74219 2.33984"/></g><g clip-path="url(#l)"><path fill="none" stroke="#000" stroke-linecap="round" stroke-linejoin="round" stroke-miterlimit="10" stroke-width=".5" d="M200.76953 480.51172l-7.01953-.36719"/></g><g clip-path="url(#m)"><path fill="none" stroke="#000" stroke-linecap="round" stroke-linejoin="round" stroke-miterlimit="10" stroke-width=".5" d="M200.76953 480.51172l1.03516 2.22265"/></g><g clip-path="url(#n)"><path fill="none" stroke="#000" stroke-linecap="round" stroke-linejoin="round" stroke-miterlimit="10" stroke-width=".5" d="M214.0625 479.89063l-6.97266.875"/></g><g clip-path="url(#o)"><path fill="none" stroke="#000" stroke-linecap="round" stroke-linejoin="round" stroke-miterlimit="10" stroke-width=".5" d="M214.0625 479.89063l1.41016 2.0078"/></g><g clip-path="url(#p)"><path fill="none" stroke="#000" stroke-linecap="round" stroke-linejoin="round" stroke-miterlimit="10" stroke-width=".5" d="M227.3125 479.52734l-6.84375 1.60547"/></g><g clip-path="url(#q)"><path fill="none" stroke="#000" stroke-linecap="round" stroke-linejoin="round" stroke-miterlimit="10" stroke-width=".5" d="M227.3125 479.52734l1.61328 1.84375"/></g><g clip-path="url(#r)"><path fill="none" stroke="#000" stroke-linecap="round" stroke-linejoin="round" stroke-miterlimit="10" stroke-width=".5" d="M240.71094 480.07031l-7.00781.51953"/></g><g clip-path="url(#s)"><path fill="none" stroke="#000" stroke-linecap="round" stroke-linejoin="round" stroke-miterlimit="10" stroke-width=".5" d="M240.71094 480.07031l1.3086 2.07422"/></g><g clip-path="url(#t)"><path fill="none" stroke="#000" stroke-linecap="round" stroke-linejoin="round" stroke-miterlimit="10" stroke-width=".5" d="M253.98438 480.91016l-6.9297-1.16016"/></g><g clip-path="url(#u)"><path fill="none" stroke="#000" stroke-linecap="round" stroke-linejoin="round" stroke-miterlimit="10" stroke-width=".5" d="M253.98438 480.91016l.78125 2.32422"/></g><g clip-path="url(#v)"><path fill="none" stroke="#000" stroke-linecap="round" stroke-linejoin="round" stroke-miterlimit="10" stroke-width=".5" d="M267.2461 481.17578l-6.82032-1.69531"/></g><g clip-path="url(#w)"><path fill="none" stroke="#000" stroke-linecap="round" stroke-linejoin="round" stroke-miterlimit="10" stroke-width=".5" d="M266.2539 480.92969l.29688 1.1914"/></g><g clip-path="url(#x)"><path fill="none" stroke="#000" stroke-linecap="round" stroke-linejoin="round" stroke-miterlimit="10" stroke-width=".5" d="M280.64844 480.67188l-6.9961-.6875"/></g><g clip-path="url(#y)"><path fill="none" stroke="#000" stroke-linecap="round" stroke-linejoin="round" stroke-miterlimit="10" stroke-width=".5" d="M279.6289 480.57031l.46876 1.13672"/></g><g clip-path="url(#z)"><path fill="none" stroke="#000" stroke-linecap="round" stroke-linejoin="round" stroke-miterlimit="10" stroke-width=".5" d="M293.97266 480.55078l-7.01172-.44531"/></g><g clip-path="url(#A)"><path fill="none" stroke="#000" stroke-linecap="round" stroke-linejoin="round" stroke-miterlimit="10" stroke-width=".5" d="M292.95313 480.48438l.5039 1.11718"/></g><g clip-path="url(#B)"><path fill="none" stroke="#000" stroke-linecap="round" stroke-linejoin="round" stroke-miterlimit="10" stroke-width=".5" d="M307.25781 479.82031l-6.95312 1.01563"/></g><g clip-path="url(#C)"><path fill="none" stroke="#000" stroke-linecap="round" stroke-linejoin="round" stroke-miterlimit="10" stroke-width=".5" d="M306.2461 479.96875l.72656.98828"/></g><g clip-path="url(#D)"><path fill="none" stroke="#000" stroke-linecap="round" stroke-linejoin="round" stroke-miterlimit="10" stroke-width=".5" d="M320.03125 478.39844l-5.8711 3.85937"/></g><path fill="none" stroke="#000" stroke-linecap="round" stroke-linejoin="round" stroke-miterlimit="10" stroke-width=".5" d="M319.17578 478.96094l1.07813.58594"/><g clip-path="url(#E)"><path fill="none" stroke="#000" stroke-linecap="round" stroke-linejoin="round" stroke-miterlimit="10" stroke-width=".5" d="M332.89453 477.84375l-4.96875 4.96875"/></g><path fill="none" stroke="#000" stroke-linecap="round" stroke-linejoin="round" stroke-miterlimit="10" stroke-width=".5" d="M332.17188 478.5664l1.17578.35938"/><g clip-path="url(#F)"><path fill="none" stroke="#000" stroke-linecap="round" stroke-linejoin="round" stroke-miterlimit="10" stroke-width=".5" d="M346.94531 478.92578l-6.4414 2.80469"/></g><g clip-path="url(#G)"><path fill="none" stroke="#000" stroke-linecap="round" stroke-linejoin="round" stroke-miterlimit="10" stroke-width=".5" d="M360.44922 481.1875l-6.8164-1.71484"/></g><g clip-path="url(#H)"><path fill="none" stroke="#000" stroke-linecap="round" stroke-linejoin="round" stroke-miterlimit="10" stroke-width=".5" d="M372.78125 482.8711l-4.85156-5.08594"/></g><g clip-path="url(#I)"><path fill="none" stroke="#000" stroke-linecap="round" stroke-linejoin="round" stroke-miterlimit="10" stroke-width=".5" d="M387.11719 481.00781l-6.89453-1.35937"/></g><g clip-path="url(#J)"><path fill="none" stroke="#000" stroke-linecap="round" stroke-linejoin="round" stroke-miterlimit="10" stroke-width=".5" d="M386.11719 480.8086l.35547 1.17577"/></g><g clip-path="url(#K)"><path fill="none" stroke="#000" stroke-linecap="round" stroke-linejoin="round" stroke-miterlimit="10" stroke-width=".5" d="M400.48047 480.6914l-6.98828-.72265"/></g><g clip-path="url(#L)"><path fill="none" stroke="#000" stroke-linecap="round" stroke-linejoin="round" stroke-miterlimit="10" stroke-width=".5" d="M409.1914 483.66016l2.22266-6.66407"/></g><g clip-path="url(#M)"><path fill="none" stroke="#000" stroke-linecap="round" stroke-linejoin="round" stroke-miterlimit="10" stroke-width=".5" d="M426.30469 482.58984l-5.375-4.52343"/></g><g clip-path="url(#N)"><path fill="none" stroke="#000" stroke-linecap="round" stroke-linejoin="round" stroke-miterlimit="10" stroke-width=".5" d="M439.0625 483.1211l-4.26563-5.58594"/></g><g clip-path="url(#O)"><path fill="none" stroke="#000" stroke-linecap="round" stroke-linejoin="round" stroke-miterlimit="10" stroke-width=".5" d="M452.33984 483.14844l-4.1875-5.64063"/></g><g clip-path="url(#P)"><path fill="none" stroke="#000" stroke-linecap="round" stroke-linejoin="round" stroke-miterlimit="10" stroke-width=".5" d="M465.98438 482.875l-4.84375-5.08984"/></g><g clip-path="url(#Q)"><path fill="none" stroke="#000" stroke-linecap="round" stroke-linejoin="round" stroke-miterlimit="10" stroke-width=".5" d="M147.47656 466.5039l-6.95312 1.01954"/></g><path fill="none" stroke="#000" stroke-linecap="round" stroke-linejoin="round" stroke-miterlimit="10" stroke-width=".5" d="M147.47656 466.5039l1.45313 1.97657m11.88672-1.7461l-7.00391.5586m7.0039-.5586l1.32032 2.07032m12.00781-1.73828l-7.02734-.10547m7.02734.10547l1.11719 2.18359m12.16406-1.75l-6.96094-.97266m6.96094.97266l.83984 2.3086m12.4922-2.47657l-6.9961-.63672m6.9961.63672l.95312 2.26172m12.3789-2.5039l-7.02734-.15235m7.02734.15234l1.10157 2.19141m12.20312-2.54297l-7.00781.55078m7.00781-.55078l1.3164 2.0664m12-2.03515l-7.01171.48828m7.01172-.48828l1.30078 2.08203m12.02344-1.83594h-7.02735m7.02735 0l1.15234 2.16407m12.13281-1.71094l-6.96875-.91016m6.96875.91016l.86328 2.29688m12.47657-2.5586l-7.01954-.38672m7.01954.38672l1.03125 2.22656m12.28515-2.28515l-7.02343-.26953m6.0039.23047l.53125 1.10156m13.78125-.78125l-6.97656-.83203m5.96094.71093l.4453 1.14454m13.91017-1.4336l-7.02735-.01172m6.0039.01172l.57423 1.08594m13.73828-1.50781l-6.97656.83203m5.96093-.71094l.70313 1.00781m13.65234-.75781l-7.02734.08984m6.00781-.07812l.58984 1.07422m13.73047-1.35938l-6.9961.64063m5.98048-.55078l.67187 1.02734m13.24219-2.48828l-6.16406 3.3789m5.26562-2.88671l1.02735.67187m12.0039 3.48047l-3.79687-5.91016m13.77344 6.16016l2.8789-6.41016m12.14453 6.70703l-.53906-7.0039m15.46094 6.47265l-3.75-5.9414m16.59375 6.1914l-2.8086-6.4414m2.40235 5.5039l-.76563.96094m14.51953-.03906l-2.87109-6.41016m2.45313 5.48047l-.75391.96485m15.32812-.56641l-4.55859-5.34766m3.89453 4.57032l-.44922 1.14062"/><g clip-path="url(#R)"><path fill="none" stroke="#000" stroke-linecap="round" stroke-linejoin="round" stroke-miterlimit="10" stroke-width=".5" d="M147.5 453.40625l-7 .58594"/></g><path fill="none" stroke="#000" stroke-linecap="round" stroke-linejoin="round" stroke-miterlimit="10" stroke-width=".5" d="M147.5 453.40625l1.32813 2.0625m12-1.75781l-7.02735-.02344m7.02734.02344l1.14454 2.17187m12.15625-1.875l-7-.61719m7 .6172l.95703 2.2578m12.32422-1.97265l-6.9297-1.1875m6.9297 1.1875l.76953 2.32812m12.52734-2.23437l-6.89062-1.375m6.89062 1.375l.70313 2.34765m12.66015-2.6914l-6.99219-.6914m6.9922.6914l.93359 2.26953m12.39843-2.76563l-7.02343.3047m7.02343-.3047l1.2422 2.11329m12.0703-2.14453l-7.01953.36718m7.01953-.36719l1.26172 2.10547m12.04297-2.24218l-6.9961.64062m6.9961-.64062l1.34375 2.05078M253 453.47266l.67578 1.02343m13.64063-1.28125l-6.96094.96875m6.96094-.96875l1.4375 1.98438m-2.44922-1.84375l.71875.99219m13.6289-.94922l-7.0039.60156m7.0039-.60156l1.33204 2.0586m-2.35157-1.97267l.66797 1.03125m13.66016-1.1914l-6.98828.75m6.98828-.75l1.375 2.03125m11.88281-2.3789l-6.875 1.4453m6.875-1.4453l1.57422 1.8828M320.5 452.82422l-6.8086 1.75m5.81641-1.4961l.82813.90625m13.57812-.54296l-7.00781.51171m5.98828-.4375l.65625 1.03907m13.66797-.45703l-6.98437-.79688m5.96484.67969l.45312 1.14062m13.90235-1.35156l-7.02735-.14453m6.00391.125l.55469 1.09375m13.76562-1.49219l-6.99218.69531m20.30859-.0078l-6.99219-.6836m15.39453 3.5586l2.83203-6.4297m-2.42187 5.4922l-1.22266.08984m14.14844.85546l2.78906-6.44921m-2.38281 5.51171l-1.22266.09766m13.39454.41016l4.26562-5.58594m-3.64453 4.77344l-1.21094-.20313m13.51172.66797l5.05078-4.89062m-4.3164 4.17968l-1.16407-.3789m16.59375 2.14062l-.64843-6.9961m.55468 5.98048l-1.02343.67187m15.28906.15625l-2.36328-6.61719m2.01953 5.65235l-.82422.91015"/><g clip-path="url(#S)"><path fill="none" stroke="#000" stroke-linecap="round" stroke-linejoin="round" stroke-miterlimit="10" stroke-width=".5" d="M147.50781 440.57031l-7.01562-.375"/></g><path fill="none" stroke="#000" stroke-linecap="round" stroke-linejoin="round" stroke-miterlimit="10" stroke-width=".5" d="M147.50781 440.57031l1.03516 2.22656m-2.05469-2.28125l.51563 1.11329m13.78906-.75391l-6.95703-.98047m6.95703.98047l.83984 2.30469m-1.85156-2.44922l.42188 1.15234m13.875-.83203l-6.89844-1.33594m6.89844 1.33594l.72265 2.34766m-1.72656-2.54297l.35937 1.17578m13.94141-.8789l-6.85938-1.53907m6.85938 1.53906l.64844 2.3672m-1.64844-2.58985l.32422 1.1836m13.96094-.83985l-6.80078-1.78125m6.80078 1.78125l.5664 2.38672m12.75-2.39844l-6.80469-1.75781m6.8047 1.7578l.57421 2.38673m12.58984-1.9336l-6.5-2.66406m5.5547 2.27734l.12109 1.22266m14.3789-1.76562l-6.98047-.8047m5.96485.6875l.44922 1.14063m13.76172-.4375l-6.7422-1.97656m5.76173 1.6914l.25 1.19923m14.16406-1.47266l-6.97656-.85938m6.97656.85938l.875 2.29297m12.42969-3.23047l-6.95313 1.01563m6.95313-1.01563l1.45312 1.97656m11.6875-2.66015l-6.60937 2.3828m6.60937-2.3828l1.82031 1.64843m11.35938-1.97656l-6.33594 3.03906m5.41406-2.59375l.98828.72657m12.9922-1.6172l-5.82423 3.9336m4.97657-3.36328l1.08203.57813m10.85937-2.62891l-1.3789 6.89063m15.6953-6.52344l-3.3828 6.16015m2.89062-5.26562l1.22656.01562m8.51953-.42578l4.73829 5.1875m9.79296-5.91406l2.3047 6.64062m8.6875-3.84375l6.94921 1.04688m-5.9375-.89453l-.40625-1.15625m12.70703 2.01953l6.95703-.98438m-5.9453.84375l-.72267-.99218m13.07422 1.39844l6.85938-1.51563m-5.86328 1.29688l-.79297-.9336m13.89453 2.70703l5.29297-4.625m-4.51953 3.95313l-1.14844-.4375m14.3086 1.66797l4.05859-5.73828m-3.46875 4.90234l-1.21485-.15625m15.75391 1.6289l.4336-7.01562m-.3711 5.9961l-1.11719.5078m16.25.09766l-3.33203-6.1875m2.84766 5.28906l-.67969 1.01954"/><g clip-path="url(#T)"><path fill="none" stroke="#000" stroke-linecap="round" stroke-linejoin="round" stroke-miterlimit="10" stroke-width=".5" d="M147.51172 427.16016l-7.02344-.1836"/></g><path fill="none" stroke="#000" stroke-linecap="round" stroke-linejoin="round" stroke-miterlimit="10" stroke-width=".5" d="M147.51172 427.16016l1.09375 2.1953m12.20312-1.91015l-6.98828-.7539m6.98828.7539l.91407 2.27735m12.40625-2.34766l-7-.61328m7 .61328l.96093 2.25781m12.3672-2.46875l-7.02345-.1914m7.02344.1914l1.09375 2.19922m12.16016-1.63672l-6.90235-1.3164m5.89844 1.125l.36328 1.17187m13.97656-1.10547l-6.9453-1.0664m5.9375.91015l.40234 1.16016m12.70312 1.15625l-4.50781-5.38672m16.9961 5.90234l-2.85548-6.41796m2.44141 5.48437l-.75781.96875m14.22265.07031l-2.32422-6.6289m1.98438 5.66406l-.83203.90234m15.4961-.49218l-4.34766-5.51954m3.71875 4.71875l-.4961 1.1211m13.9961-.01953l-3.45703-6.1211m2.95312 5.23047l-.66016 1.03516m15.56641-1.10547l-5.63281-4.19922m14.66797 5.29297l2.92968-6.38672m-2.5039 5.45703l-1.22266.07422m14.67578-5.73437l1.80078 6.79296m12.41407-6.91015v7.02734m0-6.0039L331.49609 424m11.33204-.32812l1.79687 6.79296m-1.53516-5.80468l.89844-.83203m9.73047 2.09375l6.64453 2.29296m6.66797-2.28125l6.65234 2.26954M368 426.26563l-.19922-1.21094m12.78125.33594l6.17578 3.35546m-6.17578-3.35546l.02344-2.45313m16.54297.6211l-.32422 7.01953m.32422-7.01954l2.21875-1.05078m7.8164 2.94532l6.23829 3.23046m-5.33204-2.76171l-.01171-1.22657m12.32421.95313l6.4297 2.83984m-5.4961-2.42578l-.08985-1.22266m13.33594 4.83985l4.69922-5.22266m-4.01563 4.46094l-1.1914-.29688m15.67969 1.92579l.98437-6.95704m-.83984 5.94532l-1.15235.41796m16.72266.06641l-3.8164-5.90234m3.26171 5.04297l-.59765 1.0703"/><g clip-path="url(#U)"><path fill="none" stroke="#000" stroke-linecap="round" stroke-linejoin="round" stroke-miterlimit="10" stroke-width=".5" d="M147.44531 413.07422l-6.89062 1.35937"/></g><path fill="none" stroke="#000" stroke-linecap="round" stroke-linejoin="round" stroke-miterlimit="10" stroke-width=".5" d="M147.44531 413.07422l1.55078 1.90234m11.8125-1.58594l-6.98828.72266m6.98828-.72266l1.3711 2.03907m11.89453-2.36328l-6.89063 1.375m5.89063-1.17579l.77734.94922m13.30469-1.88672l-6.42188 2.85157m5.48829-2.4375l.96484.7539m13.52734.89844l-6.91015-1.28125m5.90625 1.09375l.36719 1.17188m10.04687 1.85937l.90234-6.96875m10.10547 5.66016l5.51563-4.35157m-4.71485 3.71875l-1.12109-.49609m13.67188 1.17578l5.4414-4.44531m-4.64844 3.79687l-1.1328-.47265m16.20312 2.40625l.34765-7.01563m-.29687 5.9961l-1.10938.51953m13.77735.42187l1.53906-6.85937m-1.3164 5.85937l-1.1836.32422m14.125.63672l1.83984-6.78125M276.5 416.15625l-1.19531.27344m17.6836-5.125l-5.04298 4.89453m13.99219-5.4375l3.6875 5.98047m8.23438-4.35547l6.47265 2.73437m-5.53125-2.33593l-.10937-1.22266m12.22265 1.83594l6.99219.71093m-5.97266-.60937l-.46484-1.13281m13.26563-.45703l5.98046 3.6875m-5.10937-3.15235l.07812-1.22265m13.64063-.53516l3.4336 6.13281m-2.9336-5.23828l.66406-1.03516m11.27735.83204l5.17968 4.75m-4.42578-4.0586l.3086-1.1875m11.49609 1.79688l6.6914 2.14843m-6.6914-2.14843l-.4336-2.41407m13.67579 2.6875l6.83984 1.60157m-6.83984-1.60157l-.62891-2.37109m1.625 2.60547L394.2461 412m12.67187.80469l6.76562 1.89843m-6.76562-1.89843l-.52344-2.39844m13.71094 3.26562l7.02344.16407m-7.02344-.16407l-1.10156-2.1953m15.82812 5.09374l4.19922-5.63281m-3.58984 4.8125l-1.21094-.1875m15.26953 1.625l1.49219-6.86719m-1.27344 5.86719l-1.1836.33203m18.05079-.98047l-6.05078-3.57031m5.17187 3.05078l-.05469 1.22656"/><g clip-path="url(#V)"><path fill="none" stroke="#000" stroke-linecap="round" stroke-linejoin="round" stroke-miterlimit="10" stroke-width=".5" d="M147.46484 399.85156l-6.92968 1.17578"/></g><path fill="none" stroke="#000" stroke-linecap="round" stroke-linejoin="round" stroke-miterlimit="10" stroke-width=".5" d="M146.45703 400.01953l.75.97266m13.25781-2.11328l-6.30078 3.11718m5.38281-2.66406l.9961.71875m13.1289-1.3711l-6.08203 3.51563m5.19532-3.0039l1.04297.64843m8.5078-2.52343l3.21876 6.24609m8.39062-4.28906l6.6289 2.32812m-5.66405-1.98828l-.1836-1.21484m12.33985 1.88672l7.01953.30859m-6-.26563l-.52735-1.10546m12.82813 1.47656l7.00781-.51953m-5.98828.4414l-.65625-1.03515m12.95313 1.125l7.0039-.54688m-5.98437.46875l-.66016-1.03515m13.64063 2.9375l5.63671-4.19532m-4.8164 3.58594l-1.10938-.52734m15.66797 2.47265l1.50781-6.86328m-1.28906 5.86328l-1.1836.33204m12.33985-.50782l5.38672-4.51172m10.45313-1.2539l.33984 7.01953m-.29297-6l1.05469-.6289m11.78125-.34376l1.20312 6.92188m-1.02734-5.91406l.96875-.75391m11.82812-.17578l1.88672 6.76953m-1.60937-5.78516l.88672-.84765m10.1875 1.27734l5.8164 3.9414m-4.97265-3.37109l.1328-1.21875m12.37892.58594l5.73437 4.0625M341.69531 399l.15625-1.21875m16.39063-.64453l-2.40235 6.60547m2.05079-5.64453l1.21484-.17188m14.5625 1.34375l-6.625 2.33594m6.625-2.33594l1.8086 1.66016m11.22265-2.27344l-6.0586 3.5625m6.0586-3.5625l2.09375 1.28516m-2.97266-.76563l1.04297.64063m12.33203-2.10938l-4.41797 5.46485M398.5547 398.5l1.20312.23438m11.82031-1.57032l-2.55468 6.54688M420.5 402.0625l6.23047-3.25m-5.32422 2.77734l-1.01172-.6953m17.64844 2.8789l-2.22266-6.66797m1.89844 5.69531l-.84375.89063m14.82813-.0547l-2.91407-6.39452m2.48828 5.46484l-.74609.97266m15.78516-1.0625l-5.51172-4.35938m5.51172 4.35938l-.44141 2.41406"/><g clip-path="url(#W)"><path fill="none" stroke="#000" stroke-linecap="round" stroke-linejoin="round" stroke-miterlimit="10" stroke-width=".5" d="M146.57422 384.73438l-5.14844 4.77734"/></g><path fill="none" stroke="#000" stroke-linecap="round" stroke-linejoin="round" stroke-miterlimit="10" stroke-width=".5" d="M146.57422 384.73438l2.32031.80468m10.2539-1.41406l-3.66796 5.9961m3.66797-5.9961l2.44922.14844m9.41797-.64063l-.76954 6.98438m.76953-6.98438l2.28125-.91015m10.07422.93359l1.14844 6.9336m-.98047-5.92579l.97656-.74219m9.70704 1.4336l6.07422 3.53515m-6.07422-3.53515l.09765-2.45313m14.79297 1.02735l2.92578 6.38672m-2.5-5.45704l.74219-.97656m10.66016 1.33203l5.89843 3.81641m-5.04297-3.26172l.10547-1.22265m12.125 4.07812l6.35547-3.0039m9.92578 5.0078l.42188-7.01171m-.35938 5.99219l-1.11718.51171m14.46484.51563l.23438-7.02344m-.19922 6l-1.10157.53906m17.98829-2.61718l-6.98047-.82422m19.96093-1.13672l-6.30859 3.09765m5.39063-2.64843l.99218.71875m13.21094-1.22656l-6.25 3.21484m6.25-3.21485l2.01563 1.39844m11.48046-.98437l-6.61328 2.38672m5.64844-2.03907l.91016.82422m13.55078-.39062l-6.97656.82422m6.97656-.82422l1.39844 2.01562m11.85937-.83984l-6.85937-1.52735m6.85937 1.52735l.65234 2.36719m-1.65234-2.58985l.32813 1.1836m13.93359-.75782l-6.7539-1.93359m6.7539 1.9336l.51562 2.39843m-1.49609-2.67969l.2539 1.19922m14.04688-2.83594l-6.76562 1.90235m6.76562-1.90235l1.69531 1.77344m-2.67968-1.4961l.84765.88673m12.91797-2.26953l-5.69922 4.11328m5.69922-4.11328l2.20313 1.08593m-3.03125-.48828l1.10156.54297m12.70312-1.54297l-5.01953 4.91797m5.01953-4.91797l2.33985.74219m-3.07031-.02734l2.33984.74218m12.04297-1.05859l-5.6914 4.1211m5.6914-4.1211l2.20312 1.07813m11.66407 1.86328l-6.80079-1.76172m6.80079 1.76172l.57421 2.38671m11.81641-.77343l-4.94922-4.98828m4.94922 4.98828l-.73047 2.34375m13.52344-1.91797l-3.90625-5.83985m3.90625 5.83985l-1.16016 2.16406m15.14063-2.73828l-5.23438-4.6914m5.23438 4.6914l-.58985 2.38281m-.17187-3.0664l-.29297 1.1914"/><g clip-path="url(#X)"><path fill="none" stroke="#000" stroke-linecap="round" stroke-linejoin="round" stroke-miterlimit="10" stroke-width=".5" d="M147.30078 372.60156l-6.60156 2.41406"/></g><path fill="none" stroke="#000" stroke-linecap="round" stroke-linejoin="round" stroke-miterlimit="10" stroke-width=".5" d="M147.30078 372.60156l1.82422 1.63672m-2.78516-1.28515l.91407.8164m13.375-1.1289L154 374.97656m6.6289-2.33594l1.8047 1.66016m-2.76954-1.32031l1.8086 1.66015m12.5703-1.67187l-6.82421 1.67969m6.82422-1.67969l1.63672 1.82813m-2.6289-1.58204l1.6328 1.82813m-2.6289-1.58594l.82031.91406m14.42188-1.62109l-6.70313 2.11719m6.70313-2.11719l1.75 1.71875m-2.72657-1.41016l1.75 1.71875m-2.72265-1.41015l1.75 1.71875m13.625-1.8789l-6.92578 1.19921m6.92578-1.19922l1.5039 1.9414m-2.51172-1.76562l1.50391 1.9375m12.8711-1.46875l-7.02735-.08594m7.02734.08594l1.125 2.1836m-2.14843-2.19532l1.125 2.1797m-2.14844-2.19142l.5625 1.08985m14.79687-1.01563l-7.02343-.1875m7.02343.1875l1.09375 2.19532m-2.11718-2.22266l.54687 1.09766m13.75781-.67579l-6.95703-.97656m6.95703.97656l.83985 2.3047m-1.85156-2.44532l.83984 2.30469m13.38281-1.67578l-6.75-1.95313m6.75 1.95313l.5039 2.40234m-1.48437-2.6875l.5039 2.40234m-1.48827-2.6875l.2539 1.20313m14.98438-.4961l-6.66406-2.22656m6.66406 2.22656l.40625 2.42188m-1.375-2.7461l.40234 2.42188m-1.375-2.7461l.20313 1.21094m15.125-.80468l-6.8086-1.74219m6.8086 1.74219l.57812 2.38281m-1.57031-2.63672l.58203 2.38281m13.82031-3.30078l-7 .60156m7-.60156l1.33594 2.0586m-2.35156-1.97266l1.33203 2.0586M307.19922 373l-6.83985 1.61328M307.19922 373l1.6211 1.84766m-2.61329-1.60938l1.61719 1.84375m12.78125-1.42578l-7.01953.30078m7.01953-.30078l1.2461 2.11719m-2.26563-2.07031l1.24218 2.11328m13.08985-1.8086l-7.01563-.39844m7.01563.39844l1.02734 2.22656m-2.04687-2.28515l1.02734 2.22656m13.26953-1.80078l-6.9375-1.13281m6.9375 1.13281l.78516 2.32031m-1.79688-2.48828l.39453 1.16406m13.97657-1.47656l-7.02735-.17187m7.02735.17187l1.09765 2.1914m-2.12109-2.21874l.55078 1.09765m13.61719-2.23437l-6.6875 2.15625m6.6875-2.15625l1.76172 1.71094m-2.73438-1.39844l.88281.85547m13.0625-1.91797l-6 3.65625m6-3.65625l2.10938 1.25m-2.98047-.71875l2.10938 1.2539m11.92968-2.01171l-5.70703 4.10546m5.70703-4.10546l2.19922 1.08593m-3.03125-.48828l2.19922 1.08594m12.05078-1.52734l-5.91015 3.79687m5.91015-3.79687l2.14063 1.19921m-3-.64843l2.14062 1.19922m12.58985.1953l-7.02735-.09374m7.02735.09375l1.125 2.17969m-2.14844-2.19532l.5625 1.08985m13.04297 1.02734l-5.5586-4.29687m5.5586 4.29687l-.41407 2.41797m13.04297-1.7461l-4.1875-5.64452m4.1875 5.64453l-1.05468 2.21875m14.48828-2.3086l-4.42188-5.46094m4.42188 5.46094l-.96094 2.25781"/><g clip-path="url(#Y)"><path fill="none" stroke="#000" stroke-linecap="round" stroke-linejoin="round" stroke-miterlimit="10" stroke-width=".5" d="M147.35156 359.4336l-6.70312 2.12109"/></g><path fill="none" stroke="#000" stroke-linecap="round" stroke-linejoin="round" stroke-miterlimit="10" stroke-width=".5" d="M147.35156 359.4336l1.75 1.71874m-2.72656-1.41015l1.7539 1.71875m-2.73046-1.41016l.8789.85938m14.41407-1.39454l-6.75 1.95704m6.75-1.95704l1.70703 1.75782m-2.6914-1.47266l1.71093 1.75781m12.46484-2.39453l-6.5039 2.66016m6.5039-2.66016l1.88672 1.5664m-2.83203-1.17968l1.88672 1.5664m12.25781-2.21093l-6.27344 3.17188m6.27344-3.17188l2.0039 1.41406m-2.91796-.95312l2.00781 1.41406m12.33984-1.61328l-6.51171 2.64844m6.51172-2.64844l1.8828 1.57422m-2.83202-1.1875l.9414.78515m13.50781-.55078l-6.8828 1.41016m6.8828-1.41016l1.56641 1.89063m-2.5664-1.6875l1.5625 1.89453m12.8125-1.71485l-7 .64063m7-.64063l1.34375 2.0547m-2.36329-1.96094l1.34375 2.05468m12.9961-1.59375l-7.01172-.46875m7.01172.46875l1.0039 2.23828m-2.02343-2.30468l1.0039 2.23828m13.32031-2.05078l-6.99218-.71094m6.99219.71094l.92578 2.27343M253 360.7461l.92578 2.27344m13.41797-2.36719l-7.01953-.3203m7.01953.3203l1.05469 2.21875m-2.07422-2.26562l.52734 1.10937m13.75781-1.83984l-6.91796 1.23828m6.91796-1.23828l1.51563 1.92969m-2.52344-1.75l1.51563 1.92969M293.64453 359l-6.35937 2.98828M293.64453 359l1.96484 1.47266m-2.88671-1.03907l1.96093 1.47266m12.19922-2.0625l-6.20312 3.30078m6.20312-3.30078l2.03516 1.36719m-2.9375-.88672l2.03515 1.36719m12.39454-1.36329l-6.62891 2.33204m6.6289-2.33204l1.8047 1.66016m-2.76954-1.32422l.90235.83203m13.51562-.65625l-6.90625 1.3047m6.90625-1.3047l1.53516 1.91407m11.79687-1.82422l-6.9375 1.125m6.9375-1.125l1.48438 1.95703m11.74218-2.35547l-6.76171 1.92578m6.76171-1.92578l1.69922 1.76953m-2.68359-1.48828l.85156.88281m13.3125-1.55078l-6.48828 2.69531m6.48828-2.6953l1.89453 1.55858m-2.83984-1.16406l1.89453 1.5586m12.21484-2.26563l-6.1914 3.32422m6.1914-3.32422l2.03907 1.36328m-2.9375-.88281l2.03906 1.36719m12.17969-1.84375l-6.19922 3.3125m6.19922-3.3125l2.03515 1.3711m-2.9375-.88673l2.03516 1.36719m12.13281-1.9414l-6.09765 3.49218m6.09765-3.49219l2.07422 1.3086m-2.96094-.80078l2.07422 1.30859m12.35547-1.33594l-6.55469 2.53516m6.5547-2.53516l1.85546 1.60547m-2.8086-1.23828l1.85547 1.60547m12.60938-1.23047l-6.94922 1.05078m6.94922-1.05078l1.46094 1.96875m-2.47266-1.8164l1.46094 1.96874m12.89453-1.8789l-7.0039.5664m7.0039-.5664l1.32031 2.0664m11.96875-1.28125l-6.95312-1.0078m5.9414.86327l.41407 1.15235"/><g clip-path="url(#Z)"><path fill="none" stroke="#000" stroke-linecap="round" stroke-linejoin="round" stroke-miterlimit="10" stroke-width=".5" d="M147.03125 345.40234l-6.0625 3.55079"/></g><path fill="none" stroke="#000" stroke-linecap="round" stroke-linejoin="round" stroke-miterlimit="10" stroke-width=".5" d="M147.03125 345.40234l2.08984 1.28907m-2.97265-.77344l2.08984 1.28906m11.4336-2.63672l-4.71485 5.21485m4.71484-5.21485l2.37891.60156m-3.0664.16016l1.1914.29688m12.375-1.39063l-3.84375 5.8789m3.84375-5.8789l2.44531.21875m-3.0039.63672l1.22265.10938m13.10547-.61329l-4.75 5.17579m4.75-5.17579l2.375.6172m-3.0664.13671l1.1875.3086m12.84375-1.03907l-4.80078 5.1289m4.80078-5.1289l2.37109.63672m-3.07031.10938l1.1875.3203m13.03515-.85937l-5.21484 4.71485m5.21484-4.71485l2.3047.83594m11.85546.875l-6.90625 1.29297m6.90625-1.29297l1.53125 1.91797m-2.53516-1.73047l1.53125 1.91797m12.8125-.96875l-6.95703-.98047m6.95703.98047l.83985 2.3086m-1.85156-2.44923l.41796 1.15235M254 347.67579l-6.95703-.9922m6.95703.9922l.83203 2.30468m-1.84375-2.44922l.41406 1.15234m13.94141-1.72656l-7.01563.4414m7.01563-.4414l1.28516 2.09375m-2.3086-2.02734l.64453 1.04297m13.5-2.0586l-6.6289 2.33985m6.6289-2.33985l1.8047 1.66016M279.5 346.34766l.90234.83203m13.1797-1.625l-6.23438 3.2461m6.23437-3.2461l2.02344 1.39062m-2.92969-.91797l2.02344 1.39063m12.01953-2.16406l-5.8789 3.84765m5.8789-3.84765l2.15234 1.17968m-3.0078-.62109l2.15234 1.1836m12.1328-1.5547l-6.10546 3.47266m6.10547-3.47265l2.07422 1.3125m-2.96094-.8086l1.03516.65625m13.58593.05078l-6.94531 1.0547m6.94531-1.0547l1.46485 1.96875m11.85156-1.98046l-6.94531 1.07421m6.9453-1.07421l1.46876 1.96484m11.85937-1.85938l-6.97265.86329m6.97265-.86329l1.41016 2.00782m-2.42578-1.88282l.70703 1.00391m13.51563-1.65625l-6.75782 1.92188m6.75782-1.92188l1.70312 1.76563m-2.6836-1.48829l1.69923 1.76954m12.28515-2.80079l-6.13281 3.42579m6.13281-3.42579l2.0625 1.32813m-2.95312-.82813l2.0625 1.32813m12.16797-1.78125l-6.1836 3.33203m6.1836-3.33203l2.04296 1.35937m-2.9414-.875l2.04297 1.35938m12.2578-1.67188l-6.35937 2.98829m6.35938-2.98829l1.96484 1.47266m-2.89062-1.03906l1.96484 1.47265m12.32422-1.80468l-6.45312 2.78515m6.45312-2.78515l1.91406 1.53515m-2.85547-1.1289l1.91797 1.53125m12.5-1.46875l-6.77734 1.84765m6.77734-1.84765l1.6836 1.78906m-2.66797-1.51953l1.67969 1.78906m12.5703-2.22266l-6.67968 2.17579m6.67969-2.17579l1.76953 1.70313m-2.73828-1.38672l1.76562 1.70313m12.51563-2.03516l-6.67188 2.20703"/><g clip-path="url(#aa)"><path fill="none" stroke="#000" stroke-linecap="round" stroke-linejoin="round" stroke-miterlimit="10" stroke-width=".5" d="M466.89844 346.07422l1.77344 1.69531"/></g><path fill="none" stroke="#000" stroke-linecap="round" stroke-linejoin="round" stroke-miterlimit="10" stroke-width=".5" d="M465.92578 346.39453l.88672.84766"/><g clip-path="url(#ab)"><path fill="none" stroke="#000" stroke-linecap="round" stroke-linejoin="round" stroke-miterlimit="10" stroke-width=".5" d="M146.86328 331.82422l-5.72656 4.07812"/></g><path fill="none" stroke="#000" stroke-linecap="round" stroke-linejoin="round" stroke-miterlimit="10" stroke-width=".5" d="M146.86328 331.82422l2.19531 1.09765m-3.03125-.5039l2.19532 1.09765m-3.02735-.5039l1.09766.54687m13.46484-2.21875l-4.88672 5.04688m4.88672-5.04688l2.35938.6797m-3.07031.05468l1.17968.33984m12.35938-1.46875l-3.91406 5.83594m3.91406-5.83594l2.4414.25m-3.0078.59766l1.21874.125m12.53516-1.05469l-3.65625 6m3.65625-6l2.44922.14063m10.87109-.13672l-3.66797 5.99219m3.13281-5.1211l1.22657.07422m13.85547.33203l-6.12891 3.4375m6.1289-3.4375l2.0625 1.32813m11.62891-.32422l-6.88281 1.42969m6.88281-1.4297l1.5664 1.88673m11.60157.05078l-6.58984-2.44531m6.58984 2.4453l.32422 2.4336m-1.28516-2.78906l.32813 2.4336m14.01953-2.28907l-6.73047-2.02344m6.73047 2.02344l.47656 2.40625m-1.45703-2.69922l.48047 2.40625m13.95703-2.9336l-7.01563-.3828m7.01563.3828l1.03125 2.22657M266.32422 334l1.03125 2.22656m13.29687-2.67578l-7 .625m7-.625l1.33594 2.0586m-2.35547-1.96875l1.33985 2.05859m12.84765-2.8789l-6.71094 2.08593m6.71094-2.08594l1.74219 1.72656m-2.71875-1.42187l1.74219 1.72656m12.35156-2.53125l-6.3125 3.08594m6.3125-3.08594l1.98437 1.4414m-2.90234-.99218l.99219.71875m13.51953-.35937l-6.8711 1.46875m6.8711-1.46875l1.57812 1.8789m-2.57812-1.66406l.78906.9375m13.57422-.86719l-6.96875.89844m6.96875-.89844l1.42188 2.0039m-2.4336-1.87108l.70703 1m13.625-1.08985l-6.98047.8125m6.98047-.8125l1.39844 2.01563m11.8789-2.27735l-6.90234 1.33594m5.89844-1.14063l.76953.95313m13.42188-1.61719L367.03125 335m6.64844-2.27344l1.79297 1.67578m11.0664-2.5703l-5.73437 4.0625m5.73437-4.0625l2.1914 1.10155m-3.02734-.51171l1.09766.55468m13.27734-.78125l-6.18359 3.33203m6.1836-3.33203l2.04296 1.36328m-2.9414-.875l1.01953.6797m13.46484-.52345l-6.72265 2.04688m6.72265-2.04688l1.73047 1.73438m-2.71094-1.4375l.8672.86719m13.5703-.40235l-7.0078.52344m7.0078-.52344l1.3086 2.07422m-2.32813-2l.65625 1.03906m13.65625-1.30468l-6.96875.90625m6.96875-.90625l1.42188 2m-2.4336-1.8672l.71094 1m13.42578-1.90233l-6.58594 2.4453m6.58594-2.4453l1.83594 1.6289m-2.79297-1.27344l1.83203 1.62891m12.2539-2.40234l-6.21484 3.28125"/><g clip-path="url(#ac)"><path fill="none" stroke="#000" stroke-linecap="round" stroke-linejoin="round" stroke-miterlimit="10" stroke-width=".5" d="M466.66797 332.22266l2.03125 1.3789"/></g><path fill="none" stroke="#000" stroke-linecap="round" stroke-linejoin="round" stroke-miterlimit="10" stroke-width=".5" d="M465.76563 332.69922l1.01562.6914"/><g clip-path="url(#ad)"><path fill="none" stroke="#000" stroke-linecap="round" stroke-linejoin="round" stroke-miterlimit="10" stroke-width=".5" d="M147.25 319.20703l-6.5 2.67969"/></g><path fill="none" stroke="#000" stroke-linecap="round" stroke-linejoin="round" stroke-miterlimit="10" stroke-width=".5" d="M147.25 319.20703l1.89063 1.5664m-2.83594-1.17577l1.89062 1.5625m-2.83594-1.17188l1.89063 1.5625m13.47266-1.86328l-6.8125 1.72266m6.8125-1.72266l1.64843 1.8164m-2.64062-1.5664l1.64844 1.8164m-2.64063-1.5664l.82422.91016m14.4414-1.53125l-6.74609 1.96093m6.7461-1.96093l1.71093 1.76171m-2.6914-1.47656l1.71094 1.76172m-2.69532-1.47656l.85547.88281m14.38281-1.58984l-6.66406 2.23437m6.66406-2.23437l1.78125 1.6875m-2.75-1.36328l1.78125 1.6914m-2.7539-1.36328l.89062.84375m14.38281-1.4336l-6.69921 2.11329m6.69922-2.11328l1.7539 1.71875m-2.72656-1.41406l1.75 1.72265m-2.72656-1.41406l.875.85937m14.46875-1.1914l-6.85547 1.55078m6.85547-1.55078l1.60156 1.85937M213.0039 320l1.60156 1.85938m12.79687-1.3125H220.375m7.02734 0l1.15235 2.16796m-2.17188-2.16796l1.15235 2.16796m13.14843-1.67578l-6.95703-.98047m6.95703.98047l.83985 2.30469m-1.85156-2.44922l.83984 2.3086m13.42578-1.83985l-6.83594-1.6289m6.83594 1.6289l.6211 2.375m-1.61329-2.61328l.61719 2.375m13.73047-2.32813l-6.91406-1.24609m6.91406 1.2461l.75 2.33593m-1.7539-2.51562l.74609 2.33594m13.6289-2.67188l-7.02344-.21484m7.02344.21484l1.08203 2.19922m-2.10547-2.23047l.54297 1.09766m13.69922-1.9922l-6.83594 1.63673m6.83594-1.63672l1.625 1.83984m-2.6211-1.60156l.8125.91797m13.47266-1.25781l-6.78125 1.83984m6.78125-1.83984l1.6797 1.78906m-2.66798-1.52344l.83985.89453m13.51562-.9414l-6.88672 1.40234m6.88672-1.40234l1.5625 1.89062m-2.5664-1.6875l1.5625 1.89063m12.66406-2.44532l-6.70313 2.10157m6.70313-2.10157l1.75 1.72266m-2.72266-1.41797l1.7461 1.72266m12.35546-2.5039l-6.32812 3.05858m6.32812-3.05859l1.98047 1.44922m-2.90234-1.0039l.98828.72265m12.88281-1.76172l-5.59765 4.2461m5.59765-4.2461l2.22657 1.02735m11.12109-.98438l-5.66406 4.15625m4.83984-3.55078l1.10547.53125m12.40234-1.79688l-4.39843 5.48047m4.39843-5.48047l2.41016.45704m10.75781-.57032l-4.10547 5.70313m4.10547-5.70313l2.42969.32813m11.08203-.17578l-4.5 5.39843m3.84375-4.61328l1.20313.2539m12.15625 4.76954l-3.27344-6.21875m2.79687 5.3164l-.6914 1.01173m16.03906-1.75l-6.38672-2.9375m5.45703 2.51171l.07031 1.22266m14.41016-3.02344l-6.85937 1.51953m6.85937-1.51953l1.59375 1.86719m-2.58984-1.64453l.79687.92969m13.10938-2.1797l-6.05078 3.57423"/><g clip-path="url(#ae)"><path fill="none" stroke="#000" stroke-linecap="round" stroke-linejoin="round" stroke-miterlimit="10" stroke-width=".5" d="M466.58594 318.76172l2.09375 1.27734"/></g><path fill="none" stroke="#000" stroke-linecap="round" stroke-linejoin="round" stroke-miterlimit="10" stroke-width=".5" d="M465.70703 319.28125l1.04688.64063"/><path fill="#00f" fill-rule="evenodd" d="M383.80078 436.57813h8.61719v-10.14454h-8.61719v10.14454"/><path fill="azure" fill-rule="evenodd" d="M385.63281 428.26563h.83203v2.82421h3.28907v-2.82421h.83203v6.48046h-.83203v-2.91406h-3.28907v2.91406h-.83203v-6.48046"/><path fill="#ff3030" fill-rule="evenodd" d="M428.8789 401.07422h7.69141v-10.14844h-7.6914v10.14844"/><path fill="azure" fill-rule="evenodd" d="M430.71094 392.76172h.83203V398.5h3.19531v.73828h-4.02734v-6.47656"/><path fill="#00f" fill-rule="evenodd" d="M366.04688 396.63281h8.61718v-10.14453h-8.61719v10.14453"/><path fill="azure" fill-rule="evenodd" d="M367.8789 388.32031h.83594v2.82422H372v-2.82422h.83203v6.48047H372v-2.91406h-3.28516v2.91406h-.83593v-6.48047"/><path fill="#ff3030" fill-rule="evenodd" d="M224.71484 370.0039h7.69141v-10.14452h-7.6914v10.14453"/><path fill="azure" fill-rule="evenodd" d="M226.54688 361.6914h.83203v5.73829h3.1953v.74219h-4.02733v-6.48047"/><path fill="#ffffe0" fill-rule="evenodd" d="M421.63281 420.92188h22.1836v-10.19141h-22.1836v10.1914"/><path fill-rule="evenodd" d="M425.13281 412.5625h.51172v6.29297h-.78906v-4.48828h-1.38672v-.55469l.5586-.0664.2539-.0547.22656-.08593.20313-.14453.17578-.20703.14062-.29688.10547-.39453m4.8164 0l.22657.01953.21875.05469.21094.08984.19531.1211.1836.14843.17187.17579.30078.42187.24219.49219.17969.54687.11328.57813.03906.58984-.03906.59375-.11328.58594-.1797.55469-.24218.5-.30078.42968-.17188.1797-.18359.15233-.19531.125-.21094.08985-.21875.0586-.22656.01952-.23047-.01953-.21875-.0586-.20703-.08983-.19922-.125-.1836-.15235-.17187-.17969-.30078-.42968-.24219-.5-.17969-.5547-.11328-.58593-.03906-.59375h.83594l.02734.5664.08203.50391.125.44141.16407.375.1914.30078.21094.22266.22266.13672.22656.04687.22656-.04687.22266-.13672.20703-.22266.1914-.30078.16407-.375.125-.4414.08203-.50391.02734-.5664-.02734-.5586-.08203-.5-.125-.4375-.16406-.36719-.19141-.28906-.20703-.21485-.22266-.1328-.22656-.04298-.22656.04297-.22266.13281-.21094.21485-.1914.28906-.16407.36719-.125.4375-.08203.5-.02734.5586h-.83594l.03906-.58985.11329-.57813.17968-.54687.24219-.49219.30078-.42188.17188-.17578.18359-.14843.19922-.1211.20703-.08984.21875-.05469.23047-.01953m4.94922 0l.23047.01953.21875.05469.20703.08984.19922.1211.18359.14843.17188.17579.30078.42187.24218.49219.1797.54687.11327.57813.03906.58984-.03906.59375-.11328.58594-.17969.55469-.24218.5-.30079.42968-.17187.1797-.1836.15233-.19921.125-.20703.08985-.21875.0586-.23047.01952-.22656-.01953-.21875-.0586-.21094-.08983-.19531-.125-.1836-.15235-.17187-.17969-.30079-.42968-.24218-.5-.17969-.5547-.11328-.58593-.03906-.59375h.83203l.03125.5664.08203.50391.125.44141.16406.375.1875.30078.21094.22266.22265.13672.22657.04687.22656-.04687.22266-.13672.21093-.22266.19141-.30078.16406-.375.125-.4414.08203-.50391.02735-.5664-.02735-.5586-.08203-.5-.125-.4375-.16406-.36719-.1914-.28906-.21094-.21485-.22266-.1328-.22656-.04298-.22656.04297-.22266.13281-.21094.21485-.1875.28906-.16406.36719-.125.4375-.08203.5-.03125.5586h-.83203l.03906-.58985.11328-.57813.17969-.54687.24219-.49219.30078-.42188.17187-.17578.1836-.14843.1953-.1211.21094-.08984.21875-.05469.22657-.01953m4.95312 0l.38672.02734.35938.08204.32421.13671.27735.1875.23047.23829.17578.28515.10547.33203.03906.375-.01953.27735-.0586.23437-.08593.19922-.11328.17188-.12891.14062-.14063.125-.28515.19531.23047.1211.20703.14453.1836.17187.15234.19531.125.21094.08984.23047.05469.2461.01953.2539-.03516.3086-.10156.32812-.17188.32422-.23828.30469-.30859.26953-.375.21484-.21094.08203-.22656.0625-.2461.03516-.26171.01562-.25781-.01562-.2422-.03516-.22265-.0625-.20703-.08203-.35938-.21484-.28906-.26953-.22265-.3047-.15625-.32421-.09375-.32813-.03125-.30859h.83593l.02344.2539.07813.23438.125.21094.16015.1875.1914.15234.21876.11329.24219.0703.2539.02735.25781-.02734.23829-.07031.21875-.11329.1953-.15234.16017-.1875.12109-.21094.07812-.23437.02735-.2539-.02735-.25392-.07812-.23437-.1211-.21094-.16015-.1875-.19531-.15234-.21875-.11328-.23829-.07031-.2578-.02735-.25391.02735-.2422.0703-.21874.11329-.1914.15234-.16016.1875-.125.21094-.07813.23438-.02344.2539h-.83593l.01953-.2539.05469-.23829.09375-.22656.12109-.20703.15625-.1914.17969-.17188.20703-.15235.23437-.1328-.28906-.19532-.13672-.125-.1289-.14063-.11329-.17187-.08984-.19922-.05469-.23437-.02344-.27735h.78907l.02344.21485.0664.1914.10156.16797.13672.14063.16797.10937.1875.08203.20703.05078.21875.01563.22266-.01563.20703-.05078.1875-.08203.16406-.10937.13672-.14063.10547-.16797.0664-.1914.02344-.21485-.02343-.21094-.06641-.1914-.10547-.16797-.13672-.14063-.16406-.10937-.1875-.08203-.20703-.05078-.22266-.01563-.21875.01563-.20703.05078-.1875.08203-.16797.10938-.13672.14062-.10156.16797-.0664.1914-.02344.21094h-.78906l.03906-.375.10937-.33203.17188-.28515.23047-.23829.28125-.1875.3203-.13671.35938-.08204.38672-.02734"/><path fill="#ffffe0" fill-rule="evenodd" d="M346.1836 358.64453h22.17968v-10.1914H346.1836v10.1914"/><path fill-rule="evenodd" d="M349.6836 350.28516h.5078v6.29687h-.78906v-4.49219h-1.38671v-.55468l.55859-.06641.2539-.05078.23047-.08985.20313-.14453.17187-.20703.14063-.29687.10937-.39453m4.8125 0l.23047.01953.21875.05469.20703.08984.19532.1211.18359.14843.17188.17578.30078.42188.24609.49218.17969.54688.10937.57812.03906.59375-.03906.58985-.10937.58594-.17969.55468-.2461.5-.30077.42969-.17188.17969-.1836.15234-.1953.125-.20704.08985-.21875.05859-.23047.01953-.23046-.01953-.21875-.0586-.20704-.08984-.1953-.125-.1875-.15234-.16798-.17969-.30469-.42969-.24218-.5-.17969-.55469-.11328-.58593-.03516-.58985h.83203l.02735.5625.08203.50391.1289.44531.16016.3711.1914.30078.21094.22265.22266.13672.22656.04688.22657-.04688.22265-.13672.21094-.22265.1914-.30078.16016-.3711.125-.44531.08203-.5039.03125-.5625-.03125-.5625-.08203-.5-.125-.4375-.16015-.36329-.19141-.29297-.21094-.21484-.22265-.13281-.22657-.04297-.22656.04297-.22265.13281-.21094.21484-.1914.29297-.16017.36328-.1289.4375-.08203.5-.02735.5625h-.83203l.03516-.59375.11328-.57812.17969-.54688.24219-.49218.30468-.42188.16797-.17578.1875-.14844.19531-.1211.20704-.08983.21875-.0547.23046-.01952m5.08985 0h.51172v6.29687h-.78907v-4.49219h-1.38671v-.55468l.55859-.06641.2539-.05078.22657-.08985.20312-.14453.17578-.20703.14063-.29687.10547-.39453m2.82422 2.17578h.78515l.02344-.3164.0586-.28517.09765-.2539.14063-.21485.17968-.17578.22266-.1289.26562-.07813.3086-.02734.23828.01953.22265.0625.20704.10156.17578.14063.15234.17187.11328.20703.07031.23438.02344.26562-.01953.26954-.0664.22265-.10938.1914-.15625.17188-.19922.16406-.25.16407-.63281.39062-.53906.3125-.4375.3164-.34375.32423-.26563.33594-.1914.35156-.125.3711-.06641.39062-.02344.42187h4.21485v-.74219h-3.33204l.08204-.28515.11328-.23438.14843-.20312.1875-.17969.23047-.17188.27735-.17578.71875-.41796.41406-.20313.34765-.23047.28125-.2539.21875-.26563.16407-.27734.10937-.28516.0625-.28516.02344-.28125-.04297-.3828-.1211-.34767-.1875-.30859-.25-.26172-.30468-.21484-.34375-.15625-.38281-.09766-.40625-.03515-.4336.03125-.39843.10156-.35547.16406-.30469.23438-.2461.30468-.1875.375-.11718.44532-.03906.51953"/><path fill="#ffffe0" fill-rule="evenodd" d="M190.83984 332.14844h22.1797v-10.1914h-22.1797v10.1914"/><path fill-rule="evenodd" d="M194.33984 323.78906h.50782v6.29297h-.78516v-4.48828h-1.39063v-.55469l.5625-.0664.25-.0547.23047-.08593.20313-.14453.17578-.20703.14063-.29688.10546-.39453m4.8125 0l.23047.01953.21875.0547.20703.08983.19532.1211.1875.14844.16797.17578.30468.42187.24219.49219.17969.54688.11328.57812.03516.58984-.03516.59375-.11328.58594-.17969.55469-.24219.5-.30469.42969-.16796.17968-.1875.15235-.19532.125-.20703.08984-.21875.0586-.23047.01953-.23047-.01954-.21875-.05859-.20703-.08984-.1953-.125-.1836-.15235-.17188-.17968-.30078-.4297-.2461-.5-.17968-.55468-.10938-.58594-.03906-.59375h.83203l.03125.56641.08203.5039.125.44141.16016.375.1914.30078.21095.22266.22265.13672.22656.04687.22657-.04687.22265-.13672.21094-.22266.1914-.30078.16016-.375.1289-.4414.08204-.50391.02734-.5664-.02734-.5586-.08203-.5-.1289-.4375-.16016-.36719-.19141-.28906-.21094-.21484-.22265-.13282-.22657-.04296-.22656.04296-.22266.13282-.21093.21484-.1914.28906-.16017.36719-.125.4375-.08203.5-.03125.5586h-.83203l.03906-.58985.10938-.57813.17969-.54687.2461-.49219.30077-.42187.17188-.17578.1836-.14844.1953-.1211.20703-.08984.21875-.05469.23047-.01953m5.09375 0h.50782v6.29297h-.78907v-4.48828h-1.38672v-.55469l.5586-.0664.2539-.0547.23047-.08593.20313-.14453.17187-.20703.14063-.29688.10937-.39453m2.82032 2.17578h.78906l.01953-.3164.0586-.28516.09765-.2539.14063-.21485.18359-.17578.22266-.1289.26562-.07813.3086-.02735.23437.01954.22656.0625.20313.10156.17968.14062.14844.17188.11328.20703.07031.23438.02735.26562-.02344.26953-.0664.22266-.10938.1914-.15625.17188-.19922.16406-.2461.16406-.63671.39063-.53516.3125-.4375.3164-.34765.32422-.26563.33594-.1875.35156-.125.3672-.07031.39452-.01953.41797h4.21094v-.73828h-3.33204l.08203-.28516.11329-.23437.14843-.20313.1875-.17968.23047-.17188.28125-.17578.71485-.41797.41406-.20312.34766-.23047.28125-.2539.21875-.26563.16406-.27735.10937-.28515.0664-.28516.01954-.28125-.04297-.38281-.1211-.34766-.1875-.3086-.25-.26171-.30468-.21485-.34375-.15625-.3789-.09765-.40626-.03516-.4375.03125-.39843.10156-.35547.16407-.30469.23437-.2461.30469-.1875.375-.11327.44531-.04297.51953"/><path fill="#ffffe0" fill-rule="evenodd" d="M150.89453 471.64453h22.17969v-10.1914h-22.17969v10.1914"/><path fill-rule="evenodd" d="M154.39453 463.28516h.50781v6.29687h-.78515v-4.49219h-1.39063v-.55468l.5625-.0625.25-.0547.23047-.08983.20313-.14063.17578-.21094.14062-.29687.10547-.39453m4.8125 0l.23047.01953.21875.05469.20703.08984.19531.1211.1875.14843.16797.17578.30469.42188.24219.49218.17969.54688.11328.57812.03515.59375-.03515.59375-.11328.58204-.1797.55468-.24218.5-.30469.42969-.16797.17969-.1875.15234-.1953.125-.20704.08985-.21875.05859-.23047.01953-.23047-.01953-.21875-.0586-.20703-.08984-.19531-.125-.1836-.15234L158 469.1875l-.30078-.42969-.2461-.5-.17968-.55469-.10938-.58203-.03906-.59375h.83203l.03125.5625.08203.50391.125.44531.16016.375.1914.30078.21094.21875.22266.13672.22656.04688.22656-.04688.22266-.13672.21094-.21875.1914-.30078.16016-.375.1289-.44531.08204-.5039.02734-.5625-.02734-.5625-.08203-.5-.12891-.4375-.16016-.36329-.1914-.29297-.21094-.21484-.22266-.13281-.22656-.04297-.22656.04297-.22266.13281-.21094.21484-.1914.29297-.16016.36328-.125.4375-.08203.5-.03125.5625h-.83203l.03906-.59375.10938-.57812.17969-.54688.24609-.49218.30078-.42188.17188-.17578.18359-.14844.19531-.1211.20703-.08983.21875-.0547.23047-.01952m5.09375 0h.50781v6.29687h-.78906v-4.49219h-1.38672v-.55468l.5586-.0625.2539-.0547.23047-.08983.20313-.14063.17187-.21094.14453-.29687.10547-.39453m2.82031 2.17578h.78907l.01953-.3164.0586-.28517.09765-.2539.14062-.21485.1836-.17187.22265-.1289.26563-.08204.3086-.02734.23437.01953.22656.0625.20312.10156.1797.14063.14843.17187.11328.20703.07031.23438.02735.26562-.02344.26954-.0664.22265-.10938.1914-.15625.17188-.19922.16406-.2461.16407-.63671.39062-.53516.3125-.4375.3164-.34766.32423-.26172.33594-.1914.35156-.125.3711-.07031.39062-.01953.42187h4.21093v-.74219h-3.33203l.08203-.28515.11328-.23438.14844-.20312.1875-.17969.23047-.17188.28125-.17578.71484-.41406.41797-.20703.34375-.23047.28125-.25.21875-.26953.16406-.27734.10938-.28516.0664-.28516.01954-.28125-.04297-.3828-.1211-.34767-.1875-.30859-.25-.26172-.30078-.21094-.34765-.16015-.3789-.09766-.40626-.03515-.4375.03515-.39844.09766-.35547.16797-.30468.23437-.2461.30078-.1875.375-.11328.44532-.04297.51953"/></g></defs><use xlink:href="#af"/></svg>