<svg xmlns="http://www.w3.org/2000/svg" role="img" xmlns:xlink="http://www.w3.org/1999/xlink" viewBox="142.45 309.95 326.84 171.84"><defs><clipPath id="a"><path d="M144 311.67188h1v168.65625h-1zm0 0"/></clipPath><clipPath id="b"><path d="M144 311.67188h324v168.65625H144zm0 0"/></clipPath><clipPath id="c"><path d="M467 311.67188h1v168.65625h-1zm0 0"/></clipPath><clipPath id="d"><path d="M144 479h4v1.32813h-4zm0 0"/></clipPath><clipPath id="e"><path d="M146 479h2v1.32813h-2zm0 0"/></clipPath><clipPath id="f"><path d="M153 479h9v1.32813h-9zm0 0"/></clipPath><clipPath id="g"><path d="M160 479h3v1.32813h-3zm0 0"/></clipPath><clipPath id="h"><path d="M166 479h9v1.32813h-9zm0 0"/></clipPath><clipPath id="i"><path d="M173 480h3v.32813h-3zm0 0"/></clipPath><clipPath id="j"><path d="M180 479h8v1.32813h-8zm0 0"/></clipPath><clipPath id="k"><path d="M187 480h2v.32813h-2zm0 0"/></clipPath><clipPath id="l"><path d="M193 479h8v1.32813h-8zm0 0"/></clipPath><clipPath id="m"><path d="M200 480h2v.32813h-2zm0 0"/></clipPath><clipPath id="n"><path d="M206 479h9v1.32813h-9zm0 0"/></clipPath><clipPath id="o"><path d="M213 479h3v1.32813h-3zm0 0"/></clipPath><clipPath id="p"><path d="M220 479h8v1.32813h-8zm0 0"/></clipPath><clipPath id="q"><path d="M227 479h3v1.32813h-3zm0 0"/></clipPath><clipPath id="r"><path d="M233 480h8v.32813h-8zm0 0"/></clipPath><clipPath id="s"><path d="M240 480h3v.32813h-3zm0 0"/></clipPath><clipPath id="t"><path d="M246 479h9v1.32813h-9zm0 0"/></clipPath><clipPath id="u"><path d="M253 480h2v.32813h-2zm0 0"/></clipPath><clipPath id="v"><path d="M260 479h8v1.32813h-8zm0 0"/></clipPath><clipPath id="w"><path d="M266 480h1v.32813h-1zm0 0"/></clipPath><clipPath id="x"><path d="M273 479h8v1.32813h-8zm0 0"/></clipPath><clipPath id="y"><path d="M279 480h2v.32813h-2zm0 0"/></clipPath><clipPath id="z"><path d="M286 479h9v1.32813h-9zm0 0"/></clipPath><clipPath id="A"><path d="M292 480h2v.32813h-2zm0 0"/></clipPath><clipPath id="B"><path d="M300 479h8v1.32813h-8zm0 0"/></clipPath><clipPath id="C"><path d="M306 479h2v1.32813h-2zm0 0"/></clipPath><clipPath id="D"><path d="M313 478h8v2.32813h-8zm0 0"/></clipPath><clipPath id="E"><path d="M319 479h2v1.32813h-2zm0 0"/></clipPath><clipPath id="F"><path d="M327 478h7v2.32813h-7zm0 0"/></clipPath><clipPath id="G"><path d="M332 478h2v2.32813h-2zm0 0"/></clipPath><clipPath id="H"><path d="M339 479h9v1.32813h-9zm0 0"/></clipPath><clipPath id="I"><path d="M345 480h2v.32813h-2zm0 0"/></clipPath><clipPath id="J"><path d="M353 478h8v2.32813h-8zm0 0"/></clipPath><clipPath id="K"><path d="M367 477h6v3.32813h-6zm0 0"/></clipPath><clipPath id="L"><path d="M379 479h9v1.32813h-9zm0 0"/></clipPath><clipPath id="M"><path d="M385 480h2v.32813h-2zm0 0"/></clipPath><clipPath id="N"><path d="M394 477h6v3.32813h-6zm0 0"/></clipPath><clipPath id="O"><path d="M408 477h5v3.32813h-5zm0 0"/></clipPath><clipPath id="P"><path d="M420 477h7v3.32813h-7zm0 0"/></clipPath><clipPath id="Q"><path d="M434 477h6v3.32813h-6zm0 0"/></clipPath><clipPath id="R"><path d="M447 477h7v3.32813h-7zm0 0"/></clipPath><clipPath id="S"><path d="M460 477h7v3.32813h-7zm0 0"/></clipPath><clipPath id="T"><path d="M144 466h4v2h-4zm0 0"/></clipPath><clipPath id="U"><path d="M144 453h4v2h-4zm0 0"/></clipPath><clipPath id="V"><path d="M144 439h4v2h-4zm0 0"/></clipPath><clipPath id="W"><path d="M144 426h4v2h-4zm0 0"/></clipPath><clipPath id="X"><path d="M144 412h4v3h-4zm0 0"/></clipPath><clipPath id="Y"><path d="M144 399h4v3h-4zm0 0"/></clipPath><clipPath id="Z"><path d="M144 384h3v6h-3zm0 0"/></clipPath><clipPath id="aa"><path d="M144 372h4v3h-4zm0 0"/></clipPath><clipPath id="ab"><path d="M144 359h4v3h-4zm0 0"/></clipPath><clipPath id="ac"><path d="M144 344h4v6h-4zm0 0"/></clipPath><clipPath id="ad"><path d="M466 345h2v3h-2zm0 0"/></clipPath><clipPath id="ae"><path d="M144 331h4v6h-4zm0 0"/></clipPath><clipPath id="af"><path d="M466 331h2v3h-2zm0 0"/></clipPath><clipPath id="ag"><path d="M144 319h4v4h-4zm0 0"/></clipPath><clipPath id="ah"><path d="M466 318h2v3h-2zm0 0"/></clipPath><g id="ai" clip-path="url(#clip1)"><path fill="#fff" fill-opacity="0" fill-rule="evenodd" d="M0 0h1000v1000H0zm0 0"/><path fill="#d3d3d3" fill-opacity="0" fill-rule="evenodd" d="M162.15234 355.86719l-.23437.29297.0586.23437.11718.17188.17578.23437.29297.34766.11328.0586.11719-.17188.0586-.23438.17577-.17578.46485-.17578h.69922l.23437.29297.28906.8164.0586.17579.17578.23046.35156.23438.69922.69922.17188.17578.23437.34765.23438.41016.28906.58203.41015.46485.23047.23437.23438.17578.11719.23047.17578.29297.17187 1.16406v.23438l.0586.28906.05859.11719.11719.11719.34765.41015.11719.17188.17578.17578.17578.23437.11719.17188.17188.35156.05859.23438.23437.40625.23438-.0586-.17578.17578-.0586.92969h-.58203l-.23437-.11328-.34766.11328-.11719.11719-.05859.29297-.0586.17578-.11718.17187-.46484.29297-.0586.23438-.0586.11328v.64453l.0586.17187v.41016l.0586.0586v.40624l.05859.40625.11719.17579.05859.05859.23047.64062-.0586.29297v.69922l-.05859.58203v.23438l-.0586.23047-.05468.35156v1.92187l.05469.1172h.42578l-.36719.11718-.02344.35156.89063 1.16797 1.74219.53906 1.33984.35938v.53906l.08984.8086.53516.71484 1.51953.26953.89063-.08594.08984 1.16406.53516.1797 1.16015-.1797 2.05469-.98437 1.16016-.36328 1.8789-.17578 1.69531-.1797-.17968.71876-1.51563.08594-1.25.08984-.80469.26953-1.07421.8086.26953.71875.53515.89843-.17968.625-.26563.8086.26563 1.07812.625.89844.80468.17969 1.25-.1797-.26562.72267.09766.5039.05468.29297v.17188l.0586.29296v.40625l.17578.1172.35156.11718h.40625l.29297-.17578.11328-.11719.0586-.11719.11718-.23047.0586-.17578.35156-.46484.23047-.17578.17578-.0586.17578.0586.0586.17578.11718.98828.05469.46875.0586.17188.11718.23437.17578.0586.8164.05859h.28907l.11719.23437.05859.40625.0586.35156v1.10547l.11718.29297.11719.34766.28906.69922.17578.35156.58203.7539.35157.17579.17187.0586.46875.23437.64063.46484.34765.23438.29297.17578.29297.05468.23047.0625.8164.34766.29297.17578.11328.17188.35157.35156.11719.17578.52343.64063v.28906l.0586.35156v.34766l.05859.35156.0586.28906.11718.0586.17188.05859h.17578l.58203.23437.17578.1172.17578.28905.17578.23438.11328.23437.29297.23047.11719.11719v.41016l.0586.05468.28906.23438.23437.11719.0586.11718.11718.17188.0586.11719.23047.23437.05859.17578.23437.0586.1172.05859-.1172.11328-.05859.11719v.11719l-.11719.29296-.11719.28907v.58203l.17579.11719.11718.05859.0586.11719.11719.11719.11328.05859.17578.34765.0586.35157.05858.40625v.17578l-.05859.17578-.11719.69922v.17187l.1172.17579.29296.29296h.40625l.17578.1172.11719.17187.11719.29296v.23438h-.52735l-.23047-.23438h-.23437l-.17578.0586-.0586.69922.0586.34765.11719.17579.17578.41015.11718.23047.28907.46875.17578.05469h.52344l.23437.0586.75781.64062.0586.29296v.23438l.05859.0586.23047.34765v.35156l-.11719.17188v.29297l.29297.28906.29297.17578.17187.0586.29297.17577.29297.1172.58203.40624.28906.23438.29297.17578.21875.16015.01563.01172.23047.17579.64062.52343.17578.23438.1172.17578.17577.17578.11328.17188v.64062l.1172.17578.46874.11719.58203.11719.23438.05859.23047.11328.29297.11719.11328.0586.58593.35156.28907.17187.17578.0625.17578.05469.17578.0586.69922.35155.28906.17579.23438.05468.28906.17578.23437.1172.64063.40624.29297.11719.17187.0586.23438.05859.41015.05859.23047.0586.23438.11718.0586.17188-.41017.17578.46875.0586.0586.29296.11328.23438.17578.05468.23438.0586.17578.05859.40625.11719.64062.23437.11719.17188.0586.23437v.17578l-.0586.1172-.0586.40624.23438.23438.11719.05859.34766.11719.64062.23047.17578.11718.28906.1172.17578.17577.23438.46485.58203 1.10546.17578.17579.34766.17578.17578.11719.35156.11718 1.04688.52344.23437.0586.46485.11327.29297.0586.46484.17578.75781.58203.23438.23438.34765.46484.17578.17578.28907.23438.8164.69921.29297.17579.28906.28906.29297.17578.29297.28906.69531.64063.17578.17578.29297.23437.28907.23438.46875.28906.64062.58203.34766.23438.23437.29297.34766.34765.35156.46485.9336.99218.34765.40625.11719.17579.23437.05859.11328.11719.64454.17578.23047.11328.23437.0586.29297.17577.23047.1172.9336.69921.40624.40625.23438.17578.40625.17578.23437.11719.8164.34766.34766.23437.23438.11719.29297.28906.23047.11719.7578.35156.35157.17188.23047.05859.29297.11719.23437.0586.8711.17577h.8164l.46875.23047.17188.0586.875.69921.46484.1172.29297.05858.17578.0586.23047.0586.46875.05859.34766.05859.35156.0586.40625.05859h.29297l.17187.0586v.23046l.17578.17578h.29297l.34766.0586.35156.05859.69922.11719h.64063l.46484-.23438.29297-.17578.17187-.11719.41016-.17187.28906-.17578.9336-.46485.46875-.29297.52343-.29296.46485-.17188.46484-.17578 1.05078-.46485.28906-.11718.41016-.11719.28906-.11719.52735-.17578 1.51562-.69922.58203-.34765.28907-.0586.29297-.0586.34765-.11718.875-.23047.35156-.11719h.11329l.23437-.05859.875-.23437.23438-.0586h.8125l.35156-.0586.8164-.11718.17188-.0586.35156-.05468.29297-.0586.23047-.05859.8164-.17578.17579-.0586h.34765l.23438-.05859.46484-.11718.75781-.17188.23438-.0586h.34765l.41016-.11718.28906-.0586 1.28516-.05859h.28906l.41016-.0586.23047-.05858h.17578l.875-.1172h.40625l.41015-.11718h.34766l.35156-.11328.8711-.0586h1.75l1.04687.28907.41016.11719.28906.11718.35156.11719.28907.11719 1.05078.17187.28906.0586h.29297l.29297.05859.17187.0586.41016.05859.17187.0586.1172.05858h.11718l.11719.0586.35156.0586h.11328l.41016.0664 1.92187.39453 1.92578.39453 1.51953.44922 1.69532.71875 2.14453.80469 1.60547-.71875 1.42968-.80469 1.16016-1.07813 1.25-.44921 3.03516-.71875 1.875-.35938 2.14453-1.34765 2.23437-1.25391 2.5-1.25781 1.69531-.44922 1.78516-.17969 1.16016-.26953.625.53906 1.33984-.26953.71485-.98828.98437-1.34375.44531-.17969.80469-.35937 1.875-.53907 1.78516-.44921 1.25-.26954 1.16015-.08984 1.69922-.08984 1.96094-.26954 1.25-.08984h.53906l.625-.08984h.89063l2.14453-.17969 2.41015-.17969 2.58985-.08984 1.69531.17969 1.60938.08984 1.42968.35938 1.16016.71875 1.875.98828 1.16015 1.52734.26563.71484.6289.08985.35548.89844.53515.53906.53516 1.52734 1.07422.35938h.53515l-.80469.53515.08985 1.70703.71484 2.69532.89063.80468.89453.98829.71484 1.2578 1.78516.53907 1.51953-.17969.35547 1.34375 1.60937-.80469.98047-.53906.26953.26953.31641-.21484.21875-.14453.80078.44922.44922-.35938h.35547l.53515-.26953.53907-.71875.53515-.26953.625-.98828 1.16016.44922.83984.3711 1.39454.61718 1.6953-.17969h1.60548l1.78515.08985.17969-1.70704.53516-1.34375.80468.26954.4922.84765.40233.40625-.08984.53906v.35938l.71485.44922.71093-.26953h1.42969l.35938.98828.4453 1.25781.71485 1.34375 1.25.6289 1.69531.62891.71485-.17969.17969-.53906.98046-.08984.44922.35937.08594 1.25782-.26563.6289-.53515.17969v.53906l.71484.98438.26563.53906.98437.98828.80078 1.07813-.26562.35937-.08985.89844-.625 2.33203-.35546 2.0664-.08985 1.79298-.17969.71875-.08984.53906v1.4375l-.98047 1.88281-.35937 1.70703-.53516.89844-.80469 1.16797-.26562.53906 2.05469 1.2539.08593.35938-.35546.53906-.08985-.17968v.80859l.08985 1.4375-.44532.71484-1.07422.09375-.26562.71485.53515.89844.8047.71875 1.16015.80859 1.33984.26953.44531.35938-.35546.44921-1.78907-.08984-1.25-.44922-.71484-.71875-.625-.08984-.17578 3.58984-.1875 1.3086h89.35937V311.70313h-55.26953v49.08203l.76172.125 3.28906.54296 2.02344 2.83594v2.7539l2.35156.33204 2.34766.33203h4.05078l-1.3789 4.16016-2.02344.70703-2.02344.70312-.54297.34375-2.59375 1.6172-.1875.11718-2.02344-2.07813-.73046-2.74218-2.67188-2.07813-1.375-3.5-.0664-.08203-1.95704-2.67188 2.75-1.41796v-49.08204H294.42187v91.41407l.1172.03125.1328.01172.07422.07421.10547.04688.08985.0586.08593.05859.08985.0586.29687.29687.0586.08984.03125.11719.02734.11719.01563.13671-.03125.1172-.0586.08983-.0586.08594-.04296.10547-.04688.10156-.02734.1211v.14453l.17578.26953.14844.14844.07422.08594.07422.07421.04296.10547.0625.08985.0586.08593.04297.10547.0586.08985.04687.10156.04296.10547.0586.08594.11719.17968.07421.07422.0625.08594.0586.08984.04297.10547.0586.08985.05858.08593.0625.08985.0586.08984.04297.10156.11719.17969.07421.07422.0586.08594.07422.07421.08984.0586.10547.04687h.14844l.1328-.01562.13282.01562.10156-.04687.07422-.07422.04688-.10156-.01563-.13281v-.14844l-.04687-.10547-.02735-.11719-.04687-.10156-.02735-.1211-.04296-.10156-.0625-.08984-.04297-.10156-.04297-.10547-.03125-.11719-.01563-.13281-.01171-.13672.08593-.0586.0586-.08593.12109-.03125.04297.10547.01562.1328v.1172l.0586.10156.0586.08984.08983.0586.14844.14843.0586.08985.04296.10547-.01171.10156.08593.0586.10547.04687.08594.0586.08984.05858.07422.07422-.11719.02735-.10546.04687-.08594.0586-.07422.07421-.0586.08985-.0625.08594-.02734.12109-.04687.10156-.04297.10547-.03125.11719-.01172.13281-.01563.13281v.14844l.02735.11719.04687.10547.04297.10156.0586.08984.07421.07422.08985.0586.07422.07421.08984.0586.0586.08984.04296.10547.04688.10156.11719.03125.1328.01563h.14845l.11718-.03125.10547.04297.04297.10547.04688.10156.02734.1211L299.5 410l.02734.11719.03125.1211.02735.11718.10547.04297.10156.04687.13281-.01562.14844.14844.0625.08593.07422.07422.07031.07422.08984.0625.10547.04297.10156.04297.1172.03125.13671.01562.11719-.03125.07422-.07422.02734-.11718-.01172-.13282-.03125-.12109-.02734-.11719.04297-.10547h.11719l.08984.0625.11719.02735h.14843l.13282.01562h.14843l.13282.01563.1328-.01563h.14845l.1328-.01562.13282-.01172.13672.01172.11719-.02735.13281-.01562.1914-.0586-.05859.17579-.01562.1328-.02735.1211-.01562.13281-.0586.08594-.1328.01563-.10548.04687-.10546.04297-.1172.03125-.11718.02735-.26563.03125h-.14843l-.13281.01562-.07422.07422.05859.08594.14844.14843.11719.1797.07421.0703.08985.0625.08984.0586.08594.0586.08984.05858.10156.04297.10547.0625.10547.04297.08594.0586.10547.04687.10156.04297.17969.11719.0586.08984-.04298.10156-.04687.10547.01562.13281.22266.22266.0586.08985.04296.10156.03125.1211.04297.10155.01563.13282.03125.11718.01171.13672.03125.11719.14844.14844.10156.04297.10547.04296.1172.03125.1328.01563.13672.01563h.11719l.11719-.03125.08984-.0586.04297-.10547.04688-.10156.04296-.10547.03125-.11719.01172-.1328v-.14845l-.01172-.1328-.01562-.13282-.03125-.11719-.04297-.10547-.04688-.10547-.04296-.10156-.04297-.10547-.01563-.13281.01563-.13281.02734-.11719.03125-.11719.02735-.1211.04687-.10155.08984-.0586.08594-.0625.07422-.07422.08984-.05859.22266-.22266.0586-.08593.07421-.07422.11719-.17969.0586-.08594v-.14844l-.07423-.07421-.10156-.04688-.10547-.04297-.10156-.04297-.0586-.08984-.04687-.10547-.02734-.11719.08984-.05859.11719-.03125.10156-.04297.17969-.11719.14844-.14843.01172-.13282-.01172-.10546-.08985-.0586-.1328.01563h-.14845l-.1328.01562-.13282-.01562-.1211-.03125-.08593-.0586-.07422-.07422-.0586-.08984-.0625-.08594-.11718-.17969-.0586-.08593.03125-.1211.08594-.05859.1211-.03125.05859-.08594v-.1211l-.03125-.11718-.0586-.08984-.05859-.08594-.04687-.10547-.02735-.11719-.01562-.1328.0586-.08985.07421-.07422.08984-.0586.1172-.17968.07421-.07422.0586-.08594.14843-.14844.1211-.03125.1328-.01562.13282.01562.07422.07422.04297.10547.01562.13281-.03125.1172-.11719.03124-.1328.01172-.14844.14844-.04297.10547-.04688.10156-.02734.1211-.03125.11718v.14844l.03125.11719.04297.10546.05859.08985.07422.07031.07422.07422.11719.03125.12109.02734.11719-.02734.1328-.01563h.1172l.08984.0586.07422.07422.04687.10546.0586.08594.10156.04688.13281.01562.10547.04297.08594.0586-.01172.10546-.07422.07422-.17969.11719-.05859.08984-.08984.0586-.07032.07422-.07421.07421-.0625.08985-.02735.11719-.01562.1328.01562.13282-.01562.13281v.14844l.01562.13281.02735.1172.03125.12108.07421.07422.08985.0586.08594.0586.08984.05858.11719.03125v.08594l-.10157.04688-.08984.0586-.26563.03124-.11718.02735h-.14844l-.10547.04296-.10156.04688-.0586.08984-.0625.23438-.01171.13281-.03125.1211-.01563.1328v.29298l-.01172.1328.01172.13673.01563.1328.1328.01563.13282.01172.1211.03125.08593.0586.07422.07421.04688.10547.04296.10157.01563.1328v.44532l-.01563.13281v.44532l.03125.26562.02735.11719.01562.13281.03125.11719.08594.21094.03125.26562v.14844l-.03125.11719-.02734.11718-.03125.1211-.02735.11719-.03125.11718-.03125.1211-.01171.1328-.01563.13282.08984.0586.1172-.03125.10155.01562.04688.10547-.03125.26562v.44141l-.04297.10547-.04688.10547-.04296.10156-.04297.10547-.0586.08594-.03125.12109-.04296.11719-.03125.11719-.01563.1328.01563.13282.05859.08984.10547.04688.08594.0586.05859.08593-.01172.13672-.03125.11719-.04297.10156v.44531l-.01562.13281v.14844l-.03125.11719-.04297.10547-.02735.11719-.04687.10546-.04297.10157-.03125.12109-.02734.11719-.03125.13281-.03125.11719-.02735.11719-.04297.10546-.03125.1172-.03125.12108-.01171.13282-.01563.13281v.29688l.02734.11718v.14844l.04688.39844.02734.11719.0586.08984.12109.03125h.14844l.13281-.01563.0586.08985v.11719l-.0586.08984-.08984.0586-.10157.04296-.10546.04688-.08985.05859-.08594.0586-.13671.01562-.1172-.03125-.1328-.01563-.10157.04688-.0625.08594-.01172.13671-.01562.13282-.03125.11719-.02735.11718-.01562.13281-.03125.1211v.29687l.01563.13282.03125.11718v.14844l.01171.13281v.14844l-.02734.11719-.04688.10156-.02734.1211-.03125.11718-.0586.08985-.07421.07421-.10156.04297-.10547.04688-.11719.02734-.1211.03125-.10156-.04687.0586-.08594.10547-.04688.02734-.11718.03125-.11719.02734-.1211.03125-.11718v-.14844l.01563-.13281-.03125-.11719-.04297-.10547-.10547.01563-.07422.07422-.10156.04296-.08984.0625-.07422.07422-.04297.10157-.01563.1328-.03125.1172L304.25 426l-.03125.11719-.02734.11719-.03125.12109-.02735.11719-.03125.11718-.04297.10547-.08984.0586h-.08984l-.1172-.03125-.03124-.08594.01562-.13672-.03125-.11719v-.14844l-.01171-.1328v-.14844l-.0625-.23438-.02735-.1211-.04297-.10156-.04687-.10546-.0586-.08594-.05859-.08985-.04297-.10546-.0625-.08594-.14844-.14844-.0703-.07422-.10548-.04687-.10547-.04297-.10156-.04297-.29687-.29688-.08985-.07421-.08594-.0586-.10546-.04297-.08985-.0625-.08594-.0586-.10546-.04296-.08985-.0586-.08594-.0625-.07421-.0703-.10547-.04688-.08594-.0586-.10547-.04296-.08984-.0625-.10156-.04297-.10547-.04297-.08594-.0586-.10547-.04687-.10547-.04297-.10156-.04687-.08985-.0586-.10156-.04297-.10547-.04296-.08984-.0625-.11719-.02735-.13281-.01562-.13281.01562H299.75l-.13281.01563-.11719-.03125-.08984-.0586-.07422-.07422-.08985-.05859-.10156-.04688h-.14844l-.12109-.02734-.10156-.04297-.07422-.07422-.11719-.17968-.08984-.0586-.10156-.04297-.08985-.0625-.10547-.04296-.08984-.0586-.08594-.0586-.10547-.04687-.0586-.08594-.05858-.08984-.04297-.10547-.04688-.10156-.07422-.07422-.08594-.0586-.07421-.07421-.08985-.0586-.22265-.22265-.04297-.10547-.03125-.26563.10547-.04296h.14453l.10547.04296.07421.07422.08985.0586.08594.0586.10546.04687.08985.05859.14844.14844.0703.07422.14845.14843.0625.08594.07421.07422.08594.0586.07422.07421.08985.0625.08984.0586.08594.05859.26953.17578.10156.04688.10547.04296.10156.04297.04688-.07421.05859-.08594.07422-.07422.07031-.07422.10547.04297.07422.07422.0586.08984.04296.10156.04688.10547.04296.10547.1211.02735.11719-.02735.07421-.08984.04297-.10547.0586-.08985.07422-.07421.10546-.04297.1172-.02735.1328.01172.08985.0586.14844.14843.05859.08985.04297.10547.04687.10156.04297.10547.04297.10156.10547.04688.10547.04296.13281.01563.08594-.0586.0586-.08984.07421-.07422.10547-.04297.11719.02735.10547.04687.10156.04297.10547.04297.10156.04688.17969.11718v.11719l-.01563.13281.01563.13281.01562.13672.0586.08594.10156.04688.1211.02734.11718.03125h.14844l.11719-.03125.05859-.08984.17969-.1172.05859-.08983.07422-.07422.0586-.08594.11718-.17969.17969-.11719.11719.03125.08984.0586.04297.07422-.01563.1328v.1172l.08985.05859h.14843l.13282-.01563.1328-.01171.26563-.03125.10547-.04297.11719-.03125.1211-.02735.07421-.07421.07031-.07422.0625-.08985-.01562-.10547-.04688-.10156-.10156-.04297-.10547-.01562-.11718.02734-.26563.03125h-.14844l-.07421-.07422-.08985-.0586-.11719-.03124-.11718-.02735-.13282-.01562h-.14843l-.13282.01563h-.29687l-.10547-.04688-.14844-.14844-.04297-.10156-.05859-.08984.22266-.22266.08593-.0586.10547-.04296.11719-.03125.13281-.01563.13281.01563.13672.01562.10157.04297.1328-.01172.08985-.0625.10156-.04297.0625-.08984-.04687-.10156-.08984-.0586-.1172-.03125-.10155-.04296-.0586-.08985-.0625-.08984v-.11719l.01563-.13281.10547-.04688.07421-.07031v-.1211l-.08984-.05859-.03125-.11719.08985-.05859.07421-.07422.04297-.10547.0586-.08984.04687-.10156.01563-.13281v-.14844l-.04688-.10547-.04297-.10156-.08984-.0586-.13281-.01562-.10157-.04297-.13671-.01563-.1172-.03125h-.4453l-.13282-.01562-.13281-.01172-.13281-.01563-.11719-.03125h-.14844l-.13281-.01562-.13281-.01172-.26563-.03125-.1211-.04297-.08593-.0586-.07422-.07421v-.14844l.01172-.13281.10547-.04688.10156-.04296.13281-.01563h.15235l.13281-.01562h.29297l.1211.03125.10156.04296.08984.0586.23438.0625.12109-.04688.08984-.05859.10156-.04297.13282-.01562.10547.04296.10156.04688.13281.01172.1211-.02735h.14453l.12109-.03125.11719-.02734.10547-.04687.07421-.07422.08594-.0586.14844-.14843.0586-.08594.04687-.10547.02734-.11719.01563-.10547-.10156-.04296-.08985-.0586-.11719-.03125-.10546-.04297-.08985-.0625-.07422-.08594-.07422-.07421-.10156-.04297-.10547-.04688-.10156-.04297-.0586-.08984-.04687-.10156-.08594-.21094-.0625-.08594-.05859-.08984-.07422-.07422-.08594-.0586h-.26953l-.11719.03126-.08984.05859-.10156.04297-.13281.01562-.10547-.01562-.02735-.11719-.0625-.08984-.11718-.03125-.10157-.04297-.14843-.14844-.03125-.11719-.01563-.10546.07422-.07422.17969-.1172.11719-.02733.11718-.03125.13672.01562.10156.04297.10547.04297.10156.04687.10547.04297.1172.03125.1328.01563.1172.02734.1328.01563.10547-.01563.08985-.0586-.07422-.07421-.10547-.04297-.07422-.07422-.07422-.08984-.14844-.14844-.08593-.0586-.08985-.05859-.07422-.07422-.08984-.0586-.10156-.04687-.1211-.02734-.10156-.04688-.10547-.04296-.11719-.03125-.10156-.04297-.1211-.03125h-.14843l-.11719.03125-.10546.04297-.08594.0625-.17969.11718-.08594.0586-.08984.0586-.10547.04687-.08594.05859-.10547.04297-.10156.04297-.10547.04687-.07422.07422-.05859.08985-.0586.08593-.04687.10547-.0586.08594-.07421.07422-.13281-.01172-.1172-.03125h-.11718l-.07422.07422-.08984.0586-.07422.07421-.08984.0586-.08594.05859-.10547.04687-.10156.04297-.13672.01563-.10156-.04297-.14844-.14844-.10547-.04688h-.08594l-.10547.04688-.10156.04297-.1211.03125-.11718-.03125-.07422-.07422v-.11719l.03125-.1211.07422-.0703.0586-.08985.07421-.07422.11719-.03125.10547-.04296h.29297l.13281-.01563.13672-.01563.10156-.04296.08985-.0586.10156-.04687.08984-.0586.13281-.01171.08985.05859.13281.01172.08984-.0586.08594-.05859.10547-.04297.08984-.0586.08594-.0625.08985-.05859.14843-.14843.0586-.08594.05859-.08985.10547-.04296.13281-.01563.11719.02735.1211.03125.05859-.0586.05859-.08984.03125-.26563.02734-.11719.10547.01172.13281.01563.10157-.04297.08984-.0586.0586-.08984.07421-.07422.0586-.08984.04687-.10156.01172-.13281-.01172-.13282-.04687-.10547-.14844-.14843-.0586-.08985-.05859-.08594-.04297-.10546v-.44532l.01563-.1328v-.14845l.01172-.1328-.0586-.0586-.08984.0586-.10156-.04298-.17969-.11719-.08594-.05859-.0625-.08984-.0586-.08985-.07421-.07421-.08594-.0586-.1211.03125-.10155.01172-.10547.04688-.08594.05859-.10547.04297-.14844.14844-.08984.05859-.08594.0586-.08984.0625-.10547.04296-.13281.01563v-.1211l.10547-.04297.11718-.03125.07422-.0703.04297-.10548v-.14844l-.02734-.11718-.14844-.14844-.13281-.01563h-.14844l-.11719.03125-.10547.04297-.10156.04297-.08984.0625-.11719.02735-.07422-.07422.01172-.13281-.04297-.10157-.04297-.10547-.08984-.05859-.11719.02734-.1211.03125-.11718.03125-.10156.04297-.1211.03125-.10156.04297-.10547.04297-.08984.0586-.10156.01562v-.11719l.01562-.13281-.0586-.08985-.07421.04297-.14844.14844-.0586.08985-.07421.07421-.04688.10547-.04296.10156-.07422.07422-.0586.08985-.07422.07422-.05859.08593-.07422.07422-.08984.0625-.07422.07031-.07422.07422-.10156.01563-.13281.01562-.10547-.04296v-.1211l.14843-.14844.04297-.10156.0586-.08984.04687-.10156.04297-.10547.0586-.08985.03124-.11719.04297-.10156.03125-.1211.02735-.11718.04687-.10547.04297-.10156.04297-.10547.07422-.07031.08984-.0625.08985-.0586.10156-.04296h.29687l.26563-.03125.10547-.04297-.07422-.07422-.11719-.03125-.10547-.04297-.08984-.0586-.10156-.04687-.08985-.0586-.10156-.04296-.10547-.04297-.08984-.0625-.08594-.0586-.10547-.04296-.10156-.04297-.1211-.03125-.11718-.03125-.10157-.04297L297.5 410.25l-.10156-.04297-.08985-.0586-.04296-.10546-.01563-.13281.10156-.04297.13281-.01563.13672.01563.13282-.01563.10156-.04297.0586-.08984.01562-.10547-.08985-.0586-.07421-.07421-.10157-.04297-.08984-.0586-.14844-.14843-.04297-.10547-.01562-.13281v-.29297l-.0586-.08985-.08984-.05859-.07422-.07422-.04297-.10547-.03125-.11718-.0586-.08985-.07421-.07422-.11719-.02734-.07422-.07422-.08984-.0586-.08984-.0625-.08594-.05859-.07422-.07421-.0586-.08594-.04687-.10547-.08594-.0586-.14843-.14843-.19532-.0586-.1328.01563-.10157.04297-.07422.07422-.04688.10156-.04296.10547-.0586.08984-.0586.08594-.29687.29687-.08984.0586h-.08594l-.0625-.08594-.04297-.10547.03125-.11719.0586-.08984.02734-.11719-.01172-.13281-.08984-.0625-.10547.04688-.11719.02734-.11719.03125-.26953.17578-.10156.04688-.11719.02734-.10546.04687-.08985.0586-.10156.04297-.0586-.08594-.04687-.10547.01563-.13281.04687-.10547.07031-.07422.07422-.07031.0586-.08985v-.14843l-.04297-.10547h-.23829l-.10156.04687-.03125.11719-.02734.11719-.03125.1211-.07422.04296-.13281.01563-.07422-.04688-.04297-.10156-.04297-.10547-.04687-.10156-.04297-.10547-.1211.03125-.10156.04297-.13281.01562-.11719.03125-.10547.04297-.08984.0586-.10156.04687-.1211.02734-.13281.01563-.10156-.04297-.0586-.08985-.04687-.10546-.04297-.10157-.04297-.10546v-.1172l.0586-.08984.08593-.05859.17969-.11719.10156-.04687.10547-.04297.10547-.0586.10156-.04296.08985-.0625.10156-.04297.10547-.0586.10156-.04687.08984-.0586.10547-.04296.10156-.04297.08985-.0625.10156-.04297.13672-.01563.11719.03125.10156.04297.1211.03125.10156.04297.10546.04688.10157.04296.10547.04297.10156.04688.10547.04297.10156.04297.10547.04687.08594.0586.10546.04296.1172.03125.10546.04297.10156.04688.08985.0586.10547.04296.10156.04297.10547.04687.11719.02735.10156.04687.1211.02735h.14843l.08594-.0586.01562-.10156.0586-.08984-.02735-.1172-.07422-.07421-.11719-.17969-.07421-.07422-.08985-.07421-.17969-.1172-.08593-.05859-.10547-.04296-.10156-.04688-.26954-.17578-.05859-.08985-.07422-.07421-.0586-.08985-.04296-.10156-.03125-.11719-.01563-.13672v-.5625l-.01171-.1328-.01563-.13282-.03125-.11719-.01562-.13281-.01172-.13281-.03125-.1211-.22266-.22265-.0586-.08594-.01562-.10547.03125-.11719.13281-.01562v-91.41406H172.9922v1.45312l-.0586.23438-.35156 1.05078-.17187.52343-.1172.34766-.17577.41016-.11719.17187-.23438.29297-.23046.0586h-.35157l-.11718.05859-.23047.40625v.29297l.11719.17578.23046.23047.1172.23437.64062.75781.29297.46485.17578.23437.23047.35156.23437.34766.64063.8164.17578.46485.17187.41016.11719.69531.17578.46875.11719 1.39844.0586.46484v.875l.11718 1.04688v4.78125l-.0586.46484-.35156 1.28125-.17578.52344-.11328.41015-.35156.9297L172.93359 336l-.23437.58203-.11719.17578-.17187.34766-.17578.40625-.35157.8164-.0586.29297-.11327.29297-.11719.28906-.0586.17579-.11718.875-.0586.40625-.05859.11718-.0586.17579-.05859.17187-.23047.52734-.11718.17188v.23437l-.11719.23438-.0586.17187-.17577.58594v.28906l-.0586.17579v.29296l-.0586.11329-.05859.52734v.17187l-.05468.23438v2.6211l-.17578.8164-.1172.17578-.17577.23438-.1172.17187-.11327.23438-.58594.93359-.23047.28906-.29297.46485-.17578.23437-.28906.35156-.35156.69922-.11328.23047-.17579.41016-.17578.23046-.40625.52735-.8164.69922-.29297.17187-.28906.23438-.17579.11719-.17578.17578-.52344.40625-.52734.17578-.17187.17578-.23438.05469-.64062.17578h-.75782m12.21094 31.02344l-1.07422.44921.35938.89454 1.25-.71485.44531-.53906-.98047-.08985"/><path fill="#d3d3d3" fill-opacity="0" fill-rule="evenodd" d="M201.50781 416.59766h-.89453l.44922.6289.98047.35938.80469-.08985.4453-.98828-.17577.08985-.71485-.35547-.89453.35547m154.6211 59.0703l-.0586-.52343v-.29297l.11328-.29297.0586-.23046.46875-.46875h.11328l.11719-.11329.11718-.05859h.17579l.23437-.0586h.34766l.23437.0586.11719.0586.23047.17187.0586.17578.11718.58203v.29297l-.11719.17578-.17187.28906-.17579.17579-.52734.52343-.23047.23438-.11719.0586h-.17578l-.11718-.0586-.40625-.29297-.17579-.11719-.11718-.0586-.0586-.11327-.05468-.1172m6.64062-10.95702l-.0586-.17188v-1.10937l.0586-.17188.17578-.0586.17188-.05858h.17578l.23437-.0586.1172.0586.05858.69921-.05859.17188-.11719.17578-.11718.0586-.23438.52343-.11328.0586h-.23438l-.05859-.1172m9.61328-14.39062l-.11719-.17578v-.69922l.29297-.875.1172-.17187.17577-.35156.11328-.23047.1172-.29297.35155-.75781.1172-.23047.17187-.23438h.17578l.11719-.0586h.64062l.11719.0586.23437.23438.17188.11328.35156.29297.11719.11718.11328.17579v.11328l.11719.05859.11718.11719v.69922l-.05859.17578v.23047l-.0586.17578-.34765 1.05078-.11719.23047-.11719.23437-.11718.0586-.23047.23437-.64063.28906h-.875l-.41015-.11718-.64063-.46485"/><path fill="none" stroke="#bebebe" stroke-linecap="round" stroke-linejoin="round" stroke-miterlimit="10" stroke-width=".5" d="M467.95703 311.69531H144.02734v168.625h323.9297v-168.625"/><g clip-path="url(#a)"><path fill="#fff" fill-opacity="0" fill-rule="evenodd" d="M144 475.89063v4.4375h.0039H144V311.67188h.0039H144v164.21875"/></g><g clip-path="url(#b)"><path fill="#fff" fill-opacity="0" fill-rule="evenodd" d="M144.0039 480.32813V311.67188h17.75v131.8828l-.83984 1.26563-2.48828 4.4414-.63281 4.4375.69531 4.4375 3.26563 3.59767 4.4375-1.26563 4.4375-.70313 4.4375 1.375 2.0664-3.0039-2.0664-2.48047-1.33985-1.95703-3.09765-3.95703-.31641-.48047-4.1211-3.8164-2.25-.625-2.1875-1.26563V311.67188h48.82032v89.94921l-3.79297 3.25391-.54688 4.4414-.09765.22266-4.4375.25-1.9414 3.96485-2.4961 2.97656-1.4961 1.46094-2.36328 4.4375 1.19532 4.4414 2.66406 2.00781 4.4375 1.33204 4.4375-.40235 4.4375-.38281 3.46875-2.55469.97266-.72656.60156.72656 3.83594 3.17188 4.41015 1.26562.02734.03125 4.4375 3.32422.85938 1.08203 3.57813 3.76172 4.4414.25781.30078.41797 4.13672 3.44922 4.4375-.01953 3.3164-3.42969.28516-4.4375-3.60156-3.8125-4.4375-.50781-4.4375.04688-1.16797-.16407-3.09375-4.4375-.17969-.53515-4.4375-3.28516-.28906-.6211.28906-3.65234.19532-.78515-.19531-.5547-.45313-3.8828L223.89062 410l-.70312-.6836-3.73438-1.58593-4.4375-2.59766-.49609-.25781-3.94531-3.2539v-89.94923h110.96094v103.1836l-4.4375.5-4.44141.26172-4.4375-.02735-1.70703 2.60157-2.73047 1.3164-4.4375-.58203-4.4414-.32031-4.29298-.41406-.14453-.05079-.07812.05079-4.35938 1.58593-2.7578 2.85157-1.6797.375-4.4375-.36329-4.4414.46875-4.4375.77735-4.4375 2.67969-1.53906-3.9375-2.89844-2.46875-2.58985 2.46875-1.85156.92968-3.625 3.51172 1.14844 4.4375 2.47656 2.95703 1.17188 1.48047 3.26953 2.07422 2.35156-2.07422 2.08594-3.9414 4.4375 2.75 4.4375.02343 4.4414.42579.53125.74218 3.90625 3.99219 4.4375-.29297 4.4375-.25781 3.12891-3.4414.79688-4.4375.51171-.97657v12.29688l-2.57812 1.99218 2.57812 1.90235 2.89844-1.90235-2.89844-1.99219v-12.29687l4.44141.73438 2.27344.24218 2.16406 1.59766v13.55469l-2.63672 2.60156 2.63672 2.78125 2.4414-2.78125-2.4414-2.60156v-13.5547l1.38672-1.59765 2.63281-4.4375.41797-1.42187v32.76172l-4.4375 1.78906-.96094 2.375.96094.66797 4.4375 1.61719 3.2539-2.28516-3.2539-4.16406v-32.76172l3.79688 1.42187.64062.69531.57031-.6953 3.8711-2.03126 4.4375.75781 4.4375.15625 4.4375-.86718 4.4375 1.45312 4.4414-.61328.33594 1.14453 4.10156 3.60547.69922.83203-.32031 4.4375 4.0586 4.10547.52343.33203-.52344 3.8125-.55078.625.55078.46485.46875-.46485 3.96875-.69531 4.4414-.64844 4.4375-.05469 3.85548-3.03906.58203-.67578 4.4375-2.96875 3.04687 3.64453-1.4414 4.4375-1.07422 4.4414 1.60547 4.4375 2.30078 2.28126 1.78515 2.15625 2.65625 3.3164 1.19141 1.1211 3.2461 2.9336 4.4375.73046 1.85546.77735 2.58204 1.13671 1.17187-1.13671 3.26563-.23047 4.4414.1289 4.4375.04688 4.4375-.19922 4.4375-.22266 4.4414-.03125 3.7422-3.9336.6953-.83202 4.4375-2.4414 4.4375 1.11327 2.42579-2.27734 2.01172-1.05078 4.4414-1.36328 2.29688-2.02344 2.14062-.54688 3.86329-3.89062-.03516-4.4414-3.82813-3.59376-4.4375.14453-3.21875 3.44922-1.22265 1.40235-3.02344 3.03906-1.41406 1.01562-3.63281 3.42188-.8047 3.0039-.53906-3.0039-.90625-4.4375-.91015-4.4414-2.08203-2.1836-1.38281-2.2539-3.0547-2.9336-3.07812 2.9336-1.36328 2.91015-4.4375-1.94922-3.23047-.96094-1.20703-1.125-2.88281-3.3125-1.55469-1.46484-4.4414-2.27344-4.4375 1.33985-4.4375-.1836-2.8125-1.85547-1.625-1.59375-4.4375-2.2461-4.44141.1836-.57422-.78125-3.86328-2.67187-1.86719-1.76953-2.57031-2.57422-4.4375-.63672-3.71485 3.21094-.72265.6328-4.4414 1.32813-4.4375-1.78125-1.02344-.17968-3.41407-3.55079-1.36719-.88671-3.0703-1.92188-4.44141.42188-2.25 1.5-2.1875 1.12109-2.78516-1.1211-1.65234-1.28124-4.4375-2.0547V311.67189h124.27343v123.37109l-1.02343.90234 1.02343 1.03906.96485-1.03906-.96485-.90234v-123.3711h22.1875v168.65625H144.00391"/></g><path fill="#50fcfc" fill-rule="evenodd" d="M158.48828 458.13672l-.69531-4.4375.63281-4.4375 2.48828-4.4414.83985-1.26563v3.73047l-1.34375 1.97656-1.0547 4.4375 1.62892 4.4375.76953.84765 2.33203-.84765 2.10547-1.26172 2.86328-3.17578-2.86328-4.27344-.17188-.16406-4.26562-1.97656v-3.73047l2.1875 1.26562 2.25.625 4.12109 3.8164.3164.48048 3.09766 3.95703 1.33985 1.95703 2.0664 2.48047-2.0664 3.0039-4.4375-1.375-4.4375.70313-4.4375 1.26563-3.26563-3.59766"/><path fill="#00e8fc" fill-rule="evenodd" d="M160.98438 458.13672l-1.62891-4.4375 1.05469-4.4375 1.34375-1.97656 4.26562 1.97656.17188.16406 2.86328 4.27344-2.86328 3.17578-2.10547 1.26172-2.33203.84765-.76953-.84765"/><path fill="#50fcfc" fill-rule="evenodd" d="M194.59766 427.07031l-1.19532-4.4414 2.36328-4.4375 1.4961-1.46094v4.72656l-.75781 1.17188.7578 1.3203 1.86329-1.3203-1.86328-1.17188v-4.72656l2.4961-2.97656 1.9414-3.96485v6.79688l-2.10156 1.60547 2.10156 1.34375.40625-1.34375-.40625-1.60547v-6.79688l4.4375-.25.09766-.22265.54687-4.44141 3.79297-3.2539v2.625l-.73828.6289-2.7461 4.4414-.95312 2.23048-3.0664 2.20703.44921 4.4375-.8164 4.4375 2.83593 4.4414.59766.16406 1.17578-.16406.76172-4.4414.80078-4.4375.96094-4.4375.73828-.23047v3.95312l-.21875.71485-.59766 4.4375.8164 1.6328 1.27735-1.6328-1.03125-4.4375-.2461-.71485v-3.95312l.69532.23047 1.1914 4.4375 2.01954 4.4375.53516.6289 3.16796 3.8125 1.26953 1.05078 2.26954-1.05078-2.26953-2.52344-2.87891-1.91796L219.45312 421l2-2.8086.9336-4.4375-2.9336-2.92577-1.51171-1.51172-2.92578-2.53125-3.67188-1.91016-.76953-.6289v-2.625l3.94531 3.2539.4961.25781 4.4375 2.59766 3.73437 1.58594.70313.68359 3.98437 3.7539.45313 3.88282.1953.55469-.1953.78515-.28907 3.65235.28906.62109v6.4336l-1.71484 1.82421 1.71484 1.29297 2.4961 3.14453 1.9414 2.04297 4.44141-.4961 2.08984 2.89063 2.34766 1.95703 4.4375-.33984 1.5664-1.61719-.12109-4.4375-1.4453-1.53125-4.4375-1.01172-4.4375.89844-4.44142-.97265-2.51953-1.82032-1.91797-1.82422V423.25l4.4375 3.28516.1797.53515 3.09374 4.4375 1.16797.16406 4.4375-.04687 4.4375.50781 3.60156 3.8125-.28515 4.4375-3.3164 3.42969-4.4375.01953-4.13673-3.44922-.30078-.41797-4.4414-.2578-3.57813-3.76173-.85938-1.08203-4.4375-3.32422-.02734-.03125-4.41016-1.26562-3.83593-3.17188-.60156-.72656-.97266.72656-3.46875 2.55469-4.4375.38281-4.4375.40235-4.4375-1.33204-2.66406-2.0078"/><path fill="#00e8fc" fill-rule="evenodd" d="M197.26172 423.94922l-.75781-1.32031.7578-1.17188 1.86329 1.17188-1.86328 1.3203"/><path fill="#fff" fill-opacity="0" fill-rule="evenodd" d="M201.69922 416.58594l-2.10156 1.60547 2.10156 1.34375.40625-1.34375-.40625-1.60547"/><path fill="#00e8fc" fill-rule="evenodd" d="M205.53906 427.07031l-2.83594-4.4414.81641-4.4375-.44922-4.4375 3.0664-2.20704v5.56641l-.2578 1.07813.2578 1.16015.26954-1.16015-.26953-1.07813v-5.5664l.95312-2.23047 2.7461-4.44141.73828-.6289v2.28906l-2.05469 2.78125 2.05469 2.48046 4.19531-2.48046-4.19531-2.78125v-2.28907l.76953.62891 3.67188 1.91016 2.92578 2.53125 1.51172 1.51171 2.93359 2.92579-.9336 4.4375-2 2.80859-2.8789 1.6289 2.8789 1.91798 2.26954 2.52343-2.26953 1.05078-1.26954-1.05078-3.16797-3.8125-.53515-.6289-2.01953-4.4375-1.1914-4.4375-.69532-.23047-.73828.23047-.96094 4.4375-.80078 4.4375-.76172 4.4414-1.17578.16406-.59766-.16406"/><path fill="#00d4fc" fill-rule="evenodd" d="M206.13672 419.35156l-.25781-1.16015.2578-1.07813.26954 1.07813-.26953 1.16015m4.4375-7.55469l-2.05469-2.48046 2.05469-2.78125v1.9375l-.6211.84375.6211.7539 1.27344-.7539-1.27344-.84375v-1.9375l4.19531 2.78125-4.19531 2.48046"/><path fill="#fff" fill-opacity="0" fill-rule="evenodd" d="M210.35547 418.1914l-.59766 4.4375.8164 1.63282 1.27735-1.63281-1.03125-4.4375-.2461-.71485-.21874.71485"/><path fill="#00c4fc" fill-rule="evenodd" d="M210.57422 410.07031l-.6211-.7539.6211-.84375 1.27344.84375-1.27344.7539"/><path fill="#00e8fc" fill-rule="evenodd" d="M228.32813 432.80078l-1.71485-1.29297 1.71484-1.82422 1.91797 1.82422 2.51953 1.82031 4.44141.97266 4.4375-.89844 4.4375 1.01172 1.44531 1.53125.1211 4.4375L246.08204 442l-4.4375.33984-2.34767-1.95703-2.08984-2.89062-4.4414.4961-1.94141-2.04298-2.4961-3.14453"/><path fill="#50fcfc" fill-rule="evenodd" d="M252.48047 431.50781l-1.14844-4.4375 3.625-3.51172v1.9961l-1.5625 1.51562 1.5625 2.48047 3.09766-2.48047-3.09766-1.51562v-1.9961l1.85156-.92968 2.58985-2.46875 2.89844 2.46875 1.53906 3.9375 4.4375-2.6797 4.4375-.77733 4.4414-.46875 4.4375.36328 1.6797-.375 2.7578-2.85157 4.35938-1.58593.07812-.05079.14454.05079 4.29296.41406 4.44141.32031v1.5586l-4.4414.20703-4.4375-.1172-3.16016 2.0547-1.27735 1.58203-4.4375-.27344-4.4375-.42188-4.4414.57422-4.4375 2.45704-.7539.52343-.63673 4.4375 1.39063.97266 4.4375.35156 4.4414 1.11328 1.4336 2 3.0039 3.0664 4.4375-.83202 4.4375-1.61328.56641-.6211 2.35156-4.4375 1.51953-2.89062 4.44141 1.74219 4.4375.34375 3.10156-3.63282 1.03125-4.4414-4.13281-.97657-4.4375-1.16796v-1.5586l4.4375.58203 2.73047-1.3164 1.70703-2.60157 4.4375.02735v3.01562l-4.3711 3.9961 4.3711 3.15234 3.80469-3.15234-3.80469-3.9961v-3.01562l4.4414-.26172 4.4375-.5v2.13281l-3.46874 1.20313 2.73828 4.4375.73047.21875 4.4375.74609 2.65625-.96484-2.65625-1.4336-2.67188-3.0039-1.76562-1.20313v-2.13281l4.4375 2.05469 1.65234 1.28125 2.78516 1.12109 2.1875-1.1211 2.25-1.5v3.1797l-3.62891 2.7578 3.6289 2.15626 3.28907-2.15625-3.28906-2.75782v-3.17968l4.4414-.42188 3.07031 1.92188 1.3672.88671 3.41406 3.55079 1.02343.17968 4.4375 1.78125 4.4414-1.32812.72267-.63281 3.71484-3.21094v3.21875l-4.4375 3.875-.94922.5586-3.49219.80077-.67187-.80078-3.76563-3.32031-4.4375-.20313-2.39453 3.52344 2.39453 2.10156 1.96094 2.33594-.88672 4.4375 3.36328 3.39844 1.63281 1.03906 2.8047 2.6836 4.4414-1.6172 4.4375-.15233 1.16015-.91407 3.27735-3.8164.79687-.6211 2.79297-4.4375.6875-4.4375-4.27734-4.22656-4.4375-.20703v-3.21875l4.4375.63672 2.57031 2.57422 1.86719 1.76953 3.86328 2.67187.57422.78125 4.4414-.1836v4.3047l-3.78906 3.97265.20703 4.4375-.85937 4.08985-.17969.34765-2.85156 4.4414 3.03125 4.07423.41015.36328 4.03125 4.39844.07032.03906 4.36719 4.15625 4.24218-4.15625.19531-.25.04297.25.19922 4.4375 4.19531 3.98828 4.4375-.26172 4.44141.36328 4.4375-.05469 4.4375-.4453 4.4375-.73829 4.4414-.39062 2.33985-2.46094 2.09766-2.51953 2.57812-1.91797-.10937-4.4375-2.46875-3.92188-3.45313-.51562 1.42578-4.4414-2.01953-4.4375-.39062-.37891-.39844.3789-1.58594 4.4375-2.45703.83985-2.40234-.83985-2.03516-1.32812-4.4375-1.04297-3.1211-2.0664-1.3164-1.4375-2.8125-3-1.6289-1.1172-2.81641 1.1172-1.6211.27343-4.4375-.01953-.1328-.2539-4.3047-3.81641-4.4375-.15625v-4.3047l4.4375 2.2461 1.625 1.59375 2.8125 1.85547 4.4375.1836 4.4375-1.33985 4.44141 2.27344 1.55469 1.46484 2.88281 3.3125 1.20703 1.125 3.23047.96094 4.4375 1.94922 1.36328-2.91016 3.07813-2.9336 3.05469 2.9336 1.3828 2.2539 2.08204 2.1836.91015 4.4414.90625 4.4375.53907 3.00392.80469-3.00391 3.6328-3.42188 1.41407-1.01562 3.02344-3.03906 1.22265-1.40235 3.21875-3.44922 4.4375-.14453v1.53125l-4.4375 1.25-.76171.8125-3.6797 4.22266-.21484.21875-4.22265 3.02734-1.4961 1.41016 1.4961 3.0625 4.4375-1.51953 2.82031-1.54297 1.6211-1.14063 4.4375-.53125 2.74609-2.76562-.55078-4.4414-2.19532-2.0625v-1.53126l3.82813 3.59375.03515 4.4414-3.86328 3.89063-2.14062.54688-2.29688 2.02344-4.4414 1.36328-2.01172 1.05078-2.42578 2.27734-4.4375-1.11328-4.4375 2.4414-.69531.83204-3.7422 3.9336-4.4414.03124-4.4375.22266-4.4375.19922-4.4375-.04688-4.4414-.1289-3.26563.23046-1.17188 1.13672-2.58203-1.13671-1.85546-.77735-4.4375-.73047-3.2461-2.9336-1.1914-1.12108-2.65625-3.31641-1.78516-2.15625-2.30078-2.28125-1.60547-4.4375 1.07422-4.4414 1.4414-4.4375-3.04687-3.64454-4.4375 2.96875-.58203.67578-3.85547 3.03906-4.4375.0547-4.4414.64843-3.96876.69531-.46875.46485-.55078-.46485.55078-.625.52344-3.8125-.52344-.33203-4.0586-4.10547.32032-4.4375-.69922-.83203-4.10156-3.60547-.33594-1.14453-4.4414.61328-4.4375-1.45312-4.4375.86719-4.4375-.15625-4.4375-.75782-3.8711 2.03125-.57031.69531-.64063-.6953-3.79687-1.42188-.41797 1.42187-2.63281 4.4375-1.38672 1.59766-2.16406-1.59766-2.27344-.24219-4.4414-.73437-.51173.97656-.79687 4.4375-3.1289 3.4414-4.4375.25782-4.4375.29297-3.90626-3.99219-.53125-.74219-4.4414-.42578-4.4375-.02343-4.4375-2.75-2.08594 3.9414-2.35156 2.07422-3.26953-2.07422-1.17188-1.48047-2.47656-2.95703"/><path fill="#00e8fc" fill-rule="evenodd" d="M254.95703 429.55078l-1.5625-2.48047 1.5625-1.51562 3.09766 1.51562-3.09766 2.48047m13.3164 2.92969l-1.39062-.97266.63672-4.4375.7539-.52344 4.4375-2.45703 4.44141-.57421v1.45312l-4.4414.75781-2.13672 1.34375 2.13672 2.58203 3.48828 1.85547.95312.33594 2.94141 4.10156 1.4961 1.52735 4.08984-1.52735.34765-.24219 4.4375-2.15625 1.2422-2.03906-1.2422-1.95312-4.4375-1.16797-1.69921-1.3164-2.73829-1.57032-4.4375-.53125v-1.45313l4.4375.42188 4.4375.27344 1.27735-1.58203 3.16015-2.0547 4.4375.1172 4.44141-.20704v2.71094l-3.09375 3.875 3.09375 1.78125 4.4375.0586 1.57031-1.83985-1.57031-2.60156-4.4375-1.27344v-2.71094l4.4375 1.16797 4.13281.97657-1.03125 4.4414-3.10156 3.63281-4.4375-.34375-4.4414-1.74218-1.51954 2.89062-2.35156 4.4375-.5664.6211-4.4375 1.61328-4.4375.83203-3.00391-3.0664-1.4336-2-4.4414-1.11329-4.4375-.35156"/><path fill="#00d4fc" fill-rule="evenodd" d="M272.71094 429.65234l-2.13672-2.58203 2.13672-1.34375 4.4414-.75781v1.45313l-3.16796.64843 3.16796 1.53906 2.0547 2.89844 2.3828 4.39063 4.4375-3.03906 2.85938-1.35157-2.85938-1.0039-4.42578-3.4336-.01172-.00781-4.4375-.64063v-1.45312l4.4375.53125 2.73829 1.57031 1.69921 1.3164 4.4375 1.16798 1.2422 1.95312-1.2422 2.03906-4.4375 2.15625-.34765.2422-4.08985 1.52734-1.49609-1.52735-2.9414-4.10156-.95313-.33594-3.48828-1.85547"/><path fill="#00c4fc" fill-rule="evenodd" d="M277.15234 428.60938l-3.16796-1.53907 3.16796-.64844 4.4375.64063.01172.00781 4.42578 3.4336 2.85938 1.0039-2.85938 1.35156-4.4375 3.03907-2.3828-4.39063-2.0547-2.89844"/><path fill="#50fcfc" fill-rule="evenodd" d="M294.90234 446.72266l-2.57812-1.90235 2.57812-1.99219 2.89844 1.9922-2.89844 1.90234"/><path fill="#00d4fc" fill-rule="evenodd" d="M299.34375 428.85156l-3.09375-1.78125 3.09375-3.875v3.27735l-.47656.59765.47656.27344 4.4375-.22656.03906-.04688-.03906-.07031-4.4375-.52734v-3.27735l4.4375 1.27344 1.57031 2.60156-1.57031 1.83985-4.4375-.0586"/><path fill="#00c4fc" fill-rule="evenodd" d="M299.34375 427.34375l-.47656-.27344.47656-.59765 4.4375.52734.03906.07031-.03906.04688-4.4375.22656"/><path fill="#50fcfc" fill-rule="evenodd" d="M303.78125 452.04297l-2.63672-2.78125 2.63672-2.60156 2.4414 2.60156-2.4414 2.78125m0 11.19922l-.96094-.66797.96094-2.375 4.4375-1.78906 3.2539 4.16406-3.2539 2.28515-4.4375-1.61718"/><path fill="#00e8fc" fill-rule="evenodd" d="M312.65625 425.78125l-4.3711-3.15234 4.3711-3.9961v2.95313l-1.14063 1.04297 1.14063.82421.99219-.82421-.99219-1.04297v-2.95313l3.80469 3.9961-3.80469 3.15234"/><path fill="#00d4fc" fill-rule="evenodd" d="M312.65625 423.45313l-1.14063-.82422 1.14063-1.04297.99219 1.04297-.99219.82421"/><path fill="#00e8fc" fill-rule="evenodd" d="M320.80469 422.6289l-2.73828-4.4375 3.46875-1.20312 1.76562 1.20313 2.67188 3.0039 2.65625 1.4336-2.65625.96484-4.4375-.7461-.73047-.21874m14.04297 2.15625l-3.62891-2.15625 3.6289-2.75782 3.28907 2.75782-3.28906 2.15625m8.8789 4.38671l-2.39453-2.10156 2.39453-3.52344 4.4375.20313 3.76563 3.32031.67187.80078 3.49219-.80078.94922-.5586 4.4375-3.875 4.4375.20704v1.28516l-4.4375.85546-2.20703 2.08594-2.23047.86328-4.4414 2.05079-2.44923-2.91407-1.98828-1.7539-3.88281 1.7539 3.51172 4.4375-1.82813 4.4375 2.19922 2.22656 3.48047 2.21094.95703.91797 1.91797-.91797 2.52344-.78906 3.32422-3.64844 1.0039-4.4375.10938-.42578v4.58203l-.0664.28125.0664.85156 1.51172-.85156-1.51172-.28125v-4.58203l.59765.42578 3.83985 1.80078 1.35156-1.80078 1.625-4.4375-2.97656-2.9414v-1.28516l4.27734 4.22656-.6875 4.4375-2.79297 4.4375-.79687.6211-3.27735 3.8164-1.16015.91406-4.4375.15235-4.4414 1.61719-2.8047-2.6836-1.6328-1.03906-3.36329-3.39844.88672-4.4375-1.96094-2.33594"/><path fill="#00d4fc" fill-rule="evenodd" d="M347.79297 431.50781l-3.51172-4.4375 3.88281-1.7539v1.5664l-.41406.1875.41406.5586.21094-.5586-.21094-.1875v-1.5664l1.98828 1.7539 2.44922 2.91406 4.4414-2.05078v.96485l-4.02343 2.60937-.41797.29297-4.4375 1.83594-1.03906 2.3086 1.03906 1.05077 4.4375 2.91016 4.4414-1.46094 2.27345-2.5.88671-4.4375-3.16015-2.60937v-.96485l2.23047-.86328 2.20703-2.08594 4.4375-.85546v1.28515l-4.08203 1.65625 4.08203 3.39063 1.67578-3.39063-1.67578-1.65625v-1.28515l2.97656 2.9414-1.625 4.4375-1.35156 1.80078-3.83985-1.80078-.59765-.42578-.10938.42578-1.0039 4.4375-3.32422 3.64844-2.52344.78906-1.91797.91797-.95703-.91797-3.48047-2.21094-2.19922-2.22656 1.82813-4.4375"/><path fill="#00c4fc" fill-rule="evenodd" d="M348.16406 436.9961l-1.03906-1.05079 1.03906-2.3086 4.4375-1.83593.41797-.29297 4.02344-2.60937v.96094l-2.53906 1.64843-1.90235 1.33203-4.28515 3.10547 4.28515 2.96875 4.4414-1.6211 1.22657-1.34765.76563-4.4375-1.9922-1.64844v-.96093l3.16017 2.60937-.88672 4.4375-2.27344 2.5-4.4414 1.46094-4.4375-2.91016m0-9.36718l-.41407-.5586.41406-.1875.21094.1875-.21094.5586"/><path fill="#00b8fc" fill-rule="evenodd" d="M352.60156 438.91406l-4.28515-2.96875 4.28515-3.10547 1.90235-1.33203 2.53906-1.64844v.96485l-1.05469.6836-3.38672 2.37109-2.85156 2.0664 2.85156 1.97656 4.4414-1.78125.17579-.1953.64844-4.4375-.82422-.6836v-.96485l1.99219 1.64844-.76563 4.4375-1.22656 1.34766-4.4414 1.6211"/><path fill="#00a8fc" fill-rule="evenodd" d="M352.60156 437.92188L349.75 435.9453l2.85156-2.0664v1.03906l-1.41797 1.02734 1.41797.98438 2.41406-.98438-2.41406-1.02734v-1.03906l3.38672-2.3711 1.05469-.6836.82422.6836-.64844 4.4375-.17578.19531-4.4414 1.78125"/><path fill="#009800" fill-rule="evenodd" d="M352.60156 436.92969l-1.41797-.98438 1.41797-1.02734 2.41406 1.02734-2.41406.98438"/><path fill="#50fcfc" fill-rule="evenodd" d="M361.48047 435.66406l-.0664.28125.0664.85156 1.51172-.85156-1.51172-.28125"/><path fill="#00c4fc" fill-rule="evenodd" d="M365.91797 430.46094l-4.08203-3.39063 4.08203-1.65625v1.28516l-.91016.3711.91016.7539.3711-.7539-.3711-.3711v-1.28516l1.67578 1.65625-1.67578 3.39063"/><path fill="#00b8fc" fill-rule="evenodd" d="M365.91797 427.82422l-.91016-.7539.91016-.3711.3711.3711-.3711.7539"/><path fill="#00e8fc" fill-rule="evenodd" d="M374.79297 453.33594l-3.03125-4.07422 2.85156-4.4414.17969-.34766.85937-4.08985-.20703-4.4375 3.78906-3.97265v1.54296l-2.3164 2.4297.54297 4.4375-.92969 4.4375-1.73828 2.09374-1.57031 2.34766 1.5703 2.11328 2.62892 2.32422 1.8125 1.97656 2.78515-1.97656 1.65235-1.36328 4.4375.54687.20312.8164.83203 4.4375.16406 4.4375 3.23829 3.08204 4.4375-.16406 4.4414.75 4.4375-.21875 4.4375-.86328 4.4375-1.58594 4.4414-.9961v-.0039l3.98438-4.4375.45313-3.96875.08984-.46875-.08984-.14063-4.4375-3.67187-2.30469-.625-2.13672-1.69922-2.39844 1.69922-2.03906.85156-4.4375-.34765-.91797-.50391-3.51953-2.4414-2.22656-2-.61328-4.4375-1.60156-1.66016-4.4375-.63282-4.4375 1.625-1.97266-3.76953-2.46485-2.1836-4.4375-.24608v-1.54297l4.4375.15625 4.3047 3.8164.1328.2539 4.4375.01954 1.6211-.27344 2.8164-1.11719 1.62891 1.1172 2.8125 3 1.3164 1.4375 3.1211 2.0664 4.4375 1.04297 2.03516 1.32812 2.40234.83985 2.45703-.83985 1.58594-4.4375.39844-.3789.39062.3789 2.01953 4.4375-1.42578 4.4414 3.45313.51563 2.46875 3.92188.10937 4.4375-2.57812 1.91797-2.09766 2.51953-2.33984 2.46094-4.4414.39062-4.4375.73828-4.4375.44531-4.4375.0547-4.44142-.36329-4.4375.26172-4.1953-3.98828-.19923-4.4375-.04296-.25-.19532.25-4.24219 4.15625-4.36718-4.15625-.07031-.03906-4.03125-4.39844-.41016-.36328"/><path fill="#00d4fc" fill-rule="evenodd" d="M374.79297 451.375l-1.57031-2.11328 1.5703-2.34766 1.73829-2.09375.92969-4.4375-.54297-4.4375 2.3164-2.42969v1.53907l-.84765.89062.84765 4.29688.16797.14062-.16796.16406-.89063 4.27344-3.55078 4.27344-.10938.16797.10938.14844 4.4414 3.35156 4.4375-3.23828 4.4375.3789.94922 3.79688 1.07813 4.4375.125 4.4375 2.28515 2.17187 4.4375-.0625 4.44141 1.13672 4.4375-.38281 4.4375-1.27734 3.4375-1.58594 1-.6836 4.4414-.90234 2.5586-2.85156 1.14063-4.4375-3.69922-3.15625-4.4414-1.1875-4.4375 1.8789-4.4375 1.17579-4.4375.125-.76954-3.27344-3.67188-3.3711-2.05078-1.0703-1.09765-4.4375-1.28906-.42188-.97266.42187-2.64844 4.4375-.8164 1.45703-4.4375 2.69141-3.23438-4.14844 3.23438-3.26172v2.46875l-.78907.79297.78906 1.01172 1.17579-1.01172-1.17579-.79297v-2.46875l1.64454-1.17578-1.02344-4.4375-.6211-.55078-4.4375-.33984v-1.53906l4.4375.24609 2.46485 2.1836 1.97265 3.76952 4.4375-1.625 4.4375.63282 1.60157 1.66015.61328 4.4375 2.22656 2 3.51953 2.4414.91797.50392 4.4375.34765 2.03906-.85156 2.39844-1.69922 2.13672 1.69922 2.30469.625 4.4375 3.67187.08984.14063-.08984.46875-.45313 3.96875-3.98437 4.4375v.0039l-4.4414.9961-4.4375 1.58594-4.4375.86328-4.4375.21875-4.44142-.75-4.4375.16406-3.23828-3.08203-.16406-4.4375-.83203-4.4375-.20313-.8164-4.4375-.54688-1.65234 1.36328-2.78515 1.97656-1.8125-1.97656-2.62891-2.32422"/><path fill="#00c4fc" fill-rule="evenodd" d="M374.79297 449.41016l-.10938-.14844.10938-.16797 3.55078-4.27344.89063-4.27344.16796-.16406-.16796-.14062-.84766-4.29688.84765-.89062 4.4375.33984.6211.55078 1.02344 4.4375-1.64454 1.17578-3.23437 3.26172 3.23438 4.14844 4.4375-2.6914.8164-1.45704 2.64844-4.4375.97265-.42187 1.28907.42187 1.09765 4.4375 2.05079 1.07031v2.66016l-2.57813.71094-1.85938.21875-2.74609 4.21875 1.32813 4.4375.08984 4.4375 1.32813 1.26562 4.4375.03516 4.4414 1.52344 4.4375-.54688 4.4375-1.6914 1.26563-.58594 3.17187-2.16797 4.4414-1.00781 1.13282-1.26172 1.80078-4.4375-2.9336-2.5039-4.4414-.98048-4.4375 2.14454-3.10547 1.33984-1.33203.4414-4.4375.29297-1.05078-.73437-2.61719-4.4375-.77344-.71094v-2.66015l3.67188 3.37109.76953 3.27344 4.4375-.125 4.4375-1.17579 4.4375-1.8789 4.4414 1.1875 3.69923 3.15625-1.14063 4.4375-2.5586 2.85156-4.4414.90235-1 .68359-3.4375 1.58594-4.4375 1.27734-4.4375.38281-4.4414-1.13672-4.4375.0625-2.28516-2.17187-.125-4.4375-1.07813-4.4375-.94921-3.79688-4.4375-.3789-4.4375 3.23828-4.44141-3.35156"/><path fill="#00e8fc" fill-rule="evenodd" d="M383.67188 444.02734l-.78907.79297.78906 1.01172 1.17579-1.01172-1.17579-.79297"/><path fill="#00b8fc" fill-rule="evenodd" d="M391.1289 458.13672l-1.32812-4.4375 2.7461-4.21875 1.85937-.21875 2.57813-.71094v1.9336l-4.4375.13671-2 3.07813 1.57421 4.4375.05079 4.4375.375.35937 4.4375.13282 4.4414 1.91015 4.4375-.70703 3.8789-1.69531.5586-.90625 4.4375-2.74219 3.20313-.78906 1.23828-.30078 2.16797-4.13672-2.16797-1.85156-4.4414-.76954-4.4375 2.40235-.50392.21875L405.86329 455l-4.4375.2461-2.21094-1.54688-2.23046-3.21485v-1.93359l.77343.71094 2.61719 4.4375 1.05078.73437 4.4375-.29296 1.33203-.44141 3.10547-1.33985 4.4375-2.14453 4.4414.98047 2.9336 2.5039-1.80078 4.4375-1.13281 1.26173-4.4414 1.00781-3.17188 2.16797-1.26563.58594-4.4375 1.6914-4.4375.54688-4.4414-1.52344-4.4375-.03516-1.32813-1.26562-.08984-4.4375"/><path fill="#00a8fc" fill-rule="evenodd" d="M392.1211 458.13672l-1.57423-4.4375 2-3.07813v1.14454l-1.2578 1.93359 1.2578 3.32031.60157 1.11719 3.83594 4.00781.34375.42969 4.09765 1.98437 4.4375-.875 2.53906-1.10937 1.89844-3.08203 2.53516-1.35547 1.90234-.83203 4.4414-.92969 1.39844-2.67578-1.39843-1.19531-4.4414-.5625-3.1797 1.7578-1.2578 2.5-4.4375-.33593-4.4375.19531-3.3711-2.35937-1.07031-1.54297-4.4375-.39063v-1.14453l4.4375-.13671 2.23046 3.21484 2.21094 1.54687 4.4375-.24609 3.9336-1.30078.5039-.21875 4.4375-2.40235 4.4414.76954 2.16798 1.85156-2.16797 4.13672-1.23828.30078-3.20313.78906-4.4375 2.74219-.5586.90625-3.8789 1.69531-4.4375.70703-4.4414-1.91015-4.4375-.13282-.375-.35937-.05079-4.4375"/><path fill="#009800" fill-rule="evenodd" d="M392.54688 457.01953l-1.25782-3.32031 1.25781-1.9336v1.14063l-.51171.79297.51171 1.35547 1.65235 3.08203 2.78515 2.91015 1.21485 1.52735 3.22656 1.5625 4.4375-1.03906 1.19922-.52344 2.41016-4.4375-3.60938-1.41406-4.4375.14843-4.4414-3.04687-.44532-.125-3.99219-.79297v-1.14063l4.4375.39063 1.07032 1.54297 3.3711 2.35937 4.4375-.1953 4.4375.33593 1.2578-2.5 3.1797-1.75781v.86328l-1.6172.89453 1.6172 1.83594 4.4414-.625.63281-1.21094-.63281-.54297-4.4414-.35156v-.86328l4.4414.5625 1.39844 1.1953-1.39844 2.67579-4.4414.92969-1.90235.83203-2.53516 1.35547-1.89844 3.08203-2.53906 1.10937-4.4375.875-4.09765-1.98437-.34375-.42969-3.83594-4.00781-.60156-1.11719"/><path fill="#00ac00" fill-rule="evenodd" d="M392.54688 455.05469l-.51172-1.35547.51171-.79297 3.9922.79297.4453.125v1.625l-1.73437 2.6875 1.73438 1.8125 2.08593 2.625 2.35547 1.14062 4.26953-1.14062.16797-.63281 1.41016-3.8047-1.41016-.55077-4.4375.09765-4.4414-2.23437v-1.625l4.4414 3.04687 4.4375-.14843 3.60938 1.41406-2.41016 4.4375-1.19922.52344-4.4375 1.03906-3.22656-1.5625-1.21485-1.52735-2.78515-2.91015-1.65235-3.08203"/><path fill="#00c800" fill-rule="evenodd" d="M396.98438 459.94922l-1.73438-1.8125 1.73438-2.6875 4.4414 2.23437v3.4375l-.61328 1.45313.61328.29687 1.11328-.29687-1.11328-1.45313v-3.4375l4.4375-.09765 1.41016.55078-1.41016 3.80469-.16797.6328-4.26953 1.14063-2.35547-1.14062-2.08594-2.625"/><path fill="#10cc00" fill-rule="evenodd" d="M401.42578 462.8711l-.61328-.29688.61328-1.45313 1.11328 1.45313-1.11328.29687"/><path fill="#00ac00" fill-rule="evenodd" d="M414.73828 455.53516l-1.61719-1.83594 1.6172-.89453v.86328l-.0547.03125.0547.0625.75-.0625-.75-.03125v-.86328l4.4414.35156.63281.54297-.63281 1.21094-4.4414.625"/><path fill="#00c800" fill-rule="evenodd" d="M414.73828 453.76172l-.05469-.0625.0547-.03125.75.03125-.75.0625"/><path fill="#00e8fc" fill-rule="evenodd" d="M432.49219 456.76172l-1.4961-3.0625 1.4961-1.41016 4.22265-3.02734.21485-.21875 3.67969-4.22266.76171-.8125 4.4375-1.25v3.34375l-3.28515 3.16016 3.28515.88672.88282-.88672-.88282-3.16016v-3.34375l2.19532 2.0625.55078 4.4414-2.7461 2.76563-4.4375.53125-1.62109 1.14063-2.82031 1.54297-4.4375 1.51953"/><path fill="#00d4fc" fill-rule="evenodd" d="M445.8086 450.14844l-3.28516-.88672 3.28515-3.16016.88282 3.16016-.88282.88672"/><path fill="#50fcfc" fill-rule="evenodd" d="M445.8086 436.98438l-1.02344-1.03907 1.02343-.90234.96485.90234-.96485 1.03906"/><g clip-path="url(#c)"><path fill="#fff" fill-opacity="0" fill-rule="evenodd" d="M467.9961 480.32813H468V311.67188h-.0039H468v168.65625h-.0039"/></g><path fill="#fff" fill-opacity="0" fill-rule="evenodd" d="M296.58203 434.99219l5.44531 2.11719 3.60547-9.28516-5.4414-2.11719-3.60938 9.28516"/><path fill-rule="evenodd" d="M302.78906 428.6836l.47266.18359-2.28125 5.8711-.73047-.28517 1.625-4.1875-1.29297-.5039.19922-.51563.54688.14063.2539.04297h.2461l.24218-.0586.23828-.1328.23829-.22267.24218-.33203"/><path fill="#fff" fill-opacity="0" fill-rule="evenodd" d="M317.33594 419.3164l5.76562.9336 1.59375-9.83203-5.76562-.9336-1.59375 9.83204"/><path fill-rule="evenodd" d="M322.08984 411.85156l.50391.08203-1.00781 6.21485-.77735-.125.71875-4.4336-1.37109-.22265.08984-.54688.5625.02344.25782-.01172.24218-.05078.22266-.10938.20703-.17578.1875-.26953.16406-.375"/><path fill="#fff" fill-opacity="0" fill-rule="evenodd" d="M417.5039 443.00781l3.5625 4.63281 7.89454-6.07421-3.5586-4.62891-7.89843 6.07031"/><path fill-rule="evenodd" d="M426.08203 440.82813l.3086.40234-4.98829 3.83984-.48046-.625 3.55859-2.73828-.84766-1.09765.4414-.33985.39454.40235.19531.16796.21094.12891.23438.07422.27343.01172.32031-.07031.37891-.15625"/><path fill="#fff" fill-opacity="0" fill-rule="evenodd" d="M393.66016 471.92578l5.83984-.11719-.20313-9.96093-5.83984.12109.20313 9.95703"/><path fill-rule="evenodd" d="M396.99219 463.73047l.51172-.01172.125 6.29297-.78516.01562-.08984-4.48828-1.39063.02735-.01172-.5547.5586-.07421.2539-.0625.22656-.09375.19922-.14453.17188-.21485.13281-.29687.09766-.39453"/><path fill="#fff" fill-opacity="0" fill-rule="evenodd" d="M243.7461 434.4414l1.98437 5.4961 9.36719-3.38672-1.98438-5.49219-9.36719 3.38282"/><path fill-rule="evenodd" d="M252.57813 434.97266l.17187.48046-5.91797 2.13672-.26953-.73828 4.22266-1.52734-.46875-1.30469.51953-.1914.2539.5078.13672.21876.16016.1836.20312.14452.25782.08985.32422.03515.40625-.03515"/><g clip-path="url(#d)"><path fill="none" stroke="#000" stroke-linecap="round" stroke-linejoin="round" stroke-miterlimit="10" stroke-width=".5" d="M147.38281 479.3711l-6.76562 1.91406"/></g><g clip-path="url(#e)"><path fill="none" stroke="#000" stroke-linecap="round" stroke-linejoin="round" stroke-miterlimit="10" stroke-width=".5" d="M146.39844 479.65234l.84765.88282"/></g><g clip-path="url(#f)"><path fill="none" stroke="#000" stroke-linecap="round" stroke-linejoin="round" stroke-miterlimit="10" stroke-width=".5" d="M160.79688 479.8711l-6.96485.91406"/></g><g clip-path="url(#g)"><path fill="none" stroke="#000" stroke-linecap="round" stroke-linejoin="round" stroke-miterlimit="10" stroke-width=".5" d="M160.79688 479.8711l1.42578 2"/></g><g clip-path="url(#h)"><path fill="none" stroke="#000" stroke-linecap="round" stroke-linejoin="round" stroke-miterlimit="10" stroke-width=".5" d="M174.125 480.6875l-6.98828-.71484"/></g><g clip-path="url(#i)"><path fill="none" stroke="#000" stroke-linecap="round" stroke-linejoin="round" stroke-miterlimit="10" stroke-width=".5" d="M174.125 480.6875l.92578 2.27344"/></g><g clip-path="url(#j)"><path fill="none" stroke="#000" stroke-linecap="round" stroke-linejoin="round" stroke-miterlimit="10" stroke-width=".5" d="M187.33984 481.23047l-6.78906-1.80469"/></g><g clip-path="url(#k)"><path fill="none" stroke="#000" stroke-linecap="round" stroke-linejoin="round" stroke-miterlimit="10" stroke-width=".5" d="M187.33984 481.23047l.5586 2.39062"/></g><g clip-path="url(#l)"><path fill="none" stroke="#000" stroke-linecap="round" stroke-linejoin="round" stroke-miterlimit="10" stroke-width=".5" d="M200.75 480.72656l-6.98047-.79687"/></g><g clip-path="url(#m)"><path fill="none" stroke="#000" stroke-linecap="round" stroke-linejoin="round" stroke-miterlimit="10" stroke-width=".5" d="M200.75 480.72656l.90234 2.28125"/></g><g clip-path="url(#n)"><path fill="none" stroke="#000" stroke-linecap="round" stroke-linejoin="round" stroke-miterlimit="10" stroke-width=".5" d="M214.08203 480.13672l-7.01562.38281"/></g><g clip-path="url(#o)"><path fill="none" stroke="#000" stroke-linecap="round" stroke-linejoin="round" stroke-miterlimit="10" stroke-width=".5" d="M214.08203 480.13672l1.26953 2.10156"/></g><g clip-path="url(#p)"><path fill="none" stroke="#000" stroke-linecap="round" stroke-linejoin="round" stroke-miterlimit="10" stroke-width=".5" d="M227.36719 479.8125l-6.95313 1.03125"/></g><g clip-path="url(#q)"><path fill="none" stroke="#000" stroke-linecap="round" stroke-linejoin="round" stroke-miterlimit="10" stroke-width=".5" d="M227.36719 479.8125l1.45703 1.97656"/></g><g clip-path="url(#r)"><path fill="none" stroke="#000" stroke-linecap="round" stroke-linejoin="round" stroke-miterlimit="10" stroke-width=".5" d="M240.71875 480.29297l-7.02734.07422"/></g><g clip-path="url(#s)"><path fill="none" stroke="#000" stroke-linecap="round" stroke-linejoin="round" stroke-miterlimit="10" stroke-width=".5" d="M240.71875 480.29297l1.17578 2.15234"/></g><g clip-path="url(#t)"><path fill="none" stroke="#000" stroke-linecap="round" stroke-linejoin="round" stroke-miterlimit="10" stroke-width=".5" d="M253.96484 481.03125l-6.88672-1.40234"/></g><g clip-path="url(#u)"><path fill="none" stroke="#000" stroke-linecap="round" stroke-linejoin="round" stroke-miterlimit="10" stroke-width=".5" d="M253.96484 481.03125l.69532 2.35156"/></g><g clip-path="url(#v)"><path fill="none" stroke="#000" stroke-linecap="round" stroke-linejoin="round" stroke-miterlimit="10" stroke-width=".5" d="M267.23828 481.20313l-6.80469-1.7461"/></g><g clip-path="url(#w)"><path fill="none" stroke="#000" stroke-linecap="round" stroke-linejoin="round" stroke-miterlimit="10" stroke-width=".5" d="M266.25 480.94922l.28906 1.1914"/></g><g clip-path="url(#x)"><path fill="none" stroke="#000" stroke-linecap="round" stroke-linejoin="round" stroke-miterlimit="10" stroke-width=".5" d="M280.60547 480.96484l-6.91016-1.27343"/></g><g clip-path="url(#y)"><path fill="none" stroke="#000" stroke-linecap="round" stroke-linejoin="round" stroke-miterlimit="10" stroke-width=".5" d="M279.60156 480.78125l.36719 1.16797"/></g><g clip-path="url(#z)"><path fill="none" stroke="#000" stroke-linecap="round" stroke-linejoin="round" stroke-miterlimit="10" stroke-width=".5" d="M293.95313 480.7539l-6.97657-.85156"/></g><g clip-path="url(#A)"><path fill="none" stroke="#000" stroke-linecap="round" stroke-linejoin="round" stroke-miterlimit="10" stroke-width=".5" d="M292.9375 480.6289l.4414 1.14844"/></g><g clip-path="url(#B)"><path fill="none" stroke="#000" stroke-linecap="round" stroke-linejoin="round" stroke-miterlimit="10" stroke-width=".5" d="M307.28906 480.10938l-7.01562.4375"/></g><g clip-path="url(#C)"><path fill="none" stroke="#000" stroke-linecap="round" stroke-linejoin="round" stroke-miterlimit="10" stroke-width=".5" d="M306.26563 480.17188l.64453 1.04687"/></g><g clip-path="url(#D)"><path fill="none" stroke="#000" stroke-linecap="round" stroke-linejoin="round" stroke-miterlimit="10" stroke-width=".5" d="M320.30078 478.88281l-6.40625 2.89063"/></g><g clip-path="url(#E)"><path fill="none" stroke="#000" stroke-linecap="round" stroke-linejoin="round" stroke-miterlimit="10" stroke-width=".5" d="M319.36719 479.30469l.96875.75"/></g><g clip-path="url(#F)"><path fill="none" stroke="#000" stroke-linecap="round" stroke-linejoin="round" stroke-miterlimit="10" stroke-width=".5" d="M333.51563 478.6836l-6.20704 3.29296"/></g><g clip-path="url(#G)"><path fill="none" stroke="#000" stroke-linecap="round" stroke-linejoin="round" stroke-miterlimit="10" stroke-width=".5" d="M332.61328 479.16016l1.01563.6875"/></g><g clip-path="url(#H)"><path fill="none" stroke="#000" stroke-linecap="round" stroke-linejoin="round" stroke-miterlimit="10" stroke-width=".5" d="M347.23047 480.60547l-7.00781-.55469"/></g><g clip-path="url(#I)"><path fill="none" stroke="#000" stroke-linecap="round" stroke-linejoin="round" stroke-miterlimit="10" stroke-width=".5" d="M346.21094 480.52344l.48828 1.125"/></g><g clip-path="url(#J)"><path fill="none" stroke="#000" stroke-linecap="round" stroke-linejoin="round" stroke-miterlimit="10" stroke-width=".5" d="M360.17188 481.92578l-6.26172-3.19531"/></g><g clip-path="url(#K)"><path fill="none" stroke="#000" stroke-linecap="round" stroke-linejoin="round" stroke-miterlimit="10" stroke-width=".5" d="M372.63281 483.0039l-4.55469-5.35156"/></g><g clip-path="url(#L)"><path fill="none" stroke="#000" stroke-linecap="round" stroke-linejoin="round" stroke-miterlimit="10" stroke-width=".5" d="M387.15625 480.77734l-6.96875-.89843"/></g><g clip-path="url(#M)"><path fill="none" stroke="#000" stroke-linecap="round" stroke-linejoin="round" stroke-miterlimit="10" stroke-width=".5" d="M386.14063 480.64844l.43359 1.14844"/></g><g clip-path="url(#N)"><path fill="none" stroke="#000" stroke-linecap="round" stroke-linejoin="round" stroke-miterlimit="10" stroke-width=".5" d="M398.85547 483.30469l-3.73828-5.94922"/></g><g clip-path="url(#O)"><path fill="none" stroke="#000" stroke-linecap="round" stroke-linejoin="round" stroke-miterlimit="10" stroke-width=".5" d="M408.58203 483.39453l3.4375-6.1289"/></g><g clip-path="url(#P)"><path fill="none" stroke="#000" stroke-linecap="round" stroke-linejoin="round" stroke-miterlimit="10" stroke-width=".5" d="M426.24219 482.66406l-5.2539-4.66797"/></g><g clip-path="url(#Q)"><path fill="none" stroke="#000" stroke-linecap="round" stroke-linejoin="round" stroke-miterlimit="10" stroke-width=".5" d="M439.1914 483.01953l-4.51952-5.38281"/></g><g clip-path="url(#R)"><path fill="none" stroke="#000" stroke-linecap="round" stroke-linejoin="round" stroke-miterlimit="10" stroke-width=".5" d="M452.79688 482.7461l-5.10157-4.83594"/></g><g clip-path="url(#S)"><path fill="none" stroke="#000" stroke-linecap="round" stroke-linejoin="round" stroke-miterlimit="10" stroke-width=".5" d="M466.25781 482.58203l-5.39453-4.5039"/></g><g clip-path="url(#T)"><path fill="none" stroke="#000" stroke-linecap="round" stroke-linejoin="round" stroke-miterlimit="10" stroke-width=".5" d="M147.49219 466.64063l-6.98438.74609"/></g><path fill="none" stroke="#000" stroke-linecap="round" stroke-linejoin="round" stroke-miterlimit="10" stroke-width=".5" d="M147.49219 466.64063l1.3789 2.03125m11.95313-1.82422l-7.01953.33203m7.01953-.33203l1.2539 2.11328m12.05079-1.60938l-6.9961-.67578m6.9961.67578l.9375 2.26953m12.33593-1.98828l-6.91797-1.23828m6.91797 1.23828l.75391 2.33203m12.59766-2.5664l-6.98438-.76953m6.98438.76953l.90625 2.28125m12.42187-2.46875l-7.01562-.39453m7.01562.39453l1.03125 2.22656m12.28516-2.58594l-7.01953.32422m7.01953-.32422l1.2539 2.10938m12.06641-1.875l-7.02734-.14453m7.02734.14453l1.10547 2.1914m12.20312-2.0664l-7.01562-.39453m7.01562.39453l1.03125 2.22656m12.25782-1.94922l-6.96094-.94922m6.96094.94922l.84765 2.30078m12.5-2.6836l-7.02734-.18358m7.02734.18359l1.09375 2.19531m12.22266-2.29687l-7.02734.01953m6.0039-.01563l.57813 1.08203m13.75-.84765l-7.01172-.45703m5.99219.39062l.5039 1.11719m13.83985-1.25781l-7.02735-.04297m6.0039.03906l.57032 1.08594m13.76563-1.2539l-7.01954.30077m5.9961-.25781l.6211 1.0586m13.36327.59374l-6.3125-3.08984m5.39453 2.64063l.03907 1.22656m14.24609-.89063l-6.41797-2.86328m5.48438 2.44531l.08593 1.22266m14.46094-2.01172l-7.01172-.44922m18.19532 3.45703l-2.75-6.46484m2.34765 5.52344l-.76953.95703m11.34766-.21094l3.52734-6.07422m12.03125 6.51953l-.96094-6.96093m.82032 5.9453l-.9922.71876m16.25782-.51953l-4.57812-5.33203m17.52734 5.60547l-3.84766-5.87891m3.28907 5.02344l-.58985 1.07422m14.53516-.26563l-3.99219-5.78516m3.41016 4.94141l-.5625 1.08984m14.83203-.54296l-4.73438-5.19141m4.04688 4.4375l-.41406 1.15625"/><g clip-path="url(#U)"><path fill="none" stroke="#000" stroke-linecap="round" stroke-linejoin="round" stroke-miterlimit="10" stroke-width=".5" d="M147.5039 453.46484l-7.0078.46485"/></g><path fill="none" stroke="#000" stroke-linecap="round" stroke-linejoin="round" stroke-miterlimit="10" stroke-width=".5" d="M147.5039 453.46484l1.29298 2.08594m12.03125-1.83984l-7.02735-.02735m7.02734.02735l1.14454 2.17187m12.12109-1.58203l-6.92578-1.20312m6.92578 1.20312l.76172 2.32813m12.5-2.08204l-6.82031-1.69921m6.8203 1.69921l.59376 2.38282m12.73828-2.46094l-6.85547-1.53906m6.85547 1.53906l.65234 2.36328m12.73047-2.78125l-6.99219-.70312m6.9922.70312L215 456.32031m12.40234-2.70703l-7.02343.17188m7.02343-.17188l1.20703 2.13672m12.10938-1.9414l-7.02344-.21876m7.02344.21875l1.08203 2.19922m12.23438-2.32031l-7.02735.02344m7.02735-.02344l1.15625 2.16406m12.1289-2.59765l-6.96875.88671m6.96875-.88671l1.41797 2.0039m-2.42969-1.875l.70704 1.0039m13.6289-1.05077l-6.98828.72265m6.98828-.72265l1.3711 2.03906m-2.38672-1.9336l.68359 1.01954m13.65234-1.07813l-7 .63281m7-.6328l1.34375 2.05468m11.85547-2.6875l-6.76562 1.89453m6.76562-1.89453l1.69531 1.77734m11.6836-1.5l-6.89453 1.34375m5.89062-1.14843l.77344.95312m13.5664.08203l-6.9375-1.11719m5.9297.95313l.39452 1.16406m13.65235-.08984l-6.38281-2.9375m5.45312 2.51172l.07031 1.22265m14.14453-.73437l-6.32421-3.0625m18.5-1.34375l-4.04688 5.7461m16.23438.52734l-1.78907-6.79688m1.52735 5.8086l-.90235.83203m12.20703-.01172l2.75391-6.46485m-2.35156 5.52735l-1.22266.10547m13.76563.64843l3.49218-6.09765m-2.98437 5.21093l-1.22656-.03906m13.82812.79688l3.90625-5.83985m-3.33984 4.9922l-1.21875-.125m14.52734 1.28124l2.78516-6.45312m-2.3789 5.51171l-1.22266.10157m16.41015 1.01172l-1.77344-6.80079m1.51563 5.8125l-.90234.83204m15.15625-.09766l-3.13672-6.28906m2.67968 5.375l-.71093.9961"/><g clip-path="url(#V)"><path fill="none" stroke="#000" stroke-linecap="round" stroke-linejoin="round" stroke-miterlimit="10" stroke-width=".5" d="M147.50781 440.5625l-7.01562-.35938"/></g><path fill="none" stroke="#000" stroke-linecap="round" stroke-linejoin="round" stroke-miterlimit="10" stroke-width=".5" d="M147.50781 440.5625l1.03906 2.22266m-2.05859-2.27344l.51953 1.10937m13.78125-.69921l-6.94531-1.07422m6.94531 1.07422l.80469 2.3164m-1.8164-2.47265l.40234 1.15625m13.85156-.65235l-6.80078-1.77344m6.80078 1.77344l.5664 2.38672m-1.55859-2.64453l.28516 1.19531m13.95312-.71094l-6.66406-2.22265m6.66406 2.22265l.41016 2.41797m12.8164-2.1836l-6.48827-2.6914m6.48828 2.6914l.23437 2.44141m13.17969-2.71093l-6.6875-2.15625m6.6875 2.15625l.4336 2.41797m12.78515-2.14844l-6.49219-2.6914m5.54688 2.30077l.11718 1.21875m14.30078-3.04687l-6.80859 1.74219m5.8164-1.48828l.82813.90625m13.58203-.48438l-7.01562.39453m20.33594-.125l-7.02344-.14844m7.02344.14844l1.10547 2.1914m12.1914-2.65234l-6.98437.77735m5.96484-.66406l.69531 1.01171m12.63281-3.21875l-4.97656 4.96094m4.2539-4.23828l1.17188.35938m13.47266-.26954l-6.1875 3.33594m5.28516-2.84765l1.02343.67968m12.76172-1.79297l-5.32422 4.58594m4.55079-3.91797l1.14453.44532m9.99609-2.32032l.57031 7.0039m-.48437-5.98437l1.03125-.66406m13.50781-.21484l-2.04688 6.72265m13.35938-6.73828l1.95703 6.75m-1.67187-5.76562l.8828-.85547m10.89063.53516l4.46875 5.42187m-3.8203-4.63281l.47265-1.13281m10.96094 3.6289l6.93359-1.14453m-5.92188.97656l-.74609-.97265m13.07813-.15235l6.8789 1.4375m-5.8789-1.22656l-.34375-1.17969m13.03125-.02343l6.13671 3.42187m-5.24609-2.92187l.02734-1.22657m12.26563 3.89453l6.39453-2.91015m-5.46484 2.48437l-.97266-.7461m16.60156 3.23048l-.08984-7.02735m.07422 6.00391l-1.07422.58984m16.35937-.1914l-4-5.77735m3.41797 4.9336l-.5625 1.09375m15.15235-.88281l-5.38672-4.51563m4.60547 3.85938l-.25782 1.19921"/><g clip-path="url(#W)"><path fill="none" stroke="#000" stroke-linecap="round" stroke-linejoin="round" stroke-miterlimit="10" stroke-width=".5" d="M147.51172 427.14063l-7.02344-.14454"/></g><path fill="none" stroke="#000" stroke-linecap="round" stroke-linejoin="round" stroke-miterlimit="10" stroke-width=".5" d="M147.51172 427.14063l1.10937 2.1875m12.16407-1.70704l-6.94141-1.10547m6.9414 1.10547l.79688 2.32032m12.49219-2.1875l-6.89063-1.3711m6.89063 1.3711l.70703 2.35156m12.57031-2.17188l-6.8125-1.73047m5.82031 1.47657l.29297 1.1914m13.60547.02735l-5.9961-3.66016m5.125 3.1289l-.07421 1.22266m14.77344-2.41406l-7.02344-.21484m6.0039.1836l.54298 1.10155m11.64843-4.41406l-2.73437 6.47266m15.79297.09765l-2.22266-6.66797m1.89844 5.69922l-.84375.88672m15.14453-.21875l-3.54688-6.0664m3.03125 5.18359l-.64453 1.04297m12.97266.3086l-.53906-7.00391m11.71875 6.48046l3.73046-5.95703m-3.1875 5.08985l-1.22265-.08594m16.10937 1.48047l-.49609-7.01172m12.48047 6.84766l2.16015-6.6836m11.41407-.07422l1.64844 6.83203m-1.41016-5.83593l.91797-.8164m13.61328-.21876l-1.26172 6.91016m1.07813-5.90625l1.16796-.3711m11.23047-.66015l.9375 6.96484m-.80078-5.95312l.9961-.71485m9.53515 1.5625l6.23047 3.25m-5.32422-2.77734l-.00781-1.22656m12.5625.5l5.9414 3.7539m-5.07812-3.20703l.08984-1.22266m12.64454.28907l5.37109 4.52734m-5.3711-4.52734l.51563-2.39844m15.82813 1.16406l-.6836 6.9961m.58594-5.97657l1.13281-.46875m9.34766.57422l5.1836 4.7461m-4.4297-4.0547l.3047-1.1875m13.64062-.42968l2.41406 6.59766m13.71094-.17188l-3.20704-6.2539m2.73829 5.34375l-.69922 1.0078m14.83984-.30859l-3.92187-5.83203m3.35156 4.98438l-.57813 1.08203m14.89454-.57813l-4.78516-5.14453m4.08984 4.39453l-.39844 1.16016"/><g clip-path="url(#X)"><path fill="none" stroke="#000" stroke-linecap="round" stroke-linejoin="round" stroke-miterlimit="10" stroke-width=".5" d="M147.42969 412.99219l-6.85938 1.52344"/></g><path fill="none" stroke="#000" stroke-linecap="round" stroke-linejoin="round" stroke-miterlimit="10" stroke-width=".5" d="M146.4336 413.21484l.79687.9297m13.5664-.85157l-6.96484.92187m5.95313-.78906l.71093 1m13.64453-.5039l-7.01953-.33985m5.9961.29297l.52344 1.10938m12.57421-3.91407l-4.53906 5.36719m19.03906-2.04297l-6.91015-1.28125m13.84375 2.58594l5.85547-3.89063m8.25 4.73438l4.27343-5.57813m11.92578 6.22266l-1.49218-6.86719m15.17187 6.76563l-2.22656-6.66406m1.90234 5.6953l-.84375.88673m14.39844.10937l-2.05469-6.71875m14.01172 6.85547l.66407-6.9961m14.08203.16407l-2.20313 6.67187m1.88281-5.70312l1.21094-.20703m11.55469-.9336l-.46094 7.01172m.39453-5.98828l1.11719-.5039m11.32031-.45313l1.42578 6.88281m-1.21875-5.88281l.94532-.78125m11.09765.1914l3.55469 6.0625m-3.03516-5.17968l.64063-1.04688m12.32031.07422l3.22266 6.24219m-2.7539-5.33594l.69921-1.00781m13.98438-.28516l-.44922 7.01563m.3828-5.9961l1.1172-.5039m10.03515.10547l4.00782 5.77344m-3.42579-4.9336l.5625-1.08984m11.22657 1.22656l5.89843 3.82031m-5.89843-3.82031l.21093-2.44531m12.78516 3.0664l6.53516 2.57813m-6.53516-2.57813l-.27734-2.4375m14.59765 1.03516l4.52344 5.3789m-3.86328-4.59374l.45703-1.14063m11.28906 1.53125l6.33985 3.03125m-5.41797-2.58984l-.05078-1.22656m17.78515 5.0664l-4.33984-5.53125m3.70703 4.72656l-.4961 1.1211m14.32032-.22656l-4.09375-5.71094m3.5 4.8789l-.54688 1.10157m15.66407-1.8047l-6.51172-2.64452m5.5664 2.26172l.125 1.21875"/><g clip-path="url(#Y)"><path fill="none" stroke="#000" stroke-linecap="round" stroke-linejoin="round" stroke-miterlimit="10" stroke-width=".5" d="M147.3086 399.2539l-6.6172 2.3711"/></g><path fill="none" stroke="#000" stroke-linecap="round" stroke-linejoin="round" stroke-miterlimit="10" stroke-width=".5" d="M146.34375 399.59766l.91016.82421m12.28906-2.69921l-4.45703 5.43359m3.8086-4.64453l1.20312.24219m11.95312-1.52735l-2.84375 6.42578m2.42969-5.49218l1.22656-.08985m9.77344-.89453l2.61719 6.52344m-2.23438-5.57422l.78906-.9375m9.94141 3.10547l7.01953.29297m6.49219-1.32031l6.625 2.34375m-5.66016-2l-.17969-1.21485m13.64454-.69531l4.39843 5.48047m-3.7578-4.6836l.48437-1.1289m17.3789 1.22656l-5.98047 3.6875m19.71485-.98828l-6.8164-1.71094m5.82421 1.46094l.29297 1.1914m14.11328-1.64062l-7.01953-.3125m6 .26953l.52734 1.10547m13.70703-2.07422l-6.8164 1.71485m5.82422-1.46485l.82421.91016m12.4375-2.90625l-4.72265 5.20312m4.03515-4.44531l1.1875.30078m11.72657-1.73047l-2.55078 6.54688m2.17968-5.59375l1.21875-.14453m12.65235-.73047l-2.91797 6.39062m2.4961-5.46094l1.22265-.07421m12.02734-1.03516l-1.9414 6.7539m1.65625-5.77343l1.20312-.2539m14.6211 1.1875l-6.39063 2.92577m19.08594-3.85156l-5.15235 4.77344m19.19141-3.58594l-6.60156 2.40235m5.64062-2.0547l.91406.82032m12.58594-2.41406l-5.04687 4.89062m5.04687-4.89062l2.33203.7539m9.66797-1.60546l-2.41797 6.59765m2.06641-5.64062l1.21484-.16797m11.02344-1l.4375 7.01562m10.67969-.95703l4.83203-5.10156m13.1914 5.21484l-4.58203-5.32422m3.91797 4.55079l-.4453 1.14062m14.42968-.3711l-4.58985-5.3203m3.92188 4.54687l-.44531 1.14453m15.40234-1.7461l-6.53906-2.5703m5.58594 2.19921l.14062 1.21875"/><g clip-path="url(#Z)"><path fill="none" stroke="#000" stroke-linecap="round" stroke-linejoin="round" stroke-miterlimit="10" stroke-width=".5" d="M146.53906 384.69531l-5.07812 4.85547"/></g><path fill="none" stroke="#000" stroke-linecap="round" stroke-linejoin="round" stroke-miterlimit="10" stroke-width=".5" d="M146.53906 384.69531l2.33203.77344m10.3672-1.28516l-3.84376 5.87891m3.84375-5.8789l2.4414.21874m10.75782-.29296l-3.61719 6.02734m3.61719-6.02735l2.45313.12891m10.66796-.23437l-3.22656 6.23828m2.75781-5.33203l1.22657-.01172m7.43359 2.10937l7.02344.23047m-6.0039-.19922l-.53907-1.10156m19.78516.46875l-6.87891 1.4336m5.8789-1.22657l.78516.94531m13.58203-.0625l-6.98437-.74609m5.96875.63672l.45703 1.14062m13.66406-.15234l-6.5664-2.5039m5.60937 2.14062l.15234 1.21484m14.01172-.60156l-6.35156-3.0039m5.42969 2.5664l.05469 1.22656m14.45703-1.6289l-6.89844-1.32422m5.89453 1.13281l.36328 1.17188m13.92578-2.45313l-6.83984 1.6211m5.84375-1.38673l.8125.92188m13.375-1.5664l-6.58984 2.4414m6.58984-2.4414l1.83203 1.6328m11.17578-2.26171l-5.97656 3.69922m5.97656-3.69922l2.11719 1.23828m11.3164-1.02735l-6.21484 3.27735m6.21485-3.27735l2.03125 1.38282m11.3164-1.32031l-6.27734 3.15625m6.27734-3.15625l2 1.41796m11.5664 1.07813l-6.78124-1.83985m6.78125 1.83985l.54297 2.39062m12.85937-2.8125l-6.95703-.99609m6.95703.9961l.83203 2.30859m12.0664-4.52735l-6.125 3.44141m6.125-3.4414l2.06642 1.32421m10.3789-2.34765l-4.38281 5.49218m4.38281-5.49218l2.41016.44921m10.70703-.59765l-3.98828 5.78515m3.98828-5.78515l2.4375.27734m-3.01953.5625l1.21875.14063m12.94531-.77735l-4.52344 5.37891m4.52344-5.3789l2.39844.51171m12.08594 2.9336l-6.86329-1.51172m5.8672 1.29297l.32812 1.18359m13.375.375l-5.64453-4.1914m5.64453 4.1914l-.3672 2.42578m13.28126-1.97656l-4.84375-5.08985m4.14062 4.35157l-.39062 1.16406m14.57812-.59766l-5.18359-4.74609m5.1836 4.7461l-.61329 2.375"/><g clip-path="url(#aa)"><path fill="none" stroke="#000" stroke-linecap="round" stroke-linejoin="round" stroke-miterlimit="10" stroke-width=".5" d="M147.40625 372.94531l-6.8125 1.72656"/></g><path fill="none" stroke="#000" stroke-linecap="round" stroke-linejoin="round" stroke-miterlimit="10" stroke-width=".5" d="M147.40625 372.94531l1.64844 1.8164m-2.64063-1.5664l1.64844 1.8164m12.73438-1.67577l-6.96485.94531m6.96484-.94531l1.4336 1.99219m-2.44531-1.85547l1.43359 1.99218m12.7539-2.74218l-6.68359 2.17187m6.6836-2.17187l1.76562 1.70312M173 373.03906l1.76563 1.70313m12.53906-1.95703l-6.71875 2.04687m6.71875-2.04687l1.73437 1.73828m-2.71094-1.4414l.8672.86718m13.5664-.41797l-7.0039.55469m7.0039-.55469l1.32031 2.0664m12.00781-1.83202l-7.02734.08203m7.02734-.08204l1.17578 2.15625m-2.19921-2.14453l.58984 1.07813m13.67578-.34375l-6.88281-1.40625m6.88281 1.40625l.69531 2.35156m-1.6953-2.55469l.34765 1.17579m13.97656-1.01954l-6.90234-1.3125m6.90234 1.3125l.72656 2.34375m-1.73047-2.53515l.36328 1.17187m13.9297-.85937l-6.85157-1.55469m6.85156 1.55469l.64844 2.36719m-1.64453-2.59375l.32422 1.18359m13.9961-1l-6.8711-1.46875m6.8711 1.46875l.67577 2.35937m-1.67187-2.57421l.33594 1.17968m13.98046-.97656l-6.8789-1.44531m6.8789 1.44531l.6836 2.35547m-1.6836-2.5664l.33985 1.17577m14.01562-2.16406l-6.96093.94922m6.96093-.94922l1.4375 1.99219m-2.44922-1.85156l.71875.99609m13.53516-1.51563l-6.8125 1.71094m6.8125-1.71094l1.64453 1.82032m-2.63672-1.57031l.82422.91015m13.57031-.6836l-6.98828.75782m6.98828-.75781l1.37891 2.02734m-2.39453-1.91797l.6875 1.01563m13.66016-.84375l-7.02344.1914m7.02344-.1914l1.21093 2.13672m12.10547-2.14063l-7.02344.20313m7.02344-.20313l1.21485 2.13281m11.96093-3.01953l-6.7461 1.97656m6.7461-1.97656l1.71485 1.75781m11.29297-2.48828l-6.12891 3.4375m6.1289-3.4375l2.0625 1.32422m10.96876-1.75l-5.5625 4.28906m5.5625-4.28906l2.23437 1.01172m-3.04297-.39062l1.11719.5078m12.71094-1.46874L394.5 376.29297m4.97266-4.96875l2.34375.71875m-3.07032.0039l1.17579.35938m13.17968-.71875L407.5 375.92969m5.60156-4.24219l2.22657 1.03125m-3.04297-.41406l1.11328.51562m13.69531.47656l-6.95312 1.02344m6.95312-1.02344l1.45313 1.97657m11.21875.61328l-5.66797-4.15625m4.84375 3.55078l-.17578 1.21484m13.67578.0547l-4.39063-5.48438m3.7539 4.6875l-.48827 1.125m14.27343-.20313l-4.05859-5.73437m4.0586 5.73437l-1.10157 2.1914"/><g clip-path="url(#ab)"><path fill="none" stroke="#000" stroke-linecap="round" stroke-linejoin="round" stroke-miterlimit="10" stroke-width=".5" d="M147.375 359.52344l-6.75 1.9414"/></g><path fill="none" stroke="#000" stroke-linecap="round" stroke-linejoin="round" stroke-miterlimit="10" stroke-width=".5" d="M147.375 359.52344l1.70703 1.76172m-2.6875-1.48047l1.70703 1.76562m12.5625-2.14453l-6.69531 2.13281m6.69531-2.1328l1.7539 1.71483m-2.73046-1.40234l1.75781 1.71094m12.58203-1.85547l-6.79297 1.79688m6.79297-1.79688l1.66797 1.80078m11.63672-1.83203l-6.77344 1.85938m6.77344-1.85938l1.6875 1.78516m-2.67187-1.51563l.84375.89453m13.53125-.82422l-6.92578 1.1797m6.92578-1.1797l1.5 1.94141m-2.50782-1.76953l.75.97265m13.57422-1.14062l-6.92969 1.17188m6.9297-1.17188l1.49609 1.94531m11.83984-.91797l-6.96875-.8789m6.96875.8789l.875 2.29297m12.40625-2.07031l-6.90234-1.32422m6.90234 1.32422l.72266 2.34375m-1.72657-2.53516l.35938 1.17188m13.99219-1.17578l-6.96485-.9375m6.96485.9375l.85156 2.30078m-1.86719-2.4375l.42578 1.15234m13.9336-1.34375l-7.02344-.27734m7.02344.27734l1.0664 2.20703m12.1836-3.03125l-6.89453 1.3672m6.89453-1.3672l1.55078 1.90235m11.3789-2.9414l-6.12109 3.44921m6.1211-3.44922l2.0664 1.32031m11.04688-1.63671l-5.72266 4.07812m5.72266-4.07813l2.1953 1.09766m11.15626-1.04687l-5.79297 3.98046m5.79297-3.98046l2.17578 1.1328m11.03125-1.28124l-5.57813 4.27344m4.76563-3.65235l1.11719.51172m13.53515-.16015l-6.6289 2.32812m5.66797-1.98828l.90234.83203m13.19531-1.59766l-6.26953 3.1797m6.26953-3.1797l2.00781 1.41016m11.0625-1.82031l-5.77734 4m5.77734-4l2.1797 1.125m11.10155-1.17188l-5.71093 4.09375m5.71093-4.09375l2.19922 1.08985m-3.03125-.4922l1.10157.54298m13.07812-1.08985l-5.77734 3.9961m5.77734-3.9961l2.17969 1.125m-3.01953-.54687l1.08984.5664m13.15625-1.01171l-5.95703 3.72656m5.95703-3.72656l2.125 1.22656m-2.99219-.6836l1.0625.61329m13.41407-.57032l-6.54688 2.5586m6.54688-2.5586l1.85937 1.59766m-2.8125-1.22656l.92969.80078m13.5039-.60547l-6.8789 1.42578m6.8789-1.42578l1.57032 1.88672m-2.57032-1.67969l.78516.9414m13.59766-.6328l-7.01563.39453m5.9961-.33594l.63671 1.04687m13.65625-1.48046l-6.93359 1.14062m5.92578-.97266l.7461.97266"/><g clip-path="url(#ac)"><path fill="none" stroke="#000" stroke-linecap="round" stroke-linejoin="round" stroke-miterlimit="10" stroke-width=".5" d="M146.92188 345.23047l-5.84375 3.89844"/></g><path fill="none" stroke="#000" stroke-linecap="round" stroke-linejoin="round" stroke-miterlimit="10" stroke-width=".5" d="M146.92188 345.23047l2.16015 1.16406m-3.00781-.59765l2.16016 1.16406m11.11718-2.64844l-4.07031 5.73047m4.07031-5.73047l2.42969.3164m-3.02344.51954l1.21485.15625m13.5625-.10547l-5.8086 3.95703m5.8086-3.95703l2.17187 1.14062m11.17578-1.08984l-5.875 3.85938m5.875-3.85938l2.15235 1.17578m11.22265-1.08203l-5.99219 3.66797m5.1211-3.13281l1.05469.62109m13.28125-.88281l-6.29688 3.1211m5.38281-2.66407l.9961.71484m13.55469-.16797l-6.9375 1.1172m6.9375-1.1172l1.48046 1.95313m11.87891-1.29688l-7.02344-.19921m6 .17187l.54688 1.09766m13.78906-1.30079l-7.02344.26172m7.02344-.26171l1.23047 2.125m11.90625-3.10938l-6.66406 2.23438m6.66406-2.23438l1.78125 1.6875m11.01562-2.67578l-5.6289 4.20703m5.6289-4.20703l2.21875 1.04297m11.14063-.98438l-5.71485 4.08985m5.71485-4.08985l2.19531 1.09375m10.90625-1.36328l-5.28906 4.6289m5.28906-4.6289l2.29297.8711m-3.0625-.19532l1.14453.4336m13.2539-.69141l-5.91796 3.79297m5.91797-3.79297l2.13672 1.20313m11.41406-.76563l-6.39063 2.91797m5.46094-2.49219l.97656.7461m13.08594-1.51954l-6.02344 3.61329m5.14844-3.08985l1.05078.63281m13.48047-.40234l-6.70703 2.10547m6.70703-2.10547l1.7461 1.72266m11.48828-1.95313l-6.54297 2.5664m6.54297-2.5664l1.86328 1.59766m-2.8164-1.22266l.92968.79688m13.08594-1.6836l-6.03907 3.58985m6.03907-3.58985l2.09765 1.27344m-2.97656-.75l1.05078.63672m13.03516-1.32813l-5.82422 3.9297m5.82422-3.9297l2.16797 1.14844m-3.01563-.57812l1.08594.57421m13.2461-.86718l-6.16407 3.3711m6.16406-3.3711l2.05078 1.34765m-2.9453-.85937l1.02343.67578m13.3086-.91797l-6.41016 2.8789m6.41015-2.8789l1.9414 1.5039m-2.87109-1.08593l.96875.7539m13.32422-1.05859l-6.5039 2.65625m6.5039-2.65625l1.88672 1.57031m-2.83203-1.18359l.9414.78516m13.27344-1.28125l-6.41406 2.8711m6.41406-2.8711l1.9375 1.5039m-2.87109-1.08593l.96875.7539m13.29297-1.14453l-6.4375 2.8164"/><g clip-path="url(#ad)"><path fill="none" stroke="#000" stroke-linecap="round" stroke-linejoin="round" stroke-miterlimit="10" stroke-width=".5" d="M466.78125 345.76953l1.92188 1.52344"/></g><path fill="none" stroke="#000" stroke-linecap="round" stroke-linejoin="round" stroke-miterlimit="10" stroke-width=".5" d="M465.84375 346.17969l.96094.76172"/><g clip-path="url(#ae)"><path fill="none" stroke="#000" stroke-linecap="round" stroke-linejoin="round" stroke-miterlimit="10" stroke-width=".5" d="M146.8789 331.84766l-5.7578 4.03125"/></g><path fill="none" stroke="#000" stroke-linecap="round" stroke-linejoin="round" stroke-miterlimit="10" stroke-width=".5" d="M146.8789 331.84766l2.1875 1.11328m-3.02734-.52735l2.1875 1.11329m-3.02344-.52735l1.09375.5586m13.67188-2.01563l-5.3086 4.60156m5.3086-4.60156l2.28906.88281m-3.0586-.21484l1.14454.4414m12.79688-1.26562l-5.01954 4.91406m5.01953-4.91406l2.33985.74219m-3.07031-.02735l1.16797.3711m12.98437-.97266l-5.23438 4.6875m5.23438-4.6875l2.30469.84766m11.1875-.63281l-5.58985 4.2578m4.77735-3.63671l1.11328.51172m13.60156.04687l-6.76562 1.89844m6.76562-1.89844l1.69531 1.77344m11.7461-.60938l-7.01563-.43359m7.01563.4336l1.01562 2.23437m12.16406-1.45703l-6.74218-1.98438m6.74219 1.98438l.49218 2.40234m12.91016-2.77734l-6.91797-1.23438m6.91797 1.23438l.7539 2.33594m12.59766-3.28516l-6.9961.66406m6.9961-.66406l1.35156 2.04688m11.77735-2.89063l-6.6211 2.35156m6.6211-2.35156l1.8125 1.65625m11.0664-2.5039l-5.74609 4.04296m5.7461-4.04297l2.1875 1.10938m-3.02344-.51953l1.09375.55469m12.96484-1.26954L301 336.01172m5.5625-4.29688l2.23438 1.01172m-3.04297-.38672l1.11718.50782M320.5 333l-6.8086 1.72656M320.5 333l1.65234 1.8164m11.7461-1.36718l-6.97656.82812m6.97656-.82812l1.39844 2.01562m11.875-2.29687l-6.89063 1.38672m5.88672-1.1836l.77734.94922m12.1836-3.28125l-4.17578 5.64844m3.5703-4.82813l1.21095.1797m13.5703-.08594l-5.89843 3.8203m5.04297-3.26562l1.07031.59766m12.9961-1.30469l-5.6875 4.125m5.6875-4.125l2.20312 1.07422m10.76953-1.47656l-5.0039 4.92969m5.0039-4.9297l2.34375.73438m11.30078-.35156l-5.66406 4.16406m5.66406-4.16406l2.21094 1.0625m11.71094.30469l-6.8789 1.42969m6.8789-1.4297l1.57031 1.88673m11.69922-2.08985l-6.78516 1.83594m6.78516-1.83594L442 334.73437m-2.66406-1.52343l.83984.89453m13.29297-1.64453l-6.44531 2.80469m6.44531-2.8047l1.92188 1.52735m-2.85938-1.1211l.96094.76563m13.13281-1.49219l-6.125 3.44532"/><g clip-path="url(#af)"><path fill="none" stroke="#000" stroke-linecap="round" stroke-linejoin="round" stroke-miterlimit="10" stroke-width=".5" d="M466.625 332.14063l2.0664 1.3203"/></g><path fill="none" stroke="#000" stroke-linecap="round" stroke-linejoin="round" stroke-miterlimit="10" stroke-width=".5" d="M465.73047 332.64063l1.03515.66015"/><g clip-path="url(#ag)"><path fill="none" stroke="#000" stroke-linecap="round" stroke-linejoin="round" stroke-miterlimit="10" stroke-width=".5" d="M147.26563 319.2539l-6.53125 2.58985"/></g><path fill="none" stroke="#000" stroke-linecap="round" stroke-linejoin="round" stroke-miterlimit="10" stroke-width=".5" d="M147.26563 319.2539l1.87109 1.58594m-2.82031-1.21093l1.86718 1.58984m-2.8164-1.21094l1.86719 1.58594m13.49609-1.86719l-6.83203 1.64453m6.83203-1.64453l1.6289 1.83594m-2.62109-1.59766l1.625 1.83594m-2.6211-1.59765l.8125.91796m14.44141-1.58203l-6.73047 2.01953m6.73047-2.01953l1.72657 1.74219m-2.70703-1.44922l1.72656 1.74219m-2.70703-1.44922l.86328.8711m14.33984-1.66798l-6.58594 2.44141m6.58594-2.4414l1.83594 1.6328m-2.79297-1.27734l1.83203 1.62891m-2.78906-1.27344l.91406.8164m14.35156-1.43358l-6.65625 2.2539m6.65625-2.2539l1.78516 1.67968m-2.7539-1.35156l1.78515 1.67969m12.64453-1.39453l-6.95312 1.02343m6.95312-1.02343l1.45703 1.97656m-2.46875-1.82813l.72656.98829m13.6211-.28125l-6.99219-.6836m6.99219.6836l.9336 2.26953m-1.94923-2.3711l.46485 1.13672m13.8164-.6875l-6.89062-1.3789m6.89062 1.3789l.70313 2.34766m-1.70703-2.55078L240 322.21094m13.9375-.83985l-6.83203-1.64453m6.83203 1.64453l.60938 2.375m-1.60547-2.61328l.30859 1.1875m14.08594-1.48828l-7.0039-.5664m7.0039.5664l.97656 2.25m-1.99219-2.33203l.48438 1.125m13.76562-2.1289l-6.83984 1.60546m6.83984-1.60547l1.61719 1.84375m-2.61328-1.60937l.8086.92187m13.32812-1.6953l-6.49219 2.68358m6.49219-2.68359l1.89453 1.5625m-2.83594-1.17187l.94531.78125m13.40235-.9336l-6.67188 2.20703m6.67188-2.20703l1.77344 1.69531m-2.7461-1.375l.88672.84766m13.52734-.66797l-6.92578 1.20703m6.92578-1.20703l1.50391 1.9336m-2.51172-1.75782l1.50781 1.9336m12.63672-2.75781l-6.5664 2.5m6.5664-2.5l1.84766 1.61328m-2.80469-1.25l.92578.80859m13.08594-1.71094l-6.04687 3.57813m6.04687-3.57813l2.09375 1.27735m-2.97266-.75391l1.04688.63672m12.5-1.95703l-4.7539 5.17578m4.7539-5.17578l2.375.61719m10.3789-1.03907l-3.6328 6.01563m3.10546-5.14063l1.22656.07031m12.46485-1.03125l-3.32813 6.1875m3.32813-6.1875l2.45312.01172m10.48047-.1875l-2.5664 6.54297m2.5664-6.54297l2.4336-.28515m10.83593.26953l-2.47656 6.57422m2.11719-5.61719l1.21875-.16016m10.20703 5.85547l2.01953-6.73047m15.69531 4.29297l-6.77734-1.85937m5.78906 1.58984l.26953 1.19922m14.13672-2.25l-6.98437.78125m6.98437-.78125l1.38672 2.02734m-2.40234-1.91015l.6914 1.01172m13.28907-2.3125l-6.28125 3.15234"/><g clip-path="url(#ah)"><path fill="none" stroke="#000" stroke-linecap="round" stroke-linejoin="round" stroke-miterlimit="10" stroke-width=".5" d="M466.70313 318.97266l2 1.41796"/></g><path fill="none" stroke="#000" stroke-linecap="round" stroke-linejoin="round" stroke-miterlimit="10" stroke-width=".5" d="M465.78906 319.42969l1 .71094"/><path fill="#00f" fill-rule="evenodd" d="M383.80078 436.57813h8.61719v-10.14454h-8.61719v10.14454"/><path fill="azure" fill-rule="evenodd" d="M385.63281 428.26563h.83203v2.82421h3.28907v-2.82421h.83203v6.48046h-.83203v-2.91406h-3.28907v2.91406h-.83203v-6.48046"/><path fill="#00f" fill-rule="evenodd" d="M366.04688 396.63281h8.61718v-10.14453h-8.61719v10.14453"/><path fill="azure" fill-rule="evenodd" d="M367.8789 388.32031h.83594v2.82422H372v-2.82422h.83203v6.48047H372v-2.91406h-3.28516v2.91406h-.83593v-6.48047"/><path fill="#ff3030" fill-rule="evenodd" d="M424.4414 396.63281h7.69141v-10.14453h-7.6914v10.14453"/><path fill="azure" fill-rule="evenodd" d="M426.27344 388.32031h.83203v5.74219h3.19531v.73828h-4.02734v-6.48047"/><path fill="#ff3030" fill-rule="evenodd" d="M215.83594 374.4414h7.69531v-10.14452h-7.69531v10.14453"/><path fill="azure" fill-rule="evenodd" d="M217.67188 366.1289h.83203v5.7422h3.1914v.73827h-4.02344v-6.48046"/><path fill="#ffffe0" fill-rule="evenodd" d="M395.0039 416.99219h22.1797v-10.1914h-22.1797v10.1914"/><path fill-rule="evenodd" d="M398.5039 408.63281h.50782v6.29688h-.78516v-4.49219h-1.39062v-.55469l.5625-.0664.25-.05079.23047-.08984.20312-.14062.17578-.21094.14063-.29688.10547-.39453m4.8125 0l.23046.01953.21875.0547.20704.08983.19921.1211.1836.14844.17187.17578.30079.42187.24218.49219.17969.54688.11328.57812.03516.59375-.03516.58984-.11328.58594-.17969.55469-.24219.5-.30078.42969-.17187.17968-.1836.15235-.19921.125-.20704.08984-.21875.0586-.23046.01953-.22657-.01954-.22265-.05859-.20703-.08984-.19532-.125-.18359-.15235-.17188-.17968-.30078-.4297-.24609-.5-.17969-.55468-.10937-.58594-.03906-.58984h.83203l.03125.5625.08203.5039.125.44532.16015.3711.19141.30077.21094.22266.22265.13672.22657.04687.22656-.04687.22265-.13672.21094-.22266.1914-.30078.16407-.3711.125-.4453.08203-.50391.02735-.5625-.02735-.5625-.08203-.5-.125-.4375-.16406-.36328-.1914-.29297-.21094-.21484-.22266-.13282-.22656-.04296-.22657.04296-.22265.13282-.21094.21484-.1914.29297-.16016.36328-.125.4375-.08203.5-.03125.5625h-.83204l.03907-.59375.10937-.57813.17969-.54687.2461-.49219.30077-.42187.17188-.17578.1836-.14844.1953-.1211.20704-.08984.22265-.05469.22657-.01953m4.95312 0l.23047.01953.21875.0547.20703.08983.19531.1211.1875.14844.16797.17578.30469.42187.24219.49219.17969.54688.11328.57812.03515.59375-.03515.58984-.11329.58594-.17968.55469-.24219.5-.30469.42969-.16797.17968-.1875.15235-.1953.125-.20704.08984-.21875.0586-.23047.01953-.23047-.01954-.21875-.05859-.20703-.08984-.19531-.125-.1836-.15235-.17187-.17968-.30078-.4297-.2461-.5-.17968-.55468-.10938-.58594-.03906-.58984h.83203l.03125.5625.07813.5039.1289.44532.16016.3711.1914.30077.21094.22266.22266.13672.22656.04687.22656-.04687.22266-.13672.21094-.22266.1914-.30078.16016-.3711.1289-.4453.08204-.50391.02734-.5625-.02734-.5625-.08203-.5-.12891-.4375-.16016-.36328-.1914-.29297-.21094-.21484-.22266-.13282-.22656-.04296-.22656.04296-.22266.13282-.21094.21484-.1914.29297-.16016.36328-.1289.4375-.07813.5-.03125.5625h-.83203l.03906-.59375.10938-.57813.17969-.54687.24609-.49219.30078-.42187.17188-.17578.18359-.14844.19531-.1211.20703-.08984.21875-.05469.23047-.01953m4.95313 0l.38671.02735.35938.08593.32031.13282.28125.1875.23047.23828.17188.28515.10937.33204.03906.3789-.02343.27344-.0547.23437-.08983.19922-.10938.17188-.1289.14453-.14063.1211-.28906.1953.23437.1211.20703.14453.1836.17188.15234.1953.125.21094.08984.23047.0547.2461.01952.2539-.03515.3086-.10157.32812-.17187.32422-.24219.3086-.30469.26953-.375.21093-.21093.08204-.23047.0625-.24219.03906-.26172.01172-.25781-.01172-.24219-.03906-.22265-.0625-.20704-.08204-.35937-.21093-.28906-.26954-.22266-.30859-.15625-.32422-.09375-.32812-.03125-.3086h.83203l.02735.25391.07812.23438.1211.21484.16015.1836.19531.15234.21875.11328.24219.07422.2539.02343.25391-.02343.24219-.07422.21875-.11328.19531-.15235.16016-.1836.1211-.21483.07812-.23438.02734-.2539-.02734-.25391-.07813-.23438-.1211-.21094-.16015-.18359-.19531-.15234-.21875-.11719-.24219-.07031-.2539-.02735-.25391.02735-.24219.07031-.21875.11719-.19531.15234-.16016.1836-.12109.21093-.07813.23438-.02734.2539h-.83203l.01953-.2539.05469-.23828.08984-.22266.125-.21094.15235-.1914.18359-.17188.20703-.15234.23047-.13281-.28516-.19532-.14062-.1211-.1289-.14452-.10938-.17188-.08985-.19922-.05859-.23437-.01953-.27344h.78906l.01953.21485.0664.1914.10548.16406.13672.14063.16406.10937.1914.08204.20704.05078.21875.01953.21875-.01953.20703-.05079.1914-.08203.16407-.10937.13671-.14063.10547-.16406.0625-.1914.02344-.21485-.02344-.21484-.0625-.1914-.10546-.16798-.13672-.13672-.16407-.11328-.1914-.08203-.20703-.05078-.21875-.01563-.21875.01563-.20704.05078-.1914.08203-.16406.11328-.13672.13672-.10547.16797-.0664.1914-.01954.21485h-.78906l.03906-.3789.10938-.33204.17187-.28515.23047-.23828.27734-.1875.32422-.13282.35938-.08593.38672-.02735"/><path fill="#ffffe0" fill-rule="evenodd" d="M306.23828 342.44531h22.17969v-10.1914h-22.17969v10.1914"/><path fill-rule="evenodd" d="M309.73828 334.08594h.50781v6.29687h-.78906v-4.49219h-1.38672v-.55468l.5586-.0664.2539-.05079.23047-.08984.20313-.14063.17187-.21094.14063-.29687.10937-.39453m4.8125 0l.23047.01953.21875.05469.20703.08984.19531.1211.1836.14843.17187.17578.30078.42188.2461.49219.17969.54687.10937.57813.03906.59375-.03906.58984-.10938.58594-.17968.55468-.2461.5-.30078.4297-.17187.17968-.1836.15234-.1953.125-.20704.08985-.21875.05859-.23047.01953-.23047-.01953-.21875-.0586-.20703-.08984-.19531-.125-.1875-.15234-.16797-.17969-.30469-.42969-.24219-.5-.17968-.55468-.11328-.58594-.03516-.58985h.83203l.02735.5625.08203.50391.1289.44531.16016.375.1914.29688.21094.22265.22266.13672.22656.04688.22656-.04688.22266-.13671.21094-.22266.1914-.29688.16016-.375.125-.4453.08203-.50392.03125-.5625-.03125-.5625-.08203-.5-.125-.4375-.16016-.36328-.1914-.29296-.21094-.21485-.22266-.13281-.22656-.04297-.22656.04297-.22266.13281-.21094.21485-.1914.29296-.16016.36329-.1289.4375-.08204.5-.02734.5625h-.83203l.03516-.59375.11328-.57813.17969-.54688.24218-.49218.30469-.42188.16797-.17578.1875-.14844.19531-.12109.20703-.08984.21875-.0547.23047-.01952m5.08985 0h.51171v6.29687h-.78906v-4.49219h-1.38672v-.55468l.5586-.0664.2539-.05079.22656-.08984.20313-.14063.17578-.21094.14063-.29687.10546-.39453m2.82422 2.17578h.78516l.02344-.3164.0586-.28516.09765-.25391.14062-.21484.17969-.17188.22266-.1289.26562-.08204.3086-.02734.23828.01953.22265.0625.20703.10156.1797.14063.14843.17187.11328.20704.07031.23437.02344.26563-.01953.26953-.0664.22265-.10938.1914-.15625.17188-.19922.16407-.25.16406-.63281.39062-.53907.3125-.4375.31641-.34375.32422-.26562.33594-.1914.35156-.125.3711-.06641.39062-.01954.42187h4.21094v-.74219h-3.33203l.08203-.28515.11328-.23438.14844-.20312.1875-.17969.23047-.17187.27734-.17579.71875-.41406.41407-.20703.34765-.23047.28125-.25.21875-.26953.16406-.27734.10938-.28516.0625-.28515.02344-.28125-.04297-.38282-.1211-.34765-.1875-.3086-.25-.26172-.30468-.21093-.34375-.16016-.38281-.09766-.40625-.03515-.4336.03515-.39844.09766-.35546.16406-.3047.23438-.24609.30469-.1875.375-.11718.4453-.03907.51954"/><path fill="#ffffe0" fill-rule="evenodd" d="M164.21094 325.5664h22.17969v-10.1953h-22.1797v10.1953"/><path fill-rule="evenodd" d="M167.71094 317.20703h.50781V323.5h-.78906v-4.48828h-1.38672v-.55469l.5586-.0664.2539-.0547.23047-.08984.20312-.14062.17188-.21094.14062-.29297.10938-.39453m4.8125 0l.23047.01953.21875.05469.20703.08984.19531.1211.1836.14844.17187.17578.30078.41796.2461.4961.17968.54687.10938.57813.03906.58984-.03906.59375-.10938.58203-.17969.5547-.24609.5039-.30078.42578-.17188.17969-.18359.15625-.19531.12109-.20703.09375-.21875.05469-.23047.01953-.23047-.01953-.21875-.05469-.20703-.09375-.19531-.1211-.1875-.15624-.16797-.1797-.3047-.42577-.24218-.5039-.17969-.5547-.11328-.58203-.03515-.59375h.83203l.02734.5625.08203.50781.1289.44141.16017.375.1914.30078.21094.22266.22266.13672.22656.04687.22656-.04687.22266-.13672.21093-.22266.19141-.30078.16016-.375.125-.4414.08203-.50782.03125-.5625-.03125-.5625-.08203-.5-.125-.4336-.16016-.36718-.1914-.29297-.21094-.21094-.22266-.1328-.22656-.04688-.22656.04687-.22266.13281-.21094.21094-.1914.29297-.16016.36719-.1289.4336-.08204.5-.02734.5625h-.83203l.03515-.58985.11328-.57813.1797-.54687.24218-.4961.30469-.41796.16797-.17579.1875-.14843.1953-.1211.20704-.08984.21875-.05469.23047-.01953m5.08984 0h.51172V323.5h-.78906v-4.48828h-1.38672v-.55469l.5586-.0664.2539-.0547.22656-.08984.20313-.14062.17578-.21094.14062-.29297.10547-.39453m2.82422 2.17578h.78516l.01953-.3164.0625-.28907.09765-.25.14063-.21484.17969-.17578.22265-.1289.26563-.08204.3086-.02734.23827.02344.22266.0625.20703.10156.17578.13672.15234.17578.11329.20312.0703.23828.02345.26172-.01953.26953-.06641.22657-.10938.1914-.15625.17188-.19922.16015-.25.16797-.6328.38672-.53907.3125-.4375.32031-.34375.32422-.26563.33594-.1914.34766-.125.37109-.0664.39453-.02345.41797h4.21485v-.73828h-3.33203l.08203-.28516.11328-.23828.14844-.19922.1875-.1836.23047-.16796.27734-.17578.71875-.41797.41406-.20703.34766-.23047.27734-.25.22266-.26563.16406-.28125.10938-.28125.0625-.28515.02343-.28125-.04297-.38281-.12109-.34766-.1875-.3086-.25-.26562-.30469-.21094-.34375-.15625-.3828-.10156-.40626-.03125-.4336.03125-.39843.09766-.35547.16797-.30469.23437-.24609.30469-.1875.375-.11719.44531-.03906.51953"/></g></defs><use xlink:href="#ai"/></svg>