<svg xmlns="http://www.w3.org/2000/svg" role="img" xmlns:xlink="http://www.w3.org/1999/xlink" viewBox="142.45 309.95 326.84 171.84"><defs><clipPath id="a"><path d="M144 311.67188h1v168.65625h-1zm0 0"/></clipPath><clipPath id="b"><path d="M144 311.67188h324v168.65625H144zm0 0"/></clipPath><clipPath id="c"><path d="M467 311.67188h1v168.65625h-1zm0 0"/></clipPath><clipPath id="d"><path d="M144 479h4v1.32813h-4zm0 0"/></clipPath><clipPath id="e"><path d="M146 479h2v1.32813h-2zm0 0"/></clipPath><clipPath id="f"><path d="M153 479h8v1.32813h-8zm0 0"/></clipPath><clipPath id="g"><path d="M159 479h2v1.32813h-2zm0 0"/></clipPath><clipPath id="h"><path d="M166 479h9v1.32813h-9zm0 0"/></clipPath><clipPath id="i"><path d="M172 479h2v1.32813h-2zm0 0"/></clipPath><clipPath id="j"><path d="M180 478h8v2.32813h-8zm0 0"/></clipPath><clipPath id="k"><path d="M186 480h1v.32813h-1zm0 0"/></clipPath><clipPath id="l"><path d="M194 478h7v2.32813h-7zm0 0"/></clipPath><clipPath id="m"><path d="M207 478h7v2.32813h-7zm0 0"/></clipPath><clipPath id="n"><path d="M220 479h8v1.32813h-8zm0 0"/></clipPath><clipPath id="o"><path d="M226 480h1v.32813h-1zm0 0"/></clipPath><clipPath id="p"><path d="M233 479h8v1.32813h-8zm0 0"/></clipPath><clipPath id="q"><path d="M239 479h2v1.32813h-2zm0 0"/></clipPath><clipPath id="r"><path d="M246 479h9v1.32813h-9zm0 0"/></clipPath><clipPath id="s"><path d="M252 479h3v1.32813h-3zm0 0"/></clipPath><clipPath id="t"><path d="M260 479h8v1.32813h-8zm0 0"/></clipPath><clipPath id="u"><path d="M266 479h2v1.32813h-2zm0 0"/></clipPath><clipPath id="v"><path d="M273 478h8v2.32813h-8zm0 0"/></clipPath><clipPath id="w"><path d="M287 478h7v2.32813h-7zm0 0"/></clipPath><clipPath id="x"><path d="M300 478h8v2.32813h-8zm0 0"/></clipPath><clipPath id="y"><path d="M313 479h8v1.32813h-8zm0 0"/></clipPath><clipPath id="z"><path d="M328 477h5v3.32813h-5zm0 0"/></clipPath><clipPath id="A"><path d="M341 477h6v3.32813h-6zm0 0"/></clipPath><clipPath id="B"><path d="M355 477h5v3.32813h-5zm0 0"/></clipPath><clipPath id="C"><path d="M367 477h6v3.32813h-6zm0 0"/></clipPath><clipPath id="D"><path d="M382 476h4v4.32813h-4zm0 0"/></clipPath><clipPath id="E"><path d="M393 478h8v2.32813h-8zm0 0"/></clipPath><clipPath id="F"><path d="M399 479h2v1.32813h-2zm0 0"/></clipPath><clipPath id="G"><path d="M406 478h8v2.32813h-8zm0 0"/></clipPath><clipPath id="H"><path d="M412 479h2v1.32813h-2zm0 0"/></clipPath><clipPath id="I"><path d="M420 478h8v2.32813h-8zm0 0"/></clipPath><clipPath id="J"><path d="M425 478h3v2.32813h-3zm0 0"/></clipPath><clipPath id="K"><path d="M434 477h6v3.32813h-6zm0 0"/></clipPath><clipPath id="L"><path d="M447 477h6v3.32813h-6zm0 0"/></clipPath><clipPath id="M"><path d="M461 476h5v4.32813h-5zm0 0"/></clipPath><clipPath id="N"><path d="M144 465h4v4h-4zm0 0"/></clipPath><clipPath id="O"><path d="M144 453h4v2h-4zm0 0"/></clipPath><clipPath id="P"><path d="M144 439h4v3h-4zm0 0"/></clipPath><clipPath id="Q"><path d="M144 426h4v3h-4zm0 0"/></clipPath><clipPath id="R"><path d="M144 412h4v3h-4zm0 0"/></clipPath><clipPath id="S"><path d="M144 399h4v3h-4zm0 0"/></clipPath><clipPath id="T"><path d="M144 384h4v6h-4zm0 0"/></clipPath><clipPath id="U"><path d="M144 371h3v6h-3zm0 0"/></clipPath><clipPath id="V"><path d="M144 358h4v5h-4zm0 0"/></clipPath><clipPath id="W"><path d="M144 345h4v4h-4zm0 0"/></clipPath><clipPath id="X"><path d="M466 345h2v3h-2zm0 0"/></clipPath><clipPath id="Y"><path d="M144 333h4v2h-4zm0 0"/></clipPath><clipPath id="Z"><path d="M466 331h2v3h-2zm0 0"/></clipPath><clipPath id="aa"><path d="M465 332h3v2h-3zm0 0"/></clipPath><clipPath id="ab"><path d="M144 318h4v5h-4zm0 0"/></clipPath><clipPath id="ac"><path d="M466 318h2v2h-2zm0 0"/></clipPath><clipPath id="ad"><path d="M465 318h3v3h-3zm0 0"/></clipPath><g id="ae" clip-path="url(#clip1)"><path fill="#fff" fill-opacity="0" fill-rule="evenodd" d="M0 0h1000v1000H0zm0 0"/><path fill="#d3d3d3" fill-opacity="0" fill-rule="evenodd" d="M162.15234 355.86719l-.23437.29297.0586.23437.11718.17188.17578.23437.29297.34766.11328.0586.11719-.17188.0586-.23438.17577-.17578.46485-.17578h.69922l.23437.29297.28906.8164.0586.17579.17578.23046.35156.23438.69922.69922.17188.17578.23437.34765.23438.41016.28906.58203.41015.46485.23047.23437.23438.17578.11719.23047.17578.29297.17187 1.16406v.23438l.0586.28906.05859.11719.11719.11719.34765.41015.11719.17188.17578.17578.17578.23437.11719.17188.17188.35156.05859.23438.23437.40625.23438-.0586-.17578.17578-.0586.92969h-.58203l-.23437-.11328-.34766.11328-.11719.11719-.05859.29297-.0586.17578-.11718.17187-.46484.29297-.0586.23438-.0586.11328v.64453l.0586.17187v.41016l.0586.0586v.40624l.05859.40625.11719.17579.05859.05859.23047.64062-.0586.29297v.69922l-.05859.58203v.23438l-.0586.23047-.05468.35156v1.92187l.05469.1172h.42578l-.36719.11718-.02344.35156.89063 1.16797 1.74219.53906 1.33984.35938v.53906l.08984.8086.53516.71484 1.51953.26953.89063-.08594.08984 1.16406.53516.1797 1.16015-.1797 2.05469-.98437 1.16016-.36328 1.8789-.17578 1.69531-.1797-.17968.71876-1.51563.08594-1.25.08984-.80469.26953-1.07421.8086.26953.71875.53515.89843-.17968.625-.26563.8086.26563 1.07812.625.89844.80468.17969 1.25-.1797-.26562.72267.09766.5039.05468.29297v.17188l.0586.29296v.40625l.17578.1172.35156.11718h.40625l.29297-.17578.11328-.11719.0586-.11719.11718-.23047.0586-.17578.35156-.46484.23047-.17578.17578-.0586.17578.0586.0586.17578.11718.98828.05469.46875.0586.17188.11718.23437.17578.0586.8164.05859h.28907l.11719.23437.05859.40625.0586.35156v1.10547l.11718.29297.11719.34766.28906.69922.17578.35156.58203.7539.35157.17579.17187.0586.46875.23437.64063.46484.34765.23438.29297.17578.29297.05468.23047.0625.8164.34766.29297.17578.11328.17188.35157.35156.11719.17578.52343.64063v.28906l.0586.35156v.34766l.05859.35156.0586.28906.11718.0586.17188.05859h.17578l.58203.23437.17578.1172.17578.28905.17578.23438.11328.23437.29297.23047.11719.11719v.41016l.0586.05468.28906.23438.23437.11719.0586.11718.11718.17188.0586.11719.23047.23437.05859.17578.23437.0586.1172.05859-.1172.11328-.05859.11719v.11719l-.11719.29296-.11719.28907v.58203l.17579.11719.11718.05859.0586.11719.11719.11719.11328.05859.17578.34765.0586.35157.05858.40625v.17578l-.05859.17578-.11719.69922v.17187l.1172.17579.29296.29296h.40625l.17578.1172.11719.17187.11719.29296v.23438h-.52735l-.23047-.23438h-.23437l-.17578.0586-.0586.69922.0586.34765.11719.17579.17578.41015.11718.23047.28907.46875.17578.05469h.52344l.23437.0586.75781.64062.0586.29296v.23438l.05859.0586.23047.34765v.35156l-.11719.17188v.29297l.29297.28906.29297.17578.17187.0586.29297.17577.29297.1172.58203.40624.28906.23438.29297.17578.21875.16015.01563.01172.23047.17579.64062.52343.17578.23438.1172.17578.17577.17578.11328.17188v.64062l.1172.17578.46874.11719.58203.11719.23438.05859.23047.11328.29297.11719.11328.0586.58593.35156.28907.17187.17578.0625.17578.05469.17578.0586.69922.35155.28906.17579.23438.05468.28906.17578.23437.1172.64063.40624.29297.11719.17187.0586.23438.05859.41015.05859.23047.0586.23438.11718.0586.17188-.41017.17578.46875.0586.0586.29296.11328.23438.17578.05468.23438.0586.17578.05859.40625.11719.64062.23437.11719.17188.0586.23437v.17578l-.0586.1172-.0586.40624.23438.23438.11719.05859.34766.11719.64062.23047.17578.11718.28906.1172.17578.17577.23438.46485.58203 1.10546.17578.17579.34766.17578.17578.11719.35156.11718 1.04688.52344.23437.0586.46485.11327.29297.0586.46484.17578.75781.58203.23438.23438.34765.46484.17578.17578.28907.23438.8164.69921.29297.17579.28906.28906.29297.17578.29297.28906.69531.64063.17578.17578.29297.23437.28907.23438.46875.28906.64062.58203.34766.23438.23437.29297.34766.34765.35156.46485.9336.99218.34765.40625.11719.17579.23437.05859.11328.11719.64454.17578.23047.11328.23437.0586.29297.17577.23047.1172.9336.69921.40624.40625.23438.17578.40625.17578.23437.11719.8164.34766.34766.23437.23438.11719.29297.28906.23047.11719.7578.35156.35157.17188.23047.05859.29297.11719.23437.0586.8711.17577h.8164l.46875.23047.17188.0586.875.69921.46484.1172.29297.05858.17578.0586.23047.0586.46875.05859.34766.05859.35156.0586.40625.05859h.29297l.17187.0586v.23046l.17578.17578h.29297l.34766.0586.35156.05859.69922.11719h.64063l.46484-.23438.29297-.17578.17187-.11719.41016-.17187.28906-.17578.9336-.46485.46875-.29297.52343-.29296.46485-.17188.46484-.17578 1.05078-.46485.28906-.11718.41016-.11719.28906-.11719.52735-.17578 1.51562-.69922.58203-.34765.28907-.0586.29297-.0586.34765-.11718.875-.23047.35156-.11719h.11329l.23437-.05859.875-.23437.23438-.0586h.8125l.35156-.0586.8164-.11718.17188-.0586.35156-.05468.29297-.0586.23047-.05859.8164-.17578.17579-.0586h.34765l.23438-.05859.46484-.11718.75781-.17188.23438-.0586h.34765l.41016-.11718.28906-.0586 1.28516-.05859h.28906l.41016-.0586.23047-.05858h.17578l.875-.1172h.40625l.41015-.11718h.34766l.35156-.11328.8711-.0586h1.75l1.04687.28907.41016.11719.28906.11718.35156.11719.28907.11719 1.05078.17187.28906.0586h.29297l.29297.05859.17187.0586.41016.05859.17187.0586.1172.05858h.11718l.11719.0586.35156.0586h.11328l.41016.0664 1.92187.39453 1.92578.39453 1.51953.44922 1.69532.71875 2.14453.80469 1.60547-.71875 1.42968-.80469 1.16016-1.07813 1.25-.44921 3.03516-.71875 1.875-.35938 2.14453-1.34765 2.23437-1.25391 2.5-1.25781 1.69531-.44922 1.78516-.17969 1.16016-.26953.625.53906 1.33984-.26953.71485-.98828.98437-1.34375.44531-.17969.80469-.35937 1.875-.53907 1.78516-.44921 1.25-.26954 1.16015-.08984 1.69922-.08984 1.96094-.26954 1.25-.08984h.53906l.625-.08984h.89063l2.14453-.17969 2.41015-.17969 2.58985-.08984 1.69531.17969 1.60938.08984 1.42968.35938 1.16016.71875 1.875.98828 1.16015 1.52734.26563.71484.6289.08985.35548.89844.53515.53906.53516 1.52734 1.07422.35938h.53515l-.80469.53515.08985 1.70703.71484 2.69532.89063.80468.89453.98829.71484 1.2578 1.78516.53907 1.51953-.17969.35547 1.34375 1.60937-.80469.98047-.53906.26953.26953.31641-.21484.21875-.14453.80078.44922.44922-.35938h.35547l.53515-.26953.53907-.71875.53515-.26953.625-.98828 1.16016.44922.83984.3711 1.39454.61718 1.6953-.17969h1.60548l1.78515.08985.17969-1.70704.53516-1.34375.80468.26954.4922.84765.40233.40625-.08984.53906v.35938l.71485.44922.71093-.26953h1.42969l.35938.98828.4453 1.25781.71485 1.34375 1.25.6289 1.69531.62891.71485-.17969.17969-.53906.98046-.08984.44922.35937.08594 1.25782-.26563.6289-.53515.17969v.53906l.71484.98438.26563.53906.98437.98828.80078 1.07813-.26562.35937-.08985.89844-.625 2.33203-.35546 2.0664-.08985 1.79298-.17969.71875-.08984.53906v1.4375l-.98047 1.88281-.35937 1.70703-.53516.89844-.80469 1.16797-.26562.53906 2.05469 1.2539.08593.35938-.35546.53906-.08985-.17968v.80859l.08985 1.4375-.44532.71484-1.07422.09375-.26562.71485.53515.89844.8047.71875 1.16015.80859 1.33984.26953.44531.35938-.35546.44921-1.78907-.08984-1.25-.44922-.71484-.71875-.625-.08984-.17578 3.58984-.1875 1.3086h89.35937V311.70313h-55.26953v49.08203l.76172.125 3.28906.54296 2.02344 2.83594v2.7539l2.35156.33204 2.34766.33203h4.05078l-1.3789 4.16016-2.02344.70703-2.02344.70312-.54297.34375-2.59375 1.6172-.1875.11718-2.02344-2.07813-.73046-2.74218-2.67188-2.07813-1.375-3.5-.0664-.08203-1.95704-2.67188 2.75-1.41796v-49.08204H294.42187v91.41407l.1172.03125.1328.01172.07422.07421.10547.04688.08985.0586.08593.05859.08985.0586.29687.29687.0586.08984.03125.11719.02734.11719.01563.13671-.03125.1172-.0586.08983-.0586.08594-.04296.10547-.04688.10156-.02734.1211v.14453l.17578.26953.14844.14844.07422.08594.07422.07421.04296.10547.0625.08985.0586.08593.04297.10547.0586.08985.04687.10156.04296.10547.0586.08594.11719.17968.07421.07422.0625.08594.0586.08984.04297.10547.0586.08985.05858.08593.0625.08985.0586.08984.04297.10156.11719.17969.07421.07422.0586.08594.07422.07421.08984.0586.10547.04687h.14844l.1328-.01562.13282.01562.10156-.04687.07422-.07422.04688-.10156-.01563-.13281v-.14844l-.04687-.10547-.02735-.11719-.04687-.10156-.02735-.1211-.04296-.10156-.0625-.08984-.04297-.10156-.04297-.10547-.03125-.11719-.01563-.13281-.01171-.13672.08593-.0586.0586-.08593.12109-.03125.04297.10547.01562.1328v.1172l.0586.10156.0586.08984.08983.0586.14844.14843.0586.08985.04296.10547-.01171.10156.08593.0586.10547.04687.08594.0586.08984.05858.07422.07422-.11719.02735-.10546.04687-.08594.0586-.07422.07421-.0586.08985-.0625.08594-.02734.12109-.04687.10156-.04297.10547-.03125.11719-.01172.13281-.01563.13281v.14844l.02735.11719.04687.10547.04297.10156.0586.08984.07421.07422.08985.0586.07422.07421.08984.0586.0586.08984.04296.10547.04688.10156.11719.03125.1328.01563h.14845l.11718-.03125.10547.04297.04297.10547.04688.10156.02734.1211L299.5 410l.02734.11719.03125.1211.02735.11718.10547.04297.10156.04687.13281-.01562.14844.14844.0625.08593.07422.07422.07031.07422.08984.0625.10547.04297.10156.04297.1172.03125.13671.01562.11719-.03125.07422-.07422.02734-.11718-.01172-.13282-.03125-.12109-.02734-.11719.04297-.10547h.11719l.08984.0625.11719.02735h.14843l.13282.01562h.14843l.13282.01563.1328-.01563h.14845l.1328-.01562.13282-.01172.13672.01172.11719-.02735.13281-.01562.1914-.0586-.05859.17579-.01562.1328-.02735.1211-.01562.13281-.0586.08594-.1328.01563-.10548.04687-.10546.04297-.1172.03125-.11718.02735-.26563.03125h-.14843l-.13281.01562-.07422.07422.05859.08594.14844.14843.11719.1797.07421.0703.08985.0625.08984.0586.08594.0586.08984.05858.10156.04297.10547.0625.10547.04297.08594.0586.10547.04687.10156.04297.17969.11719.0586.08984-.04298.10156-.04687.10547.01562.13281.22266.22266.0586.08985.04296.10156.03125.1211.04297.10155.01563.13282.03125.11718.01171.13672.03125.11719.14844.14844.10156.04297.10547.04296.1172.03125.1328.01563.13672.01563h.11719l.11719-.03125.08984-.0586.04297-.10547.04688-.10156.04296-.10547.03125-.11719.01172-.1328v-.14845l-.01172-.1328-.01562-.13282-.03125-.11719-.04297-.10547-.04688-.10547-.04296-.10156-.04297-.10547-.01563-.13281.01563-.13281.02734-.11719.03125-.11719.02735-.1211.04687-.10155.08984-.0586.08594-.0625.07422-.07422.08984-.05859.22266-.22266.0586-.08593.07421-.07422.11719-.17969.0586-.08594v-.14844l-.07423-.07421-.10156-.04688-.10547-.04297-.10156-.04297-.0586-.08984-.04687-.10547-.02734-.11719.08984-.05859.11719-.03125.10156-.04297.17969-.11719.14844-.14843.01172-.13282-.01172-.10546-.08985-.0586-.1328.01563h-.14845l-.1328.01562-.13282-.01562-.1211-.03125-.08593-.0586-.07422-.07422-.0586-.08984-.0625-.08594-.11718-.17969-.0586-.08593.03125-.1211.08594-.05859.1211-.03125.05859-.08594v-.1211l-.03125-.11718-.0586-.08984-.05859-.08594-.04687-.10547-.02735-.11719-.01562-.1328.0586-.08985.07421-.07422.08984-.0586.1172-.17968.07421-.07422.0586-.08594.14843-.14844.1211-.03125.1328-.01562.13282.01562.07422.07422.04297.10547.01562.13281-.03125.1172-.11719.03124-.1328.01172-.14844.14844-.04297.10547-.04688.10156-.02734.1211-.03125.11718v.14844l.03125.11719.04297.10546.05859.08985.07422.07031.07422.07422.11719.03125.12109.02734.11719-.02734.1328-.01563h.1172l.08984.0586.07422.07422.04687.10546.0586.08594.10156.04688.13281.01562.10547.04297.08594.0586-.01172.10546-.07422.07422-.17969.11719-.05859.08984-.08984.0586-.07032.07422-.07421.07421-.0625.08985-.02735.11719-.01562.1328.01562.13282-.01562.13281v.14844l.01562.13281.02735.1172.03125.12108.07421.07422.08985.0586.08594.0586.08984.05858.11719.03125v.08594l-.10157.04688-.08984.0586-.26563.03124-.11718.02735h-.14844l-.10547.04296-.10156.04688-.0586.08984-.0625.23438-.01171.13281-.03125.1211-.01563.1328v.29298l-.01172.1328.01172.13673.01563.1328.1328.01563.13282.01172.1211.03125.08593.0586.07422.07421.04688.10547.04296.10157.01563.1328v.44532l-.01563.13281v.44532l.03125.26562.02735.11719.01562.13281.03125.11719.08594.21094.03125.26562v.14844l-.03125.11719-.02734.11718-.03125.1211-.02735.11719-.03125.11718-.03125.1211-.01171.1328-.01563.13282.08984.0586.1172-.03125.10155.01562.04688.10547-.03125.26562v.44141l-.04297.10547-.04688.10547-.04296.10156-.04297.10547-.0586.08594-.03125.12109-.04296.11719-.03125.11719-.01563.1328.01563.13282.05859.08984.10547.04688.08594.0586.05859.08593-.01172.13672-.03125.11719-.04297.10156v.44531l-.01562.13281v.14844l-.03125.11719-.04297.10547-.02735.11719-.04687.10546-.04297.10157-.03125.12109-.02734.11719-.03125.13281-.03125.11719-.02735.11719-.04297.10546-.03125.1172-.03125.12108-.01171.13282-.01563.13281v.29688l.02734.11718v.14844l.04688.39844.02734.11719.0586.08984.12109.03125h.14844l.13281-.01563.0586.08985v.11719l-.0586.08984-.08984.0586-.10157.04296-.10546.04688-.08985.05859-.08594.0586-.13671.01562-.1172-.03125-.1328-.01563-.10157.04688-.0625.08594-.01172.13671-.01562.13282-.03125.11719-.02735.11718-.01562.13281-.03125.1211v.29687l.01563.13282.03125.11718v.14844l.01171.13281v.14844l-.02734.11719-.04688.10156-.02734.1211-.03125.11718-.0586.08985-.07421.07421-.10156.04297-.10547.04688-.11719.02734-.1211.03125-.10156-.04687.0586-.08594.10547-.04688.02734-.11718.03125-.11719.02734-.1211.03125-.11718v-.14844l.01563-.13281-.03125-.11719-.04297-.10547-.10547.01563-.07422.07422-.10156.04296-.08984.0625-.07422.07422-.04297.10157-.01563.1328-.03125.1172L304.25 426l-.03125.11719-.02734.11719-.03125.12109-.02735.11719-.03125.11718-.04297.10547-.08984.0586h-.08984l-.1172-.03125-.03124-.08594.01562-.13672-.03125-.11719v-.14844l-.01171-.1328v-.14844l-.0625-.23438-.02735-.1211-.04297-.10156-.04687-.10546-.0586-.08594-.05859-.08985-.04297-.10546-.0625-.08594-.14844-.14844-.0703-.07422-.10548-.04687-.10547-.04297-.10156-.04297-.29687-.29688-.08985-.07421-.08594-.0586-.10546-.04297-.08985-.0625-.08594-.0586-.10546-.04296-.08985-.0586-.08594-.0625-.07421-.0703-.10547-.04688-.08594-.0586-.10547-.04296-.08984-.0625-.10156-.04297-.10547-.04297-.08594-.0586-.10547-.04687-.10547-.04297-.10156-.04687-.08985-.0586-.10156-.04297-.10547-.04296-.08984-.0625-.11719-.02735-.13281-.01562-.13281.01562H299.75l-.13281.01563-.11719-.03125-.08984-.0586-.07422-.07422-.08985-.05859-.10156-.04688h-.14844l-.12109-.02734-.10156-.04297-.07422-.07422-.11719-.17968-.08984-.0586-.10156-.04297-.08985-.0625-.10547-.04296-.08984-.0586-.08594-.0586-.10547-.04687-.0586-.08594-.05858-.08984-.04297-.10547-.04688-.10156-.07422-.07422-.08594-.0586-.07421-.07421-.08985-.0586-.22265-.22265-.04297-.10547-.03125-.26563.10547-.04296h.14453l.10547.04296.07421.07422.08985.0586.08594.0586.10546.04687.08985.05859.14844.14844.0703.07422.14845.14843.0625.08594.07421.07422.08594.0586.07422.07421.08985.0625.08984.0586.08594.05859.26953.17578.10156.04688.10547.04296.10156.04297.04688-.07421.05859-.08594.07422-.07422.07031-.07422.10547.04297.07422.07422.0586.08984.04296.10156.04688.10547.04296.10547.1211.02735.11719-.02735.07421-.08984.04297-.10547.0586-.08985.07422-.07421.10546-.04297.1172-.02735.1328.01172.08985.0586.14844.14843.05859.08985.04297.10547.04687.10156.04297.10547.04297.10156.10547.04688.10547.04296.13281.01563.08594-.0586.0586-.08984.07421-.07422.10547-.04297.11719.02735.10547.04687.10156.04297.10547.04297.10156.04688.17969.11718v.11719l-.01563.13281.01563.13281.01562.13672.0586.08594.10156.04688.1211.02734.11718.03125h.14844l.11719-.03125.05859-.08984.17969-.1172.05859-.08983.07422-.07422.0586-.08594.11718-.17969.17969-.11719.11719.03125.08984.0586.04297.07422-.01563.1328v.1172l.08985.05859h.14843l.13282-.01563.1328-.01171.26563-.03125.10547-.04297.11719-.03125.1211-.02735.07421-.07421.07031-.07422.0625-.08985-.01562-.10547-.04688-.10156-.10156-.04297-.10547-.01562-.11718.02734-.26563.03125h-.14844l-.07421-.07422-.08985-.0586-.11719-.03124-.11718-.02735-.13282-.01562h-.14843l-.13282.01563h-.29687l-.10547-.04688-.14844-.14844-.04297-.10156-.05859-.08984.22266-.22266.08593-.0586.10547-.04296.11719-.03125.13281-.01563.13281.01563.13672.01562.10157.04297.1328-.01172.08985-.0625.10156-.04297.0625-.08984-.04687-.10156-.08984-.0586-.1172-.03125-.10155-.04296-.0586-.08985-.0625-.08984v-.11719l.01563-.13281.10547-.04688.07421-.07031v-.1211l-.08984-.05859-.03125-.11719.08985-.05859.07421-.07422.04297-.10547.0586-.08984.04687-.10156.01563-.13281v-.14844l-.04688-.10547-.04297-.10156-.08984-.0586-.13281-.01562-.10157-.04297-.13671-.01563-.1172-.03125h-.4453l-.13282-.01562-.13281-.01172-.13281-.01563-.11719-.03125h-.14844l-.13281-.01562-.13281-.01172-.26563-.03125-.1211-.04297-.08593-.0586-.07422-.07421v-.14844l.01172-.13281.10547-.04688.10156-.04296.13281-.01563h.15235l.13281-.01562h.29297l.1211.03125.10156.04296.08984.0586.23438.0625.12109-.04688.08984-.05859.10156-.04297.13282-.01562.10547.04296.10156.04688.13281.01172.1211-.02735h.14453l.12109-.03125.11719-.02734.10547-.04687.07421-.07422.08594-.0586.14844-.14843.0586-.08594.04687-.10547.02734-.11719.01563-.10547-.10156-.04296-.08985-.0586-.11719-.03125-.10546-.04297-.08985-.0625-.07422-.08594-.07422-.07421-.10156-.04297-.10547-.04688-.10156-.04297-.0586-.08984-.04687-.10156-.08594-.21094-.0625-.08594-.05859-.08984-.07422-.07422-.08594-.0586h-.26953l-.11719.03126-.08984.05859-.10156.04297-.13281.01562-.10547-.01562-.02735-.11719-.0625-.08984-.11718-.03125-.10157-.04297-.14843-.14844-.03125-.11719-.01563-.10546.07422-.07422.17969-.1172.11719-.02733.11718-.03125.13672.01562.10156.04297.10547.04297.10156.04687.10547.04297.1172.03125.1328.01563.1172.02734.1328.01563.10547-.01563.08985-.0586-.07422-.07421-.10547-.04297-.07422-.07422-.07422-.08984-.14844-.14844-.08593-.0586-.08985-.05859-.07422-.07422-.08984-.0586-.10156-.04687-.1211-.02734-.10156-.04688-.10547-.04296-.11719-.03125-.10156-.04297-.1211-.03125h-.14843l-.11719.03125-.10546.04297-.08594.0625-.17969.11718-.08594.0586-.08984.0586-.10547.04687-.08594.05859-.10547.04297-.10156.04297-.10547.04687-.07422.07422-.05859.08985-.0586.08593-.04687.10547-.0586.08594-.07421.07422-.13281-.01172-.1172-.03125h-.11718l-.07422.07422-.08984.0586-.07422.07421-.08984.0586-.08594.05859-.10547.04687-.10156.04297-.13672.01563-.10156-.04297-.14844-.14844-.10547-.04688h-.08594l-.10547.04688-.10156.04297-.1211.03125-.11718-.03125-.07422-.07422v-.11719l.03125-.1211.07422-.0703.0586-.08985.07421-.07422.11719-.03125.10547-.04296h.29297l.13281-.01563.13672-.01563.10156-.04296.08985-.0586.10156-.04687.08984-.0586.13281-.01171.08985.05859.13281.01172.08984-.0586.08594-.05859.10547-.04297.08984-.0586.08594-.0625.08985-.05859.14843-.14843.0586-.08594.05859-.08985.10547-.04296.13281-.01563.11719.02735.1211.03125.05859-.0586.05859-.08984.03125-.26563.02734-.11719.10547.01172.13281.01563.10157-.04297.08984-.0586.0586-.08984.07421-.07422.0586-.08984.04687-.10156.01172-.13281-.01172-.13282-.04687-.10547-.14844-.14843-.0586-.08985-.05859-.08594-.04297-.10546v-.44532l.01563-.1328v-.14845l.01172-.1328-.0586-.0586-.08984.0586-.10156-.04298-.17969-.11719-.08594-.05859-.0625-.08984-.0586-.08985-.07421-.07421-.08594-.0586-.1211.03125-.10155.01172-.10547.04688-.08594.05859-.10547.04297-.14844.14844-.08984.05859-.08594.0586-.08984.0625-.10547.04296-.13281.01563v-.1211l.10547-.04297.11718-.03125.07422-.0703.04297-.10548v-.14844l-.02734-.11718-.14844-.14844-.13281-.01563h-.14844l-.11719.03125-.10547.04297-.10156.04297-.08984.0625-.11719.02735-.07422-.07422.01172-.13281-.04297-.10157-.04297-.10547-.08984-.05859-.11719.02734-.1211.03125-.11718.03125-.10156.04297-.1211.03125-.10156.04297-.10547.04297-.08984.0586-.10156.01562v-.11719l.01562-.13281-.0586-.08985-.07421.04297-.14844.14844-.0586.08985-.07421.07421-.04688.10547-.04296.10156-.07422.07422-.0586.08985-.07422.07422-.05859.08593-.07422.07422-.08984.0625-.07422.07031-.07422.07422-.10156.01563-.13281.01562-.10547-.04296v-.1211l.14843-.14844.04297-.10156.0586-.08984.04687-.10156.04297-.10547.0586-.08985.03124-.11719.04297-.10156.03125-.1211.02735-.11718.04687-.10547.04297-.10156.04297-.10547.07422-.07031.08984-.0625.08985-.0586.10156-.04296h.29687l.26563-.03125.10547-.04297-.07422-.07422-.11719-.03125-.10547-.04297-.08984-.0586-.10156-.04687-.08985-.0586-.10156-.04296-.10547-.04297-.08984-.0625-.08594-.0586-.10547-.04296-.10156-.04297-.1211-.03125-.11718-.03125-.10157-.04297L297.5 410.25l-.10156-.04297-.08985-.0586-.04296-.10546-.01563-.13281.10156-.04297.13281-.01563.13672.01563.13282-.01563.10156-.04297.0586-.08984.01562-.10547-.08985-.0586-.07421-.07421-.10157-.04297-.08984-.0586-.14844-.14843-.04297-.10547-.01562-.13281v-.29297l-.0586-.08985-.08984-.05859-.07422-.07422-.04297-.10547-.03125-.11718-.0586-.08985-.07421-.07422-.11719-.02734-.07422-.07422-.08984-.0586-.08984-.0625-.08594-.05859-.07422-.07421-.0586-.08594-.04687-.10547-.08594-.0586-.14843-.14843-.19532-.0586-.1328.01563-.10157.04297-.07422.07422-.04688.10156-.04296.10547-.0586.08984-.0586.08594-.29687.29687-.08984.0586h-.08594l-.0625-.08594-.04297-.10547.03125-.11719.0586-.08984.02734-.11719-.01172-.13281-.08984-.0625-.10547.04688-.11719.02734-.11719.03125-.26953.17578-.10156.04688-.11719.02734-.10546.04687-.08985.0586-.10156.04297-.0586-.08594-.04687-.10547.01563-.13281.04687-.10547.07031-.07422.07422-.07031.0586-.08985v-.14843l-.04297-.10547h-.23829l-.10156.04687-.03125.11719-.02734.11719-.03125.1211-.07422.04296-.13281.01563-.07422-.04688-.04297-.10156-.04297-.10547-.04687-.10156-.04297-.10547-.1211.03125-.10156.04297-.13281.01562-.11719.03125-.10547.04297-.08984.0586-.10156.04687-.1211.02734-.13281.01563-.10156-.04297-.0586-.08985-.04687-.10546-.04297-.10157-.04297-.10546v-.1172l.0586-.08984.08593-.05859.17969-.11719.10156-.04687.10547-.04297.10547-.0586.10156-.04296.08985-.0625.10156-.04297.10547-.0586.10156-.04687.08984-.0586.10547-.04296.10156-.04297.08985-.0625.10156-.04297.13672-.01563.11719.03125.10156.04297.1211.03125.10156.04297.10546.04688.10157.04296.10547.04297.10156.04688.10547.04297.10156.04297.10547.04687.08594.0586.10546.04296.1172.03125.10546.04297.10156.04688.08985.0586.10547.04296.10156.04297.10547.04687.11719.02735.10156.04687.1211.02735h.14843l.08594-.0586.01562-.10156.0586-.08984-.02735-.1172-.07422-.07421-.11719-.17969-.07421-.07422-.08985-.07421-.17969-.1172-.08593-.05859-.10547-.04296-.10156-.04688-.26954-.17578-.05859-.08985-.07422-.07421-.0586-.08985-.04296-.10156-.03125-.11719-.01563-.13672v-.5625l-.01171-.1328-.01563-.13282-.03125-.11719-.01562-.13281-.01172-.13281-.03125-.1211-.22266-.22265-.0586-.08594-.01562-.10547.03125-.11719.13281-.01562v-91.41406H172.9922v1.45312l-.0586.23438-.35156 1.05078-.17187.52343-.1172.34766-.17577.41016-.11719.17187-.23438.29297-.23046.0586h-.35157l-.11718.05859-.23047.40625v.29297l.11719.17578.23046.23047.1172.23437.64062.75781.29297.46485.17578.23437.23047.35156.23437.34766.64063.8164.17578.46485.17187.41016.11719.69531.17578.46875.11719 1.39844.0586.46484v.875l.11718 1.04688v4.78125l-.0586.46484-.35156 1.28125-.17578.52344-.11328.41015-.35156.9297L172.93359 336l-.23437.58203-.11719.17578-.17187.34766-.17578.40625-.35157.8164-.0586.29297-.11327.29297-.11719.28906-.0586.17579-.11718.875-.0586.40625-.05859.11718-.0586.17579-.05859.17187-.23047.52734-.11718.17188v.23437l-.11719.23438-.0586.17187-.17577.58594v.28906l-.0586.17579v.29296l-.0586.11329-.05859.52734v.17187l-.05468.23438v2.6211l-.17578.8164-.1172.17578-.17577.23438-.1172.17187-.11327.23438-.58594.93359-.23047.28906-.29297.46485-.17578.23437-.28906.35156-.35156.69922-.11328.23047-.17579.41016-.17578.23046-.40625.52735-.8164.69922-.29297.17187-.28906.23438-.17579.11719-.17578.17578-.52344.40625-.52734.17578-.17187.17578-.23438.05469-.64062.17578h-.75782m12.21094 31.02344l-1.07422.44921.35938.89454 1.25-.71485.44531-.53906-.98047-.08985"/><path fill="#d3d3d3" fill-opacity="0" fill-rule="evenodd" d="M201.50781 416.59766h-.89453l.44922.6289.98047.35938.80469-.08985.4453-.98828-.17577.08985-.71485-.35547-.89453.35547m154.6211 59.0703l-.0586-.52343v-.29297l.11328-.29297.0586-.23046.46875-.46875h.11328l.11719-.11329.11718-.05859h.17579l.23437-.0586h.34766l.23437.0586.11719.0586.23047.17187.0586.17578.11718.58203v.29297l-.11719.17578-.17187.28906-.17579.17579-.52734.52343-.23047.23438-.11719.0586h-.17578l-.11718-.0586-.40625-.29297-.17579-.11719-.11718-.0586-.0586-.11327-.05468-.1172m6.64062-10.95702l-.0586-.17188v-1.10937l.0586-.17188.17578-.0586.17188-.05858h.17578l.23437-.0586.1172.0586.05858.69921-.05859.17188-.11719.17578-.11718.0586-.23438.52343-.11328.0586h-.23438l-.05859-.1172m9.61328-14.39062l-.11719-.17578v-.69922l.29297-.875.1172-.17187.17577-.35156.11328-.23047.1172-.29297.35155-.75781.1172-.23047.17187-.23438h.17578l.11719-.0586h.64062l.11719.0586.23437.23438.17188.11328.35156.29297.11719.11718.11328.17579v.11328l.11719.05859.11718.11719v.69922l-.05859.17578v.23047l-.0586.17578-.34765 1.05078-.11719.23047-.11719.23437-.11718.0586-.23047.23437-.64063.28906h-.875l-.41015-.11718-.64063-.46485"/><path fill="none" stroke="#bebebe" stroke-linecap="round" stroke-linejoin="round" stroke-miterlimit="10" stroke-width=".5" d="M467.95703 311.69531H144.02734v168.625h323.9297v-168.625"/><g clip-path="url(#a)"><path fill="#fff" fill-opacity="0" fill-rule="evenodd" d="M144 475.89063v4.4375h.0039H144V311.67188h.0039H144v164.21875"/></g><g clip-path="url(#b)"><path fill="#fff" fill-opacity="0" fill-rule="evenodd" d="M144.0039 480.32813V311.67188h17.75v137.27734l-.27734.3125-1.52344 4.4375-.37109 4.4375 2.17188 2.67969 3.8164-2.6797.6211-.92968 2.16015-3.50781-2.16015-2.21875-3.89844-2.21875-.53906-.3125V311.67187h115.39843v111.89844l-3.51953 3.5.1914 4.4375 3.32813 3.07031 3.09766-3.0703 1.24219-4.4375-4.33985-3.5V311.67187h31.06641v146.78125l-4.4375 1.97656-.84766 2.14453.84766.60547 4.4375 1.64844 3.15625-2.25391-3.15625-4.1211V311.67188h26.6289v108.84766l-2.14452 2.10938 2.14453 2.0664 2.48437-2.0664-2.48437-2.10938V311.67188h8.8789v113.22656l-2 2.17187 2 1.92969 1.48828 2.50781-.66796 4.4375 3.61718 3.61719 1.7539.82031 2.6836 2.6836 3.35156-2.6836.00782-4.4375-3.35938-3.42969-1.32812-1.0078-2.01172-4.4375-1.09766-1.12891-4.4375-1.04297V311.67188h17.7539v125.7578l-3.5078 2.95313 3.5078 2.89453 2.95313-2.89453-2.95312-2.95312V311.67188h35.5039v120.53515l-4.4375 1.34766-4.4375 1.05078-4.4375-.14844-1.79687 1.48828-.45313 4.4375-2.1875.36328-4.4414.71485-2.78906 3.35937.88671 4.4414-.39062 4.4375 2.29297 2.28126 1.86328 2.15625 2.57813 3.2539 1.29296 1.1836 3.14454 2.70312 3.26171-2.70312 1.17579-1.50781.46875 1.5078 3.58203 4.44142.38671.20312.23047-.20313 4.20704-.40234 4.4414.0664 4.4375.08204 4.4375-.35156 4.4375-.08204 4.4414-.78125 2.4375-2.97265 1.78516-4.4375.21485-.8789 2.63672-3.5586-2.63672-2.61328-1.83594-1.82422-2.60156-2.53906-4.4414-1.60938-2.6875-.29297-1.75-1.14062-3.63673-3.29688-.80078-.73828-3.08203-3.69922-1.35547-1.3125-4.4414-2.42578V311.67188h71.01171v168.65625H144.00391"/></g><path fill="#50fcfc" fill-rule="evenodd" d="M161.7539 460.8164l-2.17187-2.67968.3711-4.4375 1.52343-4.4375.27735-.3125.53906.3125 3.89844 2.21875 2.16015 2.21875-2.16015 3.50781-.6211.92969-3.8164 2.67969m112.0703-29.3086l-.1914-4.4375 3.51953-3.5v1.4336l-2.07812 2.0664 1.02734 4.4375 1.05078.96875.97657-.96875 1.58203-4.4375-2.5586-2.0664v-1.4336l4.33985 3.5-1.24219 4.4375-3.09766 3.07031-3.32812-3.0703"/><path fill="#00e8fc" fill-rule="evenodd" d="M276.10156 431.50781l-1.02734-4.4375 2.07812-2.0664 2.5586 2.0664-1.58203 4.4375-.97657.96875-1.05078-.96875"/><path fill="#50fcfc" fill-rule="evenodd" d="M303.78125 463.17969l-.84766-.60547.84766-2.14453 4.4375-1.97656 3.15625 4.12109-3.15625 2.2539-4.4375-1.64843m31.0664-38.48438l-2.14452-2.0664 2.14453-2.10938 2.48437 2.10938-2.48437 2.0664M343.72656 429l-2-1.92969 2-2.17187 4.4375 1.04297v4.33593l-.6875 1.23047-1.69922 4.4375 2.38672 2.38672 4.38672 2.05078.05078.05469.07031-.05469 1.52344-4.4375-1.59375-1.6289-3.71484-2.8086-.72266-1.23047v-4.33593l1.09766 1.1289 2.01172 4.4375 1.32812 1.00781 3.35938 3.4297-.00781 4.4375-3.35157 2.68359-2.6836-2.6836-1.7539-.82031-3.61719-3.61719.66797-4.4375L343.72656 429"/><path fill="#00e8fc" fill-rule="evenodd" d="M348.16406 438.33203l-2.38672-2.38672 1.69922-4.4375.6875-1.23047v4.9336l-.33203.73437.33203.33203 1.16406-.33203-1.16406-.73437v-4.9336l.72266 1.23047 3.71484 2.8086 1.59375 1.6289-1.52344 4.4375-.0703.05469-.05079-.05469-4.38672-2.05078"/><path fill="#00d4fc" fill-rule="evenodd" d="M348.16406 436.27734l-.33203-.33203.33203-.73437 1.16406.73437-1.16406.33203"/><path fill="#50fcfc" fill-rule="evenodd" d="M361.48047 443.27734l-3.50781-2.89453 3.5078-2.95312v2.3711l-.6914.58202.6914.57031.58204-.5703-.58203-.58204v-2.3711l2.95312 2.95313-2.95312 2.89453"/><path fill="#00e8fc" fill-rule="evenodd" d="M361.48047 440.95313l-.6914-.57032.6914-.58203.58203.58203-.58203.57031"/><path fill="#50fcfc" fill-rule="evenodd" d="M372.89063 449.26172l-.88672-4.4414 2.78906-3.35938 4.4414-.71485 2.1875-.36328.45313-4.4375 1.79688-1.48828 4.4375.14844 4.4375-1.05078 4.4375-1.34766v2.6289l-2.79297 1.10938-1.64454.30078-4.4375 1.66016-2.52734 2.47656-1.91015 3.07813-4.4375-1.52735-4.44141 2.76954-.09766.11718.09766.30078.45312 4.14063-.03906 4.4375L379.23438 458l.83984.13672 3.59765 2.97265 2.12891-2.97265 2.3086-1.34766.58593 1.34766 1.50781 4.4375 2.34375 2.65625 4.4375.70312 4.44141.09375 4.4375.00391 4.4375-.60938 4.4375-.34765 3.98828-2.5.45313-.34375 3.07031-4.09375 1.2461-4.4375-4.31641-4.3125-.40625-.125-4.03516-2.98438-4.4375 2.21875-2.6211-3.67578-1.8164-1.74219-3.21484-2.6953-1.22266-1.35938-2.8711-3.07813-1.5703-1.10937v-2.6289l4.4414 2.42577 1.35547 1.3125 3.08203 3.69922.80078.73828 3.63672 3.29688 1.75 1.14062 2.6875.29297 4.4414 1.60938 2.60157 2.53906 1.83594 1.82422 2.63672 2.61328-2.63672 3.5586-.21485.8789-1.78515 4.4375-2.4375 2.97265-4.4414.78125-4.4375.08204-4.4375.35156-4.4375-.08203-4.44142-.0664-4.20703.40233-.23046.20313-.38672-.20313-3.58204-4.4414-.46875-1.50781-1.17578 1.5078-3.26171 2.70313-3.14454-2.70312-1.29296-1.1836-2.57813-3.2539-1.86328-2.15625-2.29297-2.28125.39063-4.4375"/><path fill="#00e8fc" fill-rule="evenodd" d="M374.79297 445.1211l-.09766-.30079.09766-.11719 4.4414-2.76953 4.4375 1.52735 1.91016-3.07813 2.52735-2.47656 4.4375-1.66016v2.03516l-3.07813 2.10156-1.35938 2.14063-1.66015 2.29687-2.77735 2.36719-2.84375-2.36719-1.59375-.90625-1.41796.90625-1.08204 4.4414.69922 4.4375 1.80079 1.92188 2.73046-1.92187 1.70704-1.83594 4.4375.39453 1.14453 1.4414 1.64062 4.4375 1.65235 3.76173.28906.67578 4.14844 2.22265 4.4414.14063 4.4375-.125 4.4375-1.04297 4.4375-.78906.64844-.40625 3.79297-2.90625 1.14844-1.53125 2.35156-4.4375-3.5-3.5-3.03125-.9375-1.41016-1.04297-1.66015 1.04297-2.77735 2.41015-4.4375-.85937-3.27734-1.55078-1.16016-.61719-2.8164-3.82422-.2461-4.4375-1.3789-1.4336-4.4375-.66796v-2.03516l1.64453-.30078 2.79296-1.10937 1.57032 1.10937 2.8711 3.07813 1.22265 1.35937 3.21484 2.69531 1.8164 1.7422 2.6211 3.67577 4.4375-2.21875 4.03516 2.98438.40625.125 4.3164 4.3125-1.24609 4.4375-3.07031 4.09375-.45313.34375-3.98828 2.5-4.4375.34765-4.4375.60938-4.4375-.0039-4.4414-.09376-4.4375-.70312-2.34375-2.65625-1.50782-4.4375-.58594-1.34766-2.30859 1.34766-2.1289 2.97265-3.59766-2.97265-.83985-.13672-4.02734-4.30078.03906-4.4375-.45312-4.14063"/><path fill="#00d4fc" fill-rule="evenodd" d="M377.4336 453.69922l-.69923-4.4375 1.08204-4.4414 1.41796-.90626v2.8711l-1.01562 2.47656 1.01563 3.46484 3.14062-3.46484-3.14063-2.47656v-2.8711l1.59375.90625 2.84375 2.36719 2.77735-2.36719 1.66015-2.29687 1.35938-2.14063 3.07813-2.10156v2.03516l-.09766.0664-1.13672 4.4375 1.23438 1.1875 1.09765-1.1875-.875-4.4375-.22265-.0664v-2.03516l4.4375.66797 1.3789 1.4336.2461 4.4375 2.8164 3.82421 1.16016.61719 3.27734 1.55078 4.4375.85938 2.77735-2.41016 1.66015-1.04297v1.47656l-4.19531 4.0039-.24219 1.07813-4.4375-.05859-4.4375-.85547-.30078-.16406-4.14063-2.41797-4.4375 1.57031-.37109.84766.3711 1.4961.40625 2.9414 2.0039 4.4375 2.02735 1.08594 4.4414.1875 4.4375-.25782 3.33203-1.01562 1.10547-1.17188 4.4375-1.01171 2.9961-2.25391 1.4453-.48047 2.6875-3.95703-2.6875-2.6875-4.4414-1.3164v-1.47657l1.41016 1.04297 3.03125.9375 3.5 3.5-2.35156 4.4375-1.14844 1.53125-3.79297 2.90625-.64844.40625-4.4375.78906-4.4375 1.04297-4.4375.125-4.4414-.14063-4.14844-2.22265-.28906-.67578-1.65235-3.76172-1.64062-4.4375-1.14454-1.4414-4.4375-.39454-1.70703 1.83594-2.73046 1.92187-1.80079-1.92187"/><path fill="#00c4fc" fill-rule="evenodd" d="M379.23438 452.72656l-1.01563-3.46484 1.01563-2.47656 3.14062 2.47656-3.14063 3.46484m13.3125-6.71875l-1.23437-1.1875 1.13672-4.4375.09765-.0664.22266.0664.875 4.4375-1.09765 1.1875m0 9.1875l-.3711-1.4961.3711-.84765 4.4375-1.57031v2.14844l-.5547.26953-1.85546 4.4375 2.41015 4.3086.92579.1289 3.51562.1875 2.25-.1875 2.1875-1.3125 2.8086-3.125-2.8086-.96875-4.4375-1.27344-3.98047-2.19531-.46094-.26953v-2.14844l4.14063 2.41797.30078.16406 4.4375.85547 4.4375.0586.24219-1.07813 4.19531-4.0039v.9375l-3.21094 3.0664 3.21094 4.22265 4.4414-1.46484 1.8711-2.75781-1.8711-1.875-4.4414-1.1914v-.9375l4.4414 1.3164 2.6875 2.6875-2.6875 3.95703-1.4453.48047-2.9961 2.2539-4.4375 1.01172-1.10547 1.17188-3.33203 1.01562-4.4375.25782-4.4414-.1875-2.02735-1.08594-2.0039-4.4375-.40625-2.9414"/><path fill="#00b8fc" fill-rule="evenodd" d="M396.98438 462.44531l-2.41016-4.3086 1.85547-4.4375.55469-.26952v3.11719l-.78907 1.58984.78906 1.41406 4.44141-.91797.65235-.4961-.65235-.21093-4.4414-1.3789v-3.1172l.46093.26954 3.98047 2.19531 4.4375 1.27344 2.8086.96875-2.8086 3.125-2.1875 1.3125-2.25.1875-3.51562-.1875-.92579-.1289"/><path fill="#00a8fc" fill-rule="evenodd" d="M396.98438 459.55078l-.78907-1.41406.78906-1.58985 4.44141 1.37891.65235.21094-.65235.4961-4.4414.91796"/><path fill="#00b8fc" fill-rule="evenodd" d="M414.73828 457.92188l-3.21094-4.22266 3.21094-3.0664v.9375l-2.23047 2.1289 2.23047 2.9336 4.4414-1.375 1.0586-1.5586-1.0586-1.0586-4.4414-1.0703v-.9375l4.4414 1.1914 1.8711 1.875-1.8711 2.75781-4.4414 1.46485"/><path fill="#00a8fc" fill-rule="evenodd" d="M414.73828 456.63281l-2.23047-2.9336 2.23047-2.1289v.9336l-1.25 1.1953 1.25 1.64063 4.4414-1.27734.2461-.36328-.2461-.2461-4.4414-.94921v-.9336l4.4414 1.07031 1.0586 1.0586-1.0586 1.5586-4.4414 1.375"/><path fill="#009800" fill-rule="evenodd" d="M414.73828 455.33984l-1.25-1.64062 1.25-1.19531v.9375l-.26562.2578.26562.35157 1.2539-.35156-1.2539-.25781v-.9375l4.4414.94921.2461.2461-.2461.36328-4.4414 1.27734"/><path fill="#00ac00" fill-rule="evenodd" d="M414.73828 454.05078l-.26562-.35156.26562-.25781 1.2539.2578-1.2539.35157"/><g clip-path="url(#c)"><path fill="#fff" fill-opacity="0" fill-rule="evenodd" d="M467.9961 480.32813H468V311.67188h-.0039H468v168.65625h-.0039"/></g><path fill="#fff" fill-opacity="0" fill-rule="evenodd" d="M389.75 472.66797l5.80078-.69922-1.19531-9.89063-5.80078.70313 1.19531 9.88672"/><path fill-rule="evenodd" d="M392.25 464.17969l.5039-.0625.75782 6.25-.78125.09375-.53906-4.45703-1.37891.16796-.0664-.55078.54687-.1328.2461-.08204.21484-.11719.1875-.16406.14453-.23047.10547-.3086.05859-.40624"/><g clip-path="url(#d)"><path fill="none" stroke="#000" stroke-linecap="round" stroke-linejoin="round" stroke-miterlimit="10" stroke-width=".5" d="M147.45703 479.6914l-6.91406 1.27344"/></g><g clip-path="url(#e)"><path fill="none" stroke="#000" stroke-linecap="round" stroke-linejoin="round" stroke-miterlimit="10" stroke-width=".5" d="M146.44922 479.875l.76172.96094"/></g><g clip-path="url(#f)"><path fill="none" stroke="#000" stroke-linecap="round" stroke-linejoin="round" stroke-miterlimit="10" stroke-width=".5" d="M160.69922 479.3789l-6.76563 1.89844"/></g><g clip-path="url(#g)"><path fill="none" stroke="#000" stroke-linecap="round" stroke-linejoin="round" stroke-miterlimit="10" stroke-width=".5" d="M159.71484 479.65625l.84766.88672"/></g><g clip-path="url(#h)"><path fill="none" stroke="#000" stroke-linecap="round" stroke-linejoin="round" stroke-miterlimit="10" stroke-width=".5" d="M174.14063 480.19922l-7.02344.25781"/></g><g clip-path="url(#i)"><path fill="none" stroke="#000" stroke-linecap="round" stroke-linejoin="round" stroke-miterlimit="10" stroke-width=".5" d="M173.1211 480.23828l.61327 1.0586"/></g><g clip-path="url(#j)"><path fill="none" stroke="#000" stroke-linecap="round" stroke-linejoin="round" stroke-miterlimit="10" stroke-width=".5" d="M187.22266 481.59766l-6.5547-2.53907"/></g><g clip-path="url(#k)"><path fill="none" stroke="#000" stroke-linecap="round" stroke-linejoin="round" stroke-miterlimit="10" stroke-width=".5" d="M186.26953 481.23047l.14453 1.21484"/></g><g clip-path="url(#l)"><path fill="none" stroke="#000" stroke-linecap="round" stroke-linejoin="round" stroke-miterlimit="10" stroke-width=".5" d="M200.20703 482.24219l-5.89453-3.82422"/></g><g clip-path="url(#m)"><path fill="none" stroke="#000" stroke-linecap="round" stroke-linejoin="round" stroke-miterlimit="10" stroke-width=".5" d="M213.6836 481.96875l-6.21485-3.28125"/></g><g clip-path="url(#n)"><path fill="none" stroke="#000" stroke-linecap="round" stroke-linejoin="round" stroke-miterlimit="10" stroke-width=".5" d="M227.28906 481.22656l-6.79687-1.79687"/></g><g clip-path="url(#o)"><path fill="none" stroke="#000" stroke-linecap="round" stroke-linejoin="round" stroke-miterlimit="10" stroke-width=".5" d="M226.29688 480.96484l.28125 1.19532"/></g><g clip-path="url(#p)"><path fill="none" stroke="#000" stroke-linecap="round" stroke-linejoin="round" stroke-miterlimit="10" stroke-width=".5" d="M240.71094 480.07422l-7.00781.50781"/></g><g clip-path="url(#q)"><path fill="none" stroke="#000" stroke-linecap="round" stroke-linejoin="round" stroke-miterlimit="10" stroke-width=".5" d="M239.6914 480.14844l.65235 1.03906"/></g><g clip-path="url(#r)"><path fill="none" stroke="#000" stroke-linecap="round" stroke-linejoin="round" stroke-miterlimit="10" stroke-width=".5" d="M253.9375 479.51563l-6.83594 1.625"/></g><g clip-path="url(#s)"><path fill="none" stroke="#000" stroke-linecap="round" stroke-linejoin="round" stroke-miterlimit="10" stroke-width=".5" d="M252.94531 479.7539l.8086.91798"/></g><g clip-path="url(#t)"><path fill="none" stroke="#000" stroke-linecap="round" stroke-linejoin="round" stroke-miterlimit="10" stroke-width=".5" d="M267.29688 479.73047l-6.92188 1.19922"/></g><g clip-path="url(#u)"><path fill="none" stroke="#000" stroke-linecap="round" stroke-linejoin="round" stroke-miterlimit="10" stroke-width=".5" d="M266.28906 479.90234l.7539.96875"/></g><g clip-path="url(#v)"><path fill="none" stroke="#000" stroke-linecap="round" stroke-linejoin="round" stroke-miterlimit="10" stroke-width=".5" d="M280.16797 482.125l-6.03516-3.59375"/></g><g clip-path="url(#w)"><path fill="none" stroke="#000" stroke-linecap="round" stroke-linejoin="round" stroke-miterlimit="10" stroke-width=".5" d="M293.67578 481.7539l-6.42187-2.85156"/></g><g clip-path="url(#x)"><path fill="none" stroke="#000" stroke-linecap="round" stroke-linejoin="round" stroke-miterlimit="10" stroke-width=".5" d="M306.78906 482.14844l-6.01562-3.63672"/></g><g clip-path="url(#y)"><path fill="none" stroke="#000" stroke-linecap="round" stroke-linejoin="round" stroke-miterlimit="10" stroke-width=".5" d="M320.60547 480.46875l-7.01953-.28125"/></g><g clip-path="url(#z)"><path fill="none" stroke="#000" stroke-linecap="round" stroke-linejoin="round" stroke-miterlimit="10" stroke-width=".5" d="M332.27734 477.35156l-3.73046 5.95313"/></g><path fill="none" stroke="#000" stroke-linecap="round" stroke-linejoin="round" stroke-miterlimit="10" stroke-width=".5" d="M331.73438 478.21875l1.22265.08594"/><g clip-path="url(#A)"><path fill="none" stroke="#000" stroke-linecap="round" stroke-linejoin="round" stroke-miterlimit="10" stroke-width=".5" d="M345.92578 477.58594l-4.39844 5.48437"/></g><path fill="none" stroke="#000" stroke-linecap="round" stroke-linejoin="round" stroke-miterlimit="10" stroke-width=".5" d="M345.28516 478.38672l1.20312.22656"/><g clip-path="url(#B)"><path fill="none" stroke="#000" stroke-linecap="round" stroke-linejoin="round" stroke-miterlimit="10" stroke-width=".5" d="M358.77344 477.26953l-3.46485 6.11719"/></g><path fill="none" stroke="#000" stroke-linecap="round" stroke-linejoin="round" stroke-miterlimit="10" stroke-width=".5" d="M358.26953 478.16016l1.22656.03515"/><g clip-path="url(#C)"><path fill="none" stroke="#000" stroke-linecap="round" stroke-linejoin="round" stroke-miterlimit="10" stroke-width=".5" d="M372.5664 477.59766l-4.42187 5.46093"/></g><path fill="none" stroke="#000" stroke-linecap="round" stroke-linejoin="round" stroke-miterlimit="10" stroke-width=".5" d="M372.5664 477.59766l2.41016.46875"/><g clip-path="url(#D)"><path fill="none" stroke="#000" stroke-linecap="round" stroke-linejoin="round" stroke-miterlimit="10" stroke-width=".5" d="M384.80078 477.0039l-2.26172 6.65235"/></g><path fill="none" stroke="#000" stroke-linecap="round" stroke-linejoin="round" stroke-miterlimit="10" stroke-width=".5" d="M384.47266 477.96875l1.21093-.19531"/><g clip-path="url(#E)"><path fill="none" stroke="#000" stroke-linecap="round" stroke-linejoin="round" stroke-miterlimit="10" stroke-width=".5" d="M400.21094 478.9375l-6.44922 2.78516"/></g><g clip-path="url(#F)"><path fill="none" stroke="#000" stroke-linecap="round" stroke-linejoin="round" stroke-miterlimit="10" stroke-width=".5" d="M399.27344 479.33984l.95703.76953"/></g><g clip-path="url(#G)"><path fill="none" stroke="#000" stroke-linecap="round" stroke-linejoin="round" stroke-miterlimit="10" stroke-width=".5" d="M413.59766 479.11328l-6.59375 2.42969"/></g><g clip-path="url(#H)"><path fill="none" stroke="#000" stroke-linecap="round" stroke-linejoin="round" stroke-miterlimit="10" stroke-width=".5" d="M412.64063 479.46875l.91406.8164"/></g><g clip-path="url(#I)"><path fill="none" stroke="#000" stroke-linecap="round" stroke-linejoin="round" stroke-miterlimit="10" stroke-width=".5" d="M426.77734 478.79297l-6.3203 3.07031"/></g><g clip-path="url(#J)"><path fill="none" stroke="#000" stroke-linecap="round" stroke-linejoin="round" stroke-miterlimit="10" stroke-width=".5" d="M425.85547 479.23828l.99219.72266"/></g><g clip-path="url(#K)"><path fill="none" stroke="#000" stroke-linecap="round" stroke-linejoin="round" stroke-miterlimit="10" stroke-width=".5" d="M439.3789 477.8086l-4.89452 5.04296"/></g><g clip-path="url(#L)"><path fill="none" stroke="#000" stroke-linecap="round" stroke-linejoin="round" stroke-miterlimit="10" stroke-width=".5" d="M452.51172 483.01563l-4.52735-5.375"/></g><g clip-path="url(#M)"><path fill="none" stroke="#000" stroke-linecap="round" stroke-linejoin="round" stroke-miterlimit="10" stroke-width=".5" d="M464.91016 483.57422l-2.69532-6.49219"/></g><g clip-path="url(#N)"><path fill="none" stroke="#000" stroke-linecap="round" stroke-linejoin="round" stroke-miterlimit="10" stroke-width=".5" d="M147.38281 466.0625l-6.76562 1.90234"/></g><path fill="none" stroke="#000" stroke-linecap="round" stroke-linejoin="round" stroke-miterlimit="10" stroke-width=".5" d="M147.38281 466.0625l1.69531 1.77344m11.50391-2.11719l-6.53125 2.58984m6.53125-2.58984l1.86719 1.58984m11.67187-.69922l-6.98047.8086m6.98047-.8086l1.39453 2.01954m11.89454-1.03125l-6.9297-1.16797m6.9297 1.16797l.77734 2.32812m12.11328-1.15234l-6.08203-3.51953m6.08203 3.51953l-.08594 2.44922m13.70313-3.12891l-6.6836-2.16016m5.71094 1.84766l.21485 1.20703m14.23828-1.8086l-7.01953-.33202m6 .28515l.52343 1.10938m13.79688-1.60938l-6.98828.76172m5.97265-.65234l.6875 1.01562m13.50782-1.77734l-6.71875 2.0664m5.74218-1.76562l.8672.86719m13.53124-.71875l-6.92969 1.16797m5.92188-1l.7461.97265m13.48437-1.54297L273.77734 468m5.76563-1.6875l.85547.8789m13.46094-1.08984l-6.78516 1.82422m5.79687-1.5586l.83985.89454m13.5625-.63281l-6.98438.76953m5.96875-.65625l.6914 1.01172m12.80079-3.04297l-5.3086 4.60547m18.57032-4.66407l-5.20313 4.72266m4.44922-4.03516l1.15235.41407m13.5-.22266l-6.3711 2.96484m5.44532-2.53515l.98046.73828m13.15235-1.38672l-6.15235 3.40234m5.25782-2.90625l1.02734.66797m13.51563-.3086l-6.82032 1.69142m6.82032-1.69141l1.64062 1.82422m11.63281-1.97266l-6.73828 1.98828m6.73828-1.98828l1.71875 1.75m-2.69922-1.46094l.85938.875m13.58203-.14453l-7.02734-.05078m6.0039.04297l.57032 1.08594m13.72656-.57422l-6.94531-1.0586m5.9375.90626l.40234 1.15625m12.5039 1.3164l-4.10937-5.69922m18.5586 1.3789l-6.37891 2.94142m5.45312-2.51172l.97657.74218m12.61718 2.72266l-5.08593-4.84766m4.34765 4.14063l-.33203 1.1836m13.1836.34765l-2.6797-6.4961m2.28907 5.55079l-.78125.9453"/><g clip-path="url(#O)"><path fill="none" stroke="#000" stroke-linecap="round" stroke-linejoin="round" stroke-miterlimit="10" stroke-width=".5" d="M147.5 453.38672l-7 .625"/></g><path fill="none" stroke="#000" stroke-linecap="round" stroke-linejoin="round" stroke-miterlimit="10" stroke-width=".5" d="M147.5 453.38672l1.33984 2.05469m11.98828-1.76954l-7.02734.05079m7.02734-.05078l1.16797 2.16015m12.1172-1.66797l-6.96485-.92968m6.96484.92968l.85547 2.30078m12.48438-2.53906l-7.01563-.45312m7.01563.45312l1.0078 2.23828m12.3086-2.27343l-7.01953-.38282m7.01953.38282l1.03125 2.22265m12.27344-2.72656l-7 .625m7-.625l1.33984 2.05469m11.85156-2.72266l-6.75 1.96094m6.75-1.96094l1.71094 1.75781m11.6289-1.67187l-6.79687 1.78515m6.79688-1.78515l1.66406 1.80468m11.64063-1.83984l-6.77735 1.85938m6.77735-1.85938l1.68359 1.78125m11.1875-2.76562l-5.89063 3.82812m5.89063-3.82812l2.14844 1.1875m11.61719-.17188l-6.79297 1.79688m5.80468-1.53516l.83594.89844m13.26172-1.73438l-6.3789 2.94531m5.44921-2.51953l.97656.7422m13.25-1.20704l-6.34375 3.02344m5.42188-2.58594l.98437.73047m12.92579-1.71875l-5.69141 4.125m4.86328-3.52735l1.10156.53907m13.17188-.94532l-5.94922 3.7422m5.08203-3.19923l1.0664.61328m13.57423-.03125l-6.8672 1.4922m5.8672-1.27345l.79296.9336m13.48829.48047l-6.80079-1.77735m5.8125 1.51953l.28125 1.19532m14.01954-2.71094l-6.79688 1.77344m5.8086-1.51563l.83203.90235m11.09765-.27344l-.01953-.19922-.0586-.1914-.09765-.1797-.45703-.375-.1914-.05859-.19923-.01953-.19921.01953-.19141.0586-.46094.375-.09375.17968-.0586.19141-.01952.19922.01953.19922.0586.1914.09374.17578.46094.37891.1914.0586.19922.01953.19922-.01954.19141-.05859.45703-.3789.09766-.17579.0586-.1914.01952-.19922m12.65235-3.4961l-.72266 6.9922m13.24219-6.98438l.8711 6.97265m10.75-.6875l4.2539-5.59375m9.4961 5.875l3.38671-6.15625m-2.89453 5.25782l-1.22656-.01563m18.16406.3789l-4.84375-5.08984m4.14062 4.35157l-.38672 1.16406m13.60547.14453l-3.24609-6.23047m3.2461 6.23047l-1.38673 2.02344"/><g clip-path="url(#P)"><path fill="none" stroke="#000" stroke-linecap="round" stroke-linejoin="round" stroke-miterlimit="10" stroke-width=".5" d="M147.47266 439.83594l-6.94532 1.09375"/></g><path fill="none" stroke="#000" stroke-linecap="round" stroke-linejoin="round" stroke-miterlimit="10" stroke-width=".5" d="M147.47266 439.83594l1.47265 1.96094m-2.48437-1.80079l.73828.98047m13.6211-.8164l-7.01173.4453m7.01172-.4453l1.28906 2.08984m-2.30859-2.02344l.64453 1.04297m13.69531-1.05469l-7.01953.33594m7.01953-.33594l1.25391 2.10938m-2.27734-2.0586l.6289 1.05079m13.71094-1.08985l-7.02344.3164m7.02344-.3164l1.2461 2.10938m-2.26954-2.0664l.625 1.05858m13.71485-.92578l-7.02735-.03906m7.02735.03906l1.14062 2.17578m-2.16406-2.17968l.57031 1.08593m13.75-1.47265l-6.98828.7461m6.98828-.7461l1.375 2.03125m11.91406-2.20703l-6.9414 1.09375m6.9414-1.09375l1.47657 1.96093m11.52344-2.96484l-6.3047 3.10156m6.3047-3.10156l1.98828 1.4375m10.83984-2.17578l-5.33203 4.57812m4.55469-3.91015l1.14453.44531m13.63281.1289l-6.70703 2.09376m6.70703-2.09375l1.7461 1.72265m11.16015-2.59765l-5.88672 3.84375m5.03125-3.28125l1.07422.58984m13.36719-.64844l-6.42578 2.83985m5.49218-2.42969l.96485.75781m13.32812-1.0625l-6.51562 2.6289m5.5664-2.24609l.94141.78516m13.08203-1.65234l-6.03515 3.59375m5.16015-3.07032l1.04688.63672m13.01172-1.36718l-5.76954 4.0078m5.76954-4.0078l2.17968 1.12109m10.75782-1.57813l-5.01563 4.92188m4.28516-4.20313l1.17187.3672m12.83985 3.87109l-4.94922-4.9922m18.53125.30079l-5.48438 4.39453m13.26172-.07031l5.58984-4.25781m7.32032.68359l6.40234 2.89062m-5.47266-2.46875l-.07812-1.22265m12.20312 1.65234l6.92579 1.1875m-5.91797-1.01172l-.38672-1.16797m12.85156 2.78516l6.60547-2.39453m-5.64453 2.04687l-.91016-.82421m13.16797.85937l6.80078-1.77344m-5.8125 1.51563l-.82812-.90235m19.93359-.6914l-6.75781 1.9336m5.77344-1.65235l.85156.88281m13.08203 1.61328l-6.02344-3.6211m5.14453 3.09376l-.0625 1.22265"/><g clip-path="url(#Q)"><path fill="none" stroke="#000" stroke-linecap="round" stroke-linejoin="round" stroke-miterlimit="10" stroke-width=".5" d="M147.4375 426.33203l-6.875 1.47266"/></g><path fill="none" stroke="#000" stroke-linecap="round" stroke-linejoin="round" stroke-miterlimit="10" stroke-width=".5" d="M147.4375 426.33203l1.57813 1.8789m-2.57813-1.66405l.78906.9375m13.58985-.71094l-7.00391.58984m7.0039-.58984l1.33204 2.0586m-2.35156-1.97266l.66406 1.03125M174.14454 427l-7.02735.13672M174.14453 427l1.1914 2.14453m-2.21484-2.125l.59766 1.07422m13.73828-.88672l-7.02344-.27734m7.02344.27734l1.0625 2.21094m-2.08594-2.25l.53516 1.10547m13.77344-.73828l-6.96485-.9336m6.96485.9336l.85547 2.30078m12.49218-2.78906l-7.02734.04296m7.02734-.04296l1.16407 2.16015m10.23047-5.26953l-3.1875 6.26172m2.72265-5.35156l1.22656-.02344m14.39063 1.4961l-6.86328 1.49609m5.86719-1.27735l.79296.9336m13.53516.27734l-6.89453-1.36328m5.89062 1.16406l.35547 1.17578m13.63281-.03906l-6.23437-3.23828m5.32813 2.76562l.01171 1.22657m11.42578 1.125l-.66796-6.9961m16.23437 5.8789l-5.17187-4.76171m14.80078 5.71875l2.20312-6.67188M303 429.4336l-1.21094.20703M318.8086 424l-3.42578 6.13672m2.92578-5.24219l1.22657.02344m13.83593.25781l-5.92187 3.78516m5.0625-3.23438l1.0664.60156m11.71485-2.40234l-3.13281 6.28516m2.67578-5.3711l1.22656-.03125m7.9961 4.1172l5.96484-3.71485m7.90625 4.39843l4.85156-5.08203m9.15234-.51172l3.47657 6.10547m-2.97266-5.21875l.66016-1.03515m14.625-.23438l-1.47266 6.8711m1.25781-5.8711l1.17969-.33594m8.4961 1.14844l6.23437 3.2461m-5.32813-2.77344l-.0078-1.22656m13.07812-.13282l4.91406 5.01953m-4.19922-4.28906l.3711-1.17187m11.1914 2.59765l6.98828.70703m-5.97265-.60546l-.46485-1.13282m13.71485 3.8086l5.08593-4.84766m14.28516 2.54688l-7.02344-.2461m6 .21094l.53906 1.10547"/><g clip-path="url(#R)"><path fill="none" stroke="#000" stroke-linecap="round" stroke-linejoin="round" stroke-miterlimit="10" stroke-width=".5" d="M147.45703 413.1211l-6.91406 1.26562"/></g><path fill="none" stroke="#000" stroke-linecap="round" stroke-linejoin="round" stroke-miterlimit="10" stroke-width=".5" d="M147.45703 413.1211l1.52344 1.92577m-2.53125-1.74218l.76172.96094m13.61328-.71485l-7.01563.40625m7.01563-.40625l1.27344 2.09375m-2.29688-2.03515l.64063 1.04687m13.6953-1.14844L167.125 414m7.01172-.49219l1.30078 2.07813m11.95703-2.4961l-6.89844 1.32813m6.89844-1.32813l1.54297 1.90625m11.625-2.4375l-6.60547 2.39063m5.64453-2.04297l.91016.82031m13.52734-.5625l-6.92578 1.17969m5.91797-1.00781l.75.96875m12.77344-2.84375l-5.32813 4.58203m4.55078-3.91406l1.14453.4453m13.03907-1.0039l-5.51172 4.36328m4.71094-3.72656l1.12109.49219m13.14844-.91797l-5.8164 3.94531m4.96874-3.3711l1.08594.57032m13.51953-.23047l-6.70313 2.11719m5.72657-1.8086l.875.85938m10.48828-3.59766l-.84766 6.97657m13.98047-6.99219l-.48437 7.00781m14.91796-.26562l-2.71875-6.47657m18.13672 3.83204l-6.92578-1.1875m20.08203-.60157l-6.60937 2.38672m18.14844-4.35547l-3.0586 6.32813m2.61328-5.40625l1.22657-.04688m12.04687-1.0664L356 417.10937m1.78125-5.73437l1.20312-.23047m9.46094-.33984l3.82422 5.89453m9.01563-5.52735l4.76953 5.16407m-4.07422-4.41406l.40625-1.15625m11.99219.6328l5.21484 4.71094m-5.21484-4.71093l.60156-2.38281m13.32812 1.84375l3.98438 5.78906m-3.40625-4.94531l.5664-1.08985m12.34766.13281l3.6289 6.01563m-3.10156-5.14063l.63282-1.05468m16.5664.8203l-5.1914 4.73438m4.4375-4.04687l1.15625.41406m11.20312 4.66406l-1.77344-6.79687m1.51563 5.8086l-.90234.83202m17.05078-3.83593l-6.92578 1.18359m5.91796-1.01172l.75.97266"/><g clip-path="url(#S)"><path fill="none" stroke="#000" stroke-linecap="round" stroke-linejoin="round" stroke-miterlimit="10" stroke-width=".5" d="M147.32031 399.28906l-6.64062 2.30078"/></g><path fill="none" stroke="#000" stroke-linecap="round" stroke-linejoin="round" stroke-miterlimit="10" stroke-width=".5" d="M147.32031 399.28906l1.79688 1.66797m-2.76172-1.33594l.89844.83594m13.05078-1.86328l-5.98047 3.6914m5.98047-3.6914l2.11719 1.23828m11.26562-1.1211l-6.11719 3.45704m5.23047-2.95703l1.03125.66015m13.27344-.96875l-6.32031 3.07422m6.3203-3.07422l1.98438 1.44141m11.08594-1.86719l-5.83203 3.92188m4.98438-3.35156l1.08203.57812m11.80859-2.29297l-3.28516 6.21094m18.08985-4.69531l-6.26563 3.18359m5.35156-2.72266l1.00782.70704m13.26562-1.07813l-6.35547 3.0039m6.35547-3.0039l1.96485 1.46484m11.09765-1.91015l-5.85156 3.89453m5.85156-3.89453l2.16016 1.16406m11.28906-.94531l-6.11719 3.45703m5.22657-2.95313l1.03515.65625m13.25-1.01562l-6.27734 3.16406m6.27734-3.16406l2.0039 1.41797m10.75-2.22266l-5.15233 4.77735m4.40234-4.08204l1.16016.40235m13.71875.36719l-6.78125 1.84765m5.79296-1.58203l.83985.89453m13.58594-.3164l-7.02735.16015m6.0039-.13672l.60157 1.0664m13.44531-2.41405l-6.4414 2.80859m5.5039-2.40234l.96094.76562m12.3711-2.42187l-4.60547 5.30859m3.9375-4.53516l1.1953.27344m13.9961 1.47266l-7.01953.26953m6-.23047l.61719 1.0586m13.6836-.45313l-6.95313-1.02344m5.9414.875l.41407 1.15625m12.53906-4.33594l-4.20313 5.63282m4.20313-5.63282l2.42578.375m7.08594-.6328l3.40234 6.14843m-2.90625-5.2539l.66797-1.02735m12.0039.21875l3.69532 5.97656m-3.15625-5.10547l.61719-1.0586m11.40625.8125l5.20312 4.72657m-4.44531-4.03906l.30078-1.1875m15.6875-.55078l-1.66016 6.82812m16.71875-1.02344l-5.14843-4.78125m4.39843 4.08594l-.3125 1.1875m14.71485-.91797l-5.82422-3.92968m5.82422 3.92968l-.25391 2.44141"/><g clip-path="url(#T)"><path fill="none" stroke="#000" stroke-linecap="round" stroke-linejoin="round" stroke-miterlimit="10" stroke-width=".5" d="M146.83984 385.05469l-5.67968 4.13672"/></g><path fill="none" stroke="#000" stroke-linecap="round" stroke-linejoin="round" stroke-miterlimit="10" stroke-width=".5" d="M146.83984 385.05469l2.20703 1.07422m-3.03125-.47266l1.10157.53906m12.63281-1.60547l-4.8711 5.06641m4.8711-5.0664l2.35938.67187m-3.06641.0664l1.17969.33594m13.73828.33985l-6.66016 2.23828m6.66016-2.23828l1.78125 1.68359m11.25-2.3125l-6.09375 3.4961m5.20703-2.98829l1.03906.65235m12.74219-1.7422l-5.2539 4.66407m4.49218-3.98828l1.14844.42969m13.22656-.71875l-5.85156 3.88672m5.85156-3.88672l2.16016 1.16406m11.73828.60938l-7.01563.33984m7.01563-.33985l1.25781 2.10938m12.0039-2.58984l-6.90624 1.30078m6.90625-1.30078l1.53125 1.91796m11.4375-2.90625l-6.21485 3.27735m6.21485-3.27735l2.02734 1.37891m11.48047-.9375l-6.60547 2.39453m6.60547-2.39453l1.82422 1.64453M280.5 386.0586l-6.69922 2.12891m6.69922-2.1289l1.7539 1.71484m11.66407-1.3086l-6.90235 1.31641m6.90235-1.3164l1.53515 1.91015m-2.53906-1.71875l.76953.95313m13.60938-.34766l-7.02344-.27735m7.02344.27735l1.0625 2.21094m12.22265-2.81641l-6.96484.9336m6.96484-.9336l1.4297 1.99219m11.85155-2.19531l-6.89843 1.33984m6.89843-1.33985l1.54297 1.90625m11.82422-1.55468l-7 .64062m5.98047-.55078l.67188 1.02735m13.1289-2.6836l-5.9336 3.76953m5.9336-3.76953l2.13281 1.21094m10.91016-1.58203l-5.39062 4.51172m5.39062-4.51172l2.27344.92578m10.11328-1.70703l-3.53516 6.07422m3.53516-6.07422l2.45312.09375m11.0625.03125l-3.93359 5.82422m3.9336-5.82422l2.4375.25781m10.62109-.41406l-3.42188 6.13672m3.42188-6.13672l2.45312.04687m10.81641-.07422l-3.32813 6.19141m2.84375-5.28906l1.22657.0039m13.69922 4.32422l-5.58204-4.26562m4.76954 3.64453l-.19922 1.21094m14.3086-.56641l-5.54688-4.3164m5.54687 4.3164l-.42187 2.41797m13.74609-2.4336l-5.5664-4.28515m5.5664 4.28515l-.40625 2.42188m-.40234-3.04297l-.20313 1.20703"/><g clip-path="url(#U)"><path fill="none" stroke="#000" stroke-linecap="round" stroke-linejoin="round" stroke-miterlimit="10" stroke-width=".5" d="M146.5625 371.40625l-5.125 4.80469"/></g><path fill="none" stroke="#000" stroke-linecap="round" stroke-linejoin="round" stroke-miterlimit="10" stroke-width=".5" d="M146.5625 371.40625l2.32422.79297m-3.07031-.09375l1.16406.39453m13.59766.0039l-6.52344 2.60938m6.52344-2.60937l1.875 1.58203m-2.82422-1.20313l.9375.79297m13.54687-.3164l-6.96875.89843m6.96875-.89844l1.42188 2m-2.4336-1.87109l1.41797 2.0039m12.88672-2.29687l-6.92188 1.22656m6.92188-1.22656l1.51172 1.92969m11.61328-2.59375l-6.54297 2.55469m6.54297-2.55469l1.86328 1.59766m11.63672-.96094l-6.91016 1.27734m6.91016-1.27734l1.52734 1.92187m-2.53515-1.73437l.76562.96094m13.57813-.01172l-6.95703-.99219m6.95703.99219l.83594 2.30469m-1.84766-2.44922l.41797 1.15234m13.9336-1.21484l-7.00392-.57813m7.00391.57813l.97266 2.2539m-1.99219-2.33984l.48438 1.1289m13.86328-1.33203h-7.02735m7.02735 0l1.15234 2.16797m-2.17578-2.16797l.57422 1.08204m13.71094-1.67579l-6.92579 1.1875m6.92578-1.1875l1.50391 1.9375m-2.51172-1.76562l.7539.96875m13.6211-.6211l-7.02734.14844m7.02734-.14844l1.19532 2.14454m-2.21875-2.1211l.59765 1.07031m13.71875-1.40625l-6.98437.77344m6.98437-.77344l1.38672 2.02344m11.9375-1.91797l-7.0039.5625m7.0039-.5625l1.32422 2.07032m11.98437-1.4336l-6.98828-.71094m6.98828.71094l.9297 2.26953m12.40234-2.77734l-7.01954.30469m5.9961-.26172l.625 1.0586m13.26172-2.6797l-6.1172 3.46094m5.22657-2.95703l1.03516.65625m13.02734-1.39062l-5.83203 3.92187m5.83203-3.92187l2.16406 1.15625m11.07032-1.27344l-5.66797 4.15625m5.66797-4.15625l2.20703 1.0664m10.73047-1.5l-4.91407 5.02344m4.91407-5.02344l2.35547.69141m10.86718-.77734l-4.73047 5.19531m4.73047-5.19531l2.3789.60547m11.32032-.19532l-5.4961 4.375m5.4961-4.375l2.25.97657m11.63672.0625l-6.64062 2.29687m6.64062-2.29687l1.79688 1.67187m-2.76563-1.33984l.90234.83594m13.45704.8789l-6.79297-1.79687m6.79297 1.79687l.55859 2.38672m12.53125-1.77344l-6.34375-3.02344m6.34375 3.02344l.10937 2.45313m-1.03125-2.89453l.0547 1.22656m13.73046-.07031l-5.4375-4.45313m5.4375 4.45313l-.48437 2.40625"/><g clip-path="url(#V)"><path fill="none" stroke="#000" stroke-linecap="round" stroke-linejoin="round" stroke-miterlimit="10" stroke-width=".5" d="M146.86328 358.45703l-5.72656 4.07031"/></g><path fill="none" stroke="#000" stroke-linecap="round" stroke-linejoin="round" stroke-miterlimit="10" stroke-width=".5" d="M146.86328 358.45703l2.19531 1.10156m-3.02734-.5078l1.09766.55077m13.63672 1.5625l-6.89844-1.33984m6.89844 1.33984l.71484 2.34766m-1.71875-2.54297l.35547 1.17188m14.01953-1.41797l-7.01172-.46094m7.01172.46094l1.00781 2.23828m-2.02734-2.30469l1.00781 2.23828m13.32813-2.20703l-7.01563-.39063m7.01563.39063l1.03125 2.22656m-2.05079-2.28125l1.02735 2.22656m13.29687-2.03515l-6.9961-.66406m6.9961.66406l.9414 2.26562m-1.95702-2.35937l.9414 2.26562m13.40625-2.46484l-7.02734-.07422m7.02734.07422l1.12891 2.17969m-2.15234-2.1914l1.1289 2.17968m13.20703-2.23047l-7.02343.04688m7.02343-.04688l1.16797 2.16016m-2.1875-2.15235l.58203 1.07813m13.70703-1.64063l-6.93359 1.16016m6.9336-1.16016l1.49218 1.94531m-2.5-1.77734l.7461.97266m13.57812-1.11719l-6.9375 1.10938m6.9375-1.10938l1.48047 1.96094m11.7461-2.36328l-6.75782 1.91406m6.75781-1.91406l1.69922 1.76953m11.69922-1.41406l-6.92578 1.20703m6.92578-1.20704l1.5039 1.9336m-2.51171-1.75781l.7539.96875m13.57032-1.12891L287 361.08203m6.92969-1.17578l1.5 1.9414m11.7539-2.22656l-6.80468 1.7461m6.80468-1.7461l1.65625 1.8125m11.73438-1.42968l-6.95703.97656m6.95703-.97656l1.4414 1.98828m11.70313-2.6836l-6.61719 2.3672m5.65625-2.02345l.90625.82813m13.32031-1.30078l-6.51953 2.625m5.57032-2.24219l.9414.78906m13.28516-1.26172l-6.4414 2.8047m6.4414-2.8047l1.92187 1.52735m11.16797-1.95703l-5.99219 3.66796m5.9922-3.66796l2.11327 1.24609m11.2422-1.17969l-6.07423 3.53125m6.07422-3.53125l2.08594 1.29297m-2.96875-.77734l1.04297.64453m13.28125-.92578l-6.32422 3.0625m6.32422-3.0625l1.98047 1.44922m-2.90235-1.00391l.99219.72656m13.36328-.89453l-6.5625 2.50781m6.5625-2.5078l1.85156 1.61327m-2.80468-1.25l1.84765 1.61328m12.5039-1.73046L420.25 361.5039m6.73047-2.01954l1.72656 1.7422m-2.70312-1.44923l1.72265 1.7422m12.6289-1.81642l-6.84765 1.58204m6.84766-1.58204l1.60937 1.85157m-2.60546-1.6211l1.60937 1.85157m12.77734-1.60547l-7 .625m7-.625l1.33985 2.0586m11.98437-1.5547l-7.01562-.3828m5.9961.32812l.51562 1.11328"/><g clip-path="url(#W)"><path fill="none" stroke="#000" stroke-linecap="round" stroke-linejoin="round" stroke-miterlimit="10" stroke-width=".5" d="M147.23438 345.80469l-6.46875 2.7461"/></g><path fill="none" stroke="#000" stroke-linecap="round" stroke-linejoin="round" stroke-miterlimit="10" stroke-width=".5" d="M147.23438 345.80469l1.90625 1.54687m-2.84766-1.14844l.95312.77344m13.27735 1.63281l-6.41797-2.86328m6.41797 2.86329l.16797 2.44921m-1.10157-2.86328l.16797 2.44531m14.26172-2.53906l-6.78125-1.84375m6.78125 1.84375l.54297 2.39063m-1.52734-2.66016l.54297 2.39063m13.82812-2.44922l-6.92188-1.1914m6.92188 1.1914l.76953 2.33203m-1.77734-2.5039l.76953 2.32812m13.60547-2.6875l-7.02735-.1289m7.02735.1289l1.11328 2.1875m-2.13672-2.20703l1.11328 2.1875m13.09766-3.1797l-6.76953 1.89454m6.76953-1.89453l1.6914 1.77734m-2.67968-1.5l1.6953 1.77735m12.44532-2.50391l-6.44531 2.79297m6.44531-2.79297l1.91797 1.53125m-2.85547-1.125l.96094.76563m13.24219-1.28125l-6.34766 3.01171m6.34766-3.01171l1.96875 1.46093m11.42578-1.27734L247.26563 348.5m6.5078-2.64453l1.88673 1.57422m11.67578-.5586l-7 .6172m5.98047-.52735l.66797 1.02734m13.5039-1.91015l-6.67578 2.19921m6.67578-2.19921l1.76953 1.69921m11.6875-1.08593l-6.96093.97265m6.96093-.97265l1.4414 1.98437m11.76173-2.4961l-6.73828 1.9961m6.73828-1.9961l1.72265 1.75391m-2.70312-1.46093l.85937.875m13.34766-1.4297l-6.5586 2.51954m6.5586-2.51953l1.85156 1.60547m11.42188-1.71094l-6.47266 2.73047m6.47266-2.73047l1.90234 1.54688m11.3711-1.64454l-6.39063 2.92579m5.46094-2.5l.97265.74609m13.58985.26562l-7.02735.05079m7.02735-.05079l1.16797 2.15625m12.10547-2.67578l-6.94141 1.08985m6.9414-1.08985l1.47266 1.96094m-2.48437-1.80078l.73828.98047m13.3789-1.89844l-6.52343 2.60938m6.52343-2.60938l1.875 1.58203m-2.82421-1.20312l.9375.78906m13.42968-.8711l-6.73047 2.01563m6.73047-2.01563l1.72657 1.7422m-2.70704-1.44923l.86329.8711m13.47656-1.01563l-6.8164 1.71485m6.8164-1.71485l1.64453 1.82422m-2.63672-1.57422l1.64453 1.82031m12.65235-2.10156l-6.79688 1.77735m6.79688-1.77735l1.66406 1.80469m-2.65235-1.54688l1.66016 1.8086m-2.64844-1.54688l.82813.90235m14.3711-1.71875l-6.61329 2.3711m6.61328-2.3711l1.8164 1.65234m-2.77734-1.30469l1.81641 1.64844m-2.78125-1.30469l.91016.82422m14.17968-1.8711l-6.3125 3.08204m6.3125-3.08203l1.98829 1.4414m-2.90625-.99218l1.98828 1.4414m12.28906-1.79687l-6.40234 2.89844"/><g clip-path="url(#X)"><path fill="none" stroke="#000" stroke-linecap="round" stroke-linejoin="round" stroke-miterlimit="10" stroke-width=".5" d="M466.76172 345.73047l1.94531 1.4961"/></g><path fill="none" stroke="#000" stroke-linecap="round" stroke-linejoin="round" stroke-miterlimit="10" stroke-width=".5" d="M465.83203 346.15234l.96875.7461"/><g clip-path="url(#Y)"><path fill="none" stroke="#000" stroke-linecap="round" stroke-linejoin="round" stroke-miterlimit="10" stroke-width=".5" d="M147.51172 333.8086l-7.02344.10937"/></g><path fill="none" stroke="#000" stroke-linecap="round" stroke-linejoin="round" stroke-miterlimit="10" stroke-width=".5" d="M147.51172 333.8086l1.1875 2.14843m-2.20703-2.13281l.58984 1.07422m13.20703.83594l-5.94531-3.7422m5.94531 3.7422l-.17969 2.44921m-.6875-2.99218l-.17968 2.4453m-.6836-2.99218l-.08984 1.22656M174 334.85547l-6.73828-1.98828M174 334.85547l.49219 2.40625m-1.47266-2.69531l.49219 2.40625m-1.47266-2.69532l.2461 1.20313m15.16015-1.91797l-7 .60156m7-.60156l1.33203 2.0586m-2.35156-1.97266l1.33594 2.0625m12.71484-3.26172l-6.4336 2.82812m6.4336-2.82812l1.92578 1.51953m-2.86328-1.10938l1.92969 1.51954m12.13281-2.29688l-6.05469 3.5625m6.0547-3.5625l2.09374 1.28125m-2.97265-.76562l2.08984 1.28515m11.61719-2.44922l-5.07813 4.85938m5.07813-4.85938l2.32812.76954m-3.0664-.0625l1.16406.38671m12.73828-1.24218l-4.77734 5.15625m4.77734-5.15625l2.3711.6289m11.33593-.19922l-5.5625 4.29688m5.5625-4.29688l2.23828 1.01172m11.75781 1.73828l-6.92187-1.20312m6.92188 1.20312l.76562 2.33204m12.33203-1.58594l-6.48828-2.69531m6.48828 2.6953l.23438 2.44141m-1.17578-2.83593l.11328 1.22265m14.39453-1.82422l-6.99219-.70312m6.99219.70312l.92969 2.26954m12.34765-3.25l-6.91406 1.2578m6.91406-1.2578l1.51953 1.92578m-2.52734-1.7422l.76172.96095m13.4961-1.4297l-6.78516 1.82813m6.78515-1.82812l1.67578 1.79297M319.5 333.21484l.83984.89454m13.46485-1.15625l-6.78906 1.8164m6.78906-1.8164l1.67187 1.79687m11.7539-1.15234l-7.0078.53125m7.0078-.53125l1.3125 2.07421m11.96485-1.23828l-6.9336-1.14062m6.9336 1.14062l.78516 2.32422m12.57422-3.00781l-7.02344.22656m7.02344-.22656l1.22265 2.1289m-2.24218-2.09765l.60937 1.0664m13.3711-2.53124l-6.3125 3.09375m6.3125-3.09375l1.98437 1.4414m11.45703-1.14453l-6.5664 2.5m6.5664-2.5l1.84766 1.61719m11.61328-1.14063l-6.85547 1.54688m6.85547-1.54688l1.59766 1.85938m-2.59766-1.63281l.80078.92968m13.4961-1.21875l-6.82422 1.67188m6.82421-1.67188l1.63672 1.82813m-2.6289-1.58594l.8164.91406m13.40235-1.46093l-6.64453 2.28125m6.64453-2.28125l1.79297 1.67578m-2.75782-1.34375l1.79297 1.67578m12.35156-2.34766l-6.37109 2.96094m6.3711-2.96094l1.95703 1.47656m-2.88672-1.04687l1.96093 1.48047m-2.88671-1.05078l.98046.74219m13.9297-2.0625l-5.85548 3.8828"/><g clip-path="url(#Z)"><path fill="none" stroke="#000" stroke-linecap="round" stroke-linejoin="round" stroke-miterlimit="10" stroke-width=".5" d="M466.48828 331.92188l2.16016 1.16796"/></g><g clip-path="url(#aa)"><path fill="none" stroke="#000" stroke-linecap="round" stroke-linejoin="round" stroke-miterlimit="10" stroke-width=".5" d="M465.63672 332.48438l2.16015 1.16796"/></g><g clip-path="url(#ab)"><path fill="none" stroke="#000" stroke-linecap="round" stroke-linejoin="round" stroke-miterlimit="10" stroke-width=".5" d="M147.04688 322.29297l-6.09375-3.49219"/></g><path fill="none" stroke="#000" stroke-linecap="round" stroke-linejoin="round" stroke-miterlimit="10" stroke-width=".5" d="M147.04688 322.29297l-.07422 2.45312m-.8125-2.96093l-.07813 2.45312m-.8086-2.96094l-.07812 2.45313m15.09766-1.3164l-5.95703-3.73048m5.95703 3.73047l-.17188 2.44531m-.6953-2.98828l-.17188 2.44532m-.69532-2.98829l-.17187 2.44532m15.73828-2.875l-6.99219-.69922m6.99219.69922l.92969 2.26953m-1.94531-2.3711l.92968 2.26954m-1.94922-2.3711l.46875 1.13281m14.6875-2.48828l-6.60156 2.41797m6.60156-2.41797l1.82422 1.63672m-2.78515-1.28515l1.82422 1.63671m-2.78516-1.28515l.91406.82031m14.03906-2.11328l-6.03515 3.59766m6.03515-3.59766l2.10157 1.26953m-2.98047-.7461l2.10156 1.26954m-2.97656-.7461l1.04687.63282m13.91406-1.85156l-5.8164 3.9414m5.8164-3.9414l2.16797 1.14453m-3.01562-.57422l2.16797 1.14844m-3.01172-.57422l1.08203.57421m14.01563-1.57421l-6 3.65234m6-3.65234l2.11328 1.25m-2.98438-.71875l2.10938 1.25m12.125-1.70313l-6.09766 3.49219m6.09766-3.49219l2.07812 1.3086m-2.96484-.80079l2.07812 1.3086m12.125-1.8125l-6.10156 3.48437m6.10156-3.48437l2.07813 1.3125m-2.96485-.80469l1.03907.65625m13.62109.74219l-7.01953-.32813m7.01953.32813l1.05078 2.21875m11.77344-.58203L274.1328 318.75m6.03516 3.59766l-.1211 2.44921m-.7578-2.97265l-.0586 1.22656m14.71484-2.01562l-6.96093-.97266m6.96093.97266l.83985 2.30468m-1.85157-2.4453l.41797 1.15233m13.9336-1.76953l-7.00782.54297m7.00782-.54297l1.3164 2.07032m-2.33593-1.9922l.65625 1.03517m13.61328-1.5547l-6.87891 1.42188m6.8789-1.42187l1.56641 1.89062m-2.5664-1.6836l1.5664 1.89063m12.5625-2.71484l-6.5039 2.66016m6.5039-2.66016l1.88672 1.5664m-2.83594-1.17968l1.88672 1.5664m12.35547-2l-6.46484 2.75391m6.46484-2.7539l1.91016 1.54296m-2.84766-1.14453l.95313.77344m13.22265-1.33984l-6.3086 3.08984m5.39063-2.64063l.9961.71875m13.48437-.5039l-6.80468 1.76172m5.8164-1.5039l.82813.90233m13.02734-2.18359l-5.90625 3.80469m5.90625-3.80469l2.14063 1.19922m-3-.64453l1.0703.59765m13.0547-1.22656l-5.8086 3.95313m5.8086-3.95313l2.17187 1.14453m9.8086-2.30859l-3.14063 6.28516m2.6836-5.3711l1.22656-.03125m9.88671-1.08203l2.1797 6.67969m15.66015-4.0664l-6.875 1.45312m5.875-1.24219l.78906.9414m13.48438-1.33593l-6.78907 1.82031m6.78907-1.82031l1.67187 1.79687m-2.66016-1.53125l1.67579 1.79688m12.0078-3.3086l-5.54687 4.3125"/><g clip-path="url(#ac)"><path fill="none" stroke="#000" stroke-linecap="round" stroke-linejoin="round" stroke-miterlimit="10" stroke-width=".5" d="M466.33594 318.39063l2.23828 1.0039"/></g><g clip-path="url(#ad)"><path fill="none" stroke="#000" stroke-linecap="round" stroke-linejoin="round" stroke-miterlimit="10" stroke-width=".5" d="M465.52734 319.01953l2.23829 1"/></g><path fill="#00f" fill-rule="evenodd" d="M383.80078 436.57813h8.61719v-10.14454h-8.61719v10.14454"/><path fill="azure" fill-rule="evenodd" d="M385.63281 428.26563h.83203v2.82421h3.28907v-2.82421h.83203v6.48046h-.83203v-2.91406h-3.28907v2.91406h-.83203v-6.48046"/><path fill="#00f" fill-rule="evenodd" d="M370.48438 401.07422h8.62109v-10.14844h-8.6211v10.14844"/><path fill="azure" fill-rule="evenodd" d="M372.3164 392.76172h.83594v2.82031h3.28516v-2.82031h.83203v6.47656h-.83203v-2.91406h-3.28516v2.91406h-.83593v-6.47656"/><path fill="#ff3030" fill-rule="evenodd" d="M433.3164 387.75781h7.69141v-10.14453h-7.6914v10.14453"/><path fill="azure" fill-rule="evenodd" d="M435.14844 379.44531h.83594v5.73828h3.1914v.7422h-4.02734v-6.48048"/><path fill="#ff3030" fill-rule="evenodd" d="M211.39844 374.4414h7.6914v-10.14452h-7.6914v10.14453"/><path fill="azure" fill-rule="evenodd" d="M213.23047 366.1289h.83594v5.7422h3.1914v.73827h-4.02734v-6.48046"/><path fill="#ffffe0" fill-rule="evenodd" d="M421.63281 427.14844h22.1836v-10.1914h-22.1836v10.1914"/><path fill-rule="evenodd" d="M425.13281 418.78906h.51172v6.29688h-.78906v-4.49219h-1.38672v-.55469l.5586-.0664.2539-.05079.22656-.08984.20313-.14453.17578-.20703.14062-.29688.10547-.39453m4.8164 0l.22657.01953.21875.0547.21094.08983.19531.1211.1836.14844.17187.17578.30078.42187.24219.49219.17969.54688.11328.57812.03906.59375-.03906.58984-.11328.58594-.1797.55469-.24218.5-.30078.42969-.17188.17968-.18359.15235-.19531.125-.21094.08984-.21875.0586-.22656.01953-.23047-.01954-.21875-.05859-.20703-.08984-.19922-.125-.1836-.15235-.17187-.17968-.30078-.4297-.24219-.5-.17969-.55468-.11328-.58594-.03906-.58984h.83594l.02734.5625.08203.5039.125.44532.16407.3711.1914.30077.21094.22266.22266.13672.22656.04687.22656-.04687.22266-.13672.20703-.22266.1914-.30078.16407-.3711.125-.4453.08203-.50391.02734-.5625-.02734-.5625-.08203-.5-.125-.4375-.16406-.36328-.19141-.29297-.20703-.21484-.22266-.13282-.22656-.04296-.22656.04296-.22266.13282-.21094.21484-.1914.29297-.16407.36328-.125.4375-.08203.5-.02734.5625h-.83594l.03906-.59375.11329-.57813.17968-.54687.24219-.49219.30078-.42187.17188-.17578.18359-.14844.19922-.1211.20703-.08984.21875-.05469.23047-.01953m4.94922 0l.23047.01953.21875.0547.20703.08983.19922.1211.18359.14844.17188.17578.30078.42187.24218.49219.1797.54688.11327.57812.03906.59375-.03906.58984-.11328.58594-.17969.55469-.24218.5-.30079.42969-.17187.17968-.1836.15235-.19921.125-.20703.08984-.21875.0586-.23047.01953-.22656-.01954-.21875-.05859-.21094-.08984-.19531-.125-.1836-.15235-.17187-.17968-.30079-.4297-.24218-.5-.17969-.55468-.11328-.58594-.03906-.58984h.83203l.03125.5625.08203.5039.125.44532.16406.3711.1875.30077.21094.22266.22265.13672.22657.04687.22656-.04687.22266-.13672.21093-.22266.19141-.30078.16406-.3711.125-.4453.08203-.50391.02735-.5625-.02735-.5625-.08203-.5-.125-.4375-.16406-.36328-.1914-.29297-.21094-.21484-.22266-.13282-.22656-.04296-.22656.04296-.22266.13282-.21094.21484-.1875.29297-.16406.36328-.125.4375-.08203.5-.03125.5625h-.83203l.03906-.59375.11328-.57813.17969-.54687.24219-.49219.30078-.42187.17187-.17578.1836-.14844.1953-.1211.21094-.08984.21875-.05469.22657-.01953m4.95312 0l.38672.02735.35938.08203.32421.13672.27735.1875.23047.23828.17578.28515.10547.33204.03906.3789-.01953.27344-.0586.23437-.08593.19922-.11328.17188-.12891.14453-.14063.1211-.28515.1953.23047.1211.20703.14453.1836.17188.15234.1953.125.21094.08984.23047.05469.2461.01953.2539-.03516.3086-.10156.32812-.17188.32422-.23828.3086-.30859.26562-.375.21484-.21094.08204-.22656.0625-.2461.03515-.26171.01563-.25781-.01563-.2422-.03515-.22265-.0625-.20703-.08204-.35938-.21484-.28906-.26563-.22265-.30859-.15625-.32422-.09375-.32812-.03125-.3086h.83593l.02344.25391.07813.23438.125.21093.16015.1875.1914.15235.21876.11328.24219.07422.2539.02343.25781-.02343.23829-.07422.21875-.11328.1953-.15235.16017-.1875.12109-.21094.07812-.23437.02735-.2539-.02735-.25391-.07812-.23438-.1211-.21094-.16015-.18359-.19531-.15234-.21875-.11719-.23829-.07031-.2578-.02735-.25391.02735-.2422.07031-.21874.11719-.1914.15234-.16016.1836-.125.21093-.07813.23438-.02344.2539h-.83593l.01953-.2539.05469-.23828.09375-.22657.12109-.20703.15625-.1914.17969-.17188.20703-.15234.23437-.13281-.28906-.19532-.13672-.1211-.1289-.14452-.11329-.17188-.08984-.19922-.05469-.23437-.02344-.27344h.78907l.02344.21485.0664.1914.10156.16406.13672.14063.16797.10937.1875.08204.20703.05078.21875.01562.22266-.01562.20703-.05079.1875-.08203.16406-.10937.13672-.14063.10547-.16406.0664-.1914.02344-.21485-.02343-.21484-.06641-.1914-.10547-.16798-.13672-.14062-.16406-.10938-.1875-.08203-.20703-.05078-.22266-.01563-.21875.01563-.20703.05078-.1875.08203-.16797.10938-.13672.14062-.10156.16797-.0664.1914-.02344.21485h-.78906l.03906-.3789.10937-.33204.17188-.28515.23047-.23828.28125-.1875.3203-.13672.35938-.08203.38672-.02735"/><path fill="#ffffe0" fill-rule="evenodd" d="M310.67578 348.51953h22.17969v-10.1914h-22.17969v10.1914"/><path fill-rule="evenodd" d="M314.17578 340.16016h.50781v6.29687h-.78515v-4.49219h-1.39063v-.55468l.5586-.0625.2539-.0547.23047-.08983.20313-.14063.17187-.21094.14453-.29687.10547-.39453m4.8125 0l.23047.01953.21875.05469.20703.08984.19531.1211.1836.14843.17187.17578.30469.42188.24219.49218.17969.54688.10937.57812.03906.59375-.03906.59375-.10938.58204-.17968.55468-.24219.5-.30469.42969-.17187.17969-.1836.15234-.1953.125-.20704.08985-.21875.05859-.23047.01953-.23047-.01953-.21875-.0586-.20703-.08984-.19531-.125-.1836-.15234-.17187-.17969-.30469-.42969-.24219-.5-.17968-.55469-.10938-.58203-.03906-.59375h.83203l.03125.5625.07813.50391.1289.44531.16016.375.1914.30078.21094.21875.22266.13672.22656.04688.22656-.04688.22266-.13672.21094-.21875.1914-.30078.16016-.375.1289-.44531.08204-.5039.02734-.5625-.02734-.5625-.08203-.5-.12891-.4375-.16016-.36329-.1914-.29297-.21094-.21484-.22266-.13281-.22656-.04297-.22656.04297-.22266.13281-.21094.21484-.1914.29297-.16016.36328-.1289.4375-.07813.5-.03125.5625h-.83203l.03906-.59375.10938-.57812.17969-.54688.24218-.49218.30469-.42188.17188-.17578.18359-.14844.19531-.1211.20703-.08983.21875-.0547.23047-.01952m5.08985 0h.51171v6.29687h-.78906v-4.49219h-1.38672v-.55468l.5586-.0625.2539-.0547.23047-.08983.20313-.14063.17187-.21094.14063-.29687.10546-.39453m2.82422 2.17578h.78907l.01953-.3164.0586-.28517.09765-.2539.14062-.21485.1836-.17187.22265-.1289.26563-.08204.30469-.02734.23828.01953.22656.0625.20312.10156.1797.14063.14843.17187.11328.20703.07031.23438.02735.26562-.02344.26954-.0664.22265-.10938.1914-.15625.17188-.19922.16406-.2461.16407-.63671.39062-.53516.3125-.4375.3164-.34766.32423-.26562.33594-.1875.35156-.125.3711-.07031.39062-.01954.42187h4.21094v-.74219h-3.33203l.08203-.28515.11328-.23438.14844-.20312.1875-.17969.23047-.17188.27734-.17578.71875-.41406.41407-.20703.34765-.23047.28125-.25.21875-.26953.16406-.27734.10938-.28516.0664-.28516.01954-.28125-.04297-.3828-.1211-.34767-.1875-.30859-.25-.26172-.30468-.21094-.34375-.16015-.3789-.09766-.41017-.03515-.43359.03515-.39844.09766-.35546.16406-.3047.23828-.24609.30078-.1875.375-.11328.44532-.04297.51953"/><path fill="#ffffe0" fill-rule="evenodd" d="M199.71484 344.96094h22.1836v-10.1914h-22.1836v10.1914"/><path fill-rule="evenodd" d="M203.21484 336.60156h.51172v6.29297h-.78906v-4.48828h-1.38672v-.55469l.5586-.0664.2539-.0547.22656-.08983.20313-.14063.17578-.21094.14063-.29297.10546-.39453m4.81641 0l.22656.01953.21875.0547.21094.08983.19531.1211.1836.14844.17187.17578.30078.41797.24219.49609.17969.54688.11328.57812.03906.58984-.03906.59375-.11328.58594-.17969.55078-.24219.5039-.30078.4297-.17187.17968-.1836.15235-.19531.1211-.21094.09374-.21875.0586-.22656.01953-.23047-.01954-.21875-.05859-.20703-.09375-.19922-.1211-.1836-.15234-.17187-.17968-.30078-.4297-.24219-.5039-.17968-.55078-.11328-.58594-.03907-.59375h.83594l.02734.5625.08203.50782.125.4414.16407.375.1914.30078.21094.22266.22266.13672.22656.04687.22656-.04687.22266-.13672.21094-.22266.1875-.30078.16406-.375.125-.4414.08203-.50782.03125-.5625-.03125-.55859-.08203-.5039-.125-.4336-.16406-.36719-.1875-.28906-.21094-.21484-.22266-.13282-.22656-.04296-.22656.04296-.22266.13282-.21094.21484-.1914.28906-.16406.36719-.125.4336-.08204.5039-.02734.5586h-.83594l.03906-.58985.11329-.57813.17968-.54687.2422-.4961.30077-.41796.17188-.17578.1836-.14844.19921-.1211.20703-.08984.21875-.05469.23047-.01953m5.08984 0h.50782v6.29297h-.78516v-4.48828h-1.39063v-.55469l.5625-.0664.25-.0547.23047-.08983.20313-.14063.17578-.21094.14063-.29297.10546-.39453m2.82422 2.17578h.78516l.01953-.3164.0586-.28906.10156-.25.14062-.21485.17969-.17578.22266-.1289.26562-.07813.3086-.02735.23827.01954.22266.0625.20313.10156.17968.13672.14844.17578.11328.20312.07422.23829.02344.26562-.02344.26563-.0625.22656-.11328.1914-.15234.17188-.20313.16015-.2461.16797-.6328.38672-.53907.3164-.4375.31642-.34765.32421-.26172.33594-.1914.35156-.125.3672-.06642.39452-.02343.41797h4.21484v-.73828h-3.33594l.08594-.28516.11328-.23828.14844-.19922.1875-.17968.23047-.17188.27734-.17578.71875-.41797.41406-.20312.34375-.23438.28125-.25.22266-.26562.16016-.27735.11328-.28515.0625-.28516.01953-.28125-.03906-.38281-.1211-.34766-.1914-.3086-.25-.26171-.30078-.21485-.34766-.15625-.3789-.10156-.40626-.03125-.43359.03125-.39844.09766-.35547.16797-.30468.23437-.25.30469-.1836.375-.11719.44531-.03906.51953"/></g></defs><use xlink:href="#ae"/></svg>