<svg xmlns="http://www.w3.org/2000/svg" role="img" xmlns:xlink="http://www.w3.org/1999/xlink" viewBox="142.45 309.95 326.84 171.84"><defs><clipPath id="a"><path d="M144 311.67188h1v168.65625h-1zm0 0"/></clipPath><clipPath id="b"><path d="M144 311.67188h324v168.65625H144zm0 0"/></clipPath><clipPath id="c"><path d="M467 311.67188h1v168.65625h-1zm0 0"/></clipPath><clipPath id="d"><path d="M144 478h4v2.32813h-4zm0 0"/></clipPath><clipPath id="e"><path d="M146 479h2v1.32813h-2zm0 0"/></clipPath><clipPath id="f"><path d="M153 478h8v2.32813h-8zm0 0"/></clipPath><clipPath id="g"><path d="M159 479h2v1.32813h-2zm0 0"/></clipPath><clipPath id="h"><path d="M166 479h9v1.32813h-9zm0 0"/></clipPath><clipPath id="i"><path d="M172 479h3v1.32813h-3zm0 0"/></clipPath><clipPath id="j"><path d="M180 480h8v.32813h-8zm0 0"/></clipPath><clipPath id="k"><path d="M186 480h2v.32813h-2zm0 0"/></clipPath><clipPath id="l"><path d="M193 479h8v1.32813h-8zm0 0"/></clipPath><clipPath id="m"><path d="M199 480h2v.32813h-2zm0 0"/></clipPath><clipPath id="n"><path d="M206 480h9v.32813h-9zm0 0"/></clipPath><clipPath id="o"><path d="M212 480h2v.32813h-2zm0 0"/></clipPath><clipPath id="p"><path d="M220 479h8v1.32813h-8zm0 0"/></clipPath><clipPath id="q"><path d="M226 479h2v1.32813h-2zm0 0"/></clipPath><clipPath id="r"><path d="M233 479h8v1.32813h-8zm0 0"/></clipPath><clipPath id="s"><path d="M239 479h2v1.32813h-2zm0 0"/></clipPath><clipPath id="t"><path d="M246 479h9v1.32813h-9zm0 0"/></clipPath><clipPath id="u"><path d="M252 479h2v1.32813h-2zm0 0"/></clipPath><clipPath id="v"><path d="M260 479h8v1.32813h-8zm0 0"/></clipPath><clipPath id="w"><path d="M266 480h1v.32813h-1zm0 0"/></clipPath><clipPath id="x"><path d="M273 479h8v1.32813h-8zm0 0"/></clipPath><clipPath id="y"><path d="M279 480h2v.32813h-2zm0 0"/></clipPath><clipPath id="z"><path d="M287 478h7v2.32813h-7zm0 0"/></clipPath><clipPath id="A"><path d="M300 479h8v1.32813h-8zm0 0"/></clipPath><clipPath id="B"><path d="M305 480h2v.32813h-2zm0 0"/></clipPath><clipPath id="C"><path d="M313 479h8v1.32813h-8zm0 0"/></clipPath><clipPath id="D"><path d="M328 477h5v3.32813h-5zm0 0"/></clipPath><clipPath id="E"><path d="M342 476h4v4.32813h-4zm0 0"/></clipPath><clipPath id="F"><path d="M356 476h2v4.32813h-2zm0 0"/></clipPath><clipPath id="G"><path d="M369 476h3v4.32813h-3zm0 0"/></clipPath><clipPath id="H"><path d="M380 478h8v2.32813h-8zm0 0"/></clipPath><clipPath id="I"><path d="M395 476h4v4.32813h-4zm0 0"/></clipPath><clipPath id="J"><path d="M409 476h3v4.32813h-3zm0 0"/></clipPath><clipPath id="K"><path d="M420 478h8v2.32813h-8zm0 0"/></clipPath><clipPath id="L"><path d="M425 480h2v.32813h-2zm0 0"/></clipPath><clipPath id="M"><path d="M433 479h8v1.32813h-8zm0 0"/></clipPath><clipPath id="N"><path d="M439 480h2v.32813h-2zm0 0"/></clipPath><clipPath id="O"><path d="M446 478h8v2.32813h-8zm0 0"/></clipPath><clipPath id="P"><path d="M452 480h2v.32813h-2zm0 0"/></clipPath><clipPath id="Q"><path d="M460 477h7v3.32813h-7zm0 0"/></clipPath><clipPath id="R"><path d="M144 465h4v4h-4zm0 0"/></clipPath><clipPath id="S"><path d="M144 453h4v2h-4zm0 0"/></clipPath><clipPath id="T"><path d="M144 439h4v2h-4zm0 0"/></clipPath><clipPath id="U"><path d="M144 426h4v2h-4zm0 0"/></clipPath><clipPath id="V"><path d="M144 413h4v2h-4zm0 0"/></clipPath><clipPath id="W"><path d="M144 399h4v3h-4zm0 0"/></clipPath><clipPath id="X"><path d="M144 385h4v4h-4zm0 0"/></clipPath><clipPath id="Y"><path d="M144 371h4v5h-4zm0 0"/></clipPath><clipPath id="Z"><path d="M144 358h4v5h-4zm0 0"/></clipPath><clipPath id="aa"><path d="M466 360h2v4h-2zm0 0"/></clipPath><clipPath id="ab"><path d="M144 345h4v5h-4zm0 0"/></clipPath><clipPath id="ac"><path d="M466 345h2v4h-2zm0 0"/></clipPath><clipPath id="ad"><path d="M144 332h4v4h-4zm0 0"/></clipPath><clipPath id="ae"><path d="M466 332h2v2h-2zm0 0"/></clipPath><clipPath id="af"><path d="M465 332h3v3h-3zm0 0"/></clipPath><clipPath id="ag"><path d="M144 319h4v3h-4zm0 0"/></clipPath><clipPath id="ah"><path d="M466 318h2v2h-2zm0 0"/></clipPath><clipPath id="ai"><path d="M465 318h3v3h-3zm0 0"/></clipPath><g id="aj" clip-path="url(#clip1)"><path fill="#fff" fill-opacity="0" fill-rule="evenodd" d="M0 0h1000v1000H0zm0 0"/><path fill="#d3d3d3" fill-opacity="0" fill-rule="evenodd" d="M162.15234 355.86719l-.23437.29297.0586.23437.11718.17188.17578.23437.29297.34766.11328.0586.11719-.17188.0586-.23438.17577-.17578.46485-.17578h.69922l.23437.29297.28906.8164.0586.17579.17578.23046.35156.23438.69922.69922.17188.17578.23437.34765.23438.41016.28906.58203.41015.46485.23047.23437.23438.17578.11719.23047.17578.29297.17187 1.16406v.23438l.0586.28906.05859.11719.11719.11719.34765.41015.11719.17188.17578.17578.17578.23437.11719.17188.17188.35156.05859.23438.23437.40625.23438-.0586-.17578.17578-.0586.92969h-.58203l-.23437-.11328-.34766.11328-.11719.11719-.05859.29297-.0586.17578-.11718.17187-.46484.29297-.0586.23438-.0586.11328v.64453l.0586.17187v.41016l.0586.0586v.40624l.05859.40625.11719.17579.05859.05859.23047.64062-.0586.29297v.69922l-.05859.58203v.23438l-.0586.23047-.05468.35156v1.92187l.05469.1172h.42578l-.36719.11718-.02344.35156.89063 1.16797 1.74219.53906 1.33984.35938v.53906l.08984.8086.53516.71484 1.51953.26953.89063-.08594.08984 1.16406.53516.1797 1.16015-.1797 2.05469-.98437 1.16016-.36328 1.8789-.17578 1.69531-.1797-.17968.71876-1.51563.08594-1.25.08984-.80469.26953-1.07421.8086.26953.71875.53515.89843-.17968.625-.26563.8086.26563 1.07812.625.89844.80468.17969 1.25-.1797-.26562.72267.09766.5039.05468.29297v.17188l.0586.29296v.40625l.17578.1172.35156.11718h.40625l.29297-.17578.11328-.11719.0586-.11719.11718-.23047.0586-.17578.35156-.46484.23047-.17578.17578-.0586.17578.0586.0586.17578.11718.98828.05469.46875.0586.17188.11718.23437.17578.0586.8164.05859h.28907l.11719.23437.05859.40625.0586.35156v1.10547l.11718.29297.11719.34766.28906.69922.17578.35156.58203.7539.35157.17579.17187.0586.46875.23437.64063.46484.34765.23438.29297.17578.29297.05468.23047.0625.8164.34766.29297.17578.11328.17188.35157.35156.11719.17578.52343.64063v.28906l.0586.35156v.34766l.05859.35156.0586.28906.11718.0586.17188.05859h.17578l.58203.23437.17578.1172.17578.28905.17578.23438.11328.23437.29297.23047.11719.11719v.41016l.0586.05468.28906.23438.23437.11719.0586.11718.11718.17188.0586.11719.23047.23437.05859.17578.23437.0586.1172.05859-.1172.11328-.05859.11719v.11719l-.11719.29296-.11719.28907v.58203l.17579.11719.11718.05859.0586.11719.11719.11719.11328.05859.17578.34765.0586.35157.05858.40625v.17578l-.05859.17578-.11719.69922v.17187l.1172.17579.29296.29296h.40625l.17578.1172.11719.17187.11719.29296v.23438h-.52735l-.23047-.23438h-.23437l-.17578.0586-.0586.69922.0586.34765.11719.17579.17578.41015.11718.23047.28907.46875.17578.05469h.52344l.23437.0586.75781.64062.0586.29296v.23438l.05859.0586.23047.34765v.35156l-.11719.17188v.29297l.29297.28906.29297.17578.17187.0586.29297.17577.29297.1172.58203.40624.28906.23438.29297.17578.21875.16015.01563.01172.23047.17579.64062.52343.17578.23438.1172.17578.17577.17578.11328.17188v.64062l.1172.17578.46874.11719.58203.11719.23438.05859.23047.11328.29297.11719.11328.0586.58593.35156.28907.17187.17578.0625.17578.05469.17578.0586.69922.35155.28906.17579.23438.05468.28906.17578.23437.1172.64063.40624.29297.11719.17187.0586.23438.05859.41015.05859.23047.0586.23438.11718.0586.17188-.41017.17578.46875.0586.0586.29296.11328.23438.17578.05468.23438.0586.17578.05859.40625.11719.64062.23437.11719.17188.0586.23437v.17578l-.0586.1172-.0586.40624.23438.23438.11719.05859.34766.11719.64062.23047.17578.11718.28906.1172.17578.17577.23438.46485.58203 1.10546.17578.17579.34766.17578.17578.11719.35156.11718 1.04688.52344.23437.0586.46485.11327.29297.0586.46484.17578.75781.58203.23438.23438.34765.46484.17578.17578.28907.23438.8164.69921.29297.17579.28906.28906.29297.17578.29297.28906.69531.64063.17578.17578.29297.23437.28907.23438.46875.28906.64062.58203.34766.23438.23437.29297.34766.34765.35156.46485.9336.99218.34765.40625.11719.17579.23437.05859.11328.11719.64454.17578.23047.11328.23437.0586.29297.17577.23047.1172.9336.69921.40624.40625.23438.17578.40625.17578.23437.11719.8164.34766.34766.23437.23438.11719.29297.28906.23047.11719.7578.35156.35157.17188.23047.05859.29297.11719.23437.0586.8711.17577h.8164l.46875.23047.17188.0586.875.69921.46484.1172.29297.05858.17578.0586.23047.0586.46875.05859.34766.05859.35156.0586.40625.05859h.29297l.17187.0586v.23046l.17578.17578h.29297l.34766.0586.35156.05859.69922.11719h.64063l.46484-.23438.29297-.17578.17187-.11719.41016-.17187.28906-.17578.9336-.46485.46875-.29297.52343-.29296.46485-.17188.46484-.17578 1.05078-.46485.28906-.11718.41016-.11719.28906-.11719.52735-.17578 1.51562-.69922.58203-.34765.28907-.0586.29297-.0586.34765-.11718.875-.23047.35156-.11719h.11329l.23437-.05859.875-.23437.23438-.0586h.8125l.35156-.0586.8164-.11718.17188-.0586.35156-.05468.29297-.0586.23047-.05859.8164-.17578.17579-.0586h.34765l.23438-.05859.46484-.11718.75781-.17188.23438-.0586h.34765l.41016-.11718.28906-.0586 1.28516-.05859h.28906l.41016-.0586.23047-.05858h.17578l.875-.1172h.40625l.41015-.11718h.34766l.35156-.11328.8711-.0586h1.75l1.04687.28907.41016.11719.28906.11718.35156.11719.28907.11719 1.05078.17187.28906.0586h.29297l.29297.05859.17187.0586.41016.05859.17187.0586.1172.05858h.11718l.11719.0586.35156.0586h.11328l.41016.0664 1.92187.39453 1.92578.39453 1.51953.44922 1.69532.71875 2.14453.80469 1.60547-.71875 1.42968-.80469 1.16016-1.07813 1.25-.44921 3.03516-.71875 1.875-.35938 2.14453-1.34765 2.23437-1.25391 2.5-1.25781 1.69531-.44922 1.78516-.17969 1.16016-.26953.625.53906 1.33984-.26953.71485-.98828.98437-1.34375.44531-.17969.80469-.35937 1.875-.53907 1.78516-.44921 1.25-.26954 1.16015-.08984 1.69922-.08984 1.96094-.26954 1.25-.08984h.53906l.625-.08984h.89063l2.14453-.17969 2.41015-.17969 2.58985-.08984 1.69531.17969 1.60938.08984 1.42968.35938 1.16016.71875 1.875.98828 1.16015 1.52734.26563.71484.6289.08985.35548.89844.53515.53906.53516 1.52734 1.07422.35938h.53515l-.80469.53515.08985 1.70703.71484 2.69532.89063.80468.89453.98829.71484 1.2578 1.78516.53907 1.51953-.17969.35547 1.34375 1.60937-.80469.98047-.53906.26953.26953.31641-.21484.21875-.14453.80078.44922.44922-.35938h.35547l.53515-.26953.53907-.71875.53515-.26953.625-.98828 1.16016.44922.83984.3711 1.39454.61718 1.6953-.17969h1.60548l1.78515.08985.17969-1.70704.53516-1.34375.80468.26954.4922.84765.40233.40625-.08984.53906v.35938l.71485.44922.71093-.26953h1.42969l.35938.98828.4453 1.25781.71485 1.34375 1.25.6289 1.69531.62891.71485-.17969.17969-.53906.98046-.08984.44922.35937.08594 1.25782-.26563.6289-.53515.17969v.53906l.71484.98438.26563.53906.98437.98828.80078 1.07813-.26562.35937-.08985.89844-.625 2.33203-.35546 2.0664-.08985 1.79298-.17969.71875-.08984.53906v1.4375l-.98047 1.88281-.35937 1.70703-.53516.89844-.80469 1.16797-.26562.53906 2.05469 1.2539.08593.35938-.35546.53906-.08985-.17968v.80859l.08985 1.4375-.44532.71484-1.07422.09375-.26562.71485.53515.89844.8047.71875 1.16015.80859 1.33984.26953.44531.35938-.35546.44921-1.78907-.08984-1.25-.44922-.71484-.71875-.625-.08984-.17578 3.58984-.1875 1.3086h89.35937V311.70313h-55.26953v49.08203l.76172.125 3.28906.54296 2.02344 2.83594v2.7539l2.35156.33204 2.34766.33203h4.05078l-1.3789 4.16016-2.02344.70703-2.02344.70312-.54297.34375-2.59375 1.6172-.1875.11718-2.02344-2.07813-.73046-2.74218-2.67188-2.07813-1.375-3.5-.0664-.08203-1.95704-2.67188 2.75-1.41796v-49.08204H294.42187v91.41407l.1172.03125.1328.01172.07422.07421.10547.04688.08985.0586.08593.05859.08985.0586.29687.29687.0586.08984.03125.11719.02734.11719.01563.13671-.03125.1172-.0586.08983-.0586.08594-.04296.10547-.04688.10156-.02734.1211v.14453l.17578.26953.14844.14844.07422.08594.07422.07421.04296.10547.0625.08985.0586.08593.04297.10547.0586.08985.04687.10156.04296.10547.0586.08594.11719.17968.07421.07422.0625.08594.0586.08984.04297.10547.0586.08985.05858.08593.0625.08985.0586.08984.04297.10156.11719.17969.07421.07422.0586.08594.07422.07421.08984.0586.10547.04687h.14844l.1328-.01562.13282.01562.10156-.04687.07422-.07422.04688-.10156-.01563-.13281v-.14844l-.04687-.10547-.02735-.11719-.04687-.10156-.02735-.1211-.04296-.10156-.0625-.08984-.04297-.10156-.04297-.10547-.03125-.11719-.01563-.13281-.01171-.13672.08593-.0586.0586-.08593.12109-.03125.04297.10547.01562.1328v.1172l.0586.10156.0586.08984.08983.0586.14844.14843.0586.08985.04296.10547-.01171.10156.08593.0586.10547.04687.08594.0586.08984.05858.07422.07422-.11719.02735-.10546.04687-.08594.0586-.07422.07421-.0586.08985-.0625.08594-.02734.12109-.04687.10156-.04297.10547-.03125.11719-.01172.13281-.01563.13281v.14844l.02735.11719.04687.10547.04297.10156.0586.08984.07421.07422.08985.0586.07422.07421.08984.0586.0586.08984.04296.10547.04688.10156.11719.03125.1328.01563h.14845l.11718-.03125.10547.04297.04297.10547.04688.10156.02734.1211L299.5 410l.02734.11719.03125.1211.02735.11718.10547.04297.10156.04687.13281-.01562.14844.14844.0625.08593.07422.07422.07031.07422.08984.0625.10547.04297.10156.04297.1172.03125.13671.01562.11719-.03125.07422-.07422.02734-.11718-.01172-.13282-.03125-.12109-.02734-.11719.04297-.10547h.11719l.08984.0625.11719.02735h.14843l.13282.01562h.14843l.13282.01563.1328-.01563h.14845l.1328-.01562.13282-.01172.13672.01172.11719-.02735.13281-.01562.1914-.0586-.05859.17579-.01562.1328-.02735.1211-.01562.13281-.0586.08594-.1328.01563-.10548.04687-.10546.04297-.1172.03125-.11718.02735-.26563.03125h-.14843l-.13281.01562-.07422.07422.05859.08594.14844.14843.11719.1797.07421.0703.08985.0625.08984.0586.08594.0586.08984.05858.10156.04297.10547.0625.10547.04297.08594.0586.10547.04687.10156.04297.17969.11719.0586.08984-.04298.10156-.04687.10547.01562.13281.22266.22266.0586.08985.04296.10156.03125.1211.04297.10155.01563.13282.03125.11718.01171.13672.03125.11719.14844.14844.10156.04297.10547.04296.1172.03125.1328.01563.13672.01563h.11719l.11719-.03125.08984-.0586.04297-.10547.04688-.10156.04296-.10547.03125-.11719.01172-.1328v-.14845l-.01172-.1328-.01562-.13282-.03125-.11719-.04297-.10547-.04688-.10547-.04296-.10156-.04297-.10547-.01563-.13281.01563-.13281.02734-.11719.03125-.11719.02735-.1211.04687-.10155.08984-.0586.08594-.0625.07422-.07422.08984-.05859.22266-.22266.0586-.08593.07421-.07422.11719-.17969.0586-.08594v-.14844l-.07423-.07421-.10156-.04688-.10547-.04297-.10156-.04297-.0586-.08984-.04687-.10547-.02734-.11719.08984-.05859.11719-.03125.10156-.04297.17969-.11719.14844-.14843.01172-.13282-.01172-.10546-.08985-.0586-.1328.01563h-.14845l-.1328.01562-.13282-.01562-.1211-.03125-.08593-.0586-.07422-.07422-.0586-.08984-.0625-.08594-.11718-.17969-.0586-.08593.03125-.1211.08594-.05859.1211-.03125.05859-.08594v-.1211l-.03125-.11718-.0586-.08984-.05859-.08594-.04687-.10547-.02735-.11719-.01562-.1328.0586-.08985.07421-.07422.08984-.0586.1172-.17968.07421-.07422.0586-.08594.14843-.14844.1211-.03125.1328-.01562.13282.01562.07422.07422.04297.10547.01562.13281-.03125.1172-.11719.03124-.1328.01172-.14844.14844-.04297.10547-.04688.10156-.02734.1211-.03125.11718v.14844l.03125.11719.04297.10546.05859.08985.07422.07031.07422.07422.11719.03125.12109.02734.11719-.02734.1328-.01563h.1172l.08984.0586.07422.07422.04687.10546.0586.08594.10156.04688.13281.01562.10547.04297.08594.0586-.01172.10546-.07422.07422-.17969.11719-.05859.08984-.08984.0586-.07032.07422-.07421.07421-.0625.08985-.02735.11719-.01562.1328.01562.13282-.01562.13281v.14844l.01562.13281.02735.1172.03125.12108.07421.07422.08985.0586.08594.0586.08984.05858.11719.03125v.08594l-.10157.04688-.08984.0586-.26563.03124-.11718.02735h-.14844l-.10547.04296-.10156.04688-.0586.08984-.0625.23438-.01171.13281-.03125.1211-.01563.1328v.29298l-.01172.1328.01172.13673.01563.1328.1328.01563.13282.01172.1211.03125.08593.0586.07422.07421.04688.10547.04296.10157.01563.1328v.44532l-.01563.13281v.44532l.03125.26562.02735.11719.01562.13281.03125.11719.08594.21094.03125.26562v.14844l-.03125.11719-.02734.11718-.03125.1211-.02735.11719-.03125.11718-.03125.1211-.01171.1328-.01563.13282.08984.0586.1172-.03125.10155.01562.04688.10547-.03125.26562v.44141l-.04297.10547-.04688.10547-.04296.10156-.04297.10547-.0586.08594-.03125.12109-.04296.11719-.03125.11719-.01563.1328.01563.13282.05859.08984.10547.04688.08594.0586.05859.08593-.01172.13672-.03125.11719-.04297.10156v.44531l-.01562.13281v.14844l-.03125.11719-.04297.10547-.02735.11719-.04687.10546-.04297.10157-.03125.12109-.02734.11719-.03125.13281-.03125.11719-.02735.11719-.04297.10546-.03125.1172-.03125.12108-.01171.13282-.01563.13281v.29688l.02734.11718v.14844l.04688.39844.02734.11719.0586.08984.12109.03125h.14844l.13281-.01563.0586.08985v.11719l-.0586.08984-.08984.0586-.10157.04296-.10546.04688-.08985.05859-.08594.0586-.13671.01562-.1172-.03125-.1328-.01563-.10157.04688-.0625.08594-.01172.13671-.01562.13282-.03125.11719-.02735.11718-.01562.13281-.03125.1211v.29687l.01563.13282.03125.11718v.14844l.01171.13281v.14844l-.02734.11719-.04688.10156-.02734.1211-.03125.11718-.0586.08985-.07421.07421-.10156.04297-.10547.04688-.11719.02734-.1211.03125-.10156-.04687.0586-.08594.10547-.04688.02734-.11718.03125-.11719.02734-.1211.03125-.11718v-.14844l.01563-.13281-.03125-.11719-.04297-.10547-.10547.01563-.07422.07422-.10156.04296-.08984.0625-.07422.07422-.04297.10157-.01563.1328-.03125.1172L304.25 426l-.03125.11719-.02734.11719-.03125.12109-.02735.11719-.03125.11718-.04297.10547-.08984.0586h-.08984l-.1172-.03125-.03124-.08594.01562-.13672-.03125-.11719v-.14844l-.01171-.1328v-.14844l-.0625-.23438-.02735-.1211-.04297-.10156-.04687-.10546-.0586-.08594-.05859-.08985-.04297-.10546-.0625-.08594-.14844-.14844-.0703-.07422-.10548-.04687-.10547-.04297-.10156-.04297-.29687-.29688-.08985-.07421-.08594-.0586-.10546-.04297-.08985-.0625-.08594-.0586-.10546-.04296-.08985-.0586-.08594-.0625-.07421-.0703-.10547-.04688-.08594-.0586-.10547-.04296-.08984-.0625-.10156-.04297-.10547-.04297-.08594-.0586-.10547-.04687-.10547-.04297-.10156-.04687-.08985-.0586-.10156-.04297-.10547-.04296-.08984-.0625-.11719-.02735-.13281-.01562-.13281.01562H299.75l-.13281.01563-.11719-.03125-.08984-.0586-.07422-.07422-.08985-.05859-.10156-.04688h-.14844l-.12109-.02734-.10156-.04297-.07422-.07422-.11719-.17968-.08984-.0586-.10156-.04297-.08985-.0625-.10547-.04296-.08984-.0586-.08594-.0586-.10547-.04687-.0586-.08594-.05858-.08984-.04297-.10547-.04688-.10156-.07422-.07422-.08594-.0586-.07421-.07421-.08985-.0586-.22265-.22265-.04297-.10547-.03125-.26563.10547-.04296h.14453l.10547.04296.07421.07422.08985.0586.08594.0586.10546.04687.08985.05859.14844.14844.0703.07422.14845.14843.0625.08594.07421.07422.08594.0586.07422.07421.08985.0625.08984.0586.08594.05859.26953.17578.10156.04688.10547.04296.10156.04297.04688-.07421.05859-.08594.07422-.07422.07031-.07422.10547.04297.07422.07422.0586.08984.04296.10156.04688.10547.04296.10547.1211.02735.11719-.02735.07421-.08984.04297-.10547.0586-.08985.07422-.07421.10546-.04297.1172-.02735.1328.01172.08985.0586.14844.14843.05859.08985.04297.10547.04687.10156.04297.10547.04297.10156.10547.04688.10547.04296.13281.01563.08594-.0586.0586-.08984.07421-.07422.10547-.04297.11719.02735.10547.04687.10156.04297.10547.04297.10156.04688.17969.11718v.11719l-.01563.13281.01563.13281.01562.13672.0586.08594.10156.04688.1211.02734.11718.03125h.14844l.11719-.03125.05859-.08984.17969-.1172.05859-.08983.07422-.07422.0586-.08594.11718-.17969.17969-.11719.11719.03125.08984.0586.04297.07422-.01563.1328v.1172l.08985.05859h.14843l.13282-.01563.1328-.01171.26563-.03125.10547-.04297.11719-.03125.1211-.02735.07421-.07421.07031-.07422.0625-.08985-.01562-.10547-.04688-.10156-.10156-.04297-.10547-.01562-.11718.02734-.26563.03125h-.14844l-.07421-.07422-.08985-.0586-.11719-.03124-.11718-.02735-.13282-.01562h-.14843l-.13282.01563h-.29687l-.10547-.04688-.14844-.14844-.04297-.10156-.05859-.08984.22266-.22266.08593-.0586.10547-.04296.11719-.03125.13281-.01563.13281.01563.13672.01562.10157.04297.1328-.01172.08985-.0625.10156-.04297.0625-.08984-.04687-.10156-.08984-.0586-.1172-.03125-.10155-.04296-.0586-.08985-.0625-.08984v-.11719l.01563-.13281.10547-.04688.07421-.07031v-.1211l-.08984-.05859-.03125-.11719.08985-.05859.07421-.07422.04297-.10547.0586-.08984.04687-.10156.01563-.13281v-.14844l-.04688-.10547-.04297-.10156-.08984-.0586-.13281-.01562-.10157-.04297-.13671-.01563-.1172-.03125h-.4453l-.13282-.01562-.13281-.01172-.13281-.01563-.11719-.03125h-.14844l-.13281-.01562-.13281-.01172-.26563-.03125-.1211-.04297-.08593-.0586-.07422-.07421v-.14844l.01172-.13281.10547-.04688.10156-.04296.13281-.01563h.15235l.13281-.01562h.29297l.1211.03125.10156.04296.08984.0586.23438.0625.12109-.04688.08984-.05859.10156-.04297.13282-.01562.10547.04296.10156.04688.13281.01172.1211-.02735h.14453l.12109-.03125.11719-.02734.10547-.04687.07421-.07422.08594-.0586.14844-.14843.0586-.08594.04687-.10547.02734-.11719.01563-.10547-.10156-.04296-.08985-.0586-.11719-.03125-.10546-.04297-.08985-.0625-.07422-.08594-.07422-.07421-.10156-.04297-.10547-.04688-.10156-.04297-.0586-.08984-.04687-.10156-.08594-.21094-.0625-.08594-.05859-.08984-.07422-.07422-.08594-.0586h-.26953l-.11719.03126-.08984.05859-.10156.04297-.13281.01562-.10547-.01562-.02735-.11719-.0625-.08984-.11718-.03125-.10157-.04297-.14843-.14844-.03125-.11719-.01563-.10546.07422-.07422.17969-.1172.11719-.02733.11718-.03125.13672.01562.10156.04297.10547.04297.10156.04687.10547.04297.1172.03125.1328.01563.1172.02734.1328.01563.10547-.01563.08985-.0586-.07422-.07421-.10547-.04297-.07422-.07422-.07422-.08984-.14844-.14844-.08593-.0586-.08985-.05859-.07422-.07422-.08984-.0586-.10156-.04687-.1211-.02734-.10156-.04688-.10547-.04296-.11719-.03125-.10156-.04297-.1211-.03125h-.14843l-.11719.03125-.10546.04297-.08594.0625-.17969.11718-.08594.0586-.08984.0586-.10547.04687-.08594.05859-.10547.04297-.10156.04297-.10547.04687-.07422.07422-.05859.08985-.0586.08593-.04687.10547-.0586.08594-.07421.07422-.13281-.01172-.1172-.03125h-.11718l-.07422.07422-.08984.0586-.07422.07421-.08984.0586-.08594.05859-.10547.04687-.10156.04297-.13672.01563-.10156-.04297-.14844-.14844-.10547-.04688h-.08594l-.10547.04688-.10156.04297-.1211.03125-.11718-.03125-.07422-.07422v-.11719l.03125-.1211.07422-.0703.0586-.08985.07421-.07422.11719-.03125.10547-.04296h.29297l.13281-.01563.13672-.01563.10156-.04296.08985-.0586.10156-.04687.08984-.0586.13281-.01171.08985.05859.13281.01172.08984-.0586.08594-.05859.10547-.04297.08984-.0586.08594-.0625.08985-.05859.14843-.14843.0586-.08594.05859-.08985.10547-.04296.13281-.01563.11719.02735.1211.03125.05859-.0586.05859-.08984.03125-.26563.02734-.11719.10547.01172.13281.01563.10157-.04297.08984-.0586.0586-.08984.07421-.07422.0586-.08984.04687-.10156.01172-.13281-.01172-.13282-.04687-.10547-.14844-.14843-.0586-.08985-.05859-.08594-.04297-.10546v-.44532l.01563-.1328v-.14845l.01172-.1328-.0586-.0586-.08984.0586-.10156-.04298-.17969-.11719-.08594-.05859-.0625-.08984-.0586-.08985-.07421-.07421-.08594-.0586-.1211.03125-.10155.01172-.10547.04688-.08594.05859-.10547.04297-.14844.14844-.08984.05859-.08594.0586-.08984.0625-.10547.04296-.13281.01563v-.1211l.10547-.04297.11718-.03125.07422-.0703.04297-.10548v-.14844l-.02734-.11718-.14844-.14844-.13281-.01563h-.14844l-.11719.03125-.10547.04297-.10156.04297-.08984.0625-.11719.02735-.07422-.07422.01172-.13281-.04297-.10157-.04297-.10547-.08984-.05859-.11719.02734-.1211.03125-.11718.03125-.10156.04297-.1211.03125-.10156.04297-.10547.04297-.08984.0586-.10156.01562v-.11719l.01562-.13281-.0586-.08985-.07421.04297-.14844.14844-.0586.08985-.07421.07421-.04688.10547-.04296.10156-.07422.07422-.0586.08985-.07422.07422-.05859.08593-.07422.07422-.08984.0625-.07422.07031-.07422.07422-.10156.01563-.13281.01562-.10547-.04296v-.1211l.14843-.14844.04297-.10156.0586-.08984.04687-.10156.04297-.10547.0586-.08985.03124-.11719.04297-.10156.03125-.1211.02735-.11718.04687-.10547.04297-.10156.04297-.10547.07422-.07031.08984-.0625.08985-.0586.10156-.04296h.29687l.26563-.03125.10547-.04297-.07422-.07422-.11719-.03125-.10547-.04297-.08984-.0586-.10156-.04687-.08985-.0586-.10156-.04296-.10547-.04297-.08984-.0625-.08594-.0586-.10547-.04296-.10156-.04297-.1211-.03125-.11718-.03125-.10157-.04297L297.5 410.25l-.10156-.04297-.08985-.0586-.04296-.10546-.01563-.13281.10156-.04297.13281-.01563.13672.01563.13282-.01563.10156-.04297.0586-.08984.01562-.10547-.08985-.0586-.07421-.07421-.10157-.04297-.08984-.0586-.14844-.14843-.04297-.10547-.01562-.13281v-.29297l-.0586-.08985-.08984-.05859-.07422-.07422-.04297-.10547-.03125-.11718-.0586-.08985-.07421-.07422-.11719-.02734-.07422-.07422-.08984-.0586-.08984-.0625-.08594-.05859-.07422-.07421-.0586-.08594-.04687-.10547-.08594-.0586-.14843-.14843-.19532-.0586-.1328.01563-.10157.04297-.07422.07422-.04688.10156-.04296.10547-.0586.08984-.0586.08594-.29687.29687-.08984.0586h-.08594l-.0625-.08594-.04297-.10547.03125-.11719.0586-.08984.02734-.11719-.01172-.13281-.08984-.0625-.10547.04688-.11719.02734-.11719.03125-.26953.17578-.10156.04688-.11719.02734-.10546.04687-.08985.0586-.10156.04297-.0586-.08594-.04687-.10547.01563-.13281.04687-.10547.07031-.07422.07422-.07031.0586-.08985v-.14843l-.04297-.10547h-.23829l-.10156.04687-.03125.11719-.02734.11719-.03125.1211-.07422.04296-.13281.01563-.07422-.04688-.04297-.10156-.04297-.10547-.04687-.10156-.04297-.10547-.1211.03125-.10156.04297-.13281.01562-.11719.03125-.10547.04297-.08984.0586-.10156.04687-.1211.02734-.13281.01563-.10156-.04297-.0586-.08985-.04687-.10546-.04297-.10157-.04297-.10546v-.1172l.0586-.08984.08593-.05859.17969-.11719.10156-.04687.10547-.04297.10547-.0586.10156-.04296.08985-.0625.10156-.04297.10547-.0586.10156-.04687.08984-.0586.10547-.04296.10156-.04297.08985-.0625.10156-.04297.13672-.01563.11719.03125.10156.04297.1211.03125.10156.04297.10546.04688.10157.04296.10547.04297.10156.04688.10547.04297.10156.04297.10547.04687.08594.0586.10546.04296.1172.03125.10546.04297.10156.04688.08985.0586.10547.04296.10156.04297.10547.04687.11719.02735.10156.04687.1211.02735h.14843l.08594-.0586.01562-.10156.0586-.08984-.02735-.1172-.07422-.07421-.11719-.17969-.07421-.07422-.08985-.07421-.17969-.1172-.08593-.05859-.10547-.04296-.10156-.04688-.26954-.17578-.05859-.08985-.07422-.07421-.0586-.08985-.04296-.10156-.03125-.11719-.01563-.13672v-.5625l-.01171-.1328-.01563-.13282-.03125-.11719-.01562-.13281-.01172-.13281-.03125-.1211-.22266-.22265-.0586-.08594-.01562-.10547.03125-.11719.13281-.01562v-91.41406H172.9922v1.45312l-.0586.23438-.35156 1.05078-.17187.52343-.1172.34766-.17577.41016-.11719.17187-.23438.29297-.23046.0586h-.35157l-.11718.05859-.23047.40625v.29297l.11719.17578.23046.23047.1172.23437.64062.75781.29297.46485.17578.23437.23047.35156.23437.34766.64063.8164.17578.46485.17187.41016.11719.69531.17578.46875.11719 1.39844.0586.46484v.875l.11718 1.04688v4.78125l-.0586.46484-.35156 1.28125-.17578.52344-.11328.41015-.35156.9297L172.93359 336l-.23437.58203-.11719.17578-.17187.34766-.17578.40625-.35157.8164-.0586.29297-.11327.29297-.11719.28906-.0586.17579-.11718.875-.0586.40625-.05859.11718-.0586.17579-.05859.17187-.23047.52734-.11718.17188v.23437l-.11719.23438-.0586.17187-.17577.58594v.28906l-.0586.17579v.29296l-.0586.11329-.05859.52734v.17187l-.05468.23438v2.6211l-.17578.8164-.1172.17578-.17577.23438-.1172.17187-.11327.23438-.58594.93359-.23047.28906-.29297.46485-.17578.23437-.28906.35156-.35156.69922-.11328.23047-.17579.41016-.17578.23046-.40625.52735-.8164.69922-.29297.17187-.28906.23438-.17579.11719-.17578.17578-.52344.40625-.52734.17578-.17187.17578-.23438.05469-.64062.17578h-.75782m12.21094 31.02344l-1.07422.44921.35938.89454 1.25-.71485.44531-.53906-.98047-.08985"/><path fill="#d3d3d3" fill-opacity="0" fill-rule="evenodd" d="M201.50781 416.59766h-.89453l.44922.6289.98047.35938.80469-.08985.4453-.98828-.17577.08985-.71485-.35547-.89453.35547m154.6211 59.0703l-.0586-.52343v-.29297l.11328-.29297.0586-.23046.46875-.46875h.11328l.11719-.11329.11718-.05859h.17579l.23437-.0586h.34766l.23437.0586.11719.0586.23047.17187.0586.17578.11718.58203v.29297l-.11719.17578-.17187.28906-.17579.17579-.52734.52343-.23047.23438-.11719.0586h-.17578l-.11718-.0586-.40625-.29297-.17579-.11719-.11718-.0586-.0586-.11327-.05468-.1172m6.64062-10.95702l-.0586-.17188v-1.10937l.0586-.17188.17578-.0586.17188-.05858h.17578l.23437-.0586.1172.0586.05858.69921-.05859.17188-.11719.17578-.11718.0586-.23438.52343-.11328.0586h-.23438l-.05859-.1172m9.61328-14.39062l-.11719-.17578v-.69922l.29297-.875.1172-.17187.17577-.35156.11328-.23047.1172-.29297.35155-.75781.1172-.23047.17187-.23438h.17578l.11719-.0586h.64062l.11719.0586.23437.23438.17188.11328.35156.29297.11719.11718.11328.17579v.11328l.11719.05859.11718.11719v.69922l-.05859.17578v.23047l-.0586.17578-.34765 1.05078-.11719.23047-.11719.23437-.11718.0586-.23047.23437-.64063.28906h-.875l-.41015-.11718-.64063-.46485"/><path fill="none" stroke="#bebebe" stroke-linecap="round" stroke-linejoin="round" stroke-miterlimit="10" stroke-width=".5" d="M467.95703 311.69531H144.02734v168.625h323.9297v-168.625"/><g clip-path="url(#a)"><path fill="#fff" fill-opacity="0" fill-rule="evenodd" d="M144 475.89063v4.4375h.0039H144V311.67188h.0039H144v164.21875"/></g><g clip-path="url(#b)"><path fill="#fff" fill-opacity="0" fill-rule="evenodd" d="M144.0039 480.32813V311.67188h17.75V444.6953l-.09374.125-3.07032 4.4414-.73437 4.4375.84766 4.4375 3.05078 3.3711 4.4375-1.55078 4.4375-1.03906 4.4375 1.79687 1.62109-2.57812-1.6211-1.58985-3.45702-2.84765-.98047-1.0039-1.85547-3.4336-2.58203-2.41406-4.3047-2.02735-.1328-.125V311.67187h48.8203v90.08985l-3.42187 3.11328-.55078 4.4414-.46484.9961-3.5 3.4414 1.9961 4.4375-1.91016 4.4375 2.08203 4.44141 1.33203 1.38281 4.4375-.23828 1.23828-1.14453-1.23828-1.17578-1.05078-3.26562-1.21875-4.4375 2.26953-2.34375.61719 2.34375 3.82422 4.36718 4.4375.03907v.08984l-2.37891 4.38281 2.3789 2.23047 4.4375-2.09375 2.60547 4.30078 1.83203 1.40625 2.0586 3.03125 2.3789 2.45313 4.44141-.03125.91797 2.01562 3.51953 3.375 4.4375.01953 3.26953-3.39453-.20703-4.4375-3.0625-3.1914-4.4375-.40625-4.4375 1.01171-4.4414-.93359-1.75391-.91797-2.6836-2.53125-4.18359-1.90625-.2539-.19922-4.4375-4.18359v-.08984L223.5 418.1914l-.21094-4.4375-3.83594-3.76563-.71093-.67187-3.72656-3.6836-1.1875-.75781-3.25391-3.11328v-90.08985h48.82422V420.6836l-1.94531 1.94532-2.4961 1.34765-3.07031 3.09375 2.8125 4.4375.25781.30469 3.28516 4.13281 1.15625.96094.94922-.96094.60937-4.4375.69922-4.4375.11328-4.4414-2.3711-1.94532V311.67188h62.13673v103.1953l-4.4375.48829-4.44141.27734-4.4375-.01172-1.6875 2.57032-2.75 1.3203-4.4375-.58202-4.4414-.3164-4.38282-.42188-.05469-.01954-.02734.01954-4.41016 1.80468-2.32421 2.63282-2.11329.48828-4.4375-.25-4.4414.39062-4.4375 1.26563-3.26953 2.54687.26562 4.4375 3.0039 2.73828 4.4375.23047 4.44141.6211 1.04688.84765 3.39062 3.5 4.4375.0586 4.4375-.6797 2.78516-2.8789.99219-4.4375.66015-1.26562v12.65234l-2.54687 1.92578 2.54687 1.90235 2.87891-1.90235-2.8789-1.92578V430.2422l4.4414.76562 3.49219.5.94531.94922v14.20313l-2.63672 2.60156 2.63672 2.77734 2.4414-2.77734-2.4414-2.60156v-14.20313l.8711-.94922 3.08984-4.4375.47656-1.57031v32.95313l-4.4375 1.9414-.88672 2.17969.88672.6211 4.4375 1.64452 3.1875-2.26562-3.1875-4.1211V425.5l4.4375 1.42969 4.4414-2.17578 4.4375.48828 4.4375.16015 4.4375-1.64843 4.4375 2.23437 4.44141-2.6289 1.6289 3.71093 2.8086 2.6836.92578 1.7539-.20312 4.4375 3.71484 3.78906.85938.64844-.85938 4.16797-.24219.26953.2422.24219.24218-.24219 4.19531-.94922 4.4414-.48046 4.4375-.0625 3.00392-2.94532 1.43359-1.72265 3.0664-2.71485 1.3711-3.67187 4.4375.8164.14844 2.85547.52734 4.4375-.67578.94922-2.78906 3.48828-.57422 4.4414 1.07031 4.4375 2.29297 2.28126 1.85547 2.15625 2.58594 3.26172 1.28906 1.17578 3.14844 2.70703 4.4375-.46094 3.42968 2.19531 1.00781.58204.6836-.58204 3.7539-.26953 4.44141.1211 4.4375.05469 4.4375-.23438 4.4375-.29688 4.4414.05079 3.69923-3.8672.73828-.86327 4.4375-2.46094 4.4375 1.14844 2.41015-2.26172 2.02735-1.09375 4.4414-1.34766 2.26563-1.9961 2.17187-.55077 3.85938-3.88672-.03906-4.4414-3.82032-3.59376-4.4375.14844-3.1914 3.44531-1.25 1.90235-2.53125 2.53906-1.90625 1.02734-3.60938 3.41016-.82812 3.08594-.58594-3.08594-1.22266-4.4375-.76171-4.4414-1.8672-1.95313-3.21874 1.95312-1.21875.70313-4.4414-.55078-1.79688-.15235-2.64063-1.3789-4.4375-4.07813-3.08203-3.41797-1.35547-1.3125-4.4414-2.42578-4.4375 1.34766-4.4375-.125-3.9297-1.92188-.5078-.5039-4.4375-1.07422-4.44141.67969-1.53516-3.53907-2.90234-2.3125-2.15625-2.1289-2.28125-2.40625-4.4375-.38672-3.23828 2.79297-1.19922 1.04296-4.4414 1.98438-4.4375-2.60938-1.98438-.41796-2.45313-2.26172-3.89453-2.17578-.54297-.42579-2.41015.42579-2.03125.11718-4.4375 2.8047-3.87891-2.92188-.5586-.6211-4.4375-2.70312V311.67188H445.8086v123.37109l-1.02343.90234 1.02343 1.03906.95704-1.03906-.95704-.90234v-123.3711h22.1875v168.65625H144.00391"/></g><path fill="#50fcfc" fill-rule="evenodd" d="M158.70313 458.13672l-.84766-4.4375.73437-4.4375 3.07032-4.4414.09375-.125v3.30077l-.89063 1.26563-1.27734 4.4375 2.02734 4.4375.14063.15625.36328-.15625 4.07422-2.38672 1.53906-2.05078-1.53906-2.24219-2.39453-2.19531-2.04297-1.26563v-3.30078l.1328.125 4.3047 2.02735 2.58203 2.41406 1.85547 3.4336.98047 1.0039 3.45703 2.84765 1.62109 1.58985-1.6211 2.57812-4.4375-1.79687-4.4375 1.03906-4.4375 1.55078-3.05077-3.3711"/><path fill="#00e8fc" fill-rule="evenodd" d="M161.61328 458.13672l-2.02734-4.4375 1.27734-4.4375.89063-1.26563 2.04297 1.26563 2.39453 2.19531 1.53906 2.24219-1.53906 2.05078-4.07422 2.38672-.36328.15625-.14063-.15625"/><path fill="#50fcfc" fill-rule="evenodd" d="M204.63281 418.1914l-1.9961-4.4375 3.5-3.4414.46485-.9961.55078-4.4414 3.42188-3.11328v2.91797l-.21484.19531-2.85938 4.4414-1.36328 2.91407-1.54688 1.52344 1.54688 2.39453v3.82422l-1.71484 2.65625 1.71484 2.58593 1.70312-2.58593-1.70312-2.65625v-3.82422L208.5 413.7539l2.07422-.75 2.02734.75.40235 4.4375 2.01172 2.29687 4.4375-1.73047.51953-.5664 1.40625-4.4375-1.92578-1.88672-2.6797-2.55078-1.7578-1.73829-4.23438-2.70312-.20703-.19531v-2.91797l3.2539 3.11328 1.1875.75781 3.72657 3.6836.71094.67187 3.83593 3.76563.21094 4.4375-4.04688 4.40625-4.4375-.03907-3.82421-4.36718-.6172-2.34375-2.26952 2.34375 1.21875 4.4375 1.05078 3.26562 1.23828 1.17578-1.23828 1.14453-4.4375.23829-1.33203-1.38282-2.08203-4.4414 1.91015-4.4375"/><path fill="#00e8fc" fill-rule="evenodd" d="M206.13672 425.21484l-1.71484-2.58593 1.71484-2.65625 1.70312 2.65625-1.70312 2.58593m0-9.0664l-1.54688-2.39453 1.54688-1.52344L207.5 409.3164l2.85938-4.44141.21484-.19531v2.30469l-1.58203 2.33203 1.58203 1.89843 3.08984-1.89843-3.08984-2.33204v-2.30468l.20703.19531 4.23438 2.70313 1.7578 1.73828 2.6797 2.55078 1.92578 1.88672-1.40625 4.4375-.51953.5664-4.4375 1.73047-2.01172-2.29687-.40235-4.4375-2.02734-.75-2.07422.75-2.36328 2.39453"/><path fill="#00d4fc" fill-rule="evenodd" d="M210.57422 411.21484l-1.58203-1.89843 1.58203-2.33204v2.19532l-.08984.13672.08984.10937.17969-.10937-.1797-.13672v-2.19531l3.08985 2.33203-3.08984 1.89843"/><path fill="#00c4fc" fill-rule="evenodd" d="M210.57422 409.42578l-.08984-.10937.08984-.13672.17969.13672-.1797.10937"/><path fill="#50fcfc" fill-rule="evenodd" d="M219.45313 429.30078l-2.37891-2.23047 2.3789-4.38281 4.4375 4.1836.25391.19921 4.1836 1.90625 2.68359 2.53125 1.7539.91797 4.44141.9336 4.4375-1.01172v1.625l-3.46875 1.97265 1.61719 4.4375 1.85156 1.77344 4.4375-.21484 1.5-1.5586-.50781-4.4375-.99219-1.03125-4.4375-.9414v-1.625l4.4375.40625 3.0625 3.1914.20703 4.4375-3.26953 3.39453-4.4375-.01953-3.51953-3.375-.91797-2.01562-4.4414.03125-2.37891-2.45313-2.0586-3.03125-1.83203-1.40625-2.60547-4.30078-4.4375 2.09375"/><path fill="#00e8fc" fill-rule="evenodd" d="M239.79297 440.38281l-1.61719-4.4375 3.46875-1.97265 4.4375.9414.99219 1.03125.50781 4.4375-1.5 1.5586-4.4375.21484-1.85156-1.77344"/><path fill="#50fcfc" fill-rule="evenodd" d="M254.69922 431.50781l-2.8125-4.4375 3.07031-3.09375v2.07422l-1.00781 1.01953 1.00781 1.4961 1.84375-1.4961-1.84375-1.01953v-2.07422l2.4961-1.34765 1.9453-1.94532 2.3711 1.94532-.11328 4.4414-.69922 4.4375-.60937 4.4375-.94922.96094-1.15625-.96094-3.28516-4.13281-.25781-.30469"/><path fill="#00e8fc" fill-rule="evenodd" d="M254.95703 428.5664l-1.00781-1.49609 1.00781-1.01953 1.84375 1.01953-1.84375 1.4961"/><path fill="#50fcfc" fill-rule="evenodd" d="M265.26953 431.50781l-.26562-4.4375 3.26953-2.54687 4.4375-1.26563 4.4414-.39062 4.4375.25 2.11329-.48828 2.32421-2.63282 4.41016-1.80468.02734-.01954.0547.01954 4.3828.42187 4.44141.3164v1.5547l-4.4414.23046-4.4375-.05468-2.85157 1.96875-1.58594 2.16015-4.4375-.71094-4.4375-.35156-4.4414.53516-4.1875 2.8086-.25 3.40624-.14063 1.03125.14063.1289 4.4375.60548 4.4414 1.4961 2.72657 2.20702 1.71093 1.76563 4.4375.28125 4.4375-1.86719.17188-.17969 2.60547-4.4375 1.66015-3.17578 4.44141 1.80469 4.4375.47656 3.05078-3.54297 1.01563-4.4414-4.06641-.96875-4.4375-1.17579v-1.55468l4.4375.58203 2.75-1.32031 1.6875-2.57032 4.4375.01172v3.01563l-4.35547 3.98047 4.35547 2.97265 3.7461-2.97265-3.7461-3.98047v-3.01563l4.4414-.27734 4.4375-.48828v2.15234l-3.4375 1.17188 3.4375 3.625 3.29298.8125 1.14453.11328.23046-.11328-.23046-.19141-2.8086-4.2461-1.6289-1.17187v-2.15234l4.4375 2.70312.55859.6211 3.8789 2.92187 4.4375-2.80469v2.28516l-2.35937 2.03516 2.35938 1.58593 2.22656-1.58593-2.22656-2.03516v-2.28516l2.03125-.11718 2.41015-.42579.54297.42579 3.89453 2.17578 2.45313 2.26172 1.98437.41796 4.4375 2.60938 4.4414-1.98438 1.19923-1.04296 3.23828-2.79297v3.03906l-4.4375 4.1914-.0039.00391-4.4375 1-1.0625-1-3.375-2.89062-4.39844 2.89062 2.34375 4.4375-.57422 4.4375 2.6289 2.67969 2.33203 1.75781 2.10547 2.05469 4.4414-1.19531 4.4375-.16406.70704-.69532-.70703-2.27734-.1836-2.16016.1836-.77344 4.4375.7422 3.22656-4.40626.96485-4.4375-4.19141-4.17969-4.4375-.01562v-3.03906l4.4375.38672 2.28125 2.40625 2.15625 2.1289 2.90234 2.3125 1.53516 3.53906 4.4414-.67968v2.3125l-3.42187 3.70312 2.05078 4.4375-3.07031 4.3125-.09766.125-1.52344 4.4414 1.6211 3.33595.41406 1.10156 4.02735 4.3125.77343.125 3.66406 3.01172 2.81641-3.01172 1.6211-.84766.14453.84766.23437 4.4375 4.0586 3.9375 4.4375-.25781 4.4414.30468 4.4375.00782 4.4375-.4961 4.4375-.89453 4.4414-.2539 2.2461-2.34766 2.1914-2.57031 2.52344-1.8672-.17578-4.4375-2.34765-3.45312-4.4375-.92578-.20313-.0586-4.23828-3.21874-4.4375 2.05469-2.32031-3.27735-2.11719-2.04297-3.16406-2.39453-1.27344-1.35937-2.8711-3.07813-1.5703-1.10937-2.79297 1.10937-1.64454.30078-4.4375.10938-.17578-.41016-4.26171-3.51953-4.4375-.1836v-2.3125l4.4375 1.07423.5078.5039 3.9297 1.92188 4.4375.125 4.4375-1.34766 4.4414 2.42578 1.35547 1.3125 3.08203 3.41797 4.4375 4.07813 2.64063 1.3789 1.79687.15235 4.4414.55078 1.21876-.70313 3.21875-1.95312 1.86719 1.95312.76171 4.4414 1.22266 4.4375.58594 3.08595.82812-3.08594 3.60938-3.41016 1.90625-1.02734 2.53125-2.53906 1.25-1.90235 3.1914-3.44531 4.4375-.14844v1.53125l-4.4375 1.26172-.74609.80078-2.85547 4.4414-.83984 1.33985-4.4375 1.69922-1.47656 1.39844 1.47656 3.02734 4.4375-1.60547 2.67578-1.42187 1.76562-1.16406 4.4375-.51172 2.7422-2.76172-.55079-4.4414-2.1914-2.0625v-1.53126l3.8203 3.59375.03907 4.4414-3.85938 3.88673-2.17187.55078-2.26563 1.9961-4.4414 1.34765-2.02735 1.09375-2.41015 2.26172-4.4375-1.14844-4.4375 2.46094-.73828.86328-3.69922 3.86719-4.4414-.05079-4.4375.29688-4.4375.23438-4.4375-.0547-4.44142-.12109-3.7539.26954-.6836.58203-1.0078-.58204-3.4297-2.1953-4.4375.46093-3.14843-2.70703-1.28906-1.17578-2.58594-3.26172-1.85547-2.15625-2.29297-2.28125-1.07031-4.4375.57422-4.4414 2.78906-3.48829.67578-.94922-.52734-4.4375-.14844-2.85547-4.4375-.8164-1.3711 3.67187-3.0664 2.71485-1.4336 1.72265-3.0039 2.94531-4.4375.0625-4.4414.48047-4.19532.94922-.24219.24219-.24219-.24219.2422-.26953.85937-4.16797-.85938-.64844-3.71484-3.78906.20312-4.4375-.92578-1.7539-2.8086-2.6836-1.6289-3.71094-4.4414 2.62891-4.4375-2.23437-4.4375 1.64843-4.4375-.16015-4.4375-.48828-4.44141 2.17578-4.4375-1.42969-.47656 1.57031-3.08985 4.4375-.87109.94922-.94531-.94922-3.49219-.5-4.4414-.76562-.66016 1.26562-.99219 4.4375-2.78516 2.8789-4.4375.6797-4.4375-.0586-3.39062-3.5-1.04688-.84765-4.4414-.6211-4.4375-.23047-3.0039-2.73828"/><path fill="#00e8fc" fill-rule="evenodd" d="M268.27344 431.63672l-.14063-.1289.14063-1.03126.25-3.40625 4.1875-2.8086 4.4414-.53515v1.42578l-4.4414.78516-1.6914 1.13281 1.6914 2.03125 4.4414 2.36328.02735.04297 4.41015 3.67578 4.4375.23829 4.4375-2.09766 1.11329-1.8164-1.11329-1.76563-4.4375-1.16406-2.01562-1.50782-2.42188-1.39062-4.4375-.52735v-1.42578l4.4375.35156 4.4375.71094 1.58594-2.16015 2.85156-1.96875v6.3203l-.14843.08985.14843.02344.10547-.02344-.10547-.08984v-6.32031l4.4375.05468 4.44141-.23046v2.74609l-2.8789 3.83984 2.8789 1.61328 4.4375.16797 1.53516-1.78125-1.53516-2.58203-4.4375-1.25781v-2.7461l4.4375 1.17579 4.0664.96875-1.01562 4.4414-3.05078 3.54297-4.4375-.47656-4.4414-1.80469-1.66016 3.17578-2.60547 4.4375-.17188.17969-4.4375 1.86719-4.4375-.28125-1.71093-1.76563-2.72657-2.20703-4.4414-1.4961-4.4375-.60546"/><path fill="#00d4fc" fill-rule="evenodd" d="M272.71094 429.10156l-1.6914-2.03125 1.6914-1.13281 4.4414-.78516v1.4297l-2.28515.48827 2.28515 1.11719 2.38672 3.32031 2.05078 1.71094 4.4375-.59375 2.42188-1.11719-2.42188-.83594-4.4375-3.01953-1.23828-.58203-3.19922-.48828v-1.42969l4.4375.52735 2.42188 1.39062 2.01562 1.50781 4.4375 1.16407 1.11329 1.76562-1.11329 1.8164-4.4375 2.09767-4.4375-.23829-4.41015-3.67578-.02735-.04297-4.4414-2.36328"/><path fill="#00c4fc" fill-rule="evenodd" d="M277.15234 428.1875l-2.28515-1.11719 2.28515-.48828 3.19922.48828 1.23828.58203 4.4375 3.01954 2.42188.83593-2.42188 1.11719-4.4375.59375-2.05078-1.71094-2.38672-3.32031"/><path fill="#50fcfc" fill-rule="evenodd" d="M290.46484 426.98047l-.14843.08984.14843.02344.10547-.02344-.10547-.08984m4.4375 19.74219l-2.54687-1.90235 2.54687-1.92578 2.87891 1.92578-2.8789 1.90235"/><path fill="#00d4fc" fill-rule="evenodd" d="M299.34375 428.6836l-2.8789-1.61329 2.8789-3.83984v3.44531l-.29297.39453.29297.16406 4.4375-.14843.01563-.01563-.01563-.02734-4.4375-.36719v-3.44531l4.4375 1.25781 1.53516 2.58203-1.53516 1.78125-4.4375-.16797"/><path fill="#00c4fc" fill-rule="evenodd" d="M299.34375 427.23438l-.29297-.16407.29297-.39453 4.4375.36719.01563.02734-.01563.01563-4.4375.14844"/><path fill="#50fcfc" fill-rule="evenodd" d="M303.78125 452.03906l-2.63672-2.77734 2.63672-2.60156 2.4414 2.60156-2.4414 2.77734m0 11.15625l-.88672-.6211.88672-2.17968 4.4375-1.9414 3.1875 4.12109-3.1875 2.26562-4.4375-1.64453"/><path fill="#00e8fc" fill-rule="evenodd" d="M312.65625 425.60156l-4.35547-2.97265 4.35547-3.98047v2.96875l-1.10938 1.01172 1.10938.7578.95703-.7578-.95703-1.01172v-2.96875l3.7461 3.98047-3.7461 2.97265"/><path fill="#00d4fc" fill-rule="evenodd" d="M312.65625 423.38672l-1.10938-.75781 1.10938-1.01172.95703 1.01172-.95703.7578"/><path fill="#00e8fc" fill-rule="evenodd" d="M321.53516 421.8164l-3.4375-3.625 3.4375-1.17187 1.6289 1.17188 2.8086 4.24609.23046.1914-.23046.11329-1.14454-.11328-3.29296-.8125m13.3125 2.39843l-2.35938-1.58593 2.35938-2.03516 2.22656 2.03516-2.22656 1.58593m11.26171 7.29297l-2.34375-4.4375 4.39844-2.89062 3.375 2.89062 1.0625 1 4.4375-1 .0039-.0039 4.4375-4.19141 4.4375.01563v1.29296l-4.4375 1.03516-1.95702 1.85156-2.48047.95313-4.4414 2.1211-3.26954-3.07423-1.16797-1.0039-1.52344 1.0039 1.52344 3.44922.83203.98828-.83203 1.11719-.8164 3.32031.8164.83203 4.4375 3.45313 4.4414-.72656 3.20704-3.5586 1.03125-4.4375.19922-.79297 1.21875.79297 3.21875 1.375 1.00781-1.375 1.88672-4.4375-2.89453-2.88672v-1.29296l4.1914 4.17968-.96484 4.4375-3.22656 4.40625-4.4375-.74219-.1836.77344.1836 2.16016.70703 2.27734-.70703.69531-4.4375.16407-4.4414 1.19531-2.10548-2.05469-2.33203-1.75781-2.6289-2.67969.57421-4.4375"/><path fill="#00d4fc" fill-rule="evenodd" d="M348.16406 430.51953l-1.52344-3.44922 1.52344-1.0039 1.16797 1.0039 3.26953 3.07422 4.4414-2.1211v.95313l-3.93358 2.53125-.50782.45313-3.75 3.98437 3.75 3.21485 4.4414-.8125 2.16407-2.40235.91016-4.4375-3.07422-2.53125v-.95312l2.48047-.95313 1.95703-1.85156 4.4375-1.03516v1.29688l-3.78516 1.58984 3.78516 3.07031 1.59375-3.0703-1.59375-1.58985v-1.29688l2.89453 2.88672-1.88672 4.4375-1.00781 1.375-3.21875-1.375-1.21875-.79297-.19922.79297-1.03125 4.4375-3.20703 3.5586-4.4414.72656-4.4375-3.45313-.81641-.83203.8164-3.32031.83203-1.11719-.83203-.98828"/><path fill="#00c4fc" fill-rule="evenodd" d="M352.60156 439.16016l-3.75-3.21485 3.75-3.98437.50781-.45313 3.9336-2.53125v.95313l-2.44922 1.57812-1.99219 1.77735-2.5039 2.66015 2.5039 2.14453 4.4414-.90234 1.1172-1.24219.79687-4.4375-1.91406-1.57812v-.95313l3.07422 2.53125-.91016 4.4375-2.16406 2.40235-4.4414.8125"/><path fill="#00b8fc" fill-rule="evenodd" d="M352.60156 438.08984l-2.5039-2.14453 2.5039-2.66015 1.99219-1.77735 2.44922-1.57812v.95703l-.96485.6211-3.47656 3.10546-1.2539 1.33203 1.2539 1.07422 4.4414-.99219.07423-.08203.67969-4.4375-.75391-.6211v-.95702l1.91406 1.57812-.79687 4.4375-1.1172 1.24219-4.4414.90234"/><path fill="#00a8fc" fill-rule="evenodd" d="M352.60156 437.01953l-1.2539-1.07422 1.2539-1.33203v1.32422l-.0039.00781.0039.0039.02344-.0039-.02344-.00781v-1.32422l3.47656-3.10547.96485-.6211.7539.6211-.67968 4.4375-.07422.08203-4.4414.9922"/><path fill="#009800" fill-rule="evenodd" d="M352.60156 435.94922l-.0039-.0039.0039-.00782.02344.00781-.02344.0039"/><path fill="#00c4fc" fill-rule="evenodd" d="M365.91797 430.14063l-3.78516-3.07032 3.78516-1.58984v1.29297l-.70313.29687.70313.5664.29687-.5664-.29687-.29687v-1.29297l1.59375 1.58984-1.59375 3.07031"/><path fill="#00b8fc" fill-rule="evenodd" d="M365.91797 427.63672l-.70313-.5664.70313-.29688.29687.29687-.29687.5664"/><path fill="#00e8fc" fill-rule="evenodd" d="M374.79297 452.59766l-1.6211-3.33594 1.52344-4.4414.09766-.125 3.07031-4.3125-2.05078-4.4375 3.42188-3.70313v1.57422l-1.96485 2.1289 1.96485 2.98438 1.6914 1.45312-1.6914 2.59375-1.4375 1.84375-2.08204 4.4414 1.71875 4.4375 1.80079 1.92579 2.7539-1.92578 1.6836-1.80469 4.4375.53516.35156 1.26953.79297 4.4375.1953 4.4375 3.09767 3.0039 4.4375-.14062 4.4414.60938 4.4375-.07813 4.4375-.92578 4.4375-1.89063 3.51563-.57812.92578-.16406 3.76562-4.27344.61719-4.4375-4.38281-3.67188-2.55078-.76562-1.89063-1.4375-2.1836 1.4375-2.2539.9336-4.4375-.26563-2.60156-.66797-1.83594-1-2.26953-3.4414-.79297-4.4375-1.3789-1.4375-4.4375-.67188-3.89454 2.10937-.54296.90235-.53516-.90235-1.67188-4.4375-2.23046-1.84375-4.4375-.28515v-1.57422l4.4375.1836 4.26171 3.51952.17579.41016 4.4375-.10938 1.64453-.30078 2.79296-1.10937 1.57032 1.10937 2.8711 3.07813 1.27343 1.35937 3.16406 2.39453 2.11719 2.04297 2.32031 3.27735 4.4375-2.0547 4.23828 3.21876.20313.0586 4.4375.92577 2.34765 3.45313.17579 4.4375-2.52344 1.86719-2.1914 2.5703-2.2461 2.34767-4.4414.2539-4.4375.89453-4.4375.4961-4.4375-.00782-4.44142-.30468-4.4375.2578-4.05859-3.9375-.23437-4.4375-.14454-.84765-1.62109.84766-2.8164 3.01172-3.66407-3.01172-.77344-.125-4.02734-4.3125-.41406-1.10156"/><path fill="#00d4fc" fill-rule="evenodd" d="M377.4336 453.69922l-1.71876-4.4375 2.08204-4.4414 1.4375-1.84376v3.78906l-1.4297 2.4961 1.4297 3.46484 3.15234-3.46484-3.15235-2.4961v-3.78906l1.69141-2.59375-1.6914-1.45312-1.96485-2.98438 1.96485-2.1289v1.57812l-.50782.55078.50781.77344 4.27344 3.66406.16406.16406v2.59375l-2.57812 1.6797 2.57813 2.10156 2.36328-2.10157-2.36329-1.67969v-2.59375l.23047-.16406-.03125-4.4375-.19921-.16406-4.4375-.38672v-1.57812l4.4375.28515 2.23046 1.84375 1.67188 4.4375.53515.90235.54297-.90235 3.89454-2.10937v2.02734l-.15235.08203-1.74219 4.4375-2.15234 4.4414.86328 4.4375.89063 4.4375.15625 4.4375 2.13671 2.07423 4.4375-.03125 4.44141.91406 4.4375-.15625 4.4375-1.35938 2.9414-1.4414 1.4961-1.70703 4.4414-.66406 1.82423-2.06641 1.71484-4.4375-3.53906-2.96485-4.4414-1.30468-4.4375 1.89062-4.4375 1.28516-4.4375 1.00781-2.11329-4.35156-2.32813-3.03906-2.51171-1.40235-1.66016-4.4375-.26563-.08203v-2.02734l4.4375.67187 1.37891 1.4375.79297 4.4375 2.26953 3.4414 1.83594 1 2.60156.66798 4.4375.26562 2.2539-.9336 2.1836-1.4375 1.89063 1.4375 2.55078.76563 4.38281 3.67188-.61719 4.4375-3.76562 4.27344-.92578.16406-3.51563.57812-4.4375 1.89063-4.4375.92578-4.4375.07813-4.4414-.60938-4.4375.14063-3.09766-3.00391-.19531-4.4375-.79297-4.4375-.35156-1.26953-4.4375-.53516-1.6836 1.80469-2.7539 1.92578-1.80079-1.92578"/><path fill="#00c4fc" fill-rule="evenodd" d="M379.23438 452.72656l-1.4297-3.46484 1.4297-2.4961 3.15234 2.4961-3.15235 3.46484m0-16.00781l-.5078-.77344.5078-.55078 4.4375.38672.19922.16406.03125 4.4375-.23046.16406-.16407-.16406-4.27344-3.66406"/><path fill="#00e8fc" fill-rule="evenodd" d="M383.67188 443.14063l-2.57813 1.67968 2.57813 2.10156 2.36328-2.10156-2.36329-1.67969"/><path fill="#00c4fc" fill-rule="evenodd" d="M389.36328 453.69922l-.86328-4.4375 2.15234-4.4414 1.7422-4.4375.15233-.08204.26563.08203 1.66016 4.4375 2.51171 1.40235v3.17968l-4.4375.79688-2.28125 3.5.98829 4.4375.11718 4.4375 1.17579 1.14062 4.4375.08594 4.4414 1.21875 4.4375-.24219 4.4375-1.78906.84375-.41406 3.59375-4.10156 3.08594-.33594 1.35547-.08594 2.69531-4.35156-2.69531-2.25781-4.4414-1.14454-4.4375 2.14454-2.89845 1.2578-1.53906.52345-4.4375.28515-1.14062-.8086-3.30079-4.29687v-3.17968l2.32813 3.03906 2.11328 4.35156 4.4375-1.00781 4.4375-1.28516 4.4375-1.89062 4.4414 1.30469 3.53907 2.96484-1.71484 4.4375-1.82422 2.0664-4.4414.66407-1.4961 1.70703-2.9414 1.4414-4.4375 1.35938-4.4375.15625-4.44142-.91406-4.4375.03125-2.13671-2.07422-.15625-4.4375-.89063-4.4375"/><path fill="#00b8fc" fill-rule="evenodd" d="M391.2539 458.13672l-.98827-4.4375 2.28125-3.5 4.4375-.79688v1.50391l-4.4375.67578-1.37891 2.11719 1.08594 4.4375.07812 4.4375.21485.21094 4.4375.1953 4.4414 1.52345 4.4375-.32422 3.63281-1.60547.8047-2.08203 1.95702-2.35547 2.48047-1.01172 4.4414-.4375 1.85157-2.98828-1.85156-1.55078-4.4414-.98047-4.4375 2.39844-.3047.1328-4.1328 1.41017-4.4375.22265-2.29688-1.63281-2.14454-2.79297v-1.5039l3.30079 4.29687 1.14062.8086 4.4375-.28516 1.53906-.52344 2.89844-1.25781 4.4375-2.14454 4.4414 1.14454 2.69532 2.2578-2.69531 4.35157-1.35547.08594-3.08594.33594-3.59375 4.10156-.84375.41406-4.4375 1.78906-4.4375.2422-4.4414-1.21876-4.4375-.08594-1.17579-1.14062-.11718-4.4375"/><path fill="#00a8fc" fill-rule="evenodd" d="M392.2539 458.13672l-1.08593-4.4375 1.3789-2.11719 4.4375-.67578v1.50781l-4.4375.55469-.47656.73047.47656 1.89453.7461 2.54297 3.6914 3.8789.6875.5586 3.75391 1.41797 4.4375-.40625 2.28125-1.01172 1.63281-4.4375-3.91406-2.14063-4.4375.15625-3.45312-2.45312-.98829-1.28516v-1.50781l2.14454 2.79297 2.29687 1.63281 4.4375-.22265 4.13281-1.41016.3047-.13281 4.4375-2.39844v.86719l-3.03517 1.66406 3.03516 2.25 4.4414-.625 1.00391-1.625-1.0039-.84375-4.4414-.82031v-.8672l4.4414.98048 1.85156 1.55078-1.85156 2.98828-4.4414.4375-2.48048 1.01172-1.95703 2.35547-.80469 2.08203-3.6328 1.60547-4.4375.32422-4.44142-1.52344-4.4375-.19531-.21484-.21094-.07812-4.4375"/><path fill="#009800" fill-rule="evenodd" d="M392.54688 455.59375l-.47657-1.89453.47656-.73047 4.4375-.55469v1.52735l-2.64062 4.1953 2.64063 2.77735 2.05078 1.66016 2.39062.90234 4.4375-.48828.9336-.41406 1.35937-4.4375-2.29297-1.2539-4.4375.09374-4.4414-3.03515v-1.52735l.98828 1.28516 3.45312 2.45312 4.4375-.15625 3.91406 2.14063-1.6328 4.4375-2.28126 1.01172-4.4375.40625-3.7539-1.41797-.6875-.5586-3.69141-3.8789-.7461-2.54297"/><path fill="#00ac00" fill-rule="evenodd" d="M396.98438 460.91406l-2.64063-2.77734 2.64063-4.19531v1.67187l-1.58985 2.52344 1.58985 1.67187 3.41015 2.76563 1.03125.39062 3.15235-.39062 1.28515-1.88672.67188-2.55078-.67188-.36719-4.4375.03125-4.4414-2.1875v-1.67187l4.4414 3.03515 4.4375-.09375 2.29297 1.2539-1.35938 4.4375-.93359.41407-4.4375.48828-2.39062-.90234-2.05079-1.66016"/><path fill="#00c800" fill-rule="evenodd" d="M396.98438 459.8086l-1.58985-1.67188 1.58985-2.52344 4.4414 2.1875 4.4375-.03125.67188.36719-.67188 2.55078-1.28515 1.88672-3.15235.39062-1.03125-.39062-3.41015-2.76563"/><path fill="#009800" fill-rule="evenodd" d="M414.73828 455.94922l-3.03515-2.25 3.03515-1.66406v.87109l-1.44922.79297 1.44922 1.07422 4.4414-.8125.16016-.26172-.16015-.13672-4.4414-.65625v-.8711l4.4414.82032 1.0039.84375-1.0039 1.625-4.4414.625"/><path fill="#00ac00" fill-rule="evenodd" d="M414.73828 454.77344l-1.44922-1.07422 1.44922-.79297 4.4414.65625.16016.13672-.16015.26172-4.4414.8125"/><path fill="#00e8fc" fill-rule="evenodd" d="M432.49219 456.72656l-1.47656-3.02734 1.47656-1.39844 4.4375-1.69922.83984-1.33984 2.85547-4.4414.7461-.80079 4.4375-1.26172v3.35156l-3.25391 3.15235 3.2539.88281.87891-.88281-.8789-3.15235v-3.35156l2.1914 2.0625.55078 4.4414-2.74219 2.76173-4.4375.51172-1.76562 1.16406-2.67578 1.42187-4.4375 1.60547"/><path fill="#00d4fc" fill-rule="evenodd" d="M445.8086 450.14453l-3.25391-.88281 3.2539-3.15235.87891 3.15235-.8789.88281"/><path fill="#50fcfc" fill-rule="evenodd" d="M445.8086 436.98438l-1.02344-1.03907 1.02343-.90234.95704.90234-.95704 1.03906"/><g clip-path="url(#c)"><path fill="#fff" fill-opacity="0" fill-rule="evenodd" d="M467.9961 480.32813H468V311.67188h-.0039H468v168.65625h-.0039"/></g><path fill="#fff" fill-opacity="0" fill-rule="evenodd" d="M317.7461 430.05078l5.82421.42578.72266-9.9336-5.82422-.42577-.72266 9.9336"/><path fill-rule="evenodd" d="M321.82422 422.19922l.50781.03515-.45703 6.28125-.78516-.05859.32813-4.47656-1.38672-.10156.04297-.5547.5625-.02343.2539-.03515.23438-.07422.21484-.125.1875-.19922.16407-.28125.1328-.38672"/><path fill="#fff" fill-opacity="0" fill-rule="evenodd" d="M334.0586 423.6289l5.80468-.67968-1.16015-9.89063-5.80079.67579 1.15625 9.89453"/><path fill-rule="evenodd" d="M336.58984 415.14844l.50782-.0586.73046 6.25391-.78125.08984-.52343-4.45703-1.3789.16016-.0625-.55078.54687-.13281.24609-.08204.21484-.11328.1875-.16406.14844-.23047.10547-.3086.0586-.40624"/><path fill="#fff" fill-opacity="0" fill-rule="evenodd" d="M440.8086 444.76172l5.46484 2.0625 3.51562-9.32031-5.46484-2.0625-3.51563 9.3203"/><path fill-rule="evenodd" d="M446.94922 438.39063l.47656.17968-2.21875 5.89063-.73828-.27735 1.58594-4.19921-1.30078-.4922.1953-.51952.54688.13671.25782.03907.24609-.0039.23828-.0586.23828-.13672.23438-.22266.23828-.33594"/><g clip-path="url(#d)"><path fill="none" stroke="#000" stroke-linecap="round" stroke-linejoin="round" stroke-miterlimit="10" stroke-width=".5" d="M147.26172 479.02734l-6.52344 2.60547"/></g><g clip-path="url(#e)"><path fill="none" stroke="#000" stroke-linecap="round" stroke-linejoin="round" stroke-miterlimit="10" stroke-width=".5" d="M146.3125 479.40625l.9375.79297"/></g><g clip-path="url(#f)"><path fill="none" stroke="#000" stroke-linecap="round" stroke-linejoin="round" stroke-miterlimit="10" stroke-width=".5" d="M160.51172 478.8711l-6.39453 2.91406"/></g><g clip-path="url(#g)"><path fill="none" stroke="#000" stroke-linecap="round" stroke-linejoin="round" stroke-miterlimit="10" stroke-width=".5" d="M159.58203 479.29688l.97266.74609"/></g><g clip-path="url(#h)"><path fill="none" stroke="#000" stroke-linecap="round" stroke-linejoin="round" stroke-miterlimit="10" stroke-width=".5" d="M174.07422 479.6289l-6.88672 1.40235"/></g><g clip-path="url(#i)"><path fill="none" stroke="#000" stroke-linecap="round" stroke-linejoin="round" stroke-miterlimit="10" stroke-width=".5" d="M173.07031 479.83203l.78125.94531"/></g><g clip-path="url(#j)"><path fill="none" stroke="#000" stroke-linecap="round" stroke-linejoin="round" stroke-miterlimit="10" stroke-width=".5" d="M187.45703 480.38672l-7.02344-.11328"/></g><g clip-path="url(#k)"><path fill="none" stroke="#000" stroke-linecap="round" stroke-linejoin="round" stroke-miterlimit="10" stroke-width=".5" d="M186.4375 480.36719l.5586 1.09375"/></g><g clip-path="url(#l)"><path fill="none" stroke="#000" stroke-linecap="round" stroke-linejoin="round" stroke-miterlimit="10" stroke-width=".5" d="M200.71484 480.96094l-6.91015-1.26172"/></g><g clip-path="url(#m)"><path fill="none" stroke="#000" stroke-linecap="round" stroke-linejoin="round" stroke-miterlimit="10" stroke-width=".5" d="M199.71094 480.77734l.3711 1.16797"/></g><g clip-path="url(#n)"><path fill="none" stroke="#000" stroke-linecap="round" stroke-linejoin="round" stroke-miterlimit="10" stroke-width=".5" d="M214.08984 480.29297l-7.02734.07031"/></g><g clip-path="url(#o)"><path fill="none" stroke="#000" stroke-linecap="round" stroke-linejoin="round" stroke-miterlimit="10" stroke-width=".5" d="M213.0664 480.30469l.58594 1.07812"/></g><g clip-path="url(#p)"><path fill="none" stroke="#000" stroke-linecap="round" stroke-linejoin="round" stroke-miterlimit="10" stroke-width=".5" d="M227.35156 479.72266l-6.92187 1.21093"/></g><g clip-path="url(#q)"><path fill="none" stroke="#000" stroke-linecap="round" stroke-linejoin="round" stroke-miterlimit="10" stroke-width=".5" d="M226.34375 479.89844l.7539.96875"/></g><g clip-path="url(#r)"><path fill="none" stroke="#000" stroke-linecap="round" stroke-linejoin="round" stroke-miterlimit="10" stroke-width=".5" d="M240.66016 479.69531l-6.91016 1.26563"/></g><g clip-path="url(#s)"><path fill="none" stroke="#000" stroke-linecap="round" stroke-linejoin="round" stroke-miterlimit="10" stroke-width=".5" d="M239.65625 479.8789l.76172.96485"/></g><g clip-path="url(#t)"><path fill="none" stroke="#000" stroke-linecap="round" stroke-linejoin="round" stroke-miterlimit="10" stroke-width=".5" d="M254.02344 480.07813l-7.00781.5039"/></g><g clip-path="url(#u)"><path fill="none" stroke="#000" stroke-linecap="round" stroke-linejoin="round" stroke-miterlimit="10" stroke-width=".5" d="M253.0039 480.14844l.65235 1.03906"/></g><g clip-path="url(#v)"><path fill="none" stroke="#000" stroke-linecap="round" stroke-linejoin="round" stroke-miterlimit="10" stroke-width=".5" d="M267.26172 481.11328l-6.85156-1.5664"/></g><g clip-path="url(#w)"><path fill="none" stroke="#000" stroke-linecap="round" stroke-linejoin="round" stroke-miterlimit="10" stroke-width=".5" d="M266.26563 480.88281l.3203 1.1836"/></g><g clip-path="url(#x)"><path fill="none" stroke="#000" stroke-linecap="round" stroke-linejoin="round" stroke-miterlimit="10" stroke-width=".5" d="M280.61328 480.92969l-6.92578-1.20313"/></g><g clip-path="url(#y)"><path fill="none" stroke="#000" stroke-linecap="round" stroke-linejoin="round" stroke-miterlimit="10" stroke-width=".5" d="M279.60547 480.75781l.38281 1.16406"/></g><g clip-path="url(#z)"><path fill="none" stroke="#000" stroke-linecap="round" stroke-linejoin="round" stroke-miterlimit="10" stroke-width=".5" d="M293.67578 481.75781l-6.42187-2.85547"/></g><g clip-path="url(#A)"><path fill="none" stroke="#000" stroke-linecap="round" stroke-linejoin="round" stroke-miterlimit="10" stroke-width=".5" d="M307.16016 481.28906l-6.75782-1.92187"/></g><g clip-path="url(#B)"><path fill="none" stroke="#000" stroke-linecap="round" stroke-linejoin="round" stroke-miterlimit="10" stroke-width=".5" d="M306.17578 481.01172l.25781 1.19922"/></g><g clip-path="url(#C)"><path fill="none" stroke="#000" stroke-linecap="round" stroke-linejoin="round" stroke-miterlimit="10" stroke-width=".5" d="M320.60156 480.07813l-7.01172.5039"/></g><g clip-path="url(#D)"><path fill="none" stroke="#000" stroke-linecap="round" stroke-linejoin="round" stroke-miterlimit="10" stroke-width=".5" d="M332.32422 477.38281L328.5 483.27734"/></g><g clip-path="url(#E)"><path fill="none" stroke="#000" stroke-linecap="round" stroke-linejoin="round" stroke-miterlimit="10" stroke-width=".5" d="M344.85156 477l-2.25 6.65625"/></g><g clip-path="url(#F)"><path fill="none" stroke="#000" stroke-linecap="round" stroke-linejoin="round" stroke-miterlimit="10" stroke-width=".5" d="M357.0625 476.8164l-.04297 7.02735"/></g><g clip-path="url(#G)"><path fill="none" stroke="#000" stroke-linecap="round" stroke-linejoin="round" stroke-miterlimit="10" stroke-width=".5" d="M371.39844 476.97266l-2.08594 6.71093"/></g><g clip-path="url(#H)"><path fill="none" stroke="#000" stroke-linecap="round" stroke-linejoin="round" stroke-miterlimit="10" stroke-width=".5" d="M380.45313 481.73828l6.4375-2.82031"/></g><g clip-path="url(#I)"><path fill="none" stroke="#000" stroke-linecap="round" stroke-linejoin="round" stroke-miterlimit="10" stroke-width=".5" d="M395.6914 477.0625l2.58985 6.53125"/></g><g clip-path="url(#J)"><path fill="none" stroke="#000" stroke-linecap="round" stroke-linejoin="round" stroke-miterlimit="10" stroke-width=".5" d="M411.07813 483.7539l-1.5547-6.85156"/></g><g clip-path="url(#K)"><path fill="none" stroke="#000" stroke-linecap="round" stroke-linejoin="round" stroke-miterlimit="10" stroke-width=".5" d="M426.95313 481.4336l-6.67188-2.21094"/></g><g clip-path="url(#L)"><path fill="none" stroke="#000" stroke-linecap="round" stroke-linejoin="round" stroke-miterlimit="10" stroke-width=".5" d="M425.98047 481.11328l.20703 1.20703"/></g><g clip-path="url(#M)"><path fill="none" stroke="#000" stroke-linecap="round" stroke-linejoin="round" stroke-miterlimit="10" stroke-width=".5" d="M440.4375 480.54688l-7.01172-.4375"/></g><g clip-path="url(#N)"><path fill="none" stroke="#000" stroke-linecap="round" stroke-linejoin="round" stroke-miterlimit="10" stroke-width=".5" d="M439.41797 480.48438l.50781 1.11718"/></g><g clip-path="url(#O)"><path fill="none" stroke="#000" stroke-linecap="round" stroke-linejoin="round" stroke-miterlimit="10" stroke-width=".5" d="M453.5664 481.47656l-6.64062-2.29687"/></g><g clip-path="url(#P)"><path fill="none" stroke="#000" stroke-linecap="round" stroke-linejoin="round" stroke-miterlimit="10" stroke-width=".5" d="M452.60156 481.14063l.1914 1.21484"/></g><g clip-path="url(#Q)"><path fill="none" stroke="#000" stroke-linecap="round" stroke-linejoin="round" stroke-miterlimit="10" stroke-width=".5" d="M466.38281 482.42188l-5.64062-4.1875"/></g><g clip-path="url(#R)"><path fill="none" stroke="#000" stroke-linecap="round" stroke-linejoin="round" stroke-miterlimit="10" stroke-width=".5" d="M147.35938 465.98828l-6.71875 2.05078"/></g><path fill="none" stroke="#000" stroke-linecap="round" stroke-linejoin="round" stroke-miterlimit="10" stroke-width=".5" d="M147.35938 465.98828l1.73437 1.73438m11.69922-1.21485l-6.95313 1.01172m6.95313-1.01172l1.44922 1.98047m11.89453-1.24219l-7.01172-.46484m7.01172.46484l1.0039 2.23828m12.28125-1.96875l-6.95312-1.0039m6.95313 1.0039l.83203 2.3086m12.41406-1.95313l-6.8164-1.71484m6.8164 1.71484l.58984 2.38282m12.82813-3.14063l-7.02344-.19922m7.02344.19922l1.08984 2.19922m12.22656-2.23047l-7.02343-.13672m6.0039.11719l.55469 1.09375m13.75781-1.54688l-6.98047.8086m6.98047-.8086l1.39453 2.01954m11.9375-1.8047l-7.01562.37892m7.01562-.37891l1.26953 2.10156m12.05079-2l-7.02344.17578m7.02344-.17578l1.20703 2.13672m12.0625-1.46484l-6.92969-1.16797m5.91797.9961l.39062 1.16405m13.75391-.32422l-6.5664-2.5039m5.60937 2.14062l.15234 1.21485m14.05078-.6875l-6.42968-2.83203m5.49609 2.41796l.08984 1.22266m14.41016-2.80078l-6.9336 1.15234m5.92579-.98437l.7461.97265m12.77343-2.85546l-5.32813 4.58203m4.5547-3.91407l1.14452.44532m12.29297-1.70313l-4.02344 5.76172m3.4375-4.92187l1.21875.14843m12.97657-.7578l-4.61328 5.30077m3.9414-4.52734l1.19531.27734m12.6875-1.13672l-4.40625 5.47266m3.76563-4.67578l1.20312.23047m11.26563-1.73047l-1.42969 6.8789m1.22266-5.8789l1.17578-.34375m10.84766 6.20703l1.5664-6.84766m12.32813 6.9297l.41015-7.01173m-.35156 5.99219l-1.11328.51172m17.60156-1.21485l-6.05469-3.5664m5.17188 3.04687l-.05078 1.22657m14.73047-2.3711l-7.01953-.23828m6 .20313l.53906 1.10156m12.51562 1.53125l-4.45703-5.4336m16.70313 6.03125l-2.32422-6.6289m1.98828 5.66406l-.83203.90234"/><g clip-path="url(#S)"><path fill="none" stroke="#000" stroke-linecap="round" stroke-linejoin="round" stroke-miterlimit="10" stroke-width=".5" d="M147.50781 453.88672l-7.01562-.375"/></g><path fill="none" stroke="#000" stroke-linecap="round" stroke-linejoin="round" stroke-miterlimit="10" stroke-width=".5" d="M147.50781 453.88672l1.03516 2.22265m12.28516-2.3828l-7.02735-.0586m7.02734.0586l1.13282 2.17577m12.13281-1.62109l-6.92969-1.16406m6.92969 1.16406l.77734 2.32813m12.54297-2.36329l-6.9414-1.09375m6.9414 1.09375l.80469 2.32032m12.38672-1.78907l-6.6914-2.15625m6.6914 2.15625l.42969 2.41407m12.93359-2.58594l-6.78906-1.8125m5.80078 1.54687l.28125 1.19532m14.14062-1.875l-7.02343.07812m7.02343-.07812l1.17578 2.15234m12.10157-2.63672l-6.94922 1.04688m6.94922-1.04688l1.46094 1.96875m11.86328-1.89844l-6.96875.90235m6.96875-.90235l1.42187 2m11.92188-1.51953l-7.02735-.05468m7.02735.05468l1.13672 2.17578m12.17578-2.34765l-7.01953.28906m6-.25l.62109 1.0586m13.71484-.80079l-7.01953-.3086m5.9961.26563l.52734 1.10547m13.80469-.94531l-7.00782-.54297m5.98828.46485l.48829 1.125m13.80078-1.9297l-6.91797 1.22266m5.91406-1.04297l.7539.96485m12.83594-2.74219l-5.46093 4.42188m4.66797-3.78125l1.1289.48046m11.39453-2.23046l-2.29297 6.64062m1.96094-5.67578l1.21094-.1914m12.1211-.8672l-1.66016 6.82813m1.41797-5.83594l1.1914-.30078m12.6875-.59765l-2.30469 6.64062m1.96875-5.67578l1.21094-.1875m8.57422.3125l5.42969 4.46094m-4.64063-3.8125l.2422-1.20313m11.5703 3.5586l6.85547-1.54688m-5.85937 1.32031l-.79688-.92968m14.97656 3.52734l3.13672-6.28906m-2.67968 5.375l-1.22657.03125m15.94141 1.23828l-.57813-7.0039m.4922 5.98437l-1.03126.66406m15.3164.16797l-2.34765-6.625m2.0039 5.66015l-.82812.90625m12.25.09375l2.125-6.69921m-2.125 6.69921l-2.41406.44532m16.26172-.32032l1.0625-6.9453m-1.0625 6.9453l-2.3164.8125"/><g clip-path="url(#T)"><path fill="none" stroke="#000" stroke-linecap="round" stroke-linejoin="round" stroke-miterlimit="10" stroke-width=".5" d="M147.50781 440.54688l-7.01562-.32813"/></g><path fill="none" stroke="#000" stroke-linecap="round" stroke-linejoin="round" stroke-miterlimit="10" stroke-width=".5" d="M147.50781 440.54688l1.05078 2.21875M146.4883 440.5l.52343 1.10938m13.75781-.58204l-6.90625-1.28906m6.90625 1.28906l.73438 2.34375m-1.73828-2.53125l.36718 1.17188m13.72656-.24219L167.40234 439m6.45703 2.76953l.20704 2.4414m13.1953-2.67187l-6.6328-2.3125m6.6328 2.3125l.375 2.42578m13.03907-2.7539l-6.83203-1.65625m6.83203 1.65625l.60938 2.375m12.79297-3.46485l-7.00782.52735m7.00781-.52735l1.3125 2.07422m12.00391-2.04297l-7.01172.46485m7.01172-.46485l1.29297 2.08204m12.03125-1.91016l-7.02734.11719m6.0039-.10157l.59375 1.07422m13.71485-1.4961l-6.96485.9297m5.94922-.79297l.71484.9961m13.46485-1.77735L260.5 441.49219m5.69922-1.89453l.88672.84765m13.55078-.51562l-6.96875.90625m5.95312-.77344l.71094 1m13.60938-1.20312l-6.94922 1.04687m5.9375-.89453l.73047.98437m13.47656-1.64843l-6.71094 2.07422m5.73438-1.77344l.87109.86328m12.63672-2.52344l-5.14453 4.78906m4.39453-4.08984l1.16015.39844m12.22266-1.66406l-3.78125 5.92187m3.23047-5.0586l1.22266.09766m11.78125-1.35937l-2.0586 6.71875M344.45703 438l1.20313-.23047m11.03515-.88281l.6914 6.99219m-.58984-5.97266l1.01954-.6836m11.52343-.20312l2.03125 6.72656M369.63672 438l.86719-.86719m9.76953 2.35157l6.79297 1.80078m-5.8047-1.53907l-.27734-1.1953m12.58594 1.01171l6.83203 1.64063m-6.83203-1.64063l-.61328-2.375m14.07813 4.49219l6.53125-2.59375m-6.53125 2.59375l-1.8711-1.58594m2.82031 1.21094l-.93359-.79688m14.64063 2.8125l3.85156-5.875m-3.85156 5.875l-2.44532-.22265m17.2422.77343l.88671-6.97265m-.88672 6.97265l-2.29297.8672m15.5625-.875l.98047-6.95704m-.83984 5.94531l-1.15235.41797m14.2461.58203l1.14062-6.9336m-1.14062 6.9336l-2.32422.78516"/><g clip-path="url(#U)"><path fill="none" stroke="#000" stroke-linecap="round" stroke-linejoin="round" stroke-miterlimit="10" stroke-width=".5" d="M147.51172 427.0586l-7.02344.01952"/></g><path fill="none" stroke="#000" stroke-linecap="round" stroke-linejoin="round" stroke-miterlimit="10" stroke-width=".5" d="M147.51172 427.0586l1.16016 2.16406m-2.1797-2.16016l.57813 1.08203m13.75-.82031l-7.00781-.51172m7.00781.51172l.99219 2.24219m12.3086-2.09766l-6.98048-.80078m6.98047.80078l.89844 2.28516m12.4375-2.77735l-7.02344.1836m7.02344-.1836l1.20703 2.13672m12.02735-2.80469l-6.86328 1.51954m6.86328-1.51954l1.59375 1.8672m11.80468-1.12892l-7.02734.04297m6.0039-.03515l.58204 1.07812m13.42578.42578l-6.36719-2.98047m5.4414 2.54688l.0586 1.22656m14.10547-.64062l-6.21094-3.28516m5.30469 2.8086l.0039 1.22656m14.60938-2.07813l-7-.6289m5.98047.53906l.47656 1.1289m13.85938-1.64062l-7.0039.57422m5.98437-.49219l.66406 1.03125m13.6836-.91406l-7.02735.17578m6.0039-.15234l.60547 1.0703m13.55079-2.12108l-6.66407 2.23046m5.69532-1.90625l.89062.84766m12.83203-2.21875l-5.53906 4.32422m17.21094-5.48828l-2.25391 6.65234m1.92578-5.6836l1.21094-.19921m11.13281-.95313l.34375 7.01953m-.29297-5.99609l1.05469-.6289m11.67578-.32813l1.41406 6.88672m-1.20703-5.88281l.94532-.78125m12.71484-.28907l.3086 7.01953m-.26173-6l1.0547-.62109m8.90234 2.52344l6.92968 1.17578m6.83985 1.22656l6.01953-3.625m-5.14063 3.09766l-1.05468-.63281m14.46484-3.51563l4.07422 5.72266m-3.48438-4.89063l.55078-1.09765m11.19922 4.9375l6.02344-3.6211m-6.02344 3.6211l-2.10156-1.26172m16.19531 2.16406l4.46485-5.42578m-4.46485 5.42578l-2.40234-.48828m3.05469-.30078l-2.40625-.48828m15.29687 1.44921l4.01172-5.76953m-4.01172 5.76953l-2.4375-.29296m3.01953-.54688l-2.4375-.29297m16.82422 1.7461l.70313-6.9922M450 429.54688l-1.13672.46485m14.07813.51562l1.23828-6.91797m-1.23828 6.91797l-2.33594.75"/><g clip-path="url(#V)"><path fill="none" stroke="#000" stroke-linecap="round" stroke-linejoin="round" stroke-miterlimit="10" stroke-width=".5" d="M147.48047 413.27734l-6.96094.94922"/></g><path fill="none" stroke="#000" stroke-linecap="round" stroke-linejoin="round" stroke-miterlimit="10" stroke-width=".5" d="M147.48047 413.27734l1.4336 1.9922m11.89843-1.84767l-6.9961.66407m6.9961-.66406l1.35156 2.05078m11.96485-2.0586l-6.9961.67969m6.9961-.67969l1.35547 2.04297m11.97265-1.57812l-7.02344-.25m7.02344.25l1.07422 2.20703m12.05078-3.48047l-6.64453 2.29687m5.67578-1.96093l.89844.83593m12.96094 1.96094l-5.79688-3.97265m4.95313 3.39453l-.13672 1.21875m11.6875.875l-.57813-7.00391m.49219 5.98438l-1.03125.66406m13.57422.32031l1.14062-6.9336m-1.14062 6.9336l-2.32813.78516m18.58203-1.66016l-4.74218-5.1836m4.05469 4.4297l-.41016 1.15624m15.41406-2.0078l-6.7461-1.96876m5.76563 1.67969l.25 1.20312m13.91016-.53125l-6.47266-2.73437m5.53125 2.33594l.10938 1.22265m14.41797-2.41406l-7.01172.44531m5.99219-.3789l.64062 1.04297m12.24219-3.73438l-4.11328 5.69531m3.51562-4.86718l1.21485.16796m14.0703 1.08594l-6.85546 1.53125m13.39844.3086l6.6914-2.14844m-5.71875 1.83594l-.8789-.85547m15.45703-3.2422l2.21484 6.66798m-1.89062-5.69531l.84375-.89063m13.0703-.2539l.3711 7.01562m-.3164-5.9961l1.05078-.6328m11.72656-.32813l1.33594 6.89844m-1.14063-5.89454l.95313-.77343m9.70312 1.6289l6.26563 3.17969m-6.26563-3.17969l-.05078-2.45312m13.72656 1.88281l5.54297 4.32031m-5.54297-4.32031l.42579-2.41797m.3828 3.04688l.21095-1.21094m13.22265-.25l3.6875 5.98047m-3.6875-5.98047l1.23828-2.11719m-.70312 2.98828l1.23828-2.11718m10.14453 2.8789l6.48047 2.71875m-6.48047-2.71875l-.22266-2.4414m15.48829 7.0703l2.58203-6.53905m-2.58203 6.53906l-2.4375.27344m2.8125-1.22657l-1.21875.14063m16.10937.99219l-1.32031-6.90235m1.1289 5.89844l-.95703.76953m12.90235.17969l1.80468-6.78906m-1.54296 5.80078l-1.19532.27734"/><g clip-path="url(#W)"><path fill="none" stroke="#000" stroke-linecap="round" stroke-linejoin="round" stroke-miterlimit="10" stroke-width=".5" d="M147.32031 399.29297l-6.64062 2.28906"/></g><path fill="none" stroke="#000" stroke-linecap="round" stroke-linejoin="round" stroke-miterlimit="10" stroke-width=".5" d="M147.32031 399.29297l1.79688 1.67187m11.65234-1.17187l-6.90625 1.29297m6.90625-1.29297l1.53125 1.91406m11.67188-2.34765l-6.6875 2.16015m6.6875-2.16015l1.76172 1.70312m11.36328-2.17578l-6.3047 3.10156m5.38673-2.64844l.9961.71875m13.3203-.99218l-6.47265 2.74218m13.35547.08594l6.39453-2.91015m-5.46485 2.48437l-.97265-.7461m14.96875 2.85157l3.17187-6.26953m-2.71094 5.35547l-1.22656.02343m14.64453 1.1172l2.04297-6.72267m-1.7461 5.7422l-1.20312.23827m15 .88672l.48438-7.01172m-.41406 5.98829l-1.1172.5m15.45313.42578l-1.6953-6.82032m1.44921 5.82813l-.91406.82031m16.78906-1.70312l-6.32422-3.07032m5.40235 2.625l.04687 1.22657m13.01563.58203l-3.97266-5.79688m3.39453 4.95313l-.5664 1.08984m13.60546-6.46875l-2.26562 6.65235m1.9336-5.6836l1.21093-.19922m8.70703.1875l5.1914 4.73438m-4.4375-4.04688l.3047-1.1875m11.4453 2.01172l6.81641 1.71485m-5.82422-1.46485l-.29687-1.1914m13.76953-.89454l4.51172 5.38672m-4.51172-5.38672l.92187-2.27734m11.27344 3.9961l6.7539 1.94921m-5.76952-1.66797l-.2539-1.19921m13.33983-.44922l5.2422 4.67968m-4.47657-4l.28906-1.1914m16.67188-.17188l-3.57813 6.04688m3.57813-6.04688l2.45312.11328m-2.97265.76563l1.22265.0586m11.6914-1.31641l-1.73827 6.80859m1.73828-6.8086l2.38281-.58202m-2.63672 1.5703l1.1914-.28906m9.62891-.26562l3.76172 5.9375m-3.76172-5.9375l1.21094-2.13281m11 3.2461l5.96485 3.71483m-5.96485-3.71484l.16797-2.44922m16.84375 7.7461l-1.42578-6.88282m1.42578 6.88282l-1.89062 1.5664m1.68359-2.5664l-1.89063 1.5664m17.30079-1.64844l-5.20313-4.71875m5.20313 4.71875l-.60157 2.37891m14.41407-3.08203l-6.19532-3.3125m6.19532 3.3125l-.00782 2.45703"/><g clip-path="url(#X)"><path fill="none" stroke="#000" stroke-linecap="round" stroke-linejoin="round" stroke-miterlimit="10" stroke-width=".5" d="M147.20703 385.6914l-6.41406 2.86329"/></g><path fill="none" stroke="#000" stroke-linecap="round" stroke-linejoin="round" stroke-miterlimit="10" stroke-width=".5" d="M147.20703 385.6914l1.9375 1.50782m11.6836-.13281l-7.02735.11328m7.02734-.11328l1.1875 2.14843m-2.21093-2.1289l.59375 1.07031m12.83984-3.38672l-5.21484 4.70703m4.45703-4.02344l1.15234.41797m8.75781-1.89843l3.10938 6.30078m-2.65625-5.38281l.71875-.9961m10.27344 2.4414l6.84765 1.57423m-5.85156-1.34375l-.3164-1.1875m12.54687 1.85937l7.02344-.23047m-6 .19531l-.61328-1.0625m19.92187.71094l-7.00781.54297m5.98828-.46484l.65625 1.03515m13.6836-1.02734l-7.01954.3711m7.01953-.3711l1.26563 2.10156m-2.28906-2.04687l.6328 1.05078m13.66798-.38281l-6.94531-1.07422m6.9453 1.07422l.8086 2.3164m-1.8164-2.47265l.40234 1.15625m13.95312-1.78125l-7.0078.48828m7.0078-.48828l1.30078 2.08203m-2.3203-2.00781l.64843 1.03906m13.65234-1.42188l-6.9414 1.10547m6.9414-1.10547l1.47657 1.95703m11.58203.01563l-6.42578-2.83985m6.42578 2.83985l.17578 2.44922m13.16797-5.22266l-6.48438 2.70703m6.48438-2.70703l1.89843 1.55469m10.90235-2.41797l-5.45703 4.4336m5.45703-4.4336l2.25781.95703m10.0039-1.82812l-3.35156 6.17578m3.35157-6.17578l2.45312.01953m12.5039 1.91015l-6.6328 2.31641m6.6328-2.3164l1.80079 1.66406m-2.76563-1.32813l1.80079 1.66797m12.66796-1.10156l-7.01171.51172m7.01171-.51172l1.3047 2.07812m-2.32423-2.0039l1.3047 2.07812m12.42968-3.8711l-5.8125 3.94923m5.8125-3.94922l2.17187 1.14453m-3.01562-.57031l2.16797 1.14453m11.32031-2.45313l-4.47266 5.41797m4.47266-5.41797l2.40625.48828m-3.05469.30079l2.40235.48828m11.48828-1.33985l-4.32422 5.54297m4.32422-5.54297l2.41406.42578m-3.04297.38282l2.41406.42187m-3.04297.38281l1.20704.21094m13.73437-1.49219l-5.0586 4.87891m5.0586-4.8789l2.33203.76171m-3.07031-.05078l2.33203.75781m-3.0664-.04687l1.16406.3789m14.08593-1.20312l-5.98437 3.6836m5.98437-3.6836l2.1172 1.24219m9.90624 3.67578l-3.40234-6.15235m3.40234 6.15235l-1.33984 2.05469m.84375-2.94922l-1.33985 2.05469m16.2461-2.10938l-5.59375-4.25m5.59375 4.25l-.39063 2.42188m14.10157-3.08204l-6.38672-2.93359m6.38672 2.9336l.14453 2.44921m-1.07422-2.875l.14453 2.44922"/><g clip-path="url(#Y)"><path fill="none" stroke="#000" stroke-linecap="round" stroke-linejoin="round" stroke-miterlimit="10" stroke-width=".5" d="M147.04297 372.05469l-6.08594 3.50781"/></g><path fill="none" stroke="#000" stroke-linecap="round" stroke-linejoin="round" stroke-miterlimit="10" stroke-width=".5" d="M147.04297 372.05469l2.08203 1.30078m-2.96484-.78906l1.03906.64843m13.08203-1.28906l-5.9336 3.76563m5.9336-3.76563l2.13281 1.21094m9.57031-2.57031l-2.70703 6.48437m2.70703-6.48437l2.44532-.22657m11.52344.58594l-4.01563 5.76563m4.01563-5.76563l2.43359.28906m-3.01953.54688l1.21875.14844m13.25781-.48047l-5.16797 4.75781m5.16797-4.75781l2.3164.8125m-3.0664-.1211l1.15625.40625m13.83984 1.34766l-7.02734-.13281m7.02734.13281l1.10938 2.1875m-2.13281-2.20703l.55468 1.09375m13.77735-1.32813l-7.01563.375m7.01563-.375l1.26562 2.10157m11.71094-3.4336l-6.33984 3.03906m6.33984-3.03906l1.97266 1.45703m-2.89453-1.01562l1.97265 1.45703m12.59766-.08984l-7.0039-.58204m7.0039.58204l.96875 2.2578m-1.98828-2.33983l.96875 2.2539m13.35937-2.13281l-6.9961-.65625m6.9961.65625l.94531 2.26562m-1.96093-2.36328l.47265 1.13281m13.74219-2.32812l-6.75781 1.92578m6.75781-1.92578l1.69922 1.76953m-2.6836-1.48828l1.69922 1.76953m12.6836-1.67969l-6.92578 1.1875m6.92578-1.1875l1.5 1.94141m-2.50781-1.76953l1.5 1.9414M306.75 371.9297l-5.9375 3.75781m5.9375-3.75781l2.13281 1.21484m-2.9961-.66797l1.06642.60938m12.6953-1.6914l-5.10546 4.82812m5.10547-4.82813l2.32422.78125m-3.06641-.07812l2.32422.78125m11.58594-1.63282l-4.8086 5.125m4.8086-5.125l2.36718.64063m-3.0664.10547l2.36719.64062m12.65625.33985l-6.82813 1.67187m6.82813-1.67187l1.6328 1.83203m11.63673-1.9961l-6.73828 2m6.73828-2l1.71875 1.75m-2.69922-1.45703l1.71875 1.75m12.2461-2.8086l-6.07423 3.53126m6.07422-3.53125l2.08203 1.29297m-2.96875-.78125l2.08594 1.29297m11.57031-2.51563l-4.98828 4.94922m4.98828-4.94922l2.34375.72656m-3.0664-.0039l2.34375.72656m11.42968-1.6875l-4.45703 5.42969m4.45703-5.42969l2.40625.48438m-3.05468.30468l2.40625.48438m12.53906.00781l-6.41797 2.86328m6.41797-2.86328l1.9336 1.51172m-2.8672-1.09375l1.9336 1.50781m-2.86719-1.08984l.96485.7539m14.48046-.6953l-6.9453 1.07812m6.9453-1.07813l1.46875 1.96094m-2.48046-1.80469l1.47265 1.96485m-2.48437-1.8086l.73828.98047m14.64062-.6914l-7.02734-.125m7.02734.125l1.11328 2.18359m-2.13671-2.20313l1.11328 2.1875m13.18359-1.69531l-6.94531-1.07031m6.94531 1.07031l.8086 2.3164m-1.82032-2.47265l.40625 1.16016m12.96485.91406l-5.03125-4.90625m5.03125 4.90625l-.6875 2.35547"/><g clip-path="url(#Z)"><path fill="none" stroke="#000" stroke-linecap="round" stroke-linejoin="round" stroke-miterlimit="10" stroke-width=".5" d="M146.95313 358.58984l-5.90625 3.8086"/></g><path fill="none" stroke="#000" stroke-linecap="round" stroke-linejoin="round" stroke-miterlimit="10" stroke-width=".5" d="M146.95313 358.58984l2.14062 1.19532m-3-.64063l2.14063 1.19531m11.78515-2.08984l-5.41016 4.48438m5.41016-4.48438l2.26953.9336m-3.05469-.28126l1.13282.46875m13.55078-.11718l-6.57813 2.47656m6.57813-2.47656l1.83984 1.625m-2.79687-1.26172l1.84375 1.6211m11.64844-3.20313l-5.01563 4.91796m5.01563-4.91796l2.33984.73828m-3.07031-.02344l2.33984.74219m11.6914-1.47266l-4.98827 4.94531m4.98828-4.9453l2.34375.72655m-3.06641-.0078l2.33984.73046m12.28516-.66406l-6.16406 3.375m6.16406-3.375l2.05078 1.34765m-2.94531-.85546l2.05078 1.34765m12.25-1.66406l-6.34375 3.02344m6.34375-3.02344l1.97266 1.46094m-2.89453-1.01954l1.96875 1.46094m12.27343-1.89062l-6.35547 3m6.35547-3l1.96485 1.46875m-2.89063-1.03125l.98438.73437m13.09765-1.46484L247.5 362.28906m6.03906-3.58984l2.09766 1.27344m-2.97656-.75391l2.09765 1.27344m-2.97656-.75l1.05078.63672m14.42969-.66016l-6.85156 1.54688m6.85156-1.54688l1.60156 1.85938m-2.59766-1.63282l1.60157 1.85938m12.74219-1.9414l-6.91407 1.2578m6.91406-1.2578l1.51954 1.92577m-2.52735-1.74219l1.51953 1.92579m12.62891-2.73047l-6.5664 2.5039m6.5664-2.5039l1.84766 1.61328m-2.8047-1.25l.92579.80469m12.61328-2.33594l-5.10156 4.83594m5.10156-4.83594l2.32422.78125m-3.0664-.07422l1.16406.38672m12.62109-1.34766l-4.5586 5.34766m4.5586-5.34766l2.39844.52735m-3.0625.25l1.19922.26562m13.26953-.53125l-5.53906 4.32422m5.53906-4.32422l2.24219.9961m-3.04688-.3672l2.24219 1m-3.04688-.37109l1.11719.5m14.16016-1.21093l-6.2422 3.23046m6.2422-3.23046l2.01953 1.39453m11.64453-.33594l-6.9414 1.11328m6.9414-1.11328l1.48047 1.95703M359.5 360.09766l.74219.98046m13.4375-1.72656l-6.64844 2.28125m6.64844-2.28125l1.79297 1.67578m-2.76172-1.34375l1.79297 1.67579m-2.75782-1.34375l.89454.83593m13.82421-2.48828l-5.58984 4.25781m5.58984-4.2578l2.23047 1.02733m-3.04297-.40625l2.23047 1.02344m-3.04297-.40625l1.11329.51563m13.24609-2.35156l-4.42578 5.45703m4.42578-5.45704l2.41016.47266m-3.0547.32031l2.41016.47266m11.8672-.97266l-5.0625 4.8711m5.0625-4.8711l2.33202.76172m-3.0664-.05469l2.33203.76172m12.21484-.8164l-6.05469 3.5664m6.0547-3.5664l2.08984 1.28125m-2.97266-.76172l2.09375 1.28125m12.30078-1.41406l-6.44922 2.79296m6.44922-2.79296l1.91797 1.52734m-2.85547-1.1211l1.91797 1.52735m12.5586-1.21094l-6.89844 1.34766m6.89843-1.34766l1.54688 1.90625m-2.55078-1.71094l1.54687 1.90625m12.82813-1.18359l-7.00782-.48828"/><g clip-path="url(#aa)"><path fill="none" stroke="#000" stroke-linecap="round" stroke-linejoin="round" stroke-miterlimit="10" stroke-width=".5" d="M467.0664 360.73828l1 2.24219"/></g><path fill="none" stroke="#000" stroke-linecap="round" stroke-linejoin="round" stroke-miterlimit="10" stroke-width=".5" d="M466.04688 360.66797l1 2.23828"/><g clip-path="url(#ab)"><path fill="none" stroke="#000" stroke-linecap="round" stroke-linejoin="round" stroke-miterlimit="10" stroke-width=".5" d="M147.10156 345.52344l-6.20312 3.3086"/></g><path fill="none" stroke="#000" stroke-linecap="round" stroke-linejoin="round" stroke-miterlimit="10" stroke-width=".5" d="M147.10156 345.52344l2.03516 1.3711m-2.9375-.89063l2.03516 1.37109m11.84375-2.3711l-5.52344 4.34766m5.52344-4.34765l2.24218.99218m-3.04687-.35937l2.2461.99219m11.98437-1.47266l-5.7461 4.04297m5.7461-4.04297l2.1875 1.10938m-3.02344-.51954l2.1875 1.10938m11.28906-2.41797l-4.39844 5.48047m4.39844-5.48047l2.41016.45703m8.51562-1.22656l.38281 7.01953m-.3828-7.01953l2.09765-1.26563m-2.04297 2.28907l1.05078-.63672m13.34766-.25781l-1.89844 6.76562m1.89844-6.76563l2.39844-.52734m12.8125 1.84766l-5.6875 4.1211m5.6875-4.1211l2.20312 1.07812m11.51953-.34375l-6.5039 2.65235m6.5039-2.65235l1.88672 1.57031m11.08203-2.21875l-5.8086 3.95313m5.8086-3.95313l2.17188 1.14063m-3.01563-.5664l1.08203.5703m13.61328.1172l-6.8828 1.42577m6.8828-1.42578l1.56641 1.88672m-2.57031-1.67969l1.57031 1.88672m12.73828-2.13671l-6.86328 1.51562m6.86328-1.51563l1.58985 1.8672m-2.58985-1.64844l.79688.93359m13.20312-2.01953l-6.23437 3.2461m6.23437-3.2461l2.02344 1.39062m-2.92969-.91797l1.01172.69532m12.17188-2.375l-4.16016 5.66406m4.16016-5.66406l2.42968.35156m10.17578-.75781l-2.73828 6.47265m2.73828-6.47265l2.44532-.21485m11.9414.92578l-4.88281 5.05079m4.88281-5.05079l2.35938.6797m-3.0664.05468l1.17577.33984m13.80078.55078l-6.79296 1.80079m6.79296-1.80079l1.66797 1.80079m11.76563-.85547l-7.02735-.08985m7.02735.08985l1.125 2.17968m12.1875-2.30468l-7.02344.16015m7.02344-.16015l1.20312 2.14062m-2.22265-2.11719l1.19922 2.14063m12.8164-3.55469l-6.38281 2.9414m6.38281-2.9414l1.95313 1.48828m-2.88282-1.0586l1.95313 1.48438m-2.88281-1.05859l.97656.7461m13.82812-2.22266l-5.64453 4.1836m5.64453-4.1836l2.21485 1.0586m-3.03516-.44923l2.21485 1.0586m-3.03516-.44922l1.10547.52734m13.41406-2.23437l-4.77344 5.16015m4.77344-5.16015l2.3711.6289m-3.06641.1211l2.375.6289m-3.0664.125l1.18359.3125m13.53906-1.79687l-4.8125 5.1211m4.8125-5.1211l2.36719.64453m-3.07032.10156l2.3711.64453m-3.07032.10156l1.1836.32032m14.05078-1.19922l-5.84766 3.89844m5.84766-3.89844l2.16016 1.16406m-3.01172-.59765l2.16015 1.16406m12.34375-1.08594l-6.52343 2.60938m6.52343-2.60938l1.875 1.58203m-2.82422-1.20312l1.875 1.58203m12.46875-1.74219l-6.68359 2.16797"/><g clip-path="url(#ac)"><path fill="none" stroke="#000" stroke-linecap="round" stroke-linejoin="round" stroke-miterlimit="10" stroke-width=".5" d="M466.90234 346.09375l1.76563 1.70703"/></g><path fill="none" stroke="#000" stroke-linecap="round" stroke-linejoin="round" stroke-miterlimit="10" stroke-width=".5" d="M465.92969 346.41016l1.76562 1.70312"/><g clip-path="url(#ad)"><path fill="none" stroke="#000" stroke-linecap="round" stroke-linejoin="round" stroke-miterlimit="10" stroke-width=".5" d="M147.27734 332.59766l-6.55468 2.53125"/></g><path fill="none" stroke="#000" stroke-linecap="round" stroke-linejoin="round" stroke-miterlimit="10" stroke-width=".5" d="M147.27734 332.59766l1.85547 1.60546m-2.8086-1.23828l1.85548 1.60547m11.99219-2.7539l-5.71094 4.09375m5.71094-4.09375l2.19921 1.08984m-3.03125-.4961l2.19922 1.09376m11.10938-2.51563l-4.03906 5.75m4.03906-5.75l2.4375.30078m-3.02344.53516l1.21875.15234m12.54688-1.07812l-3.76563 5.92969m3.76563-5.9297l2.4453.1875m-2.99218.67579l1.22266.09375m13.83593.32031l-6.16015 3.375m6.16015-3.375l2.0547 1.34375m10.6289-2.17969l-4.89453 5.04297m4.89453-5.04297l2.35547.6836M225 330.53125l-2.21875 6.66406m1.89844-5.69531l1.20703-.20313m14.75781 1.84766l-6.8789 1.4375m5.8789-1.23047l.78516.94531m13.38281.79297l-6.58594-2.45312m6.58594 2.45312l.32422 2.4297M267.33203 333.5l-6.99219.72656m6.9922-.72656l1.36718 2.03516m-2.38672-1.9297L267 334.625m13.54688-1.66406l-6.79297 1.80469m6.79297-1.8047l1.66796 1.79688m-2.65625-1.53515l.83594.89843m13.33203-1.5625l-6.52344 2.60938m6.52344-2.60938l1.875 1.58204m11.61328-1.02344l-6.86718 1.49219m6.86718-1.4922l1.58594 1.875m10.95703-3.42187l-5.32422 4.58594m5.32422-4.58594l2.28516.88672m-3.0586-.22265l1.14063.4453m13.02344-1.01952l-5.47657 4.40625m5.47657-4.40625l2.2539.96484m-3.05078-.32422l2.25781.96485m12.52735-.2422l-6.82422 1.6797m6.82422-1.6797l1.63672 1.82813m-2.6289-1.58203l1.63671 1.82813m12.71875-.60938l-6.91797-1.25m6.91797 1.25l.7461 2.33594m12.36718-1.64453l-6.51562-2.63281m6.51562 2.6328l.25781 2.44141m12.20703-6.3164l-4.8164 5.11719m4.8164-5.1172l2.3672.64454m-3.06641.10156l2.36718.64453M399.02344 331l-4.07422 5.72656M399.02344 331l2.4336.3164m-3.02735.51563l1.21484.16016m12.85547-.8711l-4.39453 5.48438m4.39453-5.48438l2.41016.45704m-3.05079.33984l2.41016.45703m11.2461-1.46875l-3.80079 5.91406m3.80078-5.91406l2.44532.20313m-2.9961.65625l1.22266.10156m13.72266.13672l-5.95704 3.71875m5.95704-3.71875l2.125 1.22656m-2.9922-.6875l1.0625.61328m13.53516-.20313l-6.78906 1.82032m6.78906-1.82031l1.67188 1.79687m-2.66016-1.53125l1.67188 1.79688m12.39062-2.70313l-6.30468 3.10156"/><g clip-path="url(#ae)"><path fill="none" stroke="#000" stroke-linecap="round" stroke-linejoin="round" stroke-miterlimit="10" stroke-width=".5" d="M466.71484 332.3125l1.98829 1.4336"/></g><g clip-path="url(#af)"><path fill="none" stroke="#000" stroke-linecap="round" stroke-linejoin="round" stroke-miterlimit="10" stroke-width=".5" d="M465.79688 332.76172l1.98828 1.4375"/></g><path fill="none" stroke="#000" stroke-linecap="round" stroke-linejoin="round" stroke-miterlimit="10" stroke-width=".5" d="M464.8789 333.21484l.9961.71875"/><g clip-path="url(#ag)"><path fill="none" stroke="#000" stroke-linecap="round" stroke-linejoin="round" stroke-miterlimit="10" stroke-width=".5" d="M147.41016 319.69531l-6.82032 1.70313"/></g><path fill="none" stroke="#000" stroke-linecap="round" stroke-linejoin="round" stroke-miterlimit="10" stroke-width=".5" d="M147.41016 319.69531l1.64062 1.82422m-2.63281-1.57422l1.64062 1.82031m-2.6328-1.57421l.8203.91015m14.37891-1.73437l-6.61719 2.36328m6.61719-2.36328l1.8125 1.65234m-2.77734-1.3086l1.8125 1.65235m-2.77344-1.3086l1.8125 1.65235m13.34375-2.55469l-6.44922 2.79297m6.44922-2.79297l1.91797 1.53125m-2.85547-1.125l1.91797 1.53125m-2.85938-1.125l.96094.76563m14.35547-1.25l-6.69531 2.13672m6.6953-2.13672l1.75392 1.71094m-2.72657-1.40235l1.7539 1.71485m-2.73046-1.40235l.8789.85547m14.44923-1.2461l-6.82422 1.67188m6.82422-1.67187l1.63671 1.83203m-2.6289-1.58594l1.63281 1.82813m-2.625-1.58594l1.63281 1.82812m13.53906-2.73046l-6.5664 2.5039m6.5664-2.5039l1.84766 1.61328m-2.80469-1.25l1.84766 1.61328m-2.80078-1.25l.92187.8086m14.37891-1.31642l-6.71875 2.06641m6.71875-2.0664l1.73828 1.73046m-2.71875-1.42968l.8711.86328m13.5703-.34375l-7.01171.42578m7.01172-.42578l1.28125 2.09375m-2.30078-2.03125l.64062 1.04687m13.63672-.22656l-6.89844-1.33984m6.89844 1.33984l.71875 2.34766m-1.72266-2.54297l.71875 2.34765m13.64844-2.49609l-6.9961-.65625m6.9961.65625l.94531 2.26563m-1.96093-2.35938l.9453 2.26563m13.40235-2.42579l-7.02734-.14843m7.02734.14843l1.10547 2.19141m-2.1289-2.21094l1.10546 2.1875m13.23438-2.28125l-7.02735.08203m7.02735-.08203l1.17578 2.15235m-2.19922-2.14063l1.17578 2.15235m13.15625-2.32032l-7.01562.39453m7.01562-.39453l1.27344 2.09766m-2.29297-2.04297l1.26953 2.10156m12.59375-3.72656l-6.07422 3.53516m6.07422-3.53516l2.08594 1.29297m-2.96875-.77735l2.08594 1.29297m12.07812-1.86718l-6.0039 3.65234m6.0039-3.65234l2.10938 1.25m-2.98438-.71875l1.05469.625m13.3789-.67579l-6.49218 2.6875m6.49219-2.6875l1.89453 1.5625m-2.83985-1.17187l1.89453 1.5625m12.52344-1.47656l-6.8086 1.73437m6.8086-1.73437l1.65235 1.8164m-2.64063-1.5625l.82422.90625m13.42578-1.34375l-6.70312 2.10157m6.70312-2.10157l1.75 1.72266m10.8711-2.97266l-5.3125 4.60157m5.3125-4.60157l2.28906.88282m-3.0625-.21094l1.14453.4414m12-1.8789l-3.42578 6.13672m3.42578-6.13672l2.45312.05078m9.41016-.48828l-.51953 7.00781m.51953-7.00781l2.24219-.98828m11.875 1.14453l-2.125 6.69922m2.125-6.69922l2.41406-.4414m12.33984 6.2539l-5.0039-4.92969m18.77734.57031l-5.91797 3.78907m5.91797-3.78907l2.13672 1.20313m-3-.65235l1.07031.60157m12.94531-1.38281l-5.59375 4.25"/><g clip-path="url(#ah)"><path fill="none" stroke="#000" stroke-linecap="round" stroke-linejoin="round" stroke-miterlimit="10" stroke-width=".5" d="M466.35938 318.42188l2.22656 1.02734"/></g><g clip-path="url(#ai)"><path fill="none" stroke="#000" stroke-linecap="round" stroke-linejoin="round" stroke-miterlimit="10" stroke-width=".5" d="M465.54688 319.03906l2.22656 1.03125"/></g><path fill="#00f" fill-rule="evenodd" d="M392.67578 472.08594h8.6211V461.9414h-8.6211v10.14453"/><path fill="azure" fill-rule="evenodd" d="M394.51172 463.77344h.83203v2.82422h3.28516v-2.82422h.83203v6.48047h-.83203v-2.91797h-3.28516v2.91797h-.83203v-6.48047"/><path fill="#00f" fill-rule="evenodd" d="M419.3086 436.57813h8.61718v-10.14454h-8.61719v10.14454"/><path fill="azure" fill-rule="evenodd" d="M421.14063 428.26563h.83203v2.82421h3.28515v-2.82421h.83594v6.48046h-.83594v-2.91406h-3.28515v2.91406h-.83204v-6.48046"/><path fill="#00f" fill-rule="evenodd" d="M224.01953 418.82813h8.61719v-10.14844h-8.61719v10.14844"/><path fill="azure" fill-rule="evenodd" d="M225.85156 410.51172h.83594v2.82422h3.28516v-2.82422h.83203v6.48047h-.83203v-2.91406h-3.28516v2.91406h-.83594v-6.48047"/><path fill="#00f" fill-rule="evenodd" d="M370.48438 401.07422h8.62109v-10.14844h-8.6211v10.14844"/><path fill="azure" fill-rule="evenodd" d="M372.3164 392.76172h.83594v2.82031h3.28516v-2.82031h.83203v6.47656h-.83203v-2.91406h-3.28516v2.91406h-.83593v-6.47656"/><path fill="#ff3030" fill-rule="evenodd" d="M424.4414 401.07422h7.69141v-10.14844h-7.6914v10.14844"/><path fill="azure" fill-rule="evenodd" d="M426.27344 392.76172h.83203V398.5h3.19531v.73828h-4.02734v-6.47656"/><path fill="#ff3030" fill-rule="evenodd" d="M335.67188 387.75781h7.6953v-10.14453h-7.6953v10.14453"/><path fill="azure" fill-rule="evenodd" d="M337.5039 379.44531h.83594v5.73828h3.19141v.7422h-4.02734v-6.48048"/><path fill="#ff3030" fill-rule="evenodd" d="M193.64453 365.5664h7.69531v-10.14452h-7.6953v10.14453"/><path fill="azure" fill-rule="evenodd" d="M195.47656 357.2539h.83594v5.73829h3.1914v.74219h-4.02734v-6.48047"/><path fill="#ffffe0" fill-rule="evenodd" d="M412.98438 454.5664h22.17968v-10.1953h-22.17969v10.1953"/><path fill-rule="evenodd" d="M416.48438 446.20703h.5078V452.5h-.78515v-4.48828h-1.39062v-.55469l.5625-.0664.25-.0547.23046-.08984.20313-.14062.17578-.21094.14063-.29297.10546-.39453m4.8125 0l.23047.01563.21875.05859.20704.08984.19921.1211.1836.14844.17187.17578.30078.41796.2422.4961.17968.54297.11328.58203.03906.58984-.03906.59375-.11328.58203-.17969.5547-.24219.5039-.30078.42578-.17187.17969-.1836.15625-.19921.12109-.20704.09375-.21875.05469-.23046.01953-.22657-.01953-.21875-.05469-.21094-.09375-.1953-.1211-.1836-.15624-.17188-.1797-.30078-.42577-.2461-.5039-.17968-.5547-.10937-.58203-.03907-.59375h.83204l.03125.5625.08203.50781.125.44141.16406.375.1875.30078.21094.22266.22265.13672.22656.04687.22657-.04687.22265-.13672.21094-.22266.1914-.30078.16407-.375.125-.4414.08203-.50782.02735-.5625-.02735-.5625-.08203-.5-.125-.4336-.16406-.36718-.1914-.29297-.21095-.21484-.22265-.1289-.22656-.04688-.22657.04687-.22265.1289-.21094.21485-.1875.29297-.16406.36719-.125.4336-.08204.5-.03125.5625h-.83203l.03907-.58985.10937-.58203.17969-.54297.2461-.4961.30077-.41796.17188-.17579.1836-.14843.1953-.1211.21094-.08984.21875-.0586.22656-.01562m5.09375 0h.50782V452.5h-.78516v-4.48828h-1.39062v-.55469l.55859-.0664.2539-.0547.23048-.08984.20312-.14062.17188-.21094.14453-.29297.10546-.39453m2.82422 2.17188H430l.01953-.3125.0586-.28907.10156-.25.13672-.21875.18359-.17187.22266-.1289.26562-.08204.3086-.02734.23828.02344.22265.0625.20313.10156.17969.13672.14843.17578.11328.20312.07032.23828.02734.26172-.02344.26953-.0664.22657-.10938.1914-.15625.17188-.19922.16015-.2461.16797-.6328.38672-.53907.3125-.4375.32031-.34765.32422-.26172.33594-.1914.34766-.125.37109-.07032.39453-.01953.41797h4.21094v-.74219h-3.33204l.08204-.28125.11328-.23828.14844-.19922.1875-.1836.23046-.16796.28125-.17578.71485-.41797.41797-.20703.34375-.23047.28125-.25.21875-.26563.16406-.28125.11328-.28125.0625-.28515.01953-.28125-.04297-.38281-.11719-.34766-.1914-.3086-.25-.26562-.30078-.21094-.34766-.16015-.3789-.09766-.40625-.03125-.4375.03125-.39844.09766-.35156.16797-.3047.23437-.25.30469-.18359.375-.11718.44531-.03907.51563"/><path fill="#ffffe0" fill-rule="evenodd" d="M328.42969 355.91406h22.17969v-10.19531h-22.1797v10.19531"/><path fill-rule="evenodd" d="M331.92969 347.55469h.50781v6.29297h-.78516v-4.48829h-1.39062v-.55468l.5586-.0664.2539-.0547.23047-.08984.20312-.14063.17188-.21093.14453-.29297.10547-.39453m4.8125 0l.23047.01562.21875.0586.20703.08984.19531.1211.1836.14843.17187.17578.30469.41797.24218.4961.1797.54296.10937.58204.03906.58984-.03906.59375-.10938.58203-.17969.55469-.24218.5039-.3047.42579-.17187.17968-.18359.15625-.19531.1211-.20703.09375-.21875.05468-.23047.01954-.23047-.01954-.21875-.05468-.20703-.09375-.19531-.1211-.1836-.15625-.17187-.17969-.3047-.42578-.24218-.5039-.17969-.55469-.10937-.58203-.03906-.59375h.83203l.02734.5625.08203.50781.1289.4414.16017.375.1914.30079.21094.22265.22265.13672.22657.04688.22656-.04688.22266-.13671.21093-.22266.19141-.30078.16016-.375.1289-.4414.07813-.50782.03125-.5625-.03125-.5625-.07813-.5-.1289-.4336-.16016-.36718-.1914-.29297-.21094-.21485-.22266-.1289-.22656-.04688-.22656.04688-.22266.1289-.21094.21485-.1914.29297-.16016.36719-.1289.43359-.08204.5-.02734.5625h-.83203l.03906-.58985.10937-.58203.1797-.54296.24218-.4961.30469-.41797.17187-.17578.1836-.14844.1953-.12109.20704-.08984.21875-.0586.23047-.01562m5.08984 0h.51172v6.29297h-.78906v-4.48829h-1.38672v-.55468l.5586-.0664.2539-.0547.22656-.08984.20313-.14063.17578-.21093.14062-.29297.10547-.39453m2.82422 2.17187h.78906l.01953-.3125.0586-.28906.09765-.25.14063-.21875.17969-.17188.22656-.1289.26172-.08203.3086-.02735.23827.02344.22266.0625.20703.10156.17969.13672.14844.17578.11328.20313.0703.23828.02345.26172-.01954.26953-.0664.22656-.10938.1914-.15625.17188-.19921.16016-.25.16797-.63282.38672-.53515.3125-.4375.32031-.34766.32422-.26563.33594-.1875.34765-.125.3711-.0703.39453-.01954.41797h4.21094v-.7422h-3.33203l.08203-.28124.11328-.23828.14844-.19922.1875-.1836.23047-.16796.27734-.17579.71875-.41796.41406-.20704.34766-.23046.28125-.25.21875-.26563.16406-.28125.10938-.28125.0664-.28515.01953-.28125-.04296-.38282-.1211-.34765-.1875-.3086-.25-.26562-.30469-.21094-.34375-.16016-.3828-.09765-.40626-.03125-.4336.03125-.39843.09765-.35547.16797-.30469.23438-.24609.30469-.1875.375-.11719.4453-.03906.51563"/><path fill="#ffffe0" fill-rule="evenodd" d="M204.15625 338.78906h22.17969v-10.1914h-22.17969v10.1914"/><path fill-rule="evenodd" d="M207.65234 330.42969h.51172v6.29297h-.78906v-4.48829h-1.38672v-.55468l.5586-.0664.2539-.0547.23047-.08984.20313-.14063.17187-.21093.14063-.29297.10546-.39453m4.81641 0l.23047.01953.21875.05469.20703.08984.19531.1211.1836.14843.17187.17578.30078.41797.2461.4961.17968.54687.10938.57813.03906.58984-.03906.59375-.10938.58594-.17968.55078-.2461.5039-.30078.4297-.17187.17968-.1836.15234-.19531.1211-.20703.09375-.21875.05468-.23047.01954-.23047-.01954-.21875-.05468-.20703-.09375-.19531-.1211-.1875-.15234-.16797-.17969-.30469-.42969-.24219-.5039-.17968-.55078-.11328-.58594-.03516-.59375h.83203l.02734.5625.08203.50781.125.4414.16407.375.1914.30079.21094.22265.22266.13672.22656.04688.22656-.04688.22266-.13671.21094-.22266.1914-.30078.16016-.375.125-.4414.08203-.50782.03125-.5625-.03125-.5586-.08203-.5039-.125-.4336-.16016-.36718-.1914-.29297-.21094-.21094-.22266-.13281-.22656-.04297-.22656.04297-.22266.13281-.21094.21094-.1914.29297-.16406.36719-.125.43359-.08204.5039-.02734.5586h-.83203l.03516-.58985.11328-.57812.17968-.54688.2422-.49609.30468-.41797.16797-.17578.1875-.14844.19531-.12109.20703-.08984.21875-.0547.23047-.01952m5.08984 0h.51172v6.29297h-.78906v-4.48829h-1.38672v-.55468l.5586-.0664.2539-.0547.22656-.08984.20313-.14063.17578-.21093.14063-.29297.10546-.39453m2.82422 2.17578h.78516l.01953-.3164L221.25 332l.09766-.25.14062-.21484.17969-.17579.22266-.1289.26562-.07813.3086-.02734.23827.01953.22266.0625.20703.10156.17578.13672.15235.17578.10937.20313.07422.23828.02344.26563-.01953.26562-.0664.22656-.10938.1914-.15625.17188-.19922.16016-.25.16797-.63281.38672-.53907.3164-.4375.31641-.34375.32422-.26562.33594-.1914.35156-.125.36719-.06642.39453-.02343.41797h4.21484v-.73829H221.125l.08203-.28515.11328-.23828.14844-.19922.1875-.17969.23047-.17187.27734-.17579.71875-.41796.41406-.20313.34766-.23437.27734-.25.22266-.26563.16406-.27734.10938-.28516.0625-.28515.02344-.28125-.04297-.38282-.1211-.34765-.1875-.3086-.25-.26172-.30468-.21484-.34375-.15625-.38282-.10156-.40625-.03125-.43359.03125-.39844.09765-.35547.16797-.30468.23438-.25.30469-.1836.375-.11719.4453-.03906.51954"/></g></defs><use xlink:href="#aj"/></svg>