<svg xmlns="http://www.w3.org/2000/svg" role="img" xmlns:xlink="http://www.w3.org/1999/xlink" viewBox="142.45 309.95 326.84 171.84"><defs><clipPath id="a"><path d="M144 311.67188h1v168.65625h-1zm0 0"/></clipPath><clipPath id="b"><path d="M144 311.67188h324v168.65625H144zm0 0"/></clipPath><clipPath id="c"><path d="M467 311.67188h1v168.65625h-1zm0 0"/></clipPath><clipPath id="d"><path d="M144 478h4v2.32813h-4zm0 0"/></clipPath><clipPath id="e"><path d="M145 478h3v2.32813h-3zm0 0"/></clipPath><clipPath id="f"><path d="M154 478h7v2.32813h-7zm0 0"/></clipPath><clipPath id="g"><path d="M166 479h9v1.32813h-9zm0 0"/></clipPath><clipPath id="h"><path d="M172 479h3v1.32813h-3zm0 0"/></clipPath><clipPath id="i"><path d="M180 479h8v1.32813h-8zm0 0"/></clipPath><clipPath id="j"><path d="M186 479h2v1.32813h-2zm0 0"/></clipPath><clipPath id="k"><path d="M193 479h9v1.32813h-9zm0 0"/></clipPath><clipPath id="l"><path d="M200 480h3v.32813h-3zm0 0"/></clipPath><clipPath id="m"><path d="M206 479h9v1.32813h-9zm0 0"/></clipPath><clipPath id="n"><path d="M212 479h3v1.32813h-3zm0 0"/></clipPath><clipPath id="o"><path d="M220 478h8v2.32813h-8zm0 0"/></clipPath><clipPath id="p"><path d="M225 479h3v1.32813h-3zm0 0"/></clipPath><clipPath id="q"><path d="M233 479h8v1.32813h-8zm0 0"/></clipPath><clipPath id="r"><path d="M239 479h2v1.32813h-2zm0 0"/></clipPath><clipPath id="s"><path d="M246 479h9v1.32813h-9zm0 0"/></clipPath><clipPath id="t"><path d="M252 479h2v1.32813h-2zm0 0"/></clipPath><clipPath id="u"><path d="M260 479h8v1.32813h-8zm0 0"/></clipPath><clipPath id="v"><path d="M266 480h1v.32813h-1zm0 0"/></clipPath><clipPath id="w"><path d="M273 479h8v1.32813h-8zm0 0"/></clipPath><clipPath id="x"><path d="M279 480h2v.32813h-2zm0 0"/></clipPath><clipPath id="y"><path d="M286 478h8v2.32813h-8zm0 0"/></clipPath><clipPath id="z"><path d="M300 479h8v1.32813h-8zm0 0"/></clipPath><clipPath id="A"><path d="M305 480h2v.32813h-2zm0 0"/></clipPath><clipPath id="B"><path d="M313 478h8v2.32813h-8zm0 0"/></clipPath><clipPath id="C"><path d="M328 477h5v3.32813h-5zm0 0"/></clipPath><clipPath id="D"><path d="M341 476h5v4.32813h-5zm0 0"/></clipPath><clipPath id="E"><path d="M355 477h4v3.32813h-4zm0 0"/></clipPath><clipPath id="F"><path d="M369 476h3v4.32813h-3zm0 0"/></clipPath><clipPath id="G"><path d="M379 479h9v1.32813h-9zm0 0"/></clipPath><clipPath id="H"><path d="M396 476h2v4.32813h-2zm0 0"/></clipPath><clipPath id="I"><path d="M409 476h2v4.32813h-2zm0 0"/></clipPath><clipPath id="J"><path d="M421 477h6v3.32813h-6zm0 0"/></clipPath><clipPath id="K"><path d="M433 478h8v2.32813h-8zm0 0"/></clipPath><clipPath id="L"><path d="M446 478h8v2.32813h-8zm0 0"/></clipPath><clipPath id="M"><path d="M460 478h7v2.32813h-7zm0 0"/></clipPath><clipPath id="N"><path d="M144 465h4v4h-4zm0 0"/></clipPath><clipPath id="O"><path d="M144 453h4v2h-4zm0 0"/></clipPath><clipPath id="P"><path d="M144 440h4v1h-4zm0 0"/></clipPath><clipPath id="Q"><path d="M144 426h4v2h-4zm0 0"/></clipPath><clipPath id="R"><path d="M144 413h4v2h-4zm0 0"/></clipPath><clipPath id="S"><path d="M144 399h4v3h-4zm0 0"/></clipPath><clipPath id="T"><path d="M144 385h4v4h-4zm0 0"/></clipPath><clipPath id="U"><path d="M144 371h3v6h-3zm0 0"/></clipPath><clipPath id="V"><path d="M144 357h3v6h-3zm0 0"/></clipPath><clipPath id="W"><path d="M144 344h4v6h-4zm0 0"/></clipPath><clipPath id="X"><path d="M466 346h2v3h-2zm0 0"/></clipPath><clipPath id="Y"><path d="M144 331h4v6h-4zm0 0"/></clipPath><clipPath id="Z"><path d="M466 331h2v3h-2zm0 0"/></clipPath><clipPath id="aa"><path d="M465 332h3v3h-3zm0 0"/></clipPath><clipPath id="ab"><path d="M144 318h4v5h-4zm0 0"/></clipPath><clipPath id="ac"><path d="M466 318h2v2h-2zm0 0"/></clipPath><clipPath id="ad"><path d="M465 318h3v3h-3zm0 0"/></clipPath><g id="ae" clip-path="url(#clip1)"><path fill="#fff" fill-opacity="0" fill-rule="evenodd" d="M0 0h1000v1000H0zm0 0"/><path fill="#d3d3d3" fill-opacity="0" fill-rule="evenodd" d="M162.15234 355.86719l-.23437.29297.0586.23437.11718.17188.17578.23437.29297.34766.11328.0586.11719-.17188.0586-.23438.17577-.17578.46485-.17578h.69922l.23437.29297.28906.8164.0586.17579.17578.23046.35156.23438.69922.69922.17188.17578.23437.34765.23438.41016.28906.58203.41015.46485.23047.23437.23438.17578.11719.23047.17578.29297.17187 1.16406v.23438l.0586.28906.05859.11719.11719.11719.34765.41015.11719.17188.17578.17578.17578.23437.11719.17188.17188.35156.05859.23438.23437.40625.23438-.0586-.17578.17578-.0586.92969h-.58203l-.23437-.11328-.34766.11328-.11719.11719-.05859.29297-.0586.17578-.11718.17187-.46484.29297-.0586.23438-.0586.11328v.64453l.0586.17187v.41016l.0586.0586v.40624l.05859.40625.11719.17579.05859.05859.23047.64062-.0586.29297v.69922l-.05859.58203v.23438l-.0586.23047-.05468.35156v1.92187l.05469.1172h.42578l-.36719.11718-.02344.35156.89063 1.16797 1.74219.53906 1.33984.35938v.53906l.08984.8086.53516.71484 1.51953.26953.89063-.08594.08984 1.16406.53516.1797 1.16015-.1797 2.05469-.98437 1.16016-.36328 1.8789-.17578 1.69531-.1797-.17968.71876-1.51563.08594-1.25.08984-.80469.26953-1.07421.8086.26953.71875.53515.89843-.17968.625-.26563.8086.26563 1.07812.625.89844.80468.17969 1.25-.1797-.26562.72267.09766.5039.05468.29297v.17188l.0586.29296v.40625l.17578.1172.35156.11718h.40625l.29297-.17578.11328-.11719.0586-.11719.11718-.23047.0586-.17578.35156-.46484.23047-.17578.17578-.0586.17578.0586.0586.17578.11718.98828.05469.46875.0586.17188.11718.23437.17578.0586.8164.05859h.28907l.11719.23437.05859.40625.0586.35156v1.10547l.11718.29297.11719.34766.28906.69922.17578.35156.58203.7539.35157.17579.17187.0586.46875.23437.64063.46484.34765.23438.29297.17578.29297.05468.23047.0625.8164.34766.29297.17578.11328.17188.35157.35156.11719.17578.52343.64063v.28906l.0586.35156v.34766l.05859.35156.0586.28906.11718.0586.17188.05859h.17578l.58203.23437.17578.1172.17578.28905.17578.23438.11328.23437.29297.23047.11719.11719v.41016l.0586.05468.28906.23438.23437.11719.0586.11718.11718.17188.0586.11719.23047.23437.05859.17578.23437.0586.1172.05859-.1172.11328-.05859.11719v.11719l-.11719.29296-.11719.28907v.58203l.17579.11719.11718.05859.0586.11719.11719.11719.11328.05859.17578.34765.0586.35157.05858.40625v.17578l-.05859.17578-.11719.69922v.17187l.1172.17579.29296.29296h.40625l.17578.1172.11719.17187.11719.29296v.23438h-.52735l-.23047-.23438h-.23437l-.17578.0586-.0586.69922.0586.34765.11719.17579.17578.41015.11718.23047.28907.46875.17578.05469h.52344l.23437.0586.75781.64062.0586.29296v.23438l.05859.0586.23047.34765v.35156l-.11719.17188v.29297l.29297.28906.29297.17578.17187.0586.29297.17577.29297.1172.58203.40624.28906.23438.29297.17578.21875.16015.01563.01172.23047.17579.64062.52343.17578.23438.1172.17578.17577.17578.11328.17188v.64062l.1172.17578.46874.11719.58203.11719.23438.05859.23047.11328.29297.11719.11328.0586.58593.35156.28907.17187.17578.0625.17578.05469.17578.0586.69922.35155.28906.17579.23438.05468.28906.17578.23437.1172.64063.40624.29297.11719.17187.0586.23438.05859.41015.05859.23047.0586.23438.11718.0586.17188-.41017.17578.46875.0586.0586.29296.11328.23438.17578.05468.23438.0586.17578.05859.40625.11719.64062.23437.11719.17188.0586.23437v.17578l-.0586.1172-.0586.40624.23438.23438.11719.05859.34766.11719.64062.23047.17578.11718.28906.1172.17578.17577.23438.46485.58203 1.10546.17578.17579.34766.17578.17578.11719.35156.11718 1.04688.52344.23437.0586.46485.11327.29297.0586.46484.17578.75781.58203.23438.23438.34765.46484.17578.17578.28907.23438.8164.69921.29297.17579.28906.28906.29297.17578.29297.28906.69531.64063.17578.17578.29297.23437.28907.23438.46875.28906.64062.58203.34766.23438.23437.29297.34766.34765.35156.46485.9336.99218.34765.40625.11719.17579.23437.05859.11328.11719.64454.17578.23047.11328.23437.0586.29297.17577.23047.1172.9336.69921.40624.40625.23438.17578.40625.17578.23437.11719.8164.34766.34766.23437.23438.11719.29297.28906.23047.11719.7578.35156.35157.17188.23047.05859.29297.11719.23437.0586.8711.17577h.8164l.46875.23047.17188.0586.875.69921.46484.1172.29297.05858.17578.0586.23047.0586.46875.05859.34766.05859.35156.0586.40625.05859h.29297l.17187.0586v.23046l.17578.17578h.29297l.34766.0586.35156.05859.69922.11719h.64063l.46484-.23438.29297-.17578.17187-.11719.41016-.17187.28906-.17578.9336-.46485.46875-.29297.52343-.29296.46485-.17188.46484-.17578 1.05078-.46485.28906-.11718.41016-.11719.28906-.11719.52735-.17578 1.51562-.69922.58203-.34765.28907-.0586.29297-.0586.34765-.11718.875-.23047.35156-.11719h.11329l.23437-.05859.875-.23437.23438-.0586h.8125l.35156-.0586.8164-.11718.17188-.0586.35156-.05468.29297-.0586.23047-.05859.8164-.17578.17579-.0586h.34765l.23438-.05859.46484-.11718.75781-.17188.23438-.0586h.34765l.41016-.11718.28906-.0586 1.28516-.05859h.28906l.41016-.0586.23047-.05858h.17578l.875-.1172h.40625l.41015-.11718h.34766l.35156-.11328.8711-.0586h1.75l1.04687.28907.41016.11719.28906.11718.35156.11719.28907.11719 1.05078.17187.28906.0586h.29297l.29297.05859.17187.0586.41016.05859.17187.0586.1172.05858h.11718l.11719.0586.35156.0586h.11328l.41016.0664 1.92187.39453 1.92578.39453 1.51953.44922 1.69532.71875 2.14453.80469 1.60547-.71875 1.42968-.80469 1.16016-1.07813 1.25-.44921 3.03516-.71875 1.875-.35938 2.14453-1.34765 2.23437-1.25391 2.5-1.25781 1.69531-.44922 1.78516-.17969 1.16016-.26953.625.53906 1.33984-.26953.71485-.98828.98437-1.34375.44531-.17969.80469-.35937 1.875-.53907 1.78516-.44921 1.25-.26954 1.16015-.08984 1.69922-.08984 1.96094-.26954 1.25-.08984h.53906l.625-.08984h.89063l2.14453-.17969 2.41015-.17969 2.58985-.08984 1.69531.17969 1.60938.08984 1.42968.35938 1.16016.71875 1.875.98828 1.16015 1.52734.26563.71484.6289.08985.35548.89844.53515.53906.53516 1.52734 1.07422.35938h.53515l-.80469.53515.08985 1.70703.71484 2.69532.89063.80468.89453.98829.71484 1.2578 1.78516.53907 1.51953-.17969.35547 1.34375 1.60937-.80469.98047-.53906.26953.26953.31641-.21484.21875-.14453.80078.44922.44922-.35938h.35547l.53515-.26953.53907-.71875.53515-.26953.625-.98828 1.16016.44922.83984.3711 1.39454.61718 1.6953-.17969h1.60548l1.78515.08985.17969-1.70704.53516-1.34375.80468.26954.4922.84765.40233.40625-.08984.53906v.35938l.71485.44922.71093-.26953h1.42969l.35938.98828.4453 1.25781.71485 1.34375 1.25.6289 1.69531.62891.71485-.17969.17969-.53906.98046-.08984.44922.35937.08594 1.25782-.26563.6289-.53515.17969v.53906l.71484.98438.26563.53906.98437.98828.80078 1.07813-.26562.35937-.08985.89844-.625 2.33203-.35546 2.0664-.08985 1.79298-.17969.71875-.08984.53906v1.4375l-.98047 1.88281-.35937 1.70703-.53516.89844-.80469 1.16797-.26562.53906 2.05469 1.2539.08593.35938-.35546.53906-.08985-.17968v.80859l.08985 1.4375-.44532.71484-1.07422.09375-.26562.71485.53515.89844.8047.71875 1.16015.80859 1.33984.26953.44531.35938-.35546.44921-1.78907-.08984-1.25-.44922-.71484-.71875-.625-.08984-.17578 3.58984-.1875 1.3086h89.35937V311.70313h-55.26953v49.08203l.76172.125 3.28906.54296 2.02344 2.83594v2.7539l2.35156.33204 2.34766.33203h4.05078l-1.3789 4.16016-2.02344.70703-2.02344.70312-.54297.34375-2.59375 1.6172-.1875.11718-2.02344-2.07813-.73046-2.74218-2.67188-2.07813-1.375-3.5-.0664-.08203-1.95704-2.67188 2.75-1.41796v-49.08204H294.42187v91.41407l.1172.03125.1328.01172.07422.07421.10547.04688.08985.0586.08593.05859.08985.0586.29687.29687.0586.08984.03125.11719.02734.11719.01563.13671-.03125.1172-.0586.08983-.0586.08594-.04296.10547-.04688.10156-.02734.1211v.14453l.17578.26953.14844.14844.07422.08594.07422.07421.04296.10547.0625.08985.0586.08593.04297.10547.0586.08985.04687.10156.04296.10547.0586.08594.11719.17968.07421.07422.0625.08594.0586.08984.04297.10547.0586.08985.05858.08593.0625.08985.0586.08984.04297.10156.11719.17969.07421.07422.0586.08594.07422.07421.08984.0586.10547.04687h.14844l.1328-.01562.13282.01562.10156-.04687.07422-.07422.04688-.10156-.01563-.13281v-.14844l-.04687-.10547-.02735-.11719-.04687-.10156-.02735-.1211-.04296-.10156-.0625-.08984-.04297-.10156-.04297-.10547-.03125-.11719-.01563-.13281-.01171-.13672.08593-.0586.0586-.08593.12109-.03125.04297.10547.01562.1328v.1172l.0586.10156.0586.08984.08983.0586.14844.14843.0586.08985.04296.10547-.01171.10156.08593.0586.10547.04687.08594.0586.08984.05858.07422.07422-.11719.02735-.10546.04687-.08594.0586-.07422.07421-.0586.08985-.0625.08594-.02734.12109-.04687.10156-.04297.10547-.03125.11719-.01172.13281-.01563.13281v.14844l.02735.11719.04687.10547.04297.10156.0586.08984.07421.07422.08985.0586.07422.07421.08984.0586.0586.08984.04296.10547.04688.10156.11719.03125.1328.01563h.14845l.11718-.03125.10547.04297.04297.10547.04688.10156.02734.1211L299.5 410l.02734.11719.03125.1211.02735.11718.10547.04297.10156.04687.13281-.01562.14844.14844.0625.08593.07422.07422.07031.07422.08984.0625.10547.04297.10156.04297.1172.03125.13671.01562.11719-.03125.07422-.07422.02734-.11718-.01172-.13282-.03125-.12109-.02734-.11719.04297-.10547h.11719l.08984.0625.11719.02735h.14843l.13282.01562h.14843l.13282.01563.1328-.01563h.14845l.1328-.01562.13282-.01172.13672.01172.11719-.02735.13281-.01562.1914-.0586-.05859.17579-.01562.1328-.02735.1211-.01562.13281-.0586.08594-.1328.01563-.10548.04687-.10546.04297-.1172.03125-.11718.02735-.26563.03125h-.14843l-.13281.01562-.07422.07422.05859.08594.14844.14843.11719.1797.07421.0703.08985.0625.08984.0586.08594.0586.08984.05858.10156.04297.10547.0625.10547.04297.08594.0586.10547.04687.10156.04297.17969.11719.0586.08984-.04298.10156-.04687.10547.01562.13281.22266.22266.0586.08985.04296.10156.03125.1211.04297.10155.01563.13282.03125.11718.01171.13672.03125.11719.14844.14844.10156.04297.10547.04296.1172.03125.1328.01563.13672.01563h.11719l.11719-.03125.08984-.0586.04297-.10547.04688-.10156.04296-.10547.03125-.11719.01172-.1328v-.14845l-.01172-.1328-.01562-.13282-.03125-.11719-.04297-.10547-.04688-.10547-.04296-.10156-.04297-.10547-.01563-.13281.01563-.13281.02734-.11719.03125-.11719.02735-.1211.04687-.10155.08984-.0586.08594-.0625.07422-.07422.08984-.05859.22266-.22266.0586-.08593.07421-.07422.11719-.17969.0586-.08594v-.14844l-.07423-.07421-.10156-.04688-.10547-.04297-.10156-.04297-.0586-.08984-.04687-.10547-.02734-.11719.08984-.05859.11719-.03125.10156-.04297.17969-.11719.14844-.14843.01172-.13282-.01172-.10546-.08985-.0586-.1328.01563h-.14845l-.1328.01562-.13282-.01562-.1211-.03125-.08593-.0586-.07422-.07422-.0586-.08984-.0625-.08594-.11718-.17969-.0586-.08593.03125-.1211.08594-.05859.1211-.03125.05859-.08594v-.1211l-.03125-.11718-.0586-.08984-.05859-.08594-.04687-.10547-.02735-.11719-.01562-.1328.0586-.08985.07421-.07422.08984-.0586.1172-.17968.07421-.07422.0586-.08594.14843-.14844.1211-.03125.1328-.01562.13282.01562.07422.07422.04297.10547.01562.13281-.03125.1172-.11719.03124-.1328.01172-.14844.14844-.04297.10547-.04688.10156-.02734.1211-.03125.11718v.14844l.03125.11719.04297.10546.05859.08985.07422.07031.07422.07422.11719.03125.12109.02734.11719-.02734.1328-.01563h.1172l.08984.0586.07422.07422.04687.10546.0586.08594.10156.04688.13281.01562.10547.04297.08594.0586-.01172.10546-.07422.07422-.17969.11719-.05859.08984-.08984.0586-.07032.07422-.07421.07421-.0625.08985-.02735.11719-.01562.1328.01562.13282-.01562.13281v.14844l.01562.13281.02735.1172.03125.12108.07421.07422.08985.0586.08594.0586.08984.05858.11719.03125v.08594l-.10157.04688-.08984.0586-.26563.03124-.11718.02735h-.14844l-.10547.04296-.10156.04688-.0586.08984-.0625.23438-.01171.13281-.03125.1211-.01563.1328v.29298l-.01172.1328.01172.13673.01563.1328.1328.01563.13282.01172.1211.03125.08593.0586.07422.07421.04688.10547.04296.10157.01563.1328v.44532l-.01563.13281v.44532l.03125.26562.02735.11719.01562.13281.03125.11719.08594.21094.03125.26562v.14844l-.03125.11719-.02734.11718-.03125.1211-.02735.11719-.03125.11718-.03125.1211-.01171.1328-.01563.13282.08984.0586.1172-.03125.10155.01562.04688.10547-.03125.26562v.44141l-.04297.10547-.04688.10547-.04296.10156-.04297.10547-.0586.08594-.03125.12109-.04296.11719-.03125.11719-.01563.1328.01563.13282.05859.08984.10547.04688.08594.0586.05859.08593-.01172.13672-.03125.11719-.04297.10156v.44531l-.01562.13281v.14844l-.03125.11719-.04297.10547-.02735.11719-.04687.10546-.04297.10157-.03125.12109-.02734.11719-.03125.13281-.03125.11719-.02735.11719-.04297.10546-.03125.1172-.03125.12108-.01171.13282-.01563.13281v.29688l.02734.11718v.14844l.04688.39844.02734.11719.0586.08984.12109.03125h.14844l.13281-.01563.0586.08985v.11719l-.0586.08984-.08984.0586-.10157.04296-.10546.04688-.08985.05859-.08594.0586-.13671.01562-.1172-.03125-.1328-.01563-.10157.04688-.0625.08594-.01172.13671-.01562.13282-.03125.11719-.02735.11718-.01562.13281-.03125.1211v.29687l.01563.13282.03125.11718v.14844l.01171.13281v.14844l-.02734.11719-.04688.10156-.02734.1211-.03125.11718-.0586.08985-.07421.07421-.10156.04297-.10547.04688-.11719.02734-.1211.03125-.10156-.04687.0586-.08594.10547-.04688.02734-.11718.03125-.11719.02734-.1211.03125-.11718v-.14844l.01563-.13281-.03125-.11719-.04297-.10547-.10547.01563-.07422.07422-.10156.04296-.08984.0625-.07422.07422-.04297.10157-.01563.1328-.03125.1172L304.25 426l-.03125.11719-.02734.11719-.03125.12109-.02735.11719-.03125.11718-.04297.10547-.08984.0586h-.08984l-.1172-.03125-.03124-.08594.01562-.13672-.03125-.11719v-.14844l-.01171-.1328v-.14844l-.0625-.23438-.02735-.1211-.04297-.10156-.04687-.10546-.0586-.08594-.05859-.08985-.04297-.10546-.0625-.08594-.14844-.14844-.0703-.07422-.10548-.04687-.10547-.04297-.10156-.04297-.29687-.29688-.08985-.07421-.08594-.0586-.10546-.04297-.08985-.0625-.08594-.0586-.10546-.04296-.08985-.0586-.08594-.0625-.07421-.0703-.10547-.04688-.08594-.0586-.10547-.04296-.08984-.0625-.10156-.04297-.10547-.04297-.08594-.0586-.10547-.04687-.10547-.04297-.10156-.04687-.08985-.0586-.10156-.04297-.10547-.04296-.08984-.0625-.11719-.02735-.13281-.01562-.13281.01562H299.75l-.13281.01563-.11719-.03125-.08984-.0586-.07422-.07422-.08985-.05859-.10156-.04688h-.14844l-.12109-.02734-.10156-.04297-.07422-.07422-.11719-.17968-.08984-.0586-.10156-.04297-.08985-.0625-.10547-.04296-.08984-.0586-.08594-.0586-.10547-.04687-.0586-.08594-.05858-.08984-.04297-.10547-.04688-.10156-.07422-.07422-.08594-.0586-.07421-.07421-.08985-.0586-.22265-.22265-.04297-.10547-.03125-.26563.10547-.04296h.14453l.10547.04296.07421.07422.08985.0586.08594.0586.10546.04687.08985.05859.14844.14844.0703.07422.14845.14843.0625.08594.07421.07422.08594.0586.07422.07421.08985.0625.08984.0586.08594.05859.26953.17578.10156.04688.10547.04296.10156.04297.04688-.07421.05859-.08594.07422-.07422.07031-.07422.10547.04297.07422.07422.0586.08984.04296.10156.04688.10547.04296.10547.1211.02735.11719-.02735.07421-.08984.04297-.10547.0586-.08985.07422-.07421.10546-.04297.1172-.02735.1328.01172.08985.0586.14844.14843.05859.08985.04297.10547.04687.10156.04297.10547.04297.10156.10547.04688.10547.04296.13281.01563.08594-.0586.0586-.08984.07421-.07422.10547-.04297.11719.02735.10547.04687.10156.04297.10547.04297.10156.04688.17969.11718v.11719l-.01563.13281.01563.13281.01562.13672.0586.08594.10156.04688.1211.02734.11718.03125h.14844l.11719-.03125.05859-.08984.17969-.1172.05859-.08983.07422-.07422.0586-.08594.11718-.17969.17969-.11719.11719.03125.08984.0586.04297.07422-.01563.1328v.1172l.08985.05859h.14843l.13282-.01563.1328-.01171.26563-.03125.10547-.04297.11719-.03125.1211-.02735.07421-.07421.07031-.07422.0625-.08985-.01562-.10547-.04688-.10156-.10156-.04297-.10547-.01562-.11718.02734-.26563.03125h-.14844l-.07421-.07422-.08985-.0586-.11719-.03124-.11718-.02735-.13282-.01562h-.14843l-.13282.01563h-.29687l-.10547-.04688-.14844-.14844-.04297-.10156-.05859-.08984.22266-.22266.08593-.0586.10547-.04296.11719-.03125.13281-.01563.13281.01563.13672.01562.10157.04297.1328-.01172.08985-.0625.10156-.04297.0625-.08984-.04687-.10156-.08984-.0586-.1172-.03125-.10155-.04296-.0586-.08985-.0625-.08984v-.11719l.01563-.13281.10547-.04688.07421-.07031v-.1211l-.08984-.05859-.03125-.11719.08985-.05859.07421-.07422.04297-.10547.0586-.08984.04687-.10156.01563-.13281v-.14844l-.04688-.10547-.04297-.10156-.08984-.0586-.13281-.01562-.10157-.04297-.13671-.01563-.1172-.03125h-.4453l-.13282-.01562-.13281-.01172-.13281-.01563-.11719-.03125h-.14844l-.13281-.01562-.13281-.01172-.26563-.03125-.1211-.04297-.08593-.0586-.07422-.07421v-.14844l.01172-.13281.10547-.04688.10156-.04296.13281-.01563h.15235l.13281-.01562h.29297l.1211.03125.10156.04296.08984.0586.23438.0625.12109-.04688.08984-.05859.10156-.04297.13282-.01562.10547.04296.10156.04688.13281.01172.1211-.02735h.14453l.12109-.03125.11719-.02734.10547-.04687.07421-.07422.08594-.0586.14844-.14843.0586-.08594.04687-.10547.02734-.11719.01563-.10547-.10156-.04296-.08985-.0586-.11719-.03125-.10546-.04297-.08985-.0625-.07422-.08594-.07422-.07421-.10156-.04297-.10547-.04688-.10156-.04297-.0586-.08984-.04687-.10156-.08594-.21094-.0625-.08594-.05859-.08984-.07422-.07422-.08594-.0586h-.26953l-.11719.03126-.08984.05859-.10156.04297-.13281.01562-.10547-.01562-.02735-.11719-.0625-.08984-.11718-.03125-.10157-.04297-.14843-.14844-.03125-.11719-.01563-.10546.07422-.07422.17969-.1172.11719-.02733.11718-.03125.13672.01562.10156.04297.10547.04297.10156.04687.10547.04297.1172.03125.1328.01563.1172.02734.1328.01563.10547-.01563.08985-.0586-.07422-.07421-.10547-.04297-.07422-.07422-.07422-.08984-.14844-.14844-.08593-.0586-.08985-.05859-.07422-.07422-.08984-.0586-.10156-.04687-.1211-.02734-.10156-.04688-.10547-.04296-.11719-.03125-.10156-.04297-.1211-.03125h-.14843l-.11719.03125-.10546.04297-.08594.0625-.17969.11718-.08594.0586-.08984.0586-.10547.04687-.08594.05859-.10547.04297-.10156.04297-.10547.04687-.07422.07422-.05859.08985-.0586.08593-.04687.10547-.0586.08594-.07421.07422-.13281-.01172-.1172-.03125h-.11718l-.07422.07422-.08984.0586-.07422.07421-.08984.0586-.08594.05859-.10547.04687-.10156.04297-.13672.01563-.10156-.04297-.14844-.14844-.10547-.04688h-.08594l-.10547.04688-.10156.04297-.1211.03125-.11718-.03125-.07422-.07422v-.11719l.03125-.1211.07422-.0703.0586-.08985.07421-.07422.11719-.03125.10547-.04296h.29297l.13281-.01563.13672-.01563.10156-.04296.08985-.0586.10156-.04687.08984-.0586.13281-.01171.08985.05859.13281.01172.08984-.0586.08594-.05859.10547-.04297.08984-.0586.08594-.0625.08985-.05859.14843-.14843.0586-.08594.05859-.08985.10547-.04296.13281-.01563.11719.02735.1211.03125.05859-.0586.05859-.08984.03125-.26563.02734-.11719.10547.01172.13281.01563.10157-.04297.08984-.0586.0586-.08984.07421-.07422.0586-.08984.04687-.10156.01172-.13281-.01172-.13282-.04687-.10547-.14844-.14843-.0586-.08985-.05859-.08594-.04297-.10546v-.44532l.01563-.1328v-.14845l.01172-.1328-.0586-.0586-.08984.0586-.10156-.04298-.17969-.11719-.08594-.05859-.0625-.08984-.0586-.08985-.07421-.07421-.08594-.0586-.1211.03125-.10155.01172-.10547.04688-.08594.05859-.10547.04297-.14844.14844-.08984.05859-.08594.0586-.08984.0625-.10547.04296-.13281.01563v-.1211l.10547-.04297.11718-.03125.07422-.0703.04297-.10548v-.14844l-.02734-.11718-.14844-.14844-.13281-.01563h-.14844l-.11719.03125-.10547.04297-.10156.04297-.08984.0625-.11719.02735-.07422-.07422.01172-.13281-.04297-.10157-.04297-.10547-.08984-.05859-.11719.02734-.1211.03125-.11718.03125-.10156.04297-.1211.03125-.10156.04297-.10547.04297-.08984.0586-.10156.01562v-.11719l.01562-.13281-.0586-.08985-.07421.04297-.14844.14844-.0586.08985-.07421.07421-.04688.10547-.04296.10156-.07422.07422-.0586.08985-.07422.07422-.05859.08593-.07422.07422-.08984.0625-.07422.07031-.07422.07422-.10156.01563-.13281.01562-.10547-.04296v-.1211l.14843-.14844.04297-.10156.0586-.08984.04687-.10156.04297-.10547.0586-.08985.03124-.11719.04297-.10156.03125-.1211.02735-.11718.04687-.10547.04297-.10156.04297-.10547.07422-.07031.08984-.0625.08985-.0586.10156-.04296h.29687l.26563-.03125.10547-.04297-.07422-.07422-.11719-.03125-.10547-.04297-.08984-.0586-.10156-.04687-.08985-.0586-.10156-.04296-.10547-.04297-.08984-.0625-.08594-.0586-.10547-.04296-.10156-.04297-.1211-.03125-.11718-.03125-.10157-.04297L297.5 410.25l-.10156-.04297-.08985-.0586-.04296-.10546-.01563-.13281.10156-.04297.13281-.01563.13672.01563.13282-.01563.10156-.04297.0586-.08984.01562-.10547-.08985-.0586-.07421-.07421-.10157-.04297-.08984-.0586-.14844-.14843-.04297-.10547-.01562-.13281v-.29297l-.0586-.08985-.08984-.05859-.07422-.07422-.04297-.10547-.03125-.11718-.0586-.08985-.07421-.07422-.11719-.02734-.07422-.07422-.08984-.0586-.08984-.0625-.08594-.05859-.07422-.07421-.0586-.08594-.04687-.10547-.08594-.0586-.14843-.14843-.19532-.0586-.1328.01563-.10157.04297-.07422.07422-.04688.10156-.04296.10547-.0586.08984-.0586.08594-.29687.29687-.08984.0586h-.08594l-.0625-.08594-.04297-.10547.03125-.11719.0586-.08984.02734-.11719-.01172-.13281-.08984-.0625-.10547.04688-.11719.02734-.11719.03125-.26953.17578-.10156.04688-.11719.02734-.10546.04687-.08985.0586-.10156.04297-.0586-.08594-.04687-.10547.01563-.13281.04687-.10547.07031-.07422.07422-.07031.0586-.08985v-.14843l-.04297-.10547h-.23829l-.10156.04687-.03125.11719-.02734.11719-.03125.1211-.07422.04296-.13281.01563-.07422-.04688-.04297-.10156-.04297-.10547-.04687-.10156-.04297-.10547-.1211.03125-.10156.04297-.13281.01562-.11719.03125-.10547.04297-.08984.0586-.10156.04687-.1211.02734-.13281.01563-.10156-.04297-.0586-.08985-.04687-.10546-.04297-.10157-.04297-.10546v-.1172l.0586-.08984.08593-.05859.17969-.11719.10156-.04687.10547-.04297.10547-.0586.10156-.04296.08985-.0625.10156-.04297.10547-.0586.10156-.04687.08984-.0586.10547-.04296.10156-.04297.08985-.0625.10156-.04297.13672-.01563.11719.03125.10156.04297.1211.03125.10156.04297.10546.04688.10157.04296.10547.04297.10156.04688.10547.04297.10156.04297.10547.04687.08594.0586.10546.04296.1172.03125.10546.04297.10156.04688.08985.0586.10547.04296.10156.04297.10547.04687.11719.02735.10156.04687.1211.02735h.14843l.08594-.0586.01562-.10156.0586-.08984-.02735-.1172-.07422-.07421-.11719-.17969-.07421-.07422-.08985-.07421-.17969-.1172-.08593-.05859-.10547-.04296-.10156-.04688-.26954-.17578-.05859-.08985-.07422-.07421-.0586-.08985-.04296-.10156-.03125-.11719-.01563-.13672v-.5625l-.01171-.1328-.01563-.13282-.03125-.11719-.01562-.13281-.01172-.13281-.03125-.1211-.22266-.22265-.0586-.08594-.01562-.10547.03125-.11719.13281-.01562v-91.41406H172.9922v1.45312l-.0586.23438-.35156 1.05078-.17187.52343-.1172.34766-.17577.41016-.11719.17187-.23438.29297-.23046.0586h-.35157l-.11718.05859-.23047.40625v.29297l.11719.17578.23046.23047.1172.23437.64062.75781.29297.46485.17578.23437.23047.35156.23437.34766.64063.8164.17578.46485.17187.41016.11719.69531.17578.46875.11719 1.39844.0586.46484v.875l.11718 1.04688v4.78125l-.0586.46484-.35156 1.28125-.17578.52344-.11328.41015-.35156.9297L172.93359 336l-.23437.58203-.11719.17578-.17187.34766-.17578.40625-.35157.8164-.0586.29297-.11327.29297-.11719.28906-.0586.17579-.11718.875-.0586.40625-.05859.11718-.0586.17579-.05859.17187-.23047.52734-.11718.17188v.23437l-.11719.23438-.0586.17187-.17577.58594v.28906l-.0586.17579v.29296l-.0586.11329-.05859.52734v.17187l-.05468.23438v2.6211l-.17578.8164-.1172.17578-.17577.23438-.1172.17187-.11327.23438-.58594.93359-.23047.28906-.29297.46485-.17578.23437-.28906.35156-.35156.69922-.11328.23047-.17579.41016-.17578.23046-.40625.52735-.8164.69922-.29297.17187-.28906.23438-.17579.11719-.17578.17578-.52344.40625-.52734.17578-.17187.17578-.23438.05469-.64062.17578h-.75782m12.21094 31.02344l-1.07422.44921.35938.89454 1.25-.71485.44531-.53906-.98047-.08985"/><path fill="#d3d3d3" fill-opacity="0" fill-rule="evenodd" d="M201.50781 416.59766h-.89453l.44922.6289.98047.35938.80469-.08985.4453-.98828-.17577.08985-.71485-.35547-.89453.35547m154.6211 59.0703l-.0586-.52343v-.29297l.11328-.29297.0586-.23046.46875-.46875h.11328l.11719-.11329.11718-.05859h.17579l.23437-.0586h.34766l.23437.0586.11719.0586.23047.17187.0586.17578.11718.58203v.29297l-.11719.17578-.17187.28906-.17579.17579-.52734.52343-.23047.23438-.11719.0586h-.17578l-.11718-.0586-.40625-.29297-.17579-.11719-.11718-.0586-.0586-.11327-.05468-.1172m6.64062-10.95702l-.0586-.17188v-1.10937l.0586-.17188.17578-.0586.17188-.05858h.17578l.23437-.0586.1172.0586.05858.69921-.05859.17188-.11719.17578-.11718.0586-.23438.52343-.11328.0586h-.23438l-.05859-.1172m9.61328-14.39062l-.11719-.17578v-.69922l.29297-.875.1172-.17187.17577-.35156.11328-.23047.1172-.29297.35155-.75781.1172-.23047.17187-.23438h.17578l.11719-.0586h.64062l.11719.0586.23437.23438.17188.11328.35156.29297.11719.11718.11328.17579v.11328l.11719.05859.11718.11719v.69922l-.05859.17578v.23047l-.0586.17578-.34765 1.05078-.11719.23047-.11719.23437-.11718.0586-.23047.23437-.64063.28906h-.875l-.41015-.11718-.64063-.46485"/><path fill="none" stroke="#bebebe" stroke-linecap="round" stroke-linejoin="round" stroke-miterlimit="10" stroke-width=".5" d="M467.95703 311.69531H144.02734v168.625h323.9297v-168.625"/><g clip-path="url(#a)"><path fill="#fff" fill-opacity="0" fill-rule="evenodd" d="M144 475.89063v4.4375h.0039H144V311.67188h.0039H144v164.21875"/></g><g clip-path="url(#b)"><path fill="#fff" fill-opacity="0" fill-rule="evenodd" d="M144.0039 480.32813V311.67188h17.75V444.3164l-.34765.5039-2.89453 4.4414-.67578 4.4375.72656 4.4375 3.1914 3.52345 4.4375-1.38672 4.4375-.95313 4.4375 1.76563 2-2.94922-2-2.07031-2.54296-2.3672-1.89453-2.58202-.9336-1.85547-3.5039-3.04688-3.79297-1.39453-.64453-.5039V311.67187h48.8203v90.08204l-3.51171 3.12109-.46094 4.4414-.46484.9961-3.5 3.4414 1.85156 4.4375-1.78125 4.4375 1.94922 4.44141 1.48047 1.51953 4.4375-.1328 1.67969-1.38673-1.6797-1.44531-1.03124-2.9961-1.1836-4.4375 2.21485-2.03124.61719 2.03125 3.82422 4.39843 3.99218.03907-2.14062 4.4414 2.58594 2.23438 4.4375-1.66016 2.10156 3.86328 2.33594 1.45313 2.0039 2.98437 2.4336 2.5586 4.4414.10937.76953 1.76953 3.66797 3.375 4.4375.03125 3.27734-3.40625-.21484-4.4375-3.0625-3.1914-4.4375-.47266-4.4375 1.05469-4.4414-.9414-1.70704-.88673-2.73047-2.54687-3.7578-1.89063-.6797-.83594-4.3828-3.60546 4.02343-4.4375-.08594-4.4375-3.99219-3.94532-.53125-.49218-3.90625-3.72657-1.14453-.71484-3.29687-3.1211v-90.08202h48.82422v109.01171l-1.94531 1.94532-2.4961 1.34765-3.08594 3.09375 2.82813 4.4375.25781.30469 3.28516 4.13281 1.15625.96485 1.00781-.96485.55078-4.4375.69922-4.4375.11328-4.4414-2.3711-1.94532V311.67188h62.13673v103.1953l-4.4375.48829-4.44141.27734-4.4375-.01172-1.6875 2.57032-2.75 1.3203-4.4375-.58202-4.4414-.3164-4.38282-.42188-.05469-.01954-.02734.01954-4.41016 1.80468-2.32812 2.63282-2.10938.48828-4.4375-.2539-4.4414.39452-4.4375 1.26563-3.26953 2.54687.26562 4.4375 3.0039 2.7539 4.4375.21485 4.44141.6211 1.04688.84765 3.39062 3.54688 4.4375.07031 4.4375-.5664 2.87891-3.05079.89844-4.4375.66015-1.26562v12.60547l-2.57812 1.97265 2.57812 1.90235 2.89844-1.90235-2.89844-1.97265v-12.60547l4.44141.76562 3.49219.5.94531.98047v14.17188l-2.63672 2.60156 2.63672 2.77734 2.4414-2.77734-2.4414-2.60156v-14.17188l.88281-.98047 3.07813-4.4375.47656-1.57031v32.9375l-4.4375 1.80469-.94531 2.33203.94531.65625 4.4375 1.625 3.21094-2.28125-3.21094-4.13672V425.5l4.4375 1.42969 4.4414-2.13281 4.4375.48437 4.4375.14063 4.4375-1.60938 4.4375 2.26172 4.44141-2.44922 1.4414 3.44531 2.9961 2.70313.92578 1.73437-.21484 4.4375 3.72656 3.84766.78906.58984-.78906 4.125-.26172.3125.26172.2539.2539-.2539 4.1836-.94922 4.4414-.48046 4.4375-.0625 3.00392-2.94532 1.43359-1.72265 3.0664-2.71485 1.3711-3.67187 4.4375.82422.14453 2.84765.49219 4.4375-.63672.91797-2.79688 3.51953-.5703 4.4414 1.07421 4.4375 2.29297 2.28126 1.79687 2.15625 2.64454 3.3086 1.28906 1.1289 3.14844 2.70703 4.4375-.46094 3.42968 2.19531 1.00781.58204.6836-.58204 3.7539-.26953 4.44141.125 4.4375.0547 4.4375-.23438 4.4375-.29297 4.4414.04297 3.70313-3.8672.73438-.86327 4.4375-2.46094 4.4375 1.14844 2.41015-2.26172 2.02735-1.09375 4.4414-1.34766 2.26563-1.9961 2.17187-.55077 3.85938-3.88672-.03906-4.4414-3.82032-3.59376-4.4375.14844-3.1914 3.44531-1.25 1.90235-2.53125 2.53906-1.90625 1.02734-3.60938 3.41016-.82812 3.08594-.58594-3.08594-1.19922-4.4375-.64844-4.4414-2.0039-2.1211-1.39063-2.3164-3.04687-2.9297-3.0586 2.9297-1.17187 4.4375-.21094.08593-1.20703-.08594-3.23047-1.3789-4.4375-4.07813-3.08203-3.41797-1.35547-1.3125-4.4414-2.42578-4.4375 1.34375-4.4375-.125-3.1875-1.91797-1.25-1.24219-4.4375-.47265-4.44141.8164-1.53516-3.53906-2.90234-2.3125-2.14844-2.1289-2.28906-2.41407-4.4375-.3828-3.23828 2.79687-1.19922 1.04296-4.4414 1.96094-4.4375-2.58984-1.97266-.41406-2.46485-2.60547-2.89453-1.83203-1.54297-1.08204-4.4414.75-.44922.33204-3.98828 2.84375-3.8711-2.84375-.5664-.6211-4.4375-2.70312V311.67188h124.27343v123.37109l-1.02343.90234 1.02343 1.03906.95704-1.03906-.95704-.90234v-123.3711h22.1875v168.65625H144.00391"/></g><path fill="#50fcfc" fill-rule="evenodd" d="M158.5625 458.13672l-.72656-4.4375.67578-4.4375 2.89453-4.4414.34766-.50391v3.37109l-1.10938 1.57422-1.09375 4.4375 1.65234 4.4375.55079.60937 1.53125-.60937 2.90625-1.90235 1.86328-2.53515-1.86328-2.9336-1.51953-1.5039-2.91797-1.57422v-3.3711l.64453.50391 3.79297 1.39453 3.5039 3.04688.9336 1.85547 1.89453 2.58203 2.54297 2.36719 2 2.0703-2 2.94923-4.4375-1.76563-4.4375.95313-4.4375 1.38672-3.19141-3.52344"/><path fill="#00e8fc" fill-rule="evenodd" d="M161.20313 458.13672l-1.65235-4.4375 1.09375-4.4375 1.10938-1.57422 2.91797 1.57422 1.51953 1.5039 1.86328 2.9336-1.86328 2.53515-2.90625 1.90235-1.53125.60937-.55078-.60937"/><path fill="#50fcfc" fill-rule="evenodd" d="M204.48828 418.1914l-1.85156-4.4375 3.5-3.4414.46484-.9961.46094-4.4414 3.51172-3.1211v2.89844l-.25.22266-2.82813 4.4414-1.35937 2.91407-1.54688 1.52344 1.54688 2.42187v3.76953l-1.72656 2.6836 1.72656 2.64453 1.71484-2.64453-1.71484-2.6836v-3.76953l2.53125-2.42187 1.90625-.65625 1.83203.65625.59766 4.4375 2.01172 2.3125 4.4375-1.45313.78906-.85937 1.3125-4.4375-2.10156-2.07813-2.53907-2.35937-1.89844-1.8125-4.20312-2.62891-.23828-.22266v-2.89843l3.29687 3.12109 1.14453.71484 3.90625 3.72657.53125.49218 3.9922 3.94532.08593 4.4375-4.02344 4.4375 4.38281 3.60546.6797.83594 3.7578 1.89063 2.73047 2.54687 1.70703.88672 4.44141.9414 4.4375-1.05468v1.65625l-3.48828 2.00781 1.5586 4.4375 1.92968 1.77344 4.4375-.21094 1.5039-1.5625-.51171-4.4375-.99219-1.03125-4.4375-.97656v-1.65625l4.4375.47266 3.0625 3.1914.21484 4.4375-3.27734 3.40625-4.4375-.03125-3.66797-3.375-.76953-1.76953-4.4414-.10937-2.4336-2.5586-2.0039-2.98437-2.33594-1.45313-2.10156-3.86328-4.4375 1.66016-2.58594-2.23438 2.14062-4.4414-3.99219-.03907-3.82421-4.39843-.6172-2.03125-2.21483 2.03125 1.18359 4.4375 1.03125 2.99609 1.67969 1.44531-1.6797 1.38672-4.4375.13281-1.48046-1.51953-1.94922-4.4414 1.78125-4.4375"/><path fill="#00e8fc" fill-rule="evenodd" d="M206.13672 425.27344l-1.72656-2.64453 1.72656-2.6836 1.71484 2.6836-1.71484 2.64453m0-9.09766l-1.54688-2.42187 1.54688-1.52344 1.35937-2.91406 2.82813-4.44141.25-.22266v2.32032l-1.58594 2.34375 1.58594 1.94921 3.16016-1.94921-3.16016-2.34375v-2.32032l.23828.22266 4.20313 2.6289 1.89843 1.8125 2.53906 2.35938 2.10157 2.07813-1.3125 4.4375-.78906.85937-4.4375 1.45313-2.01172-2.3125-.59766-4.4375-1.83203-.65625-1.90625.65625-2.53125 2.42187"/><path fill="#00d4fc" fill-rule="evenodd" d="M210.57422 411.26563l-1.58594-1.94922 1.58594-2.34375v2.19921l-.09766.14454.09766.12109.19531-.1211-.19531-.14452v-2.19922l3.16016 2.34375-3.16016 1.94921"/><path fill="#00c4fc" fill-rule="evenodd" d="M210.57422 409.4375l-.09766-.1211.09766-.14452.19531.14453-.19531.12109"/><path fill="#00e8fc" fill-rule="evenodd" d="M239.71484 440.38281l-1.55859-4.4375 3.48828-2.00781 4.4375.97656.99219 1.03125.51172 4.4375-1.5039 1.5625-4.4375.21094-1.9297-1.77344"/><path fill="#50fcfc" fill-rule="evenodd" d="M254.69922 431.50781l-2.82813-4.4375 3.08594-3.09375v2.07422l-1.01562 1.01953 1.01562 1.4961 1.84375-1.4961-1.84375-1.01953v-2.07422l2.4961-1.34765 1.9453-1.94532 2.3711 1.94532-.11328 4.4414-.69922 4.4375-.55078 4.4375-1.00781.96485-1.15625-.96485-3.28516-4.13281-.25781-.30469"/><path fill="#00e8fc" fill-rule="evenodd" d="M254.95703 428.5664l-1.01562-1.49609 1.01562-1.01953 1.84375 1.01953-1.84375 1.4961"/><path fill="#50fcfc" fill-rule="evenodd" d="M265.26953 431.50781l-.26562-4.4375 3.26953-2.54687 4.4375-1.26563 4.4414-.39453 4.4375.2539 2.10938-.48827 2.32812-2.63282 4.41016-1.80468.02734-.01954.0547.01954 4.3828.42187 4.44141.3164v1.5547l-4.4414.23046-4.4375-.05468-2.85548 1.96875-1.58203 2.16015-4.4375-.71094-4.4375-.35546-4.4414.53906-4.1875 2.8086-.25 3.40624-.14063 1.03125.14063.1289 4.4375.60548 4.4414 1.4961 2.72657 2.20702 1.71093 1.79297 4.4375.28906 4.4375-1.89453.1797-.1875 2.59765-4.4375 1.66015-3.17578 4.44141 1.80469 4.4375.47656 3.05078-3.54297 1.01563-4.4414-4.06641-.96875-4.4375-1.17579v-1.55468l4.4375.58203 2.75-1.32031 1.6875-2.57032 4.4375.01172v3.01563l-4.35547 3.98047 4.35547 2.97265 3.7461-2.97265-3.7461-3.98047v-3.01563l4.4414-.27734 4.4375-.48828v2.15234l-3.4375 1.17188 3.4375 3.625 3.29298.8125 1.14453.11328.23437-.11328-.23437-.19141-2.8086-4.2461-1.6289-1.17187v-2.15234l4.4375 2.70312.5664.6211 3.8711 2.84375 3.98828-2.84375.44922-.33204v2.60938l-2.39454 2.16016 2.39454 1.63671 2.27343-1.63671-2.27343-2.16016v-2.60938l4.4414-.75 1.54297 1.08204 2.89453 1.83203 2.46485 2.60547 1.97265.41406 4.4375 2.58984 4.4414-1.96094 1.19923-1.04296 3.23828-2.79688v3.04297l-4.4375 4.1914-.0039.00391-4.4375 1-1.0625-1-3.375-2.89453-4.42188 2.89453 2.36328 4.4375-.57813 4.4375 2.63672 2.72266 2.29297 1.71484 2.14453 2.05469 4.4414-1.19531 4.4375-.16406.70704-.69532-.70703-2.27734-.1836-2.16016.1836-.77344 4.4375.7422 3.22656-4.40626.96485-4.4375-4.19141-4.1836-4.4375-.01171v-3.04297l4.4375.38281 2.28906 2.41407 2.14844 2.1289 2.90234 2.3125 1.53516 3.53906 4.4414-.8164v2.42969l-3.42968 3.72265 1.97656 4.4375-2.98828 4.29688-.10938.14062-1.51562 4.4414 1.625 3.33985.41406 1.09766 4.02735 4.38281.35546.05469 4.08204 3.01172 2.8164-3.01172 1.6211-.84766.14453.84766.23437 4.4375 4.0586 3.9375 4.4375-.2539 4.4414.30468 4.4375.00781 4.4375-.49219 4.4375-.8789 4.4414-.27735 2.2461-2.34765 2.1914-2.57031 2.52344-1.8672-.17578-4.4375-2.34765-3.47655-4.32813-.96094 2.23047-4.4414-1.95703-4.4375-.38281-.3672-.38672.3672-1.17188 4.4375-2.8828 1.15624-4.4375 2.1211-2.32032-3.27735-2.11719-2.04297-3.16015-2.39453-1.27735-1.35937-2.8711-3.07813-1.5703-1.10937-2.79297 1.10937-1.64454.28906-4.4375.07422-.16406-.36328-4.27344-3.6875-4.4375-.03515v-2.4297l4.4375.47267 1.25 1.24218 3.1875 1.91797 4.4375.125 4.4375-1.34375 4.44141 2.42578 1.35547 1.3125 3.08203 3.41797 4.4375 4.07813 3.23047 1.3789 1.20703.08594.21094-.08594 1.17187-4.4375 3.0586-2.92969 3.04687 2.9297 1.39063 2.3164 2.0039 2.1211.64844 4.4414 1.19922 4.4375.58594 3.08594.82812-3.08594 3.60938-3.41016 1.90625-1.02734 2.53125-2.53906 1.25-1.90235 3.1914-3.44531 4.4375-.14844v1.53125l-4.4375 1.26172-.74609.80078-2.85547 4.4414-.83984 1.33985-4.4375 1.69922-1.47656 1.39844 1.47656 3.02734 4.4375-1.60547 2.67578-1.42187 1.76562-1.16406 4.4375-.51172 2.7422-2.76172-.55079-4.4414-2.1914-2.0625v-1.53126l3.8203 3.59375.03907 4.4414-3.85938 3.88673-2.17187.55078-2.26563 1.9961-4.4414 1.34765-2.02735 1.09375-2.41015 2.26172-4.4375-1.14844-4.4375 2.46094-.73438.86328-3.70312 3.86719-4.4414-.04297-4.4375.29297-4.4375.23437-4.4375-.05469-4.44142-.125-3.7539.26954-.6836.58203-1.0078-.58204-3.4297-2.1953-4.4375.46093-3.14843-2.70703-1.28906-1.1289-2.64454-3.3086-1.79687-2.15625-2.29297-2.28125-1.07422-4.4375.57031-4.4414 2.79688-3.51954.63672-.91797-.49219-4.4375-.14453-2.84765-4.4375-.82422-1.3711 3.67187-3.0664 2.71485-1.4336 1.72265-3.0039 2.94531-4.4375.0625-4.4414.48047-4.1836.94922-.2539.2539-.26173-.2539.26172-.3125.78906-4.125-.78906-.58984-3.72656-3.84766.21484-4.4375-.92578-1.73437-2.9961-2.70313-1.4414-3.44531-4.4414 2.44922-4.4375-2.26172-4.4375 1.60938-4.4375-.14063-4.4375-.48438-4.44141 2.13282-4.4375-1.42969-.47656 1.57031-3.07813 4.4375-.88281.98047-.94531-.98047-3.49219-.5-4.4414-.76562-.66016 1.26562-.89844 4.4375-2.8789 3.05078-4.4375.56641-4.4375-.07031-3.39063-3.54688-1.04688-.84765-4.4414-.6211-4.4375-.21484-3.0039-2.7539"/><path fill="#00e8fc" fill-rule="evenodd" d="M268.27344 431.63672l-.14063-.1289.14063-1.03126.25-3.40625 4.1875-2.8086 4.4414-.53905v1.42578l-4.4414.78906-1.6914 1.13281 1.6914 2.03125 4.4414 2.36328.02735.04297 4.41015 3.67578 4.4375.23829 4.4375-2.09766 1.11329-1.8164-1.11329-1.76563-4.4375-1.16797-2.01171-1.5039-2.42579-1.39063-4.4375-.53125v-1.42578l4.4375.35546 4.4375.71094 1.58204-2.16015 2.85546-1.96875v6.3203l-.14843.08985.14843.02344.10547-.02344-.10547-.08984v-6.32031l4.4375.05468 4.44141-.23046v2.74609l-2.8789 3.83984 2.8789 1.61328 4.4375.16797 1.53516-1.78125-1.53516-2.58203-4.4375-1.25781v-2.7461l4.4375 1.17579 4.0664.96875-1.01562 4.4414-3.05078 3.54297-4.4375-.47656-4.4414-1.80469-1.66016 3.17578-2.59766 4.4375-.17969.1875-4.4375 1.89453-4.4375-.28906-1.71093-1.79297-2.72657-2.20703-4.4414-1.4961-4.4375-.60546"/><path fill="#00d4fc" fill-rule="evenodd" d="M272.71094 429.10156l-1.6914-2.03125 1.6914-1.13281 4.4414-.78906v1.42969l-2.28515.49218 2.28515 1.11719 2.38672 3.32031 2.05078 1.71094 4.4375-.59375 2.42188-1.11719-2.42188-.83984-4.4375-3.01563-1.23828-.58203-3.19922-.49219v-1.42968l4.4375.53125 2.42579 1.39062 2.01171 1.5039 4.4375 1.16798 1.11329 1.76562-1.11329 1.8164-4.4375 2.09767-4.4375-.23829-4.41015-3.67578-.02735-.04297-4.4414-2.36328"/><path fill="#00c4fc" fill-rule="evenodd" d="M277.15234 428.1875l-2.28515-1.11719 2.28515-.49219 3.19922.4922 1.23828.58202 4.4375 3.01563 2.42188.83984-2.42188 1.11719-4.4375.59375-2.05078-1.71094-2.38672-3.32031"/><path fill="#50fcfc" fill-rule="evenodd" d="M290.46484 426.98047l-.14843.08984.14843.02344.10547-.02344-.10547-.08984m4.4375 19.74219l-2.57812-1.90235 2.57812-1.97265 2.89844 1.97265-2.89844 1.90235"/><path fill="#00d4fc" fill-rule="evenodd" d="M299.34375 428.6836l-2.8789-1.61329 2.8789-3.83984v3.44531l-.29297.39453.29297.16406 4.4375-.14843.01563-.01563-.01563-.02734-4.4375-.36719v-3.44531l4.4375 1.25781 1.53516 2.58203-1.53516 1.78125-4.4375-.16797"/><path fill="#00c4fc" fill-rule="evenodd" d="M299.34375 427.23438l-.29297-.16407.29297-.39453 4.4375.36719.01563.02734-.01563.01563-4.4375.14844"/><path fill="#50fcfc" fill-rule="evenodd" d="M303.78125 452.03906l-2.63672-2.77734 2.63672-2.60156 2.4414 2.60156-2.4414 2.77734m0 11.1914l-.94531-.65624.94531-2.33203 4.4375-1.80469 3.21094 4.13672-3.21094 2.28125-4.4375-1.625"/><path fill="#00e8fc" fill-rule="evenodd" d="M312.65625 425.60156l-4.35547-2.97265 4.35547-3.98047v2.96875l-1.10938 1.01172 1.10938.7578.95703-.7578-.95703-1.01172v-2.96875l3.7461 3.98047-3.7461 2.97265"/><path fill="#00d4fc" fill-rule="evenodd" d="M312.65625 423.38672l-1.10938-.75781 1.10938-1.01172.95703 1.01172-.95703.7578"/><path fill="#00e8fc" fill-rule="evenodd" d="M321.53516 421.8164l-3.4375-3.625 3.4375-1.17187 1.6289 1.17188 2.8086 4.24609.23437.1914-.23437.11329-1.14454-.11328-3.29296-.8125m13.3125 2.44921l-2.39454-1.63671 2.39454-2.16016 2.27343 2.16016-2.27343 1.63671m11.2578 7.2422l-2.36327-4.4375 4.42187-2.89454 3.375 2.89453 1.0625 1 4.4375-1 .0039-.0039 4.4375-4.19141 4.4375.01172v1.29687l-4.4375 1.03516-1.95702 1.85156-2.48047.95313-4.4414 2.1211-3.26563-3.07423-1.17188-1.00781-1.53515 1.00781 1.53515 3.45313.83203.98437-.83203 1.11719-.82031 3.32031.82031.84766 4.4375 3.4375 4.4414-.72656 3.20704-3.5586 1.03125-4.4375.19922-.79297 1.21875.79297 3.21875 1.375 1.00781-1.375 1.88672-4.4375-2.89453-2.88672v-1.29687l4.1914 4.1836-.96484 4.4375-3.22656 4.40624-4.4375-.74219-.1836.77344.1836 2.16016.70703 2.27734-.70703.69531-4.4375.16407-4.4414 1.19531-2.14454-2.05469-2.29297-1.71484-2.63672-2.72266.57813-4.4375"/><path fill="#00d4fc" fill-rule="evenodd" d="M348.16406 430.52344l-1.53515-3.45313 1.53515-1.00781 1.17188 1.00781 3.26562 3.07422 4.4414-2.1211v.95313l-3.93358 2.53125-.50782.45313-3.75 3.98437 3.75 3.21485 4.4414-.8125 2.16407-2.40235.91016-4.4375-3.07422-2.53125v-.95312l2.48047-.95313 1.95703-1.85156 4.4375-1.03516v1.29297l-3.78516 1.59375 3.78516 3.07031 1.59375-3.0703-1.59375-1.59376v-1.29297l2.89453 2.88672-1.88672 4.4375-1.00781 1.375-3.21875-1.375-1.21875-.79297-.19922.79297-1.03125 4.4375-3.20703 3.5586-4.4414.72656-4.4375-3.4375-.82032-.84766.82031-3.32031.83203-1.11719-.83203-.98437"/><path fill="#00c4fc" fill-rule="evenodd" d="M352.60156 439.16016l-3.75-3.21485 3.75-3.98437.50781-.45313 3.9336-2.53125v.95313l-2.44922 1.57812-1.99219 1.77735-2.5039 2.66015 2.5039 2.14453 4.4414-.90234 1.1172-1.24219.79687-4.4375-1.91406-1.57812v-.95313l3.07422 2.53125-.91016 4.4375-2.16406 2.40235-4.4414.8125"/><path fill="#00b8fc" fill-rule="evenodd" d="M352.60156 438.08984l-2.5039-2.14453 2.5039-2.66015 1.99219-1.77735 2.44922-1.57812v.95703l-.96485.6211-3.47656 3.10546-1.2539 1.33203 1.2539 1.07422 4.4414-.99219.07423-.08203.67969-4.4375-.75391-.6211v-.95702l1.91406 1.57812-.79687 4.4375-1.1172 1.24219-4.4414.90234"/><path fill="#00a8fc" fill-rule="evenodd" d="M352.60156 437.01953l-1.2539-1.07422 1.2539-1.33203v1.32422l-.0039.00781.0039.0039.02344-.0039-.02344-.00781v-1.32422l3.47656-3.10547.96485-.6211.7539.6211-.67968 4.4375-.07422.08203-4.4414.9922"/><path fill="#009800" fill-rule="evenodd" d="M352.60156 435.94922l-.0039-.0039.0039-.00782.02344.00781-.02344.0039"/><path fill="#00c4fc" fill-rule="evenodd" d="M365.91797 430.14063l-3.78516-3.07032 3.78516-1.59375v1.29688l-.70313.29687.70313.5664.29687-.5664-.29687-.29687v-1.29688l1.59375 1.59375-1.59375 3.07031"/><path fill="#00b8fc" fill-rule="evenodd" d="M365.91797 427.63672l-.70313-.5664.70313-.29688.29687.29687-.29687.5664"/><path fill="#00e8fc" fill-rule="evenodd" d="M374.79297 452.60156l-1.625-3.33984 1.51562-4.4414.10938-.14063 2.98828-4.29688-1.97656-4.4375 3.42969-3.72265v1.5664l-1.98438 2.15625 1.98438 3.04297 1.63671 1.39453-1.63671 2.54688-1.44141 1.89062-2.08203 4.4414 1.72265 4.4375 1.80079 1.96095 2.76953-1.96094 1.66796-1.78516 4.4375.51563.35157 1.26953.79297 4.4375.1953 4.4375 3.09767 3.0039 4.4375-.14062 4.4414.61328 4.4375-.07422 4.4375-.92187 4.4375-1.85938 3.60547-.6211.83594-.15624 3.76953-4.28125.61328-4.4375-4.38281-3.73438-2.40625-.70312-2.03516-1.5-2.23047 1.5-2.20703.9336-4.4375-.26563-2.60156-.66797-1.83594-1-2.26953-3.4414-.76172-4.4375-1.41015-1.46876-4.4375-.72265-4.25782 2.1914-.17969.30469-.1875-.30469-1.92968-4.4375-2.32031-2.0039-4.4375-.15235v-1.5664l4.4375.03515 4.27343 3.6875.16406.36328 4.4375-.07421 1.64454-.28907 2.79296-1.10937 1.57032 1.10937 2.8711 3.07813 1.27733 1.35937 3.16016 2.39453 2.11719 2.04297 2.32031 3.27735 4.4375-2.1211 2.88281-1.15625 1.17188-4.4375.38672-.36719.38281.3672 1.95703 4.4375-2.23047 4.4414 4.32813.96094 2.34765 3.47656.17579 4.4375-2.52344 1.86719-2.1914 2.5703-2.2461 2.34767-4.4414.27734-4.4375.8789-4.4375.4922-4.4375-.00782-4.44142-.30469-4.4375.2539-4.05859-3.9375-.23437-4.4375-.14454-.84765-1.62109.84766-2.8164 3.01172-4.08204-3.01172-.35546-.05469-4.02735-4.38281-.41406-1.09766"/><path fill="#00d4fc" fill-rule="evenodd" d="M377.4336 453.69922l-1.72266-4.4375 2.08203-4.4414 1.4414-1.89063v3.83594l-1.42968 2.49609 1.42969 3.46484 3.16015-3.46484-3.16015-2.4961v-3.83593l1.63671-2.54688-1.63671-1.39453-1.98438-3.04297 1.98438-2.15625v1.57031l-.54297.58594.54296.82813 4.23829 3.60937.19921.19531v2.57813l-2.57812 1.66406 2.57813 2.09766 2.23046-2.09766-2.23046-1.66406v-2.57813l.29687-.1953.07422-4.4375-.3711-.32032-4.4375-.26563v-1.5703l4.4375.15234 2.32032 2.0039 1.92969 4.4375.1875.30469.17968-.30469 4.25781-2.1914v1.95703l-.46093.23437-1.85547 4.4375-1.74219 4.4414.875 4.4375.89063 4.4375.15625 4.4375 2.13671 2.07423 4.4375-.02735 4.44141.91407 4.4375-.15235 4.4375-1.34765 2.99219-1.46094 1.44531-1.65625 4.4414-.71094 1.82423-2.07031 1.72265-4.4375-3.54687-3.02344-4.4414-1.27734-4.4375 1.92187-4.4375 1.28516-4.4375.99219-2.11329-4.33594-2.32813-3.04297-2.27734-1.39844-1.4414-4.4375-.71875-.23437v-1.95703l4.4375.72265 1.41015 1.46875.76172 4.4375 2.26953 3.4414 1.83594 1 2.60156.66798 4.4375.26562 2.20703-.9336 2.23047-1.5 2.03516 1.5 2.40625.70313 4.38281 3.73438-.61328 4.4375-3.76953 4.28125-.83594.15625-3.60547.6211-4.4375 1.85937-4.4375.92187-4.4375.07422-4.4414-.61328-4.4375.14063-3.09766-3.00391-.19531-4.4375-.79297-4.4375-.35156-1.26953-4.4375-.51563-1.66797 1.78516-2.76954 1.96094-1.80078-1.96094"/><path fill="#00c4fc" fill-rule="evenodd" d="M379.23438 452.72656l-1.4297-3.46484 1.4297-2.4961 3.16015 2.4961-3.16015 3.46484m0-15.95312l-.54297-.82813.54296-.58594 4.4375.26563.3711.32031-.07422 4.4375-.29688.19531-.19921-.1953-4.23829-3.60938"/><path fill="#00e8fc" fill-rule="evenodd" d="M383.67188 443.15625l-2.57813 1.66406 2.57813 2.09766 2.23046-2.09766-2.23046-1.66406"/><path fill="#00c4fc" fill-rule="evenodd" d="M389.36328 453.69922l-.875-4.4375 1.74219-4.4414 1.85547-4.4375.46094-.23438.71875.23437 1.4414 4.4375 2.27735 1.39844v3.1836l-4.4375.78515-2.28125 3.51172.98828 4.4375.11718 4.4375 1.17579 1.14062 4.4375.08594 4.4414 1.22266 4.4375-.23828 4.4375-1.77344.89453-.4375 3.54297-4.0625 3.17969-.375 1.26172-.08203 2.71484-4.35547-2.71484-2.3125-4.4414-1.125-4.4375 2.17969-2.89845 1.2578-1.53906.51954-4.4375.28516-1.13672-.8047-3.30469-4.29687v-3.18359l2.32813 3.04297 2.11328 4.33594 4.4375-.9922 4.4375-1.28515 4.4375-1.92187 4.4414 1.27734 3.54688 3.02344-1.72265 4.4375-1.82422 2.07031-4.4414.71094-1.44532 1.65625-2.99219 1.46094-4.4375 1.34765-4.4375.15235-4.4414-.91407-4.4375.02735-2.13672-2.07422-.15625-4.4375-.89063-4.4375"/><path fill="#00b8fc" fill-rule="evenodd" d="M391.2539 458.13672l-.98827-4.4375 2.28125-3.51172 4.4375-.78516v1.50391l-4.4375.67188-1.37891 2.12109 1.08594 4.4375.07812 4.4375.21485.21094 4.4375.19921 4.4414 1.52735 4.4375-.32031 3.66797-1.6172.76953-1.98046 2.02735-2.45703 2.41015-.98047 4.4414-.4414 1.87891-3.01563-1.8789-1.60156-4.4414-.96875-4.4375 2.4375-.3047.1328-4.1328 1.40235-4.4375.22266-2.29298-1.625-2.14844-2.79297v-1.5039l3.3047 4.29687 1.13671.80469 4.4375-.28516 1.53906-.51953 2.89844-1.25781 4.4375-2.1797 4.4414 1.125 2.71485 2.3125-2.71484 4.35548-1.26172.08203-3.17969.375-3.54297 4.0625-.89453.4375-4.4375 1.77344-4.4375.23828-4.4414-1.22266-4.4375-.08594-1.17579-1.14062-.11718-4.4375"/><path fill="#00a8fc" fill-rule="evenodd" d="M392.2539 458.13672l-1.08593-4.4375 1.3789-2.1211 4.4375-.67187v1.50781l-4.4375.55078-.47656.73438.47656 1.89453.7422 2.54297 3.6953 3.88672.6797.55078 3.76171 1.42187 4.4375-.39843 2.3164-1.02344 1.64844-4.4375-3.96484-2.15235-4.4375.16016-3.44922-2.44531-.99219-1.28516v-1.50781l2.14844 2.79297 2.29297 1.625 4.4375-.22266 4.13281-1.40234.3047-.13281 4.4375-2.4375v.86328l-3.06642 1.70703 3.06641 2.29297 4.4414-.61719 1.04298-1.67578-1.04297-.89063-4.4414-.8164v-.86328l4.4414.96875 1.8789 1.60156-1.8789 3.01562-4.4414.44141-2.41017.98047-2.02734 2.45703-.76953 1.98047-3.66797 1.61719-4.4375.3203-4.4414-1.52733-4.4375-.19922-.21485-.21094-.07812-4.4375"/><path fill="#009800" fill-rule="evenodd" d="M392.54688 455.59375l-.47657-1.89453.47656-.73438 4.4375-.55078v1.52735l-2.64062 4.1953 2.64063 2.78126 2.03906 1.65625 2.40234.91015 4.4375-.48046.97266-.4297 1.3711-4.4375-2.34376-1.27343-4.4375.10156-4.4414-3.02343v-1.52735l.99218 1.28516 3.44922 2.44531 4.4375-.16015 3.96485 2.15234-1.64844 4.4375-2.3164 1.02344-4.4375.39843-3.76173-1.42187-.67969-.55078-3.6953-3.88672-.7422-2.54297"/><path fill="#00ac00" fill-rule="evenodd" d="M396.98438 460.91797l-2.64063-2.78125 2.64063-4.19531v1.66796l-1.58985 2.52735 1.58985 1.67578 3.39453 2.76172 1.04687.39844 3.25781-.39844 1.1797-1.71485.71874-2.72265-.71875-.39063-4.4375.03516-4.4414-2.17188v-1.66796l4.4414 3.02343 4.4375-.10156 2.34375 1.27344-1.3711 4.4375-.97265.42969-4.4375.48046-2.40234-.91015-2.03906-1.65625"/><path fill="#00c800" fill-rule="evenodd" d="M396.98438 459.8125l-1.58985-1.67578 1.58985-2.52735 4.4414 2.17188 4.4375-.03516.71875.39063-.71875 2.72265-1.17969 1.71485-3.2578.39844-1.04688-.39844-3.39454-2.76172"/><path fill="#009800" fill-rule="evenodd" d="M414.73828 455.99219l-3.0664-2.29297 3.0664-1.70703v.86719l-1.51172.83984 1.51172 1.1289 4.4414-.79296.20704-.33594-.20703-.17969-4.4414-.66015v-.8672l4.4414.81641 1.04297.89063-1.04297 1.67578-4.4414.61719"/><path fill="#00ac00" fill-rule="evenodd" d="M414.73828 454.82813l-1.51172-1.12891 1.51172-.83985 4.4414.66016.20704.17969-.20703.33594-4.4414.79296"/><path fill="#00e8fc" fill-rule="evenodd" d="M432.49219 456.72656l-1.47656-3.02734 1.47656-1.39844 4.4375-1.69922.83984-1.33984 2.85547-4.4414.7461-.80079 4.4375-1.26172v3.35156l-3.25391 3.15235 3.2539.88281.87891-.88281-.8789-3.15235v-3.35156l2.1914 2.0625.55078 4.4414-2.74219 2.76173-4.4375.51172-1.76562 1.16406-2.67578 1.42187-4.4375 1.60547"/><path fill="#00d4fc" fill-rule="evenodd" d="M445.8086 450.14453l-3.25391-.88281 3.2539-3.15235.87891 3.15235-.8789.88281"/><path fill="#50fcfc" fill-rule="evenodd" d="M445.8086 436.98438l-1.02344-1.03907 1.02343-.90234.95704.90234-.95704 1.03906"/><g clip-path="url(#c)"><path fill="#fff" fill-opacity="0" fill-rule="evenodd" d="M467.9961 480.32813H468V311.67188h-.0039H468v168.65625h-.0039"/></g><path fill="#fff" fill-opacity="0" fill-rule="evenodd" d="M317.75781 430.10156l5.82813.41016.69531-9.9375-5.82813-.40625-.6953 9.9336"/><path fill-rule="evenodd" d="M321.8164 422.24219l.50782.03515-.4414 6.27735-.78126-.05469.3125-4.47656-1.38672-.09766.03907-.55469.5625-.02734.2578-.03516.23438-.07421.21094-.125.1914-.19922.16016-.28125.13282-.38672"/><path fill="#fff" fill-opacity="0" fill-rule="evenodd" d="M340.72266 425.38672l5.09765 2.84765 4.85938-8.6953-5.10156-2.84766-4.85547 8.6953"/><path fill-rule="evenodd" d="M347.74219 419.9961l.4414.25-3.0703 5.49609-.6875-.38672 2.1914-3.91797-1.21094-.67578.26953-.48828.51953.21875.2461.07422.24609.03515.2461-.02344.2539-.09765.26563-.1914.28906-.29298"/><path fill="#fff" fill-opacity="0" fill-rule="evenodd" d="M438.70703 452.58594l3.6836-4.53516-7.73047-6.28125-3.6836 4.53125 7.73047 6.28516"/><path fill-rule="evenodd" d="M434.60547 444.74219l.32031-.39453 4.88672 3.96875-.4961.61328-3.48437-2.83203-.8789 1.07812-.4297-.35156.30079-.47656.1211-.23047.07421-.23438.01563-.2461-.05079-.26562-.14062-.29687-.23828-.33203"/><path fill="#fff" fill-opacity="0" fill-rule="evenodd" d="M233.83984 438.45313l5.83985-.07422-.1211-9.95704-5.84375.07032.125 9.96094"/><path fill-rule="evenodd" d="M237.23828 430.28125l.50781-.0039.07813 6.29296-.78906.00781-.0547-4.48828-1.38671.01954-.00781-.5586.5586-.07031.2539-.0586.22656-.08984.20313-.14453.17187-.21094.13672-.29687.10156-.39844"/><path fill="#fff" fill-opacity="0" fill-rule="evenodd" d="M412.35547 469.41797l7.60547-2.21875-2.85156-9.78516-7.60938 2.21875 2.85547 9.78516"/><path fill-rule="evenodd" d="M412.39453 460.69922l3.15625-.92188.20703.71094-2.53125.73828.28125 1.79688.17188-.21875.22265-.20313.28516-.17578.35938-.13672.3203-.0664.34766-.01172.35938.04687.35937.1211.34375.19921.16016.13672.15234.16016.13672.1836.125.21093.10938.23828.09375.26953.08984.4336.01953.42969-.0586.41796-.13671.39454-.21484.35546-.13672.16016-.16016.15234-.1836.13282-.20312.12109-.22265.10156-.2461.08594-.46094.09766-.41015.01171-.36719-.0625-.32422-.1289-.28515-.1875-.2461-.23828-.21484-.28125-.1836-.3164.75391-.22267.14063.20313.15625.16797.17187.14062.1836.10938.1914.07031.20703.03516.21875-.00781.23047-.04297.29297-.11329.25-.14843.20313-.17969.15234-.21875.09765-.2539.04297-.28516-.01562-.32031-.07422-.35157-.09375-.2461-.13281-.23437-.16797-.21093-.20313-.17579-.23828-.1328-.27344-.07813-.30468-.01563-.33594.0625-.3125.1289-.23828.1836-.21094.2539-.22265.34767-.66797.1953-.51563-3.41796"/><g clip-path="url(#d)"><path fill="none" stroke="#000" stroke-linecap="round" stroke-linejoin="round" stroke-miterlimit="10" stroke-width=".5" d="M147.10938 478.69531l-6.21875 3.26563"/></g><g clip-path="url(#e)"><path fill="none" stroke="#000" stroke-linecap="round" stroke-linejoin="round" stroke-miterlimit="10" stroke-width=".5" d="M146.20703 479.17188l1.01172.6914"/></g><g clip-path="url(#f)"><path fill="none" stroke="#000" stroke-linecap="round" stroke-linejoin="round" stroke-miterlimit="10" stroke-width=".5" d="M160.3164 478.5l-6.0039 3.65625"/></g><path fill="none" stroke="#000" stroke-linecap="round" stroke-linejoin="round" stroke-miterlimit="10" stroke-width=".5" d="M159.4414 479.03516l1.0586.625"/><g clip-path="url(#g)"><path fill="none" stroke="#000" stroke-linecap="round" stroke-linejoin="round" stroke-miterlimit="10" stroke-width=".5" d="M174.04297 479.48828l-6.82422 1.6836"/></g><g clip-path="url(#h)"><path fill="none" stroke="#000" stroke-linecap="round" stroke-linejoin="round" stroke-miterlimit="10" stroke-width=".5" d="M173.05078 479.73047l.8164.91406"/></g><g clip-path="url(#i)"><path fill="none" stroke="#000" stroke-linecap="round" stroke-linejoin="round" stroke-miterlimit="10" stroke-width=".5" d="M187.44922 480.09766l-7.01172.46484"/></g><g clip-path="url(#j)"><path fill="none" stroke="#000" stroke-linecap="round" stroke-linejoin="round" stroke-miterlimit="10" stroke-width=".5" d="M186.42969 480.16406l.64844 1.04297"/></g><g clip-path="url(#k)"><path fill="none" stroke="#000" stroke-linecap="round" stroke-linejoin="round" stroke-miterlimit="10" stroke-width=".5" d="M200.77344 480.45313l-7.02344-.25"/></g><g clip-path="url(#l)"><path fill="none" stroke="#000" stroke-linecap="round" stroke-linejoin="round" stroke-miterlimit="10" stroke-width=".5" d="M200.77344 480.45313l1.07031 2.20703"/></g><g clip-path="url(#m)"><path fill="none" stroke="#000" stroke-linecap="round" stroke-linejoin="round" stroke-miterlimit="10" stroke-width=".5" d="M214.04297 479.76563l-6.9375 1.125"/></g><g clip-path="url(#n)"><path fill="none" stroke="#000" stroke-linecap="round" stroke-linejoin="round" stroke-miterlimit="10" stroke-width=".5" d="M213.03516 479.92969l.74218.97656"/></g><g clip-path="url(#o)"><path fill="none" stroke="#000" stroke-linecap="round" stroke-linejoin="round" stroke-miterlimit="10" stroke-width=".5" d="M227.15625 479.03125l-6.53125 2.59766"/></g><g clip-path="url(#p)"><path fill="none" stroke="#000" stroke-linecap="round" stroke-linejoin="round" stroke-miterlimit="10" stroke-width=".5" d="M226.20703 479.40625l.9336.79688"/></g><g clip-path="url(#q)"><path fill="none" stroke="#000" stroke-linecap="round" stroke-linejoin="round" stroke-miterlimit="10" stroke-width=".5" d="M240.625 479.52344l-6.83984 1.61328"/></g><g clip-path="url(#r)"><path fill="none" stroke="#000" stroke-linecap="round" stroke-linejoin="round" stroke-miterlimit="10" stroke-width=".5" d="M239.6289 479.75781l.8086.92188"/></g><g clip-path="url(#s)"><path fill="none" stroke="#000" stroke-linecap="round" stroke-linejoin="round" stroke-miterlimit="10" stroke-width=".5" d="M254 479.83203l-6.95703.99219"/></g><g clip-path="url(#t)"><path fill="none" stroke="#000" stroke-linecap="round" stroke-linejoin="round" stroke-miterlimit="10" stroke-width=".5" d="M252.98828 479.97656l.72266.99219"/></g><g clip-path="url(#u)"><path fill="none" stroke="#000" stroke-linecap="round" stroke-linejoin="round" stroke-miterlimit="10" stroke-width=".5" d="M267.30469 480.8789l-6.9375-1.10156"/></g><g clip-path="url(#v)"><path fill="none" stroke="#000" stroke-linecap="round" stroke-linejoin="round" stroke-miterlimit="10" stroke-width=".5" d="M266.29688 480.71875l.39843 1.16016"/></g><g clip-path="url(#w)"><path fill="none" stroke="#000" stroke-linecap="round" stroke-linejoin="round" stroke-miterlimit="10" stroke-width=".5" d="M280.65234 480.6211l-7.0039-.58594"/></g><g clip-path="url(#x)"><path fill="none" stroke="#000" stroke-linecap="round" stroke-linejoin="round" stroke-miterlimit="10" stroke-width=".5" d="M279.63281 480.53516l.48438 1.1289"/></g><g clip-path="url(#y)"><path fill="none" stroke="#000" stroke-linecap="round" stroke-linejoin="round" stroke-miterlimit="10" stroke-width=".5" d="M293.72266 481.64844l-6.51172-2.64063"/></g><g clip-path="url(#z)"><path fill="none" stroke="#000" stroke-linecap="round" stroke-linejoin="round" stroke-miterlimit="10" stroke-width=".5" d="M307.19531 481.16406l-6.82812-1.67187"/></g><g clip-path="url(#A)"><path fill="none" stroke="#000" stroke-linecap="round" stroke-linejoin="round" stroke-miterlimit="10" stroke-width=".5" d="M306.19922 480.92188l.30469 1.1875"/></g><g clip-path="url(#B)"><path fill="none" stroke="#000" stroke-linecap="round" stroke-linejoin="round" stroke-miterlimit="10" stroke-width=".5" d="M320.125 478.54688l-6.0586 3.5625"/></g><g clip-path="url(#C)"><path fill="none" stroke="#000" stroke-linecap="round" stroke-linejoin="round" stroke-miterlimit="10" stroke-width=".5" d="M332.1875 477.29688l-3.55078 6.0625"/></g><path fill="none" stroke="#000" stroke-linecap="round" stroke-linejoin="round" stroke-miterlimit="10" stroke-width=".5" d="M331.67188 478.17969l1.22265.05078"/><g clip-path="url(#D)"><path fill="none" stroke="#000" stroke-linecap="round" stroke-linejoin="round" stroke-miterlimit="10" stroke-width=".5" d="M345.22266 477.14844l-2.9922 6.35937"/></g><path fill="none" stroke="#000" stroke-linecap="round" stroke-linejoin="round" stroke-miterlimit="10" stroke-width=".5" d="M344.78516 478.07422l1.22656-.0586"/><g clip-path="url(#E)"><path fill="none" stroke="#000" stroke-linecap="round" stroke-linejoin="round" stroke-miterlimit="10" stroke-width=".5" d="M358.73828 477.2539l-3.39453 6.15235"/></g><g clip-path="url(#F)"><path fill="none" stroke="#000" stroke-linecap="round" stroke-linejoin="round" stroke-miterlimit="10" stroke-width=".5" d="M371.16797 476.91016l-1.625 6.83593"/></g><g clip-path="url(#G)"><path fill="none" stroke="#000" stroke-linecap="round" stroke-linejoin="round" stroke-miterlimit="10" stroke-width=".5" d="M380.17578 479.98047l6.99219.69922"/></g><g clip-path="url(#H)"><path fill="none" stroke="#000" stroke-linecap="round" stroke-linejoin="round" stroke-miterlimit="10" stroke-width=".5" d="M397.5625 476.86328l-1.15234 6.92969"/></g><path fill="none" stroke="#000" stroke-linecap="round" stroke-linejoin="round" stroke-miterlimit="10" stroke-width=".5" d="M397.39453 477.8711l1.16406-.39063"/><g clip-path="url(#I)"><path fill="none" stroke="#000" stroke-linecap="round" stroke-linejoin="round" stroke-miterlimit="10" stroke-width=".5" d="M410.65625 483.82422l-.71094-6.99219"/></g><g clip-path="url(#J)"><path fill="none" stroke="#000" stroke-linecap="round" stroke-linejoin="round" stroke-miterlimit="10" stroke-width=".5" d="M425.89063 483.00781l-4.54688-5.35937"/></g><g clip-path="url(#K)"><path fill="none" stroke="#000" stroke-linecap="round" stroke-linejoin="round" stroke-miterlimit="10" stroke-width=".5" d="M439.98828 482.0625l-6.11328-3.46875"/></g><g clip-path="url(#L)"><path fill="none" stroke="#000" stroke-linecap="round" stroke-linejoin="round" stroke-miterlimit="10" stroke-width=".5" d="M453.32813 482.01953l-6.16016-3.38281"/></g><g clip-path="url(#M)"><path fill="none" stroke="#000" stroke-linecap="round" stroke-linejoin="round" stroke-miterlimit="10" stroke-width=".5" d="M466.41406 482.38281l-5.70312-4.10547"/></g><g clip-path="url(#N)"><path fill="none" stroke="#000" stroke-linecap="round" stroke-linejoin="round" stroke-miterlimit="10" stroke-width=".5" d="M147.33984 465.91797l-6.67968 2.1914"/></g><path fill="none" stroke="#000" stroke-linecap="round" stroke-linejoin="round" stroke-miterlimit="10" stroke-width=".5" d="M147.33984 465.91797l1.76953 1.69922m11.67579-1.15625l-6.94141 1.10547m6.9414-1.10547l1.48048 1.95703m11.8789-1.38672l-7.02734-.03516m7.02734.03516l1.14063 2.17188m12.14062-1.70704l-6.96094-.96484m6.96094.96484l.84375 2.3047m12.46484-2.25l-6.9453-1.07423m6.9453 1.07422l.8047 2.3164m12.55077-2.85156h-7.02734m7.02734 0l1.15235 2.16407m12.16015-2.15625l-7.02734-.01953m7.02734.01953l1.14453 2.17187m12.12891-2.73828l-6.9414 1.11328m6.9414-1.11328l1.48047 1.96094m11.85547-1.8086l-6.98047.8086m6.98047-.8086l1.39062 2.01954m11.94532-1.5586l-7.02344-.11328m7.02344.11328l1.11718 2.1875m12.12891-1.54297l-6.88672-1.40234m5.88672 1.19531l.34766 1.17969m13.79297-.38281l-6.53516-2.58203m5.58203 2.20703l.14063 1.21875m14.11718-.82422l-6.51953-2.6211m5.57422 2.23829l.1289 1.22265m14.3711-2.46484l-6.9961.6289m5.98048-.53906l.66796 1.03125m13.375-2.23437l-6.42187 2.85547m5.48828-2.4375l.96484.7539m12.875-1.86328l-5.60156 4.23828m4.78516-3.6211l1.11328.51563m12.75-1.44921l-5.0664 4.87109m4.32812-4.16406l1.16797.3828m12.73437-1.23827l-4.76172 5.16797m17.15625-5.78125l-2.92187 6.39453m15.1836.29297l-.81642-6.98047m.69532 5.96484l-1.00781.69922m14.58203.29688l-1.09375-6.94141m.93359 5.92969l-.98047.73828m16.53516-.85938l-5.25-4.67578m4.48437 3.9961l-.28906 1.1914m14.79297-1.10156l-6.09766-3.4961m5.21094 2.98438l-.03906 1.22656m13.33594.32032l-4.28907-5.56641m15.92188 6.26562l-.92578-6.96484m.79296 5.95313l-1 .71093"/><g clip-path="url(#O)"><path fill="none" stroke="#000" stroke-linecap="round" stroke-linejoin="round" stroke-miterlimit="10" stroke-width=".5" d="M147.51172 453.79688l-7.02344-.19532"/></g><path fill="none" stroke="#000" stroke-linecap="round" stroke-linejoin="round" stroke-miterlimit="10" stroke-width=".5" d="M147.51172 453.79688l1.09375 2.1953m12.21484-2.08202l-7.01172-.42188m7.01172.42188l1.01953 2.23047m12.27735-2.02344l-6.97656-.83985m6.97656.83985l.88672 2.28906m12.4375-2.35547l-6.9922-.70312m6.9922.70312l.92968 2.26953m12.26953-1.66797l-6.76171-1.90625m6.76172 1.90625l.52343 2.39844m12.86328-2.70312l-6.90625-1.29688m6.90625 1.29688l.73438 2.34375m12.63281-2.72657l-7.00781-.53515m7.00781.53515l.98438 2.25m12.29687-3.07812l-6.9375 1.1211m6.9375-1.1211l1.48047 1.95703m11.79688-2.13672l-6.8672 1.48438m6.8672-1.48438l1.58593 1.875m11.80469-1.32422l-7.01563.38282m7.01563-.38282l1.26953 2.09766m12.04688-2.10938l-7.01563.40625m7.01563-.40625l1.27343 2.09375m12.04297-2.05468l-7.01953.32812m7.01953-.32812l1.25 2.10937m12.0586-1.71875l-7.01172-.45703m5.99219.39063l.5039 1.12109m13.83985-1.25781l-7.02735-.04688m6.0039.03906l.57032 1.08985m13.40234-2.66797l-6.29296 3.125m5.375-2.67188l1 .71485m13.1953-1.23828l-6.22265 3.26562m5.32031-2.79297l1.01172.6914m12.78907-1.78905l-5.38672 4.51562m4.60156-3.85937l1.13672.46093m12.8164-1.28125l-5.09375 4.84375m4.35157-4.14062l1.16406.39062m8.85156-1.85156l2.98828 6.35938m-2.55078-5.4336l.73438-.98437m10.2578 4.1914l6.76173-1.91015m-5.77735 1.63281l-.85156-.88281m14.76953 3.22656l3.58594-6.04297m-3.0625 5.16406l-1.22656-.05468m15.54297 1.41797l.53906-7.00782m-.46094 5.98828l-1.125.48828m14.79688.53516l-.33203-7.01953m.28515 6l-1.05469.625m13.0625.1914l2.37891-6.61327m-2.03516 5.65234l-1.21484.17578m14.74219.9375l1.26562-6.91406m-1.26562 6.91406l-2.33985.74219"/><g clip-path="url(#P)"><path fill="none" stroke="#000" stroke-linecap="round" stroke-linejoin="round" stroke-miterlimit="10" stroke-width=".5" d="M147.51172 440.51172l-7.02344-.25781"/></g><path fill="none" stroke="#000" stroke-linecap="round" stroke-linejoin="round" stroke-miterlimit="10" stroke-width=".5" d="M147.51172 440.51172l1.07031 2.20703m-2.09375-2.2461l.53906 1.10548m13.76172-.66797l-6.94922-1.05078m6.94922 1.05078l.8164 2.3125m-1.82812-2.46875l.41016 1.16015m13.73828-.3125l-6.58984-2.4336m6.58984 2.4336l.33203 2.42969m13.08203-2.73828l-6.78906-1.82031m6.78906 1.8203l.55078 2.39063m12.79297-2.5039l-6.84375-1.58985m6.84375 1.58985l.62891 2.3711m12.77734-3.19141l-7.02734.04687m7.02734-.04688l1.16407 2.16016m12.08984-1.48828l-6.90625-1.29688m6.90625 1.29688l.73047 2.34375m12.51953-2.0586l-6.77734-1.86327m5.78906 1.58984l.26953 1.19922m14.15625-1.96485l-7.02344.21485m7.02344-.21485l1.21875 2.12891m12.05469-2.57813l-6.9375 1.11329m6.9375-1.11328l1.48047 1.95703m11.8125-2.08985l-6.89063 1.3789m5.88672-1.17968l.77734.94922m13.59766-.73437l-7.00781.54687m5.98828-.46484l.66015 1.03515m13.40625-2.21093l-6.46875 2.73828m5.52735-2.33985l.95312.76953m12.8125-1.99609l-5.48828 4.39063m4.6914-3.75l1.125.48437m12.50782-1.61328l-4.53125 5.3711m3.8711-4.58985l1.19921.25781m12.3711-1.33594l-3.71875 5.96094m3.17578-5.09375l1.22656.08594m10.92969-1.48047l-.3164 7.01953m10.51171-5.40234l5.92188 3.78515m7.48046.125l5.75-4.03906m-4.91406 3.45313l-1.09375-.5586m12.97266-1.39843l6.94922 1.04687m-5.9375-.89453l-.41016-1.15625m13.3789 3.64062l5.6172-4.22265m-5.6172 4.22265l-2.22265-1.03906m15.44531.90625l5.8047-3.96094m-5.8047 3.96094l-2.17187-1.14062m16.6875 2.23437l3.40234-6.14844m-3.40234 6.14844l-2.45313-.03906m17.25.47266l.44141-7.01172m-.4414 7.01172l-2.23438 1.01171m15.41015-1.02343l.71875-6.9922m-.71875 6.9922l-2.27343.92578"/><g clip-path="url(#Q)"><path fill="none" stroke="#000" stroke-linecap="round" stroke-linejoin="round" stroke-miterlimit="10" stroke-width=".5" d="M147.51172 427.07813l-7.02344-.01954"/></g><path fill="none" stroke="#000" stroke-linecap="round" stroke-linejoin="round" stroke-miterlimit="10" stroke-width=".5" d="M147.51172 427.07813l1.14844 2.17187m12.15625-1.8789l-7.00391-.60157m7.0039.60156l.96094 2.25391m12.33594-2.09766l-6.96484-.91797m6.96484.91797l.85938 2.29688m-1.8711-2.42969l.42969 1.14844m13.91016-1.83203l-6.9922.71484m6.9922-.71484l1.36718 2.03515m11.94922-2l-6.9961.64453m6.9961-.64453l1.34766 2.05078m11.91406-1.03515l-6.88672-1.38672m5.88281 1.1836l.35157 1.17577m13.3789.37891l-5.71093-4.08984m4.8789 3.4961l-.16015 1.21484m13.91015-.15625l-4.91797-5.01954m4.20313 4.28907l-.3711 1.16796m14.59375-.64062l-5.30078-4.61328m4.52735 3.9414l-.27735 1.19532m15.21094-2.4961l-6.99219-.66797m5.97657.57032l.46875 1.13672m13.87109-1.14063l-7.01172-.46484m5.99219.39844l.5039 1.11718m13.83594-1.3789l-7.02344.1914M292.95704 427l.60547 1.0664m12.92969-3.23046l-5.42578 4.46484m4.63671-3.8164l1.13282.47265m12.32422-1.73437l-4.125 5.6914m3.52343-4.86328l1.21485.17188m10.53906-1.66797l.19531 7.02734m13.25781-7.02734l-.07812 7.02734m14.57813-6.8086l-2.44922 6.58985m2.09375-5.6289l1.21484-.16407m7.74219 2.07813l6.97656.83984m-5.96094-.71875l-.4414-1.14062m13.46875 3.61328l5.52343-4.34766m-4.71875 3.71485l-1.125-.4961m13.94922-3.5664l4.89453 5.04296m-4.18359-4.30859l.3789-1.16797m12.19141 5.4414l4.96094-4.97265m-4.96094 4.97266l-2.34765-.71094m15.87109.90234l4.54688-5.35546m-4.54688 5.35546l-2.39844-.51953m3.0586-.25781l-2.39454-.52344m14.53125.75782l5.58204-4.26954m-5.58204 4.26954l-2.23046-1.02344m3.04296.40234l-1.11718-.51172m15.75 2.44922l1.32031-6.90234m-1.32031 6.90234l-2.34375.72266m2.53515-1.72656l-1.17187.36328m14.71875.6953l.47656-7.01171m-.47656 7.01172l-2.23828 1.0039"/><g clip-path="url(#R)"><path fill="none" stroke="#000" stroke-linecap="round" stroke-linejoin="round" stroke-miterlimit="10" stroke-width=".5" d="M147.48828 413.34766l-6.97656.8125"/></g><path fill="none" stroke="#000" stroke-linecap="round" stroke-linejoin="round" stroke-miterlimit="10" stroke-width=".5" d="M147.48828 413.34766l1.39844 2.01562m11.9414-1.70703l-7.02343.1914m7.02344-.1914l1.21093 2.13672m12.10547-2.07813l-7.02734.07813m7.02734-.07813l1.17578 2.15235m12.07031-2.79688L180.5 414.4375m5.89063-1.16797l.77343.94922m13.38281-1.71094l-6.57421 2.48828m5.61718-2.125l.92188.8086m11.67187 3.19922l-3.21484-6.25m14.39844 6.59765l1.04687-6.94922m-.89453 5.9375l-1.15625.41016m14.30078.60156l1.08203-6.94531m-.92578 5.9336l-1.16015.40234m16.84765.03515l-3.97265-5.79687m3.97265 5.79687l-1.13672 2.17578m14.73438-2.39453l-4.54297-5.35937m3.88281 4.57812l-.45312 1.14063M280.5 414.8203l-6.69531-2.13281m5.71875 1.82422l.21875 1.20703m14.04687-3.10547l-6.64844 2.28125m5.6797-1.94922l.89843.83594m12.39453-2.65625l-4.66406 5.25781m3.98437-4.49219l1.19532.28907m12.875-.98438l-4.81641 5.11719m4.11328-4.375l1.1836.32422m6.95312.96875l6.94922 1.04687m8.97265-3.92968l1.73438 6.80859m-1.48438-5.8164l.91016-.82423m13.88281-.16796l-1.72265 6.8125m1.47265-5.82032l1.19141-.29687m10.57422-.67578l1.8789 6.77344m-1.60546-5.78907l.88671-.84375m10.48047.89844l5.22657 4.69531m-5.22657-4.69531l.58985-2.38281m.17187 3.0664l.29297-1.1914m11.875 1.02344l5.9961 3.66406m-5.9961-3.66406l.14844-2.44922m.72265 2.98047l.14844-2.44922m.72656 2.98437l.07032-1.22656m11.5586.0664l5.8789 3.84766m-5.8789-3.84765l.22265-2.44141m.63281 3.0039l.21875-2.4453m.63672 3.0039l.21875-2.44531m10.95312 2.2578l6.7422 1.98438m-6.7422-1.98437l-.49218-2.40235m1.47265 2.69141l-.2461-1.20312m13.32032 4.23437l5.26172-4.65625m-5.26172 4.65625L432 415.22266m3.0664.17968l-1.14843-.42968m15.4336 2.17968l1.78906-6.79687m-1.78907 6.79687l-2.39062.5586m2.65234-1.54688l-1.19531.27735m15.10937.82422l.06641-7.02735m-.05469 6.00781l-1.08984.5625"/><g clip-path="url(#S)"><path fill="none" stroke="#000" stroke-linecap="round" stroke-linejoin="round" stroke-miterlimit="10" stroke-width=".5" d="M147.41797 399.6211l-6.83594 1.6328"/></g><path fill="none" stroke="#000" stroke-linecap="round" stroke-linejoin="round" stroke-miterlimit="10" stroke-width=".5" d="M147.41797 399.6211l1.625 1.83984m11.75-1.52735l-6.95703 1.00782m6.95703-1.00782l1.44922 1.98047m11.73437-2.55078l-6.6914 2.14844M173 399.67578l.88281.85547m12.80469-2.28906l-5.48438 4.39062m4.6875-3.75l1.125.48438m8.33985-1.88281l3.8086 5.90625m7.96093-2.29688l6.90234-1.3086m-5.89843 1.1172l-.76953-.95704m14.02343 2.95313l5.01563-4.92188m-4.28516 4.20703l-1.17187-.37109m13.14843.2539l6.23047-3.2539m-5.32422 2.78125l-1.01172-.69531m17.1797 2.99219l-1.28907-6.90625m1.10156 5.90234l-.95703.76562m14.0586.29297l-.48438-7.01172m.41406 5.98829l-1.03906.65234m16.91797-.9336l-5.47266-4.40625M279.08984 402l-.23047 1.20313m14.66407-4.4922l-6.11719 3.45704m5.22656-2.95703l1.03516.66015m10.8711-2.86328l-1.51563 6.85938m1.29687-5.85938l1.17969-.33203m9.40625.01563l4.3789 5.49609m-3.74218-4.69531l.48828-1.1289m12.96484-.14063l2.82813 6.43359m-2.41797-5.5l.76172-.96094m11.9961.09375l3.12109 6.29688m-3.1211-6.29688l1.42969-1.99219m10.92188 2.69922l5.05078 4.88282m-4.31641-4.17188l.33984-1.17969m15.54297-.51562l-1.55469 6.85156m1.32813-5.85547l1.1836-.32031m14.71093 1.15625l-6.25781 3.1914m6.25781-3.1914l2.01172 1.40625m-2.92188-.94531l2.01172 1.41015m-2.92187-.9453l1.0039.70312m14.08594-1.71485l-6.16797 3.35938m6.16797-3.35938l2.05078 1.35156m-2.9453-.86328l2.04687 1.35157m10.22265-3.48047l-2.28906 6.64062m1.95703-5.67578l1.21094-.1914m8.76953.10156l5.04688 4.89062m-4.3125-4.17969l.33984-1.17578m14.76172 6.42579v-7.02735m0 7.02735l-2.16406 1.15234m2.16406-2.17578l-1.08203.57422m15.125.37109L449.51953 397m1.45313 6.875l-1.88282 1.57422m1.67188-2.57422l-.9414.78906m15.74609-.33984l-4.01172-5.76953m4.01172 5.76953l-1.1172 2.17969"/><g clip-path="url(#T)"><path fill="none" stroke="#000" stroke-linecap="round" stroke-linejoin="round" stroke-miterlimit="10" stroke-width=".5" d="M147.32031 385.97656l-6.64062 2.29297"/></g><path fill="none" stroke="#000" stroke-linecap="round" stroke-linejoin="round" stroke-miterlimit="10" stroke-width=".5" d="M147.32031 385.97656l1.79688 1.67578m11.61328-1.35546l-6.83203 1.65234m6.83203-1.65235l1.6289 1.83594m10.33594-3.85156l-4.13281 5.6836m3.53125-4.85548l1.21484.16797m9.0547-1.29296l3.16015 6.27734m-2.69922-5.36328l.71094-1m10.41015 2.0586l6.6289 2.33202m-6.6289-2.33203l-.36719-2.42578m14.20704 1.45313l5.57812 4.27734m-4.76562-3.65235l.20312-1.21093m18.38672 1.51562l-6.59766 2.41797m5.64063-2.0664l.91406.8203m13.21875-1.5078l-6.3125 3.08984m5.39063-2.64063l.99609.72266m12.60938 2.8125l-5.0547-4.8789m5.0547 4.8789l-.67579 2.35938m14.54297-3.10547l-6.15625-3.38672m6.15625 3.38672l-.03515 2.45312m13.08203-2.03515l-5.6211-4.22266m4.8047 3.60547l-.19141 1.21484m13.9414-.16797l-4.85547-5.07812m4.14844 4.33594l-.38281 1.16796m14.77734-5.08593l-5.60547 4.23828m4.79297-3.6211l1.10938.51563m12.79687-1.39844l-5.16015 4.76953m5.16015-4.76953l2.3164.8086m-3.0664-.11329l2.3164.8086m12.42579-.4375l-6.51172 2.63672m6.51172-2.63672l1.8789 1.57422m11.69141-.28125l-7.02734.05078m7.02734-.05078l1.16797 2.15625m-2.1875-2.14844l1.16797 2.15625m13.16406-1.96485l-7.01953-.34765m7.01953.34765l1.04297 2.21875m-2.0664-2.26953l1.04687 2.21875m-2.0664-2.26953l.52343 1.10938m14.57422-2.51563l-6.5 2.66797m6.5-2.66797l1.89062 1.57031m-2.83593-1.17968l1.88672 1.5664m-2.83204-1.17968l1.88672 1.5664m12.70313-3.33594l-5.26563 4.65235m5.26563-4.65235l2.29687.85938m-3.0625-.1836l2.29688.86329m-3.0625-.1836l1.14844.4297m13.71484-1.76563l-5.30078 4.61328m5.30078-4.61328l2.28906.875m-3.0625-.20313l2.29297.875m-3.0625-.20312l1.14453.4375m13.8125-1.66407l-5.4961 4.37891m5.4961-4.3789l2.25.97656m-3.05078-.33985l2.25.97656m-3.05078-.33984l1.125.48828m14.46875 1.21094l-6.85156-1.5664m6.85156 1.5664l.64062 2.36719m-1.63671-2.59766l.3203 1.1875m11.97657 1.47656l-2.82812-6.43359m2.82812 6.4336l-1.51953 1.92577m1.10937-2.86328l-1.51953 1.9297m16.65625-2.1172l-5.64453-4.18359m5.64453 4.1836l-.36718 2.42577m-.45704-3.03515l-.36328 2.42969m14.8789-2.46485l-6.40233-2.89453m6.40234 2.89453l.16016 2.44922m-1.08985-2.8711l.15625 2.44923m-1.08984-2.8711l.08203 1.22656"/><g clip-path="url(#U)"><path fill="none" stroke="#000" stroke-linecap="round" stroke-linejoin="round" stroke-miterlimit="10" stroke-width=".5" d="M146.46875 371.3086l-4.9375 5"/></g><path fill="none" stroke="#000" stroke-linecap="round" stroke-linejoin="round" stroke-miterlimit="10" stroke-width=".5" d="M146.46875 371.3086l2.35156.70312m-3.07031.02344l1.17578.35156m12.32813-1.50781l-3.87891 5.85937m3.8789-5.85937l2.44532.23437m10.57422-.41015l-3.28516 6.21093m3.28516-6.21094l2.45312-.0078m12.16406 1.19921L181 375.72266m5.89063-3.82813l2.14843 1.1914m-3.0039-.6328l2.14453 1.1875m12.21094-1.42579l-6.26172 3.1836m6.26172-3.1836l2.01171 1.41016m-2.92187-.94531l2.00781 1.41015m12.55078-.8789l-6.92578 1.19531m6.92578-1.19531l1.5039 1.9375m11.75-2.21875l-6.80468 1.75781m6.80469-1.75781l1.65625 1.8125m-2.64844-1.55469l1.66016 1.8086m12.60547-2.21094l-6.72266 2.04687m6.72266-2.04687l1.73437 1.73437m-2.71094-1.4375l1.73047 1.73438m-2.71094-1.4375l.8672.86718m14.53515-.03515l-6.98047-.80469m6.98047.80469l.89453 2.28515m-1.91016-2.40234l.89453 2.28516m13.45704-2.70313l-7.02344.26563m7.02344-.26563l1.23047 2.1211m-2.25391-2.08204l.61719 1.0586m13.71093-.69922l-7.0039-.53125m7.0039.53125l.98438 2.25m-2.0039-2.32813l.98437 2.25m13.29687-3.10156l-6.89844 1.32813m6.89844-1.32813l1.54297 1.91016m-2.54687-1.71875l.77343.95703m13.03516-2.41016l-5.8789 3.85156m5.8789-3.85156l2.15234 1.1836m-3.0078-.6211l2.15233 1.17969m11.7422-2.11328l-5.32032 4.59375m5.32031-4.59375l2.28516.89062m-3.0625-.22265l2.28906.89062m-3.0625-.22265l1.14453.4453m14.4375-.44921l-6.75781 1.92969m6.75781-1.92969l1.70313 1.76563m-2.6875-1.48438l1.70312 1.76563m12.73047-1.09766l-7.02734.03125m7.02734-.03125l1.16016 2.16406m-2.17969-2.16015l.57812 1.08203M360.5 373.1992l-6.91797 1.21485m6.91797-1.21484l1.51172 1.9375m-2.51563-1.75781l1.50782 1.93359m12.57421-2.90625l-6.4453 2.80469m6.4453-2.80469l1.92188 1.52734m-2.85938-1.12109l1.92188 1.52734m-2.85938-1.11718l.96094.76171m13.69922-2.43359l-5.38672 4.51563m5.38672-4.51563l2.27344.92188m-3.05469-.26563l2.27344.92188m-3.0586-.26563l1.13672.46094m13.67578-1.85156l-5.24609 4.67187m5.2461-4.67187l2.30078.85156m-3.0625-.17188l2.30078.85157m12.29687-.76563l-6.28515 3.14063m6.28515-3.14063l1.9961 1.42188m-2.91016-.96485l1.9961 1.42188m-2.91407-.96485l1 .71094m14.51563.01172l-7.02344-.13281m7.02344.13281l1.10937 2.1875m-2.13281-2.20703l1.11328 2.1875m-2.13281-2.20703l.55468 1.09375m14.71485-.33985l-6.84766-1.5625m6.84766 1.5625l.64062 2.3711m-1.63672-2.59766l.32032 1.1836m13.55078.11718l-5.96875-3.71094m5.96875 3.71094l-.16797 2.44922m-.69922-2.98828l-.08594 1.22266m13.91407-.21094l-5.26172-4.65625m5.26172 4.65625l-.57032 2.38672m-.1953-3.0664l-.28517 1.1953"/><g clip-path="url(#V)"><path fill="none" stroke="#000" stroke-linecap="round" stroke-linejoin="round" stroke-miterlimit="10" stroke-width=".5" d="M146.70313 358.2461l-5.40625 4.49218"/></g><path fill="none" stroke="#000" stroke-linecap="round" stroke-linejoin="round" stroke-miterlimit="10" stroke-width=".5" d="M146.70313 358.2461l2.26953.92968m-3.0586-.27344l2.27344.92579m-3.0586-.27344l1.13673.46484m14.37109-.67187l-6.64453 2.29296m6.64453-2.29296l1.79687 1.67187m-2.76172-1.33984l1.79297 1.67187m12.42188-2.17578l-6.51172 2.63672m6.51172-2.63672l1.8789 1.57422m-2.82421-1.1914l1.8789 1.57812m12.10547-2.5039l-5.96094 3.71874m5.96094-3.71875l2.125 1.23047m-2.99219-.6875l2.125 1.23047m-2.99218-.6914l1.0625.61718m13.6953-2.10156l-5.375 4.52344m5.375-4.52344l2.27735.91406m-3.0586-.2539l2.27345.91406m12.46484-.42969l-6.66016 2.23438m6.66016-2.23438l1.78125 1.6875m-2.75-1.36328l1.78125 1.6875m12.59375-1.6836l-6.84375 1.57813m6.84375-1.57813l1.60938 1.85157m-2.60547-1.6211l1.60937 1.85157m12.51953-2.65625l-6.47656 2.72656m6.47656-2.72656l1.90235 1.55078M239.5 359.52734l1.90234 1.54688m12.4961-1.54688l-6.75781 1.9297m6.7578-1.9297l1.70313 1.76563m-2.6875-1.48438l1.70313 1.76563m-2.6836-1.48438l.85157.88282m14.5039-1.1211l-6.90625 1.28125m6.90625-1.28125l1.52735 1.91797m-2.53125-1.73047l1.52734 1.91797m12.82422-1.91406l-6.96875.90234m6.96875-.90234l1.41797 2m-2.4336-1.8711l1.42188 2.00391m12.71875-2.90625l-6.58985 2.44531m6.58985-2.4453l1.83203 1.6328m-2.79297-1.27734l.91797.8164m12.59375-2.3828l-5.0625 4.87109m5.0625-4.8711l2.33203.76172m-3.0664-.05469l1.16406.38282m12.96875-1.0039l-5.22657 4.6953m5.22657-4.6953l2.30468.83983m-3.0664-.15625l2.30469.83985m11.96875-1.28125l-5.6211 4.21484m5.6211-4.21484l2.21875 1.03906M332.40234 359l2.22266 1.03906m12.08594-1.39844l-5.96875 3.70704m5.96875-3.70704l2.1211 1.23047m11.68358.10938l-6.94921 1.02734m6.94921-1.02734l1.45704 1.97265m-2.46875-1.82421l1.45703 1.97656m12.80078-2.48047l-6.8086 1.73438m6.8086-1.73438l1.64844 1.8164m-2.64063-1.5625l1.65234 1.81641m12.22657-3.0664l-5.95703 3.72656m5.95703-3.72656l2.125 1.22656m-2.99219-.6836l2.1289 1.22657m-2.99218-.6836l1.0625.61329m13.61328-2.1875l-5.21484 4.70703m5.21484-4.70704l2.3086.83594m-3.06641-.15234l2.30468.83594m-3.0625-.15235l1.15235.41797m13.96875-1.41797l-5.79688 3.97266m5.79688-3.97266l2.17578 1.13672m-3.01953-.5586l2.17578 1.13673M426.51172 358.5l-5.78906 3.98438m5.78906-3.98438l2.17578 1.13281m-3.01953-.55078l2.17969 1.13281m-3.01954-.55468l1.08594.5664m14.42188-.60937l-6.8086 1.75m6.8086-1.75l1.65234 1.8125m-2.64453-1.55469L441 361.6836m12.7539-1.00782l-7.01562-.36328m7.01563.36328l1.03906 2.22266m-2.0586-2.27735l1.03907 2.22266m13.17968-1.42578l-6.78125-1.84766m6.78125 1.84766l.53907 2.39453m-1.52735-2.66406l.26953 1.19531"/><g clip-path="url(#W)"><path fill="none" stroke="#000" stroke-linecap="round" stroke-linejoin="round" stroke-miterlimit="10" stroke-width=".5" d="M146.9336 345.2461l-5.8672 3.86327"/></g><path fill="none" stroke="#000" stroke-linecap="round" stroke-linejoin="round" stroke-miterlimit="10" stroke-width=".5" d="M146.9336 345.2461l2.15624 1.17577m-3.0078-.61328l2.15233 1.17579m11.88672-1.91797l-5.61328 4.22656m5.61328-4.22656l2.22266 1.03515m-3.03906-.42187l2.22265 1.03906m11.82422-1.76563l-5.4414 4.44922m5.4414-4.44921l2.26172.94921m-3.05469-.30078l1.13282.47266m11.29297-2.25l-2.08204 6.71094m2.08203-6.71094l2.41407-.46094m9.21484.35938l1.29297 6.91015m-1.29297-6.91015l1.91797-1.52735m-1.73047 2.53516l.96094-.76563m14.6914.2422l-3.7539 5.9414m3.7539-5.9414l2.44532.18358m-2.99219.6797l1.22266.09374m13.78906.23438l-6.05469 3.5586m6.05469-3.5586l2.09375 1.28125m11.3164-1.11719l-6.24218 3.23047m6.24219-3.23047l2.01562 1.39844m11.65234-.30078l-6.94922 1.03515m6.94922-1.03515l1.45703 1.97656m-2.46875-1.82422l1.45704 1.97266m12.89843-1.8672l-7.0078.51954m7.0078-.51953l1.3086 2.07422m-2.32813-2l.65625 1.03906m13.57813-1.71484l-6.8086 1.72656m6.8086-1.72656l1.65234 1.8164m-2.64062-1.5664l.82421.90625m12.57813-2.76172l-5.0039 4.9336m5.0039-4.9336l2.33984.73437m-3.0703-.01562l1.17187.36719m12.01953-1.72266l-3.29688 6.20703m3.29688-6.20703h2.45312m-2.9336.90234h1.22657m12.77344-.78125l-3.70703 5.96875m3.70703-5.96875l2.44922.16406m-2.98828.70313l1.22265.08203m13.63281-.01562l-5.70703 4.09765m5.70703-4.09765l2.19922 1.08593m-3.03125-.49218l1.10157.54687m13.55078-.11328l-6.72266 2.04297m6.72266-2.04297l1.73437 1.73438m11.71875-1.03516l-6.9961.64844m6.9961-.64844l1.34766 2.05078m11.96875-2.0625l-6.9961.66797m6.9961-.66797l1.35156 2.04688m-2.3711-1.94922l1.35157 2.04687m12.65234-3.32422L380.5 348.69141m6.33984-3.02735l1.97657 1.45703m-2.89844-1.01562l1.97265 1.45703m-2.89453-1.01563l.98828.72657m13.75-2.28516l-5.49609 4.3789m5.4961-4.3789l2.25.97656m-3.05079-.33984l2.25391.97656m-3.05078-.33984l1.125.48828m13.5664-2.01563l-5.05078 4.88672m5.05078-4.88671l2.33204.7578m-3.07032-.04687l2.33594.75781m-3.07031-.04687l1.16797.3789m13.8164-1.57812l-5.4453 4.4414m5.4453-4.4414l2.26172.95313m-3.05469-.3047l2.26172.94923m-3.05468-.30469l1.1328.47656m14.26173-.96484l-6.4336 2.83203m6.4336-2.83203l1.92578 1.51953m-2.86328-1.10547l1.92968 1.51953m12.50782-1.40234l-6.80078 1.76953m6.80078-1.76953l1.66015 1.80469m-2.65234-1.54688l1.66016 1.80469m12.69921-1.82031l-6.90625 1.28906"/><g clip-path="url(#X)"><path fill="none" stroke="#000" stroke-linecap="round" stroke-linejoin="round" stroke-miterlimit="10" stroke-width=".5" d="M467.01563 346.53516l1.53125 1.91796"/></g><path fill="none" stroke="#000" stroke-linecap="round" stroke-linejoin="round" stroke-miterlimit="10" stroke-width=".5" d="M466.01172 346.72266l1.52734 1.91796"/><g clip-path="url(#Y)"><path fill="none" stroke="#000" stroke-linecap="round" stroke-linejoin="round" stroke-miterlimit="10" stroke-width=".5" d="M146.94531 331.94922l-5.89062 3.82812"/></g><path fill="none" stroke="#000" stroke-linecap="round" stroke-linejoin="round" stroke-miterlimit="10" stroke-width=".5" d="M146.94531 331.94922l2.14844 1.1875m-3.0039-.6289l2.14452 1.1875m11.61329-2.26954l-5.0625 4.875m5.0625-4.875l2.33203.76172m-3.07031-.05078l2.33203.76172m10.90234-2.10547l-3.42578 6.13672m3.42578-6.13672l2.45313.05078m-2.95313.84375l1.22656.02344m13.17578-.5039l-4.60156 5.3125m4.60156-5.3125l2.39063.54687m-3.0586.22656l1.19532.27344m13.5586-.09375l-6.14454 3.40625m6.14453-3.40625l2.0586 1.33593m9.8203-2.74218l-3.26952 6.21875m2.79297-5.31641l1.22656-.0039m12.67969-.83594l-3.5 6.09375m2.98828-5.20704l1.22656.03907m14.34375 2.48437l-6.98828-.73047m6.98828.73047l.92187 2.27735m12.39844-2.30079l-6.9961-.67968m6.9961.67969l.9336 2.26562M253 334.10547l.46875 1.13281m13.875-1.1914l-7.01563-.3672m7.01563.3672l1.03906 2.22265m-2.0586-2.27734l1.03516 2.22265m13.2461-2.98437l-6.91016 1.26562m6.91016-1.26562l1.52344 1.92187m-2.52735-1.73828l1.52344 1.92188m12.73047-2.39063l-6.78125 1.83594m6.78125-1.83594l1.67969 1.78906m-2.66407-1.52343l.83985.89453m13.34765-1.51172l-6.55468 2.53516m6.55468-2.53516l1.85547 1.60547m-2.8086-1.23438l.92579.80079m12.78906-2.1211l-5.44922 4.4375m5.44922-4.4375l2.26172.94922m-3.05469-.30469l1.12891.47656m13.51953-.20312l-6.52734 2.60156m6.52734-2.60156l1.8711 1.58594m-2.82032-1.20703l1.8711 1.58593m-2.82032-1.20703l.9336.79297m14.51562-.5625l-7 .625m7-.625l1.33985 2.0586m-2.35938-1.96875l.67188 1.03125m13.64453-.33594l-6.96485-.94922m6.96485.94922l.84765 2.30469m12.4375-2.13282l-6.90625-1.28906m6.90625 1.28906l.73828 2.33985M386.26953 331.5l-5.19922 4.72656m5.19922-4.72656l2.3125.82813m-3.0664-.14063l2.30859.82813m11.42187-1.84375l-4.51953 5.3828m4.51953-5.3828l2.39844.51171m-3.05469.27344l1.19922.2539m12.97656-.85156l-4.92968 5.00782m4.92968-5.00781l2.35157.6953m-3.07032.03126l2.35547.69922m12.3047-.58985l-6.1836 3.33594m6.1836-3.33594l2.04296 1.35547m-2.9414-.8711l1.01952.6797m13.51172-.34375l-6.8203 1.6953m6.8203-1.6953l1.64063 1.82812m-2.63281-1.58203l.8203.91406m13.46485-1.2539l-6.76953 1.8828m6.76953-1.8828l1.6914 1.77734m-2.67968-1.5039l1.6914 1.77734m-2.67577-1.50391l.84765.89063m14.14844-2.16016l-6.1875 3.32812"/><g clip-path="url(#Z)"><path fill="none" stroke="#000" stroke-linecap="round" stroke-linejoin="round" stroke-miterlimit="10" stroke-width=".5" d="M466.65625 332.19922l2.03906 1.36328"/></g><g clip-path="url(#aa)"><path fill="none" stroke="#000" stroke-linecap="round" stroke-linejoin="round" stroke-miterlimit="10" stroke-width=".5" d="M465.7539 332.6836l2.04298 1.36327"/></g><g clip-path="url(#ab)"><path fill="none" stroke="#000" stroke-linecap="round" stroke-linejoin="round" stroke-miterlimit="10" stroke-width=".5" d="M147.26172 319.24219l-6.52344 2.60937"/></g><path fill="none" stroke="#000" stroke-linecap="round" stroke-linejoin="round" stroke-miterlimit="10" stroke-width=".5" d="M147.26172 319.24219l1.875 1.58594m-2.82422-1.20704l1.875 1.58594m-2.82422-1.20312l1.875 1.58203m13.34766-2.32031l-6.54297 2.5664m6.54297-2.5664l1.86328 1.59375m-2.8164-1.22266l1.86327 1.59765m-2.8125-1.22265l1.86328 1.59375m13.38282-2.26172l-6.60156 2.41016m6.60156-2.41016l1.82422 1.63672m-2.78516-1.28906l1.82813 1.64062m-2.78907-1.28906l.91406.82031m14.44532-1.11719l-6.84375 1.60157m6.84375-1.60157l1.61328 1.84766m-2.60938-1.61328l1.61328 1.84765m-2.60937-1.61328l.8086.92188m14.48046-1.46094l-6.8086 1.74219m6.8086-1.74219l1.65235 1.8164m-2.64453-1.5625l1.65625 1.81641m-2.64454-1.5625l1.65235 1.8125m13.55469-2.61718l-6.62891 2.33593m6.6289-2.33593l1.8047 1.66015m-2.76954-1.32031l1.80469 1.66016m-2.76953-1.32032l.90234.83204m14.48047-.98047l-6.91016 1.27343m6.91016-1.27343l1.52734 1.92187m-2.53125-1.73437l.76172.96093m13.60156-.18359l-6.99609-.65234m6.9961.65234l.9453 2.26172m-1.96093-2.35938l.94531 2.26563m13.33985-1.83203l-6.90235-1.32422m6.90235 1.32422l.72265 2.34375m-1.72656-2.53906l.72266 2.34765m-1.72657-2.53906l.35938 1.17187m15.01953-1.29296l-7.01953-.3125m7.01953.3125l1.05469 2.21875m-2.07422-2.26172l1.05469 2.21484m-2.07422-2.26172l.52343 1.10938m14.82422-.90235l-7.0039-.54687m7.0039.54687l.98047 2.25m-2-2.32812l.98047 2.25m-2-2.32813l.49219 1.1211m14.875-1.30079l-7.02735.12891m7.02735-.1289l1.1875 2.14453m-2.21094-2.125l1.1914 2.14453m13.09766-2.67188l-6.93359 1.14453m6.9336-1.14453l1.49218 1.94922m-2.5-1.78515l1.48828 1.95312m12.52735-3.08594l-6.31641 3.07813m6.3164-3.07813l1.98438 1.44531m-2.90234-.99609l1.98437 1.4414m12.39453-1.54687l-6.60937 2.39063m6.60937-2.39063L335.53516 321m-2.78125-1.30078l1.8203 1.64844m12.47657-1.9297l-6.65234 2.26173m6.65234-2.26172l1.78906 1.67969m-2.7539-1.35157l.89453.83985m13.41406-1.09375l-6.70312 2.10937m6.70312-2.10937l1.7461 1.72265m11.61718-1.55078l-6.80078 1.76953m6.80078-1.76953l1.66016 1.8086m11.09375-2.9922l-5.6836 4.13282m5.6836-4.13281l2.20703 1.07422m-3.03125-.47266l1.10156.53906m11.67969-2.2578l-2.96484 6.37108m2.96484-6.37109l2.45312-.1289m9.82422-.17188l-.89062 6.96875m.89062-6.96875l2.29688-.86719m12.89062 1.71094l-4.6328 5.28516m3.95702-4.51563l1.19531.28125m13.25782 3.74219l-5.5586-4.30078m18.92578.0664l-5.66406 4.16407m5.66406-4.16407l2.21094 1.06641m-3.03515-.46094l1.10546.53516m12.98829-1.19531l-5.57422 4.27734"/><g clip-path="url(#ac)"><path fill="none" stroke="#000" stroke-linecap="round" stroke-linejoin="round" stroke-miterlimit="10" stroke-width=".5" d="M466.34766 318.41016l2.23437 1.01562"/></g><g clip-path="url(#ad)"><path fill="none" stroke="#000" stroke-linecap="round" stroke-linejoin="round" stroke-miterlimit="10" stroke-width=".5" d="M465.53906 319.03125l2.23047 1.01563"/></g><path fill="#00f" fill-rule="evenodd" d="M410.42969 454.33203h8.6211V444.1875h-8.6211v10.14453"/><path fill="azure" fill-rule="evenodd" d="M412.26172 446.01953h.83594v2.82422h3.28515v-2.82422h.83203V452.5h-.83203v-2.91406h-3.28515V452.5h-.83594v-6.48047"/><path fill="#ff3030" fill-rule="evenodd" d="M313.48047 436.57813h7.6914v-10.14454h-7.6914v10.14454"/><path fill="azure" fill-rule="evenodd" d="M315.3125 428.26563h.83594v5.74218h3.1914v.73828h-4.02734v-6.48046"/><path fill="#ff3030" fill-rule="evenodd" d="M184.76953 427.70313h7.6914v-10.14454h-7.6914v10.14454"/><path fill="azure" fill-rule="evenodd" d="M186.60156 419.39063h.83203v5.73828h3.19532v.74218h-4.02735v-6.48046"/><path fill="#00f" fill-rule="evenodd" d="M215.14453 409.94922h8.61719v-10.14453h-8.61719v10.14453"/><path fill="azure" fill-rule="evenodd" d="M216.97656 401.63672h.83203v2.82422h3.28516v-2.82422h.83594v6.48047h-.83594v-2.91797h-3.28516v2.91797h-.83203v-6.48047"/><path fill="#00f" fill-rule="evenodd" d="M370.48438 401.07422h8.62109v-10.14844h-8.6211v10.14844"/><path fill="azure" fill-rule="evenodd" d="M372.3164 392.76172h.83594v2.82031h3.28516v-2.82031h.83203v6.47656h-.83203v-2.91406h-3.28516v2.91406h-.83593v-6.47656"/><path fill="#ff3030" fill-rule="evenodd" d="M424.4414 401.07422h7.69141v-10.14844h-7.6914v10.14844"/><path fill="azure" fill-rule="evenodd" d="M426.27344 392.76172h.83203V398.5h3.19531v.73828h-4.02734v-6.47656"/><path fill="#ff3030" fill-rule="evenodd" d="M193.64453 356.6875h7.69531v-10.14453h-7.6953v10.14453"/><path fill="azure" fill-rule="evenodd" d="M195.47656 348.375h.83594v5.74219h3.1914v.73828h-4.02734V348.375"/><path fill="#ffffe0" fill-rule="evenodd" d="M425.58984 463.4414h22.1797V453.25h-22.1797v10.1914"/><path fill-rule="evenodd" d="M429.08984 455.08203h.50782v6.29688h-.78516v-4.4922h-1.39063v-.55468l.5625-.0664.25-.05079.23047-.08984.20313-.14453.17187-.20703.14454-.29688.10546-.39453m4.8125 0l.23047.01953.21875.05469.20703.08984.19532.1211.1875.14844.16796.17578.3047.42187.24218.49219.17969.54687.11328.57813.03515.58984-.03515.59375-.11328.58594-.17969.55469-.24219.5-.30469.42969-.16796.17968-.1875.15235-.19532.125-.20703.08984-.21875.0586-.23047.01952-.23046-.01953-.21875-.05859-.20704-.08984-.1953-.125-.1836-.15235-.17188-.17969-.30078-.42968-.2461-.5-.17968-.55469-.10938-.58594-.03906-.59375h.83203l.03125.5664.08204.50392.125.4414.16015.375.1914.30078.21094.22266.22266.13672.22656.04687.22657-.04687.22265-.13672.21094-.22266.1914-.30078.16016-.375.1289-.4414.08204-.50391.02734-.5664-.02734-.5586-.08203-.5-.1289-.4375-.16016-.36328-.19141-.29297-.21094-.21485-.22265-.1328-.22657-.04298-.22656.04297-.22265.13281-.21094.21485-.1914.29297-.16017.36328-.125.4375-.08203.5-.03125.5586h-.83203l.03906-.58985.10938-.57813.17969-.54687.2461-.49219.30077-.42187.17188-.17579.1836-.14843.1953-.1211.20704-.08984.21875-.05469.23046-.01953m5.09375 0h.50782v6.29688h-.78907v-4.4922h-1.38671v-.55468l.55859-.0664.2539-.05079.23047-.08984.20313-.14453.17187-.20703.14063-.29688.10937-.39453m2.82032 2.17578h.78906l.01953-.3164.0586-.28516.09765-.2539.14063-.21485.18359-.17578.22265-.1289.26563-.07813.3086-.02735.23437.01954.22656.0625.20313.10156.17968.14062.14844.17188.11328.20703.07031.23437.02735.26563-.02344.26953-.0664.22266-.10938.1914-.15625.17188-.19922.16406-.2461.16406-.63671.39063-.53516.3125-.4375.3164-.34765.32422-.26563.33594-.1875.35156-.125.3711-.07031.39062-.01953.42188h4.21094v-.7422h-3.33204l.08204-.28515.11328-.23437.14843-.20313.1875-.17969.23047-.17187.28125-.17578.71485-.41797.41406-.20313.34765-.23046.28125-.25391.21875-.26563.16407-.27734.10937-.28515.0664-.28516.01954-.28125-.04297-.38281-.1211-.34766-.1875-.3086-.25-.26171-.30468-.21485-.34375-.15625-.3789-.09765-.40626-.03516-.4375.03125-.39843.10156-.35547.16407-.30469.23437-.2461.30469-.1875.375-.11327.44531-.04297.51953"/><path fill="#ffffe0" fill-rule="evenodd" d="M315.11328 358.25781h22.17969v-10.1914h-22.17969v10.1914"/><path fill-rule="evenodd" d="M318.61328 349.90234h.50781v6.29297h-.78515v-4.48828h-1.39063v-.5586l.5625-.0625.25-.05468.23047-.08984.20313-.14063.17578-.21094.14062-.29296.10547-.39454m4.8125 0l.23047.01563.21875.0586.20703.08984.19922.11718.1836.15235.17187.17578.30078.41797.24219.49219.17969.54687.11328.58203.03515.58985-.03515.59375-.11329.58203-.17968.55468-.24219.50391-.30078.42578-.17188.17969-.18359.15234-.19922.125-.20703.09375-.21875.05469-.23047.01953-.22656-.01953-.21875-.05469-.21094-.09375-.19531-.125-.1836-.15234-.17187-.17969-.30078-.42578-.2461-.5039-.17968-.5547-.10938-.58202-.03906-.59375h.83203l.03125.5625.08203.5078.125.44141.16406.375.1875.30079.21094.21875.22266.14062.22656.04297.22656-.04297.22266-.14063.21094-.21875.1914-.30078.16407-.375.125-.4414.08203-.50781.02734-.5625-.02734-.5625-.08203-.5-.125-.4336-.16407-.36719-.1914-.29296-.21094-.21485-.22266-.1289-.22656-.04688-.22656.04688-.22266.1289-.21094.21485-.1875.29296-.16406.3672-.125.43358-.08203.5-.03125.5625h-.83203l.03906-.58984.10938-.58203.17969-.54688.24609-.49218.30078-.41797.17188-.17578.18359-.15235.19531-.11718.21094-.08985.21875-.0586.22656-.01562m5.09375 0h.50781v6.29297h-.78515v-4.48828h-1.39063v-.5586l.5586-.0625.2539-.05468.23047-.08984.20313-.14063.17187-.21094.14453-.29296.10547-.39454m2.82031 2.17188h.78907l.01953-.3164.0586-.28516.10155-.25.13672-.21875.1836-.17188.22265-.1289.26563-.08204.3086-.02734.23827.02344.22266.0625.20312.10156.1797.13672.14843.17578.11328.20313.07031.23828.02735.26171-.02344.26954-.0664.22656-.10938.1914-.15625.17188-.19922.16016-.2461.16796-.63671.38672-.53516.3125-.4375.31641-.34766.32813-.26171.33203-.19141.35156-.125.3711-.07031.39452-.01954.41797h4.21094v-.74219h-3.33203l.08203-.28125.11328-.23828.14844-.20312.1875-.17969.23047-.17187.28125-.17579.71484-.41406.41797-.20703.34375-.23047.28125-.25.21875-.26953.16406-.27734.11329-.28125.0625-.28516.01953-.28125-.04297-.38281-.11719-.35156-.1914-.3047-.25-.26562-.30079-.21093-.34765-.16016-.3789-.09766-.40626-.03125-.4375.03125-.39844.09766-.35156.16797-.30469.23437-.25.3047-.1875.37108-.11328.44922-.04297.51563"/><path fill="#ffffe0" fill-rule="evenodd" d="M177.52344 329.95703h22.1836v-10.1914h-22.1836v10.1914"/><path fill-rule="evenodd" d="M181.02344 321.59766h.51172v6.29687h-.78907v-4.49219h-1.38672v-.55468l.5586-.06641.25-.05078.23047-.08985.20312-.14062.17578-.21094.14063-.29687.10547-.39453m4.8125 0l.23047.01953.21875.05469.20703.08984.19922.1211.18359.14843.17188.17578.30078.42188.24218.49218.1797.54688.11327.57812.03906.59375-.03906.58985-.11328.58594-.17969.55468-.24218.5-.30078.42969-.17188.17969-.1836.15234-.19921.125-.20703.08985-.21875.05859-.23047.01953-.22656-.01953-.21875-.0586-.21094-.08984-.19531-.125-.1836-.15234-.17187-.17969-.30078-.42969-.2422-.5-.17968-.55469-.11328-.58593-.03906-.58985h.83593l.02735.5625.08203.50391.125.44531.16406.3711.1914.30078.21095.22265.22265.13672.22266.04688.22656-.04688.22266-.13672.21093-.22265.19141-.30078.16406-.3711.125-.44531.08203-.5039.02735-.5625-.02735-.5625-.08203-.5-.125-.4375-.16406-.36329-.1914-.29297-.21094-.21484-.22266-.13281-.22656-.04297-.22266.04297-.22266.13281-.21093.21484-.1914.29297-.16407.36328-.125.4375-.08203.5-.02735.5625h-.83593l.03906-.59375.11328-.57812.17969-.54688.24219-.49218.30078-.42188.17187-.17578.1836-.14844.1953-.1211.21095-.08983.21875-.0547.22656-.01952m5.09375 0h.50781v6.29687h-.78516v-4.49219h-1.39062v-.55468l.5625-.06641.25-.05078.23047-.08985.20312-.14062.17578-.21094.14063-.29687.10547-.39453m2.82422 2.17578h.78515l.01953-.3164.0586-.28517.10156-.2539.14063-.21485.17968-.17187.22266-.1289.26562-.08204.3086-.02734.23828.01953.22266.0625.20312.10156.17969.14063.14844.17187.11328.20703.07422.23438.02343.26562-.02344.26954-.0625.22265-.11328.1914-.15234.17188-.20313.16406-.24609.16407-.63281.39062-.53906.3125-.4375.3164-.34766.32423-.26172.33594-.1914.35156-.125.3711-.06641.39062-.02344.42187h4.21094v-.74219h-3.33203l.08594-.28515.11328-.23438.14843-.20312.1875-.17969.23047-.17188.27735-.17578.71875-.41406.41406-.20703.34375-.23047.28125-.25.21875-.26953.16406-.27734.11328-.28516.0625-.28516.01953-.28125-.03906-.3828-.1211-.34767-.1914-.30859-.25-.26172-.30078-.21094-.34766-.16015-.3789-.09766-.40625-.03515-.4336.03515-.39843.09766-.35547.16406-.30469.23438-.25.30468-.1836.375-.11718.44532-.03906.51953"/></g></defs><use xlink:href="#ae"/></svg>