<svg xmlns="http://www.w3.org/2000/svg" role="img" xmlns:xlink="http://www.w3.org/1999/xlink" viewBox="142.45 309.95 326.84 171.84"><defs><clipPath id="a"><path d="M144 311.67188h1v168.65625h-1zm0 0"/></clipPath><clipPath id="b"><path d="M144 311.67188h324v168.65625H144zm0 0"/></clipPath><clipPath id="c"><path d="M467 311.67188h1v168.65625h-1zm0 0"/></clipPath><clipPath id="d"><path d="M144 478h4v2.32813h-4zm0 0"/></clipPath><clipPath id="e"><path d="M145 478h3v2.32813h-3zm0 0"/></clipPath><clipPath id="f"><path d="M154 478h7v2.32813h-7zm0 0"/></clipPath><clipPath id="g"><path d="M166 479h9v1.32813h-9zm0 0"/></clipPath><clipPath id="h"><path d="M172 479h3v1.32813h-3zm0 0"/></clipPath><clipPath id="i"><path d="M180 479h8v1.32813h-8zm0 0"/></clipPath><clipPath id="j"><path d="M186 479h2v1.32813h-2zm0 0"/></clipPath><clipPath id="k"><path d="M193 479h9v1.32813h-9zm0 0"/></clipPath><clipPath id="l"><path d="M200 480h3v.32813h-3zm0 0"/></clipPath><clipPath id="m"><path d="M206 479h9v1.32813h-9zm0 0"/></clipPath><clipPath id="n"><path d="M212 479h3v1.32813h-3zm0 0"/></clipPath><clipPath id="o"><path d="M220 478h8v2.32813h-8zm0 0"/></clipPath><clipPath id="p"><path d="M225 479h3v1.32813h-3zm0 0"/></clipPath><clipPath id="q"><path d="M233 479h8v1.32813h-8zm0 0"/></clipPath><clipPath id="r"><path d="M239 479h2v1.32813h-2zm0 0"/></clipPath><clipPath id="s"><path d="M246 479h9v1.32813h-9zm0 0"/></clipPath><clipPath id="t"><path d="M252 479h2v1.32813h-2zm0 0"/></clipPath><clipPath id="u"><path d="M260 479h8v1.32813h-8zm0 0"/></clipPath><clipPath id="v"><path d="M266 480h1v.32813h-1zm0 0"/></clipPath><clipPath id="w"><path d="M273 479h8v1.32813h-8zm0 0"/></clipPath><clipPath id="x"><path d="M279 480h2v.32813h-2zm0 0"/></clipPath><clipPath id="y"><path d="M286 478h8v2.32813h-8zm0 0"/></clipPath><clipPath id="z"><path d="M292 480h2v.32813h-2zm0 0"/></clipPath><clipPath id="A"><path d="M300 479h8v1.32813h-8zm0 0"/></clipPath><clipPath id="B"><path d="M305 480h2v.32813h-2zm0 0"/></clipPath><clipPath id="C"><path d="M313 478h8v2.32813h-8zm0 0"/></clipPath><clipPath id="D"><path d="M328 477h5v3.32813h-5zm0 0"/></clipPath><clipPath id="E"><path d="M341 476h5v4.32813h-5zm0 0"/></clipPath><clipPath id="F"><path d="M354 477h6v3.32813h-6zm0 0"/></clipPath><clipPath id="G"><path d="M368 476h4v4.32813h-4zm0 0"/></clipPath><clipPath id="H"><path d="M379 479h9v1.32813h-9zm0 0"/></clipPath><clipPath id="I"><path d="M396 476h2v4.32813h-2zm0 0"/></clipPath><clipPath id="J"><path d="M409 476h2v4.32813h-2zm0 0"/></clipPath><clipPath id="K"><path d="M421 477h6v3.32813h-6zm0 0"/></clipPath><clipPath id="L"><path d="M433 478h8v2.32813h-8zm0 0"/></clipPath><clipPath id="M"><path d="M446 478h8v2.32813h-8zm0 0"/></clipPath><clipPath id="N"><path d="M460 478h7v2.32813h-7zm0 0"/></clipPath><clipPath id="O"><path d="M144 465h4v4h-4zm0 0"/></clipPath><clipPath id="P"><path d="M144 453h4v2h-4zm0 0"/></clipPath><clipPath id="Q"><path d="M144 440h4v1h-4zm0 0"/></clipPath><clipPath id="R"><path d="M144 426h4v2h-4zm0 0"/></clipPath><clipPath id="S"><path d="M144 413h4v2h-4zm0 0"/></clipPath><clipPath id="T"><path d="M144 399h4v3h-4zm0 0"/></clipPath><clipPath id="U"><path d="M144 385h4v4h-4zm0 0"/></clipPath><clipPath id="V"><path d="M144 371h3v6h-3zm0 0"/></clipPath><clipPath id="W"><path d="M144 358h3v5h-3zm0 0"/></clipPath><clipPath id="X"><path d="M144 345h4v5h-4zm0 0"/></clipPath><clipPath id="Y"><path d="M466 346h2v3h-2zm0 0"/></clipPath><clipPath id="Z"><path d="M144 331h4v6h-4zm0 0"/></clipPath><clipPath id="aa"><path d="M466 331h2v3h-2zm0 0"/></clipPath><clipPath id="ab"><path d="M465 332h3v3h-3zm0 0"/></clipPath><clipPath id="ac"><path d="M144 318h4v5h-4zm0 0"/></clipPath><clipPath id="ad"><path d="M466 318h2v2h-2zm0 0"/></clipPath><clipPath id="ae"><path d="M465 318h3v3h-3zm0 0"/></clipPath><g id="af" clip-path="url(#clip1)"><path fill="#fff" fill-opacity="0" fill-rule="evenodd" d="M0 0h1000v1000H0zm0 0"/><path fill="#d3d3d3" fill-opacity="0" fill-rule="evenodd" d="M162.15234 355.86719l-.23437.29297.0586.23437.11718.17188.17578.23437.29297.34766.11328.0586.11719-.17188.0586-.23438.17577-.17578.46485-.17578h.69922l.23437.29297.28906.8164.0586.17579.17578.23046.35156.23438.69922.69922.17188.17578.23437.34765.23438.41016.28906.58203.41015.46485.23047.23437.23438.17578.11719.23047.17578.29297.17187 1.16406v.23438l.0586.28906.05859.11719.11719.11719.34765.41015.11719.17188.17578.17578.17578.23437.11719.17188.17188.35156.05859.23438.23437.40625.23438-.0586-.17578.17578-.0586.92969h-.58203l-.23437-.11328-.34766.11328-.11719.11719-.05859.29297-.0586.17578-.11718.17187-.46484.29297-.0586.23438-.0586.11328v.64453l.0586.17187v.41016l.0586.0586v.40624l.05859.40625.11719.17579.05859.05859.23047.64062-.0586.29297v.69922l-.05859.58203v.23438l-.0586.23047-.05468.35156v1.92187l.05469.1172h.42578l-.36719.11718-.02344.35156.89063 1.16797 1.74219.53906 1.33984.35938v.53906l.08984.8086.53516.71484 1.51953.26953.89063-.08594.08984 1.16406.53516.1797 1.16015-.1797 2.05469-.98437 1.16016-.36328 1.8789-.17578 1.69531-.1797-.17968.71876-1.51563.08594-1.25.08984-.80469.26953-1.07421.8086.26953.71875.53515.89843-.17968.625-.26563.8086.26563 1.07812.625.89844.80468.17969 1.25-.1797-.26562.72267.09766.5039.05468.29297v.17188l.0586.29296v.40625l.17578.1172.35156.11718h.40625l.29297-.17578.11328-.11719.0586-.11719.11718-.23047.0586-.17578.35156-.46484.23047-.17578.17578-.0586.17578.0586.0586.17578.11718.98828.05469.46875.0586.17188.11718.23437.17578.0586.8164.05859h.28907l.11719.23437.05859.40625.0586.35156v1.10547l.11718.29297.11719.34766.28906.69922.17578.35156.58203.7539.35157.17579.17187.0586.46875.23437.64063.46484.34765.23438.29297.17578.29297.05468.23047.0625.8164.34766.29297.17578.11328.17188.35157.35156.11719.17578.52343.64063v.28906l.0586.35156v.34766l.05859.35156.0586.28906.11718.0586.17188.05859h.17578l.58203.23437.17578.1172.17578.28905.17578.23438.11328.23437.29297.23047.11719.11719v.41016l.0586.05468.28906.23438.23437.11719.0586.11718.11718.17188.0586.11719.23047.23437.05859.17578.23437.0586.1172.05859-.1172.11328-.05859.11719v.11719l-.11719.29296-.11719.28907v.58203l.17579.11719.11718.05859.0586.11719.11719.11719.11328.05859.17578.34765.0586.35157.05858.40625v.17578l-.05859.17578-.11719.69922v.17187l.1172.17579.29296.29296h.40625l.17578.1172.11719.17187.11719.29296v.23438h-.52735l-.23047-.23438h-.23437l-.17578.0586-.0586.69922.0586.34765.11719.17579.17578.41015.11718.23047.28907.46875.17578.05469h.52344l.23437.0586.75781.64062.0586.29296v.23438l.05859.0586.23047.34765v.35156l-.11719.17188v.29297l.29297.28906.29297.17578.17187.0586.29297.17577.29297.1172.58203.40624.28906.23438.29297.17578.21875.16015.01563.01172.23047.17579.64062.52343.17578.23438.1172.17578.17577.17578.11328.17188v.64062l.1172.17578.46874.11719.58203.11719.23438.05859.23047.11328.29297.11719.11328.0586.58593.35156.28907.17187.17578.0625.17578.05469.17578.0586.69922.35155.28906.17579.23438.05468.28906.17578.23437.1172.64063.40624.29297.11719.17187.0586.23438.05859.41015.05859.23047.0586.23438.11718.0586.17188-.41017.17578.46875.0586.0586.29296.11328.23438.17578.05468.23438.0586.17578.05859.40625.11719.64062.23437.11719.17188.0586.23437v.17578l-.0586.1172-.0586.40624.23438.23438.11719.05859.34766.11719.64062.23047.17578.11718.28906.1172.17578.17577.23438.46485.58203 1.10546.17578.17579.34766.17578.17578.11719.35156.11718 1.04688.52344.23437.0586.46485.11327.29297.0586.46484.17578.75781.58203.23438.23438.34765.46484.17578.17578.28907.23438.8164.69921.29297.17579.28906.28906.29297.17578.29297.28906.69531.64063.17578.17578.29297.23437.28907.23438.46875.28906.64062.58203.34766.23438.23437.29297.34766.34765.35156.46485.9336.99218.34765.40625.11719.17579.23437.05859.11328.11719.64454.17578.23047.11328.23437.0586.29297.17577.23047.1172.9336.69921.40624.40625.23438.17578.40625.17578.23437.11719.8164.34766.34766.23437.23438.11719.29297.28906.23047.11719.7578.35156.35157.17188.23047.05859.29297.11719.23437.0586.8711.17577h.8164l.46875.23047.17188.0586.875.69921.46484.1172.29297.05858.17578.0586.23047.0586.46875.05859.34766.05859.35156.0586.40625.05859h.29297l.17187.0586v.23046l.17578.17578h.29297l.34766.0586.35156.05859.69922.11719h.64063l.46484-.23438.29297-.17578.17187-.11719.41016-.17187.28906-.17578.9336-.46485.46875-.29297.52343-.29296.46485-.17188.46484-.17578 1.05078-.46485.28906-.11718.41016-.11719.28906-.11719.52735-.17578 1.51562-.69922.58203-.34765.28907-.0586.29297-.0586.34765-.11718.875-.23047.35156-.11719h.11329l.23437-.05859.875-.23437.23438-.0586h.8125l.35156-.0586.8164-.11718.17188-.0586.35156-.05468.29297-.0586.23047-.05859.8164-.17578.17579-.0586h.34765l.23438-.05859.46484-.11718.75781-.17188.23438-.0586h.34765l.41016-.11718.28906-.0586 1.28516-.05859h.28906l.41016-.0586.23047-.05858h.17578l.875-.1172h.40625l.41015-.11718h.34766l.35156-.11328.8711-.0586h1.75l1.04687.28907.41016.11719.28906.11718.35156.11719.28907.11719 1.05078.17187.28906.0586h.29297l.29297.05859.17187.0586.41016.05859.17187.0586.1172.05858h.11718l.11719.0586.35156.0586h.11328l.41016.0664 1.92187.39453 1.92578.39453 1.51953.44922 1.69532.71875 2.14453.80469 1.60547-.71875 1.42968-.80469 1.16016-1.07813 1.25-.44921 3.03516-.71875 1.875-.35938 2.14453-1.34765 2.23437-1.25391 2.5-1.25781 1.69531-.44922 1.78516-.17969 1.16016-.26953.625.53906 1.33984-.26953.71485-.98828.98437-1.34375.44531-.17969.80469-.35937 1.875-.53907 1.78516-.44921 1.25-.26954 1.16015-.08984 1.69922-.08984 1.96094-.26954 1.25-.08984h.53906l.625-.08984h.89063l2.14453-.17969 2.41015-.17969 2.58985-.08984 1.69531.17969 1.60938.08984 1.42968.35938 1.16016.71875 1.875.98828 1.16015 1.52734.26563.71484.6289.08985.35548.89844.53515.53906.53516 1.52734 1.07422.35938h.53515l-.80469.53515.08985 1.70703.71484 2.69532.89063.80468.89453.98829.71484 1.2578 1.78516.53907 1.51953-.17969.35547 1.34375 1.60937-.80469.98047-.53906.26953.26953.31641-.21484.21875-.14453.80078.44922.44922-.35938h.35547l.53515-.26953.53907-.71875.53515-.26953.625-.98828 1.16016.44922.83984.3711 1.39454.61718 1.6953-.17969h1.60548l1.78515.08985.17969-1.70704.53516-1.34375.80468.26954.4922.84765.40233.40625-.08984.53906v.35938l.71485.44922.71093-.26953h1.42969l.35938.98828.4453 1.25781.71485 1.34375 1.25.6289 1.69531.62891.71485-.17969.17969-.53906.98046-.08984.44922.35937.08594 1.25782-.26563.6289-.53515.17969v.53906l.71484.98438.26563.53906.98437.98828.80078 1.07813-.26562.35937-.08985.89844-.625 2.33203-.35546 2.0664-.08985 1.79298-.17969.71875-.08984.53906v1.4375l-.98047 1.88281-.35937 1.70703-.53516.89844-.80469 1.16797-.26562.53906 2.05469 1.2539.08593.35938-.35546.53906-.08985-.17968v.80859l.08985 1.4375-.44532.71484-1.07422.09375-.26562.71485.53515.89844.8047.71875 1.16015.80859 1.33984.26953.44531.35938-.35546.44921-1.78907-.08984-1.25-.44922-.71484-.71875-.625-.08984-.17578 3.58984-.1875 1.3086h89.35937V311.70313h-55.26953v49.08203l.76172.125 3.28906.54296 2.02344 2.83594v2.7539l2.35156.33204 2.34766.33203h4.05078l-1.3789 4.16016-2.02344.70703-2.02344.70312-.54297.34375-2.59375 1.6172-.1875.11718-2.02344-2.07813-.73046-2.74218-2.67188-2.07813-1.375-3.5-.0664-.08203-1.95704-2.67188 2.75-1.41796v-49.08204H294.42187v91.41407l.1172.03125.1328.01172.07422.07421.10547.04688.08985.0586.08593.05859.08985.0586.29687.29687.0586.08984.03125.11719.02734.11719.01563.13671-.03125.1172-.0586.08983-.0586.08594-.04296.10547-.04688.10156-.02734.1211v.14453l.17578.26953.14844.14844.07422.08594.07422.07421.04296.10547.0625.08985.0586.08593.04297.10547.0586.08985.04687.10156.04296.10547.0586.08594.11719.17968.07421.07422.0625.08594.0586.08984.04297.10547.0586.08985.05858.08593.0625.08985.0586.08984.04297.10156.11719.17969.07421.07422.0586.08594.07422.07421.08984.0586.10547.04687h.14844l.1328-.01562.13282.01562.10156-.04687.07422-.07422.04688-.10156-.01563-.13281v-.14844l-.04687-.10547-.02735-.11719-.04687-.10156-.02735-.1211-.04296-.10156-.0625-.08984-.04297-.10156-.04297-.10547-.03125-.11719-.01563-.13281-.01171-.13672.08593-.0586.0586-.08593.12109-.03125.04297.10547.01562.1328v.1172l.0586.10156.0586.08984.08983.0586.14844.14843.0586.08985.04296.10547-.01171.10156.08593.0586.10547.04687.08594.0586.08984.05858.07422.07422-.11719.02735-.10546.04687-.08594.0586-.07422.07421-.0586.08985-.0625.08594-.02734.12109-.04687.10156-.04297.10547-.03125.11719-.01172.13281-.01563.13281v.14844l.02735.11719.04687.10547.04297.10156.0586.08984.07421.07422.08985.0586.07422.07421.08984.0586.0586.08984.04296.10547.04688.10156.11719.03125.1328.01563h.14845l.11718-.03125.10547.04297.04297.10547.04688.10156.02734.1211L299.5 410l.02734.11719.03125.1211.02735.11718.10547.04297.10156.04687.13281-.01562.14844.14844.0625.08593.07422.07422.07031.07422.08984.0625.10547.04297.10156.04297.1172.03125.13671.01562.11719-.03125.07422-.07422.02734-.11718-.01172-.13282-.03125-.12109-.02734-.11719.04297-.10547h.11719l.08984.0625.11719.02735h.14843l.13282.01562h.14843l.13282.01563.1328-.01563h.14845l.1328-.01562.13282-.01172.13672.01172.11719-.02735.13281-.01562.1914-.0586-.05859.17579-.01562.1328-.02735.1211-.01562.13281-.0586.08594-.1328.01563-.10548.04687-.10546.04297-.1172.03125-.11718.02735-.26563.03125h-.14843l-.13281.01562-.07422.07422.05859.08594.14844.14843.11719.1797.07421.0703.08985.0625.08984.0586.08594.0586.08984.05858.10156.04297.10547.0625.10547.04297.08594.0586.10547.04687.10156.04297.17969.11719.0586.08984-.04298.10156-.04687.10547.01562.13281.22266.22266.0586.08985.04296.10156.03125.1211.04297.10155.01563.13282.03125.11718.01171.13672.03125.11719.14844.14844.10156.04297.10547.04296.1172.03125.1328.01563.13672.01563h.11719l.11719-.03125.08984-.0586.04297-.10547.04688-.10156.04296-.10547.03125-.11719.01172-.1328v-.14845l-.01172-.1328-.01562-.13282-.03125-.11719-.04297-.10547-.04688-.10547-.04296-.10156-.04297-.10547-.01563-.13281.01563-.13281.02734-.11719.03125-.11719.02735-.1211.04687-.10155.08984-.0586.08594-.0625.07422-.07422.08984-.05859.22266-.22266.0586-.08593.07421-.07422.11719-.17969.0586-.08594v-.14844l-.07423-.07421-.10156-.04688-.10547-.04297-.10156-.04297-.0586-.08984-.04687-.10547-.02734-.11719.08984-.05859.11719-.03125.10156-.04297.17969-.11719.14844-.14843.01172-.13282-.01172-.10546-.08985-.0586-.1328.01563h-.14845l-.1328.01562-.13282-.01562-.1211-.03125-.08593-.0586-.07422-.07422-.0586-.08984-.0625-.08594-.11718-.17969-.0586-.08593.03125-.1211.08594-.05859.1211-.03125.05859-.08594v-.1211l-.03125-.11718-.0586-.08984-.05859-.08594-.04687-.10547-.02735-.11719-.01562-.1328.0586-.08985.07421-.07422.08984-.0586.1172-.17968.07421-.07422.0586-.08594.14843-.14844.1211-.03125.1328-.01562.13282.01562.07422.07422.04297.10547.01562.13281-.03125.1172-.11719.03124-.1328.01172-.14844.14844-.04297.10547-.04688.10156-.02734.1211-.03125.11718v.14844l.03125.11719.04297.10546.05859.08985.07422.07031.07422.07422.11719.03125.12109.02734.11719-.02734.1328-.01563h.1172l.08984.0586.07422.07422.04687.10546.0586.08594.10156.04688.13281.01562.10547.04297.08594.0586-.01172.10546-.07422.07422-.17969.11719-.05859.08984-.08984.0586-.07032.07422-.07421.07421-.0625.08985-.02735.11719-.01562.1328.01562.13282-.01562.13281v.14844l.01562.13281.02735.1172.03125.12108.07421.07422.08985.0586.08594.0586.08984.05858.11719.03125v.08594l-.10157.04688-.08984.0586-.26563.03124-.11718.02735h-.14844l-.10547.04296-.10156.04688-.0586.08984-.0625.23438-.01171.13281-.03125.1211-.01563.1328v.29298l-.01172.1328.01172.13673.01563.1328.1328.01563.13282.01172.1211.03125.08593.0586.07422.07421.04688.10547.04296.10157.01563.1328v.44532l-.01563.13281v.44532l.03125.26562.02735.11719.01562.13281.03125.11719.08594.21094.03125.26562v.14844l-.03125.11719-.02734.11718-.03125.1211-.02735.11719-.03125.11718-.03125.1211-.01171.1328-.01563.13282.08984.0586.1172-.03125.10155.01562.04688.10547-.03125.26562v.44141l-.04297.10547-.04688.10547-.04296.10156-.04297.10547-.0586.08594-.03125.12109-.04296.11719-.03125.11719-.01563.1328.01563.13282.05859.08984.10547.04688.08594.0586.05859.08593-.01172.13672-.03125.11719-.04297.10156v.44531l-.01562.13281v.14844l-.03125.11719-.04297.10547-.02735.11719-.04687.10546-.04297.10157-.03125.12109-.02734.11719-.03125.13281-.03125.11719-.02735.11719-.04297.10546-.03125.1172-.03125.12108-.01171.13282-.01563.13281v.29688l.02734.11718v.14844l.04688.39844.02734.11719.0586.08984.12109.03125h.14844l.13281-.01563.0586.08985v.11719l-.0586.08984-.08984.0586-.10157.04296-.10546.04688-.08985.05859-.08594.0586-.13671.01562-.1172-.03125-.1328-.01563-.10157.04688-.0625.08594-.01172.13671-.01562.13282-.03125.11719-.02735.11718-.01562.13281-.03125.1211v.29687l.01563.13282.03125.11718v.14844l.01171.13281v.14844l-.02734.11719-.04688.10156-.02734.1211-.03125.11718-.0586.08985-.07421.07421-.10156.04297-.10547.04688-.11719.02734-.1211.03125-.10156-.04687.0586-.08594.10547-.04688.02734-.11718.03125-.11719.02734-.1211.03125-.11718v-.14844l.01563-.13281-.03125-.11719-.04297-.10547-.10547.01563-.07422.07422-.10156.04296-.08984.0625-.07422.07422-.04297.10157-.01563.1328-.03125.1172L304.25 426l-.03125.11719-.02734.11719-.03125.12109-.02735.11719-.03125.11718-.04297.10547-.08984.0586h-.08984l-.1172-.03125-.03124-.08594.01562-.13672-.03125-.11719v-.14844l-.01171-.1328v-.14844l-.0625-.23438-.02735-.1211-.04297-.10156-.04687-.10546-.0586-.08594-.05859-.08985-.04297-.10546-.0625-.08594-.14844-.14844-.0703-.07422-.10548-.04687-.10547-.04297-.10156-.04297-.29687-.29688-.08985-.07421-.08594-.0586-.10546-.04297-.08985-.0625-.08594-.0586-.10546-.04296-.08985-.0586-.08594-.0625-.07421-.0703-.10547-.04688-.08594-.0586-.10547-.04296-.08984-.0625-.10156-.04297-.10547-.04297-.08594-.0586-.10547-.04687-.10547-.04297-.10156-.04687-.08985-.0586-.10156-.04297-.10547-.04296-.08984-.0625-.11719-.02735-.13281-.01562-.13281.01562H299.75l-.13281.01563-.11719-.03125-.08984-.0586-.07422-.07422-.08985-.05859-.10156-.04688h-.14844l-.12109-.02734-.10156-.04297-.07422-.07422-.11719-.17968-.08984-.0586-.10156-.04297-.08985-.0625-.10547-.04296-.08984-.0586-.08594-.0586-.10547-.04687-.0586-.08594-.05858-.08984-.04297-.10547-.04688-.10156-.07422-.07422-.08594-.0586-.07421-.07421-.08985-.0586-.22265-.22265-.04297-.10547-.03125-.26563.10547-.04296h.14453l.10547.04296.07421.07422.08985.0586.08594.0586.10546.04687.08985.05859.14844.14844.0703.07422.14845.14843.0625.08594.07421.07422.08594.0586.07422.07421.08985.0625.08984.0586.08594.05859.26953.17578.10156.04688.10547.04296.10156.04297.04688-.07421.05859-.08594.07422-.07422.07031-.07422.10547.04297.07422.07422.0586.08984.04296.10156.04688.10547.04296.10547.1211.02735.11719-.02735.07421-.08984.04297-.10547.0586-.08985.07422-.07421.10546-.04297.1172-.02735.1328.01172.08985.0586.14844.14843.05859.08985.04297.10547.04687.10156.04297.10547.04297.10156.10547.04688.10547.04296.13281.01563.08594-.0586.0586-.08984.07421-.07422.10547-.04297.11719.02735.10547.04687.10156.04297.10547.04297.10156.04688.17969.11718v.11719l-.01563.13281.01563.13281.01562.13672.0586.08594.10156.04688.1211.02734.11718.03125h.14844l.11719-.03125.05859-.08984.17969-.1172.05859-.08983.07422-.07422.0586-.08594.11718-.17969.17969-.11719.11719.03125.08984.0586.04297.07422-.01563.1328v.1172l.08985.05859h.14843l.13282-.01563.1328-.01171.26563-.03125.10547-.04297.11719-.03125.1211-.02735.07421-.07421.07031-.07422.0625-.08985-.01562-.10547-.04688-.10156-.10156-.04297-.10547-.01562-.11718.02734-.26563.03125h-.14844l-.07421-.07422-.08985-.0586-.11719-.03124-.11718-.02735-.13282-.01562h-.14843l-.13282.01563h-.29687l-.10547-.04688-.14844-.14844-.04297-.10156-.05859-.08984.22266-.22266.08593-.0586.10547-.04296.11719-.03125.13281-.01563.13281.01563.13672.01562.10157.04297.1328-.01172.08985-.0625.10156-.04297.0625-.08984-.04687-.10156-.08984-.0586-.1172-.03125-.10155-.04296-.0586-.08985-.0625-.08984v-.11719l.01563-.13281.10547-.04688.07421-.07031v-.1211l-.08984-.05859-.03125-.11719.08985-.05859.07421-.07422.04297-.10547.0586-.08984.04687-.10156.01563-.13281v-.14844l-.04688-.10547-.04297-.10156-.08984-.0586-.13281-.01562-.10157-.04297-.13671-.01563-.1172-.03125h-.4453l-.13282-.01562-.13281-.01172-.13281-.01563-.11719-.03125h-.14844l-.13281-.01562-.13281-.01172-.26563-.03125-.1211-.04297-.08593-.0586-.07422-.07421v-.14844l.01172-.13281.10547-.04688.10156-.04296.13281-.01563h.15235l.13281-.01562h.29297l.1211.03125.10156.04296.08984.0586.23438.0625.12109-.04688.08984-.05859.10156-.04297.13282-.01562.10547.04296.10156.04688.13281.01172.1211-.02735h.14453l.12109-.03125.11719-.02734.10547-.04687.07421-.07422.08594-.0586.14844-.14843.0586-.08594.04687-.10547.02734-.11719.01563-.10547-.10156-.04296-.08985-.0586-.11719-.03125-.10546-.04297-.08985-.0625-.07422-.08594-.07422-.07421-.10156-.04297-.10547-.04688-.10156-.04297-.0586-.08984-.04687-.10156-.08594-.21094-.0625-.08594-.05859-.08984-.07422-.07422-.08594-.0586h-.26953l-.11719.03126-.08984.05859-.10156.04297-.13281.01562-.10547-.01562-.02735-.11719-.0625-.08984-.11718-.03125-.10157-.04297-.14843-.14844-.03125-.11719-.01563-.10546.07422-.07422.17969-.1172.11719-.02733.11718-.03125.13672.01562.10156.04297.10547.04297.10156.04687.10547.04297.1172.03125.1328.01563.1172.02734.1328.01563.10547-.01563.08985-.0586-.07422-.07421-.10547-.04297-.07422-.07422-.07422-.08984-.14844-.14844-.08593-.0586-.08985-.05859-.07422-.07422-.08984-.0586-.10156-.04687-.1211-.02734-.10156-.04688-.10547-.04296-.11719-.03125-.10156-.04297-.1211-.03125h-.14843l-.11719.03125-.10546.04297-.08594.0625-.17969.11718-.08594.0586-.08984.0586-.10547.04687-.08594.05859-.10547.04297-.10156.04297-.10547.04687-.07422.07422-.05859.08985-.0586.08593-.04687.10547-.0586.08594-.07421.07422-.13281-.01172-.1172-.03125h-.11718l-.07422.07422-.08984.0586-.07422.07421-.08984.0586-.08594.05859-.10547.04687-.10156.04297-.13672.01563-.10156-.04297-.14844-.14844-.10547-.04688h-.08594l-.10547.04688-.10156.04297-.1211.03125-.11718-.03125-.07422-.07422v-.11719l.03125-.1211.07422-.0703.0586-.08985.07421-.07422.11719-.03125.10547-.04296h.29297l.13281-.01563.13672-.01563.10156-.04296.08985-.0586.10156-.04687.08984-.0586.13281-.01171.08985.05859.13281.01172.08984-.0586.08594-.05859.10547-.04297.08984-.0586.08594-.0625.08985-.05859.14843-.14843.0586-.08594.05859-.08985.10547-.04296.13281-.01563.11719.02735.1211.03125.05859-.0586.05859-.08984.03125-.26563.02734-.11719.10547.01172.13281.01563.10157-.04297.08984-.0586.0586-.08984.07421-.07422.0586-.08984.04687-.10156.01172-.13281-.01172-.13282-.04687-.10547-.14844-.14843-.0586-.08985-.05859-.08594-.04297-.10546v-.44532l.01563-.1328v-.14845l.01172-.1328-.0586-.0586-.08984.0586-.10156-.04298-.17969-.11719-.08594-.05859-.0625-.08984-.0586-.08985-.07421-.07421-.08594-.0586-.1211.03125-.10155.01172-.10547.04688-.08594.05859-.10547.04297-.14844.14844-.08984.05859-.08594.0586-.08984.0625-.10547.04296-.13281.01563v-.1211l.10547-.04297.11718-.03125.07422-.0703.04297-.10548v-.14844l-.02734-.11718-.14844-.14844-.13281-.01563h-.14844l-.11719.03125-.10547.04297-.10156.04297-.08984.0625-.11719.02735-.07422-.07422.01172-.13281-.04297-.10157-.04297-.10547-.08984-.05859-.11719.02734-.1211.03125-.11718.03125-.10156.04297-.1211.03125-.10156.04297-.10547.04297-.08984.0586-.10156.01562v-.11719l.01562-.13281-.0586-.08985-.07421.04297-.14844.14844-.0586.08985-.07421.07421-.04688.10547-.04296.10156-.07422.07422-.0586.08985-.07422.07422-.05859.08593-.07422.07422-.08984.0625-.07422.07031-.07422.07422-.10156.01563-.13281.01562-.10547-.04296v-.1211l.14843-.14844.04297-.10156.0586-.08984.04687-.10156.04297-.10547.0586-.08985.03124-.11719.04297-.10156.03125-.1211.02735-.11718.04687-.10547.04297-.10156.04297-.10547.07422-.07031.08984-.0625.08985-.0586.10156-.04296h.29687l.26563-.03125.10547-.04297-.07422-.07422-.11719-.03125-.10547-.04297-.08984-.0586-.10156-.04687-.08985-.0586-.10156-.04296-.10547-.04297-.08984-.0625-.08594-.0586-.10547-.04296-.10156-.04297-.1211-.03125-.11718-.03125-.10157-.04297L297.5 410.25l-.10156-.04297-.08985-.0586-.04296-.10546-.01563-.13281.10156-.04297.13281-.01563.13672.01563.13282-.01563.10156-.04297.0586-.08984.01562-.10547-.08985-.0586-.07421-.07421-.10157-.04297-.08984-.0586-.14844-.14843-.04297-.10547-.01562-.13281v-.29297l-.0586-.08985-.08984-.05859-.07422-.07422-.04297-.10547-.03125-.11718-.0586-.08985-.07421-.07422-.11719-.02734-.07422-.07422-.08984-.0586-.08984-.0625-.08594-.05859-.07422-.07421-.0586-.08594-.04687-.10547-.08594-.0586-.14843-.14843-.19532-.0586-.1328.01563-.10157.04297-.07422.07422-.04688.10156-.04296.10547-.0586.08984-.0586.08594-.29687.29687-.08984.0586h-.08594l-.0625-.08594-.04297-.10547.03125-.11719.0586-.08984.02734-.11719-.01172-.13281-.08984-.0625-.10547.04688-.11719.02734-.11719.03125-.26953.17578-.10156.04688-.11719.02734-.10546.04687-.08985.0586-.10156.04297-.0586-.08594-.04687-.10547.01563-.13281.04687-.10547.07031-.07422.07422-.07031.0586-.08985v-.14843l-.04297-.10547h-.23829l-.10156.04687-.03125.11719-.02734.11719-.03125.1211-.07422.04296-.13281.01563-.07422-.04688-.04297-.10156-.04297-.10547-.04687-.10156-.04297-.10547-.1211.03125-.10156.04297-.13281.01562-.11719.03125-.10547.04297-.08984.0586-.10156.04687-.1211.02734-.13281.01563-.10156-.04297-.0586-.08985-.04687-.10546-.04297-.10157-.04297-.10546v-.1172l.0586-.08984.08593-.05859.17969-.11719.10156-.04687.10547-.04297.10547-.0586.10156-.04296.08985-.0625.10156-.04297.10547-.0586.10156-.04687.08984-.0586.10547-.04296.10156-.04297.08985-.0625.10156-.04297.13672-.01563.11719.03125.10156.04297.1211.03125.10156.04297.10546.04688.10157.04296.10547.04297.10156.04688.10547.04297.10156.04297.10547.04687.08594.0586.10546.04296.1172.03125.10546.04297.10156.04688.08985.0586.10547.04296.10156.04297.10547.04687.11719.02735.10156.04687.1211.02735h.14843l.08594-.0586.01562-.10156.0586-.08984-.02735-.1172-.07422-.07421-.11719-.17969-.07421-.07422-.08985-.07421-.17969-.1172-.08593-.05859-.10547-.04296-.10156-.04688-.26954-.17578-.05859-.08985-.07422-.07421-.0586-.08985-.04296-.10156-.03125-.11719-.01563-.13672v-.5625l-.01171-.1328-.01563-.13282-.03125-.11719-.01562-.13281-.01172-.13281-.03125-.1211-.22266-.22265-.0586-.08594-.01562-.10547.03125-.11719.13281-.01562v-91.41406H172.9922v1.45312l-.0586.23438-.35156 1.05078-.17187.52343-.1172.34766-.17577.41016-.11719.17187-.23438.29297-.23046.0586h-.35157l-.11718.05859-.23047.40625v.29297l.11719.17578.23046.23047.1172.23437.64062.75781.29297.46485.17578.23437.23047.35156.23437.34766.64063.8164.17578.46485.17187.41016.11719.69531.17578.46875.11719 1.39844.0586.46484v.875l.11718 1.04688v4.78125l-.0586.46484-.35156 1.28125-.17578.52344-.11328.41015-.35156.9297L172.93359 336l-.23437.58203-.11719.17578-.17187.34766-.17578.40625-.35157.8164-.0586.29297-.11327.29297-.11719.28906-.0586.17579-.11718.875-.0586.40625-.05859.11718-.0586.17579-.05859.17187-.23047.52734-.11718.17188v.23437l-.11719.23438-.0586.17187-.17577.58594v.28906l-.0586.17579v.29296l-.0586.11329-.05859.52734v.17187l-.05468.23438v2.6211l-.17578.8164-.1172.17578-.17577.23438-.1172.17187-.11327.23438-.58594.93359-.23047.28906-.29297.46485-.17578.23437-.28906.35156-.35156.69922-.11328.23047-.17579.41016-.17578.23046-.40625.52735-.8164.69922-.29297.17187-.28906.23438-.17579.11719-.17578.17578-.52344.40625-.52734.17578-.17187.17578-.23438.05469-.64062.17578h-.75782m12.21094 31.02344l-1.07422.44921.35938.89454 1.25-.71485.44531-.53906-.98047-.08985"/><path fill="#d3d3d3" fill-opacity="0" fill-rule="evenodd" d="M201.50781 416.59766h-.89453l.44922.6289.98047.35938.80469-.08985.4453-.98828-.17577.08985-.71485-.35547-.89453.35547m154.6211 59.0703l-.0586-.52343v-.29297l.11328-.29297.0586-.23046.46875-.46875h.11328l.11719-.11329.11718-.05859h.17579l.23437-.0586h.34766l.23437.0586.11719.0586.23047.17187.0586.17578.11718.58203v.29297l-.11719.17578-.17187.28906-.17579.17579-.52734.52343-.23047.23438-.11719.0586h-.17578l-.11718-.0586-.40625-.29297-.17579-.11719-.11718-.0586-.0586-.11327-.05468-.1172m6.64062-10.95702l-.0586-.17188v-1.10937l.0586-.17188.17578-.0586.17188-.05858h.17578l.23437-.0586.1172.0586.05858.69921-.05859.17188-.11719.17578-.11718.0586-.23438.52343-.11328.0586h-.23438l-.05859-.1172m9.61328-14.39062l-.11719-.17578v-.69922l.29297-.875.1172-.17187.17577-.35156.11328-.23047.1172-.29297.35155-.75781.1172-.23047.17187-.23438h.17578l.11719-.0586h.64062l.11719.0586.23437.23438.17188.11328.35156.29297.11719.11718.11328.17579v.11328l.11719.05859.11718.11719v.69922l-.05859.17578v.23047l-.0586.17578-.34765 1.05078-.11719.23047-.11719.23437-.11718.0586-.23047.23437-.64063.28906h-.875l-.41015-.11718-.64063-.46485"/><path fill="none" stroke="#bebebe" stroke-linecap="round" stroke-linejoin="round" stroke-miterlimit="10" stroke-width=".5" d="M467.95703 311.69531H144.02734v168.625h323.9297v-168.625"/><g clip-path="url(#a)"><path fill="#fff" fill-opacity="0" fill-rule="evenodd" d="M144 475.89063v4.4375h.0039H144V311.67188h.0039H144v164.21875"/></g><g clip-path="url(#b)"><path fill="#fff" fill-opacity="0" fill-rule="evenodd" d="M144.0039 480.32813V311.67188h17.75v132.61328l-.36718.53515-2.88672 4.4414-.66406 4.4375.71875 4.4375 3.19922 3.52735 4.4375-1.36719 4.4375-.93359 4.4375 1.73047 2.01172-2.95703-2.01172-2.11328-2.375-2.32422-2.0625-2.71875-.92188-1.71875-3.51562-3.10156-3.73828-1.33985-.69922-.53515V311.67187h48.8203v90.08204l-3.51171 3.12109-.46484 4.4414-.46094.9922-3.5 3.4453 1.82812 4.4375-1.76172 4.4375 1.91797 4.44141 1.51563 1.55078 4.4375-.16015 1.71875-1.39063-1.71875-1.46875-1.01563-2.97265-1.17968-4.4375 2.1953-2.03125.6172 2.03125 3.82422 4.40625 3.20312.03125-1.38281 4.4414 2.61719 2.23828 4.4375-1.58984 2.01953 3.78906 2.41797 1.45313 2 2.98437 2.4375 2.57031 4.4414.125.75781 1.7422 3.6797 3.375 4.4375.03124 3.28124-3.40625-.21875-4.4375-3.0625-3.19531-4.4375-.46875-4.4375 1.04297-4.4414-.92969-1.70704-.88672-2.73047-2.5625-3.71484-1.875-.72266-.88281-4.29687-3.5586 3.9414-4.4375-.05468-4.4375-4.02734-3.98046-.4922-.45703-3.9453-3.73047-1.14063-.71094-3.30078-3.1211v-90.08202h48.82422v109.01171l-1.94531 1.94532-2.4961 1.34765-3.10156 3.09375 2.84375 4.4375.25781.30469 3.28516 4.13281 1.15625.96485 1.01562-.96485.54297-4.4375.69922-4.4375.11328-4.4414-2.3711-1.94532V311.67188h62.13673v103.1953l-4.4375.48829-4.44141.27734-4.4375-.01172-1.6875 2.57032-2.75 1.3203-4.4375-.58202-4.4414-.3164-4.38282-.42188-.05469-.01954-.02734.01954-4.41016 1.80468-2.33984 2.63282-2.09766.48437-4.4375-.25-4.4414.39453-4.4375 1.26563-3.26953 2.54687.26562 4.4375 3.0039 2.75781 4.4375.21094 4.44141.6211 1.04688.84765 3.39062 3.55078 4.4375.07032 4.4375-.55079 2.89454-3.0703.8828-4.4375.66016-1.26563v12.60547l-2.57812 1.97265 2.57812 1.90235 2.89844-1.90235-2.89844-1.97265v-12.60547l4.44141.76562 3.49219.5.94531.98438v14.16797l-2.63672 2.60156 2.63672 2.77734 2.4414-2.77734-2.4414-2.60156v-14.16797l.88672-.98438 3.07422-4.4375.47656-1.57031v32.9336l-4.4375 1.80468-.94922 2.33594.94922.66015 4.4375 1.6211 3.21094-2.28125-3.21094-4.14063V425.5l4.4375 1.42969 4.4414-2.1211 4.4375.48047 4.4375.13672 4.4375-1.60156 4.4375 2.26562 4.44141-2.42968 1.41016 3.41015 3.02734 2.70703.92578 1.73047-.21875 4.4375 3.73047 3.85547.78125.58203-.78125 4.11719-.26562.32031.26562.25781.25781-.2578 4.1797-.94923 4.4414-.48046 4.4375-.0625 3.0039-2.94532 1.4336-1.72265 3.0664-2.71485 1.3711-3.67187 4.4375 1.0586.14453 2.61327.48438 4.4375-.62891.90625-2.79688 3.53125-.5703 4.4414 1.07421 4.4375 2.29297 2.28126 1.79297 2.15625 2.64844 3.3125 1.28906 1.125 3.14844 2.70703 4.4375-.46094 3.42968 2.19531 1.00781.58204.6875-.58204 3.75-.26562 4.44141.1211 4.4375.05859 4.4375-.23828 4.4375-.29297 4.4414.04297 3.70313-3.8672.73438-.86327 4.4375-2.46094 4.4375 1.14844 2.41015-2.26172 2.02735-1.09375 4.4414-1.34766 2.26563-1.9961 2.17187-.55077 3.85938-3.88672-.03906-4.4414-3.82032-3.59376-4.4375.14844-3.1914 3.44531-1.25 1.90235-2.53125 2.53906-1.90625 1.02734-3.60938 3.41016-.82812 3.08594-.58594-3.08594-1.1875-4.4375-.66016-4.4414-2.0039-2.1211-1.39063-2.3164-3.04687-2.9297-3.0586 2.9297-1.17187 4.4375-.21094.08593-1.20703-.08594-3.23047-1.3789-4.4375-4.07813-3.08203-3.41797-1.35547-1.3125-4.4414-2.42578-4.4375 1.34375-4.4375-.1289-3.15235-1.91407-1.28515-1.27734-4.4375-.55078-4.44141.76172-1.53516-3.3711-2.90234-2.3125-2.14844-2.1289-2.28906-2.41407-4.4375-.39453-3.26953 2.8086-1.16797 1.02343-4.4414 1.96094-4.4375-2.57031-1.97266-.41406-2.46485-2.6836-2.77344-1.7539-1.66406-1.13282-4.4414.70313-.57422.42969-3.86328 2.82812-3.8711-2.82812-.5664-.6211-4.4375-2.70312V311.67188h124.27343v123.37109l-1.02343.90234 1.02343 1.03906.95704-1.03906-.95704-.90234v-123.3711h22.1875v168.65625H144.00391"/></g><path fill="#50fcfc" fill-rule="evenodd" d="M158.55469 458.13672l-.71875-4.4375.66406-4.4375 2.88672-4.4414.36719-.53516v3.36718l-1.13282 1.60938-1.07422 4.4375 1.63672 4.4375.57032.6289 1.60937-.6289 2.82813-1.86328 1.92187-2.57422-1.92187-2.98828-1.44141-1.44922-2.9961-1.60938v-3.36718l.69923.53515 3.73828 1.33985 3.51562 3.10156.92188 1.71875 2.0625 2.71875 2.375 2.32422 2.01172 2.11328-2.01172 2.95703-4.4375-1.73047-4.4375.9336-4.4375 1.36718-3.19922-3.52734"/><path fill="#00e8fc" fill-rule="evenodd" d="M161.1836 458.13672l-1.63673-4.4375 1.07422-4.4375 1.13282-1.60938 2.99609 1.60938 1.4414 1.44922 1.92188 2.98828-1.92187 2.57422-2.82813 1.86328-1.60937.6289-.57032-.6289"/><path fill="#50fcfc" fill-rule="evenodd" d="M204.46484 418.1914l-1.82812-4.4375 3.5-3.4453.46094-.9922.46484-4.4414 3.51172-3.1211v2.89844l-.25.22266-2.83203 4.4414-1.35547 2.91407-1.54688 1.52344 1.54688 2.42968v3.75l-1.72656 2.69532 1.72656 2.66015 1.72266-2.66015-1.72266-2.69532v-3.75l2.53125-2.42968 1.90625-.65625 1.83203.65625.59766 4.4375 2.01172 2.3164 4.4375-1.42187.8164-.89453 1.3125-4.4375-2.1289-2.10157-2.50391-2.33593-1.9336-1.82813-4.20312-2.61328-.23828-.22266v-2.89843l3.30078 3.12109 1.14063.71094 3.9453 3.73047.4922.45703 4.02734 3.98047.05469 4.4375-3.94141 4.4375 4.29688 3.55859.72265.88281 3.71484 1.875 2.73047 2.5625 1.70703.88672 4.44141.92969 4.4375-1.04297v1.65625l-3.5 2.00781 1.5664 4.4375 1.9336 1.77344 4.4375-.21094 1.5039-1.5625-.51171-4.4375-.99219-1.03515-4.4375-.97266v-1.65625l4.4375.46875 3.0625 3.19531.21875 4.4375-3.28125 3.40625-4.4375-.03125-3.67969-3.375-.7578-1.74219-4.44142-.125-2.4375-2.5703-2-2.98438-2.41796-1.45313-2.01953-3.78906-4.4375 1.58984-2.6172-2.23828 1.38282-4.4414-3.20313-.03125-3.82421-4.40625-.6172-2.03125-2.1953 2.03125 1.17968 4.4375 1.01563 2.97265 1.71875 1.46875-1.71875 1.39063-4.4375.16015-1.51563-1.55078-1.91797-4.4414 1.76172-4.4375"/><path fill="#00e8fc" fill-rule="evenodd" d="M206.13672 425.28906l-1.72656-2.66015 1.72656-2.69532 1.72266 2.69532-1.72266 2.66015m0-9.10547l-1.54688-2.42968 1.54688-1.52344 1.35547-2.91406 2.83203-4.44141.25-.22266v2.32032l-1.58984 2.34375 1.58984 1.94921 3.17969-1.94921-3.1797-2.34375v-2.32032l.23829.22266 4.20313 2.61328 1.93359 1.82813 2.5039 2.33593 2.12891 2.10157-1.3125 4.4375-.8164.89453-4.4375 1.42187-2.01172-2.3164-.59766-4.4375-1.83203-.65625-1.90625.65625-2.53125 2.42968"/><path fill="#00d4fc" fill-rule="evenodd" d="M210.57422 411.26563l-1.58984-1.94922 1.58984-2.34375v2.1953l-.09766.14845.09766.12109.19922-.1211-.19922-.14843v-2.19531l3.17969 2.34375-3.1797 1.94921"/><path fill="#00c4fc" fill-rule="evenodd" d="M210.57422 409.4375l-.09766-.1211.09766-.14843.19922.14844-.19922.12109"/><path fill="#00e8fc" fill-rule="evenodd" d="M239.71094 440.38281l-1.5664-4.4375 3.5-2.00781 4.4375.97266.99218 1.03515.51172 4.4375-1.5039 1.5625-4.4375.21094-1.9336-1.77344"/><path fill="#50fcfc" fill-rule="evenodd" d="M254.69922 431.50781l-2.84375-4.4375 3.10156-3.09375v2.07422l-1.01953 1.01953 1.01953 1.4961 1.84375-1.4961-1.84375-1.01953v-2.07422l2.4961-1.34765 1.9453-1.94532 2.3711 1.94532-.11328 4.4414-.69922 4.4375-.54297 4.4375-1.01562.96485-1.15625-.96485-3.28516-4.13281-.25781-.30469"/><path fill="#00e8fc" fill-rule="evenodd" d="M254.95703 428.5664l-1.01953-1.49609 1.01953-1.01953 1.84375 1.01953-1.84375 1.4961"/><path fill="#50fcfc" fill-rule="evenodd" d="M265.26953 431.50781l-.26562-4.4375 3.26953-2.54687 4.4375-1.26563 4.4414-.39453 4.4375.25 2.09766-.48437 2.33984-2.63282 4.41016-1.80468.02734-.01954.0547.01954 4.3828.42187 4.44141.3164v1.5547l-4.4414.23046-4.4375-.05468-2.85548 1.96875-1.58203 2.16015-4.4375-.71484-4.4375-.35547-4.4414.54297-4.1875 2.8086-.25 3.40624-.14063 1.03125.14063.1289 4.4375.60548 4.4414 1.4961 2.72657 2.20702 1.71093 1.79297 4.4375.28906 4.4375-1.89062.1797-.1914 2.59765-4.4375 1.66015-3.17579 4.44141 1.80469 4.4375.47656 3.05078-3.54297 1.01563-4.4414-4.06641-.96875-4.4375-1.17579v-1.55468l4.4375.58203 2.75-1.32031 1.6875-2.57032 4.4375.01172v3.01563l-4.35547 3.98047 4.35547 2.97265 3.7461-2.97265-3.7461-3.98047v-3.01563l4.4414-.27734 4.4375-.48828v2.15234l-3.4375 1.17188 3.4375 3.625 3.29298.8125 1.14453.11718.23437-.11718-.23437-.19141-2.8086-4.2461-1.6289-1.17187v-2.15234l4.4375 2.70312.5664.6211 3.8711 2.82812 3.86328-2.82812.57422-.4297v2.69142l-2.40235 2.17578 2.40235 1.64453 2.27734-1.64453-2.27734-2.17579v-2.6914l4.4414-.70313 1.66406 1.13282 2.77344 1.7539 2.46485 2.6836 1.97265.41406 4.4375 2.57031 4.4414-1.96094 1.16798-1.02343 3.26953-2.8086v3.03906l-4.4375 4.20704-.0039.0039-4.4375 1-1.0625-1-3.375-2.89453-4.4297 2.89453 2.3711 4.4375-.58203 4.4375 2.64062 2.72656 2.28516 1.71094 2.15234 2.05469 4.4414-1.19531 4.4375-.16406.70704-.69532-.70703-2.27734-.1836-2.16016.1836-.77344 4.4375.7422 3.22656-4.40626.96485-4.4375-4.19141-4.1836-4.4375-.02733v-3.03907l4.4375.39453 2.28906 2.41407 2.14844 2.1289 2.90234 2.3125 1.53516 3.3711 4.4414-.76172v2.53515l-3.43359 3.73047 1.96485 4.4375-2.97266 4.29297-.11328.14453-1.51172 4.4414 1.625 3.33985.41406 1.09766 4.02735 4.39062.3125.04688 4.125 3.01172 2.8164-3.01172 1.6211-.82422.14453.82422.23437 4.4375 4.0586 3.9375 4.4375-.2539 4.4414.30859 4.4375.0039 4.4375-.49219 4.4375-.8789 4.4414-.27735 2.2461-2.34765 2.1914-2.57031 2.52344-1.8672-.17578-4.4375-2.34765-3.48437-4.32813-.95312 2.23047-4.4414-1.95703-4.4375-.38281-.3672-.38672.3672-1.17188 4.4375-2.8828 1.15624-4.4375 2.1211-2.32032-3.27735-2.11719-2.04297-3.16015-2.39453-1.27735-1.35937-2.8711-3.07813-1.5703-1.10937-2.79297 1.10937-1.64454.28906-4.4375.06641-.16406-.35547-4.27344-3.69922-4.4375-.03125v-2.53515l4.4375.55078 1.28516 1.27734 3.15235 1.91406 4.4375.12891 4.4375-1.34375 4.4414 2.42578 1.35547 1.3125 3.08203 3.41797 4.4375 4.07813 3.23047 1.3789 1.20703.08594.21094-.08594 1.17187-4.4375 3.0586-2.92969 3.04687 2.9297 1.39063 2.3164 2.0039 2.1211.66016 4.4414 1.1875 4.4375.58594 3.08594.82812-3.08594 3.60938-3.41016 1.90625-1.02734 2.53125-2.53906 1.25-1.90235 3.1914-3.44531 4.4375-.14844v1.53125l-4.4375 1.26172-.74609.80078-2.85547 4.4414-.83984 1.33985-4.4375 1.69922-1.47656 1.39844 1.47656 3.02734 4.4375-1.60547 2.67578-1.42187 1.76562-1.16406 4.4375-.51172 2.7422-2.76172-.55079-4.4414-2.1914-2.0625v-1.53126l3.8203 3.59375.03907 4.4414-3.85938 3.88673-2.17187.55078-2.26563 1.9961-4.4414 1.34765-2.02735 1.09375-2.41015 2.26172-4.4375-1.14844-4.4375 2.46094-.73438.86328-3.70312 3.86719-4.4414-.04297-4.4375.29297-4.4375.23828-4.4375-.0586-4.44142-.12109-3.75.26563-.6875.58203-1.0078-.58204-3.4297-2.1953-4.4375.46093-3.14843-2.70703-1.28906-1.125-2.64844-3.3125-1.79297-2.15625-2.29297-2.28125-1.07422-4.4375.57031-4.4414 2.79688-3.53126.6289-.90625-.48437-4.4375-.14453-2.61328-4.4375-1.0586-1.3711 3.67188-3.0664 2.71485-1.4336 1.72265-3.0039 2.94531-4.4375.0625-4.4414.48047-4.1797.94922-.2578.25781-.26563-.2578.26562-.32032.78125-4.11719-.78125-.58203-3.73047-3.85547.21875-4.4375-.92578-1.73047-3.02734-2.70703-1.41016-3.41015-4.4414 2.42968-4.4375-2.26562-4.4375 1.60156-4.4375-.13672-4.4375-.48047-4.44141 2.1211-4.4375-1.42969-.47656 1.57031-3.07422 4.4375-.88672.98438-.94531-.98438-3.49219-.5-4.4414-.76562-.66016 1.26562-.88281 4.4375-2.89454 3.07031-4.4375.55079-4.4375-.07032-3.39062-3.55078-1.04688-.84765-4.4414-.6211-4.4375-.21094-3.0039-2.7578"/><path fill="#00e8fc" fill-rule="evenodd" d="M268.27344 431.63672l-.14063-.1289.14063-1.03126.25-3.40625 4.1875-2.8086 4.4414-.54296v1.42969l-4.4414.78906-1.6914 1.13281 1.6914 2.03125 4.4414 2.36328.02735.04297 4.41015 3.67578 4.4375.23829 4.4375-2.09766 1.11329-1.8164-1.11329-1.76563-4.4375-1.16797-2.01171-1.5039-2.42579-1.39454-4.4375-.52734v-1.42969l4.4375.35547 4.4375.71484 1.58204-2.16015 2.85546-1.96875v6.3203l-.14843.08985.14843.02344.10547-.02344-.10547-.08984v-6.32031l4.4375.05468 4.44141-.23046v2.74609l-2.8789 3.83984 2.8789 1.61328 4.4375.16797 1.53516-1.78125-1.53516-2.58203-4.4375-1.25781v-2.7461l4.4375 1.17579 4.0664.96875-1.01562 4.4414-3.05078 3.54297-4.4375-.47656-4.4414-1.80469-1.66016 3.17578-2.59766 4.4375-.17969.1914-4.4375 1.89063-4.4375-.28906-1.71093-1.79297-2.72657-2.20703-4.4414-1.4961-4.4375-.60546"/><path fill="#00d4fc" fill-rule="evenodd" d="M272.71094 429.10156l-1.6914-2.03125 1.6914-1.13281 4.4414-.78906v1.42969l-2.28515.49218 2.28515 1.11719 2.38672 3.32031 2.05078 1.71094 4.4375-.59375 2.42188-1.11719-2.42188-.83984-4.4375-3.01563-1.23828-.58203-3.19922-.49219v-1.42968l4.4375.52734 2.42579 1.39453 2.01171 1.5039 4.4375 1.16798 1.11329 1.76562-1.11329 1.8164-4.4375 2.09767-4.4375-.23829-4.41015-3.67578-.02735-.04297-4.4414-2.36328"/><path fill="#00c4fc" fill-rule="evenodd" d="M277.15234 428.1875l-2.28515-1.11719 2.28515-.49219 3.19922.4922 1.23828.58202 4.4375 3.01563 2.42188.83984-2.42188 1.11719-4.4375.59375-2.05078-1.71094-2.38672-3.32031"/><path fill="#50fcfc" fill-rule="evenodd" d="M290.46484 426.98047l-.14843.08984.14843.02344.10547-.02344-.10547-.08984m4.4375 19.74219l-2.57812-1.90235 2.57812-1.97265 2.89844 1.97265-2.89844 1.90235"/><path fill="#00d4fc" fill-rule="evenodd" d="M299.34375 428.6836l-2.8789-1.61329 2.8789-3.83984v3.44531l-.29297.39453.29297.16406 4.4375-.14843.01563-.01563-.01563-.02734-4.4375-.36719v-3.44531l4.4375 1.25781 1.53516 2.58203-1.53516 1.78125-4.4375-.16797"/><path fill="#00c4fc" fill-rule="evenodd" d="M299.34375 427.23438l-.29297-.16407.29297-.39453 4.4375.36719.01563.02734-.01563.01563-4.4375.14844"/><path fill="#50fcfc" fill-rule="evenodd" d="M303.78125 452.03906l-2.63672-2.77734 2.63672-2.60156 2.4414 2.60156-2.4414 2.77734m0 11.19531l-.94922-.66015.94922-2.33594 4.4375-1.80469 3.21094 4.14063-3.21094 2.28125-4.4375-1.6211"/><path fill="#00e8fc" fill-rule="evenodd" d="M312.65625 425.60156l-4.35547-2.97265 4.35547-3.98047v2.96875l-1.10938 1.01172 1.10938.7578.95703-.7578-.95703-1.01172v-2.96875l3.7461 3.98047-3.7461 2.97265"/><path fill="#00d4fc" fill-rule="evenodd" d="M312.65625 423.38672l-1.10938-.75781 1.10938-1.01172.95703 1.01172-.95703.7578"/><path fill="#00e8fc" fill-rule="evenodd" d="M321.53516 421.8164l-3.4375-3.625 3.4375-1.17187 1.6289 1.17188 2.8086 4.24609.23437.1914-.23437.1172-1.14454-.1172-3.29296-.8125m13.3125 2.45704l-2.40235-1.64453 2.40235-2.17579 2.27734 2.17579-2.27734 1.64453m11.2578 7.23437l-2.37108-4.4375 4.42968-2.89453 3.375 2.89453 1.0625 1 4.4375-1 .0039-.0039 4.4375-4.20704 4.4375.02735v1.29687l-4.4375 1.03125-1.95702 1.85547-2.48047.95313-4.4414 2.1211-3.26563-3.07423-1.17188-1.00781-1.53906 1.00781 1.53906 3.45313.83203.98437-.83203 1.11719-.82031 3.32031.82031.84766 4.4375 3.4375 4.4414-.72656 3.20704-3.5586 1.03125-4.4375.19922-.79297 1.21875.79297 3.21875 1.375 1.00781-1.375 1.88672-4.4375-2.89453-2.88672v-1.29687l4.1914 4.1836-.96484 4.4375-3.22656 4.40624-4.4375-.74219-.1836.77344.1836 2.16016.70703 2.27734-.70703.69531-4.4375.16407-4.4414 1.19531-2.15235-2.05469-2.28516-1.71094-2.64062-2.72656.58203-4.4375"/><path fill="#00d4fc" fill-rule="evenodd" d="M348.16406 430.52344l-1.53906-3.45313 1.53906-1.00781 1.17188 1.00781 3.26562 3.07422 4.4414-2.1211v.95313l-3.93358 2.53125-.50782.45313-3.75 3.98437 3.75 3.21485 4.4414-.8125 2.16407-2.40235.91016-4.4375-3.07422-2.53125v-.95312l2.48047-.95313 1.95703-1.85547 4.4375-1.03125v1.29297l-3.78516 1.59375 3.78516 3.07031 1.59375-3.0703-1.59375-1.59376v-1.29297l2.89453 2.88672-1.88672 4.4375-1.00781 1.375-3.21875-1.375-1.21875-.79297-.19922.79297-1.03125 4.4375-3.20703 3.5586-4.4414.72656-4.4375-3.4375-.82032-.84766.82031-3.32031.83203-1.11719-.83203-.98437"/><path fill="#00c4fc" fill-rule="evenodd" d="M352.60156 439.16016l-3.75-3.21485 3.75-3.98437.50781-.45313 3.9336-2.53125v.95313l-2.44922 1.57812-1.99219 1.77735-2.5039 2.66015 2.5039 2.14453 4.4414-.90234 1.1172-1.24219.79687-4.4375-1.91406-1.57812v-.95313l3.07422 2.53125-.91016 4.4375-2.16406 2.40235-4.4414.8125"/><path fill="#00b8fc" fill-rule="evenodd" d="M352.60156 438.08984l-2.5039-2.14453 2.5039-2.66015 1.99219-1.77735 2.44922-1.57812v.95703l-.96485.6211-3.47656 3.10546-1.2539 1.33203 1.2539 1.07422 4.4414-.99219.07423-.08203.67969-4.4375-.75391-.6211v-.95702l1.91406 1.57812-.79687 4.4375-1.1172 1.24219-4.4414.90234"/><path fill="#00a8fc" fill-rule="evenodd" d="M352.60156 437.01953l-1.2539-1.07422 1.2539-1.33203v1.32422l-.0039.00781.0039.0039.02344-.0039-.02344-.00781v-1.32422l3.47656-3.10547.96485-.6211.7539.6211-.67968 4.4375-.07422.08203-4.4414.9922"/><path fill="#009800" fill-rule="evenodd" d="M352.60156 435.94922l-.0039-.0039.0039-.00782.02344.00781-.02344.0039"/><path fill="#00c4fc" fill-rule="evenodd" d="M365.91797 430.14063l-3.78516-3.07032 3.78516-1.59375v1.29688l-.70313.29687.70313.5664.29687-.5664-.29687-.29687v-1.29688l1.59375 1.59375-1.59375 3.07031"/><path fill="#00b8fc" fill-rule="evenodd" d="M365.91797 427.63672l-.70313-.5664.70313-.29688.29687.29687-.29687.5664"/><path fill="#00e8fc" fill-rule="evenodd" d="M374.79297 452.60156l-1.625-3.33984 1.51172-4.4414.11328-.14454 2.97265-4.29297-1.96484-4.4375 3.4336-3.73047v1.57032l-1.98829 2.16015 1.98829 3.05078 1.625 1.38672-1.625 2.53516-1.44141 1.90234-2.08203 4.4414 1.72265 4.4375 1.80079 1.96485 2.77343-1.96484 1.66406-1.78125 4.4375.5664.33204 1.21485.8125 4.4375.1953 4.4375 3.09767 3.0039 4.4375-.13671 4.4414.60937 4.4375-.07422 4.4375-.91797 4.4375-1.85546 3.60938-.62891.83203-.15625 3.76953-4.28125.61328-4.4375-4.38281-3.73828-2.40625-.69922-2.03516-1.5-2.23047 1.5-2.20703.9336-4.4375-.26563-2.60156-.66797-1.83594-1-2.26562-3.4414-.76563-4.4375-1.41015-1.46876-4.4375-.73047-4.3047 2.19922-.1328.22656-.13672-.22656L386 435.94531l-2.32813-2.01172-4.4375-.14843v-1.57032l4.4375.03125 4.27344 3.69922.16406.35547 4.4375-.0664 1.64454-.28907 2.79296-1.10937 1.57032 1.10937 2.8711 3.07813 1.27733 1.35937 3.16016 2.39453 2.11719 2.04297 2.32031 3.27735 4.4375-2.1211 2.88281-1.15625 1.17188-4.4375.38672-.36719.38281.3672 1.95703 4.4375-2.23047 4.4414 4.32813.95312 2.34765 3.48438.17579 4.4375-2.52344 1.86719-2.1914 2.5703-2.2461 2.34767-4.4414.27734-4.4375.8789-4.4375.4922-4.4375-.00391-4.44142-.3086-4.4375.2539-4.05859-3.9375-.23437-4.4375-.14454-.82421-1.62109.82422-2.8164 3.01172-4.125-3.01172-.3125-.04688-4.02735-4.39062-.41406-1.09766"/><path fill="#00d4fc" fill-rule="evenodd" d="M377.4336 453.69922l-1.72266-4.4375 2.08203-4.4414 1.4414-1.90235v3.84765l-1.42968 2.4961 1.42969 3.46484 3.16015-3.46484-3.16015-2.4961v-3.84765l1.625-2.53516-1.625-1.38672-1.98829-3.05078 1.98829-2.16015v1.5703l-.54297.58985.54296.83203 4.23047 3.60547.20704.20313v2.57422l-2.57422 1.66015 2.57421 2.09375 2.21875-2.09375-2.21875-1.66015v-2.57422l.3125-.20313.06641-4.4375-.3789-.32812-4.4375-.26172v-1.57031l4.4375.14843L386 435.94531l1.97266 4.4375.13671.22656.13282-.22656 4.30469-2.19922v1.94922l-.4922.25-1.85156 4.4375-1.71484 4.4414.85938 4.4375.90625 4.4375.15625 4.4375 2.13671 2.07423 4.4375-.02735 4.44141.91797 4.4375-.15625 4.4375-1.34765 3-1.46094 1.4375-1.61719 4.4414-.75 1.82423-2.07031 1.73437-4.4375-3.5586-3.03516-4.4414-1.26562-4.4375 1.92187-4.4375 1.28516-4.4375.99219-2.11328-4.33594-2.32813-3.04297-2.26953-1.39844-1.41015-4.4375-.75781-.25v-1.94922l4.4375.73047 1.41015 1.46875.76563 4.4375 2.26562 3.4414 1.83594 1 2.60156.66798 4.4375.26562 2.20703-.9336 2.23047-1.5 2.03516 1.5 2.40625.69923 4.38281 3.73828-.61328 4.4375-3.76953 4.28125-.83203.15625-3.60938.6289-4.4375 1.85547-4.4375.91797-4.4375.07422-4.4414-.60937-4.4375.13671-3.09766-3.0039-.19531-4.4375-.8125-4.4375-.33204-1.21485-4.4375-.5664-1.66406 1.78125-2.77344 1.96484-1.80078-1.96484"/><path fill="#00c4fc" fill-rule="evenodd" d="M379.23438 452.72656l-1.4297-3.46484 1.4297-2.4961 3.16015 2.4961-3.16015 3.46484m0-15.94922l-.54297-.83203.54296-.58984 4.4375.26172.37891.32812-.0664 4.4375-.3125.20313-.20704-.20313-4.23046-3.60547"/><path fill="#00e8fc" fill-rule="evenodd" d="M383.67188 443.16016l-2.57422 1.66015 2.57421 2.09375 2.21875-2.09375-2.21875-1.66015"/><path fill="#00c4fc" fill-rule="evenodd" d="M389.34766 453.69922l-.85938-4.4375 1.71485-4.4414 1.85156-4.4375.49219-.25.7578.25 1.41016 4.4375 2.26954 1.39843v3.1836l-4.4375.78515-2.29297 3.51172 1 4.4375.11718 4.4375 1.17579 1.14062 4.4375.08985 4.4414 1.22265 4.4375-.23828 4.4375-1.77344.90235-.4414 3.53515-3.97266 3.3789-.46484 1.0625-.08203 2.73048-4.35547-2.73047-2.32813-4.4414-1.10937-4.4375 2.17969-2.89845 1.2578-1.53906.51954-4.4375.28516-1.13672-.8047-3.30469-4.29687v-3.18359l2.32813 3.04297 2.11328 4.33594 4.4375-.9922 4.4375-1.28515 4.4375-1.92187 4.4414 1.26562 3.5586 3.03516-1.73437 4.4375-1.82422 2.07031-4.4414.75-1.4375 1.61719-3 1.46094-4.4375 1.34765-4.4375.15625-4.44142-.91797-4.4375.02735-2.13671-2.07422-.15625-4.4375-.90625-4.4375"/><path fill="#00b8fc" fill-rule="evenodd" d="M391.2539 458.13672l-1-4.4375 2.29298-3.51172 4.4375-.78516v1.50391l-4.4375.67188-1.38282 2.12109 1.08985 4.4375.07812 4.4375.21485.21094 4.4375.19921 4.4414 1.52735 4.4375-.3164 3.66797-1.6211.76953-1.91797 2.14453-2.51953 2.29297-.94531 4.4414-.45704 1.90235-3.03515-1.90234-1.6211-4.4414-.94921-4.4375 2.4375-.3047.1328-4.1328 1.40235-4.4375.22266-2.29298-1.625-2.14844-2.79297v-1.5039l3.3047 4.29687 1.13671.80469 4.4375-.28516 1.53906-.51953 2.89844-1.25781 4.4375-2.1797 4.4414 1.10938 2.73048 2.32813-2.73047 4.35547-1.0625.08203-3.3789.46484-3.53517 3.97266-.90234.4414-4.4375 1.77344-4.4375.23828-4.4414-1.22265-4.4375-.08985-1.17579-1.14062-.11718-4.4375"/><path fill="#00a8fc" fill-rule="evenodd" d="M392.2539 458.13672l-1.08984-4.4375 1.38281-2.1211 4.4375-.67187v1.50781l-4.4375.55078-.47656.73438.47656 1.89844.7422 2.53906 3.6953 3.88672.6797.55078L401.42577 464l4.4375-.39844 2.32422-1.02734 1.70313-4.4375-4.02735-2.15625-4.4375.16406-3.44922-2.44531-.99219-1.28516v-1.50781l2.14844 2.79297 2.29297 1.625 4.4375-.22266 4.13281-1.40234.3047-.13281 4.4375-2.4375v.86328l-3.06642 1.70703 3.06641 2.32031 4.4414-.60547 1.07423-1.71484-1.07422-.91797-4.4414-.78906v-.86328l4.4414.94921 1.90234 1.6211-1.90234 3.03515-4.4414.45704-2.29298.9453-2.14453 2.51954-.76953 1.91797-3.66797 1.6211-4.4375.3164-4.4414-1.52735-4.4375-.19921-.21485-.21094-.07812-4.4375"/><path fill="#009800" fill-rule="evenodd" d="M392.54688 455.59766l-.47657-1.89844.47656-.73438 4.4375-.55078v1.52735l-2.64062 4.1953 2.64063 2.78126 2.03515 1.65625 2.40625.91406 4.4375-.48047.97656-.4336 1.40235-4.4375-2.3789-1.27343-4.4375.10156-4.44142-3.02343v-1.52735l.9922 1.28516 3.44921 2.44531 4.4375-.16406 4.02735 2.15625-1.70313 4.4375-2.32422 1.02734-4.4375.39844-3.76172-1.42578-.67969-.55078-3.6953-3.88672-.7422-2.53906"/><path fill="#00ac00" fill-rule="evenodd" d="M396.98438 460.91797l-2.64063-2.78125 2.64063-4.19531v1.66796l-1.58985 2.52735 1.58985 1.67578 3.39062 2.76172 1.05078.39844 3.27344-.39844 1.16406-1.69531.73438-2.7422-.73438-.39452-4.4375.03906-4.4414-2.17188v-1.66796l4.4414 3.02343 4.4375-.10156 2.3789 1.27344-1.40234 4.4375-.97656.4336-4.4375.48046-2.40625-.91406-2.03515-1.65625"/><path fill="#00c800" fill-rule="evenodd" d="M396.98438 459.8125l-1.58985-1.67578 1.58985-2.52735 4.4414 2.17188 4.4375-.03906.73438.39453-.73438 2.74219-1.16406 1.6953-3.27344.39845-1.05078-.39844-3.39063-2.76172"/><path fill="#009800" fill-rule="evenodd" d="M414.73828 456.01953l-3.0664-2.32031 3.0664-1.70703v.86328l-1.51172.84375 1.51172 1.14453 4.4414-.75.2461-.39453-.2461-.21094-4.4414-.63281v-.86328l4.4414.78906 1.07423.91797-1.07422 1.71484-4.4414.60547"/><path fill="#00ac00" fill-rule="evenodd" d="M414.73828 454.84375l-1.51172-1.14453 1.51172-.84375 4.4414.63281.2461.21094-.2461.39453-4.4414.75"/><path fill="#00e8fc" fill-rule="evenodd" d="M432.49219 456.72656l-1.47656-3.02734 1.47656-1.39844 4.4375-1.69922.83984-1.33984 2.85547-4.4414.7461-.80079 4.4375-1.26172v3.35156l-3.25391 3.15235 3.2539.88281.87891-.88281-.8789-3.15235v-3.35156l2.1914 2.0625.55078 4.4414-2.74219 2.76173-4.4375.51172-1.76562 1.16406-2.67578 1.42187-4.4375 1.60547"/><path fill="#00d4fc" fill-rule="evenodd" d="M445.8086 450.14453l-3.25391-.88281 3.2539-3.15235.87891 3.15235-.8789.88281"/><path fill="#50fcfc" fill-rule="evenodd" d="M445.8086 436.98438l-1.02344-1.03907 1.02343-.90234.95704.90234-.95704 1.03906"/><g clip-path="url(#c)"><path fill="#fff" fill-opacity="0" fill-rule="evenodd" d="M467.9961 480.32813H468V311.67188h-.0039H468v168.65625h-.0039"/></g><path fill="#fff" fill-opacity="0" fill-rule="evenodd" d="M296.29688 441.3164l2.67968-5.1914-8.85547-4.5625-2.67578 5.1914 8.85156 4.5625"/><path fill-rule="evenodd" d="M290.67578 434.48438l.23438-.45313 5.59375 2.88281-.35938.69922-3.98828-2.05469-.63672 1.23438-.4961-.2539.19923-.52735.0703-.25.02345-.2461-.03125-.24609-.10938-.25-.19531-.26172-.30469-.27344"/><path fill="#fff" fill-opacity="0" fill-rule="evenodd" d="M348.90234 430.49219l5.83204.3164.54296-9.9453-5.83203-.31642-.54297 9.94532"/><path fill-rule="evenodd" d="M352.83984 422.5664l.50782.02735-.34375 6.28516-.78516-.04297.2461-4.48047-1.38673-.07813.02735-.55468.5625-.03125.25781-.04297.23047-.07422.21094-.13281.1875-.19922.15625-.28516.1289-.39062"/><path fill="#fff" fill-opacity="0" fill-rule="evenodd" d="M416.1211 440.86328l3.64062 4.57031 7.78906-6.21093-3.64062-4.56641-7.78907 6.20703"/><path fill-rule="evenodd" d="M424.65625 438.53516l.3164.39453-4.91796 3.92578-.49219-.61328 3.51172-2.80078-.86719-1.08594.4336-.34766.40234.39844.19922.16406.21094.125.23828.07031.27343.00391.31641-.07422.375-.16015"/><path fill="#fff" fill-opacity="0" fill-rule="evenodd" d="M233.83984 438.4375l5.83985-.07031-.1211-9.96094-5.84375.07031.125 9.96094"/><path fill-rule="evenodd" d="M237.23828 430.26563l.50781-.00391.07813 6.29297-.78906.01172-.0547-4.4922-1.38671.01954-.00781-.5586.5586-.0703.2539-.0547.22656-.09374.20313-.14454.17187-.21093.13672-.29688.10156-.39844"/><path fill="#fff" fill-opacity="0" fill-rule="evenodd" d="M418.3086 469.02344l6.8789-3.9336-5.05469-8.84765-6.8789 3.92969 5.05468 8.85156"/><path fill-rule="evenodd" d="M416.3164 460.53125l2.85548-1.6289.36718.64452-2.29297 1.3086.69532 1.67969.11718-.25391.16797-.2461.23438-.23827.3164-.21875.29688-.13672.33594-.09375.36328-.03907.375.03125.38281.1172.1875.09374.1836.1211.17577.14453.17188.17578.16016.20703.15234.24219.1914.39843.1172.41797.04296.41797-.04297.41406-.125.39844-.09765.1875-.1211.1836-.14453.17187-.16797.16406-.1953.15235-.21876.14062-.42578.19922-.39453.10938-.3711.02734-.34765-.05078-.32031-.11719-.29688-.17578-.27344-.22266-.2539-.26562.6836-.38672.1875.16015.1914.12891.19531.09766.20313.0625.20703.02344.20703-.01563.21094-.05469.21093-.09765.26172-.1797.20703-.19921.15625-.22656.09766-.2461.03515-.26953-.02343-.28906-.08985-.30469-.15625-.32422-.14843-.21875-.1797-.19921-.21483-.16407-.23829-.125-.26562-.07422-.28125-.01171-.30078.05859-.3125.13672-.27344.19922-.1914.23437-.14454.29688-.13672.38671-.60156.34766-1.29687-3.20703"/><g clip-path="url(#d)"><path fill="none" stroke="#000" stroke-linecap="round" stroke-linejoin="round" stroke-miterlimit="10" stroke-width=".5" d="M147.1289 478.73047l-6.2578 3.19531"/></g><g clip-path="url(#e)"><path fill="none" stroke="#000" stroke-linecap="round" stroke-linejoin="round" stroke-miterlimit="10" stroke-width=".5" d="M146.21875 479.19531l1.0039.70313"/></g><g clip-path="url(#f)"><path fill="none" stroke="#000" stroke-linecap="round" stroke-linejoin="round" stroke-miterlimit="10" stroke-width=".5" d="M160.34766 478.55469l-6.06641 3.54687"/></g><path fill="none" stroke="#000" stroke-linecap="round" stroke-linejoin="round" stroke-miterlimit="10" stroke-width=".5" d="M159.46484 479.07031l1.04297.64453"/><g clip-path="url(#g)"><path fill="none" stroke="#000" stroke-linecap="round" stroke-linejoin="round" stroke-miterlimit="10" stroke-width=".5" d="M174.05078 479.53516l-6.84375 1.58984"/></g><g clip-path="url(#h)"><path fill="none" stroke="#000" stroke-linecap="round" stroke-linejoin="round" stroke-miterlimit="10" stroke-width=".5" d="M173.05469 479.76563l.8086.92578"/></g><g clip-path="url(#i)"><path fill="none" stroke="#000" stroke-linecap="round" stroke-linejoin="round" stroke-miterlimit="10" stroke-width=".5" d="M187.45313 480.13672l-7.01563.38281"/></g><g clip-path="url(#j)"><path fill="none" stroke="#000" stroke-linecap="round" stroke-linejoin="round" stroke-miterlimit="10" stroke-width=".5" d="M186.4336 480.19531l.6328 1.05078"/></g><g clip-path="url(#k)"><path fill="none" stroke="#000" stroke-linecap="round" stroke-linejoin="round" stroke-miterlimit="10" stroke-width=".5" d="M200.77344 480.44922l-7.02344-.24219"/></g><g clip-path="url(#l)"><path fill="none" stroke="#000" stroke-linecap="round" stroke-linejoin="round" stroke-miterlimit="10" stroke-width=".5" d="M200.77344 480.44922l1.07422 2.20703"/></g><g clip-path="url(#m)"><path fill="none" stroke="#000" stroke-linecap="round" stroke-linejoin="round" stroke-miterlimit="10" stroke-width=".5" d="M214.04297 479.76563l-6.9375 1.125"/></g><g clip-path="url(#n)"><path fill="none" stroke="#000" stroke-linecap="round" stroke-linejoin="round" stroke-miterlimit="10" stroke-width=".5" d="M213.03516 479.92969l.74218.97656"/></g><g clip-path="url(#o)"><path fill="none" stroke="#000" stroke-linecap="round" stroke-linejoin="round" stroke-miterlimit="10" stroke-width=".5" d="M227.16406 479.05469l-6.54687 2.55078"/></g><g clip-path="url(#p)"><path fill="none" stroke="#000" stroke-linecap="round" stroke-linejoin="round" stroke-miterlimit="10" stroke-width=".5" d="M226.21094 479.42578l.92969.79688"/></g><g clip-path="url(#q)"><path fill="none" stroke="#000" stroke-linecap="round" stroke-linejoin="round" stroke-miterlimit="10" stroke-width=".5" d="M240.63281 479.54688l-6.85156 1.5625"/></g><g clip-path="url(#r)"><path fill="none" stroke="#000" stroke-linecap="round" stroke-linejoin="round" stroke-miterlimit="10" stroke-width=".5" d="M239.63281 479.77344l.80469.92969"/></g><g clip-path="url(#s)"><path fill="none" stroke="#000" stroke-linecap="round" stroke-linejoin="round" stroke-miterlimit="10" stroke-width=".5" d="M254.0039 479.88281l-6.96874.89063"/></g><g clip-path="url(#t)"><path fill="none" stroke="#000" stroke-linecap="round" stroke-linejoin="round" stroke-miterlimit="10" stroke-width=".5" d="M252.99219 480.01172l.70703 1.0039"/></g><g clip-path="url(#u)"><path fill="none" stroke="#000" stroke-linecap="round" stroke-linejoin="round" stroke-miterlimit="10" stroke-width=".5" d="M267.30469 480.8789l-6.9375-1.10156"/></g><g clip-path="url(#v)"><path fill="none" stroke="#000" stroke-linecap="round" stroke-linejoin="round" stroke-miterlimit="10" stroke-width=".5" d="M266.29688 480.71875l.39843 1.16016"/></g><g clip-path="url(#w)"><path fill="none" stroke="#000" stroke-linecap="round" stroke-linejoin="round" stroke-miterlimit="10" stroke-width=".5" d="M280.65234 480.60938l-7.0039-.5625"/></g><g clip-path="url(#x)"><path fill="none" stroke="#000" stroke-linecap="round" stroke-linejoin="round" stroke-miterlimit="10" stroke-width=".5" d="M279.63281 480.52734l.48828 1.12891"/></g><g clip-path="url(#y)"><path fill="none" stroke="#000" stroke-linecap="round" stroke-linejoin="round" stroke-miterlimit="10" stroke-width=".5" d="M293.73438 481.6211l-6.53516-2.58204"/></g><g clip-path="url(#z)"><path fill="none" stroke="#000" stroke-linecap="round" stroke-linejoin="round" stroke-miterlimit="10" stroke-width=".5" d="M292.78125 481.24219l.14063 1.21875"/></g><g clip-path="url(#A)"><path fill="none" stroke="#000" stroke-linecap="round" stroke-linejoin="round" stroke-miterlimit="10" stroke-width=".5" d="M307.20703 481.11328l-6.85156-1.57031"/></g><g clip-path="url(#B)"><path fill="none" stroke="#000" stroke-linecap="round" stroke-linejoin="round" stroke-miterlimit="10" stroke-width=".5" d="M306.20703 480.88672l.32031 1.1836"/></g><g clip-path="url(#C)"><path fill="none" stroke="#000" stroke-linecap="round" stroke-linejoin="round" stroke-miterlimit="10" stroke-width=".5" d="M320.10938 478.52344l-6.02735 3.60937"/></g><g clip-path="url(#D)"><path fill="none" stroke="#000" stroke-linecap="round" stroke-linejoin="round" stroke-miterlimit="10" stroke-width=".5" d="M332.23047 477.32422l-3.63672 6.01172"/></g><path fill="none" stroke="#000" stroke-linecap="round" stroke-linejoin="round" stroke-miterlimit="10" stroke-width=".5" d="M331.69922 478.19922l1.22656.0664"/><g clip-path="url(#E)"><path fill="none" stroke="#000" stroke-linecap="round" stroke-linejoin="round" stroke-miterlimit="10" stroke-width=".5" d="M345.26563 477.17188l-3.07813 6.3164"/></g><path fill="none" stroke="#000" stroke-linecap="round" stroke-linejoin="round" stroke-miterlimit="10" stroke-width=".5" d="M344.8164 478.08984l1.22657-.04297"/><g clip-path="url(#F)"><path fill="none" stroke="#000" stroke-linecap="round" stroke-linejoin="round" stroke-miterlimit="10" stroke-width=".5" d="M359.01953 477.42578l-3.95703 5.80469"/></g><g clip-path="url(#G)"><path fill="none" stroke="#000" stroke-linecap="round" stroke-linejoin="round" stroke-miterlimit="10" stroke-width=".5" d="M371.55469 477.02734l-2.39844 6.60547"/></g><g clip-path="url(#H)"><path fill="none" stroke="#000" stroke-linecap="round" stroke-linejoin="round" stroke-miterlimit="10" stroke-width=".5" d="M380.17969 479.9414l6.98437.77344"/></g><g clip-path="url(#I)"><path fill="none" stroke="#000" stroke-linecap="round" stroke-linejoin="round" stroke-miterlimit="10" stroke-width=".5" d="M397.57422 476.86328l-1.17578 6.92969"/></g><path fill="none" stroke="#000" stroke-linecap="round" stroke-linejoin="round" stroke-miterlimit="10" stroke-width=".5" d="M397.40234 477.8711l1.16407-.38282"/><g clip-path="url(#J)"><path fill="none" stroke="#000" stroke-linecap="round" stroke-linejoin="round" stroke-miterlimit="10" stroke-width=".5" d="M410.61719 483.82813l-.63281-7"/></g><g clip-path="url(#K)"><path fill="none" stroke="#000" stroke-linecap="round" stroke-linejoin="round" stroke-miterlimit="10" stroke-width=".5" d="M425.89063 483.00781l-4.54688-5.35937"/></g><g clip-path="url(#L)"><path fill="none" stroke="#000" stroke-linecap="round" stroke-linejoin="round" stroke-miterlimit="10" stroke-width=".5" d="M439.9336 482.15625L433.92968 478.5"/></g><g clip-path="url(#M)"><path fill="none" stroke="#000" stroke-linecap="round" stroke-linejoin="round" stroke-miterlimit="10" stroke-width=".5" d="M453.30469 482.0586l-6.11719-3.45704"/></g><g clip-path="url(#N)"><path fill="none" stroke="#000" stroke-linecap="round" stroke-linejoin="round" stroke-miterlimit="10" stroke-width=".5" d="M466.40234 482.39844l-5.67968-4.13672"/></g><g clip-path="url(#O)"><path fill="none" stroke="#000" stroke-linecap="round" stroke-linejoin="round" stroke-miterlimit="10" stroke-width=".5" d="M147.34766 465.94922l-6.69532 2.1289"/></g><path fill="none" stroke="#000" stroke-linecap="round" stroke-linejoin="round" stroke-miterlimit="10" stroke-width=".5" d="M147.34766 465.94922l1.7539 1.71484m11.6836-1.20312l-6.94141 1.10547m6.9414-1.10547l1.47657 1.96093m11.88281-1.39062l-7.02734-.03516m7.02734.03516l1.14063 2.17188M187.42578 467.5l-6.96094-.97266m6.96094.97266l.83984 2.3086m12.46875-2.27735l-6.94921-1.03516m6.94922 1.03516l.82421 2.3125m12.53125-2.82031l-7.02734-.01953m7.02734.01953l1.14453 2.17187m12.16797-2.16015l-7.02343-.04297m7.02343.04297l1.14063 2.17578m12.13281-2.73828l-6.9414 1.08203m6.9414-1.08203l1.47266 1.96484m11.86328-1.8164l-6.98438.78515m6.98438-.78516l1.38672 2.02735m11.94922-1.54297l-7.02344-.1836m7.02344.1836l1.09375 2.19531m12.15234-1.58594l-6.88672-1.40234m5.88281 1.19922l.35157 1.17578m13.79687-.39453l-6.54297-2.5586m5.58985 2.1875l.14062 1.21875m14.125-.84375l-6.54297-2.5664m5.59375 2.1914l.14063 1.21875m14.35547-2.40625l-7.00391.5586m5.98438-.48047l.66015 1.03516m13.41406-2.19141l-6.48046 2.71484m5.53515-2.3203l.95313.77733m12.91406-1.87109l-5.69531 4.11328m4.86718-3.51562l1.10157.53906m12.78515-1.45312l-5.1836 4.74609m4.4297-4.05469l1.15625.41016M372.8125 464.5l-4.91406 5.02734m17.57422-5.53125l-3.60547 6.03516m15.49219.47656l-.7461-6.98828m.63672 5.97266l-1.01562.6875m14.6328.30078l-1.1289-6.9336m.96485 5.92579l-.98047.74218m16.49218-.83593l-5.1953-4.73047m4.4375 4.04297l-.30079 1.1875m14.73438-.96875l-5.91797-3.79297m5.05468 3.24219l-.09765 1.22265m13.42187.24219l-4.21093-5.6211m3.60156 4.8047l-.52344 1.10937m12.79297.38281l-.90234-6.96875m.77343 5.95313l-1 .71093"/><g clip-path="url(#P)"><path fill="none" stroke="#000" stroke-linecap="round" stroke-linejoin="round" stroke-miterlimit="10" stroke-width=".5" d="M147.51172 453.77734l-7.02344-.16015"/></g><path fill="none" stroke="#000" stroke-linecap="round" stroke-linejoin="round" stroke-miterlimit="10" stroke-width=".5" d="M147.51172 453.77734l1.10156 2.19532m12.20703-2.0586l-7.01172-.42969m7.01172.4297l1.01953 2.23437m12.28516-2.09375l-6.98828-.71485m6.98828.71485l.92578 2.27343m12.39453-2.30078l-7-.65625m7 .65625l.9414 2.26563m12.25392-1.64063l-6.76172-1.90625m6.76172 1.90625l.52343 2.39453m12.86719-2.70703l-6.91016-1.28515m6.91016 1.28515l.73438 2.33985m12.625-2.6875l-7-.58594m7 .58594l.96875 2.2539m12.3164-3.09375l-6.9414 1.08985m6.9414-1.08985l1.47656 1.96094m11.8047-2.15234l-6.8711 1.47656m6.8711-1.47656l1.58202 1.875m11.80469-1.33985l-7.01563.40235m7.01563-.40235l1.27344 2.09766m12.04297-2.0664l-7.01953.34374m7.01953-.34375l1.2578 2.10547m12.0586-2.10547l-7.01953.33985m7.01953-.33985l1.2539 2.10938m12.0586-1.73438l-7.01562-.40625m5.9961.34766l.51171 1.11328m13.82813-1.16797l-7.02735-.17968m6.0039.15234l.54688 1.09766m13.47266-2.6211l-6.39063 2.91797m5.46094-2.49219l.97656.7461m13.26954-1.17578l-6.39063 2.92968m5.46094-2.5039l.97265.74609m12.84375-1.875l-5.53515 4.33203m4.73047-3.69922l1.12109.4961m12.92188-1.21875l-5.38282 4.51562m4.60157-3.85937l1.13671.45703m8.95704-2.11328l2.625 6.51562m-2.2461-5.57031l.79297-.9375m10.08594 4.25l6.73828-2.0039m-5.75781 1.71484l-.85938-.875m14.91406 3.26562l3.29688-6.20312m-2.8164 5.30078h-1.22657m15.30078 1.28906l.8164-6.98047m-.6953 5.96485l-1.14454.44921m14.8047.58985l-.11329-7.02344m.09766 6l-1.07422.59375m13.20703.24219l2.28125-6.64844m-1.94922 5.67969l-1.21094.19531m14.71094.90625l1.25-6.91406m-1.25 6.91406l-2.33594.7461"/><g clip-path="url(#Q)"><path fill="none" stroke="#000" stroke-linecap="round" stroke-linejoin="round" stroke-miterlimit="10" stroke-width=".5" d="M147.51172 440.51172l-7.02344-.25781"/></g><path fill="none" stroke="#000" stroke-linecap="round" stroke-linejoin="round" stroke-miterlimit="10" stroke-width=".5" d="M147.51172 440.51172l1.07031 2.20703m-2.09375-2.2461l.53906 1.10548m13.76172-.6797l-6.94922-1.03124m6.94922 1.03125l.82422 2.3125m-1.83203-2.46094l.41016 1.15625m13.74218-.32813l-6.60937-2.39062m6.60937 2.39063l.34766 2.42968m13.0586-2.71484l-6.78907-1.82031m6.78906 1.8203l.55078 2.39063m12.78907-2.5l-6.83985-1.60156m6.83985 1.60156l.6289 2.375m12.78125-3.15234l-7.02734-.04688m7.02734.04688l1.13672 2.17188m12.10547-1.4961l-6.88281-1.39844m6.88281 1.39844l.69922 2.35547m12.54688-2.0664l-6.7461-1.97657m5.76563 1.6875l.24609 1.20313m14.1914-1.96485l-7.02734.125m7.02735-.125l1.1875 2.14453m12.08984-2.58203l-6.95313 1m6.95313-1l1.44922 1.98047m11.83594-2.16406l-6.89454 1.3711m5.89063-1.17188l.77734.94922m13.60157-.70313l-7.01172.47656m5.99218-.40625l.64454 1.04297m13.42187-2.23437l-6.47656 2.71875m5.53515-2.32422l.94922.77734m12.8711-1.92969l-5.60547 4.23829m4.78906-3.625l1.11328.51953m12.52735-1.66016l-4.6211 5.29297m3.94922-4.52344l1.1914.27735m12.45313-1.3086l-3.9414 5.8164m3.37109-4.97265l1.21875.13281m10.98047-1.5703l-.5664 7.0039m10.22265-4.48047l6.75 1.95703m7.16406 1.17188l5.55469-4.3047m-4.7461 3.6797l-1.12109-.50391m12.89453-1.21484l7.01953.3828M394.5 440.25l-.51563-1.11328m13.70704 3.59765l5.21875-4.70312m-5.21875 4.70313l-2.3047-.83594m15.36329.51562l5.73437-4.0625m-5.73437 4.0625l-2.1914-1.10156m16.59765 2.10156l3.55078-6.0625m-3.55078 6.0625l-2.45313-.10156m17.32813.57813l.42969-7.01563m-.42969 7.01563l-2.23438 1.01562m15.4297-1.02344l.67187-6.9961m-.67188 6.9961l-2.26562.9375"/><g clip-path="url(#R)"><path fill="none" stroke="#000" stroke-linecap="round" stroke-linejoin="round" stroke-miterlimit="10" stroke-width=".5" d="M147.51172 427.07813l-7.02344-.01954"/></g><path fill="none" stroke="#000" stroke-linecap="round" stroke-linejoin="round" stroke-miterlimit="10" stroke-width=".5" d="M147.51172 427.07813l1.14844 2.17187m12.15625-1.8789l-7-.60548m7 .60547l.96093 2.25782m12.33594-2.10938l-6.96875-.89844m6.96875.89844l.86719 2.29297m12.46094-3.08984l-6.9922.6914m6.9922-.6914l1.35937 2.04297m11.96094-1.9961l-7.0039.59766m7.0039-.59766l1.33203 2.0625m11.92969-1.09375l-6.89844-1.33984m5.89453 1.14453l.35938 1.17187m13.3125.47266l-5.60547-4.23828m4.79297 3.6211l-.19532 1.21093m13.9336-.16016l-4.82422-5.10546m4.1211 4.36328l-.39063 1.16406m14.53515-.54297l-5.07422-4.86328m4.33594 4.15625l-.33594 1.17969m15.33985-2.48438l-6.97656-.83984m5.96093.71484l.44141 1.14453m13.90625-1.19922l-7.01172-.48046m5.99219.41015l.5 1.1211m13.84375-1.26954l-7.02734-.04296m6.0039.03906l.57031 1.08594m12.98047-3.32032l-5.45312 4.4336m4.66015-3.78907l1.12891.47657m12.3789-1.69922l-4.2539 5.58984m3.63672-4.77734l1.21094.19922m10.44922-1.72657l.28906 7.01954m13.19531-7.02344l-.04687 7.02734m14.6289-6.78125l-2.58203 6.53516m2.20703-5.58594l1.21875-.13672m7.6875 2.07422l6.98438.76172m-5.96875-.65234l-.45313-1.13672m13.4961 3.59765l5.49609-4.3789m-4.69531 3.74218l-1.125-.48828m14-3.64062l4.77734 5.15234m-4.08203-4.40234l.40234-1.16016m12.15235 5.5039l4.90625-5.03515m-4.90625 5.03516l-2.35547-.6875m15.86328.85937l4.51953-5.3789m-4.51953 5.3789l-2.39844-.50781m3.0586-.27344l-2.40235-.51172m14.5039.70704l5.62891-4.20704m-5.6289 4.20704l-2.21875-1.04297m3.03906.43359l-1.10937-.52344m15.72265 2.47266l1.39063-6.88672m-1.39063 6.88672l-2.35156.69922m2.55469-1.69922l-1.17578.34766m14.80468.71875l.35938-7.01954m-.35938 7.01954l-2.22265 1.03906"/><g clip-path="url(#S)"><path fill="none" stroke="#000" stroke-linecap="round" stroke-linejoin="round" stroke-miterlimit="10" stroke-width=".5" d="M147.48828 413.33984l-6.97656.82813"/></g><path fill="none" stroke="#000" stroke-linecap="round" stroke-linejoin="round" stroke-miterlimit="10" stroke-width=".5" d="M147.48828 413.33984l1.39844 2.01563m11.9414-1.69922l-7.02343.1914m7.02344-.1914l1.21093 2.13672m12.10547-2.0586l-7.02734.03907m7.02734-.03906l1.16406 2.16015m12.0586-2.9414l-6.84375 1.60156m5.84765-1.3711l.8086.92578m13.41797-1.45312l-6.67578 2.19531m5.70312-1.875l.88672.84766m11.65234 3.0625l-3.17969-6.26563m14.2461 6.58203l1.32031-6.89843m-1.1289 5.89453l-1.17188.36328m14.46094.66797l.98828-6.95703m-.84375 5.94531l-1.15625.41797m16.79297.02344l-3.9414-5.81641m3.9414 5.8164l-1.14844 2.17188m14.65234-2.3086l-4.3203-5.53905m3.6914 4.73437l-.5 1.1211M280.5 414.80858l-6.69922-2.11328m5.72656 1.8086l.22266 1.20312m14.05078-3.0664l-6.66797 2.22265m5.69531-1.89844l.89063.84766m12.4336-2.65234l-4.7422 5.1875m4.05079-4.4336l1.1875.30469m12.7539-1.11719l-4.61328 5.30078m3.9414-4.52734l1.19532.27734m7.0664.78907l6.83594 1.62109m9.14454-4.24219l1.5039 6.86719m-1.28515-5.86719l.9375-.79297m13.78125-.17968l-1.73829 6.80859m1.48438-5.8164l1.1914-.28907m10.47266-.65625l2.07031 6.71485m-1.76953-5.73438l.8672-.8711m10.625.83985l5.11327 4.82031m-5.11328-4.82031l.64844-2.36719m.09765 3.0664l.32422-1.18358m11.82032 1.03515l5.96484 3.71875m-5.96484-3.71875l.16796-2.44922m.69922 2.99219l.16797-2.44922m.69922 2.98828l.08594-1.22265m11.5.1328l5.95312 3.73048m-5.95312-3.73047l.17187-2.44531m.69532 2.98828l.17187-2.44531m.6914 2.98828l.17579-2.44532m11.00781 2.26563l6.75781 1.92187m-6.7578-1.92187l-.51954-2.39844m1.5 2.67969l-.25781-1.19922m13.20312 4.03906l5.53516-4.32422m-5.53516 4.32422l-2.24219-.9961m3.04688.3672l-1.1211-.4961m15.44532 2.34766l1.90625-6.76563m-1.90625 6.76563l-2.39844.51953m2.67578-1.5039l-1.19922.2578m15.22266.85548l-.0625-7.02735m.05469 6.00781l-1.07813.58594"/><g clip-path="url(#T)"><path fill="none" stroke="#000" stroke-linecap="round" stroke-linejoin="round" stroke-miterlimit="10" stroke-width=".5" d="M147.42188 399.63672l-6.84375 1.60156"/></g><path fill="none" stroke="#000" stroke-linecap="round" stroke-linejoin="round" stroke-miterlimit="10" stroke-width=".5" d="M147.42188 399.63672l1.61328 1.84765m11.76172-1.53125l-6.96094.96875m6.96094-.96875l1.4375 1.98829m11.74218-2.57422l-6.6914 2.14062m5.71875-1.82812l.8789.85547m12.60547-2.51954l-5.08594 4.84766m4.34766-4.14453l1.16406.39063m8.14453-1.40625l4.40625 5.47265m7.63672-2.21875l6.94922-1.03906m-5.9375.89062l-.73047-.98828m13.96485 3.04297l5.08593-4.85156m-4.34375 4.14844l-1.16797-.38672m13.14063.23437l6.28516-3.14062m-5.3711 2.6836l-1-.71095m17.34375 3.01954l-1.59765-6.84375m1.36328 5.84765l-.92188.8086m14.14063.25l-.9375-6.96485m.80078 5.94922l-.9961.71484m16.80079-1.08984l-5.64453-4.1836m4.82421 3.57423l-.17968 1.21093m14.49609-4.51953l-6.0039 3.64844m5.1289-3.11719l1.05469.625m10.91797-2.75781l-1.57032 6.85156m1.33985-5.85156l1.1875-.32031m9.51953-.10547l4.10547 5.70312m-3.50781-4.875l.54296-1.09765m12.88672-.125l2.6836 6.49218m-2.29297-5.54687l.78125-.94531m11.96094.08203l3.04687 6.33203m-3.04688-6.33203l1.44922-1.97656m11.01954 2.54687l4.73828 5.1914m-4.04688-4.4375l.41016-1.15624m15.6875-.33985l-2.21094 6.67188m1.89063-5.69922l1.21093-.20703m14.49219 1.0664l-6.34766 3.01172m6.34766-3.01172l1.97266 1.46094m-2.89454-1.02344l1.96875 1.46094M385 399.8086l.98438.73047m14.125-1.71094l-6.2461 3.21875m6.2461-3.21875l2.01562 1.39844m-2.92578-.92969l2.01953 1.39844m10.5-3.47265l-2.83594 6.42968m2.42578-5.49218l1.22266-.08985m8.55078-.0664l5.0664 4.87109m-4.32812-4.16406l.33594-1.17969m14.75 6.42188l.05078-7.02735m-.05078 7.02735l-2.17188 1.13671m2.1797-2.16015l-1.08594.57031m15.0039.40234l-1.17187-6.92968m1.17187 6.92968l-1.9414 1.4961m1.77343-2.5039l-.97265.75m15.76953-.25l-3.79688-5.91407m3.79688 5.91406l-1.20313 2.14063"/><g clip-path="url(#U)"><path fill="none" stroke="#000" stroke-linecap="round" stroke-linejoin="round" stroke-miterlimit="10" stroke-width=".5" d="M147.29688 385.90234l-6.59375 2.44141"/></g><path fill="none" stroke="#000" stroke-linecap="round" stroke-linejoin="round" stroke-miterlimit="10" stroke-width=".5" d="M147.29688 385.90234l1.83203 1.63282m11.5664-1.3672l-6.76172 1.91017m6.76172-1.91016l1.69922 1.76953m10.15625-3.75781l-3.84375 5.88672m3.28516-5.02735l1.22265.10938m9.16016-1.16797l3.14063 6.28515m-2.6836-5.37109l.71094-1m10.42187 2.00781l6.58985 2.44141m-6.58985-2.4414l-.32422-2.4336m14.04688 1.65234l5.77344 4.00391m-4.9336-3.42188l.14453-1.21875m18.40625 1.16407l-6.375 2.94922m5.44922-2.51954l.97657.7422m13.08984-1.50391l-6.02734 3.61328m5.14843-3.08985l1.0547.63282m12.48046 3.2578l-4.71094-5.21483m4.71094 5.21484l-.83594 2.3086m14.73438-2.98829l-5.875-3.85547m5.875 3.85547l-.22266 2.4414m12.98828-1.79296l-4.77734-5.15235m4.08203 4.40235l-.40234 1.16015m14.5625-.55859l-5.07813-4.85547m4.33985 4.14844l-.33204 1.1836m14.6875-4.97266l-5.67968 4.13672m4.85156-3.53516l1.10547.53516m12.86719-1.35157l-5.33985 4.57032m5.33985-4.57032l2.28515.89454m-3.0625-.23047l2.28516.89453m12.49219-.3164l-6.71094 2.08202m6.71094-2.08203l1.74218 1.73047m11.73047-.63672l-7.02344-.10547m7.02344.10547l1.1211 2.1836m-2.14063-2.19922l1.11719 2.18359m13.21484-2.05078l-7.01953-.33985m7.01953.33985l1.04688 2.21875m-2.06641-2.26953l1.04688 2.21875m-2.07032-2.26563l.52344 1.10938m14.60156-2.45313l-6.55078 2.54297m6.55078-2.54297l1.85547 1.60156m-2.8086-1.23046l1.85548 1.60156m-2.8086-1.23438l1.85547 1.60547m12.76563-3.34765l-5.35157 4.55078m5.35157-4.55078l2.28125.90234m-3.0586-.24219l2.28125.90625m-3.0625-.24219l1.14063.45313m13.75-1.75781l-5.38672 4.51172m5.38672-4.51172l2.27344.92187m-3.0586-.26562l2.27735.92187m-3.0586-.26562l1.13672.46094m13.84375-1.64844l-5.58594 4.26172m5.58594-4.26172l2.23047 1.02344m-3.04297-.40235l2.23047 1.02344m-3.04297-.40235l1.11719.51172m14.41015 1.33594l-6.7578-1.91797m6.7578 1.91797l.51563 2.40235m-1.5-2.6797l.25781 1.19923m12.09375 1.32812L435.5 383.91406m2.86328 6.41797l-1.50781 1.9336m1.09375-2.8672l-1.51172 1.9336m16.59375-2.0664l-5.57031-4.28516m5.57031 4.28515l-.41016 2.42188m-.40234-3.04297l-.40625 2.41797m14.94531-2.48438l-6.39453-2.91015m6.39453 2.91015l.15235 2.44922m-1.08203-2.87109l.15234 2.44922m-1.08203-2.875l.07422 1.22656"/><g clip-path="url(#V)"><path fill="none" stroke="#000" stroke-linecap="round" stroke-linejoin="round" stroke-miterlimit="10" stroke-width=".5" d="M146.51172 371.35156l-5.02344 4.91406"/></g><path fill="none" stroke="#000" stroke-linecap="round" stroke-linejoin="round" stroke-miterlimit="10" stroke-width=".5" d="M146.51172 371.35156l2.33984.74219m-3.07031-.02734l1.16797.37109m12.21484-1.61719l-3.69531 5.97656m3.69531-5.97656l2.44531.16016m10.82422-.1875l-3.60547 6.03125m3.60547-6.03125l2.44922.1211m12.10156 1.1289l-6.07812 3.53125m6.07813-3.53125l2.08203 1.29297m-2.96875-.78125l2.08593 1.29687m12.25391-1.54297l-6.35547 2.9961m6.35547-2.9961l1.96484 1.46875m-2.89062-1.03125l1.96875 1.46875m-2.89063-1.03125l.98047.73438m14.46094-.7461l-6.91016 1.27344m6.91016-1.27344l1.52344 1.92188m11.73437-2.17188l-6.80078 1.76954m6.80078-1.76954l1.66016 1.8086m-2.64844-1.55078l1.66016 1.8086m12.625-2.14063l-6.75781 1.92187m6.7578-1.92187l1.69923 1.76562m-2.6836-1.48828l1.69922 1.76953m-2.6836-1.48828l.85157.88281m14.54688-.125l-6.9922-.71484m6.9922.71484l.92578 2.27344M253 374.0625l.92578 2.27344m13.42188-2.6289l-7.02344.20312m7.02344-.20313l1.21484 2.13281m-2.23828-2.10156l1.21484 2.13281m13.10547-1.70703l-6.98828-.71094m6.98828.71094l.92578 2.27344m-1.9414-2.375l.92578 2.26953m13.36328-3.17187l-6.90625 1.29687m6.90625-1.29687l1.53515 1.91406m-2.53906-1.72656l.76563.95703m13.01953-2.44922l-5.83985 3.90625m5.83985-3.90625l2.16406 1.16015m-3.01172-.59375l2.16016 1.16016m11.8086-1.99219l-5.44923 4.4375m5.44922-4.4375l2.26172.94922m-3.05469-.30469l2.26172.95313m-3.05469-.3086l1.13282.47657m14.47656-.29297l-6.86719 1.49219m6.86719-1.49219l1.58594 1.8711m-2.58594-1.65235l1.58594 1.8711m12.8086-1.26173l-7.02345-.16406m7.02344.16406l1.10156 2.19141m-2.125-2.21484l.55078 1.09375m13.7422-1.73438l-6.9336 1.16016m6.9336-1.16016L362 375.17578m-2.5-1.77734l1.49219 1.94531m12.59765-2.91016l-6.46875 2.75m6.46875-2.75l1.90625 1.54297m-2.84765-1.14453l1.90625 1.54297m-2.84766-1.14063l.95313.76954m13.72656-2.42579l-5.42969 4.46094m5.42969-4.46094l2.26562.94141m-3.05859-.29297l2.26562.9414m-3.05468-.29296l1.13281.47266m13.71875-1.82422l-5.33984 4.57031m5.33984-4.57031l2.28516.89844m-3.0625-.23438l2.28515.89844m-3.0625-.23438l1.14063.44922m14.16797-1.1289l-6.21875 3.27343m6.21875-3.27344l2.02734 1.37891m-2.9336-.90234l2.03126 1.3789m-2.9336-.90234l1.01563.6914m14.50781.14844l-7.01953-.3125m7.01953.3125l1.05469 2.21485m-2.07422-2.26172l1.05469 2.21875m-2.07813-2.26172l.52734 1.10547m14.72657-.30469l-6.8086-1.73437m6.8086 1.73437l.58203 2.38281m-1.57031-2.63671l.28906 1.1914m13.52734.15625l-5.83203-3.92187m5.83203 3.92187l-.2539 2.4375m-.59766-3.00781l-.125 1.21875m14-.27735l-5.2539-4.66406m5.2539 4.66406l-.57422 2.38672m-.1875-3.0664l-.28906 1.19531"/><g clip-path="url(#W)"><path fill="none" stroke="#000" stroke-linecap="round" stroke-linejoin="round" stroke-miterlimit="10" stroke-width=".5" d="M146.75 358.3086l-5.5 4.37109"/></g><path fill="none" stroke="#000" stroke-linecap="round" stroke-linejoin="round" stroke-miterlimit="10" stroke-width=".5" d="M146.75 358.3086l2.25.97656m-3.05078-.34375l2.25.98046m-3.05078-.34375l1.125.4922m14.38281-.66407l-6.6836 2.17188m6.6836-2.17188l1.76563 1.70703m-2.73829-1.39062l1.76563 1.70703m12.42187-2.29297l-6.48047 2.71094m6.48047-2.71094l1.89844 1.55469m-2.83984-1.16016l1.89844 1.55469m12.1328-2.39844l-6.03124 3.60938m6.03125-3.60938l2.10156 1.26953m-2.98047-.74219l2.10156 1.26563m-2.97656-.74219l1.05078.63281m13.7461-2.07421l-5.48828 4.39062m5.48828-4.39063l2.2539.97266m-3.05078-.33203l2.25.97266m12.46875-.47266l-6.69922 2.11328m6.69922-2.11328l1.75 1.71875m-2.72656-1.41406l1.7539 1.72265m12.61329-1.7578l-6.85157 1.57421m6.85157-1.57422l1.60547 1.85156m-2.60547-1.625l1.60937 1.85547m12.53516-2.61328l-6.51172 2.63672m6.51172-2.63672l1.88281 1.57422m-2.82813-1.1914l1.87891 1.57812m-2.82812-1.19531l.9414.78906m14.41016-1.14063l-6.79297 1.8047m6.79297-1.8047l1.66797 1.80079m-2.65625-1.53907l1.66797 1.80078m-2.65625-1.53515l.83203.89844m14.52344-1.12891l-6.92188 1.21484m6.92188-1.21484l1.5078 1.9336m-2.51562-1.75782l1.50781 1.9336m12.83985-1.95313l-6.97266.89844m6.97266-.89844l1.41797 2.0039m-2.4336-1.87109l1.41797 2m12.72266-2.89844l-6.59375 2.4336m6.59375-2.4336l1.83203 1.63282m-2.78906-1.27735l.91406.8164m12.57031-2.41796l-5.01562 4.92188m5.01562-4.92188l2.33985.74219m-3.07032-.02344l1.17188.36719m13.01172-.9336l-5.29297 4.6211m5.29297-4.6211l2.29297.8711m-3.0625-.19922l2.29296.875m11.98047-1.3125l-5.67187 4.15234m5.67187-4.15234l2.21094 1.0664m-3.03516-.46093l2.20704 1.0664m12.125-1.3789l-6.0586 3.5625m6.0586-3.5625l2.09375 1.28515m-2.97266-.76562l1.04297.64062m13.59765.09766l-6.94921 1.05078m6.94921-1.05078l1.46094 1.96875m-2.47265-1.8164l1.46484 1.96874m12.79297-2.45703l-6.8125 1.71875m6.8125-1.71875l1.64844 1.82031m-2.63672-1.5703l1.64453 1.8203m12.25-3.04296l-5.99219 3.66796m5.99219-3.66796l2.11328 1.24609m-2.98438-.71484l2.11329 1.25m-2.98438-.71485l1.05469.625m13.64453-2.17969l-5.27734 4.64454m5.27734-4.64454l2.29297.86329m-3.0625-.1875l2.29687.86328m-3.0625-.1875l1.14844.4336m13.96484-1.44142l-5.80468 3.95704m5.80468-3.95704l2.17188 1.14063m-3.01563-.5664l2.17188 1.14062m11.98437-1.72266l-5.79687 3.97266m5.79687-3.97266l2.17579 1.13672m-3.01954-.5586l2.17579 1.13673m-3.01954-.5586l1.08594.5664m14.4375-.54296l-6.83984 1.60938m6.83984-1.60938l1.61719 1.84766m-2.61328-1.61329l1.61719 1.84766m12.77734-.9961l-7.0039-.55859m7.0039.5586l.97656 2.25m-1.9961-2.33203l.97657 2.25m13.23438-1.48438l-6.75782-1.92969m6.75782 1.9297l.51171 2.40233m-1.49609-2.68359l.25781 1.20313"/><g clip-path="url(#X)"><path fill="none" stroke="#000" stroke-linecap="round" stroke-linejoin="round" stroke-miterlimit="10" stroke-width=".5" d="M146.9414 345.2539l-5.8828 3.84766"/></g><path fill="none" stroke="#000" stroke-linecap="round" stroke-linejoin="round" stroke-miterlimit="10" stroke-width=".5" d="M146.9414 345.2539l2.14844 1.1836m-3.0039-.6211l2.14844 1.1797m11.89062-1.9297l-5.61719 4.22266m5.61719-4.22265l2.22266 1.04296m-3.03907-.42578l2.21875 1.03907m11.8086-1.78516l-5.41016 4.48438m5.41016-4.48438l2.26953.9336m-3.0586-.28126l1.13672.46485m11.16407-2.27344l-1.8047 6.79297m1.8047-6.79297l2.39062-.55469m9.4375.48828l1.16797 6.9297m-1.16797-6.9297l1.94531-1.49609m-1.77343 2.5039l.97265-.75m14.71875.29298l-3.92969 5.82421m3.9297-5.82421l2.4414.2578m-3.01172.58985l1.21875.1289m13.72656.14844l-6.04687 3.57422m6.04687-3.57421l2.09375 1.27734m11.30469-1.13281l-6.21484 3.28515m6.21484-3.28515l2.03125 1.3789m11.66406-.17187l-6.97265.8711m6.97265-.8711l1.41016 2.0039m-2.42578-1.8789l1.41406 2.00781m12.9336-1.9414l-7.00782.48827m7.00781-.48828l1.30078 2.08204m-2.3203-2.00782l.64843 1.03906m13.57813-1.77343l-6.78907 1.8125m6.78906-1.8125l1.67188 1.79297m-2.66016-1.53125l.83594.89843m12.51953-2.77343l-4.89844 5.03515m4.89844-5.03515l2.35938.68359m-3.07032.04688l1.17579.34375m12.05859-1.65625l-3.3125 6.19921m3.3125-6.19921l2.45312.0078m-2.9375.89454l1.23047.0039m12.83594-.74609l-3.84766 5.8789m3.84766-5.8789l2.44531.22266m-3.0039.63281l1.22265.10938m13.60938-.03516l-5.76563 4.01953m5.76563-4.01953l2.1836 1.1211m-3.02345-.53516l1.09375.55859m13.53125-.1836l-6.70703 2.09766m6.70703-2.09765l1.7461 1.72656m11.71484-.98828l-6.9961.6211m6.9961-.6211l1.33985 2.05469m11.97656-2.07032l-6.9961.65625m6.9961-.65625l1.34765 2.04688m-2.36718-1.95313l1.35156 2.05078m12.64844-3.34375l-6.33203 3.05079m6.33203-3.05079l1.98047 1.45313m-2.90235-1.00781l1.98047 1.45312m-2.89844-1.01172l.98828.72656M399.7422 345l-5.51172 4.35547M399.74219 345l2.25.98438m-3.05078-.35157l2.24609.98828m-3.04688-.35156l1.1211.49219m13.57422-2.01563l-5.07032 4.86329m5.07032-4.86329l2.33203.76563m-3.07031-.0586l2.33203.76563m-3.07032-.0586l1.16797.38282M426.375 345l-5.51563 4.35547M426.375 345l2.2461.98438m-3.05079-.35157l2.2461.98828m-3.04688-.35156l1.1211.49219m14.27734-.95313l-6.47266 2.73829m6.47266-2.73829l1.90625 1.54297m-2.84766-1.14453l1.90625 1.54297m12.52735-1.40625l-6.82813 1.66797m6.82813-1.66797l1.6328 1.83203m-2.625-1.58984l1.63282 1.83203m12.71875-1.85938l-6.91797 1.23829"/><g clip-path="url(#Y)"><path fill="none" stroke="#000" stroke-linecap="round" stroke-linejoin="round" stroke-miterlimit="10" stroke-width=".5" d="M467.01953 346.5586l1.51563 1.93359"/></g><path fill="none" stroke="#000" stroke-linecap="round" stroke-linejoin="round" stroke-miterlimit="10" stroke-width=".5" d="M466.01563 346.73828l1.51171 1.9336"/><g clip-path="url(#Z)"><path fill="none" stroke="#000" stroke-linecap="round" stroke-linejoin="round" stroke-miterlimit="10" stroke-width=".5" d="M146.94922 331.95313l-5.89844 3.8203"/></g><path fill="none" stroke="#000" stroke-linecap="round" stroke-linejoin="round" stroke-miterlimit="10" stroke-width=".5" d="M146.94922 331.95313l2.14453 1.1914m-3.0039-.63672l2.14452 1.1914m11.57422-2.30858l-4.98828 4.9453m4.98828-4.9453l2.34375.72656m-3.0703-.00781l2.34374.72656m10.90625-2.04688l-3.40234 6.14844m3.40234-6.14844l2.45313.03906m-2.94922.85547l1.22656.01954m13.21094-.47266l-4.65625 5.26562m4.65625-5.26562l2.38672.57422m-3.0625.1914l1.1914.28907m13.50781-.1875l-6.07421 3.53125m6.07422-3.53125l2.08593 1.29296m9.70703-2.69921l-3.02734 6.34375m3.02734-6.34375l2.44922-.10547m11.22656.30469l-3.75 5.9453m3.20313-5.07812l1.22266.08985m14.25 2.44921l-6.97266-.86718m6.97266.86719l.875 2.29296m12.45312-2.39843l-6.9961-.65625m6.9961.65625l.94531 2.26171M253 334.09375l.47266 1.13281m13.87109-1.14844l-7.01563-.42968m7.01563.42969l1.01563 2.23437m-2.03907-2.29688l1.01953 2.23438m13.27344-2.98828l-6.92578 1.20312m6.92578-1.20312l1.5039 1.9375m-2.51171-1.76172l1.5039 1.9375m12.75782-2.39844l-6.80078 1.76953m6.80078-1.76953l1.66015 1.8086m-2.65234-1.55079l.83203.90625m13.33203-1.58984l-6.51562 2.625m6.51562-2.625l1.8789 1.57813m-2.82812-1.19532l.94141.78907m12.8164-2.04688l-5.5039 4.375m5.5039-4.375l2.25.98047m-3.05077-.34375l1.125.48828m13.52734-.17187l-6.57813 2.46875m6.57813-2.46875l1.83984 1.625m-2.79687-1.26563l1.83984 1.625m-2.79687-1.26562l.92187.8125m14.51953-.59375l-7 .59375m7-.59375l1.33203 2.0625m-2.35156-1.97657l.66797 1.03125m13.65234-.3789l-6.97265-.88281m6.97265.8828l.8711 2.29298m12.42578-2.1836l-6.9375-1.10156m6.9375 1.10156l.80078 2.32031m11.66016-5.22265l-5.22657 4.69922m5.22657-4.69922l2.30468.84375m-3.0664-.16016l2.30469.84375m11.44921-1.83984l-4.58203 5.32812m4.58203-5.32812l2.39454.53906m-3.0625.23438l1.19921.26953m13.02735-.8125l-5.07031 4.86719m5.0703-4.8672l2.33204.76563m-3.07031-.0586l2.33203.76563m12.34375-.57812l-6.3164 3.07812m6.3164-3.07812l1.98437 1.4414m-2.90234-.99609l.99219.72266m13.51172-.40625l-6.85547 1.55469m6.85547-1.5547l1.60156 1.85548m-2.60156-1.62891l.80468.92969m13.46094-1.34375l-6.75781 1.92969m6.75781-1.9297l1.70313 1.76563m-2.6875-1.48437l1.70312 1.76562m-2.6836-1.48437l.85157.88281m14.14453-2.14844l-6.1875 3.33203"/><g clip-path="url(#aa)"><path fill="none" stroke="#000" stroke-linecap="round" stroke-linejoin="round" stroke-miterlimit="10" stroke-width=".5" d="M466.65625 332.19531l2.03906 1.36328"/></g><g clip-path="url(#ab)"><path fill="none" stroke="#000" stroke-linecap="round" stroke-linejoin="round" stroke-miterlimit="10" stroke-width=".5" d="M465.7539 332.6836l2.04298 1.35937"/></g><g clip-path="url(#ac)"><path fill="none" stroke="#000" stroke-linecap="round" stroke-linejoin="round" stroke-miterlimit="10" stroke-width=".5" d="M147.26172 319.24219l-6.52344 2.61328"/></g><path fill="none" stroke="#000" stroke-linecap="round" stroke-linejoin="round" stroke-miterlimit="10" stroke-width=".5" d="M147.26172 319.24219l1.875 1.58203m-2.82422-1.20313l1.875 1.58204M145.36328 320l1.875 1.58203m13.34766-2.32031l-6.53906 2.57031m6.53906-2.57031l1.86328 1.59375m-2.8164-1.21875l1.86718 1.59375m-2.8164-1.21875l1.86327 1.59375m13.39454-2.23438l-6.6211 2.35547m6.6211-2.35547l1.8125 1.65235m-2.77735-1.3125l1.8125 1.65625m-2.77344-1.3125l.90235.82812m14.44922-1.1289l-6.84375 1.58593m6.84375-1.58593l1.61328 1.85156m-2.60938-1.6211l1.61328 1.85157m-2.60937-1.6211l.8086.92579m14.48046-1.46875l-6.80469 1.75m6.8047-1.75l1.65234 1.8125m-2.64453-1.5586l1.65625 1.8125m-2.64454-1.55469l1.65625 1.8086m13.5547-2.59766l-6.63673 2.3086m6.63672-2.3086l1.80078 1.66797m-2.76562-1.33203l1.79687 1.66797m-2.76562-1.33203l.90234.83203m14.48828-.96094l-6.92187 1.21875m6.92187-1.21875l1.50781 1.9336m-2.51562-1.75391l.7539.96484m13.60157-.17578l-6.98828-.71484m6.98828.71484l.92969 2.26953m-1.94532-2.375l.92578 2.27344m13.35938-1.85938l-6.89844-1.33203m6.89844 1.33203l.72266 2.34375m-1.72657-2.53906l.72266 2.34375m-1.72656-2.53906L252.32422 322m15.02344-1.29688l-7.02344-.30859m7.02344.3086l1.05468 2.21484m-2.07812-2.26172l1.05469 2.21484m-2.07422-2.2578l.52734 1.10546m14.82031-.89844l-7.0039-.54297m7.0039.54297l.98438 2.2461m-2.0039-2.32422l.98437 2.2461m-2.0039-2.32813l.49218 1.125m14.8711-1.33204l-7.02344.1875m7.02343-.1875l1.21094 2.13672m-2.23047-2.10937l1.20703 2.13672m13.07422-2.6914l-6.91406 1.24218m6.91406-1.24219l1.51953 1.92969m-2.52343-1.75l1.51562 1.92969m12.51953-2.9961l-6.34765 3.01563m6.34765-3.01563l1.96875 1.46485m-2.89062-1.02344l1.96875 1.46094m12.41797-1.53516l-6.64454 2.28516m6.64454-2.28516l1.79296 1.67188m-2.76171-1.33985l1.79687 1.67188m12.48438-2.00782l-6.64454 2.28907m6.64454-2.28907l1.79687 1.67579m-2.76172-1.33985l.89844.83594m13.39453-1.13672l-6.66797 2.22266m6.66797-2.22266l1.77734 1.6914m11.60547-1.46093l-6.80468 1.76172m6.80468-1.76172l1.65625 1.8086m11.10938-2.98048l-5.70703 4.10157m5.70703-4.10157l2.19922 1.08985m-3.02735-.49219l1.09766.54297m11.66016-2.28125l-2.9336 6.38672m2.9336-6.38672l2.44921-.14063m9.89454-.14453l-.9922 6.95703m.9922-6.95703l2.30859-.83594m13.03906 1.875l-5.05469 4.87891m4.32032-4.17187l1.16406.3789m13.10937 3.53906l-5.5039-4.37109m18.8789.07813l-5.625 4.21093m5.625-4.21093l2.22266 1.04687m11.05469-1.09375l-5.55078 4.3086"/><g clip-path="url(#ad)"><path fill="none" stroke="#000" stroke-linecap="round" stroke-linejoin="round" stroke-miterlimit="10" stroke-width=".5" d="M466.33594 318.39453l2.23828 1.0039"/></g><g clip-path="url(#ae)"><path fill="none" stroke="#000" stroke-linecap="round" stroke-linejoin="round" stroke-miterlimit="10" stroke-width=".5" d="M465.53125 319.01953l2.23828 1.0039"/></g><path fill="#ff3030" fill-rule="evenodd" d="M313.48047 436.57813h7.6914v-10.14454h-7.6914v10.14454"/><path fill="azure" fill-rule="evenodd" d="M315.3125 428.26563h.83594v5.74218h3.1914v.73828h-4.02734v-6.48046"/><path fill="#ff3030" fill-rule="evenodd" d="M189.20703 432.14063h7.6914v-10.14454h-7.6914v10.14454"/><path fill="azure" fill-rule="evenodd" d="M191.03906 423.82813h.83594v5.73828h3.1914v.74218h-4.02734v-6.48046"/><path fill="#00f" fill-rule="evenodd" d="M215.14453 409.94922h8.61719v-10.14453h-8.61719v10.14453"/><path fill="azure" fill-rule="evenodd" d="M216.97656 401.63672h.83203v2.82422h3.28516v-2.82422h.83594v6.48047h-.83594v-2.91797h-3.28516v2.91797h-.83203v-6.48047"/><path fill="#00f" fill-rule="evenodd" d="M370.48438 401.07422h8.62109v-10.14844h-8.6211v10.14844"/><path fill="azure" fill-rule="evenodd" d="M372.3164 392.76172h.83594v2.82031h3.28516v-2.82031h.83203v6.47656h-.83203v-2.91406h-3.28516v2.91406h-.83593v-6.47656"/><path fill="#ff3030" fill-rule="evenodd" d="M424.4414 401.07422h7.69141v-10.14844h-7.6914v10.14844"/><path fill="azure" fill-rule="evenodd" d="M426.27344 392.76172h.83203V398.5h3.19531v.73828h-4.02734v-6.47656"/><path fill="#ff3030" fill-rule="evenodd" d="M193.64453 356.6875h7.69531v-10.14453h-7.6953v10.14453"/><path fill="azure" fill-rule="evenodd" d="M195.47656 348.375h.83594v5.74219h3.1914v.73828h-4.02734V348.375"/><path fill="#ffffe0" fill-rule="evenodd" d="M426.61328 450.125h22.17969v-10.1914h-22.17969v10.1914"/><path fill-rule="evenodd" d="M430.10938 441.76563h.51171v6.29687h-.78906v-4.49219h-1.38672v-.55469l.5586-.0625.2539-.05468.22656-.08985.20313-.14062.17578-.21094.14063-.29297.10546-.39844m4.81641 0l.22656.01954.21875.05468.21094.08985.19531.1211.1836.15233.17187.17579.30078.41796.2422.4922.18358.54687.10938.57812.03906.59375-.03906.59375-.10938.58203-.18359.5547-.24219.5039-.30078.42578-.17187.17969-.1836.15234-.1953.125-.21095.08984-.21875.0586-.22656.01953-.23047-.01953-.21875-.0586-.20703-.08984-.19922-.125-.1836-.15234-.17187-.1797-.30078-.42577-.24219-.5039-.17968-.5547-.11328-.58203-.03907-.59375h.83594l.02735.5625.08203.5039.125.44532.16406.375.1914.30078.21094.21875.22266.13672.22656.04688.22656-.04688.22266-.13672.21094-.21875.1875-.30078.16406-.375.125-.44531.08203-.5039.03125-.5625-.03125-.5625-.08203-.5-.125-.4336-.16406-.36719-.1875-.29297-.21094-.21484-.22266-.1289-.22656-.04688-.22656.04687-.22266.1289-.21094.21485-.1914.29297-.16406.36719-.125.4336-.08204.5-.02734.5625h-.83594l.03907-.59376.11328-.57812.17969-.54688.24218-.49219.30078-.41796.17188-.17579.1836-.15234.19921-.1211.20703-.08984.21875-.05468.23047-.01954m5.08985 0h.5078v6.29688h-.78515v-4.49219h-1.39062v-.55469l.5625-.0625.25-.05468.23046-.08985.20313-.14062.17578-.21094.14063-.29297.10546-.39844m2.82422 2.17579h.78516l.01953-.31641.0586-.28516.10156-.2539.14062-.21485.17969-.17187.22266-.1289.26562-.08204.3086-.02734.23828.02344.22265.0625.20313.10156.17969.13672.14843.17187.11328.20703.07422.23828.02344.26172-.01953.26953-.0664.22266-.10938.19531-.15625.16797-.20313.16406-.2461.16407-.6328.39062-.53907.3125-.4375.3164-.34375.32423-.26562.33593-.1914.35157-.125.37109-.06641.39063-.02344.42187h4.21484v-.74219h-3.33594l.08594-.28125.11328-.23828.14844-.20312.1875-.1797.23047-.17187.27734-.17578.71875-.41406.41407-.20703.34375-.23047.28125-.25.22265-.26953.16016-.27735.11328-.28515.0625-.28516.01953-.28125-.03906-.38281-.1211-.34766-.1914-.30468-.25-.26563-.30078-.21094-.34766-.16015-.3789-.09766-.40625-.03515-.4336.03515-.39844.09766-.35546.16797-.3047.23437-.25.30078-.18359.375-.11718.44531-.03907.51954"/><path fill="#ffffe0" fill-rule="evenodd" d="M301.80078 357.73047h22.17969v-10.1914h-22.17969v10.1914"/><path fill-rule="evenodd" d="M305.29688 349.3711h.51171v6.29296h-.78906v-4.48828h-1.38672v-.55469l.5586-.0664.2539-.05469.22656-.08594.20313-.14453.17578-.20703.14063-.29688.10546-.39453m4.81641 0l.22656.01954.21875.05468.21094.08985.19531.12109.1836.14844.17187.17578.30078.42187.2422.4922.18358.54687.10938.57812.03906.58985-.03906.59375-.10938.58593-.18359.55469-.24219.5-.30078.42969-.17187.17969-.1836.15234-.1953.125-.21095.08984-.21875.0586-.22656.01953-.23047-.01953-.21875-.0586-.20703-.08984-.19922-.125-.1836-.15235-.17187-.17968-.30078-.42969-.24219-.5-.17968-.55469-.11328-.58594-.03907-.59375h.83594l.02735.56641.08203.5039.125.44141.16406.375.1914.30079.21094.22265.22266.13672.22656.04688.22656-.04688.22266-.13672.21094-.22265.1875-.30079.16406-.375.125-.4414.08203-.5039.03125-.56642-.03125-.55859-.08203-.5-.125-.4375-.16406-.36719-.1875-.28906-.21094-.21484-.22266-.13281-.22656-.04297-.22656.04296-.22266.13282-.21094.21484-.1914.28906-.16406.3672-.125.4375-.08204.5-.02734.55858h-.83594l.03907-.58984.11328-.57812.17969-.54688.24218-.49219.30078-.42187.17188-.17578.1836-.14844.19921-.1211.20703-.08984.21875-.05469.23047-.01953m5.08985 0h.5078v6.29297h-.78515v-4.48828h-1.39062v-.55469l.5625-.0664.25-.05469.23046-.08594.20313-.14453.17578-.20703.14063-.29688.10546-.39453m2.82422 2.17579h.78516l.01953-.31641.0586-.28516.10156-.2539.14062-.21485.17969-.17578.22266-.1289.26562-.07813.3086-.02734.23828.01953.22265.0625.20313.10156.17969.14063.14843.17187.11328.20703.07422.23438.02344.26562-.01953.26953-.0664.22266-.10938.1914-.15625.17188-.20313.16406-.2461.16406-.6328.39063-.53907.3125-.4375.3164-.34375.32423-.26562.33593-.1914.35156-.125.3672-.06641.39452-.02344.41797h4.21484v-.73828h-3.33594l.08594-.28515.11328-.23438.14844-.20313.1875-.17968.23047-.17188.27734-.17578.71875-.41797.41407-.20312.34375-.23047.28125-.2539.22265-.26563.16016-.27735.11328-.28515.0625-.28516.01953-.28125-.03906-.38281-.1211-.34766-.1914-.3086-.25-.26171-.30078-.21484-.34766-.15625-.3789-.09766-.40625-.03516-.4336.03125-.39844.10157-.35546.16406-.3047.23437-.25.3047-.18359.375-.11718.4453-.03907.51954"/><path fill="#ffffe0" fill-rule="evenodd" d="M204.15625 335.44531h22.17969v-10.1914h-22.17969v10.1914"/><path fill-rule="evenodd" d="M207.65234 327.08594h.51172v6.29687h-.78906v-4.49219h-1.38672v-.55468l.5586-.0664.2539-.05079.23047-.08984.20313-.14063.17187-.21094.14063-.29687.10546-.39453m4.81641 0l.23047.01953.21875.05469.20703.08984.19531.1211.1836.14843.17187.17578.30078.42188.2461.49219.17968.54687.10938.57813.03906.59375-.03906.58984-.10938.58594-.17968.55468-.2461.5-.30078.4297-.17187.17968-.1836.15234-.19531.125-.20703.08985-.21875.05859-.23047.01953-.23047-.01953-.21875-.0586-.20703-.08984-.19531-.125-.1875-.15234-.16797-.17969-.30469-.42969-.24219-.5-.17968-.55468-.11328-.58594-.03516-.58985h.83203l.02734.5625.08203.50391.125.44531.16407.3711.1914.30078.21094.22265.22266.13672.22656.04688.22656-.04688.22266-.13671.21094-.22266.1914-.30078.16016-.3711.125-.4453.08203-.50392.03125-.5625-.03125-.5625-.08203-.5-.125-.4375-.16016-.36328-.1914-.29296-.21094-.21485-.22266-.13281-.22656-.04297-.22656.04297-.22266.13281-.21094.21485-.1914.29296-.16406.36329-.125.4375-.08204.5-.02734.5625h-.83203l.03516-.59375.11328-.57813.17968-.54688.2422-.49218.30468-.42188.16797-.17578.1875-.14844.19531-.12109.20703-.08984.21875-.0547.23047-.01952m5.08984 0h.51172v6.29687h-.78906v-4.49219h-1.38672v-.55468l.5586-.0664.2539-.05079.22656-.08984.20313-.14063.17578-.21094.14063-.29687.10546-.39453m2.82422 2.17578h.78516l.01953-.3164.0625-.28516.09766-.25391.14062-.21484.17969-.17188.22266-.13281.26562-.07813.3086-.02734.23827.01953.22266.0625.20703.10156.17578.14063.15235.17187.10937.20704.07422.23437.02344.26563-.01953.26953-.0664.22265-.10938.1914-.15625.17188-.19922.16407-.25.16406-.63281.39062-.53907.3125-.4375.31641-.34375.32422-.26562.33594-.1914.35156-.125.3711-.06642.39062-.02343.42187h4.21484v-.74219H221.125l.08203-.28515.11328-.23438.14844-.20312.1875-.17969.23047-.17187.27734-.17579.71875-.41796.41406-.20313.34766-.23047.27734-.2539.22266-.26563.16406-.27734.10938-.28516.0625-.28515.02344-.28125-.04297-.38282-.1211-.34765-.1875-.3086-.25-.26172-.30468-.21093-.34375-.16016-.38282-.09766-.40625-.03515-.43359.03515-.39844.09766-.35547.16406-.30468.23438-.25.30469-.1836.375-.11719.4453-.03906.51954"/></g></defs><use xlink:href="#af"/></svg>