<svg xmlns="http://www.w3.org/2000/svg" role="img" xmlns:xlink="http://www.w3.org/1999/xlink" viewBox="142.45 309.95 326.84 171.84"><defs><clipPath id="a"><path d="M144 311.67188h1v168.65625h-1zm0 0"/></clipPath><clipPath id="b"><path d="M144 311.67188h324v168.65625H144zm0 0"/></clipPath><clipPath id="c"><path d="M467 311.67188h1v168.65625h-1zm0 0"/></clipPath><clipPath id="d"><path d="M144 479h4v1.32813h-4zm0 0"/></clipPath><clipPath id="e"><path d="M146 479h2v1.32813h-2zm0 0"/></clipPath><clipPath id="f"><path d="M153 479h9v1.32813h-9zm0 0"/></clipPath><clipPath id="g"><path d="M159 480h2v.32813h-2zm0 0"/></clipPath><clipPath id="h"><path d="M166 479h9v1.32813h-9zm0 0"/></clipPath><clipPath id="i"><path d="M172 480h2v.32813h-2zm0 0"/></clipPath><clipPath id="j"><path d="M180 479h8v1.32813h-8zm0 0"/></clipPath><clipPath id="k"><path d="M186 480h1v.32813h-1zm0 0"/></clipPath><clipPath id="l"><path d="M193 478h8v2.32813h-8zm0 0"/></clipPath><clipPath id="m"><path d="M207 478h7v2.32813h-7zm0 0"/></clipPath><clipPath id="n"><path d="M220 478h8v2.32813h-8zm0 0"/></clipPath><clipPath id="o"><path d="M225 480h2v.32813h-2zm0 0"/></clipPath><clipPath id="p"><path d="M233 479h8v1.32813h-8zm0 0"/></clipPath><clipPath id="q"><path d="M247 478h7v2.32813h-7zm0 0"/></clipPath><clipPath id="r"><path d="M252 478h2v2.32813h-2zm0 0"/></clipPath><clipPath id="s"><path d="M260 478h8v2.32813h-8zm0 0"/></clipPath><clipPath id="t"><path d="M265 479h3v1.32813h-3zm0 0"/></clipPath><clipPath id="u"><path d="M273 479h8v1.32813h-8zm0 0"/></clipPath><clipPath id="v"><path d="M286 479h9v1.32813h-9zm0 0"/></clipPath><clipPath id="w"><path d="M292 480h2v.32813h-2zm0 0"/></clipPath><clipPath id="x"><path d="M300 479h8v1.32813h-8zm0 0"/></clipPath><clipPath id="y"><path d="M313 479h8v1.32813h-8zm0 0"/></clipPath><clipPath id="z"><path d="M328 476h5v4.32813h-5zm0 0"/></clipPath><clipPath id="A"><path d="M341 477h6v3.32813h-6zm0 0"/></clipPath><clipPath id="B"><path d="M354 477h6v3.32813h-6zm0 0"/></clipPath><clipPath id="C"><path d="M367 477h7v3.32813h-7zm0 0"/></clipPath><clipPath id="D"><path d="M381 477h6v3.32813h-6zm0 0"/></clipPath><clipPath id="E"><path d="M394 477h6v3.32813h-6zm0 0"/></clipPath><clipPath id="F"><path d="M406 479h9v1.32813h-9zm0 0"/></clipPath><clipPath id="G"><path d="M412 479h2v1.32813h-2zm0 0"/></clipPath><clipPath id="H"><path d="M419 479h9v1.32813h-9zm0 0"/></clipPath><clipPath id="I"><path d="M425 479h2v1.32813h-2zm0 0"/></clipPath><clipPath id="J"><path d="M434 477h6v3.32813h-6zm0 0"/></clipPath><clipPath id="K"><path d="M447 477h6v3.32813h-6zm0 0"/></clipPath><clipPath id="L"><path d="M462 476h4v4.32813h-4zm0 0"/></clipPath><clipPath id="M"><path d="M144 465h4v4h-4zm0 0"/></clipPath><clipPath id="N"><path d="M144 453h4v2h-4zm0 0"/></clipPath><clipPath id="O"><path d="M144 439h4v3h-4zm0 0"/></clipPath><clipPath id="P"><path d="M144 425h4v4h-4zm0 0"/></clipPath><clipPath id="Q"><path d="M144 412h4v3h-4zm0 0"/></clipPath><clipPath id="R"><path d="M144 399h4v3h-4zm0 0"/></clipPath><clipPath id="S"><path d="M144 385h4v4h-4zm0 0"/></clipPath><clipPath id="T"><path d="M144 371h4v6h-4zm0 0"/></clipPath><clipPath id="U"><path d="M144 358h4v5h-4zm0 0"/></clipPath><clipPath id="V"><path d="M466 360h2v4h-2zm0 0"/></clipPath><clipPath id="W"><path d="M144 345h4v4h-4zm0 0"/></clipPath><clipPath id="X"><path d="M466 346h2v3h-2zm0 0"/></clipPath><clipPath id="Y"><path d="M144 333h4v2h-4zm0 0"/></clipPath><clipPath id="Z"><path d="M466 332h2v3h-2zm0 0"/></clipPath><clipPath id="aa"><path d="M465 332h3v3h-3zm0 0"/></clipPath><clipPath id="ab"><path d="M144 318h4v5h-4zm0 0"/></clipPath><clipPath id="ac"><path d="M466 318h2v2h-2zm0 0"/></clipPath><clipPath id="ad"><path d="M465 318h3v3h-3zm0 0"/></clipPath><g id="ae" clip-path="url(#clip1)"><path fill="#fff" fill-opacity="0" fill-rule="evenodd" d="M0 0h1000v1000H0zm0 0"/><path fill="#d3d3d3" fill-opacity="0" fill-rule="evenodd" d="M162.15234 355.86719l-.23437.29297.0586.23437.11718.17188.17578.23437.29297.34766.11328.0586.11719-.17188.0586-.23438.17577-.17578.46485-.17578h.69922l.23437.29297.28906.8164.0586.17579.17578.23046.35156.23438.69922.69922.17188.17578.23437.34765.23438.41016.28906.58203.41015.46485.23047.23437.23438.17578.11719.23047.17578.29297.17187 1.16406v.23438l.0586.28906.05859.11719.11719.11719.34765.41015.11719.17188.17578.17578.17578.23437.11719.17188.17188.35156.05859.23438.23437.40625.23438-.0586-.17578.17578-.0586.92969h-.58203l-.23437-.11328-.34766.11328-.11719.11719-.05859.29297-.0586.17578-.11718.17187-.46484.29297-.0586.23438-.0586.11328v.64453l.0586.17187v.41016l.0586.0586v.40624l.05859.40625.11719.17579.05859.05859.23047.64062-.0586.29297v.69922l-.05859.58203v.23438l-.0586.23047-.05468.35156v1.92187l.05469.1172h.42578l-.36719.11718-.02344.35156.89063 1.16797 1.74219.53906 1.33984.35938v.53906l.08984.8086.53516.71484 1.51953.26953.89063-.08594.08984 1.16406.53516.1797 1.16015-.1797 2.05469-.98437 1.16016-.36328 1.8789-.17578 1.69531-.1797-.17968.71876-1.51563.08594-1.25.08984-.80469.26953-1.07421.8086.26953.71875.53515.89843-.17968.625-.26563.8086.26563 1.07812.625.89844.80468.17969 1.25-.1797-.26562.72267.09766.5039.05468.29297v.17188l.0586.29296v.40625l.17578.1172.35156.11718h.40625l.29297-.17578.11328-.11719.0586-.11719.11718-.23047.0586-.17578.35156-.46484.23047-.17578.17578-.0586.17578.0586.0586.17578.11718.98828.05469.46875.0586.17188.11718.23437.17578.0586.8164.05859h.28907l.11719.23437.05859.40625.0586.35156v1.10547l.11718.29297.11719.34766.28906.69922.17578.35156.58203.7539.35157.17579.17187.0586.46875.23437.64063.46484.34765.23438.29297.17578.29297.05468.23047.0625.8164.34766.29297.17578.11328.17188.35157.35156.11719.17578.52343.64063v.28906l.0586.35156v.34766l.05859.35156.0586.28906.11718.0586.17188.05859h.17578l.58203.23437.17578.1172.17578.28905.17578.23438.11328.23437.29297.23047.11719.11719v.41016l.0586.05468.28906.23438.23437.11719.0586.11718.11718.17188.0586.11719.23047.23437.05859.17578.23437.0586.1172.05859-.1172.11328-.05859.11719v.11719l-.11719.29296-.11719.28907v.58203l.17579.11719.11718.05859.0586.11719.11719.11719.11328.05859.17578.34765.0586.35157.05858.40625v.17578l-.05859.17578-.11719.69922v.17187l.1172.17579.29296.29296h.40625l.17578.1172.11719.17187.11719.29296v.23438h-.52735l-.23047-.23438h-.23437l-.17578.0586-.0586.69922.0586.34765.11719.17579.17578.41015.11718.23047.28907.46875.17578.05469h.52344l.23437.0586.75781.64062.0586.29296v.23438l.05859.0586.23047.34765v.35156l-.11719.17188v.29297l.29297.28906.29297.17578.17187.0586.29297.17577.29297.1172.58203.40624.28906.23438.29297.17578.21875.16015.01563.01172.23047.17579.64062.52343.17578.23438.1172.17578.17577.17578.11328.17188v.64062l.1172.17578.46874.11719.58203.11719.23438.05859.23047.11328.29297.11719.11328.0586.58593.35156.28907.17187.17578.0625.17578.05469.17578.0586.69922.35155.28906.17579.23438.05468.28906.17578.23437.1172.64063.40624.29297.11719.17187.0586.23438.05859.41015.05859.23047.0586.23438.11718.0586.17188-.41017.17578.46875.0586.0586.29296.11328.23438.17578.05468.23438.0586.17578.05859.40625.11719.64062.23437.11719.17188.0586.23437v.17578l-.0586.1172-.0586.40624.23438.23438.11719.05859.34766.11719.64062.23047.17578.11718.28906.1172.17578.17577.23438.46485.58203 1.10546.17578.17579.34766.17578.17578.11719.35156.11718 1.04688.52344.23437.0586.46485.11327.29297.0586.46484.17578.75781.58203.23438.23438.34765.46484.17578.17578.28907.23438.8164.69921.29297.17579.28906.28906.29297.17578.29297.28906.69531.64063.17578.17578.29297.23437.28907.23438.46875.28906.64062.58203.34766.23438.23437.29297.34766.34765.35156.46485.9336.99218.34765.40625.11719.17579.23437.05859.11328.11719.64454.17578.23047.11328.23437.0586.29297.17577.23047.1172.9336.69921.40624.40625.23438.17578.40625.17578.23437.11719.8164.34766.34766.23437.23438.11719.29297.28906.23047.11719.7578.35156.35157.17188.23047.05859.29297.11719.23437.0586.8711.17577h.8164l.46875.23047.17188.0586.875.69921.46484.1172.29297.05858.17578.0586.23047.0586.46875.05859.34766.05859.35156.0586.40625.05859h.29297l.17187.0586v.23046l.17578.17578h.29297l.34766.0586.35156.05859.69922.11719h.64063l.46484-.23438.29297-.17578.17187-.11719.41016-.17187.28906-.17578.9336-.46485.46875-.29297.52343-.29296.46485-.17188.46484-.17578 1.05078-.46485.28906-.11718.41016-.11719.28906-.11719.52735-.17578 1.51562-.69922.58203-.34765.28907-.0586.29297-.0586.34765-.11718.875-.23047.35156-.11719h.11329l.23437-.05859.875-.23437.23438-.0586h.8125l.35156-.0586.8164-.11718.17188-.0586.35156-.05468.29297-.0586.23047-.05859.8164-.17578.17579-.0586h.34765l.23438-.05859.46484-.11718.75781-.17188.23438-.0586h.34765l.41016-.11718.28906-.0586 1.28516-.05859h.28906l.41016-.0586.23047-.05858h.17578l.875-.1172h.40625l.41015-.11718h.34766l.35156-.11328.8711-.0586h1.75l1.04687.28907.41016.11719.28906.11718.35156.11719.28907.11719 1.05078.17187.28906.0586h.29297l.29297.05859.17187.0586.41016.05859.17187.0586.1172.05858h.11718l.11719.0586.35156.0586h.11328l.41016.0664 1.92187.39453 1.92578.39453 1.51953.44922 1.69532.71875 2.14453.80469 1.60547-.71875 1.42968-.80469 1.16016-1.07813 1.25-.44921 3.03516-.71875 1.875-.35938 2.14453-1.34765 2.23437-1.25391 2.5-1.25781 1.69531-.44922 1.78516-.17969 1.16016-.26953.625.53906 1.33984-.26953.71485-.98828.98437-1.34375.44531-.17969.80469-.35937 1.875-.53907 1.78516-.44921 1.25-.26954 1.16015-.08984 1.69922-.08984 1.96094-.26954 1.25-.08984h.53906l.625-.08984h.89063l2.14453-.17969 2.41015-.17969 2.58985-.08984 1.69531.17969 1.60938.08984 1.42968.35938 1.16016.71875 1.875.98828 1.16015 1.52734.26563.71484.6289.08985.35548.89844.53515.53906.53516 1.52734 1.07422.35938h.53515l-.80469.53515.08985 1.70703.71484 2.69532.89063.80468.89453.98829.71484 1.2578 1.78516.53907 1.51953-.17969.35547 1.34375 1.60937-.80469.98047-.53906.26953.26953.31641-.21484.21875-.14453.80078.44922.44922-.35938h.35547l.53515-.26953.53907-.71875.53515-.26953.625-.98828 1.16016.44922.83984.3711 1.39454.61718 1.6953-.17969h1.60548l1.78515.08985.17969-1.70704.53516-1.34375.80468.26954.4922.84765.40233.40625-.08984.53906v.35938l.71485.44922.71093-.26953h1.42969l.35938.98828.4453 1.25781.71485 1.34375 1.25.6289 1.69531.62891.71485-.17969.17969-.53906.98046-.08984.44922.35937.08594 1.25782-.26563.6289-.53515.17969v.53906l.71484.98438.26563.53906.98437.98828.80078 1.07813-.26562.35937-.08985.89844-.625 2.33203-.35546 2.0664-.08985 1.79298-.17969.71875-.08984.53906v1.4375l-.98047 1.88281-.35937 1.70703-.53516.89844-.80469 1.16797-.26562.53906 2.05469 1.2539.08593.35938-.35546.53906-.08985-.17968v.80859l.08985 1.4375-.44532.71484-1.07422.09375-.26562.71485.53515.89844.8047.71875 1.16015.80859 1.33984.26953.44531.35938-.35546.44921-1.78907-.08984-1.25-.44922-.71484-.71875-.625-.08984-.17578 3.58984-.1875 1.3086h89.35937V311.70313h-55.26953v49.08203l.76172.125 3.28906.54296 2.02344 2.83594v2.7539l2.35156.33204 2.34766.33203h4.05078l-1.3789 4.16016-2.02344.70703-2.02344.70312-.54297.34375-2.59375 1.6172-.1875.11718-2.02344-2.07813-.73046-2.74218-2.67188-2.07813-1.375-3.5-.0664-.08203-1.95704-2.67188 2.75-1.41796v-49.08204H294.42187v91.41407l.1172.03125.1328.01172.07422.07421.10547.04688.08985.0586.08593.05859.08985.0586.29687.29687.0586.08984.03125.11719.02734.11719.01563.13671-.03125.1172-.0586.08983-.0586.08594-.04296.10547-.04688.10156-.02734.1211v.14453l.17578.26953.14844.14844.07422.08594.07422.07421.04296.10547.0625.08985.0586.08593.04297.10547.0586.08985.04687.10156.04296.10547.0586.08594.11719.17968.07421.07422.0625.08594.0586.08984.04297.10547.0586.08985.05858.08593.0625.08985.0586.08984.04297.10156.11719.17969.07421.07422.0586.08594.07422.07421.08984.0586.10547.04687h.14844l.1328-.01562.13282.01562.10156-.04687.07422-.07422.04688-.10156-.01563-.13281v-.14844l-.04687-.10547-.02735-.11719-.04687-.10156-.02735-.1211-.04296-.10156-.0625-.08984-.04297-.10156-.04297-.10547-.03125-.11719-.01563-.13281-.01171-.13672.08593-.0586.0586-.08593.12109-.03125.04297.10547.01562.1328v.1172l.0586.10156.0586.08984.08983.0586.14844.14843.0586.08985.04296.10547-.01171.10156.08593.0586.10547.04687.08594.0586.08984.05858.07422.07422-.11719.02735-.10546.04687-.08594.0586-.07422.07421-.0586.08985-.0625.08594-.02734.12109-.04687.10156-.04297.10547-.03125.11719-.01172.13281-.01563.13281v.14844l.02735.11719.04687.10547.04297.10156.0586.08984.07421.07422.08985.0586.07422.07421.08984.0586.0586.08984.04296.10547.04688.10156.11719.03125.1328.01563h.14845l.11718-.03125.10547.04297.04297.10547.04688.10156.02734.1211L299.5 410l.02734.11719.03125.1211.02735.11718.10547.04297.10156.04687.13281-.01562.14844.14844.0625.08593.07422.07422.07031.07422.08984.0625.10547.04297.10156.04297.1172.03125.13671.01562.11719-.03125.07422-.07422.02734-.11718-.01172-.13282-.03125-.12109-.02734-.11719.04297-.10547h.11719l.08984.0625.11719.02735h.14843l.13282.01562h.14843l.13282.01563.1328-.01563h.14845l.1328-.01562.13282-.01172.13672.01172.11719-.02735.13281-.01562.1914-.0586-.05859.17579-.01562.1328-.02735.1211-.01562.13281-.0586.08594-.1328.01563-.10548.04687-.10546.04297-.1172.03125-.11718.02735-.26563.03125h-.14843l-.13281.01562-.07422.07422.05859.08594.14844.14843.11719.1797.07421.0703.08985.0625.08984.0586.08594.0586.08984.05858.10156.04297.10547.0625.10547.04297.08594.0586.10547.04687.10156.04297.17969.11719.0586.08984-.04298.10156-.04687.10547.01562.13281.22266.22266.0586.08985.04296.10156.03125.1211.04297.10155.01563.13282.03125.11718.01171.13672.03125.11719.14844.14844.10156.04297.10547.04296.1172.03125.1328.01563.13672.01563h.11719l.11719-.03125.08984-.0586.04297-.10547.04688-.10156.04296-.10547.03125-.11719.01172-.1328v-.14845l-.01172-.1328-.01562-.13282-.03125-.11719-.04297-.10547-.04688-.10547-.04296-.10156-.04297-.10547-.01563-.13281.01563-.13281.02734-.11719.03125-.11719.02735-.1211.04687-.10155.08984-.0586.08594-.0625.07422-.07422.08984-.05859.22266-.22266.0586-.08593.07421-.07422.11719-.17969.0586-.08594v-.14844l-.07423-.07421-.10156-.04688-.10547-.04297-.10156-.04297-.0586-.08984-.04687-.10547-.02734-.11719.08984-.05859.11719-.03125.10156-.04297.17969-.11719.14844-.14843.01172-.13282-.01172-.10546-.08985-.0586-.1328.01563h-.14845l-.1328.01562-.13282-.01562-.1211-.03125-.08593-.0586-.07422-.07422-.0586-.08984-.0625-.08594-.11718-.17969-.0586-.08593.03125-.1211.08594-.05859.1211-.03125.05859-.08594v-.1211l-.03125-.11718-.0586-.08984-.05859-.08594-.04687-.10547-.02735-.11719-.01562-.1328.0586-.08985.07421-.07422.08984-.0586.1172-.17968.07421-.07422.0586-.08594.14843-.14844.1211-.03125.1328-.01562.13282.01562.07422.07422.04297.10547.01562.13281-.03125.1172-.11719.03124-.1328.01172-.14844.14844-.04297.10547-.04688.10156-.02734.1211-.03125.11718v.14844l.03125.11719.04297.10546.05859.08985.07422.07031.07422.07422.11719.03125.12109.02734.11719-.02734.1328-.01563h.1172l.08984.0586.07422.07422.04687.10546.0586.08594.10156.04688.13281.01562.10547.04297.08594.0586-.01172.10546-.07422.07422-.17969.11719-.05859.08984-.08984.0586-.07032.07422-.07421.07421-.0625.08985-.02735.11719-.01562.1328.01562.13282-.01562.13281v.14844l.01562.13281.02735.1172.03125.12108.07421.07422.08985.0586.08594.0586.08984.05858.11719.03125v.08594l-.10157.04688-.08984.0586-.26563.03124-.11718.02735h-.14844l-.10547.04296-.10156.04688-.0586.08984-.0625.23438-.01171.13281-.03125.1211-.01563.1328v.29298l-.01172.1328.01172.13673.01563.1328.1328.01563.13282.01172.1211.03125.08593.0586.07422.07421.04688.10547.04296.10157.01563.1328v.44532l-.01563.13281v.44532l.03125.26562.02735.11719.01562.13281.03125.11719.08594.21094.03125.26562v.14844l-.03125.11719-.02734.11718-.03125.1211-.02735.11719-.03125.11718-.03125.1211-.01171.1328-.01563.13282.08984.0586.1172-.03125.10155.01562.04688.10547-.03125.26562v.44141l-.04297.10547-.04688.10547-.04296.10156-.04297.10547-.0586.08594-.03125.12109-.04296.11719-.03125.11719-.01563.1328.01563.13282.05859.08984.10547.04688.08594.0586.05859.08593-.01172.13672-.03125.11719-.04297.10156v.44531l-.01562.13281v.14844l-.03125.11719-.04297.10547-.02735.11719-.04687.10546-.04297.10157-.03125.12109-.02734.11719-.03125.13281-.03125.11719-.02735.11719-.04297.10546-.03125.1172-.03125.12108-.01171.13282-.01563.13281v.29688l.02734.11718v.14844l.04688.39844.02734.11719.0586.08984.12109.03125h.14844l.13281-.01563.0586.08985v.11719l-.0586.08984-.08984.0586-.10157.04296-.10546.04688-.08985.05859-.08594.0586-.13671.01562-.1172-.03125-.1328-.01563-.10157.04688-.0625.08594-.01172.13671-.01562.13282-.03125.11719-.02735.11718-.01562.13281-.03125.1211v.29687l.01563.13282.03125.11718v.14844l.01171.13281v.14844l-.02734.11719-.04688.10156-.02734.1211-.03125.11718-.0586.08985-.07421.07421-.10156.04297-.10547.04688-.11719.02734-.1211.03125-.10156-.04687.0586-.08594.10547-.04688.02734-.11718.03125-.11719.02734-.1211.03125-.11718v-.14844l.01563-.13281-.03125-.11719-.04297-.10547-.10547.01563-.07422.07422-.10156.04296-.08984.0625-.07422.07422-.04297.10157-.01563.1328-.03125.1172L304.25 426l-.03125.11719-.02734.11719-.03125.12109-.02735.11719-.03125.11718-.04297.10547-.08984.0586h-.08984l-.1172-.03125-.03124-.08594.01562-.13672-.03125-.11719v-.14844l-.01171-.1328v-.14844l-.0625-.23438-.02735-.1211-.04297-.10156-.04687-.10546-.0586-.08594-.05859-.08985-.04297-.10546-.0625-.08594-.14844-.14844-.0703-.07422-.10548-.04687-.10547-.04297-.10156-.04297-.29687-.29688-.08985-.07421-.08594-.0586-.10546-.04297-.08985-.0625-.08594-.0586-.10546-.04296-.08985-.0586-.08594-.0625-.07421-.0703-.10547-.04688-.08594-.0586-.10547-.04296-.08984-.0625-.10156-.04297-.10547-.04297-.08594-.0586-.10547-.04687-.10547-.04297-.10156-.04687-.08985-.0586-.10156-.04297-.10547-.04296-.08984-.0625-.11719-.02735-.13281-.01562-.13281.01562H299.75l-.13281.01563-.11719-.03125-.08984-.0586-.07422-.07422-.08985-.05859-.10156-.04688h-.14844l-.12109-.02734-.10156-.04297-.07422-.07422-.11719-.17968-.08984-.0586-.10156-.04297-.08985-.0625-.10547-.04296-.08984-.0586-.08594-.0586-.10547-.04687-.0586-.08594-.05858-.08984-.04297-.10547-.04688-.10156-.07422-.07422-.08594-.0586-.07421-.07421-.08985-.0586-.22265-.22265-.04297-.10547-.03125-.26563.10547-.04296h.14453l.10547.04296.07421.07422.08985.0586.08594.0586.10546.04687.08985.05859.14844.14844.0703.07422.14845.14843.0625.08594.07421.07422.08594.0586.07422.07421.08985.0625.08984.0586.08594.05859.26953.17578.10156.04688.10547.04296.10156.04297.04688-.07421.05859-.08594.07422-.07422.07031-.07422.10547.04297.07422.07422.0586.08984.04296.10156.04688.10547.04296.10547.1211.02735.11719-.02735.07421-.08984.04297-.10547.0586-.08985.07422-.07421.10546-.04297.1172-.02735.1328.01172.08985.0586.14844.14843.05859.08985.04297.10547.04687.10156.04297.10547.04297.10156.10547.04688.10547.04296.13281.01563.08594-.0586.0586-.08984.07421-.07422.10547-.04297.11719.02735.10547.04687.10156.04297.10547.04297.10156.04688.17969.11718v.11719l-.01563.13281.01563.13281.01562.13672.0586.08594.10156.04688.1211.02734.11718.03125h.14844l.11719-.03125.05859-.08984.17969-.1172.05859-.08983.07422-.07422.0586-.08594.11718-.17969.17969-.11719.11719.03125.08984.0586.04297.07422-.01563.1328v.1172l.08985.05859h.14843l.13282-.01563.1328-.01171.26563-.03125.10547-.04297.11719-.03125.1211-.02735.07421-.07421.07031-.07422.0625-.08985-.01562-.10547-.04688-.10156-.10156-.04297-.10547-.01562-.11718.02734-.26563.03125h-.14844l-.07421-.07422-.08985-.0586-.11719-.03124-.11718-.02735-.13282-.01562h-.14843l-.13282.01563h-.29687l-.10547-.04688-.14844-.14844-.04297-.10156-.05859-.08984.22266-.22266.08593-.0586.10547-.04296.11719-.03125.13281-.01563.13281.01563.13672.01562.10157.04297.1328-.01172.08985-.0625.10156-.04297.0625-.08984-.04687-.10156-.08984-.0586-.1172-.03125-.10155-.04296-.0586-.08985-.0625-.08984v-.11719l.01563-.13281.10547-.04688.07421-.07031v-.1211l-.08984-.05859-.03125-.11719.08985-.05859.07421-.07422.04297-.10547.0586-.08984.04687-.10156.01563-.13281v-.14844l-.04688-.10547-.04297-.10156-.08984-.0586-.13281-.01562-.10157-.04297-.13671-.01563-.1172-.03125h-.4453l-.13282-.01562-.13281-.01172-.13281-.01563-.11719-.03125h-.14844l-.13281-.01562-.13281-.01172-.26563-.03125-.1211-.04297-.08593-.0586-.07422-.07421v-.14844l.01172-.13281.10547-.04688.10156-.04296.13281-.01563h.15235l.13281-.01562h.29297l.1211.03125.10156.04296.08984.0586.23438.0625.12109-.04688.08984-.05859.10156-.04297.13282-.01562.10547.04296.10156.04688.13281.01172.1211-.02735h.14453l.12109-.03125.11719-.02734.10547-.04687.07421-.07422.08594-.0586.14844-.14843.0586-.08594.04687-.10547.02734-.11719.01563-.10547-.10156-.04296-.08985-.0586-.11719-.03125-.10546-.04297-.08985-.0625-.07422-.08594-.07422-.07421-.10156-.04297-.10547-.04688-.10156-.04297-.0586-.08984-.04687-.10156-.08594-.21094-.0625-.08594-.05859-.08984-.07422-.07422-.08594-.0586h-.26953l-.11719.03126-.08984.05859-.10156.04297-.13281.01562-.10547-.01562-.02735-.11719-.0625-.08984-.11718-.03125-.10157-.04297-.14843-.14844-.03125-.11719-.01563-.10546.07422-.07422.17969-.1172.11719-.02733.11718-.03125.13672.01562.10156.04297.10547.04297.10156.04687.10547.04297.1172.03125.1328.01563.1172.02734.1328.01563.10547-.01563.08985-.0586-.07422-.07421-.10547-.04297-.07422-.07422-.07422-.08984-.14844-.14844-.08593-.0586-.08985-.05859-.07422-.07422-.08984-.0586-.10156-.04687-.1211-.02734-.10156-.04688-.10547-.04296-.11719-.03125-.10156-.04297-.1211-.03125h-.14843l-.11719.03125-.10546.04297-.08594.0625-.17969.11718-.08594.0586-.08984.0586-.10547.04687-.08594.05859-.10547.04297-.10156.04297-.10547.04687-.07422.07422-.05859.08985-.0586.08593-.04687.10547-.0586.08594-.07421.07422-.13281-.01172-.1172-.03125h-.11718l-.07422.07422-.08984.0586-.07422.07421-.08984.0586-.08594.05859-.10547.04687-.10156.04297-.13672.01563-.10156-.04297-.14844-.14844-.10547-.04688h-.08594l-.10547.04688-.10156.04297-.1211.03125-.11718-.03125-.07422-.07422v-.11719l.03125-.1211.07422-.0703.0586-.08985.07421-.07422.11719-.03125.10547-.04296h.29297l.13281-.01563.13672-.01563.10156-.04296.08985-.0586.10156-.04687.08984-.0586.13281-.01171.08985.05859.13281.01172.08984-.0586.08594-.05859.10547-.04297.08984-.0586.08594-.0625.08985-.05859.14843-.14843.0586-.08594.05859-.08985.10547-.04296.13281-.01563.11719.02735.1211.03125.05859-.0586.05859-.08984.03125-.26563.02734-.11719.10547.01172.13281.01563.10157-.04297.08984-.0586.0586-.08984.07421-.07422.0586-.08984.04687-.10156.01172-.13281-.01172-.13282-.04687-.10547-.14844-.14843-.0586-.08985-.05859-.08594-.04297-.10546v-.44532l.01563-.1328v-.14845l.01172-.1328-.0586-.0586-.08984.0586-.10156-.04298-.17969-.11719-.08594-.05859-.0625-.08984-.0586-.08985-.07421-.07421-.08594-.0586-.1211.03125-.10155.01172-.10547.04688-.08594.05859-.10547.04297-.14844.14844-.08984.05859-.08594.0586-.08984.0625-.10547.04296-.13281.01563v-.1211l.10547-.04297.11718-.03125.07422-.0703.04297-.10548v-.14844l-.02734-.11718-.14844-.14844-.13281-.01563h-.14844l-.11719.03125-.10547.04297-.10156.04297-.08984.0625-.11719.02735-.07422-.07422.01172-.13281-.04297-.10157-.04297-.10547-.08984-.05859-.11719.02734-.1211.03125-.11718.03125-.10156.04297-.1211.03125-.10156.04297-.10547.04297-.08984.0586-.10156.01562v-.11719l.01562-.13281-.0586-.08985-.07421.04297-.14844.14844-.0586.08985-.07421.07421-.04688.10547-.04296.10156-.07422.07422-.0586.08985-.07422.07422-.05859.08593-.07422.07422-.08984.0625-.07422.07031-.07422.07422-.10156.01563-.13281.01562-.10547-.04296v-.1211l.14843-.14844.04297-.10156.0586-.08984.04687-.10156.04297-.10547.0586-.08985.03124-.11719.04297-.10156.03125-.1211.02735-.11718.04687-.10547.04297-.10156.04297-.10547.07422-.07031.08984-.0625.08985-.0586.10156-.04296h.29687l.26563-.03125.10547-.04297-.07422-.07422-.11719-.03125-.10547-.04297-.08984-.0586-.10156-.04687-.08985-.0586-.10156-.04296-.10547-.04297-.08984-.0625-.08594-.0586-.10547-.04296-.10156-.04297-.1211-.03125-.11718-.03125-.10157-.04297L297.5 410.25l-.10156-.04297-.08985-.0586-.04296-.10546-.01563-.13281.10156-.04297.13281-.01563.13672.01563.13282-.01563.10156-.04297.0586-.08984.01562-.10547-.08985-.0586-.07421-.07421-.10157-.04297-.08984-.0586-.14844-.14843-.04297-.10547-.01562-.13281v-.29297l-.0586-.08985-.08984-.05859-.07422-.07422-.04297-.10547-.03125-.11718-.0586-.08985-.07421-.07422-.11719-.02734-.07422-.07422-.08984-.0586-.08984-.0625-.08594-.05859-.07422-.07421-.0586-.08594-.04687-.10547-.08594-.0586-.14843-.14843-.19532-.0586-.1328.01563-.10157.04297-.07422.07422-.04688.10156-.04296.10547-.0586.08984-.0586.08594-.29687.29687-.08984.0586h-.08594l-.0625-.08594-.04297-.10547.03125-.11719.0586-.08984.02734-.11719-.01172-.13281-.08984-.0625-.10547.04688-.11719.02734-.11719.03125-.26953.17578-.10156.04688-.11719.02734-.10546.04687-.08985.0586-.10156.04297-.0586-.08594-.04687-.10547.01563-.13281.04687-.10547.07031-.07422.07422-.07031.0586-.08985v-.14843l-.04297-.10547h-.23829l-.10156.04687-.03125.11719-.02734.11719-.03125.1211-.07422.04296-.13281.01563-.07422-.04688-.04297-.10156-.04297-.10547-.04687-.10156-.04297-.10547-.1211.03125-.10156.04297-.13281.01562-.11719.03125-.10547.04297-.08984.0586-.10156.04687-.1211.02734-.13281.01563-.10156-.04297-.0586-.08985-.04687-.10546-.04297-.10157-.04297-.10546v-.1172l.0586-.08984.08593-.05859.17969-.11719.10156-.04687.10547-.04297.10547-.0586.10156-.04296.08985-.0625.10156-.04297.10547-.0586.10156-.04687.08984-.0586.10547-.04296.10156-.04297.08985-.0625.10156-.04297.13672-.01563.11719.03125.10156.04297.1211.03125.10156.04297.10546.04688.10157.04296.10547.04297.10156.04688.10547.04297.10156.04297.10547.04687.08594.0586.10546.04296.1172.03125.10546.04297.10156.04688.08985.0586.10547.04296.10156.04297.10547.04687.11719.02735.10156.04687.1211.02735h.14843l.08594-.0586.01562-.10156.0586-.08984-.02735-.1172-.07422-.07421-.11719-.17969-.07421-.07422-.08985-.07421-.17969-.1172-.08593-.05859-.10547-.04296-.10156-.04688-.26954-.17578-.05859-.08985-.07422-.07421-.0586-.08985-.04296-.10156-.03125-.11719-.01563-.13672v-.5625l-.01171-.1328-.01563-.13282-.03125-.11719-.01562-.13281-.01172-.13281-.03125-.1211-.22266-.22265-.0586-.08594-.01562-.10547.03125-.11719.13281-.01562v-91.41406H172.9922v1.45312l-.0586.23438-.35156 1.05078-.17187.52343-.1172.34766-.17577.41016-.11719.17187-.23438.29297-.23046.0586h-.35157l-.11718.05859-.23047.40625v.29297l.11719.17578.23046.23047.1172.23437.64062.75781.29297.46485.17578.23437.23047.35156.23437.34766.64063.8164.17578.46485.17187.41016.11719.69531.17578.46875.11719 1.39844.0586.46484v.875l.11718 1.04688v4.78125l-.0586.46484-.35156 1.28125-.17578.52344-.11328.41015-.35156.9297L172.93359 336l-.23437.58203-.11719.17578-.17187.34766-.17578.40625-.35157.8164-.0586.29297-.11327.29297-.11719.28906-.0586.17579-.11718.875-.0586.40625-.05859.11718-.0586.17579-.05859.17187-.23047.52734-.11718.17188v.23437l-.11719.23438-.0586.17187-.17577.58594v.28906l-.0586.17579v.29296l-.0586.11329-.05859.52734v.17187l-.05468.23438v2.6211l-.17578.8164-.1172.17578-.17577.23438-.1172.17187-.11327.23438-.58594.93359-.23047.28906-.29297.46485-.17578.23437-.28906.35156-.35156.69922-.11328.23047-.17579.41016-.17578.23046-.40625.52735-.8164.69922-.29297.17187-.28906.23438-.17579.11719-.17578.17578-.52344.40625-.52734.17578-.17187.17578-.23438.05469-.64062.17578h-.75782m12.21094 31.02344l-1.07422.44921.35938.89454 1.25-.71485.44531-.53906-.98047-.08985"/><path fill="#d3d3d3" fill-opacity="0" fill-rule="evenodd" d="M201.50781 416.59766h-.89453l.44922.6289.98047.35938.80469-.08985.4453-.98828-.17577.08985-.71485-.35547-.89453.35547m154.6211 59.0703l-.0586-.52343v-.29297l.11328-.29297.0586-.23046.46875-.46875h.11328l.11719-.11329.11718-.05859h.17579l.23437-.0586h.34766l.23437.0586.11719.0586.23047.17187.0586.17578.11718.58203v.29297l-.11719.17578-.17187.28906-.17579.17579-.52734.52343-.23047.23438-.11719.0586h-.17578l-.11718-.0586-.40625-.29297-.17579-.11719-.11718-.0586-.0586-.11327-.05468-.1172m6.64062-10.95702l-.0586-.17188v-1.10937l.0586-.17188.17578-.0586.17188-.05858h.17578l.23437-.0586.1172.0586.05858.69921-.05859.17188-.11719.17578-.11718.0586-.23438.52343-.11328.0586h-.23438l-.05859-.1172m9.61328-14.39062l-.11719-.17578v-.69922l.29297-.875.1172-.17187.17577-.35156.11328-.23047.1172-.29297.35155-.75781.1172-.23047.17187-.23438h.17578l.11719-.0586h.64062l.11719.0586.23437.23438.17188.11328.35156.29297.11719.11718.11328.17579v.11328l.11719.05859.11718.11719v.69922l-.05859.17578v.23047l-.0586.17578-.34765 1.05078-.11719.23047-.11719.23437-.11718.0586-.23047.23437-.64063.28906h-.875l-.41015-.11718-.64063-.46485"/><path fill="none" stroke="#bebebe" stroke-linecap="round" stroke-linejoin="round" stroke-miterlimit="10" stroke-width=".5" d="M467.95703 311.69531H144.02734v168.625h323.9297v-168.625"/><g clip-path="url(#a)"><path fill="#fff" fill-opacity="0" fill-rule="evenodd" d="M144 475.89063v4.4375h.0039H144V311.67188h.0039H144v164.21875"/></g><g clip-path="url(#b)"><path fill="#fff" fill-opacity="0" fill-rule="evenodd" d="M144.0039 480.32813V311.67188h17.75v139.67187l-1.0039 2.35547 1.0039 2.03125 4.4375.02344 1.38282-2.0547-1.38281-1.30858-4.4375-1.04688V311.67187h115.39843v111.92188l-3.49609 3.47656.27344 4.4375 3.22265 2.98438 2.98438-2.98438 1.32031-4.4375-4.30469-3.47656V311.67187h31.06641v146.78125l-4.4375 1.97657-.84766 2.14453.84766.60547 4.4375 1.64844 3.15625-2.25391-3.15625-4.1211V311.67188h26.6289v109.17579l-1.6875 1.78125 1.6875 1.6953 1.9336-1.6953-1.9336-1.78125V311.67187h13.31641v114.5547l-4.4375.21093-.57812.63281.57812.5664 4.4375.26563.79688-.83203-.79688-.84375V311.67187h48.82031v120.90235l-4.4375 1.04687-4.4375 1.17579-3.95703 1.14843-.35156 4.4375-.1289.17969-4.4375.23047-4.44141.92187-2.72266 3.10547 1.15625 4.4414-.72265 4.4375 2.28906 2.27345 1.86328 2.16406 2.57813 3.2539 1.29296 1.1836 3.14454 2.70312 3.16796-2.70312 1.26954-1.61719.52734 1.61719 3.60156 4.4414.3086.16016.17968-.16015 4.25781-.45313 4.44141.10938 4.4375.08593 4.4375-.35547 4.4375-.08203 4.4414-.79297 2.4297-2.95312 1.78125-4.4375.22656-.98047 2.54297-3.45703-2.54297-2.5-2.0039-1.9375-2.4336-2.38672-4.4414-1.72266-4.4375-.29296-.02735-.03907-4.41016-4.26562-.21484-.17188-3.1914-4.4375-1.03126-1.04297-4.4414-2.32812V311.67187h71.01171v168.65625H144.00391"/></g><path fill="#50fcfc" fill-rule="evenodd" d="M161.7539 455.73047l-1.0039-2.03125 1.0039-2.35547 4.4375 1.04688 1.38282 1.30859-1.38281 2.05469-4.4375-.02344m112.17578-24.22266l-.27344-4.4375 3.4961-3.47656v1.4414l-2.04298 2.03516 1.16797 4.4375.875.8086.8086-.8086 1.70703-4.4375-2.51563-2.03515v-1.44141l4.3047 3.47656-1.32032 4.4375-2.98438 2.98438-3.22265-2.98438"/><path fill="#00e8fc" fill-rule="evenodd" d="M276.27734 431.50781l-1.16796-4.4375 2.04296-2.03515 2.51563 2.03515-1.70703 4.4375-.8086.8086-.875-.8086"/><path fill="#50fcfc" fill-rule="evenodd" d="M303.78125 463.17969l-.84766-.60547.84766-2.14453 4.4375-1.97656 3.15625 4.12109-3.15625 2.2539-4.4375-1.64843m31.0664-38.85547l-1.6875-1.69531 1.6875-1.78125 1.9336 1.78125-1.9336 1.6953m8.87891 3.3125l-.57812-.5664.57812-.63281 4.4375-.21094.79688.84375-.79688.83203-4.4375-.26562m29.5 21.625l-1.15625-4.4414 2.72266-3.10548 4.4414-.92187 4.4375-.23047.12891-.17969.35156-4.4375 3.95704-1.14844 4.4375-1.17578 4.4375-1.04687v2.39062l-2.58204.98047-1.85546.3711-4.4375 1.98828-1.7461 2.07812-2.6914 3.78516-4.4375-2.1289-4.44141 2.6914-.07813.08984.07813.20313.5586 4.23828-.14063 4.4375L379.23438 458l.84765.13672 3.58985 2.96484 2.11718-2.96484 2.32031-1.35156.61329 1.35156 1.55078 4.4375 2.27344 2.60547 4.4375.6211 4.4414.21874 4.4375.00781 4.4375-.625 4.4375-.33984 3.97266-2.48828.46875-.35938 3.05469-4.07812 1.23046-4.4375-4.28515-4.26953-.53906-.16797-3.90235-2.95313-4.4375 2.3047-3.0586-3.79298-1.3789-1.33203-3.89062-3.10547-.54688-.67578-2.97265-3.76172-1.46875-.98047v-2.39062l4.4414 2.32812 1.03125 1.04297 3.1914 4.4375.21485.17188 4.41016 4.26562.02734.03906 4.4375.29297 4.4414 1.72266 2.4336 2.38672 2.0039 1.9375 2.54298 2.5-2.54297 3.45703-.22656.98047-1.78125 4.4375-2.4297 2.95312-4.4414.79297-4.4375.08203-4.4375.35547-4.4375-.08594-4.4414-.10937-4.25782.45313-.17969.16015-.30859-.16015-3.60156-4.44141-.52735-1.61719-1.26953 1.61719-3.16796 2.70312-3.14454-2.70312-1.29296-1.1836-2.57813-3.2539-1.86328-2.16406-2.28906-2.27344.72265-4.4375"/><path fill="#00e8fc" fill-rule="evenodd" d="M374.79297 445.02344l-.07813-.20313.07813-.08984 4.4414-2.6914 4.4375 2.1289 2.69141-3.78516 1.7461-2.07812 4.4375-1.98828v2.11328l-2.70704 1.95312-1.73046 2.63672-1.38672 1.80078-3.05079 2.46875-3.20703-2.46875-1.23046-.70703-1.14844.70703-1.28516 4.4414.63281 4.4375 1.80079 1.92188 2.73046-1.92187 1.70704-1.84375 4.4375.35547 1.19921 1.48828 1.72657 4.4375 1.51171 3.53125.4375.90625 4 1.96094 4.44141.39843 4.4375-.125 4.4375-1.0703 4.4375-.76954.6289-.39453 3.8125-2.9336 1.125-1.5039 2.34376-4.4375-3.46875-3.45703-3.08203-.98047-1.35938-1.02735-1.65625 1.02735-2.78125 2.46484-4.4375-.66406-3.64453-1.80078-.79297-.47266-3.19922-3.96875-.15234-4.4375-1.08985-1.2461-4.4375-.70702v-2.11328l1.85547-.3711 2.58204-.98047 1.46875.98047 2.97265 3.76172.54688.67578 3.89062 3.10547 1.3789 1.33203 3.0586 3.79297 4.4375-2.30469 3.90235 2.95313.53906.16797 4.28515 4.26953-1.23046 4.4375-3.0547 4.07812-.46874.35938-3.97266 2.48828-4.4375.33984-4.4375.625-4.4375-.0078-4.4414-.21876-4.4375-.6211-2.27344-2.60546-1.55078-4.4375-.61329-1.35156-2.3203 1.35156-2.1172 2.96484-3.58984-2.96484-.84765-.13672-4.02344-4.30078.14062-4.4375-.5586-4.23828"/><path fill="#00d4fc" fill-rule="evenodd" d="M377.4336 453.69922l-.63282-4.4375 1.28516-4.4414 1.14844-.70704v2.89063l-.98438 2.2578.98438 3.46095 3.11328-3.46094-3.11329-2.25781v-2.89063l1.23047.70703 3.20704 2.46875 3.05078-2.46875 1.38671-1.80078 1.73047-2.63672 2.70704-1.95312v3.26953l-1.01172 3.1211 1.01171.9414.875-.9414-.875-3.1211v-3.26953l4.4375.70703v10.08594l-.03125.03906.03125.0039.12891-.0039-.1289-.03906v-10.08594l1.08984 1.2461.15234 4.4375 3.19922 3.96874.79297.47266 3.64453 1.80078 4.4375.66406 2.78125-2.46484 1.65625-1.02735v1.46485l-4.16015 4-.27735 1.19531-4.4375-.16797-4.4375-.84375-.35547-.1836-4.08594-2.27343-4.4375 1.8789-.1953.39454.1953.69531.5547 3.74219 2.46484 4.4375 1.41796.69531 4.44141.57422 4.4375-.25781 3.2539-1.01172 1.1836-1.25781 4.4375-.95704 2.9375-2.22265 1.5039-.5 2.65626-3.9375-2.65625-2.64844-4.4414-1.35156v-1.46485l1.35937 1.02735 3.08203.98047 3.46875 3.45703-2.34375 4.4375-1.125 1.5039-3.8125 2.9336-.6289.39453-4.4375.76953-4.4375 1.07031-4.4375.125-4.44142-.39843-4-1.96094-.4375-.90625-1.51171-3.53125-1.72657-4.4375-1.19921-1.48828-4.4375-.35547-1.70704 1.84375-2.73046 1.92187-1.80079-1.92187"/><path fill="#00c4fc" fill-rule="evenodd" d="M379.23438 452.72266l-.98438-3.46094.98438-2.25781 3.11328 2.2578-3.11329 3.46095m13.3125-6.96094l-1.01171-.9414 1.01171-3.1211.875 3.1211-.875.9414m0 8.63281l-.1953-.69531.1953-.39453 4.4375-1.8789v2.15624l-.23437.11719-2.05078 4.4375 2.28515 3.375 3.2422 1.0625 1.19921.1836 2.19531-.1836 2.2422-1.34375 2.76562-3.09375-2.76563-.96094-4.4375-1.26562-4.23437-2.21094-.20704-.11719v-2.15625l4.08594 2.27344.35547.1836 4.4375.84374 4.4375.16797.27735-1.19531 4.16015-4v.94531l-3.17578 3.05469 3.17578 4.19531 4.4414-1.46484 1.84376-2.73047-1.84375-1.83594-4.4414-1.21875v-.94531l4.4414 1.35156 2.65625 2.64844-2.65625 3.9375-1.5039.5-2.9375 2.22265-4.4375.95704-1.1836 1.2578-3.2539 1.01173-4.4375.25781-4.44142-.57422-1.41796-.69531-2.46485-4.4375-.55469-3.74219"/><path fill="#00b8fc" fill-rule="evenodd" d="M396.98438 461.51172l-2.28516-3.375 2.05078-4.4375.23438-.11719v3.17188l-.6836 1.3828.6836 1.01173 4.4414-.55078.60938-.46094-.60938-.19531-4.4414-1.1875v-3.17188l.20703.11719 4.23437 2.21094 4.4375 1.26562 2.76563.96094-2.76563 3.09375-2.24219 1.34375-2.1953.1836-1.19923-.1836-3.24219-1.0625"/><path fill="#00a8fc" fill-rule="evenodd" d="M396.98438 459.14844l-.6836-1.01172.6836-1.38281 4.4414 1.1875.60938.1953-.60938.46095-4.4414.55078"/><path fill="#00e8fc" fill-rule="evenodd" d="M396.98438 449.22266l-.03125.03906.03125.0039.1289-.0039-.1289-.03906"/><path fill="#00b8fc" fill-rule="evenodd" d="M414.73828 457.89453l-3.17578-4.19531 3.17578-3.05469v.94531l-2.19531 2.10938 2.19531 2.89844 4.4414-1.3711 1.03126-1.52734-1.03125-1.02735-4.4414-1.08203v-.9453l4.4414 1.21874 1.84375 1.83594-1.84375 2.73047-4.4414 1.46484"/><path fill="#00a8fc" fill-rule="evenodd" d="M414.73828 456.59766l-2.19531-2.89844 2.19531-2.10938v.94141l-1.21094 1.16797 1.21094 1.60156 4.4414-1.28125.21485-.32031-.21484-.21875-4.4414-.94922v-.9414l4.4414 1.08202 1.03125 1.02735-1.03125 1.52734-4.4414 1.3711"/><path fill="#009800" fill-rule="evenodd" d="M414.73828 455.30078l-1.21094-1.60156 1.21094-1.16797v.94531l-.23047.22266.23047.30469 1.08203-.3047-1.08203-.22265v-.94531l4.4414.94922.21485.21875-.21484.32031-4.4414 1.28125"/><path fill="#00ac00" fill-rule="evenodd" d="M414.73828 454.0039l-.23047-.30468.23047-.22266 1.08203.22266-1.08203.30469"/><g clip-path="url(#c)"><path fill="#fff" fill-opacity="0" fill-rule="evenodd" d="M467.9961 480.32813H468V311.67188h-.0039H468v168.65625h-.0039"/></g><path fill="#fff" fill-opacity="0" fill-rule="evenodd" d="M397.88281 471.66797l5.83985.1289.22265-9.95703-5.83984-.1289-.22266 9.95703"/><path fill-rule="evenodd" d="M401.5625 463.6211l.50781.01171-.14062 6.29297-.78516-.01953.09766-4.48828-1.38672-.02735.01172-.55859.5625-.05078.2539-.04688.23047-.08593.20703-.13672.1797-.20703.14452-.28906.11719-.39454"/><g clip-path="url(#d)"><path fill="none" stroke="#000" stroke-linecap="round" stroke-linejoin="round" stroke-miterlimit="10" stroke-width=".5" d="M147.5 480.03516l-7 .58593"/></g><g clip-path="url(#e)"><path fill="none" stroke="#000" stroke-linecap="round" stroke-linejoin="round" stroke-miterlimit="10" stroke-width=".5" d="M146.48438 480.1211l.66406 1.03124"/></g><g clip-path="url(#f)"><path fill="none" stroke="#000" stroke-linecap="round" stroke-linejoin="round" stroke-miterlimit="10" stroke-width=".5" d="M160.80078 480.75781l-6.97266-.85937"/></g><g clip-path="url(#g)"><path fill="none" stroke="#000" stroke-linecap="round" stroke-linejoin="round" stroke-miterlimit="10" stroke-width=".5" d="M159.78906 480.63281l.4375 1.14453"/></g><g clip-path="url(#h)"><path fill="none" stroke="#000" stroke-linecap="round" stroke-linejoin="round" stroke-miterlimit="10" stroke-width=".5" d="M174.13672 480.5664l-7.01172-.47656"/></g><g clip-path="url(#i)"><path fill="none" stroke="#000" stroke-linecap="round" stroke-linejoin="round" stroke-miterlimit="10" stroke-width=".5" d="M173.11719 480.5l.5 1.11719"/></g><g clip-path="url(#j)"><path fill="none" stroke="#000" stroke-linecap="round" stroke-linejoin="round" stroke-miterlimit="10" stroke-width=".5" d="M187.32031 481.30078l-6.75-1.94531"/></g><g clip-path="url(#k)"><path fill="none" stroke="#000" stroke-linecap="round" stroke-linejoin="round" stroke-miterlimit="10" stroke-width=".5" d="M186.33984 481.01953l.25391 1.19922"/></g><g clip-path="url(#l)"><path fill="none" stroke="#000" stroke-linecap="round" stroke-linejoin="round" stroke-miterlimit="10" stroke-width=".5" d="M200.30078 482.08984l-6.08203-3.52343"/></g><g clip-path="url(#m)"><path fill="none" stroke="#000" stroke-linecap="round" stroke-linejoin="round" stroke-miterlimit="10" stroke-width=".5" d="M213.45703 482.33594l-5.76562-4.01563"/></g><g clip-path="url(#n)"><path fill="none" stroke="#000" stroke-linecap="round" stroke-linejoin="round" stroke-miterlimit="10" stroke-width=".5" d="M227.16797 481.59375l-6.55469-2.53125"/></g><g clip-path="url(#o)"><path fill="none" stroke="#000" stroke-linecap="round" stroke-linejoin="round" stroke-miterlimit="10" stroke-width=".5" d="M226.21484 481.22656l.14844 1.21875"/></g><g clip-path="url(#p)"><path fill="none" stroke="#000" stroke-linecap="round" stroke-linejoin="round" stroke-miterlimit="10" stroke-width=".5" d="M240.6211 479.4961l-6.82813 1.66406"/></g><g clip-path="url(#q)"><path fill="none" stroke="#000" stroke-linecap="round" stroke-linejoin="round" stroke-miterlimit="10" stroke-width=".5" d="M253.58594 478.60938l-6.1289 3.4375"/></g><g clip-path="url(#r)"><path fill="none" stroke="#000" stroke-linecap="round" stroke-linejoin="round" stroke-miterlimit="10" stroke-width=".5" d="M252.6914 479.10938l1.03516.66406"/></g><g clip-path="url(#s)"><path fill="none" stroke="#000" stroke-linecap="round" stroke-linejoin="round" stroke-miterlimit="10" stroke-width=".5" d="M267.11719 479.07422l-6.5625 2.50781"/></g><g clip-path="url(#t)"><path fill="none" stroke="#000" stroke-linecap="round" stroke-linejoin="round" stroke-miterlimit="10" stroke-width=".5" d="M266.16406 479.4414l.92188.8047"/></g><g clip-path="url(#u)"><path fill="none" stroke="#000" stroke-linecap="round" stroke-linejoin="round" stroke-miterlimit="10" stroke-width=".5" d="M280.61328 479.73828l-6.92578 1.17969"/></g><g clip-path="url(#v)"><path fill="none" stroke="#000" stroke-linecap="round" stroke-linejoin="round" stroke-miterlimit="10" stroke-width=".5" d="M293.96094 480.66797l-6.99219-.67969"/></g><g clip-path="url(#w)"><path fill="none" stroke="#000" stroke-linecap="round" stroke-linejoin="round" stroke-miterlimit="10" stroke-width=".5" d="M292.94531 480.57031l.46875 1.13281"/></g><g clip-path="url(#x)"><path fill="none" stroke="#000" stroke-linecap="round" stroke-linejoin="round" stroke-miterlimit="10" stroke-width=".5" d="M307.27734 480.6875l-6.99218-.71875"/></g><g clip-path="url(#y)"><path fill="none" stroke="#000" stroke-linecap="round" stroke-linejoin="round" stroke-miterlimit="10" stroke-width=".5" d="M320.50781 479.4961l-6.82422 1.66406"/></g><g clip-path="url(#z)"><path fill="none" stroke="#000" stroke-linecap="round" stroke-linejoin="round" stroke-miterlimit="10" stroke-width=".5" d="M332.04688 477.21875l-3.26954 6.21875"/></g><path fill="none" stroke="#000" stroke-linecap="round" stroke-linejoin="round" stroke-miterlimit="10" stroke-width=".5" d="M331.57031 478.125l1.22656-.00781"/><g clip-path="url(#A)"><path fill="none" stroke="#000" stroke-linecap="round" stroke-linejoin="round" stroke-miterlimit="10" stroke-width=".5" d="M345.76172 477.46484l-4.07031 5.73047"/></g><path fill="none" stroke="#000" stroke-linecap="round" stroke-linejoin="round" stroke-miterlimit="10" stroke-width=".5" d="M345.16797 478.29688l1.21484.15625"/><g clip-path="url(#B)"><path fill="none" stroke="#000" stroke-linecap="round" stroke-linejoin="round" stroke-miterlimit="10" stroke-width=".5" d="M359.07031 477.46094l-4.0586 5.73437"/></g><path fill="none" stroke="#000" stroke-linecap="round" stroke-linejoin="round" stroke-miterlimit="10" stroke-width=".5" d="M358.48047 478.29688l1.21484.15234"/><g clip-path="url(#C)"><path fill="none" stroke="#000" stroke-linecap="round" stroke-linejoin="round" stroke-miterlimit="10" stroke-width=".5" d="M373.02734 478.04688l-5.34375 4.5625"/></g><path fill="none" stroke="#000" stroke-linecap="round" stroke-linejoin="round" stroke-miterlimit="10" stroke-width=".5" d="M373.02734 478.04688l2.28516.89843"/><g clip-path="url(#D)"><path fill="none" stroke="#000" stroke-linecap="round" stroke-linejoin="round" stroke-miterlimit="10" stroke-width=".5" d="M385.76563 477.50781l-4.19141 5.64063"/></g><path fill="none" stroke="#000" stroke-linecap="round" stroke-linejoin="round" stroke-miterlimit="10" stroke-width=".5" d="M385.76563 477.50781l2.42578.36719"/><g clip-path="url(#E)"><path fill="none" stroke="#000" stroke-linecap="round" stroke-linejoin="round" stroke-miterlimit="10" stroke-width=".5" d="M399.5664 477.9414l-5.16015 4.77344"/></g><path fill="none" stroke="#000" stroke-linecap="round" stroke-linejoin="round" stroke-miterlimit="10" stroke-width=".5" d="M398.8164 478.63672l1.15626.40625"/><g clip-path="url(#F)"><path fill="none" stroke="#000" stroke-linecap="round" stroke-linejoin="round" stroke-miterlimit="10" stroke-width=".5" d="M413.78906 479.89844l-6.97656.85937"/></g><g clip-path="url(#G)"><path fill="none" stroke="#000" stroke-linecap="round" stroke-linejoin="round" stroke-miterlimit="10" stroke-width=".5" d="M412.77344 480.02344l.70312 1.0039"/></g><g clip-path="url(#H)"><path fill="none" stroke="#000" stroke-linecap="round" stroke-linejoin="round" stroke-miterlimit="10" stroke-width=".5" d="M427.1211 480.10156l-7.01173.45703"/></g><g clip-path="url(#I)"><path fill="none" stroke="#000" stroke-linecap="round" stroke-linejoin="round" stroke-miterlimit="10" stroke-width=".5" d="M426.10156 480.16797l.64453 1.04297"/></g><g clip-path="url(#J)"><path fill="none" stroke="#000" stroke-linecap="round" stroke-linejoin="round" stroke-miterlimit="10" stroke-width=".5" d="M439.28516 477.71875l-4.70704 5.21875"/></g><path fill="none" stroke="#000" stroke-linecap="round" stroke-linejoin="round" stroke-miterlimit="10" stroke-width=".5" d="M438.59766 478.47656l1.1914.30078"/><g clip-path="url(#K)"><path fill="none" stroke="#000" stroke-linecap="round" stroke-linejoin="round" stroke-miterlimit="10" stroke-width=".5" d="M452.59766 482.9414l-4.70313-5.22265"/></g><g clip-path="url(#L)"><path fill="none" stroke="#000" stroke-linecap="round" stroke-linejoin="round" stroke-miterlimit="10" stroke-width=".5" d="M462.30469 483.60938l2.51562-6.5625"/></g><g clip-path="url(#M)"><path fill="none" stroke="#000" stroke-linecap="round" stroke-linejoin="round" stroke-miterlimit="10" stroke-width=".5" d="M147.39844 466.1211l-6.79688 1.78515"/></g><path fill="none" stroke="#000" stroke-linecap="round" stroke-linejoin="round" stroke-miterlimit="10" stroke-width=".5" d="M147.39844 466.1211l1.66406 1.80077m11.39063-2.49218l-6.27344 3.16797m6.27344-3.16797l2.0039 1.41797m11.60156-.60157l-6.85547 1.53516m6.85547-1.53516l1.59766 1.86328m11.79297-.8125l-7.00781-.5664m5.98828.48437l.48437 1.125m13.39063.4297l-6.08594-3.51173m5.19922 3l-.04297 1.22656m14.48828-1.23046l-6.57422-2.48047m5.61719 2.1211l.15625 1.21483m14.33594-2.27734l-7.01563.36328m5.9961-.3086l.6289 1.05079m13.39063-2.38672l-6.38672 2.92969m5.45703-2.5039l.97656.74218m12.76953-1.96094l-5.38672 4.51172m4.60157-3.85547l1.13672.46094m13.5664-.07422l-6.59375 2.42578m5.63281-2.07422l.91797.82032m13.13672-1.65235l-6.15234 3.38672m5.25781-2.89453l1.02734.67188m13.375-.76172l-6.53515 2.58203m5.58203-2.20703l.9336.79687m13.27734-1.3086l-6.42188 2.85548m5.48828-2.4375l.96485.7539m12.64844-2.13281l-5.15235 4.77734m4.40235-4.08203l1.16015.40235m12.57422-1.41016l-4.49219 5.40234m3.83985-4.61718l1.19921.25m13.32032-.46094l-5.59375 4.2539m4.78125-3.6328l1.11328.51171m13.34765-.59765l-6.26171 3.18359m6.26171-3.1836l2.01172 1.41016m11.65235-.30469L366.875 467.5m6.96094-.97266l1.4414 1.98828m11.75391-2.52343l-6.72266 2.04297m6.72266-2.04297l1.73438 1.73828m-2.71094-1.4414l.86719.87109m13.5664-.41016l-7.0039.52734m7.0039-.52734l1.3125 2.07422M413.77734 466.5l-6.95312 1.02734m6.95312-1.02734l1.45704 1.97266m11.72656-.38282l-6.6875-2.15234m5.71484 1.83984l.21485 1.20703m12.89062-4.74218l-4.32422 5.54297m3.69531-4.73438l1.20704.21094M450.26952 463.5l-.04687 7.02734m.03906-6.0039l1.08594-.57032m9.1289 4.7422l6.17188-3.36329m-5.27344 2.8711l-1.02344-.67579"/><g clip-path="url(#N)"><path fill="none" stroke="#000" stroke-linecap="round" stroke-linejoin="round" stroke-miterlimit="10" stroke-width=".5" d="M147.51172 453.58984l-7.02344.21875"/></g><path fill="none" stroke="#000" stroke-linecap="round" stroke-linejoin="round" stroke-miterlimit="10" stroke-width=".5" d="M147.51172 453.58984l1.21875 2.12891m12.07422-2.44531l-6.97656.84765m6.97656-.84765l1.40234 2.01172m11.90625-1.1172l-6.96484-.9375m5.94922.80079l.42968 1.14844m13.84766-.71094l-6.85938-1.53906m6.85938 1.53906l.64844 2.36328m12.70703-2.57812l-6.9414-1.10938m6.9414 1.10938l.79297 2.3203m12.5625-2.79296l-7.02344-.16406m7.02344.16406l1.10156 2.1914m12.01563-3.4414l-6.625 2.33594m6.625-2.33594l1.80859 1.66016m11.3711-1.9922l-6.35548 3m6.35547-3l1.96485 1.46485m10.76953-2.33203l-5.19531 4.73438m5.1953-4.73438l2.3125.82422m11.39063-.3125l-5.96875 3.71094m5.96875-3.71094l2.1211 1.23047m11.27343-1.09375l-6.1289 3.4375m6.1289-3.4375l2.06641 1.32812m11.19922-1.41797l-6.02734 3.61329m6.02734-3.61329l2.10156 1.26954m11.08594-1.46485l-5.77344 4.00781m5.77344-4.0078l2.17969 1.12109m10.75-1.58594l-5.00391 4.9336m5.0039-4.9336l2.33985.73437m10.80469-.89453l-4.66016 5.25781m4.66016-5.2578l2.38281.57421m11.48828.05469l-5.77734 4m4.9375-3.41797l1.08984.5625m13.67188 1.21875l-6.98828-.73047m5.97265.625l.46094 1.13672m13.13672.78125l-5.51953-4.35156m4.71484 3.71875l-.21875 1.20703m11.9336.7461l-.71485-6.9922m.61328 5.97266l-1.01953.6836m14.21484.35156l-.26953-7.02344m.23047 6l-1.0586.61719m17.70313-2.3164l-6.84765-1.57813m5.85156 1.34765l.3164 1.1875m10.33594 1.75781l.46485-7.01171m-.39453 5.99218l-1.1211.50391m17.89453-1.76953l-6.58984-2.4375m6.58984 2.4375l.32813 2.42969m-1.28516-2.78516l.16406 1.21484m12.48438-5.16797l-3.34375 6.1797m3.34375-6.1797l2.45312.01563m7.6875 6.25l3.00782-6.35156m-2.57032 5.42578l-1.22656.0586"/><g clip-path="url(#O)"><path fill="none" stroke="#000" stroke-linecap="round" stroke-linejoin="round" stroke-miterlimit="10" stroke-width=".5" d="M147.48047 439.89453l-6.96094.97656"/></g><path fill="none" stroke="#000" stroke-linecap="round" stroke-linejoin="round" stroke-miterlimit="10" stroke-width=".5" d="M147.48047 439.89453l1.4414 1.98438m11.8711-1.98828l-6.95703.98437m6.95703-.98438l1.44531 1.98438m-2.45703-1.83984l.72266.99218m13.63672-.77343l-7.02344.2578m7.02344-.2578l1.23046 2.125m-2.25-2.08594l.61328 1.0625m13.71485-1.21484l-7.00781.48828m7.0078-.48828l1.30079 2.08203m-2.32031-2.01172l.64844 1.03906m13.625-1.5664l-6.88672 1.40234m6.88672-1.40235l1.5625 1.89063m-2.5625-1.6875l.77734.94531m13.53125-1.17969l-6.8711 1.46094m6.8711-1.46094l1.57812 1.87891m-2.57812-1.66797l.78906.9414m13.52344-1.16796l-6.86719 1.4961m6.86719-1.4961l1.58594 1.8711m-2.58594-1.65235l.79297.9336m13.39844-1.58594l-6.6211 2.35937m6.6211-2.35937l1.8125 1.65625m11.35937-1.9961l-6.33594 3.03906m6.33594-3.03906l1.97656 1.45703m10.79297-2.27343l-5.2461 4.67578m5.2461-4.67578l2.30469.85156m11.04297-.82031L274.5 442.6875m4.53125-3.9375l1.14453.4414m13.63281.10548l-6.68359 2.17187m5.71094-1.85547l.88281.85156m12.85156-2.21875l-5.57812 4.27344m5.57812-4.27344l2.23047 1.01954m11.23438-.8086l-5.87891 3.85547m5.8789-3.85547l2.14844 1.17969m10.78125-1.66406l-5.10937 4.82422m5.10937-4.82422l2.32422.78515m10.85938-.91797l-4.84766 5.08594m4.84766-5.08594l2.36328.66016m11.92969.9961l-6.80078 1.77734m5.8125-1.51953l.82812.90234m11.02734 3.10938L369.40234 437m1.62891 5.78125l-.88672.84766m14.34375.17187l-1.63281-6.83594m11.70312 5.95704l4.85547-5.07813m-4.14843 4.33984l-1.1836-.33203m13.85547 1.1289l4.72656-5.1953m-4.72656 5.1953l-2.3789-.60546m15.04296-.1875l6.03125-3.60937m-6.03125 3.60937L418.5 440.92188m17.38281 2.8164l2.09766-6.70703m-2.09766 6.70703l-2.41406.44922m2.71875-1.42578l-1.20703.22656m18.14844-.59375l-5.76172-4.02344m5.76172 4.02344l-.29688 2.4375m11.41406-1.0039l-1.37109-6.89063m1.17188 5.89063l-.94922.77343"/><g clip-path="url(#P)"><path fill="none" stroke="#000" stroke-linecap="round" stroke-linejoin="round" stroke-miterlimit="10" stroke-width=".5" d="M147.35547 426.02344l-6.71094 2.08984"/></g><path fill="none" stroke="#000" stroke-linecap="round" stroke-linejoin="round" stroke-miterlimit="10" stroke-width=".5" d="M147.35547 426.02344l1.74219 1.72656m-2.71875-1.42188l.87109.86329m13.4961-.875l-6.86329 1.5039m6.86328-1.5039l1.58985 1.87109m-2.58594-1.65234l.79297.93359m13.60156-.41797l-7.02734.03906m7.02734-.03906l1.16406 2.16016m-2.1875-2.15625l.58203 1.07812m13.7461-1.3164l-7.00781.5039m7.0078-.5039l1.3047 2.07812m-2.32422-2.0039l.65234 1.03906m13.6914-.88281l-7.02734.04296m7.02735-.04297l1.16406 2.16016m-2.1875-2.15234l.58203 1.07812m13.75-.83984l-7.01172-.44922m7.01172.44922l1.01172 2.23437m12.29297-2.10937l-6.99219-.69922m5.97656.59766l.46485 1.1328m13.83984-1.93358l-6.9414 1.10937m6.9414-1.10937l1.48047 1.95703m11.76563-2.27735l-6.8047 1.7461m6.8047-1.7461l1.65625 1.8086m11.73437-1.4336l-6.95313 1m6.95313-1l1.44922 1.98047m11.625-2.85547l-6.46875 2.7461m5.52734-2.34766l.95313.77344m13.08984-1.58985l-6.04297 3.58204m5.16406-3.0625l1.04688.64062m13.6289.35156l-7.0078.5586m5.98827-.47657l.66016 1.03516m13.32422-2.38672l-6.3086 3.09766m6.3086-3.09766l1.98828 1.4375m10.98438-1.99219l-5.625 4.20704m5.625-4.20704l2.22265 1.04297m9.67578-2.16406l-2.78906 6.44922m2.38281-5.51172l1.22266-.09766m12.23437-.9414l-2.26171 6.65234m1.93359-5.6836l1.21094-.19921m7.91015 3.48047l6.78125-1.84766m8.46875 4.1211l2.91016-6.39454m-2.48438 5.46485l-1.22656.07422m12.27344-1.12891l6.59766-2.42578m-5.63672 2.07422l-.91407-.82032m13.85547 2.19141l5.42578-4.46484m-5.42578 4.46484l-2.26953-.9414m15.6211.98437l5.35156-4.55078m-5.35156 4.55078l-2.28125-.90234m3.05859.24218l-1.14063-.45312m13.83594 1.28906l5.03516-4.90234m-5.03516 4.90234l-2.33594-.75m3.06641.03516l-2.33594-.7461m15.75 2.08985l3.375-6.16016m-3.375 6.16016l-2.45312-.02735m2.94531-.86718l-1.22656-.01563m15.25781 1.3125l.95703-6.96484m-.8164 5.94922l-1.15235.42578"/><g clip-path="url(#Q)"><path fill="none" stroke="#000" stroke-linecap="round" stroke-linejoin="round" stroke-miterlimit="10" stroke-width=".5" d="M147.39844 412.86719l-6.79688 1.77344"/></g><path fill="none" stroke="#000" stroke-linecap="round" stroke-linejoin="round" stroke-miterlimit="10" stroke-width=".5" d="M147.39844 412.86719l1.66406 1.80469m-2.65234-1.54688l.83203.90234m13.50781-1.0078l-6.8711 1.46483m6.8711-1.46484l1.57813 1.8789m-2.57813-1.66405l.78906.9375m13.5586-.97266l-6.9375 1.10937m6.9375-1.10937l1.48047 1.95703m-2.48829-1.79687l.73828.98046m13.57813-1.1953l-6.92188 1.21874m6.92188-1.21875l1.51172 1.9336m11.04297-3.57422L194.55859 416m4.6172-3.83984l1.1328.46484m13.69532 1.89063l-6.85938-1.52344m5.86328 1.30078l.32813 1.1836m13.10547.6914l-5.10157-4.82813m4.35938 4.125l-.32422 1.1836m15.22266-1.98438l-6.78516-1.82031m5.80078 1.55469l.27344 1.19531m14.01953-2.78125l-6.76953 1.88281m6.76953-1.88281l1.6914 1.77734m11.3086-2.54687l-6.14063 3.41797m6.14063-3.41797l2.0586 1.33203m10.74609-2.02734l-5.1211 4.8125m4.375-4.11328l1.16407.39453m12.67578-1.3125l-4.67578 5.24609m3.99609-4.48047l1.1914.28906m10.4375-1.9453l.0547 7.02734m-.04688-6.00391l1.07812-.58203m14.84766.70312l-5.1836 4.74219m4.4297-4.05469l1.15624.41016m12.92578-1.08594l-5.21093 4.71485m4.45312-4.02735l1.15625.41797m12.2461-1.67969l-3.8711 5.86719m3.8711-5.86719l2.4453.23438m9.08985-.8125l-.3086 7.01953m.26173-5.9961l1.10937-.52734m10.64453-.1836l2.90625 6.39845m-2.48047-5.46875l.7461-.97266m12.58203-.1211l2.03125 6.72657m-2.03125-6.72656l1.73828-1.73047m9.46094 3.5l6.26172 3.1875m-6.26172-3.1875l-.04297-2.45313m13.11328 5.02344l6.75-1.95703m-5.76562 1.67187l-.85547-.8789m13.05468.3828l7.01563-.39452m-7.01563.39453l-1.27343-2.09766m14.64843 2.58203l6.89454-1.36328m-6.89454 1.36328l-1.55078-1.89843m2.5547 1.70312l-.77735-.95312m13.48437 2.21093l6.10156-3.48437m-6.10156 3.48437l-2.07422-1.3125m2.96094.8047l-1.03516-.65626m13-.60547l7.02735.05469m-6.0039-.04687l-.56641-1.08594"/><g clip-path="url(#R)"><path fill="none" stroke="#000" stroke-linecap="round" stroke-linejoin="round" stroke-miterlimit="10" stroke-width=".5" d="M147.44531 399.75l-6.89062 1.375"/></g><path fill="none" stroke="#000" stroke-linecap="round" stroke-linejoin="round" stroke-miterlimit="10" stroke-width=".5" d="M147.44531 399.75L149 401.64844m-2.5586-1.69922l.77735.94922m13.59375-.8086l-6.99219.69922m6.99219-.69922l1.35938 2.03907m11.97265-1.69141h-7.02734m7.02734 0l1.15234 2.16797m11.90235-3.49219l-6.50781 2.64844m6.5078-2.64844l1.88282 1.57422m10.78125-2.60938l-5.20703 4.71875m4.44922-4.03125l1.15625.41797m10.0625-2.25l.5 7.00782m-.42578-5.98829l1.03906-.65234m10.42578 6.00781l4.05469-5.73828m11.94922 6.32031l-1.32422-6.90234m17.36328 2.5039l-6.76953 1.89063m6.76953-1.89062l1.6914 1.77734m11.31641-2.52734l-6.15625 3.39062m6.15625-3.39062l2.05469 1.34375m11.125-1.5625l-5.88672 3.83203m5.88672-3.83203l2.14844 1.1875m10.60156-1.85938l-4.7539 5.17578m4.7539-5.17578l2.375.61328m11.51172.06641l-5.89844 3.8164m5.03906-3.26171l1.07422.59375m13.47656 1.89062l-6.65234-2.26562m19.26953-1.19922l-5.25781 4.66406m4.49219-3.98437l1.15234.42968m12.41406-1.58203l-4.23046 5.60938m4.23046-5.60938l2.42579.38672m11.99218 1.00781l-6.4336 2.82032m6.4336-2.82032l1.92578 1.52344m-2.85937-1.11328l.96094.76172m13.58203.14844l-7.02344.17968m7.02344-.17968l1.20703 2.13671m10.96875-4.63671l-4.7461 5.18359m4.7461-5.1836l2.3789.61329m10.82032-.71485l-4.51172 5.38282m4.51172-5.38282l2.40234.50782m-3.0586.27734l1.20313.2539m12.42969-1.28906l-3.83594 5.88672m3.83594-5.88672l2.44531.21875m-3 .63672l1.21875.10938m11.79297-1.3711l-2.11719 6.69922m2.1172-6.69922l2.41015-.44921m8.23828.67187l3.21484 6.25m-2.7461-5.33984l.69923-1.00782m11.80469 6.14844l3.89843-5.84765m-3.89844 5.84765l-2.4414-.2461m16.67969.6836l2.05078-6.72265m-1.75 5.74218l-1.20703.23438"/><g clip-path="url(#S)"><path fill="none" stroke="#000" stroke-linecap="round" stroke-linejoin="round" stroke-miterlimit="10" stroke-width=".5" d="M147.36328 386.10938l-6.72656 2.02734"/></g><path fill="none" stroke="#000" stroke-linecap="round" stroke-linejoin="round" stroke-miterlimit="10" stroke-width=".5" d="M147.36328 386.10938l1.73047 1.74609m-2.70703-1.44922l.86328.8711m12.41406-2.76563l-4.69922 5.22265m4.69922-5.22265l2.38281.58984m-3.0664.16797l1.1914.29688m12.53907-1.27344l-4.16406 5.66015m4.16406-5.66015l2.42969.35547m12.14453 1.38672l-6.6797 2.17578m19.41017-3.26953l-5.51172 4.36328m4.71093-3.72656l1.1211.49218m13.0039-1.11328l-5.53125 4.33594m5.53125-4.33594l2.2422.99219m-3.04688-.36328l1.12109.4961m10.47266-2.46485l-.47657 7.01172m.47657-7.01172l2.23828-1.0039m10.35937 7.99218l.96094-6.96094m-.82422 5.94531l-1.15234.42188m18.32422-2.86719l-7.02735-.04297m6.0039.03906l.57032 1.08594m13.23047-2.96875l-5.95313 3.73047m5.95313-3.73047l2.1289 1.22656m-2.99609-.68359l1.0664.61328m13.5547-.11328l-6.83203 1.64453m6.83203-1.64453l1.6289 1.83594m-2.6211-1.59766l.8125.91797m13.46485-1.27344l-6.76953 1.87891m6.76953-1.8789l1.6875 1.77734m-2.67187-1.5039l1.6875 1.77733m12.69922-1.64843l-6.94532 1.07812m6.94532-1.07812l1.46875 1.96094m-2.48047-1.8047l.73437.98048m13.6211-.32813l-7.00391-.53906m7.0039.53906l.98438 2.2461m-2.0039-2.32813l.49218 1.125m13.85547-1.35938l-7.02734.08985m7.02734-.08985l1.17969 2.14844m-2.20313-2.13672l1.1797 2.15235m-2.20313-2.13672l.58984 1.07422m14.76563-1.22656l-7.01954.33984m7.01954-.33985l1.2578 2.10547M346.21485 387l.62891 1.05469m13.5625-1.9375l-6.73047 2.01172m6.73047-2.01172l1.72656 1.7461m-2.70312-1.45313l.85937.875m13.21875-1.71485l-6.30468 3.10547m6.30468-3.10547l1.99219 1.4375m-2.91016-.98437l1.9922 1.4336M386.0078 384.5l-4.67187 5.25m4.67187-5.25l2.38282.57813m-3.0625.18359l2.3828.57812m11.1875-1.66406l-3.82421 5.89453m3.82422-5.89453l2.44531.21485m-3 .64453l2.4414.21093m11.60157-.94921l-4.17188 5.65234m4.17188-5.65235l2.42969.35938m-3.03516.46094l1.21484.17969m13.08985-.67188l-4.9414 4.9961m4.9414-4.9961l2.35156.70703m11.85547 2.8086l-6.72266-2.03516m5.7461 1.74219l.23437 1.20312m13.88672-.45312l-6.3789-2.94922m6.3789 2.94922l.13281 2.44921m-1.0625-2.8789l.13672 2.44922m13.97266-1.75781l-6.10938-3.47266m6.10938 3.47265l-.0664 2.45313m-.82423-2.96094l-.0664 2.45313m-.82032-2.95703l-.03515 1.22656"/><g clip-path="url(#T)"><path fill="none" stroke="#000" stroke-linecap="round" stroke-linejoin="round" stroke-miterlimit="10" stroke-width=".5" d="M146.82813 371.72266l-5.65625 4.17187"/></g><path fill="none" stroke="#000" stroke-linecap="round" stroke-linejoin="round" stroke-miterlimit="10" stroke-width=".5" d="M146.82813 371.72266l2.21484 1.0625m-3.03906-.45313l1.10937.52735m12.29297-1.875l-4.17969 5.64843m4.17969-5.64844l2.42578.35938m-3.03516.46094l2.42579.36328m12.91797 1.8125l-7.01954-.34766m7.01953.34766l1.04297 2.22265m-2.0664-2.27343l.52344 1.11328m13.6914-2.17188l-6.77344 1.875m6.77344-1.875l1.6875 1.78125m-2.67187-1.5078l.84375.89062m13.4375-1.23047l-6.73438 2.00781m6.73438-2.00781l1.72265 1.75m-2.70312-1.45703l.85937.875M213.5 371.85937l-5.84766 3.89844m5.84766-3.89844l2.16016 1.16407m-3.01172-.59766l1.07812.58203m13.66016 1.13281l-6.9961-.66406m6.9961.66406l.94531 2.26172m-1.96094-2.35937l.94141 2.26562m13.39453-2.21093l-7.0039-.57813m7.0039.57813l.96875 2.2539m-1.98828-2.33594l.96875 2.25391m-1.98828-2.33984l.48437 1.125m14.79297-2.03516l-6.84765 1.57813m6.84765-1.57813l1.60938 1.85156m-2.60547-1.62109l1.60937 1.85156m-2.60547-1.6211l.8047.92579m14.40234-1.73047l-6.65235 2.26563m6.65235-2.26563l1.78906 1.67969m-2.7539-1.35156l1.78906 1.67968m-2.75782-1.34765l.89453.83984m14.50391-.90234l-6.94531 1.07031m6.94531-1.07031l1.46484 1.96484m-2.47656-1.8086l1.46875 1.96485m12.89453-1.4961l-7.02343-.17968m7.02343.17969l1.09766 2.19531m-2.11719-2.22266l.54688 1.09766m13.54687-2.4414l-6.53906 2.5625m6.53906-2.5625l1.86328 1.59374m-2.8125-1.22265l.92969.79687m13.54688-.36328l-6.96485.95313m6.96485-.95313l1.43359 1.99219m-2.44922-1.85156L321 375.46094m12.92578-1.65235h-7.02734m7.02734 0l1.15235 2.16797m-2.17579-2.16797l.57422 1.08204m13.75782-1.23829l-7.01954.3125m7.01954-.3125l1.25 2.11329m-2.26954-2.06641l.625 1.05469m13.67579-1.46485l-6.94922 1.03906m6.94922-1.03906l1.46093 1.97266m-2.47265-1.82031l1.46093 1.97265m12.58204-3.08203l-6.37891 2.94922m6.3789-2.94922l1.95313 1.48438m-2.88281-1.0547l1.95312 1.48438m11.70703-2.79687l-5.21093 4.71875m5.21093-4.71875l2.3086.83594m-3.0664-.14844l1.15234.41797m12.80078-1.23047L394.5 376.29297m4.97266-4.96875l2.34375.71875m-3.07032.0039l2.34766.71875m12.51563-.14062l-6.6172 2.36719m6.6172-2.36719l1.8164 1.64844m-2.77734-1.30469l.90625.82422m13.57422-.1289l-7.02344.28906m7.02344-.28907l1.23828 2.11719m-2.26172-2.07422l1.24219 2.11328m-2.26563-2.07422l.6211 1.0586m14.49609.28906l-6.53906-2.57031m6.53906 2.57031l.28125 2.4375m-1.23047-2.8125l.27734 2.4414m-1.23046-2.8125l.28125 2.4375m14.54296-.95702l-5.75-4.03907m5.75 4.03906l-.30468 2.4336m-.53125-3.01953l-.3047 2.4336m-.53124-3.02345l-.30469 2.4336m15.53906-1.66406l-6.24218-3.22657m6.24218 3.22656l.02735 2.45313m-.9375-2.92188l.02734 2.45313"/><g clip-path="url(#U)"><path fill="none" stroke="#000" stroke-linecap="round" stroke-linejoin="round" stroke-miterlimit="10" stroke-width=".5" d="M146.92188 358.53906l-5.84375 3.90625"/></g><path fill="none" stroke="#000" stroke-linecap="round" stroke-linejoin="round" stroke-miterlimit="10" stroke-width=".5" d="M146.92188 358.53906l2.16015 1.16016m10.90234-1.48828l-5.33984 4.5664m5.33984-4.5664l2.28516.89844m-3.0625-.23438l2.28516.89844m12.52344 1.66406l-6.76954-1.89063m6.76953 1.89063l.52344 2.39844m-1.50781-2.67188l.26172 1.19922m14.16016-2.08203l-7.01563.42578m7.01563-.42578l1.28125 2.09375m-2.30079-2.03125l1.27735 2.08984m-2.30078-2.02734l.64062 1.04297m14.71484-.6914l-7.0078-.52735m7.0078.52734l.98438 2.2461m-2.0039-2.32422l.98437 2.2461m-2.0039-2.32423l.98437 2.25m14.375-2.1836l-7.01953-.34765m7.01953.34766l1.04297 2.21875m-2.06641-2.26953l1.04297 2.21875m-2.0625-2.26953l1.04297 2.21875m14.3086-2.04297l-7.00782-.5m7.00781.5l.9961 2.2461m-2.01563-2.31642l.9961 2.2422m-2.01563-2.31641l.9961 2.24218m14.36718-2.34765h-7.02734m7.02734 0l1.15234 2.16797m-2.17578-2.16797l1.15235 2.16797m-2.17188-2.16797l.57422 1.08594M254 360.0078l-6.96094.97266M254 360.0078l1.4414 1.98438m-2.45312-1.84375l1.4414 1.98437m-2.45312-1.84375l.71875.99219m14.4414-1.98828l-6.60546 2.39844m6.60547-2.39844l1.82422 1.64453m-2.78516-1.29297L268 361.28516m-2.78516-1.29297l.91407.82031m14.4453-1.10938l-6.84765 1.57813m6.84766-1.57813l1.60937 1.85547m-2.60547-1.625l1.60938 1.85547m12.78906-1.39844l-7.02344.20313m7.02344-.20313l1.21485 2.13282m-2.23438-2.10156l1.21484 2.1328m13.11329-2.32421l-7.00782.52344m7.00782-.52344l1.30859 2.07422m-2.32813-1.9961l1.3086 2.07422m12.9961-2.41406l-6.94923 1.05078m6.94922-1.05078l1.46094 1.96875m-2.47266-1.8164l1.46485 1.96874m12.8789-1.98437l-6.98437.77734m6.98437-.77734l1.38672 2.02734m-2.40234-1.91406l.6914 1.01172m13.64454-1.07813l-6.9922.6797m6.9922-.6797l1.35546 2.04688m-2.37109-1.94531l.67578 1.01953m13.65625-1.09766l-6.9961.63672m6.9961-.63672l1.34375 2.05078m-2.35937-1.95703l.67187 1.02344m13.59375-1.54688l-6.86719 1.4961m6.8672-1.4961l1.58593 1.8711m-2.58594-1.65235l1.58594 1.8711m12.35156-3.07813l-6.10937 3.46875m6.10937-3.46875l2.07031 1.3164m-2.96093-.8125l2.07422 1.31642M400.16796 359l-6.36327 2.98438M400.16797 359l1.96094 1.47266m-2.88672-1.03907l1.96093 1.47266m12.60938-.55469l-7.02344.28516m7.02344-.28516l1.23828 2.11719m-2.26172-2.07813l1.23828 2.1211m13.07813-1.60938l-6.98047-.8203m6.98047.8203l.89062 2.28516m-1.90625-2.40234l.89063 2.28515m-1.90625-2.40625l.89062 2.28516m14.41016-1.76563l-6.89063-1.3789m6.89063 1.3789l.70703 2.34766m-1.70703-2.55078l.70312 2.35156m-1.70703-2.55078l.70703 2.35156m14.6172-1.97656l-6.89845-1.32813m6.89844 1.32813l.72266 2.34766m-1.72656-2.53907l.72265 2.34375m-1.72656-2.53906l.36328 1.17578m15.00781-1.1211l-6.99609-.66405"/><g clip-path="url(#V)"><path fill="none" stroke="#000" stroke-linecap="round" stroke-linejoin="round" stroke-miterlimit="10" stroke-width=".5" d="M467.0586 360.82422l.9414 2.26562"/></g><path fill="none" stroke="#000" stroke-linecap="round" stroke-linejoin="round" stroke-miterlimit="10" stroke-width=".5" d="M466.04297 360.72656l.9414 2.26563"/><g clip-path="url(#W)"><path fill="none" stroke="#000" stroke-linecap="round" stroke-linejoin="round" stroke-miterlimit="10" stroke-width=".5" d="M147.16406 345.65234l-6.32812 3.05079"/></g><path fill="none" stroke="#000" stroke-linecap="round" stroke-linejoin="round" stroke-miterlimit="10" stroke-width=".5" d="M147.16406 345.65234l1.98047 1.45313m11.11719-1.83985l-5.89453 3.82422m5.89453-3.82421l2.14844 1.1914m-3.00391-.63281l2.14453 1.1914m12.39453 1.32813l-6.6289-2.33203m6.6289 2.33203l.36719 2.42578m-1.33203-2.76562l.36719 2.42578m-1.33203-2.76563l.36718 2.42578m14.84375-1.66015l-6.5664-2.5039m6.5664 2.5039l.30469 2.4336m-1.25781-2.79688l.30469 2.43359m-1.26172-2.79688l.30468 2.4336m15.1211-2.4961l-6.96485-.92578m6.96485.92579l.85937 2.29687m-1.8711-2.4336l.85548 2.30079m13.41015-3.4336l-6.83984 1.61329m6.83984-1.61329l1.6172 1.84375M213 346.60547l1.61719 1.84375m-2.61328-1.60938l.80859.92188m14.32813-1.91797l-6.5 2.66797m6.5-2.66797l1.88671 1.5664m-2.83203-1.17968l1.88672 1.5664M225.25 346.6211l.94531.78125m14.21485-1.66406L234 348.61718m6.41016-2.8789l1.9375 1.5039m-2.8711-1.08593l1.9414 1.5039m12.47267-1.48046l-6.73829 1.9961m6.73828-1.9961l1.71875 1.75m-2.69921-1.45703l1.71875 1.75m12.63672-1.8047l-6.85938 1.51954m6.85938-1.51953l1.59375 1.86719m-2.58985-1.64454l1.58985 1.8672m12.80468-1.26954l-7.02734-.1211m7.02734.1211l1.11328 2.1836m-2.13672-2.20313l.5586 1.09375m13.77734-1.03516l-7.02344-.19921m7.02344.19921l1.08985 2.19922m-2.10938-2.22656l.54297 1.09766m13.74219-1.76563l-6.92578 1.1914m6.92578-1.1914l1.5039 1.9414m-2.51172-1.76562l1.50391 1.9375m12.52734-3.03125l-6.33984 3.03125m6.33984-3.03125l1.97266 1.45703m-2.89453-1.01953l1.97266 1.46094m12.5039-1.23438L327 348.02735m6.82031-1.69921l1.64063 1.82421m-2.63282-1.57421l1.64063 1.82421m12.74219-.76562l-6.96875-.91797m6.96875.91797l.85937 2.29687m-1.875-2.42968l.85938 2.29687M360.5 347.78516l-6.91797-1.21485m6.91797 1.21485l.76172 2.33203m-1.76563-2.50781l.75782 2.33203m13.61328-2.625l-7.02344-.27735m7.02344.27735l1.0664 2.21093m-2.08984-2.25l1.0664 2.20704m13.25-2.71875l-6.97656.82421m6.97657-.82421l1.39843 2.01562m-2.41406-1.89453l1.39844 2.01562m-2.41406-1.89843l.69921 1.0078m14.60157-1.52343l-6.89063 1.3789m6.89063-1.3789l1.55468 1.89844m-2.55468-1.69531l1.55468 1.89843m-2.55859-1.69921l.77734.94921m14.58985-1.05078l-6.98438.77735m6.98438-.77735l1.38672 2.02344m-2.40235-1.91016l1.38672 2.02344m-2.40234-1.91015l.6914 1.01171m14.67579-.84765h-7.02735m7.02735 0l1.15234 2.16406m-2.17188-2.16406l1.14844 2.16406m-2.17187-2.16406l1.15234 2.16406m14.20703-2.21875l-7.02734.10547m7.02734-.10547l1.1836 2.14844m-2.20704-2.13281l1.1875 2.14843m-2.21093-2.13281l1.1875 2.14844m14.15625-2.4961l-6.98828.73829m6.98828-.73829l1.3711 2.03516m-2.39063-1.92578l1.375 2.03515m-2.39063-1.92968l1.3711 2.03515m13.91406-2.64453l-6.85938 1.52735"/><g clip-path="url(#X)"><path fill="none" stroke="#000" stroke-linecap="round" stroke-linejoin="round" stroke-miterlimit="10" stroke-width=".5" d="M466.99219 346.41406l1.59375 1.86719"/></g><path fill="none" stroke="#000" stroke-linecap="round" stroke-linejoin="round" stroke-miterlimit="10" stroke-width=".5" d="M465.99219 346.63672l1.59765 1.86719m-2.59375-1.64454l.79688.9336"/><g clip-path="url(#Y)"><path fill="none" stroke="#000" stroke-linecap="round" stroke-linejoin="round" stroke-miterlimit="10" stroke-width=".5" d="M147.46875 333.30469l-6.9375 1.11719"/></g><path fill="none" stroke="#000" stroke-linecap="round" stroke-linejoin="round" stroke-miterlimit="10" stroke-width=".5" d="M147.46875 333.30469l1.48047 1.95703m11.82031-.75781l-6.91016-1.28125m6.91016 1.28125l.73828 2.33984m-1.74219-2.52734l.73829 2.33984m13.42187-1.57422l-6.58984-2.4375m6.58984 2.4375l.32813 2.4336m-1.28907-2.78907l.32813 2.4336m-1.28516-2.78907l.32813 2.4336m15.09765-2.50781l-6.97656-.8672m6.97656.8672l.875 2.28906m-1.89062-2.41797l.875 2.29297m-1.89063-2.41797l.4375 1.14844m14.875-1.96485L193.8047 334.5m6.91015-1.27344l1.52735 1.92188m-2.53125-1.73828l1.52344 1.92187m12.30468-3.35156l-5.92969 3.76562m5.9297-3.76562l2.13671 1.21094m-2.9961-.66407l2.13282 1.21094m-2.9961-.66406l1.06641.60547m13.10938-2.63281l-4.20313 5.6289m4.20313-5.6289l2.42578.375m-3.03516.4453l2.42188.375m11.05078-1.48046l-3.30078 6.20312m3.30078-6.20312h2.45312m-2.93359.90234h1.22656m13-.63281l-4.16406 5.66016m4.16406-5.66016l2.42969.35938m12.01953 1.05859l-6.42969 2.82812m6.4297-2.82812l1.92577 1.51562m11.41407 1.25391l-6.48047-2.71094m6.48047 2.71094l.22656 2.44531m-1.16797-2.83984l.11328 1.22265m14.14844-.83593l-6.49219-2.69531m6.49219 2.6953l.23437 2.44141m-1.17969-2.83593l.1172 1.22265m14.41015-2.23047l-7.02344.10938m7.02344-.10938l1.1875 2.14844m-2.20703-2.13281l.58984 1.07422m13.57813-2.10938L313.75 334.9336m6.6914-2.14453l1.75782 1.71485m-2.73047-1.40235l1.75781 1.71094m-2.73047-1.39844l.87891.85547m14.49219-1.03125l-6.91406 1.25m6.91406-1.25l1.51953 1.92578m-2.52344-1.7461l1.51953 1.92579m12.83203-1.05078l-6.97656-.85938m6.97656.85938l.87891 2.28906m-1.89453-2.41406l.4375 1.14453m13.82812-.66797l-6.84765-1.5625m6.84765 1.5625l.64454 2.36719m-1.64063-2.59375l.64453 2.36719m13.72656-2.44922l-6.96484-.94531m6.96484.9453l.84766 2.30079m-1.86328-2.4375l.85156 2.30078m-1.86328-2.4414l.42578 1.15234m14.94531-1.34766h-7.02734m7.02734 0l1.15235 2.16797m-2.17188-2.16797l1.14844 2.16797m13.17188-1.83203l-6.9961-.67188m6.9961.67188l.9375 2.26953m-1.95704-2.36719l.94141 2.26953m13.41016-2.45703l-7.02735-.10156m7.02735.10156l1.12109 2.17969m-2.14453-2.19531l1.1211 2.1836m-2.14454-2.19923l.5625 1.09375m14.79297-1.30078l-7.01563.3711m7.01563-.3711l1.26563 2.10547m-2.28516-2.05078l1.26172 2.10547m-2.28516-2.05078l.63281 1.05078m14.69532-1.45703l-6.95704.96875m6.95704-.96875l1.4414 1.98437m-2.45312-1.84375l1.4414 1.98438m-2.45312-1.84375l.71875.99218m14.55469-1.6289l-6.82422 1.67969m6.82422-1.6797l1.6328 1.83204m-2.6289-1.58594l1.63672 1.82813m-2.6289-1.58594l1.63671 1.82812m13.4922-2.83593l-6.48048 2.71875"/><g clip-path="url(#Z)"><path fill="none" stroke="#000" stroke-linecap="round" stroke-linejoin="round" stroke-miterlimit="10" stroke-width=".5" d="M466.80078 332.5039l1.90235 1.5547"/></g><g clip-path="url(#aa)"><path fill="none" stroke="#000" stroke-linecap="round" stroke-linejoin="round" stroke-miterlimit="10" stroke-width=".5" d="M465.85938 332.89844l1.89843 1.55469"/></g><path fill="none" stroke="#000" stroke-linecap="round" stroke-linejoin="round" stroke-miterlimit="10" stroke-width=".5" d="M464.91797 333.29688l.94922.77343"/><g clip-path="url(#ab)"><path fill="none" stroke="#000" stroke-linecap="round" stroke-linejoin="round" stroke-miterlimit="10" stroke-width=".5" d="M147.26172 321.85156l-6.52344-2.60547"/></g><path fill="none" stroke="#000" stroke-linecap="round" stroke-linejoin="round" stroke-miterlimit="10" stroke-width=".5" d="M147.26172 321.85156l.26562 2.4375m-1.21484-2.8164l.26563 2.4375m13.90234-1.83594l-6.32813-3.05469m6.32813 3.05469l.09375 2.45312m-1.01563-2.89453l.09375 2.44922m-1.01562-2.89453l.09766 2.44922m15.28125-2.14844l-6.76954-1.88281m6.76953 1.88281l.52735 2.39844m-1.51172-2.67188l.52734 2.39454m-1.51172-2.66797l.52735 2.39453m14.8711-3.10156l-7 .625m7-.625l1.33984 2.05859m-2.35938-1.96485l1.33984 2.0547m-2.35937-1.96485l.67188 1.02734m14.35546-2.40234l-6.34765 3.01172m6.34765-3.01172l1.96875 1.46094m-2.89062-1.02344l1.96875 1.46484m-2.89453-1.02734l.98437.73047m13.76563-2.27344l-5.51953 4.34766m5.51953-4.34766l2.2461.98828m-3.05079-.35547l2.2461.98828m-3.04688-.35546l1.1211.49218m13.65234-1.9336l-5.22657 4.69923m5.22657-4.69922l2.30468.83984m-3.0664-.15625l2.30469.83985m12-1.2422l-5.6836 4.13282m5.6836-4.13281l2.20703 1.07422m-3.03516-.47266l2.20703 1.07422m12.10938-1.41016l-6.03125 3.60547m6.03125-3.60547l2.10156 1.26954m-2.97656-.7461l2.09765 1.26953m12.29297-1.40625l-6.42969 2.83203m6.4297-2.83203l1.92577 1.51953m11.5625.82422l-6.77734-1.85547m6.77734 1.85547l.53907 2.39453m12.45703-1.60937l-6.13672-3.42578m6.13672 3.42578l-.05078 2.45312m-.84375-2.95312l-.05079 2.45312m14.69532-3.42578l-7.00782-.48047m7.00782.48047l1 2.23828m-2.01953-2.30859l1 2.23828m13.3203-2.79687l-6.98046.77734m6.98047-.77734l1.38672 2.02734m-2.40235-1.91406l1.38672 2.02734m-2.40234-1.91406l.6914 1.01172m14.5586-1.75781l-6.78906 1.8164m6.78906-1.8164l1.67187 1.79296m-2.66015-1.53125l1.67578 1.79688m12.6914-1.78516l-6.91406 1.26563m6.91406-1.26563l1.51954 1.92578m-2.52735-1.73828l1.52344 1.92188m12.80078-.85938l-6.91797-1.23437m6.91797 1.23437l.7539 2.33594m12.61329-3.05469l-7.02344.20703m7.02344-.20703l1.21484 2.13281m-2.23437-2.10156l.60547 1.0625m13.6289-1.82812l-6.82422 1.67187m6.82422-1.67187l1.63672 1.83203m-2.6289-1.58594l1.63671 1.82813m12.76563-1.47657l-7.01172.48047m7.01172-.48047l1.29687 2.08204m-2.3164-2.01563l.64843 1.04297m13.59375-.03516l-6.82812-1.67187m5.83594 1.42969l.30078 1.1875m13.1914.58593l-5.1953-4.73047m4.4375 4.04297l-.30079 1.1875m14.98438-4.29687l-6.41797 2.85937m5.48437-2.4414l.96875.7539m13.38672-.89844l-6.63281 2.3125m6.63281-2.3125l1.80078 1.66797m-2.76562-1.33203l1.80078 1.66797m12.04687-2.85547l-5.76562 4.01563"/><g clip-path="url(#ac)"><path fill="none" stroke="#000" stroke-linecap="round" stroke-linejoin="round" stroke-miterlimit="10" stroke-width=".5" d="M466.44531 318.53906l2.1836 1.1211"/></g><g clip-path="url(#ad)"><path fill="none" stroke="#000" stroke-linecap="round" stroke-linejoin="round" stroke-miterlimit="10" stroke-width=".5" d="M465.60547 319.125l2.1836 1.1211"/></g><path fill="none" stroke="#000" stroke-linecap="round" stroke-linejoin="round" stroke-miterlimit="10" stroke-width=".5" d="M464.76563 319.70703l1.09375.5625"/><path fill="#00f" fill-rule="evenodd" d="M255.08984 476.52344h8.6172V466.3789h-8.6172v10.14453"/><path fill="azure" fill-rule="evenodd" d="M256.92188 468.21094h.83203v2.82422h3.28515v-2.82422h.83594v6.48047h-.83594v-2.91407h-3.28515v2.91407h-.83204v-6.48047"/><path fill="#00f" fill-rule="evenodd" d="M170.75781 472.08594h8.6211V461.9414h-8.6211v10.14453"/><path fill="azure" fill-rule="evenodd" d="M172.59375 463.77344h.83203v2.82422h3.28516v-2.82422h.83203v6.48047h-.83203v-2.91797h-3.28516v2.91797h-.83203v-6.48047"/><path fill="#ff3030" fill-rule="evenodd" d="M446.63281 449.89453h7.6914V439.75h-7.6914v10.14453"/><path fill="azure" fill-rule="evenodd" d="M448.46484 441.58203h.83204v5.73828h3.1953v.74219h-4.02734v-6.48047"/><path fill="#ff3030" fill-rule="evenodd" d="M331.23438 445.45703h7.6914V435.3125h-7.6914v10.14453"/><path fill="azure" fill-rule="evenodd" d="M333.0664 437.14453h.83594v5.73828h3.19141v.74219h-4.02734v-6.48047"/><path fill="#00f" fill-rule="evenodd" d="M388.23828 436.57813h8.61719v-10.14454h-8.61719v10.14454"/><path fill="azure" fill-rule="evenodd" d="M390.07031 428.26563h.83594v2.82421h3.28516v-2.82421h.83203v6.48046h-.83203v-2.91406h-3.28516v2.91406h-.83594v-6.48046"/><path fill="#00f" fill-rule="evenodd" d="M224.01953 414.38672h8.61719v-10.14453h-8.61719v10.14453"/><path fill="azure" fill-rule="evenodd" d="M225.85156 406.07422h.83594v2.82422h3.28516v-2.82422h.83203v6.48047h-.83203v-2.91406h-3.28516v2.91406h-.83594v-6.48047"/><path fill="#ff3030" fill-rule="evenodd" d="M291.28906 409.94922h7.6914v-10.14453h-7.6914v10.14453"/><path fill="azure" fill-rule="evenodd" d="M293.1211 401.63672h.83593v5.73828h3.1914v.74219h-4.02734v-6.48047"/><path fill="#00f" fill-rule="evenodd" d="M370.48438 401.07422h8.62109v-10.14844h-8.6211v10.14844"/><path fill="azure" fill-rule="evenodd" d="M372.3164 392.76172h.83594v2.82031h3.28516v-2.82031h.83203v6.47656h-.83203v-2.91406h-3.28516v2.91406h-.83593v-6.47656"/><path fill="#ff3030" fill-rule="evenodd" d="M433.3164 392.19531h7.69141v-10.14453h-7.6914v10.14453"/><path fill="azure" fill-rule="evenodd" d="M435.14844 383.88281h.83594v5.73828h3.1914v.7422h-4.02734v-6.48048"/><path fill="#ff3030" fill-rule="evenodd" d="M171.45313 370.0039h7.6914v-10.14452h-7.6914v10.14453"/><path fill="azure" fill-rule="evenodd" d="M173.28516 361.6914h.83593v5.73829h3.19141v.74219h-4.02734v-6.48047"/><path fill="#ffffe0" fill-rule="evenodd" d="M350.6211 384.13672h22.17968V373.9414H350.6211v10.1953"/><path fill-rule="evenodd" d="M354.1211 375.77734h.5078v6.29297h-.78515v-4.48828h-1.39063v-.55469l.5586-.0664.2539-.05469.23047-.08984.20313-.14063.17187-.21094.14454-.29296.10546-.39454m4.8125 0l.23047.01954.21875.05468.20703.08985.19532.12109.18359.14844.17188.17578.30468.41797.24219.4961.17969.54687.10937.57812.03906.58985-.03906.59375-.10937.58203-.17969.55468-.24219.50391-.30469.42578-.17187.17969-.1836.15625-.1953.1211-.20704.09374-.21875.05469-.23047.01953-.23046-.01953-.21875-.05469-.20704-.09375-.1953-.1211-.1836-.15624-.17188-.17969-.30469-.42578-.24218-.5039-.17969-.5547-.10938-.58202-.03906-.59375h.83203l.03125.5625.07813.5078.1289.44141.16016.375.1914.30079.21094.22265.22266.13672.22656.04688.22657-.04688.22265-.13672.21094-.22265.1914-.30079.16016-.375.1289-.4414.08204-.50781.02734-.5625-.02734-.5625-.08203-.5-.1289-.4336-.16016-.36719-.19141-.29296-.21094-.21094-.22265-.13281-.22657-.04688-.22656.04688-.22265.1328-.21094.21094-.1914.29297-.16017.3672-.1289.43358-.07813.5-.03125.5625h-.83203l.03906-.58984.10938-.57812.17969-.54688.24219-.4961.30468-.41796.17188-.17578.1836-.14844.1953-.1211.20704-.08984.21875-.05469.23046-.01953m5.08985 0h.51172v6.29297h-.78907v-4.48828h-1.38671v-.55469l.55859-.0664.2539-.05469.22657-.08984.20703-.14063.17187-.21094.14063-.29296.10547-.39454m2.82422 2.17579h.78906l.01953-.31641.0586-.28906.09765-.25.14063-.21485.18359-.17578.22265-.1289.26563-.08204.30469-.02734.23828.02344.22656.0625.20313.10156.17968.13672.14844.17578.11328.20313.07031.23828.02735.26171-.02344.26954-.0664.22656-.10938.1914-.15625.17188-.19922.16016-.2461.16796-.63671.38672-.53516.3125-.4375.32032-.34765.32421-.26563.33594-.1875.34766-.125.3711-.07031.39452-.01953.41797h4.21094v-.73828h-3.33204l.08204-.28515.11328-.23829.14843-.19921.1875-.1836.23047-.16797.27735-.17578.71875-.41797.41406-.20703.34765-.23047.28125-.25.21875-.26562.16407-.28125.10937-.28125.0664-.28516.01954-.28125-.04297-.38281-.1211-.34766-.1875-.3086-.25-.26562-.30468-.21093-.34375-.15625-.3789-.10157-.41016-.03125-.4336.03125-.39843.09766-.35547.16797-.30469.23437-.2461.3047-.1875.375-.11327.4453-.04297.51954"/><path fill="#ffffe0" fill-rule="evenodd" d="M243.09766 379.11328h22.17968v-10.1914h-22.17968v10.1914"/><path fill-rule="evenodd" d="M246.59766 370.7539h.5078v6.29298h-.78515v-4.48829h-1.38672v-.55468l.5586-.06641.25-.05469.23047-.08984.20312-.14063.17578-.21093.14063-.29297.10547-.39453m4.8125 0l.23047.01953.21875.05469.20703.08984.19922.1211.18359.14843.17187.17578.30078.42188.2422.49218.17968.54688.11328.57812.03906.58985-.03906.59375-.11328.58594-.17969.55468-.24219.5-.30078.42969-.17187.17969-.1836.15234-.19921.1211-.20703.09375-.21875.05859-.23047.01953-.22657-.01953-.21875-.0586-.21093-.09375-.19532-.12109-.18359-.15234-.17188-.17969-.30078-.42969-.24218-.5-.1797-.55469-.11327-.58593-.03906-.59375h.83203l.03125.5625.08203.50781.125.4414.16406.375.1875.30079.21094.22265.22265.13672.22657.04688.22656-.04688.22266-.13672.21093-.22265.1914-.30078.16407-.375.125-.44141.08203-.50781.02735-.5625-.02735-.5586-.08203-.5-.125-.4375-.16406-.36718-.1914-.28907-.21095-.21484-.22265-.13281-.22656-.04297-.22657.04297-.22265.13281-.21094.21484-.1875.28907-.16406.36718-.125.4375-.08203.5-.03125.5586h-.83203l.03906-.58985.11328-.57812.17969-.54688.24218-.49218.30078-.42188.17188-.17578.1836-.14844.1953-.1211.21094-.08983.21875-.0547.22657-.01952m5.09375 0h.5078v6.29296h-.78515v-4.48828h-1.39062v-.55468l.5625-.06641.25-.05469.23047-.08984.20312-.14063.17188-.21093.14453-.29297.10547-.39453m2.82421 2.17578h.78516l.01953-.3164.0586-.28517.10156-.2539.13672-.21485.1836-.17578.22265-.1289.26562-.07813.3086-.02734.23828.01953.22265.0625.20313.10156.17969.14063.14843.17187.11329.20703.0703.23438.02735.26562-.02344.26954-.0664.22265-.10938.1914-.15234.17188-.20313.16406-.24609.16407-.63281.39062-.53906.3125-.4375.3164-.34766.32423-.26172.33594-.1914.35156-.125.36719-.07032.39453-.01953.41796h4.21094v-.73828h-3.33203l.08203-.28515.11719-.23828.14453-.19922.1875-.17969.23437-.17188.27735-.17578.71484-.41796.41797-.20313.34375-.23047.28125-.2539.21875-.26563.16406-.27734.11328-.28516.0625-.28516.01953-.28125-.04297-.3828-.11718-.34767-.19141-.30859-.25-.26172-.30078-.21484-.34766-.15625-.3789-.09766-.40625-.03515-.4375.03125-.39454.10156-.35546.16406-.3047.23438-.25.30468-.18358.375-.1172.44532-.03906.51953"/><path fill="#ffffe0" fill-rule="evenodd" d="M186.70313 370.23438h22.17968v-10.19141h-22.17969v10.1914"/><path fill-rule="evenodd" d="M190.20313 361.875h.5078v6.29688h-.78515v-4.48829h-1.39062v-.55859l.5625-.0625.25-.05469.23047-.08984.20312-.14063.17578-.21093.14063-.29297.10547-.39844m4.8125 0l.23046.01953.21875.0586.20703.08593.19922.1211.1836.15234.17187.17578.30078.41797.2422.49219.17968.54687.11328.58203.03516.58985-.03516.59375-.11328.58203-.17969.55469-.24219.5039-.30078.42578-.17187.1797-.1836.15233-.19922.125-.20703.09375-.21875.0547-.23047.01952-.22656-.01953-.21875-.05469-.21094-.09375-.1953-.125-.1836-.15234-.17188-.17969-.30078-.42578-.2461-.5039-.17968-.5547-.10937-.58202-.03907-.59375h.83203l.03125.5625.08204.50781.125.4414.16406.375.1875.30079.21094.21875.22265.13672.22656.04687.22657-.04687.22265-.13672.21094-.21875.1914-.30078.16407-.375.125-.44141.08203-.50781.02734-.5625-.02734-.5625-.08203-.5-.125-.4336-.16406-.36718-.1914-.29297-.21095-.21485-.22265-.1289-.22656-.04688-.22657.04688-.22265.1289-.21094.21485-.1875.29297-.16406.36718-.125.4336-.08203.5-.03125.5625h-.83204l.03907-.58985.10937-.58203.17969-.54687.2461-.49219.30077-.41797.17188-.17578.1836-.15234.1953-.1211.21094-.08594.21875-.05859.22656-.01953m5.09375 0h.50782v6.29688h-.78516v-4.48829h-1.39062v-.55859l.55859-.0625.2539-.05469.23048-.08984.20312-.14063.17188-.21093.14453-.29297.10547-.39844m2.8203 2.17578h.78907l.01953-.3164.0586-.28516.10156-.2539.13672-.21485.18359-.17188.22266-.1289.26562-.08203.3086-.02735.23828.02344.22265.0625.20313.10156.17969.13672.14843.17188.11328.20703.07032.23828.02734.26172-.02344.26953-.0664.22656-.10938.1914-.15625.16798-.19922.16406-.2461.16797-.63671.38672-.53516.3125-.4375.3164-.34765.32422-.26172.33594-.1914.35156-.125.3711-.07032.39453-.01953.41796h4.21094v-.74218h-3.33203l.08203-.28125.11328-.23828.14844-.20313.1875-.17969.23046-.17187.28125-.17578.71485-.41406.41797-.20704.34375-.23046.28125-.25.21875-.26954.16406-.27734.11328-.28125.0625-.28516.01953-.28125-.04297-.38671-.11719-.34766-.1914-.30469-.25-.26562-.30078-.21094-.34766-.16016-.3789-.09765-.40625-.03516-.4375.03516-.39844.09765-.35156.16797-.3047.23438-.25.30078-.1875.375-.11327.44922-.04297.51562"/><path fill="#ffffe0" fill-rule="evenodd" d="M403.88281 476.74219h22.17969v-10.1914h-22.17969v10.1914"/><path fill-rule="evenodd" d="M407.3789 468.38281h.51173v6.29688h-.78907v-4.49219h-1.38672v-.55469l.5586-.0625.2539-.05469.22657-.08984.20312-.14062.17578-.21094.14063-.29297.10547-.39844m4.8164 0l.22656.01953.21875.0547.21094.08983.19531.1211.1836.15234.17187.17578.30079.41797.24609.49219.17969.54688.10937.57812.03906.59375-.03906.59375-.10937.58203-.1797.55469-.24608.5-.30079.42969-.17187.17968-.1836.15235-.1953.125-.21094.08984-.21875.0586-.22657.01953-.23047-.01954-.21875-.05859-.20703-.08984-.19922-.125-.18359-.15235-.17188-.17968-.30078-.4297-.24218-.5-.1797-.55468-.11327-.58203-.03906-.59375h.83593l.02735.5625.08203.5039.125.44532.16406.375.1914.30078.21094.21875.22266.13672.22656.04687.22656-.04687.22266-.13672.21094-.21875.1875-.30078.16406-.375.125-.44531.08203-.50391.03125-.5625-.03125-.5625-.08203-.5-.125-.4375-.16406-.36328-.1875-.29297-.21094-.21484-.22265-.12891-.22657-.04688-.22656.04688-.22266.1289-.21093.21485-.19141.29297-.16406.36328-.125.4375-.08203.5-.02735.5625h-.83594l.03907-.59375.11328-.57813.17969-.54687.24218-.49219.30079-.41797.17187-.17578.1836-.15234.19921-.1211.20703-.08984.21875-.05469.23047-.01953m5.08985 0h.5078v6.29688h-.78515v-4.49219h-1.38672v-.55469l.5586-.0625.25-.05469.23047-.08984.20312-.14062.17578-.21094.14063-.29297.10547-.39844m2.82421 2.17578h.78516l.01953-.3164.0625-.28516.09766-.2539.14062-.21485.1797-.17187.22265-.12891.26562-.08203.3086-.02735.23828.01954.22265.0664.20313.10156.17969.13672.14843.17188.11329.20703.07421.23438.02344.26562-.01953.26953-.0664.22266-.10938.1914-.15625.17188-.20313.16406-.24609.16406-.63281.39063-.53906.3125-.4375.3164-.34375.32422-.26563.33594-.1914.35156-.125.3711-.06641.39062-.02344.42188h4.21484v-.74219h-3.33593l.08593-.28516.11329-.23437.14843-.20313.1875-.17968.23047-.17188.27735-.17578.71875-.41406.41406-.20703.34765-.23047.27735-.25.22265-.26953.16016-.27735.11328-.28515.0625-.28516.01953-.28125-.03906-.38281-.1211-.34766-.1914-.3086-.25-.26171-.30078-.21094-.34375-.16015-.38281-.09766-.40625-.03516-.4336.03516-.39844.09765-.35546.16797-.3047.23438-.25.30078-.18358.375-.1172.44531-.03906.51953"/><path fill="#ffffe0" fill-rule="evenodd" d="M217.46875 436.16406h22.17969v-10.1914h-22.17969v10.1914"/><path fill-rule="evenodd" d="M220.96875 427.80469h.50781v6.29687h-.78515v-4.49219h-1.38672v-.55468l.5586-.0664.25-.05079.23046-.08984.20313-.14063.17578-.21094.14062-.29687.10547-.39453m4.8125 0l.23047.01953.21875.05469.20703.08984.19922.1211.1836.14843.17187.17578.30078.42188.24219.49219.17968.54687.11328.57813.03907.59375-.03906.58984-.11329.58594-.17968.55468-.2422.5-.30077.4297-.17188.17968-.1836.15234-.19921.125-.20703.08985-.21875.05859-.23047.01953-.22656-.01953-.21875-.0586-.21094-.08984-.19531-.125-.1836-.15234-.17187-.17969-.30078-.42969-.24219-.5-.17969-.55468-.11328-.58594-.03906-.58985h.83594l.02734.5625.08203.50391.125.44531.16406.3711.19141.30078.20703.22265.22266.13672.22656.04688.22656-.04688.22266-.13671.21094-.22266.1914-.30078.16406-.3711.125-.4453.08204-.50392.02734-.5625-.02734-.5625-.08203-.5-.125-.4375-.16407-.36328-.1914-.29296-.21094-.21485-.22266-.13281-.22656-.04297-.22656.04297-.22266.13281-.20703.21485-.1914.29296-.16407.36329-.125.4375-.08203.5-.02734.5625h-.83594l.03906-.59375.11328-.57813.17969-.54688.24219-.49218.30078-.42188.17187-.17578.1836-.14844.19531-.12109.21094-.08984.21875-.0547.22656-.01952m5.09375 0h.50781v6.29687h-.78515v-4.49219h-1.39063v-.55468l.5625-.0664.25-.05079.23047-.08984.20313-.14063.17578-.21094.14062-.29687.10547-.39453m2.82422 2.17578h.78516l.01953-.3164.05859-.28516.10156-.25391.14063-.21484.17969-.17188.22265-.1289.26563-.08204.30859-.02734.23828.01953.22266.0625.20312.10156.17969.14063.14844.17187.11328.20704.07422.23437.02344.26563-.02344.26953-.0625.22265-.11328.1914-.15235.17188-.20312.16407-.2461.16406-.6328.39062-.53907.3125-.4375.31641-.34766.32422-.26172.33594-.1914.35156-.125.3711-.07031.39062-.01954.42187h4.21094v-.74219h-3.33203l.08594-.28515.11328-.23438.14844-.20312.1875-.17969.23047-.17187.27734-.17579.71875-.41406.41406-.20703.34375-.23047.28125-.25.21875-.26953.16406-.27734.11328-.28516.0625-.28515.01954-.28125-.03907-.38282-.12109-.34765-.1914-.3086-.25-.26172-.30079-.21093-.34765-.16016-.37891-.09766-.40625-.03515-.4336.03515-.39843.09766-.35547.16406-.30469.23438-.25.30469-.1836.375-.11718.4453-.03906.51954"/></g></defs><use xlink:href="#ae"/></svg>