<svg xmlns="http://www.w3.org/2000/svg" role="img" xmlns:xlink="http://www.w3.org/1999/xlink" viewBox="196.98 327.23 256.03 147.78"><defs><clipPath id="a"><path d="M144 311.67188h1v168.65625h-1zm0 0"/></clipPath><clipPath id="b"><path d="M144 311.67188h324v168.65625H144zm0 0"/></clipPath><clipPath id="c"><path d="M467 311.67188h1v168.65625h-1zm0 0"/></clipPath><clipPath><path d="M144 478h4v2.32813h-4zm0 0"/></clipPath><clipPath><path d="M153 478h8v2.32813h-8zm0 0"/></clipPath><clipPath><path d="M167 477h7v3.32813h-7zm0 0"/></clipPath><clipPath><path d="M181 477h6v3.32813h-6zm0 0"/></clipPath><clipPath><path d="M194 477h7v3.32813h-7zm0 0"/></clipPath><clipPath><path d="M207 477h7v3.32813h-7zm0 0"/></clipPath><clipPath><path d="M221 477h6v3.32813h-6zm0 0"/></clipPath><clipPath><path d="M234 477h6v3.32813h-6zm0 0"/></clipPath><clipPath><path d="M249 476h3v4.32813h-3zm0 0"/></clipPath><clipPath><path d="M262 476h4v4.32813h-4zm0 0"/></clipPath><clipPath><path d="M274 477h7v3.32813h-7zm0 0"/></clipPath><clipPath><path d="M286 479h9v1.32813h-9zm0 0"/></clipPath><clipPath><path d="M287 479h2v1.32813h-2zm0 0"/></clipPath><clipPath><path d="M300 478h8v2.32813h-8zm0 0"/></clipPath><clipPath><path d="M300 480h2v.32813h-2zm0 0"/></clipPath><clipPath><path d="M313 478h8v2.32813h-8zm0 0"/></clipPath><clipPath><path d="M313 480h3v.32813h-3zm0 0"/></clipPath><clipPath><path d="M327 478h7v2.32813h-7zm0 0"/></clipPath><clipPath><path d="M326 480h3v.32813h-3zm0 0"/></clipPath><clipPath><path d="M340 478h8v2.32813h-8zm0 0"/></clipPath><clipPath><path d="M353 478h8v2.32813h-8zm0 0"/></clipPath><clipPath><path d="M353 480h2v.32813h-2zm0 0"/></clipPath><clipPath><path d="M366 478h8v2.32813h-8zm0 0"/></clipPath><clipPath><path d="M366 480h3v.32813h-3zm0 0"/></clipPath><clipPath><path d="M380 479h8v1.32813h-8zm0 0"/></clipPath><clipPath><path d="M380 479h2v1.32813h-2zm0 0"/></clipPath><clipPath><path d="M394 477h6v3.32813h-6zm0 0"/></clipPath><clipPath><path d="M408 476h4v4.32813h-4zm0 0"/></clipPath><clipPath><path d="M419 479h9v1.32813h-9zm0 0"/></clipPath><clipPath><path d="M420 478h2v2.32813h-2zm0 0"/></clipPath><clipPath><path d="M433 479h8v1.32813h-8zm0 0"/></clipPath><clipPath><path d="M433 479h2v1.32813h-2zm0 0"/></clipPath><clipPath><path d="M446 479h8v1.32813h-8zm0 0"/></clipPath><clipPath><path d="M447 478h2v2.32813h-2zm0 0"/></clipPath><clipPath><path d="M460 478h8v2.32813h-8zm0 0"/></clipPath><clipPath><path d="M144 465h4v4h-4zm0 0"/></clipPath><clipPath><path d="M144 451h3v6h-3zm0 0"/></clipPath><clipPath><path d="M144 437h3v7h-3zm0 0"/></clipPath><clipPath><path d="M144 423h3v8h-3zm0 0"/></clipPath><clipPath><path d="M144 410h3v7h-3zm0 0"/></clipPath><clipPath><path d="M144 399h4v3h-4zm0 0"/></clipPath><clipPath><path d="M144 383h2v8h-2zm0 0"/></clipPath><clipPath><path d="M144 371h3v6h-3zm0 0"/></clipPath><clipPath><path d="M144 360h4v1h-4zm0 0"/></clipPath><clipPath><path d="M466 358h2v3h-2zm0 0"/></clipPath><clipPath><path d="M144 344h3v6h-3zm0 0"/></clipPath><clipPath><path d="M466 346h2v3h-2zm0 0"/></clipPath><clipPath><path d="M144 333h4v2h-4zm0 0"/></clipPath><clipPath><path d="M466 331h2v3h-2zm0 0"/></clipPath><clipPath><path d="M144 318h4v5h-4zm0 0"/></clipPath><clipPath><path d="M465 317h3v2h-3zm0 0"/></clipPath><g id="d" clip-path="url(#clip1)"><path fill="#fff" fill-opacity="0" fill-rule="evenodd" d="M-.0039-.0039h1000v1000h-1000zm0 0"/><path fill="#d3d3d3" fill-opacity="0" fill-rule="evenodd" d="M162.14844 355.86328l-.23438.29297.0586.23438.11718.17187.17578.23438.29297.34765.11328.0586.1172-.17188.05859-.23438.17578-.17578.46484-.17578h.69922l.23438.29297.28906.8164.0586.17579.17577.23047.35156.23437.69922.69922.17188.17578.23437.34766.23438.41015.28906.58204.41016.46484.23047.23438.23437.17578.11719.23046.17578.29297.17188 1.16407v.23437l.05859.28906.0586.1172.11718.11718.34766.41015.11718.17188.17578.17578.17579.23438.11718.17187.17188.35156.0586.23438.23437.40625.23437-.0586-.17578.17579-.0586.92968h-.58202l-.23438-.11328-.34766.11328-.11718.1172-.0586.29296-.05859.17578-.11719.17188-.46484.29296-.0586.23438-.05859.11328v.64453l.0586.17188v.41015l.05859.0586v.40625l.0586.40625.11718.17578.0586.0586.23046.64062-.0586.29297v.69921l-.05858.58204v.23437l-.0586.23047-.05469.35156v1.92188l.0547.11719h.42577l-.36719.11718-.02343.35156.89062 1.16797 1.74219.53907 1.33984.35937v.53906l.08985.8086.53515.71484 1.51953.26953.89063-.08594.08984 1.16407.53516.17969 1.16016-.1797 2.05468-.98437 1.16016-.36328 1.8789-.17578 1.69532-.17969-.17969.71875-1.51562.08594-1.25.08984-.8047.26954-1.07421.80859.26953.71875.53516.89844-.17969.625-.26563.80859.26563 1.07813.625.89843.80469.17969 1.25-.17969-.26563.72266.09766.5039.05469.29297v.17188l.05859.29297v.40625l.17578.11719.35156.11718h.40625l.29297-.17578.11328-.11719.0586-.11718.11719-.23047.05859-.17578.35156-.46485.23047-.17578.17578-.0586.17578.0586.0586.17578.11718.98828.0547.46875.05858.17188.1172.23437.17577.0586.81641.0586h.28906l.11719.23437.0586.40625.05859.35156v1.10547l.11719.29297.11718.34765.28906.69922.17579.35156.58203.75391.35156.17578.17188.0586.46875.23437.64062.46484.34766.23438.29297.17578.29296.05469.23047.0625.8164.34765.29298.17579.11328.17187.35156.35156.11719.17578.52344.64063v.28906l.05859.35156v.34766l.0586.35156.05859.28906.11719.0586.17187.0586h.17578l.58203.23437.17578.11719.17578.28906.17579.23437.11328.23438.29297.23047.11718.11718v.41016l.0586.05469.28906.23437.23438.11719.05859.11719.11719.17187.05859.11719.23047.23438.0586.17578.23437.05859.11719.0586-.1172.11327-.05859.1172v.11718l-.11718.29297-.1172.28906v.58203l.17579.11719.11719.0586.0586.11718.11718.11719.11328.0586.17578.34765.0586.35156.05859.40625v.17578l-.0586.17578-.11718.69922v.17188l.11719.17578.29296.29297h.40625l.17578.11719.1172.17187.11718.29297v.23437h-.52734l-.23047-.23437h-.23438l-.17578.0586-.0586.69921.0586.34766.11719.17578.17578.41015.11719.23047.28906.46875.17578.0547h.52344l.23437.05858.75782.64063.05859.29297v.23437l.0586.0586.23046.34765v.35157l-.11719.17187v.29297l.29297.28906.29297.17578.17188.0586.29297.17578.29297.11719.58203.40625.28906.23437.29297.17578.21875.16016.01562.01172.23047.17578.64063.52344.17578.23437.11719.17578.17578.17578.11328.17188v.64062l.11719.17579.46875.11718.58203.11719.23437.0586.23047.11327.29297.1172.11328.05859.58594.35156.28906.17187.17578.0625.17578.0547.17578.05858.69922.35157.28906.17578.23438.05469.28906.17578.23438.11719.64062.40625.29297.11718.17188.0586.23437.05859.41016.0586.23047.05859.23437.11719.0586.17187-.41016.17578.46875.0586.0586.29296.11327.23438.17578.05469.23438.05859.17578.0586.40625.11718.64063.23438.11718.17187.0586.23438v.17578l-.0586.11719-.05859.40625.23438.23437.11718.0586.34766.11718.64062.23047.17578.11719.28907.11719.17578.17578.23437.46484.58203 1.10547.17579.17578.34765.17578.17578.11719.35157.11719 1.04687.52343.23438.0586.46484.11328.29297.0586.46484.17577.75781.58204.23438.23437.34766.46484.17578.17579.28906.23437.8164.69922.29298.17578.28906.28906.29297.17578.29297.28907.6953.64062.17579.17578.29297.23438.28906.23437.46875.28906.64063.58204.34765.23437.23438.29297.34765.34766.35156.46484.9336.99219.34766.40625.11718.17578.23438.0586.11328.11718.64453.17578.23047.11328.23437.0586.29297.17578.23047.11719.9336.69921.40625.40625.23437.17579.40625.17578.23438.11718.8164.34766.34766.23438.23437.11718.29297.28906.23047.1172.75781.35156.35156.17187.23047.0586.29297.11718.23438.0586.8711.17578h.8164l.46875.23046.17187.0586.875.69922.46485.11719.29297.05859.17578.0586.23047.05859.46875.05859.34765.0586.35156.05859.40625.0586h.29297l.17188.05858v.23047l.17578.17579h.29297l.34765.05859.35157.0586.69922.11718h.64062l.46484-.23438.29297-.17578.17188-.11718.41015-.17188.28907-.17578.93359-.46484.46875-.29297.52344-.29297.46484-.17188.46484-.17578 1.05079-.46484.28906-.11719.41016-.11719.28906-.11718.52734-.17579 1.51563-.69921.58203-.34766.28906-.0586.29297-.05859.34766-.11719.875-.23046.35156-.1172h.11328l.23437-.05858.875-.23438.23438-.0586h.8125l.35156-.05859.8164-.11719.17188-.05859.35156-.05469.29297-.05859.23047-.0586.8164-.17577.17579-.0586h.34766l.23437-.0586.46485-.11718.7578-.17188.23438-.05859h.34766l.41015-.11719.28907-.05859 1.28515-.0586h.28907l.41015-.05859.23047-.0586h.17578l.875-.11718h.40625l.41016-.11719h.34765l.35157-.11328.8711-.0586h1.75l1.04687.28907.41015.11719.28906.11719.35157.11718.28906.1172 1.05078.17187.28906.05859h.29297l.29297.0586.17188.05859.41015.0586.17188.05858.11719.0586h.11718l.11719.0586.35156.05859h.11328l.41016.0664 1.92188.39453 1.92578.39454 1.51953.44921 1.69531.71875 2.14453.8047 1.60547-.71876 1.42969-.80469 1.16015-1.07812 1.25-.44922 3.03516-.71875 1.875-.35938 2.14453-1.34765 2.23438-1.2539 2.5-1.25782 1.6953-.44922 1.78517-.17969 1.16015-.26953.625.53906 1.33985-.26953.71484-.98828.98437-1.34375.44532-.17969.80468-.35937 1.875-.53906 1.78516-.44922 1.25-.26953 1.16016-.08985 1.69921-.08984 1.96094-.26953 1.25-.08985h.53906l.625-.08984h.89063l2.14453-.17969 2.41016-.17968 2.58984-.08985 1.69531.17969 1.60938.08984 1.42969.35938 1.16015.71875 1.875.98828 1.16016 1.52734.26562.71485.62891.08984.35547.89844.53515.53906.53516 1.52735 1.07422.35937h.53516l-.8047.53516.08985 1.70703.71485 2.69531.89062.80469.89453.98828.71485 1.25781 1.78515.53906 1.51953-.17968.35547 1.34375 1.60938-.8047.98047-.53905.26953.26953.3164-.21485.21875-.14453.80079.44922.44921-.35937h.35547l.53516-.26954.53906-.71875.53516-.26953.625-.98828 1.16015.44922.83985.3711 1.39453.61718 1.69531-.17969h1.60547l1.78516.08985.17968-1.70703.53516-1.34375.80469.26953.49219.84765.40234.40625-.08985.53907v.35937l.71485.44922.71094-.26953h1.42968l.35938.98828.44531 1.25781.71485 1.34375 1.25.62891 1.6953.6289.71485-.17968.17969-.53906.98047-.08985.44922.35938.08593 1.25781-.26562.6289-.53516.1797v.53906l.71485.98437.26562.53906.98438.98829.80078 1.07812-.26563.35938-.08984.89843-.625 2.33203-.35547 2.06641-.08984 1.79297-.1797.71875-.08983.53906v1.4375l-.98047 1.88281-.35938 1.70704-.53515.89843-.8047 1.16797-.26562.53906 2.05469 1.25391.08594.35938-.35547.53906-.08985-.17969v.8086l.08985 1.4375-.44531.71484-1.07422.09375-.26563.71484.53516.89844.80469.71875 1.16015.8086 1.33985.26952.4453.35938-.35546.44922-1.78906-.08985-1.25-.44921-.71485-.71875-.625-.08985-.17578 3.58985-.1875 1.30859h89.35938V311.69922h-55.26953v49.08203l.76171.125 3.28907.54297 2.02344 2.83594v2.7539l2.35156.33203 2.34765.33204h4.05079l-1.37891 4.16015-2.02344.70703-2.02344.70313-.54296.34375-2.59375 1.61719-.1875.11718-2.02344-2.07812-.73047-2.74219-2.67188-2.07813-1.375-3.5-.0664-.08203-1.95703-2.67187 2.75-1.41797v-49.08203h-118.2422v91.41406l.1172.03125.1328.01172.07423.07422.10547.04687.08984.0586.08594.0586.08984.05858.29688.29688.05859.08984.03125.1172.02734.11718.01563.13672-.03125.11719-.0586.08984-.05859.08594-.04297.10546-.04687.10157-.02735.1211v.14452l.17579.26953.14843.14844.07422.08594.07422.07422.04297.10547.0625.08984.0586.08594.04296.10547.0586.08984.04687.10156.04297.10547.0586.08594.11718.17969.07422.07421.0625.08594.0586.08985.04296.10546.0586.08985.05859.08594.0625.08984.0586.08984.04296.10157.11719.17968.07422.07422.0586.08594.07421.07422.08984.0586.10547.04687h.14844l.13281-.01563.13281.01563.10157-.04688.07422-.07422.04687-.10156-.01562-.13281v-.14844l-.04688-.10547-.02734-.11719-.04688-.10156-.02734-.1211-.04297-.10155-.0625-.08985-.04297-.10156-.04297-.10547-.03125-.11719-.01562-.1328-.01172-.13673.08594-.0586.05859-.08593.1211-.03125.04296.10547.01563.13281v.11719l.0586.10156.05858.08985.08985.05859.14844.14844.05859.08984.04297.10547-.01172.10156.08594.0586.10547.04687.08593.0586.08985.05859.07422.07422-.1172.02734-.10546.04688-.08594.05859-.07422.07422-.05859.08984-.0625.08594-.02734.1211-.04688.10156-.04297.10546-.03125.1172-.01172.1328-.01562.13282v.14844l.02734.11718.04688.10547.04297.10156.05859.08985.07422.07422.08984.05859.07422.07422.08985.0586.05859.08984.04297.10546.04687.10157.11719.03125.13281.01562h.14844l.11719-.03125.10547.04297.04296.10547.04688.10156.02734.1211.03125.11718.02735.1172.03125.12108.02734.1172.10547.04296.10156.04688.13281-.01563.14844.14844.0625.08594.07422.07421.07031.07422.08985.0625.10547.04297.10156.04297.11719.03125.13671.01563.1172-.03125.07421-.07422.02735-.11719-.01172-.13281-.03125-.1211-.02735-.11718.04297-.10547h.11719l.08984.0625.11719.02734h.14844l.13281.01563h.14844l.13281.01562.13281-.01562h.14844l.13281-.01563.13281-.01172.13672.01172.1172-.02734.1328-.01563.19141-.0586-.0586.17579-.01562.13281-.02734.1211-.01563.1328-.0586.08595-.1328.01562-.10547.04688-.10547.04296-.11719.03125-.11719.02735-.26562.03125h-.14844l-.13281.01562-.07422.07422.0586.08594.14843.14844.11719.17969.07422.0703.08984.0625.08985.0586.08593.0586.08985.05859.10156.04297.10547.0625.10547.04297.08593.05859.10547.04688.10156.04296.1797.1172.05859.08983-.04297.10157-.04688.10547.01563.1328.22265.22267.0586.08984.04297.10156.03125.1211.04296.10156.01563.13281.03125.11719.01172.13672.03125.11718.14844.14844.10156.04297.10547.04297.11719.03125.1328.01562.13673.01563h.11718l.1172-.03125.08983-.0586.04297-.10546.04688-.10157.04297-.10546.03125-.1172.01172-.1328v-.14844l-.01172-.13281-.01563-.13282-.03125-.11719-.04297-.10546-.04687-.10547-.04297-.10156-.04297-.10547-.01562-.13282.01562-.1328.02735-.1172.03125-.11718.02734-.1211.04687-.10156.08985-.0586.08594-.0625.07421-.07421.08985-.0586.22265-.22265.0586-.08594.07422-.07422.11718-.17969.0586-.08593v-.14844l-.07422-.07422-.10156-.04688-.10547-.04296-.10156-.04297-.0586-.08985-.04687-.10546-.02735-.1172.08985-.05859.11718-.03125.10157-.04296.17968-.1172.14844-.14843.01172-.13281-.01172-.10547-.08984-.0586-.13281.01563h-.14844l-.13281.01563-.13282-.01563-.1211-.03125-.08593-.0586-.07422-.07421-.0586-.08985-.0625-.08593-.11718-.1797-.0586-.08593.03126-.1211.08594-.05859.12109-.03125.0586-.08593v-.1211l-.03126-.11719-.0586-.08984-.05858-.08594-.04688-.10546-.02734-.1172-.01563-.1328.0586-.08985.07421-.07422.08985-.0586.11719-.17968.07421-.07422.0586-.08594.14844-.14843.12109-.03125.13281-.01563.13281.01563.07422.07422.04297.10546.01563.13282-.03125.11719-.1172.03125-.1328.01171-.14844.14844-.04297.10547-.04688.10156-.02734.1211-.03125.11718v.14844l.03125.11719.04297.10547.0586.08984.07421.07031.07422.07422.11719.03125.1211.02735.11718-.02735.13281-.01562h.11719l.08984.0586.07422.07421.04688.10547.0586.08594.10155.04687.13282.01563.10546.04296.08594.0586-.01172.10547-.07421.07422-.1797.11718-.05859.08985-.08984.0586-.07031.07421-.07422.07422-.0625.08984-.02735.11719-.01562.13281.01563.13281-.01563.13282v.14844l.01563.1328.02734.1172.03125.12109.07422.07422.08984.0586.08594.05858.08984.0586.11719.03125v.08594l-.10156.04687-.08985.0586-.26562.03125-.11719.02734h-.14844l-.10546.04297-.10157.04687-.0586.08985-.0625.23437-.01171.13281-.03125.1211-.01563.13281v.29297l-.01171.13281.01171.13672.01563.13281.13281.01563.13281.01172.1211.03125.08594.05859.07421.07422.04688.10547.04297.10156.01562.13281v.44531l-.01562.13282v.44531l.03125.26563.02734.11718.01563.13281.03125.1172.08594.21093.03125.26563v.14843l-.03125.11719-.02735.11719-.03125.1211-.02734.11718-.03125.11719-.03125.12109-.01172.13281-.01563.13281.08985.0586.11719-.03125.10156.01562.04687.10547-.03125.26563v.4414l-.04297.10547-.04687.10547-.04297.10156-.04297.10547-.0586.08594-.03124.1211-.04297.11718-.03125.11719-.01563.13281.01563.13281.0586.08985.10546.04687.08594.0586.0586.08593-.01173.13672-.03125.11719-.04296.10156v.44531l-.01563.13282v.14844l-.03125.11718-.04297.10547-.02734.11719-.04688.10547-.04297.10156-.03125.1211-.02734.11718-.03125.13281-.03125.1172-.02734.11718-.04297.10547-.03125.11719-.03125.12109-.01172.13281-.01563.13281v.29688l.02735.11719v.14843l.04687.39844.02735.11719.05859.08984.1211.03125h.14843l.13281-.01562.0586.08984v.11719l-.0586.08984-.08984.0586-.10156.04296-.10547.04688-.08985.0586-.08593.05859-.13672.01562-.11719-.03125-.13281-.01562-.10156.04687-.0625.08594-.01172.13672-.01563.13281-.03125.11719-.02734.11719-.01563.1328-.03125.1211v.29688l.01563.13281.03125.11719v.14844l.01172.1328v.14844l-.02735.1172-.04687.10156-.02735.12109-.03125.11719-.05859.08984-.07422.07422-.10156.04297-.10547.04687-.11719.02735-.12109.03125-.10156-.04688.0586-.08594.10546-.04687.02734-.11719.03125-.11719.02735-.12109.03125-.11719v-.14844l.01562-.1328-.03125-.1172-.04297-.10546-.10546.01562-.07422.07422-.10157.04297-.08984.0625-.07422.07422-.04297.10156-.01562.13281-.03125.11719-.02735.1211-.03125.11718-.02734.11719-.03125.1211-.02734.11718-.03125.11719-.04297.10547-.08985.05859h-.08984l-.11719-.03125-.03125-.08594.01563-.13672-.03125-.11718v-.14844l-.01172-.13281v-.14844l-.0625-.23438-.02735-.12109-.04296-.10156-.04688-.10547-.0586-.08594-.05859-.08984-.04296-.10547-.0625-.08594-.14844-.14844-.07031-.07421-.10547-.04688-.10547-.04297-.10156-.04297-.29688-.29687-.08984-.07422-.08594-.0586-.10547-.04296-.08984-.0625-.08594-.0586-.10547-.04297-.08984-.05859-.08594-.0625-.07422-.07031-.10547-.04688-.08594-.0586-.10546-.04296-.08985-.0625-.10156-.04297-.10547-.04297-.08594-.0586-.10547-.04687-.10546-.04296-.10157-.04688-.08984-.0586-.10156-.04296-.10547-.04297-.08985-.0625-.11718-.02735-.13282-.01562-.1328.01563h-.14845l-.1328.01562-.1172-.03125-.08984-.0586-.07422-.07421-.08984-.0586-.10156-.04687h-.14844l-.1211-.02735-.10156-.04296-.07422-.07422-.11719-.17969-.08984-.0586-.10156-.04296-.08985-.0625-.10546-.04297-.08985-.0586-.08594-.05859-.10546-.04687-.0586-.08594-.0586-.08985-.04296-.10546-.04688-.10157-.07421-.07421-.08594-.0586-.07422-.07422-.08984-.0586-.22266-.22265-.04297-.10547-.03125-.26562.10547-.04297h.14453l.10547.04297.07422.07422.08984.0586.08594.05858.10547.04688.08984.0586.14844.14843.07031.07422.14844.14844.0625.08594.07422.07421.08594.0586.07421.07422.08985.0625.08984.05859.08594.0586.26953.17577.10156.04688.10547.04297.10156.04297.04688-.07422.0586-.08594.07421-.07422.07031-.07422.10547.04297.07422.07422.0586.08985.04296.10156.04688.10547.04297.10546.1211.02735.11718-.02735.07422-.08984.04297-.10547.0586-.08984.07421-.07422.10547-.04297.11719-.02734.1328.01172.08985.05859.14844.14844.0586.08984.04296.10547.04688.10156.04297.10547.04296.10156.10547.04688.10547.04297.13281.01562.08594-.0586.0586-.08983.07421-.07422.10547-.04297.1172.02734.10546.04688.10156.04296.10547.04297.10156.04688.1797.11719v.11718l-.01563.13282.01562.1328.01563.13673.05859.08594.10156.04687.1211.02734.11718.03125h.14844l.11719-.03125.0586-.08984.17968-.11719.0586-.08984.07421-.07422.0586-.08594.11718-.17969.1797-.11718.11718.03125.08984.0586.04297.07421-.01562.13281v.11719l.08984.0586h.14844l.13281-.01563.13281-.01172.26563-.03125.10547-.04297.11718-.03125.1211-.02734.07422-.07422.0703-.07422.0625-.08984-.01562-.10547-.04687-.10156-.10156-.04297-.10547-.01563-.11719.02735-.26563.03125h-.14843l-.07422-.07422-.08985-.0586-.11718-.03125-.11719-.02734-.13281-.01563h-.14844l-.13281.01563h-.29688l-.10547-.04688-.14843-.14843-.04297-.10157-.0586-.08984.22266-.22266.08594-.05859.10547-.04297.11718-.03125.13282-.01562.1328.01562.13673.01563.10156.04296.13281-.01171.08985-.0625.10156-.04297.0625-.08985-.04688-.10156-.08984-.0586-.11719-.03124-.10156-.04297-.0586-.08985-.0625-.08984v-.11719l.01563-.1328.10547-.04688.07422-.07032v-.12109l-.08985-.0586-.03125-.11718.08985-.0586.07422-.07421.04297-.10547.05859-.08985.04688-.10156.01562-.13281v-.14844l-.04688-.10547-.04296-.10156-.08985-.0586-.13281-.01562-.10156-.04297-.13672-.01562-.11719-.03125h-.44531l-.13281-.01563-.13282-.01172-.1328-.01562-.1172-.03125h-.14843l-.13282-.01563-.1328-.01171-.26563-.03125-.1211-.04297-.08594-.0586-.07421-.07422v-.14843l.01171-.13282.10547-.04687.10157-.04297.1328-.01563h.15235l.13281-.01562h.29297l.1211.03125.10156.04297.08984.0586.23438.0625.1211-.04688.08984-.0586.10156-.04296.13281-.01563.10547.04297.10156.04687.13281.01172.1211-.02734h.14453l.1211-.03125.11718-.02735.10547-.04687.07422-.07422.08594-.0586.14843-.14843.0586-.08594.04687-.10547.02735-.11718.01562-.10547-.10156-.04297-.08985-.0586-.11718-.03125-.10547-.04296-.08985-.0625-.07421-.08594-.07422-.07422-.10156-.04297-.10547-.04687-.10157-.04297-.05859-.08985-.04688-.10156-.08593-.21094-.0625-.08593-.0586-.08985-.07421-.07422-.08594-.05859h-.26953l-.1172.03125-.08983.0586-.10157.04296-.13281.01563-.10547-.01563-.02734-.11719-.0625-.08984-.11719-.03125-.10156-.04297-.14844-.14844-.03125-.11718-.01563-.10547.07422-.07422.1797-.11719.11718-.02734.11719-.03125.13671.01562.10157.04297.10547.04297.10156.04688.10547.04296.11719.03125.1328.01563.1172.02734.1328.01563.10548-.01563.08984-.05859-.07422-.07422-.10547-.04297-.07422-.07422-.07421-.08984-.14844-.14844-.08594-.0586-.08984-.05858-.07422-.07422-.08985-.0586-.10156-.04687-.1211-.02735-.10156-.04687-.10546-.04297-.1172-.03125-.10155-.04297-.1211-.03125h-.14844l-.11718.03125-.10547.04297-.08594.0625-.17969.11719-.08593.0586-.08985.05858-.10547.04688-.08593.0586-.10547.04296-.10156.04297-.10547.04688-.07422.07421-.0586.08985-.05859.08594-.04688.10546-.05859.08594-.07422.07422-.13281-.01172-.11719-.03125h-.11719l-.07421.07422-.08985.0586-.07422.07421-.08984.0586-.08594.0586-.10547.04687-.10156.04296-.13672.01563-.10156-.04297-.14844-.14844-.10547-.04687h-.08593l-.10547.04687-.10156.04297-.1211.03125-.11719-.03125-.07421-.07422v-.11718l.03125-.1211.07421-.07031.0586-.08984.07422-.07422.11718-.03125.10547-.04297h.29297l.13281-.01563.13672-.01562.10156-.04297.08985-.0586.10156-.04687.08985-.0586.1328-.01171.08985.0586.13281.01171.08985-.0586.08594-.05859.10546-.04296.08985-.0586.08594-.0625.08984-.0586.14844-.14843.05859-.08594.0586-.08984.10546-.04297.13281-.01563.1172.02735.12109.03125.05859-.0586.0586-.08984.03124-.26562.02735-.1172.10547.01173.1328.01562.10157-.04297.08985-.05859.05859-.08984.07422-.07422.0586-.08985.04687-.10156.01171-.13281-.01171-.13281-.04688-.10547-.14844-.14844-.05859-.08984-.0586-.08594-.04296-.10547v-.44531l.01562-.13281v-.14844l.01172-.13281-.0586-.0586-.08984.0586-.10156-.04297-.17969-.1172-.08593-.05858-.0625-.08985-.0586-.08984-.07422-.07422-.08593-.0586-.1211.03125-.10156.01172-.10547.04688-.08594.0586-.10546.04296-.14844.14844-.08985.0586-.08593.05859-.08985.0625-.10547.04296-.1328.01563v-.1211l.10546-.04296.11719-.03125.07422-.07031.04296-.10547v-.14844l-.02734-.11719-.14844-.14844-.1328-.01562h-.14845l-.11718.03125-.10547.04297-.10156.04297-.08985.0625-.11719.02734-.07421-.07422.01171-.13281-.04296-.10156-.04297-.10547-.08985-.0586-.11719.02735-.12109.03125-.11719.03125-.10156.04297-.1211.03125-.10156.04296-.10546.04297-.08985.0586-.10156.01562v-.11719l.01563-.1328-.0586-.08985-.07422.04297-.14844.14844-.05859.08984-.07422.07422-.04687.10547-.04297.10156-.07422.07422-.0586.08984-.07421.07422-.0586.08594-.07421.07422-.08985.0625-.07422.0703-.07422.07423-.10156.01562-.13281.01563-.10547-.04297v-.1211l.14844-.14843.04297-.10156.05859-.08985.04688-.10156.04296-.10547.0586-.08984.03125-.1172.04297-.10155.03125-.1211.02734-.11719.04688-.10546.04296-.10157.04297-.10546.07422-.07032.08985-.0625.08984-.0586.10156-.04296h.29688l.26562-.03125.10547-.04297-.07422-.07422-.11719-.03125-.10546-.04297-.08985-.05859-.10156-.04688-.08985-.05859-.10156-.04297-.10547-.04297-.08984-.0625-.08594-.05859-.10547-.04297-.10156-.04297-.1211-.03125-.11718-.03125-.10156-.04297-.1211-.03125-.10156-.04296-.08984-.0586-.04297-.10547-.01563-.13281.10157-.04297.1328-.01562.13673.01562.13281-.01562.10156-.04297.0586-.08985.01562-.10546-.08984-.0586-.07422-.07422-.10156-.04297-.08985-.05859-.14844-.14844-.04296-.10547-.01563-.1328v-.29298l-.0586-.08984-.08984-.0586-.07421-.07421-.04297-.10547-.03125-.11719-.0586-.08984-.07422-.07422-.11718-.02735-.07422-.07421-.08985-.0586-.08984-.0625-.08594-.0586-.07422-.07421-.05859-.08594-.04688-.10547-.08593-.0586-.14844-.14843-.19531-.0586-.13281.01563-.10157.04297-.07422.07422-.04687.10156-.04297.10547-.0586.08985-.05859.08593-.29687.29688-.08985.0586h-.08593l-.0625-.08595-.04297-.10546.03125-.1172.0586-.08984.02733-.11718-.01171-.13282-.08985-.0625-.10547.04688-.11718.02734-.1172.03125-.26952.17578-.10156.04688-.1172.02734-.10546.04688-.08985.0586-.10156.04296-.0586-.08594-.04687-.10547.01563-.1328.04687-.10548.07032-.07422.07421-.0703.0586-.08985v-.14844l-.04297-.10547h-.23828l-.10156.04688-.03125.11718-.02735.1172-.03125.12108-.07422.04297-.1328.01563-.07423-.04688-.04297-.10156-.04296-.10547-.04688-.10156-.04297-.10547-.1211.03125-.10156.04297-.1328.01563-.1172.03125-.10546.04296-.08985.0586-.10156.04687-.1211.02735-.1328.01562-.10157-.04297-.0586-.08984-.04687-.10547-.04297-.10156-.04296-.10547v-.11719l.05859-.08984.08594-.0586.17968-.11718.10157-.04688.10546-.04297.10547-.0586.10157-.04296.08984-.0625.10156-.04297.10547-.0586.10156-.04687.08985-.0586.10547-.04296.10156-.04297.08984-.0625.10156-.04297.13672-.01562.1172.03125.10155.04297.1211.03125.10156.04296.10547.04688.10156.04297.10547.04297.10156.04687.10547.04297.10156.04297.10547.04688.08594.05859.10547.04297.11719.03125.10546.04297.10157.04687.08984.0586.10547.04296.10156.04297.10547.04688.11719.02734.10156.04688.1211.02734h.14843l.08594-.0586.01563-.10156.05859-.08984-.02735-.11719-.07421-.07422-.1172-.17968-.07421-.07422-.08984-.07422-.1797-.11719-.08593-.0586-.10547-.04296-.10156-.04688-.26953-.17578-.0586-.08984-.07421-.07422-.0586-.08984-.04297-.10157-.03125-.11718-.01562-.13672v-.5625l-.01172-.13281-.01563-.13282-.03125-.11719-.01562-.1328-.01172-.13282-.03125-.1211-.22265-.22265-.0586-.08594-.01562-.10547.03125-.11718.1328-.01563v-91.41406H172.98829v1.45312l-.0586.23438-.35155 1.05078-.17188.52344-.11719.34765-.17578.41016-.11719.17188-.23437.29296-.23047.0586h-.35156l-.11719.0586-.23047.40624V317l.11719.17578.23047.23047.11719.23438.64062.7578.29297.46485.17578.23438.23047.35156.23437.34765.64063.81641.17578.46485.17188.41015.11718.69531.17578.46875.1172 1.39844.05858.46485v.875l.1172 1.04687v4.78125l-.0586.46484-.35156 1.28125-.17578.52344-.11329.41016-.35156.92969-.46484 1.16796-.23438.58204-.11719.17578-.17187.34765-.17578.40625-.35156.8164-.0586.29298-.11328.29297-.11719.28906-.05859.17578-.11719.875-.0586.40625-.05858.11719-.0586.17578-.0586.17187-.23046.52735-.11719.17187v.23438l-.11719.23437-.05859.17188-.17578.58594v.28906l-.0586.17578v.29297l-.05859.11328-.0586.52734v.17188l-.05468.23437v2.6211l-.17578.8164-.11719.17578-.17578.23438-.11719.17187-.11328.23438-.58594.9336-.23047.28906-.29296.46484-.17578.23437-.28907.35157-.35156.69921-.11328.23047-.17578.41016-.17578.23047-.40625.52734-.81641.69922-.29297.17188-.28906.23437-.17578.11719-.17578.17578-.52344.40625-.52734.17578-.17188.17578-.23438.05469-.64062.17578h-.75781m12.21094 31.02344l-1.07422.44922.35937.89453 1.25-.71485.44531-.53906-.98047-.08984"/><path fill="#d3d3d3" fill-opacity="0" fill-rule="evenodd" d="M201.5039 416.59375h-.89452l.44921.6289.98047.35938.80469-.08984.44531-.98828-.17578.08984-.71484-.35547-.89453.35547M356.125 475.66406l-.0586-.52344v-.29296l.11329-.29297.0586-.23047.46874-.46875h.11328l.11719-.11328.11719-.0586h.17578l.23437-.05859h.34766l.23438.0586.11718.05859.23047.17187.0586.17578.11718.58204v.29296l-.11719.17579-.17187.28906-.17578.17578-.52735.52344-.23046.23437-.1172.0586h-.17577l-.11719-.0586-.40625-.29297-.17578-.11719-.11719-.05859-.0586-.11328-.05468-.11719m6.64063-10.95703l-.0586-.17187v-1.10938l.0586-.17187.17578-.0586.17187-.0586h.17578l.23438-.05858.11719.05859.05859.69922-.0586.17187-.11718.17578-.11719.0586-.23438.52344-.11328.05859h-.23437l-.0586-.11719m9.61329-14.39062l-.1172-.17579v-.69921l.29298-.875.11719-.17188.17578-.35156.11328-.23047.11719-.29297.35156-.75781.11719-.23047.17187-.23438h.17578l.11719-.05859h.64062l.1172.0586.23437.23437.17187.11328.35156.29297.1172.11719.11327.17578v.11328l.11719.0586.11719.11718v.69922l-.0586.17578v.23047l-.05859.17578-.34766 1.05078-.11718.23047-.1172.23438-.11718.05859-.23047.23438-.64062.28906h-.875l-.41016-.11719-.64062-.46484"/><g clip-path="url(#a)"><path fill="#fff" fill-opacity="0" fill-rule="evenodd" d="M143.9961 475.88672v4.4375H144h-.0039V311.66797H144h-.0039v164.21875"/></g><g clip-path="url(#b)"><path fill="#fff" fill-opacity="0" fill-rule="evenodd" d="M144 480.32422V311.66797h71.01172v93.3789l-4.4414 2.00391-1.96876 2.26172 1.96875 1.9336 4.4414 1.1289 4.01563-3.0625-4.01562-4.26563v-93.3789h195.28516v147.07031l-4.4375.29688-3.70313 3.53515 3.70313 3.36719 3.2539 1.07422 1.1836 1.39844 1.66406 3.03906 2.77344 2.61328 4.4414-1.20313 1.35938-1.41015-.48829-4.4375-.87109-.875-4.4414-1.82813-.55079-1.73828-3.88671-3.83203V311.66797h57.6953v168.65625H144"/></g><path fill="#50fcfc" fill-rule="evenodd" d="M210.57031 411.2461l-1.96875-1.9336 1.96875-2.26172 4.4414-2.0039v3.1875l-1.73827 1.07812 1.73828.77344 1.01562-.77344-1.01562-1.07813v-3.1875l4.01562 4.26563-4.01562 3.0625-4.4414-1.1289"/><path fill="#00e8fc" fill-rule="evenodd" d="M215.01172 410.08594l-1.73828-.77344 1.73828-1.07813 1.01562 1.07813-1.01562.77344"/><path fill="#50fcfc" fill-rule="evenodd" d="M405.85938 465.9375l-3.70313-3.36719 3.70313-3.53515 4.4375-.29688v.96094l-4.4375 1.02344-1.9336 1.84765 1.9336 1.76172 4.4375 1.78125 2.91406-3.54297-2.91406-2.8711v-.96093l3.88671 3.83203.55079 1.73828 4.4414 1.82813.8711.875.48828 4.4375-1.35938 1.41015-4.4414 1.20313-2.77344-2.61328-1.66406-3.03906-1.1836-1.39844-3.2539-1.07422"/><path fill="#00e8fc" fill-rule="evenodd" d="M405.85938 464.33203l-1.9336-1.76172 1.9336-1.84765 4.4375-1.02344v1.60156l-3.10157 1.26953 3.10156 1.57031 1.28907-1.5703-1.28906-1.26954v-1.60156l2.91406 2.8711-2.91406 3.54296-4.4375-1.78125"/><path fill="#00d4fc" fill-rule="evenodd" d="M410.29688 464.14063l-3.10157-1.57032 3.10156-1.26953 1.28907 1.26953-1.28906 1.57031"/><g clip-path="url(#c)"><path fill="#fff" fill-opacity="0" fill-rule="evenodd" d="M467.99219 480.32422h.0039V311.66797h-.0039.0039v168.65625h-.0039"/></g><path fill="#00f" fill-rule="evenodd" d="M388.23438 467.64453h8.61718V457.5h-8.61719v10.14453"/><path fill="azure" fill-rule="evenodd" d="M390.0664 459.33203h.83594v2.82422h3.28516v-2.82422h.83203v6.48047h-.83203v-2.91797h-3.28516v2.91797h-.83593v-6.48047"/><path fill="#ff3030" fill-rule="evenodd" d="M291.28516 409.94531h7.6914v-10.14453h-7.6914v10.14453"/><path fill="azure" fill-rule="evenodd" d="M293.11719 401.63281h.83594v5.73828h3.1914v.7422h-4.02734v-6.48048"/><path fill="#00f" fill-rule="evenodd" d="M201.82422 401.07031h8.61719v-10.14844h-8.6172v10.14844"/><path fill="azure" fill-rule="evenodd" d="M203.65625 392.75781h.83203v2.82031h3.28906v-2.8203h.83203v6.47656h-.83203v-2.91407h-3.28906v2.91406h-.83203v-6.47656"/><path fill="#ff3030" fill-rule="evenodd" d="M198.07813 356.6836h7.6953v-10.14454h-7.6953v10.14453"/><path fill="azure" fill-rule="evenodd" d="M199.91406 348.3711h.83203v5.74218h3.19532v.73828h-4.02735v-6.48047"/><path fill="#ffffe0" fill-rule="evenodd" d="M332.86328 379.6914h22.17969V369.5h-22.17969v10.1914"/><path fill-rule="evenodd" d="M336.36328 371.33203h.50781v6.29688h-.78515v-4.4922h-1.39063v-.55468l.5625-.0625.25-.05469.23047-.08984.20313-.14063.17578-.21093.14062-.29688.10547-.39453m4.8125 0l.23047.01953.21875.05469.20703.08984.19531.1211.1875.14844.16797.17578.30469.42187.24219.49219.17969.54687.11328.57813.03515.59375-.03515.59375-.11329.58203-.17968.55469-.24219.5-.30469.42969-.16797.17968-.1875.15235-.1953.125-.20704.08984-.21875.0586-.23047.01952-.23047-.01953-.21875-.05859-.20703-.08984-.19531-.125-.1836-.15235-.17187-.17969-.30078-.42968-.2461-.5-.17968-.55469-.10938-.58203-.03906-.59375h.83203l.03125.5625.08203.5039.125.44532.16016.375.1914.30078.21094.21875.22266.13672.22656.04687.22656-.04687.22266-.13672.21094-.21875.1914-.30078.16016-.375.1289-.44531.08204-.50391.02734-.5625-.02734-.5625-.08203-.5-.12891-.4375-.16016-.36328-.1914-.29297-.21094-.21485-.22266-.1328-.22656-.04298-.22656.04297-.22266.13281-.21094.21485-.1914.29297-.16016.36328-.125.4375-.08203.5-.03125.5625h-.83203l.03906-.59375.10938-.57813.17969-.54687.24609-.49219.30078-.42187.17188-.17579.18359-.14843.19531-.1211.20703-.08984.21875-.05469.23047-.01953m4.95313 0l.23046.01953.21875.05469.20704.08984.1953.1211.1836.14844.17188.17578.30469.42187.24218.49219.17969.54687.10938.57813.03906.59375-.03906.59375-.10938.58203-.17969.55469-.24219.5-.30468.42969-.17188.17968-.1836.15235-.1953.125-.20704.08984-.21875.0586-.23046.01952-.23047-.01953-.21875-.05859-.20703-.08984-.19532-.125-.18359-.15235-.17188-.17969-.30468-.42968-.24219-.5-.17969-.55469-.10937-.58203-.03906-.59375h.83203l.03125.5625.07812.5039.1289.44532.16016.375.19141.30078.21094.21875.22265.13672.22657.04687.22656-.04687.22265-.13672.21094-.21875.1914-.30078.16017-.375.1289-.44531.08203-.50391.02735-.5625-.02735-.5625-.08203-.5-.1289-.4375-.16016-.36328-.1914-.29297-.21094-.21485-.22266-.1328-.22656-.04298-.22657.04297-.22265.13281-.21094.21485-.1914.29297-.16016.36328-.1289.4375-.07813.5-.03125.5625h-.83204l.03907-.59375.10937-.57813.17969-.54687.24219-.49219.30469-.42187.17187-.17579.1836-.14843.1953-.1211.20704-.08984.21875-.05469.23047-.01953m4.95312 0l.38672.02735.35938.08593.3203.13281.28126.1875.23047.23829.17187.28515.10938.33203.03906.37891-.02344.27344-.05469.23437-.08984.19922-.10938.17188-.1289.14453-.14063.1211-.28906.1953.23438.1211.20703.14453.1836.17187.15233.19532.1211.21093.09375.23047.05469.2461.01953.2539-.03516.3125-.10156.32422-.17188.32422-.24218.3086-.3047.26952-.375.21485-.21093.07812-.23047.0625-.24219.03907-.26171.01171-.25782-.01171-.24218-.03907-.22657-.0625-.20312-.07812-.35938-.21485-.28906-.26953-.22265-.30859-.16016-.32422-.08985-.32422-.03125-.3125h.83204l.02734.2539.07813.23438.12109.21485.16015.1836.19532.15233.21875.11329.24219.07421.2539.02344.2539-.02344.2422-.07421.21875-.11329.1914-.15234.16406-.1836.1211-.21484.07812-.23437.02735-.2539-.02735-.25-.07812-.23829-.1211-.21094-.16406-.18359-.1914-.15234-.21875-.1172-.2422-.0703-.2539-.02735-.2539.02735-.2422.0703-.21874.1172-.19531.15234-.16016.1836-.1211.21093-.07812.23828-.02734.25h-.83204l.01954-.2539.05468-.23829.08985-.22265.125-.21094.15234-.1875.1836-.17578.20703-.15234.23046-.13282-.28515-.1953-.14063-.1211-.1289-.14453-.10938-.17188-.08984-.19922-.0586-.23437L349.1836 373h.78907l.01953.21484.0664.19141.10547.16406.13672.14063.16406.11328.1875.07812.20704.05079.22265.01953.21875-.01954.20703-.05078.1914-.07812.16407-.11328.13672-.14063.10156-.16406.0664-.1914.02345-.21485-.02344-.21484-.0664-.19141-.10157-.16797-.13672-.13672-.16406-.11328-.1914-.08203-.20704-.05078-.21875-.01563-.22265.01563-.20704.05078-.1875.08203-.16406.11328-.13672.13672-.10547.16797-.0664.1914-.01953.21485h-.78907l.03907-.3789.10937-.33204.17188-.28515.23046-.23829.27735-.1875.32422-.1328.35937-.08594.38672-.02735"/><path fill="#ffffe0" fill-rule="evenodd" d="M266.28906 338.59375h22.17969v-10.1914h-22.17969v10.1914"/><path fill-rule="evenodd" d="M269.78906 330.23438h.50781v6.29296h-.78906v-4.48828h-1.38672v-.55469l.5586-.0664.2539-.05078.23047-.08985.20313-.14453.17187-.20703.14063-.29687.10937-.39454m4.8125 0l.23047.01954.21875.05468.20703.08985.19531.1211.1836.14843.17187.17578.30079.42188.24609.49218.17969.54688.10937.57812.03906.58985-.03906.59375-.10937.58593-.1797.5547-.24608.5-.30079.42968-.17187.17969-.1836.15234-.1953.125-.20704.08984-.21875.0586-.23047.01953-.23047-.01953-.21875-.0586-.20703-.08984-.19531-.125-.1875-.15234-.16797-.1797-.30469-.42968-.24218-.5-.1797-.55469-.11327-.58593-.03516-.59375h.83203l.02735.5664.08203.5039.1289.44142.16016.375.1914.30078.21094.22265.22266.13672.22656.04688.22656-.04688.22266-.13672.21094-.22265.1914-.30079.16016-.375.125-.4414.08203-.5039.03125-.56641-.03125-.5586-.08203-.5-.125-.4375-.16015-.36328-.19141-.29297-.21094-.21484-.22265-.13281-.22657-.04297-.22656.04297-.22266.1328-.21093.21485-.19141.29297-.16016.36328-.1289.4375-.08203.5-.02735.5586h-.83203l.03516-.58985.11328-.57812.17969-.54688.24218-.49219.3047-.42187.16796-.17578.1875-.14844.19531-.1211.20703-.08984.21875-.05468.23047-.01954m4.95313 0l.22656.01954.21875.05468.21094.08985.19531.1211.1836.14843.17187.17578.30078.42188.2461.49218.17968.54688.10938.57812.03906.58985-.03906.59375-.10938.58593-.17969.5547-.24609.5-.30078.42968-.17188.17969-.18359.15234-.19531.125-.21094.08984-.21875.0586-.22656.01953-.23047-.01953-.21875-.0586-.20703-.08984-.19922-.125-.1836-.15234-.17187-.1797-.30078-.42968-.24219-.5-.17969-.55469-.11328-.58593-.03515-.59375h.83203l.02734.5664.08203.5039.125.44142.16406.375.19141.30078.21094.22265.22265.13672.22657.04688.22656-.04688.22266-.13672.21093-.22265.1875-.30079.16407-.375.125-.4414.08203-.5039.03125-.56641-.03125-.5586-.08203-.5-.125-.4375-.16407-.36328-.1875-.29297-.21093-.21484-.22266-.13281-.22656-.04297-.22656.04297-.22266.1328-.21094.21485-.1914.29297-.16407.36328-.125.4375-.08203.5-.02734.5586h-.83203l.03515-.58985.11328-.57812.1797-.54688.24218-.49219.30078-.42187.17188-.17578.18359-.14844.19922-.1211.20703-.08984.21875-.05468.23047-.01954m4.95312 0l.38672.02735.35547.08203.32422.13672.28125.1875.23047.23828.17187.28516.10938.33203.03515.3789-.01953.27344-.0586.23438-.08593.19921-.11328.17188-.1289.14453-.14063.1211-.28516.1953.23047.1211.21094.14453.17969.17188.15625.19531.12109.21094.08984.23047.0586.24609.01953.2539-.03516.3086-.10547.32813-.17187.32421-.23828.3047-.3086.26952-.37109.21485-.21094.08203-.23047.0625-.24218.03515-.26172.01563-.26172-.01563-.24219-.03515-.22265-.0625-.20704-.08203-.35546-.21485-.29297-.26953-.22266-.30469-.15625-.32421-.09375-.32813-.02734-.3086h.83203l.02734.25391.07813.23438.12109.21094.16016.1875.1953.15234.21876.11328.23828.07422.25781.02344.2539-.02344.23829-.07422.22266-.11328.1914-.15235.16016-.1875.125-.21093.07422-.23438.02734-.2539-.02734-.25391-.07422-.23438-.125-.21093-.16016-.1875-.1914-.15235-.22266-.11328-.23828-.07031-.2539-.02734-.25782.02734-.23828.07031-.21875.11328-.19531.15235-.16016.1875-.1211.21094-.07812.23437-.02734.2539h-.83203l.01562-.2539.0586-.23828.08984-.22656.125-.20704.15234-.1914.17969-.17188.21094-.15234.23047-.13281-.28516-.19531-.14063-.1211-.1289-.14453-.11328-.17188-.08594-.19921-.0586-.23438-.01952-.27344h.78515l.02344.21094.0664.1914.10547.16798.13672.14062.16406.10938.1875.08203.20704.05078.22265.01562.21875-.01562.20703-.05078.1875-.08203.16797-.10938.13672-.14062.10156-.16797.06641-.1914.02344-.21095-.02344-.21484-.0664-.1914-.10157-.16798-.13672-.14062-.16797-.10938-.1875-.08203-.20703-.05078-.21875-.01562-.22265.01562-.20704.05078-.1875.08204-.16406.10937-.13672.14063-.10546.16796-.06641.19141-.02344.21484h-.78515l.03515-.3789.10938-.33203.17578-.28516.22656-.23828.28125-.1875.32422-.13672.35547-.08203.39062-.02735"/><path fill="#ffffe0" fill-rule="evenodd" d="M252.97266 418.48047h22.17968v-10.19531h-22.17968v10.1953"/><path fill-rule="evenodd" d="M256.47266 410.1211h.5078v6.29296h-.78515v-4.48828h-1.39062v-.55469l.5625-.0664.25-.05469.23047-.08984.20312-.14063.17578-.21094.14063-.29296.10547-.39454m4.8125 0l.23046.01954.21875.05468.20704.08985.1953.12109.1875.14844.17188.17578.30079.41797.24218.4961.17969.54687.11328.57812.03516.58985-.03516.59375-.11328.58203-.17969.55468-.24219.50391-.30078.42578-.17187.17969-.1875.15625-.19531.1211-.20704.09374-.21875.05469-.23046.01953-.22657-.01953-.22265-.05469-.20703-.09375-.19532-.1211-.18359-.15624-.17188-.17969-.30078-.42578-.24609-.5039-.17969-.5547-.10937-.58202-.03906-.59375h.83203l.03125.5625.08203.5078.125.44141.16015.375.19141.30079.21094.22265.22265.13672.22657.04688.22656-.04688.22265-.13672.21094-.22265.1914-.30079.16407-.375.125-.4414.08203-.50781.02735-.5625-.02735-.5625-.08203-.5-.125-.4336-.16406-.36719-.1914-.29296-.21094-.21094-.22266-.13281-.22656-.04688-.22657.04688-.22265.1328-.21094.21094-.1914.29297-.16016.3672-.125.43358-.08203.5-.03125.5625h-.83204l.03907-.58984.10937-.57812.17969-.54688.2461-.4961.30077-.41796.17188-.17578.1836-.14844.1953-.1211.20704-.08984.22265-.05469.22657-.01953m4.95312 0l.23047.01954.21875.05468.20703.08985.19531.12109.1875.14844.16797.17578.30469.41797.24219.4961.17969.54687.10937.57812.03906.58985-.03906.59375-.10938.58203-.17968.55468-.24219.50391-.30469.42578-.16797.17969-.1875.15625-.1953.1211-.20704.09374-.21875.05469-.23047.01953-.23047-.01953-.21875-.05469-.20703-.09375-.19531-.1211-.1836-.15624-.17187-.17969-.30469-.42578-.24219-.5039-.17968-.5547-.10938-.58202-.03906-.59375h.83203l.03125.5625.07813.5078.1289.44141.16016.375.1914.30079.21094.22265.22266.13672.22656.04688.22656-.04688.22266-.13672.21094-.22265.1914-.30079.16016-.375.1289-.4414.08204-.50781.02734-.5625-.02734-.5625-.08203-.5-.12891-.4336-.16016-.36719-.1914-.29296-.21094-.21094-.22266-.13281-.22656-.04688-.22656.04688-.22266.1328-.21094.21094-.1914.29297-.16016.3672-.1289.43358-.07813.5-.03125.5625h-.83203l.03906-.58984.10938-.57812.17969-.54688.24218-.4961.30469-.41796.17188-.17578.18359-.14844.19531-.1211.20703-.08984.21875-.05469.23047-.01953m4.95313 0l.38671.02735.35938.08203.32031.13672.28125.1875.23047.23437.17188.28906.10937.33204.03906.375-.02343.27343-.0547.23829-.08983.19921-.10938.16797-.1289.14453-.14063.1211-.28906.19922.23437.11718.20703.14844.1836.17188.15234.1914.125.21485.08984.23046.0547.2422.01952.2578-.03515.3086-.10157.32422-.17187.32812-.24219.30469-.30469.26953-.375.21485-.21093.08203-.23047.05859-.24219.03906-.26172.01172-.25781-.01172-.24219-.03906-.22656-.0586-.20313-.08202-.35937-.21485-.28906-.26953-.22266-.30469-.15625-.32812-.09375-.32422-.03125-.3086h.83203l.02735.25.07812.23829.1211.21093.16015.1836.19531.15234.21875.11719.24219.07031.2539.02735.25391-.02735.24219-.07031.21875-.11719.1914-.15234.16407-.1836.1211-.21093.07812-.23829.02734-.25-.02734-.2539-.07813-.23438-.1211-.21484-.16405-.1836-.19141-.15234-.21875-.11328-.24219-.07422-.2539-.02344-.25391.02344-.24219.07422-.21875.11328-.19531.15235-.16016.18359-.12109.21484-.07813.23438-.02734.2539h-.83203l.01953-.2539.05469-.24219.08984-.22265.125-.20704.15235-.1914.18359-.17188.20703-.15234.23047-.13281-.28516-.19922-.14062-.1211-.1289-.14453-.10938-.16797-.08985-.19921-.05859-.23829-.01953-.27343h.78906l.01953.21484.0664.1914.10548.16798.13672.13671.16406.11329.1914.08203.20313.05078.22266.01562.21875-.01562.20703-.05078.1914-.08204.16407-.11328.13671-.13671.10547-.16797.0625-.19141.02344-.21484-.02344-.21485-.0625-.1914-.10546-.16407-.13672-.14062-.16407-.11328-.1914-.07813-.20703-.05078-.21875-.01953-.22266.01953-.20313.05078-.1914.07813-.16406.11328-.13672.14062-.10547.16407-.0664.1914-.01954.21485h-.78906l.03906-.375.10938-.33204.17187-.28906.23047-.23437.27734-.1875.32422-.13672.35938-.08203.38672-.02735"/><path fill="#ffffe0" fill-rule="evenodd" d="M350.61719 434.44922h22.17969V424.2539h-22.1797v10.1953"/><path fill-rule="evenodd" d="M354.11719 426.08984h.50781v6.29297h-.78516v-4.48828h-1.39062v-.5586l.5586-.0625.2539-.05468.23047-.08984.20312-.14063.17188-.21094.14453-.29296.10547-.39454m4.8125 0l.23047.01563.21875.0586.20703.08984.19531.11718.1836.15235.17187.17578.30469.41797.24218.4961.1797.54296.10937.58203.03906.58985-.03906.59375-.10938.58203-.17969.55468-.24218.50391-.3047.42578-.17187.17969-.18359.15234-.19531.125-.20703.09375-.21875.05469-.23047.01953-.23047-.01953-.21875-.05469-.20703-.09375-.19531-.125-.1836-.15234-.17187-.17969-.3047-.42578-.24218-.5039-.17969-.5547-.10937-.58202-.03906-.59375h.83203l.03125.5625.07812.5078.1289.44141.16017.375.1914.30079.21094.22265.22265.13672.22657.04688.22656-.04688.22266-.13672.21093-.22265.19141-.30079.16016-.375.1289-.4414.08203-.50781.02735-.5625-.02735-.5625-.08203-.5-.1289-.4336-.16016-.36719-.1914-.29296-.21094-.21485-.22266-.1289-.22656-.04688-.22656.04688-.22266.1289-.21094.21485-.1914.29296-.16016.3672-.1289.43358-.07813.5-.03125.5625h-.83203l.03906-.58984.10937-.58203.1797-.54297.24218-.4961.30469-.41796.17187-.17578.1836-.15235.1953-.11718.20704-.08985.21875-.0586.23047-.01562m4.95312 0l.23047.01563.21875.0586.20703.08984.19531.11718.1836.15235.17187.17578.30079.41797.24609.4961.17969.54296.10937.58203.03906.58985-.03906.59375-.10937.58203-.1797.55468-.24608.50391-.30079.42578-.17187.17969-.1836.15234-.1953.125-.20704.09375-.21875.05469-.23047.01953-.23047-.01953-.21875-.05469-.20703-.09375-.19531-.125-.1875-.15234-.16797-.17969-.30469-.42578-.24218-.5039-.1797-.5547-.11327-.58202-.03516-.59375h.83203l.02735.5625.08203.5078.1289.44141.16016.375.1914.30079.21094.22265.22266.13672.22656.04688.22656-.04688.22266-.13672.21094-.22265.1914-.30079.16016-.375.1289-.4414.07813-.50781.03125-.5625-.03125-.5625-.07812-.5-.1289-.4336-.16017-.36719-.1914-.29296-.21094-.21485-.22265-.1289-.22657-.04688-.22656.04688-.22266.1289-.21093.21485-.19141.29296-.16016.3672-.1289.43358-.08203.5-.02735.5625h-.83203l.03516-.58984.11328-.58203.17969-.54297.24218-.4961.3047-.41796.16796-.17578.1875-.15235.19531-.11718.20703-.08985.21875-.0586.23047-.01562m4.95313 0l.38672.02735.35937.08203.32031.13672.28125.1875.23047.23437.17188.28516.10937.33594.03906.375-.02343.27343-.05469.23438-.08984.20312-.10938.16797-.13281.14453-.13672.1211-.28906.19922.23437.11718.20703.14844.1797.17188.15624.1914.1211.21485.09375.23046.05468.2422.01953.2578-.03515.3086-.10547.32422-.17188.32812-.23828.30469-.30469.26953-.375.21485-.21093.08203-.23047.05859-.24219.03906-.26172.01172-.26172-.01172-.23828-.03906-.22656-.0586-.20313-.08202-.35937-.21485-.28906-.26953-.22266-.30469-.16015-.32812-.08985-.32422-.03125-.3086h.83203l.02735.25.07812.23829.1211.21093.16015.1836.19531.15234.21875.11719.23829.07031.2578.02735.25391-.02735.2422-.07031.21874-.11719.1914-.15234.16016-.1836.125-.21093.07813-.23829.02734-.25-.02734-.2539-.07813-.23438-.125-.21484-.16015-.1836-.1914-.15234-.21876-.11328-.24219-.07422-.2539-.02344-.25781.02344-.23829.07422-.21875.11328-.1953.15235-.16017.18359-.12109.21484-.07812.23438-.02735.2539h-.83203l.01953-.2539.05469-.24219.08984-.22265.125-.20704.15235-.1914.1836-.17188.20702-.15234.23047-.13281-.28515-.19922-.14063-.1211-.1289-.14453-.11329-.16797-.08594-.20312-.05859-.23438-.01953-.27343h.78516l.02343.21484.06641.1914.10547.16798.13672.13671.16406.11329.1875.08203.20703.05078.22266.01562.21875-.01562.20703-.05078.1875-.08204.16797-.11328.13672-.13671.10156-.16797.0664-.19141.02344-.21484-.02344-.21485-.0664-.1914-.10156-.16407-.13672-.14062-.16797-.11328-.1875-.07813-.20703-.05078-.21875-.01953-.22266.01953-.20703.05078-.1875.07813-.16406.11328-.13672.14062-.10547.16407-.0664.1914-.02344.21485h-.78516l.03906-.375.10938-.33594.17187-.28516.23047-.23437.27735-.1875.32421-.13672.35938-.08203.38672-.02735"/><path fill="#ffffe0" fill-rule="evenodd" d="M429.95703 463.4375h22.17969v-10.1914h-22.17969v10.1914"/><path fill-rule="evenodd" d="M433.45703 455.07813h.50781v6.29687h-.78515v-4.49219h-1.39063v-.55469l.5625-.0664.25-.05078.23047-.08985.20313-.14453.17578-.20703.14062-.29687.10547-.39454m4.8125 0l.23047.01954.21875.05468.20703.08985.19922.1211.1836.14843.17187.17578.30078.42188.24219.49218.17969.54688.11328.57812.03906.58985-.03906.59375-.11329.58593-.17968.5547-.24219.5-.30078.42968-.17188.17969-.18359.15234-.19922.125-.20703.08984-.21875.0586-.23047.01953-.22656-.01953-.21875-.0586-.21094-.08984-.19531-.125-.1836-.15234-.17187-.1797-.30078-.42968-.2461-.5-.17968-.55469-.10938-.58593-.03906-.59375h.83203l.03125.5664.08203.5039.125.44142.16406.375.1875.30078.21094.22265.22266.13672.22656.04688.22656-.04688.22266-.13672.21094-.22265.1914-.30079.16407-.375.125-.4414.08203-.5039.02734-.56641-.02734-.5586-.08203-.5-.125-.4375-.16407-.36328-.1914-.29297-.21094-.21484-.22266-.13281-.22656-.04297-.22656.04297-.22266.1328-.21094.21485-.1875.29297-.16406.36328-.125.4375-.08203.5-.03125.5586h-.83203l.03906-.58985.10938-.57812.17969-.54688.24609-.49219.30078-.42187.17188-.17578.18359-.14844.19531-.1211.21094-.08984.21875-.05468.22656-.01954m4.95313 0l.23046.01954.21875.05468.20704.08985.1953.1211.1875.14843.16798.17578.30469.42188.24218.49218.17969.54688.11328.57812.03516.58985-.03516.59375-.11328.58593-.17969.5547-.24219.5-.30468.42968-.16797.17969-.1875.15234-.19531.125-.20704.08984-.21875.0586-.23046.01953-.23047-.01953-.21875-.0586-.20703-.08984-.19532-.125-.18359-.15234-.17188-.1797-.30078-.42968-.24609-.5-.17969-.55469-.10937-.58593-.03906-.59375h.83203l.03125.5664.08203.5039.125.44142.16015.375.19141.30078.21094.22265.22265.13672.22657.04688.22656-.04688.22265-.13672.21094-.22265.1914-.30079.16017-.375.1289-.4414.08203-.5039.02735-.56641-.02735-.5586-.08203-.5-.1289-.4375-.16016-.36328-.1914-.29297-.21094-.21484-.22266-.13281-.22656-.04297-.22657.04297-.22265.1328-.21094.21485-.1914.29297-.16016.36328-.125.4375-.08203.5-.03125.5586h-.83204l.03907-.58985.10937-.57812.17969-.54688.2461-.49219.30077-.42187.17188-.17578.1836-.14844.1953-.1211.20704-.08984.21875-.05468.23047-.01954m4.95312 0l.38672.02735.35938.08203.32421.13672.27735.1875.23047.23828.17187.28516.10938.33203.03906.3789-.01953.27344-.0586.23438-.08984.19921-.10938.17188-.1289.14453-.14063.1211-.28515.1953.23047.1211.20703.14453.1836.17188.15233.19531.125.21094.08985.23047.05469.24609.01953.2539-.03516.3086-.10156.32813-.17188.32421-.24218.3047-.3047.26952-.375.21485-.21093.08203-.22656.0625-.2461.03515-.26171.01563-.25782-.01563-.24218-.03515-.22266-.0625-.20703-.08203-.35938-.21485-.28906-.26953-.22265-.30469-.15625-.32421-.09375-.32813-.03125-.3086h.83203l.02734.25391.07813.23438.12109.21094.16015.1875.19532.15234.21875.11328.24219.07422.2539.02344.2539-.02344.2422-.07422.21875-.11328.1953-.15235.16016-.1875.1211-.21093.07812-.23438.02735-.2539-.02735-.25391-.07812-.23438-.1211-.21093-.16015-.1875-.19531-.14844-.21875-.11719-.2422-.07031-.2539-.02734-.2539.02734-.2422.07031-.21874.11719-.19531.14844-.16016.1875-.1211.21094-.07812.23437-.02734.2539h-.83204l.01954-.2539.05468-.23828.08985-.22656.125-.20704.15234-.1914.1836-.17188.20703-.15234.23437-.13281-.28906-.19531-.14063-.1211-.1289-.14453-.10938-.17188-.08984-.19921-.0586-.23438-.01953-.27344h.78907l.02343.21485.0625.1875.10547.16797.13672.14062.16406.10938.19141.08203.20703.05078.21875.01562.21875-.01562.20703-.05078.1914-.08203.16407-.10938.13672-.14062.10547-.16797.0664-.1875.01954-.21485-.01954-.21484-.0664-.1914-.10547-.16798-.13672-.14062-.16406-.10938-.1914-.08203-.20704-.05078-.21875-.01562-.21875.01562-.20703.05078-.1914.08204-.16407.10937-.13672.14063-.10547.16796-.0625.19141-.02343.21484h-.78907l.03907-.3789.10937-.33203.17188-.28516.23046-.23828.28125-.1875.32032-.13672.35937-.08203.38672-.02735"/></g></defs><use xlink:href="#d"/></svg>