<svg xmlns="http://www.w3.org/2000/svg" role="img" xmlns:xlink="http://www.w3.org/1999/xlink" viewBox="142.45 309.95 326.84 171.84"><defs><clipPath id="a"><path d="M144 311.67188h1v168.65625h-1zm0 0"/></clipPath><clipPath id="b"><path d="M144 311.67188h324v168.65625H144zm0 0"/></clipPath><clipPath id="c"><path d="M467 311.67188h1v168.65625h-1zm0 0"/></clipPath><clipPath id="d"><path d="M144 478h4v2.32813h-4zm0 0"/></clipPath><clipPath id="e"><path d="M154 478h7v2.32813h-7zm0 0"/></clipPath><clipPath id="f"><path d="M167 478h7v2.32813h-7zm0 0"/></clipPath><clipPath id="g"><path d="M180 478h8v2.32813h-8zm0 0"/></clipPath><clipPath id="h"><path d="M193 479h8v1.32813h-8zm0 0"/></clipPath><clipPath id="i"><path d="M199 480h2v.32813h-2zm0 0"/></clipPath><clipPath id="j"><path d="M206 479h9v1.32813h-9zm0 0"/></clipPath><clipPath id="k"><path d="M212 480h2v.32813h-2zm0 0"/></clipPath><clipPath id="l"><path d="M220 478h8v2.32813h-8zm0 0"/></clipPath><clipPath id="m"><path d="M234 478h7v2.32813h-7zm0 0"/></clipPath><clipPath id="n"><path d="M249 476h3v4.32813h-3zm0 0"/></clipPath><clipPath id="o"><path d="M260 478h8v2.32813h-8zm0 0"/></clipPath><clipPath id="p"><path d="M260 480h2v.32813h-2zm0 0"/></clipPath><clipPath id="q"><path d="M273 479h8v1.32813h-8zm0 0"/></clipPath><clipPath id="r"><path d="M273 479h2v1.32813h-2zm0 0"/></clipPath><clipPath id="s"><path d="M287 478h7v2.32813h-7zm0 0"/></clipPath><clipPath id="t"><path d="M287 480h2v.32813h-2zm0 0"/></clipPath><clipPath id="u"><path d="M300 479h8v1.32813h-8zm0 0"/></clipPath><clipPath id="v"><path d="M300 479h2v1.32813h-2zm0 0"/></clipPath><clipPath id="w"><path d="M313 478h8v2.32813h-8zm0 0"/></clipPath><clipPath id="x"><path d="M313 480h3v.32813h-3zm0 0"/></clipPath><clipPath id="y"><path d="M327 478h7v2.32813h-7zm0 0"/></clipPath><clipPath id="z"><path d="M326 480h3v.32813h-3zm0 0"/></clipPath><clipPath id="A"><path d="M339 480h9v.32813h-9zm0 0"/></clipPath><clipPath id="B"><path d="M340 478h2v2.32813h-2zm0 0"/></clipPath><clipPath id="C"><path d="M353 479h8v1.32813h-8zm0 0"/></clipPath><clipPath id="D"><path d="M353 479h2v1.32813h-2zm0 0"/></clipPath><clipPath id="E"><path d="M367 478h7v2.32813h-7zm0 0"/></clipPath><clipPath id="F"><path d="M366 480h3v.32813h-3zm0 0"/></clipPath><clipPath id="G"><path d="M379 479h9v1.32813h-9zm0 0"/></clipPath><clipPath id="H"><path d="M380 479h2v1.32813h-2zm0 0"/></clipPath><clipPath id="I"><path d="M393 480h8v.32813h-8zm0 0"/></clipPath><clipPath id="J"><path d="M393 479h2v1.32813h-2zm0 0"/></clipPath><clipPath id="K"><path d="M406 478h8v2.32813h-8zm0 0"/></clipPath><clipPath id="L"><path d="M406 480h3v.32813h-3zm0 0"/></clipPath><clipPath id="M"><path d="M420 478h7v2.32813h-7zm0 0"/></clipPath><clipPath id="N"><path d="M420 480h2v.32813h-2zm0 0"/></clipPath><clipPath id="O"><path d="M433 478h8v2.32813h-8zm0 0"/></clipPath><clipPath id="P"><path d="M433 480h2v.32813h-2zm0 0"/></clipPath><clipPath id="Q"><path d="M446 478h8v2.32813h-8zm0 0"/></clipPath><clipPath id="R"><path d="M446 480h3v.32813h-3zm0 0"/></clipPath><clipPath id="S"><path d="M460 478h8v2.32813h-8zm0 0"/></clipPath><clipPath id="T"><path d="M460 480h2v.32813h-2zm0 0"/></clipPath><clipPath id="U"><path d="M144 465h4v4h-4zm0 0"/></clipPath><clipPath id="V"><path d="M144 451h4v5h-4zm0 0"/></clipPath><clipPath id="W"><path d="M144 436h1v9h-1zm0 0"/></clipPath><clipPath id="X"><path d="M144 442h1v2h-1zm0 0"/></clipPath><clipPath id="Y"><path d="M144 423h2v8h-2zm0 0"/></clipPath><clipPath id="Z"><path d="M144 410h3v7h-3zm0 0"/></clipPath><clipPath id="aa"><path d="M144 399h4v3h-4zm0 0"/></clipPath><clipPath id="ab"><path d="M144 383h2v8h-2zm0 0"/></clipPath><clipPath id="ac"><path d="M144 383h1v2h-1zm0 0"/></clipPath><clipPath id="ad"><path d="M144 373h4v2h-4zm0 0"/></clipPath><clipPath id="ae"><path d="M144 358h4v5h-4zm0 0"/></clipPath><clipPath id="af"><path d="M144 343h3v8h-3zm0 0"/></clipPath><clipPath id="ag"><path d="M466 346h2v4h-2zm0 0"/></clipPath><clipPath id="ah"><path d="M144 330h1v8h-1zm0 0"/></clipPath><clipPath id="ai"><path d="M466 332h2v2h-2zm0 0"/></clipPath><clipPath id="aj"><path d="M144 317h3v7h-3zm0 0"/></clipPath><clipPath id="ak"><path d="M466 318h2v3h-2zm0 0"/></clipPath><g id="al" clip-path="url(#clip1)"><path fill="#fff" fill-opacity="0" fill-rule="evenodd" d="M0 0h1000v1000H0zm0 0"/><path fill="#d3d3d3" fill-opacity="0" fill-rule="evenodd" d="M162.15234 355.86719l-.23437.29297.0586.23437.11718.17188.17578.23437.29297.34766.11328.0586.11719-.17188.0586-.23438.17577-.17578.46485-.17578h.69922l.23437.29297.28906.8164.0586.17579.17578.23046.35156.23438.69922.69922.17188.17578.23437.34765.23438.41016.28906.58203.41015.46485.23047.23437.23438.17578.11719.23047.17578.29297.17187 1.16406v.23438l.0586.28906.05859.11719.11719.11719.34765.41015.11719.17188.17578.17578.17578.23437.11719.17188.17188.35156.05859.23438.23437.40625.23438-.0586-.17578.17578-.0586.92969h-.58203l-.23437-.11328-.34766.11328-.11719.11719-.05859.29297-.0586.17578-.11718.17187-.46484.29297-.0586.23438-.0586.11328v.64453l.0586.17187v.41016l.0586.0586v.40624l.05859.40625.11719.17579.05859.05859.23047.64062-.0586.29297v.69922l-.05859.58203v.23438l-.0586.23047-.05468.35156v1.92187l.05469.1172h.42578l-.36719.11718-.02344.35156.89063 1.16797 1.74219.53906 1.33984.35938v.53906l.08984.8086.53516.71484 1.51953.26953.89063-.08594.08984 1.16406.53516.1797 1.16015-.1797 2.05469-.98437 1.16016-.36328 1.8789-.17578 1.69531-.1797-.17968.71876-1.51563.08594-1.25.08984-.80469.26953-1.07421.8086.26953.71875.53515.89843-.17968.625-.26563.8086.26563 1.07812.625.89844.80468.17969 1.25-.1797-.26562.72267.09766.5039.05468.29297v.17188l.0586.29296v.40625l.17578.1172.35156.11718h.40625l.29297-.17578.11328-.11719.0586-.11719.11718-.23047.0586-.17578.35156-.46484.23047-.17578.17578-.0586.17578.0586.0586.17578.11718.98828.05469.46875.0586.17188.11718.23437.17578.0586.8164.05859h.28907l.11719.23437.05859.40625.0586.35156v1.10547l.11718.29297.11719.34766.28906.69922.17578.35156.58203.7539.35157.17579.17187.0586.46875.23437.64063.46484.34765.23438.29297.17578.29297.05468.23047.0625.8164.34766.29297.17578.11328.17188.35157.35156.11719.17578.52343.64063v.28906l.0586.35156v.34766l.05859.35156.0586.28906.11718.0586.17188.05859h.17578l.58203.23437.17578.1172.17578.28905.17578.23438.11328.23437.29297.23047.11719.11719v.41016l.0586.05468.28906.23438.23437.11719.0586.11718.11718.17188.0586.11719.23047.23437.05859.17578.23437.0586.1172.05859-.1172.11328-.05859.11719v.11719l-.11719.29296-.11719.28907v.58203l.17579.11719.11718.05859.0586.11719.11719.11719.11328.05859.17578.34765.0586.35157.05858.40625v.17578l-.05859.17578-.11719.69922v.17187l.1172.17579.29296.29296h.40625l.17578.1172.11719.17187.11719.29296v.23438h-.52735l-.23047-.23438h-.23437l-.17578.0586-.0586.69922.0586.34765.11719.17579.17578.41015.11718.23047.28907.46875.17578.05469h.52344l.23437.0586.75781.64062.0586.29296v.23438l.05859.0586.23047.34765v.35156l-.11719.17188v.29297l.29297.28906.29297.17578.17187.0586.29297.17577.29297.1172.58203.40624.28906.23438.29297.17578.21875.16015.01563.01172.23047.17579.64062.52343.17578.23438.1172.17578.17577.17578.11328.17188v.64062l.1172.17578.46874.11719.58203.11719.23438.05859.23047.11328.29297.11719.11328.0586.58593.35156.28907.17187.17578.0625.17578.05469.17578.0586.69922.35155.28906.17579.23438.05468.28906.17578.23437.1172.64063.40624.29297.11719.17187.0586.23438.05859.41015.05859.23047.0586.23438.11718.0586.17188-.41017.17578.46875.0586.0586.29296.11328.23438.17578.05468.23438.0586.17578.05859.40625.11719.64062.23437.11719.17188.0586.23437v.17578l-.0586.1172-.0586.40624.23438.23438.11719.05859.34766.11719.64062.23047.17578.11718.28906.1172.17578.17577.23438.46485.58203 1.10546.17578.17579.34766.17578.17578.11719.35156.11718 1.04688.52344.23437.0586.46485.11327.29297.0586.46484.17578.75781.58203.23438.23438.34765.46484.17578.17578.28907.23438.8164.69921.29297.17579.28906.28906.29297.17578.29297.28906.69531.64063.17578.17578.29297.23437.28907.23438.46875.28906.64062.58203.34766.23438.23437.29297.34766.34765.35156.46485.9336.99218.34765.40625.11719.17579.23437.05859.11328.11719.64454.17578.23047.11328.23437.0586.29297.17577.23047.1172.9336.69921.40624.40625.23438.17578.40625.17578.23437.11719.8164.34766.34766.23437.23438.11719.29297.28906.23047.11719.7578.35156.35157.17188.23047.05859.29297.11719.23437.0586.8711.17577h.8164l.46875.23047.17188.0586.875.69921.46484.1172.29297.05858.17578.0586.23047.0586.46875.05859.34766.05859.35156.0586.40625.05859h.29297l.17187.0586v.23046l.17578.17578h.29297l.34766.0586.35156.05859.69922.11719h.64063l.46484-.23438.29297-.17578.17187-.11719.41016-.17187.28906-.17578.9336-.46485.46875-.29297.52343-.29296.46485-.17188.46484-.17578 1.05078-.46485.28906-.11718.41016-.11719.28906-.11719.52735-.17578 1.51562-.69922.58203-.34765.28907-.0586.29297-.0586.34765-.11718.875-.23047.35156-.11719h.11329l.23437-.05859.875-.23437.23438-.0586h.8125l.35156-.0586.8164-.11718.17188-.0586.35156-.05468.29297-.0586.23047-.05859.8164-.17578.17579-.0586h.34765l.23438-.05859.46484-.11718.75781-.17188.23438-.0586h.34765l.41016-.11718.28906-.0586 1.28516-.05859h.28906l.41016-.0586.23047-.05858h.17578l.875-.1172h.40625l.41015-.11718h.34766l.35156-.11328.8711-.0586h1.75l1.04687.28907.41016.11719.28906.11718.35156.11719.28907.11719 1.05078.17187.28906.0586h.29297l.29297.05859.17187.0586.41016.05859.17187.0586.1172.05858h.11718l.11719.0586.35156.0586h.11328l.41016.0664 1.92187.39453 1.92578.39453 1.51953.44922 1.69532.71875 2.14453.80469 1.60547-.71875 1.42968-.80469 1.16016-1.07813 1.25-.44921 3.03516-.71875 1.875-.35938 2.14453-1.34765 2.23437-1.25391 2.5-1.25781 1.69531-.44922 1.78516-.17969 1.16016-.26953.625.53906 1.33984-.26953.71485-.98828.98437-1.34375.44531-.17969.80469-.35937 1.875-.53907 1.78516-.44921 1.25-.26954 1.16015-.08984 1.69922-.08984 1.96094-.26954 1.25-.08984h.53906l.625-.08984h.89063l2.14453-.17969 2.41015-.17969 2.58985-.08984 1.69531.17969 1.60938.08984 1.42968.35938 1.16016.71875 1.875.98828 1.16015 1.52734.26563.71484.6289.08985.35548.89844.53515.53906.53516 1.52734 1.07422.35938h.53515l-.80469.53515.08985 1.70703.71484 2.69532.89063.80468.89453.98829.71484 1.2578 1.78516.53907 1.51953-.17969.35547 1.34375 1.60937-.80469.98047-.53906.26953.26953.31641-.21484.21875-.14453.80078.44922.44922-.35938h.35547l.53515-.26953.53907-.71875.53515-.26953.625-.98828 1.16016.44922.83984.3711 1.39454.61718 1.6953-.17969h1.60548l1.78515.08985.17969-1.70704.53516-1.34375.80468.26954.4922.84765.40233.40625-.08984.53906v.35938l.71485.44922.71093-.26953h1.42969l.35938.98828.4453 1.25781.71485 1.34375 1.25.6289 1.69531.62891.71485-.17969.17969-.53906.98046-.08984.44922.35937.08594 1.25782-.26563.6289-.53515.17969v.53906l.71484.98438.26563.53906.98437.98828.80078 1.07813-.26562.35937-.08985.89844-.625 2.33203-.35546 2.0664-.08985 1.79298-.17969.71875-.08984.53906v1.4375l-.98047 1.88281-.35937 1.70703-.53516.89844-.80469 1.16797-.26562.53906 2.05469 1.2539.08593.35938-.35546.53906-.08985-.17968v.80859l.08985 1.4375-.44532.71484-1.07422.09375-.26562.71485.53515.89844.8047.71875 1.16015.80859 1.33984.26953.44531.35938-.35546.44921-1.78907-.08984-1.25-.44922-.71484-.71875-.625-.08984-.17578 3.58984-.1875 1.3086h89.35937V311.70313h-55.26953v49.08203l.76172.125 3.28906.54296 2.02344 2.83594v2.7539l2.35156.33204 2.34766.33203h4.05078l-1.3789 4.16016-2.02344.70703-2.02344.70312-.54297.34375-2.59375 1.6172-.1875.11718-2.02344-2.07813-.73046-2.74218-2.67188-2.07813-1.375-3.5-.0664-.08203-1.95704-2.67188 2.75-1.41796v-49.08204H294.42187v91.41407l.1172.03125.1328.01172.07422.07421.10547.04688.08985.0586.08593.05859.08985.0586.29687.29687.0586.08984.03125.11719.02734.11719.01563.13671-.03125.1172-.0586.08983-.0586.08594-.04296.10547-.04688.10156-.02734.1211v.14453l.17578.26953.14844.14844.07422.08594.07422.07421.04296.10547.0625.08985.0586.08593.04297.10547.0586.08985.04687.10156.04296.10547.0586.08594.11719.17968.07421.07422.0625.08594.0586.08984.04297.10547.0586.08985.05858.08593.0625.08985.0586.08984.04297.10156.11719.17969.07421.07422.0586.08594.07422.07421.08984.0586.10547.04687h.14844l.1328-.01562.13282.01562.10156-.04687.07422-.07422.04688-.10156-.01563-.13281v-.14844l-.04687-.10547-.02735-.11719-.04687-.10156-.02735-.1211-.04296-.10156-.0625-.08984-.04297-.10156-.04297-.10547-.03125-.11719-.01563-.13281-.01171-.13672.08593-.0586.0586-.08593.12109-.03125.04297.10547.01562.1328v.1172l.0586.10156.0586.08984.08983.0586.14844.14843.0586.08985.04296.10547-.01171.10156.08593.0586.10547.04687.08594.0586.08984.05858.07422.07422-.11719.02735-.10546.04687-.08594.0586-.07422.07421-.0586.08985-.0625.08594-.02734.12109-.04687.10156-.04297.10547-.03125.11719-.01172.13281-.01563.13281v.14844l.02735.11719.04687.10547.04297.10156.0586.08984.07421.07422.08985.0586.07422.07421.08984.0586.0586.08984.04296.10547.04688.10156.11719.03125.1328.01563h.14845l.11718-.03125.10547.04297.04297.10547.04688.10156.02734.1211L299.5 410l.02734.11719.03125.1211.02735.11718.10547.04297.10156.04687.13281-.01562.14844.14844.0625.08593.07422.07422.07031.07422.08984.0625.10547.04297.10156.04297.1172.03125.13671.01562.11719-.03125.07422-.07422.02734-.11718-.01172-.13282-.03125-.12109-.02734-.11719.04297-.10547h.11719l.08984.0625.11719.02735h.14843l.13282.01562h.14843l.13282.01563.1328-.01563h.14845l.1328-.01562.13282-.01172.13672.01172.11719-.02735.13281-.01562.1914-.0586-.05859.17579-.01562.1328-.02735.1211-.01562.13281-.0586.08594-.1328.01563-.10548.04687-.10546.04297-.1172.03125-.11718.02735-.26563.03125h-.14843l-.13281.01562-.07422.07422.05859.08594.14844.14843.11719.1797.07421.0703.08985.0625.08984.0586.08594.0586.08984.05858.10156.04297.10547.0625.10547.04297.08594.0586.10547.04687.10156.04297.17969.11719.0586.08984-.04298.10156-.04687.10547.01562.13281.22266.22266.0586.08985.04296.10156.03125.1211.04297.10155.01563.13282.03125.11718.01171.13672.03125.11719.14844.14844.10156.04297.10547.04296.1172.03125.1328.01563.13672.01563h.11719l.11719-.03125.08984-.0586.04297-.10547.04688-.10156.04296-.10547.03125-.11719.01172-.1328v-.14845l-.01172-.1328-.01562-.13282-.03125-.11719-.04297-.10547-.04688-.10547-.04296-.10156-.04297-.10547-.01563-.13281.01563-.13281.02734-.11719.03125-.11719.02735-.1211.04687-.10155.08984-.0586.08594-.0625.07422-.07422.08984-.05859.22266-.22266.0586-.08593.07421-.07422.11719-.17969.0586-.08594v-.14844l-.07423-.07421-.10156-.04688-.10547-.04297-.10156-.04297-.0586-.08984-.04687-.10547-.02734-.11719.08984-.05859.11719-.03125.10156-.04297.17969-.11719.14844-.14843.01172-.13282-.01172-.10546-.08985-.0586-.1328.01563h-.14845l-.1328.01562-.13282-.01562-.1211-.03125-.08593-.0586-.07422-.07422-.0586-.08984-.0625-.08594-.11718-.17969-.0586-.08593.03125-.1211.08594-.05859.1211-.03125.05859-.08594v-.1211l-.03125-.11718-.0586-.08984-.05859-.08594-.04687-.10547-.02735-.11719-.01562-.1328.0586-.08985.07421-.07422.08984-.0586.1172-.17968.07421-.07422.0586-.08594.14843-.14844.1211-.03125.1328-.01562.13282.01562.07422.07422.04297.10547.01562.13281-.03125.1172-.11719.03124-.1328.01172-.14844.14844-.04297.10547-.04688.10156-.02734.1211-.03125.11718v.14844l.03125.11719.04297.10546.05859.08985.07422.07031.07422.07422.11719.03125.12109.02734.11719-.02734.1328-.01563h.1172l.08984.0586.07422.07422.04687.10546.0586.08594.10156.04688.13281.01562.10547.04297.08594.0586-.01172.10546-.07422.07422-.17969.11719-.05859.08984-.08984.0586-.07032.07422-.07421.07421-.0625.08985-.02735.11719-.01562.1328.01562.13282-.01562.13281v.14844l.01562.13281.02735.1172.03125.12108.07421.07422.08985.0586.08594.0586.08984.05858.11719.03125v.08594l-.10157.04688-.08984.0586-.26563.03124-.11718.02735h-.14844l-.10547.04296-.10156.04688-.0586.08984-.0625.23438-.01171.13281-.03125.1211-.01563.1328v.29298l-.01172.1328.01172.13673.01563.1328.1328.01563.13282.01172.1211.03125.08593.0586.07422.07421.04688.10547.04296.10157.01563.1328v.44532l-.01563.13281v.44532l.03125.26562.02735.11719.01562.13281.03125.11719.08594.21094.03125.26562v.14844l-.03125.11719-.02734.11718-.03125.1211-.02735.11719-.03125.11718-.03125.1211-.01171.1328-.01563.13282.08984.0586.1172-.03125.10155.01562.04688.10547-.03125.26562v.44141l-.04297.10547-.04688.10547-.04296.10156-.04297.10547-.0586.08594-.03125.12109-.04296.11719-.03125.11719-.01563.1328.01563.13282.05859.08984.10547.04688.08594.0586.05859.08593-.01172.13672-.03125.11719-.04297.10156v.44531l-.01562.13281v.14844l-.03125.11719-.04297.10547-.02735.11719-.04687.10546-.04297.10157-.03125.12109-.02734.11719-.03125.13281-.03125.11719-.02735.11719-.04297.10546-.03125.1172-.03125.12108-.01171.13282-.01563.13281v.29688l.02734.11718v.14844l.04688.39844.02734.11719.0586.08984.12109.03125h.14844l.13281-.01563.0586.08985v.11719l-.0586.08984-.08984.0586-.10157.04296-.10546.04688-.08985.05859-.08594.0586-.13671.01562-.1172-.03125-.1328-.01563-.10157.04688-.0625.08594-.01172.13671-.01562.13282-.03125.11719-.02735.11718-.01562.13281-.03125.1211v.29687l.01563.13282.03125.11718v.14844l.01171.13281v.14844l-.02734.11719-.04688.10156-.02734.1211-.03125.11718-.0586.08985-.07421.07421-.10156.04297-.10547.04688-.11719.02734-.1211.03125-.10156-.04687.0586-.08594.10547-.04688.02734-.11718.03125-.11719.02734-.1211.03125-.11718v-.14844l.01563-.13281-.03125-.11719-.04297-.10547-.10547.01563-.07422.07422-.10156.04296-.08984.0625-.07422.07422-.04297.10157-.01563.1328-.03125.1172L304.25 426l-.03125.11719-.02734.11719-.03125.12109-.02735.11719-.03125.11718-.04297.10547-.08984.0586h-.08984l-.1172-.03125-.03124-.08594.01562-.13672-.03125-.11719v-.14844l-.01171-.1328v-.14844l-.0625-.23438-.02735-.1211-.04297-.10156-.04687-.10546-.0586-.08594-.05859-.08985-.04297-.10546-.0625-.08594-.14844-.14844-.0703-.07422-.10548-.04687-.10547-.04297-.10156-.04297-.29687-.29688-.08985-.07421-.08594-.0586-.10546-.04297-.08985-.0625-.08594-.0586-.10546-.04296-.08985-.0586-.08594-.0625-.07421-.0703-.10547-.04688-.08594-.0586-.10547-.04296-.08984-.0625-.10156-.04297-.10547-.04297-.08594-.0586-.10547-.04687-.10547-.04297-.10156-.04687-.08985-.0586-.10156-.04297-.10547-.04296-.08984-.0625-.11719-.02735-.13281-.01562-.13281.01562H299.75l-.13281.01563-.11719-.03125-.08984-.0586-.07422-.07422-.08985-.05859-.10156-.04688h-.14844l-.12109-.02734-.10156-.04297-.07422-.07422-.11719-.17968-.08984-.0586-.10156-.04297-.08985-.0625-.10547-.04296-.08984-.0586-.08594-.0586-.10547-.04687-.0586-.08594-.05858-.08984-.04297-.10547-.04688-.10156-.07422-.07422-.08594-.0586-.07421-.07421-.08985-.0586-.22265-.22265-.04297-.10547-.03125-.26563.10547-.04296h.14453l.10547.04296.07421.07422.08985.0586.08594.0586.10546.04687.08985.05859.14844.14844.0703.07422.14845.14843.0625.08594.07421.07422.08594.0586.07422.07421.08985.0625.08984.0586.08594.05859.26953.17578.10156.04688.10547.04296.10156.04297.04688-.07421.05859-.08594.07422-.07422.07031-.07422.10547.04297.07422.07422.0586.08984.04296.10156.04688.10547.04296.10547.1211.02735.11719-.02735.07421-.08984.04297-.10547.0586-.08985.07422-.07421.10546-.04297.1172-.02735.1328.01172.08985.0586.14844.14843.05859.08985.04297.10547.04687.10156.04297.10547.04297.10156.10547.04688.10547.04296.13281.01563.08594-.0586.0586-.08984.07421-.07422.10547-.04297.11719.02735.10547.04687.10156.04297.10547.04297.10156.04688.17969.11718v.11719l-.01563.13281.01563.13281.01562.13672.0586.08594.10156.04688.1211.02734.11718.03125h.14844l.11719-.03125.05859-.08984.17969-.1172.05859-.08983.07422-.07422.0586-.08594.11718-.17969.17969-.11719.11719.03125.08984.0586.04297.07422-.01563.1328v.1172l.08985.05859h.14843l.13282-.01563.1328-.01171.26563-.03125.10547-.04297.11719-.03125.1211-.02735.07421-.07421.07031-.07422.0625-.08985-.01562-.10547-.04688-.10156-.10156-.04297-.10547-.01562-.11718.02734-.26563.03125h-.14844l-.07421-.07422-.08985-.0586-.11719-.03124-.11718-.02735-.13282-.01562h-.14843l-.13282.01563h-.29687l-.10547-.04688-.14844-.14844-.04297-.10156-.05859-.08984.22266-.22266.08593-.0586.10547-.04296.11719-.03125.13281-.01563.13281.01563.13672.01562.10157.04297.1328-.01172.08985-.0625.10156-.04297.0625-.08984-.04687-.10156-.08984-.0586-.1172-.03125-.10155-.04296-.0586-.08985-.0625-.08984v-.11719l.01563-.13281.10547-.04688.07421-.07031v-.1211l-.08984-.05859-.03125-.11719.08985-.05859.07421-.07422.04297-.10547.0586-.08984.04687-.10156.01563-.13281v-.14844l-.04688-.10547-.04297-.10156-.08984-.0586-.13281-.01562-.10157-.04297-.13671-.01563-.1172-.03125h-.4453l-.13282-.01562-.13281-.01172-.13281-.01563-.11719-.03125h-.14844l-.13281-.01562-.13281-.01172-.26563-.03125-.1211-.04297-.08593-.0586-.07422-.07421v-.14844l.01172-.13281.10547-.04688.10156-.04296.13281-.01563h.15235l.13281-.01562h.29297l.1211.03125.10156.04296.08984.0586.23438.0625.12109-.04688.08984-.05859.10156-.04297.13282-.01562.10547.04296.10156.04688.13281.01172.1211-.02735h.14453l.12109-.03125.11719-.02734.10547-.04687.07421-.07422.08594-.0586.14844-.14843.0586-.08594.04687-.10547.02734-.11719.01563-.10547-.10156-.04296-.08985-.0586-.11719-.03125-.10546-.04297-.08985-.0625-.07422-.08594-.07422-.07421-.10156-.04297-.10547-.04688-.10156-.04297-.0586-.08984-.04687-.10156-.08594-.21094-.0625-.08594-.05859-.08984-.07422-.07422-.08594-.0586h-.26953l-.11719.03126-.08984.05859-.10156.04297-.13281.01562-.10547-.01562-.02735-.11719-.0625-.08984-.11718-.03125-.10157-.04297-.14843-.14844-.03125-.11719-.01563-.10546.07422-.07422.17969-.1172.11719-.02733.11718-.03125.13672.01562.10156.04297.10547.04297.10156.04687.10547.04297.1172.03125.1328.01563.1172.02734.1328.01563.10547-.01563.08985-.0586-.07422-.07421-.10547-.04297-.07422-.07422-.07422-.08984-.14844-.14844-.08593-.0586-.08985-.05859-.07422-.07422-.08984-.0586-.10156-.04687-.1211-.02734-.10156-.04688-.10547-.04296-.11719-.03125-.10156-.04297-.1211-.03125h-.14843l-.11719.03125-.10546.04297-.08594.0625-.17969.11718-.08594.0586-.08984.0586-.10547.04687-.08594.05859-.10547.04297-.10156.04297-.10547.04687-.07422.07422-.05859.08985-.0586.08593-.04687.10547-.0586.08594-.07421.07422-.13281-.01172-.1172-.03125h-.11718l-.07422.07422-.08984.0586-.07422.07421-.08984.0586-.08594.05859-.10547.04687-.10156.04297-.13672.01563-.10156-.04297-.14844-.14844-.10547-.04688h-.08594l-.10547.04688-.10156.04297-.1211.03125-.11718-.03125-.07422-.07422v-.11719l.03125-.1211.07422-.0703.0586-.08985.07421-.07422.11719-.03125.10547-.04296h.29297l.13281-.01563.13672-.01563.10156-.04296.08985-.0586.10156-.04687.08984-.0586.13281-.01171.08985.05859.13281.01172.08984-.0586.08594-.05859.10547-.04297.08984-.0586.08594-.0625.08985-.05859.14843-.14843.0586-.08594.05859-.08985.10547-.04296.13281-.01563.11719.02735.1211.03125.05859-.0586.05859-.08984.03125-.26563.02734-.11719.10547.01172.13281.01563.10157-.04297.08984-.0586.0586-.08984.07421-.07422.0586-.08984.04687-.10156.01172-.13281-.01172-.13282-.04687-.10547-.14844-.14843-.0586-.08985-.05859-.08594-.04297-.10546v-.44532l.01563-.1328v-.14845l.01172-.1328-.0586-.0586-.08984.0586-.10156-.04298-.17969-.11719-.08594-.05859-.0625-.08984-.0586-.08985-.07421-.07421-.08594-.0586-.1211.03125-.10155.01172-.10547.04688-.08594.05859-.10547.04297-.14844.14844-.08984.05859-.08594.0586-.08984.0625-.10547.04296-.13281.01563v-.1211l.10547-.04297.11718-.03125.07422-.0703.04297-.10548v-.14844l-.02734-.11718-.14844-.14844-.13281-.01563h-.14844l-.11719.03125-.10547.04297-.10156.04297-.08984.0625-.11719.02735-.07422-.07422.01172-.13281-.04297-.10157-.04297-.10547-.08984-.05859-.11719.02734-.1211.03125-.11718.03125-.10156.04297-.1211.03125-.10156.04297-.10547.04297-.08984.0586-.10156.01562v-.11719l.01562-.13281-.0586-.08985-.07421.04297-.14844.14844-.0586.08985-.07421.07421-.04688.10547-.04296.10156-.07422.07422-.0586.08985-.07422.07422-.05859.08593-.07422.07422-.08984.0625-.07422.07031-.07422.07422-.10156.01563-.13281.01562-.10547-.04296v-.1211l.14843-.14844.04297-.10156.0586-.08984.04687-.10156.04297-.10547.0586-.08985.03124-.11719.04297-.10156.03125-.1211.02735-.11718.04687-.10547.04297-.10156.04297-.10547.07422-.07031.08984-.0625.08985-.0586.10156-.04296h.29687l.26563-.03125.10547-.04297-.07422-.07422-.11719-.03125-.10547-.04297-.08984-.0586-.10156-.04687-.08985-.0586-.10156-.04296-.10547-.04297-.08984-.0625-.08594-.0586-.10547-.04296-.10156-.04297-.1211-.03125-.11718-.03125-.10157-.04297L297.5 410.25l-.10156-.04297-.08985-.0586-.04296-.10546-.01563-.13281.10156-.04297.13281-.01563.13672.01563.13282-.01563.10156-.04297.0586-.08984.01562-.10547-.08985-.0586-.07421-.07421-.10157-.04297-.08984-.0586-.14844-.14843-.04297-.10547-.01562-.13281v-.29297l-.0586-.08985-.08984-.05859-.07422-.07422-.04297-.10547-.03125-.11718-.0586-.08985-.07421-.07422-.11719-.02734-.07422-.07422-.08984-.0586-.08984-.0625-.08594-.05859-.07422-.07421-.0586-.08594-.04687-.10547-.08594-.0586-.14843-.14843-.19532-.0586-.1328.01563-.10157.04297-.07422.07422-.04688.10156-.04296.10547-.0586.08984-.0586.08594-.29687.29687-.08984.0586h-.08594l-.0625-.08594-.04297-.10547.03125-.11719.0586-.08984.02734-.11719-.01172-.13281-.08984-.0625-.10547.04688-.11719.02734-.11719.03125-.26953.17578-.10156.04688-.11719.02734-.10546.04687-.08985.0586-.10156.04297-.0586-.08594-.04687-.10547.01563-.13281.04687-.10547.07031-.07422.07422-.07031.0586-.08985v-.14843l-.04297-.10547h-.23829l-.10156.04687-.03125.11719-.02734.11719-.03125.1211-.07422.04296-.13281.01563-.07422-.04688-.04297-.10156-.04297-.10547-.04687-.10156-.04297-.10547-.1211.03125-.10156.04297-.13281.01562-.11719.03125-.10547.04297-.08984.0586-.10156.04687-.1211.02734-.13281.01563-.10156-.04297-.0586-.08985-.04687-.10546-.04297-.10157-.04297-.10546v-.1172l.0586-.08984.08593-.05859.17969-.11719.10156-.04687.10547-.04297.10547-.0586.10156-.04296.08985-.0625.10156-.04297.10547-.0586.10156-.04687.08984-.0586.10547-.04296.10156-.04297.08985-.0625.10156-.04297.13672-.01563.11719.03125.10156.04297.1211.03125.10156.04297.10546.04688.10157.04296.10547.04297.10156.04688.10547.04297.10156.04297.10547.04687.08594.0586.10546.04296.1172.03125.10546.04297.10156.04688.08985.0586.10547.04296.10156.04297.10547.04687.11719.02735.10156.04687.1211.02735h.14843l.08594-.0586.01562-.10156.0586-.08984-.02735-.1172-.07422-.07421-.11719-.17969-.07421-.07422-.08985-.07421-.17969-.1172-.08593-.05859-.10547-.04296-.10156-.04688-.26954-.17578-.05859-.08985-.07422-.07421-.0586-.08985-.04296-.10156-.03125-.11719-.01563-.13672v-.5625l-.01171-.1328-.01563-.13282-.03125-.11719-.01562-.13281-.01172-.13281-.03125-.1211-.22266-.22265-.0586-.08594-.01562-.10547.03125-.11719.13281-.01562v-91.41406H172.9922v1.45312l-.0586.23438-.35156 1.05078-.17187.52343-.1172.34766-.17577.41016-.11719.17187-.23438.29297-.23046.0586h-.35157l-.11718.05859-.23047.40625v.29297l.11719.17578.23046.23047.1172.23437.64062.75781.29297.46485.17578.23437.23047.35156.23437.34766.64063.8164.17578.46485.17187.41016.11719.69531.17578.46875.11719 1.39844.0586.46484v.875l.11718 1.04688v4.78125l-.0586.46484-.35156 1.28125-.17578.52344-.11328.41015-.35156.9297L172.93359 336l-.23437.58203-.11719.17578-.17187.34766-.17578.40625-.35157.8164-.0586.29297-.11327.29297-.11719.28906-.0586.17579-.11718.875-.0586.40625-.05859.11718-.0586.17579-.05859.17187-.23047.52734-.11718.17188v.23437l-.11719.23438-.0586.17187-.17577.58594v.28906l-.0586.17579v.29296l-.0586.11329-.05859.52734v.17187l-.05468.23438v2.6211l-.17578.8164-.1172.17578-.17577.23438-.1172.17187-.11327.23438-.58594.93359-.23047.28906-.29297.46485-.17578.23437-.28906.35156-.35156.69922-.11328.23047-.17579.41016-.17578.23046-.40625.52735-.8164.69922-.29297.17187-.28906.23438-.17579.11719-.17578.17578-.52344.40625-.52734.17578-.17187.17578-.23438.05469-.64062.17578h-.75782m12.21094 31.02344l-1.07422.44921.35938.89454 1.25-.71485.44531-.53906-.98047-.08985"/><path fill="#d3d3d3" fill-opacity="0" fill-rule="evenodd" d="M201.50781 416.59766h-.89453l.44922.6289.98047.35938.80469-.08985.4453-.98828-.17577.08985-.71485-.35547-.89453.35547m154.6211 59.0703l-.0586-.52343v-.29297l.11328-.29297.0586-.23046.46875-.46875h.11328l.11719-.11329.11718-.05859h.17579l.23437-.0586h.34766l.23437.0586.11719.0586.23047.17187.0586.17578.11718.58203v.29297l-.11719.17578-.17187.28906-.17579.17579-.52734.52343-.23047.23438-.11719.0586h-.17578l-.11718-.0586-.40625-.29297-.17579-.11719-.11718-.0586-.0586-.11327-.05468-.1172m6.64062-10.95702l-.0586-.17188v-1.10937l.0586-.17188.17578-.0586.17188-.05858h.17578l.23437-.0586.1172.0586.05858.69921-.05859.17188-.11719.17578-.11718.0586-.23438.52343-.11328.0586h-.23438l-.05859-.1172m9.61328-14.39062l-.11719-.17578v-.69922l.29297-.875.1172-.17187.17577-.35156.11328-.23047.1172-.29297.35155-.75781.1172-.23047.17187-.23438h.17578l.11719-.0586h.64062l.11719.0586.23437.23438.17188.11328.35156.29297.11719.11718.11328.17579v.11328l.11719.05859.11718.11719v.69922l-.05859.17578v.23047l-.0586.17578-.34765 1.05078-.11719.23047-.11719.23437-.11718.0586-.23047.23437-.64063.28906h-.875l-.41015-.11718-.64063-.46485"/><path fill="none" stroke="#bebebe" stroke-linecap="round" stroke-linejoin="round" stroke-miterlimit="10" stroke-width=".5" d="M467.95703 311.69531H144.02734v168.625h323.9297v-168.625"/><g clip-path="url(#a)"><path fill="#fff" fill-opacity="0" fill-rule="evenodd" d="M144 475.89063v4.4375h.0039H144V311.67188h.0039H144v164.21875"/></g><g clip-path="url(#b)"><path fill="#fff" fill-opacity="0" fill-rule="evenodd" d="M144.0039 480.32813V311.67188h71.01173v93.08203l-.1797.12109-4.26171 1.9414-3.27344 2.5-1.16406 1.19923-4.4375-.27735-2.125 3.51563-2.3125.5625-4.4414.02734-4.4375 1.21094-4.4375-.05078-4.4375-.15625-4.44141.03906-4.4375.57812-2.51563 2.22657-1.92187 1.14453-3.69532 3.29297-.74218 1.11718-3.03516 3.32422-1.40234 3.5625-1.14453.875 1.14453 1.24219.7539 3.19531.375 4.4375-.3125 4.4375-.0625 4.4414.02344 4.4375 3.4375 4.4375.22266.14845.58593-.14844 3.85157-.97656 4.4375-.05079 4.4375.38282 4.4414-1.04688 4.4375-1.64062 3.54688-1.10547.89062-.0586 4.4375-.6875 4.4414-2.76171.98048-.9297 3.45703-2.90233 2.02734-1.53907 2.41016-.49219 4.4375-.85937 3.95703-3.08594.48438-.32422 4.4375-1.64062 4.4375-2.13281.66015 4.09765-.66016 1.57813-1.98046 2.85937 1.98047 3.83985 4.4375-.21875 4.4375-.41016 4.4414-1.71484 3.66797 2.9453.76953.6875 4.4375 1.47267 4.4375-.26172 4.4375 2.02734 4.4414.04297 4.4375-.375 4.4375-1.4375 2.50391-2.15625 1.9336-3.98828.4336-.45313-.4336-.67578-.75781-3.76172.7578-2.95312.96876-1.48438-.96875-.8125-4.4375-2.50781-4.4375 2.3125-.96485 1.00781-3.47265.59766-4.4414.19531-3.73048 3.64453-.70703.91797-4.4375 1.34766-4.4375.1914-.64844-2.45703-3.78906-3.71875-4.4414.34375-4.4375.0625-4.25782-1.125 3.85156-4.4375-4.03125-4.01172-4.4375-.40234-.01953-.02344-1.19922-4.4414-3.21875-3.07422-4.4414-.9375-4.4375-.35156-.13281-.07422.1328-.47657 4.4375-1.22656 4.44142-1.20312 1.48046-1.53125 2.88282-4.4375-4.21875-4.44141-.14453-.1211v-93.08202h128.71093v112.79296l-2.49219 2.60547 2.4922 2.44922 1.83593 1.98828 2.58203 4.4375.01953.01953.01953-.01953 2.6172-4.4375-2.63673-2.65234-1.9375-1.78516-2.5-2.60547V311.67188h17.7539v125.0625l-3.64062 3.64843 3.64063 3.6211 4.4375.04296v16.85547l-1.67969 1.67188 1.67969 1.6211 4.14844-1.6211-4.14844-1.67188v-16.85546l1.47656.77343 2.96094 3.08594.53906 1.35547 3.89844 3.64453.51562.79297.44532 4.4375 3.48046 3.89844 3.69141-3.89844.7461-.92969 3.65234-3.50781-3.65235-3.79688-.41406-.64062-4.02344-3.89063-2.4453-.55078 1.32812-4.4375-3.32422-2.98047-4.4375 2.6875-4.4375-3.17187-4.4375-.1836v-125.0625h8.875v108.17579l-2.63672 2.78125L370.35547 426l3.16015-3.3711-3.16015-2.78124V311.67187h22.1914v143.125l-3.42578 3.33985 3.42579 2.96094 4.4375-.83204 1.35546 2.3086 3.08594 3.39453 4.4375.49219 2.9961.55469 1.4414 1.64453 1.60547 2.79296 2.83203 2.6172 4.4414-1.20704 1.36329-1.41015-.47656-4.4375-.88672-.98047-4.4414-1.79297-.50782-1.66797-3.92969-3.92578-3.53515-.51172-.90235-.92969-4.4375-2.10156-4.4414.64453-4.4375-.95313v-143.125h75.44921v168.65625H144.00391"/></g><path fill="#50fcfc" fill-rule="evenodd" d="M157.3164 432.75l-1.14452-1.24219 1.14453-.875 1.40234-3.5625 3.03516-3.32422.74218-1.11718 3.69532-3.29297 1.92187-1.14453 2.51563-2.22657 4.4375-.57812 4.4414-.03906 4.4375.15625 4.4375.05078 4.4375-1.21094 4.4414-.02734 2.3125-.5625 2.125-3.51563v5l-4.4375.33985-4.4414-.21875-4.14453 2.83203-.29297.67578-4.4375.09375-3.28515-.76953-1.15235-.11329-4.4414-.03515-.59375.14844-3.84375 1.01953-4.4375 2.48437-1.04688.9336-2.71484 4.4414-.67578.72656-2.13282 3.71094 1.55078 4.4375.47266 4.4375-1.75781 4.4375-.07422 4.4414.375 4.4375 1.5664 1.91798 2.50782-1.91797 1.92969-1.11719 4.4375.45703 4.4375.1836 4.4414-1.05079 4.4375-.46484 4.4375.01953 4.4375-1.70703 1.0039-.75781 3.4375-4.01953.46876-.42188 3.96875-1.65625 4.4375-.82031 4.4375-1.16406 1.02344-.79688 3.41797-2.28515 3.58984-2.15235.84766-.3711 4.4375-.60937 3.1289-3.45703-3.1289-3.11719-4.4375-.14843-.84375-1.17188-3.59375-4.3789-.09766-.0625-4.34375-2.98047-4.4375-.29688-2.10938-1.16015-2.32812-2.95313v-5l4.4375.27735 1.16406-1.19922 3.27344-2.5 4.26172-1.94141.17969-.1211v3.06641l-2.41407 1.4961 2.41406 1.72656 1.44922-1.72656-1.44922-1.4961v-3.0664l.14454.12109 4.21875 4.4414-2.88282 4.4375-1.48047 1.53126-4.4414 1.20312-4.4375 1.22656-.13281.47657.1328.07421 4.4375.35157 4.44142.9375 3.21875 3.07422 1.19921 4.4414.01953.02344 4.4375.40234 4.03125 4.01172-3.85156 4.4375 4.25781 1.125 4.4375-.0625 4.44141-.34375v1.5l-4.4414.98828-4.4375.84766-.4375.38281-.48047 4.4375.91797.52344 4.4375-.10156.70703-.42188 3.73437-1.55078 2.26172-2.88672-2.26172-2.21875v-1.5l3.78906 3.71875.64844 2.45703 4.4375-.1914 4.4375-1.34766.70703-.91797 3.73047-3.64453 4.4414-.19531 3.47266-.59766.96485-1.00781 4.4375-2.3125v2.16797l-1.69922 1.15234-2.73828 1.1836-4.4375.58203-4.4414.57812-2.14063 2.09375-2.29688 2.98438-2.71094 1.45312 2.71094 2.29297 4.4375 1.92578.40625.22266 4.03516 1.94531 4.4375-.39844 2.64062-1.54687 1.79688-2.46094 1.33594-1.98047-.87891-4.4375 1.21484-4.4375-1.67187-1.15234V432.625l4.4375 2.50781.96875.8125-.96875 1.48438-.75781 2.95312.7578 3.76172.4336.67578-.4336.45313-1.93359 3.98828-2.5039 2.15625-4.4375 1.4375-4.4375.375-4.4414-.04297-4.4375-2.02734-4.4375.26171-4.4375-1.47265-.76954-.6875-3.66797-2.94531-4.4414 1.71484-4.4375.41016-4.4375.21875-1.98047-3.83985 1.98047-2.85937.66015-1.57813-.66016-4.09765-4.4375 2.1328-4.4375 1.64063-.48437.32422-3.95703 3.08594-4.4375.85938-2.41016.49218-2.02734 1.53906-3.45703 2.90235-.98047.92969-4.4414 2.76171-4.4375.6875-.89063.0586-3.54688 1.10547-4.4375 1.64062-4.4414 1.04688-4.4375-.38281-4.4375.05078-3.85157.97656-.58593.14844-.22266-.14844-3.4375-4.4375-.02344-4.4375.0625-4.4414.3125-4.4375-.375-4.4375-.7539-3.19532"/><path fill="#00e8fc" fill-rule="evenodd" d="M161.17188 435.94531l-1.55079-4.4375 2.13282-3.71094.67578-.72656 2.71484-4.4414 1.04688-.9336 4.4375-2.48437 3.84375-1.01953.59375-.14844 4.4414.03515 1.15235.11329 3.28515.76953 4.4375-.09375.29297-.67578 4.14453-2.83204v1.69532l-1.66015 1.13672-1.38672 4.4375-1.39063 2.64453-3.41015 1.79687-1.02735.48047-.59765-.48047-3.83985-1.91015-4.4414-.96485-4.4375-.27344-2.60547 3.14844-1.83203 4.26953-.15235.16797-2.57812 4.4375.85937 4.4375 1.8711 3.44531 1.03125.9922-1.03125 3.93359-.32813.5078.32813.08595 4.4375.85546 4.4375.01563 3.53515-.95703.90625-.3789 4.4375-1.21876 4.4375.30469 3.23438-3.14844.54687-4.4375.65625-.82812 4.4414.27734 4.4375-.16406 4.4375-.33594 4.4375-.5664 3.5547-2.82032.79297-4.4375.09375-.07031.15625.07031 4.28125 1.67969 4.4375.11719 1.625-1.79688-1.625-1.6211-4.4375.27345-2.21485-3.08985-2.22266-2.71094-2.60937-1.73046-1.83203-1.25391-4.4375-.21484-4.4375-2.38672-2.42969-.58203-2.00781-.51172-4.4414-.625v-1.69531l4.4414.21875 4.4375-.33985 2.32812 2.95313 2.10938 1.16015 4.4375.29688 4.34375 2.98047.09766.0625 3.59375 4.3789.84375 1.17188 4.4375.14844 3.1289 3.11718-3.1289 3.45703-4.4375.60938-.84766.3711-3.58984 2.15234-3.41797 2.28515-1.02344.79688-4.4375 1.16406-4.4375.82031-3.96875 1.65625-.46875.42188-3.4375 4.01953-1.0039.75781-4.4375 1.70703-4.4375-.01953-4.4375.46485-4.44141 1.05078-4.4375-.1836-4.4375-.45703-1.9297 1.11719-2.5078 1.91797-1.56641-1.91797-.375-4.4375.07422-4.4414 1.75781-4.4375-.47266-4.4375"/><path fill="#00d4fc" fill-rule="evenodd" d="M164.32031 440.38281l-.85937-4.4375 2.57812-4.4375.15235-.16797 1.83203-4.26953 2.60547-3.14844v6.97266l-.2422.61328-4.1953 3.10938-.8086 1.32812.8086 2.64063 4.4375.85156 3.33593-3.49219 1.10157-4.40625 3.51953 4.40625-.91016 4.4375 1.83203 3.1875 4.4375-1.29297 1.46875-1.89453-1.46875-1.95703-3.69922-2.48047-.73828-1.75-4.36328-2.6875-.07812-.03906-4.4375-.57422v-6.97265l4.4375.27343 4.4414.96485 3.83985 1.91015.59765.48047 1.02735-.48047 3.41015-1.79687 1.39063-2.64453 1.38672-4.4375 1.66015-1.13672 4.4414.625 2.00782.51172 2.42969.58203v1.97265l-4.4375.3125-2.80078 1.57032-1.64063 3.29296-.4414 1.14844.4414.94531 1.6289 3.4922 2.8125 2.91796 3.57032 1.51953.86719.23828 4.4375.5625 4.4375-.02734.97656-.77344-.10547-4.4375 3.57031-2.76172.85157-1.67578-.85156-1.04297-4.44141-1.4414-4.4375-.10547-.73047-1.85156-3.70703-1.88282v-1.97265l4.4375 2.38672 4.4375.21484 1.83203 1.2539 2.60938 1.73048 2.22265 2.71093 2.21484 3.08985 4.4375-.27344v1.4961l-.96484.125.96484.13671.1211-.13672-.1211-.125v-1.4961l1.625 1.6211-1.625 1.79688-4.4375-.11719-4.28125-1.67969-.15625-.07031-.09375.07031-.79296 4.4375-3.5547 2.82031-4.4375.56641-4.4375.33594-4.4375.16406-4.4414-.27734-.65625.82812-.54687 4.4375-3.23438 3.14844-4.4375-.30469-4.4375 1.21875-.90625.3789-3.53515.95704-4.4375-.01563-4.4375-.85546-.32813-.08594.32813-.50781 1.03125-3.9336-1.03125-.99219-1.8711-3.4453"/><path fill="#00c4fc" fill-rule="evenodd" d="M166.1914 438.58594l-.80859-2.64063.8086-1.32812 4.1953-3.10938.2422-.61328 4.4375.57422.07812.03906 4.36328 2.6875.73828 1.75 3.69922 2.48047 1.46875 1.95703-1.46875 1.89453-4.4375 1.29297-1.83203-3.1875.91016-4.4375-3.51953-4.40625-1.10157 4.40625-3.33593 3.49219-4.4375-.85156m26.6289-10.57031l-.4414-.94532.4414-1.14844 1.64063-3.29296 2.80078-1.57032 4.4375-.3125 3.70703 1.88282.73047 1.85156v4.01172l-2.20703 3.01562 2.20703 2.85547 3.0625-2.85547-3.0625-3.01562v-4.01172l4.4375.10547 4.4414 1.4414.85157 1.04297-.85156 1.67578-3.57032 2.76172.10547 4.4375-.97656.77344-4.4375.02734-4.4375-.5625-.86719-.23828-3.57031-1.51953-2.8125-2.91797-1.6289-3.49219"/><path fill="#00d4fc" fill-rule="evenodd" d="M206.13672 428.49219l-2.20703 3.01562 2.20703 2.85547 3.0625-2.85547-3.0625-3.01562"/><path fill="#00e8fc" fill-rule="evenodd" d="M215.01563 411.04297l-2.41407-1.72656 2.41406-1.4961 1.44922 1.4961-1.44922 1.72656"/><path fill="#00c4fc" fill-rule="evenodd" d="M223.89063 431.64453l-.96485-.13672.96484-.125.1211.125-.1211.13672"/><path fill="#00e8fc" fill-rule="evenodd" d="M228.32813 445.34375l-.91797-.52344.48047-4.4375.4375-.38281 4.4375-.84766 4.4414-.98828 2.26172 2.21875-2.26172 2.88672-3.73437 1.55078-.70703.42188-4.4375.10156m22.1914 1.76953l-2.71094-2.29297 2.71094-1.45312 2.29688-2.98438 2.14062-2.09375 4.4414-.57812 4.4375-.58203v2.30078l-4.4375.23047-2.92968.72265-1.51172 2.91016-.65625 1.52734.65625.38672 4.4414 1.3125 4.4375-1.26953.32032-.42969 1.0625-4.4375-1.38281-.95312v-2.30078l2.73828-1.1836 1.69922-1.15234 1.67187 1.15234-1.21484 4.4375.8789 4.4375-1.33593 1.98047-1.79688 2.46094-2.64062 1.54687-4.4375.39844-4.03516-1.94531-.40625-.22266-4.4375-1.92578"/><path fill="#00d4fc" fill-rule="evenodd" d="M254.95703 445.20703l-.65625-.38672.65625-1.52734 1.51172-2.91016 2.92969-.72265 4.4375-.23047 1.38281.95312-1.0625 4.4375-.32031.42969-4.4375 1.26953-4.4414-1.3125"/><path fill="#50fcfc" fill-rule="evenodd" d="M343.72656 429.51953l-2.49219-2.44922 2.4922-2.60547 2.5 2.60547 1.9375 1.78516 2.63671 2.65234-2.61719 4.4375-.01953.01953-.01953-.01953-2.58203-4.4375-1.83594-1.98828m17.7539 14.48438l-3.64062-3.6211 3.64063-3.64844v1.27735l-2.36719 2.3711 2.36719 2.35546 4.4375-.45312 2.34375-1.90235-2.34375-1.80078-4.4375-.57031v-1.27735l4.4375.1836 4.4375 3.17187 4.4375-2.6875v8.62891l-2.51563 3.23047 2.51563 2.34765 1.35547 2.08985 1.17578 4.4375 1.91015 2.14062 2.02344-2.14062 2.41406-3.01563 1.48047-1.42187-1.48046-1.54297-1.8672-2.89453-2.5703-2.48438-4.44141-.74609v-8.6289l3.32422 2.98046-1.32813 4.4375 2.44531.55078 4.02344 3.89063.41406.64062 3.65235 3.79688-3.65235 3.50781-.74609.92969-3.6914 3.89844-3.48047-3.89844-.44532-4.4375-.51562-.79297-3.89844-3.64453-.53906-1.35547-2.96094-3.08594-1.47656-.77344-4.4375-.04296"/><path fill="#00e8fc" fill-rule="evenodd" d="M361.48047 442.73828l-2.36719-2.35547 2.36719-2.3711v2.13282l-.23828.23828.23828.23828 1.07422-.23828-1.07422-.23828v-2.13281l4.4375.57031 2.34375 1.80078-2.34375 1.90235-4.4375.45312"/><path fill="#00d4fc" fill-rule="evenodd" d="M361.48047 440.6211l-.23828-.23829.23828-.23828 1.07422.23828-1.07422.23828"/><path fill="#50fcfc" fill-rule="evenodd" d="M365.91797 464.19531l-1.67969-1.6211 1.67969-1.67187 4.14844 1.67188-4.14844 1.6211M370.35547 426l-2.63672-3.3711 2.63672-2.78124 3.16015 2.78125L370.35548 426"/><path fill="#00e8fc" fill-rule="evenodd" d="M374.79297 451.60938l-2.51563-2.34766 2.51563-3.23047v2.96094l-.20703.26953.20703.1914 2.75781 4.2461 1.6836 3.6211 2.97656-3.6211-2.83203-4.4375-.14454-.14063-4.4414-.1289v-2.96094l4.4414.7461 2.57032 2.48437 1.86719 2.89453 1.48046 1.54297-1.48046 1.42187-2.41407 3.01563-2.02344 2.14062-1.91015-2.14062-1.17578-4.4375-1.35547-2.08985"/><path fill="#00d4fc" fill-rule="evenodd" d="M374.79297 449.45313l-.20703-.19141.20703-.26953 4.4414.1289v3.79297l-.28515.78516.28515.60937.5-.60937-.5-.78516v-3.79297l.14454.14063 2.83203 4.4375-2.97656 3.6211-1.6836-3.6211-2.75781-4.2461"/><path fill="#00c4fc" fill-rule="evenodd" d="M379.23438 454.3086l-.28516-.60938.28515-.78516.5.78516-.5.60937"/><path fill="#50fcfc" fill-rule="evenodd" d="M392.54688 461.09766l-3.42579-2.96094 3.42579-3.33985V457.75l-.39454.38672.39454.34375.9375-.34375-.9375-.38672v-2.95313l4.4375.95313 4.4414-.64453v2.55078l-1.23437.48047.59765 4.4375.63672.70312 4.4375 2.28516 4.4375.65625 3-3.64453-3-2.9961-4.4375-.52734-3.63672-.91406-.80078-.48047v-2.55078l4.4375 2.10156.90235.92969 3.53515.51172 3.92969 3.92578.50781 1.66797 4.4414 1.79297.88673.98046.47656 4.4375-1.36328 1.41016-4.4414 1.20703-2.83204-2.61719-1.60547-2.79296-1.4414-1.64454-2.9961-.55468-4.4375-.49219-3.08594-3.39453-1.35546-2.3086-4.4375.83204"/><path fill="#00e8fc" fill-rule="evenodd" d="M392.54688 458.48047l-.39454-.34375.39454-.38672.9375.38672-.9375.34375m8.24218 4.09375l-.59765-4.4375 1.23437-.48047.80078.48047 3.63672.91406v1.76953l-2.39844 1.7539 2.39844 1.48829 4.4375.27344 1.44922-1.76172-1.44922-1.44922-4.4375-.30469v-1.76953l4.4375.52735 3 2.99609-3 3.64453-4.4375-.65625-4.4375-2.28516-.63672-.70312"/><path fill="#00d4fc" fill-rule="evenodd" d="M405.86328 464.0625l-2.39844-1.48828 2.39844-1.7539 4.4375.30468 1.44922 1.44922-1.44922 1.76172-4.4375-.27344"/><g clip-path="url(#c)"><path fill="#fff" fill-opacity="0" fill-rule="evenodd" d="M467.9961 480.32813H468V311.67188h-.0039H468v168.65625h-.0039"/></g><path fill="#fff" fill-opacity="0" fill-rule="evenodd" d="M224.30469 441.6875l5.80078.71484 1.21094-9.88671-5.79688-.71485-1.21484 9.88672"/><path fill-rule="evenodd" d="M228.76953 434.04688l.5039.0625-.76562 6.25-.78125-.09766.54688-4.45703-1.3789-.16797.0703-.55078.5625.0039.25782-.02343.23828-.0625.21875-.11329.19922-.1875.17578-.27734.15234-.3789"/><path fill="#fff" fill-opacity="0" fill-rule="evenodd" d="M209.55469 449.5039l5.3164-2.41796-4.125-9.0664-5.3164 2.41796 4.125 9.0664"/><path fill-rule="evenodd" d="M209.375 440.65625l.46094-.21094 2.60547 5.73047-.71485.32813-1.85937-4.08594-1.26172.57422-.23047-.50781.48047-.28907.20703-.15234.17188-.17969.1289-.21094.07031-.26562.00782-.32422-.06641-.40625"/><path fill="#fff" fill-opacity="0" fill-rule="evenodd" d="M186.42578 454.33594l7.4414-2.73047-3.51171-9.57031-7.4414 2.73046 3.51171 9.57032"/><path fill-rule="evenodd" d="M185.875 445.63281l3.08594-1.13281.2539.69531-2.47656.91016.40625 1.77344.15625-.23047.20703-.21875.27344-.1914.34766-.16407.3164-.08594.34375-.03906.36328.02344.3672.09765.35546.17578.17188.125.16015.14844.14844.17188.14062.20312.125.23047.10938.26172.1211.42969.04687.42578-.02735.42187-.10937.39844-.1914.3711-.125.17187-.15235.16015-.16797.14844-.19531.13281-.21875.1172-.23828.10156-.45313.1289-.41016.03906-.36718-.03515-.33203-.10938-.29688-.16797-.26562-.21875-.23438-.26562-.20312-.30469.73828-.26953.15625.1875.16797.16016.17578.1289.1914.09375.19922.0586.20703.01953.21875-.01953.22266-.0625.28906-.12891.23828-.16406.1875-.19922.13672-.22656.08203-.25782.02344-.28906-.03516-.3164-.10156-.34375-.10937-.2422-.14453-.22265-.1836-.19922-.21484-.16406-.25-.11719-.27734-.0586-.3047.00782-.32812.08203-.30469.14844-.22656.19922-.1914.27344-.19922.35937-.65235.23828-.74609-3.375"/><g clip-path="url(#d)"><path fill="none" stroke="#000" stroke-linecap="round" stroke-linejoin="round" stroke-miterlimit="10" stroke-width=".5" d="M147.11328 481.95703l-6.22656-3.2539"/></g><g clip-path="url(#e)"><path fill="none" stroke="#000" stroke-linecap="round" stroke-linejoin="round" stroke-miterlimit="10" stroke-width=".5" d="M160.33203 482.1289l-6.03516-3.59765"/></g><g clip-path="url(#f)"><path fill="none" stroke="#000" stroke-linecap="round" stroke-linejoin="round" stroke-miterlimit="10" stroke-width=".5" d="M173.5625 482.26563l-5.86328-3.8711"/></g><g clip-path="url(#g)"><path fill="none" stroke="#000" stroke-linecap="round" stroke-linejoin="round" stroke-miterlimit="10" stroke-width=".5" d="M186.89844 482.23438l-5.90625-3.8086"/></g><g clip-path="url(#h)"><path fill="none" stroke="#000" stroke-linecap="round" stroke-linejoin="round" stroke-miterlimit="10" stroke-width=".5" d="M200.61719 481.36328l-6.71485-2.07031"/></g><g clip-path="url(#i)"><path fill="none" stroke="#000" stroke-linecap="round" stroke-linejoin="round" stroke-miterlimit="10" stroke-width=".5" d="M199.64063 481.0625l.23046 1.20703"/></g><g clip-path="url(#j)"><path fill="none" stroke="#000" stroke-linecap="round" stroke-linejoin="round" stroke-miterlimit="10" stroke-width=".5" d="M213.98047 481.1914l-6.8125-1.72656"/></g><g clip-path="url(#k)"><path fill="none" stroke="#000" stroke-linecap="round" stroke-linejoin="round" stroke-miterlimit="10" stroke-width=".5" d="M212.99219 480.9414l.28906 1.19141"/></g><g clip-path="url(#l)"><path fill="none" stroke="#000" stroke-linecap="round" stroke-linejoin="round" stroke-miterlimit="10" stroke-width=".5" d="M227.10547 481.74219l-6.4336-2.82813"/></g><g clip-path="url(#m)"><path fill="none" stroke="#000" stroke-linecap="round" stroke-linejoin="round" stroke-miterlimit="10" stroke-width=".5" d="M240.16016 482.22656L234.25 478.4297"/></g><g clip-path="url(#n)"><path fill="none" stroke="#000" stroke-linecap="round" stroke-linejoin="round" stroke-miterlimit="10" stroke-width=".5" d="M250.99219 483.8086l-.94531-6.96094"/></g><g clip-path="url(#o)"><path fill="none" stroke="#000" stroke-linecap="round" stroke-linejoin="round" stroke-miterlimit="10" stroke-width=".5" d="M260.71875 481.95313l6.23438-3.2461"/></g><g clip-path="url(#p)"><path fill="none" stroke="#000" stroke-linecap="round" stroke-linejoin="round" stroke-miterlimit="10" stroke-width=".5" d="M261.625 481.48047l-1.01172-.69531"/></g><g clip-path="url(#q)"><path fill="none" stroke="#000" stroke-linecap="round" stroke-linejoin="round" stroke-miterlimit="10" stroke-width=".5" d="M273.69531 480.96875l6.91016-1.27734"/></g><g clip-path="url(#r)"><path fill="none" stroke="#000" stroke-linecap="round" stroke-linejoin="round" stroke-miterlimit="10" stroke-width=".5" d="M274.69922 480.78125l-.76172-.96094"/></g><g clip-path="url(#s)"><path fill="none" stroke="#000" stroke-linecap="round" stroke-linejoin="round" stroke-miterlimit="10" stroke-width=".5" d="M287.55078 482.28906l5.83203-3.92187"/></g><g clip-path="url(#t)"><path fill="none" stroke="#000" stroke-linecap="round" stroke-linejoin="round" stroke-miterlimit="10" stroke-width=".5" d="M288.39844 481.71875l-1.08203-.57813"/></g><g clip-path="url(#u)"><path fill="none" stroke="#000" stroke-linecap="round" stroke-linejoin="round" stroke-miterlimit="10" stroke-width=".5" d="M300.28516 480.66797l6.99218-.67969"/></g><g clip-path="url(#v)"><path fill="none" stroke="#000" stroke-linecap="round" stroke-linejoin="round" stroke-miterlimit="10" stroke-width=".5" d="M301.30078 480.57031l-.67578-1.02344"/></g><g clip-path="url(#w)"><path fill="none" stroke="#000" stroke-linecap="round" stroke-linejoin="round" stroke-miterlimit="10" stroke-width=".5" d="M313.85156 481.67969l6.48828-2.69922"/></g><g clip-path="url(#x)"><path fill="none" stroke="#000" stroke-linecap="round" stroke-linejoin="round" stroke-miterlimit="10" stroke-width=".5" d="M314.79688 481.28516l-.94922-.77735"/></g><g clip-path="url(#y)"><path fill="none" stroke="#000" stroke-linecap="round" stroke-linejoin="round" stroke-miterlimit="10" stroke-width=".5" d="M327.29688 481.95313l6.23046-3.25"/></g><g clip-path="url(#z)"><path fill="none" stroke="#000" stroke-linecap="round" stroke-linejoin="round" stroke-miterlimit="10" stroke-width=".5" d="M328.20313 481.48047l-1.01172-.6914"/></g><g clip-path="url(#A)"><path fill="none" stroke="#000" stroke-linecap="round" stroke-linejoin="round" stroke-miterlimit="10" stroke-width=".5" d="M340.21094 480.3164l7.02734.02344"/></g><g clip-path="url(#B)"><path fill="none" stroke="#000" stroke-linecap="round" stroke-linejoin="round" stroke-miterlimit="10" stroke-width=".5" d="M341.23438 480.32031l-.57032-1.08594"/></g><g clip-path="url(#C)"><path fill="none" stroke="#000" stroke-linecap="round" stroke-linejoin="round" stroke-miterlimit="10" stroke-width=".5" d="M353.53516 480.55469l7.01171-.45313"/></g><g clip-path="url(#D)"><path fill="none" stroke="#000" stroke-linecap="round" stroke-linejoin="round" stroke-miterlimit="10" stroke-width=".5" d="M354.55469 480.48828l-.64453-1.04297"/></g><g clip-path="url(#E)"><path fill="none" stroke="#000" stroke-linecap="round" stroke-linejoin="round" stroke-miterlimit="10" stroke-width=".5" d="M367.28906 482.04688l6.13281-3.4336"/></g><g clip-path="url(#F)"><path fill="none" stroke="#000" stroke-linecap="round" stroke-linejoin="round" stroke-miterlimit="10" stroke-width=".5" d="M368.1836 481.54688l-1.03126-.66407"/></g><g clip-path="url(#G)"><path fill="none" stroke="#000" stroke-linecap="round" stroke-linejoin="round" stroke-miterlimit="10" stroke-width=".5" d="M380.23828 481.08203l6.86328-1.50781"/></g><g clip-path="url(#H)"><path fill="none" stroke="#000" stroke-linecap="round" stroke-linejoin="round" stroke-miterlimit="10" stroke-width=".5" d="M381.23828 480.86328l-.79687-.9336"/></g><g clip-path="url(#I)"><path fill="none" stroke="#000" stroke-linecap="round" stroke-linejoin="round" stroke-miterlimit="10" stroke-width=".5" d="M393.47266 480.36328l7.02734-.0664"/></g><g clip-path="url(#J)"><path fill="none" stroke="#000" stroke-linecap="round" stroke-linejoin="round" stroke-miterlimit="10" stroke-width=".5" d="M394.4961 480.35156l-.58594-1.07812"/></g><g clip-path="url(#K)"><path fill="none" stroke="#000" stroke-linecap="round" stroke-linejoin="round" stroke-miterlimit="10" stroke-width=".5" d="M407.11719 481.8086l6.3711-2.96094"/></g><g clip-path="url(#L)"><path fill="none" stroke="#000" stroke-linecap="round" stroke-linejoin="round" stroke-miterlimit="10" stroke-width=".5" d="M408.04297 481.3789l-.98047-.73827"/></g><g clip-path="url(#M)"><path fill="none" stroke="#000" stroke-linecap="round" stroke-linejoin="round" stroke-miterlimit="10" stroke-width=".5" d="M420.48438 481.91797l6.26562-3.17969"/></g><g clip-path="url(#N)"><path fill="none" stroke="#000" stroke-linecap="round" stroke-linejoin="round" stroke-miterlimit="10" stroke-width=".5" d="M421.39453 481.45703l-1.0039-.70703"/></g><g clip-path="url(#O)"><path fill="none" stroke="#000" stroke-linecap="round" stroke-linejoin="round" stroke-miterlimit="10" stroke-width=".5" d="M433.7461 481.8086l6.37109-2.96094"/></g><g clip-path="url(#P)"><path fill="none" stroke="#000" stroke-linecap="round" stroke-linejoin="round" stroke-miterlimit="10" stroke-width=".5" d="M434.67188 481.3789l-.97657-.74218"/></g><g clip-path="url(#Q)"><path fill="none" stroke="#000" stroke-linecap="round" stroke-linejoin="round" stroke-miterlimit="10" stroke-width=".5" d="M447.19531 482.07031l6.10156-3.48437"/></g><g clip-path="url(#R)"><path fill="none" stroke="#000" stroke-linecap="round" stroke-linejoin="round" stroke-miterlimit="10" stroke-width=".5" d="M448.08203 481.5625l-1.03515-.65234"/></g><g clip-path="url(#S)"><path fill="none" stroke="#000" stroke-linecap="round" stroke-linejoin="round" stroke-miterlimit="10" stroke-width=".5" d="M460.29688 481.63281l6.52734-2.60547"/></g><g clip-path="url(#T)"><path fill="none" stroke="#000" stroke-linecap="round" stroke-linejoin="round" stroke-miterlimit="10" stroke-width=".5" d="M461.25 481.2539l-.9375-.79296"/></g><g clip-path="url(#U)"><path fill="none" stroke="#000" stroke-linecap="round" stroke-linejoin="round" stroke-miterlimit="10" stroke-width=".5" d="M147.40234 467.89453l-6.80468-1.76172"/></g><path fill="none" stroke="#000" stroke-linecap="round" stroke-linejoin="round" stroke-miterlimit="10" stroke-width=".5" d="M147.40234 467.89453l.57032 2.38672m12.05078-1.03125l-5.41797-4.47266m5.41797 4.47266l-.48828 2.40234m13.83984-2.4453l-5.49219-4.38673m5.49219 4.38672l-.44922 2.41016m13.69922-2.33203l-5.35938-4.54297m5.35938 4.54297l-.51953 2.39843m13.47656-2.03125l-4.64062-5.27734m3.96484 4.50781l-.4336 1.14844m14.66798-.61719l-5.13282-4.80078m4.38672 4.10156l-.3164 1.1836m14.71875-.91016l-5.8125-3.94922m4.96875 3.375l-.13282 1.21875m14.39063-.80078l-6.01172-3.63672m5.13672 3.10938l-.0664 1.22265m14.0078-.33593l-5.51562-4.35547m17.8789 5.1914L262.03125 464m17.21484.19531l-4.1914 5.63672m14.67968-6.2539l1.46485 6.87109m9.13281-4.10938l6.89844 1.34766m6.41406-.01563l6.90234-1.3164m-5.89843 1.125l-.76953-.95703m13.32421 1.91797l6.41797-2.85547m-5.48437 2.4414l-.96875-.7539m13.05078-.46875l7.01562.41797m-5.99609-.35547l-.50781-1.11719m13.32422-.58594l5.97265 3.69922m-5.10547-3.16016l.08204-1.22265m11.83984 2.6289l7.02344-.1914m-6 .16406l-.60547-1.0664m13.11328 2.21874l6.58984-2.4414m-5.6289 2.08594l-.91797-.81641m13.08203-.47266l6.97266.84766m-6.97266-.84766l-.88672-2.28906m14.23047 3.33984l6.91406-1.2539m-5.90625 1.07031l-.76172-.96094m13.0547 1.0625l6.9414-1.08984m-5.92969.9336l-.73828-.98048m13.19531 1.75l6.63672-2.3164m-5.67188 1.98047L433.6797 467m13.59765 1.89062l5.94141-3.7539m10.10547 5.38281l.47265-7.01172m-.40234 5.99219l-1.1211.5"/><g clip-path="url(#V)"><path fill="none" stroke="#000" stroke-linecap="round" stroke-linejoin="round" stroke-miterlimit="10" stroke-width=".5" d="M146.8789 455.71484l-5.7578-4.03125"/></g><path fill="none" stroke="#000" stroke-linecap="round" stroke-linejoin="round" stroke-miterlimit="10" stroke-width=".5" d="M146.03906 455.1289l-.14844 1.21876m13.82032-.07813l-4.78906-5.14062m4.08984 4.39453l-.39844 1.15625m13.57422.16797l-3.11328-6.30078m2.66016 5.38671l-.71875.9961m14.41406-.04688l-2.96875-6.3711m2.53515 5.44532l-.73828.98047m13.98047.13672l-1.95312-6.75m1.66797 5.76562l-.87891.85547m15.41406-.30078l-3.82812-5.89062m3.27343 5.03515l-.59765 1.07031m14.44531-.19921L222 450.73828m3.23047 5.0586l-.60156 1.0703m12.02343.30079l1.10547-6.9375m10.58985 6.23047l4.34375-5.52344m-3.71094 4.71875l-1.20703-.21875m16.0625 1.77344v-7.02735m16.72265 4.3711l-6.8164-1.71485m19.39453-1.42578l-5.33985 4.5664m4.5625-3.90234l1.14063.44922m12.07422-1.85156l-3.58594 6.04688m3.0625-5.16797l1.22656.0586m10.33985-1.39454l.95703 6.96094m11.45703-6.71094l2.76172 6.46094m8.61328-4.3789l6.64062 2.29687m-5.67578-1.96094l-.1914-1.21485m12.44531 1.20704l6.83203 1.64062m-5.83984-1.40234l-.30469-1.1875m12.59766 2.44922l6.89453-1.36329m-5.89063 1.16797l-.77734-.95312m13.03125.72265l7.00781-.5078m-5.98828.43359l-.65234-1.03907m13.1289-.28515l6.64453 2.28906m-5.67968-1.95703l-.19141-1.21094m12.375 1.61328l6.97656.82031m-5.96094-.69921l-.4453-1.14454m12.74609 1.85157l6.97656-.83594m-5.96094.71484l-.70312-1.0078m12.98046.86327l7.01954-.3086m-6 .26563l-.6211-1.05859m12.94922 1.45312l6.95313-1.0078m-5.94141.85937l-.72656-.98828m15.03515 3.82421l2.94141-6.3828"/><g clip-path="url(#W)"><path fill="none" stroke="#000" stroke-linecap="round" stroke-linejoin="round" stroke-miterlimit="10" stroke-width=".5" d="M144.71094 443.82422l-1.42188-6.88281"/></g><g clip-path="url(#X)"><path fill="none" stroke="#000" stroke-linecap="round" stroke-linejoin="round" stroke-miterlimit="10" stroke-width=".5" d="M144.5039 442.82422l-.9414.78125"/></g><path fill="none" stroke="#000" stroke-linecap="round" stroke-linejoin="round" stroke-miterlimit="10" stroke-width=".5" d="M156.05078 443.66406l2.52734-6.5586m-2.16015 5.60157l-1.21484.14844m15.0664 1.02344l.72266-6.9922m-.61719 5.97657l-1.13672.46094m14.69922.57422l.01563-7.02735m-.01563 6.00391l-1.08203.57422m13.03516.17187l2.73828-6.47265m-2.33985 5.53125l-1.22265.10547m13.01953.07812l4.97656-4.96094m-4.25 4.23828l-1.17578-.35937m13.19922.33594l6.10937-3.46875m-5.22265 2.96484l-1.03516-.65625m13.29297.8164l6.45312-2.78124m-5.51562 2.3789l-.95703-.76953m13.3086 1.11328l6.5039-2.66015m-6.5039 2.66015l-1.88673-1.5703m15.82422 2.5703l5.25781-4.66015m-4.49218 3.98047l-1.15235-.4297m13.3789.6836l5.90235-3.8125m-5.04297 3.25781l-1.0703-.59375m13.25-2.14453l6.45312 2.77735m11.07812-4.76172l-1.97656 6.74219m12.85547-6.57032l2.89453 6.40235m8.76953-4.85938l6.19922 3.3125m-5.29688-2.82812v-1.22657m12.22266 1.16016l6.57813 2.47656m-5.6211-2.11718l-.15625-1.21485m12.29297 2.25l7.01953-.3086m-6 .26173l-.6211-1.05469m13.79688 3.27734l5.25782-4.66406m7.24218 1.63672l6.88672 1.39063m-5.88281-1.1875l-.35156-1.17579m14.16015-1.2539l3.89453 5.84765m-3.32812-4.99609l.58203-1.08203m11.03125 1.46875l6.16406 3.3711m-6.16406-3.3711l.02734-2.45313m13.03516 5.25l6.66797-2.22265m-6.66797 2.22265l-1.77734-1.6914m15 1.34765l6.85547-1.53906m-6.85547 1.53906l-1.59766-1.85937m14.8789 1.70312l6.92188-1.22656m-6.92187 1.22656l-1.51172-1.92968m14.78515 1.04687l7.00782.53906"/><g clip-path="url(#Y)"><path fill="none" stroke="#000" stroke-linecap="round" stroke-linejoin="round" stroke-miterlimit="10" stroke-width=".5" d="M145.60547 430.19531l-3.21094-6.2539"/></g><path fill="none" stroke="#000" stroke-linecap="round" stroke-linejoin="round" stroke-miterlimit="10" stroke-width=".5" d="M145.13672 429.28516l-.69922 1.0078m13.0664.28517l-.375-7.01954m.32032 5.9961l-1.05078.63281m11.84765-.53906l4.76953-5.16016m-4.07812 4.41016l-1.1836-.3125m13.2422.39453l5.89843-3.82422m-5.03906 3.26563l-1.07422-.59375m13.13672.32812l6.6836-2.17578m-5.71095 1.85937l-.8828-.85156m13.30077 1.375l6.53125-2.58984m-5.58203 2.21484l-.9336-.79687m13.20704.91015l6.71875-2.0664m-6.71875 2.0664l-1.73828-1.73047m15.10937 1.89844l6.60547-2.40234m-6.60547 2.40234l-1.8203-1.64062m15.48827 2.35156l5.89844-3.82422m-5.03906 3.26562l-1.07031-.59375m13.80468 1.52344l5.34375-4.5625m-5.34375 4.5625l-2.28515-.90234m15.46875.73437l5.60547-4.23047m-5.60547 4.23047l-2.22657-1.03515m15.23047.54687l6.22657-3.2539m-5.32032 2.78125l-1.01172-.69141m13.6797 1.58203l5.71093-4.08984m-4.8789 3.4961l-1.10157-.54298m13.48828-2.8164l5.90235 3.8164m-5.04297-3.26172l.10547-1.22265m12.36718.64453L333.34766 429m-5.01953-3.30078l.11718-1.22266m12 1.33594l6.5625 2.51172m-5.60937-2.14453l-.14844-1.21875m12.36328 2.8711l6.85547-1.52735m-5.85937 1.30468l-.79688-.92968m13.51953 2.17968l6.04688-3.58203m-5.16407 3.0625l-1.05078-.64062m13.30469-2.07422l6.40625 2.88672m-5.47656-2.46875l-.07813-1.22266m15.32813-1.25l.67578 6.9961m-.57813-5.97657l1.02344-.67968m10.34375.41015l4.3789 5.4961m-3.74218-4.69532l.48828-1.125m11.22656 4.6211l6.3047-3.09766m6.66015 1.85938l7-.6211m-5.98047.53125l-.66797-1.03125m13.0664 1.70313l6.79688-1.78516m-5.8086 1.52344l-.83202-.89844m13.46484 1.9336l6.1875-3.33204m-5.28906 2.84766l-1.01953-.67969"/><g clip-path="url(#Z)"><path fill="none" stroke="#000" stroke-linecap="round" stroke-linejoin="round" stroke-miterlimit="10" stroke-width=".5" d="M145.88672 416.71875l-3.77344-5.92969"/></g><path fill="none" stroke="#000" stroke-linecap="round" stroke-linejoin="round" stroke-miterlimit="10" stroke-width=".5" d="M145.33984 415.85547l-.60547 1.0664m13.375.25391l-1.58984-6.84375m12.73438 6.65235l2.7539-6.46485m-2.35547 5.52735l-1.22265.10156m13.23047.27344l4.5703-5.33594m-3.90624 4.5586l-1.19922-.26563m13.51172.71484l5.2461-4.67969m-4.48048 3.9961l-1.15234-.42188m12.8164-1.07422l7.01954-.32031m-6 .27344l-.625-1.05469m12.94922 1.41016l6.96093-.9375m-5.94922.80078l-.71484-.9961m13.15234 1.73047l6.69532-2.13281m-6.69531 2.13281l-1.75782-1.71484m15.10156 1.80469l6.63672-2.3125m-6.63672 2.3125l-1.80078-1.66407m15.5 2.44141l5.8672-3.8711m-5.8672 3.8711l-2.15234-1.17187m15.50781 1.23437l5.78516-3.99219M274.2578 415.75l-2.17578-1.1289m15.21484.64843l6.33985-3.03125m-5.41797 2.58985l-.98828-.72657m13.14062.4961l6.82032-1.6875m-5.82813 1.4414l-.82031-.91406m14.40625-2.46484l4.29687 5.5625m-3.67187-4.75391l.5039-1.11719m11.10547 1.69532l6.45313 2.78906m-5.51172-2.38281l-.10156-1.22266m12.2461 1.58984l6.91405 1.24219m-5.91015-1.0625l-.375-1.16797m12.80468.51563l6.67579 2.1875m-5.70704-1.8711l-.20703-1.20703m12.85938 3.75781l6.0664-3.54687m-5.18359 3.03125l-1.04687-.64453m13.28125-1.9961l6.46093 2.76172m-5.52343-2.35937l-.10157-1.22266m12.62891.51172l6.16016 3.38281m-5.26172-2.89062l.01562-1.22656m15.14063-1.07032l.67968 6.99219m-.57812-5.97656l1.01953-.67578m12.80078-.34766l-.53125 7.00781m.45313-5.98828l1.125-.49219m10.2539-.0703l3.4961 6.09374m-2.98828-5.20703l.65625-1.03906m10.38671 3.16406l7.02735.07031m-6.00781-.0586l-.5625-1.08984m13.11328-.19921l6.51562 2.625m-5.57031-2.2461l-.1289-1.21875"/><g clip-path="url(#aa)"><path fill="none" stroke="#000" stroke-linecap="round" stroke-linejoin="round" stroke-miterlimit="10" stroke-width=".5" d="M147.48438 399.99219l-6.96875.89062"/></g><path fill="none" stroke="#000" stroke-linecap="round" stroke-linejoin="round" stroke-miterlimit="10" stroke-width=".5" d="M153.80469 400.26563l7.01953.34765m6.8125-2.01562l5.98437 3.68359m-5.11328-3.14844l.07813-1.22265m11.96094 1.6328l6.79687 1.79298m-5.8086-1.53125l-.27734-1.19531m12.4961 1.57812l7.01172.5039m-5.98829-.43359l-.5-1.1211m12.8047.92579l6.98827.7539m-6.98828-.7539l-.91406-2.27734m14.25781 3.23828l6.92969-1.17188m-6.92969 1.17188l-1.4961-1.94531m14.77735 1.03125l6.9961.65625m-5.97657-.5586l-.47265-1.13281m12.78125 1.79687l6.97265-.86328m-5.96094.73828l-.70312-1.0078m13.26563 2.08593l6.45312-2.77344m-5.51563 2.3711l-.95703-.76563m13.79297 1.94531l5.53906-4.32422m-4.73437 3.69532l-1.1211-.5m14.22266 1.72265l4.35547-5.51562m-3.72266 4.71484l-1.20703-.21875m16.1797 1.77344l-.22657-7.02344m16.86719 2.79297l-6.87891 1.4375m5.8789-1.22656l.78516.9414m12.3164-3.15234l-4.44921 5.4375m3.80078-4.64453l1.20313.23828m11.64062-1.64844l-2.21094 6.67188m1.88672-5.69922l1.21094-.20703m12.34375 2.57031l-.01953-.19922-.0586-.1914-.09375-.17579-.45703-.3789-.1914-.05469-.19922-.02344-.20313.02344-.1914.05469-.45703.3789-.09375.17579-.0586.1914-.01953.19922.01953.19922.0586.1914.09375.1797.45703.375.1914.05859.20313.01953.19922-.01953.1914-.0586.45703-.375.09375-.17969.0586-.1914.01953-.19922m11.72656 3.46875l1.13281-6.9336m-.96875 5.92579l-1.16015.39062m18.15625-4.11328l-6.5586 2.52344m5.60547-2.15625l.92578.80469m13.57422-.06641l-7.01953.3164m14.34766-2.65234l4.95312 4.98438m7.40235-3.21485l6.875 1.44922m-5.875-1.23828l-.33985-1.17969m12.58203 1.84375l7.01954-.30468m6.76562-1.60938l6.07813 3.52344m7.54687.45312l5.45703-4.42968"/><g clip-path="url(#ab)"><path fill="none" stroke="#000" stroke-linecap="round" stroke-linejoin="round" stroke-miterlimit="10" stroke-width=".5" d="M143.13281 383.71875l1.73438 6.8086"/></g><g clip-path="url(#ac)"><path fill="none" stroke="#000" stroke-linecap="round" stroke-linejoin="round" stroke-miterlimit="10" stroke-width=".5" d="M143.38672 384.71094l.90625-.82813"/></g><path fill="none" stroke="#000" stroke-linecap="round" stroke-linejoin="round" stroke-miterlimit="10" stroke-width=".5" d="M156.47266 383.71094l1.6875 6.82422m10.83203-6.51954l3.27344 6.21485m-2.79688-5.3125l.6914-1.01172m11.34376.6875l4.8828 5.0586m-4.17187-4.32032l.37891-1.16797m11.29688 1.96094l6.73828 1.9961m-6.73828-1.9961l-.48829-2.40234m13.8711 2.1953l6.60156 2.41017m-6.60156-2.41016l-.33594-2.42969m13.52734 2.85547l6.85157 1.5625m-6.85157-1.5625l-.64062-2.3711m13.8789 2.89454l7.00782.51172m-7.00781-.51172l-.9922-2.2461m14.66407 4.07032l6.28906-3.13672m-5.3711 2.67969l-1-.71094m14.82813 2.66797l3.4297-6.13282m-2.9297 5.23829l-1.22656-.02344m16.1836 1.33594l-.85547-6.97266m.73047 5.96094l-1.00391.70312m16.66797-.8711l-5.30078-4.61327m5.30078 4.61328l-.55469 2.39062m13.5586-2.07422l-4.6797-5.24218m4.6797 5.24218l-.85157 2.30079m15.1875-3.89454l-6.72266-2.05859m5.7422 1.75781l.23437 1.20313m14.07812-2.90235l-6.7539 1.94141m5.76953-1.66016l.85156.88282m13.4336-1.20704l-6.72657 2.02735m5.7461-1.73047l.86718.8711m13.3789-1.32032l-6.6289 2.33203m20.0664-1.88672l-6.875 1.44141m16.17579-4.1875l1.15625 6.9336m-.98828-5.92188l.97265-.75m14.4336.1211l-3.36328 6.16796m2.875-5.26953l1.22656.01172m12.46484-.96875l-3.14062 6.28515m3.14062-6.28515l2.45313-.0625m8.91797-.28906l.75 6.98828m-.64063-5.97266l1.01563-.6875m10.85156.09766l3.42578 6.13672m-2.92578-5.2422l.66406-1.03124m10.53125 2.08594l6.66406 2.23828m12.73047 1.07031l-5.49609-4.3789m4.69922 3.74218l-.22656 1.20703"/><g clip-path="url(#ad)"><path fill="none" stroke="#000" stroke-linecap="round" stroke-linejoin="round" stroke-miterlimit="10" stroke-width=".5" d="M140.48828 373.9375l7.02344-.25781"/></g><path fill="none" stroke="#000" stroke-linecap="round" stroke-linejoin="round" stroke-miterlimit="10" stroke-width=".5" d="M153.8086 373.58594l7.01171.44531m-5.99219-.3789l-.5039-1.1172m14.28125-1.59765l4.05078 5.74219m-3.46094-4.90625l.55078-1.09766m13.2422-.2461l1.91405 6.75782m-1.91406-6.75781l1.76953-1.69922m10.64063 2.09765l3.72265 5.96094m-3.72265-5.96094l1.22656-2.125m-.6836 2.9922l.61329-1.0625m11.36719.87109l5.30859 4.60546m-4.53516-3.93359l.27344-1.19531m11.42188 2.52734l7 .59766m-5.98047-.50781l-.48438-1.12891m12.80469 1.85156l6.95312-1.02344m-5.9414.875l-.73047-.98828m15.76562 4.0586l1.48828-6.86719m-1.27343 5.86719l-1.17969.33594m16.63281.35156l-3.22265-6.24219m3.22265 6.24219l-1.39453 2.01953m15.22266-2.34375l-4.2461-5.59766m4.2461 5.59766l-1.02735 2.23047m.41016-3.04297l-.51562 1.11328m15.2539-1.16016l-5.85937-3.875m5.85937 3.875l-.23437 2.44532m13.24609-2.05079l-5.2539-4.66406m5.2539 4.66406l-.57422 2.38672m14.3164-2.98046l-6.10546-3.47657m6.10547 3.47656L320.07813 378m13.7539-5l-6.83984 1.61719M333.83203 373l1.61719 1.84375m11.39453-2.65625l-6.23437 3.24219m6.23437-3.24219l2.01953 1.38672m11.03516-1.8125l-5.71485 4.08984m5.71485-4.08984l2.19922 1.09375m10.94922-1.30469l-5.38282 4.51563m4.60157-3.85938l1.13671.45703m12.96094-1.11328l-5.38281 4.51563m4.59766-3.85938l1.13671.45703m12.66407-1.42969l-4.78516 5.14454m4.08984-4.39454l1.1836.31641m12.13672-1.5664l-3.40235 6.14843m2.90625-5.2539l1.22657.01953m12.79296-.78906l-3.8203 5.89843m3.8203-5.89844l2.44532.21094m10.3125-.5039l-2.70703 6.48437m2.3125-5.54297l1.22265-.11328m14.23438 4.0625l-6.20313-3.29687m18.77344 4.2539l-4.71094-5.21484m4.71094 5.21484l-.83594 2.3086"/><g clip-path="url(#ae)"><path fill="none" stroke="#000" stroke-linecap="round" stroke-linejoin="round" stroke-miterlimit="10" stroke-width=".5" d="M141.08984 362.46094l5.82032-3.9336"/></g><path fill="none" stroke="#000" stroke-linecap="round" stroke-linejoin="round" stroke-miterlimit="10" stroke-width=".5" d="M154.32031 362.32813l5.99219-3.67188m-5.99219 3.67188l-2.11328-1.2461m15.36719-2.32422l6.10937 3.47266m-5.21875-2.96875l.03516-1.22656m15.25781-1.05079l.375 7.01563m-.375-7.01563l2.10156-1.26562m9.88282 1.60547l3.03515 6.33594m-3.03515-6.33594l1.45703-1.97266m14.84375 1.94922l-2.9375 6.38281m2.51172-5.45312l1.22656-.07031m7.54297 2.07812l7.00781.51172m-5.98828-.4375l-.4961-1.1211m18.90235 3.66016l-5.21094-4.71484m4.44922 4.02734l-.29687 1.1914m15.09765-1.74218l-6.66015-2.23828m6.66015 2.23828l.40235 2.41797m11.60547-.66406l-4.04688-5.7461m3.45703 4.91016l-.55469 1.09375m13.85547.08203l-2.83984-6.42578m2.42578 5.49219l-.75781.96484m16.48828-4.04297l-6.84375 1.59375m19.30469 1.60156l-5.13282-4.79687m4.38672 4.10156l-.32031 1.1836m14.9375-1.27344l-6.2461-3.22266m5.33594 2.7539l.01563 1.22657m14.54297-3l-6.91406 1.26172m5.91015-1.07813l.75781.96094m13.35938-1.83984l-6.50781 2.65234m6.5078-2.65234l1.88282 1.57031m11.38281-1.6836l-6.41015 2.87891m6.41015-2.8789l1.9375 1.5039m11.08594-2.02734l-5.82812 3.92578m4.98047-3.35547l1.08203.57813m13.23047-.90625l-6.12891 3.4414m5.23828-2.9414l1.03125.66406m13.00781-1.4336l-5.79297 3.98048m5.79297-3.98047l2.17578 1.1328m11.01172-1.30858l-5.53906 4.32812m5.53906-4.32813l2.24219 1m11.15234-.89453l-5.6953 4.1172m5.6953-4.1172l2.20313 1.08204m11.25-.8711l-5.97266 3.69922m5.97266-3.69922l2.1211 1.23438m11.71093.34765l-7.00781.53516m5.98828-.45703l.65625 1.03515m12.8164 1.46875l-5.28515-4.6328m5.28516 4.6328l-.5586 2.39063"/><g clip-path="url(#af)"><path fill="none" stroke="#000" stroke-linecap="round" stroke-linejoin="round" stroke-miterlimit="10" stroke-width=".5" d="M142.14063 350.16016l3.71875-5.96485"/></g><path fill="none" stroke="#000" stroke-linecap="round" stroke-linejoin="round" stroke-miterlimit="10" stroke-width=".5" d="M155.10156 349.90625l4.42578-5.45703m-4.42578 5.45703l-2.40625-.46875m3.05078-.32422l-2.40625-.46875m13.8086-.98437l6.96094-.96485m-5.94532.82422l-.71875-.9961m17.10156-2.80859l-1.20312 6.92579m1.20313-6.92579l2.32812-.76562m12.0625 1.14062l-3.35547 6.17579m18.40234-2.23829l-6.8203-1.69921m5.82812 1.45312l.29687 1.1875m14.08594-1.34766l-6.96875-.88671m6.96875.88671l.8711 2.29297m12.46093-2.45703l-7.0039-.5586m7.0039.5586l.97656 2.25m12.34375-2.72265l-7.01562.39062m7.01562-.39063l1.27344 2.09766m-2.29297-2.04297l.63672 1.05078m13.69922-1.08203l-7.01563.33985m7.01563-.33985l1.25781 2.10938m9.73047 1.3711l-2.36328-6.6172m11.17969 4.46875l6.63281-2.32421m-5.66797 1.98828l-.89844-.83204m16.28125 3.50782l.57032-7.0039m-.57032 7.0039l-2.2539.97265m15.70312-.96484l.30078-7.01953m-.30078 7.01953l-2.21093 1.0586m17.6328-1.64844l-3.91015-5.83985m3.91016 5.83985l-1.16016 2.16406m15.7461-6.46875l-6.45704 2.76953m5.51954-2.36719l.95703.76953M360.5 346.5586l-6.91797 1.2422m6.91797-1.2422l1.51563 1.92579m11.83984-1.6211l-7 .63281m7-.6328l1.34375 2.05077m11.9336-2.33984l-6.92188 1.20703m6.92187-1.20703l1.50782 1.9375m11.73828-2.25l-6.78516 1.83203m5.79688-1.5625l.83984.89453M413.5 345.71875l-6.39453 2.91797m6.39453-2.91797l1.94531 1.4961m11.51953-1.09766l-6.69921 2.1211m6.69921-2.1211l1.75391 1.71875m11.51953-1.84375l-6.61328 2.3711m6.61328-2.3711l1.8164 1.65234m-2.77734-1.3086l.90625.82813m13.35938-1.20312l-6.59375 2.4336m6.59375-2.4336l1.83203 1.63281m-2.79297-1.27734l.91797.8164m13.55469-.33594l-6.98438.76172"/><g clip-path="url(#ag)"><path fill="none" stroke="#000" stroke-linecap="round" stroke-linejoin="round" stroke-miterlimit="10" stroke-width=".5" d="M467.05469 346.79688l1.3789 2.02734"/></g><g clip-path="url(#ah)"><path fill="none" stroke="#000" stroke-linecap="round" stroke-linejoin="round" stroke-miterlimit="10" stroke-width=".5" d="M143.48828 337.33984l1.02344-6.95312"/></g><path fill="none" stroke="#000" stroke-linecap="round" stroke-linejoin="round" stroke-miterlimit="10" stroke-width=".5" d="M155.69922 336.98047l3.23437-6.23828m-3.23437 6.23828l-2.45703.02734m2.92578-.9336l-2.45313.02735m13.78516-.64453l6.26172-3.1875m-5.35156 2.72266l-1.00391-.70313m17.9375-3.64844l-2.79688 6.44532m2.39063-5.50781l1.22266-.09766m14.14453 4.13672l-6.08985-3.50781m6.08985 3.5078l-.08203 2.44923m12.80468-1.6875l-4.90625-5.03125m4.90625 5.03125l-.74609 2.33593m15.10938-4.5664l-7.00391-.57031m7.0039.5703l.97266 2.25391m-1.98828-2.33593l.48438 1.125m13.8203-1.85547l-6.94921 1.05078m6.94922-1.05078l1.46094 1.97265m-2.47266-1.8164l.73047.98437m13.39844-1.88672l-6.55079 2.54297m6.55078-2.54297l1.85547 1.60547m-2.80859-1.23437l.92969.80078m13.125-1.6211l-6.125 3.44532m6.125-3.44531l2.0664 1.3203m11.03125-1.66015l-5.6914 4.125m5.6914-4.125l2.20313 1.07813m11.16406-1.00391l-5.79297 3.97656m4.94922-3.39844l1.08594.56641m7.88281 3.50781l4.58203-5.32812m-4.58203 5.32812l-2.39062-.53906m16.33593.96875l3.32422-6.1875m-3.32422 6.1875l-2.45312-.01172m2.9375-.88672l-1.22656-.0078m15.58203 1.32421l.27343-7.02344m-.27343 7.02344l-2.21094 1.0664m17.48047-1.5703l-3.63281-6.01563m3.6328 6.01562l-1.26171 2.10547m15.82422-3.39453l-6.1289-3.4375m6.1289 3.4375l-.05469 2.45313m13.8164-4.08985l-7.02343-.16406m7.02344.16406l1.10156 2.1914m12.14062-2.99608l-6.875 1.4453m6.875-1.4453l1.57422 1.8828m11.8125-1.02734l-7.01953-.26562m6 .22656l.53516 1.10547m13.76562-1.71484l-6.95312 1.03125m5.9414-.88282l.72657.98829m13.63672-.64844l-7.02735.05469m7.02735-.0547l1.16796 2.16016m12.14063-2.35937l-7.01172.45312m7.01172-.45312l1.28906 2.08984m11.85547-2.96875l-6.67187 2.21094m6.67187-2.21094l1.77344 1.69531m11.35547-2.14843l-6.29688 3.11719"/><g clip-path="url(#ai)"><path fill="none" stroke="#000" stroke-linecap="round" stroke-linejoin="round" stroke-miterlimit="10" stroke-width=".5" d="M466.71094 332.30469l1.99219 1.42969"/></g><g clip-path="url(#aj)"><path fill="none" stroke="#000" stroke-linecap="round" stroke-linejoin="round" stroke-miterlimit="10" stroke-width=".5" d="M146.27344 323.22656l-4.54688-5.35937"/></g><path fill="none" stroke="#000" stroke-linecap="round" stroke-linejoin="round" stroke-miterlimit="10" stroke-width=".5" d="M146.27344 323.22656l-.90625 2.28125m10.23437-1.89062l3.42578-6.13672m-3.42578 6.13672l-2.45312-.05078m14.59765-1.01172l5.76563-4.01563m-4.92578 3.4336l-1.08985-.5586m18.07032-3.98437l-3.2422 6.23437m2.76954-5.32812l1.22656-.01172m13.24219 4.8789l-4.60547-5.30859m4.60547 5.3086l-.8789 2.28906m14.9414-3.19922l-6.09766-3.49219m6.09766 3.49219l-.07813 2.45312m13.60938-2.90234l-6.53125-2.58984m6.53125 2.58984l.27344 2.4375m13.14453-4.73438l-6.73828 2m6.73828-2l1.71875 1.75m10.6211-3.3203l-4.78516 5.14452m4.78515-5.14453l2.3711.6289m10.23047-1.14452l-3.35938 6.17187m3.35938-6.17187l2.45312.02344m10.1836-.3047l-2.00391 6.73438m2.0039-6.73437l2.40625-.48438m10.19532.35156l-.57422 7.00391m.57422-7.0039l2.2539-.97266m10.23047 1.0039l1.08594 6.94141m-.92969-5.9336l.98047-.73437m10.35547 5.79297l4.73047-5.19531m-4.73047 5.19531l-2.3789-.60937m17.29296 1.4414l1.53516-6.85937m-1.53516 6.85937l-2.36719.65235m2.58985-1.64844l-1.1836.32422m14.46875.71094l1.14844-6.9336m-1.14844 6.9336l-2.32812.78125m2.4961-1.79297l-1.16407.39453m15.25781.64453l-.7461-6.98828m.63673 5.96875l-1.01563.6875m15.73828-6.2539l-3.33984 6.18358m2.85156-5.28515l1.22656.00781m14.41016 2.44531l-7.00781-.52343m5.98828.44921l.49219 1.1211m13.40234-3.02344l-6.1289 3.42969m5.23828-2.92969l1.03125.66406m8.1953-2.39453l3.82813 5.89453m-3.26953-5.03906l.59375-1.07031m12.57031 6.33594l3.01563-6.34766m-2.57813 5.42188l-1.22265.05859m17.46484.67578l-3.71484-5.96484m3.17578 5.09765l-.61719 1.0586m16.10547-3.57032l-6.98437.79297m5.96875-.67969l.6953 1.01172m13.16016-2.53125l-6.03515 3.60157"/><g clip-path="url(#ak)"><path fill="none" stroke="#000" stroke-linecap="round" stroke-linejoin="round" stroke-miterlimit="10" stroke-width=".5" d="M466.57813 318.7461l2.10156 1.26952"/></g><path fill="#00f" fill-rule="evenodd" d="M388.23828 472.08594h8.61719V461.9414h-8.61719v10.14453"/><path fill="azure" fill-rule="evenodd" d="M390.07031 463.77344h.83594v2.82422h3.28516v-2.82422h.83203v6.48047h-.83203v-2.91797h-3.28516v2.91797h-.83594v-6.48047"/><path fill="#00f" fill-rule="evenodd" d="M383.80078 432.14063h8.61719v-10.14454h-8.61719v10.14454"/><path fill="azure" fill-rule="evenodd" d="M385.63281 423.82813h.83203v2.82421h3.28907v-2.82421h.83203v6.48046h-.83203v-2.91796h-3.28907v2.91796h-.83203v-6.48046"/><path fill="#ff3030" fill-rule="evenodd" d="M344.55078 405.51172h7.6914v-10.14453h-7.6914v10.14453"/><path fill="azure" fill-rule="evenodd" d="M346.38281 397.19922h.83203v5.73828h3.19532v.74219h-4.02735v-6.48047"/><path fill="#00f" fill-rule="evenodd" d="M370.48438 401.07422h8.62109v-10.14844h-8.6211v10.14844"/><path fill="azure" fill-rule="evenodd" d="M372.3164 392.76172h.83594v2.82031h3.28516v-2.82031h.83203v6.47656h-.83203v-2.91406h-3.28516v2.91406h-.83593v-6.47656"/><path fill="#ff3030" fill-rule="evenodd" d="M282.41406 370.0039h7.6914v-10.14452h-7.6914v10.14453"/><path fill="azure" fill-rule="evenodd" d="M284.2461 361.6914h.83202v5.73829h3.19532v.74219h-4.02735v-6.48047"/><path fill="#ffffe0" fill-rule="evenodd" d="M412.75781 422.5h22.17969v-10.1914h-22.17969V422.5"/><path fill-rule="evenodd" d="M416.25781 414.14063h.50781v6.29687h-.78515v-4.49219h-1.39063v-.55469l.5625-.0625.25-.05468.23047-.08985.20313-.14062.17187-.21094.14453-.29297.10547-.39844m4.8125 0l.23047.01954.21875.05468.20703.08985.19531.1211.1875.15233.16797.17188.3047.42188.24218.49218.17969.54688.11328.57812.03515.59375-.03515.59375-.11328.58203-.1797.5547-.24218.5-.30469.42968-.16796.17969-.1875.15234-.19532.125-.20703.08984-.21875.0586-.23047.01953-.23047-.01953-.21875-.0586-.20703-.08984-.19531-.125-.1836-.15234-.17187-.1797-.30078-.42968-.2461-.5-.17968-.55469-.10938-.58203-.03906-.59375h.83203l.03125.5625.08203.5039.125.44532.16016.375.1914.30078.21094.21875.22266.13672.22656.04688.22656-.04688.22266-.13672.21094-.21875.1914-.30078.16016-.375.1289-.44531.08204-.5039.02734-.5625-.02734-.5625-.08203-.5-.1289-.4375-.16017-.36329-.1914-.29297-.21094-.21484-.22265-.13281-.22657-.04297-.22656.04297-.22266.1328-.21093.21485-.19141.29297-.16016.36328-.125.4375-.08203.5-.03125.5625h-.83203l.03906-.59375.10938-.57812.17969-.54688.24609-.49219.30078-.42187.17188-.17188.18359-.15234.19531-.1211.20703-.08984.21875-.05468.23047-.01954m4.95313 0l.23047.01954.21875.05468.20703.08985.19531.1211.1836.15233.17187.17188.30469.42188.24218.49218.1797.54688.10937.57812.03906.59375-.03906.59375-.10938.58203-.17969.5547-.24218.5-.3047.42968-.17187.17969-.18359.15234-.19531.125-.20703.08984-.21875.0586-.23047.01953-.23047-.01953-.21875-.0586-.20703-.08984-.19531-.125-.1836-.15234-.17187-.1797-.3047-.42968-.24218-.5-.17969-.55469-.10937-.58203-.03906-.59375h.83203l.02734.5625.08203.5039.1289.44532.16017.375.1914.30078.21094.21875.22265.13672.22657.04688.22656-.04688.22266-.13672.21093-.21875.19141-.30078.16016-.375.1289-.44531.07813-.5039.03125-.5625-.03125-.5625-.07813-.5-.1289-.4375-.16016-.36329-.1914-.29297-.21094-.21484-.22266-.13281-.22656-.04297-.22656.04297-.22266.1328-.21094.21485-.1914.29297-.16016.36328-.1289.4375-.08204.5-.02734.5625h-.83203l.03906-.59375.10937-.57812.1797-.54688.24218-.49219.30469-.42187.17187-.17188.1836-.15234.1953-.1211.20704-.08984.21875-.05468.23047-.01954m4.95312 0l.38672.02735.35938.08594.3203.1328.28126.1875.23047.23829.17187.28516.10938.33203.03906.3789-.02344.27344-.05469.23438-.08984.19921-.10937.17188-.12891.14453-.14063.1211-.28906.1953.23438.1211.20703.14453.1836.17188.15234.19531.12109.21484.09375.22657.05469.24609.01953.2539-.03516.3125-.10156.32423-.17188.32421-.24218.3086-.30469.26953-.375.21484-.21094.07813-.23047.0625-.24218.03906-.26172.01172-.26172-.01172-.23828-.03906-.22656-.0625-.20313-.07813-.35938-.21484-.28906-.26953-.22265-.3086-.16016-.32421-.08984-.32422-.03125-.3125h.83203l.02734.2539.07813.23438.12109.21484.16016.1836.1953.15234.21876.11328.24219.07422.2539.02344.2539-.02344.2422-.07422.21875-.11328.1914-.15235.16406-.18359.1211-.21484.07812-.23438.02735-.2539-.02735-.25-.07812-.23829-.1211-.21093-.16406-.1836-.1914-.15234-.21875-.11719-.2422-.07031-.2539-.02734-.2539.02734-.2422.07031-.21874.11719-.19531.15234-.16016.1836-.1211.21094-.07812.23828-.02734.25h-.83203l.01953-.25391.05469-.23828.08984-.22266.125-.21094.15234-.1875.1836-.17578.20703-.15234.23047-.13281-.28516-.19531-.14063-.1211-.1289-.14453-.10938-.17188-.08984-.19921-.0586-.23438-.01952-.27344h.78515l.02344.21485.0664.1914.10547.16407.13672.14062.16406.11328.1875.07813.20704.05078.22265.01953.21875-.01953.20703-.05078.19141-.07813.16406-.11328.13672-.14062.10156-.16407.06641-.1914.02344-.21485-.02344-.21484-.0664-.1914-.10157-.16798-.13672-.13671-.16406-.11329-.1914-.08203-.20704-.05078-.21875-.01562-.22265.01562-.20704.05078-.1875.08204-.16406.11328-.13672.13671-.10546.16797-.06641.19141-.02344.21484h-.78515l.03906-.3789.10937-.33203.17188-.28516.23047-.23828.27734-.1875.32422-.13281.35937-.08594.38672-.02735"/><path fill="#ffffe0" fill-rule="evenodd" d="M275.16797 349.16797h22.17969v-10.19531h-22.1797v10.1953"/><path fill-rule="evenodd" d="M278.66797 340.8086h.50781v6.29296h-.78515v-4.48828H277v-.5586l.5625-.0625.25-.05468.23047-.08984.20312-.14063.17579-.21094.14062-.29296.10547-.39454m4.8125 0l.23047.01563.21875.0586.20703.08984.19922.12109.1836.14844.17187.17578.30078.41797.24219.4961.17968.54296.11328.58203.03907.58985-.03907.59375-.11328.58203-.17969.55468-.24218.50391-.30078.42578-.17188.17969-.1836.15234-.19921.125-.20703.09375-.21875.05469-.23047.01953-.22656-.01953-.21875-.05469-.21094-.09375-.19531-.125-.1836-.15234-.17187-.17969-.30078-.42578-.2461-.5039-.17969-.5547-.10937-.58202-.03906-.59375h.83203l.03125.5625.08203.5078.125.44141.16406.375.1875.30079.21094.22265.22266.13672.22656.04688.22656-.04688.22266-.13672.21094-.22265.1914-.30079.16406-.375.125-.4414.08204-.50781.02734-.5625-.02735-.5625-.08203-.5-.125-.4336-.16406-.36719-.1914-.29296-.21094-.21485-.22266-.1289-.22656-.04688-.22656.04688-.22266.1289-.21094.21485-.1875.29296-.16406.3672-.125.43358-.08203.5-.03125.5625h-.83203l.03906-.58984.10938-.58203.17968-.54297.2461-.4961.30078-.41796.17187-.17578.1836-.14844.1953-.1211.21095-.08984.21875-.0586.22656-.01562m4.95312 0l.23047.01563.21875.0586.20703.08984.19532.12109.1875.14844.16796.17578.3047.41797.24218.4961.17969.54296.11328.58203.03515.58985-.03515.59375-.11328.58203-.17969.55468-.24219.50391-.30469.42578-.16796.17969-.1875.15234-.19532.125-.20703.09375-.21875.05469-.23047.01953-.23046-.01953-.21875-.05469-.20704-.09375-.1953-.125-.1836-.15234-.17188-.17969-.30078-.42578-.2461-.5039-.17968-.5547-.10938-.58202-.03906-.59375h.83203l.03125.5625.08204.5078.125.44141.16015.375.1914.30079.21094.22265.22266.13672.22656.04688.22657-.04688.22265-.13672.21094-.22265.1914-.30079.16016-.375.1289-.4414.08204-.50781.02734-.5625-.02734-.5625-.08203-.5-.1289-.4336-.16016-.36719-.19141-.29296-.21094-.21485-.22265-.1289-.22657-.04688-.22656.04688-.22265.1289-.21094.21485-.1914.29296-.16017.3672-.125.43358-.08203.5-.03125.5625h-.83203l.03906-.58984.10938-.58203.17969-.54297.2461-.4961.30077-.41796.17188-.17578.1836-.14844.1953-.1211.20704-.08984.21875-.0586.23046-.01562m4.95313 0l.38672.02735.35937.08203.32422.13672.27735.1875.23046.23437.17188.28906.10937.33204.03907.375-.01954.27343-.05859.23438-.08984.20312-.10938.16797-.1289.14453-.14063.1211-.28515.19922.23046.11718.20704.14844.18359.17188.15234.1914.125.21485.08985.23046.05468.2422.01954.2578-.03516.3086-.10156.32422-.17188.32812-.24219.30469-.30468.26953-.375.21485-.21094.08203-.22656.05859-.2461.03906-.26172.01172-.2578-.01172-.2422-.03906-.22265-.0586-.20703-.08202-.35938-.21485-.28906-.26953-.22266-.30469-.15625-.32812-.09375-.32422-.03125-.3086h.83203l.02735.25.07812.23829.1211.21093.16015.1836.19531.15234.21875.11719.2422.07031.2539.02735.2539-.02735.2422-.07031.21874-.11719.19531-.15234.16016-.1836.1211-.21093.07812-.23829.02734-.25-.02734-.2539-.07813-.23438-.12109-.21484-.16015-.1836-.19532-.15234-.21875-.11328-.24219-.07422-.2539-.02344-.2539.02344-.2422.07422-.21875.11328-.1953.15235-.16016.18359-.1211.21484-.07812.23438-.02735.2539h-.83203l.01953-.2539.0547-.24219.08983-.22265.125-.20704.15235-.1914.1836-.17188.20702-.15234.23047-.13281-.28515-.19922-.14063-.1211-.1289-.14453-.10938-.16797-.08984-.20312-.0586-.23438-.01953-.27343h.78906l.02344.21484.0625.1914.10547.16798.13672.13671.16406.11329.1914.08203.20704.05078.21875.01562.21875-.01562.20703-.05078.1914-.08204.16407-.11328.13672-.13671.10547-.16797.0664-.19141.01953-.21484-.01953-.21485-.0664-.1914-.10547-.16407-.13672-.14062-.16406-.11328-.19141-.07813-.20703-.05078-.21875-.01953-.21875.01953-.20703.05078-.1914.07813-.16407.11328-.13672.14062-.10547.16407-.0625.1914-.02344.21485h-.78906l.03906-.375.10938-.33204.17187-.28906.23047-.23437.28125-.1875.32031-.13672.35938-.08203.38672-.02735"/><path fill="#ffffe0" fill-rule="evenodd" d="M204.15625 360.92969h22.17969v-10.1914h-22.17969v10.1914"/><path fill-rule="evenodd" d="M207.65234 352.57031h.51172v6.29297h-.78906V354.375h-1.38672v-.55469l.5586-.0664.2539-.0547.23047-.08983.20313-.14063.17187-.21094.14063-.29297.10546-.39453m4.81641 0l.23047.01953.21875.0547.20703.08983.19531.1211.1836.14844.17187.17578.30078.41797.2461.49609.17968.54688.10938.57812.03906.58984-.03906.59375-.10938.58594-.17968.55469-.2461.5-.30078.42969-.17187.17968-.1836.15235-.19531.1211-.20703.09374-.21875.0586-.23047.01953-.23047-.01954-.21875-.05859-.20703-.09375-.19531-.1211-.1875-.15234-.16797-.17968-.30469-.4297-.24219-.5-.17968-.55468-.11328-.58594-.03516-.59375h.83203l.02734.5625.08203.50782.125.4414.16407.375.1914.30078.21094.22266.22266.13672.22656.04687.22656-.04687.22266-.13672.21094-.22266.1914-.30078.16016-.375.125-.4414.08203-.50782.03125-.5625-.03125-.55859-.08203-.5039-.125-.4336-.16016-.36719-.1914-.28906-.21094-.21484-.22266-.13282-.22656-.04296-.22656.04296-.22266.13282-.21094.21484-.1914.28906-.16406.36719-.125.4336-.08204.5039-.02734.5586h-.83203l.03516-.58985.11328-.57813.17968-.54687.2422-.4961.30468-.41796.16797-.17578.1875-.14844.19531-.1211.20703-.08984.21875-.05469.23047-.01953m4.95313 0l.22656.01953.21875.0547.21094.08983.1953.1211.1836.14844.17188.17578.30078.41797.2461.49609.17968.54688.10937.57812.03907.58984-.03907.59375-.10937.58594-.17969.55469-.2461.5-.30077.42969-.17188.17968-.1836.15235-.1953.1211-.21094.09374-.21875.0586-.22656.01953-.23047-.01954-.21875-.05859-.20703-.09375-.19922-.1211-.1836-.15234-.17187-.17968-.30078-.4297-.2422-.5-.17968-.55468-.11328-.58594-.03906-.59375h.83594l.02734.5625.08203.50782.125.4414.16406.375.1914.30078.21095.22266.22265.13672.22656.04687.22657-.04687.22265-.13672.21094-.22266.1875-.30078.16406-.375.125-.4414.08203-.50782.03125-.5625-.03125-.55859-.08203-.5039-.125-.4336-.16406-.36719-.1875-.28906-.21094-.21484-.22265-.13282-.22656-.04296-.22657.04296-.22265.13282-.21094.21484-.1914.28906-.16407.36719-.125.4336-.08203.5039-.02734.5586h-.83594l.03906-.58985.11328-.57813.17969-.54687.24219-.4961.30078-.41796.17187-.17578.1836-.14844.19922-.1211.20703-.08984.21875-.05469.23047-.01953m4.95312 0l.38672.02735.35547.08203.32422.13672.28125.1875.22656.23828.17578.28515.10938.33204.03515.375-.01953.27734-.0586.23437-.08593.19922-.11328.17188-.1289.14062-.14063.125-.28516.19531.23047.1172.21094.14843.17968.17188.15625.1914.1211.21485.08984.23046.0586.2422.01953.2578-.03516.3086-.10547.32812-.17187.32422-.23828.30469-.3086.26953-.3711.21484-.21484.08204-.22656.05859-.2461.03906-.2578.01563-.26172-.01563-.2422-.03906-.22265-.0586-.20703-.08203-.35547-.21484-.29297-.26953-.22265-.30469-.15625-.32422-.09375-.32812-.03125-.3086h.83594l.02734.25391.07812.23438.1211.21093.16015.1875.19141.14844.22266.11719.23828.07031.25781.02734.2539-.02734.23829-.07031.22265-.11719.19141-.14844.16016-.1875.12109-.21094.07813-.23437.02734-.2539-.02734-.25391-.07813-.23438-.1211-.21094-.16015-.1875-.1914-.15234-.22266-.11328-.23828-.07422-.25391-.02344-.25781.02344-.23828.07422-.22266.11328-.1914.15235-.16016.1875-.1211.21093-.07812.23438-.02734.2539h-.83594l.01953-.2539.0586-.23828.08984-.22657.125-.20703.15234-.1914.17969-.17188.21094-.15234.23046-.13281-.28515-.19532-.14063-.125-.1289-.14062-.11328-.17188-.08594-.19922-.0586-.23437-.01953-.27735h.78516l.02344.21485.0664.1914.10547.16797.13672.14063.16406.10937.1875.08204.20703.05078.22266.01562.21875-.01562.20703-.05079.1875-.08203.16406-.10937.14063-.14063.10156-.16796.0664-.19141.02345-.21485-.02344-.21093-.0664-.1914-.10157-.16798-.14063-.14062-.16406-.10938-.1875-.08203-.20703-.05078-.21875-.01563-.22266.01563-.20703.05078-.1875.08203-.16406.10938-.13672.14062-.10547.16797-.0664.1914-.02344.21094h-.78516l.03516-.375.10937-.33203.17578-.28515.22657-.23828.28125-.1875.32422-.13672.35547-.08203.39062-.02735"/></g></defs><use xlink:href="#al"/></svg>