<svg xmlns="http://www.w3.org/2000/svg" role="img" xmlns:xlink="http://www.w3.org/1999/xlink" viewBox="142.45 309.95 326.84 171.84"><defs><clipPath id="a"><path d="M144 311.67188h1v168.65625h-1zm0 0"/></clipPath><clipPath id="b"><path d="M144 311.67188h324v168.65625H144zm0 0"/></clipPath><clipPath id="c"><path d="M467 311.67188h1v168.65625h-1zm0 0"/></clipPath><clipPath id="d"><path d="M144 478h4v2.32813h-4zm0 0"/></clipPath><clipPath id="e"><path d="M154 477h7v3.32813h-7zm0 0"/></clipPath><clipPath id="f"><path d="M167 477h7v3.32813h-7zm0 0"/></clipPath><clipPath id="g"><path d="M181 477h6v3.32813h-6zm0 0"/></clipPath><clipPath id="h"><path d="M194 477h7v3.32813h-7zm0 0"/></clipPath><clipPath id="i"><path d="M207 477h7v3.32813h-7zm0 0"/></clipPath><clipPath id="j"><path d="M221 477h6v3.32813h-6zm0 0"/></clipPath><clipPath id="k"><path d="M236 476h3v4.32813h-3zm0 0"/></clipPath><clipPath id="l"><path d="M249 476h3v4.32813h-3zm0 0"/></clipPath><clipPath id="m"><path d="M261 477h5v3.32813h-5zm0 0"/></clipPath><clipPath id="n"><path d="M274 477h6v3.32813h-6zm0 0"/></clipPath><clipPath id="o"><path d="M287 478h7v2.32813h-7zm0 0"/></clipPath><clipPath id="p"><path d="M286 480h3v.32813h-3zm0 0"/></clipPath><clipPath id="q"><path d="M300 478h8v2.32813h-8zm0 0"/></clipPath><clipPath id="r"><path d="M300 480h2v.32813h-2zm0 0"/></clipPath><clipPath id="s"><path d="M313 478h8v2.32813h-8zm0 0"/></clipPath><clipPath id="t"><path d="M313 480h3v.32813h-3zm0 0"/></clipPath><clipPath id="u"><path d="M327 478h7v2.32813h-7zm0 0"/></clipPath><clipPath id="v"><path d="M326 480h3v.32813h-3zm0 0"/></clipPath><clipPath id="w"><path d="M339 479h9v1.32813h-9zm0 0"/></clipPath><clipPath id="x"><path d="M340 478h2v2.32813h-2zm0 0"/></clipPath><clipPath id="y"><path d="M353 478h8v2.32813h-8zm0 0"/></clipPath><clipPath id="z"><path d="M353 480h2v.32813h-2zm0 0"/></clipPath><clipPath id="A"><path d="M367 477h7v3.32813h-7zm0 0"/></clipPath><clipPath id="B"><path d="M380 479h8v1.32813h-8zm0 0"/></clipPath><clipPath id="C"><path d="M380 479h2v1.32813h-2zm0 0"/></clipPath><clipPath id="D"><path d="M393 479h8v1.32813h-8zm0 0"/></clipPath><clipPath id="E"><path d="M393 479h2v1.32813h-2zm0 0"/></clipPath><clipPath id="F"><path d="M407 478h7v2.32813h-7zm0 0"/></clipPath><clipPath id="G"><path d="M406 480h3v.32813h-3zm0 0"/></clipPath><clipPath id="H"><path d="M419 479h9v1.32813h-9zm0 0"/></clipPath><clipPath id="I"><path d="M420 478h2v2.32813h-2zm0 0"/></clipPath><clipPath id="J"><path d="M433 479h8v1.32813h-8zm0 0"/></clipPath><clipPath id="K"><path d="M433 478h2v2.32813h-2zm0 0"/></clipPath><clipPath id="L"><path d="M446 480h9v.32813h-9zm0 0"/></clipPath><clipPath id="M"><path d="M446 479h3v1.32813h-3zm0 0"/></clipPath><clipPath id="N"><path d="M460 478h8v2.32813h-8zm0 0"/></clipPath><clipPath id="O"><path d="M144 465h4v4h-4zm0 0"/></clipPath><clipPath id="P"><path d="M144 450h3v7h-3zm0 0"/></clipPath><clipPath id="Q"><path d="M144 436h2v8h-2zm0 0"/></clipPath><clipPath id="R"><path d="M144 442h2v2h-2zm0 0"/></clipPath><clipPath id="S"><path d="M144 423h2v8h-2zm0 0"/></clipPath><clipPath id="T"><path d="M144 429h2v2h-2zm0 0"/></clipPath><clipPath id="U"><path d="M144 410h2v8h-2zm0 0"/></clipPath><clipPath id="V"><path d="M144 400h4v1h-4zm0 0"/></clipPath><clipPath id="W"><path d="M144 383h2v8h-2zm0 0"/></clipPath><clipPath id="X"><path d="M144 372h4v4h-4zm0 0"/></clipPath><clipPath id="Y"><path d="M466 372h2v3h-2zm0 0"/></clipPath><clipPath id="Z"><path d="M144 359h4v3h-4zm0 0"/></clipPath><clipPath id="aa"><path d="M466 359h2v3h-2zm0 0"/></clipPath><clipPath id="ab"><path d="M144 344h3v6h-3zm0 0"/></clipPath><clipPath id="ac"><path d="M466 346h2v4h-2zm0 0"/></clipPath><clipPath id="ad"><path d="M144 332h4v4h-4zm0 0"/></clipPath><clipPath id="ae"><path d="M466 332h2v3h-2zm0 0"/></clipPath><clipPath id="af"><path d="M144 319h4v3h-4zm0 0"/></clipPath><clipPath id="ag"><path d="M465 317h3v2h-3zm0 0"/></clipPath><g id="ah" clip-path="url(#clip1)"><path fill="#fff" fill-opacity="0" fill-rule="evenodd" d="M0 0h1000v1000H0zm0 0"/><path fill="#d3d3d3" fill-opacity="0" fill-rule="evenodd" d="M162.15234 355.86719l-.23437.29297.0586.23437.11718.17188.17578.23437.29297.34766.11328.0586.11719-.17188.0586-.23438.17577-.17578.46485-.17578h.69922l.23437.29297.28906.8164.0586.17579.17578.23046.35156.23438.69922.69922.17188.17578.23437.34765.23438.41016.28906.58203.41015.46485.23047.23437.23438.17578.11719.23047.17578.29297.17187 1.16406v.23438l.0586.28906.05859.11719.11719.11719.34765.41015.11719.17188.17578.17578.17578.23437.11719.17188.17188.35156.05859.23438.23437.40625.23438-.0586-.17578.17578-.0586.92969h-.58203l-.23437-.11328-.34766.11328-.11719.11719-.05859.29297-.0586.17578-.11718.17187-.46484.29297-.0586.23438-.0586.11328v.64453l.0586.17187v.41016l.0586.0586v.40624l.05859.40625.11719.17579.05859.05859.23047.64062-.0586.29297v.69922l-.05859.58203v.23438l-.0586.23047-.05468.35156v1.92187l.05469.1172h.42578l-.36719.11718-.02344.35156.89063 1.16797 1.74219.53906 1.33984.35938v.53906l.08984.8086.53516.71484 1.51953.26953.89063-.08594.08984 1.16406.53516.1797 1.16015-.1797 2.05469-.98437 1.16016-.36328 1.8789-.17578 1.69531-.1797-.17968.71876-1.51563.08594-1.25.08984-.80469.26953-1.07421.8086.26953.71875.53515.89843-.17968.625-.26563.8086.26563 1.07812.625.89844.80468.17969 1.25-.1797-.26562.72267.09766.5039.05468.29297v.17188l.0586.29296v.40625l.17578.1172.35156.11718h.40625l.29297-.17578.11328-.11719.0586-.11719.11718-.23047.0586-.17578.35156-.46484.23047-.17578.17578-.0586.17578.0586.0586.17578.11718.98828.05469.46875.0586.17188.11718.23437.17578.0586.8164.05859h.28907l.11719.23437.05859.40625.0586.35156v1.10547l.11718.29297.11719.34766.28906.69922.17578.35156.58203.7539.35157.17579.17187.0586.46875.23437.64063.46484.34765.23438.29297.17578.29297.05468.23047.0625.8164.34766.29297.17578.11328.17188.35157.35156.11719.17578.52343.64063v.28906l.0586.35156v.34766l.05859.35156.0586.28906.11718.0586.17188.05859h.17578l.58203.23437.17578.1172.17578.28905.17578.23438.11328.23437.29297.23047.11719.11719v.41016l.0586.05468.28906.23438.23437.11719.0586.11718.11718.17188.0586.11719.23047.23437.05859.17578.23437.0586.1172.05859-.1172.11328-.05859.11719v.11719l-.11719.29296-.11719.28907v.58203l.17579.11719.11718.05859.0586.11719.11719.11719.11328.05859.17578.34765.0586.35157.05858.40625v.17578l-.05859.17578-.11719.69922v.17187l.1172.17579.29296.29296h.40625l.17578.1172.11719.17187.11719.29296v.23438h-.52735l-.23047-.23438h-.23437l-.17578.0586-.0586.69922.0586.34765.11719.17579.17578.41015.11718.23047.28907.46875.17578.05469h.52344l.23437.0586.75781.64062.0586.29296v.23438l.05859.0586.23047.34765v.35156l-.11719.17188v.29297l.29297.28906.29297.17578.17187.0586.29297.17577.29297.1172.58203.40624.28906.23438.29297.17578.21875.16015.01563.01172.23047.17579.64062.52343.17578.23438.1172.17578.17577.17578.11328.17188v.64062l.1172.17578.46874.11719.58203.11719.23438.05859.23047.11328.29297.11719.11328.0586.58593.35156.28907.17187.17578.0625.17578.05469.17578.0586.69922.35155.28906.17579.23438.05468.28906.17578.23437.1172.64063.40624.29297.11719.17187.0586.23438.05859.41015.05859.23047.0586.23438.11718.0586.17188-.41017.17578.46875.0586.0586.29296.11328.23438.17578.05468.23438.0586.17578.05859.40625.11719.64062.23437.11719.17188.0586.23437v.17578l-.0586.1172-.0586.40624.23438.23438.11719.05859.34766.11719.64062.23047.17578.11718.28906.1172.17578.17577.23438.46485.58203 1.10546.17578.17579.34766.17578.17578.11719.35156.11718 1.04688.52344.23437.0586.46485.11327.29297.0586.46484.17578.75781.58203.23438.23438.34765.46484.17578.17578.28907.23438.8164.69921.29297.17579.28906.28906.29297.17578.29297.28906.69531.64063.17578.17578.29297.23437.28907.23438.46875.28906.64062.58203.34766.23438.23437.29297.34766.34765.35156.46485.9336.99218.34765.40625.11719.17579.23437.05859.11328.11719.64454.17578.23047.11328.23437.0586.29297.17577.23047.1172.9336.69921.40624.40625.23438.17578.40625.17578.23437.11719.8164.34766.34766.23437.23438.11719.29297.28906.23047.11719.7578.35156.35157.17188.23047.05859.29297.11719.23437.0586.8711.17577h.8164l.46875.23047.17188.0586.875.69921.46484.1172.29297.05858.17578.0586.23047.0586.46875.05859.34766.05859.35156.0586.40625.05859h.29297l.17187.0586v.23046l.17578.17578h.29297l.34766.0586.35156.05859.69922.11719h.64063l.46484-.23438.29297-.17578.17187-.11719.41016-.17187.28906-.17578.9336-.46485.46875-.29297.52343-.29296.46485-.17188.46484-.17578 1.05078-.46485.28906-.11718.41016-.11719.28906-.11719.52735-.17578 1.51562-.69922.58203-.34765.28907-.0586.29297-.0586.34765-.11718.875-.23047.35156-.11719h.11329l.23437-.05859.875-.23437.23438-.0586h.8125l.35156-.0586.8164-.11718.17188-.0586.35156-.05468.29297-.0586.23047-.05859.8164-.17578.17579-.0586h.34765l.23438-.05859.46484-.11718.75781-.17188.23438-.0586h.34765l.41016-.11718.28906-.0586 1.28516-.05859h.28906l.41016-.0586.23047-.05858h.17578l.875-.1172h.40625l.41015-.11718h.34766l.35156-.11328.8711-.0586h1.75l1.04687.28907.41016.11719.28906.11718.35156.11719.28907.11719 1.05078.17187.28906.0586h.29297l.29297.05859.17187.0586.41016.05859.17187.0586.1172.05858h.11718l.11719.0586.35156.0586h.11328l.41016.0664 1.92187.39453 1.92578.39453 1.51953.44922 1.69532.71875 2.14453.80469 1.60547-.71875 1.42968-.80469 1.16016-1.07813 1.25-.44921 3.03516-.71875 1.875-.35938 2.14453-1.34765 2.23437-1.25391 2.5-1.25781 1.69531-.44922 1.78516-.17969 1.16016-.26953.625.53906 1.33984-.26953.71485-.98828.98437-1.34375.44531-.17969.80469-.35937 1.875-.53907 1.78516-.44921 1.25-.26954 1.16015-.08984 1.69922-.08984 1.96094-.26954 1.25-.08984h.53906l.625-.08984h.89063l2.14453-.17969 2.41015-.17969 2.58985-.08984 1.69531.17969 1.60938.08984 1.42968.35938 1.16016.71875 1.875.98828 1.16015 1.52734.26563.71484.6289.08985.35548.89844.53515.53906.53516 1.52734 1.07422.35938h.53515l-.80469.53515.08985 1.70703.71484 2.69532.89063.80468.89453.98829.71484 1.2578 1.78516.53907 1.51953-.17969.35547 1.34375 1.60937-.80469.98047-.53906.26953.26953.31641-.21484.21875-.14453.80078.44922.44922-.35938h.35547l.53515-.26953.53907-.71875.53515-.26953.625-.98828 1.16016.44922.83984.3711 1.39454.61718 1.6953-.17969h1.60548l1.78515.08985.17969-1.70704.53516-1.34375.80468.26954.4922.84765.40233.40625-.08984.53906v.35938l.71485.44922.71093-.26953h1.42969l.35938.98828.4453 1.25781.71485 1.34375 1.25.6289 1.69531.62891.71485-.17969.17969-.53906.98046-.08984.44922.35937.08594 1.25782-.26563.6289-.53515.17969v.53906l.71484.98438.26563.53906.98437.98828.80078 1.07813-.26562.35937-.08985.89844-.625 2.33203-.35546 2.0664-.08985 1.79298-.17969.71875-.08984.53906v1.4375l-.98047 1.88281-.35937 1.70703-.53516.89844-.80469 1.16797-.26562.53906 2.05469 1.2539.08593.35938-.35546.53906-.08985-.17968v.80859l.08985 1.4375-.44532.71484-1.07422.09375-.26562.71485.53515.89844.8047.71875 1.16015.80859 1.33984.26953.44531.35938-.35546.44921-1.78907-.08984-1.25-.44922-.71484-.71875-.625-.08984-.17578 3.58984-.1875 1.3086h89.35937V311.70313h-55.26953v49.08203l.76172.125 3.28906.54296 2.02344 2.83594v2.7539l2.35156.33204 2.34766.33203h4.05078l-1.3789 4.16016-2.02344.70703-2.02344.70312-.54297.34375-2.59375 1.6172-.1875.11718-2.02344-2.07813-.73046-2.74218-2.67188-2.07813-1.375-3.5-.0664-.08203-1.95704-2.67188 2.75-1.41796v-49.08204H294.42187v91.41407l.1172.03125.1328.01172.07422.07421.10547.04688.08985.0586.08593.05859.08985.0586.29687.29687.0586.08984.03125.11719.02734.11719.01563.13671-.03125.1172-.0586.08983-.0586.08594-.04296.10547-.04688.10156-.02734.1211v.14453l.17578.26953.14844.14844.07422.08594.07422.07421.04296.10547.0625.08985.0586.08593.04297.10547.0586.08985.04687.10156.04296.10547.0586.08594.11719.17968.07421.07422.0625.08594.0586.08984.04297.10547.0586.08985.05858.08593.0625.08985.0586.08984.04297.10156.11719.17969.07421.07422.0586.08594.07422.07421.08984.0586.10547.04687h.14844l.1328-.01562.13282.01562.10156-.04687.07422-.07422.04688-.10156-.01563-.13281v-.14844l-.04687-.10547-.02735-.11719-.04687-.10156-.02735-.1211-.04296-.10156-.0625-.08984-.04297-.10156-.04297-.10547-.03125-.11719-.01563-.13281-.01171-.13672.08593-.0586.0586-.08593.12109-.03125.04297.10547.01562.1328v.1172l.0586.10156.0586.08984.08983.0586.14844.14843.0586.08985.04296.10547-.01171.10156.08593.0586.10547.04687.08594.0586.08984.05858.07422.07422-.11719.02735-.10546.04687-.08594.0586-.07422.07421-.0586.08985-.0625.08594-.02734.12109-.04687.10156-.04297.10547-.03125.11719-.01172.13281-.01563.13281v.14844l.02735.11719.04687.10547.04297.10156.0586.08984.07421.07422.08985.0586.07422.07421.08984.0586.0586.08984.04296.10547.04688.10156.11719.03125.1328.01563h.14845l.11718-.03125.10547.04297.04297.10547.04688.10156.02734.1211L299.5 410l.02734.11719.03125.1211.02735.11718.10547.04297.10156.04687.13281-.01562.14844.14844.0625.08593.07422.07422.07031.07422.08984.0625.10547.04297.10156.04297.1172.03125.13671.01562.11719-.03125.07422-.07422.02734-.11718-.01172-.13282-.03125-.12109-.02734-.11719.04297-.10547h.11719l.08984.0625.11719.02735h.14843l.13282.01562h.14843l.13282.01563.1328-.01563h.14845l.1328-.01562.13282-.01172.13672.01172.11719-.02735.13281-.01562.1914-.0586-.05859.17579-.01562.1328-.02735.1211-.01562.13281-.0586.08594-.1328.01563-.10548.04687-.10546.04297-.1172.03125-.11718.02735-.26563.03125h-.14843l-.13281.01562-.07422.07422.05859.08594.14844.14843.11719.1797.07421.0703.08985.0625.08984.0586.08594.0586.08984.05858.10156.04297.10547.0625.10547.04297.08594.0586.10547.04687.10156.04297.17969.11719.0586.08984-.04298.10156-.04687.10547.01562.13281.22266.22266.0586.08985.04296.10156.03125.1211.04297.10155.01563.13282.03125.11718.01171.13672.03125.11719.14844.14844.10156.04297.10547.04296.1172.03125.1328.01563.13672.01563h.11719l.11719-.03125.08984-.0586.04297-.10547.04688-.10156.04296-.10547.03125-.11719.01172-.1328v-.14845l-.01172-.1328-.01562-.13282-.03125-.11719-.04297-.10547-.04688-.10547-.04296-.10156-.04297-.10547-.01563-.13281.01563-.13281.02734-.11719.03125-.11719.02735-.1211.04687-.10155.08984-.0586.08594-.0625.07422-.07422.08984-.05859.22266-.22266.0586-.08593.07421-.07422.11719-.17969.0586-.08594v-.14844l-.07423-.07421-.10156-.04688-.10547-.04297-.10156-.04297-.0586-.08984-.04687-.10547-.02734-.11719.08984-.05859.11719-.03125.10156-.04297.17969-.11719.14844-.14843.01172-.13282-.01172-.10546-.08985-.0586-.1328.01563h-.14845l-.1328.01562-.13282-.01562-.1211-.03125-.08593-.0586-.07422-.07422-.0586-.08984-.0625-.08594-.11718-.17969-.0586-.08593.03125-.1211.08594-.05859.1211-.03125.05859-.08594v-.1211l-.03125-.11718-.0586-.08984-.05859-.08594-.04687-.10547-.02735-.11719-.01562-.1328.0586-.08985.07421-.07422.08984-.0586.1172-.17968.07421-.07422.0586-.08594.14843-.14844.1211-.03125.1328-.01562.13282.01562.07422.07422.04297.10547.01562.13281-.03125.1172-.11719.03124-.1328.01172-.14844.14844-.04297.10547-.04688.10156-.02734.1211-.03125.11718v.14844l.03125.11719.04297.10546.05859.08985.07422.07031.07422.07422.11719.03125.12109.02734.11719-.02734.1328-.01563h.1172l.08984.0586.07422.07422.04687.10546.0586.08594.10156.04688.13281.01562.10547.04297.08594.0586-.01172.10546-.07422.07422-.17969.11719-.05859.08984-.08984.0586-.07032.07422-.07421.07421-.0625.08985-.02735.11719-.01562.1328.01562.13282-.01562.13281v.14844l.01562.13281.02735.1172.03125.12108.07421.07422.08985.0586.08594.0586.08984.05858.11719.03125v.08594l-.10157.04688-.08984.0586-.26563.03124-.11718.02735h-.14844l-.10547.04296-.10156.04688-.0586.08984-.0625.23438-.01171.13281-.03125.1211-.01563.1328v.29298l-.01172.1328.01172.13673.01563.1328.1328.01563.13282.01172.1211.03125.08593.0586.07422.07421.04688.10547.04296.10157.01563.1328v.44532l-.01563.13281v.44532l.03125.26562.02735.11719.01562.13281.03125.11719.08594.21094.03125.26562v.14844l-.03125.11719-.02734.11718-.03125.1211-.02735.11719-.03125.11718-.03125.1211-.01171.1328-.01563.13282.08984.0586.1172-.03125.10155.01562.04688.10547-.03125.26562v.44141l-.04297.10547-.04688.10547-.04296.10156-.04297.10547-.0586.08594-.03125.12109-.04296.11719-.03125.11719-.01563.1328.01563.13282.05859.08984.10547.04688.08594.0586.05859.08593-.01172.13672-.03125.11719-.04297.10156v.44531l-.01562.13281v.14844l-.03125.11719-.04297.10547-.02735.11719-.04687.10546-.04297.10157-.03125.12109-.02734.11719-.03125.13281-.03125.11719-.02735.11719-.04297.10546-.03125.1172-.03125.12108-.01171.13282-.01563.13281v.29688l.02734.11718v.14844l.04688.39844.02734.11719.0586.08984.12109.03125h.14844l.13281-.01563.0586.08985v.11719l-.0586.08984-.08984.0586-.10157.04296-.10546.04688-.08985.05859-.08594.0586-.13671.01562-.1172-.03125-.1328-.01563-.10157.04688-.0625.08594-.01172.13671-.01562.13282-.03125.11719-.02735.11718-.01562.13281-.03125.1211v.29687l.01563.13282.03125.11718v.14844l.01171.13281v.14844l-.02734.11719-.04688.10156-.02734.1211-.03125.11718-.0586.08985-.07421.07421-.10156.04297-.10547.04688-.11719.02734-.1211.03125-.10156-.04687.0586-.08594.10547-.04688.02734-.11718.03125-.11719.02734-.1211.03125-.11718v-.14844l.01563-.13281-.03125-.11719-.04297-.10547-.10547.01563-.07422.07422-.10156.04296-.08984.0625-.07422.07422-.04297.10157-.01563.1328-.03125.1172L304.25 426l-.03125.11719-.02734.11719-.03125.12109-.02735.11719-.03125.11718-.04297.10547-.08984.0586h-.08984l-.1172-.03125-.03124-.08594.01562-.13672-.03125-.11719v-.14844l-.01171-.1328v-.14844l-.0625-.23438-.02735-.1211-.04297-.10156-.04687-.10546-.0586-.08594-.05859-.08985-.04297-.10546-.0625-.08594-.14844-.14844-.0703-.07422-.10548-.04687-.10547-.04297-.10156-.04297-.29687-.29688-.08985-.07421-.08594-.0586-.10546-.04297-.08985-.0625-.08594-.0586-.10546-.04296-.08985-.0586-.08594-.0625-.07421-.0703-.10547-.04688-.08594-.0586-.10547-.04296-.08984-.0625-.10156-.04297-.10547-.04297-.08594-.0586-.10547-.04687-.10547-.04297-.10156-.04687-.08985-.0586-.10156-.04297-.10547-.04296-.08984-.0625-.11719-.02735-.13281-.01562-.13281.01562H299.75l-.13281.01563-.11719-.03125-.08984-.0586-.07422-.07422-.08985-.05859-.10156-.04688h-.14844l-.12109-.02734-.10156-.04297-.07422-.07422-.11719-.17968-.08984-.0586-.10156-.04297-.08985-.0625-.10547-.04296-.08984-.0586-.08594-.0586-.10547-.04687-.0586-.08594-.05858-.08984-.04297-.10547-.04688-.10156-.07422-.07422-.08594-.0586-.07421-.07421-.08985-.0586-.22265-.22265-.04297-.10547-.03125-.26563.10547-.04296h.14453l.10547.04296.07421.07422.08985.0586.08594.0586.10546.04687.08985.05859.14844.14844.0703.07422.14845.14843.0625.08594.07421.07422.08594.0586.07422.07421.08985.0625.08984.0586.08594.05859.26953.17578.10156.04688.10547.04296.10156.04297.04688-.07421.05859-.08594.07422-.07422.07031-.07422.10547.04297.07422.07422.0586.08984.04296.10156.04688.10547.04296.10547.1211.02735.11719-.02735.07421-.08984.04297-.10547.0586-.08985.07422-.07421.10546-.04297.1172-.02735.1328.01172.08985.0586.14844.14843.05859.08985.04297.10547.04687.10156.04297.10547.04297.10156.10547.04688.10547.04296.13281.01563.08594-.0586.0586-.08984.07421-.07422.10547-.04297.11719.02735.10547.04687.10156.04297.10547.04297.10156.04688.17969.11718v.11719l-.01563.13281.01563.13281.01562.13672.0586.08594.10156.04688.1211.02734.11718.03125h.14844l.11719-.03125.05859-.08984.17969-.1172.05859-.08983.07422-.07422.0586-.08594.11718-.17969.17969-.11719.11719.03125.08984.0586.04297.07422-.01563.1328v.1172l.08985.05859h.14843l.13282-.01563.1328-.01171.26563-.03125.10547-.04297.11719-.03125.1211-.02735.07421-.07421.07031-.07422.0625-.08985-.01562-.10547-.04688-.10156-.10156-.04297-.10547-.01562-.11718.02734-.26563.03125h-.14844l-.07421-.07422-.08985-.0586-.11719-.03124-.11718-.02735-.13282-.01562h-.14843l-.13282.01563h-.29687l-.10547-.04688-.14844-.14844-.04297-.10156-.05859-.08984.22266-.22266.08593-.0586.10547-.04296.11719-.03125.13281-.01563.13281.01563.13672.01562.10157.04297.1328-.01172.08985-.0625.10156-.04297.0625-.08984-.04687-.10156-.08984-.0586-.1172-.03125-.10155-.04296-.0586-.08985-.0625-.08984v-.11719l.01563-.13281.10547-.04688.07421-.07031v-.1211l-.08984-.05859-.03125-.11719.08985-.05859.07421-.07422.04297-.10547.0586-.08984.04687-.10156.01563-.13281v-.14844l-.04688-.10547-.04297-.10156-.08984-.0586-.13281-.01562-.10157-.04297-.13671-.01563-.1172-.03125h-.4453l-.13282-.01562-.13281-.01172-.13281-.01563-.11719-.03125h-.14844l-.13281-.01562-.13281-.01172-.26563-.03125-.1211-.04297-.08593-.0586-.07422-.07421v-.14844l.01172-.13281.10547-.04688.10156-.04296.13281-.01563h.15235l.13281-.01562h.29297l.1211.03125.10156.04296.08984.0586.23438.0625.12109-.04688.08984-.05859.10156-.04297.13282-.01562.10547.04296.10156.04688.13281.01172.1211-.02735h.14453l.12109-.03125.11719-.02734.10547-.04687.07421-.07422.08594-.0586.14844-.14843.0586-.08594.04687-.10547.02734-.11719.01563-.10547-.10156-.04296-.08985-.0586-.11719-.03125-.10546-.04297-.08985-.0625-.07422-.08594-.07422-.07421-.10156-.04297-.10547-.04688-.10156-.04297-.0586-.08984-.04687-.10156-.08594-.21094-.0625-.08594-.05859-.08984-.07422-.07422-.08594-.0586h-.26953l-.11719.03126-.08984.05859-.10156.04297-.13281.01562-.10547-.01562-.02735-.11719-.0625-.08984-.11718-.03125-.10157-.04297-.14843-.14844-.03125-.11719-.01563-.10546.07422-.07422.17969-.1172.11719-.02733.11718-.03125.13672.01562.10156.04297.10547.04297.10156.04687.10547.04297.1172.03125.1328.01563.1172.02734.1328.01563.10547-.01563.08985-.0586-.07422-.07421-.10547-.04297-.07422-.07422-.07422-.08984-.14844-.14844-.08593-.0586-.08985-.05859-.07422-.07422-.08984-.0586-.10156-.04687-.1211-.02734-.10156-.04688-.10547-.04296-.11719-.03125-.10156-.04297-.1211-.03125h-.14843l-.11719.03125-.10546.04297-.08594.0625-.17969.11718-.08594.0586-.08984.0586-.10547.04687-.08594.05859-.10547.04297-.10156.04297-.10547.04687-.07422.07422-.05859.08985-.0586.08593-.04687.10547-.0586.08594-.07421.07422-.13281-.01172-.1172-.03125h-.11718l-.07422.07422-.08984.0586-.07422.07421-.08984.0586-.08594.05859-.10547.04687-.10156.04297-.13672.01563-.10156-.04297-.14844-.14844-.10547-.04688h-.08594l-.10547.04688-.10156.04297-.1211.03125-.11718-.03125-.07422-.07422v-.11719l.03125-.1211.07422-.0703.0586-.08985.07421-.07422.11719-.03125.10547-.04296h.29297l.13281-.01563.13672-.01563.10156-.04296.08985-.0586.10156-.04687.08984-.0586.13281-.01171.08985.05859.13281.01172.08984-.0586.08594-.05859.10547-.04297.08984-.0586.08594-.0625.08985-.05859.14843-.14843.0586-.08594.05859-.08985.10547-.04296.13281-.01563.11719.02735.1211.03125.05859-.0586.05859-.08984.03125-.26563.02734-.11719.10547.01172.13281.01563.10157-.04297.08984-.0586.0586-.08984.07421-.07422.0586-.08984.04687-.10156.01172-.13281-.01172-.13282-.04687-.10547-.14844-.14843-.0586-.08985-.05859-.08594-.04297-.10546v-.44532l.01563-.1328v-.14845l.01172-.1328-.0586-.0586-.08984.0586-.10156-.04298-.17969-.11719-.08594-.05859-.0625-.08984-.0586-.08985-.07421-.07421-.08594-.0586-.1211.03125-.10155.01172-.10547.04688-.08594.05859-.10547.04297-.14844.14844-.08984.05859-.08594.0586-.08984.0625-.10547.04296-.13281.01563v-.1211l.10547-.04297.11718-.03125.07422-.0703.04297-.10548v-.14844l-.02734-.11718-.14844-.14844-.13281-.01563h-.14844l-.11719.03125-.10547.04297-.10156.04297-.08984.0625-.11719.02735-.07422-.07422.01172-.13281-.04297-.10157-.04297-.10547-.08984-.05859-.11719.02734-.1211.03125-.11718.03125-.10156.04297-.1211.03125-.10156.04297-.10547.04297-.08984.0586-.10156.01562v-.11719l.01562-.13281-.0586-.08985-.07421.04297-.14844.14844-.0586.08985-.07421.07421-.04688.10547-.04296.10156-.07422.07422-.0586.08985-.07422.07422-.05859.08593-.07422.07422-.08984.0625-.07422.07031-.07422.07422-.10156.01563-.13281.01562-.10547-.04296v-.1211l.14843-.14844.04297-.10156.0586-.08984.04687-.10156.04297-.10547.0586-.08985.03124-.11719.04297-.10156.03125-.1211.02735-.11718.04687-.10547.04297-.10156.04297-.10547.07422-.07031.08984-.0625.08985-.0586.10156-.04296h.29687l.26563-.03125.10547-.04297-.07422-.07422-.11719-.03125-.10547-.04297-.08984-.0586-.10156-.04687-.08985-.0586-.10156-.04296-.10547-.04297-.08984-.0625-.08594-.0586-.10547-.04296-.10156-.04297-.1211-.03125-.11718-.03125-.10157-.04297L297.5 410.25l-.10156-.04297-.08985-.0586-.04296-.10546-.01563-.13281.10156-.04297.13281-.01563.13672.01563.13282-.01563.10156-.04297.0586-.08984.01562-.10547-.08985-.0586-.07421-.07421-.10157-.04297-.08984-.0586-.14844-.14843-.04297-.10547-.01562-.13281v-.29297l-.0586-.08985-.08984-.05859-.07422-.07422-.04297-.10547-.03125-.11718-.0586-.08985-.07421-.07422-.11719-.02734-.07422-.07422-.08984-.0586-.08984-.0625-.08594-.05859-.07422-.07421-.0586-.08594-.04687-.10547-.08594-.0586-.14843-.14843-.19532-.0586-.1328.01563-.10157.04297-.07422.07422-.04688.10156-.04296.10547-.0586.08984-.0586.08594-.29687.29687-.08984.0586h-.08594l-.0625-.08594-.04297-.10547.03125-.11719.0586-.08984.02734-.11719-.01172-.13281-.08984-.0625-.10547.04688-.11719.02734-.11719.03125-.26953.17578-.10156.04688-.11719.02734-.10546.04687-.08985.0586-.10156.04297-.0586-.08594-.04687-.10547.01563-.13281.04687-.10547.07031-.07422.07422-.07031.0586-.08985v-.14843l-.04297-.10547h-.23829l-.10156.04687-.03125.11719-.02734.11719-.03125.1211-.07422.04296-.13281.01563-.07422-.04688-.04297-.10156-.04297-.10547-.04687-.10156-.04297-.10547-.1211.03125-.10156.04297-.13281.01562-.11719.03125-.10547.04297-.08984.0586-.10156.04687-.1211.02734-.13281.01563-.10156-.04297-.0586-.08985-.04687-.10546-.04297-.10157-.04297-.10546v-.1172l.0586-.08984.08593-.05859.17969-.11719.10156-.04687.10547-.04297.10547-.0586.10156-.04296.08985-.0625.10156-.04297.10547-.0586.10156-.04687.08984-.0586.10547-.04296.10156-.04297.08985-.0625.10156-.04297.13672-.01563.11719.03125.10156.04297.1211.03125.10156.04297.10546.04688.10157.04296.10547.04297.10156.04688.10547.04297.10156.04297.10547.04687.08594.0586.10546.04296.1172.03125.10546.04297.10156.04688.08985.0586.10547.04296.10156.04297.10547.04687.11719.02735.10156.04687.1211.02735h.14843l.08594-.0586.01562-.10156.0586-.08984-.02735-.1172-.07422-.07421-.11719-.17969-.07421-.07422-.08985-.07421-.17969-.1172-.08593-.05859-.10547-.04296-.10156-.04688-.26954-.17578-.05859-.08985-.07422-.07421-.0586-.08985-.04296-.10156-.03125-.11719-.01563-.13672v-.5625l-.01171-.1328-.01563-.13282-.03125-.11719-.01562-.13281-.01172-.13281-.03125-.1211-.22266-.22265-.0586-.08594-.01562-.10547.03125-.11719.13281-.01562v-91.41406H172.9922v1.45312l-.0586.23438-.35156 1.05078-.17187.52343-.1172.34766-.17577.41016-.11719.17187-.23438.29297-.23046.0586h-.35157l-.11718.05859-.23047.40625v.29297l.11719.17578.23046.23047.1172.23437.64062.75781.29297.46485.17578.23437.23047.35156.23437.34766.64063.8164.17578.46485.17187.41016.11719.69531.17578.46875.11719 1.39844.0586.46484v.875l.11718 1.04688v4.78125l-.0586.46484-.35156 1.28125-.17578.52344-.11328.41015-.35156.9297L172.93359 336l-.23437.58203-.11719.17578-.17187.34766-.17578.40625-.35157.8164-.0586.29297-.11327.29297-.11719.28906-.0586.17579-.11718.875-.0586.40625-.05859.11718-.0586.17579-.05859.17187-.23047.52734-.11718.17188v.23437l-.11719.23438-.0586.17187-.17577.58594v.28906l-.0586.17579v.29296l-.0586.11329-.05859.52734v.17187l-.05468.23438v2.6211l-.17578.8164-.1172.17578-.17577.23438-.1172.17187-.11327.23438-.58594.93359-.23047.28906-.29297.46485-.17578.23437-.28906.35156-.35156.69922-.11328.23047-.17579.41016-.17578.23046-.40625.52735-.8164.69922-.29297.17187-.28906.23438-.17579.11719-.17578.17578-.52344.40625-.52734.17578-.17187.17578-.23438.05469-.64062.17578h-.75782m12.21094 31.02344l-1.07422.44921.35938.89454 1.25-.71485.44531-.53906-.98047-.08985"/><path fill="#d3d3d3" fill-opacity="0" fill-rule="evenodd" d="M201.50781 416.59766h-.89453l.44922.6289.98047.35938.80469-.08985.4453-.98828-.17577.08985-.71485-.35547-.89453.35547m154.6211 59.0703l-.0586-.52343v-.29297l.11328-.29297.0586-.23046.46875-.46875h.11328l.11719-.11329.11718-.05859h.17579l.23437-.0586h.34766l.23437.0586.11719.0586.23047.17187.0586.17578.11718.58203v.29297l-.11719.17578-.17187.28906-.17579.17579-.52734.52343-.23047.23438-.11719.0586h-.17578l-.11718-.0586-.40625-.29297-.17579-.11719-.11718-.0586-.0586-.11327-.05468-.1172m6.64062-10.95702l-.0586-.17188v-1.10937l.0586-.17188.17578-.0586.17188-.05858h.17578l.23437-.0586.1172.0586.05858.69921-.05859.17188-.11719.17578-.11718.0586-.23438.52343-.11328.0586h-.23438l-.05859-.1172m9.61328-14.39062l-.11719-.17578v-.69922l.29297-.875.1172-.17187.17577-.35156.11328-.23047.1172-.29297.35155-.75781.1172-.23047.17187-.23438h.17578l.11719-.0586h.64062l.11719.0586.23437.23438.17188.11328.35156.29297.11719.11718.11328.17579v.11328l.11719.05859.11718.11719v.69922l-.05859.17578v.23047l-.0586.17578-.34765 1.05078-.11719.23047-.11719.23437-.11718.0586-.23047.23437-.64063.28906h-.875l-.41015-.11718-.64063-.46485"/><path fill="none" stroke="#bebebe" stroke-linecap="round" stroke-linejoin="round" stroke-miterlimit="10" stroke-width=".5" d="M467.95703 311.69531H144.02734v168.625h323.9297v-168.625"/><g clip-path="url(#a)"><path fill="#fff" fill-opacity="0" fill-rule="evenodd" d="M144 475.89063v4.4375h.0039H144V311.67188h.0039H144v164.21875"/></g><g clip-path="url(#b)"><path fill="#fff" fill-opacity="0" fill-rule="evenodd" d="M144.0039 480.32813V311.67188h22.1875V425.125l-3.0703 1.94531-1.3672 4.21875-.08202.21875.08203.15235 4.4375 2.10937 2.72265-2.26172.84766-4.4375-3.57031-1.94531V311.67187h22.1914v121.7422l-2.82812 2.53124-1.60938.85547-2.70703 3.58203 2.70703 3.75.53125.6875-.53125.63281-4.4375 1.8125-4.4414-.69921-4.4375-1.47266-4.4375 2.17188-3.05078 1.99609 3.05078.8711 4.4375 1.23827 4.4375.6211 4.4414-.69922 4.4375.25 4.4375-.83594 4.4375.85156 4.34375-2.29687.09766-.13281 3.36328-4.3086-3.36328-2.86719-4.4414-.66796-4.4375-.30079-.77735-.60156.77734-1.4961 2.08203-2.9414-2.08203-2.53125V311.67187h26.63281v93.3711l-4.4414 1.9961-2.30078 2.27734 2.30078 3.36328 4.4414.86719 4.17579-4.23047-4.17578-4.27344v-93.3711h150.90234v149.23829l-1.67188 1.66406 1.67188 1.61328 4.14453-1.61328-4.14453-1.66406V311.67187h35.50781v143.77344l-4.4414 1.41406-1.19141 1.27735 1.1914 1.14062 1.58985 3.29688 2.85156 2.84375 4.4375 1.0039 3.09375.59375 1.34375 1.5586 1.66406 2.8789 2.77344 2.61329 4.4414-1.20313 1.35938-1.41015-.48828-4.4375-.8711-.875-4.4414-1.85938-.53125-1.70703-3.90625-3.85156-4.13281-.58594-.30469-.32422-4.4375-2.36719V311.67187h66.57031v168.65625H144.00391"/></g><path fill="#50fcfc" fill-rule="evenodd" d="M161.7539 431.66016l-.08202-.15235.08203-.21875 1.36718-4.21875 3.07032-1.94531 3.5703 1.94531-.84765 4.4375-2.72265 2.26172-4.4375-2.10937m4.4375 18.47265l-3.05078-.8711 3.05078-1.99608 4.4375-2.17188 4.4375 1.47266 4.4414.69921 4.4375-1.8125.53125-.6328-.53125-.6875-2.70703-3.75 2.70703-3.58204 1.60938-.85547 2.82812-2.53125 2.08203 2.53125-2.08203 2.9414-.77734 1.4961.77734.60156 4.4375.30079 4.4414.66796 3.36329 2.8672-3.36328 4.30859-.09766.1328-4.34375 2.29688-4.4375-.85156-4.4375.83594-4.4375-.25-4.4414.69922-4.4375-.6211-4.4375-1.23828m44.3828-37.45312l-2.30077-3.36328 2.30078-2.27735 4.4414-1.9961v2.9961l-2 1.27735 2 1.26171 1.2461-1.26171-1.2461-1.27735v-2.9961l4.17579 4.27345-4.17578 4.23046-4.44141-.86718"/><path fill="#00e8fc" fill-rule="evenodd" d="M215.01563 410.57813l-2-1.26172 2-1.27735 1.24609 1.27735-1.2461 1.26171"/><path fill="#50fcfc" fill-rule="evenodd" d="M365.91797 464.1875l-1.67188-1.61328 1.67188-1.66406 4.14453 1.66406-4.14453 1.61328m31.0664-4.91016l-1.1914-1.14062 1.1914-1.27735 4.44141-1.41406v3.46485l-.44922 3.66406.44922.44922 4.4375 2.4961 4.4375.65624 2.94531-3.60156-2.9453-2.90235-4.4375-.53125-4.4375-.23046v-3.46485l4.4375 2.36719.30468.32422 4.13281.58594 3.90625 3.85156.53125 1.70703 4.4414 1.85938.8711.875.48828 4.4375-1.35937 1.41015-4.4414 1.20313-2.77345-2.61329-1.66406-2.8789-1.34375-1.5586-3.09375-.59375-4.4375-1.0039-2.85156-2.84375-1.58985-3.29688"/><path fill="#00e8fc" fill-rule="evenodd" d="M401.42578 463.02344l-.44922-.44922.44922-3.66406 4.4375.23046v1.75l-2.3086 1.6836 2.3086 1.44531 4.4375.19922 1.34375-1.64453-1.34375-1.32422-4.4375-.35938v-1.75l4.4375.53125 2.94531 2.90235-2.9453 3.60156-4.4375-.65625-4.4375-2.4961"/><path fill="#00d4fc" fill-rule="evenodd" d="M405.86328 464.01953l-2.3086-1.44531 2.3086-1.6836 4.4375.35938 1.34375 1.32422-1.34375 1.64453-4.4375-.19922"/><g clip-path="url(#c)"><path fill="#fff" fill-opacity="0" fill-rule="evenodd" d="M467.9961 480.32813H468V311.67188h-.0039H468v168.65625h-.0039"/></g><g clip-path="url(#d)"><path fill="none" stroke="#000" stroke-linecap="round" stroke-linejoin="round" stroke-miterlimit="10" stroke-width=".5" d="M147.2461 481.66797l-6.4922-2.67969"/></g><g clip-path="url(#e)"><path fill="none" stroke="#000" stroke-linecap="round" stroke-linejoin="round" stroke-miterlimit="10" stroke-width=".5" d="M160.05078 482.53516l-5.47266-4.41016"/></g><g clip-path="url(#f)"><path fill="none" stroke="#000" stroke-linecap="round" stroke-linejoin="round" stroke-miterlimit="10" stroke-width=".5" d="M173.23047 482.6914l-5.19922-4.72656"/></g><g clip-path="url(#g)"><path fill="none" stroke="#000" stroke-linecap="round" stroke-linejoin="round" stroke-miterlimit="10" stroke-width=".5" d="M186.30469 482.9336l-4.71875-5.21094"/></g><g clip-path="url(#h)"><path fill="none" stroke="#000" stroke-linecap="round" stroke-linejoin="round" stroke-miterlimit="10" stroke-width=".5" d="M200.01563 482.50781l-5.51172-4.35937"/></g><g clip-path="url(#i)"><path fill="none" stroke="#000" stroke-linecap="round" stroke-linejoin="round" stroke-miterlimit="10" stroke-width=".5" d="M213.03516 482.83594l-4.91797-5.01563"/></g><g clip-path="url(#j)"><path fill="none" stroke="#000" stroke-linecap="round" stroke-linejoin="round" stroke-miterlimit="10" stroke-width=".5" d="M226.02344 483.1211l-4.26563-5.58204"/></g><g clip-path="url(#k)"><path fill="none" stroke="#000" stroke-linecap="round" stroke-linejoin="round" stroke-miterlimit="10" stroke-width=".5" d="M237.82031 483.78906l-1.23047-6.91797"/></g><g clip-path="url(#l)"><path fill="none" stroke="#000" stroke-linecap="round" stroke-linejoin="round" stroke-miterlimit="10" stroke-width=".5" d="M251.09375 483.79688l-1.14844-6.9336"/></g><g clip-path="url(#m)"><path fill="none" stroke="#000" stroke-linecap="round" stroke-linejoin="round" stroke-miterlimit="10" stroke-width=".5" d="M262.11719 483.39453l3.4375-6.1289"/></g><g clip-path="url(#n)"><path fill="none" stroke="#000" stroke-linecap="round" stroke-linejoin="round" stroke-miterlimit="10" stroke-width=".5" d="M274.73438 482.8789l4.83203-5.10156"/></g><g clip-path="url(#o)"><path fill="none" stroke="#000" stroke-linecap="round" stroke-linejoin="round" stroke-miterlimit="10" stroke-width=".5" d="M287.30078 481.85938l6.32813-3.0586"/></g><g clip-path="url(#p)"><path fill="none" stroke="#000" stroke-linecap="round" stroke-linejoin="round" stroke-miterlimit="10" stroke-width=".5" d="M288.22266 481.41406l-.98828-.72656"/></g><g clip-path="url(#q)"><path fill="none" stroke="#000" stroke-linecap="round" stroke-linejoin="round" stroke-miterlimit="10" stroke-width=".5" d="M300.59375 481.80469l6.375-2.95313"/></g><g clip-path="url(#r)"><path fill="none" stroke="#000" stroke-linecap="round" stroke-linejoin="round" stroke-miterlimit="10" stroke-width=".5" d="M301.51953 481.375l-.97656-.73828"/></g><g clip-path="url(#s)"><path fill="none" stroke="#000" stroke-linecap="round" stroke-linejoin="round" stroke-miterlimit="10" stroke-width=".5" d="M313.92578 481.84375l6.33985-3.03125"/></g><g clip-path="url(#t)"><path fill="none" stroke="#000" stroke-linecap="round" stroke-linejoin="round" stroke-miterlimit="10" stroke-width=".5" d="M314.84766 481.40234l-.98438-.72656"/></g><g clip-path="url(#u)"><path fill="none" stroke="#000" stroke-linecap="round" stroke-linejoin="round" stroke-miterlimit="10" stroke-width=".5" d="M327.26953 481.89844l6.28516-3.14063"/></g><g clip-path="url(#v)"><path fill="none" stroke="#000" stroke-linecap="round" stroke-linejoin="round" stroke-miterlimit="10" stroke-width=".5" d="M328.1836 481.4414l-1-.71093"/></g><g clip-path="url(#w)"><path fill="none" stroke="#000" stroke-linecap="round" stroke-linejoin="round" stroke-miterlimit="10" stroke-width=".5" d="M340.22656 480.03125l7 .59766"/></g><g clip-path="url(#x)"><path fill="none" stroke="#000" stroke-linecap="round" stroke-linejoin="round" stroke-miterlimit="10" stroke-width=".5" d="M341.24219 480.11719l-.48047-1.1289"/></g><g clip-path="url(#y)"><path fill="none" stroke="#000" stroke-linecap="round" stroke-linejoin="round" stroke-miterlimit="10" stroke-width=".5" d="M353.75781 481.57813l6.5664-2.5"/></g><g clip-path="url(#z)"><path fill="none" stroke="#000" stroke-linecap="round" stroke-linejoin="round" stroke-miterlimit="10" stroke-width=".5" d="M354.71094 481.21484l-.92188-.80859"/></g><g clip-path="url(#A)"><path fill="none" stroke="#000" stroke-linecap="round" stroke-linejoin="round" stroke-miterlimit="10" stroke-width=".5" d="M367.74219 482.67578l5.22656-4.69531"/></g><g clip-path="url(#B)"><path fill="none" stroke="#000" stroke-linecap="round" stroke-linejoin="round" stroke-miterlimit="10" stroke-width=".5" d="M380.30078 481.32813l6.73828-1.9961"/></g><g clip-path="url(#C)"><path fill="none" stroke="#000" stroke-linecap="round" stroke-linejoin="round" stroke-miterlimit="10" stroke-width=".5" d="M381.28125 481.03516l-.85938-.875"/></g><g clip-path="url(#D)"><path fill="none" stroke="#000" stroke-linecap="round" stroke-linejoin="round" stroke-miterlimit="10" stroke-width=".5" d="M393.54688 481.04297l6.8789-1.42578"/></g><g clip-path="url(#E)"><path fill="none" stroke="#000" stroke-linecap="round" stroke-linejoin="round" stroke-miterlimit="10" stroke-width=".5" d="M394.54688 480.83594l-.78516-.94531"/></g><g clip-path="url(#F)"><path fill="none" stroke="#000" stroke-linecap="round" stroke-linejoin="round" stroke-miterlimit="10" stroke-width=".5" d="M407.29688 482.14844l6.0078-3.64063"/></g><g clip-path="url(#G)"><path fill="none" stroke="#000" stroke-linecap="round" stroke-linejoin="round" stroke-miterlimit="10" stroke-width=".5" d="M408.17188 481.6211l-1.0547-.62891"/></g><g clip-path="url(#H)"><path fill="none" stroke="#000" stroke-linecap="round" stroke-linejoin="round" stroke-miterlimit="10" stroke-width=".5" d="M420.10547 480.23047l7.02344.19922"/></g><g clip-path="url(#I)"><path fill="none" stroke="#000" stroke-linecap="round" stroke-linejoin="round" stroke-miterlimit="10" stroke-width=".5" d="M421.125 480.25781l-.54297-1.09765"/></g><g clip-path="url(#J)"><path fill="none" stroke="#000" stroke-linecap="round" stroke-linejoin="round" stroke-miterlimit="10" stroke-width=".5" d="M433.42969 480.05469l7.0039.54687"/></g><g clip-path="url(#K)"><path fill="none" stroke="#000" stroke-linecap="round" stroke-linejoin="round" stroke-miterlimit="10" stroke-width=".5" d="M434.44922 480.13281l-.49219-1.1211"/></g><g clip-path="url(#L)"><path fill="none" stroke="#000" stroke-linecap="round" stroke-linejoin="round" stroke-miterlimit="10" stroke-width=".5" d="M446.73438 480.3789l7.02343-.09765"/></g><g clip-path="url(#M)"><path fill="none" stroke="#000" stroke-linecap="round" stroke-linejoin="round" stroke-miterlimit="10" stroke-width=".5" d="M447.7539 480.36328l-.58984-1.07422"/></g><g clip-path="url(#N)"><path fill="none" stroke="#000" stroke-linecap="round" stroke-linejoin="round" stroke-miterlimit="10" stroke-width=".5" d="M460.30469 479.01563l6.51562 2.625"/></g><path fill="none" stroke="#000" stroke-linecap="round" stroke-linejoin="round" stroke-miterlimit="10" stroke-width=".5" d="M461.25 479.39844l-.1289-1.22266"/><g clip-path="url(#O)"><path fill="none" stroke="#000" stroke-linecap="round" stroke-linejoin="round" stroke-miterlimit="10" stroke-width=".5" d="M147.1836 468.4961l-6.3672-2.96485"/></g><path fill="none" stroke="#000" stroke-linecap="round" stroke-linejoin="round" stroke-miterlimit="10" stroke-width=".5" d="M147.1836 468.4961l.1328 2.44921m13.17188-2.42578l-6.34766-3.01172m6.34766 3.01172l.11328 2.44922m12.67578-1.64453l-5.29297-4.6211m5.29297 4.6211l-.55859 2.39062m13.46094-1.98828l-4.46875-5.42578m4.46875 5.42578l-.9414 2.26563m14.0703-2.1211l-4.09375-5.71484m4.09375 5.71484l-1.08984 2.19532m14.25781-2.09766l-3.80078-5.91016m3.2461 5.05078l-.59766 1.07032m14.53906-.25782l-3.94531-5.8164m3.3711 4.96875l-.57423 1.08594m13.96094.04687l-2.9414-6.38672m2.51171 5.45703l-.74218.97657m12.89062.26953l.2539-7.01953m-.21874 6l-1.10156.53515m12.68359-.02344l3.64844-6.0039m10.14453 6.2461l2.6914-6.48829m-2.30078 5.54688l-1.21875.11328m13.11719.17578l4.74219-5.1836m-4.05078 4.4297l-1.1875-.3047m14.23828 1.39454l3.89062-5.85547m-3.32422 5.0039l-1.22265-.12109m13.23437.3164l5.36328-4.54296m-4.58203 3.88281l-1.14062-.45312m12.97265-.21094l6.76563-1.89453m-5.78125 1.61718l-.84766-.88671m13.13281-.54297l6.85938 1.51953m-5.86328-1.30078l-.32813-1.1797m12.67188.84376l6.8086 1.7539m-5.81641-1.5l-.28907-1.1914m12.54688 2.35937l6.9414-1.08984m-5.93359.9336l-.73828-.98438m13.0039.66406l7.02344-.13672m-6.0039.11719l-.59766-1.07031m13.58203 3.11328l5.64453-4.1836m-4.82422 3.57422l-1.10546-.52734m13.32812.70703l6.1914-3.32422m-5.29296 2.83985l-1.01953-.6797m15.78515 2.9336l1.4922-6.86328m-1.27735 5.86719l-1.17969.33203m11.94531-1.07422l6.16016-3.38672m7.67969 4.10547l5.10937-4.82422m-4.36719 4.1211l-1.16015-.39063m13.01562-.03515l6.54297-2.56641m-5.58984 2.1914l-.92969-.79687"/><g clip-path="url(#P)"><path fill="none" stroke="#000" stroke-linecap="round" stroke-linejoin="round" stroke-miterlimit="10" stroke-width=".5" d="M146.3711 456.28906l-4.7422-5.17969"/></g><path fill="none" stroke="#000" stroke-linecap="round" stroke-linejoin="round" stroke-miterlimit="10" stroke-width=".5" d="M145.6836 455.53516l-.41016 1.15625m14.1836-.20703l-4.28126-5.57032m3.65625 4.76172l-.50781 1.11328m14.7461-.5625l-4.88282-5.05468m4.88281 5.05468l-.75781 2.33203m13.89063-2.16796l-4.51563-5.38282m3.85938 4.60157l-.46094 1.13671m13.47656.21485l-2.60547-6.52735m2.22656 5.57813l-.79297.9375m14.25782.09375l-2.14453-6.6914m1.83203 5.71874l-.85547.8789m14.51562.08595l-2.21093-6.67188m1.89062 5.69922l-.84766.88672m14.32422.13281l-1.89453-6.76562m1.6211 5.78125l-.89063.84765m13.3711.26172l.3203-7.01953m15.15626.6211l-4 5.78124m18.76953-2.25l-6.91016-1.28515m20.2539.17968l-6.96484.9297m5.94922-.79688l.71485 1m13.41797-1.91797l-6.57032 2.4961m17.6211-1.2461l-.01953-.19922-.0586-.1914-.09375-.1797-.45703-.375-.1914-.05859-.19922-.01953-.20313.01953-.1914.0586-.45704.375-.09375.17968-.05859.19141-.01953.19922.01953.19922.0586.1914.09374.17578.45703.37891.19141.0586.20313.01953.19921-.01954.19141-.05859.45703-.3789.09375-.17579.0586-.1914.01953-.19922m9.03125-1.30469l6.52343 2.60938m7.85157-4.04297l4.40234 5.47656m-3.76172-4.67969l.48438-1.1289m12.24218.28906l4.30079 5.5586m-3.67579-4.75l.50391-1.1172m10.9336 2.21094l6.80468 1.7539m-5.8125-1.49609l-.28906-1.1953m12.625 2.73827l6.78125-1.84375m-5.79688 1.57422l-.83984-.89062m13.64453 2.19922l5.83203-3.92188m-5.83203 3.92188l-2.16406-1.15625m15.76562 1.52734l5.25782-4.66406m-5.25782 4.66406l-2.29687-.85938m16.58984 1.62891l3.30078-6.20312m-3.30078 6.20312h-2.45312m2.9336-.90234h-1.22657m13.89062.80468l3.64454-6.0078m-3.1172 5.1328l-1.22265-.0703m14.41406 1.15624l2.83985-6.42969m-2.42969 5.4922l-1.22266.08984m13.25.29296l4.59375-5.3203m-3.92578 4.54687l-1.1953-.27344"/><g clip-path="url(#Q)"><path fill="none" stroke="#000" stroke-linecap="round" stroke-linejoin="round" stroke-miterlimit="10" stroke-width=".5" d="M145.35547 443.625l-2.71094-6.48438"/></g><g clip-path="url(#R)"><path fill="none" stroke="#000" stroke-linecap="round" stroke-linejoin="round" stroke-miterlimit="10" stroke-width=".5" d="M144.96094 442.6836l-.77735.94921"/></g><path fill="none" stroke="#000" stroke-linecap="round" stroke-linejoin="round" stroke-miterlimit="10" stroke-width=".5" d="M158.16797 443.79297l-1.70313-6.8164m1.45313 5.82421l-.91016.82031m14.01563.25391l-.78906-6.98438m.67578 5.96875l-1.01172.69532m14.63672.29297l-1.1797-6.9297m1.00782 5.92188l-.97266.75m13.85938.3086l.02344-7.02735m-.01953 6.00391l-1.08594.57031m13.23437.25l2.34766-6.625m-2.00781 5.66016l-1.21485.1836m15.04297.96874l.64063-7m-.54688 5.98047l-1.13281.47656m12.60547-.11718l4.13672-5.6797m-3.53516 4.85548l-1.21484-.17188m15.44922 1.6289l1.09765-6.9414m-.9375 5.92969l-1.16015.39844m15.88672-2.85938l-.01954-.19922-.05859-.1914-.09375-.17578-.46094-.37891-.1914-.0586-.19922-.01953-.19922.01954-.1914.05859-.46094.3789-.09375.17579-.0586.1914-.01953.19922.01953.19922.0586.1914.09375.1797.46093.375.1914.05859.19923.01953.19922-.01953.1914-.0586.46094-.375.09375-.17968.0586-.1914.01952-.19923m13.32422-3.35547l-2.0664 6.71485m13.41406-6.7461l1.8711 6.77344m14.21093-6.38672l-3.66406 6m16.95703-6.00781l-3.6211 6.01953m3.09376-5.14453l1.22656.0664m11.875-1.28124l-2.13672 6.6953m1.82422-5.71874l1.20703-.22266m12.33984-.77734l-1.97656 6.74219m1.6875-5.76172l1.20313-.2461m11.28906-.875l.2461 7.02344m-.21095-6l1.0625-.61328m9.29688 4.85938l6.08594-3.51563m6.76562 1.98047l7.01172-.44531m-5.99219.3828l-.64062-1.04687m12.9961.19922l6.89062 1.3789m-6.89063-1.3789l-.70312-2.35156m14.3125 4.58984l6.30468-3.10156m-6.30468 3.10156L405.16016 440.5m2.90625.98438l-.9961-.71875m13.7539 1.75l5.58595-4.26172m-5.58594 4.26172l-2.23047-1.02344m3.04297.40234l-1.11719-.51172m13.53125 1.01563l5.76172-4.02735m-5.76172 4.02735l-2.1836-1.11719M449 443.66797l2.49219-6.57031M449 443.66796l-2.4336.3086m15.19922-.57422l3.58985-6.03906m-3.58985 6.03906l-2.44921-.11718"/><g clip-path="url(#S)"><path fill="none" stroke="#000" stroke-linecap="round" stroke-linejoin="round" stroke-miterlimit="10" stroke-width=".5" d="M145.23438 430.35938l-2.46875-6.58204"/></g><g clip-path="url(#T)"><path fill="none" stroke="#000" stroke-linecap="round" stroke-linejoin="round" stroke-miterlimit="10" stroke-width=".5" d="M144.875 429.40234l-.8125.91797"/></g><path fill="none" stroke="#000" stroke-linecap="round" stroke-linejoin="round" stroke-miterlimit="10" stroke-width=".5" d="M158.16406 430.47656l-1.69922-6.8164m1.45313 5.82422l-.91406.8203m13.68359.27735l-.11719-7.02734m.10156 6.0039l-1.07421.59375m14.30078.4297l.09375-7.02735m-.08203 6.0039l-1.08985.5625m13.91406.42188l1.05079-6.94922m-.89844 5.9375l-1.15625.40625m13.39453.33203l2.90234-6.40234m-2.48047 5.46875l-1.22656.07812m12.51563-.61328l6.10937-3.46484m-5.22265 2.96094l-1.03516-.65625m13.65234 1.45703l5.73438-4.0586m-4.90234 3.46875l-1.09375-.55078m15.01171 2.32031l2.85938-6.41796m-2.4414 5.48437l-1.22657.08594m14.92969 1.09765l1.25-6.91796m-1.0664 5.91015l-1.16798.375m13.59375-6.07812l2.66407 6.5039m14.21875-5.96093l-4.47657 5.41796m18.78125-4.10156l-6.45312 2.78516m17.97265-4.60156l-2.86328 6.41796m2.44532-5.48437l1.22656-.08594m9.70312-.8711l2.7461 6.46876m-2.34766-5.53125l.77344-.95313m10.84375.96485l5.33984 4.5664m-4.5625-3.90234l.26953-1.19922m11.58985 1.7539l6.69922 2.12891m6.75-2.48437l6.42968 2.83984m-5.49218-2.42578l-.08985-1.22266m12.5586 3.83594l6.25-3.21484m-6.25 3.21484l-2.01563-1.39844m17.47266-3.58203l1.96484 6.7461m-1.96484-6.7461l1.7578-1.71093m11.14845 8.3125l2.78125-6.45313m9.27343 5.53125l5.30079-4.61328m-5.30079 4.61328l-2.28906-.8789m3.0625.20703l-1.14844-.4375m12.96485-.22266l6.7539-1.94922m-6.7539 1.94922l-1.70703-1.76172m2.6914 1.48047l-.85547-.88281m13.84766 2.41797l5.42969-4.45704m-5.42969 4.45704l-2.26562-.94141m3.05468.29297l-1.13281-.46875m13.77344 1.25l5.20312-4.72266m-5.20312 4.72266l-2.3086-.82813m3.06641.14063l-1.15625-.41406"/><g clip-path="url(#U)"><path fill="none" stroke="#000" stroke-linecap="round" stroke-linejoin="round" stroke-miterlimit="10" stroke-width=".5" d="M145.72656 416.8125l-3.45312-6.1211"/></g><path fill="none" stroke="#000" stroke-linecap="round" stroke-linejoin="round" stroke-miterlimit="10" stroke-width=".5" d="M145.22266 415.92188l-.66016 1.03515m14.3789-.08984l-3.25-6.23047m2.77735 5.32422l-.69531 1.01172m13.85547.14843l-2-6.73437m1.71093 5.7539l-.875.86329m14.08203.21093l-1.20312-6.92187m1.02734 5.91406l-.96875.7539m13.8672.3047l-.01954-7.02735m.01563 6.00781l-1.08204.57813m11.53125-1.03125l5.72266-4.07813m-4.89063 3.48438l-1.09765-.54688m13.38672.83594l6.10937-3.46875m-5.22265 2.96485l-1.03516-.66016m13.70313 1.53125l5.6289-4.20313m-5.6289 4.20313l-2.21875-1.04688m16.78125 2.08985l3.13671-6.28907m-2.67968 5.375l-1.22657.03125m14.47266 1.04688l2.35938-6.61719M263 416.10156l-1.21484.17578m11.85547-2.6328l7.02343.21874m9.92969-3.6211l-.2539 7.02344m.21484-6l1.10547-.53906m11.40234-.41406l1.4336 6.8789m-1.22266-5.875l.9414-.78515m15.125.51953l-4.48828 5.40625m3.83594-4.6211l1.20312.25m7.41797.01954l6.20703 3.29687m-5.30468-2.8164v-1.22657m13.10547-.16015l4.8203 5.10937m-4.12109-4.36718l.39454-1.16016m11.29296 1.875l6.67579 2.19531m6.79687-2.59375l6.35938 2.98828m6.77343-2.5078l6.72657 2.02733m-6.72657-2.02734l-.48047-2.40625m16.76954-.07031l.77734 6.98437m-.77734-6.98437l2.02734-1.38281m-1.91406 2.39843l1.01562-.6914m14.03125-.03125l-2.91406 6.39453m2.91406-6.39453l2.44922-.14844m-2.8711 1.08203l1.22266-.07812m11.81641-1.08594l-1.51563 6.85937m1.51563-6.85937l2.36328-.66016m-2.58594 1.65625l1.1836-.32812m11.21875-.73047l.7539 6.98437m-.7539-6.98437l2.02734-1.3789m9.39063 2.1914l4.55078 5.35547m-3.89063-4.57422l.45313-1.14063m11.33203 1.46875l6.28515 3.14063m-6.28515-3.14063l-.0586-2.45312"/><g clip-path="url(#V)"><path fill="none" stroke="#000" stroke-linecap="round" stroke-linejoin="round" stroke-miterlimit="10" stroke-width=".5" d="M147.51172 400.35547l-7.02344.16406"/></g><path fill="none" stroke="#000" stroke-linecap="round" stroke-linejoin="round" stroke-miterlimit="10" stroke-width=".5" d="M146.49219 400.3789l.59765 1.07032m12.41797 1.73437l-4.38281-5.49218m11.99219 2.73437l7.02734.02344m7.84766 2.91015l3.90625-5.83984m-3.33985 4.98828l-1.21875-.1211m13.47657.57423l4.89062-5.04688m-4.17969 4.3125l-1.17968-.33984m12.7539-.92578l6.94922-1.04688m-6.94922 1.04688l-1.46094-1.97266m15.29688 3.35156l5.90625-3.80468m-5.90625 3.80468l-2.14063-1.1953m14.89844-.82032l7.02344.22656m-6.0039-.1914l-.53907-1.10157m16.3164 4.69531l.0586-7.02734m-.0586 7.02735l-2.17968 1.1328m13.55469-1.73827l3.9375-5.82032m14.84375 2.58985l-6.9961.64062m5.98047-.54687l.67188 1.02734m13.39843-2.16406l-6.47656 2.72656m5.53516-2.32812l.94922.77343m13.57422-.03515l-7.01172.45312m5.99218-.38672l.64454 1.04297m13.3828-2.33594l-6.39452 2.91016m5.46484-2.48828l.97266.7461m11.35547-2.98438l-2.5625 6.54297m2.5625-6.54297l2.4375-.28125m11.89843.89844l-4.60547 5.30859m4.60547-5.3086l2.39063.55079m12.1289 1.89062l-7.01171.42578m5.99218-.36328l.64063 1.04688m12.97265 1.24219l-5.5703-4.28125m5.5703 4.28125L372.73437 405m12.94532-7.4414l-4.01953 5.76171m4.01953-5.76172l2.4375.29297m9.83984-.78906l-1.9414 6.7539m1.9414-6.7539l2.39844-.51172m10.00781.375l-.125 7.02735m.10938-6.00391l1.08984-.5586m12.6289-.4375l-.89843 6.96875m.76953-5.95312l1.14453-.4336m11.76953-.60937l.16016 7.02344m-.16016-7.02344l2.13672-1.20312m9.59375 1.62109l3.32813 6.1914m-3.32813-6.1914l1.36328-2.03906m11.33985 2.45703l4.55078 5.35547m-4.55078-5.35547l.90625-2.28125"/><g clip-path="url(#W)"><path fill="none" stroke="#000" stroke-linecap="round" stroke-linejoin="round" stroke-miterlimit="10" stroke-width=".5" d="M144.97266 383.7461l-1.94532 6.7539"/></g><path fill="none" stroke="#000" stroke-linecap="round" stroke-linejoin="round" stroke-miterlimit="10" stroke-width=".5" d="M144.6914 384.73047l1.19923-.2539m12.76953-.60157l-2.6875 6.4961m2.29687-5.55079l1.21875-.11719m11.40234-1.08203l-.51953 7.00782m.44141-5.98829l1.125-.49609m8.77344 1.60938l6.46875 2.73828m-5.52735-2.33985l-.10937-1.22265m12.25 2.7539l6.9375-1.12109m-6.9375 1.1211l-1.48438-1.95704m14.86328 2.27735l6.8047-1.75782m-6.8047 1.75782l-1.65625-1.8125m14.89063 1.39062l6.96875-.91797m-5.95313.78516l-.71484-1m17.32422 4.08984l-1.65234-6.83203m1.41406 5.83594l-.91797.8164m17.04688-4.11328l-6.8047 1.75782m6.8047-1.75782l1.65625 1.8086m11.16406 1.04297l-5.8125-3.94922m5.8125 3.94922l-.26563 2.4375m14.0664-3.5l-6.78515-1.82422m6.78516 1.82422l.55078 2.39453m-1.53906-2.66016l.27734 1.19531m14.14453-1.96093l-7.02343.23828m7.02343-.23828l1.22657 2.125m-2.2461-2.08985l1.22266 2.125m13.11328-2.1836l-7.02344.28517m7.02344-.28516l1.23828 2.11719m-2.26172-2.07813l1.23828 2.1211m13.09375-2.22657l-7.01172.41797m7.01172-.41797l1.28125 2.09375m-2.30078-2.03515l.64063 1.04687m13.24609-2.625l-6.11719 3.45703m6.11719-3.45703l2.07031 1.3164m-2.96093-.8125l1.03515.65626m12.19922-2.25781l-4.17578 5.65234m4.17578-5.65235l2.42969.35938m11.25-.05078l-4.90235 5.03515m4.90235-5.03515l2.35547.6875m-3.06641.04687l1.17578.34375m13.2539-.60937L367.5 389.17187m5.71094-4.09765l2.19922 1.08984m-3.03125-.49219l1.10156.54297m11.73047-2.25l-3.07813 6.31641m3.07813-6.3164l2.45312-.08594m-2.90234 1.0039l1.22656-.04297m11.83203-1.1289l-1.66797 6.82422m1.66797-6.82422l2.3789-.60547m11.65235.86328l-3.10156 6.3086m3.10156-6.3086l2.45313-.07813m9.95703-.22265l-1.28906 6.91015m1.28906-6.91015l2.33984-.73438m9.07422.91016l2.51172 6.5586m-2.51172-6.5586l1.60938-1.85156m13.23828 1.6289l-.55078 7.00391m.55078-7.0039l2.25-.98048m12.33984 1.32813l-3.10156 6.3086m2.64844-5.39063l1.22656-.03906"/><g clip-path="url(#X)"><path fill="none" stroke="#000" stroke-linecap="round" stroke-linejoin="round" stroke-miterlimit="10" stroke-width=".5" d="M140.82813 372.30078l6.34375 3.01563"/></g><path fill="none" stroke="#000" stroke-linecap="round" stroke-linejoin="round" stroke-miterlimit="10" stroke-width=".5" d="M154.6289 371.54297L160 376.07422m-4.58984-3.8711l.2578-1.19921m14.19142-.625l1.54296 6.85546m10.4297-6.23046l4.22655 5.60937m-3.61328-4.79297l.51953-1.11328m11.57813.875l5.4336 4.45313m-5.4336-4.45313l.48437-2.40625m13.5 7.48438l4.09766-5.70704m-4.09766 5.70704l-2.43359-.32813m18.82031-2.52344l-.01953-.19921-.0586-.19141-.09374-.17578-.46094-.3789-.1914-.0586-.19923-.01953-.19921.01953-.19141.0586-.46094.3789-.09375.17578-.0586.1914-.01952.19922.01953.19922.0586.1914.09374.17579.46094.3789.1914.0586.19923.01953.19921-.01953.19141-.0586.46094-.3789.09375-.17578.0586-.1914.01952-.19923m15.73828.67579l-6.89453-1.35157m5.89063 1.15625l.35937 1.17188m13.96094-.98438l-6.89844-1.33594m6.89844 1.33594l.71875 2.34766m12.58203-2.26563l-6.86719-1.5m6.8672 1.5l.66015 2.36329m12.28125-1.38672l-6.1211-3.45313m6.1211 3.45313l-.0625 2.45312m-.82813-2.95703l-.03125 1.22656m14.60547-1.67969l-6.85547-1.53906m6.85547 1.53906l.64844 2.3672m-1.64844-2.58985l.32813 1.1836m14.04297-2.1797l-6.96875.89844m6.96875-.89844l1.41796 2m11.7422-2.67578l-6.66016 2.25m6.66015-2.25l1.78516 1.6836m11.64062-1.26172l-6.88281 1.40625m6.88281-1.40625l1.5625 1.89062m11.15235-3.2578l-5.6797 4.13671m5.6797-4.13672l2.20703 1.07422m10.96094-1.26172l-5.38672 4.51563m5.38672-4.51563l2.27343.91797m11.38672-.42969l-6.07422 3.53516m6.07422-3.53516l2.08203 1.29297m10.79688-1.88281l-5.20703 4.71875m5.20703-4.71875l2.3086.83203m11.14062-.67578l-5.47266 4.40625m5.47266-4.40625l2.2578.96094m-3.05468-.32032l1.1289.48047m12.53516-1.58594l-4.57421 5.33594m4.57421-5.33594l2.39454.53516m-3.0625.24219l1.19921.26562m12.53907-1.23437l-4.08985 5.71484m4.08985-5.71484l2.43359.32422m10.57422-.51953l-3.47266 6.10937m3.47266-6.10937l2.45312.0703m11.66016.55079l-5.07031 4.86719m5.07031-4.86719l2.33203.76563m11.65625.23437l-6.41797 2.86328"/><g clip-path="url(#Y)"><path fill="none" stroke="#000" stroke-linecap="round" stroke-linejoin="round" stroke-miterlimit="10" stroke-width=".5" d="M466.76953 372.375l1.9336 1.51172"/></g><g clip-path="url(#Z)"><path fill="none" stroke="#000" stroke-linecap="round" stroke-linejoin="round" stroke-miterlimit="10" stroke-width=".5" d="M140.5625 361.21875l6.875-1.45313"/></g><path fill="none" stroke="#000" stroke-linecap="round" stroke-linejoin="round" stroke-miterlimit="10" stroke-width=".5" d="M154.47266 362.5586l5.68359-4.12891m-5.6836 4.1289l-2.20702-1.07421m14.92578-.26954l6.8789-1.4414m-5.8789 1.23047l-.78516-.94141m15.20703-2.82031l2.66406 6.5039m-2.66406-6.5039l1.57031-1.88672m15.41016 2.50781l-4.66406 5.25781m3.98437-4.49218l1.1914.28906m13.58985 3.1914l-6.23828-3.23437m5.32813 2.76563l.01562 1.22656m9.30078-5.39844l3.57813 6.04688m-3.0586-5.16797l.64063-1.04688m16.89062 5.10547l-5.89453-3.82422m5.89453 3.82422l-.21093 2.4414m-.64453-3l-.10547 1.22266m14.46093-.98437l-6.26172-3.1875m6.26172 3.1875l.04297 2.45312m13.65235-3.95312l-7.02344-.1836m6 .15625l.55078 1.09766m13.51953.1875l-6.48828-2.70313m6.48828 2.70313l.22656 2.44531m12.57813-1.58984l-5.46875-4.41406m5.46875 4.41406l-.46484 2.41015m14.33984-3.38671l-6.58594-2.45704m6.58594 2.45704l.32031 2.43359m12.34766-1.35156l-5.29297-4.6211m5.29297 4.6211l-.55469 2.38672m14.70703-5.16016l-6.96484.92188m6.96484-.92188l1.42578 1.9961m11.49219-3.21485l-6.17187 3.36328m6.17187-3.36328l2.04688 1.35156m-2.94532-.86328l1.02344.67578m13.42188-.63281l-6.63672 2.29688m6.63672-2.29688l1.80078 1.67188m11.66797.02343l-6.94141-1.08984m5.92969.92969l.40234 1.16015m13.76953-2.70703l-6.63281 2.32031m6.63281-2.3203L388.78906 361m11.16797-2.3789l-5.9414 3.74609m5.9414-3.7461l2.13281 1.21875m9.58594-2.57812l-2.75 6.46484m2.75-6.46484l2.44531-.21485m11.71485.72266l-4.4375 5.44922m4.4375-5.44922l2.40625.47656m-3.05078.31641l1.20312.23828m13.1289-.67969l-5.18359 4.7422m5.1836-4.7422l2.3125.82032m-3.0664-.12891l1.15624.41016m13.6211.0625l-6.60157 2.41406m6.60157-2.41406l1.82421 1.64062m-2.78515-1.28906l.91406.82031m13.46875-.82812l-6.8125 1.72656"/><g clip-path="url(#aa)"><path fill="none" stroke="#000" stroke-linecap="round" stroke-linejoin="round" stroke-miterlimit="10" stroke-width=".5" d="M466.96875 359.6289l1.64844 1.81641"/></g><path fill="none" stroke="#000" stroke-linecap="round" stroke-linejoin="round" stroke-miterlimit="10" stroke-width=".5" d="M465.97656 359.8789l.82422.91016"/><g clip-path="url(#ab)"><path fill="none" stroke="#000" stroke-linecap="round" stroke-linejoin="round" stroke-miterlimit="10" stroke-width=".5" d="M141.58594 349.73047l4.82812-5.10547"/></g><path fill="none" stroke="#000" stroke-linecap="round" stroke-linejoin="round" stroke-miterlimit="10" stroke-width=".5" d="M155.0625 349.875l4.50781-5.39063m-4.50781 5.39063l-2.40234-.50781m3.05859-.27735l-1.20313-.2539m12.6172-1.33203l6.99609-.65235m-5.98047.5586l-.67188-1.02735m17.22656-2.63672l-1.51562 6.86329m1.29688-5.86329l1.17968-.32812m14.86719 4.04687l-6.53906-2.57421m18.22265 4.39453l-3.28125-6.21485m2.8047 5.3125l-.6875 1.01172m16.34374-2.9336l-7.00781-.5664m5.98828.48438l.48438 1.125m13.51171.20312l-6.32812-3.05469m6.32812 3.0547l.09375 2.44921m11.375-.72266l-2.64062-6.51171m2.25781 5.5664l-.78906.9375m16.21875-4.99219l-6.10156 3.48829m6.10156-3.48829l2.07422 1.3125m11.21093-1.35937l-6.04296 3.58203m6.04296-3.58203l2.09766 1.27734m10.0625 3.49219l-3.73047-5.95703m3.1875 5.08984l-.61328 1.0625m14.05078.02735l-2.89453-6.40235m2.89453 6.40235l-1.4961 1.9414m15.15626-2.1211l-3.58203-6.04296m3.58203 6.04297l-1.27735 2.09765m.75782-2.97656l-.64063 1.04688m16.13281-2.50781L326.96484 346.5m6.89453 1.35938l.71094 2.34765m12.65235-2.66797l-6.9922-.72265m6.9922.72265l.92187 2.27344m12.33984-1.9336l-6.88671-1.40234m6.88671 1.40235l.69532 2.35546m12.6875-3.19921l-7.02344.28515m7.02344-.28515l1.23828 2.11718m-2.26172-2.07421l1.24219 2.11718m12.92578-3.10156l-6.6836 2.17188m6.6836-2.17188l1.76562 1.70313m10.85938-2.92579l-5.30078 4.6172m5.30078-4.6172l2.28906.875m11.61719.08204l-6.48438 2.70312m6.48438-2.70313l1.89844 1.5547m11.5625-1.14454l-6.77344 1.8789m5.78515-1.60546l.84766.89062m12.71484-2.53515l-5.29296 4.6211m5.29296-4.6211l2.29297.875m-3.0625-.20313l1.14453.4375m13.5-.23047l-6.41406 2.8672m6.41406-2.8672l1.9375 1.50782m-2.87109-1.09375l1.9375 1.51171m12.59375-.89062l-6.98047.79688"/><g clip-path="url(#ac)"><path fill="none" stroke="#000" stroke-linecap="round" stroke-linejoin="round" stroke-miterlimit="10" stroke-width=".5" d="M467.05078 346.78125l1.39063 2.01953"/></g><path fill="none" stroke="#000" stroke-linecap="round" stroke-linejoin="round" stroke-miterlimit="10" stroke-width=".5" d="M466.03516 346.89453l1.39062 2.02344m-2.40625-1.90625l.69531 1.01172"/><g clip-path="url(#ad)"><path fill="none" stroke="#000" stroke-linecap="round" stroke-linejoin="round" stroke-miterlimit="10" stroke-width=".5" d="M147.27734 335.13281l-6.55468-2.53906"/></g><path fill="none" stroke="#000" stroke-linecap="round" stroke-linejoin="round" stroke-miterlimit="10" stroke-width=".5" d="M146.32422 334.76172l.14453 1.21875m9.01172.8789l3.67187-5.99218m-3.67187 5.99219l-2.44922-.14844m2.98438-.72266l-1.22657-.07422m12.46875-1.07031l6.7461-1.96094m-6.7461 1.96094l-1.71094-1.75781m17.03125-2.46094l2.73438 6.47656m-2.33594-5.53515l.77344-.94922m14.63281-.08203l-2.2461 6.65625m2.2461-6.65625l2.42188-.39844m12.88672 5.34765l-6.23047-3.24218m6.23047 3.24219l.01953 2.45312m-.92578-2.92578l.01172 1.23047m12.03906 1.0039l-1.89063-6.76562m1.89063 6.76562l-1.77735 1.69532m17.08594-7.00391l-5.8789 3.85156m5.8789-3.85156l2.15234 1.1836m11.15235-1.19923l-5.85938 3.87891m5.85938-3.8789l2.15625 1.17187m-3.00781-.60547l1.07812.58594m10.61719-2.69531l-.91406 6.96875m.91406-6.96875l2.29687-.85938m11.58594.98438l-2.05078 6.71875m2.05078-6.71875l2.41016-.47266m11.6914.82031l-3.625 6.01953m3.625-6.01953l2.44922.13281m6.71875.25391l4.67188 5.25m-3.99219-4.48437l.42578-1.15235m15.0664 6.48438l-1.04296-6.94922m1.04297 6.94922l-1.97266 1.46094m1.82031-2.46875l-.98437.73046m16.50781-.80859l-5.15625-4.77344m5.15625 4.77344l-.625 2.3711m13.77735-2.20704l-4.83204-5.10156m4.83204 5.10156l-.77735 2.32422m14.5039-2.78906l-5.65234-4.17188m5.65235 4.17188l-.35938 2.42578m14.35157-4.75781l-7.00782.49219m7.00782-.4922l1.30468 2.07813m-2.32422-2.00781l.65235 1.03906m13.46484-2.10547l-6.57422 2.48438m6.57422-2.48438l1.84375 1.6211M386 332.98438l.92188.80859m12.71093-2.24219l-5.29297 4.6211m5.29297-4.6211l2.29297.875m11.09766 3.65625l-5.44531-4.4375m4.65625 3.79297l-.23829 1.20313m15.0547-3.52735l-6.8672 1.4961m5.8672-1.27735l.79296.9375m12.34766-3.09375l-4.51953 5.375m3.86328-4.59375l1.19922.2539m13.77734.35548l-6.53125 2.59375m6.53125-2.59375l1.8711 1.58593m11.3789-1.73828l-6.40234 2.89844"/><g clip-path="url(#ae)"><path fill="none" stroke="#000" stroke-linecap="round" stroke-linejoin="round" stroke-miterlimit="10" stroke-width=".5" d="M466.76172 332.41406l1.94531 1.5"/></g><path fill="none" stroke="#000" stroke-linecap="round" stroke-linejoin="round" stroke-miterlimit="10" stroke-width=".5" d="M465.83203 332.83594l.96875.75"/><g clip-path="url(#af)"><path fill="none" stroke="#000" stroke-linecap="round" stroke-linejoin="round" stroke-miterlimit="10" stroke-width=".5" d="M147.34375 319.47266l-6.6875 2.15234"/></g><path fill="none" stroke="#000" stroke-linecap="round" stroke-linejoin="round" stroke-miterlimit="10" stroke-width=".5" d="M147.34375 319.47266l1.76172 1.70703m5.83594 1.95703l4.75-5.17969m-4.0586 4.42578l-1.1875-.30469m12.91797-.24218l6.53516-2.57813m-6.53516 2.57813l-1.86719-1.58985m14.9375.15625l7.02344.29297m-6-.25l-.53125-1.10937m19.73438.32031l-6.79688 1.78125m5.8086-1.51953l.82812.89844m13.2461 1.24609l-6.33985-3.03125m6.33984 3.03125l.10157 2.45313m-1.02344-2.89454l.05078 1.22657m14.4375-1.51172l-6.84766-1.57813m6.84766 1.57813l.63672 2.3711m-1.63281-2.60157l.3203 1.1875m14.0625-1.35938l-6.98437-.77343m6.98438.77343l.90625 2.28125m-1.92578-2.39453l.45703 1.14063m13.74219-2.44531l-6.71485 2.0664m6.71485-2.0664l1.73828 1.73046m10.85156-3.02343l-5.26953 4.64843m5.26953-4.64843l2.29688.86328m8.43359-2.05078l-.09766 7.02734m.08203-6.0039l1.09375-.5625m11.3711-.36329l1.63672 6.83203m-1.63672-6.83203l1.83984-1.625m14.10547 2.03125l-3.6289 6.01953m3.6289-6.01953l2.45312.13281m8.59375 6.35938l.91016-6.96875m-.91016 6.96875l-2.29687.86328m16.23437-.83594l-.33203-7.01953m.33203 7.01953l-2.11328 1.25m2.0625-2.27343l-1.05468.6289m16.32421-.27734l-4.14062-5.67969m4.14062 5.67969l-1.07421 2.20703m.47265-3.03125l-.53906 1.10156m14.48828-.30078l-4.20703-5.6289m4.20703 5.6289l-1.04687 2.21875m15.73046-5.58594l-6.9414 1.10157m6.9414-1.10157l1.47657 1.96094m11.85937-1.79297l-6.98437.76563m6.98437-.76563l1.3789 2.03125m11.17579-3.85547l-5.46484 4.41797m4.66796-3.77734l1.12891.48047m11.72266-2.10156l-2.94532 6.3789m2.51563-5.45312l1.22656-.06641m10.80078 5.83594l.4922-7.01172m-.4922 7.01172l-2.24218.9961m16.92968-1.17579l-2.2539-6.65625m1.92578 5.6875l-.84375.89453m16.41015-5l-6.09765 3.49219m6.09765-3.49219l2.07422 1.3086m10.52735-2.1836l-4.67578 5.2461"/><g clip-path="url(#ag)"><path fill="none" stroke="#000" stroke-linecap="round" stroke-linejoin="round" stroke-miterlimit="10" stroke-width=".5" d="M465.89844 317.92578l2.38281.57813"/></g><path fill="none" stroke="#000" stroke-linecap="round" stroke-linejoin="round" stroke-miterlimit="10" stroke-width=".5" d="M465.21875 318.6875l1.1914.28906"/><path fill="#ff3030" fill-rule="evenodd" d="M331.23438 441.01953h7.6914V430.8711h-7.6914v10.14844"/><path fill="azure" fill-rule="evenodd" d="M333.0664 432.70703h.83594v5.73828h3.19141v.73828h-4.02734v-6.47656"/><path fill="#00f" fill-rule="evenodd" d="M414.86719 436.57813h8.6211v-10.14454h-8.6211v10.14454"/><path fill="azure" fill-rule="evenodd" d="M416.70313 428.26563h.83203v2.82421h3.28515v-2.82421h.83594v6.48046h-.83594v-2.91406h-3.28515v2.91406h-.83204v-6.48046"/><path fill="#00f" fill-rule="evenodd" d="M370.48438 401.07422h8.62109v-10.14844h-8.6211v10.14844"/><path fill="azure" fill-rule="evenodd" d="M372.3164 392.76172h.83594v2.82031h3.28516v-2.82031h.83203v6.47656h-.83203v-2.91406h-3.28516v2.91406h-.83593v-6.47656"/><path fill="#00f" fill-rule="evenodd" d="M197.39063 396.63281h8.61718v-10.14453h-8.61719v10.14453"/><path fill="azure" fill-rule="evenodd" d="M199.22266 388.32031h.83203v2.82422h3.28515v-2.82422h.83594v6.48047h-.83594v-2.91406h-3.28515v2.91406h-.83203v-6.48047"/><path fill="#ff3030" fill-rule="evenodd" d="M206.96094 356.6875h7.6914v-10.14453h-7.6914v10.14453"/><path fill="azure" fill-rule="evenodd" d="M208.79297 348.375h.83203v5.74219h3.19531v.73828h-4.02734V348.375"/><path fill="#ffffe0" fill-rule="evenodd" d="M412.75781 411.51172h22.17969V401.3164h-22.17969v10.1953"/><path fill-rule="evenodd" d="M416.25781 403.15234h.50781v6.29297h-.78515v-4.48828h-1.39063v-.55469l.5625-.0664.25-.05469.23047-.08984.20313-.14063.17187-.21094.14453-.29296.10547-.39454m4.8125 0l.23047.01954.21875.05468.20703.08985.19531.12109.1875.14844.16797.17578.3047.41797.24218.4961.17969.54687.11328.57812.03515.58985-.03515.59375-.11328.58593-.1797.55078-.24218.50391-.30469.42578-.16796.17969-.1875.15625-.19532.1211-.20703.09374-.21875.05469-.23047.01953-.23047-.01953-.21875-.05469-.20703-.09375-.19531-.1211-.1836-.15624-.17187-.17969-.30078-.42578-.2461-.5039-.17968-.55079-.10938-.58594-.03906-.59375h.83203l.03125.5625.08203.50782.125.4414.16016.375.1914.30079.21094.22265.22266.13672.22656.04688.22656-.04688.22266-.13672.21094-.22265.1914-.30079.16016-.375.1289-.4414.08204-.50781.02734-.5625-.02734-.5625-.08203-.5-.1289-.4336-.16017-.36719-.1914-.29296-.21094-.21094-.22265-.13281-.22657-.04688-.22656.04688-.22266.1328-.21093.21094-.19141.29297-.16016.3672-.125.43358-.08203.5-.03125.5625h-.83203l.03906-.58984.10938-.57812.17969-.54688.24609-.4961.30078-.41796.17188-.17578.18359-.14844.19531-.1211.20703-.08984.21875-.05469.23047-.01953m4.95313 0l.23047.01954.21875.05468.20703.08985.19531.12109.1836.14844.17187.17578.30469.41797.24218.4961.1797.54687.10937.57812.03906.58985-.03906.59375-.10938.58593-.17969.55078-.24218.50391-.3047.42578-.17187.17969-.18359.15625-.19531.1211-.20703.09374-.21875.05469-.23047.01953-.23047-.01953-.21875-.05469-.20703-.09375-.19531-.1211-.1836-.15624-.17187-.17969-.3047-.42578-.24218-.5039-.17969-.55079-.10937-.58594-.03906-.59375h.83203l.02734.5625.08203.50782.1289.4414.16017.375.1914.30079.21094.22265.22265.13672.22657.04688.22656-.04688.22266-.13672.21093-.22265.19141-.30079.16016-.375.1289-.4414.07813-.50781.03125-.5625-.03125-.5625-.07813-.5-.1289-.4336-.16016-.36719-.1914-.29296-.21094-.21094-.22266-.13281-.22656-.04688-.22656.04688-.22266.1328-.21094.21094-.1914.29297-.16016.3672-.1289.43358-.08204.5-.02734.5625h-.83203l.03906-.58984.10937-.57812.1797-.54688.24218-.4961.30469-.41796.17187-.17578.1836-.14844.1953-.1211.20704-.08984.21875-.05469.23047-.01953m4.95312 0l.38672.02735.35938.08203.3203.13672.28126.1875.23047.23828.17187.28515.10938.33204.03906.375-.02344.27343-.05469.23829-.08984.19921-.10937.16797-.12891.14453-.14063.125-.28906.19532.23438.11718.20703.14844.1836.17188.15234.1914.12109.21485.09375.23046.05469.2422.01953.2578-.03516.3086-.10156.32812-.17188.32422-.24218.30469-.30469.26953-.375.21485-.21094.08203-.23047.05859-.24218.03906-.26172.01172-.26172-.01172-.23828-.03906-.22656-.0586-.20313-.08202-.35938-.21485-.28906-.26953-.22265-.30469-.16016-.32422-.08984-.32812-.03125-.3086h.83203l.02734.25391.07813.23438.12109.21093.16016.1836.1953.15234.21876.11719.24219.07031.2539.02735.2539-.02735.2422-.07031.21875-.11719.1914-.15234.16406-.1836.1211-.21093.07812-.23438.02735-.2539-.02735-.25391-.07812-.23438-.1211-.21484-.16406-.1836-.1914-.15234-.21875-.11328-.2422-.07422-.2539-.02344-.2539.02344-.2422.07422-.21874.11328-.19531.15235-.16016.18359-.1211.21484-.07812.23438-.02734.2539h-.83203l.01953-.2539.05469-.23828.08984-.22656.125-.20704.15234-.1914.1836-.17188.20703-.15234.23047-.13281-.28516-.19532-.14063-.125-.1289-.14453-.10938-.16797-.08984-.19921-.0586-.23829-.01952-.27343h.78515l.02344.21484.0664.1914.10547.16798.13672.13671.16406.11329.1875.08203.20704.05078.22265.01562.21875-.01562.20703-.05078.19141-.08204.16406-.11328.13672-.13671.10156-.16797.06641-.19141.02344-.21484-.02344-.21485-.0664-.1914-.10157-.16407-.13672-.14062-.16406-.10938-.1914-.08203-.20704-.05078-.21875-.01953-.22265.01953-.20704.05078-.1875.08203-.16406.10938-.13672.14062-.10546.16407-.06641.1914-.02344.21485h-.78515l.03906-.375.10937-.33204.17188-.28515.23047-.23828.27734-.1875.32422-.13672.35937-.08203.38672-.02735"/><path fill="#ffffe0" fill-rule="evenodd" d="M213.03125 389.8164h22.17969V379.625h-22.17969v10.1914"/><path fill-rule="evenodd" d="M216.53125 381.45703h.50781v6.29688h-.78515v-4.4922h-1.39063v-.55468l.5625-.0625.25-.05469.23047-.08984.20313-.14063.17578-.21093.14062-.29688.10547-.39453m4.8125 0l.23047.01953.21875.05469.20703.08984.19922.1211.1836.14844.17187.17578.30078.42187.24219.49219.17968.54687.11328.57813.03516.59375-.03516.59375-.11328.58203-.17968.55469-.2422.5-.30077.42969-.17188.17968-.1836.15235-.19921.125-.20703.08984-.21875.0586-.23047.01952-.22656-.01953-.22266-.05859-.20703-.08984-.19531-.125-.1836-.15235-.17187-.17969-.30078-.42968-.2461-.5-.17968-.55469-.10938-.58203-.03906-.59375h.83203l.03125.5625.08203.5039.125.44532.16406.375.1875.30078.21094.21875.22266.13672.22656.04687.22656-.04687.22266-.13672.21094-.21875.1914-.30078.16406-.375.125-.44531.08204-.50391.02734-.5625-.02734-.5625-.08203-.5-.125-.4375-.16407-.36328-.1914-.29297-.21094-.21485-.22266-.1328-.22656-.04298-.22656.04297-.22266.13281-.21094.21485-.1875.29297-.16406.36328-.125.4375-.08203.5-.03125.5625h-.83203l.03906-.59375.10938-.57813.17968-.54687.2461-.49219.30078-.42187.17187-.17579.1836-.14843.19531-.1211.20703-.08984.22266-.05469.22656-.01953m4.95313 0l.23046.01953.21875.05469.20703.08984.19532.1211.1875.14844.16797.17578.30468.42187.2422.49219.17968.54687.11328.57813.03516.59375-.03516.59375-.11328.58203-.17969.55469-.24219.5-.30468.42969-.16797.17968-.1875.15235-.19531.125-.20704.08984-.21875.0586-.23047.01952-.23046-.01953-.21875-.05859-.20703-.08984-.19532-.125-.1836-.15235-.17187-.17969-.30078-.42968-.2461-.5-.17968-.55469-.10937-.58203-.03907-.59375h.83203l.03125.5625.08204.5039.125.44532.16015.375.1914.30078.21095.21875.22265.13672.22656.04687.22657-.04687.22265-.13672.21094-.21875.1914-.30078.16016-.375.12891-.44531.08203-.50391.02734-.5625-.02734-.5625-.08203-.5-.1289-.4375-.16016-.36328-.1914-.29297-.21095-.21485-.22265-.1328-.22656-.04298-.22657.04297-.22265.13281-.21094.21485-.1914.29297-.16016.36328-.125.4375-.08203.5-.03125.5625h-.83204l.03907-.59375.10937-.57813.17969-.54687.2461-.49219.30077-.42187.17188-.17579.1836-.14843.1953-.1211.20704-.08984.21875-.05469.23047-.01953m4.95312 0l.38672.02735.35937.08593.32032.13281.28125.1875.23047.23829.17187.28515.10938.33203.03906.37891-.02344.27344-.05469.23437-.08984.19922-.10938.17188-.1289.14453-.14063.1211-.28906.1953.23438.1211.20703.14453.18359.17187.15234.19532.125.21093.08985.23047.05469.2461.01953.2539-.03516.3125-.10156.32422-.17188.32422-.24219.3086-.30468.26952-.375.21485-.21094.07812-.22656.0625-.2461.03907-.26172.01171-.2578-.01171-.2422-.03907-.22265-.0625-.20703-.07812-.35938-.21485-.28906-.26953-.22266-.30859-.15625-.32422-.09375-.32422-.03125-.3125h.83203l.02735.2539.07812.23438.1211.21485.16015.1836.19532.15233.21875.11329.24218.07421.25391.02344.2539-.02344.2422-.07421.21874-.11329.19141-.15234.16406-.1836.1211-.21484.07812-.23437.02734-.2539-.02734-.25-.07812-.23829-.1211-.21094-.16406-.18359-.1914-.15234-.21876-.1172-.24218-.0703-.25391-.02735-.2539.02735-.2422.0703-.21874.1172-.19532.15234-.16015.1836-.1211.21093-.07812.23828-.02734.25h-.83204l.01953-.2539.0547-.23829.08984-.22265.125-.21094.15234-.1914.1836-.17188.20702-.15234.23047-.13282-.28515-.1953-.14063-.1211-.1289-.14453-.10938-.17188-.08984-.19922-.0586-.23437-.01953-.27344h.78906l.01954.21484.0664.19141.10547.16406.13672.14063.16406.11328.1914.07812.20704.05079.21875.01953.21875-.01954.20703-.05078.1914-.07812.16407-.11328.13672-.14063.10547-.16406.0625-.1914.02344-.21485-.02344-.21484-.0625-.19141-.10547-.16797-.13672-.13672-.16406-.11328-.1914-.08203-.20704-.05078-.21875-.01563-.21875.01563-.20703.05078-.1914.08203-.16407.11328-.13672.13672-.10547.16797-.0664.1914-.01953.21485h-.78907l.03906-.3789.10938-.33204.17188-.28515.23046-.23829.27735-.1875.32422-.1328.35937-.08594.38672-.02735"/><path fill="#ffffe0" fill-rule="evenodd" d="M318.82422 343.60547h22.17969v-10.1914h-22.1797v10.1914"/><path fill-rule="evenodd" d="M322.32422 335.2461h.50781v6.29687h-.78515v-4.49219h-1.39063v-.55469l.5625-.0664.25-.05078.23047-.08985.20312-.14453.17579-.20703.14062-.29688.10547-.39453m4.8125 0l.23047.01954.21875.05468.20703.08985.19531.12109.1875.14844.16797.17578.30469.42187.24219.4922.17968.54687.11328.57812.03516.59375-.03516.58985-.11328.58593-.17969.55469-.24218.5-.30469.42969-.16797.17969-.1875.15234-.19531.125-.20703.08984-.21875.0586-.23047.01953-.23047-.01953-.21875-.0586-.20703-.08984-.19531-.125-.1836-.15235-.17187-.17968-.30078-.42969-.2461-.5-.17969-.55469-.10937-.58594-.03906-.58984h.83203l.03125.5625.08203.5039.125.44532.16016.3711.1914.30077.21094.22266.22266.13672.22656.04688.22656-.04688.22266-.13672.21094-.22265.1914-.30079.16016-.37109.1289-.44531.08204-.5039.02734-.5625-.02735-.5625-.08203-.5-.1289-.4375-.16016-.36329-.1914-.29297-.21094-.21484-.22266-.13281-.22656-.04297-.22656.04296-.22266.13282-.21094.21484-.1914.29297-.16016.36328-.125.4375-.08203.5-.03125.5625h-.83203l.03906-.59375.10938-.57812.17968-.54688.2461-.49219.30078-.42187.17187-.17578.1836-.14844.1953-.1211.20704-.08984.21875-.05469.23047-.01953m4.95312 0l.23047.01954.21875.05468.20703.08985.19532.12109.18359.14844.17188.17578.30468.42187.24219.4922.17969.54687.10937.57812.03906.59375-.03906.58985-.10937.58593-.17969.55469-.24219.5-.30469.42969-.17187.17969-.1836.15234-.1953.125-.20704.08984-.21875.0586-.23047.01953-.23046-.01953-.21875-.0586-.20704-.08984-.1953-.125-.1836-.15235-.17188-.17968-.30469-.42969-.24218-.5-.17969-.55469-.10938-.58594-.03906-.58984h.83203l.03125.5625.07813.5039.1289.44532.16016.3711.1914.30077.21094.22266.22266.13672.22656.04688.22657-.04688.22265-.13672.21094-.22265.1914-.30079.16016-.37109.1289-.44531.08204-.5039.02734-.5625-.02734-.5625-.08203-.5-.1289-.4375-.16016-.36329-.19141-.29297-.21094-.21484-.22265-.13281-.22657-.04297-.22656.04296-.22265.13282-.21094.21484-.1914.29297-.16017.36328-.1289.4375-.07813.5-.03125.5625h-.83203l.03906-.59375.10938-.57812.17969-.54688.24219-.49219.30468-.42187.17188-.17578.1836-.14844.1953-.1211.20704-.08984.21875-.05469.23046-.01953m4.95313 0l.38672.02735.35937.08203.32031.13672.28125.1875.23047.23828.17188.28515.10937.33204.03907.3789-.02344.27344-.05469.23438-.08984.19921-.10938.17188-.1289.14453-.14063.1211-.28906.1953.23437.1211.20704.14453.18359.17188.15234.1953.1211.21095.09375.23046.05468.2461.01954.2539-.03516.3086-.10156.32812-.17188.32422-.24219.3086-.30468.26562-.375.21485-.21094.08203-.23047.0625-.24219.03515-.26172.01563-.2578-.01563-.2422-.03515-.22656-.0625-.20312-.08204-.35938-.21484-.28906-.26562-.22266-.3086-.16015-.32422-.08985-.32812-.03125-.3086h.83203l.02735.25391.07812.23438.1211.21484.16015.1836.19531.15234.21875.11328.2422.07422.2539.02344.2539-.02344.2422-.07422.21874-.11328.1914-.15235.16407-.18359.1211-.21484.07812-.23438.02734-.2539-.02734-.25391-.07813-.23438-.12109-.21093-.16406-.1836-.1914-.15234-.21876-.11719-.24219-.07031-.2539-.02735-.2539.02735-.2422.07031-.21875.11719-.1953.15234-.16016.1836-.1211.21093-.07812.23438-.02735.2539h-.83203l.01953-.2539.0547-.23828.08983-.22656.125-.20704.15235-.1914.1836-.17188.20702-.15234.23047-.13281-.28515-.19532-.14063-.12109-.1289-.14453-.10938-.17188-.08984-.19921-.0586-.23438-.01953-.27344h.78906l.01954.21485.0664.1914.10547.16406.13672.14063.16406.10938.1875.08203.20703.05078.22266.01953.21875-.01953.20703-.05078.1914-.08204.16407-.10937.13672-.14063.10156-.16406.0664-.1914.02344-.21485-.02343-.21484-.06641-.1914-.10156-.16798-.13672-.14062-.16406-.10938-.19141-.08203-.20703-.05078-.21875-.01562-.22266.01562-.20703.05078-.1875.08203-.16406.10938-.13672.14062-.10547.16797-.0664.1914-.01954.21485h-.78906l.03906-.3789.10938-.33204.17187-.28515.23047-.23828.27735-.1875.32421-.13672.35938-.08203.38672-.02735"/><path fill="#ffffe0" fill-rule="evenodd" d="M204.15625 330.60938h22.17969v-10.19141h-22.17969v10.1914"/><path fill-rule="evenodd" d="M207.65234 322.25h.51172v6.29688h-.78906v-4.48829h-1.38672V323.5l.5586-.0625.2539-.05469.23047-.08984.20313-.14063.17187-.21093.14063-.29297.10546-.39844m4.81641 0l.23047.01953.21875.0586.20703.08593.19531.1211.1836.15234.17187.17578.30078.41797.2461.49219.17968.54687.10938.58203.03906.58985-.03906.59375-.10938.58203-.17968.55469-.2461.5039-.30078.42578-.17187.1797-.1836.15233-.19531.125-.20703.09375-.21875.0547-.23047.01952-.23047-.01953-.21875-.05469-.20703-.09375-.19531-.125-.1875-.15234-.16797-.17969-.30469-.42578-.24219-.5039-.17968-.5547-.11328-.58202-.03516-.59375h.83203l.02734.5625.08203.5039.125.44532.16407.375.1914.30078.21094.21875.22266.13672.22656.04687.22656-.04687.22266-.13672.21094-.21875.1914-.30078.16016-.375.125-.44532.08203-.5039.03125-.5625-.03125-.5625-.08203-.5-.125-.4336-.16016-.36718-.1914-.29297-.21094-.21485-.22266-.1289-.22656-.04688-.22656.04688-.22266.1289-.21094.21485-.1914.29297-.16406.36718-.125.4336-.08204.5-.02734.5625h-.83203l.03516-.58985.11328-.58203.17968-.54687.2422-.49219.30468-.41797.16797-.17578.1875-.15234.19531-.1211.20703-.08594.21875-.05859.23047-.01953m4.95313 0l.22656.01953.21875.0586.21094.08593.1953.1211.1836.15234.17188.17578.30078.41797.2461.49219.17968.54687.10937.58203.03907.58985-.03907.59375-.10937.58203-.17969.55469-.2461.5039-.30077.42578-.17188.1797-.1836.15233-.1953.125-.21094.09375-.21875.0547-.22656.01952-.23047-.01953-.21875-.05469-.20703-.09375-.19922-.125-.1836-.15234-.17187-.17969-.30078-.42578-.2422-.5039-.17968-.5547-.11328-.58202-.03906-.59375h.83594l.02734.5625.08203.5039.125.44532.16406.375.1914.30078.21095.21875.22265.13672.22656.04687.22657-.04687.22265-.13672.21094-.21875.1875-.30078.16406-.375.125-.44532.08203-.5039.03125-.5625-.03125-.5625-.08203-.5-.125-.4336-.16406-.36718-.1875-.29297-.21094-.21485-.22265-.1289-.22656-.04688-.22657.04688-.22265.1289-.21094.21485-.1914.29297-.16407.36718-.125.4336-.08203.5-.02734.5625h-.83594l.03906-.58985.11328-.58203.17969-.54687.24219-.49219.30078-.41797.17187-.17578.1836-.15234.19922-.1211.20703-.08594.21875-.05859.23047-.01953m4.95312 0l.38672.03125.35547.08203.32422.13672.28125.1836.22656.23827.17578.28516.10938.33203.03515.3789-.01953.27345-.0586.23437-.08593.20313-.11328.16796-.1289.14454-.14063.12109-.28516.19922.23047.11719.21094.14843.17968.16797.15625.19531.1211.21485.08984.23047.0586.24219.01953.2539-.03516.3125-.10547.32422-.17187.32422-.23828.3086-.3086.26952-.3711.21485-.21484.07812-.22656.0625-.2461.03906-.2578.01172-.26172-.01171-.2422-.03907-.22265-.0625-.20703-.07812-.35547-.21485-.29297-.26953-.22265-.3086-.15625-.32421-.09375-.32422-.03125-.3125h.83594l.02734.2539.07812.23438.1211.21485.16015.18359.19141.15234.22266.11329.23828.07421.25781.02344.2539-.02344.23829-.07421.22265-.11329.19141-.15234.16016-.1836.12109-.21484.07813-.23437.02734-.2539-.02734-.25-.07813-.23829-.1211-.21094-.16015-.1836-.1914-.15233-.22266-.11329-.23828-.07421-.25391-.02344-.25781.02344-.23828.07421-.22266.11329-.1914.15234-.16016.1836-.1211.21093-.07812.23828-.02734.25h-.83594l.01953-.25.0586-.24219.08984-.22265.125-.21094.15234-.1875.17969-.17188.21094-.15625.23046-.1289-.28515-.19922-.14063-.1211-.1289-.14452-.11328-.16797-.08594-.20313-.0586-.23437-.01953-.27344h.78516l.02344.21484.0664.1914.10547.16407.13672.14063.16406.11328.1875.08203.20703.04687.22266.01954.21875-.01954.20703-.04687.1875-.08203.16406-.11328.14063-.14063.10156-.16406.0664-.1914.02345-.21485-.02344-.21485-.0664-.1914-.10157-.16406-.14063-.14063-.16406-.11328-.1875-.08203-.20703-.04688-.21875-.01953-.22266.01953-.20703.04688-.1875.08203-.16406.11328-.13672.14063-.10547.16406-.0664.1914-.02344.21485h-.78516l.03516-.3789.10937-.33204.17578-.28515.22657-.23829.28125-.18359.32422-.13672.35547-.08203.39062-.03125"/><path fill="#ffffe0" fill-rule="evenodd" d="M337.30469 458.33203h22.17969v-10.1914h-22.1797v10.1914"/><path fill-rule="evenodd" d="M340.80469 449.97266h.50781v6.29687h-.78516v-4.49219h-1.39062v-.55468l.5625-.06641.25-.05078.23047-.08985.20312-.14453.17578-.20703.14063-.29687.10547-.39453m4.8125 0l.23047.01953.21875.05469.20703.08984.19922.1211.18359.14843.17188.17578.30078.42188.24218.49218.1797.54688.11327.57812.03906.58985-.03906.59375-.11328.58594-.17969.55468-.24218.5-.30079.42969-.17187.17969-.1836.15234-.19921.125-.20703.08985-.21875.05859-.23047.01953-.22656-.01953-.21875-.0586-.21094-.08984-.19531-.125-.1836-.15234-.17187-.17969-.30079-.42969-.24218-.5-.1836-.55469-.10937-.58593-.03906-.59375h.83203l.03125.5664.08203.50391.125.4414.16406.375.1875.30079.21094.22265.22265.13672.22657.04688.22656-.04688.22266-.13672.21093-.22265.19141-.30078.16406-.375.125-.44141.08203-.5039.02735-.56641-.02735-.5586-.08203-.5-.125-.4375-.16406-.36328-.1914-.29297-.21094-.21484-.22266-.13281-.22656-.04297-.22656.04297-.22266.13281-.21094.21484-.1875.29297-.16406.36328-.125.4375-.08203.5-.03125.5586h-.83203l.03906-.58985.10937-.57812.1836-.54688.24219-.49218.30078-.42188.17187-.17578.1836-.14844.1953-.1211.21094-.08983.21875-.0547.22657-.01952m4.95312 0l.23047.01953.21875.05469.20703.08984.19922.1211.1836.14843.17187.17578.30078.42188.24219.49218.17969.54688.11328.57812.03515.58985-.03515.59375-.11328.58594-.1797.55468-.24218.5-.30078.42969-.17188.17969-.18359.15234-.19922.125-.20703.08985-.21875.05859-.23047.01953-.22656-.01953-.22266-.0586-.20703-.08984-.19531-.125-.1836-.15234-.17187-.17969-.30078-.42969-.2461-.5-.17968-.55469-.10938-.58593-.03906-.59375h.83203l.03125.5664.08203.50391.125.4414.16407.375.1875.30079.21093.22265.22266.13672.22656.04688.22656-.04688.22266-.13672.21094-.22265.1914-.30078.16407-.375.125-.44141.08203-.5039.02734-.56641-.02734-.5586-.08203-.5-.125-.4375-.16406-.36328-.19141-.29297-.21094-.21484-.22265-.13281-.22657-.04297-.22656.04297-.22266.13281-.21093.21484-.1875.29297-.16407.36328-.125.4375-.08203.5-.03125.5586h-.83203l.03906-.58985.10938-.57812.17969-.54688.24609-.49218.30078-.42188.17188-.17578.18359-.14844.19531-.1211.20703-.08983.22266-.0547.22656-.01952m4.95313 0l.38672.02734.35937.08203.32422.13672.27734.1875.23047.23828.17188.28516.10937.33203.03906.3789-.01953.27344-.05859.23438-.08984.19922-.10938.17187-.1289.14453-.14063.1211-.28516.1953.23047.1211.20703.14453.1836.17188.15234.19531.125.21094.08985.23047.05468.2461.01953.2539-.03515.3086-.10156.32812-.17188.32421-.24219.3047-.30469.26952-.375.21485-.21093.08203-.22656.0625-.2461.03515-.26172.01563-.25781-.01563-.24219-.03515-.22265-.0625-.20704-.08203-.35937-.21485-.28906-.26953-.22266-.30469-.15625-.32421-.09375-.32813-.03125-.3086h.83203l.02735.25391.07812.23438.1211.21094.16406.1875.1914.15234.21875.11328.2422.07422.2539.02344.2539-.02344.2422-.07422.21874-.11328.19531-.15234.16016-.1875.1211-.21094.07812-.23438.02734-.2539-.02734-.2539-.07813-.23438-.12109-.21094-.16016-.1836-.1953-.15234-.21876-.11719-.24219-.0703-.2539-.02735-.2539.02734-.2422.07031-.21875.1172-.1914.15233-.16406.1836-.1211.21094-.07812.23437-.02735.2539h-.83203l.01953-.2539.05469-.23828.09375-.22656.1211-.20703.15234-.19141.1836-.17188.20702-.15234.23438-.13281-.28906-.19531-.14063-.1211-.1289-.14453-.10938-.17187-.08985-.19922-.05468-.23438-.02344-.27344h.78906l.02344.21485.0664.1875.10157.16797.13672.14062.16406.10938.1914.08203.20704.05078.21875.01563.22265-.01563.20704-.05078.1875-.08203.16406-.10938.13672-.14062.10546-.16797.06641-.1875.01953-.21485-.01953-.21484-.0664-.1914-.10547-.16797-.13672-.14063-.16406-.10937-.1875-.08204-.20704-.05078-.22265-.01562-.21875.01562-.20703.05079-.19141.08203-.16406.10937-.13672.14063-.10156.16796-.06641.19141-.02344.21485h-.78906l.03906-.37891.10938-.33203.17187-.28516.23047-.23828.28125-.1875.32031-.13672.35938-.08203.38672-.02734"/></g></defs><use xlink:href="#ah"/></svg>