<svg xmlns="http://www.w3.org/2000/svg" role="img" xmlns:xlink="http://www.w3.org/1999/xlink" viewBox="142.45 309.95 326.84 171.84"><defs><clipPath id="a"><path d="M144 311.67188h1v168.65625h-1zm0 0"/></clipPath><clipPath id="b"><path d="M144 311.67188h324v168.65625H144zm0 0"/></clipPath><clipPath id="c"><path d="M467 311.67188h1v168.65625h-1zm0 0"/></clipPath><clipPath id="d"><path d="M144 478h4v2.32813h-4zm0 0"/></clipPath><clipPath id="e"><path d="M154 478h7v2.32813h-7zm0 0"/></clipPath><clipPath id="f"><path d="M167 477h7v3.32813h-7zm0 0"/></clipPath><clipPath id="g"><path d="M181 477h6v3.32813h-6zm0 0"/></clipPath><clipPath id="h"><path d="M193 478h8v2.32813h-8zm0 0"/></clipPath><clipPath id="i"><path d="M207 478h8v2.32813h-8zm0 0"/></clipPath><clipPath id="j"><path d="M220 477h7v3.32813h-7zm0 0"/></clipPath><clipPath id="k"><path d="M235 476h4v4.32813h-4zm0 0"/></clipPath><clipPath id="l"><path d="M249 476h3v4.32813h-3zm0 0"/></clipPath><clipPath id="m"><path d="M260 477h7v3.32813h-7zm0 0"/></clipPath><clipPath id="n"><path d="M273 478h8v2.32813h-8zm0 0"/></clipPath><clipPath id="o"><path d="M273 480h3v.32813h-3zm0 0"/></clipPath><clipPath id="p"><path d="M287 478h7v2.32813h-7zm0 0"/></clipPath><clipPath id="q"><path d="M287 480h2v.32813h-2zm0 0"/></clipPath><clipPath id="r"><path d="M300 479h8v1.32813h-8zm0 0"/></clipPath><clipPath id="s"><path d="M300 479h2v1.32813h-2zm0 0"/></clipPath><clipPath id="t"><path d="M313 478h8v2.32813h-8zm0 0"/></clipPath><clipPath id="u"><path d="M313 480h2v.32813h-2zm0 0"/></clipPath><clipPath id="v"><path d="M326 478h8v2.32813h-8zm0 0"/></clipPath><clipPath id="w"><path d="M326 480h3v.32813h-3zm0 0"/></clipPath><clipPath id="x"><path d="M339 479h9v1.32813h-9zm0 0"/></clipPath><clipPath id="y"><path d="M340 478h2v2.32813h-2zm0 0"/></clipPath><clipPath id="z"><path d="M353 479h8v1.32813h-8zm0 0"/></clipPath><clipPath id="A"><path d="M353 479h2v1.32813h-2zm0 0"/></clipPath><clipPath id="B"><path d="M367 477h7v3.32813h-7zm0 0"/></clipPath><clipPath id="C"><path d="M380 478h8v2.32813h-8zm0 0"/></clipPath><clipPath id="D"><path d="M380 480h2v.32813h-2zm0 0"/></clipPath><clipPath id="E"><path d="M393 479h8v1.32813h-8zm0 0"/></clipPath><clipPath id="F"><path d="M393 479h2v1.32813h-2zm0 0"/></clipPath><clipPath id="G"><path d="M406 478h8v2.32813h-8zm0 0"/></clipPath><clipPath id="H"><path d="M406 480h3v.32813h-3zm0 0"/></clipPath><clipPath id="I"><path d="M420 478h8v2.32813h-8zm0 0"/></clipPath><clipPath id="J"><path d="M420 480h2v.32813h-2zm0 0"/></clipPath><clipPath id="K"><path d="M433 479h8v1.32813h-8zm0 0"/></clipPath><clipPath id="L"><path d="M433 479h2v1.32813h-2zm0 0"/></clipPath><clipPath id="M"><path d="M446 478h8v2.32813h-8zm0 0"/></clipPath><clipPath id="N"><path d="M446 480h3v.32813h-3zm0 0"/></clipPath><clipPath id="O"><path d="M459 480h9v.32813h-9zm0 0"/></clipPath><clipPath id="P"><path d="M460 479h2v1.32813h-2zm0 0"/></clipPath><clipPath id="Q"><path d="M144 465h4v4h-4zm0 0"/></clipPath><clipPath id="R"><path d="M144 451h3v6h-3zm0 0"/></clipPath><clipPath id="S"><path d="M144 436h1v9h-1zm0 0"/></clipPath><clipPath id="T"><path d="M144 442h1v2h-1zm0 0"/></clipPath><clipPath id="U"><path d="M144 423h2v8h-2zm0 0"/></clipPath><clipPath id="V"><path d="M144 429h2v2h-2zm0 0"/></clipPath><clipPath id="W"><path d="M144 410h3v7h-3zm0 0"/></clipPath><clipPath id="X"><path d="M144 400h4v1h-4zm0 0"/></clipPath><clipPath id="Y"><path d="M144 383h1v8h-1zm0 0"/></clipPath><clipPath id="Z"><path d="M144 383h2v2h-2zm0 0"/></clipPath><clipPath id="aa"><path d="M144 373h4v2h-4zm0 0"/></clipPath><clipPath id="ab"><path d="M144 358h4v5h-4zm0 0"/></clipPath><clipPath id="ac"><path d="M144 344h3v7h-3zm0 0"/></clipPath><clipPath id="ad"><path d="M466 346h2v4h-2zm0 0"/></clipPath><clipPath id="ae"><path d="M144 330h1v8h-1zm0 0"/></clipPath><clipPath id="af"><path d="M144 337h1v2h-1zm0 0"/></clipPath><clipPath id="ag"><path d="M466 332h2v3h-2zm0 0"/></clipPath><clipPath id="ah"><path d="M144 318h4v5h-4zm0 0"/></clipPath><clipPath id="ai"><path d="M466 318h2v2h-2zm0 0"/></clipPath><g id="aj" clip-path="url(#clip1)"><path fill="#fff" fill-opacity="0" fill-rule="evenodd" d="M0 0h1000v1000H0zm0 0"/><path fill="#d3d3d3" fill-opacity="0" fill-rule="evenodd" d="M162.15234 355.86719l-.23437.29297.0586.23437.11718.17188.17578.23437.29297.34766.11328.0586.11719-.17188.0586-.23438.17577-.17578.46485-.17578h.69922l.23437.29297.28906.8164.0586.17579.17578.23046.35156.23438.69922.69922.17188.17578.23437.34765.23438.41016.28906.58203.41015.46485.23047.23437.23438.17578.11719.23047.17578.29297.17187 1.16406v.23438l.0586.28906.05859.11719.11719.11719.34765.41015.11719.17188.17578.17578.17578.23437.11719.17188.17188.35156.05859.23438.23437.40625.23438-.0586-.17578.17578-.0586.92969h-.58203l-.23437-.11328-.34766.11328-.11719.11719-.05859.29297-.0586.17578-.11718.17187-.46484.29297-.0586.23438-.0586.11328v.64453l.0586.17187v.41016l.0586.0586v.40624l.05859.40625.11719.17579.05859.05859.23047.64062-.0586.29297v.69922l-.05859.58203v.23438l-.0586.23047-.05468.35156v1.92187l.05469.1172h.42578l-.36719.11718-.02344.35156.89063 1.16797 1.74219.53906 1.33984.35938v.53906l.08984.8086.53516.71484 1.51953.26953.89063-.08594.08984 1.16406.53516.1797 1.16015-.1797 2.05469-.98437 1.16016-.36328 1.8789-.17578 1.69531-.1797-.17968.71876-1.51563.08594-1.25.08984-.80469.26953-1.07421.8086.26953.71875.53515.89843-.17968.625-.26563.8086.26563 1.07812.625.89844.80468.17969 1.25-.1797-.26562.72267.09766.5039.05468.29297v.17188l.0586.29296v.40625l.17578.1172.35156.11718h.40625l.29297-.17578.11328-.11719.0586-.11719.11718-.23047.0586-.17578.35156-.46484.23047-.17578.17578-.0586.17578.0586.0586.17578.11718.98828.05469.46875.0586.17188.11718.23437.17578.0586.8164.05859h.28907l.11719.23437.05859.40625.0586.35156v1.10547l.11718.29297.11719.34766.28906.69922.17578.35156.58203.7539.35157.17579.17187.0586.46875.23437.64063.46484.34765.23438.29297.17578.29297.05468.23047.0625.8164.34766.29297.17578.11328.17188.35157.35156.11719.17578.52343.64063v.28906l.0586.35156v.34766l.05859.35156.0586.28906.11718.0586.17188.05859h.17578l.58203.23437.17578.1172.17578.28905.17578.23438.11328.23437.29297.23047.11719.11719v.41016l.0586.05468.28906.23438.23437.11719.0586.11718.11718.17188.0586.11719.23047.23437.05859.17578.23437.0586.1172.05859-.1172.11328-.05859.11719v.11719l-.11719.29296-.11719.28907v.58203l.17579.11719.11718.05859.0586.11719.11719.11719.11328.05859.17578.34765.0586.35157.05858.40625v.17578l-.05859.17578-.11719.69922v.17187l.1172.17579.29296.29296h.40625l.17578.1172.11719.17187.11719.29296v.23438h-.52735l-.23047-.23438h-.23437l-.17578.0586-.0586.69922.0586.34765.11719.17579.17578.41015.11718.23047.28907.46875.17578.05469h.52344l.23437.0586.75781.64062.0586.29296v.23438l.05859.0586.23047.34765v.35156l-.11719.17188v.29297l.29297.28906.29297.17578.17187.0586.29297.17577.29297.1172.58203.40624.28906.23438.29297.17578.21875.16015.01563.01172.23047.17579.64062.52343.17578.23438.1172.17578.17577.17578.11328.17188v.64062l.1172.17578.46874.11719.58203.11719.23438.05859.23047.11328.29297.11719.11328.0586.58593.35156.28907.17187.17578.0625.17578.05469.17578.0586.69922.35155.28906.17579.23438.05468.28906.17578.23437.1172.64063.40624.29297.11719.17187.0586.23438.05859.41015.05859.23047.0586.23438.11718.0586.17188-.41017.17578.46875.0586.0586.29296.11328.23438.17578.05468.23438.0586.17578.05859.40625.11719.64062.23437.11719.17188.0586.23437v.17578l-.0586.1172-.0586.40624.23438.23438.11719.05859.34766.11719.64062.23047.17578.11718.28906.1172.17578.17577.23438.46485.58203 1.10546.17578.17579.34766.17578.17578.11719.35156.11718 1.04688.52344.23437.0586.46485.11327.29297.0586.46484.17578.75781.58203.23438.23438.34765.46484.17578.17578.28907.23438.8164.69921.29297.17579.28906.28906.29297.17578.29297.28906.69531.64063.17578.17578.29297.23437.28907.23438.46875.28906.64062.58203.34766.23438.23437.29297.34766.34765.35156.46485.9336.99218.34765.40625.11719.17579.23437.05859.11328.11719.64454.17578.23047.11328.23437.0586.29297.17577.23047.1172.9336.69921.40624.40625.23438.17578.40625.17578.23437.11719.8164.34766.34766.23437.23438.11719.29297.28906.23047.11719.7578.35156.35157.17188.23047.05859.29297.11719.23437.0586.8711.17577h.8164l.46875.23047.17188.0586.875.69921.46484.1172.29297.05858.17578.0586.23047.0586.46875.05859.34766.05859.35156.0586.40625.05859h.29297l.17187.0586v.23046l.17578.17578h.29297l.34766.0586.35156.05859.69922.11719h.64063l.46484-.23438.29297-.17578.17187-.11719.41016-.17187.28906-.17578.9336-.46485.46875-.29297.52343-.29296.46485-.17188.46484-.17578 1.05078-.46485.28906-.11718.41016-.11719.28906-.11719.52735-.17578 1.51562-.69922.58203-.34765.28907-.0586.29297-.0586.34765-.11718.875-.23047.35156-.11719h.11329l.23437-.05859.875-.23437.23438-.0586h.8125l.35156-.0586.8164-.11718.17188-.0586.35156-.05468.29297-.0586.23047-.05859.8164-.17578.17579-.0586h.34765l.23438-.05859.46484-.11718.75781-.17188.23438-.0586h.34765l.41016-.11718.28906-.0586 1.28516-.05859h.28906l.41016-.0586.23047-.05858h.17578l.875-.1172h.40625l.41015-.11718h.34766l.35156-.11328.8711-.0586h1.75l1.04687.28907.41016.11719.28906.11718.35156.11719.28907.11719 1.05078.17187.28906.0586h.29297l.29297.05859.17187.0586.41016.05859.17187.0586.1172.05858h.11718l.11719.0586.35156.0586h.11328l.41016.0664 1.92187.39453 1.92578.39453 1.51953.44922 1.69532.71875 2.14453.80469 1.60547-.71875 1.42968-.80469 1.16016-1.07813 1.25-.44921 3.03516-.71875 1.875-.35938 2.14453-1.34765 2.23437-1.25391 2.5-1.25781 1.69531-.44922 1.78516-.17969 1.16016-.26953.625.53906 1.33984-.26953.71485-.98828.98437-1.34375.44531-.17969.80469-.35937 1.875-.53907 1.78516-.44921 1.25-.26954 1.16015-.08984 1.69922-.08984 1.96094-.26954 1.25-.08984h.53906l.625-.08984h.89063l2.14453-.17969 2.41015-.17969 2.58985-.08984 1.69531.17969 1.60938.08984 1.42968.35938 1.16016.71875 1.875.98828 1.16015 1.52734.26563.71484.6289.08985.35548.89844.53515.53906.53516 1.52734 1.07422.35938h.53515l-.80469.53515.08985 1.70703.71484 2.69532.89063.80468.89453.98829.71484 1.2578 1.78516.53907 1.51953-.17969.35547 1.34375 1.60937-.80469.98047-.53906.26953.26953.31641-.21484.21875-.14453.80078.44922.44922-.35938h.35547l.53515-.26953.53907-.71875.53515-.26953.625-.98828 1.16016.44922.83984.3711 1.39454.61718 1.6953-.17969h1.60548l1.78515.08985.17969-1.70704.53516-1.34375.80468.26954.4922.84765.40233.40625-.08984.53906v.35938l.71485.44922.71093-.26953h1.42969l.35938.98828.4453 1.25781.71485 1.34375 1.25.6289 1.69531.62891.71485-.17969.17969-.53906.98046-.08984.44922.35937.08594 1.25782-.26563.6289-.53515.17969v.53906l.71484.98438.26563.53906.98437.98828.80078 1.07813-.26562.35937-.08985.89844-.625 2.33203-.35546 2.0664-.08985 1.79298-.17969.71875-.08984.53906v1.4375l-.98047 1.88281-.35937 1.70703-.53516.89844-.80469 1.16797-.26562.53906 2.05469 1.2539.08593.35938-.35546.53906-.08985-.17968v.80859l.08985 1.4375-.44532.71484-1.07422.09375-.26562.71485.53515.89844.8047.71875 1.16015.80859 1.33984.26953.44531.35938-.35546.44921-1.78907-.08984-1.25-.44922-.71484-.71875-.625-.08984-.17578 3.58984-.1875 1.3086h89.35937V311.70313h-55.26953v49.08203l.76172.125 3.28906.54296 2.02344 2.83594v2.7539l2.35156.33204 2.34766.33203h4.05078l-1.3789 4.16016-2.02344.70703-2.02344.70312-.54297.34375-2.59375 1.6172-.1875.11718-2.02344-2.07813-.73046-2.74218-2.67188-2.07813-1.375-3.5-.0664-.08203-1.95704-2.67188 2.75-1.41796v-49.08204H294.42187v91.41407l.1172.03125.1328.01172.07422.07421.10547.04688.08985.0586.08593.05859.08985.0586.29687.29687.0586.08984.03125.11719.02734.11719.01563.13671-.03125.1172-.0586.08983-.0586.08594-.04296.10547-.04688.10156-.02734.1211v.14453l.17578.26953.14844.14844.07422.08594.07422.07421.04296.10547.0625.08985.0586.08593.04297.10547.0586.08985.04687.10156.04296.10547.0586.08594.11719.17968.07421.07422.0625.08594.0586.08984.04297.10547.0586.08985.05858.08593.0625.08985.0586.08984.04297.10156.11719.17969.07421.07422.0586.08594.07422.07421.08984.0586.10547.04687h.14844l.1328-.01562.13282.01562.10156-.04687.07422-.07422.04688-.10156-.01563-.13281v-.14844l-.04687-.10547-.02735-.11719-.04687-.10156-.02735-.1211-.04296-.10156-.0625-.08984-.04297-.10156-.04297-.10547-.03125-.11719-.01563-.13281-.01171-.13672.08593-.0586.0586-.08593.12109-.03125.04297.10547.01562.1328v.1172l.0586.10156.0586.08984.08983.0586.14844.14843.0586.08985.04296.10547-.01171.10156.08593.0586.10547.04687.08594.0586.08984.05858.07422.07422-.11719.02735-.10546.04687-.08594.0586-.07422.07421-.0586.08985-.0625.08594-.02734.12109-.04687.10156-.04297.10547-.03125.11719-.01172.13281-.01563.13281v.14844l.02735.11719.04687.10547.04297.10156.0586.08984.07421.07422.08985.0586.07422.07421.08984.0586.0586.08984.04296.10547.04688.10156.11719.03125.1328.01563h.14845l.11718-.03125.10547.04297.04297.10547.04688.10156.02734.1211L299.5 410l.02734.11719.03125.1211.02735.11718.10547.04297.10156.04687.13281-.01562.14844.14844.0625.08593.07422.07422.07031.07422.08984.0625.10547.04297.10156.04297.1172.03125.13671.01562.11719-.03125.07422-.07422.02734-.11718-.01172-.13282-.03125-.12109-.02734-.11719.04297-.10547h.11719l.08984.0625.11719.02735h.14843l.13282.01562h.14843l.13282.01563.1328-.01563h.14845l.1328-.01562.13282-.01172.13672.01172.11719-.02735.13281-.01562.1914-.0586-.05859.17579-.01562.1328-.02735.1211-.01562.13281-.0586.08594-.1328.01563-.10548.04687-.10546.04297-.1172.03125-.11718.02735-.26563.03125h-.14843l-.13281.01562-.07422.07422.05859.08594.14844.14843.11719.1797.07421.0703.08985.0625.08984.0586.08594.0586.08984.05858.10156.04297.10547.0625.10547.04297.08594.0586.10547.04687.10156.04297.17969.11719.0586.08984-.04298.10156-.04687.10547.01562.13281.22266.22266.0586.08985.04296.10156.03125.1211.04297.10155.01563.13282.03125.11718.01171.13672.03125.11719.14844.14844.10156.04297.10547.04296.1172.03125.1328.01563.13672.01563h.11719l.11719-.03125.08984-.0586.04297-.10547.04688-.10156.04296-.10547.03125-.11719.01172-.1328v-.14845l-.01172-.1328-.01562-.13282-.03125-.11719-.04297-.10547-.04688-.10547-.04296-.10156-.04297-.10547-.01563-.13281.01563-.13281.02734-.11719.03125-.11719.02735-.1211.04687-.10155.08984-.0586.08594-.0625.07422-.07422.08984-.05859.22266-.22266.0586-.08593.07421-.07422.11719-.17969.0586-.08594v-.14844l-.07423-.07421-.10156-.04688-.10547-.04297-.10156-.04297-.0586-.08984-.04687-.10547-.02734-.11719.08984-.05859.11719-.03125.10156-.04297.17969-.11719.14844-.14843.01172-.13282-.01172-.10546-.08985-.0586-.1328.01563h-.14845l-.1328.01562-.13282-.01562-.1211-.03125-.08593-.0586-.07422-.07422-.0586-.08984-.0625-.08594-.11718-.17969-.0586-.08593.03125-.1211.08594-.05859.1211-.03125.05859-.08594v-.1211l-.03125-.11718-.0586-.08984-.05859-.08594-.04687-.10547-.02735-.11719-.01562-.1328.0586-.08985.07421-.07422.08984-.0586.1172-.17968.07421-.07422.0586-.08594.14843-.14844.1211-.03125.1328-.01562.13282.01562.07422.07422.04297.10547.01562.13281-.03125.1172-.11719.03124-.1328.01172-.14844.14844-.04297.10547-.04688.10156-.02734.1211-.03125.11718v.14844l.03125.11719.04297.10546.05859.08985.07422.07031.07422.07422.11719.03125.12109.02734.11719-.02734.1328-.01563h.1172l.08984.0586.07422.07422.04687.10546.0586.08594.10156.04688.13281.01562.10547.04297.08594.0586-.01172.10546-.07422.07422-.17969.11719-.05859.08984-.08984.0586-.07032.07422-.07421.07421-.0625.08985-.02735.11719-.01562.1328.01562.13282-.01562.13281v.14844l.01562.13281.02735.1172.03125.12108.07421.07422.08985.0586.08594.0586.08984.05858.11719.03125v.08594l-.10157.04688-.08984.0586-.26563.03124-.11718.02735h-.14844l-.10547.04296-.10156.04688-.0586.08984-.0625.23438-.01171.13281-.03125.1211-.01563.1328v.29298l-.01172.1328.01172.13673.01563.1328.1328.01563.13282.01172.1211.03125.08593.0586.07422.07421.04688.10547.04296.10157.01563.1328v.44532l-.01563.13281v.44532l.03125.26562.02735.11719.01562.13281.03125.11719.08594.21094.03125.26562v.14844l-.03125.11719-.02734.11718-.03125.1211-.02735.11719-.03125.11718-.03125.1211-.01171.1328-.01563.13282.08984.0586.1172-.03125.10155.01562.04688.10547-.03125.26562v.44141l-.04297.10547-.04688.10547-.04296.10156-.04297.10547-.0586.08594-.03125.12109-.04296.11719-.03125.11719-.01563.1328.01563.13282.05859.08984.10547.04688.08594.0586.05859.08593-.01172.13672-.03125.11719-.04297.10156v.44531l-.01562.13281v.14844l-.03125.11719-.04297.10547-.02735.11719-.04687.10546-.04297.10157-.03125.12109-.02734.11719-.03125.13281-.03125.11719-.02735.11719-.04297.10546-.03125.1172-.03125.12108-.01171.13282-.01563.13281v.29688l.02734.11718v.14844l.04688.39844.02734.11719.0586.08984.12109.03125h.14844l.13281-.01563.0586.08985v.11719l-.0586.08984-.08984.0586-.10157.04296-.10546.04688-.08985.05859-.08594.0586-.13671.01562-.1172-.03125-.1328-.01563-.10157.04688-.0625.08594-.01172.13671-.01562.13282-.03125.11719-.02735.11718-.01562.13281-.03125.1211v.29687l.01563.13282.03125.11718v.14844l.01171.13281v.14844l-.02734.11719-.04688.10156-.02734.1211-.03125.11718-.0586.08985-.07421.07421-.10156.04297-.10547.04688-.11719.02734-.1211.03125-.10156-.04687.0586-.08594.10547-.04688.02734-.11718.03125-.11719.02734-.1211.03125-.11718v-.14844l.01563-.13281-.03125-.11719-.04297-.10547-.10547.01563-.07422.07422-.10156.04296-.08984.0625-.07422.07422-.04297.10157-.01563.1328-.03125.1172L304.25 426l-.03125.11719-.02734.11719-.03125.12109-.02735.11719-.03125.11718-.04297.10547-.08984.0586h-.08984l-.1172-.03125-.03124-.08594.01562-.13672-.03125-.11719v-.14844l-.01171-.1328v-.14844l-.0625-.23438-.02735-.1211-.04297-.10156-.04687-.10546-.0586-.08594-.05859-.08985-.04297-.10546-.0625-.08594-.14844-.14844-.0703-.07422-.10548-.04687-.10547-.04297-.10156-.04297-.29687-.29688-.08985-.07421-.08594-.0586-.10546-.04297-.08985-.0625-.08594-.0586-.10546-.04296-.08985-.0586-.08594-.0625-.07421-.0703-.10547-.04688-.08594-.0586-.10547-.04296-.08984-.0625-.10156-.04297-.10547-.04297-.08594-.0586-.10547-.04687-.10547-.04297-.10156-.04687-.08985-.0586-.10156-.04297-.10547-.04296-.08984-.0625-.11719-.02735-.13281-.01562-.13281.01562H299.75l-.13281.01563-.11719-.03125-.08984-.0586-.07422-.07422-.08985-.05859-.10156-.04688h-.14844l-.12109-.02734-.10156-.04297-.07422-.07422-.11719-.17968-.08984-.0586-.10156-.04297-.08985-.0625-.10547-.04296-.08984-.0586-.08594-.0586-.10547-.04687-.0586-.08594-.05858-.08984-.04297-.10547-.04688-.10156-.07422-.07422-.08594-.0586-.07421-.07421-.08985-.0586-.22265-.22265-.04297-.10547-.03125-.26563.10547-.04296h.14453l.10547.04296.07421.07422.08985.0586.08594.0586.10546.04687.08985.05859.14844.14844.0703.07422.14845.14843.0625.08594.07421.07422.08594.0586.07422.07421.08985.0625.08984.0586.08594.05859.26953.17578.10156.04688.10547.04296.10156.04297.04688-.07421.05859-.08594.07422-.07422.07031-.07422.10547.04297.07422.07422.0586.08984.04296.10156.04688.10547.04296.10547.1211.02735.11719-.02735.07421-.08984.04297-.10547.0586-.08985.07422-.07421.10546-.04297.1172-.02735.1328.01172.08985.0586.14844.14843.05859.08985.04297.10547.04687.10156.04297.10547.04297.10156.10547.04688.10547.04296.13281.01563.08594-.0586.0586-.08984.07421-.07422.10547-.04297.11719.02735.10547.04687.10156.04297.10547.04297.10156.04688.17969.11718v.11719l-.01563.13281.01563.13281.01562.13672.0586.08594.10156.04688.1211.02734.11718.03125h.14844l.11719-.03125.05859-.08984.17969-.1172.05859-.08983.07422-.07422.0586-.08594.11718-.17969.17969-.11719.11719.03125.08984.0586.04297.07422-.01563.1328v.1172l.08985.05859h.14843l.13282-.01563.1328-.01171.26563-.03125.10547-.04297.11719-.03125.1211-.02735.07421-.07421.07031-.07422.0625-.08985-.01562-.10547-.04688-.10156-.10156-.04297-.10547-.01562-.11718.02734-.26563.03125h-.14844l-.07421-.07422-.08985-.0586-.11719-.03124-.11718-.02735-.13282-.01562h-.14843l-.13282.01563h-.29687l-.10547-.04688-.14844-.14844-.04297-.10156-.05859-.08984.22266-.22266.08593-.0586.10547-.04296.11719-.03125.13281-.01563.13281.01563.13672.01562.10157.04297.1328-.01172.08985-.0625.10156-.04297.0625-.08984-.04687-.10156-.08984-.0586-.1172-.03125-.10155-.04296-.0586-.08985-.0625-.08984v-.11719l.01563-.13281.10547-.04688.07421-.07031v-.1211l-.08984-.05859-.03125-.11719.08985-.05859.07421-.07422.04297-.10547.0586-.08984.04687-.10156.01563-.13281v-.14844l-.04688-.10547-.04297-.10156-.08984-.0586-.13281-.01562-.10157-.04297-.13671-.01563-.1172-.03125h-.4453l-.13282-.01562-.13281-.01172-.13281-.01563-.11719-.03125h-.14844l-.13281-.01562-.13281-.01172-.26563-.03125-.1211-.04297-.08593-.0586-.07422-.07421v-.14844l.01172-.13281.10547-.04688.10156-.04296.13281-.01563h.15235l.13281-.01562h.29297l.1211.03125.10156.04296.08984.0586.23438.0625.12109-.04688.08984-.05859.10156-.04297.13282-.01562.10547.04296.10156.04688.13281.01172.1211-.02735h.14453l.12109-.03125.11719-.02734.10547-.04687.07421-.07422.08594-.0586.14844-.14843.0586-.08594.04687-.10547.02734-.11719.01563-.10547-.10156-.04296-.08985-.0586-.11719-.03125-.10546-.04297-.08985-.0625-.07422-.08594-.07422-.07421-.10156-.04297-.10547-.04688-.10156-.04297-.0586-.08984-.04687-.10156-.08594-.21094-.0625-.08594-.05859-.08984-.07422-.07422-.08594-.0586h-.26953l-.11719.03126-.08984.05859-.10156.04297-.13281.01562-.10547-.01562-.02735-.11719-.0625-.08984-.11718-.03125-.10157-.04297-.14843-.14844-.03125-.11719-.01563-.10546.07422-.07422.17969-.1172.11719-.02733.11718-.03125.13672.01562.10156.04297.10547.04297.10156.04687.10547.04297.1172.03125.1328.01563.1172.02734.1328.01563.10547-.01563.08985-.0586-.07422-.07421-.10547-.04297-.07422-.07422-.07422-.08984-.14844-.14844-.08593-.0586-.08985-.05859-.07422-.07422-.08984-.0586-.10156-.04687-.1211-.02734-.10156-.04688-.10547-.04296-.11719-.03125-.10156-.04297-.1211-.03125h-.14843l-.11719.03125-.10546.04297-.08594.0625-.17969.11718-.08594.0586-.08984.0586-.10547.04687-.08594.05859-.10547.04297-.10156.04297-.10547.04687-.07422.07422-.05859.08985-.0586.08593-.04687.10547-.0586.08594-.07421.07422-.13281-.01172-.1172-.03125h-.11718l-.07422.07422-.08984.0586-.07422.07421-.08984.0586-.08594.05859-.10547.04687-.10156.04297-.13672.01563-.10156-.04297-.14844-.14844-.10547-.04688h-.08594l-.10547.04688-.10156.04297-.1211.03125-.11718-.03125-.07422-.07422v-.11719l.03125-.1211.07422-.0703.0586-.08985.07421-.07422.11719-.03125.10547-.04296h.29297l.13281-.01563.13672-.01563.10156-.04296.08985-.0586.10156-.04687.08984-.0586.13281-.01171.08985.05859.13281.01172.08984-.0586.08594-.05859.10547-.04297.08984-.0586.08594-.0625.08985-.05859.14843-.14843.0586-.08594.05859-.08985.10547-.04296.13281-.01563.11719.02735.1211.03125.05859-.0586.05859-.08984.03125-.26563.02734-.11719.10547.01172.13281.01563.10157-.04297.08984-.0586.0586-.08984.07421-.07422.0586-.08984.04687-.10156.01172-.13281-.01172-.13282-.04687-.10547-.14844-.14843-.0586-.08985-.05859-.08594-.04297-.10546v-.44532l.01563-.1328v-.14845l.01172-.1328-.0586-.0586-.08984.0586-.10156-.04298-.17969-.11719-.08594-.05859-.0625-.08984-.0586-.08985-.07421-.07421-.08594-.0586-.1211.03125-.10155.01172-.10547.04688-.08594.05859-.10547.04297-.14844.14844-.08984.05859-.08594.0586-.08984.0625-.10547.04296-.13281.01563v-.1211l.10547-.04297.11718-.03125.07422-.0703.04297-.10548v-.14844l-.02734-.11718-.14844-.14844-.13281-.01563h-.14844l-.11719.03125-.10547.04297-.10156.04297-.08984.0625-.11719.02735-.07422-.07422.01172-.13281-.04297-.10157-.04297-.10547-.08984-.05859-.11719.02734-.1211.03125-.11718.03125-.10156.04297-.1211.03125-.10156.04297-.10547.04297-.08984.0586-.10156.01562v-.11719l.01562-.13281-.0586-.08985-.07421.04297-.14844.14844-.0586.08985-.07421.07421-.04688.10547-.04296.10156-.07422.07422-.0586.08985-.07422.07422-.05859.08593-.07422.07422-.08984.0625-.07422.07031-.07422.07422-.10156.01563-.13281.01562-.10547-.04296v-.1211l.14843-.14844.04297-.10156.0586-.08984.04687-.10156.04297-.10547.0586-.08985.03124-.11719.04297-.10156.03125-.1211.02735-.11718.04687-.10547.04297-.10156.04297-.10547.07422-.07031.08984-.0625.08985-.0586.10156-.04296h.29687l.26563-.03125.10547-.04297-.07422-.07422-.11719-.03125-.10547-.04297-.08984-.0586-.10156-.04687-.08985-.0586-.10156-.04296-.10547-.04297-.08984-.0625-.08594-.0586-.10547-.04296-.10156-.04297-.1211-.03125-.11718-.03125-.10157-.04297L297.5 410.25l-.10156-.04297-.08985-.0586-.04296-.10546-.01563-.13281.10156-.04297.13281-.01563.13672.01563.13282-.01563.10156-.04297.0586-.08984.01562-.10547-.08985-.0586-.07421-.07421-.10157-.04297-.08984-.0586-.14844-.14843-.04297-.10547-.01562-.13281v-.29297l-.0586-.08985-.08984-.05859-.07422-.07422-.04297-.10547-.03125-.11718-.0586-.08985-.07421-.07422-.11719-.02734-.07422-.07422-.08984-.0586-.08984-.0625-.08594-.05859-.07422-.07421-.0586-.08594-.04687-.10547-.08594-.0586-.14843-.14843-.19532-.0586-.1328.01563-.10157.04297-.07422.07422-.04688.10156-.04296.10547-.0586.08984-.0586.08594-.29687.29687-.08984.0586h-.08594l-.0625-.08594-.04297-.10547.03125-.11719.0586-.08984.02734-.11719-.01172-.13281-.08984-.0625-.10547.04688-.11719.02734-.11719.03125-.26953.17578-.10156.04688-.11719.02734-.10546.04687-.08985.0586-.10156.04297-.0586-.08594-.04687-.10547.01563-.13281.04687-.10547.07031-.07422.07422-.07031.0586-.08985v-.14843l-.04297-.10547h-.23829l-.10156.04687-.03125.11719-.02734.11719-.03125.1211-.07422.04296-.13281.01563-.07422-.04688-.04297-.10156-.04297-.10547-.04687-.10156-.04297-.10547-.1211.03125-.10156.04297-.13281.01562-.11719.03125-.10547.04297-.08984.0586-.10156.04687-.1211.02734-.13281.01563-.10156-.04297-.0586-.08985-.04687-.10546-.04297-.10157-.04297-.10546v-.1172l.0586-.08984.08593-.05859.17969-.11719.10156-.04687.10547-.04297.10547-.0586.10156-.04296.08985-.0625.10156-.04297.10547-.0586.10156-.04687.08984-.0586.10547-.04296.10156-.04297.08985-.0625.10156-.04297.13672-.01563.11719.03125.10156.04297.1211.03125.10156.04297.10546.04688.10157.04296.10547.04297.10156.04688.10547.04297.10156.04297.10547.04687.08594.0586.10546.04296.1172.03125.10546.04297.10156.04688.08985.0586.10547.04296.10156.04297.10547.04687.11719.02735.10156.04687.1211.02735h.14843l.08594-.0586.01562-.10156.0586-.08984-.02735-.1172-.07422-.07421-.11719-.17969-.07421-.07422-.08985-.07421-.17969-.1172-.08593-.05859-.10547-.04296-.10156-.04688-.26954-.17578-.05859-.08985-.07422-.07421-.0586-.08985-.04296-.10156-.03125-.11719-.01563-.13672v-.5625l-.01171-.1328-.01563-.13282-.03125-.11719-.01562-.13281-.01172-.13281-.03125-.1211-.22266-.22265-.0586-.08594-.01562-.10547.03125-.11719.13281-.01562v-91.41406H172.9922v1.45312l-.0586.23438-.35156 1.05078-.17187.52343-.1172.34766-.17577.41016-.11719.17187-.23438.29297-.23046.0586h-.35157l-.11718.05859-.23047.40625v.29297l.11719.17578.23046.23047.1172.23437.64062.75781.29297.46485.17578.23437.23047.35156.23437.34766.64063.8164.17578.46485.17187.41016.11719.69531.17578.46875.11719 1.39844.0586.46484v.875l.11718 1.04688v4.78125l-.0586.46484-.35156 1.28125-.17578.52344-.11328.41015-.35156.9297L172.93359 336l-.23437.58203-.11719.17578-.17187.34766-.17578.40625-.35157.8164-.0586.29297-.11327.29297-.11719.28906-.0586.17579-.11718.875-.0586.40625-.05859.11718-.0586.17579-.05859.17187-.23047.52734-.11718.17188v.23437l-.11719.23438-.0586.17187-.17577.58594v.28906l-.0586.17579v.29296l-.0586.11329-.05859.52734v.17187l-.05468.23438v2.6211l-.17578.8164-.1172.17578-.17577.23438-.1172.17187-.11327.23438-.58594.93359-.23047.28906-.29297.46485-.17578.23437-.28906.35156-.35156.69922-.11328.23047-.17579.41016-.17578.23046-.40625.52735-.8164.69922-.29297.17187-.28906.23438-.17579.11719-.17578.17578-.52344.40625-.52734.17578-.17187.17578-.23438.05469-.64062.17578h-.75782m12.21094 31.02344l-1.07422.44921.35938.89454 1.25-.71485.44531-.53906-.98047-.08985"/><path fill="#d3d3d3" fill-opacity="0" fill-rule="evenodd" d="M201.50781 416.59766h-.89453l.44922.6289.98047.35938.80469-.08985.4453-.98828-.17577.08985-.71485-.35547-.89453.35547m154.6211 59.0703l-.0586-.52343v-.29297l.11328-.29297.0586-.23046.46875-.46875h.11328l.11719-.11329.11718-.05859h.17579l.23437-.0586h.34766l.23437.0586.11719.0586.23047.17187.0586.17578.11718.58203v.29297l-.11719.17578-.17187.28906-.17579.17579-.52734.52343-.23047.23438-.11719.0586h-.17578l-.11718-.0586-.40625-.29297-.17579-.11719-.11718-.0586-.0586-.11327-.05468-.1172m6.64062-10.95702l-.0586-.17188v-1.10937l.0586-.17188.17578-.0586.17188-.05858h.17578l.23437-.0586.1172.0586.05858.69921-.05859.17188-.11719.17578-.11718.0586-.23438.52343-.11328.0586h-.23438l-.05859-.1172m9.61328-14.39062l-.11719-.17578v-.69922l.29297-.875.1172-.17187.17577-.35156.11328-.23047.1172-.29297.35155-.75781.1172-.23047.17187-.23438h.17578l.11719-.0586h.64062l.11719.0586.23437.23438.17188.11328.35156.29297.11719.11718.11328.17579v.11328l.11719.05859.11718.11719v.69922l-.05859.17578v.23047l-.0586.17578-.34765 1.05078-.11719.23047-.11719.23437-.11718.0586-.23047.23437-.64063.28906h-.875l-.41015-.11718-.64063-.46485"/><path fill="none" stroke="#bebebe" stroke-linecap="round" stroke-linejoin="round" stroke-miterlimit="10" stroke-width=".5" d="M467.95703 311.69531H144.02734v168.625h323.9297v-168.625"/><g clip-path="url(#a)"><path fill="#fff" fill-opacity="0" fill-rule="evenodd" d="M144 475.89063v4.4375h.0039H144V311.67188h.0039H144v164.21875"/></g><g clip-path="url(#b)"><path fill="#fff" fill-opacity="0" fill-rule="evenodd" d="M144.0039 480.32813V311.67188h71.01173v93.36718l-4.44141 1.94531-2.55469 2.33204-1.88281 1.96093-4.4375-.03906-1.6914 2.51563-2.7461 1.61328-3.36719 2.82422-1.07422.67187-4.4375.75-1.75781-1.42187-2.67969-2.28125-4.4375.01953-4.4414.96484-1.83985 1.29688-2.59765.84375-4.4375 1.13671-2.9336 2.45704-1.5039 1.5078-2.79297 2.9336-1.64453 3.8125-.8125.625.8125.76563 1.04297 3.67187.4375 4.4375-.60938 4.4375-.01953 4.4414.17969 4.4375 3.40625 4.4297 4.4375-1.70704 4.4375.13282 4.4375.3789 4.4414-1.48828 4.02735-1.7461.41015-.02733 4.4375-.42188 4.4375-.41406 4.4414-2.78125.81642-.79297 3.62109-3.20313 1.50781-1.23828 2.92969-2.01172 3.28906-2.42578 1.14844-.21484 4.4414-1.29297 4.19532-2.92969.24219-.17969 4.4375-.74609 3.65625-3.51172-3.65625-3.61719-4.4375-.48437-.10938-.33594-1.48828-4.4414-2.83984-2.66407-4.44141-1.25-4.4375-.36718-.30078-.15625.30078-1.0547 4.4375-1.10155 4.4414-1.82032.48438-.46093 3.78125-4.4375-4.26563-4.27735v-93.36719h22.19141v125.09766l-4.4414.58203-4.4375.04297-2.875 2.98828-1.5625 2.76953-1.73829 1.66797 1.73828 3.54297 4.4375-.05469 4.4375-.39062 4.44141-2.59766.73438-.5 2.95703-4.4375-3.6914-3.61328V311.67188h8.875V448.9453l-.45313.3164.45312.26173.28125-.26172-.28125-.3164V311.67187h22.1914V432.6875l-4.03124 3.25781-.40625.27735-4.4375.7539-4.4414 2.01563-1.34767 1.39062-.46093 4.4375 1.8086 1.76172 1.9375 2.67969 2.5039 2.38672 4.4375.53125 4.4375-2.60938.3711-.3086 3.17968-4.4414-2.83203-4.4375 3.52344-4.4375-4.2422-3.25781V311.67187h97.64454v149.23047l-1.67969 1.67188 1.67969 1.6211 4.14844-1.6211-4.14844-1.67188V311.67188h4.4375V419.8828l-2.57422 2.7461 2.57422 2.90234v14.61328l-.21875.23828.21875.3711.32422-.3711-.32422-.23828v-14.61328l3.09375-2.90234-3.09375-2.7461V311.67187h8.8789v133.76954l-3.64843 3.8203-.26953 4.4375.4375 4.4375 3.48046 3.89845 3.59375-3.89844.84375-1.04688 3.52344-3.39062-3.52344-3.65235-.51562-.78515-3.92188-3.82031V311.67187h22.19141v143.4922l-4.4414.78515-2.33204 2.1875 2.33204 1.95312 1.41406 2.48438 3.02734 3.25 4.4375.6211 3.03125.5703 1.40625 1.58204 1.66016 2.85546 2.77734 2.61329 4.4414-1.20313 1.35938-1.41015-.48828-4.4375-.8711-.96485-4.4414-1.79687-.51562-1.6797-3.92188-3.91015-3.69531-.52734-.74219-.76563-4.4375-2.20703V311.67187h66.57031v168.65625H144.00391"/></g><path fill="#50fcfc" fill-rule="evenodd" d="M157.3164 432.27344l-.8125-.76563.8125-.625 1.64454-3.8125 2.79297-2.9336 1.5039-1.5078 2.9336-2.45704 4.4375-1.13671 2.59765-.84375 1.83985-1.29688 4.4414-.96484 4.4375-.01953 2.67969 2.28125 1.75781 1.42187 4.4375-.75 1.07422-.67187 3.36719-2.82422 2.7461-1.61328 1.6914-2.51563v4.27344l-4.15625 2.67969-.28125.21093-4.4414 2.72657-3.71095 1.5-.72656 1.64843-4.4375.26563-2.76562-1.91406-1.67188-2.10938-4.4414.10156-4.4375.64454-2.88282 1.36328-1.55468 2.40625-2.02735 2.03515-2.41015 1.6836-1.625 2.7539 1.60547 4.4375.01953.14063.47656 4.29687-.47656.65235-1.8047 3.78515.02345 4.4414.97265 4.4375.8086 1.05079 1.32812-1.05078 3.10938-2.02735 4.4375.8125 4.4375.06641 4.4414-.94922 4.4375-.35156 4.4375.00781 4.4375-1.5625.59375-.4336 3.84766-4.25.20312-.1914 1.9375-4.4375 2.29688-1.29297h4.4375l4.4375-.58984 4.4414-2.13281.60157-.42188 3.83594-2.8711 4.4375.5586 2.21093-2.125-2.21094-2.1914-4.4375.68359-.92187-2.92969-3.51563-4.23047-.3125-.21093-4.1289-2.90235-4.4375-.3125-2.34375-1.22265-2.09375-2.6797v-4.27343l4.4375.03906 1.88281-1.96093 2.55469-2.33204 4.4414-1.9453v2.98437l-2.07421 1.29297 2.07422 1.39843 1.28906-1.39843-1.28906-1.29297v-2.98438l4.26562 4.27735-3.78125 4.4375-.48438.46093-4.4414 1.82032-4.4375 1.10156-.30078 1.05469.30078.15625 4.4375.36718 4.4414 1.25 2.83985 2.66407 1.48828 4.4414.10938.33594 4.4375.48438 3.65625 3.61718-3.65625 3.51172-4.4375.7461-.2422.17968-4.1953 2.92969-4.44141 1.29297-1.14844.21484-3.28906 2.42578-2.92969 2.01172-1.50781 1.23828-3.6211 3.20313-.8164.79297-4.4414 2.78125-4.4375.41406-4.4375.42188-.41016.02734-4.02735 1.7461-4.4414 1.48827-4.4375-.3789-4.4375-.13281-4.4375 1.70703-3.40625-4.4297-.1797-4.4375.01954-4.4414.60938-4.4375-.4375-4.4375-1.04297-3.67187"/><path fill="#00e8fc" fill-rule="evenodd" d="M159.97266 449.26172l-.02344-4.4414 1.80469-3.78516.47656-.65235-.47656-4.29687-.01953-.14063-1.60547-4.4375 1.625-2.7539 2.41015-1.6836 2.02735-2.03515 1.55468-2.40625 2.88282-1.36329 4.4375-.64453v5.29688l-4.4375.59765-.4297.5547-3.10937 4.4375-.89843.9453-1.6797 3.4922 1.6797 3.71484 1.17578.72265 2.32031 4.4375.9414 3.70313 4.4375.73437 4.44141-2.13672 4.4375-.67578 4.4375.90235 3.03125-2.52735-.30469-4.4375-2.17578-4.4375-.55078-.55469-4.21875-3.8828-.21875-.26563-4.19922-4.17188-.23828-.17969-4.4414-.97265v-5.29688l4.4414-.10156 1.67188 2.10938 2.76562 1.91406 4.4375-.26563.72656-1.64843 3.71094-1.5 4.4414-2.72657.28126-.21093 4.15625-2.6797v3.5586l-4.03906 3.5586-.39844.82812-2.78906 3.61328 2.78906 3.71485 2.07031.72265 2.36719.9414 1.95703-.9414 2.48047-1.83203 3.35547 1.83203 1.08203 1.89453.45703-1.89453 3.98438-1.125 2.15625-3.3125-2.15625-2.59375-2.71485-1.84765-1.72656-1.21094-4.4375-.22656-4.4375-2.1211v-3.5586l2.09375 2.6797 2.34375 1.22265 4.4375.3125 4.1289 2.90235.3125.21093 3.51563 4.23047.92188 2.92969 4.4375-.6836 2.21093 2.19141-2.21094 2.125-4.4375-.5586-3.83593 2.8711-.60156.42188-4.44141 2.13281-4.4375.58984h-4.4375l-2.29688 1.29297-1.9375 4.4375-.20312.1914-3.84766 4.25-.59375.4336-4.4375 1.5625-4.4375-.00781-4.4375.35156-4.4414.94922-4.4375-.0664-4.4375-.8125-3.10938 2.02734-1.32812 1.05078-.8086-1.05078-.97265-4.4375"/><path fill="#00d4fc" fill-rule="evenodd" d="M166.1914 439.66016l-1.67968-3.71485 1.67969-3.49219.89843-.9453 3.10938-4.4375.42969-.5547 4.4375-.59765 4.4414.97265.23828.1797 4.19922 4.17187v8.07422l-2.38672 1.0664 2.38672.6875.78906-.6875-.78906-1.0664v-8.07422l.21875.26562 4.21875 3.88281.55078.5547 2.17578 4.4375.3047 4.4375-3.03126 2.52734-4.4375-.90235-4.4375.67578-4.4414 2.13672-4.4375-.73437-.94141-3.70313-2.32031-4.4375-1.17578-.72265"/><path fill="#00c4fc" fill-rule="evenodd" d="M183.94531 441.07031l-2.38672-.6875 2.38672-1.0664.78906 1.0664-.78906.6875"/><path fill="#00d4fc" fill-rule="evenodd" d="M197.26172 430.78516l-2.78906-3.71485 2.78906-3.61328.39844-.82812 4.03906-3.5586v2.27735l-1.45313 1.28125 1.45313 2.5625 3.3086-2.5625-3.3086-1.28125v-2.27735l4.4375 2.1211 4.4375.22656 1.72656 1.21094 2.71484 1.84765v1.63281l-3.27343.96094 3.27344 1.22266.79687-1.22266-.79688-.96094v-1.6328l2.15625 2.59374-2.15625 3.3125-3.98437 1.125-.45703 1.89453-1.08203-1.89453-3.35547-1.83203-2.48047 1.83203-1.95703.9414-2.36719-.9414-2.07031-.72265"/><path fill="#00c4fc" fill-rule="evenodd" d="M201.69922 425.1914l-1.45313-2.5625 1.45313-1.28124 3.3086 1.28125-3.3086 2.5625m13.3164 3.10156l-3.27343-1.22266 3.27344-.96094.79687.96094-.79688 1.22266"/><path fill="#00e8fc" fill-rule="evenodd" d="M215.01563 410.71484l-2.07422-1.39843 2.07422-1.29297 1.28906 1.29297-1.28906 1.39843"/><path fill="#50fcfc" fill-rule="evenodd" d="M223.89063 448.36328l-1.73829-3.54297 1.73828-1.66797 1.5625-2.76953 2.875-2.98828 4.4375-.04297 4.44141-.58203v1.48438l-4.4414 1.53906-3.2461.58984-1.1914 1.84766-.66407 2.58984.66406.38672 4.4375-.19531.28907-.1914 4.15234-1.7461 2.17578-2.6914-2.17578-2.12891v-1.48438l3.6914 3.61328-2.95702 4.4375-.73438.5-4.4414 2.59766-4.4375.39062-4.4375.0547"/><path fill="#00e8fc" fill-rule="evenodd" d="M228.32813 445.20703l-.66407-.38672.66406-2.58984 1.19141-1.84766 3.2461-.58984 4.4414-1.53906 2.17578 2.1289-2.17578 2.6914-4.15234 1.7461-.28906.1914-4.4375.19532"/><path fill="#50fcfc" fill-rule="evenodd" d="M246.08203 449.52344l-.45312-.26172.45312-.3164.28125.3164-.28125.26172m8.875-2.9414l-1.8086-1.76173.46095-4.4375 1.34765-1.39062 4.4414-2.01563 4.4375-.7539.40626-.27735 4.03125-3.25781v2.23828l-1.25781 1.01953-3.1797 2.1875-4.4375.71485-2.33202 1.53515 2.33203 2.8789 2.07031 1.5586 2.36719 3.97656 3.27734-3.97656-.74219-4.4375 1.90235-2.9336 1.32422-1.5039-1.32422-1.01953v-2.23828l4.24219 3.25781-3.52344 4.4375 2.83203 4.4375-3.17969 4.4414-.3711.3086-4.4375 2.60938-4.4375-.53125-2.5039-2.38672-1.9375-2.67969"/><path fill="#00e8fc" fill-rule="evenodd" d="M259.39844 443.26172l-2.33203-2.8789 2.33203-1.53516 4.4375-.71485 3.17969-2.1875 1.2578-1.01953 1.32423 1.01953-1.32422 1.5039-1.90235 2.9336.7422 4.4375-3.27735 3.97656-2.36719-3.97656-2.07031-1.5586"/><path fill="#50fcfc" fill-rule="evenodd" d="M365.91797 464.19531l-1.67969-1.6211 1.67969-1.67187 4.14844 1.67188-4.14844 1.6211m4.4375-38.66407l-2.57422-2.90234 2.57422-2.7461 3.09375 2.7461-3.09375 2.90234m0 15.22266l-.21875-.3711.21875-.23828.32422.23828-.32422.3711m5.39844 17.3828l-.4375-4.4375.26953-4.4375 3.64844-3.8203v1.3789l-2.33204 2.4414-.75 4.4375 1.17188 4.4375 1.91015 2.14063 1.96875-2.14062 2.46875-3.0625 1.4297-1.375-1.4297-1.48438-1.93359-2.95312-2.5039-2.4414v-1.37891l3.92187 3.8203.51563.78517 3.52343 3.65234-3.52344 3.39062-.84375 1.04688-3.59375 3.89844-3.48046-3.89844"/><path fill="#00e8fc" fill-rule="evenodd" d="M377.32422 458.13672l-1.17188-4.4375.75-4.4375 2.33204-2.4414v2.30077l-.13282.14063-1.55078 4.4375 1.6836 3.6211 2.97656-3.6211-2.83594-4.4375-.14063-.14063v-2.30078l2.50391 2.4414 1.9336 2.95313 1.42968 1.48438-1.42969 1.375-2.46875 3.0625-1.96875 2.14062-1.91015-2.14062"/><path fill="#00d4fc" fill-rule="evenodd" d="M379.23438 457.32031l-1.6836-3.6211 1.55078-4.4375.13281-.14062v3.79297l-.28515.78516.28515.60937.5-.60937-.5-.78516v-3.79297l.14063.14063 2.83594 4.4375-2.97656 3.6211"/><path fill="#00c4fc" fill-rule="evenodd" d="M379.23438 454.3086l-.28516-.60938.28515-.78516.5.78516-.5.60937"/><path fill="#50fcfc" fill-rule="evenodd" d="M396.98438 460.08984l-2.33204-1.95312 2.33204-2.1875 4.4414-.78516v2.59766l-.92578.375.34375 4.4375.58203.625 4.4375 2.34765 4.4375.66016 2.98828-3.63281-2.98828-2.97656-4.4375-.51954-3.8164-.9414-.6211-.375v-2.59766l4.4375 2.20703.74219.76563 3.69531.52734 3.92188 3.91016.51562 1.67969 4.4414 1.79687.8711.96485.48828 4.4375-1.35937 1.41015-4.4414 1.20313-2.77735-2.61329-1.66016-2.85546-1.40625-1.58204-3.03125-.5703-4.4375-.6211-3.02734-3.25-1.41406-2.48438"/><path fill="#00e8fc" fill-rule="evenodd" d="M400.84375 462.57422l-.34375-4.4375.92578-.375.6211.375 3.8164.9414v1.76954L403.5 462.57422l2.36328 1.46875 4.4375.26562 1.42578-1.73437-1.42578-1.42188-4.4375-.30468v-1.76954l4.4375.51954 2.98828 2.97656-2.98828 3.63281-4.4375-.66015-4.4375-2.34766-.58203-.625"/><path fill="#00d4fc" fill-rule="evenodd" d="M405.86328 464.04297L403.5 462.57422l2.36328-1.72656 4.4375.30468 1.42578 1.42188-1.42578 1.73437-4.4375-.26562"/><g clip-path="url(#c)"><path fill="#fff" fill-opacity="0" fill-rule="evenodd" d="M467.9961 480.32813H468V311.67188h-.0039H468v168.65625h-.0039"/></g><path fill="#fff" fill-opacity="0" fill-rule="evenodd" d="M223.10547 441.09375l5.21875-2.6211-4.47266-8.90234-5.22265 2.625 4.47656 8.89844"/><path fill-rule="evenodd" d="M222.58203 432.26172l.45313-.23047 2.82812 5.625-.70312.35547L223.14453 434l-1.24219.6211-.25-.4961.47266-.3086.19922-.16015.16406-.1836.1211-.21874.05859-.26563-.0039-.32812-.08204-.39844"/><g clip-path="url(#d)"><path fill="none" stroke="#000" stroke-linecap="round" stroke-linejoin="round" stroke-miterlimit="10" stroke-width=".5" d="M147.14063 481.90625l-6.28125-3.15625"/></g><g clip-path="url(#e)"><path fill="none" stroke="#000" stroke-linecap="round" stroke-linejoin="round" stroke-miterlimit="10" stroke-width=".5" d="M160.16406 482.38281l-5.69922-4.10937"/></g><g clip-path="url(#f)"><path fill="none" stroke="#000" stroke-linecap="round" stroke-linejoin="round" stroke-miterlimit="10" stroke-width=".5" d="M173.41797 482.46875l-5.57422-4.27734"/></g><g clip-path="url(#g)"><path fill="none" stroke="#000" stroke-linecap="round" stroke-linejoin="round" stroke-miterlimit="10" stroke-width=".5" d="M186.60156 482.6289l-5.3125-4.60156"/></g><g clip-path="url(#h)"><path fill="none" stroke="#000" stroke-linecap="round" stroke-linejoin="round" stroke-miterlimit="10" stroke-width=".5" d="M200.45313 481.79297l-6.38672-2.92969"/></g><g clip-path="url(#i)"><path fill="none" stroke="#000" stroke-linecap="round" stroke-linejoin="round" stroke-miterlimit="10" stroke-width=".5" d="M213.77344 481.78516l-6.39453-2.91407"/></g><g clip-path="url(#j)"><path fill="none" stroke="#000" stroke-linecap="round" stroke-linejoin="round" stroke-miterlimit="10" stroke-width=".5" d="M226.61328 482.54688l-5.44531-4.4375"/></g><g clip-path="url(#k)"><path fill="none" stroke="#000" stroke-linecap="round" stroke-linejoin="round" stroke-miterlimit="10" stroke-width=".5" d="M238.23047 483.6914l-2.05078-6.72265"/></g><g clip-path="url(#l)"><path fill="none" stroke="#000" stroke-linecap="round" stroke-linejoin="round" stroke-miterlimit="10" stroke-width=".5" d="M251.09766 483.79297l-1.15625-6.92969"/></g><g clip-path="url(#m)"><path fill="none" stroke="#000" stroke-linecap="round" stroke-linejoin="round" stroke-miterlimit="10" stroke-width=".5" d="M261.0586 482.48047l5.55468-4.30078"/></g><g clip-path="url(#n)"><path fill="none" stroke="#000" stroke-linecap="round" stroke-linejoin="round" stroke-miterlimit="10" stroke-width=".5" d="M274.01563 481.91406l6.26953-3.16797"/></g><g clip-path="url(#o)"><path fill="none" stroke="#000" stroke-linecap="round" stroke-linejoin="round" stroke-miterlimit="10" stroke-width=".5" d="M274.92578 481.45313l-1-.70704"/></g><g clip-path="url(#p)"><path fill="none" stroke="#000" stroke-linecap="round" stroke-linejoin="round" stroke-miterlimit="10" stroke-width=".5" d="M287.46875 482.16406l5.99219-3.67187"/></g><g clip-path="url(#q)"><path fill="none" stroke="#000" stroke-linecap="round" stroke-linejoin="round" stroke-miterlimit="10" stroke-width=".5" d="M288.33984 481.6289l-1.05468-.62109"/></g><g clip-path="url(#r)"><path fill="none" stroke="#000" stroke-linecap="round" stroke-linejoin="round" stroke-miterlimit="10" stroke-width=".5" d="M300.32422 480.95313l6.91406-1.25"/></g><g clip-path="url(#s)"><path fill="none" stroke="#000" stroke-linecap="round" stroke-linejoin="round" stroke-miterlimit="10" stroke-width=".5" d="M301.32813 480.77344l-.75782-.96485"/></g><g clip-path="url(#t)"><path fill="none" stroke="#000" stroke-linecap="round" stroke-linejoin="round" stroke-miterlimit="10" stroke-width=".5" d="M313.78906 481.51563l6.61328-2.3711"/></g><g clip-path="url(#u)"><path fill="none" stroke="#000" stroke-linecap="round" stroke-linejoin="round" stroke-miterlimit="10" stroke-width=".5" d="M314.75 481.16797l-.90625-.82422"/></g><g clip-path="url(#v)"><path fill="none" stroke="#000" stroke-linecap="round" stroke-linejoin="round" stroke-miterlimit="10" stroke-width=".5" d="M327.17578 481.69922l6.47266-2.73828"/></g><g clip-path="url(#w)"><path fill="none" stroke="#000" stroke-linecap="round" stroke-linejoin="round" stroke-miterlimit="10" stroke-width=".5" d="M328.11719 481.30078l-.95313-.77344"/></g><g clip-path="url(#x)"><path fill="none" stroke="#000" stroke-linecap="round" stroke-linejoin="round" stroke-miterlimit="10" stroke-width=".5" d="M340.21484 480.1914l7.02344.27344"/></g><g clip-path="url(#y)"><path fill="none" stroke="#000" stroke-linecap="round" stroke-linejoin="round" stroke-miterlimit="10" stroke-width=".5" d="M341.23828 480.23047l-.53515-1.10547"/></g><g clip-path="url(#z)"><path fill="none" stroke="#000" stroke-linecap="round" stroke-linejoin="round" stroke-miterlimit="10" stroke-width=".5" d="M353.5664 480.84766l6.94923-1.03907"/></g><g clip-path="url(#A)"><path fill="none" stroke="#000" stroke-linecap="round" stroke-linejoin="round" stroke-miterlimit="10" stroke-width=".5" d="M354.57813 480.69531l-.73047-.98437"/></g><g clip-path="url(#B)"><path fill="none" stroke="#000" stroke-linecap="round" stroke-linejoin="round" stroke-miterlimit="10" stroke-width=".5" d="M367.66016 482.58203l5.39062-4.50781"/></g><g clip-path="url(#C)"><path fill="none" stroke="#000" stroke-linecap="round" stroke-linejoin="round" stroke-miterlimit="10" stroke-width=".5" d="M380.33984 481.4414l6.66407-2.22265"/></g><g clip-path="url(#D)"><path fill="none" stroke="#000" stroke-linecap="round" stroke-linejoin="round" stroke-miterlimit="10" stroke-width=".5" d="M381.3086 481.11719l-.89063-.84766"/></g><g clip-path="url(#E)"><path fill="none" stroke="#000" stroke-linecap="round" stroke-linejoin="round" stroke-miterlimit="10" stroke-width=".5" d="M393.47656 480.51563l7.01953-.375"/></g><g clip-path="url(#F)"><path fill="none" stroke="#000" stroke-linecap="round" stroke-linejoin="round" stroke-miterlimit="10" stroke-width=".5" d="M394.5 480.46094l-.63281-1.05078"/></g><g clip-path="url(#G)"><path fill="none" stroke="#000" stroke-linecap="round" stroke-linejoin="round" stroke-miterlimit="10" stroke-width=".5" d="M406.96875 481.4414l6.66406-2.22265"/></g><g clip-path="url(#H)"><path fill="none" stroke="#000" stroke-linecap="round" stroke-linejoin="round" stroke-miterlimit="10" stroke-width=".5" d="M407.9375 481.11719l-.88672-.84766"/></g><g clip-path="url(#I)"><path fill="none" stroke="#000" stroke-linecap="round" stroke-linejoin="round" stroke-miterlimit="10" stroke-width=".5" d="M420.3711 481.67578l6.49218-2.69531"/></g><g clip-path="url(#J)"><path fill="none" stroke="#000" stroke-linecap="round" stroke-linejoin="round" stroke-miterlimit="10" stroke-width=".5" d="M421.3164 481.28516l-.94921-.78125"/></g><g clip-path="url(#K)"><path fill="none" stroke="#000" stroke-linecap="round" stroke-linejoin="round" stroke-miterlimit="10" stroke-width=".5" d="M433.46094 480.8789l6.9414-1.09765"/></g><g clip-path="url(#L)"><path fill="none" stroke="#000" stroke-linecap="round" stroke-linejoin="round" stroke-miterlimit="10" stroke-width=".5" d="M434.47266 480.71875l-.73829-.98047"/></g><g clip-path="url(#M)"><path fill="none" stroke="#000" stroke-linecap="round" stroke-linejoin="round" stroke-miterlimit="10" stroke-width=".5" d="M446.99219 481.65234l6.50781-2.64843"/></g><g clip-path="url(#N)"><path fill="none" stroke="#000" stroke-linecap="round" stroke-linejoin="round" stroke-miterlimit="10" stroke-width=".5" d="M447.9375 481.26953l-.9414-.78906"/></g><g clip-path="url(#O)"><path fill="none" stroke="#000" stroke-linecap="round" stroke-linejoin="round" stroke-miterlimit="10" stroke-width=".5" d="M460.04688 480.36328l7.02734-.07031"/></g><g clip-path="url(#P)"><path fill="none" stroke="#000" stroke-linecap="round" stroke-linejoin="round" stroke-miterlimit="10" stroke-width=".5" d="M461.07031 480.35547l-.58594-1.07813"/></g><g clip-path="url(#Q)"><path fill="none" stroke="#000" stroke-linecap="round" stroke-linejoin="round" stroke-miterlimit="10" stroke-width=".5" d="M147.33203 468.13281l-6.66406-2.23828"/></g><path fill="none" stroke="#000" stroke-linecap="round" stroke-linejoin="round" stroke-miterlimit="10" stroke-width=".5" d="M147.33203 468.13281l.40234 2.41797m12.34766-1.375l-5.53516-4.32422m5.53516 4.32422l-.42578 2.41797m13.48828-2.125l-5.02734-4.91016m5.02734 4.91016l-.6875 2.35547m13.83594-2.19531l-4.69531-5.23047m4.6953 5.23047l-.84374 2.30468m13.95703-2.13672l-4.29297-5.5664m4.29297 5.5664l-1.01172 2.23438m14.5586-2.4336l-4.75782-5.16796m4.75781 5.16797l-.8125 2.3164m14.52344-2.7461l-5.54687-4.30859m4.74219 3.6836l-.21094 1.20703m14.4414-.73047l-5.76953-4.01172m4.92969 3.42969l-.14453 1.21484m14.27734-.59765l-5.72265-4.08203m17.24609 5.38672l-2.14453-6.69141m17.77344 2.40625l-6.76954 1.8789m17.72266-.9375l-.01953-.20312-.0586-.1914-.09374-.17579-.46094-.375-.1914-.0586-.19923-.01952-.19921.01953-.19141.0586-.45703.375-.09766.17577-.05469.19141-.01953.20313.01953.19921.0547.19141.09765.17578.45703.375.1914.0586.19922.01953.19922-.01953.1914-.0586.46095-.375.09375-.17578.05859-.1914.01953-.19923m8.83594.6211l6.91406-1.2461m6.64453 2.04297l6.42578-2.83984m-5.49218 2.42578l-.96485-.75781m13.1836.72266l6.7539-1.9375m-5.77343 1.65234l-.85157-.88281m13.16016-.6797l6.80469 1.75391m-5.81641-1.5l-.28516-1.1914m13.1875-.27344l5.65235 4.17578m-4.82813-3.57031l.17969-1.21094m11.63672 3l7-.61328m-5.98047.52344l-.66797-1.02735m13.28516 2.3086l6.35937-2.9961m-5.4336 2.5586l-.98437-.73438m13.0547.00391l6.99609-.66016m-5.97657.5625l-.67578-1.02343m13.29297 2.28906l6.35547-2.9961m-6.35547 2.9961l-1.96875-1.46875m15.70313 2.14844l5.51562-4.35547m-4.71484 3.72265l-1.1211-.49218m13.375.75l6.03516-3.60547m-5.15625 3.08203l-1.05078-.63672M448 469.71485l4.4961-5.40235m-3.84376 4.61719l-1.19921-.2539m14.08203 1.20702l4.05468-5.73828m-3.46484 4.90234l-1.21875-.15234"/><g clip-path="url(#R)"><path fill="none" stroke="#000" stroke-linecap="round" stroke-linejoin="round" stroke-miterlimit="10" stroke-width=".5" d="M146.66797 455.98438l-5.33594-4.57422"/></g><path fill="none" stroke="#000" stroke-linecap="round" stroke-linejoin="round" stroke-miterlimit="10" stroke-width=".5" d="M145.89063 455.32031l-.26954 1.19922m13.92578-.10937l-4.46484-5.42578m3.8164 4.63671l-.46874 1.13282m14.05469-.07032l-3.70704-5.96875m3.70703 5.96875l-1.23437 2.1211m14.40234-2.03516l-3.41406-6.14062m3.41406 6.14062l-1.33203 2.0586m14-1.78126l-2.1211-6.69921m1.8125 5.72656l-.85937.875m15.45313-.38281l-4.0586-5.73438m3.46875 4.89844l-.55078 1.09765m14.66407-.42187l-4.47657-5.41797m3.82422 4.6289l-.46875 1.13673m13.41406.24218l-2.43359-6.59375m2.08203 5.63282l-.8164.91406m13.02734.2539l.48047-7.0078m12.1914 6.90234l1.76563-6.80079m15.85938 4.17579l-6.85547-1.54688m19.76562-1.01953l-6.04297 3.58594m5.16407-3.0664l1.04687.63671m12.01563-2.32422l-3.78125 5.92188m3.23046-5.0625l1.22266.09765m10.11719-1.45312l1.26953 6.91015m12.96484-6.95703l-.5664 7.0039m.48437-5.98437l1.125-.48437m10.64063-.27735l2.6953 6.4922m-2.30468-5.54688l.78125-.94922m11.57031.3086l3.83985 5.8828m-3.28125-5.02734l.59375-1.07422m10.79297 1.92969l6.58203 2.46094m6.51172-1.07032l7.01953-.3203m-5.9961.27343l-.625-1.05469m13.00782.14063l6.83984 1.60156m-5.84375-1.36719l-.3164-1.1875m12.5664 1.32813l6.97656.84765m-5.96093-.72265l-.44141-1.14453m12.85547 2.42187l6.75-1.95312m-5.76953 1.66796l-.85157-.8789m13.2461 1.34765l6.6289-2.32421m-5.66406 1.98828l-.90234-.83203m13.44922 1.6289l6.23437-3.24219m-5.32812 2.76954l-1.00782-.69532m14.40625 2.33985l4.25782-5.58985m-3.64063 4.77735l-1.21094-.19922"/><g clip-path="url(#S)"><path fill="none" stroke="#000" stroke-linecap="round" stroke-linejoin="round" stroke-miterlimit="10" stroke-width=".5" d="M144.6289 443.83984l-1.2578-6.91406"/></g><g clip-path="url(#T)"><path fill="none" stroke="#000" stroke-linecap="round" stroke-linejoin="round" stroke-miterlimit="10" stroke-width=".5" d="M144.44531 442.83594l-.96094.75781"/></g><path fill="none" stroke="#000" stroke-linecap="round" stroke-linejoin="round" stroke-miterlimit="10" stroke-width=".5" d="M156.09375 443.67969l2.4414-6.58985m-2.08593 5.62891l-1.21484.16406m14.5703.91406l1.65235-6.82812m-1.41406 5.83594l-1.1875.30469m15.17969.78515l-.1797-7.02344m.15235 6.00391l-1.0664.60156m13.52343.32813l1.58985-6.84375m-1.35938 5.84765l-1.1836.31641m13.6211.46484l2.88281-6.41015m-2.46093 5.47656l-1.22656.08203m14.47265.98438l2.17969-6.6797m-1.86328 5.70704l-1.20703.21094m12.6953-.21485l5.19923-4.72656m-4.4414 4.03906l-1.15626-.41406m14.10938 1.47266l4.41015-5.46875m-3.76953 4.67578l-1.20312-.23438m14.01562 1.13672l4.13281-5.6875m-3.53125 4.85938l-1.21484-.17188m13.61328.74219l4.76172-5.17188m-4.0664 4.41797l-1.1875-.30859m12.8789-.34766l6.6211-2.35156m12.0078-1.71094l-4.0078 5.77344m15.94921-6.34375l-1.26172 6.91406m13.66797-6.95703l.55469 7.0039m10.89063-6.28515l4.29296 5.5625m-3.66796-4.7539l.5078-1.1172m11.82032.63282l5.01953 4.91797m9.25781.69531l3.09766-6.3086m-2.64844 5.39063l-1.22656.03907m12.23438-1.41797l6.8125-1.71875m6.97265-1.07422l5.8711 3.86719m-5.01563-3.3047l.11328-1.21874m11.80469 2.09765l6.95703.98438m-6.95703-.98438l-.83985-2.30468m14.23438 3.69531l6.79297-1.79688m-6.79297 1.79688l-1.66797-1.79688m15.01953 1.91797l6.72266-2.03906m-6.72266 2.03906l-1.73047-1.73828m15.17579 2.09766l6.46484-2.7539m-6.46485 2.7539l-1.91015-1.54297m15.64453 2.26953l5.625-4.21094m-4.8086 3.59766l-1.10937-.51953"/><g clip-path="url(#U)"><path fill="none" stroke="#000" stroke-linecap="round" stroke-linejoin="round" stroke-miterlimit="10" stroke-width=".5" d="M145.32813 430.32031l-2.65625-6.5039"/></g><g clip-path="url(#V)"><path fill="none" stroke="#000" stroke-linecap="round" stroke-linejoin="round" stroke-miterlimit="10" stroke-width=".5" d="M144.9414 429.375l-.78124.9414"/></g><path fill="none" stroke="#000" stroke-linecap="round" stroke-linejoin="round" stroke-miterlimit="10" stroke-width=".5" d="M157.57031 430.57422l-.51172-7.01172m.4375 5.99219l-1.03906.65234m12.1289-.28125l4.08595-5.71484m-3.4922 4.88281l-1.21484-.16016m13.19922.28125l5.5625-4.29296m-4.7539 3.66796l-1.1172-.5078m13.23438.5l6.34375-3.02735m-5.42187 2.58594l-.98438-.73047m13.4297 1.27734l6.23437-3.23828m-5.32813 2.76953l-1.00781-.69922m13.45312 1.23828l6.16407-3.3789m-5.26563 2.88672l-1.02734-.67188M234 428.50781l6.41016-2.8789M234 428.5078l-1.9375-1.5039m15.63672 2.16015l5.64062-4.1914m-5.64062 4.1914l-2.21484-1.05468m16.48437 1.9375l3.73047-5.95704m-3.73047 5.95704l-2.44531-.17579m15.64062.09766l3.97266-5.80078m-3.97266 5.80078l-2.4375-.27344m15.14844-.2539l5.17969-4.7461M288.6289 428.75l-1.15625-.40625m19.36718.44922l-6.12109-3.44922m14.64844-1.33203l3.45703 6.11328m8.09765-2.64062l6.97657-.83204m-5.96094.71094l-.69922-1.00781m13 .28516l6.97656.85546m-5.96093-.73046l-.44141-1.14844m12.77734 2.10156l6.90235-1.30078m-5.89844 1.11328l-.76563-.96094m13.39844 2.09375l6.26172-3.1914m-5.35156 2.72656l-1.0039-.70313m13.09765-1.14062l6.88281 1.42578m-5.88281-1.21875l-.34375-1.17578m15.64844-1.80078l.90234 6.96484m-.90234-6.96484l2-1.42188m8.47265 3.67969l6.58594 2.44922m-5.6289-2.09375l-.16016-1.21484m12.53515 3.35546l6.55078-2.54296m-5.59765 2.17187l-.92969-.80078m13.08984.38672l6.95704-.97266m-6.95704.97266l-1.4414-1.98438m15.01172 2.90235l6.44531-2.8086m-6.44531 2.8086l-1.91797-1.52735m15.26562 1.59766l6.37891-2.94922m-5.44922 2.51953l-.97656-.74219"/><g clip-path="url(#W)"><path fill="none" stroke="#000" stroke-linecap="round" stroke-linejoin="round" stroke-miterlimit="10" stroke-width=".5" d="M145.84766 416.74219l-3.69532-5.97656"/></g><path fill="none" stroke="#000" stroke-linecap="round" stroke-linejoin="round" stroke-miterlimit="10" stroke-width=".5" d="M145.3086 415.8711l-.6172 1.0625m13.82813.12109l-2.41016-6.60157m15.16407 6.75391l-1.28516-6.90625m1.09766 5.90234l-.96094.76563m12.45313.02344l2.73437-6.47657m-2.33594 5.53125l-1.22265.10938m13.07422.13281l4.86328-5.07031m-4.15625 4.33203l-1.1797-.33203m12.76173-.83594l6.91406-1.25781m-5.90625 1.07422l-.76172-.96485m13.26563 1.82422l6.52343-2.60937m-6.52343 2.60937l-1.875-1.58203m15.14453 1.46485l6.61328-2.375m-6.61328 2.375l-1.8164-1.64844m16.35155 3.28906l4.17188-5.65625m-3.5625 4.83203l-1.21484-.17969m13.85156.94922l4.3125-5.54687m-3.6875 4.73828l-1.20703-.21094m13.14062.21485l5.82422-3.9375m-5.82422 3.9375l-2.16797-1.15235m15.45703 1.10938l5.875-3.85157m-5.01953 3.29297l-1.07422-.58984m17.4961-.77734l-.01953-.19922-.0586-.1914-.09375-.1797-.46093-.375-.19141-.05859-.19922-.01953-.19922.01953-.1914.0586-.46094.375-.09375.17968-.0586.1914-.01953.19923.01953.19921.0586.19141.09375.17578.46094.3789.1914.0586.19922.01953.19922-.01953.1914-.0586.46094-.3789.09375-.17578.0586-.1914.01953-.19922m11.25781-3.35938l2.0664 6.71875m9.6797-5.72266l5.20312 4.72266m-4.44531-4.03516l.30078-1.1875m11.94531.90235l5.82813 3.92187m-4.98047-3.35156l.125-1.22266m12.26172.77344l5.98828 3.67969m-5.1172-3.14453l.07813-1.22266m11.89844 3.11719l6.92578-1.1836m-5.91797 1.01172l-.75-.96875m13.5586-1.34375l5.91797 3.78907m-5.0547-3.23828l.09767-1.22266M393.5 413.3086l6.97266.89062m-5.95703-.76172l-.4336-1.14844m18.63281-1.08984l-4.82421 5.10937m4.12109-4.36718l1.1836.32421m10.66015-2.01562l-.48047 7.00781m12.41016-6.82422l2.29297 6.64063m-1.95704-5.67578l.83594-.89844m9.86328 4.02344l6.85547-1.53907m-5.85937 1.31641l-.80078-.92969m13.12109-.39453l6.85156 1.55469m-5.85547-1.32813l-.32031-1.1875"/><g clip-path="url(#X)"><path fill="none" stroke="#000" stroke-linecap="round" stroke-linejoin="round" stroke-miterlimit="10" stroke-width=".5" d="M147.51172 400.3711l-7.02344.1328"/></g><path fill="none" stroke="#000" stroke-linecap="round" stroke-linejoin="round" stroke-miterlimit="10" stroke-width=".5" d="M154.1211 401.90625l6.38671-2.9375m6.7461.5l6.7539 1.9375m6.42578-.92578l7.02344-.08594m-6.0039.07422l-.58985-1.07813m12.91016 1.4961l6.97265-.89453m-5.95703.76172l-.70703-1m12.99219.40625l7.0039.55468m-7.0039-.55468l-.98047-2.25m14.28516 2.37109l7.02343.3125m-7.02343-.3125l-1.05078-2.21484m14.5625 1.21093l6.6328 2.32032m-5.66796-1.98047l-.1875-1.21485m12.8086 3.78907l6.08984-3.50391m-6.08985 3.5039l-2.08203-1.30468m15.73828 1.79687l5.40625-4.48828m-4.6211 3.83594l-1.1328-.46875m15.62109 2.3086l1.48828-6.8672m-1.27344 5.8672l-1.17968.33593m15.875.64063l-1.69922-6.82032m17.02344 5.45313l-5.71875-4.08594m4.88671 3.49219l-.16406 1.21484m14.92969-2.17578l-6.95703-.97265m5.94531.82812l.42188 1.15234m13.79687-2.49218l-6.73828 1.99609m6.73828-1.9961l1.71875 1.75m11.38672-2.28906l-6.32031 3.07422m6.3203-3.07422l1.98048 1.44141m11.53906-.91797l-6.73047 2.02344m5.75-1.72656l.86328.87109m12 2.77734l-3.86718-5.86718m3.30468 5.01562l-.58984 1.07422m15.33984-5.27344l-5.60937 4.23438m4.79297-3.61719l1.11328.51563m12.85156-1.33594l-5.27734 4.64453m5.27734-4.64453l2.29297.86328m10.49219-1.35156L408.1914 403.25m3.60547-4.80469l1.21093.1875m11.26953-1.64453l-1.32421 6.90235m1.1328-5.89844l1.17188-.36328m12.71094-.54688l-2.07422 6.71485m1.77344-5.73829l1.20312-.23046m13.21875-.38282l-3.68359 5.98438m3.14844-5.11328l1.22265.07812m10.13282-1.41015l1.30468 6.90625"/><g clip-path="url(#Y)"><path fill="none" stroke="#000" stroke-linecap="round" stroke-linejoin="round" stroke-miterlimit="10" stroke-width=".5" d="M144.07422 383.60938l-.14844 7.02734"/></g><g clip-path="url(#Z)"><path fill="none" stroke="#000" stroke-linecap="round" stroke-linejoin="round" stroke-miterlimit="10" stroke-width=".5" d="M144.05469 384.63281l1.09375-.55078"/></g><path fill="none" stroke="#000" stroke-linecap="round" stroke-linejoin="round" stroke-miterlimit="10" stroke-width=".5" d="M157.08984 383.61719l.44922 7.01172m11.3711-6.57032l3.4375 6.12891m-2.9375-5.23828l.66406-1.03125m10.79687 1.5039l6.14844 3.40235m-5.2539-2.90625l.01953-1.22656m12.0625 1.59765l6.82422 1.66797m-6.82422-1.66797l-.60547-2.375m14.04297 1.98047l6.58203 2.45703m-6.58203-2.45703l-.32032-2.4336m1.27735 2.78907l-.16016-1.21484m12.38281 1.30078l6.84766 1.57812m-6.84766-1.57812l-.6328-2.3711m1.6289 2.59766l-.3164-1.1836m12.60937 1.08204l6.90234 1.32422m-6.90234-1.32422l-.72266-2.34766m14.76953 5.23438l5.4414-4.44922m-5.4414 4.44922l-2.26172-.94922m18.67969 2.21875l-.76563-6.98828m.65625 5.96875l-1.01562.6914m16.65625-.80078l-5.19922-4.73047m5.19922 4.73047l-.60547 2.3789m-.15234-3.0664l-.30078 1.1875m15.125-1.80469l-6.69922-2.12109m6.69922 2.1211l.4453 2.41015m-1.42187-2.71875l.44532 2.41016m13.73047-1.79297l-6.47266-2.73828m6.47266 2.73828l.21875 2.44531m-1.16016-2.84375l.21875 2.44531m14.22266-2.60937l-6.83985-1.60938m6.83985 1.60938l.625 2.3711m-1.6211-2.60548l.3125 1.1836m13.875-2.97657l-6.58984 2.44141m6.58984-2.4414l1.83203 1.6328m-2.79297-1.27734l.91797.8164m13.3086-1.29687l-6.4922 2.69532m6.4922-2.69532l1.89453 1.5586m11.65625-.67188l-6.96485.92188m6.96485-.92188l1.42578 1.9961m11.66406-2.85157l-6.51562 2.62891m6.51562-2.6289l1.8789 1.57421m10.51954-2.8789l-4.67969 5.23828m4.67969-5.23828l2.38281.58203m11.02735-.49219l-4.8711 5.0625m4.8711-5.0625l2.35937.67188m-3.0664.0625l1.17968.33593m12.65625-1.23828l-4.5 5.39844m4.5-5.39844l2.40235.5m-3.0586.28516l1.20313.25m11.79297-1.61328l-2.54688 6.55078m2.54688-6.55078l2.4375-.28516m7.89843.48828l3.41016 6.14453m-2.91406-5.25l.66797-1.03125m16.35546.74219l-5 4.9336m4.27344-4.21485l1.17188.36328m13.82812.76953l-6.91797 1.23047m5.91407-1.05078l.7539.96484"/><g clip-path="url(#aa)"><path fill="none" stroke="#000" stroke-linecap="round" stroke-linejoin="round" stroke-miterlimit="10" stroke-width=".5" d="M140.5 373.52344l7 .57031"/></g><path fill="none" stroke="#000" stroke-linecap="round" stroke-linejoin="round" stroke-miterlimit="10" stroke-width=".5" d="M153.8086 374.05469l7.01171-.4961m-5.98828.42579l-.65234-1.03907m14.03906-1.6914l4.82422 5.10937m-4.1211-4.36719l.39063-1.16015m13.60547-.38672l2.05469 6.71875m-2.0547-6.71875l1.73438-1.73438m10.58203 2.22266l4.05079 5.74219m-4.05078-5.74219l1.10546-2.1914m-.51562 3.02734l.55469-1.09766m11.04297 1.58203l6.30468 3.10156m-6.30469-3.10156l-.07421-2.45312m13.33203 5.4336l6.41797-2.85938m6.63672 1.96484l6.9414-1.07422m-5.9336.91797l-.73437-.98047m19.1914 2.8711l-5.35937-4.54297m5.35938 4.54296l-.51953 2.39844m13.41797-1.98047l-4.52344-5.3789m4.52344 5.3789l-.91797 2.27735m.25781-3.0586l-.45703 1.13672m14.67969-.58203l-5.01563-4.92187m5.01563 4.92187l-.69922 2.35156m-.03125-3.0664l-.34766 1.17578m15.11719-1.55078l-6.46875-2.7461m6.46875 2.7461l.21484 2.44531m13.0625-2.35547l-6.39062-2.92187m6.39062 2.92187l.14453 2.44922m13.2461-2.625l-6.54297-2.57031m6.54297 2.57031l.27734 2.4375m13.13672-4.71094l-6.74219 1.97656m6.74219-1.97656l1.71484 1.7539m-2.6953-1.46874l.85937.8789m13.2578-1.64843l-6.3828 2.9414m6.3828-2.9414l1.95313 1.48828m-2.8828-1.0586l.97655.7422m13.2422-1.22657l-6.33204 3.05078m6.33203-3.05078l1.97656 1.45313m11.5-1.0586l-6.65234 2.26563m6.65234-2.26563l1.78907 1.67969m11.46875-1.83594l-6.53907 2.57813m6.53907-2.57813l1.86328 1.59375m11.15234-2.17969l-5.9414 3.75m5.9414-3.75l2.13281 1.21485m-2.99609-.67188l1.0625.60938m12.60547-1.78516l-4.92188 5.01563m4.92188-5.01563l2.35156.69531m-3.0664.03516l1.17578.34766m12.61328-1.29297l-4.4414 5.44531m4.4414-5.44531l2.40625.47656m-3.05078.3164l1.20312.23829m12.8164-.98438l-4.55859 5.35156m4.5586-5.35156l2.39453.52735m11.92187.88671l-6.55859 2.52344m5.60156-2.15625l.92969.80469m13.28906 1.47656l-6.45703-2.77344m6.45703 2.77344l.20313 2.44531"/><g clip-path="url(#ab)"><path fill="none" stroke="#000" stroke-linecap="round" stroke-linejoin="round" stroke-miterlimit="10" stroke-width=".5" d="M140.89063 362.13281l6.21875-3.27734"/></g><path fill="none" stroke="#000" stroke-linecap="round" stroke-linejoin="round" stroke-miterlimit="10" stroke-width=".5" d="M154.72266 362.86328l5.18359-4.74219m-5.1836 4.7422l-2.3125-.82032m14.94141-2.8164l6.55469 2.53515m-5.59766-2.16797l-.14843-1.21875m15.60156-1.39063L184.1289 364m-.3672-7.01563l2.10157-1.26171m9.48047 1.82421l3.83203 5.89063m-3.83203-5.89063l1.1875-2.14453m15.09375 1.73829l-2.09766 6.70703m1.79297-5.73047l1.20313-.22656m14.85156 3.0625l-6.96875-.91797m19.05078 3.15625l-4.5039-5.39454m4.5039 5.39454l-.92578 2.27343m15.32422-3.86718l-6.67188-2.20704m6.67188 2.20704l.41406 2.41796m-1.38281-2.74218l.20703 1.21094m12.11719 1.24218l-2.75-6.46875m2.75 6.46875l-1.54688 1.90625m1.14453-2.84765l-.76953.95312m14.14453.11328l-2.0664-6.71875m2.0664 6.71875l-1.73437 1.73828m1.4336-2.71484l-.8672.86719m15.38282-.3164l-3.86719-5.8672m3.30469 5.01563l-.58594 1.07422m14.70312-.39453l-4.34375-5.52344m4.34375 5.52344l-.99218 2.24609m14.0625-2.07031l-3.85547-5.875m3.85547 5.875l-1.17969 2.15234m16.02344-4.45312l-6.91016-1.27344m6.91016 1.27344l.73828 2.33984m12.63281-2.90625l-7.02344-.13672m7.02344.13672l1.10938 2.1875m-2.13282-2.20703l.5547 1.09375m13.77733-1.35547l-7.01171.42188m7.01171-.42188l1.28125 2.09375m12.03516-2.0625l-7.01562.35938m7.01562-.35938l1.26172 2.10547m11.95312-2.77735l-6.8164 1.70313m6.8164-1.70313l1.64454 1.82422m11.15234-2.97265l-5.77734 4.0039m5.77734-4.0039l2.17969 1.125m10.3789-1.91406l-4.26562 5.58203m4.26562-5.58204l2.42188.39844m11.71875.4961l-5.91797 3.78906m5.91797-3.78906l2.14062 1.20312m-3-.65234l1.07032.60156m13.24609-.91016l-6.19922 3.3086m6.19922-3.3086l2.03516 1.3711m-2.9375-.89063l1.01953.6836m13.61328.45703l-7.02735.0625m7.02735-.0625l1.16797 2.15625m-2.1914-2.14453l.58593 1.07812m13.67969-.34765l-6.88282-1.42188m6.88282 1.42188l.6875 2.35546"/><g clip-path="url(#ac)"><path fill="none" stroke="#000" stroke-linecap="round" stroke-linejoin="round" stroke-miterlimit="10" stroke-width=".5" d="M141.9961 350.0625l4.0078-5.76953"/></g><path fill="none" stroke="#000" stroke-linecap="round" stroke-linejoin="round" stroke-miterlimit="10" stroke-width=".5" d="M155.1289 349.92969l4.3711-5.5039m-4.3711 5.5039l-2.41015-.44531m3.04688-.35547l-2.41407-.44532m13.82031-.875l6.91407-1.26171m-5.90625 1.07812l-.76172-.96094m17.21484-2.92969l-1.375 6.89063m1.375-6.89063l2.35156-.70703m11.52735.8672l-2.5039 6.5664m2.14062-5.60938l1.21484-.15234m14.34766 4.0625l-6.27344-3.16406m5.36328 2.70312l.02734 1.22656m14.15625-4.01562l-6.1875 3.33203m6.1875-3.33203l2.04297 1.36328m11.6875.10938l-7.01562.38671m7.01562-.38671l1.26953 2.09765m12.02735-2.3086l-6.98047.8086m6.98047-.8086l1.39453 2.01954m-2.41016-1.90235l.69532 1.01172m13.63672-1.10546l-6.98438.76171m6.98438-.76171l1.3828 2.02734m-2.39843-1.91797l1.3789 2.02734m12.14844.50391l-5.3789-4.51953m4.59765 3.86328l-.2578 1.19922m10.38671.47265l2.55469-6.54687m-2.55469 6.54688l-2.4375.28515m17.1289-.04687l-.19921-7.02735m.19922 7.02735l-2.13282 1.21093m15.48047-1.21484l-.26172-7.01953m.26172 7.01953l-2.1211 1.23438m17.66407-2.13672l-4.71484-5.21094m4.71484 5.21094l-.83594 2.30468m14.87891-3.23437L340.63672 345.5m6.17578 3.35547l-.01953 2.45312m13.5625-2.96484l-6.6289-2.33203m6.6289 2.33203l.36719 2.42578m-1.33203-2.76562l.18359 1.21484m14.21094-1.27344l-6.85938-1.53515m6.85938 1.53515l.65234 2.36328m-1.64844-2.58593l.32422 1.18359m14.0664-1.9336l-7.01562.41407m7.01563-.41406l1.27734 2.09375m12.01172-2.35157l-6.96484.92579m5.95312-.78907l.71094.9961m13.22266-2.34375l-6.1797 3.34765m6.1797-3.34765l2.04687 1.35937m11.04297-1.71875l-5.73047 4.0664m5.73047-4.0664l2.19531 1.10156m11.48438-.45703l-6.45703 2.77735m6.45703-2.77735l1.91406 1.53906m-2.85547-1.1328l.95703.76562m13.58203.08594l-7.02343.26171m7.02343-.26171l1.23438 2.12109m-2.25781-2.08203l1.23437 2.1211m13.10156-2.21095l-7.01562.36329"/><g clip-path="url(#ad)"><path fill="none" stroke="#000" stroke-linecap="round" stroke-linejoin="round" stroke-miterlimit="10" stroke-width=".5" d="M467.07031 346.9961l1.26172 2.10546"/></g><path fill="none" stroke="#000" stroke-linecap="round" stroke-linejoin="round" stroke-miterlimit="10" stroke-width=".5" d="M466.05078 347.05078l.6289 1.05078"/><g clip-path="url(#ae)"><path fill="none" stroke="#000" stroke-linecap="round" stroke-linejoin="round" stroke-miterlimit="10" stroke-width=".5" d="M144.04688 337.375l-.09375-7.02344"/></g><g clip-path="url(#af)"><path fill="none" stroke="#000" stroke-linecap="round" stroke-linejoin="round" stroke-miterlimit="10" stroke-width=".5" d="M144.04688 337.375l-2.15235 1.17969"/></g><path fill="none" stroke="#000" stroke-linecap="round" stroke-linejoin="round" stroke-miterlimit="10" stroke-width=".5" d="M155.70313 336.98438l3.22265-6.2422m-3.22266 6.2422l-2.45312.03125m2.92188-.9375l-2.45313.02734m13.88281-.46094l6.0586-3.5625m-5.17578 3.04297l-1.04688-.64063m16.42578-4.1328l.16406 7.02343m-.14062-6.0039l1.07031-.59766m15.79688 3.46484l-6.98828-.75m6.98828.75l.91406 2.27735m11.41797-.19141l-5.01953-4.92188m5.01953 4.92188l-.69531 2.35156m-.03516-3.07031l-.34766 1.17969m15.34766-2.34375l-6.92969-1.15625m6.92969 1.15625l.78125 2.32421m-1.78906-2.49218l.39062 1.16406m13.97266-1.82031l-7.01172.49219m7.01172-.4922l1.30078 2.08204m-2.32031-2.00781l.64843 1.03906m13.10547-2.8164l-5.84765 3.89843m5.84765-3.89844l2.16016 1.16406m10.72266-1.6914l-4.98438 4.95312m4.98438-4.95312l2.34375.72656m10.80468-.88281l-4.65234 5.26562m4.65234-5.26562l2.38672.57031m10.92969-.57031l-4.65625 5.26172m3.98047-4.4961l1.1914.28907m8.92578 4.73437l3.09375-6.3125m-3.09375 6.3125l-2.45312.07813m15.91016-.01172l2.80859-6.44531m-2.8086 6.4453l-2.4453.19141m2.85546-1.1289l-1.22265.09375m15.70312 1.1289l-.33984-7.01562m.33984 7.01562l-2.10937 1.25782m17.13671-1.80079l-3.76562-5.93359m3.76562 5.9336l-1.21484 2.13671m15.51172-3.0703l-5.73047-4.06642m5.73047 4.06641l-.3125 2.4336m-.51953-3.02344l-.16016 1.21484m14.84766-1.79687l-6.8125-1.71875m6.8125 1.71875l.58984 2.3828m-1.57812-2.6328l.29297 1.1914m14.10156-2.15625l-6.99219.71094m6.99219-.71094l1.36328 2.03516m11.9336-1.1875l-6.95704-.98828m5.94531.84765l.41797 1.15235m13.28125.54687l-5.70312-4.10156m4.875 3.5039l-.16406 1.21876m14.80468-3.7422l-6.6953 2.14063m5.71874-1.82812l.8789.85547m13.26173-1.5586l-6.39454 2.92188m6.39454-2.92188l1.9453 1.4922m11.625-.6836l-6.90624 1.30469m6.90625-1.3047l1.53515 1.91407m11.60938-2.51172l-6.5664 2.5"/><g clip-path="url(#ag)"><path fill="none" stroke="#000" stroke-linecap="round" stroke-linejoin="round" stroke-miterlimit="10" stroke-width=".5" d="M466.84375 332.61328l1.84766 1.61328"/></g><path fill="none" stroke="#000" stroke-linecap="round" stroke-linejoin="round" stroke-miterlimit="10" stroke-width=".5" d="M465.89063 332.97656l.92187.8086"/><g clip-path="url(#ah)"><path fill="none" stroke="#000" stroke-linecap="round" stroke-linejoin="round" stroke-miterlimit="10" stroke-width=".5" d="M147.05469 322.28516l-6.10938-3.47657"/></g><path fill="none" stroke="#000" stroke-linecap="round" stroke-linejoin="round" stroke-miterlimit="10" stroke-width=".5" d="M147.05469 322.28516l-.07031 2.45312m8.125-1.45312l4.41015-5.47266m-4.41016 5.47266l-2.41015-.46485m14.71094-.8711l6.4414-2.80468m-6.4414 2.80469l-1.92188-1.52735m18.73438-3.375l-.5547 7.00391m.47267-5.98437l1.125-.4922m14.66406 5.25782l-5.33985-4.5664m5.33985 4.5664l-.53125 2.39453m14.0664-2.67969l-5.77734-4m5.77734 4l-.28515 2.4375m-.55469-3.01953l-.14453 1.21875m14.42969-.83593l-6.03907-3.59766m6.03907 3.59766l-.1211 2.44921m-.75781-2.97265l-.0625 1.22265m14.75-2.375l-7.02344-.24609m7.02344.2461l1.07422 2.20703m11.71875-4.17188l-5.98438 3.6836m5.98438-3.6836l2.11719 1.24219m9.82422-2.51953l-3.23829 6.23828m2.76953-5.33203l1.22657-.01172m10.9414-1.28906v7.02734m0-6.0039l1.08203-.57813m11.88282-.42969l.69922 6.99219m-.69922-6.99219l2.03906-1.35937m13.33984 1.78906l-3.42968 6.13281m2.92968-5.23828l1.22657.02344m9.52343 5.39453l2.69922-6.48828m-2.69922 6.48828l-2.4453.22656m2.83593-1.17187l-1.21875.11328m15.01953 1.07031l.94531-6.96484m-.94531 6.96484l-2.30078.84766m2.4375-1.86329l-1.14844.42579m14.6836.61718l.23046-7.02343m-.23046 7.02343l-2.20313 1.08204m2.23828-2.10157l-1.10156.53906m15.3164.38672l-1.63671-6.83593m1.63672 6.83593l-1.83985 1.625m17.69531-4.0039L367 319.51172m5.73438 1.77344l.23437 1.20312m14.08594-1l-6.76953-1.8789m5.78515 1.60546l.26563 1.19922m14.08984-2.57812l-6.8789 1.42578m5.8789-1.21875l.78516.94531m8.11719 2.46485l3.9453-5.8125m10.96485 6.40234l.75781-6.98828m-.64843 5.96875l-1.13672.45703m16.57422.05078l-3.70703-5.96875m3.16796 5.10156l-.61718 1.0625m15.61328-5.01562L447.25 322.3828m5.99219-3.67187l2.11328 1.2461m10.95312-1.60157l-5.49218 4.38281"/><g clip-path="url(#ai)"><path fill="none" stroke="#000" stroke-linecap="round" stroke-linejoin="round" stroke-miterlimit="10" stroke-width=".5" d="M466.3086 318.35547l2.25.97656"/></g><path fill="#ff3030" fill-rule="evenodd" d="M348.98828 441.01953h7.6914V430.8711h-7.6914v10.14844"/><path fill="azure" fill-rule="evenodd" d="M350.82031 432.70703h.83203v5.73828h3.19532v.73828h-4.02735v-6.47656"/><path fill="#00f" fill-rule="evenodd" d="M388.23828 432.14063h8.61719v-10.14454h-8.61719v10.14454"/><path fill="azure" fill-rule="evenodd" d="M390.07031 423.82813h.83594v2.82421h3.28516v-2.82421h.83203v6.48046h-.83203v-2.91796h-3.28516v2.91796h-.83594v-6.48046"/><path fill="#00f" fill-rule="evenodd" d="M219.58203 414.38672h8.61719v-10.14453h-8.61719v10.14453"/><path fill="azure" fill-rule="evenodd" d="M221.41406 406.07422h.83203v2.82422h3.28907v-2.82422h.83203v6.48047h-.83203v-2.91406h-3.28907v2.91406h-.83203v-6.48047"/><path fill="#ff3030" fill-rule="evenodd" d="M344.55078 405.51172h7.6914v-10.14453h-7.6914v10.14453"/><path fill="azure" fill-rule="evenodd" d="M346.38281 397.19922h.83203v5.73828h3.19532v.74219h-4.02735v-6.48047"/><path fill="#00f" fill-rule="evenodd" d="M370.48438 401.07422h8.62109v-10.14844h-8.6211v10.14844"/><path fill="azure" fill-rule="evenodd" d="M372.3164 392.76172h.83594v2.82031h3.28516v-2.82031h.83203v6.47656h-.83203v-2.91406h-3.28516v2.91406h-.83593v-6.47656"/><path fill="#00f" fill-rule="evenodd" d="M197.39063 392.19531h8.61718v-10.14453h-8.61719v10.14453"/><path fill="azure" fill-rule="evenodd" d="M199.22266 383.88281h.83203v2.82422h3.28515v-2.82422h.83594v6.48047h-.83594v-2.91406h-3.28515v2.91406h-.83203v-6.48047"/><path fill="#ff3030" fill-rule="evenodd" d="M260.21875 374.4414h7.69531v-10.14452h-7.69531v10.14453"/><path fill="azure" fill-rule="evenodd" d="M262.05469 366.1289h.83203v5.7422h3.19531v.73827h-4.02734v-6.48046"/><path fill="#ff3030" fill-rule="evenodd" d="M220.27734 352.25h7.69141v-10.14453h-7.6914V352.25"/><path fill="azure" fill-rule="evenodd" d="M222.10938 343.9375h.83203v5.73828h3.1953v.74219h-4.02733v-6.48047"/><path fill="#00f" fill-rule="evenodd" d="M374.92188 330.0586h8.62109v-10.14454h-8.6211v10.14453"/><path fill="azure" fill-rule="evenodd" d="M376.75781 321.7461h.83203v2.82421h3.28516v-2.82422h.83594v6.48047h-.83594v-2.91797h-3.28516v2.91797h-.83203v-6.48047"/><path fill="#ffffe0" fill-rule="evenodd" d="M420.4961 476.75781h22.18359V466.5625h-22.1836v10.19531"/><path fill-rule="evenodd" d="M423.9961 468.39844h.51171v6.29297h-.78906v-4.48829h-1.38672v-.55468l.5586-.0664.2539-.0547.22656-.08984.20313-.14063.17578-.21093.14063-.29297.10546-.39453m4.81641 0l.22656.01953.21875.05469.21094.08984.19531.1211.1836.14843.17187.17578.30078.41797.24219.4961.17969.54687.11328.57813.03906.58984-.03906.59375-.11328.58594-.17969.55078-.24219.5039-.30078.42579-.17187.17968-.1836.15625-.19531.1211-.21094.09375-.21875.05468-.22656.01954-.23047-.01954-.21875-.05468-.20703-.09375-.19922-.1211-.1836-.15625-.17187-.17969-.30078-.42578-.24219-.5039-.17968-.55078-.11329-.58594-.03906-.59375h.83594l.02734.5625.08204.50781.125.4414.16406.375.1914.30079.21094.22265.22266.13672.22656.04688.22656-.04688.22266-.13671.20703-.22266.1914-.30078.16407-.375.125-.4414.08203-.50782.02734-.5625-.02734-.5625-.08203-.5-.125-.4336-.16406-.36718-.19141-.29297-.20703-.21094-.22266-.13281-.22656-.04688-.22656.04688-.22266.13281-.21094.21094-.1914.29297-.16406.36719-.125.43359-.08204.5-.02734.5625h-.83594l.03906-.58985.11329-.57812.17968-.54688.2422-.49609.30077-.41797.17188-.17578.1836-.14844.19921-.12109.20703-.08984.21875-.0547.23047-.01952m4.94922 0l.23047.01953.21875.05469.20703.08984.19922.1211.1836.14843.17187.17578.30078.41797.24219.4961.17968.54687.11328.57813.03907.58984-.03907.59375-.11328.58594-.17969.55078-.24218.5039-.30078.42579-.17188.17968-.1836.15625-.19921.1211-.20703.09375-.21875.05468-.23047.01954-.22656-.01954-.21875-.05468-.21094-.09375-.19531-.1211-.1836-.15625-.17187-.17969-.30078-.42578-.2422-.5039-.17968-.55078-.11328-.58594-.03906-.59375h.83203l.03125.5625.08203.50781.125.4414.16406.375.1875.30079.21094.22265.22266.13672.22656.04688.22656-.04688.22266-.13671.21094-.22266.1914-.30078.16406-.375.125-.4414.08204-.50782.02734-.5625-.02735-.5625-.08203-.5-.125-.4336-.16406-.36718-.1914-.29297-.21094-.21094-.22266-.13281-.22656-.04688-.22656.04688-.22266.13281-.21094.21094-.1875.29297-.16406.36719-.125.43359-.08203.5-.03125.5625h-.83203l.03906-.58985.11328-.57812.17969-.54688.24219-.49609.30078-.41797.17187-.17578.1836-.14844.1953-.12109.21095-.08984.21875-.0547.22656-.01952m4.95312 0l.38672.02734.35938.08203.32422.13672.27734.1875.23047.23828.17578.28516.10547.33203.03906.375-.01953.27344-.0586.23828-.08593.19922-.11328.16797-.1289.14453-.14063.125-.28516.19531.23047.11719.20703.14844.1836.17187.15234.1914.125.21485.08984.23047.05469.24219.01953.2578-.03516.3086-.10156.32422-.17187.32813-.23829.30468-.30859.26954-.375.21484-.21094.08203-.22656.0586-.2461.03906-.26171.01171-.25781-.01171-.2422-.03907-.22265-.05859-.20703-.08203-.35937-.21485-.28907-.26953-.22265-.30468-.15625-.32813-.09375-.32422-.03125-.3086h.83203l.02734.25392.07813.23437.125.21094.16015.1836.19141.15233.21875.1172.24219.0703.2539.02735.25782-.02735.23828-.0703.21875-.1172.19531-.15234.16016-.1836.12109-.21093.07813-.23438.02734-.2539-.02735-.2539-.07812-.23438-.1211-.21485-.16015-.18359-.19531-.15234-.21875-.11329-.23828-.07421-.25782-.02344-.2539.02344-.24219.07421-.21875.11329-.1914.15234-.16016.1836-.125.21484-.07813.23437-.02734.2539h-.83203l.01953-.2539.05469-.24219.09375-.22265.12109-.20703.15625-.1914.17969-.17188.20703-.15235.23437-.13281-.28906-.19531-.13672-.125-.1289-.14453-.11329-.16797-.08984-.19922-.05469-.23828-.02343-.27344h.78906l.02344.21484.0664.19141.10156.16797.13672.13672.16797.11328.1875.08203.20703.05078.21875.01563.22266-.01563.20703-.05078.1875-.08203.16406-.11328.13672-.13672.10547-.16797.0664-.1914.02344-.21485-.02343-.21484-.0664-.19141-.10548-.16406-.13672-.14063-.16406-.10937-.1875-.08203-.20703-.05079-.22266-.01953-.21875.01954-.20703.05078-.1875.08203-.16797.10937-.13671.14063-.10157.16406-.0664.1914-.02344.21485h-.78906l.03906-.375.10937-.33203.17188-.28516.23047-.23828.28125-.1875.32031-.13672.35938-.08203.38671-.02734"/></g></defs><use xlink:href="#aj"/></svg>