<svg xmlns="http://www.w3.org/2000/svg" role="img" xmlns:xlink="http://www.w3.org/1999/xlink" viewBox="142.45 309.95 326.84 171.84"><defs><clipPath id="a"><path d="M144 311.67188h1v168.65625h-1zm0 0"/></clipPath><clipPath id="b"><path d="M144 311.67188h324v168.65625H144zm0 0"/></clipPath><clipPath id="c"><path d="M467 311.67188h1v168.65625h-1zm0 0"/></clipPath><clipPath id="d"><path d="M144 478h4v2.32813h-4zm0 0"/></clipPath><clipPath id="e"><path d="M154 477h7v3.32813h-7zm0 0"/></clipPath><clipPath id="f"><path d="M167 477h7v3.32813h-7zm0 0"/></clipPath><clipPath id="g"><path d="M181 477h6v3.32813h-6zm0 0"/></clipPath><clipPath id="h"><path d="M194 477h7v3.32813h-7zm0 0"/></clipPath><clipPath id="i"><path d="M207 477h7v3.32813h-7zm0 0"/></clipPath><clipPath id="j"><path d="M221 477h6v3.32813h-6zm0 0"/></clipPath><clipPath id="k"><path d="M236 476h2v4.32813h-2zm0 0"/></clipPath><clipPath id="l"><path d="M249 476h3v4.32813h-3zm0 0"/></clipPath><clipPath id="m"><path d="M261 477h6v3.32813h-6zm0 0"/></clipPath><clipPath id="n"><path d="M274 477h6v3.32813h-6zm0 0"/></clipPath><clipPath id="o"><path d="M287 478h7v2.32813h-7zm0 0"/></clipPath><clipPath id="p"><path d="M287 480h2v.32813h-2zm0 0"/></clipPath><clipPath id="q"><path d="M300 478h8v2.32813h-8zm0 0"/></clipPath><clipPath id="r"><path d="M300 480h2v.32813h-2zm0 0"/></clipPath><clipPath id="s"><path d="M313 478h8v2.32813h-8zm0 0"/></clipPath><clipPath id="t"><path d="M313 480h3v.32813h-3zm0 0"/></clipPath><clipPath id="u"><path d="M326 478h8v2.32813h-8zm0 0"/></clipPath><clipPath id="v"><path d="M326 480h3v.32813h-3zm0 0"/></clipPath><clipPath id="w"><path d="M339 480h9v.32813h-9zm0 0"/></clipPath><clipPath id="x"><path d="M340 479h2v1.32813h-2zm0 0"/></clipPath><clipPath id="y"><path d="M353 478h8v2.32813h-8zm0 0"/></clipPath><clipPath id="z"><path d="M353 480h2v.32813h-2zm0 0"/></clipPath><clipPath id="A"><path d="M368 477h5v3.32813h-5zm0 0"/></clipPath><clipPath id="B"><path d="M380 478h7v2.32813h-7zm0 0"/></clipPath><clipPath id="C"><path d="M380 480h2v.32813h-2zm0 0"/></clipPath><clipPath id="D"><path d="M393 479h8v1.32813h-8zm0 0"/></clipPath><clipPath id="E"><path d="M393 479h2v1.32813h-2zm0 0"/></clipPath><clipPath id="F"><path d="M406 479h8v1.32813h-8zm0 0"/></clipPath><clipPath id="G"><path d="M404 479h4v1.32813h-4zm0 0"/></clipPath><clipPath id="H"><path d="M419 479h9v1.32813h-9zm0 0"/></clipPath><clipPath id="I"><path d="M420 479h2v1.32813h-2zm0 0"/></clipPath><clipPath id="J"><path d="M433 479h8v1.32813h-8zm0 0"/></clipPath><clipPath id="K"><path d="M433 478h2v2.32813h-2zm0 0"/></clipPath><clipPath id="L"><path d="M446 479h8v1.32813h-8zm0 0"/></clipPath><clipPath id="M"><path d="M446 479h3v1.32813h-3zm0 0"/></clipPath><clipPath id="N"><path d="M460 478h8v2.32813h-8zm0 0"/></clipPath><clipPath id="O"><path d="M144 465h4v4h-4zm0 0"/></clipPath><clipPath id="P"><path d="M144 450h3v7h-3zm0 0"/></clipPath><clipPath id="Q"><path d="M144 436h1v9h-1zm0 0"/></clipPath><clipPath id="R"><path d="M144 442h1v2h-1zm0 0"/></clipPath><clipPath id="S"><path d="M144 423h2v8h-2zm0 0"/></clipPath><clipPath id="T"><path d="M144 429h1v2h-1zm0 0"/></clipPath><clipPath id="U"><path d="M144 410h2v8h-2zm0 0"/></clipPath><clipPath id="V"><path d="M144 399h4v2h-4zm0 0"/></clipPath><clipPath id="W"><path d="M144 383h1v8h-1zm0 0"/></clipPath><clipPath id="X"><path d="M144 372h4v4h-4zm0 0"/></clipPath><clipPath id="Y"><path d="M466 373h2v4h-2zm0 0"/></clipPath><clipPath id="Z"><path d="M144 359h4v3h-4zm0 0"/></clipPath><clipPath id="aa"><path d="M466 359h2v4h-2zm0 0"/></clipPath><clipPath id="ab"><path d="M144 344h3v7h-3zm0 0"/></clipPath><clipPath id="ac"><path d="M466 346h2v4h-2zm0 0"/></clipPath><clipPath id="ad"><path d="M144 331h4v5h-4zm0 0"/></clipPath><clipPath id="ae"><path d="M466 332h2v3h-2zm0 0"/></clipPath><clipPath id="af"><path d="M144 319h4v3h-4zm0 0"/></clipPath><clipPath id="ag"><path d="M465 317h3v3h-3zm0 0"/></clipPath><g id="ah" clip-path="url(#clip1)"><path fill="#fff" fill-opacity="0" fill-rule="evenodd" d="M0 0h1000v1000H0zm0 0"/><path fill="#d3d3d3" fill-opacity="0" fill-rule="evenodd" d="M162.15234 355.86719l-.23437.29297.0586.23437.11718.17188.17578.23437.29297.34766.11328.0586.11719-.17188.0586-.23438.17577-.17578.46485-.17578h.69922l.23437.29297.28906.8164.0586.17579.17578.23046.35156.23438.69922.69922.17188.17578.23437.34765.23438.41016.28906.58203.41015.46485.23047.23437.23438.17578.11719.23047.17578.29297.17187 1.16406v.23438l.0586.28906.05859.11719.11719.11719.34765.41015.11719.17188.17578.17578.17578.23437.11719.17188.17188.35156.05859.23438.23437.40625.23438-.0586-.17578.17578-.0586.92969h-.58203l-.23437-.11328-.34766.11328-.11719.11719-.05859.29297-.0586.17578-.11718.17187-.46484.29297-.0586.23438-.0586.11328v.64453l.0586.17187v.41016l.0586.0586v.40624l.05859.40625.11719.17579.05859.05859.23047.64062-.0586.29297v.69922l-.05859.58203v.23438l-.0586.23047-.05468.35156v1.92187l.05469.1172h.42578l-.36719.11718-.02344.35156.89063 1.16797 1.74219.53906 1.33984.35938v.53906l.08984.8086.53516.71484 1.51953.26953.89063-.08594.08984 1.16406.53516.1797 1.16015-.1797 2.05469-.98437 1.16016-.36328 1.8789-.17578 1.69531-.1797-.17968.71876-1.51563.08594-1.25.08984-.80469.26953-1.07421.8086.26953.71875.53515.89843-.17968.625-.26563.8086.26563 1.07812.625.89844.80468.17969 1.25-.1797-.26562.72267.09766.5039.05468.29297v.17188l.0586.29296v.40625l.17578.1172.35156.11718h.40625l.29297-.17578.11328-.11719.0586-.11719.11718-.23047.0586-.17578.35156-.46484.23047-.17578.17578-.0586.17578.0586.0586.17578.11718.98828.05469.46875.0586.17188.11718.23437.17578.0586.8164.05859h.28907l.11719.23437.05859.40625.0586.35156v1.10547l.11718.29297.11719.34766.28906.69922.17578.35156.58203.7539.35157.17579.17187.0586.46875.23437.64063.46484.34765.23438.29297.17578.29297.05468.23047.0625.8164.34766.29297.17578.11328.17188.35157.35156.11719.17578.52343.64063v.28906l.0586.35156v.34766l.05859.35156.0586.28906.11718.0586.17188.05859h.17578l.58203.23437.17578.1172.17578.28905.17578.23438.11328.23437.29297.23047.11719.11719v.41016l.0586.05468.28906.23438.23437.11719.0586.11718.11718.17188.0586.11719.23047.23437.05859.17578.23437.0586.1172.05859-.1172.11328-.05859.11719v.11719l-.11719.29296-.11719.28907v.58203l.17579.11719.11718.05859.0586.11719.11719.11719.11328.05859.17578.34765.0586.35157.05858.40625v.17578l-.05859.17578-.11719.69922v.17187l.1172.17579.29296.29296h.40625l.17578.1172.11719.17187.11719.29296v.23438h-.52735l-.23047-.23438h-.23437l-.17578.0586-.0586.69922.0586.34765.11719.17579.17578.41015.11718.23047.28907.46875.17578.05469h.52344l.23437.0586.75781.64062.0586.29296v.23438l.05859.0586.23047.34765v.35156l-.11719.17188v.29297l.29297.28906.29297.17578.17187.0586.29297.17577.29297.1172.58203.40624.28906.23438.29297.17578.21875.16015.01563.01172.23047.17579.64062.52343.17578.23438.1172.17578.17577.17578.11328.17188v.64062l.1172.17578.46874.11719.58203.11719.23438.05859.23047.11328.29297.11719.11328.0586.58593.35156.28907.17187.17578.0625.17578.05469.17578.0586.69922.35155.28906.17579.23438.05468.28906.17578.23437.1172.64063.40624.29297.11719.17187.0586.23438.05859.41015.05859.23047.0586.23438.11718.0586.17188-.41017.17578.46875.0586.0586.29296.11328.23438.17578.05468.23438.0586.17578.05859.40625.11719.64062.23437.11719.17188.0586.23437v.17578l-.0586.1172-.0586.40624.23438.23438.11719.05859.34766.11719.64062.23047.17578.11718.28906.1172.17578.17577.23438.46485.58203 1.10546.17578.17579.34766.17578.17578.11719.35156.11718 1.04688.52344.23437.0586.46485.11327.29297.0586.46484.17578.75781.58203.23438.23438.34765.46484.17578.17578.28907.23438.8164.69921.29297.17579.28906.28906.29297.17578.29297.28906.69531.64063.17578.17578.29297.23437.28907.23438.46875.28906.64062.58203.34766.23438.23437.29297.34766.34765.35156.46485.9336.99218.34765.40625.11719.17579.23437.05859.11328.11719.64454.17578.23047.11328.23437.0586.29297.17577.23047.1172.9336.69921.40624.40625.23438.17578.40625.17578.23437.11719.8164.34766.34766.23437.23438.11719.29297.28906.23047.11719.7578.35156.35157.17188.23047.05859.29297.11719.23437.0586.8711.17577h.8164l.46875.23047.17188.0586.875.69921.46484.1172.29297.05858.17578.0586.23047.0586.46875.05859.34766.05859.35156.0586.40625.05859h.29297l.17187.0586v.23046l.17578.17578h.29297l.34766.0586.35156.05859.69922.11719h.64063l.46484-.23438.29297-.17578.17187-.11719.41016-.17187.28906-.17578.9336-.46485.46875-.29297.52343-.29296.46485-.17188.46484-.17578 1.05078-.46485.28906-.11718.41016-.11719.28906-.11719.52735-.17578 1.51562-.69922.58203-.34765.28907-.0586.29297-.0586.34765-.11718.875-.23047.35156-.11719h.11329l.23437-.05859.875-.23437.23438-.0586h.8125l.35156-.0586.8164-.11718.17188-.0586.35156-.05468.29297-.0586.23047-.05859.8164-.17578.17579-.0586h.34765l.23438-.05859.46484-.11718.75781-.17188.23438-.0586h.34765l.41016-.11718.28906-.0586 1.28516-.05859h.28906l.41016-.0586.23047-.05858h.17578l.875-.1172h.40625l.41015-.11718h.34766l.35156-.11328.8711-.0586h1.75l1.04687.28907.41016.11719.28906.11718.35156.11719.28907.11719 1.05078.17187.28906.0586h.29297l.29297.05859.17187.0586.41016.05859.17187.0586.1172.05858h.11718l.11719.0586.35156.0586h.11328l.41016.0664 1.92187.39453 1.92578.39453 1.51953.44922 1.69532.71875 2.14453.80469 1.60547-.71875 1.42968-.80469 1.16016-1.07813 1.25-.44921 3.03516-.71875 1.875-.35938 2.14453-1.34765 2.23437-1.25391 2.5-1.25781 1.69531-.44922 1.78516-.17969 1.16016-.26953.625.53906 1.33984-.26953.71485-.98828.98437-1.34375.44531-.17969.80469-.35937 1.875-.53907 1.78516-.44921 1.25-.26954 1.16015-.08984 1.69922-.08984 1.96094-.26954 1.25-.08984h.53906l.625-.08984h.89063l2.14453-.17969 2.41015-.17969 2.58985-.08984 1.69531.17969 1.60938.08984 1.42968.35938 1.16016.71875 1.875.98828 1.16015 1.52734.26563.71484.6289.08985.35548.89844.53515.53906.53516 1.52734 1.07422.35938h.53515l-.80469.53515.08985 1.70703.71484 2.69532.89063.80468.89453.98829.71484 1.2578 1.78516.53907 1.51953-.17969.35547 1.34375 1.60937-.80469.98047-.53906.26953.26953.31641-.21484.21875-.14453.80078.44922.44922-.35938h.35547l.53515-.26953.53907-.71875.53515-.26953.625-.98828 1.16016.44922.83984.3711 1.39454.61718 1.6953-.17969h1.60548l1.78515.08985.17969-1.70704.53516-1.34375.80468.26954.4922.84765.40233.40625-.08984.53906v.35938l.71485.44922.71093-.26953h1.42969l.35938.98828.4453 1.25781.71485 1.34375 1.25.6289 1.69531.62891.71485-.17969.17969-.53906.98046-.08984.44922.35937.08594 1.25782-.26563.6289-.53515.17969v.53906l.71484.98438.26563.53906.98437.98828.80078 1.07813-.26562.35937-.08985.89844-.625 2.33203-.35546 2.0664-.08985 1.79298-.17969.71875-.08984.53906v1.4375l-.98047 1.88281-.35937 1.70703-.53516.89844-.80469 1.16797-.26562.53906 2.05469 1.2539.08593.35938-.35546.53906-.08985-.17968v.80859l.08985 1.4375-.44532.71484-1.07422.09375-.26562.71485.53515.89844.8047.71875 1.16015.80859 1.33984.26953.44531.35938-.35546.44921-1.78907-.08984-1.25-.44922-.71484-.71875-.625-.08984-.17578 3.58984-.1875 1.3086h89.35937V311.70313h-55.26953v49.08203l.76172.125 3.28906.54296 2.02344 2.83594v2.7539l2.35156.33204 2.34766.33203h4.05078l-1.3789 4.16016-2.02344.70703-2.02344.70312-.54297.34375-2.59375 1.6172-.1875.11718-2.02344-2.07813-.73046-2.74218-2.67188-2.07813-1.375-3.5-.0664-.08203-1.95704-2.67188 2.75-1.41796v-49.08204H294.42187v91.41407l.1172.03125.1328.01172.07422.07421.10547.04688.08985.0586.08593.05859.08985.0586.29687.29687.0586.08984.03125.11719.02734.11719.01563.13671-.03125.1172-.0586.08983-.0586.08594-.04296.10547-.04688.10156-.02734.1211v.14453l.17578.26953.14844.14844.07422.08594.07422.07421.04296.10547.0625.08985.0586.08593.04297.10547.0586.08985.04687.10156.04296.10547.0586.08594.11719.17968.07421.07422.0625.08594.0586.08984.04297.10547.0586.08985.05858.08593.0625.08985.0586.08984.04297.10156.11719.17969.07421.07422.0586.08594.07422.07421.08984.0586.10547.04687h.14844l.1328-.01562.13282.01562.10156-.04687.07422-.07422.04688-.10156-.01563-.13281v-.14844l-.04687-.10547-.02735-.11719-.04687-.10156-.02735-.1211-.04296-.10156-.0625-.08984-.04297-.10156-.04297-.10547-.03125-.11719-.01563-.13281-.01171-.13672.08593-.0586.0586-.08593.12109-.03125.04297.10547.01562.1328v.1172l.0586.10156.0586.08984.08983.0586.14844.14843.0586.08985.04296.10547-.01171.10156.08593.0586.10547.04687.08594.0586.08984.05858.07422.07422-.11719.02735-.10546.04687-.08594.0586-.07422.07421-.0586.08985-.0625.08594-.02734.12109-.04687.10156-.04297.10547-.03125.11719-.01172.13281-.01563.13281v.14844l.02735.11719.04687.10547.04297.10156.0586.08984.07421.07422.08985.0586.07422.07421.08984.0586.0586.08984.04296.10547.04688.10156.11719.03125.1328.01563h.14845l.11718-.03125.10547.04297.04297.10547.04688.10156.02734.1211L299.5 410l.02734.11719.03125.1211.02735.11718.10547.04297.10156.04687.13281-.01562.14844.14844.0625.08593.07422.07422.07031.07422.08984.0625.10547.04297.10156.04297.1172.03125.13671.01562.11719-.03125.07422-.07422.02734-.11718-.01172-.13282-.03125-.12109-.02734-.11719.04297-.10547h.11719l.08984.0625.11719.02735h.14843l.13282.01562h.14843l.13282.01563.1328-.01563h.14845l.1328-.01562.13282-.01172.13672.01172.11719-.02735.13281-.01562.1914-.0586-.05859.17579-.01562.1328-.02735.1211-.01562.13281-.0586.08594-.1328.01563-.10548.04687-.10546.04297-.1172.03125-.11718.02735-.26563.03125h-.14843l-.13281.01562-.07422.07422.05859.08594.14844.14843.11719.1797.07421.0703.08985.0625.08984.0586.08594.0586.08984.05858.10156.04297.10547.0625.10547.04297.08594.0586.10547.04687.10156.04297.17969.11719.0586.08984-.04298.10156-.04687.10547.01562.13281.22266.22266.0586.08985.04296.10156.03125.1211.04297.10155.01563.13282.03125.11718.01171.13672.03125.11719.14844.14844.10156.04297.10547.04296.1172.03125.1328.01563.13672.01563h.11719l.11719-.03125.08984-.0586.04297-.10547.04688-.10156.04296-.10547.03125-.11719.01172-.1328v-.14845l-.01172-.1328-.01562-.13282-.03125-.11719-.04297-.10547-.04688-.10547-.04296-.10156-.04297-.10547-.01563-.13281.01563-.13281.02734-.11719.03125-.11719.02735-.1211.04687-.10155.08984-.0586.08594-.0625.07422-.07422.08984-.05859.22266-.22266.0586-.08593.07421-.07422.11719-.17969.0586-.08594v-.14844l-.07423-.07421-.10156-.04688-.10547-.04297-.10156-.04297-.0586-.08984-.04687-.10547-.02734-.11719.08984-.05859.11719-.03125.10156-.04297.17969-.11719.14844-.14843.01172-.13282-.01172-.10546-.08985-.0586-.1328.01563h-.14845l-.1328.01562-.13282-.01562-.1211-.03125-.08593-.0586-.07422-.07422-.0586-.08984-.0625-.08594-.11718-.17969-.0586-.08593.03125-.1211.08594-.05859.1211-.03125.05859-.08594v-.1211l-.03125-.11718-.0586-.08984-.05859-.08594-.04687-.10547-.02735-.11719-.01562-.1328.0586-.08985.07421-.07422.08984-.0586.1172-.17968.07421-.07422.0586-.08594.14843-.14844.1211-.03125.1328-.01562.13282.01562.07422.07422.04297.10547.01562.13281-.03125.1172-.11719.03124-.1328.01172-.14844.14844-.04297.10547-.04688.10156-.02734.1211-.03125.11718v.14844l.03125.11719.04297.10546.05859.08985.07422.07031.07422.07422.11719.03125.12109.02734.11719-.02734.1328-.01563h.1172l.08984.0586.07422.07422.04687.10546.0586.08594.10156.04688.13281.01562.10547.04297.08594.0586-.01172.10546-.07422.07422-.17969.11719-.05859.08984-.08984.0586-.07032.07422-.07421.07421-.0625.08985-.02735.11719-.01562.1328.01562.13282-.01562.13281v.14844l.01562.13281.02735.1172.03125.12108.07421.07422.08985.0586.08594.0586.08984.05858.11719.03125v.08594l-.10157.04688-.08984.0586-.26563.03124-.11718.02735h-.14844l-.10547.04296-.10156.04688-.0586.08984-.0625.23438-.01171.13281-.03125.1211-.01563.1328v.29298l-.01172.1328.01172.13673.01563.1328.1328.01563.13282.01172.1211.03125.08593.0586.07422.07421.04688.10547.04296.10157.01563.1328v.44532l-.01563.13281v.44532l.03125.26562.02735.11719.01562.13281.03125.11719.08594.21094.03125.26562v.14844l-.03125.11719-.02734.11718-.03125.1211-.02735.11719-.03125.11718-.03125.1211-.01171.1328-.01563.13282.08984.0586.1172-.03125.10155.01562.04688.10547-.03125.26562v.44141l-.04297.10547-.04688.10547-.04296.10156-.04297.10547-.0586.08594-.03125.12109-.04296.11719-.03125.11719-.01563.1328.01563.13282.05859.08984.10547.04688.08594.0586.05859.08593-.01172.13672-.03125.11719-.04297.10156v.44531l-.01562.13281v.14844l-.03125.11719-.04297.10547-.02735.11719-.04687.10546-.04297.10157-.03125.12109-.02734.11719-.03125.13281-.03125.11719-.02735.11719-.04297.10546-.03125.1172-.03125.12108-.01171.13282-.01563.13281v.29688l.02734.11718v.14844l.04688.39844.02734.11719.0586.08984.12109.03125h.14844l.13281-.01563.0586.08985v.11719l-.0586.08984-.08984.0586-.10157.04296-.10546.04688-.08985.05859-.08594.0586-.13671.01562-.1172-.03125-.1328-.01563-.10157.04688-.0625.08594-.01172.13671-.01562.13282-.03125.11719-.02735.11718-.01562.13281-.03125.1211v.29687l.01563.13282.03125.11718v.14844l.01171.13281v.14844l-.02734.11719-.04688.10156-.02734.1211-.03125.11718-.0586.08985-.07421.07421-.10156.04297-.10547.04688-.11719.02734-.1211.03125-.10156-.04687.0586-.08594.10547-.04688.02734-.11718.03125-.11719.02734-.1211.03125-.11718v-.14844l.01563-.13281-.03125-.11719-.04297-.10547-.10547.01563-.07422.07422-.10156.04296-.08984.0625-.07422.07422-.04297.10157-.01563.1328-.03125.1172L304.25 426l-.03125.11719-.02734.11719-.03125.12109-.02735.11719-.03125.11718-.04297.10547-.08984.0586h-.08984l-.1172-.03125-.03124-.08594.01562-.13672-.03125-.11719v-.14844l-.01171-.1328v-.14844l-.0625-.23438-.02735-.1211-.04297-.10156-.04687-.10546-.0586-.08594-.05859-.08985-.04297-.10546-.0625-.08594-.14844-.14844-.0703-.07422-.10548-.04687-.10547-.04297-.10156-.04297-.29687-.29688-.08985-.07421-.08594-.0586-.10546-.04297-.08985-.0625-.08594-.0586-.10546-.04296-.08985-.0586-.08594-.0625-.07421-.0703-.10547-.04688-.08594-.0586-.10547-.04296-.08984-.0625-.10156-.04297-.10547-.04297-.08594-.0586-.10547-.04687-.10547-.04297-.10156-.04687-.08985-.0586-.10156-.04297-.10547-.04296-.08984-.0625-.11719-.02735-.13281-.01562-.13281.01562H299.75l-.13281.01563-.11719-.03125-.08984-.0586-.07422-.07422-.08985-.05859-.10156-.04688h-.14844l-.12109-.02734-.10156-.04297-.07422-.07422-.11719-.17968-.08984-.0586-.10156-.04297-.08985-.0625-.10547-.04296-.08984-.0586-.08594-.0586-.10547-.04687-.0586-.08594-.05858-.08984-.04297-.10547-.04688-.10156-.07422-.07422-.08594-.0586-.07421-.07421-.08985-.0586-.22265-.22265-.04297-.10547-.03125-.26563.10547-.04296h.14453l.10547.04296.07421.07422.08985.0586.08594.0586.10546.04687.08985.05859.14844.14844.0703.07422.14845.14843.0625.08594.07421.07422.08594.0586.07422.07421.08985.0625.08984.0586.08594.05859.26953.17578.10156.04688.10547.04296.10156.04297.04688-.07421.05859-.08594.07422-.07422.07031-.07422.10547.04297.07422.07422.0586.08984.04296.10156.04688.10547.04296.10547.1211.02735.11719-.02735.07421-.08984.04297-.10547.0586-.08985.07422-.07421.10546-.04297.1172-.02735.1328.01172.08985.0586.14844.14843.05859.08985.04297.10547.04687.10156.04297.10547.04297.10156.10547.04688.10547.04296.13281.01563.08594-.0586.0586-.08984.07421-.07422.10547-.04297.11719.02735.10547.04687.10156.04297.10547.04297.10156.04688.17969.11718v.11719l-.01563.13281.01563.13281.01562.13672.0586.08594.10156.04688.1211.02734.11718.03125h.14844l.11719-.03125.05859-.08984.17969-.1172.05859-.08983.07422-.07422.0586-.08594.11718-.17969.17969-.11719.11719.03125.08984.0586.04297.07422-.01563.1328v.1172l.08985.05859h.14843l.13282-.01563.1328-.01171.26563-.03125.10547-.04297.11719-.03125.1211-.02735.07421-.07421.07031-.07422.0625-.08985-.01562-.10547-.04688-.10156-.10156-.04297-.10547-.01562-.11718.02734-.26563.03125h-.14844l-.07421-.07422-.08985-.0586-.11719-.03124-.11718-.02735-.13282-.01562h-.14843l-.13282.01563h-.29687l-.10547-.04688-.14844-.14844-.04297-.10156-.05859-.08984.22266-.22266.08593-.0586.10547-.04296.11719-.03125.13281-.01563.13281.01563.13672.01562.10157.04297.1328-.01172.08985-.0625.10156-.04297.0625-.08984-.04687-.10156-.08984-.0586-.1172-.03125-.10155-.04296-.0586-.08985-.0625-.08984v-.11719l.01563-.13281.10547-.04688.07421-.07031v-.1211l-.08984-.05859-.03125-.11719.08985-.05859.07421-.07422.04297-.10547.0586-.08984.04687-.10156.01563-.13281v-.14844l-.04688-.10547-.04297-.10156-.08984-.0586-.13281-.01562-.10157-.04297-.13671-.01563-.1172-.03125h-.4453l-.13282-.01562-.13281-.01172-.13281-.01563-.11719-.03125h-.14844l-.13281-.01562-.13281-.01172-.26563-.03125-.1211-.04297-.08593-.0586-.07422-.07421v-.14844l.01172-.13281.10547-.04688.10156-.04296.13281-.01563h.15235l.13281-.01562h.29297l.1211.03125.10156.04296.08984.0586.23438.0625.12109-.04688.08984-.05859.10156-.04297.13282-.01562.10547.04296.10156.04688.13281.01172.1211-.02735h.14453l.12109-.03125.11719-.02734.10547-.04687.07421-.07422.08594-.0586.14844-.14843.0586-.08594.04687-.10547.02734-.11719.01563-.10547-.10156-.04296-.08985-.0586-.11719-.03125-.10546-.04297-.08985-.0625-.07422-.08594-.07422-.07421-.10156-.04297-.10547-.04688-.10156-.04297-.0586-.08984-.04687-.10156-.08594-.21094-.0625-.08594-.05859-.08984-.07422-.07422-.08594-.0586h-.26953l-.11719.03126-.08984.05859-.10156.04297-.13281.01562-.10547-.01562-.02735-.11719-.0625-.08984-.11718-.03125-.10157-.04297-.14843-.14844-.03125-.11719-.01563-.10546.07422-.07422.17969-.1172.11719-.02733.11718-.03125.13672.01562.10156.04297.10547.04297.10156.04687.10547.04297.1172.03125.1328.01563.1172.02734.1328.01563.10547-.01563.08985-.0586-.07422-.07421-.10547-.04297-.07422-.07422-.07422-.08984-.14844-.14844-.08593-.0586-.08985-.05859-.07422-.07422-.08984-.0586-.10156-.04687-.1211-.02734-.10156-.04688-.10547-.04296-.11719-.03125-.10156-.04297-.1211-.03125h-.14843l-.11719.03125-.10546.04297-.08594.0625-.17969.11718-.08594.0586-.08984.0586-.10547.04687-.08594.05859-.10547.04297-.10156.04297-.10547.04687-.07422.07422-.05859.08985-.0586.08593-.04687.10547-.0586.08594-.07421.07422-.13281-.01172-.1172-.03125h-.11718l-.07422.07422-.08984.0586-.07422.07421-.08984.0586-.08594.05859-.10547.04687-.10156.04297-.13672.01563-.10156-.04297-.14844-.14844-.10547-.04688h-.08594l-.10547.04688-.10156.04297-.1211.03125-.11718-.03125-.07422-.07422v-.11719l.03125-.1211.07422-.0703.0586-.08985.07421-.07422.11719-.03125.10547-.04296h.29297l.13281-.01563.13672-.01563.10156-.04296.08985-.0586.10156-.04687.08984-.0586.13281-.01171.08985.05859.13281.01172.08984-.0586.08594-.05859.10547-.04297.08984-.0586.08594-.0625.08985-.05859.14843-.14843.0586-.08594.05859-.08985.10547-.04296.13281-.01563.11719.02735.1211.03125.05859-.0586.05859-.08984.03125-.26563.02734-.11719.10547.01172.13281.01563.10157-.04297.08984-.0586.0586-.08984.07421-.07422.0586-.08984.04687-.10156.01172-.13281-.01172-.13282-.04687-.10547-.14844-.14843-.0586-.08985-.05859-.08594-.04297-.10546v-.44532l.01563-.1328v-.14845l.01172-.1328-.0586-.0586-.08984.0586-.10156-.04298-.17969-.11719-.08594-.05859-.0625-.08984-.0586-.08985-.07421-.07421-.08594-.0586-.1211.03125-.10155.01172-.10547.04688-.08594.05859-.10547.04297-.14844.14844-.08984.05859-.08594.0586-.08984.0625-.10547.04296-.13281.01563v-.1211l.10547-.04297.11718-.03125.07422-.0703.04297-.10548v-.14844l-.02734-.11718-.14844-.14844-.13281-.01563h-.14844l-.11719.03125-.10547.04297-.10156.04297-.08984.0625-.11719.02735-.07422-.07422.01172-.13281-.04297-.10157-.04297-.10547-.08984-.05859-.11719.02734-.1211.03125-.11718.03125-.10156.04297-.1211.03125-.10156.04297-.10547.04297-.08984.0586-.10156.01562v-.11719l.01562-.13281-.0586-.08985-.07421.04297-.14844.14844-.0586.08985-.07421.07421-.04688.10547-.04296.10156-.07422.07422-.0586.08985-.07422.07422-.05859.08593-.07422.07422-.08984.0625-.07422.07031-.07422.07422-.10156.01563-.13281.01562-.10547-.04296v-.1211l.14843-.14844.04297-.10156.0586-.08984.04687-.10156.04297-.10547.0586-.08985.03124-.11719.04297-.10156.03125-.1211.02735-.11718.04687-.10547.04297-.10156.04297-.10547.07422-.07031.08984-.0625.08985-.0586.10156-.04296h.29687l.26563-.03125.10547-.04297-.07422-.07422-.11719-.03125-.10547-.04297-.08984-.0586-.10156-.04687-.08985-.0586-.10156-.04296-.10547-.04297-.08984-.0625-.08594-.0586-.10547-.04296-.10156-.04297-.1211-.03125-.11718-.03125-.10157-.04297L297.5 410.25l-.10156-.04297-.08985-.0586-.04296-.10546-.01563-.13281.10156-.04297.13281-.01563.13672.01563.13282-.01563.10156-.04297.0586-.08984.01562-.10547-.08985-.0586-.07421-.07421-.10157-.04297-.08984-.0586-.14844-.14843-.04297-.10547-.01562-.13281v-.29297l-.0586-.08985-.08984-.05859-.07422-.07422-.04297-.10547-.03125-.11718-.0586-.08985-.07421-.07422-.11719-.02734-.07422-.07422-.08984-.0586-.08984-.0625-.08594-.05859-.07422-.07421-.0586-.08594-.04687-.10547-.08594-.0586-.14843-.14843-.19532-.0586-.1328.01563-.10157.04297-.07422.07422-.04688.10156-.04296.10547-.0586.08984-.0586.08594-.29687.29687-.08984.0586h-.08594l-.0625-.08594-.04297-.10547.03125-.11719.0586-.08984.02734-.11719-.01172-.13281-.08984-.0625-.10547.04688-.11719.02734-.11719.03125-.26953.17578-.10156.04688-.11719.02734-.10546.04687-.08985.0586-.10156.04297-.0586-.08594-.04687-.10547.01563-.13281.04687-.10547.07031-.07422.07422-.07031.0586-.08985v-.14843l-.04297-.10547h-.23829l-.10156.04687-.03125.11719-.02734.11719-.03125.1211-.07422.04296-.13281.01563-.07422-.04688-.04297-.10156-.04297-.10547-.04687-.10156-.04297-.10547-.1211.03125-.10156.04297-.13281.01562-.11719.03125-.10547.04297-.08984.0586-.10156.04687-.1211.02734-.13281.01563-.10156-.04297-.0586-.08985-.04687-.10546-.04297-.10157-.04297-.10546v-.1172l.0586-.08984.08593-.05859.17969-.11719.10156-.04687.10547-.04297.10547-.0586.10156-.04296.08985-.0625.10156-.04297.10547-.0586.10156-.04687.08984-.0586.10547-.04296.10156-.04297.08985-.0625.10156-.04297.13672-.01563.11719.03125.10156.04297.1211.03125.10156.04297.10546.04688.10157.04296.10547.04297.10156.04688.10547.04297.10156.04297.10547.04687.08594.0586.10546.04296.1172.03125.10546.04297.10156.04688.08985.0586.10547.04296.10156.04297.10547.04687.11719.02735.10156.04687.1211.02735h.14843l.08594-.0586.01562-.10156.0586-.08984-.02735-.1172-.07422-.07421-.11719-.17969-.07421-.07422-.08985-.07421-.17969-.1172-.08593-.05859-.10547-.04296-.10156-.04688-.26954-.17578-.05859-.08985-.07422-.07421-.0586-.08985-.04296-.10156-.03125-.11719-.01563-.13672v-.5625l-.01171-.1328-.01563-.13282-.03125-.11719-.01562-.13281-.01172-.13281-.03125-.1211-.22266-.22265-.0586-.08594-.01562-.10547.03125-.11719.13281-.01562v-91.41406H172.9922v1.45312l-.0586.23438-.35156 1.05078-.17187.52343-.1172.34766-.17577.41016-.11719.17187-.23438.29297-.23046.0586h-.35157l-.11718.05859-.23047.40625v.29297l.11719.17578.23046.23047.1172.23437.64062.75781.29297.46485.17578.23437.23047.35156.23437.34766.64063.8164.17578.46485.17187.41016.11719.69531.17578.46875.11719 1.39844.0586.46484v.875l.11718 1.04688v4.78125l-.0586.46484-.35156 1.28125-.17578.52344-.11328.41015-.35156.9297L172.93359 336l-.23437.58203-.11719.17578-.17187.34766-.17578.40625-.35157.8164-.0586.29297-.11327.29297-.11719.28906-.0586.17579-.11718.875-.0586.40625-.05859.11718-.0586.17579-.05859.17187-.23047.52734-.11718.17188v.23437l-.11719.23438-.0586.17187-.17577.58594v.28906l-.0586.17579v.29296l-.0586.11329-.05859.52734v.17187l-.05468.23438v2.6211l-.17578.8164-.1172.17578-.17577.23438-.1172.17187-.11327.23438-.58594.93359-.23047.28906-.29297.46485-.17578.23437-.28906.35156-.35156.69922-.11328.23047-.17579.41016-.17578.23046-.40625.52735-.8164.69922-.29297.17187-.28906.23438-.17579.11719-.17578.17578-.52344.40625-.52734.17578-.17187.17578-.23438.05469-.64062.17578h-.75782m12.21094 31.02344l-1.07422.44921.35938.89454 1.25-.71485.44531-.53906-.98047-.08985"/><path fill="#d3d3d3" fill-opacity="0" fill-rule="evenodd" d="M201.50781 416.59766h-.89453l.44922.6289.98047.35938.80469-.08985.4453-.98828-.17577.08985-.71485-.35547-.89453.35547m154.6211 59.0703l-.0586-.52343v-.29297l.11328-.29297.0586-.23046.46875-.46875h.11328l.11719-.11329.11718-.05859h.17579l.23437-.0586h.34766l.23437.0586.11719.0586.23047.17187.0586.17578.11718.58203v.29297l-.11719.17578-.17187.28906-.17579.17579-.52734.52343-.23047.23438-.11719.0586h-.17578l-.11718-.0586-.40625-.29297-.17579-.11719-.11718-.0586-.0586-.11327-.05468-.1172m6.64062-10.95702l-.0586-.17188v-1.10937l.0586-.17188.17578-.0586.17188-.05858h.17578l.23437-.0586.1172.0586.05858.69921-.05859.17188-.11719.17578-.11718.0586-.23438.52343-.11328.0586h-.23438l-.05859-.1172m9.61328-14.39062l-.11719-.17578v-.69922l.29297-.875.1172-.17187.17577-.35156.11328-.23047.1172-.29297.35155-.75781.1172-.23047.17187-.23438h.17578l.11719-.0586h.64062l.11719.0586.23437.23438.17188.11328.35156.29297.11719.11718.11328.17579v.11328l.11719.05859.11718.11719v.69922l-.05859.17578v.23047l-.0586.17578-.34765 1.05078-.11719.23047-.11719.23437-.11718.0586-.23047.23437-.64063.28906h-.875l-.41015-.11718-.64063-.46485"/><path fill="none" stroke="#bebebe" stroke-linecap="round" stroke-linejoin="round" stroke-miterlimit="10" stroke-width=".5" d="M467.95703 311.69531H144.02734v168.625h323.9297v-168.625"/><g clip-path="url(#a)"><path fill="#fff" fill-opacity="0" fill-rule="evenodd" d="M144 475.89063v4.4375h.0039H144V311.67188h.0039H144v164.21875"/></g><g clip-path="url(#b)"><path fill="#fff" fill-opacity="0" fill-rule="evenodd" d="M144.0039 480.32813V311.67188h22.1875V423.6289l-4.4375.8828-2.51952 2.5586-1.41016 4.4375 2.78516 4.4375-.17579 4.4375-1.07812 4.4375-.59375 4.4414.7539 4.4375 2.23829 3.21095 2.83984-3.21094 1.59766-.96094 4.4375.21875 4.4375-.1875 4.4414.27344 4.4375-.9375 4.4375-.3711 4.4375.52735 4.4414-2.64453.39063-.35547 4.04688-4.22656.30078-.21485 3.3711-4.4375-3.67188-1.71484-4.4375-.66406-2.84375-2.0586-1.59766-2.04297-.58203-2.39453-3.85547-4.21484-4.4375.75-4.4375.23437-3.64844-1.20703-.79296-.26953-4.4375-.32812-4.4375-2.84375V311.67187h48.82422v93.3711l-4.44141 1.98047-2.36719 2.29297-2.07031 2.625-3.80078 1.8125 3.80078 1.59375 4.4375-.41016v7.55469l-.13672.13672.13672.1328.14062-.1328-.14062-.13672v-7.55469l4.4414-.88281.32422-.30078 3.85157-4.4375-4.17578-4.27344v-93.3711h22.1914v128.54688l-.24219.16406.2422.17578.16796-.17578-.16797-.16406V311.67187h128.71094v149.23047l-1.67969 1.67188 1.67969 1.6211 4.14844-1.6211-4.14844-1.67188V311.67188h35.50781v143.7578l-4.4414 1.33594-1.29688 1.3711 1.29688 1.22265 1.5703 3.21485 2.8711 3.0039 4.4375.84375 3.07813.59375 1.35937 1.57422 1.66016 2.86329 2.77734 2.61328 4.4414-1.20313 1.35938-1.41015-.48828-4.4375-.8711-.875-4.4414-1.88672-.51953-1.6797-3.91797-3.875-4.10937-.5625-.32813-.34374-4.4375-2.36328V311.67188h66.57031v168.65625H144.00391"/></g><path fill="#50fcfc" fill-rule="evenodd" d="M160.60938 435.94531l-2.78516-4.4375 1.41016-4.4375 2.51953-2.5586v23.42188l-.36328 1.32813.36328.8789 2.66015-.8789-2.66015-1.32813v-23.42187l4.4375-.88281v6.125l-3.4922 1.7539 3.4922 1.16797 1.67578-1.16797-1.67578-1.7539v-6.125l4.4375 2.84375 4.4375.32812v8.98438l-.3125.16015.3125.03906v8.50782l-.44532.32812-3.99218 3.94922-1.3125.49219 1.3125.13672 4.4375.16406.98047-.30078 1.86328-4.4414-2.84375-.32813v-8.50781l.03125-.03907-.03125-.16015v-8.98438l.79297.26953 3.64843 1.20703 4.4375-.23437 4.4375-.75v3.89844l-1.27734.3164.58203 4.4375.69531.92969v5.48828l-2.02734 2.45703 2.02734 1.80078 2.33203-1.80078-2.33203-2.45703V436.875l.33594-.92969-.04688-4.4375-.28906-.3164v-3.89844l3.85547 4.21484.58203 2.39453 1.59766 2.04297 2.84375 2.0586 4.4375.66406 3.67187 1.71484L202 444.82031l-.30078.21485-4.04688 4.22656-.39062.35547-4.4414 2.64453-4.4375-.52735-4.4375.3711-4.4375.9375-4.44141-.27344-4.4375.1875-4.4375-.21875-1.59766.96094-2.83984 3.21094-2.23828-3.21094-.75391-4.4375.59375-4.4414 1.07812-4.4375.17578-4.4375"/><path fill="#00e8fc" fill-rule="evenodd" d="M161.7539 450.14063l-.36327-.87891.36328-1.32813 2.66015 1.32813-2.66015.8789m4.4375-17.46484l-3.4922-1.16797 3.4922-1.7539 1.67578 1.7539-1.67578 1.16797m4.4375 16.72266l-1.3125-.13672 1.3125-.49219 3.99218-3.94922.44532-.32812 2.84375.32812-1.86328 4.4414-.98047.30079-4.4375-.16406"/><path fill="#fff" fill-opacity="0" fill-rule="evenodd" d="M175.0664 435.78516l-.3125.16015.3125.03906.03126-.03906-.03125-.16015"/><path fill="#00e8fc" fill-rule="evenodd" d="M188.38281 446.6211l-2.02734-1.80079 2.02734-2.45703 2.33203 2.45703-2.33203 1.80078m-.69531-10.67578l-.58203-4.4375 1.27734-.3164.28906.3164.04688 4.4375-.33594.92969-.69531-.92969"/><path fill="#50fcfc" fill-rule="evenodd" d="M206.13672 415.34766l-3.80078-1.59375 3.80078-1.8125 2.07031-2.625 2.36719-2.29297 4.4414-1.98047v2.99219l-2.01953 1.28125 2.01953 1.37109 1.25-1.3711-1.25-1.28124v-2.9922l4.17579 4.27345-3.85157 4.4375-.32422.30078-4.4414.88281-4.4375.41016m4.4375 7.41406l-.13672-.13281.13672-.13672.14062.13672-.14062.1328"/><path fill="#00e8fc" fill-rule="evenodd" d="M215.01563 410.6875l-2.01954-1.3711 2.01953-1.28124 1.25 1.28125-1.25 1.37109"/><path fill="#50fcfc" fill-rule="evenodd" d="M237.20703 440.5586l-.24219-.17579.2422-.16406.16796.16406-.16797.17578m128.71094 23.63672l-1.67969-1.6211 1.67969-1.67187 4.14844 1.67188-4.14844 1.6211m31.0664-4.83594l-1.29687-1.22266 1.29688-1.3711 4.4414-1.33593v3.23437l-.4961 3.91016.4961.51953 4.4375 2.42969 4.4375.67187 2.97266-3.6211-2.97266-2.9375-4.4375-.5-4.4375-.47265v-3.23437l4.4375 2.36328.32813.34375 4.10937.5625 3.91797 3.875.51953 1.67969 4.4414 1.88671.8711.875.48828 4.4375-1.35937 1.41016-4.4414 1.20313-2.77735-2.61329-1.66016-2.86328-1.35937-1.57421-3.07813-.59375-4.4375-.84375-2.8711-3.00391-1.5703-3.21485"/><path fill="#00e8fc" fill-rule="evenodd" d="M401.42578 463.09375l-.4961-.51953.4961-3.91016 4.4375.47266v1.7539l-2.32422 1.6836 2.32422 1.44531 4.4375.25781 1.39844-1.70312-1.39844-1.38281-4.4375-.30079v-1.7539l4.4375.5 2.97266 2.9375-2.97266 3.6211-4.4375-.67188-4.4375-2.42969"/><path fill="#00d4fc" fill-rule="evenodd" d="M405.86328 464.01953l-2.32422-1.44531 2.32422-1.6836 4.4375.30079 1.39844 1.3828-1.39844 1.70313-4.4375-.2578"/><g clip-path="url(#c)"><path fill="#fff" fill-opacity="0" fill-rule="evenodd" d="M467.9961 480.32813H468V311.67188h-.0039H468v168.65625h-.0039"/></g><path fill="#fff" fill-opacity="0" fill-rule="evenodd" d="M176.45703 458.35156l5.82422-.42578-.72656-9.9336-5.82422.42579.72656 9.9336"/><path fill-rule="evenodd" d="M179.35156 449.99219l.50781-.03906.46094 6.27734-.78515.0586-.32813-4.47657-1.38281.10156-.04297-.55469.55469-.10546.2461-.07032.22265-.10937.19531-.15625.15625-.21875.1211-.30469.07421-.40234"/><g clip-path="url(#d)"><path fill="none" stroke="#000" stroke-linecap="round" stroke-linejoin="round" stroke-miterlimit="10" stroke-width=".5" d="M147.1875 481.8086l-6.375-2.96094"/></g><g clip-path="url(#e)"><path fill="none" stroke="#000" stroke-linecap="round" stroke-linejoin="round" stroke-miterlimit="10" stroke-width=".5" d="M159.8711 482.73828l-5.11329-4.82031"/></g><g clip-path="url(#f)"><path fill="none" stroke="#000" stroke-linecap="round" stroke-linejoin="round" stroke-miterlimit="10" stroke-width=".5" d="M173.17969 482.75l-5.09766-4.83984"/></g><g clip-path="url(#g)"><path fill="none" stroke="#000" stroke-linecap="round" stroke-linejoin="round" stroke-miterlimit="10" stroke-width=".5" d="M186.09766 483.10547l-4.3047-5.55469"/></g><g clip-path="url(#h)"><path fill="none" stroke="#000" stroke-linecap="round" stroke-linejoin="round" stroke-miterlimit="10" stroke-width=".5" d="M200.0664 482.44531l-5.60937-4.23437"/></g><g clip-path="url(#i)"><path fill="none" stroke="#000" stroke-linecap="round" stroke-linejoin="round" stroke-miterlimit="10" stroke-width=".5" d="M213.09375 482.77734l-5.03516-4.89843"/></g><g clip-path="url(#j)"><path fill="none" stroke="#000" stroke-linecap="round" stroke-linejoin="round" stroke-miterlimit="10" stroke-width=".5" d="M225.78125 483.28906L222 477.3672"/></g><g clip-path="url(#k)"><path fill="none" stroke="#000" stroke-linecap="round" stroke-linejoin="round" stroke-miterlimit="10" stroke-width=".5" d="M236.71094 483.8086l.99219-6.95704"/></g><g clip-path="url(#l)"><path fill="none" stroke="#000" stroke-linecap="round" stroke-linejoin="round" stroke-miterlimit="10" stroke-width=".5" d="M251.11328 483.79297l-1.1836-6.92578"/></g><g clip-path="url(#m)"><path fill="none" stroke="#000" stroke-linecap="round" stroke-linejoin="round" stroke-miterlimit="10" stroke-width=".5" d="M261.89844 483.26172l3.875-5.86328"/></g><g clip-path="url(#n)"><path fill="none" stroke="#000" stroke-linecap="round" stroke-linejoin="round" stroke-miterlimit="10" stroke-width=".5" d="M274.79688 482.9375l4.70703-5.21875"/></g><g clip-path="url(#o)"><path fill="none" stroke="#000" stroke-linecap="round" stroke-linejoin="round" stroke-miterlimit="10" stroke-width=".5" d="M287.4375 482.10938l6.0586-3.5586"/></g><g clip-path="url(#p)"><path fill="none" stroke="#000" stroke-linecap="round" stroke-linejoin="round" stroke-miterlimit="10" stroke-width=".5" d="M288.3164 481.58984l-1.04296-.64062"/></g><g clip-path="url(#q)"><path fill="none" stroke="#000" stroke-linecap="round" stroke-linejoin="round" stroke-miterlimit="10" stroke-width=".5" d="M300.5586 481.72656l6.4453-2.79687"/></g><g clip-path="url(#r)"><path fill="none" stroke="#000" stroke-linecap="round" stroke-linejoin="round" stroke-miterlimit="10" stroke-width=".5" d="M301.4961 481.32031l-.96094-.76562"/></g><g clip-path="url(#s)"><path fill="none" stroke="#000" stroke-linecap="round" stroke-linejoin="round" stroke-miterlimit="10" stroke-width=".5" d="M313.85156 481.67188l6.49219-2.6875"/></g><g clip-path="url(#t)"><path fill="none" stroke="#000" stroke-linecap="round" stroke-linejoin="round" stroke-miterlimit="10" stroke-width=".5" d="M314.79297 481.28125l-.94531-.78125"/></g><g clip-path="url(#u)"><path fill="none" stroke="#000" stroke-linecap="round" stroke-linejoin="round" stroke-miterlimit="10" stroke-width=".5" d="M327.17969 481.71094l6.46094-2.76563"/></g><g clip-path="url(#v)"><path fill="none" stroke="#000" stroke-linecap="round" stroke-linejoin="round" stroke-miterlimit="10" stroke-width=".5" d="M328.1211 481.3086l-.95704-.76563"/></g><g clip-path="url(#w)"><path fill="none" stroke="#000" stroke-linecap="round" stroke-linejoin="round" stroke-miterlimit="10" stroke-width=".5" d="M340.21094 480.36719l7.02734-.07422"/></g><g clip-path="url(#x)"><path fill="none" stroke="#000" stroke-linecap="round" stroke-linejoin="round" stroke-miterlimit="10" stroke-width=".5" d="M341.23438 480.35547l-.58594-1.07813"/></g><g clip-path="url(#y)"><path fill="none" stroke="#000" stroke-linecap="round" stroke-linejoin="round" stroke-miterlimit="10" stroke-width=".5" d="M353.80469 481.69531l6.47265-2.73047"/></g><g clip-path="url(#z)"><path fill="none" stroke="#000" stroke-linecap="round" stroke-linejoin="round" stroke-miterlimit="10" stroke-width=".5" d="M354.7461 481.29688l-.95313-.77344"/></g><g clip-path="url(#A)"><path fill="none" stroke="#000" stroke-linecap="round" stroke-linejoin="round" stroke-miterlimit="10" stroke-width=".5" d="M368.35938 483.21875l3.99609-5.78125"/></g><g clip-path="url(#B)"><path fill="none" stroke="#000" stroke-linecap="round" stroke-linejoin="round" stroke-miterlimit="10" stroke-width=".5" d="M380.60938 482.05078l6.125-3.44531"/></g><g clip-path="url(#C)"><path fill="none" stroke="#000" stroke-linecap="round" stroke-linejoin="round" stroke-miterlimit="10" stroke-width=".5" d="M381.5 481.55078l-1.03125-.66015"/></g><g clip-path="url(#D)"><path fill="none" stroke="#000" stroke-linecap="round" stroke-linejoin="round" stroke-miterlimit="10" stroke-width=".5" d="M393.4961 480.72266l6.98046-.78516"/></g><g clip-path="url(#E)"><path fill="none" stroke="#000" stroke-linecap="round" stroke-linejoin="round" stroke-miterlimit="10" stroke-width=".5" d="M394.51172 480.60547l-.69531-1.01172"/></g><g clip-path="url(#F)"><path fill="none" stroke="#000" stroke-linecap="round" stroke-linejoin="round" stroke-miterlimit="10" stroke-width=".5" d="M406.90625 481.23047l6.79297-1.80078"/></g><g clip-path="url(#G)"><path fill="none" stroke="#000" stroke-linecap="round" stroke-linejoin="round" stroke-miterlimit="10" stroke-width=".5" d="M406.90625 481.23047l-1.66797-1.80078"/></g><g clip-path="url(#H)"><path fill="none" stroke="#000" stroke-linecap="round" stroke-linejoin="round" stroke-miterlimit="10" stroke-width=".5" d="M420.1289 480.76953l6.97266-.8789"/></g><g clip-path="url(#I)"><path fill="none" stroke="#000" stroke-linecap="round" stroke-linejoin="round" stroke-miterlimit="10" stroke-width=".5" d="M421.14453 480.64063l-.70703-1.00391"/></g><g clip-path="url(#J)"><path fill="none" stroke="#000" stroke-linecap="round" stroke-linejoin="round" stroke-miterlimit="10" stroke-width=".5" d="M433.46484 479.75l6.9336 1.16016"/></g><g clip-path="url(#K)"><path fill="none" stroke="#000" stroke-linecap="round" stroke-linejoin="round" stroke-miterlimit="10" stroke-width=".5" d="M434.47656 479.91797l-.39062-1.16406"/></g><g clip-path="url(#L)"><path fill="none" stroke="#000" stroke-linecap="round" stroke-linejoin="round" stroke-miterlimit="10" stroke-width=".5" d="M446.7539 480.69922l6.98829-.73828"/></g><g clip-path="url(#M)"><path fill="none" stroke="#000" stroke-linecap="round" stroke-linejoin="round" stroke-miterlimit="10" stroke-width=".5" d="M447.76953 480.58984l-.6875-1.01562"/></g><g clip-path="url(#N)"><path fill="none" stroke="#000" stroke-linecap="round" stroke-linejoin="round" stroke-miterlimit="10" stroke-width=".5" d="M460.25781 479.13281l6.60938 2.39063"/></g><path fill="none" stroke="#000" stroke-linecap="round" stroke-linejoin="round" stroke-miterlimit="10" stroke-width=".5" d="M461.21875 479.48047l-.17188-1.21485"/><g clip-path="url(#O)"><path fill="none" stroke="#000" stroke-linecap="round" stroke-linejoin="round" stroke-miterlimit="10" stroke-width=".5" d="M147.1836 468.5l-6.3672-2.96875"/></g><path fill="none" stroke="#000" stroke-linecap="round" stroke-linejoin="round" stroke-miterlimit="10" stroke-width=".5" d="M147.1836 468.5l.1289 2.44922m13.05469-2.19531l-6.10547-3.48047m6.10547 3.48047l-.07031 2.45312m12.67578-1.57422l-4.6836-5.23828m4.6836 5.23828l-.84766 2.30078m13.84766-2.05078l-4.0547-5.73828m4.0547 5.73828l-1.10547 2.1914m14.41797-2.1914l-4.05078-5.73828m4.05078 5.73828l-1.10547 2.1914m14.28515-2.09765l-3.77734-5.92578m3.77734 5.92578l-1.21093 2.13672m14.76172-2.30078l-4.25-5.59766m3.6328 4.78125l-.51562 1.11328m13.96094.01172l-3.27734-6.21484m2.80078 5.3125l-.6875 1.01172m12.66406.29297l.35156-7.01953m-.30078 5.99609l-1.10937.52344m13.3828.30468l2.33595-6.6289m12.03515 6.82812l.22656-7.02343m-.1953 6l-1.10157.53906m12.58594-.08203l3.82031-5.89453m-3.26563 5.03906L287.89062 469m13.66797.73437l4.44532-5.4414m-3.79688 4.64844L301 468.70312m13.41016.57422l5.37109-4.52734m-4.58984 3.8711l-1.14063-.46094m13.03125-.02344l6.65625-2.2461m-5.6875 1.91797l-.89062-.83984m13.1328-.71094l6.86329 1.51172m-5.86328-1.29297l-.32813-1.17969m12.76953.53125l6.61329 2.3711m-5.65235-2.02735l-.17578-1.21093m12.66016 3.55078l6.35547-2.9961m-5.4336 2.5586l-.98047-.73438m13.58594 1.5625l5.92969-3.77734m-5.0664 3.22656l-1.06641-.60547m13.80078 1.53907l5.36328-4.54297m-4.58203 3.88281l-1.14063-.45703m13.30078.58203l6.10938-3.47266m-5.21875 2.96485l-1.03906-.65625m15.26953 2.71093l2.4961-6.5664m-2.13282 5.61328l-1.21485.15234m13.35157.36328l4.1289-5.6914m8.23438 4.64844l6.03125-3.60547m7.14062 3.34375l6.31641-3.08203m-5.39453 2.6328l-.99219-.71874"/><g clip-path="url(#P)"><path fill="none" stroke="#000" stroke-linecap="round" stroke-linejoin="round" stroke-miterlimit="10" stroke-width=".5" d="M146.24219 456.40625l-4.48438-5.41406"/></g><path fill="none" stroke="#000" stroke-linecap="round" stroke-linejoin="round" stroke-miterlimit="10" stroke-width=".5" d="M145.58984 455.61719l-.46875 1.13281m14.15235-.13281l-3.91406-5.83594m3.34375 4.98828l-.57813 1.07813m14.64844-.36328l-4.28516-5.57032m4.28516 5.57031l-1.01563 2.23438m14.1836-2.1289l-3.9922-5.78126m3.41017 4.94141l-.5625 1.08594m13.62109.17969l-2.3125-6.63672m1.97656 5.67187l-.83594.90235m14.79297-.0586l-2.92578-6.39062m2.5 5.46093l-.7461.97266m14.8047-.21094l-3.5625-6.05469m3.04296 5.17579l-.64062 1.04297m14.1914-.01563l-2.99609-6.35547m2.5586 5.4336l-.73438.98046m12.35156.21875l1.27735-6.91015m9.6289 5.20703l6.09375-3.5039m13.13672 3.78124l-5.73828-4.05469m19.66406 1.53125l-6.95703.9922m5.94531-.84766l.72266.98828m12.99219-2.66797l-5.73438 4.0625m13.79297-4.60938l4.77735 5.15235m8.42968-5.04688l4.99219 4.94531m9.7461-5.8203l2.14843 6.6914m-1.83594-5.71485l.85547-.8828m11.7461.0625l2.94922 6.3789m-2.51954-5.44922l.7422-.97656m10.10546 3.30078l7.02734-.125m-6.0039.10547l-.59766-1.07422m13.10156 2.23828l6.60157-2.41406m-5.64063 2.0625l-.91406-.82031m13.67187 1.95312l5.79297-3.97656m-5.79297 3.97656l-2.17578-1.13672m15.67188 1.3789l5.42969-4.46093m-5.4297 4.46094l-2.26562-.9414m16.15235 1.49609l4.28515-5.57032m-4.28515 5.57031l-2.41797-.41015m15.74219.41406l4.26953-5.57812m-3.64844 4.76562l-1.21094-.19922m14.84766 1.52735l2.38672-6.60938m-2.04297 5.64844l-1.21094.17187m12.85547-.0664l5.03516-4.90235m-4.30079 4.19141l-1.16796-.375"/><g clip-path="url(#Q)"><path fill="none" stroke="#000" stroke-linecap="round" stroke-linejoin="round" stroke-miterlimit="10" stroke-width=".5" d="M144.58203 443.84766l-1.16406-6.9297"/></g><g clip-path="url(#R)"><path fill="none" stroke="#000" stroke-linecap="round" stroke-linejoin="round" stroke-miterlimit="10" stroke-width=".5" d="M144.41016 442.83984l-.97266.7461"/></g><path fill="none" stroke="#000" stroke-linecap="round" stroke-linejoin="round" stroke-miterlimit="10" stroke-width=".5" d="M156.94922 443.8789l.73047-6.98827m-.625 5.96875l-1.13672.46093m14.02344.50781l1.3789-6.89062m-1.17969 5.89063l-1.17578.35156m15.15625.71484l-.35156-7.01953m.30078 5.9961l-1.05469.6289m14.64454.375l-.80078-6.98047m.68359 5.96485l-1.00781.6953m12.36718-.08202l3.34375-6.1797m-2.85547 5.28126l-1.22656-.00781m14.39844 1.0703l2.65625-6.5078m-2.26953 5.5625l-1.21875.12109m13.26172.30078l4.42578-5.46094m-3.78125 4.66797l-1.20313-.23437m15.46094 1.7539l1.2539-6.91406m-1.07421 5.91016l-1.16797.3711m12.57813-.21485l4.70312-5.21875m-4.01953 4.46094l-1.1914-.29688m12.78905-.61719l6.77344-1.8711m7.11719-1.17577l5.6211 4.21875m13.25-4.29688l-5.4961 4.3789m17.28906-5.48437l-2.44922 6.58594m2.09375-5.625l1.21485-.16406m12.44922-.79688l-2.4375 6.58985m2.08203-5.63281l1.21875-.16407m11.26562-1.01172l-.0625 7.02735m.05469-6.00781l1.08594-.5625m12.9375-.38282l-1.46485 6.875m1.25-5.875l1.1797-.33593m9.92577 5.85156l3.38281-6.15625m8.38282 4.4336l6.48437-2.70704m-5.54297 2.3125l-.94922-.77734m13.09375-.71875l6.94141 1.0703m-6.9414-1.0703l-.8086-2.31641m14.2461 3.92188l6.6953-2.14063m-6.6953 2.14063l-1.75391-1.71094m15.58594 2.71875l5.66406-4.15625m-5.66406 4.15625l-2.21094-1.0664m3.03515.46093l-1.10546-.53125m13.64453 1.20312l5.5664-4.28906m-5.5664 4.28906l-2.23438-1.01171m3.04297.39062l-1.11719-.50781m14.45703 1.91015l3.89844-5.84765m-3.33203 4.9961l-1.21875-.1211m13.72266.79297l4.39062-5.48829m-4.39062 5.48829l-2.41016-.45704"/><g clip-path="url(#S)"><path fill="none" stroke="#000" stroke-linecap="round" stroke-linejoin="round" stroke-miterlimit="10" stroke-width=".5" d="M144.86719 430.47266l-1.73438-6.8086"/></g><g clip-path="url(#T)"><path fill="none" stroke="#000" stroke-linecap="round" stroke-linejoin="round" stroke-miterlimit="10" stroke-width=".5" d="M144.61719 429.48047l-.91016.82812"/></g><path fill="none" stroke="#000" stroke-linecap="round" stroke-linejoin="round" stroke-miterlimit="10" stroke-width=".5" d="M157.90234 430.53125l-1.17578-6.92578m1.0039 5.91797l-.96874.75m12.92187.17968l1.89453-6.76953m-1.62109 5.78516l-1.19531.26172m14.01953.65234l2.32813-6.6289m-1.98829 5.66406l-1.21484.1836m13.85938.64843l2.98828-6.36328m-2.55078 5.4375l-1.22657.0586m13.3086.35155l4.57812-5.33203m-3.91016 4.5547l-1.19921-.26563m13.5039.70312l5.26563-4.65234m-4.5 3.97265l-1.14844-.42968m13.48047.83984l5.69922-4.11328m-4.8711 3.51562l-1.09765-.54297m14.25 1.83594l4.3711-5.5039m-4.3711 5.5039l-2.41406-.44922m17.45312 1.1797l.92188-6.96485m-.78907 5.95312l-1.14844.42969m15.19532.58984l-.8086-6.98046m14.7422 3.49218l-.01954-.20312-.0586-.1914-.09374-.17579-.46094-.375-.1914-.0586-.19923-.01952-.19921.01953-.19141.05859-.45703.375-.09766.17578-.05469.1914-.01953.20313.01953.19922.0547.1914.09765.17579.45703.375.1914.0586.19922.01952.19922-.01953.1914-.0586.46095-.375.09375-.17577.05859-.1914.01953-.19923m15.71485-.80468l-6.84375 1.60546m17.0703-4.30078l-.66796 6.9961m.57031-5.97657l1.13281-.47265m9.58985.34375l4.71094 5.21484m8.41796-5.03125l5.08594 4.84766m-4.34765-4.14453l.33203-1.1797m11.36328 3.6836l6.84765-1.5664m-5.85156 1.33984l-.80469-.92969m13.03516.48828l7.02344-.23046m-6 .1953l-.61328-1.0625m13.39453 2.77345l6.04687-3.58204m-5.16797 3.0625l-1.04687-.64062m15.10547-3.85547l2.80078 6.44922m-2.80078-6.44922l1.53125-1.91797m10.20312 3.28516l5.96094 3.71484m7.4375.1289l5.79688-3.96874m-5.79688 3.96875l-2.17578-1.14063m3.01953.5625l-1.08984-.57031m13.07422.10938l6.76953-1.89454m-6.76953 1.89454l-1.69141-1.77735m2.67578 1.5l-.84375-.88672m13.6289 2.15625l5.85938-3.8789m-5.85937 3.8789l-2.15625-1.17187m3.0078.60937l-1.07812-.58593m13.5586 1.17578l5.82422-3.9297m-5.82422 3.9297l-2.16797-1.15235m3.01562.57813l-1.08203-.57422"/><g clip-path="url(#U)"><path fill="none" stroke="#000" stroke-linecap="round" stroke-linejoin="round" stroke-miterlimit="10" stroke-width=".5" d="M145.60547 416.8789l-3.21094-6.25"/></g><path fill="none" stroke="#000" stroke-linecap="round" stroke-linejoin="round" stroke-miterlimit="10" stroke-width=".5" d="M145.13672 415.96875l-.69922 1.00781m14.02344.09766l-2.29297-6.64063m1.96094 5.67578l-.83985.89844m14.15625.16406l-1.63281-6.83593m1.39844 5.83984l-.92188.8125m13.79297.27735l-.27344-7.02344m.23438 6l-1.0586.61719m13.11329.21093l2.32422-6.63281m-1.98438 5.66797l-1.21484.1836m12.39843-.62891l5.90625-3.8125m-5.04687 3.2578l-1.07031-.59765m13.30859.7539l6.34375-3.01562m-6.34375 3.01563l-1.97266-1.46094m15.52344 1.88281l5.8711-3.85937m-5.8711 3.85937l-2.15234-1.17578m17.16406 2.53516l2.47656-6.57813m-2.11719 5.6211l-1.21484.15625m13.50781.46484l3.8047-5.91016m-3.25 5.05079l-1.22267-.10157m12.92579-.09765l5.91797-3.79297m-5.0547 3.24219l-1.0703-.60157m15.98046-4.21875l1 6.95313m-.85547-5.9414l.9922-.72657m14.11327-.01563l-2.86718 6.41407m17.30078-5.6211l-5.10547 4.82422m12.80469-4.13281l6.125 3.44531m-5.23438-2.94531l.03125-1.22656m12.83203.11328l5.25 4.67187m-4.48828-3.99218l.28906-1.19141m12.78516.03125l4.20703 5.6289m-3.59375-4.80859l.52344-1.10937m10.8125 2.55469l6.9414 1.10156m-5.93359-.9414l-.39844-1.16016m13.17579-.27735l6 3.65625m-6-3.65625l.14062-2.44922m16.01953.76563l.3086 7.01953m-.3086-7.01953l2.11328-1.2461m13.98438 2.4297l-5.25781 4.65624m5.2578-4.65625l2.30079.85547m-3.0625-.17969l1.14844.42969m11.10156-2.19922l-1.60547 6.84375m1.60547-6.84375l2.3711-.625m10.40234.54297l-.51954 7.00781m.51954-7.00781l2.24609-.98828m-2.32422 2.00781l1.125-.4961m8.5039 2.70313l7.00782.55469m-5.98828-.47656l-.48828-1.125m13.03906-.01172l6.5 2.66797m-5.55469-2.27735l-.1211-1.22265"/><g clip-path="url(#V)"><path fill="none" stroke="#000" stroke-linecap="round" stroke-linejoin="round" stroke-miterlimit="10" stroke-width=".5" d="M147.50781 400.63672l-7.01562-.39844"/></g><path fill="none" stroke="#000" stroke-linecap="round" stroke-linejoin="round" stroke-miterlimit="10" stroke-width=".5" d="M146.48828 400.57813L147 401.6914m9.42578 2.14453l1.77734-6.79688m9.23438 4.86719l6.38281-2.9375m8.01953 4.28516l4.21094-5.62891m-3.59766 4.8086l-1.21093-.1875m12.9414-.10938l6.15235-3.39453m-5.25781 2.89844l-1.02735-.66797m13.01172-.44141l7.02344-.1836m-7.02344.1836l-1.20703-2.13672m14.6875 3.11328l6.69531-2.14062m-6.69531 2.14062l-1.75781-1.71094m14.90625.70704l7.02734-.12891m-6.0039.10938l-.59766-1.07422m15.13281 4.30468l2.53906-6.55078m-2.53906 6.55078l-2.4336.28907m17.77344-.13282l-1.51172-6.86328m1.29297 5.86328l-.93359.79688m16.21484-.76172l-5-4.9375m4.26953 4.21875l-.35156 1.17578m15.11719-1.51953l-6.4414-2.8086m5.5039 2.39844l.09375 1.22266m14.42188-1.76953l-6.96875-.89844m5.95312.76953l.4336 1.14453m13.46093-3.20703l-6.09765 3.48828m5.21093-2.98046l1.03906.65234m12.54688-1.95313l-4.86719 5.07032m4.86719-5.07032l2.35938.67188m11.66015.28125l-6.27344 3.16406m6.27344-3.16406l2.0039 1.41797m11.6836.02734l-7.01953.27344m6-.23047l.61719 1.0586m12.75 1.46093l-5.08594-4.85156m5.08594 4.85156l-.66406 2.36328m14.17578-6.98828l-5.47657 4.40235m5.47657-4.40235l2.2539.96485m9.73828-1.98047l-2.83203 6.43359m2.83203-6.4336l2.44532-.18359m11.23437.3711l-3.5625 6.05859m3.04297-5.17578l1.22656.05078m11.91016-1.25l-2.16406 6.6875m1.84765-5.71484l1.20703-.21094m11.1211-.92188l.4414 7.01172m-.4414-7.01172l2.08984-1.28906m11.1875 1.28906l.51953 7.00782m-.51953-7.00782l2.07422-1.30859m11.01563 1.33203l.96875 6.96094m-.82813-5.94531l.99219-.72266"/><g clip-path="url(#W)"><path fill="none" stroke="#000" stroke-linecap="round" stroke-linejoin="round" stroke-miterlimit="10" stroke-width=".5" d="M144.63281 383.66797l-1.26562 6.91015"/></g><path fill="none" stroke="#000" stroke-linecap="round" stroke-linejoin="round" stroke-miterlimit="10" stroke-width=".5" d="M144.44922 384.67188l1.17187-.3711m12.09375-.66797l-.79687 6.98047m.67969-5.96484l1.14062-.44922m10.65625-.36719l2.46875 6.58203m-2.10937-5.625l.8125-.91797m10.03906 2.16016l6.67969 2.1836m-5.70703-1.8672l-.21094-1.20702m12.41015 2.46093l6.96485-.95312m-6.96485.95312l-1.43359-1.99219m14.71875 1.47266l7.02734.08203m-7.02734-.08203l-1.125-2.17969m14.4414 2.1836l7.02344.07422m-6.0039-.0625l-.5625-1.08985m13.10547 2.41406l6.52734-2.59765m-5.57813 2.21875l-.93359-.79297m19.91016.94922l-6.6914-2.15235m5.71483 1.83985l.21875 1.20703m13.58985.0664l-5.72656-4.07421m5.72656 4.07422l-.32031 2.43359m14.1289-3.42969l-6.71484-2.08203m6.71484 2.08203l.45703 2.41016m-1.43359-2.71485l.45703 2.41407m13.98438-2.92578l-7.01172-.44922m7.01172.44922l1.01172 2.23437m-2.03125-2.30078l1.01171 2.23438m13.31641-2.10157l-7-.58203m7 .58203l.96875 2.2539m-1.98828-2.33983l.97266 2.2539m13.37109-2.3164l-7.01953-.28516m7.01953.28515l1.0625 2.21485m-2.08203-2.2539l.53125 1.10546m13.28125-3.0586l-5.97656 3.69923m5.97656-3.69922l2.1211 1.23437m10.35937-2.16015l-4.3047 5.55078m4.3047-5.55078l2.41797.41406m11.41406.07812l-5.33985 4.56641m5.33985-4.5664l2.28515.89843m-3.0625-.23437l1.14454.44921m13.16796-.82812l-5.78125 3.9961m5.78125-3.9961l2.1797 1.1289m-3.01954-.54687l1.08984.5625m11.7461-2.28906l-3.14063 6.28515m3.14063-6.28515l2.45312-.0625m-2.91015.97656l1.22656-.03125m12.64062-.83594l-3.33203 6.19141m3.33203-6.1914l2.45313.01171m11.01172.07813l-3.63281 6.01172m3.6328-6.01172l2.44923.13281m-2.97657.74219l1.22266.0664m11.84766-1.28906l-2.08594 6.70703m2.08594-6.70703l2.41015-.45703m8.61328.52734l2.4961 6.56641m-2.13281-5.61328l.80859-.92188m14.4336-.10156l-2.08594 6.71094m1.78125-5.73438l1.20703-.23046m14.05468.33984l-5.36718 4.53515m4.58593-3.875l1.13672.45313"/><g clip-path="url(#X)"><path fill="none" stroke="#000" stroke-linecap="round" stroke-linejoin="round" stroke-miterlimit="10" stroke-width=".5" d="M140.65234 372.74219l6.69532 2.1289"/></g><path fill="none" stroke="#000" stroke-linecap="round" stroke-linejoin="round" stroke-miterlimit="10" stroke-width=".5" d="M153.90234 372.98047l6.82813 1.65625m-5.83594-1.41797l-.30469-1.1875m14.2461-1.24219l3.58984 6.03906m-3.07031-5.16015l.64062-1.05078m11.76563.4375l4.36719 5.50781m-4.3672-5.50781l.98438-2.25m11.79297 2.78125l5.4414 4.44531m-5.4414-4.44531l.48047-2.40625m12.05078 4.8711l7.01172-.48438m-7.01172.48437l-1.29687-2.08203m14.99219 3.4414l6.25-3.20702m-5.34375 2.74218l-1.00391-.70312m18.67969 2.35156l-4.28125-5.57031m3.65625 4.76172l-.50782 1.11328m15.8125-2.90235l-7.01562-.375m7.01562.375l1.03516 2.22657m11.48047-.17188l-5.41406-4.48437m5.41406 4.48437l-.4961 2.40235m13.94532-2.57813l-5.6836-4.13281m5.6836 4.13281l-.34375 2.42969m-.48438-3.03125l-.17187 1.21484m14.9375-2.08984l-6.92578-1.17969m6.92578 1.17969l.77343 2.32812m12.58594-3.14062l-7.01562.44531m7.01562-.44531l1.28516 2.08594m11.97656-2.4961l-6.91016 1.26172m6.91016-1.26172l1.52344 1.92578m11.67187-2.39844l-6.67187 2.21094m6.67187-2.21094l1.77344 1.69141m10.625-3.13672l-4.83594 5.10156m4.83594-5.10156l2.36328.65625m10.32813-1.125l-3.58985 6.03906m3.58985-6.03906l2.45312.11719m12.23438 1.38281l-6.33594 3.03906m6.33594-3.03906L375.5 373.7422m10.99219-2.03125l-5.64063 4.1914m5.64063-4.1914l2.21484 1.05469m-3.03516-.44532l1.10547.52735m12.90235-1.29688l-5.38672 4.51172m5.38672-4.51172l2.27343.92188m-3.05859-.26563l1.13672.46094m12.76172-1.33594l-4.98438 4.95313m4.98438-4.95313l2.34375.72656m-3.0664-.0078l1.17187.36327m12.54687-1.36719l-4.34375 5.52344m4.34375-5.52344l2.41406.4297m-3.04687.37109l1.20703.21875m12.8711-.91407l-4.60547 5.3086m4.60546-5.3086l2.39063.55079M453.25781 372l-6.02344 3.61719m5.14844-3.09375l1.05078.63281m13.64063.59766l-7.02735.10546"/><g clip-path="url(#Y)"><path fill="none" stroke="#000" stroke-linecap="round" stroke-linejoin="round" stroke-miterlimit="10" stroke-width=".5" d="M467.07422 373.7539l1.1836 2.15235"/></g><g clip-path="url(#Z)"><path fill="none" stroke="#000" stroke-linecap="round" stroke-linejoin="round" stroke-miterlimit="10" stroke-width=".5" d="M140.61719 361.4375l6.76562-1.89063"/></g><path fill="none" stroke="#000" stroke-linecap="round" stroke-linejoin="round" stroke-miterlimit="10" stroke-width=".5" d="M154.96875 363.10938l4.69531-5.23047m-4.69531 5.23046l-2.38281-.59375m14.55469-2.42187l6.98046.80078m-5.96484-.6875l-.44922-1.14062m15.42969-1.9922l1.61719 6.83985m-1.6172-6.83984l1.83985-1.6211m11.45313 1.625l1.66015 6.82813m16-3.33594l-7.02734-.15234m17.58594-3.35547l-1.51563 6.86328m1.29688-5.86328l1.17969-.33203m14.35937 4.92969l-5.52734-4.33594m5.52734 4.33594l-.42969 2.41796m-.375-3.04687l-.21484 1.20703m14.85547-1.5l-6.57031-2.49219m6.5703 2.4922l.3125 2.43358m13-2.41796l-6.5625-2.51954m6.5625 2.51954l.29688 2.43359m12.125-1.11719l-4.77734-5.15234m4.77734 5.15234l-.80078 2.3164m.10547-3.0664l-.40234 1.15625m14.4453-.4375l-4.83984-5.09375m4.13282 4.35547l-.38672 1.16406m15.03906-1.22656l-6.10156-3.49219m6.10156 3.4922l-.07812 2.45312m12.46875-1.40235l-4.25391-5.58984m4.2539 5.58984l-1.02343 2.22656m15.61719-5.88671l-6.8125 1.72656m6.8125-1.72656l1.64843 1.8203m11.57032-2.1328l-6.6211 2.35156m6.6211-2.35156l1.8125 1.65625m-2.77344-1.3125l.90625.82812m13.47265-.83203l-6.82421 1.67188m6.82421-1.67188l1.63282 1.83203m11.67578-.13281l-6.8125-1.72266m5.82031 1.47266l.29297 1.1914m14.0039-2.70312l-6.79296 1.80078m6.79297-1.80078l1.66796 1.79688m11.16407-2.8672l-5.82422 3.9375m5.82422-3.9375l2.16797 1.15235m9.22265-2.55469l-1.97656 6.7422m1.97656-6.7422l2.40235-.49609m12.12109 1.125l-4.39453 5.48438m4.39453-5.48438l2.41406.45703m-3.05078.34375l1.20313.22656m13.30468-.46875l-5.5039 4.3672m5.5039-4.3672l2.25.98438m-3.05078-.34766l2.25.98047m12.58203.01563l-6.9375 1.10156m6.9375-1.10156l1.48047 1.96093m-2.48828-1.80078l.73828.98047m13.61328-.9375l-6.99218.69922"/><g clip-path="url(#aa)"><path fill="none" stroke="#000" stroke-linecap="round" stroke-linejoin="round" stroke-miterlimit="10" stroke-width=".5" d="M467.0586 360.14453l1.35937 2.03906"/></g><path fill="none" stroke="#000" stroke-linecap="round" stroke-linejoin="round" stroke-miterlimit="10" stroke-width=".5" d="M466.03906 360.2461l.6836 1.01952"/><g clip-path="url(#ab)"><path fill="none" stroke="#000" stroke-linecap="round" stroke-linejoin="round" stroke-miterlimit="10" stroke-width=".5" d="M141.625 349.76563l4.75-5.17579"/></g><path fill="none" stroke="#000" stroke-linecap="round" stroke-linejoin="round" stroke-miterlimit="10" stroke-width=".5" d="M155.13281 349.9336l4.36328-5.51173m-4.36328 5.51172l-2.41406-.4414m3.05078-.35938l-1.20703-.22265m12.5625-1.47657l7.00781-.5078m-5.98828.43358l-.65234-1.03906m17.04687-2.60547l-1.1875 6.92579m1.01563-5.91797l1.16406-.38282m11.42578-.66406l.60547 7.0039m-.51563-5.98437l1.02735-.66406m15.01953 5.59766l-5.03516-4.90235m4.30078 4.1875l-.33984 1.17969m15.20703-4.01953l-6.67187 2.21094m6.67187-2.21094L229 347.76562m11.10547 1.39454l-5.80078-3.96485m5.80078 3.96485l-.27344 2.4414m14.19531-4.21875l-7.01562-.41015m5.9961.35156l.51171 1.11328m13.58203-2.5586l-6.53125 2.59766m6.53125-2.59765l1.8711 1.58593m-2.82422-1.20703l.9375.79297m13.28515-1.27734l-6.4414 2.8125m6.4414-2.8125l1.92188 1.52344m8.09375 3.39453l.15625-7.02735m-.15625 7.02735l-2.1914 1.10156m16.78124-1.3086l-2.39062-6.60937m2.39062 6.60938l-1.64843 1.8164m14.71875-1.74219l-1.90235-6.76171m1.90235 6.76171l-1.77344 1.69922m1.4961-2.6836l-.88673.85157m16.64844-1.63672l-6.24219-3.22265m6.24219 3.22265l.03125 2.45313m13.61719-3.41016l-6.90625-1.3086m6.90625 1.3086l.72656 2.34375m12.57813-2.30078l-6.88672-1.39453m6.88672 1.39453l.69921 2.35156m12.6797-2.83594l-7.01563-.42578m7.01562.42579l1.01953 2.23437m-2.03906-2.29688l.50781 1.1172m13.75782-1.9961l-6.875 1.45703m6.875-1.45703l1.57421 1.88281m11.40235-2.8086l-6.19922 3.3086m6.19922-3.3086l2.03515 1.3711m11.27344-1.38281l-6.1875 3.33203m6.1875-3.33203l2.04297 1.36328m11.0664-1.70313l-5.77343 4.01172m4.9336-3.42578l1.08984.5586m12.9414-1.3086l-5.52734 4.33985m5.52734-4.33985l2.24219.9961m-3.04687-.36329l1.12109.4961m13.65625.23828l-6.84375 1.60547m6.84375-1.60547l1.61719 1.84766m-2.61328-1.61329l1.61718 1.84375m12.78125-1.47656l-7.01562.40235"/><g clip-path="url(#ac)"><path fill="none" stroke="#000" stroke-linecap="round" stroke-linejoin="round" stroke-miterlimit="10" stroke-width=".5" d="M467.07031 346.97656l1.27344 2.09766"/></g><path fill="none" stroke="#000" stroke-linecap="round" stroke-linejoin="round" stroke-miterlimit="10" stroke-width=".5" d="M466.04688 347.03516l1.27734 2.09765m-2.29688-2.03906l.63672 1.05078"/><g clip-path="url(#ad)"><path fill="none" stroke="#000" stroke-linecap="round" stroke-linejoin="round" stroke-miterlimit="10" stroke-width=".5" d="M147.03125 335.64063l-6.0625-3.5547"/></g><path fill="none" stroke="#000" stroke-linecap="round" stroke-linejoin="round" stroke-miterlimit="10" stroke-width=".5" d="M146.14844 335.125l-.05078 1.22266m9.52734.59765l3.3789-6.16406m-3.3789 6.16406l-2.45313-.03515m2.94532-.86329l-1.22656-.01562m12.43359-.98438l6.61328-2.36718m-6.61328 2.36719l-1.8164-1.64844m16.8125-2.65235l3.25 6.23438m-2.77735-5.32813l.69531-1.01171m15.72266.30078l-3.89844 5.84375m3.89844-5.84375l2.4414.24218m12.21875 3.89844l-6.58984-2.4375m6.58984 2.4375l.32813 2.4336m-1.28906-2.78907l.16406 1.21875m9.96094 1.32422l1.71093-6.8125m-1.71093 6.8125l-2.38282.58985m19.7422-5.47266l-6.375 2.95312m6.375-2.95312l1.95312 1.48047m-2.88282-1.05078l.98047.73828m12.82422-1.8789l-5.4961 4.375m5.4961-4.375l2.25.97655m8.52344-2.29687l-.41406 7.01562m.41406-7.01562l2.23047-1.02344m12.3164 1.32422l-2.875 6.41406m2.875-6.41406l2.44532-.16406m11.24218.35937l-3.625 6.01953m3.625-6.01953l2.45313.13281m7.67969-.35546l2.74218 6.46875m11.82032.27734l.24609-7.02344m-.2461 7.02344l-2.20312 1.07422m2.23828-2.09766l-1.10156.53906m16.2461.02344l-3.48048-6.10156m3.48047 6.10156l-1.3125 2.07422m14.8125-2.1875l-3.85156-5.875m3.85156 5.875l-1.17968 2.15235M360 335.7539l-5.91797-3.78125M360 335.7539l-.19531 2.4453m14.0586-4.15233l-7.01563-.3672m7.01562.3672l1.03906 2.22265m-2.05859-2.27734l.51953 1.11328m13.72656-2.05469l-6.83593 1.625m6.83593-1.625l1.6211 1.83985m-2.61719-1.60547l.8125.92187m13.13281-2.08594l-6.10547 3.48438m6.10547-3.48438l2.07422 1.3125m10.59766 2.98829l-4.82032-5.1172m4.1211 4.3711l-.39453 1.16406m15.35156-4.02734l-6.70703 2.10156m5.73047-1.79297l.875.85938m11.97656-3.0625l-3.82422 5.89062m3.26953-5.03515l1.22266.10547m14.10547.99609l-6.74219 1.97656m6.74219-1.97656l1.71484 1.75781m11.51563-2.01172l-6.57422 2.48438"/><g clip-path="url(#ae)"><path fill="none" stroke="#000" stroke-linecap="round" stroke-linejoin="round" stroke-miterlimit="10" stroke-width=".5" d="M466.84766 332.6211l1.84375 1.61718"/></g><path fill="none" stroke="#000" stroke-linecap="round" stroke-linejoin="round" stroke-miterlimit="10" stroke-width=".5" d="M465.89063 332.98047l.92187.8125"/><g clip-path="url(#af)"><path fill="none" stroke="#000" stroke-linecap="round" stroke-linejoin="round" stroke-miterlimit="10" stroke-width=".5" d="M147.41797 319.74219l-6.83594 1.61328"/></g><path fill="none" stroke="#000" stroke-linecap="round" stroke-linejoin="round" stroke-miterlimit="10" stroke-width=".5" d="M147.41797 319.74219l1.6211 1.84375m5.55468 1.1836l5.44531-4.44142m-5.44531 4.44141l-2.26172-.95312m14.9375-.2422l6.72266-2.05077m-6.72266 2.05078l-1.73437-1.73438m15.17968-.67187l6.46094 2.76172m-5.51953-2.35938l-.10547-1.22265m19.15625 1.51953l-6.89453 1.36328m5.89063-1.16797l.77734.95313m13.15234 1.26171l-6.11719-3.45703m6.1172 3.45703l-.0625 2.45313m-.82813-2.95703l-.0625 2.45312m14.42578-2.26172l-6.42969-2.83203m6.42969 2.83203l.17969 2.44532m-1.11328-2.85938L226.35155 324m14.28906-2.71875l-6.87109-1.46484m6.8711 1.46484l.67578 2.35547m-1.67578-2.57031l.33984 1.17968m13.92969-2.62109l-6.78125 1.84375m6.78125-1.84375l1.67968 1.78906m10.51172-3.55078l-4.53515 5.36719m3.875-4.58594l1.19922.25781m9.5664-1.73828l1.88672 6.76953m-1.61328-5.78515l.89062-.84766m12.01953-.09765l2.15235 6.6875m-2.15235-6.6875l1.70704-1.76172m14.66797 2.20703l-3.97266 5.79687m3.97265-5.79687l2.44141.27734m8.49219 6.11328l.79297-6.98047m-.79297 6.98047l-2.28125.89844m16.15625-.8789l-.32422-7.01954m.32422 7.01953l-2.11328 1.25m2.0664-2.27343l-1.05468.625m15.5039.17187l-2.5-6.5664m2.5 6.5664l-1.61719 1.84766m1.25391-2.80469l-.8086.92578m14.73438-.07422l-2.9961-6.35547m2.9961 6.35547l-1.46875 1.96485m1.03125-2.89063l-.73437.98438m16.5039-3.1836l-7.02734-.10547m7.02734.10547l1.1172 2.1836m12.1914-2.07813l-7.01953-.32031m7.01953.32031l1.05469 2.21875m11.91406-3.90625l-6.32422 3.05469m5.40625-2.60938l.98828.72657m12.42969-2.25782l-4.69531 5.22657m15.3789.89062l.57031-7.0039m-.5703 7.0039l-2.25392.97266m17.53907-1.39453l-3.375-6.16407m2.88672 5.26954l-.67579 1.02343m15.25782-5.71484l-4.92969 5.01172m4.92969-5.01172l2.35156.69922m10.96875-.6914l-4.9414 4.99608"/><g clip-path="url(#ag)"><path fill="none" stroke="#000" stroke-linecap="round" stroke-linejoin="round" stroke-miterlimit="10" stroke-width=".5" d="M466.03125 318.05078l2.35156.70313"/></g><path fill="none" stroke="#000" stroke-linecap="round" stroke-linejoin="round" stroke-miterlimit="10" stroke-width=".5" d="M465.3125 318.77734l1.17578.35157"/><path fill="#ff3030" fill-rule="evenodd" d="M451.07031 458.77344h7.6914V448.625h-7.6914v10.14844"/><path fill="azure" fill-rule="evenodd" d="M452.90234 450.45703h.83204v5.74219h3.1953v.73828h-4.02734v-6.48047"/><path fill="#ff3030" fill-rule="evenodd" d="M255.78125 449.89453h7.69531V439.75h-7.69531v10.14453"/><path fill="azure" fill-rule="evenodd" d="M257.61719 441.58203h.83203v5.73828h3.1914v.74219h-4.02343v-6.48047"/><path fill="#ff3030" fill-rule="evenodd" d="M348.98828 449.89453h7.6914V439.75h-7.6914v10.14453"/><path fill="azure" fill-rule="evenodd" d="M350.82031 441.58203h.83203v5.73828h3.19532v.74219h-4.02735v-6.48047"/><path fill="#00f" fill-rule="evenodd" d="M392.67578 432.14063h8.6211v-10.14454h-8.6211v10.14454"/><path fill="azure" fill-rule="evenodd" d="M394.51172 423.82813h.83203v2.82421h3.28516v-2.82421h.83203v6.48046h-.83203v-2.91796h-3.28516v2.91796h-.83203v-6.48046"/><path fill="#00f" fill-rule="evenodd" d="M192.94922 392.19531h8.6211v-10.14453h-8.6211v10.14453"/><path fill="azure" fill-rule="evenodd" d="M194.78516 383.88281h.83203v2.82422h3.28515v-2.82422h.83594v6.48047h-.83594v-2.91406h-3.28515v2.91406h-.83203v-6.48047"/><path fill="#ff3030" fill-rule="evenodd" d="M211.39844 352.25h7.6914v-10.14453h-7.6914V352.25"/><path fill="azure" fill-rule="evenodd" d="M213.23047 343.9375h.83594v5.73828h3.1914v.74219h-4.02734v-6.48047"/><path fill="#00f" fill-rule="evenodd" d="M374.92188 325.6211h8.62109v-10.14454h-8.6211v10.14453"/><path fill="azure" fill-rule="evenodd" d="M376.75781 317.3086h.83203v2.82421h3.28516v-2.82422h.83594v6.48047h-.83594v-2.91797h-3.28516v2.91797h-.83203v-6.48047"/><path fill="#ffffe0" fill-rule="evenodd" d="M235.22266 399.30078h22.17968v-10.1914h-22.17968v10.1914"/><path fill-rule="evenodd" d="M238.72266 390.9414h.5078v6.29688h-.78515V392.75h-1.39062v-.5586l.5625-.0625.25-.05468.23047-.08985.20312-.14062.17578-.21094.14063-.29297.10547-.39843m4.8125 0l.23047.01953.21875.0586.20703.08593.19922.1211.18359.15234.17187.17578.30078.41797.2422.49218.17968.54688.11328.58203.03906.58984-.03906.59375-.11328.58204-.17969.55468-.24219.5039-.30078.42579-.17187.17969-.1836.15234-.19921.125-.20703.09375-.21875.05469-.23047.01953-.22657-.01953-.21875-.05469-.21093-.09375-.19532-.125-.18359-.15234-.17188-.17969-.30078-.42578-.24609-.5039-.17969-.5547-.10937-.58203-.03906-.59375h.83203l.03125.5625.08203.50391.125.44531.16406.375.1875.30078.21094.21875.22265.13672.22657.04688.22656-.04688.22266-.13672.21093-.21875.1914-.30078.16407-.375.125-.44531.08203-.5039.02735-.5625-.02735-.5625-.08203-.5-.125-.4336-.16406-.36719-.1914-.29297-.21095-.21484-.22265-.1289-.22656-.04688-.22657.04687-.22265.12891-.21094.21484-.1875.29297-.16406.36719-.125.4336-.08203.5-.03125.5625h-.83203l.03906-.58985.10937-.58203.17969-.54688.2461-.49218.30077-.41797.17188-.17578.1836-.15235.1953-.1211.21094-.08593.21875-.0586.22657-.01952m4.95312 0l.23047.01953.21875.0586.20703.08593.19531.1211.1875.15234.17188.17578.30078.41797.24219.49218.17969.54688.11328.58203.03515.58984-.03515.59375-.11328.58204-.1797.55468-.24218.5039-.30078.42579-.17188.17969-.1875.15234-.1953.125-.20704.09375-.21875.05469-.23047.01953-.23047-.01953-.21875-.05469-.20703-.09375-.19531-.125-.1836-.15234-.17187-.17969-.30078-.42578-.2461-.5039-.17968-.5547-.10938-.58203-.03906-.59375h.83203l.03125.5625.08203.50391.125.44531.16016.375.1914.30078.21094.21875.22266.13672.22656.04688.22656-.04688.22266-.13672.21094-.21875.1914-.30078.16407-.375.125-.44531.08203-.5039.02734-.5625-.02734-.5625-.08203-.5-.125-.4336-.16407-.36719-.1914-.29297-.21094-.21484-.22266-.1289-.22656-.04688-.22656.04687-.22266.12891-.21094.21484-.1914.29297-.16016.36719-.125.4336-.08203.5-.03125.5625h-.83203l.03906-.58985.10938-.58203.17969-.54688.24609-.49218.30078-.41797.17188-.17578.18359-.15235.19531-.1211.20703-.08593.21875-.0586.23047-.01952m4.95313 0l.38672.03125.35937.08203.32422.13672.27734.18359.23047.23828.17188.28516.10937.33203.03906.3789-.01953.27344-.0586.23438-.08983.20312-.10938.16797-.1289.14453-.14063.1211-.28516.19921.23047.1172.20703.14843.1836.16797.15234.19531.125.21485.08984.23046.0547.2422.01952.2539-.03515.3125-.10157.32422-.17187.32421-.24219.3086-.30469.26953-.375.21484-.21093.07813-.22657.0625-.24609.03906-.26172.01172-.25781-.01172-.24219-.03906-.22266-.0625-.20703-.07813-.35937-.21484-.28906-.26953-.22266-.3086-.15625-.32421-.09375-.32422-.03125-.3125h.83203l.02734.2539.07813.23438.1211.21484.16406.1836.1914.15234.21875.11328.24219.07422.2539.02344.25391-.02344.24219-.07422.21875-.11328.19531-.15234.16016-.1836.1211-.21484.07812-.23438.02734-.2539-.02734-.25-.07813-.23828-.1211-.21094-.16015-.1836-.19531-.15234-.21875-.11328-.24219-.07422-.2539-.02344-.25391.02344-.24219.07422-.21875.11328-.1914.15235-.16407.18359-.12109.21094-.07813.23828-.02734.25h-.83203l.01953-.25.05469-.24219.08984-.22266.125-.21093.15235-.1875.18359-.17188.20703-.15625.23438-.1289-.28907-.19922-.14062-.1211-.1289-.14453-.10938-.16797-.08985-.20312-.05468-.23438-.02344-.27344h.78906l.02344.21485.0625.1914.10547.16407.13672.14062.16406.11328.1914.08204.20704.04687.21875.01953.22265-.01953.20313-.04688.1914-.08203.16407-.11328.13672-.14062.10546-.16406.06641-.19141.01953-.21485-.01953-.21484-.0664-.1914-.10548-.16407-.13671-.14062-.16407-.11328-.1914-.08204-.20313-.04687-.22265-.01953-.21875.01953-.20703.04688-.19141.08203-.16406.11328-.13672.14062-.10547.16406-.0625.19141-.02344.21485h-.78906l.03906-.37891.10938-.33203.17187-.28516.23047-.23828.28125-.1836.32031-.13671.35938-.08203.38672-.03125"/><path fill="#ffffe0" fill-rule="evenodd" d="M312.80469 352.48438h22.17969v-10.19532h-22.1797v10.19531"/><path fill-rule="evenodd" d="M316.30469 344.125h.50781v6.29297h-.78516v-4.48828h-1.39062v-.5586l.5625-.0625.25-.05468.23047-.08985.20312-.14062.17578-.21094.14063-.29297.10547-.39453m4.8125 0l.23047.01563.21875.05859.20703.08984.19531.11719.1875.15234.16797.17579.30469.41796.24218.4961.1797.54297.11327.58203.03516.58984-.03516.59375-.11328.58203-.17969.55469-.24218.5039-.3047.42579-.16796.17969-.1875.15234-.19531.125-.20703.09375-.21875.05469-.23047.01953-.23047-.01953-.21875-.0547-.20703-.09374-.19531-.125-.1836-.15235-.17187-.17968-.30079-.42578-.24609-.50391-.17969-.55469-.10937-.58203-.03906-.59375h.83203l.03125.5625.08203.50781.125.44141.16015.375.19141.30078.21094.22266.22265.13672.22657.04687.22656-.04687.22266-.13672.21093-.22266.19141-.30078.16016-.375.1289-.4414.08203-.50782.02735-.5625-.02735-.5625-.08203-.5-.1289-.4336-.16016-.36718-.1914-.29297-.21094-.21484-.22266-.1289-.22656-.04688-.22656.04687-.22266.1289-.21094.21485-.1914.29297-.16016.36719-.125.4336-.08203.5-.03125.5625h-.83203l.03906-.58985.10937-.58203.1797-.54297.24608-.4961.30079-.41796.17187-.17579.1836-.15234.1953-.11719.20704-.08984.21875-.0586.23047-.01562m4.95312 0l.23047.01563.21875.05859.20703.08984.19531.11719.1836.15234.17187.17579.3047.41796.24218.4961.17969.54297.10937.58203.03906.58984-.03906.59375-.10937.58203-.1797.55469-.24218.5039-.30469.42579-.17187.17969-.1836.15234-.1953.125-.20704.09375-.21875.05469-.23047.01953-.23047-.01953-.21875-.0547-.20703-.09374-.19531-.125-.1836-.15235-.17187-.17968-.30469-.42578-.24218-.50391-.1797-.55469-.10937-.58203-.03906-.59375h.83203l.03125.5625.07813.50781.1289.44141.16016.375.1914.30078.21094.22266.22266.13672.22656.04687.22656-.04687.22266-.13672.21094-.22266.1914-.30078.16016-.375.1289-.4414.08204-.50782.02734-.5625-.02734-.5625-.08203-.5-.1289-.4336-.16017-.36718-.1914-.29297-.21094-.21484-.22265-.1289-.22657-.04688-.22656.04687-.22266.1289-.21093.21485-.19141.29297-.16016.36719-.1289.4336-.07813.5-.03125.5625h-.83203l.03906-.58985.10938-.58203.17969-.54297.24218-.4961.3047-.41796.17187-.17579.18359-.15234.19531-.11719.20703-.08984.21875-.0586.23047-.01562m4.95313 0l.38672.02734.35937.08204.32031.13671.28125.1875.23047.23438.17188.28515.10937.33594.03906.375-.02343.27344-.05469.23438-.08984.20312-.10938.16797-.1289.14453-.14063.1211-.28906.19921.23437.11719.20703.14844.1836.17187.15234.1914.1211.21485.09375.23047.05468.24219.01953.25781-.03515.3086-.10156.32421-.17188.32813-.24219.30469-.30469.26953-.375.21484-.21093.08203-.23047.0586-.24219.03906-.26172.01172-.26172-.01172-.23828-.03906-.22656-.0586-.20313-.08203-.35937-.21484-.28906-.26953-.22266-.3047-.16015-.32812-.08985-.32421-.03125-.3086h.83203l.02735.25.07812.23828.1211.21094.16015.1836.19531.15234.21875.11719.2422.0703.2539.02735.2539-.02734.2422-.07031.21874-.1172.1914-.15234.16407-.18359.1211-.21094.07812-.23828.02734-.25-.02734-.2539-.07813-.23438-.12109-.21484-.16406-.1836-.1914-.15234-.21876-.11328-.24219-.07422-.2539-.02344-.2539.02344-.2422.07422-.21875.11328-.1953.15234-.16017.1836-.12109.21484-.07812.23438-.02735.2539h-.83203l.01953-.2539.05469-.2422.08984-.22265.125-.20703.15235-.1914.1836-.17188.20702-.15235.23047-.1328-.28515-.19923-.14063-.12109-.1289-.14453-.10938-.16797-.08985-.20313-.05859-.23437-.01953-.27344h.78516l.02343.21485.06641.1914.10547.16797.13672.13672.16406.11328.1875.08203.20703.05078.22266.01563.21875-.01563.20703-.05078.1914-.08203.16407-.11328.13672-.13672.10156-.16797.0664-.1914.02344-.21485-.02344-.21484-.0664-.1914-.10156-.16407-.13672-.14063-.16406-.11328-.19141-.07812-.20703-.05078-.21875-.01953-.22266.01953-.20703.05078-.1875.07812-.16406.11329-.13672.14062-.10547.16406-.0664.1914-.02344.21485h-.78516l.03906-.375.10938-.33594.17187-.28515.23047-.23438.27735-.1875.32421-.13671.35938-.08204.38672-.02734"/></g></defs><use xlink:href="#ah"/></svg>