<svg xmlns="http://www.w3.org/2000/svg" role="img" xmlns:xlink="http://www.w3.org/1999/xlink" viewBox="142.45 309.95 326.84 171.84"><defs><clipPath id="a"><path d="M144 311.67188h1v168.65625h-1zm0 0"/></clipPath><clipPath id="b"><path d="M144 311.67188h324v168.65625H144zm0 0"/></clipPath><clipPath id="c"><path d="M467 311.67188h1v168.65625h-1zm0 0"/></clipPath><clipPath id="d"><path d="M144 479h4v1.32813h-4zm0 0"/></clipPath><clipPath id="e"><path d="M146 480h1v.32813h-1zm0 0"/></clipPath><clipPath id="f"><path d="M153 478h8v2.32813h-8zm0 0"/></clipPath><clipPath id="g"><path d="M167 478h8v2.32813h-8zm0 0"/></clipPath><clipPath id="h"><path d="M180 478h8v2.32813h-8zm0 0"/></clipPath><clipPath id="i"><path d="M193 478h8v2.32813h-8zm0 0"/></clipPath><clipPath id="j"><path d="M207 478h8v2.32813h-8zm0 0"/></clipPath><clipPath id="k"><path d="M212 480h2v.32813h-2zm0 0"/></clipPath><clipPath id="l"><path d="M220 479h8v1.32813h-8zm0 0"/></clipPath><clipPath id="m"><path d="M226 480h1v.32813h-1zm0 0"/></clipPath><clipPath id="n"><path d="M234 478h7v2.32813h-7zm0 0"/></clipPath><clipPath id="o"><path d="M247 478h7v2.32813h-7zm0 0"/></clipPath><clipPath id="p"><path d="M260 478h8v2.32813h-8zm0 0"/></clipPath><clipPath id="q"><path d="M273 478h8v2.32813h-8zm0 0"/></clipPath><clipPath id="r"><path d="M286 478h8v2.32813h-8zm0 0"/></clipPath><clipPath id="s"><path d="M292 480h2v.32813h-2zm0 0"/></clipPath><clipPath id="t"><path d="M300 478h7v2.32813h-7zm0 0"/></clipPath><clipPath id="u"><path d="M313 478h8v2.32813h-8zm0 0"/></clipPath><clipPath id="v"><path d="M327 478h7v2.32813h-7zm0 0"/></clipPath><clipPath id="w"><path d="M340 478h8v2.32813h-8zm0 0"/></clipPath><clipPath id="x"><path d="M353 478h8v2.32813h-8zm0 0"/></clipPath><clipPath id="y"><path d="M367 478h7v2.32813h-7zm0 0"/></clipPath><clipPath id="z"><path d="M382 476h3v4.32813h-3zm0 0"/></clipPath><clipPath id="A"><path d="M393 479h8v1.32813h-8zm0 0"/></clipPath><clipPath id="B"><path d="M406 478h8v2.32813h-8zm0 0"/></clipPath><clipPath id="C"><path d="M412 479h2v1.32813h-2zm0 0"/></clipPath><clipPath id="D"><path d="M420 478h8v2.32813h-8zm0 0"/></clipPath><clipPath id="E"><path d="M425 479h3v1.32813h-3zm0 0"/></clipPath><clipPath id="F"><path d="M433 478h8v2.32813h-8zm0 0"/></clipPath><clipPath id="G"><path d="M446 478h8v2.32813h-8zm0 0"/></clipPath><clipPath id="H"><path d="M460 478h7v2.32813h-7zm0 0"/></clipPath><clipPath id="I"><path d="M144 465h4v4h-4zm0 0"/></clipPath><clipPath id="J"><path d="M144 451h4v5h-4zm0 0"/></clipPath><clipPath id="K"><path d="M144 438h4v5h-4zm0 0"/></clipPath><clipPath id="L"><path d="M144 424h3v6h-3zm0 0"/></clipPath><clipPath id="M"><path d="M144 411h4v5h-4zm0 0"/></clipPath><clipPath id="N"><path d="M144 399h4v2h-4zm0 0"/></clipPath><clipPath id="O"><path d="M144 384h4v6h-4zm0 0"/></clipPath><clipPath id="P"><path d="M144 371h3v6h-3zm0 0"/></clipPath><clipPath id="Q"><path d="M144 358h3v5h-3zm0 0"/></clipPath><clipPath id="R"><path d="M144 345h4v5h-4zm0 0"/></clipPath><clipPath id="S"><path d="M144 331h3v6h-3zm0 0"/></clipPath><clipPath id="T"><path d="M144 320h4v1h-4zm0 0"/></clipPath><g id="U" clip-path="url(#clip1)"><path fill="#fff" fill-opacity="0" fill-rule="evenodd" d="M0 0h1000v1000H0zm0 0"/><path fill="#d3d3d3" fill-opacity="0" fill-rule="evenodd" d="M162.15234 355.86719l-.23437.29297.0586.23437.11718.17188.17578.23437.29297.34766.11328.0586.11719-.17188.0586-.23438.17577-.17578.46485-.17578h.69922l.23437.29297.28906.8164.0586.17579.17578.23046.35156.23438.69922.69922.17188.17578.23437.34765.23438.41016.28906.58203.41015.46485.23047.23437.23438.17578.11719.23047.17578.29297.17187 1.16406v.23438l.0586.28906.05859.11719.11719.11719.34765.41015.11719.17188.17578.17578.17578.23437.11719.17188.17188.35156.05859.23438.23437.40625.23438-.0586-.17578.17578-.0586.92969h-.58203l-.23437-.11328-.34766.11328-.11719.11719-.05859.29297-.0586.17578-.11718.17187-.46484.29297-.0586.23438-.0586.11328v.64453l.0586.17187v.41016l.0586.0586v.40624l.05859.40625.11719.17579.05859.05859.23047.64062-.0586.29297v.69922l-.05859.58203v.23438l-.0586.23047-.05468.35156v1.92187l.05469.1172h.42578l-.36719.11718-.02344.35156.89063 1.16797 1.74219.53906 1.33984.35938v.53906l.08984.8086.53516.71484 1.51953.26953.89063-.08594.08984 1.16406.53516.1797 1.16015-.1797 2.05469-.98437 1.16016-.36328 1.8789-.17578 1.69531-.1797-.17968.71876-1.51563.08594-1.25.08984-.80469.26953-1.07421.8086.26953.71875.53515.89843-.17968.625-.26563.8086.26563 1.07812.625.89844.80468.17969 1.25-.1797-.26562.72267.09766.5039.05468.29297v.17188l.0586.29296v.40625l.17578.1172.35156.11718h.40625l.29297-.17578.11328-.11719.0586-.11719.11718-.23047.0586-.17578.35156-.46484.23047-.17578.17578-.0586.17578.0586.0586.17578.11718.98828.05469.46875.0586.17188.11718.23437.17578.0586.8164.05859h.28907l.11719.23437.05859.40625.0586.35156v1.10547l.11718.29297.11719.34766.28906.69922.17578.35156.58203.7539.35157.17579.17187.0586.46875.23437.64063.46484.34765.23438.29297.17578.29297.05468.23047.0625.8164.34766.29297.17578.11328.17188.35157.35156.11719.17578.52343.64063v.28906l.0586.35156v.34766l.05859.35156.0586.28906.11718.0586.17188.05859h.17578l.58203.23437.17578.1172.17578.28905.17578.23438.11328.23437.29297.23047.11719.11719v.41016l.0586.05468.28906.23438.23437.11719.0586.11718.11718.17188.0586.11719.23047.23437.05859.17578.23437.0586.1172.05859-.1172.11328-.05859.11719v.11719l-.11719.29296-.11719.28907v.58203l.17579.11719.11718.05859.0586.11719.11719.11719.11328.05859.17578.34765.0586.35157.05858.40625v.17578l-.05859.17578-.11719.69922v.17187l.1172.17579.29296.29296h.40625l.17578.1172.11719.17187.11719.29296v.23438h-.52735l-.23047-.23438h-.23437l-.17578.0586-.0586.69922.0586.34765.11719.17579.17578.41015.11718.23047.28907.46875.17578.05469h.52344l.23437.0586.75781.64062.0586.29296v.23438l.05859.0586.23047.34765v.35156l-.11719.17188v.29297l.29297.28906.29297.17578.17187.0586.29297.17577.29297.1172.58203.40624.28906.23438.29297.17578.21875.16015.01563.01172.23047.17579.64062.52343.17578.23438.1172.17578.17577.17578.11328.17188v.64062l.1172.17578.46874.11719.58203.11719.23438.05859.23047.11328.29297.11719.11328.0586.58593.35156.28907.17187.17578.0625.17578.05469.17578.0586.69922.35155.28906.17579.23438.05468.28906.17578.23437.1172.64063.40624.29297.11719.17187.0586.23438.05859.41015.05859.23047.0586.23438.11718.0586.17188-.41017.17578.46875.0586.0586.29296.11328.23438.17578.05468.23438.0586.17578.05859.40625.11719.64062.23437.11719.17188.0586.23437v.17578l-.0586.1172-.0586.40624.23438.23438.11719.05859.34766.11719.64062.23047.17578.11718.28906.1172.17578.17577.23438.46485.58203 1.10546.17578.17579.34766.17578.17578.11719.35156.11718 1.04688.52344.23437.0586.46485.11327.29297.0586.46484.17578.75781.58203.23438.23438.34765.46484.17578.17578.28907.23438.8164.69921.29297.17579.28906.28906.29297.17578.29297.28906.69531.64063.17578.17578.29297.23437.28907.23438.46875.28906.64062.58203.34766.23438.23437.29297.34766.34765.35156.46485.9336.99218.34765.40625.11719.17579.23437.05859.11328.11719.64454.17578.23047.11328.23437.0586.29297.17577.23047.1172.9336.69921.40624.40625.23438.17578.40625.17578.23437.11719.8164.34766.34766.23437.23438.11719.29297.28906.23047.11719.7578.35156.35157.17188.23047.05859.29297.11719.23437.0586.8711.17577h.8164l.46875.23047.17188.0586.875.69921.46484.1172.29297.05858.17578.0586.23047.0586.46875.05859.34766.05859.35156.0586.40625.05859h.29297l.17187.0586v.23046l.17578.17578h.29297l.34766.0586.35156.05859.69922.11719h.64063l.46484-.23438.29297-.17578.17187-.11719.41016-.17187.28906-.17578.9336-.46485.46875-.29297.52343-.29296.46485-.17188.46484-.17578 1.05078-.46485.28906-.11718.41016-.11719.28906-.11719.52735-.17578 1.51562-.69922.58203-.34765.28907-.0586.29297-.0586.34765-.11718.875-.23047.35156-.11719h.11329l.23437-.05859.875-.23437.23438-.0586h.8125l.35156-.0586.8164-.11718.17188-.0586.35156-.05468.29297-.0586.23047-.05859.8164-.17578.17579-.0586h.34765l.23438-.05859.46484-.11718.75781-.17188.23438-.0586h.34765l.41016-.11718.28906-.0586 1.28516-.05859h.28906l.41016-.0586.23047-.05858h.17578l.875-.1172h.40625l.41015-.11718h.34766l.35156-.11328.8711-.0586h1.75l1.04687.28907.41016.11719.28906.11718.35156.11719.28907.11719 1.05078.17187.28906.0586h.29297l.29297.05859.17187.0586.41016.05859.17187.0586.1172.05858h.11718l.11719.0586.35156.0586h.11328l.41016.0664 1.92187.39453 1.92578.39453 1.51953.44922 1.69532.71875 2.14453.80469 1.60547-.71875 1.42968-.80469 1.16016-1.07813 1.25-.44921 3.03516-.71875 1.875-.35938 2.14453-1.34765 2.23437-1.25391 2.5-1.25781 1.69531-.44922 1.78516-.17969 1.16016-.26953.625.53906 1.33984-.26953.71485-.98828.98437-1.34375.44531-.17969.80469-.35937 1.875-.53907 1.78516-.44921 1.25-.26954 1.16015-.08984 1.69922-.08984 1.96094-.26954 1.25-.08984h.53906l.625-.08984h.89063l2.14453-.17969 2.41015-.17969 2.58985-.08984 1.69531.17969 1.60938.08984 1.42968.35938 1.16016.71875 1.875.98828 1.16015 1.52734.26563.71484.6289.08985.35548.89844.53515.53906.53516 1.52734 1.07422.35938h.53515l-.80469.53515.08985 1.70703.71484 2.69532.89063.80468.89453.98829.71484 1.2578 1.78516.53907 1.51953-.17969.35547 1.34375 1.60937-.80469.98047-.53906.26953.26953.31641-.21484.21875-.14453.80078.44922.44922-.35938h.35547l.53515-.26953.53907-.71875.53515-.26953.625-.98828 1.16016.44922.83984.3711 1.39454.61718 1.6953-.17969h1.60548l1.78515.08985.17969-1.70704.53516-1.34375.80468.26954.4922.84765.40233.40625-.08984.53906v.35938l.71485.44922.71093-.26953h1.42969l.35938.98828.4453 1.25781.71485 1.34375 1.25.6289 1.69531.62891.71485-.17969.17969-.53906.98046-.08984.44922.35937.08594 1.25782-.26563.6289-.53515.17969v.53906l.71484.98438.26563.53906.98437.98828.80078 1.07813-.26562.35937-.08985.89844-.625 2.33203-.35546 2.0664-.08985 1.79298-.17969.71875-.08984.53906v1.4375l-.98047 1.88281-.35937 1.70703-.53516.89844-.80469 1.16797-.26562.53906 2.05469 1.2539.08593.35938-.35546.53906-.08985-.17968v.80859l.08985 1.4375-.44532.71484-1.07422.09375-.26562.71485.53515.89844.8047.71875 1.16015.80859 1.33984.26953.44531.35938-.35546.44921-1.78907-.08984-1.25-.44922-.71484-.71875-.625-.08984-.17578 3.58984-.1875 1.3086h89.35937V311.70313h-55.26953v49.08203l.76172.125 3.28906.54296 2.02344 2.83594v2.7539l2.35156.33204 2.34766.33203h4.05078l-1.3789 4.16016-2.02344.70703-2.02344.70312-.54297.34375-2.59375 1.6172-.1875.11718-2.02344-2.07813-.73046-2.74218-2.67188-2.07813-1.375-3.5-.0664-.08203-1.95704-2.67188 2.75-1.41796v-49.08204H294.42187v91.41407l.1172.03125.1328.01172.07422.07421.10547.04688.08985.0586.08593.05859.08985.0586.29687.29687.0586.08984.03125.11719.02734.11719.01563.13671-.03125.1172-.0586.08983-.0586.08594-.04296.10547-.04688.10156-.02734.1211v.14453l.17578.26953.14844.14844.07422.08594.07422.07421.04296.10547.0625.08985.0586.08593.04297.10547.0586.08985.04687.10156.04296.10547.0586.08594.11719.17968.07421.07422.0625.08594.0586.08984.04297.10547.0586.08985.05858.08593.0625.08985.0586.08984.04297.10156.11719.17969.07421.07422.0586.08594.07422.07421.08984.0586.10547.04687h.14844l.1328-.01562.13282.01562.10156-.04687.07422-.07422.04688-.10156-.01563-.13281v-.14844l-.04687-.10547-.02735-.11719-.04687-.10156-.02735-.1211-.04296-.10156-.0625-.08984-.04297-.10156-.04297-.10547-.03125-.11719-.01563-.13281-.01171-.13672.08593-.0586.0586-.08593.12109-.03125.04297.10547.01562.1328v.1172l.0586.10156.0586.08984.08983.0586.14844.14843.0586.08985.04296.10547-.01171.10156.08593.0586.10547.04687.08594.0586.08984.05858.07422.07422-.11719.02735-.10546.04687-.08594.0586-.07422.07421-.0586.08985-.0625.08594-.02734.12109-.04687.10156-.04297.10547-.03125.11719-.01172.13281-.01563.13281v.14844l.02735.11719.04687.10547.04297.10156.0586.08984.07421.07422.08985.0586.07422.07421.08984.0586.0586.08984.04296.10547.04688.10156.11719.03125.1328.01563h.14845l.11718-.03125.10547.04297.04297.10547.04688.10156.02734.1211L299.5 410l.02734.11719.03125.1211.02735.11718.10547.04297.10156.04687.13281-.01562.14844.14844.0625.08593.07422.07422.07031.07422.08984.0625.10547.04297.10156.04297.1172.03125.13671.01562.11719-.03125.07422-.07422.02734-.11718-.01172-.13282-.03125-.12109-.02734-.11719.04297-.10547h.11719l.08984.0625.11719.02735h.14843l.13282.01562h.14843l.13282.01563.1328-.01563h.14845l.1328-.01562.13282-.01172.13672.01172.11719-.02735.13281-.01562.1914-.0586-.05859.17579-.01562.1328-.02735.1211-.01562.13281-.0586.08594-.1328.01563-.10548.04687-.10546.04297-.1172.03125-.11718.02735-.26563.03125h-.14843l-.13281.01562-.07422.07422.05859.08594.14844.14843.11719.1797.07421.0703.08985.0625.08984.0586.08594.0586.08984.05858.10156.04297.10547.0625.10547.04297.08594.0586.10547.04687.10156.04297.17969.11719.0586.08984-.04298.10156-.04687.10547.01562.13281.22266.22266.0586.08985.04296.10156.03125.1211.04297.10155.01563.13282.03125.11718.01171.13672.03125.11719.14844.14844.10156.04297.10547.04296.1172.03125.1328.01563.13672.01563h.11719l.11719-.03125.08984-.0586.04297-.10547.04688-.10156.04296-.10547.03125-.11719.01172-.1328v-.14845l-.01172-.1328-.01562-.13282-.03125-.11719-.04297-.10547-.04688-.10547-.04296-.10156-.04297-.10547-.01563-.13281.01563-.13281.02734-.11719.03125-.11719.02735-.1211.04687-.10155.08984-.0586.08594-.0625.07422-.07422.08984-.05859.22266-.22266.0586-.08593.07421-.07422.11719-.17969.0586-.08594v-.14844l-.07423-.07421-.10156-.04688-.10547-.04297-.10156-.04297-.0586-.08984-.04687-.10547-.02734-.11719.08984-.05859.11719-.03125.10156-.04297.17969-.11719.14844-.14843.01172-.13282-.01172-.10546-.08985-.0586-.1328.01563h-.14845l-.1328.01562-.13282-.01562-.1211-.03125-.08593-.0586-.07422-.07422-.0586-.08984-.0625-.08594-.11718-.17969-.0586-.08593.03125-.1211.08594-.05859.1211-.03125.05859-.08594v-.1211l-.03125-.11718-.0586-.08984-.05859-.08594-.04687-.10547-.02735-.11719-.01562-.1328.0586-.08985.07421-.07422.08984-.0586.1172-.17968.07421-.07422.0586-.08594.14843-.14844.1211-.03125.1328-.01562.13282.01562.07422.07422.04297.10547.01562.13281-.03125.1172-.11719.03124-.1328.01172-.14844.14844-.04297.10547-.04688.10156-.02734.1211-.03125.11718v.14844l.03125.11719.04297.10546.05859.08985.07422.07031.07422.07422.11719.03125.12109.02734.11719-.02734.1328-.01563h.1172l.08984.0586.07422.07422.04687.10546.0586.08594.10156.04688.13281.01562.10547.04297.08594.0586-.01172.10546-.07422.07422-.17969.11719-.05859.08984-.08984.0586-.07032.07422-.07421.07421-.0625.08985-.02735.11719-.01562.1328.01562.13282-.01562.13281v.14844l.01562.13281.02735.1172.03125.12108.07421.07422.08985.0586.08594.0586.08984.05858.11719.03125v.08594l-.10157.04688-.08984.0586-.26563.03124-.11718.02735h-.14844l-.10547.04296-.10156.04688-.0586.08984-.0625.23438-.01171.13281-.03125.1211-.01563.1328v.29298l-.01172.1328.01172.13673.01563.1328.1328.01563.13282.01172.1211.03125.08593.0586.07422.07421.04688.10547.04296.10157.01563.1328v.44532l-.01563.13281v.44532l.03125.26562.02735.11719.01562.13281.03125.11719.08594.21094.03125.26562v.14844l-.03125.11719-.02734.11718-.03125.1211-.02735.11719-.03125.11718-.03125.1211-.01171.1328-.01563.13282.08984.0586.1172-.03125.10155.01562.04688.10547-.03125.26562v.44141l-.04297.10547-.04688.10547-.04296.10156-.04297.10547-.0586.08594-.03125.12109-.04296.11719-.03125.11719-.01563.1328.01563.13282.05859.08984.10547.04688.08594.0586.05859.08593-.01172.13672-.03125.11719-.04297.10156v.44531l-.01562.13281v.14844l-.03125.11719-.04297.10547-.02735.11719-.04687.10546-.04297.10157-.03125.12109-.02734.11719-.03125.13281-.03125.11719-.02735.11719-.04297.10546-.03125.1172-.03125.12108-.01171.13282-.01563.13281v.29688l.02734.11718v.14844l.04688.39844.02734.11719.0586.08984.12109.03125h.14844l.13281-.01563.0586.08985v.11719l-.0586.08984-.08984.0586-.10157.04296-.10546.04688-.08985.05859-.08594.0586-.13671.01562-.1172-.03125-.1328-.01563-.10157.04688-.0625.08594-.01172.13671-.01562.13282-.03125.11719-.02735.11718-.01562.13281-.03125.1211v.29687l.01563.13282.03125.11718v.14844l.01171.13281v.14844l-.02734.11719-.04688.10156-.02734.1211-.03125.11718-.0586.08985-.07421.07421-.10156.04297-.10547.04688-.11719.02734-.1211.03125-.10156-.04687.0586-.08594.10547-.04688.02734-.11718.03125-.11719.02734-.1211.03125-.11718v-.14844l.01563-.13281-.03125-.11719-.04297-.10547-.10547.01563-.07422.07422-.10156.04296-.08984.0625-.07422.07422-.04297.10157-.01563.1328-.03125.1172L304.25 426l-.03125.11719-.02734.11719-.03125.12109-.02735.11719-.03125.11718-.04297.10547-.08984.0586h-.08984l-.1172-.03125-.03124-.08594.01562-.13672-.03125-.11719v-.14844l-.01171-.1328v-.14844l-.0625-.23438-.02735-.1211-.04297-.10156-.04687-.10546-.0586-.08594-.05859-.08985-.04297-.10546-.0625-.08594-.14844-.14844-.0703-.07422-.10548-.04687-.10547-.04297-.10156-.04297-.29687-.29688-.08985-.07421-.08594-.0586-.10546-.04297-.08985-.0625-.08594-.0586-.10546-.04296-.08985-.0586-.08594-.0625-.07421-.0703-.10547-.04688-.08594-.0586-.10547-.04296-.08984-.0625-.10156-.04297-.10547-.04297-.08594-.0586-.10547-.04687-.10547-.04297-.10156-.04687-.08985-.0586-.10156-.04297-.10547-.04296-.08984-.0625-.11719-.02735-.13281-.01562-.13281.01562H299.75l-.13281.01563-.11719-.03125-.08984-.0586-.07422-.07422-.08985-.05859-.10156-.04688h-.14844l-.12109-.02734-.10156-.04297-.07422-.07422-.11719-.17968-.08984-.0586-.10156-.04297-.08985-.0625-.10547-.04296-.08984-.0586-.08594-.0586-.10547-.04687-.0586-.08594-.05858-.08984-.04297-.10547-.04688-.10156-.07422-.07422-.08594-.0586-.07421-.07421-.08985-.0586-.22265-.22265-.04297-.10547-.03125-.26563.10547-.04296h.14453l.10547.04296.07421.07422.08985.0586.08594.0586.10546.04687.08985.05859.14844.14844.0703.07422.14845.14843.0625.08594.07421.07422.08594.0586.07422.07421.08985.0625.08984.0586.08594.05859.26953.17578.10156.04688.10547.04296.10156.04297.04688-.07421.05859-.08594.07422-.07422.07031-.07422.10547.04297.07422.07422.0586.08984.04296.10156.04688.10547.04296.10547.1211.02735.11719-.02735.07421-.08984.04297-.10547.0586-.08985.07422-.07421.10546-.04297.1172-.02735.1328.01172.08985.0586.14844.14843.05859.08985.04297.10547.04687.10156.04297.10547.04297.10156.10547.04688.10547.04296.13281.01563.08594-.0586.0586-.08984.07421-.07422.10547-.04297.11719.02735.10547.04687.10156.04297.10547.04297.10156.04688.17969.11718v.11719l-.01563.13281.01563.13281.01562.13672.0586.08594.10156.04688.1211.02734.11718.03125h.14844l.11719-.03125.05859-.08984.17969-.1172.05859-.08983.07422-.07422.0586-.08594.11718-.17969.17969-.11719.11719.03125.08984.0586.04297.07422-.01563.1328v.1172l.08985.05859h.14843l.13282-.01563.1328-.01171.26563-.03125.10547-.04297.11719-.03125.1211-.02735.07421-.07421.07031-.07422.0625-.08985-.01562-.10547-.04688-.10156-.10156-.04297-.10547-.01562-.11718.02734-.26563.03125h-.14844l-.07421-.07422-.08985-.0586-.11719-.03124-.11718-.02735-.13282-.01562h-.14843l-.13282.01563h-.29687l-.10547-.04688-.14844-.14844-.04297-.10156-.05859-.08984.22266-.22266.08593-.0586.10547-.04296.11719-.03125.13281-.01563.13281.01563.13672.01562.10157.04297.1328-.01172.08985-.0625.10156-.04297.0625-.08984-.04687-.10156-.08984-.0586-.1172-.03125-.10155-.04296-.0586-.08985-.0625-.08984v-.11719l.01563-.13281.10547-.04688.07421-.07031v-.1211l-.08984-.05859-.03125-.11719.08985-.05859.07421-.07422.04297-.10547.0586-.08984.04687-.10156.01563-.13281v-.14844l-.04688-.10547-.04297-.10156-.08984-.0586-.13281-.01562-.10157-.04297-.13671-.01563-.1172-.03125h-.4453l-.13282-.01562-.13281-.01172-.13281-.01563-.11719-.03125h-.14844l-.13281-.01562-.13281-.01172-.26563-.03125-.1211-.04297-.08593-.0586-.07422-.07421v-.14844l.01172-.13281.10547-.04688.10156-.04296.13281-.01563h.15235l.13281-.01562h.29297l.1211.03125.10156.04296.08984.0586.23438.0625.12109-.04688.08984-.05859.10156-.04297.13282-.01562.10547.04296.10156.04688.13281.01172.1211-.02735h.14453l.12109-.03125.11719-.02734.10547-.04687.07421-.07422.08594-.0586.14844-.14843.0586-.08594.04687-.10547.02734-.11719.01563-.10547-.10156-.04296-.08985-.0586-.11719-.03125-.10546-.04297-.08985-.0625-.07422-.08594-.07422-.07421-.10156-.04297-.10547-.04688-.10156-.04297-.0586-.08984-.04687-.10156-.08594-.21094-.0625-.08594-.05859-.08984-.07422-.07422-.08594-.0586h-.26953l-.11719.03126-.08984.05859-.10156.04297-.13281.01562-.10547-.01562-.02735-.11719-.0625-.08984-.11718-.03125-.10157-.04297-.14843-.14844-.03125-.11719-.01563-.10546.07422-.07422.17969-.1172.11719-.02733.11718-.03125.13672.01562.10156.04297.10547.04297.10156.04687.10547.04297.1172.03125.1328.01563.1172.02734.1328.01563.10547-.01563.08985-.0586-.07422-.07421-.10547-.04297-.07422-.07422-.07422-.08984-.14844-.14844-.08593-.0586-.08985-.05859-.07422-.07422-.08984-.0586-.10156-.04687-.1211-.02734-.10156-.04688-.10547-.04296-.11719-.03125-.10156-.04297-.1211-.03125h-.14843l-.11719.03125-.10546.04297-.08594.0625-.17969.11718-.08594.0586-.08984.0586-.10547.04687-.08594.05859-.10547.04297-.10156.04297-.10547.04687-.07422.07422-.05859.08985-.0586.08593-.04687.10547-.0586.08594-.07421.07422-.13281-.01172-.1172-.03125h-.11718l-.07422.07422-.08984.0586-.07422.07421-.08984.0586-.08594.05859-.10547.04687-.10156.04297-.13672.01563-.10156-.04297-.14844-.14844-.10547-.04688h-.08594l-.10547.04688-.10156.04297-.1211.03125-.11718-.03125-.07422-.07422v-.11719l.03125-.1211.07422-.0703.0586-.08985.07421-.07422.11719-.03125.10547-.04296h.29297l.13281-.01563.13672-.01563.10156-.04296.08985-.0586.10156-.04687.08984-.0586.13281-.01171.08985.05859.13281.01172.08984-.0586.08594-.05859.10547-.04297.08984-.0586.08594-.0625.08985-.05859.14843-.14843.0586-.08594.05859-.08985.10547-.04296.13281-.01563.11719.02735.1211.03125.05859-.0586.05859-.08984.03125-.26563.02734-.11719.10547.01172.13281.01563.10157-.04297.08984-.0586.0586-.08984.07421-.07422.0586-.08984.04687-.10156.01172-.13281-.01172-.13282-.04687-.10547-.14844-.14843-.0586-.08985-.05859-.08594-.04297-.10546v-.44532l.01563-.1328v-.14845l.01172-.1328-.0586-.0586-.08984.0586-.10156-.04298-.17969-.11719-.08594-.05859-.0625-.08984-.0586-.08985-.07421-.07421-.08594-.0586-.1211.03125-.10155.01172-.10547.04688-.08594.05859-.10547.04297-.14844.14844-.08984.05859-.08594.0586-.08984.0625-.10547.04296-.13281.01563v-.1211l.10547-.04297.11718-.03125.07422-.0703.04297-.10548v-.14844l-.02734-.11718-.14844-.14844-.13281-.01563h-.14844l-.11719.03125-.10547.04297-.10156.04297-.08984.0625-.11719.02735-.07422-.07422.01172-.13281-.04297-.10157-.04297-.10547-.08984-.05859-.11719.02734-.1211.03125-.11718.03125-.10156.04297-.1211.03125-.10156.04297-.10547.04297-.08984.0586-.10156.01562v-.11719l.01562-.13281-.0586-.08985-.07421.04297-.14844.14844-.0586.08985-.07421.07421-.04688.10547-.04296.10156-.07422.07422-.0586.08985-.07422.07422-.05859.08593-.07422.07422-.08984.0625-.07422.07031-.07422.07422-.10156.01563-.13281.01562-.10547-.04296v-.1211l.14843-.14844.04297-.10156.0586-.08984.04687-.10156.04297-.10547.0586-.08985.03124-.11719.04297-.10156.03125-.1211.02735-.11718.04687-.10547.04297-.10156.04297-.10547.07422-.07031.08984-.0625.08985-.0586.10156-.04296h.29687l.26563-.03125.10547-.04297-.07422-.07422-.11719-.03125-.10547-.04297-.08984-.0586-.10156-.04687-.08985-.0586-.10156-.04296-.10547-.04297-.08984-.0625-.08594-.0586-.10547-.04296-.10156-.04297-.1211-.03125-.11718-.03125-.10157-.04297L297.5 410.25l-.10156-.04297-.08985-.0586-.04296-.10546-.01563-.13281.10156-.04297.13281-.01563.13672.01563.13282-.01563.10156-.04297.0586-.08984.01562-.10547-.08985-.0586-.07421-.07421-.10157-.04297-.08984-.0586-.14844-.14843-.04297-.10547-.01562-.13281v-.29297l-.0586-.08985-.08984-.05859-.07422-.07422-.04297-.10547-.03125-.11718-.0586-.08985-.07421-.07422-.11719-.02734-.07422-.07422-.08984-.0586-.08984-.0625-.08594-.05859-.07422-.07421-.0586-.08594-.04687-.10547-.08594-.0586-.14843-.14843-.19532-.0586-.1328.01563-.10157.04297-.07422.07422-.04688.10156-.04296.10547-.0586.08984-.0586.08594-.29687.29687-.08984.0586h-.08594l-.0625-.08594-.04297-.10547.03125-.11719.0586-.08984.02734-.11719-.01172-.13281-.08984-.0625-.10547.04688-.11719.02734-.11719.03125-.26953.17578-.10156.04688-.11719.02734-.10546.04687-.08985.0586-.10156.04297-.0586-.08594-.04687-.10547.01563-.13281.04687-.10547.07031-.07422.07422-.07031.0586-.08985v-.14843l-.04297-.10547h-.23829l-.10156.04687-.03125.11719-.02734.11719-.03125.1211-.07422.04296-.13281.01563-.07422-.04688-.04297-.10156-.04297-.10547-.04687-.10156-.04297-.10547-.1211.03125-.10156.04297-.13281.01562-.11719.03125-.10547.04297-.08984.0586-.10156.04687-.1211.02734-.13281.01563-.10156-.04297-.0586-.08985-.04687-.10546-.04297-.10157-.04297-.10546v-.1172l.0586-.08984.08593-.05859.17969-.11719.10156-.04687.10547-.04297.10547-.0586.10156-.04296.08985-.0625.10156-.04297.10547-.0586.10156-.04687.08984-.0586.10547-.04296.10156-.04297.08985-.0625.10156-.04297.13672-.01563.11719.03125.10156.04297.1211.03125.10156.04297.10546.04688.10157.04296.10547.04297.10156.04688.10547.04297.10156.04297.10547.04687.08594.0586.10546.04296.1172.03125.10546.04297.10156.04688.08985.0586.10547.04296.10156.04297.10547.04687.11719.02735.10156.04687.1211.02735h.14843l.08594-.0586.01562-.10156.0586-.08984-.02735-.1172-.07422-.07421-.11719-.17969-.07421-.07422-.08985-.07421-.17969-.1172-.08593-.05859-.10547-.04296-.10156-.04688-.26954-.17578-.05859-.08985-.07422-.07421-.0586-.08985-.04296-.10156-.03125-.11719-.01563-.13672v-.5625l-.01171-.1328-.01563-.13282-.03125-.11719-.01562-.13281-.01172-.13281-.03125-.1211-.22266-.22265-.0586-.08594-.01562-.10547.03125-.11719.13281-.01562v-91.41406H172.9922v1.45312l-.0586.23438-.35156 1.05078-.17187.52343-.1172.34766-.17577.41016-.11719.17187-.23438.29297-.23046.0586h-.35157l-.11718.05859-.23047.40625v.29297l.11719.17578.23046.23047.1172.23437.64062.75781.29297.46485.17578.23437.23047.35156.23437.34766.64063.8164.17578.46485.17187.41016.11719.69531.17578.46875.11719 1.39844.0586.46484v.875l.11718 1.04688v4.78125l-.0586.46484-.35156 1.28125-.17578.52344-.11328.41015-.35156.9297L172.93359 336l-.23437.58203-.11719.17578-.17187.34766-.17578.40625-.35157.8164-.0586.29297-.11327.29297-.11719.28906-.0586.17579-.11718.875-.0586.40625-.05859.11718-.0586.17579-.05859.17187-.23047.52734-.11718.17188v.23437l-.11719.23438-.0586.17187-.17577.58594v.28906l-.0586.17579v.29296l-.0586.11329-.05859.52734v.17187l-.05468.23438v2.6211l-.17578.8164-.1172.17578-.17577.23438-.1172.17187-.11327.23438-.58594.93359-.23047.28906-.29297.46485-.17578.23437-.28906.35156-.35156.69922-.11328.23047-.17579.41016-.17578.23046-.40625.52735-.8164.69922-.29297.17187-.28906.23438-.17579.11719-.17578.17578-.52344.40625-.52734.17578-.17187.17578-.23438.05469-.64062.17578h-.75782m12.21094 31.02344l-1.07422.44921.35938.89454 1.25-.71485.44531-.53906-.98047-.08985"/><path fill="#d3d3d3" fill-opacity="0" fill-rule="evenodd" d="M201.50781 416.59766h-.89453l.44922.6289.98047.35938.80469-.08985.4453-.98828-.17577.08985-.71485-.35547-.89453.35547m154.6211 59.0703l-.0586-.52343v-.29297l.11328-.29297.0586-.23046.46875-.46875h.11328l.11719-.11329.11718-.05859h.17579l.23437-.0586h.34766l.23437.0586.11719.0586.23047.17187.0586.17578.11718.58203v.29297l-.11719.17578-.17187.28906-.17579.17579-.52734.52343-.23047.23438-.11719.0586h-.17578l-.11718-.0586-.40625-.29297-.17579-.11719-.11718-.0586-.0586-.11327-.05468-.1172m6.64062-10.95702l-.0586-.17188v-1.10937l.0586-.17188.17578-.0586.17188-.05858h.17578l.23437-.0586.1172.0586.05858.69921-.05859.17188-.11719.17578-.11718.0586-.23438.52343-.11328.0586h-.23438l-.05859-.1172m9.61328-14.39062l-.11719-.17578v-.69922l.29297-.875.1172-.17187.17577-.35156.11328-.23047.1172-.29297.35155-.75781.1172-.23047.17187-.23438h.17578l.11719-.0586h.64062l.11719.0586.23437.23438.17188.11328.35156.29297.11719.11718.11328.17579v.11328l.11719.05859.11718.11719v.69922l-.05859.17578v.23047l-.0586.17578-.34765 1.05078-.11719.23047-.11719.23437-.11718.0586-.23047.23437-.64063.28906h-.875l-.41015-.11718-.64063-.46485"/><path fill="none" stroke="#bebebe" stroke-linecap="round" stroke-linejoin="round" stroke-miterlimit="10" stroke-width=".5" d="M467.95703 311.69531H144.02734v168.625h323.9297v-168.625"/><g clip-path="url(#a)"><path fill="#fff" fill-opacity="0" fill-rule="evenodd" d="M144 475.89063v4.4375h.0039H144V311.67188h.0039H144v164.21875"/></g><g clip-path="url(#b)"><path fill="#fff" fill-opacity="0" fill-rule="evenodd" d="M144.0039 480.32813V311.67188h35.50391v139.8828l-4.4414.60157-1.9961 1.54297-.82812 4.4375-1.61328 2.55078-2.09766 1.88672 2.09766 1.40234 4.4375 2.03906 4.4414-.73046 4.4375-1.16797 2.10547-1.54297 1.71484-4.4375-2.5078-4.4375-1.3125-.92188-4.4375-1.22265V311.67188h115.39452v103.29296l-4.4375 1.71094-1.64453 1.51563-2.79297 4.02343-.18359.41407.1836.18359 4.4375 2.60938 3.98827 1.64843.44922.44922 1.14063-.44922 3.30078-.3125 4.4375-2.4961 4.4375.82423 2.45703-2.45703-2.45703-2.47266-1.22266-1.96484-3.21484-3.19922-4.4375.8125-4.4414-.83985V311.67188h31.0703v108.2539l-2.64843 2.70313 2.64844 2.79296v25.80079l-3.37891 2.47656-1.0586 2.02344-4.4375 1.55468-2.11327.85938 2.11328 2.82031.49609 1.61719 3.9414 2.29687 4.4375-1.39453 1.05079-.90234 3.03515-4.4375.35157-.14063 1.33984-4.29687-1.33984-1.24219-4.4375-1.23437v-25.80079l4.29296-2.79296-4.29296-2.70313v-108.2539h8.875v101.8164l-.19922.26563.19922.21875.26171-.21875-.26171-.26563v-101.8164h53.26171v121.2539l-2.5039 3.01953 2.5039 2.47266 2.48047-2.47266-2.48046-3.01953v-121.2539h79.88671v168.65625H144.00391"/></g><path fill="#50fcfc" fill-rule="evenodd" d="M170.6289 463.97656l-2.09765-1.40234 2.09766-1.88672 1.61328-2.55078.82812-4.4375 1.9961-1.54297 4.4414-.60156v3.33594l-3.07422 3.24609-1.36718 2.55469-1.4961 1.8828 1.4961 1.01173 2.88672-1.01172 1.55468-.66406 4.4375-3.1211.40235-.65234-.40235-.54297-4.4375-2.70313v-3.33593l4.4375 1.22265 1.3125.92188 2.50781 4.4375-1.71484 4.4375-2.10547 1.54297-4.4375 1.16797-4.4414.73046-4.4375-2.03906"/><path fill="#00e8fc" fill-rule="evenodd" d="M175.0664 463.58594l-1.49609-1.01172 1.4961-1.88281 1.36718-2.5547 3.07422-3.24608 4.4375 2.70312.40235.54297-.40235.65234-4.4375 3.1211-1.55469.66406-2.88671 1.01172"/><path fill="#50fcfc" fill-rule="evenodd" d="M286.02734 422.8125l-.18359-.1836.1836-.41406 2.79296-4.02343 1.64453-1.51563 4.4375-1.71094 4.44141.83985 4.4375-.8125v1.85547l-3.38672 1.34375-1.05078.46875-4.30469-.46875-.13672-.02344-.03515.02344-4.40235 3.84375-.52343.59375.52343.32421 4.4375 2.54688 4.44141-.16406 3.35547-2.70703 1.08203-2.03516 1.34766-2.40234-1.34766-1.34375v-1.85547l3.21484 3.19922 1.22266 1.96484 2.45703 2.47266-2.45703 2.45703-4.4375-.82422-4.4375 2.4961-3.30078.3125-1.14063.44921-.44921-.44922-3.98829-1.64844-4.4375-2.60937"/><path fill="#00e8fc" fill-rule="evenodd" d="M290.46484 422.95313l-.52343-.32422.52343-.59375 4.40235-3.84375.03515-.02344.13672.02344 4.30469.46875v3.47656l-4.4414.42187-.07423.07032.07422.04687 4.44141.29297.41797-.33984-.41797-.4922v-3.47655l1.05078-.46875 3.38672-1.34375 1.34766 1.34375-1.34766 2.40234-1.08203 2.03516-3.35547 2.70703-4.4414.16406-4.4375-2.54688"/><path fill="#00d4fc" fill-rule="evenodd" d="M294.90234 422.67578l-.07421-.04687.07421-.07032 4.44141-.42187.41797.49219-.41797.33984-4.4414-.29297"/><path fill="#50fcfc" fill-rule="evenodd" d="M317.09766 460.95703l-2.11329-2.82031 2.11329-.85938 4.4375-1.55468 1.05859-2.02344 3.3789-2.47656 4.4375 1.23437 1.33985 1.24219-1.33984 4.29687-.35157.14063-3.03515 4.4375-1.05078.90234-4.4375 1.39453-3.94141-2.29687-.4961-1.61719m8.875-35.53515l-2.64843-2.79297 2.64844-2.70313 4.29296 2.70313-4.29296 2.79296m8.875-11.44921l-.19922-.21875.19922-.26563.26171.26563-.26171.21875m53.26171 24.4453l-2.5039-2.47265 2.5039-3.01953 2.48047 3.01953-2.48046 2.47266"/><g clip-path="url(#c)"><path fill="#fff" fill-opacity="0" fill-rule="evenodd" d="M467.9961 480.32813H468V311.67188h-.0039H468v168.65625h-.0039"/></g><g clip-path="url(#d)"><path fill="none" stroke="#000" stroke-linecap="round" stroke-linejoin="round" stroke-miterlimit="10" stroke-width=".5" d="M147.41016 481.17969l-6.82032-1.69922"/></g><g clip-path="url(#e)"><path fill="none" stroke="#000" stroke-linecap="round" stroke-linejoin="round" stroke-miterlimit="10" stroke-width=".5" d="M146.41797 480.92969l.29687 1.1914"/></g><g clip-path="url(#f)"><path fill="none" stroke="#000" stroke-linecap="round" stroke-linejoin="round" stroke-miterlimit="10" stroke-width=".5" d="M160.42969 481.95313l-6.23047-3.25"/></g><g clip-path="url(#g)"><path fill="none" stroke="#000" stroke-linecap="round" stroke-linejoin="round" stroke-miterlimit="10" stroke-width=".5" d="M173.82031 481.79688l-6.38281-2.9375"/></g><g clip-path="url(#h)"><path fill="none" stroke="#000" stroke-linecap="round" stroke-linejoin="round" stroke-miterlimit="10" stroke-width=".5" d="M187.1836 481.6914l-6.47657-2.72656"/></g><g clip-path="url(#i)"><path fill="none" stroke="#000" stroke-linecap="round" stroke-linejoin="round" stroke-miterlimit="10" stroke-width=".5" d="M200.4375 481.82813l-6.35547-2.9961"/></g><g clip-path="url(#j)"><path fill="none" stroke="#000" stroke-linecap="round" stroke-linejoin="round" stroke-miterlimit="10" stroke-width=".5" d="M213.88281 481.51953l-6.61328-2.38281"/></g><g clip-path="url(#k)"><path fill="none" stroke="#000" stroke-linecap="round" stroke-linejoin="round" stroke-miterlimit="10" stroke-width=".5" d="M212.91797 481.17188l.17578 1.21484"/></g><g clip-path="url(#l)"><path fill="none" stroke="#000" stroke-linecap="round" stroke-linejoin="round" stroke-miterlimit="10" stroke-width=".5" d="M227.3125 481.13281l-6.84375-1.60547"/></g><g clip-path="url(#m)"><path fill="none" stroke="#000" stroke-linecap="round" stroke-linejoin="round" stroke-miterlimit="10" stroke-width=".5" d="M226.3164 480.89844l.3125 1.1875"/></g><g clip-path="url(#n)"><path fill="none" stroke="#000" stroke-linecap="round" stroke-linejoin="round" stroke-miterlimit="10" stroke-width=".5" d="M240.13281 482.27344l-5.85547-3.89063"/></g><g clip-path="url(#o)"><path fill="none" stroke="#000" stroke-linecap="round" stroke-linejoin="round" stroke-miterlimit="10" stroke-width=".5" d="M253.66797 481.88672l-6.29688-3.11719"/></g><g clip-path="url(#p)"><path fill="none" stroke="#000" stroke-linecap="round" stroke-linejoin="round" stroke-miterlimit="10" stroke-width=".5" d="M266.82031 482.1875l-5.96875-3.71484"/></g><g clip-path="url(#q)"><path fill="none" stroke="#000" stroke-linecap="round" stroke-linejoin="round" stroke-miterlimit="10" stroke-width=".5" d="M280.11719 482.21484l-5.9336-3.76953"/></g><g clip-path="url(#r)"><path fill="none" stroke="#000" stroke-linecap="round" stroke-linejoin="round" stroke-miterlimit="10" stroke-width=".5" d="M293.73438 481.61719l-6.53907-2.57422"/></g><g clip-path="url(#s)"><path fill="none" stroke="#000" stroke-linecap="round" stroke-linejoin="round" stroke-miterlimit="10" stroke-width=".5" d="M292.78516 481.24219l.13671 1.21875"/></g><g clip-path="url(#t)"><path fill="none" stroke="#000" stroke-linecap="round" stroke-linejoin="round" stroke-miterlimit="10" stroke-width=".5" d="M306.65234 482.35547l-5.74218-4.05078"/></g><g clip-path="url(#u)"><path fill="none" stroke="#000" stroke-linecap="round" stroke-linejoin="round" stroke-miterlimit="10" stroke-width=".5" d="M320.26953 481.83203l-6.34765-3.00781"/></g><g clip-path="url(#v)"><path fill="none" stroke="#000" stroke-linecap="round" stroke-linejoin="round" stroke-miterlimit="10" stroke-width=".5" d="M333.5625 481.88672l-6.30078-3.11328"/></g><g clip-path="url(#w)"><path fill="none" stroke="#000" stroke-linecap="round" stroke-linejoin="round" stroke-miterlimit="10" stroke-width=".5" d="M346.9414 481.74219l-6.43359-2.82813"/></g><g clip-path="url(#x)"><path fill="none" stroke="#000" stroke-linecap="round" stroke-linejoin="round" stroke-miterlimit="10" stroke-width=".5" d="M360.17188 481.92188l-6.26172-3.1875"/></g><g clip-path="url(#y)"><path fill="none" stroke="#000" stroke-linecap="round" stroke-linejoin="round" stroke-miterlimit="10" stroke-width=".5" d="M373.20703 482.38281l-5.69922-4.10937"/></g><g clip-path="url(#z)"><path fill="none" stroke="#000" stroke-linecap="round" stroke-linejoin="round" stroke-miterlimit="10" stroke-width=".5" d="M384.10156 483.8164l-.85937-6.97656"/></g><g clip-path="url(#A)"><path fill="none" stroke="#000" stroke-linecap="round" stroke-linejoin="round" stroke-miterlimit="10" stroke-width=".5" d="M393.625 479.3086l6.72266 2.03906"/></g><g clip-path="url(#B)"><path fill="none" stroke="#000" stroke-linecap="round" stroke-linejoin="round" stroke-miterlimit="10" stroke-width=".5" d="M413.64453 479.24219l-6.6836 2.17187"/></g><g clip-path="url(#C)"><path fill="none" stroke="#000" stroke-linecap="round" stroke-linejoin="round" stroke-miterlimit="10" stroke-width=".5" d="M412.67188 479.5586l.8828.85156"/></g><g clip-path="url(#D)"><path fill="none" stroke="#000" stroke-linecap="round" stroke-linejoin="round" stroke-miterlimit="10" stroke-width=".5" d="M426.92578 479.14844l-6.6211 2.35937"/></g><g clip-path="url(#E)"><path fill="none" stroke="#000" stroke-linecap="round" stroke-linejoin="round" stroke-miterlimit="10" stroke-width=".5" d="M425.96484 479.49219l.90625.82812"/></g><g clip-path="url(#F)"><path fill="none" stroke="#000" stroke-linecap="round" stroke-linejoin="round" stroke-miterlimit="10" stroke-width=".5" d="M440.01953 482.00781l-6.17578-3.35937"/></g><g clip-path="url(#G)"><path fill="none" stroke="#000" stroke-linecap="round" stroke-linejoin="round" stroke-miterlimit="10" stroke-width=".5" d="M453.36328 481.94922l-6.23437-3.23828"/></g><g clip-path="url(#H)"><path fill="none" stroke="#000" stroke-linecap="round" stroke-linejoin="round" stroke-miterlimit="10" stroke-width=".5" d="M466.63281 482.03516l-6.14453-3.41016"/></g><g clip-path="url(#I)"><path fill="none" stroke="#000" stroke-linecap="round" stroke-linejoin="round" stroke-miterlimit="10" stroke-width=".5" d="M147.25781 468.32422l-6.51562-2.6211"/></g><path fill="none" stroke="#000" stroke-linecap="round" stroke-linejoin="round" stroke-miterlimit="10" stroke-width=".5" d="M146.3125 467.94531l.1289 1.21875m14.14454-.86719l-6.54297-2.5664m5.58984 2.19531l.14063 1.21875m13.94531-.45703l-6.17969-3.34766m5.28125 2.85938l-.00781 1.22656m14.50781-1.4414l-6.75-1.94141m5.76953 1.66015l.25391 1.19922m14.1211-1.24218l-6.90626-1.29297m5.89844 1.10547l.36719 1.17187m13.94531-.92969l-6.88672-1.40234m5.88281 1.19922l.34766 1.17578m13.90625-.70703l-6.75781-1.9336m6.75781 1.9336l.51172 2.39844M240.5 468.23437l-6.58984-2.4414m5.6328 2.08594l.16407 1.21484m13.8789-.36328l-6.1289-3.4336m5.23828 2.9336l-.02734 1.22656m14.26562-.78516l-6.1953-3.3164m5.29296 2.83203v1.22656m14.17578-.66797l-6.11328-3.46484m5.22266 2.96094l-.03125 1.22656m14.44922-1.16797l-6.53907-2.57422m5.58985 2.19922l.13671 1.21875m14.3711-2l-7.02344-.26172m6 .22266l.53516 1.10156m13.79297-1.4961l-7.00391.60548m5.98438-.51563l.66796 1.02734m13.66797-1.07421l-7.00781.51953m5.98828-.44532l.65625 1.03907m13.55078.11718l-6.7539-1.9414m5.77343 1.66015l.25391 1.19922m14.17188-1.64453l-7.01172-.48828m5.99218.41797l.4961 1.1211m13.66797-2.39844l-6.67188 2.20703m5.70313-1.88672l.88671.84765m13.42579-1.07421l-6.73047 2.01953m5.7539-1.72657l.86329.8711m10.17187 3.35937l-.21484-7.02734m.18359 6.0039l-1.0625.60938m17.53125-1.71875l-6.46094-2.76172m5.52344 2.35938l.10156 1.22265m14.10938-3.67968l-6.375 2.95703m5.44531-2.52735l.98047.73829m13.58203.55078l-7.01172-.48047m5.99219.41015l.5 1.1211m13.20312.72656l-5.75-4.03516m4.91407 3.44922l-.15235 1.21875m14.30469-.63281l-5.7539-4.03516m4.91796 3.44922l-.14844 1.21485"/><g clip-path="url(#J)"><path fill="none" stroke="#000" stroke-linecap="round" stroke-linejoin="round" stroke-miterlimit="10" stroke-width=".5" d="M147.10156 455.35156l-6.20312-3.30469"/></g><path fill="none" stroke="#000" stroke-linecap="round" stroke-linejoin="round" stroke-miterlimit="10" stroke-width=".5" d="M146.19922 454.8711l-.0039 1.22656m14.14843-.6211l-6.0586-3.5586m5.1797 3.04298l-.0547 1.22656m14.60938-1.57031l-6.78125-1.83985m5.79688 1.57422l.27343 1.19531m14.09375-1.22656l-6.91406-1.24219m5.91016 1.0625l.375 1.16797m13.9961-1.4414l-7.01954-.33985m6 .29297l.51953 1.10938m13.69922-.32422l-6.78906-1.8125m6.78906 1.8125l.55469 2.39062m12.8789-3.30468l-7.02734.01562m7.02734-.01562l1.16016 2.16406m12.15625-2.1836l-7.02734.0547m7.02734-.0547l1.16797 2.15625m12.13281-2.45312l-6.9961.64453m6.9961-.64453l1.34766 2.05078m11.94531-1.23047l-6.95703-.99218m5.94531.84765l.41797 1.15235m13.46484.26953l-6.0664-3.54688m5.1836 3.03125l-.05079 1.22656m14.34766-.89062l-6.26563-3.1875m5.35547 2.72266l.01953 1.22656m14.58203-2.1836l-7.01562-.34375m5.9961.29297l.51952 1.10938m13.73047-.4336l-6.84766-1.59375m5.85157 1.35938l.3164 1.1875m13.95313-2.70703l-6.76172 1.91406m5.77734-1.63672l.84766.88672m13.40234-1.32031l-6.66406 2.22656m5.69531-1.90234l.88672.84375m13.15235-1.73438l-6.17579 3.35938m5.27735-2.8711l1.02344.67578m13.25-1.04687l-6.29297 3.125m5.375-2.67188l1 .71485m13.53515-.26563l-6.90234 1.32031m5.89844-1.1289l.76953.95703m10.6875-3.95313l-1.17578 6.9297m14.08984.04296l-.3711-7.01562m.3711 7.01562l-2.10156 1.26563m18.27734-3.02344l-6.09375-3.5m5.20703 2.98828l-.03906 1.22656m14.1211-.52344l-5.85547-3.8828m5.85546 3.8828l-.23828 2.44141m12.94922-1.75l-4.64844-5.26562m3.97266 4.5l-.42969 1.14843m13.48047.21485l-2.76562-6.46094m2.36328 5.51953l-.76953.95703"/><g clip-path="url(#K)"><path fill="none" stroke="#000" stroke-linecap="round" stroke-linejoin="round" stroke-miterlimit="10" stroke-width=".5" d="M147.21484 441.80078l-6.42968-2.83203"/></g><path fill="none" stroke="#000" stroke-linecap="round" stroke-linejoin="round" stroke-miterlimit="10" stroke-width=".5" d="M146.28125 441.38672l.08984 1.22265m13.85157-.2539l-5.81641-3.94531m4.96875 3.37109L159.2461 443m14.1875-.5l-5.60938-4.23438m4.79297 3.6172l-.1914 1.21484m14.41405-.72266l-5.78906-3.98438m4.94531 3.40625l-.14062 1.21875m14.53516-1.03515l-6.26172-3.1914m6.26172 3.1914l.04296 2.45312m13.65625-4l-7.02734-.10156m7.02734.10156l1.1211 2.1836m12.1914-2.08985l-7.02343-.28906m7.02343.28906l1.0625 2.21094m12.25-2.49219l-7.01953.27344m7.01953-.27344l1.23828 2.1211m11.88672-3.13282l-6.64062 2.29688m6.64062-2.29688l1.79688 1.67188m11.44922-1.85156l-6.5039 2.66015m6.5039-2.66015l1.88672 1.57031m11.47265-1.46484l-6.58593 2.44921m5.625-2.09375l.91796.8125m13.55079-.3789l-6.97266.86719m6.97266-.8672l1.41015 2.00782m11.85156-2.3125l-6.86718 1.48047m5.86718-1.26563l.79297.9375m13.33985-1.74218l-6.50391 2.66015m5.5586-2.27343l.9414.78515m12.22266-2.61719l-4.3086 5.55079m3.67969-4.7461l1.21094.21094m12.375-1.26172l-3.59375 6.03906M345 438.2422l1.22656.0586m13.25-.44923l-4.8711 5.0625m4.16407-4.32422l1.17969.33594m11.96875-1.6914l-3.125 6.29687m2.67187-5.3789l1.22657-.03516m9.03515-.66016l3.88672 5.85547m-3.32031-5.0039l.58594-1.07813m10.65625 3.80469l6.90234-1.30079m11.32031 3.84766l-2.91015-6.39844m2.48437 5.46875l-.7461.97266m12.1172.15234l1.82812-6.78515m-1.5625 5.79687l-1.19531.27344m16.6289.51172l-2.9414-6.3789m2.9414 6.3789l-1.48437 1.95312m16.80078-5.6914l-6.9414 1.09375m5.92968-.9336l.73828.98047m11.32813 2.70703l-2.42188-6.59765m2.07032 5.63672l-.82032.91406"/><g clip-path="url(#L)"><path fill="none" stroke="#000" stroke-linecap="round" stroke-linejoin="round" stroke-miterlimit="10" stroke-width=".5" d="M146.73828 429.26953l-5.47656-4.40234"/></g><path fill="none" stroke="#000" stroke-linecap="round" stroke-linejoin="round" stroke-miterlimit="10" stroke-width=".5" d="M145.9414 428.6289l-.23046 1.20704m14.4961-.76953l-5.78126-3.9961m4.9375 3.41407l-.14062 1.21875m13.87109-.12891l-4.92969-5.01172m4.21485 4.28125l-.3711 1.17188m13.83594.0078l-3.79688-5.91015m3.2422 5.05078l-.59766 1.07032m15.93359-2.14844l-6.72656-2.03516m6.72656 2.03516l.47266 2.40625m12.97265-3.76953l-6.99219.6914m5.97657-.58984l.67969 1.02344m13.55078.125l-6.78907-1.8086m5.80078 1.54688l.27735 1.19531m12.83984.89453l-4.41797-5.46484m3.77735 4.66797l-.48047 1.1289m15.58984-4.07812l-6.72656 2.03125m5.75-1.73828l.86328.87109m12.60938-2.57422l-5.08594 4.84766m4.34766-4.14063l1.16406.38672m12.8086-1.17578l-4.92579 5.01172m4.20703-4.28125l1.17969.34766m11.41406 1.42968l-.01953-.20312-.0586-.1914-.09374-.17579-.46094-.375-.1914-.0586-.19923-.01952-.19921.01953-.19141.05859-.45703.375-.09766.17578-.05469.1914-.01953.20313.01953.19922.0547.1914.09765.17579.45703.375.1914.0586.19922.01952.19922-.01953.1914-.0586.46095-.375.09375-.17577.05859-.1914.01953-.19923m13.89063-3.13281l-3.19532 6.26172m2.73047-5.34766l1.22657-.02343m14.3828 1.46484l-6.85546 1.55078m5.85937-1.32422l.80079.92969m10.76171-3.82813l-1.35937 6.89454m1.35937-6.89454l2.34766-.71093m12.85156 1.7539l-5.125 4.8086m4.3789-4.10938l1.16017.39453m9.6953-2.14453l1.28516 6.91016m-1.09765-5.90235l.96094-.76562m9.42968 2.25l6.75782 1.92578m-5.77344-1.64453l-.25781-1.19922m13.60156-.71484l4.73437 5.1914m-4.04687-4.4375l.41015-1.15234m14.97266 6.48437l-.77734-6.98046m14.17187 6.97265l-.9336-6.96484m.79688 5.95312l-.9961.71485m13.84767.32422l.26562-7.01954m15.14844 6.42188l-3.9336-5.82422m3.9336 5.82422l-1.14844 2.16797m15.64063-6.65235l-6.28516 3.14454m5.3711-2.6875l.99609.71093m13.05078 2.29297l-5.92578-3.77734m5.0664 3.22656l-.09765 1.22266"/><g clip-path="url(#M)"><path fill="none" stroke="#000" stroke-linecap="round" stroke-linejoin="round" stroke-miterlimit="10" stroke-width=".5" d="M146.91797 415.71094l-5.83594-3.91406"/></g><path fill="none" stroke="#000" stroke-linecap="round" stroke-linejoin="round" stroke-miterlimit="10" stroke-width=".5" d="M146.07031 415.14063l-.125 1.22265m13.61719.09375l-4.49219-5.40625m3.83594 4.61719l-.46484 1.13672m14.1289-.1211l-3.8789-5.85937m3.3125 5.00781l-.58203 1.07813m15.26562-.96094l-5.48438-4.39063m5.48438 4.39063l-.45313 2.41016m11.7422-1.16407l-1.4297-6.88281m1.21875 5.8789l-.9414.78516m15.08203.02735l-2.66406-6.5m2.27734 5.55468l-.78516.94532m10.14844-5.07032l6.01563 3.63672m8.73437 1.32422l3.14453-6.28515m-3.14453 6.28515l-2.45312.0625m17.5664.30078l-.45312-7.01172m.39062 5.9922l-1.04687.64452m15.3789-6.4375l-2.35937 6.61719m17.75-4.63281l-6.51172 2.64453m5.5625-2.25781l.9414.78515m13.57813.28125l-7.02343-.26172m6.0039.22657l.53516 1.10156m9.45703-4.60938l1.66016 6.82813m15.80078-4.57813l-6.62891 2.32813m5.66406-1.98828l.90235.83203m9.30468-3.4375l1.51563 6.85937m-1.29297-5.86328l.9336-.79687m14.42187.05469l-3.00781 6.35156m2.5703-5.42578l1.22657-.0586m11.67188-1.14453l-1.30078 6.90625m1.11328-5.90234l1.17187-.36328m11.86719 6.3203l-.375-7.01562m11.51172.61329l3.98047 5.78906m-3.39844-4.94922l.5664-1.08594m12.54297.01953l3.23047 6.24219m-3.23047-6.24219l1.39454-2.01953m11.32421 2.41016l4.42188 5.46094m-4.42188-5.46094l.95704-2.25781m17.4453 7.0039l-5.7539-4.03125m4.91797 3.44531l-.14844 1.21875m14.9375-2.5664l-7.02734-.16406m6.0039.14062l.55079 1.09766m13.74218-1.72657l-6.93359 1.14063m5.92188-.97656l.74609.97656m9.57422-4.04297l1.07812 6.94531"/><g clip-path="url(#N)"><path fill="none" stroke="#000" stroke-linecap="round" stroke-linejoin="round" stroke-miterlimit="10" stroke-width=".5" d="M147.5039 400.71484l-7.0078-.55468"/></g><path fill="none" stroke="#000" stroke-linecap="round" stroke-linejoin="round" stroke-miterlimit="10" stroke-width=".5" d="M146.48438 400.63281l.48828 1.125m13.69922-.28515l-6.71485-2.07032m5.73828 1.76954l.23047 1.20312m13.88281-.4375l-6.35547-3m5.4297 2.5625l.05859 1.22656m14.51172-2.07422l-7.01563-.42578m5.9961.36328l.5078 1.1172m7.84766-3.76563l4.9414 4.99609m-4.22265-4.26953l.36328-1.17188m11.20313 2.64454l7 .59765m-7-.59765l-.96094-2.25782m14.41797 1.52344l6.71875 2.0664m-6.71875-2.0664l-.46094-2.41016m17.28906 6.95313l-.30468-7.01953m.25781 5.9961l-1.05469.625m15.1836.27733l-1.84375-6.78125m1.84375 6.78125l-1.78907 1.6797m17.26563-3.38282l-6.16406-3.3711m5.26562 2.87891l-.01172 1.22656m14.53906-3.32421l-6.79296 1.80468m5.80468-1.54296l.83594.89843m11.48438 2.96094l-2.82813-6.4336m2.82813 6.4336l-1.51954 1.92578m15.51563-7.96484l-4.1875 5.64062m3.57812-4.82031l1.21485.1836m10.82031 5.32421l-.41016-7.01562m.35157 5.9961l-1.04688.63671m17.19922-4.97656l-5.96875 3.70312m5.10156-3.16406l1.0625.61719m11.10938-2.67969l-1.94922 6.75m1.66797-5.76563l1.19922-.2539m9.51562-.30469l3.8164 5.90235m-3.26171-5.04297l.59766-1.07422m17.34375 4.4414l-6.54688-2.55468m17.88672-1.98829l-2.59766 6.53125m2.59766-6.53125l2.4414-.26953m9.83204.03125l-.51172 7.00782m.51172-7.00782l2.24218-.99218m-2.3164 2.01171l1.1211-.49609m11.58984-.50781l.84375 6.97656m-.71875-5.96094l1.0039-.70312m11.69531-.21485l1.82422 6.78516m15.59766-1.92969l-6.38672-2.92968m5.45703 2.5039l.07422 1.22266m14.3711-1.35547l-6.78907-1.8125m5.80078 1.55078l.27735 1.1914m12.22265-4.96874l-3.18359 6.26562m2.72266-5.35156l1.22656-.02344"/><g clip-path="url(#O)"><path fill="none" stroke="#000" stroke-linecap="round" stroke-linejoin="round" stroke-miterlimit="10" stroke-width=".5" d="M146.91016 385.15625l-5.82032 3.9375"/></g><path fill="none" stroke="#000" stroke-linecap="round" stroke-linejoin="round" stroke-miterlimit="10" stroke-width=".5" d="M146.0625 385.72656l1.08594.57422m12.83203 3.11328l-5.32813-4.58203m17.3125 5.54297l-2.66797-6.5039m17.84375 4.71093l-6.39062-2.91797m5.46094 2.49219l.07422 1.22656m12.66015-5.34375l-3.3711 6.16797m2.88282-5.26953l1.22656.01563m12.125-1.1211l-2.46484 6.58203m2.46484-6.58203l2.4297-.32031m10.41796 7.03906l-1.53125-6.85547m1.3086 5.85938l-.9297.79687m16.01173-5.875l-4.6172 5.29688m3.94532-4.52735l1.19531.27735m13.01563 4.03515l-5.0664-4.87109m4.32812 4.16406l-.33594 1.17969m15.23437-1.94922l-6.7578-1.91797m6.7578 1.91797l.51953 2.39844m12.88282-2.79297l-6.9336-1.1289m5.92578.96484l.39454 1.16015m13.86718-.69921l-6.8125-1.71875m5.82422 1.46875l.29297 1.1875m13.86328-3.11329l-6.51562 2.62891m5.5664-2.2461l.94141.78907m13.54688-.33203l-6.96485.95312m6.96485-.95312l1.43359 1.98828m11.25-3.5664l-5.70313 4.10546m5.70313-4.10547l2.20312 1.08594m10.8086-1.45313l-5.09375 4.83985m5.09375-4.83985l2.32812.77735m11.36328-.30469l-5.84765 3.89453m4.9961-3.32812l1.08202.58203m13.3086-.76172l-6.29688 3.1211m6.29688-3.1211l1.99609 1.42969m9.22656-3.21875l-2.10937 6.69922m2.10937-6.69922l2.41407-.44922m10.34765.32031l-1.0039 6.95703m1.0039-6.95703l2.3086-.82812m11.6875.99609l-2.36329 6.6211m2.36329-6.6211l2.42578-.35547m11.23047.5l-3.04688 6.33203m3.04688-6.33203l2.44921-.09765m9.25-.25l.1836 7.02734m14.88672-.41797l-3.32813-6.1914m2.84375 5.28906l-.6836 1.01953m15.92188-1.5625l-6.20312-3.30078m5.30078 2.8203l-.0039 1.22657"/><g clip-path="url(#P)"><path fill="none" stroke="#000" stroke-linecap="round" stroke-linejoin="round" stroke-miterlimit="10" stroke-width=".5" d="M146.44531 371.28516l-4.89062 5.04296"/></g><path fill="none" stroke="#000" stroke-linecap="round" stroke-linejoin="round" stroke-miterlimit="10" stroke-width=".5" d="M146.44531 371.28516l2.35938.68359m11.36328-.21484l-5.70313 4.10546m15.48047 1.39454l1.3711-6.89063m-1.17188 5.88672l-1.17578.35547m16.1289.52344l-2.30468-6.64063m1.96875 5.67188l-.83594.90234m16.83203-3.60156l-6.99219.69531m6.9922-.69531l1.35937 2.03906m10.44922-4.58594l-3.98438 5.78906m3.98438-5.78906l2.4414.28125m-3.01953.5625l1.21875.14063m14.15625 1.3789l-6.94531 1.0586m6.94531-1.0586l1.46484 1.96875m11.5547-2.93359l-6.35548 2.99219m6.35547-2.99219l1.96485 1.46875m-2.88672-1.03516l.98047.73438m12.84375-1.83985l-5.52735 4.33594m5.52735-4.33594l2.24218.9922m-3.04687-.36329l1.1211.4961m13.07812-1.01954l-5.6875 4.125m5.6875-4.125l2.20312 1.07813m-3.03125-.47656l2.20703 1.07812m12.59766.15235l-7.01172.45703m7.01172-.45704l1.28906 2.08985m12.03125-1.74219l-7.02344-.23437m7.02344.23437l1.07813 2.20703m12.21875-2.69922l-6.98438.7461m6.98438-.7461l1.375 2.03516m-2.39063-1.92578l.6875 1.01562m13.64063-1.14453l-6.98047.78906m6.98047-.78906l1.38672 2.02344m-2.40235-1.90625l.69531 1.01172m13.46094-1.89453l-6.63281 2.32031m6.63281-2.32031l1.80469 1.66406m11.51172-1.66797l-6.63281 2.32813m6.6328-2.32813l1.80079 1.66406m11.28516-2.17578l-6.17579 3.35156m6.17579-3.35156l2.04687 1.35547m11.26953-1.35547l-6.17578 3.35156m6.17578-3.35156l2.04297 1.35156m10.5586-2.26562l-4.75 5.17969m4.75-5.17969l2.375.61328m9.89062-1.27734l-2.65234 6.50781m2.65234-6.50781l2.4414-.25M397.92579 371.5l1.22266-.125m12.39453-.85156l-2.48438 6.57031m2.48438-6.57031l2.4336-.3125m10.66796.23828l-2.05469 6.71875m2.0547-6.71875l2.41015-.46875m10.58594.38672l-1.41797 6.88281m1.41796-6.88281l2.35157-.6914m9.61328 7.58593l1.28515-6.90625m10.51954 6.23047l4.30078-5.5586m-3.67188 4.75l-1.21094-.20703"/><g clip-path="url(#Q)"><path fill="none" stroke="#000" stroke-linecap="round" stroke-linejoin="round" stroke-miterlimit="10" stroke-width=".5" d="M146.73438 358.28516l-5.46875 4.41406"/></g><path fill="none" stroke="#000" stroke-linecap="round" stroke-linejoin="round" stroke-miterlimit="10" stroke-width=".5" d="M146.73438 358.28516l2.2578.96484m9.7461-1.96875l-2.84375 6.42578m2.84375-6.42578l2.44531-.17969m6.14453 2.1914l6.60547 2.39845m-5.64453-2.04688l-.17187-1.21484m14.58594 5.35156l2.48437-6.57422m-2.1211 5.61719l-1.21874.15625m12.91015-.01953l5.0039-4.9375m-4.27343 4.21875l-1.17187-.36719m16.8125-4.85156l-1.10547 6.9375m17.03906-4.97656L220.71875 362m6.34375-3.01563l1.97266 1.46094m-2.89453-1.02344l.98437.73438m12.8086-1.875l-5.45704 4.42578m5.45703-4.42578l2.26172.95703m-3.05469-.3125l1.12891.47656m12.11328-1.88671l-3.72656 5.95703m3.72656-5.95704l2.44922.17188m-2.98828.69531l1.22266.08594m11.42968-1.42578l-1.3203 6.90234m1.3203-6.90234l2.34375-.72656m-2.53515 1.73046l1.17187-.36328m13.95313.13672l-4.5586 5.34766m4.5586-5.34766l2.39453.52735m12.15234 2.0664l-7.02344.16016m7.02344-.16016l1.20313 2.13672m11.67578-.35937l-6.15235-3.39454m5.25782 2.89844l-.01953 1.22656m14.61718-3.01953l-6.92578 1.1836m5.91797-1.01172l.75.97265m13.42188-1.73046l-6.6211 2.35156m6.6211-2.35156l1.80859 1.65625m-2.77344-1.3125l.90625.82812m13.54688-.4375l-6.96875.88281m6.96875-.8828l1.41406 2.0078m11.46484-3.30859l-6.09765 3.48828m6.09765-3.48828l2.07813 1.3086m10.33594-2.34376l-4.29688 5.5586m3.67188-4.75l1.21093.20703m12.65625-1.07422l-4.14843 5.67188m4.14843-5.67188l2.4297.35156m10.83593-.38672l-4.05078 5.7422m4.05078-5.7422l2.4336.3086m8.96484-.94922l-.21875 7.02344m.21875-7.02344l2.19921-1.08203m11.78125 1.16797l-1.54687 6.85546m1.32031-5.85937l1.1836-.32422m12.82421-.53125l-2.48046 6.57422m2.48046-6.57422l2.4336-.3125m11.39062.55078l-3.5 6.09375m2.9922-5.20703l1.22655.04297m11.9375-1.22266l-2.18359 6.6797"/><g clip-path="url(#R)"><path fill="none" stroke="#000" stroke-linecap="round" stroke-linejoin="round" stroke-miterlimit="10" stroke-width=".5" d="M146.9414 345.25781l-5.8828 3.83985"/></g><path fill="none" stroke="#000" stroke-linecap="round" stroke-linejoin="round" stroke-miterlimit="10" stroke-width=".5" d="M146.9414 345.25781l2.14844 1.1836m10.3125-2.08985l-4.17187 5.65235m4.17187-5.65235l2.42578.35938m-3.03515.46094l1.21484.17968m14.125 2.09375l-7.00781-.53515m7.00781.53515l.98438 2.25m-2.0039-2.32812l.49218 1.125m12.8086 1.1836l-4.9375-4.9961m4.9375 4.9961l-.73048 2.34374m.01172-3.07031l-.36328 1.17187m14.79688-.91796l-5.73828-4.05079m5.73828 4.05079l-.3047 2.43359m14.10548-5.5l-6.71094 2.08203m6.71094-2.08203l1.74219 1.72656m-2.71875-1.42187l.87109.86328m12.67969-2.47266l-5.22657 4.6914m5.22657-4.6914l2.30468.84375m-3.0625-.16015l1.15235.42187m11.67578-1.9961l-2.73828 6.47266m2.73828-6.47265l2.44531-.21485m9.7539-.05469l-.5039 7.01172m.5039-7.01171l2.2422-.9922m9.6914 1.17188l2.25781 6.65235m-1.92968-5.6836l.83984-.89453m11.65625.13672l3.24219 6.23438m15.16406-2.58985l-6.94531-1.0586m5.9375.90235l.40625 1.16016m13.9414-1.1875l-6.99218-.6914m6.99218.6914l.9336 2.26953m-1.94922-2.3711l.46484 1.13672m13.8789-1.22656l-7.01952-.30469m7.01953.3047l1.0586 2.21483m-2.07813-2.26171l.52734 1.10937m13.42969-2.8086l-6.26172 3.1875m6.26172-3.1875l2.00781 1.40626m9.875-2.88672l-3.40234 6.14844M344.93359 345l1.22657.01953m11.5039-1.30078l-1.2461 6.91797m1.06642-5.91016l1.16796-.375m9.00782.57422l5.39453 4.5039m-4.60938-3.84765l.25-1.19922m13.60938-.4414l2.73437 6.47265m-2.33594-5.53125l.77344-.95312m13.98438-.23438l-.94922 6.96485m14.76562-6.85547l-1.95312 6.75m1.95312-6.75l2.40235-.50781m9.85547.36718l.16406 7.02735m-.16406-7.02735l2.13671-1.19922m10.28125 1.33985l1.95704 6.75m-1.67188-5.76953l.88281-.85547m15.22657.42969l-4.19922 5.63671m3.58594-4.8164l1.21484.1875m14.0586 1.13672l-6.89454 1.34765m5.89453-1.15234l.77344.95312"/><g clip-path="url(#S)"><path fill="none" stroke="#000" stroke-linecap="round" stroke-linejoin="round" stroke-miterlimit="10" stroke-width=".5" d="M146.51563 331.41016l-5.03125 4.90625"/></g><path fill="none" stroke="#000" stroke-linecap="round" stroke-linejoin="round" stroke-miterlimit="10" stroke-width=".5" d="M145.78125 332.1211l1.17188.375m13.16796-.75l-5.60937 4.23437m5.60937-4.23438l2.22266 1.03516m-3.03906-.41797l1.10937.51563m13.66016.29296l-6.89063 1.38282m6.89063-1.38281l1.55469 1.89843m-2.5547-1.69922l1.5547 1.89844m12.82812-1.27734l-7.02344-.25781m7.02344.2578l1.07031 2.20704m-2.09375-2.2461l.53516 1.10547m13.76172-1.7539l-6.9375 1.11719m6.9375-1.1172l1.48047 1.95704m11.30469-3.32422l-5.87891 3.85156m5.8789-3.85156l2.14844 1.17969m10.8789-1.55469l-5.30468 4.60156m5.30469-4.60156l2.29297.8789m10.41406-1.43359l-4.08984 5.71094m3.49609-4.88281l1.21484.16406m12.8672-.86328l-4.4336 5.45312m4.4336-5.45312l2.40624.47265m11.39844.01563l-5.41406 4.47656m4.6289-3.82422l1.13281.46875m13.75782.79688l-6.9961.64062m6.9961-.64062l1.34375 2.05469m11.91797-2.4297l-6.88672 1.39063m6.88672-1.39062l1.55859 1.89453m-2.5625-1.6914l.78125.9453m12.99219-2.4375l-5.79688 3.96876m5.79688-3.96875l2.17578 1.1328m8.83594-2.61327L316.5 337.32422m1.01562-5.91797l1.16797-.38281m14.58985.80078l-5.72266 4.07812m4.89063-3.48437l1.09765.54687m12.67969-1.57421l-4.98828 4.9453m4.98828-4.9453l2.34375.72656m9.09766-1.71094l-1.23829 6.91406m1.23829-6.91406l2.33593-.7539m12.60938 6.91015l-4.5-5.39844m17.33203-.33984l-3.53125 6.07812m3.01562-5.1914l1.22657.04297m9.7539-1.23438l2.16797 6.6836m-1.85156-5.71094l.85156-.88281m9.88672 2.17187l6.6875 2.16406m-5.71484-1.85156l-.21094-1.20703m15.125-1.45313l1.54297 6.85547m10.9414-6.55078l3.20704 6.25m-3.20704-6.25l1.40235-2.01562m11.5586 2.22265l3.91405 5.83594m-3.34375-4.98828l.57813-1.08203m12.07031.30078l4.10547 5.70312"/><g clip-path="url(#T)"><path fill="none" stroke="#000" stroke-linecap="round" stroke-linejoin="round" stroke-miterlimit="10" stroke-width=".5" d="M147.50781 320.73828l-7.01562-.3789"/></g><path fill="none" stroke="#000" stroke-linecap="round" stroke-linejoin="round" stroke-miterlimit="10" stroke-width=".5" d="M147.50781 320.73828l1.03516 2.22266m11.69531-4.36328l-5.84766 3.89843m5.84766-3.89843l2.16016 1.16406m11.33984-.85547l-6.21484 3.28516m6.21484-3.28516l2.02734 1.3789m-2.93359-.90234l1.01563.6914m12.99609-1.51171l-5.79688 3.97266m5.79688-3.97266l2.17578 1.13672M186 319.14062l1.08594.56641m13.54687-.14453l-6.7461 1.97266m6.7461-1.97266l1.71485 1.75781m-2.69532-1.47265l.85547.8789m13.14453-1.8711l-6.15625 3.38673m6.15625-3.38672l2.0547 1.34375m11.15233-1.52735l-5.9414 3.75391m5.07812-3.20703l1.06641.60547m13.625.25781l-6.96484.92969m5.95312-.79297l.71484.9961M253.1797 318.25l-5.3164 4.59375m5.3164-4.59375l2.28906.88672m11.2539-.59375l-5.77343 4.01172m5.77344-4.01172l2.17968 1.1211m10.78125-1.55079l-5.0664 4.8711m5.0664-4.8711l2.33204.76172m-3.07032-.05469l1.16797.38281m13.07031-.8789l-5.4375 4.44922m5.4375-4.44922l2.26563.94531m9.89453-1.86719l-3.125 6.29297m3.125-6.29297l2.45313-.0703m12.78125 2.73827l-6.96485.95703m5.94922-.8203l.71875.99608M333.88281 320l-6.9414 1.09375m5.92968-.9336l.73829.98048m12.53125-3.14844l-4.82813 5.10937m4.125-4.36328l1.1836.32422m10.88671-1.9961l-.9336 6.96485m.9336-6.96484l2.30078-.85547m12.2461 1.26172l-3.39453 6.15234m3.39453-6.15234l2.45312.03515m9.84766-.40625l-1.36719 6.89453m1.16797-5.89062l1.17578-.35547m11.86719-.71094l-.42578 7.01563m.36328-5.99219l1.11719-.51172m11.8789-.51172l.33985 7.01953m-.33985-7.01953l2.10547-1.25781m8.44531 2.82813l5.86329 3.875m-5.00782-3.3086l.11719-1.22265m13.14453-.19922l4.26172 5.58984m-3.64062-4.77734l.51171-1.11329m13.33594-.28125l1.95313 6.75m-1.66797-5.76562l.8789-.85547m16.6172 2.85156l-6.98048.79297m5.96485-.67969l.6953 1.01172"/><path fill="#00f" fill-rule="evenodd" d="M312.78516 467.64844h8.62109V457.5039h-8.6211v10.14453"/><path fill="azure" fill-rule="evenodd" d="M314.6211 459.33594h.83202v2.82422h3.28516v-2.82422h.83203v6.48047h-.83203v-2.91797h-3.28515v2.91797h-.83204v-6.48047"/><path fill="#00f" fill-rule="evenodd" d="M170.75781 463.21094h8.6211V453.0625h-8.6211v10.14844"/><path fill="azure" fill-rule="evenodd" d="M172.59375 454.89844h.83203v2.82031h3.28516v-2.82031h.83203v6.48047h-.83203v-2.91797h-3.28516v2.91797h-.83203v-6.48047"/><path fill="#ff3030" fill-rule="evenodd" d="M366.74219 458.77344h7.6914V448.625h-7.6914v10.14844"/><path fill="azure" fill-rule="evenodd" d="M368.57422 450.45703h.83203v5.74219h3.19531v.73828h-4.02734v-6.48047"/><path fill="#00f" fill-rule="evenodd" d="M388.23828 436.57813h8.61719v-10.14454h-8.61719v10.14454"/><path fill="azure" fill-rule="evenodd" d="M390.07031 428.26563h.83594v2.82421h3.28516v-2.82421h.83203v6.48046h-.83203v-2.91406h-3.28516v2.91406h-.83594v-6.48046"/><path fill="#00f" fill-rule="evenodd" d="M206.26563 409.94922h8.61718v-10.14453h-8.61719v10.14453"/><path fill="azure" fill-rule="evenodd" d="M208.09766 401.63672h.83593v2.82422h3.28516v-2.82422h.83203v6.48047h-.83203v-2.91797h-3.28516v2.91797h-.83593v-6.48047"/><path fill="#ff3030" fill-rule="evenodd" d="M348.98828 409.94922h7.6914v-10.14453h-7.6914v10.14453"/><path fill="azure" fill-rule="evenodd" d="M350.82031 401.63672h.83203v5.73828h3.19532v.74219h-4.02735v-6.48047"/><path fill="#00f" fill-rule="evenodd" d="M370.48438 401.07422h8.62109v-10.14844h-8.6211v10.14844"/><path fill="azure" fill-rule="evenodd" d="M372.3164 392.76172h.83594v2.82031h3.28516v-2.82031h.83203v6.47656h-.83203v-2.91406h-3.28516v2.91406h-.83593v-6.47656"/><path fill="#ff3030" fill-rule="evenodd" d="M455.50781 396.63281h7.6914v-10.14453h-7.6914v10.14453"/><path fill="azure" fill-rule="evenodd" d="M457.33984 388.32031h.83594v5.74219h3.1914v.73828h-4.02734v-6.48047"/><path fill="#ff3030" fill-rule="evenodd" d="M184.76953 352.25h7.6914v-10.14453h-7.6914V352.25"/><path fill="azure" fill-rule="evenodd" d="M186.60156 343.9375h.83203v5.73828h3.19532v.74219h-4.02735v-6.48047"/><path fill="#ffffe0" fill-rule="evenodd" d="M363.9375 417.42188h22.17969v-10.19141H363.9375v10.1914"/><path fill-rule="evenodd" d="M367.4336 409.0625h.51171v6.29297h-.78906v-4.48828h-1.38672v-.55469l.5586-.0664.2539-.0547.22656-.08984.20313-.14062.17578-.21094.14063-.29297.10546-.39453m4.81641 0l.22656.01953.21875.05469.21094.08984.19531.1211.1836.14843.17187.17579.30078.41796.2461.4961.17968.54687.10938.57813.03906.58984-.03906.59375-.10938.58594-.17968.55078-.2461.5039-.30078.4297-.17187.17968-.1836.15235-.19531.12109-.21094.09375-.21875.0586-.22656.01952-.23047-.01953-.21875-.0586-.20703-.09374-.19922-.1211-.1836-.15234-.17187-.17969-.30078-.42968-.24219-.50391-.17968-.55078-.11329-.58594-.03906-.59375H371l.02734.5625.08204.50781.125.44141.16406.375.1914.30078.21094.22266.22266.13672.22656.04687.22656-.04687.22266-.13672.21094-.22266.1875-.30078.16406-.375.125-.4414.08203-.50782.03125-.5625-.03125-.5586-.08203-.5039-.125-.4336-.16406-.36718-.1875-.28906-.21094-.21485-.22266-.1328-.22656-.04298-.22656.04297-.22266.13281-.21094.21485-.1914.28906-.16406.36719-.125.4336-.08204.5039-.02734.5586h-.83594l.03906-.58985.11329-.57813.17968-.54687.2422-.4961.30077-.41796.17188-.17579.1836-.14843.19921-.1211.20703-.08984.21875-.05469.23047-.01953m4.95313 0l.22656.01953.21875.05469.21094.08984.1953.1211.1836.14843.17188.17579.30078.41796.24219.4961.17968.54687.11328.57813.03907.58984-.03907.59375-.11328.58594-.17969.55078-.24218.5039-.30078.4297-.17188.17968-.1836.15235-.1953.12109-.21094.09375-.21875.0586-.22656.01952-.23047-.01953-.21875-.0586-.20704-.09374-.19921-.1211-.1836-.15234-.17187-.17969-.30078-.42968-.2422-.50391-.17968-.55078-.11328-.58594-.03906-.59375h.83594l.02734.5625.08203.50781.125.44141.16406.375.1914.30078.21095.22266.22265.13672.22656.04687.22657-.04687.22265-.13672.20704-.22266.1914-.30078.16406-.375.125-.4414.08204-.50782.02734-.5625-.02735-.5586-.08203-.5039-.125-.4336-.16406-.36718-.1914-.28906-.20704-.21485-.22265-.1328-.22656-.04298-.22657.04297-.22265.13281-.21094.21485-.1914.28906-.16407.36719-.125.4336-.08203.5039-.02735.5586h-.83593l.03906-.58985.11328-.57813.17969-.54687.24219-.4961.30078-.41796.17187-.17579.1836-.14843.19921-.1211.20704-.08984.21875-.05469.23046-.01953m4.94922 0l.39063.02734.35547.08204.32422.13671.28125.1875.22656.23829.17578.28515.10938.33203.03515.375-.01953.27735-.0586.23437-.08593.19922-.11328.17188-.1289.14062-.14063.125-.28516.19531.23047.11719.21094.14844.17968.17187.15235.1914.125.21485.08984.23047.0586.24219.01562.25781-.03125.3086-.10547.32812-.17187.32422-.23829.30469-.30859.26953-.3711.21484-.21484.08203-.22656.0586-.2461.03906-.2578.01562-.26172-.01562-.2422-.03906-.22265-.0586-.20703-.08203-.35937-.21484-.28907-.26953-.22265-.3047-.15625-.32421-.09375-.32813-.03125-.30859h.83594l.02734.2539.07812.23438.1211.21094.16015.1836.19141.15234.22266.11719.23828.0703.2539.02735.25782-.02734.23828-.07031.22265-.1172.19141-.15234.16016-.18359.12109-.21094.07813-.23437.02734-.2539-.02735-.25392-.07812-.23437-.1211-.21094-.16015-.1875-.1914-.15234-.22266-.11328-.23828-.07422-.25782-.02344-.2539.02344-.23828.07422-.22266.11328-.1914.15234-.16016.1875-.1211.21094-.07812.23438-.02735.2539h-.83593l.01953-.2539.0586-.23829.08984-.22656.12109-.20703.15625-.1914.17969-.17188.21094-.15235.23046-.1328-.28515-.19532-.14063-.125-.1289-.14063-.11329-.17187-.08593-.19922-.0586-.23437-.01953-.27735h.78516l.02344.21485.0664.1914.10156.16797.13672.14063.16797.10937.1875.08203.20703.05078.21875.01563.22266-.01563.20703-.05078.1875-.08203.16406-.10937.13672-.14063.10547-.16797.0664-.1914.02344-.21485-.02343-.21484-.0664-.1875-.10548-.16797-.13672-.14063-.16406-.10937-.1875-.08203-.20703-.05078-.22266-.01563-.21875.01563-.20703.05078-.1875.08203-.16797.10938-.13671.14062-.10157.16797-.0664.1875-.02344.21484h-.78516l.03516-.375.10937-.33203.17188-.28515.23047-.23829.28125-.1875.32422-.13671.35546-.08204.38672-.02734"/><path fill="#ffffe0" fill-rule="evenodd" d="M395.0039 412.54688h22.1797v-10.19141h-22.1797v10.1914"/><path fill-rule="evenodd" d="M398.5039 404.1875h.50782v6.29688h-.78516v-4.48829h-1.39062v-.55859l.5625-.0625.25-.05469.23047-.08984.20312-.14063.17578-.21093.14063-.29297.10547-.39844m4.8125 0l.23046.01953.21875.0586.20704.08593.19921.1211.1836.15234.17187.17578.30079.41797.24218.49219.17969.54687.11328.58203.03516.58985-.03516.59375-.11328.58203-.17969.55469-.24219.5039-.30078.42578-.17187.1797-.1836.15233-.19921.125-.20704.09375-.21875.0547-.23046.01952-.22657-.01953-.22265-.05469-.20703-.09375-.19532-.125-.18359-.15234-.17188-.17969-.30078-.42578-.24609-.5039-.17969-.5547-.10937-.58202-.03906-.59375h.83203l.03125.5625.08203.50781.125.4414.16015.375.19141.30079.21094.21875.22265.13672.22657.04687.22656-.04687.22265-.13672.21094-.21875.1914-.30078.16407-.375.125-.44141.08203-.50781.02735-.5625-.02735-.5625-.08203-.5-.125-.4336-.16406-.36718-.1914-.29297-.21094-.21485-.22266-.1289-.22656-.04688-.22657.04688-.22265.1289-.21094.21485-.1914.29297-.16016.36718-.125.4336-.08203.5-.03125.5625h-.83204l.03907-.58985.10937-.58203.17969-.54687.2461-.49219.30077-.41797.17188-.17578.1836-.15234.1953-.1211.20704-.08594.22265-.05859.22657-.01953m4.95312 0l.23047.01953.21875.0586.20703.08593.19531.1211.1875.15234.16797.17578.30469.41797.24219.49219.17969.54687.11328.58203.03515.58985-.03515.59375-.11329.58203-.17968.55469-.24219.5039-.30469.42578-.16797.1797-.1875.15233-.1953.125-.20704.09375-.21875.0547-.23047.01952-.23047-.01953-.21875-.05469-.20703-.09375-.19531-.125-.1836-.15234-.17187-.17969-.30078-.42578-.2461-.5039-.17968-.5547-.10938-.58202-.03906-.59375h.83203l.03125.5625.07813.50781.1289.4414.16016.375.1914.30079.21094.21875.22266.13672.22656.04687.22656-.04687.22266-.13672.21094-.21875.1914-.30078.16016-.375.1289-.44141.08204-.50781.02734-.5625-.02734-.5625-.08203-.5-.12891-.4336-.16016-.36718-.1914-.29297-.21094-.21485-.22266-.1289-.22656-.04688-.22656.04688-.22266.1289-.21094.21485-.1914.29297-.16016.36718-.1289.4336-.07813.5-.03125.5625h-.83203l.03906-.58985.10938-.58203.17969-.54687.24609-.49219.30078-.41797.17188-.17578.18359-.15234.19531-.1211.20703-.08594.21875-.05859.23047-.01953m4.95313 0l.38671.03125.35938.08203.32031.13672.28125.1875.23047.23438.17188.28515.10937.33203.03906.3789-.02343.27345-.0547.23437-.08983.20313-.10938.16796-.1289.14454-.14063.12109-.28906.19922.23437.11719.20703.14843.1836.16797.15234.19531.125.21485.08984.23047.0547.24219.01952.2539-.03515.3125-.10157.32422-.17187.32422-.24219.3086-.30469.26952-.375.21485-.21093.07812-.23047.0625-.24219.03906-.26172.01172-.25781-.01171-.24219-.03907-.22265-.0625-.20704-.07812-.35937-.21485-.28906-.26953-.22266-.3086-.15625-.32421-.09375-.32422-.03125-.3125h.83203l.02735.2539.07812.23438.1211.21485.16015.18359.19531.15234.21875.11329.24219.07421.2539.02344.25391-.02344.24219-.07421.21875-.11329.19531-.15234.16016-.1836.1211-.21484.07812-.23437.02734-.2539-.02734-.25-.07813-.23438-.1211-.21485-.16015-.1836-.19531-.15233-.21875-.11329-.24219-.07421-.2539-.02344-.25391.02344-.24219.07421-.21875.11329-.19531.15234-.16016.1836-.12109.21484-.07813.23437-.02734.25h-.83203l.01953-.25.05469-.24219.08984-.22265.125-.20703.15235-.19141.18359-.17188.20703-.15625.23047-.1289-.28516-.19922-.14062-.1211-.1289-.14452-.10938-.16797-.08985-.20313-.05859-.23437-.01953-.27344h.78906l.01953.21484.0664.1914.10548.16407.13672.14063.16406.11328.1914.08203.20704.04687.21875.01954.21875-.01954.20703-.04687.1914-.08203.16407-.11328.13671-.14063.10547-.16406.0625-.1914.02344-.21485-.02344-.21485-.0625-.1914-.10546-.16406-.13672-.14063-.16407-.11328-.1914-.08203-.20703-.04688-.21875-.01953-.21875.01953-.20704.04688-.1914.08203-.16406.11328-.13672.14063-.10547.16406-.0664.1914-.01954.21485h-.78906l.03906-.3789.10938-.33204.17187-.28515.23047-.23438.27734-.1875.32422-.13672.35938-.08203.38672-.03125"/></g></defs><use xlink:href="#U"/></svg>