<svg xmlns="http://www.w3.org/2000/svg" role="img" xmlns:xlink="http://www.w3.org/1999/xlink" viewBox="142.45 309.95 326.84 171.84"><defs><clipPath id="a"><path d="M144 311.67188h1v168.65625h-1zm0 0"/></clipPath><clipPath id="b"><path d="M144 311.67188h324v168.65625H144zm0 0"/></clipPath><clipPath id="c"><path d="M467 311.67188h1v168.65625h-1zm0 0"/></clipPath><clipPath id="d"><path d="M144 479h4v1.32813h-4zm0 0"/></clipPath><clipPath id="e"><path d="M146 480h1v.32813h-1zm0 0"/></clipPath><clipPath id="f"><path d="M153 478h8v2.32813h-8zm0 0"/></clipPath><clipPath id="g"><path d="M167 478h8v2.32813h-8zm0 0"/></clipPath><clipPath id="h"><path d="M180 478h8v2.32813h-8zm0 0"/></clipPath><clipPath id="i"><path d="M193 478h8v2.32813h-8zm0 0"/></clipPath><clipPath id="j"><path d="M207 478h8v2.32813h-8zm0 0"/></clipPath><clipPath id="k"><path d="M220 479h8v1.32813h-8zm0 0"/></clipPath><clipPath id="l"><path d="M226 480h1v.32813h-1zm0 0"/></clipPath><clipPath id="m"><path d="M234 478h7v2.32813h-7zm0 0"/></clipPath><clipPath id="n"><path d="M247 478h7v2.32813h-7zm0 0"/></clipPath><clipPath id="o"><path d="M260 478h8v2.32813h-8zm0 0"/></clipPath><clipPath id="p"><path d="M273 478h8v2.32813h-8zm0 0"/></clipPath><clipPath id="q"><path d="M286 478h8v2.32813h-8zm0 0"/></clipPath><clipPath id="r"><path d="M292 480h2v.32813h-2zm0 0"/></clipPath><clipPath id="s"><path d="M300 478h7v2.32813h-7zm0 0"/></clipPath><clipPath id="t"><path d="M313 478h8v2.32813h-8zm0 0"/></clipPath><clipPath id="u"><path d="M327 478h7v2.32813h-7zm0 0"/></clipPath><clipPath id="v"><path d="M340 478h8v2.32813h-8zm0 0"/></clipPath><clipPath id="w"><path d="M353 478h8v2.32813h-8zm0 0"/></clipPath><clipPath id="x"><path d="M367 478h7v2.32813h-7zm0 0"/></clipPath><clipPath id="y"><path d="M382 476h4v4.32813h-4zm0 0"/></clipPath><clipPath id="z"><path d="M393 479h8v1.32813h-8zm0 0"/></clipPath><clipPath id="A"><path d="M406 479h8v1.32813h-8zm0 0"/></clipPath><clipPath id="B"><path d="M412 479h2v1.32813h-2zm0 0"/></clipPath><clipPath id="C"><path d="M419 479h9v1.32813h-9zm0 0"/></clipPath><clipPath id="D"><path d="M425 479h3v1.32813h-3zm0 0"/></clipPath><clipPath id="E"><path d="M433 478h8v2.32813h-8zm0 0"/></clipPath><clipPath id="F"><path d="M447 478h7v2.32813h-7zm0 0"/></clipPath><clipPath id="G"><path d="M460 478h7v2.32813h-7zm0 0"/></clipPath><clipPath id="H"><path d="M144 465h4v4h-4zm0 0"/></clipPath><clipPath id="I"><path d="M144 451h4v5h-4zm0 0"/></clipPath><clipPath id="J"><path d="M144 438h4v5h-4zm0 0"/></clipPath><clipPath id="K"><path d="M144 424h4v6h-4zm0 0"/></clipPath><clipPath id="L"><path d="M144 411h4v5h-4zm0 0"/></clipPath><clipPath id="M"><path d="M144 399h4v2h-4zm0 0"/></clipPath><clipPath id="N"><path d="M144 384h4v6h-4zm0 0"/></clipPath><clipPath id="O"><path d="M144 370h3v7h-3zm0 0"/></clipPath><clipPath id="P"><path d="M144 357h3v7h-3zm0 0"/></clipPath><clipPath id="Q"><path d="M144 344h3v6h-3zm0 0"/></clipPath><clipPath id="R"><path d="M144 330h3v7h-3zm0 0"/></clipPath><clipPath id="S"><path d="M144 319h4v3h-4zm0 0"/></clipPath><g id="T" clip-path="url(#clip1)"><path fill="#fff" fill-opacity="0" fill-rule="evenodd" d="M0 0h1000v1000H0zm0 0"/><path fill="#d3d3d3" fill-opacity="0" fill-rule="evenodd" d="M162.15234 355.86719l-.23437.29297.0586.23437.11718.17188.17578.23437.29297.34766.11328.0586.11719-.17188.0586-.23438.17577-.17578.46485-.17578h.69922l.23437.29297.28906.8164.0586.17579.17578.23046.35156.23438.69922.69922.17188.17578.23437.34765.23438.41016.28906.58203.41015.46485.23047.23437.23438.17578.11719.23047.17578.29297.17187 1.16406v.23438l.0586.28906.05859.11719.11719.11719.34765.41015.11719.17188.17578.17578.17578.23437.11719.17188.17188.35156.05859.23438.23437.40625.23438-.0586-.17578.17578-.0586.92969h-.58203l-.23437-.11328-.34766.11328-.11719.11719-.05859.29297-.0586.17578-.11718.17187-.46484.29297-.0586.23438-.0586.11328v.64453l.0586.17187v.41016l.0586.0586v.40624l.05859.40625.11719.17579.05859.05859.23047.64062-.0586.29297v.69922l-.05859.58203v.23438l-.0586.23047-.05468.35156v1.92187l.05469.1172h.42578l-.36719.11718-.02344.35156.89063 1.16797 1.74219.53906 1.33984.35938v.53906l.08984.8086.53516.71484 1.51953.26953.89063-.08594.08984 1.16406.53516.1797 1.16015-.1797 2.05469-.98437 1.16016-.36328 1.8789-.17578 1.69531-.1797-.17968.71876-1.51563.08594-1.25.08984-.80469.26953-1.07421.8086.26953.71875.53515.89843-.17968.625-.26563.8086.26563 1.07812.625.89844.80468.17969 1.25-.1797-.26562.72267.09766.5039.05468.29297v.17188l.0586.29296v.40625l.17578.1172.35156.11718h.40625l.29297-.17578.11328-.11719.0586-.11719.11718-.23047.0586-.17578.35156-.46484.23047-.17578.17578-.0586.17578.0586.0586.17578.11718.98828.05469.46875.0586.17188.11718.23437.17578.0586.8164.05859h.28907l.11719.23437.05859.40625.0586.35156v1.10547l.11718.29297.11719.34766.28906.69922.17578.35156.58203.7539.35157.17579.17187.0586.46875.23437.64063.46484.34765.23438.29297.17578.29297.05468.23047.0625.8164.34766.29297.17578.11328.17188.35157.35156.11719.17578.52343.64063v.28906l.0586.35156v.34766l.05859.35156.0586.28906.11718.0586.17188.05859h.17578l.58203.23437.17578.1172.17578.28905.17578.23438.11328.23437.29297.23047.11719.11719v.41016l.0586.05468.28906.23438.23437.11719.0586.11718.11718.17188.0586.11719.23047.23437.05859.17578.23437.0586.1172.05859-.1172.11328-.05859.11719v.11719l-.11719.29296-.11719.28907v.58203l.17579.11719.11718.05859.0586.11719.11719.11719.11328.05859.17578.34765.0586.35157.05858.40625v.17578l-.05859.17578-.11719.69922v.17187l.1172.17579.29296.29296h.40625l.17578.1172.11719.17187.11719.29296v.23438h-.52735l-.23047-.23438h-.23437l-.17578.0586-.0586.69922.0586.34765.11719.17579.17578.41015.11718.23047.28907.46875.17578.05469h.52344l.23437.0586.75781.64062.0586.29296v.23438l.05859.0586.23047.34765v.35156l-.11719.17188v.29297l.29297.28906.29297.17578.17187.0586.29297.17577.29297.1172.58203.40624.28906.23438.29297.17578.21875.16015.01563.01172.23047.17579.64062.52343.17578.23438.1172.17578.17577.17578.11328.17188v.64062l.1172.17578.46874.11719.58203.11719.23438.05859.23047.11328.29297.11719.11328.0586.58593.35156.28907.17187.17578.0625.17578.05469.17578.0586.69922.35155.28906.17579.23438.05468.28906.17578.23437.1172.64063.40624.29297.11719.17187.0586.23438.05859.41015.05859.23047.0586.23438.11718.0586.17188-.41017.17578.46875.0586.0586.29296.11328.23438.17578.05468.23438.0586.17578.05859.40625.11719.64062.23437.11719.17188.0586.23437v.17578l-.0586.1172-.0586.40624.23438.23438.11719.05859.34766.11719.64062.23047.17578.11718.28906.1172.17578.17577.23438.46485.58203 1.10546.17578.17579.34766.17578.17578.11719.35156.11718 1.04688.52344.23437.0586.46485.11327.29297.0586.46484.17578.75781.58203.23438.23438.34765.46484.17578.17578.28907.23438.8164.69921.29297.17579.28906.28906.29297.17578.29297.28906.69531.64063.17578.17578.29297.23437.28907.23438.46875.28906.64062.58203.34766.23438.23437.29297.34766.34765.35156.46485.9336.99218.34765.40625.11719.17579.23437.05859.11328.11719.64454.17578.23047.11328.23437.0586.29297.17577.23047.1172.9336.69921.40624.40625.23438.17578.40625.17578.23437.11719.8164.34766.34766.23437.23438.11719.29297.28906.23047.11719.7578.35156.35157.17188.23047.05859.29297.11719.23437.0586.8711.17577h.8164l.46875.23047.17188.0586.875.69921.46484.1172.29297.05858.17578.0586.23047.0586.46875.05859.34766.05859.35156.0586.40625.05859h.29297l.17187.0586v.23046l.17578.17578h.29297l.34766.0586.35156.05859.69922.11719h.64063l.46484-.23438.29297-.17578.17187-.11719.41016-.17187.28906-.17578.9336-.46485.46875-.29297.52343-.29296.46485-.17188.46484-.17578 1.05078-.46485.28906-.11718.41016-.11719.28906-.11719.52735-.17578 1.51562-.69922.58203-.34765.28907-.0586.29297-.0586.34765-.11718.875-.23047.35156-.11719h.11329l.23437-.05859.875-.23437.23438-.0586h.8125l.35156-.0586.8164-.11718.17188-.0586.35156-.05468.29297-.0586.23047-.05859.8164-.17578.17579-.0586h.34765l.23438-.05859.46484-.11718.75781-.17188.23438-.0586h.34765l.41016-.11718.28906-.0586 1.28516-.05859h.28906l.41016-.0586.23047-.05858h.17578l.875-.1172h.40625l.41015-.11718h.34766l.35156-.11328.8711-.0586h1.75l1.04687.28907.41016.11719.28906.11718.35156.11719.28907.11719 1.05078.17187.28906.0586h.29297l.29297.05859.17187.0586.41016.05859.17187.0586.1172.05858h.11718l.11719.0586.35156.0586h.11328l.41016.0664 1.92187.39453 1.92578.39453 1.51953.44922 1.69532.71875 2.14453.80469 1.60547-.71875 1.42968-.80469 1.16016-1.07813 1.25-.44921 3.03516-.71875 1.875-.35938 2.14453-1.34765 2.23437-1.25391 2.5-1.25781 1.69531-.44922 1.78516-.17969 1.16016-.26953.625.53906 1.33984-.26953.71485-.98828.98437-1.34375.44531-.17969.80469-.35937 1.875-.53907 1.78516-.44921 1.25-.26954 1.16015-.08984 1.69922-.08984 1.96094-.26954 1.25-.08984h.53906l.625-.08984h.89063l2.14453-.17969 2.41015-.17969 2.58985-.08984 1.69531.17969 1.60938.08984 1.42968.35938 1.16016.71875 1.875.98828 1.16015 1.52734.26563.71484.6289.08985.35548.89844.53515.53906.53516 1.52734 1.07422.35938h.53515l-.80469.53515.08985 1.70703.71484 2.69532.89063.80468.89453.98829.71484 1.2578 1.78516.53907 1.51953-.17969.35547 1.34375 1.60937-.80469.98047-.53906.26953.26953.31641-.21484.21875-.14453.80078.44922.44922-.35938h.35547l.53515-.26953.53907-.71875.53515-.26953.625-.98828 1.16016.44922.83984.3711 1.39454.61718 1.6953-.17969h1.60548l1.78515.08985.17969-1.70704.53516-1.34375.80468.26954.4922.84765.40233.40625-.08984.53906v.35938l.71485.44922.71093-.26953h1.42969l.35938.98828.4453 1.25781.71485 1.34375 1.25.6289 1.69531.62891.71485-.17969.17969-.53906.98046-.08984.44922.35937.08594 1.25782-.26563.6289-.53515.17969v.53906l.71484.98438.26563.53906.98437.98828.80078 1.07813-.26562.35937-.08985.89844-.625 2.33203-.35546 2.0664-.08985 1.79298-.17969.71875-.08984.53906v1.4375l-.98047 1.88281-.35937 1.70703-.53516.89844-.80469 1.16797-.26562.53906 2.05469 1.2539.08593.35938-.35546.53906-.08985-.17968v.80859l.08985 1.4375-.44532.71484-1.07422.09375-.26562.71485.53515.89844.8047.71875 1.16015.80859 1.33984.26953.44531.35938-.35546.44921-1.78907-.08984-1.25-.44922-.71484-.71875-.625-.08984-.17578 3.58984-.1875 1.3086h89.35937V311.70313h-55.26953v49.08203l.76172.125 3.28906.54296 2.02344 2.83594v2.7539l2.35156.33204 2.34766.33203h4.05078l-1.3789 4.16016-2.02344.70703-2.02344.70312-.54297.34375-2.59375 1.6172-.1875.11718-2.02344-2.07813-.73046-2.74218-2.67188-2.07813-1.375-3.5-.0664-.08203-1.95704-2.67188 2.75-1.41796v-49.08204H294.42187v91.41407l.1172.03125.1328.01172.07422.07421.10547.04688.08985.0586.08593.05859.08985.0586.29687.29687.0586.08984.03125.11719.02734.11719.01563.13671-.03125.1172-.0586.08983-.0586.08594-.04296.10547-.04688.10156-.02734.1211v.14453l.17578.26953.14844.14844.07422.08594.07422.07421.04296.10547.0625.08985.0586.08593.04297.10547.0586.08985.04687.10156.04296.10547.0586.08594.11719.17968.07421.07422.0625.08594.0586.08984.04297.10547.0586.08985.05858.08593.0625.08985.0586.08984.04297.10156.11719.17969.07421.07422.0586.08594.07422.07421.08984.0586.10547.04687h.14844l.1328-.01562.13282.01562.10156-.04687.07422-.07422.04688-.10156-.01563-.13281v-.14844l-.04687-.10547-.02735-.11719-.04687-.10156-.02735-.1211-.04296-.10156-.0625-.08984-.04297-.10156-.04297-.10547-.03125-.11719-.01563-.13281-.01171-.13672.08593-.0586.0586-.08593.12109-.03125.04297.10547.01562.1328v.1172l.0586.10156.0586.08984.08983.0586.14844.14843.0586.08985.04296.10547-.01171.10156.08593.0586.10547.04687.08594.0586.08984.05858.07422.07422-.11719.02735-.10546.04687-.08594.0586-.07422.07421-.0586.08985-.0625.08594-.02734.12109-.04687.10156-.04297.10547-.03125.11719-.01172.13281-.01563.13281v.14844l.02735.11719.04687.10547.04297.10156.0586.08984.07421.07422.08985.0586.07422.07421.08984.0586.0586.08984.04296.10547.04688.10156.11719.03125.1328.01563h.14845l.11718-.03125.10547.04297.04297.10547.04688.10156.02734.1211L299.5 410l.02734.11719.03125.1211.02735.11718.10547.04297.10156.04687.13281-.01562.14844.14844.0625.08593.07422.07422.07031.07422.08984.0625.10547.04297.10156.04297.1172.03125.13671.01562.11719-.03125.07422-.07422.02734-.11718-.01172-.13282-.03125-.12109-.02734-.11719.04297-.10547h.11719l.08984.0625.11719.02735h.14843l.13282.01562h.14843l.13282.01563.1328-.01563h.14845l.1328-.01562.13282-.01172.13672.01172.11719-.02735.13281-.01562.1914-.0586-.05859.17579-.01562.1328-.02735.1211-.01562.13281-.0586.08594-.1328.01563-.10548.04687-.10546.04297-.1172.03125-.11718.02735-.26563.03125h-.14843l-.13281.01562-.07422.07422.05859.08594.14844.14843.11719.1797.07421.0703.08985.0625.08984.0586.08594.0586.08984.05858.10156.04297.10547.0625.10547.04297.08594.0586.10547.04687.10156.04297.17969.11719.0586.08984-.04298.10156-.04687.10547.01562.13281.22266.22266.0586.08985.04296.10156.03125.1211.04297.10155.01563.13282.03125.11718.01171.13672.03125.11719.14844.14844.10156.04297.10547.04296.1172.03125.1328.01563.13672.01563h.11719l.11719-.03125.08984-.0586.04297-.10547.04688-.10156.04296-.10547.03125-.11719.01172-.1328v-.14845l-.01172-.1328-.01562-.13282-.03125-.11719-.04297-.10547-.04688-.10547-.04296-.10156-.04297-.10547-.01563-.13281.01563-.13281.02734-.11719.03125-.11719.02735-.1211.04687-.10155.08984-.0586.08594-.0625.07422-.07422.08984-.05859.22266-.22266.0586-.08593.07421-.07422.11719-.17969.0586-.08594v-.14844l-.07423-.07421-.10156-.04688-.10547-.04297-.10156-.04297-.0586-.08984-.04687-.10547-.02734-.11719.08984-.05859.11719-.03125.10156-.04297.17969-.11719.14844-.14843.01172-.13282-.01172-.10546-.08985-.0586-.1328.01563h-.14845l-.1328.01562-.13282-.01562-.1211-.03125-.08593-.0586-.07422-.07422-.0586-.08984-.0625-.08594-.11718-.17969-.0586-.08593.03125-.1211.08594-.05859.1211-.03125.05859-.08594v-.1211l-.03125-.11718-.0586-.08984-.05859-.08594-.04687-.10547-.02735-.11719-.01562-.1328.0586-.08985.07421-.07422.08984-.0586.1172-.17968.07421-.07422.0586-.08594.14843-.14844.1211-.03125.1328-.01562.13282.01562.07422.07422.04297.10547.01562.13281-.03125.1172-.11719.03124-.1328.01172-.14844.14844-.04297.10547-.04688.10156-.02734.1211-.03125.11718v.14844l.03125.11719.04297.10546.05859.08985.07422.07031.07422.07422.11719.03125.12109.02734.11719-.02734.1328-.01563h.1172l.08984.0586.07422.07422.04687.10546.0586.08594.10156.04688.13281.01562.10547.04297.08594.0586-.01172.10546-.07422.07422-.17969.11719-.05859.08984-.08984.0586-.07032.07422-.07421.07421-.0625.08985-.02735.11719-.01562.1328.01562.13282-.01562.13281v.14844l.01562.13281.02735.1172.03125.12108.07421.07422.08985.0586.08594.0586.08984.05858.11719.03125v.08594l-.10157.04688-.08984.0586-.26563.03124-.11718.02735h-.14844l-.10547.04296-.10156.04688-.0586.08984-.0625.23438-.01171.13281-.03125.1211-.01563.1328v.29298l-.01172.1328.01172.13673.01563.1328.1328.01563.13282.01172.1211.03125.08593.0586.07422.07421.04688.10547.04296.10157.01563.1328v.44532l-.01563.13281v.44532l.03125.26562.02735.11719.01562.13281.03125.11719.08594.21094.03125.26562v.14844l-.03125.11719-.02734.11718-.03125.1211-.02735.11719-.03125.11718-.03125.1211-.01171.1328-.01563.13282.08984.0586.1172-.03125.10155.01562.04688.10547-.03125.26562v.44141l-.04297.10547-.04688.10547-.04296.10156-.04297.10547-.0586.08594-.03125.12109-.04296.11719-.03125.11719-.01563.1328.01563.13282.05859.08984.10547.04688.08594.0586.05859.08593-.01172.13672-.03125.11719-.04297.10156v.44531l-.01562.13281v.14844l-.03125.11719-.04297.10547-.02735.11719-.04687.10546-.04297.10157-.03125.12109-.02734.11719-.03125.13281-.03125.11719-.02735.11719-.04297.10546-.03125.1172-.03125.12108-.01171.13282-.01563.13281v.29688l.02734.11718v.14844l.04688.39844.02734.11719.0586.08984.12109.03125h.14844l.13281-.01563.0586.08985v.11719l-.0586.08984-.08984.0586-.10157.04296-.10546.04688-.08985.05859-.08594.0586-.13671.01562-.1172-.03125-.1328-.01563-.10157.04688-.0625.08594-.01172.13671-.01562.13282-.03125.11719-.02735.11718-.01562.13281-.03125.1211v.29687l.01563.13282.03125.11718v.14844l.01171.13281v.14844l-.02734.11719-.04688.10156-.02734.1211-.03125.11718-.0586.08985-.07421.07421-.10156.04297-.10547.04688-.11719.02734-.1211.03125-.10156-.04687.0586-.08594.10547-.04688.02734-.11718.03125-.11719.02734-.1211.03125-.11718v-.14844l.01563-.13281-.03125-.11719-.04297-.10547-.10547.01563-.07422.07422-.10156.04296-.08984.0625-.07422.07422-.04297.10157-.01563.1328-.03125.1172L304.25 426l-.03125.11719-.02734.11719-.03125.12109-.02735.11719-.03125.11718-.04297.10547-.08984.0586h-.08984l-.1172-.03125-.03124-.08594.01562-.13672-.03125-.11719v-.14844l-.01171-.1328v-.14844l-.0625-.23438-.02735-.1211-.04297-.10156-.04687-.10546-.0586-.08594-.05859-.08985-.04297-.10546-.0625-.08594-.14844-.14844-.0703-.07422-.10548-.04687-.10547-.04297-.10156-.04297-.29687-.29688-.08985-.07421-.08594-.0586-.10546-.04297-.08985-.0625-.08594-.0586-.10546-.04296-.08985-.0586-.08594-.0625-.07421-.0703-.10547-.04688-.08594-.0586-.10547-.04296-.08984-.0625-.10156-.04297-.10547-.04297-.08594-.0586-.10547-.04687-.10547-.04297-.10156-.04687-.08985-.0586-.10156-.04297-.10547-.04296-.08984-.0625-.11719-.02735-.13281-.01562-.13281.01562H299.75l-.13281.01563-.11719-.03125-.08984-.0586-.07422-.07422-.08985-.05859-.10156-.04688h-.14844l-.12109-.02734-.10156-.04297-.07422-.07422-.11719-.17968-.08984-.0586-.10156-.04297-.08985-.0625-.10547-.04296-.08984-.0586-.08594-.0586-.10547-.04687-.0586-.08594-.05858-.08984-.04297-.10547-.04688-.10156-.07422-.07422-.08594-.0586-.07421-.07421-.08985-.0586-.22265-.22265-.04297-.10547-.03125-.26563.10547-.04296h.14453l.10547.04296.07421.07422.08985.0586.08594.0586.10546.04687.08985.05859.14844.14844.0703.07422.14845.14843.0625.08594.07421.07422.08594.0586.07422.07421.08985.0625.08984.0586.08594.05859.26953.17578.10156.04688.10547.04296.10156.04297.04688-.07421.05859-.08594.07422-.07422.07031-.07422.10547.04297.07422.07422.0586.08984.04296.10156.04688.10547.04296.10547.1211.02735.11719-.02735.07421-.08984.04297-.10547.0586-.08985.07422-.07421.10546-.04297.1172-.02735.1328.01172.08985.0586.14844.14843.05859.08985.04297.10547.04687.10156.04297.10547.04297.10156.10547.04688.10547.04296.13281.01563.08594-.0586.0586-.08984.07421-.07422.10547-.04297.11719.02735.10547.04687.10156.04297.10547.04297.10156.04688.17969.11718v.11719l-.01563.13281.01563.13281.01562.13672.0586.08594.10156.04688.1211.02734.11718.03125h.14844l.11719-.03125.05859-.08984.17969-.1172.05859-.08983.07422-.07422.0586-.08594.11718-.17969.17969-.11719.11719.03125.08984.0586.04297.07422-.01563.1328v.1172l.08985.05859h.14843l.13282-.01563.1328-.01171.26563-.03125.10547-.04297.11719-.03125.1211-.02735.07421-.07421.07031-.07422.0625-.08985-.01562-.10547-.04688-.10156-.10156-.04297-.10547-.01562-.11718.02734-.26563.03125h-.14844l-.07421-.07422-.08985-.0586-.11719-.03124-.11718-.02735-.13282-.01562h-.14843l-.13282.01563h-.29687l-.10547-.04688-.14844-.14844-.04297-.10156-.05859-.08984.22266-.22266.08593-.0586.10547-.04296.11719-.03125.13281-.01563.13281.01563.13672.01562.10157.04297.1328-.01172.08985-.0625.10156-.04297.0625-.08984-.04687-.10156-.08984-.0586-.1172-.03125-.10155-.04296-.0586-.08985-.0625-.08984v-.11719l.01563-.13281.10547-.04688.07421-.07031v-.1211l-.08984-.05859-.03125-.11719.08985-.05859.07421-.07422.04297-.10547.0586-.08984.04687-.10156.01563-.13281v-.14844l-.04688-.10547-.04297-.10156-.08984-.0586-.13281-.01562-.10157-.04297-.13671-.01563-.1172-.03125h-.4453l-.13282-.01562-.13281-.01172-.13281-.01563-.11719-.03125h-.14844l-.13281-.01562-.13281-.01172-.26563-.03125-.1211-.04297-.08593-.0586-.07422-.07421v-.14844l.01172-.13281.10547-.04688.10156-.04296.13281-.01563h.15235l.13281-.01562h.29297l.1211.03125.10156.04296.08984.0586.23438.0625.12109-.04688.08984-.05859.10156-.04297.13282-.01562.10547.04296.10156.04688.13281.01172.1211-.02735h.14453l.12109-.03125.11719-.02734.10547-.04687.07421-.07422.08594-.0586.14844-.14843.0586-.08594.04687-.10547.02734-.11719.01563-.10547-.10156-.04296-.08985-.0586-.11719-.03125-.10546-.04297-.08985-.0625-.07422-.08594-.07422-.07421-.10156-.04297-.10547-.04688-.10156-.04297-.0586-.08984-.04687-.10156-.08594-.21094-.0625-.08594-.05859-.08984-.07422-.07422-.08594-.0586h-.26953l-.11719.03126-.08984.05859-.10156.04297-.13281.01562-.10547-.01562-.02735-.11719-.0625-.08984-.11718-.03125-.10157-.04297-.14843-.14844-.03125-.11719-.01563-.10546.07422-.07422.17969-.1172.11719-.02733.11718-.03125.13672.01562.10156.04297.10547.04297.10156.04687.10547.04297.1172.03125.1328.01563.1172.02734.1328.01563.10547-.01563.08985-.0586-.07422-.07421-.10547-.04297-.07422-.07422-.07422-.08984-.14844-.14844-.08593-.0586-.08985-.05859-.07422-.07422-.08984-.0586-.10156-.04687-.1211-.02734-.10156-.04688-.10547-.04296-.11719-.03125-.10156-.04297-.1211-.03125h-.14843l-.11719.03125-.10546.04297-.08594.0625-.17969.11718-.08594.0586-.08984.0586-.10547.04687-.08594.05859-.10547.04297-.10156.04297-.10547.04687-.07422.07422-.05859.08985-.0586.08593-.04687.10547-.0586.08594-.07421.07422-.13281-.01172-.1172-.03125h-.11718l-.07422.07422-.08984.0586-.07422.07421-.08984.0586-.08594.05859-.10547.04687-.10156.04297-.13672.01563-.10156-.04297-.14844-.14844-.10547-.04688h-.08594l-.10547.04688-.10156.04297-.1211.03125-.11718-.03125-.07422-.07422v-.11719l.03125-.1211.07422-.0703.0586-.08985.07421-.07422.11719-.03125.10547-.04296h.29297l.13281-.01563.13672-.01563.10156-.04296.08985-.0586.10156-.04687.08984-.0586.13281-.01171.08985.05859.13281.01172.08984-.0586.08594-.05859.10547-.04297.08984-.0586.08594-.0625.08985-.05859.14843-.14843.0586-.08594.05859-.08985.10547-.04296.13281-.01563.11719.02735.1211.03125.05859-.0586.05859-.08984.03125-.26563.02734-.11719.10547.01172.13281.01563.10157-.04297.08984-.0586.0586-.08984.07421-.07422.0586-.08984.04687-.10156.01172-.13281-.01172-.13282-.04687-.10547-.14844-.14843-.0586-.08985-.05859-.08594-.04297-.10546v-.44532l.01563-.1328v-.14845l.01172-.1328-.0586-.0586-.08984.0586-.10156-.04298-.17969-.11719-.08594-.05859-.0625-.08984-.0586-.08985-.07421-.07421-.08594-.0586-.1211.03125-.10155.01172-.10547.04688-.08594.05859-.10547.04297-.14844.14844-.08984.05859-.08594.0586-.08984.0625-.10547.04296-.13281.01563v-.1211l.10547-.04297.11718-.03125.07422-.0703.04297-.10548v-.14844l-.02734-.11718-.14844-.14844-.13281-.01563h-.14844l-.11719.03125-.10547.04297-.10156.04297-.08984.0625-.11719.02735-.07422-.07422.01172-.13281-.04297-.10157-.04297-.10547-.08984-.05859-.11719.02734-.1211.03125-.11718.03125-.10156.04297-.1211.03125-.10156.04297-.10547.04297-.08984.0586-.10156.01562v-.11719l.01562-.13281-.0586-.08985-.07421.04297-.14844.14844-.0586.08985-.07421.07421-.04688.10547-.04296.10156-.07422.07422-.0586.08985-.07422.07422-.05859.08593-.07422.07422-.08984.0625-.07422.07031-.07422.07422-.10156.01563-.13281.01562-.10547-.04296v-.1211l.14843-.14844.04297-.10156.0586-.08984.04687-.10156.04297-.10547.0586-.08985.03124-.11719.04297-.10156.03125-.1211.02735-.11718.04687-.10547.04297-.10156.04297-.10547.07422-.07031.08984-.0625.08985-.0586.10156-.04296h.29687l.26563-.03125.10547-.04297-.07422-.07422-.11719-.03125-.10547-.04297-.08984-.0586-.10156-.04687-.08985-.0586-.10156-.04296-.10547-.04297-.08984-.0625-.08594-.0586-.10547-.04296-.10156-.04297-.1211-.03125-.11718-.03125-.10157-.04297L297.5 410.25l-.10156-.04297-.08985-.0586-.04296-.10546-.01563-.13281.10156-.04297.13281-.01563.13672.01563.13282-.01563.10156-.04297.0586-.08984.01562-.10547-.08985-.0586-.07421-.07421-.10157-.04297-.08984-.0586-.14844-.14843-.04297-.10547-.01562-.13281v-.29297l-.0586-.08985-.08984-.05859-.07422-.07422-.04297-.10547-.03125-.11718-.0586-.08985-.07421-.07422-.11719-.02734-.07422-.07422-.08984-.0586-.08984-.0625-.08594-.05859-.07422-.07421-.0586-.08594-.04687-.10547-.08594-.0586-.14843-.14843-.19532-.0586-.1328.01563-.10157.04297-.07422.07422-.04688.10156-.04296.10547-.0586.08984-.0586.08594-.29687.29687-.08984.0586h-.08594l-.0625-.08594-.04297-.10547.03125-.11719.0586-.08984.02734-.11719-.01172-.13281-.08984-.0625-.10547.04688-.11719.02734-.11719.03125-.26953.17578-.10156.04688-.11719.02734-.10546.04687-.08985.0586-.10156.04297-.0586-.08594-.04687-.10547.01563-.13281.04687-.10547.07031-.07422.07422-.07031.0586-.08985v-.14843l-.04297-.10547h-.23829l-.10156.04687-.03125.11719-.02734.11719-.03125.1211-.07422.04296-.13281.01563-.07422-.04688-.04297-.10156-.04297-.10547-.04687-.10156-.04297-.10547-.1211.03125-.10156.04297-.13281.01562-.11719.03125-.10547.04297-.08984.0586-.10156.04687-.1211.02734-.13281.01563-.10156-.04297-.0586-.08985-.04687-.10546-.04297-.10157-.04297-.10546v-.1172l.0586-.08984.08593-.05859.17969-.11719.10156-.04687.10547-.04297.10547-.0586.10156-.04296.08985-.0625.10156-.04297.10547-.0586.10156-.04687.08984-.0586.10547-.04296.10156-.04297.08985-.0625.10156-.04297.13672-.01563.11719.03125.10156.04297.1211.03125.10156.04297.10546.04688.10157.04296.10547.04297.10156.04688.10547.04297.10156.04297.10547.04687.08594.0586.10546.04296.1172.03125.10546.04297.10156.04688.08985.0586.10547.04296.10156.04297.10547.04687.11719.02735.10156.04687.1211.02735h.14843l.08594-.0586.01562-.10156.0586-.08984-.02735-.1172-.07422-.07421-.11719-.17969-.07421-.07422-.08985-.07421-.17969-.1172-.08593-.05859-.10547-.04296-.10156-.04688-.26954-.17578-.05859-.08985-.07422-.07421-.0586-.08985-.04296-.10156-.03125-.11719-.01563-.13672v-.5625l-.01171-.1328-.01563-.13282-.03125-.11719-.01562-.13281-.01172-.13281-.03125-.1211-.22266-.22265-.0586-.08594-.01562-.10547.03125-.11719.13281-.01562v-91.41406H172.9922v1.45312l-.0586.23438-.35156 1.05078-.17187.52343-.1172.34766-.17577.41016-.11719.17187-.23438.29297-.23046.0586h-.35157l-.11718.05859-.23047.40625v.29297l.11719.17578.23046.23047.1172.23437.64062.75781.29297.46485.17578.23437.23047.35156.23437.34766.64063.8164.17578.46485.17187.41016.11719.69531.17578.46875.11719 1.39844.0586.46484v.875l.11718 1.04688v4.78125l-.0586.46484-.35156 1.28125-.17578.52344-.11328.41015-.35156.9297L172.93359 336l-.23437.58203-.11719.17578-.17187.34766-.17578.40625-.35157.8164-.0586.29297-.11327.29297-.11719.28906-.0586.17579-.11718.875-.0586.40625-.05859.11718-.0586.17579-.05859.17187-.23047.52734-.11718.17188v.23437l-.11719.23438-.0586.17187-.17577.58594v.28906l-.0586.17579v.29296l-.0586.11329-.05859.52734v.17187l-.05468.23438v2.6211l-.17578.8164-.1172.17578-.17577.23438-.1172.17187-.11327.23438-.58594.93359-.23047.28906-.29297.46485-.17578.23437-.28906.35156-.35156.69922-.11328.23047-.17579.41016-.17578.23046-.40625.52735-.8164.69922-.29297.17187-.28906.23438-.17579.11719-.17578.17578-.52344.40625-.52734.17578-.17187.17578-.23438.05469-.64062.17578h-.75782m12.21094 31.02344l-1.07422.44921.35938.89454 1.25-.71485.44531-.53906-.98047-.08985"/><path fill="#d3d3d3" fill-opacity="0" fill-rule="evenodd" d="M201.50781 416.59766h-.89453l.44922.6289.98047.35938.80469-.08985.4453-.98828-.17577.08985-.71485-.35547-.89453.35547m154.6211 59.0703l-.0586-.52343v-.29297l.11328-.29297.0586-.23046.46875-.46875h.11328l.11719-.11329.11718-.05859h.17579l.23437-.0586h.34766l.23437.0586.11719.0586.23047.17187.0586.17578.11718.58203v.29297l-.11719.17578-.17187.28906-.17579.17579-.52734.52343-.23047.23438-.11719.0586h-.17578l-.11718-.0586-.40625-.29297-.17579-.11719-.11718-.0586-.0586-.11327-.05468-.1172m6.64062-10.95702l-.0586-.17188v-1.10937l.0586-.17188.17578-.0586.17188-.05858h.17578l.23437-.0586.1172.0586.05858.69921-.05859.17188-.11719.17578-.11718.0586-.23438.52343-.11328.0586h-.23438l-.05859-.1172m9.61328-14.39062l-.11719-.17578v-.69922l.29297-.875.1172-.17187.17577-.35156.11328-.23047.1172-.29297.35155-.75781.1172-.23047.17187-.23438h.17578l.11719-.0586h.64062l.11719.0586.23437.23438.17188.11328.35156.29297.11719.11718.11328.17579v.11328l.11719.05859.11718.11719v.69922l-.05859.17578v.23047l-.0586.17578-.34765 1.05078-.11719.23047-.11719.23437-.11718.0586-.23047.23437-.64063.28906h-.875l-.41015-.11718-.64063-.46485"/><path fill="none" stroke="#bebebe" stroke-linecap="round" stroke-linejoin="round" stroke-miterlimit="10" stroke-width=".5" d="M467.95703 311.69531H144.02734v168.625h323.9297v-168.625"/><g clip-path="url(#a)"><path fill="#fff" fill-opacity="0" fill-rule="evenodd" d="M144 475.89063v4.4375h.0039H144V311.67188h.0039H144v164.21875"/></g><g clip-path="url(#b)"><path fill="#fff" fill-opacity="0" fill-rule="evenodd" d="M144.0039 480.32813V311.67188h22.1875v136.3828l-.76562 1.20704.76563 2.0039 4.25-2.0039-4.25-1.20703V311.67188h13.3164v139.60546l-4.4414.73829-2.26172 1.68359-.6875 4.4375-1.48828 2.49219-2.16016 1.9453 2.16016 1.75782 4.4375 1.8711L179.5078 466l4.4375-.9375 4.03125-2.48828-.02344-4.4375-2.6328-4.4375-1.375-.96094-4.4375-1.46094V311.67188h115.39452v103.29296l-4.4375 1.71094-1.64453 1.51563-2.79297 4.02343-.18359.41407.1836.18359 4.4375 2.60938 3.98827 1.64843.44922.44922 1.14063-.44922 3.30078-.3125 4.4375-2.4961 4.4375.82423 2.45703-2.45703-2.45703-2.47266-1.22266-1.96484-3.21484-3.19922-4.4375.8125-4.4414-.83985V311.67188h31.0703V419.875l-2.69921 2.7539 2.69922 2.83985v25.73828l-3.39454 2.49219-1.04296 1.91015-4.4375 1.50391-2.34375 1.02344 2.34375 3.02344.32421 1.41406 4.11329 2.8164 4.4375-1.57421 1.9414-1.2422 2.23828-4.4375.25782-.11327 1.35156-4.32422-1.35156-1.24219-4.4375-1.25v-25.73828l4.30078-2.83984-4.30078-2.75391V311.67187h8.875v101.81641l-.19922.26563.19922.21875.26171-.21875-.26171-.26563v-101.8164h53.26171v121.24609l-2.57421 3.02734 2.57421 2.48438 2.4922-2.48438-2.4922-3.02734v-121.2461h79.88672v168.65625H144.00391"/></g><path fill="#50fcfc" fill-rule="evenodd" d="M166.1914 451.26563l-.76562-2.00391.76563-1.20703 4.25 1.20703-4.25 2.0039m4.4375 13.06641l-2.16016-1.75781 2.16016-1.94531 1.48828-2.4922.6875-4.4375 2.26172-1.68358 4.4414-.73829v3.5l-3.2461 3.35938-1.1953 2.26172-1.6836 2.17578 1.6836 1.20703 4.4414-.07031 2.67188-1.13672 1.76562-2.78906.64844-1.64844-.64844-.83203-4.4375-2.52735v-3.5l4.4375 1.46094 1.375.96094 2.63281 4.4375.02344 4.4375-4.03125 2.48828-4.4375.9375-4.4414.20313-4.4375-1.8711"/><path fill="#00e8fc" fill-rule="evenodd" d="M175.0664 463.78125l-1.68359-1.20703 1.6836-2.17578 1.1953-2.26172 3.2461-3.35938 4.4375 2.52735.64844.83203-.64844 1.64844-1.76562 2.78906-2.67188 1.13672-4.4414.07031"/><path fill="#50fcfc" fill-rule="evenodd" d="M286.02734 422.8125l-.18359-.1836.1836-.41406 2.79296-4.02343 1.64453-1.51563 4.4375-1.71094 4.44141.83985 4.4375-.8125v1.85547l-3.38672 1.34375-1.05078.46875-4.30469-.46875-.13672-.02344-.03515.02344-4.40235 3.84375-.52343.59375.52343.32421 4.4375 2.54688 4.44141-.16406 3.35547-2.70703 1.08203-2.03516 1.34766-2.40234-1.34766-1.34375v-1.85547l3.21484 3.19922 1.22266 1.96484 2.45703 2.47266-2.45703 2.45703-4.4375-.82422-4.4375 2.4961-3.30078.3125-1.14063.44921-.44921-.44922-3.98829-1.64844-4.4375-2.60937"/><path fill="#00e8fc" fill-rule="evenodd" d="M290.46484 422.95313l-.52343-.32422.52343-.59375 4.40235-3.84375.03515-.02344.13672.02344 4.30469.46875v3.47656l-4.4414.42187-.07423.07032.07422.04687 4.44141.29297.41797-.33984-.41797-.4922v-3.47655l1.05078-.46875 3.38672-1.34375 1.34766 1.34375-1.34766 2.40234-1.08203 2.03516-3.35547 2.70703-4.4414.16406-4.4375-2.54688"/><path fill="#00d4fc" fill-rule="evenodd" d="M294.90234 422.67578l-.07421-.04687.07421-.07032 4.44141-.42187.41797.49219-.41797.33984-4.4414-.29297"/><path fill="#50fcfc" fill-rule="evenodd" d="M317.09766 461.16016l-2.34375-3.02344 2.34375-1.02344 4.4375-1.5039v6.91406l-.03516.05078.03516.02344.04687-.02344-.04687-.05078v-6.91406l1.04296-1.91016 3.39454-2.49219 4.4375 1.25 1.35156 1.24219-1.35156 4.32422-.25782.11328-2.23828 4.4375-1.9414 1.24219-4.4375 1.57421-4.11329-2.8164-.32421-1.41406"/><path fill="#00e8fc" fill-rule="evenodd" d="M321.53516 462.59766l-.03516-.02344.03516-.05078.04687.05078-.04687.02344"/><path fill="#50fcfc" fill-rule="evenodd" d="M325.97266 425.46875l-2.69922-2.83984 2.69922-2.75391v2.66016l-.09375.09375.09375.09765.14843-.09765-.14843-.09375V419.875l4.30078 2.7539-4.30078 2.83985"/><path fill="#00e8fc" fill-rule="evenodd" d="M325.97266 422.72656l-.09375-.09765.09375-.09375.14843.09375-.14843.09765"/><path fill="#50fcfc" fill-rule="evenodd" d="M334.84766 413.97266l-.19922-.21875.19922-.26563.26171.26563-.26171.21875m53.26171 24.45703l-2.57421-2.48438 2.57421-3.02734 2.4922 3.02734-2.4922 2.48438"/><g clip-path="url(#c)"><path fill="#fff" fill-opacity="0" fill-rule="evenodd" d="M467.9961 480.32813H468V311.67188h-.0039H468v168.65625h-.0039"/></g><g clip-path="url(#d)"><path fill="none" stroke="#000" stroke-linecap="round" stroke-linejoin="round" stroke-miterlimit="10" stroke-width=".5" d="M147.41797 481.13672l-6.83594-1.61719"/></g><g clip-path="url(#e)"><path fill="none" stroke="#000" stroke-linecap="round" stroke-linejoin="round" stroke-miterlimit="10" stroke-width=".5" d="M146.42578 480.90234l.3086 1.1875"/></g><g clip-path="url(#f)"><path fill="none" stroke="#000" stroke-linecap="round" stroke-linejoin="round" stroke-miterlimit="10" stroke-width=".5" d="M160.4961 481.82031l-6.36329-2.98047"/></g><g clip-path="url(#g)"><path fill="none" stroke="#000" stroke-linecap="round" stroke-linejoin="round" stroke-miterlimit="10" stroke-width=".5" d="M173.89063 481.63672l-6.52344-2.61328"/></g><g clip-path="url(#h)"><path fill="none" stroke="#000" stroke-linecap="round" stroke-linejoin="round" stroke-miterlimit="10" stroke-width=".5" d="M187.20703 481.6289l-6.52734-2.60156"/></g><g clip-path="url(#i)"><path fill="none" stroke="#000" stroke-linecap="round" stroke-linejoin="round" stroke-miterlimit="10" stroke-width=".5" d="M200.44531 481.8086l-6.3711-2.96094"/></g><g clip-path="url(#j)"><path fill="none" stroke="#000" stroke-linecap="round" stroke-linejoin="round" stroke-miterlimit="10" stroke-width=".5" d="M213.83984 481.6289l-6.53125-2.59765"/></g><g clip-path="url(#k)"><path fill="none" stroke="#000" stroke-linecap="round" stroke-linejoin="round" stroke-miterlimit="10" stroke-width=".5" d="M227.25 481.35547l-6.71875-2.05469"/></g><g clip-path="url(#l)"><path fill="none" stroke="#000" stroke-linecap="round" stroke-linejoin="round" stroke-miterlimit="10" stroke-width=".5" d="M226.27344 481.0586l.23437 1.20312"/></g><g clip-path="url(#m)"><path fill="none" stroke="#000" stroke-linecap="round" stroke-linejoin="round" stroke-miterlimit="10" stroke-width=".5" d="M240.15625 482.23438l-5.90234-3.8125"/></g><g clip-path="url(#n)"><path fill="none" stroke="#000" stroke-linecap="round" stroke-linejoin="round" stroke-miterlimit="10" stroke-width=".5" d="M253.70703 481.80469l-6.375-2.95313"/></g><g clip-path="url(#o)"><path fill="none" stroke="#000" stroke-linecap="round" stroke-linejoin="round" stroke-miterlimit="10" stroke-width=".5" d="M266.875 482.08984l-6.08203-3.51953"/></g><g clip-path="url(#p)"><path fill="none" stroke="#000" stroke-linecap="round" stroke-linejoin="round" stroke-miterlimit="10" stroke-width=".5" d="M280.16016 482.14453l-6.01563-3.63281"/></g><g clip-path="url(#q)"><path fill="none" stroke="#000" stroke-linecap="round" stroke-linejoin="round" stroke-miterlimit="10" stroke-width=".5" d="M293.75 481.57813l-6.5664-2.5"/></g><g clip-path="url(#r)"><path fill="none" stroke="#000" stroke-linecap="round" stroke-linejoin="round" stroke-miterlimit="10" stroke-width=".5" d="M292.79297 481.21484l.15625 1.21875"/></g><g clip-path="url(#s)"><path fill="none" stroke="#000" stroke-linecap="round" stroke-linejoin="round" stroke-miterlimit="10" stroke-width=".5" d="M306.71875 482.25781l-5.875-3.85547"/></g><g clip-path="url(#t)"><path fill="none" stroke="#000" stroke-linecap="round" stroke-linejoin="round" stroke-miterlimit="10" stroke-width=".5" d="M320.3125 481.7461l-6.4336-2.83594"/></g><g clip-path="url(#u)"><path fill="none" stroke="#000" stroke-linecap="round" stroke-linejoin="round" stroke-miterlimit="10" stroke-width=".5" d="M333.57031 481.86328l-6.32031-3.07031"/></g><g clip-path="url(#v)"><path fill="none" stroke="#000" stroke-linecap="round" stroke-linejoin="round" stroke-miterlimit="10" stroke-width=".5" d="M346.90234 481.83203l-6.35156-3.0039"/></g><g clip-path="url(#w)"><path fill="none" stroke="#000" stroke-linecap="round" stroke-linejoin="round" stroke-miterlimit="10" stroke-width=".5" d="M360.03906 482.16406l-5.9961-3.66797"/></g><g clip-path="url(#x)"><path fill="none" stroke="#000" stroke-linecap="round" stroke-linejoin="round" stroke-miterlimit="10" stroke-width=".5" d="M373.35938 482.15625l-6.00391-3.65234"/></g><g clip-path="url(#y)"><path fill="none" stroke="#000" stroke-linecap="round" stroke-linejoin="round" stroke-miterlimit="10" stroke-width=".5" d="M384.94922 483.60156l-2.55469-6.54687"/></g><g clip-path="url(#z)"><path fill="none" stroke="#000" stroke-linecap="round" stroke-linejoin="round" stroke-miterlimit="10" stroke-width=".5" d="M393.49219 479.9414l6.98828.77344"/></g><g clip-path="url(#A)"><path fill="none" stroke="#000" stroke-linecap="round" stroke-linejoin="round" stroke-miterlimit="10" stroke-width=".5" d="M413.71094 479.47656l-6.8164 1.70313"/></g><g clip-path="url(#B)"><path fill="none" stroke="#000" stroke-linecap="round" stroke-linejoin="round" stroke-miterlimit="10" stroke-width=".5" d="M412.71875 479.72266l.82031.91406"/></g><g clip-path="url(#C)"><path fill="none" stroke="#000" stroke-linecap="round" stroke-linejoin="round" stroke-miterlimit="10" stroke-width=".5" d="M427.0586 479.63281l-6.88673 1.39063"/></g><g clip-path="url(#D)"><path fill="none" stroke="#000" stroke-linecap="round" stroke-linejoin="round" stroke-miterlimit="10" stroke-width=".5" d="M426.0586 479.83594l.77734.94531"/></g><g clip-path="url(#E)"><path fill="none" stroke="#000" stroke-linecap="round" stroke-linejoin="round" stroke-miterlimit="10" stroke-width=".5" d="M440.07031 481.90625l-6.27734-3.15625"/></g><g clip-path="url(#F)"><path fill="none" stroke="#000" stroke-linecap="round" stroke-linejoin="round" stroke-miterlimit="10" stroke-width=".5" d="M453.22656 482.1914l-5.95703-3.72656"/></g><g clip-path="url(#G)"><path fill="none" stroke="#000" stroke-linecap="round" stroke-linejoin="round" stroke-miterlimit="10" stroke-width=".5" d="M466.67969 481.94531l-6.23828-3.23437"/></g><g clip-path="url(#H)"><path fill="none" stroke="#000" stroke-linecap="round" stroke-linejoin="round" stroke-miterlimit="10" stroke-width=".5" d="M147.39453 467.91797l-6.78906-1.8086"/></g><path fill="none" stroke="#000" stroke-linecap="round" stroke-linejoin="round" stroke-miterlimit="10" stroke-width=".5" d="M146.40625 467.65625l.27734 1.19531m13.91797-.60156l-6.57422-2.47266m5.6211 2.11328l.15625 1.21875m14.01562-.62109l-6.3789-2.94922m5.44922 2.51953l.0703 1.22266m14.41407-1.50781l-6.85938-1.51953m5.86329 1.29687l.32812 1.1836m14.04297-1.3047l-6.97656-.83202m5.96094.71093l.4414 1.14454m13.86719-.87891l-6.9375-1.1211m5.92969.95704l.39453 1.16406m13.83594-.58594l-6.75-1.94922m5.76953 1.66407l.25 1.20312m13.90625-.51953l-6.46875-2.7461m6.46875 2.7461l.21484 2.4414m12.9336-2.10156l-6.13673-3.42578m5.2422 2.92578l-.02345 1.22657m14.23829-.73829l-6.14844-3.40234m5.2539 2.90625l-.01953 1.22656m14.02344-.40234l-5.73437-4.0586m4.89843 3.46876l-.15625 1.21875m14.66797-1.27735l-6.46094-2.76172m5.52344 2.35938l.10156 1.22265m14.4297-2.01562l-7.01563-.3711m5.9961.31641l.51562 1.11328m13.8164-1.45312l-7.01172.41797m5.9922-.35547l.64062 1.04687m13.70312-.85937l-7.02734-.08203m6.0039.0703l.5625 1.08985m13.5625.08203l-6.60156-2.40234m5.64063 2.05469l.17187 1.21484m14.28906-1.625l-6.97265-.88672m5.95703.75782l.4336 1.14843m13.88671-1.96875l-6.95312 1.01172m5.9414-.86328l.72656.98828m13.63672-.5664l-7.02343-.12891m6 .10937l.55859 1.09375m10.89844 2.31641l-1.26172-6.91016m1.07812 5.90625l-.96093.76172m16.96093-1.625l-6.26562-3.17578m5.35547 2.71485l.02343 1.22656m14.375-3.54297l-6.61328 2.3789m5.65235-2.03124l.91015.82421m13.5547.3711l-6.98829-.70703m5.97266.60156l.46484 1.13672m13.125.79687l-5.50781-4.36328m4.70703 3.73047l-.22266 1.20313m14.375-.6172l-5.57812-4.26952m4.76562 3.64843l-.19922 1.21094"/><g clip-path="url(#I)"><path fill="none" stroke="#000" stroke-linecap="round" stroke-linejoin="round" stroke-miterlimit="10" stroke-width=".5" d="M147.1836 455.1875l-6.3672-2.97656"/></g><path fill="none" stroke="#000" stroke-linecap="round" stroke-linejoin="round" stroke-miterlimit="10" stroke-width=".5" d="M146.25781 454.7539l.0625 1.22266m14.01953-.49218l-6.05078-3.57032m5.17188 3.05078l-.05469 1.22657m14.55469-1.3711l-6.66016-2.24218m5.6914 1.91406l.19923 1.21094m14.22656-1.46485l-6.94531-1.07812m6.9453 1.07812l.8047 2.3164m12.54687-2.68359l-7.01953-.34375m6 .29297l.51953 1.10938M213.9961 454.5l-6.83984-1.60156m6.83984 1.60156l.62891 2.3711m12.77734-3.07032l-7.02343-.20703m7.02343.20703l1.08594 2.20313m12.23047-2.19141l-7.02344-.22656m7.02344.22656l1.08203 2.20313m12.22266-2.57422l-7.00781.51562m7.0078-.51562l1.3086 2.07812m12.00781-1.5586l-7.0078-.52734m5.98827.45313l.49219 1.1211m13.33594.52343l-5.9961-3.66797m5.125 3.13672l-.07422 1.22266m14.41016-.96094l-6.29297-3.125m5.3789 2.66797l.03126 1.22656m14.5039-1.6836l-6.90625-1.30077m5.90235 1.11328l.36328 1.17187m13.92578-.84765l-6.84765-1.57032m5.85156 1.34375l.32031 1.1836m13.5586-3.58203l-5.98438 3.67968m5.11328-3.14453l1.0586.6211m13.38671-.64844l-6.5039 2.66406m5.55859-2.27734l.94531.78515m13.13281-1.55468l-6.13671 3.42968m5.24218-2.92968l1.03125.66406m13.03516-1.39453l-5.85156 3.89062m5-3.32422l1.08203.58203m13.1289-1.07812l-5.9414 3.75m16.60937-5.375l-.64453 7m13.63672.01172v-7.02735m0 7.02735l-2.16406 1.15234m18.44922-2.78515l-5.9375-3.75782m5.07422 3.21094l-.09375 1.22266m14.21093-.58594l-5.8203-3.9375m5.8203 3.9375l-.2578 2.4375m12.63671-1.5l-3.9414-5.8164m3.36718 4.97265l-.57422 1.08203m13.5586.20313l-2.13282-6.69532m1.82032 5.72266l-.85547.875"/><g clip-path="url(#J)"><path fill="none" stroke="#000" stroke-linecap="round" stroke-linejoin="round" stroke-miterlimit="10" stroke-width=".5" d="M147.1875 441.85938l-6.375-2.94922"/></g><path fill="none" stroke="#000" stroke-linecap="round" stroke-linejoin="round" stroke-miterlimit="10" stroke-width=".5" d="M146.26172 441.42969l.0664 1.22265m13.76172-.11328l-5.55078-4.3125m4.74219 3.6875l-.21094 1.20703m14.3164-.55859l-5.51171-4.35938m4.70703 3.72657l-.21875 1.20703m14.46094-.74219l-5.75781-4.02344m4.92187 3.44141l-.14844 1.21484m14.58594-1.12109l-6.33203-3.04688m6.33203 3.04688l.09766 2.45313m13.5586-3.75782l-7.01173-.4336m7.01172.4336l1.01563 2.23438m12.28125-2.03907l-6.97657-.82812m6.97657.82812l.89062 2.28907m12.42578-3.10547l-6.98047.8086m6.98047-.8086L242.08984 442m11.79297-2.63672l-6.72265 2.04297m6.72265-2.04297l1.73047 1.73828m11.47266-2.04687l-6.5039 2.66015m6.5039-2.66015l1.88672 1.5664M280.5 439.32422l-6.69922 2.11719m5.72656-1.8086l.875.85938m13.53907-.6289l-6.94922 1.03905m6.94922-1.03906l1.45703 1.97266m11.8164-2.20313l-6.86718 1.5039m5.86718-1.28515l.79297.9336m13.41407-1.53516l-6.65235 2.26563m5.6836-1.9336l.89453.83985m12.2539-2.78516l-4.3789 5.4961m3.74218-4.69923l1.20313.22657m11.7539-1.58204l-2.39062 6.60938m2.04297-5.64453l1.21484-.17578m13.50782-.17578l-4.51172 5.3828m3.85547-4.60155l1.19921.2578m12.96875-.86327l-4.90625 5.03125m4.19141-4.29688l1.17969.34375m8.48828-1.51172l3.8164 5.89844m-3.26171-5.03906l.59765-1.07422m10.5586 3.15234l7.02734.02344m-6.0039-.01953l-.57422-1.08594m16.3164 4.60938l.125-7.02735m-.10547 6.00391l-1.09375.55469m13.26172.26172l2.3789-6.61328m-2.03124 5.64843l-1.21485.17578m16.22266.89063l-1.69922-6.82031m1.69922 6.8203l-1.82422 1.64063m17.80078-5.14453l-7.02343.1875m6.0039-.16015l.60156 1.0703m10.58594 2.4922l-.72656-6.98829m.6211 5.97266l-1.01954.6836"/><g clip-path="url(#K)"><path fill="none" stroke="#000" stroke-linecap="round" stroke-linejoin="round" stroke-miterlimit="10" stroke-width=".5" d="M146.75781 429.2461l-5.51562-4.35548"/></g><path fill="none" stroke="#000" stroke-linecap="round" stroke-linejoin="round" stroke-miterlimit="10" stroke-width=".5" d="M145.95703 428.61328l-.22266 1.20703m14.3672-.61328l-5.57423-4.27734m4.76563 3.65625l-.20313 1.20703m14.02344-.23828l-4.96484-4.97266m4.24219 4.25l-.35938 1.17188m14.05469-.14844l-4.28125-5.57422m3.65625 4.76172l-.50781 1.11719m15.70703-2.20704l-6.80078-1.76953m6.80078 1.76953l.5703 2.38672m12.85548-3.3828l-7.02344.22265m6.0039-.1914l.60938 1.0664m13.3125.67187l-6.19531-3.3164m5.29297 2.83203l-.0039 1.23047m13.5664.12109l-4.88281-5.05078m4.17187 4.3164l-.3789 1.16797m15.3828-3.76562l-6.83984 1.61328m5.84375-1.3789l.8086.92187m12.59765-2.80469l-5.03125 4.91016m4.29688-4.19532l1.17187.375m12.58985-1.35156l-4.45703 5.4336m3.80859-4.64454l1.20312.2422m13.8711.58593l-6.67578 2.19922m18.02343-4.33203l-2.74218 6.46875m2.34375-5.53125l1.22265-.10547m14.59766 2.90625l-6.95703-1.01172m5.94531.86328l.41406 1.15625m11.23047-4.9375l-1.59375 6.84766m1.36328-5.85157l1.1836-.3125m14.08984.29688l-5.04688 4.88672m4.3125-4.17578l1.16797.3789m9.73047-2.10156l1.2539 6.91016m-1.07421-5.90625l.96484-.76172m9.3125 2.76953l6.97266.88672m6.83984-2.29297l5.97266 3.69922m-5.10156-3.16016l.07812-1.22656m16.375 2.53906l-.01953-.20312-.0586-.1914-.09374-.17579-.45703-.375-.19141-.0586-.20313-.01953-.19921.01954-.19141.05859-.45703.375-.09375.17578-.0586.1914-.01953.20313.01953.19922.0586.1914.09375.17579.45703.375.1914.0586.19922.01952.20313-.01953.1914-.0586.45704-.375.09375-.17577.0586-.1914.01952-.19923m12.10547 3.50781l.375-7.01953m-.32031 5.9961l-1.11328.51953m14.20703.48828l.71094-6.98828m-.60938 5.97265l-1.13672.46485m16.44531.10937l-3.48046-6.10547m3.48046 6.10547l-1.3164 2.07422m15.83984-7.03906l-5.89453 3.82422m5.03516-3.26953l1.07422.59765m12.85156 3.00782l-5.40235-4.4961m4.6172 3.83985l-.25 1.20312"/><g clip-path="url(#L)"><path fill="none" stroke="#000" stroke-linecap="round" stroke-linejoin="round" stroke-miterlimit="10" stroke-width=".5" d="M146.89063 415.75l-5.78125-3.99219"/></g><path fill="none" stroke="#000" stroke-linecap="round" stroke-linejoin="round" stroke-miterlimit="10" stroke-width=".5" d="M146.05078 415.16797l-.14062 1.21875m13.69922.02734l-4.58594-5.32422m3.91797 4.55078l-.44532 1.14454m14.33985-.29688l-4.41016-5.46875m3.76953 4.67188l-.48047 1.1289m14.73438-.60156l-5.00781-4.92969m4.27734 4.21485l-.34766 1.17578m11.875.58594l.02735-7.02735m-.02344 6.00781l-1.08594.57032m14.19922.4453l.42578-7.01562m-.36328 5.9922l-1.11719.51171m11.14063-2.28125l6.88281-1.4336m-5.8789 1.22657l-.78516-.9414m14.73047 3.4453l3.61328-6.02343m-3.61328 6.02344l-2.44922-.125m17.67578.625l-.21094-7.02344m.17969 6l-1.0625.60937m15.45313-6.41797l-2.29688 6.64063m17.77734-4.48438l-6.6289 2.32813m20.08984-1.76953l-6.92187 1.20703m5.91406-1.03125l.7539.96875m11.1211-3.90234l-2.02344 6.72656m17.8164-3.76172l-6.98046.79687m5.96484-.68359l.69531 1.01172m10.3047-4.23828l-.32032 7.01953m.27344-5.9961l1.10937-.52734m12.66016-.45312l-1.13281 6.9375m.96875-5.9297l1.16015-.39062m12.76953-.51171l-2.03515 6.72656m1.73828-5.75l1.20312-.23828m8.47266 4.58203l5.83594-3.91406m7.83984-.44922l5.11719 4.8125m-4.375-4.11328l.32422-1.1836m13.05078-.15234l3.51172 6.08594m-3.51172-6.08594l1.30469-2.08203m11.47656 2.46093l4.58203 5.32813m-4.58203-5.32813l.89062-2.28515m17.375 7.2461l-5.3203-4.59376m4.54296 3.92578l-.26953 1.19532m15.20703-2.57032l-7.01172-.50781m5.99219.4336l.4961 1.12109m13.71484-2.25l-6.76563 1.89844m5.78125-1.6211l.84766.88672m9.60547-3.69922l.92968 6.96485"/><g clip-path="url(#M)"><path fill="none" stroke="#000" stroke-linecap="round" stroke-linejoin="round" stroke-miterlimit="10" stroke-width=".5" d="M147.5039 400.67188l-7.0078-.46875"/></g><path fill="none" stroke="#000" stroke-linecap="round" stroke-linejoin="round" stroke-miterlimit="10" stroke-width=".5" d="M146.48438 400.60547l.5039 1.11719m13.72266-.37891l-6.78906-1.8125m5.80078 1.55078l.27734 1.1914m13.80078-.3203l-6.33984-3.03125m5.41797 2.58984l.05078 1.22656m14.48828-2.82422l-6.94531 1.04688m5.9375-.89453l.73047.98437m7.82812-3.27734l4.58203 5.32812m-3.91406-4.55078l.44531-1.14453m11.16797 1.89453l6.64844 2.27344m-6.64844-2.27344l-.38672-2.42187m13.94922 1.86718l6.15625 3.38282m-6.15625-3.38282l.03125-2.45312m15.84766 7.6211l1.02734-6.95313m-1.02734 6.95312l-2.3125.82422m16.91406-.8711l-1.54297-6.85546m1.54297 6.85547l-1.85938 1.59765m17.73047-3.89453l-6.65625-2.26172m5.6875 1.9297l.19531 1.21093m14.23829-2.4961l-6.95703.96875m5.9453-.82812l.71876.9961m11.2539 2.67577l-2.24609-6.65625m1.91797 5.6875l-.83985.89454m14.9375-6.39063l-3.15625 6.27735m2.69532-5.3672l1.22656-.02734m10.8711 5.76563l.19921-7.02344m-.16797 6.0039l-1.10156.54298m17.6914-4.46875l-6.41406 2.87109m5.48047-2.45313l.96875.75m10.97266-3.1289l-1.79688 6.79297m1.53516-5.80469l1.19531-.28125m10.15625-.5664l2.65235 6.5078m-2.26563-5.55859l.78516-.94531m16.625 4.79688l-6.3125-3.08985m5.39453 2.64063l.04297 1.22265m12.60547-5.46094l-3.14063 6.28516m3.14063-6.28515l2.45312-.0625m10-.23829l-1.41797 6.88282m1.41797-6.88282l2.35547-.6914M397.48828 398l1.17969-.34766m12.22656-.67578l-1.1875 6.92578m1.01563-5.91796l1.16406-.38672m12.50781-.58594l-1.55469 6.85156m1.32813-5.85547l1.1836-.32031m14.85546 4.02344l-6.55078-2.54688m5.59766 2.17578l.14453 1.21875m14.14062-.89843l-6.58594-2.44532m5.62891 2.08985l.16406 1.21875m13.07422-4.77735l-4.51562 5.38282m3.85937-4.59766l1.19922.2539"/><g clip-path="url(#N)"><path fill="none" stroke="#000" stroke-linecap="round" stroke-linejoin="round" stroke-miterlimit="10" stroke-width=".5" d="M146.85938 385.08203l-5.71875 4.08203"/></g><path fill="none" stroke="#000" stroke-linecap="round" stroke-linejoin="round" stroke-miterlimit="10" stroke-width=".5" d="M146.02734 385.67578l1.09766.54688m12.32813 3.6875l-4.27735-5.57422m17.28516 5.78515l-3.66016-5.99609m18.55078 3.86328l-6.8125-1.73047m5.82031 1.48047l.29297 1.1914m12.08203-4.99609l-2.94921 6.37891m2.51953-5.44922l1.22656-.07031m12.35547-.92969l-2.6211 6.51953m2.6211-6.51953l2.4375-.26172m7.00781 5.92969l5.11719-4.8164m-4.3711 4.11718l-1.16406-.39453m18.60156-3.96094l-4.62109 5.29297m4.6211-5.29297l2.39062.55469m10.98047 4.6875l-4.73438-5.1914m4.04688 4.4375l-.41016 1.15624m15.04297-1.16015l-5.99219-3.67188m5.9922 3.67188l-.15235 2.44922m13.66406-2.82032l-6.38672-2.93359m5.45703 2.50781l.07032 1.22266m14.26171-1.0039l-6.5625-2.51563m5.60938 2.14844l.14844 1.21875m14.21875-3.06641l-6.76172 1.91015m5.78125-1.6328l.84765.88671m13.57032-.51172l-7.00391.60547m7.0039-.60547l1.33204 2.0586m11.22656-3.94922l-5.48828 4.38672m5.48828-4.38672l2.25.97265m11.48828-.30078l-6.33594 3.04297m6.33594-3.04297l1.97656 1.45703M360 385.23047l-5.91797 3.78515m5.0586-3.23437l1.0664.60156m13.22656-.95703l-6.15234 3.39453m6.15234-3.39453l2.0547 1.33985m9.30077-2.97266l-2.23828 6.66015m2.23828-6.66015l2.42188-.40235m10.5664.3086l-1.58203 6.84765m1.58203-6.84765l2.3711-.63281m-2.60156 1.6289l1.1875-.3164m12.8789-.51563l-2.625 6.51953m2.625-6.51953l2.4414-.25781m11.15626.38672l-3.1875 6.26172m3.1875-6.26172l2.45312-.04297m9.52344-.32813l-.51172 7.00782m.4375-5.98829l1.1211-.49609m12.96875 6.35938l-1.91016-6.76172m1.6289 5.77734l-.8828.85156M466.53124 389l-5.9375-3.7539m5.07422 3.20702l-.09375 1.22657"/><g clip-path="url(#O)"><path fill="none" stroke="#000" stroke-linecap="round" stroke-linejoin="round" stroke-miterlimit="10" stroke-width=".5" d="M146.3164 371.16797l-4.6328 5.28125"/></g><path fill="none" stroke="#000" stroke-linecap="round" stroke-linejoin="round" stroke-miterlimit="10" stroke-width=".5" d="M146.3164 371.16797l2.39063.5625m9.8125-1.22266l-2.41016 6.60156m12.7422-.26953l3.55468-6.0625m-3.03516 5.1797l-1.22656-.05079m17.72656.83984l-3.85156-5.875m3.28906 5.01954l-.58984 1.07812m16.05469-3.0586l-7.02344-.20312m7.02344.20313l1.08594 2.19921m10.67578-5.21875l-3.92188 5.83204m3.92188-5.83204l2.4414.25391m-3.01172.59766l1.22266.125m14.0664.92578l-6.72656 2.03125m6.72657-2.03125l1.73047 1.74219m-2.71094-1.44532l.86719.8672m13.30078-1.51954l-6.47266 2.74219m6.47266-2.74219l1.90625 1.54688M239.5 372.83594l.95313.77344m12.96875-1.78125l-5.8047 3.96093m5.8047-3.96094l2.17187 1.14063m-3.01563-.5664l1.08594.5703m13.13672-1.05077l-5.92969 3.77343m5.9297-3.77344l2.1328 1.21094m-2.99609-.66015l2.13672 1.21093m12.57812-.17187l-7.0039.58984m7.0039-.58984l1.32813 2.0625m11.9961-1.64063l-7.02345-.25m7.02344.25l1.07422 2.20704m12.23438-2.59766l-7.00782.53125m7.00782-.53125l1.3125 2.07422m-2.33204-1.9961l.65625 1.03516m13.6836-1.0039l-7.01953.3125m7.01953-.3125l1.2461 2.11327m-2.26563-2.0664l.6211 1.05469m13.52343-2.10157l-6.63672 2.3125m6.63672-2.3125l1.80078 1.66797M346.98828 372.5l-6.52344 2.61719m6.52344-2.61719l1.875 1.57813m11.32813-1.82422l-6.30079 3.10937m6.30079-3.10937l1.99218 1.43359m-2.91015-.98047l.9961.71485m13.08983-1.44141l-6.0039 3.65625m6.0039-3.65625l2.10938 1.2539m10.5039-2.08203l-4.60546 5.3086m4.60547-5.3086l2.39062.55079m9.89844-1.16797l-2.55078 6.54687m2.55078-6.54687l2.4375-.28907m10.96094.32032l-2.71875 6.48046m2.71875-6.48046l2.4414-.22266m10.57031.11328l-2.10937 6.70313m2.10937-6.70313l2.41016-.44922m10.83594.42969l-1.97266 6.74219m1.97266-6.74219l2.40234-.5m9.09375 7.28516l1.66406-6.82813m-1.42187 5.83203l-1.1875.30469m13.29297.29297l3.60156-6.03516m-3.07812 5.16016l-1.22657-.0625"/><g clip-path="url(#P)"><path fill="none" stroke="#000" stroke-linecap="round" stroke-linejoin="round" stroke-miterlimit="10" stroke-width=".5" d="M146.48438 358.00781l-4.96875 4.96875"/></g><path fill="none" stroke="#000" stroke-linecap="round" stroke-linejoin="round" stroke-miterlimit="10" stroke-width=".5" d="M146.48438 358.00781l2.34765.71875m9.76172-1.5039l-2.5586 6.54296m2.5586-6.54296l2.4375-.28516m6.32422 2.28125l6.54687 2.55078m-5.59375-2.17969l-.14453-1.21875m14.57031 5.42188l2.42188-6.59766m-2.07031 5.63672L181.87109 363m12.10157-1.26953l6.57422-2.47656m-5.6172 2.11718l-.92187-.8125m16.91797-3.5625l-.70312 6.9922m.60156-5.97267l1.13672-.46484m15.15625 1.55469l-6.45703 2.77344m6.45703-2.77344l1.91406 1.53515m-2.85156-1.1289l.95703.76562m12.82812-1.96093l-5.51953 4.35156m5.51953-4.35156l2.2461.98828m-3.05078-.35547l1.125.4961m12.03125-1.97266l-3.58985 6.04296m3.58985-6.04296l2.44922.11718m9.76562-.53906l-1.39063 6.88672m1.39063-6.88672l2.35156-.70312m-2.55469 1.70312l1.17579-.34765m13.96875.15234l-4.64453 5.27344m4.64453-5.27344l2.38672.5664m12.08984 2.52344l-6.96875-.90234m5.95703.76953l.42969 1.14844m13.03515.8711l-5.24218-4.6797m4.48046 4l-.29296 1.19141m15.25-3.1289l-7.00391.55468m5.98438-.47265l.66015 1.03515m13.5625-1.76172l-6.78125 1.84766m6.78125-1.84766l1.67969 1.78906m-2.66406-1.51953l.83984.89454m13.52344-.88672l-6.90625 1.29296m6.90625-1.29296l1.53125 1.91796m11.16797-3.34765l-5.67579 4.14844m5.67579-4.14844l2.20703 1.07031m9.83594-2.14062l-3.12891 6.29296m2.67187-5.3789l1.22657-.03125m12.74609-.77344l-3.53516 6.07422m3.02344-5.1914l1.22266.04687m12.5664-.95313l-3.45703 6.1211m3.45703-6.1211l2.45313.0625m9.15234-.51562l-.03515 7.02734m.03515-7.02734l2.17188-1.14063m11.625 1.17579l-1.0039 6.95703m.85937-5.94532l1.15234-.41406m13.125-.375l-2.64063 6.51172m2.25782-5.5664l1.22265-.125m12.64063-.75l-2.96875 6.36718m2.53906-5.4414l1.22266-.0625m14.32812 1.08984l-6.58203 2.46094"/><g clip-path="url(#Q)"><path fill="none" stroke="#000" stroke-linecap="round" stroke-linejoin="round" stroke-miterlimit="10" stroke-width=".5" d="M146.64844 344.8711l-5.29688 4.61718"/></g><path fill="none" stroke="#000" stroke-linecap="round" stroke-linejoin="round" stroke-miterlimit="10" stroke-width=".5" d="M146.64844 344.8711l2.29297.875m10.40234-1.4375l-4.0586 5.73827m4.0586-5.73828l2.4336.3125m-3.02344.52344l2.43359.3125m12.74219 2.92969l-6.59766-2.41797m6.59766 2.41797l.33594 2.42969m12.24218-1.23438l-5.125-4.8086m5.125 4.8086l-.64453 2.36719m-.10156-3.0664l-.32031 1.18359m15.12109-1.69141l-6.60547-2.39063m6.60547 2.39063l.34766 2.42578m13.0039-4.72265l-6.67578 2.19921m6.67578-2.19921l1.76953 1.69921m-2.74218-1.3789l.88672.85156m12.60546-2.4961l-5.08593 4.84766m5.08593-4.84765l2.32813.77343m-3.0664-.0664l1.16405.38672m11.5547-1.96875l-2.41798 6.59765m2.41797-6.59765l2.42969-.33594m-2.78125 1.29687l1.21484-.16796m11.33594-1.00782l-.1836 7.02735m.1836-7.02735l2.19531-1.09375m9.83203 1.30469l2.39063 6.60547m-2.04297-5.64453l.82031-.91016m11.54297.23438l3.59766 6.03515m-3.07422-5.15625l.63672-1.05078m17.4336 3.67969l-6.95704-.98047m6.95703.98047l.83594 2.3086m12.44531-2.1172l-6.89453-1.36328m6.89453 1.36329l.71094 2.34765m-1.71094-2.54687l.35547 1.17578m14.01172-1.32031l-6.9961-.67579m6.9961.67579l.9375 2.26562m-1.95703-2.36328l.46875 1.13281m13.3164-3.28515l-5.89453 3.82421m5.03516-3.26562l1.07422.59375m11.40234-2.52344l-2.5 6.5664m2.13672-5.60937l1.21485-.15625m11.76953-.98828l-1.11328 6.9414m.95312-5.92968l1.16016-.39844m9.11718.53906l5.28125 4.63672m-4.51171-3.96093l.28125-1.19532m12.96484-.08984l3.88281 5.85547m-3.32031-5.0039l.58594-1.07813m12.29297.14453l3.6289 6.01953m12.04688-6.48047l-1.09375 6.9414m.93359-5.92968l1.16016-.40234m11.5078-.64063l.52345 7.00781m-.52344-7.0078l2.07422-1.3125m10.47656 1.45312l2.05078 6.72265m-2.05078-6.72265l1.73438-1.73438m14.11328 1.92188l-3.01172 6.34765m2.57031-5.42578l1.22656-.05469m14.53516 2.1797l-7.02344.2539m6-.21485l.61328 1.0586"/><g clip-path="url(#R)"><path fill="none" stroke="#000" stroke-linecap="round" stroke-linejoin="round" stroke-miterlimit="10" stroke-width=".5" d="M146.27344 331.1836l-4.54688 5.35937"/></g><path fill="none" stroke="#000" stroke-linecap="round" stroke-linejoin="round" stroke-miterlimit="10" stroke-width=".5" d="M145.60938 331.96484l1.19921.25782m13.41407-.33204l-5.81641 3.94532m5.8164-3.94531l2.17188 1.14843m-3.01562-.57422l2.16797 1.14844m12.54687-.33594l-6.92969 1.17188m6.92969-1.17188l1.5 1.94141m-2.50781-1.77344l1.4961 1.94531m-2.50392-1.77343l.75.97265m14.62891-.58203l-7.02344-.28906m7.02344.28906l1.0586 2.21485m-2.08204-2.25782l.53125 1.10938m13.63672-2.29688l-6.6836 2.17188m6.6836-2.17188l1.76563 1.70704m11.0039-2.75l-5.58984 4.2578m5.58984-4.2578l2.23047 1.02734m10.6289-1.51953l-4.67968 5.24219m4.67969-5.2422l2.38281.58204m9.97266-1.1914l-2.75781 6.46093m2.35546-5.52344l1.22266-.10156m13.16406-.46094l-4.09765 5.71094m4.09765-5.71094l2.42969.32813m11.58594.33984l-5.5 4.3711m4.69922-3.73438l1.125.49219m13.73828.74219l-6.9961.6328m6.9961-.6328l1.34375 2.05468m11.9375-2.33203l-6.92578 1.1875m6.92578-1.1875l1.5 1.9414m-2.50781-1.76952l.75.97265m13.0039-2.54297l-5.78906 3.98438m5.78906-3.98438L308.85156 333m8.7461-2.61328l-1.00391 6.95312m.85938-5.9414l1.15234-.41406m14.875 1.16796l-6.14063 3.42188m5.2461-2.92188l1.03125.66407m12.71875-1.8047l-5.21875 4.70313m5.21875-4.70312l2.30469.83984m9.08984-1.9336l-1.3789 6.89063m1.3789-6.89062l2.35156-.70313m11.4336 7.46485l-2.31641-6.63281m16.125.21484l-3.30469 6.20312m2.82422-5.30078h1.22656m9.75782-1.11719l2.3164 6.63282m-1.98047-5.66797l.83594-.90235m10.04688 1.9297l6.5078 2.64843m-5.55859-2.26563l-.125-1.21875m13.98829-.8828l3.51562 6.08593m10.0664-6.22266l2.98048 6.35938m-2.98047-6.35938l1.47265-1.96484m11.76172 2l3.14063 6.28516m-2.6836-5.3672l.71094-1m14.1836-.2578l-.9336 6.96484"/><g clip-path="url(#S)"><path fill="none" stroke="#000" stroke-linecap="round" stroke-linejoin="round" stroke-miterlimit="10" stroke-width=".5" d="M147.46875 319.99219l-6.9375 1.11328"/></g><path fill="none" stroke="#000" stroke-linecap="round" stroke-linejoin="round" stroke-miterlimit="10" stroke-width=".5" d="M147.46875 319.99219l1.48047 1.95703m11.3711-3.22656l-6.00782 3.64843m6.00781-3.64843l2.10547 1.2578m11.35547-.99218l-6.30078 3.11719m6.30078-3.11719l1.99219 1.4336m-2.91016-.98047l.9961.71875m13.10156-1.41797l-6.03125 3.60937m6.03125-3.60937l2.10156 1.26953m-2.98047-.74219l1.05078.63281m13.48828-.375l-6.72265 2.03907m6.72265-2.03907l1.73438 1.73829m-2.71094-1.44141l.86328.8711m13.10547-1.91016l-6.07812 3.52734m6.07812-3.52734l2.08594 1.29687m11.11328-1.48437l-5.84375 3.89843m4.9961-3.32812l1.07812.57812m13.63281.2422l-6.9375 1.12108m5.92578-.96093l.74219.98047m12.7461-2.90625l-5.26563 4.65234m5.26562-4.65234l2.29688.85937m11.26953-.54297l-5.76563 4.01953m5.76563-4.01953l2.1836 1.11719m10.73437-1.59375l-4.96875 4.96875m4.96875-4.96875l2.34375.71875m-3.0664.0039l1.17187.35938m13.08593-.83984l-5.41015 4.48437m5.41015-4.48437l2.26954.9336m10.28125-1.6172l-3.88282 5.85547m3.88282-5.85547l2.4414.23438m12.39453 2.10156l-6.92578 1.17969m5.91797-1.00781l.75.97265m13.55469-1.25l-6.88672 1.39063m5.88281-1.1875l.78125.94922m11.97266-3.42579l-3.75781 5.9375m3.21093-5.07421l1.22266.09375m10.9961-1.4922l-.47266 7.01173m.47265-7.01172l2.2422-1.0039m12.33202 1.32812l-2.98828 6.35937m2.98828-6.35937l2.44922-.1211m9.76953-.1875l-.79687 6.98047m.67969-5.96484l1.14062-.44922m12.22656-.57422l-.66797 6.9961m.57032-5.98047l1.13671-.46875m11.84766-.5625l.1914 7.02343m-.1914-7.02343l2.13281-1.21094m8.57422 2.48047l5.40625 4.48828m-4.6211-3.83594l.25-1.20312m13.01563-.1172l3.9336 5.82423m-3.35938-4.97656l.57422-1.08594m13.63672-.32813l.99219 6.95703m-.84766-5.9453l.99219-.72267m16.14453 2.625l-6.9375 1.125m5.92578-.96093l.74219.97656"/><path fill="#00f" fill-rule="evenodd" d="M317.22656 472.08594h8.61719V461.9414h-8.61719v10.14453"/><path fill="azure" fill-rule="evenodd" d="M319.0586 463.77344h.83202v2.82422h3.28516v-2.82422h.83594v6.48047h-.83594v-2.91797h-3.28515v2.91797h-.83204v-6.48047"/><path fill="#00f" fill-rule="evenodd" d="M175.19922 467.64844h8.61719V457.5039h-8.6172v10.14453"/><path fill="azure" fill-rule="evenodd" d="M177.03125 459.33594h.83203v2.82422h3.28516v-2.82422h.83594v6.48047h-.83594v-2.91797h-3.28516v2.91797h-.83203v-6.48047"/><path fill="#ff3030" fill-rule="evenodd" d="M366.74219 463.21094h7.6914V453.0625h-7.6914v10.14844"/><path fill="azure" fill-rule="evenodd" d="M368.57422 454.89844h.83203v5.73828h3.19531v.74219h-4.02734v-6.48047"/><path fill="#00f" fill-rule="evenodd" d="M383.80078 436.57813h8.61719v-10.14454h-8.61719v10.14454"/><path fill="azure" fill-rule="evenodd" d="M385.63281 428.26563h.83203v2.82421h3.28907v-2.82421h.83203v6.48046h-.83203v-2.91406h-3.28907v2.91406h-.83203v-6.48046"/><path fill="#00f" fill-rule="evenodd" d="M206.26563 409.94922h8.61718v-10.14453h-8.61719v10.14453"/><path fill="azure" fill-rule="evenodd" d="M208.09766 401.63672h.83593v2.82422h3.28516v-2.82422h.83203v6.48047h-.83203v-2.91797h-3.28516v2.91797h-.83593v-6.48047"/><path fill="#00f" fill-rule="evenodd" d="M370.48438 401.07422h8.62109v-10.14844h-8.6211v10.14844"/><path fill="azure" fill-rule="evenodd" d="M372.3164 392.76172h.83594v2.82031h3.28516v-2.82031h.83203v6.47656h-.83203v-2.91406h-3.28516v2.91406h-.83593v-6.47656"/><path fill="#ff3030" fill-rule="evenodd" d="M295.72656 396.63281h7.69531v-10.14453h-7.6953v10.14453"/><path fill="azure" fill-rule="evenodd" d="M297.5586 388.32031h.83593v5.74219h3.1914v.73828h-4.02734v-6.48047"/><path fill="#ff3030" fill-rule="evenodd" d="M451.07031 396.63281h7.6914v-10.14453h-7.6914v10.14453"/><path fill="azure" fill-rule="evenodd" d="M452.90234 388.32031h.83204v5.74219h3.1953v.73828h-4.02734v-6.48047"/><path fill="#ff3030" fill-rule="evenodd" d="M171.45313 352.25h7.6914v-10.14453h-7.6914V352.25"/><path fill="azure" fill-rule="evenodd" d="M173.28516 343.9375h.83593v5.73828h3.19141v.74219h-4.02734v-6.48047"/><path fill="#ffffe0" fill-rule="evenodd" d="M429.86719 423.4961h22.17969v-10.19141h-22.1797v10.1914"/><path fill-rule="evenodd" d="M433.36719 415.13672h.50781v6.29687h-.78516v-4.49218h-1.39062v-.5547l.5586-.0664.2539-.05078.23047-.08984.20312-.14453.17188-.20704.14453-.29687.10547-.39453m4.8125 0l.23047.01953.21875.05469.20703.08984.19531.1211.1836.14843.17187.17578.30469.42188.24218.49219.1797.54687.10937.57813.03906.58984-.03906.59375-.10938.58594-.17969.55469-.24218.5-.3047.42968-.17187.17969-.18359.15234-.19531.125-.20703.08985-.21875.0586-.23047.01952-.23047-.01953-.21875-.0586-.20703-.08984-.19531-.125-.1836-.15234-.17187-.17969-.3047-.42969-.24218-.5-.17969-.55468-.10937-.58594-.03906-.59375h.83203l.03125.5664.07812.50391.1289.4414.16017.375.1914.30079.21094.22266.22265.13671.22657.04688.22656-.04688.22266-.13671.21093-.22266.19141-.30078.16016-.375.1289-.4414.08203-.50391.02735-.56641-.02735-.5586-.08203-.5-.1289-.4375-.16016-.36327-.1914-.29297-.21094-.21485-.22266-.13281-.22656-.04297-.22656.04297-.22266.13281-.21094.21485-.1914.29296-.16016.36329-.1289.4375-.07813.5-.03125.55859h-.83203l.03906-.58984.10937-.57813.1797-.54687.24218-.4922.30469-.42187.17187-.17578.1836-.14844.1953-.12109.20704-.08984.21875-.05469.23047-.01953m4.95312 0l.23047.01953.21875.05469.20703.08984.19531.1211.1836.14843.17187.17578.30079.42188.24609.49219.17969.54687.10937.57813.03906.58984-.03906.59375-.10937.58594-.1797.55469-.24608.5-.30079.42968-.17187.17969-.1836.15234-.1953.125-.20704.08985-.21875.0586-.23047.01952-.23047-.01953-.21875-.0586-.20703-.08984-.19531-.125-.1875-.15234-.16797-.17969-.30469-.42969-.24218-.5-.1797-.55468-.11327-.58594-.03516-.59375h.83203l.02735.5664.08203.50391.1289.4414.16016.375.1914.30079.21094.22266.22266.13671.22656.04688.22656-.04688.22266-.13671.21094-.22266.1914-.30078.16016-.375.125-.4414.08203-.50391.03125-.56641-.03125-.5586-.08203-.5-.125-.4375-.16015-.36327-.19141-.29297-.21094-.21485-.22265-.13281-.22657-.04297-.22656.04297-.22266.13281-.21093.21485-.19141.29296-.16016.36329-.1289.4375-.08203.5-.02735.55859h-.83203l.03516-.58984.11328-.57813.17969-.54687.24218-.4922.3047-.42187.16796-.17578.1875-.14844.19531-.12109.20703-.08984.21875-.05469.23047-.01953m4.95313 0l.38672.02734.35937.08203.32031.13672.28125.1875.23047.23828.17188.28516.10937.33203.03906.3789-.02343.27344-.05469.23438-.08984.19922-.11329.17187-.1289.14454-.13672.12109-.28906.19531.23437.1211.20703.14453.1797.17187.15624.19531.1211.21094.09375.23047.05468.2461.01953.2539-.03515.3086-.10547.32812-.17188.32422-.23828.30469-.30469.26953-.375.21484-.21093.08203-.23047.0625-.24219.03516-.26172.01562-.26172-.01562-.23828-.03516-.22656-.0625-.20313-.08203-.35937-.21484-.28906-.26954-.22266-.30468-.16015-.32422-.08985-.32813-.03125-.30859h.83203l.02735.2539.07812.23438.1211.21094.16015.1875.19531.15234.21875.11328.23829.07422.2578.02344.25391-.02344.2422-.07422.21874-.11328.1914-.15234.16016-.1875.125-.21094.07813-.23437.02734-.25391-.02734-.2539-.07813-.23438-.125-.21094-.16015-.1836-.1914-.15234-.21876-.11718-.24219-.07032-.2539-.02734-.25781.02734-.23829.07032-.21875.11718-.1953.15235-.16017.1836-.12109.21093-.07812.23437-.02735.25391h-.83203l.01953-.2539.05469-.23829.08984-.22656.125-.20703.15235-.1914.1836-.17188.20702-.15235.23047-.1328-.28515-.19532-.14063-.1211-.1289-.14453-.11329-.17187-.08594-.19922-.05859-.23438-.01953-.27343h.78516l.02343.21484.06641.1875.10547.16797.13672.14063.16406.10937.1875.08203.20703.05078.22266.01563.21875-.01563.20703-.05078.1875-.08203.16797-.10938.13672-.14062.10156-.16797.0664-.1875.02344-.21484-.02344-.21485-.0664-.1914-.10156-.16797-.13672-.14063-.16797-.10937-.1875-.08203-.20703-.05078-.21875-.01563-.22266.01563-.20703.05078-.1875.08203-.16406.10937-.13672.14063-.10547.16797-.0664.1914-.02344.21485h-.78516l.03906-.3789.10938-.33204.17187-.28516.23047-.23828.27735-.1875.32421-.13672.35938-.08203.38672-.02734"/></g></defs><use xlink:href="#T"/></svg>