<svg xmlns="http://www.w3.org/2000/svg" role="img" xmlns:xlink="http://www.w3.org/1999/xlink" viewBox="142.45 309.95 326.84 171.84"><defs><clipPath id="a"><path d="M144 311.67188h1v168.65625h-1zm0 0"/></clipPath><clipPath id="b"><path d="M144 311.67188h324v168.65625H144zm0 0"/></clipPath><clipPath id="c"><path d="M467 311.67188h1v168.65625h-1zm0 0"/></clipPath><clipPath id="d"><path d="M144 479h4v1.32813h-4zm0 0"/></clipPath><clipPath id="e"><path d="M146 480h1v.32813h-1zm0 0"/></clipPath><clipPath id="f"><path d="M154 478h7v2.32813h-7zm0 0"/></clipPath><clipPath id="g"><path d="M167 478h7v2.32813h-7zm0 0"/></clipPath><clipPath id="h"><path d="M180 478h8v2.32813h-8zm0 0"/></clipPath><clipPath id="i"><path d="M193 478h8v2.32813h-8zm0 0"/></clipPath><clipPath id="j"><path d="M206 478h9v2.32813h-9zm0 0"/></clipPath><clipPath id="k"><path d="M212 480h2v.32813h-2zm0 0"/></clipPath><clipPath id="l"><path d="M220 479h8v1.32813h-8zm0 0"/></clipPath><clipPath id="m"><path d="M226 480h1v.32813h-1zm0 0"/></clipPath><clipPath id="n"><path d="M234 478h7v2.32813h-7zm0 0"/></clipPath><clipPath id="o"><path d="M247 478h7v2.32813h-7zm0 0"/></clipPath><clipPath id="p"><path d="M260 478h7v2.32813h-7zm0 0"/></clipPath><clipPath id="q"><path d="M274 478h7v2.32813h-7zm0 0"/></clipPath><clipPath id="r"><path d="M286 478h8v2.32813h-8zm0 0"/></clipPath><clipPath id="s"><path d="M300 477h7v3.32813h-7zm0 0"/></clipPath><clipPath id="t"><path d="M313 478h8v2.32813h-8zm0 0"/></clipPath><clipPath id="u"><path d="M327 478h7v2.32813h-7zm0 0"/></clipPath><clipPath id="v"><path d="M340 478h8v2.32813h-8zm0 0"/></clipPath><clipPath id="w"><path d="M353 478h8v2.32813h-8zm0 0"/></clipPath><clipPath id="x"><path d="M367 477h7v3.32813h-7zm0 0"/></clipPath><clipPath id="y"><path d="M382 479h3v1.32813h-3zm0 0"/></clipPath><clipPath id="z"><path d="M393 478h8v2.32813h-8zm0 0"/></clipPath><clipPath id="A"><path d="M406 478h8v2.32813h-8zm0 0"/></clipPath><clipPath id="B"><path d="M412 479h2v1.32813h-2zm0 0"/></clipPath><clipPath id="C"><path d="M420 478h8v2.32813h-8zm0 0"/></clipPath><clipPath id="D"><path d="M425 479h3v1.32813h-3zm0 0"/></clipPath><clipPath id="E"><path d="M433 478h8v2.32813h-8zm0 0"/></clipPath><clipPath id="F"><path d="M446 478h8v2.32813h-8zm0 0"/></clipPath><clipPath id="G"><path d="M460 478h7v2.32813h-7zm0 0"/></clipPath><clipPath id="H"><path d="M144 465h4v4h-4zm0 0"/></clipPath><clipPath id="I"><path d="M144 451h4v5h-4zm0 0"/></clipPath><clipPath id="J"><path d="M144 438h4v5h-4zm0 0"/></clipPath><clipPath id="K"><path d="M144 424h3v6h-3zm0 0"/></clipPath><clipPath id="L"><path d="M144 411h4v5h-4zm0 0"/></clipPath><clipPath id="M"><path d="M144 399h4v2h-4zm0 0"/></clipPath><clipPath id="N"><path d="M144 384h4v6h-4zm0 0"/></clipPath><clipPath id="O"><path d="M144 371h3v6h-3zm0 0"/></clipPath><clipPath id="P"><path d="M144 358h4v5h-4zm0 0"/></clipPath><clipPath id="Q"><path d="M144 345h4v4h-4zm0 0"/></clipPath><clipPath id="R"><path d="M144 331h4v6h-4zm0 0"/></clipPath><clipPath id="S"><path d="M144 319h4v3h-4zm0 0"/></clipPath><g id="T" clip-path="url(#clip1)"><path fill="#fff" fill-opacity="0" fill-rule="evenodd" d="M0 0h1000v1000H0zm0 0"/><path fill="#d3d3d3" fill-opacity="0" fill-rule="evenodd" d="M162.15234 355.86719l-.23437.29297.0586.23437.11718.17188.17578.23437.29297.34766.11328.0586.11719-.17188.0586-.23438.17577-.17578.46485-.17578h.69922l.23437.29297.28906.8164.0586.17579.17578.23046.35156.23438.69922.69922.17188.17578.23437.34765.23438.41016.28906.58203.41015.46485.23047.23437.23438.17578.11719.23047.17578.29297.17187 1.16406v.23438l.0586.28906.05859.11719.11719.11719.34765.41015.11719.17188.17578.17578.17578.23437.11719.17188.17188.35156.05859.23438.23437.40625.23438-.0586-.17578.17578-.0586.92969h-.58203l-.23437-.11328-.34766.11328-.11719.11719-.05859.29297-.0586.17578-.11718.17187-.46484.29297-.0586.23438-.0586.11328v.64453l.0586.17187v.41016l.0586.0586v.40624l.05859.40625.11719.17579.05859.05859.23047.64062-.0586.29297v.69922l-.05859.58203v.23438l-.0586.23047-.05468.35156v1.92187l.05469.1172h.42578l-.36719.11718-.02344.35156.89063 1.16797 1.74219.53906 1.33984.35938v.53906l.08984.8086.53516.71484 1.51953.26953.89063-.08594.08984 1.16406.53516.1797 1.16015-.1797 2.05469-.98437 1.16016-.36328 1.8789-.17578 1.69531-.1797-.17968.71876-1.51563.08594-1.25.08984-.80469.26953-1.07421.8086.26953.71875.53515.89843-.17968.625-.26563.8086.26563 1.07812.625.89844.80468.17969 1.25-.1797-.26562.72267.09766.5039.05468.29297v.17188l.0586.29296v.40625l.17578.1172.35156.11718h.40625l.29297-.17578.11328-.11719.0586-.11719.11718-.23047.0586-.17578.35156-.46484.23047-.17578.17578-.0586.17578.0586.0586.17578.11718.98828.05469.46875.0586.17188.11718.23437.17578.0586.8164.05859h.28907l.11719.23437.05859.40625.0586.35156v1.10547l.11718.29297.11719.34766.28906.69922.17578.35156.58203.7539.35157.17579.17187.0586.46875.23437.64063.46484.34765.23438.29297.17578.29297.05468.23047.0625.8164.34766.29297.17578.11328.17188.35157.35156.11719.17578.52343.64063v.28906l.0586.35156v.34766l.05859.35156.0586.28906.11718.0586.17188.05859h.17578l.58203.23437.17578.1172.17578.28905.17578.23438.11328.23437.29297.23047.11719.11719v.41016l.0586.05468.28906.23438.23437.11719.0586.11718.11718.17188.0586.11719.23047.23437.05859.17578.23437.0586.1172.05859-.1172.11328-.05859.11719v.11719l-.11719.29296-.11719.28907v.58203l.17579.11719.11718.05859.0586.11719.11719.11719.11328.05859.17578.34765.0586.35157.05858.40625v.17578l-.05859.17578-.11719.69922v.17187l.1172.17579.29296.29296h.40625l.17578.1172.11719.17187.11719.29296v.23438h-.52735l-.23047-.23438h-.23437l-.17578.0586-.0586.69922.0586.34765.11719.17579.17578.41015.11718.23047.28907.46875.17578.05469h.52344l.23437.0586.75781.64062.0586.29296v.23438l.05859.0586.23047.34765v.35156l-.11719.17188v.29297l.29297.28906.29297.17578.17187.0586.29297.17577.29297.1172.58203.40624.28906.23438.29297.17578.21875.16015.01563.01172.23047.17579.64062.52343.17578.23438.1172.17578.17577.17578.11328.17188v.64062l.1172.17578.46874.11719.58203.11719.23438.05859.23047.11328.29297.11719.11328.0586.58593.35156.28907.17187.17578.0625.17578.05469.17578.0586.69922.35155.28906.17579.23438.05468.28906.17578.23437.1172.64063.40624.29297.11719.17187.0586.23438.05859.41015.05859.23047.0586.23438.11718.0586.17188-.41017.17578.46875.0586.0586.29296.11328.23438.17578.05468.23438.0586.17578.05859.40625.11719.64062.23437.11719.17188.0586.23437v.17578l-.0586.1172-.0586.40624.23438.23438.11719.05859.34766.11719.64062.23047.17578.11718.28906.1172.17578.17577.23438.46485.58203 1.10546.17578.17579.34766.17578.17578.11719.35156.11718 1.04688.52344.23437.0586.46485.11327.29297.0586.46484.17578.75781.58203.23438.23438.34765.46484.17578.17578.28907.23438.8164.69921.29297.17579.28906.28906.29297.17578.29297.28906.69531.64063.17578.17578.29297.23437.28907.23438.46875.28906.64062.58203.34766.23438.23437.29297.34766.34765.35156.46485.9336.99218.34765.40625.11719.17579.23437.05859.11328.11719.64454.17578.23047.11328.23437.0586.29297.17577.23047.1172.9336.69921.40624.40625.23438.17578.40625.17578.23437.11719.8164.34766.34766.23437.23438.11719.29297.28906.23047.11719.7578.35156.35157.17188.23047.05859.29297.11719.23437.0586.8711.17577h.8164l.46875.23047.17188.0586.875.69921.46484.1172.29297.05858.17578.0586.23047.0586.46875.05859.34766.05859.35156.0586.40625.05859h.29297l.17187.0586v.23046l.17578.17578h.29297l.34766.0586.35156.05859.69922.11719h.64063l.46484-.23438.29297-.17578.17187-.11719.41016-.17187.28906-.17578.9336-.46485.46875-.29297.52343-.29296.46485-.17188.46484-.17578 1.05078-.46485.28906-.11718.41016-.11719.28906-.11719.52735-.17578 1.51562-.69922.58203-.34765.28907-.0586.29297-.0586.34765-.11718.875-.23047.35156-.11719h.11329l.23437-.05859.875-.23437.23438-.0586h.8125l.35156-.0586.8164-.11718.17188-.0586.35156-.05468.29297-.0586.23047-.05859.8164-.17578.17579-.0586h.34765l.23438-.05859.46484-.11718.75781-.17188.23438-.0586h.34765l.41016-.11718.28906-.0586 1.28516-.05859h.28906l.41016-.0586.23047-.05858h.17578l.875-.1172h.40625l.41015-.11718h.34766l.35156-.11328.8711-.0586h1.75l1.04687.28907.41016.11719.28906.11718.35156.11719.28907.11719 1.05078.17187.28906.0586h.29297l.29297.05859.17187.0586.41016.05859.17187.0586.1172.05858h.11718l.11719.0586.35156.0586h.11328l.41016.0664 1.92187.39453 1.92578.39453 1.51953.44922 1.69532.71875 2.14453.80469 1.60547-.71875 1.42968-.80469 1.16016-1.07813 1.25-.44921 3.03516-.71875 1.875-.35938 2.14453-1.34765 2.23437-1.25391 2.5-1.25781 1.69531-.44922 1.78516-.17969 1.16016-.26953.625.53906 1.33984-.26953.71485-.98828.98437-1.34375.44531-.17969.80469-.35937 1.875-.53907 1.78516-.44921 1.25-.26954 1.16015-.08984 1.69922-.08984 1.96094-.26954 1.25-.08984h.53906l.625-.08984h.89063l2.14453-.17969 2.41015-.17969 2.58985-.08984 1.69531.17969 1.60938.08984 1.42968.35938 1.16016.71875 1.875.98828 1.16015 1.52734.26563.71484.6289.08985.35548.89844.53515.53906.53516 1.52734 1.07422.35938h.53515l-.80469.53515.08985 1.70703.71484 2.69532.89063.80468.89453.98829.71484 1.2578 1.78516.53907 1.51953-.17969.35547 1.34375 1.60937-.80469.98047-.53906.26953.26953.31641-.21484.21875-.14453.80078.44922.44922-.35938h.35547l.53515-.26953.53907-.71875.53515-.26953.625-.98828 1.16016.44922.83984.3711 1.39454.61718 1.6953-.17969h1.60548l1.78515.08985.17969-1.70704.53516-1.34375.80468.26954.4922.84765.40233.40625-.08984.53906v.35938l.71485.44922.71093-.26953h1.42969l.35938.98828.4453 1.25781.71485 1.34375 1.25.6289 1.69531.62891.71485-.17969.17969-.53906.98046-.08984.44922.35937.08594 1.25782-.26563.6289-.53515.17969v.53906l.71484.98438.26563.53906.98437.98828.80078 1.07813-.26562.35937-.08985.89844-.625 2.33203-.35546 2.0664-.08985 1.79298-.17969.71875-.08984.53906v1.4375l-.98047 1.88281-.35937 1.70703-.53516.89844-.80469 1.16797-.26562.53906 2.05469 1.2539.08593.35938-.35546.53906-.08985-.17968v.80859l.08985 1.4375-.44532.71484-1.07422.09375-.26562.71485.53515.89844.8047.71875 1.16015.80859 1.33984.26953.44531.35938-.35546.44921-1.78907-.08984-1.25-.44922-.71484-.71875-.625-.08984-.17578 3.58984-.1875 1.3086h89.35937V311.70313h-55.26953v49.08203l.76172.125 3.28906.54296 2.02344 2.83594v2.7539l2.35156.33204 2.34766.33203h4.05078l-1.3789 4.16016-2.02344.70703-2.02344.70312-.54297.34375-2.59375 1.6172-.1875.11718-2.02344-2.07813-.73046-2.74218-2.67188-2.07813-1.375-3.5-.0664-.08203-1.95704-2.67188 2.75-1.41796v-49.08204H294.42187v91.41407l.1172.03125.1328.01172.07422.07421.10547.04688.08985.0586.08593.05859.08985.0586.29687.29687.0586.08984.03125.11719.02734.11719.01563.13671-.03125.1172-.0586.08983-.0586.08594-.04296.10547-.04688.10156-.02734.1211v.14453l.17578.26953.14844.14844.07422.08594.07422.07421.04296.10547.0625.08985.0586.08593.04297.10547.0586.08985.04687.10156.04296.10547.0586.08594.11719.17968.07421.07422.0625.08594.0586.08984.04297.10547.0586.08985.05858.08593.0625.08985.0586.08984.04297.10156.11719.17969.07421.07422.0586.08594.07422.07421.08984.0586.10547.04687h.14844l.1328-.01562.13282.01562.10156-.04687.07422-.07422.04688-.10156-.01563-.13281v-.14844l-.04687-.10547-.02735-.11719-.04687-.10156-.02735-.1211-.04296-.10156-.0625-.08984-.04297-.10156-.04297-.10547-.03125-.11719-.01563-.13281-.01171-.13672.08593-.0586.0586-.08593.12109-.03125.04297.10547.01562.1328v.1172l.0586.10156.0586.08984.08983.0586.14844.14843.0586.08985.04296.10547-.01171.10156.08593.0586.10547.04687.08594.0586.08984.05858.07422.07422-.11719.02735-.10546.04687-.08594.0586-.07422.07421-.0586.08985-.0625.08594-.02734.12109-.04687.10156-.04297.10547-.03125.11719-.01172.13281-.01563.13281v.14844l.02735.11719.04687.10547.04297.10156.0586.08984.07421.07422.08985.0586.07422.07421.08984.0586.0586.08984.04296.10547.04688.10156.11719.03125.1328.01563h.14845l.11718-.03125.10547.04297.04297.10547.04688.10156.02734.1211L299.5 410l.02734.11719.03125.1211.02735.11718.10547.04297.10156.04687.13281-.01562.14844.14844.0625.08593.07422.07422.07031.07422.08984.0625.10547.04297.10156.04297.1172.03125.13671.01562.11719-.03125.07422-.07422.02734-.11718-.01172-.13282-.03125-.12109-.02734-.11719.04297-.10547h.11719l.08984.0625.11719.02735h.14843l.13282.01562h.14843l.13282.01563.1328-.01563h.14845l.1328-.01562.13282-.01172.13672.01172.11719-.02735.13281-.01562.1914-.0586-.05859.17579-.01562.1328-.02735.1211-.01562.13281-.0586.08594-.1328.01563-.10548.04687-.10546.04297-.1172.03125-.11718.02735-.26563.03125h-.14843l-.13281.01562-.07422.07422.05859.08594.14844.14843.11719.1797.07421.0703.08985.0625.08984.0586.08594.0586.08984.05858.10156.04297.10547.0625.10547.04297.08594.0586.10547.04687.10156.04297.17969.11719.0586.08984-.04298.10156-.04687.10547.01562.13281.22266.22266.0586.08985.04296.10156.03125.1211.04297.10155.01563.13282.03125.11718.01171.13672.03125.11719.14844.14844.10156.04297.10547.04296.1172.03125.1328.01563.13672.01563h.11719l.11719-.03125.08984-.0586.04297-.10547.04688-.10156.04296-.10547.03125-.11719.01172-.1328v-.14845l-.01172-.1328-.01562-.13282-.03125-.11719-.04297-.10547-.04688-.10547-.04296-.10156-.04297-.10547-.01563-.13281.01563-.13281.02734-.11719.03125-.11719.02735-.1211.04687-.10155.08984-.0586.08594-.0625.07422-.07422.08984-.05859.22266-.22266.0586-.08593.07421-.07422.11719-.17969.0586-.08594v-.14844l-.07423-.07421-.10156-.04688-.10547-.04297-.10156-.04297-.0586-.08984-.04687-.10547-.02734-.11719.08984-.05859.11719-.03125.10156-.04297.17969-.11719.14844-.14843.01172-.13282-.01172-.10546-.08985-.0586-.1328.01563h-.14845l-.1328.01562-.13282-.01562-.1211-.03125-.08593-.0586-.07422-.07422-.0586-.08984-.0625-.08594-.11718-.17969-.0586-.08593.03125-.1211.08594-.05859.1211-.03125.05859-.08594v-.1211l-.03125-.11718-.0586-.08984-.05859-.08594-.04687-.10547-.02735-.11719-.01562-.1328.0586-.08985.07421-.07422.08984-.0586.1172-.17968.07421-.07422.0586-.08594.14843-.14844.1211-.03125.1328-.01562.13282.01562.07422.07422.04297.10547.01562.13281-.03125.1172-.11719.03124-.1328.01172-.14844.14844-.04297.10547-.04688.10156-.02734.1211-.03125.11718v.14844l.03125.11719.04297.10546.05859.08985.07422.07031.07422.07422.11719.03125.12109.02734.11719-.02734.1328-.01563h.1172l.08984.0586.07422.07422.04687.10546.0586.08594.10156.04688.13281.01562.10547.04297.08594.0586-.01172.10546-.07422.07422-.17969.11719-.05859.08984-.08984.0586-.07032.07422-.07421.07421-.0625.08985-.02735.11719-.01562.1328.01562.13282-.01562.13281v.14844l.01562.13281.02735.1172.03125.12108.07421.07422.08985.0586.08594.0586.08984.05858.11719.03125v.08594l-.10157.04688-.08984.0586-.26563.03124-.11718.02735h-.14844l-.10547.04296-.10156.04688-.0586.08984-.0625.23438-.01171.13281-.03125.1211-.01563.1328v.29298l-.01172.1328.01172.13673.01563.1328.1328.01563.13282.01172.1211.03125.08593.0586.07422.07421.04688.10547.04296.10157.01563.1328v.44532l-.01563.13281v.44532l.03125.26562.02735.11719.01562.13281.03125.11719.08594.21094.03125.26562v.14844l-.03125.11719-.02734.11718-.03125.1211-.02735.11719-.03125.11718-.03125.1211-.01171.1328-.01563.13282.08984.0586.1172-.03125.10155.01562.04688.10547-.03125.26562v.44141l-.04297.10547-.04688.10547-.04296.10156-.04297.10547-.0586.08594-.03125.12109-.04296.11719-.03125.11719-.01563.1328.01563.13282.05859.08984.10547.04688.08594.0586.05859.08593-.01172.13672-.03125.11719-.04297.10156v.44531l-.01562.13281v.14844l-.03125.11719-.04297.10547-.02735.11719-.04687.10546-.04297.10157-.03125.12109-.02734.11719-.03125.13281-.03125.11719-.02735.11719-.04297.10546-.03125.1172-.03125.12108-.01171.13282-.01563.13281v.29688l.02734.11718v.14844l.04688.39844.02734.11719.0586.08984.12109.03125h.14844l.13281-.01563.0586.08985v.11719l-.0586.08984-.08984.0586-.10157.04296-.10546.04688-.08985.05859-.08594.0586-.13671.01562-.1172-.03125-.1328-.01563-.10157.04688-.0625.08594-.01172.13671-.01562.13282-.03125.11719-.02735.11718-.01562.13281-.03125.1211v.29687l.01563.13282.03125.11718v.14844l.01171.13281v.14844l-.02734.11719-.04688.10156-.02734.1211-.03125.11718-.0586.08985-.07421.07421-.10156.04297-.10547.04688-.11719.02734-.1211.03125-.10156-.04687.0586-.08594.10547-.04688.02734-.11718.03125-.11719.02734-.1211.03125-.11718v-.14844l.01563-.13281-.03125-.11719-.04297-.10547-.10547.01563-.07422.07422-.10156.04296-.08984.0625-.07422.07422-.04297.10157-.01563.1328-.03125.1172L304.25 426l-.03125.11719-.02734.11719-.03125.12109-.02735.11719-.03125.11718-.04297.10547-.08984.0586h-.08984l-.1172-.03125-.03124-.08594.01562-.13672-.03125-.11719v-.14844l-.01171-.1328v-.14844l-.0625-.23438-.02735-.1211-.04297-.10156-.04687-.10546-.0586-.08594-.05859-.08985-.04297-.10546-.0625-.08594-.14844-.14844-.0703-.07422-.10548-.04687-.10547-.04297-.10156-.04297-.29687-.29688-.08985-.07421-.08594-.0586-.10546-.04297-.08985-.0625-.08594-.0586-.10546-.04296-.08985-.0586-.08594-.0625-.07421-.0703-.10547-.04688-.08594-.0586-.10547-.04296-.08984-.0625-.10156-.04297-.10547-.04297-.08594-.0586-.10547-.04687-.10547-.04297-.10156-.04687-.08985-.0586-.10156-.04297-.10547-.04296-.08984-.0625-.11719-.02735-.13281-.01562-.13281.01562H299.75l-.13281.01563-.11719-.03125-.08984-.0586-.07422-.07422-.08985-.05859-.10156-.04688h-.14844l-.12109-.02734-.10156-.04297-.07422-.07422-.11719-.17968-.08984-.0586-.10156-.04297-.08985-.0625-.10547-.04296-.08984-.0586-.08594-.0586-.10547-.04687-.0586-.08594-.05858-.08984-.04297-.10547-.04688-.10156-.07422-.07422-.08594-.0586-.07421-.07421-.08985-.0586-.22265-.22265-.04297-.10547-.03125-.26563.10547-.04296h.14453l.10547.04296.07421.07422.08985.0586.08594.0586.10546.04687.08985.05859.14844.14844.0703.07422.14845.14843.0625.08594.07421.07422.08594.0586.07422.07421.08985.0625.08984.0586.08594.05859.26953.17578.10156.04688.10547.04296.10156.04297.04688-.07421.05859-.08594.07422-.07422.07031-.07422.10547.04297.07422.07422.0586.08984.04296.10156.04688.10547.04296.10547.1211.02735.11719-.02735.07421-.08984.04297-.10547.0586-.08985.07422-.07421.10546-.04297.1172-.02735.1328.01172.08985.0586.14844.14843.05859.08985.04297.10547.04687.10156.04297.10547.04297.10156.10547.04688.10547.04296.13281.01563.08594-.0586.0586-.08984.07421-.07422.10547-.04297.11719.02735.10547.04687.10156.04297.10547.04297.10156.04688.17969.11718v.11719l-.01563.13281.01563.13281.01562.13672.0586.08594.10156.04688.1211.02734.11718.03125h.14844l.11719-.03125.05859-.08984.17969-.1172.05859-.08983.07422-.07422.0586-.08594.11718-.17969.17969-.11719.11719.03125.08984.0586.04297.07422-.01563.1328v.1172l.08985.05859h.14843l.13282-.01563.1328-.01171.26563-.03125.10547-.04297.11719-.03125.1211-.02735.07421-.07421.07031-.07422.0625-.08985-.01562-.10547-.04688-.10156-.10156-.04297-.10547-.01562-.11718.02734-.26563.03125h-.14844l-.07421-.07422-.08985-.0586-.11719-.03124-.11718-.02735-.13282-.01562h-.14843l-.13282.01563h-.29687l-.10547-.04688-.14844-.14844-.04297-.10156-.05859-.08984.22266-.22266.08593-.0586.10547-.04296.11719-.03125.13281-.01563.13281.01563.13672.01562.10157.04297.1328-.01172.08985-.0625.10156-.04297.0625-.08984-.04687-.10156-.08984-.0586-.1172-.03125-.10155-.04296-.0586-.08985-.0625-.08984v-.11719l.01563-.13281.10547-.04688.07421-.07031v-.1211l-.08984-.05859-.03125-.11719.08985-.05859.07421-.07422.04297-.10547.0586-.08984.04687-.10156.01563-.13281v-.14844l-.04688-.10547-.04297-.10156-.08984-.0586-.13281-.01562-.10157-.04297-.13671-.01563-.1172-.03125h-.4453l-.13282-.01562-.13281-.01172-.13281-.01563-.11719-.03125h-.14844l-.13281-.01562-.13281-.01172-.26563-.03125-.1211-.04297-.08593-.0586-.07422-.07421v-.14844l.01172-.13281.10547-.04688.10156-.04296.13281-.01563h.15235l.13281-.01562h.29297l.1211.03125.10156.04296.08984.0586.23438.0625.12109-.04688.08984-.05859.10156-.04297.13282-.01562.10547.04296.10156.04688.13281.01172.1211-.02735h.14453l.12109-.03125.11719-.02734.10547-.04687.07421-.07422.08594-.0586.14844-.14843.0586-.08594.04687-.10547.02734-.11719.01563-.10547-.10156-.04296-.08985-.0586-.11719-.03125-.10546-.04297-.08985-.0625-.07422-.08594-.07422-.07421-.10156-.04297-.10547-.04688-.10156-.04297-.0586-.08984-.04687-.10156-.08594-.21094-.0625-.08594-.05859-.08984-.07422-.07422-.08594-.0586h-.26953l-.11719.03126-.08984.05859-.10156.04297-.13281.01562-.10547-.01562-.02735-.11719-.0625-.08984-.11718-.03125-.10157-.04297-.14843-.14844-.03125-.11719-.01563-.10546.07422-.07422.17969-.1172.11719-.02733.11718-.03125.13672.01562.10156.04297.10547.04297.10156.04687.10547.04297.1172.03125.1328.01563.1172.02734.1328.01563.10547-.01563.08985-.0586-.07422-.07421-.10547-.04297-.07422-.07422-.07422-.08984-.14844-.14844-.08593-.0586-.08985-.05859-.07422-.07422-.08984-.0586-.10156-.04687-.1211-.02734-.10156-.04688-.10547-.04296-.11719-.03125-.10156-.04297-.1211-.03125h-.14843l-.11719.03125-.10546.04297-.08594.0625-.17969.11718-.08594.0586-.08984.0586-.10547.04687-.08594.05859-.10547.04297-.10156.04297-.10547.04687-.07422.07422-.05859.08985-.0586.08593-.04687.10547-.0586.08594-.07421.07422-.13281-.01172-.1172-.03125h-.11718l-.07422.07422-.08984.0586-.07422.07421-.08984.0586-.08594.05859-.10547.04687-.10156.04297-.13672.01563-.10156-.04297-.14844-.14844-.10547-.04688h-.08594l-.10547.04688-.10156.04297-.1211.03125-.11718-.03125-.07422-.07422v-.11719l.03125-.1211.07422-.0703.0586-.08985.07421-.07422.11719-.03125.10547-.04296h.29297l.13281-.01563.13672-.01563.10156-.04296.08985-.0586.10156-.04687.08984-.0586.13281-.01171.08985.05859.13281.01172.08984-.0586.08594-.05859.10547-.04297.08984-.0586.08594-.0625.08985-.05859.14843-.14843.0586-.08594.05859-.08985.10547-.04296.13281-.01563.11719.02735.1211.03125.05859-.0586.05859-.08984.03125-.26563.02734-.11719.10547.01172.13281.01563.10157-.04297.08984-.0586.0586-.08984.07421-.07422.0586-.08984.04687-.10156.01172-.13281-.01172-.13282-.04687-.10547-.14844-.14843-.0586-.08985-.05859-.08594-.04297-.10546v-.44532l.01563-.1328v-.14845l.01172-.1328-.0586-.0586-.08984.0586-.10156-.04298-.17969-.11719-.08594-.05859-.0625-.08984-.0586-.08985-.07421-.07421-.08594-.0586-.1211.03125-.10155.01172-.10547.04688-.08594.05859-.10547.04297-.14844.14844-.08984.05859-.08594.0586-.08984.0625-.10547.04296-.13281.01563v-.1211l.10547-.04297.11718-.03125.07422-.0703.04297-.10548v-.14844l-.02734-.11718-.14844-.14844-.13281-.01563h-.14844l-.11719.03125-.10547.04297-.10156.04297-.08984.0625-.11719.02735-.07422-.07422.01172-.13281-.04297-.10157-.04297-.10547-.08984-.05859-.11719.02734-.1211.03125-.11718.03125-.10156.04297-.1211.03125-.10156.04297-.10547.04297-.08984.0586-.10156.01562v-.11719l.01562-.13281-.0586-.08985-.07421.04297-.14844.14844-.0586.08985-.07421.07421-.04688.10547-.04296.10156-.07422.07422-.0586.08985-.07422.07422-.05859.08593-.07422.07422-.08984.0625-.07422.07031-.07422.07422-.10156.01563-.13281.01562-.10547-.04296v-.1211l.14843-.14844.04297-.10156.0586-.08984.04687-.10156.04297-.10547.0586-.08985.03124-.11719.04297-.10156.03125-.1211.02735-.11718.04687-.10547.04297-.10156.04297-.10547.07422-.07031.08984-.0625.08985-.0586.10156-.04296h.29687l.26563-.03125.10547-.04297-.07422-.07422-.11719-.03125-.10547-.04297-.08984-.0586-.10156-.04687-.08985-.0586-.10156-.04296-.10547-.04297-.08984-.0625-.08594-.0586-.10547-.04296-.10156-.04297-.1211-.03125-.11718-.03125-.10157-.04297L297.5 410.25l-.10156-.04297-.08985-.0586-.04296-.10546-.01563-.13281.10156-.04297.13281-.01563.13672.01563.13282-.01563.10156-.04297.0586-.08984.01562-.10547-.08985-.0586-.07421-.07421-.10157-.04297-.08984-.0586-.14844-.14843-.04297-.10547-.01562-.13281v-.29297l-.0586-.08985-.08984-.05859-.07422-.07422-.04297-.10547-.03125-.11718-.0586-.08985-.07421-.07422-.11719-.02734-.07422-.07422-.08984-.0586-.08984-.0625-.08594-.05859-.07422-.07421-.0586-.08594-.04687-.10547-.08594-.0586-.14843-.14843-.19532-.0586-.1328.01563-.10157.04297-.07422.07422-.04688.10156-.04296.10547-.0586.08984-.0586.08594-.29687.29687-.08984.0586h-.08594l-.0625-.08594-.04297-.10547.03125-.11719.0586-.08984.02734-.11719-.01172-.13281-.08984-.0625-.10547.04688-.11719.02734-.11719.03125-.26953.17578-.10156.04688-.11719.02734-.10546.04687-.08985.0586-.10156.04297-.0586-.08594-.04687-.10547.01563-.13281.04687-.10547.07031-.07422.07422-.07031.0586-.08985v-.14843l-.04297-.10547h-.23829l-.10156.04687-.03125.11719-.02734.11719-.03125.1211-.07422.04296-.13281.01563-.07422-.04688-.04297-.10156-.04297-.10547-.04687-.10156-.04297-.10547-.1211.03125-.10156.04297-.13281.01562-.11719.03125-.10547.04297-.08984.0586-.10156.04687-.1211.02734-.13281.01563-.10156-.04297-.0586-.08985-.04687-.10546-.04297-.10157-.04297-.10546v-.1172l.0586-.08984.08593-.05859.17969-.11719.10156-.04687.10547-.04297.10547-.0586.10156-.04296.08985-.0625.10156-.04297.10547-.0586.10156-.04687.08984-.0586.10547-.04296.10156-.04297.08985-.0625.10156-.04297.13672-.01563.11719.03125.10156.04297.1211.03125.10156.04297.10546.04688.10157.04296.10547.04297.10156.04688.10547.04297.10156.04297.10547.04687.08594.0586.10546.04296.1172.03125.10546.04297.10156.04688.08985.0586.10547.04296.10156.04297.10547.04687.11719.02735.10156.04687.1211.02735h.14843l.08594-.0586.01562-.10156.0586-.08984-.02735-.1172-.07422-.07421-.11719-.17969-.07421-.07422-.08985-.07421-.17969-.1172-.08593-.05859-.10547-.04296-.10156-.04688-.26954-.17578-.05859-.08985-.07422-.07421-.0586-.08985-.04296-.10156-.03125-.11719-.01563-.13672v-.5625l-.01171-.1328-.01563-.13282-.03125-.11719-.01562-.13281-.01172-.13281-.03125-.1211-.22266-.22265-.0586-.08594-.01562-.10547.03125-.11719.13281-.01562v-91.41406H172.9922v1.45312l-.0586.23438-.35156 1.05078-.17187.52343-.1172.34766-.17577.41016-.11719.17187-.23438.29297-.23046.0586h-.35157l-.11718.05859-.23047.40625v.29297l.11719.17578.23046.23047.1172.23437.64062.75781.29297.46485.17578.23437.23047.35156.23437.34766.64063.8164.17578.46485.17187.41016.11719.69531.17578.46875.11719 1.39844.0586.46484v.875l.11718 1.04688v4.78125l-.0586.46484-.35156 1.28125-.17578.52344-.11328.41015-.35156.9297L172.93359 336l-.23437.58203-.11719.17578-.17187.34766-.17578.40625-.35157.8164-.0586.29297-.11327.29297-.11719.28906-.0586.17579-.11718.875-.0586.40625-.05859.11718-.0586.17579-.05859.17187-.23047.52734-.11718.17188v.23437l-.11719.23438-.0586.17187-.17577.58594v.28906l-.0586.17579v.29296l-.0586.11329-.05859.52734v.17187l-.05468.23438v2.6211l-.17578.8164-.1172.17578-.17577.23438-.1172.17187-.11327.23438-.58594.93359-.23047.28906-.29297.46485-.17578.23437-.28906.35156-.35156.69922-.11328.23047-.17579.41016-.17578.23046-.40625.52735-.8164.69922-.29297.17187-.28906.23438-.17579.11719-.17578.17578-.52344.40625-.52734.17578-.17187.17578-.23438.05469-.64062.17578h-.75782m12.21094 31.02344l-1.07422.44921.35938.89454 1.25-.71485.44531-.53906-.98047-.08985"/><path fill="#d3d3d3" fill-opacity="0" fill-rule="evenodd" d="M201.50781 416.59766h-.89453l.44922.6289.98047.35938.80469-.08985.4453-.98828-.17577.08985-.71485-.35547-.89453.35547m154.6211 59.0703l-.0586-.52343v-.29297l.11328-.29297.0586-.23046.46875-.46875h.11328l.11719-.11329.11718-.05859h.17579l.23437-.0586h.34766l.23437.0586.11719.0586.23047.17187.0586.17578.11718.58203v.29297l-.11719.17578-.17187.28906-.17579.17579-.52734.52343-.23047.23438-.11719.0586h-.17578l-.11718-.0586-.40625-.29297-.17579-.11719-.11718-.0586-.0586-.11327-.05468-.1172m6.64062-10.95702l-.0586-.17188v-1.10937l.0586-.17188.17578-.0586.17188-.05858h.17578l.23437-.0586.1172.0586.05858.69921-.05859.17188-.11719.17578-.11718.0586-.23438.52343-.11328.0586h-.23438l-.05859-.1172m9.61328-14.39062l-.11719-.17578v-.69922l.29297-.875.1172-.17187.17577-.35156.11328-.23047.1172-.29297.35155-.75781.1172-.23047.17187-.23438h.17578l.11719-.0586h.64062l.11719.0586.23437.23438.17188.11328.35156.29297.11719.11718.11328.17579v.11328l.11719.05859.11718.11719v.69922l-.05859.17578v.23047l-.0586.17578-.34765 1.05078-.11719.23047-.11719.23437-.11718.0586-.23047.23437-.64063.28906h-.875l-.41015-.11718-.64063-.46485"/><path fill="none" stroke="#bebebe" stroke-linecap="round" stroke-linejoin="round" stroke-miterlimit="10" stroke-width=".5" d="M467.95703 311.69531H144.02734v168.625h323.9297v-168.625"/><g clip-path="url(#a)"><path fill="#fff" fill-opacity="0" fill-rule="evenodd" d="M144 475.89063v4.4375h.0039H144V311.67188h.0039H144v164.21875"/></g><g clip-path="url(#b)"><path fill="#fff" fill-opacity="0" fill-rule="evenodd" d="M144.0039 480.32813V311.67188h35.50391v140.86328l-3.16797 1.16406-1.27343 1.5586-1.6875 2.8789-2.44532 4.4375 4.13282 2.26562 4.4414-.4375 4.4375-1.39843.51172-.4297 1.60938-4.4375-1.48828-4.4375-.63282-.51952-4.4375-.64453V311.67187h115.39453v103.29297l-4.4375 1.71094-1.64453 1.51563-2.79297 4.02343-.18359.41407.1836.18359 4.4375 2.60938 3.98827 1.64843.44922.44922 1.14063-.44922 3.30078-.3125 4.4375-2.4961 4.4375.82423 2.45703-2.45703-2.45703-2.47266-1.22266-1.96484-3.21484-3.19922-4.4375.8164-4.4414-.84375V311.67188h31.0703v109.05078l-1.85156 1.90625 1.85157 1.875v26.72656l-3.375 2.46875-1.0625 2.47265L320 458.13673l1.53516 3.1289 4.4375-1.97656.45312-1.15234 3.98438-2.78516 1.33984-1.65234-1.33984-1.24219-4.4375-1.22656V424.5039l2.62109-1.875-2.6211-1.90625V311.67187h8.875v101.81641l-.19921.26563.19922.21875.26171-.21875-.26171-.26563v-101.8164h53.26171V433.1328l-2.23046 2.8125 2.23046 2.21875 2.25391-2.21875-2.2539-2.8125V311.67187h79.88671v168.65625H144.00391"/></g><path fill="#50fcfc" fill-rule="evenodd" d="M175.0664 464.83984l-4.1328-2.26562 2.4453-4.4375 1.6875-2.8789 1.27344-1.5586 3.16797-1.16406v3.96875l-1.57031 1.6328 1.57031 1.9375 2.00781-1.9375-2.0078-1.6328v-3.96875l4.4375.64453.6328.51953 1.48829 4.4375-1.60938 4.4375-.51172.42969-4.4375 1.39843-4.4414.4375"/><path fill="#00e8fc" fill-rule="evenodd" d="M179.50781 460.07422l-1.57031-1.9375 1.57031-1.63281 2.00781 1.6328-2.0078 1.9375"/><path fill="#50fcfc" fill-rule="evenodd" d="M286.02734 422.8125l-.18359-.1836.1836-.41406 2.79296-4.02343 1.64453-1.51563 4.4375-1.71094 4.44141.84375 4.4375-.8164v1.85547l-3.38281 1.34375-1.05469.47265-4.30469-.47265-.13672-.02344-.03515.02344-4.40235 3.84375-.52343.59375.52343.32421 4.4375 2.54688 4.44141-.16406 3.35547-2.70703 1.08203-2.03516 1.34766-2.40234-1.34766-1.34375v-1.85547l3.21484 3.19922 1.22266 1.96484 2.45703 2.47266-2.45703 2.45703-4.4375-.82422-4.4375 2.4961-3.30078.3125-1.14063.44921-.44921-.44922-3.98829-1.64844-4.4375-2.60937"/><path fill="#00e8fc" fill-rule="evenodd" d="M290.46484 422.95313l-.52343-.32422.52343-.59375 4.40235-3.84375.03515-.02344.13672.02344 4.30469.47265v3.47266l-4.4414.42187-.07423.07032.07422.04687 4.44141.29297.41797-.33984-.41797-.4922v-3.47265l1.05469-.47265 3.38281-1.34375 1.34766 1.34375-1.34766 2.40234-1.08203 2.03516-3.35547 2.70703-4.4414.16406-4.4375-2.54688"/><path fill="#00d4fc" fill-rule="evenodd" d="M294.90234 422.67578l-.07421-.04687.07421-.07032 4.44141-.42187.41797.49219-.41797.33984-4.4414-.29297"/><path fill="#50fcfc" fill-rule="evenodd" d="M321.53516 461.26563L320 458.13671l1.53516-1.96485 1.0625-2.47265 3.375-2.46875 4.4375 1.22656 1.33984 1.24219-1.33984 1.65234-3.98438 2.78516-.45312 1.15234-4.4375 1.97656m4.4375-36.76171l-1.85157-1.875 1.85157-1.90625 2.62109 1.90625-2.6211 1.875m8.875-10.53125l-.19921-.21875.19922-.26563.26171.26563-.26171.21875m53.26171 24.1914l-2.23046-2.21875 2.23046-2.8125 2.25391 2.8125-2.2539 2.21875"/><g clip-path="url(#c)"><path fill="#fff" fill-opacity="0" fill-rule="evenodd" d="M467.9961 480.32813H468V311.67188h-.0039H468v168.65625h-.0039"/></g><g clip-path="url(#d)"><path fill="none" stroke="#000" stroke-linecap="round" stroke-linejoin="round" stroke-miterlimit="10" stroke-width=".5" d="M147.39453 481.23047l-6.78906-1.80078"/></g><g clip-path="url(#e)"><path fill="none" stroke="#000" stroke-linecap="round" stroke-linejoin="round" stroke-miterlimit="10" stroke-width=".5" d="M146.40625 480.96875l.28125 1.1914"/></g><g clip-path="url(#f)"><path fill="none" stroke="#000" stroke-linecap="round" stroke-linejoin="round" stroke-miterlimit="10" stroke-width=".5" d="M160.35547 482.08594l-6.08203-3.51563"/></g><g clip-path="url(#g)"><path fill="none" stroke="#000" stroke-linecap="round" stroke-linejoin="round" stroke-miterlimit="10" stroke-width=".5" d="M173.73047 481.98438l-6.19922-3.3125"/></g><g clip-path="url(#h)"><path fill="none" stroke="#000" stroke-linecap="round" stroke-linejoin="round" stroke-miterlimit="10" stroke-width=".5" d="M187.16016 481.74219l-6.4297-2.82813"/></g><g clip-path="url(#i)"><path fill="none" stroke="#000" stroke-linecap="round" stroke-linejoin="round" stroke-miterlimit="10" stroke-width=".5" d="M200.45313 481.79688l-6.38672-2.9336"/></g><g clip-path="url(#j)"><path fill="none" stroke="#000" stroke-linecap="round" stroke-linejoin="round" stroke-miterlimit="10" stroke-width=".5" d="M213.90625 481.44531l-6.66016-2.23437"/></g><g clip-path="url(#k)"><path fill="none" stroke="#000" stroke-linecap="round" stroke-linejoin="round" stroke-miterlimit="10" stroke-width=".5" d="M212.9375 481.1211l.19922 1.21093"/></g><g clip-path="url(#l)"><path fill="none" stroke="#000" stroke-linecap="round" stroke-linejoin="round" stroke-miterlimit="10" stroke-width=".5" d="M227.33203 481.04297l-6.88281-1.42969"/></g><g clip-path="url(#m)"><path fill="none" stroke="#000" stroke-linecap="round" stroke-linejoin="round" stroke-miterlimit="10" stroke-width=".5" d="M226.32813 480.83594l.34375 1.17578"/></g><g clip-path="url(#n)"><path fill="none" stroke="#000" stroke-linecap="round" stroke-linejoin="round" stroke-miterlimit="10" stroke-width=".5" d="M240.0586 482.3789l-5.70704-4.10156"/></g><g clip-path="url(#o)"><path fill="none" stroke="#000" stroke-linecap="round" stroke-linejoin="round" stroke-miterlimit="10" stroke-width=".5" d="M253.58984 482.04297l-6.13672-3.42578"/></g><g clip-path="url(#p)"><path fill="none" stroke="#000" stroke-linecap="round" stroke-linejoin="round" stroke-miterlimit="10" stroke-width=".5" d="M266.71875 482.33594l-5.76563-4.01563"/></g><g clip-path="url(#q)"><path fill="none" stroke="#000" stroke-linecap="round" stroke-linejoin="round" stroke-miterlimit="10" stroke-width=".5" d="M280.05078 482.3164l-5.79687-3.97265"/></g><g clip-path="url(#r)"><path fill="none" stroke="#000" stroke-linecap="round" stroke-linejoin="round" stroke-miterlimit="10" stroke-width=".5" d="M293.69922 481.70313l-6.46485-2.75"/></g><g clip-path="url(#s)"><path fill="none" stroke="#000" stroke-linecap="round" stroke-linejoin="round" stroke-miterlimit="10" stroke-width=".5" d="M306.55469 482.48438l-5.55078-4.3086"/></g><g clip-path="url(#t)"><path fill="none" stroke="#000" stroke-linecap="round" stroke-linejoin="round" stroke-miterlimit="10" stroke-width=".5" d="M320.23438 481.91016l-6.27344-3.16407"/></g><g clip-path="url(#u)"><path fill="none" stroke="#000" stroke-linecap="round" stroke-linejoin="round" stroke-miterlimit="10" stroke-width=".5" d="M333.57422 481.86328l-6.32422-3.0664"/></g><g clip-path="url(#v)"><path fill="none" stroke="#000" stroke-linecap="round" stroke-linejoin="round" stroke-miterlimit="10" stroke-width=".5" d="M346.97656 481.66406l-6.5-2.66797"/></g><g clip-path="url(#w)"><path fill="none" stroke="#000" stroke-linecap="round" stroke-linejoin="round" stroke-miterlimit="10" stroke-width=".5" d="M360.27734 481.69531l-6.47265-2.73437"/></g><g clip-path="url(#x)"><path fill="none" stroke="#000" stroke-linecap="round" stroke-linejoin="round" stroke-miterlimit="10" stroke-width=".5" d="M372.99219 482.65234l-5.26953-4.64843"/></g><g clip-path="url(#y)"><path fill="none" stroke="#000" stroke-linecap="round" stroke-linejoin="round" stroke-miterlimit="10" stroke-width=".5" d="M384.69531 480.32813l-.01953-.19922-.0586-.19141-.09765-.17578-.45703-.3789-.1914-.0586-.19923-.01953-.19921.01953-.19141.0586-.46094.3789-.09375.17578-.0586.1914-.01952.19923.01953.19921.0586.19141.09374.17969.46094.375.1914.0586.19923.01952.19921-.01953.19141-.0586.45703-.375.09766-.17968.0586-.1914.01952-.19922"/></g><g clip-path="url(#z)"><path fill="none" stroke="#000" stroke-linecap="round" stroke-linejoin="round" stroke-miterlimit="10" stroke-width=".5" d="M393.78125 478.89063l6.41016 2.875"/></g><g clip-path="url(#A)"><path fill="none" stroke="#000" stroke-linecap="round" stroke-linejoin="round" stroke-miterlimit="10" stroke-width=".5" d="M413.59375 479.10156l-6.58594 2.45313"/></g><g clip-path="url(#B)"><path fill="none" stroke="#000" stroke-linecap="round" stroke-linejoin="round" stroke-miterlimit="10" stroke-width=".5" d="M412.63672 479.45703l.91797.8164"/></g><g clip-path="url(#C)"><path fill="none" stroke="#000" stroke-linecap="round" stroke-linejoin="round" stroke-miterlimit="10" stroke-width=".5" d="M426.79688 478.83594l-6.36329 2.98437"/></g><g clip-path="url(#D)"><path fill="none" stroke="#000" stroke-linecap="round" stroke-linejoin="round" stroke-miterlimit="10" stroke-width=".5" d="M425.8711 479.26953l.98046.73828"/></g><g clip-path="url(#E)"><path fill="none" stroke="#000" stroke-linecap="round" stroke-linejoin="round" stroke-miterlimit="10" stroke-width=".5" d="M440.01563 482.01563l-6.16797-3.3711"/></g><g clip-path="url(#F)"><path fill="none" stroke="#000" stroke-linecap="round" stroke-linejoin="round" stroke-miterlimit="10" stroke-width=".5" d="M453.4961 481.66797l-6.5-2.67578"/></g><g clip-path="url(#G)"><path fill="none" stroke="#000" stroke-linecap="round" stroke-linejoin="round" stroke-miterlimit="10" stroke-width=".5" d="M466.59375 482.10156l-6.0664-3.54687"/></g><g clip-path="url(#H)"><path fill="none" stroke="#000" stroke-linecap="round" stroke-linejoin="round" stroke-miterlimit="10" stroke-width=".5" d="M147.10547 468.65625l-6.21094-3.28516"/></g><path fill="none" stroke="#000" stroke-linecap="round" stroke-linejoin="round" stroke-miterlimit="10" stroke-width=".5" d="M146.20313 468.17969v1.22656m14.33984-1.00781l-6.45703-2.76953m5.51953 2.36718l.10156 1.22266m14.03906-.58203l-6.23437-3.2461m5.32812 2.77344l.01172 1.22656m14.4375-1.29687l-6.6875-2.16016m5.71485 1.84766l.21484 1.20703m14.13672-1.11328l-6.8125-1.72266m5.82031 1.47266l.29297 1.1914M214 467.79689l-6.85156-1.56641m5.85547 1.33984l.3203 1.1836m13.95313-.8086l-6.77343-1.86328m5.78906 1.59375l.26562 1.19531m13.89844-.53125l-6.5039-2.65234m5.55859 2.26953l.125 1.21875m13.97266-.48828l-6.17579-3.34766m5.27735 2.86328l-.01172 1.22657m14.13281-.57813l-5.99219-3.67578m5.1211 3.14063l-.07813 1.22265m14.40625-.94922l-6.27734-3.15234m5.36328 2.69531l.03125 1.22656m14.28516-.94921l-6.44922-2.79297m5.51172 2.38672l.09765 1.22265m14.4414-2.14453l-7.02343-.13672m6.0039.11719l.55079 1.09375m13.7539-1.61719l-6.96484.94922m5.94922-.8086l.71875.9922m13.64063-.54688l-7.02344-.22266m6.0039.19141l.53907 1.09766m13.73828-.53516l-6.90625-1.28516m5.90234 1.09766l.36719 1.17188m14.0039-1.42188l-7.01171-.41016m5.99218.35157l.51172 1.11718m13.59766-2.51953l-6.5625 2.51172m5.60937-2.14844l.92579.8086m13.01171-1.82422l-5.89843 3.8164m5.03906-3.26171l1.07422.59765m10.21875 4.26953l-.13672-7.02734m.11719 6.0039l-1.07032.59766m17.58594-1.7539l-6.5-2.66797m5.55469 2.28125l.1211 1.21875m14.24218-3.22266l-6.70312 2.11328m5.72656-1.80468l.875.85937m13.57812-.00781l-7.02734-.20703m6.0039.17578l.54297 1.10156m13.36329.51563l-6.16407-3.37891m5.26563 2.88672l-.01172 1.22656m14.17578-.65234l-6.0664-3.54297m5.18359 3.02734l-.04688 1.22656"/><g clip-path="url(#I)"><path fill="none" stroke="#000" stroke-linecap="round" stroke-linejoin="round" stroke-miterlimit="10" stroke-width=".5" d="M147.03125 455.47266l-6.0625-3.55078"/></g><path fill="none" stroke="#000" stroke-linecap="round" stroke-linejoin="round" stroke-miterlimit="10" stroke-width=".5" d="M146.14844 454.95703l-.05078 1.22656m14.3125-.82421l-6.19141-3.32422m5.29297 2.83984l-.00781 1.23047m14.52734-1.53125l-6.80469-1.7539m5.8164 1.5l.28517 1.1914m14.04687-1.04688l-6.85938-1.53515m5.85938 1.3125l.32813 1.1836m14.05468-1.39063l-6.9961-.67579m5.97657.57813l.47266 1.13281m13.70703-.29297l-6.6875-2.15625m6.6875 2.15625l.4336 2.41407m13.05077-3.46485l-7.02343-.05469m7.02343.0547l1.13672 2.17187m12.17969-2.22657l-7.02734.0547m7.02734-.0547l1.16797 2.15625m12.14453-2.21875l-7.02344.1797m7.02344-.1797l1.20703 2.13672m12.01953-1.25l-6.84375-1.59375m5.84766 1.35938l.3164 1.1875m13.51563.16797l-5.88672-3.83594m5.03125 3.27734l-.10937 1.22266m14.24218-.60547l-5.80859-3.95312m4.96094 3.3789l-.13281 1.21875m14.90234-2.55469l-7.02344-.1328m6.0039.11327l.5547 1.09375m13.64453-.17578l-6.75391-1.92969m5.77344 1.64844l.2539 1.19922m14.14844-2.33594l-6.96875.90235m5.95703-.76953l.71094 1m13.46875-1.78516l-6.67187 2.21094m5.69921-1.89063l.88672.84766m13.15235-1.74219l-6.17578 3.35547m5.27734-2.86719l1.02344.67969m13.27343-1l-6.34375 3.02344m5.42188-2.58594l.98437.73047m13.59375.27344l-7.02343.13671m6-.11718l.59765 1.07422m11.92578-4.10157l-3.39453 6.15235m15.23438.42968l-.44531-7.01171m.4453 7.01171l-2.08593 1.28907m18.40625-3.41016l-6.45703-2.76953m5.51953 2.36719l.10156 1.22265m13.8086-.19922l-5.76953-4.01171m5.76953 4.01171l-.28907 2.4375m13.38282-2.15234l-5.32813-4.57812m4.55469 3.91015l-.26953 1.19922m13.26953.32031l-3.15234-6.28125m2.6953 5.3672l-.71093 1"/><g clip-path="url(#J)"><path fill="none" stroke="#000" stroke-linecap="round" stroke-linejoin="round" stroke-miterlimit="10" stroke-width=".5" d="M147.23438 441.7539l-6.46875-2.73827"/></g><path fill="none" stroke="#000" stroke-linecap="round" stroke-linejoin="round" stroke-miterlimit="10" stroke-width=".5" d="M146.29297 441.35547l.10937 1.21875m13.94141-.41016l-6.0586-3.5586m5.1797 3.03907l-.0547 1.22656m14.04298-.39453l-5.64844-4.1836m4.82812 3.57423l-.1836 1.21093m14.35938-.66015l-5.72656-4.07031m4.89453 3.48046l-.16015 1.21485m14.43359-.8125l-5.97656-3.69531m5.10547 3.16015l-.08203 1.22266m14.78906-2.41406l-7.02344-.23829m7.02344.23829l1.07812 2.20312m12.23828-2.30078l-7.02343-.04297m7.02343.04297l1.14063 2.17188m12.17578-2.09375l-7.02344-.19922m7.02344.19922l1.08984 2.19921m12-3.53906l-6.57422 2.48047m6.57422-2.48047l1.83985 1.6211m11.41015-1.78125l-6.4453 2.79687m6.4453-2.79688l1.91797 1.53125m11.36719-1.59375l-6.38672 2.92579m5.45703-2.5l.97656.74218m13.58204.08204l-7.01563.42187m7.01563-.42188l1.28125 2.09375m12.03906-2.01562l-7.02344.26563m6-.22657l.61719 1.0586m13.33984-2.5625l-6.26172 3.1953m5.35157-2.73046l1.0039.70313m12.57422-2.0547l-4.96875 4.96876m4.2461-4.2461l1.17578.35938m13.0078-.92969l-5.2578 4.66406m4.49218-3.98437l1.14844.42969m12.60156-1.4336l-4.59765 5.3125m3.92968-4.53906l1.19532.27344m11.21093-1.82813l-1.4453 6.875m1.23437-5.875l1.17968-.33984m9.31641.1289l4.61719 5.29688m-3.94531-4.52344l.4375-1.14844m11.33203 4.51563l6.36328-2.98047m12.41406 4.16016l-4.5625-5.34375m3.89844 4.5664l-.44922 1.14063m11.64453.4414l1.00781-6.95312m-.86328 5.9414l-1.15234.41407m16.82031.01172l-3.99219-5.78125m3.9922 5.78125l-1.125 2.17969m15.89843-5.72657l-6.90235 1.3125m5.89844-1.1211l.76563.95704m12.25 2.28906l-4.29688-5.5586m3.67188 4.75l-.5039 1.1172"/><g clip-path="url(#K)"><path fill="none" stroke="#000" stroke-linecap="round" stroke-linejoin="round" stroke-miterlimit="10" stroke-width=".5" d="M146.71094 429.30078l-5.42188-4.46484"/></g><path fill="none" stroke="#000" stroke-linecap="round" stroke-linejoin="round" stroke-miterlimit="10" stroke-width=".5" d="M145.92188 428.65234l-.2422 1.20313M160.25 429l-5.86719-3.86328m5.01172 3.30078l-.11328 1.22266m13.79297-.06641l-4.88672-5.05078m4.17578 4.3164l-.3789 1.16407m13.8828-.01172l-3.84374-5.88672m3.28515 5.03125l-.59375 1.07422m15.84766-1.96485l-6.60547-2.39453m6.60547 2.39453l.34375 2.4297m13.16016-4.01954l-6.98438.78516m6.98438-.78516l1.38672 2.02344m11.85546-.8164l-6.83593-1.62891m5.83984 1.39062l.3125 1.1875m12.96875.8125l-4.77734-5.15234m4.08203 4.40234l-.40235 1.16016m15.41016-3.92578l-6.77344 1.8789m5.78906-1.60547l.84375.89063m12.65625-2.60156l-5.17578 4.7539m4.42578-4.0625l1.15625.41016m12.78125-1.23438l-4.91796 5.01954m4.20312-4.28907l1.17578.34375m7.51953 3.45313l5.75391-4.03516m13.26172-.07422l-5.64844 4.1836m19.3711-3.47266l-6.46485 2.76172m5.52344-2.35938l.95703.76954m11.3125-3.07813l-2.48828 6.57422m2.48828-6.57422l2.4336-.3086m12.28515 1.28907l-5.30078 4.61328m4.53125-3.9414l1.14453.4375m9.8789-2.29297l.82423 6.98046m-.70313-5.96484l1.00781-.69922m9.36328 1.80078l6.46875 2.7461m-5.52734-2.34766l-.10547-1.22266m13.86328-.78906l3.69922 5.97266m-3.16015-5.10547l.61718-1.0586m13.8789 6.6875l.26173-7.01953m-.22266 6l-1.10547.53516m15.78907.2461l-2.5547-6.54297m2.1836 5.59375l-.80078.92968m12.69922.22266l1.02344-6.94922m15.05859 6.16797l-4.51172-5.38672m4.51172 5.38672l-.92578 2.27734m15.27734-6.19531l-6.58593 2.44922m5.6289-2.09375l.91797.8125m13.26172 1.50781l-6.40234-2.90234m5.47265 2.48047l.07813 1.22265"/><g clip-path="url(#L)"><path fill="none" stroke="#000" stroke-linecap="round" stroke-linejoin="round" stroke-miterlimit="10" stroke-width=".5" d="M146.94922 415.66406l-5.89844-3.82031"/></g><path fill="none" stroke="#000" stroke-linecap="round" stroke-linejoin="round" stroke-miterlimit="10" stroke-width=".5" d="M146.08984 415.10547l-.10547 1.22265m13.63282.08204l-4.60156-5.3125m3.92968 4.53906l-.4414 1.14453m13.76562.07813l-3.27734-6.21485m2.80078 5.3125l-.6914 1.01563m15.6875-1.15625l-5.6875-4.125m5.6875 4.125l-.33985 2.42968m12.32422-1.3203l-3.02735-6.34376M198.33203 416l-.72656.98828m15.20703-.52344l-4.47266-5.42187m3.82032 4.63281l-.46875 1.13281m12.79687-6.51562l-1.19531 6.92187m12.98828-.0703l1.84766-6.78126m-1.84766 6.78125l-2.39453.53906m17.71875-.58984l-2.16797-6.6836m1.85156 5.71485l-.85156.8789m12.54688.16016l1.69921-6.82031m15.40235 1.47656l-5.8711 3.86328m5.01563-3.30078l1.07812.58985m13.5625 1.64453l-6.8125-1.72656m5.82032 1.47656l.29296 1.1914m8.77735-4.80468l3.66406 5.99609m14.9375-3.63672l-6.91016 1.28125m5.90625-1.09375l.76172.96094m9.36328-3.94531l1.47657 6.87109m-1.26172-5.8711l.9414-.78906m14.94922.375l-4.10156 5.70313m3.5039-4.875l1.21485.16406m10.9336-1.64453l-.57422 7.0039m.49218-5.98437l1.125-.48437m13.65235 6.05859l-3.33594-6.1836m2.85156 5.28516l-.67969 1.02344m11.81641-6.58594l1.99219 6.73828m-1.70313-5.7578l.875-.85938m11.66016.0664l2.97266 6.36719M395.5 410.57031l1.47266-1.96093m11.05468 2.46484l4.54688 5.35937m-4.54688-5.35937l.90625-2.28125m17.84375 6.4961l-6.3203-3.07032m5.39843 2.6211l.04687 1.22656m14.54297-2.3125h-7.02734m6.0039 0L440 414.83594m13.7461-1.38281l-7 .60156m5.98437-.51172l.66406 1.02734m10.16797-4.33203v7.02735"/><g clip-path="url(#M)"><path fill="none" stroke="#000" stroke-linecap="round" stroke-linejoin="round" stroke-miterlimit="10" stroke-width=".5" d="M147.5 400.75l-7-.625"/></g><path fill="none" stroke="#000" stroke-linecap="round" stroke-linejoin="round" stroke-miterlimit="10" stroke-width=".5" d="M146.48047 400.66016l.47656 1.1289m13.64453-.10937l-6.57422-2.48438m5.6172 2.125l.15624 1.21485m13.94922-.47657l-6.23828-3.23828m5.32812 2.76563l.01172 1.22656m14.52344-1.61328l-6.85938-1.51953m5.86329 1.29687l.32812 1.1836m7.94531-4.07422l5.21875 4.70703m-4.46093-4.02344l.29687-1.1914m11.3789 3.27343l6.98048-.82812m-6.98047.82812l-1.39844-2.01562m14.72656 1.08984l6.95313 1.02344m-6.95313-1.02344l-.82422-2.3086m18.98828 6.0547l-2.74218-6.46875m2.33984 5.52734l-.76953.95312m14.16016.10938l-2.09375-6.70703m1.78906 5.73047l-.85938.87109m16.83985-2.38672l-6.8125-1.72656m5.82031 1.47656l.29297 1.1914m13.7461-3.3828l-6.27735 3.16015m5.36328-2.69922l1.0039.70703m11.51563 3.6211l-2.85937-6.42188m2.85937 6.42188l-1.51172 1.9336m16.2539-7.19142l-5.71093 4.09766m4.8789-3.5039l1.10157.54687m11.66797 4.09375l-2.95703-6.375m2.52734 5.44922l-.74219.97656m15.90235-5.23047l-5.78906 3.98438m5.78906-3.98438l2.17578 1.13281m9.61328-2.375l-2.73437 6.47266m2.33593-5.53125l1.22266-.10937m8.83984-.26563l4.57032 5.33594m-3.90625-4.5586l.44921-1.14453m17.5547 4.7422l-6.14063-3.41407m17.5078-1.6211l-2.24218 6.66016m2.24219-6.66015l2.41797-.40235m9.79297.21875l-.03516 7.02735m.03516-7.02735l2.17187-1.14062M397 397.9453l1.08594-.57031m11.02344-.24219l2.38671 6.60938m-2.03906-5.64844l.82031-.90625m11.20313 6.04297l4.26953-5.58203m14.26563 4.46875l-6.16797-3.35938m5.27343 2.8711l-.01562 1.22656m14.58203-1.70313l-6.8789-1.42968m5.875 1.22265l.34374 1.17969m11.89063-4.92969l-2.71094 6.48438m2.3164-5.53906l1.21876-.11329"/><g clip-path="url(#N)"><path fill="none" stroke="#000" stroke-linecap="round" stroke-linejoin="round" stroke-miterlimit="10" stroke-width=".5" d="M146.94531 385.20703l-5.89062 3.83203"/></g><path fill="none" stroke="#000" stroke-linecap="round" stroke-linejoin="round" stroke-miterlimit="10" stroke-width=".5" d="M146.08984 385.76563l1.07032.59375m13.10937 2.66796l-5.90625-3.80859m17.51563 5.1875l-2.4961-6.5664m17.52735 5.17187l-5.9297-3.77344m5.06642 3.22266l-.09766 1.22265m13.16797-5.54296l-3.71485 5.96484m3.17578-5.09766l1.22266.08203m11.73047-1.34765l-1.91016 6.76172m1.91016-6.76172l2.39844-.51953m12.24219 6.5703l-4.5625-5.33983m3.89843 4.5625l-.44922 1.14453m14.71875-5.4297l-5.14453 4.78907m4.39453-4.09375l1.16016.39844m13.28516 3.20703l-5.90235-3.8125m5.04297 3.25781l-.10547 1.21875m14.8086-2.09765l-6.96094-.94922m6.96094.94922l.84765 2.30078m12.45313-3.35156l-6.9336 1.15234m5.92579-.98438l.74609.97266m13.60156-.16016l-6.98047-.80859m5.96485.6914l.4453 1.14454m13.63282-2.79688l-6.47656 2.73047m5.53516-2.33203l.94921.77344m13.53516-.375l-6.9336 1.13672m6.9336-1.13672l1.48828 1.95312m11.3164-3.28125l-5.91405 3.79297m5.91406-3.79297l2.14062 1.20313m10.33594-2.10938l-4.23828 5.60547m4.23828-5.60547l2.42578.39063m11.7461.54297l-5.94922 3.73828m5.08203-3.19531l1.0664.61328m13.26954-.88282l-6.25782 3.19141m6.25782-3.1914l2.01171 1.40624m9.47266-3.07421l-2.59375 6.53125m2.59375-6.53125l2.4375-.27344m9.9375.04297l-.71484 6.98828m.71484-6.98828l2.27344-.92579m11.86328 1.10938l-2.35938 6.6211m2.35938-6.6211l2.42969-.35547m10.99218.39844l-2.57421 6.53906m2.19921-5.58984l1.21875-.13672m11.73829-1.01563l-1.10547 6.94141m16.14843-.80078l-4.5625-5.33985m3.89844 4.5625l-.44922 1.14454m15.35938-1.6172l-6.42578-2.83983m5.49218 2.42578l.08985 1.22656"/><g clip-path="url(#O)"><path fill="none" stroke="#000" stroke-linecap="round" stroke-linejoin="round" stroke-miterlimit="10" stroke-width=".5" d="M146.54688 371.38672l-5.09375 4.84375"/></g><path fill="none" stroke="#000" stroke-linecap="round" stroke-linejoin="round" stroke-miterlimit="10" stroke-width=".5" d="M146.54688 371.38672l2.32812.77734m11.63281.17188l-6.38281 2.9414m5.45313-2.51171l.97656.74218m10.77734 3.74219l-1.40625-6.88281m1.20313 5.88281l-.94532.78125m14.45313.22266l-1.38281-6.89063m1.18359 5.88672l-.94922.77734m17.22266-3.89062l-6.89844 1.34375m6.89844-1.34375l1.54297 1.90625m10.26562-4.16016l-3.89062 5.85156m3.89062-5.85156l2.4414.23828m12.44141 2.70313l-7.02734-.03125m7.02734.03125l1.14453 2.17187m11.78516-3.79296l-6.25 3.21093m6.25-3.21094l2.01172 1.39844m-2.92188-.9336l1.00782.70313m12.79297-1.80859l-5.40625 4.49219m5.40625-4.49219l2.26953.92969m-3.05469-.27735l1.13281.46485m13.02344-1.05078l-5.51563 4.35937m5.51563-4.35937l2.2461.98437m-3.05079-.35156l1.125.4961m13.7461.92187l-7.01954.25781m7.01954-.25781l1.23046 2.125m12.08594-2.125l-7.02344.25781m7.02344-.25781l1.23047 2.1211m12.05078-2.50392l-6.95312 1.02344m6.95312-1.02344l1.45313 1.97266m11.83984-2.10937l-6.91016 1.29687m6.91016-1.29687l1.53125 1.91796m-2.53906-1.73046l.76562.96093m13.41016-1.6875l-6.61719 2.3711m6.61719-2.3711l1.8164 1.65235m11.53907-1.52344l-6.69922 2.11719m6.69922-2.11719l1.7539 1.71484m-2.72656-1.40625l.875.85547m13.3125-1.44531l-6.4961 2.67969m6.4961-2.67969l1.89063 1.5625m11.35156-1.72656l-6.35156 3.00781m6.35156-3.00781l1.96875 1.46484m10.66797-2.4336l-4.9961 4.94532m4.9961-4.94531l2.34375.73047m9.8711-1.48047l-2.79298 6.44531m2.79297-6.44531l2.44531-.19531m-2.85156 1.1328l1.22266-.09765m12.5-.83984l-2.79297 6.44531m2.79297-6.44531l2.44531-.19922m10.35938.02344l-1.77344 6.79687m1.77344-6.79687l2.38671-.57032m10.66797.51172l-1.2539 6.91406m1.07422-5.91015l1.16796-.3711m10.92579 6.25l1.54687-6.85546m10.3086 6.14062l4.46874-5.42187m-3.8203 4.6328l-1.19923-.24218"/><g clip-path="url(#P)"><path fill="none" stroke="#000" stroke-linecap="round" stroke-linejoin="round" stroke-miterlimit="10" stroke-width=".5" d="M146.98047 358.63281l-5.96094 3.71875"/></g><path fill="none" stroke="#000" stroke-linecap="round" stroke-linejoin="round" stroke-miterlimit="10" stroke-width=".5" d="M146.98047 358.63281l2.125 1.22656m9.76562-2.51562l-3.11328 6.29688m2.66016-5.37891l1.22656-.03906m7.59375 1.35937l6.78516 1.82031m-5.80078-1.55468l-.27344-1.19532m15.66797 5.33985l.65625-6.9961m-.5586 5.97657l-1.1328.47265m13.0039.13672l3.35156-6.17578m-2.86719 5.27734l-1.22656-.01171m18.46094-4.39063l-5.46094 4.42188m4.66797-3.77735l1.1289.47656m13.32813-.60156l-6.15625 3.38672m6.15625-3.38672l2.05469 1.33985m-2.94922-.84766l1.02734.67187m12.76563-1.76562l-5.32422 4.58594m5.32422-4.58594l2.28515.89062m-3.05859-.22265l1.14063.44531m12.24218-1.73828l-3.91406 5.83594m3.91406-5.83594l2.4414.25m-3.01171.60156l1.22266.125m11.47656-1.48437l-1.54297 6.85546m1.54297-6.85546l2.36719-.64844m12.38671 1.34375l-4.41796 5.46094m4.41797-5.46094l2.41015.46875m12.17188 1.75l-6.95313 1.02344m6.95313-1.02344l1.45703 1.97656m11.82812-.77344l-6.89062-1.3789m5.88672 1.17578l.35156 1.17578m13.97656-2.30469l-6.91015 1.28125m5.90625-1.09375l.76171.96094m13.32032-1.91406l-6.4375 2.8125m6.4375-2.8125l1.92578 1.52344m11.64453-.65235l-6.94531 1.07031m6.9453-1.0703l1.46876 1.96874m11.59375-2.83594l-6.4414 2.8086m6.4414-2.8086l1.92187 1.52735m10.88672-2.35938l-5.42578 4.46875m4.63281-3.8164l1.13672.46875m12.67578-1.4336l-4.83593 5.09766m4.83593-5.09766l2.36329.65625m10.73828-.84375l-4.41016 5.46875m4.41016-5.46875l2.41015.46485m8.84766-1.23829l-.29297 7.01954m.29297-7.01954l2.21094-1.0625m12.10547 1.25l-2.30079 6.64063m1.96875-5.67188l1.21094-.1914m12.42578-.78125l-2.27734 6.64844m2.27734-6.64844l2.42188-.38672m11.65234.7539l-3.79687 5.91407m3.24609-5.05078l1.22266.09765m10.6328-1.51562l.22657 7.02344m-.19531-6l1.0625-.61329"/><g clip-path="url(#Q)"><path fill="none" stroke="#000" stroke-linecap="round" stroke-linejoin="round" stroke-miterlimit="10" stroke-width=".5" d="M147.24219 345.82813l-6.48438 2.69921"/></g><path fill="none" stroke="#000" stroke-linecap="round" stroke-linejoin="round" stroke-miterlimit="10" stroke-width=".5" d="M146.30078 346.22266l.94531.77734m12.30078-2.53516l-4.46093 5.4297m4.46094-5.4297l2.40234.48438m-3.05469.30469l1.20313.24218m13.97265.96094l-6.8789 1.44531m6.8789-1.4453l1.57031 1.8828m-2.57421-1.67578l.78906.9414m12.57812 2.0547l-4.97656-4.96485m4.97656 4.96485l-.71484 2.34765m-.00781-3.07031l-.35938 1.17188m14.40235-.45704l-4.98828-4.94921m4.98828 4.94921L199.04688 352m14.91406-5.75781l-6.77344 1.8711m6.77344-1.8711l1.6875 1.78125m-2.67188-1.50781l.84375.89062m12.72656-2.52734l-5.3125 4.59765m5.3125-4.59765l2.28907.8828m-3.0625-.21483l1.14453.4414m11.82812-1.96875l-3.08203 6.3164m3.08203-6.3164l2.45313-.08203m9.9961-.20703l-1.34766 6.89453m1.34765-6.89453l2.34766-.71485m9.9336.66797l.71874 6.98829m-.61328-5.97266l1.01563-.6836m13.83593-.10937l-2.5664 6.54297m18.07422-2.76172l-6.95313-1.01953m5.9414.8711l.41407 1.15624m13.94922-1.41406l-7.02344-.20703m7.02344.20703l1.08594 2.20313m-2.10938-2.23047l.54297 1.09765m13.79688-1.26172l-7.02735.1797m7.02735-.1797l1.20703 2.13672m-2.23047-2.11328l.60547 1.07031m13.52734-2.1914l-6.61719 2.3711m6.61719-2.3711l1.8164 1.65234m10.40626-3.1914l-4.4336 5.44921m3.78907-4.65625l1.20312.23438m11.22656-1.75l-1.3711 6.89453m1.17188-5.89063l1.17188-.35546m9.20703.28125l4.89844 5.03515m-4.1836-4.30469l.375-1.16796m13.95313-.48438l1.44531 6.8789m-1.23437-5.8789l.9414-.78515m15.38672.7578l-5.0039 4.9336m4.27343-4.21484l1.17188.36719m11.74219-1.85547l-2.7422 6.47265m2.7422-6.47265l2.4453-.21485m9.53907-.0625l-.08203 7.02735m.08203-7.02735l2.17969-1.125m10.52344 1.17188l1.14453 6.9336m-.98047-5.92579l.97656-.74219m15.3164.80469l-5.13671 4.79297m4.38672-4.09766l1.16015.40235m13.64063.10546l-6.60938 2.38672m5.64844-2.03906l.90625.82422"/><g clip-path="url(#R)"><path fill="none" stroke="#000" stroke-linecap="round" stroke-linejoin="round" stroke-miterlimit="10" stroke-width=".5" d="M146.89844 331.875l-5.79688 3.97656"/></g><path fill="none" stroke="#000" stroke-linecap="round" stroke-linejoin="round" stroke-miterlimit="10" stroke-width=".5" d="M146.05469 332.45313l1.08594.5703m12.97656-1.28124l-5.60156 4.24219m5.60156-4.2422l2.22656 1.03126m-3.04297-.41406l1.11328.51562m13.60938.08203l-6.78906 1.8125m6.78906-1.8125l1.67187 1.79688m-2.66015-1.53516l1.67187 1.79688m12.7461-.95313l-7.01563-.39844m7.01563.39844l1.02734 2.23047m-2.04688-2.28906l1.02735 2.23046m13.3125-2.45312l-7.02735.16016m7.02735-.16016l1.19922 2.14063m11.67578-3.76172l-6.14453 3.40625m6.14453-3.40625l2.0586 1.33593m10.98046-1.7578l-5.59766 4.25m5.59766-4.25l2.23047 1.03124m10.77344-1.39062l-4.96875 4.96875m4.24609-4.2461l1.17188.35938m12.59765-1.32031l-4.4375 5.4453m4.4375-5.4453l2.41016.47265m11.2461-.15625l-5.1172 4.8125m4.375-4.11328l1.16016.39453m13.82813.90625l-6.98047.8125m6.98047-.8125l1.39453 2.01953m11.84375-2.44531l-6.82813 1.66406m6.82813-1.66406l1.6328 1.82813m-2.625-1.58594l.81642.91406m12.97656-2.3125l-5.79688 3.97656m5.79688-3.97656l2.17578 1.13672m9.02734-2.57422l-1.57422 6.85156m1.34375-5.85547l1.1875-.3164m14.1172.32422l-5.09376 4.83984m4.35547-4.13281l1.16016.38672m12.73047-1.25391l-4.76563 5.16406m4.76563-5.16406l2.37109.6211m9.1289-1.50782l-1.13671 6.9375m1.13672-6.9375l2.32421-.78515m13.9375 4.2539h-7.02734m18.51953-3.07812l-3.38281 6.15625m2.89062-5.26172l1.22657.01562m10.09765-1.2539l1.58203 6.84375m-1.35156-5.84766l.92578-.80469m9.58985 2.20703l6.72265 2.04688m11.29297-4.26953l-2.6836 6.49219m13.08595-6.39063l3.14453 6.28516m-2.6875-5.3672l.71093-1m11.4961.50392l4.44531 5.4453m-3.79687-4.65234l.47265-1.1328m11.67578.86327l5.48047 4.39844"/><g clip-path="url(#S)"><path fill="none" stroke="#000" stroke-linecap="round" stroke-linejoin="round" stroke-miterlimit="10" stroke-width=".5" d="M147.41797 321.35938l-6.83594-1.625"/></g><path fill="none" stroke="#000" stroke-linecap="round" stroke-linejoin="round" stroke-miterlimit="10" stroke-width=".5" d="M147.41797 321.35938l.6211 2.375m12.27734-5.01563l-6.00391 3.65625m6.0039-3.65625l2.10938 1.2539m11.2539-1.16796l-6.09765 3.48828m6.09766-3.48828l2.07422 1.3086m-2.96094-.80079l1.03906.65234m12.9375-1.5039l-5.64844 4.17578m5.64844-4.17578l2.21484 1.05469m-3.03515-.44922l1.10547.53125m13.55078-.1211l-6.6914 2.14063m6.6914-2.14063l1.75781 1.71485m-2.73047-1.40235l.8789.85547m13.1797-1.72265l-6.23047 3.25m6.23047-3.25l2.02343 1.39062m11.08985-1.72266l-5.83203 3.91797m4.98437-3.34765l1.08203.57421m13.61719.15235l-6.90234 1.32422m6.90234-1.32422l1.53906 1.91015m10.98828-3.53906l-5.32812 4.57813m5.32812-4.57813l2.28907.89453m11.20312-.67187l-5.6836 4.13281m5.6836-4.13281l2.20703 1.07422m10.83594-1.40625l-5.13281 4.80078m5.13281-4.80078l2.32031.79687m-3.07031-.09765l1.16406.39843m13.09375-.86718l-5.52343 4.33984m5.52343-4.33984l2.2461.98828m9.46484-2.13672l-2.3125 6.63672m1.97656-5.67188l1.21094-.1875m14.79688 2.47266l-7.02735.13672m6.0039-.11719l.59766 1.07031m13.66797-1.73437l-6.88281 1.42578m5.88281-1.21875l.78125.9414m12.65625-2.83593l-5.1289 4.80078m4.3828-4.10547l1.16407.39844m11.08203-2.1289l-1.4961 6.86718m1.4961-6.86719l2.35938-.66406m12.01953 1.08984l-3.625 6.01953m3.625-6.01953l2.44922.1289m9.85547-.54296l-1.60157 6.84375m1.3672-5.84766l1.1875-.3125m11.74218-.76953l-.36328 7.01563m.36328-7.01563L399.39453 316m10.72656 1.03906l.36329 7.01953m-.36329-7.01953l2.10157-1.26172m8.15625 3.41016l6.47656 2.72266m-5.53516-2.32813l-.11328-1.22265m13.44531-.48438l4.5586 5.34766m-3.89453-4.57032l.44922-1.14062m13.5-.33594l1.96093 6.7461m15.84375-3.52735l-7.01953.3086m6-.26563l.6211 1.0586"/><path fill="#00f" fill-rule="evenodd" d="M388.23828 476.52344h8.61719V466.3789h-8.61719v10.14453"/><path fill="azure" fill-rule="evenodd" d="M390.07031 468.21094h.83594v2.82422h3.28516v-2.82422h.83203v6.48047h-.83203v-2.91407h-3.28516v2.91407h-.83594v-6.48047"/><path fill="#00f" fill-rule="evenodd" d="M166.32031 467.64844h8.61719V457.5039h-8.61719v10.14453"/><path fill="azure" fill-rule="evenodd" d="M168.15234 459.33594h.83594v2.82422h3.28516v-2.82422h.83203v6.48047h-.83203v-2.91797h-3.28516v2.91797h-.83594v-6.48047"/><path fill="#ff3030" fill-rule="evenodd" d="M371.17969 458.77344h7.6914V448.625h-7.6914v10.14844"/><path fill="azure" fill-rule="evenodd" d="M373.01172 450.45703h.83594v5.74219h3.1914v.73828h-4.02734v-6.48047"/><path fill="#00f" fill-rule="evenodd" d="M383.80078 436.57813h8.61719v-10.14454h-8.61719v10.14454"/><path fill="azure" fill-rule="evenodd" d="M385.63281 428.26563h.83203v2.82421h3.28907v-2.82421h.83203v6.48046h-.83203v-2.91406h-3.28907v2.91406h-.83203v-6.48046"/><path fill="#00f" fill-rule="evenodd" d="M290.59375 432.14063h8.6211v-10.14454h-8.6211v10.14454"/><path fill="azure" fill-rule="evenodd" d="M292.42969 423.82813h.83203v2.82421h3.28515v-2.82421h.83204v6.48046h-.83204v-2.91796h-3.28515v2.91796h-.83203v-6.48046"/><path fill="#00f" fill-rule="evenodd" d="M206.26563 409.94922h8.61718v-10.14453h-8.61719v10.14453"/><path fill="azure" fill-rule="evenodd" d="M208.09766 401.63672h.83593v2.82422h3.28516v-2.82422h.83203v6.48047h-.83203v-2.91797h-3.28516v2.91797h-.83593v-6.48047"/><path fill="#ff3030" fill-rule="evenodd" d="M451.07031 401.07422h7.6914v-10.14844h-7.6914v10.14844"/><path fill="azure" fill-rule="evenodd" d="M452.90234 392.76172h.83204V398.5h3.1953v.73828h-4.02734v-6.47656"/><path fill="#ff3030" fill-rule="evenodd" d="M300.16406 396.63281h7.69531v-10.14453h-7.6953v10.14453"/><path fill="azure" fill-rule="evenodd" d="M302 388.32031h.83203v5.74219h3.19531v.73828H302v-6.48047"/><path fill="#00f" fill-rule="evenodd" d="M370.48438 396.63281h8.62109v-10.14453h-8.6211v10.14453"/><path fill="azure" fill-rule="evenodd" d="M372.3164 388.32031h.83594v2.82422h3.28516v-2.82422h.83203v6.48047h-.83203v-2.91406h-3.28516v2.91406h-.83593v-6.48047"/><path fill="#ff3030" fill-rule="evenodd" d="M180.33203 347.8125h7.6914v-10.14453h-7.6914v10.14453"/><path fill="azure" fill-rule="evenodd" d="M182.16406 339.5h.83203v5.73828h3.19532v.74219h-4.02735V339.5"/><path fill="#ffffe0" fill-rule="evenodd" d="M377.25 420.07422h22.17969v-10.1914H377.25v10.1914"/><path fill-rule="evenodd" d="M380.75 411.71875h.50781v6.29297h-.78515v-4.48828h-1.39063v-.5586l.5625-.0625.25-.05468.23047-.08985.20313-.14062.17578-.21094.14062-.29297.10547-.39453m4.8125 0l.23047.01563.21875.05859.20703.08984.19922.11719.1836.15234.17187.17579.30078.41796.24219.4922.17968.54687.11329.58203.03906.58984-.03906.59375-.11329.58203-.17968.55469-.2422.5039-.30077.42579-.17188.17969-.1836.15234-.19921.125-.20703.09375-.21875.05469-.23047.01953-.22656-.01953-.21875-.0547-.21094-.09374-.19531-.125-.1836-.15235-.17187-.17968-.30078-.42578-.2461-.50391-.17968-.55469-.10938-.58203-.03906-.59375h.83203l.03125.5625.08203.50781.125.44141.16406.375.1875.30078.21094.21875.22266.14063.22656.04687.22656-.04687.22266-.14063.21094-.21875.1914-.30078.16406-.375.125-.4414.08204-.50782.02734-.5625-.02734-.5625-.08204-.5-.125-.4336-.16406-.36718-.1914-.29297-.21094-.21484-.22266-.1289-.22656-.04688-.22656.04687-.22266.1289-.21094.21485-.1875.29297-.16406.36719-.125.4336-.08203.5-.03125.5625h-.83203l.03906-.58985.10938-.58203.17968-.54688.2461-.49219.30078-.41796.17187-.17579.1836-.15234.19531-.11719.21094-.08984.21875-.0586.22656-.01562m4.95313 0l.23046.01563.21875.05859.20704.08984.1953.11719.1875.15234.17188.17579.30078.41796.2422.4922.17968.54687.11328.58203.03516.58984-.03516.59375-.11328.58203-.17969.55469-.24219.5039-.30078.42579-.17187.17969-.1875.15234-.19531.125-.20704.09375-.21875.05469-.23046.01953-.22657-.01953-.22265-.0547-.20704-.09374-.1953-.125-.1836-.15235-.17188-.17968-.30078-.42578-.2461-.50391-.17968-.55469-.10937-.58203-.03907-.59375h.83204l.03125.5625.08203.50781.125.44141.16015.375.1914.30078.21095.21875.22265.14063.22656.04687.22657-.04687.22265-.14063.21094-.21875.1914-.30078.16407-.375.125-.4414.08203-.50782.02735-.5625-.02735-.5625-.08203-.5-.125-.4336-.16406-.36718-.1914-.29297-.21095-.21484-.22265-.1289-.22656-.04688-.22657.04687-.22265.1289-.21094.21485-.1914.29297-.16016.36719-.125.4336-.08204.5-.03125.5625h-.83203l.03907-.58985.10937-.58203.17969-.54688.2461-.49219.30077-.41796.17188-.17579.1836-.15234.1953-.11719.20704-.08984.22265-.0586.22656-.01562m4.95313 0l.38672.02734.35937.08204.32422.13671.27735.1875.23046.23438.17188.28515.10938.33594.03906.375-.01953.27344-.0586.23438-.08984.20312-.10938.16797-.1289.14453-.14063.1211-.28515.19921.23046.11719.20704.14844.18359.17187.15234.1914.125.21485.08985.23047.05469.24219.01953.25781-.03516.3086-.10156.32421-.17188.32813-.24219.30469-.30468.26953-.375.21484-.21094.08203-.22656.0586-.2461.03906-.26171.01172-.25782-.01172-.24219-.03906-.22265-.0586-.20703-.08203-.35938-.21484-.28906-.26953-.22266-.3047-.15625-.32812-.09375-.32421-.03125-.3086h.83204l.02734.25.07812.23828.1211.21094.16406.1836.1914.15234.21876.11719.24218.0703.25391.02735.2539-.02734.2422-.07031.21874-.1172.19532-.15234.16015-.18359.1211-.21094.07812-.23828.02735-.25-.02735-.2539-.07812-.23438-.1211-.21484-.16015-.1836-.19532-.15234-.21875-.11328-.24218-.07422-.25391-.02344-.2539.02344-.2422.07422-.21874.11328-.19141.15234-.16406.1836-.1211.21484-.07812.23438-.02735.2539h-.83203l.01954-.2539.05468-.2422.09375-.22265.1211-.20703.15234-.1914.1836-.17188.20702-.15235.23438-.1328-.28906-.19923-.14063-.12109-.1289-.14453-.10938-.16797-.08984-.20313-.05469-.23437-.02344-.27344h.78906l.02344.21485.0625.1914.10547.16797.13672.13672.16406.11328.1914.08203.20704.05078.21875.01563.22266-.01563.20312-.05078.1914-.08203.16407-.11328.13672-.13672.10547-.16797.0664-.1914.01954-.21485-.01954-.21484-.0664-.1914-.10547-.16407-.13672-.14063-.16406-.11328-.1914-.08203-.20313-.04687-.22266-.01953-.21875.01953-.20703.04687-.1914.08203-.16407.11329-.13672.14062-.10547.16406-.0625.1914-.02344.21485h-.78906l.03906-.375.10938-.33594.17188-.28515.23046-.23438.28125-.1875.32032-.13671.35937-.08204.38672-.02734"/><path fill="#ffffe0" fill-rule="evenodd" d="M418.41406 476.75781h22.17969V466.5625h-22.17969v10.19531"/><path fill-rule="evenodd" d="M421.91406 468.39844h.50781v6.29297h-.78906v-4.48829h-1.38672v-.55468l.5586-.0664.2539-.0547.23047-.08984.20313-.14063.17187-.21093.14453-.29297.10547-.39453m4.8125 0l.23047.01953.21875.05469.20703.08984.19531.1211.1836.14843.17187.17578.30079.41797.24609.4961.17969.54687.10937.57813.03906.58984-.03906.59375-.10937.58594-.1797.55078-.24608.5039-.30079.42579-.17187.17968-.1836.15625-.1953.1211-.20704.09375-.21875.05468-.23047.01954-.23047-.01954-.21875-.05468-.20703-.09375-.19531-.1211-.1875-.15625-.16797-.17969-.30469-.42578-.24218-.5039-.1797-.55078-.11327-.58594-.03516-.59375h.83203l.02735.5625.08203.50781.1289.4414.16016.375.1914.30079.21094.22265.22266.13672.22656.04688.22656-.04688.22266-.13671.21094-.22266.1914-.30078.16016-.375.1289-.4414.07813-.50782.03125-.5625-.03125-.5625-.07812-.5-.1289-.4336-.16017-.36718-.1914-.29297-.21094-.21094-.22265-.13281-.22657-.04688-.22656.04688-.22266.13281-.21093.21094-.19141.29297-.16016.36719-.1289.43359-.08203.5-.02735.5625h-.83203l.03516-.58985.11328-.57812.17969-.54688.24218-.49609.3047-.41797.16796-.17578.1875-.14844.19531-.12109.20703-.08984.21875-.0547.23047-.01952m4.95313 0l.22656.01953.22266.05469.20703.08984.19531.1211.1836.14843.17187.17578.30078.41797.2461.4961.17968.54687.10938.57813.03906.58984-.03906.59375-.10938.58594-.17969.55078-.24609.5039-.30078.42579-.17188.17968-.18359.15625-.19531.1211-.20703.09375-.22266.05468-.22656.01954-.23047-.01954-.21875-.05468-.20703-.09375-.19922-.1211-.1836-.15625-.17187-.17969-.30078-.42578-.24219-.5039-.17969-.55078-.11328-.58594-.03515-.59375h.83203l.02734.5625.08203.50781.125.4414.16406.375.19141.30079.21094.22265.22265.13672.22657.04688.22656-.04688.22266-.13671.21093-.22266.19141-.30078.16016-.375.125-.4414.08203-.50782.03125-.5625-.03125-.5625-.08203-.5-.125-.4336-.16016-.36718-.1914-.29297-.21094-.21094-.22266-.13281-.22656-.04688-.22656.04688-.22266.13281-.21094.21094-.1914.29297-.16407.36719-.125.43359-.08203.5-.02734.5625h-.83203l.03515-.58985.11328-.57812.1797-.54688.24218-.49609.30078-.41797.17188-.17578.18359-.14844.19922-.12109.20703-.08984.21875-.0547.23047-.01952m4.95312 0l.38672.02734.35938.08203.3203.13672.28126.1875.23047.23828.17187.28516.10938.33203.03515.375-.01953.27344-.0586.23828-.08593.19922-.11328.16797-.1289.14453-.14063.125-.28516.19531.23438.11719.20703.14844.17969.17187.15625.1914.12109.21485.08984.23047.0586.24219.01953.2578-.03516.3086-.10547.32422-.17187.32813-.23828.30468-.3086.26954-.37109.21484-.21094.08203-.23047.0586-.24218.03906-.26172.01171-.26172-.01171-.24219-.03907-.22265-.05859-.20313-.08203-.35938-.21485-.29296-.26953-.22266-.30468-.15625-.32813-.09375-.32422-.02734-.3086h.83203l.02734.25392.07813.23437.12109.21094.16016.1836.1953.15233.21876.1172.23828.0703.25781.02735.2539-.02735.23829-.0703.22266-.1172.1914-.15234.16016-.1836.125-.21093.07422-.23438.02734-.2539-.02734-.2539-.07422-.23438-.125-.21485-.16016-.18359-.1914-.15234-.22266-.11329-.23828-.07421-.2539-.02344-.25782.02344-.23828.07421-.21875.11329-.19531.15234-.16016.1836-.1211.21484-.07812.23437-.02734.2539h-.83203l.01562-.2539.0586-.24219.08984-.22265.125-.20703.15234-.1914.1836-.17188.20703-.15235.23047-.13281-.28516-.19531-.14063-.125-.1289-.14453-.11328-.16797-.08594-.19922-.0586-.23828-.01952-.27344h.78515l.02344.21484.0664.19141.10547.16797.13672.13672.16406.11328.1875.08203.20704.05078.22265.01563.21875-.01563.20703-.05078.1875-.08203.16797-.11328.13672-.13672.10156-.16797.06641-.1914.02344-.21485-.02344-.21484-.0664-.19141-.10157-.16406-.13672-.14063-.16797-.10937-.1875-.08203-.20703-.05079-.21875-.01953-.22265.01954-.20704.05078-.1875.08203-.16406.10937-.13672.14063-.10546.16406-.06641.1914-.02344.21485h-.78515l.03906-.375.10547-.33203.17578-.28516.23047-.23828.27734-.1875.32422-.13672.35937-.08203.38672-.02734"/></g></defs><use xlink:href="#T"/></svg>