<svg xmlns="http://www.w3.org/2000/svg" role="img" xmlns:xlink="http://www.w3.org/1999/xlink" viewBox="142.45 309.95 326.84 171.84"><defs><clipPath id="a"><path d="M144 311.67188h1v168.65625h-1zm0 0"/></clipPath><clipPath id="b"><path d="M144 311.67188h324v168.65625H144zm0 0"/></clipPath><clipPath id="c"><path d="M406 477h13v3.32813h-13zm0 0"/></clipPath><clipPath id="d"><path d="M408 479h7v1.32813h-7zm0 0"/></clipPath><clipPath id="e"><path d="M454 477h9v3.32813h-9zm0 0"/></clipPath><clipPath id="f"><path d="M464 476h4v4.32813h-4zm0 0"/></clipPath><clipPath id="g"><path d="M467 311.67188h1V462h-1zm0 0"/></clipPath><clipPath id="h"><path d="M144 477h3v3.32813h-3zm0 0"/></clipPath><clipPath id="i"><path d="M153 478h8v2.32813h-8zm0 0"/></clipPath><clipPath id="j"><path d="M159 479h2v1.32813h-2zm0 0"/></clipPath><clipPath id="k"><path d="M166 479h9v1.32813h-9zm0 0"/></clipPath><clipPath id="l"><path d="M172 479h3v1.32813h-3zm0 0"/></clipPath><clipPath id="m"><path d="M180 479h8v1.32813h-8zm0 0"/></clipPath><clipPath id="n"><path d="M186 480h2v.32813h-2zm0 0"/></clipPath><clipPath id="o"><path d="M193 479h9v1.32813h-9zm0 0"/></clipPath><clipPath id="p"><path d="M199 479h2v1.32813h-2zm0 0"/></clipPath><clipPath id="q"><path d="M206 479h9v1.32813h-9zm0 0"/></clipPath><clipPath id="r"><path d="M212 479h2v1.32813h-2zm0 0"/></clipPath><clipPath id="s"><path d="M220 479h8v1.32813h-8zm0 0"/></clipPath><clipPath id="t"><path d="M226 480h1v.32813h-1zm0 0"/></clipPath><clipPath id="u"><path d="M233 478h8v2.32813h-8zm0 0"/></clipPath><clipPath id="v"><path d="M239 480h1v.32813h-1zm0 0"/></clipPath><clipPath id="w"><path d="M246 478h9v2.32813h-9zm0 0"/></clipPath><clipPath id="x"><path d="M252 480h2v.32813h-2zm0 0"/></clipPath><clipPath id="y"><path d="M260 479h8v1.32813h-8zm0 0"/></clipPath><clipPath id="z"><path d="M265 480h2v.32813h-2zm0 0"/></clipPath><clipPath id="A"><path d="M273 479h8v1.32813h-8zm0 0"/></clipPath><clipPath id="B"><path d="M279 480h2v.32813h-2zm0 0"/></clipPath><clipPath id="C"><path d="M286 479h9v1.32813h-9zm0 0"/></clipPath><clipPath id="D"><path d="M293 480h2v.32813h-2zm0 0"/></clipPath><clipPath id="E"><path d="M300 479h8v1.32813h-8zm0 0"/></clipPath><clipPath id="F"><path d="M305 480h2v.32813h-2zm0 0"/></clipPath><clipPath id="G"><path d="M313 478h8v2.32813h-8zm0 0"/></clipPath><clipPath id="H"><path d="M319 480h1v.32813h-1zm0 0"/></clipPath><clipPath id="I"><path d="M326 478h8v2.32813h-8zm0 0"/></clipPath><clipPath id="J"><path d="M340 477h7v3.32813h-7zm0 0"/></clipPath><clipPath id="K"><path d="M355 476h4v4.32813h-4zm0 0"/></clipPath><clipPath id="L"><path d="M369 476h2v4.32813h-2zm0 0"/></clipPath><clipPath id="M"><path d="M382 476h3v4.32813h-3zm0 0"/></clipPath><clipPath id="N"><path d="M395 476h4v4.32813h-4zm0 0"/></clipPath><clipPath id="O"><path d="M406 479h8v1.32813h-8zm0 0"/></clipPath><clipPath id="P"><path d="M412 480h2v.32813h-2zm0 0"/></clipPath><clipPath id="Q"><path d="M420 478h8v2.32813h-8zm0 0"/></clipPath><clipPath id="R"><path d="M433 479h8v1.32813h-8zm0 0"/></clipPath><clipPath id="S"><path d="M439 479h2v1.32813h-2zm0 0"/></clipPath><clipPath id="T"><path d="M446 479h9v1.32813h-9zm0 0"/></clipPath><clipPath id="U"><path d="M452 480h2v.32813h-2zm0 0"/></clipPath><clipPath id="V"><path d="M460 478h7v2.32813h-7zm0 0"/></clipPath><clipPath id="W"><path d="M144 464h3v6h-3zm0 0"/></clipPath><clipPath id="X"><path d="M466 466h2v4h-2zm0 0"/></clipPath><clipPath id="Y"><path d="M144 453h4v2h-4zm0 0"/></clipPath><clipPath id="Z"><path d="M144 439h4v3h-4zm0 0"/></clipPath><clipPath id="aa"><path d="M144 425h4v4h-4zm0 0"/></clipPath><clipPath id="ab"><path d="M144 412h4v4h-4zm0 0"/></clipPath><clipPath id="ac"><path d="M144 399h4v3h-4zm0 0"/></clipPath><clipPath id="ad"><path d="M144 383h3v8h-3zm0 0"/></clipPath><clipPath id="ae"><path d="M144 370h3v7h-3zm0 0"/></clipPath><clipPath id="af"><path d="M144 357h2v7h-2zm0 0"/></clipPath><clipPath id="ag"><path d="M144 344h3v6h-3zm0 0"/></clipPath><clipPath id="ah"><path d="M144 332h4v4h-4zm0 0"/></clipPath><clipPath id="ai"><path d="M144 319h4v3h-4zm0 0"/></clipPath><g id="aj" clip-path="url(#clip1)"><path fill="#fff" fill-opacity="0" fill-rule="evenodd" d="M0 0h1000v1000H0zm0 0"/><path fill="#d3d3d3" fill-opacity="0" fill-rule="evenodd" d="M162.15234 355.86719l-.23437.29297.0586.23437.11718.17188.17578.23437.29297.34766.11328.0586.11719-.17188.0586-.23438.17577-.17578.46485-.17578h.69922l.23437.29297.28906.8164.0586.17579.17578.23046.35156.23438.69922.69922.17188.17578.23437.34765.23438.41016.28906.58203.41015.46485.23047.23437.23438.17578.11719.23047.17578.29297.17187 1.16406v.23438l.0586.28906.05859.11719.11719.11719.34765.41015.11719.17188.17578.17578.17578.23437.11719.17188.17188.35156.05859.23438.23437.40625.23438-.0586-.17578.17578-.0586.92969h-.58203l-.23437-.11328-.34766.11328-.11719.11719-.05859.29297-.0586.17578-.11718.17187-.46484.29297-.0586.23438-.0586.11328v.64453l.0586.17187v.41016l.0586.0586v.40624l.05859.40625.11719.17579.05859.05859.23047.64062-.0586.29297v.69922l-.05859.58203v.23438l-.0586.23047-.05468.35156v1.92187l.05469.1172h.42578l-.36719.11718-.02344.35156.89063 1.16797 1.74219.53906 1.33984.35938v.53906l.08984.8086.53516.71484 1.51953.26953.89063-.08594.08984 1.16406.53516.1797 1.16015-.1797 2.05469-.98437 1.16016-.36328 1.8789-.17578 1.69531-.1797-.17968.71876-1.51563.08594-1.25.08984-.80469.26953-1.07421.8086.26953.71875.53515.89843-.17968.625-.26563.8086.26563 1.07812.625.89844.80468.17969 1.25-.1797-.26562.72267.09766.5039.05468.29297v.17188l.0586.29296v.40625l.17578.1172.35156.11718h.40625l.29297-.17578.11328-.11719.0586-.11719.11718-.23047.0586-.17578.35156-.46484.23047-.17578.17578-.0586.17578.0586.0586.17578.11718.98828.05469.46875.0586.17188.11718.23437.17578.0586.8164.05859h.28907l.11719.23437.05859.40625.0586.35156v1.10547l.11718.29297.11719.34766.28906.69922.17578.35156.58203.7539.35157.17579.17187.0586.46875.23437.64063.46484.34765.23438.29297.17578.29297.05468.23047.0625.8164.34766.29297.17578.11328.17188.35157.35156.11719.17578.52343.64063v.28906l.0586.35156v.34766l.05859.35156.0586.28906.11718.0586.17188.05859h.17578l.58203.23437.17578.1172.17578.28905.17578.23438.11328.23437.29297.23047.11719.11719v.41016l.0586.05468.28906.23438.23437.11719.0586.11718.11718.17188.0586.11719.23047.23437.05859.17578.23437.0586.1172.05859-.1172.11328-.05859.11719v.11719l-.11719.29296-.11719.28907v.58203l.17579.11719.11718.05859.0586.11719.11719.11719.11328.05859.17578.34765.0586.35157.05858.40625v.17578l-.05859.17578-.11719.69922v.17187l.1172.17579.29296.29296h.40625l.17578.1172.11719.17187.11719.29296v.23438h-.52735l-.23047-.23438h-.23437l-.17578.0586-.0586.69922.0586.34765.11719.17579.17578.41015.11718.23047.28907.46875.17578.05469h.52344l.23437.0586.75781.64062.0586.29296v.23438l.05859.0586.23047.34765v.35156l-.11719.17188v.29297l.29297.28906.29297.17578.17187.0586.29297.17577.29297.1172.58203.40624.28906.23438.29297.17578.21875.16015.01563.01172.23047.17579.64062.52343.17578.23438.1172.17578.17577.17578.11328.17188v.64062l.1172.17578.46874.11719.58203.11719.23438.05859.23047.11328.29297.11719.11328.0586.58593.35156.28907.17187.17578.0625.17578.05469.17578.0586.69922.35155.28906.17579.23438.05468.28906.17578.23437.1172.64063.40624.29297.11719.17187.0586.23438.05859.41015.05859.23047.0586.23438.11718.0586.17188-.41017.17578.46875.0586.0586.29296.11328.23438.17578.05468.23438.0586.17578.05859.40625.11719.64062.23437.11719.17188.0586.23437v.17578l-.0586.1172-.0586.40624.23438.23438.11719.05859.34766.11719.64062.23047.17578.11718.28906.1172.17578.17577.23438.46485.58203 1.10546.17578.17579.34766.17578.17578.11719.35156.11718 1.04688.52344.23437.0586.46485.11327.29297.0586.46484.17578.75781.58203.23438.23438.34765.46484.17578.17578.28907.23438.8164.69921.29297.17579.28906.28906.29297.17578.29297.28906.69531.64063.17578.17578.29297.23437.28907.23438.46875.28906.64062.58203.34766.23438.23437.29297.34766.34765.35156.46485.9336.99218.34765.40625.11719.17579.23437.05859.11328.11719.64454.17578.23047.11328.23437.0586.29297.17577.23047.1172.9336.69921.40624.40625.23438.17578.40625.17578.23437.11719.8164.34766.34766.23437.23438.11719.29297.28906.23047.11719.7578.35156.35157.17188.23047.05859.29297.11719.23437.0586.8711.17577h.8164l.46875.23047.17188.0586.875.69921.46484.1172.29297.05858.17578.0586.23047.0586.46875.05859.34766.05859.35156.0586.40625.05859h.29297l.17187.0586v.23046l.17578.17578h.29297l.34766.0586.35156.05859.69922.11719h.64063l.46484-.23438.29297-.17578.17187-.11719.41016-.17187.28906-.17578.9336-.46485.46875-.29297.52343-.29296.46485-.17188.46484-.17578 1.05078-.46485.28906-.11718.41016-.11719.28906-.11719.52735-.17578 1.51562-.69922.58203-.34765.28907-.0586.29297-.0586.34765-.11718.875-.23047.35156-.11719h.11329l.23437-.05859.875-.23437.23438-.0586h.8125l.35156-.0586.8164-.11718.17188-.0586.35156-.05468.29297-.0586.23047-.05859.8164-.17578.17579-.0586h.34765l.23438-.05859.46484-.11718.75781-.17188.23438-.0586h.34765l.41016-.11718.28906-.0586 1.28516-.05859h.28906l.41016-.0586.23047-.05858h.17578l.875-.1172h.40625l.41015-.11718h.34766l.35156-.11328.8711-.0586h1.75l1.04687.28907.41016.11719.28906.11718.35156.11719.28907.11719 1.05078.17187.28906.0586h.29297l.29297.05859.17187.0586.41016.05859.17187.0586.1172.05858h.11718l.11719.0586.35156.0586h.11328l.41016.0664 1.92187.39453 1.92578.39453 1.51953.44922 1.69532.71875 2.14453.80469 1.60547-.71875 1.42968-.80469 1.16016-1.07813 1.25-.44921 3.03516-.71875 1.875-.35938 2.14453-1.34765 2.23437-1.25391 2.5-1.25781 1.69531-.44922 1.78516-.17969 1.16016-.26953.625.53906 1.33984-.26953.71485-.98828.98437-1.34375.44531-.17969.80469-.35937 1.875-.53907 1.78516-.44921 1.25-.26954 1.16015-.08984 1.69922-.08984 1.96094-.26954 1.25-.08984h.53906l.625-.08984h.89063l2.14453-.17969 2.41015-.17969 2.58985-.08984 1.69531.17969 1.60938.08984 1.42968.35938 1.16016.71875 1.875.98828 1.16015 1.52734.26563.71484.6289.08985.35548.89844.53515.53906.53516 1.52734 1.07422.35938h.53515l-.80469.53515.08985 1.70703.71484 2.69532.89063.80468.89453.98829.71484 1.2578 1.78516.53907 1.51953-.17969.35547 1.34375 1.60937-.80469.98047-.53906.26953.26953.31641-.21484.21875-.14453.80078.44922.44922-.35938h.35547l.53515-.26953.53907-.71875.53515-.26953.625-.98828 1.16016.44922.83984.3711 1.39454.61718 1.6953-.17969h1.60548l1.78515.08985.17969-1.70704.53516-1.34375.80468.26954.4922.84765.40233.40625-.08984.53906v.35938l.71485.44922.71093-.26953h1.42969l.35938.98828.4453 1.25781.71485 1.34375 1.25.6289 1.69531.62891.71485-.17969.17969-.53906.98046-.08984.44922.35937.08594 1.25782-.26563.6289-.53515.17969v.53906l.71484.98438.26563.53906.98437.98828.80078 1.07813-.26562.35937-.08985.89844-.625 2.33203-.35546 2.0664-.08985 1.79298-.17969.71875-.08984.53906v1.4375l-.98047 1.88281-.35937 1.70703-.53516.89844-.80469 1.16797-.26562.53906 2.05469 1.2539.08593.35938-.35546.53906-.08985-.17968v.80859l.08985 1.4375-.44532.71484-1.07422.09375-.26562.71485.53515.89844.8047.71875 1.16015.80859 1.33984.26953.44531.35938-.35546.44921-1.78907-.08984-1.25-.44922-.71484-.71875-.625-.08984-.17578 3.58984-.1875 1.3086h89.35937V311.70313h-55.26953v49.08203l.76172.125 3.28906.54296 2.02344 2.83594v2.7539l2.35156.33204 2.34766.33203h4.05078l-1.3789 4.16016-2.02344.70703-2.02344.70312-.54297.34375-2.59375 1.6172-.1875.11718-2.02344-2.07813-.73046-2.74218-2.67188-2.07813-1.375-3.5-.0664-.08203-1.95704-2.67188 2.75-1.41796v-49.08204H294.42187v91.41407l.1172.03125.1328.01172.07422.07421.10547.04688.08985.0586.08593.05859.08985.0586.29687.29687.0586.08984.03125.11719.02734.11719.01563.13671-.03125.1172-.0586.08983-.0586.08594-.04296.10547-.04688.10156-.02734.1211v.14453l.17578.26953.14844.14844.07422.08594.07422.07421.04296.10547.0625.08985.0586.08593.04297.10547.0586.08985.04687.10156.04296.10547.0586.08594.11719.17968.07421.07422.0625.08594.0586.08984.04297.10547.0586.08985.05858.08593.0625.08985.0586.08984.04297.10156.11719.17969.07421.07422.0586.08594.07422.07421.08984.0586.10547.04687h.14844l.1328-.01562.13282.01562.10156-.04687.07422-.07422.04688-.10156-.01563-.13281v-.14844l-.04687-.10547-.02735-.11719-.04687-.10156-.02735-.1211-.04296-.10156-.0625-.08984-.04297-.10156-.04297-.10547-.03125-.11719-.01563-.13281-.01171-.13672.08593-.0586.0586-.08593.12109-.03125.04297.10547.01562.1328v.1172l.0586.10156.0586.08984.08983.0586.14844.14843.0586.08985.04296.10547-.01171.10156.08593.0586.10547.04687.08594.0586.08984.05858.07422.07422-.11719.02735-.10546.04687-.08594.0586-.07422.07421-.0586.08985-.0625.08594-.02734.12109-.04687.10156-.04297.10547-.03125.11719-.01172.13281-.01563.13281v.14844l.02735.11719.04687.10547.04297.10156.0586.08984.07421.07422.08985.0586.07422.07421.08984.0586.0586.08984.04296.10547.04688.10156.11719.03125.1328.01563h.14845l.11718-.03125.10547.04297.04297.10547.04688.10156.02734.1211L299.5 410l.02734.11719.03125.1211.02735.11718.10547.04297.10156.04687.13281-.01562.14844.14844.0625.08593.07422.07422.07031.07422.08984.0625.10547.04297.10156.04297.1172.03125.13671.01562.11719-.03125.07422-.07422.02734-.11718-.01172-.13282-.03125-.12109-.02734-.11719.04297-.10547h.11719l.08984.0625.11719.02735h.14843l.13282.01562h.14843l.13282.01563.1328-.01563h.14845l.1328-.01562.13282-.01172.13672.01172.11719-.02735.13281-.01562.1914-.0586-.05859.17579-.01562.1328-.02735.1211-.01562.13281-.0586.08594-.1328.01563-.10548.04687-.10546.04297-.1172.03125-.11718.02735-.26563.03125h-.14843l-.13281.01562-.07422.07422.05859.08594.14844.14843.11719.1797.07421.0703.08985.0625.08984.0586.08594.0586.08984.05858.10156.04297.10547.0625.10547.04297.08594.0586.10547.04687.10156.04297.17969.11719.0586.08984-.04298.10156-.04687.10547.01562.13281.22266.22266.0586.08985.04296.10156.03125.1211.04297.10155.01563.13282.03125.11718.01171.13672.03125.11719.14844.14844.10156.04297.10547.04296.1172.03125.1328.01563.13672.01563h.11719l.11719-.03125.08984-.0586.04297-.10547.04688-.10156.04296-.10547.03125-.11719.01172-.1328v-.14845l-.01172-.1328-.01562-.13282-.03125-.11719-.04297-.10547-.04688-.10547-.04296-.10156-.04297-.10547-.01563-.13281.01563-.13281.02734-.11719.03125-.11719.02735-.1211.04687-.10155.08984-.0586.08594-.0625.07422-.07422.08984-.05859.22266-.22266.0586-.08593.07421-.07422.11719-.17969.0586-.08594v-.14844l-.07423-.07421-.10156-.04688-.10547-.04297-.10156-.04297-.0586-.08984-.04687-.10547-.02734-.11719.08984-.05859.11719-.03125.10156-.04297.17969-.11719.14844-.14843.01172-.13282-.01172-.10546-.08985-.0586-.1328.01563h-.14845l-.1328.01562-.13282-.01562-.1211-.03125-.08593-.0586-.07422-.07422-.0586-.08984-.0625-.08594-.11718-.17969-.0586-.08593.03125-.1211.08594-.05859.1211-.03125.05859-.08594v-.1211l-.03125-.11718-.0586-.08984-.05859-.08594-.04687-.10547-.02735-.11719-.01562-.1328.0586-.08985.07421-.07422.08984-.0586.1172-.17968.07421-.07422.0586-.08594.14843-.14844.1211-.03125.1328-.01562.13282.01562.07422.07422.04297.10547.01562.13281-.03125.1172-.11719.03124-.1328.01172-.14844.14844-.04297.10547-.04688.10156-.02734.1211-.03125.11718v.14844l.03125.11719.04297.10546.05859.08985.07422.07031.07422.07422.11719.03125.12109.02734.11719-.02734.1328-.01563h.1172l.08984.0586.07422.07422.04687.10546.0586.08594.10156.04688.13281.01562.10547.04297.08594.0586-.01172.10546-.07422.07422-.17969.11719-.05859.08984-.08984.0586-.07032.07422-.07421.07421-.0625.08985-.02735.11719-.01562.1328.01562.13282-.01562.13281v.14844l.01562.13281.02735.1172.03125.12108.07421.07422.08985.0586.08594.0586.08984.05858.11719.03125v.08594l-.10157.04688-.08984.0586-.26563.03124-.11718.02735h-.14844l-.10547.04296-.10156.04688-.0586.08984-.0625.23438-.01171.13281-.03125.1211-.01563.1328v.29298l-.01172.1328.01172.13673.01563.1328.1328.01563.13282.01172.1211.03125.08593.0586.07422.07421.04688.10547.04296.10157.01563.1328v.44532l-.01563.13281v.44532l.03125.26562.02735.11719.01562.13281.03125.11719.08594.21094.03125.26562v.14844l-.03125.11719-.02734.11718-.03125.1211-.02735.11719-.03125.11718-.03125.1211-.01171.1328-.01563.13282.08984.0586.1172-.03125.10155.01562.04688.10547-.03125.26562v.44141l-.04297.10547-.04688.10547-.04296.10156-.04297.10547-.0586.08594-.03125.12109-.04296.11719-.03125.11719-.01563.1328.01563.13282.05859.08984.10547.04688.08594.0586.05859.08593-.01172.13672-.03125.11719-.04297.10156v.44531l-.01562.13281v.14844l-.03125.11719-.04297.10547-.02735.11719-.04687.10546-.04297.10157-.03125.12109-.02734.11719-.03125.13281-.03125.11719-.02735.11719-.04297.10546-.03125.1172-.03125.12108-.01171.13282-.01563.13281v.29688l.02734.11718v.14844l.04688.39844.02734.11719.0586.08984.12109.03125h.14844l.13281-.01563.0586.08985v.11719l-.0586.08984-.08984.0586-.10157.04296-.10546.04688-.08985.05859-.08594.0586-.13671.01562-.1172-.03125-.1328-.01563-.10157.04688-.0625.08594-.01172.13671-.01562.13282-.03125.11719-.02735.11718-.01562.13281-.03125.1211v.29687l.01563.13282.03125.11718v.14844l.01171.13281v.14844l-.02734.11719-.04688.10156-.02734.1211-.03125.11718-.0586.08985-.07421.07421-.10156.04297-.10547.04688-.11719.02734-.1211.03125-.10156-.04687.0586-.08594.10547-.04688.02734-.11718.03125-.11719.02734-.1211.03125-.11718v-.14844l.01563-.13281-.03125-.11719-.04297-.10547-.10547.01563-.07422.07422-.10156.04296-.08984.0625-.07422.07422-.04297.10157-.01563.1328-.03125.1172L304.25 426l-.03125.11719-.02734.11719-.03125.12109-.02735.11719-.03125.11718-.04297.10547-.08984.0586h-.08984l-.1172-.03125-.03124-.08594.01562-.13672-.03125-.11719v-.14844l-.01171-.1328v-.14844l-.0625-.23438-.02735-.1211-.04297-.10156-.04687-.10546-.0586-.08594-.05859-.08985-.04297-.10546-.0625-.08594-.14844-.14844-.0703-.07422-.10548-.04687-.10547-.04297-.10156-.04297-.29687-.29688-.08985-.07421-.08594-.0586-.10546-.04297-.08985-.0625-.08594-.0586-.10546-.04296-.08985-.0586-.08594-.0625-.07421-.0703-.10547-.04688-.08594-.0586-.10547-.04296-.08984-.0625-.10156-.04297-.10547-.04297-.08594-.0586-.10547-.04687-.10547-.04297-.10156-.04687-.08985-.0586-.10156-.04297-.10547-.04296-.08984-.0625-.11719-.02735-.13281-.01562-.13281.01562H299.75l-.13281.01563-.11719-.03125-.08984-.0586-.07422-.07422-.08985-.05859-.10156-.04688h-.14844l-.12109-.02734-.10156-.04297-.07422-.07422-.11719-.17968-.08984-.0586-.10156-.04297-.08985-.0625-.10547-.04296-.08984-.0586-.08594-.0586-.10547-.04687-.0586-.08594-.05858-.08984-.04297-.10547-.04688-.10156-.07422-.07422-.08594-.0586-.07421-.07421-.08985-.0586-.22265-.22265-.04297-.10547-.03125-.26563.10547-.04296h.14453l.10547.04296.07421.07422.08985.0586.08594.0586.10546.04687.08985.05859.14844.14844.0703.07422.14845.14843.0625.08594.07421.07422.08594.0586.07422.07421.08985.0625.08984.0586.08594.05859.26953.17578.10156.04688.10547.04296.10156.04297.04688-.07421.05859-.08594.07422-.07422.07031-.07422.10547.04297.07422.07422.0586.08984.04296.10156.04688.10547.04296.10547.1211.02735.11719-.02735.07421-.08984.04297-.10547.0586-.08985.07422-.07421.10546-.04297.1172-.02735.1328.01172.08985.0586.14844.14843.05859.08985.04297.10547.04687.10156.04297.10547.04297.10156.10547.04688.10547.04296.13281.01563.08594-.0586.0586-.08984.07421-.07422.10547-.04297.11719.02735.10547.04687.10156.04297.10547.04297.10156.04688.17969.11718v.11719l-.01563.13281.01563.13281.01562.13672.0586.08594.10156.04688.1211.02734.11718.03125h.14844l.11719-.03125.05859-.08984.17969-.1172.05859-.08983.07422-.07422.0586-.08594.11718-.17969.17969-.11719.11719.03125.08984.0586.04297.07422-.01563.1328v.1172l.08985.05859h.14843l.13282-.01563.1328-.01171.26563-.03125.10547-.04297.11719-.03125.1211-.02735.07421-.07421.07031-.07422.0625-.08985-.01562-.10547-.04688-.10156-.10156-.04297-.10547-.01562-.11718.02734-.26563.03125h-.14844l-.07421-.07422-.08985-.0586-.11719-.03124-.11718-.02735-.13282-.01562h-.14843l-.13282.01563h-.29687l-.10547-.04688-.14844-.14844-.04297-.10156-.05859-.08984.22266-.22266.08593-.0586.10547-.04296.11719-.03125.13281-.01563.13281.01563.13672.01562.10157.04297.1328-.01172.08985-.0625.10156-.04297.0625-.08984-.04687-.10156-.08984-.0586-.1172-.03125-.10155-.04296-.0586-.08985-.0625-.08984v-.11719l.01563-.13281.10547-.04688.07421-.07031v-.1211l-.08984-.05859-.03125-.11719.08985-.05859.07421-.07422.04297-.10547.0586-.08984.04687-.10156.01563-.13281v-.14844l-.04688-.10547-.04297-.10156-.08984-.0586-.13281-.01562-.10157-.04297-.13671-.01563-.1172-.03125h-.4453l-.13282-.01562-.13281-.01172-.13281-.01563-.11719-.03125h-.14844l-.13281-.01562-.13281-.01172-.26563-.03125-.1211-.04297-.08593-.0586-.07422-.07421v-.14844l.01172-.13281.10547-.04688.10156-.04296.13281-.01563h.15235l.13281-.01562h.29297l.1211.03125.10156.04296.08984.0586.23438.0625.12109-.04688.08984-.05859.10156-.04297.13282-.01562.10547.04296.10156.04688.13281.01172.1211-.02735h.14453l.12109-.03125.11719-.02734.10547-.04687.07421-.07422.08594-.0586.14844-.14843.0586-.08594.04687-.10547.02734-.11719.01563-.10547-.10156-.04296-.08985-.0586-.11719-.03125-.10546-.04297-.08985-.0625-.07422-.08594-.07422-.07421-.10156-.04297-.10547-.04688-.10156-.04297-.0586-.08984-.04687-.10156-.08594-.21094-.0625-.08594-.05859-.08984-.07422-.07422-.08594-.0586h-.26953l-.11719.03126-.08984.05859-.10156.04297-.13281.01562-.10547-.01562-.02735-.11719-.0625-.08984-.11718-.03125-.10157-.04297-.14843-.14844-.03125-.11719-.01563-.10546.07422-.07422.17969-.1172.11719-.02733.11718-.03125.13672.01562.10156.04297.10547.04297.10156.04687.10547.04297.1172.03125.1328.01563.1172.02734.1328.01563.10547-.01563.08985-.0586-.07422-.07421-.10547-.04297-.07422-.07422-.07422-.08984-.14844-.14844-.08593-.0586-.08985-.05859-.07422-.07422-.08984-.0586-.10156-.04687-.1211-.02734-.10156-.04688-.10547-.04296-.11719-.03125-.10156-.04297-.1211-.03125h-.14843l-.11719.03125-.10546.04297-.08594.0625-.17969.11718-.08594.0586-.08984.0586-.10547.04687-.08594.05859-.10547.04297-.10156.04297-.10547.04687-.07422.07422-.05859.08985-.0586.08593-.04687.10547-.0586.08594-.07421.07422-.13281-.01172-.1172-.03125h-.11718l-.07422.07422-.08984.0586-.07422.07421-.08984.0586-.08594.05859-.10547.04687-.10156.04297-.13672.01563-.10156-.04297-.14844-.14844-.10547-.04688h-.08594l-.10547.04688-.10156.04297-.1211.03125-.11718-.03125-.07422-.07422v-.11719l.03125-.1211.07422-.0703.0586-.08985.07421-.07422.11719-.03125.10547-.04296h.29297l.13281-.01563.13672-.01563.10156-.04296.08985-.0586.10156-.04687.08984-.0586.13281-.01171.08985.05859.13281.01172.08984-.0586.08594-.05859.10547-.04297.08984-.0586.08594-.0625.08985-.05859.14843-.14843.0586-.08594.05859-.08985.10547-.04296.13281-.01563.11719.02735.1211.03125.05859-.0586.05859-.08984.03125-.26563.02734-.11719.10547.01172.13281.01563.10157-.04297.08984-.0586.0586-.08984.07421-.07422.0586-.08984.04687-.10156.01172-.13281-.01172-.13282-.04687-.10547-.14844-.14843-.0586-.08985-.05859-.08594-.04297-.10546v-.44532l.01563-.1328v-.14845l.01172-.1328-.0586-.0586-.08984.0586-.10156-.04298-.17969-.11719-.08594-.05859-.0625-.08984-.0586-.08985-.07421-.07421-.08594-.0586-.1211.03125-.10155.01172-.10547.04688-.08594.05859-.10547.04297-.14844.14844-.08984.05859-.08594.0586-.08984.0625-.10547.04296-.13281.01563v-.1211l.10547-.04297.11718-.03125.07422-.0703.04297-.10548v-.14844l-.02734-.11718-.14844-.14844-.13281-.01563h-.14844l-.11719.03125-.10547.04297-.10156.04297-.08984.0625-.11719.02735-.07422-.07422.01172-.13281-.04297-.10157-.04297-.10547-.08984-.05859-.11719.02734-.1211.03125-.11718.03125-.10156.04297-.1211.03125-.10156.04297-.10547.04297-.08984.0586-.10156.01562v-.11719l.01562-.13281-.0586-.08985-.07421.04297-.14844.14844-.0586.08985-.07421.07421-.04688.10547-.04296.10156-.07422.07422-.0586.08985-.07422.07422-.05859.08593-.07422.07422-.08984.0625-.07422.07031-.07422.07422-.10156.01563-.13281.01562-.10547-.04296v-.1211l.14843-.14844.04297-.10156.0586-.08984.04687-.10156.04297-.10547.0586-.08985.03124-.11719.04297-.10156.03125-.1211.02735-.11718.04687-.10547.04297-.10156.04297-.10547.07422-.07031.08984-.0625.08985-.0586.10156-.04296h.29687l.26563-.03125.10547-.04297-.07422-.07422-.11719-.03125-.10547-.04297-.08984-.0586-.10156-.04687-.08985-.0586-.10156-.04296-.10547-.04297-.08984-.0625-.08594-.0586-.10547-.04296-.10156-.04297-.1211-.03125-.11718-.03125-.10157-.04297L297.5 410.25l-.10156-.04297-.08985-.0586-.04296-.10546-.01563-.13281.10156-.04297.13281-.01563.13672.01563.13282-.01563.10156-.04297.0586-.08984.01562-.10547-.08985-.0586-.07421-.07421-.10157-.04297-.08984-.0586-.14844-.14843-.04297-.10547-.01562-.13281v-.29297l-.0586-.08985-.08984-.05859-.07422-.07422-.04297-.10547-.03125-.11718-.0586-.08985-.07421-.07422-.11719-.02734-.07422-.07422-.08984-.0586-.08984-.0625-.08594-.05859-.07422-.07421-.0586-.08594-.04687-.10547-.08594-.0586-.14843-.14843-.19532-.0586-.1328.01563-.10157.04297-.07422.07422-.04688.10156-.04296.10547-.0586.08984-.0586.08594-.29687.29687-.08984.0586h-.08594l-.0625-.08594-.04297-.10547.03125-.11719.0586-.08984.02734-.11719-.01172-.13281-.08984-.0625-.10547.04688-.11719.02734-.11719.03125-.26953.17578-.10156.04688-.11719.02734-.10546.04687-.08985.0586-.10156.04297-.0586-.08594-.04687-.10547.01563-.13281.04687-.10547.07031-.07422.07422-.07031.0586-.08985v-.14843l-.04297-.10547h-.23829l-.10156.04687-.03125.11719-.02734.11719-.03125.1211-.07422.04296-.13281.01563-.07422-.04688-.04297-.10156-.04297-.10547-.04687-.10156-.04297-.10547-.1211.03125-.10156.04297-.13281.01562-.11719.03125-.10547.04297-.08984.0586-.10156.04687-.1211.02734-.13281.01563-.10156-.04297-.0586-.08985-.04687-.10546-.04297-.10157-.04297-.10546v-.1172l.0586-.08984.08593-.05859.17969-.11719.10156-.04687.10547-.04297.10547-.0586.10156-.04296.08985-.0625.10156-.04297.10547-.0586.10156-.04687.08984-.0586.10547-.04296.10156-.04297.08985-.0625.10156-.04297.13672-.01563.11719.03125.10156.04297.1211.03125.10156.04297.10546.04688.10157.04296.10547.04297.10156.04688.10547.04297.10156.04297.10547.04687.08594.0586.10546.04296.1172.03125.10546.04297.10156.04688.08985.0586.10547.04296.10156.04297.10547.04687.11719.02735.10156.04687.1211.02735h.14843l.08594-.0586.01562-.10156.0586-.08984-.02735-.1172-.07422-.07421-.11719-.17969-.07421-.07422-.08985-.07421-.17969-.1172-.08593-.05859-.10547-.04296-.10156-.04688-.26954-.17578-.05859-.08985-.07422-.07421-.0586-.08985-.04296-.10156-.03125-.11719-.01563-.13672v-.5625l-.01171-.1328-.01563-.13282-.03125-.11719-.01562-.13281-.01172-.13281-.03125-.1211-.22266-.22265-.0586-.08594-.01562-.10547.03125-.11719.13281-.01562v-91.41406H172.9922v1.45312l-.0586.23438-.35156 1.05078-.17187.52343-.1172.34766-.17577.41016-.11719.17187-.23438.29297-.23046.0586h-.35157l-.11718.05859-.23047.40625v.29297l.11719.17578.23046.23047.1172.23437.64062.75781.29297.46485.17578.23437.23047.35156.23437.34766.64063.8164.17578.46485.17187.41016.11719.69531.17578.46875.11719 1.39844.0586.46484v.875l.11718 1.04688v4.78125l-.0586.46484-.35156 1.28125-.17578.52344-.11328.41015-.35156.9297L172.93359 336l-.23437.58203-.11719.17578-.17187.34766-.17578.40625-.35157.8164-.0586.29297-.11327.29297-.11719.28906-.0586.17579-.11718.875-.0586.40625-.05859.11718-.0586.17579-.05859.17187-.23047.52734-.11718.17188v.23437l-.11719.23438-.0586.17187-.17577.58594v.28906l-.0586.17579v.29296l-.0586.11329-.05859.52734v.17187l-.05468.23438v2.6211l-.17578.8164-.1172.17578-.17577.23438-.1172.17187-.11327.23438-.58594.93359-.23047.28906-.29297.46485-.17578.23437-.28906.35156-.35156.69922-.11328.23047-.17579.41016-.17578.23046-.40625.52735-.8164.69922-.29297.17187-.28906.23438-.17579.11719-.17578.17578-.52344.40625-.52734.17578-.17187.17578-.23438.05469-.64062.17578h-.75782m12.21094 31.02344l-1.07422.44921.35938.89454 1.25-.71485.44531-.53906-.98047-.08985"/><path fill="#d3d3d3" fill-opacity="0" fill-rule="evenodd" d="M201.50781 416.59766h-.89453l.44922.6289.98047.35938.80469-.08985.4453-.98828-.17577.08985-.71485-.35547-.89453.35547m154.6211 59.0703l-.0586-.52343v-.29297l.11328-.29297.0586-.23046.46875-.46875h.11328l.11719-.11329.11718-.05859h.17579l.23437-.0586h.34766l.23437.0586.11719.0586.23047.17187.0586.17578.11718.58203v.29297l-.11719.17578-.17187.28906-.17579.17579-.52734.52343-.23047.23438-.11719.0586h-.17578l-.11718-.0586-.40625-.29297-.17579-.11719-.11718-.0586-.0586-.11327-.05468-.1172m6.64062-10.95702l-.0586-.17188v-1.10937l.0586-.17188.17578-.0586.17188-.05858h.17578l.23437-.0586.1172.0586.05858.69921-.05859.17188-.11719.17578-.11718.0586-.23438.52343-.11328.0586h-.23438l-.05859-.1172m9.61328-14.39062l-.11719-.17578v-.69922l.29297-.875.1172-.17187.17577-.35156.11328-.23047.1172-.29297.35155-.75781.1172-.23047.17187-.23438h.17578l.11719-.0586h.64062l.11719.0586.23437.23438.17188.11328.35156.29297.11719.11718.11328.17579v.11328l.11719.05859.11718.11719v.69922l-.05859.17578v.23047l-.0586.17578-.34765 1.05078-.11719.23047-.11719.23437-.11718.0586-.23047.23437-.64063.28906h-.875l-.41015-.11718-.64063-.46485"/><path fill="none" stroke="#bebebe" stroke-linecap="round" stroke-linejoin="round" stroke-miterlimit="10" stroke-width=".5" d="M467.95703 311.69531H144.02734v168.625h323.9297v-168.625"/><g clip-path="url(#a)"><path fill="#fff" fill-opacity="0" fill-rule="evenodd" d="M144 475.89063v4.4375h.0039H144V311.67188h.0039H144v164.21875"/></g><g clip-path="url(#b)"><path fill="#fff" fill-opacity="0" fill-rule="evenodd" d="M144.0039 480.32813V311.67188h57.69532v93.2539l-3.42969 4.39063-.40234 4.4375-.60547.83203-1.67578-.83203-2.76563-2.60547-3.90234 2.60547-.53516 1.12109-4.4375.23438-4.4375 1.39453-3.9336 1.6875-.5078.25-.19922-.25-4.23828-2.98047-4.4375.55078-1.76172 2.42969-2.67578 3.21093-1.32422 1.22657-.16016 4.4414-.04297 4.4375-.30469 4.4375-.91796 4.4375-.42188 4.4375.07813 4.4414-.46875 4.4375-.3047 4.4375-.05468 4.4375 3.92188 3.94923 4.4375-.38672 4.4375-1.45703 4.4375 1.53125 4.4414-.19922 4.4375-.90625 4.23438-2.53125.20312-.57422 2.94531-3.86328 1.4922-.3164 4.4414-1.5625 3.85547-2.5586.58203-.27735 4.4375-.64843 4.4375-1.10547 4.4414-2.05469 4.4375 1.82813 4.4375.3203 4.36329 1.9375.07422.04688.15234-.04687 4.28516-.38672 4.4414-2.0625 1.27344-1.98828L237.20703 448l-2.53125-3.17969-1.91016-3.98047-.43359-.45703.4336-.35547 4.4414-.21484.85547.57031 3.58203 3.5586 4.4375.51171 4.07422-4.0703.36328-2.70704 4.4375.88672 4.4414 1.1211 3.73438-3.73829.70313-1.44531 4.4375.82813v3.65625l-1.53125 1.39843 1.53125 1.5 1.60156-1.5-1.60156-1.39844v-3.65625l4.4375.07422 4.4414-.20312.60157.7461 3.83593 3.83202 4.4375-1.24609 4.4375-.0586 2.52344-2.52734 1.26172-4.4375.65234-1.55078 4.44141-.69531 3.5625-2.1914.875-.1797 4.4375-1.57421 4.4375-1.41407 1.27344-1.27343-1.27344-.87891-4.4375-1.63281-1.125-1.92578-3.3125-3.28516-4.4375.89453-4.4414-.84765-4.4375 1.34375-2.0547 1.89453-2.3828.45312-4.4375.29297-4.4375-.2539-4.44141.42187-3.55078 3.52344-.88672 1.08593-4.4375.10547-4.4375.30078-3.08985 2.94922-1.35156 1.35938-4.4375-.1875-4.4375-1.03906-.48828-.13282-3.94922-2.99219-1.44922-1.44921-2.98828-3.1875-3.3086 3.1875-.80077 4.4414-.33203.76172-.58204-.76172-3.85547-4.07422-4.4375-.125-.83984-.24218.07813-4.4375-3.67578-3.16016-3.48829-1.27734-.94922-.69141-4.4414-2.23047-4.4375-1.2539-.70703-.26172-3.73047-4.39063v-93.2539h133.14844V412.6953l-.88672 1.0586-3.55078 1.29296-4.4375-.04296-4.4375 1.22265-2.48829 1.96485-.48046 4.4375 2.96875 2.07812 4.4375 1.69531v24.4961l-3.47657 2.80078-.96093 1.11719-4.4375 2.26171-2.39454 1.0586 2.39454 3.04297.3203 1.39453 4.1172 2.83203 4.4375-1.58203 1.96484-1.25 2.25781-4.4375.21485-.11328 1.36328-4.32422-1.36328-1.2461-4.4375-1.55468v-24.4961l4.4375-.6953 4.4375-.6211 4.4414-.08594 1.17578 2.07031 3.26172 3.14063 1.1875 1.29687-.33984 4.4375 3.58984 3.58985.84375.84765 3.59375 3.58985 4.4414-.07422 4.4375.15625 4.4375-.10938 1.44923.875-1.44922 1.38281-4.4375.70313-2.3789 2.35547 1.76952 4.4375.60938 1.15625 3.85547 3.28125.58203.51172 4.4375 2.58594 1.60937 1.33984 2.82813.86328.89844-.86328 3.54296-2.78516.89844 2.78516 3.53906 3.8125.45704.6289-.45704 2.66797-1.27343 1.76954 1.27344 1.58593 1.76953-1.58594 2.66796-.45703 4.4375-.6953 3.375-3.28517 1.0625-1.60156 2.25391-2.83984 2.03125-4.4375.15625-.57813 2.36719-3.85937 1.67578-4.4375-1.0664-4.4414-2.97657-1.82423-1.91797-2.61328-2.52344-2.57031-3.17578-1.86719-1.26171-1.26953-4.4375-3.10937-.17188-.0586-4.26563-3.66797-4.4375.26563-4.4414-.48438-4.4375.2422-2.11328-.79298-2.32422-1.80078-4.4375 1.39844-1.25781-4.03906-3.1797-2.90235-1.29296-1.53515-3.14844-3.0625-4.4375-.77344-4.4375-.0625-4.4375-.08203-3.13672-.45703-1.30468-1.0586V311.67187h133.14843v149.64454l-4.43359-2.52735-4.4375 1.19531-2.16797-1.84765-2.27344-4.0586-.30468-.3789-4.13282-2.3086-1.48828 2.3086-1.78515 4.4375-.19922 4.4375 2.91797 4.4414.55468.42579.79297-.42579 3.64453-1.92578 4.44141-.875 4.4375 2.15625 4.4336-3.08203v13.04297l-3.38282 3.9961h-1.79687l-3.69141-2.63672-4.4414 1.98046-.52735.65625h-35.74219l-3.67578-3.26953-4.4375-.02343-3.54687 3.29296h-262.75"/></g><path fill="#50fcfc" fill-rule="evenodd" d="M161.7539 466.52344l-3.92187-3.94922.05469-4.4375.30469-4.4375.46875-4.4375-.07813-4.4414.42188-4.4375.91797-4.4375.30468-4.4375.04297-4.4375.16016-4.44141 1.32422-1.22657 2.67578-3.21093 1.76172-2.4297 4.4375-.55077 4.23828 2.98047.19922.25v6.1875l-4.4375.11328-2.51172 2.32812-1.92578 1.82422-2.39844 2.61328 2.39844 2.82813 4.4375 1.54297 1.64843-4.3711 2.78907-1.69531 3.5625-2.74219-3.5625-2.4414v-6.1875l.5078-.25 3.9336-1.6875v4.80859l-.72265 1.3164.72265 1.7422.3125-1.7422-.3125-1.3164v-4.8086l4.4375-1.39452 4.4375-.23438.53516-1.1211 3.90234-2.60546 2.76563 2.60547 1.67578.83203.60547-.83203.40234-4.4375 3.42969-4.39063v2.14063l-1.75781 2.25-.8672 4.4375-1.8125 2.49218-4.13671 1.94532-.30469.35937-3.78515 4.07813-.65235.48437-1.94922-.48437-2.48828-.92188-.73437.92188-.38281 4.4414-3.32032 2.08594-2.66797 2.35156-1.77343 1.89453-2.04688 2.54297-.17187 4.4375-2.21875 3.44531-3.8711-3.4453-.5664-.48438-4.4375-.02344-.1875.50781-1.08594 4.4375.19531 4.4414-1.16797 4.4375-.74219 4.4375-.02343 4.4375 3.01172 3.03126 4.4375-2.0625 1.48437-.96875 2.95313-3.8086 2.65234 3.8086 1.78516 1.21484 4.4414-.05469 2.78906-1.16015 1.64844-1.82422 1.58985-2.61328 2.84765-2.57813 4.4375-.49218 2.7461-1.3672 1.6953-.64843 4.4375-2.26562 4.4375.28906 3.44142-1.8125.99609-1.02735 4.4414-1.02343 4.4375.46094 4.4375-.23438 3.875 1.82422.5625.3086 4.4375 1.60156 2.41797-1.91016-2.41797-2.80469-4.4375-1.27734-.03906-.35938-2.26953-4.4375 2.3086-1.19922 3.47656-3.23828-3.47656-2.33594-1.48438-2.10156 1.48438-3.80078v3.14844l-.25391.65234.2539.35938.85157-.35938-.85156-.65234v-3.14844l.65234-.63672-.65234-.6875-4.4375-1.89453-4.4375 1-.59375-2.85937.59375-3.95313.15625-.48437-.15625-.13672-4.4375-3.5039-3.5625-.79688-.87891-.52344-4.4375-2.96875-2.52344-.94531-1.91406-2.25v-2.14063l3.73047 4.39063.70703.26171 4.4375 1.25391 4.4414 2.23047.94922.6914 3.48828 1.27735 3.67579 3.16016-.07813 4.4375.83984.24218 4.4375.125 3.85547 4.07422.58203.76172.33204-.76172.80078-4.4414 3.3086-3.1875 2.98827 3.1875 1.44922 1.44921 3.94922 2.9922.48828.1328 4.4375 1.03907 4.4375.1875 1.35156-1.35938 3.08985-2.94922 4.4375-.30078 4.4375-.10547.88672-1.08593 3.55078-3.52344 4.4414-.42188 4.4375.25391 4.4375-.29297 2.38282-.45312 2.05468-1.89454 4.4375-1.34375 4.44141.84766 4.4375-.89453v1.74219l-3.54688 1.54297-.89062.40625-4.21484-.40625-.22657-.03907-.0664.03907-4.3711 2.05078-4.4375.10156-4.4375.08984-4.4375-.33593-4.4414.67578-1.8711 1.85547-2.5664 3.15234-4.4375.03125-4.4375.80469-.47656.45312-3.96485 4.0039-4.4375-.76562-4.4375-1.94921-4.4375-1.20704-.19922-.08203-4.23828-4.23828-2.28516 4.23828-2.02343 4.4375.33984 4.4375 3.96875 2.9336 2.26172 1.5039 2.17578 2.16016 4.4375 1.3125 3.47266-3.47266.58594-4.4375.3789-2.27734 4.4375.375.23828 1.90234 4.20313 2.5664 2.5664-2.5664 1.8711-3.85937 4.4375 2.27734 4.4375.1914 4.4414-.5 1.52735 1.89063 2.91015 2.90235 4.29297-2.90235.14453-.08984 4.4375-.14844 2.73829-4.19922 1.69921-4.03906 1.23047-.39844 3.21094-.71094 4.4375-.72656 4.15625-3.0039-2.60156-4.4375-1.55469-1.54297v-1.74219l3.3125 3.28516 1.125 1.92578 4.4375 1.63281 1.27344.8789-1.27344 1.27344-4.4375 1.41407-4.4375 1.57421-.875.1797-3.5625 2.1914-4.4414.69531-.65235 1.55078-1.26172 4.4375-2.52344 2.52735-4.4375.05859-4.4375 1.2461-3.83593-3.83204-.60157-.7461-4.4414.20313-4.4375-.07421-4.4375-.82813-.70313 1.44531-3.73437 3.73828-4.4414-1.12109-4.4375-.88672-.36329 2.70703-4.07422 4.07031-4.4375-.51171-3.58203-3.5586-.85547-.57031-4.4414.21484-.4336.35547.4336.45703 1.91015 3.98047L237.20703 448l1.27344 1.26172-1.27344 1.98828-4.4414 2.0625-4.28516.38672-.15234.04687-.07422-.04687-4.36328-1.9375-4.4375-.32031-4.4375-1.82813-4.44141 2.05469-4.4375 1.10547-4.4375.64844-.58203.27734-3.85547 2.5586-4.4414 1.5625-1.4922.3164L188.38282 462l-.20313.57422-4.23438 2.53125-4.4375.90625-4.4414.19922-4.4375-1.53125-4.4375 1.45703-4.4375.38672"/><path fill="#00e8fc" fill-rule="evenodd" d="M161.7539 465.60547l-3.01171-3.03125.02344-4.4375.74218-4.4375 1.16797-4.4375-.19531-4.4414 1.08594-4.4375.1875-.50782v13.66797l-.0547.15625-1.46483 4.4375.02734 4.4375 1.49219 1.5039 2.48047-1.5039 1.95703-2.34375 1.89843-2.09375-1.89843-3.51563-3.90625-.92187-.53125-.15625V439.875l4.4375.02344.5664.48437 3.8711 3.44531 2.21875-3.4453.17187-4.4375 2.04688-2.54298v19.94532l-.39063.35156-2.98047 4.4375 3.3711 1.9414.90234-1.9414-.25-4.4375-.65234-.35156v-19.94532l1.77343-1.89453 2.66797-2.35156 3.32031-2.08594.38282-4.4414.73437-.92188 2.48828.92188 1.94922.48437.65235-.48437 3.78515-4.07813.30469-.35937 4.13672-1.94532 1.8125-2.49218.86719-4.4375 1.7578-2.25 1.91407 2.25 2.52344.9453v1.13282l-4.4375.35156-.61328 2.00782.61328 1.1328 3.26562 3.3047 1.17188 1.35937 1.60937 3.07813-1.60937 2.15234-4.4375-.5039-1.80469-1.64844-2.63281-3.2461-2.9414 3.2461 2.72265 4.4414-4.22266.52344-4.4375.08984-4.4375 1.91016-2.65234 1.91406-1.78516 1.0664-3.2539 3.3711 1.01953 4.4375 1.125 4.4375 1.10937 1.04688 3.16797 3.39453 1.26953 1.0664 4.4375.58985 4.4375.3086 4.4414-1.71094.44142-.25391 3.99609-4.19531 4.4375.23437.44922-.48047-.44922-.48437-4.4375-.20313-.98047-3.75-.47266-4.4375 1.45313-2.35547 4.4375-.18359 4.4375-1.4375 3.01953-.46094.48828-4.4375.9336-1.3789 1.15625-3.0625 1.47656-4.4375-2.63281-2.13672-4.44141.42969-1.30469-2.73047-3.13281-2.35938v-1.13281l4.4375 2.96875.8789.52344 3.5625.79687 4.4375 3.5039.15625.13673-.15625.48437-.59375 3.95313.59375 2.85937 4.4375-1v2.98828l-4.4375 3.86719-2.1875.16406 2.1875.1289v3.90626l-2.42187.40234 2.42188 1.3086 4.4375-.78125.1953-.52735-.1953-.10937-4.4375-.29297v-3.90625l4.4375 1.1914.89843-1.3203-.89844-4.03126v-2.98828l4.4375 1.89453.65235.6875-.65234.63672-1.48438 3.80078 1.48438 2.10156 3.47656 2.33594-3.47656 3.23828-2.3086 1.19922 2.26953 4.4375.03906.35938 4.4375 1.27734 2.41797 2.80469-2.41797 1.91015-4.4375-1.60156-.5625-.3086-3.875-1.82421-4.4375.23438-4.4375-.46094-4.4414 1.02344-.9961 1.02734-3.4414 1.8125-4.4375-.28906-4.4375 2.26562-1.69531.64844-2.7461 1.36719-4.4375.49218-2.84765 2.57813-1.58985 2.61328-1.64844 1.82422-2.78906 1.16015-4.4414.0547-1.78516-1.21485-2.65234-3.8086-2.95313 3.8086-1.48437.96875-4.4375 2.0625"/><path fill="#00d4fc" fill-rule="evenodd" d="M160.26172 462.57422l-.02734-4.4375 1.46484-4.4375.05469-.15625v4.4414l-.05078.15235.05078 3.07812.4453-3.07812-.4453-.15235v-4.4414l.53125.15625 3.90625.92187 1.89843 3.51563-1.89843 2.09375-1.95703 2.34375-2.48047 1.5039-1.4922-1.5039"/><path fill="#00c4fc" fill-rule="evenodd" d="M161.7539 461.21484l-.05077-3.07812.05078-.15235.4453.15235-.4453 3.07812"/><path fill="#fff" fill-opacity="0" fill-rule="evenodd" d="M166.1914 428.89453l-2.39843 2.61328 2.39844 2.82813 4.4375 1.54297 1.64843-4.3711 2.78907-1.69531 3.5625-2.74219-3.5625-2.4414-4.4375.11328-2.51172 2.32812-1.92578 1.82422"/><path fill="#50fcfc" fill-rule="evenodd" d="M174.67578 453.69922l-2.98047 4.4375 3.3711 1.9414.90234-1.9414-.25-4.4375-.65234-.35156-.39063.35156"/><path fill="#00d4fc" fill-rule="evenodd" d="M177.27344 440.38281l-1.01953-4.4375 3.2539-3.3711 1.78516-1.0664 2.65234-1.91406 4.4375-1.91016v3.59766l-.64062.22656-3.79688 1.44531-4.4375 2.14454-.8164.84765.8164 2.03906 2.01953 2.39844 2.41797 2.14063 2.64844 2.29687 1.78906 1.60547 4.4375.61719 3.16797-2.22266-2.03516-4.4375-1.0703-4.4375-.0625-.3086-2.73829-4.1289-1.69922-.22656v-3.59766l4.4375-.08984 4.22266-.52344-2.72266-4.4414 2.9414-3.2461 2.63282 3.2461 1.80469 1.64843 4.4375.50391 1.60937-2.15234-1.60937-3.07813-1.17188-1.35937-3.26562-3.3047-.61328-1.1328.61328-2.00782 4.4375-.35156v1.13281l-2.69922 1.22657 2.69922 2.72265 1.6289-2.72265-1.6289-1.22657v-1.1328l3.13281 2.35937 1.30469 2.73046 4.4414-.42968v1.5039l-2.1289.63282-2.3125 2.78125-.60156 1.65625.60156 2.23046 1.4375-2.23046 3.0039-2.55079.77735-1.88671-.77734-.63282v-1.5039l2.6328 2.13672-1.47655 4.4375-1.15625 3.0625-.9336 1.3789-.48828 4.4375-3.01953.46094-4.4375 1.4375-4.4375.1836-1.45313 2.35546.47266 4.4375.98047 3.75 4.4375.20313.44922.48437-.44922.48047-4.4375-.23437-3.9961 4.1953-.4414.25392-4.4414 1.71093-4.4375-.3086-4.4375-.58983-1.26954-1.06641-3.16797-3.39453-1.10937-1.04688-1.125-4.4375"/><path fill="#00c4fc" fill-rule="evenodd" d="M179.50781 437.98438l-.8164-2.03907.8164-.84765 4.4375-2.14454 3.79688-1.4453.64062-.22657 1.69922.22656 2.73828 4.1289.0625.3086 1.07031 4.4375 2.03516 4.4375-3.16797 2.22266-4.4375-.61719-1.78906-1.60547-2.64844-2.29687-2.41797-2.14063-2.01953-2.39844"/><path fill="#fff" fill-opacity="0" fill-rule="evenodd" d="M179.50781 421.3125l-.72265 1.3164.72265 1.7422.3125-1.7422-.3125-1.3164"/><path fill="#00c4fc" fill-rule="evenodd" d="M206.13672 416.47656l-2.69922-2.72265 2.69922-1.22657v1.13282l-.20313.09375.20313.20703.125-.20703-.125-.09375v-1.13282l1.6289 1.22657-1.6289 2.72265"/><path fill="#00b8fc" fill-rule="evenodd" d="M206.13672 413.96094l-.20313-.20703.20313-.09375.125.09375-.125.20703"/><path fill="#00c4fc" fill-rule="evenodd" d="M210.57422 424.85938l-.60156-2.23047.60156-1.65625 2.3125-2.78125 2.1289-.63282.77735.63282-.77734 1.88671-3.00391 2.55079-1.4375 2.23046"/><path fill="#50fcfc" fill-rule="evenodd" d="M219.45313 435.54297l-2.42188.40234 2.42188 1.3086 4.4375-.78125.1953-.52735-.1953-.10937-4.4375-.29297"/><path fill="#00d4fc" fill-rule="evenodd" d="M219.45313 431.63672l-2.1875-.1289 2.1875-.16407 4.4375-3.86719.89843 4.03125-.89844 1.32031-4.4375-1.1914"/><path fill="#fff" fill-opacity="0" fill-rule="evenodd" d="M228.32813 430.85547l-.25391.65234.2539.35938.85157-.35938-.85156-.65234"/><path fill="#00e8fc" fill-rule="evenodd" d="M233.23828 435.94531l-.33984-4.4375 2.02344-4.4375 2.28515-4.23828v4.85938l-2.60156 3.8164.74219 4.4375 1.85937 1.3711 4.4375 2.92968.125.13672 4.3125 2.47656 2.47656-2.47656.54297-4.4375-.83203-4.4375-2.1875-1.22265-4.4375-.70313-4.4375-1.89062v-4.85938l4.23828 4.23828.19922.08203 4.4375 1.20704 4.4375 1.94921 4.4375.76563 3.96484-4.0039.47657-.45313v2.34765l-2.53125 2.54297 1.52344 4.4375 1.0078.61328.61329-.61328 1.96875-4.4375-2.58203-2.54297v-2.34765l4.4375-.80469 4.4375-.03125 2.5664-3.15234 1.8711-1.85547 4.4414-.67578v2.35546l-.82421.17579-3.6172.49609-3.58593 3.94531-.85156 1.97266-2.11328 2.46484 2.11328 1.25 4.4375.375 4.4414-.99219 3.07813 3.8047 1.35937 1.35937 2.00782-1.35938 2.42968-1.52344 4.4375-1.39843.9922-1.51563-.9922-2.1289-3.51953-2.3086-.91797-2.01953-4.4375-2.17578-2.6953-.2461-1.7422-.17577v-2.35547l4.4375.33593 4.4375-.08984 4.4375-.10156 4.3711-2.05078.0664-.03907.22657.03907 4.21484.40625.89063-.40625 3.54687-1.54297V420.5l-4.4375 1.14453-4.4414.17578-1.4336.8086 1.4336.875 4.4414.03906 4.4375-.0039 1.2539-.91016-1.2539-2.12891v-3.85156l1.55469 1.54297 2.60156 4.4375-4.15625 3.0039-4.4375.72656-3.21094.71094-1.23047.39844-1.69921 4.03906-2.73829 4.19922-4.4375.14844-.14453.08984-4.29297 2.90235-2.91015-2.90235-1.52735-1.89062-4.4414.5-4.4375-.1914-4.4375-2.27735-1.8711 3.85937-2.5664 2.5664-4.20313-2.5664-.23828-1.90234-4.4375-.375-.3789 2.27734-.58594 4.4375-3.47266 3.47266-4.4375-1.3125-2.17578-2.16016-2.26172-1.5039-3.96875-2.9336"/><path fill="#00d4fc" fill-rule="evenodd" d="M235.34766 435.94531l-.7422-4.4375 2.60157-3.8164v2.5078l-.89062 1.3086.89062 3.60156.3789.83594 4.0586 2.42578 1.85938 2.01172 2.57812 1.48047 1.48047-1.48047.4961-4.4375-1.97657-3.72265-4.4375-.10547-1.25781-.60938-3.17969-1.3086v-2.5078l4.4375 1.89062 4.4375.70313 2.1875 1.22265.83203 4.4375-.54297 4.4375-2.47656 2.47656-4.3125-2.47656-.125-.13672-4.4375-2.92968-1.85937-1.3711"/><path fill="#00c4fc" fill-rule="evenodd" d="M237.20703 435.10938l-.89062-3.60157.89062-1.3086 3.17969 1.3086 1.25781.60938 4.4375.10547v1.95703l-4.4375.89453-.92578.8711.92578.55077 3.59766 3.88672.83984.48438.48047-.48438.45703-4.4375-.9375-1.76562v-1.95703l1.97656 3.72265-.49609 4.4375-1.48047 1.48047-2.57812-1.48047-1.85938-2.01172-4.0586-2.42578-.3789-.83594"/><path fill="#00b8fc" fill-rule="evenodd" d="M241.64453 436.4961l-.92578-.55079.92578-.8711 4.4375-.89452.9375 1.76562-.45703 4.4375-.48047.48438-.83984-.48438-3.59766-3.88672"/><path fill="#00d4fc" fill-rule="evenodd" d="M258.39063 435.94531l-1.52344-4.4375 2.53125-2.54297v2.12891l-.41016.41406.41016.97656.41797-.97656-.41797-.41406v-2.1289l2.58203 2.54296-1.96875 4.4375-.61328.61328-1.00781-.61328"/><path fill="#00c4fc" fill-rule="evenodd" d="M259.39844 432.48438l-.41016-.97657.41016-.41406.41797.41406-.41797.97656"/><path fill="#00d4fc" fill-rule="evenodd" d="M268.27344 432.75781l-2.11328-1.25 2.11328-2.46484.85156-1.97266 3.58594-3.94531v1.49219l-2.23047 2.45312.45312 4.4375 1.77735.20703.80078-.20703 3.64062-2.0586.5586 2.0586 3.8789 4.32422 4.4375-2.84765 3.125-1.47657-3.125-2.44922-2.03515-1.98828-2.40235-2.08594-4.4375.0625-4.4414-.42968V423.125l3.61719-.4961.82421-.17577 1.7422.17578 2.6953.24609 4.4375 2.17578.91797 2.01953 3.51953 2.3086.9922 2.1289-.9922 1.51563-4.4375 1.39844-2.42968 1.52343-2.00782 1.35938-1.35937-1.35938-3.07813-3.80469-4.4414.9922-4.4375-.375"/><path fill="#50fcfc" fill-rule="evenodd" d="M268.27344 441.88281l-1.53125-1.5 1.53125-1.39844 1.60156 1.39844-1.60156 1.5"/><path fill="#00c4fc" fill-rule="evenodd" d="M270.9336 431.50781l-.45313-4.4375 2.23047-2.45312v1.49219l-.8711.96093.8711 1.91016L276 427.0703l-3.28906-.96094v-1.49218l4.4414.42969 4.4375-.0625v2.09765l-3.04296 4.42578 3.04296 3.39063 4.4375-3.34766.09766-.04297-.09766-.07812-4.4375-4.34766v-2.09765l2.40235 2.08593 2.03515 1.98828 3.125 2.44922-3.125 1.47656-4.4375 2.84766-3.8789-4.32422-.5586-2.0586-3.64062 2.0586-.80078.20703-1.77735-.20703"/><path fill="#00b8fc" fill-rule="evenodd" d="M272.71094 428.98047l-.8711-1.91016.8711-.96094 3.28906.96094-3.28906 1.91016m8.8789 5.91797l-3.04296-3.39063 3.04296-4.42578v1.21485l-2.20703 3.21093 2.20703 2.46094 3.2461-2.46094-3.2461-3.21094v-1.21484l4.4375 4.34766.09766.07812-.09766.04297-4.4375 3.34766"/><path fill="#00a8fc" fill-rule="evenodd" d="M281.58984 433.96875l-2.20703-2.46094 2.20703-3.21094v1.21485l-1.37109 1.9961 1.3711 1.52734 2.01562-1.52735-2.01563-1.9961v-1.21483l3.2461 3.21093-3.2461 2.46094"/><path fill="#009800" fill-rule="evenodd" d="M281.58984 433.03516l-1.37109-1.52735 1.3711-1.9961v1.21485l-.53516.78125.53515.59766.78907-.59766-.78907-.78125v-1.21484l2.01563 1.9961-2.01563 1.52734"/><path fill="#00ac00" fill-rule="evenodd" d="M281.58984 432.10547l-.53515-.59766.53515-.78125.78907.78125-.78907.59766"/><path fill="#00d4fc" fill-rule="evenodd" d="M294.90234 423.5039l-1.43359-.875 1.4336-.80859 4.4414-.17578 4.4375-1.14453 1.2539 2.1289-1.2539.91016-4.4375.0039-4.4414-.03905"/><path fill="#50fcfc" fill-rule="evenodd" d="M317.09766 461.17969l-2.39454-3.04297 2.39454-1.0586 4.4375-2.26171v7.4453l-.09375.3125.09375.06642.1328-.06641-.1328-.3125v-7.44531l.96093-1.1172 3.47657-2.80077 4.4375 1.55469 1.36328 1.24609-1.36328 4.32422-.21485.11328-2.25781 4.4375-1.96484 1.25-4.4375 1.58203-4.1172-2.83203-.3203-1.39453m4.4375-36.47266l-2.96875-2.07812.48046-4.4375 2.48829-1.96485 4.4375-1.22265v2.11718l-2.26563 1.07032-1.42187 4.4375 3.6875 2.58203 4.4375-1.83594 2.47656-.7461 1.0664-4.4375-3.54296-.99218-4.4375-.07813v-2.11718l4.4375.04296 3.55078-1.29296.88672-1.0586 1.30468 1.0586 3.13672.45703 4.4375.08203v.97265l-4.4375.21094-4.21094 2.71485 4.21094 3.82812.48828.60938 2.73047 4.4414 1.21875 1.17188 2.99219 3.26562-.85938 4.4375 2.3047 2.30469 2.12109 2.13281 2.3164 2.3164 4.4414-.21874 4.4375.39453 4.4375-.3711 3.82813 2.31641-3.82812 3.65235-2.52344.78906 2.52344 3.36719.80078 1.0703 3.63672 1.72267 4.4375-1.23438v3.41797l-1.89453.53125 1.89453 2.19922 1.3125-2.19922-1.3125-.53125v-3.41797l4.4414.8086 1.13282 3.14062 1.20703 4.4375 2.09765 2.25781 1.58204 2.1836 2.85546 2.85546 4.4375-2.30078.57422-.55469 3.26172-4.4414.60156-.80078 2.5586-3.63672.92187-4.4375.96094-.96094 2.39453-3.47656-2.39453-3.16797-2.0039-1.27344-2.4375-3.40234-.56641-1.03516-3.8711-2.91015-.41796-1.52735-4.01954-3.85547-1.66796-.58203-2.76954-2.38281-4.4375 1.16797-4.4414-.03516-4.4375-.34765-4.4375.3125-4.4375-1.27344-4.4375-1.76953-.21485-.10938.21485-2.15625.30469-2.28515-.3047-.27735-3.5-4.16015-.9414-.91407-4.4375-1.53906-4.4375-.47265v-.97266l4.4375.0625 4.4375.77344 3.14844 3.0625 1.29297 1.53515 3.17969 2.90235 1.2578 4.03906 4.4375-1.39844 2.32423 1.80078 2.11328.79297 4.4375-.24219 4.4414.48438 4.4375-.26563 4.26563 3.66797.17188.0586 4.4375 3.10937 1.26171 1.26953 3.17579 1.86719 2.52343 2.57031 1.91797 2.61328 2.97656 1.82422 1.06641 4.4414-1.67578 4.4375-2.36719 3.85938-.15625.57813-2.03125 4.4375-2.2539 2.83984-1.0625 1.60156-3.375 3.28516-4.4375.69531-2.66797.45704-1.76954 1.58593-1.27343-1.58594 1.27344-1.76953.45703-2.66796-.45704-.62891-3.53906-3.8125-.89844-2.78516-3.54296 2.78516-.89844.86328-2.82813-.86328-1.60937-1.33985-4.4375-2.58593-.58203-.51172-3.85547-3.28125-.60938-1.15625-1.76953-4.4375 2.3789-2.35547 4.4375-.70313 1.44923-1.3828-1.44922-.875-4.4375.10937-4.4375-.15625-4.4414.07422-3.59376-3.58985-.84375-.84765-3.58984-3.58985.33984-4.4375-1.1875-1.29687-3.26172-3.14063L339.28906 425l-4.4414.08594-4.4375.6211-4.4375.6953-4.4375-1.6953"/><path fill="#00e8fc" fill-rule="evenodd" d="M321.53516 462.64063l-.09375-.06641.09375-.3125.1328.3125-.1328.0664m4.4375-37.42968l-3.6875-2.58203 1.42187-4.4375 2.26563-1.07032v4.17579l-.84766 1.33203.84766.59375 1.1953-.59375-1.1953-1.33204v-4.17578l4.4375.07813 3.54296.99219-1.0664 4.4375-2.47656.74609-4.4375 1.83594"/><path fill="#00d4fc" fill-rule="evenodd" d="M325.97266 423.22266l-.84766-.59375.84766-1.33204 1.1953 1.33204-1.1953.59375"/><path fill="#00e8fc" fill-rule="evenodd" d="M339.28906 422.01953l-4.21094-3.82812 4.21094-2.71485 4.4375-.21094v1.6172l-4.4375.70702-.9336.60157.9336.85156 2.875 3.58594 1.5625 2.24218 1.58594 2.19922 2.85156 3.0586 2.60547 1.3789-2.60547 3.86719-.16406.57031.16406.16406 4.2461 4.27344.1914.1914 1.96485-.1914 2.47656-.16797 1.32031.16797 3.11719.53125 3.09765-.53125-3.09765-1.39844-.75-3.03906.11328-4.4375-3.80078-2.45312-3.71875-1.98438-.72266-2.60156-.61719-1.83984-3.46875-4.4375-.35156-.14844-4.4375-1.16016v-1.61719l4.4375.47266 4.4375 1.53906.9414.91407 3.5 4.16015.3047.27735-.3047 2.28515-.21483 2.15625.21484.10938 4.4375 1.76953 4.4375 1.27344 4.4375-.3125v8.04296l-1.70313 2.4297 1.70313 3.47265 4.4375-3.13672v1.16016l-3.32422 2.9414-1.11328 3.25-1.2461 1.1914 1.2461 1.35938 4.4375-.17578 2.3086-1.1836.60156-4.4414-2.91016-2.9414v-1.16016l4.125-.33594-4.125-.6211-4.4375-1.80858v-8.04297l4.4375.34765 4.4414.03516 4.4375-1.16797v2.14453l-.6328.23828-3.8047 1.23828-4.4414.90235-2.59375 2.29687 2.59375 1.65625 4.4414 1.17188v1.88281l-.3828 4.16406.3828 1.4414 2.53907 3-1.91797 4.4375 3.8164 2.06642 2.66407-2.06641.30078-4.4375-1.51563-4.4414-1.44921-.75-4.4375-3.41407v-1.88281l1.39843 1.60937 3.03906 2.50781 3.71875 1.9297.71875 1.32812 3.57422 3.11328-2.16406 4.4375-1.41015 1.82422-4.4375 2.39844-.30079.21484.30079 1.94531.4375 2.49219 3.02343 4.4414.97656.97266 1.65235-.97265 2.78515-3.48829.7422-.95312-.2461-4.4375 3.32422-4.4375.61719-.67578 3.76171-3.76172-3.76171-2.4375-4.32422-2.0039-.11329-.50782-.28906-3.92969-1.03515-4.4375-3.11329-2.98828-4.16406-1.44922-.27344-.23828V429.125l2.76954 2.38281 1.66796.58203 4.01954 3.85547.41796 1.52735 3.8711 2.91015.5664 1.03516 2.4375 3.40234 2.00391 1.27344 2.39453 3.16797-2.39453 3.47656-.96094.96094-.92187 4.4375-2.5586 3.63672-.60156.80078-3.26172 4.4414-.57421.5547-4.4375 2.30077-2.85547-2.85546-1.58204-2.1836-2.09765-2.25781-1.20703-4.4375-1.13281-3.14063-4.44141-.80859-4.4375 1.23438-3.63672-1.72266-.80078-1.07031-2.52344-3.3672 2.52344-.78905 3.82812-3.65235-3.82812-2.3164-4.4375.37109-4.4375-.39453-4.4414.21875-2.31641-2.3164-2.1211-2.13282-2.30469-2.30469.85938-4.4375-2.99219-3.26562-1.21875-1.17188-2.73047-4.4414-.48828-.60938"/><path fill="#00d4fc" fill-rule="evenodd" d="M339.28906 419.04297l-.9336-.85156.9336-.60157 4.4375-.70703 4.4375 1.16016v6.36328l-.38281 2.66406.38281.41016.72656-.41016-.72656-2.66406v-6.36328l.35156.14844 3.46875 4.4375.6172 1.83984.72265 2.60156 3.71875 1.98438v1.8711l-1.46094.58202-2.98047 1.1875-2.89453 3.25 2.89453 2.91016 4.4414-.1211 2.41017-2.78906-1.51172-4.4375-.89844-.58203v-1.8711l3.80078 2.45313-.11328 4.4375.75 3.03906 3.09765 1.39844-3.09765.53125-3.11719-.53125-1.32031-.16797-2.47656.16797-1.96485.1914-.1914-.1914-4.2461-4.27344-.16406-.16406.16406-.57031 2.60547-3.86719-2.60547-1.3789-2.85156-3.0586-1.58594-2.19922-1.5625-2.24218-2.875-3.58594"/><path fill="#00c4fc" fill-rule="evenodd" d="M348.16406 427.48047l-.38281-.41016.38281-2.66406.72656 2.66406-.72656.41016m4.4375 11.375l-2.89453-2.91016 2.89453-3.25 2.98047-1.1875 1.46094-.58203v2.51953l-4.4414 1.125-1.22266 1.375 1.22265 1.23047 4.4414.08203 1.13282-1.3125-1.13281-2.5v-2.51953l.89844.58203 1.51171 4.4375-2.41015 2.78906-4.4414.1211"/><path fill="#00b8fc" fill-rule="evenodd" d="M352.60156 437.17578l-1.22265-1.23047 1.22265-1.375 4.4414-1.125 1.13282 2.5-1.13281 1.3125-4.4414-.08203"/><path fill="#50fcfc" fill-rule="evenodd" d="M370.35547 437.95313l-1.70313 2.42968 1.70313 3.47266 4.4375-3.13672 4.125-.33594-4.125-.6211-4.4375-1.80858"/><path fill="#00d4fc" fill-rule="evenodd" d="M370.35547 450.6211l-1.2461-1.35938 1.2461-1.1914 1.11328-3.25 3.32422-2.94141v1.16406l-2.01172 1.77734 2.01172 3.09375 1.76172-3.09375-1.76172-1.77734v-1.16406l2.91015 2.9414-.60156 4.4414-2.3086 1.1836-4.4375.17578"/><path fill="#00d4fc" fill-rule="evenodd" d="M374.79297 437.60156l-2.59375-1.65625 2.59375-2.29687 4.4414-.90235 3.8047-1.23828.6328-.23828.27344.23828 4.16406 1.44922v.86719l-4.4375.35156-4.4375.42969-3.35546 1.33984 3.35546 1.1836 2.82813 3.2539 1.60938 1.32813 4.4375.83203 1.6289-2.16016.58203-4.4375-2.21094-2.1211v-.86718l3.11329 2.98828 1.03515 4.4375.28906 3.92969.11329.50781 4.32421 2.0039 3.76172 2.4375-3.76171 3.76173-.6172.67578-3.32421 4.4375.2461 4.4375-.7422.95312-2.78515 3.48829-1.65235.97265-.97656-.97265-3.02344-4.44141-.4375-2.49219-.30078-1.94531.30079-.21485 4.4375-2.39843v5.91015l-.57422 1.14063.57421 1.14844.80079-1.14844-.80079-1.14063v-5.91015l1.41016-1.82422 2.16406-4.4375-3.57421-3.11328-.71875-1.32813-3.71875-1.92969-3.03907-2.5078-1.39844-1.60938-4.4414-1.17188"/><path fill="#00c4fc" fill-rule="evenodd" d="M374.79297 447.91406l-2.01172-3.09375 2.01172-1.77734v1.16015l-.69922.6172.69922 1.07812.61328-1.07813-.61328-.61719v-1.16015l1.76172 1.77734-1.76172 3.09375"/><path fill="#fff" fill-opacity="0" fill-rule="evenodd" d="M374.79297 457.60547l-1.89453.53125 1.89453 2.19922 1.3125-2.19922-1.3125-.53125"/><path fill="#00b8fc" fill-rule="evenodd" d="M374.79297 445.89844l-.69922-1.07813.69922-.61719.61328.6172-.61328 1.07812"/><path fill="#00c4fc" fill-rule="evenodd" d="M379.23438 437.1289l-3.35547-1.18359 3.35546-1.33984 4.4375-.42969 4.4375-.35156v.86719l-3.45703 1.2539-.98046 3.40235-.1797 1.03515.1797.14844 1.15625-.14844 3.28125-.8711 1.30468-3.5664-1.30469-1.2539v-.8672l2.21094 2.1211-.58203 4.4375-1.6289 2.16016-4.4375-.83203-1.60938-1.32813-2.82813-3.2539"/><path fill="#50fcfc" fill-rule="evenodd" d="M379.23438 440.65625l-.38282 4.16406.38281 1.4414 2.53907 3-1.91797 4.4375 3.8164 2.06642 2.66407-2.06641.30078-4.4375-1.51563-4.4414-1.44921-.75v.70702l.08593.04297-.08594 1.40625v3.86719l1 3.60547-1 .77344-1.42968-.77344 1.42969-3.60547v-3.86719l-.5586-1.40625.5586-.04297v-.70703l-4.4375-3.41406"/><path fill="#fff" fill-opacity="0" fill-rule="evenodd" d="M383.67188 450.09375l-1.4297 3.60547 1.4297.77344 1-.77344-1-3.60547m0-5.3164l-.5586.04296.5586 1.40625.08593-1.40625-.08594-.04297"/><path fill="#00b8fc" fill-rule="evenodd" d="M383.67188 440.53125l-.1797-.14844.1797-1.03515.98046-3.40235 3.45704-1.2539v.86718l-1.06641.38672 1.0664 1.09766.40235-1.09766-.40235-.38672v-.86718l1.3047 1.2539-1.3047 3.5664-3.28125.8711-1.15625.14844"/><path fill="#00a8fc" fill-rule="evenodd" d="M388.10938 437.04297l-1.06641-1.09766 1.0664-.38672.40235.38672-.40235 1.09766"/><path fill="#00c4fc" fill-rule="evenodd" d="M388.10938 463.72266l-.57422-1.14844.57421-1.14063.80079 1.14063-.80079 1.14844"/><g clip-path="url(#c)"><path fill="#50fcfc" fill-rule="evenodd" d="M406.7539 480.32813h2.17579l1.3711-1.27344 4.4375 1.19531.08983.07813h3.58594l-3.67578-3.26954-4.4375-.02343-3.54687 3.29296"/></g><g clip-path="url(#d)"><path fill="#00e8fc" fill-rule="evenodd" d="M408.92969 480.32813l1.3711-1.27344 4.4375 1.19531.08983.07813h-5.89843"/></g><path fill="#50fcfc" fill-rule="evenodd" d="M449.6914 467.01563l-2.91796-4.44141.19922-4.4375 1.78515-4.4375 1.48828-2.3086v4.60157l-1.27734 2.14453 1.27734 3.17578 2.04297-3.17578-2.04297-2.14453v-4.60156l4.13282 2.30859.30468.3789 2.27344 4.0586 2.16797 1.84765 4.4375-1.1953v1.52734l-3.0625 2.2578 3.0625 2.26563 2.75781-2.26562-2.75781-2.25781v-1.52735l4.4336 2.52735v1.97265l-4.4336 3.08203-4.4375-2.15625-4.4414.875-3.64454 1.92579-.79297.42578-.55468-.42579"/><path fill="#00e8fc" fill-rule="evenodd" d="M450.2461 461.3125l-1.27735-3.17578 1.27734-2.14453 2.04297 2.14453-2.04297 3.17578"/><g clip-path="url(#e)"><path fill="#50fcfc" fill-rule="evenodd" d="M454.15625 480.32813l.52734-.65625 4.44141-1.98047 3.6914 2.63671h-8.66015"/></g><path fill="#00e8fc" fill-rule="evenodd" d="M463.5625 464.83984l-3.0625-2.26562 3.0625-2.25781 2.75781 2.2578-2.75781 2.26563"/><g clip-path="url(#f)"><path fill="#50fcfc" fill-rule="evenodd" d="M467.9961 476.33203v3.9961h-3.38282l3.38281-3.9961"/></g><path fill="#fff" fill-opacity="0" fill-rule="evenodd" d="M467.9961 463.28906v13.04297l.0039-.0039v-13.04297l-.0039.0039"/><path fill="#50fcfc" fill-rule="evenodd" d="M467.9961 461.3164v1.97266l.0039-.0039v-1.96485l-.0039-.0039"/><g clip-path="url(#g)"><path fill="#fff" fill-opacity="0" fill-rule="evenodd" d="M467.9961 311.67188H468V461.3203 311.67187h-.0039"/></g><path fill="#fff" fill-opacity="0" fill-rule="evenodd" d="M323.22656 420.47656l5.79297-.7539-1.28515-9.87891-5.79297.7539 1.28515 9.87891"/><path fill-rule="evenodd" d="M325.64844 411.96484l.5039-.0664.8125 6.24219-.78125.10156-.57812-4.45313-1.3789.17969-.07032-.55078.54688-.13672.24218-.08594.21485-.11719.18359-.16796.14844-.23047.10156-.3086.05469-.40625"/><path fill="#fff" fill-opacity="0" fill-rule="evenodd" d="M223.125 426.22656l5.33594 2.38281 4.0664-9.09375-5.33203-2.3828-4.07031 9.09374"/><path fill-rule="evenodd" d="M229.64063 420.23438l.46484.20703-2.57031 5.74609-.71875-.32031 1.83203-4.09766-1.26563-.5664.22656-.50782.53516.16797.2539.05469.2461.01172.24219-.04688.2461-.1211.25-.21093.2578-.3164"/><path fill="#fff" fill-opacity="0" fill-rule="evenodd" d="M295.625 441.47266l2.96094-5.03907-8.58985-5.04296-2.95703 5.03906 8.58594 5.04297"/><path fill-rule="evenodd" d="M290.39063 434.33984l.2578-.4414 5.42579 3.1875-.39844.67969-3.8711-2.27344-.70312 1.19531-.47656-.28125.22656-.51563.08203-.24218.03907-.24219-.01954-.25-.09375-.2539-.18359-.27344-.28515-.28907"/><path fill="#fff" fill-opacity="0" fill-rule="evenodd" d="M182.58203 471.07422l5.44531-2.11328-3.60156-9.28516-5.44531 2.10938 3.60156 9.28906"/><path fill-rule="evenodd" d="M182.90625 462.23047l.47266-.1836 2.27734 5.8711-.73438.28125-1.62109-4.1836-1.29687.5-.19922-.51562.4961-.26563.21874-.14062.17969-.16406.14062-.20703.08594-.25782.02344-.32812-.04297-.40625"/><g clip-path="url(#h)"><path fill="none" stroke="#000" stroke-linecap="round" stroke-linejoin="round" stroke-miterlimit="10" stroke-width=".5" d="M146.08594 477.5l-4.17188 5.65625"/></g><path fill="none" stroke="#000" stroke-linecap="round" stroke-linejoin="round" stroke-miterlimit="10" stroke-width=".5" d="M145.47656 478.32422l1.21485.17969"/><g clip-path="url(#i)"><path fill="none" stroke="#000" stroke-linecap="round" stroke-linejoin="round" stroke-miterlimit="10" stroke-width=".5" d="M160.58594 479.04297l-6.53906 2.57031"/></g><g clip-path="url(#j)"><path fill="none" stroke="#000" stroke-linecap="round" stroke-linejoin="round" stroke-miterlimit="10" stroke-width=".5" d="M159.63281 479.41797l.9336.79687"/></g><g clip-path="url(#k)"><path fill="none" stroke="#000" stroke-linecap="round" stroke-linejoin="round" stroke-miterlimit="10" stroke-width=".5" d="M174.09766 479.75781l-6.9336 1.14063"/></g><g clip-path="url(#l)"><path fill="none" stroke="#000" stroke-linecap="round" stroke-linejoin="round" stroke-miterlimit="10" stroke-width=".5" d="M173.08984 479.92188l.7422.97656"/></g><g clip-path="url(#m)"><path fill="none" stroke="#000" stroke-linecap="round" stroke-linejoin="round" stroke-miterlimit="10" stroke-width=".5" d="M187.45703 480.2461l-7.02344.16796"/></g><g clip-path="url(#n)"><path fill="none" stroke="#000" stroke-linecap="round" stroke-linejoin="round" stroke-miterlimit="10" stroke-width=".5" d="M186.4375 480.26953l.60156 1.07031"/></g><g clip-path="url(#o)"><path fill="none" stroke="#000" stroke-linecap="round" stroke-linejoin="round" stroke-miterlimit="10" stroke-width=".5" d="M200.76953 480.14844l-7.01953.35937"/></g><g clip-path="url(#p)"><path fill="none" stroke="#000" stroke-linecap="round" stroke-linejoin="round" stroke-miterlimit="10" stroke-width=".5" d="M199.75 480.20313l.6289 1.05078"/></g><g clip-path="url(#q)"><path fill="none" stroke="#000" stroke-linecap="round" stroke-linejoin="round" stroke-miterlimit="10" stroke-width=".5" d="M214.08594 480.17188l-7.01953.3125"/></g><g clip-path="url(#r)"><path fill="none" stroke="#000" stroke-linecap="round" stroke-linejoin="round" stroke-miterlimit="10" stroke-width=".5" d="M213.0625 480.21875l.625 1.05469"/></g><g clip-path="url(#s)"><path fill="none" stroke="#000" stroke-linecap="round" stroke-linejoin="round" stroke-miterlimit="10" stroke-width=".5" d="M227.32031 481.09375l-6.85937-1.53125"/></g><g clip-path="url(#t)"><path fill="none" stroke="#000" stroke-linecap="round" stroke-linejoin="round" stroke-miterlimit="10" stroke-width=".5" d="M226.32031 480.8711l.32813 1.18359"/></g><g clip-path="url(#u)"><path fill="none" stroke="#000" stroke-linecap="round" stroke-linejoin="round" stroke-miterlimit="10" stroke-width=".5" d="M240.52344 481.48828l-6.63281-2.32031"/></g><g clip-path="url(#v)"><path fill="none" stroke="#000" stroke-linecap="round" stroke-linejoin="round" stroke-miterlimit="10" stroke-width=".5" d="M239.5586 481.15234l.18359 1.21094"/></g><g clip-path="url(#w)"><path fill="none" stroke="#000" stroke-linecap="round" stroke-linejoin="round" stroke-miterlimit="10" stroke-width=".5" d="M253.85547 481.4375l-6.66797-2.21875"/></g><g clip-path="url(#x)"><path fill="none" stroke="#000" stroke-linecap="round" stroke-linejoin="round" stroke-miterlimit="10" stroke-width=".5" d="M252.88281 481.11328l.20703 1.21094"/></g><g clip-path="url(#y)"><path fill="none" stroke="#000" stroke-linecap="round" stroke-linejoin="round" stroke-miterlimit="10" stroke-width=".5" d="M267.20703 481.32031l-6.74219-1.98437"/></g><g clip-path="url(#z)"><path fill="none" stroke="#000" stroke-linecap="round" stroke-linejoin="round" stroke-miterlimit="10" stroke-width=".5" d="M266.22656 481.03125l.2461 1.20313"/></g><g clip-path="url(#A)"><path fill="none" stroke="#000" stroke-linecap="round" stroke-linejoin="round" stroke-miterlimit="10" stroke-width=".5" d="M280.57422 481.125l-6.84375-1.59375"/></g><g clip-path="url(#B)"><path fill="none" stroke="#000" stroke-linecap="round" stroke-linejoin="round" stroke-miterlimit="10" stroke-width=".5" d="M279.57813 480.89453l.3125 1.1836"/></g><g clip-path="url(#C)"><path fill="none" stroke="#000" stroke-linecap="round" stroke-linejoin="round" stroke-miterlimit="10" stroke-width=".5" d="M293.86719 481.20703l-6.80469-1.75781"/></g><g clip-path="url(#D)"><path fill="none" stroke="#000" stroke-linecap="round" stroke-linejoin="round" stroke-miterlimit="10" stroke-width=".5" d="M293.86719 481.20703l.57422 2.38672"/></g><g clip-path="url(#E)"><path fill="none" stroke="#000" stroke-linecap="round" stroke-linejoin="round" stroke-miterlimit="10" stroke-width=".5" d="M307.2461 480.89844l-6.9336-1.14063"/></g><g clip-path="url(#F)"><path fill="none" stroke="#000" stroke-linecap="round" stroke-linejoin="round" stroke-miterlimit="10" stroke-width=".5" d="M306.23828 480.73047l.39453 1.16406"/></g><g clip-path="url(#G)"><path fill="none" stroke="#000" stroke-linecap="round" stroke-linejoin="round" stroke-miterlimit="10" stroke-width=".5" d="M320.36328 481.61719l-6.53515-2.57813"/></g><g clip-path="url(#H)"><path fill="none" stroke="#000" stroke-linecap="round" stroke-linejoin="round" stroke-miterlimit="10" stroke-width=".5" d="M319.41406 481.24219l.13672 1.21875"/></g><g clip-path="url(#I)"><path fill="none" stroke="#000" stroke-linecap="round" stroke-linejoin="round" stroke-miterlimit="10" stroke-width=".5" d="M333.67578 481.6289l-6.52734-2.60156"/></g><g clip-path="url(#J)"><path fill="none" stroke="#000" stroke-linecap="round" stroke-linejoin="round" stroke-miterlimit="10" stroke-width=".5" d="M346.26172 482.76172l-5.07031-4.86719"/></g><g clip-path="url(#K)"><path fill="none" stroke="#000" stroke-linecap="round" stroke-linejoin="round" stroke-miterlimit="10" stroke-width=".5" d="M358.40234 483.5664l-2.72265-6.47656"/></g><g clip-path="url(#L)"><path fill="none" stroke="#000" stroke-linecap="round" stroke-linejoin="round" stroke-miterlimit="10" stroke-width=".5" d="M370.49219 483.83984l-.27344-7.02343"/></g><g clip-path="url(#M)"><path fill="none" stroke="#000" stroke-linecap="round" stroke-linejoin="round" stroke-miterlimit="10" stroke-width=".5" d="M382.72656 483.71484l1.88672-6.76953"/></g><g clip-path="url(#N)"><path fill="none" stroke="#000" stroke-linecap="round" stroke-linejoin="round" stroke-miterlimit="10" stroke-width=".5" d="M398.19922 483.625l-2.42578-6.59375"/></g><g clip-path="url(#O)"><path fill="none" stroke="#000" stroke-linecap="round" stroke-linejoin="round" stroke-miterlimit="10" stroke-width=".5" d="M413.74219 481.03906l-6.88281-1.42187"/></g><g clip-path="url(#P)"><path fill="none" stroke="#000" stroke-linecap="round" stroke-linejoin="round" stroke-miterlimit="10" stroke-width=".5" d="M412.74219 480.83203l.34375 1.17969"/></g><g clip-path="url(#Q)"><path fill="none" stroke="#000" stroke-linecap="round" stroke-linejoin="round" stroke-miterlimit="10" stroke-width=".5" d="M426.78516 481.84766l-6.33594-3.03907"/></g><g clip-path="url(#R)"><path fill="none" stroke="#000" stroke-linecap="round" stroke-linejoin="round" stroke-miterlimit="10" stroke-width=".5" d="M440.32813 479.42969l-6.79297 1.79687"/></g><g clip-path="url(#S)"><path fill="none" stroke="#000" stroke-linecap="round" stroke-linejoin="round" stroke-miterlimit="10" stroke-width=".5" d="M439.33984 479.6914l.83204.89844"/></g><g clip-path="url(#T)"><path fill="none" stroke="#000" stroke-linecap="round" stroke-linejoin="round" stroke-miterlimit="10" stroke-width=".5" d="M453.7539 480.52344l-7.01562-.39063"/></g><g clip-path="url(#U)"><path fill="none" stroke="#000" stroke-linecap="round" stroke-linejoin="round" stroke-miterlimit="10" stroke-width=".5" d="M452.73438 480.46875l.51562 1.11328"/></g><g clip-path="url(#V)"><path fill="none" stroke="#000" stroke-linecap="round" stroke-linejoin="round" stroke-miterlimit="10" stroke-width=".5" d="M466.66406 481.97266l-6.20703-3.28907"/></g><g clip-path="url(#W)"><path fill="none" stroke="#000" stroke-linecap="round" stroke-linejoin="round" stroke-miterlimit="10" stroke-width=".5" d="M146.57031 464.6211l-5.14062 4.78515"/></g><path fill="none" stroke="#000" stroke-linecap="round" stroke-linejoin="round" stroke-miterlimit="10" stroke-width=".5" d="M145.82422 465.3164l1.16016.40235m13.83593 1.53516l-7.01172-.48047m5.9922.41015l.5 1.1172m13.80468-.77735l-6.95313-1.01953m5.94141.87109l.41406 1.15625m13.94922-1.36719l-7.02344-.30078m6 .25781l.52735 1.10547m13.8086-1.08203l-7.01954-.26172m6 .22266l.53516 1.10547m13.80468-1.14453l-7.02734-.10547m6.0039.08984l.5586 1.08985m13.75-.6875l-6.96875-.87891m5.95703.75l.4336 1.14844m13.83593-.6797l-6.85156-1.55859m5.85156 1.33204l.32422 1.18359m13.77344-.30469l-6.41797-2.86328m5.48438 2.44531l.08203 1.22657m14.29687-1.14453l-6.67969-2.19141m5.70704 1.8711L266.41406 469m14.02344-.7461l-6.57422-2.48046m5.61719 2.11718l.16016 1.21875m14.07812-.76562l-6.5039-2.66016m5.55468 2.27344l.125 1.22266m14.22656-1.08203l-6.68359-2.16797m5.71484 1.85156l.21094 1.21094m14.14063-1.1211l-6.81641-1.71484m5.82422 1.46484l.29297 1.19141m14.10937-1.53516l-7.00781-.52734m5.98828.44922l.49219 1.125m13.78515-.6289l-6.89453-1.36329m5.89453 1.16406l.35157 1.17578m11.8711 1.58204l-2.70704-6.48047m2.3164 5.53906l-.77734.94922m10.8164-.60156l4.625-5.29297m7.81641 4.125l6.375-2.95703m10.26172 4.98828l-.26953-7.01953m16.72266 4.78906l-6.54297-2.5586m5.58984 2.1875l.14063 1.21875m14.35937-1.89843l-7.01172-.45703m5.9922.39062l.5039 1.1211m13.66797-.19141l-6.6836-2.1836m20.1211 1.6875l-6.92578-1.1914m5.91796 1.01953l.38282 1.16406m13.97656-1.89062l-7 .60547"/><g clip-path="url(#X)"><path fill="none" stroke="#000" stroke-linecap="round" stroke-linejoin="round" stroke-miterlimit="10" stroke-width=".5" d="M467.0625 466.71094l1.33594 2.0586"/></g><g clip-path="url(#Y)"><path fill="none" stroke="#000" stroke-linecap="round" stroke-linejoin="round" stroke-miterlimit="10" stroke-width=".5" d="M147.4961 454.05078l-6.9922-.70312"/></g><path fill="none" stroke="#000" stroke-linecap="round" stroke-linejoin="round" stroke-miterlimit="10" stroke-width=".5" d="M146.48047 453.94922l.46484 1.13281m13.8711-1.09766l-7.00391-.57421m5.98438.49218l.48828 1.125m13.46875.27735l-6.2461-3.21485m5.33594 2.75l.01953 1.22657m14.55469-1.82422l-6.94531-1.08594m5.93359.92578l.40234 1.16016m13.92188-.98828l-6.9375-1.11328m5.92578.95312l.39844 1.16016m13.92578-.9961l-6.9375-1.1211m5.92969.96095l.39453 1.16015m13.83203-.57422l-6.74219-1.96875m5.76172 1.6836l.25 1.19922m13.59766.05078l-5.84766-3.89844m4.9961 3.33203l-.1211 1.21875m14.47266-.96484l-6.21875-3.27344m5.3164 2.79688l.0039 1.22656m13.67188.01172l-5.1328-4.80078m4.38671 4.10156l-.32031 1.1875m14.80469-1.03906l-5.97657-3.69532m5.10547 3.15625l-.07812 1.22656m14.55078-1.26562l-6.55078-2.53906m6.55078 2.53906l.28906 2.4375m12.9336-2.22266l-6.3672-2.97265m5.44141 2.54297l.0625 1.22265m14.36719-1.28906l-6.7461-1.97656m5.76563 1.6875l.2461 1.20312m14.16015-1.4414l-6.96484-.92188m6.96484.92188l.85547 2.30078m12.45313-2.26172l-6.95313-1m5.9414.85547l.41798 1.15234m9.64062 1.91406l1.58203-6.84765m9.09375 4.1836l6.85938-1.51563m6.40625.26953l6.96093.97656m-5.94921-.83594l-.41797-1.15234m12.7539.82031l6.89453 1.35547m-5.89062-1.15625l-.35547-1.17578m19.125 3.46484l-6.02344-3.61719m5.14844 3.08985l-.0664 1.22656m14.27343-.73047l-6.0586-3.5586m5.1797 3.04298l-.0547 1.22656m10.0586.82812l2.32031-6.6328m12.26172 6.82812l-.21093-7.02344m16.91015 3.10547l-6.98047.8125m5.96485-.69531l.69922 1.01171"/><g clip-path="url(#Z)"><path fill="none" stroke="#000" stroke-linecap="round" stroke-linejoin="round" stroke-miterlimit="10" stroke-width=".5" d="M147.33594 441.48438l-6.67188-2.20313"/></g><path fill="none" stroke="#000" stroke-linecap="round" stroke-linejoin="round" stroke-miterlimit="10" stroke-width=".5" d="M146.36719 441.16406l.20312 1.21094m14.07813-.88281l-6.66797-2.21485m5.69922 1.89063l.20703 1.21094m14.09375-.9336l-6.69922-2.125m20.10547.35938l-6.88281 1.40625m20.26953-.57813l-7.02344-.25m20.0664 1.48828l-6.48046-2.72265m18.70703 4.13672l-4.30469-5.5547m3.67578 4.7461l-.5039 1.1211m14.30468-.20704L235.19531 437.5m15.66406 6.3789l-.67578-6.99218m16.0625 6.05469l-4.8203-5.11329m4.11718 4.3672l-.39063 1.16405m12.48828.50391l-.98046-6.96094m.83593 5.94922l-.99218.71875M293.26953 442.5l-5.60547-4.23438m4.78907 3.6211l-.19141 1.21094m14.28516-.54688l-5.53125-4.33594m4.72656 3.70703l-.21485 1.20704m14.07032-.27735l-5.00391-4.9336m4.27734 4.21485l-.35156 1.17578m14.7539-.88671l-5.72265-4.07813m4.89063 3.48438l-.16016 1.21875m14.0039-.25782l-5.12109-4.8125m13.33203 4.82813l5.08985-4.83985m7.60156.90625l6.33984 3.02735m-5.41796-2.58985l-.0547-1.22265m12.10938 2.11719l7.01563.35937m-5.9961-.3086l-.51953-1.10937m13.57032 3.42578l5.5039-4.3711m-4.70312 3.73438l-1.125-.49218m17.41406-1.0586l-.01953-.19922-.0586-.1914-.09375-.17578-.46093-.37891-.19141-.0586-.19922-.01952-.19922.01953-.1914.05859-.45703.3789-.09766.17579-.0586.1914-.01953.19922.01954.19922.05859.1914.09766.1797.45703.375.1914.05859.19922.01953.19922-.01953.1914-.0586.46094-.375.09375-.17968.0586-.1914.01953-.19923m13.65625 3.23828l-2.72656-6.47656m16.92968 5.9375l-4.5039-5.39453m3.84765 4.60938l-.46093 1.13671m15.18359-1.22656l-6.00781-3.64453m5.13281 3.11328l-.07031 1.22656m14.7461-2.93359l-6.97657.83203m5.96094-.71094l.69922 1.00782"/><g clip-path="url(#aa)"><path fill="none" stroke="#000" stroke-linecap="round" stroke-linejoin="round" stroke-miterlimit="10" stroke-width=".5" d="M147.27734 428.33594l-6.55468-2.53516"/></g><path fill="none" stroke="#000" stroke-linecap="round" stroke-linejoin="round" stroke-miterlimit="10" stroke-width=".5" d="M146.32422 427.96484l.14453 1.21875m14.1836-1.01562l-6.67579-2.19922m5.70313 1.8789l.21094 1.21094m14.23437-2.33593l-6.99219.6914m19.13281-2.98437l-4.64062 5.27734m12.1914-1.9375l6.88673-1.39844m6.62109-.63671l6.5039 2.66796m7.02735-3.10547l6.07031 3.54297m-5.1875-3.02734l.04688-1.22656m11.91015 2.3164l7.01953.33203m-5.99609-.28125l-.52734-1.10937m13.20703 2.83203l6.2461-3.21484m-5.33985 2.7461l-1.00781-.69923m14.10156 2.08985l4.875-5.0586m-4.16797 4.32422l-1.17969-.33594m13.25781.42188l5.9336-3.76172m-5.07032 3.21484l-1.0664-.60937m16.0039 2.7539l.96485-6.95703m-.82422 5.94532l-1.15234.42187m14.27343.58594l1.07032-6.94531m-1.07032 6.9453l-2.3164.8086m19.51562-5.34765l-6.69531 2.1328m19.59375.8672l-5.86719-3.8711m5.01563 3.3086l-.11719 1.21875m12.375-2.58985l-.01953-.20312-.0586-.1914-.09765-.17579-.45703-.375-.1914-.0586-.19923-.01953-.19922.01954-.1914.05859-.46094.375-.09375.17578-.0586.1914-.01952.20313.01953.19922.05859.1914.09375.17579.46094.375.1914.0586.19922.01952.19922-.01953.1914-.0586.45704-.375.09766-.17577.05859-.1914.01953-.19923m10.33594 2.91797l3.91015-5.83984m-3.33984 4.98828l-1.22266-.1211m12.85938-.22265l6.125-3.44922m8.5039-1.32422l3.5 6.09766m-2.99218-5.21094l.65234-1.03516m16.5586.89844l-5.3086 4.59766m4.53906-3.92969l1.14454.4414m13.23046 3.10548l-5.89062-3.83204m19.3164 3.64844l-6.11328-3.46484m5.22657 2.96093l-.03516 1.22657m14.69531-2.41016l-7.02734-.08984m7.02734.08984l1.125 2.17969M453.63671 428l-6.77733-1.85938M453.63672 428l.53516 2.39062m11.89453-.85937l-5.00782-4.92578m4.27735 4.21094l-.34766 1.17578"/><g clip-path="url(#ab)"><path fill="none" stroke="#000" stroke-linecap="round" stroke-linejoin="round" stroke-miterlimit="10" stroke-width=".5" d="M147.36328 414.76953l-6.72656-2.03125"/></g><path fill="none" stroke="#000" stroke-linecap="round" stroke-linejoin="round" stroke-miterlimit="10" stroke-width=".5" d="M146.38672 414.47266l.23828 1.20312m13.97266-.66406l-6.5625-2.51563m5.60547 2.14844l.15234 1.21875m13.8164-.2461l-5.95703-3.72655m5.08985 3.18359l-.08594 1.22266m7.89063-1.64844l6.79687-1.78906m9.05078-2.51172l1.73047 6.8125m-1.47656-5.82032l.90625-.82421m10.11328 1.26171l5.8125 3.95313m-4.96484-3.3789l.1328-1.21876m11.89063 1.5664l6.70313 2.10938m-5.72656-1.80468l-.22657-1.20703m12.5625 3.0039l6.70703-2.09375m-5.73047 1.78906l-.875-.86328m13.39844 1.64063l6.33594-3.03906m-5.41406 2.59765l-.98828-.73047m13.1328.47266l6.83204-1.64453m7.69531 3.5586l4.41016-5.46876m9.08984 5.60938l4.04297-5.75m12.03516 6.30859l-1.48438-6.86719m16.9375 5.44532l-5.76172-4.02735m4.92188 3.4414l-.14844 1.21876m11.40234.86719l.04297-7.02735m9.98438 2.32813l6.61328 2.375m13.15625-2.75391l-6.29297 3.13281m18.16797-4.64062l-3.41016 6.14453m15.1797-6.58203l-.32423 7.01953m.27735-5.9961l1.10937-.52734m10.8125-.25781l2.5586 6.54687m-2.1875-5.59375l.80078-.92968m12.34765-.09766l2.14844 6.6914m-1.83594-5.71484l.85547-.8789m14.52344 6.51172l-2.60156-6.52735m17.91406 2.0586l-6.59766 2.41406m5.63672-2.0625l.91406.8164m13.32422-1.26953l-6.52344 2.61719m5.57422-2.23828l.9375.79297m13.52735.73047l-6.92578-1.1875"/><g clip-path="url(#ac)"><path fill="none" stroke="#000" stroke-linecap="round" stroke-linejoin="round" stroke-miterlimit="10" stroke-width=".5" d="M147.48828 400.03125l-6.97656.8125"/></g><path fill="none" stroke="#000" stroke-linecap="round" stroke-linejoin="round" stroke-miterlimit="10" stroke-width=".5" d="M146.47266 400.14844l.69922 1.01172m13.25.92187l-6.21094-3.28515m5.30469 2.80468l.0039 1.23047m12.13281-2.39453l-.01953-.19922-.0586-.1914-.09374-.17579-.46094-.3789-.1914-.05469-.19922-.02344-.19922.02344-.1914.05469-.45704.3789-.09375.17579-.0586.1914-.01952.19922.01953.19922.05859.1914.09375.1797.45703.375.1914.05859.19923.01953.19922-.01953.1914-.0586.46094-.375.09375-.17969.0586-.1914.01952-.19922m9.67188-2.33984l5.24219 4.67968m8.73828-5.2578l3.91015 5.83593m-3.33984-4.98828l.57813-1.07813m11.73437.57422l4.77734 5.15235m-4.08203-4.40235l.40235-1.16015m12.17187.45312l4.86719 5.0664m-4.16016-4.32812l.38281-1.16797m11.37891 4.22266l6.5586-2.51953m9.71875 4.75781l.63671-7m12.65235 6.9961l.6836-6.9922m15.95312 1.63673l-5.95703 3.72265m19.64453-2.91797l-6.70313 2.10938m20.11328-.36328l-6.89062-1.37891m20.27344.58594l-7.02735.20703m20.30078-.63672l-6.94531 1.0625m18.32031-3.6914l-3.0625 6.32421m2.61719-5.40625l1.22266-.04687m13.83203.20312l-5.65235 4.17578m19.1797-.3203l-6.07423-3.53517m5.1875 3.01954l-.04687 1.22656m13.57031-5.08203l-4.71875 5.20703m4.03125-4.44922l1.1914.30078M396.75 396.9336l.47266 7.01172m-.40235-5.99219l1.04297-.64843m15.21485.98047l-5.5547 4.30468m16.16016 1.36329l-.1328-7.02735m13.97265 6.97656l-1.1836-6.92578m17.38282 2.9414l-6.94922 1.03907m5.9375-.88672l.73047.98438m13.60937-1.03125l-6.97656.83203m5.96094-.71094l.69922 1.00781"/><g clip-path="url(#ad)"><path fill="none" stroke="#000" stroke-linecap="round" stroke-linejoin="round" stroke-miterlimit="10" stroke-width=".5" d="M145.98047 384.22266l-3.96094 5.80468"/></g><path fill="none" stroke="#000" stroke-linecap="round" stroke-linejoin="round" stroke-miterlimit="10" stroke-width=".5" d="M145.40234 385.0664l1.22266.13282m7.375.75781l6.6289 2.33203m-5.66406-1.99219l-.18359-1.21093m12.39063 1.41797l6.91796 1.23828m-5.91015-1.0586l-.3789-1.16796m14.97655-1.70704l2.33594 6.62891m-1.9961-5.66406l.82813-.90235m13.60156-.25l-.5703 7.00391m.48437-5.98438l1.1289-.48828m14.96094 1.10157l-5.94922 3.73828m5.94922-3.73828l2.1289 1.22265m11.47657-.64844l-6.53125 2.58985m6.53125-2.58985l1.8711 1.58985m11.65234-.82031l-6.94922 1.05078m5.9375-.89844l.73047.98438m13.45703-1.71094l-6.67188 2.19922m5.70313-1.87891l.88672.84766m13.57031.1289l-7.01563-.39453m18.13282-3.0625l-2.6211 6.51953m17.17578-5.67578l-5.10156 4.83203m19.13672-1.1289l-6.53906-2.57422m17.92187-1.96094l-2.67187 6.4961m17.45703-5.35938l-5.61719 4.22265m4.80078-3.60937l1.11329.52344m13.60546 1.875l-6.79296-1.80078m18.52343-2.10938l-3.6211 6.01953m3.09376-5.14453l1.22656.0664m13.27735-.42577l-4.94532 4.98828m4.22656-4.26172l1.17579.35156m10.1953-2.09375l.38282 7.01953m-.32812-5.9961L384.58594 384m13.79297-.10156l-2.78516 6.45312m2.3789-5.51562l1.22266-.10156m11.94531-1.02344l-1.67968 6.82422m1.4375-5.83204l1.1875-.29687m11.53125-.79688v7.02735m0-6.0039l1.08203-.57813m10.46875 6.10937l3.52734-6.07812m8.6289 4.99219l5.84376-3.90625m13.35937 3.83203l-5.93359-3.76172m5.07031 3.21484l-.09375 1.22266"/><g clip-path="url(#ae)"><path fill="none" stroke="#000" stroke-linecap="round" stroke-linejoin="round" stroke-miterlimit="10" stroke-width=".5" d="M146.08594 370.98047l-4.17188 5.65625"/></g><path fill="none" stroke="#000" stroke-linecap="round" stroke-linejoin="round" stroke-miterlimit="10" stroke-width=".5" d="M146.08594 370.98047l2.42578.35937m11.01172-.26562l-4.41797 5.46484m3.77734-4.66797l1.20313.23438m8.5 4.5586l4.08984-5.71094m14.13672 4.88671l-5.73438-4.0664m4.89844 3.47656l-.15625 1.21484m14.26563-4.74609l-5.64844 4.17969m4.82422-3.57031l1.10937.52734m13.51563-.22266l-6.6211 2.35156m5.65625-2.0078l.90625.82812m13.48047-.8125l-6.83593 1.63281m5.83984-1.39453l.8125.91797m13.58594-.5625l-7.01172.44531m7.01172-.44531L242 375.67188m11.99219-2.39844l-6.94531 1.07031m6.9453-1.07031l1.46876 1.96484m11.6914-2.58984l-6.6328 2.32031m5.66796-1.98438l.90234.83204m13.57422-.00782h-7.02734m6.0039 0l.57813 1.08204m13.53125.16796l-6.5664-2.5m5.60937 2.13672l.15234 1.21875m14.17969-1.03125l-6.6875-2.14844m5.71484 1.83594l.21875 1.20703m14.23047-1.74218l-7.01172-.45313m5.9922.38672l.5039 1.1211m13.82812-1.02344l-7.00781-.51563m5.98828.4414l.4961 1.1211m12.04296-4.375l-3.41406 6.14063m2.91797-5.2461l1.22656.02344m11.92969-1.19922l-2.10547 6.70313m1.80078-5.72657l1.20703-.22656m12.96485-.52344l-3.21094 6.25m2.7461-5.33984l1.22656-.01953m12.1289-1.07422l-2.35937 6.61719m2.01562-5.65625l1.21485-.17969m10.3789-.875l1.76953 6.80078m-1.51172-5.8086l.90235-.83202m11.97265-.10547l2.13282 6.69531m-1.82032-5.72266l.85547-.875m9.91016 2.0586L426.92187 375m7.29688-3.42578l5.42578 4.46875m-4.63672-3.82031l.2461-1.19922m12.47265 5.23437l5.03906-4.89844m-4.30468 4.1836l-1.16797-.375m16.11328 2.14844l.3125-7.01954m-.26953 6l-1.10547.52735"/><g clip-path="url(#af)"><path fill="none" stroke="#000" stroke-linecap="round" stroke-linejoin="round" stroke-miterlimit="10" stroke-width=".5" d="M145.65234 357.39063l-3.30468 6.20312"/></g><path fill="none" stroke="#000" stroke-linecap="round" stroke-linejoin="round" stroke-miterlimit="10" stroke-width=".5" d="M145.65234 357.39063l2.45313.0039m12.11719 1.1289l-5.81641 3.94141m4.97266-3.37109l1.08203.57422m11.73047 3.97265l-3.1211-6.29687m17.22656 5.76172l-4.70312-5.22266m4.01953 4.46094l-.42187 1.15234m15.07812-1.1914l-6.01953-3.6211m5.14453 3.09375l-.0625 1.22657m14.75781-2.44141l-7.02734-.13672m6.0039.11719l.5547 1.09375m13.6328-2.15625l-6.72656 2.02734m5.75-1.73437l.86328.8711m12.19922-2.94142l-4.26953 5.57813m3.64844-4.76563l1.21094.19922m11.46484-1.625l-1.7461 6.8086m1.4922-5.82031l1.1914-.28907m10.9414-.76562l1.1211 6.9375m-.95703-5.92578l.97656-.7422m13.1836-.28515l-.89453 6.96875m10.30859-4.125l6.91015 1.28125m12.57422 1.58985l-5.43359-4.45704m17.91016-.74218l-3.75391 5.9414m16.89844-6.04296l-3.41406 6.14453m2.91796-5.25l1.22657.02343m10.24218-1.30078l1.27344 6.91016m-1.08984-5.90625l.96484-.76172m12.23438-.2539l1.13671 6.93359m-.96875-5.92578l.97657-.7422m11.79297-.18358l1.89062 6.76953m-1.61328-5.78516l.88672-.84766m12.02344-.09765l2.14843 6.6914m-2.14843-6.6914l1.70703-1.76172m12.58984 1.59375l.1836 7.02344m-.15625-6l1.0664-.60547m12.04297-.41016l.53906 7.00781m-.46094-5.98828l1.03516-.65625m11.41016-.20703l2.125 6.69922m-1.8164-5.72656l.85546-.875m11.4375.21875l3.55078 6.0625m-3.03515-5.17969l.64453-1.04297m11.05468 1.17188l5.75 4.04296m-4.91015-3.45703l.14844-1.21484m12.625 5.03906l5.15234-4.77734m-5.15235 4.77734l-2.3164-.80469"/><g clip-path="url(#ag)"><path fill="none" stroke="#000" stroke-linecap="round" stroke-linejoin="round" stroke-miterlimit="10" stroke-width=".5" d="M146.53516 344.74219l-5.07032 4.8711"/></g><path fill="none" stroke="#000" stroke-linecap="round" stroke-linejoin="round" stroke-miterlimit="10" stroke-width=".5" d="M146.53516 344.74219l2.33203.76562m-3.07031-.05469l1.16406.38282m13.49219 2.92578l-6.27344-3.16797m5.35937 2.70703l.02735 1.22656m13.52734.15625l-4.92578-5.01171m4.21094 4.28125l-.3711 1.17187m13.75.0625l-3.625-6.01953m3.09766 5.14453l-.63281 1.05078m15.73047-1.46875l-6.13282-3.42969m5.23828 2.9297l-.02343 1.22655m13.70703-4.86718l-5.08594 4.84765m17.42188-5.57031l-3.125 6.29297m2.67187-5.375l1.22656-.03516m11.76172-1.16015l-1.5664 6.84765m1.5664-6.84765l2.3711-.64063m10.21093.55078l-.10156 7.02735m.10156-7.02735l2.1836-1.1211m10.2578 1.21876l1.64845 6.83203m-1.64844-6.83203l1.83594-1.625m9.57812 2.82422l5.44922 4.4375m-4.65625-3.79297l.23828-1.20313m11.75781 4.10938l6.5-2.66797m-5.55468 2.28125l-.94141-.78516m13.8711 2.09375l5.3828-4.51171m9.35157 5.53125l2.54687-6.55079m12.42579-.21484l-.76954 6.98438m.65625-5.96875l1.14063-.45704m11.48828-.55859l.82813 6.98047m-.82813-6.98047l2.01172-1.39844m10.29687 1.67578l2.83985 6.42579m-2.83985-6.42579l1.51563-1.92968m10.83984 2.55859l4.76172 5.16797m-4.76172-5.16797l.8125-2.3164m12.71875 2.1328l4.32813 5.53516m-3.69922-4.73047l.5-1.12109m12.82031-.07813l3.0586 6.32422m-3.0586-6.32421l1.44531-1.98047m11.48047 2.19921l3.83594 5.88672m-3.27734-5.03125l.59375-1.07421m12.58984-.01954l2.98438 6.36329m-2.55079-5.4375l.73438-.98047m12.5664-.10938l2.14454 6.6914m-1.83204-5.71874l.85547-.8789m10.72657.77343l4.98437 4.95703m-4.25781-4.23438l.35547-1.17578m11.32422 2.0586l6.80468 1.7461m-5.8164-1.4922l-.28906-1.1914"/><g clip-path="url(#ah)"><path fill="none" stroke="#000" stroke-linecap="round" stroke-linejoin="round" stroke-miterlimit="10" stroke-width=".5" d="M147.23438 332.49219l-6.46875 2.74219"/></g><path fill="none" stroke="#000" stroke-linecap="round" stroke-linejoin="round" stroke-miterlimit="10" stroke-width=".5" d="M147.23438 332.49219l1.90625 1.54297m-2.84766-1.14454l.95312.77344m13.5586.59375l-6.98047-.78906m6.98047.78906l.90234 2.28125m-1.91797-2.39453l.45313 1.14063m13.5664.07812l-6.35547-3m6.35547 3l.1172 2.44922m13.40624-3.01953l-6.77344-1.86328m6.77344 1.86328l.53906 2.39453m12.82422-4.07031l-6.86719 1.48828m5.8672-1.26953l.79296.9375m11.41406-3.66406l-2.65625 6.5078m2.26953-5.55859l1.22266-.125m10.73438-1.05859l.83593 6.97656m-.71484-5.96094l1.00781-.70312m12.5039-.33594l.19923 7.02344m-.19922-7.02344l2.13672-1.21094m11.1875 1.21094l.17969 7.02344m-.1797-7.02344l2.13673-1.20703m12.3125 1.36328l-2.08985 6.71094m1.78907-5.73438l1.20312-.22656m14.60938 1.25l-6.48047 2.71094m16.14843 2.13281l.8125-6.97656m10.71485 6.23047l4.39062-5.48438m-3.7539 4.6875l-1.20313-.23046m12.5664-1.54688l7.01954-.33594m8.83984-3.21094l1.9336 6.75782m-1.65235-5.77344l.88282-.85156m12.40234-.19531l1.42969 6.8828m-1.22266-5.8789l.94531-.78515m12.03907-.19141l1.67578 6.82422m-1.4336-5.82813l.91407-.82031m10.33593.94531l5.32422 4.58594m-4.55078-3.91797l.26953-1.19922m15.0586-.6875l-.25 7.02344m.21093-6l1.10547-.53906m11.2461-.375l1.7539 6.80469m-1.5-5.81641l.90625-.82813m11.85156-.0664l2.36329 6.61719m-2.01954-5.65625l.82422-.90625m10.60938 1.02734l5.4375 4.45312m-5.4375-4.45312l.48047-2.40625M433.6953 332.5l6.47266 2.72656m-5.53125-2.33203l-.10938-1.22265m12.42188.98437l6.59766 2.41406m6.84765.3125l6.33594-3.03906"/><g clip-path="url(#ai)"><path fill="none" stroke="#000" stroke-linecap="round" stroke-linejoin="round" stroke-miterlimit="10" stroke-width=".5" d="M147.46484 319.96094l-6.92968 1.17578"/></g><path fill="none" stroke="#000" stroke-linecap="round" stroke-linejoin="round" stroke-miterlimit="10" stroke-width=".5" d="M147.46484 319.96094l1.4961 1.9414m-2.5039-1.77343l.75.97265m13.62108-.55469h-7.02734m7.02734 0l1.15235 2.16797m-2.17578-2.16796l.57812 1.08593m13.7539-.875l-7.01562-.41797m7.01563.41797l1.01953 2.23047m12.30078-2.59765l-7.02344.3164m6-.26953l.625 1.05469m13.1211-2.89844L194.33984 322.5m4.9922-3.33594l1.07812.57813m9.67968-2.67578l.97266 6.96093m-.83203-5.9453l.99219-.72267m11.625-.16796l2.08593 6.71093m-2.08593-6.71093l1.72656-1.7422m12.10547 1.625l1.05078 6.94923m-1.05078-6.94922l1.96875-1.46485m13.07812 1.63672l-2.41015 6.60157m2.05859-5.64063l1.21484-.16797m14.60547 1.47656l-6.71875 2.0625m5.74219-1.76171l.86719.86718m13.41797-1.1914l-6.70313 2.10937m5.72656-1.80078l.875.85938m13.55079.30859l-6.97657-.84375m5.96094.72266l.4414 1.14453m13.6797-.17578l-6.5547-2.53907m13.32423 2.5625l6.53515-2.58203m-5.58594 2.20703l-.93359-.79687m14.1914-2.70703l4.75391 5.17578m-4.0625-4.42188l.40625-1.16015m14.39453-.51563l.39844 7.01563m-.33984-5.99219l1.04687-.63672m12.5625-.38672l-.3086 7.01953m.26563-6l1.10547-.52734m13.39453-.25l-2.59375 6.53125m2.21875-5.57813l1.21875-.13671m13.19922-.42188l-4.05078 5.74219m4.05078-5.74219l2.4375.3086m9.99219-.76172l-2.27734 6.64843m2.27734-6.64843l2.42188-.38672m10.64843.3125l-1.78906 6.79687m1.78906-6.79687l2.38672-.5625m10.08203.44922l-.09765 7.02734m.09765-7.02734l2.1836-1.1211m7.84375 3.27344l6.48046 2.72266m-5.53515-2.32813l-.11328-1.22265m12.38672 3.28515l6.67578-2.1914m-5.70703 1.87109l-.88282-.84766m15.66016 3.46485l1.8125-6.78907"/><path fill="#ff3030" fill-rule="evenodd" d="M433.3164 472.08594h7.69141V461.9414h-7.6914v10.14453"/><path fill="azure" fill-rule="evenodd" d="M435.14844 463.77344h.83594v5.73828h3.1914v.74219h-4.02734v-6.48047"/><path fill="#ff3030" fill-rule="evenodd" d="M295.72656 405.51172h7.69531v-10.14453h-7.6953v10.14453"/><path fill="azure" fill-rule="evenodd" d="M297.5586 397.19922h.83593v5.73828h3.1914v.74219h-4.02734v-6.48047"/><path fill="#ff3030" fill-rule="evenodd" d="M348.98828 405.51172h7.6914v-10.14453h-7.6914v10.14453"/><path fill="azure" fill-rule="evenodd" d="M350.82031 397.19922h.83203v5.73828h3.19532v.74219h-4.02735v-6.48047"/><path fill="#ff3030" fill-rule="evenodd" d="M442.1914 401.07422h7.69532v-10.14844h-7.69531v10.14844"/><path fill="azure" fill-rule="evenodd" d="M444.02734 392.76172h.83204V398.5h3.1953v.73828h-4.02734v-6.47656"/><path fill="#ff3030" fill-rule="evenodd" d="M175.89063 356.6875h7.6953v-10.14453h-7.6953v10.14453"/><path fill="azure" fill-rule="evenodd" d="M177.72656 348.375h.83203v5.74219H181.75v.73828h-4.02344V348.375"/><path fill="#ffffe0" fill-rule="evenodd" d="M402.5586 414.6211h22.26952v-10.19532H402.5586v10.19531"/><path fill-rule="evenodd" d="M406.05469 406.26172h.51172v6.29297h-.78907v-4.48828h-1.38671v-.5547l.55859-.0664.2539-.05469.22657-.08984.20312-.14062.17578-.21094.14063-.29297.10547-.39453m4.8164 0l.22657.01953.21875.05469.21093.08984.19532.1211.18359.14843.17188.17578.30078.41797.24609.4961.17969.54296.10937.58204.03906.58984-.03906.59375-.10937.58203-.17969.55469-.2461.5039-.30077.42579-.17188.17968-.1836.15625-.1953.1211-.21094.09375-.21875.05469-.22657.01953-.23046-.01954-.21875-.05468-.20704-.09375-.19921-.1211-.1836-.15625-.17187-.17968-.30079-.42579-.24218-.5039-.17969-.55469-.11328-.58203-.03906-.59375h.83593l.02735.5625.08203.50781.125.4414.16406.375.1914.30079.21094.22266.22266.13671.22656.04688.22657-.04688.22265-.13671.21094-.22266.1875-.30078.16406-.375.125-.4414.08203-.50782.03125-.5625-.03125-.5625-.08203-.5-.125-.4336-.16406-.36718-.1875-.29297-.21094-.21094-.22265-.13281-.22657-.04688-.22656.04688-.22265.13281-.21094.21094-.1914.29297-.16407.36719-.125.43359-.08203.5-.02735.5625h-.83593l.03906-.58984.11328-.58204.17969-.54296.24219-.4961.30078-.41797.17187-.17578.1836-.14844.19921-.12109.20704-.08984.21875-.05469.23046-.01953m4.95313 0l.22656.01953.21875.05469.21094.08984.19531.1211.1836.14843.17187.17578.30078.41797.24219.4961.17969.54296.11328.58204.03906.58984-.03906.59375-.11328.58203-.1797.55469-.24218.5039-.30078.42579-.17188.17968-.18359.15625-.19531.1211-.21094.09375-.21875.05469-.22656.01953-.23047-.01954-.21875-.05468-.20703-.09375-.19922-.1211-.1836-.15625-.17187-.17968-.30078-.42579-.24219-.5039-.17969-.55469-.11328-.58203-.03906-.59375h.83594l.02734.5625.08203.50781.125.4414.16407.375.1914.30079.21094.22266.22266.13671.22656.04688.22265-.04688.22266-.13671.21094-.22266.1914-.30078.16407-.375.125-.4414.08203-.50782.02734-.5625-.02734-.5625-.08203-.5-.125-.4336-.16406-.36718-.19141-.29297-.21094-.21094-.22265-.13281-.22266-.04688-.22656.04688-.22266.13281-.21094.21094-.1914.29297-.16407.36719-.125.43359-.08203.5-.02734.5625h-.83594l.03906-.58984.11329-.58204.17968-.54296.24219-.4961.30078-.41797.17188-.17578.18359-.14844.19922-.12109.20703-.08984.21875-.05469.23047-.01953m5.64453 0h.55469v4.07031h.97265v.74219h-.97265v1.48047h-.78516v-1.48047h-2.64062v-.74219h2.64062v-2.73047l-1.94531 2.73047h-.69531v-.08984l2.87109-3.98047"/><path fill="#ffffe0" fill-rule="evenodd" d="M150.89453 338.41406h22.17969v-10.1914h-22.17969v10.1914"/><path fill-rule="evenodd" d="M154.39453 330.05469h.50781v6.29687h-.78515v-4.48828h-1.39063v-.5586l.5625-.0625.25-.05468.23047-.08984.20313-.14063.17578-.21094.14062-.29296.10547-.39844m4.8125 0l.23047.01953.21875.0586.20703.08984.19531.11718.1875.15235.16797.17578.30469.41797.24219.49219.17969.54687.11328.58203.03515.58985-.03515.59375-.11328.58203-.1797.55468-.24218.50391-.30469.42578-.16797.17969-.1875.15234-.1953.125-.20704.09375-.21875.05469-.23047.01953-.23047-.01953-.21875-.05469-.20703-.09375-.19531-.125-.1836-.15234-.17187-.17969-.30078-.42578-.2461-.5039-.17968-.5547-.10938-.58202-.03906-.59375h.83203l.03125.5625.08203.5078.125.44141.16016.375.1914.30079.21094.21875.22266.13671.22656.04688.22656-.04688.22266-.13671.21094-.21875.1914-.30079.16016-.375.1289-.4414.08204-.50781.02734-.5625-.02734-.5625-.08203-.5-.12891-.4336-.16016-.36719-.1914-.29296-.21094-.21485-.22266-.1289-.22656-.04688-.22656.04688-.22266.1289-.21094.21485-.1914.29296-.16016.3672-.125.43358-.08203.5-.03125.5625h-.83203l.03906-.58984.10938-.58203.17969-.54688.24609-.49218.30078-.41797.17188-.17578.18359-.15235.19531-.11718.20703-.08985.21875-.0586.23047-.01952m4.95313 0l.23047.01953.21875.0586.20703.08984.1953.11718.1836.15235.17188.17578.30469.41797.24218.49219.17969.54687.10938.58203.03906.58985-.03906.59375-.10938.58203-.17969.55468-.24219.50391-.30468.42578-.17188.17969-.1836.15234-.1953.125-.20703.09375-.21875.05469-.23047.01953-.23047-.01953-.21875-.05469-.20703-.09375-.19532-.125-.18359-.15234-.17188-.17969-.30468-.42578-.24219-.5039-.17969-.5547-.10937-.58202-.03906-.59375h.83203l.03125.5625.07812.5078.1289.44141.16016.375.19141.30079.21094.21875.22265.13671.22657.04688.22656-.04688.22266-.13671.21093-.21875.1914-.30079.16017-.375.1289-.4414.08203-.50781.02735-.5625-.02735-.5625-.08203-.5-.1289-.4336-.16016-.36719-.1914-.29296-.21095-.21485-.22265-.1289-.22656-.04688-.22657.04688-.22265.1289-.21094.21485-.1914.29296-.16016.3672-.1289.43358-.07813.5-.03125.5625h-.83203l.03906-.58984.10937-.58203.17969-.54688.24219-.49218.30469-.41797.17187-.17578.1836-.15235.1953-.11718.20704-.08985.21875-.0586.23047-.01952m4.95312 0l.38672.03125.35938.08203.3203.13672.28126.1875.23047.23437.17187.28516.10938.33203.03906.3789-.02344.27344-.05469.23438-.08984.20312-.10938.16797-.1289.14453-.14063.1211-.28906.19922.23438.11718.20703.14844.1836.17188.15233.1914.1211.21485.09375.23046.05469.2422.01953.2578-.03516.3086-.10156.32422-.17188.32812-.24218.30469-.3047.26953-.375.21485-.21093.08203-.23047.05859-.24219.03906-.26171.01172-.25782-.01172-.24218-.03906-.22657-.0586-.20312-.08202-.35938-.21485-.28906-.26953-.22266-.30469-.16015-.32812-.08984-.32422-.03125-.3086h.83203l.02734.25.07813.23829.12109.21093.16016.1836.1953.15234.21876.11328.24219.07422.2539.02344.2539-.02344.2422-.07422.21875-.11328.1914-.15234.16406-.1836.1211-.21093.07812-.23829.02735-.25-.02735-.2539-.07812-.23438-.1211-.21484-.16406-.1836-.1914-.15234-.21875-.11328-.2422-.07422-.2539-.02344-.2539.02344-.2422.07422-.21874.11328-.19531.15235-.16016.18359-.1211.21484-.07812.23438-.02734.2539h-.83203l.01953-.2539.05468-.24219.08985-.22265.125-.20704.15234-.1914.1836-.17188.20703-.15234.23047-.13281-.28516-.19922-.14063-.1211-.1289-.14453-.10938-.16797-.08984-.20312-.0586-.23438-.01953-.27343h.78907l.01953.21484.0664.1914.10547.16407.13672.14062.16406.11329.1875.08203.20703.05078.22266.01562.21875-.01562.20703-.05078.1914-.08204.16407-.11328.13672-.14062.10156-.16406.0664-.19141.02345-.21484-.02344-.21485-.0664-.1914-.10157-.16407-.13672-.14062-.16406-.11328-.1914-.08203-.20704-.04688-.21875-.01953-.22266.01953-.20703.04688-.1875.08203-.16406.11328-.13672.14062-.10547.16407-.0664.1914-.01953.21485h-.78907l.03907-.37891.10937-.33203.17188-.28516.23047-.23437.27734-.1875.32422-.13672.35937-.08203.38672-.03125"/><path fill="#ffffe0" fill-rule="evenodd" d="M237.89453 445.6875h22.17969v-10.1914h-22.17969v10.1914"/><path fill-rule="evenodd" d="M241.39063 437.32813h.51171v6.29687h-.78906v-4.49219h-1.38672v-.55469l.5586-.0664.2539-.05078.22656-.08985.20313-.14062.17578-.21094.14063-.29687.10547-.39454m4.8164 0l.22656.01954.21875.05468.21094.08985.19531.1211.1836.14843.17187.17578.30078.42188.2461.49218.17969.54688.10937.57812.03906.59375-.03906.58985-.10938.58593-.17968.5547-.2461.5-.30078.42968-.17187.17969-.1836.15234-.1953.125-.21095.08984-.21875.0586-.22656.01953-.23047-.01953-.21875-.0586-.20703-.08984-.19922-.125-.1836-.15234-.17187-.1797-.30078-.42968-.24219-.5-.17968-.55469-.11328-.58593-.03907-.58985h.83594l.02734.5625.08204.5039.125.44532.16406.3711.1914.30078.21094.22265.22266.13672.22656.04688.22656-.04688.22266-.13672.21094-.22265.1875-.30079.16406-.37109.125-.44531.08203-.5039.03125-.5625-.03125-.5625-.08203-.5-.125-.4375-.16406-.36329-.1875-.29297-.21094-.21484-.22266-.13281-.22656-.04297-.22656.04297-.22266.1328-.21094.21485-.1914.29297-.16406.36328-.125.4375-.08203.5-.02735.5625h-.83594l.03907-.59375.11328-.57812.17969-.54688.24218-.49219.30078-.42187.17188-.17578.1836-.14844.19921-.1211.20703-.08984.21875-.05468.23047-.01954m4.95313 0l.22656.01954.21875.05468.21094.08985.1953.1211.1836.14843.17188.17578.30078.42188.24219.49218.17968.54688.11328.57812.03907.59375-.03906.58985-.11329.58593-.17968.5547-.2422.5-.30077.42968-.17188.17969-.1836.15234-.1953.125-.21094.08984-.21875.0586-.22656.01953-.23047-.01953-.21875-.0586-.20703-.08984-.19922-.125-.1836-.15234-.17187-.1797-.30078-.42968-.24219-.5-.17969-.55469-.11328-.58593-.03906-.58985h.83594l.02734.5625.08203.5039.125.44532.16406.3711.19141.30078.21094.22265.22265.13672.22657.04688.22265-.04688.22266-.13672.21094-.22265.1914-.30079.16406-.37109.125-.44531.08204-.5039.02734-.5625-.02734-.5625-.08203-.5-.125-.4375-.16407-.36329-.1914-.29297-.21094-.21484-.22266-.13281-.22265-.04297-.22657.04297-.22265.1328-.21094.21485-.1914.29297-.16407.36328-.125.4375-.08203.5-.02734.5625h-.83594l.03906-.59375.11328-.57812.17969-.54688.24219-.49219.30078-.42187.17187-.17578.1836-.14844.19922-.1211.20703-.08984.21875-.05468.23047-.01954m4.94922 0l.39062.02735.35547.08203.32422.13672.27734.1875.23047.23828.17578.28516.10547.33203.03906.3789-.01953.27344-.0586.23438-.08593.19921-.11328.17188-.1289.14453-.14063.1211-.28516.1953.23047.1211.20703.14453.1836.17188.15234.19531.125.21094.08984.23047.0586.24609.01562.2539-.03125.3086-.10547.32813-.17187.32421-.23828.3086-.3086.26953-.3711.21094-.21483.08203-.22657.0625-.2461.03906-.2578.01172-.26172-.01172-.24219-.03906-.22266-.0625-.20703-.08203-.35937-.21094-.28906-.26953-.22266-.3086-.15625-.32421-.09375-.32813-.03125-.3086h.83594l.02734.25391.07422.23438.125.21484.16016.1836.1914.15234.22266.11328.23828.07422.2539.02344.25782-.02344.23828-.07422.21875-.11328.19531-.15235.16016-.18359.1211-.21484.07812-.23438.02734-.2539-.02734-.25391-.07813-.23438-.1211-.21093-.16015-.1836-.19531-.15234-.21875-.11719-.23828-.07031-.25781-.02734-.25391.02734-.23828.07031-.22266.11719-.1914.15234-.16016.1836-.125.21094-.07422.23437-.02734.2539h-.83594l.01953-.2539.0586-.23828.08984-.22266.1211-.21094.15624-.1914.17969-.17188.21094-.15234.23047-.13281-.28516-.19531-.14063-.1211-.1289-.14453-.11328-.17188-.08594-.19921-.0586-.23438-.01953-.27344H255l.02344.21485.0664.1914.10157.16407.13672.14062.16796.10938.1875.08203.20703.05078.21875.01953.22266-.01953.20703-.05078.1875-.08203.16406-.10938.13672-.14062.10547-.16407.0664-.1914.02345-.21485-.02344-.21484-.0664-.1914-.10548-.16798-.13671-.13671-.16407-.11329-.1875-.08203-.20703-.05078-.22265-.01562-.21875.01562-.20704.05078-.1875.08204-.16797.11328-.13671.13671-.10157.16797-.0664.19141-.02344.21484h-.78516l.03516-.3789.10938-.33203.17187-.28516.23047-.23828.28125-.1875.32031-.13672.35938-.08203.38672-.02735"/></g></defs><use xlink:href="#aj"/></svg>