<svg xmlns="http://www.w3.org/2000/svg" role="img" xmlns:xlink="http://www.w3.org/1999/xlink" viewBox="142.45 309.95 326.84 171.84"><defs><clipPath id="a"><path d="M144 311.67188h1v168.65625h-1zm0 0"/></clipPath><clipPath id="b"><path d="M144 311.67188h324v168.65625H144zm0 0"/></clipPath><clipPath id="c"><path d="M211 471h21v9.32813h-21zm0 0"/></clipPath><clipPath id="d"><path d="M467 311.67188h1v168.65625h-1zm0 0"/></clipPath><clipPath id="e"><path d="M144 476h2v4.32813h-2zm0 0"/></clipPath><clipPath id="f"><path d="M155 476h5v4.32813h-5zm0 0"/></clipPath><clipPath id="g"><path d="M167 477h7v3.32813h-7zm0 0"/></clipPath><clipPath id="h"><path d="M181 477h6v3.32813h-6zm0 0"/></clipPath><clipPath id="i"><path d="M193 479h9v1.32813h-9zm0 0"/></clipPath><clipPath id="j"><path d="M193 479h3v1.32813h-3zm0 0"/></clipPath><clipPath id="k"><path d="M207 478h8v2.32813h-8zm0 0"/></clipPath><clipPath id="l"><path d="M220 479h8v1.32813h-8zm0 0"/></clipPath><clipPath id="m"><path d="M226 480h1v.32813h-1zm0 0"/></clipPath><clipPath id="n"><path d="M233 479h8v1.32813h-8zm0 0"/></clipPath><clipPath id="o"><path d="M239 480h2v.32813h-2zm0 0"/></clipPath><clipPath id="p"><path d="M248 477h5v3.32813h-5zm0 0"/></clipPath><clipPath id="q"><path d="M261 477h6v3.32813h-6zm0 0"/></clipPath><clipPath id="r"><path d="M276 476h2v4.32813h-2zm0 0"/></clipPath><clipPath id="s"><path d="M289 476h3v4.32813h-3zm0 0"/></clipPath><clipPath id="t"><path d="M302 476h4v4.32813h-4zm0 0"/></clipPath><clipPath id="u"><path d="M314 477h6v3.32813h-6zm0 0"/></clipPath><clipPath id="v"><path d="M328 477h5v3.32813h-5zm0 0"/></clipPath><clipPath id="w"><path d="M341 477h6v3.32813h-6zm0 0"/></clipPath><clipPath id="x"><path d="M355 476h4v4.32813h-4zm0 0"/></clipPath><clipPath id="y"><path d="M368 477h5v3.32813h-5zm0 0"/></clipPath><clipPath id="z"><path d="M382 476h3v4.32813h-3zm0 0"/></clipPath><clipPath id="A"><path d="M396 476h2v4.32813h-2zm0 0"/></clipPath><clipPath id="B"><path d="M409 476h2v4.32813h-2zm0 0"/></clipPath><clipPath id="C"><path d="M420 478h8v2.32813h-8zm0 0"/></clipPath><clipPath id="D"><path d="M434 477h6v3.32813h-6zm0 0"/></clipPath><clipPath id="E"><path d="M448 476h4v4.32813h-4zm0 0"/></clipPath><clipPath id="F"><path d="M461 477h5v3.32813h-5zm0 0"/></clipPath><clipPath id="G"><path d="M144 463h1v8h-1zm0 0"/></clipPath><clipPath id="H"><path d="M144 463h1v2h-1zm0 0"/></clipPath><clipPath id="I"><path d="M144 451h3v6h-3zm0 0"/></clipPath><clipPath id="J"><path d="M144 438h4v5h-4zm0 0"/></clipPath><clipPath id="K"><path d="M144 424h4v6h-4zm0 0"/></clipPath><clipPath id="L"><path d="M144 411h3v6h-3zm0 0"/></clipPath><clipPath id="M"><path d="M144 397h3v6h-3zm0 0"/></clipPath><clipPath id="N"><path d="M144 384h3v6h-3zm0 0"/></clipPath><clipPath id="O"><path d="M144 371h4v6h-4zm0 0"/></clipPath><clipPath id="P"><path d="M144 358h4v5h-4zm0 0"/></clipPath><clipPath id="Q"><path d="M144 345h4v4h-4zm0 0"/></clipPath><clipPath id="R"><path d="M466 345h2v4h-2zm0 0"/></clipPath><clipPath id="S"><path d="M144 333h4v2h-4zm0 0"/></clipPath><clipPath id="T"><path d="M466 332h2v3h-2zm0 0"/></clipPath><clipPath id="U"><path d="M144 319h4v3h-4zm0 0"/></clipPath><clipPath id="V"><path d="M466 318h2v2h-2zm0 0"/></clipPath><clipPath id="W"><path d="M465 318h3v3h-3zm0 0"/></clipPath><g id="X" clip-path="url(#clip1)"><path fill="#fff" fill-opacity="0" fill-rule="evenodd" d="M0 0h1000v1000H0zm0 0"/><path fill="#d3d3d3" fill-opacity="0" fill-rule="evenodd" d="M162.15234 355.86719l-.23437.29297.0586.23437.11718.17188.17578.23437.29297.34766.11328.0586.11719-.17188.0586-.23438.17577-.17578.46485-.17578h.69922l.23437.29297.28906.8164.0586.17579.17578.23046.35156.23438.69922.69922.17188.17578.23437.34765.23438.41016.28906.58203.41015.46485.23047.23437.23438.17578.11719.23047.17578.29297.17187 1.16406v.23438l.0586.28906.05859.11719.11719.11719.34765.41015.11719.17188.17578.17578.17578.23437.11719.17188.17188.35156.05859.23438.23437.40625.23438-.0586-.17578.17578-.0586.92969h-.58203l-.23437-.11328-.34766.11328-.11719.11719-.05859.29297-.0586.17578-.11718.17187-.46484.29297-.0586.23438-.0586.11328v.64453l.0586.17187v.41016l.0586.0586v.40624l.05859.40625.11719.17579.05859.05859.23047.64062-.0586.29297v.69922l-.05859.58203v.23438l-.0586.23047-.05468.35156v1.92187l.05469.1172h.42578l-.36719.11718-.02344.35156.89063 1.16797 1.74219.53906 1.33984.35938v.53906l.08984.8086.53516.71484 1.51953.26953.89063-.08594.08984 1.16406.53516.1797 1.16015-.1797 2.05469-.98437 1.16016-.36328 1.8789-.17578 1.69531-.1797-.17968.71876-1.51563.08594-1.25.08984-.80469.26953-1.07421.8086.26953.71875.53515.89843-.17968.625-.26563.8086.26563 1.07812.625.89844.80468.17969 1.25-.1797-.26562.72267.09766.5039.05468.29297v.17188l.0586.29296v.40625l.17578.1172.35156.11718h.40625l.29297-.17578.11328-.11719.0586-.11719.11718-.23047.0586-.17578.35156-.46484.23047-.17578.17578-.0586.17578.0586.0586.17578.11718.98828.05469.46875.0586.17188.11718.23437.17578.0586.8164.05859h.28907l.11719.23437.05859.40625.0586.35156v1.10547l.11718.29297.11719.34766.28906.69922.17578.35156.58203.7539.35157.17579.17187.0586.46875.23437.64063.46484.34765.23438.29297.17578.29297.05468.23047.0625.8164.34766.29297.17578.11328.17188.35157.35156.11719.17578.52343.64063v.28906l.0586.35156v.34766l.05859.35156.0586.28906.11718.0586.17188.05859h.17578l.58203.23437.17578.1172.17578.28905.17578.23438.11328.23437.29297.23047.11719.11719v.41016l.0586.05468.28906.23438.23437.11719.0586.11718.11718.17188.0586.11719.23047.23437.05859.17578.23437.0586.1172.05859-.1172.11328-.05859.11719v.11719l-.11719.29296-.11719.28907v.58203l.17579.11719.11718.05859.0586.11719.11719.11719.11328.05859.17578.34765.0586.35157.05858.40625v.17578l-.05859.17578-.11719.69922v.17187l.1172.17579.29296.29296h.40625l.17578.1172.11719.17187.11719.29296v.23438h-.52735l-.23047-.23438h-.23437l-.17578.0586-.0586.69922.0586.34765.11719.17579.17578.41015.11718.23047.28907.46875.17578.05469h.52344l.23437.0586.75781.64062.0586.29296v.23438l.05859.0586.23047.34765v.35156l-.11719.17188v.29297l.29297.28906.29297.17578.17187.0586.29297.17577.29297.1172.58203.40624.28906.23438.29297.17578.21875.16015.01563.01172.23047.17579.64062.52343.17578.23438.1172.17578.17577.17578.11328.17188v.64062l.1172.17578.46874.11719.58203.11719.23438.05859.23047.11328.29297.11719.11328.0586.58593.35156.28907.17187.17578.0625.17578.05469.17578.0586.69922.35155.28906.17579.23438.05468.28906.17578.23437.1172.64063.40624.29297.11719.17187.0586.23438.05859.41015.05859.23047.0586.23438.11718.0586.17188-.41017.17578.46875.0586.0586.29296.11328.23438.17578.05468.23438.0586.17578.05859.40625.11719.64062.23437.11719.17188.0586.23437v.17578l-.0586.1172-.0586.40624.23438.23438.11719.05859.34766.11719.64062.23047.17578.11718.28906.1172.17578.17577.23438.46485.58203 1.10546.17578.17579.34766.17578.17578.11719.35156.11718 1.04688.52344.23437.0586.46485.11327.29297.0586.46484.17578.75781.58203.23438.23438.34765.46484.17578.17578.28907.23438.8164.69921.29297.17579.28906.28906.29297.17578.29297.28906.69531.64063.17578.17578.29297.23437.28907.23438.46875.28906.64062.58203.34766.23438.23437.29297.34766.34765.35156.46485.9336.99218.34765.40625.11719.17579.23437.05859.11328.11719.64454.17578.23047.11328.23437.0586.29297.17577.23047.1172.9336.69921.40624.40625.23438.17578.40625.17578.23437.11719.8164.34766.34766.23437.23438.11719.29297.28906.23047.11719.7578.35156.35157.17188.23047.05859.29297.11719.23437.0586.8711.17577h.8164l.46875.23047.17188.0586.875.69921.46484.1172.29297.05858.17578.0586.23047.0586.46875.05859.34766.05859.35156.0586.40625.05859h.29297l.17187.0586v.23046l.17578.17578h.29297l.34766.0586.35156.05859.69922.11719h.64063l.46484-.23438.29297-.17578.17187-.11719.41016-.17187.28906-.17578.9336-.46485.46875-.29297.52343-.29296.46485-.17188.46484-.17578 1.05078-.46485.28906-.11718.41016-.11719.28906-.11719.52735-.17578 1.51562-.69922.58203-.34765.28907-.0586.29297-.0586.34765-.11718.875-.23047.35156-.11719h.11329l.23437-.05859.875-.23437.23438-.0586h.8125l.35156-.0586.8164-.11718.17188-.0586.35156-.05468.29297-.0586.23047-.05859.8164-.17578.17579-.0586h.34765l.23438-.05859.46484-.11718.75781-.17188.23438-.0586h.34765l.41016-.11718.28906-.0586 1.28516-.05859h.28906l.41016-.0586.23047-.05858h.17578l.875-.1172h.40625l.41015-.11718h.34766l.35156-.11328.8711-.0586h1.75l1.04687.28907.41016.11719.28906.11718.35156.11719.28907.11719 1.05078.17187.28906.0586h.29297l.29297.05859.17187.0586.41016.05859.17187.0586.1172.05858h.11718l.11719.0586.35156.0586h.11328l.41016.0664 1.92187.39453 1.92578.39453 1.51953.44922 1.69532.71875 2.14453.80469 1.60547-.71875 1.42968-.80469 1.16016-1.07813 1.25-.44921 3.03516-.71875 1.875-.35938 2.14453-1.34765 2.23437-1.25391 2.5-1.25781 1.69531-.44922 1.78516-.17969 1.16016-.26953.625.53906 1.33984-.26953.71485-.98828.98437-1.34375.44531-.17969.80469-.35937 1.875-.53907 1.78516-.44921 1.25-.26954 1.16015-.08984 1.69922-.08984 1.96094-.26954 1.25-.08984h.53906l.625-.08984h.89063l2.14453-.17969 2.41015-.17969 2.58985-.08984 1.69531.17969 1.60938.08984 1.42968.35938 1.16016.71875 1.875.98828 1.16015 1.52734.26563.71484.6289.08985.35548.89844.53515.53906.53516 1.52734 1.07422.35938h.53515l-.80469.53515.08985 1.70703.71484 2.69532.89063.80468.89453.98829.71484 1.2578 1.78516.53907 1.51953-.17969.35547 1.34375 1.60937-.80469.98047-.53906.26953.26953.31641-.21484.21875-.14453.80078.44922.44922-.35938h.35547l.53515-.26953.53907-.71875.53515-.26953.625-.98828 1.16016.44922.83984.3711 1.39454.61718 1.6953-.17969h1.60548l1.78515.08985.17969-1.70704.53516-1.34375.80468.26954.4922.84765.40233.40625-.08984.53906v.35938l.71485.44922.71093-.26953h1.42969l.35938.98828.4453 1.25781.71485 1.34375 1.25.6289 1.69531.62891.71485-.17969.17969-.53906.98046-.08984.44922.35937.08594 1.25782-.26563.6289-.53515.17969v.53906l.71484.98438.26563.53906.98437.98828.80078 1.07813-.26562.35937-.08985.89844-.625 2.33203-.35546 2.0664-.08985 1.79298-.17969.71875-.08984.53906v1.4375l-.98047 1.88281-.35937 1.70703-.53516.89844-.80469 1.16797-.26562.53906 2.05469 1.2539.08593.35938-.35546.53906-.08985-.17968v.80859l.08985 1.4375-.44532.71484-1.07422.09375-.26562.71485.53515.89844.8047.71875 1.16015.80859 1.33984.26953.44531.35938-.35546.44921-1.78907-.08984-1.25-.44922-.71484-.71875-.625-.08984-.17578 3.58984-.1875 1.3086h89.35937V311.70313h-55.26953v49.08203l.76172.125 3.28906.54296 2.02344 2.83594v2.7539l2.35156.33204 2.34766.33203h4.05078l-1.3789 4.16016-2.02344.70703-2.02344.70312-.54297.34375-2.59375 1.6172-.1875.11718-2.02344-2.07813-.73046-2.74218-2.67188-2.07813-1.375-3.5-.0664-.08203-1.95704-2.67188 2.75-1.41796v-49.08204H294.42187v91.41407l.1172.03125.1328.01172.07422.07421.10547.04688.08985.0586.08593.05859.08985.0586.29687.29687.0586.08984.03125.11719.02734.11719.01563.13671-.03125.1172-.0586.08983-.0586.08594-.04296.10547-.04688.10156-.02734.1211v.14453l.17578.26953.14844.14844.07422.08594.07422.07421.04296.10547.0625.08985.0586.08593.04297.10547.0586.08985.04687.10156.04296.10547.0586.08594.11719.17968.07421.07422.0625.08594.0586.08984.04297.10547.0586.08985.05858.08593.0625.08985.0586.08984.04297.10156.11719.17969.07421.07422.0586.08594.07422.07421.08984.0586.10547.04687h.14844l.1328-.01562.13282.01562.10156-.04687.07422-.07422.04688-.10156-.01563-.13281v-.14844l-.04687-.10547-.02735-.11719-.04687-.10156-.02735-.1211-.04296-.10156-.0625-.08984-.04297-.10156-.04297-.10547-.03125-.11719-.01563-.13281-.01171-.13672.08593-.0586.0586-.08593.12109-.03125.04297.10547.01562.1328v.1172l.0586.10156.0586.08984.08983.0586.14844.14843.0586.08985.04296.10547-.01171.10156.08593.0586.10547.04687.08594.0586.08984.05858.07422.07422-.11719.02735-.10546.04687-.08594.0586-.07422.07421-.0586.08985-.0625.08594-.02734.12109-.04687.10156-.04297.10547-.03125.11719-.01172.13281-.01563.13281v.14844l.02735.11719.04687.10547.04297.10156.0586.08984.07421.07422.08985.0586.07422.07421.08984.0586.0586.08984.04296.10547.04688.10156.11719.03125.1328.01563h.14845l.11718-.03125.10547.04297.04297.10547.04688.10156.02734.1211L299.5 410l.02734.11719.03125.1211.02735.11718.10547.04297.10156.04687.13281-.01562.14844.14844.0625.08593.07422.07422.07031.07422.08984.0625.10547.04297.10156.04297.1172.03125.13671.01562.11719-.03125.07422-.07422.02734-.11718-.01172-.13282-.03125-.12109-.02734-.11719.04297-.10547h.11719l.08984.0625.11719.02735h.14843l.13282.01562h.14843l.13282.01563.1328-.01563h.14845l.1328-.01562.13282-.01172.13672.01172.11719-.02735.13281-.01562.1914-.0586-.05859.17579-.01562.1328-.02735.1211-.01562.13281-.0586.08594-.1328.01563-.10548.04687-.10546.04297-.1172.03125-.11718.02735-.26563.03125h-.14843l-.13281.01562-.07422.07422.05859.08594.14844.14843.11719.1797.07421.0703.08985.0625.08984.0586.08594.0586.08984.05858.10156.04297.10547.0625.10547.04297.08594.0586.10547.04687.10156.04297.17969.11719.0586.08984-.04298.10156-.04687.10547.01562.13281.22266.22266.0586.08985.04296.10156.03125.1211.04297.10155.01563.13282.03125.11718.01171.13672.03125.11719.14844.14844.10156.04297.10547.04296.1172.03125.1328.01563.13672.01563h.11719l.11719-.03125.08984-.0586.04297-.10547.04688-.10156.04296-.10547.03125-.11719.01172-.1328v-.14845l-.01172-.1328-.01562-.13282-.03125-.11719-.04297-.10547-.04688-.10547-.04296-.10156-.04297-.10547-.01563-.13281.01563-.13281.02734-.11719.03125-.11719.02735-.1211.04687-.10155.08984-.0586.08594-.0625.07422-.07422.08984-.05859.22266-.22266.0586-.08593.07421-.07422.11719-.17969.0586-.08594v-.14844l-.07423-.07421-.10156-.04688-.10547-.04297-.10156-.04297-.0586-.08984-.04687-.10547-.02734-.11719.08984-.05859.11719-.03125.10156-.04297.17969-.11719.14844-.14843.01172-.13282-.01172-.10546-.08985-.0586-.1328.01563h-.14845l-.1328.01562-.13282-.01562-.1211-.03125-.08593-.0586-.07422-.07422-.0586-.08984-.0625-.08594-.11718-.17969-.0586-.08593.03125-.1211.08594-.05859.1211-.03125.05859-.08594v-.1211l-.03125-.11718-.0586-.08984-.05859-.08594-.04687-.10547-.02735-.11719-.01562-.1328.0586-.08985.07421-.07422.08984-.0586.1172-.17968.07421-.07422.0586-.08594.14843-.14844.1211-.03125.1328-.01562.13282.01562.07422.07422.04297.10547.01562.13281-.03125.1172-.11719.03124-.1328.01172-.14844.14844-.04297.10547-.04688.10156-.02734.1211-.03125.11718v.14844l.03125.11719.04297.10546.05859.08985.07422.07031.07422.07422.11719.03125.12109.02734.11719-.02734.1328-.01563h.1172l.08984.0586.07422.07422.04687.10546.0586.08594.10156.04688.13281.01562.10547.04297.08594.0586-.01172.10546-.07422.07422-.17969.11719-.05859.08984-.08984.0586-.07032.07422-.07421.07421-.0625.08985-.02735.11719-.01562.1328.01562.13282-.01562.13281v.14844l.01562.13281.02735.1172.03125.12108.07421.07422.08985.0586.08594.0586.08984.05858.11719.03125v.08594l-.10157.04688-.08984.0586-.26563.03124-.11718.02735h-.14844l-.10547.04296-.10156.04688-.0586.08984-.0625.23438-.01171.13281-.03125.1211-.01563.1328v.29298l-.01172.1328.01172.13673.01563.1328.1328.01563.13282.01172.1211.03125.08593.0586.07422.07421.04688.10547.04296.10157.01563.1328v.44532l-.01563.13281v.44532l.03125.26562.02735.11719.01562.13281.03125.11719.08594.21094.03125.26562v.14844l-.03125.11719-.02734.11718-.03125.1211-.02735.11719-.03125.11718-.03125.1211-.01171.1328-.01563.13282.08984.0586.1172-.03125.10155.01562.04688.10547-.03125.26562v.44141l-.04297.10547-.04688.10547-.04296.10156-.04297.10547-.0586.08594-.03125.12109-.04296.11719-.03125.11719-.01563.1328.01563.13282.05859.08984.10547.04688.08594.0586.05859.08593-.01172.13672-.03125.11719-.04297.10156v.44531l-.01562.13281v.14844l-.03125.11719-.04297.10547-.02735.11719-.04687.10546-.04297.10157-.03125.12109-.02734.11719-.03125.13281-.03125.11719-.02735.11719-.04297.10546-.03125.1172-.03125.12108-.01171.13282-.01563.13281v.29688l.02734.11718v.14844l.04688.39844.02734.11719.0586.08984.12109.03125h.14844l.13281-.01563.0586.08985v.11719l-.0586.08984-.08984.0586-.10157.04296-.10546.04688-.08985.05859-.08594.0586-.13671.01562-.1172-.03125-.1328-.01563-.10157.04688-.0625.08594-.01172.13671-.01562.13282-.03125.11719-.02735.11718-.01562.13281-.03125.1211v.29687l.01563.13282.03125.11718v.14844l.01171.13281v.14844l-.02734.11719-.04688.10156-.02734.1211-.03125.11718-.0586.08985-.07421.07421-.10156.04297-.10547.04688-.11719.02734-.1211.03125-.10156-.04687.0586-.08594.10547-.04688.02734-.11718.03125-.11719.02734-.1211.03125-.11718v-.14844l.01563-.13281-.03125-.11719-.04297-.10547-.10547.01563-.07422.07422-.10156.04296-.08984.0625-.07422.07422-.04297.10157-.01563.1328-.03125.1172L304.25 426l-.03125.11719-.02734.11719-.03125.12109-.02735.11719-.03125.11718-.04297.10547-.08984.0586h-.08984l-.1172-.03125-.03124-.08594.01562-.13672-.03125-.11719v-.14844l-.01171-.1328v-.14844l-.0625-.23438-.02735-.1211-.04297-.10156-.04687-.10546-.0586-.08594-.05859-.08985-.04297-.10546-.0625-.08594-.14844-.14844-.0703-.07422-.10548-.04687-.10547-.04297-.10156-.04297-.29687-.29688-.08985-.07421-.08594-.0586-.10546-.04297-.08985-.0625-.08594-.0586-.10546-.04296-.08985-.0586-.08594-.0625-.07421-.0703-.10547-.04688-.08594-.0586-.10547-.04296-.08984-.0625-.10156-.04297-.10547-.04297-.08594-.0586-.10547-.04687-.10547-.04297-.10156-.04687-.08985-.0586-.10156-.04297-.10547-.04296-.08984-.0625-.11719-.02735-.13281-.01562-.13281.01562H299.75l-.13281.01563-.11719-.03125-.08984-.0586-.07422-.07422-.08985-.05859-.10156-.04688h-.14844l-.12109-.02734-.10156-.04297-.07422-.07422-.11719-.17968-.08984-.0586-.10156-.04297-.08985-.0625-.10547-.04296-.08984-.0586-.08594-.0586-.10547-.04687-.0586-.08594-.05858-.08984-.04297-.10547-.04688-.10156-.07422-.07422-.08594-.0586-.07421-.07421-.08985-.0586-.22265-.22265-.04297-.10547-.03125-.26563.10547-.04296h.14453l.10547.04296.07421.07422.08985.0586.08594.0586.10546.04687.08985.05859.14844.14844.0703.07422.14845.14843.0625.08594.07421.07422.08594.0586.07422.07421.08985.0625.08984.0586.08594.05859.26953.17578.10156.04688.10547.04296.10156.04297.04688-.07421.05859-.08594.07422-.07422.07031-.07422.10547.04297.07422.07422.0586.08984.04296.10156.04688.10547.04296.10547.1211.02735.11719-.02735.07421-.08984.04297-.10547.0586-.08985.07422-.07421.10546-.04297.1172-.02735.1328.01172.08985.0586.14844.14843.05859.08985.04297.10547.04687.10156.04297.10547.04297.10156.10547.04688.10547.04296.13281.01563.08594-.0586.0586-.08984.07421-.07422.10547-.04297.11719.02735.10547.04687.10156.04297.10547.04297.10156.04688.17969.11718v.11719l-.01563.13281.01563.13281.01562.13672.0586.08594.10156.04688.1211.02734.11718.03125h.14844l.11719-.03125.05859-.08984.17969-.1172.05859-.08983.07422-.07422.0586-.08594.11718-.17969.17969-.11719.11719.03125.08984.0586.04297.07422-.01563.1328v.1172l.08985.05859h.14843l.13282-.01563.1328-.01171.26563-.03125.10547-.04297.11719-.03125.1211-.02735.07421-.07421.07031-.07422.0625-.08985-.01562-.10547-.04688-.10156-.10156-.04297-.10547-.01562-.11718.02734-.26563.03125h-.14844l-.07421-.07422-.08985-.0586-.11719-.03124-.11718-.02735-.13282-.01562h-.14843l-.13282.01563h-.29687l-.10547-.04688-.14844-.14844-.04297-.10156-.05859-.08984.22266-.22266.08593-.0586.10547-.04296.11719-.03125.13281-.01563.13281.01563.13672.01562.10157.04297.1328-.01172.08985-.0625.10156-.04297.0625-.08984-.04687-.10156-.08984-.0586-.1172-.03125-.10155-.04296-.0586-.08985-.0625-.08984v-.11719l.01563-.13281.10547-.04688.07421-.07031v-.1211l-.08984-.05859-.03125-.11719.08985-.05859.07421-.07422.04297-.10547.0586-.08984.04687-.10156.01563-.13281v-.14844l-.04688-.10547-.04297-.10156-.08984-.0586-.13281-.01562-.10157-.04297-.13671-.01563-.1172-.03125h-.4453l-.13282-.01562-.13281-.01172-.13281-.01563-.11719-.03125h-.14844l-.13281-.01562-.13281-.01172-.26563-.03125-.1211-.04297-.08593-.0586-.07422-.07421v-.14844l.01172-.13281.10547-.04688.10156-.04296.13281-.01563h.15235l.13281-.01562h.29297l.1211.03125.10156.04296.08984.0586.23438.0625.12109-.04688.08984-.05859.10156-.04297.13282-.01562.10547.04296.10156.04688.13281.01172.1211-.02735h.14453l.12109-.03125.11719-.02734.10547-.04687.07421-.07422.08594-.0586.14844-.14843.0586-.08594.04687-.10547.02734-.11719.01563-.10547-.10156-.04296-.08985-.0586-.11719-.03125-.10546-.04297-.08985-.0625-.07422-.08594-.07422-.07421-.10156-.04297-.10547-.04688-.10156-.04297-.0586-.08984-.04687-.10156-.08594-.21094-.0625-.08594-.05859-.08984-.07422-.07422-.08594-.0586h-.26953l-.11719.03126-.08984.05859-.10156.04297-.13281.01562-.10547-.01562-.02735-.11719-.0625-.08984-.11718-.03125-.10157-.04297-.14843-.14844-.03125-.11719-.01563-.10546.07422-.07422.17969-.1172.11719-.02733.11718-.03125.13672.01562.10156.04297.10547.04297.10156.04687.10547.04297.1172.03125.1328.01563.1172.02734.1328.01563.10547-.01563.08985-.0586-.07422-.07421-.10547-.04297-.07422-.07422-.07422-.08984-.14844-.14844-.08593-.0586-.08985-.05859-.07422-.07422-.08984-.0586-.10156-.04687-.1211-.02734-.10156-.04688-.10547-.04296-.11719-.03125-.10156-.04297-.1211-.03125h-.14843l-.11719.03125-.10546.04297-.08594.0625-.17969.11718-.08594.0586-.08984.0586-.10547.04687-.08594.05859-.10547.04297-.10156.04297-.10547.04687-.07422.07422-.05859.08985-.0586.08593-.04687.10547-.0586.08594-.07421.07422-.13281-.01172-.1172-.03125h-.11718l-.07422.07422-.08984.0586-.07422.07421-.08984.0586-.08594.05859-.10547.04687-.10156.04297-.13672.01563-.10156-.04297-.14844-.14844-.10547-.04688h-.08594l-.10547.04688-.10156.04297-.1211.03125-.11718-.03125-.07422-.07422v-.11719l.03125-.1211.07422-.0703.0586-.08985.07421-.07422.11719-.03125.10547-.04296h.29297l.13281-.01563.13672-.01563.10156-.04296.08985-.0586.10156-.04687.08984-.0586.13281-.01171.08985.05859.13281.01172.08984-.0586.08594-.05859.10547-.04297.08984-.0586.08594-.0625.08985-.05859.14843-.14843.0586-.08594.05859-.08985.10547-.04296.13281-.01563.11719.02735.1211.03125.05859-.0586.05859-.08984.03125-.26563.02734-.11719.10547.01172.13281.01563.10157-.04297.08984-.0586.0586-.08984.07421-.07422.0586-.08984.04687-.10156.01172-.13281-.01172-.13282-.04687-.10547-.14844-.14843-.0586-.08985-.05859-.08594-.04297-.10546v-.44532l.01563-.1328v-.14845l.01172-.1328-.0586-.0586-.08984.0586-.10156-.04298-.17969-.11719-.08594-.05859-.0625-.08984-.0586-.08985-.07421-.07421-.08594-.0586-.1211.03125-.10155.01172-.10547.04688-.08594.05859-.10547.04297-.14844.14844-.08984.05859-.08594.0586-.08984.0625-.10547.04296-.13281.01563v-.1211l.10547-.04297.11718-.03125.07422-.0703.04297-.10548v-.14844l-.02734-.11718-.14844-.14844-.13281-.01563h-.14844l-.11719.03125-.10547.04297-.10156.04297-.08984.0625-.11719.02735-.07422-.07422.01172-.13281-.04297-.10157-.04297-.10547-.08984-.05859-.11719.02734-.1211.03125-.11718.03125-.10156.04297-.1211.03125-.10156.04297-.10547.04297-.08984.0586-.10156.01562v-.11719l.01562-.13281-.0586-.08985-.07421.04297-.14844.14844-.0586.08985-.07421.07421-.04688.10547-.04296.10156-.07422.07422-.0586.08985-.07422.07422-.05859.08593-.07422.07422-.08984.0625-.07422.07031-.07422.07422-.10156.01563-.13281.01562-.10547-.04296v-.1211l.14843-.14844.04297-.10156.0586-.08984.04687-.10156.04297-.10547.0586-.08985.03124-.11719.04297-.10156.03125-.1211.02735-.11718.04687-.10547.04297-.10156.04297-.10547.07422-.07031.08984-.0625.08985-.0586.10156-.04296h.29687l.26563-.03125.10547-.04297-.07422-.07422-.11719-.03125-.10547-.04297-.08984-.0586-.10156-.04687-.08985-.0586-.10156-.04296-.10547-.04297-.08984-.0625-.08594-.0586-.10547-.04296-.10156-.04297-.1211-.03125-.11718-.03125-.10157-.04297L297.5 410.25l-.10156-.04297-.08985-.0586-.04296-.10546-.01563-.13281.10156-.04297.13281-.01563.13672.01563.13282-.01563.10156-.04297.0586-.08984.01562-.10547-.08985-.0586-.07421-.07421-.10157-.04297-.08984-.0586-.14844-.14843-.04297-.10547-.01562-.13281v-.29297l-.0586-.08985-.08984-.05859-.07422-.07422-.04297-.10547-.03125-.11718-.0586-.08985-.07421-.07422-.11719-.02734-.07422-.07422-.08984-.0586-.08984-.0625-.08594-.05859-.07422-.07421-.0586-.08594-.04687-.10547-.08594-.0586-.14843-.14843-.19532-.0586-.1328.01563-.10157.04297-.07422.07422-.04688.10156-.04296.10547-.0586.08984-.0586.08594-.29687.29687-.08984.0586h-.08594l-.0625-.08594-.04297-.10547.03125-.11719.0586-.08984.02734-.11719-.01172-.13281-.08984-.0625-.10547.04688-.11719.02734-.11719.03125-.26953.17578-.10156.04688-.11719.02734-.10546.04687-.08985.0586-.10156.04297-.0586-.08594-.04687-.10547.01563-.13281.04687-.10547.07031-.07422.07422-.07031.0586-.08985v-.14843l-.04297-.10547h-.23829l-.10156.04687-.03125.11719-.02734.11719-.03125.1211-.07422.04296-.13281.01563-.07422-.04688-.04297-.10156-.04297-.10547-.04687-.10156-.04297-.10547-.1211.03125-.10156.04297-.13281.01562-.11719.03125-.10547.04297-.08984.0586-.10156.04687-.1211.02734-.13281.01563-.10156-.04297-.0586-.08985-.04687-.10546-.04297-.10157-.04297-.10546v-.1172l.0586-.08984.08593-.05859.17969-.11719.10156-.04687.10547-.04297.10547-.0586.10156-.04296.08985-.0625.10156-.04297.10547-.0586.10156-.04687.08984-.0586.10547-.04296.10156-.04297.08985-.0625.10156-.04297.13672-.01563.11719.03125.10156.04297.1211.03125.10156.04297.10546.04688.10157.04296.10547.04297.10156.04688.10547.04297.10156.04297.10547.04687.08594.0586.10546.04296.1172.03125.10546.04297.10156.04688.08985.0586.10547.04296.10156.04297.10547.04687.11719.02735.10156.04687.1211.02735h.14843l.08594-.0586.01562-.10156.0586-.08984-.02735-.1172-.07422-.07421-.11719-.17969-.07421-.07422-.08985-.07421-.17969-.1172-.08593-.05859-.10547-.04296-.10156-.04688-.26954-.17578-.05859-.08985-.07422-.07421-.0586-.08985-.04296-.10156-.03125-.11719-.01563-.13672v-.5625l-.01171-.1328-.01563-.13282-.03125-.11719-.01562-.13281-.01172-.13281-.03125-.1211-.22266-.22265-.0586-.08594-.01562-.10547.03125-.11719.13281-.01562v-91.41406H172.9922v1.45312l-.0586.23438-.35156 1.05078-.17187.52343-.1172.34766-.17577.41016-.11719.17187-.23438.29297-.23046.0586h-.35157l-.11718.05859-.23047.40625v.29297l.11719.17578.23046.23047.1172.23437.64062.75781.29297.46485.17578.23437.23047.35156.23437.34766.64063.8164.17578.46485.17187.41016.11719.69531.17578.46875.11719 1.39844.0586.46484v.875l.11718 1.04688v4.78125l-.0586.46484-.35156 1.28125-.17578.52344-.11328.41015-.35156.9297L172.93359 336l-.23437.58203-.11719.17578-.17187.34766-.17578.40625-.35157.8164-.0586.29297-.11327.29297-.11719.28906-.0586.17579-.11718.875-.0586.40625-.05859.11718-.0586.17579-.05859.17187-.23047.52734-.11718.17188v.23437l-.11719.23438-.0586.17187-.17577.58594v.28906l-.0586.17579v.29296l-.0586.11329-.05859.52734v.17187l-.05468.23438v2.6211l-.17578.8164-.1172.17578-.17577.23438-.1172.17187-.11327.23438-.58594.93359-.23047.28906-.29297.46485-.17578.23437-.28906.35156-.35156.69922-.11328.23047-.17579.41016-.17578.23046-.40625.52735-.8164.69922-.29297.17187-.28906.23438-.17579.11719-.17578.17578-.52344.40625-.52734.17578-.17187.17578-.23438.05469-.64062.17578h-.75782m12.21094 31.02344l-1.07422.44921.35938.89454 1.25-.71485.44531-.53906-.98047-.08985"/><path fill="#d3d3d3" fill-opacity="0" fill-rule="evenodd" d="M201.50781 416.59766h-.89453l.44922.6289.98047.35938.80469-.08985.4453-.98828-.17577.08985-.71485-.35547-.89453.35547m154.6211 59.0703l-.0586-.52343v-.29297l.11328-.29297.0586-.23046.46875-.46875h.11328l.11719-.11329.11718-.05859h.17579l.23437-.0586h.34766l.23437.0586.11719.0586.23047.17187.0586.17578.11718.58203v.29297l-.11719.17578-.17187.28906-.17579.17579-.52734.52343-.23047.23438-.11719.0586h-.17578l-.11718-.0586-.40625-.29297-.17579-.11719-.11718-.0586-.0586-.11327-.05468-.1172m6.64062-10.95702l-.0586-.17188v-1.10937l.0586-.17188.17578-.0586.17188-.05858h.17578l.23437-.0586.1172.0586.05858.69921-.05859.17188-.11719.17578-.11718.0586-.23438.52343-.11328.0586h-.23438l-.05859-.1172m9.61328-14.39062l-.11719-.17578v-.69922l.29297-.875.1172-.17187.17577-.35156.11328-.23047.1172-.29297.35155-.75781.1172-.23047.17187-.23438h.17578l.11719-.0586h.64062l.11719.0586.23437.23438.17188.11328.35156.29297.11719.11718.11328.17579v.11328l.11719.05859.11718.11719v.69922l-.05859.17578v.23047l-.0586.17578-.34765 1.05078-.11719.23047-.11719.23437-.11718.0586-.23047.23437-.64063.28906h-.875l-.41015-.11718-.64063-.46485"/><path fill="none" stroke="#bebebe" stroke-linecap="round" stroke-linejoin="round" stroke-miterlimit="10" stroke-width=".5" d="M467.95703 311.69531H144.02734v168.625h323.9297v-168.625"/><g clip-path="url(#a)"><path fill="#fff" fill-opacity="0" fill-rule="evenodd" d="M144 475.89063v4.4375h.0039H144V311.67188h.0039H144v164.21875"/></g><g clip-path="url(#b)"><path fill="#fff" fill-opacity="0" fill-rule="evenodd" d="M144.0039 480.32813V311.67188h26.625v134.16406l-4.4375.0664-4.4375.6211-3.01562 2.73828-1.42187.50781-3.96094-.50781-.48047-.40625-4.4375-.60547-.89844 1.01172.89844 1.41797 2.58594 3.01953 1.85156 2.85937.09766 1.57813.6914 4.4375.58985 4.4414 3.0625 3.08204 4.4375.60156 4.4375-.01172 4.4375-.35156 4.4375-.6211 4.4414.1836 4.4375-.32422 3.69922-2.5586.73828-.14062 4.4375-.375 4.4414-.46875 4.4375.16797 3.28126.8164 1.15625.89454 1.40625-.89454 2.67578-4.4414-2.82031-4.4375-1.26172-4.0625-.05469-.375-4.38281-3.69531-4.4375.42187-4.4414.36328-4.4375.78125-4.4375-.36328-4.4375-1.90234-.07423-.04297-4.36718-2.96875-4.4375-.45703V311.67188h53.26172v97.15625l-.46094.48828-3.97656 1.97265-2.44922 2.46485 2.44922 3.60937 4.4375-1.24219v12.64844l-4.4375.0625-4.4375.46875-2.57032 2.20703-.98047 4.4375-.89062 1.58203-1.61719 2.85547 1.61719 3.15625 4.4414-.46484 3.39063 1.7461 1.04688.42577 3.41406 4.01563 1.02344 2.70703.41015 1.73047 1.04688 4.4375 2.98047 1.64062 4.4375.8672v3.3828l-2.57813 2.98829 2.57813 2.49218 2.14843-2.49219-2.14844-2.98828v-3.3828l3.32813-2.50782 1.11328-.3164 4.4375-3.0625 1.42969-1.0586v-4.4375l.11719-4.4414-1.54688-1.26173-1.8086-3.17578-2.6289-2.76953-4.4414-.15625-2.56641-1.51172-1.8711-1.98047-1.89062-2.45703-2.54688-2.73828V416.1211l3.03907-2.36718-2.29688-4.4375-.74219-.48829v-97.15625h53.26172v113.48829L275.25 427.0703l1.90234 1.83203 4.4375-.88671.91407-.94532-.91407-.94922-4.4375-.96093V311.67187h13.3125v140.47657l-1.98828 1.55078-2.44922 1.47265-4.4375.67579-2.44921 2.28906-.02344 4.4375 2.47265 1.72656 4.4375 1.0664 4.4375-2.0625.73047-.73046 3.70703-2.8125 1.625-1.625-.53515-4.4375-1.08985-1.09766-4.4375-.45312V311.67188h17.75391v99.21093l-3.14844 2.8711 3.14844 3.05078 4.4375-.77344 2.04297-2.27734-2.04297-2.33204-4.4375-.53906v-99.21094h22.1914v91.375l-2.16406 1.82813-1.07421 4.4414 2.22265 4.4375 1.01563 1.0625 4.4375 2.98048 4.19921-4.04297-.15625-4.4375-4.04296-3.37891-2.51954-1.0625-1.91796-1.82813v-91.375h13.3164v111.3711l-4.4375 2.41797-1.3711 1.60937 1.3711 1.59375.27735 2.84375 2.8164 4.4375 1.34375 1.27344 1.54297-1.27344 2.76953-4.4375-.10937-4.4375-4.20313-4.02734v-111.3711H467.9961v168.65625H227.53516l.79297-.36328 3.39843-4.07421-3.39844-3.0547-4.4375-1.0078-4.4375.1875-4.4375-.20313-3.6328 4.07813 3.6328 3.38671 4.4375.73438 1.44141.3164h-76.89062"/></g><path fill="#50fcfc" fill-rule="evenodd" d="M148.4375 450.67969l-.89844-1.41797.89844-1.01172 4.4375.60547.48047.40625 3.96094.50781 1.42187-.50781 3.01563-2.73828 4.4375-.6211 4.4375-.0664v1.76953l-4.4375.23437-4.36328 1.42188-.07422.00781-4.4375 1.59766-3.44922 2.83203-.22656 4.4375 1.27734 4.4375 1.59766 4.4414.80078.8047 4.4375 1.60156 4.4375.04687 4.4375-.85547 4.4375-1.5664 4.4414.51953 3.21094-.55079 1.22656-.07812 4.4375-.83594 4.4375-.38281 4.4414-1.45703 4.4375.19531 4.4375-1.61719.20704-.26562-.20703-.26172-3.78516-4.17578-.05469-4.4375-.59765-.5039-4.4375-.00782-2.47266.51172-1.96875.25781-4.4375.72266-4.4375-.13281-1.79297-.84766-2.64453-2.17969-3.77344-2.25781-.66796-.45313-4.4375-1.20312v-1.76953l4.4375.45703 4.36718 2.96875.07422.04297 4.4375 1.90234 4.4375.36328 4.4375-.78125 4.4414-.36328 4.4375-.42187 4.38282 3.6953.05469.375 1.26172 4.0625 2.82031 4.4375-2.67578 4.44142-1.40625.89453-1.15625-.89454-3.28125-.8164-4.4375-.16797-4.4414.46875-4.4375.375-.73829.14063-3.69922 2.55859-4.4375.32422-4.4414-.1836-4.4375.6211-4.4375.35156-4.4375.01172-4.4375-.60156-3.0625-3.08204-.58985-4.4414-.6914-4.4375-.09766-1.57813-1.85156-2.85937-2.58594-3.01953"/><path fill="#00e8fc" fill-rule="evenodd" d="M154.91797 462.57422l-1.27734-4.4375.22656-4.4375 3.44922-2.83203 4.4375-1.59766.07422-.00781 4.36328-1.42188v2.6875l-4.4375.19141-4.4375 1.97656-1.22657 1.0039-1.33203 4.4375 2.25 4.4375.3086.69532 3.80468 3.7461.63282.27734 4.4375.14453 1.42187-.42188 3.01563-.44921 4.4375-.52735 4.4414-.03125 4.4375-.49219 4.4375-.6953 4.4375-.40626 3.40625-1.83984 1.03516-3.73828.35547-.69922-.35547-.36719-4.4414-.89062-4.4375.77343-4.4375-.98437-4.4375-1.84766-2.2461-1.1211-2.19531-1.375-4.4375-1.6289-4.4375-.16797v-2.6875l4.4375-.23437 4.4375 1.20312.66797.45313 3.77343 2.25781 2.64453 2.17969 1.79297.84765 4.4375.13282 4.4375-.72266 1.96875-.25781 2.47266-.51172 4.4375.00781.59766.5039.05468 4.4375 3.78516 4.17579.20703.26172-.20703.26562-4.4375 1.6172-4.4375-.19532-4.4414 1.45703-4.4375.38281-4.4375.83594-1.22657.07813-3.21094.55078-4.4414-.51954-4.4375 1.56641-4.4375.85547-4.4375-.04688-4.4375-1.60156-.80078-.80469-1.59766-4.4414"/><path fill="#00d4fc" fill-rule="evenodd" d="M157.00781 462.57422l-2.25-4.4375 1.33203-4.4375 1.22657-1.0039 4.4375-1.97657v1.44922l-3.11328 1.53125-1.32422 1.14844-1.44141 3.28906 1.4414 2.67187 1.03126 1.76563 3.40625 3.39453 4.4375.02344 4.4375-.4414 4.4375-.4922 4.4414-.22265 4.4375-.74219 4.4375-.5586 4.4375-.42577.99219-.53516-.99219-1.85938-4.4375-.23828-4.4375-1.34765-2.625-.9922-1.8125-.58202-4.4414-2.35156-4.4375-1.32422-.7461-.1797-3.6914-.90624-4.4375-.625v-1.44922l4.4375-.1914 4.4375.16796 4.4375 1.6289 2.1953 1.375 2.2461 1.1211 4.4375 1.84766 4.4375.98437 4.4375-.77343 4.4414.89062.35548.36719-.35547.69922-1.03516 3.73828-3.40625 1.83984-4.4375.40625-4.4375.69531-4.4375.4922-4.4414.03124-4.4375.52735-3.01563.44921-1.42187.42188-4.4375-.14453-.63282-.27735-3.80468-3.74609-.3086-.69531"/><path fill="#00c4fc" fill-rule="evenodd" d="M157.3164 460.8086l-1.4414-2.67188 1.4414-3.28906 1.32423-1.14844 3.11328-1.53125v1.44922l-.16797.08203-4.26953 3.69922-.32422.73828.32422.59765 2.23828 3.83985 2.19922 2.1914 4.4375-.0625 4.4375-.16406 4.4375-.46094 4.4414-.41015 4.4375-.99219.96485-.10156-.96485-.22266-4.4375-2.17969-3.66015-2.03515-.78125-.41797-4.4375-1.64063-4.4375-1.26953-4.05078-1.10937-.38672-.08203v-1.44922l4.4375.625 3.6914.90625.7461.17969 4.4375 1.32421 4.4414 2.35157 1.8125.58203 2.625.99219 4.4375 1.34765 4.4375.23828.99219 1.85938-.99219.53515-4.4375.42579-4.4375.55859-4.4375.74219-4.4414.22265-4.4375.4922-4.4375.4414-4.4375-.02344-3.40625-3.39453-1.03125-1.76563"/><path fill="#00b8fc" fill-rule="evenodd" d="M157.3164 458.73438l-.32421-.59766.32422-.73828 4.26953-3.69922.16797-.08203v2.29297l-2.53907 2.22656 1.55078 4.4375.98829.98828 4.4375-.14844 4.4375.11328 4.4375-.43359 3.92968-.51953-3.92968-1.72266-4.4375-2.42969-.33203-.28515-4.10547-1.47266-4.4375-.7539v-2.29297l.38672.08203 4.05078 1.10937 4.4375 1.26954 4.4375 1.64062.78125.41797 3.66015 2.03515 4.4375 2.1797.96485.22265-.96485.10156-4.4375.99219-4.4414.41015-4.4375.46094-4.4375.16406-4.4375.0625-2.19922-2.1914-2.23828-3.83985"/><path fill="#00a8fc" fill-rule="evenodd" d="M160.76563 462.57422l-1.55079-4.4375 2.53907-2.22656 4.4375.7539 4.10547 1.47266.33203.28515 4.4375 2.4297 3.92968 1.72265-3.92968.51953-4.4375.4336-4.4375-.11329-4.4375.14844-.98828-.98828"/><path fill="#50fcfc" fill-rule="evenodd" d="M210.57422 443.53906l-1.61719-3.15625 1.61719-2.85547.89062-1.58203.98047-4.4375 2.57031-2.20703 4.4375-.46875 4.4375-.0625v6.2539l-4.38671.92188 4.38672.64453 1.35156-.64453-1.35156-.92187v-6.2539l2.54687 2.73827 1.89063 2.45703 1.87109 1.98047 2.5664 1.51172v2.72266l-.42968.20312-4.00781 3.77735-4.17188-3.77735-.26563-.16015-.21484.16015.21484.42969 3.4336 4.00781.35547 4.4414.64844 3.375.30468 1.0625 4.13281 2.06642 4.44141-1.32813.9336-.73828-.75391-4.4375-.17969-.14453-4.4414-3.6211-2.34375-.67578 2.34375-2.85937 1.51562-1.57813-1.51563-.20312v-2.72266l4.44141.15625 2.6289 2.76953 1.8086 3.17578 1.54688 1.26172-.1172 4.4414v4.4375l-1.42968 1.0586-4.4375 3.0625-1.11328.3164-3.32813 2.50782-4.4375-.86719-2.98046-1.64062-1.04688-4.4375-.41016-1.73047-1.02343-2.70703-3.41406-4.01563-1.04688-.42578-3.39063-1.7461-4.4414.46485"/><g clip-path="url(#c)"><path fill="#50fcfc" fill-rule="evenodd" d="M215.01563 479.27734l-3.63282-3.38671 3.63281-4.07813 4.4375.20313 4.4375-.1875v1.29687l-4.4375.05469-4.4375.7539-1.74609 1.95704 1.7461 1.625 4.4375 1.2539 4.4375.7539 4.4375-2.70312.77343-.92969-.77344-.6953-4.4375-2.07032v-1.29688l4.4375 1.00782 3.39844 3.05469-3.39844 4.07421-.79296.36329h-6.64063l-1.4414-.31641-4.4375-.73438"/></g><path fill="#00e8fc" fill-rule="evenodd" d="M215.01563 477.51563l-1.7461-1.625 1.7461-1.95704 4.4375-.7539v1.94531l-2.08204.76563 2.08203.8125 4.4375-.02344 1.1172-.78906-1.1172-.60157-4.4375-.16406v-1.94531l4.4375-.05469 4.4375 2.07031.77344.69531-.77344.9297-4.4375 2.70312-4.4375-.7539-4.4375-1.25392"/><path fill="#50fcfc" fill-rule="evenodd" d="M219.45313 417.36328l-2.44922-3.60937 2.44922-2.46485 3.97656-1.97265.46094-.48829.74218.48829 2.29688 4.4375-3.03906 2.36718-4.4375 1.2422"/><path fill="#00d4fc" fill-rule="evenodd" d="M219.45313 476.70313l-2.08204-.8125 2.08203-.76563 4.4375.16406 1.1172.60156-1.1172.78907-4.4375.02344"/><path fill="#fff" fill-opacity="0" fill-rule="evenodd" d="M223.89063 435.02344l-4.38672.92187 4.38672.64453 1.35156-.64453-1.35156-.92187"/><path fill="#00e8fc" fill-rule="evenodd" d="M223.89063 440.8125l-.21485-.42969.21484-.16015.26563.16015 4.17188 3.77735 4.0078-3.77735.4297-.20312 1.51562.20312-1.51563 1.57813-2.34375 2.85937 2.34375.67578 4.44141 3.6211.17969.14453.7539 4.4375-.93359.73828-4.4414 1.32813-4.13282-2.06641-.30469-1.0625-.64843-3.375-.35547-4.4414-3.4336-4.00782"/><path fill="#50fcfc" fill-rule="evenodd" d="M232.76563 469.50781l-2.57813-2.49219 2.57813-2.98828 2.14843 2.98829-2.14844 2.49218m44.38672-40.60547l-1.90234-1.83203 1.90234-1.91015 4.4375.96093.91407.94922-.91407.94531-4.4375.88672m4.4375 35.39844l-2.47265-1.72656.02344-4.4375 2.44921-2.28906 4.4375-.67579 2.44922-1.47265 1.98828-1.55078v3.91015l-3.46093 2.07813-.97657 2.46484-.78125 1.97266.78125.32812.58594-.32812 3.85156-2.65235 2.16016-1.78515-2.16016-2.07813v-3.91015l4.4375.45312 1.08985 1.09766.53515 4.4375-1.625 1.625-3.70703 2.8125-.73047.73047-4.4375 2.0625-4.4375-1.0664"/><path fill="#00e8fc" fill-rule="evenodd" d="M286.02734 462.90234l-.78125-.32812.78125-1.97266.97657-2.46484 3.46093-2.07813 2.16016 2.07813-2.16016 1.78515-3.85156 2.65235-.58594.32812"/><path fill="#50fcfc" fill-rule="evenodd" d="M308.21875 416.80469l-3.14844-3.05078 3.14844-2.8711v2.51953l-.38672.35157.38672.375 1.08203-.375-1.08203-.35157v-2.51953l4.4375.53906 2.04297 2.33204-2.04297 2.27734-4.4375.77344"/><path fill="#00e8fc" fill-rule="evenodd" d="M308.21875 414.1289l-.38672-.375.38672-.35156 1.08203.35157-1.08203.375"/><path fill="#50fcfc" fill-rule="evenodd" d="M329.39453 413.7539l-2.22265-4.4375 1.07421-4.4414 2.16407-1.82813 1.91796 1.82813 2.51954 1.0625v1.73047l-4.4375.20312-.66016 1.44532.66016 1.0625 1.36718 3.375 3.07032 2.61328 2.71093-2.61328-.73828-4.4375-1.97265-1.64844v-1.73047l4.04296 3.3789.15625 4.4375-4.19921 4.04298-4.4375-2.98047-1.01563-1.0625"/><path fill="#00e8fc" fill-rule="evenodd" d="M330.41016 410.3789l-.66016-1.0625.66016-1.4453 4.4375-.20313v5.28515l-.26172.80079.26172.22656.23437-.22656-.23437-.80079v-5.28515l1.97265 1.64844.73828 4.4375-2.71093 2.61328-3.07032-2.61328-1.36718-3.375"/><path fill="#00d4fc" fill-rule="evenodd" d="M334.84766 413.98047l-.26172-.22656.26172-.80079.23437.80079-.23437.22656"/><path fill="#50fcfc" fill-rule="evenodd" d="M339.28906 428.66406l-1.3711-1.59375 1.3711-1.60937 4.4375-2.41797v.82422l-3.72265 3.20312.17968 4.4375 3.54297 3.9336 3.67188-3.9336-.32813-4.4375-3.34375-3.20312v-.82422l4.20313 4.02734.10937 4.4375-2.76953 4.4375-1.54297 1.27344-1.34375-1.27344-2.8164-4.4375-.27735-2.84375"/><path fill="#00e8fc" fill-rule="evenodd" d="M340.1836 431.50781l-.1797-4.4375 3.72266-3.20312v1.3711l-2.1289 1.83202-.38672 4.4375 2.51562 2.79297 2.60547-2.79297-.69531-4.4375-1.91016-1.83203v-1.3711l3.34375 3.20313.32813 4.4375-3.67188 3.9336-3.54297-3.9336"/><path fill="#00d4fc" fill-rule="evenodd" d="M343.72656 434.30078l-2.51562-2.79297.38672-4.4375 2.1289-1.83203v1.3711l-.53515.46093-.95313 4.4375 1.48828 1.65235 1.53906-1.65235-1.05859-4.4375-.48047-.46094v-1.37109l1.91016 1.83203.69531 4.4375-2.60547 2.79297"/><path fill="#00c4fc" fill-rule="evenodd" d="M343.72656 433.16016l-1.48828-1.65235.95313-4.4375.53515-.46094v3.11329l-.46094 1.78515.46094.50781.47656-.5078-.47656-1.78516v-3.11329l.48047.46094 1.0586 4.4375-1.53907 1.65235"/><path fill="#00b8fc" fill-rule="evenodd" d="M343.72656 432.01563l-.46094-.50782.46094-1.78515.47656 1.78515-.47656.50781"/><g clip-path="url(#d)"><path fill="#fff" fill-opacity="0" fill-rule="evenodd" d="M467.9961 480.32813H468V311.67188h-.0039H468v168.65625h-.0039"/></g><path fill="#fff" fill-opacity="0" fill-rule="evenodd" d="M182.39844 475.5l5.50781-1.94531-3.3125-9.39063-5.50781 1.9414 3.3125 9.39454"/><path fill-rule="evenodd" d="M182.9961 466.67188l.48046-.17188 2.09375 5.9375-.74219.26172-1.49609-4.23438-1.3086.46094-.18359-.52344.50391-.24609.22266-.13672.18359-.16015.14453-.19922.09766-.25782.03515-.32421-.03125-.40625"/><g clip-path="url(#e)"><path fill="none" stroke="#000" stroke-linecap="round" stroke-linejoin="round" stroke-miterlimit="10" stroke-width=".5" d="M144.82422 476.91406l-1.64844 6.83203"/></g><path fill="none" stroke="#000" stroke-linecap="round" stroke-linejoin="round" stroke-miterlimit="10" stroke-width=".5" d="M144.58203 477.90625l1.1914-.30469"/><g clip-path="url(#f)"><path fill="none" stroke="#000" stroke-linecap="round" stroke-linejoin="round" stroke-miterlimit="10" stroke-width=".5" d="M155.76953 477.17578l3.09375 6.3086"/></g><path fill="none" stroke="#000" stroke-linecap="round" stroke-linejoin="round" stroke-miterlimit="10" stroke-width=".5" d="M156.21875 478.09375l.71875-.9961"/><g clip-path="url(#g)"><path fill="none" stroke="#000" stroke-linecap="round" stroke-linejoin="round" stroke-miterlimit="10" stroke-width=".5" d="M168.13672 477.85547l4.98828 4.94922"/></g><path fill="none" stroke="#000" stroke-linecap="round" stroke-linejoin="round" stroke-miterlimit="10" stroke-width=".5" d="M168.86328 478.57422l.35156-1.17578"/><g clip-path="url(#h)"><path fill="none" stroke="#000" stroke-linecap="round" stroke-linejoin="round" stroke-miterlimit="10" stroke-width=".5" d="M181.375 477.9336l5.14063 4.79296"/></g><path fill="none" stroke="#000" stroke-linecap="round" stroke-linejoin="round" stroke-miterlimit="10" stroke-width=".5" d="M182.125 478.6289l.3164-1.18359"/><g clip-path="url(#i)"><path fill="none" stroke="#000" stroke-linecap="round" stroke-linejoin="round" stroke-miterlimit="10" stroke-width=".5" d="M193.75 480.48047l7.01953-.30078"/></g><g clip-path="url(#j)"><path fill="none" stroke="#000" stroke-linecap="round" stroke-linejoin="round" stroke-miterlimit="10" stroke-width=".5" d="M194.76953 480.4336l-.6211-1.0547"/></g><g clip-path="url(#k)"><path fill="none" stroke="#000" stroke-linecap="round" stroke-linejoin="round" stroke-miterlimit="10" stroke-width=".5" d="M213.7539 481.82422l-6.35937-2.98828"/></g><g clip-path="url(#l)"><path fill="none" stroke="#000" stroke-linecap="round" stroke-linejoin="round" stroke-miterlimit="10" stroke-width=".5" d="M227.2461 481.36719l-6.71094-2.07422"/></g><g clip-path="url(#m)"><path fill="none" stroke="#000" stroke-linecap="round" stroke-linejoin="round" stroke-miterlimit="10" stroke-width=".5" d="M226.26953 481.0625l.23047 1.20703"/></g><g clip-path="url(#n)"><path fill="none" stroke="#000" stroke-linecap="round" stroke-linejoin="round" stroke-miterlimit="10" stroke-width=".5" d="M240.55078 481.40625l-6.6914-2.15234"/></g><g clip-path="url(#o)"><path fill="none" stroke="#000" stroke-linecap="round" stroke-linejoin="round" stroke-miterlimit="10" stroke-width=".5" d="M239.57813 481.08984l.21484 1.21094"/></g><g clip-path="url(#p)"><path fill="none" stroke="#000" stroke-linecap="round" stroke-linejoin="round" stroke-miterlimit="10" stroke-width=".5" d="M248.71094 483.33984l3.61719-6.02343"/></g><g clip-path="url(#q)"><path fill="none" stroke="#000" stroke-linecap="round" stroke-linejoin="round" stroke-miterlimit="10" stroke-width=".5" d="M261.51563 477.6875l4.63671 5.28125"/></g><g clip-path="url(#r)"><path fill="none" stroke="#000" stroke-linecap="round" stroke-linejoin="round" stroke-miterlimit="10" stroke-width=".5" d="M277.20313 483.84375l-.10547-7.02734"/></g><g clip-path="url(#s)"><path fill="none" stroke="#000" stroke-linecap="round" stroke-linejoin="round" stroke-miterlimit="10" stroke-width=".5" d="M291.15625 483.77344l-1.38281-6.89063"/></g><g clip-path="url(#t)"><path fill="none" stroke="#000" stroke-linecap="round" stroke-linejoin="round" stroke-miterlimit="10" stroke-width=".5" d="M302.54688 483.61719l2.46875-6.57813"/></g><g clip-path="url(#u)"><path fill="none" stroke="#000" stroke-linecap="round" stroke-linejoin="round" stroke-miterlimit="10" stroke-width=".5" d="M319.03516 477.39844l-3.875 5.86328"/></g><path fill="none" stroke="#000" stroke-linecap="round" stroke-linejoin="round" stroke-miterlimit="10" stroke-width=".5" d="M318.46875 478.25l1.22266.11719"/><g clip-path="url(#v)"><path fill="none" stroke="#000" stroke-linecap="round" stroke-linejoin="round" stroke-miterlimit="10" stroke-width=".5" d="M332.4375 483.19922l-4.05469-5.74219"/></g><g clip-path="url(#w)"><path fill="none" stroke="#000" stroke-linecap="round" stroke-linejoin="round" stroke-miterlimit="10" stroke-width=".5" d="M341.6289 477.50781l4.19141 5.64063"/></g><g clip-path="url(#x)"><path fill="none" stroke="#000" stroke-linecap="round" stroke-linejoin="round" stroke-miterlimit="10" stroke-width=".5" d="M355.53125 477.15625l3.01953 6.34375"/></g><path fill="none" stroke="#000" stroke-linecap="round" stroke-linejoin="round" stroke-miterlimit="10" stroke-width=".5" d="M355.97266 478.07813l.73046-.98438"/><g clip-path="url(#y)"><path fill="none" stroke="#000" stroke-linecap="round" stroke-linejoin="round" stroke-miterlimit="10" stroke-width=".5" d="M368.57813 477.29688l3.55468 6.0625"/></g><path fill="none" stroke="#000" stroke-linecap="round" stroke-linejoin="round" stroke-miterlimit="10" stroke-width=".5" d="M369.09375 478.17969l.64453-1.04297"/><g clip-path="url(#z)"><path fill="none" stroke="#000" stroke-linecap="round" stroke-linejoin="round" stroke-miterlimit="10" stroke-width=".5" d="M382.77734 476.92969l1.78907 6.79687"/></g><path fill="none" stroke="#000" stroke-linecap="round" stroke-linejoin="round" stroke-miterlimit="10" stroke-width=".5" d="M383.03516 477.91797l.90234-.83203"/><g clip-path="url(#A)"><path fill="none" stroke="#000" stroke-linecap="round" stroke-linejoin="round" stroke-miterlimit="10" stroke-width=".5" d="M396.41406 476.86328l1.14453 6.9336"/></g><path fill="none" stroke="#000" stroke-linecap="round" stroke-linejoin="round" stroke-miterlimit="10" stroke-width=".5" d="M396.58203 477.8711l.97266-.7461"/><g clip-path="url(#B)"><path fill="none" stroke="#000" stroke-linecap="round" stroke-linejoin="round" stroke-miterlimit="10" stroke-width=".5" d="M409.88281 476.83984l.83594 6.97657"/></g><path fill="none" stroke="#000" stroke-linecap="round" stroke-linejoin="round" stroke-miterlimit="10" stroke-width=".5" d="M410.0039 477.85547l1.00782-.69922"/><g clip-path="url(#C)"><path fill="none" stroke="#000" stroke-linecap="round" stroke-linejoin="round" stroke-miterlimit="10" stroke-width=".5" d="M420.41016 478.89453l6.41406 2.86719"/></g><path fill="none" stroke="#000" stroke-linecap="round" stroke-linejoin="round" stroke-miterlimit="10" stroke-width=".5" d="M421.34375 479.3125l-.08594-1.22656"/><g clip-path="url(#D)"><path fill="none" stroke="#000" stroke-linecap="round" stroke-linejoin="round" stroke-miterlimit="10" stroke-width=".5" d="M434.35938 477.9336l5.14453 4.78906"/></g><path fill="none" stroke="#000" stroke-linecap="round" stroke-linejoin="round" stroke-miterlimit="10" stroke-width=".5" d="M435.10938 478.6289l.3164-1.18359"/><g clip-path="url(#E)"><path fill="none" stroke="#000" stroke-linecap="round" stroke-linejoin="round" stroke-miterlimit="10" stroke-width=".5" d="M448.86328 477.10156l2.76953 6.45703"/></g><g clip-path="url(#F)"><path fill="none" stroke="#000" stroke-linecap="round" stroke-linejoin="round" stroke-miterlimit="10" stroke-width=".5" d="M465.28516 477.26563l-3.44922 6.125"/></g><g clip-path="url(#G)"><path fill="none" stroke="#000" stroke-linecap="round" stroke-linejoin="round" stroke-miterlimit="10" stroke-width=".5" d="M143.3125 463.57031l1.375 6.89063"/></g><g clip-path="url(#H)"><path fill="none" stroke="#000" stroke-linecap="round" stroke-linejoin="round" stroke-miterlimit="10" stroke-width=".5" d="M143.51172 464.57031l.94922-.77734"/></g><path fill="none" stroke="#000" stroke-linecap="round" stroke-linejoin="round" stroke-miterlimit="10" stroke-width=".5" d="M156.01953 463.75l2.59375 6.53125m-2.21875-5.58203l.79688-.9375m12.4375-.11719l2 6.73828m-1.70703-5.75781l.875-.85938m12.05468-.08984l2.1875 6.67578m-1.8711-5.70703l.85157-.88281m16.57422 2.14844l-6.66797 2.20703m14.78516 1.875l3.72656-5.95703m11.16406 6.48046l.57813-7.0039m-.49219 5.98437l-1.1289.48438m18.15234-3.21875l-7.01172.5039m5.99219-.43359l.65234 1.03906m13.66016-1.32812l-6.96485.9414m5.94922-.80468l.71484.9961m12.32032 2.08593l-4.3789-5.4961m16.21093 6.19141l-1.41016-6.88672m1.20703 5.88281l-.9453.78125m15.3164-.0703l-3.11719-6.30079m2.66406 5.38281l-.71484.9961m15.78516-1.1875l-5.71875-4.08203m4.88671 3.48828l-.16015 1.21484m14.9375-3.07812l-6.98047.83203m5.96484-.71094l.69922 1.00781M330.48438 463.5l-.14454 7.02734m.1211-6.0039l1.09765-.55469m9.97266.30078l4.39063 5.48828m-3.75391-4.6875l.48828-1.1289m12.98438-.14844l2.80078 6.4414m-2.39453-5.5039l.76562-.96094m14.0039-.23828l-.92187 6.96484m.78906-5.95312l1.14844-.42578m12.17969-.60157l-.67969 6.9961m.58203-5.97656l1.13282-.46875m10.6328-.31641l2.61329 6.52734m-2.23047-5.57812l.78906-.9375m11.35547.42969l4.1875 5.64453m-3.57812-4.82422l.52734-1.10547m12.69531-.03125l3.15625 6.27734M422.5 464.78906l.70703-1.0039m12.66016-.1211l2.1289 6.69922m9.89844-5.95703l4.70703 5.21484m8.21485-.41406l5.48828-4.38672"/><g clip-path="url(#I)"><path fill="none" stroke="#000" stroke-linecap="round" stroke-linejoin="round" stroke-miterlimit="10" stroke-width=".5" d="M146.71484 451.46875l-5.42968 4.46094"/></g><path fill="none" stroke="#000" stroke-linecap="round" stroke-linejoin="round" stroke-miterlimit="10" stroke-width=".5" d="M145.92578 452.11719l1.13281.47265m12.90235-1.19922l-5.29297 4.6172m4.52344-3.94532l1.14843.4375m13.3086-.59766l-6.03906 3.58985m5.16406-3.0664l1.04687.63671m13.57813-.01953l-6.90625 1.3125m6.90625-1.3125l1.53515 1.91406m11.83594-1.09766l-7.01953-.3203m6 .27343l.52344 1.10937m12.97656 1.0586l-5.34766-4.5625m4.56641 3.89844l-.26172 1.1953m12.11328.67579l-.85937-6.97656m.73437 5.96093l-1.0039.70313m15.8125-.15625l-3.59766-6.03906m3.07422 5.16015l-.63672 1.04688m16.1875-3.35938l-7.01953.34375m5.9961-.29297l.6289 1.05079m13.71094-.8086l-7.02344-.24219m7.02344.2422l1.07812 2.20312m11.84766-.71875l-6.2461-3.21485m6.2461 3.21485l.03515 2.45312m13.21875-2.33203l-6.12109-3.45312m6.1211 3.45312l-.0625 2.45313m13.4375-2.57032l-6.2461-3.21875m5.33984 2.75l.01563 1.22657m13.84375-.19532l-5.51953-4.34765m19.5664 1.77343l-6.98046.8047m5.96484-.6875l.69531 1.01171m13.13281-2.57422l-5.97656 3.69531m5.10547-3.15625l1.0625.6172m13.3164-.80079l-6.36327 2.98047m17.86328-4.72656l-2.73438 6.47265m2.33594-5.53125l1.22266-.10937m12.96484-.58594l-3.67969 5.98438m3.14453-5.11329l1.22266.07422m9.95312-1.36718l1.66797 6.82812m-1.42578-5.83594l.91406-.8164m10.76954.51562l4.4453 5.44531m-3.79687-4.65234l.47266-1.13281m11.57422.9961l5.6836 4.1328m-4.85548-3.53125l.17188-1.21484m12.1836.80469l5.94921 3.7461m-5.08203-3.19923l.08984-1.22265m11.83985 2.17578l6.98437.75m-5.96875-.64063l-.45703-1.14062m17.27344 1.40625l-.02344-.19922-.05469-.1914-.09765-.1797-.45703-.375-.19141-.05859-.19922-.01953-.19922.01953-.1914.0586-.46094.375-.09375.17968-.0586.19141-.01953.19922.01953.19922.0586.1914.09375.17578.46094.37891.1914.0586.19922.01953.19922-.01954.1914-.05859.45704-.3789.09765-.17579.05469-.1914.02344-.19922"/><g clip-path="url(#J)"><path fill="none" stroke="#000" stroke-linecap="round" stroke-linejoin="round" stroke-miterlimit="10" stroke-width=".5" d="M147.125 438.77734l-6.25 3.21094"/></g><path fill="none" stroke="#000" stroke-linecap="round" stroke-linejoin="round" stroke-miterlimit="10" stroke-width=".5" d="M147.125 438.77734l2.01563 1.40235m-2.92579-.9336l1.00782.69922m13.35937-.85937l-6.53125 2.59375m6.53125-2.59375l1.86719 1.58984m11.66406-.76562l-6.96484.94921m6.96484-.94921l1.4336 1.99218m-2.44922-1.85547l.71875.9961m13.63672-.88281l-7.01563.4453m7.01563-.4453l1.28515 2.08984m11.96875-1.1836l-6.89453-1.36718m6.89453 1.36719l.71094 2.34765m12.5-1.94531l-6.6836-2.17188m5.71094 1.85547l.21094 1.21094m12.8086.85547l-4.14844-5.67188m3.54687 4.84766l-.53516 1.10547m13.50391.21094l-2.2539-6.65625m1.92578 5.6875l-.84375.89453m15.5039-.46875l-4.28515-5.57031m3.66015 4.76171l-.50781 1.1172m15.67969-2.11329l-6.75-1.95703m6.75 1.95703l.5039 2.39844m12.40235-1.4961l-5.9336-3.76171m5.9336 3.76172l-.1836 2.4453m13.75-2.91796l-6.4375-2.82031m5.5 2.41015l.09375 1.22266m13 .625l-4.11718-5.69531m3.51953 4.86718l-.54297 1.10157m15.7539-2.08204l-6.71484-2.07812m5.73828 1.77734l.22656 1.20313m14.01954-.76953l-6.625-2.33985m5.66406 1.9961l.17969 1.21484m14.29296-1.82422l-7.01562-.4375m5.99219.375l.50781 1.11719m10.51953-4.78125l-.39453 7.01562m15.30469-6.53125l-3.58203 6.04688m14.51171-6.48438l1.1836 6.92579m-1.01172-5.91797l.97266-.75m12.48828-.30078l.55078 7.0078m13.65234-6.96484l-1.22265 6.92188m1.04296-5.91406l1.16797-.3789m13.375-.26173l-3.3203 6.1914m2.83593-5.29296l1.22656.0039m12.73438-.8125l-3.64454 6.00782m3.11329-5.13281l1.22656.0703m8.4336-.53905l4.72655 5.19922m-4.03906-4.44532l.41406-1.15234m14.08594-.48047l.98438 6.95703"/><g clip-path="url(#K)"><path fill="none" stroke="#000" stroke-linecap="round" stroke-linejoin="round" stroke-miterlimit="10" stroke-width=".5" d="M146.9414 425.14844l-5.8828 3.83984"/></g><path fill="none" stroke="#000" stroke-linecap="round" stroke-linejoin="round" stroke-miterlimit="10" stroke-width=".5" d="M146.9414 425.14844l2.14844 1.1836m-3.0039-.625l1.07422.59374m13.17968-1.02344l-6.04687 3.58204m6.04687-3.58204l2.09375 1.27735m-2.97656-.7539l1.05078.63671m13.28125-.90234l-6.32031 3.0703m6.32031-3.0703l1.98438 1.4453m11.66015-.34765l-6.97656.8711m5.96094-.7422l.70312 1.00391m13.64844-.86718l-7.01953.33984m6-.28906l.625 1.05469m13.49219.29296l-6.58203-2.45703m5.625 2.09766l.16015 1.21875m10.66016 1.42187l.3164-7.01953m12.5547 6.97266l1.20702-6.92578m-1.03125 5.91797l-1.16406.38281m15.38281.64453l-.94922-6.96484m.8125 5.94922l-.99609.71875m14.61328.26953l-1.28125-6.91016m1.09375 5.90625l-.96094.76172m14.53125.23047l-1.41796-6.88281m1.21093 5.8789l-.9453.78125m14.55859.19922l-1.60157-6.83984m1.36719 5.84765l-.92188.8047m15.32422-.12892l-3.30468-6.20312m2.82421 5.29687l-.6875 1.01954m14.25-.00391l-2.83984-6.42578m2.42578 5.49219l-.75781.96484m14.96484-.28906l-3.79687-5.91016m3.2461 5.05078l-.60157 1.07031m15.16406-.79687l-5.1875-4.73828m15.69531 5.875l.42579-7.01172m10.0703 5.27734l6.06642-3.54297m9.35937-1.61718l1.84375 6.78125m-1.57422-5.79688l.89453-.83984m14.7539.16015l-3.36327 6.16797m3.36328-6.16797l2.45312.02735m9.2422-.45703l-.1211 7.02734m.10156-6.0039l1.09375-.5586m13.86719-.03125l-3.3789 6.16016m2.89062-5.26563l1.22656.01563m12.70312-.83985l-3.6289 6.01953m3.6289-6.01953l2.44922.13282m8.0625-.4961l1.97656 6.7461m-1.6875-5.76172l.875-.85938m14.7461.125l-3.21485 6.2461"/><g clip-path="url(#L)"><path fill="none" stroke="#000" stroke-linecap="round" stroke-linejoin="round" stroke-miterlimit="10" stroke-width=".5" d="M146.61328 411.40234l-5.22656 4.70313"/></g><path fill="none" stroke="#000" stroke-linecap="round" stroke-linejoin="round" stroke-miterlimit="10" stroke-width=".5" d="M146.61328 411.40234l2.30469.83985m11.04687-.79688l-5.29687 4.61719m5.29687-4.61719l2.28907.875m11.53515-.10156l-6.32031 3.07031m5.40234-2.625l.9922.72266m12.4414-2.23438l-4.71875 5.20313m13.39844.07812l4.55078-5.35937m8.1914 4.73828l5.69531-4.11719m-4.86328 3.51953l-1.10156-.54297m13.55078 1.08985l5.76563-4.01563m-4.92578 3.4297l-1.09375-.5586m14.1328 1.77734l4.63673-5.28125m-4.63672 5.28125l-2.38672-.5625m16.61719 1.14063l2.8086-6.44141m-2.8086 6.4414l-2.44922.19141m16.03125-.08594l2.27344-6.64843m-2.27344 6.64843l-2.42188.39063m16.1797-.26953l1.38671-6.89063m-1.38672 6.89063l-2.35156.69922m16.08594-.64063l.54687-7.00781m-.46875 5.98828l-1.125.48828m15.1211.50781l-.97266-6.96093m.83203 5.94531l-.99219.72266m14.85156.21093l-1.77734-6.79687m1.51953 5.8086l-.90234.83202m13.55469.26953l.0664-7.02734m-.0586 6.00781l-1.08983.5625m14.45312.45704l-.04688-7.02735m.03907 6.00781l-1.07813.58204m15.5586.23437l-2.36329-6.61719m15.51954 3.3086l-.01954-.19922-.05859-.1914-.09375-.1797-.46094-.375-.1914-.05859-.19922-.01953-.19922.01953-.1914.0586-.45704.375-.09765.17968-.0586.1914-.01953.19923.01953.19921.0586.19141.09765.17578.45703.3789.19141.0586.19922.01953.19922-.01953.1914-.0586.46094-.3789.09375-.17578.0586-.1914.01953-.19922m9.35156-1.92188l5.88281 3.83984m-5.02734-3.28125l.10937-1.21875M394.80078 411l4.3711 5.5039M394.80077 411l.98047-2.2461m14.19531 1.5l.65235 6.9961m-.65235-6.9961l2.04688-1.34765m10.86719 1.41016l1.45312 6.875m-1.45313-6.875l1.88282-1.57422m11.4336 1.57422l1.4453 6.875m-1.4453-6.875l1.88671-1.57422m10.96484 1.70312l2.375 6.61328m-2.03125-5.64843l.82813-.91016m11.39844.3164l3.86328 5.8711"/><g clip-path="url(#M)"><path fill="none" stroke="#000" stroke-linecap="round" stroke-linejoin="round" stroke-miterlimit="10" stroke-width=".5" d="M146.64844 398.1289l-5.29688 4.6211"/></g><path fill="none" stroke="#000" stroke-linecap="round" stroke-linejoin="round" stroke-miterlimit="10" stroke-width=".5" d="M146.64844 398.1289l2.28906.875m9.57422-1.86718l-2.39453 6.60547m2.39453-6.60547l2.42969-.34375m-2.77735 1.30469l1.21485-.17188m11.67187-.97656l-.84375 6.97656m.84375-6.97656l2.29297-.88281m-2.41406 1.89843l1.14453-.4414m11.20703-.53516l1.32813 6.90235m-1.13282-5.89844l.95313-.76953m9.51562 4.3789l6.6289-2.32812m-5.66405 1.98828l-.90235-.83203m13.60156 1.89453l5.9297-3.76953m-5.06641 3.21875l-1.06641-.60547m13.5039 1.1289l5.96094-3.71875m-5.96093 3.71875l-2.125-1.23046m15.45312 1.2539l5.9336-3.76562m-5.07032 3.21875l-1.0664-.60547m14.3125 2.03125l4.34765-5.51953m-4.34765 5.51953l-2.41407-.4375m15.89063.5586l4.02344-5.76173m-4.02344 5.76172l-2.4336-.29687m15.28125-.09375l4.95704-4.98438m-4.95703 4.98438l-2.34766-.71094m16.91015 1.51172l2.46094-6.58203m-2.46094 6.58203l-2.43359.3164m15.57031-.39062l2.82032-6.4375m-2.41016 5.5l-1.22266.09375m15.83204 1.1289l-.58985-7.0039m.5039 5.98438l-1.03124.66406m14.67187.32422l-1.0664-6.94532m.91015 5.9375l-.98437.73047m15.41797-.01562l-2.9922-6.35938m2.5547 5.4336l-.73438.98437m15.60156-.88672l-5.22265-4.69922m4.46484 4.01563l-.29687 1.1914m14.59375-4.93359l-5.67188 4.14844m19.28516-3.66406l-6.26563 3.17968m5.35547-2.71484l1.0039.70313m11.13673-2.9297l-2.09766 6.70704m1.79297-5.73047l1.20703-.22656m13.13281-.4336l-3.53906 6.07032m3.02344-5.1875l1.22656.04687m11.42188-1.35937l-1.17188 6.92968m1-5.92187l1.16406-.38672m11.89844-.66406l-.32422 7.01953m.32422-7.01953l2.21875-1.05078m10.54297 1.0664l.78125 6.98438m-.66797-5.96875l1.01563-.6914m15.82812 1.83202l-6.5 2.67188"/><g clip-path="url(#N)"><path fill="none" stroke="#000" stroke-linecap="round" stroke-linejoin="round" stroke-miterlimit="10" stroke-width=".5" d="M146.55469 384.71094l-5.10938 4.82422"/></g><path fill="none" stroke="#000" stroke-linecap="round" stroke-linejoin="round" stroke-miterlimit="10" stroke-width=".5" d="M146.55469 384.71094l2.32422.78515m-3.06641-.08203l1.16016.39063m10.9453-2.14453l-1.20702 6.92578m1.20703-6.92578l2.33203-.76172m-2.50781 1.76953l1.16797-.3789m11.76172-.6797l-.08204 7.02735m.08203-7.02735l2.1797-1.125m-2.19141 2.14844l1.08984-.5625m14.73438.625l-5.08204 4.85547m5.08203-4.85547l2.33204.77344m-3.07032-.0664l1.16407.38671m13.16406-.76953l-5.6289 4.20703m5.6289-4.20703l2.21875 1.04688m-3.03516-.4336l1.10938.52344m6.69531.96875h7.02734m-6.0039 0l-.57813-1.08594m13.21485 2.60156l6.33593-3.03515m-6.33593 3.03515l-1.97657-1.45312m14.95703.20703l7.00391-.54297m-5.98437.46485l-.66016-1.03516m13.21875 2.20703l6.47656-2.73047m-5.53125 2.33203l-.95312-.77343m13.63281 1.74609l5.85938-3.8789m-5.85938 3.8789l-2.15625-1.16797m15.34375.96094l6.11328-3.46485m-6.11328 3.46485l-2.07031-1.3164m16.00781 2.11718l4.8711-5.0664m-4.8711 5.0664l-2.35938-.67188m16.02735.96875l4.16406-5.66015m-3.5586 4.83594l-1.21484-.17579m16.08594 1.6836l-.16015-7.02735m.13671 6.00391l-1.0703.60156m16.36718-.22656l-4.07422-5.72656m3.48047 4.89062l-.55078 1.09766m14.15625-.07031l-3.46875-6.11328m2.96484 5.22265l-.65625 1.03516m15.76172-1.40625l-6.04297-3.58594m5.16406 3.0625l-.05859 1.22656m14.72656-2.86718l-6.98828.73828m5.96875-.6289l.6875 1.01562m13.29297-2.32813l-6.28516 3.14453m5.3711-2.6875l1 .71094m12.26562-2.35156l-4.35937 5.51172m3.72656-4.71094l1.20703.22265m11.89844-1.51562l-2.67188 6.4961m2.67188-6.4961l2.4414-.24219m10.16016.03125l-1.2461 6.91797m1.2461-6.91797l2.33594-.75m10.95703.7461l-1.19922 6.92578m1.02735-5.91797l1.16406-.38281m12-.66407l-.55469 7.00391m.47656-5.98438l1.125-.48828m14.84375 5.01954l-5.70703-4.09766m4.8789 3.5l-.16406 1.21875"/><g clip-path="url(#O)"><path fill="none" stroke="#000" stroke-linecap="round" stroke-linejoin="round" stroke-miterlimit="10" stroke-width=".5" d="M146.77344 371.65234l-5.54688 4.3125"/></g><path fill="none" stroke="#000" stroke-linecap="round" stroke-linejoin="round" stroke-miterlimit="10" stroke-width=".5" d="M146.77344 371.65234l2.23828 1.00391m-3.04688-.3789l1.1211.5039m12.44922-1.69531l-4.44141 5.44531m4.4414-5.44531l2.40626.47656m-3.05078.3164l1.20312.23829m13.65234.0664l-6.23047 3.25m6.23047-3.25l2.02344 1.38672m-2.92969-.91406l1.01172.6914m13.375-.79296l-6.5625 2.50781m6.5625-2.50781l1.85156 1.61328m-2.80468-1.25l1.84765 1.61328m12.1797-2.48047l-6.08204 3.51563m6.08203-3.51563l2.08203 1.30078m-2.96484-.78906l2.08203 1.30078m12.16406-1.72656l-6.17969 3.34375m6.1797-3.34375l2.04687 1.35547m-2.94531-.8711l1.02343.6797m13.39453-.71485l-6.58593 2.44531m5.6289-2.08984l.91797.8125m6.61328.72656l6.89453-1.34766m-5.89062 1.15235l-.77344-.95313m13.46875 2.19531l6.125-3.4414m-5.23437 2.9414l-1.03125-.66015m13.02343-.1875l6.98828-.74219m-5.96875.63281l-.6875-1.01562m13.42579 2.49219l6.10547-3.48047m-6.10547 3.48046l-2.07422-1.30859m15.79297 1.8789l5.30078-4.61718m-5.30078 4.61719l-2.29297-.8789m3.0625.20702l-1.14453-.4414m14.99609 2.05078l2.6875-6.49219m-2.6875 6.49219l-2.44531.23437m17.92969-.0664l-1.65235-6.82813m1.41406 5.83594l-.91796.8125m16.15234-.77344l-5.01563-4.92187m5.01563 4.92187l-.69531 2.35156m14.14843-2.5l-5.28906-4.6289m5.28906 4.6289l-.5625 2.39063m14.66407-3.95703l-6.86329-1.49219m5.8672 1.27734l.33202 1.1797m14.04688-2.03517l-6.9961.64844m6.9961-.64844l1.34765 2.04688m11.38672-3.67969l-5.83593 3.91406m4.98828-3.34375L386.8203 373m12.57813-1.7461l-4.82422 5.10548m4.82422-5.10547l2.36719.65234m9.8164-1.3711l-2.5586 6.54688m2.5586-6.54687l2.4375-.28516m10.33203.1211l-1.47265 6.87109m1.2578-5.8711l1.1797-.33593m13.85937.0703l-4.48828 5.40626m3.83594-4.6211l1.19922.25m13.4375-.29687l-5.82813 3.92969m4.98047-3.35938l1.08203.57813m13.08594 2.76953l-5.83985-3.91016m5.83985 3.91016l-.2461 2.4414"/><g clip-path="url(#P)"><path fill="none" stroke="#000" stroke-linecap="round" stroke-linejoin="round" stroke-miterlimit="10" stroke-width=".5" d="M147.1914 359.02734l-6.3828 2.9336"/></g><path fill="none" stroke="#000" stroke-linecap="round" stroke-linejoin="round" stroke-miterlimit="10" stroke-width=".5" d="M147.1914 359.02734l1.95313 1.48829m-2.8789-1.0625l.97265.74218m12.79688-1.92578l-5.4375 4.44922m5.4375-4.44922l2.26172.94531m-3.0547-.30078l1.13282.47656m13.26563-.71093l-6.01954 3.625m6.01953-3.625l2.10547 1.26172m-2.98047-.73438l1.05079.63281m12.91406-1.48828l-5.57031 4.28516m5.5703-4.28516l2.23438 1.01172m-3.04687-.39062l1.11719.5078m12.64453-1.53515l-4.83985 5.09375m4.83985-5.09375l2.36719.66016m-3.07032.08203l1.1836.32813m12.80468-1.09766l-4.78125 5.14844m4.78125-5.14844l2.375.63281m-3.0703.11719l1.1875.3164m12.89843-.99218l-4.92969 5.0039m4.92969-5.0039l2.35156.69922m11.65625.26171l-6.3164 3.08204m6.3164-3.08204l1.98438 1.44141m11.60547-.65625l-6.86329 1.50781m6.86328-1.5078l1.58985 1.86718m11.52344-2.49219l-6.46094 2.76172m6.46094-2.76172l1.91015 1.53906m10.9961 1.9336l-5.64453-4.1836m5.64453 4.1836l-.36328 2.42578m12.91015-1.66797l-4.10547-5.70313m4.10547 5.70313l-1.08594 2.20313m.48828-3.03125l-.54296 1.09765m13.95703.03125l-3.11328-6.30078m3.11328 6.30078l-1.42969 1.99219m.97656-2.91016l-.71484.9961m14.63281-.15625l-3.41015-6.14454m3.41015 6.14454l-1.33594 2.05859m.83985-2.95313l-.66797 1.02735m14.99219-.48047l-4.4375-5.44922m4.4375 5.44922l-.95313 2.26172m15.10547-3.2539l-6.10937-3.46876m5.21875 2.96485l-.03125 1.22656m14.41406-3.83594l-6.46485 2.76172m5.52344-2.35938l.95703.76954m12.65625-2.16797l-5.17578 4.7539m4.42188-4.0625l1.15625.41016m13.33593-.53516l-6.02343 3.6172m5.14843-3.08985l1.05079.63281m13.23046-.9961l-6.20703 3.28907m6.20703-3.28906l2.03516 1.375m11.30469-1.33204l-6.2539 3.20313m6.2539-3.20313l2.01172 1.40235m-2.92188-.9375l1.0039.70312m13.26563-1.07812l-6.34375 3.02344m6.34375-3.02344l1.97266 1.46094m11.3086-1.52735l-6.27735 3.15625m6.27734-3.15625l2.0039 1.41797m11.38673-1.26172l-6.42578 2.84375m6.42578-2.84375l1.92969 1.51563m11.68359-.04688l-7.02734-.08984m6.0039.07422l.5625 1.08984"/><g clip-path="url(#Q)"><path fill="none" stroke="#000" stroke-linecap="round" stroke-linejoin="round" stroke-miterlimit="10" stroke-width=".5" d="M147.32031 346.03125l-6.64062 2.29297"/></g><path fill="none" stroke="#000" stroke-linecap="round" stroke-linejoin="round" stroke-miterlimit="10" stroke-width=".5" d="M147.32031 346.03125l1.79688 1.67188M160.40234 345.5l-6.17187 3.35547m6.17187-3.35547l2.04688 1.35156m-2.94531-.86328l1.02343.67578m12.65625-1.89844l-5.10937 4.82422m5.10937-4.82421l2.32422.78515m-3.0664-.08203l1.16406.39063m12.08594-1.73047l-3.4922 6.09765m3.4922-6.09765l2.44922.07421m8.5625-.49609l1.11328 6.9414m-1.11328-6.9414l1.95703-1.47656m11.16797 1.51562l1.49609 6.86329m-1.4961-6.86329l1.8711-1.58984m-1.65625 2.58984l.9375-.79687m13.48047-.23828l-1.14453 6.9336m1.14453-6.9336l2.32812-.78125m11.42188.88281l-2.01172 6.73047m1.71875-5.75l1.20312-.24219m13.5586-.14453l-4.32031 5.54297m4.3203-5.54297l2.41798.42578m11.75.53516l-6.02344 3.6211m6.02344-3.6211l2.10156 1.26172m11.08203 2.55859l-5.76172-4.01953m5.76172 4.01953l-.29297 2.4375m-.54297-3.02344l-.14843 1.21875m13.86718-.125l-4.89843-5.03515m4.89843 5.03515l-.75 2.33594m.03907-3.0664l-.75 2.33593m.03515-3.07031l-.375 1.16797m15.34375.05469l-5.35156-4.55079m5.35156 4.55079l-.52734 2.39843m-.25-3.0586l-.52735 2.39454m-.2539-3.0586l-.26172 1.19923m15.35156-.15235l-5.78125-3.9961m5.78125 3.9961l-.28515 2.4375m-.5586-3.01953l-.14062 1.21875m14.85156-1.9336l-6.88672-1.40234m5.88281 1.19922l.34766 1.17578m9.70312-5.08984l1.64844 6.83203m15.8164-2.28516l-6.65234-2.26171m5.6836 1.93359l.19922 1.21094m13.9375-.51954l-6.35938-2.98828m5.4375 2.5547l.0586 1.22265m14.47656-1.76563l-6.95313-1.03515m6.95313 1.03515l.82031 2.3125m12.52344-2.60547l-7.01172-.44921m7.01172.44921l1.01172 2.23829m12.25-3.10547l-6.90625 1.28515m6.90625-1.28515l1.53125 1.92187m-2.53516-1.73437l.76563.96093m13.5078-1.35937l-6.8164 1.70703m6.8164-1.70703l1.64454 1.82422m-2.63672-1.57422l1.64453 1.82031m12.6289-2.20312l-6.74609 1.97265m6.7461-1.97265l1.71484 1.7578m-2.69531-1.46874l1.71094 1.7539m12.48047-2.33984l-6.53907 2.5664m6.53907-2.5664l1.86718 1.59766m-2.8164-1.22266l.92968.79688m13.41407-.95704l-6.69532 2.14063"/><g clip-path="url(#R)"><path fill="none" stroke="#000" stroke-linecap="round" stroke-linejoin="round" stroke-miterlimit="10" stroke-width=".5" d="M466.91016 346.10938l1.7539 1.71093"/></g><g clip-path="url(#S)"><path fill="none" stroke="#000" stroke-linecap="round" stroke-linejoin="round" stroke-miterlimit="10" stroke-width=".5" d="M147.51172 333.86328h-7.02344"/></g><path fill="none" stroke="#000" stroke-linecap="round" stroke-linejoin="round" stroke-miterlimit="10" stroke-width=".5" d="M147.51172 333.86328l1.15234 2.16797m11.97656-3.29688l-6.65234 2.25782m6.65234-2.25781l1.78907 1.67968m-2.7539-1.35156l.89062.83984m12.61328-2.45703l-5.09766 4.83594m5.09766-4.83594l2.32812.78125m-3.07031-.07812l1.16406.39062m12.03516-1.7539l-3.38281 6.15625m3.3828-6.15625l2.45313.03125m-2.9453.86328l1.22655.01562m10.90235-1.34765L197.25 337.375m.02344-7.02734l2.16797-1.14454m9.625 1.48829l3.01953 6.34375m-3.01953-6.34375l1.46093-1.97266m10.84766 2.6875l5.02734 4.91016m-5.02734-4.91016l.6914-2.35156m.04298 3.0664l.34375-1.17578m11.53125 1.51172l6.4414 2.8125m-5.5039-2.40234l-.09375-1.22656m15.28515 5.71093l.8125-6.98047m-.6914 5.96485l-1.14454.44922m18.1875-3.62891l-6.8828 1.41406m6.8828-1.41406l1.5625 1.89063m10.48047 1.57812l-4.33984-5.52344m4.33984 5.52344l-.99219 2.2461m.36329-3.05079l-.4961 1.125m14.69922-.54687l-4.85937-5.07422m4.85937 5.07422l-.76562 2.33203m.05859-3.07031l-.76563 2.33203m15.76172-3.2461l-6.80468-1.76562m6.80468 1.76562l.57032 2.38672m-1.5625-2.64453l.28515 1.19531m14-2.78125l-6.76172 1.92188m6.76172-1.92188l1.69922 1.76954m10.5625-3.44141l-4.65234 5.26562m3.97656-4.5l1.1914.28516m12.9961-.86328l-5.04688 4.89062m4.3125-4.17968l1.16797.375m12.08203 4.42187l-3.44921-6.125m2.94921 5.23438l-.66406 1.03125m15.00781-.50782l-4.5078-5.39062m3.85155 4.60547l-.46093 1.13672m15.29687-1.42579l-6.23437-3.24218m6.23437 3.24219l.01953 2.45312m13.28516-2.4336l-6.21484-3.28124m6.21484 3.28125l.00781 2.45312m13.58985-3.16406l-6.77735-1.85938m6.77735 1.85938l.53515 2.39453m12.88672-2.97656l-6.99219-.69531m6.9922.6953l.93358 2.26954m-1.95312-2.3711l.46875 1.13282m13.75-2.33594l-6.76172 1.91406m6.76172-1.91406l1.69922 1.76953m-2.6836-1.49219l1.69922 1.76954m12.48047-2.39844l-6.52344 2.61719m6.52344-2.6172l1.875 1.58204m-2.82422-1.19922l1.875 1.58203m12.3086-2.14844l-6.36328 2.98438"/><g clip-path="url(#T)"><path fill="none" stroke="#000" stroke-linecap="round" stroke-linejoin="round" stroke-miterlimit="10" stroke-width=".5" d="M466.74219 332.3711l1.96484 1.47265"/></g><path fill="none" stroke="#000" stroke-linecap="round" stroke-linejoin="round" stroke-miterlimit="10" stroke-width=".5" d="M465.8164 332.80469l.98048.73828"/><g clip-path="url(#U)"><path fill="none" stroke="#000" stroke-linecap="round" stroke-linejoin="round" stroke-miterlimit="10" stroke-width=".5" d="M147.39063 319.625l-6.78125 1.84766"/></g><path fill="none" stroke="#000" stroke-linecap="round" stroke-linejoin="round" stroke-miterlimit="10" stroke-width=".5" d="M147.39063 319.625l1.67968 1.78516m11.66406-1.67188l-6.83593 1.6211m6.83594-1.6211l1.62109 1.83985m11.51172-2.39454l-6.47656 2.72657m6.47656-2.72657l1.90234 1.55079m-2.84375-1.15235l.95313.77344m12.70312-2.13281l-5.27344 4.64843m5.27344-4.64843l2.29688.86718m-3.06641-.1875l1.14844.4297m12.63672-1.40626l-4.67578 5.2461m4.67578-5.2461l2.3828.57813m10.40626-.96485l-3.625 6.01953m3.625-6.01953l2.44922.1289m-2.97656.7461l1.22656.0664m11.26172-1.41796l-.91407 6.96875m.91407-6.96875l2.29687-.85938m-2.42969 1.875l1.14844-.42968m8.76953 1.19531l6.14453 3.41016m-5.25-2.91407l.02344-1.22656m12.9414 4.875l5.0586-4.8789m-5.0586 4.8789l-2.33593-.76172m21.6875-1.46484l-7.01563-.42578m5.9922.36328l.51171 1.11719m12.04688 1.78906l-3.45703-6.11719m3.45703 6.11719l-1.32032 2.07031m.81641-2.95703l-.66016 1.03125m15.44141-.9414l-5.3789-4.51954m5.3789 4.51953l-.51172 2.39844m14.63672-4.33594l-7-.64843m7 .64843l.94531 2.26563m12.38281-2.66016l-7.02734.14453m7.02735-.14453l1.1953 2.14063m-2.21874-2.1211l.59765 1.07422m13.53125-2.21875l-6.60937 2.39063m6.60937-2.39063L335.53516 321m-2.78125-1.30078l.91015.82422m13.41406-1.03125l-6.70312 2.11328m6.70313-2.11328l1.75 1.71875m7.40234 2.7539l1.6211-6.83593m13.46093 6.80078l-1.91406-6.76172m1.63672 5.77734l-.88672.84766m16.875-2.1914l-6.70313-2.10938m5.72656 1.80469l.22266 1.20703m12.08594 1.27734l-2.73828-6.46875m2.33984 5.52734l-.77344.95313m14.12891.1211l-2.01953-6.73048m1.72265 5.75l-.87109.86329m15.11328-.14454l-3.28515-6.21093m2.80859 5.30859l-.6875 1.01563m16.30078-3.8047l-6.92578 1.17579m5.91797-1.0039l.75.96874m13.50781-1.4414l-6.79687 1.77734m6.79687-1.77734l1.66406 1.80078m-2.65234-1.54297l.83203.90234m12.95703-2.28125l-5.76562 4.01563"/><g clip-path="url(#V)"><path fill="none" stroke="#000" stroke-linecap="round" stroke-linejoin="round" stroke-miterlimit="10" stroke-width=".5" d="M466.44531 318.53906l2.1836 1.1211"/></g><g clip-path="url(#W)"><path fill="none" stroke="#000" stroke-linecap="round" stroke-linejoin="round" stroke-miterlimit="10" stroke-width=".5" d="M465.60547 319.125l2.1836 1.11719"/></g><path fill="#00f" fill-rule="evenodd" d="M392.67578 463.21094h8.6211V453.0625h-8.6211v10.14844"/><path fill="azure" fill-rule="evenodd" d="M394.51172 454.89844h.83203v2.82031h3.28516v-2.82031h.83203v6.48047h-.83203v-2.91797h-3.28516v2.91797h-.83203v-6.48047"/><path fill="#00f" fill-rule="evenodd" d="M383.80078 432.14063h8.61719v-10.14454h-8.61719v10.14454"/><path fill="azure" fill-rule="evenodd" d="M385.63281 423.82813h.83203v2.82421h3.28907v-2.82421h.83203v6.48046h-.83203v-2.91796h-3.28907v2.91796h-.83203v-6.48046"/><path fill="#00f" fill-rule="evenodd" d="M370.48438 401.07422h8.62109v-10.14844h-8.6211v10.14844"/><path fill="azure" fill-rule="evenodd" d="M372.3164 392.76172h.83594v2.82031h3.28516v-2.82031h.83203v6.47656h-.83203v-2.91406h-3.28516v2.91406h-.83593v-6.47656"/><path fill="#ff3030" fill-rule="evenodd" d="M459.94531 401.07422h7.69531v-10.14844h-7.6953v10.14844"/><path fill="azure" fill-rule="evenodd" d="M461.78125 392.76172h.83203V398.5h3.1914v.73828h-4.02343v-6.47656"/><path fill="#ff3030" fill-rule="evenodd" d="M277.97266 370.0039h7.6953v-10.14452h-7.6953v10.14453"/><path fill="azure" fill-rule="evenodd" d="M279.8086 361.6914h.83202v5.73829h3.19141v.74219h-4.02344v-6.48047"/><path fill="#ffffe0" fill-rule="evenodd" d="M341.74219 340.78516h22.1836v-10.19141h-22.1836v10.1914"/><path fill-rule="evenodd" d="M345.24219 332.42578h.51172v6.29297h-.78907v-4.48828h-1.38671v-.55469l.55859-.0664.2539-.0547.22657-.08984.20312-.14062.17578-.20703.14063-.29688.10547-.39453m4.8164 0l.22657.01953.21875.05469.21093.08984.19532.1211.18359.14844.17188.17578.30078.42187.24218.49219.1797.54687.11327.57813.03906.58984-.03906.59375-.11328.58594-.17969.55469-.24218.5-.30079.42969-.17187.17968-.1836.15235-.1953.125-.21094.08984-.21875.0586-.22657.01952-.23046-.01953-.21875-.05859-.20704-.08984-.19921-.125-.1836-.15235-.17187-.17969-.30079-.42968-.24218-.5-.17969-.55469-.11328-.58594-.03906-.59375h.83593l.02735.5664.08203.50392.125.4414.16406.375.1914.30078.21094.22266.22266.13672.22656.04687.22657-.04687.22265-.13672.21094-.22266.1875-.30078.16406-.375.125-.4414.08203-.50391.03125-.5664-.03125-.5586-.08203-.5-.125-.4375-.16406-.36719-.1875-.28906-.21094-.21485-.22265-.1328-.22657-.04298-.22656.04297-.22265.13281-.21094.21485-.1914.28906-.16407.36719-.125.4375-.08203.5-.02735.5586h-.83593l.03906-.58985.11328-.57813.17969-.54687.24219-.49219.30078-.42187.17187-.17579.1836-.14843.19921-.1211.20704-.08984.21875-.05469.23046-.01953m5.08985 0h.50781v6.29297h-.78516v-4.48828h-1.39062v-.55469l.5625-.0664.25-.0547.23047-.08984.20312-.14062.17578-.20703.14063-.29688.10547-.39453m2.82422 2.17578h.78515l.01953-.3164.0586-.28516.10156-.2539.14063-.21485.17968-.17578.22266-.1289.26562-.07813.3086-.02735.23828.01954.22265.0625.20313.10156.17969.14062.14844.17188.11328.20703.07421.23437.02344.26563-.01953.26953-.0664.22266-.10938.1914-.15625.17188-.20313.16406-.24609.16406-.63281.39063-.53906.3125-.4375.3164-.34375.32422-.26563.33594-.1914.35156-.125.36719-.06641.39453-.02344.41797h4.21485v-.73828h-3.33594l.08594-.28516.11328-.23828.14843-.19922.1875-.17969.23047-.17187.27735-.17578.71875-.41797.41406-.20313.34375-.23046.28125-.25391.22265-.26563.16016-.27734.11328-.28515.0625-.28516.01953-.28125-.03906-.38281-.1211-.34766-.1914-.3086-.25-.26171-.30078-.21485-.34766-.15625-.3789-.09765-.40625-.03516-.4336.03125-.39843.10156-.35547.16407-.30469.23437-.25.30469-.1836.375-.11718.44531-.03906.51953"/><path fill="#ffffe0" fill-rule="evenodd" d="M158.07813 401.30469h22.17968v-10.1914h-22.17969v10.1914"/><path fill-rule="evenodd" d="M161.57813 392.94531h.5078v6.29297h-.78515V394.75h-1.39062v-.55469l.55859-.0664.2539-.0547.23048-.08593.20312-.14453.17188-.20703.14453-.29688.10547-.39453m4.8125 0l.23046.01953.21875.0547.20703.08983.19532.1211.1836.14844.17187.17578.30468.42187.2422.49219.17968.54688.10937.57812.03907.58984-.03907.59375-.10937.58594-.17969.55469-.24219.5-.30468.42969-.17188.17968-.1836.15235-.1953.125-.20704.08984-.21875.0586-.23047.01953-.23046-.01954-.21875-.05859-.20703-.08984-.19532-.125-.1836-.15235-.17187-.17968-.30468-.4297-.2422-.5-.17968-.55468-.10937-.58594-.03907-.59375h.83203l.03125.56641.07813.5039.1289.44141.16016.375.1914.30078.21095.22266.22265.13672.22656.04687.22657-.04687.22265-.13672.21094-.22266.1914-.30078.16016-.375.12891-.4414.08203-.50391.02734-.5664-.02734-.5586-.08203-.5-.1289-.4375-.16016-.36719-.1914-.28906-.21095-.21484-.22265-.13282-.22656-.04296-.22657.04296-.22265.13282-.21094.21484-.1914.28906-.16016.36719-.12891.4375-.07813.5-.03125.5586h-.83203l.03907-.58985.10937-.57813.17969-.54687.24219-.49219.30468-.42187.17188-.17578.1836-.14844.1953-.1211.20704-.08984.21875-.05469.23047-.01953m5.08984 0h.51172v6.29297h-.78906V394.75h-1.38672v-.55469l.55859-.0664.2539-.0547.22657-.08593.20703-.14453.17188-.20703.14062-.29688.10547-.39453m2.82422 2.17578h.78906l.01953-.3164.0586-.28516.09765-.2539.14063-.21485.18359-.17578.22266-.1289.26562-.07813.30469-.02735.23828.01954.22656.0625.20313.10156.17969.14062.14843.17188.11328.20703.07032.23438.02734.26562-.02344.26953-.0664.22266-.10938.1914-.15625.17188-.19922.16406-.2461.16406-.63671.39063-.53516.3125-.4375.3164-.34765.32422-.26563.33594-.1875.35156-.125.3711-.07031.39062-.01953.41797h4.21094V398.5h-3.33203l.08203-.28516.11328-.23437.14844-.20313.1875-.17968.23046-.17188.27735-.17578.71875-.41797.41406-.20312.34766-.23047.28125-.2539.21875-.26563.16406-.27735.10937-.28515.06641-.28516.01953-.28125-.04297-.38281-.1211-.34766-.1875-.3086-.25-.26171-.30468-.21485-.34375-.15625-.38281-.09765-.40625-.03516-.4336.03125-.39843.10156-.35547.16407-.30469.23437-.2461.30469-.1875.375-.11327.44531-.04297.51953"/><path fill="#ffffe0" fill-rule="evenodd" d="M204.15625 473.14844h22.17969v-10.1914h-22.17969v10.1914"/><path fill-rule="evenodd" d="M207.65234 464.78906h.51172v6.29688h-.78906v-4.49219h-1.38672v-.55469l.5586-.0664.2539-.05079.23047-.08984.20313-.14062.17187-.21094.14063-.29688.10546-.39453m4.81641 0l.23047.01953.21875.0547.20703.08983.19531.1211.1836.14844.17187.17578.30078.42187.2461.49219.17968.54688.10938.57812.03906.59375-.03906.58984-.10938.58594-.17968.55469-.2461.5-.30078.42969-.17187.17968-.1836.15235-.19531.125-.20703.08984-.21875.0586-.23047.01953-.23047-.01954-.21875-.05859-.20703-.08984-.19531-.125-.1875-.15235-.16797-.17968-.30469-.4297-.24219-.5-.17968-.55468-.11328-.58594-.03516-.58984h.83203l.02734.5625.08203.5039.125.44532.16407.3711.1914.30077.21094.22266.22266.13672.22656.04687.22656-.04687.22266-.13672.21094-.22266.1914-.30078.16016-.3711.125-.4453.08203-.50391.03125-.5625-.03125-.5625-.08203-.5-.125-.4375-.16016-.36328-.1914-.29297-.21094-.21484-.22266-.13282-.22656-.04296-.22656.04296-.22266.13282-.21094.21484-.1914.29297-.16406.36328-.125.4375-.08204.5-.02734.5625h-.83203l.03516-.59375.11328-.57813.17968-.54687.2422-.49219.30468-.42187.16797-.17578.1875-.14844.19531-.1211.20703-.08984.21875-.05469.23047-.01953m5.08984 0h.51172v6.29688h-.78906v-4.49219h-1.38672v-.55469l.5586-.0664.2539-.05079.22656-.08984.20313-.14062.17578-.21094.14063-.29688.10546-.39453m2.82422 2.17578h.78516l.01953-.3164.0625-.28516.09766-.2539.14062-.21485.17969-.17578.22266-.1289.26562-.07813.3086-.02735.23827.01954.22266.0625.20703.10156.17578.14062.15235.17188.10937.20703.07422.23438.02344.26562-.01953.26953-.0664.22266-.10938.1914-.15625.17188-.19922.16406-.25.16406-.63281.39063-.53907.3125-.4375.3164-.34375.32422-.26562.33594-.1914.35156-.125.3711-.06642.39062-.02343.42188h4.21484v-.74219H221.125l.08203-.28516.11328-.23437.14844-.20313.1875-.17968.23047-.17188.27734-.17578.71875-.41797.41406-.20312.34766-.23047.27734-.2539.22266-.26563.16406-.27735.10938-.28515.0625-.28516.02344-.28125-.04297-.38281-.1211-.34766-.1875-.3086-.25-.26171-.30468-.21094-.34375-.16015-.38282-.09766-.40625-.03516-.43359.03516-.39844.09765-.35547.16407-.30468.23437-.25.30469-.1836.375-.11719.44531-.03906.51953"/></g></defs><use xlink:href="#X"/></svg>