<svg xmlns="http://www.w3.org/2000/svg" role="img" xmlns:xlink="http://www.w3.org/1999/xlink" viewBox="142.45 309.95 326.84 171.84"><defs><clipPath id="a"><path d="M144 311.67188h1v168.65625h-1zm0 0"/></clipPath><clipPath id="b"><path d="M144 311.67188h324v168.65625H144zm0 0"/></clipPath><clipPath id="c"><path d="M467 311.67188h1v168.65625h-1zm0 0"/></clipPath><clipPath id="d"><path d="M144 477h3v3.32813h-3zm0 0"/></clipPath><clipPath id="e"><path d="M154 478h7v2.32813h-7zm0 0"/></clipPath><clipPath id="f"><path d="M167 477h7v3.32813h-7zm0 0"/></clipPath><clipPath id="g"><path d="M180 479h8v1.32813h-8zm0 0"/></clipPath><clipPath id="h"><path d="M180 478h2v2.32813h-2zm0 0"/></clipPath><clipPath id="i"><path d="M193 479h8v1.32813h-8zm0 0"/></clipPath><clipPath id="j"><path d="M206 479h9v1.32813h-9zm0 0"/></clipPath><clipPath id="k"><path d="M207 479h2v1.32813h-2zm0 0"/></clipPath><clipPath id="l"><path d="M223 476h2v4.32813h-2zm0 0"/></clipPath><clipPath id="m"><path d="M233 478h8v2.32813h-8zm0 0"/></clipPath><clipPath id="n"><path d="M248 477h5v3.32813h-5zm0 0"/></clipPath><clipPath id="o"><path d="M260 477h7v3.32813h-7zm0 0"/></clipPath><clipPath id="p"><path d="M276 476h2v4.32813h-2zm0 0"/></clipPath><clipPath id="q"><path d="M289 476h3v4.32813h-3zm0 0"/></clipPath><clipPath id="r"><path d="M303 476h2v4.32813h-2zm0 0"/></clipPath><clipPath id="s"><path d="M316 476h2v4.32813h-2zm0 0"/></clipPath><clipPath id="t"><path d="M329 476h2v4.32813h-2zm0 0"/></clipPath><clipPath id="u"><path d="M341 476h5v4.32813h-5zm0 0"/></clipPath><clipPath id="v"><path d="M353 478h8v2.32813h-8zm0 0"/></clipPath><clipPath id="w"><path d="M366 479h9v1.32813h-9zm0 0"/></clipPath><clipPath id="x"><path d="M380 478h8v2.32813h-8zm0 0"/></clipPath><clipPath id="y"><path d="M393 479h8v1.32813h-8zm0 0"/></clipPath><clipPath id="z"><path d="M407 478h7v2.32813h-7zm0 0"/></clipPath><clipPath id="A"><path d="M420 477h7v3.32813h-7zm0 0"/></clipPath><clipPath id="B"><path d="M434 477h6v3.32813h-6zm0 0"/></clipPath><clipPath id="C"><path d="M448 476h4v4.32813h-4zm0 0"/></clipPath><clipPath id="D"><path d="M461 476h5v4.32813h-5zm0 0"/></clipPath><clipPath id="E"><path d="M144 463h2v8h-2zm0 0"/></clipPath><clipPath id="F"><path d="M144 463h1v2h-1zm0 0"/></clipPath><clipPath id="G"><path d="M144 450h1v8h-1zm0 0"/></clipPath><clipPath id="H"><path d="M144 438h4v5h-4zm0 0"/></clipPath><clipPath id="I"><path d="M144 425h4v4h-4zm0 0"/></clipPath><clipPath id="J"><path d="M144 412h4v4h-4zm0 0"/></clipPath><clipPath id="K"><path d="M144 399h4v3h-4zm0 0"/></clipPath><clipPath id="L"><path d="M144 385h4v4h-4zm0 0"/></clipPath><clipPath id="M"><path d="M144 372h4v3h-4zm0 0"/></clipPath><clipPath id="N"><path d="M466 371h2v2h-2zm0 0"/></clipPath><clipPath id="O"><path d="M465 371h3v3h-3zm0 0"/></clipPath><clipPath id="P"><path d="M144 359h4v3h-4zm0 0"/></clipPath><clipPath id="Q"><path d="M465 357h3v3h-3zm0 0"/></clipPath><clipPath id="R"><path d="M144 345h4v5h-4zm0 0"/></clipPath><clipPath id="S"><path d="M466 345h2v3h-2zm0 0"/></clipPath><clipPath id="T"><path d="M144 331h4v6h-4zm0 0"/></clipPath><clipPath id="U"><path d="M466 332h2v3h-2zm0 0"/></clipPath><clipPath id="V"><path d="M144 319h4v4h-4zm0 0"/></clipPath><clipPath id="W"><path d="M465 317h3v3h-3zm0 0"/></clipPath><g id="X" clip-path="url(#clip1)"><path fill="#fff" fill-opacity="0" fill-rule="evenodd" d="M0 0h1000v1000H0zm0 0"/><path fill="#d3d3d3" fill-opacity="0" fill-rule="evenodd" d="M162.15234 355.86719l-.23437.29297.0586.23437.11718.17188.17578.23437.29297.34766.11328.0586.11719-.17188.0586-.23438.17577-.17578.46485-.17578h.69922l.23437.29297.28906.8164.0586.17579.17578.23046.35156.23438.69922.69922.17188.17578.23437.34765.23438.41016.28906.58203.41015.46485.23047.23437.23438.17578.11719.23047.17578.29297.17187 1.16406v.23438l.0586.28906.05859.11719.11719.11719.34765.41015.11719.17188.17578.17578.17578.23437.11719.17188.17188.35156.05859.23438.23437.40625.23438-.0586-.17578.17578-.0586.92969h-.58203l-.23437-.11328-.34766.11328-.11719.11719-.05859.29297-.0586.17578-.11718.17187-.46484.29297-.0586.23438-.0586.11328v.64453l.0586.17187v.41016l.0586.0586v.40624l.05859.40625.11719.17579.05859.05859.23047.64062-.0586.29297v.69922l-.05859.58203v.23438l-.0586.23047-.05468.35156v1.92187l.05469.1172h.42578l-.36719.11718-.02344.35156.89063 1.16797 1.74219.53906 1.33984.35938v.53906l.08984.8086.53516.71484 1.51953.26953.89063-.08594.08984 1.16406.53516.1797 1.16015-.1797 2.05469-.98437 1.16016-.36328 1.8789-.17578 1.69531-.1797-.17968.71876-1.51563.08594-1.25.08984-.80469.26953-1.07421.8086.26953.71875.53515.89843-.17968.625-.26563.8086.26563 1.07812.625.89844.80468.17969 1.25-.1797-.26562.72267.09766.5039.05468.29297v.17188l.0586.29296v.40625l.17578.1172.35156.11718h.40625l.29297-.17578.11328-.11719.0586-.11719.11718-.23047.0586-.17578.35156-.46484.23047-.17578.17578-.0586.17578.0586.0586.17578.11718.98828.05469.46875.0586.17188.11718.23437.17578.0586.8164.05859h.28907l.11719.23437.05859.40625.0586.35156v1.10547l.11718.29297.11719.34766.28906.69922.17578.35156.58203.7539.35157.17579.17187.0586.46875.23437.64063.46484.34765.23438.29297.17578.29297.05468.23047.0625.8164.34766.29297.17578.11328.17188.35157.35156.11719.17578.52343.64063v.28906l.0586.35156v.34766l.05859.35156.0586.28906.11718.0586.17188.05859h.17578l.58203.23437.17578.1172.17578.28905.17578.23438.11328.23437.29297.23047.11719.11719v.41016l.0586.05468.28906.23438.23437.11719.0586.11718.11718.17188.0586.11719.23047.23437.05859.17578.23437.0586.1172.05859-.1172.11328-.05859.11719v.11719l-.11719.29296-.11719.28907v.58203l.17579.11719.11718.05859.0586.11719.11719.11719.11328.05859.17578.34765.0586.35157.05858.40625v.17578l-.05859.17578-.11719.69922v.17187l.1172.17579.29296.29296h.40625l.17578.1172.11719.17187.11719.29296v.23438h-.52735l-.23047-.23438h-.23437l-.17578.0586-.0586.69922.0586.34765.11719.17579.17578.41015.11718.23047.28907.46875.17578.05469h.52344l.23437.0586.75781.64062.0586.29296v.23438l.05859.0586.23047.34765v.35156l-.11719.17188v.29297l.29297.28906.29297.17578.17187.0586.29297.17577.29297.1172.58203.40624.28906.23438.29297.17578.21875.16015.01563.01172.23047.17579.64062.52343.17578.23438.1172.17578.17577.17578.11328.17188v.64062l.1172.17578.46874.11719.58203.11719.23438.05859.23047.11328.29297.11719.11328.0586.58593.35156.28907.17187.17578.0625.17578.05469.17578.0586.69922.35155.28906.17579.23438.05468.28906.17578.23437.1172.64063.40624.29297.11719.17187.0586.23438.05859.41015.05859.23047.0586.23438.11718.0586.17188-.41017.17578.46875.0586.0586.29296.11328.23438.17578.05468.23438.0586.17578.05859.40625.11719.64062.23437.11719.17188.0586.23437v.17578l-.0586.1172-.0586.40624.23438.23438.11719.05859.34766.11719.64062.23047.17578.11718.28906.1172.17578.17577.23438.46485.58203 1.10546.17578.17579.34766.17578.17578.11719.35156.11718 1.04688.52344.23437.0586.46485.11327.29297.0586.46484.17578.75781.58203.23438.23438.34765.46484.17578.17578.28907.23438.8164.69921.29297.17579.28906.28906.29297.17578.29297.28906.69531.64063.17578.17578.29297.23437.28907.23438.46875.28906.64062.58203.34766.23438.23437.29297.34766.34765.35156.46485.9336.99218.34765.40625.11719.17579.23437.05859.11328.11719.64454.17578.23047.11328.23437.0586.29297.17577.23047.1172.9336.69921.40624.40625.23438.17578.40625.17578.23437.11719.8164.34766.34766.23437.23438.11719.29297.28906.23047.11719.7578.35156.35157.17188.23047.05859.29297.11719.23437.0586.8711.17577h.8164l.46875.23047.17188.0586.875.69921.46484.1172.29297.05858.17578.0586.23047.0586.46875.05859.34766.05859.35156.0586.40625.05859h.29297l.17187.0586v.23046l.17578.17578h.29297l.34766.0586.35156.05859.69922.11719h.64063l.46484-.23438.29297-.17578.17187-.11719.41016-.17187.28906-.17578.9336-.46485.46875-.29297.52343-.29296.46485-.17188.46484-.17578 1.05078-.46485.28906-.11718.41016-.11719.28906-.11719.52735-.17578 1.51562-.69922.58203-.34765.28907-.0586.29297-.0586.34765-.11718.875-.23047.35156-.11719h.11329l.23437-.05859.875-.23437.23438-.0586h.8125l.35156-.0586.8164-.11718.17188-.0586.35156-.05468.29297-.0586.23047-.05859.8164-.17578.17579-.0586h.34765l.23438-.05859.46484-.11718.75781-.17188.23438-.0586h.34765l.41016-.11718.28906-.0586 1.28516-.05859h.28906l.41016-.0586.23047-.05858h.17578l.875-.1172h.40625l.41015-.11718h.34766l.35156-.11328.8711-.0586h1.75l1.04687.28907.41016.11719.28906.11718.35156.11719.28907.11719 1.05078.17187.28906.0586h.29297l.29297.05859.17187.0586.41016.05859.17187.0586.1172.05858h.11718l.11719.0586.35156.0586h.11328l.41016.0664 1.92187.39453 1.92578.39453 1.51953.44922 1.69532.71875 2.14453.80469 1.60547-.71875 1.42968-.80469 1.16016-1.07813 1.25-.44921 3.03516-.71875 1.875-.35938 2.14453-1.34765 2.23437-1.25391 2.5-1.25781 1.69531-.44922 1.78516-.17969 1.16016-.26953.625.53906 1.33984-.26953.71485-.98828.98437-1.34375.44531-.17969.80469-.35937 1.875-.53907 1.78516-.44921 1.25-.26954 1.16015-.08984 1.69922-.08984 1.96094-.26954 1.25-.08984h.53906l.625-.08984h.89063l2.14453-.17969 2.41015-.17969 2.58985-.08984 1.69531.17969 1.60938.08984 1.42968.35938 1.16016.71875 1.875.98828 1.16015 1.52734.26563.71484.6289.08985.35548.89844.53515.53906.53516 1.52734 1.07422.35938h.53515l-.80469.53515.08985 1.70703.71484 2.69532.89063.80468.89453.98829.71484 1.2578 1.78516.53907 1.51953-.17969.35547 1.34375 1.60937-.80469.98047-.53906.26953.26953.31641-.21484.21875-.14453.80078.44922.44922-.35938h.35547l.53515-.26953.53907-.71875.53515-.26953.625-.98828 1.16016.44922.83984.3711 1.39454.61718 1.6953-.17969h1.60548l1.78515.08985.17969-1.70704.53516-1.34375.80468.26954.4922.84765.40233.40625-.08984.53906v.35938l.71485.44922.71093-.26953h1.42969l.35938.98828.4453 1.25781.71485 1.34375 1.25.6289 1.69531.62891.71485-.17969.17969-.53906.98046-.08984.44922.35937.08594 1.25782-.26563.6289-.53515.17969v.53906l.71484.98438.26563.53906.98437.98828.80078 1.07813-.26562.35937-.08985.89844-.625 2.33203-.35546 2.0664-.08985 1.79298-.17969.71875-.08984.53906v1.4375l-.98047 1.88281-.35937 1.70703-.53516.89844-.80469 1.16797-.26562.53906 2.05469 1.2539.08593.35938-.35546.53906-.08985-.17968v.80859l.08985 1.4375-.44532.71484-1.07422.09375-.26562.71485.53515.89844.8047.71875 1.16015.80859 1.33984.26953.44531.35938-.35546.44921-1.78907-.08984-1.25-.44922-.71484-.71875-.625-.08984-.17578 3.58984-.1875 1.3086h89.35937V311.70313h-55.26953v49.08203l.76172.125 3.28906.54296 2.02344 2.83594v2.7539l2.35156.33204 2.34766.33203h4.05078l-1.3789 4.16016-2.02344.70703-2.02344.70312-.54297.34375-2.59375 1.6172-.1875.11718-2.02344-2.07813-.73046-2.74218-2.67188-2.07813-1.375-3.5-.0664-.08203-1.95704-2.67188 2.75-1.41796v-49.08204H294.42187v91.41407l.1172.03125.1328.01172.07422.07421.10547.04688.08985.0586.08593.05859.08985.0586.29687.29687.0586.08984.03125.11719.02734.11719.01563.13671-.03125.1172-.0586.08983-.0586.08594-.04296.10547-.04688.10156-.02734.1211v.14453l.17578.26953.14844.14844.07422.08594.07422.07421.04296.10547.0625.08985.0586.08593.04297.10547.0586.08985.04687.10156.04296.10547.0586.08594.11719.17968.07421.07422.0625.08594.0586.08984.04297.10547.0586.08985.05858.08593.0625.08985.0586.08984.04297.10156.11719.17969.07421.07422.0586.08594.07422.07421.08984.0586.10547.04687h.14844l.1328-.01562.13282.01562.10156-.04687.07422-.07422.04688-.10156-.01563-.13281v-.14844l-.04687-.10547-.02735-.11719-.04687-.10156-.02735-.1211-.04296-.10156-.0625-.08984-.04297-.10156-.04297-.10547-.03125-.11719-.01563-.13281-.01171-.13672.08593-.0586.0586-.08593.12109-.03125.04297.10547.01562.1328v.1172l.0586.10156.0586.08984.08983.0586.14844.14843.0586.08985.04296.10547-.01171.10156.08593.0586.10547.04687.08594.0586.08984.05858.07422.07422-.11719.02735-.10546.04687-.08594.0586-.07422.07421-.0586.08985-.0625.08594-.02734.12109-.04687.10156-.04297.10547-.03125.11719-.01172.13281-.01563.13281v.14844l.02735.11719.04687.10547.04297.10156.0586.08984.07421.07422.08985.0586.07422.07421.08984.0586.0586.08984.04296.10547.04688.10156.11719.03125.1328.01563h.14845l.11718-.03125.10547.04297.04297.10547.04688.10156.02734.1211L299.5 410l.02734.11719.03125.1211.02735.11718.10547.04297.10156.04687.13281-.01562.14844.14844.0625.08593.07422.07422.07031.07422.08984.0625.10547.04297.10156.04297.1172.03125.13671.01562.11719-.03125.07422-.07422.02734-.11718-.01172-.13282-.03125-.12109-.02734-.11719.04297-.10547h.11719l.08984.0625.11719.02735h.14843l.13282.01562h.14843l.13282.01563.1328-.01563h.14845l.1328-.01562.13282-.01172.13672.01172.11719-.02735.13281-.01562.1914-.0586-.05859.17579-.01562.1328-.02735.1211-.01562.13281-.0586.08594-.1328.01563-.10548.04687-.10546.04297-.1172.03125-.11718.02735-.26563.03125h-.14843l-.13281.01562-.07422.07422.05859.08594.14844.14843.11719.1797.07421.0703.08985.0625.08984.0586.08594.0586.08984.05858.10156.04297.10547.0625.10547.04297.08594.0586.10547.04687.10156.04297.17969.11719.0586.08984-.04298.10156-.04687.10547.01562.13281.22266.22266.0586.08985.04296.10156.03125.1211.04297.10155.01563.13282.03125.11718.01171.13672.03125.11719.14844.14844.10156.04297.10547.04296.1172.03125.1328.01563.13672.01563h.11719l.11719-.03125.08984-.0586.04297-.10547.04688-.10156.04296-.10547.03125-.11719.01172-.1328v-.14845l-.01172-.1328-.01562-.13282-.03125-.11719-.04297-.10547-.04688-.10547-.04296-.10156-.04297-.10547-.01563-.13281.01563-.13281.02734-.11719.03125-.11719.02735-.1211.04687-.10155.08984-.0586.08594-.0625.07422-.07422.08984-.05859.22266-.22266.0586-.08593.07421-.07422.11719-.17969.0586-.08594v-.14844l-.07423-.07421-.10156-.04688-.10547-.04297-.10156-.04297-.0586-.08984-.04687-.10547-.02734-.11719.08984-.05859.11719-.03125.10156-.04297.17969-.11719.14844-.14843.01172-.13282-.01172-.10546-.08985-.0586-.1328.01563h-.14845l-.1328.01562-.13282-.01562-.1211-.03125-.08593-.0586-.07422-.07422-.0586-.08984-.0625-.08594-.11718-.17969-.0586-.08593.03125-.1211.08594-.05859.1211-.03125.05859-.08594v-.1211l-.03125-.11718-.0586-.08984-.05859-.08594-.04687-.10547-.02735-.11719-.01562-.1328.0586-.08985.07421-.07422.08984-.0586.1172-.17968.07421-.07422.0586-.08594.14843-.14844.1211-.03125.1328-.01562.13282.01562.07422.07422.04297.10547.01562.13281-.03125.1172-.11719.03124-.1328.01172-.14844.14844-.04297.10547-.04688.10156-.02734.1211-.03125.11718v.14844l.03125.11719.04297.10546.05859.08985.07422.07031.07422.07422.11719.03125.12109.02734.11719-.02734.1328-.01563h.1172l.08984.0586.07422.07422.04687.10546.0586.08594.10156.04688.13281.01562.10547.04297.08594.0586-.01172.10546-.07422.07422-.17969.11719-.05859.08984-.08984.0586-.07032.07422-.07421.07421-.0625.08985-.02735.11719-.01562.1328.01562.13282-.01562.13281v.14844l.01562.13281.02735.1172.03125.12108.07421.07422.08985.0586.08594.0586.08984.05858.11719.03125v.08594l-.10157.04688-.08984.0586-.26563.03124-.11718.02735h-.14844l-.10547.04296-.10156.04688-.0586.08984-.0625.23438-.01171.13281-.03125.1211-.01563.1328v.29298l-.01172.1328.01172.13673.01563.1328.1328.01563.13282.01172.1211.03125.08593.0586.07422.07421.04688.10547.04296.10157.01563.1328v.44532l-.01563.13281v.44532l.03125.26562.02735.11719.01562.13281.03125.11719.08594.21094.03125.26562v.14844l-.03125.11719-.02734.11718-.03125.1211-.02735.11719-.03125.11718-.03125.1211-.01171.1328-.01563.13282.08984.0586.1172-.03125.10155.01562.04688.10547-.03125.26562v.44141l-.04297.10547-.04688.10547-.04296.10156-.04297.10547-.0586.08594-.03125.12109-.04296.11719-.03125.11719-.01563.1328.01563.13282.05859.08984.10547.04688.08594.0586.05859.08593-.01172.13672-.03125.11719-.04297.10156v.44531l-.01562.13281v.14844l-.03125.11719-.04297.10547-.02735.11719-.04687.10546-.04297.10157-.03125.12109-.02734.11719-.03125.13281-.03125.11719-.02735.11719-.04297.10546-.03125.1172-.03125.12108-.01171.13282-.01563.13281v.29688l.02734.11718v.14844l.04688.39844.02734.11719.0586.08984.12109.03125h.14844l.13281-.01563.0586.08985v.11719l-.0586.08984-.08984.0586-.10157.04296-.10546.04688-.08985.05859-.08594.0586-.13671.01562-.1172-.03125-.1328-.01563-.10157.04688-.0625.08594-.01172.13671-.01562.13282-.03125.11719-.02735.11718-.01562.13281-.03125.1211v.29687l.01563.13282.03125.11718v.14844l.01171.13281v.14844l-.02734.11719-.04688.10156-.02734.1211-.03125.11718-.0586.08985-.07421.07421-.10156.04297-.10547.04688-.11719.02734-.1211.03125-.10156-.04687.0586-.08594.10547-.04688.02734-.11718.03125-.11719.02734-.1211.03125-.11718v-.14844l.01563-.13281-.03125-.11719-.04297-.10547-.10547.01563-.07422.07422-.10156.04296-.08984.0625-.07422.07422-.04297.10157-.01563.1328-.03125.1172L304.25 426l-.03125.11719-.02734.11719-.03125.12109-.02735.11719-.03125.11718-.04297.10547-.08984.0586h-.08984l-.1172-.03125-.03124-.08594.01562-.13672-.03125-.11719v-.14844l-.01171-.1328v-.14844l-.0625-.23438-.02735-.1211-.04297-.10156-.04687-.10546-.0586-.08594-.05859-.08985-.04297-.10546-.0625-.08594-.14844-.14844-.0703-.07422-.10548-.04687-.10547-.04297-.10156-.04297-.29687-.29688-.08985-.07421-.08594-.0586-.10546-.04297-.08985-.0625-.08594-.0586-.10546-.04296-.08985-.0586-.08594-.0625-.07421-.0703-.10547-.04688-.08594-.0586-.10547-.04296-.08984-.0625-.10156-.04297-.10547-.04297-.08594-.0586-.10547-.04687-.10547-.04297-.10156-.04687-.08985-.0586-.10156-.04297-.10547-.04296-.08984-.0625-.11719-.02735-.13281-.01562-.13281.01562H299.75l-.13281.01563-.11719-.03125-.08984-.0586-.07422-.07422-.08985-.05859-.10156-.04688h-.14844l-.12109-.02734-.10156-.04297-.07422-.07422-.11719-.17968-.08984-.0586-.10156-.04297-.08985-.0625-.10547-.04296-.08984-.0586-.08594-.0586-.10547-.04687-.0586-.08594-.05858-.08984-.04297-.10547-.04688-.10156-.07422-.07422-.08594-.0586-.07421-.07421-.08985-.0586-.22265-.22265-.04297-.10547-.03125-.26563.10547-.04296h.14453l.10547.04296.07421.07422.08985.0586.08594.0586.10546.04687.08985.05859.14844.14844.0703.07422.14845.14843.0625.08594.07421.07422.08594.0586.07422.07421.08985.0625.08984.0586.08594.05859.26953.17578.10156.04688.10547.04296.10156.04297.04688-.07421.05859-.08594.07422-.07422.07031-.07422.10547.04297.07422.07422.0586.08984.04296.10156.04688.10547.04296.10547.1211.02735.11719-.02735.07421-.08984.04297-.10547.0586-.08985.07422-.07421.10546-.04297.1172-.02735.1328.01172.08985.0586.14844.14843.05859.08985.04297.10547.04687.10156.04297.10547.04297.10156.10547.04688.10547.04296.13281.01563.08594-.0586.0586-.08984.07421-.07422.10547-.04297.11719.02735.10547.04687.10156.04297.10547.04297.10156.04688.17969.11718v.11719l-.01563.13281.01563.13281.01562.13672.0586.08594.10156.04688.1211.02734.11718.03125h.14844l.11719-.03125.05859-.08984.17969-.1172.05859-.08983.07422-.07422.0586-.08594.11718-.17969.17969-.11719.11719.03125.08984.0586.04297.07422-.01563.1328v.1172l.08985.05859h.14843l.13282-.01563.1328-.01171.26563-.03125.10547-.04297.11719-.03125.1211-.02735.07421-.07421.07031-.07422.0625-.08985-.01562-.10547-.04688-.10156-.10156-.04297-.10547-.01562-.11718.02734-.26563.03125h-.14844l-.07421-.07422-.08985-.0586-.11719-.03124-.11718-.02735-.13282-.01562h-.14843l-.13282.01563h-.29687l-.10547-.04688-.14844-.14844-.04297-.10156-.05859-.08984.22266-.22266.08593-.0586.10547-.04296.11719-.03125.13281-.01563.13281.01563.13672.01562.10157.04297.1328-.01172.08985-.0625.10156-.04297.0625-.08984-.04687-.10156-.08984-.0586-.1172-.03125-.10155-.04296-.0586-.08985-.0625-.08984v-.11719l.01563-.13281.10547-.04688.07421-.07031v-.1211l-.08984-.05859-.03125-.11719.08985-.05859.07421-.07422.04297-.10547.0586-.08984.04687-.10156.01563-.13281v-.14844l-.04688-.10547-.04297-.10156-.08984-.0586-.13281-.01562-.10157-.04297-.13671-.01563-.1172-.03125h-.4453l-.13282-.01562-.13281-.01172-.13281-.01563-.11719-.03125h-.14844l-.13281-.01562-.13281-.01172-.26563-.03125-.1211-.04297-.08593-.0586-.07422-.07421v-.14844l.01172-.13281.10547-.04688.10156-.04296.13281-.01563h.15235l.13281-.01562h.29297l.1211.03125.10156.04296.08984.0586.23438.0625.12109-.04688.08984-.05859.10156-.04297.13282-.01562.10547.04296.10156.04688.13281.01172.1211-.02735h.14453l.12109-.03125.11719-.02734.10547-.04687.07421-.07422.08594-.0586.14844-.14843.0586-.08594.04687-.10547.02734-.11719.01563-.10547-.10156-.04296-.08985-.0586-.11719-.03125-.10546-.04297-.08985-.0625-.07422-.08594-.07422-.07421-.10156-.04297-.10547-.04688-.10156-.04297-.0586-.08984-.04687-.10156-.08594-.21094-.0625-.08594-.05859-.08984-.07422-.07422-.08594-.0586h-.26953l-.11719.03126-.08984.05859-.10156.04297-.13281.01562-.10547-.01562-.02735-.11719-.0625-.08984-.11718-.03125-.10157-.04297-.14843-.14844-.03125-.11719-.01563-.10546.07422-.07422.17969-.1172.11719-.02733.11718-.03125.13672.01562.10156.04297.10547.04297.10156.04687.10547.04297.1172.03125.1328.01563.1172.02734.1328.01563.10547-.01563.08985-.0586-.07422-.07421-.10547-.04297-.07422-.07422-.07422-.08984-.14844-.14844-.08593-.0586-.08985-.05859-.07422-.07422-.08984-.0586-.10156-.04687-.1211-.02734-.10156-.04688-.10547-.04296-.11719-.03125-.10156-.04297-.1211-.03125h-.14843l-.11719.03125-.10546.04297-.08594.0625-.17969.11718-.08594.0586-.08984.0586-.10547.04687-.08594.05859-.10547.04297-.10156.04297-.10547.04687-.07422.07422-.05859.08985-.0586.08593-.04687.10547-.0586.08594-.07421.07422-.13281-.01172-.1172-.03125h-.11718l-.07422.07422-.08984.0586-.07422.07421-.08984.0586-.08594.05859-.10547.04687-.10156.04297-.13672.01563-.10156-.04297-.14844-.14844-.10547-.04688h-.08594l-.10547.04688-.10156.04297-.1211.03125-.11718-.03125-.07422-.07422v-.11719l.03125-.1211.07422-.0703.0586-.08985.07421-.07422.11719-.03125.10547-.04296h.29297l.13281-.01563.13672-.01563.10156-.04296.08985-.0586.10156-.04687.08984-.0586.13281-.01171.08985.05859.13281.01172.08984-.0586.08594-.05859.10547-.04297.08984-.0586.08594-.0625.08985-.05859.14843-.14843.0586-.08594.05859-.08985.10547-.04296.13281-.01563.11719.02735.1211.03125.05859-.0586.05859-.08984.03125-.26563.02734-.11719.10547.01172.13281.01563.10157-.04297.08984-.0586.0586-.08984.07421-.07422.0586-.08984.04687-.10156.01172-.13281-.01172-.13282-.04687-.10547-.14844-.14843-.0586-.08985-.05859-.08594-.04297-.10546v-.44532l.01563-.1328v-.14845l.01172-.1328-.0586-.0586-.08984.0586-.10156-.04298-.17969-.11719-.08594-.05859-.0625-.08984-.0586-.08985-.07421-.07421-.08594-.0586-.1211.03125-.10155.01172-.10547.04688-.08594.05859-.10547.04297-.14844.14844-.08984.05859-.08594.0586-.08984.0625-.10547.04296-.13281.01563v-.1211l.10547-.04297.11718-.03125.07422-.0703.04297-.10548v-.14844l-.02734-.11718-.14844-.14844-.13281-.01563h-.14844l-.11719.03125-.10547.04297-.10156.04297-.08984.0625-.11719.02735-.07422-.07422.01172-.13281-.04297-.10157-.04297-.10547-.08984-.05859-.11719.02734-.1211.03125-.11718.03125-.10156.04297-.1211.03125-.10156.04297-.10547.04297-.08984.0586-.10156.01562v-.11719l.01562-.13281-.0586-.08985-.07421.04297-.14844.14844-.0586.08985-.07421.07421-.04688.10547-.04296.10156-.07422.07422-.0586.08985-.07422.07422-.05859.08593-.07422.07422-.08984.0625-.07422.07031-.07422.07422-.10156.01563-.13281.01562-.10547-.04296v-.1211l.14843-.14844.04297-.10156.0586-.08984.04687-.10156.04297-.10547.0586-.08985.03124-.11719.04297-.10156.03125-.1211.02735-.11718.04687-.10547.04297-.10156.04297-.10547.07422-.07031.08984-.0625.08985-.0586.10156-.04296h.29687l.26563-.03125.10547-.04297-.07422-.07422-.11719-.03125-.10547-.04297-.08984-.0586-.10156-.04687-.08985-.0586-.10156-.04296-.10547-.04297-.08984-.0625-.08594-.0586-.10547-.04296-.10156-.04297-.1211-.03125-.11718-.03125-.10157-.04297L297.5 410.25l-.10156-.04297-.08985-.0586-.04296-.10546-.01563-.13281.10156-.04297.13281-.01563.13672.01563.13282-.01563.10156-.04297.0586-.08984.01562-.10547-.08985-.0586-.07421-.07421-.10157-.04297-.08984-.0586-.14844-.14843-.04297-.10547-.01562-.13281v-.29297l-.0586-.08985-.08984-.05859-.07422-.07422-.04297-.10547-.03125-.11718-.0586-.08985-.07421-.07422-.11719-.02734-.07422-.07422-.08984-.0586-.08984-.0625-.08594-.05859-.07422-.07421-.0586-.08594-.04687-.10547-.08594-.0586-.14843-.14843-.19532-.0586-.1328.01563-.10157.04297-.07422.07422-.04688.10156-.04296.10547-.0586.08984-.0586.08594-.29687.29687-.08984.0586h-.08594l-.0625-.08594-.04297-.10547.03125-.11719.0586-.08984.02734-.11719-.01172-.13281-.08984-.0625-.10547.04688-.11719.02734-.11719.03125-.26953.17578-.10156.04688-.11719.02734-.10546.04687-.08985.0586-.10156.04297-.0586-.08594-.04687-.10547.01563-.13281.04687-.10547.07031-.07422.07422-.07031.0586-.08985v-.14843l-.04297-.10547h-.23829l-.10156.04687-.03125.11719-.02734.11719-.03125.1211-.07422.04296-.13281.01563-.07422-.04688-.04297-.10156-.04297-.10547-.04687-.10156-.04297-.10547-.1211.03125-.10156.04297-.13281.01562-.11719.03125-.10547.04297-.08984.0586-.10156.04687-.1211.02734-.13281.01563-.10156-.04297-.0586-.08985-.04687-.10546-.04297-.10157-.04297-.10546v-.1172l.0586-.08984.08593-.05859.17969-.11719.10156-.04687.10547-.04297.10547-.0586.10156-.04296.08985-.0625.10156-.04297.10547-.0586.10156-.04687.08984-.0586.10547-.04296.10156-.04297.08985-.0625.10156-.04297.13672-.01563.11719.03125.10156.04297.1211.03125.10156.04297.10546.04688.10157.04296.10547.04297.10156.04688.10547.04297.10156.04297.10547.04687.08594.0586.10546.04296.1172.03125.10546.04297.10156.04688.08985.0586.10547.04296.10156.04297.10547.04687.11719.02735.10156.04687.1211.02735h.14843l.08594-.0586.01562-.10156.0586-.08984-.02735-.1172-.07422-.07421-.11719-.17969-.07421-.07422-.08985-.07421-.17969-.1172-.08593-.05859-.10547-.04296-.10156-.04688-.26954-.17578-.05859-.08985-.07422-.07421-.0586-.08985-.04296-.10156-.03125-.11719-.01563-.13672v-.5625l-.01171-.1328-.01563-.13282-.03125-.11719-.01562-.13281-.01172-.13281-.03125-.1211-.22266-.22265-.0586-.08594-.01562-.10547.03125-.11719.13281-.01562v-91.41406H172.9922v1.45312l-.0586.23438-.35156 1.05078-.17187.52343-.1172.34766-.17577.41016-.11719.17187-.23438.29297-.23046.0586h-.35157l-.11718.05859-.23047.40625v.29297l.11719.17578.23046.23047.1172.23437.64062.75781.29297.46485.17578.23437.23047.35156.23437.34766.64063.8164.17578.46485.17187.41016.11719.69531.17578.46875.11719 1.39844.0586.46484v.875l.11718 1.04688v4.78125l-.0586.46484-.35156 1.28125-.17578.52344-.11328.41015-.35156.9297L172.93359 336l-.23437.58203-.11719.17578-.17187.34766-.17578.40625-.35157.8164-.0586.29297-.11327.29297-.11719.28906-.0586.17579-.11718.875-.0586.40625-.05859.11718-.0586.17579-.05859.17187-.23047.52734-.11718.17188v.23437l-.11719.23438-.0586.17187-.17577.58594v.28906l-.0586.17579v.29296l-.0586.11329-.05859.52734v.17187l-.05468.23438v2.6211l-.17578.8164-.1172.17578-.17577.23438-.1172.17187-.11327.23438-.58594.93359-.23047.28906-.29297.46485-.17578.23437-.28906.35156-.35156.69922-.11328.23047-.17579.41016-.17578.23046-.40625.52735-.8164.69922-.29297.17187-.28906.23438-.17579.11719-.17578.17578-.52344.40625-.52734.17578-.17187.17578-.23438.05469-.64062.17578h-.75782m12.21094 31.02344l-1.07422.44921.35938.89454 1.25-.71485.44531-.53906-.98047-.08985"/><path fill="#d3d3d3" fill-opacity="0" fill-rule="evenodd" d="M201.50781 416.59766h-.89453l.44922.6289.98047.35938.80469-.08985.4453-.98828-.17577.08985-.71485-.35547-.89453.35547m154.6211 59.0703l-.0586-.52343v-.29297l.11328-.29297.0586-.23046.46875-.46875h.11328l.11719-.11329.11718-.05859h.17579l.23437-.0586h.34766l.23437.0586.11719.0586.23047.17187.0586.17578.11718.58203v.29297l-.11719.17578-.17187.28906-.17579.17579-.52734.52343-.23047.23438-.11719.0586h-.17578l-.11718-.0586-.40625-.29297-.17579-.11719-.11718-.0586-.0586-.11327-.05468-.1172m6.64062-10.95702l-.0586-.17188v-1.10937l.0586-.17188.17578-.0586.17188-.05858h.17578l.23437-.0586.1172.0586.05858.69921-.05859.17188-.11719.17578-.11718.0586-.23438.52343-.11328.0586h-.23438l-.05859-.1172m9.61328-14.39062l-.11719-.17578v-.69922l.29297-.875.1172-.17187.17577-.35156.11328-.23047.1172-.29297.35155-.75781.1172-.23047.17187-.23438h.17578l.11719-.0586h.64062l.11719.0586.23437.23438.17188.11328.35156.29297.11719.11718.11328.17579v.11328l.11719.05859.11718.11719v.69922l-.05859.17578v.23047l-.0586.17578-.34765 1.05078-.11719.23047-.11719.23437-.11718.0586-.23047.23437-.64063.28906h-.875l-.41015-.11718-.64063-.46485"/><path fill="none" stroke="#bebebe" stroke-linecap="round" stroke-linejoin="round" stroke-miterlimit="10" stroke-width=".5" d="M467.95703 311.69531H144.02734v168.625h323.9297v-168.625"/><g clip-path="url(#a)"><path fill="#fff" fill-opacity="0" fill-rule="evenodd" d="M144 475.89063v4.4375h.0039H144V311.67188h.0039H144v164.21875"/></g><g clip-path="url(#b)"><path fill="#fff" fill-opacity="0" fill-rule="evenodd" d="M144.0039 480.32813V311.67188h26.625v134.42968l-4.4375.23438-4.4375.625-2.51562 2.30078-1.92187.63672-4.39844-.63672-.04297-.03906-4.4375-.8672-.80078.90626.80078.80078 4.4375-.14453.04297 3.78125.72266 4.4375.2578 4.4375 1.03126 4.4414 2.38672 2.40625 4.4375.81641 4.4375-.41015 4.4375-.83204 4.4375.0586 4.4414.07812 4.4375-.47265 2.4961-1.64454 1.9414-.37109 4.4375-.52344 4.4414-.89843 4.4375-1.19532 2.16017-1.45312 1.87109-4.4375-.40234-4.4375-3.62891-2.84766-4.4375.1289-4.4414.33985-4.4375.86719-4.4375 1.47266-4.4375-3.89844-.57813-.5-3.86328-2.66797-4.4375-.49219V311.67187h53.26172v97.46094l-.1797.1836-4.2578 1.99218-2.44532 2.44532 2.44531 2.65625 4.4375-.32032 3.02735-2.33593-2.85156-4.4375-.17578-.1836v-97.46094h4.4375V473.25l-3.90625 2.64063 3.90625 2.76171 2.97656-2.76171-2.97656-2.64063V311.67187h48.82421v113.60938l-1.71093 1.78906 1.71093 1.70703 4.4375-.875.83204-.83203-.83204-.875-4.4375-.91406V311.67187h31.06641v99.21094l-3.14844 2.8711 3.14844 3.02734 4.4375-.75 2.04297-2.27734-2.04297-2.33204-4.4375-.53906v-99.21094h22.1914v91.37891l-2.16406 1.82422-1.07421 4.4414 2.33984 4.4375.89844.90626 4.4375 3.01953 4.17578-3.92578-.23828-4.4375-3.9375-3.375-2.52344-1.06641-1.91406-1.82422v-91.3789h13.3164v111.49609l-3.875 3.90234-.14453 4.4375 4.01953 3.86328 4.07031-3.86328-.09765-4.4375-3.97266-3.90234v-111.4961H467.9961v168.65625H144.00391"/></g><path fill="#50fcfc" fill-rule="evenodd" d="M148.4375 450.0625l-.80078-.80078.80078-.90625 4.4375.86719.04297.03906 4.39844.63672 1.92187-.63672 2.51563-2.30078 4.4375-.625 4.4375-.23438v2.16406l-4.4375.70704-1.07813.28906-3.35937.44531-4.4375 1.45703-2.9375 2.53516.49609 4.4375.64844 4.4375 1.79297 3.51172 1.5.92969 2.9375 1.16796 4.4375-.9453.6875-.22267 3.75-.49609 4.4375.01172 4.4414.07813 4.4375-.44532 4.4375-.73437 4.4375-.66016 4.40235-2.19531.03906-.05469 3.65625-4.38281-3.65625-4.1289-4.4414.3828-4.4375 1.02344-4.4375.24219-4.23048-1.95703-.20703-.1836-4.4414-3.96093-.83985-.29297-3.59765-.9961v-2.16406l4.4375.49219 3.86328 2.66797.57812.5 4.4375 3.89844 4.4375-1.47266 4.4375-.86719 4.4414-.33984 4.4375-.1289 3.62892 2.84765.40234 4.4375-1.8711 4.4375-2.16015 1.45312-4.4375 1.19532-4.4414.89843-4.4375.52344-1.94141.3711-2.4961 1.64453-4.4375.47265-4.4414-.07812-4.4375-.0586-4.4375.83204-4.4375.41015-4.4375-.8164-2.38672-2.40625-1.03125-4.44141-.25781-4.4375-.72266-4.4375-.04297-3.78125-4.4375.14453"/><path fill="#00e8fc" fill-rule="evenodd" d="M154.875 458.13672l-.4961-4.4375 2.9375-2.53516 4.4375-1.45703 3.35938-.44531 1.07813-.28906v2.64062l-4.4375.29688-4.4375 1.35937-.4961.42969.10938 4.4375.38672 1.57812.96484 2.85938 3.47266 2.88672 4.4375-.88672 4.4375.22265 4.4375-.07421 4.4414.16796 4.4375-1.05468 4.4375-.42578 4.16406-.83594-4.16406-2.48828-4.4375-.57031-4.28906-1.37891-.14844-.03906-4.4414-3.90625-.58985-.4922-3.84765-1.95702-4.4375-.1289v-2.64063l4.4375-.70704 3.59765.9961.83985.29297 4.4414 3.96094.20703.18359 4.23047 1.95703 4.4375-.24219 4.4375-1.02344 4.4414-.3828 3.65626 4.1289-3.65625 4.38281-.03906.05469-4.40235 2.19531-4.4375.66016-4.4375.73437-4.4375.44531-4.4414-.07812-4.4375-.01172-3.75.4961-.6875.22265-4.4375.94531-2.9375-1.16796-1.5-.9297-1.79297-3.51171-.64844-4.4375"/><path fill="#00d4fc" fill-rule="evenodd" d="M156.92969 458.13672l-.10938-4.4375.4961-.42969 4.4375-1.35937 4.4375-.29688v3.7461l-4.4375 2.36718-.10157.41016-.52734 4.4375.6289.52344 2.20313-.52344 2.23438-1.9414 1.93359 1.9414 2.5039.5 4.4375-.15625 4.44141.2539 1.90625-.59765-1.90625-1.14453-4.4414-.57813-4.4375-1.6875-1.03125-1.02734-3.40625-2.77735v-3.74609l4.4375.1289 3.84765 1.95704.58985.49219 4.4414 3.90625.14844.03906 4.28906 1.3789 4.4375.57032 4.16406 2.48828-4.16406.83594-4.4375.42578-4.4375 1.05469-4.4414-.16797-4.4375.07421-4.4375-.22265-4.4375.88672-3.47266-2.88672-.96484-2.85938-.38672-1.57812"/><path fill="#00c4fc" fill-rule="evenodd" d="M161.7539 463.09766l-.6289-.52344.52734-4.4375.10157-.41016 4.4375-2.36719 3.40625 2.77735 1.03125 1.02734 4.4375 1.6875 4.4414.57813 1.90625 1.14453-1.90625.59765-4.4414-.2539-4.4375.15625-2.50391-.5-1.9336-1.9414-2.23437 1.9414-2.20312.52344"/><path fill="#50fcfc" fill-rule="evenodd" d="M219.45313 416.41016l-2.44532-2.65625 2.44531-2.44532 4.25782-1.99218.17969-.1836.17578.1836 2.85156 4.4375-3.02734 2.33593-4.4375.32032m8.875 62.24218l-3.90625-2.76171 3.90625-2.64063 2.97656 2.64063-2.97656 2.76171m48.82421-49.875l-1.71093-1.70703 1.71093-1.78906 4.4375.91406.83204.875-.83204.83203-4.4375.875m31.06641-11.99609l-3.14844-3.02734 3.14844-2.8711v2.51953l-.38672.35157.38672.37109 1.08203-.3711-1.08203-.35156v-2.51953l4.4375.53906 2.04297 2.33204-2.04297 2.27734-4.4375.75"/><path fill="#00e8fc" fill-rule="evenodd" d="M308.21875 414.125l-.38672-.3711.38672-.35156 1.08203.35157-1.08203.37109"/><path fill="#50fcfc" fill-rule="evenodd" d="M329.51172 413.7539l-2.33985-4.4375 1.07422-4.4414 2.16407-1.82422 1.91406 1.82422 2.52344 1.0664v1.72657l-4.4375.20703-.66016 1.4414.66016 1.04298 1.39453 3.39453 3.04297 2.53125 2.6914-2.53125-.76953-4.4375-1.92187-1.64844v-1.72656l3.9375 3.375.23828 4.4375-4.17578 3.92578-4.4375-3.01953-.89844-.90625"/><path fill="#00e8fc" fill-rule="evenodd" d="M330.41016 410.35938l-.66016-1.04297.66016-1.44141 4.4375-.20703v5.32031l-.2461.76563.2461.20703.22265-.20703-.22265-.76563v-5.32031l1.92187 1.64844.76953 4.4375-2.6914 2.53125-3.04297-2.53125-1.39453-3.39454"/><path fill="#00d4fc" fill-rule="evenodd" d="M334.84766 413.96094l-.2461-.20703.2461-.76563.22265.76563-.22265.20703"/><path fill="#50fcfc" fill-rule="evenodd" d="M343.72656 435.3711l-4.01953-3.86329.14453-4.4375 3.875-3.90234v.85937l-3.02344 3.04297-.09765 4.4375 3.1211 3 3.16015-3-.0586-4.4375-3.10156-3.04297v-.85937l3.97266 3.90234.09765 4.4375-4.0703 3.86328"/><path fill="#00e8fc" fill-rule="evenodd" d="M343.72656 434.50781l-3.1211-3 .09767-4.4375 3.02343-3.04297v1.4297l-1.60156 1.61327-.02344 4.4375 1.625 1.5625 1.64453-1.5625v-4.4375l-1.64453-1.61328v-1.42969l3.10156 3.04297.0586 4.4375-3.16016 3"/><path fill="#00d4fc" fill-rule="evenodd" d="M343.72656 433.07031l-1.625-1.5625.02344-4.4375 1.60156-1.61328v1.42969l-.17969.1836.05079 4.4375.1289.12109.1289-.1211.0547-4.4375-.1836-.1836v-1.42968l1.64453 1.61328v4.4375l-1.64453 1.5625"/><path fill="#00c4fc" fill-rule="evenodd" d="M343.59766 431.50781l-.05079-4.4375.1797-.1836.18359.1836-.0547 4.4375-.1289.1211-.1289-.1211"/><g clip-path="url(#c)"><path fill="#fff" fill-opacity="0" fill-rule="evenodd" d="M467.9961 480.32813H468V311.67188h-.0039H468v168.65625h-.0039"/></g><path fill="#fff" fill-opacity="0" fill-rule="evenodd" d="M167.64844 474.34375l5.82031-.5-.85547-9.92578-5.82031.5039.85547 9.92188"/><path fill-rule="evenodd" d="M170.4375 465.94531l.50781-.04297.53906 6.27344-.78515.0664-.38281-4.47265-1.38282.11719-.05078-.55078.55469-.11328.2461-.07422.21874-.10938.19141-.16015.15625-.22266.11719-.30469.07031-.40625"/><g clip-path="url(#d)"><path fill="none" stroke="#000" stroke-linecap="round" stroke-linejoin="round" stroke-miterlimit="10" stroke-width=".5" d="M142.13281 477.35156l3.73438 5.95313"/></g><g clip-path="url(#e)"><path fill="none" stroke="#000" stroke-linecap="round" stroke-linejoin="round" stroke-miterlimit="10" stroke-width=".5" d="M154.27734 478.5625l6.07422 3.53125"/></g><path fill="none" stroke="#000" stroke-linecap="round" stroke-linejoin="round" stroke-miterlimit="10" stroke-width=".5" d="M155.16016 479.07813l.04687-1.22657"/><g clip-path="url(#f)"><path fill="none" stroke="#000" stroke-linecap="round" stroke-linejoin="round" stroke-miterlimit="10" stroke-width=".5" d="M168.22266 477.76953l4.8164 5.11719"/></g><path fill="none" stroke="#000" stroke-linecap="round" stroke-linejoin="round" stroke-miterlimit="10" stroke-width=".5" d="M168.92188 478.51563l.39453-1.16407"/><g clip-path="url(#g)"><path fill="none" stroke="#000" stroke-linecap="round" stroke-linejoin="round" stroke-miterlimit="10" stroke-width=".5" d="M180.5039 479.6211l6.88282 1.41406"/></g><g clip-path="url(#h)"><path fill="none" stroke="#000" stroke-linecap="round" stroke-linejoin="round" stroke-miterlimit="10" stroke-width=".5" d="M181.5039 479.82813l-.34374-1.17579"/></g><g clip-path="url(#i)"><path fill="none" stroke="#000" stroke-linecap="round" stroke-linejoin="round" stroke-miterlimit="10" stroke-width=".5" d="M193.88281 479.35938l6.7539 1.9375"/></g><path fill="none" stroke="#000" stroke-linecap="round" stroke-linejoin="round" stroke-miterlimit="10" stroke-width=".5" d="M194.86719 479.64063l-.25781-1.19922"/><g clip-path="url(#j)"><path fill="none" stroke="#000" stroke-linecap="round" stroke-linejoin="round" stroke-miterlimit="10" stroke-width=".5" d="M207.0664 480.49219l7.01954-.32813"/></g><g clip-path="url(#k)"><path fill="none" stroke="#000" stroke-linecap="round" stroke-linejoin="round" stroke-miterlimit="10" stroke-width=".5" d="M208.08594 480.44531l-.625-1.05469"/></g><g clip-path="url(#l)"><path fill="none" stroke="#000" stroke-linecap="round" stroke-linejoin="round" stroke-miterlimit="10" stroke-width=".5" d="M223.375 483.80469l1.03125-6.95313"/></g><g clip-path="url(#m)"><path fill="none" stroke="#000" stroke-linecap="round" stroke-linejoin="round" stroke-miterlimit="10" stroke-width=".5" d="M240.33984 481.91406l-6.26953-3.17187"/></g><g clip-path="url(#n)"><path fill="none" stroke="#000" stroke-linecap="round" stroke-linejoin="round" stroke-miterlimit="10" stroke-width=".5" d="M252.6914 483.09375l-4.33984-5.52734"/></g><g clip-path="url(#o)"><path fill="none" stroke="#000" stroke-linecap="round" stroke-linejoin="round" stroke-miterlimit="10" stroke-width=".5" d="M266.6211 478.1836l-5.57032 4.28906"/></g><g clip-path="url(#p)"><path fill="none" stroke="#000" stroke-linecap="round" stroke-linejoin="round" stroke-miterlimit="10" stroke-width=".5" d="M277.53906 483.82031l-.77734-6.98437"/></g><g clip-path="url(#q)"><path fill="none" stroke="#000" stroke-linecap="round" stroke-linejoin="round" stroke-miterlimit="10" stroke-width=".5" d="M290.86719 483.82031l-.80078-6.98047"/></g><g clip-path="url(#r)"><path fill="none" stroke="#000" stroke-linecap="round" stroke-linejoin="round" stroke-miterlimit="10" stroke-width=".5" d="M303.97266 483.83594l-.38672-7.01563"/></g><g clip-path="url(#s)"><path fill="none" stroke="#000" stroke-linecap="round" stroke-linejoin="round" stroke-miterlimit="10" stroke-width=".5" d="M317.52344 483.8164l-.85547-6.97656"/></g><g clip-path="url(#t)"><path fill="none" stroke="#000" stroke-linecap="round" stroke-linejoin="round" stroke-miterlimit="10" stroke-width=".5" d="M330.22266 483.83594l.375-7.01563"/></g><g clip-path="url(#u)"><path fill="none" stroke="#000" stroke-linecap="round" stroke-linejoin="round" stroke-miterlimit="10" stroke-width=".5" d="M342.11719 483.45313l3.21875-6.2461"/></g><g clip-path="url(#v)"><path fill="none" stroke="#000" stroke-linecap="round" stroke-linejoin="round" stroke-miterlimit="10" stroke-width=".5" d="M353.77734 481.6289l6.52735-2.60156"/></g><g clip-path="url(#w)"><path fill="none" stroke="#000" stroke-linecap="round" stroke-linejoin="round" stroke-miterlimit="10" stroke-width=".5" d="M366.90625 480.98438l6.90234-1.3125"/></g><g clip-path="url(#x)"><path fill="none" stroke="#000" stroke-linecap="round" stroke-linejoin="round" stroke-miterlimit="10" stroke-width=".5" d="M380.53125 478.75l6.27734 3.16016"/></g><path fill="none" stroke="#000" stroke-linecap="round" stroke-linejoin="round" stroke-miterlimit="10" stroke-width=".5" d="M381.44531 479.20703l-.02734-1.22656"/><g clip-path="url(#y)"><path fill="none" stroke="#000" stroke-linecap="round" stroke-linejoin="round" stroke-miterlimit="10" stroke-width=".5" d="M393.64453 479.25l6.6836 2.15625"/></g><path fill="none" stroke="#000" stroke-linecap="round" stroke-linejoin="round" stroke-miterlimit="10" stroke-width=".5" d="M394.61719 479.5625l-.21875-1.20703"/><g clip-path="url(#z)"><path fill="none" stroke="#000" stroke-linecap="round" stroke-linejoin="round" stroke-miterlimit="10" stroke-width=".5" d="M407.34375 478.4336l5.91797 3.78906"/></g><path fill="none" stroke="#000" stroke-linecap="round" stroke-linejoin="round" stroke-miterlimit="10" stroke-width=".5" d="M408.20313 478.98438l.09765-1.22266"/><g clip-path="url(#A)"><path fill="none" stroke="#000" stroke-linecap="round" stroke-linejoin="round" stroke-miterlimit="10" stroke-width=".5" d="M420.82031 478.19922l5.58985 4.25781"/></g><path fill="none" stroke="#000" stroke-linecap="round" stroke-linejoin="round" stroke-miterlimit="10" stroke-width=".5" d="M421.63672 478.82031l.19531-1.21094"/><g clip-path="url(#B)"><path fill="none" stroke="#000" stroke-linecap="round" stroke-linejoin="round" stroke-miterlimit="10" stroke-width=".5" d="M434.7461 477.57422l4.36718 5.50781"/></g><path fill="none" stroke="#000" stroke-linecap="round" stroke-linejoin="round" stroke-miterlimit="10" stroke-width=".5" d="M435.38281 478.3789l.49219-1.125"/><g clip-path="url(#C)"><path fill="none" stroke="#000" stroke-linecap="round" stroke-linejoin="round" stroke-miterlimit="10" stroke-width=".5" d="M448.74219 477.15234l3.00781 6.35157"/></g><path fill="none" stroke="#000" stroke-linecap="round" stroke-linejoin="round" stroke-miterlimit="10" stroke-width=".5" d="M449.17969 478.07813l.73047-.98438"/><g clip-path="url(#D)"><path fill="none" stroke="#000" stroke-linecap="round" stroke-linejoin="round" stroke-miterlimit="10" stroke-width=".5" d="M461.98828 477.1875l3.14844 6.28125"/></g><path fill="none" stroke="#000" stroke-linecap="round" stroke-linejoin="round" stroke-miterlimit="10" stroke-width=".5" d="M462.44531 478.10156l.71094-1"/><g clip-path="url(#E)"><path fill="none" stroke="#000" stroke-linecap="round" stroke-linejoin="round" stroke-miterlimit="10" stroke-width=".5" d="M142.59375 463.79297l2.8125 6.4414"/></g><g clip-path="url(#F)"><path fill="none" stroke="#000" stroke-linecap="round" stroke-linejoin="round" stroke-miterlimit="10" stroke-width=".5" d="M143.0039 464.73047l.76173-.96094"/></g><path fill="none" stroke="#000" stroke-linecap="round" stroke-linejoin="round" stroke-miterlimit="10" stroke-width=".5" d="M154.875 464.48438l4.8789 5.05859m-4.16796-4.32422l.3789-1.16406m12.26172.39453l4.8086 5.1289m-4.10938-4.3828l.39844-1.16016m11.99219.64843l5.2578 4.66016m-4.49218-3.98047l.28516-1.19531m13.625-.42969l2.53906 6.55078m-2.17188-5.59765l.80079-.9297m10.86718 5.67188l5.09375-4.83984m9.9336 5.83203l1.67187-6.82422m-1.42969 5.83203l-1.1875.30079m15.14454.79296l-.09375-7.02734m.07812 6.0039l-1.07422.58985m17.79297-3.82031l-6.8711 1.48047m5.8711-1.26563l.78906.9375m13.58594-.0625l-6.99219-.69922m5.97266.59766l.46484 1.13672m10.9922 2.07422l-1.23829-6.91797m12.71094 6.7539l2.44531-6.58984m-2.08984 5.6289l-1.21485.16407m15.96485.96875l-1.13282-6.9336m.96875 5.92579l-.97656.74218m14.11719.3047l-.45703-7.01173m.39062 5.99219l-1.04297.64453m12.1172-.29687l4.16015-5.66797m9.125 5.64453l4.21875-5.6211m-3.60547 4.8047l-1.21094-.19141m14.71485 1.46093l2.61328-6.52734m11.72265 6.76563l.57032-7.00391m10.39843 1.17187l5.26172 4.66016m-4.4961-3.98047l.28907-1.19531m11.4375 2.20312l6.91016 1.28516m-5.90235-1.09766l-.3711-1.17187m12.96485.11328l6.33985 3.02734m-5.41797-2.58593L408 464.71484m14.95703-1.15234l1.32031 6.90234m-1.1289-5.89843l.95703-.76953m10.625.48046l4.40234 5.47266m-3.76172-4.67578l.48047-1.1289m11.25782 1.48827l6.27343 3.16016m-5.35937-2.70312l-.02735-1.22657m14.64454-1.03906l1.84375 6.77734m-1.57813-5.79296l.89453-.83985"/><g clip-path="url(#G)"><path fill="none" stroke="#000" stroke-linecap="round" stroke-linejoin="round" stroke-miterlimit="10" stroke-width=".5" d="M144.6836 450.2539l-1.3672 6.89063"/></g><path fill="none" stroke="#000" stroke-linecap="round" stroke-linejoin="round" stroke-miterlimit="10" stroke-width=".5" d="M144.48438 451.2539l1.17578-.35156m12.5703-.59765l-1.82812 6.78515m1.5625-5.79687l1.19532-.27344m12.18359-.76172l-1.42969 6.8789m1.22266-5.8789l1.17969-.33984m13.14453-.39063l-3.03125 6.34375m2.58984-5.42187l1.22656-.05078m14.41797 1.4336l-6.8086 1.73437m5.82032-1.48438l.82422.91016m13.47656.58594l-6.80469-1.75782m5.81641 1.5l.28516 1.19532m13.67187-.07813l-6.10937-3.47656m6.10937 3.47656l-.07422 2.45313m12.95703-1.85547l-5.24609-4.67578m4.48438 3.99609l-.29297 1.1914m15.17969-2.09375l-6.86329-1.5078m5.86328 1.28906l.33204 1.17968m14.01953-1.16406l-6.9375-1.10547m5.92969.94531l.39843 1.16016m13.92969-1.03125l-6.94922-1.03906m5.9375.88672l.41016 1.15625m12.9375.94922l-4.99219-4.94532m4.26563 4.22656l-.35157 1.17188m13.21875.32813l-2.64062-6.51172m2.2539 5.5664l-.78515.9414m13.39844.25392l-.46485-7.01172m.39844 5.99218l-1.04297.64844m16.08984-.17578l-3.79296-5.91406m3.23828 5.05469l-.59766 1.0703m16.07031-3.47265l-7 .60938m17.83594-.3047l-.01953-.19921-.0586-.1914-.09374-.1797-.45704-.375-.1914-.05859-.19922-.01953-.20313.01953-.1914.0586-.45703.375-.09375.17968-.0586.19141-.01953.19922.01953.19922.0586.1914.09375.17578.45703.37891.1914.0586.20313.01953.19922-.01953.1914-.0586.45704-.3789.09375-.17579.05859-.1914.01953-.19922m11.07813 3.29687l2.42968-6.59375m11.90235-.21093l.39843 7.01562m-.33984-5.9961l1.04688-.63671m9.10546 1.92187l6.60547 2.40235m-5.64453-2.05078l-.17187-1.21485m12.33984 2.46875l6.98047-.8086m-5.96484.69141l-.69922-1.0078m14.375-2.08594l4.22265 5.61718m-3.60547-4.80078l.51954-1.10937m16.46484.33984l-4.34766 5.52344m3.71485-4.71875l1.20703.21484m10.14453-1.7461l.84375 6.97657m9.57031-2.35156l6.64844-2.27735"/><g clip-path="url(#H)"><path fill="none" stroke="#000" stroke-linecap="round" stroke-linejoin="round" stroke-miterlimit="10" stroke-width=".5" d="M146.9414 438.46094l-5.8828 3.84375"/></g><path fill="none" stroke="#000" stroke-linecap="round" stroke-linejoin="round" stroke-miterlimit="10" stroke-width=".5" d="M146.9414 438.46094l2.14844 1.1836m11.64453-.0625l-6.83984 1.60155m6.83984-1.60156l1.6172 1.84766m11.70312-1.83594l-6.84766 1.57813m6.84766-1.57813l1.60937 1.85547m11.7461-1.66016l-6.9297 1.1875m6.9297-1.1875l1.5 1.9414m11.82812-1.85155l-6.95703 1.0078m6.95703-1.0078l1.44922 1.97656m-2.46094-1.82813l.72656.98829m13.60938-1.0547l-6.97656.84376m6.97656-.84375l1.40625 2.01172m-2.42188-1.89063l.70313 1.00781m13.61719-.21093l-6.95703-.9922m6.95703.9922l.83594 2.30859M240.5 441.60156l-6.58984-2.4336m6.58984 2.4336l.33203 2.42969m13.08984-2.76953l-6.80468-1.75781m6.80469 1.7578l.57421 2.38673m12.83203-2.89453l-6.98828-.7422m6.98828.7422l.91797 2.27734m12.40235-2.3086l-6.9961-.67968m6.9961.67969l.9375 2.26953m12.39453-2.65235l-7.02735.08594m7.02735-.08594l1.17578 2.15235m12.01953-1.21094l-6.79297-1.79687m6.79297 1.79687l.5625 2.39063m11.19531-.29297l-3.67578-5.9922m3.14063 5.1211l-.6211 1.05469m16.0625-2.41797l-6.85937-1.52344m5.86328 1.3047l.32812 1.17968m13.57422-3.51953l-6.03906 3.59765m5.16016-3.07421l1.04687.6328m13.1211-1.19921l-5.98829 3.67969m5.1172-3.14453l1.05859.62109m11.9375-2.33203l-3.60938 6.03125m3.08594-5.15235l1.22265.0625m9.79297-1.28906l2.03516 6.72656m9.59766-5.60937l5.40234 4.49219m-4.61719-3.83594l.25-1.20313m13.09766-.17187l3.76562 5.9336m-3.76562-5.9336l1.21094-2.13281m14.17578 1.58984l-.3789 7.01563m15.1328-6.6211l-3.2539 6.22656m2.78125-5.3203l1.22656-.00782m13.23828-.4375l-4.60937 5.30469m3.9375-4.53125l1.1953.27343m10.79688-1.89453l-.61718 7m.52734-5.98047l1.1289-.48046"/><g clip-path="url(#I)"><path fill="none" stroke="#000" stroke-linecap="round" stroke-linejoin="round" stroke-miterlimit="10" stroke-width=".5" d="M147.10547 425.42578l-6.21094 3.28516"/></g><path fill="none" stroke="#000" stroke-linecap="round" stroke-linejoin="round" stroke-miterlimit="10" stroke-width=".5" d="M147.10547 425.42578l2.03125 1.3789m11.39453-1.14843l-6.4336 2.82813m6.4336-2.82813l1.92578 1.51953m11.2539-1.80078l-6.16015 3.38672m6.16016-3.38672l2.05078 1.34375m11.67969.0039l-6.9922.69141m6.9922-.6914l1.35937 2.04297m11.9414-2.16407l-6.96484.9336m6.96485-.9336l1.42969 1.99219m11.91796-1.44922l-7.02734-.15234m7.02734.15234l1.10157 2.1914m12.19922-1.97265l-7-.58984m5.98046.5039l.48438 1.12891m11.61328 1.9414l-2.52734-6.55859m2.16015 5.60547l-.80469.92578m14.19922.125l-1.94922-6.7539m1.66407 5.76953l-.8789.85547m16.90624-2.375l-6.80469-1.7461m5.81641 1.49219l.28906 1.1914m13.92969-.66015l-6.63672-2.30078m5.67188 1.96875l.1914 1.21094m13.58203.07422l-5.625-4.20704m4.8086 3.59766l-.1875 1.21094m14.8164-1.51953l-6.61718-2.3711m5.65234 2.02735l.17578 1.21484m13.85938-.33984l-6.12891-3.4336m6.1289 3.4336l-.05468 2.45312m13.6875-3.21875l-6.76563-1.90234m5.78125 1.625l.26172 1.19922m14.15625-2.17578l-7 .60546m5.98047-.51562l.66797 1.02734m13.48047-1.98047l-6.6289 2.33204m5.66406-1.9922l.90234.83204m11.58594-3.17188l-3.04297 6.33204m11.5664-4.44922l6.53907 2.5664m-5.58985-2.19531l-.14062-1.21875m14.98828-1.29297l1.57422 6.84766m-1.57422-6.84766l1.85156-1.60937m12.6836 1.54687l-.8672 6.97266m.8672-6.97266l2.29296-.875m11.50782.96875l-1.83985 6.78516m1.83985-6.78516l2.39453-.54297m-2.66016 1.53125l1.19531-.27343m11.76563-.82422l-.59766 7.0039m.59766-7.0039l2.25781-.96094m9.03125 1.40234l3.45313 6.1211m-3.45313-6.1211l1.32422-2.0664m12.84766 1.72265l1.74218 6.8086m-1.48828-5.81641l.90625-.82812"/><g clip-path="url(#J)"><path fill="none" stroke="#000" stroke-linecap="round" stroke-linejoin="round" stroke-miterlimit="10" stroke-width=".5" d="M147.27734 412.48438l-6.55468 2.53906"/></g><path fill="none" stroke="#000" stroke-linecap="round" stroke-linejoin="round" stroke-miterlimit="10" stroke-width=".5" d="M147.27734 412.48438l1.85547 1.60546m11.22266-2.10156l-6.07813 3.53125m6.07813-3.53125l2.08203 1.29688M173.32422 411.5l-5.39063 4.50781m5.39063-4.50781l2.27344.92188m11.48047-.26172l-6.26563 3.1875m5.35156-2.72266l1.00781.70313m13.59766.6328l-7.01562-.41406m5.99218.35157l.51172 1.11719m12.91016 1.10937l-5.1836-4.7461m4.4297 4.0586l-.3086 1.1875m15.26562-2.40234l-6.96093-.94141m16.29297 3.94922l1.0039-6.95313m-1.0039 6.95313l-2.3086.83203m17.26172-.98438l-2.26953-6.64843m1.9375 5.67969l-.83594.89843m14.89844-.10156l-3.10156-6.30469m2.65234 5.38672l-.71875.9961m16.4336-3.53516l-7.00391.60937m5.98437-.51953l.66797 1.02735m10.79297 2.64453l-1.25781-6.91407m1.07422 5.90625l-.96094.76172m17.3086-2.6953l-6.95313-1.03517m19.6875 2.50782l-5.79297-3.97656m5.79297 3.97656l-.27344 2.4375m12.82031-1.6289l-4.2539-5.59376m13.22265 5.52344l4.4375-5.45313m-3.79297 4.66016l-1.20312-.23828m19.13672.05469l-6.08985-3.5m6.08985 3.5l-.07813 2.45312m11.7539-.98437l-2.8125-6.4375m2.40626 5.5l-.76563.96093m15.94141-5.28125l-5.72266 4.07813m4.89063-3.48438l1.09765.54688m11.60938-2.3164l-2.83984 6.42968m2.83984-6.42969l2.44531-.17969m10.21094-.03515l-1.52344 6.85937m1.52344-6.85937l2.36328-.65625m10.22656.57031l-.07422 7.02734m.07422-7.02734l2.1797-1.1289M436 410.36717l1.86328 6.77344M436 410.3672l1.78125-1.6875m-1.51172 2.67187l.89453-.84375m11.39453.16406l3.375 6.16407m-3.375-6.16407l1.34766-2.05078m11.88672 2.09766l3.53906 6.07031m-3.02344-5.1875l.64453-1.04297"/><g clip-path="url(#K)"><path fill="none" stroke="#000" stroke-linecap="round" stroke-linejoin="round" stroke-miterlimit="10" stroke-width=".5" d="M147.40234 399.5664l-6.80468 1.7422"/></g><path fill="none" stroke="#000" stroke-linecap="round" stroke-linejoin="round" stroke-miterlimit="10" stroke-width=".5" d="M147.40234 399.5664l1.65625 1.81641m11.08203-3.03125l-5.65234 4.17578m5.65234-4.17578l2.21485 1.05469m-3.03516-.44922l1.10547.53125m12.78516-1.4336l-5.16016 4.76954m5.16016-4.76953l2.3164.8086m9.41407-1.79298l-1.9922 6.73828m1.9922-6.73828l2.40234-.49219m13.05078 5.44532l-6.26953-3.17188m5.35938 2.71094l.02343 1.22656m9.00781.4961l4.1172-5.69532m-3.51563 4.8672l-1.21485-.16798m18.98047-.01172l-5.98437-3.67968m5.11328 3.14453l-.07422 1.22656m12.35547.8125l-2.17188-6.6836m2.17188 6.6836l-1.70703 1.76563m15.52734-1.97657l-3.1836-6.26562m3.1836 6.26562l-1.41016 2.00781m.94532-2.91796l-.70313 1.0039m12.25.23047l1.28125-6.91015m-1.28125 6.91015l-2.33984.73828m2.52734-1.7461l-1.17187.3711m14.6914.6836l.4961-7.00782m-.42188 5.98829l-1.1211.5M289 403.6328l2.92969-6.38672M289 403.63281l-2.44922.14453m19.70703-.84765l-4.95312-4.98438m4.95312 4.98438l-.72265 2.34375m13.14843-1.70313l-3.17578-6.26562m2.71485 5.35547l-.70703 1.0039m16.0664-1.71094l-6.33984-3.03125m5.41797 2.58985l.05078 1.22656m13.57422.10938l-5.1172-4.81641m17.85548 5.3086l-3.96485-5.8047m3.96485 5.8047l-1.14063 2.17187m12.17188-1.57422l.60156-7m-.51172 5.98438l-1.1289.48046m17.32812-5.24218L381 402.71875m4.5664-3.89844l1.14063.45313m11.53906-2.11719l-2.51953 6.5625m2.51953-6.5625l2.4336-.29688m-2.80078 1.25391l1.21875-.15234m13.65625-.03906l-4.90235 5.03515m4.90235-5.03515l2.35547.68359m9.8164-1.42969l-2.61719 6.52344m2.6172-6.52344l2.4375-.26172m9.05077.05078l1.03516 6.94922m-1.03516-6.94922l1.97266-1.46093m-1.82422 2.46875l.98828-.72657m11.22656 0l2.9375 6.38282m-2.9375-6.38282l1.48829-1.95312m-1.0586 2.88281l.74219-.97656m10.65234 1.34765l5.92188 3.78516m-5.92188-3.78515l.19532-2.44532"/><g clip-path="url(#L)"><path fill="none" stroke="#000" stroke-linecap="round" stroke-linejoin="round" stroke-miterlimit="10" stroke-width=".5" d="M147.375 386.14844l-6.75 1.94922"/></g><path fill="none" stroke="#000" stroke-linecap="round" stroke-linejoin="round" stroke-miterlimit="10" stroke-width=".5" d="M147.375 386.14844l1.70703 1.76172m11.29297-2.51563l-6.1211 3.45703m6.1211-3.45703l2.0664 1.32031m9.92188-2.64843l-3.46484 6.11328m3.46484-6.11328l2.45313.0664m-2.95703.82422l1.22656.03125m11.6914-1.27734l-1.66406 6.82422m1.66406-6.82422l2.37891-.60547m8.82422.7461l2.5586 6.54296m-2.5586-6.54297l1.60156-1.86328m11.96094 1.77735l2.0625 6.71484m-2.0625-6.71485l1.73437-1.73828m9.29688 6.25782l6.63281-2.32422m-5.66797 1.98828l-.90234-.83203m17.94922 3.23437l-2.76172-6.45703m2.35937 5.51953l-.76562.95703m12.38672.19141l1.4336-6.8789m-1.22657 5.8789l-1.17578.34375m15.39062.70703l-.78515-6.98047m.67187 5.96485l-1.01172.6953m14.9961.21485l-1.89063-6.76953m1.61328 5.78516l-.88672.84375m13.32813.26562l.40625-7.01562m-.40625 7.01562l-2.22656 1.02344m2.28515-2.04688l-1.11328.51172m14.44531.51172l.25782-7.01953m-.25782 7.01953l-2.20703 1.07422m19.11719-4.00781l-6.9336-1.14844m6.9336 1.14844l.78125 2.32422m-1.78906-2.49219l.39062 1.16016m13.86328-2.46094l-6.79687 1.78515m6.79687-1.78515l1.66407 1.80078m11.74609-.51953l-6.98437-.77735m6.98437.77735l.90625 2.28125m-1.92187-2.39453l.90625 2.28125m13.36718-1.82813l-6.8711-1.45703m6.8711 1.45703l.67969 2.35938m12.17969-4.94531l-5.96094 3.71484m5.96094-3.71485l2.125 1.22657m-2.99219-.6875l1.0625.61719m12.05469-2.2461l-3.82813 5.89453m3.82813-5.89453l2.44531.21485m8.85547-.78125l.19922 7.02734m-.19922-7.02735l2.1289-1.21093m12.53126 1.4375l-2.4922 6.57422m2.4922-6.57422l2.43359-.3086m10.8086.28516l-2.34766 6.6211m2.34765-6.6211l2.42969-.36328m10.7461.3164l-2.06641 6.71485m2.0664-6.71485l2.41016-.46484m10.53125.3711l-1.32031 6.90234m1.32031-6.90235l2.34766-.72265m11.86328 1.02344l-3.10938 6.30078m3.10938-6.30078l2.45312-.07422m-2.90625.99219l2.45313-.07422"/><g clip-path="url(#M)"><path fill="none" stroke="#000" stroke-linecap="round" stroke-linejoin="round" stroke-miterlimit="10" stroke-width=".5" d="M147.42969 373.04297l-6.85938 1.53125"/></g><path fill="none" stroke="#000" stroke-linecap="round" stroke-linejoin="round" stroke-miterlimit="10" stroke-width=".5" d="M147.42969 373.04297l1.59375 1.86328m11.08203-3.23047l-5.58203 4.26563m4.76953-3.64454l1.11719.51172m9.09375-2.32812l2.2539 6.65625m-1.92578-5.6875l.83984-.89453m15.25391.35156l-3.96094 5.80469m3.96094-5.80469l2.4375.26953m11.58984.375l-5.38671 4.51563m5.38672-4.51563l2.27343.92188m10.40235-1.51563l-4.10547 5.70313m4.10547-5.70313l2.42968.32813m12.32813 2.17578l-6.99219.69531m6.99219-.69531l1.35937 2.03906m11.97266-1.76953l-7.02734.15625m6.0039-.13281l.60156 1.0703m13.04688-3.10937l-5.64453 4.1875m4.82031-3.57812l1.10938.52734m13.0039-1.17187l-5.59375 4.25781m5.59375-4.25781l2.22656 1.02734m11.56641-.17187l-6.55078 2.54687m6.55078-2.54687l1.85938 1.60156m-2.8125-1.23047l.92968.80078m13.52344-.50781l-6.92187 1.21875m6.92187-1.21875l1.51172 1.9336m11.85547-1.22266l-7.02344-.20313m7.02344.20313l1.08984 2.19921m-2.11328-2.23046l.54688 1.10156m13.75-.61719l-6.94141-1.10937m6.9414 1.10937l.79298 2.32031m-1.8047-2.48046l.79688 2.3203m13.49219-1.97265l-6.86719-1.48437m6.86719 1.48437l.66797 2.36328m-1.66797-2.57812l.33594 1.17969m13.9961-2.3672l-6.90235 1.32032m6.90234-1.32031l1.53906 1.91015m-2.54296-1.71875l.76953.95704m13.57422-1l-6.94922 1.02343m6.94922-1.02344l1.45703 1.97266m-2.46875-1.82422l.73047.98828m13.53125-1.47656l-6.81641 1.70313m6.8164-1.70313l1.64063 1.82031m10.48438-3.6914l-4.44141 5.44531m3.79687-4.65234l1.20313.23828m12.16406-1.42188l-3.2539 6.22656m3.2539-6.22656l2.45313-.01953m12.27343 1.3711l-6.07812 3.52343m6.07812-3.52344l2.08594 1.29688m11.35547-1.0664l-6.32812 3.0625m5.40625-2.6172l.98828.72657m13.21484-1.23828l-6.26172 3.19531m5.34766-2.73047l1.00781.70313m12.8086-1.80079l-5.4336 4.45704m5.4336-4.45704l2.26171.94532m-3.05468-.29688l1.1328.47266m12.98829-1.10156l-5.46484 4.41796"/><g clip-path="url(#N)"><path fill="none" stroke="#000" stroke-linecap="round" stroke-linejoin="round" stroke-miterlimit="10" stroke-width=".5" d="M466.29297 371.59766l2.25781.96093"/></g><g clip-path="url(#O)"><path fill="none" stroke="#000" stroke-linecap="round" stroke-linejoin="round" stroke-miterlimit="10" stroke-width=".5" d="M465.5 372.24219l2.25781.96094"/></g><g clip-path="url(#P)"><path fill="none" stroke="#000" stroke-linecap="round" stroke-linejoin="round" stroke-miterlimit="10" stroke-width=".5" d="M147.48438 360.94531l-6.96875-.90234"/></g><path fill="none" stroke="#000" stroke-linecap="round" stroke-linejoin="round" stroke-miterlimit="10" stroke-width=".5" d="M147.48438 360.94531l.86328 2.29688m11.78125-4.85547l-5.625 4.21484M159.30859 359l1.10938.51953m12.38281-1.78906l-4.34375 5.52344m4.34375-5.52344l2.41797.4336m-3.04688.37109l1.20704.21875m13.66015.0703l-6.1875 3.33595m6.1875-3.33594l2.03906 1.36328m-2.9414-.875l1.02344.67969m12.34765-2.19922l-4.49219 5.40234m3.83594-4.61719l1.20313.25m12.15625-1.4453l-3.26953 6.21874m3.26953-6.21875l2.45312-.01172m10.6875-.07421l-2.92187 6.39062m2.92187-6.39063l2.44922-.14453m-2.875 1.07422l1.22656-.07422m13.48828-.1914l-4.87109 5.0625m4.8711-5.0625l2.36328.67578m-3.07032.0625l1.1797.33594m13.91796 1.55468l-7.02344-.1953m7.02344.1953l1.09375 2.19922m7.91406-5.71875l1.59375 6.84375m-1.36328-5.84765l.92578-.8047m16.14844 1.76173l-6.38281 2.9375m6.38281-2.9375l1.94922 1.48828m11.60937-.7461l-6.875 1.45313m5.875-1.24219l.78907.9414m13.60156-.49608l-7.02344.14062m7.02344-.14063l1.19531 2.14454m12.10938-2.33985l-7.00391.53516m7.0039-.53516l1.31641 2.07031m12.00782-1.98046l-7.01954.35156m5.9961-.30078l.6289 1.05469m12.9922 1.19921l-5.58985-4.2578m4.77734 3.64062l-.19922 1.21093m13.53516-5.60937l-4 5.77734m3.41797-4.9375l1.21484.14453m13.71875 3.66797l-6.07812-3.52734m19.73047.78906l-6.75 1.94531m5.76953-1.66015l.85156.8789m13.46875-1.08203l-6.80078 1.78125m5.8086-1.51953l.83202.90235m13.26563-1.7422l-6.38281 2.9375m5.45312-2.5078l.97656.74218m13.07813-1.53125l-6 3.66016m6-3.66016l2.10937 1.25m11.125-1.375l-5.83984 3.90625m4.99219-3.33594l1.07812.57813m12.40625-1.89844l-4.48437 5.41016m4.48437-5.41016l2.40235.49219m11.22656-.19922l-5.11328 4.82031"/><g clip-path="url(#Q)"><path fill="none" stroke="#000" stroke-linecap="round" stroke-linejoin="round" stroke-miterlimit="10" stroke-width=".5" d="M466.11719 358.08203l2.32422.78516"/></g><path fill="none" stroke="#000" stroke-linecap="round" stroke-linejoin="round" stroke-miterlimit="10" stroke-width=".5" d="M465.375 358.78516l2.32422.78515"/><g clip-path="url(#R)"><path fill="none" stroke="#000" stroke-linecap="round" stroke-linejoin="round" stroke-miterlimit="10" stroke-width=".5" d="M147.0625 348.90234l-6.125-3.4453"/></g><path fill="none" stroke="#000" stroke-linecap="round" stroke-linejoin="round" stroke-miterlimit="10" stroke-width=".5" d="M147.0625 348.90234l-.0586 2.45313m12.22657-1.23047l-3.82813-5.89453m17.375.16406l-4.29297 5.5664m4.29297-5.5664l2.41797.41016m-3.04297.40234l1.20703.20313m12.66407-1.06641l-4.15625 5.66797m4.15625-5.66797l2.42578.35156m-3.03125.47266l1.21484.17578m12.48828-1.14844l-3.71875 5.96485m3.17578-5.09766l1.22266.08594m9.19531-1.10938l3.15625 6.27735m-3.15625-6.27735l1.41797-2.0039m12.46094 1.78125l2.03125 6.72656m-2.03125-6.72656l1.73828-1.73047m-1.44531 2.70703l.8711-.86328m13.22265-.26563l-.10938 7.02735m.10938-7.02735l2.1836-1.11719m13.14452 1.79297l-4.14062 5.67579m3.53906-4.85157l1.21484.17578m14.08985 1.21875l-6.91406 1.2422m6.91406-1.2422l1.51953 1.92579m10.80078-3.8125l-4.92187 5.01562m4.20312-4.28906l1.17578.34765m13.35938 3.32032l-5.92578-3.77735m5.0625 3.22656l-.09375 1.22266m14.42578-.9375l-6.23438-3.2461m6.23438 3.2461l.01953 2.45313m-.92578-2.92579l.01953 2.45313m14.16406-1.91406l-6.16015-3.3789m6.16015 3.3789l-.03125 2.45312m-.86328-2.94531l-.01562 1.22656m14.66015-2.48828l-7.02734.13281m7.02734-.1328l1.1914 2.14452m11.5625-3.98047l-5.91015 3.80079m5.91016-3.80079l2.14062 1.19922m10.76953 3.11719l-5.09765-4.83203m4.35547 4.1289l-.32813 1.1836m15.33203-2.55078l-6.99218-.6875m6.99218.6875l.9375 2.26562m12.28125-1.72656l-6.80078-1.76953m6.80078 1.76953l.57032 2.38672m12.82812-2.79297l-6.96484-.95703m6.96484.95703l.84375 2.30469m12.4336-3.47266l-6.89063 1.3789m6.89062-1.3789l1.5547 1.89844m-2.5586-1.69531l.77734.94921m12.875-2.61328l-5.55469 4.30079m5.5547-4.30079l2.23827 1.00782m-3.04687-.38282l2.23828 1.00782m12.17969-1.1875l-6.14453 3.41015m6.14453-3.41015l2.05859 1.33593m-2.95312-.83984l1.03125.66797m13.29296-.9375l-6.375 2.95703m6.375-2.95703l1.95704 1.48047m-2.88282-1.05078l.97657.74218m13.33984-.99609l-6.52344 2.60938"/><g clip-path="url(#S)"><path fill="none" stroke="#000" stroke-linecap="round" stroke-linejoin="round" stroke-miterlimit="10" stroke-width=".5" d="M466.82422 345.875l1.875 1.58203"/></g><path fill="none" stroke="#000" stroke-linecap="round" stroke-linejoin="round" stroke-miterlimit="10" stroke-width=".5" d="M465.875 346.2539l1.875 1.58204"/><g clip-path="url(#T)"><path fill="none" stroke="#000" stroke-linecap="round" stroke-linejoin="round" stroke-miterlimit="10" stroke-width=".5" d="M146.88672 335.86719l-5.77344-4.00781"/></g><path fill="none" stroke="#000" stroke-linecap="round" stroke-linejoin="round" stroke-miterlimit="10" stroke-width=".5" d="M146.88672 335.86719l-.29297 2.4375m13.97656-3.1211l-6.51172-2.64062m5.56641 2.25781l.125 1.21875m12.96875-4.98047l-4.17578 5.64844m4.17578-5.64844l2.42578.35938m-3.03516.46094l2.4297.35937m9.52734-1.86719l-.2422 7.02344m.2422-7.02344l2.20312-1.07812m-2.23828 2.10156l1.10156-.53906m10.54297-.10938L198.84375 337m-3.16797-6.27344l1.41797-2.0039m13.08594 1.64843l.79297 6.98438m-.79297-6.98438l2.02344-1.38671m-1.91016 2.40234l1.01172-.6914m12.66406-.34376l-.15625 7.02344m.15625-7.02344l2.1914-1.10547m8.83594 1.88282l4.41797 5.46484m-3.77344-4.66797l.48047-1.1289m16.3047.11328l-3.8125 5.90625m18.53515-1.78125l-6.625-2.34375m5.66015 2l.1836 1.21484m13.20703.5l-4.84766-5.08984m4.14063 4.35156l-.38672 1.16406m15.14453-1.42969l-6.3164-3.07812m6.3164 3.07812l.08594 2.45313m-1.00781-2.89844l.04296 1.22266m13.89063-.26953l-5.71094-4.09375m5.71094 4.09375l-.32422 2.42968m-.50781-3.02734l-.16016 1.21875m14.94531-2.28516l-6.98828-.76953m6.98828.76953l.90625 2.28125m12.28516-3.65234l-6.74219 1.97266m5.76172-1.6836l.85938.8789m13.49218-.95312l-6.85546 1.54688m5.85937-1.32031l.80078.92968m13.54688.20313l-6.92579-1.17188m6.92579 1.17188l.77734 2.32812m12.5664-2.51953l-6.98437-.79297m6.98438.79297l.89843 2.28516m-1.91406-2.39844l.44922 1.14063m13.84375-.77344l-6.90625-1.29688m6.90625 1.29688l.73047 2.34375m-1.73438-2.53125l.36329 1.16797m13.7578-.3086l-6.51171-2.64453m6.51172 2.64453l.25 2.44141m13.28515-3.25l-6.95312-1.02344m6.95312 1.02344l.82422 2.3125m12.28516-4.10547l-6.54297 2.5625m6.54297-2.5625l1.86328 1.59766m11.45703-1.58594l-6.55078 2.53906m6.55078-2.53906l1.85938 1.60156m-2.8125-1.23437l1.85937 1.60547m12.25781-2.3086l-6.25 3.20703m6.25-3.20703l2.01563 1.40235m-2.92188-.9336l2.01172 1.40235m-2.92187-.9375l1.0039.70312m14.3086-1.21875l-6.61328 2.375"/><g clip-path="url(#U)"><path fill="none" stroke="#000" stroke-linecap="round" stroke-linejoin="round" stroke-miterlimit="10" stroke-width=".5" d="M466.86719 332.67578l1.8164 1.64844"/></g><path fill="none" stroke="#000" stroke-linecap="round" stroke-linejoin="round" stroke-miterlimit="10" stroke-width=".5" d="M465.90625 333.01953l1.8164 1.65235"/><g clip-path="url(#V)"><path fill="none" stroke="#000" stroke-linecap="round" stroke-linejoin="round" stroke-miterlimit="10" stroke-width=".5" d="M147.28516 321.79688l-6.57032-2.5"/></g><path fill="none" stroke="#000" stroke-linecap="round" stroke-linejoin="round" stroke-miterlimit="10" stroke-width=".5" d="M147.28516 321.79688l.30468 2.4375m-1.26172-2.80079l.15235 1.21875m14.34766-2.08203l-7.02735-.04297m6.0039.03516l.57032 1.08594m13.22266-2.98047l-5.9375 3.75781m5.9375-3.75781l2.1328 1.21484m-2.99608-.66797l1.0664.60938m13.21094-.99219l-6.13281 3.4336m6.1328-3.4336l2.0625 1.32422m-2.95702-.82422l1.03515.66016m12.6172-1.90625l-5.01563 4.92187m5.01562-4.92187l2.33984.74219m-3.0703-.02344l2.33984.73828m10.32812-2.32031l-2.26172 6.65234m2.26172-6.65234l2.42188-.39454m8.57422.41407l2.375 6.61328m-2.375-6.61328l1.65234-1.8164m-1.30469 2.77733l.82422-.90625m10.625 1.00782l5.41016 4.48828M234.5 318.30469l.5-2.40235m12.86719 6.94922l5.30469-4.60937m-5.3047 4.60937l-2.28905-.8789m17.30468 1.95703l1.90625-6.76563m-1.6289 5.78125l-1.19922.26172m16.70703.50781l-3.03516-6.33593m2.59375 5.41406l-.72656.98828m15.52344-.82422l-5.11328-4.82031m5.11328 4.82031l-.64844 2.36719m14.47656-3.07031l-6.14453-3.41016m6.14453 3.41016l-.04297 2.45312m-.84765-2.94922l-.02344 1.22656m14.61719-1.82812l-6.91797-1.21875m6.91797 1.21875l.76172 2.33594m-1.76563-2.51172l.3789 1.16797m13.76954-2.83985l-6.57422 2.48047m6.57422-2.48047l1.83984 1.6211m-2.79687-1.26172l.92187.8125m13.23828-1.4336l-6.35156 3.00391m6.35156-3.0039l1.96875 1.46484m11.3711-1.41406L353.83984 322m6.40235-2.90234l1.9414 1.49609m11.65625.39844l-6.96875-.89063m6.96875.89063l.8711 2.29687m12.39453-3.49219l-6.86719 1.5m6.86719-1.5l1.58594 1.8711m11.78125-1.5586l-6.97266.87891m5.95703-.75l.70703 1m9.0625 2.65235l2.15235-6.6875m12.28125 6.85937l-.08594-7.02734m.07422 6.0039l-1.07813.58985m13.78907.38671l1.14453-6.93359m15.09375.85547l-4.70313 5.22266m4.70313-5.22266l2.3789.59375m-3.0625.16406l1.1914.29688m13.03517-.82813l-5.16016 4.76953"/><g clip-path="url(#W)"><path fill="none" stroke="#000" stroke-linecap="round" stroke-linejoin="round" stroke-miterlimit="10" stroke-width=".5" d="M466.14063 318.16406l2.3164.8086"/></g><path fill="none" stroke="#000" stroke-linecap="round" stroke-linejoin="round" stroke-miterlimit="10" stroke-width=".5" d="M465.39063 318.85547l2.3164.8086m-3.0664-.11329l1.15625.40235"/><path fill="#00f" fill-rule="evenodd" d="M295.03516 472.08594h8.61718V461.9414h-8.61718v10.14453"/><path fill="azure" fill-rule="evenodd" d="M296.86719 463.77344h.83203v2.82422h3.28515v-2.82422h.83594v6.48047h-.83594v-2.91797h-3.28515v2.91797h-.83203v-6.48047"/><path fill="#00f" fill-rule="evenodd" d="M161.88281 463.21094H170.5V453.0625h-8.61719v10.14844"/><path fill="azure" fill-rule="evenodd" d="M163.71484 454.89844h.83203v2.82031h3.28907v-2.82031h.83203v6.48047h-.83203v-2.91797h-3.28906v2.91797h-.83204v-6.48047"/><path fill="#00f" fill-rule="evenodd" d="M392.67578 463.21094h8.6211V453.0625h-8.6211v10.14844"/><path fill="azure" fill-rule="evenodd" d="M394.51172 454.89844h.83203v2.82031h3.28516v-2.82031h.83203v6.48047h-.83203v-2.91797h-3.28516v2.91797h-.83203v-6.48047"/><path fill="#00f" fill-rule="evenodd" d="M383.80078 436.57813h8.61719v-10.14454h-8.61719v10.14454"/><path fill="azure" fill-rule="evenodd" d="M385.63281 428.26563h.83203v2.82421h3.28907v-2.82421h.83203v6.48046h-.83203v-2.91406h-3.28907v2.91406h-.83203v-6.48046"/><path fill="#00f" fill-rule="evenodd" d="M281.71875 432.14063h8.61719v-10.14454h-8.61719v10.14454"/><path fill="azure" fill-rule="evenodd" d="M283.55078 423.82813h.83203v2.82421h3.28906v-2.82421h.83204v6.48046h-.83204v-2.91796h-3.28906v2.91796h-.83203v-6.48046"/><path fill="#00f" fill-rule="evenodd" d="M228.45703 414.38672h8.6211v-10.14453h-8.6211v10.14453"/><path fill="azure" fill-rule="evenodd" d="M230.28906 406.07422h.83594v2.82422h3.28516v-2.82422h.83203v6.48047h-.83203v-2.91406H231.125v2.91406h-.83594v-6.48047"/><path fill="#00f" fill-rule="evenodd" d="M370.48438 401.07422h8.62109v-10.14844h-8.6211v10.14844"/><path fill="azure" fill-rule="evenodd" d="M372.3164 392.76172h.83594v2.82031h3.28516v-2.82031h.83203v6.47656h-.83203v-2.91406h-3.28516v2.91406h-.83593v-6.47656"/><path fill="#ff3030" fill-rule="evenodd" d="M277.97266 374.4414h7.6953v-10.14452h-7.6953v10.14453"/><path fill="azure" fill-rule="evenodd" d="M279.8086 366.1289h.83202v5.7422h3.19141v.73827h-4.02344v-6.48046"/><path fill="#ff3030" fill-rule="evenodd" d="M193.64453 370.0039h7.69531v-10.14452h-7.6953v10.14453"/><path fill="azure" fill-rule="evenodd" d="M195.47656 361.6914h.83594v5.73829h3.1914v.74219h-4.02734v-6.48047"/><path fill="#ffffe0" fill-rule="evenodd" d="M323.99219 346.6875h22.17969v-10.1914h-22.1797v10.1914"/><path fill-rule="evenodd" d="M327.48828 338.32813H328v6.29296h-.78906v-4.48828h-1.38672v-.55469l.5586-.0664.2539-.05469.22656-.08984.20703-.14063.17188-.21094.14062-.29296.10547-.39454m4.8164 0l.22657.01954.21875.05468.21094.08985.19531.1211.1836.14843.17187.17578.30078.41797.2461.4961.17968.54687.10938.57812.03906.58985-.03906.59375-.10938.58593-.17969.5547-.24609.5-.30078.42968-.17188.17969-.18359.15234-.19531.1211-.21094.09374-.21875.0586-.22656.01953-.23047-.01953-.21875-.0586-.20703-.09375-.19922-.12109-.1836-.15234-.17187-.1797-.30078-.42968-.24219-.5-.17969-.55469-.11328-.58593-.03515-.59375h.83203l.02734.5625.08203.5078.125.44142.16406.375.19141.30078.21094.22265.22265.13672.22657.04688.22656-.04688.22266-.13672.21093-.22265.1875-.30079.16407-.375.125-.4414.08203-.50781.03125-.5625-.03125-.5586-.08203-.5039-.125-.4336-.16407-.36719-.1875-.28906-.21093-.21484-.22266-.13281-.22656-.04297-.22656.04297-.22266.1328-.21094.21485-.1914.28906-.16407.3672-.125.43359-.08203.5039-.02734.5586h-.83203l.03515-.58985.11328-.57812.1797-.54688.24218-.4961.30078-.41796.17188-.17578.18359-.14844.19922-.1211.20703-.08984.21875-.05468.23047-.01954m5.08984 0h.50781v6.29297h-.78515v-4.48828h-1.38672v-.55469l.5586-.0664.25-.05469.23046-.08984.20313-.14063.17578-.21094.14062-.29296.10547-.39454m2.82422 2.17579h.78516l.01953-.31641.0625-.28516.09765-.2539.14063-.21485.17969-.17578.22265-.1289.26563-.07813.3086-.02734.23827.01953.22266.0625.20703.10156.17578.14063.14844.17187.11328.20703.07422.23438.02344.26562-.01954.26563-.0664.22656-.10938.1914-.15625.17188-.20312.16016-.2461.16797-.6328.39062-.53907.3125-.4375.3164-.34375.32423-.26563.33593-.1914.35157-.125.36718-.0664.39454-.02344.41796h4.21484v-.73828h-3.33203l.08203-.28515.11328-.23829.14844-.19921.1875-.1797.23047-.17187.27734-.17578.71875-.41797.41406-.20312.34766-.23047.27734-.2539.22266-.26563.16406-.27735.10938-.28515.0625-.28516.02343-.28125-.04296-.38281-.1211-.34766-.1875-.30859-.2539-.26172-.30079-.21484-.34375-.15625-.3828-.09766-.40626-.03515-.4336.03125-.39843.10156-.35547.16406-.30469.23438-.25.30468-.18359.375-.11719.44531-.03906.51954"/><path fill="#ffffe0" fill-rule="evenodd" d="M147.39063 374.67578h22.17968v-10.19531h-22.17969v10.19531"/><path fill-rule="evenodd" d="M150.88672 366.3164h.51172v6.29298h-.78906v-4.48829h-1.38672v-.55468l.55859-.06641.2539-.05469.22657-.08984.20312-.14063.17578-.21093.14063-.29297.10547-.39453m4.8164 0l.22657.01953.21875.05469.21094.08984.1953.1211.1836.14843.17188.17578.30078.41797.2461.4961.17968.54687.10937.57812.03907.58985-.03907.59375-.10937.58594-.17969.55078-.2461.5039-.30077.42578-.17188.1797-.1836.15624-.1953.1211-.21094.09375-.21875.05468-.22656.01953-.23047-.01953-.21875-.05469-.20703-.09375-.19922-.12109-.1836-.15625-.17187-.17969-.30078-.42578-.2422-.5039-.17968-.55079-.11328-.58593-.03906-.59375h.83594l.02734.5625.08203.50781.125.4414.16406.375.1914.30079.21095.22265.22265.13672.22656.04688.22657-.04688.22265-.13672.21094-.22265.1875-.30078.16406-.375.125-.44141.08203-.50781.03125-.5625-.03125-.5625-.08203-.5-.125-.4336-.16406-.36718-.1875-.29297-.21094-.21094-.22265-.13281-.22656-.04688-.22657.04688-.22265.13281-.21094.21094-.1914.29297-.16407.36718-.125.4336-.08203.5-.02734.5625h-.83594l.03906-.58985.11328-.57812.17969-.54688.24219-.49609.30078-.41797.17187-.17578.1836-.14844.19922-.1211.20703-.08983.21875-.0547.23047-.01952m5.08984 0h.50781v6.29296h-.78516v-4.48828h-1.38671v-.55468l.55859-.06641.25-.05469.23047-.08984.20312-.14063.17578-.21093.14063-.29297.10547-.39453m2.82422 2.17578h.78515l.01953-.3164.0625-.28907.09766-.25.14063-.21485.17968-.17578.22266-.1289.26563-.08203.30859-.02735.23828.02344.22266.0625.20312.10156.17969.13672.14844.17578.11328.20313.07422.23828.02343.26172-.01953.26953-.0664.22656-.10938.1914-.15625.17188-.20312.16016-.2461.16797-.63281.38672-.53906.3125-.4375.3203-.34375.32423-.26563.33594-.1914.34765-.125.3711-.06641.39453-.02344.41796h4.21485v-.73828h-3.33594l.08594-.28515.11328-.23828.14844-.19922.1875-.1836.23046-.16796.27735-.17579.71875-.41796.41406-.20704.34766-.23046.27734-.25.22266-.26563.16015-.28125.11328-.28125.0625-.28516.01953-.28125-.03906-.3828-.1211-.34767-.1914-.30859-.25-.26172-.30078-.21484-.34375-.15625-.38281-.10156-.40625-.03125-.4336.03125-.39843.09765-.35547.16797-.30469.23438-.25.30468-.1836.375-.11718.44532-.03906.51953"/><path fill="#ffffe0" fill-rule="evenodd" d="M221.91016 461.72656h22.17968v-10.1914h-22.17968v10.1914"/><path fill-rule="evenodd" d="M225.40625 453.36719h.51172v6.29687h-.78906v-4.49219h-1.38672v-.55468l.5586-.0664.2539-.05079.22656-.08984.20313-.14454.17578-.20703.14062-.29687.10547-.39453m4.8164 0l.22657.01953.21875.05469.21094.08984.1953.1211.1836.14843.17188.17578.30078.42188.2461.49219.17968.54687.10938.57813.03906.58984-.03906.59375-.10938.58594-.17969.55468-.2461.5-.30077.4297-.17188.17968-.1836.15234-.1953.125-.21094.08985-.21875.05859-.22656.01953-.23047-.01953-.21875-.0586-.20703-.08984-.19922-.125-.1836-.15234-.17187-.17969-.30078-.42969-.24219-.5-.17969-.55468-.11328-.58594-.03906-.59375h.83594l.02734.5664.08203.50391.125.4414.16406.375.19141.30079.21094.22265.22265.13672.22657.04688.22656-.04688.22266-.13671.21093-.22266.1875-.30078.16406-.375.125-.4414.08204-.50392.03125-.5664-.03125-.5586-.08203-.5-.125-.4375-.16407-.36328-.1875-.29296-.21094-.21485-.22265-.13281-.22656-.04297-.22657.04297-.22265.13281-.21094.21485-.1914.29296-.16407.36329-.125.4375-.08203.5-.02734.55859h-.83594l.03906-.58985.11328-.57812.17969-.54688.24219-.49218.30078-.42188.17187-.17578.1836-.14844.19922-.12109.20703-.08984.21875-.0547.23047-.01952m5.08984 0h.50781v6.29687h-.78515v-4.49219h-1.38672v-.55468l.5586-.0664.25-.05079.23046-.08984.20313-.14454.17578-.20703.14062-.29687.10547-.39453m2.82422 2.17578h.78516l.01953-.3164.0625-.28516.09765-.25391.14063-.21484.17969-.17579.22265-.1289.26563-.07813.30859-.02734.23828.01953.22266.0625.20312.10156.17969.14063.14844.17187.11328.20704.07422.23437.02344.26563-.01954.26953-.0664.22265-.10938.1914-.15625.17188-.20312.16407-.2461.16406-.6328.39062-.53907.3125-.4375.31641-.34375.32422-.26563.33594-.1914.35156-.125.3711-.0664.39062-.02345.42187h4.21485v-.74219H238.875l.08594-.28515.11328-.23438.14844-.20312.1875-.17969.23047-.17187.27734-.17579.71875-.41796.41406-.20313.34766-.23047.27734-.2539.22266-.26563.16015-.27734.11328-.28516.0625-.28515.01954-.28125-.03907-.38282-.12109-.34765-.1914-.3086-.25-.26172-.30079-.21484-.34375-.15625-.38281-.09766-.40625-.03515-.4336.03125-.39843.10156-.35547.16406-.30469.23438-.25.30469-.1836.375-.11718.4453-.03906.51954"/><path fill="#ffffe0" fill-rule="evenodd" d="M315.11328 448.53516h22.17969v-10.19141h-22.17969v10.1914"/><path fill-rule="evenodd" d="M318.61328 440.17578h.50781v6.29297h-.78515v-4.48828h-1.39063v-.55469l.5625-.0664.25-.0547.23047-.08984.20313-.14062.17578-.21094.14062-.29297.10547-.39453m4.8125 0l.23047.01953.21875.05469.20703.08984.19922.1211.1836.14844.17187.17578.30078.41796.24219.4961.17969.54687.11328.57813.03515.58984-.03515.59375-.11329.58594-.17968.55078-.24219.5039-.30078.4297-.17188.17968-.18359.15235-.19922.12109-.20703.09375-.21875.05469-.23047.01953-.22656-.01953-.21875-.05469-.21094-.09375-.19531-.1211-.1836-.15234-.17187-.17969-.30078-.42968-.2461-.5039-.17968-.55079-.10938-.58594-.03906-.59375h.83203l.03125.5625.08203.50781.125.44141.16406.375.1875.30078.21094.22266.22266.13672.22656.04687.22656-.04687.22266-.13672.21094-.22266.1914-.30078.16407-.375.125-.4414.08203-.50782.02734-.5625-.02734-.5586-.08203-.5039-.125-.4336-.16407-.36718-.1914-.29297-.21094-.21094-.22266-.1328-.22656-.04298-.22656.04297-.22266.13281-.21094.21094-.1875.29297-.16406.36719-.125.4336-.08203.5039-.03125.5586h-.83203l.03906-.58985.10938-.57813.17969-.54687.24609-.4961.30078-.41796.17188-.17579.18359-.14843.19531-.1211.21094-.08984.21875-.05469.22656-.01953m5.09375 0h.50781v6.29297h-.78515v-4.48828h-1.39063v-.55469l.5586-.0664.2539-.0547.23047-.08984.20313-.14062.17187-.21094.14453-.29297.10547-.39453m2.82031 2.17578h.78907l.01953-.3164.0586-.28907.10155-.25.13672-.21484.1836-.17578.22265-.1289.26563-.07813.3086-.02735.23827.01954.22266.0625.20312.10156.1797.13672.14843.17578.11328.20312.07031.23828.02735.26563-.02344.26562-.0664.22657-.10938.1914-.15625.17188-.19922.16015-.2461.16797-.63671.38672-.53516.3164-.4375.31641-.34766.32422-.26171.33594-.19141.35156-.125.36719-.07031.39453-.01954.41797h4.21094v-.73828h-3.33203l.08203-.28516.11328-.23828.14844-.19922.1875-.17969.23047-.17187.28125-.17578.71484-.41797.41797-.20313.34375-.23437.28125-.25.21875-.26563.16406-.27734.11329-.28515.0625-.28516.01953-.28125-.04297-.38281-.11719-.34766-.1914-.3086-.25-.26171-.30079-.21485-.34765-.15625-.3789-.10156-.40626-.03125-.4375.03125-.39844.09766-.35156.16797-.30469.23437-.25.30469-.1875.375-.11328.44531-.04297.51953"/><path fill="#ffffe0" fill-rule="evenodd" d="M252.97656 433.89453h22.17969v-10.1914h-22.17969v10.1914"/><path fill-rule="evenodd" d="M256.47656 425.53516h.50781v6.29296h-.78515v-4.48828h-1.39063v-.55468l.5625-.06641.25-.05469.23047-.08984.20313-.14063.17578-.21093.14062-.29297.10547-.39453m4.8125 0l.23047.01953.21875.05469.20703.08984.19531.1211.1875.14843.17188.17578.30078.42188.24219.49218.17969.54688.11328.57812.03515.58985-.03515.59375-.11328.58594-.1797.55468-.24218.5-.30078.42969-.17188.17969-.1875.15234-.1953.1211-.20704.09375-.21875.05859-.23047.01953-.22656-.01953-.22266-.0586-.20703-.09375-.19531-.12109-.1836-.15234-.17187-.17969-.30078-.42969-.2461-.5-.17968-.55469-.10938-.58593-.03906-.59375h.83203l.03125.5625.08203.50781.125.4414.16016.375.1914.30079.21094.22265.22266.13672.22656.04688.22656-.04688.22266-.13672.21094-.22265.1914-.30078.16407-.375.125-.44141.08203-.50781.02734-.5625-.02734-.5586-.08203-.5-.125-.4375-.16406-.36718-.19141-.28907-.21094-.21484-.22265-.13281-.22657-.04297-.22656.04297-.22266.13281-.21093.21484-.19141.28907-.16016.36718-.125.4375-.08203.5-.03125.5586h-.83203l.03906-.58985.10938-.57812.17969-.54688.24609-.49218.30078-.42188.17188-.17578.18359-.14844.19531-.1211.20703-.08983.22266-.0547.22656-.01952m5.09375 0h.50781v6.29296h-.78515v-4.48828h-1.39063v-.55468l.5586-.06641.2539-.05469.23047-.08984.20313-.14063.17187-.21093.14453-.29297.10547-.39453m2.82031 2.17578h.78907l.01953-.3164.0586-.28517.09765-.2539.14062-.21485.1836-.17578.22265-.1289.26563-.07813.3086-.02734.23437.01953.22656.0625.20313.10156.17968.14063.14844.17187.11328.20703.07031.23438.02735.26562-.02344.26954-.0664.22265-.10938.1914-.15625.17188-.19922.16406-.2461.16407-.63671.39062-.53516.3125-.4375.3164-.34765.32423-.26172.33594-.19141.35156-.125.36719-.07031.39453-.01953.41796h4.21093v-.73828h-3.33203l.08203-.28515.11329-.23828.14843-.19922.1875-.17969.23047-.17188.28125-.17578.71485-.41796.41796-.20313.34375-.23047.28125-.2539.21875-.26563.16407-.27734.11328-.28516.0625-.28516.01953-.28125-.04297-.3828-.11719-.34767-.1914-.30859-.25-.26172-.30079-.21484-.34765-.15625-.3789-.09766-.40626-.03515-.4375.03125-.39844.10156-.35156.16406-.3086.23438-.24608.30468-.1875.375-.11329.44532-.04296.51953"/></g></defs><use xlink:href="#X"/></svg>