<svg xmlns="http://www.w3.org/2000/svg" role="img" xmlns:xlink="http://www.w3.org/1999/xlink" viewBox="142.45 309.95 326.84 171.84"><defs><clipPath id="a"><path d="M144 311.67188h1v168.65625h-1zm0 0"/></clipPath><clipPath id="b"><path d="M144 311.67188h324v168.65625H144zm0 0"/></clipPath><clipPath id="c"><path d="M211 471h21v9.32813h-21zm0 0"/></clipPath><clipPath id="d"><path d="M467 311.67188h1v168.65625h-1zm0 0"/></clipPath><clipPath id="e"><path d="M144 476h1v4.32813h-1zm0 0"/></clipPath><clipPath id="f"><path d="M144 476h2v3h-2zm0 0"/></clipPath><clipPath id="g"><path d="M155 477h5v3.32813h-5zm0 0"/></clipPath><clipPath id="h"><path d="M167 477h7v3.32813h-7zm0 0"/></clipPath><clipPath id="i"><path d="M180 478h8v2.32813h-8zm0 0"/></clipPath><clipPath id="j"><path d="M193 479h8v1.32813h-8zm0 0"/></clipPath><clipPath id="k"><path d="M194 478h2v2.32813h-2zm0 0"/></clipPath><clipPath id="l"><path d="M206 479h9v1.32813h-9zm0 0"/></clipPath><clipPath id="m"><path d="M207 479h2v1.32813h-2zm0 0"/></clipPath><clipPath id="n"><path d="M221 477h6v3.32813h-6zm0 0"/></clipPath><clipPath id="o"><path d="M233 478h8v2.32813h-8zm0 0"/></clipPath><clipPath id="p"><path d="M249 476h3v4.32813h-3zm0 0"/></clipPath><clipPath id="q"><path d="M262 479h4v1.32813h-4zm0 0"/></clipPath><clipPath id="r"><path d="M276 476h3v4.32813h-3zm0 0"/></clipPath><clipPath id="s"><path d="M289 476h3v4.32813h-3zm0 0"/></clipPath><clipPath id="t"><path d="M302 476h3v4.32813h-3zm0 0"/></clipPath><clipPath id="u"><path d="M313 479h8v1.32813h-8zm0 0"/></clipPath><clipPath id="v"><path d="M329 476h3v4.32813h-3zm0 0"/></clipPath><clipPath id="w"><path d="M340 479h8v1.32813h-8zm0 0"/></clipPath><clipPath id="x"><path d="M353 477h8v3.32813h-8zm0 0"/></clipPath><clipPath id="y"><path d="M368 477h5v3.32813h-5zm0 0"/></clipPath><clipPath id="z"><path d="M383 476h2v4.32813h-2zm0 0"/></clipPath><clipPath id="A"><path d="M396 476h2v4.32813h-2zm0 0"/></clipPath><clipPath id="B"><path d="M407 477h6v3.32813h-6zm0 0"/></clipPath><clipPath id="C"><path d="M419 479h9v1.32813h-9zm0 0"/></clipPath><clipPath id="D"><path d="M434 477h6v3.32813h-6zm0 0"/></clipPath><clipPath id="E"><path d="M449 476h2v4.32813h-2zm0 0"/></clipPath><clipPath id="F"><path d="M461 476h5v4.32813h-5zm0 0"/></clipPath><clipPath id="G"><path d="M144 463h2v8h-2zm0 0"/></clipPath><clipPath id="H"><path d="M144 463h1v2h-1zm0 0"/></clipPath><clipPath id="I"><path d="M144 450h2v8h-2zm0 0"/></clipPath><clipPath id="J"><path d="M144 438h4v4h-4zm0 0"/></clipPath><clipPath id="K"><path d="M144 425h4v5h-4zm0 0"/></clipPath><clipPath id="L"><path d="M144 411h4v5h-4zm0 0"/></clipPath><clipPath id="M"><path d="M144 398h4v5h-4zm0 0"/></clipPath><clipPath id="N"><path d="M144 384h4v6h-4zm0 0"/></clipPath><clipPath id="O"><path d="M466 386h2v3h-2zm0 0"/></clipPath><clipPath id="P"><path d="M144 371h4v5h-4zm0 0"/></clipPath><clipPath id="Q"><path d="M144 359h4v3h-4zm0 0"/></clipPath><clipPath id="R"><path d="M466 360h2v3h-2zm0 0"/></clipPath><clipPath id="S"><path d="M144 346h4v2h-4zm0 0"/></clipPath><clipPath id="T"><path d="M466 346h2v3h-2zm0 0"/></clipPath><clipPath id="U"><path d="M144 332h4v3h-4zm0 0"/></clipPath><clipPath id="V"><path d="M466 332h2v3h-2zm0 0"/></clipPath><clipPath id="W"><path d="M144 320h4v2h-4zm0 0"/></clipPath><clipPath id="X"><path d="M466 318h2v3h-2zm0 0"/></clipPath><clipPath id="Y"><path d="M465 318h3v3h-3zm0 0"/></clipPath><clipPath id="Z"><path d="M215 470h9v10.32813h-9zm0 0"/></clipPath><g id="aa" clip-path="url(#clip1)"><path fill="#fff" fill-opacity="0" fill-rule="evenodd" d="M0 0h1000v1000H0zm0 0"/><path fill="#d3d3d3" fill-opacity="0" fill-rule="evenodd" d="M162.15234 355.86719l-.23437.29297.0586.23437.11718.17188.17578.23437.29297.34766.11328.0586.11719-.17188.0586-.23438.17577-.17578.46485-.17578h.69922l.23437.29297.28906.8164.0586.17579.17578.23046.35156.23438.69922.69922.17188.17578.23437.34765.23438.41016.28906.58203.41015.46485.23047.23437.23438.17578.11719.23047.17578.29297.17187 1.16406v.23438l.0586.28906.05859.11719.11719.11719.34765.41015.11719.17188.17578.17578.17578.23437.11719.17188.17188.35156.05859.23438.23437.40625.23438-.0586-.17578.17578-.0586.92969h-.58203l-.23437-.11328-.34766.11328-.11719.11719-.05859.29297-.0586.17578-.11718.17187-.46484.29297-.0586.23438-.0586.11328v.64453l.0586.17187v.41016l.0586.0586v.40624l.05859.40625.11719.17579.05859.05859.23047.64062-.0586.29297v.69922l-.05859.58203v.23438l-.0586.23047-.05468.35156v1.92187l.05469.1172h.42578l-.36719.11718-.02344.35156.89063 1.16797 1.74219.53906 1.33984.35938v.53906l.08984.8086.53516.71484 1.51953.26953.89063-.08594.08984 1.16406.53516.1797 1.16015-.1797 2.05469-.98437 1.16016-.36328 1.8789-.17578 1.69531-.1797-.17968.71876-1.51563.08594-1.25.08984-.80469.26953-1.07421.8086.26953.71875.53515.89843-.17968.625-.26563.8086.26563 1.07812.625.89844.80468.17969 1.25-.1797-.26562.72267.09766.5039.05468.29297v.17188l.0586.29296v.40625l.17578.1172.35156.11718h.40625l.29297-.17578.11328-.11719.0586-.11719.11718-.23047.0586-.17578.35156-.46484.23047-.17578.17578-.0586.17578.0586.0586.17578.11718.98828.05469.46875.0586.17188.11718.23437.17578.0586.8164.05859h.28907l.11719.23437.05859.40625.0586.35156v1.10547l.11718.29297.11719.34766.28906.69922.17578.35156.58203.7539.35157.17579.17187.0586.46875.23437.64063.46484.34765.23438.29297.17578.29297.05468.23047.0625.8164.34766.29297.17578.11328.17188.35157.35156.11719.17578.52343.64063v.28906l.0586.35156v.34766l.05859.35156.0586.28906.11718.0586.17188.05859h.17578l.58203.23437.17578.1172.17578.28905.17578.23438.11328.23437.29297.23047.11719.11719v.41016l.0586.05468.28906.23438.23437.11719.0586.11718.11718.17188.0586.11719.23047.23437.05859.17578.23437.0586.1172.05859-.1172.11328-.05859.11719v.11719l-.11719.29296-.11719.28907v.58203l.17579.11719.11718.05859.0586.11719.11719.11719.11328.05859.17578.34765.0586.35157.05858.40625v.17578l-.05859.17578-.11719.69922v.17187l.1172.17579.29296.29296h.40625l.17578.1172.11719.17187.11719.29296v.23438h-.52735l-.23047-.23438h-.23437l-.17578.0586-.0586.69922.0586.34765.11719.17579.17578.41015.11718.23047.28907.46875.17578.05469h.52344l.23437.0586.75781.64062.0586.29296v.23438l.05859.0586.23047.34765v.35156l-.11719.17188v.29297l.29297.28906.29297.17578.17187.0586.29297.17577.29297.1172.58203.40624.28906.23438.29297.17578.21875.16015.01563.01172.23047.17579.64062.52343.17578.23438.1172.17578.17577.17578.11328.17188v.64062l.1172.17578.46874.11719.58203.11719.23438.05859.23047.11328.29297.11719.11328.0586.58593.35156.28907.17187.17578.0625.17578.05469.17578.0586.69922.35155.28906.17579.23438.05468.28906.17578.23437.1172.64063.40624.29297.11719.17187.0586.23438.05859.41015.05859.23047.0586.23438.11718.0586.17188-.41017.17578.46875.0586.0586.29296.11328.23438.17578.05468.23438.0586.17578.05859.40625.11719.64062.23437.11719.17188.0586.23437v.17578l-.0586.1172-.0586.40624.23438.23438.11719.05859.34766.11719.64062.23047.17578.11718.28906.1172.17578.17577.23438.46485.58203 1.10546.17578.17579.34766.17578.17578.11719.35156.11718 1.04688.52344.23437.0586.46485.11327.29297.0586.46484.17578.75781.58203.23438.23438.34765.46484.17578.17578.28907.23438.8164.69921.29297.17579.28906.28906.29297.17578.29297.28906.69531.64063.17578.17578.29297.23437.28907.23438.46875.28906.64062.58203.34766.23438.23437.29297.34766.34765.35156.46485.9336.99218.34765.40625.11719.17579.23437.05859.11328.11719.64454.17578.23047.11328.23437.0586.29297.17577.23047.1172.9336.69921.40624.40625.23438.17578.40625.17578.23437.11719.8164.34766.34766.23437.23438.11719.29297.28906.23047.11719.7578.35156.35157.17188.23047.05859.29297.11719.23437.0586.8711.17577h.8164l.46875.23047.17188.0586.875.69921.46484.1172.29297.05858.17578.0586.23047.0586.46875.05859.34766.05859.35156.0586.40625.05859h.29297l.17187.0586v.23046l.17578.17578h.29297l.34766.0586.35156.05859.69922.11719h.64063l.46484-.23438.29297-.17578.17187-.11719.41016-.17187.28906-.17578.9336-.46485.46875-.29297.52343-.29296.46485-.17188.46484-.17578 1.05078-.46485.28906-.11718.41016-.11719.28906-.11719.52735-.17578 1.51562-.69922.58203-.34765.28907-.0586.29297-.0586.34765-.11718.875-.23047.35156-.11719h.11329l.23437-.05859.875-.23437.23438-.0586h.8125l.35156-.0586.8164-.11718.17188-.0586.35156-.05468.29297-.0586.23047-.05859.8164-.17578.17579-.0586h.34765l.23438-.05859.46484-.11718.75781-.17188.23438-.0586h.34765l.41016-.11718.28906-.0586 1.28516-.05859h.28906l.41016-.0586.23047-.05858h.17578l.875-.1172h.40625l.41015-.11718h.34766l.35156-.11328.8711-.0586h1.75l1.04687.28907.41016.11719.28906.11718.35156.11719.28907.11719 1.05078.17187.28906.0586h.29297l.29297.05859.17187.0586.41016.05859.17187.0586.1172.05858h.11718l.11719.0586.35156.0586h.11328l.41016.0664 1.92187.39453 1.92578.39453 1.51953.44922 1.69532.71875 2.14453.80469 1.60547-.71875 1.42968-.80469 1.16016-1.07813 1.25-.44921 3.03516-.71875 1.875-.35938 2.14453-1.34765 2.23437-1.25391 2.5-1.25781 1.69531-.44922 1.78516-.17969 1.16016-.26953.625.53906 1.33984-.26953.71485-.98828.98437-1.34375.44531-.17969.80469-.35937 1.875-.53907 1.78516-.44921 1.25-.26954 1.16015-.08984 1.69922-.08984 1.96094-.26954 1.25-.08984h.53906l.625-.08984h.89063l2.14453-.17969 2.41015-.17969 2.58985-.08984 1.69531.17969 1.60938.08984 1.42968.35938 1.16016.71875 1.875.98828 1.16015 1.52734.26563.71484.6289.08985.35548.89844.53515.53906.53516 1.52734 1.07422.35938h.53515l-.80469.53515.08985 1.70703.71484 2.69532.89063.80468.89453.98829.71484 1.2578 1.78516.53907 1.51953-.17969.35547 1.34375 1.60937-.80469.98047-.53906.26953.26953.31641-.21484.21875-.14453.80078.44922.44922-.35938h.35547l.53515-.26953.53907-.71875.53515-.26953.625-.98828 1.16016.44922.83984.3711 1.39454.61718 1.6953-.17969h1.60548l1.78515.08985.17969-1.70704.53516-1.34375.80468.26954.4922.84765.40233.40625-.08984.53906v.35938l.71485.44922.71093-.26953h1.42969l.35938.98828.4453 1.25781.71485 1.34375 1.25.6289 1.69531.62891.71485-.17969.17969-.53906.98046-.08984.44922.35937.08594 1.25782-.26563.6289-.53515.17969v.53906l.71484.98438.26563.53906.98437.98828.80078 1.07813-.26562.35937-.08985.89844-.625 2.33203-.35546 2.0664-.08985 1.79298-.17969.71875-.08984.53906v1.4375l-.98047 1.88281-.35937 1.70703-.53516.89844-.80469 1.16797-.26562.53906 2.05469 1.2539.08593.35938-.35546.53906-.08985-.17968v.80859l.08985 1.4375-.44532.71484-1.07422.09375-.26562.71485.53515.89844.8047.71875 1.16015.80859 1.33984.26953.44531.35938-.35546.44921-1.78907-.08984-1.25-.44922-.71484-.71875-.625-.08984-.17578 3.58984-.1875 1.3086h89.35937V311.70313h-55.26953v49.08203l.76172.125 3.28906.54296 2.02344 2.83594v2.7539l2.35156.33204 2.34766.33203h4.05078l-1.3789 4.16016-2.02344.70703-2.02344.70312-.54297.34375-2.59375 1.6172-.1875.11718-2.02344-2.07813-.73046-2.74218-2.67188-2.07813-1.375-3.5-.0664-.08203-1.95704-2.67188 2.75-1.41796v-49.08204H294.42187v91.41407l.1172.03125.1328.01172.07422.07421.10547.04688.08985.0586.08593.05859.08985.0586.29687.29687.0586.08984.03125.11719.02734.11719.01563.13671-.03125.1172-.0586.08983-.0586.08594-.04296.10547-.04688.10156-.02734.1211v.14453l.17578.26953.14844.14844.07422.08594.07422.07421.04296.10547.0625.08985.0586.08593.04297.10547.0586.08985.04687.10156.04296.10547.0586.08594.11719.17968.07421.07422.0625.08594.0586.08984.04297.10547.0586.08985.05858.08593.0625.08985.0586.08984.04297.10156.11719.17969.07421.07422.0586.08594.07422.07421.08984.0586.10547.04687h.14844l.1328-.01562.13282.01562.10156-.04687.07422-.07422.04688-.10156-.01563-.13281v-.14844l-.04687-.10547-.02735-.11719-.04687-.10156-.02735-.1211-.04296-.10156-.0625-.08984-.04297-.10156-.04297-.10547-.03125-.11719-.01563-.13281-.01171-.13672.08593-.0586.0586-.08593.12109-.03125.04297.10547.01562.1328v.1172l.0586.10156.0586.08984.08983.0586.14844.14843.0586.08985.04296.10547-.01171.10156.08593.0586.10547.04687.08594.0586.08984.05858.07422.07422-.11719.02735-.10546.04687-.08594.0586-.07422.07421-.0586.08985-.0625.08594-.02734.12109-.04687.10156-.04297.10547-.03125.11719-.01172.13281-.01563.13281v.14844l.02735.11719.04687.10547.04297.10156.0586.08984.07421.07422.08985.0586.07422.07421.08984.0586.0586.08984.04296.10547.04688.10156.11719.03125.1328.01563h.14845l.11718-.03125.10547.04297.04297.10547.04688.10156.02734.1211L299.5 410l.02734.11719.03125.1211.02735.11718.10547.04297.10156.04687.13281-.01562.14844.14844.0625.08593.07422.07422.07031.07422.08984.0625.10547.04297.10156.04297.1172.03125.13671.01562.11719-.03125.07422-.07422.02734-.11718-.01172-.13282-.03125-.12109-.02734-.11719.04297-.10547h.11719l.08984.0625.11719.02735h.14843l.13282.01562h.14843l.13282.01563.1328-.01563h.14845l.1328-.01562.13282-.01172.13672.01172.11719-.02735.13281-.01562.1914-.0586-.05859.17579-.01562.1328-.02735.1211-.01562.13281-.0586.08594-.1328.01563-.10548.04687-.10546.04297-.1172.03125-.11718.02735-.26563.03125h-.14843l-.13281.01562-.07422.07422.05859.08594.14844.14843.11719.1797.07421.0703.08985.0625.08984.0586.08594.0586.08984.05858.10156.04297.10547.0625.10547.04297.08594.0586.10547.04687.10156.04297.17969.11719.0586.08984-.04298.10156-.04687.10547.01562.13281.22266.22266.0586.08985.04296.10156.03125.1211.04297.10155.01563.13282.03125.11718.01171.13672.03125.11719.14844.14844.10156.04297.10547.04296.1172.03125.1328.01563.13672.01563h.11719l.11719-.03125.08984-.0586.04297-.10547.04688-.10156.04296-.10547.03125-.11719.01172-.1328v-.14845l-.01172-.1328-.01562-.13282-.03125-.11719-.04297-.10547-.04688-.10547-.04296-.10156-.04297-.10547-.01563-.13281.01563-.13281.02734-.11719.03125-.11719.02735-.1211.04687-.10155.08984-.0586.08594-.0625.07422-.07422.08984-.05859.22266-.22266.0586-.08593.07421-.07422.11719-.17969.0586-.08594v-.14844l-.07423-.07421-.10156-.04688-.10547-.04297-.10156-.04297-.0586-.08984-.04687-.10547-.02734-.11719.08984-.05859.11719-.03125.10156-.04297.17969-.11719.14844-.14843.01172-.13282-.01172-.10546-.08985-.0586-.1328.01563h-.14845l-.1328.01562-.13282-.01562-.1211-.03125-.08593-.0586-.07422-.07422-.0586-.08984-.0625-.08594-.11718-.17969-.0586-.08593.03125-.1211.08594-.05859.1211-.03125.05859-.08594v-.1211l-.03125-.11718-.0586-.08984-.05859-.08594-.04687-.10547-.02735-.11719-.01562-.1328.0586-.08985.07421-.07422.08984-.0586.1172-.17968.07421-.07422.0586-.08594.14843-.14844.1211-.03125.1328-.01562.13282.01562.07422.07422.04297.10547.01562.13281-.03125.1172-.11719.03124-.1328.01172-.14844.14844-.04297.10547-.04688.10156-.02734.1211-.03125.11718v.14844l.03125.11719.04297.10546.05859.08985.07422.07031.07422.07422.11719.03125.12109.02734.11719-.02734.1328-.01563h.1172l.08984.0586.07422.07422.04687.10546.0586.08594.10156.04688.13281.01562.10547.04297.08594.0586-.01172.10546-.07422.07422-.17969.11719-.05859.08984-.08984.0586-.07032.07422-.07421.07421-.0625.08985-.02735.11719-.01562.1328.01562.13282-.01562.13281v.14844l.01562.13281.02735.1172.03125.12108.07421.07422.08985.0586.08594.0586.08984.05858.11719.03125v.08594l-.10157.04688-.08984.0586-.26563.03124-.11718.02735h-.14844l-.10547.04296-.10156.04688-.0586.08984-.0625.23438-.01171.13281-.03125.1211-.01563.1328v.29298l-.01172.1328.01172.13673.01563.1328.1328.01563.13282.01172.1211.03125.08593.0586.07422.07421.04688.10547.04296.10157.01563.1328v.44532l-.01563.13281v.44532l.03125.26562.02735.11719.01562.13281.03125.11719.08594.21094.03125.26562v.14844l-.03125.11719-.02734.11718-.03125.1211-.02735.11719-.03125.11718-.03125.1211-.01171.1328-.01563.13282.08984.0586.1172-.03125.10155.01562.04688.10547-.03125.26562v.44141l-.04297.10547-.04688.10547-.04296.10156-.04297.10547-.0586.08594-.03125.12109-.04296.11719-.03125.11719-.01563.1328.01563.13282.05859.08984.10547.04688.08594.0586.05859.08593-.01172.13672-.03125.11719-.04297.10156v.44531l-.01562.13281v.14844l-.03125.11719-.04297.10547-.02735.11719-.04687.10546-.04297.10157-.03125.12109-.02734.11719-.03125.13281-.03125.11719-.02735.11719-.04297.10546-.03125.1172-.03125.12108-.01171.13282-.01563.13281v.29688l.02734.11718v.14844l.04688.39844.02734.11719.0586.08984.12109.03125h.14844l.13281-.01563.0586.08985v.11719l-.0586.08984-.08984.0586-.10157.04296-.10546.04688-.08985.05859-.08594.0586-.13671.01562-.1172-.03125-.1328-.01563-.10157.04688-.0625.08594-.01172.13671-.01562.13282-.03125.11719-.02735.11718-.01562.13281-.03125.1211v.29687l.01563.13282.03125.11718v.14844l.01171.13281v.14844l-.02734.11719-.04688.10156-.02734.1211-.03125.11718-.0586.08985-.07421.07421-.10156.04297-.10547.04688-.11719.02734-.1211.03125-.10156-.04687.0586-.08594.10547-.04688.02734-.11718.03125-.11719.02734-.1211.03125-.11718v-.14844l.01563-.13281-.03125-.11719-.04297-.10547-.10547.01563-.07422.07422-.10156.04296-.08984.0625-.07422.07422-.04297.10157-.01563.1328-.03125.1172L304.25 426l-.03125.11719-.02734.11719-.03125.12109-.02735.11719-.03125.11718-.04297.10547-.08984.0586h-.08984l-.1172-.03125-.03124-.08594.01562-.13672-.03125-.11719v-.14844l-.01171-.1328v-.14844l-.0625-.23438-.02735-.1211-.04297-.10156-.04687-.10546-.0586-.08594-.05859-.08985-.04297-.10546-.0625-.08594-.14844-.14844-.0703-.07422-.10548-.04687-.10547-.04297-.10156-.04297-.29687-.29688-.08985-.07421-.08594-.0586-.10546-.04297-.08985-.0625-.08594-.0586-.10546-.04296-.08985-.0586-.08594-.0625-.07421-.0703-.10547-.04688-.08594-.0586-.10547-.04296-.08984-.0625-.10156-.04297-.10547-.04297-.08594-.0586-.10547-.04687-.10547-.04297-.10156-.04687-.08985-.0586-.10156-.04297-.10547-.04296-.08984-.0625-.11719-.02735-.13281-.01562-.13281.01562H299.75l-.13281.01563-.11719-.03125-.08984-.0586-.07422-.07422-.08985-.05859-.10156-.04688h-.14844l-.12109-.02734-.10156-.04297-.07422-.07422-.11719-.17968-.08984-.0586-.10156-.04297-.08985-.0625-.10547-.04296-.08984-.0586-.08594-.0586-.10547-.04687-.0586-.08594-.05858-.08984-.04297-.10547-.04688-.10156-.07422-.07422-.08594-.0586-.07421-.07421-.08985-.0586-.22265-.22265-.04297-.10547-.03125-.26563.10547-.04296h.14453l.10547.04296.07421.07422.08985.0586.08594.0586.10546.04687.08985.05859.14844.14844.0703.07422.14845.14843.0625.08594.07421.07422.08594.0586.07422.07421.08985.0625.08984.0586.08594.05859.26953.17578.10156.04688.10547.04296.10156.04297.04688-.07421.05859-.08594.07422-.07422.07031-.07422.10547.04297.07422.07422.0586.08984.04296.10156.04688.10547.04296.10547.1211.02735.11719-.02735.07421-.08984.04297-.10547.0586-.08985.07422-.07421.10546-.04297.1172-.02735.1328.01172.08985.0586.14844.14843.05859.08985.04297.10547.04687.10156.04297.10547.04297.10156.10547.04688.10547.04296.13281.01563.08594-.0586.0586-.08984.07421-.07422.10547-.04297.11719.02735.10547.04687.10156.04297.10547.04297.10156.04688.17969.11718v.11719l-.01563.13281.01563.13281.01562.13672.0586.08594.10156.04688.1211.02734.11718.03125h.14844l.11719-.03125.05859-.08984.17969-.1172.05859-.08983.07422-.07422.0586-.08594.11718-.17969.17969-.11719.11719.03125.08984.0586.04297.07422-.01563.1328v.1172l.08985.05859h.14843l.13282-.01563.1328-.01171.26563-.03125.10547-.04297.11719-.03125.1211-.02735.07421-.07421.07031-.07422.0625-.08985-.01562-.10547-.04688-.10156-.10156-.04297-.10547-.01562-.11718.02734-.26563.03125h-.14844l-.07421-.07422-.08985-.0586-.11719-.03124-.11718-.02735-.13282-.01562h-.14843l-.13282.01563h-.29687l-.10547-.04688-.14844-.14844-.04297-.10156-.05859-.08984.22266-.22266.08593-.0586.10547-.04296.11719-.03125.13281-.01563.13281.01563.13672.01562.10157.04297.1328-.01172.08985-.0625.10156-.04297.0625-.08984-.04687-.10156-.08984-.0586-.1172-.03125-.10155-.04296-.0586-.08985-.0625-.08984v-.11719l.01563-.13281.10547-.04688.07421-.07031v-.1211l-.08984-.05859-.03125-.11719.08985-.05859.07421-.07422.04297-.10547.0586-.08984.04687-.10156.01563-.13281v-.14844l-.04688-.10547-.04297-.10156-.08984-.0586-.13281-.01562-.10157-.04297-.13671-.01563-.1172-.03125h-.4453l-.13282-.01562-.13281-.01172-.13281-.01563-.11719-.03125h-.14844l-.13281-.01562-.13281-.01172-.26563-.03125-.1211-.04297-.08593-.0586-.07422-.07421v-.14844l.01172-.13281.10547-.04688.10156-.04296.13281-.01563h.15235l.13281-.01562h.29297l.1211.03125.10156.04296.08984.0586.23438.0625.12109-.04688.08984-.05859.10156-.04297.13282-.01562.10547.04296.10156.04688.13281.01172.1211-.02735h.14453l.12109-.03125.11719-.02734.10547-.04687.07421-.07422.08594-.0586.14844-.14843.0586-.08594.04687-.10547.02734-.11719.01563-.10547-.10156-.04296-.08985-.0586-.11719-.03125-.10546-.04297-.08985-.0625-.07422-.08594-.07422-.07421-.10156-.04297-.10547-.04688-.10156-.04297-.0586-.08984-.04687-.10156-.08594-.21094-.0625-.08594-.05859-.08984-.07422-.07422-.08594-.0586h-.26953l-.11719.03126-.08984.05859-.10156.04297-.13281.01562-.10547-.01562-.02735-.11719-.0625-.08984-.11718-.03125-.10157-.04297-.14843-.14844-.03125-.11719-.01563-.10546.07422-.07422.17969-.1172.11719-.02733.11718-.03125.13672.01562.10156.04297.10547.04297.10156.04687.10547.04297.1172.03125.1328.01563.1172.02734.1328.01563.10547-.01563.08985-.0586-.07422-.07421-.10547-.04297-.07422-.07422-.07422-.08984-.14844-.14844-.08593-.0586-.08985-.05859-.07422-.07422-.08984-.0586-.10156-.04687-.1211-.02734-.10156-.04688-.10547-.04296-.11719-.03125-.10156-.04297-.1211-.03125h-.14843l-.11719.03125-.10546.04297-.08594.0625-.17969.11718-.08594.0586-.08984.0586-.10547.04687-.08594.05859-.10547.04297-.10156.04297-.10547.04687-.07422.07422-.05859.08985-.0586.08593-.04687.10547-.0586.08594-.07421.07422-.13281-.01172-.1172-.03125h-.11718l-.07422.07422-.08984.0586-.07422.07421-.08984.0586-.08594.05859-.10547.04687-.10156.04297-.13672.01563-.10156-.04297-.14844-.14844-.10547-.04688h-.08594l-.10547.04688-.10156.04297-.1211.03125-.11718-.03125-.07422-.07422v-.11719l.03125-.1211.07422-.0703.0586-.08985.07421-.07422.11719-.03125.10547-.04296h.29297l.13281-.01563.13672-.01563.10156-.04296.08985-.0586.10156-.04687.08984-.0586.13281-.01171.08985.05859.13281.01172.08984-.0586.08594-.05859.10547-.04297.08984-.0586.08594-.0625.08985-.05859.14843-.14843.0586-.08594.05859-.08985.10547-.04296.13281-.01563.11719.02735.1211.03125.05859-.0586.05859-.08984.03125-.26563.02734-.11719.10547.01172.13281.01563.10157-.04297.08984-.0586.0586-.08984.07421-.07422.0586-.08984.04687-.10156.01172-.13281-.01172-.13282-.04687-.10547-.14844-.14843-.0586-.08985-.05859-.08594-.04297-.10546v-.44532l.01563-.1328v-.14845l.01172-.1328-.0586-.0586-.08984.0586-.10156-.04298-.17969-.11719-.08594-.05859-.0625-.08984-.0586-.08985-.07421-.07421-.08594-.0586-.1211.03125-.10155.01172-.10547.04688-.08594.05859-.10547.04297-.14844.14844-.08984.05859-.08594.0586-.08984.0625-.10547.04296-.13281.01563v-.1211l.10547-.04297.11718-.03125.07422-.0703.04297-.10548v-.14844l-.02734-.11718-.14844-.14844-.13281-.01563h-.14844l-.11719.03125-.10547.04297-.10156.04297-.08984.0625-.11719.02735-.07422-.07422.01172-.13281-.04297-.10157-.04297-.10547-.08984-.05859-.11719.02734-.1211.03125-.11718.03125-.10156.04297-.1211.03125-.10156.04297-.10547.04297-.08984.0586-.10156.01562v-.11719l.01562-.13281-.0586-.08985-.07421.04297-.14844.14844-.0586.08985-.07421.07421-.04688.10547-.04296.10156-.07422.07422-.0586.08985-.07422.07422-.05859.08593-.07422.07422-.08984.0625-.07422.07031-.07422.07422-.10156.01563-.13281.01562-.10547-.04296v-.1211l.14843-.14844.04297-.10156.0586-.08984.04687-.10156.04297-.10547.0586-.08985.03124-.11719.04297-.10156.03125-.1211.02735-.11718.04687-.10547.04297-.10156.04297-.10547.07422-.07031.08984-.0625.08985-.0586.10156-.04296h.29687l.26563-.03125.10547-.04297-.07422-.07422-.11719-.03125-.10547-.04297-.08984-.0586-.10156-.04687-.08985-.0586-.10156-.04296-.10547-.04297-.08984-.0625-.08594-.0586-.10547-.04296-.10156-.04297-.1211-.03125-.11718-.03125-.10157-.04297L297.5 410.25l-.10156-.04297-.08985-.0586-.04296-.10546-.01563-.13281.10156-.04297.13281-.01563.13672.01563.13282-.01563.10156-.04297.0586-.08984.01562-.10547-.08985-.0586-.07421-.07421-.10157-.04297-.08984-.0586-.14844-.14843-.04297-.10547-.01562-.13281v-.29297l-.0586-.08985-.08984-.05859-.07422-.07422-.04297-.10547-.03125-.11718-.0586-.08985-.07421-.07422-.11719-.02734-.07422-.07422-.08984-.0586-.08984-.0625-.08594-.05859-.07422-.07421-.0586-.08594-.04687-.10547-.08594-.0586-.14843-.14843-.19532-.0586-.1328.01563-.10157.04297-.07422.07422-.04688.10156-.04296.10547-.0586.08984-.0586.08594-.29687.29687-.08984.0586h-.08594l-.0625-.08594-.04297-.10547.03125-.11719.0586-.08984.02734-.11719-.01172-.13281-.08984-.0625-.10547.04688-.11719.02734-.11719.03125-.26953.17578-.10156.04688-.11719.02734-.10546.04687-.08985.0586-.10156.04297-.0586-.08594-.04687-.10547.01563-.13281.04687-.10547.07031-.07422.07422-.07031.0586-.08985v-.14843l-.04297-.10547h-.23829l-.10156.04687-.03125.11719-.02734.11719-.03125.1211-.07422.04296-.13281.01563-.07422-.04688-.04297-.10156-.04297-.10547-.04687-.10156-.04297-.10547-.1211.03125-.10156.04297-.13281.01562-.11719.03125-.10547.04297-.08984.0586-.10156.04687-.1211.02734-.13281.01563-.10156-.04297-.0586-.08985-.04687-.10546-.04297-.10157-.04297-.10546v-.1172l.0586-.08984.08593-.05859.17969-.11719.10156-.04687.10547-.04297.10547-.0586.10156-.04296.08985-.0625.10156-.04297.10547-.0586.10156-.04687.08984-.0586.10547-.04296.10156-.04297.08985-.0625.10156-.04297.13672-.01563.11719.03125.10156.04297.1211.03125.10156.04297.10546.04688.10157.04296.10547.04297.10156.04688.10547.04297.10156.04297.10547.04687.08594.0586.10546.04296.1172.03125.10546.04297.10156.04688.08985.0586.10547.04296.10156.04297.10547.04687.11719.02735.10156.04687.1211.02735h.14843l.08594-.0586.01562-.10156.0586-.08984-.02735-.1172-.07422-.07421-.11719-.17969-.07421-.07422-.08985-.07421-.17969-.1172-.08593-.05859-.10547-.04296-.10156-.04688-.26954-.17578-.05859-.08985-.07422-.07421-.0586-.08985-.04296-.10156-.03125-.11719-.01563-.13672v-.5625l-.01171-.1328-.01563-.13282-.03125-.11719-.01562-.13281-.01172-.13281-.03125-.1211-.22266-.22265-.0586-.08594-.01562-.10547.03125-.11719.13281-.01562v-91.41406H172.9922v1.45312l-.0586.23438-.35156 1.05078-.17187.52343-.1172.34766-.17577.41016-.11719.17187-.23438.29297-.23046.0586h-.35157l-.11718.05859-.23047.40625v.29297l.11719.17578.23046.23047.1172.23437.64062.75781.29297.46485.17578.23437.23047.35156.23437.34766.64063.8164.17578.46485.17187.41016.11719.69531.17578.46875.11719 1.39844.0586.46484v.875l.11718 1.04688v4.78125l-.0586.46484-.35156 1.28125-.17578.52344-.11328.41015-.35156.9297L172.93359 336l-.23437.58203-.11719.17578-.17187.34766-.17578.40625-.35157.8164-.0586.29297-.11327.29297-.11719.28906-.0586.17579-.11718.875-.0586.40625-.05859.11718-.0586.17579-.05859.17187-.23047.52734-.11718.17188v.23437l-.11719.23438-.0586.17187-.17577.58594v.28906l-.0586.17579v.29296l-.0586.11329-.05859.52734v.17187l-.05468.23438v2.6211l-.17578.8164-.1172.17578-.17577.23438-.1172.17187-.11327.23438-.58594.93359-.23047.28906-.29297.46485-.17578.23437-.28906.35156-.35156.69922-.11328.23047-.17579.41016-.17578.23046-.40625.52735-.8164.69922-.29297.17187-.28906.23438-.17579.11719-.17578.17578-.52344.40625-.52734.17578-.17187.17578-.23438.05469-.64062.17578h-.75782m12.21094 31.02344l-1.07422.44921.35938.89454 1.25-.71485.44531-.53906-.98047-.08985"/><path fill="#d3d3d3" fill-opacity="0" fill-rule="evenodd" d="M201.50781 416.59766h-.89453l.44922.6289.98047.35938.80469-.08985.4453-.98828-.17577.08985-.71485-.35547-.89453.35547m154.6211 59.0703l-.0586-.52343v-.29297l.11328-.29297.0586-.23046.46875-.46875h.11328l.11719-.11329.11718-.05859h.17579l.23437-.0586h.34766l.23437.0586.11719.0586.23047.17187.0586.17578.11718.58203v.29297l-.11719.17578-.17187.28906-.17579.17579-.52734.52343-.23047.23438-.11719.0586h-.17578l-.11718-.0586-.40625-.29297-.17579-.11719-.11718-.0586-.0586-.11327-.05468-.1172m6.64062-10.95702l-.0586-.17188v-1.10937l.0586-.17188.17578-.0586.17188-.05858h.17578l.23437-.0586.1172.0586.05858.69921-.05859.17188-.11719.17578-.11718.0586-.23438.52343-.11328.0586h-.23438l-.05859-.1172m9.61328-14.39062l-.11719-.17578v-.69922l.29297-.875.1172-.17187.17577-.35156.11328-.23047.1172-.29297.35155-.75781.1172-.23047.17187-.23438h.17578l.11719-.0586h.64062l.11719.0586.23437.23438.17188.11328.35156.29297.11719.11718.11328.17579v.11328l.11719.05859.11718.11719v.69922l-.05859.17578v.23047l-.0586.17578-.34765 1.05078-.11719.23047-.11719.23437-.11718.0586-.23047.23437-.64063.28906h-.875l-.41015-.11718-.64063-.46485"/><path fill="none" stroke="#bebebe" stroke-linecap="round" stroke-linejoin="round" stroke-miterlimit="10" stroke-width=".5" d="M467.95703 311.69531H144.02734v168.625h323.9297v-168.625"/><g clip-path="url(#a)"><path fill="#fff" fill-opacity="0" fill-rule="evenodd" d="M144 475.89063v4.4375h.0039H144V311.67188h.0039H144v164.21875"/></g><g clip-path="url(#b)"><path fill="#fff" fill-opacity="0" fill-rule="evenodd" d="M144.0039 480.32813V311.67188h26.625V445.8789l-4.4375.07812-4.4375.67969-2.91015 2.625-1.52734.52734-3.96094-.52734-.48047-.40625-4.4375-.60547-.89844 1.01172.89844 1.10156 3.50781 3.33594.92969 1.76953.15234 2.66797.63672 4.4375.58985 4.4414 3.0625 3.08204 4.4375.60156 4.4375-.01172 4.4375-.35156 4.4375-.6211 4.4414.1836 4.4375-.32422 3.69922-2.5586.73828-.14843 4.4375-.39063 4.4414-.76953 4.4375.24219 3.69532 1.0664.74219.57422.8789-.57421 2.04688-4.44141-2.92578-4.23047-.15234-.20703-.35547-4.4375-3.9297-3.03906-4.4375.07421-4.4414.33594-4.4375.66406-4.4375-.3203-4.4375-1.98048-.30469-.17187-4.13671-2.8789-4.4375-.50391V311.67187h44.38672v128l-2.85938.71094 2.85938.30078.3203-.30078-.3203-.71094v-128h8.875v97.15625l-.46094.48829-3.97656 1.97265-2.44922 2.46485 2.44922 3.60937 4.4375-1.26172 3.03906-2.34765-2.29688-4.4375-.74219-.48829v-97.15625h8.875v152.78907l-2.33593 2.55469 2.33594 2.19921 1.97265-2.19921-1.97266-2.5547V311.67188h44.38672v113.60938l-1.71093 1.78906 1.71093 1.70703 4.4375-.875.83204-.83203-.83204-.875-4.4375-.91406V311.67187h13.3125v140.48438l-1.92578 1.54297-2.51172 1.53515-3.89453 2.90235-.54297 3.1211-.38671 1.3164.38671.3164 4.4375 2.20313 4.4375-1.78906.73047-.73047 3.70703-2.8125 1.625-1.625-.53906-4.4375-1.08594-1.09375-4.4375-.44922V311.67187h17.75391v99.21094l-3.14844 2.8711 3.14844 3.04687 4.4375-.76953 2.04297-2.27734-2.04297-2.33204-4.4375-.53906v-99.21094h22.1914v91.37891l-2.16406 1.82422-1.07421 4.4414 2.33984 4.4375.89844.90626 4.4375 3.01953 4.17578-3.92578-.23828-4.4375-3.9375-3.375-2.52344-1.06641-1.91406-1.82422v-91.3789h13.3164v111.48437l-3.91015 3.91406-.23829 4.4375 2.96485 4.4375 1.1836 1.1211 1.20702-1.1211 2.98438-4.4375-.20703-4.4375-3.98438-3.91406V311.67187H467.9961v168.65625H227.19141l1.13672-.47656 3.35937-3.96094-3.35938-3.04296-4.4375-.98047-4.4375.1875-4.4375-.21094-3.60156 4.04688 3.60156 3.37109 4.4375.71484 1.64454.35156H144.0039"/></g><path fill="#50fcfc" fill-rule="evenodd" d="M148.4375 450.36328l-.89844-1.10156.89844-1.01172 4.4375.60547.48047.40625 3.96094.52734 1.52734-.52734 2.91016-2.625 4.4375-.67969 4.4375-.07812v1.83593l-4.4375.27344-3.76172 1.27344-.67578.10156-4.4375 1.5586-3.28125 2.77734-.26172 4.4375 1.14453 4.4375 1.59766 4.4414.80078.8047 4.4375 1.60156 4.4375.04687 4.4375-.85547 4.4375-1.5664 4.4414.51953 3.19922-.55079 1.23828-.08203 4.4375-.85937 4.4375-.42188 4.4414-2.28125 4.4375.4297 2.72657-1.22657-2.72656-3.64844-.45313-.78906.1875-4.4375-4.17187-.14844-.875.14844-3.5664.48828-4.4375.58984-4.4375-.18359-1.88282-.89453-2.55469-2.07422-4.1289-2.36328-.3125-.21875-4.4375-1.32813v-1.83593l4.4375.5039 4.13672 2.8789.30468.17188 4.4375 1.98047 4.4375.32031 4.4375-.66406 4.4414-.33594 4.4375-.07421 3.9297 3.03906.35547 4.4375.15234.20703 2.92578 4.23047-2.04688 4.4414-.8789.57422-.74219-.57421-3.69531-1.06641-4.4375-.24219-4.4414.76953-4.4375.39063-.73829.14844-3.69922 2.55859-4.4375.32422-4.4414-.1836-4.4375.6211-4.4375.35156-4.4375.01172-4.4375-.60156-3.0625-3.08204-.58985-4.4414-.63672-4.4375-.15234-2.66797-.92969-1.76953-3.50781-3.33594"/><path fill="#00e8fc" fill-rule="evenodd" d="M154.91797 462.57422l-1.14453-4.4375.26172-4.4375 3.28125-2.77735 4.4375-1.55859.67578-.10156 3.76172-1.27344v2.69922l-4.4375.1914-4.4375 1.9336-1.04688.88672-1.2539 4.4375 1.99218 4.4375.3086.69531 3.80468 3.7461.63282.27734 4.4375.14453 1.42187-.42188 3.01563-.53906 4.4375-.57812 4.4414.07812 4.4375-.51562 4.4375-.70703 4.4375-.46875 2.71094-1.71094-2.1289-4.4375-.58204-.19531-4.4375-.07032-4.4375-1.14453-4.4375-1.84375-2.5039-1.1836-1.9375-1.15233-4.4375-1.66797-4.4375-.19141v-2.69922l4.4375-.27344 4.4375 1.32813.3125.21875 4.1289 2.36328 2.55469 2.07422 1.88281.89453 4.4375.1836 4.4375-.58985 3.5664-.48828.875-.14844 4.17188.14844-.1875 4.4375.45313.78906 2.72656 3.64844-2.72656 1.22656-4.4375-.42969-4.4414 2.28125-4.4375.42188-4.4375.85937-1.23829.08204-3.19922.55078-4.4414-.51954-4.4375 1.56641-4.4375.85547-4.4375-.04688-4.4375-1.60156-.80078-.80469-1.59766-4.4414"/><path fill="#00d4fc" fill-rule="evenodd" d="M157.00781 462.57422l-1.99219-4.4375 1.25391-4.4375 1.04688-.88672 4.4375-1.9336v1.51954l-2.7422 1.30078-1.6953 1.70703-1.0547 2.73047 1.0547 2.21484 1.45703 2.22266 2.98047 2.96094 4.4375.11718 4.4375-.39062 4.4375-.48828 4.4414-.00781 4.4375-.77344 4.4375-.5625 4.4375-.51563.53906-.33984-.53906-.91797-4.4375-.91797-4.4375-1.44531-2.8711-1.15625-1.5664-.50781-4.4414-2.22657-4.4375-1.375-1.34766-.32812-3.08984-.72656-4.4375-.57422v-1.51953l4.4375-.19141 4.4375.1914 4.4375 1.66798 1.9375 1.15234 2.5039 1.1836 4.4375 1.84374 4.4375 1.14453 4.4375.07032.58203.1953 2.12891 4.4375-2.71094 1.71095-4.4375.46875-4.4375.70703-4.4375.51562-4.4414-.07812-4.4375.57812-3.01563.53906-1.42187.42188-4.4375-.14453-.63282-.27735-3.80468-3.74609-.3086-.69531"/><path fill="#00c4fc" fill-rule="evenodd" d="M157.3164 460.35156l-1.05468-2.21484 1.05469-2.73047 1.6953-1.70703 2.7422-1.30078v2.0625l-3.64063 3.67578 2.3711 4.4375 1.26953 1.26172 4.4375.09375 4.4375.11719 4.4375-.40235 4.4414-.08984 4.23828-.98047-4.23828-2.21094-4.09375-2.22656-.34765-.17578-4.4375-1.5625-4.4375-.9336-4.4375-1.0039v-2.0625l4.4375.57422 3.08984.72656 1.34766.32812 4.4375 1.375 4.4414 2.22657 1.5664.5078 2.8711 1.15626 4.4375 1.44531 4.4375.91797.53906.91797-.53906.33984-4.4375.51563-4.4375.5625-4.4375.77344-4.4414.0078-4.4375.48829-4.4375.39062-4.4375-.11718-2.98047-2.96094-1.45703-2.22266"/><path fill="#00b8fc" fill-rule="evenodd" d="M160.48438 462.57422l-2.3711-4.4375 3.64063-3.67578 4.4375 1.0039v2.58594l-.42578.08594.42578.59765 2.21484 3.83985 2.22266.25781 3.62109-.25781-3.6211-1.96875-3.94921-2.46875-.48828-.08594v-2.58594l4.4375.9336 4.4375 1.5625.34765.17578 4.09375 2.22656 4.23828 2.21094-4.23828.98047-4.4414.08984-4.4375.40235-4.4375-.1172-4.4375-.09374-1.26953-1.26172"/><path fill="#00a8fc" fill-rule="evenodd" d="M166.1914 458.73438l-.42577-.59766.42578-.08594.48828.08594 3.94922 2.46875 3.62109 1.96875-3.6211.25781-2.22265-.25781-2.21484-3.83985"/><g clip-path="url(#c)"><path fill="#50fcfc" fill-rule="evenodd" d="M215.01563 479.26172l-3.60157-3.3711 3.60156-4.04687 4.4375.21094 4.4375-.1875v1.41797l-4.4375.01171-4.4375.6836-1.69921 1.91015 1.69922 1.58985 4.4375 1.17187 4.4375.65625 4.4375-2.52343.7578-.89454-.7578-.6875-4.4375-1.91796v-1.41797l4.4375.98047 3.35937 3.04296-3.35938 3.96094-1.13671.47656h-6.09375l-1.64453-.35156-4.4375-.71484"/></g><path fill="#50fcfc" fill-rule="evenodd" d="M215.01563 440.6836l-2.85938-.30079 2.85938-.71094.3203.71094-.3203.30078"/><path fill="#00e8fc" fill-rule="evenodd" d="M215.01563 477.48047l-1.69922-1.58985 1.69922-1.91015 4.4375-.6836v2.07032l-1.5625.52344 1.5625.55468 4.4375-.23828.48828-.3164-.48828-.2422-4.4375-.28124v-2.07031l4.4375-.01172 4.4375 1.91796.7578.6875-.7578.89454-4.4375 2.52343-4.4375-.65625-4.4375-1.17187"/><path fill="#50fcfc" fill-rule="evenodd" d="M219.45313 417.36328l-2.44922-3.60937 2.44922-2.46485 3.97656-1.97265.46094-.48829.74218.48829 2.29688 4.4375-3.03906 2.34765-4.4375 1.26172"/><path fill="#00d4fc" fill-rule="evenodd" d="M219.45313 476.44531l-1.5625-.55469 1.5625-.52343 4.4375.28125.48828.24219-.48828.3164-4.4375.23828"/><path fill="#50fcfc" fill-rule="evenodd" d="M232.76563 469.21484l-2.33594-2.19921 2.33594-2.5547 1.97265 2.5547-1.97266 2.19921m44.38672-40.4375l-1.71093-1.70703 1.71093-1.78906 4.4375.91406.83204.875-.83204.83203-4.4375.875m4.4375 34.11329l-.38671-.31641.38671-1.3164.54297-3.1211 3.89453-2.90235 2.51172-1.53515 1.92578-1.54297v3.90234l-3.4414 2.07813 3.4414 1.78515 2.16016-1.78515-2.16016-2.07813v-3.90234l4.4375.44922 1.08594 1.09375.53906 4.4375-1.625 1.625-3.70703 2.8125-.73047.73047-4.4375 1.78906-4.4375-2.20313"/><path fill="#00e8fc" fill-rule="evenodd" d="M290.46484 459.92188l-3.4414-1.78516 3.4414-2.07813 2.16016 2.07813-2.16016 1.78515"/><path fill="#50fcfc" fill-rule="evenodd" d="M308.21875 416.80078l-3.14844-3.04687 3.14844-2.8711v2.51953l-.38672.35157.38672.375 1.08203-.375-1.08203-.35157v-2.51953l4.4375.53906 2.04297 2.33204-2.04297 2.27734-4.4375.76953"/><path fill="#00e8fc" fill-rule="evenodd" d="M308.21875 414.1289l-.38672-.375.38672-.35156 1.08203.35157-1.08203.375"/><path fill="#50fcfc" fill-rule="evenodd" d="M329.51172 413.7539l-2.33985-4.4375 1.07422-4.4414 2.16407-1.82422 1.91406 1.82422 2.52344 1.0664v1.72657l-4.4375.20703-.66016 1.4414.66016 1.04298 1.39453 3.39453 3.04297 2.53125 2.6914-2.53125-.76953-4.4375-1.92187-1.64844v-1.72656l3.9375 3.375.23828 4.4375-4.17578 3.92578-4.4375-3.01953-.89844-.90625"/><path fill="#00e8fc" fill-rule="evenodd" d="M330.41016 410.35938l-.66016-1.04297.66016-1.44141 4.4375-.20703v5.32031l-.2461.76563.2461.20703.22265-.20703-.22265-.76563v-5.32031l1.92187 1.64844.76953 4.4375-2.6914 2.53125-3.04297-2.53125-1.39453-3.39454"/><path fill="#00d4fc" fill-rule="evenodd" d="M334.84766 413.96094l-.2461-.20703.2461-.76563.22265.76563-.22265.20703"/><path fill="#50fcfc" fill-rule="evenodd" d="M342.54297 435.94531l-2.96485-4.4375.23829-4.4375 3.91015-3.91406v.85938l-3.05078 3.05468-.45312 4.4375 3.5039 3.88281 3.53906-3.8828-.42578-4.4375-3.11328-3.0547v-.85937l3.98438 3.91406.20703 4.4375-2.98438 4.4375-1.20703 1.1211-1.1836-1.1211"/><path fill="#00e8fc" fill-rule="evenodd" d="M343.72656 435.39063l-3.5039-3.88282.45312-4.4375 3.05078-3.05469v1.4297l-1.625 1.625-.80469 4.4375 2.4297 2.6953 2.45702-2.6953-.80078-4.4375-1.65625-1.625v-1.4297l3.11328 3.0547.42579 4.4375-3.53907 3.8828"/><path fill="#00d4fc" fill-rule="evenodd" d="M343.72656 434.20313l-2.42969-2.69532.8047-4.4375 1.625-1.625v1.42578l-.19532.19922-1.16406 4.4375 1.35937 1.5039 1.3711-1.5039-1.17188-4.4375-.19922-.19922v-1.42578l1.65625 1.625.80078 4.4375-2.45703 2.69531"/><path fill="#00c4fc" fill-rule="evenodd" d="M343.72656 433.01172l-1.35937-1.5039 1.16406-4.4375.19531-.19923v3.59375l-.28515 1.04297.28515.3164.28516-.3164-.28516-1.04297v-3.59375l.19922.19922 1.17188 4.4375-1.3711 1.5039"/><path fill="#00b8fc" fill-rule="evenodd" d="M343.72656 431.82422l-.28515-.3164.28515-1.04298.28516 1.04297-.28516.3164"/><g clip-path="url(#d)"><path fill="#fff" fill-opacity="0" fill-rule="evenodd" d="M467.9961 480.32813H468V311.67188h-.0039H468v168.65625h-.0039"/></g><g clip-path="url(#e)"><path fill="none" stroke="#000" stroke-linecap="round" stroke-linejoin="round" stroke-miterlimit="10" stroke-width=".5" d="M143.95313 476.8164l.09375 7.02735"/></g><g clip-path="url(#f)"><path fill="none" stroke="#000" stroke-linecap="round" stroke-linejoin="round" stroke-miterlimit="10" stroke-width=".5" d="M143.96484 477.83594l1.07422-.58985"/></g><g clip-path="url(#g)"><path fill="none" stroke="#000" stroke-linecap="round" stroke-linejoin="round" stroke-miterlimit="10" stroke-width=".5" d="M155.47266 477.33594l3.68359 5.98437"/></g><path fill="none" stroke="#000" stroke-linecap="round" stroke-linejoin="round" stroke-miterlimit="10" stroke-width=".5" d="M156.01172 478.20703l.61719-1.0586"/><g clip-path="url(#h)"><path fill="none" stroke="#000" stroke-linecap="round" stroke-linejoin="round" stroke-miterlimit="10" stroke-width=".5" d="M167.9961 478.0039l5.26952 4.65235"/></g><path fill="none" stroke="#000" stroke-linecap="round" stroke-linejoin="round" stroke-miterlimit="10" stroke-width=".5" d="M168.76172 478.67969l.28516-1.1914"/><g clip-path="url(#i)"><path fill="none" stroke="#000" stroke-linecap="round" stroke-linejoin="round" stroke-miterlimit="10" stroke-width=".5" d="M180.61328 479.21875l6.66406 2.22266"/></g><path fill="none" stroke="#000" stroke-linecap="round" stroke-linejoin="round" stroke-miterlimit="10" stroke-width=".5" d="M181.58203 479.53906l-.20312-1.20703"/><g clip-path="url(#j)"><path fill="none" stroke="#000" stroke-linecap="round" stroke-linejoin="round" stroke-miterlimit="10" stroke-width=".5" d="M193.76953 479.91797l6.98047.82031"/></g><g clip-path="url(#k)"><path fill="none" stroke="#000" stroke-linecap="round" stroke-linejoin="round" stroke-miterlimit="10" stroke-width=".5" d="M194.78516 480.03906l-.44532-1.14453"/></g><g clip-path="url(#l)"><path fill="none" stroke="#000" stroke-linecap="round" stroke-linejoin="round" stroke-miterlimit="10" stroke-width=".5" d="M207.15625 481.14453l6.83594-1.6289"/></g><g clip-path="url(#m)"><path fill="none" stroke="#000" stroke-linecap="round" stroke-linejoin="round" stroke-miterlimit="10" stroke-width=".5" d="M208.15234 480.90625l-.8125-.92188"/></g><g clip-path="url(#n)"><path fill="none" stroke="#000" stroke-linecap="round" stroke-linejoin="round" stroke-miterlimit="10" stroke-width=".5" d="M225.98438 483.14844l-4.1875-5.64063"/></g><g clip-path="url(#o)"><path fill="none" stroke="#000" stroke-linecap="round" stroke-linejoin="round" stroke-miterlimit="10" stroke-width=".5" d="M240.3164 481.96484l-6.22265-3.26953"/></g><g clip-path="url(#p)"><path fill="none" stroke="#000" stroke-linecap="round" stroke-linejoin="round" stroke-miterlimit="10" stroke-width=".5" d="M249.97656 483.80078l1.08985-6.9414"/></g><g clip-path="url(#q)"><path fill="none" stroke="#000" stroke-linecap="round" stroke-linejoin="round" stroke-miterlimit="10" stroke-width=".5" d="M264.85938 480.32813l-.01954-.19922-.05859-.19141-.09375-.17578-.46094-.3789-.1914-.0586-.19922-.01953-.19922.01953-.1914.0586-.46094.3789-.09375.17578-.0586.1914-.01953.19923.01953.19921.0586.19141.09375.17969.46093.375.1914.0586.19923.01952.19922-.01953.1914-.0586.46094-.375.09375-.17968.0586-.1914.01952-.19922"/></g><g clip-path="url(#r)"><path fill="none" stroke="#000" stroke-linecap="round" stroke-linejoin="round" stroke-miterlimit="10" stroke-width=".5" d="M277.95703 483.75l-1.60937-6.83984"/></g><g clip-path="url(#s)"><path fill="none" stroke="#000" stroke-linecap="round" stroke-linejoin="round" stroke-miterlimit="10" stroke-width=".5" d="M291.3125 483.73828l-1.6914-6.82031"/></g><g clip-path="url(#t)"><path fill="none" stroke="#000" stroke-linecap="round" stroke-linejoin="round" stroke-miterlimit="10" stroke-width=".5" d="M303.0625 483.76953l1.4375-6.8789"/></g><g clip-path="url(#u)"><path fill="none" stroke="#000" stroke-linecap="round" stroke-linejoin="round" stroke-miterlimit="10" stroke-width=".5" d="M320.47656 479.375l-6.76172 1.90625"/></g><g clip-path="url(#v)"><path fill="none" stroke="#000" stroke-linecap="round" stroke-linejoin="round" stroke-miterlimit="10" stroke-width=".5" d="M330.02734 483.82031l.76563-6.98437"/></g><g clip-path="url(#w)"><path fill="none" stroke="#000" stroke-linecap="round" stroke-linejoin="round" stroke-miterlimit="10" stroke-width=".5" d="M340.32813 481.21875l6.79687-1.78125"/></g><g clip-path="url(#x)"><path fill="none" stroke="#000" stroke-linecap="round" stroke-linejoin="round" stroke-miterlimit="10" stroke-width=".5" d="M354.21094 478.2461l5.66015 4.16796"/></g><path fill="none" stroke="#000" stroke-linecap="round" stroke-linejoin="round" stroke-miterlimit="10" stroke-width=".5" d="M355.03516 478.85156l.17968-1.21484"/><g clip-path="url(#y)"><path fill="none" stroke="#000" stroke-linecap="round" stroke-linejoin="round" stroke-miterlimit="10" stroke-width=".5" d="M368.54297 477.32031l3.625 6.01953"/></g><path fill="none" stroke="#000" stroke-linecap="round" stroke-linejoin="round" stroke-miterlimit="10" stroke-width=".5" d="M369.07031 478.19531l.6289-1.05078"/><g clip-path="url(#z)"><path fill="none" stroke="#000" stroke-linecap="round" stroke-linejoin="round" stroke-miterlimit="10" stroke-width=".5" d="M383.54297 476.8164l.2539 7.02344"/></g><path fill="none" stroke="#000" stroke-linecap="round" stroke-linejoin="round" stroke-miterlimit="10" stroke-width=".5" d="M383.58203 477.83984l1.0625-.61718"/><g clip-path="url(#A)"><path fill="none" stroke="#000" stroke-linecap="round" stroke-linejoin="round" stroke-miterlimit="10" stroke-width=".5" d="M397.05469 476.8164l-.14063 7.02344"/></g><path fill="none" stroke="#000" stroke-linecap="round" stroke-linejoin="round" stroke-miterlimit="10" stroke-width=".5" d="M397.03516 477.83984l1.09375-.55468"/><g clip-path="url(#B)"><path fill="none" stroke="#000" stroke-linecap="round" stroke-linejoin="round" stroke-miterlimit="10" stroke-width=".5" d="M407.85156 477.8125l4.89844 5.03516"/></g><path fill="none" stroke="#000" stroke-linecap="round" stroke-linejoin="round" stroke-miterlimit="10" stroke-width=".5" d="M408.5625 478.54297l.375-1.16797"/><g clip-path="url(#C)"><path fill="none" stroke="#000" stroke-linecap="round" stroke-linejoin="round" stroke-miterlimit="10" stroke-width=".5" d="M420.2461 479.33594l6.74218 1.98437"/></g><path fill="none" stroke="#000" stroke-linecap="round" stroke-linejoin="round" stroke-miterlimit="10" stroke-width=".5" d="M421.22656 479.625l-.2461-1.19922"/><g clip-path="url(#D)"><path fill="none" stroke="#000" stroke-linecap="round" stroke-linejoin="round" stroke-miterlimit="10" stroke-width=".5" d="M434.5625 477.73438l4.73828 5.1914"/></g><path fill="none" stroke="#000" stroke-linecap="round" stroke-linejoin="round" stroke-miterlimit="10" stroke-width=".5" d="M435.2539 478.48828l.41016-1.15625"/><g clip-path="url(#E)"><path fill="none" stroke="#000" stroke-linecap="round" stroke-linejoin="round" stroke-miterlimit="10" stroke-width=".5" d="M449.88281 476.83594l.73047 6.98828"/></g><path fill="none" stroke="#000" stroke-linecap="round" stroke-linejoin="round" stroke-miterlimit="10" stroke-width=".5" d="M449.98828 477.85156l1.01563-.6875"/><g clip-path="url(#F)"><path fill="none" stroke="#000" stroke-linecap="round" stroke-linejoin="round" stroke-miterlimit="10" stroke-width=".5" d="M465.1289 477.1836l-3.13671 6.28906"/></g><path fill="none" stroke="#000" stroke-linecap="round" stroke-linejoin="round" stroke-miterlimit="10" stroke-width=".5" d="M464.67188 478.09766l1.22656-.03125"/><g clip-path="url(#G)"><path fill="none" stroke="#000" stroke-linecap="round" stroke-linejoin="round" stroke-miterlimit="10" stroke-width=".5" d="M142.9414 463.66406l2.1172 6.69922"/></g><g clip-path="url(#H)"><path fill="none" stroke="#000" stroke-linecap="round" stroke-linejoin="round" stroke-miterlimit="10" stroke-width=".5" d="M143.25 464.63672l.85938-.875"/></g><path fill="none" stroke="#000" stroke-linecap="round" stroke-linejoin="round" stroke-miterlimit="10" stroke-width=".5" d="M156.16797 463.6914l2.29297 6.64454m-1.95703-5.67578l.83593-.89844m11.52735.21094l3.52734 6.08203m-3.01562-5.19531l.64843-1.04297m11.95703.28125l3.92188 5.83203m-3.35156-4.98438l.57812-1.08203m14.30078-.35937l-.34765 7.01953m.29687-5.9961l1.10938-.52343m12.11719 6.52343l-.06641-7.02734m11.98047 6.75l2.73437-6.47266m-2.33594 5.53125l-1.22265.10938m18.97266-1.83594l-6.9336-1.13672m5.92578.97266l.39063 1.16016m13.75-2.8125l-6.5664 2.49609m5.60937-2.13281l.92578.80859m13.46094.96094l-6.80079-1.76953m17.0547 4.3828l-.67579-6.99608m.57813 5.97656l-1.02344.67969m14.59765.3203l-1-6.95702m.85547 5.9453l-.99219.72267m15.81641-.21094l-3.72656-5.95703m3.1836 5.08984l-.61329 1.0625m15.08594-.6836l-4.95703-4.98046m4.23828 4.2539l-.36328 1.17579m12.13672.5664l-.4375-7.01172m10.26953 4.80078l6.53125-2.58984m7.08593-.59375l5.92579 3.77734m11.2539-5.28515l-1.80469 6.79297m14.34766-6.90625l-.25781 7.01953m.21875-6l1.10547-.53516m9.98828.23438l4.26172 5.58203m-3.64453-4.76953l.51171-1.1172m11.3125 1.27345l6.00782 3.64453m-5.13282-3.11328l.07032-1.22657m12.76172.16797l5.22656 4.69922m-4.46485-4.01562l.29297-1.19141m12.70703.08984l4.33204 5.53516m-3.69922-4.73047l.4961-1.1211m12.28905.2422l4.12891 5.68359m7.92578-1.69531l6.64453-2.29297"/><g clip-path="url(#I)"><path fill="none" stroke="#000" stroke-linecap="round" stroke-linejoin="round" stroke-miterlimit="10" stroke-width=".5" d="M145.63672 450.58984l-3.27344 6.21875"/></g><path fill="none" stroke="#000" stroke-linecap="round" stroke-linejoin="round" stroke-miterlimit="10" stroke-width=".5" d="M145.16016 451.49219l1.22656-.0039m12.82031-.75l-3.78125 5.92187m3.23047-5.0625l1.22266.09765m13.49609-.1875l-5.49219 4.38282m4.69531-3.7461l1.125.48828m13.66797.29297l-6.85156 1.54688m5.85547-1.32422l.80078.9336m13.59766-.47266l-7.02735.17968m6.00391-.15234l.60547 1.0664m13.40234.48829l-6.36328-2.98438m5.4375 2.55078l.0586 1.22266m13.16796.48047l-4.33593-5.52735m3.70703 4.72657l-.5 1.12109m14.78125-.6211l-5.01172-4.92577m4.28125 4.21093l-.34766 1.17578m15.40235-2.96875l-7.02735.09375m7.02735-.09375l1.17968 2.14844m12.1211-2.41015l-7 .61718m7-.61718l1.33594 2.05859m11.49218.05469l-6.02734-3.61328m5.15234 3.08984l-.0664 1.22266m13.42968.24609l-4.37109-5.5m3.73437 4.69922l-.49218 1.125m14.38281-.27735l-4.25-5.59375m3.63281 4.78125l-.51562 1.11329m12.97265.35546l-1.30078-6.90625m1.11328 5.90235l-.96093.76562m16.1328-.57422l-4.63671-5.28125m18.5664 4.57422l-5.86718-3.86718m19.28906 3.6914L354 451.94141m5.19922 3.0039l-.04688 1.22657M373.66016 452.5l-6.60547 2.39453m5.64453-2.04297l.91015.82032m10.66407-3.4336l-1.20313 6.92188m1.02735-5.91797l1.16406-.3789m9.85547-.14063l3.73828 5.95312m-3.19531-5.08594l.61328-1.0664m11.83593.42578l4.38282 5.4961M408.75 451.75l.48828-1.125m11.40625 1.19922l5.94531 3.7461m-5.9453-3.7461l.17968-2.44531m12.63281 3.80859l6.94922 1.02344m-5.9375-.875l-.41406-1.15625m12.8086 2.46484l6.76562-1.89062m-5.78125 1.61328L447 453.48047m15.5 3.5664l2.125-6.69921"/><g clip-path="url(#J)"><path fill="none" stroke="#000" stroke-linecap="round" stroke-linejoin="round" stroke-miterlimit="10" stroke-width=".5" d="M147.23828 439.01953l-6.47656 2.72656"/></g><path fill="none" stroke="#000" stroke-linecap="round" stroke-linejoin="round" stroke-miterlimit="10" stroke-width=".5" d="M147.23828 439.01953l1.90234 1.55078m-2.84375-1.15234l.94922.77344m13.35938-1.03907l-6.58203 2.46094m6.58203-2.46094l1.83984 1.625m11.63281-1.0664l-6.89453 1.34765m6.89453-1.34765l1.54688 1.90625m11.83203-1.23438h-7.02344m7.02344 0l1.15234 2.16797m-2.17187-2.16797l.57422 1.08594m13.75781-.89062l-7.01562-.39063m7.01562.39063l1.02734 2.23046m-2.05078-2.28515l.51563 1.11328m13.5.22656l-6.375-2.95703m6.375 2.95703l.13672 2.44922m12.85547-1.89062l-5.72657-4.07422m5.72657 4.07422l-.32032 2.43359m12.78125-1.58984L235.19922 437.5m3.42969 4.92969l-.5586 1.08984m15.1914-.9375l-5.48046-4.39844m4.6836 3.75782l-.23048 1.20703m14.88282-1.5039l-6.5625-2.51954m6.5625 2.51953l.29687 2.4336m13.19531-3.07032l-6.91796-1.2461m6.91797 1.2461l.75 2.33594m-1.75782-2.51953l.375 1.16797m13.94531-.96875l-6.91015-1.28125m6.91015 1.28125l.73829 2.33984m-1.7461-2.52734l.73828 2.33984m11.80079.29688l-3.34375-6.1797m3.34375 6.1797l-1.35938 2.04687m14.50781-1.96094l-3.01172-6.34765m2.57422 5.42187l-.73047.98438m15.67579-.98438l-5.39844-4.5m4.61328 3.84375l-.25 1.20313m14.00781-.1875l-4.71094-5.21485m4.02344 4.45704l-.41797 1.15234m15.32031-1.6836l-6.51171-2.64062m5.5664 2.25781l.125 1.21875m14.01563-.5664l-6.26953-3.17578m5.35546 2.71093l.02344 1.22657m12.67188-5.47657l-3.20313 6.2539m2.73438-5.34765l1.22656-.01562m10.73828-1.27344l.4336 7.01563m-.4336-7.01563l2.09375-1.28125m10.26563 1.47656l2.34765 6.625m-2.34765-6.625l1.65625-1.8086m11.5078 1.8672l2.64845 6.5078m-2.26172-5.5625l.78515-.9414m10.40235 4.96485l6.1289-3.4297m7.5625-.54296l5.37891 4.51953m-4.59766-3.86328l.25391-1.19922m13.79297 6.11328l2.34765-6.625m-2.0039 5.66016l-1.21485.1836"/><g clip-path="url(#K)"><path fill="none" stroke="#000" stroke-linecap="round" stroke-linejoin="round" stroke-miterlimit="10" stroke-width=".5" d="M147.03125 425.29297l-6.0625 3.55078"/></g><path fill="none" stroke="#000" stroke-linecap="round" stroke-linejoin="round" stroke-miterlimit="10" stroke-width=".5" d="M147.03125 425.29297l2.08984 1.28906m11.21485-1.3086l-6.04297 3.58985m6.04297-3.58984l2.09765 1.27343m11.4961-.6875l-6.59766 2.41797m6.59766-2.41797L175.7578 427.5m11.69922-.46875l-7.02344.07422m7.02344-.07422l1.17578 2.15234m12.09766-1.5664l-6.9414-1.09766m6.9414 1.09766l.80078 2.32031m12.3711-1.74219l-6.65626-2.2539m5.6875 1.92578l.19922 1.21093m13.13281.57813l-4.75-5.17578m4.0586 4.42578l-.41016 1.15625m13.9414-.03906l-3.80077-5.91016m3.2461 5.05078l-.59767 1.07032m13.96875.05468l-2.80078-6.4414m2.39063 5.5039l-.76172.96094m15.53906-.73047l-4.90625-5.02734m4.1914 4.29687l-.37109 1.16797m14.45704-.49219l-5.01953-4.91796m5.01953 4.91796l-.69141 2.35157m14.19531-2.5625l-5.39844-4.4961m5.39844 4.4961l-.5 2.40234m13.8125-2.39453l-5.39062-4.51172m5.39062 4.51172l-.50781 2.39844m12.67578-1.5l-3.09765-6.3086m2.64843 5.39063l-.71875.9961m14.77735-.2422l-3.6875-5.98047m3.15234 5.11329l-.6211 1.05859m12.5.32812l.25391-7.01953m-.21484 6l-1.10547.53516m16.30469-.0039l-3.58985-6.04298m3.06641 5.16407l-.63672 1.04687M373.5 428.64062l-6.28516-3.14453m5.3711 2.6875l.02734 1.22657m14.57031-2.29297l-7.02734-.09766m6.00781.08203l.5586 1.09375m12.55468-3.78906l-4.58203 5.32422m4.58203-5.32422l2.39454.53906m9.60546-1.2539l-1.94921 6.7539m1.66406-5.76953l1.19922-.2539m12.0703-.8086l-1.28905 6.91016m1.28906-6.91016l2.33984-.73437m10.7461.69921l-.83204 6.98047m.83204-6.98047l2.28515-.88671m-2.40625 1.90234l1.14453-.4414m11.10157-.51173l1.54687 6.85547m-1.54687-6.85547l1.85937-1.60156m-1.63281 2.59766l.92969-.79688m10.20703 5.44532l5.45312-4.4336m-4.66015 3.78906l-1.12891-.47656"/><g clip-path="url(#L)"><path fill="none" stroke="#000" stroke-linecap="round" stroke-linejoin="round" stroke-miterlimit="10" stroke-width=".5" d="M147.07813 412.0625l-6.15625 3.38281"/></g><path fill="none" stroke="#000" stroke-linecap="round" stroke-linejoin="round" stroke-miterlimit="10" stroke-width=".5" d="M147.07813 412.0625l2.05468 1.34375m10.91797-1.85938l-5.47266 4.41016m5.47266-4.41015l2.25781.96484m-3.05468-.32031l1.1289.48046m13.21485-.80078l-5.9336 3.76563m5.9336-3.76563l2.1328 1.21485m11.53517-.48047l-6.64063 2.29297m5.67578-1.95703l.89844.83593m11.2461 3.28516l-2.3711-6.61719m2.02734 5.65235l-.82422.91015m14.32032.10938l-2.04297-6.72657m1.7461 5.7461l-.8711.86719m10.0664-2.34375l6.78907-1.8125m8.58984 4.15625l2.66016-6.50391m-2.66016 6.5039l-2.4414.2461m17.1875.01563l-.20313-7.02344m.17578 6l-1.0664.60937m13.84374.38281l.9297-6.96484m-.79298 5.95313l-1.15234.42968m14.9375.61329l-.28516-7.02344m.24219 6l-1.0586.6211m16.25782-.21095l-3.96875-5.79687m3.39062 4.95312l-.5664 1.08594m13.91406.0664l-2.875-6.41405m2.875 6.41406l-1.50781 1.9375m16.36328-3.27735l-5.95703-3.73437m5.08984 3.1914l-.08984 1.22266m12.82031.61719l-3.05469-6.32813m2.60938 5.40625l-.72266.9922m15.80078-1.17579l-5.6914-4.1211m4.86328 3.52344l-.16797 1.21485m14.88672-1.8789l-6.83985-1.59766m5.84766 1.36718l.3125 1.1836m14.03906-2.33203l-6.92969 1.16406m15-3.60938l3.5625 6.05469m-3.04687-5.17578l.64453-1.04297m12.76172-.1211l2.34766 6.625m-2.34766-6.625l1.65625-1.80859m13.21094 1.6289l-.7539 6.98438m.7539-6.98437l2.27734-.91406m9.9336.96875l1.45312 6.875m-1.45313-6.875l1.88282-1.57422m11.73828 1.52344l.83984 6.97656m-.83984-6.97656l2.01172-1.40235m11.01562 1.44922l1.41406 6.88281m-1.41406-6.88281l1.89063-1.5664m8.84765 3.7578L466.84766 415m-6.57032-2.4961l-.30859-2.43359"/><g clip-path="url(#M)"><path fill="none" stroke="#000" stroke-linecap="round" stroke-linejoin="round" stroke-miterlimit="10" stroke-width=".5" d="M146.98438 398.58594l-5.96875 3.70312"/></g><path fill="none" stroke="#000" stroke-linecap="round" stroke-linejoin="round" stroke-miterlimit="10" stroke-width=".5" d="M146.98438 398.58594l2.12109 1.23437m10.53125-2.01953l-4.64453 5.27344m4.64453-5.27344l2.38672.57031m9.10156-1.41015l-.98828 6.95703m.98828-6.95703l2.3086-.83594m10.11327.82422l.79688 6.98047m-.67969-5.96485l1.01172-.6953M194 401.75l6.51953-2.625m-5.57031 2.2461l-.9375-.79298m15.26953 3.125l2.58984-6.53125m-2.21484 5.58204l-1.21875.13671m12.82813-.11718l5.25-4.66797m10.04296 5.78515l1.29297-6.90625m-1.10547 5.90235l-1.16797.36719m14.92188.69921l.03906-7.02734m-.03125 6.0039l-1.08594.57032m13.76954.39063l1.28906-6.90625m-1.28906 6.90625l-2.34375.73437m14.67968-1.07031l3.2461-6.23047M276 402.64844l-1.22656.00781m14.82031 1.1836l1.7461-6.8047m-1.4922 5.81641l-1.1953.28906m15.6328.77344l-1.0078-6.95312m.85937 5.9414l-.98828.72657m16.48047-.75391l-5.06641-4.8711m4.32813 4.16016l-.33594 1.17969m15.16015-4.09766l-6.60937 2.38282m5.64844-2.03516l.91015.82422m13.26172 1.46875l-6.40234-2.89844m6.40234 2.89844l.15625 2.44922m12.19922-1.1914l-4.48047-5.41407m3.82813 4.6289l-.46875 1.13282m13.21875-3.05469l-.01953-.19922-.0586-.1914-.09375-.17579-.46094-.3789-.1914-.05469-.19922-.02344-.19922.02344-.1914.05469-.45704.3789-.09765.17579-.0586.1914-.01953.19922.01953.19922.0586.1914.09765.1797.45703.375.19141.05859.19922.01953.19922-.01953.1914-.0586.46094-.375.09375-.17969.0586-.1914.01953-.19922m15.7578.58594l-6.92968-1.17188m19.92188-.98437l-6.28516 3.14062m6.28516-3.14062l2 1.42187m10.99609-1.9414l-5.64844 4.18359m4.82813-3.57422l1.10547.52735m11.83593-2.16016l-3.26171 6.22656m3.26171-6.22656l2.45313-.01172m9.07031-.38281l.32422 7.01953m-.32422-7.01953l2.10938-1.2539m11.23828 1.25l.25781 7.02343m-.25781-7.02344l2.1211-1.23047M464.27733 397l-1.42968 6.8789M464.0664 398l1.17968-.34375"/><g clip-path="url(#N)"><path fill="none" stroke="#000" stroke-linecap="round" stroke-linejoin="round" stroke-miterlimit="10" stroke-width=".5" d="M146.88281 385.11328l-5.76562 4.01953"/></g><path fill="none" stroke="#000" stroke-linecap="round" stroke-linejoin="round" stroke-miterlimit="10" stroke-width=".5" d="M146.88281 385.11328l2.1836 1.11719m9.6875-2.3125l-2.875 6.41015m2.875-6.41015l2.4453-.16406m9.15235-.13282l.55469 7.00391m-.55469-7.0039l2.07031-1.32032m-1.98828 2.33985l1.03516-.66016m11.58203-.2539l1.78906 6.79296m-1.78906-6.79297l1.80469-1.66797m12.67578 1.5625l-.54297 7.00391m.54297-7.0039l2.25-.98048m7.54688 3.14063l6.49609 2.6836m-6.4961-2.6836l-.23828-2.4414m13.70313 5.4453l6.19531-3.3203m-5.29297 2.83593l-1.01953-.6836m13.96484 1.90626l5.12891-4.80078m-5.1289 4.80078l-2.32032-.79297m15.11719.07812l6.16406-3.37109m-6.16406 3.3711l-2.05078-1.34766m15.32422 1.26953l6.25-3.21485m-6.25 3.21485l-2.01563-1.40235m15.91016 2.21485l5.08984-4.83985m-5.08984 4.83985l-2.32813-.77344m15.47266.58203l5.42969-4.45703m-5.42969 4.45703l-2.26563-.9414m16.21094 1.54296l4.17188-5.65625m-3.5664 4.83204l-1.21095-.1797m19.10547-.16796l-6.19922-3.3125m5.29688 2.82813l-.0039 1.22656m14.60546-1.92969l-6.96484-.9414m6.96484.9414l.85156 2.30078m-1.86718-2.4375l.42578 1.15235m13.33203.48046l-5.82031-3.93359m5.8203 3.9336l-.2578 2.4414m13.98046-3.25l-6.63671-2.3164m6.63671 2.3164l.3711 2.42578m-1.33594-2.76172l.1836 1.21094m14.27343-2.39063l-6.99219.71485m6.9922-.71485l1.36718 2.03907m-2.38281-1.9336l.67969 1.01954m13.14062-2.625l-5.96875 3.71484m5.96875-3.71485l2.1211 1.23047m9.89062-2.45703l-3.36328 6.16797m3.36328-6.16797l2.45312.02735m10.39454-.23829l-2.4297 6.58985m2.07813-5.63281l1.21485-.16407m11.0625-1.0078l.34765 7.01952m-.29687-5.9961l1.05469-.6289m12.78906-.375l-.8086 6.98047m.69141-5.96484l1.14063-.44922m14.0703.17187l-4.36718 5.50391m3.73438-4.70313l1.20703.22266m14.03906 1.26172l-6.96485.9336"/><g clip-path="url(#O)"><path fill="none" stroke="#000" stroke-linecap="round" stroke-linejoin="round" stroke-miterlimit="10" stroke-width=".5" d="M467.04297 386.65625l1.42969 1.99219"/></g><g clip-path="url(#P)"><path fill="none" stroke="#000" stroke-linecap="round" stroke-linejoin="round" stroke-miterlimit="10" stroke-width=".5" d="M147.08594 372.1289l-6.17188 3.35938"/></g><path fill="none" stroke="#000" stroke-linecap="round" stroke-linejoin="round" stroke-miterlimit="10" stroke-width=".5" d="M147.08594 372.1289l2.04687 1.34766m9.54297-2.91015l-2.71875 6.48046m2.71875-6.48046l2.4414-.22266m-2.83984 1.16797l1.22266-.11328m12.73828-.71485l-3.21484 6.25m3.21484-6.25l2.45313-.03125m-2.92188.94141l1.22656-.01563m14.19141.87891l-6.48438 2.70313m6.48438-2.70313l1.89844 1.5586m-2.83985-1.16407l.94532.77735m12.82422-2.00391l-5.50782 4.36328m5.50781-4.36328l2.2461.98438m-3.05078-.34766l2.25.98047m11.9961-1.44531l-5.76173 4.02343m5.76172-4.02344l2.1836 1.1172m-3.02344-.53126l2.1875 1.11719m-3.02344-.53125l1.08984.5586m14.07422-1.45704l-6.10937 3.47656m6.10937-3.47656l2.07031 1.3125m7.26172 3.8125l1.85547-6.77734m-1.58594 5.79297l-1.1953.26953m18.54296-1.69922l-6.75-1.94922m6.75 1.94922l.50781 2.40234m12.85938-4.15625l-6.85156 1.5625m5.85546-1.33593l.80079.92968m8.79687 2.89454l2.57813-6.53907m-2.20313 5.58594l-1.21875.14063m13.10938.16796l4.67187-5.25m-4.67187 5.25l-2.38282-.57812m16.62891 1.17187l2.8125-6.4375m-2.8125 6.4375l-2.44922.1875m19.20703-.54296l-4.07422-5.72657m4.07422 5.72656l-1.09765 2.19532m15.58984-3.64063l-6.42969-2.83594m6.42969 2.83594l.17969 2.44531m-1.11328-2.85937l.17968 2.44922m14.02344-1.9336l-6.33594-3.03906m6.33594 3.03906l.10156 2.45313m-1.02343-2.89453l.05078 1.22656m14.51562-2.6289l-6.9961.64843m6.9961-.64844l1.34766 2.05079m11.3789-3.69532l-5.8203 3.9375m5.8203-3.9375l2.16797 1.14454m9.5586-2.4336l-2.64063 6.51172m2.25781-5.5625l1.21875-.125m12.44141-.83984l-2.5664 6.54296m2.1914-5.58984l1.21875-.14062m12-.95704l-1.6211 6.83594m1.38282-5.84375l1.1875-.3086m12.94922-.48827l-2.79297 6.44531m2.38672-5.50781l1.22265-.09766m14.35938 1.0664l-6.51563 2.63282m5.57032-2.25l.9375.78906m13.38281-1.01562l-6.63281 2.32031m6.63281-2.32031l1.80469 1.66797m-2.76953-1.32813l.90234.83203m13.4961.72266l-6.8711-1.47266m6.8711 1.47266l.67187 2.35937m-1.67188-2.5703l.33594 1.17968"/><g clip-path="url(#Q)"><path fill="none" stroke="#000" stroke-linecap="round" stroke-linejoin="round" stroke-miterlimit="10" stroke-width=".5" d="M147.3711 359.5l-6.7422 1.98828"/></g><path fill="none" stroke="#000" stroke-linecap="round" stroke-linejoin="round" stroke-miterlimit="10" stroke-width=".5" d="M147.3711 359.5l1.71484 1.75m10.21875-3.65234l-3.97656 5.79296m3.97656-5.79296l2.4375.27734m-3.01563.5664l1.21875.13673m13.44531-.26172l-5.51953 4.35156m5.51953-4.35156l2.2461.99218m-3.05078-.35937l1.125.4961m12.88672-1.25391l-5.3047 4.60546m5.3047-4.60546l2.28906.8789m9.9336-1.72656l-3.1211 6.29688m3.1211-6.29688l2.45312-.07031m10.60156-.04688l-2.59766 6.53125m2.59766-6.53125l2.4375-.26953m-2.8164 1.22266l1.21874-.13672m13.58985-.10156l-4.82813 5.10546m4.82813-5.10546l2.36719.65234m-3.07032.08984l1.1836.32422m13.48047-.24219l-6.1211 3.45313m6.1211-3.45313l2.0664 1.32422m11.51953-.71484l-6.66015 2.23438m5.6914-1.91016l.89063.84375m12.79687-2.25781l-5.46875 4.41406m4.67188-3.76953l1.1289.48047m13.6172.08984l-6.73829 1.98828m6.73828-1.98828l1.71875 1.75m11.07031 1.3086l-5.68359-4.13282m5.6836 4.13281l-.34376 2.4297m-.48437-3.03126l-.33984 2.42969m-.48829-3.03125l-.33984 2.42969m15.3711-1.3125l-5.8047-3.96094m5.8047 3.96094l-.26954 2.4375m-.57422-3.01172l-.26953 2.4375m-.57422-3.01563l-.13671 1.21875m15.0039.1211l-5.53515-4.33204m5.53515 4.33204l-.42969 2.41406m-.375-3.04297l-.42968 2.41406m15.27343-3.54297l-6.98046-.8164m6.98046.8164l.89063 2.28516m11.82812-4.6836l-5.78906 3.98048m18.0664-4.97657l-3.71093 5.96875m3.16797-5.09765l1.22656.08203m14.09766.89062l-6.64844 2.28125m5.67969-1.94922l.89844.83985m13.53515-.5664l-6.94531 1.07421m5.9336-.91797l.73437.98047m12.64844-3.03906l-5.0586 4.875m4.32422-4.16406l1.16406.3789m13.48047-.25781l-6.25 3.21094m6.25-3.21094l2.01563 1.40234m11.20312-1.57812l-6.0586 3.5625m6.0586-3.5625l2.09375 1.28515m11.38672-.96484l-6.38672 2.92578m5.45703-2.5l.97657.74219m13.1953-1.32031l-6.24218 3.23046m6.24219-3.23046l2.01953 1.39453m11.6875.17969l-7.02734.08203"/><g clip-path="url(#R)"><path fill="none" stroke="#000" stroke-linecap="round" stroke-linejoin="round" stroke-miterlimit="10" stroke-width=".5" d="M467.07422 360.45313l1.17969 2.15234"/></g><path fill="none" stroke="#000" stroke-linecap="round" stroke-linejoin="round" stroke-miterlimit="10" stroke-width=".5" d="M466.05078 360.46484l.58985 1.07422"/><g clip-path="url(#S)"><path fill="none" stroke="#000" stroke-linecap="round" stroke-linejoin="round" stroke-miterlimit="10" stroke-width=".5" d="M147.51172 347.02734l-7.02344.30079"/></g><path fill="none" stroke="#000" stroke-linecap="round" stroke-linejoin="round" stroke-miterlimit="10" stroke-width=".5" d="M146.48828 347.07031l.6211 1.0586m12.77343-3.34766l-5.13672 4.79297m5.13672-4.79297l2.32031.79688m-3.0664-.09766l1.16016.39844m12.6953-1.3047l-4.72265 5.20704m4.72266-5.20703l2.375.60156m-3.0625.15625l1.1875.30078m12.33203-1.42187l-3.75781 5.9375m3.7578-5.9375l2.44532.1836m8.16797-.63282l1.64844 6.83203m-1.64844-6.83203l1.83594-1.6289m11.2539 1.6914l2.09766 6.70703m-2.09766-6.70703l1.72266-1.7461m-1.41797 2.72266l.86328-.875m14.02344-.16406l-1.65625 6.83203m1.65625-6.83203l2.375-.60547m-2.61719 1.60156l1.1875-.30469m13.39453-.26171l-3.70703 5.97265m3.16797-5.10156l1.22266.08203M254 346.6797l-6.95703.9961m6.95703-.9961l1.44531 1.98047m11.07422-3.7461l-5.3711 4.53125m4.58985-3.875l1.14063.45703m12.4375-1.61328l-4.33203 5.53125m4.33203-5.53125l2.41797.42969m10.93359 5.07422l-4.40235-5.48047m4.40235 5.48047l-.96875 2.2539m.32812-3.05078l-.96875 2.25391m15.35938-1.875l-5.27344-4.64453m5.27344 4.64453l-.5664 2.38672m-.20313-3.0625l-.28125 1.19531m14.89843-1.32812l-6.33984-3.02735m6.33984 3.02735l.10547 2.45312m-1.02734-2.89453l.05469 1.22656m14.4414-1.52344l-6.85547-1.55078m6.85547 1.55079l.64453 2.36718m12.1797-5.07031l-5.875 3.85547m15.9453 1.57422l.61329-7m15.6953 5.76172l-5.375-4.52735m4.59376 3.8711l-.25781 1.19921m15.01171-1.72265l-6.6875-2.16797m6.6875 2.16797l.42579 2.41406m13.05859-3.5625l-7.02734.1289m7.02734-.1289l1.1914 2.14844m11.89454-3.32813l-6.57032 2.48829m6.57032-2.48829l1.84375 1.6211m-2.79688-1.25781l.92188.80859m13.3086-1.26953l-6.4961 2.6836m6.4961-2.6836l1.89062 1.5664m-2.83594-1.17578l1.89062 1.5625m12.4336-1.78515l-6.6211 2.34765m6.6211-2.34765l1.8125 1.65625m-2.77344-1.31641l.90234.83203m13.46094-.88672l-6.79687 1.77735m6.79687-1.77735l1.66406 1.80469m-2.65234-1.54688l.83203.90235m13.51563-.98047l-6.88282 1.41797"/><g clip-path="url(#T)"><path fill="none" stroke="#000" stroke-linecap="round" stroke-linejoin="round" stroke-miterlimit="10" stroke-width=".5" d="M467.0039 346.46875l1.56641 1.89063"/></g><path fill="none" stroke="#000" stroke-linecap="round" stroke-linejoin="round" stroke-miterlimit="10" stroke-width=".5" d="M466 346.67578l.78516.94531"/><g clip-path="url(#U)"><path fill="none" stroke="#000" stroke-linecap="round" stroke-linejoin="round" stroke-miterlimit="10" stroke-width=".5" d="M147.40234 334.73438l-6.80468-1.7461"/></g><path fill="none" stroke="#000" stroke-linecap="round" stroke-linejoin="round" stroke-miterlimit="10" stroke-width=".5" d="M147.40234 334.73438l.57813 2.38671m12.35156-5.05859l-6.03516 3.60156m6.03516-3.60156l2.09766 1.26953m-2.97656-.7461l1.05078.63282m12.625-1.82813l-4.9961 4.94141m4.9961-4.9414l2.34375.73046m-3.07032-.01171l1.17188.36718m11.9961-1.72656l-3.25 6.22656m3.25-6.22656l2.45312-.01953m-2.92578.92578l1.22656-.01172m10.69922-1.28515l.47656 7.0078m-.47656-7.0078l2.08203-1.29688m-2.01563 2.3164l1.04297-.64843m11.03906-.08985l2.8047 6.44532m-2.8047-6.44531l1.52735-1.92188m10.5 2.88281l5.3789 4.52344m-5.3789-4.52344l.51562-2.39844m.26953 3.0586l.25391-1.20313m12.07031.81641l5.79297 3.97656m-5.79297-3.97656l.27735-2.4375m17.72265 7.44922l-3.57812-6.04688m3.0586 5.16797l-.64063 1.04688m15.09375-.6289l-4.8125-5.125m4.11328 4.3789l-.39844 1.16015m15.07031-1.2539l-6.125-3.44531m6.125 3.4453l-.05859 2.45313m12.15625-1.1875l-3.6914-5.97656m3.6914 5.97656l-1.23828 2.1211m.69922-2.98829l-.61719 1.0586m15.35156-.96485l-5.45312-4.42968m5.45312 4.42969l-.47265 2.41015m-.32032-3.05469l-.23828 1.20313m15.13281-2.71875l-7.02734-.11328m7.02734.11328l1.1172 2.1875m10.92577-4.94922l-4.48047 5.41406m3.82813-4.625l1.19922.2461m13.02734-.79688l-5.0039 4.9336m4.27734-4.21485l1.17187.36719m12.46875 4.19922l-4.19921-5.63281m3.58984 4.8125l-.52344 1.10937m14.41797-.26563l-4.13672-5.67968m4.13672 5.67969l-1.07422 2.20703m.46875-3.03125l-.53515 1.10156m15.18359-.99219l-5.59766-4.25m5.59766 4.25l-.39063 2.42188m-.42187-3.04297l-.19531 1.21094m14.48047-.81641l-5.91016-3.79688m5.91016 3.79688l-.20313 2.44531m14.07422-4.47265l-7.02344.2578m6-.21874l.61719 1.0586m13.70312-.58595l-6.98437-.76953m6.98437.76953l.90625 2.28125m-1.92187-2.39062l.45312 1.14062m13.78907-2.28515l-6.8086 1.74219m6.8086-1.7422l1.65234 1.8125m-2.64453-1.55859L441 335.0586m12.57812-2.30859l-6.66406 2.22266m6.66406-2.22266l1.78125 1.6914m-2.75-1.36718l1.77735 1.6914m-2.7461-1.36718l.88672.84375m14.38282-1.4414l-6.69532 2.125"/><g clip-path="url(#V)"><path fill="none" stroke="#000" stroke-linecap="round" stroke-linejoin="round" stroke-miterlimit="10" stroke-width=".5" d="M466.91016 332.80078l1.7539 1.71485"/></g><path fill="none" stroke="#000" stroke-linecap="round" stroke-linejoin="round" stroke-miterlimit="10" stroke-width=".5" d="M465.9375 333.10938l1.7539 1.71484"/><g clip-path="url(#W)"><path fill="none" stroke="#000" stroke-linecap="round" stroke-linejoin="round" stroke-miterlimit="10" stroke-width=".5" d="M147.5039 320.82813l-7.0078-.5625"/></g><path fill="none" stroke="#000" stroke-linecap="round" stroke-linejoin="round" stroke-miterlimit="10" stroke-width=".5" d="M147.5039 320.82813l.97266 2.2539m11.66406-4.625l-5.64843 4.17969m5.64844-4.17969l2.21484 1.0586m11.61719-.0547l-6.6836 2.17579m6.6836-2.17578l1.76562 1.70312M173 319.77734l.88281.85157m12.8711-2.19141l-5.6172 4.21875m5.6172-4.21875l2.22265 1.03906m-3.03906-.42578l1.10938.51953m12.29687-1.85156l-4.16406 5.66016m4.16406-5.66016l2.42578.35547m-3.03125.46875l2.42578.35547m11.38672-1.25781l-3.94922 5.8125m3.94922-5.8125l2.4375.26562m-3.01172.58203l1.21875.13281m11.5664-1.47656l-1.74218 6.8086m1.74219-6.8086l2.38281-.57812m-2.63672 1.5664l1.1914-.28906m9.16798.08203l4.67578 5.2461m-3.9961-4.48438l.4297-1.15234m11.63671 4.98828l5.8125-3.94922m-5.8125 3.94922l-2.16797-1.14453m3.01563.5703l-1.08594-.57421m18.28516 2.17578l-3.64844-6.0039m3.11719 5.1289l-.625 1.05469m13.82422.1289l-2.35547-6.62109m2.35547 6.6211l-1.65625 1.80859m16.64062-3.0586l-5.6914-4.12109m5.6914 4.1211l-.33984 2.42968m-.48829-3.03125l-.16796 1.21485m14.86328-1.78907l-6.80078-1.76953m6.80078 1.76953l.57031 2.38672m12.85938-3.35547l-7.02735.16797m7.02735-.16797l1.20312 2.13672m11.74219-3.625l-6.28516 3.14453m6.28516-3.14453l2 1.42188m-2.91406-.96485l1 .71094m13.49609-.4414l-6.82031 1.6914m6.8203-1.6914l1.64063 1.82421m9.58594 2.27344l-2.64453-6.50781m2.64453 6.50781l-1.57031 1.88672m16.01172-2.61719l-4.89453-5.04297m4.89453 5.04297l-.7539 2.33594m14.76171-3.28125l-6.28125-3.15625m5.36719 2.69922l.02734 1.22656m11.60156 1.125l-1.08203-6.94531m.92188 5.9336l-.98047.73827m14.60937.2461l-1.39062-6.88672m1.1875 5.88281l-.94922.78125m14.72656.16016l-1.91015-6.76172m1.91015 6.76172l-1.76953 1.69531m16.23828-7.88672l-4.21484 5.6211m18.48828-4.52735l-6.13281 3.4336m6.13281-3.4336l2.0625 1.32813m-2.95313-.82813l1.03125.66406m13.0625-1.34765l-5.91015 3.80078"/><g clip-path="url(#X)"><path fill="none" stroke="#000" stroke-linecap="round" stroke-linejoin="round" stroke-miterlimit="10" stroke-width=".5" d="M466.51563 318.64844l2.14062 1.19531"/></g><g clip-path="url(#Y)"><path fill="none" stroke="#000" stroke-linecap="round" stroke-linejoin="round" stroke-miterlimit="10" stroke-width=".5" d="M465.65625 319.19922l2.14063 1.19922"/></g><g clip-path="url(#Z)"><path fill="#00f" fill-rule="evenodd" d="M215.14453 480.96484h8.61719v-10.14843h-8.61719v10.14843"/></g><path fill="azure" fill-rule="evenodd" d="M216.97656 472.65234h.83203v2.82032h3.28516v-2.82032h.83594v6.47657h-.83594v-2.91407h-3.28516v2.91407h-.83203v-6.47657"/><path fill="#00f" fill-rule="evenodd" d="M290.59375 472.08594h8.6211V461.9414h-8.6211v10.14453"/><path fill="azure" fill-rule="evenodd" d="M292.42969 463.77344h.83203v2.82422h3.28515v-2.82422h.83204v6.48047h-.83204v-2.91797h-3.28515v2.91797h-.83203v-6.48047"/><path fill="#ff3030" fill-rule="evenodd" d="M309.04297 436.57813h7.6914v-10.14454h-7.6914v10.14454"/><path fill="azure" fill-rule="evenodd" d="M310.875 428.26563h.83203v5.74218h3.19531v.73828H310.875v-6.48046"/><path fill="#00f" fill-rule="evenodd" d="M383.80078 436.57813h8.61719v-10.14454h-8.61719v10.14454"/><path fill="azure" fill-rule="evenodd" d="M385.63281 428.26563h.83203v2.82421h3.28907v-2.82421h.83203v6.48046h-.83203v-2.91406h-3.28907v2.91406h-.83203v-6.48046"/><path fill="#00f" fill-rule="evenodd" d="M201.82813 401.07422h8.61718v-10.14844h-8.61719v10.14844"/><path fill="azure" fill-rule="evenodd" d="M203.66016 392.76172h.83203v2.82031h3.28906v-2.82031h.83203v6.47656h-.83203v-2.91406h-3.28906v2.91406h-.83203v-6.47656"/><path fill="#00f" fill-rule="evenodd" d="M370.48438 401.07422h8.62109v-10.14844h-8.6211v10.14844"/><path fill="azure" fill-rule="evenodd" d="M372.3164 392.76172h.83594v2.82031h3.28516v-2.82031h.83203v6.47656h-.83203v-2.91406h-3.28516v2.91406h-.83593v-6.47656"/><path fill="#ff3030" fill-rule="evenodd" d="M260.21875 365.5664h7.69531v-10.14452h-7.69531v10.14453"/><path fill="azure" fill-rule="evenodd" d="M262.05469 357.2539h.83203v5.73829h3.19531v.74219h-4.02734v-6.48047"/><path fill="#ff3030" fill-rule="evenodd" d="M193.64453 361.1289h7.69531v-10.14843h-7.6953v10.14844"/><path fill="azure" fill-rule="evenodd" d="M195.47656 352.8164h.83594v5.73829h3.1914v.73828h-4.02734v-6.47656"/><path fill="#ffffe0" fill-rule="evenodd" d="M350.6211 366.59375h22.17968v-10.1914H350.6211v10.1914"/><path fill-rule="evenodd" d="M354.1211 358.23438h.5078v6.29687h-.78515v-4.49219h-1.39063v-.55469l.5586-.0664.2539-.05078.23047-.08985.20313-.14453.17187-.20703.14454-.29687.10546-.39454m4.8125 0l.23047.01954.21875.05468.20703.08985.19532.1211.18359.14843.17188.17578.30468.42188.24219.49218.17969.54688.10937.57812.03906.59375-.03906.58985-.10937.58593-.17969.5547-.24219.5-.30469.42968-.17187.17969-.1836.15234-.1953.125-.20704.08984-.21875.0586-.23047.01953-.23046-.01953-.21875-.0586-.20704-.08984-.1953-.125-.1836-.15234-.17188-.1797-.30469-.42968-.24218-.5-.17969-.55469-.10938-.58593-.03906-.58985h.83203l.03125.5625.07813.5039.1289.44532.16016.3711.1914.30078.21094.22265.22266.13672.22656.04688.22657-.04688.22265-.13672.21094-.22265.1914-.30079.16016-.37109.1289-.44531.08204-.5039.02734-.5625-.02734-.5625-.08203-.5-.1289-.4375-.16016-.36329-.19141-.29297-.21094-.21484-.22265-.13281-.22657-.04297-.22656.04297-.22265.1328-.21094.21485-.1914.29297-.16017.36328-.1289.4375-.07813.5-.03125.5625h-.83203l.03906-.59375.10938-.57812.17969-.54688.24219-.49219.30468-.42187.17188-.17578.1836-.14844.1953-.1211.20704-.08984.21875-.05468.23046-.01954m5.08985 0h.51172v6.29688h-.78907v-4.49219h-1.38671v-.55469l.55859-.0664.2539-.05078.22657-.08985.20703-.14453.17187-.20703.14063-.29687.10547-.39454m2.82422 2.17579h.78906l.01953-.31641.0586-.28516.09765-.2539.14063-.21485.18359-.17578.22265-.1289.26563-.07813.30469-.02734.23828.01953.22656.0625.20313.10156.17968.14063.14844.17187.11328.20703.07031.23438.02735.26562-.02344.26953-.0664.22266-.10938.1914-.15625.17188-.19922.16406-.2461.16407-.63671.39062-.53516.3125-.4375.3164-.34765.32423-.26563.33593-.1875.35157-.125.37109-.07031.39063-.01953.42187h4.21094v-.74219h-3.33204l.08204-.28515.11328-.23438.14843-.20312.1875-.1797.23047-.17187.27735-.17578.71875-.41797.41406-.20312.34765-.23047.28125-.2539.21875-.26563.16407-.27735.10937-.28515.0664-.28516.01954-.28125-.04297-.38281-.1211-.34766-.1875-.30859-.25-.26172-.30468-.21484-.34375-.15625-.3789-.09766-.41016-.03515-.4336.03125-.39843.10156-.35547.16406-.30469.23438-.2461.30468-.1875.375-.11327.44531-.04297.51954"/><path fill="#ffffe0" fill-rule="evenodd" d="M414.60938 441.25h22.17968v-10.1914h-22.17969V441.25"/><path fill-rule="evenodd" d="M418.10938 432.89063h.5078v6.29296h-.78906v-4.48828h-1.38671v-.55469l.55859-.0664.2539-.05469.23048-.08594.20312-.14453.17188-.20703.14453-.29687.10546-.39454m4.8125 0l.23047.01954.21875.05468.20704.08985.1953.1211.1836.14843.17188.17578.30078.42188.2461.49218.17968.54688.10937.57812.03907.58985-.03907.59375-.10937.58593-.17969.5547-.2461.5-.30077.42968-.17188.17969-.1836.15234-.1953.125-.20704.08984-.21875.0586-.23046.01953-.23047-.01953-.21875-.0586-.20704-.08984-.1953-.125-.1875-.15234-.16798-.1797-.30468-.42968-.2422-.5-.17968-.55469-.11328-.58593-.03516-.59375h.83204l.02734.5664.08203.5039.1289.44142.16016.375.1914.30078.21095.22265.22265.13672.22656.04688.22657-.04688.22265-.13672.21094-.22265.1914-.30079.16016-.375.12891-.4414.07813-.5039.03125-.56641-.03125-.5586-.07813-.5-.1289-.4375-.16016-.36719-.1914-.28906-.21095-.21484-.22265-.13281-.22656-.04297-.22657.04297-.22265.1328-.21094.21485-.1914.28906-.16016.3672-.12891.4375-.08203.5-.02735.55859h-.83203l.03516-.58985.11328-.57812.17969-.54688.24219-.49219.30468-.42187.16797-.17578.1875-.14844.19531-.1211.20704-.08984.21875-.05468.23046-.01954m5.08985 0h.51172v6.29297h-.78906v-4.48828h-1.38672v-.55469l.55859-.0664.2539-.05469.22657-.08594.20312-.14453.17579-.20703.14062-.29687.10547-.39454m2.82422 2.17579h.78906l.01953-.31641.0586-.28516.09765-.2539.14063-.21485.17968-.17578.22657-.1289.26171-.07813.3086-.02734.23828.01953.22266.0625.20703.10156.17969.14063.14843.17187.11328.20703.07032.23438.02343.26562-.01953.26953-.0664.22266-.10938.1914-.15625.17188-.19922.16406-.25.16407-.63281.39062-.53516.3125-.4375.3164-.34765.32423-.26563.33593-.1875.35157-.125.36718-.07031.39454-.01953.41796h4.21094v-.73828h-3.33204l.08204-.28515.11328-.23438.14844-.20312.1875-.1797.23046-.17187.27735-.17578.71875-.41797.41406-.20312.34766-.23047.28125-.2539.21875-.26563.16406-.27735.10937-.28515.06641-.28516.01953-.28125-.04297-.38281-.1211-.34766-.1875-.30859-.25-.26172-.30468-.21484-.34375-.15625-.38281-.09766-.40625-.03515-.4336.03125-.39843.10156-.35547.16406-.30469.23438-.2461.30468-.1875.375-.11718.44531-.03906.51954"/></g></defs><use xlink:href="#aa"/></svg>