<svg xmlns="http://www.w3.org/2000/svg" role="img" xmlns:xlink="http://www.w3.org/1999/xlink" viewBox="142.45 309.95 326.84 171.84"><defs><clipPath id="a"><path d="M144 311.67188h1v168.65625h-1zm0 0"/></clipPath><clipPath id="b"><path d="M144 311.67188h324v168.65625H144zm0 0"/></clipPath><clipPath id="c"><path d="M211 471h21v9.32813h-21zm0 0"/></clipPath><clipPath id="d"><path d="M467 311.67188h1v168.65625h-1zm0 0"/></clipPath><clipPath id="e"><path d="M144 476h1v4.32813h-1zm0 0"/></clipPath><clipPath id="f"><path d="M155 476h4v4.32813h-4zm0 0"/></clipPath><clipPath id="g"><path d="M168 477h6v3.32813h-6zm0 0"/></clipPath><clipPath id="h"><path d="M181 477h6v3.32813h-6zm0 0"/></clipPath><clipPath id="i"><path d="M193 478h8v2.32813h-8zm0 0"/></clipPath><clipPath id="j"><path d="M193 480h3v.32813h-3zm0 0"/></clipPath><clipPath id="k"><path d="M207 477h7v3.32813h-7zm0 0"/></clipPath><clipPath id="l"><path d="M220 479h8v1.32813h-8zm0 0"/></clipPath><clipPath id="m"><path d="M226 479h2v1.32813h-2zm0 0"/></clipPath><clipPath id="n"><path d="M233 479h8v1.32813h-8zm0 0"/></clipPath><clipPath id="o"><path d="M239 480h2v.32813h-2zm0 0"/></clipPath><clipPath id="p"><path d="M247 478h7v2.32813h-7zm0 0"/></clipPath><clipPath id="q"><path d="M260 478h8v2.32813h-8zm0 0"/></clipPath><clipPath id="r"><path d="M275 476h4v4.32813h-4zm0 0"/></clipPath><clipPath id="s"><path d="M290 476h1v4.32813h-1zm0 0"/></clipPath><clipPath id="t"><path d="M300 478h8v2.32813h-8zm0 0"/></clipPath><clipPath id="u"><path d="M316 476h2v4.32813h-2zm0 0"/></clipPath><clipPath id="v"><path d="M329 479h3v1.32813h-3zm0 0"/></clipPath><clipPath id="w"><path d="M341 477h5v3.32813h-5zm0 0"/></clipPath><clipPath id="x"><path d="M355 476h4v4.32813h-4zm0 0"/></clipPath><clipPath id="y"><path d="M368 477h5v3.32813h-5zm0 0"/></clipPath><clipPath id="z"><path d="M382 476h4v4.32813h-4zm0 0"/></clipPath><clipPath id="A"><path d="M394 477h5v3.32813h-5zm0 0"/></clipPath><clipPath id="B"><path d="M409 476h2v4.32813h-2zm0 0"/></clipPath><clipPath id="C"><path d="M422 476h3v4.32813h-3zm0 0"/></clipPath><clipPath id="D"><path d="M434 477h5v3.32813h-5zm0 0"/></clipPath><clipPath id="E"><path d="M449 476h2v4.32813h-2zm0 0"/></clipPath><clipPath id="F"><path d="M461 477h5v3.32813h-5zm0 0"/></clipPath><clipPath id="G"><path d="M144 463h1v8h-1zm0 0"/></clipPath><clipPath id="H"><path d="M144 463h2v2h-2zm0 0"/></clipPath><clipPath id="I"><path d="M144 451h4v5h-4zm0 0"/></clipPath><clipPath id="J"><path d="M144 438h4v5h-4zm0 0"/></clipPath><clipPath id="K"><path d="M144 424h4v6h-4zm0 0"/></clipPath><clipPath id="L"><path d="M144 410h3v7h-3zm0 0"/></clipPath><clipPath id="M"><path d="M144 397h3v7h-3zm0 0"/></clipPath><clipPath id="N"><path d="M144 384h3v6h-3zm0 0"/></clipPath><clipPath id="O"><path d="M144 371h4v6h-4zm0 0"/></clipPath><clipPath id="P"><path d="M144 358h4v5h-4zm0 0"/></clipPath><clipPath id="Q"><path d="M144 345h4v4h-4zm0 0"/></clipPath><clipPath id="R"><path d="M466 345h2v3h-2zm0 0"/></clipPath><clipPath id="S"><path d="M144 333h4v2h-4zm0 0"/></clipPath><clipPath id="T"><path d="M466 332h2v2h-2zm0 0"/></clipPath><clipPath id="U"><path d="M144 319h4v3h-4zm0 0"/></clipPath><clipPath id="V"><path d="M466 318h2v3h-2zm0 0"/></clipPath><clipPath id="W"><path d="M465 318h3v3h-3zm0 0"/></clipPath><g id="X" clip-path="url(#clip1)"><path fill="#fff" fill-opacity="0" fill-rule="evenodd" d="M0 0h1000v1000H0zm0 0"/><path fill="#d3d3d3" fill-opacity="0" fill-rule="evenodd" d="M162.15234 355.86719l-.23437.29297.0586.23437.11718.17188.17578.23437.29297.34766.11328.0586.11719-.17188.0586-.23438.17577-.17578.46485-.17578h.69922l.23437.29297.28906.8164.0586.17579.17578.23046.35156.23438.69922.69922.17188.17578.23437.34765.23438.41016.28906.58203.41015.46485.23047.23437.23438.17578.11719.23047.17578.29297.17187 1.16406v.23438l.0586.28906.05859.11719.11719.11719.34765.41015.11719.17188.17578.17578.17578.23437.11719.17188.17188.35156.05859.23438.23437.40625.23438-.0586-.17578.17578-.0586.92969h-.58203l-.23437-.11328-.34766.11328-.11719.11719-.05859.29297-.0586.17578-.11718.17187-.46484.29297-.0586.23438-.0586.11328v.64453l.0586.17187v.41016l.0586.0586v.40624l.05859.40625.11719.17579.05859.05859.23047.64062-.0586.29297v.69922l-.05859.58203v.23438l-.0586.23047-.05468.35156v1.92187l.05469.1172h.42578l-.36719.11718-.02344.35156.89063 1.16797 1.74219.53906 1.33984.35938v.53906l.08984.8086.53516.71484 1.51953.26953.89063-.08594.08984 1.16406.53516.1797 1.16015-.1797 2.05469-.98437 1.16016-.36328 1.8789-.17578 1.69531-.1797-.17968.71876-1.51563.08594-1.25.08984-.80469.26953-1.07421.8086.26953.71875.53515.89843-.17968.625-.26563.8086.26563 1.07812.625.89844.80468.17969 1.25-.1797-.26562.72267.09766.5039.05468.29297v.17188l.0586.29296v.40625l.17578.1172.35156.11718h.40625l.29297-.17578.11328-.11719.0586-.11719.11718-.23047.0586-.17578.35156-.46484.23047-.17578.17578-.0586.17578.0586.0586.17578.11718.98828.05469.46875.0586.17188.11718.23437.17578.0586.8164.05859h.28907l.11719.23437.05859.40625.0586.35156v1.10547l.11718.29297.11719.34766.28906.69922.17578.35156.58203.7539.35157.17579.17187.0586.46875.23437.64063.46484.34765.23438.29297.17578.29297.05468.23047.0625.8164.34766.29297.17578.11328.17188.35157.35156.11719.17578.52343.64063v.28906l.0586.35156v.34766l.05859.35156.0586.28906.11718.0586.17188.05859h.17578l.58203.23437.17578.1172.17578.28905.17578.23438.11328.23437.29297.23047.11719.11719v.41016l.0586.05468.28906.23438.23437.11719.0586.11718.11718.17188.0586.11719.23047.23437.05859.17578.23437.0586.1172.05859-.1172.11328-.05859.11719v.11719l-.11719.29296-.11719.28907v.58203l.17579.11719.11718.05859.0586.11719.11719.11719.11328.05859.17578.34765.0586.35157.05858.40625v.17578l-.05859.17578-.11719.69922v.17187l.1172.17579.29296.29296h.40625l.17578.1172.11719.17187.11719.29296v.23438h-.52735l-.23047-.23438h-.23437l-.17578.0586-.0586.69922.0586.34765.11719.17579.17578.41015.11718.23047.28907.46875.17578.05469h.52344l.23437.0586.75781.64062.0586.29296v.23438l.05859.0586.23047.34765v.35156l-.11719.17188v.29297l.29297.28906.29297.17578.17187.0586.29297.17577.29297.1172.58203.40624.28906.23438.29297.17578.21875.16015.01563.01172.23047.17579.64062.52343.17578.23438.1172.17578.17577.17578.11328.17188v.64062l.1172.17578.46874.11719.58203.11719.23438.05859.23047.11328.29297.11719.11328.0586.58593.35156.28907.17187.17578.0625.17578.05469.17578.0586.69922.35155.28906.17579.23438.05468.28906.17578.23437.1172.64063.40624.29297.11719.17187.0586.23438.05859.41015.05859.23047.0586.23438.11718.0586.17188-.41017.17578.46875.0586.0586.29296.11328.23438.17578.05468.23438.0586.17578.05859.40625.11719.64062.23437.11719.17188.0586.23437v.17578l-.0586.1172-.0586.40624.23438.23438.11719.05859.34766.11719.64062.23047.17578.11718.28906.1172.17578.17577.23438.46485.58203 1.10546.17578.17579.34766.17578.17578.11719.35156.11718 1.04688.52344.23437.0586.46485.11327.29297.0586.46484.17578.75781.58203.23438.23438.34765.46484.17578.17578.28907.23438.8164.69921.29297.17579.28906.28906.29297.17578.29297.28906.69531.64063.17578.17578.29297.23437.28907.23438.46875.28906.64062.58203.34766.23438.23437.29297.34766.34765.35156.46485.9336.99218.34765.40625.11719.17579.23437.05859.11328.11719.64454.17578.23047.11328.23437.0586.29297.17577.23047.1172.9336.69921.40624.40625.23438.17578.40625.17578.23437.11719.8164.34766.34766.23437.23438.11719.29297.28906.23047.11719.7578.35156.35157.17188.23047.05859.29297.11719.23437.0586.8711.17577h.8164l.46875.23047.17188.0586.875.69921.46484.1172.29297.05858.17578.0586.23047.0586.46875.05859.34766.05859.35156.0586.40625.05859h.29297l.17187.0586v.23046l.17578.17578h.29297l.34766.0586.35156.05859.69922.11719h.64063l.46484-.23438.29297-.17578.17187-.11719.41016-.17187.28906-.17578.9336-.46485.46875-.29297.52343-.29296.46485-.17188.46484-.17578 1.05078-.46485.28906-.11718.41016-.11719.28906-.11719.52735-.17578 1.51562-.69922.58203-.34765.28907-.0586.29297-.0586.34765-.11718.875-.23047.35156-.11719h.11329l.23437-.05859.875-.23437.23438-.0586h.8125l.35156-.0586.8164-.11718.17188-.0586.35156-.05468.29297-.0586.23047-.05859.8164-.17578.17579-.0586h.34765l.23438-.05859.46484-.11718.75781-.17188.23438-.0586h.34765l.41016-.11718.28906-.0586 1.28516-.05859h.28906l.41016-.0586.23047-.05858h.17578l.875-.1172h.40625l.41015-.11718h.34766l.35156-.11328.8711-.0586h1.75l1.04687.28907.41016.11719.28906.11718.35156.11719.28907.11719 1.05078.17187.28906.0586h.29297l.29297.05859.17187.0586.41016.05859.17187.0586.1172.05858h.11718l.11719.0586.35156.0586h.11328l.41016.0664 1.92187.39453 1.92578.39453 1.51953.44922 1.69532.71875 2.14453.80469 1.60547-.71875 1.42968-.80469 1.16016-1.07813 1.25-.44921 3.03516-.71875 1.875-.35938 2.14453-1.34765 2.23437-1.25391 2.5-1.25781 1.69531-.44922 1.78516-.17969 1.16016-.26953.625.53906 1.33984-.26953.71485-.98828.98437-1.34375.44531-.17969.80469-.35937 1.875-.53907 1.78516-.44921 1.25-.26954 1.16015-.08984 1.69922-.08984 1.96094-.26954 1.25-.08984h.53906l.625-.08984h.89063l2.14453-.17969 2.41015-.17969 2.58985-.08984 1.69531.17969 1.60938.08984 1.42968.35938 1.16016.71875 1.875.98828 1.16015 1.52734.26563.71484.6289.08985.35548.89844.53515.53906.53516 1.52734 1.07422.35938h.53515l-.80469.53515.08985 1.70703.71484 2.69532.89063.80468.89453.98829.71484 1.2578 1.78516.53907 1.51953-.17969.35547 1.34375 1.60937-.80469.98047-.53906.26953.26953.31641-.21484.21875-.14453.80078.44922.44922-.35938h.35547l.53515-.26953.53907-.71875.53515-.26953.625-.98828 1.16016.44922.83984.3711 1.39454.61718 1.6953-.17969h1.60548l1.78515.08985.17969-1.70704.53516-1.34375.80468.26954.4922.84765.40233.40625-.08984.53906v.35938l.71485.44922.71093-.26953h1.42969l.35938.98828.4453 1.25781.71485 1.34375 1.25.6289 1.69531.62891.71485-.17969.17969-.53906.98046-.08984.44922.35937.08594 1.25782-.26563.6289-.53515.17969v.53906l.71484.98438.26563.53906.98437.98828.80078 1.07813-.26562.35937-.08985.89844-.625 2.33203-.35546 2.0664-.08985 1.79298-.17969.71875-.08984.53906v1.4375l-.98047 1.88281-.35937 1.70703-.53516.89844-.80469 1.16797-.26562.53906 2.05469 1.2539.08593.35938-.35546.53906-.08985-.17968v.80859l.08985 1.4375-.44532.71484-1.07422.09375-.26562.71485.53515.89844.8047.71875 1.16015.80859 1.33984.26953.44531.35938-.35546.44921-1.78907-.08984-1.25-.44922-.71484-.71875-.625-.08984-.17578 3.58984-.1875 1.3086h89.35937V311.70313h-55.26953v49.08203l.76172.125 3.28906.54296 2.02344 2.83594v2.7539l2.35156.33204 2.34766.33203h4.05078l-1.3789 4.16016-2.02344.70703-2.02344.70312-.54297.34375-2.59375 1.6172-.1875.11718-2.02344-2.07813-.73046-2.74218-2.67188-2.07813-1.375-3.5-.0664-.08203-1.95704-2.67188 2.75-1.41796v-49.08204H294.42187v91.41407l.1172.03125.1328.01172.07422.07421.10547.04688.08985.0586.08593.05859.08985.0586.29687.29687.0586.08984.03125.11719.02734.11719.01563.13671-.03125.1172-.0586.08983-.0586.08594-.04296.10547-.04688.10156-.02734.1211v.14453l.17578.26953.14844.14844.07422.08594.07422.07421.04296.10547.0625.08985.0586.08593.04297.10547.0586.08985.04687.10156.04296.10547.0586.08594.11719.17968.07421.07422.0625.08594.0586.08984.04297.10547.0586.08985.05858.08593.0625.08985.0586.08984.04297.10156.11719.17969.07421.07422.0586.08594.07422.07421.08984.0586.10547.04687h.14844l.1328-.01562.13282.01562.10156-.04687.07422-.07422.04688-.10156-.01563-.13281v-.14844l-.04687-.10547-.02735-.11719-.04687-.10156-.02735-.1211-.04296-.10156-.0625-.08984-.04297-.10156-.04297-.10547-.03125-.11719-.01563-.13281-.01171-.13672.08593-.0586.0586-.08593.12109-.03125.04297.10547.01562.1328v.1172l.0586.10156.0586.08984.08983.0586.14844.14843.0586.08985.04296.10547-.01171.10156.08593.0586.10547.04687.08594.0586.08984.05858.07422.07422-.11719.02735-.10546.04687-.08594.0586-.07422.07421-.0586.08985-.0625.08594-.02734.12109-.04687.10156-.04297.10547-.03125.11719-.01172.13281-.01563.13281v.14844l.02735.11719.04687.10547.04297.10156.0586.08984.07421.07422.08985.0586.07422.07421.08984.0586.0586.08984.04296.10547.04688.10156.11719.03125.1328.01563h.14845l.11718-.03125.10547.04297.04297.10547.04688.10156.02734.1211L299.5 410l.02734.11719.03125.1211.02735.11718.10547.04297.10156.04687.13281-.01562.14844.14844.0625.08593.07422.07422.07031.07422.08984.0625.10547.04297.10156.04297.1172.03125.13671.01562.11719-.03125.07422-.07422.02734-.11718-.01172-.13282-.03125-.12109-.02734-.11719.04297-.10547h.11719l.08984.0625.11719.02735h.14843l.13282.01562h.14843l.13282.01563.1328-.01563h.14845l.1328-.01562.13282-.01172.13672.01172.11719-.02735.13281-.01562.1914-.0586-.05859.17579-.01562.1328-.02735.1211-.01562.13281-.0586.08594-.1328.01563-.10548.04687-.10546.04297-.1172.03125-.11718.02735-.26563.03125h-.14843l-.13281.01562-.07422.07422.05859.08594.14844.14843.11719.1797.07421.0703.08985.0625.08984.0586.08594.0586.08984.05858.10156.04297.10547.0625.10547.04297.08594.0586.10547.04687.10156.04297.17969.11719.0586.08984-.04298.10156-.04687.10547.01562.13281.22266.22266.0586.08985.04296.10156.03125.1211.04297.10155.01563.13282.03125.11718.01171.13672.03125.11719.14844.14844.10156.04297.10547.04296.1172.03125.1328.01563.13672.01563h.11719l.11719-.03125.08984-.0586.04297-.10547.04688-.10156.04296-.10547.03125-.11719.01172-.1328v-.14845l-.01172-.1328-.01562-.13282-.03125-.11719-.04297-.10547-.04688-.10547-.04296-.10156-.04297-.10547-.01563-.13281.01563-.13281.02734-.11719.03125-.11719.02735-.1211.04687-.10155.08984-.0586.08594-.0625.07422-.07422.08984-.05859.22266-.22266.0586-.08593.07421-.07422.11719-.17969.0586-.08594v-.14844l-.07423-.07421-.10156-.04688-.10547-.04297-.10156-.04297-.0586-.08984-.04687-.10547-.02734-.11719.08984-.05859.11719-.03125.10156-.04297.17969-.11719.14844-.14843.01172-.13282-.01172-.10546-.08985-.0586-.1328.01563h-.14845l-.1328.01562-.13282-.01562-.1211-.03125-.08593-.0586-.07422-.07422-.0586-.08984-.0625-.08594-.11718-.17969-.0586-.08593.03125-.1211.08594-.05859.1211-.03125.05859-.08594v-.1211l-.03125-.11718-.0586-.08984-.05859-.08594-.04687-.10547-.02735-.11719-.01562-.1328.0586-.08985.07421-.07422.08984-.0586.1172-.17968.07421-.07422.0586-.08594.14843-.14844.1211-.03125.1328-.01562.13282.01562.07422.07422.04297.10547.01562.13281-.03125.1172-.11719.03124-.1328.01172-.14844.14844-.04297.10547-.04688.10156-.02734.1211-.03125.11718v.14844l.03125.11719.04297.10546.05859.08985.07422.07031.07422.07422.11719.03125.12109.02734.11719-.02734.1328-.01563h.1172l.08984.0586.07422.07422.04687.10546.0586.08594.10156.04688.13281.01562.10547.04297.08594.0586-.01172.10546-.07422.07422-.17969.11719-.05859.08984-.08984.0586-.07032.07422-.07421.07421-.0625.08985-.02735.11719-.01562.1328.01562.13282-.01562.13281v.14844l.01562.13281.02735.1172.03125.12108.07421.07422.08985.0586.08594.0586.08984.05858.11719.03125v.08594l-.10157.04688-.08984.0586-.26563.03124-.11718.02735h-.14844l-.10547.04296-.10156.04688-.0586.08984-.0625.23438-.01171.13281-.03125.1211-.01563.1328v.29298l-.01172.1328.01172.13673.01563.1328.1328.01563.13282.01172.1211.03125.08593.0586.07422.07421.04688.10547.04296.10157.01563.1328v.44532l-.01563.13281v.44532l.03125.26562.02735.11719.01562.13281.03125.11719.08594.21094.03125.26562v.14844l-.03125.11719-.02734.11718-.03125.1211-.02735.11719-.03125.11718-.03125.1211-.01171.1328-.01563.13282.08984.0586.1172-.03125.10155.01562.04688.10547-.03125.26562v.44141l-.04297.10547-.04688.10547-.04296.10156-.04297.10547-.0586.08594-.03125.12109-.04296.11719-.03125.11719-.01563.1328.01563.13282.05859.08984.10547.04688.08594.0586.05859.08593-.01172.13672-.03125.11719-.04297.10156v.44531l-.01562.13281v.14844l-.03125.11719-.04297.10547-.02735.11719-.04687.10546-.04297.10157-.03125.12109-.02734.11719-.03125.13281-.03125.11719-.02735.11719-.04297.10546-.03125.1172-.03125.12108-.01171.13282-.01563.13281v.29688l.02734.11718v.14844l.04688.39844.02734.11719.0586.08984.12109.03125h.14844l.13281-.01563.0586.08985v.11719l-.0586.08984-.08984.0586-.10157.04296-.10546.04688-.08985.05859-.08594.0586-.13671.01562-.1172-.03125-.1328-.01563-.10157.04688-.0625.08594-.01172.13671-.01562.13282-.03125.11719-.02735.11718-.01562.13281-.03125.1211v.29687l.01563.13282.03125.11718v.14844l.01171.13281v.14844l-.02734.11719-.04688.10156-.02734.1211-.03125.11718-.0586.08985-.07421.07421-.10156.04297-.10547.04688-.11719.02734-.1211.03125-.10156-.04687.0586-.08594.10547-.04688.02734-.11718.03125-.11719.02734-.1211.03125-.11718v-.14844l.01563-.13281-.03125-.11719-.04297-.10547-.10547.01563-.07422.07422-.10156.04296-.08984.0625-.07422.07422-.04297.10157-.01563.1328-.03125.1172L304.25 426l-.03125.11719-.02734.11719-.03125.12109-.02735.11719-.03125.11718-.04297.10547-.08984.0586h-.08984l-.1172-.03125-.03124-.08594.01562-.13672-.03125-.11719v-.14844l-.01171-.1328v-.14844l-.0625-.23438-.02735-.1211-.04297-.10156-.04687-.10546-.0586-.08594-.05859-.08985-.04297-.10546-.0625-.08594-.14844-.14844-.0703-.07422-.10548-.04687-.10547-.04297-.10156-.04297-.29687-.29688-.08985-.07421-.08594-.0586-.10546-.04297-.08985-.0625-.08594-.0586-.10546-.04296-.08985-.0586-.08594-.0625-.07421-.0703-.10547-.04688-.08594-.0586-.10547-.04296-.08984-.0625-.10156-.04297-.10547-.04297-.08594-.0586-.10547-.04687-.10547-.04297-.10156-.04687-.08985-.0586-.10156-.04297-.10547-.04296-.08984-.0625-.11719-.02735-.13281-.01562-.13281.01562H299.75l-.13281.01563-.11719-.03125-.08984-.0586-.07422-.07422-.08985-.05859-.10156-.04688h-.14844l-.12109-.02734-.10156-.04297-.07422-.07422-.11719-.17968-.08984-.0586-.10156-.04297-.08985-.0625-.10547-.04296-.08984-.0586-.08594-.0586-.10547-.04687-.0586-.08594-.05858-.08984-.04297-.10547-.04688-.10156-.07422-.07422-.08594-.0586-.07421-.07421-.08985-.0586-.22265-.22265-.04297-.10547-.03125-.26563.10547-.04296h.14453l.10547.04296.07421.07422.08985.0586.08594.0586.10546.04687.08985.05859.14844.14844.0703.07422.14845.14843.0625.08594.07421.07422.08594.0586.07422.07421.08985.0625.08984.0586.08594.05859.26953.17578.10156.04688.10547.04296.10156.04297.04688-.07421.05859-.08594.07422-.07422.07031-.07422.10547.04297.07422.07422.0586.08984.04296.10156.04688.10547.04296.10547.1211.02735.11719-.02735.07421-.08984.04297-.10547.0586-.08985.07422-.07421.10546-.04297.1172-.02735.1328.01172.08985.0586.14844.14843.05859.08985.04297.10547.04687.10156.04297.10547.04297.10156.10547.04688.10547.04296.13281.01563.08594-.0586.0586-.08984.07421-.07422.10547-.04297.11719.02735.10547.04687.10156.04297.10547.04297.10156.04688.17969.11718v.11719l-.01563.13281.01563.13281.01562.13672.0586.08594.10156.04688.1211.02734.11718.03125h.14844l.11719-.03125.05859-.08984.17969-.1172.05859-.08983.07422-.07422.0586-.08594.11718-.17969.17969-.11719.11719.03125.08984.0586.04297.07422-.01563.1328v.1172l.08985.05859h.14843l.13282-.01563.1328-.01171.26563-.03125.10547-.04297.11719-.03125.1211-.02735.07421-.07421.07031-.07422.0625-.08985-.01562-.10547-.04688-.10156-.10156-.04297-.10547-.01562-.11718.02734-.26563.03125h-.14844l-.07421-.07422-.08985-.0586-.11719-.03124-.11718-.02735-.13282-.01562h-.14843l-.13282.01563h-.29687l-.10547-.04688-.14844-.14844-.04297-.10156-.05859-.08984.22266-.22266.08593-.0586.10547-.04296.11719-.03125.13281-.01563.13281.01563.13672.01562.10157.04297.1328-.01172.08985-.0625.10156-.04297.0625-.08984-.04687-.10156-.08984-.0586-.1172-.03125-.10155-.04296-.0586-.08985-.0625-.08984v-.11719l.01563-.13281.10547-.04688.07421-.07031v-.1211l-.08984-.05859-.03125-.11719.08985-.05859.07421-.07422.04297-.10547.0586-.08984.04687-.10156.01563-.13281v-.14844l-.04688-.10547-.04297-.10156-.08984-.0586-.13281-.01562-.10157-.04297-.13671-.01563-.1172-.03125h-.4453l-.13282-.01562-.13281-.01172-.13281-.01563-.11719-.03125h-.14844l-.13281-.01562-.13281-.01172-.26563-.03125-.1211-.04297-.08593-.0586-.07422-.07421v-.14844l.01172-.13281.10547-.04688.10156-.04296.13281-.01563h.15235l.13281-.01562h.29297l.1211.03125.10156.04296.08984.0586.23438.0625.12109-.04688.08984-.05859.10156-.04297.13282-.01562.10547.04296.10156.04688.13281.01172.1211-.02735h.14453l.12109-.03125.11719-.02734.10547-.04687.07421-.07422.08594-.0586.14844-.14843.0586-.08594.04687-.10547.02734-.11719.01563-.10547-.10156-.04296-.08985-.0586-.11719-.03125-.10546-.04297-.08985-.0625-.07422-.08594-.07422-.07421-.10156-.04297-.10547-.04688-.10156-.04297-.0586-.08984-.04687-.10156-.08594-.21094-.0625-.08594-.05859-.08984-.07422-.07422-.08594-.0586h-.26953l-.11719.03126-.08984.05859-.10156.04297-.13281.01562-.10547-.01562-.02735-.11719-.0625-.08984-.11718-.03125-.10157-.04297-.14843-.14844-.03125-.11719-.01563-.10546.07422-.07422.17969-.1172.11719-.02733.11718-.03125.13672.01562.10156.04297.10547.04297.10156.04687.10547.04297.1172.03125.1328.01563.1172.02734.1328.01563.10547-.01563.08985-.0586-.07422-.07421-.10547-.04297-.07422-.07422-.07422-.08984-.14844-.14844-.08593-.0586-.08985-.05859-.07422-.07422-.08984-.0586-.10156-.04687-.1211-.02734-.10156-.04688-.10547-.04296-.11719-.03125-.10156-.04297-.1211-.03125h-.14843l-.11719.03125-.10546.04297-.08594.0625-.17969.11718-.08594.0586-.08984.0586-.10547.04687-.08594.05859-.10547.04297-.10156.04297-.10547.04687-.07422.07422-.05859.08985-.0586.08593-.04687.10547-.0586.08594-.07421.07422-.13281-.01172-.1172-.03125h-.11718l-.07422.07422-.08984.0586-.07422.07421-.08984.0586-.08594.05859-.10547.04687-.10156.04297-.13672.01563-.10156-.04297-.14844-.14844-.10547-.04688h-.08594l-.10547.04688-.10156.04297-.1211.03125-.11718-.03125-.07422-.07422v-.11719l.03125-.1211.07422-.0703.0586-.08985.07421-.07422.11719-.03125.10547-.04296h.29297l.13281-.01563.13672-.01563.10156-.04296.08985-.0586.10156-.04687.08984-.0586.13281-.01171.08985.05859.13281.01172.08984-.0586.08594-.05859.10547-.04297.08984-.0586.08594-.0625.08985-.05859.14843-.14843.0586-.08594.05859-.08985.10547-.04296.13281-.01563.11719.02735.1211.03125.05859-.0586.05859-.08984.03125-.26563.02734-.11719.10547.01172.13281.01563.10157-.04297.08984-.0586.0586-.08984.07421-.07422.0586-.08984.04687-.10156.01172-.13281-.01172-.13282-.04687-.10547-.14844-.14843-.0586-.08985-.05859-.08594-.04297-.10546v-.44532l.01563-.1328v-.14845l.01172-.1328-.0586-.0586-.08984.0586-.10156-.04298-.17969-.11719-.08594-.05859-.0625-.08984-.0586-.08985-.07421-.07421-.08594-.0586-.1211.03125-.10155.01172-.10547.04688-.08594.05859-.10547.04297-.14844.14844-.08984.05859-.08594.0586-.08984.0625-.10547.04296-.13281.01563v-.1211l.10547-.04297.11718-.03125.07422-.0703.04297-.10548v-.14844l-.02734-.11718-.14844-.14844-.13281-.01563h-.14844l-.11719.03125-.10547.04297-.10156.04297-.08984.0625-.11719.02735-.07422-.07422.01172-.13281-.04297-.10157-.04297-.10547-.08984-.05859-.11719.02734-.1211.03125-.11718.03125-.10156.04297-.1211.03125-.10156.04297-.10547.04297-.08984.0586-.10156.01562v-.11719l.01562-.13281-.0586-.08985-.07421.04297-.14844.14844-.0586.08985-.07421.07421-.04688.10547-.04296.10156-.07422.07422-.0586.08985-.07422.07422-.05859.08593-.07422.07422-.08984.0625-.07422.07031-.07422.07422-.10156.01563-.13281.01562-.10547-.04296v-.1211l.14843-.14844.04297-.10156.0586-.08984.04687-.10156.04297-.10547.0586-.08985.03124-.11719.04297-.10156.03125-.1211.02735-.11718.04687-.10547.04297-.10156.04297-.10547.07422-.07031.08984-.0625.08985-.0586.10156-.04296h.29687l.26563-.03125.10547-.04297-.07422-.07422-.11719-.03125-.10547-.04297-.08984-.0586-.10156-.04687-.08985-.0586-.10156-.04296-.10547-.04297-.08984-.0625-.08594-.0586-.10547-.04296-.10156-.04297-.1211-.03125-.11718-.03125-.10157-.04297L297.5 410.25l-.10156-.04297-.08985-.0586-.04296-.10546-.01563-.13281.10156-.04297.13281-.01563.13672.01563.13282-.01563.10156-.04297.0586-.08984.01562-.10547-.08985-.0586-.07421-.07421-.10157-.04297-.08984-.0586-.14844-.14843-.04297-.10547-.01562-.13281v-.29297l-.0586-.08985-.08984-.05859-.07422-.07422-.04297-.10547-.03125-.11718-.0586-.08985-.07421-.07422-.11719-.02734-.07422-.07422-.08984-.0586-.08984-.0625-.08594-.05859-.07422-.07421-.0586-.08594-.04687-.10547-.08594-.0586-.14843-.14843-.19532-.0586-.1328.01563-.10157.04297-.07422.07422-.04688.10156-.04296.10547-.0586.08984-.0586.08594-.29687.29687-.08984.0586h-.08594l-.0625-.08594-.04297-.10547.03125-.11719.0586-.08984.02734-.11719-.01172-.13281-.08984-.0625-.10547.04688-.11719.02734-.11719.03125-.26953.17578-.10156.04688-.11719.02734-.10546.04687-.08985.0586-.10156.04297-.0586-.08594-.04687-.10547.01563-.13281.04687-.10547.07031-.07422.07422-.07031.0586-.08985v-.14843l-.04297-.10547h-.23829l-.10156.04687-.03125.11719-.02734.11719-.03125.1211-.07422.04296-.13281.01563-.07422-.04688-.04297-.10156-.04297-.10547-.04687-.10156-.04297-.10547-.1211.03125-.10156.04297-.13281.01562-.11719.03125-.10547.04297-.08984.0586-.10156.04687-.1211.02734-.13281.01563-.10156-.04297-.0586-.08985-.04687-.10546-.04297-.10157-.04297-.10546v-.1172l.0586-.08984.08593-.05859.17969-.11719.10156-.04687.10547-.04297.10547-.0586.10156-.04296.08985-.0625.10156-.04297.10547-.0586.10156-.04687.08984-.0586.10547-.04296.10156-.04297.08985-.0625.10156-.04297.13672-.01563.11719.03125.10156.04297.1211.03125.10156.04297.10546.04688.10157.04296.10547.04297.10156.04688.10547.04297.10156.04297.10547.04687.08594.0586.10546.04296.1172.03125.10546.04297.10156.04688.08985.0586.10547.04296.10156.04297.10547.04687.11719.02735.10156.04687.1211.02735h.14843l.08594-.0586.01562-.10156.0586-.08984-.02735-.1172-.07422-.07421-.11719-.17969-.07421-.07422-.08985-.07421-.17969-.1172-.08593-.05859-.10547-.04296-.10156-.04688-.26954-.17578-.05859-.08985-.07422-.07421-.0586-.08985-.04296-.10156-.03125-.11719-.01563-.13672v-.5625l-.01171-.1328-.01563-.13282-.03125-.11719-.01562-.13281-.01172-.13281-.03125-.1211-.22266-.22265-.0586-.08594-.01562-.10547.03125-.11719.13281-.01562v-91.41406H172.9922v1.45312l-.0586.23438-.35156 1.05078-.17187.52343-.1172.34766-.17577.41016-.11719.17187-.23438.29297-.23046.0586h-.35157l-.11718.05859-.23047.40625v.29297l.11719.17578.23046.23047.1172.23437.64062.75781.29297.46485.17578.23437.23047.35156.23437.34766.64063.8164.17578.46485.17187.41016.11719.69531.17578.46875.11719 1.39844.0586.46484v.875l.11718 1.04688v4.78125l-.0586.46484-.35156 1.28125-.17578.52344-.11328.41015-.35156.9297L172.93359 336l-.23437.58203-.11719.17578-.17187.34766-.17578.40625-.35157.8164-.0586.29297-.11327.29297-.11719.28906-.0586.17579-.11718.875-.0586.40625-.05859.11718-.0586.17579-.05859.17187-.23047.52734-.11718.17188v.23437l-.11719.23438-.0586.17187-.17577.58594v.28906l-.0586.17579v.29296l-.0586.11329-.05859.52734v.17187l-.05468.23438v2.6211l-.17578.8164-.1172.17578-.17577.23438-.1172.17187-.11327.23438-.58594.93359-.23047.28906-.29297.46485-.17578.23437-.28906.35156-.35156.69922-.11328.23047-.17579.41016-.17578.23046-.40625.52735-.8164.69922-.29297.17187-.28906.23438-.17579.11719-.17578.17578-.52344.40625-.52734.17578-.17187.17578-.23438.05469-.64062.17578h-.75782m12.21094 31.02344l-1.07422.44921.35938.89454 1.25-.71485.44531-.53906-.98047-.08985"/><path fill="#d3d3d3" fill-opacity="0" fill-rule="evenodd" d="M201.50781 416.59766h-.89453l.44922.6289.98047.35938.80469-.08985.4453-.98828-.17577.08985-.71485-.35547-.89453.35547m154.6211 59.0703l-.0586-.52343v-.29297l.11328-.29297.0586-.23046.46875-.46875h.11328l.11719-.11329.11718-.05859h.17579l.23437-.0586h.34766l.23437.0586.11719.0586.23047.17187.0586.17578.11718.58203v.29297l-.11719.17578-.17187.28906-.17579.17579-.52734.52343-.23047.23438-.11719.0586h-.17578l-.11718-.0586-.40625-.29297-.17579-.11719-.11718-.0586-.0586-.11327-.05468-.1172m6.64062-10.95702l-.0586-.17188v-1.10937l.0586-.17188.17578-.0586.17188-.05858h.17578l.23437-.0586.1172.0586.05858.69921-.05859.17188-.11719.17578-.11718.0586-.23438.52343-.11328.0586h-.23438l-.05859-.1172m9.61328-14.39062l-.11719-.17578v-.69922l.29297-.875.1172-.17187.17577-.35156.11328-.23047.1172-.29297.35155-.75781.1172-.23047.17187-.23438h.17578l.11719-.0586h.64062l.11719.0586.23437.23438.17188.11328.35156.29297.11719.11718.11328.17579v.11328l.11719.05859.11718.11719v.69922l-.05859.17578v.23047l-.0586.17578-.34765 1.05078-.11719.23047-.11719.23437-.11718.0586-.23047.23437-.64063.28906h-.875l-.41015-.11718-.64063-.46485"/><path fill="none" stroke="#bebebe" stroke-linecap="round" stroke-linejoin="round" stroke-miterlimit="10" stroke-width=".5" d="M467.95703 311.69531H144.02734v168.625h323.9297v-168.625"/><g clip-path="url(#a)"><path fill="#fff" fill-opacity="0" fill-rule="evenodd" d="M144 475.89063v4.4375h.0039H144V311.67188h.0039H144v164.21875"/></g><g clip-path="url(#b)"><path fill="#fff" fill-opacity="0" fill-rule="evenodd" d="M144.0039 480.32813V311.67188h79.88673v97.11718l-.4961.52735-3.9414 1.96093-2.46094 2.47657 2.46094 3.65234 4.4375-1.23438 3.0664-2.41796-2.25781-4.4375-.8086-.52735v-97.11719h8.875v116.4336l-4.4375.30469-4.4375.29296-4.4375.0547-4.4375.51171-2.64453 2.23828-1.49218 4.4375-.3047.20313-4.10155 4.23437-.33594 3.0664-.67578 1.3711-2.99219 4.4414-.76953.16017-4.4375.08984-4.4414.02734-4.4375.3086-4.4375.23046-2.00782-.8164-2.42969-.83203-4.4414-2.24219-4.4375-.41797-4.4375.08985-4.4375.60546-3.07032 2.79688-1.36718.4961-3.96094-.4961-.48047-.40625-4.4375-.60547-.90234 1.01172.90234 1.88281 1.86328 2.55469 2.57422 3.46094.0625.97656.72656 4.4375.58985 4.4414 3.0625 3.08204 4.4375.60156 4.4375-.01172 4.4375-.35156 4.4375-.6211 4.4414.19141 4.4375-.3125 3.70703-2.57813.73047-.14062 4.4375-.36719 4.4414-.42578 4.4375.16016 3.0547.77344 1.3828 1.10546 1.6172-1.10546 2.61328-4.44141-1.13672-4.4375-1.45313-4.4375 2.79688-2.70313 2.21094-1.73437 2.23047-.84766 2.03125.84766 2.11718 4.4375.28906.79687.9961 3.64063 3.4414 1.8086 4.4375 1.35937 4.4375.76562v1.60938l-2.68359 3.33594 2.6836 2.65234 2.26562-2.65235-2.26563-3.33593v-1.60938l4.44141-1.33984 3.8164-2.59375.6211-.48438 3.58203-3.95312-.3164-4.4375-1.66407-4.4414 2.83594-1.45704 2.77344-2.98047-2.77344-2.69922-1.98437-1.73828-2.45313-2.61328-2.69922-1.82422-1.73828-1.84375-4.4414-1.5586V311.67189h26.6328v124.17187l-.125.10156.125.09375.09766-.09375-.09765-.10156V311.67187h17.7539v113.39454l-1.95312 2.0039 1.95312 1.90235 4.4375-.69141 1.10157-1.21094-1.10157-1.09375-4.4375-.91015V311.67187h8.875v122.22657l-1.89453 2.04687 1.89453 1.52735 3.21485-1.52735-3.21485-2.04687V311.67188h4.4375v140.47656l-1.98828 1.55078-2.44922 1.47265-4.4375.67579-2.44921 2.28906-.02344 4.4375 2.47265 1.72656 4.4375 1.0664 4.4375-2.0625.73047-.73046 3.70703-2.8125 1.625-1.625-.53515-4.4375-1.08985-1.09766-4.4375-.45312V311.67188h17.75391v99.19921l-3.16016 2.88282 3.16016 3.0703 4.4375-.76562 2.07031-2.30468-2.07031-2.35547-4.4375-.52735v-99.19921h22.1914v91.36718l-2.18359 1.83594-1.0586 4.4414 2.14063 4.4375 1.10157 1.1211 4.4375 2.92969 4.21093-4.05078-.14843-4.4375-4.0625-3.38282-2.50391-1.05859-1.9336-1.83594v-91.36719h13.31641v111.3086l-4.4375 1.41015-2.29687 2.6797 2.29687 2.65234.24219 1.78515 2.85156 4.4375 1.34375 1.27344 2.46485-1.27344 1.85937-4.4375-.0664-4.4375-4.25782-4.08984v-111.3086h8.875v128.04688l-.6289.66406.6289.60938.64844-.60938-.64844-.66406V311.67187h13.3164v126.5547l-1.98827 2.15624 1.98828 1.96485 2.02734-1.96485-2.02734-2.15625V311.67187h8.875v133.75l-3.83985 3.83985 3.83985 3.83203 3.85547-3.83203-3.85547-3.83985v-133.75h8.8789v115.85938l-4.01562 3.97656-.42188 1.5625-3.14843 2.875 3.14844 2.94531 4.4375.20313 3.3203-3.14844.69923-4.4375-4.01954-3.97656V311.67187h4.4375v148.83204l-4.4375 1.04296-.95703 1.02735.95704 1.02734 4.4375 1.05078 2.66406-2.07812-2.66406-2.07031V311.67187h79.88671v168.65625H227.53516l.79297-.36328 3.41796-4.07421-3.41797-3.07032-4.4375-.99219-4.4375.1875-4.4375-.20312-3.6328 4.07813 3.6328 3.38671 4.4375.73438 1.44141.3164h-76.89062"/></g><path fill="#50fcfc" fill-rule="evenodd" d="M148.4375 451.14453l-.90234-1.88281.90234-1.01172 4.4375.60547.48047.40625 3.96094.4961 1.36718-.4961 3.07032-2.79688 4.4375-.60546 4.4375-.08985v1.67188l-4.4375.28906-4.4375 1.41015-.12891.1211-4.3086 1.5664-3.53906 2.8711-.17187 4.4375 1.3125 4.4375 1.59766 4.4414.80078.8047 4.4375 1.60156 4.4375.04687 4.4375-.85547 4.4375-1.5664 4.4414.53906 3.39844-.57031 1.03906-.06641 4.4375-.83203 4.4375-.3789 4.4414-1.34767 4.4375.125 4.4375-1.57812.27735-.36328-.27734-.40235-2.96875-4.03515-.38281-4.4375-1.08594-.91797-4.4375.02734-4.4414-.05859-3.27345.94922-1.16406.1875-4.4375.40625-1.29297-.59375-3.14453-2.55469-3.27734-1.88281-1.16406-.71875-4.4375-1.10156v-1.67188l4.4375.41797 4.4414 2.24219 2.42969.83203 2.00781.8164 4.4375-.23046 4.4375-.3086 4.4414-.02734 4.4375-.08985.76954-.16015 2.99219-4.4414.67578-1.3711.33594-3.0664 4.10156-4.23438.30469-.20313 1.49218-4.4375 2.64453-2.23828 4.4375-.51172 4.4375-.05469 4.4375-.29296 4.4375-.3047v2.1172l-4.15625 1.28515 1.9375 4.4375-2.21875 2.23047-4.4375-.3711-4.4375.88282-4.4375-.3164-3.5078 2.01171 3.5078 2.53906 2.3711 1.89844 2.0664.95313 2.85938 3.48828 1.57813 3.45312.2578.98438 3.27345 4.4375.90625.41797 4.4375.33984 2.07421-.75781 2.3672-.52735 4.35937-3.91015.07812-.53125.69922-3.90625-.69922-1.1836-4.4375-3.0703-.27734-.1875-.98047-4.4375 1.25781-.51563 3.44922-3.92188-3.44922-2.65234-2.35156-1.78516-2.08984-1.28515v-2.1172l4.4414 1.5586 1.73828 1.84375 2.69922 1.82422 2.45313 2.61328 1.98437 1.73828 2.77344 2.69922-2.77344 2.98047-2.83594 1.45703 1.66407 4.4414.3164 4.4375-3.58203 3.95313-.6211.48438-3.8164 2.59375-4.4414 1.33984-4.4375-.76562-4.4375-1.35938-3.44141-1.8086-.9961-3.64062-.28906-.79687-2.11719-4.4375-2.03125-.84766-2.23046.84766-2.21094 1.73437-2.79688 2.70313 1.45313 4.4375 1.13672 4.4375-2.61328 4.4414-1.6172 1.10547-1.3828-1.10546-3.0547-.77344-4.4375-.16016-4.4414.42578-4.4375.36719-.73047.14063-3.70703 2.57812-4.4375.3125-4.4414-.1914-4.4375.62109-4.4375.35156-4.4375.01172-4.4375-.60156-3.0625-3.08204-.58985-4.4414-.72656-4.4375-.0625-.97656-2.57422-3.46094-1.86328-2.55469"/><path fill="#00e8fc" fill-rule="evenodd" d="M154.91797 462.57422l-1.3125-4.4375.17187-4.4375 3.53907-2.8711 4.30859-1.5664.1289-.1211 4.4375-1.41015v2.61719l-4.4375.3203-4.4375 1.94532-1.33984 1.08594-1.2539 4.4375 2.28515 4.4375.3086.69531 3.80468 3.7461.63282.27734 4.4375.14453 1.42187-.42188 3.01563-.44921 4.4375-.52344 4.4414-.01953 4.4375-.47266 4.4375-.69922 4.4375-.39453 3.57422-1.88281.86719-3.33203.57422-1.10547-.57422-.54688-4.4414-1.09375-4.4375.39454-4.4375-.52735-4.4375-1.84375-1.75-.82031-2.69141-1.60938-4.4375-1.67968-4.4375-.0625v-2.6172l4.4375-.28905 4.4375 1.10156 1.16406.71875 3.27734 1.88281 3.14453 2.55469 1.29297.59375 4.4375-.40625 1.16406-.1875 3.27344-.94922 4.4414.0586 4.4375-.02735 1.08595.91797.3828 4.4375 2.96876 4.03515.27734.40235-.27734.36328-4.4375 1.57813-4.4375-.125-4.4414 1.34765-4.4375.3789-4.4375.83204-1.03907.0664-3.39844.57032-4.4414-.53906-4.4375 1.5664-4.4375.85547-4.4375-.04688-4.4375-1.60156-.80078-.80469-1.59766-4.4414"/><path fill="#00d4fc" fill-rule="evenodd" d="M157.00781 462.57422l-2.28515-4.4375 1.2539-4.4375 1.33985-1.08594 4.4375-1.94531v1.44531l-3.27344 1.58594-1.16406 1.00781-1.48047 3.42969 1.48047 2.69922 1.02734 1.73828 3.41016 3.39844 4.4375.02734 4.4375-.4414 4.4375-.4922 4.4414-.20312 4.4375-.71094 4.4375-.5664 4.4375-.41016 1.13672-.60156-1.13672-2.10547-4.4375-.45313-4.4375-1.375-1.34765-.5039-3.08985-.89453-4.4414-2.1875-4.4375-1.33594-.07422-.01953-4.36328-1.22656-4.4375-.35938v-1.44531l4.4375-.32031 4.4375.0625 4.4375 1.67968 2.6914 1.60938 1.75.82031 4.4375 1.84375 4.4375.52735 4.4375-.39454 4.4414 1.09375.57423.54688-.57422 1.10547-.86719 3.33203-3.57422 1.88281-4.4375.39453-4.4375.69922-4.4375.47266-4.4414.01953-4.4375.52344-3.01563.44921-1.42187.42188-4.4375-.14453-.63282-.27735-3.80468-3.74609-.3086-.69531"/><path fill="#00c4fc" fill-rule="evenodd" d="M157.3164 460.83594l-1.48046-2.69922 1.48047-3.42969 1.16406-1.00781 3.27344-1.58594v1.44922l-.28516.13672-4.15234 3.59765-.36328.83985.36328.66015 2.23047 3.77735 2.20703 2.19922 4.4375-.0586 4.4375-.16796 4.4375-.45704 4.4414-.38671 4.4375-.95313 1.69922-.17578-1.69922-.4375-4.4375-2.1875-3.35547-1.8125-1.08593-.54688-4.4375-1.66406-4.4375-1.42187-3.62891-.8047-.8086-.13671v-1.44922l4.4375.35938 4.36329 1.22656.07422.01953 4.4375 1.33594 4.4414 2.1875 3.08985.89453 1.34765.5039 4.4375 1.375 4.4375.45313 1.13672 2.10547-1.13672.60156-4.4375.41016-4.4375.5664-4.4375.71094-4.4414.20313-4.4375.49218-4.4375.44141-4.4375-.02734-3.41016-3.39844-1.02734-1.73828"/><path fill="#00b8fc" fill-rule="evenodd" d="M157.3164 458.79688l-.36327-.66016.36328-.83985 4.15234-3.59765.28516-.13672v2.22266l-2.67188 2.35156 1.66797 4.4375 1.0039 1.0039 4.4375-.14453 4.4375.10547 4.4375-.42578 4.21876-.53906-4.21875-1.83203-4.41797-2.60547-.01953-.00781-4.4375-1.72657-4.4375-.61718v-2.22266l.80859.13672 3.6289.80469 4.4375 1.42187 4.4375 1.66406 1.08594.54688 3.35547 1.8125 4.4375 2.1875 1.69922.4375-1.69922.17578-4.4375.95313-4.4414.38671-4.4375.45704-4.4375.16796-4.4375.0586-2.20703-2.19922-2.23047-3.77735"/><path fill="#00a8fc" fill-rule="evenodd" d="M160.75 462.57422l-1.66797-4.4375 2.67188-2.35156v2.30078l-.0547.05078.0547.51172.89453-.51172-.89453-.05078v-2.30078l4.4375.61718 4.4375 1.72657.01953.0078 4.41797 2.60548 4.21875 1.83203-4.21875.53906-4.4375.42578-4.4375-.10547-4.4375.14454-1.00391-1.00391"/><path fill="#009800" fill-rule="evenodd" d="M161.7539 458.64844l-.05468-.51172.05469-.05078.89453.05078-.89453.51172"/><g clip-path="url(#c)"><path fill="#50fcfc" fill-rule="evenodd" d="M215.01563 479.27734l-3.63282-3.38671 3.63281-4.07813 4.4375.20313 4.4375-.1875v1.29687l-4.4375.05469-4.4375.7539-1.74609 1.95704 1.7461 1.625 4.4375 1.2539 4.4375.7539 4.4375-2.70312.78125-.92969-.78125-.69921-4.4375-2.06641v-1.29688l4.4375.9922 3.41796 3.0703-3.41797 4.07422-.79296.36329h-6.64063l-1.4414-.31641-4.4375-.73438"/></g><path fill="#00e8fc" fill-rule="evenodd" d="M215.01563 442.92188l-3.50782-2.53907 3.50781-2.01172 4.4375.31641 4.4375-.88281 4.4375.3711v8.34765l-1.07812 2.73828.33594 4.4375.74219.85156 4.4375 1.08985 4.4414-1.25391.76563-.6875-.76563-2.28125-1.48437-2.15625-2.95703-2.05078-4.4375-.6875v-8.34766l2.21875-2.23047-1.9375-4.4375 4.15625-1.28515 2.08984 1.28515 2.35156 1.78516 3.44922 2.65234-3.44922 3.92188-1.25781.51562.98047 4.4375.27734.1875 4.4375 3.07031.69922 1.1836-.69922 3.90625-.07812.53125-4.35938 3.91015-2.36719.52735-2.07422.75781-4.4375-.33984-.90625-.41797-3.27343-4.4375-.25781-.98438-1.57813-3.45312-2.85938-3.48828-2.0664-.95313-2.3711-1.89844m0 34.59375l-1.74609-1.625 1.7461-1.95703 4.4375-.7539v1.94531l-2.08204.76563 2.08203.8125 4.4375-.02344 1.1172-.78906-1.1172-.60157-4.4375-.16406v-1.94531l4.4375-.05469 4.4375 2.0664.78125.69923-.78125.92968-4.4375 2.70313-4.4375-.7539-4.4375-1.25392"/><path fill="#50fcfc" fill-rule="evenodd" d="M219.45313 417.40625l-2.46094-3.65234 2.46094-2.47657 3.9414-1.96093.4961-.52735.80859.52735 2.25781 4.4375-3.0664 2.41796-4.4375 1.23438"/><path fill="#00d4fc" fill-rule="evenodd" d="M219.45313 476.70313l-2.08204-.8125 2.08203-.76563 4.4375.16406 1.1172.60156-1.1172.78907-4.4375.02344m8.13282-23.00391l-.33594-4.4375 1.07813-2.73828 4.4375.6875 2.95703 2.05078 1.48437 2.15625.76563 2.28125-.76563.6875-4.4414 1.2539-4.4375-1.08984-.7422-.85156"/><path fill="#50fcfc" fill-rule="evenodd" d="M232.76563 469.66797l-2.6836-2.65235 2.6836-3.33593 2.26562 3.33594-2.26563 2.65234m26.63282-33.6289l-.125-.09376.125-.10156.09765.10156-.09765.09375m17.7539-7.0664l-1.95312-1.90235 1.95312-2.0039 4.4375.91015 1.10157 1.09375-1.10157 1.21094-4.4375.6914m4.4375 35.32813l-2.47265-1.72656.02344-4.4375 2.44921-2.28906 4.4375-.67579 2.44922-1.47265 1.98828-1.55078v3.91015l-3.46093 2.07813-.97657 2.46484-.78125 1.97266.78125.32812.58594-.32812 3.85156-2.65235 2.16016-1.78515-2.16016-2.07813v-3.91015l4.4375.45312 1.08985 1.09766.53515 4.4375-1.625 1.625-3.70703 2.8125-.73047.73047-4.4375 2.0625-4.4375-1.0664m4.4375-26.82813l-1.89453-1.52735 1.89453-2.04687 3.21485 2.04687-3.21485 1.52735"/><path fill="#00e8fc" fill-rule="evenodd" d="M286.02734 462.90234l-.78125-.32812.78125-1.97266.97657-2.46484 3.46093-2.07813 2.16016 2.07813-2.16016 1.78515-3.85156 2.65235-.58594.32812"/><path fill="#50fcfc" fill-rule="evenodd" d="M308.21875 416.82422l-3.16016-3.07031 3.16016-2.88282v2.51563l-.40234.36719.40234.39062 1.13281-.39062-1.13281-.3672v-2.51562l4.4375.52735 2.07031 2.35547-2.07031 2.30468-4.4375.76563"/><path fill="#00e8fc" fill-rule="evenodd" d="M308.21875 414.14453l-.40234-.39062.40234-.3672 1.13281.3672-1.13281.39062"/><path fill="#50fcfc" fill-rule="evenodd" d="M329.3086 413.7539l-2.14063-4.4375 1.0586-4.4414 2.18359-1.83594 1.93359 1.83594 2.5039 1.0586v1.72656l-4.4375.1953-.66796 1.46095.66797 1.08593 1.34765 3.35157 3.08985 2.62109 2.72656-2.6211-.73828-4.4375-1.98828-1.65624v-1.72657l4.0625 3.38282.14843 4.4375-4.21093 4.05078-4.4375-2.92969-1.10157-1.1211"/><path fill="#00e8fc" fill-rule="evenodd" d="M330.41016 410.40234l-.66797-1.08593.66797-1.46094 4.4375-.19531v5.24218l-.28125.85157.28125.23828.25-.23828-.25-.85157v-5.24218l1.98828 1.65625.73828 4.4375-2.72656 2.62109-3.08985-2.6211-1.34765-3.35156"/><path fill="#00d4fc" fill-rule="evenodd" d="M334.84766 413.99219l-.28125-.23828.28125-.85157.25.85157-.25.23828"/><path fill="#50fcfc" fill-rule="evenodd" d="M339.28906 429.72266l-2.29687-2.65235 2.29687-2.67969 4.4375-1.41015v.71484l-4.07812 3.375.5039 4.4375 3.57422 3.9336 3.67969-3.9336-.16797-4.4375-3.51172-3.375v-.71484l4.25781 4.08984.06641 4.4375-1.85937 4.4375-2.46485 1.27344-1.34375-1.27344-2.85156-4.4375-.24219-1.78515"/><path fill="#00e8fc" fill-rule="evenodd" d="M340.15234 431.50781l-.5039-4.4375 4.07812-3.375v1.19531l-2.63281 2.1797.09766 4.4375 2.53515 2.79296 2.61328-2.79297-.34765-4.4375-2.26563-2.17969v-1.1953l3.51172 3.375.16797 4.4375-3.67969 3.93359-3.57422-3.9336"/><path fill="#00d4fc" fill-rule="evenodd" d="M341.1914 431.50781l-.09765-4.4375 2.63281-2.17969v1.19532l-1.1875.98437-.3125 4.4375 1.5 1.65235 1.54297-1.65235-.52344-4.4375-1.01953-.98437v-1.19531l2.26563 2.17968.34765 4.4375-2.61328 2.79297-2.53515-2.79297"/><path fill="#00c4fc" fill-rule="evenodd" d="M343.72656 433.16016l-1.5-1.65235.3125-4.4375 1.1875-.98437v2.25781l-.46094 3.16406.46094.50781.47656-.5078-.47656-3.16407v-2.25781l1.01953.98437.52344 4.4375-1.54297 1.65235"/><path fill="#00b8fc" fill-rule="evenodd" d="M343.72656 432.01563l-.46094-.50782.46094-3.16406.47656 3.16406-.47656.50781"/><path fill="#50fcfc" fill-rule="evenodd" d="M352.60156 440.99219l-.6289-.60938.6289-.66406.64844.66406-.64844.60938m13.3164 1.35547l-1.98827-1.96485 1.98828-2.15625 2.02734 2.15625-2.02734 1.96485m8.875 10.74609l-3.83985-3.83203 3.83985-3.83985v.91016l-2.92969 2.92969 2.92969 2.92578 2.94531-2.92578-2.94531-2.92969v-.91015l3.85547 3.83984-3.85547 3.83203"/><path fill="#00e8fc" fill-rule="evenodd" d="M374.79297 452.1875l-2.92969-2.92578 2.92969-2.92969v1.51172l-1.41797 1.41797 1.41797 1.41406 1.42578-1.41406-1.42578-1.41797v-1.51172l2.94531 2.92969-2.94531 2.92578"/><path fill="#00d4fc" fill-rule="evenodd" d="M374.79297 450.67578l-1.41797-1.41406 1.41797-1.41797 1.42578 1.41797-1.42578 1.41406"/><path fill="#50fcfc" fill-rule="evenodd" d="M379.23438 438.89063l-3.14844-2.94532 3.14844-2.875.42187-1.5625 4.01563-3.97656v.71484l-3.29297 3.26172-1.14454 4.21485-.24609.22265.2461.22656 4.4375.53125.79687-.7578 2.5039-4.4375-3.30077-3.26173v-.71484l4.01953 3.97656-.69922 4.4375-3.32031 3.14844-4.4375-.20313"/><path fill="#00e8fc" fill-rule="evenodd" d="M379.23438 436.17188l-.2461-.22657.2461-.22265 1.14453-4.21485 3.29296-3.26172v1.19141l-2.08984 2.07031 2.08985 3.02735 2.09375-3.02735-2.09375-2.07031v-1.1914l3.30078 3.26171-2.50391 4.4375-.79688.75781-4.4375-.53125"/><path fill="#00d4fc" fill-rule="evenodd" d="M383.67188 434.53516l-2.08985-3.02735 2.08985-2.07031v1.1875l-.89063.88281.89063 1.28516.89062-1.28516-.89063-.88281v-1.1875l2.09375 2.07031-2.09375 3.02735"/><path fill="#50fcfc" fill-rule="evenodd" d="M383.67188 463.60156l-.95704-1.02734.95704-1.02735 4.4375-1.04296 2.66406 2.0703-2.66406 2.07813-4.4375-1.05078"/><path fill="#00c4fc" fill-rule="evenodd" d="M383.67188 432.79297l-.89063-1.28516.89063-.88281.89062.88281-.89063 1.28516"/><g clip-path="url(#d)"><path fill="#fff" fill-opacity="0" fill-rule="evenodd" d="M467.9961 480.32813H468V311.67188h-.0039H468v168.65625h-.0039"/></g><path fill="#fff" fill-opacity="0" fill-rule="evenodd" d="M231.5664 432.05078l4.89844 3.1836 5.42578-8.35547-4.89843-3.1797-5.42578 8.35157"/><path fill-rule="evenodd" d="M238.92969 427.14063l.42578.27734-3.42969 5.28125-.66016-.42969 2.44532-3.76562-1.16406-.75782.30468-.46484.5039.25.23829.09375.24219.05078.25-.00781.25781-.08203.28125-.17188.30469-.27344"/><path fill="#fff" fill-opacity="0" fill-rule="evenodd" d="M151.98438 473.11328l5.23046 2.60156 4.4375-8.91796-5.23047-2.60157-4.4375 8.91797"/><path fill-rule="evenodd" d="M158.73828 467.39453l.45703.22656-2.80469 5.63672-.70703-.35156 2-4.01953-1.24218-.61719.25-.5.52734.1914.25.06641.2461.01954.24609-.03516.25-.10938.25781-.19921.26953-.3086"/><g clip-path="url(#e)"><path fill="none" stroke="#000" stroke-linecap="round" stroke-linejoin="round" stroke-miterlimit="10" stroke-width=".5" d="M144.51172 476.85156l-1.02344 6.95313"/></g><path fill="none" stroke="#000" stroke-linecap="round" stroke-linejoin="round" stroke-miterlimit="10" stroke-width=".5" d="M144.36328 477.86328l1.15234-.41015"/><g clip-path="url(#f)"><path fill="none" stroke="#000" stroke-linecap="round" stroke-linejoin="round" stroke-miterlimit="10" stroke-width=".5" d="M155.9961 477.07422l2.64062 6.51172"/></g><path fill="none" stroke="#000" stroke-linecap="round" stroke-linejoin="round" stroke-miterlimit="10" stroke-width=".5" d="M156.3789 478.01953l.78907-.9414"/><g clip-path="url(#g)"><path fill="none" stroke="#000" stroke-linecap="round" stroke-linejoin="round" stroke-miterlimit="10" stroke-width=".5" d="M168.28516 477.71484l4.6914 5.23047"/></g><path fill="none" stroke="#000" stroke-linecap="round" stroke-linejoin="round" stroke-miterlimit="10" stroke-width=".5" d="M168.96484 478.47266l.42188-1.14844"/><g clip-path="url(#h)"><path fill="none" stroke="#000" stroke-linecap="round" stroke-linejoin="round" stroke-miterlimit="10" stroke-width=".5" d="M181.91797 477.45703l4.05469 5.74219"/></g><path fill="none" stroke="#000" stroke-linecap="round" stroke-linejoin="round" stroke-miterlimit="10" stroke-width=".5" d="M182.50781 478.29297l.55469-1.09375"/><g clip-path="url(#i)"><path fill="none" stroke="#000" stroke-linecap="round" stroke-linejoin="round" stroke-miterlimit="10" stroke-width=".5" d="M193.96875 481.55469l6.58203-2.45313"/></g><g clip-path="url(#j)"><path fill="none" stroke="#000" stroke-linecap="round" stroke-linejoin="round" stroke-miterlimit="10" stroke-width=".5" d="M194.92578 481.19922l-.91797-.8125"/></g><g clip-path="url(#k)"><path fill="none" stroke="#000" stroke-linecap="round" stroke-linejoin="round" stroke-miterlimit="10" stroke-width=".5" d="M213.34766 482.48828l-5.54297-4.32031"/></g><g clip-path="url(#l)"><path fill="none" stroke="#000" stroke-linecap="round" stroke-linejoin="round" stroke-miterlimit="10" stroke-width=".5" d="M227.38672 479.99219l-6.99219.67578"/></g><g clip-path="url(#m)"><path fill="none" stroke="#000" stroke-linecap="round" stroke-linejoin="round" stroke-miterlimit="10" stroke-width=".5" d="M226.3711 480.08984l.67577 1.02344"/></g><g clip-path="url(#n)"><path fill="none" stroke="#000" stroke-linecap="round" stroke-linejoin="round" stroke-miterlimit="10" stroke-width=".5" d="M240.60547 481.21875l-6.79688-1.78125"/></g><g clip-path="url(#o)"><path fill="none" stroke="#000" stroke-linecap="round" stroke-linejoin="round" stroke-miterlimit="10" stroke-width=".5" d="M239.61328 480.96094l.28516 1.19531"/></g><g clip-path="url(#p)"><path fill="none" stroke="#000" stroke-linecap="round" stroke-linejoin="round" stroke-miterlimit="10" stroke-width=".5" d="M247.59375 482.27344l5.85156-3.89063"/></g><g clip-path="url(#q)"><path fill="none" stroke="#000" stroke-linecap="round" stroke-linejoin="round" stroke-miterlimit="10" stroke-width=".5" d="M260.85156 478.47656l5.96875 3.70703"/></g><g clip-path="url(#r)"><path fill="none" stroke="#000" stroke-linecap="round" stroke-linejoin="round" stroke-miterlimit="10" stroke-width=".5" d="M275.82813 483.58594l2.64453-6.51172"/></g><g clip-path="url(#s)"><path fill="none" stroke="#000" stroke-linecap="round" stroke-linejoin="round" stroke-miterlimit="10" stroke-width=".5" d="M290.3164 483.83984l.30079-7.01953"/></g><g clip-path="url(#t)"><path fill="none" stroke="#000" stroke-linecap="round" stroke-linejoin="round" stroke-miterlimit="10" stroke-width=".5" d="M300.70313 478.63281l6.15625 3.39063"/></g><g clip-path="url(#u)"><path fill="none" stroke="#000" stroke-linecap="round" stroke-linejoin="round" stroke-miterlimit="10" stroke-width=".5" d="M317.53516 476.84375l-.87891 6.97266"/></g><path fill="none" stroke="#000" stroke-linecap="round" stroke-linejoin="round" stroke-miterlimit="10" stroke-width=".5" d="M317.40625 477.85547l1.14844-.4336"/><g clip-path="url(#v)"><path fill="none" stroke="#000" stroke-linecap="round" stroke-linejoin="round" stroke-miterlimit="10" stroke-width=".5" d="M331.4336 480.32813l-.01954-.19922-.0586-.19141-.09374-.17578-.46094-.3789-.1914-.0586-.19922-.01953-.19922.01953-.1914.0586-.45704.3789-.09766.17578-.05859.1914-.01953.19923.01953.19921.0586.19141.09765.17969.45703.375.1914.0586.19923.01952.19921-.01953.19141-.0586.46094-.375.09375-.17968.0586-.1914.01952-.19922"/></g><g clip-path="url(#w)"><path fill="none" stroke="#000" stroke-linecap="round" stroke-linejoin="round" stroke-miterlimit="10" stroke-width=".5" d="M341.9336 477.30469l3.58202 6.04687"/></g><path fill="none" stroke="#000" stroke-linecap="round" stroke-linejoin="round" stroke-miterlimit="10" stroke-width=".5" d="M342.45703 478.1875l.63672-1.05078"/><g clip-path="url(#x)"><path fill="none" stroke="#000" stroke-linecap="round" stroke-linejoin="round" stroke-miterlimit="10" stroke-width=".5" d="M356.20313 476.91797l1.67578 6.82422"/></g><path fill="none" stroke="#000" stroke-linecap="round" stroke-linejoin="round" stroke-miterlimit="10" stroke-width=".5" d="M356.44531 477.91016l.91406-.82032"/><g clip-path="url(#y)"><path fill="none" stroke="#000" stroke-linecap="round" stroke-linejoin="round" stroke-miterlimit="10" stroke-width=".5" d="M368.50781 477.33984l3.69531 5.97657"/></g><path fill="none" stroke="#000" stroke-linecap="round" stroke-linejoin="round" stroke-miterlimit="10" stroke-width=".5" d="M369.04688 478.21094l.61718-1.0625"/><g clip-path="url(#z)"><path fill="none" stroke="#000" stroke-linecap="round" stroke-linejoin="round" stroke-miterlimit="10" stroke-width=".5" d="M382.41406 477.04688l2.51563 6.5625"/></g><path fill="none" stroke="#000" stroke-linecap="round" stroke-linejoin="round" stroke-miterlimit="10" stroke-width=".5" d="M382.77734 478.0039l.8047-.92577"/><g clip-path="url(#A)"><path fill="none" stroke="#000" stroke-linecap="round" stroke-linejoin="round" stroke-miterlimit="10" stroke-width=".5" d="M395.22656 477.28906l3.51953 6.07813"/></g><path fill="none" stroke="#000" stroke-linecap="round" stroke-linejoin="round" stroke-miterlimit="10" stroke-width=".5" d="M395.73828 478.17188l.64844-1.03907"/><g clip-path="url(#B)"><path fill="none" stroke="#000" stroke-linecap="round" stroke-linejoin="round" stroke-miterlimit="10" stroke-width=".5" d="M410.46484 476.82031l-.32421 7.01953"/></g><path fill="none" stroke="#000" stroke-linecap="round" stroke-linejoin="round" stroke-miterlimit="10" stroke-width=".5" d="M410.41406 477.83984l1.10938-.52343"/><g clip-path="url(#C)"><path fill="none" stroke="#000" stroke-linecap="round" stroke-linejoin="round" stroke-miterlimit="10" stroke-width=".5" d="M422.4961 477l2.24218 6.66016"/></g><g clip-path="url(#D)"><path fill="none" stroke="#000" stroke-linecap="round" stroke-linejoin="round" stroke-miterlimit="10" stroke-width=".5" d="M435.17969 477.28516l3.5039 6.08984"/></g><g clip-path="url(#E)"><path fill="none" stroke="#000" stroke-linecap="round" stroke-linejoin="round" stroke-miterlimit="10" stroke-width=".5" d="M450.08984 476.82031l.3125 7.01953"/></g><g clip-path="url(#F)"><path fill="none" stroke="#000" stroke-linecap="round" stroke-linejoin="round" stroke-miterlimit="10" stroke-width=".5" d="M465.39844 477.33594l-3.67578 5.98828"/></g><g clip-path="url(#G)"><path fill="none" stroke="#000" stroke-linecap="round" stroke-linejoin="round" stroke-miterlimit="10" stroke-width=".5" d="M143.69922 463.51172l.60156 7.0039"/></g><g clip-path="url(#H)"><path fill="none" stroke="#000" stroke-linecap="round" stroke-linejoin="round" stroke-miterlimit="10" stroke-width=".5" d="M143.78516 464.53125l1.03125-.66797"/></g><path fill="none" stroke="#000" stroke-linecap="round" stroke-linejoin="round" stroke-miterlimit="10" stroke-width=".5" d="M155.6211 463.9336l3.38671 6.16015m-2.89453-5.26172l.67188-1.02734m13.16797-.23828l1.35546 6.89453m-1.16015-5.89063l.95312-.77343m12.4375-.27344l.8125 6.98047m15.34766-.96094l-4.8789-5.0586m14.16796 5.66407l3.17578-6.26953m-2.71484 5.35547l-1.22656.02343m16.15234 1.23438l-.96875-6.95703m.82813 5.9453l-.9961.71876m17.39063-3.97656l-6.84766 1.58203m5.85156-1.35156l.80469.92578m13.59375-.20313l-7.01953-.32422m17.16406 3.66016l-.6836-6.9961m13.91407 7.00391l-.51172-7.01172m.4375 5.99219l-1.03906.65234m15.73437.00782l-3.125-6.29297m2.67188 5.3789l-.71484.9961m16.21484-2.0039l-6.58594-2.44923m5.6289 2.09375l.16016 1.21485m13.9297-3.71485l-6.22266 3.26172m5.3164-2.78906l1.01563.6914m9.64453-3.01953l.89844 6.97266m-.76563-5.95703l1-.71094m11.3711-.09765l2.52343 6.55859m-2.15625-5.60547l.80469-.92578m12.69922-.1914l1.41015 6.88671m-1.20312-5.88281l.94531-.78125m12.49219-.27344l.7539 6.98828m-.64453-5.97265l1.01172-.6875m12.21094-.32813l.71484 6.98828m-.60937-5.97265l1.01953-.6836m11.25781-.10547l2.58203 6.53516m-2.20703-5.58203l.79297-.9375m11.79297.14844l3.28906 6.20703m-2.8086-5.30469l.6875-1.01562m13.71095-.29688l.16015 7.02734m-.13672-6.0039l1.07032-.60156m13.01172-.34766l-1.41797 6.8789m1.21093-5.8789l1.1797-.34766m11.34765-.71484l.57422 7.0039m14.05078-3.5l-.02344-.20312-.05469-.1914-.09765-.17579-.45703-.375-.19141-.0586-.19922-.01952-.19922.01953-.1914.0586-.46094.375-.09375.17577-.0586.19141-.01953.20313.01953.19921.0586.19141.09375.17578.46094.375.1914.0586.19922.01953.19922-.01953.1914-.0586.45704-.375.09765-.17578.05469-.1914.02344-.19922"/><g clip-path="url(#I)"><path fill="none" stroke="#000" stroke-linecap="round" stroke-linejoin="round" stroke-miterlimit="10" stroke-width=".5" d="M146.92188 451.7461l-5.84375 3.90624"/></g><path fill="none" stroke="#000" stroke-linecap="round" stroke-linejoin="round" stroke-miterlimit="10" stroke-width=".5" d="M146.07031 452.3125l1.08203.58203m12.64453-1.6836l-4.96484 4.97657m4.24219-4.2539l1.17187.35937m13.21875-.66797l-5.67187 4.14844m4.84766-3.54688l1.10546.53516m13.69922.65234l-7.0039.57032m5.98828-.48829l.66015 1.03516m13.44532.4414l-6.55078-2.54687m5.59765 2.17578l.14453 1.21875m12.55469.94922l-3.41406-6.14062m2.91797 5.24609l-.66797 1.03125m12.11328.24219l1.32031-6.90235m-1.1289 5.89844l-1.17188.36328m16.80078.17969l-3.6914-5.97656m3.15625 5.10547l-.6211 1.0625m16.09766-2.64453l-6.94531-1.07032m5.9375.91406l.40234 1.16016m13.8164-.53515l-6.73437-2.01172m5.7539 1.71875l.2422 1.20312m13.76171-.21875L274.07422 452m6.15234 3.39453l-.03515 2.45313m13.36718-2.48047l-6.18359-3.33594m6.1836 3.33594l-.01563 2.45312m13.69531-3.48828l-6.91406-1.26953m5.90625 1.08594l.3711 1.16797m13.98827-1.97266l-6.98828.71094m5.97266-.60938l.6836 1.02344m13.28906-2.35547l-6.27344 3.16797m5.35937-2.70703l1.0039.70703m12.6836-1.95313l-5.1875 4.7422m4.4336-4.05079l1.15625.41016m12.98828-1.01172l-5.33985 4.5625m4.5625-3.89844l1.14454.44922m10.82421-2.30469l-1.09375 6.9414m.9375-5.92968l1.16016-.39844m13.76563-.03125l-4 5.77735m3.41796-4.9336l1.21875.14063m8.5586-.89453l4.23828 5.60156m-3.6211-4.78906L396 450.59766m12.53906.0625l3.52344 6.07812m-3.01172-5.19531l.64844-1.03906m13.03906-.20703l1.75781 6.80468m10.4297-6.28515l4.01171 5.76562m8.20313-4.52734l6.21093 3.28906m-5.30468-2.8125l-.00391-1.22656m16.67578-.92578l-2.3125 6.63672"/><g clip-path="url(#J)"><path fill="none" stroke="#000" stroke-linecap="round" stroke-linejoin="round" stroke-miterlimit="10" stroke-width=".5" d="M147.11719 438.76172l-6.23438 3.24219"/></g><path fill="none" stroke="#000" stroke-linecap="round" stroke-linejoin="round" stroke-miterlimit="10" stroke-width=".5" d="M147.11719 438.76172l2.02344 1.39062m11.4414-1.05859l-6.53516 2.57813m6.53516-2.57813l1.86719 1.59375m11.6211-1.01953l-6.87891 1.42969m6.8789-1.4297l1.57031 1.88673m11.81641-1.30078l-7.02344.2578m7.02344-.2578l1.23047 2.125m11.89844-.86329l-6.65235-2.26171m5.6836 1.93359l.19922 1.21094m13.80468-.26172l-6.08984-3.50781m5.20313 2.99609l-.04297 1.22656m12.6289.74219l-2.85937-6.42188m2.4414 5.48829l-.7539.96484m13.41015.2539l-.70703-6.99218m.60547 5.97656l-1.01953.67969m15.45703.07422l-2.75-6.46875m18.08203 4.16015l-6.78125-1.84765m6.78125 1.84765l.53906 2.39453m12.07032-1.05468l-5.3711-4.53125m5.3711 4.53125l-.51563 2.39844m13.86719-2.44141l-5.4414-4.44531m4.64843 3.80078l-.23828 1.20312m12.9375.47656l-2.625-6.51562m2.24219 5.57031l-.78907.9375m16.55079-2.27734l-6.75391-1.9414m5.76953 1.65624l.2539 1.20313m14.14454-1.3789l-6.95313-1.02345m5.94141.875l.41406 1.15625m13.67578-2.8789l-6.47656 2.72265m5.53516-2.32812l.94922.77734m9.36718-3.2539l1.40235 6.88671m-1.19922-5.88671l.94531-.78125m12.05078-.19532l1.63281 6.83594m-1.39453-5.83984l.91797-.8125m9.46485 3.15625l7.02343.15625m-6.0039-.13282l-.55078-1.09375m17.35546-2.21875l-1.99609 6.73829m1.70703-5.75782l1.19922-.24609m13.23047-.3711l-3.64844 6.00782m3.11719-5.13281l1.22656.0703m13.35156-.35155l-5.10937 4.82421m4.36328-4.125l1.16406.39454m13.04297-.9297l-5.40234 4.4922m4.61719-3.83985l1.1328.46485m12.04688-1.89844l-3.5625 6.05469m3.04297-5.17188l1.22656.05078m13.03125-.64453l-4.40625 5.47656"/><g clip-path="url(#K)"><path fill="none" stroke="#000" stroke-linecap="round" stroke-linejoin="round" stroke-miterlimit="10" stroke-width=".5" d="M146.89453 425.07422l-5.78906 3.98828"/></g><path fill="none" stroke="#000" stroke-linecap="round" stroke-linejoin="round" stroke-miterlimit="10" stroke-width=".5" d="M146.89453 425.07422l2.17578 1.1289m-3.01953-.54687l1.08984.5625m13.16407-.99219l-5.98047 3.6836m5.98047-3.6836l2.11719 1.23828m11.59375-.33593l-6.76954 1.8789m5.78516-1.60547l.84375.89063m13.57813-.01172l-7.01563-.42578m5.9961.36328l.5078 1.11719m13.80079-.80078l-6.96485-.9336m5.95313.79688l.42578 1.15234m13.92578-1.23437l-7.01172-.4961m5.98828.42188l.5 1.1211m6.94141-.3711l6.78125-1.84766m8.64453 4.19531l2.5625-6.54296m-2.1914 5.58984l-1.21875.14453m14.48046.91797l1.92188-6.76172m-1.64063 5.77734l-1.19922.25782m13.8047.57422l2.78124-6.45313m-2.375 5.51172l-1.22656.10156m14.1875.85938l2.67969-6.4961m-2.29297 5.55078l-1.21875.1211m15.10547 1.07031l.76172-6.98828m-.65235 5.97266L289.0586 430m14.04297.51563l1.35547-6.89454m-1.15625 5.89063l-1.17578.35547m15.50781.67187l-1.07422-6.9414m16.83985 5.3164l-5.97657-3.6914m5.10938 3.15625l-.07813 1.22265m13.94141-4.8164l-5.33984 4.5664m4.5664-3.90234l1.14063.44922m6.84765 1.92969l6.86329-1.51954m8.6289-2.52343l2.50781 6.5664m10.46094-6.41015l3.20313 6.2539m-3.20313-6.2539l1.40235-2.01172m14.61718 1.80469l-2.20703 6.66796m2.20703-6.66796l2.42188-.41407m9.6289.23828l.32032 7.01954m-.27344-6l1.0586-.6211m14.17577.09766l-3.61328 6.02734m3.08985-5.14844l1.22265.0625m12.58985-.95703l-3.5586 6.0586m3.5586-6.0586l2.44922.10157m9.6328-.54297l-1.09374 6.9414m.9336-5.92968l1.16015-.40235m14.80469 1.09375l-6.07422 3.53516m5.1914-3.01953l1.04297.64453"/><g clip-path="url(#L)"><path fill="none" stroke="#000" stroke-linecap="round" stroke-linejoin="round" stroke-miterlimit="10" stroke-width=".5" d="M146.34766 411.14063l-4.69532 5.22656"/></g><path fill="none" stroke="#000" stroke-linecap="round" stroke-linejoin="round" stroke-miterlimit="10" stroke-width=".5" d="M146.34766 411.14063l2.3828.58984m-3.0664.16797l1.1914.29687m12.8125-1.05078l-4.70702 5.21484m4.70703-5.21484l2.38281.59766m10.67188-.8125l-4.1836 5.64843m3.57422-4.82812l1.21094.1836m10.47266-1.69141l.29687 7.02343m9.71875-2.83203l6.89453-1.35937m6.92188 2.59375l5.89453-3.82813m-5.03906 3.26953l-1.07032-.59375m13.8711 1.59766l5.21093-4.71875m-4.45312 4.03125l-1.15234-.41406m14.66406 1.84375l3.30078-6.20313m-2.82031 5.30079h-1.22657m14.46485 1.08593l2.4961-6.57031m-2.13282 5.61328l-1.21875.15235m14.1211.78515l2.59374-6.53125m-2.21875 5.58203l-1.21875.13282m13.95703.72656l2.9961-6.35547m-2.5625 5.4336l-1.22266.05859m14.92188 1.1328l1.35937-6.89452m-1.16016 5.89453l-1.17578.35547m16.32813.4414l-2.71094-6.48437m2.3164 5.53906l-.77734.94922m15.1172-.34766l-3.97267-5.79687m3.39454 4.95312l-.57032 1.08594m12.9922.33594l-1.02735-6.95313m.875 5.94141l-.98438.72656m14.8789.1914l-1.88671-6.76952m17.33203 5.08984l-6.14453-3.40625m16.55078-1.8086l-.32422 7.01954m11.94531-6.67188l3.0625 6.32422m-2.61718-5.40234l.72265-.99219m11.85938.22656l3.63672 6.01172m-3.63672-6.01172l1.2539-2.10546m13.61329 1.60937l.53125 7.00781m-.53125-7.00781l2.07421-1.3125m10.89454 1.35547l1.22656 6.92187m-1.22656-6.92187l1.93359-1.51172m11.42578 1.5039l1.13672 6.9336m-.97266-5.92187l.97657-.7461m12.29687-.28125l.89453 6.96875m-.76562-5.95703l1-.70703m14.09375-.01563l-2.92578 6.39063"/><g clip-path="url(#M)"><path fill="none" stroke="#000" stroke-linecap="round" stroke-linejoin="round" stroke-miterlimit="10" stroke-width=".5" d="M146.3164 397.79688l-4.6328 5.28125"/></g><path fill="none" stroke="#000" stroke-linecap="round" stroke-linejoin="round" stroke-miterlimit="10" stroke-width=".5" d="M146.3164 397.79688l2.39063.5625m-3.0625.20703l1.1914.28125m11.39063-1.80079l-1.82422 6.78516m1.82422-6.78515l2.39063-.55079m-2.65625 1.53516l1.19531-.27344m11.86328-.8125l-.78125 6.98438m.78125-6.98438l2.28125-.90234m-2.39453 1.91797l1.14063-.44922m11.60156-.57422l.59375 7m-.50781-5.98047l1.03125-.66797m8.98828 3.35938l7.01172-.42188m-5.9922.36328l-.64062-1.04687m13 1.58984l6.88672-1.38672m-6.88672 1.38672l-1.5586-1.89844m15.09767 2.60938l6.4375-2.8125m-5.50391 2.40234l-.96094-.76171m18.45313 2.72656l-3.78516-5.92188m15.25781 6.47656l-.10156-7.02734m.08594 6.0039l-1.07422.58985m12.77344.05469l3.16406-6.27344m-2.70313 5.36328l-1.22656.02344m13.73438.6875l3.85547-5.875m-3.29688 5.01953l-1.21875-.11328m15.1289 1.46094l1.54688-6.85547m-1.32031 5.85547l-1.1836.32422m15.8672.66406l-1.64063-6.83203m16.94531 5.52734l-5.6211-4.22265m4.80079 3.60546l-.1875 1.21485m13.78515-.03125l-4.54687-5.35938m3.88672 4.57813l-.45313 1.14062m14.70313-.61719l-5.09375-4.83984m4.35156 4.13281l-.32813 1.1836m15.25-2.0625l-6.82421-1.66797m17.84375-2.5l-2.23438 6.66406m16.82031-5.90625l-4.77734 5.15235m4.08203-4.40235l1.1875.3125m10.48828-2l-.10547 7.02735m.08985-6.00391l1.09375-.5625m11.58203-.41016l1.20312 6.92188m-1.02734-5.91406l.96875-.75391m12.28906-.27344l.96485 6.96094m-.96485-6.96094l1.98828-1.4375m10.69141 1.58985l2.23828 6.66015m-2.23828-6.66015l1.6875-1.78516m11.77734 1.73828l1.9375 6.7539m-1.65625-5.77343l.88282-.85156m16.6328 3.26171l-7.02733-.02734m6.0078.02344l.57032 1.08594"/><g clip-path="url(#N)"><path fill="none" stroke="#000" stroke-linecap="round" stroke-linejoin="round" stroke-miterlimit="10" stroke-width=".5" d="M146.38672 384.54297l-4.77344 5.16015"/></g><path fill="none" stroke="#000" stroke-linecap="round" stroke-linejoin="round" stroke-miterlimit="10" stroke-width=".5" d="M146.38672 384.54297l2.3711.6289m-3.06641.125l1.1875.3125m11.125-1.92968l-1.37891 6.89062m1.3789-6.89062l2.35157-.70703m-2.55078 1.70703l1.17187-.35156m12.73438-.54688l-2.16016 6.6836m2.16016-6.6836l2.41406-.42969m-2.73047 1.40235l1.21094-.21485m14.52734 1.10547l-6.375 2.95703m6.375-2.95703l1.95703 1.48047m-2.88672-1.05078l1.95704 1.48047m11.89453-2.5586l-5.58985 4.25391m4.77735-3.63672l1.11328.51563m11.92187 4.0664l-3.40234-6.14453m15.92969 6.46485l-1.82813-6.78516m14.82813-.07031l-1.19922 6.92578m11.95703-.54688l3.91406-5.83203m8.61719 5.11328l5.48438-4.39453m-4.6875 3.7539l-1.125-.48437m13.59765 1.0664l5.57422-4.27733m-4.76172 3.65625l-1.11719-.50782m15.41016 2.35938l1.9961-6.73828m-1.70704 5.7578l-1.20312.2461m15.21093.8789l.03125-7.02733m-.02734 6.0039l-1.08594.57422m17.85938-2.38672l-6.89453-1.35156m20.23047.11719l-6.9375 1.11328m5.92968-.95313l.73828.98047m12.65235 1.84766l-5.07422-4.86328m4.33594 4.15625l-.33203 1.17968m15.32421-3.41796l-6.94921 1.02734m19.17968-3.08985l-4.78125 5.15235m4.08594-4.40235l1.1875.31641M384.5 383.70703l-1.65625 6.83203m1.41406-5.83594l1.1875-.30468m11.86328-.77344l-.64453 6.9961m.55078-5.98048l1.12891-.47265m11.61719-.54297l.67968 6.9961m-.67968-6.9961l2.04297-1.35547m10.76562 1.44531l1.69531 6.82032m-1.6953-6.82032l1.82421-1.64062m10.86328 1.85937l2.94922 6.37891m-2.94922-6.3789l1.48047-1.95313m11.5664 2.09375l3.48438 6.10156m-2.97656-5.21484l.65234-1.03906m16.35938 5.70703l-4.92188-5.01172m4.20703 4.28515l-.37109 1.16797"/><g clip-path="url(#O)"><path fill="none" stroke="#000" stroke-linecap="round" stroke-linejoin="round" stroke-miterlimit="10" stroke-width=".5" d="M146.78516 371.66406l-5.57032 4.28906"/></g><path fill="none" stroke="#000" stroke-linecap="round" stroke-linejoin="round" stroke-miterlimit="10" stroke-width=".5" d="M146.78516 371.66406l2.23437 1.01563m-3.04687-.39063l1.11718.50781m12.83203-1.34375l-5.21484 4.71094m5.21484-4.71094l2.3086.83204m-3.0664-.14844l1.15234.41797m13.48437-.25781l-6.34375 3.02343m6.34375-3.02344l1.97266 1.46094m11.51562-1.02734l-6.6875 2.15234m6.6875-2.15234l1.76172 1.71094m11.2539-2.38672l-6.08984 3.50781m6.08985-3.50781l2.07812 1.30078m11.23438-1.3086l-6.08203 3.52344m6.08203-3.52344l2.08203 1.29688m11.35937-1.0586l-6.33593 3.04688m5.41406-2.60156l.98828.72656m10.59766 3.82813l-1.03516-6.95313m14.85547 3.47656l-.01953-.19921-.0586-.19141-.09375-.17578-.46093-.3789-.19141-.0586-.19922-.01953-.19922.01953-.1914.0586-.45703.3789-.09766.17578-.05469.1914-.01953.19922.01953.19922.05469.1914.09766.17579.45703.3789.1914.0586.19922.01953.19922-.01953.1914-.0586.46094-.3789.09375-.17578.0586-.1914.01953-.19923m8.84375-.66796l6.89844 1.33593m-5.89454-1.14062l-.35937-1.17578m13.38281 3.84765l5.47656-4.40234m-4.67968 3.76172l-1.1289-.48047m14.86327 2.08984l3.04297-6.33594m-3.04297 6.33594l-2.45312.09766m16.83984.21875l.89844-6.96875m-.89844 6.96875l-2.29687.86328m18.5078-1.82813l-4.89452-5.04296m4.1836 4.3125l-.37891 1.16796m14.6914-.75l-5.46875-4.41406m4.67188 3.76953l-.23047 1.20704m14.9375-1.64454l-6.65625-2.25m5.6875 1.92188l.19922 1.21094m13.24218-4.4922l-4.96875 4.96876m4.2422-4.2461l1.17577.35938M372.5 371.02344l-4.28906 5.5664m3.66406-4.7539l1.21094.20312m11.89062-1.49219l-2.60937 6.52344m2.23047-5.57422l1.21875-.1328m12.03125-.96095l-1.72266 6.8125m1.47266-5.8203l1.1914-.29298m11.58203-.80469l-.13671 7.02344m.11718-6.0039l1.09375-.5547m12.32032-.46483l-.29688 7.02343m.2539-6l1.10548-.53125m12.10156-.4961v7.02735m0-6.0039l1.08594-.57422m13.59375-.17188l-2.72657 6.47656m2.33203-5.53515l1.22266-.10938m13.52344 4.97266l-4.80078-5.13281m4.10156 4.38672l-.39453 1.16015"/><g clip-path="url(#P)"><path fill="none" stroke="#000" stroke-linecap="round" stroke-linejoin="round" stroke-miterlimit="10" stroke-width=".5" d="M147.13672 358.91016l-6.27344 3.16796"/></g><path fill="none" stroke="#000" stroke-linecap="round" stroke-linejoin="round" stroke-miterlimit="10" stroke-width=".5" d="M147.13672 358.91016l2.0039 1.41406m-2.91796-.95313l1.0039.70704m12.82813-1.78125l-5.48047 4.39453m5.48047-4.39454l2.2539.96875m11.54297-.17578l-6.4414 2.8047m6.4414-2.8047l1.92188 1.52735m11.27734-1.76563l-6.21094 3.28516m6.21094-3.28516l2.03125 1.375m10.79297-2.07812l-5.23047 4.6914m5.23047-4.6914l2.30469.84375m10.79297-1.0664l-4.79297 5.13671m4.09375-4.39063l1.1875.31641m13.36328-.42578l-5.86719 3.86328m5.01563-3.30078l1.07422.58594m13.67187.67187l-7.02344.22266m6-.1914l.60938 1.0664m13.69531-.5l-6.95703-.97656m5.94531.83593l.41797 1.15235m11.45313-1.5l-.01954-.19922-.05859-.1914-.09375-.17579-.46094-.3789-.1914-.0547-.19922-.01952-.19922.01953-.1914.05469-.46094.3789-.09375.17578-.0586.1914-.01953.19923.01953.19922.0586.1914.09375.17969.46093.375.1914.0586.19923.01952.19922-.01953.1914-.05859.46094-.375.09375-.17969.0586-.1914.01952-.19922m14.37891 2.82812l-4.17578-5.65234m3.5664 4.82812l-.52734 1.10938m13.34375.26172l-1.96093-6.75m1.67578 5.76953l-.87891.85547m14.03906.22265l-1.08203-6.9414m.92578 5.92969l-.98047.73828m15.8086-.23829l-3.79297-5.91796m3.24219 5.05468l-.60157 1.07032m15.125-.75391l-5.10937-4.82422m13.5625-.23828l4.61719 5.29688m9.26953-5.70313l3.47265 6.10938m-2.96875-5.21875l.65625-1.03516m13.34375-.26953l1.09375 6.9414m-.93359-5.93359l.98047-.73438m14.10156-.03515l-2.75781 6.46484m2.35547-5.52344l1.22265-.10546m13.58985-.10157l-4.94922 4.9922m4.94922-4.9922l2.34765.70704m11.32813-.28516l-5.66797 4.15234m5.66797-4.15234l2.20703 1.0664m11.21875-.90625l-5.89063 3.82813m5.89063-3.82813l2.14453 1.1875m11.13281-1.24218l-5.8164 3.9414m4.96875-3.36718l1.08594.5703m13.08984-1.1289l-5.83985 3.90625m4.98829-3.33594l1.08203.57813m13.67187.63281l-7.01953.34766m6-.29688l.6289 1.0547"/><g clip-path="url(#Q)"><path fill="none" stroke="#000" stroke-linecap="round" stroke-linejoin="round" stroke-miterlimit="10" stroke-width=".5" d="M147.27344 345.90625l-6.54688 2.54297"/></g><path fill="none" stroke="#000" stroke-linecap="round" stroke-linejoin="round" stroke-miterlimit="10" stroke-width=".5" d="M147.27344 345.90625l1.85937 1.60156m11.39063-1.76562l-6.41406 2.8711m6.41406-2.8711l1.9336 1.50781m10.8203-2.38281l-5.29297 4.625m5.29297-4.625l2.29297.8711m8.5664-2.07032l-.3828 7.01953m.32812-5.9961l1.10938-.51562m10.92578-.32031l2.28515 6.64453m-1.95312-5.67578l.83594-.89844m12.53515-.17969l1.51172 6.86329m-1.29297-5.86329l.9336-.79687m11.82812-.11328l2.17969 6.6836m-1.86328-5.71095l.85156-.8828m10.48438 1.0664l5.5039 4.3711m-4.70312-3.73438l.22656-1.20704m16.67187-.35546l-3.26562 6.22265m2.78906-5.3164l1.23047-.00782m9.48828 5.41797l2.8789-6.41015m13.22266 6.45312l-2.6875-6.49219m2.29688 5.54688l-.78125.94531m14.58203-.04297l-2.8789-6.41015m2.45703 5.47656l-.75.96875m15.60937-.83594l-5.125-4.8086m5.125 4.8086l-.64453 2.36719m-.10156-3.0664l-.32032 1.18359m14.20313-.3047l-4.76953-5.16405m4.76953 5.16406l-.8125 2.3125m12.94531-8.19922l-2.40234 6.60547m12.46875-6.16016l4.09375 5.71485m-4.09375-5.71485l1.08984-2.19531m12.58594 1.97266l3.3711 6.16406m-2.88282-5.26953l.67578-1.02344m16.82422 1.35938l-5.97266 3.70312m19.6211-2.9961l-6.64453 2.28516m5.67968-1.95312l.89844.83594m13.5039-.72657l-6.88671 1.40235m5.88281-1.19922l.78125.94922m13.50781-1.27735l-6.82812 1.65625m6.82812-1.65625l1.63282 1.83203m-2.625-1.59375l.8164.91797m13.46485-1.25781l-6.77735 1.85547m6.77735-1.85547l1.68359 1.78516m-2.66797-1.51563l.83985.89453m13.3203-1.57812l-6.49609 2.6836m6.4961-2.6836l1.89062 1.5625m-2.83593-1.17188l.9453.78125M453.5 345.84766l-6.5039 2.66015m6.5039-2.66015l1.88672 1.5703m11.45703-1.5l-6.5625 2.51954"/><g clip-path="url(#R)"><path fill="none" stroke="#000" stroke-linecap="round" stroke-linejoin="round" stroke-miterlimit="10" stroke-width=".5" d="M466.84375 345.91797l1.85156 1.61328"/></g><g clip-path="url(#S)"><path fill="none" stroke="#000" stroke-linecap="round" stroke-linejoin="round" stroke-miterlimit="10" stroke-width=".5" d="M147.5 333.57031l-7 .58203"/></g><path fill="none" stroke="#000" stroke-linecap="round" stroke-linejoin="round" stroke-miterlimit="10" stroke-width=".5" d="M147.5 333.57031l1.32813 2.0664m11.90234-2.60546l-6.82813 1.66406m6.82813-1.66406l1.6289 1.83203m-2.625-1.58984l.81641.91406m12.85547-2.47656l-5.55469 4.30469m5.55469-4.3047l2.23828 1.00782m9.65234-2.09766l-2.70312 6.48438m2.70313-6.48438l2.4453-.23046m9.90235-.01954l-.76953 6.98438m.76953-6.98438l2.28125-.91015m9.4375 1.10547l2.42578 6.59375m-2.42578-6.59375l1.63281-1.82813m10.03125 3.08594l5.72266 4.07812m-5.72266-4.07812l.32032-2.4336m12.34375 4.48829l7.02734-.03125m-6.0039.02734l-.58204-1.08203M247.19531 335l6.64844-2.27344m-5.67969 1.9414l-.89453-.83983m19.65625 1.71093l-6.17969-3.35156m5.28125 2.86328l-.01171 1.22656m13.66796.01954l-5.0664-4.8672m5.0664 4.8672l-.66797 2.35937m13.86329-2.24219l-4.82813-5.10547m4.82813 5.10547l-.78125 2.32813m.07812-3.07031l-.39062 1.16406m15.02734-1.19922l-6.0625-3.54688m6.0625 3.54688l-.10156 2.45312m13.89453-4.38671l-7.01953.3164m6-.26953l.6211 1.0586m12.73437-3.38282l-5.0625 4.875m4.32421-4.16797l1.16797.38281m9.98438-2.14843l.74219 6.98828m-.63282-5.96875l1.01563-.6875m9.34765 1.7461l6.4297 2.83593m-5.4961-2.42188l-.08985-1.22656m13.9922 5.3086l3.3828-6.16016m15.11329 3.5039l-6.97657-.84765m5.96094.72656l.4414 1.14453m13.81641-.625l-6.83203-1.64062m5.83985 1.40234l.30468 1.1875m14.04688-1.16406l-6.92188-1.21094m6.92188 1.21094l.76172 2.33203m12.60547-3.04297l-7.02344.21094m7.02344-.21094l1.21484 2.1289m-2.23828-2.09765l.60937 1.0625m13.53125-2.15234l-6.6289 2.32812m6.6289-2.32812l1.8047 1.66406m-2.76954-1.32422l.90234.83203m13.27735-1.42578l-6.42969 2.83594m6.42969-2.83594l1.92969 1.51563m-2.8672-1.10547l1.9297 1.51562m12.2539-2.07421l-6.28906 3.1328"/><g clip-path="url(#T)"><path fill="none" stroke="#000" stroke-linecap="round" stroke-linejoin="round" stroke-miterlimit="10" stroke-width=".5" d="M466.70703 332.29688l1.9961 1.42578"/></g><path fill="none" stroke="#000" stroke-linecap="round" stroke-linejoin="round" stroke-miterlimit="10" stroke-width=".5" d="M465.79297 332.7539l.9961.71094"/><g clip-path="url(#U)"><path fill="none" stroke="#000" stroke-linecap="round" stroke-linejoin="round" stroke-miterlimit="10" stroke-width=".5" d="M147.44531 319.85156l-6.89062 1.39453"/></g><path fill="none" stroke="#000" stroke-linecap="round" stroke-linejoin="round" stroke-miterlimit="10" stroke-width=".5" d="M147.44531 319.85156l1.5586 1.89453m11.8203-1.375l-7.01952.35547m7.01953-.35547l1.25781 2.10547m11.65625-3.57031l-6.21484 3.28125m6.21484-3.28125l2.02734 1.3789m-2.93359-.90234l1.01563.6914m12.26562-2.28905l-4.33984 5.52734m4.33984-5.52734l2.41797.42968m-3.04688.375l1.20704.21485m13.1328-.66016l-5.125 4.8086m5.125-4.8086l2.32032.78906m10.08594-1.48437l-3.3125 6.19531m3.3125-6.19531l2.45312.0039m-2.93359.89844l1.22656.0039m11.2461-1.30468l-.66407 6.9961m.66407-6.9961l2.26562-.94531m7.22656 4.02734l6.98047.83203m-5.96484-.71093l-.4414-1.14454m13.87109 4.03907l4.72265-5.20313m-4.72265 5.20313l-2.37891-.60156m20.59766.42578l-5.08594-4.84766m4.34766 4.14063l-.33204 1.18359m13.38672.2539l-3.08984-6.3125m3.08984 6.3125l-1.4375 1.98829m14.64453-1.9375l-2.875-6.41016m2.875 6.41016l-1.5039 1.9375m16.88281-5.46485l-7 .64453m5.98047-.55078l.67187 1.02344m13.59766-1.52734l-6.8711 1.46484m6.8711-1.46484l1.57812 1.8789m11.45313-2.69922l-6.30469 3.10547m6.30469-3.10547l1.99219 1.4336m11.01562-1.94531l-5.6875 4.1289m5.6875-4.1289l2.20313 1.07812m6.5625-2.08594l3.41015 6.14453m-2.91406-5.25l.66797-1.03125m14.8789 3.20704l-.01953-.19922-.05859-.19141-.09375-.17578-.46094-.3789-.1914-.0547-.19922-.01953-.19922.01954-.1914.05468-.45704.3789-.09765.17579-.0586.1914-.01953.19923.01953.19921.0586.19141.09765.17969.45703.375.19141.0586.19922.01952.19922-.01953.1914-.0586.46094-.375.09375-.17968.0586-.1914.01953-.19923m15.65234-1.02734l-6.71875 2.0586m5.74219-1.75782l.86718.86719m11.8086 2.91016l-3.48828-6.10157m2.98047 5.21485l-.65625 1.03906m13.6953.17969l-1.91796-6.76172m1.63672 5.77734l-.88281.84766m15.91406-.67578l-4.79297-5.14063m4.09766 4.39453l-.40235 1.16016m15.34375-4.11328l-6.65234 2.25781m5.6836-1.92969l.89452.83985m13.52344-.65235l-6.91797 1.23047m6.91797-1.23047l1.51172 1.9297m-2.51953-1.75392l.75781.96875m13.02734-2.48046l-5.84765 3.89843"/><g clip-path="url(#V)"><path fill="none" stroke="#000" stroke-linecap="round" stroke-linejoin="round" stroke-miterlimit="10" stroke-width=".5" d="M466.48438 318.59766l2.16015 1.16406"/></g><g clip-path="url(#W)"><path fill="none" stroke="#000" stroke-linecap="round" stroke-linejoin="round" stroke-miterlimit="10" stroke-width=".5" d="M465.63281 319.16797l2.16016 1.16015"/></g><path fill="#00f" fill-rule="evenodd" d="M383.80078 432.14063h8.61719v-10.14454h-8.61719v10.14454"/><path fill="azure" fill-rule="evenodd" d="M385.63281 423.82813h.83203v2.82421h3.28907v-2.82421h.83203v6.48046h-.83203v-2.91796h-3.28907v2.91796h-.83203v-6.48046"/><path fill="#ff3030" fill-rule="evenodd" d="M451.07031 405.51172h7.6914v-10.14453h-7.6914v10.14453"/><path fill="azure" fill-rule="evenodd" d="M452.90234 397.19922h.83204v5.73828h3.1953v.74219h-4.02734v-6.48047"/><path fill="#00f" fill-rule="evenodd" d="M370.48438 396.63281h8.62109v-10.14453h-8.6211v10.14453"/><path fill="azure" fill-rule="evenodd" d="M372.3164 388.32031h.83594v2.82422h3.28516v-2.82422h.83203v6.48047h-.83203v-2.91406h-3.28516v2.91406h-.83593v-6.48047"/><path fill="#ff3030" fill-rule="evenodd" d="M273.53516 370.0039h7.6914v-10.14452h-7.6914v10.14453"/><path fill="azure" fill-rule="evenodd" d="M275.36719 361.6914h.83594v5.73829h3.1914v.74219h-4.02734v-6.48047"/><path fill="#ffffe0" fill-rule="evenodd" d="M395.0039 410.83594h22.1797v-10.1914h-22.1797v10.1914"/><path fill-rule="evenodd" d="M398.5039 402.47656h.50782v6.29688h-.78516v-4.49219h-1.39062v-.55469l.5625-.0664.25-.05079.23047-.08984.20312-.14453.17578-.20703.14063-.29688.10547-.39453m4.8125 0l.23046.01953.21875.0547.20704.08983.19921.1211.1836.14844.17187.17578.30079.42187.24218.49219.17969.54688.11328.57812.03516.58984-.03516.59375-.11328.58594-.17969.55469-.24219.5-.30078.42969-.17187.17968-.1836.15235-.19921.125-.20704.08984-.21875.0586-.23046.01953-.22657-.01954-.22265-.05859-.20703-.08984-.19532-.125-.18359-.15235-.17188-.17968-.30078-.4297-.24609-.5-.17969-.55468-.10937-.58594-.03906-.59375h.83203l.03125.56641.08203.5039.125.44141.16015.375.19141.30078.21094.22266.22265.13672.22657.04687.22656-.04687.22265-.13672.21094-.22266.1914-.30078.16407-.375.125-.4414.08203-.50391.02735-.5664-.02735-.5586-.08203-.5-.125-.4375-.16406-.36328-.1914-.29297-.21094-.21484-.22266-.13282-.22656-.04296-.22657.04296-.22265.13282-.21094.21484-.1914.29297-.16016.36328-.125.4375-.08203.5-.03125.5586h-.83204l.03907-.58985.10937-.57813.17969-.54687.2461-.49219.30077-.42187.17188-.17578.1836-.14844.1953-.1211.20704-.08984.22265-.05469.22657-.01953m4.95312 0l.23047.01953.21875.0547.20703.08983.19531.1211.1875.14844.16797.17578.30469.42187.24219.49219.17969.54688.11328.57812.03515.58984-.03515.59375-.11329.58594-.17968.55469-.24219.5-.30469.42969-.16797.17968-.1875.15235-.1953.125-.20704.08984-.21875.0586-.23047.01953-.23047-.01954-.21875-.05859-.20703-.08984-.19531-.125-.1836-.15235-.17187-.17968-.30078-.4297-.2461-.5-.17968-.55468-.10938-.58594-.03906-.59375h.83203l.03125.56641.07813.5039.1289.44141.16016.375.1914.30078.21094.22266.22266.13672.22656.04687.22656-.04687.22266-.13672.21094-.22266.1914-.30078.16016-.375.1289-.4414.08204-.50391.02734-.5664-.02734-.5586-.08203-.5-.12891-.4375-.16016-.36328-.1914-.29297-.21094-.21484-.22266-.13282-.22656-.04296-.22656.04296-.22266.13282-.21094.21484-.1914.29297-.16016.36328-.1289.4375-.07813.5-.03125.5586h-.83203l.03906-.58985.10938-.57813.17969-.54687.24609-.49219.30078-.42187.17188-.17578.18359-.14844.19531-.1211.20703-.08984.21875-.05469.23047-.01953m4.95313 0l.38671.02735.35938.08203.32031.13672.28125.1875.23047.23828.17188.28515.10937.33204.03906.3789-.02343.27344-.0547.23437-.08983.19922-.10938.17188-.1289.14453-.14063.1211-.28906.1953.23437.1211.20703.14453.1836.17188.15234.1953.125.21094.08984.23047.0547.2461.01952.2539-.03515.3086-.10157.32812-.17187.32422-.24219.30469-.30469.26953-.375.21484-.21093.08204-.23047.0625-.24219.03515-.26172.01563-.25781-.01563-.24219-.03515-.22265-.0625-.20704-.08204-.35937-.21484-.28906-.26953-.22266-.30469-.15625-.32422-.09375-.32812-.03125-.3086h.83203l.02735.25391.07812.23438.1211.21093.16015.1875.19531.15235.21875.11328.24219.07422.2539.02343.25391-.02343.24219-.07422.21875-.11328.19531-.15235.16016-.1875.1211-.21094.07812-.23437.02734-.2539-.02734-.25391-.07813-.23438-.1211-.21094-.16015-.1875-.19531-.14843-.21875-.11719-.24219-.07031-.2539-.02735-.25391.02735-.24219.07031-.21875.11719-.19531.14844-.16016.1875-.12109.21093-.07813.23438-.02734.2539h-.83203l.01953-.2539.05469-.23828.08984-.22657.125-.20703.15235-.1914.18359-.17188.20703-.15234.23047-.13281-.28516-.19532-.14062-.1211-.1289-.14452-.10938-.17188-.08985-.19922-.05859-.23437-.01953-.27344h.78906l.01953.21485.0664.1875.10548.16796.13672.14063.16406.10937.1914.08204.20704.05078.21875.01562.21875-.01562.20703-.05079.1914-.08203.16407-.10937.13671-.14063.10547-.16796.0625-.1875.02344-.21485-.02344-.21484-.0625-.1914-.10546-.16798-.13672-.14062-.16407-.10938-.1914-.08203-.20703-.05078-.21875-.01563-.21875.01563-.20704.05078-.1914.08203-.16406.10938-.13672.14062-.10547.16797-.0664.1914-.01954.21485h-.78906l.03906-.3789.10938-.33204.17187-.28515.23047-.23828.27734-.1875.32422-.13672.35938-.08203.38672-.02735"/><path fill="#ffffe0" fill-rule="evenodd" d="M235.78125 361.35938h22.17969v-10.19141h-22.17969v10.1914"/><path fill-rule="evenodd" d="M239.27734 353h.51172v6.29297H239v-4.48828h-1.38672V354.25l.5586-.0664.2539-.05079.23047-.08984.20313-.14453.17187-.20703.14063-.29688.10546-.39453m4.81641 0l.23047.01953.21875.05469.20703.08984.19531.1211.1836.14843.17187.17579.30078.42187.2461.49219.17968.54687.10938.57813.03906.58984-.03906.59375-.10938.58594-.17968.55469-.2461.5-.30078.42968-.17187.1797-.1836.15233-.19531.125-.20703.08985-.21875.0586-.23047.01952-.23047-.01953-.21875-.0586-.20703-.08983-.19531-.125-.1875-.15235-.17188-.17969-.30078-.42968-.24219-.5-.17968-.5547-.11328-.58593-.03516-.59375h.83203l.02734.5664.08203.50391.125.44141.16407.375.1914.30078.21094.22266.22266.13672.22656.04687.22656-.04687.22266-.13672.21094-.22266.1914-.30078.16016-.375.125-.4414.08203-.50391.03125-.5664-.03125-.5586-.08203-.5-.125-.4375-.16016-.36328-.1914-.29297-.21094-.21485-.22266-.1328-.22656-.04298-.22656.04297-.22266.13281-.21094.21485-.1914.29297-.16406.36328-.125.4375-.08204.5-.02734.5586h-.83203l.03516-.58985.11328-.57813.17968-.54687.2422-.49219.30077-.42188.17188-.17578.1875-.14843.19531-.1211.20703-.08984.21875-.05469.23047-.01953m4.95313 0l.22656.01953.21875.05469.21094.08984.1953.1211.1836.14843.17188.17579.30078.42187.2461.49219.17968.54687.10937.57813.03907.58984-.03907.59375-.10937.58594-.17969.55469-.2461.5-.30077.42968-.17188.1797-.1836.15233-.1953.125-.21094.08985-.21875.0586-.22656.01952-.23047-.01953-.21875-.0586-.20703-.08983-.19922-.125-.1836-.15235-.17187-.17969-.30078-.42968-.2422-.5-.17968-.5547-.11328-.58593-.03906-.59375h.83594l.02734.5664.08203.50391.125.44141.16406.375.1914.30078.21095.22266.22265.13672.22656.04687.22657-.04687.22265-.13672.21094-.22266.1875-.30078.16406-.375.125-.4414.08203-.50391.03125-.5664-.03125-.5586-.08203-.5-.125-.4375-.16406-.36328-.1875-.29297-.21094-.21485-.22265-.1328-.22656-.04298-.22657.04297-.22265.13281-.21094.21485-.1914.29297-.16407.36328-.125.4375-.08203.5-.02734.5586h-.83594l.03906-.58985.11328-.57813.17969-.54687.24219-.49219.30078-.42188.17187-.17578.1836-.14843.19922-.1211.20703-.08984.21875-.05469.23047-.01953M254 353l.38672.02734.35547.08204.32422.13671.28125.1875.22656.23829.17578.28515.10938.33203.03515.3789-.01953.27345-.0586.23437-.08593.19922-.11328.17188-.1289.14453-.14063.12109-.28516.19531.23047.1211.21094.14453.17968.17187.15625.19531.1211.21094.08984.23047.0586.2461.01953.2539-.03516.3086-.10547.32812-.17187.32422-.23828.30469-.3086.26953-.3711.21484-.21484.08203-.22656.0625-.2461.03516-.2578.01562-.26172-.01562-.2422-.03516-.22265-.0625-.20703-.08203-.35547-.21484-.29297-.26953-.22265-.3047-.15625-.32421-.09375-.32813-.03125-.30859h.83594l.02734.2539.07812.23438.1211.21094.16015.1875.19141.15234.22266.11329.23828.07421.25781.02344.2539-.02344.23829-.07421.22265-.11329.19141-.15234.16016-.1875.12109-.21094.07813-.23437.02734-.2539-.02734-.25392-.07813-.23437-.1211-.21094-.16015-.1875-.1914-.15234-.22266-.11328-.23828-.07031-.25391-.02735-.25781.02735-.23828.0703-.22266.11329-.1914.15234-.16016.1875-.1211.21094-.07812.23438-.02734.2539h-.83594l.01953-.2539.0586-.23829.08984-.22656.125-.20703.15234-.1914.17969-.17188.21094-.15235.23046-.1328-.28515-.19532-.14063-.1211-.1289-.14452-.11328-.17188-.08594-.19922-.0586-.23437-.01953-.27344h.78516l.02344.21094.0664.1914.10156.16797.14063.14063.16406.10937.1875.08203.20703.05078.22266.01563.21875-.01563.20703-.05078.1875-.08203.16406-.10937.14063-.14063.10156-.16797.0664-.1914.02345-.21094-.02344-.21485-.0664-.1914-.10157-.16797-.14063-.14063-.16406-.10937-.1875-.08203-.20703-.05078L254 353.6953l-.22266.01563-.20703.05078-.1875.08203-.16406.10938-.14063.14062-.10156.16797-.0664.1914-.02344.21485h-.78516l.03516-.3789.10937-.33204.17578-.28515.22657-.23829.28125-.1875.32422-.13671.35547-.08204L254 353"/><path fill="#ffffe0" fill-rule="evenodd" d="M337.30469 324.98828h22.17969v-10.1914h-22.1797v10.1914"/><path fill-rule="evenodd" d="M340.80469 316.6289h.50781v6.29688h-.78516v-4.49219h-1.39062v-.55468l.5625-.06641.25-.05078.23047-.08985.20312-.14062.17578-.21094.14063-.29687.10547-.39453m4.8125 0l.23047.01953.21875.05469.20703.08984.19922.1211.18359.14843.17188.17578.30078.42188.24218.49218.1797.54688.11327.57812.03906.59375-.03906.58985-.11328.58594-.17969.55468-.24218.5-.30079.42969-.17187.17969-.1836.15234-.19921.125-.20703.08985-.21875.05859-.23047.01953-.22656-.01953-.21875-.0586-.21094-.08984-.19531-.125-.1836-.15234-.17187-.17969-.30079-.42969-.24218-.5-.1836-.55469-.10937-.58593-.03906-.58985h.83203l.03125.5625.08203.50391.125.44531.16406.3711.1875.30078.21094.22265.22265.13672.22657.04688.22656-.04688.22266-.13672.21093-.22265.19141-.30078.16406-.3711.125-.44531.08203-.5039.02735-.5625-.02735-.5625-.08203-.5-.125-.4375-.16406-.36329-.1914-.29297-.21094-.21484-.22266-.13281-.22656-.04297-.22656.04297-.22266.13281-.21094.21484-.1875.29297-.16406.36328-.125.4375-.08203.5-.03125.5625h-.83203l.03906-.59375.10937-.57812.1836-.54688.24219-.49218.30078-.42188.17187-.17578.1836-.14844.1953-.1211.21094-.08983.21875-.0547.22657-.01952m5.09375 0h.50781v6.29687h-.78516v-4.49219h-1.39062v-.55468l.5625-.06641.25-.05078.23047-.08985.20312-.14062.17188-.21094.14453-.29687.10547-.39453m2.82422 2.17578h.78515l.01953-.3164.0586-.28517.10156-.2539.14063-.21485.17968-.17187.22266-.1289.26562-.08204.3086-.02734.23828.01953.22265.0625.20313.10156.17969.14063.14844.17187.11328.20703.0703.23438.02735.26562-.02344.26954-.0664.22265-.10938.1914-.15234.17188-.20313.16406-.24609.16407-.63281.39062-.53906.3125-.4375.3164-.34766.32423-.26172.33594-.1914.35156-.125.3711-.07032.39062-.01953.42187h4.21094v-.74219h-3.33203l.08203-.28515.11719-.23438.14843-.20312.1836-.17969.23437-.17188.27735-.17578.71484-.41406.41797-.20703.34375-.23047.28125-.25.21875-.26953.16406-.27734.11328-.28516.0625-.28516.01953-.28125-.04296-.3828-.1172-.34767-.1914-.30859-.25-.26172-.30078-.21094-.34766-.16015-.3789-.09766-.40625-.03515-.4375.03515-.39453.09766-.35547.16406-.30469.23438-.25.30468-.1836.375-.11718.44532-.03906.51953"/></g></defs><use xlink:href="#X"/></svg>