<svg xmlns="http://www.w3.org/2000/svg" role="img" xmlns:xlink="http://www.w3.org/1999/xlink" viewBox="142.45 309.95 326.84 171.84"><defs><clipPath id="a"><path d="M144 311.67188h1v168.65625h-1zm0 0"/></clipPath><clipPath id="b"><path d="M144 311.67188h324v168.65625H144zm0 0"/></clipPath><clipPath id="c"><path d="M467 311.67188h1v168.65625h-1zm0 0"/></clipPath><clipPath id="d"><path d="M144 476h2v4.32813h-2zm0 0"/></clipPath><clipPath id="e"><path d="M156 476h3v4.32813h-3zm0 0"/></clipPath><clipPath id="f"><path d="M169 476h3v4.32813h-3zm0 0"/></clipPath><clipPath id="g"><path d="M182 476h4v4.32813h-4zm0 0"/></clipPath><clipPath id="h"><path d="M195 476h4v4.32813h-4zm0 0"/></clipPath><clipPath id="i"><path d="M208 477h5v3.32813h-5zm0 0"/></clipPath><clipPath id="j"><path d="M220 478h8v2.32813h-8zm0 0"/></clipPath><clipPath id="k"><path d="M218 480h4v.32813h-4zm0 0"/></clipPath><clipPath id="l"><path d="M233 479h8v1.32813h-8zm0 0"/></clipPath><clipPath id="m"><path d="M231 479h4v1.32813h-4zm0 0"/></clipPath><clipPath id="n"><path d="M246 479h9v1.32813h-9zm0 0"/></clipPath><clipPath id="o"><path d="M245 477h3v3.32813h-3zm0 0"/></clipPath><clipPath id="p"><path d="M260 479h8v1.32813h-8zm0 0"/></clipPath><clipPath id="q"><path d="M273 478h8v2.32813h-8zm0 0"/></clipPath><clipPath id="r"><path d="M287 477h7v3.32813h-7zm0 0"/></clipPath><clipPath id="s"><path d="M301 477h6v3.32813h-6zm0 0"/></clipPath><clipPath id="t"><path d="M315 476h5v4.32813h-5zm0 0"/></clipPath><clipPath id="u"><path d="M328 477h5v3.32813h-5zm0 0"/></clipPath><clipPath id="v"><path d="M342 476h3v4.32813h-3zm0 0"/></clipPath><clipPath id="w"><path d="M356 476h2v4.32813h-2zm0 0"/></clipPath><clipPath id="x"><path d="M370 476h1v4.32813h-1zm0 0"/></clipPath><clipPath id="y"><path d="M382 476h3v4.32813h-3zm0 0"/></clipPath><clipPath id="z"><path d="M394 477h6v3.32813h-6zm0 0"/></clipPath><clipPath id="A"><path d="M407 477h7v3.32813h-7zm0 0"/></clipPath><clipPath id="B"><path d="M422 476h3v4.32813h-3zm0 0"/></clipPath><clipPath id="C"><path d="M436 476h2v4.32813h-2zm0 0"/></clipPath><clipPath id="D"><path d="M448 476h4v4.32813h-4zm0 0"/></clipPath><clipPath id="E"><path d="M461 476h5v4.32813h-5zm0 0"/></clipPath><clipPath id="F"><path d="M144 464h3v6h-3zm0 0"/></clipPath><clipPath id="G"><path d="M144 451h4v6h-4zm0 0"/></clipPath><clipPath id="H"><path d="M144 437h3v6h-3zm0 0"/></clipPath><clipPath id="I"><path d="M144 424h3v7h-3zm0 0"/></clipPath><clipPath id="J"><path d="M144 409h1v9h-1zm0 0"/></clipPath><clipPath id="K"><path d="M144 415h1v3h-1zm0 0"/></clipPath><clipPath id="L"><path d="M144 396h1v9h-1zm0 0"/></clipPath><clipPath id="M"><path d="M144 402h1v2h-1zm0 0"/></clipPath><clipPath id="N"><path d="M144 385h4v4h-4zm0 0"/></clipPath><clipPath id="O"><path d="M144 372h4v3h-4zm0 0"/></clipPath><clipPath id="P"><path d="M144 359h4v3h-4zm0 0"/></clipPath><clipPath id="Q"><path d="M144 346h4v2h-4zm0 0"/></clipPath><clipPath id="R"><path d="M144 332h4v3h-4zm0 0"/></clipPath><clipPath id="S"><path d="M144 318h3v6h-3zm0 0"/></clipPath><g id="T" clip-path="url(#clip1)"><path fill="#fff" fill-opacity="0" fill-rule="evenodd" d="M0 0h1000v1000H0zm0 0"/><path fill="#d3d3d3" fill-opacity="0" fill-rule="evenodd" d="M162.15234 355.86719l-.23437.29297.0586.23437.11718.17188.17578.23437.29297.34766.11328.0586.11719-.17188.0586-.23438.17577-.17578.46485-.17578h.69922l.23437.29297.28906.8164.0586.17579.17578.23046.35156.23438.69922.69922.17188.17578.23437.34765.23438.41016.28906.58203.41015.46485.23047.23437.23438.17578.11719.23047.17578.29297.17187 1.16406v.23438l.0586.28906.05859.11719.11719.11719.34765.41015.11719.17188.17578.17578.17578.23437.11719.17188.17188.35156.05859.23438.23437.40625.23438-.0586-.17578.17578-.0586.92969h-.58203l-.23437-.11328-.34766.11328-.11719.11719-.05859.29297-.0586.17578-.11718.17187-.46484.29297-.0586.23438-.0586.11328v.64453l.0586.17187v.41016l.0586.0586v.40624l.05859.40625.11719.17579.05859.05859.23047.64062-.0586.29297v.69922l-.05859.58203v.23438l-.0586.23047-.05468.35156v1.92187l.05469.1172h.42578l-.36719.11718-.02344.35156.89063 1.16797 1.74219.53906 1.33984.35938v.53906l.08984.8086.53516.71484 1.51953.26953.89063-.08594.08984 1.16406.53516.1797 1.16015-.1797 2.05469-.98437 1.16016-.36328 1.8789-.17578 1.69531-.1797-.17968.71876-1.51563.08594-1.25.08984-.80469.26953-1.07421.8086.26953.71875.53515.89843-.17968.625-.26563.8086.26563 1.07812.625.89844.80468.17969 1.25-.1797-.26562.72267.09766.5039.05468.29297v.17188l.0586.29296v.40625l.17578.1172.35156.11718h.40625l.29297-.17578.11328-.11719.0586-.11719.11718-.23047.0586-.17578.35156-.46484.23047-.17578.17578-.0586.17578.0586.0586.17578.11718.98828.05469.46875.0586.17188.11718.23437.17578.0586.8164.05859h.28907l.11719.23437.05859.40625.0586.35156v1.10547l.11718.29297.11719.34766.28906.69922.17578.35156.58203.7539.35157.17579.17187.0586.46875.23437.64063.46484.34765.23438.29297.17578.29297.05468.23047.0625.8164.34766.29297.17578.11328.17188.35157.35156.11719.17578.52343.64063v.28906l.0586.35156v.34766l.05859.35156.0586.28906.11718.0586.17188.05859h.17578l.58203.23437.17578.1172.17578.28905.17578.23438.11328.23437.29297.23047.11719.11719v.41016l.0586.05468.28906.23438.23437.11719.0586.11718.11718.17188.0586.11719.23047.23437.05859.17578.23437.0586.1172.05859-.1172.11328-.05859.11719v.11719l-.11719.29296-.11719.28907v.58203l.17579.11719.11718.05859.0586.11719.11719.11719.11328.05859.17578.34765.0586.35157.05858.40625v.17578l-.05859.17578-.11719.69922v.17187l.1172.17579.29296.29296h.40625l.17578.1172.11719.17187.11719.29296v.23438h-.52735l-.23047-.23438h-.23437l-.17578.0586-.0586.69922.0586.34765.11719.17579.17578.41015.11718.23047.28907.46875.17578.05469h.52344l.23437.0586.75781.64062.0586.29296v.23438l.05859.0586.23047.34765v.35156l-.11719.17188v.29297l.29297.28906.29297.17578.17187.0586.29297.17577.29297.1172.58203.40624.28906.23438.29297.17578.21875.16015.01563.01172.23047.17579.64062.52343.17578.23438.1172.17578.17577.17578.11328.17188v.64062l.1172.17578.46874.11719.58203.11719.23438.05859.23047.11328.29297.11719.11328.0586.58593.35156.28907.17187.17578.0625.17578.05469.17578.0586.69922.35155.28906.17579.23438.05468.28906.17578.23437.1172.64063.40624.29297.11719.17187.0586.23438.05859.41015.05859.23047.0586.23438.11718.0586.17188-.41017.17578.46875.0586.0586.29296.11328.23438.17578.05468.23438.0586.17578.05859.40625.11719.64062.23437.11719.17188.0586.23437v.17578l-.0586.1172-.0586.40624.23438.23438.11719.05859.34766.11719.64062.23047.17578.11718.28906.1172.17578.17577.23438.46485.58203 1.10546.17578.17579.34766.17578.17578.11719.35156.11718 1.04688.52344.23437.0586.46485.11327.29297.0586.46484.17578.75781.58203.23438.23438.34765.46484.17578.17578.28907.23438.8164.69921.29297.17579.28906.28906.29297.17578.29297.28906.69531.64063.17578.17578.29297.23437.28907.23438.46875.28906.64062.58203.34766.23438.23437.29297.34766.34765.35156.46485.9336.99218.34765.40625.11719.17579.23437.05859.11328.11719.64454.17578.23047.11328.23437.0586.29297.17577.23047.1172.9336.69921.40624.40625.23438.17578.40625.17578.23437.11719.8164.34766.34766.23437.23438.11719.29297.28906.23047.11719.7578.35156.35157.17188.23047.05859.29297.11719.23437.0586.8711.17577h.8164l.46875.23047.17188.0586.875.69921.46484.1172.29297.05858.17578.0586.23047.0586.46875.05859.34766.05859.35156.0586.40625.05859h.29297l.17187.0586v.23046l.17578.17578h.29297l.34766.0586.35156.05859.69922.11719h.64063l.46484-.23438.29297-.17578.17187-.11719.41016-.17187.28906-.17578.9336-.46485.46875-.29297.52343-.29296.46485-.17188.46484-.17578 1.05078-.46485.28906-.11718.41016-.11719.28906-.11719.52735-.17578 1.51562-.69922.58203-.34765.28907-.0586.29297-.0586.34765-.11718.875-.23047.35156-.11719h.11329l.23437-.05859.875-.23437.23438-.0586h.8125l.35156-.0586.8164-.11718.17188-.0586.35156-.05468.29297-.0586.23047-.05859.8164-.17578.17579-.0586h.34765l.23438-.05859.46484-.11718.75781-.17188.23438-.0586h.34765l.41016-.11718.28906-.0586 1.28516-.05859h.28906l.41016-.0586.23047-.05858h.17578l.875-.1172h.40625l.41015-.11718h.34766l.35156-.11328.8711-.0586h1.75l1.04687.28907.41016.11719.28906.11718.35156.11719.28907.11719 1.05078.17187.28906.0586h.29297l.29297.05859.17187.0586.41016.05859.17187.0586.1172.05858h.11718l.11719.0586.35156.0586h.11328l.41016.0664 1.92187.39453 1.92578.39453 1.51953.44922 1.69532.71875 2.14453.80469 1.60547-.71875 1.42968-.80469 1.16016-1.07813 1.25-.44921 3.03516-.71875 1.875-.35938 2.14453-1.34765 2.23437-1.25391 2.5-1.25781 1.69531-.44922 1.78516-.17969 1.16016-.26953.625.53906 1.33984-.26953.71485-.98828.98437-1.34375.44531-.17969.80469-.35937 1.875-.53907 1.78516-.44921 1.25-.26954 1.16015-.08984 1.69922-.08984 1.96094-.26954 1.25-.08984h.53906l.625-.08984h.89063l2.14453-.17969 2.41015-.17969 2.58985-.08984 1.69531.17969 1.60938.08984 1.42968.35938 1.16016.71875 1.875.98828 1.16015 1.52734.26563.71484.6289.08985.35548.89844.53515.53906.53516 1.52734 1.07422.35938h.53515l-.80469.53515.08985 1.70703.71484 2.69532.89063.80468.89453.98829.71484 1.2578 1.78516.53907 1.51953-.17969.35547 1.34375 1.60937-.80469.98047-.53906.26953.26953.31641-.21484.21875-.14453.80078.44922.44922-.35938h.35547l.53515-.26953.53907-.71875.53515-.26953.625-.98828 1.16016.44922.83984.3711 1.39454.61718 1.6953-.17969h1.60548l1.78515.08985.17969-1.70704.53516-1.34375.80468.26954.4922.84765.40233.40625-.08984.53906v.35938l.71485.44922.71093-.26953h1.42969l.35938.98828.4453 1.25781.71485 1.34375 1.25.6289 1.69531.62891.71485-.17969.17969-.53906.98046-.08984.44922.35937.08594 1.25782-.26563.6289-.53515.17969v.53906l.71484.98438.26563.53906.98437.98828.80078 1.07813-.26562.35937-.08985.89844-.625 2.33203-.35546 2.0664-.08985 1.79298-.17969.71875-.08984.53906v1.4375l-.98047 1.88281-.35937 1.70703-.53516.89844-.80469 1.16797-.26562.53906 2.05469 1.2539.08593.35938-.35546.53906-.08985-.17968v.80859l.08985 1.4375-.44532.71484-1.07422.09375-.26562.71485.53515.89844.8047.71875 1.16015.80859 1.33984.26953.44531.35938-.35546.44921-1.78907-.08984-1.25-.44922-.71484-.71875-.625-.08984-.17578 3.58984-.1875 1.3086h89.35937V311.70313h-55.26953v49.08203l.76172.125 3.28906.54296 2.02344 2.83594v2.7539l2.35156.33204 2.34766.33203h4.05078l-1.3789 4.16016-2.02344.70703-2.02344.70312-.54297.34375-2.59375 1.6172-.1875.11718-2.02344-2.07813-.73046-2.74218-2.67188-2.07813-1.375-3.5-.0664-.08203-1.95704-2.67188 2.75-1.41796v-49.08204H294.42187v91.41407l.1172.03125.1328.01172.07422.07421.10547.04688.08985.0586.08593.05859.08985.0586.29687.29687.0586.08984.03125.11719.02734.11719.01563.13671-.03125.1172-.0586.08983-.0586.08594-.04296.10547-.04688.10156-.02734.1211v.14453l.17578.26953.14844.14844.07422.08594.07422.07421.04296.10547.0625.08985.0586.08593.04297.10547.0586.08985.04687.10156.04296.10547.0586.08594.11719.17968.07421.07422.0625.08594.0586.08984.04297.10547.0586.08985.05858.08593.0625.08985.0586.08984.04297.10156.11719.17969.07421.07422.0586.08594.07422.07421.08984.0586.10547.04687h.14844l.1328-.01562.13282.01562.10156-.04687.07422-.07422.04688-.10156-.01563-.13281v-.14844l-.04687-.10547-.02735-.11719-.04687-.10156-.02735-.1211-.04296-.10156-.0625-.08984-.04297-.10156-.04297-.10547-.03125-.11719-.01563-.13281-.01171-.13672.08593-.0586.0586-.08593.12109-.03125.04297.10547.01562.1328v.1172l.0586.10156.0586.08984.08983.0586.14844.14843.0586.08985.04296.10547-.01171.10156.08593.0586.10547.04687.08594.0586.08984.05858.07422.07422-.11719.02735-.10546.04687-.08594.0586-.07422.07421-.0586.08985-.0625.08594-.02734.12109-.04687.10156-.04297.10547-.03125.11719-.01172.13281-.01563.13281v.14844l.02735.11719.04687.10547.04297.10156.0586.08984.07421.07422.08985.0586.07422.07421.08984.0586.0586.08984.04296.10547.04688.10156.11719.03125.1328.01563h.14845l.11718-.03125.10547.04297.04297.10547.04688.10156.02734.1211L299.5 410l.02734.11719.03125.1211.02735.11718.10547.04297.10156.04687.13281-.01562.14844.14844.0625.08593.07422.07422.07031.07422.08984.0625.10547.04297.10156.04297.1172.03125.13671.01562.11719-.03125.07422-.07422.02734-.11718-.01172-.13282-.03125-.12109-.02734-.11719.04297-.10547h.11719l.08984.0625.11719.02735h.14843l.13282.01562h.14843l.13282.01563.1328-.01563h.14845l.1328-.01562.13282-.01172.13672.01172.11719-.02735.13281-.01562.1914-.0586-.05859.17579-.01562.1328-.02735.1211-.01562.13281-.0586.08594-.1328.01563-.10548.04687-.10546.04297-.1172.03125-.11718.02735-.26563.03125h-.14843l-.13281.01562-.07422.07422.05859.08594.14844.14843.11719.1797.07421.0703.08985.0625.08984.0586.08594.0586.08984.05858.10156.04297.10547.0625.10547.04297.08594.0586.10547.04687.10156.04297.17969.11719.0586.08984-.04298.10156-.04687.10547.01562.13281.22266.22266.0586.08985.04296.10156.03125.1211.04297.10155.01563.13282.03125.11718.01171.13672.03125.11719.14844.14844.10156.04297.10547.04296.1172.03125.1328.01563.13672.01563h.11719l.11719-.03125.08984-.0586.04297-.10547.04688-.10156.04296-.10547.03125-.11719.01172-.1328v-.14845l-.01172-.1328-.01562-.13282-.03125-.11719-.04297-.10547-.04688-.10547-.04296-.10156-.04297-.10547-.01563-.13281.01563-.13281.02734-.11719.03125-.11719.02735-.1211.04687-.10155.08984-.0586.08594-.0625.07422-.07422.08984-.05859.22266-.22266.0586-.08593.07421-.07422.11719-.17969.0586-.08594v-.14844l-.07423-.07421-.10156-.04688-.10547-.04297-.10156-.04297-.0586-.08984-.04687-.10547-.02734-.11719.08984-.05859.11719-.03125.10156-.04297.17969-.11719.14844-.14843.01172-.13282-.01172-.10546-.08985-.0586-.1328.01563h-.14845l-.1328.01562-.13282-.01562-.1211-.03125-.08593-.0586-.07422-.07422-.0586-.08984-.0625-.08594-.11718-.17969-.0586-.08593.03125-.1211.08594-.05859.1211-.03125.05859-.08594v-.1211l-.03125-.11718-.0586-.08984-.05859-.08594-.04687-.10547-.02735-.11719-.01562-.1328.0586-.08985.07421-.07422.08984-.0586.1172-.17968.07421-.07422.0586-.08594.14843-.14844.1211-.03125.1328-.01562.13282.01562.07422.07422.04297.10547.01562.13281-.03125.1172-.11719.03124-.1328.01172-.14844.14844-.04297.10547-.04688.10156-.02734.1211-.03125.11718v.14844l.03125.11719.04297.10546.05859.08985.07422.07031.07422.07422.11719.03125.12109.02734.11719-.02734.1328-.01563h.1172l.08984.0586.07422.07422.04687.10546.0586.08594.10156.04688.13281.01562.10547.04297.08594.0586-.01172.10546-.07422.07422-.17969.11719-.05859.08984-.08984.0586-.07032.07422-.07421.07421-.0625.08985-.02735.11719-.01562.1328.01562.13282-.01562.13281v.14844l.01562.13281.02735.1172.03125.12108.07421.07422.08985.0586.08594.0586.08984.05858.11719.03125v.08594l-.10157.04688-.08984.0586-.26563.03124-.11718.02735h-.14844l-.10547.04296-.10156.04688-.0586.08984-.0625.23438-.01171.13281-.03125.1211-.01563.1328v.29298l-.01172.1328.01172.13673.01563.1328.1328.01563.13282.01172.1211.03125.08593.0586.07422.07421.04688.10547.04296.10157.01563.1328v.44532l-.01563.13281v.44532l.03125.26562.02735.11719.01562.13281.03125.11719.08594.21094.03125.26562v.14844l-.03125.11719-.02734.11718-.03125.1211-.02735.11719-.03125.11718-.03125.1211-.01171.1328-.01563.13282.08984.0586.1172-.03125.10155.01562.04688.10547-.03125.26562v.44141l-.04297.10547-.04688.10547-.04296.10156-.04297.10547-.0586.08594-.03125.12109-.04296.11719-.03125.11719-.01563.1328.01563.13282.05859.08984.10547.04688.08594.0586.05859.08593-.01172.13672-.03125.11719-.04297.10156v.44531l-.01562.13281v.14844l-.03125.11719-.04297.10547-.02735.11719-.04687.10546-.04297.10157-.03125.12109-.02734.11719-.03125.13281-.03125.11719-.02735.11719-.04297.10546-.03125.1172-.03125.12108-.01171.13282-.01563.13281v.29688l.02734.11718v.14844l.04688.39844.02734.11719.0586.08984.12109.03125h.14844l.13281-.01563.0586.08985v.11719l-.0586.08984-.08984.0586-.10157.04296-.10546.04688-.08985.05859-.08594.0586-.13671.01562-.1172-.03125-.1328-.01563-.10157.04688-.0625.08594-.01172.13671-.01562.13282-.03125.11719-.02735.11718-.01562.13281-.03125.1211v.29687l.01563.13282.03125.11718v.14844l.01171.13281v.14844l-.02734.11719-.04688.10156-.02734.1211-.03125.11718-.0586.08985-.07421.07421-.10156.04297-.10547.04688-.11719.02734-.1211.03125-.10156-.04687.0586-.08594.10547-.04688.02734-.11718.03125-.11719.02734-.1211.03125-.11718v-.14844l.01563-.13281-.03125-.11719-.04297-.10547-.10547.01563-.07422.07422-.10156.04296-.08984.0625-.07422.07422-.04297.10157-.01563.1328-.03125.1172L304.25 426l-.03125.11719-.02734.11719-.03125.12109-.02735.11719-.03125.11718-.04297.10547-.08984.0586h-.08984l-.1172-.03125-.03124-.08594.01562-.13672-.03125-.11719v-.14844l-.01171-.1328v-.14844l-.0625-.23438-.02735-.1211-.04297-.10156-.04687-.10546-.0586-.08594-.05859-.08985-.04297-.10546-.0625-.08594-.14844-.14844-.0703-.07422-.10548-.04687-.10547-.04297-.10156-.04297-.29687-.29688-.08985-.07421-.08594-.0586-.10546-.04297-.08985-.0625-.08594-.0586-.10546-.04296-.08985-.0586-.08594-.0625-.07421-.0703-.10547-.04688-.08594-.0586-.10547-.04296-.08984-.0625-.10156-.04297-.10547-.04297-.08594-.0586-.10547-.04687-.10547-.04297-.10156-.04687-.08985-.0586-.10156-.04297-.10547-.04296-.08984-.0625-.11719-.02735-.13281-.01562-.13281.01562H299.75l-.13281.01563-.11719-.03125-.08984-.0586-.07422-.07422-.08985-.05859-.10156-.04688h-.14844l-.12109-.02734-.10156-.04297-.07422-.07422-.11719-.17968-.08984-.0586-.10156-.04297-.08985-.0625-.10547-.04296-.08984-.0586-.08594-.0586-.10547-.04687-.0586-.08594-.05858-.08984-.04297-.10547-.04688-.10156-.07422-.07422-.08594-.0586-.07421-.07421-.08985-.0586-.22265-.22265-.04297-.10547-.03125-.26563.10547-.04296h.14453l.10547.04296.07421.07422.08985.0586.08594.0586.10546.04687.08985.05859.14844.14844.0703.07422.14845.14843.0625.08594.07421.07422.08594.0586.07422.07421.08985.0625.08984.0586.08594.05859.26953.17578.10156.04688.10547.04296.10156.04297.04688-.07421.05859-.08594.07422-.07422.07031-.07422.10547.04297.07422.07422.0586.08984.04296.10156.04688.10547.04296.10547.1211.02735.11719-.02735.07421-.08984.04297-.10547.0586-.08985.07422-.07421.10546-.04297.1172-.02735.1328.01172.08985.0586.14844.14843.05859.08985.04297.10547.04687.10156.04297.10547.04297.10156.10547.04688.10547.04296.13281.01563.08594-.0586.0586-.08984.07421-.07422.10547-.04297.11719.02735.10547.04687.10156.04297.10547.04297.10156.04688.17969.11718v.11719l-.01563.13281.01563.13281.01562.13672.0586.08594.10156.04688.1211.02734.11718.03125h.14844l.11719-.03125.05859-.08984.17969-.1172.05859-.08983.07422-.07422.0586-.08594.11718-.17969.17969-.11719.11719.03125.08984.0586.04297.07422-.01563.1328v.1172l.08985.05859h.14843l.13282-.01563.1328-.01171.26563-.03125.10547-.04297.11719-.03125.1211-.02735.07421-.07421.07031-.07422.0625-.08985-.01562-.10547-.04688-.10156-.10156-.04297-.10547-.01562-.11718.02734-.26563.03125h-.14844l-.07421-.07422-.08985-.0586-.11719-.03124-.11718-.02735-.13282-.01562h-.14843l-.13282.01563h-.29687l-.10547-.04688-.14844-.14844-.04297-.10156-.05859-.08984.22266-.22266.08593-.0586.10547-.04296.11719-.03125.13281-.01563.13281.01563.13672.01562.10157.04297.1328-.01172.08985-.0625.10156-.04297.0625-.08984-.04687-.10156-.08984-.0586-.1172-.03125-.10155-.04296-.0586-.08985-.0625-.08984v-.11719l.01563-.13281.10547-.04688.07421-.07031v-.1211l-.08984-.05859-.03125-.11719.08985-.05859.07421-.07422.04297-.10547.0586-.08984.04687-.10156.01563-.13281v-.14844l-.04688-.10547-.04297-.10156-.08984-.0586-.13281-.01562-.10157-.04297-.13671-.01563-.1172-.03125h-.4453l-.13282-.01562-.13281-.01172-.13281-.01563-.11719-.03125h-.14844l-.13281-.01562-.13281-.01172-.26563-.03125-.1211-.04297-.08593-.0586-.07422-.07421v-.14844l.01172-.13281.10547-.04688.10156-.04296.13281-.01563h.15235l.13281-.01562h.29297l.1211.03125.10156.04296.08984.0586.23438.0625.12109-.04688.08984-.05859.10156-.04297.13282-.01562.10547.04296.10156.04688.13281.01172.1211-.02735h.14453l.12109-.03125.11719-.02734.10547-.04687.07421-.07422.08594-.0586.14844-.14843.0586-.08594.04687-.10547.02734-.11719.01563-.10547-.10156-.04296-.08985-.0586-.11719-.03125-.10546-.04297-.08985-.0625-.07422-.08594-.07422-.07421-.10156-.04297-.10547-.04688-.10156-.04297-.0586-.08984-.04687-.10156-.08594-.21094-.0625-.08594-.05859-.08984-.07422-.07422-.08594-.0586h-.26953l-.11719.03126-.08984.05859-.10156.04297-.13281.01562-.10547-.01562-.02735-.11719-.0625-.08984-.11718-.03125-.10157-.04297-.14843-.14844-.03125-.11719-.01563-.10546.07422-.07422.17969-.1172.11719-.02733.11718-.03125.13672.01562.10156.04297.10547.04297.10156.04687.10547.04297.1172.03125.1328.01563.1172.02734.1328.01563.10547-.01563.08985-.0586-.07422-.07421-.10547-.04297-.07422-.07422-.07422-.08984-.14844-.14844-.08593-.0586-.08985-.05859-.07422-.07422-.08984-.0586-.10156-.04687-.1211-.02734-.10156-.04688-.10547-.04296-.11719-.03125-.10156-.04297-.1211-.03125h-.14843l-.11719.03125-.10546.04297-.08594.0625-.17969.11718-.08594.0586-.08984.0586-.10547.04687-.08594.05859-.10547.04297-.10156.04297-.10547.04687-.07422.07422-.05859.08985-.0586.08593-.04687.10547-.0586.08594-.07421.07422-.13281-.01172-.1172-.03125h-.11718l-.07422.07422-.08984.0586-.07422.07421-.08984.0586-.08594.05859-.10547.04687-.10156.04297-.13672.01563-.10156-.04297-.14844-.14844-.10547-.04688h-.08594l-.10547.04688-.10156.04297-.1211.03125-.11718-.03125-.07422-.07422v-.11719l.03125-.1211.07422-.0703.0586-.08985.07421-.07422.11719-.03125.10547-.04296h.29297l.13281-.01563.13672-.01563.10156-.04296.08985-.0586.10156-.04687.08984-.0586.13281-.01171.08985.05859.13281.01172.08984-.0586.08594-.05859.10547-.04297.08984-.0586.08594-.0625.08985-.05859.14843-.14843.0586-.08594.05859-.08985.10547-.04296.13281-.01563.11719.02735.1211.03125.05859-.0586.05859-.08984.03125-.26563.02734-.11719.10547.01172.13281.01563.10157-.04297.08984-.0586.0586-.08984.07421-.07422.0586-.08984.04687-.10156.01172-.13281-.01172-.13282-.04687-.10547-.14844-.14843-.0586-.08985-.05859-.08594-.04297-.10546v-.44532l.01563-.1328v-.14845l.01172-.1328-.0586-.0586-.08984.0586-.10156-.04298-.17969-.11719-.08594-.05859-.0625-.08984-.0586-.08985-.07421-.07421-.08594-.0586-.1211.03125-.10155.01172-.10547.04688-.08594.05859-.10547.04297-.14844.14844-.08984.05859-.08594.0586-.08984.0625-.10547.04296-.13281.01563v-.1211l.10547-.04297.11718-.03125.07422-.0703.04297-.10548v-.14844l-.02734-.11718-.14844-.14844-.13281-.01563h-.14844l-.11719.03125-.10547.04297-.10156.04297-.08984.0625-.11719.02735-.07422-.07422.01172-.13281-.04297-.10157-.04297-.10547-.08984-.05859-.11719.02734-.1211.03125-.11718.03125-.10156.04297-.1211.03125-.10156.04297-.10547.04297-.08984.0586-.10156.01562v-.11719l.01562-.13281-.0586-.08985-.07421.04297-.14844.14844-.0586.08985-.07421.07421-.04688.10547-.04296.10156-.07422.07422-.0586.08985-.07422.07422-.05859.08593-.07422.07422-.08984.0625-.07422.07031-.07422.07422-.10156.01563-.13281.01562-.10547-.04296v-.1211l.14843-.14844.04297-.10156.0586-.08984.04687-.10156.04297-.10547.0586-.08985.03124-.11719.04297-.10156.03125-.1211.02735-.11718.04687-.10547.04297-.10156.04297-.10547.07422-.07031.08984-.0625.08985-.0586.10156-.04296h.29687l.26563-.03125.10547-.04297-.07422-.07422-.11719-.03125-.10547-.04297-.08984-.0586-.10156-.04687-.08985-.0586-.10156-.04296-.10547-.04297-.08984-.0625-.08594-.0586-.10547-.04296-.10156-.04297-.1211-.03125-.11718-.03125-.10157-.04297L297.5 410.25l-.10156-.04297-.08985-.0586-.04296-.10546-.01563-.13281.10156-.04297.13281-.01563.13672.01563.13282-.01563.10156-.04297.0586-.08984.01562-.10547-.08985-.0586-.07421-.07421-.10157-.04297-.08984-.0586-.14844-.14843-.04297-.10547-.01562-.13281v-.29297l-.0586-.08985-.08984-.05859-.07422-.07422-.04297-.10547-.03125-.11718-.0586-.08985-.07421-.07422-.11719-.02734-.07422-.07422-.08984-.0586-.08984-.0625-.08594-.05859-.07422-.07421-.0586-.08594-.04687-.10547-.08594-.0586-.14843-.14843-.19532-.0586-.1328.01563-.10157.04297-.07422.07422-.04688.10156-.04296.10547-.0586.08984-.0586.08594-.29687.29687-.08984.0586h-.08594l-.0625-.08594-.04297-.10547.03125-.11719.0586-.08984.02734-.11719-.01172-.13281-.08984-.0625-.10547.04688-.11719.02734-.11719.03125-.26953.17578-.10156.04688-.11719.02734-.10546.04687-.08985.0586-.10156.04297-.0586-.08594-.04687-.10547.01563-.13281.04687-.10547.07031-.07422.07422-.07031.0586-.08985v-.14843l-.04297-.10547h-.23829l-.10156.04687-.03125.11719-.02734.11719-.03125.1211-.07422.04296-.13281.01563-.07422-.04688-.04297-.10156-.04297-.10547-.04687-.10156-.04297-.10547-.1211.03125-.10156.04297-.13281.01562-.11719.03125-.10547.04297-.08984.0586-.10156.04687-.1211.02734-.13281.01563-.10156-.04297-.0586-.08985-.04687-.10546-.04297-.10157-.04297-.10546v-.1172l.0586-.08984.08593-.05859.17969-.11719.10156-.04687.10547-.04297.10547-.0586.10156-.04296.08985-.0625.10156-.04297.10547-.0586.10156-.04687.08984-.0586.10547-.04296.10156-.04297.08985-.0625.10156-.04297.13672-.01563.11719.03125.10156.04297.1211.03125.10156.04297.10546.04688.10157.04296.10547.04297.10156.04688.10547.04297.10156.04297.10547.04687.08594.0586.10546.04296.1172.03125.10546.04297.10156.04688.08985.0586.10547.04296.10156.04297.10547.04687.11719.02735.10156.04687.1211.02735h.14843l.08594-.0586.01562-.10156.0586-.08984-.02735-.1172-.07422-.07421-.11719-.17969-.07421-.07422-.08985-.07421-.17969-.1172-.08593-.05859-.10547-.04296-.10156-.04688-.26954-.17578-.05859-.08985-.07422-.07421-.0586-.08985-.04296-.10156-.03125-.11719-.01563-.13672v-.5625l-.01171-.1328-.01563-.13282-.03125-.11719-.01562-.13281-.01172-.13281-.03125-.1211-.22266-.22265-.0586-.08594-.01562-.10547.03125-.11719.13281-.01562v-91.41406H172.9922v1.45312l-.0586.23438-.35156 1.05078-.17187.52343-.1172.34766-.17577.41016-.11719.17187-.23438.29297-.23046.0586h-.35157l-.11718.05859-.23047.40625v.29297l.11719.17578.23046.23047.1172.23437.64062.75781.29297.46485.17578.23437.23047.35156.23437.34766.64063.8164.17578.46485.17187.41016.11719.69531.17578.46875.11719 1.39844.0586.46484v.875l.11718 1.04688v4.78125l-.0586.46484-.35156 1.28125-.17578.52344-.11328.41015-.35156.9297L172.93359 336l-.23437.58203-.11719.17578-.17187.34766-.17578.40625-.35157.8164-.0586.29297-.11327.29297-.11719.28906-.0586.17579-.11718.875-.0586.40625-.05859.11718-.0586.17579-.05859.17187-.23047.52734-.11718.17188v.23437l-.11719.23438-.0586.17187-.17577.58594v.28906l-.0586.17579v.29296l-.0586.11329-.05859.52734v.17187l-.05468.23438v2.6211l-.17578.8164-.1172.17578-.17577.23438-.1172.17187-.11327.23438-.58594.93359-.23047.28906-.29297.46485-.17578.23437-.28906.35156-.35156.69922-.11328.23047-.17579.41016-.17578.23046-.40625.52735-.8164.69922-.29297.17187-.28906.23438-.17579.11719-.17578.17578-.52344.40625-.52734.17578-.17187.17578-.23438.05469-.64062.17578h-.75782m12.21094 31.02344l-1.07422.44921.35938.89454 1.25-.71485.44531-.53906-.98047-.08985"/><path fill="#d3d3d3" fill-opacity="0" fill-rule="evenodd" d="M201.50781 416.59766h-.89453l.44922.6289.98047.35938.80469-.08985.4453-.98828-.17577.08985-.71485-.35547-.89453.35547m154.6211 59.0703l-.0586-.52343v-.29297l.11328-.29297.0586-.23046.46875-.46875h.11328l.11719-.11329.11718-.05859h.17579l.23437-.0586h.34766l.23437.0586.11719.0586.23047.17187.0586.17578.11718.58203v.29297l-.11719.17578-.17187.28906-.17579.17579-.52734.52343-.23047.23438-.11719.0586h-.17578l-.11718-.0586-.40625-.29297-.17579-.11719-.11718-.0586-.0586-.11327-.05468-.1172m6.64062-10.95702l-.0586-.17188v-1.10937l.0586-.17188.17578-.0586.17188-.05858h.17578l.23437-.0586.1172.0586.05858.69921-.05859.17188-.11719.17578-.11718.0586-.23438.52343-.11328.0586h-.23438l-.05859-.1172m9.61328-14.39062l-.11719-.17578v-.69922l.29297-.875.1172-.17187.17577-.35156.11328-.23047.1172-.29297.35155-.75781.1172-.23047.17187-.23438h.17578l.11719-.0586h.64062l.11719.0586.23437.23438.17188.11328.35156.29297.11719.11718.11328.17579v.11328l.11719.05859.11718.11719v.69922l-.05859.17578v.23047l-.0586.17578-.34765 1.05078-.11719.23047-.11719.23437-.11718.0586-.23047.23437-.64063.28906h-.875l-.41015-.11718-.64063-.46485"/><path fill="none" stroke="#bebebe" stroke-linecap="round" stroke-linejoin="round" stroke-miterlimit="10" stroke-width=".5" d="M467.95703 311.69531H144.02734v168.625h323.9297v-168.625"/><g clip-path="url(#a)"><path fill="#fff" fill-opacity="0" fill-rule="evenodd" d="M144 475.89063v4.4375h.0039H144V311.67188h.0039H144v164.21875"/></g><g clip-path="url(#b)"><path fill="#fff" fill-opacity="0" fill-rule="evenodd" d="M144.0039 480.32813V311.67188h39.94141v112.01171l-1.33203 3.38672 1.33203 2.48438 4.4375 1.10156 4.4375-2.95313.44531-.6328-.4453-.3672-4.4375-2.73437-4.4375-.28516V311.67188h35.5078v93.01953l-.3828.18359.3828.28125.41016-.28125-.41016-.1836v-93.01952h4.4375V428.8125l-2.83203 2.69531-1.60547 1.64453-2.99609 2.79297-1.4414 1.48438-4.44141-1.19922-.78125-.28516-3.65625-2.80469-4.4375-.35937-4.4375 1.75-.86328 1.41406.86328.8789.64062 3.5586.3047 4.4375.84765 4.4414 2.64453 3.53907 1.45312.89844-.625 4.4375 3.01953 4.4375.58985.60156 1.39062-.60156 3.04688-.75 4.4414-2.10938 4.4375 1.35157 4.4375-.14844 4.4375.0664 4.4375-2.74218 4.44141 2.8086 4.4375-.39454 4.4375-2.10156 2.53906 4.01953 1.89844 1.58984 3.625-1.58984.8125-.20313 4.03516-4.23437.40625-.72266 4.4375-1.96094v6.4336l-.78516.6875.78516.5586 1.01953-.5586-1.01953-.6875v-6.4336l3.6914-1.7539.7461-.33594 2.40625-4.10156-2.40625-3.00781-.73828-1.4336-1.35938-4.4375-2.33984-1.85937-4.4375-.22656-2.08203 2.08593-2.35938 2.17188-4.4375 1.33203-1.07031.9336-3.36719 1.76171-4.4375-.57422-.9961-1.1875.11329-4.4375-3.55469-3.55078-4.4414 1.60938-1.88672-2.4961-2.55078-2.55469-1.75-1.8828-2.6875-2.69532V311.67187h26.6289v76.26954l-2.67187 3.62109-1.76563.75781L242.37891 396l-.73438 1.1289-4.4375 2.63282-.57031.67578-3.35156 4.4375-.51953.80469-3.9375-.80469-.5-.25781-.57032.25781-2.30469 4.4414 2.875 2.72657 1.79688 1.71094 2.64063 2.38671 1.1289 2.05079 3.3125 3.375.70313 1.0625 3.73437 4.26171 4.4375.07813 4.4375-.13672.3789.23828 4.0586 3.97656 4.4414-.36718 4.4375.39453 4.4375-.3164 4.4375-.33204 4.44141.30469 4.27735.77734.16015.16016.21094-.16016 4.22656-1.38281 2.83985-3.05469-2.83985-2.85547-1.1289-1.58593 1.1289-2.48829 1.8672-1.94921 2.5703-1.6875 3.16016-2.75-3.16016-3.1211-1.15625-1.3164-3.28125-3.62891-1.11718-.8125 1.11718-2.10547 1.9922-2.33203-1.9922-1.60938-2.07812 1.60938-2.35938 1.3164-4.4375 2.29688-1.0625-3.61328.58204-4.4375v-4.4375l-3.96094-3.57813-4.4375.56641-3.08203 3.01172-1.35547 2.09766-4.4375-.97657L255.8789 396l-.92188.44922-.49219-.44922-.83203-4.4375-3.11328-3.6211v-76.26952h44.38281v119.03125l-.5078.80468.5078.46094.48438-.46094-.48438-.80469V311.67188h8.87891v91.31641l-1.6836 1.88672-2.3164 4.4414-.4375.53516-2.73047 3.90235.25 4.4375 2.48047 1.58984 3.4961-1.58984.9414-.64844 4.4375-.42188 1.98438 1.07032 2.45312 2.3125 3.69531-2.3125.59375-4.4375-2.23828-4.4375-2.05078-1.89454-4.4375-1.08984-2.50781-1.45703-1.92969-1.88672v-91.3164h79.89063v118.26171l-1.60157 1.57422 1.60156 1.38281 1.56641-1.3828-1.5664-1.57423V311.67188h8.875v123.4375l-.87891.83593.8789.85547.83594-.85547-.83594-.83594v-123.4375h75.44922v168.65625H144.00391"/></g><path fill="#50fcfc" fill-rule="evenodd" d="M183.94531 429.55469l-1.33203-2.48438 1.33203-3.38672 4.4375.28516 4.4375 2.73438.44531.36718-.4453.63281-4.4375 2.95313-4.4375-1.10156m13.3164 7.26953l-.86328-.8789.86328-1.41407 4.4375-1.75 4.4375.35938 3.65625 2.80468.78125.28516 4.4414 1.19922 1.44141-1.48438 2.9961-2.79297 1.60546-1.64453 2.83203-2.69531v2.63281l-.0625.0625-1.83593 4.4375-2.02344 4.4375-.51563.1914-4.4375-.0664-.27734-.125-4.16406-1.90234-4.4375-1.6289-3.40625-.90626-1.03125-.34765-.53906.34765-1.78907 4.4375.73438 4.4375 1.59375 3.21094 2.27734 1.23047 2.16016 1.42578 4.4375 2.09766 1.61719.91406 2.82422 2.25781 4.4375 2.01172 4.4375-.0586 4.4375-.65234 4.4375-1.57422 4.4414 2.05079 4.4375-1.48438 4.4375-.97266 4.4375 2.03907 1.71484-3.6172-1.71484-2.51562-4.4375-.96093-1.54687-.96094-2.89063-.70703-3.1289-3.73438.91015-4.4375-2.21875-2.21484-3.44531 2.21484-.9961 3.67578-1.12109-3.67578-3.3164-4.15234-3.9375-.28516-.44141-4.4375-.0586-.0625v-2.63281l2.6875 2.69531 1.75 1.88281 2.55079 2.5547 1.88672 2.49609 4.4414-1.60938 3.55469 3.55078-.11328 4.4375.9961 1.1875 4.4375.57422 3.36718-1.76172 1.07031-.9336 4.4375-1.33202 2.35938-2.17188 2.08203-2.08594v3.69532l-3.1211 2.82812 3.1211 3.46875 4.4375-.98047.9961-2.48828-.9961-1.75-4.4375-1.07812v-3.69531l4.4375.22656 2.33984 1.85937 1.35938 4.4375.73828 1.4336 2.40625 3.0078-2.40625 4.10157-.7461.33594-3.6914 1.7539-4.4375 1.96094-.40625.72266-4.03516 4.23437-.8125.20313-3.625 1.58984-1.89844-1.58984-2.53906-4.01953-4.4375 2.10156-4.4375.39453-4.4414-2.8086-4.4375 2.7422-4.4375-.06641-4.4375.14844-4.4375-1.35157-4.44141 2.10938-3.04688.75-1.39062.60156-.58984-.60156-3.01954-4.4375.625-4.4375-1.45312-.89844-2.64453-3.53906-.84766-4.4414-.30469-4.4375-.64062-3.5586"/><path fill="#00e8fc" fill-rule="evenodd" d="M200.10547 444.82031l-.73438-4.4375 1.78907-4.4375.53906-.34765 1.03125.34765 3.40625.90625 4.4375 1.6289 4.16406 1.90235.27734.125 4.4375.0664v2.45704l-4.4375 1.11719-4.4414.58984-.39453.08203.16015 4.4414.23438.15235 4.4414 2.85547 2.73829 1.42969 1.69922 1.05078 4.4375.33984 3.04687-1.39062 1.30078-4.4375-4.34766-3.2539-1.1953-1.1875-3.2422-1.78907v-2.45703l.51563-.1914 2.02344-4.4375 1.83594-4.4375.0625-.0625.05859.0625.4414 4.4375 3.9375.28515 3.31641 4.15234 1.1211 3.67578v5.13672l-2.11329.0664 2.11328.11329.11329-.11328-.11328-.0664v-5.13673l.99609-3.67578 3.44531-2.21484 2.21875 2.21484-.91016 4.4375 3.12891 3.73438 2.89063.70703 1.54687.96094 4.4375.96093 1.71484 2.51563-1.71484 3.61719-4.4375-2.03907-4.4375.97266-4.4375 1.48438-4.4414-2.05079-4.4375 1.57422-4.4375.65235-4.4375.05859-4.4375-2.01172-2.82422-2.25781-1.6172-.91406-4.4375-2.09766-2.16015-1.42578-2.27734-1.23047-1.59375-3.21094"/><path fill="#00d4fc" fill-rule="evenodd" d="M210.33984 449.26172l-.16015-4.4414.39453-.08204 4.4414-.58984 4.4375-1.11719v4.47656l-4.4375 1.22266-.46484.53125.46484.29687 4.4375.6211 1.77344-.91797-1.77344-1.7539v-4.47657l3.2422 1.78906 1.1953 1.1875 4.34766 3.2539-1.30078 4.4375-3.04688 1.39063-4.4375-.33984-1.69921-1.05078-2.73828-1.42969-4.44141-2.85547-.23438-.15234"/><path fill="#00c4fc" fill-rule="evenodd" d="M215.01563 449.5586l-.46485-.29688.46484-.53125 4.4375-1.22266 1.77344 1.7539-1.77344.91798-4.4375-.6211"/><path fill="#50fcfc" fill-rule="evenodd" d="M219.45313 405.15625l-.38282-.28125.38281-.1836.41016.1836-.41016.28125m8.875 6.88672l-2.875-2.72656 2.3047-4.44141.5703-.25781.5.25781 3.9375.80469.51954-.80469 3.35156-4.4375.57031-.67578 4.4375-2.63281.73438-1.12891 3.70312-3.67969 1.76563-.75781 2.67187-3.6211v5.26563l-4.4375.42578L243.69531 396l-2.05078 3.15234-1.82422 1.28516-2.61328 1.76953-2.26562 2.66797-2.17578 3.3789-3.13672 1.0625 3.13672 2.82423.41796 1.61328 2.4297 4.4375 1.59374 1.625 1.86328 2.8125 2.57422 2.9375 4.4375.23437 4.4375.20703 1.69922 1.0625 2.73828 2.67969 4.4414-.76953 4.4375 1.16797 4.4375-.53906 4.4375-.80079 4.44141.75782 4.4375.37109 4.4375-2.61328.23829-.2539-.23829-.2422-2.98828-4.19921L281.58984 421l-2.12109-2.8086-1.01563-4.4375 3.13672-2.03515v1.57031l-.71484.46485.17578 4.4375.53906.71093 1.85157-.71093 2.58593-3.76172.32813-.67578-.32813-.28125-4.4375-.1836v-1.57031l4.4375-1.52734 4.20313 3.5625.23437.16015.1836-.16015-.1836-.1797-3.74609-4.2578-.6914-.76563-4.4375-3.26172-4.4375 1.16406-4.44141-.8789-4.4375-.61328-4.4375.76172-4.4375 2.66015-2.38672-3.50781-1.26953-4.4375-.78516-1.03516L251.19141 396l-.67188-2.79297v-5.26562l3.11328 3.62109.83203 4.4375.4922.44922.92187-.44922 3.51953-3.3164v5.42577l-1.42578 2.32813.51562 4.4375.91016 1.33594 2.73437-1.33594-1.28125-4.4375-1.45312-2.32813v-5.42578l4.4375.97657 1.35547-2.09766 3.08203-3.01172 4.4375-.5664v1.71875l-4.4375.99609-.88281.86328L264.12108 396l-.28515 2.22266-.71094 2.21484.71094 1.49219 4.4375 2.57031 4.4375-.59375 1.77344-3.46875L275.84765 396l-1.07813-4.4375-2.0586-1.85938v-1.71875l3.96094 3.57813V396l-.58203 4.4375 1.0625 3.61328 4.4375-2.29687 2.35938-1.31641 2.07812-1.60938 1.9922 1.60938-1.9922 2.33203-1.11718 2.10547 1.11718.8125 3.28125 3.6289 1.15625 1.31641 3.16016 3.1211-3.16016 2.75-2.5703 1.6875-1.8672 1.94921-1.1289 2.48829 1.1289 1.58593 2.83985 2.85547-2.83985 3.05469-4.22656 1.38281-.21094.16016-.16015-.16016-4.27735-.77734-4.4414-.30469-4.4375.33203-4.4375.3164-4.4375-.39452-4.4414.36719-4.0586-3.97657-.3789-.23828-4.4375.13672-4.4375-.07813-3.73438-4.26171-.70313-1.0625-3.3125-3.375-1.1289-2.05079-2.64063-2.38671-1.79688-1.71094"/><path fill="#00e8fc" fill-rule="evenodd" d="M232.76563 412.14063l-3.13672-2.82422 3.13672-1.0625 2.17578-3.37891 2.26562-2.66797 2.61328-1.76953 1.82422-1.28516L243.69531 396l2.38672-2.36719v2.17969l-.1875.1875.1875.64063 2.26563 3.79687-2.15235 4.4375-.11328.14453-1.20312-.14453-3.23438-.48828-1.33594.48828-3.10156 1.72656-1.21094 2.71485.125 4.4375 1.08594 2.01171 1.0039 2.42579 2.79298 4.4375.64062.73437 4.4375.48438 4.4375.78125 3.90234 2.4414.53516.52344 1.89844-.52344 2.54297-.375 1.10156.375 3.33594 1.52735 4.4375-.89844 2.13281-.6289 2.30469-1.76563 2.45703 1.76562 1.98437.55469 4.4375-.36719.3125-.1875-.3125-.52734-2.36328-3.91406-2.07422-3.52344-.33984-.91406-1.21484-4.4375-2.88672-4.41797-.01172-.01953-4.42578-2.85938L263.83594 408l-1.94531 1.3164-2.4922 1.14063-1.91015-1.14062-2.53125-3.80079-.57422-.64062-2.17578-4.4375-1.6875-1.57813L246.47656 396l-.39453-.1875v-2.17969l4.4375-.42578.67188 2.79297 3.76562 3.40234.78516 1.03516 1.26953 4.4375 2.38672 3.50781 4.4375-2.66015 4.4375-.76172 4.4375.61328 4.4414.8789 4.4375-1.16406 4.4375 3.26172.69141.76563 3.7461 4.2578.18359.1797-.1836.16015-.23437-.16015-4.20313-3.5625-4.4375 1.52734-3.13671 2.03516 1.01562 4.4375L281.58985 421l1.44921 1.6289 2.98828 4.19923.23829.24218-.23829.2539-4.4375 2.61329-4.4375-.3711-4.4414-.7578-4.4375.80077-4.4375.53907-4.4375-1.16797-4.4414.76953-2.73829-2.67969-1.69922-1.0625-4.4375-.20703-4.4375-.23437-2.57422-2.9375-1.86328-2.8125-1.59375-1.625-2.42969-4.4375-.41797-1.61329"/><path fill="#00d4fc" fill-rule="evenodd" d="M232.76563 449.375l-2.11329-.11328 2.11328-.0664.11329.0664-.11328.11328m3.35546-35.6211l-.125-4.4375 1.21094-2.71484 3.10156-1.72656 1.33594-.48828v2.6289l-2.57812 2.30079-.0547 4.4375 1.46095 4.4375 1.17187 1.9375 4.4375 1.67578 2.01563.82422 2.42187.625 4.4375 2.49609 4.4414-.20313 4.4375 1.50391 4.42579-4.42187.01172-.0547 4.4375-2.16796 1.29297-2.21484-.70313-4.4375-.58984-.90235-2.32813-3.53515-2.10937-1.36329-3.03125 1.36329-1.40625 2.61328-4.4375.0664-4.4414-2.52343-4.4375 1.3125-4.4375-1.07813-.5547-.39062-3.8828-2.30079v-2.6289l3.23437.48828 1.20312.14453.11328-.14453 2.15235-4.4375-2.26563-3.79688-.1875-.64062.1875-.1875.39453.1875 4.04297 2.85938v5.2539l-.41797.76172.41797.52734.375-.52734-.375-.76172v-5.2539l1.6875 1.57812 2.17578 4.4375.57422.64063 2.53125 3.80078 1.91016 1.14062 2.49219-1.14062L263.83592 408l4.4375-1.54297 4.42579 2.85938.01172.01953 2.88672 4.41797 1.21484 4.4375.33984.91406 2.07422 3.52344 2.36328 3.91406.3125.52734-.3125.1875-4.4375.36719-1.98437-.55469-2.45703-1.76562-2.30469 1.76562-2.13281.6289-4.4375.89845L260.5 427.0703l-1.10156-.375-2.54297.375-1.89844.52344-.53516-.52344-3.90234-2.4414-4.4375-.78125-4.4375-.48438-.64062-.73437-2.79297-4.4375-1.0039-2.42579-1.08595-2.01171"/><path fill="#00c4fc" fill-rule="evenodd" d="M240.47266 418.1914l-1.46094-4.4375.05469-4.4375 2.57812-2.30077 3.88281 2.30078.5547.39062 4.4375 1.07813 4.4375-1.3125 4.4414 2.52343 4.4375-.0664 1.40625-2.61328 3.03125-1.36329v1.71875l-2.63281 4.08204-1.8047 1.55468-3.6875-1.55468-.75-.22266-.94921.22266-3.49219 1.1328-2.0625-1.1328-2.375-1.125-4.4375-.15625-3.78516 1.28125 1.25391 4.4375 2.53125 1.41015 4.33203-1.41015.10547-.10938.04688.10938 1.76953 4.4375 2.6211 1.3789 4.4414.39453 4.4375 1.08985 2.86719-2.86328.5664-4.4375 1.0039-1.20313 2.57423-3.23437-2.57422-4.08204v-1.71875l2.10937 1.36329 2.32813 3.53515.58984.90235.70313 4.4375-1.29297 2.21484-4.4375 2.16797-.01172.05469-4.42578 4.42187-4.4375-1.5039-4.4414.20312-4.4375-2.4961-2.42188-.625-2.01563-.82421-4.4375-1.67578-1.17187-1.9375"/><path fill="#00b8fc" fill-rule="evenodd" d="M243.55078 418.1914l-1.2539-4.4375 3.78515-1.28124 4.4375.15625 2.375 1.125 2.0625 1.1328 3.49219-1.1328.94922-.22266.75.22266 3.6875 1.55468 1.80469-1.55468 2.6328-4.08204v3.96875l-.07421.11329-4.36328 3.7578-4.4375-2.11718-4.4414 1.63281-1.54688 1.16407 1.54687 3.21093 1.23047 1.22657 3.21094.625 4.4375.67968 1.3086-1.30468-.5-4.4375 3.6289-4.34766.07422-.08984-.07422-.11329v-3.96875l2.57422 4.08204-2.57422 3.23437-1.0039 1.20313-.56642 4.4375-2.86718 2.86328-4.4375-1.08985-4.4414-.39453-2.6211-1.3789-1.76953-4.4375-.04688-.10938-.10547.10938-4.33203 1.41015-2.53125-1.41015"/><path fill="#00c4fc" fill-rule="evenodd" d="M250.51953 405.40234l-.41797-.52734.41797-.76172.375.76172-.375.52734"/><path fill="#00a8fc" fill-rule="evenodd" d="M254.95703 421.40234l-1.54687-3.21093 1.54687-1.16407 4.4414-1.6328v1.91796l-2.23437.8789 2.23438 2.23048 1.76953-2.23047-1.76953-.87891v-1.91797l4.4375 2.11719 4.36328-3.75781.07422-.11329.07422.11329-.07422.08984-3.6289 4.34766.5 4.4375-1.3086 1.30468-4.4375-.67968-3.21094-.625-1.23047-1.22657"/><path fill="#00e8fc" fill-rule="evenodd" d="M259.39844 448.28906l-3.1211-3.46875 3.1211-2.82812 4.4375 1.07812.9961 1.75-.9961 2.48828-4.4375.98047"/><path fill="#009800" fill-rule="evenodd" d="M259.39844 420.42188l-2.23438-2.23047 2.23438-.87891 1.76953.8789-1.76953 2.23048"/><path fill="#fff" fill-opacity="0" fill-rule="evenodd" d="M259.39844 398.10938l-1.42578 2.32812.51562 4.4375.91016 1.33594 2.73437-1.33594-1.28125-4.4375-1.45312-2.32813"/><path fill="#50fcfc" fill-rule="evenodd" d="M263.83594 463.13281l-.78516-.5586.78516-.6875 1.01953.6875-1.01953.5586"/><path fill="#00e8fc" fill-rule="evenodd" d="M263.83594 401.92969l-.71094-1.49219.71094-2.21484.28515-2.22266 3.26954-4.4375.8828-.86328 4.4375-.9961v2.81641l-4.4375.39453L265.64064 396l2.6328 3.625 4.4375-.11719L274.46876 396l-1.75781-3.48047v-2.8164l2.0586 1.85937L275.84765 396l-1.36329 4.4375-1.77343 3.46875-4.4375.59375-4.4375-2.57031"/><path fill="#00d4fc" fill-rule="evenodd" d="M268.27344 399.625L265.64063 396l2.6328-3.08594v1.78516L267.16407 396l1.10938 1.52734 4.4375-.76953.3789-.75781-.3789-.75-4.4375-.55078v-1.78516l4.4375-.39453L274.46875 396l-1.75781 3.50781-4.4375.11719"/><path fill="#00c4fc" fill-rule="evenodd" d="M268.27344 397.52734L267.16406 396l1.10938-1.30078 4.4375.55078.3789.75-.3789.75781-4.4375.76953"/><path fill="#fff" fill-opacity="0" fill-rule="evenodd" d="M281.58984 413.28906l-.71484.46485.17578 4.4375.53906.71093 1.85157-.71093 2.58593-3.76172.32813-.67578-.32813-.28125-4.4375-.1836"/><path fill="#50fcfc" fill-rule="evenodd" d="M294.90234 431.96875l-.5078-.46094.5078-.80469.48438.8047-.48438.46093m1.96094-13.77734l-.25-4.4375 2.73047-3.90235.4375-.53515 2.3164-4.44141 1.6836-1.88672 1.92969 1.88672 2.50781 1.45703v2.85938l-1.05469.125-1.90625 4.4375 2.96094 1.53515 4.4375 2.27344 2.6914-3.8086-2.6914-3.41406-4.08594-1.02343-.35156-.125v-2.85938l4.4375 1.08985 2.05078 1.89453 2.23828 4.4375-.59375 4.4375-3.69531 2.3125-2.45313-2.3125-1.98437-1.07032-4.4375.42188-.9414.64844-3.4961 1.58984-2.48047-1.58984"/><path fill="#00e8fc" fill-rule="evenodd" d="M308.21875 415.28906l-2.96094-1.53515 1.90625-4.4375 1.05469-.125.35156.125 4.08594 1.02343v3.39063l-.0625.02344.0625.02734.01953-.02734-.01953-.02344v-3.39063l2.6914 3.41407-2.6914 3.80859-4.4375-2.27344"/><path fill="#00d4fc" fill-rule="evenodd" d="M312.65625 413.78125l-.0625-.02734.0625-.02344.01953.02344-.01953.02734"/><path fill="#50fcfc" fill-rule="evenodd" d="M383.67188 432.89063l-1.60157-1.38282 1.60156-1.57422 1.56641 1.57422-1.5664 1.38281m8.875 3.91016l-.87891-.85547.8789-.83594.83594.83594-.83594.85547"/><g clip-path="url(#c)"><path fill="#fff" fill-opacity="0" fill-rule="evenodd" d="M467.9961 480.32813H468V311.67188h-.0039H468v168.65625h-.0039"/></g><path fill="#fff" fill-opacity="0" fill-rule="evenodd" d="M261.54297 443.5586l2.20312 5.41015 9.22657-3.7539-2.20313-5.41016-9.22656 3.7539"/><path fill-rule="evenodd" d="M270.39063 443.73438l.1914.47265-5.83203 2.3711-.29297-.72657 4.15625-1.69531-.52344-1.28516.51563-.20703.26953.49219.14453.21484.17188.17579.20703.13671.26172.08204.32421.01953.40625-.05079"/><path fill="#fff" fill-opacity="0" fill-rule="evenodd" d="M262.59375 399.65625l5.40234-2.21875-3.78906-9.21484-5.40234 2.22265 3.78906 9.21094"/><path fill-rule="evenodd" d="M262.73828 390.8086l.46875-.19141 2.39453 5.82031-.72656.30078-1.70703-4.15234-1.28516.52734-.21094-.51562.4922-.26954.21484-.14843.17578-.16797.13672-.21094.08203-.25781.01562-.32813-.05078-.40625"/><g clip-path="url(#d)"><path fill="none" stroke="#000" stroke-linecap="round" stroke-linejoin="round" stroke-miterlimit="10" stroke-width=".5" d="M142.67578 483.58203l2.64844-6.50781"/></g><g clip-path="url(#e)"><path fill="none" stroke="#000" stroke-linecap="round" stroke-linejoin="round" stroke-miterlimit="10" stroke-width=".5" d="M156.8086 483.80469l1.01171-6.95313"/></g><g clip-path="url(#f)"><path fill="none" stroke="#000" stroke-linecap="round" stroke-linejoin="round" stroke-miterlimit="10" stroke-width=".5" d="M170.125 483.80469l1.01172-6.95313"/></g><g clip-path="url(#g)"><path fill="none" stroke="#000" stroke-linecap="round" stroke-linejoin="round" stroke-miterlimit="10" stroke-width=".5" d="M183.1289 483.7461l1.63282-6.83594"/></g><g clip-path="url(#h)"><path fill="none" stroke="#000" stroke-linecap="round" stroke-linejoin="round" stroke-miterlimit="10" stroke-width=".5" d="M195.88672 483.5625l2.75-6.46875"/></g><g clip-path="url(#i)"><path fill="none" stroke="#000" stroke-linecap="round" stroke-linejoin="round" stroke-miterlimit="10" stroke-width=".5" d="M208.53125 483.1875l4.08984-5.71484"/></g><g clip-path="url(#j)"><path fill="none" stroke="#000" stroke-linecap="round" stroke-linejoin="round" stroke-miterlimit="10" stroke-width=".5" d="M220.99219 482.3164l5.79687-3.97656"/></g><g clip-path="url(#k)"><path fill="none" stroke="#000" stroke-linecap="round" stroke-linejoin="round" stroke-miterlimit="10" stroke-width=".5" d="M220.99219 482.3164l-2.17578-1.13671"/></g><g clip-path="url(#l)"><path fill="none" stroke="#000" stroke-linecap="round" stroke-linejoin="round" stroke-miterlimit="10" stroke-width=".5" d="M233.83203 481.3086l6.7461-1.96094"/></g><g clip-path="url(#m)"><path fill="none" stroke="#000" stroke-linecap="round" stroke-linejoin="round" stroke-miterlimit="10" stroke-width=".5" d="M233.83203 481.3086l-1.71094-1.75782"/></g><g clip-path="url(#n)"><path fill="none" stroke="#000" stroke-linecap="round" stroke-linejoin="round" stroke-miterlimit="10" stroke-width=".5" d="M247.00781 480.21484l7.02344.22657"/></g><g clip-path="url(#o)"><path fill="none" stroke="#000" stroke-linecap="round" stroke-linejoin="round" stroke-miterlimit="10" stroke-width=".5" d="M247.00781 480.21484l-1.07812-2.20312"/></g><g clip-path="url(#p)"><path fill="none" stroke="#000" stroke-linecap="round" stroke-linejoin="round" stroke-miterlimit="10" stroke-width=".5" d="M260.41797 479.51172l6.83594 1.63672"/></g><path fill="none" stroke="#000" stroke-linecap="round" stroke-linejoin="round" stroke-miterlimit="10" stroke-width=".5" d="M260.41797 479.51172l-.61328-2.375"/><g clip-path="url(#q)"><path fill="none" stroke="#000" stroke-linecap="round" stroke-linejoin="round" stroke-miterlimit="10" stroke-width=".5" d="M274.07813 478.625l6.14453 3.40625"/></g><path fill="none" stroke="#000" stroke-linecap="round" stroke-linejoin="round" stroke-miterlimit="10" stroke-width=".5" d="M274.07813 478.625l.04296-2.45313"/><g clip-path="url(#r)"><path fill="none" stroke="#000" stroke-linecap="round" stroke-linejoin="round" stroke-miterlimit="10" stroke-width=".5" d="M287.92969 477.89453L293 482.76172"/></g><path fill="none" stroke="#000" stroke-linecap="round" stroke-linejoin="round" stroke-miterlimit="10" stroke-width=".5" d="M287.92969 477.89453l.67187-2.35937"/><g clip-path="url(#s)"><path fill="none" stroke="#000" stroke-linecap="round" stroke-linejoin="round" stroke-miterlimit="10" stroke-width=".5" d="M301.7539 477.46094l4.0547 5.73828"/></g><path fill="none" stroke="#000" stroke-linecap="round" stroke-linejoin="round" stroke-miterlimit="10" stroke-width=".5" d="M301.7539 477.46094l1.10157-2.1914"/><g clip-path="url(#t)"><path fill="none" stroke="#000" stroke-linecap="round" stroke-linejoin="round" stroke-miterlimit="10" stroke-width=".5" d="M315.4336 477.23438l3.32421 6.1914"/></g><path fill="none" stroke="#000" stroke-linecap="round" stroke-linejoin="round" stroke-miterlimit="10" stroke-width=".5" d="M315.4336 477.23438l1.36718-2.04297"/><g clip-path="url(#u)"><path fill="none" stroke="#000" stroke-linecap="round" stroke-linejoin="round" stroke-miterlimit="10" stroke-width=".5" d="M328.3125 477.51172l4.19922 5.63281"/></g><path fill="none" stroke="#000" stroke-linecap="round" stroke-linejoin="round" stroke-miterlimit="10" stroke-width=".5" d="M328.3125 477.51172l1.04688-2.21875"/><g clip-path="url(#v)"><path fill="none" stroke="#000" stroke-linecap="round" stroke-linejoin="round" stroke-miterlimit="10" stroke-width=".5" d="M343.13281 476.86719l1.1875 6.92578"/></g><path fill="none" stroke="#000" stroke-linecap="round" stroke-linejoin="round" stroke-miterlimit="10" stroke-width=".5" d="M343.13281 476.86719l1.9414-1.5039"/><g clip-path="url(#w)"><path fill="none" stroke="#000" stroke-linecap="round" stroke-linejoin="round" stroke-miterlimit="10" stroke-width=".5" d="M357.01953 476.8164l.04297 7.02735"/></g><path fill="none" stroke="#000" stroke-linecap="round" stroke-linejoin="round" stroke-miterlimit="10" stroke-width=".5" d="M357.01953 476.8164l2.16016-1.16796"/><g clip-path="url(#x)"><path fill="none" stroke="#000" stroke-linecap="round" stroke-linejoin="round" stroke-miterlimit="10" stroke-width=".5" d="M370.32031 476.8164l.07031 7.02735"/></g><path fill="none" stroke="#000" stroke-linecap="round" stroke-linejoin="round" stroke-miterlimit="10" stroke-width=".5" d="M370.32031 476.8164l2.15625-1.17577"/><g clip-path="url(#y)"><path fill="none" stroke="#000" stroke-linecap="round" stroke-linejoin="round" stroke-miterlimit="10" stroke-width=".5" d="M382.70313 476.95313l1.9375 6.7539"/></g><path fill="none" stroke="#000" stroke-linecap="round" stroke-linejoin="round" stroke-miterlimit="10" stroke-width=".5" d="M382.70313 476.95313l1.76562-1.70704"/><g clip-path="url(#z)"><path fill="none" stroke="#000" stroke-linecap="round" stroke-linejoin="round" stroke-miterlimit="10" stroke-width=".5" d="M394.34375 478.01563l5.28516 4.625"/></g><path fill="none" stroke="#000" stroke-linecap="round" stroke-linejoin="round" stroke-miterlimit="10" stroke-width=".5" d="M395.11328 478.6875l.27735-1.19531"/><g clip-path="url(#A)"><path fill="none" stroke="#000" stroke-linecap="round" stroke-linejoin="round" stroke-miterlimit="10" stroke-width=".5" d="M407.52344 478.17578l5.55469 4.30469"/></g><path fill="none" stroke="#000" stroke-linecap="round" stroke-linejoin="round" stroke-miterlimit="10" stroke-width=".5" d="M408.33203 478.80469l.20703-1.21094"/><g clip-path="url(#B)"><path fill="none" stroke="#000" stroke-linecap="round" stroke-linejoin="round" stroke-miterlimit="10" stroke-width=".5" d="M422.58203 476.97266l2.07031 6.71484"/></g><path fill="none" stroke="#000" stroke-linecap="round" stroke-linejoin="round" stroke-miterlimit="10" stroke-width=".5" d="M422.88281 477.94922l.86719-.8711"/><g clip-path="url(#C)"><path fill="none" stroke="#000" stroke-linecap="round" stroke-linejoin="round" stroke-miterlimit="10" stroke-width=".5" d="M437.40625 476.84766l-.94922 6.96093"/></g><path fill="none" stroke="#000" stroke-linecap="round" stroke-linejoin="round" stroke-miterlimit="10" stroke-width=".5" d="M437.26953 477.85938l1.15235-.42188"/><g clip-path="url(#D)"><path fill="none" stroke="#000" stroke-linecap="round" stroke-linejoin="round" stroke-miterlimit="10" stroke-width=".5" d="M451.7461 477.15234l-3 6.35547"/></g><path fill="none" stroke="#000" stroke-linecap="round" stroke-linejoin="round" stroke-miterlimit="10" stroke-width=".5" d="M451.3086 478.07422l1.22656-.0586"/><g clip-path="url(#E)"><path fill="none" stroke="#000" stroke-linecap="round" stroke-linejoin="round" stroke-miterlimit="10" stroke-width=".5" d="M464.92969 477.09375l-2.73828 6.47266"/></g><g clip-path="url(#F)"><path fill="none" stroke="#000" stroke-linecap="round" stroke-linejoin="round" stroke-miterlimit="10" stroke-width=".5" d="M141.67969 469.65234l4.64062-5.27734"/></g><path fill="none" stroke="#000" stroke-linecap="round" stroke-linejoin="round" stroke-miterlimit="10" stroke-width=".5" d="M155.66406 470.11719l3.30078-6.20313m-3.30078 6.20313l-2.45312-.0039m15.74219-.01173l3.35546-6.17578m-2.86718 5.27735l-1.22657-.01172m13.81641.76953l3.82813-5.89453m-3.82813 5.89453l-2.44531-.21485m14.9336-.53515L200 464.8164m-4.6836 3.7539l-1.125-.48437m13.14844.29687l6.46875-2.73828m-6.46875 2.73828l-1.90625-1.54297m15.03125.95313l6.85157-1.5586m-6.85157 1.5586l-1.60547-1.85938m14.84766.75782l6.9961.64453m-6.9961-.64453l-.94922-2.26172m14.27735 2.13672l6.96875.89453m-6.96875-.89453l-.8672-2.29297m14.2422 1.96484l6.85156 1.55078m-6.85156-1.55078l-.64453-2.36719m14.20703 1.64844l6.35937 2.98828m-6.35937-2.98828l-.1211-2.45312m13.78907 1.85547l5.64843 4.18359m-5.64843-4.1836l.36718-2.42578m13.47266 1.86328l4.60156 5.3086m-4.60156-5.3086l.88281-2.28906m12.88672 1.95313l3.6914 5.98047m-3.6914-5.98047l1.23828-2.11719m11.73438 2.35938l4.375 5.49609m-3.73828-4.69922l.48828-1.125m13.04687-.17578l2.66016 6.5039m-2.27344-5.55859l.78516-.9414m13.57812-.26563l-.20703 7.02734m.20703-7.02734l2.19922-1.08594m-2.23047 2.10938l1.10156-.54297m12.375-.47266l-.46875 7.01172m.46875-7.01172l2.23829-1.0039m-2.3047 2.02343l1.1172-.5m12.09765-.52734l-.13672 7.02734m.13672-7.02734l2.1914-1.10938m10.4375 1.16407l1.23829 6.91797m-1.0586-5.91016l.96485-.75781m13-.29688l-.41797 7.01172m.35547-5.99219l1.11719-.51171m10.85156-.3047l2.39453 6.60548m-2.04297-5.64453l.82031-.91016m12.39454-.13281l1.89453 6.76953m-1.6211-5.78516l.88672-.84375m13.35547-.26172l-.50781 7.01172m.4336-5.99219l1.12109-.49609m11.63671-.51172l.75391 6.98828"/><g clip-path="url(#G)"><path fill="none" stroke="#000" stroke-linecap="round" stroke-linejoin="round" stroke-miterlimit="10" stroke-width=".5" d="M141.1875 455.80469l5.625-4.21485"/></g><path fill="none" stroke="#000" stroke-linecap="round" stroke-linejoin="round" stroke-miterlimit="10" stroke-width=".5" d="M154.29688 455.4961l6.03515-3.59766m-6.03516 3.59765l-2.09765-1.26953m15.46094 1.35156l5.9375-3.7578m-5.07422 3.21093l-1.0625-.60938m13.41406.98438l6.14063-3.41406m-6.14063 3.41406l-2.0586-1.33594m15.53516 1.59766l5.8164-3.9414m-5.8164 3.9414l-2.16797-1.14844m15.5586 1.25781l5.66406-4.15625m-5.66406 4.15625l-2.21094-1.0664m15.0039.02734l6.71094-2.07812m-6.71093 2.07812l-1.7422-1.72656m14.90235.84765l7.01953-.3203m-7.01953.3203l-1.25-2.11328m14.5664 1.7461l7.01563.41015m-7.01562-.41015l-1.02344-2.22657m14.41016 1.71094l6.875 1.44531m-6.875-1.4453l-.6836-2.35548m14.10157 1.97266l6.66796 2.21094m-6.66796-2.21094l-.41407-2.41797m1.38282 2.73828l-.20313-1.20703m13.00781-.02344l5.75391 4.03125m-5.7539-4.03125l.29687-2.4375m14.01953 1.48047l3.7461 5.94531m-3.7461-5.9453l1.21875-2.12891m13.125 1.6914l1.6914 6.82031m-1.4453-5.82812l.91406-.82031m12.33593-.21094l1.33204 6.89844m-1.14063-5.89453l.95313-.77344m11.8828-.16406l1.90626 6.76562m-1.90625-6.76562l1.77344-1.69532m12.80078 1.57813l-.61329 7m.61329-7l2.2578-.95703m11.84767 1.11718l-2.19141 6.67579m2.1914-6.67579l2.41797-.41796m10.94532.43359l-2.28907 6.64453m2.28907-6.64453l2.42187-.38281m9.24219.23047l1.01172 6.95312m-.86328-5.9414l.98828-.72657m14.72656.33203l-4.08594 5.71875m13.50781-5.84765l3.70313 5.97265m-3.16406-5.10156l.61719-1.0625m11.46093.76172l5.09766 4.83594m-4.35547-4.13282l.32422-1.18359m13.23437-.25l3.125 6.29688m-2.66796-5.37891l.71484-1m12.46875-.0586l2.47656 6.57813m-2.11719-5.6211l.8086-.92187"/><g clip-path="url(#H)"><path fill="none" stroke="#000" stroke-linecap="round" stroke-linejoin="round" stroke-miterlimit="10" stroke-width=".5" d="M141.375 442.71875l5.25-4.67188"/></g><path fill="none" stroke="#000" stroke-linecap="round" stroke-linejoin="round" stroke-miterlimit="10" stroke-width=".5" d="M154.66797 442.69531l5.29297-4.6211m-5.29297 4.6211l-2.29297-.875m15.71484.98828l5.08203-4.85156m-4.34375 4.14844l-1.16406-.38672m13.07422.10156l6.41406-2.875m-6.41406 2.875l-1.9375-1.5039m14.94922-.03907l7.02344.21094m-6.0039-.17969l-.54298-1.10156m12.88672 1.78125l6.92188-1.21094m-6.92188 1.21094l-1.50781-1.9336m14.77344 1.25391l7.02343.15235m-7.02343-.15235l-1.10547-2.1914m14.42187 2.4336l7.01953-.33204m-7.01953.33203l-1.2539-2.10937m14.60156 1.4375l6.95312 1.01172m-6.95312-1.01172l-.82813-2.3125m14.15235 2.24609l6.9336 1.14063m-6.9336-1.14063l-.78516-2.32422m14.10938 2.28516l6.91797 1.22265m-6.91797-1.22265l-.75782-2.33594m14.58594 1.03125l5.89453 3.82813m-5.03906-3.26954l.10938-1.22265m14.87109-.91016l.85156 6.97656m-.73047-5.96093l1.00782-.70313m14.34765.1211l-3.47265 6.10937m2.96875-5.21875l1.22656.03516m12.1211-1.14844l-2.52735 6.55469m2.16015-5.60157l1.21485-.14843m8.53125.1914l5.33984 4.5664m-4.5625-3.90233l.26563-1.19922m15.30859-.67578l-.73047 6.98828m.625-5.97266l1.13672-.46094m13.2461-.3125l-2.65626 6.5039m2.65625-6.5039l2.44141-.25m10.1914.04688l-1.28906 6.90625m1.10157-5.90235l1.16797-.36718m13.71484-.0547l-4.05078 5.7422m3.46094-4.90625l1.21875.15625m9.39453-1.39844l2.53125 6.55469m-2.16407-5.60157l.8047-.92578m11.60546.23438l3.60547 6.03125m12.16016.4375l-1.29297-6.90625m10.44922 3.58984l7.02343-.26953m8.02735-2.89844l3.55468 6.0625m-3.03906-5.17969l.64453-1.04296"/><g clip-path="url(#I)"><path fill="none" stroke="#000" stroke-linecap="round" stroke-linejoin="round" stroke-miterlimit="10" stroke-width=".5" d="M141.76953 429.78516l4.46094-5.4336"/></g><path fill="none" stroke="#000" stroke-linecap="round" stroke-linejoin="round" stroke-miterlimit="10" stroke-width=".5" d="M154.63672 429.34375l5.35547-4.55078m-5.35547 4.55078l-2.28125-.90625m15.86328 1.1875l4.82422-5.10938m-4.125 4.36329l-1.17969-.32422m14.1875 1.39062l4.03906-5.7539m-3.45312 4.91406l-1.21484-.14844m12.88671-.19531l6.15625-3.38672m-5.26172 2.89453l-1.02734-.67187m13.08203.17968l6.88281-1.41796m-6.8828 1.41796l-1.56641-1.88672m14.85547 1.73438l6.9375-1.10938m-6.9375 1.10938l-1.48047-1.96094m14.78906 1.91016l6.95312-1.01172m-6.95312 1.01172l-1.45313-1.97656m14.77344 2.02734l6.9375-1.11328m-6.9375 1.11328l-1.48047-1.95703m14.75 1.38672l7.02735.02734m-7.02735-.02734l-1.14453-2.16797m14.69531 3.4414l6.5586-2.51562m-5.60547 2.14844l-.92578-.80469m13.08984-.59375l6.95313 1.01172M288 426.71094l-.41406-1.15625m12.79687 2.40234l6.79688-1.77734m10.69531-2.53907l-1.5586 6.85547m1.33204-5.85547l1.1836-.32421m12.05077-.73047l-.9414 6.96484m.80468-5.94922l1.14844-.42578m14.10938.21485l-4.5547 5.35546m17.69532-5.49218l-4.20703 5.6289m3.59766-4.8086l1.21093.1875m12.6172-1.07812l-4.01173 5.76953m4.01172-5.76953l2.4336.28907m10.5078-.51563l-3.26952 6.22266m2.79687-5.3164l1.22656-.00392m9.86329-1.14062l2.1289 6.69922m-1.82031-5.72266l.85937-.8789m12.76954-.23438l.8828 6.97266m15.72657-1.4336l-5.70312-4.10547m16.74609-1.41406l-1.16016 6.9336m14.4375-6.9375l-1.08593 6.9414m.92968-5.9336l1.15625-.39843m10.75782-.5039l2.02734 6.73046m-2.02734-6.73047l1.74218-1.72656"/><g clip-path="url(#J)"><path fill="none" stroke="#000" stroke-linecap="round" stroke-linejoin="round" stroke-miterlimit="10" stroke-width=".5" d="M143.96875 417.26563l.0625-7.02735"/></g><g clip-path="url(#K)"><path fill="none" stroke="#000" stroke-linecap="round" stroke-linejoin="round" stroke-miterlimit="10" stroke-width=".5" d="M143.97656 416.2461l-1.08984.5625"/></g><path fill="none" stroke="#000" stroke-linecap="round" stroke-linejoin="round" stroke-miterlimit="10" stroke-width=".5" d="M156.67578 417.20703l1.28125-6.90625m-1.09766 5.90235l-1.16796.36718m13.55859.41406l2.75781-6.46093m-2.35547 5.51953l-1.22265.10547m12.46094-.66016L187 412.01953m-5.22266 2.96484l-1.03515-.66015m13.16015.46484l6.71485-2.07422m-5.73828 1.77344l-.8672-.86328m13.33595 1.51562l6.45703-2.77343m-6.45703 2.77343l-1.91407-1.53515m14.95313.41406l7.00781-.53125m-7.00781.53125l-1.3125-2.07031m14.64062 1.40625l6.98047.79297m-6.98047-.79297l-.90234-2.28125m14.19531 2.80078l7.02344-.24219m-6 .20703l-.61328-1.0625m13.23828 2.47266l6.35938-2.99219m-6.35938 2.99219l-1.96484-1.47266m16.59375 2.95313l3.73437-5.95313m-3.1914 5.08594l-1.22657-.08594m19.34375-1.54297l-6.96094-.96093m13.29688.78906l7-.6211m-5.98047.53126l-.67187-1.02735m13.41015-.92578l6.11328 3.46484m10.35938-5.24218l-.20313 7.02343m.17579-6.0039l1.09765-.54297m12.6289-.44531l-.96874 6.96093m.82812-5.94921l1.15235-.42188m14.82812 1.07813l-6.01953 3.625m5.14453-3.09766l1.05078.63281m11.30078-2.66015l-2.33984 6.625m2-5.66016l1.21094-.1836m11.85547-.93359l-1.16797 6.92969m1-5.92188l1.16406-.38671m11.9375-.66407l-.40625 7.01563m.34766-5.9961l1.11718-.51171m13.44141-.22657l-2.77344 6.45313m2.3711-5.51563l1.22265-.10156m12.57031-.80469l-2.92187 6.39063m2.4961-5.46094l1.22265-.07422m11.17188-1.17187l-.23047 7.02343m.19921-6.0039l1.10157-.53906m12.29297-.48047l-.32813 7.01953m.32813-7.01953l2.21875-1.04688m10.21484 1.11719l1.4375 6.8789m-1.4375-6.8789l1.88281-1.57031"/><g clip-path="url(#L)"><path fill="none" stroke="#000" stroke-linecap="round" stroke-linejoin="round" stroke-miterlimit="10" stroke-width=".5" d="M143.77734 403.94531l.44532-7.01172"/></g><g clip-path="url(#M)"><path fill="none" stroke="#000" stroke-linecap="round" stroke-linejoin="round" stroke-miterlimit="10" stroke-width=".5" d="M143.83984 402.92578l-1.11718.5039"/></g><path fill="none" stroke="#000" stroke-linecap="round" stroke-linejoin="round" stroke-miterlimit="10" stroke-width=".5" d="M157.99219 403.88672l-1.35156-6.89453m1.15234 5.89062l-.94922.77344m13.6289.29297l.3125-7.01953m-.26562 5.9961l-1.10547.52733m11.01953-2.92578l7.02344-.17968m-6.0039.15625l-.60157-1.07032m13.07813-.11328l6.66015 2.23828m-6.66015-2.23828l-.40235-2.42187m13.71485 2.42969l6.66797 2.22265m-6.66797-2.22265l-.40625-2.42188m1.375 2.7461l-.20313-1.21094m12.47266 1.14453l6.82031 1.70312m-6.82031-1.70312l-.58984-2.38281m1.58203 2.6328l-.29688-1.1914m12.51563 1.83203l7.02734-.07812m-7.02734.07812l-1.17578-2.15234m17.55468 5.59765l.90235-6.96875m-.77344 5.95704l-1.14844.42968m15.0625.60157l-.55469-7.00391m.47266 5.98438l-1.03516.66015m12.52344-.03125l3.26172-6.22265m-2.78516 5.3164l-1.22656.00781m15.32422 1.28125l.74219-6.98828m-.63281 5.96875l-1.13672.46094m18.16797-2.28906l-6.90625-1.29297m5.90234 1.10547l.36719 1.16797m10.51562-5.14063l-.03125 7.02735m.02344-6.00782l1.08594-.57031m12.95703-.3711l-1.47656 6.8711m1.26171-5.8711l1.1797-.33593m11.6875-.74219l-.14845 7.02344m.125-6l1.09766-.55469m10.76953-.17969l2.79297 6.44922m-2.38672-5.51172l.76563-.96093m11.72265.24218l3.63672 6.01172m-3.63672-6.01172l1.25781-2.10937m10.72266 3.5586l6.30469 3.10937m-5.38672-2.65625l-.03906-1.22656m15.29687-1.17188l.58203 7.0039m-.49609-5.98437l1.03125-.66406m12.17969-.35547l.61719 7m-.6172-7l2.0586-1.33594m13 1.6289l-2.8711 6.41407m2.8711-6.41406l2.44922-.16406m10.36719-.01563l-1.8711 6.77344m1.59766-5.78516l1.19922-.26953m10.6914-.76172l1.52344 6.85938m-1.52344-6.85938l1.86329-1.59375m-1.64063 2.59375l.9336-.79687m11.84375-.11719l2.15625 6.6875m-2.15625-6.6875l1.71093-1.76172m-1.39844 2.73438l.85547-.87891"/><g clip-path="url(#N)"><path fill="none" stroke="#000" stroke-linecap="round" stroke-linejoin="round" stroke-miterlimit="10" stroke-width=".5" d="M140.83594 388.65234l6.32812-3.05859"/></g><path fill="none" stroke="#000" stroke-linecap="round" stroke-linejoin="round" stroke-miterlimit="10" stroke-width=".5" d="M154.83594 389.61328l4.95703-4.98047m-4.23438 4.25781l-1.17578-.35937m16.52344 2.09375l-.55469-7.0039m.47656 5.98437l-1.03515.66015m10.84766-4.33984l6.60546 2.39453m7.60938-3.75781l4.8086 5.1211m-4.8086-5.1211l.79297-2.32422m12.19531 2.67188l5.46094 4.42578m-5.46094-4.42578l.47266-2.40625m13.80078 1.58593l3.54687 6.06641m-3.54687-6.0664L223.41016 382m-.77735 2.97266l.64453-1.04297m11.02344 5.17187l5.8086-3.95703m-5.8086 3.95703l-2.17187-1.14062m3.01953.5664l-1.08594-.57421m16.02344 2.65625l.8711-6.97266m-.8711 6.97265l-2.29297.875m2.41797-1.89062l-1.14453.4375m14.05468.53125l1.4297-6.8789m-1.22267 5.8789l-1.17578.34375m14.15235.6289l1.6914-6.8203m-1.6914 6.8203l-2.3789.59376m14.5039-1.14063l4.07031-5.73047m-3.47656 4.89453l-1.21875-.15625m16.11718 1.63672l-.28125-7.01953m.23829 6l-1.0586.61719m15.29688-3.10547l-.01953-.20313-.0586-.1914-.09375-.17578-.45703-.375-.1914-.0586-.19922-.01953-.20313.01953-.1914.0586-.45704.375-.09375.17578-.05859.1914-.01953.20313.01953.19922.0586.1914.09374.17579.45703.375.19141.05859.20313.01953.19921-.01953.19141-.0586.45703-.375.09375-.17577.0586-.19141.01953-.19922m13.78906-3.17969l-2.98828 6.35938m2.55078-5.4375l1.22656-.0586m13.52344-.16406l-4.98438 4.95703M357 383.60937l.08594 7.02735m-.07422-6.0039l1.07422-.58985m11.82031-.40625l.89844 6.97265m-.89844-6.97265l2.0039-1.41797m8.66797 3.23828l6.1875 3.33203m-5.28906-2.84765l.00781-1.22657m15.57422-1.10546l-.14453 7.02734m.125-6.0039l1.09375-.5547m11.89453-.45703l.54688 7.00391m-.54688-7.0039l2.07032-1.31641m-1.98829 2.33594l1.03516-.66016m11.51563-.23828l1.91406 6.76172m-1.91406-6.76172l1.76953-1.69922m11.42968 1.73437l2.14454 6.69141m-2.14454-6.6914l1.71485-1.75782m11.34765 1.84766l2.64844 6.51172m-2.64844-6.51172l1.57422-1.88281m-1.1875 2.83203l.78516-.94141m12.49219-.125l1.95312 6.75m-1.95312-6.75l1.76172-1.71094m-1.47657 2.6914l1.75782-1.70702"/><g clip-path="url(#O)"><path fill="none" stroke="#000" stroke-linecap="round" stroke-linejoin="round" stroke-miterlimit="10" stroke-width=".5" d="M140.60938 374.73047l6.78125-1.84375"/></g><path fill="none" stroke="#000" stroke-linecap="round" stroke-linejoin="round" stroke-miterlimit="10" stroke-width=".5" d="M154.09375 375.21094l6.44531-2.80469m-6.44531 2.80469l-1.92188-1.52735m16.20313 2.82032l4.50781-5.39063m-4.50781 5.39063L165.97656 376m14.66797-.98438l6.60156-2.41406m9.71485-2.29297l.60156 7m-.51563-5.98046l1.03125-.66797m10.44922.29296l4.09766 5.71094m-4.09766-5.71094l1.08594-2.19921m12.5625 1.98828l3.42969 6.13281m-3.42969-6.13281l1.32813-2.0625m-.82813 2.95312l1.32813-2.0625m12.86328 7.73438l.67578-6.99219m-.67578 6.99219l-2.26563.9375m2.36328-1.95313l-1.1328.46875m14.51952.5586l.33985-7.01954m-.33985 7.01954l-2.21875 1.04687m17.96875-1.86719l-4.53125-5.375m3.8711 4.58985l-.45703 1.14062m11.42187.39063l1.48828-6.86719m-1.48828 6.86719l-2.35938.66797m13.95704-1.59375l4.92578-5.01563m-4.92578 5.01563l-2.35157-.69922m14.65625-2.33594l6.94532 1.05469m-5.9375-.90235l-.40625-1.15625m12.7578 2.30079l6.85548-1.54297m-5.85938 1.3203l-.79687-.92968m13.35547-1.09375l6.3789 2.94922m-5.45312-2.51953l-.0664-1.22266m12.21874 1.4961l6.85156 1.54687m-5.85546-1.32422l-.32422-1.1836m14.67187-1.49218l2.79297 6.44922m-2.79297-6.44922l1.53125-1.91406m11.72656 1.9414l2.90625 6.39844m-2.90625-6.39844l1.4961-1.9453m-1.07422 2.875l.75-.97266m12.2539-.00391l2.6875 6.49219m-2.6875-6.49219l1.5586-1.89453m9.73828 4.11719l6.72266 2.04687m-6.72266-2.04687l-.46875-2.41016m14.80469.8125l4.67969 5.24219m-4.6797-5.24219l.85157-2.30469m12.33203 2.42969l4.94531 4.99219m-4.9453-4.99219l.72655-2.34375m13.02735 1.97656l4.0664 5.72656m-4.0664-5.72656l1.09765-2.19531m-.5078 3.02734l.55077-1.09765m12.51563.04687l3.38281 6.16016m-3.38281-6.16016l1.34765-2.05078m12.21875 1.92969l2.88282 6.40625m-2.88282-6.40625l1.5-1.9414m-1.08203 2.87109l1.5039-1.9375"/><g clip-path="url(#P)"><path fill="none" stroke="#000" stroke-linecap="round" stroke-linejoin="round" stroke-miterlimit="10" stroke-width=".5" d="M140.50781 360.86719l6.98438-.7461"/></g><path fill="none" stroke="#000" stroke-linecap="round" stroke-linejoin="round" stroke-miterlimit="10" stroke-width=".5" d="M153.95313 361.51563l6.72265-2.04688m-6.72266 2.04688l-1.73046-1.73829m2.71093 1.44141l-.86718-.8711m13.48437 1.83594l6.16016-3.3789m-6.16016 3.3789l-2.05469-1.34765m2.94922.85547l-1.02344-.67188m14.1797 2.08985l4.6875-5.23438m-4.00782 4.47266l-1.1914-.29297m15.49218 1.88672l1.35547-6.89454m-1.15625 5.89063l-1.17578.35547m11.51562-2.16016l6.91016-1.27734m-5.90625 1.08984l-.76172-.96094m16.4336-3.0039l.1875 7.02344m-.1875-7.02344l2.13671-1.20703m-2.10937 2.23047l1.0664-.60547m13.65235 6.34375l-2.67578-6.4961m2.67578 6.4961l-1.5625 1.89062m1.17578-2.83594l-.78516.94532m14.67188-.08203L249 357.32422m3.04297 6.33594l-1.45703 1.97656m16.75781-4.96485l-7.01563-.35937m7.01563.35938l1.03906 2.22656m-2.0586-2.27735l.51954 1.11329m13.82031-1.30079l-7.02734.1211m7.02734-.1211l1.1875 2.14454m-2.21094-2.12891l.59375 1.07422m13.69922-1.58985l-6.9375 1.1211m6.9375-1.1211l1.48438 1.95313m9.38672-1.39453l-.01953-.19922-.0586-.1914-.09375-.17579-.46094-.3789-.1914-.0547-.19922-.01952-.19922.01953-.1914.05469-.46094.3789-.09375.17578-.0586.1914-.01953.19923.01953.19922.0586.1914.09375.17969.46093.375.19141.0586.19922.01952.19922-.01953.1914-.05859.46094-.375.09375-.17969.0586-.1914.01953-.19922m10.84765-3.20313l2.88672 6.40625m-2.46484-5.47265l.75-.97266m11.27344.59766l4.625 5.29296m-4.625-5.29296l.875-2.29297m11.42187 3.82812l6.66406 2.22266m-6.66406-2.22266l-.41016-2.42187m1.37891 2.7461l-.20312-1.21095m12.9453.0625l5.8711 3.8672m-5.8711-3.8672l.23048-2.4414m.625 3.0039l.11328-1.21875m12.41406.5625l5.73828 4.0547m-5.73828-4.0547l.3086-2.43359m.52343 3.02344l.15625-1.21485m12.38281.55079l5.625 4.20703m-5.625-4.20704l.375-2.42578m14.84766 1.13282l1.8086 6.79296m-1.8086-6.79296l1.80078-1.67188m9.51563 3.08985l5.80468 3.95703m-5.80468-3.95704l.26953-2.4414m13.80078 1.64062l4.29687 5.5586m-3.67187-4.75l.5039-1.1211m13.3672-.28515l1.93359 6.7539m-1.9336-6.7539l1.76563-1.70703m10.95312 1.9375l3.12891 6.29296m-3.1289-6.29296l1.42577-1.9961m11.4922 2.22656l3.92187 5.83204m-3.92188-5.83204l1.15235-2.16406m-.58204 3.01172l.57813-1.08203"/><g clip-path="url(#Q)"><path fill="none" stroke="#000" stroke-linecap="round" stroke-linejoin="round" stroke-miterlimit="10" stroke-width=".5" d="M140.5039 347.52344l6.9922-.6875"/></g><path fill="none" stroke="#000" stroke-linecap="round" stroke-linejoin="round" stroke-miterlimit="10" stroke-width=".5" d="M153.90234 348.01563l6.82422-1.67579m-6.82422 1.67579l-1.6328-1.83204m2.625 1.58594l-1.63282-1.82812m14.33594 3.01171l6.0625-3.55078m-6.0625 3.55079l-2.08985-1.28516m2.97266.76953l-2.08984-1.28906m15.76562 3.05469l3.57813-6.04688m-3.57813 6.04688l-2.45313-.11329m2.97266-.76953l-1.22656-.05469m14.10156.98047l3.41797-6.13671m-3.41797 6.13671l-2.45312-.04687m14.01172-2.44531l6.93359-1.15235m-6.9336 1.15235l-1.49218-1.94922m19.07812-2.04688l-1.60937 6.83985m1.375-5.84375l1.1836-.3125m14.61718 4.46875l-6.11328-3.46485m6.11328 3.46485l-.0625 2.45312m-.82422-2.95703l-.03516 1.22656m14.33594-.90625l-6.3086-3.09765m6.3086 3.09765l.07813 2.45313m-.9961-2.90625l.03906 1.22656m14.21875-3.8164l-6.35937 2.98827m5.4336-2.55468l.98437.73828m10-3.1914l.15625 7.02734m-.15625-7.02735l2.14062-1.19922m9.44141 1.70313l3.6211 6.01953m-3.6211-6.01953l1.26172-2.10547m10.9961 3.08594l5.73437 4.0625m-5.73438-4.0625l.3125-2.4336m.52344 3.02344l.15625-1.21875m11.875 1.49219l6.6289 2.33203m-6.6289-2.33203l-.36719-2.42578m1.33203 2.76562l-.18359-1.21484m12.625.64844l6.44922 2.78906m-6.44922-2.78906l-.19922-2.44922m1.13672 2.85156l-.09766-1.22266m12.1836 2.19141l7.02734.04297m-7.02734-.04297l-1.13672-2.17578m14.47265 1.8125l6.98829.76953m-6.98829-.76953l-.90625-2.27735m14.27735 1.9336l6.875 1.46094m-6.875-1.46094l-.67578-2.35938m1.67578 2.57032l-.67578-2.35938m13.91015.42578l5.03516 4.90235m-5.03516-4.90235l.6875-2.35547m11.83985 3.6211l6.61328 2.3711m-6.61328-2.3711l-.35157-2.42969m1.3125 2.77344l-.17578-1.21485m13.45703-.52734l4.76172 5.16797m-4.0703-4.41406l.40624-1.16016m11.17969 2.16797l6.83203 1.64844m-5.83594-1.41016l-.30469-1.1875m13.50782-.66016l5.0664 4.86329m-5.0664-4.86329l.66797-2.36328m13.54687 1.6836l3.26563 6.22265m-3.26563-6.22265l1.38281-2.02735m-.90625 2.9336l.69141-1.01563m12.10156.13672l3.35938 6.16797m-3.35938-6.16797l1.35156-2.05078m-.86328 2.94922l.67578-1.02735"/><g clip-path="url(#R)"><path fill="none" stroke="#000" stroke-linecap="round" stroke-linejoin="round" stroke-miterlimit="10" stroke-width=".5" d="M140.59766 332.98047l6.80468 1.76562"/></g><path fill="none" stroke="#000" stroke-linecap="round" stroke-linejoin="round" stroke-miterlimit="10" stroke-width=".5" d="M153.8711 334.5625l6.88671-1.39844m-6.88672 1.39844l-1.55859-1.89453m2.5625 1.6914l-1.5625-1.89453m14.3125 3.22266l6.00781-3.64844m-6.00781 3.64844l-2.10547-1.2539m2.98047.72265l-2.10938-1.2539m2.98438.72265l-1.05469-.625m14 2.98047l3.2461-6.23438m-3.2461 6.23438L179.8672 337m2.92578-.92578l-2.45313.01953m14.75782.53906l4.32422-5.53906m-4.32422 5.53906l-2.41797-.42578m3.04687-.3789l-2.41797-.42579m14.08203-.05859l6.3711-2.96094m-6.3711 2.96094l-1.96093-1.48047m21.39453 1.9336l-5.86719-3.8672m5.86719 3.8672l-.23047 2.4453m13.80078-2.90234l-6.375-2.95312m5.44531 2.52344l.06641 1.22656m12.94531-5.19531l-3.91015 5.83984m3.33984-4.98828l1.21875.125m8.32813-.63672l4.76562 5.16406m-4.76563-5.16406l.8086-2.3164m12.26172 2.5664l5.2539 4.66406m-5.2539-4.66406l.57422-2.38672m.1914 3.0664l.57422-2.38671m11.69531 2.0625l5.8125 3.94922m-5.8125-3.94922l.26563-2.4375m.58203 3.01562l.13281-1.22265m12 1.26172l6.48047 2.71875m-6.48047-2.71875l-.22265-2.44141m1.16796 2.83594l-.11328-1.21875m12.54688.6875l6.35547 2.99219m-6.35547-2.9922l-.1211-2.44921m1.04688 2.88281l-.0625-1.22265m12.13672 1.91406l6.98828.74219m-6.98828-.7422L326 331.21876m14.26172 2.0625l6.92969 1.16016m-6.9297-1.16016l-.78124-2.32422m14.04687 2.80078l7.02735.21094m-7.02735-.21094l-1.08593-2.19922m14.57812 1.20313l6.67188 2.20312m-6.67188-2.20312l-.41406-2.42188m15.73437.27344l2.66407 6.5m-2.27735-5.55469l.78516-.9453m11.14062.625l4.66797 5.25m-4.66797-5.25l.85157-2.30079m12.15234 2.61328l5.28906 4.625m-5.28906-4.625l.5586-2.39062m12.07421 3.57812l6.65625 2.25m-6.65625-2.25l-.39844-2.42187m13.53516 3.30468l7.01172.48438m-7.01172-.48438l-1-2.24218m2.01953 2.3125l-.5-1.1211m12.88672.45703l6.82813 1.67188m-6.82813-1.67188l-.60156-2.3789m1.59765 2.6211l-.30468-1.1875m13.66406-.8086l4.75 5.17969m-4.75-5.1797l.8164-2.3125m-.125 3.06641l.40626-1.15625"/><g clip-path="url(#S)"><path fill="none" stroke="#000" stroke-linecap="round" stroke-linejoin="round" stroke-miterlimit="10" stroke-width=".5" d="M141.33984 318.2539l5.32032 4.58985"/></g><path fill="none" stroke="#000" stroke-linecap="round" stroke-linejoin="round" stroke-miterlimit="10" stroke-width=".5" d="M153.82813 320.1289l6.97656.83594m-6.97656-.83593l-.88672-2.28516m1.89843 2.41016l-.4414-1.14454m13.10937 3.05079l6.2461-3.22266m-6.2461 3.22266l-2.01562-1.39844m2.92578.92969l-2.01953-1.39844m15.54687 3.14453l4-5.77734m-4 5.77734l-2.4375-.28906m3.01953-.55469l-2.4375-.28516m3.01953-.55468l-1.21875-.14454m13.1875 1.69141l4.36329-5.50781m-4.36328 5.50781l-2.41407-.4414m3.05078-.35938l-2.41406-.4414m14.51563.66796l5.51562-4.35547m-5.51562 4.35547l-2.2461-.98828m19.5039 2.11719l-2.37108-6.61328m2.02734 5.65234l-.82422.90625m16.63281-4.36719l-6.66406 2.23047m5.6914-1.90625l.89063.84375m9.32031-3.48828l1.48438 6.86719m-1.26953-5.86719l.9375-.79297m11.40625.05078l3 6.35547m-3-6.35547l1.46875-1.96875m12.75781 1.6797l1.17578 6.92968m-1.17578-6.92969l1.94531-1.4961m12.60547 1.50782L289.81641 324m1.10937-5.90234l1.16797-.36329m11.2539-.67187l.8672 6.97266m-.7422-5.96094l1.00782-.70313m11.02344.04297l3.18359 6.26563m-2.72266-5.35156l.70704-1.00391m15.88671.4414l-4.29296 5.5625m3.66796-4.7539l1.20704.20703m14.08593 1.44531l-7 .64453m13.4961-1.47656l6.63671 2.3086m-5.67187-1.97266l-.1875-1.21485m18.92578.32422l-6.14062 3.41797m19.0078-4.05078l-5.24218 4.67969m5.24219-4.67969l2.30078.84766m9.19531-1.92578l-1.60547 6.83984m1.3711-5.84766l1.1875-.3125m10.6211-.64843l1.875 6.77343m-1.875-6.77343l1.78124-1.6875m9.98828 2.58984l4.96875 4.96875m-4.96875-4.96875l.71485-2.34375m12.3164 2.66406l5.53516 4.33203m-5.53516-4.33203l.42969-2.41797m.375 3.04688l.21484-1.20703m11.60547 2.125l6.91406 1.23828m-6.91406-1.23828l-.7539-2.33594m1.7578 2.51563l-.375-1.16797m14.83204-1.65235l2.6211 6.51953m-2.6211-6.51953l1.58203-1.8789"/><path fill="#ff3030" fill-rule="evenodd" d="M340.10938 449.89453h7.6953V439.75h-7.6953v10.14453"/><path fill="azure" fill-rule="evenodd" d="M341.94531 441.58203h.83203v5.73828h3.19532v.74219h-4.02735v-6.48047"/><path fill="#ff3030" fill-rule="evenodd" d="M184.76953 432.14063h7.6914v-10.14454h-7.6914v10.14454"/><path fill="azure" fill-rule="evenodd" d="M186.60156 423.82813h.83203v5.73828h3.19532v.74218h-4.02735v-6.48046"/><path fill="#00f" fill-rule="evenodd" d="M414.86719 427.70313h8.6211v-10.14454h-8.6211v10.14454"/><path fill="azure" fill-rule="evenodd" d="M416.70313 419.39063h.83203v2.82421h3.28515v-2.82421h.83594v6.48046h-.83594v-2.91796h-3.28515v2.91796h-.83204v-6.48046"/><path fill="#00f" fill-rule="evenodd" d="M219.58203 414.38672h8.61719v-10.14453h-8.61719v10.14453"/><path fill="azure" fill-rule="evenodd" d="M221.41406 406.07422h.83203v2.82422h3.28907v-2.82422h.83203v6.48047h-.83203v-2.91406h-3.28907v2.91406h-.83203v-6.48047"/><path fill="#ff3030" fill-rule="evenodd" d="M331.23438 387.75781h7.6914v-10.14453h-7.6914v10.14453"/><path fill="azure" fill-rule="evenodd" d="M333.0664 379.44531h.83594v5.73828h3.19141v.7422h-4.02734v-6.48048"/><path fill="#ff3030" fill-rule="evenodd" d="M411.125 374.4414h7.6914v-10.14452h-7.6914v10.14453"/><path fill="azure" fill-rule="evenodd" d="M412.95703 366.1289h.83203v5.7422h3.19531v.73827h-4.02734v-6.48046"/><path fill="#ff3030" fill-rule="evenodd" d="M229.15234 370.0039h7.69141v-10.14452h-7.6914v10.14453"/><path fill="azure" fill-rule="evenodd" d="M230.98438 361.6914h.83203v5.73829h3.1953v.74219h-4.02733v-6.48047"/><path fill="#00f" fill-rule="evenodd" d="M277.28125 365.5664h8.61719v-10.14452h-8.61719v10.14453"/><path fill="azure" fill-rule="evenodd" d="M279.11328 357.2539h.83203v2.82423h3.28516v-2.82422h.83594v6.48046h-.83594v-2.91796h-3.28516v2.91796h-.83203v-6.48046"/></g></defs><use xlink:href="#T"/></svg>