<svg xmlns="http://www.w3.org/2000/svg" role="img" xmlns:xlink="http://www.w3.org/1999/xlink" viewBox="181.65 327.65 278.21 137.71"><defs><clipPath id="a"><path d="M144 311.67188h1v168.65625h-1zm0 0"/></clipPath><clipPath id="b"><path d="M144 311.67188h324v168.65625H144zm0 0"/></clipPath><clipPath id="c"><path d="M467 311.67188h1v168.65625h-1zm0 0"/></clipPath><clipPath id="d"><path d="M144 476h2v4.32813h-2zm0 0"/></clipPath><clipPath id="e"><path d="M156 476h3v4.32813h-3zm0 0"/></clipPath><clipPath id="f"><path d="M169 476h3v4.32813h-3zm0 0"/></clipPath><clipPath id="g"><path d="M182 476h4v4.32813h-4zm0 0"/></clipPath><clipPath id="h"><path d="M195 476h4v4.32813h-4zm0 0"/></clipPath><clipPath id="i"><path d="M208 477h5v3.32813h-5zm0 0"/></clipPath><clipPath id="j"><path d="M220 477h7v3.32813h-7zm0 0"/></clipPath><clipPath id="k"><path d="M233 478h8v2.32813h-8zm0 0"/></clipPath><clipPath id="l"><path d="M231 480h4v.32813h-4zm0 0"/></clipPath><clipPath id="m"><path d="M246 479h9v1.32813h-9zm0 0"/></clipPath><clipPath id="n"><path d="M247 479h2v1.32813h-2zm0 0"/></clipPath><clipPath id="o"><path d="M260 479h8v1.32813h-8zm0 0"/></clipPath><clipPath id="p"><path d="M273 478h8v2.32813h-8zm0 0"/></clipPath><clipPath id="q"><path d="M288 476h5v4.32813h-5zm0 0"/></clipPath><clipPath id="r"><path d="M302 476h4v4.32813h-4zm0 0"/></clipPath><clipPath id="s"><path d="M315 476h4v4.32813h-4zm0 0"/></clipPath><clipPath id="t"><path d="M329 476h3v4.32813h-3zm0 0"/></clipPath><clipPath id="u"><path d="M343 476h2v4.32813h-2zm0 0"/></clipPath><clipPath id="v"><path d="M356 476h2v4.32813h-2zm0 0"/></clipPath><clipPath id="w"><path d="M368 476h5v4.32813h-5zm0 0"/></clipPath><clipPath id="x"><path d="M381 477h6v3.32813h-6zm0 0"/></clipPath><clipPath id="y"><path d="M393 478h8v2.32813h-8zm0 0"/></clipPath><clipPath id="z"><path d="M407 477h6v3.32813h-6zm0 0"/></clipPath><clipPath id="A"><path d="M421 476h5v4.32813h-5zm0 0"/></clipPath><clipPath id="B"><path d="M436 476h2v4.32813h-2zm0 0"/></clipPath><clipPath id="C"><path d="M449 476h2v4.32813h-2zm0 0"/></clipPath><clipPath id="D"><path d="M462 476h3v4.32813h-3zm0 0"/></clipPath><clipPath id="E"><path d="M144 464h3v6h-3zm0 0"/></clipPath><clipPath id="F"><path d="M144 451h3v6h-3zm0 0"/></clipPath><clipPath id="G"><path d="M144 437h3v7h-3zm0 0"/></clipPath><clipPath id="H"><path d="M144 423h2v8h-2zm0 0"/></clipPath><clipPath id="I"><path d="M144 410h2v8h-2zm0 0"/></clipPath><clipPath id="J"><path d="M144 396h2v8h-2zm0 0"/></clipPath><clipPath id="K"><path d="M144 402h2v2h-2zm0 0"/></clipPath><clipPath id="L"><path d="M144 383h2v8h-2zm0 0"/></clipPath><clipPath id="M"><path d="M144 372h4v4h-4zm0 0"/></clipPath><clipPath id="N"><path d="M144 359h4v3h-4zm0 0"/></clipPath><clipPath id="O"><path d="M144 346h4v2h-4zm0 0"/></clipPath><clipPath id="P"><path d="M144 332h4v4h-4zm0 0"/></clipPath><clipPath id="Q"><path d="M144 318h4v5h-4zm0 0"/></clipPath><g id="R" clip-path="url(#clip1)"><path fill="#fff" fill-opacity="0" fill-rule="evenodd" d="M.05078 0h1000v1000h-1000zm0 0"/><path fill="#d3d3d3" fill-opacity="0" fill-rule="evenodd" d="M162.20313 355.86719l-.23438.29297.0586.23437.11718.17188.17578.23437.29297.34766.11328.0586.11719-.17188.0586-.23438.17577-.17578.46485-.17578h.69922l.23437.29297.28906.8164.0586.17579.17578.23046.35156.23438.69922.69922.17188.17578.23437.34765.23438.41016.28906.58203.41016.46485.23046.23437.23438.17578.11719.23047.17578.29297.17187 1.16406v.23438l.0586.28906.05859.11719.11719.11719.34765.41015.1172.17188.17577.17578.17578.23437.1172.17188.17187.35156.05859.23438.23438.40625.23437-.0586-.17578.17578-.0586.92969h-.58203l-.23437-.11328-.34766.11328-.11719.11719-.05859.29297-.0586.17578-.11718.17187-.46484.29297-.0586.23438-.0586.11328v.64453l.0586.17187v.41016l.0586.0586v.40624l.05859.40625.11719.17579.0586.05859.23046.64062-.0586.29297v.69922l-.05859.58203v.23438l-.0586.23047-.05468.35156v1.92187l.05469.1172h.42578l-.36719.11718-.02344.35156.89063 1.16797 1.74219.53906 1.33984.35938v.53906l.08984.8086.53516.71484 1.51953.26953.89063-.08594.08984 1.16406.53516.1797 1.16015-.1797 2.0547-.98437 1.16015-.36328 1.8789-.17578 1.69532-.1797-.1797.71876-1.51562.08594-1.25.08984-.80468.26953-1.07422.8086.26953.71875.53516.89843-.1797.625-.26562.8086.26563 1.07812.625.89844.80469.17969 1.25-.1797-.26563.72267.09766.5039.05468.29297v.17188l.0586.29296v.40625l.17578.1172.35156.11718h.40625l.29297-.17578.11328-.11719.0586-.11719.11718-.23047.0586-.17578.35156-.46484.23047-.17578.17578-.0586.17578.0586.0586.17578.11718.98828.05469.46875.0586.17188.11718.23437.17578.0586.8164.05859H186.5l.11719.23437.0586.40625.05858.35156v1.10547l.1172.29297.11718.34766.28906.69922.17578.35156.58203.7539.35157.17579.17187.0586.46875.23437.64063.46484.34765.23438.29297.17578.29297.05468.23047.0625.8164.34766.29298.17578.11328.17188.35156.35156.11719.17578.52343.64063v.28906l.0586.35156v.34766l.0586.35156.05858.28906.1172.0586.17187.05859h.17578l.58203.23437.17578.1172.17578.28905.17578.23438.11328.23437.29297.23047.1172.11719v.41016l.05858.05468.28907.23438.23437.11719.0586.11718.11718.17188.0586.11719.23047.23437.05859.17578.23438.0586.11718.05859-.11719.11328-.05859.11719v.11719l-.11719.29296-.11718.28907v.58203l.17578.11719.11719.05859.05859.11719.11719.11719.11328.05859.17578.34765.0586.35157.05859.40625v.17578l-.0586.17578-.11719.69922v.17187l.1172.17579.29296.29296h.40625l.17578.1172.11719.17187.11719.29296v.23438h-.52735l-.23047-.23438h-.23437l-.17578.0586-.0586.69922.0586.34765.11719.17579.17578.41015.11719.23047.28906.46875.17578.05469h.52344l.23437.0586.75781.64062.0586.29296v.23438l.0586.0586.23046.34765v.35156l-.11719.17188v.29297l.29297.28906.29297.17578.17188.0586.29296.17577.29297.1172.58203.40624.28907.23438.29297.17578.21875.16015.01562.01172.23047.17579.64062.52343.17578.23438.1172.17578.17577.17578.11328.17188v.64062l.1172.17578.46874.11719.58203.11719.23438.05859.23047.11328.29297.11719.11328.0586.58594.35156.28906.17187.17578.0625.17578.05469.17578.0586.69922.35155.28906.17579.23438.05468.28906.17578.23438.1172.64062.40624.29297.11719.17187.0586.23438.05859.41016.05859.23046.0586.23438.11718.0586.17188-.41016.17578.46875.0586.05859.29296.11328.23438.17578.05468.23438.0586.17578.05859.40625.11719.64062.23437.1172.17188.05858.23437v.17578l-.05859.1172-.0586.40624.23438.23438.11719.05859.34766.11719.64062.23047.17578.11718.28906.1172.17579.17577.23437.46485.58203 1.10546.17578.17579.34766.17578.17578.11719.35156.11718 1.04688.52344.23437.0586.46485.11327.29297.0586.46484.17578.75781.58203.23438.23438.34765.46484.17578.17578.28907.23438.8164.69921.29297.17579.28906.28906.29297.17578.29297.28906.69531.64063.17579.17578.29297.23437.28906.23438.46875.28906.64062.58203.34766.23438.23437.29297.34766.34765.35156.46485.9336.99218.34765.40625.11719.17579.23438.05859.11328.11719.64453.17578.23047.11328.23437.0586.29297.17577.23047.1172.9336.69921.40624.40625.23438.17578.40625.17578.23437.11719.8164.34766.34767.23437.23437.11719.29297.28906.23047.11719.75781.35156.35156.17188.23047.05859.29297.11719.23438.0586.87109.17577h.8164l.46875.23047.17188.0586.875.69921.46484.1172.29297.05858.17578.0586.23047.0586.46875.05859.34766.05859.35156.0586.40625.05859h.29297l.17188.0586v.23046l.17578.17578h.29297l.34765.0586.35156.05859.69922.11719h.64063l.46484-.23438.29297-.17578.17188-.11719.41015-.17187.28906-.17578.9336-.46485.46875-.29297.52344-.29296.46484-.17188.46484-.17578 1.05078-.46485.28907-.11718.41015-.11719.28906-.11719.52735-.17578 1.51562-.69922.58203-.34765.28907-.0586.29297-.0586.34765-.11718.875-.23047.35156-.11719h.11329l.23437-.05859.875-.23437.23438-.0586h.8125l.35156-.0586.8164-.11718.17188-.0586.35156-.05468.29297-.0586.23047-.05859.8164-.17578.17579-.0586h.34765l.23438-.05859.46484-.11718.75781-.17188.23438-.0586h.34766l.41015-.11718.28906-.0586 1.28516-.05859h.28906l.41016-.0586.23047-.05858h.17578l.875-.1172h.40625l.41016-.11718h.34765l.35156-.11328.8711-.0586h1.75l1.04687.28907.41016.11719.28906.11718.35156.11719.28907.11719 1.05078.17187.28906.0586h.29297l.29297.05859.17187.0586.41016.05859.17188.0586.11718.05858h.11719l.11719.0586.35156.0586h.11328l.41016.0664 1.92187.39453 1.92578.39453 1.51954.44922 1.6953.71875 2.14454.80469 1.60547-.71875 1.42969-.80469 1.16015-1.07813 1.25-.44921 3.03516-.71875 1.875-.35938 2.14453-1.34765 2.23437-1.25391 2.5-1.25781 1.69532-.44922 1.78515-.17969 1.16016-.26953.625.53906 1.33984-.26953.71485-.98828.98437-1.34375.44531-.17969.8047-.35937 1.875-.53907 1.78515-.44921 1.25-.26954 1.16015-.08984 1.69922-.08984 1.96094-.26954 1.25-.08984h.53906l.625-.08984h.89063l2.14453-.17969 2.41015-.17969 2.58985-.08984 1.69531.17969 1.60938.08984 1.42968.35938 1.16016.71875 1.875.98828 1.16016 1.52734.26562.71484.6289.08985.35548.89844.53515.53906.53516 1.52734 1.07422.35938h.53515l-.80468.53515.08984 1.70703.71484 2.69532.89063.80468.89453.98829.71484 1.2578 1.78516.53907 1.51953-.17969.35547 1.34375 1.60938-.80469.98046-.53906.26954.26953.3164-.21484.21875-.14453.80078.44922.44922-.35938h.35547l.53516-.26953.53906-.71875.53515-.26953.625-.98828 1.16016.44922.83985.3711 1.39453.61718 1.6953-.17969h1.60548l1.78515.08985.1797-1.70704.53515-1.34375.80469.26954.49218.84765.40235.40625-.08985.53906v.35938l.71485.44922.71093-.26953h1.4297l.35937.98828.4453 1.25781.71485 1.34375 1.25.6289 1.69531.62891.71485-.17969.17969-.53906.98046-.08984.44922.35937.08594 1.25782-.26562.6289-.53516.17969v.53906l.71484.98438.26563.53906.98437.98828.80079 1.07813-.26563.35937-.08984.89844-.625 2.33203-.35547 2.0664-.08985 1.79298-.17968.71875-.08985.53906v1.4375l-.98047 1.88281-.35937 1.70703-.53516.89844-.80469 1.16797-.26562.53906 2.05469 1.2539.08594.35938-.35547.53906-.08985-.17968v.80859l.08985 1.4375-.44532.71484-1.07421.09375-.26563.71485.53516.89844.80468.71875 1.16016.80859 1.33984.26953.44532.35938-.35547.44921-1.78906-.08984-1.25-.44922-.71485-.71875-.625-.08984-.17578 3.58984-.1875 1.3086h89.35938V311.70313h-55.26954v49.08203l.76172.125 3.28906.54296 2.02344 2.83594v2.7539l2.35156.33204 2.34766.33203h4.05078l-1.3789 4.16016-2.02344.70703-2.02344.70312-.54297.34375-2.59375 1.6172-.1875.11718-2.02344-2.07813-.73046-2.74218-2.67188-2.07813-1.375-3.5-.0664-.08203-1.95704-2.67188 2.75-1.41796v-49.08204H294.47266v91.41407l.11718.03125.13282.01172.07421.07421.10547.04688.08985.0586.08594.05859.08984.0586.29687.29687.0586.08984.03125.11719.02734.11719.01563.13671-.03125.1172-.0586.08983-.0586.08594-.04296.10547-.04688.10156-.02734.1211v.14453l.17578.26953.14844.14844.07422.08594.07422.07421.04297.10547.0625.08985.05859.08593.04297.10547.0586.08985.04687.10156.04297.10547.05859.08594.11719.17968.07422.07422.0625.08594.05859.08984.04297.10547.0586.08985.05859.08593.0625.08985.05859.08984.04297.10156.11719.17969.07421.07422.0586.08594.07422.07421.08984.0586.10547.04687h.14844l.13281-.01562.13281.01562.10156-.04687.07422-.07422.04688-.10156-.01563-.13281v-.14844l-.04687-.10547-.02735-.11719-.04687-.10156-.02734-.1211-.04297-.10156-.0625-.08984-.04297-.10156-.04297-.10547-.03125-.11719-.01563-.13281-.01171-.13672.08593-.0586.0586-.08593.1211-.03125.04296.10547.01563.1328v.1172l.05859.10156.0586.08984.08984.0586.14843.14843.0586.08985.04297.10547-.01172.10156.08594.0586.10546.04687.08594.0586.08985.05858.07421.07422-.11718.02735-.10547.04687-.08594.0586-.07422.07421-.0586.08985-.0625.08594-.02734.12109-.04687.10156-.04297.10547-.03125.11719-.01172.13281-.01562.13281v.14844l.02734.11719.04688.10547.04296.10156.0586.08984.07422.07422.08984.0586.07422.07421.08984.0586.0586.08984.04296.10547.04688.10156.11719.03125.13281.01563h.14844l.11719-.03125.10546.04297.04297.10547.04688.10156.02734.1211.03125.11718.02735.11719.03125.1211.02734.11718.10547.04297.10156.04687.13281-.01562.14844.14844.0625.08593.07422.07422.07031.07422.08985.0625.10546.04297.10157.04297.11718.03125.13672.01562.11719-.03125.07422-.07422.02734-.11718-.01172-.13282-.03125-.12109-.02734-.11719.04297-.10547h.11719l.08984.0625.11719.02735h.14844l.1328.01562h.14844l.13282.01563.13281-.01563h.14844l.13281-.01562.13281-.01172.13672.01172.11719-.02735.13281-.01562.1914-.0586-.05859.17579-.01562.1328-.02735.1211-.01562.13281-.0586.08594-.1328.01563-.10548.04687-.10546.04297-.1172.03125-.11718.02735-.26562.03125h-.14844l-.13281.01562-.07422.07422.0586.08594.14843.14843.11719.1797.07421.0703.08985.0625.08984.0586.08594.0586.08984.05858.10157.04297.10546.0625.10547.04297.08594.0586.10547.04687.10156.04297.17969.11719.0586.08984-.04298.10156-.04687.10547.01563.13281.22265.22266.0586.08985.04296.10156.03125.1211.04297.10155.01563.13282.03125.11718.01172.13672.03125.11719.14843.14844.10157.04297.10546.04296.1172.03125.1328.01563.13672.01563h.1172l.11718-.03125.08984-.0586.04297-.10547.04688-.10156.04296-.10547.03125-.11719.01172-.1328v-.14845l-.01171-.1328-.01563-.13282-.03125-.11719-.04297-.10547-.04687-.10547-.04297-.10156-.04297-.10547-.01563-.13281.01563-.13281.02734-.11719.03125-.11719.02735-.1211.04687-.10155.08985-.0586.08593-.0625.07422-.07422.08985-.05859.22265-.22266.0586-.08593.07421-.07422.1172-.17969.05858-.08594v-.14844l-.07421-.07421-.10157-.04688-.10546-.04297-.10157-.04297-.0586-.08984-.04687-.10547-.02734-.11719.08984-.05859.1172-.03125.10155-.04297.1797-.11719.14843-.14843.01172-.13282-.01172-.10546-.08985-.0586-.1328.01563h-.14844l-.13282.01562-.13281-.01562-.1211-.03125-.08593-.0586-.07422-.07422-.0586-.08984-.0625-.08594-.11718-.17969-.0586-.08593.03125-.1211.08594-.05859.1211-.03125.05859-.08594v-.1211l-.03125-.11718-.0586-.08984-.05859-.08594-.04687-.10547-.02735-.11719-.01562-.1328.0586-.08985.07421-.07422.08985-.0586.11718-.17968.07422-.07422.0586-.08594.14843-.14844.1211-.03125.1328-.01562.13282.01562.07422.07422.04297.10547.01562.13281-.03125.1172-.11718.03124-.13282.01172-.14843.14844-.04297.10547-.04688.10156-.02734.1211-.03125.11718v.14844l.03125.11719.04297.10546.0586.08985.07421.07031.07422.07422.11719.03125.12109.02734.11719-.02734.13281-.01563h.11719l.08984.0586.07422.07422.04688.10546.05859.08594.10156.04688.13281.01562.10547.04297.08594.0586-.01172.10546-.07422.07422-.17969.11719-.05859.08984-.08984.0586-.07031.07422-.07422.07421-.0625.08985-.02735.11719-.01562.1328.01562.13282-.01562.13281v.14844l.01562.13281.02735.1172.03125.12108.07421.07422.08985.0586.08594.0586.08984.05858.11719.03125v.08594l-.10156.04688-.08985.0586-.26562.03124-.1172.02735h-.14843l-.10547.04296-.10156.04688-.0586.08984-.0625.23438-.01171.13281-.03125.1211-.01563.1328v.29298l-.01172.1328.01172.13673.01563.1328.13281.01563.13281.01172.1211.03125.08593.0586.07422.07421.04688.10547.04297.10157.01562.1328v.44532l-.01562.13281v.44532l.03125.26562.02734.11719.01563.13281.03125.11719.08593.21094.03125.26562v.14844l-.03125.11719-.02734.11718-.03125.1211-.02735.11719-.03125.11718-.03125.1211-.01171.1328-.01563.13282.08985.0586.11718-.03125.10156.01562.04688.10547-.03125.26562v.44141l-.04297.10547-.04687.10547-.04297.10156-.04297.10547-.0586.08594-.03125.12109-.04296.11719-.03125.11719-.01563.1328.01563.13282.05859.08984.10547.04688.08594.0586.05859.08593-.01172.13672-.03125.11719-.04297.10156v.44531l-.01562.13281v.14844l-.03125.11719-.04297.10547-.02735.11719-.04687.10546-.04297.10157-.03125.12109-.02734.11719-.03125.13281-.03125.11719-.02735.11719-.04296.10546-.03125.1172-.03125.12108-.01172.13282-.01563.13281v.29688l.02735.11718v.14844l.04687.39844.02734.11719.0586.08984.1211.03125h.14843l.13281-.01563.0586.08985v.11719l-.0586.08984-.08984.0586-.10156.04296-.10547.04688-.08985.05859-.08594.0586-.13671.01562-.1172-.03125-.1328-.01563-.10157.04688-.0625.08594-.01171.13671-.01563.13282-.03125.11719-.02734.11718-.01563.13281-.03125.1211v.29687l.01563.13282.03125.11718v.14844l.01171.13281v.14844l-.02734.11719-.04687.10156-.02735.1211-.03125.11718-.0586.08985-.07421.07421-.10156.04297-.10547.04688-.11719.02734-.1211.03125-.10156-.04687.0586-.08594.10547-.04688.02734-.11718.03125-.11719.02735-.1211.03125-.11718v-.14844l.01562-.13281-.03125-.11719-.04297-.10547-.10547.01563-.07422.07422-.10156.04296-.08984.0625-.07422.07422-.04297.10157-.01563.1328-.03125.1172-.02734.12109-.03125.11719-.02734.11719-.03125.12109-.02735.11719-.03125.11718-.04296.10547-.08985.0586h-.08984l-.11719-.03125-.03125-.08594.01563-.13672-.03125-.11719v-.14844l-.01172-.1328v-.14844l-.0625-.23438-.02735-.1211-.04297-.10156-.04687-.10546-.0586-.08594-.05859-.08985-.04297-.10546-.0625-.08594-.14844-.14844-.0703-.07422-.10548-.04687-.10546-.04297-.10157-.04297-.29687-.29688-.08985-.07421-.08593-.0586-.10547-.04297-.08985-.0625-.08593-.0586-.10547-.04296-.08985-.0586-.08593-.0625-.07422-.0703-.10547-.04688-.08594-.0586-.10547-.04296-.08984-.0625-.10156-.04297-.10547-.04297-.08594-.0586-.10547-.04687-.10547-.04297-.10156-.04687-.08984-.0586-.10157-.04297-.10546-.04296-.08985-.0625-.11719-.02735-.1328-.01562-.13282.01562h-.14844l-.13281.01563-.11719-.03125-.08984-.0586-.07422-.07422-.08985-.05859-.10156-.04688h-.14844l-.12109-.02734-.10156-.04297-.07422-.07422-.11719-.17968-.08984-.0586-.10156-.04297-.08985-.0625-.10547-.04296-.08984-.0586-.08594-.0586-.10547-.04687-.05859-.08594-.0586-.08984-.04296-.10547-.04688-.10156-.07422-.07422-.08593-.0586-.07422-.07421-.08985-.0586-.22265-.22265-.04297-.10547-.03125-.26563.10547-.04296h.14453l.10547.04296.07422.07422.08984.0586.08594.0586.10547.04687.08984.05859.14844.14844.07031.07422.14844.14843.0625.08594.07422.07422.08593.0586.07422.07421.08985.0625.08984.0586.08594.05859.26953.17578.10156.04688.10547.04296.10156.04297.04688-.07421.0586-.08594.07421-.07422.07031-.07422.10547.04297.07422.07422.0586.08984.04296.10156.04688.10547.04297.10547.12109.02735.11719-.02735.07422-.08984.04296-.10547.0586-.08985.07422-.07421.10547-.04297.11718-.02735.13282.01172.08984.0586.14844.14843.0586.08985.04296.10547.04688.10156.04296.10547.04297.10156.10547.04688.10547.04296.13281.01563.08594-.0586.0586-.08984.07421-.07422.10547-.04297.11719.02735.10547.04687.10156.04297.10547.04297.10156.04688.17969.11718v.11719l-.01563.13281.01563.13281.01562.13672.0586.08594.10156.04688.1211.02734.11718.03125h.14844l.11719-.03125.05859-.08984.17969-.1172.0586-.08983.07421-.07422.0586-.08594.11718-.17969.17969-.11719.11719.03125.08984.0586.04297.07422-.01563.1328v.1172l.08985.05859h.14844l.1328-.01563.13282-.01171.26563-.03125.10546-.04297.1172-.03125.12108-.02735.07422-.07421.07032-.07422.0625-.08985-.01563-.10547-.04687-.10156-.10157-.04297-.10546-.01562-.1172.02734-.26562.03125h-.14844l-.07421-.07422-.08985-.0586-.11719-.03124-.11718-.02735-.13281-.01562h-.14844l-.13281.01563h-.29688l-.10547-.04688-.14844-.14844-.04296-.10156-.0586-.08984.22266-.22266.08594-.0586.10546-.04296.1172-.03125.1328-.01563.13282.01563.13671.01562.10157.04297.13281-.01172.08984-.0625.10157-.04297.0625-.08984-.04688-.10156-.08984-.0586-.11719-.03125-.10156-.04296-.0586-.08985-.0625-.08984v-.11719l.01563-.13281.10547-.04688.07422-.07031v-.1211l-.08985-.05859-.03125-.11719.08985-.05859.07421-.07422.04297-.10547.0586-.08984.04687-.10156.01563-.13281v-.14844l-.04688-.10547-.04297-.10156-.08984-.0586-.13281-.01562-.10156-.04297-.13672-.01563-.1172-.03125h-.4453l-.13282-.01562-.1328-.01172-.13282-.01563-.11719-.03125h-.14844l-.1328-.01562-.13282-.01172-.26563-.03125-.12109-.04297-.08594-.0586-.07422-.07421v-.14844l.01172-.13281.10547-.04688.10156-.04296.13282-.01563h.15234l.13281-.01562h.29297l.1211.03125.10156.04296.08984.0586.23438.0625.12109-.04688.08984-.05859.10157-.04297.1328-.01562.10548.04296.10156.04688.13281.01172.1211-.02735h.14453l.1211-.03125.11718-.02734.10547-.04687.07422-.07422.08593-.0586.14844-.14843.0586-.08594.04687-.10547.02734-.11719.01563-.10547-.10156-.04296-.08985-.0586-.11719-.03125-.10546-.04297-.08985-.0625-.07422-.08594-.07421-.07421-.10157-.04297-.10547-.04688-.10156-.04297-.0586-.08984-.04687-.10156-.08594-.21094-.0625-.08594-.05859-.08984-.07422-.07422-.08594-.0586h-.26953l-.11718.03126-.08985.05859-.10156.04297-.13281.01562-.10547-.01562-.02735-.11719-.0625-.08984-.11718-.03125-.10156-.04297-.14844-.14844-.03125-.11719-.01563-.10546.07422-.07422.17969-.1172.11719-.02733.11718-.03125.13672.01562.10156.04297.10547.04297.10157.04687.10546.04297.1172.03125.1328.01563.1172.02734.1328.01563.10547-.01563.08985-.0586-.07422-.07421-.10547-.04297-.07422-.07422-.07422-.08984-.14844-.14844-.08593-.0586-.08985-.05859-.07421-.07422-.08985-.0586-.10156-.04687-.1211-.02734-.10156-.04688-.10547-.04296-.11718-.03125-.10157-.04297-.12109-.03125h-.14844l-.11719.03125-.10546.04297-.08594.0625-.17969.11718-.08594.0586-.08984.0586-.10547.04687-.08594.05859-.10546.04297-.10157.04297-.10547.04687-.07421.07422-.0586.08985-.0586.08593-.04687.10547-.0586.08594-.07421.07422-.13281-.01172-.11719-.03125h-.11719l-.07422.07422-.08984.0586-.07422.07421-.08984.0586-.08594.05859-.10547.04687-.10156.04297-.13672.01563-.10156-.04297-.14844-.14844-.10547-.04688h-.08594l-.10546.04688-.10157.04297-.1211.03125-.11718-.03125-.07422-.07422v-.11719l.03125-.1211.07422-.0703.0586-.08985.07421-.07422.1172-.03125.10546-.04296h.29297l.13281-.01563.13672-.01563.10156-.04296.08985-.0586.10156-.04687.08984-.0586.13281-.01171.08985.05859.13281.01172.08985-.0586.08593-.05859.10547-.04297.08985-.0586.08593-.0625.08985-.05859.14843-.14843.0586-.08594.0586-.08985.10546-.04296.13281-.01563.11719.02735.1211.03125.05859-.0586.0586-.08984.03124-.26563.02735-.11719.10546.01172.13282.01563.10156-.04297.08984-.0586.0586-.08984.07421-.07422.0586-.08984.04687-.10156.01172-.13281-.01172-.13282-.04687-.10547-.14844-.14843-.0586-.08985-.05859-.08594-.04296-.10546v-.44532l.01562-.1328v-.14845l.01172-.1328-.0586-.0586-.08984.0586-.10156-.04298-.17969-.11719-.08594-.05859-.0625-.08984-.05859-.08985-.07422-.07421-.08594-.0586-.12109.03125-.10156.01172-.10547.04688-.08594.05859-.10547.04297-.14844.14844-.08984.05859-.08594.0586-.08984.0625-.10547.04296-.13281.01563v-.1211l.10547-.04297.11719-.03125.07421-.0703.04297-.10548v-.14844l-.02734-.11718-.14844-.14844-.13281-.01563h-.14844l-.11719.03125-.10546.04297-.10157.04297-.08984.0625-.11719.02735-.07422-.07422.01172-.13281-.04297-.10157-.04297-.10547-.08984-.05859-.11719.02734-.1211.03125-.11718.03125-.10156.04297-.1211.03125-.10156.04297-.10547.04297-.08984.0586-.10156.01562v-.11719l.01562-.13281-.0586-.08985-.07421.04297-.14844.14844-.0586.08985-.07421.07421-.04688.10547-.04296.10156-.07422.07422-.0586.08985-.07421.07422-.0586.08593-.07422.07422-.08984.0625-.07422.07031-.07422.07422-.10156.01563-.13281.01562-.10547-.04296v-.1211l.14844-.14844.04296-.10156.0586-.08984.04687-.10156.04297-.10547.0586-.08985.03125-.11719.04296-.10156.03125-.1211.02735-.11718.04687-.10547.04297-.10156.04297-.10547.07422-.07031.08984-.0625.08985-.0586.10156-.04296h.29687l.26563-.03125.10547-.04297-.07422-.07422-.11719-.03125-.10547-.04297-.08984-.0586-.10156-.04687-.08985-.0586-.10156-.04296-.10547-.04297-.08984-.0625-.08594-.0586-.10547-.04296-.10156-.04297-.1211-.03125-.11718-.03125-.10156-.04297-.1211-.03125-.10156-.04297-.08985-.0586-.04296-.10546-.01563-.13281.10156-.04297.13282-.01563.13671.01563.13282-.01563.10156-.04297.0586-.08984.01562-.10547-.08985-.0586-.07421-.07421-.10157-.04297-.08984-.0586-.14844-.14843-.04297-.10547-.01562-.13281v-.29297l-.0586-.08985-.08984-.05859-.07422-.07422-.04297-.10547-.03125-.11718-.05859-.08985-.07422-.07422-.11719-.02734-.07421-.07422-.08985-.0586-.08984-.0625-.08594-.05859-.07422-.07421-.0586-.08594-.04687-.10547-.08594-.0586-.14843-.14843-.19531-.0586-.13282.01563-.10156.04297-.07422.07422-.04687.10156-.04297.10547-.0586.08984-.05859.08594-.29688.29687-.08984.0586h-.08594l-.0625-.08594-.04296-.10547.03125-.11719.05859-.08984.02734-.11719-.01172-.13281-.08984-.0625-.10547.04688-.11719.02734-.11718.03125-.26954.17578-.10156.04688-.11719.02734-.10546.04687-.08985.0586-.10156.04297-.0586-.08594-.04687-.10547.01563-.13281.04687-.10547.07031-.07422.07422-.07031.0586-.08985v-.14843l-.04297-.10547h-.23828l-.10157.04687-.03125.11719-.02734.11719-.03125.1211-.07422.04296-.13281.01563-.07422-.04688-.04297-.10156-.04297-.10547-.04687-.10156-.04297-.10547-.1211.03125-.10156.04297-.13281.01562-.11719.03125-.10547.04297-.08984.0586-.10156.04687-.1211.02734-.1328.01563-.10157-.04297-.0586-.08985-.04687-.10546-.04297-.10157-.04297-.10546v-.1172l.0586-.08984.08593-.05859.1797-.11719.10155-.04687.10547-.04297.10547-.0586.10156-.04296.08985-.0625.10156-.04297.10547-.0586.10156-.04687.08985-.0586.10546-.04296.10157-.04297.08984-.0625.10156-.04297.13672-.01563.11719.03125.10156.04297.1211.03125.10156.04297.10547.04688.10156.04296.10547.04297.10156.04688.10547.04297.10156.04297.10547.04687.08594.0586.10547.04296.11718.03125.10547.04297.10156.04688.08985.0586.10547.04296.10156.04297.10547.04687.11719.02735.10156.04687.1211.02735h.14843l.08594-.0586.01562-.10156.0586-.08984-.02735-.1172-.07422-.07421-.11718-.17969-.07422-.07422-.08985-.07421-.17968-.1172-.08594-.05859-.10547-.04296-.10156-.04688-.26953-.17578-.0586-.08985-.07422-.07421-.05859-.08985-.04297-.10156-.03125-.11719-.01562-.13672v-.5625l-.01172-.1328-.01563-.13282-.03125-.11719-.01562-.13281-.01172-.13281-.03125-.1211-.22266-.22265-.0586-.08594-.01562-.10547.03125-.11719.13282-.01562v-91.41406h-121.4297v1.45312l-.05858.23438-.35157 1.05078-.17187.52343-.11719.34766-.17578.41016-.11719.17187-.23437.29297-.23047.0586h-.35156l-.1172.05859-.23046.40625v.29297l.11719.17578.23047.23047.11718.23437.64063.75781.29297.46485.17578.23437.23047.35156.23437.34766.64063.8164.17578.46485.17187.41016.11719.69531.17578.46875.11719 1.39844.0586.46484v.875l.11718 1.04688v4.78125l-.0586.46484-.35156 1.28125-.17578.52344-.11328.41015-.35156.9297L172.98438 336l-.23438.58203-.11719.17578-.17187.34766-.17578.40625-.35157.8164-.05859.29297-.11328.29297-.11719.28906-.0586.17579-.11718.875-.0586.40625-.05859.11718-.0586.17579-.05858.17187-.23047.52734-.1172.17188v.23437l-.11718.23438-.0586.17187-.17577.58594v.28906l-.0586.17579v.29296l-.0586.11329-.05858.52734v.17187l-.0547.23438v2.6211l-.17577.8164-.1172.17578-.17577.23438-.11719.17187-.11328.23438-.58594.93359-.23047.28906-.29297.46485-.17578.23437-.28906.35156-.35156.69922-.11328.23047-.17578.41016-.17579.23046-.40625.52735-.8164.69922-.29297.17187-.28906.23438-.17578.11719-.17579.17578-.52343.40625-.52735.17578-.17187.17578-.23438.05469-.64062.17578h-.75781m12.21093 31.02344l-1.07422.44921.35938.89454 1.25-.71485.44531-.53906-.98047-.08985"/><path fill="#d3d3d3" fill-opacity="0" fill-rule="evenodd" d="M201.5586 416.59766h-.89454l.44922.6289.98047.35938.80469-.08985.44531-.98828-.17578.08985-.71484-.35547-.89454.35547m154.6211 59.0703l-.0586-.52343v-.29297l.11329-.29297.05859-.23046.46875-.46875h.11328l.11719-.11329.11719-.05859h.17578l.23437-.0586h.34766l.23437.0586.11719.0586.23047.17187.0586.17578.11718.58203v.29297l-.11719.17578-.17187.28906-.17578.17579-.52735.52343-.23047.23438-.11718.0586h-.17579l-.11718-.0586-.40625-.29297-.17578-.11719-.1172-.0586-.05858-.11327-.0547-.1172m6.64063-10.95702l-.0586-.17188v-1.10937l.0586-.17188.17578-.0586.17188-.05858h.17578l.23438-.0586.11718.0586.0586.69921-.0586.17188-.11719.17578-.11718.0586-.23438.52343-.11328.0586h-.23437l-.0586-.1172m9.61328-14.39062l-.11718-.17578v-.69922l.29296-.875.1172-.17187.17577-.35156.11329-.23047.11718-.29297.35156-.75781.1172-.23047.17187-.23438h.17578l.11719-.0586h.64062l.11719.0586.23437.23438.17188.11328.35156.29297.11719.11718.11328.17579v.11328l.11719.05859.11719.11719v.69922l-.0586.17578v.23047l-.0586.17578-.34765 1.05078-.11719.23047-.11718.23437-.1172.0586-.23046.23437-.64063.28906h-.875l-.41015-.11718-.64063-.46485"/><path fill="none" stroke="#bebebe" stroke-linecap="round" stroke-linejoin="round" stroke-miterlimit="10" stroke-width=".5" d="M0 311.69531h0v168.625h0v-168.625"/><g clip-path="url(#a)"><path fill="#fff" fill-opacity="0" fill-rule="evenodd" d="M144.05078 475.89063v4.4375h.0039-.0039V311.67188h.0039-.0039v164.21875"/></g><g clip-path="url(#b)"><path fill="#fff" fill-opacity="0" fill-rule="evenodd" d="M144.05469 480.32813V311.67188h39.9414v112.1875l-1.08984 3.21093 1.08984 1.48438 4.4375 1.50781 4.4375-2.57813.3086-.41406-.3086-.26172-4.4375-2.6953-4.4375-.25392v-112.1875h22.19141v122.9297l-2.63672 1.34374-1.80078 1.6875-1.51953 2.75 1.51953 3.34766.30078 1.08984 4.13672 3.8711 2.78516.5703 1.65234 1.14063 4.39063 3.29688.05078.03515 4.4375 2.03516 3.38672 2.36719 1.05078.76953 4.4375.53125 1.78906-1.30078 2.64844-.89844 4.4414-.42578 4.4375-.66016 4.35938-2.45312-4.35938-3.78906-.46094-.64844-3.97656-3.73438-4.19922-.70703 4.19922-2.26953.91016-2.16797-.91016-.90625-1.8164.90625-2.625 4.26172-4.4375-3.4375-3.96094-.82422-.47656-.14844-.2422.14844-4.1953 2.6289-4.4375-.13671-4.44141-1.10156-1.77734-1.39063-.28516-4.4375-2.375-1.34375V311.67187h44.38281v77.76172l-2.14844 2.12891-2.28906 1.23047L242.8711 396l-1.17578 1.41016-4.35547 3.02734-.08203.05078-3.8086 4.38672-.6328.94531-4.4375-.02734-2.40235 3.52344 2.40235 2.57421 1.91797 1.86329 2.51953 2.33984 1.1289 2.09766 3.3125 3.37109 1.23828 1.0664 3.19922 3.125 4.4375.6172 4.4375.18359 1.70703.51562 2.73047 2.71094 2.94531-2.71094 1.4961-.55078v13.71875l-.14453.14453.14453.65625.23047-.65625-.23047-.14453v-13.71875l1.66015.55078 2.77735 2.53125 4.4375-.80469 4.4375 1.38672 4.4414.51954 4.4375.80078 4.4375-1.37891 2.83985-3.05469-2.83985-2.85547-1.14453-1.58593 1.14454-2.48829 1.86718-1.94921 2.57031-1.6875 3.16016-2.75-3.16015-3.1172-1.1797-1.3203-3.2578-3.44532-1.64844-.99609-2.78906-2.11719-3.91407 2.11719-.52344.15625-.57421-.15625-1.63672-4.4375L274.5 396l-1.73828-2.03516-4.4375-1.19921-4.4375 3.0703-.32031.16407.3203.20703 1.9922 4.23047.71093 4.4375-2.70312 1.6836-4.4375 2.30859L258 404.875l-.02734-4.4375-2.96485-3.92969-.60937-.50781-1.36328-4.4375-2.46485-2.1289v-77.76173h44.38281v119.03125l-.5078.8047.5078.46093.48438-.46094-.48438-.80469V311.67188h8.87891v91.31641l-1.6836 1.88672-2.1875 4.4414-.5664.6875-2.73047 3.75.25 4.4375 2.48047 1.58985 3.4961-1.58984.9414-.64844 4.4375-.42188 1.98438 1.07032 2.45312 2.3125 3.69531-2.3125.59375-4.4375-2.23828-4.4375-2.05078-1.89454-4.4375-1.08984-2.50781-1.45703-1.92969-1.88672v-91.3164h79.89063v118.26171l-1.60157 1.57422 1.60157 1.375 1.5664-1.375-1.5664-1.57422V311.67188h8.875v123.4375l-.87891.83593.8789.85156.83594-.85156-.83593-.83594v-123.4375h75.44921v168.65625H144.0547"/></g><path fill="#50fcfc" fill-rule="evenodd" d="M183.9961 428.55469l-1.08985-1.48438 1.08984-3.21094 4.4375.25391 4.4375 2.69531.3086.26172-.3086.41406-4.4375 2.57813-4.4375-1.50781M201.75 443.73047l-1.51953-3.34766 1.51953-2.75 1.80078-1.6875 2.63672-1.34375v8.5l-.97656 1.71875.97656.91797 2.44922-.91797-2.44922-1.71875v-8.5l2.375 1.34375.28516 4.4375 1.77734 1.39063 4.4414 1.10156 4.4375.13672 4.19532-2.6289.24219-.14844.47656.14843 3.96094.82422 4.4375 3.4375v7.3711l-1.01563 1.68359 1.01563.44922 1.84375-.44922-1.84375-1.6836v-7.37109l2.625-4.26172 1.8164-.90625.91016.90625-.91016 2.16797-4.19922 2.26953 4.19922.70703 3.97656 3.73438.46094.64844 4.35938 3.78906-4.35938 2.45312-4.4375.66016-4.4414.42578-2.64844.89844-1.78906 1.30078-4.4375-.53125-1.05078-.76953-3.38672-2.36719-4.4375-2.03515-.05078-.03516-4.39063-3.29688-1.65234-1.14062-2.78516-.57031-4.13672-3.8711-.30078-1.08984"/><path fill="#00e8fc" fill-rule="evenodd" d="M206.1875 445.73828l-.97656-.91797.97656-1.71875 2.44922 1.71875-2.44922.91797"/><path fill="#50fcfc" fill-rule="evenodd" d="M228.3789 411.89063l-2.40234-2.57422 2.40235-3.52344 4.4375.02734.6328-.94531 3.8086-4.38672.08203-.05078 4.35547-3.02734L242.8711 396l3.26172-3.20703v1.88281L244.78516 396l-3.08985 3.71484-1.04297.72266-3.39453 2.04688-2.07812 2.39062-2.36328 3.53906-2.6797.90235 2.6797 2.5039.46875 1.9336 2.3789 4.4375 1.59375 1.62109 3.27344 2.8164 1.16406 1.13673 4.4375 1.53906 4.4375.45703 4.34375 1.3086.09375.09374.10547-.09375 4.33594-1.58594 4.4375 1.46485 4.4375-2.0039 2.22265 2.125 2.21485 1.1328 4.4414 1.30079 4.4375.40625 4.4375-2.58594.23829-.2539-.23829-.2422-3.03515-4.19921-1.40235-1.5547-2.3164-2.8828-1.51953-4.4375 3.83594-2.4922v1.91017l-.89454.58203.26172 4.4375.63281.78906 1.96485-.78906 2.47265-3.76172.32813-.67578-.32813-.28516-4.4375-.29688v-1.91015l4.4375-1.13281 4.20313 3.625.23438.16015.18359-.16015-.1836-.1797-3.79687-4.2578-.64063-.67579-4.4375-2.53125-4.4375.78516-4.4414-.8789-4.4375-.19141-4.39453 3.49219-.04297.02734-4.4375 1.02344-2.35547-1.05078L255.75 404.875l-.07422-4.4375-.66797-.88672L250.73047 396l-.16016-.44531-4.4375-.8789v-1.88282l2.28906-1.23047 2.14844-2.1289 2.46485 2.1289L254.39844 396l.60937.50781 2.96485 3.92969L258 404.875l1.44922 3.99219 4.4375-2.3086 2.70312-1.68359-.71093-4.4375-1.9922-4.23047-.3203-.20703.3203-.16406 4.4375-3.07031v1.80859L266.33985 396l1.98438 3.04688L270.89844 396l-2.57422-1.42578v-1.8086l4.4375 1.19922L274.5 396l.49219 4.4375 1.63672 4.4375.57421.15625.52344-.15625 3.91406-2.11719 2.78907 2.11719 1.64844.9961 3.2578 3.4453 1.1797 1.32032 3.16015 3.11719-3.16015 2.75-2.57032 1.6875-1.86719 1.94921-1.14453 2.48829 1.14454 1.58593 2.83984 2.85547-2.83985 3.05469-4.4375 1.3789-4.4375-.80077-4.4414-.51954-4.4375-1.38671-4.4375.80468-2.77735-2.53125-1.66015-.55078-1.4961.55078-2.9453 2.71094-2.73048-2.71094-1.70703-.51562-4.4375-.1836-4.4375-.61718-3.19922-3.125-1.23828-1.06641-3.3125-3.3711-1.1289-2.09765-2.51953-2.33984-1.91797-1.86329"/><path fill="#00e8fc" fill-rule="evenodd" d="M232.8164 411.82031l-2.67968-2.5039 2.67969-.90235 2.36328-3.53906 2.07812-2.39063 3.39453-2.04687 1.04297-.72266L244.78516 396l1.34765-1.32422v4.15625l-2.48047 1.60547L246.13281 402l.63281-1.5625-.6328-1.60547v-4.15625l4.4375.8789v3.51173l-1.15235 1.37109-.39063 4.4375-2.89453 2.0039-4.4375-1.59765-4.4375 3.1836-.34765.85156-.72266 4.4375 1.07031 2.0078 1.34375 2.4297 3.09375 2.69921 2.50781 1.73829 1.9297.89843 4.4375.91407 4.4375.77734 4.4414-1.46094 4.4375 1.5039 3.16797-2.6328 1.26953-1.23438 2.79297 1.23438 1.64453 1.59375 3.34765 2.84765 1.09375.42578 4.4375-.25.29297-.17578-.29296-.48437-2.41797-3.95703-2.01954-2.90625-.64062-1.53125-1.41406-4.4375-2.38672-3.64844-1.67969-.78906-2.75781-.9297-1.16797.9297-3.26953 2.41796-4.4375.51954-4.4414-.69141-4.4375-1.95703-.375-.28906.375-.77735 1.20312-3.66406.33203-4.4375-1.53516-1.3711v-3.51171l.16016.44531 4.27734 3.55078.66797.88672.07422 4.4375 1.34375 4.4414 2.35547 1.05079 4.4375-1.02344.04297-.02734 4.39453-3.4922 4.4375.19142 4.4414.8789 4.4375-.78515 4.4375 2.53125.64063.67578 3.79688 4.2578.18359.1797-.1836.16015-.23437-.16015-4.20313-3.625-4.4375 1.1328-3.83593 2.4922 1.51953 4.4375 2.3164 2.8828 1.40235 1.5547 3.03515 4.19921.23829.2422-.23829.2539-4.4375 2.58594-4.4375-.40625-4.4414-1.30079-2.21485-1.1328-2.22265-2.125-4.4375 2.0039-4.4375-1.46485-4.33594 1.58594-.10547.09375-.09375-.09375-4.34375-1.3086-4.4375-.45702-4.4375-1.53906-1.16406-1.13672-3.27344-2.81641-1.59375-1.6211-2.3789-4.4375-.46875-1.93359m0 42.32813l-1.01563-.44922 1.01563-1.6836 1.84375 1.6836-1.84375.44922"/><path fill="#00d4fc" fill-rule="evenodd" d="M237.25781 415.76172l-1.07031-2.00781.72266-4.4375.34765-.85157 4.4375-3.18359v3.65234l-.44922.38282-2.17578 4.4375 2.5625 4.4375.0625.05468 4.4375 3.35547 2.54297 1.02735 1.89453.48828 4.4375.21094 2.28516-.69922 2.15625-.9297 1.70312.9297 2.73438.9414 1.13281-.9414 3.30469-3.21485 4.4375.6289 1.1836-1.85155-1.14063-4.4375-.04297-.06641-4.4375-3.26953-4.10547 3.33594-.33203.5-4.4375.10546-4.4414 1.125-4.4375-1.32421-.38673-.40625-4.05078-3.35938-3.33984-1.07812-1.09766-.38282v-3.65234l4.4375 1.59766 2.89453-2.00391.39063-4.4375 1.15234-1.3711 1.53516 1.3711-.33203 4.4375-1.20313 3.66406-.375.77735.375.28906 4.4375 1.95703 4.4414.6914 4.4375-.51952 3.26954-2.41797 1.16797-.9297 2.75781.9297 1.67969.78906 2.38672 3.64844 1.41406 4.4375.64063 1.53125 2.01953 2.90625 2.41796 3.95703.29297.48437-.29296.17578-4.4375.25-1.09375-.42578-3.34766-2.84765-1.64453-1.59375-2.79297-1.23438-1.26953 1.23438-3.16797 2.6328-4.4375-1.5039-4.4414 1.46094-4.4375-.77734-4.4375-.91407-1.9297-.89843-2.5078-1.73829-3.09376-2.69921-1.34375-2.4297"/><path fill="#00c4fc" fill-rule="evenodd" d="M241.63281 418.1914l-2.5625-4.4375 2.17578-4.4375.44922-.3828 1.09766.3828 3.33984 1.07813v3.42188l-1.7539 4.375 1.7539 1.33203 4.05469-1.33203-4.05469-4.375v-3.42188l4.05078 3.35938.38672.40625 4.4375 1.32421 4.4414-1.125 4.4375-.10546.33204-.5 4.10547-3.33594v1.73047l-1.97656 1.60547-2.46094 3.73828-4.4375-.20313-2.64453.90235 2.64453.82812 4.4375.63281 1.60156-1.46093 2.83594-1.30079 2.15625-3.13671-2.15625-1.60547v-1.73047l4.4375 3.26953.04297.0664 1.14062 4.4375-1.1836 1.85157-4.4375-.6289-3.30468 3.21484-1.13281.9414-2.73438-.9414-1.70312-.9297-2.15625.9297-2.28516.69921-4.4375-.21093-1.89453-.48828-2.54297-1.02735-4.4375-3.35547-.0625-.05468"/><path fill="#50fcfc" fill-rule="evenodd" d="M246.13281 398.83203l-2.48047 1.60547L246.13281 402l.63281-1.5625-.6328-1.60547"/><path fill="#00b8fc" fill-rule="evenodd" d="M246.13281 419.52344l-1.7539-1.33203 1.7539-4.375 4.05469 4.375-4.05469 1.33203m13.3164-.5039l-2.64452-.82813 2.64453-.90235 4.4375.20313 2.46094-3.73828 1.97656-1.60547 2.15625 1.60547-2.15625 3.13671-2.83594 1.30079-1.60156 1.46093-4.4375-.6328"/><path fill="#50fcfc" fill-rule="evenodd" d="M259.44922 441.03906l-.14453-.65625.14453-.14453.23047.14453-.23047.65625"/><path fill="#00e8fc" fill-rule="evenodd" d="M268.32422 399.04688L266.33984 396l1.98438-1.42578L270.89844 396l-2.57422 3.04688"/><path fill="#fff" fill-opacity="0" fill-rule="evenodd" d="M281.64063 413.17188l-.89454.58203.26172 4.4375.63281.78906 1.96485-.78906 2.47265-3.76172.32813-.67578-.32813-.28516-4.4375-.29688"/><path fill="#50fcfc" fill-rule="evenodd" d="M294.95313 431.96875l-.50782-.46094.50781-.80469.48438.8047-.48438.46093m1.96094-13.77734l-.25-4.4375 2.73047-3.75.5664-.6875 2.1875-4.44141 1.6836-1.88672 1.92969 1.88672 2.50781 1.45703v2.85938l-1.05469.125-1.90625 4.4375 2.96094 1.53515 4.4375 2.27344 2.6914-3.8086-2.6914-3.41406-4.08594-1.02343-.35156-.125v-2.85938l4.4375 1.08985 2.05078 1.89453 2.23828 4.4375-.59375 4.4375-3.6953 2.3125-2.45313-2.3125-1.98438-1.07032-4.4375.42188-.9414.64844-3.4961 1.58984-2.48047-1.58984"/><path fill="#00e8fc" fill-rule="evenodd" d="M308.26953 415.28906l-2.96094-1.53515 1.90625-4.4375 1.0547-.125.35155.125 4.08594 1.02343v3.39063l-.0625.02344.0625.02734.01953-.02734-.01953-.02344v-3.39063l2.6914 3.41407-2.6914 3.80859-4.4375-2.27344"/><path fill="#00d4fc" fill-rule="evenodd" d="M312.70703 413.78125l-.0625-.02734.0625-.02344.01953.02344-.01953.02734"/><path fill="#50fcfc" fill-rule="evenodd" d="M383.72266 432.88281l-1.60157-1.375 1.60157-1.57422 1.5664 1.57422-1.5664 1.375m8.875 3.91406l-.87891-.85156.8789-.83594.83594.83594-.83593.85156"/><g clip-path="url(#c)"><path fill="#fff" fill-opacity="0" fill-rule="evenodd" d="M468.04688 480.32813h.0039V311.67188h-.0039.0039v168.65625h-.0039"/></g><path fill="#fff" fill-opacity="0" fill-rule="evenodd" d="M288.55469 424.28516l4.48828-3.73438-6.36719-7.66015-4.49219 3.73828 6.3711 7.65625"/><path fill-rule="evenodd" d="M286.04688 415.80078l.39062-.32812 4.02734 4.83984-.60546.5039-2.8711-3.45312-1.07031.89063-.35156-.4297.38671-.40624.16016-.20313.11719-.21484.0664-.23828v-.27344l-.07812-.3164-.17188-.3711"/><g clip-path="url(#d)"><path fill="none" stroke="#000" stroke-linecap="round" stroke-linejoin="round" stroke-miterlimit="10" stroke-width=".5" d="M0 483.65234v-6.64843"/></g><g clip-path="url(#e)"><path fill="none" stroke="#000" stroke-linecap="round" stroke-linejoin="round" stroke-miterlimit="10" stroke-width=".5" d="M0 483.71094v-6.76172"/></g><g clip-path="url(#f)"><path fill="none" stroke="#000" stroke-linecap="round" stroke-linejoin="round" stroke-miterlimit="10" stroke-width=".5" d="M0 483.79297v-6.92969"/></g><g clip-path="url(#g)"><path fill="none" stroke="#000" stroke-linecap="round" stroke-linejoin="round" stroke-miterlimit="10" stroke-width=".5" d="M0 483.71875v-6.78125"/></g><g clip-path="url(#h)"><path fill="none" stroke="#000" stroke-linecap="round" stroke-linejoin="round" stroke-miterlimit="10" stroke-width=".5" d="M0 483.52344v-6.38672"/></g><g clip-path="url(#i)"><path fill="none" stroke="#000" stroke-linecap="round" stroke-linejoin="round" stroke-miterlimit="10" stroke-width=".5" d="M0 483.33203v-6.0039"/></g><g clip-path="url(#j)"><path fill="none" stroke="#000" stroke-linecap="round" stroke-linejoin="round" stroke-miterlimit="10" stroke-width=".5" d="M0 482.55078v-4.44531"/></g><g clip-path="url(#k)"><path fill="none" stroke="#000" stroke-linecap="round" stroke-linejoin="round" stroke-miterlimit="10" stroke-width=".5" d="M0 481.94531v-3.23047"/></g><g clip-path="url(#l)"><path fill="none" stroke="#000" stroke-linecap="round" stroke-linejoin="round" stroke-miterlimit="10" stroke-width=".5" d="M0 481.94531v-1.39453"/></g><g clip-path="url(#m)"><path fill="none" stroke="#000" stroke-linecap="round" stroke-linejoin="round" stroke-miterlimit="10" stroke-width=".5" d="M0 480.89844v-1.14063"/></g><g clip-path="url(#n)"><path fill="none" stroke="#000" stroke-linecap="round" stroke-linejoin="round" stroke-miterlimit="10" stroke-width=".5" d="M0 480.73438v-.97657"/></g><g clip-path="url(#o)"><path fill="none" stroke="#000" stroke-linecap="round" stroke-linejoin="round" stroke-miterlimit="10" stroke-width=".5" d="M0 479.48828v1.67969"/></g><path fill="none" stroke="#000" stroke-linecap="round" stroke-linejoin="round" stroke-miterlimit="10" stroke-width=".5" d="M0 479.73438v-1.19141"/><g clip-path="url(#p)"><path fill="none" stroke="#000" stroke-linecap="round" stroke-linejoin="round" stroke-miterlimit="10" stroke-width=".5" d="M0 478.67188v3.3164"/></g><path fill="none" stroke="#000" stroke-linecap="round" stroke-linejoin="round" stroke-miterlimit="10" stroke-width=".5" d="M0 479.15234v-1.22656"/><g clip-path="url(#q)"><path fill="none" stroke="#000" stroke-linecap="round" stroke-linejoin="round" stroke-miterlimit="10" stroke-width=".5" d="M0 477.21094v6.23437"/></g><path fill="none" stroke="#000" stroke-linecap="round" stroke-linejoin="round" stroke-miterlimit="10" stroke-width=".5" d="M0 477.21094v-2.01953"/><g clip-path="url(#r)"><path fill="none" stroke="#000" stroke-linecap="round" stroke-linejoin="round" stroke-miterlimit="10" stroke-width=".5" d="M0 477.0586v6.53906"/></g><path fill="none" stroke="#000" stroke-linecap="round" stroke-linejoin="round" stroke-miterlimit="10" stroke-width=".5" d="M0 477.0586v-1.86329"/><g clip-path="url(#s)"><path fill="none" stroke="#000" stroke-linecap="round" stroke-linejoin="round" stroke-miterlimit="10" stroke-width=".5" d="M0 477.14063v6.375"/></g><path fill="none" stroke="#000" stroke-linecap="round" stroke-linejoin="round" stroke-miterlimit="10" stroke-width=".5" d="M0 477.14063v-1.95704"/><g clip-path="url(#t)"><path fill="none" stroke="#000" stroke-linecap="round" stroke-linejoin="round" stroke-miterlimit="10" stroke-width=".5" d="M0 476.8711v6.91796"/></g><path fill="none" stroke="#000" stroke-linecap="round" stroke-linejoin="round" stroke-miterlimit="10" stroke-width=".5" d="M0 476.8711v-1.51563"/><g clip-path="url(#u)"><path fill="none" stroke="#000" stroke-linecap="round" stroke-linejoin="round" stroke-miterlimit="10" stroke-width=".5" d="M0 476.82031v7.01563"/></g><path fill="none" stroke="#000" stroke-linecap="round" stroke-linejoin="round" stroke-miterlimit="10" stroke-width=".5" d="M0 476.82031v-1.03515"/><g clip-path="url(#v)"><path fill="none" stroke="#000" stroke-linecap="round" stroke-linejoin="round" stroke-miterlimit="10" stroke-width=".5" d="M0 476.85938v6.9414"/></g><path fill="none" stroke="#000" stroke-linecap="round" stroke-linejoin="round" stroke-miterlimit="10" stroke-width=".5" d="M0 476.85938v-1.47657"/><g clip-path="url(#w)"><path fill="none" stroke="#000" stroke-linecap="round" stroke-linejoin="round" stroke-miterlimit="10" stroke-width=".5" d="M0 477.1836v6.28906"/></g><path fill="none" stroke="#000" stroke-linecap="round" stroke-linejoin="round" stroke-miterlimit="10" stroke-width=".5" d="M0 477.1836v-1.9961"/><g clip-path="url(#x)"><path fill="none" stroke="#000" stroke-linecap="round" stroke-linejoin="round" stroke-miterlimit="10" stroke-width=".5" d="M0 477.5586v5.53906"/></g><path fill="none" stroke="#000" stroke-linecap="round" stroke-linejoin="round" stroke-miterlimit="10" stroke-width=".5" d="M0 477.5586v-2.2422"/><g clip-path="url(#y)"><path fill="none" stroke="#000" stroke-linecap="round" stroke-linejoin="round" stroke-miterlimit="10" stroke-width=".5" d="M0 478.875v2.91016"/></g><path fill="none" stroke="#000" stroke-linecap="round" stroke-linejoin="round" stroke-miterlimit="10" stroke-width=".5" d="M0 478.875v-2.44922"/><g clip-path="url(#z)"><path fill="none" stroke="#000" stroke-linecap="round" stroke-linejoin="round" stroke-miterlimit="10" stroke-width=".5" d="M0 477.5625v5.53125"/></g><path fill="none" stroke="#000" stroke-linecap="round" stroke-linejoin="round" stroke-miterlimit="10" stroke-width=".5" d="M0 478.36719v-1.1211"/><g clip-path="url(#A)"><path fill="none" stroke="#000" stroke-linecap="round" stroke-linejoin="round" stroke-miterlimit="10" stroke-width=".5" d="M0 477.16016v6.33593"/></g><path fill="none" stroke="#000" stroke-linecap="round" stroke-linejoin="round" stroke-miterlimit="10" stroke-width=".5" d="M0 478.08203v-.98828"/><g clip-path="url(#B)"><path fill="none" stroke="#000" stroke-linecap="round" stroke-linejoin="round" stroke-miterlimit="10" stroke-width=".5" d="M0 476.84375v6.97266"/></g><path fill="none" stroke="#000" stroke-linecap="round" stroke-linejoin="round" stroke-miterlimit="10" stroke-width=".5" d="M0 477.85547v-.70313"/><g clip-path="url(#C)"><path fill="none" stroke="#000" stroke-linecap="round" stroke-linejoin="round" stroke-miterlimit="10" stroke-width=".5" d="M0 476.8164v7.02735"/></g><path fill="none" stroke="#000" stroke-linecap="round" stroke-linejoin="round" stroke-miterlimit="10" stroke-width=".5" d="M0 476.8164v-1.125"/><g clip-path="url(#D)"><path fill="none" stroke="#000" stroke-linecap="round" stroke-linejoin="round" stroke-miterlimit="10" stroke-width=".5" d="M0 477.01172v6.63672"/></g><path fill="none" stroke="#000" stroke-linecap="round" stroke-linejoin="round" stroke-miterlimit="10" stroke-width=".5" d="M0 477.97656v-.1875"/><g clip-path="url(#E)"><path fill="none" stroke="#000" stroke-linecap="round" stroke-linejoin="round" stroke-miterlimit="10" stroke-width=".5" d="M0 469.60547v-5.1836"/></g><path fill="none" stroke="#000" stroke-linecap="round" stroke-linejoin="round" stroke-miterlimit="10" stroke-width=".5" d="M0 470.19531v-6.36328m0 5.4375v.0625m0 .35938v-5.35547m0 4.57422v-.26172m0 1.22265v-5.71484m0 5.71484v-.32421m0 .16015v-5.38281m0 5.38281v-.51172m0-.03515v-4.29297m0 4.29297v-1.01172m0 .16015v-2.58984m0 2.58984v-1.58593m0 .53125v-.48047m0 .48047v-2.08594m0 2.5039v-1.3164m0 1.3164v-1.91406m0 1.38282v-.25391m0 .2539v-2.125m0 1.4297v1.13671m0-1.13672v-2.32422m0 .48829v4.80859m0-4.8086v-2.36718m0 1.89062v5.76172m0-5.76172v-2.1836m0 1.81642v6.49609m0-6.4961V461.875m0 1.78125v6.71484m0-5.73828v-.8711m0-.23827v6.98047m0-6.98047v-1.38672m0 1.44531v6.86328m0-6.86328v-1.58984m0 1.6211v6.80077m0-6.80078v-1.66015m0 1.59375v6.93359m0-6.9336v-1.48828m0 1.8711v6.16797m0-5.27344v-1.02344m0-.21094v6.84766m0-6.84766v-1.60937m0 1.73828v6.58984m0-5.6328v-.91407M0 463.5v7.02734M0 463.5v-1.15234m0 1.27734v6.77734m0-5.78906v-.26953m0-.66406v6.66797m0-5.69532v-.89062"/><g clip-path="url(#F)"><path fill="none" stroke="#000" stroke-linecap="round" stroke-linejoin="round" stroke-miterlimit="10" stroke-width=".5" d="M0 456.04297v-4.6914"/></g><path fill="none" stroke="#000" stroke-linecap="round" stroke-linejoin="round" stroke-miterlimit="10" stroke-width=".5" d="M0 456.52344v-5.65235m0 5.65235v-.35938m0-.41406v-4.10156m0 3.5039v-.54297m0 .85938v-3.53906m0 3.02344v-.64454m0 1.65235v-4.52344m0 4.52344v-.91797m0 .875v-4.4375m0 4.4375v-.95313m0 .13672v-2.80469m0 2.8047v-1.52735m0 1.04687v-1.84765m0 1.84765v-1.78515m0 1.46875v-1.21094m0 1.21094v-1.9375m0 1.91015v-1.16015m0 1.16015v-1.9453m0 1.05077v.63281m0-.6328v-2.26173M0 452.25v2.89844m0-2.47656v-1.22266m0-.35547v5.21094m0-5.21094v-2.3086m0 1.6875v6.45313m0-5.51562v-.95703m0-.26172v7.01562m0-5.9961v-.51562m0-.01172v6.03125m0-5.15234v-1.05078m0-.30078v6.97656m0-6.97656v-.89453m0 1v6.76562m0-6.76562v-.52735m0 1.51172v-.26562m0-.84766v7.02344m0-7.02344v-1.23047m0 1.84375v5.79297m0-4.94922v-1.08594m0-.23437v6.7461m0-6.85548v6.96875m0-5.95312v-.71484m0-.08985v6.54688m0-5.59375v-.9297m0-.16015v6.82032m0-5.82813v-.82031m0-.2461v6.96875m0-6.96875v-1.41796"/><g clip-path="url(#G)"><path fill="none" stroke="#000" stroke-linecap="round" stroke-linejoin="round" stroke-miterlimit="10" stroke-width=".5" d="M0 443.03125v-5.29688"/></g><path fill="none" stroke="#000" stroke-linecap="round" stroke-linejoin="round" stroke-miterlimit="10" stroke-width=".5" d="M0 443.16797v-5.57031m0 5.5703v-.40624m0-.13672v-4.48438m0 4.48438v-.9336m0 .06641v-2.75m0 2.75v-1.54297m0 .48438v-.63281m0 .54297v-1.02735m0 1.83203v-2.0625m0 2.0625v-1.73047m0 1.48829v-1.57422m0 1.57422v-1.85547m0 1.92187v-1.71094m0 1.71094v-1.82031m0 1.44922v-.96485m0 .96485v-1.98828m0 2.47265v-1.9375m0 1.9375v-1.76562m0 1.9375v-2.28125m0 1.94922v-.83594m0-.4336v.92188m0-.78516v-1.15234m0-1.96875v6.89063m0-5.88672v-.77735m0 1.4375v3.5625m0-3.04297v.64063m0-.57813v2.40235m0-2.05469v.82031m0-3.48047v7.02735m0-6.89453v6.7578m0-6.7578v-.51563m0 .39063v7.0078m0-7.0078v-.98828m0 1.03125v6.92187m0-5.91406v-.7539m0 .5703v5.27735m0-4.51172v.28516m0-1.91797v7.0078m0-5.98827v-.65235m0-.36718v7.0078m0-5.98827v-.65625m0 .6875v4.90625m0-5.96485v7.02344m0-6v-.61328m0 .44922v5.30469m0-5.3047v-2.28905"/><g clip-path="url(#H)"><path fill="none" stroke="#000" stroke-linecap="round" stroke-linejoin="round" stroke-miterlimit="10" stroke-width=".5" d="M0 430.41406v-6.6914"/></g><path fill="none" stroke="#000" stroke-linecap="round" stroke-linejoin="round" stroke-miterlimit="10" stroke-width=".5" d="M0 429.64844v-5.16016m0 5.16016v-.6211m0-.0625v-3.79296m0 3.24218v-.60156m0 .92188v-3.33204m0 3.33204v-1.36329m0 .91797v-2.4414m0 2.4414v-1.63281m0 1.14063v-1.45313m0 1.45313v-1.88282m0 2.03125v-1.7539m0 1.7539v-1.8086m0 1.83985v-1.8125m0 1.8125v-1.79687m0 1.96484v-2.15234m0 1.83984v-.85547m0 1.92578v-3.66796m0 3.1328v-.62109m0 2.8125v-6.98046m0 5.96484v.44531m0-3.85937v1.8789m0 .94922v-3.77734m0 3.22656v1.22266m0-5.94922v6.77734m0-5.79297v-.26953m0-.80078v6.94922m0-5.9375v-.41016m0 4.80078v-3.85547m0 3.29297v1.22266m0-4.98828v4.80078m0-4.80078v.79297m0-1.34375v5.90625m0-5.04688v.10156m0-1.48828v6.95703m0-5.9453v-.41407m0 .5625v4.63672m0-3.96485v-1.1914m0 1.72656v2.22266m0-1.89844v.84375m0-1.42188v2.73047m0-2.33203v.77344m0-2.97656v6.33984m0-5.41797v-.05078m0-1.1211v6.83985m0-6.83984v-1.61719m0 2.21484v5.64453m0-5.64453v-2.21484"/><g clip-path="url(#I)"><path fill="none" stroke="#000" stroke-linecap="round" stroke-linejoin="round" stroke-miterlimit="10" stroke-width=".5" d="M0 416.83594v-6.16406"/></g><path fill="none" stroke="#000" stroke-linecap="round" stroke-linejoin="round" stroke-miterlimit="10" stroke-width=".5" d="M0 415.9375v1.02734m0 .28125v-6.98828m0 5.97266v.6875m0-.16406v-6m0 5.125v-.07032m0 .0625v-4.23437m0 4.23437v-1.03515m0 1.13281v-4.4336m0 3.78907v-.47656m0-.33204v-1.52343m0 1.30078v-.92969m0 .29297v.19531m0-.19531v-2.19922m0 2.8789v-1.16796m0 1.16797v-1.94532m0 1.77735v-.97266m0 3.01953v-4.92578m0 4.92578v-.73828m0 1.78516v-7.01563m0 7.01563v1.01562m0-1.01953V410.25m0 7.00781v1.30078m0-2.1289v-5.35547m0 4.57812v1.14063m0 .45703v-6.99219m0 5.97656v.6797m0 .07812v-6.48047m0 5.53906v.11328m0-5.8789v6.9375m0-5.9297v-.73827m0 1.75781v2.88281m0-.05078v-2.78125m0 2.375v1.22266m0-1.40625v-1.60157m0 1.3672v1.1875m0-4.01563v4.52343m0-3.86718v.46093m0-2.16796v6.625m0-5.66407v-.17968m0-.41016v5.8789m0-5.02343v.11328m0-1.20703v6.35937M0 411.5v-.0625m0-.91406v6.45703m0-5.51563v-.10156m0-1.09766v6.97266m0-6.97266v-.87109m0 .92969v6.85937m0-6.85937v-1.59375"/><g clip-path="url(#J)"><path fill="none" stroke="#000" stroke-linecap="round" stroke-linejoin="round" stroke-miterlimit="10" stroke-width=".5" d="M0 403.70703v-6.53906"/></g><g clip-path="url(#K)"><path fill="none" stroke="#000" stroke-linecap="round" stroke-linejoin="round" stroke-miterlimit="10" stroke-width=".5" d="M0 402.75781v.92969"/></g><path fill="none" stroke="#000" stroke-linecap="round" stroke-linejoin="round" stroke-miterlimit="10" stroke-width=".5" d="M0 403.46875v-6.0625m0 5.1836v1.04296m0-.0039v-6.38282m0 5.45704v.0703m0-1.26171v-2.14844m0 1.83594v-.85547m0 .8164v-1.4414m0 1.4414v-1.8828m0 2.1328v-1.9414m0 1.9414v-1.76562m0 1.48047v-1.76172m0 2.16797v-2.1875m0 2.1875v-1.69922m0 1.38281v-.85156m0 3.4336v-6.71875m0 6.71875v.46875m0-1.44532v.23438m0 .60937v-6.45312m0 6.45312v1.91797m0-1.88281v-6.51953M0 402.75v.9375m0-.51563v-5.46875m0 5.46875v2.25782m0-1.57031v-6.84375m0 6.84375v1.61328m0-4.83204v-.40234m0 .34375v1.11328m0 1.6914v-5.89452m0-.39453v6.68359m0-5.71094v-.21484m0-.57031v6.30859m0-5.39063v-.03906m0-1.13672v6.82422m0-6.03906v5.2539m0-4.49218v-1.14844m0 4.8125v-3.59765m0 3.07421v-.63671m0-4.11329v6.94532m0-5.9336v-.40625m0-.5586v6.85548m0-6.85547v-1.60156m0 1.53125v6.99218m0-5.97265v-.6836m0 .46094v5.39844m0-4.61328v.25m0-1.64844v6.625m0-5.66016v-.90234m0 .50781v5.48438m0-5.48438v-2.2539m0 3.05468v-1.1289"/><g clip-path="url(#L)"><path fill="none" stroke="#000" stroke-linecap="round" stroke-linejoin="round" stroke-miterlimit="10" stroke-width=".5" d="M0 390.4375v-6.6289"/></g><path fill="none" stroke="#000" stroke-linecap="round" stroke-linejoin="round" stroke-miterlimit="10" stroke-width=".5" d="M0 390.58594v-6.92578m0 5.91796v.38672m0 .51172v-6.70312M0 389.5v.875m0-5.41406v4.32422m0-3.69532v-1.20703m0 .65625v4.16797m0-4.16797v-2.42969m0 1.79688v5.4336m0-5.4336v-2.26563m0 3.0547v-1.12891m0 2.25v1.61328m0-1.61328v-2.3711m0 6.63672v-6.91797m0 6.91797v.75781m0-1.76562v.3789m0 .25782v-6.17578m0 6.17578v2.04687m0-2.94531v1.02344m0 .2539v-6.92968m0 5.91796v.39063m0 .65625v-7.0039m0 7.0039v1.32422m0-1.51953v-6.61328m0 6.61328v1.8164m0-2.49218v-5.26172m0 4.4961v1.14843m0-2.9336v-.16015m0 .13672v1.09765m0 .06641v-2.4414m0 2.08593v1.21875m0-3.82031v3.47265m0-2.96875v.65625m0 1.69922V386m0-2.08984v6.42578m0-6.42578v-1.9297m0 6.16798v-2.05078m0 1.75v1.20703m0-5.34375v6.82422m0-5.82813v-.30078m0-.32813v6.08985m0-6.08985V382m0 2.54688v5.15234m0-4.40235v-1.16015m0-.4961v6.96485m0-5.95313v-.71093m0 .12109v6.1211m0-6.1211v-2.0664m0 2.95702v-1.03515m0 .17187v6.06641m0-6.0664v-2.08594m0 2.96875v-2.08985"/><g clip-path="url(#M)"><path fill="none" stroke="#000" stroke-linecap="round" stroke-linejoin="round" stroke-miterlimit="10" stroke-width=".5" d="M0 374.9414v-2.26562"/></g><path fill="none" stroke="#000" stroke-linecap="round" stroke-linejoin="round" stroke-miterlimit="10" stroke-width=".5" d="M0 376.09766v-4.57813m0 4.57813v-.89063m0 1.57813v-5.95313m0 5.08594v-.08594M0 370.75v6.11719m0-5.80078v5.48437m0-4.6875v-1.125m0 .30469v5.53125m0-4.72656v-1.1211m0 .35156v5.46094m0-4.66797v-1.1289m0 6.1875v-6.24219m0 5.33594v.01172m0-3.09766v1.74219m0 1.34765v-4.4375m0 4.4375v2.40625m0-1.21484v-6.82031m0 5.82812v.82031m0 .26563v-7.00781m0 7.00781v1.30078m0-6.66015v3.71093m0-5.32422v6.9375m0-6.95312v6.96875m0-5.95313v-.71484m0 4.8789v-3.39062m0-1.57031v6.53125m0-6.53125v-1.8711m0 2.3047v5.66406m0-5.66407v-2.21094m0 2.46094v5.16406m0-4.41406v-1.15625m0 1.875v2.22266m0-1.89844v-1.20703m0-.96875v5.92969m0-5.92969v-2.13672m0 4.60547v.98828m0-.98828v-2.30469m0 .28906v5.01954m0-5.01954v-2.33593m0 3.0664v-1.16796m0 .34375v5.21093m0-5.21094v-2.30859m0 3.0664v-1.15234m0 .04297v5.91406m0-5.91406v-2.14062m0 3v-2.14063"/><g clip-path="url(#N)"><path fill="none" stroke="#000" stroke-linecap="round" stroke-linejoin="round" stroke-miterlimit="10" stroke-width=".5" d="M0 361.13672v-1.28516"/></g><path fill="none" stroke="#000" stroke-linecap="round" stroke-linejoin="round" stroke-miterlimit="10" stroke-width=".5" d="M0 361.76172v-2.53906m0 2.53906v-1.60156m0 1.23437v-.80469m0 2.34766v-4.88672m0 4.88672v-.75781m0 1.82422v-7.02344m0 6.0039v.60547m0-3.77343v1.35546m0-1.16015v-1.17188m0 2.73829v-2.17188m0 1.85547v-.85156m0-.8086v1.78516m0-1.52735v-1.1914m0 1.69922v.25m0-.25v2.125m0-2.01953v.04296m0-.04296v2.16015m0-2.15625v2.16016m0-2.6836v1.08204m0-1.08204v1.96485m0-3.20703v3.5664m0-3.5664v1.28125m0-1.71094v4.42188m0-4.42188v.96094m0-2.08594v6.67578m0-5.70703v-.20703m0-.91016v6.96875m0-6.96875v-1.41797m0 3.5586v2.6875m0-2.6875v-2.4414m0 2.3789v2.8164m0-2.8164v-2.44922m0 2.29687v3.1172m0-3.1172v-2.44921m0 1.32421v5.3672m0-5.3672v-2.27734m0 2.8086v4.30859m0-4.3086v-2.41796m0 2.29687v4.54688m0-4.54688v-2.39844m0 2.67188v4.0039m0-4.0039v-2.4375m0 3.00781v2.86328m0-2.86328v-2.44922m0 1.125V363.25m0-5.51172v-2.25m0 3.05078v-1.125m0 .86328v4.4336m0-4.4336v-2.41015m0 2.51953v4.21484m0-4.21484v-2.42578M0 359v-1.21484"/><g clip-path="url(#O)"><path fill="none" stroke="#000" stroke-linecap="round" stroke-linejoin="round" stroke-miterlimit="10" stroke-width=".5" d="M0 347.58984v-.82421"/></g><path fill="none" stroke="#000" stroke-linecap="round" stroke-linejoin="round" stroke-miterlimit="10" stroke-width=".5" d="M0 348.09766v-1.83985m0 1.83985v-1.78907m0 1.52344v-1.78906m0 2.84765v-3.42578m0 3.42579v-1.33204m0 .83204v-.66407m0 2.73828v-6.57421m0 6.57421v.3125m0-.60156v-5.9961m0 5.9961v-.14453m0-1.82422v-2.05469m0 2.0547v-1.73829m0-.34375v2.10938m0-1.8047v-1.20702m0 1.21093v1.48829m0-1.48829v1.875m0-1.74609v1.23047m0-1.23047v1.92969m0-3.8125v4.9961m0-4.9961v.70312m0-1.71484v7.02344m0-7.02344v-1.08594m0 1.22266v6.7461m0-6.7461v-1.71485m0 2.6211v4.9336m0-4.9336v-2.35156m0 3.52734v2.58203m0-2.58203v-2.4375m0 .92187v5.6172m0-5.6172v-2.22265m0 4.0625v1.9336m0-1.65235v-1.19922m0 2.01562v-.26171m0 .26171v-2.12109m0 2.08594v-1.0625m0-.54297v3.01953m0-3.01953v-2.44922m0 2.89063v-1.22657m0 1.1836v2.22265m0-2.22265v-2.41797m0 1.58984v3.8789m0-3.8789v-2.4414m0 3.0078v-1.22265m0 .57422v4.04297m0-4.04297v-2.4336m0 3.44532v2.01953m0-2.01953v-2.40625m0 1.30469v4.22265m0-4.22265v-2.42188m0 3.03516v-1.21094m0 .95313v3.51171m0-3.51171v-2.45313m0 2.96484v-1.22656m0 .58985v3.76171m0-3.76171v-2.44532m0 2.99219v-1.22266"/><g clip-path="url(#P)"><path fill="none" stroke="#000" stroke-linecap="round" stroke-linejoin="round" stroke-miterlimit="10" stroke-width=".5" d="M0 332.86719v1.99219"/></g><path fill="none" stroke="#000" stroke-linecap="round" stroke-linejoin="round" stroke-miterlimit="10" stroke-width=".5" d="M0 334.52734v-1.32812m0 1.32812v-1.91015m0 1.71875v-1.91016m0 3.03516v-3.19922m0 3.19922v-1.40235m0 .9375v-1.40234m0 2.82422v-5.11328m0 5.11328v-.64453m0-.09766v-.64844m0 1.84766v-6.02344m0 6.02344v-.1289m0-.75v-.0625m0-1.91407v-.3125m0 .3125v-2.11719m0 5.46485v-7.00781m0 5.98828v.65625m0-4.00782v1.73047M0 333.25v.90625m0-3.75v6.91406m0-5.46094v4.00782m0-4.00781v-2.4375m0 2.97265v2.9375m0-2.9375v-2.44922m0 2.875v-1.22265m0 1.23046v2.07032m0-2.07031v-2.41016m0 1.76953v3.35156m0-3.35156v-2.45703m0 2.29297v3.67969m0-3.6797v-2.44921m0 2.47265v3.62891m0-3.6289v-2.44922m0 3.72265v1.08594m0-.92578v-1.16016m0 .70313v1.67969m0-1.4375v-1.1875m0-.28125v4.1289m0-4.1289v-2.4297m0 2.21094v4.57032m0-4.57031v-2.39454m0 3.08985v3.17578m0-3.17578v-2.45313m0 2.9375v2.21094m0-2.21094v-2.41797m0 2.73829v-1.20704m0 .6211v2.74219m0-2.7422v-2.4453M0 332.75v2.22266M0 332.75v-2.41797m0 2.74219v-1.20703m0 .38672v3.21875m0-3.21875v-2.45313m0 2.92188v-1.22657m0 1.53125v1.67188m0-1.67188v-2.3789m0 2.6211v-1.1875"/><g clip-path="url(#Q)"><path fill="none" stroke="#000" stroke-linecap="round" stroke-linejoin="round" stroke-miterlimit="10" stroke-width=".5" d="M0 318.48438v4.1289"/></g><path fill="none" stroke="#000" stroke-linecap="round" stroke-linejoin="round" stroke-miterlimit="10" stroke-width=".5" d="M0 320.39844v.30078m0-.30078v-2.21485m0 2.25782v-1.10938m0 3.21094v-3.98828m0 3.98828v-1.1289m0 .54687v-1.1289m0 2.58983v-5.75m0 5.75v-.30468m0-.53125v-.30469m0 .94922v-5.36328m0 5.36328v-.51953m0-.26172v-.51953m0-.55078v-1.66016m0 1.66016v-1.83594m0 4.41406v-6.8164m0 6.8164v1.64063m0-8.3672v6.63282m0-6.36719v6.10547m0-5.21875v-1.03515m0-.3125v7.02734m0-6.0039v-.56641m0-.32422v6.75781m0-6.75781v-1.69922m0 1.59766v6.96484m0-5.95313v-.42968m0-.60938v7.01563m0-7.01563v-1.03515m0 1.05859v6.97266m0-5.96094v-.4375m0-.42969v6.6836m0-6.6836v-.42578m0 .70703v6.11719m0-5.22656v-1.03516m0 .49219v5.42187m0-4.63281v-1.13281m0-.32031v6.75m0-5.76563v-.85547m0-.2539v7m0-7v-.96094m0 1.17187v6.57813m0-6.57813v-1.83984m0 2.10156v6.0586m0-6.0586v-2.08984m0 2.76172v4.71484m0-4.71484v-2.37891m0 3.0625v-1.1875m0 1.03516v3.64843m0-3.64843v-2.44922m0 2.98047v-2.44922m0 2.52734v2.4336m0-2.4336v-2.42969m0 2.78516v-2.4336m0 1.44532v3.69922m0-3.69922V316.25m0 2.98438v-2.44532"/><path fill="#00f" fill-rule="evenodd" d="M388.28906 432.14063h8.61719v-10.14454h-8.61719v10.14454"/><path fill="azure" fill-rule="evenodd" d="M390.1211 423.82813h.83593v2.82421h3.28516v-2.82421h.83203v6.48046h-.83203v-2.91796h-3.28516v2.91796h-.83594v-6.48046"/><path fill="#00f" fill-rule="evenodd" d="M228.50781 418.82813h8.6211v-10.14844h-8.6211v10.14844"/><path fill="azure" fill-rule="evenodd" d="M230.33984 410.51172h.83594v2.82422h3.28516v-2.82422h.83203v6.48047h-.83203v-2.91406h-3.28516v2.91406h-.83594v-6.48047"/><path fill="#ff3030" fill-rule="evenodd" d="M211.44922 365.5664h7.6914v-10.14452h-7.6914v10.14453"/><path fill="azure" fill-rule="evenodd" d="M213.28125 357.2539h.83594v5.73829h3.1914v.74219h-4.02734v-6.48047"/><path fill="#ff3030" fill-rule="evenodd" d="M451.1211 338.9375h7.6914v-10.14844h-7.6914v10.14844"/><path fill="azure" fill-rule="evenodd" d="M452.95313 330.625h.83203v5.73828h3.1953v.73828h-4.02733V330.625"/><path fill="#ffffe0" fill-rule="evenodd" d="M208.64453 399.82031h22.17969v-10.1914h-22.17969v10.1914"/><path fill-rule="evenodd" d="M212.14453 391.46094h.50781v6.29687h-.78515v-4.49219h-1.39063v-.55468l.5586-.0625.2539-.05469.23047-.08984.20313-.14063.17187-.21094.14453-.29687.10547-.39453m4.8125 0l.23047.01953.21875.05469.20703.08984.19531.1211.1836.14843.17187.17578.30469.42188.24219.49219.17969.54687.10937.57813.03906.59375-.03906.59375-.10938.58203-.17968.55468-.24219.5-.30469.4297-.17187.17968-.1836.15234-.1953.125-.20704.08985-.21875.05859-.23047.01953-.23047-.01953-.21875-.0586-.20703-.08984-.19531-.125-.1836-.15234-.17187-.17969-.30469-.42969-.24219-.5-.17968-.55468-.10938-.58204-.03906-.59375h.83203l.03125.5625.07813.50391.1289.44531.16016.375.1914.30079.21094.21875.22266.13671.22656.04688.22656-.04688.22266-.13671.21094-.21875.1914-.30079.16016-.375.1289-.4453.08204-.50392.02734-.5625-.02734-.5625-.08203-.5-.12891-.4375-.16016-.36328-.1914-.29296-.21094-.21485-.22266-.13281-.22656-.04297-.22656.04297-.22266.13281-.21094.21485-.1914.29296-.16016.36329-.1289.4375-.07813.5-.03125.5625h-.83203l.03906-.59375.10938-.57813.17969-.54688.24218-.49218.30469-.42188.17188-.17578.18359-.14844.19531-.12109.20703-.08984.21875-.0547.23047-.01952m5.08984 0h.51172v6.29687h-.78906v-4.49219h-1.38672v-.55468l.5586-.0625.2539-.05469.22656-.08984.20704-.14063.17187-.21094.14063-.29687.10547-.39453m2.82421 2.17578h.78907l.01953-.3164.0586-.28516.09765-.25391.14062-.21484.1836-.17188.22265-.1289.26563-.08204.30469-.02734.23828.01953.22656.0625.20312.10156.1797.14063.14843.17187.11328.20704.07031.23437.02735.26563-.02344.26953-.0664.22265-.10938.1914-.15625.17188-.19922.16407-.2461.16406-.63671.39062-.53516.3125-.4375.31641-.34766.32422-.26562.33594-.1875.35156-.125.3711-.07031.39062-.01953.42187h4.21093v-.74219h-3.33203l.08203-.28515.11328-.23438.14844-.20312.1875-.17969.23047-.17187.27734-.17579.71875-.41406.41407-.20703.34765-.23047.28125-.25.21875-.26953.16406-.27734.10938-.28516.0664-.28515.01954-.28125-.04297-.38282-.1211-.34765-.1875-.3086-.25-.26172-.30468-.21093-.34375-.16016-.38281-.09766-.40625-.03515-.4336.03515-.39844.09766-.35547.16797-.30468.23437-.2461.30079-.1875.375-.11328.4453-.04297.51954"/><path fill="#ffffe0" fill-rule="evenodd" d="M235.27344 464.4961h22.17969v-10.19141h-22.1797v10.1914"/><path fill-rule="evenodd" d="M238.77344 456.13672h.50781v6.29687h-.78516v-4.49218h-1.39062v-.5547l.5625-.0664.25-.05078.23047-.08984.20312-.14453.17578-.20704.14063-.29687.10547-.39453m4.8125 0l.23047.01953.21875.05469.20703.08984.19922.1211.18359.14843.17188.17578.30078.42188.24218.49219.1797.54687.11327.57813.03906.58984-.03906.59375-.11328.58594-.17969.55469-.24218.5-.30078.42968-.17188.17969-.1836.15234-.19921.125-.20703.08985-.21875.0586-.23047.01952-.22656-.01953-.21875-.0586-.21094-.08984-.19531-.125-.1836-.15234-.17187-.17969-.30078-.42969-.2461-.5-.17969-.55468-.10937-.58594-.03906-.59375h.83203l.03125.5664.08203.50391.125.4414.16406.375.1875.30079.21094.22266.22266.13671.22656.04688.22656-.04688.22266-.13671.21093-.22266.19141-.30078.16406-.375.125-.4414.08203-.50391.02735-.56641-.02735-.5586-.08203-.5-.125-.4375-.16406-.36327-.1914-.29297-.21094-.21485-.22266-.13281-.22656-.04297-.22656.04297-.22266.13281-.21094.21485-.1875.29296-.16406.36329-.125.4375-.08203.5-.03125.55859h-.83203l.03906-.58984.10937-.57813.1797-.54687.24608-.4922.30079-.42187.17187-.17578.1836-.14844.1953-.12109.21095-.08984.21875-.05469.22656-.01953m5.09375 0h.50781v6.29687h-.78516v-4.49218h-1.39062v-.5547l.5586-.0664.2539-.05078.23047-.08984.20312-.14453.17188-.20704.14453-.29687.10547-.39453m2.82422 2.17578h.78515l.01953-.3164.0586-.28516.10156-.2539.13672-.21485.1836-.17578.22265-.12891.26562-.07813.3086-.02734.23828.01953.22266.0625.20312.10156.17969.14063.14844.17188.11328.20703.0703.23437.02735.26563-.02344.26953-.0664.22265-.10938.19141-.15625.17188-.19922.16406-.24609.16406-.63281.39063-.53906.3125-.4375.3164-.34766.32422-.26172.33594-.1914.35156-.125.3711-.07032.39062-.01953.42187h4.21094v-.74218h-3.33203l.08203-.28516.11328-.23438.14844-.20312.1875-.17969.23047-.17187.28125-.17578.71484-.41797.41797-.20313.34375-.23047.28125-.2539.21875-.26563.16406-.27734.11328-.28516.0625-.28515.01953-.28125-.04297-.38282-.11718-.34765-.1914-.3086-.25-.26171-.30079-.21485-.34766-.15625-.3789-.09765-.40625-.03516-.4375.03125-.39844.10156-.35156.16406-.30469.23438-.25.30469-.1836.375-.11718.4453-.03906.51954"/></g></defs><use xlink:href="#R"/></svg>