<svg xmlns="http://www.w3.org/2000/svg" role="img" xmlns:xlink="http://www.w3.org/1999/xlink" viewBox="142.45 309.95 326.84 171.84"><defs><clipPath id="a"><path d="M144 311.67188h1v168.65625h-1zm0 0"/></clipPath><clipPath id="b"><path d="M144 311.67188h324v168.65625H144zm0 0"/></clipPath><clipPath id="c"><path d="M399 441h38v39.32813h-38zm0 0"/></clipPath><clipPath id="d"><path d="M460 468h8v12.32813h-8zm0 0"/></clipPath><clipPath id="e"><path d="M465 478h3v2.32813h-3zm0 0"/></clipPath><clipPath id="f"><path d="M467 311.67188h1V462h-1zm0 0"/></clipPath><clipPath id="g"><path d="M144 477h3v3.32813h-3zm0 0"/></clipPath><clipPath id="h"><path d="M154 477h7v3.32813h-7zm0 0"/></clipPath><clipPath id="i"><path d="M167 478h7v2.32813h-7zm0 0"/></clipPath><clipPath id="j"><path d="M180 478h8v2.32813h-8zm0 0"/></clipPath><clipPath id="k"><path d="M185 478h3v2.32813h-3zm0 0"/></clipPath><clipPath id="l"><path d="M193 478h8v2.32813h-8zm0 0"/></clipPath><clipPath id="m"><path d="M199 479h2v1.32813h-2zm0 0"/></clipPath><clipPath id="n"><path d="M206 479h9v1.32813h-9zm0 0"/></clipPath><clipPath id="o"><path d="M212 479h2v1.32813h-2zm0 0"/></clipPath><clipPath id="p"><path d="M220 479h8v1.32813h-8zm0 0"/></clipPath><clipPath id="q"><path d="M226 480h1v.32813h-1zm0 0"/></clipPath><clipPath id="r"><path d="M233 479h8v1.32813h-8zm0 0"/></clipPath><clipPath id="s"><path d="M239 480h2v.32813h-2zm0 0"/></clipPath><clipPath id="t"><path d="M246 479h9v1.32813h-9zm0 0"/></clipPath><clipPath id="u"><path d="M252 480h2v.32813h-2zm0 0"/></clipPath><clipPath id="v"><path d="M260 479h8v1.32813h-8zm0 0"/></clipPath><clipPath id="w"><path d="M266 480h2v.32813h-2zm0 0"/></clipPath><clipPath id="x"><path d="M273 480h8v.32813h-8zm0 0"/></clipPath><clipPath id="y"><path d="M279 480h2v.32813h-2zm0 0"/></clipPath><clipPath id="z"><path d="M286 479h9v1.32813h-9zm0 0"/></clipPath><clipPath id="A"><path d="M292 480h2v.32813h-2zm0 0"/></clipPath><clipPath id="B"><path d="M300 479h8v1.32813h-8zm0 0"/></clipPath><clipPath id="C"><path d="M305 480h2v.32813h-2zm0 0"/></clipPath><clipPath id="D"><path d="M313 479h8v1.32813h-8zm0 0"/></clipPath><clipPath id="E"><path d="M319 480h1v.32813h-1zm0 0"/></clipPath><clipPath id="F"><path d="M327 478h7v2.32813h-7zm0 0"/></clipPath><clipPath id="G"><path d="M340 478h7v2.32813h-7zm0 0"/></clipPath><clipPath id="H"><path d="M353 478h8v2.32813h-8zm0 0"/></clipPath><clipPath id="I"><path d="M366 479h8v1.32813h-8zm0 0"/></clipPath><clipPath id="J"><path d="M372 480h2v.32813h-2zm0 0"/></clipPath><clipPath id="K"><path d="M379 479h9v1.32813h-9zm0 0"/></clipPath><clipPath id="L"><path d="M385 479h3v1.32813h-3zm0 0"/></clipPath><clipPath id="M"><path d="M393 479h8v1.32813h-8zm0 0"/></clipPath><clipPath id="N"><path d="M399 480h2v.32813h-2zm0 0"/></clipPath><clipPath id="O"><path d="M406 479h8v1.32813h-8zm0 0"/></clipPath><clipPath id="P"><path d="M413 479h3v1.32813h-3zm0 0"/></clipPath><clipPath id="Q"><path d="M412 479h2v1.32813h-2zm0 0"/></clipPath><clipPath id="R"><path d="M420 478h7v2.32813h-7zm0 0"/></clipPath><clipPath id="S"><path d="M426 478h3v2.32813h-3zm0 0"/></clipPath><clipPath id="T"><path d="M425 478h4v2.32813h-4zm0 0"/></clipPath><clipPath id="U"><path d="M424 479h3v1.32813h-3zm0 0"/></clipPath><clipPath id="V"><path d="M433 477h7v3.32813h-7zm0 0"/></clipPath><clipPath id="W"><path d="M438 478h4v2.32813h-4zm0 0"/></clipPath><clipPath id="X"><path d="M447 478h7v2.32813h-7zm0 0"/></clipPath><clipPath id="Y"><path d="M460 477h7v3.32813h-7zm0 0"/></clipPath><clipPath id="Z"><path d="M144 464h4v6h-4zm0 0"/></clipPath><clipPath id="aa"><path d="M144 452h4v4h-4zm0 0"/></clipPath><clipPath id="ab"><path d="M144 439h4v3h-4zm0 0"/></clipPath><clipPath id="ac"><path d="M144 425h4v4h-4zm0 0"/></clipPath><clipPath id="ad"><path d="M144 413h4v2h-4zm0 0"/></clipPath><clipPath id="ae"><path d="M144 399h4v3h-4zm0 0"/></clipPath><clipPath id="af"><path d="M144 385h4v5h-4zm0 0"/></clipPath><clipPath id="ag"><path d="M144 372h4v4h-4zm0 0"/></clipPath><clipPath id="ah"><path d="M144 358h4v5h-4zm0 0"/></clipPath><clipPath id="ai"><path d="M144 345h4v4h-4zm0 0"/></clipPath><clipPath id="aj"><path d="M144 332h4v4h-4zm0 0"/></clipPath><clipPath id="ak"><path d="M144 317h3v7h-3zm0 0"/></clipPath><clipPath id="al"><path d="M465 317h3v2h-3zm0 0"/></clipPath><g id="am" clip-path="url(#clip1)"><path fill="#fff" fill-opacity="0" fill-rule="evenodd" d="M0 0h1000v1000H0zm0 0"/><path fill="#d3d3d3" fill-opacity="0" fill-rule="evenodd" d="M162.15234 355.86719l-.23437.29297.0586.23437.11718.17188.17578.23437.29297.34766.11328.0586.11719-.17188.0586-.23438.17577-.17578.46485-.17578h.69922l.23437.29297.28906.8164.0586.17579.17578.23046.35156.23438.69922.69922.17188.17578.23437.34765.23438.41016.28906.58203.41015.46485.23047.23437.23438.17578.11719.23047.17578.29297.17187 1.16406v.23438l.0586.28906.05859.11719.11719.11719.34765.41015.11719.17188.17578.17578.17578.23437.11719.17188.17188.35156.05859.23438.23437.40625.23438-.0586-.17578.17578-.0586.92969h-.58203l-.23437-.11328-.34766.11328-.11719.11719-.05859.29297-.0586.17578-.11718.17187-.46484.29297-.0586.23438-.0586.11328v.64453l.0586.17187v.41016l.0586.0586v.40624l.05859.40625.11719.17579.05859.05859.23047.64062-.0586.29297v.69922l-.05859.58203v.23438l-.0586.23047-.05468.35156v1.92187l.05469.1172h.42578l-.36719.11718-.02344.35156.89063 1.16797 1.74219.53906 1.33984.35938v.53906l.08984.8086.53516.71484 1.51953.26953.89063-.08594.08984 1.16406.53516.1797 1.16015-.1797 2.05469-.98437 1.16016-.36328 1.8789-.17578 1.69531-.1797-.17968.71876-1.51563.08594-1.25.08984-.80469.26953-1.07421.8086.26953.71875.53515.89843-.17968.625-.26563.8086.26563 1.07812.625.89844.80468.17969 1.25-.1797-.26562.72267.09766.5039.05468.29297v.17188l.0586.29296v.40625l.17578.1172.35156.11718h.40625l.29297-.17578.11328-.11719.0586-.11719.11718-.23047.0586-.17578.35156-.46484.23047-.17578.17578-.0586.17578.0586.0586.17578.11718.98828.05469.46875.0586.17188.11718.23437.17578.0586.8164.05859h.28907l.11719.23437.05859.40625.0586.35156v1.10547l.11718.29297.11719.34766.28906.69922.17578.35156.58203.7539.35157.17579.17187.0586.46875.23437.64063.46484.34765.23438.29297.17578.29297.05468.23047.0625.8164.34766.29297.17578.11328.17188.35157.35156.11719.17578.52343.64063v.28906l.0586.35156v.34766l.05859.35156.0586.28906.11718.0586.17188.05859h.17578l.58203.23437.17578.1172.17578.28905.17578.23438.11328.23437.29297.23047.11719.11719v.41016l.0586.05468.28906.23438.23437.11719.0586.11718.11718.17188.0586.11719.23047.23437.05859.17578.23437.0586.1172.05859-.1172.11328-.05859.11719v.11719l-.11719.29296-.11719.28907v.58203l.17579.11719.11718.05859.0586.11719.11719.11719.11328.05859.17578.34765.0586.35157.05858.40625v.17578l-.05859.17578-.11719.69922v.17187l.1172.17579.29296.29296h.40625l.17578.1172.11719.17187.11719.29296v.23438h-.52735l-.23047-.23438h-.23437l-.17578.0586-.0586.69922.0586.34765.11719.17579.17578.41015.11718.23047.28907.46875.17578.05469h.52344l.23437.0586.75781.64062.0586.29296v.23438l.05859.0586.23047.34765v.35156l-.11719.17188v.29297l.29297.28906.29297.17578.17187.0586.29297.17577.29297.1172.58203.40624.28906.23438.29297.17578.21875.16015.01563.01172.23047.17579.64062.52343.17578.23438.1172.17578.17577.17578.11328.17188v.64062l.1172.17578.46874.11719.58203.11719.23438.05859.23047.11328.29297.11719.11328.0586.58593.35156.28907.17187.17578.0625.17578.05469.17578.0586.69922.35155.28906.17579.23438.05468.28906.17578.23437.1172.64063.40624.29297.11719.17187.0586.23438.05859.41015.05859.23047.0586.23438.11718.0586.17188-.41017.17578.46875.0586.0586.29296.11328.23438.17578.05468.23438.0586.17578.05859.40625.11719.64062.23437.11719.17188.0586.23437v.17578l-.0586.1172-.0586.40624.23438.23438.11719.05859.34766.11719.64062.23047.17578.11718.28906.1172.17578.17577.23438.46485.58203 1.10546.17578.17579.34766.17578.17578.11719.35156.11718 1.04688.52344.23437.0586.46485.11327.29297.0586.46484.17578.75781.58203.23438.23438.34765.46484.17578.17578.28907.23438.8164.69921.29297.17579.28906.28906.29297.17578.29297.28906.69531.64063.17578.17578.29297.23437.28907.23438.46875.28906.64062.58203.34766.23438.23437.29297.34766.34765.35156.46485.9336.99218.34765.40625.11719.17579.23437.05859.11328.11719.64454.17578.23047.11328.23437.0586.29297.17577.23047.1172.9336.69921.40624.40625.23438.17578.40625.17578.23437.11719.8164.34766.34766.23437.23438.11719.29297.28906.23047.11719.7578.35156.35157.17188.23047.05859.29297.11719.23437.0586.8711.17577h.8164l.46875.23047.17188.0586.875.69921.46484.1172.29297.05858.17578.0586.23047.0586.46875.05859.34766.05859.35156.0586.40625.05859h.29297l.17187.0586v.23046l.17578.17578h.29297l.34766.0586.35156.05859.69922.11719h.64063l.46484-.23438.29297-.17578.17187-.11719.41016-.17187.28906-.17578.9336-.46485.46875-.29297.52343-.29296.46485-.17188.46484-.17578 1.05078-.46485.28906-.11718.41016-.11719.28906-.11719.52735-.17578 1.51562-.69922.58203-.34765.28907-.0586.29297-.0586.34765-.11718.875-.23047.35156-.11719h.11329l.23437-.05859.875-.23437.23438-.0586h.8125l.35156-.0586.8164-.11718.17188-.0586.35156-.05468.29297-.0586.23047-.05859.8164-.17578.17579-.0586h.34765l.23438-.05859.46484-.11718.75781-.17188.23438-.0586h.34765l.41016-.11718.28906-.0586 1.28516-.05859h.28906l.41016-.0586.23047-.05858h.17578l.875-.1172h.40625l.41015-.11718h.34766l.35156-.11328.8711-.0586h1.75l1.04687.28907.41016.11719.28906.11718.35156.11719.28907.11719 1.05078.17187.28906.0586h.29297l.29297.05859.17187.0586.41016.05859.17187.0586.1172.05858h.11718l.11719.0586.35156.0586h.11328l.41016.0664 1.92187.39453 1.92578.39453 1.51953.44922 1.69532.71875 2.14453.80469 1.60547-.71875 1.42968-.80469 1.16016-1.07813 1.25-.44921 3.03516-.71875 1.875-.35938 2.14453-1.34765 2.23437-1.25391 2.5-1.25781 1.69531-.44922 1.78516-.17969 1.16016-.26953.625.53906 1.33984-.26953.71485-.98828.98437-1.34375.44531-.17969.80469-.35937 1.875-.53907 1.78516-.44921 1.25-.26954 1.16015-.08984 1.69922-.08984 1.96094-.26954 1.25-.08984h.53906l.625-.08984h.89063l2.14453-.17969 2.41015-.17969 2.58985-.08984 1.69531.17969 1.60938.08984 1.42968.35938 1.16016.71875 1.875.98828 1.16015 1.52734.26563.71484.6289.08985.35548.89844.53515.53906.53516 1.52734 1.07422.35938h.53515l-.80469.53515.08985 1.70703.71484 2.69532.89063.80468.89453.98829.71484 1.2578 1.78516.53907 1.51953-.17969.35547 1.34375 1.60937-.80469.98047-.53906.26953.26953.31641-.21484.21875-.14453.80078.44922.44922-.35938h.35547l.53515-.26953.53907-.71875.53515-.26953.625-.98828 1.16016.44922.83984.3711 1.39454.61718 1.6953-.17969h1.60548l1.78515.08985.17969-1.70704.53516-1.34375.80468.26954.4922.84765.40233.40625-.08984.53906v.35938l.71485.44922.71093-.26953h1.42969l.35938.98828.4453 1.25781.71485 1.34375 1.25.6289 1.69531.62891.71485-.17969.17969-.53906.98046-.08984.44922.35937.08594 1.25782-.26563.6289-.53515.17969v.53906l.71484.98438.26563.53906.98437.98828.80078 1.07813-.26562.35937-.08985.89844-.625 2.33203-.35546 2.0664-.08985 1.79298-.17969.71875-.08984.53906v1.4375l-.98047 1.88281-.35937 1.70703-.53516.89844-.80469 1.16797-.26562.53906 2.05469 1.2539.08593.35938-.35546.53906-.08985-.17968v.80859l.08985 1.4375-.44532.71484-1.07422.09375-.26562.71485.53515.89844.8047.71875 1.16015.80859 1.33984.26953.44531.35938-.35546.44921-1.78907-.08984-1.25-.44922-.71484-.71875-.625-.08984-.17578 3.58984-.1875 1.3086h89.35937V311.70313h-55.26953v49.08203l.76172.125 3.28906.54296 2.02344 2.83594v2.7539l2.35156.33204 2.34766.33203h4.05078l-1.3789 4.16016-2.02344.70703-2.02344.70312-.54297.34375-2.59375 1.6172-.1875.11718-2.02344-2.07813-.73046-2.74218-2.67188-2.07813-1.375-3.5-.0664-.08203-1.95704-2.67188 2.75-1.41796v-49.08204H294.42187v91.41407l.1172.03125.1328.01172.07422.07421.10547.04688.08985.0586.08593.05859.08985.0586.29687.29687.0586.08984.03125.11719.02734.11719.01563.13671-.03125.1172-.0586.08983-.0586.08594-.04296.10547-.04688.10156-.02734.1211v.14453l.17578.26953.14844.14844.07422.08594.07422.07421.04296.10547.0625.08985.0586.08593.04297.10547.0586.08985.04687.10156.04296.10547.0586.08594.11719.17968.07421.07422.0625.08594.0586.08984.04297.10547.0586.08985.05858.08593.0625.08985.0586.08984.04297.10156.11719.17969.07421.07422.0586.08594.07422.07421.08984.0586.10547.04687h.14844l.1328-.01562.13282.01562.10156-.04687.07422-.07422.04688-.10156-.01563-.13281v-.14844l-.04687-.10547-.02735-.11719-.04687-.10156-.02735-.1211-.04296-.10156-.0625-.08984-.04297-.10156-.04297-.10547-.03125-.11719-.01563-.13281-.01171-.13672.08593-.0586.0586-.08593.12109-.03125.04297.10547.01562.1328v.1172l.0586.10156.0586.08984.08983.0586.14844.14843.0586.08985.04296.10547-.01171.10156.08593.0586.10547.04687.08594.0586.08984.05858.07422.07422-.11719.02735-.10546.04687-.08594.0586-.07422.07421-.0586.08985-.0625.08594-.02734.12109-.04687.10156-.04297.10547-.03125.11719-.01172.13281-.01563.13281v.14844l.02735.11719.04687.10547.04297.10156.0586.08984.07421.07422.08985.0586.07422.07421.08984.0586.0586.08984.04296.10547.04688.10156.11719.03125.1328.01563h.14845l.11718-.03125.10547.04297.04297.10547.04688.10156.02734.1211L299.5 410l.02734.11719.03125.1211.02735.11718.10547.04297.10156.04687.13281-.01562.14844.14844.0625.08593.07422.07422.07031.07422.08984.0625.10547.04297.10156.04297.1172.03125.13671.01562.11719-.03125.07422-.07422.02734-.11718-.01172-.13282-.03125-.12109-.02734-.11719.04297-.10547h.11719l.08984.0625.11719.02735h.14843l.13282.01562h.14843l.13282.01563.1328-.01563h.14845l.1328-.01562.13282-.01172.13672.01172.11719-.02735.13281-.01562.1914-.0586-.05859.17579-.01562.1328-.02735.1211-.01562.13281-.0586.08594-.1328.01563-.10548.04687-.10546.04297-.1172.03125-.11718.02735-.26563.03125h-.14843l-.13281.01562-.07422.07422.05859.08594.14844.14843.11719.1797.07421.0703.08985.0625.08984.0586.08594.0586.08984.05858.10156.04297.10547.0625.10547.04297.08594.0586.10547.04687.10156.04297.17969.11719.0586.08984-.04298.10156-.04687.10547.01562.13281.22266.22266.0586.08985.04296.10156.03125.1211.04297.10155.01563.13282.03125.11718.01171.13672.03125.11719.14844.14844.10156.04297.10547.04296.1172.03125.1328.01563.13672.01563h.11719l.11719-.03125.08984-.0586.04297-.10547.04688-.10156.04296-.10547.03125-.11719.01172-.1328v-.14845l-.01172-.1328-.01562-.13282-.03125-.11719-.04297-.10547-.04688-.10547-.04296-.10156-.04297-.10547-.01563-.13281.01563-.13281.02734-.11719.03125-.11719.02735-.1211.04687-.10155.08984-.0586.08594-.0625.07422-.07422.08984-.05859.22266-.22266.0586-.08593.07421-.07422.11719-.17969.0586-.08594v-.14844l-.07423-.07421-.10156-.04688-.10547-.04297-.10156-.04297-.0586-.08984-.04687-.10547-.02734-.11719.08984-.05859.11719-.03125.10156-.04297.17969-.11719.14844-.14843.01172-.13282-.01172-.10546-.08985-.0586-.1328.01563h-.14845l-.1328.01562-.13282-.01562-.1211-.03125-.08593-.0586-.07422-.07422-.0586-.08984-.0625-.08594-.11718-.17969-.0586-.08593.03125-.1211.08594-.05859.1211-.03125.05859-.08594v-.1211l-.03125-.11718-.0586-.08984-.05859-.08594-.04687-.10547-.02735-.11719-.01562-.1328.0586-.08985.07421-.07422.08984-.0586.1172-.17968.07421-.07422.0586-.08594.14843-.14844.1211-.03125.1328-.01562.13282.01562.07422.07422.04297.10547.01562.13281-.03125.1172-.11719.03124-.1328.01172-.14844.14844-.04297.10547-.04688.10156-.02734.1211-.03125.11718v.14844l.03125.11719.04297.10546.05859.08985.07422.07031.07422.07422.11719.03125.12109.02734.11719-.02734.1328-.01563h.1172l.08984.0586.07422.07422.04687.10546.0586.08594.10156.04688.13281.01562.10547.04297.08594.0586-.01172.10546-.07422.07422-.17969.11719-.05859.08984-.08984.0586-.07032.07422-.07421.07421-.0625.08985-.02735.11719-.01562.1328.01562.13282-.01562.13281v.14844l.01562.13281.02735.1172.03125.12108.07421.07422.08985.0586.08594.0586.08984.05858.11719.03125v.08594l-.10157.04688-.08984.0586-.26563.03124-.11718.02735h-.14844l-.10547.04296-.10156.04688-.0586.08984-.0625.23438-.01171.13281-.03125.1211-.01563.1328v.29298l-.01172.1328.01172.13673.01563.1328.1328.01563.13282.01172.1211.03125.08593.0586.07422.07421.04688.10547.04296.10157.01563.1328v.44532l-.01563.13281v.44532l.03125.26562.02735.11719.01562.13281.03125.11719.08594.21094.03125.26562v.14844l-.03125.11719-.02734.11718-.03125.1211-.02735.11719-.03125.11718-.03125.1211-.01171.1328-.01563.13282.08984.0586.1172-.03125.10155.01562.04688.10547-.03125.26562v.44141l-.04297.10547-.04688.10547-.04296.10156-.04297.10547-.0586.08594-.03125.12109-.04296.11719-.03125.11719-.01563.1328.01563.13282.05859.08984.10547.04688.08594.0586.05859.08593-.01172.13672-.03125.11719-.04297.10156v.44531l-.01562.13281v.14844l-.03125.11719-.04297.10547-.02735.11719-.04687.10546-.04297.10157-.03125.12109-.02734.11719-.03125.13281-.03125.11719-.02735.11719-.04297.10546-.03125.1172-.03125.12108-.01171.13282-.01563.13281v.29688l.02734.11718v.14844l.04688.39844.02734.11719.0586.08984.12109.03125h.14844l.13281-.01563.0586.08985v.11719l-.0586.08984-.08984.0586-.10157.04296-.10546.04688-.08985.05859-.08594.0586-.13671.01562-.1172-.03125-.1328-.01563-.10157.04688-.0625.08594-.01172.13671-.01562.13282-.03125.11719-.02735.11718-.01562.13281-.03125.1211v.29687l.01563.13282.03125.11718v.14844l.01171.13281v.14844l-.02734.11719-.04688.10156-.02734.1211-.03125.11718-.0586.08985-.07421.07421-.10156.04297-.10547.04688-.11719.02734-.1211.03125-.10156-.04687.0586-.08594.10547-.04688.02734-.11718.03125-.11719.02734-.1211.03125-.11718v-.14844l.01563-.13281-.03125-.11719-.04297-.10547-.10547.01563-.07422.07422-.10156.04296-.08984.0625-.07422.07422-.04297.10157-.01563.1328-.03125.1172L304.25 426l-.03125.11719-.02734.11719-.03125.12109-.02735.11719-.03125.11718-.04297.10547-.08984.0586h-.08984l-.1172-.03125-.03124-.08594.01562-.13672-.03125-.11719v-.14844l-.01171-.1328v-.14844l-.0625-.23438-.02735-.1211-.04297-.10156-.04687-.10546-.0586-.08594-.05859-.08985-.04297-.10546-.0625-.08594-.14844-.14844-.0703-.07422-.10548-.04687-.10547-.04297-.10156-.04297-.29687-.29688-.08985-.07421-.08594-.0586-.10546-.04297-.08985-.0625-.08594-.0586-.10546-.04296-.08985-.0586-.08594-.0625-.07421-.0703-.10547-.04688-.08594-.0586-.10547-.04296-.08984-.0625-.10156-.04297-.10547-.04297-.08594-.0586-.10547-.04687-.10547-.04297-.10156-.04687-.08985-.0586-.10156-.04297-.10547-.04296-.08984-.0625-.11719-.02735-.13281-.01562-.13281.01562H299.75l-.13281.01563-.11719-.03125-.08984-.0586-.07422-.07422-.08985-.05859-.10156-.04688h-.14844l-.12109-.02734-.10156-.04297-.07422-.07422-.11719-.17968-.08984-.0586-.10156-.04297-.08985-.0625-.10547-.04296-.08984-.0586-.08594-.0586-.10547-.04687-.0586-.08594-.05858-.08984-.04297-.10547-.04688-.10156-.07422-.07422-.08594-.0586-.07421-.07421-.08985-.0586-.22265-.22265-.04297-.10547-.03125-.26563.10547-.04296h.14453l.10547.04296.07421.07422.08985.0586.08594.0586.10546.04687.08985.05859.14844.14844.0703.07422.14845.14843.0625.08594.07421.07422.08594.0586.07422.07421.08985.0625.08984.0586.08594.05859.26953.17578.10156.04688.10547.04296.10156.04297.04688-.07421.05859-.08594.07422-.07422.07031-.07422.10547.04297.07422.07422.0586.08984.04296.10156.04688.10547.04296.10547.1211.02735.11719-.02735.07421-.08984.04297-.10547.0586-.08985.07422-.07421.10546-.04297.1172-.02735.1328.01172.08985.0586.14844.14843.05859.08985.04297.10547.04687.10156.04297.10547.04297.10156.10547.04688.10547.04296.13281.01563.08594-.0586.0586-.08984.07421-.07422.10547-.04297.11719.02735.10547.04687.10156.04297.10547.04297.10156.04688.17969.11718v.11719l-.01563.13281.01563.13281.01562.13672.0586.08594.10156.04688.1211.02734.11718.03125h.14844l.11719-.03125.05859-.08984.17969-.1172.05859-.08983.07422-.07422.0586-.08594.11718-.17969.17969-.11719.11719.03125.08984.0586.04297.07422-.01563.1328v.1172l.08985.05859h.14843l.13282-.01563.1328-.01171.26563-.03125.10547-.04297.11719-.03125.1211-.02735.07421-.07421.07031-.07422.0625-.08985-.01562-.10547-.04688-.10156-.10156-.04297-.10547-.01562-.11718.02734-.26563.03125h-.14844l-.07421-.07422-.08985-.0586-.11719-.03124-.11718-.02735-.13282-.01562h-.14843l-.13282.01563h-.29687l-.10547-.04688-.14844-.14844-.04297-.10156-.05859-.08984.22266-.22266.08593-.0586.10547-.04296.11719-.03125.13281-.01563.13281.01563.13672.01562.10157.04297.1328-.01172.08985-.0625.10156-.04297.0625-.08984-.04687-.10156-.08984-.0586-.1172-.03125-.10155-.04296-.0586-.08985-.0625-.08984v-.11719l.01563-.13281.10547-.04688.07421-.07031v-.1211l-.08984-.05859-.03125-.11719.08985-.05859.07421-.07422.04297-.10547.0586-.08984.04687-.10156.01563-.13281v-.14844l-.04688-.10547-.04297-.10156-.08984-.0586-.13281-.01562-.10157-.04297-.13671-.01563-.1172-.03125h-.4453l-.13282-.01562-.13281-.01172-.13281-.01563-.11719-.03125h-.14844l-.13281-.01562-.13281-.01172-.26563-.03125-.1211-.04297-.08593-.0586-.07422-.07421v-.14844l.01172-.13281.10547-.04688.10156-.04296.13281-.01563h.15235l.13281-.01562h.29297l.1211.03125.10156.04296.08984.0586.23438.0625.12109-.04688.08984-.05859.10156-.04297.13282-.01562.10547.04296.10156.04688.13281.01172.1211-.02735h.14453l.12109-.03125.11719-.02734.10547-.04687.07421-.07422.08594-.0586.14844-.14843.0586-.08594.04687-.10547.02734-.11719.01563-.10547-.10156-.04296-.08985-.0586-.11719-.03125-.10546-.04297-.08985-.0625-.07422-.08594-.07422-.07421-.10156-.04297-.10547-.04688-.10156-.04297-.0586-.08984-.04687-.10156-.08594-.21094-.0625-.08594-.05859-.08984-.07422-.07422-.08594-.0586h-.26953l-.11719.03126-.08984.05859-.10156.04297-.13281.01562-.10547-.01562-.02735-.11719-.0625-.08984-.11718-.03125-.10157-.04297-.14843-.14844-.03125-.11719-.01563-.10546.07422-.07422.17969-.1172.11719-.02733.11718-.03125.13672.01562.10156.04297.10547.04297.10156.04687.10547.04297.1172.03125.1328.01563.1172.02734.1328.01563.10547-.01563.08985-.0586-.07422-.07421-.10547-.04297-.07422-.07422-.07422-.08984-.14844-.14844-.08593-.0586-.08985-.05859-.07422-.07422-.08984-.0586-.10156-.04687-.1211-.02734-.10156-.04688-.10547-.04296-.11719-.03125-.10156-.04297-.1211-.03125h-.14843l-.11719.03125-.10546.04297-.08594.0625-.17969.11718-.08594.0586-.08984.0586-.10547.04687-.08594.05859-.10547.04297-.10156.04297-.10547.04687-.07422.07422-.05859.08985-.0586.08593-.04687.10547-.0586.08594-.07421.07422-.13281-.01172-.1172-.03125h-.11718l-.07422.07422-.08984.0586-.07422.07421-.08984.0586-.08594.05859-.10547.04687-.10156.04297-.13672.01563-.10156-.04297-.14844-.14844-.10547-.04688h-.08594l-.10547.04688-.10156.04297-.1211.03125-.11718-.03125-.07422-.07422v-.11719l.03125-.1211.07422-.0703.0586-.08985.07421-.07422.11719-.03125.10547-.04296h.29297l.13281-.01563.13672-.01563.10156-.04296.08985-.0586.10156-.04687.08984-.0586.13281-.01171.08985.05859.13281.01172.08984-.0586.08594-.05859.10547-.04297.08984-.0586.08594-.0625.08985-.05859.14843-.14843.0586-.08594.05859-.08985.10547-.04296.13281-.01563.11719.02735.1211.03125.05859-.0586.05859-.08984.03125-.26563.02734-.11719.10547.01172.13281.01563.10157-.04297.08984-.0586.0586-.08984.07421-.07422.0586-.08984.04687-.10156.01172-.13281-.01172-.13282-.04687-.10547-.14844-.14843-.0586-.08985-.05859-.08594-.04297-.10546v-.44532l.01563-.1328v-.14845l.01172-.1328-.0586-.0586-.08984.0586-.10156-.04298-.17969-.11719-.08594-.05859-.0625-.08984-.0586-.08985-.07421-.07421-.08594-.0586-.1211.03125-.10155.01172-.10547.04688-.08594.05859-.10547.04297-.14844.14844-.08984.05859-.08594.0586-.08984.0625-.10547.04296-.13281.01563v-.1211l.10547-.04297.11718-.03125.07422-.0703.04297-.10548v-.14844l-.02734-.11718-.14844-.14844-.13281-.01563h-.14844l-.11719.03125-.10547.04297-.10156.04297-.08984.0625-.11719.02735-.07422-.07422.01172-.13281-.04297-.10157-.04297-.10547-.08984-.05859-.11719.02734-.1211.03125-.11718.03125-.10156.04297-.1211.03125-.10156.04297-.10547.04297-.08984.0586-.10156.01562v-.11719l.01562-.13281-.0586-.08985-.07421.04297-.14844.14844-.0586.08985-.07421.07421-.04688.10547-.04296.10156-.07422.07422-.0586.08985-.07422.07422-.05859.08593-.07422.07422-.08984.0625-.07422.07031-.07422.07422-.10156.01563-.13281.01562-.10547-.04296v-.1211l.14843-.14844.04297-.10156.0586-.08984.04687-.10156.04297-.10547.0586-.08985.03124-.11719.04297-.10156.03125-.1211.02735-.11718.04687-.10547.04297-.10156.04297-.10547.07422-.07031.08984-.0625.08985-.0586.10156-.04296h.29687l.26563-.03125.10547-.04297-.07422-.07422-.11719-.03125-.10547-.04297-.08984-.0586-.10156-.04687-.08985-.0586-.10156-.04296-.10547-.04297-.08984-.0625-.08594-.0586-.10547-.04296-.10156-.04297-.1211-.03125-.11718-.03125-.10157-.04297L297.5 410.25l-.10156-.04297-.08985-.0586-.04296-.10546-.01563-.13281.10156-.04297.13281-.01563.13672.01563.13282-.01563.10156-.04297.0586-.08984.01562-.10547-.08985-.0586-.07421-.07421-.10157-.04297-.08984-.0586-.14844-.14843-.04297-.10547-.01562-.13281v-.29297l-.0586-.08985-.08984-.05859-.07422-.07422-.04297-.10547-.03125-.11718-.0586-.08985-.07421-.07422-.11719-.02734-.07422-.07422-.08984-.0586-.08984-.0625-.08594-.05859-.07422-.07421-.0586-.08594-.04687-.10547-.08594-.0586-.14843-.14843-.19532-.0586-.1328.01563-.10157.04297-.07422.07422-.04688.10156-.04296.10547-.0586.08984-.0586.08594-.29687.29687-.08984.0586h-.08594l-.0625-.08594-.04297-.10547.03125-.11719.0586-.08984.02734-.11719-.01172-.13281-.08984-.0625-.10547.04688-.11719.02734-.11719.03125-.26953.17578-.10156.04688-.11719.02734-.10546.04687-.08985.0586-.10156.04297-.0586-.08594-.04687-.10547.01563-.13281.04687-.10547.07031-.07422.07422-.07031.0586-.08985v-.14843l-.04297-.10547h-.23829l-.10156.04687-.03125.11719-.02734.11719-.03125.1211-.07422.04296-.13281.01563-.07422-.04688-.04297-.10156-.04297-.10547-.04687-.10156-.04297-.10547-.1211.03125-.10156.04297-.13281.01562-.11719.03125-.10547.04297-.08984.0586-.10156.04687-.1211.02734-.13281.01563-.10156-.04297-.0586-.08985-.04687-.10546-.04297-.10157-.04297-.10546v-.1172l.0586-.08984.08593-.05859.17969-.11719.10156-.04687.10547-.04297.10547-.0586.10156-.04296.08985-.0625.10156-.04297.10547-.0586.10156-.04687.08984-.0586.10547-.04296.10156-.04297.08985-.0625.10156-.04297.13672-.01563.11719.03125.10156.04297.1211.03125.10156.04297.10546.04688.10157.04296.10547.04297.10156.04688.10547.04297.10156.04297.10547.04687.08594.0586.10546.04296.1172.03125.10546.04297.10156.04688.08985.0586.10547.04296.10156.04297.10547.04687.11719.02735.10156.04687.1211.02735h.14843l.08594-.0586.01562-.10156.0586-.08984-.02735-.1172-.07422-.07421-.11719-.17969-.07421-.07422-.08985-.07421-.17969-.1172-.08593-.05859-.10547-.04296-.10156-.04688-.26954-.17578-.05859-.08985-.07422-.07421-.0586-.08985-.04296-.10156-.03125-.11719-.01563-.13672v-.5625l-.01171-.1328-.01563-.13282-.03125-.11719-.01562-.13281-.01172-.13281-.03125-.1211-.22266-.22265-.0586-.08594-.01562-.10547.03125-.11719.13281-.01562v-91.41406H172.9922v1.45312l-.0586.23438-.35156 1.05078-.17187.52343-.1172.34766-.17577.41016-.11719.17187-.23438.29297-.23046.0586h-.35157l-.11718.05859-.23047.40625v.29297l.11719.17578.23046.23047.1172.23437.64062.75781.29297.46485.17578.23437.23047.35156.23437.34766.64063.8164.17578.46485.17187.41016.11719.69531.17578.46875.11719 1.39844.0586.46484v.875l.11718 1.04688v4.78125l-.0586.46484-.35156 1.28125-.17578.52344-.11328.41015-.35156.9297L172.93359 336l-.23437.58203-.11719.17578-.17187.34766-.17578.40625-.35157.8164-.0586.29297-.11327.29297-.11719.28906-.0586.17579-.11718.875-.0586.40625-.05859.11718-.0586.17579-.05859.17187-.23047.52734-.11718.17188v.23437l-.11719.23438-.0586.17187-.17577.58594v.28906l-.0586.17579v.29296l-.0586.11329-.05859.52734v.17187l-.05468.23438v2.6211l-.17578.8164-.1172.17578-.17577.23438-.1172.17187-.11327.23438-.58594.93359-.23047.28906-.29297.46485-.17578.23437-.28906.35156-.35156.69922-.11328.23047-.17579.41016-.17578.23046-.40625.52735-.8164.69922-.29297.17187-.28906.23438-.17579.11719-.17578.17578-.52344.40625-.52734.17578-.17187.17578-.23438.05469-.64062.17578h-.75782m12.21094 31.02344l-1.07422.44921.35938.89454 1.25-.71485.44531-.53906-.98047-.08985"/><path fill="#d3d3d3" fill-opacity="0" fill-rule="evenodd" d="M201.50781 416.59766h-.89453l.44922.6289.98047.35938.80469-.08985.4453-.98828-.17577.08985-.71485-.35547-.89453.35547m154.6211 59.0703l-.0586-.52343v-.29297l.11328-.29297.0586-.23046.46875-.46875h.11328l.11719-.11329.11718-.05859h.17579l.23437-.0586h.34766l.23437.0586.11719.0586.23047.17187.0586.17578.11718.58203v.29297l-.11719.17578-.17187.28906-.17579.17579-.52734.52343-.23047.23438-.11719.0586h-.17578l-.11718-.0586-.40625-.29297-.17579-.11719-.11718-.0586-.0586-.11327-.05468-.1172m6.64062-10.95702l-.0586-.17188v-1.10937l.0586-.17188.17578-.0586.17188-.05858h.17578l.23437-.0586.1172.0586.05858.69921-.05859.17188-.11719.17578-.11718.0586-.23438.52343-.11328.0586h-.23438l-.05859-.1172m9.61328-14.39062l-.11719-.17578v-.69922l.29297-.875.1172-.17187.17577-.35156.11328-.23047.1172-.29297.35155-.75781.1172-.23047.17187-.23438h.17578l.11719-.0586h.64062l.11719.0586.23437.23438.17188.11328.35156.29297.11719.11718.11328.17579v.11328l.11719.05859.11718.11719v.69922l-.05859.17578v.23047l-.0586.17578-.34765 1.05078-.11719.23047-.11719.23437-.11718.0586-.23047.23437-.64063.28906h-.875l-.41015-.11718-.64063-.46485"/><path fill="none" stroke="#bebebe" stroke-linecap="round" stroke-linejoin="round" stroke-miterlimit="10" stroke-width=".5" d="M467.95703 311.69531H144.02734v168.625h323.9297v-168.625"/><g clip-path="url(#a)"><path fill="#fff" fill-opacity="0" fill-rule="evenodd" d="M144 475.89063v4.4375h.0039H144V311.67188h.0039H144v164.21875"/></g><g clip-path="url(#b)"><path fill="#fff" fill-opacity="0" fill-rule="evenodd" d="M144.0039 480.32813V311.67188h17.75v127.6328l-.8789 1.07813-.58984 4.4375-.875 4.4414.5703 4.4375-.26562 4.4375.33594 4.4375 1.70313 1.70313 4.4375 1.10157 4.4375.43359 4.4375-2.53516.78906-.70312 1.30469-4.4375 2.34765-2.26563 2.08594-2.17187-2.08594-2.1914-2.39844-2.2461-.54687-4.4414-1.4961-3.75782-4.4375.71094-3.17968-1.39063-1.25781-.80078-4.4375-.27734V311.67188h53.26172v98.27734l-4.32813 3.80469 2.84766 4.4375-2.96094 1.72265-3.7461 2.71485-.6914.5078-4.4375.04688-.22266-.55468-4.21484-4.32422-4.4414 1-4.4375 2.875-.75.44922-3.6875.48046-3.44532 3.96094 1.9375 4.4375 1.50781 3.16797 2.26172-3.16797 2.08984-4.4375.08594-2.00781 4.4375 1.6211 4.4414.1914.48829.19531-.48828.99219-2.92969 3.44531.53516 4.4375 2.39453.86328 2.6289-.86328 1.8086-.71094 4.4375-.0039.59766.71484-.59766 1.14453-2.70703 3.29297-.72656 4.4375-.23438 4.4414 1.35156 4.4375 2.3164 2.27735 4.4375-.82422 2.32813-1.45312 2.11328-.76172 2.82813-3.67578 1.60938-4.3789.05468-.0625-.05469-.07423-2.42578-4.36328-2.01172-1.89453-2.14062-2.54297-.67969-4.4375.4375-4.4375 1.02735-4.4414 1.35547-2.57813 2.4414-1.85937 1.9961-2.23438 1.40625-2.20312-1.40625-1.15235-4.4375-2.65234v-98.27735h31.0664V406.875l-1.3789 2.4414-3.0586 2.22657-4.4375-.98047-2.60937 3.1914.15625 4.4375-1.98828.78907-3.9336 3.64844-.5039 1.1875-3.00782 3.2539 3.00781 2.9961 4.4375 1.33593.0586.10547 4.38281 4.23828 4.07031-4.23828.3672-.52734 2.48827.52734 1.94922 1.45313 4.4375-.33594 1.45703-1.11719 2.98047-.47656 4.4414-1.14844 2.85157-2.8125.17969-4.4414-3.03125-2.875-4.4414.39062-4.4375-.13281-4.4375.69531-4.4375-1.01562-2.00392-1.5 2.00391-2.16797 3.03125-2.26953 1.40625-2.23829 1.35156-2.19921-1.35156-2.44141v-95.20313h22.1914v119.34375l-.60156.4922.60157.45312.48437-.45313-.48437-.49219V311.67188h39.94531v98.62891l-3.70703 3.45313-.73047 3.7578-.49219.6797-3.94531 1.76562-4.4414-.98047-.84376-.78515-3.59375-3.32813-3.70703 3.32813-.73047 4.28906-.10156.14844.10156.0703 1.54297 4.3711 2.30078 4.4375.59375.75 1.39844-.75 3.03906-.41406v24.86719l-2.17578 2.17578 2.17578 4.02734 3.47266-4.02734-3.47266-2.17578v-24.86719l4.1836.41406.25781.08594.28516-.08594 4.15234-.58984 2.91016-3.84766-2.91016-3.10937-1.5586-1.33203 1.5586-3.85157 4.4375.56641 4.4375 2.8164 3.4336-3.96874-1.8125-4.4375-1.6211-2.64844-4.4375-.80469v-98.6289h17.7539V456.5l-2.77734 1.63672 2.77735 1.875 1.6328-1.875-1.6328-1.63672V311.67187h8.875v107.6797l-1.72266 3.27734 1.72266 1.76562 2.05468-1.76562-2.05468-3.27735V311.67187h62.13671v156.78907l-4.4375 1.83203-1.05468 1.16015.76953 4.4375.28515.28907.3047-.28906L396.98436 474l3.20704-2.54688-3.20704-2.99218V311.67188h48.82422v146.52734l-4.4375 1.78515-4.4414.26563-4.4375 1.09766-2.95703 1.22656 2.95703 2.20703 4.4375-.03125 2.53515 2.26563 1.90625 1.60937 1.34766-1.60938 3.08984-1.51953 2.88672-2.92187-2.88672-4.375V311.67187h22.1875v150.15625l-.75.7461.75.82031v5.5625l-4.43359-.84765-3.03516 3.34375-.20703 4.4375 1.74219 4.4375h-28.53906l.85547-4.4375 1.16406-4.4375-3.05078-3.83594-3.58203 3.83594 1.37109 4.4375-2.22656 1.8164-4.4375.45313-1.875-2.26954-2.5625-2.48046-1.92578-1.95704 1.1289-4.4375.79688-.33593 4.4375-.17578 4.35156-3.9297-.17969-4.4375.26563-1.14062 3.09375-3.29687 1.34375-.60938 3.47265-3.82812.38282-4.4414-3.85547-3.64454-4.4375.46875-4.27344 3.17578-.16406.1211-.71094-.1211-3.72656-3.48047-2.00781 3.48047-2.4336 1.01563-3.30469 3.42578-1.1328 3.92578-4.4375-1.96484-2.97267 2.47656-1.46484 3.14062-.92578 1.29688-1.40625 4.4375 2.33203 1.40625 3.21875-1.40625 1.21875-.35547.27344.35547.08594 4.4414-.35938 1.6836L404 471.45312l1.86328 1.16016 4.4375 2.63281 4.4375.01563.64453.6289 3.79688 3.40625 1.34375 1.03125H144.0039"/></g><path fill="#50fcfc" fill-rule="evenodd" d="M159.98047 453.69922l-.57031-4.4375.875-4.4414.58984-4.4375.8789-1.07813 4.4375.27734v7.01172l-1.96093 2.66797 1.96094 3.41797 3.97265-3.41797-3.97265-2.66797v-7.01172l1.2578.80078 3.1797 1.39063 4.4375-.71094v10.54297l-4.4375.91015-1.27735 1.1836-3.16015 2.78515-2.3086 1.65235 1.4336 4.4375.875.35547 4.4375 1.03125 2.04687-1.38672 1.00781-4.4375 1.38282-2.28906 2.22656-2.14844-2.22656-2.09375V441.0625l1.49609 3.75781.54688 4.4414 2.39843 2.2461 2.08594 2.1914-2.08594 2.17188-2.34765 2.26563-1.3047 4.4375-.78905.70312-4.4375 2.53516-4.4375-.4336-4.4375-1.10156-1.70313-1.70312-.33594-4.4375.26563-4.4375"/><path fill="#00e8fc" fill-rule="evenodd" d="M165.3164 462.57422l-1.43359-4.4375 2.3086-1.65235 3.16015-2.78515 1.27735-1.1836 4.4375-.91015 2.22656 2.09375-2.22656 2.14844-1.38282 2.28906-1.0078 4.4375-2.04688 1.38672-4.4375-1.03125-.875-.35547"/><path fill="#fff" fill-opacity="0" fill-rule="evenodd" d="M166.1914 446.59375l-1.96093 2.66797 1.96094 3.41797 3.97265-3.41797-3.97265-2.66797"/><path fill="#50fcfc" fill-rule="evenodd" d="M182.4375 431.50781l-1.9375-4.4375 3.44531-3.96094v2.28516l-1.45703 1.67578 1.45703 2.03906 1.83985-2.03906-1.83985-1.67578v-2.28515l3.6875-.48047.75-.44922 4.4375-2.875 4.4414-1v1.79687l-4.4414 1.07813-1.98047 1.44922 1.98047 1.76953 4.4414.71484 2.46485-2.48437-2.46484-2.52735v-1.79687l4.21484 4.32422.22266.55468 4.4375-.04687v3.61719l-1.92578.3164 1.92578.60547.63281-.60547-.63281-.3164v-3.6172l.6914-.5078 3.7461-2.71485v20.40235l-.03906.0664-2.19141 4.4375-2.20703 2.98828-.46484 1.45313.46484 1.02734 4.4375 1.64844 4.4414-2.59766.0586-.07812 2.11328-4.4414-2.17188-2.70313-4.39062-1.73438-.05078-.0664v-20.40235l2.96094-1.72265-2.84766-4.4375 4.32813-3.8047v1.53126l-2.58594 2.27344 2.58594 2.9375 2.875-2.9375-2.875-2.27344v-1.53125l4.4375 2.65234 1.40625 1.15235-1.40625 2.20312-1.9961 2.23438-2.4414 1.85937-1.35547 2.57813-1.02735 4.4414-.4375 4.4375.67969 4.4375 2.14063 2.54297 2.01171 1.89453 2.42578 4.36328.0547.07422-.0547.0625-1.60937 4.3789-2.82813 3.67579-2.11328.76172-2.32812 1.45312-4.4375.82422-2.3164-2.27734-1.35157-4.4375.23438-4.4414.72656-4.4375 2.70703-3.29298.59766-1.14453-.59766-.71484-4.4375.0039-1.8086.71094-2.6289.86328-2.39453-.86328-.53516-4.4375 2.92969-3.44531.48828-.99219-.48828-.19531-4.4414-.1914-4.4375-1.6211-.08595 2.00781-2.08984 4.4375-2.26172 3.16797-1.50781-3.16797"/><path fill="#00e8fc" fill-rule="evenodd" d="M183.94531 429.10938l-1.45703-2.03907 1.45703-1.67578 1.83985 1.67578-1.83985 2.03906m8.875-4.71093l-1.98047-1.76953 1.98047-1.44922 4.4414-1.07813 2.46485 2.52735-2.46484 2.48437-4.4414-.71484m13.3164 3.27734l-1.92578-.60547 1.92578-.3164.63281.3164-.63281.60547m0 22.61328l-.46484-1.02734.46484-1.45313 2.20703-2.98828 2.1914-4.4375.03907-.0664.05078.0664 4.39063 1.73438 2.17187 2.70312-2.11328 4.4414-.0586.07813-4.4414 2.59766-4.4375-1.64844m8.8789-33.59765l-2.58593-2.9375 2.58594-2.27344 2.875 2.27344-2.875 2.9375"/><path fill="#50fcfc" fill-rule="evenodd" d="M228.32813 430.0664l-3.00782-2.99609 3.00781-3.2539.50391-1.1875 3.9336-3.64844 1.98828-.78906-.15625-4.4375 2.60937-3.19141v8.28125l-4.4414 1.44531-2.52344 2.33985-1.84766 4.4414 4.3711 2.53906 1.01953 1.89844 3.42187 3.3086 3.17578-3.3086 1.26172-1.8164 4.4375-.58594 4.4375 1 4.4375-.1211 4.4414-2.66015.25782-.2539.29297-4.44141-.55078-.52344-2.64063.52344-1.80078.23046-4.4375-.125-4.4375 1.9375-3.15625-2.04296-1.28125-.48829-4.4375-3.29687v-8.28125l4.4375.98047 3.0586-2.22656 1.3789-2.44141 1.35156 2.4414-1.35156 2.19923-1.40625 2.23828-3.03125 2.26953-2.0039 2.16797 2.0039 1.5 4.4375 1.01562 4.4375-.69531 4.4375.13281 4.4414-.39062 3.03126 2.875-.17969 4.4414-2.85156 2.8125-4.4414 1.14844-2.98048.47656-1.45703 1.11719-4.4375.33594-1.94922-1.45313-2.48828-.52734-.36719.52734-4.0703 4.23828-4.38282-4.23828-.0586-.10547-4.4375-1.33593"/><path fill="#00e8fc" fill-rule="evenodd" d="M232.76563 429.60938l-4.3711-2.53907 1.84766-4.4414 2.52344-2.33985v2.1836l-.16797.15625.16797 1.4375.30078 3.0039 2.3203 4.4375 1.82032 1.75781 1.6875-1.7578 2.75-3.96876 1.11328-.46875-1.11328-.88672-4.4375-3.33203-2.6836-.22265-1.7578-.15625v-2.1836l4.4414-1.44531 4.4375 3.29688 1.28125.48828 3.15625 2.04296 4.4375-1.9375 4.4375.125v2.51954l-4.4375 1.6328-.08984.0586.08984.03906 4.4375 1.12891 1.85156-1.16797-1.85156-1.6914v-2.51954l1.80078-.23046 2.64063-.52344.55078.52344-.29297 4.4414-.25781.2539-4.4414 2.66017-4.4375.12109-4.4375-1-4.4375.58594-1.26173 1.8164-3.17578 3.3086-3.42187-3.3086-1.01953-1.89844"/><path fill="#00d4fc" fill-rule="evenodd" d="M232.76563 424.0664l-.16797-1.4375.16797-.15624 1.7578.15625 2.6836.22265v2.00781l-2.17187 2.21094 1.95312 4.4375.21875.20703.19922-.20703 2.39844-4.4375-2.59766-2.21094v-2.0078l4.4375 3.33202 1.11328.88672-1.11328.46875-2.75 3.96875-1.6875 1.75781-1.82031-1.7578-2.32031-4.4375-.30078-3.00391"/><path fill="#00c4fc" fill-rule="evenodd" d="M236.98828 431.50781l-1.95312-4.4375 2.17187-2.21094v2.00391l-.20312.20703.20312.46875.24219-.46875-.24219-.20703v-2.0039l2.59766 2.21093-2.39844 4.4375-.19922.20703-.21875-.20703"/><path fill="#00b8fc" fill-rule="evenodd" d="M237.20703 427.53906l-.20312-.46875.20312-.20703.24219.20703-.24219.46875"/><path fill="#00d4fc" fill-rule="evenodd" d="M250.51953 427.10938l-.08984-.03907.08984-.0586 4.4375-1.6328 1.85156 1.6914-1.85156 1.16797-4.4375-1.1289"/><path fill="#50fcfc" fill-rule="evenodd" d="M268.27344 431.96094l-.60156-.45313.60156-.49219.48437.4922-.48437.45312m17.7539-9.26172l-.10156-.07031.10156-.14844.73047-4.28906 3.70703-3.32813v2.1875l-1.26953 1.14063-1.71875 4.4375 2.42188 4.4414.5664.94531 4.4375 1.1836 4.44141.8086 4.4375-2.13282.60938-.80469-.60938-.65234-4.4336-3.78906-.0039-.00391-4.4414-1.45703-3.20704-2.97656-1.23047-1.14063v-2.1875l3.59375 3.32813.84375.78515 4.44141.98047 3.94531-1.76562.49219-.6797.73047-3.7578 3.70703-3.45313v1.4961l-2.10156 1.95703 2.10156 2.78906 1.67969 1.64844 2.75781 2.21875 1.92188-2.21875-1.92188-2.98829-1.41797-1.44921-3.01953-1.95704v-1.49609l4.4375.80469 1.6211 2.64844 1.8125 4.4375-3.4336 3.96875-4.4375-2.81641-4.4375-.5664-1.5586 3.85156 1.5586 1.33203 2.91016 3.10937-2.91016 3.84766-4.15234.58984-.28516.08594-.25781-.08594-4.1836-.41406-3.03906.41406-1.39844.75-.59375-.75-2.30078-4.4375-1.54297-4.3711"/><path fill="#00e8fc" fill-rule="evenodd" d="M289.89844 427.07031l-2.42188-4.4414 1.71875-4.4375 1.26953-1.14063v4.48828l-.54687 1.08985.54687.92578 1.20704-.92578-1.20704-1.08985v-4.48828l1.23047 1.14063 3.20703 2.97656 4.44141 1.45703v3.82422l-1.48047.6211 1.48047.41015.71484-.41016-.71484-.6211V422.625l.0039.0039 4.4336 3.78907.60938.65234-.60938.80469-4.4375 2.13281-4.4414-.8086-4.4375-1.18358-.56641-.94532"/><path fill="#00d4fc" fill-rule="evenodd" d="M290.46484 423.55469l-.54687-.92578.54687-1.08985 1.20704 1.08985-1.20704.92578"/><path fill="#50fcfc" fill-rule="evenodd" d="M294.90234 462.16406l-2.17578-4.02734 2.17578-2.17578 3.47266 2.17578-3.47266 4.02734"/><path fill="#00d4fc" fill-rule="evenodd" d="M299.34375 427.48047l-1.48047-.41016 1.48047-.6211.71484.6211-.71484.41016"/><path fill="#00e8fc" fill-rule="evenodd" d="M308.21875 416.54297l-2.10156-2.78906 2.10156-1.95704 3.01953 1.95704 1.41797 1.44921 1.92188 2.98829-1.92188 2.21875-2.75781-2.21875-1.67969-1.64844"/><path fill="#50fcfc" fill-rule="evenodd" d="M325.97266 460.01172l-2.77735-1.875 2.77735-1.63672 1.6328 1.63672-1.6328 1.875m8.875-35.61719l-1.72266-1.76562 1.72266-3.27735 2.05468 3.27735-2.05468 1.76562m57.41406 51.4961l-.76953-4.4375 1.05469-1.16016 4.4375-1.83203 3.20703 2.99219L396.98437 474l-4.1328 1.89063-.3047.28906-.28515-.28906"/><g clip-path="url(#c)"><path fill="#50fcfc" fill-rule="evenodd" d="M401.42578 463.98047l-2.33203-1.40625 1.40625-4.4375.92578-1.29688 1.46485-3.14062 2.97265-2.47656 4.4375 1.96484 1.13281-3.92578 3.3047-3.42578 2.43358-1.01563 2.00782-3.48047 3.72656 3.48047.71094.1211.16406-.1211 4.27344-3.17578 4.4375-.46875v2.28125l-4.4375.22656-1.53125 1.13672-2.90625 2.1289-4.4375-.1289-4.4414 1.65235-.75782.78906.75781 4.01172.08594.42578-.08594.28515-4.4375 2.29297-4.4375-.70703-1.05078 2.5664 1.05078.83985 2.74219 3.59766.29297 4.4414-.875 4.4375 2.27734 1.71094 3.11719-1.71094 1.32031-1.40625 1.5664-3.03125 2.875-1.21484 4.4375-.09375 3.46876-3.13281-.67188-4.4375 1.01563-4.4375.625-1.5664 4.4375-1.57032 1.1836-1.30078.26171-4.4414-1.44531-1.36329v-2.28125l3.85547 3.64453-.38282 4.4414-3.47265 3.82813-1.34375.60938-3.09375 3.29687-.26563 1.14063.17969 4.4375-4.35156 3.92969-4.4375.17578-.79688.33594-1.1289 4.4375 1.92578 1.95703 2.5625 2.48046 1.875 2.26954 4.4375-.45313 2.22656-1.8164-1.3711-4.4375 3.58204-3.83594v3.09375l-.6914.74219.6914 1.23046.58984-1.23046-.58984-.7422v-3.09374l3.05078 3.83594-1.16406 4.4375-.85547 4.4375h-13l-1.34375-1.03125-3.79688-3.40625-.64453-.62891-4.4375-.01563-4.4375-2.6328L404 471.45311l1.86328-2.7539.35938-1.6836-.08594-4.4414-.27344-.35547-1.21875.35547-3.21875 1.40625"/></g><path fill="#00e8fc" fill-rule="evenodd" d="M405.86328 458.97656l-1.05078-.83984 1.05078-2.5664 4.4375.70702 4.4375-2.29296.08594-.28516-.08594-.42578-.75781-4.01172.75781-.78906 4.4414-1.65235 4.4375.1289v3.78126l-4.16015 2.96875-.27734.46875-1.44531 3.96875-2.9961 1.84765-2.8125 2.58985 2.8125 2.88672 4.4414-1.1211 4.4375.03907 2-1.8047-1.49609-4.4375.95704-4.4375-1.46094-2.96874v-3.78125l2.90625-2.1289 1.53125-1.13673 4.4375-.22656 1.44531 1.36328-.26172 4.4414-1.1836 1.30079-4.4375 1.57031-.625 1.5664-1.01562 4.4375.67188 4.4375-3.46875 3.13282-4.4375.09375-2.875 1.21485-1.5664 3.03125-1.32032 1.40625-3.11719 1.71093-2.27734-1.71094.875-4.4375-.29297-4.4414-2.74219-3.59766"/><path fill="#00d4fc" fill-rule="evenodd" d="M414.73828 465.46094l-2.8125-2.88672 2.8125-2.58985 2.9961-1.84765 1.4453-3.96875.27735-.46875 4.16016-2.96875v10.44531l-4.4375.32813-4.4414 1.02734-.04688.04297.04687.05078 4.4414.2539 4.4375.17188.52735-.47656-.52734-1.39844v-10.44531l1.46094 2.96875-.95704 4.4375 1.4961 4.4375-2 1.80469-4.4375-.03907-4.4414 1.1211"/><path fill="#00c4fc" fill-rule="evenodd" d="M414.73828 462.625l-.04687-.05078.04687-.04297 4.4414-1.02734 4.4375-.32813.52735 1.39844-.52734.47656-4.4375-.17187-4.4414-.25391"/><path fill="#50fcfc" fill-rule="evenodd" d="M432.49219 464.78125l-2.95703-2.20703 2.95703-1.22656 4.4375-1.09766 4.4414-.26563 4.4375-1.78515v3.52344l-2.30078.85156 2.30078.57031.5625-.57031-.5625-.85156v-3.52344l2.88672 4.375-2.88672 2.92187-3.08984 1.51954-1.34766 1.60937-1.90625-1.60938-2.53515-2.26562-4.4375.03125"/><path fill="#00e8fc" fill-rule="evenodd" d="M432.49219 472.6836l-.6914-1.23048.6914-.74218.58984.74219-.58984 1.23046m13.3164-9.53906l-2.30078-.57031 2.30078-.85156.5625.85156-.5625.57031"/><g clip-path="url(#d)"><path fill="#50fcfc" fill-rule="evenodd" d="M462.0625 480.32813l-1.74219-4.4375.20703-4.4375 3.03516-3.34375v2.375l-.8789.96875-.15235 4.4375 1.03125 1.80468 2.53125-1.80469.28125-4.4375-2.8125-.96875v-2.375l4.4336.84766v9.13672l-2.98048 2.23438h-2.95312"/></g><path fill="#00e8fc" fill-rule="evenodd" d="M463.5625 477.69531l-1.03125-1.80469.15234-4.4375.87891-.96875 2.8125.96875-.28125 4.4375-2.53125 1.8047"/><g clip-path="url(#e)"><path fill="#fff" fill-opacity="0" fill-rule="evenodd" d="M467.9961 478.09375l-2.98048 2.23438h2.98047v-2.23438"/></g><path fill="#50fcfc" fill-rule="evenodd" d="M467.9961 463.39453l-.75-.82031.75-.7461v1.56641m0 5.5625v9.13672H468v-9.13672h-.0039"/><path fill="#fff" fill-opacity="0" fill-rule="evenodd" d="M467.9961 463.39453v5.5625H468v-5.5586l-.0039-.0039"/><path fill="#50fcfc" fill-rule="evenodd" d="M467.9961 461.82813v1.5664l.0039.0039v-1.57421l-.0039.0039"/><g clip-path="url(#f)"><path fill="#fff" fill-opacity="0" fill-rule="evenodd" d="M467.9961 311.67188H468v150.15234-150.15235h-.0039"/></g><path fill="#fff" fill-opacity="0" fill-rule="evenodd" d="M433.08203 475.9336l1.3125-5.69532-9.70703-2.23047-1.3125 5.6914 9.70703 2.23438"/><path fill-rule="evenodd" d="M425.94531 470.69922l.11719-.4961 6.13281 1.41016-.17578.76953-4.375-1.00781-.3125 1.35156-.53906-.125.0586-.5586.0078-.2578-.03906-.2422-.08984-.23046-.16797-.21875-.2539-.20313-.36329-.1914"/><path fill="#fff" fill-opacity="0" fill-rule="evenodd" d="M212.0586 415.3125l5.8203-.53125-.91015-9.92188-5.8164.53516.90624 9.91797"/><path fill-rule="evenodd" d="M214.80469 406.89844l.50781-.04688.57422 6.26953-.78516.07032-.41015-4.46875-1.38282.125-.05078-.55079.55078-.11718.25-.07813.21875-.10937.1875-.16016.15625-.22265.11328-.3047.07032-.40624"/><g clip-path="url(#g)"><path fill="none" stroke="#000" stroke-linecap="round" stroke-linejoin="round" stroke-miterlimit="10" stroke-width=".5" d="M146.26563 477.64453l-4.53125 5.3711"/></g><path fill="none" stroke="#000" stroke-linecap="round" stroke-linejoin="round" stroke-miterlimit="10" stroke-width=".5" d="M145.60547 478.42578l1.19922.25781"/><g clip-path="url(#h)"><path fill="none" stroke="#000" stroke-linecap="round" stroke-linejoin="round" stroke-miterlimit="10" stroke-width=".5" d="M160.11328 478.20703l-5.59766 4.2461"/></g><path fill="none" stroke="#000" stroke-linecap="round" stroke-linejoin="round" stroke-miterlimit="10" stroke-width=".5" d="M159.30078 478.82422l1.11328.51562"/><g clip-path="url(#i)"><path fill="none" stroke="#000" stroke-linecap="round" stroke-linejoin="round" stroke-miterlimit="10" stroke-width=".5" d="M173.66406 478.5586l-6.07031 3.54296"/></g><path fill="none" stroke="#000" stroke-linecap="round" stroke-linejoin="round" stroke-miterlimit="10" stroke-width=".5" d="M172.78125 479.07422l1.04297.64453"/><g clip-path="url(#j)"><path fill="none" stroke="#000" stroke-linecap="round" stroke-linejoin="round" stroke-miterlimit="10" stroke-width=".5" d="M187.0664 478.71094l-6.24218 3.23437"/></g><g clip-path="url(#k)"><path fill="none" stroke="#000" stroke-linecap="round" stroke-linejoin="round" stroke-miterlimit="10" stroke-width=".5" d="M186.15625 479.1836l1.01172.6953"/></g><g clip-path="url(#l)"><path fill="none" stroke="#000" stroke-linecap="round" stroke-linejoin="round" stroke-miterlimit="10" stroke-width=".5" d="M200.42578 478.80469l-6.33203 3.04687"/></g><g clip-path="url(#m)"><path fill="none" stroke="#000" stroke-linecap="round" stroke-linejoin="round" stroke-miterlimit="10" stroke-width=".5" d="M199.5039 479.25l.98829.72656"/></g><g clip-path="url(#n)"><path fill="none" stroke="#000" stroke-linecap="round" stroke-linejoin="round" stroke-miterlimit="10" stroke-width=".5" d="M214.08594 480.19531l-7.02344.26953"/></g><g clip-path="url(#o)"><path fill="none" stroke="#000" stroke-linecap="round" stroke-linejoin="round" stroke-miterlimit="10" stroke-width=".5" d="M213.0664 480.23438l.6172 1.05859"/></g><g clip-path="url(#p)"><path fill="none" stroke="#000" stroke-linecap="round" stroke-linejoin="round" stroke-miterlimit="10" stroke-width=".5" d="M227.35938 480.89063l-6.9375-1.1211"/></g><g clip-path="url(#q)"><path fill="none" stroke="#000" stroke-linecap="round" stroke-linejoin="round" stroke-miterlimit="10" stroke-width=".5" d="M226.35156 480.72656l.39453 1.16016"/></g><g clip-path="url(#r)"><path fill="none" stroke="#000" stroke-linecap="round" stroke-linejoin="round" stroke-miterlimit="10" stroke-width=".5" d="M240.64063 481.07422l-6.8672-1.49219"/></g><g clip-path="url(#s)"><path fill="none" stroke="#000" stroke-linecap="round" stroke-linejoin="round" stroke-miterlimit="10" stroke-width=".5" d="M239.64063 480.85547l.33203 1.1836"/></g><g clip-path="url(#t)"><path fill="none" stroke="#000" stroke-linecap="round" stroke-linejoin="round" stroke-miterlimit="10" stroke-width=".5" d="M254.01172 480.71484l-6.98438-.77343"/></g><g clip-path="url(#u)"><path fill="none" stroke="#000" stroke-linecap="round" stroke-linejoin="round" stroke-miterlimit="10" stroke-width=".5" d="M252.9961 480.60156l.45312 1.14063"/></g><g clip-path="url(#v)"><path fill="none" stroke="#000" stroke-linecap="round" stroke-linejoin="round" stroke-miterlimit="10" stroke-width=".5" d="M267.33594 480.63281l-7-.60547"/></g><g clip-path="url(#w)"><path fill="none" stroke="#000" stroke-linecap="round" stroke-linejoin="round" stroke-miterlimit="10" stroke-width=".5" d="M266.3164 480.54297l.48048 1.1289"/></g><g clip-path="url(#x)"><path fill="none" stroke="#000" stroke-linecap="round" stroke-linejoin="round" stroke-miterlimit="10" stroke-width=".5" d="M280.66406 480.3086l-7.02734.04296"/></g><g clip-path="url(#y)"><path fill="none" stroke="#000" stroke-linecap="round" stroke-linejoin="round" stroke-miterlimit="10" stroke-width=".5" d="M279.64063 480.3125l.58203 1.08203"/></g><g clip-path="url(#z)"><path fill="none" stroke="#000" stroke-linecap="round" stroke-linejoin="round" stroke-miterlimit="10" stroke-width=".5" d="M293.97266 480.52734l-7.01563-.39453"/></g><g clip-path="url(#A)"><path fill="none" stroke="#000" stroke-linecap="round" stroke-linejoin="round" stroke-miterlimit="10" stroke-width=".5" d="M292.95313 480.46875l.51562 1.11328"/></g><g clip-path="url(#B)"><path fill="none" stroke="#000" stroke-linecap="round" stroke-linejoin="round" stroke-miterlimit="10" stroke-width=".5" d="M307.15625 481.3086l-6.75-1.96094"/></g><g clip-path="url(#C)"><path fill="none" stroke="#000" stroke-linecap="round" stroke-linejoin="round" stroke-miterlimit="10" stroke-width=".5" d="M306.17188 481.02344l.25 1.20312"/></g><g clip-path="url(#D)"><path fill="none" stroke="#000" stroke-linecap="round" stroke-linejoin="round" stroke-miterlimit="10" stroke-width=".5" d="M320.46094 481.34766l-6.72656-2.03516"/></g><g clip-path="url(#E)"><path fill="none" stroke="#000" stroke-linecap="round" stroke-linejoin="round" stroke-miterlimit="10" stroke-width=".5" d="M319.48047 481.05078l.23828 1.20313"/></g><g clip-path="url(#F)"><path fill="none" stroke="#000" stroke-linecap="round" stroke-linejoin="round" stroke-miterlimit="10" stroke-width=".5" d="M333.53516 481.9336l-6.25-3.21094"/></g><g clip-path="url(#G)"><path fill="none" stroke="#000" stroke-linecap="round" stroke-linejoin="round" stroke-miterlimit="10" stroke-width=".5" d="M346.66406 482.25781l-5.875-3.85547"/></g><g clip-path="url(#H)"><path fill="none" stroke="#000" stroke-linecap="round" stroke-linejoin="round" stroke-miterlimit="10" stroke-width=".5" d="M360.11719 482.02734l-6.15235-3.39453"/></g><g clip-path="url(#I)"><path fill="none" stroke="#000" stroke-linecap="round" stroke-linejoin="round" stroke-miterlimit="10" stroke-width=".5" d="M373.71875 481.33984l-6.72656-2.02343"/></g><g clip-path="url(#J)"><path fill="none" stroke="#000" stroke-linecap="round" stroke-linejoin="round" stroke-miterlimit="10" stroke-width=".5" d="M372.74219 481.04688l.23828 1.20312"/></g><g clip-path="url(#K)"><path fill="none" stroke="#000" stroke-linecap="round" stroke-linejoin="round" stroke-miterlimit="10" stroke-width=".5" d="M387.17188 480.04688l-7.00391.5664"/></g><g clip-path="url(#L)"><path fill="none" stroke="#000" stroke-linecap="round" stroke-linejoin="round" stroke-miterlimit="10" stroke-width=".5" d="M386.15234 480.1289l.66407 1.03126"/></g><g clip-path="url(#M)"><path fill="none" stroke="#000" stroke-linecap="round" stroke-linejoin="round" stroke-miterlimit="10" stroke-width=".5" d="M400.5 480.23047l-7.02734.19922"/></g><g clip-path="url(#N)"><path fill="none" stroke="#000" stroke-linecap="round" stroke-linejoin="round" stroke-miterlimit="10" stroke-width=".5" d="M399.47656 480.25781l.60547 1.0664"/></g><g clip-path="url(#O)"><path fill="none" stroke="#000" stroke-linecap="round" stroke-linejoin="round" stroke-miterlimit="10" stroke-width=".5" d="M413.6836 479.3711l-6.76173 1.91406"/></g><g clip-path="url(#P)"><path fill="none" stroke="#000" stroke-linecap="round" stroke-linejoin="round" stroke-miterlimit="10" stroke-width=".5" d="M413.6836 479.3711l1.6953 1.76952"/></g><g clip-path="url(#Q)"><path fill="none" stroke="#000" stroke-linecap="round" stroke-linejoin="round" stroke-miterlimit="10" stroke-width=".5" d="M412.69922 479.64844l.84765.88672"/></g><g clip-path="url(#R)"><path fill="none" stroke="#000" stroke-linecap="round" stroke-linejoin="round" stroke-miterlimit="10" stroke-width=".5" d="M426.69922 478.64453l-6.16797 3.36719"/></g><g clip-path="url(#S)"><path fill="none" stroke="#000" stroke-linecap="round" stroke-linejoin="round" stroke-miterlimit="10" stroke-width=".5" d="M426.69922 478.64453l2.05078 1.35156"/></g><g clip-path="url(#T)"><path fill="none" stroke="#000" stroke-linecap="round" stroke-linejoin="round" stroke-miterlimit="10" stroke-width=".5" d="M425.80469 479.13672l2.04687 1.34765"/></g><g clip-path="url(#U)"><path fill="none" stroke="#000" stroke-linecap="round" stroke-linejoin="round" stroke-miterlimit="10" stroke-width=".5" d="M424.90625 479.625l1.02344.67578"/></g><g clip-path="url(#V)"><path fill="none" stroke="#000" stroke-linecap="round" stroke-linejoin="round" stroke-miterlimit="10" stroke-width=".5" d="M439.7461 478.22266l-5.62891 4.21093"/></g><path fill="none" stroke="#000" stroke-linecap="round" stroke-linejoin="round" stroke-miterlimit="10" stroke-width=".5" d="M439.7461 478.22266l2.21874 1.04687"/><g clip-path="url(#W)"><path fill="none" stroke="#000" stroke-linecap="round" stroke-linejoin="round" stroke-miterlimit="10" stroke-width=".5" d="M438.92578 478.83594l2.21875 1.04687"/></g><g clip-path="url(#X)"><path fill="none" stroke="#000" stroke-linecap="round" stroke-linejoin="round" stroke-miterlimit="10" stroke-width=".5" d="M453.22656 478.46875l-5.96094 3.71875"/></g><path fill="none" stroke="#000" stroke-linecap="round" stroke-linejoin="round" stroke-miterlimit="10" stroke-width=".5" d="M453.22656 478.46875l2.125 1.23047"/><g clip-path="url(#Y)"><path fill="none" stroke="#000" stroke-linecap="round" stroke-linejoin="round" stroke-miterlimit="10" stroke-width=".5" d="M466.3086 482.51563l-5.4961-4.375"/></g><g clip-path="url(#Z)"><path fill="none" stroke="#000" stroke-linecap="round" stroke-linejoin="round" stroke-miterlimit="10" stroke-width=".5" d="M146.8789 464.9961l-5.7578 4.03515"/></g><path fill="none" stroke="#000" stroke-linecap="round" stroke-linejoin="round" stroke-miterlimit="10" stroke-width=".5" d="M146.03906 465.58594l1.09375.55469m13.35547-.63672l-6.34375 3.01953m5.41797-2.58203l.98828.73047m13.34375-.95704l-6.52734 2.59766m5.57812-2.21875l.9336.79297m13.33203-1.17188l-6.53125 2.59766m5.58203-2.21875l.9336.79297m13.28905-1.27344l-6.4453 2.80078m5.5078-2.39453l.95704.76563m13.36718-.98829l-6.58984 2.4336m5.63281-2.07813l.91406.81641m13.52735.61719l-6.92969-1.14453m5.92188.98046l.39062 1.16016m13.91406-.88281l-6.89062-1.3711m5.88672 1.17188L240 468.67578m13.70313-.17578l-6.3672-2.97266m5.44141 2.54297l.0625 1.22266m14.4961-1.97656l-7-.60547m5.98047.51953l.48047 1.1289m13.86328-1.19921l-7.01953-.29297m6 .25l.53125 1.10547m13.80468-1.3672l-7.01953.31641m5.9961-.26953l.625 1.0586m13.12109 1.00781l-5.83985-3.91016m4.9922 3.33985l-.125 1.22265m14.42187-.86718l-6.10547-3.48047m5.21875 2.97265l-.03906 1.22657m14.70312-2.45704h-7.02734m6.0039 0l.57422 1.08204m13.73828-1.50391l-6.97656.83984m5.96094-.71484l.69922 1.0039M360.5 466.39454l-6.91797 1.23828m20.28516-.78125l-7.01953.32422m5.99609-.27734l.625 1.05468m13.67188-.3828l-6.9375-1.11329m5.92968.94922l.39453 1.16406m12.47657 1.32031l-4.03516-5.7539m3.44922 4.91797l-.5586 1.09375m14.1797-.08203l-3.47657-6.10547m2.97266 5.21875l-.65625 1.03515m15.55468-1.10156l-5.6328-4.19922m4.8125 3.58985l-.1875 1.21093m14.5664-.97656l-6.1211-3.44922m5.23047 2.94922l-.03125 1.22656m14.5625-1.51953l-6.77344-1.86328m5.78907 1.59375l.26953 1.19531m12.9961.75391l-4.70313-5.22266m4.70312 5.22266l-.83984 2.30469"/><g clip-path="url(#aa)"><path fill="none" stroke="#000" stroke-linecap="round" stroke-linejoin="round" stroke-miterlimit="10" stroke-width=".5" d="M147.3125 452.52734l-6.625 2.34375"/></g><path fill="none" stroke="#000" stroke-linecap="round" stroke-linejoin="round" stroke-miterlimit="10" stroke-width=".5" d="M146.34766 452.86719l.90625.82812m13.55859-.3125l-6.9961.63281m5.98048-.54296l.67187 1.02734m13.67188-.91016l-7.02344.21875m6.0039-.1875l.60938 1.06641m13.72656-.89453l-7.02344-.1914m6 .16405l.54688 1.10157m13.78125-1.4375l-7.0039.53906m5.98437-.46094l.66015 1.03516m13.64063-1.41797l-6.9336 1.14844m6.9336-1.14844l1.48828 1.94922m11.84766-1.77735l-6.98047.8047m5.96484-.6875l.69922 1.0078m13.65625-.61328l-7.02344-.22265m6 .1914l.54297 1.10157m13.79688-1.23438l-7.02735.10938m6.0039-.09375l.59376 1.07421m13.72656-.6875l-6.99219-.69921m5.97266.59765l.46875 1.13672m13.8789-1.50781l-7.01952.25m6-.21484l.61328 1.0625m13.52734-2.13672l-6.6289 2.32812m5.66406-1.98828l.90234.82813m13.41016-1.07422l-6.69532 2.13672m5.71875-1.82422l.87891.85547m13.04297 1.76562l-5.95703-3.72656m5.08984 3.1836l-.08594 1.22655m14.80078-2.63671l-7.02343.17968m7.02343-.17969l1.21094 2.13282m11.92969-3.14063l-6.67578 2.19531m5.70703-1.875l.88281.84766m13.5039-.78906l-6.8789 1.4375m5.8789-1.23047l.78516.9414m10.88282 2.9922l-1.58594-6.84376m16.17187 6.26563l-4.1289-5.6875m3.53125 4.85937l-.53906 1.10157m14.13671-.07032l-3.49609-6.09375m2.98828 5.20704l-.65234 1.03906m12.30469.28906l.84765-6.97656M410 456.17188l-1.14453.4414m12.53515-.19922l4.45313-5.4336m-3.80469 4.64454l-1.20312-.24219m13.7461.92969l4.69921-5.22656m-4.01563 4.46484l-1.1914-.29687m14.03515 1.23437l4.27344-5.57812m-3.64844 4.76562l-1.21093-.19922m18.54297.6875l-5.00782-4.92968m4.27735 4.21093l-.34766 1.17578"/><g clip-path="url(#ab)"><path fill="none" stroke="#000" stroke-linecap="round" stroke-linejoin="round" stroke-miterlimit="10" stroke-width=".5" d="M147.42188 441.1836l-6.84375-1.60157"/></g><path fill="none" stroke="#000" stroke-linecap="round" stroke-linejoin="round" stroke-miterlimit="10" stroke-width=".5" d="M146.42578 440.95313l.3125 1.18359m14.07813-1.4375l-7-.6289m5.98047.53515l.47656 1.13281m13.86328-1.58594l-7.01172.46094m5.99219-.39062l.64453 1.04296m13.6836-1.17187l-7 .58203m5.98437-.5l.66015 1.03125m13.65625-.3789l-6.97265-.88672m5.95703.7578l.4336 1.14454m13.75-.36328l-6.67579-2.1914m5.70313 1.87109l.21093 1.21093m14.25-2.1328l-7.02343.28905m6-.24609l.62109 1.0586m13.6836-1.45313l-6.95704.99219m5.94531-.84766l.72266.99219m13.48438.39843l-6.71485-2.07812m5.73438 1.77734l.23047 1.20313m13.89062-.45313l-6.36719-2.97265m5.44141 2.53906l.0625 1.22656m13.96484-.40234l-5.9375-3.75781m5.07032 3.21093l-.08985 1.22266m14.79297-2.95703l-6.98047.80469m5.96485-.6875l.6953 1.01171m13.34376-2.17968l-6.39844 2.90625m5.46484-2.48438l.97266.75m13.41406 1.375l-6.67578-2.1836m5.70703 1.86329l.21094 1.21094m14.00781-.70313l-6.54297-2.5625m5.58985 2.1914l.14062 1.21876m14.36328-1.9414l-7.01562-.3711m5.9961.3164l.51562 1.10938m10.44531 2.26953l-.26953-7.02344m13.09766 7.00782l.70703-6.9922m16.45703 3.82423l-6.9961-.65235m17.41407 3.78516l-1.19922-6.92188m1.02344 5.91797l-.96875.75m12.84375.15625l2.03125-6.72656m-1.73438 5.75l-1.20703.23828m12.97266.0586l4.53906-5.3672m-4.53906 5.3672l-2.39844-.51954m15.88672.65625l4.1914-5.64062m-4.1914 5.64062l-2.42578-.36718m15.36328.04297l4.94531-4.9922m-4.22656 4.26563l-1.17578-.35156m18.0078 1.6211l-3.52343-6.07813m3.01172 5.19531l-.64844 1.04297"/><g clip-path="url(#ac)"><path fill="none" stroke="#000" stroke-linecap="round" stroke-linejoin="round" stroke-miterlimit="10" stroke-width=".5" d="M147.28125 428.32422l-6.5625-2.51172"/></g><path fill="none" stroke="#000" stroke-linecap="round" stroke-linejoin="round" stroke-miterlimit="10" stroke-width=".5" d="M146.32813 427.95703l.14843 1.21875m14.33203-1.7461l-6.98828-.72265m5.97266.61719l.46094 1.13672m13.86718-1.78125l-6.98437.77734m20.03125-1.78906l-6.44531 2.80078m18.74218-4.13672l-4.41015 5.47266m15.40625.77734l.23047-7.02344m13.01172 7.01954l.375-7.01954m11.67968 6.71094l2.89453-6.40234m12.35547 6.67968l-.97656-6.95703m.83594 5.94532l-.99219.72265m14.29688.3086l-.67188-6.9961m.57422 5.97656l-1.02344.6797m13.17578.23046l1.84766-6.77734m-1.57813 5.79297l-1.19922.26953m18.125-.77344l-5.91015-3.80078m19.6289 2.92187l-6.72265-2.04297m5.7461 1.7461l.23437 1.20312m14.1289-1.16797l-6.86328-1.51953m5.86328 1.30078l.32813 1.1797m13.36328.39062l-5.61719-4.22266m4.80078 3.60938l-.1914 1.21093m9.23047-.04296l4.5703-5.33204m9.2422 5.69141l3.57421-6.05078m-3.05468 5.17187l-1.22266-.05468m13.08203.125l5.44922-4.4336m-4.65625 3.78906l-1.13281-.47656m14.26953-3.90625l4.21875 5.6211m-3.60547-4.8047l.52344-1.10937m17.08594.98047l-5.59766 4.2461m4.78516-3.62891l1.11328.51562m6.70703 1.20704l7.01562-.4336m-5.99218.3711l-.64454-1.04688m16.53516-2.6211l-.1836 7.02735m10.3711-1.7461l6.07422-3.53124m-5.1914 3.01562l-1.04298-.64844m14.79297 2.46094l3.4375-6.1289m-3.4375 6.1289l-2.45312-.0586m17.44531.50782l.08594-7.02734m-.07422 6.0039l-1.08984.5625"/><g clip-path="url(#ad)"><path fill="none" stroke="#000" stroke-linecap="round" stroke-linejoin="round" stroke-miterlimit="10" stroke-width=".5" d="M147.51172 413.85547l-7.02344-.20313"/></g><path fill="none" stroke="#000" stroke-linecap="round" stroke-linejoin="round" stroke-miterlimit="10" stroke-width=".5" d="M146.48828 413.82422l.54688 1.10156m13.71484-1.91797L153.88281 414.5m5.86719-1.27734l.79297.9375m13.59375-.65235l-7.01172.48828m5.99219-.41406l.64844 1.03906m13.6875-1.04297l-7.01563.34766m5.9961-.29687l.6289 1.05468m11.17969-4.30468l-1.96485 6.74609m10.875-2.57031l6.84375-1.60156m-5.84765 1.36718l-.80469-.92187m13.1875 1.38672l6.71875-2.06641m-5.74219 1.76563l-.86719-.86329m14.14063 2.67578l4.85156-5.08593m-4.14844 4.34375l-1.17968-.33203M252 416.9414l-2.96094-6.375m2.53125 5.4453l-.74219.98048m13.27344.26562l-.53515-7.00781m.53515 7.00781l-2.07031 1.3125m13.9375-1.50781l2.36328-6.61719m-2.01953 5.65235l-1.21484.17968m16.45703.81641l-2.17969-6.67969m1.86328 5.70703l-.85156.88282m16.90625-3.35938l-7.02344.21484m6-.18359l.60938 1.0664m10.60547 2.50391l-.77735-6.98437m10.72656 5.35937l5.95313-3.73437m6.85156 1.42969l6.97266.87109m6.75 1.26172l6.16015-3.39063m-5.26171 2.89454l-1.02735-.67188m13.16406.5l6.71875-2.05469m-5.74218 1.75782l-.8672-.8672m13.2422-1.0078l6.64453 2.28906m-5.67578-1.95703l-.19141-1.21094m12.58203.76172l6.5586 2.52344m-5.60547-2.15625l-.14844-1.21875m14.03906-.9336l3.5039 6.09375m-2.99609-5.20703l.65235-1.03906m15.21094-.0625l-2.60938 6.52344m2.23047-5.57422l1.21875-.13282m12.65234-.74218l-2.96484 6.37109m2.53125-5.4414l1.22656-.06641m10.14453 5.72265l1.78907-6.79687m-1.52735 5.8086l-1.19531.27734m17.76953-.35157l-5.25-4.67187m4.48438 3.99219l-.28907 1.1914"/><g clip-path="url(#ae)"><path fill="none" stroke="#000" stroke-linecap="round" stroke-linejoin="round" stroke-miterlimit="10" stroke-width=".5" d="M147.48828 400.02734l-6.97656.82032"/></g><path fill="none" stroke="#000" stroke-linecap="round" stroke-linejoin="round" stroke-miterlimit="10" stroke-width=".5" d="M146.47266 400.14844l.69922 1.00781m13.64843-.9375l-7.01172.4414m5.9922-.3789l.64452 1.04688m13.46485-2.14454l-6.5625 2.50782m5.60937-2.14454l.92578.8086m10.08985-3.42969l-.0547 7.02735m.04688-6.00391l1.08594-.57031m10.15234.21093l4.11329 5.69532m-3.51563-4.8672l.54297-1.10155m11.23438 1.29296l5.99609 3.66016m-5.125-3.1289l.07422-1.22657m11.8789 2.94531l6.97657-.83984m-6.97657.83985L219 398.84375m14.82422.63672l6.76172 1.91797m-5.77735-1.64063l-.2578-1.19922m13.16796 3.9961l5.60547-4.23438m-4.79297 3.6211l-1.10938-.51954m15.73829 2.46485l1.35156-6.89453m-1.15625 5.89062l-1.17188.35547m13.07032.16016l3.79297-5.91797m-3.23829 5.05469l-1.22265-.09766m13.5586.64063l4.64062-5.27735m-3.96485 4.50781l-1.1914-.28125m13.5039.71875l5.29688-4.61718m-4.52735 3.9453l-1.14453-.4375m12.82813-1.01171l7.01953-.3711m-5.9961.31641l-.6328-1.05078m13.23827 2.3789l6.39063-2.91796m7.5664-.95313l5.10938 4.82032m-4.36719-4.1172l.32422-1.18358m11.65625 1.32812L360.1875 402m-5.3789-2.66797l-.03126-1.22656m12.64063 4.26172l5.875-3.85547m-5.01953 3.29297l-1.07422-.58985m19.82812.26172l-6.71093-2.07812m13.72656-.875l5.88672 3.83203m9.99218 1.57422l.76172-6.98438m15.4375 1.02735l-5.0078 4.92968m4.27733-4.21093l1.17188.36718m13.3125-.53515l-5.89063 3.83203m5.89063-3.83203l2.14844 1.1875m10.9375 2.95703l-5.42969-4.46094m4.64062 3.8125l-.24218 1.20313m14.26953-.46485l-5.27735-4.64062m5.27735 4.64062l-.5625 2.38672"/><g clip-path="url(#af)"><path fill="none" stroke="#000" stroke-linecap="round" stroke-linejoin="round" stroke-miterlimit="10" stroke-width=".5" d="M147.0625 385.40234l-6.125 3.44141"/></g><path fill="none" stroke="#000" stroke-linecap="round" stroke-linejoin="round" stroke-miterlimit="10" stroke-width=".5" d="M160.82422 387.28125l-7.01953-.3164m17.23437-3.33204l-.8164 6.98047m.69922-5.96484l1.14062-.44531m11.64844-.58594l.46875 7.01172m-.39844-5.9922l1.03906-.64452m10.80469.02344l3.27344 6.21875m-3.27344-6.21875l1.3789-2.03125m12.67579 1.74218l1.78906 6.79297m-1.52734-5.80469l.90234-.83203m9.53516 3.14063l7.02343.19922m-6.0039-.17188l-.54297-1.09765m12.9961 2.21093l6.71093-2.08203m-5.73438 1.78125l-.87109-.86719m13.45703-1.51562l6.21094 3.28515m6.90234-.46484l6.6172-2.35547m-5.65626 2.01563l-.90625-.82813m13.32422 1.33985l6.48828-2.69532m-6.48828 2.69532l-1.89453-1.5586m15.05469 1.09766l6.79687-1.77735m-6.79687 1.77735l-1.66407-1.80469m15.35547 2.70313l6.04688-3.57422m-6.04688 3.57422l-2.09765-1.27735m15.09375.57813l6.68359-2.17578m-5.71094 1.85937l-.88281-.85156m20.07422-.13281l-7.01563.42578m20.02735 1.22656l-6.41016-2.8789m6.41016 2.8789l.16406 2.44922m11.35547-.66797l-2.8164-6.4414m2.40624 5.5039l-.76172.96094m15.69532-.89844l-5.23438-4.6914m4.47266 4.0078l-.29297 1.19141m15.20312-3.52734l-6.89843 1.35156m5.89453-1.15625l.77343.95313m13.01954-2.42188l-5.84766 3.89453m4.9961-3.32812l1.08202.58203m13.51563-.25l-6.70703 2.09765m5.73047-1.79296l.8711.86328m12.72265-2.42188l-5.3125 4.60547m4.53906-3.9336l1.14453.44141m13.05078-.98046l-5.52734 4.33984m5.52734-4.33985l2.24219.9922m11.61328 2.37109l-6.60937-2.38672m5.64843 2.03906l.17188 1.21484m13.38281.32422l-5.16406-4.76953m5.16406 4.76953l-.625 2.3711"/><g clip-path="url(#ag)"><path fill="none" stroke="#000" stroke-linecap="round" stroke-linejoin="round" stroke-miterlimit="10" stroke-width=".5" d="M147.23047 372.42969l-6.46094 2.75781"/></g><path fill="none" stroke="#000" stroke-linecap="round" stroke-linejoin="round" stroke-miterlimit="10" stroke-width=".5" d="M146.29297 372.83203l.95312.76953m13.2422-1.29687l-6.34767 3.00781m5.42579-2.57031l.98437.73047m12.625-2.08594l-5.08984 4.84375m4.34765-4.14063l1.16407.38672m11.32422-2.04297l-1.95313 6.75m1.95313-6.75l2.40234-.5039m13.09766 2.34375l-6.32032 3.07031m6.32031-3.07031l1.98047 1.4414m11.64063.65625l-6.9375-1.125m6.9375 1.125l.79297 2.32032m-1.80078-2.48438l.78906 2.32031m13.44531-1.75l-6.75781-1.9375m6.75781 1.9375l.50781 2.39844m-1.49218-2.67969l.2539 1.19922m13.86719-.4414l-6.40234-2.89454m6.40234 2.89454l.15625 2.44921m13.45703-3.58203l-7-.625m5.98047.53516l.48047 1.1289m13.41406-3.07812l-6.11719 3.45313m6.1172-3.45313l2.0703 1.32031m11.375-1.0664l-6.3789 2.94531m5.45312-2.51563l.97657.73829m6.76562 1.48437l6.61719-2.36328m-5.65235 2.01953l-.90625-.82422m13.3672 1.44531l6.39843-2.91406m-6.39844 2.91406l-1.94531-1.49609m15.875 2.42188l5.16797-4.76563m-5.16797 4.76563l-2.3164-.8125m21.33984.03515l-6.25-3.21094m5.33984 2.7422l.01953 1.23046m13.79688-.13672l-5.4297-4.46094m5.4297 4.46094l-.48438 2.40625m14.125-2.875L354 372.04687m6.08203 3.52344l-.08984 2.44922m13.67969-3.04687l-6.63282-2.32813m6.63282 2.32813l.37109 2.42187m12.90234-4.85547l-6.55078 2.53906m5.59766-2.17187l.92969.80469m11.85937-2.92188l-3.58984 6.03906m3.0664-5.16015l1.22657.0586m12.82421-.80079l-4.01562 5.76563m3.42969-4.9297l1.21875.14845m12.85547-.85547l-4.35938 5.50781m3.72656-4.70703l1.20703.21875m12.79297-.98047l-4.46484 5.42969m4.46484-5.42969l2.40235.48438m12.1328 1.5703l-6.90233 1.32032m5.89843-1.1289l.76563.95702m12.19531 2.33204l-4.1914-5.64063m3.58203 4.82031l-.52344 1.10547"/><g clip-path="url(#ah)"><path fill="none" stroke="#000" stroke-linecap="round" stroke-linejoin="round" stroke-miterlimit="10" stroke-width=".5" d="M147.23438 359.125l-6.46875 2.73828"/></g><path fill="none" stroke="#000" stroke-linecap="round" stroke-linejoin="round" stroke-miterlimit="10" stroke-width=".5" d="M147.23438 359.125l1.90625 1.54688m11.47265-1.38672l-6.59766 2.41796m5.64063-2.0664l.91016.82031m13.5703-.20703l-7.01171.48828m20.29688.2539l-6.95313-1m6.95313 1l.83203 2.3086m12.5078-2.52344l-7.0039-.5703m7.0039.5703l.97267 2.25391m-1.9922-2.33594l.97266 2.2539m13.375-2.41015l-7.02734-.09375m7.02734.09375l1.1211 2.17969m-2.14453-2.1914l.5625 1.08984m13.75-1.54688l-6.97657.84766m6.97657-.84766l1.40234 2.01172m11.9375-1.53906l-7.02734-.10156m6.0039.08593l.5625 1.09375m13.42969-2.64453l-6.33594 3.03516m5.41406-2.59375l.98829.72656m11.09375-3.01562l-2.02735 6.72656m1.73438-5.7461l1.20312-.24218m12.11328-.8125l-1.4414 6.8789m1.4414-6.8789l2.35547-.6836m10.97266.6875l-1.46875 6.8711m1.46875-6.8711l2.35937-.67578m11.50782 7.3789l-2.57032-6.53905m2.19532 5.58984l-.79688.92969m14.0586.15625l-1.71485-6.8125m1.71485 6.8125l-1.82032 1.64844m16.05078-2.01954l-3.54687-6.0664m3.03125 5.1836l-.64453 1.04296m14.09765.03125l-2.79296-6.44922m2.38671 5.50781l-.76171.96094m16.23437-1.67969l-6.29297-3.1289m5.3789 2.67187l.03126 1.22656m14.5-1.65234l-6.89453-1.36328m5.89062 1.16406l.35547 1.17578m12.14844-4.76953l-3.26563 6.22266m2.78907-5.32031l1.22656-.00391m12.71875-.8125l-3.57422 6.05078m3.05469-5.17187l1.22656.05468m11.77734-1.28906l-1.91406 6.76172m1.63672-5.77734l1.19922-.26172m12.39844-.72266l-1.92579 6.75781m1.64844-5.77343l1.19922-.25782m12.51563-.6875l-2.16797 6.6836m1.85156-5.71094l1.20703-.21484m12.7461-.63672l-2.8125 6.4414m2.40234-5.5039l1.22265-.09375m14.47266 1.40625l-6.7539 1.9414"/><g clip-path="url(#ai)"><path fill="none" stroke="#000" stroke-linecap="round" stroke-linejoin="round" stroke-miterlimit="10" stroke-width=".5" d="M147.27734 345.91016l-6.55468 2.53515"/></g><path fill="none" stroke="#000" stroke-linecap="round" stroke-linejoin="round" stroke-miterlimit="10" stroke-width=".5" d="M147.27734 345.91016l1.85547 1.60546m-2.8086-1.23437l.92579.80078m13.53125-.47265l-6.9336 1.13671m6.9336-1.13671l1.48828 1.94921m11.76563-.51171l-6.8086-1.73829m6.8086 1.73829l.57812 2.38671m-1.57031-2.63671l.28906 1.1914m14.10547-2.17969l-6.98438.73829m6.98438-.73829l1.375 2.03125m11.9336-2.11328l-6.96876.90235m6.96875-.90235l1.41797 2m-2.4336-1.86719l.71095 1m13.59375-1.29296l-6.92188 1.22265m6.92188-1.22265l1.51172 1.93359m11.33593-3.16016l-5.98437 3.6797m5.98437-3.6797L229 346.58204m10.65234-1.92579l-4.89453 5.04297m4.1836-4.3086l1.17968.33985m9.63282-1.98047l1.53125 6.85547m-1.3086-5.85938l.9336-.79687m12.33203-.23438l1.1875 6.92579m-1.1875-6.92579l1.9414-1.5m10.72266 1.6797l2.48828 6.5703m-2.48828-6.5703l1.61719-1.84767m11.22656 2.06641l3.4336 6.1289m-2.9336-5.23827l.66406-1.03125m11.89844 6.11718l3.9336-5.82421m12.24218 6.3125l-1.78515-6.79688m1.78515 6.79688l-1.80469 1.66406m16.46485-2.35547l-4.47266-5.41797m3.82031 4.63281l-.46875 1.13281m15.10547-1.08203l-5.8125-3.94921m4.96485 3.375l-.13282 1.21875m14.52344-1.03125l-6.26953-3.17188m5.35938 2.70703l.02343 1.22656m13.9375-.3203l-5.73828-4.0586m4.90235 3.46875l-.15625 1.21484m14.69921-3.95703l-6.52343 2.60938m5.57421-2.23047l.9375.78906m11.12891-3.21485l-2.1289 6.69922m1.8203-5.72265l1.20313-.22266m11.375-.91797l-.03906 7.02735m.03516-6.00391l1.08593-.57031m11.64063-.40625l1.14844 6.9336m-1.14844-6.9336l1.94922-1.48828m11.5664 1.46093l.7461 6.98829m-.63672-5.97266l1.01562-.6875m13.4922-.22266l-1.85938 6.77735m1.58984-5.78907l1.19531-.26953m10.44531-.69531l2.02735 6.73047m-1.73047-5.75l.8711-.86328"/><g clip-path="url(#aj)"><path fill="none" stroke="#000" stroke-linecap="round" stroke-linejoin="round" stroke-miterlimit="10" stroke-width=".5" d="M147.28516 332.61328l-6.57032 2.5"/></g><path fill="none" stroke="#000" stroke-linecap="round" stroke-linejoin="round" stroke-miterlimit="10" stroke-width=".5" d="M147.28516 332.61328l1.84765 1.61328m-2.80469-1.25l.92188.8086m13.3164-1.25391l-6.5039 2.66406m6.5039-2.66406l1.88673 1.57031m-2.83204-1.1836l.94141.78517m13.32031-1.16797l-6.50781 2.65234m6.50781-2.65234l1.88672 1.57421m11.2539-1.9375l-6.15624 3.38282m5.26172-2.89063l1.02734.67188m10.39063-2.97266l-.57422 7m.49218-5.98437l1.125-.48438m13.1211-.35547l-2.27344 6.64844m2.27344-6.64844l2.42187-.39062m11.00781.42969l-2.5 6.5703m2.5-6.5703l2.4336-.3047m10.88672.3086l-2.51172 6.5625m2.51172-6.5625l2.4336-.30469m8.92577.14454l1.40235 6.8828m-1.19922-5.8828l.94531-.78125m10.57031.5625l4.59375 5.3203m-4.59375-5.3203l.88672-2.28516m11.33985 4l6.76953 1.88672M274.75 333.1953l-.26172-1.19922m13.90235 4.69922l4.15234-5.66797m-3.55078 4.84375l-1.21485-.17578m16.76563 1.59766l-1.52344-6.85938m1.30078 5.85938l-.92969.80078m14.62891.16016l-1.84766-6.78125m1.57813 5.79296l-.89063.83985m16.1836-.91406l-5.26563-4.65625m4.5 3.97656l-.28515 1.19531m14.76953-1.07422l-6.07031-3.53906m5.1875 3.02344l-.05079 1.22656m14.46875-1.15625l-6.51171-2.64844m5.5625 2.26172l.125 1.22266m14.33984-1.52735l-6.91406-1.26562m20.20312-.125l-6.86328 1.51562m5.86719-1.29296l.79297.93359m13.39062-1.59375l-6.60547 2.39062m5.64453-2.04296l.91016.82421m11.36328-3.24218l-2.59765 6.53125m2.21875-5.58204l1.21875-.1328m10.1875-.92188l1.97265 6.74219m-1.97265-6.7422l1.7578-1.71484m10.07032 2.58985l4.94922 4.99219m-4.23047-4.26563l.36328-1.17188m16.5625-.04296l-3.70703 5.96875m3.16797-5.10157l1.22266.08204m11.55859-1.39063l-1.5625 6.85156m1.33203-5.85547l1.1875-.3203"/><g clip-path="url(#ak)"><path fill="none" stroke="#000" stroke-linecap="round" stroke-linejoin="round" stroke-miterlimit="10" stroke-width=".5" d="M146.16797 317.78516l-4.33594 5.52734"/></g><path fill="none" stroke="#000" stroke-linecap="round" stroke-linejoin="round" stroke-miterlimit="10" stroke-width=".5" d="M146.16797 317.78516l2.41797.42968m-3.04688.375l1.20703.21485m12.01172-1.46094L155.8711 323.75m2.88672-6.40625l2.44922-.16016m-2.8711 1.09375l1.22657-.08203m12.57422-.82031l-3.01563 6.34766m3.01563-6.34766l2.45312-.10938m10.91016.13282l-3.10938 6.30078m3.10938-6.30078l2.45313-.07422m10.14843-.1875l-1.6836 6.82422m1.44142-5.83203l1.1875-.30079m10.5664-.66015l1.92578 6.75781m-1.64453-5.77344l.88281-.85156m12.03125-.09765l2.16407 6.6875m-2.16407-6.6875l1.70703-1.76172m10.625 2.26562l4.12891 5.6836m-4.1289-5.6836l1.07421-2.20703m10.79297 4.94922l7.02344.19922m-6-.17188l-.54688-1.09765m12.87891 1.6953l6.94531-1.05468m-5.9375.90235l-.73046-.98438m14.66406 3.59766l3.6914-5.97657m-3.15625 5.10938l-1.22265-.07813m15.71875 1.46875l.26172-7.02343m-.22657 6.0039l-1.10156.53516m15.14063.42969l-1.25782-6.91407M304.22656 323l-.96094.75781m12.83204.16016l1.99609-6.73828m-1.70313 5.75781l-1.20312.2461m15.17578.8789l.09766-7.02734m-.08594 6.0039l-1.08984.5625m15.75.20703l-2.6172-6.51953m2.23438 5.57031l-.78906.9375m13.57422.2422l-.79297-6.98048m.67969 5.96485l-1.01172.69531m10.71484-2.04688l6.65625-2.25m-5.6875 1.92188l-.89062-.83984m19.48828 1.99218l-5.84766-3.89843m4.9961 3.33203l-.1211 1.22265m14.77344-3.45312l-6.8164 1.69531m5.82421-1.44922l.82032.91406m12.27343-3.05468l-4.39062 5.48828m3.7539-4.6914l1.20313.22656m10.80078-1.78516l-.49219 7.01172m.4922-7.01172l2.23827-.9961m8.60547 7.21875l4.44922-5.4375m-3.80078 4.64844l-1.20313-.24219m19.40625-.51171l-6.62109-2.35157m6.6211 2.35157l.35937 2.42968m11.84375-6.34375l-4.39844 5.48047"/><g clip-path="url(#al)"><path fill="none" stroke="#000" stroke-linecap="round" stroke-linejoin="round" stroke-miterlimit="10" stroke-width=".5" d="M465.76172 317.8086l2.41015.45702"/></g><path fill="none" stroke="#000" stroke-linecap="round" stroke-linejoin="round" stroke-miterlimit="10" stroke-width=".5" d="M465.1211 318.60547l1.20702.23047"/><path fill="#00f" fill-rule="evenodd" d="M388.23828 432.14063h8.61719v-10.14454h-8.61719v10.14454"/><path fill="azure" fill-rule="evenodd" d="M390.07031 423.82813h.83594v2.82421h3.28516v-2.82421h.83203v6.48046h-.83203v-2.91796h-3.28516v2.91796h-.83594v-6.48046"/><path fill="#00f" fill-rule="evenodd" d="M219.58203 414.38672h8.61719v-10.14453h-8.61719v10.14453"/><path fill="azure" fill-rule="evenodd" d="M221.41406 406.07422h.83203v2.82422h3.28907v-2.82422h.83203v6.48047h-.83203v-2.91406h-3.28907v2.91406h-.83203v-6.48047"/><path fill="#00f" fill-rule="evenodd" d="M366.04688 401.07422h8.61718v-10.14844h-8.61719v10.14844"/><path fill="azure" fill-rule="evenodd" d="M367.8789 392.76172h.83594v2.82031H372v-2.82031h.83203v6.47656H372v-2.91406h-3.28516v2.91406h-.83593v-6.47656"/><path fill="#ff3030" fill-rule="evenodd" d="M446.63281 396.63281h7.6914v-10.14453h-7.6914v10.14453"/><path fill="azure" fill-rule="evenodd" d="M448.46484 388.32031h.83204v5.74219h3.1953v.73828h-4.02734v-6.48047"/><path fill="#ff3030" fill-rule="evenodd" d="M331.23438 392.19531h7.6914v-10.14453h-7.6914v10.14453"/><path fill="azure" fill-rule="evenodd" d="M333.0664 383.88281h.83594v5.73828h3.19141v.7422h-4.02734v-6.48048"/><path fill="#ff3030" fill-rule="evenodd" d="M331.23438 365.5664h7.6914v-10.14452h-7.6914v10.14453"/><path fill="azure" fill-rule="evenodd" d="M333.0664 357.2539h.83594v5.73829h3.19141v.74219h-4.02734v-6.48047"/><path fill="#ffffe0" fill-rule="evenodd" d="M349.22656 352.48438h22.17969v-10.19532h-22.17969v10.19531"/><path fill-rule="evenodd" d="M352.72266 344.125h.51171v6.29297h-.78906v-4.48828h-1.38672v-.5586l.5586-.0625.2539-.05468.22657-.08985.20703-.14062.17187-.21094.14063-.29297.10547-.39453m4.8164 0l.22656.01563.22266.05859.20703.08984.19531.11719.1836.15234.17187.17579.30079.41796.24609.4961.17969.54297.10937.58203.03906.58984-.03906.59375-.10937.58203-.1797.55469-.24608.5039-.30079.42579-.17187.17969-.1836.15234-.1953.125-.20704.09375-.22265.05469-.22657.01953-.23047-.01953-.21875-.0547-.20703-.09374-.19922-.125-.18359-.15235-.17188-.17968-.30078-.42578-.24218-.50391-.1797-.55469-.11327-.58203-.03516-.59375h.83203l.02735.5625.08203.50781.125.44141.16406.375.1914.30078.21094.22266.22266.13672.22656.04687.22656-.04687.22266-.13672.21094-.22266.1875-.30078.16406-.375.125-.4414.08203-.50782.03125-.5625-.03125-.5625-.08203-.5-.125-.4336-.16406-.36718-.1875-.29297-.21094-.21484-.22265-.1289-.22657-.04688-.22656.04687-.22266.1289-.21093.21485-.19141.29297-.16406.36719-.125.4336-.08203.5-.02735.5625h-.83203l.03516-.58985.11328-.58203.17969-.54297.24218-.4961.30079-.41796.17187-.17579.1836-.15234.19921-.11719.20703-.08984.21875-.0586.23047-.01562m4.95313 0l.22656.01563.21875.05859.21094.08984.19531.11719.1836.15234.17187.17579.30078.41796.24219.4961.1836.54297.10937.58203.03906.58984-.03906.59375-.10938.58203-.1836.55469-.24218.5039-.30078.42579-.17188.17969-.18359.15234-.19531.125-.21094.09375-.21875.05469-.22656.01953-.23047-.01953-.21875-.0547-.20703-.09374-.19922-.125-.1836-.15235-.17187-.17968-.30078-.42578-.24219-.50391-.17969-.55469-.11328-.58203-.03906-.59375h.83594l.02734.5625.08203.50781.125.44141.16406.375.19141.30078.21094.22266.22265.13672.22657.04687.22656-.04687.22266-.13672.21093-.22266.1875-.30078.16407-.375.125-.4414.08203-.50782.03125-.5625-.03125-.5625-.08203-.5-.125-.4336-.16407-.36718-.1875-.29297-.21093-.21484-.22266-.1289-.22656-.04688-.22656.04687-.22266.1289-.21094.21485-.1914.29297-.16407.36719-.125.4336-.08203.5-.02734.5625h-.83594l.03906-.58985.11328-.58203.1797-.54297.24218-.4961.30078-.41796.17188-.17579.18359-.15234.19922-.11719.20703-.08984.21875-.0586.23047-.01562m4.94922 0l.39062.02734.35547.08204.32422.13671.28125.1875.22656.23438.17578.28515.10938.33594.03515.375-.01953.27344-.0586.23438-.08593.20312-.11328.16797-.1289.14453-.14063.1211-.28516.19921.23047.11719.21094.14844.17969.17187.15234.1914.125.21485.08984.23047.0586.24219.01953.25781-.03516.3086-.10547.32421-.17187.32813-.23828.30469-.3086.26953-.37109.21484-.21484.08203-.22657.0586-.24609.03906-.25781.01172-.26172-.01172-.24219-.03906-.22265-.0586-.20704-.08203-.35546-.21484-.29297-.26953-.22266-.3047-.15625-.32812-.09375-.32421-.03125-.3086h.83594l.02734.25.07813.23828.12109.21094.16016.1836.1914.15234.22266.11719.23828.0703.2539.02735.25782-.02734.23828-.07031.22266-.1172.1914-.15234.16016-.18359.1211-.21094.07812-.23828.02734-.25-.02734-.2539-.07813-.23438-.1211-.21484-.16015-.1836-.1914-.15234-.22266-.11328-.23828-.07422-.25781-.02344-.25391.02344-.23828.07422-.22266.11328-.1914.15234-.16016.1836-.1211.21484-.07812.23438-.02734.2539h-.83594l.01953-.2539.0586-.2422.08984-.22265.1211-.20703.15624-.1914.17969-.17188.21094-.15235.23047-.1328-.28516-.19923-.14063-.12109-.1289-.14453-.11328-.16797-.08594-.20313-.0586-.23437-.01952-.27344h.78515l.02344.21485.0664.1914.10157.16797.14062.13672.16406.11328.1875.08203.20704.05078.21875.01563.22265-.01563.20703-.05078.1875-.08203.16407-.11328.13671-.13672.10547-.16797.06641-.1914.02344-.21485-.02344-.21484-.0664-.1914-.10548-.16407-.13671-.14063-.16407-.11328-.1875-.07812-.20703-.05078-.22265-.01953-.21875.01953-.20704.05078-.1875.07812-.16406.11329-.14062.14062-.10156.16406-.06641.1914-.02344.21485h-.78515l.03515-.375.10938-.33594.17578-.28515.22656-.23438.28125-.1875.32422-.13671.35547-.08204.38672-.02734"/><path fill="#ffffe0" fill-rule="evenodd" d="M181.96484 377.03125h22.1797v-10.1914h-22.1797v10.1914"/><path fill-rule="evenodd" d="M185.46094 368.67188h.51172v6.29687h-.78907v-4.49219h-1.38672v-.55469l.5586-.0625.2539-.05468.22657-.08985.20703-.14062.17187-.21094.14063-.29297.10547-.39844m4.8164 0l.22657.01954.21875.05468.21093.08985.19532.1211.18359.15233.17188.17579.30078.41796.24609.4922.17969.54687.10937.57812.03906.59375-.03906.59375-.10937.58203-.17969.5547-.2461.5039-.30077.42578-.17188.17969-.1836.15234-.1953.125-.21094.08984-.21875.0586-.22657.01953-.23047-.01953-.21875-.0586-.20703-.08984-.19922-.125-.18359-.15234-.17187-.1797-.30078-.42577-.2422-.5039-.17968-.5547-.11328-.58203-.03906-.59375h.83593l.02735.5625.08203.5039.125.44532.16406.375.1914.30078.21095.21875.22265.13672.22656.04688.22657-.04688.22265-.13672.21094-.21875.1875-.30078.16406-.375.125-.44531.08203-.5039.03125-.5625-.03125-.5625-.08203-.5-.125-.4336-.16406-.36719-.1875-.29297-.21094-.21484-.22265-.1289-.22657-.04688-.22656.04687-.22266.1289-.21093.21485-.1914.29297-.16407.36719-.125.4336-.08203.5-.02735.5625h-.83593l.03906-.59376.11328-.57812.17969-.54688.24219-.49219.30078-.41796.17187-.17579.1836-.15234.19921-.1211.20703-.08984.21875-.05468.23047-.01954m4.95313 0l.22656.01954.21875.05468.21094.08985.19531.1211.1836.15233.17187.17579.30078.41796.24219.4922.17969.54687.11328.57812.03906.59375-.03906.59375-.11328.58203-.1797.5547-.24218.5039-.30078.42578-.17188.17969-.18359.15234-.19531.125-.21094.08984-.21875.0586-.22656.01953-.23047-.01953-.21875-.0586-.20703-.08984-.19922-.125-.1836-.15234-.17187-.1797-.30078-.42577-.24219-.5039-.17969-.5547-.11328-.58203-.03906-.59375h.83594l.02734.5625.08203.5039.125.44532.16407.375.1914.30078.21094.21875.22266.13672.22656.04688.22656-.04688.22266-.13672.20703-.21875.1914-.30078.16407-.375.125-.44531.08203-.5039.02734-.5625-.02734-.5625-.08203-.5-.125-.4336-.16406-.36719-.19141-.29297-.20703-.21484-.22266-.1289-.22656-.04688-.22656.04687-.22266.1289-.21094.21485-.1914.29297-.16407.36719-.125.4336-.08203.5-.02734.5625h-.83594l.03906-.59376.11328-.57812.1797-.54688.24218-.49219.30078-.41796.17188-.17579.18359-.15234.19922-.1211.20703-.08984.21875-.05468.23047-.01954m4.94922 0l.39062.03125.35547.08204.32422.1328.28125.1875.22656.23829.17578.28516.10938.33203.03516.3789-.01954.27344-.05859.23438-.08594.20312-.11328.16797-.1289.14453-.14063.1211-.28516.19921.23047.1172.21094.14452.17969.17188.15234.19531.125.21484.08984.22657.0586.24609.01562.2539-.03125.3125-.10547.32423-.17187.32421-.23828.3086-.3086.26953-.37109.21484-.21484.07813-.22656.0625-.2461.03906-.25781.01172-.26172-.01172-.24219-.03906-.22265-.0625-.20703-.07813-.35938-.21484-.28906-.26953-.22266-.3086-.15625-.32421-.09375-.32422-.03125-.3125h.83594l.02734.2539.07422.23438.125.21484.16016.1836.1914.15234.22266.11328.23828.07422.2539.02344.25782-.02344.23828-.07422.22266-.11328.1914-.15235.16016-.18359.1211-.21484.07812-.23438.02734-.2539-.02734-.25-.07813-.23829-.12109-.21093-.16016-.1836-.1914-.15234-.22266-.11719-.23828-.07031-.25781-.02734-.2539.02734-.23829.07031-.22266.11719-.1914.15234-.16016.1836-.125.21094-.07422.23828-.02734.25h-.83594l.01953-.25391.0586-.23828.08984-.22266.1211-.21094.15624-.1875.1797-.17578.21093-.15234.23047-.1289-.28516-.19923-.14062-.12109-.12891-.14453-.11328-.16797-.08594-.20312-.0586-.23438-.01952-.27344h.78515l.02344.21485.0664.1914.10157.16407.13672.14062.16797.11328.1875.08203.20703.04688.21875.01953.22265-.01953.20703-.04688.1875-.08203.16407-.11328.13672-.14062.10547-.16407.0664-.1914.02344-.21485-.02344-.21484-.0664-.1914-.10547-.16798-.13672-.13671-.16406-.11329-.1875-.08203-.20704-.05078-.22265-.01562-.21875.01562-.20703.05078-.1875.08204-.16797.11328-.13672.13671-.10156.16797-.06641.19141-.02344.21484h-.78515l.03515-.3789.10938-.33203.17187-.28516.23047-.23828.28125-.1875.32422-.13281.35547-.08204.38672-.03125"/><path fill="#ffffe0" fill-rule="evenodd" d="M271.84375 414.6211h22.17969v-10.19532h-22.17969v10.19531"/><path fill-rule="evenodd" d="M275.34375 406.26172h.50781v6.29297h-.78515v-4.48828h-1.39063v-.5547l.5586-.0664.2539-.05469.23047-.08984.20313-.14062.17187-.21094.14453-.29297.10547-.39453m4.8125 0l.23047.01953.21875.05469.20703.08984.19531.1211.1836.14843.17187.17578.30469.41797.24219.4961.17968.54296.10938.58204.03906.58984-.03906.59375-.10938.58203-.17968.55469-.2422.5039-.30468.42579-.17187.17968-.1836.15625-.19531.1211-.20703.09375-.21875.05469-.23047.01953-.23047-.01954-.21875-.05468-.20703-.09375-.19531-.1211-.1836-.15625-.17187-.17968-.30469-.42579-.24219-.5039-.17968-.55469-.10938-.58203-.03906-.59375h.83203l.03125.5625.07813.50781.1289.4414.16016.375.1914.30079.21094.22266.22266.13671.22656.04688.22656-.04688.22266-.13671.21094-.22266.1914-.30078.16016-.375.1289-.4414.08204-.50782.02734-.5625-.02734-.5625-.08204-.5-.1289-.4336-.16016-.36718-.1914-.29297-.21094-.21094L280.3828 407l-.22656-.04688-.22656.04688-.22266.13281-.21094.21094-.1914.29297-.16016.36719-.1289.43359-.07813.5-.03125.5625h-.83203l.03906-.58984.10938-.58204.17968-.54296.2422-.4961.30468-.41797.17187-.17578.1836-.14844.19531-.12109.20703-.08984.21875-.05469.23047-.01953m4.95313 0l.23046.01953.21875.05469.20704.08984.1953.1211.1836.14843.17188.17578.30078.41797.2461.4961.17968.54296.10937.58204.03907.58984-.03907.59375-.10937.58203-.17969.55469-.2461.5039-.30077.42579-.17188.17968-.1836.15625-.1953.1211-.20704.09375-.21875.05469-.23046.01953-.23047-.01954-.21875-.05468-.20704-.09375-.1953-.1211-.1875-.15625-.16798-.17968-.30468-.42579-.2422-.5039-.17968-.55469-.11328-.58203-.03516-.59375h.83204l.02734.5625.08203.50781.1289.4414.16016.375.1914.30079.21095.22266.22265.13671.22656.04688.22657-.04688.22265-.13671.21094-.22266.1914-.30078.16016-.375.125-.4414.08204-.50782.03125-.5625-.03125-.5625-.08204-.5-.125-.4336-.16015-.36718-.1914-.29297-.21095-.21094-.22265-.13281-.22656-.04688-.22657.04688-.22265.13281-.21094.21094-.1914.29297-.16016.36719-.12891.43359-.08203.5-.02735.5625h-.83203l.03516-.58984.11328-.58204.17969-.54296.24219-.4961.30468-.41797.16797-.17578.1875-.14844.19531-.12109.20704-.08984.21875-.05469.23046-.01953m4.95313 0l.38672.02734.35937.08203.32032.13672.28125.1875.23046.23438.17188.28906.10938.33203.03906.375-.02344.27344-.05469.23828-.08984.19922-.11328.16797-.1289.14453-.13673.1211-.28906.19921.23438.11719.20703.14844.17968.17187.15625.1914.1211.21485.09375.23047.05469.24219.01953.25781-.03516.3086-.10547.32421-.17187.32813-.23829.30469-.30468.26953-.375.21484-.21094.08203-.23047.0586-.24219.03906-.26171.01172-.26172-.01172-.23829-.03906-.22656-.0586-.20312-.08203-.35938-.21484-.28906-.26954-.22266-.30468-.16015-.32813-.08985-.32422-.03125-.30859h.83204l.02734.25.07812.23828.1211.21094.16015.1836.19532.15234.21875.11718.23828.07032.25781.02734.2539-.02734.2422-.07032.21874-.11718.19141-.15235.16016-.1836.125-.21093.07812-.23828.02735-.25-.02735-.2539-.07812-.23438-.125-.21485-.16016-.18359-.1914-.15234-.21876-.11328-.24218-.07422-.25391-.02344-.25781.02344-.23828.07422-.21875.11328-.19532.15234-.16015.1836-.1211.21484-.07812.23437-.02735.25391h-.83203l.01954-.2539.05468-.2422.08985-.22265.125-.20703.15234-.1914.1836-.17188.20702-.15235.23047-.1328-.28515-.19923-.14063-.1211-.1289-.14452-.11329-.16797-.08593-.19922-.0586-.23828-.01953-.27344h.78516l.02344.21485.0664.1914.10547.16797.13672.13672.16406.11328.1875.08203.20703.05078.22266.01563.21875-.01563.20703-.05078.1875-.08203.16797-.11328.13672-.13672.10156-.16797.0664-.1914.02344-.21485-.02343-.21484-.0664-.1914-.10157-.16407-.13672-.14063-.16797-.11328-.1875-.07812-.20703-.05078-.21875-.01954-.22266.01954-.20703.05078-.1875.07812-.16406.11328-.13672.14063-.10547.16406-.0664.1914-.02344.21485h-.78516l.03906-.375.10938-.33203.17188-.28906.23046-.23438.27735-.1875.32422-.13672.35937-.08203.38672-.02734"/><path fill="#ffffe0" fill-rule="evenodd" d="M390.5664 416.10156h22.1797v-10.1914h-22.1797v10.1914"/><path fill-rule="evenodd" d="M394.0664 407.74219h.50782v6.29297h-.78516v-4.48829h-1.39062v-.55468l.5586-.0664.2539-.0547.23047-.08984.20312-.14063.17188-.21093.14453-.29297.10547-.39453m4.8125 0l.23046.01953.21875.05469.20704.08984.1953.1211.1836.14843.17188.17578.30469.41797.24218.4961.17969.54687.10938.57813.03906.58984-.03906.59375-.10938.58594-.17969.55078-.24219.5039-.30468.4297-.17188.17968-.1836.15234-.1953.1211-.20704.09375-.21875.05859-.23046.01953-.23047-.01953-.21875-.0586-.20703-.09374-.19532-.1211-.18359-.15234-.17188-.17969-.30468-.42969-.24219-.5039-.17969-.55078-.10937-.58594-.03906-.59375h.83203l.03125.5625.07812.50781.1289.4414.16016.375.19141.30079.21094.22265.22265.13672.22657.04688.22656-.04688.22265-.13671.21094-.22266.1914-.30078.16017-.375.1289-.4414.08203-.50782.02735-.5625-.02735-.5586-.08203-.5039-.1289-.4336-.16016-.36718-.1914-.28906-.21094-.21485-.22266-.13281-.22656-.04297-.22657.04297-.22265.13281-.21094.21485-.1914.28906-.16016.36719-.1289.43359-.07813.5039-.03125.5586h-.83204l.03907-.58985.10937-.57812.17969-.54688.24219-.49609.30469-.41797.17187-.17578.1836-.14844.1953-.12109.20704-.08984.21875-.0547.23047-.01952m4.95312 0l.23047.01953.21875.05469.20703.08984.19531.1211.1836.14843.17187.17578.30078.41797.2461.4961.17969.54687.10937.57813.03906.58984-.03906.59375-.10938.58594-.17968.55078-.2461.5039-.30078.4297-.17187.17968-.1836.15234-.1953.1211-.20704.09375-.21875.05859-.23047.01953-.23047-.01953-.21875-.0586-.20703-.09374-.19531-.1211-.1875-.15234-.16797-.17969-.30469-.42969-.24219-.5039-.17968-.55078-.11328-.58594-.03516-.59375h.83203l.02735.5625.08203.50781.1289.4414.16016.375.1914.30079.21094.22265.22266.13672.22656.04688.22656-.04688.22266-.13671.21094-.22266.1914-.30078.16016-.375.125-.4414.08203-.50782.03125-.5625-.03125-.5586-.08203-.5039-.125-.4336-.16016-.36718-.1914-.28906-.21094-.21485-.22266-.13281-.22656-.04297-.22656.04297-.22266.13281-.21094.21485-.1914.28906-.16016.36719-.1289.43359-.08204.5039-.02734.5586H401.75l.03516-.58985.11328-.57812.17969-.54688.24218-.49609.30469-.41797.16797-.17578.1875-.14844.19531-.12109.20703-.08984.21875-.0547.23047-.01952m4.95313 0l.38671.02734.35938.08203.32031.13672.28125.1875.23047.23828.17188.28516.10937.33203.03906.375-.02343.27734-.0547.23438-.08983.19922-.11329.17187-.1289.14063-.13672.125-.28906.19531.23437.11719.20703.14844.17969.17187.15625.1914.1211.21485.09374.23047.0547.24219.01952.2578-.03515.3086-.10547.32813-.17188.32422-.23828.30468-.30469.26954-.375.21484-.21093.08203-.23047.0586-.24219.03906-.26172.01562-.26172-.01562-.23828-.03907-.22656-.05859-.20313-.08203-.35937-.21485-.28906-.26953-.22266-.30468-.16016-.32422-.08984-.32813-.03125-.3086h.83203l.02735.25392.07812.23437.1211.21094.16015.1836.19531.15233.21875.1172.23828.0703.25782.02735.2539-.02735.24219-.0703.21875-.1172.1914-.15234.16016-.1836.125-.21093.07813-.23438.02734-.2539-.02734-.2539-.07813-.23438-.125-.21094-.16015-.1875-.19141-.15234-.21875-.11329-.24219-.07421-.2539-.02344-.25782.02344-.23828.07421-.21875.11329-.19531.15234-.16016.1875-.12109.21094-.07813.23437-.02734.2539h-.83203l.01953-.2539.05469-.23828.08984-.22656.125-.20703.15235-.1914.18359-.17188.20703-.15235.23047-.13281-.28516-.19531-.14062-.125-.1289-.14063-.11329-.17187-.08594-.19922-.05859-.23438-.01953-.27734h.78515l.02344.21484.0664.19141.10548.16797.13672.14062.16406.10938.1875.08203.20703.05078.22266.01563.21875-.01563.20703-.05078.1875-.08203.16797-.10938.13671-.14062.10157-.16797.0664-.1914.02344-.21485-.02344-.21484-.0664-.1875-.10156-.16797-.13672-.14063-.16797-.10937-.1875-.08203-.20703-.05079-.21875-.01562-.22266.01563-.20703.05078-.1875.08203-.16406.10937-.13672.14063-.10547.16797-.0664.1875-.02344.21484h-.78516l.03906-.375.10938-.33203.17187-.28516.23047-.23828.27734-.1875.32422-.13672.35938-.08203.38672-.02734"/></g></defs><use xlink:href="#am"/></svg>