<svg xmlns="http://www.w3.org/2000/svg" role="img" xmlns:xlink="http://www.w3.org/1999/xlink" viewBox="142.45 309.95 326.84 171.84"><defs><clipPath id="a"><path d="M144 311.67188h1v168.65625h-1zm0 0"/></clipPath><clipPath id="b"><path d="M144 311.67188h324v168.65625H144zm0 0"/></clipPath><clipPath id="c"><path d="M391 441h46v39.32813h-46zm0 0"/></clipPath><clipPath id="d"><path d="M460 468h8v12.32813h-8zm0 0"/></clipPath><clipPath id="e"><path d="M465 478h3v2.32813h-3zm0 0"/></clipPath><clipPath id="f"><path d="M467 311.67188h1V462h-1zm0 0"/></clipPath><clipPath id="g"><path d="M144 477h3v3.32813h-3zm0 0"/></clipPath><clipPath id="h"><path d="M154 478h7v2.32813h-7zm0 0"/></clipPath><clipPath id="i"><path d="M167 478h8v2.32813h-8zm0 0"/></clipPath><clipPath id="j"><path d="M172 478h3v2.32813h-3zm0 0"/></clipPath><clipPath id="k"><path d="M180 478h8v2.32813h-8zm0 0"/></clipPath><clipPath id="l"><path d="M185 479h3v1.32813h-3zm0 0"/></clipPath><clipPath id="m"><path d="M193 478h8v2.32813h-8zm0 0"/></clipPath><clipPath id="n"><path d="M199 479h2v1.32813h-2zm0 0"/></clipPath><clipPath id="o"><path d="M206 479h9v1.32813h-9zm0 0"/></clipPath><clipPath id="p"><path d="M212 480h2v.32813h-2zm0 0"/></clipPath><clipPath id="q"><path d="M220 479h8v1.32813h-8zm0 0"/></clipPath><clipPath id="r"><path d="M226 480h1v.32813h-1zm0 0"/></clipPath><clipPath id="s"><path d="M233 479h8v1.32813h-8zm0 0"/></clipPath><clipPath id="t"><path d="M239 480h2v.32813h-2zm0 0"/></clipPath><clipPath id="u"><path d="M246 479h9v1.32813h-9zm0 0"/></clipPath><clipPath id="v"><path d="M252 480h2v.32813h-2zm0 0"/></clipPath><clipPath id="w"><path d="M260 479h8v1.32813h-8zm0 0"/></clipPath><clipPath id="x"><path d="M266 480h1v.32813h-1zm0 0"/></clipPath><clipPath id="y"><path d="M273 479h8v1.32813h-8zm0 0"/></clipPath><clipPath id="z"><path d="M279 480h2v.32813h-2zm0 0"/></clipPath><clipPath id="A"><path d="M286 479h9v1.32813h-9zm0 0"/></clipPath><clipPath id="B"><path d="M292 480h2v.32813h-2zm0 0"/></clipPath><clipPath id="C"><path d="M300 478h8v2.32813h-8zm0 0"/></clipPath><clipPath id="D"><path d="M313 478h8v2.32813h-8zm0 0"/></clipPath><clipPath id="E"><path d="M327 478h7v2.32813h-7zm0 0"/></clipPath><clipPath id="F"><path d="M340 478h7v2.32813h-7zm0 0"/></clipPath><clipPath id="G"><path d="M353 478h8v2.32813h-8zm0 0"/></clipPath><clipPath id="H"><path d="M366 479h8v1.32813h-8zm0 0"/></clipPath><clipPath id="I"><path d="M372 480h2v.32813h-2zm0 0"/></clipPath><clipPath id="J"><path d="M379 480h9v.32813h-9zm0 0"/></clipPath><clipPath id="K"><path d="M385 480h2v.32813h-2zm0 0"/></clipPath><clipPath id="L"><path d="M393 479h8v1.32813h-8zm0 0"/></clipPath><clipPath id="M"><path d="M399 479h2v1.32813h-2zm0 0"/></clipPath><clipPath id="N"><path d="M406 479h8v1.32813h-8zm0 0"/></clipPath><clipPath id="O"><path d="M413 479h3v1.32813h-3zm0 0"/></clipPath><clipPath id="P"><path d="M412 479h2v1.32813h-2zm0 0"/></clipPath><clipPath id="Q"><path d="M420 478h8v2.32813h-8zm0 0"/></clipPath><clipPath id="R"><path d="M426 478h4v2.32813h-4zm0 0"/></clipPath><clipPath id="S"><path d="M425 478h4v2.32813h-4zm0 0"/></clipPath><clipPath id="T"><path d="M424 479h3v1.32813h-3zm0 0"/></clipPath><clipPath id="U"><path d="M433 478h8v2.32813h-8zm0 0"/></clipPath><clipPath id="V"><path d="M439 478h4v2.32813h-4zm0 0"/></clipPath><clipPath id="W"><path d="M446 479h8v1.32813h-8zm0 0"/></clipPath><clipPath id="X"><path d="M453 479h3v1.32813h-3zm0 0"/></clipPath><clipPath id="Y"><path d="M460 478h7v2.32813h-7zm0 0"/></clipPath><clipPath id="Z"><path d="M144 465h4v4h-4zm0 0"/></clipPath><clipPath id="aa"><path d="M144 452h4v4h-4zm0 0"/></clipPath><clipPath id="ab"><path d="M144 439h4v3h-4zm0 0"/></clipPath><clipPath id="ac"><path d="M144 425h4v4h-4zm0 0"/></clipPath><clipPath id="ad"><path d="M144 413h4v2h-4zm0 0"/></clipPath><clipPath id="ae"><path d="M144 400h4v1h-4zm0 0"/></clipPath><clipPath id="af"><path d="M144 385h4v4h-4zm0 0"/></clipPath><clipPath id="ag"><path d="M144 372h4v4h-4zm0 0"/></clipPath><clipPath id="ah"><path d="M144 359h4v3h-4zm0 0"/></clipPath><clipPath id="ai"><path d="M144 345h4v4h-4zm0 0"/></clipPath><clipPath id="aj"><path d="M144 332h4v4h-4zm0 0"/></clipPath><clipPath id="ak"><path d="M144 317h3v7h-3zm0 0"/></clipPath><clipPath id="al"><path d="M465 317h3v2h-3zm0 0"/></clipPath><g id="am" clip-path="url(#clip1)"><path fill="#fff" fill-opacity="0" fill-rule="evenodd" d="M0 0h1000v1000H0zm0 0"/><path fill="#d3d3d3" fill-opacity="0" fill-rule="evenodd" d="M162.15234 355.86719l-.23437.29297.0586.23437.11718.17188.17578.23437.29297.34766.11328.0586.11719-.17188.0586-.23438.17577-.17578.46485-.17578h.69922l.23437.29297.28906.8164.0586.17579.17578.23046.35156.23438.69922.69922.17188.17578.23437.34765.23438.41016.28906.58203.41015.46485.23047.23437.23438.17578.11719.23047.17578.29297.17187 1.16406v.23438l.0586.28906.05859.11719.11719.11719.34765.41015.11719.17188.17578.17578.17578.23437.11719.17188.17188.35156.05859.23438.23437.40625.23438-.0586-.17578.17578-.0586.92969h-.58203l-.23437-.11328-.34766.11328-.11719.11719-.05859.29297-.0586.17578-.11718.17187-.46484.29297-.0586.23438-.0586.11328v.64453l.0586.17187v.41016l.0586.0586v.40624l.05859.40625.11719.17579.05859.05859.23047.64062-.0586.29297v.69922l-.05859.58203v.23438l-.0586.23047-.05468.35156v1.92187l.05469.1172h.42578l-.36719.11718-.02344.35156.89063 1.16797 1.74219.53906 1.33984.35938v.53906l.08984.8086.53516.71484 1.51953.26953.89063-.08594.08984 1.16406.53516.1797 1.16015-.1797 2.05469-.98437 1.16016-.36328 1.8789-.17578 1.69531-.1797-.17968.71876-1.51563.08594-1.25.08984-.80469.26953-1.07421.8086.26953.71875.53515.89843-.17968.625-.26563.8086.26563 1.07812.625.89844.80468.17969 1.25-.1797-.26562.72267.09766.5039.05468.29297v.17188l.0586.29296v.40625l.17578.1172.35156.11718h.40625l.29297-.17578.11328-.11719.0586-.11719.11718-.23047.0586-.17578.35156-.46484.23047-.17578.17578-.0586.17578.0586.0586.17578.11718.98828.05469.46875.0586.17188.11718.23437.17578.0586.8164.05859h.28907l.11719.23437.05859.40625.0586.35156v1.10547l.11718.29297.11719.34766.28906.69922.17578.35156.58203.7539.35157.17579.17187.0586.46875.23437.64063.46484.34765.23438.29297.17578.29297.05468.23047.0625.8164.34766.29297.17578.11328.17188.35157.35156.11719.17578.52343.64063v.28906l.0586.35156v.34766l.05859.35156.0586.28906.11718.0586.17188.05859h.17578l.58203.23437.17578.1172.17578.28905.17578.23438.11328.23437.29297.23047.11719.11719v.41016l.0586.05468.28906.23438.23437.11719.0586.11718.11718.17188.0586.11719.23047.23437.05859.17578.23437.0586.1172.05859-.1172.11328-.05859.11719v.11719l-.11719.29296-.11719.28907v.58203l.17579.11719.11718.05859.0586.11719.11719.11719.11328.05859.17578.34765.0586.35157.05858.40625v.17578l-.05859.17578-.11719.69922v.17187l.1172.17579.29296.29296h.40625l.17578.1172.11719.17187.11719.29296v.23438h-.52735l-.23047-.23438h-.23437l-.17578.0586-.0586.69922.0586.34765.11719.17579.17578.41015.11718.23047.28907.46875.17578.05469h.52344l.23437.0586.75781.64062.0586.29296v.23438l.05859.0586.23047.34765v.35156l-.11719.17188v.29297l.29297.28906.29297.17578.17187.0586.29297.17577.29297.1172.58203.40624.28906.23438.29297.17578.21875.16015.01563.01172.23047.17579.64062.52343.17578.23438.1172.17578.17577.17578.11328.17188v.64062l.1172.17578.46874.11719.58203.11719.23438.05859.23047.11328.29297.11719.11328.0586.58593.35156.28907.17187.17578.0625.17578.05469.17578.0586.69922.35155.28906.17579.23438.05468.28906.17578.23437.1172.64063.40624.29297.11719.17187.0586.23438.05859.41015.05859.23047.0586.23438.11718.0586.17188-.41017.17578.46875.0586.0586.29296.11328.23438.17578.05468.23438.0586.17578.05859.40625.11719.64062.23437.11719.17188.0586.23437v.17578l-.0586.1172-.0586.40624.23438.23438.11719.05859.34766.11719.64062.23047.17578.11718.28906.1172.17578.17577.23438.46485.58203 1.10546.17578.17579.34766.17578.17578.11719.35156.11718 1.04688.52344.23437.0586.46485.11327.29297.0586.46484.17578.75781.58203.23438.23438.34765.46484.17578.17578.28907.23438.8164.69921.29297.17579.28906.28906.29297.17578.29297.28906.69531.64063.17578.17578.29297.23437.28907.23438.46875.28906.64062.58203.34766.23438.23437.29297.34766.34765.35156.46485.9336.99218.34765.40625.11719.17579.23437.05859.11328.11719.64454.17578.23047.11328.23437.0586.29297.17577.23047.1172.9336.69921.40624.40625.23438.17578.40625.17578.23437.11719.8164.34766.34766.23437.23438.11719.29297.28906.23047.11719.7578.35156.35157.17188.23047.05859.29297.11719.23437.0586.8711.17577h.8164l.46875.23047.17188.0586.875.69921.46484.1172.29297.05858.17578.0586.23047.0586.46875.05859.34766.05859.35156.0586.40625.05859h.29297l.17187.0586v.23046l.17578.17578h.29297l.34766.0586.35156.05859.69922.11719h.64063l.46484-.23438.29297-.17578.17187-.11719.41016-.17187.28906-.17578.9336-.46485.46875-.29297.52343-.29296.46485-.17188.46484-.17578 1.05078-.46485.28906-.11718.41016-.11719.28906-.11719.52735-.17578 1.51562-.69922.58203-.34765.28907-.0586.29297-.0586.34765-.11718.875-.23047.35156-.11719h.11329l.23437-.05859.875-.23437.23438-.0586h.8125l.35156-.0586.8164-.11718.17188-.0586.35156-.05468.29297-.0586.23047-.05859.8164-.17578.17579-.0586h.34765l.23438-.05859.46484-.11718.75781-.17188.23438-.0586h.34765l.41016-.11718.28906-.0586 1.28516-.05859h.28906l.41016-.0586.23047-.05858h.17578l.875-.1172h.40625l.41015-.11718h.34766l.35156-.11328.8711-.0586h1.75l1.04687.28907.41016.11719.28906.11718.35156.11719.28907.11719 1.05078.17187.28906.0586h.29297l.29297.05859.17187.0586.41016.05859.17187.0586.1172.05858h.11718l.11719.0586.35156.0586h.11328l.41016.0664 1.92187.39453 1.92578.39453 1.51953.44922 1.69532.71875 2.14453.80469 1.60547-.71875 1.42968-.80469 1.16016-1.07813 1.25-.44921 3.03516-.71875 1.875-.35938 2.14453-1.34765 2.23437-1.25391 2.5-1.25781 1.69531-.44922 1.78516-.17969 1.16016-.26953.625.53906 1.33984-.26953.71485-.98828.98437-1.34375.44531-.17969.80469-.35937 1.875-.53907 1.78516-.44921 1.25-.26954 1.16015-.08984 1.69922-.08984 1.96094-.26954 1.25-.08984h.53906l.625-.08984h.89063l2.14453-.17969 2.41015-.17969 2.58985-.08984 1.69531.17969 1.60938.08984 1.42968.35938 1.16016.71875 1.875.98828 1.16015 1.52734.26563.71484.6289.08985.35548.89844.53515.53906.53516 1.52734 1.07422.35938h.53515l-.80469.53515.08985 1.70703.71484 2.69532.89063.80468.89453.98829.71484 1.2578 1.78516.53907 1.51953-.17969.35547 1.34375 1.60937-.80469.98047-.53906.26953.26953.31641-.21484.21875-.14453.80078.44922.44922-.35938h.35547l.53515-.26953.53907-.71875.53515-.26953.625-.98828 1.16016.44922.83984.3711 1.39454.61718 1.6953-.17969h1.60548l1.78515.08985.17969-1.70704.53516-1.34375.80468.26954.4922.84765.40233.40625-.08984.53906v.35938l.71485.44922.71093-.26953h1.42969l.35938.98828.4453 1.25781.71485 1.34375 1.25.6289 1.69531.62891.71485-.17969.17969-.53906.98046-.08984.44922.35937.08594 1.25782-.26563.6289-.53515.17969v.53906l.71484.98438.26563.53906.98437.98828.80078 1.07813-.26562.35937-.08985.89844-.625 2.33203-.35546 2.0664-.08985 1.79298-.17969.71875-.08984.53906v1.4375l-.98047 1.88281-.35937 1.70703-.53516.89844-.80469 1.16797-.26562.53906 2.05469 1.2539.08593.35938-.35546.53906-.08985-.17968v.80859l.08985 1.4375-.44532.71484-1.07422.09375-.26562.71485.53515.89844.8047.71875 1.16015.80859 1.33984.26953.44531.35938-.35546.44921-1.78907-.08984-1.25-.44922-.71484-.71875-.625-.08984-.17578 3.58984-.1875 1.3086h89.35937V311.70313h-55.26953v49.08203l.76172.125 3.28906.54296 2.02344 2.83594v2.7539l2.35156.33204 2.34766.33203h4.05078l-1.3789 4.16016-2.02344.70703-2.02344.70312-.54297.34375-2.59375 1.6172-.1875.11718-2.02344-2.07813-.73046-2.74218-2.67188-2.07813-1.375-3.5-.0664-.08203-1.95704-2.67188 2.75-1.41796v-49.08204H294.42187v91.41407l.1172.03125.1328.01172.07422.07421.10547.04688.08985.0586.08593.05859.08985.0586.29687.29687.0586.08984.03125.11719.02734.11719.01563.13671-.03125.1172-.0586.08983-.0586.08594-.04296.10547-.04688.10156-.02734.1211v.14453l.17578.26953.14844.14844.07422.08594.07422.07421.04296.10547.0625.08985.0586.08593.04297.10547.0586.08985.04687.10156.04296.10547.0586.08594.11719.17968.07421.07422.0625.08594.0586.08984.04297.10547.0586.08985.05858.08593.0625.08985.0586.08984.04297.10156.11719.17969.07421.07422.0586.08594.07422.07421.08984.0586.10547.04687h.14844l.1328-.01562.13282.01562.10156-.04687.07422-.07422.04688-.10156-.01563-.13281v-.14844l-.04687-.10547-.02735-.11719-.04687-.10156-.02735-.1211-.04296-.10156-.0625-.08984-.04297-.10156-.04297-.10547-.03125-.11719-.01563-.13281-.01171-.13672.08593-.0586.0586-.08593.12109-.03125.04297.10547.01562.1328v.1172l.0586.10156.0586.08984.08983.0586.14844.14843.0586.08985.04296.10547-.01171.10156.08593.0586.10547.04687.08594.0586.08984.05858.07422.07422-.11719.02735-.10546.04687-.08594.0586-.07422.07421-.0586.08985-.0625.08594-.02734.12109-.04687.10156-.04297.10547-.03125.11719-.01172.13281-.01563.13281v.14844l.02735.11719.04687.10547.04297.10156.0586.08984.07421.07422.08985.0586.07422.07421.08984.0586.0586.08984.04296.10547.04688.10156.11719.03125.1328.01563h.14845l.11718-.03125.10547.04297.04297.10547.04688.10156.02734.1211L299.5 410l.02734.11719.03125.1211.02735.11718.10547.04297.10156.04687.13281-.01562.14844.14844.0625.08593.07422.07422.07031.07422.08984.0625.10547.04297.10156.04297.1172.03125.13671.01562.11719-.03125.07422-.07422.02734-.11718-.01172-.13282-.03125-.12109-.02734-.11719.04297-.10547h.11719l.08984.0625.11719.02735h.14843l.13282.01562h.14843l.13282.01563.1328-.01563h.14845l.1328-.01562.13282-.01172.13672.01172.11719-.02735.13281-.01562.1914-.0586-.05859.17579-.01562.1328-.02735.1211-.01562.13281-.0586.08594-.1328.01563-.10548.04687-.10546.04297-.1172.03125-.11718.02735-.26563.03125h-.14843l-.13281.01562-.07422.07422.05859.08594.14844.14843.11719.1797.07421.0703.08985.0625.08984.0586.08594.0586.08984.05858.10156.04297.10547.0625.10547.04297.08594.0586.10547.04687.10156.04297.17969.11719.0586.08984-.04298.10156-.04687.10547.01562.13281.22266.22266.0586.08985.04296.10156.03125.1211.04297.10155.01563.13282.03125.11718.01171.13672.03125.11719.14844.14844.10156.04297.10547.04296.1172.03125.1328.01563.13672.01563h.11719l.11719-.03125.08984-.0586.04297-.10547.04688-.10156.04296-.10547.03125-.11719.01172-.1328v-.14845l-.01172-.1328-.01562-.13282-.03125-.11719-.04297-.10547-.04688-.10547-.04296-.10156-.04297-.10547-.01563-.13281.01563-.13281.02734-.11719.03125-.11719.02735-.1211.04687-.10155.08984-.0586.08594-.0625.07422-.07422.08984-.05859.22266-.22266.0586-.08593.07421-.07422.11719-.17969.0586-.08594v-.14844l-.07423-.07421-.10156-.04688-.10547-.04297-.10156-.04297-.0586-.08984-.04687-.10547-.02734-.11719.08984-.05859.11719-.03125.10156-.04297.17969-.11719.14844-.14843.01172-.13282-.01172-.10546-.08985-.0586-.1328.01563h-.14845l-.1328.01562-.13282-.01562-.1211-.03125-.08593-.0586-.07422-.07422-.0586-.08984-.0625-.08594-.11718-.17969-.0586-.08593.03125-.1211.08594-.05859.1211-.03125.05859-.08594v-.1211l-.03125-.11718-.0586-.08984-.05859-.08594-.04687-.10547-.02735-.11719-.01562-.1328.0586-.08985.07421-.07422.08984-.0586.1172-.17968.07421-.07422.0586-.08594.14843-.14844.1211-.03125.1328-.01562.13282.01562.07422.07422.04297.10547.01562.13281-.03125.1172-.11719.03124-.1328.01172-.14844.14844-.04297.10547-.04688.10156-.02734.1211-.03125.11718v.14844l.03125.11719.04297.10546.05859.08985.07422.07031.07422.07422.11719.03125.12109.02734.11719-.02734.1328-.01563h.1172l.08984.0586.07422.07422.04687.10546.0586.08594.10156.04688.13281.01562.10547.04297.08594.0586-.01172.10546-.07422.07422-.17969.11719-.05859.08984-.08984.0586-.07032.07422-.07421.07421-.0625.08985-.02735.11719-.01562.1328.01562.13282-.01562.13281v.14844l.01562.13281.02735.1172.03125.12108.07421.07422.08985.0586.08594.0586.08984.05858.11719.03125v.08594l-.10157.04688-.08984.0586-.26563.03124-.11718.02735h-.14844l-.10547.04296-.10156.04688-.0586.08984-.0625.23438-.01171.13281-.03125.1211-.01563.1328v.29298l-.01172.1328.01172.13673.01563.1328.1328.01563.13282.01172.1211.03125.08593.0586.07422.07421.04688.10547.04296.10157.01563.1328v.44532l-.01563.13281v.44532l.03125.26562.02735.11719.01562.13281.03125.11719.08594.21094.03125.26562v.14844l-.03125.11719-.02734.11718-.03125.1211-.02735.11719-.03125.11718-.03125.1211-.01171.1328-.01563.13282.08984.0586.1172-.03125.10155.01562.04688.10547-.03125.26562v.44141l-.04297.10547-.04688.10547-.04296.10156-.04297.10547-.0586.08594-.03125.12109-.04296.11719-.03125.11719-.01563.1328.01563.13282.05859.08984.10547.04688.08594.0586.05859.08593-.01172.13672-.03125.11719-.04297.10156v.44531l-.01562.13281v.14844l-.03125.11719-.04297.10547-.02735.11719-.04687.10546-.04297.10157-.03125.12109-.02734.11719-.03125.13281-.03125.11719-.02735.11719-.04297.10546-.03125.1172-.03125.12108-.01171.13282-.01563.13281v.29688l.02734.11718v.14844l.04688.39844.02734.11719.0586.08984.12109.03125h.14844l.13281-.01563.0586.08985v.11719l-.0586.08984-.08984.0586-.10157.04296-.10546.04688-.08985.05859-.08594.0586-.13671.01562-.1172-.03125-.1328-.01563-.10157.04688-.0625.08594-.01172.13671-.01562.13282-.03125.11719-.02735.11718-.01562.13281-.03125.1211v.29687l.01563.13282.03125.11718v.14844l.01171.13281v.14844l-.02734.11719-.04688.10156-.02734.1211-.03125.11718-.0586.08985-.07421.07421-.10156.04297-.10547.04688-.11719.02734-.1211.03125-.10156-.04687.0586-.08594.10547-.04688.02734-.11718.03125-.11719.02734-.1211.03125-.11718v-.14844l.01563-.13281-.03125-.11719-.04297-.10547-.10547.01563-.07422.07422-.10156.04296-.08984.0625-.07422.07422-.04297.10157-.01563.1328-.03125.1172L304.25 426l-.03125.11719-.02734.11719-.03125.12109-.02735.11719-.03125.11718-.04297.10547-.08984.0586h-.08984l-.1172-.03125-.03124-.08594.01562-.13672-.03125-.11719v-.14844l-.01171-.1328v-.14844l-.0625-.23438-.02735-.1211-.04297-.10156-.04687-.10546-.0586-.08594-.05859-.08985-.04297-.10546-.0625-.08594-.14844-.14844-.0703-.07422-.10548-.04687-.10547-.04297-.10156-.04297-.29687-.29688-.08985-.07421-.08594-.0586-.10546-.04297-.08985-.0625-.08594-.0586-.10546-.04296-.08985-.0586-.08594-.0625-.07421-.0703-.10547-.04688-.08594-.0586-.10547-.04296-.08984-.0625-.10156-.04297-.10547-.04297-.08594-.0586-.10547-.04687-.10547-.04297-.10156-.04687-.08985-.0586-.10156-.04297-.10547-.04296-.08984-.0625-.11719-.02735-.13281-.01562-.13281.01562H299.75l-.13281.01563-.11719-.03125-.08984-.0586-.07422-.07422-.08985-.05859-.10156-.04688h-.14844l-.12109-.02734-.10156-.04297-.07422-.07422-.11719-.17968-.08984-.0586-.10156-.04297-.08985-.0625-.10547-.04296-.08984-.0586-.08594-.0586-.10547-.04687-.0586-.08594-.05858-.08984-.04297-.10547-.04688-.10156-.07422-.07422-.08594-.0586-.07421-.07421-.08985-.0586-.22265-.22265-.04297-.10547-.03125-.26563.10547-.04296h.14453l.10547.04296.07421.07422.08985.0586.08594.0586.10546.04687.08985.05859.14844.14844.0703.07422.14845.14843.0625.08594.07421.07422.08594.0586.07422.07421.08985.0625.08984.0586.08594.05859.26953.17578.10156.04688.10547.04296.10156.04297.04688-.07421.05859-.08594.07422-.07422.07031-.07422.10547.04297.07422.07422.0586.08984.04296.10156.04688.10547.04296.10547.1211.02735.11719-.02735.07421-.08984.04297-.10547.0586-.08985.07422-.07421.10546-.04297.1172-.02735.1328.01172.08985.0586.14844.14843.05859.08985.04297.10547.04687.10156.04297.10547.04297.10156.10547.04688.10547.04296.13281.01563.08594-.0586.0586-.08984.07421-.07422.10547-.04297.11719.02735.10547.04687.10156.04297.10547.04297.10156.04688.17969.11718v.11719l-.01563.13281.01563.13281.01562.13672.0586.08594.10156.04688.1211.02734.11718.03125h.14844l.11719-.03125.05859-.08984.17969-.1172.05859-.08983.07422-.07422.0586-.08594.11718-.17969.17969-.11719.11719.03125.08984.0586.04297.07422-.01563.1328v.1172l.08985.05859h.14843l.13282-.01563.1328-.01171.26563-.03125.10547-.04297.11719-.03125.1211-.02735.07421-.07421.07031-.07422.0625-.08985-.01562-.10547-.04688-.10156-.10156-.04297-.10547-.01562-.11718.02734-.26563.03125h-.14844l-.07421-.07422-.08985-.0586-.11719-.03124-.11718-.02735-.13282-.01562h-.14843l-.13282.01563h-.29687l-.10547-.04688-.14844-.14844-.04297-.10156-.05859-.08984.22266-.22266.08593-.0586.10547-.04296.11719-.03125.13281-.01563.13281.01563.13672.01562.10157.04297.1328-.01172.08985-.0625.10156-.04297.0625-.08984-.04687-.10156-.08984-.0586-.1172-.03125-.10155-.04296-.0586-.08985-.0625-.08984v-.11719l.01563-.13281.10547-.04688.07421-.07031v-.1211l-.08984-.05859-.03125-.11719.08985-.05859.07421-.07422.04297-.10547.0586-.08984.04687-.10156.01563-.13281v-.14844l-.04688-.10547-.04297-.10156-.08984-.0586-.13281-.01562-.10157-.04297-.13671-.01563-.1172-.03125h-.4453l-.13282-.01562-.13281-.01172-.13281-.01563-.11719-.03125h-.14844l-.13281-.01562-.13281-.01172-.26563-.03125-.1211-.04297-.08593-.0586-.07422-.07421v-.14844l.01172-.13281.10547-.04688.10156-.04296.13281-.01563h.15235l.13281-.01562h.29297l.1211.03125.10156.04296.08984.0586.23438.0625.12109-.04688.08984-.05859.10156-.04297.13282-.01562.10547.04296.10156.04688.13281.01172.1211-.02735h.14453l.12109-.03125.11719-.02734.10547-.04687.07421-.07422.08594-.0586.14844-.14843.0586-.08594.04687-.10547.02734-.11719.01563-.10547-.10156-.04296-.08985-.0586-.11719-.03125-.10546-.04297-.08985-.0625-.07422-.08594-.07422-.07421-.10156-.04297-.10547-.04688-.10156-.04297-.0586-.08984-.04687-.10156-.08594-.21094-.0625-.08594-.05859-.08984-.07422-.07422-.08594-.0586h-.26953l-.11719.03126-.08984.05859-.10156.04297-.13281.01562-.10547-.01562-.02735-.11719-.0625-.08984-.11718-.03125-.10157-.04297-.14843-.14844-.03125-.11719-.01563-.10546.07422-.07422.17969-.1172.11719-.02733.11718-.03125.13672.01562.10156.04297.10547.04297.10156.04687.10547.04297.1172.03125.1328.01563.1172.02734.1328.01563.10547-.01563.08985-.0586-.07422-.07421-.10547-.04297-.07422-.07422-.07422-.08984-.14844-.14844-.08593-.0586-.08985-.05859-.07422-.07422-.08984-.0586-.10156-.04687-.1211-.02734-.10156-.04688-.10547-.04296-.11719-.03125-.10156-.04297-.1211-.03125h-.14843l-.11719.03125-.10546.04297-.08594.0625-.17969.11718-.08594.0586-.08984.0586-.10547.04687-.08594.05859-.10547.04297-.10156.04297-.10547.04687-.07422.07422-.05859.08985-.0586.08593-.04687.10547-.0586.08594-.07421.07422-.13281-.01172-.1172-.03125h-.11718l-.07422.07422-.08984.0586-.07422.07421-.08984.0586-.08594.05859-.10547.04687-.10156.04297-.13672.01563-.10156-.04297-.14844-.14844-.10547-.04688h-.08594l-.10547.04688-.10156.04297-.1211.03125-.11718-.03125-.07422-.07422v-.11719l.03125-.1211.07422-.0703.0586-.08985.07421-.07422.11719-.03125.10547-.04296h.29297l.13281-.01563.13672-.01563.10156-.04296.08985-.0586.10156-.04687.08984-.0586.13281-.01171.08985.05859.13281.01172.08984-.0586.08594-.05859.10547-.04297.08984-.0586.08594-.0625.08985-.05859.14843-.14843.0586-.08594.05859-.08985.10547-.04296.13281-.01563.11719.02735.1211.03125.05859-.0586.05859-.08984.03125-.26563.02734-.11719.10547.01172.13281.01563.10157-.04297.08984-.0586.0586-.08984.07421-.07422.0586-.08984.04687-.10156.01172-.13281-.01172-.13282-.04687-.10547-.14844-.14843-.0586-.08985-.05859-.08594-.04297-.10546v-.44532l.01563-.1328v-.14845l.01172-.1328-.0586-.0586-.08984.0586-.10156-.04298-.17969-.11719-.08594-.05859-.0625-.08984-.0586-.08985-.07421-.07421-.08594-.0586-.1211.03125-.10155.01172-.10547.04688-.08594.05859-.10547.04297-.14844.14844-.08984.05859-.08594.0586-.08984.0625-.10547.04296-.13281.01563v-.1211l.10547-.04297.11718-.03125.07422-.0703.04297-.10548v-.14844l-.02734-.11718-.14844-.14844-.13281-.01563h-.14844l-.11719.03125-.10547.04297-.10156.04297-.08984.0625-.11719.02735-.07422-.07422.01172-.13281-.04297-.10157-.04297-.10547-.08984-.05859-.11719.02734-.1211.03125-.11718.03125-.10156.04297-.1211.03125-.10156.04297-.10547.04297-.08984.0586-.10156.01562v-.11719l.01562-.13281-.0586-.08985-.07421.04297-.14844.14844-.0586.08985-.07421.07421-.04688.10547-.04296.10156-.07422.07422-.0586.08985-.07422.07422-.05859.08593-.07422.07422-.08984.0625-.07422.07031-.07422.07422-.10156.01563-.13281.01562-.10547-.04296v-.1211l.14843-.14844.04297-.10156.0586-.08984.04687-.10156.04297-.10547.0586-.08985.03124-.11719.04297-.10156.03125-.1211.02735-.11718.04687-.10547.04297-.10156.04297-.10547.07422-.07031.08984-.0625.08985-.0586.10156-.04296h.29687l.26563-.03125.10547-.04297-.07422-.07422-.11719-.03125-.10547-.04297-.08984-.0586-.10156-.04687-.08985-.0586-.10156-.04296-.10547-.04297-.08984-.0625-.08594-.0586-.10547-.04296-.10156-.04297-.1211-.03125-.11718-.03125-.10157-.04297L297.5 410.25l-.10156-.04297-.08985-.0586-.04296-.10546-.01563-.13281.10156-.04297.13281-.01563.13672.01563.13282-.01563.10156-.04297.0586-.08984.01562-.10547-.08985-.0586-.07421-.07421-.10157-.04297-.08984-.0586-.14844-.14843-.04297-.10547-.01562-.13281v-.29297l-.0586-.08985-.08984-.05859-.07422-.07422-.04297-.10547-.03125-.11718-.0586-.08985-.07421-.07422-.11719-.02734-.07422-.07422-.08984-.0586-.08984-.0625-.08594-.05859-.07422-.07421-.0586-.08594-.04687-.10547-.08594-.0586-.14843-.14843-.19532-.0586-.1328.01563-.10157.04297-.07422.07422-.04688.10156-.04296.10547-.0586.08984-.0586.08594-.29687.29687-.08984.0586h-.08594l-.0625-.08594-.04297-.10547.03125-.11719.0586-.08984.02734-.11719-.01172-.13281-.08984-.0625-.10547.04688-.11719.02734-.11719.03125-.26953.17578-.10156.04688-.11719.02734-.10546.04687-.08985.0586-.10156.04297-.0586-.08594-.04687-.10547.01563-.13281.04687-.10547.07031-.07422.07422-.07031.0586-.08985v-.14843l-.04297-.10547h-.23829l-.10156.04687-.03125.11719-.02734.11719-.03125.1211-.07422.04296-.13281.01563-.07422-.04688-.04297-.10156-.04297-.10547-.04687-.10156-.04297-.10547-.1211.03125-.10156.04297-.13281.01562-.11719.03125-.10547.04297-.08984.0586-.10156.04687-.1211.02734-.13281.01563-.10156-.04297-.0586-.08985-.04687-.10546-.04297-.10157-.04297-.10546v-.1172l.0586-.08984.08593-.05859.17969-.11719.10156-.04687.10547-.04297.10547-.0586.10156-.04296.08985-.0625.10156-.04297.10547-.0586.10156-.04687.08984-.0586.10547-.04296.10156-.04297.08985-.0625.10156-.04297.13672-.01563.11719.03125.10156.04297.1211.03125.10156.04297.10546.04688.10157.04296.10547.04297.10156.04688.10547.04297.10156.04297.10547.04687.08594.0586.10546.04296.1172.03125.10546.04297.10156.04688.08985.0586.10547.04296.10156.04297.10547.04687.11719.02735.10156.04687.1211.02735h.14843l.08594-.0586.01562-.10156.0586-.08984-.02735-.1172-.07422-.07421-.11719-.17969-.07421-.07422-.08985-.07421-.17969-.1172-.08593-.05859-.10547-.04296-.10156-.04688-.26954-.17578-.05859-.08985-.07422-.07421-.0586-.08985-.04296-.10156-.03125-.11719-.01563-.13672v-.5625l-.01171-.1328-.01563-.13282-.03125-.11719-.01562-.13281-.01172-.13281-.03125-.1211-.22266-.22265-.0586-.08594-.01562-.10547.03125-.11719.13281-.01562v-91.41406H172.9922v1.45312l-.0586.23438-.35156 1.05078-.17187.52343-.1172.34766-.17577.41016-.11719.17187-.23438.29297-.23046.0586h-.35157l-.11718.05859-.23047.40625v.29297l.11719.17578.23046.23047.1172.23437.64062.75781.29297.46485.17578.23437.23047.35156.23437.34766.64063.8164.17578.46485.17187.41016.11719.69531.17578.46875.11719 1.39844.0586.46484v.875l.11718 1.04688v4.78125l-.0586.46484-.35156 1.28125-.17578.52344-.11328.41015-.35156.9297L172.93359 336l-.23437.58203-.11719.17578-.17187.34766-.17578.40625-.35157.8164-.0586.29297-.11327.29297-.11719.28906-.0586.17579-.11718.875-.0586.40625-.05859.11718-.0586.17579-.05859.17187-.23047.52734-.11718.17188v.23437l-.11719.23438-.0586.17187-.17577.58594v.28906l-.0586.17579v.29296l-.0586.11329-.05859.52734v.17187l-.05468.23438v2.6211l-.17578.8164-.1172.17578-.17577.23438-.1172.17187-.11327.23438-.58594.93359-.23047.28906-.29297.46485-.17578.23437-.28906.35156-.35156.69922-.11328.23047-.17579.41016-.17578.23046-.40625.52735-.8164.69922-.29297.17187-.28906.23438-.17579.11719-.17578.17578-.52344.40625-.52734.17578-.17187.17578-.23438.05469-.64062.17578h-.75782m12.21094 31.02344l-1.07422.44921.35938.89454 1.25-.71485.44531-.53906-.98047-.08985"/><path fill="#d3d3d3" fill-opacity="0" fill-rule="evenodd" d="M201.50781 416.59766h-.89453l.44922.6289.98047.35938.80469-.08985.4453-.98828-.17577.08985-.71485-.35547-.89453.35547m154.6211 59.0703l-.0586-.52343v-.29297l.11328-.29297.0586-.23046.46875-.46875h.11328l.11719-.11329.11718-.05859h.17579l.23437-.0586h.34766l.23437.0586.11719.0586.23047.17187.0586.17578.11718.58203v.29297l-.11719.17578-.17187.28906-.17579.17579-.52734.52343-.23047.23438-.11719.0586h-.17578l-.11718-.0586-.40625-.29297-.17579-.11719-.11718-.0586-.0586-.11327-.05468-.1172m6.64062-10.95702l-.0586-.17188v-1.10937l.0586-.17188.17578-.0586.17188-.05858h.17578l.23437-.0586.1172.0586.05858.69921-.05859.17188-.11719.17578-.11718.0586-.23438.52343-.11328.0586h-.23438l-.05859-.1172m9.61328-14.39062l-.11719-.17578v-.69922l.29297-.875.1172-.17187.17577-.35156.11328-.23047.1172-.29297.35155-.75781.1172-.23047.17187-.23438h.17578l.11719-.0586h.64062l.11719.0586.23437.23438.17188.11328.35156.29297.11719.11718.11328.17579v.11328l.11719.05859.11718.11719v.69922l-.05859.17578v.23047l-.0586.17578-.34765 1.05078-.11719.23047-.11719.23437-.11718.0586-.23047.23437-.64063.28906h-.875l-.41015-.11718-.64063-.46485"/><path fill="none" stroke="#bebebe" stroke-linecap="round" stroke-linejoin="round" stroke-miterlimit="10" stroke-width=".5" d="M467.95703 311.69531H144.02734v168.625h323.9297v-168.625"/><g clip-path="url(#a)"><path fill="#fff" fill-opacity="0" fill-rule="evenodd" d="M144 475.89063v4.4375h.0039H144V311.67188h.0039H144v164.21875"/></g><g clip-path="url(#b)"><path fill="#fff" fill-opacity="0" fill-rule="evenodd" d="M144.0039 480.32813V311.67188h71.01173v98.26171l-4.35938 3.82032 2.5039 4.4375-2.58593 1.55468-3.78516 2.88282-.65234.46875-4.4375.0703-.22266-.53905-4.21484-4.40235-4.4414.89063-4.4375-.72266-4.4375 2.10938-2.17188 2.125-2.26563 1.53906-3.36719 2.90234-.91796 4.4375-.15625.46485-3.01953-.46485-1.41797-.38281-.73828.38281-.64454 4.4375-3.05468 1.55469-4.4375 1.60547-.88672 1.27734-.61719 4.4375-.85938 4.4414.54688 4.4375-.48047 4.4375-.2539 4.4375 2.55078 2.57032 4.4375.30078 4.4375.3711 4.4375-2.51954.8203-.72265 1.33595-4.4375 2.28515-2.17969 2.52344-2.25781-2.52344-2.26172-2.34765-2.17578-.57032-4.4414-1.52343-4.33204-4.4375.82031-1.10157-.92578 1.10157-2.55469 4.4375 2.45704 4.4414-.4297 4.4375-1.09374 4.4375.17969 4.4375-1.55079 4.4414.54297 2.7422 2.44922-.02344 4.4375-.73828 4.4414 2.45703 3.94142.33984.49609 4.09766 3.125 4.4375-.86719 3.20312-2.25781 1.23828-.59375 3.0547-3.84375 1.3828-4.30469.11329-.13672-.11328-.16797-2.08594-4.26953-2.35156-2.1875-2.13672-2.25-.52735-4.4375.38281-4.4375 1.06641-4.4414 1.21484-2.1875 4.4375-2 .17188-.25 1.4375-4.4375-1.60938-1.96875-4.4375-1.85157v-98.26171h31.06641v95.1953l-1.38281 2.44923-3.05469 2.21093-4.4375-.97265-2.61328 3.19922.08594 4.4375-1.91406.75-3.97266 3.6875-.46484 1.10546-3.14063 3.33594 3.14063 3.17969 4.4375 1.25781 4.4414 4.3086 4.10156-4.3086.33594-.48437 2.33594.48437 2.10156 1.54297 4.4375-.33594 1.72266-1.20703 2.71484-.39453 4.4414-1.16797 2.90235-2.875.14844-4.4414-3.05078-2.88672-4.4414.16015-4.4375.05079-4.4375.6953-4.4375-.97656-1.97657-1.48046 1.97656-2.14063 3.0664-2.29687 1.3711-2.21485 1.35156-2.22265-1.35156-2.44922v-95.19531h22.1914v119.0625l-1.17968.77343 1.17969.66797.96875-.66797-.96875-.77344v-119.0625h39.94531v98.62891l-3.70703 3.45313-.73047 3.7578-.4961.6797-3.9414 1.76171-4.4414-.98046-.83985-.78125-3.59766-3.33204-3.70703 3.33204-.73047 4.28906-.10156.14844.10156.0703 1.52735 4.3711 2.3125 4.4375.59765.75781 1.40625-.7578 3.03125-.41407v24.86719l-2.17578 2.17578 2.17578 4.02734 3.47266-4.02734-3.47266-2.17578v-24.86719l4.1836.41406.25781.08594.28516-.08594 4.15234-.58984 2.91016-3.84766-2.91016-3.11328-1.55469-1.32812 1.55469-3.84766 4.4375.5664 4.4375 2.8125 3.4336-3.96874-1.8125-4.4375-1.6211-2.64844-4.4375-.80469v-98.6289h17.7539V456.5l-2.77734 1.63672 2.77735 1.875 1.6328-1.875-1.6328-1.63672V311.67187h8.875v107.59766l-1.83985 3.35938 1.83985 1.88671 2.60156-1.88671-2.60156-3.35938V311.67188h39.9453v134.85156l-2.71483 2.73828 2.71484 2.71094 2.8164-2.71094-2.8164-2.73828V311.67188h71.01562v146.42187l-.05468.04297-4.38282 1.83594-4.4414.2578-4.4375 1.09376-2.95703 1.25 2.95703 2.20703 4.4375-.03125 2.53515 2.26563 1.90625 1.60937 1.34766-1.60938 3.08984-1.51562 2.89844-2.92578-2.84765-4.4375-.05079-.04297V311.67187h22.1875v150.12891l-.78125.77344.78125.85547v5.4375l-4.43359-.77344-3.03516 3.35938-.20703 4.4375 1.74219 4.4375h-28.53906l.85547-4.4375 1.16406-4.4375-3.05078-3.83594-3.58203 3.83594 1.37109 4.4375-2.22656 1.8164-4.4375.45313-1.875-2.26954-2.5625-2.48046-1.92578-1.95704 1.14062-4.4375.78516-.33593 4.4375-.17578 4.35156-3.9297-.16797-4.4375.2539-1.08983 3.14063-3.34766 1.29688-.58985 3.48828-3.84765.38672-4.4414-3.875-3.67188-4.4375.45703-4.29688 3.21484-.14062.10547-.61328-.10547-3.82422-3.51562-2.05469 3.51562-2.38672.99219-3.32812 3.44922-1.10938 3.80469-4.4375-1.91016-3.04297 2.54297-1.39453 2.95703-1.0664 1.48047-1.57422 4.4375 2.64062 1.70312 3.6914-1.70312.7461-.22266.17188.22266-.01954 4.4414-.15234.67188-3.13672 3.76563-1.30078 2.7539-.44531-2.7539-3.9961-3.38672-4.4375 2.03515-1.47656 1.35156.64453 4.4375.83204.83204 1.99218-.83204 2.44531-.5703 3.04297.5703 1.39844.64844.5039-.64844 3.9336-2.9414 4.4375 2.3125h4.4375l.64453.6289 3.79688 3.40625 1.34375 1.03125H144.0039"/></g><path fill="#50fcfc" fill-rule="evenodd" d="M161.7539 465.14453l-2.55077-2.57031.2539-4.4375.48047-4.4375-.54688-4.4375.85938-4.4414.61719-4.4375.88672-1.27735 4.4375-1.60547v9.1211l-1.9297 2.64062 1.9297 3.40234 3.96484-3.40234-3.96484-2.64063V437.5l3.05468-1.55469.64453-4.4375.73829-.38281 1.41797.38281 3.01953.46485.15625-.46485.91797-4.4375 3.36718-2.90234 2.26563-1.53906 2.17187-2.125 4.4375-2.10938 4.4375.72266 4.4414-.89063v1.82813l-4.4414.7539-4.4375-.3125-3.16406 2.13282-1.27344 1.58984-4.4375 2.44531-.47265.40625.04297 4.4375.42968 1.88281 2.6875 2.5547 1.75.25 4.4375.55077 1.54297-.80078 1.5625-4.4375-3.10547-2.6836-2.23047-1.7539 2.23047-1.875 4.4375.7461 4.4414-.77735v1.79688l-.38671.10937.38672.32422.27344-.32422-.27344-.10937v-1.79688l2.46484-2.53515-2.46484-2.57422v-1.82813l4.21484 4.40235.22266.53906 4.4375-.07031v3.55078l-2.59766.42187 2.59766 3.54688.88281-3.54688-.88281-.42187v-3.55078l.65234-.46875 3.78516-2.88282v19.25l-4.4375.26954-1.05078 1.11718-2.1914 4.4375-.82032 4.4414 3.625 4.4375.4375.33204.84766-.33203 3.58984-.90235 4.4414-2.79296.58985-.7422 1.77734-4.4414-2.36719-3.08203-3.16406-1.35547-1.27734-1.38672v-19.25l2.58594-1.55468-2.50391-4.4375 4.35938-3.82032v1.52344l-2.6211 2.29688 2.6211 3.02343 2.91796-3.02343-2.91797-2.29688v-1.52344l4.4375 1.85157 1.60938 1.96875-1.4375 4.4375-.17188.25-4.4375 2-1.21484 2.1875-1.0664 4.4414-.38282 4.4375.52735 4.4375 2.13672 2.25 2.35156 2.1875 2.08594 4.26953.11328.16797-.11328.13672-1.38282 4.30469-3.05469 3.84375-1.23828.59375-3.20312 2.25781-4.4375.86719-4.09766-3.125-.33984-.4961-2.45703-3.9414.73828-4.4414.02344-4.4375-2.7422-2.44923-4.4414-.54296-4.4375 1.55078-4.4375-.1797-4.4375 1.09376-4.4414.42969-4.4375-2.45704-1.10157 2.5547 1.10157.92577 4.4375-.8203v11.10546l-4.4375.92188-1.27735 1.18359-3.16015 2.78125-2.70313 1.65625-.29297 4.4375 2.9961.51562 4.4375.88282 2.0625-1.39844 1.0039-4.4375 1.3711-2.27344 2.26562-2.16406-2.26562-2.10547v-11.10547l1.52343 4.33203.57032 4.4414 2.34765 2.17579 2.52344 2.26172-2.52344 2.25781-2.28515 2.17969-1.33594 4.4375-.82031.72265-4.4375 2.51954-4.4375-.3711-4.4375-.30078"/><path fill="#00e8fc" fill-rule="evenodd" d="M166.1914 463.08984l-2.99609-.51562.29297-4.4375 2.70313-1.65625 3.16015-2.78125 1.27735-1.1836 4.4375-.92187 2.26562 2.10547-2.26562 2.16406-1.3711 2.27344-1.0039 4.4375-2.0625 1.39844-4.4375-.88282"/><path fill="#fff" fill-opacity="0" fill-rule="evenodd" d="M166.1914 446.6211l-1.92968 2.64062 1.92969 3.40234 3.96484-3.40234-3.96484-2.64063"/><path fill="#00e8fc" fill-rule="evenodd" d="M179.07813 431.50781l-.04297-4.4375.47265-.40625 4.4375-2.44531v7.19922l-.05469.08984.0547.05078.14843-.05078-.14844-.08984v-7.19922l1.27344-1.58984 3.16406-2.13282 4.4375.3125 4.4414-.7539 2.46485 2.57422-2.46484 2.53515-4.4414.77735-4.4375-.7461-2.23048 1.875 2.23047 1.7539 3.10547 2.6836-1.5625 4.4375-1.54297.80078-4.4375-.55078-1.75-.25-2.6875-2.55469-.42969-1.8828"/><path fill="#00d4fc" fill-rule="evenodd" d="M183.94531 431.5586l-.05469-.05079.0547-.08984.14843.08984-.14844.05078"/><path fill="#fff" fill-opacity="0" fill-rule="evenodd" d="M197.26172 426.96094l-.38672.10937.38672.32422.27344-.32422-.27344-.10937"/><path fill="#00e8fc" fill-rule="evenodd" d="M205.69922 453.69922l-3.625-4.4375.82031-4.4414 2.1914-4.4375 1.05079-1.1172 4.4375-.26953v5.1836l-3.67578.64062-.76172.20313-1.58984 4.23828 1.58984 1.8164 4.4375-1.26171.79297-.5547.59765-4.4414-1.39062-.64062v-5.1836l1.27734 1.38672 3.16406 1.35547 2.3672 3.08203-1.77735 4.4414-.58984.7422-4.44141 2.79296-3.58984.90235-.84766.33203-.4375-.33203m.4375-23.08203l-2.59766-3.54688 2.59766-.42187.88281.42187-.88281 3.54688"/><path fill="#00d4fc" fill-rule="evenodd" d="M206.13672 451.07813l-1.58984-1.81641 1.58984-4.23828.76172-.20313 3.67578-.64062 1.39062.64062-.59765 4.4414-.79297.5547-4.4375 1.26171"/><path fill="#00e8fc" fill-rule="evenodd" d="M215.01563 416.77734l-2.6211-3.02343 2.6211-2.29688 2.91796 2.29688-2.91797 3.02343"/><path fill="#50fcfc" fill-rule="evenodd" d="M228.32813 430.25l-3.14063-3.17969 3.14063-3.33594.46484-1.10546 3.97266-3.6875 1.91406-.75-.08594-4.4375 2.61328-3.19922v8.25781l-4.4414 1.42969-2.57032 2.38672-1.86719 4.4375v.0039l4.4375 2.63281.96485 1.8047 3.47656 3.375 3.21094-3.375 1.22656-1.78126 4.4375-.5625 4.4375 1.02344 4.4375-.1289 4.4414-2.67579.3125-.3125.27344-4.4414-.58593-.5547-3.67578.5547-.76563.07812-4.4375-.01562-4.4375 1.92578L243 422.6289l-1.35547-.51563-4.4375-3.30078v-8.25781l4.4375.97265 3.05469-2.21093 1.38281-2.44922 1.35156 2.44922-1.35156 2.22265-1.3711 2.21485-3.0664 2.29687-1.97656 2.14063 1.97656 1.48046 4.4375.97657 4.4375-.69531 4.4375-.05079 4.4414-.16015 3.05079 2.88672-.14844 4.4414-2.90234 2.875-4.4414 1.16797-2.71485.39453-1.72266 1.20703-4.4375.33594-2.10156-1.54297-2.33594-.48437-.33594.48437-4.10156 4.3086-4.4414-4.3086-4.4375-1.25781"/><path fill="#00e8fc" fill-rule="evenodd" d="M228.32813 427.07031v-.0039l1.86718-4.4375 2.57031-2.38672v2.17187l-.23046.21485.23047 1.97265.24609 2.46875 2.32422 4.4375 1.8711 1.8125 1.72655-1.8125 2.71094-3.9375 1.17969-.5-1.17969-.9375-4.4375-3.30078-2.23437-.20312-2.20703-.21485v-2.17187l4.4414-1.42969 4.4375 3.30078 1.35547.51563 3.08203 1.98828 4.4375-1.92578 4.4375.01562v2.5664l-4.4375 1.45704-.50781.33984.50781.23828 4.4375.9922 1.91406-1.23048-1.91406-1.79687v-2.5664l.76563-.07813 3.67578-.5547.58594.5547-.27344 4.4414-.3125.3125-4.4414 2.67578-4.4375.12891-4.4375-1.02344-4.4375.5625-1.22657 1.78125-3.21094 3.375-3.47656-3.375-.96484-1.80469-4.4375-2.6328"/><path fill="#00d4fc" fill-rule="evenodd" d="M232.76563 424.60156l-.23047-1.97265.23047-.21485 2.20703.21485 2.23437.20312v2.0039l-2.21094 2.23438 1.94532 4.4375.26562.2539.24219-.2539 2.38281-4.4375-2.625-2.23437v-2.0039l4.4375 3.30077 1.17969.9375-1.17969.5-2.71094 3.9375-1.72656 1.8125-1.8711-1.8125-2.32421-4.4375-.2461-2.46875"/><path fill="#00c4fc" fill-rule="evenodd" d="M236.9414 431.50781l-1.9453-4.4375 2.21093-2.23437v2.00781l-.22656.22656.22656.52344.26563-.52344-.26563-.22656v-2.00781l2.625 2.23437-2.38281 4.4375-.24219.2539-.26562-.2539"/><path fill="#00b8fc" fill-rule="evenodd" d="M237.20703 427.59375l-.22656-.52344.22656-.22656.26563.22656-.26563.52344"/><path fill="#00d4fc" fill-rule="evenodd" d="M250.51953 427.3086l-.50781-.23829.50781-.33984 4.4375-1.45703 1.91406 1.79687-1.91406 1.23047-4.4375-.99219"/><path fill="#50fcfc" fill-rule="evenodd" d="M268.27344 432.17578l-1.17969-.66797 1.17969-.77344.96875.77344-.96875.66797m17.7539-9.47656l-.10156-.07031.10156-.14844.73047-4.28906 3.70703-3.33204v2.19141l-1.26953 1.14063-1.71875 4.4375 2.41797 4.4414.57031.94922 4.4375 1.17969 4.44141.8086 4.4375-2.13282.60938-.80469-.60938-.65625-4.4336-3.78515-.0039-.00391-4.4414-1.45703-3.20313-2.97656-1.23438-1.14063v-2.1914l3.59766 3.33203.83984.78125 4.44141.98046 3.9414-1.76171.4961-.6797.73047-3.7578 3.70703-3.45313v1.4961l-2.10156 1.95703 2.10156 2.78906 1.67969 1.64844 2.75781 2.22265 1.92188-2.22265-1.92188-2.98829-1.41797-1.44921-3.01953-1.95704v-1.49609l4.4375.80469 1.6211 2.64844 1.8125 4.4375-3.4336 3.96875-4.4375-2.8125-4.4375-.56641-1.55469 3.84766 1.55469 1.32812 2.91016 3.11328-2.91016 3.84766-4.15234.58984-.28516.08594-.25781-.08594-4.1836-.41406-3.03125.41406-1.40625.75781-.59765-.7578-2.3125-4.4375-1.52735-4.3711"/><path fill="#00e8fc" fill-rule="evenodd" d="M289.89453 427.07031l-2.41797-4.4414 1.71875-4.4375 1.26953-1.14063v4.48828l-.54687 1.08985.54687.92578 1.20704-.92578-1.20704-1.08985v-4.48828l1.23438 1.14063 3.20312 2.97656 4.44141 1.45703v3.82422l-1.48047.6211 1.48047.41015.71484-.41016-.71484-.6211V422.625l.0039.0039 4.4336 3.78516.60938.65625-.60938.80469-4.4375 2.13281-4.4414-.8086-4.4375-1.17968-.57032-.94922"/><path fill="#00d4fc" fill-rule="evenodd" d="M290.46484 423.55469l-.54687-.92578.54687-1.08985 1.20704 1.08985-1.20704.92578"/><path fill="#50fcfc" fill-rule="evenodd" d="M294.90234 462.16406l-2.17578-4.02734 2.17578-2.17578 3.47266 2.17578-3.47266 4.02734"/><path fill="#00d4fc" fill-rule="evenodd" d="M299.34375 427.48047l-1.48047-.41016 1.48047-.6211.71484.6211-.71484.41016"/><path fill="#00e8fc" fill-rule="evenodd" d="M308.21875 416.54297l-2.10156-2.78906 2.10156-1.95704 3.01953 1.95704 1.41797 1.44921 1.92188 2.98829-1.92188 2.22265-2.75781-2.22265-1.67969-1.64844"/><path fill="#50fcfc" fill-rule="evenodd" d="M325.97266 460.01172l-2.77735-1.875 2.77735-1.63672 1.6328 1.63672-1.6328 1.875m8.875-35.4961l-1.83985-1.88671 1.83985-3.35938 2.60156 3.35938-2.60156 1.88671m39.9453 27.45704l-2.71483-2.71094 2.71484-2.73828v2.61328l-.125.125.125.125.13281-.125-.13281-.125v-2.61328l2.8164 2.73828-2.8164 2.71094"/><path fill="#00e8fc" fill-rule="evenodd" d="M374.79297 449.38672l-.125-.125.125-.125.13281.125-.13281.125"/><g clip-path="url(#c)"><path fill="#50fcfc" fill-rule="evenodd" d="M391.71484 475.89063l-.64453-4.4375 1.47656-1.35157 4.4375-2.03515v2.875l-.8164.51171.8164.58204.60547-.58204-.60546-.51171v-2.875l3.99609 3.38671.44531 2.75391 1.30078-2.7539 3.13672-3.76563.15235-.67188.01953-4.4414-.17188-.22266-.7461.22266-3.6914 1.70312-2.64062-1.70312 1.57421-4.4375 1.06641-1.48047 1.39453-2.95703 3.04297-2.54297 4.4375 1.91016 1.10938-3.8047 3.32812-3.44921 2.38672-.99219 2.05469-3.51562 3.82422 3.51562.61328.10547.14062-.10547 4.29688-3.21484 4.4375-.45703v2.28906l-4.4375.22656-1.54297 1.15625-2.89453 2.10938-4.4375-.13281-4.4414 1.65234-.78126.8125.78125 4.22265.04297.21485-.04297.14062-4.4375 2.375-4.4375-1.02734-1.21484 2.94922 1.21484.98047 2.64453 3.45703.23047 4.4414-.92187 4.4375 2.48437 1.77344 3.17188-1.77344 1.26562-1.3828 1.59375-3.0547 2.84766-1.21093 4.4375-.09766 3.47265-3.13281-.66406-4.4375 1.01563-4.4375.61328-1.53906 4.4375-1.57813 1.19922-1.32031.26171-4.4414-1.46093-1.38282v-2.28906l3.875 3.67187-.38672 4.4414-3.48828 3.84767-1.29688.58984-3.14062 3.34765-.2539 1.08985.16796 4.4375-4.35156 3.92969-4.4375.17578-.78516.33594-1.14062 4.4375 1.92578 1.95703 2.5625 2.48046 1.875 2.26954 4.4375-.45313 2.22656-1.8164-1.3711-4.4375 3.58204-3.83594v3.09375l-.6914.74219.6914 1.23046.58984-1.23046-.58984-.7422v-3.09374l3.05078 3.83594-1.16406 4.4375-.85547 4.4375h-13l-1.34375-1.03125-3.79688-3.40625-.64453-.62891h-4.4375l-4.4375-2.3125-3.9336 2.9414-.5039.64844-1.39844-.64844-3.04296-.5703-2.44532.5703-1.99219.83204-.83203-.83204"/></g><path fill="#00e8fc" fill-rule="evenodd" d="M396.98438 472.03516l-.81641-.58204.8164-.51171.60547.51171-.60546.58204m8.8789-12.91797l-1.21484-.98047 1.21484-2.94922 4.4375 1.02734 4.4375-2.375.04297-.14062-.04297-.21485-.78125-4.22265.78125-.8125 4.4414-1.65235 4.4375.13282v3.77734l-4.21093 2.99219-.22656.38672-1.48828 4.05078-2.95313 1.8164-2.86719 2.6211 2.8672 2.91797 4.4414-1.14844 4.4375.03906 2-1.8086-1.48438-4.4375.95703-4.4375-1.47265-2.99218v-3.77734l2.89453-2.10938 1.54297-1.15625 4.4375-.22656 1.46094 1.38281-.26172 4.4414-1.19922 1.32032-4.4375 1.57813-.61328 1.53906-1.01563 4.4375.66406 4.4375-3.47265 3.13281-4.4375.09766-2.84766 1.21094-1.59375 3.05468-1.26562 1.38281-3.17188 1.77344-2.48437-1.77344.92187-4.4375-.23047-4.4414-2.64453-3.45703"/><path fill="#00d4fc" fill-rule="evenodd" d="M414.73828 465.49219l-2.86719-2.91797 2.8672-2.6211 2.95312-1.8164 1.48828-4.05078.22656-.38672 4.21094-2.99219v10.45313l-4.4375.30859-4.4414 1.03125-.08204.07422.08203.08594 4.4414.22656 4.4375.16797.53126-.48047-.53125-1.41406v-10.45313l1.47265 2.99219-.95703 4.4375 1.48438 4.4375-2 1.8086-4.4375-.03907-4.4414 1.14844"/><path fill="#00c4fc" fill-rule="evenodd" d="M414.73828 462.66016l-.08203-.08594.08203-.07422 4.4414-1.03125 4.4375-.3086.53126 1.41407-.53125.48047-4.4375-.16797-4.4414-.22656"/><path fill="#50fcfc" fill-rule="evenodd" d="M432.49219 464.78125l-2.95703-2.20703 2.95703-1.25 4.4375-1.09375 4.4414-.25781 4.38282-1.83594.05468-.04297v3.58984l-2.33984.89063 2.33984.58594.57813-.58594-.57813-.89063v-3.58984l.05079.04297 2.84765 4.4375L445.8086 465.5l-3.08984 1.51563-1.34766 1.60937-1.90625-1.60938-2.53515-2.26562-4.4375.03125"/><path fill="#00e8fc" fill-rule="evenodd" d="M432.49219 472.6836l-.6914-1.23048.6914-.74218.58984.74219-.58984 1.23046m13.3164-9.52343l-2.33984-.58594 2.33984-.89063.57813.89063-.57813.58594"/><g clip-path="url(#d)"><path fill="#50fcfc" fill-rule="evenodd" d="M462.0625 480.32813l-1.74219-4.4375.20703-4.4375 3.03516-3.35938v2.38281l-.88281.97656-.14844 4.4375 1.03125 1.8047 2.53125-1.8047.53125-4.4375-3.0625-.97656v-2.38281l4.4336.77344v9.22656l-2.98048 2.23438h-2.95312"/></g><path fill="#00e8fc" fill-rule="evenodd" d="M463.5625 477.69531l-1.03125-1.80469.14844-4.4375.88281-.97656 3.0625.97656-.53125 4.4375-2.53125 1.8047"/><g clip-path="url(#e)"><path fill="#fff" fill-opacity="0" fill-rule="evenodd" d="M467.9961 478.09375l-2.98048 2.23438h2.98047v-2.23438"/></g><path fill="#50fcfc" fill-rule="evenodd" d="M467.9961 463.42969l-.78126-.85547.78125-.77344v1.6289m0 5.4375v9.22657H468v-9.22656h-.0039"/><path fill="#fff" fill-opacity="0" fill-rule="evenodd" d="M467.9961 463.42969v5.4375H468v-5.4336l-.0039-.0039"/><path fill="#50fcfc" fill-rule="evenodd" d="M467.9961 461.80078v1.6289l.0039.00391v-1.63671l-.0039.0039"/><g clip-path="url(#f)"><path fill="#fff" fill-opacity="0" fill-rule="evenodd" d="M467.9961 311.67188H468v150.125-150.125h-.0039"/></g><path fill="#fff" fill-opacity="0" fill-rule="evenodd" d="M432.71094 459.22656l4.71875-3.4414-5.8711-8.04688-4.71875 3.4414 5.8711 8.04688"/><path fill-rule="evenodd" d="M430.75 450.60156l.41016-.30078 3.71093 5.08594-.63671.46094-2.64454-3.625-1.125.8164-.32421-.44922.41406-.3828.17187-.19142.13281-.20703.07813-.23437.01953-.26953-.0625-.32422-.14453-.3789"/><path fill="#fff" fill-opacity="0" fill-rule="evenodd" d="M215.92578 426.4961l4.29688-3.95313-6.7422-7.33203-4.30077 3.95703 6.7461 7.32812"/><path fill-rule="evenodd" d="M212.9961 418.14844l.375-.34766 4.26171 4.63281-.57812.53516-3.03906-3.30469-1.02344.9414-.375-.41015.36719-.42578.14843-.21094.10938-.22265.05469-.24219-.01563-.26953-.09375-.3164-.1914-.35938"/><path fill="#fff" fill-opacity="0" fill-rule="evenodd" d="M168.36719 471.50781l5.70703-1.2539-2.13672-9.72657-5.70703 1.25391 2.13672 9.72656"/><path fill-rule="evenodd" d="M170.04297 462.82031l.4961-.10937 1.35155 6.14844-.76953.16796-.96093-4.38671-1.35938.30078-.11719-.54297.53125-.1836.23438-.10546.20703-.13672.16797-.1836.125-.24219.07422-.3164.01953-.41016"/><g clip-path="url(#g)"><path fill="none" stroke="#000" stroke-linecap="round" stroke-linejoin="round" stroke-miterlimit="10" stroke-width=".5" d="M146.47266 477.83203l-4.94532 4.9961"/></g><path fill="none" stroke="#000" stroke-linecap="round" stroke-linejoin="round" stroke-miterlimit="10" stroke-width=".5" d="M145.75 478.5586l1.17578.35156"/><g clip-path="url(#h)"><path fill="none" stroke="#000" stroke-linecap="round" stroke-linejoin="round" stroke-miterlimit="10" stroke-width=".5" d="M160.27344 478.4336l-5.91797 3.78906"/></g><path fill="none" stroke="#000" stroke-linecap="round" stroke-linejoin="round" stroke-miterlimit="10" stroke-width=".5" d="M159.41406 478.98438l1.0664.60156"/><g clip-path="url(#i)"><path fill="none" stroke="#000" stroke-linecap="round" stroke-linejoin="round" stroke-miterlimit="10" stroke-width=".5" d="M173.77734 478.76172l-6.29297 3.13281"/></g><g clip-path="url(#j)"><path fill="none" stroke="#000" stroke-linecap="round" stroke-linejoin="round" stroke-miterlimit="10" stroke-width=".5" d="M172.85938 479.21875l1 .71484"/></g><g clip-path="url(#k)"><path fill="none" stroke="#000" stroke-linecap="round" stroke-linejoin="round" stroke-miterlimit="10" stroke-width=".5" d="M187.13672 478.85547l-6.38281 2.94531"/></g><g clip-path="url(#l)"><path fill="none" stroke="#000" stroke-linecap="round" stroke-linejoin="round" stroke-miterlimit="10" stroke-width=".5" d="M186.20703 479.28516l.97656.74218"/></g><g clip-path="url(#m)"><path fill="none" stroke="#000" stroke-linecap="round" stroke-linejoin="round" stroke-miterlimit="10" stroke-width=".5" d="M200.5039 478.98438l-6.48827 2.6914"/></g><g clip-path="url(#n)"><path fill="none" stroke="#000" stroke-linecap="round" stroke-linejoin="round" stroke-miterlimit="10" stroke-width=".5" d="M199.5625 479.375l.94531.78125"/></g><g clip-path="url(#o)"><path fill="none" stroke="#000" stroke-linecap="round" stroke-linejoin="round" stroke-miterlimit="10" stroke-width=".5" d="M214.08203 480.55469l-7.01172-.45313"/></g><g clip-path="url(#p)"><path fill="none" stroke="#000" stroke-linecap="round" stroke-linejoin="round" stroke-miterlimit="10" stroke-width=".5" d="M213.0625 480.48828l.5039 1.11719"/></g><g clip-path="url(#q)"><path fill="none" stroke="#000" stroke-linecap="round" stroke-linejoin="round" stroke-miterlimit="10" stroke-width=".5" d="M227.30078 481.17188l-6.82031-1.6836"/></g><g clip-path="url(#r)"><path fill="none" stroke="#000" stroke-linecap="round" stroke-linejoin="round" stroke-miterlimit="10" stroke-width=".5" d="M226.3086 480.92578l.30077 1.1914"/></g><g clip-path="url(#s)"><path fill="none" stroke="#000" stroke-linecap="round" stroke-linejoin="round" stroke-miterlimit="10" stroke-width=".5" d="M240.55078 481.40625l-6.6914-2.15625"/></g><g clip-path="url(#t)"><path fill="none" stroke="#000" stroke-linecap="round" stroke-linejoin="round" stroke-miterlimit="10" stroke-width=".5" d="M239.57813 481.09375l.21484 1.20703"/></g><g clip-path="url(#u)"><path fill="none" stroke="#000" stroke-linecap="round" stroke-linejoin="round" stroke-miterlimit="10" stroke-width=".5" d="M253.94922 481.08984l-6.85938-1.51953"/></g><g clip-path="url(#v)"><path fill="none" stroke="#000" stroke-linecap="round" stroke-linejoin="round" stroke-miterlimit="10" stroke-width=".5" d="M252.95313 480.86719l.32812 1.1836"/></g><g clip-path="url(#w)"><path fill="none" stroke="#000" stroke-linecap="round" stroke-linejoin="round" stroke-miterlimit="10" stroke-width=".5" d="M267.23828 481.19922l-6.80469-1.74219"/></g><g clip-path="url(#x)"><path fill="none" stroke="#000" stroke-linecap="round" stroke-linejoin="round" stroke-miterlimit="10" stroke-width=".5" d="M266.25 480.94531l.28906 1.1914"/></g><g clip-path="url(#y)"><path fill="none" stroke="#000" stroke-linecap="round" stroke-linejoin="round" stroke-miterlimit="10" stroke-width=".5" d="M280.63672 480.77344l-6.97266-.88672"/></g><g clip-path="url(#z)"><path fill="none" stroke="#000" stroke-linecap="round" stroke-linejoin="round" stroke-miterlimit="10" stroke-width=".5" d="M279.6211 480.64453l.4375 1.14453"/></g><g clip-path="url(#A)"><path fill="none" stroke="#000" stroke-linecap="round" stroke-linejoin="round" stroke-miterlimit="10" stroke-width=".5" d="M293.88672 481.13672l-6.83985-1.61328"/></g><g clip-path="url(#B)"><path fill="none" stroke="#000" stroke-linecap="round" stroke-linejoin="round" stroke-miterlimit="10" stroke-width=".5" d="M292.89063 480.90234l.3125 1.1836"/></g><g clip-path="url(#C)"><path fill="none" stroke="#000" stroke-linecap="round" stroke-linejoin="round" stroke-miterlimit="10" stroke-width=".5" d="M306.99219 481.7539l-6.42188-2.84765"/></g><g clip-path="url(#D)"><path fill="none" stroke="#000" stroke-linecap="round" stroke-linejoin="round" stroke-miterlimit="10" stroke-width=".5" d="M320.21875 481.9414l-6.2461-3.22265"/></g><g clip-path="url(#E)"><path fill="none" stroke="#000" stroke-linecap="round" stroke-linejoin="round" stroke-miterlimit="10" stroke-width=".5" d="M333.39844 482.17969l-5.97266-3.70313"/></g><g clip-path="url(#F)"><path fill="none" stroke="#000" stroke-linecap="round" stroke-linejoin="round" stroke-miterlimit="10" stroke-width=".5" d="M346.5664 482.39453l-5.67968-4.13281"/></g><g clip-path="url(#G)"><path fill="none" stroke="#000" stroke-linecap="round" stroke-linejoin="round" stroke-miterlimit="10" stroke-width=".5" d="M360.24219 481.77734l-6.40235-2.89843"/></g><g clip-path="url(#H)"><path fill="none" stroke="#000" stroke-linecap="round" stroke-linejoin="round" stroke-miterlimit="10" stroke-width=".5" d="M373.74219 481.26172l-6.77344-1.86328"/></g><g clip-path="url(#I)"><path fill="none" stroke="#000" stroke-linecap="round" stroke-linejoin="round" stroke-miterlimit="10" stroke-width=".5" d="M372.75781 480.98828l.26953 1.19922"/></g><g clip-path="url(#J)"><path fill="none" stroke="#000" stroke-linecap="round" stroke-linejoin="round" stroke-miterlimit="10" stroke-width=".5" d="M387.1836 480.3789l-7.02735-.10156"/></g><g clip-path="url(#K)"><path fill="none" stroke="#000" stroke-linecap="round" stroke-linejoin="round" stroke-miterlimit="10" stroke-width=".5" d="M386.16406 480.36328l.5586 1.09375"/></g><g clip-path="url(#L)"><path fill="none" stroke="#000" stroke-linecap="round" stroke-linejoin="round" stroke-miterlimit="10" stroke-width=".5" d="M400.48047 479.94531l-6.98828.76563"/></g><g clip-path="url(#M)"><path fill="none" stroke="#000" stroke-linecap="round" stroke-linejoin="round" stroke-miterlimit="10" stroke-width=".5" d="M399.46094 480.0586l.6914 1.01562"/></g><g clip-path="url(#N)"><path fill="none" stroke="#000" stroke-linecap="round" stroke-linejoin="round" stroke-miterlimit="10" stroke-width=".5" d="M413.66797 479.32422l-6.73438 2.00781"/></g><g clip-path="url(#O)"><path fill="none" stroke="#000" stroke-linecap="round" stroke-linejoin="round" stroke-miterlimit="10" stroke-width=".5" d="M413.66797 479.32422l1.72265 1.7461"/></g><g clip-path="url(#P)"><path fill="none" stroke="#000" stroke-linecap="round" stroke-linejoin="round" stroke-miterlimit="10" stroke-width=".5" d="M412.6875 479.61719l.86328.875"/></g><g clip-path="url(#Q)"><path fill="none" stroke="#000" stroke-linecap="round" stroke-linejoin="round" stroke-miterlimit="10" stroke-width=".5" d="M426.7539 478.7461l-6.27343 3.16406"/></g><g clip-path="url(#R)"><path fill="none" stroke="#000" stroke-linecap="round" stroke-linejoin="round" stroke-miterlimit="10" stroke-width=".5" d="M426.7539 478.7461l2.00391 1.41796"/></g><g clip-path="url(#S)"><path fill="none" stroke="#000" stroke-linecap="round" stroke-linejoin="round" stroke-miterlimit="10" stroke-width=".5" d="M425.83984 479.20703l2.00391 1.41797"/></g><g clip-path="url(#T)"><path fill="none" stroke="#000" stroke-linecap="round" stroke-linejoin="round" stroke-miterlimit="10" stroke-width=".5" d="M424.92969 479.66797l1 .70703"/></g><g clip-path="url(#U)"><path fill="none" stroke="#000" stroke-linecap="round" stroke-linejoin="round" stroke-miterlimit="10" stroke-width=".5" d="M439.9414 478.51953l-6.01952 3.6211"/></g><g clip-path="url(#V)"><path fill="none" stroke="#000" stroke-linecap="round" stroke-linejoin="round" stroke-miterlimit="10" stroke-width=".5" d="M439.9414 478.51953l2.10548 1.26172"/></g><path fill="none" stroke="#000" stroke-linecap="round" stroke-linejoin="round" stroke-miterlimit="10" stroke-width=".5" d="M439.0664 479.04297l1.05079.63281"/><g clip-path="url(#W)"><path fill="none" stroke="#000" stroke-linecap="round" stroke-linejoin="round" stroke-miterlimit="10" stroke-width=".5" d="M453.66797 479.52734l-6.84375 1.60547"/></g><g clip-path="url(#X)"><path fill="none" stroke="#000" stroke-linecap="round" stroke-linejoin="round" stroke-miterlimit="10" stroke-width=".5" d="M453.66797 479.52734l1.61719 1.84375"/></g><g clip-path="url(#Y)"><path fill="none" stroke="#000" stroke-linecap="round" stroke-linejoin="round" stroke-miterlimit="10" stroke-width=".5" d="M466.42969 482.35547l-5.73828-4.05469"/></g><g clip-path="url(#Z)"><path fill="none" stroke="#000" stroke-linecap="round" stroke-linejoin="round" stroke-miterlimit="10" stroke-width=".5" d="M147.08594 465.33594l-6.17188 3.35547"/></g><path fill="none" stroke="#000" stroke-linecap="round" stroke-linejoin="round" stroke-miterlimit="10" stroke-width=".5" d="M146.1875 465.82422l1.02344.67578m13.50781-.35156l-6.8086 1.73047m5.82032-1.48047l.82422.91015m13.48828-1.1328l-6.82422 1.67577m5.83203-1.4336l.8164.91407m13.39454-1.47656l-6.63281 2.3164m6.6328-2.3164l1.80079 1.66797m11.54297-1.58203l-6.6914 2.14453m5.71874-1.83203l.8789.85547m13.48438-.89063l-6.84375 1.58984M213 466.44922l.8086.92578m13.55859.13281l-6.95703-.98828m5.9453.84375l.41798 1.15235m13.84765-.6836l-6.83203-1.63672m5.83985 1.39844l.30859 1.1875m13.55469.10547l-5.94531-3.7461m5.08203 3.19922l-.08985 1.22266m14.58203-1.30078l-6.5703-2.49219m5.61327 2.1289l.15625 1.21485m14.17188-1.01172l-6.6836-2.17578m5.71094 1.85938l.21094 1.20703m14.22656-1.58985l-6.98437-.77734m5.96875.66406l.45312 1.14063m13.08203.83984l-5.39062-4.51172m4.60547 3.85547l-.25391 1.19922m14.40625-.60937l-5.4961-4.37891m4.69532 3.74219l-.22266 1.20703m14.96094-1.76953l-6.74219-1.98047m5.76172 1.6914l.2461 1.20313m14.1914-1.8711l-7.02734-.0664m6.00781.05469l.5625 1.08984m13.76953-1.2539l-7.01953.28515m20.3125.27344l-6.97656-.83203m5.96093.71093l.44532 1.14454m13.69922-.23829l-6.60157-2.40234m5.64063 2.05469l.17187 1.21484m12.6875.89844l-3.76953-5.9336m3.76953 5.9336l-1.21093 2.13281m13.14843-1.6211l-1.01562-6.95702m.86719 5.9453l-.98829.72267m14.89844.1914l-1.91015-6.76172m1.6328 5.77735l-.88671.85156m16.99219-2.67188l-6.9336-1.15234m20.22266-.1289l-6.88281 1.41015m5.88281-1.20703l.78125.94531m12.71875 1.89063l-5.25-4.66797m5.25 4.66797l-.57813 2.38671"/><g clip-path="url(#aa)"><path fill="none" stroke="#000" stroke-linecap="round" stroke-linejoin="round" stroke-miterlimit="10" stroke-width=".5" d="M147.32031 452.54688l-6.64062 2.30468"/></g><path fill="none" stroke="#000" stroke-linecap="round" stroke-linejoin="round" stroke-miterlimit="10" stroke-width=".5" d="M146.35156 452.88281l.90235.83203m13.57422.00782l-7.02735-.05079m6.0039.04297l.57032 1.08985m13.75781-.85157l-7.00781-.51171m5.98828.4375l.4961 1.125m13.83984-1.07032l-7.00781-.47265m5.98828.40625l.5039 1.11718m13.82422-1.60156l-6.9961.63281m5.98048-.53906l.67187 1.02735m13.63672-1.3125l-6.95312 1.01562m5.9414-.86719l.72656.98828m13.6211-.96484l-6.99219.67188m5.97656-.57422l.67578 1.02343m13.66016-.5078l-7.0039-.5547m5.98437.47266l.49219 1.125m13.67187-.19922l-6.66015-2.2461m5.6914 1.92188l.19922 1.20703m14.03516-.7539l-6.5664-2.5m5.61327 2.13672l.15235 1.21875m14.33984-1.89453l-7.01172-.42188m5.99219.35938l.51172 1.11718m13.83203-1.2539l-7.02734-.02344m6.0039.01953l.57031 1.08594m13.73438-.6289l-6.96484-.9297m19.36328 2.86329l-5.12891-4.80079m4.38281 4.10547l-.32031 1.1836m15.14453-1.76172l-6.65625-2.25m5.6875 1.92187l.19922 1.21094m14.23047-2.53125l-6.94922 1.04297m5.9414-.89063l.72657.98829m13.63281-.44141l-7.01953-.35547m5.9961.30469l.52343 1.10937m9.1914 2.09766l2.23048-6.66406m14.78515 5.70703l-5.17578-4.7539m4.42188 4.0625l-.3086 1.1875m13.21485.33984l-2.84766-6.42188m2.4336 5.48828l-.75391.96485m12.22656.17187l1.66406-6.82812m-1.42187 5.83203l-1.1875.30468m13.30078.29688l3.58594-6.04297m-3.06641 5.16406l-1.22266-.05468m13.95313.89453l3.71484-5.96094m-3.17578 5.09375l-1.22265-.08594m12.75-.38281l6.21093-3.28906m-5.30468 2.8086l-1.01954-.6875m19.64063 1.16796l-6.21094-3.28906m5.30469 2.8086l.0039 1.23046"/><g clip-path="url(#ab)"><path fill="none" stroke="#000" stroke-linecap="round" stroke-linejoin="round" stroke-miterlimit="10" stroke-width=".5" d="M147.35938 441.41406l-6.71875-2.0625"/></g><path fill="none" stroke="#000" stroke-linecap="round" stroke-linejoin="round" stroke-miterlimit="10" stroke-width=".5" d="M146.38281 441.11328l.23047 1.20703m14.19922-1.58593l-6.99219-.70313m5.97266.60156l.46484 1.13672m13.85156-1.8711l-6.96093.96876m20.29687-.1875l-7-.58985m5.98047.50391l.48438 1.125m13.51562.1875l-6.33203-3.04687m5.41016 2.60546l.05078 1.22266m13.875-.2539l-5.70703-4.10157m4.875 3.5039l-.16407 1.21485m14.67188-1.2539l-6.42969-2.82813m19.82031.17969l-6.57812 2.46875m5.6211-2.10938l.91796.8125m11.08594.0625l-.01953-.19922-.0586-.1914-.09375-.17578-.46093-.37891-.19141-.0586-.19922-.01953-.19922.01954-.1914.05859-.45703.3789-.09766.17579-.05469.1914-.01953.19922.01953.19922.05469.1914.09766.1797.45703.375.1914.05859.19922.01953.19922-.01953.1914-.0586.46094-.375.09375-.17968.0586-.1914.01953-.19923m15.27344 1.85938l-5.96094-3.71875m5.09375 3.17969l-.08594 1.22265m13.17969.41797l-3.78516-5.92188m18.35157 1.39063l-6.28516 3.14063m5.3711-2.6836l1 .71094m13.59765.29297l-7.02344.21875m6-.1875l.60938 1.0664m13.30859.6836l-6.1836-3.33985m5.28516 2.85157l-.00781 1.22656m14.07422-.4961l-5.89063-3.82812m5.03516 3.27344l-.10937 1.22265m14.38671-.83593l-6.10156-3.48828m5.21094 2.98046l-.03516 1.22657m12.21094-2.46485l-.01953-.19922-.0586-.1914-.09374-.17578-.45704-.37891-.1914-.0586-.19922-.01952-.20313.01953-.1914.05859-.45703.3789-.09375.17579-.0586.1914-.01953.19922.01953.19922.0586.1914.09375.1797.45703.375.1914.05859.20313.01953.19922-.01953.1914-.0586.45704-.375.09375-.17968.05859-.1914.01953-.19923m14.71484-2.54297l-4.84375 5.08985m14.66016.79687l2.15625-6.6875m11.59375 6.80078l1.28516-6.91015m10.53125 6.23828l4.28515-5.57031m-3.66406 4.76172l-1.20703-.20704m13.90625 1.01954l4.27344-5.57813m-3.65235 4.76953l-1.21093-.20312m15.0039 1.58203l2.07422-6.71485m-1.77344 5.73438l-1.20312.23047m14.2539.75781l2.00391-6.73437m15.5039 4.83593l-6.38671-2.9336m5.45703 2.50392l.07031 1.22656"/><g clip-path="url(#ac)"><path fill="none" stroke="#000" stroke-linecap="round" stroke-linejoin="round" stroke-miterlimit="10" stroke-width=".5" d="M147.29297 428.29297l-6.58594-2.44922"/></g><path fill="none" stroke="#000" stroke-linecap="round" stroke-linejoin="round" stroke-miterlimit="10" stroke-width=".5" d="M146.33594 427.9375l.16015 1.21484m14.23438-1.2539l-6.82813-1.66016m5.83203 1.41797l.3047 1.1875m7.72655-3.8086l5.73047 4.06641m13.82032-1.04297l-6.7422-1.98047m14.05079-1.33593l5.26953 4.65234m10.8125 1.1836l-.26172-7.01954m9.94531 3.21485l7 .58984m7.14454 1.98828l5.33984-4.5664m-4.5625 3.90234l-1.14063-.44922m16.17579 2.33984l.34765-7.01953m-.29687 5.9961l-1.10938.52343m14.27344.4922l.54688-7.00391m-.46875 5.98437l-1.125.49219m13.26562.26172l2.73828-6.47266m-2.33984 5.53125l-1.22266.10547m15.1914 1.09766l.63282-6.9961m-.53906 5.98047l-1.13281.47266m13.92578.47656l1.49218-6.86328M303.25 429.5039l-1.17969.33203m18.48828-2.17969l-6.92578-1.17578m20.23828 1.19922l-6.92187-1.22266m5.91406 1.04297l.3789 1.16797m10.85938-5.09375l-.75 6.98828m12.03907-.39453l3.30078-6.19922m-2.82032 5.29687h-1.22656m13.05469.10547l5.3125-4.60547m-4.53906 3.9336l-1.14453-.4414m15.59765-4.6211l1.49219 6.86719m-1.27344-5.8711l.9336-.79297m16.3125 2.36328l-6.8086 1.73047m5.82031-1.48047l.82422.91016m12.82032-2.48437l-5.4922 4.3789m18.8672-4.30469l-5.60938 4.23047m4.79297-3.61718l1.11328.51953m13.60547.07031l-6.78516 1.82422m18.64063 2.02344l-3.86719-5.8711m3.30469 5.01563l-.58985 1.07812m14.2422-.08594L461.85155 424m2.92188 5.2461l-.66797 1.02734"/><g clip-path="url(#ad)"><path fill="none" stroke="#000" stroke-linecap="round" stroke-linejoin="round" stroke-miterlimit="10" stroke-width=".5" d="M147.51172 413.875l-7.02344-.24219"/></g><path fill="none" stroke="#000" stroke-linecap="round" stroke-linejoin="round" stroke-miterlimit="10" stroke-width=".5" d="M146.48828 413.83984l.53906 1.10157m13.71875-1.9375l-6.86328 1.5m5.86719-1.28125l.79297.93359m13.59375-.19531l-7.01563-.41406m5.9961.35546l.51172 1.11328m13.82422-1.42578l-7.01563.32813m19.13672-2.8086l-4.6289 5.28907m12.24218-3.57031l6.77734 1.85156m6.4297-.58594l6.99218-.67969m6.63672 1.82813l6.36719-2.97656m-5.44141 2.54296l-.98047-.73828m15.1211 2.89063l2.85937-6.41797m-2.4414 5.48437l-1.22657.08594m13.64063.58594l3.82812-5.89453m-3.26953 5.03906l-1.22266-.10938m13.44922.54297l4.88672-5.05078m-4.17578 4.3164l-1.17969-.33984m13.9414 1.21875l4.57032-5.33593m-3.90625 4.5586l-1.19531-.26563m15.35937 1.80078l1.54688-6.85156m11.73437 6.84375l1.61328-6.83985m-1.3789 5.84766l-1.1875.3086m13.83593.55468l2.47657-6.57813m-2.11328 5.6211l-1.21875.15625m12.25-.95313l6.3203-3.07031m8.28126 4.50781l3.7461-5.94531m8.23437 4.40234l6.41797-2.85937m-5.48438 2.44531l-.96875-.75781m13.1211-.98438l6.875 1.44922m-5.875-1.23828l-.33985-1.17578m14.48047-1.4336l3.22266 6.2461m-2.75391-5.33594l.69922-1.00781m14.375-.23828l-1.23438 6.91797m1.0547-5.91016l1.16796-.375m13.64844-.10156l-3.875 5.85937m3.875-5.85937l2.4414.23437m11.82422.69532l-5.77734 4m4.9375-3.41797l1.08984.5625m12.96094 2.9961l-5.57031-4.28517m4.76172 3.66407l-.20704 1.20703m14.79297-1.38672l-6.49609-2.67969m5.55078 2.28906l.1211 1.22266"/><g clip-path="url(#ae)"><path fill="none" stroke="#000" stroke-linecap="round" stroke-linejoin="round" stroke-miterlimit="10" stroke-width=".5" d="M147.51172 400.41797l-7.02344.04297"/></g><path fill="none" stroke="#000" stroke-linecap="round" stroke-linejoin="round" stroke-miterlimit="10" stroke-width=".5" d="M146.49219 400.42188l.58203 1.08203m13.73437-.69922l-6.98828-.73047m5.97266.625l.46094 1.13672m13.26562-3.39453l-5.78125 3.99218m15.57813-5.45312l1.2578 6.91406M183.5 397.98828l.96094-.76172m10.78906.32813l4.01953 5.76562m-3.4336-4.92578l.5586-1.08984m11.02734 1.58203l6.3047 3.10156m-5.38673-2.64844l-.03906-1.22656m12.14063 1.66406l6.89843 1.32422m-5.89453-1.13281l-.36328-1.17188m16.72266-1.8203l-1.19922 6.92187m1.02344-5.91406l1.16797-.38282m12.74609 2.83594l-.01953-.19922-.0586-.1914-.09375-.17579-.46093-.3789-.19141-.05469-.19922-.02344-.19922.02344-.1914.05469-.45703.3789-.09766.17579-.05469.1914-.01953.19922.01953.19922.05469.1914.09766.1797.45703.375.1914.05859.19922.01953.19922-.01953.1914-.0586.46094-.375.09375-.17969.0586-.1914.01953-.19922m9.86719 2.54297l4.84765-5.08594m-4.14062 4.34766l-1.1836-.33203m13.28125.46093l5.8711-3.86328m-5.01563 3.30078l-1.07812-.58984m13.5625 1.1875l5.82422-3.9336m-4.97657 3.35938l-1.08593-.57422m13.14453.33203l6.64062-2.30078m13.24219-.1914l-6.4961 2.67968m19.83985-.07421l-6.55469-2.53125M344.75 400.4375l-.01953-.19922-.0586-.1914-.09765-.17579-.45703-.3789-.1914-.05469-.19923-.02344-.19922.02344-.1914.05469-.46094.3789-.09375.17579-.0586.1914-.01952.19922.01953.19922.05859.1914.09375.1797.46094.375.1914.05859.19922.01953.19922-.01953.1914-.0586.45704-.375.09766-.17969.05859-.1914.01953-.19922m9.78125 2.46094l5.01953-4.91797m9.91797 5.85547l1.77734-6.79688m-1.51953 5.8086l-1.19531.28515m18.3711-1.3086l-6.46094-2.76952m5.51953 2.36328l.10156 1.22265m11.46875-5.67187l-1.08984 6.9414m15.13672-.19921l-2.5547-6.54688m17.75391 1.74219l-6.32421 3.0625m5.40625-2.61719l.98828.72266m13.40625-.77344l-6.64844 2.27735m5.6836-1.94532l.89452.83594m13.1875 1.57422l-6.25-3.21094m5.33985 2.7461l.01953 1.22656m14.10547-.57422l-6.04688-3.58203m5.16797 3.0586l-.0586 1.22655"/><g clip-path="url(#af)"><path fill="none" stroke="#000" stroke-linecap="round" stroke-linejoin="round" stroke-miterlimit="10" stroke-width=".5" d="M147.30469 385.9336l-6.60938 2.3789"/></g><path fill="none" stroke="#000" stroke-linecap="round" stroke-linejoin="round" stroke-miterlimit="10" stroke-width=".5" d="M160.73438 387.92578l-6.83985-1.60547m16.30469-2.6836l.86328 6.97267m-.73828-5.95704l1.0039-.70703m12.25-.3164l.73438 6.98828m-.6289-5.97266l1.01562-.6836m9.95703.8047l5.21094 4.71484m-4.45313-4.02735l.30078-1.1914m17.4336.46875l-5.14453 4.78515m4.39453-4.08984l1.16015.40235m13.69532 2.3164l-6.72657-2.04297m17.90625 4.3125l-2.45703-6.58203m17.52735 1.4375l-5.96875 3.70703m14.4453 1.1289l3.71095-5.96483m8.62109 5.05468l5.67578-4.14062m-4.85156 3.53515l-1.10156-.53515m12.9453-.48828l6.97267-.88282m-5.95704.75391l-.71093-1.0039m13.16796 1.8164l6.65625-2.2539m-5.6875 1.92577l-.89453-.83984m13.07032.375l6.99609-.66797m-5.97656.57031l-.67578-1.02343m19.28906-1.3086l-5.63672 4.19141m19.09766-.21094l-5.9297-3.76953m5.06642 3.22266l-.09766 1.22265m13.35156.30079L355 384.26563m3.48828 4.88671l-.54687 1.09766m15.49218-1.42969l-6.15625-3.39453m5.26172 2.89844l-.01953 1.22656m14.57031-3.23828l-6.83593 1.6211m5.83984-1.38673l.8125.92188m13.48828-1.1914l-6.8164 1.6953m20.22265-1.15624l-7 .61328m5.98047-.52344l.67188 1.02734m13.20312-2.5703l-6.07813 3.52343m5.19532-3.01172l1.03906.64844m13.34766-.78516l-6.45704 2.76953m5.51954-2.36719l.95312.76954m13.3125 1.5664l-6.48437-2.70703m5.54296 2.3125l.11329 1.22266m13.46484.22265L461 384.71875m5.125 4.8086l-.64453 2.36718"/><g clip-path="url(#ag)"><path fill="none" stroke="#000" stroke-linecap="round" stroke-linejoin="round" stroke-miterlimit="10" stroke-width=".5" d="M147.3086 372.625l-6.6172 2.36719"/></g><path fill="none" stroke="#000" stroke-linecap="round" stroke-linejoin="round" stroke-miterlimit="10" stroke-width=".5" d="M146.34375 372.96875l.91016.82422m12.54687-2.46875l-4.96875 4.96875m18.3789-4.86719l-5.16405 4.76563m4.41406-4.07422l1.15625.40625m10.65625-2.21485l-.65625 6.9961m.5625-5.97656l1.13281-.47266m15.46094 2.90234l-7.02735.10156m7.02735-.10156l1.1836 2.14844m12.05858-1.39453l-6.8828-1.40625m6.8828 1.40625l.69532 2.35547m12.44531-1.75781l-6.53125-2.60157m5.57813 2.22266l.13671 1.21875m13.96094-.48047l-6.1914-3.32031m6.1914 3.32031l-.00781 2.45313m13.61719-3.19532l-6.78125-1.83984m5.79687 1.57422l.26953 1.19531m14.10156-2.45313l-6.92187 1.21094m5.91406-1.03515l.7539.96875m13.56641-1.15625l-6.91796 1.23437m5.91015-1.05469l.75782.96485m6.59375-.5664l7.02734.07421m-6.0039-.0625l-.56641-1.08984m13.18359 2.60156l6.3711-2.96875m-5.44141 2.53515l-.98047-.73828m13.82812 1.90625l5.44922-4.4414m-4.65625 3.79687l-1.1289-.47656m16.375 2.41406v-7.02734m0 6.00781l-1.08204.57422m16.60938-.33594l-4.42578-5.46094m3.78515 4.66407l-.48046 1.1289m15.23828-1.2539L354.02734 372m5.14844 3.08984l-.0625 1.22657m14.3789-.92188l-6.26952-3.17578m5.35546 2.71484l.02344 1.22657m14.29688-3.73829l-6.45703 2.77344m16.80468-4.89062l-.51953 7.00781m15.04297-6.69531L408.83203 377m18.29297-3.01172l-7.01563-.35937m19.29688-2.31641l-4.94922 4.99219m4.22656-4.26563l1.17579.35156m13.89843 1.32422l-7.02344.1875m6.00391-.16015l.60547 1.0664m11.26953 2.35157l-2.10547-6.70313m1.80078 5.72656l-.85937.875"/><g clip-path="url(#ah)"><path fill="none" stroke="#000" stroke-linecap="round" stroke-linejoin="round" stroke-miterlimit="10" stroke-width=".5" d="M147.30469 359.30078l-6.60938 2.38281"/></g><path fill="none" stroke="#000" stroke-linecap="round" stroke-linejoin="round" stroke-miterlimit="10" stroke-width=".5" d="M147.30469 359.30078l1.82031 1.64844m11.66797-.96094l-6.95703 1.00781m5.94531-.85937l.72266.98828m13.14453-2.42578l-6.03906 3.58984m5.16015-3.07031l1.05078.63672m13.61328 1.0625l-6.97656-.84766m6.97656.84766l.88282 2.28906m12.35937-1.89062l-6.83203-1.64454m6.83203 1.64454l.61328 2.375m12.6211-2.08985l-6.66797-2.21484m6.66797 2.21484l.41015 2.41797m12.51563-1.60937l-5.89063-3.83204m5.03125 3.27344l-.10547 1.22266m13.3711.28125l-4.07031-5.72656m3.47656 4.89453l-.55078 1.09765m14.32812-.17578l-3.8086-5.90625m12.69923.5039l5.03906 4.89845M277.53125 357l-.76172 6.98438m14.21485-6.96485l-1.03907 6.94922m12.96875-.07031l1.73438-6.8086m-1.48438 5.81641l-1.1914.29297m14.44921.74219l1.34766-6.89844m-1.14844 5.89453l-1.17578.35938m14.20313.625l1.52344-6.85938m-1.30079 5.86328l-1.18359.32813m13.75781.51171l2.5625-6.54296m-2.1914 5.58984l-1.21485.14063m16.32813.9375l-1.77735-6.79688m1.51954 5.8086l-.90235.83202m16.5625-1.375l-5.95312-3.73437m15.9414-1.6289l.69922 6.99218m-.59765-5.97265l1.02343-.6836m13.26172-.27734l-1.4414 6.8789m1.23046-5.8789l1.1797-.33985m12.16796-.6914l-1.08594 6.9414m.92578-5.93359l1.16016-.40234m11.89844-.64844l-.25 7.02344m.21484-6l1.10156-.53516m11.29297-.39063l1.66016 6.82813m-1.41797-5.83203l.91406-.8164m10.17969 1.1289l5.6211 4.21484m8.6953.90625l3.6172-6.02734"/><g clip-path="url(#ai)"><path fill="none" stroke="#000" stroke-linecap="round" stroke-linejoin="round" stroke-miterlimit="10" stroke-width=".5" d="M147.33594 346.07813l-6.67188 2.20312"/></g><path fill="none" stroke="#000" stroke-linecap="round" stroke-linejoin="round" stroke-miterlimit="10" stroke-width=".5" d="M147.33594 346.07813l1.77344 1.6953m-2.7422-1.375l.88673.84766m13.57422-.03906l-7.02735-.0586m7.02734.0586l1.13282 2.17578m12.1836-2.16015l-7.02735-.08985m7.02734.08985l1.1211 2.18359m12.17578-1.89844l-6.9961-.66015m6.9961.66015l.9453 2.26563m12.31642-1.89844l-6.88672-1.39453m6.88672 1.39453l.69921 2.35156m12.6797-2.8164l-7.01173-.46485m5.99219.39844l.5 1.1211m13.45703-2.88673l-6.25781 3.19922m5.34766-2.73437l1.0039.70312m7.97656-2.37109l4.23438 5.60547m-3.6211-4.78906l.51954-1.11329m11.35156 1.1875l5.89453 3.82422m-5.03906-3.26562l.10547-1.22266m12.6914.22266l5.21875 4.70703m-4.45703-4.02344l.29688-1.1875m12.1875.58594l5.35547 4.54688m-5.35547-4.54688l.52343-2.39844m12.4922 2.80469l5.95312 3.73047m-5.08594-3.1875l.08594-1.22266m12.8164 4.98828l5.04688-4.88671m-4.3125 4.17578l-1.16797-.37891m14.78125 1.82813l2.98047-6.36329m-2.98047 6.36329l-2.45313.12109m14.98829-.6211l4.53906-5.36328m-3.8789 4.58594l-1.19923-.26172m13.47657.66797l5.29687-4.6211m-4.52734 3.94923l-1.14453-.4375m18.92968 1.17187l-5.1836-4.7461m19.41407 2.16016l-7.01562.42579m5.99609-.36329l.64063 1.04688m12.39843-3.6289l-4.42187 5.46484m3.77734-4.66797l1.20313.23437m10.41015-1.8086l.26953 7.01954m-.23046-6l1.05859-.61719m11.48047-.29687l1.74219 6.8086m-1.48829-5.81642l.90625-.82812m11.51172.07031l3.02735 6.33985m-2.58594-5.41797l.73047-.98438m12.3086-.01172l2.69921 6.48829m-2.3086-5.54297l.77735-.94922m12.17969-.00781l2.63672 6.51171m-2.25391-5.5664l.78906-.9375m10.22657 1.8711l6.46484 2.7539m-5.52344-2.35156l-.10547-1.22266"/><g clip-path="url(#aj)"><path fill="none" stroke="#000" stroke-linecap="round" stroke-linejoin="round" stroke-miterlimit="10" stroke-width=".5" d="M147.32422 332.72266l-6.64844 2.28125"/></g><path fill="none" stroke="#000" stroke-linecap="round" stroke-linejoin="round" stroke-miterlimit="10" stroke-width=".5" d="M147.32422 332.72266l1.79297 1.67578m-2.76172-1.34375l1.79297 1.67578m12.44922-2.1211l-6.5625 2.50782m6.5625-2.50781l1.84765 1.60937m-2.80469-1.2461l.92579.8047m13.27343-1.34376l-6.41797 2.85938m6.41797-2.85938l1.9336 1.51172m10.75781-2.45703l-5.17578 4.75m4.42578-4.0586l1.15625.40626m10.86328-2.19531l-1.08203 6.9453m.92578-5.93359L198.8047 331m13.46094-.21484l-3.38282 6.15625m2.89063-5.26172L213 331.6953m12.59375-.90625l-3.40625 6.14844m2.91016-5.2539l1.22656.01952m10.79687-1.35156l.16797 7.02344m-.14453-6.0039l1.07031-.60157m9.75391.67578l5.10156 4.83594m-4.35937-4.13281l.32812-1.17969m11.83203 1.00781l5.92578 3.77344m-5.92578-3.77344l.19532-2.44922m13.10156 2.48047l5.96484 3.71094m-5.96484-3.71094l.16406-2.44922m12.8164 5.46094l6.63673-2.3125m-5.67188 1.97656l-.89844-.83593m14.46094 2.82812l4.21094-5.625m-4.21094 5.625l-2.42578-.375m16.35547.74219l2.98437-6.35938m-2.98437 6.35938l-2.45313.125m17.75391.17187l-.99219-6.95312m.84766 5.9414l-.98828.72266m14.34765.30469l-.78906-6.98438m.67188 5.96875l-1.01172.69141m13.46484.29688l1.16797-6.9297m9.25 2.97657l6.96094.97266m12.50781-2.76563l-5.34766 4.5586m17.89844-5.23047l-3.8164 5.90234m3.26171-5.04297l1.21875.10547m10.62891-1.52344l.22656 7.02344m-.1914-6l1.0625-.61328m10.47265.1211l3.71485 5.96093m-3.71485-5.96094l1.23047-2.125m10.8789 3.38672l6.12891 3.4336m-5.23828-2.9336l.02735-1.22656m14.46484-.92578l1.99219 6.73828m11.5039-6.78516l1.63282 6.83594m-1.39454-5.83984l.91797-.8125"/><g clip-path="url(#ak)"><path fill="none" stroke="#000" stroke-linecap="round" stroke-linejoin="round" stroke-miterlimit="10" stroke-width=".5" d="M146.13281 317.75781l-4.26562 5.58203"/></g><path fill="none" stroke="#000" stroke-linecap="round" stroke-linejoin="round" stroke-miterlimit="10" stroke-width=".5" d="M146.13281 317.75781l2.42188.39844m-3.04297.41406l1.21094.19922m11.74609-1.53906l-2.30469 6.63672m2.30469-6.63672l2.42188-.3789m-2.75782 1.34374l1.21094-.1914m12.51563-.7461l-2.45704 6.58203m2.45703-6.58203l2.4297-.32422m11.08593.40625l-2.85938 6.41797m2.85938-6.41797l2.44922-.17187m10.26953-.03516l-1.66406 6.82813m1.42187-5.83203l1.1875-.3047m11.16797-.76952l.73828 6.98828m-.63281-5.97266l1.01563-.6875m10.01953.73828l5.08203 4.85157m-5.08203-4.85157l.66406-2.36328m12.375 2.6914l5.63672 4.19532m-5.63672-4.19531l.3711-2.42578m12.43359 3.40625l6.66015 2.23828m-6.66015-2.23828l-.40235-2.42188m13.64844 2.65235l6.79688 1.77343m-6.79688-1.77343l-.57031-2.38672m14.01953 4.57422l6.52734-2.60157m-6.52734 2.60157l-1.8711-1.58594m16.38282 3.1289l4.13672-5.68359M289 322.5625l-1.21484-.17188m14.39843 1.28516l3.19532-6.25781m-2.73047 5.34765l-1.22656.01954m13.61718.60937l4.11328-5.69531m-4.11328 5.69531l-2.4336-.33594m16.48438.7461l2.64454-6.51172m-2.64454 6.51172l-2.4414.25m16.8711 0l.41405-7.01563m-.35546 5.9961l-1.11329.51171m13.16016.21485l2.83203-6.42969m-2.42187 5.4961l-1.22266.08984M366.84375 320.5l7.02734.09766m-6.0039-.08594l-.5625-1.08985m19.61719 2.46094l-6.5-2.67187m19.79687-.03906l-6.46484 2.7539m5.52343-2.35547l.95704.77344m12.18359-2.59766l-4.23438 5.60547m3.6211-4.79297l1.21094.19532m10.49609-1.71875l.21094 7.02343m-.21094-7.02343l2.1289-1.21485m8.41407 6.7461l5.7539-4.03907m-4.91406 3.45313l-1.09375-.55469m19.61328.64453l-6.33593-3.04297m6.33593 3.04297l.10157 2.44922m12.13671-6.79297l-4.18359 5.64453"/><g clip-path="url(#al)"><path fill="none" stroke="#000" stroke-linecap="round" stroke-linejoin="round" stroke-miterlimit="10" stroke-width=".5" d="M465.65234 317.72656l2.42579.36328"/></g><path fill="#00f" fill-rule="evenodd" d="M383.80078 436.57813h8.61719v-10.14454h-8.61719v10.14454"/><path fill="azure" fill-rule="evenodd" d="M385.63281 428.26563h.83203v2.82421h3.28907v-2.82421h.83203v6.48046h-.83203v-2.91406h-3.28907v2.91406h-.83203v-6.48046"/><path fill="#00f" fill-rule="evenodd" d="M366.04688 401.07422h8.61718v-10.14844h-8.61719v10.14844"/><path fill="azure" fill-rule="evenodd" d="M367.8789 392.76172h.83594v2.82031H372v-2.82031h.83203v6.47656H372v-2.91406h-3.28516v2.91406h-.83593v-6.47656"/><path fill="#ff3030" fill-rule="evenodd" d="M442.1914 401.07422h7.69532v-10.14844h-7.69531v10.14844"/><path fill="azure" fill-rule="evenodd" d="M444.02734 392.76172h.83204V398.5h3.1953v.73828h-4.02734v-6.47656"/><path fill="#ff3030" fill-rule="evenodd" d="M331.23438 392.19531h7.6914v-10.14453h-7.6914v10.14453"/><path fill="azure" fill-rule="evenodd" d="M333.0664 383.88281h.83594v5.73828h3.19141v.7422h-4.02734v-6.48048"/><path fill="#ff3030" fill-rule="evenodd" d="M335.67188 365.5664h7.6953v-10.14452h-7.6953v10.14453"/><path fill="azure" fill-rule="evenodd" d="M337.5039 357.2539h.83594v5.73829h3.19141v.74219h-4.02734v-6.48047"/><path fill="#ff3030" fill-rule="evenodd" d="M175.89063 361.1289h7.6953v-10.14843h-7.6953v10.14844"/><path fill="azure" fill-rule="evenodd" d="M177.72656 352.8164h.83203v5.73829H181.75v.73828h-4.02344v-6.47656"/><path fill="#ffffe0" fill-rule="evenodd" d="M356.13672 330.28906h22.17969v-10.1914h-22.1797v10.1914"/><path fill-rule="evenodd" d="M359.63672 321.92969h.50781v6.29687h-.78515v-4.48828h-1.39063v-.5586l.5625-.0625.25-.05468.23047-.08984.20312-.14063.17579-.21094.14062-.29296.10547-.39844m4.8125 0l.23047.01953.21875.0586.20703.08593.19922.1211.1836.15234.17187.17578.30078.41797.24219.49219.17968.54687.11328.58203.03516.58985-.03516.59375-.11328.58203-.17969.55468-.24218.50391-.30078.42578-.17188.17969-.1836.15234-.19921.125-.20703.09375-.21875.05469-.23047.01953-.22656-.01953-.21875-.05469-.21094-.09375-.19531-.125-.1836-.15234-.17187-.17969-.30078-.42578-.2461-.5039-.17969-.5547-.10937-.58202-.03906-.59375h.83203l.03125.5625.08203.5078.125.44141.16406.375.1875.30079.21094.21875.22266.13671.22656.04688.22656-.04688.22266-.13671.21094-.21875.1914-.30079.16406-.375.125-.4414.08204-.50781.02734-.5625-.02735-.5625-.08203-.5-.125-.4336-.16406-.36719-.1914-.29296-.21094-.21485-.22266-.1289-.22656-.04688-.22656.04688-.22266.1289-.21094.21485-.1875.29296-.16406.3672-.125.43358-.08203.5-.03125.5625h-.83203l.03906-.58984.10938-.58203.17968-.54688.2461-.49218.30078-.41797.17187-.17578.1836-.15235.1953-.12109.21095-.08594.21875-.0586.22656-.01952m4.95312 0l.23047.01953.21875.0586.20703.08593.19532.1211.1875.15234.16796.17578.3047.41797.24218.49219.17969.54687.11328.58203.03515.58985-.03515.59375-.11328.58203-.17969.55468-.24219.50391-.30469.42578-.16796.17969-.1875.15234-.19532.125-.20703.09375-.21875.05469-.23047.01953-.23046-.01953-.21875-.05469-.20704-.09375-.1953-.125-.1836-.15234-.17188-.17969-.30078-.42578-.2461-.5039-.17968-.5547-.10938-.58202-.03906-.59375h.83203l.03125.5625.08204.5078.125.44141.16015.375.1914.30079.21094.21875.22266.13671.22656.04688.22657-.04688.22265-.13671.21094-.21875.1914-.30079.16016-.375.1289-.4414.08204-.50781.02734-.5625-.02734-.5625-.08203-.5-.1289-.4336-.16016-.36719-.19141-.29296-.21094-.21485-.22265-.1289-.22657-.04688-.22656.04688-.22265.1289-.21094.21485-.1914.29296-.16017.3672-.125.43358-.08203.5-.03125.5625h-.83203l.03906-.58984.10938-.58203.17969-.54688.2461-.49218.30077-.41797.17188-.17578.1836-.15235.1953-.12109.20704-.08594.21875-.0586.23046-.01952m4.95313 0l.38672.03125.35937.08203.32031.13672.28125.1875.23047.23437.17188.28516.10937.33203.03907.3789-.01954.27344-.05859.23438-.08984.20312-.10938.16797-.1289.14453-.14063.1211-.28515.19922.23046.11718.20704.14844.18359.16797.15234.19531.125.21485.08985.23046.05468.2422.01954.2578-.03516.3086-.10156.32422-.17188.32812-.24219.30469-.30468.26953-.375.21485-.21094.08203-.22656.05859-.2461.03906-.26172.01172-.2578-.01172-.2422-.03906-.22265-.0586-.20703-.08202-.35938-.21485-.28906-.26953-.22266-.30469-.15625-.32812-.09375-.32422-.03125-.3086h.83203l.02735.25.07812.23438.1211.21484.16015.1836.19531.15234.21875.11328.2422.07422.2539.02344.2539-.02344.2422-.07422.21874-.11328.19531-.15234.16016-.1836.1211-.21484.07812-.23438.02734-.25-.02734-.2539-.07813-.23438-.12109-.21484-.16015-.1836-.19532-.15234-.21875-.11328-.24219-.07422-.2539-.02344-.2539.02344-.2422.07422-.21875.11328-.1953.15235-.16016.18359-.1211.21484-.07812.23438-.02735.2539h-.83203l.01953-.2539.0547-.24219.08983-.22265.125-.20704.15235-.1914.1836-.17188.20702-.15625.23047-.1289-.28515-.19922-.14063-.1211-.1289-.14453-.10938-.16797-.08984-.20312-.0586-.23438-.01953-.27343h.78906l.02344.21484.0625.1914.10547.16407.13672.14062.16406.11329.1914.08203.20704.04687.21875.01953.21875-.01953.20703-.04687.1914-.08204.16407-.11328.13672-.14062.10547-.16406.0625-.19141.02343-.21484-.02343-.21485-.0625-.1914-.10547-.16407-.13672-.14062-.16406-.11328-.19141-.08203-.20703-.04688-.21875-.01953-.21875.01953-.20703.04688-.1914.08203-.16407.11328-.13672.14062-.10547.16407-.0625.1914-.02344.21485h-.78906l.03906-.37891.10938-.33203.17187-.28516.23047-.23437.28125-.1875.32031-.13672.35938-.08203.38672-.03125"/><path fill="#ffffe0" fill-rule="evenodd" d="M190.83984 384.69531h22.1797v-10.1914h-22.1797v10.1914"/><path fill-rule="evenodd" d="M194.33984 376.33594h.50782v6.29687h-.78516v-4.48828h-1.39063v-.5586l.5625-.0625.25-.05468.23047-.08984.20313-.14063.17578-.21094.14063-.29296.10546-.39844m4.8125 0l.23047.01953.21875.0586.20703.08984.19532.11718.1875.15235.16797.17578.30468.41797.24219.49219.17969.54687.11328.58203.03516.58985-.03516.59375-.11328.58203-.17969.55468-.24219.50391-.30469.42578-.16796.17969-.1875.15234-.19532.125-.20703.09375-.21875.05469-.23047.01953-.23047-.01953-.21875-.05469-.20703-.09375-.1953-.125-.1836-.15234-.17188-.17969-.30078-.42578-.2461-.5039-.17968-.5547-.10938-.58202-.03906-.59375h.83203l.03125.5625.08203.5078.125.44141.16016.375.1914.30079.21095.21875.22265.13671.22656.04688.22657-.04688.22265-.13671.21094-.21875.1914-.30079.16016-.375.1289-.4414.08204-.50781.02734-.5625-.02734-.5625-.08203-.5-.1289-.4336-.16016-.36719-.19141-.29296-.21094-.21485-.22265-.1289-.22657-.04688-.22656.04688-.22266.1289-.21093.21485-.1914.29296-.16017.3672-.125.43358-.08203.5-.03125.5625h-.83203l.03906-.58984.10938-.58203.17969-.54688.2461-.49218.30077-.41797.17188-.17578.1836-.15235.1953-.11718.20703-.08985.21875-.0586.23047-.01952m4.95313 0l.23047.01953.21875.0586.20703.08984.19531.11718.1836.15235.17187.17578.30469.41797.24219.49219.17968.54687.10938.58203.03906.58985-.03906.59375-.10938.58203-.17969.55468-.24218.50391-.30469.42578-.17188.17969-.18359.15234-.19531.125-.20703.09375-.21875.05469-.23047.01953-.23047-.01953-.21875-.05469-.20703-.09375-.19531-.125-.1836-.15234-.17187-.17969-.30469-.42578-.24219-.5039-.17969-.5547-.10937-.58202-.03906-.59375h.83203l.03125.5625.07812.5078.12891.44141.16016.375.1914.30079.21094.21875.22266.13671.22656.04688.22656-.04688.22266-.13671.21094-.21875.1914-.30079.16016-.375.1289-.4414.08203-.50781.02735-.5625-.02734-.5625-.08204-.5-.1289-.4336-.16016-.36719-.1914-.29296-.21094-.21485-.22266-.1289-.22656-.04688-.22656.04688-.22266.1289-.21094.21485-.1914.29296-.16016.3672-.1289.43358-.07813.5-.03125.5625h-.83203l.03906-.58984.10938-.58203.17968-.54688.24219-.49218.30469-.41797.17187-.17578.1836-.15235.1953-.11718.20704-.08985.21875-.0586.23047-.01952m4.95312 0l.38672.03125.35938.08203.32031.13672.28125.1875.23047.23437.17187.28516.10938.33203.03906.3789-.02344.27344-.05468.23438-.08985.20312-.10937.16797-.1289.14453-.14063.1211-.28907.19922.23438.11718.20703.14844.1836.17188.15234.1914.1211.21485.09374.23046.05469.2422.01953.2578-.03516.3086-.10156.32422-.17187.32812-.2422.30469-.30468.26953-.375.21485-.21094.08203-.23047.05859-.24218.03906-.26172.01172-.26172-.01172-.23828-.03906-.22656-.0586-.20313-.08202-.35937-.21485-.28907-.26953-.22265-.30469-.16016-.32812-.08984-.32422-.03125-.3086h.83203l.02734.25.07813.23829.1211.21093.16015.1836.19531.15234.21875.11328.24219.07422.2539.02344.25391-.02344.24219-.07422.21875-.11328.1914-.15234.16407-.1836.12109-.21093.07813-.23829.02734-.25-.02734-.2539-.07813-.23438-.1211-.21484-.16406-.1836-.1914-.15234-.21875-.11328-.24219-.07422-.2539-.02344-.25391.02344-.24219.07422-.21875.11328-.19531.15235-.16016.18359-.1211.21484-.07812.23438-.02734.2539h-.83203l.01953-.2539.05469-.24219.08984-.22265.125-.20704.15234-.1914.1836-.17188.20703-.15234.23047-.13281-.28516-.19922-.14062-.1211-.12891-.14453-.10938-.16797-.08984-.20312-.0586-.23438-.01952-.27343h.78515l.02344.21484.0664.1914.10548.16407.13671.14062.16407.11329.1875.08203.20703.05078.22265.01562.21875-.01562.20703-.05078.19141-.08204.16406-.11328.13672-.14062.10156-.16406.06641-.19141.02344-.21484-.02344-.21485-.0664-.1914-.10157-.16407-.13672-.14062-.16406-.11328-.1914-.08203-.20704-.04688-.21875-.01953-.22265.01953-.20703.04688-.1875.08203-.16407.11328-.13672.14062-.10546.16407-.06641.1914-.02344.21485h-.78515l.03906-.37891.10937-.33203.17188-.28516.23047-.23437.27734-.1875.32422-.13672.35938-.08203.38671-.03125"/><path fill="#ffffe0" fill-rule="evenodd" d="M309.44922 436.8125h22.1836v-10.19531h-22.1836v10.19531"/><path fill-rule="evenodd" d="M312.94922 428.45313h.51172v6.29296h-.78906v-4.48828h-1.38672v-.55469l.55859-.0664.2539-.05469.22657-.08984.20312-.14063.17579-.21094.14062-.29296.10547-.39454m4.8164 0l.22657.01954.21875.05468.21094.08985.1953.1211.1836.14843.17188.17578.30078.41797.24219.4961.17968.54687.11328.57812.03907.58985-.03907.59375-.11328.58593-.17969.55079-.24218.5039-.30078.42578-.17188.17969-.1836.15625-.1953.1211-.21094.09374-.21875.0547-.22656.01952-.23047-.01953-.21875-.05469-.20704-.09375-.19921-.12109-.1836-.15625-.17187-.17969-.30078-.42578-.2422-.5039-.17968-.55079-.11328-.58593-.03906-.59375h.83594l.02734.5625.08203.5078.125.44142.16406.375.1914.30078.21095.22265.22265.13672.22656.04688.22657-.04688.22265-.13672.21094-.22265.1875-.30079.16406-.375.125-.4414.08204-.50781.03125-.5625-.03125-.5625-.08204-.5-.125-.4336-.16406-.36719-.1875-.29296-.21094-.21094-.22265-.13281-.22656-.04688-.22657.04688-.22265.1328-.21094.21095-.1914.29296-.16407.3672-.125.43359-.08203.5-.02735.5625h-.83593l.03906-.58985.11328-.57812.17969-.54688.24219-.4961.30078-.41796.17187-.17578.1836-.14844.19921-.1211.20704-.08984.21875-.05468.23046-.01954m4.94922 0l.23047.01954.21875.05468.20703.08985.19922.1211.1836.14843.17187.17578.30078.41797.24219.4961.17969.54687.11328.57812.03906.58985-.03906.59375-.11328.58593-.17969.55079-.24219.5039-.30078.42578-.17187.17969-.1836.15625-.19922.1211-.20703.09374-.21875.0547-.23047.01952-.22656-.01953-.21875-.05469-.21094-.09375-.1953-.12109-.1836-.15625-.17188-.17969-.30078-.42578-.24219-.5039-.17968-.55079-.11329-.58593-.03906-.59375h.83594l.02734.5625.08204.5078.125.44142.16406.375.1914.30078.20704.22265.22265.13672.22656.04688.22657-.04688.22265-.13672.21094-.22265.1914-.30079.16407-.375.125-.4414.08203-.50781.02734-.5625-.02734-.5625-.08203-.5-.125-.4336-.16406-.36719-.19141-.29296-.21094-.21094-.22265-.13281-.22657-.04688-.22656.04688-.22265.1328-.20704.21095-.1914.29296-.16406.3672-.125.43359-.08204.5-.02734.5625h-.83594l.03906-.58985.11329-.57812.17968-.54688.2422-.4961.30077-.41796.17188-.17578.1836-.14844.1953-.1211.21094-.08984.21875-.05468.22656-.01954m4.95313 0l.38672.02735.35937.08203.32422.13672.27735.1875.23046.23828.17579.28516.10546.33203.03907.375-.01954.27344-.05859.23828-.08594.19921-.11328.16797-.1289.14454-.14063.125-.28515.1953.23046.1172.20704.14843.18359.17188.15234.1914.125.21485.08985.23047.05468.24218.01954.25782-.03125.30859-.10547.32813-.17188.32421-.23828.3047-.3086.26952-.375.21485-.21093.08203-.22656.0586-.2461.03905-.26172.01172-.2578-.01172-.2422-.03906-.22265-.0586-.20703-.08202-.35938-.21485-.28906-.26953-.22266-.30469-.15625-.32421-.09375-.32813-.03125-.3086h.83594l.02344.25391.07812.23438.125.21094.16016.18359.1914.15234.21875.11719.2422.07031.2539.02735.25781-.02735.23828-.07031.21875-.11719.19531-.15234.16016-.1836.1211-.21093.07812-.23438.02734-.2539-.02734-.25391-.07813-.23438-.12109-.21484-.16015-.1836-.19532-.15234-.21875-.11328-.23828-.07422-.25781-.02343-.2539.02343-.2422.07422-.21875.11328-.1914.15235-.16016.1836-.125.21483-.07812.23438-.02344.2539h-.83594l.01953-.2539.0586-.23828.08984-.22656.1211-.20704.15625-.1914.17968-.17188.20703-.15234.23438-.13281-.28906-.19531-.13672-.125-.1289-.14454-.11329-.16796-.08984-.19922-.0547-.23829-.02343-.27343h.78906l.02344.21484.0664.1914.10157.16798.13672.13671.16797.11329.1875.08203.20703.05078.21875.01562.22265-.01562.20704-.05078.1875-.08203.16406-.11329.13672-.13671.10547-.16797.0664-.1914.02344-.21485-.02344-.21485-.0664-.1914-.10547-.16406-.13672-.14063-.16406-.10938-.1875-.08203-.20704-.05078-.22265-.01953-.21875.01953-.20703.05078-.1875.08204-.16797.10937-.13672.14063-.10156.16406-.0664.1914-.02345.21485h-.78906l.03906-.375.10938-.33203.17187-.28516.23047-.23828.28125-.1875.32031-.13672.35938-.08203.38672-.02735"/><path fill="#ffffe0" fill-rule="evenodd" d="M399.4414 453.22266h22.1797v-10.19141h-22.1797v10.1914"/><path fill-rule="evenodd" d="M402.9414 444.86328h.50782v6.29688h-.78516v-4.48829h-1.38672v-.55859l.5586-.0625.25-.05469.23047-.08984.20312-.14063.17578-.21093.14063-.29297.10547-.39844m4.8125 0l.23046.01953.21875.0586.20704.08593.19921.1211.1836.15234.17187.17578.30079.41797.24218.49219.17969.54687.11328.58204.03906.58984-.03906.59375-.11328.58203-.17969.55469-.24219.5039-.30078.42579-.17187.17968-.1836.15235-.19921.125-.20704.09375-.21875.05468-.23046.01954-.22657-.01954-.21875-.05468-.21093-.09375-.19532-.125-.18359-.15235-.17188-.17969-.30078-.42578-.24218-.5039-.1797-.55469-.11327-.58203-.03906-.59375h.83593l.02735.5625.08203.5039.125.44532.16406.375.1914.30078.20704.21875.22265.13672.22657.04687.22656-.04687.22265-.13672.21094-.21875.1914-.30078.16407-.375.125-.44531.08203-.50391.02735-.5625-.02735-.5625-.08203-.5-.125-.4336-.16406-.36718-.1914-.29297-.21094-.21485-.22266-.1289-.22656-.04688-.22657.04688-.22265.1289-.20703.21485-.19141.29297-.16406.36719-.125.43359-.08203.5-.02735.5625h-.83594l.03907-.58985.11328-.58203.17969-.54687.24218-.49219.30079-.41797.17187-.17578.1836-.15234.1953-.1211.21094-.08593.21875-.0586.22657-.01953m4.95312 0l.23047.01953.21875.0586.20703.08593.19922.1211.1836.15234.17187.17578.30078.41797.24219.49219.17969.54687.11328.58204.03906.58984-.03906.59375-.11329.58203-.17968.55469-.24219.5039-.30078.42579-.17188.17968-.18359.15235-.19922.125-.20703.09375-.21875.05468-.23047.01954-.22656-.01954-.21875-.05468-.21094-.09375-.19531-.125-.1836-.15235-.17187-.17969-.30078-.42578-.2461-.5039-.17968-.55469-.10938-.58203-.03906-.59375h.83203l.03125.5625.08203.5039.125.44532.16406.375.1875.30078.21094.21875.22266.13672.22656.04687.22656-.04687.22266-.13672.21094-.21875.1914-.30078.16407-.375.125-.44531.08203-.50391.02734-.5625-.02734-.5625-.08203-.5-.125-.4336-.16407-.36718-.1914-.29297-.21094-.21485-.22266-.1289-.22656-.04688-.22656.04688-.22266.1289-.21094.21485-.1875.29297-.16406.36719-.125.43359-.08203.5-.03125.5625h-.83203l.03906-.58985.10938-.58203.17969-.54687.24609-.49219.30078-.41797.17188-.17578.18359-.15234.19531-.1211.21094-.08593.21875-.0586.22656-.01953m4.95313 0l.38671.03125.35938.08203.32422.13672.27734.1836.23047.23828.17188.28515.10937.33203.03906.37891-.01953.27344-.0586.23437-.08593.20313-.11328.16797-.1289.14453-.14063.1211-.28516.19921.23047.11719.20703.14844.1836.16796.15234.19532.125.21484.08984.23047.0547.24219.01952.2539-.03515.3125-.10157.32422-.17187.32422-.23828.3086-.3086.26952-.375.21485-.21093.07812-.22657.0625-.24609.03907-.26172.01171-.25781-.01171-.24219-.03907-.22265-.0625-.20704-.07812-.35937-.21485-.28906-.26953-.22266-.30859-.15625-.32422-.09375-.32422-.03125-.3125h.83203l.02735.2539.07812.23438.125.21485.16016.1836.1914.15233.21875.11329.24219.07421.2539.02344.25391-.02344.24219-.07421.21875-.11329.19531-.15234.16016-.1836.1211-.21484.07812-.23437.02734-.2539-.02734-.25-.07813-.23438-.1211-.21485-.16015-.18359-.19531-.15234-.21875-.11329-.24219-.07421-.2539-.02344-.25391.02344-.24219.07421-.21875.11329-.1914.15234-.16016.1836-.125.21484-.07813.23437-.02734.25h-.83203l.01953-.25.05469-.24219.09375-.22265.1211-.21094.15624-.1875.17969-.17187.20703-.15625.23438-.12891-.28907-.19922-.13671-.1211-.13282-.14452-.10937-.16797-.08985-.20313-.05468-.23437-.02344-.27344h.78906l.02344.21484.0664.19141.10157.16406.13672.14063.16796.11328.1875.08203.20704.04688.21875.01953.22265-.01954.20703-.04687.1875-.08203.16407-.11328.13671-.14063.10547-.16406.06641-.1914.02344-.21485-.02344-.21484-.0664-.19141-.10548-.16406-.13671-.14063-.16407-.11328-.1875-.08203-.20703-.04688-.22265-.01953-.21875.01954-.20704.04687-.1875.08203-.16796.11328-.13672.14063-.10156.16406-.06641.1914-.02344.21485h-.78906l.03906-.3789.10938-.33204.17187-.28515.23047-.23829.28125-.18359.32031-.13672.35938-.08203.38672-.03125"/></g></defs><use xlink:href="#am"/></svg>