<svg xmlns="http://www.w3.org/2000/svg" role="img" xmlns:xlink="http://www.w3.org/1999/xlink" viewBox="142.45 309.95 326.84 171.84"><defs><clipPath id="a"><path d="M144 311.67188h1v168.65625h-1zm0 0"/></clipPath><clipPath id="b"><path d="M144 311.67188h324v168.65625H144zm0 0"/></clipPath><clipPath id="c"><path d="M379 441h58v39.32813h-58zm0 0"/></clipPath><clipPath id="d"><path d="M460 468h8v12.32813h-8zm0 0"/></clipPath><clipPath id="e"><path d="M465 478h3v2.32813h-3zm0 0"/></clipPath><clipPath id="f"><path d="M467 311.67188h1V462h-1zm0 0"/></clipPath><clipPath id="g"><path d="M144 477h3v3.32813h-3zm0 0"/></clipPath><clipPath id="h"><path d="M154 478h7v2.32813h-7zm0 0"/></clipPath><clipPath id="i"><path d="M167 478h8v2.32813h-8zm0 0"/></clipPath><clipPath id="j"><path d="M172 479h3v1.32813h-3zm0 0"/></clipPath><clipPath id="k"><path d="M180 478h8v2.32813h-8zm0 0"/></clipPath><clipPath id="l"><path d="M186 479h2v1.32813h-2zm0 0"/></clipPath><clipPath id="m"><path d="M193 479h8v1.32813h-8zm0 0"/></clipPath><clipPath id="n"><path d="M199 479h2v1.32813h-2zm0 0"/></clipPath><clipPath id="o"><path d="M206 479h9v1.32813h-9zm0 0"/></clipPath><clipPath id="p"><path d="M212 480h2v.32813h-2zm0 0"/></clipPath><clipPath id="q"><path d="M220 478h8v2.32813h-8zm0 0"/></clipPath><clipPath id="r"><path d="M225 480h2v.32813h-2zm0 0"/></clipPath><clipPath id="s"><path d="M233 478h8v2.32813h-8zm0 0"/></clipPath><clipPath id="t"><path d="M246 478h9v2.32813h-9zm0 0"/></clipPath><clipPath id="u"><path d="M252 480h2v.32813h-2zm0 0"/></clipPath><clipPath id="v"><path d="M260 478h8v2.32813h-8zm0 0"/></clipPath><clipPath id="w"><path d="M265 480h2v.32813h-2zm0 0"/></clipPath><clipPath id="x"><path d="M273 479h8v1.32813h-8zm0 0"/></clipPath><clipPath id="y"><path d="M279 480h2v.32813h-2zm0 0"/></clipPath><clipPath id="z"><path d="M286 478h8v2.32813h-8zm0 0"/></clipPath><clipPath id="A"><path d="M300 478h8v2.32813h-8zm0 0"/></clipPath><clipPath id="B"><path d="M314 478h7v2.32813h-7zm0 0"/></clipPath><clipPath id="C"><path d="M327 477h7v3.32813h-7zm0 0"/></clipPath><clipPath id="D"><path d="M340 477h7v3.32813h-7zm0 0"/></clipPath><clipPath id="E"><path d="M353 479h8v1.32813h-8zm0 0"/></clipPath><clipPath id="F"><path d="M359 480h1v.32813h-1zm0 0"/></clipPath><clipPath id="G"><path d="M366 479h9v1.32813h-9zm0 0"/></clipPath><clipPath id="H"><path d="M372 480h2v.32813h-2zm0 0"/></clipPath><clipPath id="I"><path d="M379 480h9v.32813h-9zm0 0"/></clipPath><clipPath id="J"><path d="M386 480h3v.32813h-3zm0 0"/></clipPath><clipPath id="K"><path d="M393 479h8v1.32813h-8zm0 0"/></clipPath><clipPath id="L"><path d="M400 479h3v1.32813h-3zm0 0"/></clipPath><clipPath id="M"><path d="M406 479h8v1.32813h-8zm0 0"/></clipPath><clipPath id="N"><path d="M413 479h3v1.32813h-3zm0 0"/></clipPath><clipPath id="O"><path d="M420 478h7v2.32813h-7zm0 0"/></clipPath><clipPath id="P"><path d="M426 478h4v2.32813h-4zm0 0"/></clipPath><clipPath id="Q"><path d="M425 478h3v2.32813h-3zm0 0"/></clipPath><clipPath id="R"><path d="M433 478h8v2.32813h-8zm0 0"/></clipPath><clipPath id="S"><path d="M439 478h4v2.32813h-4zm0 0"/></clipPath><clipPath id="T"><path d="M438 478h3v2.32813h-3zm0 0"/></clipPath><clipPath id="U"><path d="M446 479h9v1.32813h-9zm0 0"/></clipPath><clipPath id="V"><path d="M452 479h2v1.32813h-2zm0 0"/></clipPath><clipPath id="W"><path d="M460 478h7v2.32813h-7zm0 0"/></clipPath><clipPath id="X"><path d="M144 464h4v6h-4zm0 0"/></clipPath><clipPath id="Y"><path d="M144 452h4v4h-4zm0 0"/></clipPath><clipPath id="Z"><path d="M144 438h4v4h-4zm0 0"/></clipPath><clipPath id="aa"><path d="M144 425h4v4h-4zm0 0"/></clipPath><clipPath id="ab"><path d="M144 413h4v2h-4zm0 0"/></clipPath><clipPath id="ac"><path d="M144 399h4v3h-4zm0 0"/></clipPath><clipPath id="ad"><path d="M144 385h2v4h-2zm0 0"/></clipPath><clipPath id="ae"><path d="M144 372h4v4h-4zm0 0"/></clipPath><clipPath id="af"><path d="M144 359h4v3h-4zm0 0"/></clipPath><clipPath id="ag"><path d="M144 345h4v4h-4zm0 0"/></clipPath><clipPath id="ah"><path d="M144 332h4v4h-4zm0 0"/></clipPath><clipPath id="ai"><path d="M144 317h3v7h-3zm0 0"/></clipPath><clipPath id="aj"><path d="M465 317h3v2h-3zm0 0"/></clipPath><g id="ak" clip-path="url(#clip1)"><path fill="#fff" fill-opacity="0" fill-rule="evenodd" d="M0 0h1000v1000H0zm0 0"/><path fill="#d3d3d3" fill-opacity="0" fill-rule="evenodd" d="M162.15234 355.86719l-.23437.29297.0586.23437.11718.17188.17578.23437.29297.34766.11328.0586.11719-.17188.0586-.23438.17577-.17578.46485-.17578h.69922l.23437.29297.28906.8164.0586.17579.17578.23046.35156.23438.69922.69922.17188.17578.23437.34765.23438.41016.28906.58203.41015.46485.23047.23437.23438.17578.11719.23047.17578.29297.17187 1.16406v.23438l.0586.28906.05859.11719.11719.11719.34765.41015.11719.17188.17578.17578.17578.23437.11719.17188.17188.35156.05859.23438.23437.40625.23438-.0586-.17578.17578-.0586.92969h-.58203l-.23437-.11328-.34766.11328-.11719.11719-.05859.29297-.0586.17578-.11718.17187-.46484.29297-.0586.23438-.0586.11328v.64453l.0586.17187v.41016l.0586.0586v.40624l.05859.40625.11719.17579.05859.05859.23047.64062-.0586.29297v.69922l-.05859.58203v.23438l-.0586.23047-.05468.35156v1.92187l.05469.1172h.42578l-.36719.11718-.02344.35156.89063 1.16797 1.74219.53906 1.33984.35938v.53906l.08984.8086.53516.71484 1.51953.26953.89063-.08594.08984 1.16406.53516.1797 1.16015-.1797 2.05469-.98437 1.16016-.36328 1.8789-.17578 1.69531-.1797-.17968.71876-1.51563.08594-1.25.08984-.80469.26953-1.07421.8086.26953.71875.53515.89843-.17968.625-.26563.8086.26563 1.07812.625.89844.80468.17969 1.25-.1797-.26562.72267.09766.5039.05468.29297v.17188l.0586.29296v.40625l.17578.1172.35156.11718h.40625l.29297-.17578.11328-.11719.0586-.11719.11718-.23047.0586-.17578.35156-.46484.23047-.17578.17578-.0586.17578.0586.0586.17578.11718.98828.05469.46875.0586.17188.11718.23437.17578.0586.8164.05859h.28907l.11719.23437.05859.40625.0586.35156v1.10547l.11718.29297.11719.34766.28906.69922.17578.35156.58203.7539.35157.17579.17187.0586.46875.23437.64063.46484.34765.23438.29297.17578.29297.05468.23047.0625.8164.34766.29297.17578.11328.17188.35157.35156.11719.17578.52343.64063v.28906l.0586.35156v.34766l.05859.35156.0586.28906.11718.0586.17188.05859h.17578l.58203.23437.17578.1172.17578.28905.17578.23438.11328.23437.29297.23047.11719.11719v.41016l.0586.05468.28906.23438.23437.11719.0586.11718.11718.17188.0586.11719.23047.23437.05859.17578.23437.0586.1172.05859-.1172.11328-.05859.11719v.11719l-.11719.29296-.11719.28907v.58203l.17579.11719.11718.05859.0586.11719.11719.11719.11328.05859.17578.34765.0586.35157.05858.40625v.17578l-.05859.17578-.11719.69922v.17187l.1172.17579.29296.29296h.40625l.17578.1172.11719.17187.11719.29296v.23438h-.52735l-.23047-.23438h-.23437l-.17578.0586-.0586.69922.0586.34765.11719.17579.17578.41015.11718.23047.28907.46875.17578.05469h.52344l.23437.0586.75781.64062.0586.29296v.23438l.05859.0586.23047.34765v.35156l-.11719.17188v.29297l.29297.28906.29297.17578.17187.0586.29297.17577.29297.1172.58203.40624.28906.23438.29297.17578.21875.16015.01563.01172.23047.17579.64062.52343.17578.23438.1172.17578.17577.17578.11328.17188v.64062l.1172.17578.46874.11719.58203.11719.23438.05859.23047.11328.29297.11719.11328.0586.58593.35156.28907.17187.17578.0625.17578.05469.17578.0586.69922.35155.28906.17579.23438.05468.28906.17578.23437.1172.64063.40624.29297.11719.17187.0586.23438.05859.41015.05859.23047.0586.23438.11718.0586.17188-.41017.17578.46875.0586.0586.29296.11328.23438.17578.05468.23438.0586.17578.05859.40625.11719.64062.23437.11719.17188.0586.23437v.17578l-.0586.1172-.0586.40624.23438.23438.11719.05859.34766.11719.64062.23047.17578.11718.28906.1172.17578.17577.23438.46485.58203 1.10546.17578.17579.34766.17578.17578.11719.35156.11718 1.04688.52344.23437.0586.46485.11327.29297.0586.46484.17578.75781.58203.23438.23438.34765.46484.17578.17578.28907.23438.8164.69921.29297.17579.28906.28906.29297.17578.29297.28906.69531.64063.17578.17578.29297.23437.28907.23438.46875.28906.64062.58203.34766.23438.23437.29297.34766.34765.35156.46485.9336.99218.34765.40625.11719.17579.23437.05859.11328.11719.64454.17578.23047.11328.23437.0586.29297.17577.23047.1172.9336.69921.40624.40625.23438.17578.40625.17578.23437.11719.8164.34766.34766.23437.23438.11719.29297.28906.23047.11719.7578.35156.35157.17188.23047.05859.29297.11719.23437.0586.8711.17577h.8164l.46875.23047.17188.0586.875.69921.46484.1172.29297.05858.17578.0586.23047.0586.46875.05859.34766.05859.35156.0586.40625.05859h.29297l.17187.0586v.23046l.17578.17578h.29297l.34766.0586.35156.05859.69922.11719h.64063l.46484-.23438.29297-.17578.17187-.11719.41016-.17187.28906-.17578.9336-.46485.46875-.29297.52343-.29296.46485-.17188.46484-.17578 1.05078-.46485.28906-.11718.41016-.11719.28906-.11719.52735-.17578 1.51562-.69922.58203-.34765.28907-.0586.29297-.0586.34765-.11718.875-.23047.35156-.11719h.11329l.23437-.05859.875-.23437.23438-.0586h.8125l.35156-.0586.8164-.11718.17188-.0586.35156-.05468.29297-.0586.23047-.05859.8164-.17578.17579-.0586h.34765l.23438-.05859.46484-.11718.75781-.17188.23438-.0586h.34765l.41016-.11718.28906-.0586 1.28516-.05859h.28906l.41016-.0586.23047-.05858h.17578l.875-.1172h.40625l.41015-.11718h.34766l.35156-.11328.8711-.0586h1.75l1.04687.28907.41016.11719.28906.11718.35156.11719.28907.11719 1.05078.17187.28906.0586h.29297l.29297.05859.17187.0586.41016.05859.17187.0586.1172.05858h.11718l.11719.0586.35156.0586h.11328l.41016.0664 1.92187.39453 1.92578.39453 1.51953.44922 1.69532.71875 2.14453.80469 1.60547-.71875 1.42968-.80469 1.16016-1.07813 1.25-.44921 3.03516-.71875 1.875-.35938 2.14453-1.34765 2.23437-1.25391 2.5-1.25781 1.69531-.44922 1.78516-.17969 1.16016-.26953.625.53906 1.33984-.26953.71485-.98828.98437-1.34375.44531-.17969.80469-.35937 1.875-.53907 1.78516-.44921 1.25-.26954 1.16015-.08984 1.69922-.08984 1.96094-.26954 1.25-.08984h.53906l.625-.08984h.89063l2.14453-.17969 2.41015-.17969 2.58985-.08984 1.69531.17969 1.60938.08984 1.42968.35938 1.16016.71875 1.875.98828 1.16015 1.52734.26563.71484.6289.08985.35548.89844.53515.53906.53516 1.52734 1.07422.35938h.53515l-.80469.53515.08985 1.70703.71484 2.69532.89063.80468.89453.98829.71484 1.2578 1.78516.53907 1.51953-.17969.35547 1.34375 1.60937-.80469.98047-.53906.26953.26953.31641-.21484.21875-.14453.80078.44922.44922-.35938h.35547l.53515-.26953.53907-.71875.53515-.26953.625-.98828 1.16016.44922.83984.3711 1.39454.61718 1.6953-.17969h1.60548l1.78515.08985.17969-1.70704.53516-1.34375.80468.26954.4922.84765.40233.40625-.08984.53906v.35938l.71485.44922.71093-.26953h1.42969l.35938.98828.4453 1.25781.71485 1.34375 1.25.6289 1.69531.62891.71485-.17969.17969-.53906.98046-.08984.44922.35937.08594 1.25782-.26563.6289-.53515.17969v.53906l.71484.98438.26563.53906.98437.98828.80078 1.07813-.26562.35937-.08985.89844-.625 2.33203-.35546 2.0664-.08985 1.79298-.17969.71875-.08984.53906v1.4375l-.98047 1.88281-.35937 1.70703-.53516.89844-.80469 1.16797-.26562.53906 2.05469 1.2539.08593.35938-.35546.53906-.08985-.17968v.80859l.08985 1.4375-.44532.71484-1.07422.09375-.26562.71485.53515.89844.8047.71875 1.16015.80859 1.33984.26953.44531.35938-.35546.44921-1.78907-.08984-1.25-.44922-.71484-.71875-.625-.08984-.17578 3.58984-.1875 1.3086h89.35937V311.70313h-55.26953v49.08203l.76172.125 3.28906.54296 2.02344 2.83594v2.7539l2.35156.33204 2.34766.33203h4.05078l-1.3789 4.16016-2.02344.70703-2.02344.70312-.54297.34375-2.59375 1.6172-.1875.11718-2.02344-2.07813-.73046-2.74218-2.67188-2.07813-1.375-3.5-.0664-.08203-1.95704-2.67188 2.75-1.41796v-49.08204H294.42187v91.41407l.1172.03125.1328.01172.07422.07421.10547.04688.08985.0586.08593.05859.08985.0586.29687.29687.0586.08984.03125.11719.02734.11719.01563.13671-.03125.1172-.0586.08983-.0586.08594-.04296.10547-.04688.10156-.02734.1211v.14453l.17578.26953.14844.14844.07422.08594.07422.07421.04296.10547.0625.08985.0586.08593.04297.10547.0586.08985.04687.10156.04296.10547.0586.08594.11719.17968.07421.07422.0625.08594.0586.08984.04297.10547.0586.08985.05858.08593.0625.08985.0586.08984.04297.10156.11719.17969.07421.07422.0586.08594.07422.07421.08984.0586.10547.04687h.14844l.1328-.01562.13282.01562.10156-.04687.07422-.07422.04688-.10156-.01563-.13281v-.14844l-.04687-.10547-.02735-.11719-.04687-.10156-.02735-.1211-.04296-.10156-.0625-.08984-.04297-.10156-.04297-.10547-.03125-.11719-.01563-.13281-.01171-.13672.08593-.0586.0586-.08593.12109-.03125.04297.10547.01562.1328v.1172l.0586.10156.0586.08984.08983.0586.14844.14843.0586.08985.04296.10547-.01171.10156.08593.0586.10547.04687.08594.0586.08984.05858.07422.07422-.11719.02735-.10546.04687-.08594.0586-.07422.07421-.0586.08985-.0625.08594-.02734.12109-.04687.10156-.04297.10547-.03125.11719-.01172.13281-.01563.13281v.14844l.02735.11719.04687.10547.04297.10156.0586.08984.07421.07422.08985.0586.07422.07421.08984.0586.0586.08984.04296.10547.04688.10156.11719.03125.1328.01563h.14845l.11718-.03125.10547.04297.04297.10547.04688.10156.02734.1211L299.5 410l.02734.11719.03125.1211.02735.11718.10547.04297.10156.04687.13281-.01562.14844.14844.0625.08593.07422.07422.07031.07422.08984.0625.10547.04297.10156.04297.1172.03125.13671.01562.11719-.03125.07422-.07422.02734-.11718-.01172-.13282-.03125-.12109-.02734-.11719.04297-.10547h.11719l.08984.0625.11719.02735h.14843l.13282.01562h.14843l.13282.01563.1328-.01563h.14845l.1328-.01562.13282-.01172.13672.01172.11719-.02735.13281-.01562.1914-.0586-.05859.17579-.01562.1328-.02735.1211-.01562.13281-.0586.08594-.1328.01563-.10548.04687-.10546.04297-.1172.03125-.11718.02735-.26563.03125h-.14843l-.13281.01562-.07422.07422.05859.08594.14844.14843.11719.1797.07421.0703.08985.0625.08984.0586.08594.0586.08984.05858.10156.04297.10547.0625.10547.04297.08594.0586.10547.04687.10156.04297.17969.11719.0586.08984-.04298.10156-.04687.10547.01562.13281.22266.22266.0586.08985.04296.10156.03125.1211.04297.10155.01563.13282.03125.11718.01171.13672.03125.11719.14844.14844.10156.04297.10547.04296.1172.03125.1328.01563.13672.01563h.11719l.11719-.03125.08984-.0586.04297-.10547.04688-.10156.04296-.10547.03125-.11719.01172-.1328v-.14845l-.01172-.1328-.01562-.13282-.03125-.11719-.04297-.10547-.04688-.10547-.04296-.10156-.04297-.10547-.01563-.13281.01563-.13281.02734-.11719.03125-.11719.02735-.1211.04687-.10155.08984-.0586.08594-.0625.07422-.07422.08984-.05859.22266-.22266.0586-.08593.07421-.07422.11719-.17969.0586-.08594v-.14844l-.07423-.07421-.10156-.04688-.10547-.04297-.10156-.04297-.0586-.08984-.04687-.10547-.02734-.11719.08984-.05859.11719-.03125.10156-.04297.17969-.11719.14844-.14843.01172-.13282-.01172-.10546-.08985-.0586-.1328.01563h-.14845l-.1328.01562-.13282-.01562-.1211-.03125-.08593-.0586-.07422-.07422-.0586-.08984-.0625-.08594-.11718-.17969-.0586-.08593.03125-.1211.08594-.05859.1211-.03125.05859-.08594v-.1211l-.03125-.11718-.0586-.08984-.05859-.08594-.04687-.10547-.02735-.11719-.01562-.1328.0586-.08985.07421-.07422.08984-.0586.1172-.17968.07421-.07422.0586-.08594.14843-.14844.1211-.03125.1328-.01562.13282.01562.07422.07422.04297.10547.01562.13281-.03125.1172-.11719.03124-.1328.01172-.14844.14844-.04297.10547-.04688.10156-.02734.1211-.03125.11718v.14844l.03125.11719.04297.10546.05859.08985.07422.07031.07422.07422.11719.03125.12109.02734.11719-.02734.1328-.01563h.1172l.08984.0586.07422.07422.04687.10546.0586.08594.10156.04688.13281.01562.10547.04297.08594.0586-.01172.10546-.07422.07422-.17969.11719-.05859.08984-.08984.0586-.07032.07422-.07421.07421-.0625.08985-.02735.11719-.01562.1328.01562.13282-.01562.13281v.14844l.01562.13281.02735.1172.03125.12108.07421.07422.08985.0586.08594.0586.08984.05858.11719.03125v.08594l-.10157.04688-.08984.0586-.26563.03124-.11718.02735h-.14844l-.10547.04296-.10156.04688-.0586.08984-.0625.23438-.01171.13281-.03125.1211-.01563.1328v.29298l-.01172.1328.01172.13673.01563.1328.1328.01563.13282.01172.1211.03125.08593.0586.07422.07421.04688.10547.04296.10157.01563.1328v.44532l-.01563.13281v.44532l.03125.26562.02735.11719.01562.13281.03125.11719.08594.21094.03125.26562v.14844l-.03125.11719-.02734.11718-.03125.1211-.02735.11719-.03125.11718-.03125.1211-.01171.1328-.01563.13282.08984.0586.1172-.03125.10155.01562.04688.10547-.03125.26562v.44141l-.04297.10547-.04688.10547-.04296.10156-.04297.10547-.0586.08594-.03125.12109-.04296.11719-.03125.11719-.01563.1328.01563.13282.05859.08984.10547.04688.08594.0586.05859.08593-.01172.13672-.03125.11719-.04297.10156v.44531l-.01562.13281v.14844l-.03125.11719-.04297.10547-.02735.11719-.04687.10546-.04297.10157-.03125.12109-.02734.11719-.03125.13281-.03125.11719-.02735.11719-.04297.10546-.03125.1172-.03125.12108-.01171.13282-.01563.13281v.29688l.02734.11718v.14844l.04688.39844.02734.11719.0586.08984.12109.03125h.14844l.13281-.01563.0586.08985v.11719l-.0586.08984-.08984.0586-.10157.04296-.10546.04688-.08985.05859-.08594.0586-.13671.01562-.1172-.03125-.1328-.01563-.10157.04688-.0625.08594-.01172.13671-.01562.13282-.03125.11719-.02735.11718-.01562.13281-.03125.1211v.29687l.01563.13282.03125.11718v.14844l.01171.13281v.14844l-.02734.11719-.04688.10156-.02734.1211-.03125.11718-.0586.08985-.07421.07421-.10156.04297-.10547.04688-.11719.02734-.1211.03125-.10156-.04687.0586-.08594.10547-.04688.02734-.11718.03125-.11719.02734-.1211.03125-.11718v-.14844l.01563-.13281-.03125-.11719-.04297-.10547-.10547.01563-.07422.07422-.10156.04296-.08984.0625-.07422.07422-.04297.10157-.01563.1328-.03125.1172L304.25 426l-.03125.11719-.02734.11719-.03125.12109-.02735.11719-.03125.11718-.04297.10547-.08984.0586h-.08984l-.1172-.03125-.03124-.08594.01562-.13672-.03125-.11719v-.14844l-.01171-.1328v-.14844l-.0625-.23438-.02735-.1211-.04297-.10156-.04687-.10546-.0586-.08594-.05859-.08985-.04297-.10546-.0625-.08594-.14844-.14844-.0703-.07422-.10548-.04687-.10547-.04297-.10156-.04297-.29687-.29688-.08985-.07421-.08594-.0586-.10546-.04297-.08985-.0625-.08594-.0586-.10546-.04296-.08985-.0586-.08594-.0625-.07421-.0703-.10547-.04688-.08594-.0586-.10547-.04296-.08984-.0625-.10156-.04297-.10547-.04297-.08594-.0586-.10547-.04687-.10547-.04297-.10156-.04687-.08985-.0586-.10156-.04297-.10547-.04296-.08984-.0625-.11719-.02735-.13281-.01562-.13281.01562H299.75l-.13281.01563-.11719-.03125-.08984-.0586-.07422-.07422-.08985-.05859-.10156-.04688h-.14844l-.12109-.02734-.10156-.04297-.07422-.07422-.11719-.17968-.08984-.0586-.10156-.04297-.08985-.0625-.10547-.04296-.08984-.0586-.08594-.0586-.10547-.04687-.0586-.08594-.05858-.08984-.04297-.10547-.04688-.10156-.07422-.07422-.08594-.0586-.07421-.07421-.08985-.0586-.22265-.22265-.04297-.10547-.03125-.26563.10547-.04296h.14453l.10547.04296.07421.07422.08985.0586.08594.0586.10546.04687.08985.05859.14844.14844.0703.07422.14845.14843.0625.08594.07421.07422.08594.0586.07422.07421.08985.0625.08984.0586.08594.05859.26953.17578.10156.04688.10547.04296.10156.04297.04688-.07421.05859-.08594.07422-.07422.07031-.07422.10547.04297.07422.07422.0586.08984.04296.10156.04688.10547.04296.10547.1211.02735.11719-.02735.07421-.08984.04297-.10547.0586-.08985.07422-.07421.10546-.04297.1172-.02735.1328.01172.08985.0586.14844.14843.05859.08985.04297.10547.04687.10156.04297.10547.04297.10156.10547.04688.10547.04296.13281.01563.08594-.0586.0586-.08984.07421-.07422.10547-.04297.11719.02735.10547.04687.10156.04297.10547.04297.10156.04688.17969.11718v.11719l-.01563.13281.01563.13281.01562.13672.0586.08594.10156.04688.1211.02734.11718.03125h.14844l.11719-.03125.05859-.08984.17969-.1172.05859-.08983.07422-.07422.0586-.08594.11718-.17969.17969-.11719.11719.03125.08984.0586.04297.07422-.01563.1328v.1172l.08985.05859h.14843l.13282-.01563.1328-.01171.26563-.03125.10547-.04297.11719-.03125.1211-.02735.07421-.07421.07031-.07422.0625-.08985-.01562-.10547-.04688-.10156-.10156-.04297-.10547-.01562-.11718.02734-.26563.03125h-.14844l-.07421-.07422-.08985-.0586-.11719-.03124-.11718-.02735-.13282-.01562h-.14843l-.13282.01563h-.29687l-.10547-.04688-.14844-.14844-.04297-.10156-.05859-.08984.22266-.22266.08593-.0586.10547-.04296.11719-.03125.13281-.01563.13281.01563.13672.01562.10157.04297.1328-.01172.08985-.0625.10156-.04297.0625-.08984-.04687-.10156-.08984-.0586-.1172-.03125-.10155-.04296-.0586-.08985-.0625-.08984v-.11719l.01563-.13281.10547-.04688.07421-.07031v-.1211l-.08984-.05859-.03125-.11719.08985-.05859.07421-.07422.04297-.10547.0586-.08984.04687-.10156.01563-.13281v-.14844l-.04688-.10547-.04297-.10156-.08984-.0586-.13281-.01562-.10157-.04297-.13671-.01563-.1172-.03125h-.4453l-.13282-.01562-.13281-.01172-.13281-.01563-.11719-.03125h-.14844l-.13281-.01562-.13281-.01172-.26563-.03125-.1211-.04297-.08593-.0586-.07422-.07421v-.14844l.01172-.13281.10547-.04688.10156-.04296.13281-.01563h.15235l.13281-.01562h.29297l.1211.03125.10156.04296.08984.0586.23438.0625.12109-.04688.08984-.05859.10156-.04297.13282-.01562.10547.04296.10156.04688.13281.01172.1211-.02735h.14453l.12109-.03125.11719-.02734.10547-.04687.07421-.07422.08594-.0586.14844-.14843.0586-.08594.04687-.10547.02734-.11719.01563-.10547-.10156-.04296-.08985-.0586-.11719-.03125-.10546-.04297-.08985-.0625-.07422-.08594-.07422-.07421-.10156-.04297-.10547-.04688-.10156-.04297-.0586-.08984-.04687-.10156-.08594-.21094-.0625-.08594-.05859-.08984-.07422-.07422-.08594-.0586h-.26953l-.11719.03126-.08984.05859-.10156.04297-.13281.01562-.10547-.01562-.02735-.11719-.0625-.08984-.11718-.03125-.10157-.04297-.14843-.14844-.03125-.11719-.01563-.10546.07422-.07422.17969-.1172.11719-.02733.11718-.03125.13672.01562.10156.04297.10547.04297.10156.04687.10547.04297.1172.03125.1328.01563.1172.02734.1328.01563.10547-.01563.08985-.0586-.07422-.07421-.10547-.04297-.07422-.07422-.07422-.08984-.14844-.14844-.08593-.0586-.08985-.05859-.07422-.07422-.08984-.0586-.10156-.04687-.1211-.02734-.10156-.04688-.10547-.04296-.11719-.03125-.10156-.04297-.1211-.03125h-.14843l-.11719.03125-.10546.04297-.08594.0625-.17969.11718-.08594.0586-.08984.0586-.10547.04687-.08594.05859-.10547.04297-.10156.04297-.10547.04687-.07422.07422-.05859.08985-.0586.08593-.04687.10547-.0586.08594-.07421.07422-.13281-.01172-.1172-.03125h-.11718l-.07422.07422-.08984.0586-.07422.07421-.08984.0586-.08594.05859-.10547.04687-.10156.04297-.13672.01563-.10156-.04297-.14844-.14844-.10547-.04688h-.08594l-.10547.04688-.10156.04297-.1211.03125-.11718-.03125-.07422-.07422v-.11719l.03125-.1211.07422-.0703.0586-.08985.07421-.07422.11719-.03125.10547-.04296h.29297l.13281-.01563.13672-.01563.10156-.04296.08985-.0586.10156-.04687.08984-.0586.13281-.01171.08985.05859.13281.01172.08984-.0586.08594-.05859.10547-.04297.08984-.0586.08594-.0625.08985-.05859.14843-.14843.0586-.08594.05859-.08985.10547-.04296.13281-.01563.11719.02735.1211.03125.05859-.0586.05859-.08984.03125-.26563.02734-.11719.10547.01172.13281.01563.10157-.04297.08984-.0586.0586-.08984.07421-.07422.0586-.08984.04687-.10156.01172-.13281-.01172-.13282-.04687-.10547-.14844-.14843-.0586-.08985-.05859-.08594-.04297-.10546v-.44532l.01563-.1328v-.14845l.01172-.1328-.0586-.0586-.08984.0586-.10156-.04298-.17969-.11719-.08594-.05859-.0625-.08984-.0586-.08985-.07421-.07421-.08594-.0586-.1211.03125-.10155.01172-.10547.04688-.08594.05859-.10547.04297-.14844.14844-.08984.05859-.08594.0586-.08984.0625-.10547.04296-.13281.01563v-.1211l.10547-.04297.11718-.03125.07422-.0703.04297-.10548v-.14844l-.02734-.11718-.14844-.14844-.13281-.01563h-.14844l-.11719.03125-.10547.04297-.10156.04297-.08984.0625-.11719.02735-.07422-.07422.01172-.13281-.04297-.10157-.04297-.10547-.08984-.05859-.11719.02734-.1211.03125-.11718.03125-.10156.04297-.1211.03125-.10156.04297-.10547.04297-.08984.0586-.10156.01562v-.11719l.01562-.13281-.0586-.08985-.07421.04297-.14844.14844-.0586.08985-.07421.07421-.04688.10547-.04296.10156-.07422.07422-.0586.08985-.07422.07422-.05859.08593-.07422.07422-.08984.0625-.07422.07031-.07422.07422-.10156.01563-.13281.01562-.10547-.04296v-.1211l.14843-.14844.04297-.10156.0586-.08984.04687-.10156.04297-.10547.0586-.08985.03124-.11719.04297-.10156.03125-.1211.02735-.11718.04687-.10547.04297-.10156.04297-.10547.07422-.07031.08984-.0625.08985-.0586.10156-.04296h.29687l.26563-.03125.10547-.04297-.07422-.07422-.11719-.03125-.10547-.04297-.08984-.0586-.10156-.04687-.08985-.0586-.10156-.04296-.10547-.04297-.08984-.0625-.08594-.0586-.10547-.04296-.10156-.04297-.1211-.03125-.11718-.03125-.10157-.04297L297.5 410.25l-.10156-.04297-.08985-.0586-.04296-.10546-.01563-.13281.10156-.04297.13281-.01563.13672.01563.13282-.01563.10156-.04297.0586-.08984.01562-.10547-.08985-.0586-.07421-.07421-.10157-.04297-.08984-.0586-.14844-.14843-.04297-.10547-.01562-.13281v-.29297l-.0586-.08985-.08984-.05859-.07422-.07422-.04297-.10547-.03125-.11718-.0586-.08985-.07421-.07422-.11719-.02734-.07422-.07422-.08984-.0586-.08984-.0625-.08594-.05859-.07422-.07421-.0586-.08594-.04687-.10547-.08594-.0586-.14843-.14843-.19532-.0586-.1328.01563-.10157.04297-.07422.07422-.04688.10156-.04296.10547-.0586.08984-.0586.08594-.29687.29687-.08984.0586h-.08594l-.0625-.08594-.04297-.10547.03125-.11719.0586-.08984.02734-.11719-.01172-.13281-.08984-.0625-.10547.04688-.11719.02734-.11719.03125-.26953.17578-.10156.04688-.11719.02734-.10546.04687-.08985.0586-.10156.04297-.0586-.08594-.04687-.10547.01563-.13281.04687-.10547.07031-.07422.07422-.07031.0586-.08985v-.14843l-.04297-.10547h-.23829l-.10156.04687-.03125.11719-.02734.11719-.03125.1211-.07422.04296-.13281.01563-.07422-.04688-.04297-.10156-.04297-.10547-.04687-.10156-.04297-.10547-.1211.03125-.10156.04297-.13281.01562-.11719.03125-.10547.04297-.08984.0586-.10156.04687-.1211.02734-.13281.01563-.10156-.04297-.0586-.08985-.04687-.10546-.04297-.10157-.04297-.10546v-.1172l.0586-.08984.08593-.05859.17969-.11719.10156-.04687.10547-.04297.10547-.0586.10156-.04296.08985-.0625.10156-.04297.10547-.0586.10156-.04687.08984-.0586.10547-.04296.10156-.04297.08985-.0625.10156-.04297.13672-.01563.11719.03125.10156.04297.1211.03125.10156.04297.10546.04688.10157.04296.10547.04297.10156.04688.10547.04297.10156.04297.10547.04687.08594.0586.10546.04296.1172.03125.10546.04297.10156.04688.08985.0586.10547.04296.10156.04297.10547.04687.11719.02735.10156.04687.1211.02735h.14843l.08594-.0586.01562-.10156.0586-.08984-.02735-.1172-.07422-.07421-.11719-.17969-.07421-.07422-.08985-.07421-.17969-.1172-.08593-.05859-.10547-.04296-.10156-.04688-.26954-.17578-.05859-.08985-.07422-.07421-.0586-.08985-.04296-.10156-.03125-.11719-.01563-.13672v-.5625l-.01171-.1328-.01563-.13282-.03125-.11719-.01562-.13281-.01172-.13281-.03125-.1211-.22266-.22265-.0586-.08594-.01562-.10547.03125-.11719.13281-.01562v-91.41406H172.9922v1.45312l-.0586.23438-.35156 1.05078-.17187.52343-.1172.34766-.17577.41016-.11719.17187-.23438.29297-.23046.0586h-.35157l-.11718.05859-.23047.40625v.29297l.11719.17578.23046.23047.1172.23437.64062.75781.29297.46485.17578.23437.23047.35156.23437.34766.64063.8164.17578.46485.17187.41016.11719.69531.17578.46875.11719 1.39844.0586.46484v.875l.11718 1.04688v4.78125l-.0586.46484-.35156 1.28125-.17578.52344-.11328.41015-.35156.9297L172.93359 336l-.23437.58203-.11719.17578-.17187.34766-.17578.40625-.35157.8164-.0586.29297-.11327.29297-.11719.28906-.0586.17579-.11718.875-.0586.40625-.05859.11718-.0586.17579-.05859.17187-.23047.52734-.11718.17188v.23437l-.11719.23438-.0586.17187-.17577.58594v.28906l-.0586.17579v.29296l-.0586.11329-.05859.52734v.17187l-.05468.23438v2.6211l-.17578.8164-.1172.17578-.17577.23438-.1172.17187-.11327.23438-.58594.93359-.23047.28906-.29297.46485-.17578.23437-.28906.35156-.35156.69922-.11328.23047-.17579.41016-.17578.23046-.40625.52735-.8164.69922-.29297.17187-.28906.23438-.17579.11719-.17578.17578-.52344.40625-.52734.17578-.17187.17578-.23438.05469-.64062.17578h-.75782m12.21094 31.02344l-1.07422.44921.35938.89454 1.25-.71485.44531-.53906-.98047-.08985"/><path fill="#d3d3d3" fill-opacity="0" fill-rule="evenodd" d="M201.50781 416.59766h-.89453l.44922.6289.98047.35938.80469-.08985.4453-.98828-.17577.08985-.71485-.35547-.89453.35547m154.6211 59.0703l-.0586-.52343v-.29297l.11328-.29297.0586-.23046.46875-.46875h.11328l.11719-.11329.11718-.05859h.17579l.23437-.0586h.34766l.23437.0586.11719.0586.23047.17187.0586.17578.11718.58203v.29297l-.11719.17578-.17187.28906-.17579.17579-.52734.52343-.23047.23438-.11719.0586h-.17578l-.11718-.0586-.40625-.29297-.17579-.11719-.11718-.0586-.0586-.11327-.05468-.1172m6.64062-10.95702l-.0586-.17188v-1.10937l.0586-.17188.17578-.0586.17188-.05858h.17578l.23437-.0586.1172.0586.05858.69921-.05859.17188-.11719.17578-.11718.0586-.23438.52343-.11328.0586h-.23438l-.05859-.1172m9.61328-14.39062l-.11719-.17578v-.69922l.29297-.875.1172-.17187.17577-.35156.11328-.23047.1172-.29297.35155-.75781.1172-.23047.17187-.23438h.17578l.11719-.0586h.64062l.11719.0586.23437.23438.17188.11328.35156.29297.11719.11718.11328.17579v.11328l.11719.05859.11718.11719v.69922l-.05859.17578v.23047l-.0586.17578-.34765 1.05078-.11719.23047-.11719.23437-.11718.0586-.23047.23437-.64063.28906h-.875l-.41015-.11718-.64063-.46485"/><path fill="none" stroke="#bebebe" stroke-linecap="round" stroke-linejoin="round" stroke-miterlimit="10" stroke-width=".5" d="M467.95703 311.69531H144.02734v168.625h323.9297v-168.625"/><g clip-path="url(#a)"><path fill="#fff" fill-opacity="0" fill-rule="evenodd" d="M144 475.89063v4.4375h.0039H144V311.67188h.0039H144v164.21875"/></g><g clip-path="url(#b)"><path fill="#fff" fill-opacity="0" fill-rule="evenodd" d="M144.0039 480.32813V311.67188h102.07813v95.16015l-1.40234 2.48438-3.03516 2.20312-4.4375-.97656-2.63281 3.21094.08984 4.4375-1.89844.73828-3.98046 3.69922-.45703.375-3.2422-.375-1.1953-.92188-4.21875-3.51562 1.44921-4.4375-1.66797-2.09375-4.4375-1.73438-4.375 3.82813-.0664.21875-4.4375 1.49218-2.95703 2.72657 2.95703 3.85156.65234.58594-.65234.46484-4.4375-.0039-.22266-.46094-3.96875-4.4375-.2461-.1875-.22265.1875-4.21875.8203-4.25-.8203-.1875-.16016-.22265.16016-4.21485 1.03906-4.4375-.08985-4.4414.19532-4.4375-.20313-4.4375 1.44531-1.98828 2.05079.72265 4.4414-1.70312 4.4375-.6836 4.4375-.78515 2.22656-1.05078 2.21094-.48438 4.4375-.83984 4.4414.5039 4.4375-.45312 4.4375-.24219 4.4375 2.5664 2.58595 4.4375.34375 4.4375.32421 4.4375-2.5039.875-.75 1.53126-4.4375 2.03515-1.76172 4.4375-1.6875 1.45703-.98828 2.16797-4.4375-3.625-2.07031-1.83594 2.0703-2.60156 1.82813-2.17187-1.82812-.17969-4.4414 2.35156-1.57423 4.4375-1.24218 2.66797-1.6211 1.76953-.375 4.4375-1.46875 4.4414 1.3164.51563.52735.26563 4.4375-.78125 2.29688-1.14844 2.14453-1.3711 4.4375 2.51954 3.03906 4.4375.66406 4.4375-.05078 4.4375-.53515 3.86328-3.1172.57813-.4453 3.3164-3.9922 1.1211-3.98046.35546-.46094-.35547-.52344-1.57421-3.91406-2.86328-2.67578-2.12891-1.76172-.53125-4.4375.42187-4.4375 2.23828-1.0625 1.95313 1.0625 2.48438 2.30469 4.4375 1.34766.89062.78515 3.54688 3.0664 4.4375 1.26563.18359.10547 4.25781 3.5625 1.84766.875 2.58984 2.50781 4.4375-.10156 2.3711-2.40625.77343-4.4375 1.29297-2.92578 1.77344-1.51172 2.66406-.38672 4.4414-1.08593 2.9961-2.96485.09375-4.4414-3.08984-2.89063-4.4414.09766-4.4375.10547-4.4375.59765-4.4375-.88672-1.96095-1.46093 1.96094-2.1211 3.08984-2.3164 1.34766-2.16797 1.38281-2.26953-1.3828-2.48438v-95.16015h22.1914v116.5625l-3.91406 3.27343 3.91406 3.10547 4.4375-1.90234 1.5-1.20313-1.5-1.33594-4.4375-1.9375v-116.5625h39.94531v98.62891l-3.70703 3.45313-.73047 3.7578-.4961.6797-3.9414 1.75-4.4414-.9961-.8086-.7539-3.6289-3.35547-3.71876 3.35547-.71875 4.28906-.10156.14844.10156.0703 1.50782 4.3711-1.50782 3.04297-4.4375-1.73828-3.3789 3.13281 3.3789 4.08594 1.02344.35156 3.41406 1.7539 4.4375-1.45312.3047-.30078 3.39843-4.4375.73437-.41406v24.86719l-2.17578 2.17578 2.17578 4.02734 3.47266-4.02734-3.47266-2.17578v-24.86719l4.1836.41406.25781.08594.30078-.08594 4.13672-.5625 2.91406-3.875-2.91406-3.13672-1.52734-1.30468 1.52734-3.83594 4.4375.5664 4.4375 2.8047 3.4375-3.97266-1.8164-4.4375-1.6211-2.64844-4.4375-.80469v-98.6289h17.7539v144.8203l-2.78124 1.64454 2.78125 1.875 1.64843-1.875-1.64843-1.64453V311.67188h8.875v107.52734l-2.01172 3.42969 2.01172 1.98828 3.3125-1.98828-3.3125-3.4297V311.67189h13.3164v109.1953l-3.27734 1.76173-1.16016 1.89062-1.19922 2.55078 1.19922 1.03516 3.16016 3.40234-1.3789 4.4375 2.65624 2.64453 4.4375.59766 1.83594-3.24219-1.83594-1.90625-3.08594-2.53125 1.67188-4.4375-1.0664-4.4414-1.95704-1.76172V311.67188h31.07031v130.3789l-2.57812 2.76953-1.86328.6875-3.73828 3.7539L374.79297 453l3.79687-3.73828.64454-1.78125 2.72656-2.66016-2.72656-2.76953v-130.3789h4.4375v120.6289l-2.85157 3.64453 2.85156 2.82813 3.02344-2.82813-3.02344-3.64453v-120.6289h62.13672v146.40234l-.07812.0625-4.35938 1.78515-4.4414.28516-4.4375 1.10156-2.98047 1.26563 2.98047 2.20703 4.4375-.03125 2.53515 2.26563 1.90625 1.60937 1.34766-1.60938 3.08984-1.51171 2.90625-2.9297-2.83203-4.4375-.07422-.0625V311.67189h22.1875v150.11328l-.8125.78906.8125.875v5.36328l-4.43359-.73828-3.03906 3.3789-.20313 4.4375 1.74219 4.4375h-28.53906l.85547-4.4375 1.16406-4.4375-3.05078-3.83593-3.58203 3.83594 1.37109 4.4375-2.22656 1.8164-4.4375.45313-1.875-2.26954-2.5625-2.48046-1.92578-1.95704 1.14062-4.4375.78516-.33593 4.4375-.17578 4.35547-3.9297-.16016-4.4375.24219-1.04296 3.17969-3.39453 1.2578-.57031 3.5547-3.8672.32421-4.4414-3.8789-3.6875-4.4375.26953-4.4375.66407-4.4375-1.02344-2.46094 3.77734-1.98047.7539-4.4375-.2539-3.42969 3.9414-1.0078 1.7422-3.17188 2.6953-1.26563.91407-4.4414.32422-.1797-1.23828-3.15234-4.4375-1.10546-1.26953-1.57422 1.26953-2.86329 2.23828-1.83593 2.19922-2.60156.6289-3.69922 3.8086-.03516 4.4375 3.73438 3.79687 4.4375.25391 4.4375-.14063 4.4375-.47656 4.4414.20703 4.4375.78516.01563.01563-.01563.08593-3.20312 4.35156-1.23438 1.52735-.3789-1.52735-4.0625-3.47656-4.4375 1.97656-1.62891 1.5.58594 4.4375 1.04296 1.04297 4.4375-.33593 4.44141.77343 1.21094-1.48046 3.22656-2.9336 4.4375 2.30469h4.4375l.64453.6289 3.79688 3.40625 1.34375 1.03125H144.0039"/></g><path fill="#50fcfc" fill-rule="evenodd" d="M161.7539 465.16016l-2.5664-2.58594.24219-4.4375.45312-4.4375-.5039-4.4375.83984-4.4414.48438-4.4375 1.05078-2.21094.78515-2.22657.6836-4.4375 1.70312-4.4375-.72266-4.4414 1.98829-2.05079 4.4375-1.4453 4.4375.20312 4.4414-.19531 4.4375.08984 4.21485-1.03906.22265-.16016.1875.16016 4.25.8203 4.21875-.8203.22266-.1875v2.0039l-4.4414.66797-4.4375-.5039-4.4375 1.5625-1.60548.89453-2.83203 2.71484-1.28906 1.72656-3.15234 2.3164-4.4375.01954-4.26172 2.10156-.01953 4.4375-.15625 1.8711-.3047 2.5664.3047.38281v5.97266l-1.8711 2.52344 1.8711 3.33594 3.92187-3.33594-3.92187-2.52344v-5.97265l1.7578-.38282 2.6797-.3164 1.5039.3164 2.9336 1.0039v10.17579l-4.4375.94531-1.28516 1.1914-3.15234 2.7461-2.78125 1.6914-.60547 4.4375 3.38672.66407 4.4375.75781 2.10156-1.42187.98828-4.4375 1.34766-2.24219 2.53906-2.19531-2.53906-2.13672v-10.17578l2.1953-1.0039 2.2461-.34376 4.4375-1.23828 4.4375-1.58594 2.9961-1.26953 1.4414-2.3789 4.4414.0703 2.57032 2.3086 1.86719 1.96094 1.41406 2.47656-1.41406 3.03125-.33984 1.40625-2.72657 4.4414-.0664 4.4375 3.1328 1.1875 4.4375.53126 4.4375-1.41406.37892-.3047 4.0625-3.11718 1.09765-1.32031 1.4336-4.4414-2.53125-3.79298-1.46094-.64453-2.98047-2.20703-4.4375.14453-3.35938-2.375 3.35938-2.22265 2.0625-2.21485-1.07422-4.4375-.98828-.46094-4.4375.09766-1.97266-4.07812-2.46484-2.6211v-2.0039l.2461.1875 3.96874 4.4375.22266.46093 4.4375.00391.65234-.46484-.65234-.58594-2.95703-3.85156 2.95703-2.72657 4.4375-1.49218.0664-.21875 4.375-3.82813v1.51953l-2.63671 2.3086 2.63672 3.03906 2.93359-3.03906-2.9336-2.3086v-1.51953l4.4375 1.73438 1.66797 2.09375-1.44922 4.4375 4.21875 3.51562 1.19532.92188 3.24219.375.45703-.375 3.98047-3.69922 1.89843-.73828-.08984-4.4375 2.63281-3.21094v8.26172l-4.4414 1.42969-2.57813 2.39453-1.85938 1.52343-4.4375 1.09766-1.55468-2.6211-2.88281-2.77734-4.4375.46094-3.39063 2.3164 3.39063 1.46094 4.4375 2.29297 1.45703.6875 2.98047 1.38281 3.46875 3.0547.96875.83593 4.4375 2.51953 1.8789 1.08203 2.5625 2.14453 4.4375 1.34766 4.4375-1.78906.41406-1.70313-.41406-.83203-4.4375-.59765-.63281-3.00782.63281-1.5v1.42578l-.03125.07422.03125.14844.58203-.14844-.58203-.07422v-1.42578l4.4375-.8125 4.4375 1.01563 4.4375-.14063 4.4414-2.4961.51173-.5039.08593-4.4414-.59765-.5586-4.16797.5586-.27344.02734-4.4375.02734-4.4375 1.90235-3.03125-1.95703-1.40625-.53516-4.4375-3.28906v-8.26172l4.4375.97656 3.03516-2.20312 1.40234-2.48438 1.38281 2.48438-1.3828 2.26953-1.34767 2.16797-3.08984 2.3164-1.96094 2.1211 1.96094 1.46093 4.4375.88672 4.4375-.59765 4.4375-.10547 4.4414-.09766 3.08985 2.89063-.09375 4.4414-2.9961 2.96485-4.4414 1.08593-2.66406.38672-1.77344 1.51172-1.29297 2.92578-.77344 4.4375-2.37109 2.40625-4.4375.10156-2.58984-2.5078-1.84766-.875-4.25781-3.5625-.1836-.10548-4.4375-1.26562-3.54687-3.0664-.89063-.78516-4.4375-1.34766-2.48437-2.30469-1.95313-1.0625-2.23828 1.0625-.42187 4.4375.53125 4.4375 2.1289 1.76172 2.86329 2.67578 1.57422 3.91406.35546.52344-.35547.46094-1.12109 3.98047-3.3164 3.99219-.57813.4453-3.86328 3.1172-4.4375.53515-4.4375.05078-4.4375-.66406-2.51953-3.03906 1.3711-4.4375 1.14843-2.14453.78125-2.29688-.26563-4.4375-.51562-.52734-4.4414-1.3164-4.4375 1.46874-1.76954.375-2.66797 1.6211-4.4375 1.24218-2.35156 1.57422.17969 4.4414 2.17187 1.82813 2.60156-1.82812 1.83594-2.07031 3.625 2.0703-2.16797 4.4375-1.45703.98829-4.4375 1.6875-2.03515 1.76172-1.53125 4.4375-.875.75-4.4375 2.5039-4.4375-.32421-4.4375-.34375"/><path fill="#00e8fc" fill-rule="evenodd" d="M166.1914 463.23828l-3.38671-.66406.60547-4.4375 2.78125-1.6914 3.15234-2.7461 1.28516-1.1914 4.4375-.94532 2.53906 2.13672-2.53906 2.19531-1.34766 2.24219-.98828 4.4375-2.10156 1.42187-4.4375-.7578"/><path fill="#fff" fill-opacity="0" fill-rule="evenodd" d="M166.1914 446.73828l-1.87109 2.52344 1.8711 3.33594 3.92187-3.33594-3.92187-2.52344"/><path fill="#00e8fc" fill-rule="evenodd" d="M166.1914 440.76563l-.30468-.38282.30469-2.5664.15625-1.8711.01953-4.4375 4.26172-2.10156 4.4375-.01953 3.15234-2.3164 1.28906-1.72657v4.27344l-2.4375 1.89062-.55469 4.4375 2.9922.8789 2.96093-.8789 1.47656-3.54687.75781-.89063-.7578-.25781-4.4375-1.63281v-4.27344l2.83202-2.71484 1.60547-.89454 4.4375-1.5625v5.21485l-2.22656 1.6836 2.22656 1.53906 1.84766-1.53907-1.84766-1.6836v-5.21483l4.4375.5039 4.4414-.66797v5.98438l-1.34765 1.07812 1.34766 2.97266 3.6289-2.97266-3.6289-1.07812v-5.98438l2.46484 2.6211 1.97266 4.07812 4.4375-.09765.98828.46093 1.07422 4.4375-2.0625 2.21485-3.35938 2.22265 3.35938 2.375v5.54688l-.76953.95312-3.66797 4.23047-.13672.21094.13672.26953 4.4375 2.8164 4.4375-.90624 2.4961-2.1797-.6172-4.4414-1.8789-.875-4.4375-.07812v-5.54688l4.4375-.14453 2.98047 2.20703 1.46094.64453 2.53125 3.79297-1.4336 4.4414-1.09766 1.32032-4.0625 3.11719-.3789.30469-4.4375 1.41406-4.4375-.53125-3.13281-1.1875.0664-4.4375 2.72656-4.4414.33985-1.40626 1.41406-3.03125-1.41406-2.47656-1.86719-1.96094-2.57031-2.3086-4.4414-.0703-1.44141 2.3789-2.9961 1.26953-4.4375 1.58594-4.4375 1.23828-2.2461.34375-2.1953 1.0039-2.9336-1.0039-1.5039-.3164-2.6797.3164-1.7578.38281"/><path fill="#00d4fc" fill-rule="evenodd" d="M179.50781 436.82422l-2.99219-.8789.5547-4.4375 2.4375-1.89063 4.4375 1.63281.7578.25781-.7578.89063-1.47657 3.54687-2.96094.8789"/><path fill="#50fcfc" fill-rule="evenodd" d="M188.38281 425.38672l-2.22656 1.6836 2.22656 1.53906 1.84766-1.53907-1.84766-1.6836m8.8789.60548l-1.34765 1.07812 1.34766 2.97266 3.6289-2.97266-3.6289-1.07812"/><path fill="#00d4fc" fill-rule="evenodd" d="M201.69922 449.53125l-.13672-.26953.13672-.21094 3.66797-4.23047.76953-.95312v5.07812l-.26953.3164.26953.17579 1.72656-.17578-1.72656-.3164v-5.07813l4.4375.07812 1.8789.875.6172 4.4414-2.4961 2.1797-4.4375.90625-4.4375-2.81641"/><path fill="#00c4fc" fill-rule="evenodd" d="M206.13672 449.4375l-.26953-.17578.26953-.3164 1.72656.3164-1.72656.17578"/><path fill="#00e8fc" fill-rule="evenodd" d="M215.01563 424.08984l-3.39063-1.46093 3.39063-2.31641 4.4375-.46094 2.8828 2.77735 1.5547 2.62109 4.4375-1.09766 1.85937-1.52343 2.57813-2.39454v2.16797l-.2422.22657-4.1953 3.4414-2 1 2 1.78125 1.87109 2.65625 2.5664 1.73047 4.44141 2.5625 2.80078-4.29297 1.63672-3.875 1.20703-.5625-1.20703-.95703-4.4375-3.29297-2.11719-.1914-2.32422-.22657v-2.16796l4.44141-1.4297 4.4375 3.28907 1.40625.53516 3.03125 1.95703 4.4375-1.90235 4.4375-.02734v2.57031l-4.4375 1.45313-.58594.39062.58594.27735 4.4375.97265 2-1.25-2-1.84375v-2.57031l.27344-.02734 4.16797-.5586.59765.5586-.08593 4.4414-.51172.5039-4.4414 2.4961-4.4375.14063-4.4375-1.01563-4.4375.8125-.63282 1.5.63281 3.00781 4.4375.59766.41406.83203-.41406 1.70313-4.4375 1.78906-4.4375-1.34766-2.5625-2.14453-1.8789-1.08203-4.4375-2.51953-.96875-.83594-3.46875-3.05469-2.98047-1.3828-1.45703-.6875-4.4375-2.29298m0-7.29687l-2.63672-3.03906 2.63672-2.3086 2.93359 2.3086-2.9336 3.03906"/><path fill="#00d4fc" fill-rule="evenodd" d="M228.32813 428.85156l-2-1.78125 2-1 4.1953-3.4414.2422-.22657 2.32421.22657 2.1172.1914v2.00781l-2.72267 2.2422-1.71875 4.07421-.15234.36328.15234.10156 4.44141 2.65625 1.79688-2.7578.83984-4.4375-2.63672-2.2422v-2.0078l4.4375 3.29296 1.20703.95703-1.20703.5625-1.63672 3.875-2.80078 4.29297-4.4414-2.5625-2.56641-1.73047-1.8711-2.65625"/><path fill="#00c4fc" fill-rule="evenodd" d="M232.76563 431.60938l-.15235-.10157.15234-.36328 1.71875-4.07422 2.72266-2.24219v2.00391l-.28516.23828-1.75 4.4375 2.03516 1.21875.79297-1.21875-.51953-4.4375-.27344-.23828v-2.0039l2.63672 2.24218-.83984 4.4375-1.79688 2.75781-4.4414-2.65625"/><path fill="#00b8fc" fill-rule="evenodd" d="M237.20703 432.72656l-2.03516-1.21875 1.75-4.4375.28516-.23828.27344.23828.51953 4.4375-.79297 1.21875"/><path fill="#fff" fill-opacity="0" fill-rule="evenodd" d="M241.64453 431.4336l-.03125.07421.03125.14844.58203-.14844-.58203-.07422"/><path fill="#00d4fc" fill-rule="evenodd" d="M250.51953 427.34766l-.58594-.27735.58594-.39062 4.4375-1.45313 2 1.84375-2 1.25-4.4375-.97265"/><path fill="#50fcfc" fill-rule="evenodd" d="M268.27344 434.61328l-3.91406-3.10547 3.91406-3.27344v2.3672l-1.08203.90624 1.08203.85938 1.48828-.85938-1.48828-.90625v-2.36719l4.4375 1.9375 1.5 1.33594-1.5 1.20313-4.4375 1.90234"/><path fill="#00e8fc" fill-rule="evenodd" d="M268.27344 432.36719l-1.08203-.85938 1.08203-.90625 1.48828.90625-1.48828.85938"/><path fill="#50fcfc" fill-rule="evenodd" d="M281.58984 435.59375l-3.3789-4.08594 3.3789-3.13281v2.08203l-1.1328 1.05078 1.1328 1.36719 1.84766-1.36719-1.84766-1.05078V428.375l4.4375 1.73828 1.50782-3.04297-1.50782-4.3711-.10156-.0703.10156-.14844.71875-4.28906 3.71875-3.35547v2.1914l-1.28906 1.16407-1.69922 4.4375 2.40625 4.4414.04688 4.4375.53515.41016.32813-.41016 4.10937-2.30078 4.44141.80469 4.4375-2.11328.625-.82813-.625-.67578-4.41406-3.76562-.02344-.02344-4.4414-1.45703-3.1797-2.95703-1.2578-1.16407v-2.1914l3.6289 3.35547.8086.7539 4.4414.9961 3.9414-1.75.4961-.6797.73047-3.7578 3.70703-3.45313v1.49219l-2.10547 1.96094 2.10547 2.79296 1.67578 1.64454 2.76172 2.22656 1.92578-2.22656-1.92578-2.98829-1.41797-1.44921-3.01953-1.96094v-1.49219l4.4375.80469 1.6211 2.64844 1.8164 4.4375-3.4375 3.97265-4.4375-2.80469-4.4375-.5664-1.52734 3.83594 1.52734 1.30468 2.91406 3.13672-2.91406 3.875-4.13672.5625-.30078.08594-.25781-.08594-4.1836-.41406-.73437.41406-3.39844 4.4375-.30469.30078-4.4375 1.45313-3.41406-1.7539-1.02344-.35157"/><path fill="#00e8fc" fill-rule="evenodd" d="M281.58984 432.875l-1.1328-1.36719 1.1328-1.05078 1.84766 1.05078-1.84766 1.36719m8.29297-5.80469l-2.40625-4.4414 1.69922-4.4375 1.28906-1.16407v4.4961l-.55078 1.10547.55078.93359 1.22657-.9336-1.22657-1.10546v-4.4961l1.25782 1.16407 3.17968 2.95703 4.44141 1.45703v3.82812l-1.51953.63672 1.51953.41797.73438-.41797-.73438-.63672v-3.82812l.02344.02344 4.41406 3.76562.625.67578-.625.82813-4.4375 2.11328-4.4414-.80469-4.10938 2.30078-.32813.41016-.53515-.41016-.04688-4.4375"/><path fill="#00d4fc" fill-rule="evenodd" d="M290.46484 423.5625l-.55078-.9336.55078-1.10546 1.22657 1.10547-1.22657.93359"/><path fill="#50fcfc" fill-rule="evenodd" d="M294.90234 462.16406l-2.17578-4.02734 2.17578-2.17578 3.47266 2.17578-3.47266 4.02734"/><path fill="#00d4fc" fill-rule="evenodd" d="M299.34375 427.48828l-1.51953-.41797 1.51953-.63672.73438.63672-.73438.41797"/><path fill="#00e8fc" fill-rule="evenodd" d="M308.21875 416.54688l-2.10547-2.79297 2.10547-1.96094 3.01953 1.96094 1.41797 1.44921 1.92578 2.98829-1.92578 2.22656-2.76172-2.22656-1.67578-1.64454"/><path fill="#50fcfc" fill-rule="evenodd" d="M325.97266 460.01172l-2.78125-1.875 2.78125-1.64453 1.64843 1.64453-1.64843 1.875m8.875-35.39453l-2.01172-1.98828 2.01172-3.4297 3.3125 3.4297-3.3125 1.98828m8.8789 3.48828l-1.19922-1.03516 1.19922-2.55078 1.16016-1.89062 3.27734-1.76172v5.33984l-.65625.86328.65625.70703.36719-.70703-.36719-.86328v-5.33984l1.95703 1.76172 1.06641 4.4414-1.67188 4.4375 3.08594 2.53125 1.83594 1.90625-1.83594 3.24219-4.4375-.59766-2.65625-2.64453 1.3789-4.4375-3.16015-3.40234"/><path fill="#00e8fc" fill-rule="evenodd" d="M348.16406 427.77734l-.65625-.70703.65625-.86328.36719.86328-.36719.70703"/><path fill="#50fcfc" fill-rule="evenodd" d="M374.79297 453l-3.73828-3.73828 3.73828-3.7539v1.05077l-2.6914 2.70313 2.6914 2.6914 2.73437-2.6914-2.73437-2.70313v-1.05078l1.86328-.6875 2.57813-2.76953 2.72656 2.76953-2.72656 2.66016-.64454 1.78125L374.79297 453"/><path fill="#00e8fc" fill-rule="evenodd" d="M374.79297 451.95313l-2.6914-2.69141 2.6914-2.70313v1.75391l-.94531.94922.9453.94531.96095-.94531-.96094-.94922v-1.7539l2.73437 2.70312-2.73437 2.6914"/><path fill="#00d4fc" fill-rule="evenodd" d="M374.79297 450.20703l-.94531-.94531.9453-.94922.96095.94922-.96094.94531"/><g clip-path="url(#c)"><path fill="#50fcfc" fill-rule="evenodd" d="M383.67188 466.3711l-3.73438-3.79688.03516-4.4375 3.69921-3.8086 2.60157-.6289 1.83594-2.19922 2.86328-2.23828 1.57421-1.26953 1.10547 1.26953 3.15235 4.4375.17969 1.23828 4.4414-.32422 1.26563-.91406 3.17187-2.69531 1.00781-1.7422 3.4297-3.9414 4.4375.2539 1.98046-.7539 2.46094-3.77734 4.4375 1.02344 4.4375-.66407 4.4375-.26953v2.28516l-4.4375.16406-2.57031 1.23828-1.8672 1.16016-4.4375.57031-4.4414 1.0625-4.4375-.4414-1.82031 2.08984 1.82031 2.44531 4.4375 1.95313.02344.03906-.02344.04297-4.4375 1.88672-4.4375-1.82032-4.4375 3.1836-1.96484 1.14453-2.47656 3.17578-.55079-3.17578-.80468-4.4375-3.08204-3.41016-3.58203 3.41016-.85546.57031-4.4375 1.24219-2.55079 2.625-.03515 4.4375 2.58594 2.6289 4.4375.67579 4.4375-.48438 4.4375-2.15234 4.4414 1.4336 4.4375.45312 2.79297 1.88671-.84766 4.4375 2.4922 1.77344 3.17187-1.77344 1.26562-1.3828 1.59375-3.0547 2.84766-1.21093 4.4375-.09375 3.47265-3.13672-.65234-4.4375 1.01172-4.4375.60547-1.51172 4.4375-1.58203 1.23828-1.34375.23828-4.4414-1.47656-1.40235v-2.28516l3.8789 3.6875-.32421 4.4414-3.5547 3.8672-1.2578.5703-3.1797 3.39454-.24218 1.04297.16016 4.4375-4.35547 3.92969-4.4375.17578-.78516.33594-1.14062 4.4375 1.92578 1.95703 2.5625 2.48046 1.875 2.26954 4.4375-.45313 2.22656-1.8164-1.3711-4.4375 3.58204-3.83594v3.09375l-.6914.74219.6914 1.23046.58984-1.23046-.58984-.7422v-3.09374l3.05078 3.83594-1.16406 4.4375-.85547 4.4375h-13l-1.34375-1.03125-3.79688-3.40625-.64453-.62891h-4.4375l-4.4375-2.30469-3.22656 2.9336-1.21094 1.48046-4.4414-.77343-4.4375.33593-1.04297-1.04296-.58594-4.4375 1.6289-1.5 4.4375-1.97657v2.64063l-1.3125.83594 1.3125 1.17578.97657-1.17579-.97656-.83593v-2.64063l4.0625 3.47656.3789 1.52735 1.23438-1.52735 3.20312-4.35156.01563-.08594-.01563-.01562-4.4375-.78516-4.4414-.20703-4.4375.47656-4.4375.14063-4.4375-.2539"/></g><path fill="#50fcfc" fill-rule="evenodd" d="M383.67188 438.77344l-2.85157-2.82813 2.85156-3.64453v3.11328l-.41796.53125.41796.41406.44141-.41406-.4414-.53125v-3.11328l3.02343 3.64453-3.02344 2.82813"/><path fill="#00e8fc" fill-rule="evenodd" d="M383.67188 465.20313l-2.58594-2.62891.03515-4.4375 2.55079-2.625 4.4375-1.24219.85546-.57031 3.58204-3.41016v2.17578l-1.29688 1.23438-3.14063 2.09765-4.4375 1.6836-.64062.65625-.03125 4.4375.67188.6836 4.4375 1.3828 4.4375-1.05859 1.75-1.00781.62109-4.4375-1.2539-4.4375-1.1172-1.23438v-2.17578l3.08204 3.41016.80468 4.4375.55079 3.17578 2.47656-3.17578 1.96484-1.14453 4.4375-3.1836 4.4375 1.82032 4.4375-1.88672.02344-.04297-.02344-.03906-4.4375-1.95313-1.82031-2.44531 1.82031-2.08985 4.4375.44141 4.4414-1.0625 4.4375-.57031v4.70312l-4.24218 3.01563-.19531.32812-1.80469 4.10938-2.63672 1.3789-3.4414 3.0586 3.4414 3.05078 4.4414-1.27734 4.4375.03906 2.00391-1.8125-1.47656-4.4375.95703-4.4375-1.48437-3.01563v-4.70312l1.86719-1.16016 2.5703-1.23828 4.4375-.16406 1.47657 1.40234-.23828 4.4414-1.23828 1.34376-4.4375 1.58203-.60547 1.51172-1.01172 4.4375.65234 4.4375-3.47265 3.13672-4.4375.09375-2.84766 1.21094-1.59375 3.05468-1.26562 1.38281-3.17188 1.77344-2.49219-1.77344.84766-4.4375-2.79297-1.88671-4.4375-.45313-4.4414-1.4336-4.4375 2.15235-4.4375.48438-4.4375-.67579"/><path fill="#00d4fc" fill-rule="evenodd" d="M383.67188 463.25781l-.67188-.6836.03125-4.4375.64063-.65624 4.4375-1.6836 3.14062-2.09765 1.29688-1.23438v3.16407l-4.4375 1.6914-1.97657.8164-.26562 4.4375 2.24219.82423 2.65625-.82422 1.78125-1.96094.85156-2.47656-.85156-2.50781v-3.16407l1.11718 1.23438 1.2539 4.4375-.62108 4.4375-1.75 1.00781-4.4375 1.0586-4.4375-1.38282"/><path fill="#00e8fc" fill-rule="evenodd" d="M383.67188 436.35938l-.41797-.41407.41796-.53125.44141.53125-.4414.41406"/><path fill="#00c4fc" fill-rule="evenodd" d="M388.10938 463.39844l-2.2422-.82422.26563-4.4375 1.97656-.8164 4.4375-1.69141.85157 2.5078-.85156 2.47657-1.78125 1.96094-2.65625.82422"/><path fill="#00e8fc" fill-rule="evenodd" d="M396.98438 472.6289l-1.3125-1.17577 1.3125-.83594.97656.83594-.97656 1.17578"/><path fill="#00d4fc" fill-rule="evenodd" d="M414.73828 465.625l-3.4414-3.05078 3.4414-3.0586 2.63672-1.3789 1.80469-4.10938.19531-.32812 4.24219-3.01563v10.45704l-4.4375.30859-4.4414.66406-.51954.46094.51953.46094 4.4414-.14454 4.4375.17188.53907-.48828-.53906-1.4336V450.6836l1.48437 3.01563-.95703 4.4375 1.47656 4.4375-2.0039 1.8125-4.4375-.03906-4.4414 1.27734"/><path fill="#00c4fc" fill-rule="evenodd" d="M414.73828 463.03516l-.51953-.46094.51953-.46094 4.4414-.66406 4.4375-.3086.53907 1.4336-.53906.48828-4.4375-.17188-4.4414.14454"/><path fill="#50fcfc" fill-rule="evenodd" d="M432.49219 464.78125l-2.98047-2.20703 2.98047-1.26563 4.4375-1.10156 4.4414-.28515 4.35938-1.78516.07812-.0625v3.60156l-2.52734.89844 2.52734.58984.58594-.58984-.58594-.89844v-3.60156l.07422.0625 2.83203 4.4375-2.90625 2.92969-3.08984 1.51171-1.34766 1.60938-1.90625-1.60938-2.53515-2.26562-4.4375.03125"/><path fill="#00e8fc" fill-rule="evenodd" d="M432.49219 472.6836l-.6914-1.23048.6914-.74218.58984.74219-.58984 1.23046m13.3164-9.51953l-2.52734-.58984 2.52734-.89844.58594.89844-.58594.58984"/><g clip-path="url(#d)"><path fill="#50fcfc" fill-rule="evenodd" d="M462.0625 480.32813l-1.74219-4.4375.20313-4.4375 3.03906-3.37891v2.39062l-.88672.98829-.14453 4.4375 1.03125 1.80468 2.53125-1.80469.73438-4.4375-3.26563-.98828v-2.39062l4.4336.73828v9.28125l-2.98048 2.23438h-2.95312"/></g><path fill="#00e8fc" fill-rule="evenodd" d="M463.5625 477.69531l-1.03125-1.80469.14453-4.4375.88672-.98828 3.26563.98829-.73438 4.4375-2.53125 1.80468"/><g clip-path="url(#e)"><path fill="#fff" fill-opacity="0" fill-rule="evenodd" d="M467.9961 478.09375l-2.98048 2.23438h2.98047v-2.23438"/></g><path fill="#50fcfc" fill-rule="evenodd" d="M467.9961 463.44922l-.8125-.875.8125-.78906v1.66406m0 5.36328v9.28125H468v-9.28125h-.0039"/><path fill="#fff" fill-opacity="0" fill-rule="evenodd" d="M467.9961 463.44922v5.36328H468v-5.36328h-.0039"/><path fill="#50fcfc" fill-rule="evenodd" d="M467.9961 461.78516v1.66406H468v-1.66797l-.0039.0039"/><g clip-path="url(#f)"><path fill="#fff" fill-opacity="0" fill-rule="evenodd" d="M467.9961 311.67188H468v150.10937-150.10938h-.0039"/></g><path fill="#fff" fill-opacity="0" fill-rule="evenodd" d="M403.125 459.8086l4.59375-3.60938-6.14844-7.83594-4.59375 3.60547 6.14844 7.83984"/><path fill-rule="evenodd" d="M400.85938 451.2539l.40234-.3164 3.88281 4.95313-.61719.48437-2.77343-3.53125-1.08985.85547-.34375-.4336.39844-.39843.16797-.19922.125-.21094.07031-.23828.00781-.26953-.0703-.32031-.16017-.375"/><path fill="#fff" fill-opacity="0" fill-rule="evenodd" d="M232.55469 425.05078l4.94922-3.10156-5.28907-8.4414-4.94922 3.10156 5.28907 8.4414"/><path fill-rule="evenodd" d="M231.20313 416.30469l.43359-.27344 3.33984 5.33594-.66406.41797-2.38672-3.8047-1.17578.73829-.29297-.47266.4375-.35156.1875-.17969.14453-.1953.09766-.23048.03516-.26953-.03516-.32422-.1211-.39062"/><path fill="#fff" fill-opacity="0" fill-rule="evenodd" d="M216.0586 459.28906l4.21093-4.05078-6.90625-7.17578-4.21094 4.04688 6.90625 7.17968"/><path fill-rule="evenodd" d="M212.94531 451.0039l.36719-.35156 4.36328 4.53516-.5664.54688-3.11329-3.23438-1 .96094-.3828-.39844.35546-.4375.14453-.21094.10547-.22265.04688-.2461-.01954-.26953-.10156-.3125-.19922-.35937"/><path fill="#fff" fill-opacity="0" fill-rule="evenodd" d="M156.51172 468.32813l5.30078 2.44921 4.17969-9.03906-5.30078-2.45312-4.1797 9.04296"/><path fill-rule="evenodd" d="M163.09766 462.41797l.46093.21484-2.64062 5.71094-.71484-.32813 1.88671-4.07421-1.26172-.58594.23438-.5039.53516.17577.25.0586.24609.01562.2461-.04297.24609-.11718.25-.21094.26172-.3125"/><g clip-path="url(#g)"><path fill="none" stroke="#000" stroke-linecap="round" stroke-linejoin="round" stroke-miterlimit="10" stroke-width=".5" d="M146.35938 477.72656l-4.71875 5.20703"/></g><path fill="none" stroke="#000" stroke-linecap="round" stroke-linejoin="round" stroke-miterlimit="10" stroke-width=".5" d="M145.67188 478.48438l1.1914.30078"/><g clip-path="url(#h)"><path fill="none" stroke="#000" stroke-linecap="round" stroke-linejoin="round" stroke-miterlimit="10" stroke-width=".5" d="M160.33594 478.53906l-6.04297 3.58203"/></g><path fill="none" stroke="#000" stroke-linecap="round" stroke-linejoin="round" stroke-miterlimit="10" stroke-width=".5" d="M159.45703 479.0586l1.05078.63671"/><g clip-path="url(#i)"><path fill="none" stroke="#000" stroke-linecap="round" stroke-linejoin="round" stroke-miterlimit="10" stroke-width=".5" d="M173.85938 478.9414l-6.45704 2.77344"/></g><g clip-path="url(#j)"><path fill="none" stroke="#000" stroke-linecap="round" stroke-linejoin="round" stroke-miterlimit="10" stroke-width=".5" d="M172.91797 479.34375l.95703.76953"/></g><g clip-path="url(#k)"><path fill="none" stroke="#000" stroke-linecap="round" stroke-linejoin="round" stroke-miterlimit="10" stroke-width=".5" d="M187.23438 479.09766l-6.58204 2.46093"/></g><g clip-path="url(#l)"><path fill="none" stroke="#000" stroke-linecap="round" stroke-linejoin="round" stroke-miterlimit="10" stroke-width=".5" d="M186.27734 479.45703l.92188.8125"/></g><g clip-path="url(#m)"><path fill="none" stroke="#000" stroke-linecap="round" stroke-linejoin="round" stroke-miterlimit="10" stroke-width=".5" d="M200.60547 479.25781l-6.6914 2.14453"/></g><g clip-path="url(#n)"><path fill="none" stroke="#000" stroke-linecap="round" stroke-linejoin="round" stroke-miterlimit="10" stroke-width=".5" d="M199.63281 479.5664l.8789.85938"/></g><g clip-path="url(#o)"><path fill="none" stroke="#000" stroke-linecap="round" stroke-linejoin="round" stroke-miterlimit="10" stroke-width=".5" d="M214.01953 481.01953l-6.89062-1.38281"/></g><g clip-path="url(#p)"><path fill="none" stroke="#000" stroke-linecap="round" stroke-linejoin="round" stroke-miterlimit="10" stroke-width=".5" d="M213.01953 480.82031l.35156 1.17188"/></g><g clip-path="url(#q)"><path fill="none" stroke="#000" stroke-linecap="round" stroke-linejoin="round" stroke-miterlimit="10" stroke-width=".5" d="M227.20313 481.5039l-6.625-2.34765"/></g><g clip-path="url(#r)"><path fill="none" stroke="#000" stroke-linecap="round" stroke-linejoin="round" stroke-miterlimit="10" stroke-width=".5" d="M226.23828 481.16016l.17969 1.21484"/></g><g clip-path="url(#s)"><path fill="none" stroke="#000" stroke-linecap="round" stroke-linejoin="round" stroke-miterlimit="10" stroke-width=".5" d="M240.42188 481.74219l-6.4336-2.82813"/></g><g clip-path="url(#t)"><path fill="none" stroke="#000" stroke-linecap="round" stroke-linejoin="round" stroke-miterlimit="10" stroke-width=".5" d="M253.83984 481.47656l-6.64062-2.29687"/></g><g clip-path="url(#u)"><path fill="none" stroke="#000" stroke-linecap="round" stroke-linejoin="round" stroke-miterlimit="10" stroke-width=".5" d="M252.875 481.14453l.1914 1.21094"/></g><g clip-path="url(#v)"><path fill="none" stroke="#000" stroke-linecap="round" stroke-linejoin="round" stroke-miterlimit="10" stroke-width=".5" d="M267.13672 481.53516l-6.60156-2.41407"/></g><g clip-path="url(#w)"><path fill="none" stroke="#000" stroke-linecap="round" stroke-linejoin="round" stroke-miterlimit="10" stroke-width=".5" d="M266.17578 481.1836l.16797 1.21484"/></g><g clip-path="url(#x)"><path fill="none" stroke="#000" stroke-linecap="round" stroke-linejoin="round" stroke-miterlimit="10" stroke-width=".5" d="M280.54297 481.2461l-6.78516-1.83594"/></g><g clip-path="url(#y)"><path fill="none" stroke="#000" stroke-linecap="round" stroke-linejoin="round" stroke-miterlimit="10" stroke-width=".5" d="M279.55469 480.98047l.27344 1.19531"/></g><g clip-path="url(#z)"><path fill="none" stroke="#000" stroke-linecap="round" stroke-linejoin="round" stroke-miterlimit="10" stroke-width=".5" d="M293.70313 481.6914l-6.47657-2.72656"/></g><g clip-path="url(#A)"><path fill="none" stroke="#000" stroke-linecap="round" stroke-linejoin="round" stroke-miterlimit="10" stroke-width=".5" d="M307.01172 481.71094l-6.46094-2.76172"/></g><g clip-path="url(#B)"><path fill="none" stroke="#000" stroke-linecap="round" stroke-linejoin="round" stroke-miterlimit="10" stroke-width=".5" d="M319.9414 482.38672l-5.6914-4.11719"/></g><g clip-path="url(#C)"><path fill="none" stroke="#000" stroke-linecap="round" stroke-linejoin="round" stroke-miterlimit="10" stroke-width=".5" d="M333.16016 482.51563l-5.5-4.3711"/></g><g clip-path="url(#D)"><path fill="none" stroke="#000" stroke-linecap="round" stroke-linejoin="round" stroke-miterlimit="10" stroke-width=".5" d="M346.47656 482.51563l-5.5039-4.3711"/></g><g clip-path="url(#E)"><path fill="none" stroke="#000" stroke-linecap="round" stroke-linejoin="round" stroke-miterlimit="10" stroke-width=".5" d="M360.40625 481.33984l-6.73047-2.02343"/></g><g clip-path="url(#F)"><path fill="none" stroke="#000" stroke-linecap="round" stroke-linejoin="round" stroke-miterlimit="10" stroke-width=".5" d="M359.42578 481.04688l.24219 1.20312"/></g><g clip-path="url(#G)"><path fill="none" stroke="#000" stroke-linecap="round" stroke-linejoin="round" stroke-miterlimit="10" stroke-width=".5" d="M373.84375 480.76172l-6.97266-.86719"/></g><g clip-path="url(#H)"><path fill="none" stroke="#000" stroke-linecap="round" stroke-linejoin="round" stroke-miterlimit="10" stroke-width=".5" d="M372.82813 480.63672l.4375 1.14453"/></g><g clip-path="url(#I)"><path fill="none" stroke="#000" stroke-linecap="round" stroke-linejoin="round" stroke-miterlimit="10" stroke-width=".5" d="M387.1836 480.26563l-7.02344.125"/></g><g clip-path="url(#J)"><path fill="none" stroke="#000" stroke-linecap="round" stroke-linejoin="round" stroke-miterlimit="10" stroke-width=".5" d="M387.1836 480.26563l1.1914 2.14453"/></g><g clip-path="url(#K)"><path fill="none" stroke="#000" stroke-linecap="round" stroke-linejoin="round" stroke-miterlimit="10" stroke-width=".5" d="M400.46875 479.875l-6.96484.91016"/></g><g clip-path="url(#L)"><path fill="none" stroke="#000" stroke-linecap="round" stroke-linejoin="round" stroke-miterlimit="10" stroke-width=".5" d="M400.46875 479.875l1.42578 1.9961"/></g><g clip-path="url(#M)"><path fill="none" stroke="#000" stroke-linecap="round" stroke-linejoin="round" stroke-miterlimit="10" stroke-width=".5" d="M413.73828 479.59766l-6.875 1.46093"/></g><g clip-path="url(#N)"><path fill="none" stroke="#000" stroke-linecap="round" stroke-linejoin="round" stroke-miterlimit="10" stroke-width=".5" d="M413.73828 479.59766l1.57813 1.8828"/></g><g clip-path="url(#O)"><path fill="none" stroke="#000" stroke-linecap="round" stroke-linejoin="round" stroke-miterlimit="10" stroke-width=".5" d="M426.72266 478.6836l-6.21094 3.28906"/></g><g clip-path="url(#P)"><path fill="none" stroke="#000" stroke-linecap="round" stroke-linejoin="round" stroke-miterlimit="10" stroke-width=".5" d="M426.72266 478.6836l2.03125 1.375"/></g><g clip-path="url(#Q)"><path fill="none" stroke="#000" stroke-linecap="round" stroke-linejoin="round" stroke-miterlimit="10" stroke-width=".5" d="M425.8164 479.16406l1.01563.6875"/></g><g clip-path="url(#R)"><path fill="none" stroke="#000" stroke-linecap="round" stroke-linejoin="round" stroke-miterlimit="10" stroke-width=".5" d="M440.03516 478.67969l-6.20704 3.29687"/></g><g clip-path="url(#S)"><path fill="none" stroke="#000" stroke-linecap="round" stroke-linejoin="round" stroke-miterlimit="10" stroke-width=".5" d="M440.03516 478.67969l2.03125 1.3711"/></g><g clip-path="url(#T)"><path fill="none" stroke="#000" stroke-linecap="round" stroke-linejoin="round" stroke-miterlimit="10" stroke-width=".5" d="M439.13281 479.16016l1.01563.6875"/></g><g clip-path="url(#U)"><path fill="none" stroke="#000" stroke-linecap="round" stroke-linejoin="round" stroke-miterlimit="10" stroke-width=".5" d="M453.7539 480.14844l-7.01562.35937"/></g><g clip-path="url(#V)"><path fill="none" stroke="#000" stroke-linecap="round" stroke-linejoin="round" stroke-miterlimit="10" stroke-width=".5" d="M452.73438 480.19922l.6328 1.05469"/></g><g clip-path="url(#W)"><path fill="none" stroke="#000" stroke-linecap="round" stroke-linejoin="round" stroke-miterlimit="10" stroke-width=".5" d="M466.41016 482.38672l-5.69532-4.11328"/></g><g clip-path="url(#X)"><path fill="none" stroke="#000" stroke-linecap="round" stroke-linejoin="round" stroke-miterlimit="10" stroke-width=".5" d="M147.02344 465.22266l-6.04688 3.58203"/></g><path fill="none" stroke="#000" stroke-linecap="round" stroke-linejoin="round" stroke-miterlimit="10" stroke-width=".5" d="M146.14453 465.74219l1.04688.64062m13.61718.26953l-6.98828.72266m5.97266-.61719l.6836 1.01953m13.63671-1.21484l-6.96875.90234m5.95703-.76953l.71094 1m13.51953-1.6211l-6.77344 1.87891m6.77344-1.8789l1.6875 1.78125m11.67578-1.58203l-6.8711 1.48047m6.8711-1.48047l1.58203 1.875m11.8047-1.32032l-7.01563.3711m5.99609-.3164l.63281 1.05077m13.6211-.14843l-6.85547-1.54297m5.85937 1.3164l.32422 1.1836m13.66797-.08594l-6.21484-3.28516m5.30859 2.8086l.0039 1.22656m13.9336-.30078l-5.64844-4.1836m4.82813 3.57422l-.17969 1.21094m14.54688-.96094l-6.10938-3.46484m5.22266 2.96094l-.03516 1.22656m14.30469-.84766l-6.2461-3.21484m5.33985 2.75l.01562 1.22656m14.48438-1.4961l-6.80469-1.74609m5.8164 1.4922l.28907 1.1914m13.33594.40625l-5.44922-4.4336m4.65625 3.78907l-.23438 1.20312m14.23828-.4336l-5.23828-4.68359m4.47656 4.00391l-.29296 1.1914m14.7578-1.03515l-6.01171-3.63672m5.13672 3.10938l-.07031 1.22265m14.67578-1.71484l-6.84375-1.59766m5.84765 1.3672l.3125 1.18359m13.82032-.40235l-6.48829-2.69922m19.82813 2.63282l-6.53906-2.56641m5.58984 2.1914l.14063 1.21876m13.70312-.06641l-5.69531-4.1211m5.69531 4.1211l-.33594 2.42969m12.4297-1.375l-3.25392-6.23047m3.25391 6.23047l-1.38672 2.02343m13.07422-1.625V463.5m0 7.02734l-2.16406 1.15235m16.09765-1.20703L423 463.55469m17.10937 1.95703l-6.35546 3.0039m5.42968-2.5664l.98438.73437m13.19531-1.29296l-6.23047 3.25m5.32422-2.77735l1.01172.6914m12.38281 3.125l-4.57812-5.33202m3.91015 4.55468l-.4453 1.14454"/><g clip-path="url(#Y)"><path fill="none" stroke="#000" stroke-linecap="round" stroke-linejoin="round" stroke-miterlimit="10" stroke-width=".5" d="M147.29688 452.48828l-6.59375 2.42188"/></g><path fill="none" stroke="#000" stroke-linecap="round" stroke-linejoin="round" stroke-miterlimit="10" stroke-width=".5" d="M146.33984 452.83984l.91407.81641m13.5664.26172l-7.01172-.4375m5.9922.375l.5078 1.11328m13.67578-.22266l-6.70703-2.09375m5.73047 1.78907l.22656 1.20312m14.14454-1.19531l-6.8672-1.5m5.8672 1.28125l.33203 1.17969m14.03906-1.28907l-6.97656-.84765m5.96094.72656l.4414 1.14453m13.91016-1.61719l-7.01953.33985m5.99609-.28907l.6289 1.0547m13.69141-.54688l-6.98437-.77344m5.96875.66016l.45312 1.14062m13.7539-.41797l-6.73827-1.99219m5.75781 1.70313l.2461 1.20312m13.1953.54297l-5.03124-4.90625m4.30078 4.19141l-.34375 1.17969m14.66406-.78125l-5.57813-4.27344m4.76563 3.65234l-.20313 1.21094m14.8711-1.60937l-6.66016-2.23829m5.6914 1.91407l.20313 1.21094m14.1211-1.01954l-6.74219-1.97265m5.76172 1.6875l.25 1.20312m14-.76172l-6.64844-2.28515m17.70703 4.49218l-2.13672-6.6953m1.82422 5.71874l-.85547.8789m15.70703-.58984l-4.58593-5.3203m3.92187 4.54687l-.44531 1.14453m15.5039-2.04688l-6.74218-1.97265m5.76172 1.6875l.25 1.20312m13.3164.41016l-5.28515-4.625m4.51562 3.95312l-.27734 1.19532m8.27734-3.53125l6.88672 1.39062m10.9336 2.65234l-2.12891-6.6953m1.82031 5.72265l-.85937.875m14.82421-.03125l-2.80859-6.4414m2.39844 5.5039l-.76172.96094m12.55078.23046l1.0625-6.9453m-.90625 5.93359l-1.16016.40625m13.5.375l2.69922-6.48828M422.66016 456l-1.22266.11328m14.42187.92969l2.14454-6.6914m-1.83204 5.71874l-1.20703.21875m12.14453-1.01172l6.27735-3.15625m13.35937 3.0625l-6.36718-2.97265m5.4414 2.54297l.0625 1.22265"/><g clip-path="url(#Z)"><path fill="none" stroke="#000" stroke-linecap="round" stroke-linejoin="round" stroke-miterlimit="10" stroke-width=".5" d="M147.32422 441.52344l-6.64844-2.27735"/></g><path fill="none" stroke="#000" stroke-linecap="round" stroke-linejoin="round" stroke-miterlimit="10" stroke-width=".5" d="M146.35547 441.1914l.19531 1.21094m14.20703-1.3125l-6.88281-1.41015m5.8789 1.20312l.34766 1.17578m13.95313-.89062l-6.84766-1.57031m20.17188 1.52343l-6.8672-1.47265m5.8711 1.25781l.33594 1.17969m13.61328.0039l-6.14453-3.41406m18.33594 4.63281l-3.89453-5.85156m3.32812 5l-.58203 1.07813m13.45703.23437L222.94922 437m1.60937 5.78516l-.89062.84375m16.95312-4.0625l-6.83203 1.63672m13.28125-1.4922l6.89844 1.34376m13.02734.85937l-6.32422-3.0625m5.40625 2.61719l.04688 1.22656m11.50781 1.16797l-.96484-6.96094m.82422 5.94922l-.99219.71875m17.3086-4.26953l-6.6836 2.16797m5.71094-1.85547l.88281.85547m13.48437.71094l-6.84375-1.58985m5.84766 1.35547l.3164 1.1875m13.07032.72266l-4.9961-4.9414m4.26954 4.22265l-.35157 1.17578m12.83594.45703L329.46875 437m1.60937 5.78516l-.88671.84375m16.09375-.83985l-5.1172-4.8125m4.3711 4.11328l-.32031 1.1836m12.7539.4961l-1.86328-6.77345m13.88672-.10937l.71875 6.99219m10.85547-.6797l4.20313-5.6328m-3.59375 4.8125l-1.21094-.1836m14.71484 1.45313l2.60547-6.52735m8.55469 3.88282l6.91406-1.2422m7.61328 3.32423l4.4922-5.40625m-3.83985 4.6211l-1.19922-.25m16.80078 1.77734l-1.38672-6.89063m1.1836 5.88672l-.94922.78125m16.55468-1.07422l-5.5625-4.29687m18.78516 4.41015l-5.3789-4.52344m4.59765 3.8672l-.25781 1.19921"/><g clip-path="url(#aa)"><path fill="none" stroke="#000" stroke-linecap="round" stroke-linejoin="round" stroke-miterlimit="10" stroke-width=".5" d="M147.32813 428.1914l-6.65625-2.24609"/></g><path fill="none" stroke="#000" stroke-linecap="round" stroke-linejoin="round" stroke-miterlimit="10" stroke-width=".5" d="M146.35938 427.86328l.20312 1.21094m14.16406-1.15625l-6.82031-1.69922m5.82813 1.45313l.29687 1.1875m9.5-5.12891l2.19922 6.67578m13.23828-3.33594l-.01953-.20312-.0586-.1914-.09375-.17579-.46093-.375-.1914-.0586-.19923-.01952-.19922.01953-.1914.05859-.46094.375-.09375.17578-.0586.1914-.01952.20313.01953.19922.05859.1914.09375.17579.46094.375.1914.0586.19922.01952.19922-.01953.1914-.0586.46095-.375.09375-.17577.05859-.1914.01953-.19923m8.78516.25l7.01172-.5039m8.86718 3.63672l1.88672-6.76954m8.91797 2.73047l6.90625 1.3086m-5.90234-1.1172l-.36328-1.17187m14 4.4297l4.2539-5.58985m9.67969 5.96875l3.01953-6.34766m-2.58203 5.42188l-1.22266.05859m14.3164.96094l2.58595-6.53516m-2.21094 5.58594l-1.21875.13672m13.42187.41406l4.0586-5.73828m-3.46875 4.90234l-1.21485-.15234m14.96485 1.48437l2.00781-6.73047m-1.71484 5.75391l-1.20313.24219m14.1875.72656l2.08594-6.71094m-1.78125 5.73438l-1.20703.22656m15.59765.89063l-.67578-6.9961m17.0586 4.36328l-6.8125-1.73046m20.21875 1.19921l-6.9961-.66406m15.1211 3.41016l3.38671-6.16016m-2.89453 5.26172l-1.22656-.01563m13.75781.73047l3.97266-5.79297m8.32812 1.07032l6 3.65234m-5.1289-3.1211l.07422-1.22655M400.5 427.03125l-7.02734.07422m6.0039-.0625l.58985 1.07422m13.48046.29687l-6.49218-2.6914m19.89062.21875l-6.65625 2.2539m5.6875-1.92578l.89063.83985m13.51953.58984l-6.91016-1.26172m5.90625 1.07813l.3711 1.17187m13.77343-.35938l-6.5625-2.51953m5.60938 2.15235l.14844 1.21875m12.26953 1.09765l-2.85938-6.41797m2.4414 5.48438l-.7539.96875"/><g clip-path="url(#ab)"><path fill="none" stroke="#000" stroke-linecap="round" stroke-linejoin="round" stroke-miterlimit="10" stroke-width=".5" d="M147.4961 414.08203l-6.9922-.66015"/></g><path fill="none" stroke="#000" stroke-linecap="round" stroke-linejoin="round" stroke-miterlimit="10" stroke-width=".5" d="M146.48047 413.98828l.47266 1.13281m13.80078-2.09375l-6.875 1.45313m5.875-1.24219l.78515.9414m13.49219.45704l-6.80078-1.76563m5.8125 1.50782l.28516 1.1953m13.02343.73829l-4.8125-5.11719m16.8125-.78125l-2.1836 6.67969m10.94142-3.91406l6.93359 1.14844m-5.92578-.98047l-.39063-1.16407m12.98828.06641l6.35157 3.00781m11.89062 1.53907l-3.5039-6.08985m14.70703 6.54297l.71875-6.99219m-.61328 5.97266l-1.13672.46484m14.8125.57032l-.21094-7.02344m.17969 6l-1.06641.60937m12.71875.03516l3.17578-6.26563m-2.71484 5.35547L274.79688 416m14.90234 1.1836l1.53516-6.85938m-1.3125 5.85937l-1.1836.32813m17.16797.03906l-4.25-5.59765m3.6289 4.78515l-.51171 1.11328m13.38672.25l-2.12891-6.69531m1.82031 5.72266l-.85937.875m13.91015.22656l-.98437-6.95703m.83984 5.94531l-.98828.72266m11.84766-.37891l4.21875-5.6211m11.78125 6.27735l-1.14844-6.92969m.98047 5.92188l-.97656.7461m12.43359-.00391l2.89844-6.39844m8.35547 3.07812l7.02343.24219m9.14063-3.57031l1.32422 6.89844m-1.13281-5.89454l.95703-.77343m14.39843.07422l-3.13671 6.28906m2.67968-5.375l1.22657-.03125m13.30859-.36719l-4.66406 5.25781m4.66406-5.25781l2.38281.57422m11.75.5l-6.30078 3.10547m5.38672-2.65235l.99219.71875m13.1875 2.03516l-6.20313-3.30469m5.30078 2.82422v1.22656m14.51953-1.51953l-6.80468-1.75781m5.8125 1.5039l.28515 1.19141"/><g clip-path="url(#ac)"><path fill="none" stroke="#000" stroke-linecap="round" stroke-linejoin="round" stroke-miterlimit="10" stroke-width=".5" d="M147.44922 401.10156l-6.89844-1.32422"/></g><path fill="none" stroke="#000" stroke-linecap="round" stroke-linejoin="round" stroke-miterlimit="10" stroke-width=".5" d="M146.44531 400.90625l.36328 1.17188m13.85938-.59375l-6.70703-2.09375m19.0625-1.52735l-4.78516 5.14844m15.57422-6.08594l.26563 7.02344m-.22657-6l1.0586-.61719m10.4414.15625l3.8164 5.90235m-3.26171-5.04297l.59766-1.07422m10.82422 1.82812l6.49609 2.67578m-5.55078-2.28906l-.1211-1.21875m13.82032 5.11328l3.83593-5.88672m14.54688 1.38282l-6.30078 3.11718m5.38281-2.66406l.9961.71875m12.82421 2.58985l-5.47656-4.40625M252.46094 402l-.23047 1.20313m10.7539.64453l1.70313-6.81641m12.10547 6.90234l.71484-6.99218m12.125 6.91015l1.66797-6.82812m14.78516 6.0664l-4.60938-5.30468m18.67188 4.39062l-6.10547-3.47656m5.21875 2.97265l-.03516 1.22657m14.02735-.39453l-5.6875-4.12891m4.85937 3.52734l-.16797 1.21485m14.7461-1.41016l-6.5547-2.53906m17.09766 4.7461l-1.01171-6.95313m13.2578 6.94531l1.12891-6.9375m-.96484 5.92969l-1.16406.39453m17.9375-1.125l-6.11719-3.45703m5.22656 2.95312l-.03125 1.22656m14.66016-2.92578l-6.96484.94532m20.1289.64062l-6.66406-2.22265m19.8125-.41797l-6.32813 3.05859m5.40625-2.61328l.98829.72265m13.49218-.49609l-6.8164 1.71094m5.82422-1.46094l.82421.91016m13.42579.75781l-6.69922-2.125m6.69922 2.125l.4414 2.41406m12.83203-2.28906l-6.61718-2.3711m5.65234 2.02344l.17578 1.21485"/><g clip-path="url(#ad)"><path fill="none" stroke="#000" stroke-linecap="round" stroke-linejoin="round" stroke-miterlimit="10" stroke-width=".5" d="M145.02344 387.125l-.01953-.20313-.0586-.1914-.09375-.17578-.46094-.375-.1914-.0586-.19922-.01953-.19922.01953-.1914.0586-.46094.375-.09375.17578-.0586.1914-.01953.20313.01953.19922.0586.1914.09375.17579.46094.375.1914.05859.19922.01953.19922-.01953.1914-.0586.46094-.375.09375-.17577.0586-.19141.01953-.19922"/></g><path fill="none" stroke="#000" stroke-linecap="round" stroke-linejoin="round" stroke-miterlimit="10" stroke-width=".5" d="M158.33594 387.125l-.01953-.20313-.0586-.1914-.09375-.17578-.45703-.375-.1914-.0586-.19922-.01953-.19922.01953-.19531.0586-.45704.375-.09375.17578-.05859.1914-.01953.20313.01953.19922.0586.1914.09374.17579.45703.375.19532.05859.19922.01953.19922-.01953.1914-.0586.45703-.375.09375-.17577.0586-.19141.01953-.19922m11.74219-3.47266l1.10546 6.94141m-.9453-5.92969l.98046-.73828m12.30078-.28906l.85156 6.97265m-.72656-5.95703l1.0039-.70312m9.78516 1.08594l5.65235 4.17578m-4.82813-3.5664l.17969-1.21485m18.59375 2.05078l-6.91016 1.28515m5.90235-1.09765l.76562.96094m12.75 1.80468l-5.29687-4.62109m4.52344 3.94922l-.27735 1.19531m14.8125-1.16797l-6.1914-3.32812m5.28906 2.84375l-.0039 1.22656m14.63671-2.55469l-7.01953.29297m5.9961-.25l.62109 1.0586m10.92187 2.48437l-1.42969-6.8789m11.55079 5.92968l4.95703-4.98047m7.96484 4.51172l5.7461-4.04297m7.88671 4.4375l5.10547-4.82812m-4.35937 4.125l-1.16407-.39063m12.78907-1l6.99609-.64062m12.21094-2.2539l-4.78516 5.14452m18.42969-.35547L341 384.90625m4.65625 3.78906l-.23438 1.20313m13.3086.30469l-3.3789-6.16016m2.88671 5.26562l-.67187 1.02344m16.30078-3.04687l-7.01953-.32422m5.99609.27734l.52734 1.10938m13.66407-2.23047l-6.73047 2.01562m5.7539-1.72265l.86329.87109m13-2.08594l-5.8711 3.85547m19.45703-3.36328l-6.41406 2.8711m5.48047-2.45313l.96875.7539m13.22656-1.28906l-6.30469 3.10547m5.38672-2.65625l.9961.71875m13.26953-1.10156l-6.3711 2.97265m5.44141-2.53906l.98047.73828m13.42969 1.3711l-6.70313-2.11328m5.72656 1.80468l.22657 1.20704m13.4453.2578l-5.46093-4.42577m4.66406 3.78125l-.23437 1.20312"/><g clip-path="url(#ae)"><path fill="none" stroke="#000" stroke-linecap="round" stroke-linejoin="round" stroke-miterlimit="10" stroke-width=".5" d="M147.36328 372.79297l-6.72656 2.03125"/></g><path fill="none" stroke="#000" stroke-linecap="round" stroke-linejoin="round" stroke-miterlimit="10" stroke-width=".5" d="M146.38672 373.08984l.86328.8711m12.01563-3.07422l-3.89844 5.84375m17.64062-5.51172l-4.7539 5.17578m4.0625-4.42187l1.1875.30859m9.92187-1.94922l1.03906 6.94922m-.89062-5.9375l.98828-.73047m16.20313 3.42188l-7.01172-.45313m20.33203.34766l-7.02344-.24219m6.0039.20703l.53516 1.10156m13.19531.78516l-5.8125-3.94531m4.96875 3.3711l-.1328 1.21874m14.09374-.3789L234.5 371.5664m4.625 3.83203l-.2461 1.19922m14.96094-1.63672l-6.63672-2.30469m5.67188 1.96875l.1875 1.21094m14.28516-1.9336l-7.02344-.1875m6 .16016l.54687 1.09766m13.76563-1.60157l-6.97266.8711m5.95703-.74219l.70704 1.0039m6.64453-1.08593l6.98437.78125m-5.96875-.66797l-.44922-1.14063m13.10547 3l6.27344-3.16406m-5.36328 2.70313l-1-.71094m13.94922 1.96094l5.18359-4.74219m-4.42969 4.05469l-1.15625-.41016m14.98828 1.98047l2.64063-6.51172m-2.25781 5.5664l-1.21875.125m17.55468.39454l-4.16406-5.65625m3.5586 4.83203l-.53125 1.10938m15.58203-1.6875l-6.42578-2.85157m5.48828 2.4375l.08984 1.22266M373.77735 373l-6.83985 1.61719m18.9375-3.54688l-4.40625 5.47266m13.89453-5.85156l3.2461 6.23437m-2.77344-5.32812l.69531-1.01172m14.71875-.16016l-1.89844 6.76563m1.6211-5.78125l1.19922-.26172m13.6953 5.35547l-4.5039-5.39454m16.5-.6875L436 377.19531m1.58984-5.78906l1.19922-.26953m14.78516 1.54297l-6.65625 2.25781m5.6875-1.92969l.89453.83985m11.07031 3.32812l-2.01562-6.73437m1.72265 5.7539l-.875.86328"/><g clip-path="url(#af)"><path fill="none" stroke="#000" stroke-linecap="round" stroke-linejoin="round" stroke-miterlimit="10" stroke-width=".5" d="M147.3164 359.33594l-6.6328 2.3125"/></g><path fill="none" stroke="#000" stroke-linecap="round" stroke-linejoin="round" stroke-miterlimit="10" stroke-width=".5" d="M147.3164 359.33594l1.80079 1.66797m11.6914-.8672l-6.98828.71095m5.97266-.60547l.6836 1.01562m12.26952-3.57031l-4.23047 5.61328m18.86329-2.0586l-6.8672-1.49609m5.8672 1.27735l.33203 1.17969m13.63672-.03516l-6.17578-3.34766m5.27734 2.85938l-.00781 1.22656m14.2539-.79297l-6.23828-3.23828m5.32813 2.76563l.01172 1.22656m11.98046 1.02734l-1.77343-6.80078m1.51562 5.8086l-.90234.83202m13.01953.22657l1.14062-6.9336m-.97656 5.92579l-1.16406.39062m13.67969.44922l2.40625-6.60156m-2.0547 5.64062l-1.21483.17188m11.87109-2.45313l7.02344-.11328m-6.00391.09375l-.59375-1.07031m14.2461-1.7461l4.30859 5.5547m8.10937-4.51563l6.10547 3.48046m7.59375.54297l5.33594-4.5703m-4.5625 3.90624l-1.14063-.44922m14.94141 2.04688l2.8164-6.4375m-2.40624 5.5039l-1.22266.08985m13.9414.75781l3.19141-6.26172m-2.72656 5.34766l-1.23047.02344m13.5664.5703l4.21876-5.62109m-3.60547 4.80079l-1.21094-.1875m14.96875 1.54687l2.10547-6.70313m-1.80078 5.73047l-1.20703.22266m16.29297-2.60156l-.01954-.19922-.05859-.1914-.09375-.17579-.46094-.3789-.1914-.0547-.19922-.01952-.19922.01953-.1914.05469-.45704.3789-.09765.17578-.0586.1914-.01953.19923.01953.19922.0586.1914.09765.17969.45703.375.19141.0586.19922.01952.19922-.01953.1914-.05859.46094-.375.09375-.17969.0586-.1914.01953-.19922m11.54687-3.4336l1.48828 6.8672m-1.26953-5.8672l.9336-.79296m13.54687-.22657l-1.27734 6.91016m1.08984-5.90625l1.17187-.36719m11.90235-.6914L410.09375 364m.35547-5.99219l1.11719-.51172m11.6289-.49218l.83985 6.97656m-.71485-5.96094l1.0039-.69922m11.53126-.17187l2.15234 6.6914m-1.83984-5.71875l.85547-.8789m11.88281.0039l2.6836 6.4961m-2.29298-5.55078l.78125-.94532m10.87891.88672l5.21094 4.71875"/><g clip-path="url(#ag)"><path fill="none" stroke="#000" stroke-linecap="round" stroke-linejoin="round" stroke-miterlimit="10" stroke-width=".5" d="M147.36328 346.16406l-6.72656 2.03125"/></g><path fill="none" stroke="#000" stroke-linecap="round" stroke-linejoin="round" stroke-miterlimit="10" stroke-width=".5" d="M147.36328 346.16406l1.73047 1.73828m-2.70703-1.4453l.86328.87108m13.57813-.08593l-7.02735-.1289m7.02734.1289l1.11329 2.1875m12.05078-3.26563l-6.72656 2.03125m5.75-1.73828l.86328.8711m12.78515 2.07421l-5.4375-4.44921m4.64453 3.80468l-.23828 1.20313m14.08594-.27344l-4.91797-5.01953m4.20313 4.28906l-.3711 1.16797m15.45313-2.77734l-7.01953-.33985m14.6328-2.57422l4.38282 5.4922m7.84766-4.01954l6.55078 2.54297m-5.59766-2.17188l-.14453-1.21875m12.48828.89844l6.58594 2.44531m-5.6289-2.08984l-.16016-1.21875m12.63281.58984l6.35938 2.98829m-6.35938-2.98829l-.125-2.44921m13.36719 2.61328l6.5039 2.66015m-6.5039-2.66015l-.2461-2.44141m13.73828 2.07031l6.14844 3.40235m-6.14844-3.40235l.03907-2.45312m12.86328 4.5664l6.97656-.82421m-5.96094.70312l-.69921-1.00781m14.02343 3.22265l4.92578-5.0078m-4.92578 5.0078l-2.35547-.69921m15.25782.21484l5.75-4.04297m-4.91016 3.45313l-1.09766-.5547m13.09766.1797l6.70313-2.11329m-5.72657 1.8047l-.875-.85938m18.98047 2.66406L354.625 344.625m18.59375.51563l-5.72656 4.07421m17.17187-5.40625l-1.98828 6.73829m1.69922-5.75782l1.20313-.2461m11.35937-.8789l.09766 7.02735m-.08204-6.00391l1.07422-.58984m11.19532-.26172l2.15625 6.6875m-1.84375-5.71485l.85546-.8828m11.54688.16405l3.35547 6.17579m-2.86719-5.27735l.67969-1.02344m11.84375.3125l3.96484 5.80079m-3.38672-4.95704l.56641-1.08593m12.48438.05078l3.33984 6.1836m-2.85547-5.28126l.67969-1.02344m11.76953.35938l4.09765 5.70703m-3.5-4.8789l.54297-1.09766"/><g clip-path="url(#ah)"><path fill="none" stroke="#000" stroke-linecap="round" stroke-linejoin="round" stroke-miterlimit="10" stroke-width=".5" d="M147.25781 332.54297l-6.51562 2.64062"/></g><path fill="none" stroke="#000" stroke-linecap="round" stroke-linejoin="round" stroke-miterlimit="10" stroke-width=".5" d="M147.25781 332.54297l1.8789 1.57422m-2.82812-1.1914l.94141.78905m13.3125-1.19921l-6.49219 2.6914m6.49219-2.6914l1.89063 1.5625m11.5039-1.34375l-6.65625 2.2578m6.65625-2.2578l1.78906 1.68359m10.44532-3.2539l-4.4922 5.39843m3.83985-4.61328l1.19922.25m7.33984.17187l6.36329 2.98438m-5.4375-2.55078l-.0586-1.22656m12.27344 1.25l6.71484 2.0703m-5.73828-1.76952l-.23047-1.20704m12.80078.33594l6.25 3.21094m-5.33984-2.74219l-.01953-1.22656m12.44922.71094l6.20312 3.30469m-5.30078-2.82422v-1.22657m12.20313 1.21875l6.6211 2.35547m-6.6211-2.35547l-.35938-2.42578m13.61328 2.61719l6.7422 1.97656m-6.7422-1.97656l-.5-2.40234m1.48047 2.6914l-.25-1.20312m12.625.78515l6.66016 2.23438m-6.66016-2.23438l-.40234-2.42187m1.3711 2.7461l-.20313-1.21094m12.36718 2.1289l7.02344-.25m-7.02344.25l-1.22656-2.1211m14.9414 3.62891l6.22266-3.26562m-6.22265 3.26562l-2.02344-1.3828m15.88672 2.15233l5.1289-4.80468m-5.1289 4.80469l-2.32031-.79297m16.28515 1.33593l3.83203-5.89062m-3.27734 5.03515l-1.21875-.10937m13.61328.6914l4.5625-5.34374m-3.89844 4.5664l-1.19921-.26562m13.39843.57812l5.46485-4.41406m-4.67188 3.77344l-1.1289-.48047m12.88671-1.41406l6.9961.65234m-5.98047-.55469l-.47266-1.13281m16.23438-2.14844l.07031 7.02344m14.73438-6.71094l-2.91016 6.39844m2.48828-5.46484l1.22266-.07813m10.65234-1.14844l.8125 6.98047m-.8125-6.98047l2.01953-1.39062m9.9336 1.84765l3.53906 6.07032m-3.53906-6.07031l1.29296-2.08594m10.71875 3.41797l6.14454 3.40625m-5.25-2.91016l.01953-1.22656m14.64453-.98047l1.66015 6.82812m-1.42187-5.83593l.91797-.81641m13.0586-.27344l-.14454 7.02344m.125-6.0039l1.09375-.55079"/><g clip-path="url(#ai)"><path fill="none" stroke="#000" stroke-linecap="round" stroke-linejoin="round" stroke-miterlimit="10" stroke-width=".5" d="M145.88672 317.58594l-3.77344 5.92578"/></g><path fill="none" stroke="#000" stroke-linecap="round" stroke-linejoin="round" stroke-miterlimit="10" stroke-width=".5" d="M145.88672 317.58594l2.44531.1914m-2.99219.66797l1.22266.09766m11.39844-1.44922L156.67188 324m1.28906-6.90625l2.33984-.73438m10.85547.71485l-1.05078 6.94922m1.05078-6.94922l2.3125-.8164m10.80078.79296l-.64844 6.9961m.64844-6.9961l2.26563-.94922m9.92578 1.02344l1.59765 6.84375m-1.36328-5.84766l.92188-.80468m10.60937.61718l4.69531 5.23047m-4.01171-4.46875l.42187-1.15234m11.47266 1.32422l6.17187 3.36328m-6.17187-3.36328l.02734-2.45703m13.30078 2.43359l6.14453 3.40625m-6.14453-3.40625l.04297-2.45313m.85156 2.94922l.01953-1.22656m12.17188 1.23438l6.60547 2.39843m-6.60547-2.39843l-.34375-2.4297m1.30469 2.78126l-.17188-1.21485m12.45313 1.08985l6.75 1.94922m-6.75-1.94922l-.50781-2.40235m13.68359 3.375h7.02734m-7.02734 0l-1.15235-2.16406m14.81641 3.6875l6.33203-3.04297m-6.33203 3.04297l-1.98047-1.45312m15.91016 2.34765l5.10156-4.83203m-5.10156 4.83203l-2.32813-.78125m15.7461.88672l4.89453-5.04297m-4.89453 5.04297l-2.35547-.6836m3.0664-.05077l-1.17578-.33985m14.46485 1.58985l3.52344-6.07813m-3.52344 6.07813l-2.45313-.08985m16.41016.38282l2.24219-6.66016m-1.91797 5.6914l-1.21094.19923m12.875-.04297l4.89844-5.03907m-4.1875 4.3086l-1.17969-.34375m12.8086-2.2461l6.84374 1.60547m-5.84765-1.3711l-.3125-1.1875m19.5586 2l-7.00782-.49218m5.98828.42188l.5 1.12109m13.30469-3.16797l-5.94922 3.74219m5.08203-3.19531l1.0664.60937m11.85938-2.35156l-3.4336 6.13281m2.9336-5.23828l1.22656.02734m10.5625-1.35546l.6172 7m-.6172-7l2.0547-1.33594m8.1328 5.5664l6.8711-1.46093m13.23437 1.77734l-6.71093-2.08984m6.71093 2.08984l.45313 2.41016m11.53125-6.32813l-4.05078 5.74219"/><g clip-path="url(#aj)"><path fill="none" stroke="#000" stroke-linecap="round" stroke-linejoin="round" stroke-miterlimit="10" stroke-width=".5" d="M465.58594 317.67578l2.4375.3086"/></g><path fill="none" stroke="#000" stroke-linecap="round" stroke-linejoin="round" stroke-miterlimit="10" stroke-width=".5" d="M465 318.51172l1.21484.15625"/><path fill="#00f" fill-rule="evenodd" d="M370.48438 401.07422h8.62109v-10.14844h-8.6211v10.14844"/><path fill="azure" fill-rule="evenodd" d="M372.3164 392.76172h.83594v2.82031h3.28516v-2.82031h.83203v6.47656h-.83203v-2.91406h-3.28516v2.91406h-.83593v-6.47656"/><path fill="#ff3030" fill-rule="evenodd" d="M437.7539 401.07422h7.69532v-10.14844h-7.69531v10.14844"/><path fill="azure" fill-rule="evenodd" d="M439.58594 392.76172h.83594V398.5h3.1914v.73828h-4.02734v-6.47656"/><path fill="#ff3030" fill-rule="evenodd" d="M331.23438 396.63281h7.6914v-10.14453h-7.6914v10.14453"/><path fill="azure" fill-rule="evenodd" d="M333.0664 388.32031h.83594v5.74219h3.19141v.73828h-4.02734v-6.48047"/><path fill="#ff3030" fill-rule="evenodd" d="M300.16406 370.0039h7.69531v-10.14452h-7.6953v10.14453"/><path fill="azure" fill-rule="evenodd" d="M302 361.6914h.83203v5.73829h3.19531v.74219H302v-6.48047"/><path fill="#ffffe0" fill-rule="evenodd" d="M404.28125 410.17969h22.27344v-10.1914h-22.27344v10.1914"/><path fill-rule="evenodd" d="M407.78125 401.82031h.50781v6.29688h-.78515v-4.48828h-1.39063v-.5586l.5625-.0625.25-.05469.23047-.08984.20313-.14062.17578-.21094.14062-.29297.10547-.39844m4.8125 0l.23047.01953.21875.0586.20703.08594.19531.12109.1875.15234.16797.17578.30469.41797.24219.49219.17968.54688.11329.58203.03515.58984-.03515.59375-.11329.58203-.17968.55469-.2422.5039-.30468.42579-.16797.17968-.1875.15235-.19531.125-.20703.09375-.21875.05469-.23047.01953-.23047-.01954-.21875-.05468-.20703-.09375-.19531-.125-.1836-.15235-.17187-.17968-.30078-.42579-.2461-.5039-.17968-.55469-.10938-.58203-.03906-.59375h.83203l.03125.5625.08203.5039.125.44532.16016.375.1914.30078.21094.21875.22266.13672.22656.04687.22656-.04687.22266-.13672.21094-.21875.1914-.30078.16016-.375.1289-.44531.08204-.50391.02734-.5625-.02734-.5625-.08204-.5-.1289-.4336-.16016-.36718-.1914-.29297-.21094-.21484-.22266-.12891-.22656-.04688-.22656.04688-.22266.1289-.21094.21485-.1914.29297-.16016.36719-.125.43359-.08203.5-.03125.5625h-.83203l.03906-.58984.10938-.58204.17968-.54687.2461-.49219.30078-.41797.17187-.17578.1836-.15234.19531-.1211.20703-.08593.21875-.0586.23047-.01953m4.95313 0l.23046.01953.21875.0586.20704.08594.1953.12109.1836.15234.17188.17578.30468.41797.2422.49219.17968.54688.10937.58203.03907.58984-.03907.59375-.10937.58203-.17969.55469-.24219.5039-.30468.42579-.17188.17968-.1836.15235-.1953.125-.20704.09375-.21875.05469-.23046.01953-.23047-.01954-.21875-.05468-.20704-.09375-.1953-.125-.1836-.15235-.17188-.17968-.30468-.42579-.2422-.5039-.17968-.55469-.10937-.58203-.03907-.59375h.83204l.03125.5625.07812.5039.1289.44532.16016.375.1914.30078.21095.21875.22265.13672.22656.04687.22657-.04687.22265-.13672.21094-.21875.1914-.30078.16016-.375.12891-.44531.08203-.50391.02735-.5625-.02735-.5625-.08203-.5-.1289-.4336-.16016-.36718-.1914-.29297-.21095-.21484-.22265-.12891-.22656-.04688-.22657.04688-.22265.1289-.21094.21485-.1914.29297-.16016.36719-.12891.43359-.07813.5-.03125.5625h-.83203l.03907-.58984.10937-.58204.17969-.54687.24219-.49219.30468-.41797.17188-.17578.1836-.15234.1953-.1211.20704-.08593.21875-.0586.23046-.01953m5.64844 0h.55469v4.07422h.97266v.74219H423.75v1.48047h-.78906v-1.48047h-2.63672v-.74219h2.63672v-2.73047l-1.9414 2.73047h-.69532v-.09375l2.8711-3.98047"/><path fill="#ffffe0" fill-rule="evenodd" d="M185.92188 419.0586h22.17968v-10.19141h-22.17969v10.1914"/><path fill-rule="evenodd" d="M189.42188 410.69922h.5078v6.29297h-.78905v-4.48828h-1.38672v-.5547l.55859-.0664.2539-.05469.23048-.08984.20312-.14062.17188-.21094.14062-.29297.10938-.39453m4.8125 0l.23046.01953.21875.05469.20703.08984.19532.1211.1836.14843.17187.17578.30078.41797.2461.4961.17968.54687.10937.57813.03907.58984-.03907.59375-.10937.58594-.17969.55469-.2461.5-.30077.42968-.17188.17969-.1836.15234-.1953.1211-.20704.09375-.21875.0586-.23047.01952-.23046-.01953-.21875-.0586-.20703-.09374-.19532-.1211-.1875-.15234-.16797-.17969-.30468-.42969-.2422-.5-.17968-.55468-.11328-.58594-.03516-.59375h.83203l.02735.5625.08203.50781.1289.4414.16016.375.1914.30079.21095.22266.22265.13671.22656.04688.22657-.04688.22265-.13671.21094-.22266.1914-.30078.16016-.375.125-.4414.08203-.50782.03125-.5625-.03125-.5586-.08203-.5039-.125-.4336-.16015-.36718-.1914-.28906-.21095-.21485-.22265-.13281-.22656-.04297-.22657.04297-.22265.13281-.21094.21485-.1914.28906-.16016.36719-.12891.43359-.08203.5039-.02734.5586h-.83204l.03516-.58984.11328-.57813.17969-.54687.24219-.4961.30468-.41797.16797-.17578.1875-.14844.19531-.12109.20704-.08984.21875-.05469.23047-.01953m4.95312 0l.22656.01953.21875.05469.21094.08984.19531.1211.1836.14843.17187.17578.30078.41797.2461.4961.17968.54687.10938.57813.03906.58984-.03906.59375-.10938.58594-.17968.55469-.2461.5-.30078.42968-.17187.17969-.1836.15234-.19531.1211-.21094.09375-.21875.0586-.22656.01952-.23047-.01953-.21875-.0586-.20703-.09374-.19922-.1211-.1836-.15234-.17187-.17969-.30078-.42969-.24219-.5-.17968-.55468-.11328-.58594-.03516-.59375h.83203l.02734.5625.08203.50781.125.4414.16407.375.1914.30079.21094.22266.22266.13671.22656.04688.22656-.04688.22266-.13671.21094-.22266.1875-.30078.16406-.375.125-.4414.08203-.50782.03125-.5625-.03125-.5586-.08203-.5039-.125-.4336-.16406-.36718-.1875-.28906-.21094-.21485-.22266-.13281-.22656-.04297-.22656.04297-.22266.13281-.21094.21485-.1914.28906-.16406.36719-.125.43359-.08204.5039-.02734.5586h-.83203l.03516-.58984.11328-.57813.17968-.54687.2422-.4961.30077-.41797.17188-.17578.1836-.14844.19921-.12109.20703-.08984.21875-.05469.23047-.01953m4.95313 0l.38671.02734.35547.08203.32422.13672.28125.1875.23047.23828.17188.28516.10937.33203.03516.375-.01953.27735-.0586.23437-.08594.19922-.11328.17187-.1289.14063-.14063.125-.28516.19531.23047.11719.21094.14844.17969.17187.15625.1914.1211.21485.08984.23047.05859.24219.01953.25781-.03516.3086-.10546.32812-.17188.32422-.23828.30469-.3086.26953-.37109.21484-.21094.08203-.23046.0586-.2422.03906-.26171.01562-.26172-.01562-.24219-.03906-.22265-.0586-.20703-.08203-.35547-.21484-.29297-.26954-.22266-.30468-.15625-.32422-.09375-.32813-.02734-.30859h.83203l.02734.2539.07813.23438.1211.21094.16015.1875.1914.14844.22266.11718.23828.07032.25781.02734.25391-.02734.23828-.07032.22266-.11718.1914-.14844.16016-.1875.125-.21094.07422-.23437.02734-.25391-.02734-.2539-.07422-.23438-.125-.21094-.16016-.1875-.1914-.15234-.22266-.11328-.23828-.07422-.2539-.02344-.25782.02344-.23828.07422-.22266.11328-.1914.15234-.16016.1875-.1211.21094-.07812.23437-.02734.25391h-.83203l.01562-.2539.0586-.23829.08984-.22656.125-.20703.15234-.1914.1797-.17188.21093-.15235.23047-.1328-.28516-.19532-.14062-.125-.1289-.14063-.11329-.17187-.08594-.19922-.0586-.23438-.01952-.27734h.78515l.02344.21485.0664.1914.10548.16797.13672.14063.16406.10937.1875.08203.20703.05078.22266.01563.21875-.01563.20703-.05078.1875-.08203.16797-.10938.13671-.14062.10157-.16797.0664-.1914.02344-.21485-.02344-.21484-.0664-.1875-.10157-.16797-.13672-.14063-.16796-.10937-.1875-.08203-.20703-.05078-.21875-.01563-.22266.01563-.20703.05078-.1875.08203-.16406.10937-.13672.14063-.10547.16797-.0664.1875-.02345.21484h-.78515l.03515-.375.10938-.33203.17578-.28516.22656-.23828.28125-.1875.32422-.13672.35547-.08203.39063-.02734"/><path fill="#ffffe0" fill-rule="evenodd" d="M297.35938 457.95703h22.17968v-10.1914h-22.17969v10.1914"/><path fill-rule="evenodd" d="M300.85938 449.59766h.5078v6.29296h-.78515v-4.48828h-1.38672v-.55468l.5586-.06641.25-.05469.23046-.08594.20313-.14453.17578-.20703.14063-.29687.10546-.39453m4.8125 0l.23047.01953.21875.05469.20704.08984.19921.1211.1836.14843.17187.17578.30078.42188.2422.49218.17968.54688.11328.57812.03906.58985-.03906.59375-.11328.58594-.17969.55468-.24219.5-.30078.42969-.17187.17969-.1836.15234-.19921.125-.20704.08985-.21875.05859-.23046.01953-.22657-.01953-.21875-.0586-.21094-.08984-.1953-.125-.1836-.15234-.17188-.17969-.30078-.42969-.24219-.5-.17968-.55469-.11328-.58593-.03907-.59375h.83204l.03125.5664.08203.50391.125.4414.16406.375.1875.30079.21094.22265.22265.13672.22656.04688.22657-.04688.22265-.13672.21094-.22265.1914-.30078.16407-.375.125-.44141.08203-.5039.02735-.56641-.02735-.5586-.08203-.5-.125-.4375-.16406-.36718-.1914-.28907-.21095-.21484-.22265-.13281-.22656-.04297-.22657.04297-.22265.13281-.21094.21484-.1875.28907-.16406.36718-.125.4375-.08204.5-.03125.5586h-.83203l.03907-.58985.11328-.57812.17969-.54688.24218-.49218.30078-.42188.17188-.17578.1836-.14844.1953-.1211.21094-.08983.21875-.0547.22656-.01952m4.95313 0l.23047.01953.21875.05469.20703.08984.19922.1211.1836.14843.17187.17578.30078.42188.24219.49218.17968.54688.11329.57812.03515.58985-.03515.59375-.11329.58594-.17968.55468-.2422.5-.30077.42969-.17188.17969-.1836.15234-.19921.125-.20703.08985-.21875.05859-.23047.01953-.22656-.01953-.21875-.0586-.21094-.08984-.19531-.125-.1836-.15234-.17187-.17969-.30078-.42969-.2461-.5-.17968-.55469-.10938-.58593-.03906-.59375h.83203l.03125.5664.08203.50391.125.4414.16406.375.1875.30079.21094.22265.22266.13672.22656.04688.22656-.04688.22266-.13672.21094-.22265.1914-.30078.16406-.375.125-.44141.08204-.5039.02734-.56641-.02734-.5586-.08204-.5-.125-.4375-.16406-.36718-.1914-.28907-.21094-.21484-.22266-.13281-.22656-.04297-.22656.04297-.22266.13281-.21094.21484-.1875.28907-.16406.36718-.125.4375-.08203.5-.03125.5586h-.83203l.03906-.58985.10938-.57812.17968-.54688.2461-.49218.30078-.42188.17187-.17578.1836-.14844.19531-.1211.21094-.08983.21875-.0547.22656-.01952m4.95313 0l.38671.02734.35938.08203.32422.13672.27734.1875.23047.23828.17188.28516.10937.33203.03906.3789-.01953.27344-.0586.23438-.08984.19922-.10937.17187-.1289.14453-.14063.1211-.28516.1953.23047.1211.20703.14453.1836.17188.15234.19531.125.21094.08984.23047.05469.2461.01953.2539-.03515.3086-.10157.32812-.17187.32421-.24219.3047-.30469.26952-.375.21485-.21094.08203-.22656.0625-.2461.03515-.26171.01563-.25781-.01563-.24219-.03515-.22266-.0625-.20703-.08203-.35937-.21485-.28906-.26953-.22266-.30469-.15625-.32421-.09375-.32813-.03125-.3086h.83203l.02734.25391.07813.23438.1211.21094.16406.1875.1914.15234.21875.11328.24219.07422.2539.02344.25391-.02344.24219-.07422.21875-.11328.19531-.15234.16016-.1875.1211-.21094.07812-.23438.02734-.2539-.02734-.2539-.07813-.23438-.1211-.21094-.16015-.1875-.19531-.15235-.21875-.11328-.24219-.0703-.2539-.02735-.25391.02734-.24219.07031-.21875.11329-.1914.15234-.16407.1875-.1211.21094-.07812.23437-.02734.2539h-.83203l.01953-.2539.05469-.23828.09375-.22656.1211-.20703.15233-.19141.1836-.17188.20703-.15234.23438-.13281-.28907-.19531-.14062-.1211-.1289-.14453-.10938-.17187-.08985-.19922-.05469-.23438-.02343-.27344h.78906l.02344.21094.0664.1914.10157.16798.13671.14062.16407.10938.1914.08203.20704.05078.21875.01563.22265-.01563.20703-.05078.1875-.08203.16406-.10938.13672-.14062.10547-.16797.0664-.1914.02345-.21094-.02344-.21485-.0664-.1914-.10548-.16797-.13671-.14063-.16407-.10937-.1875-.08204-.20703-.05078-.22265-.01562-.21875.01562-.20704.05079-.1914.08203-.16406.10937-.13672.14063-.10157.16796-.0664.19141-.02344.21485h-.78906l.03906-.37891.10938-.33203.17187-.28516.23047-.23828.28125-.1875.32031-.13672.35938-.08203.38671-.02734"/><path fill="#ffffe0" fill-rule="evenodd" d="M381.6875 461.625h22.1836v-10.1914h-22.1836v10.1914"/><path fill-rule="evenodd" d="M385.1875 453.26563h.51172v6.29687h-.78906v-4.49219h-1.38672v-.55469l.5586-.0664.2539-.05078.22656-.08985.20313-.14062.17578-.21094.14062-.29687.10547-.39454m4.8164 0l.22657.01954.21875.05468.21094.08985.1953.1211.1836.14843.17188.17578.30078.42188.24219.49218.17968.54688.11329.57812.03906.59375-.03906.58985-.11329.58593-.17968.5547-.2422.5-.30077.42968-.17188.17969-.1836.15234-.1953.125-.21094.08984-.21875.0586-.22656.01953-.23047-.01953-.21875-.0586-.20703-.08984-.19922-.125-.1836-.15234-.17187-.1797-.30078-.42968-.24219-.5-.17969-.55469-.11328-.58593-.03906-.58985h.83594l.02734.5625.08203.5039.125.44532.16406.3711.19141.30078.21094.22265.22265.13672.22657.04688.22656-.04688.22265-.13672.20704-.22265.1914-.30079.16406-.37109.125-.44531.08204-.5039.02734-.5625-.02734-.5625-.08204-.5-.125-.4375-.16406-.36329-.1914-.29297-.20704-.21484-.22265-.13281-.22656-.04297-.22657.04297-.22265.1328-.21094.21485-.1914.29297-.16407.36328-.125.4375-.08203.5-.02734.5625h-.83594l.03906-.59375.11328-.57812.17969-.54688.24219-.49219.30078-.42187.17187-.17578.1836-.14844.19922-.1211.20703-.08984.21875-.05468.23047-.01954m4.94921 0l.23047.01954.21875.05468.20704.08985.19921.1211.1836.14843.17187.17578.30078.42188.2422.49218.17968.54688.11328.57812.03906.59375-.03906.58985-.11328.58593-.17969.5547-.24219.5-.30078.42968-.17187.17969-.1836.15234-.19921.125-.20704.08984-.21875.0586-.23046.01953-.22657-.01953-.21875-.0586-.21094-.08984-.1953-.125-.1836-.15234-.17188-.1797-.30078-.42968-.24219-.5-.17968-.55469-.11328-.58593-.03907-.58985h.83594l.02735.5625.08203.5039.125.44532.16406.3711.1914.30078.20704.22265.22265.13672.22656.04688.22657-.04688.22265-.13672.21094-.22265.1914-.30079.16407-.37109.125-.44531.08203-.5039.02735-.5625-.02735-.5625-.08203-.5-.125-.4375-.16406-.36329-.1914-.29297-.21095-.21484-.22265-.13281-.22656-.04297-.22657.04297-.22265.1328-.20704.21485-.1914.29297-.16406.36328-.125.4375-.08204.5-.02734.5625h-.83594l.03907-.59375.11328-.57812.17969-.54688.24218-.49219.30078-.42187.17188-.17578.1836-.14844.1953-.1211.21094-.08984.21875-.05468.22656-.01954m4.95313 0l.38672.02735.35937.08203.32422.13672.27735.1875.23046.23828.17579.28516.10546.33203.03907.3789-.01953.27344-.0586.23438-.08594.19921-.11328.17188-.1289.14453-.14063.1211-.28515.1953.23046.1211.20704.14453.18359.17188.15234.19531.125.21094.08985.23047.05469.24609.01953.2539-.03516.3086-.10156.32813-.17188.32421-.23828.3086-.3086.26953-.375.21094-.21093.08203-.22656.0625-.2461.03515-.26171.01563-.25782-.01563-.24219-.03515-.22265-.0625-.20703-.08203-.35938-.21094-.28906-.26953-.22266-.3086-.15625-.32421-.09375-.32813-.03125-.3086h.83594l.02344.25391.07812.23438.125.21484.16016.1836.1914.15234.21876.11328.24218.07422.25391.02344.25781-.02344.23828-.07422.21875-.11328.19532-.15235.16015-.18359.1211-.21484.07812-.23438.02735-.2539-.02735-.25391-.07812-.23438-.1211-.21093-.16015-.1836-.19532-.15234-.21875-.11719-.23828-.07031-.25781-.02734-.2539.02734-.2422.07031-.21874.11719-.19141.15234-.16016.1836-.125.21094-.07812.23437-.02344.2539h-.83594l.01954-.2539.05468-.23828.09375-.22656.1211-.20704.15625-.1914.17968-.17188.20704-.15234.23437-.13281-.28906-.19531-.13672-.1211-.1289-.14453-.11329-.17188-.08984-.19921-.05469-.23438-.02344-.27344h.78906l.02344.21485.0664.1914.10157.16407.13672.14062.16797.10938.1875.08203.20703.05078.21875.01953.22266-.01953.20703-.05078.1875-.08203.16406-.10938.13672-.14062.10547-.16407.0664-.1914.02344-.21485-.02344-.21484-.0664-.1914-.10547-.16798-.13672-.13671-.16406-.11329-.1875-.08203-.20703-.05078-.22266-.01562-.21875.01562-.20703.05078-.1875.08204-.16797.11328-.13672.13671-.10156.16797-.0664.19141-.02344.21484h-.78907l.03906-.3789.10938-.33203.17188-.28516.23046-.23828.28125-.1875.32032-.13672.35937-.08203.38672-.02735"/></g></defs><use xlink:href="#ak"/></svg>