<svg xmlns="http://www.w3.org/2000/svg" role="img" xmlns:xlink="http://www.w3.org/1999/xlink" viewBox="142.45 309.95 326.84 171.84"><defs><clipPath id="a"><path d="M144 311.67188h1v168.65625h-1zm0 0"/></clipPath><clipPath id="b"><path d="M144 311.67188h324v168.65625H144zm0 0"/></clipPath><clipPath id="c"><path d="M467 311.67188h1V462h-1zm0 0"/></clipPath><clipPath id="d"><path d="M144 476h2v4.32813h-2zm0 0"/></clipPath><clipPath id="e"><path d="M154 477h6v3.32813h-6zm0 0"/></clipPath><clipPath id="f"><path d="M167 477h7v3.32813h-7zm0 0"/></clipPath><clipPath id="g"><path d="M180 477h7v3.32813h-7zm0 0"/></clipPath><clipPath id="h"><path d="M194 477h7v3.32813h-7zm0 0"/></clipPath><clipPath id="i"><path d="M207 477h7v3.32813h-7zm0 0"/></clipPath><clipPath id="j"><path d="M220 478h8v2.32813h-8zm0 0"/></clipPath><clipPath id="k"><path d="M226 479h2v1.32813h-2zm0 0"/></clipPath><clipPath id="l"><path d="M233 480h8v.32813h-8zm0 0"/></clipPath><clipPath id="m"><path d="M239 480h2v.32813h-2zm0 0"/></clipPath><clipPath id="n"><path d="M246 480h9v.32813h-9zm0 0"/></clipPath><clipPath id="o"><path d="M252 480h2v.32813h-2zm0 0"/></clipPath><clipPath id="p"><path d="M260 479h8v1.32813h-8zm0 0"/></clipPath><clipPath id="q"><path d="M266 479h2v1.32813h-2zm0 0"/></clipPath><clipPath id="r"><path d="M273 479h8v1.32813h-8zm0 0"/></clipPath><clipPath id="s"><path d="M279 480h2v.32813h-2zm0 0"/></clipPath><clipPath id="t"><path d="M286 479h9v1.32813h-9zm0 0"/></clipPath><clipPath id="u"><path d="M292 480h2v.32813h-2zm0 0"/></clipPath><clipPath id="v"><path d="M300 480h8v.32813h-8zm0 0"/></clipPath><clipPath id="w"><path d="M307 480h2v.32813h-2zm0 0"/></clipPath><clipPath id="x"><path d="M313 479h8v1.32813h-8zm0 0"/></clipPath><clipPath id="y"><path d="M320 479h3v1.32813h-3zm0 0"/></clipPath><clipPath id="z"><path d="M326 479h9v1.32813h-9zm0 0"/></clipPath><clipPath id="A"><path d="M332 480h2v.32813h-2zm0 0"/></clipPath><clipPath id="B"><path d="M340 479h8v1.32813h-8zm0 0"/></clipPath><clipPath id="C"><path d="M354 477h6v3.32813h-6zm0 0"/></clipPath><clipPath id="D"><path d="M369 476h3v4.32813h-3zm0 0"/></clipPath><clipPath id="E"><path d="M380 477h7v3.32813h-7zm0 0"/></clipPath><clipPath id="F"><path d="M393 479h8v1.32813h-8zm0 0"/></clipPath><clipPath id="G"><path d="M393 479h2v1.32813h-2zm0 0"/></clipPath><clipPath id="H"><path d="M407 477h7v3.32813h-7zm0 0"/></clipPath><clipPath id="I"><path d="M420 478h8v2.32813h-8zm0 0"/></clipPath><clipPath id="J"><path d="M433 480h8v.32813h-8zm0 0"/></clipPath><clipPath id="K"><path d="M439 480h2v.32813h-2zm0 0"/></clipPath><clipPath id="L"><path d="M446 479h8v1.32813h-8zm0 0"/></clipPath><clipPath id="M"><path d="M452 479h2v1.32813h-2zm0 0"/></clipPath><clipPath id="N"><path d="M459 479h9v1.32813h-9zm0 0"/></clipPath><clipPath id="O"><path d="M465 480h2v.32813h-2zm0 0"/></clipPath><clipPath id="P"><path d="M144 463h2v8h-2zm0 0"/></clipPath><clipPath id="Q"><path d="M144 451h4v5h-4zm0 0"/></clipPath><clipPath id="R"><path d="M144 440h4v1h-4zm0 0"/></clipPath><clipPath id="S"><path d="M144 426h4v2h-4zm0 0"/></clipPath><clipPath id="T"><path d="M144 412h4v4h-4zm0 0"/></clipPath><clipPath id="U"><path d="M144 400h4v1h-4zm0 0"/></clipPath><clipPath id="V"><path d="M465 397h3v3h-3zm0 0"/></clipPath><clipPath id="W"><path d="M144 383h2v8h-2zm0 0"/></clipPath><clipPath id="X"><path d="M144 371h3v6h-3zm0 0"/></clipPath><clipPath id="Y"><path d="M144 357h3v7h-3zm0 0"/></clipPath><clipPath id="Z"><path d="M144 345h4v4h-4zm0 0"/></clipPath><clipPath id="aa"><path d="M144 333h4v2h-4zm0 0"/></clipPath><clipPath id="ab"><path d="M144 318h4v5h-4zm0 0"/></clipPath><g id="ac" clip-path="url(#clip1)"><path fill="#fff" fill-opacity="0" fill-rule="evenodd" d="M0 0h1000v1000H0zm0 0"/><path fill="#d3d3d3" fill-opacity="0" fill-rule="evenodd" d="M162.15234 355.86719l-.23437.29297.0586.23437.11718.17188.17578.23437.29297.34766.11328.0586.11719-.17188.0586-.23438.17577-.17578.46485-.17578h.69922l.23437.29297.28906.8164.0586.17579.17578.23046.35156.23438.69922.69922.17188.17578.23437.34765.23438.41016.28906.58203.41015.46485.23047.23437.23438.17578.11719.23047.17578.29297.17187 1.16406v.23438l.0586.28906.05859.11719.11719.11719.34765.41015.11719.17188.17578.17578.17578.23437.11719.17188.17188.35156.05859.23438.23437.40625.23438-.0586-.17578.17578-.0586.92969h-.58203l-.23437-.11328-.34766.11328-.11719.11719-.05859.29297-.0586.17578-.11718.17187-.46484.29297-.0586.23438-.0586.11328v.64453l.0586.17187v.41016l.0586.0586v.40624l.05859.40625.11719.17579.05859.05859.23047.64062-.0586.29297v.69922l-.05859.58203v.23438l-.0586.23047-.05468.35156v1.92187l.05469.1172h.42578l-.36719.11718-.02344.35156.89063 1.16797 1.74219.53906 1.33984.35938v.53906l.08984.8086.53516.71484 1.51953.26953.89063-.08594.08984 1.16406.53516.1797 1.16015-.1797 2.05469-.98437 1.16016-.36328 1.8789-.17578 1.69531-.1797-.17968.71876-1.51563.08594-1.25.08984-.80469.26953-1.07421.8086.26953.71875.53515.89843-.17968.625-.26563.8086.26563 1.07812.625.89844.80468.17969 1.25-.1797-.26562.72267.09766.5039.05468.29297v.17188l.0586.29296v.40625l.17578.1172.35156.11718h.40625l.29297-.17578.11328-.11719.0586-.11719.11718-.23047.0586-.17578.35156-.46484.23047-.17578.17578-.0586.17578.0586.0586.17578.11718.98828.05469.46875.0586.17188.11718.23437.17578.0586.8164.05859h.28907l.11719.23437.05859.40625.0586.35156v1.10547l.11718.29297.11719.34766.28906.69922.17578.35156.58203.7539.35157.17579.17187.0586.46875.23437.64063.46484.34765.23438.29297.17578.29297.05468.23047.0625.8164.34766.29297.17578.11328.17188.35157.35156.11719.17578.52343.64063v.28906l.0586.35156v.34766l.05859.35156.0586.28906.11718.0586.17188.05859h.17578l.58203.23437.17578.1172.17578.28905.17578.23438.11328.23437.29297.23047.11719.11719v.41016l.0586.05468.28906.23438.23437.11719.0586.11718.11718.17188.0586.11719.23047.23437.05859.17578.23437.0586.1172.05859-.1172.11328-.05859.11719v.11719l-.11719.29296-.11719.28907v.58203l.17579.11719.11718.05859.0586.11719.11719.11719.11328.05859.17578.34765.0586.35157.05858.40625v.17578l-.05859.17578-.11719.69922v.17187l.1172.17579.29296.29296h.40625l.17578.1172.11719.17187.11719.29296v.23438h-.52735l-.23047-.23438h-.23437l-.17578.0586-.0586.69922.0586.34765.11719.17579.17578.41015.11718.23047.28907.46875.17578.05469h.52344l.23437.0586.75781.64062.0586.29296v.23438l.05859.0586.23047.34765v.35156l-.11719.17188v.29297l.29297.28906.29297.17578.17187.0586.29297.17577.29297.1172.58203.40624.28906.23438.29297.17578.21875.16015.01563.01172.23047.17579.64062.52343.17578.23438.1172.17578.17577.17578.11328.17188v.64062l.1172.17578.46874.11719.58203.11719.23438.05859.23047.11328.29297.11719.11328.0586.58593.35156.28907.17187.17578.0625.17578.05469.17578.0586.69922.35155.28906.17579.23438.05468.28906.17578.23437.1172.64063.40624.29297.11719.17187.0586.23438.05859.41015.05859.23047.0586.23438.11718.0586.17188-.41017.17578.46875.0586.0586.29296.11328.23438.17578.05468.23438.0586.17578.05859.40625.11719.64062.23437.11719.17188.0586.23437v.17578l-.0586.1172-.0586.40624.23438.23438.11719.05859.34766.11719.64062.23047.17578.11718.28906.1172.17578.17577.23438.46485.58203 1.10546.17578.17579.34766.17578.17578.11719.35156.11718 1.04688.52344.23437.0586.46485.11327.29297.0586.46484.17578.75781.58203.23438.23438.34765.46484.17578.17578.28907.23438.8164.69921.29297.17579.28906.28906.29297.17578.29297.28906.69531.64063.17578.17578.29297.23437.28907.23438.46875.28906.64062.58203.34766.23438.23437.29297.34766.34765.35156.46485.9336.99218.34765.40625.11719.17579.23437.05859.11328.11719.64454.17578.23047.11328.23437.0586.29297.17577.23047.1172.9336.69921.40624.40625.23438.17578.40625.17578.23437.11719.8164.34766.34766.23437.23438.11719.29297.28906.23047.11719.7578.35156.35157.17188.23047.05859.29297.11719.23437.0586.8711.17577h.8164l.46875.23047.17188.0586.875.69921.46484.1172.29297.05858.17578.0586.23047.0586.46875.05859.34766.05859.35156.0586.40625.05859h.29297l.17187.0586v.23046l.17578.17578h.29297l.34766.0586.35156.05859.69922.11719h.64063l.46484-.23438.29297-.17578.17187-.11719.41016-.17187.28906-.17578.9336-.46485.46875-.29297.52343-.29296.46485-.17188.46484-.17578 1.05078-.46485.28906-.11718.41016-.11719.28906-.11719.52735-.17578 1.51562-.69922.58203-.34765.28907-.0586.29297-.0586.34765-.11718.875-.23047.35156-.11719h.11329l.23437-.05859.875-.23437.23438-.0586h.8125l.35156-.0586.8164-.11718.17188-.0586.35156-.05468.29297-.0586.23047-.05859.8164-.17578.17579-.0586h.34765l.23438-.05859.46484-.11718.75781-.17188.23438-.0586h.34765l.41016-.11718.28906-.0586 1.28516-.05859h.28906l.41016-.0586.23047-.05858h.17578l.875-.1172h.40625l.41015-.11718h.34766l.35156-.11328.8711-.0586h1.75l1.04687.28907.41016.11719.28906.11718.35156.11719.28907.11719 1.05078.17187.28906.0586h.29297l.29297.05859.17187.0586.41016.05859.17187.0586.1172.05858h.11718l.11719.0586.35156.0586h.11328l.41016.0664 1.92187.39453 1.92578.39453 1.51953.44922 1.69532.71875 2.14453.80469 1.60547-.71875 1.42968-.80469 1.16016-1.07813 1.25-.44921 3.03516-.71875 1.875-.35938 2.14453-1.34765 2.23437-1.25391 2.5-1.25781 1.69531-.44922 1.78516-.17969 1.16016-.26953.625.53906 1.33984-.26953.71485-.98828.98437-1.34375.44531-.17969.80469-.35937 1.875-.53907 1.78516-.44921 1.25-.26954 1.16015-.08984 1.69922-.08984 1.96094-.26954 1.25-.08984h.53906l.625-.08984h.89063l2.14453-.17969 2.41015-.17969 2.58985-.08984 1.69531.17969 1.60938.08984 1.42968.35938 1.16016.71875 1.875.98828 1.16015 1.52734.26563.71484.6289.08985.35548.89844.53515.53906.53516 1.52734 1.07422.35938h.53515l-.80469.53515.08985 1.70703.71484 2.69532.89063.80468.89453.98829.71484 1.2578 1.78516.53907 1.51953-.17969.35547 1.34375 1.60937-.80469.98047-.53906.26953.26953.31641-.21484.21875-.14453.80078.44922.44922-.35938h.35547l.53515-.26953.53907-.71875.53515-.26953.625-.98828 1.16016.44922.83984.3711 1.39454.61718 1.6953-.17969h1.60548l1.78515.08985.17969-1.70704.53516-1.34375.80468.26954.4922.84765.40233.40625-.08984.53906v.35938l.71485.44922.71093-.26953h1.42969l.35938.98828.4453 1.25781.71485 1.34375 1.25.6289 1.69531.62891.71485-.17969.17969-.53906.98046-.08984.44922.35937.08594 1.25782-.26563.6289-.53515.17969v.53906l.71484.98438.26563.53906.98437.98828.80078 1.07813-.26562.35937-.08985.89844-.625 2.33203-.35546 2.0664-.08985 1.79298-.17969.71875-.08984.53906v1.4375l-.98047 1.88281-.35937 1.70703-.53516.89844-.80469 1.16797-.26562.53906 2.05469 1.2539.08593.35938-.35546.53906-.08985-.17968v.80859l.08985 1.4375-.44532.71484-1.07422.09375-.26562.71485.53515.89844.8047.71875 1.16015.80859 1.33984.26953.44531.35938-.35546.44921-1.78907-.08984-1.25-.44922-.71484-.71875-.625-.08984-.17578 3.58984-.1875 1.3086h89.35937V311.70313h-55.26953v49.08203l.76172.125 3.28906.54296 2.02344 2.83594v2.7539l2.35156.33204 2.34766.33203h4.05078l-1.3789 4.16016-2.02344.70703-2.02344.70312-.54297.34375-2.59375 1.6172-.1875.11718-2.02344-2.07813-.73046-2.74218-2.67188-2.07813-1.375-3.5-.0664-.08203-1.95704-2.67188 2.75-1.41796v-49.08204H294.42187v91.41407l.1172.03125.1328.01172.07422.07421.10547.04688.08985.0586.08593.05859.08985.0586.29687.29687.0586.08984.03125.11719.02734.11719.01563.13671-.03125.1172-.0586.08983-.0586.08594-.04296.10547-.04688.10156-.02734.1211v.14453l.17578.26953.14844.14844.07422.08594.07422.07421.04296.10547.0625.08985.0586.08593.04297.10547.0586.08985.04687.10156.04296.10547.0586.08594.11719.17968.07421.07422.0625.08594.0586.08984.04297.10547.0586.08985.05858.08593.0625.08985.0586.08984.04297.10156.11719.17969.07421.07422.0586.08594.07422.07421.08984.0586.10547.04687h.14844l.1328-.01562.13282.01562.10156-.04687.07422-.07422.04688-.10156-.01563-.13281v-.14844l-.04687-.10547-.02735-.11719-.04687-.10156-.02735-.1211-.04296-.10156-.0625-.08984-.04297-.10156-.04297-.10547-.03125-.11719-.01563-.13281-.01171-.13672.08593-.0586.0586-.08593.12109-.03125.04297.10547.01562.1328v.1172l.0586.10156.0586.08984.08983.0586.14844.14843.0586.08985.04296.10547-.01171.10156.08593.0586.10547.04687.08594.0586.08984.05858.07422.07422-.11719.02735-.10546.04687-.08594.0586-.07422.07421-.0586.08985-.0625.08594-.02734.12109-.04687.10156-.04297.10547-.03125.11719-.01172.13281-.01563.13281v.14844l.02735.11719.04687.10547.04297.10156.0586.08984.07421.07422.08985.0586.07422.07421.08984.0586.0586.08984.04296.10547.04688.10156.11719.03125.1328.01563h.14845l.11718-.03125.10547.04297.04297.10547.04688.10156.02734.1211L299.5 410l.02734.11719.03125.1211.02735.11718.10547.04297.10156.04687.13281-.01562.14844.14844.0625.08593.07422.07422.07031.07422.08984.0625.10547.04297.10156.04297.1172.03125.13671.01562.11719-.03125.07422-.07422.02734-.11718-.01172-.13282-.03125-.12109-.02734-.11719.04297-.10547h.11719l.08984.0625.11719.02735h.14843l.13282.01562h.14843l.13282.01563.1328-.01563h.14845l.1328-.01562.13282-.01172.13672.01172.11719-.02735.13281-.01562.1914-.0586-.05859.17579-.01562.1328-.02735.1211-.01562.13281-.0586.08594-.1328.01563-.10548.04687-.10546.04297-.1172.03125-.11718.02735-.26563.03125h-.14843l-.13281.01562-.07422.07422.05859.08594.14844.14843.11719.1797.07421.0703.08985.0625.08984.0586.08594.0586.08984.05858.10156.04297.10547.0625.10547.04297.08594.0586.10547.04687.10156.04297.17969.11719.0586.08984-.04298.10156-.04687.10547.01562.13281.22266.22266.0586.08985.04296.10156.03125.1211.04297.10155.01563.13282.03125.11718.01171.13672.03125.11719.14844.14844.10156.04297.10547.04296.1172.03125.1328.01563.13672.01563h.11719l.11719-.03125.08984-.0586.04297-.10547.04688-.10156.04296-.10547.03125-.11719.01172-.1328v-.14845l-.01172-.1328-.01562-.13282-.03125-.11719-.04297-.10547-.04688-.10547-.04296-.10156-.04297-.10547-.01563-.13281.01563-.13281.02734-.11719.03125-.11719.02735-.1211.04687-.10155.08984-.0586.08594-.0625.07422-.07422.08984-.05859.22266-.22266.0586-.08593.07421-.07422.11719-.17969.0586-.08594v-.14844l-.07423-.07421-.10156-.04688-.10547-.04297-.10156-.04297-.0586-.08984-.04687-.10547-.02734-.11719.08984-.05859.11719-.03125.10156-.04297.17969-.11719.14844-.14843.01172-.13282-.01172-.10546-.08985-.0586-.1328.01563h-.14845l-.1328.01562-.13282-.01562-.1211-.03125-.08593-.0586-.07422-.07422-.0586-.08984-.0625-.08594-.11718-.17969-.0586-.08593.03125-.1211.08594-.05859.1211-.03125.05859-.08594v-.1211l-.03125-.11718-.0586-.08984-.05859-.08594-.04687-.10547-.02735-.11719-.01562-.1328.0586-.08985.07421-.07422.08984-.0586.1172-.17968.07421-.07422.0586-.08594.14843-.14844.1211-.03125.1328-.01562.13282.01562.07422.07422.04297.10547.01562.13281-.03125.1172-.11719.03124-.1328.01172-.14844.14844-.04297.10547-.04688.10156-.02734.1211-.03125.11718v.14844l.03125.11719.04297.10546.05859.08985.07422.07031.07422.07422.11719.03125.12109.02734.11719-.02734.1328-.01563h.1172l.08984.0586.07422.07422.04687.10546.0586.08594.10156.04688.13281.01562.10547.04297.08594.0586-.01172.10546-.07422.07422-.17969.11719-.05859.08984-.08984.0586-.07032.07422-.07421.07421-.0625.08985-.02735.11719-.01562.1328.01562.13282-.01562.13281v.14844l.01562.13281.02735.1172.03125.12108.07421.07422.08985.0586.08594.0586.08984.05858.11719.03125v.08594l-.10157.04688-.08984.0586-.26563.03124-.11718.02735h-.14844l-.10547.04296-.10156.04688-.0586.08984-.0625.23438-.01171.13281-.03125.1211-.01563.1328v.29298l-.01172.1328.01172.13673.01563.1328.1328.01563.13282.01172.1211.03125.08593.0586.07422.07421.04688.10547.04296.10157.01563.1328v.44532l-.01563.13281v.44532l.03125.26562.02735.11719.01562.13281.03125.11719.08594.21094.03125.26562v.14844l-.03125.11719-.02734.11718-.03125.1211-.02735.11719-.03125.11718-.03125.1211-.01171.1328-.01563.13282.08984.0586.1172-.03125.10155.01562.04688.10547-.03125.26562v.44141l-.04297.10547-.04688.10547-.04296.10156-.04297.10547-.0586.08594-.03125.12109-.04296.11719-.03125.11719-.01563.1328.01563.13282.05859.08984.10547.04688.08594.0586.05859.08593-.01172.13672-.03125.11719-.04297.10156v.44531l-.01562.13281v.14844l-.03125.11719-.04297.10547-.02735.11719-.04687.10546-.04297.10157-.03125.12109-.02734.11719-.03125.13281-.03125.11719-.02735.11719-.04297.10546-.03125.1172-.03125.12108-.01171.13282-.01563.13281v.29688l.02734.11718v.14844l.04688.39844.02734.11719.0586.08984.12109.03125h.14844l.13281-.01563.0586.08985v.11719l-.0586.08984-.08984.0586-.10157.04296-.10546.04688-.08985.05859-.08594.0586-.13671.01562-.1172-.03125-.1328-.01563-.10157.04688-.0625.08594-.01172.13671-.01562.13282-.03125.11719-.02735.11718-.01562.13281-.03125.1211v.29687l.01563.13282.03125.11718v.14844l.01171.13281v.14844l-.02734.11719-.04688.10156-.02734.1211-.03125.11718-.0586.08985-.07421.07421-.10156.04297-.10547.04688-.11719.02734-.1211.03125-.10156-.04687.0586-.08594.10547-.04688.02734-.11718.03125-.11719.02734-.1211.03125-.11718v-.14844l.01563-.13281-.03125-.11719-.04297-.10547-.10547.01563-.07422.07422-.10156.04296-.08984.0625-.07422.07422-.04297.10157-.01563.1328-.03125.1172L304.25 426l-.03125.11719-.02734.11719-.03125.12109-.02735.11719-.03125.11718-.04297.10547-.08984.0586h-.08984l-.1172-.03125-.03124-.08594.01562-.13672-.03125-.11719v-.14844l-.01171-.1328v-.14844l-.0625-.23438-.02735-.1211-.04297-.10156-.04687-.10546-.0586-.08594-.05859-.08985-.04297-.10546-.0625-.08594-.14844-.14844-.0703-.07422-.10548-.04687-.10547-.04297-.10156-.04297-.29687-.29688-.08985-.07421-.08594-.0586-.10546-.04297-.08985-.0625-.08594-.0586-.10546-.04296-.08985-.0586-.08594-.0625-.07421-.0703-.10547-.04688-.08594-.0586-.10547-.04296-.08984-.0625-.10156-.04297-.10547-.04297-.08594-.0586-.10547-.04687-.10547-.04297-.10156-.04687-.08985-.0586-.10156-.04297-.10547-.04296-.08984-.0625-.11719-.02735-.13281-.01562-.13281.01562H299.75l-.13281.01563-.11719-.03125-.08984-.0586-.07422-.07422-.08985-.05859-.10156-.04688h-.14844l-.12109-.02734-.10156-.04297-.07422-.07422-.11719-.17968-.08984-.0586-.10156-.04297-.08985-.0625-.10547-.04296-.08984-.0586-.08594-.0586-.10547-.04687-.0586-.08594-.05858-.08984-.04297-.10547-.04688-.10156-.07422-.07422-.08594-.0586-.07421-.07421-.08985-.0586-.22265-.22265-.04297-.10547-.03125-.26563.10547-.04296h.14453l.10547.04296.07421.07422.08985.0586.08594.0586.10546.04687.08985.05859.14844.14844.0703.07422.14845.14843.0625.08594.07421.07422.08594.0586.07422.07421.08985.0625.08984.0586.08594.05859.26953.17578.10156.04688.10547.04296.10156.04297.04688-.07421.05859-.08594.07422-.07422.07031-.07422.10547.04297.07422.07422.0586.08984.04296.10156.04688.10547.04296.10547.1211.02735.11719-.02735.07421-.08984.04297-.10547.0586-.08985.07422-.07421.10546-.04297.1172-.02735.1328.01172.08985.0586.14844.14843.05859.08985.04297.10547.04687.10156.04297.10547.04297.10156.10547.04688.10547.04296.13281.01563.08594-.0586.0586-.08984.07421-.07422.10547-.04297.11719.02735.10547.04687.10156.04297.10547.04297.10156.04688.17969.11718v.11719l-.01563.13281.01563.13281.01562.13672.0586.08594.10156.04688.1211.02734.11718.03125h.14844l.11719-.03125.05859-.08984.17969-.1172.05859-.08983.07422-.07422.0586-.08594.11718-.17969.17969-.11719.11719.03125.08984.0586.04297.07422-.01563.1328v.1172l.08985.05859h.14843l.13282-.01563.1328-.01171.26563-.03125.10547-.04297.11719-.03125.1211-.02735.07421-.07421.07031-.07422.0625-.08985-.01562-.10547-.04688-.10156-.10156-.04297-.10547-.01562-.11718.02734-.26563.03125h-.14844l-.07421-.07422-.08985-.0586-.11719-.03124-.11718-.02735-.13282-.01562h-.14843l-.13282.01563h-.29687l-.10547-.04688-.14844-.14844-.04297-.10156-.05859-.08984.22266-.22266.08593-.0586.10547-.04296.11719-.03125.13281-.01563.13281.01563.13672.01562.10157.04297.1328-.01172.08985-.0625.10156-.04297.0625-.08984-.04687-.10156-.08984-.0586-.1172-.03125-.10155-.04296-.0586-.08985-.0625-.08984v-.11719l.01563-.13281.10547-.04688.07421-.07031v-.1211l-.08984-.05859-.03125-.11719.08985-.05859.07421-.07422.04297-.10547.0586-.08984.04687-.10156.01563-.13281v-.14844l-.04688-.10547-.04297-.10156-.08984-.0586-.13281-.01562-.10157-.04297-.13671-.01563-.1172-.03125h-.4453l-.13282-.01562-.13281-.01172-.13281-.01563-.11719-.03125h-.14844l-.13281-.01562-.13281-.01172-.26563-.03125-.1211-.04297-.08593-.0586-.07422-.07421v-.14844l.01172-.13281.10547-.04688.10156-.04296.13281-.01563h.15235l.13281-.01562h.29297l.1211.03125.10156.04296.08984.0586.23438.0625.12109-.04688.08984-.05859.10156-.04297.13282-.01562.10547.04296.10156.04688.13281.01172.1211-.02735h.14453l.12109-.03125.11719-.02734.10547-.04687.07421-.07422.08594-.0586.14844-.14843.0586-.08594.04687-.10547.02734-.11719.01563-.10547-.10156-.04296-.08985-.0586-.11719-.03125-.10546-.04297-.08985-.0625-.07422-.08594-.07422-.07421-.10156-.04297-.10547-.04688-.10156-.04297-.0586-.08984-.04687-.10156-.08594-.21094-.0625-.08594-.05859-.08984-.07422-.07422-.08594-.0586h-.26953l-.11719.03126-.08984.05859-.10156.04297-.13281.01562-.10547-.01562-.02735-.11719-.0625-.08984-.11718-.03125-.10157-.04297-.14843-.14844-.03125-.11719-.01563-.10546.07422-.07422.17969-.1172.11719-.02733.11718-.03125.13672.01562.10156.04297.10547.04297.10156.04687.10547.04297.1172.03125.1328.01563.1172.02734.1328.01563.10547-.01563.08985-.0586-.07422-.07421-.10547-.04297-.07422-.07422-.07422-.08984-.14844-.14844-.08593-.0586-.08985-.05859-.07422-.07422-.08984-.0586-.10156-.04687-.1211-.02734-.10156-.04688-.10547-.04296-.11719-.03125-.10156-.04297-.1211-.03125h-.14843l-.11719.03125-.10546.04297-.08594.0625-.17969.11718-.08594.0586-.08984.0586-.10547.04687-.08594.05859-.10547.04297-.10156.04297-.10547.04687-.07422.07422-.05859.08985-.0586.08593-.04687.10547-.0586.08594-.07421.07422-.13281-.01172-.1172-.03125h-.11718l-.07422.07422-.08984.0586-.07422.07421-.08984.0586-.08594.05859-.10547.04687-.10156.04297-.13672.01563-.10156-.04297-.14844-.14844-.10547-.04688h-.08594l-.10547.04688-.10156.04297-.1211.03125-.11718-.03125-.07422-.07422v-.11719l.03125-.1211.07422-.0703.0586-.08985.07421-.07422.11719-.03125.10547-.04296h.29297l.13281-.01563.13672-.01563.10156-.04296.08985-.0586.10156-.04687.08984-.0586.13281-.01171.08985.05859.13281.01172.08984-.0586.08594-.05859.10547-.04297.08984-.0586.08594-.0625.08985-.05859.14843-.14843.0586-.08594.05859-.08985.10547-.04296.13281-.01563.11719.02735.1211.03125.05859-.0586.05859-.08984.03125-.26563.02734-.11719.10547.01172.13281.01563.10157-.04297.08984-.0586.0586-.08984.07421-.07422.0586-.08984.04687-.10156.01172-.13281-.01172-.13282-.04687-.10547-.14844-.14843-.0586-.08985-.05859-.08594-.04297-.10546v-.44532l.01563-.1328v-.14845l.01172-.1328-.0586-.0586-.08984.0586-.10156-.04298-.17969-.11719-.08594-.05859-.0625-.08984-.0586-.08985-.07421-.07421-.08594-.0586-.1211.03125-.10155.01172-.10547.04688-.08594.05859-.10547.04297-.14844.14844-.08984.05859-.08594.0586-.08984.0625-.10547.04296-.13281.01563v-.1211l.10547-.04297.11718-.03125.07422-.0703.04297-.10548v-.14844l-.02734-.11718-.14844-.14844-.13281-.01563h-.14844l-.11719.03125-.10547.04297-.10156.04297-.08984.0625-.11719.02735-.07422-.07422.01172-.13281-.04297-.10157-.04297-.10547-.08984-.05859-.11719.02734-.1211.03125-.11718.03125-.10156.04297-.1211.03125-.10156.04297-.10547.04297-.08984.0586-.10156.01562v-.11719l.01562-.13281-.0586-.08985-.07421.04297-.14844.14844-.0586.08985-.07421.07421-.04688.10547-.04296.10156-.07422.07422-.0586.08985-.07422.07422-.05859.08593-.07422.07422-.08984.0625-.07422.07031-.07422.07422-.10156.01563-.13281.01562-.10547-.04296v-.1211l.14843-.14844.04297-.10156.0586-.08984.04687-.10156.04297-.10547.0586-.08985.03124-.11719.04297-.10156.03125-.1211.02735-.11718.04687-.10547.04297-.10156.04297-.10547.07422-.07031.08984-.0625.08985-.0586.10156-.04296h.29687l.26563-.03125.10547-.04297-.07422-.07422-.11719-.03125-.10547-.04297-.08984-.0586-.10156-.04687-.08985-.0586-.10156-.04296-.10547-.04297-.08984-.0625-.08594-.0586-.10547-.04296-.10156-.04297-.1211-.03125-.11718-.03125-.10157-.04297L297.5 410.25l-.10156-.04297-.08985-.0586-.04296-.10546-.01563-.13281.10156-.04297.13281-.01563.13672.01563.13282-.01563.10156-.04297.0586-.08984.01562-.10547-.08985-.0586-.07421-.07421-.10157-.04297-.08984-.0586-.14844-.14843-.04297-.10547-.01562-.13281v-.29297l-.0586-.08985-.08984-.05859-.07422-.07422-.04297-.10547-.03125-.11718-.0586-.08985-.07421-.07422-.11719-.02734-.07422-.07422-.08984-.0586-.08984-.0625-.08594-.05859-.07422-.07421-.0586-.08594-.04687-.10547-.08594-.0586-.14843-.14843-.19532-.0586-.1328.01563-.10157.04297-.07422.07422-.04688.10156-.04296.10547-.0586.08984-.0586.08594-.29687.29687-.08984.0586h-.08594l-.0625-.08594-.04297-.10547.03125-.11719.0586-.08984.02734-.11719-.01172-.13281-.08984-.0625-.10547.04688-.11719.02734-.11719.03125-.26953.17578-.10156.04688-.11719.02734-.10546.04687-.08985.0586-.10156.04297-.0586-.08594-.04687-.10547.01563-.13281.04687-.10547.07031-.07422.07422-.07031.0586-.08985v-.14843l-.04297-.10547h-.23829l-.10156.04687-.03125.11719-.02734.11719-.03125.1211-.07422.04296-.13281.01563-.07422-.04688-.04297-.10156-.04297-.10547-.04687-.10156-.04297-.10547-.1211.03125-.10156.04297-.13281.01562-.11719.03125-.10547.04297-.08984.0586-.10156.04687-.1211.02734-.13281.01563-.10156-.04297-.0586-.08985-.04687-.10546-.04297-.10157-.04297-.10546v-.1172l.0586-.08984.08593-.05859.17969-.11719.10156-.04687.10547-.04297.10547-.0586.10156-.04296.08985-.0625.10156-.04297.10547-.0586.10156-.04687.08984-.0586.10547-.04296.10156-.04297.08985-.0625.10156-.04297.13672-.01563.11719.03125.10156.04297.1211.03125.10156.04297.10546.04688.10157.04296.10547.04297.10156.04688.10547.04297.10156.04297.10547.04687.08594.0586.10546.04296.1172.03125.10546.04297.10156.04688.08985.0586.10547.04296.10156.04297.10547.04687.11719.02735.10156.04687.1211.02735h.14843l.08594-.0586.01562-.10156.0586-.08984-.02735-.1172-.07422-.07421-.11719-.17969-.07421-.07422-.08985-.07421-.17969-.1172-.08593-.05859-.10547-.04296-.10156-.04688-.26954-.17578-.05859-.08985-.07422-.07421-.0586-.08985-.04296-.10156-.03125-.11719-.01563-.13672v-.5625l-.01171-.1328-.01563-.13282-.03125-.11719-.01562-.13281-.01172-.13281-.03125-.1211-.22266-.22265-.0586-.08594-.01562-.10547.03125-.11719.13281-.01562v-91.41406H172.9922v1.45312l-.0586.23438-.35156 1.05078-.17187.52343-.1172.34766-.17577.41016-.11719.17187-.23438.29297-.23046.0586h-.35157l-.11718.05859-.23047.40625v.29297l.11719.17578.23046.23047.1172.23437.64062.75781.29297.46485.17578.23437.23047.35156.23437.34766.64063.8164.17578.46485.17187.41016.11719.69531.17578.46875.11719 1.39844.0586.46484v.875l.11718 1.04688v4.78125l-.0586.46484-.35156 1.28125-.17578.52344-.11328.41015-.35156.9297L172.93359 336l-.23437.58203-.11719.17578-.17187.34766-.17578.40625-.35157.8164-.0586.29297-.11327.29297-.11719.28906-.0586.17579-.11718.875-.0586.40625-.05859.11718-.0586.17579-.05859.17187-.23047.52734-.11718.17188v.23437l-.11719.23438-.0586.17187-.17577.58594v.28906l-.0586.17579v.29296l-.0586.11329-.05859.52734v.17187l-.05468.23438v2.6211l-.17578.8164-.1172.17578-.17577.23438-.1172.17187-.11327.23438-.58594.93359-.23047.28906-.29297.46485-.17578.23437-.28906.35156-.35156.69922-.11328.23047-.17579.41016-.17578.23046-.40625.52735-.8164.69922-.29297.17187-.28906.23438-.17579.11719-.17578.17578-.52344.40625-.52734.17578-.17187.17578-.23438.05469-.64062.17578h-.75782m12.21094 31.02344l-1.07422.44921.35938.89454 1.25-.71485.44531-.53906-.98047-.08985"/><path fill="#d3d3d3" fill-opacity="0" fill-rule="evenodd" d="M201.50781 416.59766h-.89453l.44922.6289.98047.35938.80469-.08985.4453-.98828-.17577.08985-.71485-.35547-.89453.35547m154.6211 59.0703l-.0586-.52343v-.29297l.11328-.29297.0586-.23046.46875-.46875h.11328l.11719-.11329.11718-.05859h.17579l.23437-.0586h.34766l.23437.0586.11719.0586.23047.17187.0586.17578.11718.58203v.29297l-.11719.17578-.17187.28906-.17579.17579-.52734.52343-.23047.23438-.11719.0586h-.17578l-.11718-.0586-.40625-.29297-.17579-.11719-.11718-.0586-.0586-.11327-.05468-.1172m6.64062-10.95702l-.0586-.17188v-1.10937l.0586-.17188.17578-.0586.17188-.05858h.17578l.23437-.0586.1172.0586.05858.69921-.05859.17188-.11719.17578-.11718.0586-.23438.52343-.11328.0586h-.23438l-.05859-.1172m9.61328-14.39062l-.11719-.17578v-.69922l.29297-.875.1172-.17187.17577-.35156.11328-.23047.1172-.29297.35155-.75781.1172-.23047.17187-.23438h.17578l.11719-.0586h.64062l.11719.0586.23437.23438.17188.11328.35156.29297.11719.11718.11328.17579v.11328l.11719.05859.11718.11719v.69922l-.05859.17578v.23047l-.0586.17578-.34765 1.05078-.11719.23047-.11719.23437-.11718.0586-.23047.23437-.64063.28906h-.875l-.41015-.11718-.64063-.46485"/><path fill="none" stroke="#bebebe" stroke-linecap="round" stroke-linejoin="round" stroke-miterlimit="10" stroke-width=".5" d="M467.95703 311.69531H144.02734v168.625h323.9297v-168.625"/><g clip-path="url(#a)"><path fill="#fff" fill-opacity="0" fill-rule="evenodd" d="M144 475.89063v4.4375h.0039H144V311.67188h.0039H144v164.21875"/></g><g clip-path="url(#b)"><path fill="#fff" fill-opacity="0" fill-rule="evenodd" d="M144.0039 480.32813V311.67188h71.01173v98.3125l-4.23829 3.76953 4.23828 4.32421 4.34766-4.32421-4.34766-3.76954v-98.3125h31.06641V406.875l-1.35547 2.4414-3.08203 2.48048-4.4375-.03125-1.3164 1.98828-.9375 4.4375-2.1875.8828-3.60938 3.5547-.82813 2.0078-2.3828 2.4336 2.3828 2.39844 4.4375 1.77734.14063.26172 4.30078 4.16797 4.03125-4.16797.40625-.58203 2.61328.58203 1.82422 1.4375 4.4375-.41797 1.27344-1.01953 3.16406-.51172 4.4414-1.1953 2.7461-2.73048.22656-4.4414-2.97265-2.83594-4.4414.3711-4.4375-.10157-4.4375.65625-4.4375-1.01953-2.09376-1.50781 2.09375-2.39063 2.83203-2.04687 1.60547-2.23829 1.35156-2.19921-1.35156-2.44141v-95.20313h62.13672v98.62891l-3.70703 3.45313-.73047 3.7578-.49219.6797-3.94531 1.76562-4.4414-.98047-.84376-.78515-3.59375-3.32813-3.70703 3.32813-.73047 4.28906-.09375.14844.09375.0703 1.54297 4.3711 2.35938 4.4375.53515.63281 1.26172-.6328 3.17578-.4336 4.19532.4336.24609.08593.28516-.08594 4.15234-.58984 2.90625-3.84766-2.90625-3.10937-1.5586-1.33203 1.5586-3.85157 4.4375.56641 4.4375 2.8164 3.4336-3.96874-1.8125-4.4375-1.6211-2.64844-4.4375-.80469v-98.6289h17.7539V456.5l-2.77734 1.63672 2.77735 1.875 1.6328-1.875-1.6328-1.63672V311.67187h8.875v107.85938l-1.55079 3.09766 1.55079 1.54296 1.60937-1.54296-1.60937-3.09766V311.67187h57.69921v158.89454l-.74218.88671.74219 1.08594 2.1328-1.08594-2.1328-.88671V311.67187h13.3164v140.54297l-1.92969 1.48438-2.5078 3.58984-.58985.84766.58984.6211 4.4375 1.625 2.52344 2.1914-1.05078 4.4414 1.86328 4.4375 1.10156.91016 1.03906-.91015 3.39844-1.88672 2.39844-2.55079 2.04297-2.41015 4.4375 1.33984 3.48828-3.3711-3.48828-3.41796-4.4375 1.41016-4.4414-1.48438-1.51173-.94531-2.92578-2.79297-2.5586-1.64453-1.8789-1.48438V311.67188h13.3164v132.1328l-.32421 1.01563.32422.21875.42969-.21875-.4297-1.01562V311.67188h26.62891v146.54687l-4.4375 2.02344-4.38671 2.33203 3.35156 4.4414 1.03515.9375.75782-.9375 3.67968-1.51953 2.88672-2.92187-2.88672-4.35547V311.67187h22.1875v150.15625l-.74609.7461.7461.8164v6.125l-4.4336-.34375-1.90234 2.28125.21875 4.4375 1.68359 3.14844 4.4336-1.54297v2.83204H144.0039"/></g><path fill="#50fcfc" fill-rule="evenodd" d="M215.01563 418.07813l-4.23829-4.32422 4.23828-3.76954v1.60938l-2.42968 2.16016 2.42969 2.47656 2.48828-2.47656-2.48828-2.16016v-1.60938l4.34765 3.76954-4.34766 4.32421"/><path fill="#00e8fc" fill-rule="evenodd" d="M215.01563 416.23047l-2.4297-2.47656 2.4297-2.16016 2.48828 2.16016-2.48828 2.47656"/><path fill="#50fcfc" fill-rule="evenodd" d="M228.32813 429.46875l-2.38282-2.39844 2.38281-2.4336.82813-2.0078 3.60938-3.5547 2.1875-.8828.9375-4.4375 1.3164-1.98829v7.23047l-4.4414 1.40235L230.5 422.6289l-1.44922 4.4414 3.71484 2.36719 1.08594 2.07031 3.35547 3.25 3.14063-3.25 1.29687-1.86328 4.4375-.5625 4.4375.98438 4.4375-.11329 4.4414-2.71484.17188-.16797.28516-4.4414-.45703-.4336-2.3164.4336-2.125.2539-4.4375-.04297-4.4375 1.86329-3.21095-2.07422-1.22656-.46485-4.4375-3.16797v-7.23046l4.4375.03125 3.08203-2.48047 1.35547-2.44141 1.35156 2.4414-1.35156 2.19923-1.60547 2.23828-2.83203 2.04687-2.09375 2.39063 2.09375 1.5078 4.4375 1.01954 4.4375-.65625 4.4375.10156 4.4414-.3711 2.97266 2.83595-.22656 4.4414-2.7461 2.73047-4.4414 1.19531-3.16406.51172-1.27344 1.01953-4.4375.41797-1.82422-1.4375-2.61328-.58203-.40625.58203-4.03125 4.16797-4.30078-4.16797-.14063-.26172-4.4375-1.77734"/><path fill="#00e8fc" fill-rule="evenodd" d="M232.76563 429.4375l-3.71485-2.36719 1.44922-4.4414 2.26563-2.23047v2.20703l-.02344.02344.02344.23437.41796 4.20703 2.25 4.4375 1.77344 1.71485 1.66016-1.71485 2.77734-3.9961 1.0625-.4414-1.0625-.84375-4.4375-3.30469-4.10547-.29296-.33594-.02344v-2.20703l4.44141-1.40235 4.4375 3.16797 1.22656.46485 3.21094 2.07421 4.4375-1.86328 4.4375.04297v2.51563l-4.4375 1.65625-.01953.01562.01953.00781 4.4375 1.14063 1.8164-1.14844-1.8164-1.67187v-2.51563l2.125-.2539 2.3164-.4336.45704.4336-.28516 4.4414-.17187.16797-4.4414 2.71485-4.4375.11328-4.4375-.98438-4.4375.5625-1.29688 1.86328-3.14063 3.25-3.35547-3.25-1.08594-2.07031"/><path fill="#00d4fc" fill-rule="evenodd" d="M232.76563 422.86328l-.02344-.23437.02344-.02344.33593.02344 4.10547.29296v1.9961l-2.08984 2.15234 1.89844 4.4375.1914.1836.17578-.1836 2.38281-4.4375-2.55859-2.15234v-1.9961l4.4375 3.3047 1.0625.84374-1.0625.4414-2.77734 3.9961-1.66016 1.71485-1.77344-1.71485-2.25-4.4375-.41797-4.20703"/><path fill="#00c4fc" fill-rule="evenodd" d="M237.01563 431.50781l-1.89844-4.4375 2.08984-2.15234v1.99219l-.15234.16015.15234.36328.1836-.36328-.1836-.16015v-1.9922l2.5586 2.15235-2.38282 4.4375-.17578.1836-.1914-.1836"/><path fill="#00b8fc" fill-rule="evenodd" d="M237.20703 427.4336l-.15234-.36329.15234-.16015.1836.16015-.1836.36328"/><path fill="#00d4fc" fill-rule="evenodd" d="M250.51953 427.07813l-.01953-.00782.01953-.01562 4.4375-1.65625 1.8164 1.67187-1.8164 1.14844-4.4375-1.14063"/><path fill="#50fcfc" fill-rule="evenodd" d="M286.02734 422.69922l-.09375-.07031.09375-.14844.73047-4.28906 3.70703-3.32813v2.1875l-1.26953 1.14063-1.71875 4.4375 2.42188 4.4414.5664.9375 4.4375 1.17969 4.44141.82031 4.4375-2.13281.60938-.80469-.60938-.65234-4.4336-3.78906-.0039-.00391-4.4414-1.45703-3.20704-2.97656-1.23047-1.14063v-2.1875l3.59375 3.32813.84375.78515 4.44141.98047 3.94531-1.76562.49219-.6797.73047-3.7578 3.70703-3.45313v1.4961l-2.10156 1.95703 2.10156 2.78906 1.67969 1.64844 2.75781 2.21875 1.92188-2.21875-1.92188-2.98829-1.41797-1.44921-3.01953-1.95704v-1.49609l4.4375.80469 1.6211 2.64844 1.8125 4.4375-3.4336 3.96875-4.4375-2.81641-4.4375-.5664-1.5586 3.85156 1.5586 1.33203 2.90625 3.10937-2.90625 3.84766-4.15234.58984-.28516.08594-.2461-.08594-4.1953-.4336-3.17579.4336-1.26172.63281-.53515-.6328-2.35938-4.4375-1.54297-4.3711"/><path fill="#00e8fc" fill-rule="evenodd" d="M289.89844 427.07031l-2.42188-4.4414 1.71875-4.4375 1.26953-1.14063v4.48828l-.54687 1.08985.54687.92578 1.20704-.92578-1.20704-1.08985v-4.48828l1.23047 1.14063 3.20703 2.97656 4.44141 1.45703v3.82422l-1.47656.6211 1.47656.41015.71484-.41016-.71484-.6211V422.625l.0039.0039 4.4336 3.78907.60938.65234-.60938.80469-4.4375 2.13281-4.4414-.82031-4.4375-1.17969-.56641-.9375"/><path fill="#00d4fc" fill-rule="evenodd" d="M290.46484 423.55469l-.54687-.92578.54687-1.08985 1.20704 1.08985-1.20704.92578m8.87891 3.92578l-1.47656-.41016 1.47656-.6211.71484.6211-.71484.41016"/><path fill="#00e8fc" fill-rule="evenodd" d="M308.21875 416.54297l-2.10156-2.78906 2.10156-1.95704 3.01953 1.95704 1.41797 1.44921 1.92188 2.98829-1.92188 2.21875-2.75781-2.21875-1.67969-1.64844"/><path fill="#50fcfc" fill-rule="evenodd" d="M325.97266 460.01172l-2.77735-1.875 2.77735-1.63672 1.6328 1.63672-1.6328 1.875m8.875-35.83985l-1.55079-1.54296 1.55079-3.09766 1.60937 3.09766-1.60937 1.54296m57.69921 48.3672l-.74218-1.08594.74219-.88672 2.1328.88671-2.1328 1.08594m8.8789-13.78125l-.58984-.6211.58984-.84765 2.50781-3.58984 1.9297-1.48438 1.8789 1.48438 2.5586 1.64453 2.92577 2.79297 1.51172.94531v2.36328l-1.98437 1.1289 1.98437 2.95704 2.27735-2.95703-2.27735-1.1289v-2.36329l4.4414 1.48438 4.4375-1.41016v1.625l-3.14843 1.79297 3.14844 1.76953 1.82812-1.76953-1.82812-1.79297v-1.625l3.48828 3.41797-3.48828 3.3711-4.4375-1.33985-2.04297 2.41015-2.39844 2.55079-3.39844 1.88671-1.03906.91016-1.10156-.91015-1.86328-4.4375 1.05078-4.44141-2.52344-2.1914-4.4375-1.625"/><path fill="#00e8fc" fill-rule="evenodd" d="M414.73828 465.53125l-1.98437-2.95703 1.98437-1.1289 2.27735 1.1289-2.27735 2.95703"/><path fill="#50fcfc" fill-rule="evenodd" d="M419.17969 445.03906l-.32422-.21875.32422-1.01562.42969 1.01562-.4297.21875"/><path fill="#00e8fc" fill-rule="evenodd" d="M423.61719 464.34375l-3.14844-1.76953 3.14844-1.79297 1.82812 1.79297-1.82812 1.76953"/><path fill="#50fcfc" fill-rule="evenodd" d="M440.33594 467.01563l-3.35156-4.44141 4.38671-2.33203 4.4375-2.02344v3.50781L444 462.57422l1.8086.57031.5625-.57031-.5625-.84766v-3.50781l2.88671 4.35547-2.88672 2.92187-3.67968 1.51954-.75782.9375-1.03515-.9375"/><path fill="#00e8fc" fill-rule="evenodd" d="M445.8086 463.14453L444 462.57422l1.8086-.84766.5625.84766-.5625.57031"/><path fill="#50fcfc" fill-rule="evenodd" d="M461.8789 475.89063l-.21874-4.4375 1.90234-2.28125 4.4336.34375v7.98046l-4.4336 1.54297-1.6836-3.14844m6.1172-12.5l-.7461-.8164.7461-.7461v1.5625m0 6.125v7.98047H468v-7.98046h-.0039"/><path fill="#fff" fill-opacity="0" fill-rule="evenodd" d="M467.9961 463.39063v6.125H468v-6.1211l-.0039-.0039"/><path fill="#50fcfc" fill-rule="evenodd" d="M467.9961 461.82813v1.5625l.0039.0039v-1.57031l-.0039.0039"/><g clip-path="url(#c)"><path fill="#fff" fill-opacity="0" fill-rule="evenodd" d="M467.9961 311.67188H468v150.15234-150.15235h-.0039"/></g><g clip-path="url(#d)"><path fill="none" stroke="#000" stroke-linecap="round" stroke-linejoin="round" stroke-miterlimit="10" stroke-width=".5" d="M145.4961 477.14844l-2.9922 6.35937"/></g><path fill="none" stroke="#000" stroke-linecap="round" stroke-linejoin="round" stroke-miterlimit="10" stroke-width=".5" d="M145.0625 478.07422l1.22266-.0586"/><g clip-path="url(#e)"><path fill="none" stroke="#000" stroke-linecap="round" stroke-linejoin="round" stroke-miterlimit="10" stroke-width=".5" d="M159.54297 477.61328l-4.45703 5.4336"/></g><path fill="none" stroke="#000" stroke-linecap="round" stroke-linejoin="round" stroke-miterlimit="10" stroke-width=".5" d="M158.89453 478.40234l1.20313.2422"/><g clip-path="url(#f)"><path fill="none" stroke="#000" stroke-linecap="round" stroke-linejoin="round" stroke-miterlimit="10" stroke-width=".5" d="M173.14063 477.8711l-5.01954 4.91406"/></g><path fill="none" stroke="#000" stroke-linecap="round" stroke-linejoin="round" stroke-miterlimit="10" stroke-width=".5" d="M172.41016 478.58594l1.16797.3711"/><g clip-path="url(#g)"><path fill="none" stroke="#000" stroke-linecap="round" stroke-linejoin="round" stroke-miterlimit="10" stroke-width=".5" d="M186.72656 478.1836l-5.5625 4.28906"/></g><path fill="none" stroke="#000" stroke-linecap="round" stroke-linejoin="round" stroke-miterlimit="10" stroke-width=".5" d="M185.91797 478.8086l1.11719.5039"/><g clip-path="url(#h)"><path fill="none" stroke="#000" stroke-linecap="round" stroke-linejoin="round" stroke-miterlimit="10" stroke-width=".5" d="M199.95703 478.07813l-5.39453 4.5"/></g><path fill="none" stroke="#000" stroke-linecap="round" stroke-linejoin="round" stroke-miterlimit="10" stroke-width=".5" d="M199.17188 478.73438l1.13671.46093"/><g clip-path="url(#i)"><path fill="none" stroke="#000" stroke-linecap="round" stroke-linejoin="round" stroke-miterlimit="10" stroke-width=".5" d="M213.27344 478.07813l-5.39453 4.5039"/></g><path fill="none" stroke="#000" stroke-linecap="round" stroke-linejoin="round" stroke-miterlimit="10" stroke-width=".5" d="M212.48828 478.73047l1.13672.46484"/><g clip-path="url(#j)"><path fill="none" stroke="#000" stroke-linecap="round" stroke-linejoin="round" stroke-miterlimit="10" stroke-width=".5" d="M227.22266 479.21875l-6.66407 2.22266"/></g><g clip-path="url(#k)"><path fill="none" stroke="#000" stroke-linecap="round" stroke-linejoin="round" stroke-miterlimit="10" stroke-width=".5" d="M226.2539 479.53906l.89063.84766"/></g><g clip-path="url(#l)"><path fill="none" stroke="#000" stroke-linecap="round" stroke-linejoin="round" stroke-miterlimit="10" stroke-width=".5" d="M240.71875 480.375l-7.02734-.09375"/></g><g clip-path="url(#m)"><path fill="none" stroke="#000" stroke-linecap="round" stroke-linejoin="round" stroke-miterlimit="10" stroke-width=".5" d="M239.69531 480.36328l.5625 1.08985"/></g><g clip-path="url(#n)"><path fill="none" stroke="#000" stroke-linecap="round" stroke-linejoin="round" stroke-miterlimit="10" stroke-width=".5" d="M254.03516 480.28516l-7.02735.08593"/></g><g clip-path="url(#o)"><path fill="none" stroke="#000" stroke-linecap="round" stroke-linejoin="round" stroke-miterlimit="10" stroke-width=".5" d="M253.01172 480.29688l.58984 1.07812"/></g><g clip-path="url(#p)"><path fill="none" stroke="#000" stroke-linecap="round" stroke-linejoin="round" stroke-miterlimit="10" stroke-width=".5" d="M267.34375 480.14063l-7.01563.3789"/></g><g clip-path="url(#q)"><path fill="none" stroke="#000" stroke-linecap="round" stroke-linejoin="round" stroke-miterlimit="10" stroke-width=".5" d="M266.32422 480.19531l.63281 1.05078"/></g><g clip-path="url(#r)"><path fill="none" stroke="#000" stroke-linecap="round" stroke-linejoin="round" stroke-miterlimit="10" stroke-width=".5" d="M280.64453 480.70703l-6.98828-.75781"/></g><g clip-path="url(#s)"><path fill="none" stroke="#000" stroke-linecap="round" stroke-linejoin="round" stroke-miterlimit="10" stroke-width=".5" d="M279.6289 480.59766l.45313 1.14062"/></g><g clip-path="url(#t)"><path fill="none" stroke="#000" stroke-linecap="round" stroke-linejoin="round" stroke-miterlimit="10" stroke-width=".5" d="M293.92969 480.90625L287 479.75"/></g><g clip-path="url(#u)"><path fill="none" stroke="#000" stroke-linecap="round" stroke-linejoin="round" stroke-miterlimit="10" stroke-width=".5" d="M292.92188 480.73828l.39062 1.16406"/></g><g clip-path="url(#v)"><path fill="none" stroke="#000" stroke-linecap="round" stroke-linejoin="round" stroke-miterlimit="10" stroke-width=".5" d="M307.29297 480.32813h-7.02735"/></g><g clip-path="url(#w)"><path fill="none" stroke="#000" stroke-linecap="round" stroke-linejoin="round" stroke-miterlimit="10" stroke-width=".5" d="M307.29297 480.32813l1.15234 2.16796"/></g><g clip-path="url(#x)"><path fill="none" stroke="#000" stroke-linecap="round" stroke-linejoin="round" stroke-miterlimit="10" stroke-width=".5" d="M320.60156 480.11719l-7.01172.42578"/></g><g clip-path="url(#y)"><path fill="none" stroke="#000" stroke-linecap="round" stroke-linejoin="round" stroke-miterlimit="10" stroke-width=".5" d="M320.60156 480.11719l1.28125 2.09375"/></g><g clip-path="url(#z)"><path fill="none" stroke="#000" stroke-linecap="round" stroke-linejoin="round" stroke-miterlimit="10" stroke-width=".5" d="M333.91016 480.625l-7-.59375"/></g><g clip-path="url(#A)"><path fill="none" stroke="#000" stroke-linecap="round" stroke-linejoin="round" stroke-miterlimit="10" stroke-width=".5" d="M332.89453 480.53906l.48047 1.1289"/></g><g clip-path="url(#B)"><path fill="none" stroke="#000" stroke-linecap="round" stroke-linejoin="round" stroke-miterlimit="10" stroke-width=".5" d="M347.16016 481.07813l-6.8672-1.4961"/></g><g clip-path="url(#C)"><path fill="none" stroke="#000" stroke-linecap="round" stroke-linejoin="round" stroke-miterlimit="10" stroke-width=".5" d="M359.52734 482.8125l-4.96875-4.96875"/></g><g clip-path="url(#D)"><path fill="none" stroke="#000" stroke-linecap="round" stroke-linejoin="round" stroke-miterlimit="10" stroke-width=".5" d="M370.9414 483.79297l-1.16796-6.92969"/></g><g clip-path="url(#E)"><path fill="none" stroke="#000" stroke-linecap="round" stroke-linejoin="round" stroke-miterlimit="10" stroke-width=".5" d="M380.8789 478.19922l5.58594 4.26172"/></g><path fill="none" stroke="#000" stroke-linecap="round" stroke-linejoin="round" stroke-miterlimit="10" stroke-width=".5" d="M381.6914 478.8164l.19923-1.21093"/><g clip-path="url(#F)"><path fill="none" stroke="#000" stroke-linecap="round" stroke-linejoin="round" stroke-miterlimit="10" stroke-width=".5" d="M393.47656 480.48047l7.01953-.30469"/></g><g clip-path="url(#G)"><path fill="none" stroke="#000" stroke-linecap="round" stroke-linejoin="round" stroke-miterlimit="10" stroke-width=".5" d="M394.4961 480.4375l-.6211-1.0586"/></g><g clip-path="url(#H)"><path fill="none" stroke="#000" stroke-linecap="round" stroke-linejoin="round" stroke-miterlimit="10" stroke-width=".5" d="M407.71875 482.71094l5.16797-4.76172"/></g><g clip-path="url(#I)"><path fill="none" stroke="#000" stroke-linecap="round" stroke-linejoin="round" stroke-miterlimit="10" stroke-width=".5" d="M426.7539 481.91406l-6.27343-3.16797"/></g><g clip-path="url(#J)"><path fill="none" stroke="#000" stroke-linecap="round" stroke-linejoin="round" stroke-miterlimit="10" stroke-width=".5" d="M440.44531 480.35156l-7.02734-.04687"/></g><g clip-path="url(#K)"><path fill="none" stroke="#000" stroke-linecap="round" stroke-linejoin="round" stroke-miterlimit="10" stroke-width=".5" d="M439.42188 480.34375l.5703 1.08984"/></g><g clip-path="url(#L)"><path fill="none" stroke="#000" stroke-linecap="round" stroke-linejoin="round" stroke-miterlimit="10" stroke-width=".5" d="M453.60156 479.28125l-6.70703 2.09375"/></g><g clip-path="url(#M)"><path fill="none" stroke="#000" stroke-linecap="round" stroke-linejoin="round" stroke-miterlimit="10" stroke-width=".5" d="M452.625 479.58594l.8711.86328"/></g><g clip-path="url(#N)"><path fill="none" stroke="#000" stroke-linecap="round" stroke-linejoin="round" stroke-miterlimit="10" stroke-width=".5" d="M467.02734 480.89844l-6.93359-1.14063"/></g><g clip-path="url(#O)"><path fill="none" stroke="#000" stroke-linecap="round" stroke-linejoin="round" stroke-miterlimit="10" stroke-width=".5" d="M466.01953 480.73047l.39453 1.16406"/></g><g clip-path="url(#P)"><path fill="none" stroke="#000" stroke-linecap="round" stroke-linejoin="round" stroke-miterlimit="10" stroke-width=".5" d="M145.16406 463.69922l-2.32812 6.6289"/></g><path fill="none" stroke="#000" stroke-linecap="round" stroke-linejoin="round" stroke-miterlimit="10" stroke-width=".5" d="M144.82813 464.66406l1.21093-.1836m14.10938.45313l-5.66406 4.16016m4.83984-3.55469l1.10547.53125m13.17187-.92969l-5.9414 3.7461m5.07812-3.20313l1.0625.60938m13.14844-1.10156l-6.00781 3.64453m5.1328-3.11719l1.0547.6289m13.13672-1.15234l-6.01172 3.63672m5.13672-3.10547l1.05468.6289m13.0039-1.36327l-5.74608 4.04297m4.91015-3.45313l1.09375.55469M226.76953 465l-5.75781 4.02734m4.92187-3.4414l1.08985.5586m13.58203-.00782l-6.80078 1.7539m19.65234-2.80468l-5.875 3.85547m19.4414-3.40235l-6.375 2.94922m5.44923-2.51953l.97656.74219m13.58203.51562l-7.01172-.42578m5.99219.36328l.51172 1.11719m13.73437-.44922l-6.83593-1.63672m5.83984 1.39844l.3086 1.1875m14.09765-1.89063l-7.02344.2461m6-.21094l.61328 1.0625M320.5 466.15234l-6.8086 1.72266m5.82032-1.47266l.82422.90625m13.30078-1.6914l-6.44922 2.79297m5.50781-2.38672l.96094.76562m10.8789-3.19531l-1.61718 6.83984m12.47656-.3164l3.29297-6.20703m9.59375 5.9375l4.15234-5.66797m7.73438 3.10937l7.00781-.55078m-5.98828.46875l-.66016-1.03516m13.88282 3.23047l5.15234-4.77734m-5.15234 4.77734l-2.31641-.80468m16.42578 1.4453l3.5625-6.05859m-3.5625 6.0586l-2.44922-.10547m20.63282-1.2461l-6.17188-3.35546m5.27344 2.86718l-.01172 1.22657m14.1875-.67188l-6.09766-3.48828m5.21094 2.98047l-.03906 1.22656m13.3789-5.21094l-4.375 5.4961m4.375-5.4961l2.41407.44532m10.21484-.875l-3.0039 6.35547m2.5664-5.4297l1.22656-.05859"/><g clip-path="url(#Q)"><path fill="none" stroke="#000" stroke-linecap="round" stroke-linejoin="round" stroke-miterlimit="10" stroke-width=".5" d="M147.10547 452.05469l-6.21094 3.28906"/></g><path fill="none" stroke="#000" stroke-linecap="round" stroke-linejoin="round" stroke-miterlimit="10" stroke-width=".5" d="M146.20313 452.53516l1.01562.6875m13.42578-.64453l-6.66016 2.24218m5.69141-1.91797l.89063.84375m13.5-.78906l-6.8711 1.48438m5.8711-1.26954l.78906.9375m13.55078-1.01562l-6.92188 1.21094m6.92188-1.21094l1.50781 1.9336m11.72656-2.28126l-6.76171 1.90625m5.77734-1.6289l.85156.88672m13.41797-1.27344l-6.69922 2.1211m5.72266-1.8125l.8789.85937m13.45704-1.01172l-6.78907 1.8086m5.80078-1.54298l.83594.89844m13.38672-1.42187l-6.6289 2.32421m5.66406-1.98437l.90234.83203m11.07031-3.375l-2.01172 6.73438m17.34375-5.16016l-6.04687 3.58203m19.80078-1.20312l-6.92578-1.17578m5.91797 1.0078l.38672 1.16407m13.75781-.33594l-6.57031-2.4961m5.61328 2.13282l.15625 1.21875m14.09375-.79687l-6.52344-2.60938m5.57422 2.22656l.13281 1.22266m14.375-2.36719l-7.01172.44531m5.9922-.3828l.64452 1.04687m13.39063-2.32422l-6.41407 2.8711m5.48047-2.45313l.96875.7539m13.13282-1.46093l-6.1211 3.44921m5.23047-2.9453l1.03516.66015m12.53515-1.98047l-4.84765 5.08594m4.14453-4.34766l1.17969.33203m8.58984 4.47266l3.65234-6m-3.12109 5.1289l-1.22656-.07421m12.8711-.16797l5.92577-3.77735m-5.0625 3.23047l-1.0664-.60547m13.11328.26563l6.73828-2m-6.73828 2l-1.71875-1.75m16.08984 3.39453l4.6289-5.28906m-4.6289 5.28906l-2.39062-.5625m3.0625-.20703l-1.19532-.28125m16.07032 1.91797l.16015-7.02344m-.16015 7.02344l-2.19141 1.10156m18.23437-2.30078l-5.29296-4.625m5.29296 4.625l-.55859 2.38672m13.73047-2.23438l-5.00781-4.92968m5.00781 4.92968l-.69922 2.35157m-.02734-3.07032l-.35157 1.17578m14.46485-.53515l-5.15235-4.77735m5.15235 4.77735l-.625 2.375"/><g clip-path="url(#R)"><path fill="none" stroke="#000" stroke-linecap="round" stroke-linejoin="round" stroke-miterlimit="10" stroke-width=".5" d="M147.51172 440.32031l-7.02344.125"/></g><path fill="none" stroke="#000" stroke-linecap="round" stroke-linejoin="round" stroke-miterlimit="10" stroke-width=".5" d="M146.49219 440.33984l.59375 1.07032m13.57422-2.09766l-6.69141 2.14063m5.71875-1.82813l.8789.85547m13.34766-1.34375l-6.57031 2.49219m5.61719-2.12891l.92187.8086m13.35156-1.16016l-6.57812 2.47265m5.6211-2.11328l.92187.8086m12.97656-1.89063l-5.83203 3.91797m4.98438-3.34766l1.08203.57813m13.33203-.71485l-6.33203 3.04688m5.41015-2.60156l.98828.72265m13.23828-1.1875l-6.3125 3.08985m5.39454-2.64063l.99218.71875m12.96485-1.63672l-5.76172 4.02344m4.92187-3.4375l1.09375.5586m13.25-.84376l-6.13672 3.42579m5.2422-2.9297l1.03124.66407m12.3164-2.1836l-4.41405 5.46876m3.76953-4.67188l1.20703.23047m13.1914-.60156l-5.29296 4.61719m4.52343-3.94532l1.14844.4375m13.4414-.35547l-6.30077 3.10938m5.3828-2.65625l.9961.71484m13.41797-.73047L300.44922 441.5m5.6914-1.91016l.89454.84375m13.5664-.2539l-7.01172.41015m5.9922-.35156l.64062 1.04688m13.67968-.4961l-6.98046-.8086m5.96484.69141l.44531 1.14063m12.33203-4.35938l-3.875 5.86329m3.3086-5.01172l1.22265.11718m13.66797.05079l-5.89453 3.82421m17.61719-5.15625L369 443.625m11.26563-2.375l6.80859-1.73438M381.25782 441l-.82813-.91016M393.52734 441l6.91797-1.23047M393.52734 441l-1.51171-1.9336m14.78125 1.59376l7.0078-.55079m-7.0078.55079l-1.31641-2.07032m15.9375 4.53125l4.39844-5.47656m-4.39844 5.47656l-2.41406-.45703m3.05078-.33984l-1.20313-.22656m17.19532 1.61718l-2.23438-6.66406m2.23438 6.66406l-1.6875 1.78125m1.36328-2.75l-.84375.89063m14.39453.10547l-2.05469-6.71875m1.7539 5.74218l-.86718.8672m13.34375.26171l.22266-7.02344m-.22266 7.02344l-2.19922 1.08203"/><g clip-path="url(#S)"><path fill="none" stroke="#000" stroke-linecap="round" stroke-linejoin="round" stroke-miterlimit="10" stroke-width=".5" d="M147.4961 427.42188l-6.9922-.70704"/></g><path fill="none" stroke="#000" stroke-linecap="round" stroke-linejoin="round" stroke-miterlimit="10" stroke-width=".5" d="M146.48047 427.32031l.46094 1.13281m13.80468-2.14843l-6.85937 1.52734m5.85937-1.30469l.79688.9297M173.77344 425.5l-6.28906 3.13672m19.49609-3.33985l-6.07031 3.54297m5.1875-3.02734l1.04297.64844m13.23437-1.01953l-6.22656 3.2539m5.32031-2.78125l1.01172.6914m13.20312-1.17577l-6.21484 3.27734m5.3086-2.80078l1.01562.6914m13.38672-.76171l-6.57813 2.46484m17.91016-4.49219l-2.61328 6.52344m2.23437-5.57422l1.21875-.13281m13.58985-.10156l-4.84375 5.08984m4.14062-4.34765l1.1836.32812m11.4375 1.47656l-.01954-.20312-.05859-.1914-.09375-.17579-.46094-.375-.1914-.0586-.19922-.01952-.19922.01953-.1914.05859-.46094.375-.09375.17578-.0586.1914-.01953.20313.01953.19922.0586.1914.09375.17579.46093.375.1914.0586.19923.01952.19922-.01953.1914-.0586.46094-.375.09375-.17577.0586-.1914.01952-.19923m10.54688 3.04688l3.48828-6.09766m13.1914 6.16406l-3.24218-6.23046m12.6836 5.8125l4.5039-5.39454m12.03906 6.07422l-1.94922-6.7539m1.66797 5.76953l-.88281.85547m16.39453-5.2461l-5.78125 3.9961m4.9414-3.41407l1.08985.5625m6.95313-.54297l6.4453 2.79297m10.65235-4.86328l-1.1211 6.9336m10.3711-3.70313l7.01172.47266m6.30078-.0586l7.01563-.35547m-5.9961.3047l-.6289-1.0547m13.82812-1.42968l5.20703 4.71484m-5.20703-4.71484l.59766-2.3789m.16016 3.0664l.29687-1.1914m13.00781 5.84374l3.71485-5.96484m-3.17578 5.09765l-1.22266-.08593m13.57812.64843l4.55079-5.35547m-3.88672 4.57813l-1.19922-.26563m13.92969 1.10938l4.39453-5.48438m-4.39453 5.48438l-2.41016-.45703m3.05078-.34375l-2.41406-.45313m17.94922 1.96094l-1.32813-6.90234m1.13672 5.89843l-.95703.76954m13.1875.24218l1.22656-6.91797m-1.04687 5.91016l-1.16797.3789"/><g clip-path="url(#T)"><path fill="none" stroke="#000" stroke-linecap="round" stroke-linejoin="round" stroke-miterlimit="10" stroke-width=".5" d="M147.22656 415.14453l-6.45312-2.78125"/></g><path fill="none" stroke="#000" stroke-linecap="round" stroke-linejoin="round" stroke-miterlimit="10" stroke-width=".5" d="M146.28906 414.73828l.09766 1.22266m14.40625-1.70703l-6.95703-1m5.94531.85156l.41406 1.15625m13.64453-2.9414l-6.41797 2.86718m5.48438-2.44922l.96484.7539m13.4336-.76952l-6.71875 2.0625m6.71875-2.0625l1.73437 1.73437m11.01563-2.83594l-5.58985 4.26172m4.77735-3.64062l1.11328.51172m13.71094.58984l-6.98047.82031m5.96484-.69922l.69531 1.00782m12.66797 1.72656l-5.04687-4.89063m4.3125 4.1797l-.33985 1.17577m11.27735.55469l1.17578-6.92969m-1.0039 5.92188l-1.16407.38672m17.01563-.04297l-4.23829-5.60547m3.6211 4.79297l-.51563 1.10937m15.8086-2.60547l-6.96094-.98437m5.94531.83984l.42188 1.15235m11.32422 1.89843l-1.78907-6.79687m1.52735 5.8086l-.90235.83202m14.51172.14453l-1.85937-6.77734m1.85937 6.77735l-1.78515 1.68359m15.80859-8.17969l-3.27344 6.21875m3.27344-6.21875l2.45312-.01172m7.91797 6.38281l2.61328-6.52343m-2.61328 6.52343l-2.4414.26172m2.8203-1.21093l-1.21874.1289m12.6289-.36328l5.66407-4.15625m-4.83985 3.55078l-1.10546-.53125m13.8125-3.28906l5.23046 4.6914m-4.46875-4.0078l.29297-1.19141m11.39453 2.39062l6.96485.92578m7.45703 2.125l4.75-5.17578m8.4336.125l5.01171 4.92578m-4.28125-4.20703l.34766-1.17578m13.05078-.15625l3.38672 6.15625m-3.38672-6.15625l1.34375-2.05469m-.85156 2.94922l.67187-1.02734m13.34766-.26953l.99219 6.95703m-.9922-6.95703l1.98438-1.44532m11.53516 1.42579l.58594 7m-.58594-7l2.0625-1.33204m14.47265 2.88672l-5.85546 3.88672m5.85546-3.88672l2.15625 1.16797m10.09766-2.19922l-3.73437 5.95313m3.1914-5.08594l1.22266.08594m13.5664-.10156l-5.59375 4.25m4.78125-3.63282l1.11329.51563"/><g clip-path="url(#U)"><path fill="none" stroke="#000" stroke-linecap="round" stroke-linejoin="round" stroke-miterlimit="10" stroke-width=".5" d="M147.51172 400.57422l-7.02344-.27344"/></g><path fill="none" stroke="#000" stroke-linecap="round" stroke-linejoin="round" stroke-miterlimit="10" stroke-width=".5" d="M146.48828 400.53516l.53516 1.10546m13.64062-2.26562l-6.69922 2.125m5.72657-1.8164l.875.85937m13.30859-1.45313l-6.48828 2.69922m5.54297-2.3086l.94922.78126m12.52343-2.33203l-4.91406 5.01953m4.19922-4.28906l1.17969.34375m7.89453-1.03516l4.9961 4.9375m8.40234.08203l4.83203-5.10156m-4.1289 4.35937l-1.1836-.32421m16.71875 1.99218l-1.01563-6.95312m.86719 5.9414l-.98828.72657m17.45312-3.36329l-7.01953.34766m6-.29687l.6289 1.05078m10.65235 2.55469l-.91015-6.96875m.77734 5.95703l-1 .71093m15.91406-.24218L261.91406 397.5m3.28516 5.02344l-.58985 1.07422m15.16797-.82813l-5.2539-4.66406m4.48828 3.98828l-.28516 1.1914m12.71485.52735l-1.95313-6.75m1.95313 6.75l-1.76172 1.71094m15.91015-8.09766l-3.61718 6.02735m16.72656.11328l-3.20703-6.25391m2.73828 5.34375l-.69922 1.0039m10.67969-.48437l4.40234-5.47656m-4.40234 5.47656l-2.41016-.45703m3.05078-.33984l-1.20703-.23047m14.16016-4.65235l3.84375 5.88282m-3.28516-5.02735l.59375-1.07422m10.57422 3.28907l7.01953-.25782m-7.01953.25782l-1.23047-2.125m15.32813 4.21093l5.45703-4.42968m-5.45703 4.42968l-2.26172-.95703m3.05468.3125l-1.1289-.47656m19.70312-2.22656l-6.65234 2.26562m16.77734-4.64453l-.26953 7.02344m.26953-7.02344l2.20703-1.0664m10.38282 1.11718l1.17968 6.92578m-1.0078-5.91796l.97265-.75m11.8125-.1797l1.89453 6.76563m-1.89453-6.76562l1.77734-1.6914m9.76563 2.85155l5.4414 4.44922m-5.4414-4.44922l.48047-2.40625m19.03515 4.15625l-6.96094.94922m5.94922-.8125l.71875.9961m12.67578-3.07813l-5.09765 4.83594"/><g clip-path="url(#V)"><path fill="none" stroke="#000" stroke-linecap="round" stroke-linejoin="round" stroke-miterlimit="10" stroke-width=".5" d="M466.10938 398.01953l2.32812.77735"/></g><g clip-path="url(#W)"><path fill="none" stroke="#000" stroke-linecap="round" stroke-linejoin="round" stroke-miterlimit="10" stroke-width=".5" d="M145.67578 384.03516l-3.35156 6.17578"/></g><path fill="none" stroke="#000" stroke-linecap="round" stroke-linejoin="round" stroke-miterlimit="10" stroke-width=".5" d="M145.1875 384.9336l1.22656.01171m13.0586-.59375l-4.31641 5.54297m3.6875-4.73828l1.21094.21094m13.91406.66406l-6.67969 2.1836m5.70703-1.8672l.88672.85157m12.54688-2.5586l-4.96875 4.96875m4.96875-4.96875l2.34765.71485m7.19922-1.5039l2.5664 6.54296m-2.5664-6.54297l1.59375-1.86328m10.39063 2.78516l5.22656 4.69922m-4.46484-4.01563l.29687-1.1914m17.91016 1.09375l-6.07813 3.52734m6.07813-3.52735l2.08203 1.29688m11.42578-.91016L233.97266 388.5m5.52343-2.35156l.95703.76953m11.08985.20703l-.01953-.20313-.0586-.1914-.09375-.17578-.46093-.375-.19141-.0586-.19922-.01953-.19922.01953-.1914.0586-.45703.375-.09766.17578-.05469.1914-.01953.20313.01953.19922.05469.1914.09766.17579.45703.375.1914.05859.19922.01953.19922-.01953.1914-.0586.46094-.375.09375-.17577.0586-.19141.01953-.19922m8.96484-1.1289l6.65625 2.2539m-5.6875-1.92578l-.19922-1.21094m18.9375.28906l-6.1289 3.44141m5.23828-2.9414l1.03125.66406m12.9375 2.64453l-5.65235-4.17578m5.65235 4.17578l-.35938 2.42578m13.95313-2.86719l-6.21094-3.29297m5.30469 2.8125l.0039 1.22656m14.41407-3.59375l-6.60547 2.40235m5.64453-2.05078l.91016.82031m13.44921-.91406l-6.76953 1.88672m5.78125-1.61329l.84766.89063m11.94922-3.1875l-3.75781 5.9336m3.21093-5.07032l1.22266.09375m13.88281.39844l-6.2461 3.22265m6.2461-3.22265l2.01563 1.39844m10.92578-1.97657l-5.5 4.37891m5.5-4.3789l2.25.98046m10.1836-1.76562l-3.73438 5.95312m3.73437-5.95312l2.44531.17187m9.61329-.65625l-1.22266 6.91797m1.22266-6.91797l2.33593-.75781m10.3672.70313v7.02734m0-6.0039l1.08202-.57813m11.78125-.41406l.90625 6.96875m-.90625-6.96875l2-1.42188M437.25 383.625l-.63672 6.9961m.63672-6.9961l2.26172-.94922m-2.35547 1.96485l1.13281-.47266m11.73828-.55078l.4375 7.01172m-.4375-7.01172l2.08985-1.28516m14.72656 6.03906l-6.5664-2.49609m5.61327 2.13281l.15235 1.21875"/><g clip-path="url(#X)"><path fill="none" stroke="#000" stroke-linecap="round" stroke-linejoin="round" stroke-miterlimit="10" stroke-width=".5" d="M146.51953 371.35938l-5.03906 4.89843"/></g><path fill="none" stroke="#000" stroke-linecap="round" stroke-linejoin="round" stroke-miterlimit="10" stroke-width=".5" d="M145.78516 372.07031l1.16797.375m13.15234-.76953l-5.58203 4.26563m4.76953-3.64454l1.11719.51172m12.71875-1.46875l-5 4.9375m4.27343-4.21875l1.17188.36329m13.07031-.86329l-5.39844 4.4961m4.61328-3.83985l1.13672.46485m9.10938-2.1875l2.3125 6.63281m-1.97656-5.66797l.83203-.90234m16.01562 1.01953l-5.42578 4.46875m4.63672-3.8164l1.13281.46874m11.45313-2.1914l-2.39063 6.60937m2.04297-5.64844l1.21484-.17187m14.60157 1.44922l-6.69531 2.13281m6.6953-2.13281l1.75391 1.71484m8.60547-4.14062l-.78515 6.98437m.78515-6.98437l2.28125-.90235m12.03906 1.17188l-2.79687 6.44531m2.79688-6.44531l2.4453-.19531m-2.85156 1.1328l2.44532-.1953m12.3789.01171l-5 4.9375m4.26953-4.21875l1.17188.3672m13.5039-.21485l-6.26171 3.19531m5.34765-2.73047l1.00782.70313m13.58593.7578l-6.99609-.66015m5.98047.5664l.47265 1.13282m13.60938-.03125l-6.4961-2.67187m5.55079 2.28125l.1211 1.22265m14.29687-3.02734l-6.8125 1.71875m5.82421-1.46875l.82032.91015m12.09765-3.17578l-4.03906 5.75m3.45313-4.91406l1.21484.15235m13.90234.51562l-6.47265 2.74219m5.53125-2.34375l.95312.77344m13.33203-1.10157l-6.52734 2.60156m6.52734-2.60156l1.8711 1.58594m10.77344-2.65625l-5.1875 4.74219m4.43359-4.05078l1.15625.41015m10.94922-2.1875l-1.26563 6.91406m1.26563-6.91406l2.33984-.74219m11.76953.98829l-2.85156 6.42187m2.85156-6.42187l2.44922-.17579m10.46875.02735l-2.05469 6.71875m1.75391-5.74219l1.20703-.23437m11.27735-.89454l.20703 7.02344m-.20704-7.02344l2.13282-1.21484m12.09765 1.3086l-1.625 6.83593m1.625-6.83594l2.375-.62109m10.89063.60938l-1.52344 6.85937m1.30078-5.86328l1.1836-.32422"/><g clip-path="url(#Y)"><path fill="none" stroke="#000" stroke-linecap="round" stroke-linejoin="round" stroke-miterlimit="10" stroke-width=".5" d="M146.60938 358.14063l-5.21875 4.70703"/></g><path fill="none" stroke="#000" stroke-linecap="round" stroke-linejoin="round" stroke-miterlimit="10" stroke-width=".5" d="M146.60938 358.14063l2.30468.83593m10.58985-1.23047l-4.37891 5.4961m4.3789-5.4961l2.41407.44922m12.17187 1.6875l-6.91797 1.22266m5.91016-1.04688l.75781.96875m11.59766-3.71484l-2.98438 6.36328m2.55079-5.4375l1.22265-.0625m14.5039 1.76953l-6.9414 1.09766m5.9336-.9375l.73437.98047m13.1875-2.30078l-6.14062 3.41406m5.25-2.91797l1.02734.66797m12.61719-1.91406l-5.01563 4.91796m5.01563-4.91796l2.33984.73828m-3.07031-.02344l1.17187.3711m13.03516-.91407l-5.33984 4.57031m5.33984-4.5703l2.28516.89843m-3.0625-.23438l1.14062.44922m11.58203-2.08984l-2.60156 6.52734m2.60156-6.52734l2.4414-.26953m9.32423.02734l.5 7.00781m-.5-7.0078l2.07812-1.3047m-2.00781 2.32422l1.03906-.65234m12.55469-.375l-.19922 7.02344m.19922-7.02344l2.19531-1.08985m10.9336 1.08985l.17187 7.02344m14.83594-6.63672l-3.21094 6.25m2.74219-5.33985l1.22656-.01562m14.42969 1.73437l-6.95703.9922m5.94531-.84767l.72266.9922m13.57422-1.3125l-6.89844 1.34374m5.89453-1.14844l.77344.95313m11.86328-3.51563l-3.53125 6.07813m3.01562-5.1914l1.22657.04296m13.67187.03516l-5.66797 4.14844m4.84375-3.54297l1.10547.53515m13.58203-.02343l-6.76172 1.91406m19.44532-3.14063l-5.5 4.3711m4.69921-3.73438l1.125.48828m12.45704-1.66796l-4.4336 5.45312m3.78906-4.66016l1.20313.23829m11.84375-1.56641l-2.60938 6.52344m2.23047-5.57422l1.21875-.13281m9.72266-.75391l2.89453 6.40234m-2.47266-5.47265l.75-.96875m13.82813-.26563L436.6953 364m13.53125-7.01953l.03907 7.02734m-.03516-6.0039l1.08203-.58594m12.85938-.38281l-1.22266 6.91796m1.04687-5.91406l1.16797-.3789"/><g clip-path="url(#Z)"><path fill="none" stroke="#000" stroke-linecap="round" stroke-linejoin="round" stroke-miterlimit="10" stroke-width=".5" d="M147.20703 345.7461l-6.41406 2.86327"/></g><path fill="none" stroke="#000" stroke-linecap="round" stroke-linejoin="round" stroke-miterlimit="10" stroke-width=".5" d="M147.20703 345.7461l1.9375 1.51171m11.45703-1.3164l-6.57422 2.47656m5.6172-2.11719l.92187.8086m11.75-3.01563l-3.3711 6.16797m3.3711-6.16797l2.45312.03125m12.6836 2.85938l-7.01563.38671m7.01563-.38671l1.26953 2.10156m-2.28907-2.04297l.63282 1.04687m13.67968-1.36328l-6.96875.90235m6.96875-.90235l1.41797 2m10.04688-4.65625l-3.27344 6.21875m3.27344-6.21875l2.45312-.01172m10.90235.03125l-3.35157 6.17579m3.35157-6.17579l2.45703.02344m-2.94531.875l1.22656.01172m11.71094-1.24219l-1.6172 6.83985m1.6172-6.83985l2.37109-.6211m9.41797.60157l1.42969 6.8789m-1.4297-6.8789l1.88673-1.57031m9.72265 2.46484l4.84375 5.08985m-4.14062-4.34766l.38672-1.16406m11.1914 2.32422l6.91016 1.28515m-5.90234-1.09765l-.3711-1.17188m13.46485-.66015l5.33593 4.57421m-4.5586-3.90625l.26954-1.19921m18.2461 4.0039l-6.6172-2.3711m19.90626 2.4336l-6.56641-2.4961m6.5664 2.4961l.3086 2.4375m13.23047-3.88672l-7.01563.40625m5.9961-.34765l.63672 1.04687m12.10156-3.85156l-3.82031 5.89453m3.8203-5.89453l2.44532.21094m10.83203-.23438l-3.7461 5.9414m3.20313-5.07812l1.22266.08985m13.72656 3.90234l-5.92968-3.76953m5.0664 3.22265l-.09375 1.22266m14.66797-1.53515l-6.72266-2.04688m5.7461 1.7461l.23437 1.20702m12.33594-5.03906l-3.27734 6.21485m2.80078-5.3125l1.22656-.00391m10.47656-1.27344l.89844 6.96875m-.76953-5.95703l1-.71094m13.36719-.2539l-1.46094 6.8711m1.25-5.8711l1.17578-.33985m9.60938-.10546l4.01953 5.76171m-3.4336-4.92578l.5586-1.08984m11.76172.58594l4.83593 5.09765m-4.13281-4.35547l.39063-1.16406m12.80468-.02734l3.66797 5.9961m-3.13281-5.1211l.6211-1.0586"/><g clip-path="url(#aa)"><path fill="none" stroke="#000" stroke-linecap="round" stroke-linejoin="round" stroke-miterlimit="10" stroke-width=".5" d="M147.48828 333.42578l-6.97656.875"/></g><path fill="none" stroke="#000" stroke-linecap="round" stroke-linejoin="round" stroke-miterlimit="10" stroke-width=".5" d="M147.48828 333.42578l1.41016 2.00781m11.5664-3.1289l-6.30078 3.11328m5.38281-2.66016l.9961.71875m12.83984-1.79687l-5.5039 4.36719m5.5039-4.3672l2.25.98048m-3.05078-.34766l1.125.49219m13.19922-.83594l-5.92188 3.78906m5.92188-3.78906l2.13672 1.20313m10.0625-2.29688l-3.6914 5.97656m3.15624-5.10937l1.22266.08203m12.02734-1.2461l-2.49219 6.57032m2.12891-5.61328l1.21875-.15625m10.5586-.96875l1.3125 6.90625m-1.3125-6.90625l1.91015-1.53516m11.17969 1.58594l1.76172 6.80469m-1.76172-6.8047l1.8086-1.65624m10.23827 2.28125l4.30078 5.55469m-3.67578-4.7461l.50391-1.1211m11.07422 1.77735l6.51953 2.625m-5.57031-2.24219l-.1289-1.21875m14.42577-1.10156l2.66016 6.5m10.58203-6.47265l2.8086 6.4453m-2.40235-5.5078l.76563-.96094m15.8164.5625l-4.53906 5.36719m3.8789-4.58594l1.19922.25781m12.21094-1.42578l-3.41015 6.14062m16.68359-6.16796l-3.32422 6.1914m2.83984-5.28906l1.22657.0039m11.98047-1.15625l-2.14063 6.69532m1.82813-5.72266l1.20703-.21875m13.45312-.21875l-4.20703 5.625m3.59766-4.8086l1.21093.1875m13.84766 3.17188L367.11719 332.5m6.47656 2.72656l.21875 2.44531m13.07813-5.21484l-6.4375 2.8125m6.4375-2.8125l1.92187 1.52344m10.82422-2.42578l-5.30078 4.61719m4.52734-3.94532l1.14844.4375m12.57031-1.47265l-4.5625 5.34375m4.5625-5.34375l2.39453.53125m9.22657-1.32422l-1.17188 6.92969m1.17188-6.9297l2.32812-.77343m7.21875 2.7461l6.36328 2.98437m-5.4375-2.55078l-.0625-1.22656m12.32813 1.09375l6.60937 2.3828m-5.64844-2.03906l-.17187-1.21093m12.57812.72656l6.50391 2.66406m-5.55469-2.27734l-.125-1.21875"/><g clip-path="url(#ab)"><path fill="none" stroke="#000" stroke-linecap="round" stroke-linejoin="round" stroke-miterlimit="10" stroke-width=".5" d="M147.13281 318.95313l-6.26562 3.1875"/></g><path fill="none" stroke="#000" stroke-linecap="round" stroke-linejoin="round" stroke-miterlimit="10" stroke-width=".5" d="M147.13281 318.95313l2.00781 1.41015m-2.92187-.94531l1.00781.70312m12.42188-2.20312l-4.66406 5.25781m4.66406-5.25781l2.38281.57812m10.8164-.67187l-4.43359 5.44922m4.4336-5.44922l2.40625.47265m-3.05078.32032l1.20312.23437m12.2461-1.375l-3.41407 6.14063m3.41406-6.14063l2.45313.04688m-2.94922.84765l1.22656.02344m11.27735-1.33594l-.80078 6.98047m.80078-6.98047l2.28515-.89843m9.36719 1.10937l2.52344 6.5586m-2.52344-6.5586l1.60938-1.85547m10.84765 2.33203l4.24219 5.60157m-4.24219-5.60157l1.03125-2.22656m12.8164 1.89453l3.17579 6.26953m-3.17578-6.26953l1.41406-2.00781m15.34375 2.16016l-3.71094 5.96484m3.17188-5.09766l1.22656.08204m12.01172 5.3203l-2.47656-6.57812m2.11328 5.6211l-.8086.92187m13.51563-6.75781l-.53516 7.00781m.45703-5.98828l1.125-.49219m13.66797-.11719l-3.33203 6.1875m2.84766-5.28515l1.22656.0039m9.5586-1.05468l2.6953 6.48828m-2.30468-5.54688l.78125-.9453m11.45703.3828l4.0664 5.73047m-4.0664-5.73047l1.10156-2.1953m11.0664 6.54687l6.36329-2.97657m-5.4375 2.54688l-.98438-.73828m13.25782-1.53125l6.59375 2.42187m6.77343-2.5586l6.48829 2.69532m-5.54297-2.30078l-.11719-1.22266m19.14062 1.32813l-6.8203 1.69531m20.23827-.82422l-7.02734-.04297m6.00781.03516l.5664 1.08594m13.32423-2.8125l-6.13672 3.42187m5.2461-2.92187L400.1914 320m10.67968-2.91797l-1.14062 6.9336m.97656-5.92579l1.16016-.39453m11.75-.66015v7.02734m0-7.02734l2.16406-1.15235m-2.16406 2.17578l1.08203-.57812m10.91797-.1914l2.6289 6.51952m-2.6289-6.51953l1.57812-1.8789m9.60547 5.8164l6.89453-1.35937m-5.89453 1.16406l-.77344-.95313m16.10157-3.01562l.86328 6.97266"/><path fill="#00f" fill-rule="evenodd" d="M454.8125 476.52344h8.6211V466.3789h-8.6211v10.14453"/><path fill="azure" fill-rule="evenodd" d="M456.64844 468.21094h.83203v2.82422h3.28515v-2.82422h.83204v6.48047h-.83204v-2.91407h-3.28515v2.91407h-.83203v-6.48047"/><path fill="#00f" fill-rule="evenodd" d="M241.77344 472.08594h8.61719V461.9414h-8.6172v10.14453"/><path fill="azure" fill-rule="evenodd" d="M243.60547 463.77344h.83203v2.82422h3.28906v-2.82422h.83203v6.48047h-.83203v-2.91797h-3.28906v2.91797h-.83203v-6.48047"/><path fill="#00f" fill-rule="evenodd" d="M401.55469 467.64844h8.61719V457.5039h-8.6172v10.14453"/><path fill="azure" fill-rule="evenodd" d="M403.38672 459.33594h.83203v2.82422h3.28906v-2.82422h.83203v6.48047h-.83203v-2.91797h-3.28906v2.91797h-.83203v-6.48047"/><path fill="#00f" fill-rule="evenodd" d="M286.15625 432.14063h8.61719v-10.14454h-8.61719v10.14454"/><path fill="azure" fill-rule="evenodd" d="M287.98828 423.82813h.83594v2.82421h3.28515v-2.82421h.83204v6.48046h-.83204v-2.91796h-3.28515v2.91796h-.83594v-6.48046"/><path fill="#00f" fill-rule="evenodd" d="M148.5664 418.82813h8.6211v-10.14844h-8.6211v10.14844"/><path fill="azure" fill-rule="evenodd" d="M150.40234 410.51172h.83203v2.82422h3.28516v-2.82422h.83203v6.48047h-.83203v-2.91406h-3.28516v2.91406h-.83203v-6.48047"/><path fill="#00f" fill-rule="evenodd" d="M228.45703 418.82813h8.6211v-10.14844h-8.6211v10.14844"/><path fill="azure" fill-rule="evenodd" d="M230.28906 410.51172h.83594v2.82422h3.28516v-2.82422h.83203v6.48047h-.83203v-2.91406H231.125v2.91406h-.83594v-6.48047"/><path fill="#ff3030" fill-rule="evenodd" d="M326.79688 378.88281h7.6914v-10.14844h-7.6914v10.14844"/><path fill="azure" fill-rule="evenodd" d="M328.6289 370.5664h.83204v5.7422h3.19531v.73827h-4.02734v-6.48046"/><path fill="#ff3030" fill-rule="evenodd" d="M198.08203 365.5664h7.69531v-10.14452h-7.6953v10.14453"/><path fill="azure" fill-rule="evenodd" d="M199.91797 357.2539h.83203v5.73829h3.19531v.74219h-4.02734v-6.48047"/><path fill="#ffffe0" fill-rule="evenodd" d="M181.96484 381.375h22.1797v-10.1914h-22.1797v10.1914"/><path fill-rule="evenodd" d="M185.46094 373.01563h.51172v6.29687h-.78907v-4.49219h-1.38672v-.55469l.5586-.0625.2539-.05468.22657-.08985.20703-.14062.17187-.21094.14063-.29687.10547-.39454m4.8164 0l.22657.01954.21875.05468.21093.08985.19532.1211.18359.14843.17188.17578.30078.42188.24609.49218.17969.54688.10937.57812.03906.59375-.03906.59375-.10937.58203-.17969.5547-.2461.5-.30077.42968-.17188.17969-.1836.15234-.1953.125-.21094.08984-.21875.0586-.22657.01953-.23047-.01953-.21875-.0586-.20703-.08984-.19922-.125-.18359-.15234-.17187-.1797-.30078-.42968-.2422-.5-.17968-.55469-.11328-.58203-.03906-.59375h.83593l.02735.5625.08203.5039.125.44532.16406.375.1914.30078.21095.21875.22265.13672.22656.04688.22657-.04688.22265-.13672.21094-.21875.1875-.30078.16406-.375.125-.44531.08203-.5039.03125-.5625-.03125-.5625-.08203-.5-.125-.4375-.16406-.36329-.1875-.29297-.21094-.21484-.22265-.13281-.22657-.04297-.22656.04297-.22266.1328-.21093.21485-.1914.29297-.16407.36328-.125.4375-.08203.5-.02735.5625h-.83593l.03906-.59375.11328-.57812.17969-.54688.24219-.49219.30078-.42187.17187-.17578.1836-.14844.19921-.1211.20703-.08984.21875-.05468.23047-.01954m4.95313 0l.22656.01954.21875.05468.21094.08985.19531.1211.1836.14843.17187.17578.30078.42188.24219.49218.17969.54688.11328.57812.03906.59375-.03906.59375-.11328.58203-.1797.5547-.24218.5-.30078.42968-.17188.17969-.18359.15234-.19531.125-.21094.08984-.21875.0586-.22656.01953-.23047-.01953-.21875-.0586-.20703-.08984-.19922-.125-.1836-.15234-.17187-.1797-.30078-.42968-.24219-.5-.17969-.55469-.11328-.58203-.03906-.59375h.83594l.02734.5625.08203.5039.125.44532.16407.375.1914.30078.21094.21875.22266.13672.22656.04688.22656-.04688.22266-.13672.20703-.21875.1914-.30078.16407-.375.125-.44531.08203-.5039.02734-.5625-.02734-.5625-.08203-.5-.125-.4375-.16406-.36329-.19141-.29297-.20703-.21484-.22266-.13281-.22656-.04297-.22656.04297-.22266.1328-.21094.21485-.1914.29297-.16407.36328-.125.4375-.08203.5-.02734.5625h-.83594l.03906-.59375.11328-.57812.1797-.54688.24218-.49219.30078-.42187.17188-.17578.18359-.14844.19922-.1211.20703-.08984.21875-.05468.23047-.01954m4.94922 0l.39062.02735.35547.08594.32422.1328.28125.1875.22656.23829.17578.28516.10938.33203.03516.3789-.01954.27344-.05859.23438-.08594.19921-.11328.17188-.1289.14453-.14063.1211-.28516.1953.23047.1211.21094.14453.17969.17188.15234.19531.125.21094.08984.23047.0586.24609.01562.2539-.03125.3125-.10547.32423-.17187.32421-.23828.3086-.3086.26953-.37109.21484-.21484.07813-.22656.0625-.2461.03906-.25781.01172-.26172-.01172-.24219-.03906-.22265-.0625-.20703-.07813-.35938-.21484-.28906-.26953-.22266-.3086-.15625-.32421-.09375-.32422-.03125-.3125h.83594l.02734.2539.07422.23438.125.21484.16016.1836.1914.15234.22266.11328.23828.07422.2539.02344.25782-.02344.23828-.07422.22266-.11328.1914-.15235.16016-.18359.1211-.21484.07812-.23438.02734-.2539-.02734-.25-.07813-.23829-.12109-.21093-.16016-.1836-.1914-.15234-.22266-.11719-.23828-.07031-.25781-.02734-.2539.02734-.23829.07031-.22266.11719-.1914.15234-.16016.1836-.125.21094-.07422.23828-.02734.25h-.83594l.01953-.25391.0586-.23828.08984-.22266.1211-.21094.15624-.1875.1797-.17578.21093-.15234.23047-.13281-.28516-.19531-.14062-.1211-.12891-.14453-.11328-.17188-.08594-.19921-.0586-.23438-.01952-.27344h.78515l.02344.21485.0664.1914.10157.16407.13672.14062.16797.11328.1875.07813.20703.05078.21875.01953.22265-.01953.20703-.05078.1875-.07813.16407-.11328.13672-.14062.10547-.16407.0664-.1914.02344-.21485-.02344-.21484-.0664-.1914-.10547-.16798-.13672-.13671-.16406-.11329-.1875-.08203-.20704-.05078-.22265-.01562-.21875.01562-.20703.05078-.1875.08204-.16797.11328-.13672.13671-.10156.16797-.06641.19141-.02344.21484h-.78515l.03515-.3789.10938-.33203.17187-.28516.23047-.23828.28125-.1875.32422-.13281.35547-.08594.38672-.02735"/><path fill="#ffffe0" fill-rule="evenodd" d="M288.48438 414.01172h22.17968v-10.1914h-22.17969v10.1914"/><path fill-rule="evenodd" d="M291.98438 405.65234h.5078v6.29688h-.78515v-4.49219h-1.39062v-.55469l.55859-.0664.2539-.05078.23048-.08985.20312-.14062.17188-.21094.14453-.29688.10546-.39453m4.8125 0l.23047.01954.21875.05468.20704.08985.1953.12109.1836.14844.17188.17578.30468.42187.2422.4922.17968.54687.10937.57812.03907.59375-.03907.58985-.10937.58593-.17969.55469-.24219.5-.30468.42969-.17188.17969-.1836.15234-.1953.125-.20704.08984-.21875.0586-.23046.01953-.23047-.01953-.21875-.0586-.20704-.08984-.1953-.125-.1836-.15235-.17188-.17968-.30468-.42969-.2422-.5-.17968-.55469-.10937-.58594-.03907-.58984h.83204l.02734.5625.08203.5039.1289.44532.16016.375.1914.29688.21095.22265.22265.13672.22656.04688.22657-.04688.22265-.13672.21094-.22265.1914-.29688.16016-.375.12891-.44531.07813-.5039.03125-.5625-.03125-.5625-.07813-.5-.1289-.4375-.16016-.36329-.1914-.29297-.21095-.21484-.22265-.13281-.22656-.04297-.22657.04296-.22265.13282-.21094.21484-.1914.29297-.16016.36328-.12891.4375-.08203.5-.02735.5625h-.83203l.03907-.59375.10937-.57812.17969-.54688.24219-.49219.30468-.42187.17188-.17578.1836-.14844.1953-.1211.20704-.08984.21875-.05469.23046-.01953m4.95313 0l.23047.01954.21875.05468.20703.08985.19531.12109.1836.14844.17187.17578.30078.42187.2461.4922.17968.54687.10938.57812.03906.59375-.03906.58985-.10938.58593-.17968.55469-.2461.5-.30078.42969-.17187.17969-.1836.15234-.19531.125-.20703.08984-.21875.0586-.23047.01953-.23047-.01953-.21875-.0586-.20703-.08984-.19531-.125-.1875-.15235-.16797-.17968-.30469-.42969-.24219-.5-.17968-.55469-.11329-.58594-.03515-.58984H300.5l.02734.5625.08204.5039.1289.44532.16016.375.1914.29688.21094.22265.22266.13672.22656.04688.22656-.04688.22266-.13672.21094-.22265.1914-.29688.16016-.375.125-.44531.08203-.5039.03125-.5625-.03125-.5625-.08203-.5-.125-.4375-.16016-.36329-.1914-.29297-.21094-.21484-.22266-.13281-.22656-.04297-.22656.04296-.22266.13282-.21094.21484-.1914.29297-.16016.36328-.1289.4375-.08204.5-.02734.5625h-.83203l.03515-.59375.11329-.57812.17968-.54688.2422-.49219.30468-.42187.16797-.17578.1875-.14844.19531-.1211.20703-.08984.21875-.05469.23047-.01953m4.95313 0l.38671.02735.35938.08594.32031.1328.28125.1875.23047.23829.17188.28515.10937.33204.03906.3789-.02344.27344-.05468.23438-.08985.19921-.11328.17188-.1289.14453-.13672.1211-.28906.1953.23437.1211.20703.14453.17969.17188.15625.1953.1211.21095.09374.23046.05469.2461.01953.2539-.03515.3125-.10547.32422-.17188.32422-.23828.3086-.3086.26953-.37109.21484-.21094.07813-.23046.0625-.2422.03906-.26171.01172-.26172-.01172-.24219-.03906-.22265-.0625-.20313-.07813-.35937-.21484-.29297-.26953-.22266-.3086-.15625-.32422-.09375-.32421-.02734-.3125h.83203l.02734.2539.07813.23438.1211.21484.16015.1836.19531.15234.21875.11328.23828.07422.25781.02344.25391-.02344.24219-.07422.21875-.11328.1914-.15235.16016-.18359.125-.21484.07813-.23438.02343-.2539-.02343-.25-.07813-.23829-.125-.21093-.16015-.1836-.19141-.15234-.21875-.11719-.24219-.07031-.2539-.02735-.25782.02735-.23828.07031-.21875.11719-.19531.15234-.16016.1836-.1211.21093-.07812.23829-.02734.25h-.83203l.01953-.25391.05469-.23828.08984-.22266.125-.21094.15235-.1914.18359-.17188.20703-.15234.23047-.13281-.28516-.19532-.14062-.12109-.1289-.14453-.11329-.17188-.08594-.19921-.0586-.23438-.01952-.27344h.78515l.02344.21485.0664.1914.10548.16406.13671.14063.16407.11328.1875.07813.20703.05078.22265.01953.21875-.01953.20704-.05078.1875-.07813.16796-.11328.13672-.14063.10157-.16406.0664-.1914.02344-.21485-.02344-.21484-.0664-.1914-.10157-.16798-.13671-.13671-.16797-.11329-.1875-.08203-.20704-.05078-.21875-.01562-.22265.01562-.20703.05078-.1875.08203-.16406.11329-.13672.13671-.10547.16797-.0664.1914-.02345.21485h-.78515l.03906-.3789.10547-.33204.17578-.28515.23047-.23828.27734-.1875.32422-.13281.35938-.08594.38671-.02735"/><path fill="#ffffe0" fill-rule="evenodd" d="M368.375 473.85547h22.17969v-10.1914H368.375v10.1914"/><path fill-rule="evenodd" d="M371.875 465.4961h.50781v6.29296h-.78906v-4.48828h-1.38672v-.55469l.5586-.0664.2539-.05469.23047-.08984.20313-.14063.17187-.21094.14453-.29296.10547-.39454m4.8125 0l.23047.01954.21875.05468.20703.08985.19531.12109.1836.14844.17187.17578.30078.41797.2461.4961.17968.54687.10938.57812.03906.58985-.03906.59375-.10938.58593-.17968.55469-.2461.5-.30078.42969-.17187.17969-.1836.15234-.19531.1211-.20703.09374-.21875.0586-.23047.01953-.23047-.01953-.21875-.0586-.20703-.09375-.19531-.1211-.1875-.15233-.16797-.1797-.30469-.42968-.24219-.5-.17968-.55469-.11329-.58594-.03515-.59375h.83203l.02734.5625.08204.50782.1289.4414.16016.375.1914.30079.21094.22265.22266.13672.22656.04688.22656-.04688.22266-.13672.21094-.22265.1914-.30079.16016-.375.1289-.4414.07813-.50781.03125-.5625-.03125-.5586-.07813-.5039-.1289-.4336-.16016-.36719-.1914-.28906-.21094-.21484-.22266-.13281-.22656-.04297-.22656.04296-.22266.13282-.21094.21484-.1914.28906-.16016.3672-.1289.43358-.08204.50391-.02734.5586h-.83203l.03515-.58985.11329-.57812.17968-.54688.2422-.4961.30468-.41796.16797-.17578.1875-.14844.19531-.1211.20703-.08984.21875-.05469.23047-.01953m4.95313 0l.22656.01954.22265.05468.20704.08985.1953.12109.1836.14844.17188.17578.30078.41797.2461.4961.17968.54687.10937.57812.03907.58985-.03907.59375-.10937.58593-.17969.55469-.2461.5-.30077.42969-.17188.17969-.1836.15234-.1953.1211-.20704.09374-.22265.0586-.22656.01953-.23047-.01953-.21875-.0586-.20704-.09375-.19921-.1211-.1836-.15233-.17187-.1797-.30078-.42968-.2422-.5-.17968-.55469-.11328-.58594-.03516-.59375h.83204l.02734.5625.08203.50782.125.4414.16406.375.1914.30079.21095.22265.22265.13672.22656.04688.22657-.04688.22265-.13672.21094-.22265.1914-.30079.16016-.375.125-.4414.08204-.50781.03125-.5625-.03125-.5586-.08204-.5039-.125-.4336-.16015-.36719-.1914-.28906-.21095-.21484-.22265-.13281-.22656-.04297-.22657.04296-.22265.13282-.21094.21484-.1914.28906-.16407.3672-.125.43358-.08203.50391-.02735.5586h-.83203l.03516-.58985.11328-.57812.17969-.54688.24219-.4961.30078-.41796.17187-.17578.1836-.14844.19921-.1211.20704-.08984.21875-.05469.23046-.01953m4.95313 0l.38672.02735.35937.08203.32032.13672.28125.1875.23046.23828.17188.28515.10938.33204.03515.375-.01953.27734-.0586.23438-.08593.19921-.11328.17188-.1289.14062-.14063.125-.28516.19532.23438.11718.20703.14844.17968.17188.15625.1914.1211.21485.08984.23046.0586.2422.01953.2578-.03516.3086-.10547.32812-.17187.32422-.23829.30469-.30859.26953-.3711.21485-.21093.08203-.23047.05859-.24219.03906-.26171.01563-.26172-.01563-.2422-.03906-.22265-.0586-.20312-.08202-.35938-.21485-.29297-.26953-.22265-.30469-.15625-.32422-.09375-.32812-.02735-.3086h.83204l.02734.25391.07812.23438.1211.21093.16015.1875.19532.14844.21875.11719.23828.07031.25781.02735.2539-.02735.23829-.07031.22265-.11719.19141-.14844.16016-.1875.125-.21093.07421-.23438.02735-.2539-.02735-.25391-.07421-.23438-.125-.21093-.16016-.1875-.1914-.15235-.22266-.11328-.23828-.07422-.25391-.02344-.25781.02344-.23828.07422-.21875.11328-.19532.15235-.16015.1875-.1211.21093-.07812.23438-.02735.2539h-.83203l.01563-.2539.0586-.23828.08984-.22656.125-.20704.15234-.1914.1836-.17188.20702-.15234.23047-.13281-.28515-.19532-.14063-.125-.1289-.14062-.11329-.17188-.08593-.19921-.0586-.23438-.01953-.27734h.78516l.02344.21484.0664.1914.10547.16798.13672.14062.16406.10938.1875.08203.20703.05078.22266.01562.21875-.01562.20703-.05078.1875-.08204.16797-.10937.13672-.14063.10156-.16796.0664-.19141.02344-.21484-.02343-.21485-.0664-.1875-.10157-.16797-.13672-.14062-.16797-.10938-.1875-.08203-.20703-.05078-.21875-.01562-.22266.01562-.20703.05078-.1875.08203-.16406.10938-.13672.14062-.10547.16797-.0664.1875-.02344.21485h-.78516l.03906-.375.10547-.33204.17579-.28515.23046-.23828.27735-.1875.32422-.13672.35937-.08203.38672-.02735"/><path fill="#ffffe0" fill-rule="evenodd" d="M420.08203 441.25h22.1836v-10.1914h-22.1836V441.25"/><path fill-rule="evenodd" d="M423.58203 432.89063h.51172v6.29296h-.78906v-4.48828h-1.38672v-.55469l.5586-.0664.2539-.05469.22656-.08594.20313-.14453.17578-.20703.14062-.29687.10547-.39454m4.8164 0l.22657.01954.21875.05468.21094.08985.19531.1211.1836.14843.17187.17578.30078.42188.24219.49218.17969.54688.11328.57812.03906.58985-.03906.59375-.11329.58593-.17968.5547-.24219.5-.30078.42968-.17188.17969-.18359.15234-.19531.125-.21094.08984-.21875.0586-.22656.01953-.23047-.01953-.21875-.0586-.20703-.08984-.19922-.125-.1836-.15234-.17187-.1797-.30078-.42968-.24219-.5-.17969-.55469-.11328-.58593-.03906-.59375h.83594l.02734.5664.08203.5039.125.44142.16406.375.19141.30078.21094.22265.22265.13672.22657.04688.22656-.04688.22266-.13672.21093-.22265.1875-.30079.16407-.375.125-.4414.08203-.5039.03125-.56641-.03125-.5586-.08203-.5-.125-.4375-.16407-.36719-.1875-.28906-.21093-.21484-.22266-.13281-.22656-.04297-.22656.04297-.22266.1328-.21094.21485-.1914.28906-.16407.3672-.125.4375-.08203.5-.02734.55859h-.83594l.03906-.58985.11328-.57812.1797-.54688.24218-.49219.30078-.42187.17188-.17578.18359-.14844.19922-.1211.20703-.08984.21875-.05468.23047-.01954m4.94922 0l.23046.01954.21875.05468.20704.08985.19921.1211.1836.14843.17187.17578.30079.42188.24218.49218.17969.54688.11328.57812.03906.58985-.03906.59375-.11328.58593-.17969.5547-.24219.5-.30078.42968-.17187.17969-.1836.15234-.19921.125-.20704.08984-.21875.0586-.23046.01953-.22657-.01953-.21875-.0586-.21093-.08984-.19532-.125-.18359-.15234-.17188-.1797-.30078-.42968-.24218-.5-.1797-.55469-.11327-.58593-.03906-.59375h.83593l.02735.5664.08203.5039.125.44142.16406.375.1914.30078.20704.22265.22265.13672.22657.04688.22656-.04688.22265-.13672.21094-.22265.1914-.30079.16407-.375.125-.4414.08203-.5039.02735-.56641-.02735-.5586-.08203-.5-.125-.4375-.16406-.36719-.1914-.28906-.21094-.21484-.22266-.13281-.22656-.04297-.22657.04297-.22265.1328-.20703.21485-.19141.28906-.16406.3672-.125.4375-.08203.5-.02735.55859h-.83594l.03907-.58985.11328-.57812.17969-.54688.24218-.49219.30079-.42187.17187-.17578.1836-.14844.1953-.1211.21094-.08984.21875-.05468.22657-.01954m4.95312 0l.38672.02735.35938.08203.32421.13672.27735.1875.23047.23828.17578.28516.10547.33203.03906.375-.01953.27734-.0586.23438-.08593.19921-.11329.17188-.1289.14063-.14063.125-.28515.1953.23047.1211.20703.14453.1836.17188.15233.19531.125.21094.08985.23047.05469.24609.01953.2539-.03125.3086-.10547.32813-.17188.32421-.23828.3047-.3086.26952-.375.21485-.21093.08203-.22656.0625-.2461.03515-.26171.01563-.25782-.01563-.24218-.03515-.22266-.0625-.20703-.08203-.35938-.21485-.28906-.26953-.22265-.30469-.15625-.32421-.09375-.32813-.03125-.3086h.83593l.02735.25391.07421.23438.125.21094.16016.1875.1914.15234.21876.11328.24219.07031.2539.02735.25781-.02735.23829-.07031.21875-.11328.1953-.15235.16016-.1875.1211-.21093.07812-.23438.02735-.2539-.02735-.25391-.07812-.23438-.1211-.21093-.16015-.1875-.19531-.15235-.21875-.11328-.23829-.07031-.2578-.02734-.25392.02734-.24218.07031-.21875.11328-.1914.15235-.16017.1875-.125.21094-.07421.23437-.02735.2539h-.83594l.01954-.2539.05859-.23828.08984-.22656.1211-.20704.15625-.1914.17969-.17188.20703-.15234.23437-.13281-.28906-.19531-.13672-.125-.1289-.14063-.11329-.17188-.08984-.19921-.05469-.23438-.02344-.27734h.78907l.02343.21484.06641.1914.10156.16798.13672.14062.16797.10938.1875.08203.20703.05078.21875.01562.22266-.01562.20703-.05078.1875-.08203.16406-.10938.13672-.14062.10547-.16797.0664-.1914.02344-.21485-.02344-.21094-.0664-.1914-.10547-.16798-.13672-.14062-.16406-.10938-.1875-.08203-.20703-.05078-.22266-.01562-.21875.01562-.20703.05078-.1875.08204-.16797.10937-.13672.14063-.10156.16796-.0664.19141-.02344.21094h-.78907l.03907-.375.10937-.33203.17188-.28516.23046-.23828.28125-.1875.32032-.13672.35937-.08203.38672-.02735"/></g></defs><use xlink:href="#ac"/></svg>