<svg xmlns="http://www.w3.org/2000/svg" role="img" xmlns:xlink="http://www.w3.org/1999/xlink" viewBox="142.45 309.95 326.84 171.84"><defs><clipPath id="a"><path d="M144 311.67188h1v168.65625h-1zm0 0"/></clipPath><clipPath id="b"><path d="M144 311.67188h324v168.65625H144zm0 0"/></clipPath><clipPath id="c"><path d="M399 441h38v39.32813h-38zm0 0"/></clipPath><clipPath id="d"><path d="M460 468h8v12.32813h-8zm0 0"/></clipPath><clipPath id="e"><path d="M465 478h3v2.32813h-3zm0 0"/></clipPath><clipPath id="f"><path d="M467 311.67188h1V462h-1zm0 0"/></clipPath><clipPath id="g"><path d="M144 477h3v3.32813h-3zm0 0"/></clipPath><clipPath id="h"><path d="M154 477h7v3.32813h-7zm0 0"/></clipPath><clipPath id="i"><path d="M167 478h7v2.32813h-7zm0 0"/></clipPath><clipPath id="j"><path d="M180 478h8v2.32813h-8zm0 0"/></clipPath><clipPath id="k"><path d="M185 478h3v2.32813h-3zm0 0"/></clipPath><clipPath id="l"><path d="M193 478h8v2.32813h-8zm0 0"/></clipPath><clipPath id="m"><path d="M199 479h2v1.32813h-2zm0 0"/></clipPath><clipPath id="n"><path d="M206 479h9v1.32813h-9zm0 0"/></clipPath><clipPath id="o"><path d="M212 480h2v.32813h-2zm0 0"/></clipPath><clipPath id="p"><path d="M220 479h8v1.32813h-8zm0 0"/></clipPath><clipPath id="q"><path d="M226 480h1v.32813h-1zm0 0"/></clipPath><clipPath id="r"><path d="M233 479h8v1.32813h-8zm0 0"/></clipPath><clipPath id="s"><path d="M239 480h2v.32813h-2zm0 0"/></clipPath><clipPath id="t"><path d="M246 479h9v1.32813h-9zm0 0"/></clipPath><clipPath id="u"><path d="M252 480h2v.32813h-2zm0 0"/></clipPath><clipPath id="v"><path d="M260 479h8v1.32813h-8zm0 0"/></clipPath><clipPath id="w"><path d="M266 480h2v.32813h-2zm0 0"/></clipPath><clipPath id="x"><path d="M273 480h8v.32813h-8zm0 0"/></clipPath><clipPath id="y"><path d="M279 480h2v.32813h-2zm0 0"/></clipPath><clipPath id="z"><path d="M286 479h9v1.32813h-9zm0 0"/></clipPath><clipPath id="A"><path d="M292 480h2v.32813h-2zm0 0"/></clipPath><clipPath id="B"><path d="M300 479h8v1.32813h-8zm0 0"/></clipPath><clipPath id="C"><path d="M305 480h2v.32813h-2zm0 0"/></clipPath><clipPath id="D"><path d="M313 478h8v2.32813h-8zm0 0"/></clipPath><clipPath id="E"><path d="M319 480h1v.32813h-1zm0 0"/></clipPath><clipPath id="F"><path d="M327 478h7v2.32813h-7zm0 0"/></clipPath><clipPath id="G"><path d="M340 478h7v2.32813h-7zm0 0"/></clipPath><clipPath id="H"><path d="M353 478h8v2.32813h-8zm0 0"/></clipPath><clipPath id="I"><path d="M366 478h8v2.32813h-8zm0 0"/></clipPath><clipPath id="J"><path d="M372 480h2v.32813h-2zm0 0"/></clipPath><clipPath id="K"><path d="M379 479h9v1.32813h-9zm0 0"/></clipPath><clipPath id="L"><path d="M385 479h3v1.32813h-3zm0 0"/></clipPath><clipPath id="M"><path d="M393 479h8v1.32813h-8zm0 0"/></clipPath><clipPath id="N"><path d="M399 480h2v.32813h-2zm0 0"/></clipPath><clipPath id="O"><path d="M406 479h8v1.32813h-8zm0 0"/></clipPath><clipPath id="P"><path d="M413 479h3v1.32813h-3zm0 0"/></clipPath><clipPath id="Q"><path d="M412 479h2v1.32813h-2zm0 0"/></clipPath><clipPath id="R"><path d="M420 478h7v2.32813h-7zm0 0"/></clipPath><clipPath id="S"><path d="M426 478h4v2.32813h-4zm0 0"/></clipPath><clipPath id="T"><path d="M425 478h4v2.32813h-4zm0 0"/></clipPath><clipPath id="U"><path d="M424 479h3v1.32813h-3zm0 0"/></clipPath><clipPath id="V"><path d="M433 478h8v2.32813h-8zm0 0"/></clipPath><clipPath id="W"><path d="M438 478h4v2.32813h-4zm0 0"/></clipPath><clipPath id="X"><path d="M446 478h8v2.32813h-8zm0 0"/></clipPath><clipPath id="Y"><path d="M453 478h3v2.32813h-3zm0 0"/></clipPath><clipPath id="Z"><path d="M460 477h7v3.32813h-7zm0 0"/></clipPath><clipPath id="aa"><path d="M144 464h4v6h-4zm0 0"/></clipPath><clipPath id="ab"><path d="M144 452h4v4h-4zm0 0"/></clipPath><clipPath id="ac"><path d="M144 439h4v3h-4zm0 0"/></clipPath><clipPath id="ad"><path d="M144 425h4v4h-4zm0 0"/></clipPath><clipPath id="ae"><path d="M144 413h4v2h-4zm0 0"/></clipPath><clipPath id="af"><path d="M144 399h4v3h-4zm0 0"/></clipPath><clipPath id="ag"><path d="M144 385h4v5h-4zm0 0"/></clipPath><clipPath id="ah"><path d="M144 372h4v4h-4zm0 0"/></clipPath><clipPath id="ai"><path d="M144 358h4v5h-4zm0 0"/></clipPath><clipPath id="aj"><path d="M144 345h4v4h-4zm0 0"/></clipPath><clipPath id="ak"><path d="M144 332h4v4h-4zm0 0"/></clipPath><clipPath id="al"><path d="M144 317h3v7h-3zm0 0"/></clipPath><clipPath id="am"><path d="M465 317h3v2h-3zm0 0"/></clipPath><g id="an" clip-path="url(#clip1)"><path fill="#fff" fill-opacity="0" fill-rule="evenodd" d="M0 0h1000v1000H0zm0 0"/><path fill="#d3d3d3" fill-opacity="0" fill-rule="evenodd" d="M162.15234 355.86719l-.23437.29297.0586.23437.11718.17188.17578.23437.29297.34766.11328.0586.11719-.17188.0586-.23438.17577-.17578.46485-.17578h.69922l.23437.29297.28906.8164.0586.17579.17578.23046.35156.23438.69922.69922.17188.17578.23437.34765.23438.41016.28906.58203.41015.46485.23047.23437.23438.17578.11719.23047.17578.29297.17187 1.16406v.23438l.0586.28906.05859.11719.11719.11719.34765.41015.11719.17188.17578.17578.17578.23437.11719.17188.17188.35156.05859.23438.23437.40625.23438-.0586-.17578.17578-.0586.92969h-.58203l-.23437-.11328-.34766.11328-.11719.11719-.05859.29297-.0586.17578-.11718.17187-.46484.29297-.0586.23438-.0586.11328v.64453l.0586.17187v.41016l.0586.0586v.40624l.05859.40625.11719.17579.05859.05859.23047.64062-.0586.29297v.69922l-.05859.58203v.23438l-.0586.23047-.05468.35156v1.92187l.05469.1172h.42578l-.36719.11718-.02344.35156.89063 1.16797 1.74219.53906 1.33984.35938v.53906l.08984.8086.53516.71484 1.51953.26953.89063-.08594.08984 1.16406.53516.1797 1.16015-.1797 2.05469-.98437 1.16016-.36328 1.8789-.17578 1.69531-.1797-.17968.71876-1.51563.08594-1.25.08984-.80469.26953-1.07421.8086.26953.71875.53515.89843-.17968.625-.26563.8086.26563 1.07812.625.89844.80468.17969 1.25-.1797-.26562.72267.09766.5039.05468.29297v.17188l.0586.29296v.40625l.17578.1172.35156.11718h.40625l.29297-.17578.11328-.11719.0586-.11719.11718-.23047.0586-.17578.35156-.46484.23047-.17578.17578-.0586.17578.0586.0586.17578.11718.98828.05469.46875.0586.17188.11718.23437.17578.0586.8164.05859h.28907l.11719.23437.05859.40625.0586.35156v1.10547l.11718.29297.11719.34766.28906.69922.17578.35156.58203.7539.35157.17579.17187.0586.46875.23437.64063.46484.34765.23438.29297.17578.29297.05468.23047.0625.8164.34766.29297.17578.11328.17188.35157.35156.11719.17578.52343.64063v.28906l.0586.35156v.34766l.05859.35156.0586.28906.11718.0586.17188.05859h.17578l.58203.23437.17578.1172.17578.28905.17578.23438.11328.23437.29297.23047.11719.11719v.41016l.0586.05468.28906.23438.23437.11719.0586.11718.11718.17188.0586.11719.23047.23437.05859.17578.23437.0586.1172.05859-.1172.11328-.05859.11719v.11719l-.11719.29296-.11719.28907v.58203l.17579.11719.11718.05859.0586.11719.11719.11719.11328.05859.17578.34765.0586.35157.05858.40625v.17578l-.05859.17578-.11719.69922v.17187l.1172.17579.29296.29296h.40625l.17578.1172.11719.17187.11719.29296v.23438h-.52735l-.23047-.23438h-.23437l-.17578.0586-.0586.69922.0586.34765.11719.17579.17578.41015.11718.23047.28907.46875.17578.05469h.52344l.23437.0586.75781.64062.0586.29296v.23438l.05859.0586.23047.34765v.35156l-.11719.17188v.29297l.29297.28906.29297.17578.17187.0586.29297.17577.29297.1172.58203.40624.28906.23438.29297.17578.21875.16015.01563.01172.23047.17579.64062.52343.17578.23438.1172.17578.17577.17578.11328.17188v.64062l.1172.17578.46874.11719.58203.11719.23438.05859.23047.11328.29297.11719.11328.0586.58593.35156.28907.17187.17578.0625.17578.05469.17578.0586.69922.35155.28906.17579.23438.05468.28906.17578.23437.1172.64063.40624.29297.11719.17187.0586.23438.05859.41015.05859.23047.0586.23438.11718.0586.17188-.41017.17578.46875.0586.0586.29296.11328.23438.17578.05468.23438.0586.17578.05859.40625.11719.64062.23437.11719.17188.0586.23437v.17578l-.0586.1172-.0586.40624.23438.23438.11719.05859.34766.11719.64062.23047.17578.11718.28906.1172.17578.17577.23438.46485.58203 1.10546.17578.17579.34766.17578.17578.11719.35156.11718 1.04688.52344.23437.0586.46485.11327.29297.0586.46484.17578.75781.58203.23438.23438.34765.46484.17578.17578.28907.23438.8164.69921.29297.17579.28906.28906.29297.17578.29297.28906.69531.64063.17578.17578.29297.23437.28907.23438.46875.28906.64062.58203.34766.23438.23437.29297.34766.34765.35156.46485.9336.99218.34765.40625.11719.17579.23437.05859.11328.11719.64454.17578.23047.11328.23437.0586.29297.17577.23047.1172.9336.69921.40624.40625.23438.17578.40625.17578.23437.11719.8164.34766.34766.23437.23438.11719.29297.28906.23047.11719.7578.35156.35157.17188.23047.05859.29297.11719.23437.0586.8711.17577h.8164l.46875.23047.17188.0586.875.69921.46484.1172.29297.05858.17578.0586.23047.0586.46875.05859.34766.05859.35156.0586.40625.05859h.29297l.17187.0586v.23046l.17578.17578h.29297l.34766.0586.35156.05859.69922.11719h.64063l.46484-.23438.29297-.17578.17187-.11719.41016-.17187.28906-.17578.9336-.46485.46875-.29297.52343-.29296.46485-.17188.46484-.17578 1.05078-.46485.28906-.11718.41016-.11719.28906-.11719.52735-.17578 1.51562-.69922.58203-.34765.28907-.0586.29297-.0586.34765-.11718.875-.23047.35156-.11719h.11329l.23437-.05859.875-.23437.23438-.0586h.8125l.35156-.0586.8164-.11718.17188-.0586.35156-.05468.29297-.0586.23047-.05859.8164-.17578.17579-.0586h.34765l.23438-.05859.46484-.11718.75781-.17188.23438-.0586h.34765l.41016-.11718.28906-.0586 1.28516-.05859h.28906l.41016-.0586.23047-.05858h.17578l.875-.1172h.40625l.41015-.11718h.34766l.35156-.11328.8711-.0586h1.75l1.04687.28907.41016.11719.28906.11718.35156.11719.28907.11719 1.05078.17187.28906.0586h.29297l.29297.05859.17187.0586.41016.05859.17187.0586.1172.05858h.11718l.11719.0586.35156.0586h.11328l.41016.0664 1.92187.39453 1.92578.39453 1.51953.44922 1.69532.71875 2.14453.80469 1.60547-.71875 1.42968-.80469 1.16016-1.07813 1.25-.44921 3.03516-.71875 1.875-.35938 2.14453-1.34765 2.23437-1.25391 2.5-1.25781 1.69531-.44922 1.78516-.17969 1.16016-.26953.625.53906 1.33984-.26953.71485-.98828.98437-1.34375.44531-.17969.80469-.35937 1.875-.53907 1.78516-.44921 1.25-.26954 1.16015-.08984 1.69922-.08984 1.96094-.26954 1.25-.08984h.53906l.625-.08984h.89063l2.14453-.17969 2.41015-.17969 2.58985-.08984 1.69531.17969 1.60938.08984 1.42968.35938 1.16016.71875 1.875.98828 1.16015 1.52734.26563.71484.6289.08985.35548.89844.53515.53906.53516 1.52734 1.07422.35938h.53515l-.80469.53515.08985 1.70703.71484 2.69532.89063.80468.89453.98829.71484 1.2578 1.78516.53907 1.51953-.17969.35547 1.34375 1.60937-.80469.98047-.53906.26953.26953.31641-.21484.21875-.14453.80078.44922.44922-.35938h.35547l.53515-.26953.53907-.71875.53515-.26953.625-.98828 1.16016.44922.83984.3711 1.39454.61718 1.6953-.17969h1.60548l1.78515.08985.17969-1.70704.53516-1.34375.80468.26954.4922.84765.40233.40625-.08984.53906v.35938l.71485.44922.71093-.26953h1.42969l.35938.98828.4453 1.25781.71485 1.34375 1.25.6289 1.69531.62891.71485-.17969.17969-.53906.98046-.08984.44922.35937.08594 1.25782-.26563.6289-.53515.17969v.53906l.71484.98438.26563.53906.98437.98828.80078 1.07813-.26562.35937-.08985.89844-.625 2.33203-.35546 2.0664-.08985 1.79298-.17969.71875-.08984.53906v1.4375l-.98047 1.88281-.35937 1.70703-.53516.89844-.80469 1.16797-.26562.53906 2.05469 1.2539.08593.35938-.35546.53906-.08985-.17968v.80859l.08985 1.4375-.44532.71484-1.07422.09375-.26562.71485.53515.89844.8047.71875 1.16015.80859 1.33984.26953.44531.35938-.35546.44921-1.78907-.08984-1.25-.44922-.71484-.71875-.625-.08984-.17578 3.58984-.1875 1.3086h89.35937V311.70313h-55.26953v49.08203l.76172.125 3.28906.54296 2.02344 2.83594v2.7539l2.35156.33204 2.34766.33203h4.05078l-1.3789 4.16016-2.02344.70703-2.02344.70312-.54297.34375-2.59375 1.6172-.1875.11718-2.02344-2.07813-.73046-2.74218-2.67188-2.07813-1.375-3.5-.0664-.08203-1.95704-2.67188 2.75-1.41796v-49.08204H294.42187v91.41407l.1172.03125.1328.01172.07422.07421.10547.04688.08985.0586.08593.05859.08985.0586.29687.29687.0586.08984.03125.11719.02734.11719.01563.13671-.03125.1172-.0586.08983-.0586.08594-.04296.10547-.04688.10156-.02734.1211v.14453l.17578.26953.14844.14844.07422.08594.07422.07421.04296.10547.0625.08985.0586.08593.04297.10547.0586.08985.04687.10156.04296.10547.0586.08594.11719.17968.07421.07422.0625.08594.0586.08984.04297.10547.0586.08985.05858.08593.0625.08985.0586.08984.04297.10156.11719.17969.07421.07422.0586.08594.07422.07421.08984.0586.10547.04687h.14844l.1328-.01562.13282.01562.10156-.04687.07422-.07422.04688-.10156-.01563-.13281v-.14844l-.04687-.10547-.02735-.11719-.04687-.10156-.02735-.1211-.04296-.10156-.0625-.08984-.04297-.10156-.04297-.10547-.03125-.11719-.01563-.13281-.01171-.13672.08593-.0586.0586-.08593.12109-.03125.04297.10547.01562.1328v.1172l.0586.10156.0586.08984.08983.0586.14844.14843.0586.08985.04296.10547-.01171.10156.08593.0586.10547.04687.08594.0586.08984.05858.07422.07422-.11719.02735-.10546.04687-.08594.0586-.07422.07421-.0586.08985-.0625.08594-.02734.12109-.04687.10156-.04297.10547-.03125.11719-.01172.13281-.01563.13281v.14844l.02735.11719.04687.10547.04297.10156.0586.08984.07421.07422.08985.0586.07422.07421.08984.0586.0586.08984.04296.10547.04688.10156.11719.03125.1328.01563h.14845l.11718-.03125.10547.04297.04297.10547.04688.10156.02734.1211L299.5 410l.02734.11719.03125.1211.02735.11718.10547.04297.10156.04687.13281-.01562.14844.14844.0625.08593.07422.07422.07031.07422.08984.0625.10547.04297.10156.04297.1172.03125.13671.01562.11719-.03125.07422-.07422.02734-.11718-.01172-.13282-.03125-.12109-.02734-.11719.04297-.10547h.11719l.08984.0625.11719.02735h.14843l.13282.01562h.14843l.13282.01563.1328-.01563h.14845l.1328-.01562.13282-.01172.13672.01172.11719-.02735.13281-.01562.1914-.0586-.05859.17579-.01562.1328-.02735.1211-.01562.13281-.0586.08594-.1328.01563-.10548.04687-.10546.04297-.1172.03125-.11718.02735-.26563.03125h-.14843l-.13281.01562-.07422.07422.05859.08594.14844.14843.11719.1797.07421.0703.08985.0625.08984.0586.08594.0586.08984.05858.10156.04297.10547.0625.10547.04297.08594.0586.10547.04687.10156.04297.17969.11719.0586.08984-.04298.10156-.04687.10547.01562.13281.22266.22266.0586.08985.04296.10156.03125.1211.04297.10155.01563.13282.03125.11718.01171.13672.03125.11719.14844.14844.10156.04297.10547.04296.1172.03125.1328.01563.13672.01563h.11719l.11719-.03125.08984-.0586.04297-.10547.04688-.10156.04296-.10547.03125-.11719.01172-.1328v-.14845l-.01172-.1328-.01562-.13282-.03125-.11719-.04297-.10547-.04688-.10547-.04296-.10156-.04297-.10547-.01563-.13281.01563-.13281.02734-.11719.03125-.11719.02735-.1211.04687-.10155.08984-.0586.08594-.0625.07422-.07422.08984-.05859.22266-.22266.0586-.08593.07421-.07422.11719-.17969.0586-.08594v-.14844l-.07423-.07421-.10156-.04688-.10547-.04297-.10156-.04297-.0586-.08984-.04687-.10547-.02734-.11719.08984-.05859.11719-.03125.10156-.04297.17969-.11719.14844-.14843.01172-.13282-.01172-.10546-.08985-.0586-.1328.01563h-.14845l-.1328.01562-.13282-.01562-.1211-.03125-.08593-.0586-.07422-.07422-.0586-.08984-.0625-.08594-.11718-.17969-.0586-.08593.03125-.1211.08594-.05859.1211-.03125.05859-.08594v-.1211l-.03125-.11718-.0586-.08984-.05859-.08594-.04687-.10547-.02735-.11719-.01562-.1328.0586-.08985.07421-.07422.08984-.0586.1172-.17968.07421-.07422.0586-.08594.14843-.14844.1211-.03125.1328-.01562.13282.01562.07422.07422.04297.10547.01562.13281-.03125.1172-.11719.03124-.1328.01172-.14844.14844-.04297.10547-.04688.10156-.02734.1211-.03125.11718v.14844l.03125.11719.04297.10546.05859.08985.07422.07031.07422.07422.11719.03125.12109.02734.11719-.02734.1328-.01563h.1172l.08984.0586.07422.07422.04687.10546.0586.08594.10156.04688.13281.01562.10547.04297.08594.0586-.01172.10546-.07422.07422-.17969.11719-.05859.08984-.08984.0586-.07032.07422-.07421.07421-.0625.08985-.02735.11719-.01562.1328.01562.13282-.01562.13281v.14844l.01562.13281.02735.1172.03125.12108.07421.07422.08985.0586.08594.0586.08984.05858.11719.03125v.08594l-.10157.04688-.08984.0586-.26563.03124-.11718.02735h-.14844l-.10547.04296-.10156.04688-.0586.08984-.0625.23438-.01171.13281-.03125.1211-.01563.1328v.29298l-.01172.1328.01172.13673.01563.1328.1328.01563.13282.01172.1211.03125.08593.0586.07422.07421.04688.10547.04296.10157.01563.1328v.44532l-.01563.13281v.44532l.03125.26562.02735.11719.01562.13281.03125.11719.08594.21094.03125.26562v.14844l-.03125.11719-.02734.11718-.03125.1211-.02735.11719-.03125.11718-.03125.1211-.01171.1328-.01563.13282.08984.0586.1172-.03125.10155.01562.04688.10547-.03125.26562v.44141l-.04297.10547-.04688.10547-.04296.10156-.04297.10547-.0586.08594-.03125.12109-.04296.11719-.03125.11719-.01563.1328.01563.13282.05859.08984.10547.04688.08594.0586.05859.08593-.01172.13672-.03125.11719-.04297.10156v.44531l-.01562.13281v.14844l-.03125.11719-.04297.10547-.02735.11719-.04687.10546-.04297.10157-.03125.12109-.02734.11719-.03125.13281-.03125.11719-.02735.11719-.04297.10546-.03125.1172-.03125.12108-.01171.13282-.01563.13281v.29688l.02734.11718v.14844l.04688.39844.02734.11719.0586.08984.12109.03125h.14844l.13281-.01563.0586.08985v.11719l-.0586.08984-.08984.0586-.10157.04296-.10546.04688-.08985.05859-.08594.0586-.13671.01562-.1172-.03125-.1328-.01563-.10157.04688-.0625.08594-.01172.13671-.01562.13282-.03125.11719-.02735.11718-.01562.13281-.03125.1211v.29687l.01563.13282.03125.11718v.14844l.01171.13281v.14844l-.02734.11719-.04688.10156-.02734.1211-.03125.11718-.0586.08985-.07421.07421-.10156.04297-.10547.04688-.11719.02734-.1211.03125-.10156-.04687.0586-.08594.10547-.04688.02734-.11718.03125-.11719.02734-.1211.03125-.11718v-.14844l.01563-.13281-.03125-.11719-.04297-.10547-.10547.01563-.07422.07422-.10156.04296-.08984.0625-.07422.07422-.04297.10157-.01563.1328-.03125.1172L304.25 426l-.03125.11719-.02734.11719-.03125.12109-.02735.11719-.03125.11718-.04297.10547-.08984.0586h-.08984l-.1172-.03125-.03124-.08594.01562-.13672-.03125-.11719v-.14844l-.01171-.1328v-.14844l-.0625-.23438-.02735-.1211-.04297-.10156-.04687-.10546-.0586-.08594-.05859-.08985-.04297-.10546-.0625-.08594-.14844-.14844-.0703-.07422-.10548-.04687-.10547-.04297-.10156-.04297-.29687-.29688-.08985-.07421-.08594-.0586-.10546-.04297-.08985-.0625-.08594-.0586-.10546-.04296-.08985-.0586-.08594-.0625-.07421-.0703-.10547-.04688-.08594-.0586-.10547-.04296-.08984-.0625-.10156-.04297-.10547-.04297-.08594-.0586-.10547-.04687-.10547-.04297-.10156-.04687-.08985-.0586-.10156-.04297-.10547-.04296-.08984-.0625-.11719-.02735-.13281-.01562-.13281.01562H299.75l-.13281.01563-.11719-.03125-.08984-.0586-.07422-.07422-.08985-.05859-.10156-.04688h-.14844l-.12109-.02734-.10156-.04297-.07422-.07422-.11719-.17968-.08984-.0586-.10156-.04297-.08985-.0625-.10547-.04296-.08984-.0586-.08594-.0586-.10547-.04687-.0586-.08594-.05858-.08984-.04297-.10547-.04688-.10156-.07422-.07422-.08594-.0586-.07421-.07421-.08985-.0586-.22265-.22265-.04297-.10547-.03125-.26563.10547-.04296h.14453l.10547.04296.07421.07422.08985.0586.08594.0586.10546.04687.08985.05859.14844.14844.0703.07422.14845.14843.0625.08594.07421.07422.08594.0586.07422.07421.08985.0625.08984.0586.08594.05859.26953.17578.10156.04688.10547.04296.10156.04297.04688-.07421.05859-.08594.07422-.07422.07031-.07422.10547.04297.07422.07422.0586.08984.04296.10156.04688.10547.04296.10547.1211.02735.11719-.02735.07421-.08984.04297-.10547.0586-.08985.07422-.07421.10546-.04297.1172-.02735.1328.01172.08985.0586.14844.14843.05859.08985.04297.10547.04687.10156.04297.10547.04297.10156.10547.04688.10547.04296.13281.01563.08594-.0586.0586-.08984.07421-.07422.10547-.04297.11719.02735.10547.04687.10156.04297.10547.04297.10156.04688.17969.11718v.11719l-.01563.13281.01563.13281.01562.13672.0586.08594.10156.04688.1211.02734.11718.03125h.14844l.11719-.03125.05859-.08984.17969-.1172.05859-.08983.07422-.07422.0586-.08594.11718-.17969.17969-.11719.11719.03125.08984.0586.04297.07422-.01563.1328v.1172l.08985.05859h.14843l.13282-.01563.1328-.01171.26563-.03125.10547-.04297.11719-.03125.1211-.02735.07421-.07421.07031-.07422.0625-.08985-.01562-.10547-.04688-.10156-.10156-.04297-.10547-.01562-.11718.02734-.26563.03125h-.14844l-.07421-.07422-.08985-.0586-.11719-.03124-.11718-.02735-.13282-.01562h-.14843l-.13282.01563h-.29687l-.10547-.04688-.14844-.14844-.04297-.10156-.05859-.08984.22266-.22266.08593-.0586.10547-.04296.11719-.03125.13281-.01563.13281.01563.13672.01562.10157.04297.1328-.01172.08985-.0625.10156-.04297.0625-.08984-.04687-.10156-.08984-.0586-.1172-.03125-.10155-.04296-.0586-.08985-.0625-.08984v-.11719l.01563-.13281.10547-.04688.07421-.07031v-.1211l-.08984-.05859-.03125-.11719.08985-.05859.07421-.07422.04297-.10547.0586-.08984.04687-.10156.01563-.13281v-.14844l-.04688-.10547-.04297-.10156-.08984-.0586-.13281-.01562-.10157-.04297-.13671-.01563-.1172-.03125h-.4453l-.13282-.01562-.13281-.01172-.13281-.01563-.11719-.03125h-.14844l-.13281-.01562-.13281-.01172-.26563-.03125-.1211-.04297-.08593-.0586-.07422-.07421v-.14844l.01172-.13281.10547-.04688.10156-.04296.13281-.01563h.15235l.13281-.01562h.29297l.1211.03125.10156.04296.08984.0586.23438.0625.12109-.04688.08984-.05859.10156-.04297.13282-.01562.10547.04296.10156.04688.13281.01172.1211-.02735h.14453l.12109-.03125.11719-.02734.10547-.04687.07421-.07422.08594-.0586.14844-.14843.0586-.08594.04687-.10547.02734-.11719.01563-.10547-.10156-.04296-.08985-.0586-.11719-.03125-.10546-.04297-.08985-.0625-.07422-.08594-.07422-.07421-.10156-.04297-.10547-.04688-.10156-.04297-.0586-.08984-.04687-.10156-.08594-.21094-.0625-.08594-.05859-.08984-.07422-.07422-.08594-.0586h-.26953l-.11719.03126-.08984.05859-.10156.04297-.13281.01562-.10547-.01562-.02735-.11719-.0625-.08984-.11718-.03125-.10157-.04297-.14843-.14844-.03125-.11719-.01563-.10546.07422-.07422.17969-.1172.11719-.02733.11718-.03125.13672.01562.10156.04297.10547.04297.10156.04687.10547.04297.1172.03125.1328.01563.1172.02734.1328.01563.10547-.01563.08985-.0586-.07422-.07421-.10547-.04297-.07422-.07422-.07422-.08984-.14844-.14844-.08593-.0586-.08985-.05859-.07422-.07422-.08984-.0586-.10156-.04687-.1211-.02734-.10156-.04688-.10547-.04296-.11719-.03125-.10156-.04297-.1211-.03125h-.14843l-.11719.03125-.10546.04297-.08594.0625-.17969.11718-.08594.0586-.08984.0586-.10547.04687-.08594.05859-.10547.04297-.10156.04297-.10547.04687-.07422.07422-.05859.08985-.0586.08593-.04687.10547-.0586.08594-.07421.07422-.13281-.01172-.1172-.03125h-.11718l-.07422.07422-.08984.0586-.07422.07421-.08984.0586-.08594.05859-.10547.04687-.10156.04297-.13672.01563-.10156-.04297-.14844-.14844-.10547-.04688h-.08594l-.10547.04688-.10156.04297-.1211.03125-.11718-.03125-.07422-.07422v-.11719l.03125-.1211.07422-.0703.0586-.08985.07421-.07422.11719-.03125.10547-.04296h.29297l.13281-.01563.13672-.01563.10156-.04296.08985-.0586.10156-.04687.08984-.0586.13281-.01171.08985.05859.13281.01172.08984-.0586.08594-.05859.10547-.04297.08984-.0586.08594-.0625.08985-.05859.14843-.14843.0586-.08594.05859-.08985.10547-.04296.13281-.01563.11719.02735.1211.03125.05859-.0586.05859-.08984.03125-.26563.02734-.11719.10547.01172.13281.01563.10157-.04297.08984-.0586.0586-.08984.07421-.07422.0586-.08984.04687-.10156.01172-.13281-.01172-.13282-.04687-.10547-.14844-.14843-.0586-.08985-.05859-.08594-.04297-.10546v-.44532l.01563-.1328v-.14845l.01172-.1328-.0586-.0586-.08984.0586-.10156-.04298-.17969-.11719-.08594-.05859-.0625-.08984-.0586-.08985-.07421-.07421-.08594-.0586-.1211.03125-.10155.01172-.10547.04688-.08594.05859-.10547.04297-.14844.14844-.08984.05859-.08594.0586-.08984.0625-.10547.04296-.13281.01563v-.1211l.10547-.04297.11718-.03125.07422-.0703.04297-.10548v-.14844l-.02734-.11718-.14844-.14844-.13281-.01563h-.14844l-.11719.03125-.10547.04297-.10156.04297-.08984.0625-.11719.02735-.07422-.07422.01172-.13281-.04297-.10157-.04297-.10547-.08984-.05859-.11719.02734-.1211.03125-.11718.03125-.10156.04297-.1211.03125-.10156.04297-.10547.04297-.08984.0586-.10156.01562v-.11719l.01562-.13281-.0586-.08985-.07421.04297-.14844.14844-.0586.08985-.07421.07421-.04688.10547-.04296.10156-.07422.07422-.0586.08985-.07422.07422-.05859.08593-.07422.07422-.08984.0625-.07422.07031-.07422.07422-.10156.01563-.13281.01562-.10547-.04296v-.1211l.14843-.14844.04297-.10156.0586-.08984.04687-.10156.04297-.10547.0586-.08985.03124-.11719.04297-.10156.03125-.1211.02735-.11718.04687-.10547.04297-.10156.04297-.10547.07422-.07031.08984-.0625.08985-.0586.10156-.04296h.29687l.26563-.03125.10547-.04297-.07422-.07422-.11719-.03125-.10547-.04297-.08984-.0586-.10156-.04687-.08985-.0586-.10156-.04296-.10547-.04297-.08984-.0625-.08594-.0586-.10547-.04296-.10156-.04297-.1211-.03125-.11718-.03125-.10157-.04297L297.5 410.25l-.10156-.04297-.08985-.0586-.04296-.10546-.01563-.13281.10156-.04297.13281-.01563.13672.01563.13282-.01563.10156-.04297.0586-.08984.01562-.10547-.08985-.0586-.07421-.07421-.10157-.04297-.08984-.0586-.14844-.14843-.04297-.10547-.01562-.13281v-.29297l-.0586-.08985-.08984-.05859-.07422-.07422-.04297-.10547-.03125-.11718-.0586-.08985-.07421-.07422-.11719-.02734-.07422-.07422-.08984-.0586-.08984-.0625-.08594-.05859-.07422-.07421-.0586-.08594-.04687-.10547-.08594-.0586-.14843-.14843-.19532-.0586-.1328.01563-.10157.04297-.07422.07422-.04688.10156-.04296.10547-.0586.08984-.0586.08594-.29687.29687-.08984.0586h-.08594l-.0625-.08594-.04297-.10547.03125-.11719.0586-.08984.02734-.11719-.01172-.13281-.08984-.0625-.10547.04688-.11719.02734-.11719.03125-.26953.17578-.10156.04688-.11719.02734-.10546.04687-.08985.0586-.10156.04297-.0586-.08594-.04687-.10547.01563-.13281.04687-.10547.07031-.07422.07422-.07031.0586-.08985v-.14843l-.04297-.10547h-.23829l-.10156.04687-.03125.11719-.02734.11719-.03125.1211-.07422.04296-.13281.01563-.07422-.04688-.04297-.10156-.04297-.10547-.04687-.10156-.04297-.10547-.1211.03125-.10156.04297-.13281.01562-.11719.03125-.10547.04297-.08984.0586-.10156.04687-.1211.02734-.13281.01563-.10156-.04297-.0586-.08985-.04687-.10546-.04297-.10157-.04297-.10546v-.1172l.0586-.08984.08593-.05859.17969-.11719.10156-.04687.10547-.04297.10547-.0586.10156-.04296.08985-.0625.10156-.04297.10547-.0586.10156-.04687.08984-.0586.10547-.04296.10156-.04297.08985-.0625.10156-.04297.13672-.01563.11719.03125.10156.04297.1211.03125.10156.04297.10546.04688.10157.04296.10547.04297.10156.04688.10547.04297.10156.04297.10547.04687.08594.0586.10546.04296.1172.03125.10546.04297.10156.04688.08985.0586.10547.04296.10156.04297.10547.04687.11719.02735.10156.04687.1211.02735h.14843l.08594-.0586.01562-.10156.0586-.08984-.02735-.1172-.07422-.07421-.11719-.17969-.07421-.07422-.08985-.07421-.17969-.1172-.08593-.05859-.10547-.04296-.10156-.04688-.26954-.17578-.05859-.08985-.07422-.07421-.0586-.08985-.04296-.10156-.03125-.11719-.01563-.13672v-.5625l-.01171-.1328-.01563-.13282-.03125-.11719-.01562-.13281-.01172-.13281-.03125-.1211-.22266-.22265-.0586-.08594-.01562-.10547.03125-.11719.13281-.01562v-91.41406H172.9922v1.45312l-.0586.23438-.35156 1.05078-.17187.52343-.1172.34766-.17577.41016-.11719.17187-.23438.29297-.23046.0586h-.35157l-.11718.05859-.23047.40625v.29297l.11719.17578.23046.23047.1172.23437.64062.75781.29297.46485.17578.23437.23047.35156.23437.34766.64063.8164.17578.46485.17187.41016.11719.69531.17578.46875.11719 1.39844.0586.46484v.875l.11718 1.04688v4.78125l-.0586.46484-.35156 1.28125-.17578.52344-.11328.41015-.35156.9297L172.93359 336l-.23437.58203-.11719.17578-.17187.34766-.17578.40625-.35157.8164-.0586.29297-.11327.29297-.11719.28906-.0586.17579-.11718.875-.0586.40625-.05859.11718-.0586.17579-.05859.17187-.23047.52734-.11718.17188v.23437l-.11719.23438-.0586.17187-.17577.58594v.28906l-.0586.17579v.29296l-.0586.11329-.05859.52734v.17187l-.05468.23438v2.6211l-.17578.8164-.1172.17578-.17577.23438-.1172.17187-.11327.23438-.58594.93359-.23047.28906-.29297.46485-.17578.23437-.28906.35156-.35156.69922-.11328.23047-.17579.41016-.17578.23046-.40625.52735-.8164.69922-.29297.17187-.28906.23438-.17579.11719-.17578.17578-.52344.40625-.52734.17578-.17187.17578-.23438.05469-.64062.17578h-.75782m12.21094 31.02344l-1.07422.44921.35938.89454 1.25-.71485.44531-.53906-.98047-.08985"/><path fill="#d3d3d3" fill-opacity="0" fill-rule="evenodd" d="M201.50781 416.59766h-.89453l.44922.6289.98047.35938.80469-.08985.4453-.98828-.17577.08985-.71485-.35547-.89453.35547m154.6211 59.0703l-.0586-.52343v-.29297l.11328-.29297.0586-.23046.46875-.46875h.11328l.11719-.11329.11718-.05859h.17579l.23437-.0586h.34766l.23437.0586.11719.0586.23047.17187.0586.17578.11718.58203v.29297l-.11719.17578-.17187.28906-.17579.17579-.52734.52343-.23047.23438-.11719.0586h-.17578l-.11718-.0586-.40625-.29297-.17579-.11719-.11718-.0586-.0586-.11327-.05468-.1172m6.64062-10.95702l-.0586-.17188v-1.10937l.0586-.17188.17578-.0586.17188-.05858h.17578l.23437-.0586.1172.0586.05858.69921-.05859.17188-.11719.17578-.11718.0586-.23438.52343-.11328.0586h-.23438l-.05859-.1172m9.61328-14.39062l-.11719-.17578v-.69922l.29297-.875.1172-.17187.17577-.35156.11328-.23047.1172-.29297.35155-.75781.1172-.23047.17187-.23438h.17578l.11719-.0586h.64062l.11719.0586.23437.23438.17188.11328.35156.29297.11719.11718.11328.17579v.11328l.11719.05859.11718.11719v.69922l-.05859.17578v.23047l-.0586.17578-.34765 1.05078-.11719.23047-.11719.23437-.11718.0586-.23047.23437-.64063.28906h-.875l-.41015-.11718-.64063-.46485"/><path fill="none" stroke="#bebebe" stroke-linecap="round" stroke-linejoin="round" stroke-miterlimit="10" stroke-width=".5" d="M467.95703 311.69531H144.02734v168.625h323.9297v-168.625"/><g clip-path="url(#a)"><path fill="#fff" fill-opacity="0" fill-rule="evenodd" d="M144 475.89063v4.4375h.0039H144V311.67188h.0039H144v164.21875"/></g><g clip-path="url(#b)"><path fill="#fff" fill-opacity="0" fill-rule="evenodd" d="M144.0039 480.32813V311.67188h17.75v127.60937l-.8789 1.10156-.59375 4.4375-.8711 4.4414.57032 4.4375-.36328 4.4375.03125 4.4375 2.10547 2.1211 4.4375.69531 4.4375.42579 4.4375-2.53907.79297-.70312 1.30078-4.4375 2.34765-2.26563 2.08985-2.17187-2.08985-2.19531-2.39453-2.2422-.55078-4.4414L175.0664 441l-4.4375.76953-3.05077-1.38672-1.38672-.91015-4.4375-.19141V311.67187h53.26172v98.27344l-4.33985 3.8086 2.76563 4.4375-2.8672 1.67578-3.75 2.76172-.6875.5039-4.4375.05078-.22265-.55468-4.21484-4.34766-4.4414 1.02344-4.4375 1.51953-3.85157 1.80469-.58594.10156L180.5 427.0703l1.3164 4.4375.64063 4.4375 1.48828.625 3.24219-.625 1.19531-.80078 2.10938-3.63672-2.10938-3.95703-.05469-.48047.0547-.34375 4.4375-.03515 4.4414.18359.48437.19531-.48437.73438-3.27734 3.70312-.23047 4.4375 3.5078 1.38672 4.4375.36719 1.11329 2.6836-.5039 4.4375-.22266 4.4414 1.34375 4.4375 2.70703 2.53906 4.4375-1.00781 2.42969-1.53125 2.01172-.7539 2.82812-3.6836 1.60938-4.3711.05859-.0703-.0586-.08204-2.3164-4.35547-2.1211-1.9961-2.14062-2.4414-.67969-4.4375.46485-4.4375 1.01562-4.4414 1.33984-2.50391 2.76563-1.9336 1.67188-1.89843 1.47656-2.53906-1.47656-1.20313-4.4375-2.60547v-98.27344h31.0664V406.875l-1.3789 2.4414-3.0586 2.22657-4.4375-.98047-2.60937 3.1914.13672 4.4375-1.96875.77735-3.9336 3.66016-.5039 1.1875-3.07422 3.2539 3.07422 3.01563 4.4375 1.38281.01953.03906 4.42187 4.28906 4.07813-4.28906.35937-.51953 2.42969.51953 2.00781 1.48828 4.4375-.34765 1.45703-1.14063 2.98047-.47656 4.4414-1.14453 2.85938-2.8164.17188-4.44141-3.03125-2.875-4.4414.38671-4.4375-.1289-4.4375.69531-4.4375-1.01562-2.00392-1.5 2.00391-2.16797 3.03125-2.26953 1.40625-2.23829 1.35156-2.19921-1.35156-2.44141v-95.20313h22.1914V431l-.61718.50781.61719.46485.50781-.46485-.50781-.50781V311.67187h39.94531v98.62891l-3.70703 3.45313-.73047 3.7578-.49219.6797-3.94531 1.76562-4.4414-.98047-.84376-.78515-3.59375-3.32813-3.70703 3.32813-.73047 4.28906-.10156.14844.10156.0703 1.54297 4.3711 2.30078 4.4375.59375.75 1.39844-.75 3.03906-.41406v24.86719l-2.17578 2.17578 2.17578 4.02734 3.47266-4.02734-3.47266-2.17578v-24.86719l4.1836.41406.25781.08594.28516-.08594 4.15234-.58984 2.91016-3.84766-2.91016-3.10937-1.5586-1.33203 1.5586-3.85157 4.4375.56641 4.4375 2.8164 3.4336-3.96874-1.8125-4.4375-1.6211-2.64844-4.4375-.80469v-98.6289h17.7539V456.5l-2.77734 1.63672 2.77735 1.875 1.6328-1.875-1.6328-1.63672V311.67187h8.875v107.67579l-1.73047 3.28125 1.73047 1.78125 2.0703-1.78125-2.0703-3.28125V311.67187h62.13671V468.4375l-4.4375 1.83984-1.05468 1.17579.6211 4.4375.43358.43359.46094-.4336 3.97656-1.86328 3.27344-2.57421-3.27344-3.01563V311.67187h48.82422V458.1172l-.02343.01953-4.41407 1.84765-4.4414.26563-4.4375 1.08594-2.95703 1.23828 2.95703 2.20703 4.4375-.03125 2.53515 2.26563 1.90625 1.60937 1.34766-1.60938 3.08984-1.51953 2.88672-2.92187-2.86328-4.4375-.02344-.01953V311.67188h22.1875v150.15234l-.75.75.75.82031v5.5625l-4.43359-.84765-3.03516 3.34375-.20703 4.4375 1.74219 4.4375h-28.53906l.85547-4.4375 1.16406-4.4375-3.05078-3.83594-3.58203 3.83594 1.37109 4.4375-2.22656 1.8164-4.4375.45313-1.875-2.26954-2.5625-2.48046-1.92578-1.95704 1.1289-4.4375.79688-.33593 4.4375-.17578 4.35156-3.9297-.17578-4.4375.26172-1.1328 3.10156-3.3047 1.33594-.60937 3.47656-3.82812.38281-4.4414-3.85937-3.64454-4.4375.46875-4.27735 3.17578-.16015.1211-.69531-.1211-3.7422-3.48047-2.01171 3.48047-2.42969 1.01172-3.3086 3.42969-1.1289 3.89844-4.4375-1.95313-2.98437 2.49219-1.45313 3.10547-.95312 1.33203-1.4336 4.4375 2.38672 1.4336 3.29688-1.4336 1.14062-.33594.25781.33594.08985 4.4414-.34766 1.60547-1.96094 2.83204 1.96094 1.19921 4.4375 2.59375 4.4375.01563.64453.6289 3.79688 3.40625 1.34375 1.03125H144.0039"/></g><path fill="#50fcfc" fill-rule="evenodd" d="M159.98047 453.69922l-.57031-4.4375.87109-4.4414.59375-4.4375.8789-1.10157 4.4375.1914v7.1211l-1.96093 2.66797 1.96094 3.41797 3.97265-3.41797-3.97265-2.66797v-7.1211l1.38672.91016 3.05078 1.38672L175.0664 441v10.60547l-4.4375.91015-1.27735 1.1836-3.16015 2.78515-2.4297 1.65235 1.19532 4.4375 1.23438.3789 4.4375 1.00782 2.04687-1.38672 1.00781-4.4375 1.38282-2.28906 2.23047-2.14844-2.23047-2.09375V441l1.49609 3.82031.55078 4.4414 2.39453 2.2422 2.08985 2.1953-2.08985 2.17188-2.34765 2.26563-1.30078 4.4375-.79297.70312-4.4375 2.53907-4.4375-.42579-4.4375-.6953-2.10547-2.1211-.03125-4.4375.36328-4.4375"/><path fill="#00e8fc" fill-rule="evenodd" d="M164.95703 462.57422l-1.19531-4.4375 2.42969-1.65235 3.16015-2.78515 1.27735-1.1836 4.4375-.91015 2.23047 2.09375-2.23047 2.14844-1.38282 2.28906-1.0078 4.4375-2.04688 1.38672-4.4375-1.00781-1.23438-.37891"/><path fill="#fff" fill-opacity="0" fill-rule="evenodd" d="M166.1914 446.59375l-1.96093 2.66797 1.96094 3.41797 3.97265-3.41797-3.97265-2.66797"/><path fill="#50fcfc" fill-rule="evenodd" d="M181.8164 431.50781l-1.3164-4.4375 3.44531-4.33984v2.5l-1.45703 1.83984 1.45703 2.19531 1.85547-2.1953-1.85547-1.83985v-2.5l.58594-.10156 3.85156-1.8047 4.4375-1.51952 4.4414-1.02344v1.80469l-4.4414 1.09375-2.26562 1.44922 2.26562 1.77343 4.4414.71094 2.46485-2.48437-2.46484-2.54297v-1.80469l4.21484 4.34766.22266.55468 4.4375-.05078v3.58594l-2.10547.35156 2.10547.80469v7.47656l-2.39453.59375 2.39453.90625.59766-.90625-.59766-.59375V427.875l.71094-.80469-.71094-.35156v-3.58594l.6875-.5039 3.75-2.76172v20.40625l-.07422.10937-3.89844 4.4375-.46484.42188-1.33984 4.01953 1.33984 2.61328 4.4375.2461 4.4414-2.78126.0586-.07812 2.11328-4.4414-2.17188-2.76954-4.35546-1.66797-.08594-.10937v-20.40625l2.86719-1.67578-2.76563-4.4375 4.33984-3.8086v1.52344l-2.60156 2.28516 2.60156 2.96484 2.89844-2.96484-2.89844-2.28516v-1.52344l4.4375 2.60547 1.47657 1.20313-1.47656 2.53906-1.67188 1.89844-2.76563 1.93359-1.33984 2.5039-1.01562 4.44141-.46485 4.4375.67969 4.4375 2.14063 2.4414 2.12109 1.9961 2.3164 4.35547.0586.08203-.0586.07031-1.60937 4.3711-2.82813 3.6836-2.01171.7539-2.4297 1.53125-4.4375 1.00781-2.70702-2.53906-1.34375-4.4375.22265-4.4414.50391-4.4375-1.11328-2.6836-4.4375-.36719-3.50781-1.38672.23047-4.4375 3.27734-3.70312.48437-.73438-.48437-.19531-4.4414-.1836-4.4375.03516-.0547.34375.0547.48047 2.10937 3.95703-2.10938 3.63672-1.19531.80078-3.24219.625-1.48828-.625-.64062-4.4375"/><path fill="#00e8fc" fill-rule="evenodd" d="M183.94531 429.26563l-1.45703-2.19532 1.45703-1.83984 1.85547 1.83984-1.85547 2.19531m8.875-4.86328l-2.26562-1.77343 2.26562-1.44922 4.4414-1.09375 2.46485 2.54297-2.46484 2.48437-4.4414-.71094"/><path fill="#fff" fill-opacity="0" fill-rule="evenodd" d="M206.13672 435.35156l-2.39453.59375 2.39453.90625.59766-.90625-.59766-.59375"/><path fill="#00e8fc" fill-rule="evenodd" d="M206.13672 427.875l-2.10547-.80469 2.10547-.35156.71094.35156-.71094.80469m0 24l-1.33984-2.61328 1.33984-4.01953.46484-.42188 3.89844-4.4375.07422-.10937.08594.10937 4.35547 1.66797 2.17187 2.76953-2.11328 4.4414-.0586.07813-4.4414 2.78125-4.4375-.24609m8.8789-35.15625l-2.60156-2.96484 2.60156-2.28516 2.89844 2.28516-2.89844 2.96484"/><path fill="#50fcfc" fill-rule="evenodd" d="M228.32813 430.08594l-3.07422-3.01563 3.07422-3.2539.5039-1.1875 3.9336-3.66016 1.96875-.77734-.13672-4.4375 2.60937-3.19141v8.27734l-4.4414 1.4375-2.52735 2.35157-1.84375 4.4414 4.3711 2.57422.98437 1.86328 3.45703 3.35156 3.1875-3.35156 1.25-1.8125 4.4375-.5586 4.4375.96876 4.4375-.11719 4.4414-2.66015.26563-.25782.28516-4.4414-.55078-.52344-2.66797.52344-1.77344.22656-4.4375-.1211-4.4375 1.92579-3.15625-2.03125-1.28125-.48829-4.4375-3.30078v-8.27734l4.4375.98047 3.0586-2.22656 1.3789-2.44141 1.35156 2.4414-1.35156 2.19923-1.40625 2.23828-3.03125 2.26953-2.0039 2.16797 2.0039 1.5 4.4375 1.01562 4.4375-.69531 4.4375.1289 4.4414-.38671 3.03126 2.875-.17188 4.4414-2.85937 2.8164-4.4414 1.14454-2.98048.47656-1.45703 1.14063-4.4375.34765-2.00781-1.48828-2.42969-.51953-.35937.51953-4.07813 4.28906-4.42187-4.28906-.01953-.03906-4.4375-1.38281"/><path fill="#00e8fc" fill-rule="evenodd" d="M232.76563 429.64453l-4.3711-2.57422 1.84375-4.4414 2.52734-2.35157v2.1836l-.17968.16797.17969 1.49609.30078 2.94531 2.29297 4.4375 1.84765 1.79297 1.70313-1.79297 2.73437-3.96094 1.1289-.47656-1.1289-.89844-4.4375-3.33593-2.53906-.20703-1.90234-.16797v-2.1836l4.4414-1.4375 4.4375 3.30079 1.28125.48828 3.15625 2.03125 4.4375-1.92579 4.4375.1211v2.50781l-4.4375 1.64844-.08984.0586.08984.03906 4.4375 1.14062 1.86328-1.17969-1.86328-1.70703v-2.50781l1.77344-.22656 2.66797-.52344.55078.52344-.28516 4.4414-.26562.25781-4.4414 2.66016-4.4375.11719-4.4375-.96875-4.4375.5586-1.25 1.8125-3.1875 3.35156-3.45704-3.35157-.98438-1.86328"/><path fill="#00d4fc" fill-rule="evenodd" d="M232.76563 424.125l-.1797-1.4961.1797-.16796 1.90234.16797 2.53906.20703v2.01172l-2.17187 2.22265 1.92968 4.4375.2422.23047.21874-.23047 2.38281-4.4375-2.60156-2.22265v-2.01172l4.4375 3.33594 1.1289.89843-1.1289.47656-2.73437 3.96094-1.70313 1.79297-1.84766-1.79297-2.29296-4.4375-.30078-2.94531"/><path fill="#00c4fc" fill-rule="evenodd" d="M236.96484 431.50781l-1.92968-4.4375 2.17187-2.22265v2.01562l-.20312.20703.20312.47656.24219-.47656-.24219-.20703v-2.01562l2.60156 2.22265-2.3828 4.4375-.21876.23047-.24219-.23047"/><path fill="#00b8fc" fill-rule="evenodd" d="M237.20703 427.54688l-.20312-.47657.20312-.20703.24219.20703-.24219.47656"/><path fill="#00d4fc" fill-rule="evenodd" d="M250.51953 427.10938l-.08984-.03907.08984-.0586 4.4375-1.64843 1.86328 1.70703-1.86328 1.17969-4.4375-1.14063"/><path fill="#50fcfc" fill-rule="evenodd" d="M268.27344 431.97266l-.61719-.46485.61719-.50781.50781.50781-.50781.46485m17.7539-9.27344l-.10156-.07031.10156-.14844.73047-4.28906 3.70703-3.32813v2.1875l-1.26953 1.14063-1.71875 4.4375 2.42188 4.4414.5664.94531 4.4375 1.1836 4.44141.8086 4.4375-2.13282.60938-.80469-.60938-.65234-4.4336-3.78906-.0039-.00391-4.4414-1.45703-3.20704-2.97656-1.23047-1.14063v-2.1875l3.59375 3.32813.84375.78515 4.44141.98047 3.94531-1.76562.49219-.6797.73047-3.7578 3.70703-3.45313v1.4961l-2.10156 1.95703 2.10156 2.78906 1.67969 1.64844 2.75781 2.21875 1.92188-2.21875-1.92188-2.98829-1.41797-1.44921-3.01953-1.95704v-1.49609l4.4375.80469 1.6211 2.64844 1.8125 4.4375-3.4336 3.96875-4.4375-2.81641-4.4375-.5664-1.5586 3.85156 1.5586 1.33203 2.91016 3.10937-2.91016 3.84766-4.15234.58984-.28516.08594-.25781-.08594-4.1836-.41406-3.03906.41406-1.39844.75-.59375-.75-2.30078-4.4375-1.54297-4.3711"/><path fill="#00e8fc" fill-rule="evenodd" d="M289.89844 427.07031l-2.42188-4.4414 1.71875-4.4375 1.26953-1.14063v4.48828l-.54687 1.08985.54687.92578 1.20704-.92578-1.20704-1.08985v-4.48828l1.23047 1.14063 3.20703 2.97656 4.44141 1.45703v3.82422l-1.48047.6211 1.48047.41015.71484-.41016-.71484-.6211V422.625l.0039.0039 4.4336 3.78907.60938.65234-.60938.80469-4.4375 2.13281-4.4414-.8086-4.4375-1.18358-.56641-.94532"/><path fill="#00d4fc" fill-rule="evenodd" d="M290.46484 423.55469l-.54687-.92578.54687-1.08985 1.20704 1.08985-1.20704.92578"/><path fill="#50fcfc" fill-rule="evenodd" d="M294.90234 462.16406l-2.17578-4.02734 2.17578-2.17578 3.47266 2.17578-3.47266 4.02734"/><path fill="#00d4fc" fill-rule="evenodd" d="M299.34375 427.48047l-1.48047-.41016 1.48047-.6211.71484.6211-.71484.41016"/><path fill="#00e8fc" fill-rule="evenodd" d="M308.21875 416.54297l-2.10156-2.78906 2.10156-1.95704 3.01953 1.95704 1.41797 1.44921 1.92188 2.98829-1.92188 2.21875-2.75781-2.21875-1.67969-1.64844"/><path fill="#50fcfc" fill-rule="evenodd" d="M325.97266 460.01172l-2.77735-1.875 2.77735-1.63672 1.6328 1.63672-1.6328 1.875m8.875-35.60156l-1.73047-1.78125 1.73047-3.28125 2.0703 3.28125-2.0703 1.78125m57.26562 51.48046l-.6211-4.4375 1.0547-1.17578 4.4375-1.83984 3.27343 3.01563-3.27344 2.57421-3.97656 1.86329-.46094.43359-.43359-.4336"/><g clip-path="url(#c)"><path fill="#50fcfc" fill-rule="evenodd" d="M401.42578 464.00781l-2.38672-1.4336 1.4336-4.4375.95312-1.33202 1.45313-3.10547 2.98437-2.49219 4.4375 1.95313 1.1289-3.89844 3.3086-3.42969 2.42969-1.01172 2.01172-3.48047 3.74219 3.48047.6953.1211.16016-.1211 4.27735-3.17578 4.4375-.46875v2.28125l-4.4375.22656-1.53516 1.13672-2.90234 2.125-4.4375-.1289-4.4414 1.65234-.76173.79297.76172 4.0625.07813.375-.07813.25-4.4375 2.3164-4.4375-.76953-1.08203 2.64063 1.08203.86719 2.72266 3.5703.30078 4.44142-.875 4.4375 2.28906 1.71093 3.11719-1.71094 1.32031-1.40234 1.57031-3.03515 2.8711-1.21485 4.4375-.09375 3.46875-3.13281-.66797-4.4375 1.01172-4.4375.625-1.5625 4.4375-1.57031 1.1836-1.3047.26171-4.4414-1.44531-1.36328v-2.28125l3.85937 3.64453-.38281 4.4414-3.47656 3.82813-1.33594.60938-3.10156 3.30469-.26172 1.1328.17578 4.4375-4.35156 3.9297-4.4375.17578-.79688.33594-1.1289 4.4375 1.92578 1.95703 2.5625 2.48046 1.875 2.26954 4.4375-.45313 2.22656-1.8164-1.3711-4.4375 3.58204-3.83594v3.09375l-.6914.74219.6914 1.23046.58984-1.23046-.58984-.7422v-3.09374l3.05078 3.83594-1.16406 4.4375-.85547 4.4375h-13l-1.34375-1.03125-3.79688-3.40625-.64453-.62891-4.4375-.01563-4.4375-2.59375-1.96094-1.19921 1.96094-2.83204.34766-1.60546-.08985-4.44141-.2578-.33594-1.14063.33594-3.29688 1.4336"/></g><path fill="#00e8fc" fill-rule="evenodd" d="M405.86328 459.0039l-1.08203-.86718 1.08203-2.64063 4.4375.76954 4.4375-2.31641.07813-.25-.07813-.375-.76172-4.0625.76172-.79297 4.4414-1.65234 4.4375.1289v3.78125l-4.17187 2.97266-.26562.44922-1.45703 3.98828-2.98438 1.83984-2.82422 2.59766 2.82422 2.89453 4.4414-1.1289 4.4375.03906 2-1.8047-1.49218-4.4375.95703-4.4375-1.46484-2.97265v-3.78125l2.90234-2.125 1.53516-1.13672 4.4375-.22656 1.44531 1.36328-.26172 4.4414-1.1836 1.3047-4.4375 1.5703-.625 1.5625-1.01171 4.4375.66797 4.4375-3.46875 3.13282-4.4375.09375-2.8711 1.21485-1.5703 3.03515-1.32032 1.40235-3.11719 1.71093-2.28906-1.71094.875-4.4375-.30078-4.4414-2.72266-3.57031"/><path fill="#00d4fc" fill-rule="evenodd" d="M414.73828 465.46875l-2.82422-2.89453 2.82422-2.59766 2.98438-1.83984 1.45703-3.98828.26562-.44922 4.17188-2.97266v10.44922l-4.4375.32031-4.4414 1.02735-.0547.05078.0547.0586 4.4414.24609 4.4375.17187.52734-.47656-.52734-1.39844v-10.44922l1.46484 2.97266-.95703 4.4375 1.49219 4.4375-2 1.80469-4.4375-.03907-4.4414 1.12891"/><path fill="#00c4fc" fill-rule="evenodd" d="M414.73828 462.63281l-.05469-.0586.0547-.05077 4.4414-1.02735 4.4375-.3203.52734 1.39843-.52734.47656-4.4375-.17187-4.4414-.2461"/><path fill="#50fcfc" fill-rule="evenodd" d="M432.49219 464.78125l-2.95703-2.20703 2.95703-1.23828 4.4375-1.08594 4.4414-.26563 4.41407-1.84765.02343-.01953v3.58984l-2.30078.86719 2.30078.57031.5625-.57031-.5625-.86719v-3.58984l.02344.01953 2.86328 4.4375-2.88672 2.92187-3.08984 1.51954-1.34766 1.60937-1.90625-1.60938-2.53515-2.26562-4.4375.03125"/><path fill="#00e8fc" fill-rule="evenodd" d="M432.49219 472.6836l-.6914-1.23048.6914-.74218.58984.74219-.58984 1.23046m13.3164-9.53906l-2.30078-.57031 2.30078-.86719.5625.86719-.5625.57031"/><g clip-path="url(#d)"><path fill="#50fcfc" fill-rule="evenodd" d="M462.0625 480.32813l-1.74219-4.4375.20703-4.4375 3.03516-3.34375v2.375l-.8789.96875-.15235 4.4375 1.03125 1.80468 2.53125-1.80469.28125-4.4375-2.8125-.96875v-2.375l4.4336.84766v9.13672l-2.98048 2.23438h-2.95312"/></g><path fill="#00e8fc" fill-rule="evenodd" d="M463.5625 477.69531l-1.03125-1.80469.15234-4.4375.87891-.96875 2.8125.96875-.28125 4.4375-2.53125 1.8047"/><g clip-path="url(#e)"><path fill="#fff" fill-opacity="0" fill-rule="evenodd" d="M467.9961 478.09375l-2.98048 2.23438h2.98047v-2.23438"/></g><path fill="#50fcfc" fill-rule="evenodd" d="M467.9961 463.39453l-.75-.82031.75-.75v1.57031m0 5.5625v9.13672H468v-9.13672h-.0039"/><path fill="#fff" fill-opacity="0" fill-rule="evenodd" d="M467.9961 463.39453v5.5625H468v-5.5586l-.0039-.0039"/><path fill="#50fcfc" fill-rule="evenodd" d="M467.9961 461.82422v1.57031l.0039.0039v-1.57421h-.0039"/><g clip-path="url(#f)"><path fill="#fff" fill-opacity="0" fill-rule="evenodd" d="M467.9961 311.67188H468v150.15234-150.15235h-.0039"/></g><path fill="#fff" fill-opacity="0" fill-rule="evenodd" d="M432.51953 462.02734l.55078-5.8164-9.91797-.9336-.55078 5.81641 9.91797.9336"/><path fill-rule="evenodd" d="M424.75781 457.78125l.04688-.50781 6.26562.58984-.07422.78516-4.46875-.42188-.1289 1.38281-.55469-.05078-.01172-.5664-.03125-.2539-.0664-.23829-.1211-.21484-.1914-.19141-.28125-.17188-.38282-.14062"/><path fill="#fff" fill-opacity="0" fill-rule="evenodd" d="M215.19531 417.88672l.85156-5.77735-9.85156-1.45703-.85547 5.78125 9.85547 1.45313"/><path fill-rule="evenodd" d="M207.66406 413.23828l.07422-.5039 6.22656.91796-.11328.78125-4.4414-.65625-.20313 1.375-.55078-.08203.01953-.5625-.01562-.25781-.0547-.24219-.11327-.22265-.17969-.19922-.27344-.1836-.375-.16406"/><g clip-path="url(#g)"><path fill="none" stroke="#000" stroke-linecap="round" stroke-linejoin="round" stroke-miterlimit="10" stroke-width=".5" d="M146.3164 477.6875l-4.6328 5.28125"/></g><path fill="none" stroke="#000" stroke-linecap="round" stroke-linejoin="round" stroke-miterlimit="10" stroke-width=".5" d="M145.64453 478.45703l1.1914.28125"/><g clip-path="url(#h)"><path fill="none" stroke="#000" stroke-linecap="round" stroke-linejoin="round" stroke-miterlimit="10" stroke-width=".5" d="M160.14063 478.24219l-5.65235 4.17578"/></g><path fill="none" stroke="#000" stroke-linecap="round" stroke-linejoin="round" stroke-miterlimit="10" stroke-width=".5" d="M159.32031 478.84766l1.10547.53125"/><g clip-path="url(#i)"><path fill="none" stroke="#000" stroke-linecap="round" stroke-linejoin="round" stroke-miterlimit="10" stroke-width=".5" d="M173.6836 478.58984l-6.10548 3.48047"/></g><path fill="none" stroke="#000" stroke-linecap="round" stroke-linejoin="round" stroke-miterlimit="10" stroke-width=".5" d="M172.79297 479.09375l1.03906.65625"/><g clip-path="url(#j)"><path fill="none" stroke="#000" stroke-linecap="round" stroke-linejoin="round" stroke-miterlimit="10" stroke-width=".5" d="M187.07422 478.72656l-6.25781 3.20313"/></g><g clip-path="url(#k)"><path fill="none" stroke="#000" stroke-linecap="round" stroke-linejoin="round" stroke-miterlimit="10" stroke-width=".5" d="M186.16406 479.19531l1.0039.69922"/></g><g clip-path="url(#l)"><path fill="none" stroke="#000" stroke-linecap="round" stroke-linejoin="round" stroke-miterlimit="10" stroke-width=".5" d="M200.4414 478.83594l-6.36327 2.98437"/></g><g clip-path="url(#m)"><path fill="none" stroke="#000" stroke-linecap="round" stroke-linejoin="round" stroke-miterlimit="10" stroke-width=".5" d="M199.51563 479.26953l.98046.73828"/></g><g clip-path="url(#n)"><path fill="none" stroke="#000" stroke-linecap="round" stroke-linejoin="round" stroke-miterlimit="10" stroke-width=".5" d="M214.08594 480.24219l-7.02344.17187"/></g><g clip-path="url(#o)"><path fill="none" stroke="#000" stroke-linecap="round" stroke-linejoin="round" stroke-miterlimit="10" stroke-width=".5" d="M213.0664 480.26563l.60157 1.0703"/></g><g clip-path="url(#p)"><path fill="none" stroke="#000" stroke-linecap="round" stroke-linejoin="round" stroke-miterlimit="10" stroke-width=".5" d="M227.35156 480.92969l-6.92187-1.20313"/></g><g clip-path="url(#q)"><path fill="none" stroke="#000" stroke-linecap="round" stroke-linejoin="round" stroke-miterlimit="10" stroke-width=".5" d="M226.34375 480.7539l.38281 1.16798"/></g><g clip-path="url(#r)"><path fill="none" stroke="#000" stroke-linecap="round" stroke-linejoin="round" stroke-miterlimit="10" stroke-width=".5" d="M240.625 481.14063l-6.83984-1.6211"/></g><g clip-path="url(#s)"><path fill="none" stroke="#000" stroke-linecap="round" stroke-linejoin="round" stroke-miterlimit="10" stroke-width=".5" d="M239.6289 480.90234l.3125 1.1875"/></g><g clip-path="url(#t)"><path fill="none" stroke="#000" stroke-linecap="round" stroke-linejoin="round" stroke-miterlimit="10" stroke-width=".5" d="M254.0039 480.77734l-6.96874-.89843"/></g><g clip-path="url(#u)"><path fill="none" stroke="#000" stroke-linecap="round" stroke-linejoin="round" stroke-miterlimit="10" stroke-width=".5" d="M252.99219 480.64844l.4336 1.14844"/></g><g clip-path="url(#v)"><path fill="none" stroke="#000" stroke-linecap="round" stroke-linejoin="round" stroke-miterlimit="10" stroke-width=".5" d="M267.32813 480.72656l-6.98438-.79687"/></g><g clip-path="url(#w)"><path fill="none" stroke="#000" stroke-linecap="round" stroke-linejoin="round" stroke-miterlimit="10" stroke-width=".5" d="M266.3125 480.60938l.44922 1.14062"/></g><g clip-path="url(#x)"><path fill="none" stroke="#000" stroke-linecap="round" stroke-linejoin="round" stroke-miterlimit="10" stroke-width=".5" d="M280.66406 480.3711l-7.02734-.08594"/></g><g clip-path="url(#y)"><path fill="none" stroke="#000" stroke-linecap="round" stroke-linejoin="round" stroke-miterlimit="10" stroke-width=".5" d="M279.64063 480.35938l.5625 1.08984"/></g><g clip-path="url(#z)"><path fill="none" stroke="#000" stroke-linecap="round" stroke-linejoin="round" stroke-miterlimit="10" stroke-width=".5" d="M293.96875 480.59766l-7.00781-.53907"/></g><g clip-path="url(#A)"><path fill="none" stroke="#000" stroke-linecap="round" stroke-linejoin="round" stroke-miterlimit="10" stroke-width=".5" d="M292.94922 480.51953l.49219 1.125"/></g><g clip-path="url(#B)"><path fill="none" stroke="#000" stroke-linecap="round" stroke-linejoin="round" stroke-miterlimit="10" stroke-width=".5" d="M307.1289 481.39453l-6.6953-2.13281"/></g><g clip-path="url(#C)"><path fill="none" stroke="#000" stroke-linecap="round" stroke-linejoin="round" stroke-miterlimit="10" stroke-width=".5" d="M306.15625 481.08594l.21875 1.20703"/></g><g clip-path="url(#D)"><path fill="none" stroke="#000" stroke-linecap="round" stroke-linejoin="round" stroke-miterlimit="10" stroke-width=".5" d="M320.42969 481.4336l-6.66797-2.21094"/></g><g clip-path="url(#E)"><path fill="none" stroke="#000" stroke-linecap="round" stroke-linejoin="round" stroke-miterlimit="10" stroke-width=".5" d="M319.46094 481.11328l.20703 1.20703"/></g><g clip-path="url(#F)"><path fill="none" stroke="#000" stroke-linecap="round" stroke-linejoin="round" stroke-miterlimit="10" stroke-width=".5" d="M333.51953 481.96484l-6.21875-3.27343"/></g><g clip-path="url(#G)"><path fill="none" stroke="#000" stroke-linecap="round" stroke-linejoin="round" stroke-miterlimit="10" stroke-width=".5" d="M346.64063 482.28906l-5.82813-3.92187"/></g><g clip-path="url(#H)"><path fill="none" stroke="#000" stroke-linecap="round" stroke-linejoin="round" stroke-miterlimit="10" stroke-width=".5" d="M360.10938 482.03906l-6.13672-3.42187"/></g><g clip-path="url(#I)"><path fill="none" stroke="#000" stroke-linecap="round" stroke-linejoin="round" stroke-miterlimit="10" stroke-width=".5" d="M373.69531 481.42188l-6.67969-2.1875"/></g><g clip-path="url(#J)"><path fill="none" stroke="#000" stroke-linecap="round" stroke-linejoin="round" stroke-miterlimit="10" stroke-width=".5" d="M372.72266 481.10156l.21093 1.21094"/></g><g clip-path="url(#K)"><path fill="none" stroke="#000" stroke-linecap="round" stroke-linejoin="round" stroke-miterlimit="10" stroke-width=".5" d="M387.1836 480.1875l-7.02344.28125"/></g><g clip-path="url(#L)"><path fill="none" stroke="#000" stroke-linecap="round" stroke-linejoin="round" stroke-miterlimit="10" stroke-width=".5" d="M386.16016 480.22656l.62109 1.0625"/></g><g clip-path="url(#M)"><path fill="none" stroke="#000" stroke-linecap="round" stroke-linejoin="round" stroke-miterlimit="10" stroke-width=".5" d="M400.5 480.23438l-7.02734.1875"/></g><g clip-path="url(#N)"><path fill="none" stroke="#000" stroke-linecap="round" stroke-linejoin="round" stroke-miterlimit="10" stroke-width=".5" d="M399.47656 480.26172l.60547 1.07031"/></g><g clip-path="url(#O)"><path fill="none" stroke="#000" stroke-linecap="round" stroke-linejoin="round" stroke-miterlimit="10" stroke-width=".5" d="M413.67969 479.36328l-6.75781 1.92969"/></g><g clip-path="url(#P)"><path fill="none" stroke="#000" stroke-linecap="round" stroke-linejoin="round" stroke-miterlimit="10" stroke-width=".5" d="M413.67969 479.36328l1.70312 1.76953"/></g><g clip-path="url(#Q)"><path fill="none" stroke="#000" stroke-linecap="round" stroke-linejoin="round" stroke-miterlimit="10" stroke-width=".5" d="M412.69531 479.64453l.85156.88281"/></g><g clip-path="url(#R)"><path fill="none" stroke="#000" stroke-linecap="round" stroke-linejoin="round" stroke-miterlimit="10" stroke-width=".5" d="M426.71875 478.67969l-6.20703 3.29687"/></g><g clip-path="url(#S)"><path fill="none" stroke="#000" stroke-linecap="round" stroke-linejoin="round" stroke-miterlimit="10" stroke-width=".5" d="M426.71875 478.67969l2.03516 1.375"/></g><g clip-path="url(#T)"><path fill="none" stroke="#000" stroke-linecap="round" stroke-linejoin="round" stroke-miterlimit="10" stroke-width=".5" d="M425.8164 479.16016l2.03516 1.37109"/></g><g clip-path="url(#U)"><path fill="none" stroke="#000" stroke-linecap="round" stroke-linejoin="round" stroke-miterlimit="10" stroke-width=".5" d="M424.91406 479.64063l1.01563.68359"/></g><g clip-path="url(#V)"><path fill="none" stroke="#000" stroke-linecap="round" stroke-linejoin="round" stroke-miterlimit="10" stroke-width=".5" d="M439.78125 478.27344l-5.69922 4.10937"/></g><path fill="none" stroke="#000" stroke-linecap="round" stroke-linejoin="round" stroke-miterlimit="10" stroke-width=".5" d="M439.78125 478.27344l2.20313 1.08594"/><g clip-path="url(#W)"><path fill="none" stroke="#000" stroke-linecap="round" stroke-linejoin="round" stroke-miterlimit="10" stroke-width=".5" d="M438.95313 478.8711l2.19921 1.08593"/></g><g clip-path="url(#X)"><path fill="none" stroke="#000" stroke-linecap="round" stroke-linejoin="round" stroke-miterlimit="10" stroke-width=".5" d="M453.30469 478.60156l-6.11719 3.45313"/></g><g clip-path="url(#Y)"><path fill="none" stroke="#000" stroke-linecap="round" stroke-linejoin="round" stroke-miterlimit="10" stroke-width=".5" d="M453.30469 478.60156l2.07031 1.32031"/></g><g clip-path="url(#Z)"><path fill="none" stroke="#000" stroke-linecap="round" stroke-linejoin="round" stroke-miterlimit="10" stroke-width=".5" d="M466.30078 482.53125l-5.47656-4.40625"/></g><g clip-path="url(#aa)"><path fill="none" stroke="#000" stroke-linecap="round" stroke-linejoin="round" stroke-miterlimit="10" stroke-width=".5" d="M146.92969 465.07031l-5.85938 3.88672"/></g><path fill="none" stroke="#000" stroke-linecap="round" stroke-linejoin="round" stroke-miterlimit="10" stroke-width=".5" d="M146.07422 465.63672l1.08203.58594m13.34375-.69141l-6.3711 2.96484m5.44532-2.53515l.98047.73828m13.35156-.96094l-6.55078 2.55078m5.59766-2.17969l.92968.80079m13.33203-1.1836l-6.53906 2.57422m5.58594-2.19922l.9336.79688m13.29687-1.25782l-6.46485 2.7461m5.52735-2.34766l.95312.77344m13.38672-.94922l-6.64062 2.30078m5.67578-1.96484l.89844.83594m13.53515.51953l-6.94531-1.08203m5.9336.92187l.40234 1.16016m13.88672-.8125l-6.8711-1.45703m5.8711 1.24609l.33984 1.17969m13.67187-.10547l-6.26562-3.1836m5.35547 2.71875l.02344 1.22657m14.55468-1.90235l-6.96875-.90234m5.95313.76953l.4336 1.14844m13.91405-1.17969l-7.0039-.57422m5.98437.49219l.48438 1.125m13.86328-1.38281l-7.02734.10547m6.0039-.08985l.59375 1.07422m13.10547.98047l-5.75-4.03516m4.91406 3.44922l-.15234 1.21875m14.4414-.84765l-6.02734-3.60547m5.15235 3.08203l-.0625 1.22656m14.75-2.33203l-7.01954-.34766m5.9961.29688l.52344 1.10937m13.80468-1.55468l-7 .64453m5.98047-.55078l.67188 1.02734m13.6328-1.35547l-6.9414 1.11328m20.30078-.61328l-7.02734.11328m6.0039-.09765l.59376 1.07421m13.6875-.41406l-6.91797-1.23828m5.91406 1.0586l.375 1.16796m12.50781 1.26563l-4.04297-5.7461m3.45704 4.91016l-.5547 1.09375m13.95704.03516l-3.04688-6.33203m2.60547 5.41015l-.72656.98828m15.60547-.92187l-5.28906-4.6211m4.51953 3.94922l-.28125 1.19532m14.79687-1.13672l-6.15234-3.39453m5.25781 2.90234l-.01953 1.22656m14.52734-1.45312l-6.75-1.95703m5.76954 1.67187l.25 1.19922m13 .73828l-4.65625-5.26172m4.65625 5.26172l-.85938 2.30078"/><g clip-path="url(#ab)"><path fill="none" stroke="#000" stroke-linecap="round" stroke-linejoin="round" stroke-miterlimit="10" stroke-width=".5" d="M147.32031 452.55078l-6.64062 2.29688"/></g><path fill="none" stroke="#000" stroke-linecap="round" stroke-linejoin="round" stroke-miterlimit="10" stroke-width=".5" d="M146.35547 452.88672l.89844.83594m13.5625-.33204l-7 .6172m5.98047-.52735l.66796 1.02734m13.67578-.90234l-7.02343.1875m6.0039-.16016l.60547 1.0664m13.73047-.91796l-7.02344-.16797m6.00391.14453l.54688 1.09766m13.77734-1.44531l-7.0039.57812m5.98437-.49219l.66406 1.03125m13.6289-1.4453l-6.91796 1.23437m5.91015-1.0547l.75782.96485m13.59765-.90625l-6.98437.7539m5.96875-.64452l.6875 1.01562m13.66015-.58593l-7.01953-.32032m6 .27344l.52344 1.10938m13.8164-1.17188l-7.02734-.10156m6.0039.08594l.5586 1.08984m13.7461-.64063l-6.96094-.96875m5.94922.82813l.41797 1.15234m13.9414-1.57812l-7.02734.16015m6.0039-.13671l.60157 1.0703m13.58984-2.01562l-6.73437 2.00782m5.7539-1.71485l.86328.875m13.48438-.98437l-6.83594 1.64062m5.83985-1.40234l.8125.91797m13.01171 1.60156l-5.86328-3.875m5.01172 3.3086l-.11719 1.22265m14.8672-2.5586l-7.02735-.07421m6.0039.0664l.5625 1.08594m13.6211-2.14453l-6.71875 2.0625m5.74219-1.76172l.86718.86719m13.52735-.72266l-6.92578 1.17188m5.91796-1l.75.96875m10.53125 2.93359l-.84375-6.97656m15.96485 6.20703l-4.45313-5.4375M385.25 455.625l-.47266 1.13281m14.02735-.05078l-3.63672-6.01562m3.10547 5.14062l-.6289 1.05078m12.10546.28516l1.10547-6.9375m-.94531 5.92969l-1.16016.39843m12.73438-.0664l4.26562-5.58594m-3.64453 4.77344l-1.21094-.20313m13.70703.85157l4.66016-5.25782m-3.98438 4.49219l-1.1914-.28906m13.66015.89062l5.00391-4.9336m-4.27734 4.21876l-1.17188-.36719m18.76172 1.08203l-5.0039-4.9336m4.27734 4.21876l-.35156 1.17578"/><g clip-path="url(#ac)"><path fill="none" stroke="#000" stroke-linecap="round" stroke-linejoin="round" stroke-miterlimit="10" stroke-width=".5" d="M147.41016 441.22656l-6.82032-1.6875"/></g><path fill="none" stroke="#000" stroke-linecap="round" stroke-linejoin="round" stroke-miterlimit="10" stroke-width=".5" d="M146.41797 440.98047l.30078 1.1914m14.09375-1.4414l-6.99219-.69531m5.97266.59375l.46875 1.13671m13.8789-1.5625l-7.01953.35938m5.9961-.30469l.63281 1.05078m13.69922-1.19922l-7.00781.55079m5.98828-.47266l.66015 1.03516m13.63282-.2422l-6.92578-1.1953m5.91796 1.02343l.38282 1.16407m13.80468-.46485l-6.65625-2.25m5.6875 1.92578l.19922 1.21094m14.26953-2.10156l-7.02343.1836m6-.16016l.60547 1.0703m13.66406-1.6953l-6.88672 1.3828m5.88672-1.17968l.77734.94922m13.35938.83984l-6.52735-2.60156m5.57813 2.22266l.13281 1.21875m14.01563-.58203l-6.29688-3.1172m5.38281 2.66407l.03516 1.22656M280 442.4375l-5.69922-4.10938m4.8711 3.51172l-.16797 1.21485m14.96093-2.99219l-6.99609.64062m5.97656-.54687l.67188 1.02734m13.42969-2.09375l-6.53125 2.58985m5.58203-2.21485l.93359.79297m13.38281 1.27735l-6.63672-2.3047m5.67188 1.96876l.1875 1.21484m14.03125-.70703l-6.51172-2.64453m5.5625 2.25781l.125 1.22266m14.36328-1.6875l-6.96094-.9414m5.94922.80468l.42578 1.14844m11.00391 1.98047l-1.16797-6.9297m1 5.92188l-.97265.75m14.30859.28125l-.875-6.97265m17.21484 4.08593l-6.92187-1.20312m17.65625 4.0039l-1.76172-6.80468m1.5039 5.8164l-.90234.82813m12.53906.10937l2.10938-6.70312m-1.80078 5.72656l-1.20703.22656m12.97656.0625l4.58203-5.32812m-4.58203 5.32812l-2.39063-.53906m15.94141.72266l4.11328-5.69531m-4.11328 5.6953l-2.4336-.33202m15.38282.02734l4.84766-5.08594m-4.14454 4.34766l-1.17968-.33203m18.33203 1.33203l-4.23828-5.60547m3.62109 4.78906l-.51562 1.11328"/><g clip-path="url(#ad)"><path fill="none" stroke="#000" stroke-linecap="round" stroke-linejoin="round" stroke-miterlimit="10" stroke-width=".5" d="M147.28125 428.32422l-6.5625-2.50781"/></g><path fill="none" stroke="#000" stroke-linecap="round" stroke-linejoin="round" stroke-miterlimit="10" stroke-width=".5" d="M146.32813 427.95703l.15234 1.21875m14.32031-1.67969l-6.97266-.85546m5.96094.73046l.4375 1.14844m11.42578-1.44922l-.01953-.20312-.0586-.1914-.09374-.17579-.46094-.375-.1914-.0586-.19922-.01953-.19922.01954-.1914.05859-.45704.375-.09375.17578-.0586.1914-.01952.20313.01953.19922.05859.1914.09375.17579.45703.375.1914.0586.19923.01952.19922-.01953.1914-.0586.46094-.375.09375-.17577.0586-.1914.01952-.19923m15.56641-1.28125l-6.54688 2.5586m18.33985-4.32422l-3.5039 6.08984m14.5703.4336l.9922-6.95704m12.96484 6.98828l-.28907-7.01953m11.98828 6.69922l2.94532-6.3789m12.38281 6.66015l-1.08594-6.9414m.92969 5.93359l-.98047.73437m14.2539.30079l-.6914-6.9961m.59375 5.97656l-1.02344.6797m13.6875.33202l.8086-6.98047m-.6914 5.96485l-1.14063.44922m17.51172-.76172l-5.53907-4.32422m19.21875 3.7539l-6.26562-3.18359m5.35547 2.71875l.01953 1.22656m14.51562-1.65625l-6.88672-1.39453m5.88672 1.19141l.34766 1.17578m13.29297.4961l-5.53516-4.33204m4.73047 3.69922l-.21484 1.21094m9.10937-.23047l4.91406-5.02734m9.02344 5.51172l3.66797-5.9961m-3.13281 5.125l-1.22656-.07422m13.1328.1836l5.41798-4.47266m-4.62891 3.82422l-1.13672-.46875m14.79688-4.26172l3.14843 6.28516m-2.6914-5.3711l.71094-1m16.61718 1.23828l-5.79297 3.98047m4.94922-3.40234l1.08985.5664m6.78906-.09765l6.76562 1.88672m10.67188-4.3789l-1.47656 6.87109m10.95312-1.77735l6.19922-3.3164m-5.29688 2.83203l-1.01953-.6836m14.83594 2.58594l3.39453-6.15234m-3.39453 6.15234l-2.45312-.03906m17.76171.46484l-.59765-7.0039m.51172 5.98437l-1.03125.66406"/><g clip-path="url(#ae)"><path fill="none" stroke="#000" stroke-linecap="round" stroke-linejoin="round" stroke-miterlimit="10" stroke-width=".5" d="M147.51172 413.85156l-7.02344-.19531"/></g><path fill="none" stroke="#000" stroke-linecap="round" stroke-linejoin="round" stroke-miterlimit="10" stroke-width=".5" d="M146.48828 413.82031l.54688 1.10156m13.71484-1.91015l-6.8711 1.48437m5.8711-1.26953l.79297.9375m13.59375-.61328l-7.01563.40625m5.9961-.34766l.63672 1.04688m13.70312-.92578l-7.02344.04687m6.00391-.04297l.58203 1.08204m11.14063-4.46094l-1.80078 6.79297m10.74218-2.85938l6.94531-1.07031m-5.93359.91406l-.73437-.98437m13.14843 1.625l6.72657-2.03907m-5.7461 1.7422l-.86719-.8711m13.92188 2.46484l5.28516-4.63281m-4.51563 3.95703l-1.14844-.4336m17.33203 2.16016l-1.99218-6.73828m1.70312 5.75781l-.875.85938m13.29297.26172l.38281-7.01563m-.32812 5.9961l-1.11328.51562m13.07031.17578l2.99219-6.35937m-2.5586 5.4336l-1.22656.05859m15.96094 1.18359l-.71484-6.99219m.60937 5.97266l-1.01953.6836m17.55078-2.60938l-6.9375-1.10157m15.59766 3.85547l2.37109-6.61328m9.38672 5.5039l5.48437-4.39062m-4.6875 3.75391l-1.125-.48828m13.08985.14844l6.58984-2.44141m6.99219 3l6.0586-3.55469m-5.1797 3.03516l-1.04296-.64063m13.16797.47657l6.67968-2.1875m-5.70703 1.86718l-.88281-.84765m13.1836-.88282l6.76171 1.91407m-5.77734-1.63672l-.25781-1.19922m12.7578.46094l6.42579 2.83593m-5.49219-2.42578l-.08984-1.22265m14.35156-1.01953l2.66406 6.5m-2.27734-5.5547l.78516-.9453m14.89453.03515l-2.83594 6.42969m2.42187-5.4961l1.22657-.08593m12.96093-.60156l-3.7539 5.9375m3.20703-5.07422l1.22656.09375m10.35156 5.5l.8125-6.98047m-.6953 5.96484l-1.14063.44922m17.60547-.88281l-5.72266-4.07813m4.89062 3.48438l-.16015 1.21484"/><g clip-path="url(#af)"><path fill="none" stroke="#000" stroke-linecap="round" stroke-linejoin="round" stroke-miterlimit="10" stroke-width=".5" d="M147.4961 400.08594l-6.9922.70703"/></g><path fill="none" stroke="#000" stroke-linecap="round" stroke-linejoin="round" stroke-miterlimit="10" stroke-width=".5" d="M146.47656 400.1875l.6836 1.01953m13.66406-.92578l-7.01953.3125m6-.26563l.6211 1.0547m13.4375-2.32423l-6.46485 2.75782m5.52344-2.35547l.95312.76953m9.9336-3.30469l.27343 7.02344m-.23437-6l1.0625-.61719m10.28515.26172l4.1289 5.6875m-3.52733-4.85938l.53906-1.10156m11.3125 1.17578l5.85547 3.88672M208.5 399.0586l.1211-1.21875m11.77734 2.97266l6.98437-.7461m-6.98437.7461l-1.3789-2.03125m14.83593.59375l6.69922 2.125m-5.72266-1.8164l-.22266-1.20313m12.83204 3.65234l6.15625-3.38672m-5.25782 2.89454l-1.02734-.67188m15.42188 2.80469l2.20312-6.67188m-1.88281 5.70313l-1.20703.20703m13.07812.14453l4.44922-5.4375m-3.80078 4.64844l-1.20313-.24219m13.56641.7539l5.05469-4.8828m-4.32031 4.17187l-1.16407-.3789M301 402.58593l5.5625-4.29688m-4.7539 3.67188l-1.1172-.5039m12.89454-1.19142l7.01953.34375m6.8164 1.6797l5.97657-3.69923m7.28906.08204l6.07813 3.53125m-5.19532-3.01563l.04688-1.22656m12.07812 1.40625l6.6914 2.14453m-5.71874-1.83203l-.21875-1.20703m13.17578 4.17578l5.46484-4.41797m-4.67187 3.77344l-1.1289-.48047m19.6953.07812l-6.6289-2.32812m13.78515-.89453l5.69141 4.12109m9.60547 1.34375l1.72656-6.8125m15.10547 1.10547l-5.3086 4.60547m4.53907-3.9375l1.14453.4414m13.3086-.60156l-6.04297 3.58594m6.04296-3.58594l2.09766 1.27735m11.04297 2.57421l-5.69531-4.11328m4.86719 3.51172l-.16407 1.21875m14.17969-.44922l-5.4375-4.44922m5.4375 4.44922l-.48047 2.40625"/><g clip-path="url(#ag)"><path fill="none" stroke="#000" stroke-linecap="round" stroke-linejoin="round" stroke-miterlimit="10" stroke-width=".5" d="M147.08984 385.44922l-6.17968 3.34765"/></g><path fill="none" stroke="#000" stroke-linecap="round" stroke-linejoin="round" stroke-miterlimit="10" stroke-width=".5" d="M160.82422 387.32813l-7.01563-.41016m17.19922-3.28906l-.75781 6.98828m.64844-5.96875l1.14062-.45703m11.64844-.57032l.51563 7.00782m-.44141-5.98829l1.03906-.65625m10.85547.01172l3.20703 6.25391m-3.20703-6.2539l1.39844-2.01173m13.01172 1.66407l1.01953 6.95312m-.8711-5.9414l.98828-.73047m9.19141 2.85547l6.99219.67578m-5.97656-.57813l-.46875-1.13281m12.91406 2.42969l6.70312-2.11328m-5.73047 1.80468l-.875-.85937m13.53516-1.66406l6.0664 3.55078m6.9922-.54297l6.57812-2.46485m-5.6211 2.10547l-.92187-.8125m13.32813 1.30079l6.48047-2.72266m-6.48047 2.72265l-1.89844-1.55078m15.04687 1.05079l6.8125-1.72266m-6.8125 1.72265l-1.64843-1.8203m15.3203 2.70312l6.10157-3.48828m-6.10156 3.48828l-2.07422-1.3086m15.05078.4961l6.77735-1.86328m-5.78907 1.59375l-.84375-.89454m19.99219-.5078l-6.86719 1.48046m19.76563 1.0664l-6.03125-3.60937m5.15234 3.08203l-.0625 1.22657m12.83594.625l-3.1914-6.26172m2.72656 5.35156l-.70313 1.0039m15.55469-.9375l-5.33594-4.5703m4.5625 3.90234l-.26953 1.19922m15.13672-3.51172l-6.89063 1.38672m5.88672-1.1836l.77735.94531m13.125-2.23046l-6.0586 3.55468m5.17969-3.03906l1.04297.64453m13.55469-.1289l-6.8672 1.48828m5.8672-1.27344l.79296.9375m12.82032-2.6211l-5.46094 4.42579m4.66406-3.78125l1.1289.48047m13.1172-.94532l-5.73047 4.06641m5.73047-4.0664l2.1914 1.09765m11.54297 2.1875l-6.5664-2.5039m5.60937 2.14062l.15234 1.21484m13.40625.29297l-5.14062-4.79297m5.14062 4.79297l-.63672 2.3711"/><g clip-path="url(#ah)"><path fill="none" stroke="#000" stroke-linecap="round" stroke-linejoin="round" stroke-miterlimit="10" stroke-width=".5" d="M147.2461 372.46094l-6.4922 2.6914"/></g><path fill="none" stroke="#000" stroke-linecap="round" stroke-linejoin="round" stroke-miterlimit="10" stroke-width=".5" d="M146.30078 372.85547l.94922.77734m13.19922-1.41015l-6.26953 3.17187m5.35937-2.71094l1 .70704m12.6289-2.01172l-5.07421 4.85937m4.33594-4.15234l1.16406.38281m11.29297-2.04688l-1.88281 6.76954m1.8828-6.76954l2.39454-.52734m13.23047 2.58594l-6.5039 2.65625m6.5039-2.65625l1.88672 1.5664m11.63281.40235l-6.91016-1.28125m6.91016 1.28125l.73438 2.33984m-1.7422-2.52734l.73829 2.33984m13.48437-1.75l-6.71093-2.08594m6.71093 2.08594l.45703 2.41016m-1.43359-2.71485L226.5 375.75m13.88672-.44922l-6.36328-2.98437m6.36328 2.98437l.1211 2.44922m13.3828-2.94922l-6.73828-1.98828m5.75782 1.69922l.24609 1.20312m13.83984-3.4414l-6.3203 3.07031m6.3203-3.07031l1.98438 1.44922m11.5-1.03125l-6.66016 2.23437m5.6914-1.91015l.89063.84375m6.73047 1.05859l6.66797-2.22266m-5.69922 1.90235l-.88672-.84766m13.36328 1.5l6.40625-2.88281m-6.40625 2.88281l-1.9414-1.5039m15.80078 2.36327l5.3164-4.60156m-5.3164 4.60156l-2.28906-.88671m20.86719.9453l-5.20704-4.71874m4.44922 4.03125l-.30078 1.1914m14.26563-.39062l-4.9922-4.94531m4.9922 4.94531l-.70704 2.34766m14.5625-3.05079l-6.07421-3.53906m6.07421 3.53906l-.09765 2.45313m13.63672-2.91406L367.09375 372.5m6.52344 2.61719l.26172 2.4414m13.07421-5.0039l-6.5625 2.50781m5.60547-2.14453l.92579.80469m11.91796-2.89844l-3.70703 5.96875m3.16797-5.10156l1.22266.08203m12.83594-.8125l-4.1172 5.69531m3.51954-4.86719l1.21484.16797m12.92969-.8125l-4.58203 5.32813m3.91797-4.5547l1.19531.26954m12.76172-1.0625l-4.53906 5.36719m3.8789-4.58594l1.19922.26172m14 1.2539l-6.98437.77344m5.96875-.66015l.6914 1.01171m11.98828 2.25391l-3.67968-5.98437m3.14453 5.11328l-.6211 1.0586"/><g clip-path="url(#ai)"><path fill="none" stroke="#000" stroke-linecap="round" stroke-linejoin="round" stroke-miterlimit="10" stroke-width=".5" d="M147.2461 359.14844l-6.4922 2.6875"/></g><path fill="none" stroke="#000" stroke-linecap="round" stroke-linejoin="round" stroke-miterlimit="10" stroke-width=".5" d="M147.2461 359.14844l1.89452 1.5625m11.50391-1.33594l-6.66016 2.23828m5.69141-1.91406l.89063.84375m13.5625-.35938l-7 .6172m20.28906.21874l-6.94531-1.05078m6.9453 1.05078l.81642 2.3125m12.51953-2.47656l-6.98828-.72656m6.98828.72656l.92187 2.27344m-1.9375-2.37891l.92188 2.27344m13.42968-2.46094l-7.02734-.14063m7.02734.14063l1.10547 2.1914m-2.1289-2.21093l.55468 1.09375m13.77735-1.35938l-7.01563.4297m7.01563-.4297l1.28125 2.09375m11.99219-1.30468l-6.9336-1.14844m5.92578.98437l.39063 1.16016m13.79687-2.6875l-6.66015 2.23828m5.6914-1.91406l.89063.84375m11.1875-3.3789l-2.25 6.65624m1.92187-5.6875l1.21094-.19922m12.09766-.86328l-1.58203 6.84766m1.35156-5.85156l1.1836-.31641m12.60155-.61719l-2.05859 6.71875m2.0586-6.71875l2.41015-.46484m11.10547 7.11719l-2.46094-6.58204m2.10156 5.625l-.8125.91797m14.02735.17579l-1.54297-6.85547m1.54297 6.85546l-1.85938 1.59766m15.73438-1.77344l-2.66016-6.5039m2.27344 5.5586l-.78516.9414m14 .16015l-1.6914-6.8203m1.4453 5.82812l-.91015.8203m16.71485-1.55858l-6.17579-3.35547m5.27735 2.86718l-.01172 1.22657m14.58594-1.73829l-6.89453-1.35937m5.89062 1.16406l.35547 1.17188m11.75781-4.9414l-2.48437 6.57421m2.1211-5.61719l1.21874-.15625m12.91797-.58984l-3.40234 6.14844m2.90625-5.25391l1.22656.01953m11.96875-1.17969l-2.17188 6.6836m1.85547-5.71094l1.21094-.21484m12.27734-.80079l-1.8828 6.76954m1.60546-5.78516l1.19922-.26563m12.47656-.6953l-2.05078 6.71874m1.7539-5.74219l1.20313-.23437m12.625-.66797l-2.48437 6.57422m16.85156-.6289l-4.58985-5.32032"/><g clip-path="url(#aj)"><path fill="none" stroke="#000" stroke-linecap="round" stroke-linejoin="round" stroke-miterlimit="10" stroke-width=".5" d="M147.28906 345.94531l-6.57812 2.46875"/></g><path fill="none" stroke="#000" stroke-linecap="round" stroke-linejoin="round" stroke-miterlimit="10" stroke-width=".5" d="M147.28906 345.94531l1.83985 1.6211m-2.79688-1.26172l.92188.8086m13.54297-.40626l-6.96485.9414m6.96484-.9414l1.4336 1.99219m11.79687-.625l-6.79297-1.79297m6.79297 1.79297l.5625 2.38672m-1.55078-2.64844l.28125 1.19531m14.11719-2.21094l-6.98438.76563m6.98438-.76563l1.38281 2.02735m11.9336-2.01563l-6.98828.7422m6.98828-.7422l1.375 2.03125m-2.39063-1.92578l.6875 1.01563m13.625-1.27344l-6.94922 1.04297m6.94922-1.04297l1.46094 1.96875m11.40234-3.23828l-6.04687 3.58203m6.04687-3.58203l2.09375 1.27344m10.41016-2.21094l-4.42578 5.45703m3.78125-4.66406l1.20703.23828m9.4961-1.65625l2.08593 6.71094m-1.78125-5.73438l.86328-.875m12.40234-.17187l1.57813 6.84765m-1.57813-6.84765l1.85157-1.60938m10.95703 1.76953l2.58984 6.53125m-2.58984-6.53125l1.58594-1.8711m11.23437 2.11329l3.58203 6.04688m-3.0625-5.16797l.64063-1.04688m12.04297 6.14453l3.80078-5.91015m12.3711 6.33593l-1.91017-6.76171m1.91016 6.76171l-1.76953 1.69922m16.1875-2.23047l-4.11719-5.6953m3.51953 4.86327l-.54297 1.10156m14.83204-.58593l-4.8711-5.0664m4.16406 4.32812l-.3828 1.16796m15.07421-1.3164l-6.20703-3.29297m5.30469 2.8125v1.22656m14.26953-.84765l-6.3125-3.08985m5.39453 2.64063l.03906 1.22656m14.20703-3.83984l-6.33593 3.03515m5.41406-2.59375l.98828.73047m10.95703-3.05469l-1.7539 6.80079m1.5-5.8125l1.1914-.28516m11.40625-.8164l.1875 7.02734m-.16016-6.00391l1.06641-.60547m11.61719-.34765l1.39844 6.88671m-1.39844-6.88671l1.89062-1.5586m11.96485 1.49219l.3164 7.01953m-.26953-6l1.05469-.6211m13.15234-.3125l-1.5625 6.84766m1.33594-5.85156l1.1836-.32031m10.0703-.42578l3.01563 6.34765m-2.57812-5.42187l.73047-.98828"/><g clip-path="url(#ak)"><path fill="none" stroke="#000" stroke-linecap="round" stroke-linejoin="round" stroke-miterlimit="10" stroke-width=".5" d="M147.29297 332.63281l-6.58594 2.45703"/></g><path fill="none" stroke="#000" stroke-linecap="round" stroke-linejoin="round" stroke-miterlimit="10" stroke-width=".5" d="M147.29297 332.63281l1.83594 1.6289m-2.79688-1.26952l.92188.8125m13.3164-1.26563l-6.50781 2.64844m6.50781-2.64844l1.88281 1.57031m-2.83203-1.18359l.94141.78516m13.32031-1.17188l-6.50781 2.64844m6.50781-2.64844l1.88672 1.57031m11.20313-2.03125l-6.0547 3.57032m5.17188-3.05078l1.04688.64062m10.3125-2.88281l-.3789 7.01562m.32421-5.99609l1.11328-.51563m13.29688-.28906l-2.45703 6.58594m2.45703-6.58594l2.4336-.32031m10.98046.35938l-2.65625 6.5078m2.65625-6.5078l2.4375-.25m10.85938.24218l-2.6211 6.51953m2.6211-6.51953l2.4414-.25781m8.88281.07422l1.36328 6.89062m-1.16796-5.89062l.95312-.77344m10.72266.42188l4.25 5.59375m-3.63281-4.78125l.51562-1.11329m10.96484 2.01563l6.6836 2.16406m-5.71094-1.84765l-.21484-1.21094m13.76562 4.76953l4.26563-5.58594m-3.64454 4.77344l-1.21093-.19922m16.91797 1.6211l-1.76172-6.8047m1.50781 5.8125l-.90625.83204m14.32422.19531l-1.45703-6.875m1.2461 5.875l-.94142.78906m16.46875-1.01562l-5.46093-4.42188m4.66797 3.77735l-.23438 1.20703m14.58203-.89453l-5.9375-3.75781m5.07422 3.21093l-.09375 1.22266m14.4375-.96875l-6.26953-3.17188m5.35547 2.71094l.02734 1.22656m14.4961-1.58593l-6.85938-1.53125m20.16797-.03907l-6.84375 1.60547m5.84766-1.3711l.80859.92188m13.25781-1.85546l-6.35547 3.0078m5.4297-2.5703l.98437.73437m11.10937-3.02734l-2.0625 6.71875m1.76172-5.7422l1.20703-.23046m10.21875-.70313l2.32031 6.63282m-2.3203-6.63281l1.66405-1.8047m10.21485 2.75391l5.1914 4.73438m-4.4375-4.04688l.3047-1.1875m16.45702-.2578l-3.20703 6.25m2.73828-5.34376l1.22656-.01562m11.58985-1.22266l-1.27344 6.91406m1.08594-5.90625l1.17187-.3711"/><g clip-path="url(#al)"><path fill="none" stroke="#000" stroke-linecap="round" stroke-linejoin="round" stroke-miterlimit="10" stroke-width=".5" d="M146.16016 317.77734l-4.32032 5.53907"/></g><path fill="none" stroke="#000" stroke-linecap="round" stroke-linejoin="round" stroke-miterlimit="10" stroke-width=".5" d="M146.16016 317.77734l2.41797.42579m-3.04688.3828l1.21094.21094m11.99219-1.46484l-2.83985 6.42969m2.83984-6.42969l2.44532-.17578m-2.85938 1.11328l1.22266-.08984m12.5625-.82031l-2.94922 6.3789m2.94922-6.3789l2.44922-.13672m10.9375.17187l-3.09375 6.3086m3.09375-6.3086l2.45312-.08203m10.11328-.1875l-1.59765 6.84375m1.36719-5.84766l1.18359-.3125m10.66797-.66015l1.78906 6.79687m-1.52734-5.80469l.90234-.83593m12.19922-.16797l1.69531 6.82031m-1.69531-6.82031l1.82422-1.64063m10.32422 2.17188l4.02734 5.75781m-3.4414-4.91797l.55859-1.09375m10.69531 2.70703l6.97656.85547m-5.96094-.73047l-.4375-1.14453m12.71485 1.53906l7.02344-.18359m-6.00391.15625l-.60156-1.0664m14.39453 3.8789l4.03125-5.7539m-3.44531 4.91796l-1.21875-.15234M289.8203 324l1.29297-6.90625m-1.10547 5.90234l-1.17187.3672m14.8164.6953l.25782-7.02343m-.22266 6.0039l-1.10156.53516m13.23047.2461l2.55859-6.54298m-2.5586 6.54297l-2.4375.28125m16.80079-.04687l.46484-7.01172m-.39844 5.99219l-1.11718.5m15.71484.34375l-2.23438-6.66016m1.91016 5.6914l-.84375.89063m13.5039.25781l-.27734-7.01953m.23438 6l-1.0586.61719m10.86329-2.28125l6.82812-1.65625m-5.83594 1.41797l-.8125-.91797m19.51563 2.21094l-5.9336-3.76172m5.07032 3.21484l-.09375 1.22266m14.69922-3.46875l-6.78516 1.82422m5.79687-1.5586l.83985.89454m12.27344-2.98829l-4.40235 5.47657m3.76172-4.6797l1.20313.23048m10.74609-1.79688l-.39063 7.01563m.39063-7.01563l2.22656-1.02734m8.5664 7.16797l4.65235-5.26172m-3.97656 4.4961l-1.1914-.28516m19.42968-.3086l-6.54687-2.54687m6.54687 2.54687l.28906 2.4375m11.91797-6.47656l-4.33203 5.53125"/><g clip-path="url(#am)"><path fill="none" stroke="#000" stroke-linecap="round" stroke-linejoin="round" stroke-miterlimit="10" stroke-width=".5" d="M465.72656 317.78125l2.41797.42969"/></g><path fill="none" stroke="#000" stroke-linecap="round" stroke-linejoin="round" stroke-miterlimit="10" stroke-width=".5" d="M465.09766 318.58594l1.20703.21484"/><path fill="#00f" fill-rule="evenodd" d="M383.80078 436.57813h8.61719v-10.14454h-8.61719v10.14454"/><path fill="azure" fill-rule="evenodd" d="M385.63281 428.26563h.83203v2.82421h3.28907v-2.82421h.83203v6.48046h-.83203v-2.91406h-3.28907v2.91406h-.83203v-6.48046"/><path fill="#00f" fill-rule="evenodd" d="M219.58203 414.38672h8.61719v-10.14453h-8.61719v10.14453"/><path fill="azure" fill-rule="evenodd" d="M221.41406 406.07422h.83203v2.82422h3.28907v-2.82422h.83203v6.48047h-.83203v-2.91406h-3.28907v2.91406h-.83203v-6.48047"/><path fill="#00f" fill-rule="evenodd" d="M366.04688 401.07422h8.61718v-10.14844h-8.61719v10.14844"/><path fill="azure" fill-rule="evenodd" d="M367.8789 392.76172h.83594v2.82031H372v-2.82031h.83203v6.47656H372v-2.91406h-3.28516v2.91406h-.83593v-6.47656"/><path fill="#ff3030" fill-rule="evenodd" d="M442.1914 401.07422h7.69532v-10.14844h-7.69531v10.14844"/><path fill="azure" fill-rule="evenodd" d="M444.02734 392.76172h.83204V398.5h3.1953v.73828h-4.02734v-6.47656"/><path fill="#ff3030" fill-rule="evenodd" d="M331.23438 392.19531h7.6914v-10.14453h-7.6914v10.14453"/><path fill="azure" fill-rule="evenodd" d="M333.0664 383.88281h.83594v5.73828h3.19141v.7422h-4.02734v-6.48048"/><path fill="#ff3030" fill-rule="evenodd" d="M331.23438 365.5664h7.6914v-10.14452h-7.6914v10.14453"/><path fill="azure" fill-rule="evenodd" d="M333.0664 357.2539h.83594v5.73829h3.19141v.74219h-4.02734v-6.48047"/><path fill="#ffffe0" fill-rule="evenodd" d="M195.27734 378.3086h22.1797v-10.19141h-22.1797v10.1914"/><path fill-rule="evenodd" d="M198.77734 369.94922h.50782v6.29297H198.5v-4.48828h-1.39063v-.5547l.5625-.0664.25-.05469.23047-.08593.20313-.14453.17578-.20704.14063-.29687.10546-.39453m4.8125 0l.23047.01953.21875.05469.20703.08984.19922.1211.1836.14843.17187.17578.30078.42188.24219.49219.17969.54687.11328.57813.03906.58984-.03906.59375-.11328.58594-.17969.55469-.24219.5-.30078.42968-.17187.17969-.1836.15234-.19922.125-.20703.08985-.21875.0586-.23047.01952-.22656-.01953-.21875-.0586-.21094-.08984-.1953-.125-.1836-.15234-.17188-.17969-.30078-.42969-.24219-.5-.18359-.55468-.10938-.58594-.03906-.59375h.83203l.03125.5664.08203.50391.125.4414.16407.375.1875.30079.21094.22266.22265.13671.22656.04688.22657-.04688.22265-.13671.21094-.22266.1914-.30078.16407-.375.125-.4414.08203-.50391.02734-.56641-.02734-.5586-.08203-.5-.125-.4375-.16406-.36718-.19141-.28906-.21094-.21485-.22265-.13281-.22657-.04297-.22656.04297-.22266.13281-.21093.21485-.1875.28906-.16406.36719-.125.4375-.08204.5-.03125.55859h-.83203l.03906-.58984.10938-.57813.1836-.54687.24218-.4922.30078-.42187.17188-.17578.1836-.14844.1953-.12109.21094-.08984.21875-.05469.22656-.01953m4.95313 0l.23047.01953.21875.05469.20703.08984.19922.1211.1836.14843.17187.17578.30078.42188.24219.49219.17968.54687.11328.57813.03516.58984-.03516.59375-.11328.58594-.17969.55469-.24218.5-.30078.42968-.17188.17969-.1836.15234-.19921.125-.20703.08985-.21875.0586-.23047.01952-.22656-.01953-.22266-.0586-.20703-.08984-.19531-.125-.1836-.15234-.17187-.17969-.30078-.42969-.2461-.5-.17969-.55468-.10937-.58594-.03906-.59375h.83203l.03125.5664.08203.50391.125.4414.16016.375.1914.30079.21094.22266.22266.13671.22656.04688.22656-.04688.22266-.13671.21094-.22266.1914-.30078.16406-.375.125-.4414.08203-.50391.02735-.56641-.02734-.5586-.08204-.5-.125-.4375-.16406-.36718-.1914-.28906-.21094-.21485-.22266-.13281-.22656-.04297-.22656.04297-.22266.13281-.21094.21485-.1914.28906-.16016.36719-.125.4375-.08203.5-.03125.55859h-.83203l.03906-.58984.10938-.57813.17968-.54687.2461-.4922.30078-.42187.17187-.17578.1836-.14844.1953-.12109.20704-.08984.22266-.05469.22656-.01953m4.95312 0l.38672.02734.35938.08203.32422.13672.27734.1875.23047.23828.17187.28516.10938.33203.03906.375-.01953.27735-.0586.23437-.08984.19922-.10937.17187-.1289.14063-.14063.125-.28516.19531.23047.1211.20703.14453.1836.17187.15234.19531.125.21094.08984.23047.05469.2461.01953.2539-.03516.3086-.10156.32812-.17187.32422-.2422.30469-.30468.26953-.375.21484-.21094.08203-.22656.0625-.2461.03516-.26171.01562-.25781-.01562-.2422-.03516-.22265-.0625-.20703-.08203-.35937-.21484-.28907-.26954-.22265-.30468-.15625-.32422-.09375-.32813-.03125-.30859h.83203l.02734.2539.07813.23438.1211.21094.16405.1875.19141.15234.21875.11328.24219.07032.2539.02734.25391-.02734.24219-.07032.21875-.11328.19531-.15234.16016-.1875.12109-.21094.07813-.23437.02734-.25391-.02734-.2539-.07813-.23438-.1211-.21094-.16015-.1875-.19531-.15234-.21875-.11328-.24219-.07032-.2539-.02734-.25391.02734-.24219.07032-.21875.11328-.1914.15234-.16407.1875-.1211.21094-.07812.23437-.02734.25391h-.83203l.01953-.2539.05469-.23829.09375-.22656.12109-.20703.15234-.1914.1836-.17188.20703-.15235.23437-.1328-.28906-.19532-.14062-.125-.12891-.14063-.10938-.17187-.08984-.19922-.05469-.23438-.02343-.27734h.78906l.02344.21485.0625.1914.10547.16797.13671.14063.16407.10937.1914.08203.20703.05078.21875.01563.22266-.01563.20703-.05078.1875-.08203.16406-.10938.13672-.14062.10547-.16797.0664-.1914.01954-.21485-.01953-.21094-.0664-.1914-.10548-.16797-.13672-.14063-.16406-.10937-.1875-.08203-.20703-.05078-.22266-.01563-.21875.01563-.20703.05078-.1914.08203-.16407.10937-.13672.14063-.10546.16797-.0625.1914-.02344.21094h-.78906l.03906-.375.10937-.33203.17188-.28516.23047-.23828.28125-.1875.32031-.13672.35938-.08203.38671-.02734"/><path fill="#ffffe0" fill-rule="evenodd" d="M297.35938 440.3086h22.17968v-10.19141h-22.17969v10.1914"/><path fill-rule="evenodd" d="M300.85938 431.94922h.5078v6.29297h-.78515v-4.48828h-1.38672v-.5547l.5586-.0664.25-.05469.23046-.08593.20313-.14453.17578-.20704.14063-.29687.10546-.39453m4.8125 0l.23047.01953.21875.05469.20704.08984.19921.1211.1836.14843.17187.17578.30078.42188.2422.49219.17968.54687.11328.57813.03906.58984-.03906.59375-.11328.58594-.17969.55469-.24219.5-.30078.42968-.17187.17969-.1836.15234-.19921.125-.20704.08985-.21875.0586-.23046.01952-.22657-.01953-.21875-.0586-.21094-.08984-.1953-.125-.1836-.15234-.17188-.17969-.30078-.42969-.24219-.5-.17968-.55468-.11328-.58594-.03907-.59375h.83204l.03125.5664.08203.50391.125.4414.16406.375.1875.30079.21094.22266.22265.13671.22656.04688.22657-.04688.22265-.13671.21094-.22266.1914-.30078.16407-.375.125-.4414.08203-.50391.02735-.56641-.02735-.5586-.08203-.5-.125-.4375-.16406-.36718-.1914-.28906-.21095-.21485-.22265-.13281-.22656-.04297-.22657.04297-.22265.13281-.21094.21485-.1875.28906-.16406.36719-.125.4375-.08204.5-.03125.55859h-.83203l.03907-.58984.11328-.57813.17969-.54687.24218-.4922.30078-.42187.17188-.17578.1836-.14844.1953-.12109.21094-.08984.21875-.05469.22656-.01953m4.95313 0l.23047.01953.21875.05469.20703.08984.19922.1211.1836.14843.17187.17578.30078.42188.24219.49219.17968.54687.11329.57813.03515.58984-.03515.59375-.11329.58594-.17968.55469-.2422.5-.30077.42968-.17188.17969-.1836.15234-.19921.125-.20703.08985-.21875.0586-.23047.01952-.22656-.01953-.21875-.0586-.21094-.08984-.19531-.125-.1836-.15234-.17187-.17969-.30078-.42969-.2461-.5-.17968-.55468-.10938-.58594-.03906-.59375h.83203l.03125.5664.08203.50391.125.4414.16406.375.1875.30079.21094.22266.22266.13671.22656.04688.22656-.04688.22266-.13671.21094-.22266.1914-.30078.16406-.375.125-.4414.08204-.50391.02734-.56641-.02734-.5586-.08204-.5-.125-.4375-.16406-.36718-.1914-.28906-.21094-.21485-.22266-.13281-.22656-.04297-.22656.04297-.22266.13281-.21094.21485-.1875.28906-.16406.36719-.125.4375-.08203.5-.03125.55859h-.83203l.03906-.58984.10938-.57813.17968-.54687.2461-.4922.30078-.42187.17187-.17578.1836-.14844.19531-.12109.21094-.08984.21875-.05469.22656-.01953m4.95313 0l.38671.02734.35938.08203.32422.13672.27734.1875.23047.23828.17188.28516.10937.33203.03906.3789-.01953.27344-.0586.23438-.08984.19922-.10937.17187-.1289.14063-.14063.125-.28516.19531.23047.1211.20703.14453.1836.17187.15234.19531.125.21094.08984.23047.05469.2461.01953.2539-.03515.3086-.10157.32812-.17187.32422-.24219.30469-.30469.26953-.375.21484-.21094.08203-.22656.0625-.2461.03516-.26171.01562-.25781-.01562-.24219-.03516-.22266-.0625-.20703-.08203-.35937-.21484-.28906-.26954-.22266-.30468-.15625-.32422-.09375-.32813-.03125-.30859h.83203l.02734.2539.07813.23438.1211.21094.16406.1875.1914.15234.21875.11328.24219.07032.2539.02734.25391-.02734.24219-.07032.21875-.11328.19531-.15234.16016-.1875.1211-.21094.07812-.23437.02734-.25391-.02734-.2539-.07813-.23438-.1211-.21094-.16015-.1875-.19531-.15234-.21875-.11328-.24219-.07032-.2539-.02734-.25391.02734-.24219.07032-.21875.11328-.1914.15234-.16407.1875-.1211.21094-.07812.23437-.02734.25391h-.83203l.01953-.2539.05469-.23829.09375-.22656.1211-.20703.15233-.1914.1836-.17188.20703-.15235.23438-.1328-.28907-.19532-.14062-.125-.1289-.14063-.10938-.17187-.08985-.19922-.05469-.23438-.02343-.27343h.78906l.02344.21094.0664.1914.10157.16797.13671.14063.16407.10937.1914.08203.20704.05078.21875.01563.22265-.01563.20703-.05078.1875-.08203.16406-.10938.13672-.14062.10547-.16797.0664-.1914.02345-.21094-.02344-.21485-.0664-.1914-.10548-.16797-.13671-.14063-.16407-.10937-.1875-.08203-.20703-.05078-.22265-.01563-.21875.01563-.20704.05078-.1914.08203-.16406.10937-.13672.14063-.10157.16797-.0664.1914-.02344.21485h-.78906l.03906-.3789.10938-.33204.17187-.28516.23047-.23828.28125-.1875.32031-.13672.35938-.08203.38671-.02734"/><path fill="#ffffe0" fill-rule="evenodd" d="M381.6875 420.6914h22.1836V410.5h-22.1836v10.1914"/><path fill-rule="evenodd" d="M385.1875 412.33203h.51172v6.29297h-.78906v-4.48828h-1.38672v-.55469l.5586-.0664.2539-.0547.22656-.08593.20313-.14453.17578-.20703.14062-.29688.10547-.39453m4.8164 0l.22657.01953.21875.05469.21094.08984.1953.1211.1836.14844.17188.17578.30078.42187.24219.49219.17968.54687.11329.57813.03906.58984-.03906.59375-.11329.58594-.17968.55469-.2422.5-.30077.42969-.17188.17968-.1836.15235-.1953.125-.21094.08984-.21875.0586-.22656.01952-.23047-.01953-.21875-.05859-.20703-.08984-.19922-.125-.1836-.15235-.17187-.17969-.30078-.42968-.24219-.5-.17969-.55469-.11328-.58594-.03906-.59375h.83594l.02734.5664.08203.50392.125.4414.16406.375.19141.30078.21094.22266.22265.13672.22657.04687.22656-.04687.22265-.13672.20704-.22266.1914-.30078.16406-.375.125-.4414.08204-.50391.02734-.5664-.02734-.5586-.08204-.5-.125-.4375-.16406-.36719-.1914-.28906-.20704-.21485-.22265-.1328-.22656-.04298-.22657.04297-.22265.13281-.21094.21485-.1914.28906-.16407.36719-.125.4375-.08203.5-.02734.5586h-.83594l.03906-.58985.11328-.57813.17969-.54687.24219-.49219.30078-.42187.17187-.17579.1836-.14843.19922-.1211.20703-.08984.21875-.05469.23047-.01953m4.94921 0l.23047.01953.21875.05469.20704.08984.19921.1211.1836.14844.17187.17578.30078.42187.2422.49219.17968.54687.11328.57813.03906.58984-.03906.59375-.11328.58594-.17969.55469-.24219.5-.30078.42969-.17187.17968-.1836.15235-.19921.125-.20704.08984-.21875.0586-.23046.01952-.22657-.01953-.21875-.05859-.21094-.08984-.1953-.125-.1836-.15235-.17188-.17969-.30078-.42968-.24219-.5-.17968-.55469-.11328-.58594-.03907-.59375h.83594l.02735.5664.08203.50392.125.4414.16406.375.1914.30078.20704.22266.22265.13672.22656.04687.22657-.04687.22265-.13672.21094-.22266.1914-.30078.16407-.375.125-.4414.08203-.50391.02735-.5664-.02735-.5586-.08203-.5-.125-.4375-.16406-.36719-.1914-.28906-.21095-.21485-.22265-.1328-.22656-.04298-.22657.04297-.22265.13281-.20704.21485-.1914.28906-.16406.36719-.125.4375-.08204.5-.02734.5586h-.83594l.03907-.58985.11328-.57813.17969-.54687.24218-.49219.30078-.42187.17188-.17579.1836-.14843.1953-.1211.21094-.08984.21875-.05469.22656-.01953m4.95313 0l.38672.02735.35937.08203.32422.13671.27735.1875.23046.23829.17579.28515.10546.33203.03907.37891-.01953.27344-.0586.23437-.08594.19922-.11328.17188-.1289.14453-.14063.1211-.28515.1953.23046.1211.20704.14453.18359.17187.15234.19532.125.21093.08985.23047.05469.2461.01953.2539-.03516.3086-.10156.32812-.17188.32422-.23828.30469-.3086.26953-.375.21484-.21093.08203-.22656.0625-.2461.03516-.26171.01563-.25782-.01563-.24219-.03516-.22265-.0625-.20703-.08203-.35938-.21484-.28906-.26953-.22266-.30469-.15625-.32422-.09375-.32812-.03125-.3086h.83594l.02344.2539.07812.23438.125.21094.16016.1875.1914.15235.21876.11328.24218.07421.25391.02344.25781-.02344.23828-.07421.21875-.11329.19532-.15234.16015-.1875.1211-.21094.07812-.23437.02735-.2539-.02735-.25391-.07812-.23438-.1211-.21094-.16015-.1875-.19532-.15234-.21875-.11328-.23828-.07031-.25781-.02735-.2539.02735-.2422.0703-.21874.11329-.19141.15234-.16016.1875-.125.21094-.07812.23438-.02344.2539h-.83594l.01954-.2539.05468-.23829.09375-.22656.1211-.20703.15625-.1914.17968-.17188.20704-.15234.23437-.13282-.28906-.1953-.13672-.1211-.1289-.14453-.11329-.17188-.08984-.19922-.05469-.23437-.02344-.27344h.78906l.02344.21094.0664.1914.10157.16797.13672.14063.16797.10937.1875.08203.20703.05079.21875.01562.22266-.01563.20703-.05078.1875-.08203.16406-.10937.13672-.14063.10547-.16797.0664-.1914.02344-.21094-.02344-.21484-.0664-.19141-.10547-.16797-.13672-.14062-.16406-.10938-.1875-.08203-.20703-.05078-.22266-.01563-.21875.01563-.20703.05078-.1875.08203-.16797.10938-.13672.14062-.10156.16797-.0664.1914-.02344.21485h-.78907l.03906-.3789.10938-.33204.17188-.28515.23046-.23829.28125-.1875.32032-.13671.35937-.08204.38672-.02734"/></g></defs><use xlink:href="#an"/></svg>