<svg xmlns="http://www.w3.org/2000/svg" role="img" xmlns:xlink="http://www.w3.org/1999/xlink" viewBox="142.45 309.95 326.84 171.84"><defs><clipPath id="a"><path d="M144 311.67188h1v168.65625h-1zm0 0"/></clipPath><clipPath id="b"><path d="M144 311.67188h324v168.65625H144zm0 0"/></clipPath><clipPath id="c"><path d="M398 441h39v39.32813h-39zm0 0"/></clipPath><clipPath id="d"><path d="M460 468h8v12.32813h-8zm0 0"/></clipPath><clipPath id="e"><path d="M465 478h3v2.32813h-3zm0 0"/></clipPath><clipPath id="f"><path d="M467 311.67188h1V462h-1zm0 0"/></clipPath><clipPath id="g"><path d="M144 477h3v3.32813h-3zm0 0"/></clipPath><clipPath id="h"><path d="M154 478h7v2.32813h-7zm0 0"/></clipPath><clipPath id="i"><path d="M167 478h8v2.32813h-8zm0 0"/></clipPath><clipPath id="j"><path d="M172 478h3v2.32813h-3zm0 0"/></clipPath><clipPath id="k"><path d="M180 478h8v2.32813h-8zm0 0"/></clipPath><clipPath id="l"><path d="M185 478h3v2.32813h-3zm0 0"/></clipPath><clipPath id="m"><path d="M193 478h8v2.32813h-8zm0 0"/></clipPath><clipPath id="n"><path d="M199 479h2v1.32813h-2zm0 0"/></clipPath><clipPath id="o"><path d="M206 480h9v.32813h-9zm0 0"/></clipPath><clipPath id="p"><path d="M212 480h2v.32813h-2zm0 0"/></clipPath><clipPath id="q"><path d="M220 479h8v1.32813h-8zm0 0"/></clipPath><clipPath id="r"><path d="M226 480h1v.32813h-1zm0 0"/></clipPath><clipPath id="s"><path d="M233 479h8v1.32813h-8zm0 0"/></clipPath><clipPath id="t"><path d="M239 480h2v.32813h-2zm0 0"/></clipPath><clipPath id="u"><path d="M246 479h9v1.32813h-9zm0 0"/></clipPath><clipPath id="v"><path d="M252 480h2v.32813h-2zm0 0"/></clipPath><clipPath id="w"><path d="M260 479h8v1.32813h-8zm0 0"/></clipPath><clipPath id="x"><path d="M266 480h1v.32813h-1zm0 0"/></clipPath><clipPath id="y"><path d="M273 479h8v1.32813h-8zm0 0"/></clipPath><clipPath id="z"><path d="M279 480h2v.32813h-2zm0 0"/></clipPath><clipPath id="A"><path d="M286 479h9v1.32813h-9zm0 0"/></clipPath><clipPath id="B"><path d="M292 480h2v.32813h-2zm0 0"/></clipPath><clipPath id="C"><path d="M300 478h8v2.32813h-8zm0 0"/></clipPath><clipPath id="D"><path d="M313 478h8v2.32813h-8zm0 0"/></clipPath><clipPath id="E"><path d="M327 478h7v2.32813h-7zm0 0"/></clipPath><clipPath id="F"><path d="M340 478h7v2.32813h-7zm0 0"/></clipPath><clipPath id="G"><path d="M353 478h8v2.32813h-8zm0 0"/></clipPath><clipPath id="H"><path d="M366 478h8v2.32813h-8zm0 0"/></clipPath><clipPath id="I"><path d="M372 480h2v.32813h-2zm0 0"/></clipPath><clipPath id="J"><path d="M379 479h9v1.32813h-9zm0 0"/></clipPath><clipPath id="K"><path d="M385 480h2v.32813h-2zm0 0"/></clipPath><clipPath id="L"><path d="M393 479h8v1.32813h-8zm0 0"/></clipPath><clipPath id="M"><path d="M399 479h2v1.32813h-2zm0 0"/></clipPath><clipPath id="N"><path d="M406 479h8v1.32813h-8zm0 0"/></clipPath><clipPath id="O"><path d="M413 479h3v1.32813h-3zm0 0"/></clipPath><clipPath id="P"><path d="M412 479h2v1.32813h-2zm0 0"/></clipPath><clipPath id="Q"><path d="M420 478h7v2.32813h-7zm0 0"/></clipPath><clipPath id="R"><path d="M426 478h4v2.32813h-4zm0 0"/></clipPath><clipPath id="S"><path d="M425 478h4v2.32813h-4zm0 0"/></clipPath><clipPath id="T"><path d="M424 479h3v1.32813h-3zm0 0"/></clipPath><clipPath id="U"><path d="M433 478h8v2.32813h-8zm0 0"/></clipPath><clipPath id="V"><path d="M438 478h4v2.32813h-4zm0 0"/></clipPath><clipPath id="W"><path d="M446 478h8v2.32813h-8zm0 0"/></clipPath><clipPath id="X"><path d="M453 478h3v2.32813h-3zm0 0"/></clipPath><clipPath id="Y"><path d="M460 478h7v2.32813h-7zm0 0"/></clipPath><clipPath id="Z"><path d="M144 465h4v5h-4zm0 0"/></clipPath><clipPath id="aa"><path d="M144 452h4v4h-4zm0 0"/></clipPath><clipPath id="ab"><path d="M144 439h4v3h-4zm0 0"/></clipPath><clipPath id="ac"><path d="M144 425h4v4h-4zm0 0"/></clipPath><clipPath id="ad"><path d="M144 413h4v2h-4zm0 0"/></clipPath><clipPath id="ae"><path d="M144 399h4v2h-4zm0 0"/></clipPath><clipPath id="af"><path d="M144 385h4v4h-4zm0 0"/></clipPath><clipPath id="ag"><path d="M144 372h4v4h-4zm0 0"/></clipPath><clipPath id="ah"><path d="M144 358h4v4h-4zm0 0"/></clipPath><clipPath id="ai"><path d="M144 345h4v4h-4zm0 0"/></clipPath><clipPath id="aj"><path d="M144 332h4v4h-4zm0 0"/></clipPath><clipPath id="ak"><path d="M144 317h3v7h-3zm0 0"/></clipPath><clipPath id="al"><path d="M465 317h3v2h-3zm0 0"/></clipPath><g id="am" clip-path="url(#clip1)"><path fill="#fff" fill-opacity="0" fill-rule="evenodd" d="M0 0h1000v1000H0zm0 0"/><path fill="#d3d3d3" fill-opacity="0" fill-rule="evenodd" d="M162.15234 355.86719l-.23437.29297.0586.23437.11718.17188.17578.23437.29297.34766.11328.0586.11719-.17188.0586-.23438.17577-.17578.46485-.17578h.69922l.23437.29297.28906.8164.0586.17579.17578.23046.35156.23438.69922.69922.17188.17578.23437.34765.23438.41016.28906.58203.41015.46485.23047.23437.23438.17578.11719.23047.17578.29297.17187 1.16406v.23438l.0586.28906.05859.11719.11719.11719.34765.41015.11719.17188.17578.17578.17578.23437.11719.17188.17188.35156.05859.23438.23437.40625.23438-.0586-.17578.17578-.0586.92969h-.58203l-.23437-.11328-.34766.11328-.11719.11719-.05859.29297-.0586.17578-.11718.17187-.46484.29297-.0586.23438-.0586.11328v.64453l.0586.17187v.41016l.0586.0586v.40624l.05859.40625.11719.17579.05859.05859.23047.64062-.0586.29297v.69922l-.05859.58203v.23438l-.0586.23047-.05468.35156v1.92187l.05469.1172h.42578l-.36719.11718-.02344.35156.89063 1.16797 1.74219.53906 1.33984.35938v.53906l.08984.8086.53516.71484 1.51953.26953.89063-.08594.08984 1.16406.53516.1797 1.16015-.1797 2.05469-.98437 1.16016-.36328 1.8789-.17578 1.69531-.1797-.17968.71876-1.51563.08594-1.25.08984-.80469.26953-1.07421.8086.26953.71875.53515.89843-.17968.625-.26563.8086.26563 1.07812.625.89844.80468.17969 1.25-.1797-.26562.72267.09766.5039.05468.29297v.17188l.0586.29296v.40625l.17578.1172.35156.11718h.40625l.29297-.17578.11328-.11719.0586-.11719.11718-.23047.0586-.17578.35156-.46484.23047-.17578.17578-.0586.17578.0586.0586.17578.11718.98828.05469.46875.0586.17188.11718.23437.17578.0586.8164.05859h.28907l.11719.23437.05859.40625.0586.35156v1.10547l.11718.29297.11719.34766.28906.69922.17578.35156.58203.7539.35157.17579.17187.0586.46875.23437.64063.46484.34765.23438.29297.17578.29297.05468.23047.0625.8164.34766.29297.17578.11328.17188.35157.35156.11719.17578.52343.64063v.28906l.0586.35156v.34766l.05859.35156.0586.28906.11718.0586.17188.05859h.17578l.58203.23437.17578.1172.17578.28905.17578.23438.11328.23437.29297.23047.11719.11719v.41016l.0586.05468.28906.23438.23437.11719.0586.11718.11718.17188.0586.11719.23047.23437.05859.17578.23437.0586.1172.05859-.1172.11328-.05859.11719v.11719l-.11719.29296-.11719.28907v.58203l.17579.11719.11718.05859.0586.11719.11719.11719.11328.05859.17578.34765.0586.35157.05858.40625v.17578l-.05859.17578-.11719.69922v.17187l.1172.17579.29296.29296h.40625l.17578.1172.11719.17187.11719.29296v.23438h-.52735l-.23047-.23438h-.23437l-.17578.0586-.0586.69922.0586.34765.11719.17579.17578.41015.11718.23047.28907.46875.17578.05469h.52344l.23437.0586.75781.64062.0586.29296v.23438l.05859.0586.23047.34765v.35156l-.11719.17188v.29297l.29297.28906.29297.17578.17187.0586.29297.17577.29297.1172.58203.40624.28906.23438.29297.17578.21875.16015.01563.01172.23047.17579.64062.52343.17578.23438.1172.17578.17577.17578.11328.17188v.64062l.1172.17578.46874.11719.58203.11719.23438.05859.23047.11328.29297.11719.11328.0586.58593.35156.28907.17187.17578.0625.17578.05469.17578.0586.69922.35155.28906.17579.23438.05468.28906.17578.23437.1172.64063.40624.29297.11719.17187.0586.23438.05859.41015.05859.23047.0586.23438.11718.0586.17188-.41017.17578.46875.0586.0586.29296.11328.23438.17578.05468.23438.0586.17578.05859.40625.11719.64062.23437.11719.17188.0586.23437v.17578l-.0586.1172-.0586.40624.23438.23438.11719.05859.34766.11719.64062.23047.17578.11718.28906.1172.17578.17577.23438.46485.58203 1.10546.17578.17579.34766.17578.17578.11719.35156.11718 1.04688.52344.23437.0586.46485.11327.29297.0586.46484.17578.75781.58203.23438.23438.34765.46484.17578.17578.28907.23438.8164.69921.29297.17579.28906.28906.29297.17578.29297.28906.69531.64063.17578.17578.29297.23437.28907.23438.46875.28906.64062.58203.34766.23438.23437.29297.34766.34765.35156.46485.9336.99218.34765.40625.11719.17579.23437.05859.11328.11719.64454.17578.23047.11328.23437.0586.29297.17577.23047.1172.9336.69921.40624.40625.23438.17578.40625.17578.23437.11719.8164.34766.34766.23437.23438.11719.29297.28906.23047.11719.7578.35156.35157.17188.23047.05859.29297.11719.23437.0586.8711.17577h.8164l.46875.23047.17188.0586.875.69921.46484.1172.29297.05858.17578.0586.23047.0586.46875.05859.34766.05859.35156.0586.40625.05859h.29297l.17187.0586v.23046l.17578.17578h.29297l.34766.0586.35156.05859.69922.11719h.64063l.46484-.23438.29297-.17578.17187-.11719.41016-.17187.28906-.17578.9336-.46485.46875-.29297.52343-.29296.46485-.17188.46484-.17578 1.05078-.46485.28906-.11718.41016-.11719.28906-.11719.52735-.17578 1.51562-.69922.58203-.34765.28907-.0586.29297-.0586.34765-.11718.875-.23047.35156-.11719h.11329l.23437-.05859.875-.23437.23438-.0586h.8125l.35156-.0586.8164-.11718.17188-.0586.35156-.05468.29297-.0586.23047-.05859.8164-.17578.17579-.0586h.34765l.23438-.05859.46484-.11718.75781-.17188.23438-.0586h.34765l.41016-.11718.28906-.0586 1.28516-.05859h.28906l.41016-.0586.23047-.05858h.17578l.875-.1172h.40625l.41015-.11718h.34766l.35156-.11328.8711-.0586h1.75l1.04687.28907.41016.11719.28906.11718.35156.11719.28907.11719 1.05078.17187.28906.0586h.29297l.29297.05859.17187.0586.41016.05859.17187.0586.1172.05858h.11718l.11719.0586.35156.0586h.11328l.41016.0664 1.92187.39453 1.92578.39453 1.51953.44922 1.69532.71875 2.14453.80469 1.60547-.71875 1.42968-.80469 1.16016-1.07813 1.25-.44921 3.03516-.71875 1.875-.35938 2.14453-1.34765 2.23437-1.25391 2.5-1.25781 1.69531-.44922 1.78516-.17969 1.16016-.26953.625.53906 1.33984-.26953.71485-.98828.98437-1.34375.44531-.17969.80469-.35937 1.875-.53907 1.78516-.44921 1.25-.26954 1.16015-.08984 1.69922-.08984 1.96094-.26954 1.25-.08984h.53906l.625-.08984h.89063l2.14453-.17969 2.41015-.17969 2.58985-.08984 1.69531.17969 1.60938.08984 1.42968.35938 1.16016.71875 1.875.98828 1.16015 1.52734.26563.71484.6289.08985.35548.89844.53515.53906.53516 1.52734 1.07422.35938h.53515l-.80469.53515.08985 1.70703.71484 2.69532.89063.80468.89453.98829.71484 1.2578 1.78516.53907 1.51953-.17969.35547 1.34375 1.60937-.80469.98047-.53906.26953.26953.31641-.21484.21875-.14453.80078.44922.44922-.35938h.35547l.53515-.26953.53907-.71875.53515-.26953.625-.98828 1.16016.44922.83984.3711 1.39454.61718 1.6953-.17969h1.60548l1.78515.08985.17969-1.70704.53516-1.34375.80468.26954.4922.84765.40233.40625-.08984.53906v.35938l.71485.44922.71093-.26953h1.42969l.35938.98828.4453 1.25781.71485 1.34375 1.25.6289 1.69531.62891.71485-.17969.17969-.53906.98046-.08984.44922.35937.08594 1.25782-.26563.6289-.53515.17969v.53906l.71484.98438.26563.53906.98437.98828.80078 1.07813-.26562.35937-.08985.89844-.625 2.33203-.35546 2.0664-.08985 1.79298-.17969.71875-.08984.53906v1.4375l-.98047 1.88281-.35937 1.70703-.53516.89844-.80469 1.16797-.26562.53906 2.05469 1.2539.08593.35938-.35546.53906-.08985-.17968v.80859l.08985 1.4375-.44532.71484-1.07422.09375-.26562.71485.53515.89844.8047.71875 1.16015.80859 1.33984.26953.44531.35938-.35546.44921-1.78907-.08984-1.25-.44922-.71484-.71875-.625-.08984-.17578 3.58984-.1875 1.3086h89.35937V311.70313h-55.26953v49.08203l.76172.125 3.28906.54296 2.02344 2.83594v2.7539l2.35156.33204 2.34766.33203h4.05078l-1.3789 4.16016-2.02344.70703-2.02344.70312-.54297.34375-2.59375 1.6172-.1875.11718-2.02344-2.07813-.73046-2.74218-2.67188-2.07813-1.375-3.5-.0664-.08203-1.95704-2.67188 2.75-1.41796v-49.08204H294.42187v91.41407l.1172.03125.1328.01172.07422.07421.10547.04688.08985.0586.08593.05859.08985.0586.29687.29687.0586.08984.03125.11719.02734.11719.01563.13671-.03125.1172-.0586.08983-.0586.08594-.04296.10547-.04688.10156-.02734.1211v.14453l.17578.26953.14844.14844.07422.08594.07422.07421.04296.10547.0625.08985.0586.08593.04297.10547.0586.08985.04687.10156.04296.10547.0586.08594.11719.17968.07421.07422.0625.08594.0586.08984.04297.10547.0586.08985.05858.08593.0625.08985.0586.08984.04297.10156.11719.17969.07421.07422.0586.08594.07422.07421.08984.0586.10547.04687h.14844l.1328-.01562.13282.01562.10156-.04687.07422-.07422.04688-.10156-.01563-.13281v-.14844l-.04687-.10547-.02735-.11719-.04687-.10156-.02735-.1211-.04296-.10156-.0625-.08984-.04297-.10156-.04297-.10547-.03125-.11719-.01563-.13281-.01171-.13672.08593-.0586.0586-.08593.12109-.03125.04297.10547.01562.1328v.1172l.0586.10156.0586.08984.08983.0586.14844.14843.0586.08985.04296.10547-.01171.10156.08593.0586.10547.04687.08594.0586.08984.05858.07422.07422-.11719.02735-.10546.04687-.08594.0586-.07422.07421-.0586.08985-.0625.08594-.02734.12109-.04687.10156-.04297.10547-.03125.11719-.01172.13281-.01563.13281v.14844l.02735.11719.04687.10547.04297.10156.0586.08984.07421.07422.08985.0586.07422.07421.08984.0586.0586.08984.04296.10547.04688.10156.11719.03125.1328.01563h.14845l.11718-.03125.10547.04297.04297.10547.04688.10156.02734.1211L299.5 410l.02734.11719.03125.1211.02735.11718.10547.04297.10156.04687.13281-.01562.14844.14844.0625.08593.07422.07422.07031.07422.08984.0625.10547.04297.10156.04297.1172.03125.13671.01562.11719-.03125.07422-.07422.02734-.11718-.01172-.13282-.03125-.12109-.02734-.11719.04297-.10547h.11719l.08984.0625.11719.02735h.14843l.13282.01562h.14843l.13282.01563.1328-.01563h.14845l.1328-.01562.13282-.01172.13672.01172.11719-.02735.13281-.01562.1914-.0586-.05859.17579-.01562.1328-.02735.1211-.01562.13281-.0586.08594-.1328.01563-.10548.04687-.10546.04297-.1172.03125-.11718.02735-.26563.03125h-.14843l-.13281.01562-.07422.07422.05859.08594.14844.14843.11719.1797.07421.0703.08985.0625.08984.0586.08594.0586.08984.05858.10156.04297.10547.0625.10547.04297.08594.0586.10547.04687.10156.04297.17969.11719.0586.08984-.04298.10156-.04687.10547.01562.13281.22266.22266.0586.08985.04296.10156.03125.1211.04297.10155.01563.13282.03125.11718.01171.13672.03125.11719.14844.14844.10156.04297.10547.04296.1172.03125.1328.01563.13672.01563h.11719l.11719-.03125.08984-.0586.04297-.10547.04688-.10156.04296-.10547.03125-.11719.01172-.1328v-.14845l-.01172-.1328-.01562-.13282-.03125-.11719-.04297-.10547-.04688-.10547-.04296-.10156-.04297-.10547-.01563-.13281.01563-.13281.02734-.11719.03125-.11719.02735-.1211.04687-.10155.08984-.0586.08594-.0625.07422-.07422.08984-.05859.22266-.22266.0586-.08593.07421-.07422.11719-.17969.0586-.08594v-.14844l-.07423-.07421-.10156-.04688-.10547-.04297-.10156-.04297-.0586-.08984-.04687-.10547-.02734-.11719.08984-.05859.11719-.03125.10156-.04297.17969-.11719.14844-.14843.01172-.13282-.01172-.10546-.08985-.0586-.1328.01563h-.14845l-.1328.01562-.13282-.01562-.1211-.03125-.08593-.0586-.07422-.07422-.0586-.08984-.0625-.08594-.11718-.17969-.0586-.08593.03125-.1211.08594-.05859.1211-.03125.05859-.08594v-.1211l-.03125-.11718-.0586-.08984-.05859-.08594-.04687-.10547-.02735-.11719-.01562-.1328.0586-.08985.07421-.07422.08984-.0586.1172-.17968.07421-.07422.0586-.08594.14843-.14844.1211-.03125.1328-.01562.13282.01562.07422.07422.04297.10547.01562.13281-.03125.1172-.11719.03124-.1328.01172-.14844.14844-.04297.10547-.04688.10156-.02734.1211-.03125.11718v.14844l.03125.11719.04297.10546.05859.08985.07422.07031.07422.07422.11719.03125.12109.02734.11719-.02734.1328-.01563h.1172l.08984.0586.07422.07422.04687.10546.0586.08594.10156.04688.13281.01562.10547.04297.08594.0586-.01172.10546-.07422.07422-.17969.11719-.05859.08984-.08984.0586-.07032.07422-.07421.07421-.0625.08985-.02735.11719-.01562.1328.01562.13282-.01562.13281v.14844l.01562.13281.02735.1172.03125.12108.07421.07422.08985.0586.08594.0586.08984.05858.11719.03125v.08594l-.10157.04688-.08984.0586-.26563.03124-.11718.02735h-.14844l-.10547.04296-.10156.04688-.0586.08984-.0625.23438-.01171.13281-.03125.1211-.01563.1328v.29298l-.01172.1328.01172.13673.01563.1328.1328.01563.13282.01172.1211.03125.08593.0586.07422.07421.04688.10547.04296.10157.01563.1328v.44532l-.01563.13281v.44532l.03125.26562.02735.11719.01562.13281.03125.11719.08594.21094.03125.26562v.14844l-.03125.11719-.02734.11718-.03125.1211-.02735.11719-.03125.11718-.03125.1211-.01171.1328-.01563.13282.08984.0586.1172-.03125.10155.01562.04688.10547-.03125.26562v.44141l-.04297.10547-.04688.10547-.04296.10156-.04297.10547-.0586.08594-.03125.12109-.04296.11719-.03125.11719-.01563.1328.01563.13282.05859.08984.10547.04688.08594.0586.05859.08593-.01172.13672-.03125.11719-.04297.10156v.44531l-.01562.13281v.14844l-.03125.11719-.04297.10547-.02735.11719-.04687.10546-.04297.10157-.03125.12109-.02734.11719-.03125.13281-.03125.11719-.02735.11719-.04297.10546-.03125.1172-.03125.12108-.01171.13282-.01563.13281v.29688l.02734.11718v.14844l.04688.39844.02734.11719.0586.08984.12109.03125h.14844l.13281-.01563.0586.08985v.11719l-.0586.08984-.08984.0586-.10157.04296-.10546.04688-.08985.05859-.08594.0586-.13671.01562-.1172-.03125-.1328-.01563-.10157.04688-.0625.08594-.01172.13671-.01562.13282-.03125.11719-.02735.11718-.01562.13281-.03125.1211v.29687l.01563.13282.03125.11718v.14844l.01171.13281v.14844l-.02734.11719-.04688.10156-.02734.1211-.03125.11718-.0586.08985-.07421.07421-.10156.04297-.10547.04688-.11719.02734-.1211.03125-.10156-.04687.0586-.08594.10547-.04688.02734-.11718.03125-.11719.02734-.1211.03125-.11718v-.14844l.01563-.13281-.03125-.11719-.04297-.10547-.10547.01563-.07422.07422-.10156.04296-.08984.0625-.07422.07422-.04297.10157-.01563.1328-.03125.1172L304.25 426l-.03125.11719-.02734.11719-.03125.12109-.02735.11719-.03125.11718-.04297.10547-.08984.0586h-.08984l-.1172-.03125-.03124-.08594.01562-.13672-.03125-.11719v-.14844l-.01171-.1328v-.14844l-.0625-.23438-.02735-.1211-.04297-.10156-.04687-.10546-.0586-.08594-.05859-.08985-.04297-.10546-.0625-.08594-.14844-.14844-.0703-.07422-.10548-.04687-.10547-.04297-.10156-.04297-.29687-.29688-.08985-.07421-.08594-.0586-.10546-.04297-.08985-.0625-.08594-.0586-.10546-.04296-.08985-.0586-.08594-.0625-.07421-.0703-.10547-.04688-.08594-.0586-.10547-.04296-.08984-.0625-.10156-.04297-.10547-.04297-.08594-.0586-.10547-.04687-.10547-.04297-.10156-.04687-.08985-.0586-.10156-.04297-.10547-.04296-.08984-.0625-.11719-.02735-.13281-.01562-.13281.01562H299.75l-.13281.01563-.11719-.03125-.08984-.0586-.07422-.07422-.08985-.05859-.10156-.04688h-.14844l-.12109-.02734-.10156-.04297-.07422-.07422-.11719-.17968-.08984-.0586-.10156-.04297-.08985-.0625-.10547-.04296-.08984-.0586-.08594-.0586-.10547-.04687-.0586-.08594-.05858-.08984-.04297-.10547-.04688-.10156-.07422-.07422-.08594-.0586-.07421-.07421-.08985-.0586-.22265-.22265-.04297-.10547-.03125-.26563.10547-.04296h.14453l.10547.04296.07421.07422.08985.0586.08594.0586.10546.04687.08985.05859.14844.14844.0703.07422.14845.14843.0625.08594.07421.07422.08594.0586.07422.07421.08985.0625.08984.0586.08594.05859.26953.17578.10156.04688.10547.04296.10156.04297.04688-.07421.05859-.08594.07422-.07422.07031-.07422.10547.04297.07422.07422.0586.08984.04296.10156.04688.10547.04296.10547.1211.02735.11719-.02735.07421-.08984.04297-.10547.0586-.08985.07422-.07421.10546-.04297.1172-.02735.1328.01172.08985.0586.14844.14843.05859.08985.04297.10547.04687.10156.04297.10547.04297.10156.10547.04688.10547.04296.13281.01563.08594-.0586.0586-.08984.07421-.07422.10547-.04297.11719.02735.10547.04687.10156.04297.10547.04297.10156.04688.17969.11718v.11719l-.01563.13281.01563.13281.01562.13672.0586.08594.10156.04688.1211.02734.11718.03125h.14844l.11719-.03125.05859-.08984.17969-.1172.05859-.08983.07422-.07422.0586-.08594.11718-.17969.17969-.11719.11719.03125.08984.0586.04297.07422-.01563.1328v.1172l.08985.05859h.14843l.13282-.01563.1328-.01171.26563-.03125.10547-.04297.11719-.03125.1211-.02735.07421-.07421.07031-.07422.0625-.08985-.01562-.10547-.04688-.10156-.10156-.04297-.10547-.01562-.11718.02734-.26563.03125h-.14844l-.07421-.07422-.08985-.0586-.11719-.03124-.11718-.02735-.13282-.01562h-.14843l-.13282.01563h-.29687l-.10547-.04688-.14844-.14844-.04297-.10156-.05859-.08984.22266-.22266.08593-.0586.10547-.04296.11719-.03125.13281-.01563.13281.01563.13672.01562.10157.04297.1328-.01172.08985-.0625.10156-.04297.0625-.08984-.04687-.10156-.08984-.0586-.1172-.03125-.10155-.04296-.0586-.08985-.0625-.08984v-.11719l.01563-.13281.10547-.04688.07421-.07031v-.1211l-.08984-.05859-.03125-.11719.08985-.05859.07421-.07422.04297-.10547.0586-.08984.04687-.10156.01563-.13281v-.14844l-.04688-.10547-.04297-.10156-.08984-.0586-.13281-.01562-.10157-.04297-.13671-.01563-.1172-.03125h-.4453l-.13282-.01562-.13281-.01172-.13281-.01563-.11719-.03125h-.14844l-.13281-.01562-.13281-.01172-.26563-.03125-.1211-.04297-.08593-.0586-.07422-.07421v-.14844l.01172-.13281.10547-.04688.10156-.04296.13281-.01563h.15235l.13281-.01562h.29297l.1211.03125.10156.04296.08984.0586.23438.0625.12109-.04688.08984-.05859.10156-.04297.13282-.01562.10547.04296.10156.04688.13281.01172.1211-.02735h.14453l.12109-.03125.11719-.02734.10547-.04687.07421-.07422.08594-.0586.14844-.14843.0586-.08594.04687-.10547.02734-.11719.01563-.10547-.10156-.04296-.08985-.0586-.11719-.03125-.10546-.04297-.08985-.0625-.07422-.08594-.07422-.07421-.10156-.04297-.10547-.04688-.10156-.04297-.0586-.08984-.04687-.10156-.08594-.21094-.0625-.08594-.05859-.08984-.07422-.07422-.08594-.0586h-.26953l-.11719.03126-.08984.05859-.10156.04297-.13281.01562-.10547-.01562-.02735-.11719-.0625-.08984-.11718-.03125-.10157-.04297-.14843-.14844-.03125-.11719-.01563-.10546.07422-.07422.17969-.1172.11719-.02733.11718-.03125.13672.01562.10156.04297.10547.04297.10156.04687.10547.04297.1172.03125.1328.01563.1172.02734.1328.01563.10547-.01563.08985-.0586-.07422-.07421-.10547-.04297-.07422-.07422-.07422-.08984-.14844-.14844-.08593-.0586-.08985-.05859-.07422-.07422-.08984-.0586-.10156-.04687-.1211-.02734-.10156-.04688-.10547-.04296-.11719-.03125-.10156-.04297-.1211-.03125h-.14843l-.11719.03125-.10546.04297-.08594.0625-.17969.11718-.08594.0586-.08984.0586-.10547.04687-.08594.05859-.10547.04297-.10156.04297-.10547.04687-.07422.07422-.05859.08985-.0586.08593-.04687.10547-.0586.08594-.07421.07422-.13281-.01172-.1172-.03125h-.11718l-.07422.07422-.08984.0586-.07422.07421-.08984.0586-.08594.05859-.10547.04687-.10156.04297-.13672.01563-.10156-.04297-.14844-.14844-.10547-.04688h-.08594l-.10547.04688-.10156.04297-.1211.03125-.11718-.03125-.07422-.07422v-.11719l.03125-.1211.07422-.0703.0586-.08985.07421-.07422.11719-.03125.10547-.04296h.29297l.13281-.01563.13672-.01563.10156-.04296.08985-.0586.10156-.04687.08984-.0586.13281-.01171.08985.05859.13281.01172.08984-.0586.08594-.05859.10547-.04297.08984-.0586.08594-.0625.08985-.05859.14843-.14843.0586-.08594.05859-.08985.10547-.04296.13281-.01563.11719.02735.1211.03125.05859-.0586.05859-.08984.03125-.26563.02734-.11719.10547.01172.13281.01563.10157-.04297.08984-.0586.0586-.08984.07421-.07422.0586-.08984.04687-.10156.01172-.13281-.01172-.13282-.04687-.10547-.14844-.14843-.0586-.08985-.05859-.08594-.04297-.10546v-.44532l.01563-.1328v-.14845l.01172-.1328-.0586-.0586-.08984.0586-.10156-.04298-.17969-.11719-.08594-.05859-.0625-.08984-.0586-.08985-.07421-.07421-.08594-.0586-.1211.03125-.10155.01172-.10547.04688-.08594.05859-.10547.04297-.14844.14844-.08984.05859-.08594.0586-.08984.0625-.10547.04296-.13281.01563v-.1211l.10547-.04297.11718-.03125.07422-.0703.04297-.10548v-.14844l-.02734-.11718-.14844-.14844-.13281-.01563h-.14844l-.11719.03125-.10547.04297-.10156.04297-.08984.0625-.11719.02735-.07422-.07422.01172-.13281-.04297-.10157-.04297-.10547-.08984-.05859-.11719.02734-.1211.03125-.11718.03125-.10156.04297-.1211.03125-.10156.04297-.10547.04297-.08984.0586-.10156.01562v-.11719l.01562-.13281-.0586-.08985-.07421.04297-.14844.14844-.0586.08985-.07421.07421-.04688.10547-.04296.10156-.07422.07422-.0586.08985-.07422.07422-.05859.08593-.07422.07422-.08984.0625-.07422.07031-.07422.07422-.10156.01563-.13281.01562-.10547-.04296v-.1211l.14843-.14844.04297-.10156.0586-.08984.04687-.10156.04297-.10547.0586-.08985.03124-.11719.04297-.10156.03125-.1211.02735-.11718.04687-.10547.04297-.10156.04297-.10547.07422-.07031.08984-.0625.08985-.0586.10156-.04296h.29687l.26563-.03125.10547-.04297-.07422-.07422-.11719-.03125-.10547-.04297-.08984-.0586-.10156-.04687-.08985-.0586-.10156-.04296-.10547-.04297-.08984-.0625-.08594-.0586-.10547-.04296-.10156-.04297-.1211-.03125-.11718-.03125-.10157-.04297L297.5 410.25l-.10156-.04297-.08985-.0586-.04296-.10546-.01563-.13281.10156-.04297.13281-.01563.13672.01563.13282-.01563.10156-.04297.0586-.08984.01562-.10547-.08985-.0586-.07421-.07421-.10157-.04297-.08984-.0586-.14844-.14843-.04297-.10547-.01562-.13281v-.29297l-.0586-.08985-.08984-.05859-.07422-.07422-.04297-.10547-.03125-.11718-.0586-.08985-.07421-.07422-.11719-.02734-.07422-.07422-.08984-.0586-.08984-.0625-.08594-.05859-.07422-.07421-.0586-.08594-.04687-.10547-.08594-.0586-.14843-.14843-.19532-.0586-.1328.01563-.10157.04297-.07422.07422-.04688.10156-.04296.10547-.0586.08984-.0586.08594-.29687.29687-.08984.0586h-.08594l-.0625-.08594-.04297-.10547.03125-.11719.0586-.08984.02734-.11719-.01172-.13281-.08984-.0625-.10547.04688-.11719.02734-.11719.03125-.26953.17578-.10156.04688-.11719.02734-.10546.04687-.08985.0586-.10156.04297-.0586-.08594-.04687-.10547.01563-.13281.04687-.10547.07031-.07422.07422-.07031.0586-.08985v-.14843l-.04297-.10547h-.23829l-.10156.04687-.03125.11719-.02734.11719-.03125.1211-.07422.04296-.13281.01563-.07422-.04688-.04297-.10156-.04297-.10547-.04687-.10156-.04297-.10547-.1211.03125-.10156.04297-.13281.01562-.11719.03125-.10547.04297-.08984.0586-.10156.04687-.1211.02734-.13281.01563-.10156-.04297-.0586-.08985-.04687-.10546-.04297-.10157-.04297-.10546v-.1172l.0586-.08984.08593-.05859.17969-.11719.10156-.04687.10547-.04297.10547-.0586.10156-.04296.08985-.0625.10156-.04297.10547-.0586.10156-.04687.08984-.0586.10547-.04296.10156-.04297.08985-.0625.10156-.04297.13672-.01563.11719.03125.10156.04297.1211.03125.10156.04297.10546.04688.10157.04296.10547.04297.10156.04688.10547.04297.10156.04297.10547.04687.08594.0586.10546.04296.1172.03125.10546.04297.10156.04688.08985.0586.10547.04296.10156.04297.10547.04687.11719.02735.10156.04687.1211.02735h.14843l.08594-.0586.01562-.10156.0586-.08984-.02735-.1172-.07422-.07421-.11719-.17969-.07421-.07422-.08985-.07421-.17969-.1172-.08593-.05859-.10547-.04296-.10156-.04688-.26954-.17578-.05859-.08985-.07422-.07421-.0586-.08985-.04296-.10156-.03125-.11719-.01563-.13672v-.5625l-.01171-.1328-.01563-.13282-.03125-.11719-.01562-.13281-.01172-.13281-.03125-.1211-.22266-.22265-.0586-.08594-.01562-.10547.03125-.11719.13281-.01562v-91.41406H172.9922v1.45312l-.0586.23438-.35156 1.05078-.17187.52343-.1172.34766-.17577.41016-.11719.17187-.23438.29297-.23046.0586h-.35157l-.11718.05859-.23047.40625v.29297l.11719.17578.23046.23047.1172.23437.64062.75781.29297.46485.17578.23437.23047.35156.23437.34766.64063.8164.17578.46485.17187.41016.11719.69531.17578.46875.11719 1.39844.0586.46484v.875l.11718 1.04688v4.78125l-.0586.46484-.35156 1.28125-.17578.52344-.11328.41015-.35156.9297L172.93359 336l-.23437.58203-.11719.17578-.17187.34766-.17578.40625-.35157.8164-.0586.29297-.11327.29297-.11719.28906-.0586.17579-.11718.875-.0586.40625-.05859.11718-.0586.17579-.05859.17187-.23047.52734-.11718.17188v.23437l-.11719.23438-.0586.17187-.17577.58594v.28906l-.0586.17579v.29296l-.0586.11329-.05859.52734v.17187l-.05468.23438v2.6211l-.17578.8164-.1172.17578-.17577.23438-.1172.17187-.11327.23438-.58594.93359-.23047.28906-.29297.46485-.17578.23437-.28906.35156-.35156.69922-.11328.23047-.17579.41016-.17578.23046-.40625.52735-.8164.69922-.29297.17187-.28906.23438-.17579.11719-.17578.17578-.52344.40625-.52734.17578-.17187.17578-.23438.05469-.64062.17578h-.75782m12.21094 31.02344l-1.07422.44921.35938.89454 1.25-.71485.44531-.53906-.98047-.08985"/><path fill="#d3d3d3" fill-opacity="0" fill-rule="evenodd" d="M201.50781 416.59766h-.89453l.44922.6289.98047.35938.80469-.08985.4453-.98828-.17577.08985-.71485-.35547-.89453.35547m154.6211 59.0703l-.0586-.52343v-.29297l.11328-.29297.0586-.23046.46875-.46875h.11328l.11719-.11329.11718-.05859h.17579l.23437-.0586h.34766l.23437.0586.11719.0586.23047.17187.0586.17578.11718.58203v.29297l-.11719.17578-.17187.28906-.17579.17579-.52734.52343-.23047.23438-.11719.0586h-.17578l-.11718-.0586-.40625-.29297-.17579-.11719-.11718-.0586-.0586-.11327-.05468-.1172m6.64062-10.95702l-.0586-.17188v-1.10937l.0586-.17188.17578-.0586.17188-.05858h.17578l.23437-.0586.1172.0586.05858.69921-.05859.17188-.11719.17578-.11718.0586-.23438.52343-.11328.0586h-.23438l-.05859-.1172m9.61328-14.39062l-.11719-.17578v-.69922l.29297-.875.1172-.17187.17577-.35156.11328-.23047.1172-.29297.35155-.75781.1172-.23047.17187-.23438h.17578l.11719-.0586h.64062l.11719.0586.23437.23438.17188.11328.35156.29297.11719.11718.11328.17579v.11328l.11719.05859.11718.11719v.69922l-.05859.17578v.23047l-.0586.17578-.34765 1.05078-.11719.23047-.11719.23437-.11718.0586-.23047.23437-.64063.28906h-.875l-.41015-.11718-.64063-.46485"/><path fill="none" stroke="#bebebe" stroke-linecap="round" stroke-linejoin="round" stroke-miterlimit="10" stroke-width=".5" d="M467.95703 311.69531H144.02734v168.625h323.9297v-168.625"/><g clip-path="url(#a)"><path fill="#fff" fill-opacity="0" fill-rule="evenodd" d="M144 475.89063v4.4375h.0039H144V311.67188h.0039H144v164.21875"/></g><g clip-path="url(#b)"><path fill="#fff" fill-opacity="0" fill-rule="evenodd" d="M144.0039 480.32813V311.67188h17.75v127.55859l-.8828 1.15234-.59766 4.4375-.8711 4.4414.5625 4.4375-.5078 4.4375-.25 4.4375 2.54687 2.56642 4.4375.27734 4.4375.39844 4.4375-2.53125.80468-.71094 1.3047-4.4375 2.33202-2.2461 2.13281-2.1914-2.1328-2.21094-2.38673-2.22656-.54687-4.4414-1.50781-3.94923-4.4375.85547-2.83594-1.34375-1.60156-1.08984-4.4375-.0625v-127.5586h53.26172v98.26563l-4.35547 3.8164 2.5625 4.4375-2.64844 1.57032-3.78516 2.86719-.65234.47265-4.4375.07031-.22266-.54296-4.21484-4.375-4.4414 1.02343-4.4375-.17187-4.4375 2.1289-1.39454 1.39454-2.80469 4.4414-.23828 2.3164-.85156 2.1211-.84375 4.4375 1.69531 1.9375 4.4375-.14062 4.4375.11328 4.4375-.76953 4.4414.66015 4.03517 2.63672-.27344 4.4375-.51953 4.4414 1.1953 1.66407 1.28907 2.77344 3.14844 2.89062 4.4375-1 2.82422-1.89062 1.61719-.70313 2.89062-3.73437 1.54688-4.35547.0703-.08594-.0703-.10156-2.20704-4.33594-2.23047-2.08984-2.14062-2.34766-.6211-4.4375.42579-4.4375 1.0586-4.4414 1.27733-2.3125 3.29297-2.125 1.14453-1.40235 1.58594-3.03515-1.58594-1.23438-4.4375-2.58203v-98.26563h31.06641v95.19922l-1.3789 2.44532-3.0586 2.22656-4.4375-.98047-2.60937 3.1914.09375 4.4375-1.92578.75-3.94141 3.6875-.4961 1.1797-3.10937 3.26171 3.10938 3.08985 4.4375 1.3203.01562.02735 4.42578 4.29688 4.10156-4.29688.33594-.48828 2.35938.48828 2.07812 1.52344 4.4375-.38281 1.5039-1.14063 2.9336-.45312 4.4414-1.125 2.87891-2.85938.16797-4.4414-3.04687-2.88672-4.4414.33203-4.4375-.0625-4.4375.67969-4.4375-1.00391-1.9961-1.4961 1.9961-2.16796 3.03124-2.26953 1.40625-2.23829 1.35156-2.19921-1.35156-2.44532v-95.19921h22.1914V430.8828l-.77343.625.77344.55078.76172-.55078-.76172-.625V311.67187h39.94531v98.62891l-3.70703 3.45313-.73047 3.7578-.49219.6797-3.94531 1.76562-4.4414-.98047-.84376-.78515-3.59375-3.32813-3.70703 3.32813-.73047 4.28906-.10156.14844.10156.0703 1.53907 4.3711 2.30468 4.4375.59375.75 1.39844-.75 3.03906-.41406v24.86719l-2.17578 2.17578 2.17578 4.02734 3.47266-4.02734-3.47266-2.17578v-24.86719l4.1836.41406.25781.08594.28516-.08594 4.15234-.58984 2.91016-3.84766-2.91016-3.10937-1.5586-1.33203 1.5586-3.85157 4.4375.56641 4.4375 2.8164 3.4336-3.96874-1.8125-4.4375-1.6211-2.64844-4.4375-.80469v-98.6289h17.7539V456.5l-2.77734 1.63672 2.77735 1.875 1.6328-1.875-1.6328-1.63672V311.67187h8.875v107.66016l-1.75 3.29688 1.75 1.80468 2.23437-1.80468-2.23437-3.29688V311.67188h62.13671v156.62109l-4.4375 1.96484-1.14843 1.19531.42187 4.4375.72656.72266.8086-.72265 3.6289-1.625 3.60157-2.8125-3.60156-3.16016v-156.6211h48.82421V458.1172l-.02343.01953-4.41407 1.83984-4.4414.26563-4.4375 1.08984-2.95703 1.24219 2.95703 2.20703 4.4375-.03125 2.53515 2.26563 1.90625 1.60937 1.34766-1.60938 3.08984-1.51953 2.88672-2.92187-2.86328-4.4375-.02344-.01953V311.67188h22.1875v150.13671l-.76171.76563.76171.83594v5.47265l-4.43359-.77734-3.03516 3.34765-.20703 4.4375 1.74219 4.4375h-28.53906l.85547-4.4375 1.16406-4.4375-3.05078-3.83593-3.58203 3.83594 1.37109 4.4375-2.22656 1.8164-4.4375.45313-1.875-2.26954-2.5625-2.48046-1.92578-1.95704 1.13671-4.4375.78907-.33593 4.4375-.17578 4.35156-3.9297-.17188-4.4375.25782-1.11718 3.11719-3.32031 1.3203-.60156 3.48438-3.83594.38281-4.4414-3.86718-3.64844-4.4375.4375-4.28516 3.21093-.15234.11328-.66016-.11328-3.77734-3.50781-2.03125 3.50781-2.41016 1.0039-3.3164 3.4375-1.1211 3.83595-4.4375-1.91797-3.02344 2.51953-1.41406 3.02344-1.01562 1.41406-1.50782 4.4375 2.52344 1.5625 3.48438-1.5625.95312-.28125.21485.28125.04296 4.4414-.2578 1.22266-2.38673 3.21485 2.38672 1.28906 4.4375 2.51172 4.4375.0078.64453.62892 3.79688 3.40625 1.34375 1.03125H144.0039"/></g><path fill="#50fcfc" fill-rule="evenodd" d="M161.7539 465.14063l-2.54687-2.56641.25-4.4375.50781-4.4375-.5625-4.4375.8711-4.4414.59765-4.4375.88282-1.15235 4.4375.0625v7.3086l-1.94922 2.66015 1.94922 3.41015 3.96875-3.41015-3.96875-2.66016v-7.3086l1.60156 1.08985 2.83594 1.34375 4.4375-.85547v10.73438l-4.4375.91015-1.27735 1.1836-3.16015 2.78125-2.70313 1.65625-.125 4.4375 2.82813.44922 4.4375.94531 2.05468-1.39453 1.00782-4.4375 1.375-2.28125 2.23828-2.15625-2.23828-2.09375v-10.73438l1.5078 3.94922.54688 4.4414 2.38672 2.22657 2.13281 2.21094-2.1328 2.1914-2.33204 2.2461-1.30469 4.4375-.80468.71094-4.4375 2.53125-4.4375-.39844-4.4375-.27735"/><path fill="#00e8fc" fill-rule="evenodd" d="M166.1914 463.02344l-2.82812-.44922.125-4.4375 2.70313-1.65625 3.16015-2.78125 1.27735-1.1836 4.4375-.91015 2.23828 2.09375-2.23828 2.15625-1.375 2.28125-1.00782 4.4375-2.05468 1.39453-4.4375-.94531"/><path fill="#fff" fill-opacity="0" fill-rule="evenodd" d="M166.1914 446.60156l-1.94921 2.66016 1.94922 3.41015 3.96875-3.41015-3.96875-2.66016"/><path fill="#50fcfc" fill-rule="evenodd" d="M179.50781 437.88281l-1.69531-1.9375.84375-4.4375.85156-2.1211.23828-2.3164 2.8047-4.4414 1.39452-1.39454v3.57032l-1.77734 2.26562.07812 4.4375 1.69922 2.21875 3.72266-2.21875-1.5664-4.4375-2.15626-2.26562v-3.57031l4.4375-2.12891 4.4375.17187 4.4414-1.02343v1.8164l-4.4414 1.0625-3.84765 1.4961 3.84765 1.89062v2.35156l-1.21484.19922 1.21484 1.90625 4.4414-1.17187.47657-.73438-.47656-.19531-4.4414-.0039v-2.35157l4.4414.59375 2.46484-2.48437-2.46484-2.5586v-1.8164l4.21484 4.375.22266.54296 4.4375-.0703v3.57421l-2.4336.39453 2.4336 3.48828v5.02344l-.79297.36328.79297.52344.59375-.52344-.59375-.36328v-5.02344l.79297-3.48828-.79297-.39453v-3.57422l.65234-.47265 3.78516-2.8672v19.39845l-1.42578 1.22265-3.01172 1.8164-1.625 2.6211-1.35156 4.4414 2.97656 4.1797 4.4375-.91797 4.4414-2.98438.21485-.27734 1.99219-4.4414-2.20703-2.8711-3.38672-1.5664-1.0547-1.22266v-19.39844l2.64845-1.57031-2.5625-4.4375 4.35547-3.81641v1.52344l-2.6172 2.29297 2.6172 3.0078 2.91015-3.0078-2.91016-2.29297v-1.52344l4.4375 2.58203 1.58594 1.23438-1.58594 3.03515-1.14453 1.40235-3.29297 2.125-1.27734 2.3125-1.0586 4.4414-.42577 4.4375.62109 4.4375 2.14063 2.34766 2.23046 2.08984 2.20703 4.33594.07032.10156-.07031.08594-1.54688 4.35547-2.89063 3.73437-1.61718.70313-2.82422 1.89062-4.4375 1-3.14844-2.89062-1.28906-2.77344-1.19531-1.66406.51953-4.4414.27344-4.4375-4.03516-2.63673-4.4414-.66015-4.4375.76953-4.4375-.11328-4.4375.14062"/><path fill="#00e8fc" fill-rule="evenodd" d="M182.2461 431.50781l-.07813-4.4375 1.77734-2.26562 2.15625 2.26562 1.5664 4.4375-3.72265 2.21875-1.69922-2.21875m10.57422-6.98828l-3.84765-1.89062 3.84765-1.4961 4.4414-1.0625 2.46485 2.5586-2.46484 2.48437-4.4414-.59375"/><path fill="#fff" fill-opacity="0" fill-rule="evenodd" d="M192.82031 426.8711l-1.21484.19921 1.21484 1.90625 4.4414-1.17187.47657-.73438-.47656-.19531-4.4414-.0039"/><path fill="#00e8fc" fill-rule="evenodd" d="M206.13672 453.4414l-2.97656-4.17968 1.35156-4.4414 1.625-2.6211 3.01172-1.8164 1.42578-1.22266v9.36328l-2.625.73828 2.625.21484.3086-.21484-.3086-.73828v-9.36328l1.05469 1.22265 3.38672 1.5664 2.20703 2.8711-1.9922 4.4414-.21483.27735-4.44141 2.98438-4.4375.91797m0-22.88282l-2.4336-3.48828 2.4336-.39453.79297.39453-.79297 3.48828"/><path fill="#fff" fill-opacity="0" fill-rule="evenodd" d="M206.13672 435.58203l-.79297.36328.79297.52344.59375-.52344-.59375-.36328"/><path fill="#00d4fc" fill-rule="evenodd" d="M210.57422 449.47656l-2.625-.21484 2.625-.73828.3086.73828-.3086.21484"/><path fill="#00e8fc" fill-rule="evenodd" d="M215.01563 416.76172l-2.6172-3.00781 2.6172-2.29297 2.91015 2.29297-2.91016 3.0078"/><path fill="#50fcfc" fill-rule="evenodd" d="M228.32813 430.16016l-3.10938-3.08985 3.10938-3.26172.49609-1.17968 3.9414-3.6875 1.92579-.75-.09375-4.4375 2.60937-3.19141v8.26563l-4.4414 1.41796-2.54688 2.38282-1.85547 4.4414 4.40234 2.60547.98047 1.83203 3.46094 3.36328 3.20703-3.36328 1.23047-1.78515 4.4375-.57422 4.4375.96484 4.4375-.10547 4.4414-2.64844.29298-.28906.28515-4.4414-.57812-.54688-2.8125.54688-1.6289.20703-4.4375-.10156-4.4375 1.89843-3.11329-2.0039-1.32422-.50391-4.4375-3.29688v-8.26562l4.4375.98047 3.0586-2.22656 1.3789-2.44532 1.35156 2.44532-1.35156 2.19921-1.40625 2.23829-3.03125 2.26953-1.9961 2.16797 1.9961 1.49609 4.4375 1.0039 4.4375-.67968 4.4375.0625 4.4414-.33203 3.04688 2.88672-.16797 4.4414-2.8789 2.85938-4.4414 1.125-2.9336.45312-1.5039 1.14063-4.4375.38281-2.07813-1.52344-2.35938-.48828-.33594.48828-4.10156 4.29688-4.42578-4.29688-.01563-.02734-4.4375-1.32031"/><path fill="#00e8fc" fill-rule="evenodd" d="M232.76563 429.67578l-4.40235-2.60547 1.85547-4.4414 2.54688-2.38282v2.17579l-.22266.20703.22266 1.8789.26171 2.5625 2.32032 4.4375 1.85937 1.80469 1.72266-1.80469 2.71484-3.9414 1.16797-.4961-1.16797-.92578-4.4375-3.3125-2.27734-.20312-2.16406-.20704v-2.17578l4.4414-1.41796 4.4375 3.29687 1.32422.5039 3.11328 2.00391 4.4375-1.89844 4.4375.10157v2.51172l-4.4375 1.625-.14844.09765.14844.0664 4.4375 1.125 1.8789-1.1914-1.8789-1.72265v-2.51172l1.6289-.20703 2.8125-.54688.57813.54688-.28515 4.4414-.29297.28906-4.4414 2.64844-4.4375.10547-4.4375-.96484-4.4375.57422-1.23048 1.78515-3.20703 3.36328-3.46094-3.36328-.98047-1.83203"/><path fill="#00d4fc" fill-rule="evenodd" d="M232.76563 424.50781l-.22266-1.8789.22266-.20704 2.16406.20704 2.27734.20312v2.00781l-2.19922 2.23047 1.94531 4.4375.25391.2461.23438-.2461 2.38672-4.4375-2.6211-2.23047v-2.0078l4.4375 3.3125 1.16797.92577-1.16797.4961-2.71484 3.9414-1.72266 1.80469-1.85937-1.80469-2.32032-4.4375-.26172-2.5625"/><path fill="#00c4fc" fill-rule="evenodd" d="M236.95313 431.50781l-1.94532-4.4375 2.19922-2.23047v2.00782l-.21875.22265.21875.51172.25781-.51172-.2578-.22265v-2.00782l2.62108 2.23047-2.38671 4.4375-.23438.2461-.2539-.2461"/><path fill="#00b8fc" fill-rule="evenodd" d="M237.20703 427.58203l-.21875-.51172.21875-.22265.25781.22265-.2578.51172"/><path fill="#00d4fc" fill-rule="evenodd" d="M250.51953 427.13672l-.14844-.0664.14844-.09766 4.4375-1.625 1.8789 1.72265-1.8789 1.1914-4.4375-1.125"/><path fill="#50fcfc" fill-rule="evenodd" d="M268.27344 432.0586l-.77344-.55079.77344-.625.76172.625-.76172.55078m17.7539-9.35937l-.10156-.07031.10156-.14844.73047-4.28906 3.70703-3.32813v2.1875l-1.26953 1.14063-1.71875 4.4375 2.41797 4.4414.57031.94531 4.4375 1.1836 4.44141.8086 4.4375-2.13282.60938-.80469-.60938-.65234-4.4336-3.78906-.0039-.00391-4.4414-1.45703-3.20704-2.97656-1.23047-1.14063v-2.1875l3.59375 3.32813.84375.78515 4.44141.98047 3.94531-1.76562.49219-.6797.73047-3.7578 3.70703-3.45313v1.4961l-2.10156 1.95703 2.10156 2.78906 1.67969 1.64844 2.75781 2.21875 1.92188-2.21875-1.92188-2.98829-1.41797-1.44921-3.01953-1.95704v-1.49609l4.4375.80469 1.6211 2.64844 1.8125 4.4375-3.4336 3.96875-4.4375-2.81641-4.4375-.5664-1.5586 3.85156 1.5586 1.33203 2.91016 3.10937-2.91016 3.84766-4.15234.58984-.28516.08594-.25781-.08594-4.1836-.41406-3.03906.41406-1.39844.75-.59375-.75-2.30468-4.4375-1.53907-4.3711"/><path fill="#00e8fc" fill-rule="evenodd" d="M289.89453 427.07031l-2.41797-4.4414 1.71875-4.4375 1.26953-1.14063v4.48828l-.54687 1.08985.54687.92578 1.20704-.92578-1.20704-1.08985v-4.48828l1.23047 1.14063 3.20703 2.97656 4.44141 1.45703v3.82422l-1.48047.6211 1.48047.41015.71484-.41016-.71484-.6211V422.625l.0039.0039 4.4336 3.78907.60938.65234-.60938.80469-4.4375 2.13281-4.4414-.8086-4.4375-1.18358-.57032-.94532"/><path fill="#00d4fc" fill-rule="evenodd" d="M290.46484 423.55469l-.54687-.92578.54687-1.08985 1.20704 1.08985-1.20704.92578"/><path fill="#50fcfc" fill-rule="evenodd" d="M294.90234 462.16406l-2.17578-4.02734 2.17578-2.17578 3.47266 2.17578-3.47266 4.02734"/><path fill="#00d4fc" fill-rule="evenodd" d="M299.34375 427.48047l-1.48047-.41016 1.48047-.6211.71484.6211-.71484.41016"/><path fill="#00e8fc" fill-rule="evenodd" d="M308.21875 416.54297l-2.10156-2.78906 2.10156-1.95704 3.01953 1.95704 1.41797 1.44921 1.92188 2.98829-1.92188 2.21875-2.75781-2.21875-1.67969-1.64844"/><path fill="#50fcfc" fill-rule="evenodd" d="M325.97266 460.01172l-2.77735-1.875 2.77735-1.63672 1.6328 1.63672-1.6328 1.875m8.875-35.57813l-1.75-1.80468 1.75-3.29688 2.23437 3.29688-2.23437 1.80468m56.97265 51.45704l-.42187-4.4375 1.14844-1.19532 4.4375-1.96484 3.60156 3.16015-3.60156 2.8125-3.62891 1.625-.8086.72266-.72656-.72265"/><g clip-path="url(#c)"><path fill="#50fcfc" fill-rule="evenodd" d="M401.42578 464.13672l-2.52344-1.5625 1.50782-4.4375 1.01562-1.41406 1.41406-3.02344 3.02344-2.51953 4.4375 1.91797 1.1211-3.83594 3.3164-3.4375 2.41016-1.0039 2.03125-3.50782 3.77734 3.50781.66016.11328.15234-.11328 4.28516-3.21094 4.4375-.4375v2.27735l-4.4375.21875-1.53906 1.15234-2.89844 2.11719-4.4375-.1289-4.4414 1.65234-.76954.80078.76953 4.16406.05469.27344-.05469.17969-4.4375 2.35546-4.4375-.91406-1.15234 2.8164 1.15234.92579 2.6836 3.51172.26562 4.4414-.875 4.4375 2.36328 1.7461 3.14453-1.7461 1.29297-1.39843 1.57813-3.03906 2.86328-1.21094 4.4375-.09766 3.46875-3.13281-.66406-4.4375 1.01171-4.4375.6211-1.55078 4.4375-1.57422 1.1914-1.3125.26172-4.4414-1.45312-1.3711v-2.27735l3.86719 3.64844-.38282 4.4414-3.48437 3.83595-1.32031.60156-3.1172 3.32031-.2578 1.11719.17187 4.4375-4.35156 3.92969-4.4375.17578-.78906.33594-1.13672 4.4375 1.92578 1.95703 2.5625 2.48046 1.875 2.26954 4.4375-.45313 2.22656-1.8164-1.3711-4.4375 3.58204-3.83594v3.09375l-.6914.74219.6914 1.23046.58984-1.23046-.58984-.7422v-3.09374l3.05078 3.83594-1.16406 4.4375-.85547 4.4375h-13l-1.34375-1.03125-3.79688-3.40625-.64453-.62891-4.4375-.00781-4.4375-2.51172-2.38672-1.28906 2.38672-3.21485.25781-1.22265-.04296-4.44141-.21485-.28125-.95312.28125-3.48438 1.5625"/></g><path fill="#00e8fc" fill-rule="evenodd" d="M405.86328 459.0625l-1.15234-.92578 1.15234-2.8164 4.4375.91406 4.4375-2.35547.05469-.1797-.05469-.27343-.76953-4.16406.76953-.80078 4.4414-1.65235 4.4375.12891v3.78125l-4.1953 2.98047-.2422.40625-1.47656 4.03125-2.96484 1.82812-2.84765 2.60938 2.84765 2.90234 4.4414-1.13281 4.4375.03516 2-1.8047-1.48827-4.4375.95703-4.4375-1.46875-2.98046v-3.78125l2.89844-2.11719 1.53906-1.15234 4.4375-.21875 1.45312 1.3711-.26172 4.4414-1.1914 1.3125-4.4375 1.57422-.6211 1.55078-1.01171 4.4375.66406 4.4375-3.46875 3.13281-4.4375.09766-2.86328 1.21094-1.57813 3.03906-1.29297 1.39844-3.14453 1.74609-2.36328-1.7461.875-4.4375-.26563-4.4414-2.68359-3.51172"/><path fill="#00d4fc" fill-rule="evenodd" d="M414.73828 465.47656l-2.84765-2.90234 2.84765-2.60938 2.96485-1.82812 1.47656-4.03125.24219-.40625 4.1953-2.98047v10.44922l-4.4375.3164-4.4414 1.02344-.07031.0664.07031.07423 4.4414.23437 4.4375.17188.52735-.48047-.52734-1.40625v-10.44922l1.46875 2.98047-.95703 4.4375 1.48828 4.4375-2 1.80469-4.4375-.03516-4.4414 1.13281"/><path fill="#00c4fc" fill-rule="evenodd" d="M414.73828 462.64844l-.07031-.07422.07031-.0664 4.4414-1.02344 4.4375-.31641.52735 1.40625-.52734.48047-4.4375-.17188-4.4414-.23437"/><path fill="#50fcfc" fill-rule="evenodd" d="M432.49219 464.78125l-2.95703-2.20703 2.95703-1.24219 4.4375-1.08984 4.4414-.26563 4.41407-1.83984.02343-.01953v3.58984l-2.30078.86719 2.30078.57031.5625-.57031-.5625-.86719v-3.58984l.02344.01953 2.86328 4.4375-2.88672 2.92187-3.08984 1.51954-1.34766 1.60937-1.90625-1.60938-2.53515-2.26562-4.4375.03125"/><path fill="#00e8fc" fill-rule="evenodd" d="M432.49219 472.6836l-.6914-1.23048.6914-.74218.58984.74219-.58984 1.23046m13.3164-9.53906l-2.30078-.57031 2.30078-.86719.5625.86719-.5625.57031"/><g clip-path="url(#d)"><path fill="#50fcfc" fill-rule="evenodd" d="M462.0625 480.32813l-1.74219-4.4375.20703-4.4375 3.03516-3.34766v2.375l-.88281.97265-.14844 4.4375 1.03125 1.8047 2.53125-1.8047.51563-4.4375-3.04688-.97265v-2.375l4.4336.77734v9.21094l-2.98048 2.23438h-2.95312"/></g><path fill="#00e8fc" fill-rule="evenodd" d="M463.5625 477.69531l-1.03125-1.80469.14844-4.4375.88281-.97265 3.04688.97265-.51563 4.4375-2.53125 1.8047"/><g clip-path="url(#e)"><path fill="#fff" fill-opacity="0" fill-rule="evenodd" d="M467.9961 478.09375l-2.98048 2.23438h2.98047v-2.23438"/></g><path fill="#50fcfc" fill-rule="evenodd" d="M467.9961 463.41016l-.76173-.83594.76172-.76563v1.60157m0 5.47265v9.21094H468v-9.21094h-.0039"/><path fill="#fff" fill-opacity="0" fill-rule="evenodd" d="M467.9961 463.41016v5.47265H468v-5.46875l-.0039-.0039"/><path fill="#50fcfc" fill-rule="evenodd" d="M467.9961 461.8086v1.60156l.0039.0039v-1.60547h-.0039"/><g clip-path="url(#f)"><path fill="#fff" fill-opacity="0" fill-rule="evenodd" d="M467.9961 311.67188H468v150.13671-150.13671h-.0039"/></g><path fill="#fff" fill-opacity="0" fill-rule="evenodd" d="M433.08203 475.9336l1.3125-5.69532-9.70703-2.23047-1.3125 5.6914 9.70703 2.23438"/><path fill-rule="evenodd" d="M425.94531 470.69922l.11719-.4961 6.13281 1.41016-.17578.76953-4.375-1.00781-.3125 1.35156-.53906-.125.0586-.5586.0078-.2578-.03906-.2422-.08984-.23046-.16797-.21875-.2539-.20313-.36329-.1914"/><path fill="#fff" fill-opacity="0" fill-rule="evenodd" d="M220.71484 454.70313l2.80078-5.12891-8.74218-4.77344-2.80078 5.125 8.74218 4.77735"/><path fill-rule="evenodd" d="M215.26172 447.73438l.24219-.44532 5.52343 3.01563-.375.6914-3.9414-2.15234-.66406 1.21875-.48829-.26563.21094-.52343.07422-.2461.03125-.24609-.02734-.2461-.10157-.2539-.1914-.26563-.29297-.28125"/><g clip-path="url(#g)"><path fill="none" stroke="#000" stroke-linecap="round" stroke-linejoin="round" stroke-miterlimit="10" stroke-width=".5" d="M146.45703 477.82031l-4.91406 5.01953"/></g><path fill="none" stroke="#000" stroke-linecap="round" stroke-linejoin="round" stroke-miterlimit="10" stroke-width=".5" d="M145.74219 478.55078l1.17969.34375"/><g clip-path="url(#h)"><path fill="none" stroke="#000" stroke-linecap="round" stroke-linejoin="round" stroke-miterlimit="10" stroke-width=".5" d="M160.24219 478.38281l-5.85156 3.89063"/></g><path fill="none" stroke="#000" stroke-linecap="round" stroke-linejoin="round" stroke-miterlimit="10" stroke-width=".5" d="M159.39063 478.94922l1.07812.58203"/><g clip-path="url(#i)"><path fill="none" stroke="#000" stroke-linecap="round" stroke-linejoin="round" stroke-miterlimit="10" stroke-width=".5" d="M173.7539 478.71875l-6.24609 3.22266"/></g><g clip-path="url(#j)"><path fill="none" stroke="#000" stroke-linecap="round" stroke-linejoin="round" stroke-miterlimit="10" stroke-width=".5" d="M172.84375 479.1875l1.00781.69531"/></g><g clip-path="url(#k)"><path fill="none" stroke="#000" stroke-linecap="round" stroke-linejoin="round" stroke-miterlimit="10" stroke-width=".5" d="M187.10938 478.80078l-6.32813 3.05469"/></g><g clip-path="url(#l)"><path fill="none" stroke="#000" stroke-linecap="round" stroke-linejoin="round" stroke-miterlimit="10" stroke-width=".5" d="M186.1875 479.2461l.99219.72265"/></g><g clip-path="url(#m)"><path fill="none" stroke="#000" stroke-linecap="round" stroke-linejoin="round" stroke-miterlimit="10" stroke-width=".5" d="M200.48438 478.92969l-6.44532 2.79687"/></g><g clip-path="url(#n)"><path fill="none" stroke="#000" stroke-linecap="round" stroke-linejoin="round" stroke-miterlimit="10" stroke-width=".5" d="M199.54688 479.33594l.95703.76562"/></g><g clip-path="url(#o)"><path fill="none" stroke="#000" stroke-linecap="round" stroke-linejoin="round" stroke-miterlimit="10" stroke-width=".5" d="M214.08984 480.375l-7.02734-.09375"/></g><g clip-path="url(#p)"><path fill="none" stroke="#000" stroke-linecap="round" stroke-linejoin="round" stroke-miterlimit="10" stroke-width=".5" d="M213.0664 480.36328l.5625 1.08985"/></g><g clip-path="url(#q)"><path fill="none" stroke="#000" stroke-linecap="round" stroke-linejoin="round" stroke-miterlimit="10" stroke-width=".5" d="M227.33594 481.01953l-6.89063-1.3789"/></g><g clip-path="url(#r)"><path fill="none" stroke="#000" stroke-linecap="round" stroke-linejoin="round" stroke-miterlimit="10" stroke-width=".5" d="M226.33203 480.8164l.35547 1.17579"/></g><g clip-path="url(#s)"><path fill="none" stroke="#000" stroke-linecap="round" stroke-linejoin="round" stroke-miterlimit="10" stroke-width=".5" d="M240.58594 481.28906l-6.76172-1.91797"/></g><g clip-path="url(#t)"><path fill="none" stroke="#000" stroke-linecap="round" stroke-linejoin="round" stroke-miterlimit="10" stroke-width=".5" d="M239.60156 481.00781l.25781 1.19922"/></g><g clip-path="url(#u)"><path fill="none" stroke="#000" stroke-linecap="round" stroke-linejoin="round" stroke-miterlimit="10" stroke-width=".5" d="M253.97656 480.95313l-6.91406-1.25"/></g><g clip-path="url(#v)"><path fill="none" stroke="#000" stroke-linecap="round" stroke-linejoin="round" stroke-miterlimit="10" stroke-width=".5" d="M252.97266 480.76953l.375 1.17188"/></g><g clip-path="url(#w)"><path fill="none" stroke="#000" stroke-linecap="round" stroke-linejoin="round" stroke-miterlimit="10" stroke-width=".5" d="M267.28906 480.98438l-6.90625-1.3125"/></g><g clip-path="url(#x)"><path fill="none" stroke="#000" stroke-linecap="round" stroke-linejoin="round" stroke-miterlimit="10" stroke-width=".5" d="M266.28125 480.79297l.36719 1.17187"/></g><g clip-path="url(#y)"><path fill="none" stroke="#000" stroke-linecap="round" stroke-linejoin="round" stroke-miterlimit="10" stroke-width=".5" d="M280.65625 480.55078l-7.01172-.4414"/></g><g clip-path="url(#z)"><path fill="none" stroke="#000" stroke-linecap="round" stroke-linejoin="round" stroke-miterlimit="10" stroke-width=".5" d="M279.63672 480.48438l.50781 1.11718"/></g><g clip-path="url(#A)"><path fill="none" stroke="#000" stroke-linecap="round" stroke-linejoin="round" stroke-miterlimit="10" stroke-width=".5" d="M293.9414 480.84375l-6.94921-1.03125"/></g><g clip-path="url(#B)"><path fill="none" stroke="#000" stroke-linecap="round" stroke-linejoin="round" stroke-miterlimit="10" stroke-width=".5" d="M292.92969 480.69531l.41015 1.15625"/></g><g clip-path="url(#C)"><path fill="none" stroke="#000" stroke-linecap="round" stroke-linejoin="round" stroke-miterlimit="10" stroke-width=".5" d="M307.03125 481.66406l-6.5-2.66797"/></g><g clip-path="url(#D)"><path fill="none" stroke="#000" stroke-linecap="round" stroke-linejoin="round" stroke-miterlimit="10" stroke-width=".5" d="M320.33203 481.69531l-6.47265-2.73437"/></g><g clip-path="url(#E)"><path fill="none" stroke="#000" stroke-linecap="round" stroke-linejoin="round" stroke-miterlimit="10" stroke-width=".5" d="M333.47656 482.04688l-6.1289-3.4375"/></g><g clip-path="url(#F)"><path fill="none" stroke="#000" stroke-linecap="round" stroke-linejoin="round" stroke-miterlimit="10" stroke-width=".5" d="M346.59375 482.35938l-5.73438-4.0625"/></g><g clip-path="url(#G)"><path fill="none" stroke="#000" stroke-linecap="round" stroke-linejoin="round" stroke-miterlimit="10" stroke-width=".5" d="M360.11328 482.03516l-6.14453-3.41407"/></g><g clip-path="url(#H)"><path fill="none" stroke="#000" stroke-linecap="round" stroke-linejoin="round" stroke-miterlimit="10" stroke-width=".5" d="M373.64063 481.57422l-6.57032-2.49219"/></g><g clip-path="url(#I)"><path fill="none" stroke="#000" stroke-linecap="round" stroke-linejoin="round" stroke-miterlimit="10" stroke-width=".5" d="M372.6836 481.21094l.15624 1.21875"/></g><g clip-path="url(#J)"><path fill="none" stroke="#000" stroke-linecap="round" stroke-linejoin="round" stroke-miterlimit="10" stroke-width=".5" d="M387.1836 480.44922l-7.02344-.23828"/></g><g clip-path="url(#K)"><path fill="none" stroke="#000" stroke-linecap="round" stroke-linejoin="round" stroke-miterlimit="10" stroke-width=".5" d="M386.16016 480.41406l.53906 1.10156"/></g><g clip-path="url(#L)"><path fill="none" stroke="#000" stroke-linecap="round" stroke-linejoin="round" stroke-miterlimit="10" stroke-width=".5" d="M400.4961 480.13672l-7.01954.38672"/></g><g clip-path="url(#M)"><path fill="none" stroke="#000" stroke-linecap="round" stroke-linejoin="round" stroke-miterlimit="10" stroke-width=".5" d="M399.47266 480.1914l.63671 1.05079"/></g><g clip-path="url(#N)"><path fill="none" stroke="#000" stroke-linecap="round" stroke-linejoin="round" stroke-miterlimit="10" stroke-width=".5" d="M413.67188 479.34375l-6.7422 1.97266"/></g><g clip-path="url(#O)"><path fill="none" stroke="#000" stroke-linecap="round" stroke-linejoin="round" stroke-miterlimit="10" stroke-width=".5" d="M413.67188 479.34375l1.71484 1.7539"/></g><g clip-path="url(#P)"><path fill="none" stroke="#000" stroke-linecap="round" stroke-linejoin="round" stroke-miterlimit="10" stroke-width=".5" d="M412.6914 479.6289l.85938.87891"/></g><g clip-path="url(#Q)"><path fill="none" stroke="#000" stroke-linecap="round" stroke-linejoin="round" stroke-miterlimit="10" stroke-width=".5" d="M426.75 478.74219l-6.26953 3.17578"/></g><g clip-path="url(#R)"><path fill="none" stroke="#000" stroke-linecap="round" stroke-linejoin="round" stroke-miterlimit="10" stroke-width=".5" d="M426.75 478.74219l2.00781 1.41015"/></g><g clip-path="url(#S)"><path fill="none" stroke="#000" stroke-linecap="round" stroke-linejoin="round" stroke-miterlimit="10" stroke-width=".5" d="M425.83984 479.20313l2.00391 1.41015"/></g><g clip-path="url(#T)"><path fill="none" stroke="#000" stroke-linecap="round" stroke-linejoin="round" stroke-miterlimit="10" stroke-width=".5" d="M424.92578 479.66406l1.0039.70703"/></g><g clip-path="url(#U)"><path fill="none" stroke="#000" stroke-linecap="round" stroke-linejoin="round" stroke-miterlimit="10" stroke-width=".5" d="M439.86719 478.39844l-5.8711 3.85937"/></g><path fill="none" stroke="#000" stroke-linecap="round" stroke-linejoin="round" stroke-miterlimit="10" stroke-width=".5" d="M439.86719 478.39844l2.15234 1.17969"/><g clip-path="url(#V)"><path fill="none" stroke="#000" stroke-linecap="round" stroke-linejoin="round" stroke-miterlimit="10" stroke-width=".5" d="M439.01563 478.96094l2.14843 1.17969"/></g><g clip-path="url(#W)"><path fill="none" stroke="#000" stroke-linecap="round" stroke-linejoin="round" stroke-miterlimit="10" stroke-width=".5" d="M453.52734 479.0664l-6.55859 2.52344"/></g><g clip-path="url(#X)"><path fill="none" stroke="#000" stroke-linecap="round" stroke-linejoin="round" stroke-miterlimit="10" stroke-width=".5" d="M453.52734 479.0664l1.85157 1.60938"/></g><g clip-path="url(#Y)"><path fill="none" stroke="#000" stroke-linecap="round" stroke-linejoin="round" stroke-miterlimit="10" stroke-width=".5" d="M466.44922 482.33203l-5.77344-4.00781"/></g><g clip-path="url(#Z)"><path fill="none" stroke="#000" stroke-linecap="round" stroke-linejoin="round" stroke-miterlimit="10" stroke-width=".5" d="M147.05078 465.27344l-6.10156 3.48047"/></g><path fill="none" stroke="#000" stroke-linecap="round" stroke-linejoin="round" stroke-miterlimit="10" stroke-width=".5" d="M146.16406 465.78125l1.03516.65234m13.40234-.66406l-6.57031 2.48828m5.61328-2.125l.92188.8086m13.41015-1l-6.6914 2.14453m5.71875-1.83203l.8789.85546m13.35156-1.33593l-6.57812 2.48047m5.6211-2.1172l.92187.8086m13.36328-1.13672l-6.60156 2.41016m5.64062-2.0586l.91016.82032m13.47266-.8086l-6.82032 1.6836m5.82813-1.4414l.82031.91405m13.54297.26172l-6.92969-1.15234m5.92188.98438l.39062 1.16406m13.90234-.83985l-6.87109-1.46484m5.8711 1.25l.33984 1.17969m13.5625.09765L247.5 465.21875m5.16406 3.0664l-.0586 1.22657m14.64845-1.6875l-6.83594-1.6211m5.83984 1.38672l.3125 1.1875m14.02344-1.0625l-6.88672-1.40234m5.88672 1.19531l.34766 1.17969m14.03515-1.5039l-7.01953-.33985m5.9961.29297l.52343 1.10937m13.0664.94141l-5.52343-4.34375m4.71875 3.71094l-.21484 1.20703m14.46484-.75l-5.78515-3.9961m4.9414 3.41407l-.14062 1.21875m14.87109-2.04297l-6.92578-1.1836m5.91797 1.01172l.38281 1.16407m13.98828-1.70704l-7.02344.2461m6-.21094l.61329 1.0625m13.6953-1.44922l-6.96484.94922m20.3047-.27734l-7.01563-.39453m5.99609.33593l.51563 1.11328m13.72656-.42968l-6.83203-1.64453m5.83984 1.40234l.3086 1.1875m12.49218 1.1836l-3.8164-5.90235m3.26171 5.04297l-.59765 1.07031m13.5664.20313l-2.01171-6.73047m1.71875 5.7539l-.875.85938m15.45312-.34375l-3.95703-5.8086m3.38281 4.96094l-.57031 1.08985m15.67969-1.69141l-6.39454-2.90625m5.46485 2.48047l.07812 1.22656m14.44141-1.72656l-6.94531-1.0586m5.9375.90625l.40625 1.15625m12.95703.92579l-5.02344-4.91797m5.02344 4.91797l-.69531 2.35156"/><g clip-path="url(#aa)"><path fill="none" stroke="#000" stroke-linecap="round" stroke-linejoin="round" stroke-miterlimit="10" stroke-width=".5" d="M147.32813 452.57422l-6.65625 2.25"/></g><path fill="none" stroke="#000" stroke-linecap="round" stroke-linejoin="round" stroke-miterlimit="10" stroke-width=".5" d="M146.35938 452.90234l.89453.83985m13.5703-.21485l-7.01952.34375m6-.29297l.625 1.05079m13.71484-.91407l-7.02734-.03515m6.0039.03125l.57032 1.08594m13.76562-.95704l-7.02344-.28125m6 .23829l.53516 1.10546m13.79297-1.48828l-7.0039.57032m5.98437-.48829l.66406 1.03516m13.6289-1.4414l-6.92187 1.21874m5.91406-1.04296l.75782.96875m13.59765-.92188l-6.98437.77344m5.96875-.66016l.6914 1.01172m13.65235-.48437l-7.00781-.50782m5.98828.4336L240.1875 455m13.82813-.94531l-6.9922-.71094m5.97657.60547l.46094 1.13672m13.78906-.5625l-6.82813-1.64844m5.83594 1.40625l.30469 1.1914m14.10156-1.76171l-7.02734-.02344m6.0039.01953l.57422 1.08594m13.72266-1.6289l-6.94531 1.0703m5.9375-.91406l.73437.98047m13.6289-.7539l-7.02343.30468m19.65625 1.92969l-5.66015-4.16406m4.83593 3.5586l-.17578 1.21093m14.96875-2.22266l-6.96484-.9336m5.94922.80079l.42968 1.14844m13.82813-2.3164l-6.82422 1.67187m5.83203-1.4297l.8164.91407m13.58594-.5664l-7.01171.48828m5.99218-.41797l.64844 1.04297m9.8164 2.625l.73048-6.98828m15.4453 5.96484l-4.99608-4.9414m4.26953 4.22265l-.35157 1.17578m13.73047.07031l-3.66797-5.9961m3.13282 5.125l-.625 1.0547m12.03515.28125l1.21094-6.92188m-1.03516 5.91406l-1.16406.38282m12.9336.0703l3.94921-5.8125m-3.375 4.96485l-1.21875-.13281m13.71875.80078l4.4336-5.45312m-3.78906 4.66015l-1.20313-.23828m13.17578.26563l5.82813-3.92578m-4.98047 3.35546l-1.08203-.57422m19.36328 1.16407l-5.80078-3.96094m4.95703 3.38672l-.13281 1.21875"/><g clip-path="url(#ab)"><path fill="none" stroke="#000" stroke-linecap="round" stroke-linejoin="round" stroke-miterlimit="10" stroke-width=".5" d="M147.3789 441.34766l-6.7578-1.9297"/></g><path fill="none" stroke="#000" stroke-linecap="round" stroke-linejoin="round" stroke-miterlimit="10" stroke-width=".5" d="M146.39453 441.0664l.25781 1.19923m14.16016-1.5547l-6.9961-.65624m5.98048.5625l.46875 1.13281m13.85156-1.80078l-6.97266.8711m20.3125-.44532l-7.02344.01562m6.00391-.01171l.57813 1.08203m13.68359-.35157l-6.875-1.45312m5.875 1.24219l.33594 1.17968m13.78906-.35937l-6.4961-2.67188m5.55079 2.28516L213 442.55078m14.39063-1.83984l-7-.65235m20.25-.41406l-6.8711 1.48047m5.8711-1.26563l.79296.9375m13.44922.60938l-6.72265-2.04297m5.74218 1.7461l.23828 1.20312m13.73438-.16797l-6.08203-3.51953m5.19922 3.00781l-.04297 1.22656m13.69922-.0039l-4.9961-4.9414m19.21875 1.60546l-6.8125 1.72656m5.82032-1.47265l.82421.90625m13.4961-1.10157l-6.83985 1.60938m5.84766-1.375l.8086.92187m13.3203 1.01172l-6.47656-2.72656m5.53125 2.33203l.11329 1.21875m14.09765-.71094l-6.3789-2.94921m5.44921 2.51953l.06641 1.22265m14.30078-1.10156l-6.6289-2.33594m5.66406 1.9961l.1836 1.21484m12.74218.875l-3.91797-5.83594m16.29688 2.91797l-.01954-.19922-.05859-.1914-.09375-.17578-.46094-.37891-.1914-.0586-.19922-.01953-.19922.01954-.1914.05859-.45704.3789-.09765.17579-.0586.1914-.01953.19922.01953.19922.0586.1914.09765.1797.45703.375.19141.05859.19922.01953.19922-.01953.1914-.0586.46094-.375.09375-.17968.0586-.1914.01953-.19923m13.3164 3.36328l-2.04687-6.72265m14.97265 6.8164l-1.26953-6.91015m1.08594 5.90234l-.96094.76563M409 443.64844l2.60156-6.52735m-2.22265 5.57813l-1.21875.13281m13.18359.23047l4.54687-5.35547m-3.88671 4.57422l-1.19922-.26172m14.35547 1.39844l3.54296-6.0664m-3.02734 5.18359l-1.22656-.05078m13.58203.625l4.4336-5.45313m-3.78907 4.66016l-1.20312-.23828m18.91015.40234l-5.64062-4.1914m4.82031 3.58202l-.1836 1.21094"/><g clip-path="url(#ac)"><path fill="none" stroke="#000" stroke-linecap="round" stroke-linejoin="round" stroke-miterlimit="10" stroke-width=".5" d="M147.26953 428.35156l-6.53906-2.5664"/></g><path fill="none" stroke="#000" stroke-linecap="round" stroke-linejoin="round" stroke-miterlimit="10" stroke-width=".5" d="M146.32031 427.97656l.14063 1.21875m14.3125-1.5l-6.91406-1.2539m5.90625 1.07422l.375 1.16796m11.51171-1.61328l-.01953-.20312-.0586-.1914-.09374-.17579-.46094-.375-.1914-.0586-.19922-.01953-.19922.01954-.1914.05859-.45704.375-.09375.17578-.0586.1914-.01952.20313.01953.19922.05859.1914.09375.17579.45703.375.1914.0586.19923.01952.19922-.01953.1914-.0586.46094-.375.09375-.17577.0586-.1914.01952-.19923m15.6875-.91406l-6.78906 1.82422m17.26563-4.38281l-1.11328 6.9414m13.08984-.04687l1.5625-6.84766m9.53125 5.25l6.0039-3.65234m8.4297 4.79297l3.76952-5.9336m12.01953 6.42969l-1.17968-6.92578m1.00781 5.91797l-.96875.75m13.60938.30078l.51562-7.00781m-.4414 5.98828l-1.1211.49218m13.89844.46094l1.4414-6.8789m-1.23047 5.8789l-1.17968.33985m16.13281.54687l-2.2539-6.65234m15.95702 6.4961l-3.03515-6.33985m2.59375 5.41797l-.72656.98437m16.45703-2.83594l-6.98047-.79297m5.96484.6797l.44922 1.14062m13.33594.4961l-5.88672-3.83985m5.02734 3.28125l-.10937 1.22265m7.84375-2.95312l6.98828.73828m7.86328 2.54688L359 424.15233m-3.34766 4.98438l-1.22265-.125m13.29687.38672l5.25781-4.66016m-4.49218 3.98438l-1.14844-.4297m15.60547-4.66405l1.44531 6.8789m-1.23437-5.8789l.9414-.78516m16.15235 1.92969l-6.53516 2.58984m5.58203-2.21094l.9375.79297m11.94922-2.83984l-3.77344 5.92578m17.20313-5.85156l-4 5.77734m3.41797-4.9375l1.21875.14453m7.42187 3.22266l6.51172-2.63672m9.13672 4.70703l1.84375-6.77734m-1.57422 5.79297l-1.19922.26953m16.4375.60156l-2.54297-6.55078m2.17578 5.59766l-.80468.92968"/><g clip-path="url(#ad)"><path fill="none" stroke="#000" stroke-linecap="round" stroke-linejoin="round" stroke-miterlimit="10" stroke-width=".5" d="M147.51172 413.82813l-7.02344-.14844"/></g><path fill="none" stroke="#000" stroke-linecap="round" stroke-linejoin="round" stroke-miterlimit="10" stroke-width=".5" d="M146.49219 413.8086l.55078 1.09374m13.69531-1.9375l-6.84766 1.57813m5.85157-1.35156l.80469.92578m13.59765-.30469l-7.02734-.1211m6.0039.10547l.5586 1.09375m13.77344-1.33593l-7.01563.39843m5.9961-.33984l.63671 1.04688m12.44531-3.59766l-4.51171 5.38281m12.10156-3.23437l6.9414 1.08593m-5.93359-.92968l-.40234-1.15625m12.67578 1.80078l7.00781-.51563m-5.98828.44141l-.65234-1.03906m13.35937 2.52343l6.1836-3.33593m-5.28516 2.85156l-1.01953-.67969m15.40234 2.82422l2.2539-6.65625m-1.92577 5.6875l-1.21094.19922m14.02734.70703l2.59375-6.53125m-2.21875 5.57813l-1.21875.13671m13.33985.35547l4.23047-5.60937m-3.61329 4.79297l-1.21484-.1914m14.19531 1.19921l3.66797-5.99219m-3.13672 5.1211l-1.22265-.07422m14.125 1.01562l3.42968-6.13281m9.33985 5.7539l4.51953-5.3789m-3.86328 4.59766l-1.19922-.25391m14.0586 1.1914l4.12109-5.6914m-3.52344 4.86328l-1.21484-.16797m12.87109-.23828l6.24219-3.22266m7.42968 3.78125l5.52735-4.33593m-4.72266 3.70312l-1.1211-.4961m13.14063.28126l6.51172-2.64063m-5.5664 2.25782l-.94141-.78907m13.08203-.59765l6.96875.89843m-5.95703-.76953l-.42969-1.14843m13.3125-.50782l5.8086 3.95313m-4.96485-3.3789l.13281-1.21876m15.07813-.89062l.32812 7.01953m-.28125-5.9961l1.0547-.625m14.09765.04688l-3.4375 6.13281m3.4375-6.13281l2.44922.05469m11.76562.67187l-5.23828 4.67969m4.47656-4l1.15235.42578m11.82422 4.40234l-3.03907-6.33593M451.32422 416l-.73047.98828m16.10156-1.64453l-6.26562-3.17969m5.35156 2.71875l.02344 1.22656"/><g clip-path="url(#ae)"><path fill="none" stroke="#000" stroke-linecap="round" stroke-linejoin="round" stroke-miterlimit="10" stroke-width=".5" d="M147.50781 400.21484l-7.01562.44532"/></g><path fill="none" stroke="#000" stroke-linecap="round" stroke-linejoin="round" stroke-miterlimit="10" stroke-width=".5" d="M146.48438 400.28125l.64453 1.04297m13.69922-.78516l-7.02344-.19922m6 .16797l.54687 1.10156m13.28516-2.98828l-6.01172 3.63672m5.13672-3.10937l1.05469.6289m9.64062-2.8203l.97656 6.96093m-.83203-5.94531l.99219-.72266m10.69531.28125l3.9414 5.8164m-3.36718-4.97265l.57422-1.08203m11.30078 1.07031l5.67188 4.14844m-4.84375-3.54297l.17187-1.21484m11.63672 2.70312l7.02734-.03906m-7.02734.03906l-1.16016-2.16015m15.44532-.28125l5.08984 4.84375m-4.34766-4.14063l.32813-1.17969m11.3164 3.42188l6.94922-1.04297m7.7422 3.33984l4.1953-5.64062m-3.58593 4.82031l-1.21094-.1836m13.17578.25391l5.67969-4.13672m-4.85547 3.53516l-1.10156-.53906m13.5039 1.01172l5.85547-3.88282m-5.0039 3.32032l-1.07813-.58594m13.39453.91015l6.14844-3.40234m-5.2539 2.90625l-1.02735-.66797m14.17969-3.15625l4.68359 5.23828m11.9961-2.62109l-.01954-.19922-.0586-.1914-.09374-.17579-.46094-.3789-.1914-.05469-.19922-.02344-.19922.02344-.1914.05469-.45704.3789-.09766.17579-.05859.1914-.01953.19922.01953.19922.0586.1914.09765.1797.45703.375.1914.05859.19923.01953.19921-.01953.19141-.0586.46094-.375.09375-.17969.0586-.1914.01952-.19922m8.85938-.7461l6.86719 1.4961m6.39453-.3125l6.97265-.8711m8.17188 3.53126l3.3125-6.19532m-2.82813 5.29688l-1.23047-.0039m18.96485-.85157l-6.49219-2.6875m5.54688 2.29688l.11718 1.22265m9.04297-5.16015l3.70703 5.96875m9.77735.10156l3.36718-6.16797m14.67579 1.32422l-6.08594 3.51562m5.19922-3.0039l1.03906.65234m13.34766-.79297l-6.45704 2.77735m6.45704-2.77735l1.91406 1.53516m11.1875 1.65625l-6.03125-3.60547m5.15625 3.07812l-.0625 1.22657m14.125-.50391l-5.77735-4m4.9375 3.41797l-.14453 1.21875"/><g clip-path="url(#af)"><path fill="none" stroke="#000" stroke-linecap="round" stroke-linejoin="round" stroke-miterlimit="10" stroke-width=".5" d="M147.17578 385.6211l-6.35156 3.0039"/></g><path fill="none" stroke="#000" stroke-linecap="round" stroke-linejoin="round" stroke-miterlimit="10" stroke-width=".5" d="M160.78906 387.65234l-6.94922-1.05859m16.83985-2.98438l-.10156 7.02735m.08984-6.0039l1.08984-.5586m11.86328-.44922l.64844 6.9961m-.55469-5.97657l1.02735-.67578m10.72656.13281l3.58594 6.04297m-3.58594-6.04297l1.27344-2.09765m14.95703 1.78906l-2.2461 6.66015m1.91797-5.6914l1.21094-.19922m7.98047 1.4336l6.65625 2.2539m7.03516.78125l5.90234-3.8164m-5.04297 3.26171l-1.07031-.59765m15.13281-4l2.6914 6.48828m8.75782-1.8125l6.41797-2.86328m-5.48438 2.4453l-.96484-.7539m13.39844 1.27735l6.32031-3.07422m-5.40234 2.625l-.9922-.72266m13.09376.28516l6.90625-1.30078m-5.89844 1.11328l-.76953-.96094m13.33984 1.96875l6.38282-2.9414m-5.45313 2.51171l-.97656-.74219m13.0664.12891l6.97266-.85156m-5.95703.72656l-.70313-1.00781m19.62891-.875l-6.27734 3.16015m19.3086.46485l-5.71485-4.08985m4.88672 3.4961l-.16407 1.21484m13.45313.22266l-4.0039-5.77735m3.42187 4.9375l-.5625 1.08985m15.25781-1.01563L367.55469 385m4.78515 3.6289l-.1953 1.21094m14.94921-3.5078l-6.84766 1.58202m5.85157-1.35156l.80468.92578m13.41016-1.5l-6.65234 2.26953m5.68359-1.9375l.89453.83594m13.57031-.2539l-7.01562.4414m5.9961-.375l.64062 1.04297m13.09765-2.85547l-5.82421 3.9336m4.97656-3.35938l1.08594.57422m13.26171-.84375l-6.1914 3.32812m6.1914-3.32812l2.03907 1.35937m11.42968 1.64063l-6.5-2.67578m5.5547 2.28515l.12108 1.22266m13.44922.23828l-5.11718-4.8164m5.11718 4.8164l-.64843 2.36719"/><g clip-path="url(#ag)"><path fill="none" stroke="#000" stroke-linecap="round" stroke-linejoin="round" stroke-miterlimit="10" stroke-width=".5" d="M147.28125 372.54688l-6.5625 2.51953"/></g><path fill="none" stroke="#000" stroke-linecap="round" stroke-linejoin="round" stroke-miterlimit="10" stroke-width=".5" d="M146.32422 372.91406l.92578.80469m12.95313-1.91406l-5.77344 4.00781m4.9336-3.42578l1.08983.5625m12.75-1.53125l-5.14453 4.78125m4.39453-4.08594l1.16016.39844m11.25-2.09375l-1.83594 6.78125m1.83594-6.78125l2.39453-.54688m13.4375 3.19922l-6.8711 1.47266m6.8711-1.47266l1.58203 1.8789m11.71094-.30468l-6.82422-1.67187m6.82422 1.67187l.60156 2.3789m-1.59375-2.62109l.30078 1.1875m13.89063-.5664l-6.59375-2.42969m6.59375 2.42969l.33203 2.42969m12.83203-2.07813l-6.28906-3.13281m6.28906 3.13281l.0625 2.45313m13.3711-2.71875l-6.52735-2.60157m5.57813 2.22266l.13281 1.21875m14.25-3.08594l-6.76563 1.89063m6.76563-1.89063l1.6914 1.77735m11.6836-1.54297l-6.88281 1.41796m5.8789-1.21093l.78516.94531m6.6289.16016l6.92188-1.20704m-5.91406 1.03125l-.7539-.96484m13.3125 1.96094l6.42187-2.84375m-6.42188 2.84375l-1.9336-1.51172m15.8086 2.39453L319.7461 371.5m-4.53125 3.94531l-1.14453-.4414m17.3711 2.16406l-2.0625-6.71875m1.76172 5.74219l-.86329.86718m15.78516-.625l-4.67187-5.25m3.99218 4.48438l-.42578 1.15234m15.1211-1.24219l-6.07422-3.53906m6.07422 3.53906l-.09766 2.44922m13.51172-2.6328l-6.26953-3.17188m5.35547 2.71093l.02734 1.22657M387 372.68359l-6.65625 2.25m5.6875-1.92187l.89063.83984m11.67578-3.16406l-3.22266 6.24219m2.7539-5.33594l1.22657-.01172m13.01562-.61328l-4.13671 5.67969m3.53515-4.85547l1.21094.17187m13.35156-.38671l-5.42969 4.46093m18.58985-4.63672l-5.1211 4.8125m4.375-4.11328l1.16407.39453m13.84765 1.38672l-7.02343-.14844m6.0039.125l.55078 1.09766m11.625 2.09375l-2.70312-6.48437m2.3086 5.54296l-.77735.94532"/><g clip-path="url(#ah)"><path fill="none" stroke="#000" stroke-linecap="round" stroke-linejoin="round" stroke-miterlimit="10" stroke-width=".5" d="M147.28125 359.23828l-6.5625 2.51172"/></g><path fill="none" stroke="#000" stroke-linecap="round" stroke-linejoin="round" stroke-miterlimit="10" stroke-width=".5" d="M147.28125 359.23828l1.85156 1.60938m11.58985-1.20704l-6.81641 1.70313m5.82422-1.45313l.82422.91016m13.47265-1.20312l-6.79687 1.78906m5.8086-1.52735l.83202.90235m13.54688.26953l-6.94531-1.07422m6.9453 1.07422l.8086 2.3164m12.5-2.28515l-6.9336-1.14063m6.9336 1.14063l.78516 2.32813m-1.79297-2.4922l.78516 2.32423m13.5703-2.41016l-6.99608-.63672m6.99609.63672l.94922 2.26172m-1.96875-2.35547l.47656 1.13281m13.66797-.17578l-6.61719-2.36328m6.61719 2.36328l.35547 2.42578m12.64062-1.76172l-5.98047-3.6914m5.10938 3.15234l-.07813 1.22656m14.75-2.0078l-6.94922-1.05079m5.9375.89844l.40625 1.15625m11.4297-4.90235l-1.96876 6.7461m1.67969-5.76563l1.20313-.25m12.3164-.7539l-1.80078 6.79296m1.53906-5.80468l1.19531-.28125m12.75-.58985l-2.53515 6.5547m2.16406-5.59767l1.21875-.14843m11.76563 5.9375l-1.13282-6.9336m.96875 5.92579l-.97656.74218m14.01563.3086l-.25391-7.02344m.2539 7.02344l-2.12109 1.23046m15.5-1.23437l-.38281-7.01563m.32812 5.9961l-1.05078.63281m13.82032.3711l.8203-6.98047m-.69921 5.96484l-1.14453.44531m17.1875-.39062l-4.8789-5.0586m4.16796 4.32032l-.3789 1.16796m15.36718-2.08203l-6.80469-1.7539M384.04297 357l-.74219 6.98828m.63281-5.97265l1.14063-.45704m13.16797-.34765l-2.51172 6.5625m2.14453-5.60547l1.21875-.15235m12.26172-.875l-2.10938 6.70313m1.80078-5.72656l1.20704-.22656m12.01562-.85157l-1.30469 6.90625m1.11328-5.89844l1.17188-.36718m12.01172-.6836l-.66016 6.9961m.5625-5.98047l1.13281-.46875m10.33985-.17188l3.22265 6.2461m10.6797.23828l2.04687-6.72266"/><g clip-path="url(#ai)"><path fill="none" stroke="#000" stroke-linecap="round" stroke-linejoin="round" stroke-miterlimit="10" stroke-width=".5" d="M147.32031 346.02734l-6.64062 2.3047"/></g><path fill="none" stroke="#000" stroke-linecap="round" stroke-linejoin="round" stroke-miterlimit="10" stroke-width=".5" d="M147.32031 346.02734l1.79688 1.66797m-2.76563-1.33594l.90235.83594m13.5664-.22656l-7.01172.42188m7.01172-.42188l1.28125 2.09375m11.96485-1.14844l-6.8711-1.47265m6.8711 1.47265l.67187 2.35938m-1.67187-2.57422l.33593 1.17969m14.03125-2.125l-6.97656.85156m6.97656-.85156l1.40625 2.0078m11.9336-1.67187l-7.02735.17579m7.02735-.17579l1.20703 2.13672m12.10547-2.21094l-7.01953.32422m7.01953-.32421l1.25 2.10937m11.66015-3.58594l-6.21484 3.27735m6.21484-3.27735l2.03125 1.3789m8.88672-3.17968l-1.41797 6.88281m1.21094-5.8828l1.17969-.34767m9.6836-.1328l3.90234 5.84374m-3.33594-4.9961l.58203-1.07812m12.57031-.0039l3.09375 6.3086m-2.64453-5.39063l.72266-.9961m11.86328.23047l3.65234 6.0039m-3.65234-6.0039l1.25-2.10937m11.40625 2.6289l4.96875 4.96875m-4.2461-4.2461l.35938-1.17577m15.25781 6.40625l-1.07812-6.9414m13.66797 6.98046l.37109-7.01953m-.3711 7.01953l-2.22656 1.03516m15.42579-1.04297l.60546-7.0039m-.51953 5.98437l-1.1289.48046m14.3164.53516l.6836-6.9961m15.97656 5.32423l-6.0039-3.65235m5.1289 3.1211l-.07031 1.22656m14.74609-2.09766l-6.97656-.84765m5.96094.72656l.4414 1.14453m13.27344-3.47266l-5.74219 4.05079m4.90625-3.46094l1.09375.55469m10.47266-2.6211l-.57422 7.0039m.49219-5.98437l1.125-.48437m11.39062-.4961l1.1914 6.92579m-1.01952-5.91797l.96875-.75m11.82422-.1797l1.89062 6.76954m-1.61719-5.78516l.89063-.84375m12.48828-.21484l1.21484 6.92188M436.5 344.72265l.96875-.75391m12.69531-.30469l.16797 7.02735m-.14453-6.00391l1.07031-.60156m9.44532 1.04687l5.71484 4.08985m-4.88281-3.4961l.16406-1.21484"/><g clip-path="url(#aj)"><path fill="none" stroke="#000" stroke-linecap="round" stroke-linejoin="round" stroke-miterlimit="10" stroke-width=".5" d="M147.32422 332.72656L140.67578 335"/></g><path fill="none" stroke="#000" stroke-linecap="round" stroke-linejoin="round" stroke-miterlimit="10" stroke-width=".5" d="M147.32422 332.72656l1.79297 1.67969m-2.76172-1.34766l1.79297 1.67579m12.4336-2.16016l-6.53517 2.57812m6.53516-2.57812l1.86719 1.58984m-2.8164-1.21484l.93359.79687m13.28906-1.27734l-6.44922 2.78906m6.44922-2.78906L175.77344 334m10.96484-2.26953l-5.58594 4.26172m4.77344-3.64063l1.11328.51172m11.04297-2.41797l-1.64453 6.83203m1.40625-5.83593l1.1875-.3086m13.28125-.32422l-3.47656 6.10938m3.47656-6.10938l2.45313.07032m10.88671-.0547l-3.52343 6.07813m3.52343-6.07812l2.44922.08594m10.4414-.29688l-2.67577 6.5m2.28906-5.55469l1.21875-.11718m9.92969-.875l2.4336 6.59375m-2.08204-5.63282l.8164-.91796m11.1211.55078l4.48438 5.40625m-3.83204-4.6211l.46485-1.13281m11.63281.9375l5.61328 4.22656m-4.79687-3.61328l.1914-1.21094m12.79688 5.35157l4.63672-5.28125m-3.96485 4.51171l-1.1914-.28125m15.55078 1.8711l1.20312-6.92188m-1.03125 5.91407l-1.16406.3828m14.55469.66017l.70703-6.9922m-.70703 6.9922l-2.27344.92578m18.32422-1.83594l-4.76172-5.17188m4.0664 4.41797l-.40624 1.15625m14.5039-.48828l-4.9375-5m4.21875 4.27344l-.36719 1.16797m14.2422-.29297l-4.6211-5.29688m3.94922 4.52344l-.4375 1.14844m13.13672-3.02344l-.01954-.19922-.05859-.1914-.09375-.17579-.46094-.3789-.1914-.0586-.19922-.01953-.19922.01954-.1914.05859-.45704.3789-.09765.17579-.0586.1914-.01953.19922.01953.19922.0586.1914.09765.17579.45703.3789.19141.0586.19922.01953.19922-.01953.1914-.0586.46094-.3789.09375-.17578.0586-.19141.01953-.19922m15.5703-1.26172l-6.55859 2.52344m5.60547-2.15625l.92578.80469m12.80079-2.11328L394.25 336.0664m4.67578-3.76563l1.1289.48047m10.53907-2.41797l-.58594 7m.5-5.98437l1.1289-.48047m10.4297-.1875l3.10156 6.30469m-3.10156-6.3047l1.4375-1.99218m10.47265 3.24219l5.91016 3.80469m-5.05078-3.25l.10156-1.22266m15.90625-.89063l-1.19531 6.92188m13.84375-6.97266l.14062 7.02344m-.1211-6.0039l1.07032-.59766"/><g clip-path="url(#ak)"><path fill="none" stroke="#000" stroke-linecap="round" stroke-linejoin="round" stroke-miterlimit="10" stroke-width=".5" d="M146.17578 317.78906l-4.35156 5.51563"/></g><path fill="none" stroke="#000" stroke-linecap="round" stroke-linejoin="round" stroke-miterlimit="10" stroke-width=".5" d="M146.17578 317.78906l2.41406.4414m-3.04687.36329l1.20703.21875m11.88672-1.51953l-2.64063 6.51172m2.64063-6.51172l2.4375-.2539m-2.82422 1.19921l1.22266-.125m12.54687-.79297l-2.77734 6.45703m2.77734-6.45703l2.44531-.20312m11.0586.29297l-3.15625 6.27734m3.15625-6.27734l2.45312-.0586m10.14844-.21094l-1.73047 6.8125m1.48047-5.8203l1.1914-.28907m11.53907-.8086l-.0586 7.02735m.05079-6.0039l1.08593-.57032m10.82813-.17187l2.75781 6.46484m-2.75781-6.46484l1.54297-1.91016m10.7539 2.57031l4.79297 5.14063m-4.79297-5.14063l.80078-2.32031m11.57032 3.79688l6.67969 2.1875m-6.6797-2.1875l-.41796-2.41797m13.61328 2.90234l6.92188 1.22266m-6.92188-1.22266l-.75781-2.33594m14.71875 5.05078l5.6289-4.21093m-4.80859 3.59765l-1.10938-.51953m15.05079 2.26563l2.73437-6.47266m-2.33594 5.53125l-1.22265.10938m14.4961.96093l2.01952-6.73047m-1.72265 5.75l-1.20313.2422m13.47266.41015l3.52344-6.07813m-3.52344 6.07813L312.8828 323.5m16.78125.48047l1.49219-6.86719m-1.27344 5.86719l-1.1836.33594m15.5547.70703l-1.0547-6.94922m.89845 5.9375l-.98438.73047m13.41797.28125l1.01953-6.95313m-.8711 5.9414l-1.15624.41407m11.33594-2.52344l6.99218-.70703m-5.97265.60156l-.6836-1.01953m19.51563 2.53516l-6.07813-3.53125m19.6875.66016l-6.66797 2.21093m5.69922-1.88671l.88672.84765m12.25781-2.8086l-4.39062 5.48829m3.7539-4.6914l1.20313.22656m10.64063-1.79297l-.17579 7.02343m.17579-7.02343l2.1953-1.09766m8.41407 6.95313l5.23828-4.6836m-4.47656 4l-1.15234-.42187m19.53125.19921l-6.41407-2.87109m6.41407 2.8711l.16406 2.44921m12.08984-6.66796l-4.29297 5.5664"/><g clip-path="url(#al)"><path fill="none" stroke="#000" stroke-linecap="round" stroke-linejoin="round" stroke-miterlimit="10" stroke-width=".5" d="M465.70703 317.76563l2.41797.41015"/></g><path fill="#00f" fill-rule="evenodd" d="M383.80078 436.57813h8.61719v-10.14454h-8.61719v10.14454"/><path fill="azure" fill-rule="evenodd" d="M385.63281 428.26563h.83203v2.82421h3.28907v-2.82421h.83203v6.48046h-.83203v-2.91406h-3.28907v2.91406h-.83203v-6.48046"/><path fill="#00f" fill-rule="evenodd" d="M224.01953 414.38672h8.61719v-10.14453h-8.61719v10.14453"/><path fill="azure" fill-rule="evenodd" d="M225.85156 406.07422h.83594v2.82422h3.28516v-2.82422h.83203v6.48047h-.83203v-2.91406h-3.28516v2.91406h-.83594v-6.48047"/><path fill="#00f" fill-rule="evenodd" d="M366.04688 401.07422h8.61718v-10.14844h-8.61719v10.14844"/><path fill="azure" fill-rule="evenodd" d="M367.8789 392.76172h.83594v2.82031H372v-2.82031h.83203v6.47656H372v-2.91406h-3.28516v2.91406h-.83593v-6.47656"/><path fill="#ff3030" fill-rule="evenodd" d="M442.1914 401.07422h7.69532v-10.14844h-7.69531v10.14844"/><path fill="azure" fill-rule="evenodd" d="M444.02734 392.76172h.83204V398.5h3.1953v.73828h-4.02734v-6.47656"/><path fill="#ff3030" fill-rule="evenodd" d="M331.23438 392.19531h7.6914v-10.14453h-7.6914v10.14453"/><path fill="azure" fill-rule="evenodd" d="M333.0664 383.88281h.83594v5.73828h3.19141v.7422h-4.02734v-6.48048"/><path fill="#ff3030" fill-rule="evenodd" d="M335.67188 365.5664h7.6953v-10.14452h-7.6953v10.14453"/><path fill="azure" fill-rule="evenodd" d="M337.5039 357.2539h.83594v5.73829h3.19141v.74219h-4.02734v-6.48047"/><path fill="#ffffe0" fill-rule="evenodd" d="M173.08594 382.20313h22.17969v-10.19141h-22.1797v10.1914"/><path fill-rule="evenodd" d="M176.58594 373.84375h.50781v6.29297h-.78516v-4.48828h-1.39062v-.55469l.5625-.0664.25-.0547.23047-.08593.20312-.14453.17578-.20703.14063-.29688.10547-.39453m4.8125 0l.23047.01953.21875.05469.20703.08984.19922.1211.18359.14843.17188.17579.30078.42187.24218.49219.1797.54687.11327.57813.03516.58984-.03516.59375-.11328.58594-.17969.55469-.24218.5-.30078.42968-.17188.1797-.1836.15233-.19921.125-.20703.08985-.21875.0586-.23047.01952-.22656-.01953-.21875-.0586-.21094-.08983-.19531-.125-.1836-.15235-.17187-.17969-.30078-.42968-.2461-.5-.17969-.5547-.10937-.58593-.03906-.59375h.83203l.03125.5664.08203.50391.125.44141.16406.375.1875.30078.21094.22266.22266.13672.22656.04687.22656-.04687.22266-.13672.21093-.22266.19141-.30078.16406-.375.125-.4414.08203-.50391.02735-.5664-.02735-.5586-.08203-.5-.125-.4375-.16406-.36719-.1914-.28906-.21094-.21485-.22266-.1328-.22656-.04298-.22656.04297-.22266.13281-.21094.21485-.1875.28906-.16406.36719-.125.4375-.08203.5-.03125.5586h-.83203l.03906-.58985.10937-.57813.1797-.54687.24608-.49219.30079-.42188.17187-.17578.1836-.14843.1953-.1211.21095-.08984.21875-.05469.22656-.01953m4.95312 0l.23047.01953.21875.05469.20703.08984.19531.1211.1875.14843.16797.17579.3047.42187.24218.49219.17969.54687.11328.57813.03515.58984-.03515.59375-.11328.58594-.1797.55469-.24218.5-.30469.42968-.16797.1797-.1875.15233-.1953.125-.20704.08985-.21875.0586-.23047.01952-.23047-.01953-.21875-.0586-.20703-.08983-.19531-.125-.1836-.15235-.17187-.17969-.30078-.42968-.2461-.5-.17968-.5547-.10938-.58593-.03906-.59375h.83203l.03125.5664.08203.50391.125.44141.16016.375.1914.30078.21094.22266.22266.13672.22656.04687.22656-.04687.22266-.13672.21094-.22266.1914-.30078.16016-.375.1289-.4414.08204-.50391.02734-.5664-.02734-.5586-.08203-.5-.1289-.4375-.16017-.36719-.1914-.28906-.21094-.21485-.22266-.1328-.22656-.04298-.22656.04297-.22266.13281-.21093.21485-.19141.28906-.16016.36719-.125.4375-.08203.5-.03125.5586h-.83203l.03906-.58985.10938-.57813.17969-.54687.24609-.49219.30078-.42188.17188-.17578.18359-.14843.19531-.1211.20703-.08984.21875-.05469.23047-.01953m4.95313 0l.38672.02734.35937.08204.32031.13671.28125.1875.23047.23829.17188.28515.10937.33203.03906.3789-.01953.27345-.05859.23437-.08984.19922-.10938.17188-.1289.14062-.14063.125-.28516.19531.23047.1211.20703.14453.1836.17187.15234.19531.125.21094.08984.23047.0547.2461.01952.2539-.03515.3086-.10156.32812-.17188.32422-.24219.30469-.30469.26953-.375.21484-.21093.08203-.22656.0625-.2461.03516-.26172.01562-.25781-.01562-.24219-.03516-.22265-.0625-.20703-.08203-.35938-.21484-.28906-.26953-.22266-.3047-.15625-.32421-.09375-.32813-.03125-.30859h.83203l.02735.2539.07812.23438.1211.21094.16015.1875.19531.15234.21875.11329.2422.0703.2539.02735.2539-.02734.2422-.07031.21874-.11329.19531-.15234.16016-.1875.1211-.21094.07812-.23437.02734-.2539-.02734-.25392-.07813-.23437-.12109-.21094-.16016-.1875-.1953-.15234-.21876-.11328-.24219-.07031-.2539-.02735-.2539.02735-.2422.0703-.21875.11329-.1953.15234-.16017.1875-.12109.21094-.07812.23438-.02735.2539h-.83203l.01953-.2539.05469-.23829.08984-.22656.125-.20703.15235-.1914.1836-.17188.20702-.15235.23047-.1328-.28516-.19532-.14062-.125-.1289-.14063-.10938-.17187-.08984-.19922-.0586-.23437-.01953-.27344h.78906l.02344.21094.0625.1914.10547.16797.13672.14063.16406.10937.1914.08203.20704.05078.21875.01563.21875-.01563.20703-.05078.1914-.08203.16407-.10937.13672-.14063.10547-.16797.0625-.1914.02343-.21094-.02344-.21485-.0625-.1914-.10546-.16797-.13672-.14063-.16406-.10937-.19141-.08203-.20703-.05078-.21875-.01563-.21875.01563-.20703.05078-.19141.08203-.16406.10938-.13672.14062-.10547.16797-.0625.1914-.02344.21485h-.78906l.03906-.3789.10938-.33204.17187-.28515.23047-.23829.28125-.1875.32031-.13671.35938-.08204.38672-.02734"/><path fill="#ffffe0" fill-rule="evenodd" d="M288.48438 436.80078h22.17968v-10.1914h-22.17969v10.1914"/><path fill-rule="evenodd" d="M291.98438 428.4414h.5078v6.29298h-.78515v-4.48829h-1.39062v-.55468l.55859-.06641.2539-.05469.23048-.08594.20312-.14453.17188-.20703.14453-.29687.10546-.39453m4.8125 0l.23047.01953.21875.05469.20704.08984.1953.1211.1836.14843.17188.17578.30468.42188.2422.49218.17968.54688.10937.57812.03907.58985-.03907.59375-.10937.58594-.17969.55468-.24219.5-.30468.42969-.17188.17969-.1836.15234-.1953.125-.20704.08985-.21875.05859-.23046.01953-.23047-.01953-.21875-.0586-.20704-.08984-.1953-.125-.1836-.15234-.17188-.17969-.30468-.42969-.2422-.5-.17968-.55469-.10937-.58593-.03907-.59375h.83204l.02734.5664.08203.50391.1289.4414.16016.375.1914.30079.21095.22265.22265.13672.22656.04688.22657-.04688.22265-.13672.21094-.22265.1914-.30078.16016-.375.12891-.44141.07813-.5039.03125-.56641-.03125-.5586-.07813-.5-.1289-.4375-.16016-.36718-.1914-.28907-.21095-.21484-.22265-.13281-.22656-.04297-.22657.04297-.22265.13281-.21094.21484-.1914.28907-.16016.36718-.12891.4375-.08203.5-.02735.5586h-.83203l.03907-.58985.10937-.57812.17969-.54688.24219-.49218.30468-.42188.17188-.17578.1836-.14844.1953-.1211.20704-.08983.21875-.0547.23046-.01952m4.95313 0l.23047.01953.21875.05469.20703.08984.19531.1211.1836.14843.17187.17578.30078.42188.2461.49218.17968.54688.10938.57812.03906.58985-.03906.59375-.10938.58594-.17968.55468-.2461.5-.30078.42969-.17187.17969-.1836.15234-.19531.125-.20703.08985-.21875.05859-.23047.01953-.23047-.01953-.21875-.0586-.20703-.08984-.19531-.125-.1875-.15234-.16797-.17969-.30469-.42969-.24219-.5-.17968-.55469-.11329-.58593-.03515-.59375H300.5l.02734.5664.08204.50391.1289.4414.16016.375.1914.30079.21094.22265.22266.13672.22656.04688.22656-.04688.22266-.13672.21094-.22265.1914-.30078.16016-.375.125-.44141.08203-.5039.03125-.56641-.03125-.5586-.08203-.5-.125-.4375-.16016-.36718-.1914-.28907-.21094-.21484-.22266-.13281-.22656-.04297-.22656.04297-.22266.13281-.21094.21484-.1914.28907-.16016.36718-.1289.4375-.08204.5-.02734.5586h-.83203l.03515-.58985.11329-.57812.17968-.54688.2422-.49218.30468-.42188.16797-.17578.1875-.14844.19531-.1211.20703-.08983.21875-.0547.23047-.01952m4.95313 0l.38671.02734.35938.08203.32031.13672.28125.1875.23047.23828.17188.28516.10937.33203.03906.3789-.02344.27344-.05468.23438-.08985.19922-.11328.17187-.1289.14453-.13672.1211-.28906.1953.23437.1211.20703.14453.17969.17188.15625.19531.1211.21094.09374.23047.05469.2461.01953.2539-.03515.3086-.10547.32812-.17188.32421-.23828.3047-.3086.26952-.37109.21485-.21094.08203-.23046.0625-.2422.03515-.26171.01563-.26172-.01563-.24219-.03515-.22265-.0625-.20313-.08203-.35937-.21485-.29297-.26953-.22266-.30469-.15625-.32421-.09375-.32813-.02734-.3086h.83203l.02734.25391.07813.23438.1211.21094.16015.1875.19531.15234.21875.11328.23828.07422.25781.02344.25391-.02344.24219-.07422.21875-.11328.1914-.15234.16016-.1875.125-.21094.07813-.23438.02343-.2539-.02343-.2539-.07813-.23438-.125-.21094-.16015-.1875-.19141-.15235-.21875-.11328-.24219-.0703-.2539-.02735-.25782.02734-.23828.07031-.21875.11329-.19531.15234-.16016.1875-.1211.21094-.07812.23437-.02734.2539h-.83203l.01953-.2539.05469-.23828.08984-.22656.125-.20703.15235-.19141.18359-.17188.20703-.15234.23047-.13281-.28516-.19531-.14062-.1211-.1289-.14453-.11329-.17187-.08594-.19922-.0586-.23438-.01952-.27344h.78515l.02344.21094.0664.1914.10548.16798.13671.14062.16407.10938.1875.08203.20703.05078.22265.01563.21875-.01563.20704-.05078.1875-.08203.16796-.10938.13672-.14062.10157-.16797.0664-.1914.02344-.21094-.02344-.21485-.0664-.1914-.10157-.16797-.13671-.14063-.16797-.10937-.1875-.08204-.20704-.05078-.21875-.01562-.22265.01562-.20703.05079-.1875.08203-.16406.10937-.13672.14063-.10547.16796-.0664.19141-.02345.21485h-.78515l.03906-.37891.10547-.33203.17578-.28516.23047-.23828.27734-.1875.32422-.13672.35938-.08203.38671-.02734"/><path fill="#ffffe0" fill-rule="evenodd" d="M399.4414 426.83203h22.1797v-10.1914h-22.1797v10.1914"/><path fill-rule="evenodd" d="M402.9414 418.47266h.50782v6.29687h-.78516v-4.49219h-1.38672v-.55468l.5586-.06641.25-.05078.23047-.08985.20312-.14453.17578-.20703.14063-.29687.10547-.39453m4.8125 0l.23046.01953.21875.05469.20704.08984.19921.1211.1836.14843.17187.17578.30079.42188.24218.49218.17969.54688.11328.57812.03906.59375-.03906.58985-.11328.58594-.17969.55468-.24219.5-.30078.42969-.17187.17969-.1836.15234-.19921.125-.20704.08985-.21875.05859-.23046.01953-.22657-.01953-.21875-.0586-.21093-.08984-.19532-.125-.18359-.15234-.17188-.17969-.30078-.42969-.24218-.5-.1797-.55469-.11327-.58593-.03906-.58985h.83593l.02735.5625.08203.50391.125.44531.16406.3711.1914.30078.20704.22265.22265.13672.22657.04688.22656-.04688.22265-.13672.21094-.22265.1914-.30078.16407-.3711.125-.44531.08203-.5039.02735-.5625-.02735-.5625-.08203-.5-.125-.4375-.16406-.36329-.1914-.29297-.21094-.21484-.22266-.13281-.22656-.04297-.22657.04297-.22265.13281-.20703.21484-.19141.29297-.16406.36328-.125.4375-.08203.5-.02735.5625h-.83594l.03907-.59375.11328-.57812.17969-.54688.24218-.49218.30079-.42188.17187-.17578.1836-.14844.1953-.1211.21094-.08983.21875-.0547.22657-.01952m4.95312 0l.23047.01953.21875.05469.20703.08984.19922.1211.1836.14843.17187.17578.30078.42188.24219.49218.17969.54688.11328.57812.03906.59375-.03906.58985-.11329.58594-.17968.55468-.24219.5-.30078.42969-.17188.17969-.18359.15234-.19922.125-.20703.08985-.21875.05859-.23047.01953-.22656-.01953-.21875-.0586-.21094-.08984-.19531-.125-.1836-.15234-.17187-.17969-.30078-.42969-.2461-.5-.17968-.55469-.10938-.58593-.03906-.58985h.83203l.03125.5625.08203.50391.125.44531.16406.3711.1875.30078.21094.22265.22266.13672.22656.04688.22656-.04688.22266-.13672.21094-.22265.1914-.30078.16407-.3711.125-.44531.08203-.5039.02734-.5625-.02734-.5625-.08203-.5-.125-.4375-.16407-.36329-.1914-.29297-.21094-.21484-.22266-.13281-.22656-.04297-.22656.04297-.22266.13281-.21094.21484-.1875.29297-.16406.36328-.125.4375-.08203.5-.03125.5625h-.83203l.03906-.59375.10938-.57812.17969-.54688.24609-.49218.30078-.42188.17188-.17578.18359-.14844.19531-.1211.21094-.08983.21875-.0547.22656-.01952m4.95313 0l.38671.02734.35938.08203.32422.13672.27734.1875.23047.23828.17188.28516.10937.33203.03906.3789-.01953.27344-.0586.23438-.08593.19922-.11328.17187-.1289.14453-.14063.1211-.28516.1953.23047.1211.20703.14453.1836.17188.15234.19531.125.21094.08984.23047.0547.2461.01952.2539-.03515.3086-.10157.32812-.17187.32421-.23828.3086-.3086.26562-.375.21485-.21093.08203-.22657.0625-.24609.03515-.26172.01563-.25781-.01563-.24219-.03515-.22265-.0625-.20704-.08203-.35937-.21485-.28906-.26562-.22266-.3086-.15625-.32421-.09375-.32813-.03125-.3086h.83203l.02735.25391.07812.23438.125.21094.16016.1875.1914.15234.21875.11328.24219.07422.2539.02344.25391-.02344.24219-.07422.21875-.11328.19531-.15234.16016-.1875.1211-.21094.07812-.23438.02734-.2539-.02734-.2539-.07813-.23438-.1211-.21094-.16015-.1836-.19531-.15234-.21875-.11719-.24219-.0703-.2539-.02735-.25391.02734-.24219.07031-.21875.1172-.1914.15233-.16016.1836-.125.21094-.07813.23437-.02734.2539h-.83203l.01953-.2539.05469-.23828.09375-.22656.1211-.20703.15624-.19141.17969-.17188.20703-.15234.23438-.13281-.28907-.19531-.13671-.1211-.13282-.14453-.10937-.17187-.08985-.19922-.05468-.23438-.02344-.27344h.78906l.02344.21485.0664.1914.10157.16407.13672.14062.16796.10938.1875.08203.20704.05078.21875.01563.22265-.01563.20703-.05078.1875-.08203.16407-.10938.13671-.14062.10547-.16406.06641-.19141.02344-.21485-.02344-.21484-.0664-.1914-.10548-.16797-.13671-.14063-.16407-.10937-.1875-.08204-.20703-.05078-.22265-.01562-.21875.01562-.20704.05079-.1875.08203-.16796.10937-.13672.14063-.10156.16796-.06641.19141-.02344.21485h-.78906l.03906-.37891.10938-.33203.17187-.28516.23047-.23828.28125-.1875.32031-.13672.35938-.08203.38672-.02734"/></g></defs><use xlink:href="#am"/></svg>