<svg xmlns="http://www.w3.org/2000/svg" role="img" xmlns:xlink="http://www.w3.org/1999/xlink" viewBox="142.45 309.95 326.84 171.84"><defs><clipPath id="a"><path d="M144 451h1v29.32813h-1zm0 0"/></clipPath><clipPath id="b"><path d="M144 311.67188h1V447h-1zm0 0"/></clipPath><clipPath id="c"><path d="M144 311.67188h324v168.65625H144zm0 0"/></clipPath><clipPath id="d"><path d="M389 476h10v4.32813h-10zm0 0"/></clipPath><clipPath id="e"><path d="M467 464h1v16.32813h-1zm0 0"/></clipPath><clipPath id="f"><path d="M467 311.67188h1V461h-1zm0 0"/></clipPath><clipPath id="g"><path d="M144 479h4v1.32813h-4zm0 0"/></clipPath><clipPath id="h"><path d="M147 480h2v.32813h-2zm0 0"/></clipPath><clipPath id="i"><path d="M153 479h9v1.32813h-9zm0 0"/></clipPath><clipPath id="j"><path d="M160 480h2v.32813h-2zm0 0"/></clipPath><clipPath id="k"><path d="M167 479h8v1.32813h-8zm0 0"/></clipPath><clipPath id="l"><path d="M180 479h8v1.32813h-8zm0 0"/></clipPath><clipPath id="m"><path d="M187 480h2v.32813h-2zm0 0"/></clipPath><clipPath id="n"><path d="M193 478h8v2.32813h-8zm0 0"/></clipPath><clipPath id="o"><path d="M206 478h9v2.32813h-9zm0 0"/></clipPath><clipPath id="p"><path d="M220 478h8v2.32813h-8zm0 0"/></clipPath><clipPath id="q"><path d="M233 478h8v2.32813h-8zm0 0"/></clipPath><clipPath id="r"><path d="M247 478h7v2.32813h-7zm0 0"/></clipPath><clipPath id="s"><path d="M260 477h7v3.32813h-7zm0 0"/></clipPath><clipPath id="t"><path d="M274 477h6v3.32813h-6zm0 0"/></clipPath><clipPath id="u"><path d="M287 477h7v3.32813h-7zm0 0"/></clipPath><clipPath id="v"><path d="M300 479h8v1.32813h-8zm0 0"/></clipPath><clipPath id="w"><path d="M315 476h4v4.32813h-4zm0 0"/></clipPath><clipPath id="x"><path d="M328 477h5v3.32813h-5zm0 0"/></clipPath><clipPath id="y"><path d="M341 476h5v4.32813h-5zm0 0"/></clipPath><clipPath id="z"><path d="M353 478h8v2.32813h-8zm0 0"/></clipPath><clipPath id="A"><path d="M366 480h9v.32813h-9zm0 0"/></clipPath><clipPath id="B"><path d="M367 478h2v2.32813h-2zm0 0"/></clipPath><clipPath id="C"><path d="M379 479h9v1.32813h-9zm0 0"/></clipPath><clipPath id="D"><path d="M378 478h3v2.32813h-3zm0 0"/></clipPath><clipPath id="E"><path d="M393 479h8v1.32813h-8zm0 0"/></clipPath><clipPath id="F"><path d="M391 478h3v2.32813h-3zm0 0"/></clipPath><clipPath id="G"><path d="M406 478h8v2.32813h-8zm0 0"/></clipPath><clipPath id="H"><path d="M406 480h3v.32813h-3zm0 0"/></clipPath><clipPath id="I"><path d="M419 479h9v1.32813h-9zm0 0"/></clipPath><clipPath id="J"><path d="M433 478h8v2.32813h-8zm0 0"/></clipPath><clipPath id="K"><path d="M433 480h2v.32813h-2zm0 0"/></clipPath><clipPath id="L"><path d="M448 477h5v3.32813h-5zm0 0"/></clipPath><clipPath id="M"><path d="M459 479h9v1.32813h-9zm0 0"/></clipPath><clipPath id="N"><path d="M460 479h2v1.32813h-2zm0 0"/></clipPath><clipPath id="O"><path d="M144 466h4v2h-4zm0 0"/></clipPath><clipPath id="P"><path d="M144 452h4v4h-4zm0 0"/></clipPath><clipPath id="Q"><path d="M144 438h4v5h-4zm0 0"/></clipPath><clipPath id="R"><path d="M144 425h4v4h-4zm0 0"/></clipPath><clipPath id="S"><path d="M144 412h2v4h-2zm0 0"/></clipPath><clipPath id="T"><path d="M144 396h2v8h-2zm0 0"/></clipPath><clipPath id="U"><path d="M465 397h3v3h-3zm0 0"/></clipPath><clipPath id="V"><path d="M144 384h3v6h-3zm0 0"/></clipPath><clipPath id="W"><path d="M465 383h3v2h-3zm0 0"/></clipPath><clipPath id="X"><path d="M144 371h3v6h-3zm0 0"/></clipPath><clipPath id="Y"><path d="M144 357h3v7h-3zm0 0"/></clipPath><clipPath id="Z"><path d="M465 357h3v1h-3zm0 0"/></clipPath><clipPath id="aa"><path d="M144 343h2v8h-2zm0 0"/></clipPath><clipPath id="ab"><path d="M144 341h1v4h-1zm0 0"/></clipPath><clipPath id="ac"><path d="M466 344h2v3h-2zm0 0"/></clipPath><clipPath id="ad"><path d="M144 331h4v6h-4zm0 0"/></clipPath><clipPath id="ae"><path d="M144 318h4v5h-4zm0 0"/></clipPath><clipPath id="af"><path d="M466 318h2v2h-2zm0 0"/></clipPath><g id="ag" clip-path="url(#clip1)"><path fill="#fff" fill-opacity="0" fill-rule="evenodd" d="M0 0h1000v1000H0zm0 0"/><path fill="#d3d3d3" fill-opacity="0" fill-rule="evenodd" d="M162.15234 355.86719l-.23437.29297.0586.23437.11718.17188.17578.23437.29297.34766.11328.0586.11719-.17188.0586-.23438.17577-.17578.46485-.17578h.69922l.23437.29297.28906.8164.0586.17579.17578.23046.35156.23438.69922.69922.17188.17578.23437.34765.23438.41016.28906.58203.41015.46485.23047.23437.23438.17578.11719.23047.17578.29297.17187 1.16406v.23438l.0586.28906.05859.11719.11719.11719.34765.41015.11719.17188.17578.17578.17578.23437.11719.17188.17188.35156.05859.23438.23437.40625.23438-.0586-.17578.17578-.0586.92969h-.58203l-.23437-.11328-.34766.11328-.11719.11719-.05859.29297-.0586.17578-.11718.17187-.46484.29297-.0586.23438-.0586.11328v.64453l.0586.17187v.41016l.0586.0586v.40624l.05859.40625.11719.17579.05859.05859.23047.64062-.0586.29297v.69922l-.05859.58203v.23438l-.0586.23047-.05468.35156v1.92187l.05469.1172h.42578l-.36719.11718-.02344.35156.89063 1.16797 1.74219.53906 1.33984.35938v.53906l.08984.8086.53516.71484 1.51953.26953.89063-.08594.08984 1.16406.53516.1797 1.16015-.1797 2.05469-.98437 1.16016-.36328 1.8789-.17578 1.69531-.1797-.17968.71876-1.51563.08594-1.25.08984-.80469.26953-1.07421.8086.26953.71875.53515.89843-.17968.625-.26563.8086.26563 1.07812.625.89844.80468.17969 1.25-.1797-.26562.72267.09766.5039.05468.29297v.17188l.0586.29296v.40625l.17578.1172.35156.11718h.40625l.29297-.17578.11328-.11719.0586-.11719.11718-.23047.0586-.17578.35156-.46484.23047-.17578.17578-.0586.17578.0586.0586.17578.11718.98828.05469.46875.0586.17188.11718.23437.17578.0586.8164.05859h.28907l.11719.23437.05859.40625.0586.35156v1.10547l.11718.29297.11719.34766.28906.69922.17578.35156.58203.7539.35157.17579.17187.0586.46875.23437.64063.46484.34765.23438.29297.17578.29297.05468.23047.0625.8164.34766.29297.17578.11328.17188.35157.35156.11719.17578.52343.64063v.28906l.0586.35156v.34766l.05859.35156.0586.28906.11718.0586.17188.05859h.17578l.58203.23437.17578.1172.17578.28905.17578.23438.11328.23437.29297.23047.11719.11719v.41016l.0586.05468.28906.23438.23437.11719.0586.11718.11718.17188.0586.11719.23047.23437.05859.17578.23437.0586.1172.05859-.1172.11328-.05859.11719v.11719l-.11719.29296-.11719.28907v.58203l.17579.11719.11718.05859.0586.11719.11719.11719.11328.05859.17578.34765.0586.35157.05858.40625v.17578l-.05859.17578-.11719.69922v.17187l.1172.17579.29296.29296h.40625l.17578.1172.11719.17187.11719.29296v.23438h-.52735l-.23047-.23438h-.23437l-.17578.0586-.0586.69922.0586.34765.11719.17579.17578.41015.11718.23047.28907.46875.17578.05469h.52344l.23437.0586.75781.64062.0586.29296v.23438l.05859.0586.23047.34765v.35156l-.11719.17188v.29297l.29297.28906.29297.17578.17187.0586.29297.17577.29297.1172.58203.40624.28906.23438.29297.17578.21875.16015.01563.01172.23047.17579.64062.52343.17578.23438.1172.17578.17577.17578.11328.17188v.64062l.1172.17578.46874.11719.58203.11719.23438.05859.23047.11328.29297.11719.11328.0586.58593.35156.28907.17187.17578.0625.17578.05469.17578.0586.69922.35155.28906.17579.23438.05468.28906.17578.23437.1172.64063.40624.29297.11719.17187.0586.23438.05859.41015.05859.23047.0586.23438.11718.0586.17188-.41017.17578.46875.0586.0586.29296.11328.23438.17578.05468.23438.0586.17578.05859.40625.11719.64062.23437.11719.17188.0586.23437v.17578l-.0586.1172-.0586.40624.23438.23438.11719.05859.34766.11719.64062.23047.17578.11718.28906.1172.17578.17577.23438.46485.58203 1.10546.17578.17579.34766.17578.17578.11719.35156.11718 1.04688.52344.23437.0586.46485.11327.29297.0586.46484.17578.75781.58203.23438.23438.34765.46484.17578.17578.28907.23438.8164.69921.29297.17579.28906.28906.29297.17578.29297.28906.69531.64063.17578.17578.29297.23437.28907.23438.46875.28906.64062.58203.34766.23438.23437.29297.34766.34765.35156.46485.9336.99218.34765.40625.11719.17579.23437.05859.11328.11719.64454.17578.23047.11328.23437.0586.29297.17577.23047.1172.9336.69921.40624.40625.23438.17578.40625.17578.23437.11719.8164.34766.34766.23437.23438.11719.29297.28906.23047.11719.7578.35156.35157.17188.23047.05859.29297.11719.23437.0586.8711.17577h.8164l.46875.23047.17188.0586.875.69921.46484.1172.29297.05858.17578.0586.23047.0586.46875.05859.34766.05859.35156.0586.40625.05859h.29297l.17187.0586v.23046l.17578.17578h.29297l.34766.0586.35156.05859.69922.11719h.64063l.46484-.23438.29297-.17578.17187-.11719.41016-.17187.28906-.17578.9336-.46485.46875-.29297.52343-.29296.46485-.17188.46484-.17578 1.05078-.46485.28906-.11718.41016-.11719.28906-.11719.52735-.17578 1.51562-.69922.58203-.34765.28907-.0586.29297-.0586.34765-.11718.875-.23047.35156-.11719h.11329l.23437-.05859.875-.23437.23438-.0586h.8125l.35156-.0586.8164-.11718.17188-.0586.35156-.05468.29297-.0586.23047-.05859.8164-.17578.17579-.0586h.34765l.23438-.05859.46484-.11718.75781-.17188.23438-.0586h.34765l.41016-.11718.28906-.0586 1.28516-.05859h.28906l.41016-.0586.23047-.05858h.17578l.875-.1172h.40625l.41015-.11718h.34766l.35156-.11328.8711-.0586h1.75l1.04687.28907.41016.11719.28906.11718.35156.11719.28907.11719 1.05078.17187.28906.0586h.29297l.29297.05859.17187.0586.41016.05859.17187.0586.1172.05858h.11718l.11719.0586.35156.0586h.11328l.41016.0664 1.92187.39453 1.92578.39453 1.51953.44922 1.69532.71875 2.14453.80469 1.60547-.71875 1.42968-.80469 1.16016-1.07813 1.25-.44921 3.03516-.71875 1.875-.35938 2.14453-1.34765 2.23437-1.25391 2.5-1.25781 1.69531-.44922 1.78516-.17969 1.16016-.26953.625.53906 1.33984-.26953.71485-.98828.98437-1.34375.44531-.17969.80469-.35937 1.875-.53907 1.78516-.44921 1.25-.26954 1.16015-.08984 1.69922-.08984 1.96094-.26954 1.25-.08984h.53906l.625-.08984h.89063l2.14453-.17969 2.41015-.17969 2.58985-.08984 1.69531.17969 1.60938.08984 1.42968.35938 1.16016.71875 1.875.98828 1.16015 1.52734.26563.71484.6289.08985.35548.89844.53515.53906.53516 1.52734 1.07422.35938h.53515l-.80469.53515.08985 1.70703.71484 2.69532.89063.80468.89453.98829.71484 1.2578 1.78516.53907 1.51953-.17969.35547 1.34375 1.60937-.80469.98047-.53906.26953.26953.31641-.21484.21875-.14453.80078.44922.44922-.35938h.35547l.53515-.26953.53907-.71875.53515-.26953.625-.98828 1.16016.44922.83984.3711 1.39454.61718 1.6953-.17969h1.60548l1.78515.08985.17969-1.70704.53516-1.34375.80468.26954.4922.84765.40233.40625-.08984.53906v.35938l.71485.44922.71093-.26953h1.42969l.35938.98828.4453 1.25781.71485 1.34375 1.25.6289 1.69531.62891.71485-.17969.17969-.53906.98046-.08984.44922.35937.08594 1.25782-.26563.6289-.53515.17969v.53906l.71484.98438.26563.53906.98437.98828.80078 1.07813-.26562.35937-.08985.89844-.625 2.33203-.35546 2.0664-.08985 1.79298-.17969.71875-.08984.53906v1.4375l-.98047 1.88281-.35937 1.70703-.53516.89844-.80469 1.16797-.26562.53906 2.05469 1.2539.08593.35938-.35546.53906-.08985-.17968v.80859l.08985 1.4375-.44532.71484-1.07422.09375-.26562.71485.53515.89844.8047.71875 1.16015.80859 1.33984.26953.44531.35938-.35546.44921-1.78907-.08984-1.25-.44922-.71484-.71875-.625-.08984-.17578 3.58984-.1875 1.3086h89.35937V311.70313h-55.26953v49.08203l.76172.125 3.28906.54296 2.02344 2.83594v2.7539l2.35156.33204 2.34766.33203h4.05078l-1.3789 4.16016-2.02344.70703-2.02344.70312-.54297.34375-2.59375 1.6172-.1875.11718-2.02344-2.07813-.73046-2.74218-2.67188-2.07813-1.375-3.5-.0664-.08203-1.95704-2.67188 2.75-1.41796v-49.08204H294.42187v91.41407l.1172.03125.1328.01172.07422.07421.10547.04688.08985.0586.08593.05859.08985.0586.29687.29687.0586.08984.03125.11719.02734.11719.01563.13671-.03125.1172-.0586.08983-.0586.08594-.04296.10547-.04688.10156-.02734.1211v.14453l.17578.26953.14844.14844.07422.08594.07422.07421.04296.10547.0625.08985.0586.08593.04297.10547.0586.08985.04687.10156.04296.10547.0586.08594.11719.17968.07421.07422.0625.08594.0586.08984.04297.10547.0586.08985.05858.08593.0625.08985.0586.08984.04297.10156.11719.17969.07421.07422.0586.08594.07422.07421.08984.0586.10547.04687h.14844l.1328-.01562.13282.01562.10156-.04687.07422-.07422.04688-.10156-.01563-.13281v-.14844l-.04687-.10547-.02735-.11719-.04687-.10156-.02735-.1211-.04296-.10156-.0625-.08984-.04297-.10156-.04297-.10547-.03125-.11719-.01563-.13281-.01171-.13672.08593-.0586.0586-.08593.12109-.03125.04297.10547.01562.1328v.1172l.0586.10156.0586.08984.08983.0586.14844.14843.0586.08985.04296.10547-.01171.10156.08593.0586.10547.04687.08594.0586.08984.05858.07422.07422-.11719.02735-.10546.04687-.08594.0586-.07422.07421-.0586.08985-.0625.08594-.02734.12109-.04687.10156-.04297.10547-.03125.11719-.01172.13281-.01563.13281v.14844l.02735.11719.04687.10547.04297.10156.0586.08984.07421.07422.08985.0586.07422.07421.08984.0586.0586.08984.04296.10547.04688.10156.11719.03125.1328.01563h.14845l.11718-.03125.10547.04297.04297.10547.04688.10156.02734.1211L299.5 410l.02734.11719.03125.1211.02735.11718.10547.04297.10156.04687.13281-.01562.14844.14844.0625.08593.07422.07422.07031.07422.08984.0625.10547.04297.10156.04297.1172.03125.13671.01562.11719-.03125.07422-.07422.02734-.11718-.01172-.13282-.03125-.12109-.02734-.11719.04297-.10547h.11719l.08984.0625.11719.02735h.14843l.13282.01562h.14843l.13282.01563.1328-.01563h.14845l.1328-.01562.13282-.01172.13672.01172.11719-.02735.13281-.01562.1914-.0586-.05859.17579-.01562.1328-.02735.1211-.01562.13281-.0586.08594-.1328.01563-.10548.04687-.10546.04297-.1172.03125-.11718.02735-.26563.03125h-.14843l-.13281.01562-.07422.07422.05859.08594.14844.14843.11719.1797.07421.0703.08985.0625.08984.0586.08594.0586.08984.05858.10156.04297.10547.0625.10547.04297.08594.0586.10547.04687.10156.04297.17969.11719.0586.08984-.04298.10156-.04687.10547.01562.13281.22266.22266.0586.08985.04296.10156.03125.1211.04297.10155.01563.13282.03125.11718.01171.13672.03125.11719.14844.14844.10156.04297.10547.04296.1172.03125.1328.01563.13672.01563h.11719l.11719-.03125.08984-.0586.04297-.10547.04688-.10156.04296-.10547.03125-.11719.01172-.1328v-.14845l-.01172-.1328-.01562-.13282-.03125-.11719-.04297-.10547-.04688-.10547-.04296-.10156-.04297-.10547-.01563-.13281.01563-.13281.02734-.11719.03125-.11719.02735-.1211.04687-.10155.08984-.0586.08594-.0625.07422-.07422.08984-.05859.22266-.22266.0586-.08593.07421-.07422.11719-.17969.0586-.08594v-.14844l-.07423-.07421-.10156-.04688-.10547-.04297-.10156-.04297-.0586-.08984-.04687-.10547-.02734-.11719.08984-.05859.11719-.03125.10156-.04297.17969-.11719.14844-.14843.01172-.13282-.01172-.10546-.08985-.0586-.1328.01563h-.14845l-.1328.01562-.13282-.01562-.1211-.03125-.08593-.0586-.07422-.07422-.0586-.08984-.0625-.08594-.11718-.17969-.0586-.08593.03125-.1211.08594-.05859.1211-.03125.05859-.08594v-.1211l-.03125-.11718-.0586-.08984-.05859-.08594-.04687-.10547-.02735-.11719-.01562-.1328.0586-.08985.07421-.07422.08984-.0586.1172-.17968.07421-.07422.0586-.08594.14843-.14844.1211-.03125.1328-.01562.13282.01562.07422.07422.04297.10547.01562.13281-.03125.1172-.11719.03124-.1328.01172-.14844.14844-.04297.10547-.04688.10156-.02734.1211-.03125.11718v.14844l.03125.11719.04297.10546.05859.08985.07422.07031.07422.07422.11719.03125.12109.02734.11719-.02734.1328-.01563h.1172l.08984.0586.07422.07422.04687.10546.0586.08594.10156.04688.13281.01562.10547.04297.08594.0586-.01172.10546-.07422.07422-.17969.11719-.05859.08984-.08984.0586-.07032.07422-.07421.07421-.0625.08985-.02735.11719-.01562.1328.01562.13282-.01562.13281v.14844l.01562.13281.02735.1172.03125.12108.07421.07422.08985.0586.08594.0586.08984.05858.11719.03125v.08594l-.10157.04688-.08984.0586-.26563.03124-.11718.02735h-.14844l-.10547.04296-.10156.04688-.0586.08984-.0625.23438-.01171.13281-.03125.1211-.01563.1328v.29298l-.01172.1328.01172.13673.01563.1328.1328.01563.13282.01172.1211.03125.08593.0586.07422.07421.04688.10547.04296.10157.01563.1328v.44532l-.01563.13281v.44532l.03125.26562.02735.11719.01562.13281.03125.11719.08594.21094.03125.26562v.14844l-.03125.11719-.02734.11718-.03125.1211-.02735.11719-.03125.11718-.03125.1211-.01171.1328-.01563.13282.08984.0586.1172-.03125.10155.01562.04688.10547-.03125.26562v.44141l-.04297.10547-.04688.10547-.04296.10156-.04297.10547-.0586.08594-.03125.12109-.04296.11719-.03125.11719-.01563.1328.01563.13282.05859.08984.10547.04688.08594.0586.05859.08593-.01172.13672-.03125.11719-.04297.10156v.44531l-.01562.13281v.14844l-.03125.11719-.04297.10547-.02735.11719-.04687.10546-.04297.10157-.03125.12109-.02734.11719-.03125.13281-.03125.11719-.02735.11719-.04297.10546-.03125.1172-.03125.12108-.01171.13282-.01563.13281v.29688l.02734.11718v.14844l.04688.39844.02734.11719.0586.08984.12109.03125h.14844l.13281-.01563.0586.08985v.11719l-.0586.08984-.08984.0586-.10157.04296-.10546.04688-.08985.05859-.08594.0586-.13671.01562-.1172-.03125-.1328-.01563-.10157.04688-.0625.08594-.01172.13671-.01562.13282-.03125.11719-.02735.11718-.01562.13281-.03125.1211v.29687l.01563.13282.03125.11718v.14844l.01171.13281v.14844l-.02734.11719-.04688.10156-.02734.1211-.03125.11718-.0586.08985-.07421.07421-.10156.04297-.10547.04688-.11719.02734-.1211.03125-.10156-.04687.0586-.08594.10547-.04688.02734-.11718.03125-.11719.02734-.1211.03125-.11718v-.14844l.01563-.13281-.03125-.11719-.04297-.10547-.10547.01563-.07422.07422-.10156.04296-.08984.0625-.07422.07422-.04297.10157-.01563.1328-.03125.1172L304.25 426l-.03125.11719-.02734.11719-.03125.12109-.02735.11719-.03125.11718-.04297.10547-.08984.0586h-.08984l-.1172-.03125-.03124-.08594.01562-.13672-.03125-.11719v-.14844l-.01171-.1328v-.14844l-.0625-.23438-.02735-.1211-.04297-.10156-.04687-.10546-.0586-.08594-.05859-.08985-.04297-.10546-.0625-.08594-.14844-.14844-.0703-.07422-.10548-.04687-.10547-.04297-.10156-.04297-.29687-.29688-.08985-.07421-.08594-.0586-.10546-.04297-.08985-.0625-.08594-.0586-.10546-.04296-.08985-.0586-.08594-.0625-.07421-.0703-.10547-.04688-.08594-.0586-.10547-.04296-.08984-.0625-.10156-.04297-.10547-.04297-.08594-.0586-.10547-.04687-.10547-.04297-.10156-.04687-.08985-.0586-.10156-.04297-.10547-.04296-.08984-.0625-.11719-.02735-.13281-.01562-.13281.01562H299.75l-.13281.01563-.11719-.03125-.08984-.0586-.07422-.07422-.08985-.05859-.10156-.04688h-.14844l-.12109-.02734-.10156-.04297-.07422-.07422-.11719-.17968-.08984-.0586-.10156-.04297-.08985-.0625-.10547-.04296-.08984-.0586-.08594-.0586-.10547-.04687-.0586-.08594-.05858-.08984-.04297-.10547-.04688-.10156-.07422-.07422-.08594-.0586-.07421-.07421-.08985-.0586-.22265-.22265-.04297-.10547-.03125-.26563.10547-.04296h.14453l.10547.04296.07421.07422.08985.0586.08594.0586.10546.04687.08985.05859.14844.14844.0703.07422.14845.14843.0625.08594.07421.07422.08594.0586.07422.07421.08985.0625.08984.0586.08594.05859.26953.17578.10156.04688.10547.04296.10156.04297.04688-.07421.05859-.08594.07422-.07422.07031-.07422.10547.04297.07422.07422.0586.08984.04296.10156.04688.10547.04296.10547.1211.02735.11719-.02735.07421-.08984.04297-.10547.0586-.08985.07422-.07421.10546-.04297.1172-.02735.1328.01172.08985.0586.14844.14843.05859.08985.04297.10547.04687.10156.04297.10547.04297.10156.10547.04688.10547.04296.13281.01563.08594-.0586.0586-.08984.07421-.07422.10547-.04297.11719.02735.10547.04687.10156.04297.10547.04297.10156.04688.17969.11718v.11719l-.01563.13281.01563.13281.01562.13672.0586.08594.10156.04688.1211.02734.11718.03125h.14844l.11719-.03125.05859-.08984.17969-.1172.05859-.08983.07422-.07422.0586-.08594.11718-.17969.17969-.11719.11719.03125.08984.0586.04297.07422-.01563.1328v.1172l.08985.05859h.14843l.13282-.01563.1328-.01171.26563-.03125.10547-.04297.11719-.03125.1211-.02735.07421-.07421.07031-.07422.0625-.08985-.01562-.10547-.04688-.10156-.10156-.04297-.10547-.01562-.11718.02734-.26563.03125h-.14844l-.07421-.07422-.08985-.0586-.11719-.03124-.11718-.02735-.13282-.01562h-.14843l-.13282.01563h-.29687l-.10547-.04688-.14844-.14844-.04297-.10156-.05859-.08984.22266-.22266.08593-.0586.10547-.04296.11719-.03125.13281-.01563.13281.01563.13672.01562.10157.04297.1328-.01172.08985-.0625.10156-.04297.0625-.08984-.04687-.10156-.08984-.0586-.1172-.03125-.10155-.04296-.0586-.08985-.0625-.08984v-.11719l.01563-.13281.10547-.04688.07421-.07031v-.1211l-.08984-.05859-.03125-.11719.08985-.05859.07421-.07422.04297-.10547.0586-.08984.04687-.10156.01563-.13281v-.14844l-.04688-.10547-.04297-.10156-.08984-.0586-.13281-.01562-.10157-.04297-.13671-.01563-.1172-.03125h-.4453l-.13282-.01562-.13281-.01172-.13281-.01563-.11719-.03125h-.14844l-.13281-.01562-.13281-.01172-.26563-.03125-.1211-.04297-.08593-.0586-.07422-.07421v-.14844l.01172-.13281.10547-.04688.10156-.04296.13281-.01563h.15235l.13281-.01562h.29297l.1211.03125.10156.04296.08984.0586.23438.0625.12109-.04688.08984-.05859.10156-.04297.13282-.01562.10547.04296.10156.04688.13281.01172.1211-.02735h.14453l.12109-.03125.11719-.02734.10547-.04687.07421-.07422.08594-.0586.14844-.14843.0586-.08594.04687-.10547.02734-.11719.01563-.10547-.10156-.04296-.08985-.0586-.11719-.03125-.10546-.04297-.08985-.0625-.07422-.08594-.07422-.07421-.10156-.04297-.10547-.04688-.10156-.04297-.0586-.08984-.04687-.10156-.08594-.21094-.0625-.08594-.05859-.08984-.07422-.07422-.08594-.0586h-.26953l-.11719.03126-.08984.05859-.10156.04297-.13281.01562-.10547-.01562-.02735-.11719-.0625-.08984-.11718-.03125-.10157-.04297-.14843-.14844-.03125-.11719-.01563-.10546.07422-.07422.17969-.1172.11719-.02733.11718-.03125.13672.01562.10156.04297.10547.04297.10156.04687.10547.04297.1172.03125.1328.01563.1172.02734.1328.01563.10547-.01563.08985-.0586-.07422-.07421-.10547-.04297-.07422-.07422-.07422-.08984-.14844-.14844-.08593-.0586-.08985-.05859-.07422-.07422-.08984-.0586-.10156-.04687-.1211-.02734-.10156-.04688-.10547-.04296-.11719-.03125-.10156-.04297-.1211-.03125h-.14843l-.11719.03125-.10546.04297-.08594.0625-.17969.11718-.08594.0586-.08984.0586-.10547.04687-.08594.05859-.10547.04297-.10156.04297-.10547.04687-.07422.07422-.05859.08985-.0586.08593-.04687.10547-.0586.08594-.07421.07422-.13281-.01172-.1172-.03125h-.11718l-.07422.07422-.08984.0586-.07422.07421-.08984.0586-.08594.05859-.10547.04687-.10156.04297-.13672.01563-.10156-.04297-.14844-.14844-.10547-.04688h-.08594l-.10547.04688-.10156.04297-.1211.03125-.11718-.03125-.07422-.07422v-.11719l.03125-.1211.07422-.0703.0586-.08985.07421-.07422.11719-.03125.10547-.04296h.29297l.13281-.01563.13672-.01563.10156-.04296.08985-.0586.10156-.04687.08984-.0586.13281-.01171.08985.05859.13281.01172.08984-.0586.08594-.05859.10547-.04297.08984-.0586.08594-.0625.08985-.05859.14843-.14843.0586-.08594.05859-.08985.10547-.04296.13281-.01563.11719.02735.1211.03125.05859-.0586.05859-.08984.03125-.26563.02734-.11719.10547.01172.13281.01563.10157-.04297.08984-.0586.0586-.08984.07421-.07422.0586-.08984.04687-.10156.01172-.13281-.01172-.13282-.04687-.10547-.14844-.14843-.0586-.08985-.05859-.08594-.04297-.10546v-.44532l.01563-.1328v-.14845l.01172-.1328-.0586-.0586-.08984.0586-.10156-.04298-.17969-.11719-.08594-.05859-.0625-.08984-.0586-.08985-.07421-.07421-.08594-.0586-.1211.03125-.10155.01172-.10547.04688-.08594.05859-.10547.04297-.14844.14844-.08984.05859-.08594.0586-.08984.0625-.10547.04296-.13281.01563v-.1211l.10547-.04297.11718-.03125.07422-.0703.04297-.10548v-.14844l-.02734-.11718-.14844-.14844-.13281-.01563h-.14844l-.11719.03125-.10547.04297-.10156.04297-.08984.0625-.11719.02735-.07422-.07422.01172-.13281-.04297-.10157-.04297-.10547-.08984-.05859-.11719.02734-.1211.03125-.11718.03125-.10156.04297-.1211.03125-.10156.04297-.10547.04297-.08984.0586-.10156.01562v-.11719l.01562-.13281-.0586-.08985-.07421.04297-.14844.14844-.0586.08985-.07421.07421-.04688.10547-.04296.10156-.07422.07422-.0586.08985-.07422.07422-.05859.08593-.07422.07422-.08984.0625-.07422.07031-.07422.07422-.10156.01563-.13281.01562-.10547-.04296v-.1211l.14843-.14844.04297-.10156.0586-.08984.04687-.10156.04297-.10547.0586-.08985.03124-.11719.04297-.10156.03125-.1211.02735-.11718.04687-.10547.04297-.10156.04297-.10547.07422-.07031.08984-.0625.08985-.0586.10156-.04296h.29687l.26563-.03125.10547-.04297-.07422-.07422-.11719-.03125-.10547-.04297-.08984-.0586-.10156-.04687-.08985-.0586-.10156-.04296-.10547-.04297-.08984-.0625-.08594-.0586-.10547-.04296-.10156-.04297-.1211-.03125-.11718-.03125-.10157-.04297L297.5 410.25l-.10156-.04297-.08985-.0586-.04296-.10546-.01563-.13281.10156-.04297.13281-.01563.13672.01563.13282-.01563.10156-.04297.0586-.08984.01562-.10547-.08985-.0586-.07421-.07421-.10157-.04297-.08984-.0586-.14844-.14843-.04297-.10547-.01562-.13281v-.29297l-.0586-.08985-.08984-.05859-.07422-.07422-.04297-.10547-.03125-.11718-.0586-.08985-.07421-.07422-.11719-.02734-.07422-.07422-.08984-.0586-.08984-.0625-.08594-.05859-.07422-.07421-.0586-.08594-.04687-.10547-.08594-.0586-.14843-.14843-.19532-.0586-.1328.01563-.10157.04297-.07422.07422-.04688.10156-.04296.10547-.0586.08984-.0586.08594-.29687.29687-.08984.0586h-.08594l-.0625-.08594-.04297-.10547.03125-.11719.0586-.08984.02734-.11719-.01172-.13281-.08984-.0625-.10547.04688-.11719.02734-.11719.03125-.26953.17578-.10156.04688-.11719.02734-.10546.04687-.08985.0586-.10156.04297-.0586-.08594-.04687-.10547.01563-.13281.04687-.10547.07031-.07422.07422-.07031.0586-.08985v-.14843l-.04297-.10547h-.23829l-.10156.04687-.03125.11719-.02734.11719-.03125.1211-.07422.04296-.13281.01563-.07422-.04688-.04297-.10156-.04297-.10547-.04687-.10156-.04297-.10547-.1211.03125-.10156.04297-.13281.01562-.11719.03125-.10547.04297-.08984.0586-.10156.04687-.1211.02734-.13281.01563-.10156-.04297-.0586-.08985-.04687-.10546-.04297-.10157-.04297-.10546v-.1172l.0586-.08984.08593-.05859.17969-.11719.10156-.04687.10547-.04297.10547-.0586.10156-.04296.08985-.0625.10156-.04297.10547-.0586.10156-.04687.08984-.0586.10547-.04296.10156-.04297.08985-.0625.10156-.04297.13672-.01563.11719.03125.10156.04297.1211.03125.10156.04297.10546.04688.10157.04296.10547.04297.10156.04688.10547.04297.10156.04297.10547.04687.08594.0586.10546.04296.1172.03125.10546.04297.10156.04688.08985.0586.10547.04296.10156.04297.10547.04687.11719.02735.10156.04687.1211.02735h.14843l.08594-.0586.01562-.10156.0586-.08984-.02735-.1172-.07422-.07421-.11719-.17969-.07421-.07422-.08985-.07421-.17969-.1172-.08593-.05859-.10547-.04296-.10156-.04688-.26954-.17578-.05859-.08985-.07422-.07421-.0586-.08985-.04296-.10156-.03125-.11719-.01563-.13672v-.5625l-.01171-.1328-.01563-.13282-.03125-.11719-.01562-.13281-.01172-.13281-.03125-.1211-.22266-.22265-.0586-.08594-.01562-.10547.03125-.11719.13281-.01562v-91.41406H172.9922v1.45312l-.0586.23438-.35156 1.05078-.17187.52343-.1172.34766-.17577.41016-.11719.17187-.23438.29297-.23046.0586h-.35157l-.11718.05859-.23047.40625v.29297l.11719.17578.23046.23047.1172.23437.64062.75781.29297.46485.17578.23437.23047.35156.23437.34766.64063.8164.17578.46485.17187.41016.11719.69531.17578.46875.11719 1.39844.0586.46484v.875l.11718 1.04688v4.78125l-.0586.46484-.35156 1.28125-.17578.52344-.11328.41015-.35156.9297L172.93359 336l-.23437.58203-.11719.17578-.17187.34766-.17578.40625-.35157.8164-.0586.29297-.11327.29297-.11719.28906-.0586.17579-.11718.875-.0586.40625-.05859.11718-.0586.17579-.05859.17187-.23047.52734-.11718.17188v.23437l-.11719.23438-.0586.17187-.17577.58594v.28906l-.0586.17579v.29296l-.0586.11329-.05859.52734v.17187l-.05468.23438v2.6211l-.17578.8164-.1172.17578-.17577.23438-.1172.17187-.11327.23438-.58594.93359-.23047.28906-.29297.46485-.17578.23437-.28906.35156-.35156.69922-.11328.23047-.17579.41016-.17578.23046-.40625.52735-.8164.69922-.29297.17187-.28906.23438-.17579.11719-.17578.17578-.52344.40625-.52734.17578-.17187.17578-.23438.05469-.64062.17578h-.75782m12.21094 31.02344l-1.07422.44921.35938.89454 1.25-.71485.44531-.53906-.98047-.08985"/><path fill="#d3d3d3" fill-opacity="0" fill-rule="evenodd" d="M201.50781 416.59766h-.89453l.44922.6289.98047.35938.80469-.08985.4453-.98828-.17577.08985-.71485-.35547-.89453.35547m154.6211 59.0703l-.0586-.52343v-.29297l.11328-.29297.0586-.23046.46875-.46875h.11328l.11719-.11329.11718-.05859h.17579l.23437-.0586h.34766l.23437.0586.11719.0586.23047.17187.0586.17578.11718.58203v.29297l-.11719.17578-.17187.28906-.17579.17579-.52734.52343-.23047.23438-.11719.0586h-.17578l-.11718-.0586-.40625-.29297-.17579-.11719-.11718-.0586-.0586-.11327-.05468-.1172m6.64062-10.95702l-.0586-.17188v-1.10937l.0586-.17188.17578-.0586.17188-.05858h.17578l.23437-.0586.1172.0586.05858.69921-.05859.17188-.11719.17578-.11718.0586-.23438.52343-.11328.0586h-.23438l-.05859-.1172m9.61328-14.39062l-.11719-.17578v-.69922l.29297-.875.1172-.17187.17577-.35156.11328-.23047.1172-.29297.35155-.75781.1172-.23047.17187-.23438h.17578l.11719-.0586h.64062l.11719.0586.23437.23438.17188.11328.35156.29297.11719.11718.11328.17579v.11328l.11719.05859.11718.11719v.69922l-.05859.17578v.23047l-.0586.17578-.34765 1.05078-.11719.23047-.11719.23437-.11718.0586-.23047.23437-.64063.28906h-.875l-.41015-.11718-.64063-.46485"/><path fill="none" stroke="#bebebe" stroke-linecap="round" stroke-linejoin="round" stroke-miterlimit="10" stroke-width=".5" d="M467.95703 311.69531H144.02734v168.625h323.9297v-168.625"/><g clip-path="url(#a)"><path fill="#fff" fill-opacity="0" fill-rule="evenodd" d="M144 475.89063v4.4375h.0039H144v-28.50391 24.0664"/></g><g clip-path="url(#b)"><path fill="#fff" fill-opacity="0" fill-rule="evenodd" d="M144 444.82031v1.2461-134.39454h.0039H144v133.14844"/></g><path fill="#50fcfc" fill-rule="evenodd" d="M144 446.0664v5.75782l.0039-.0039v-5.75L144 446.0664"/><g clip-path="url(#c)"><path fill="#fff" fill-opacity="0" fill-rule="evenodd" d="M144.0039 480.32813V451.8203l1.5586-2.5586-1.5586-3.1914V311.67187h79.88673V419.2461l-4.4375 1.51954-4.4375-.60547-1.88282 2.46875-2.5586 3.92578-1.42187.51562-3.01562.92188-1.60547-.92188-2.83203-1.58594-4.4375-.35156-4.4414.29688-4.4375.41015-4.4375.42188-3.0547.8086-1.3828.28515-4.44141 1.39453-3.20703 2.75781-1.23047.79297-4.4375.51172-4.34375 3.13281-.09375.0625-4.4375 2.96094-3.33594 1.41406 3.33594 3.83985.07422.59765.36718 4.4414.32422 4.4375.44531 4.4375-.03125 4.4375 3.25782 3.09767 4.4375-.87891 3.6914-2.21875.7461-.33594 4.4375-.08203 3.8789.41797.5625.10937.46485-.10937 3.97265-.5664 4.4375-.19532 4.4375.03125 3.67188-3.70703.76953-.25781 4.4375-1.40625 4.4375-.10938 4.4375-.82422 4.4414-.94531 2.07032-.89453 2.36719-.40235 4.4375-1.85546 2.17578-2.1797 2.26172-1.08593 4.4375-1.99219 2.35156-1.36328 2.08984-1.79687 4.4375 1.125 4.4375.07812 3.64453-3.84375.23828-4.4375-3.8828-4.17578-.6797-.26172-3.34765-4.4375-.41016-.67578-4.4375-3.21484-1.85937-.55078-2.58203-1.08204-4.4375.04297-4.4375-2.34375V311.67188h48.8203v111.92968l-4.07421 3.46875-.36328.10156-4.4375 2.11329-4.4375-.46094-4.09766 2.6836-.34375.18359-3.42578 4.2539 3.42578 3.46094 4.4414.35938 3.57813-3.82032.85938-2.46094 4.4375 1.6797 4.4375-.1875 4.4414-.09376 1.39844 1.0625 3.03906 2.82813 4.4375.78515 4.4375-.42578 3.22657-3.1875-3.22657-4.05469-.38671-.3828-4.05079-3.4375-4.4375-.5-4.4375.22265-1.45703-.72266-2.98437-3.46875V311.67187h79.89062v121.96875l-4.4375.89454-1.45312 1.41015 1.45312 1.47656 4.4375 2.07032 1.44922.89062 2.99219 1.5039 3.28906-1.5039-3.28906-2.19922-1.53906-2.23828-2.90235-2.30469V311.67188h13.3164v125.97266l-3.83593 2.73828 3.83594 2.3711 3.11328-2.3711-3.11328-2.73828V311.67188h13.3164v126.0625l-4.4414.79296-1.66406 1.85547 1.66406 2.28516 1.91406 2.15234-1.91406.73047-2.71094 3.71094 2.71094 2.58594 2.78125-2.58594 1.66015-3.09766 4.27735 3.09766-3.82813 4.4375-.44921 2.39062-.64844 2.04688-1.23438 4.4375 1.88281 1.91406 4.4375 2.42969.06641.09765-.0664.625-1.0625 3.8125 1.0625 1.54297 3.52343-1.54296.91406-.10938 4.4375-.3789 4.4375.05859 4.44141-2.04688 3.46094-1.96094.97656-.5664 3.6875-3.875.75-1.61328 2.28125-2.82422-2.28125-1.73438-4.4375-1.07421-4.4375-.63672-1.28125-.9922-3.16015-2.35937-3.95704-2.07812-.48046-1.10938-4.17188-3.33203-.26563-.1289-4.4375-.53125-2.40625-3.77735-2.03125-2.64844v-126.0625h39.94532v158.50391l-1.21094 1.27735 1.21094.6875.89844-.6875-.89844-1.27735v-158.5039h48.8164v148.4414l-1.22656 2.46094 1.22656 1.60156v16.15235h-69.13671l-1.875-2.01563-4.4375-1.5-3.17188 3.51563H144.0039"/></g><path fill="#50fcfc" fill-rule="evenodd" d="M145.5625 449.26172l-1.5586 2.5586v-5.75l1.5586 3.1914m11.7539-5.03906l-3.33593-3.83985 3.33594-1.41406 4.4375-2.96094.09375-.0625 4.34375-3.13281 4.4375-.51172 1.23047-.79297 3.20703-2.75781 4.4414-1.39453 1.38281-.28516 3.0547-.8086 4.4375-.42187 4.4375-.41015 4.4414-.29688 4.4375.35156 2.83203 1.58594 1.60547.92188 3.01562-.92188 1.42188-.51562 2.5586-3.92578 1.8828-2.46875v4.95312l-3.62109 1.95703 3.6211 1.90235 1.37109-1.90235-1.3711-1.95703v-4.95312l4.4375.60546v10.64454l-.16015.09765.16016.0586.1328-.0586-.1328-.09765v-10.64454l4.4375-1.51953v2.35547l-1.64844 1.02735-1.58203 4.4414 3.23047 2.52344 2.01171 1.91406-2.01172 2.9375-4.4375.54688-4.4375.82031-4.4414-.1914-4.4375-2.39063-4.4375-.10156-3.32813-1.6211-1.10937-.67578-1.28125.67578-3.16016 2.42969-4.4375-1.28906-4.4375-.30078-4.4375.64843-4.4414.3672-4.4375 2.01952-2.95313.5625-1.48437.28516-4.4375 2.78515-1.67578 1.3672-.81641 4.4375.41406 4.4414.35938 4.4375.86718 4.4375-.12109 4.4375.97266.92578 2.15234-.92578 2.28516-1.55469 4.4375-1.8125 4.4375-.78515.97656-.28516 3.46484-1.09766 4.4375.95313 2.6211.14453 1.8164.1211.36719-.1211 4.07031-1.35938 4.4414-.89843 3.3086-2.1797 1.1289-.53515 4.4375.19922 4.4375-2.33594 4.44142.41797 4.4375-.4961 2.61328-1.6875 1.82422-1.11718 4.4375-2.0586 2.0078-1.26562 2.4297-2.63281 1.93359-1.80469 2.50781-.8789 1.1289.8789 3.3086 2.46875 4.4375-.16406 2.1875-2.30469-.28125-4.4375-1.90625-2.04687-4.4375-1.95703-.60937-.4336-3.82813-3.46875-1.08984-.96875-3.35156-2.89844-4.4375.32422-2.96875-1.86718-1.46875-1.02735v-2.35547l4.4375 2.34375 4.4375-.04296 2.58203 1.08203 1.85937.55078 4.4375 3.21484.41016.67578 3.34765 4.4375.6797.26172 3.8828 4.17578-.23828 4.4375-3.64453 3.84375-4.4375-.07812-4.4375-1.125-2.08984 1.79687-2.35156 1.36328-4.4375 1.9922-2.26172 1.08593-2.17578 2.17969-4.4375 1.85546-2.3672.40235-2.0703.89453-4.44141.94531-4.4375.82422-4.4375.10938-4.4375 1.40625-.76953.2578-3.67188 3.70704-4.4375-.03125-4.4375.19531-3.97265.5664-.46485.10938-.5625-.10937-3.8789-.41797-4.4375.08203-.7461.33594-3.6914 2.21875-4.4375.8789-3.25782-3.09765.03125-4.4375-.4453-4.4375-.32423-4.4375-.36719-4.4414-.07421-.59766"/><path fill="#00e8fc" fill-rule="evenodd" d="M159.67578 449.26172l-.41406-4.4414.8164-4.4375 1.67579-1.3672 4.4375-2.78515v6.28906l-2.3125 2.30078 2.3125 2.51563 2.23437 1.92578 2.20313.73828 1.85547-.73828-1.85547-1.26563-2.90625-3.17578-1.53125-2.30078v-6.28906l1.48437-.28516 2.95313-.5625 4.4375-2.01953 4.4414-.36719 4.4375-.64843 4.4375.30078 4.4375 1.28906 3.16016-2.42969 1.28125-.67578 1.10937.67578 3.32813 1.6211v6.05859l-4.4375.85938-4.4414.17968-4.4375-.08984-4.4375-.8164-2.19532 1.0625.03906 4.4375-1.30078 4.4414 3.45703 3.79687 2.04297.64063 2.39453.58984 1.0586-.58984 3.3789-2.09375 4.4414-.07031 4.4375-.77735 4.4375-.35547 1.4961-1.14062 2.9414-2.6289 4.44142.14452 4.4375-.6328 3.08593-1.32423 1.35156-3.125 1.1172-1.3125-1.1172-.21484-4.4375.10937-.34375.10547-4.09375 1.70313-2.21093-1.70313-2.23047-.91797-4.4375.73829-4.4375-1.01563v-6.0586l4.4375.10157 4.4375 2.39062 4.4414.19141 4.4375-.82031 4.4375-.54688 2.01172-2.9375-2.01172-1.91406-3.23046-2.52344 1.58203-4.4414 1.64844-1.02735 1.46875 1.02735 2.96875 1.86718v9.39454l-2.97657 2.05468 2.97656 1.07422.46875-1.07422-.46875-2.05469v-9.39453l4.4375-.32421v2.8125l-.4375.08593-2.55078 4.4375.71875 4.4375 2.26953 2.91406 4.44141-1.60546 4.02734 3.1289.41016.30469 2.59375-.30469.2461-4.4375-2.83985-1.71875-3.82031-2.71875-.61719-.5625-4.34375-3.875-.09766-.08594v-2.8125l3.35157 2.89844 1.08984.96875 3.82813 3.46875.60937.4336 4.4375 1.95703 1.90625 2.04687.28125 4.4375-2.1875 2.30469-4.4375.16406-3.3086-2.46875-1.1289-.8789-2.50781.8789-1.9336 1.80469-2.42968 2.63281-2.00781 1.26563-4.4375 2.0586-1.82422 1.11718-2.61328 1.6875-4.4375.4961-4.44141-.41798-4.4375 2.33594-4.4375-.19922-1.1289.53516-3.3086 2.17969-4.4414.89843-4.07032 1.35938-.36719.1211-1.8164-.1211-2.6211-.14453-4.4375-.95313-3.46484 1.09766-.97656.28515-4.4375.78516-4.4375 1.8125-2.28516 1.55469-2.15234.92578-.97266-.92578.1211-4.4375-.8672-4.4375-.35937-4.4375"/><path fill="#00d4fc" fill-rule="evenodd" d="M166.1914 447.33594l-2.3125-2.51563 2.3125-2.30078 1.53126 2.30078 2.90625 3.17578 1.85547 1.26563L170.6289 450l-2.20313-.73828-2.23437-1.92578m17.7539 5.72265l-3.45703-3.79687 1.30078-4.4414-.03906-4.4375 2.19531-1.0625 4.4375.8164 4.4375.08984 4.4414-.17969 4.4375-.85937 4.4375 1.01563 4.4375-.73829 2.23048.91797 2.21094 1.70313 4.09375-1.70313.34375-.10547 4.4375-.10937 1.11718.21484-1.11719 1.3125-1.35156 3.125-3.08594 1.32422-4.4375.63281-4.4414-.14453-2.9414 2.6289-1.4961 1.14063-4.4375.35547-4.4375.77735-4.4414.0703-3.37891 2.09376-1.0586.58984-2.39453-.58984-2.04297-.64063"/><path fill="#fff" fill-opacity="0" fill-rule="evenodd" d="M215.01563 425.11328l-3.6211 1.95703 3.6211 1.90235 1.37109-1.90235-1.3711-1.95703m4.4375 6.29688l-.16015.09765.16016.0586.1328-.0586-.1328-.09765"/><path fill="#50fcfc" fill-rule="evenodd" d="M228.32813 433.89063l-2.97657 2.05468 2.97656 1.07422.46875-1.07422-.46875-2.05469"/><path fill="#00d4fc" fill-rule="evenodd" d="M230.4961 435.94531l-.71876-4.4375 2.55078-4.4375.4375-.08594v3.22657l-.85156 1.29687.28125 4.4375.57031.73438 1.98047-.73438-.5078-4.4375-1.47267-1.29687v-3.22656l.09766.08593 4.34375 3.875.61719.5625 3.82031 2.71875 2.83984 1.71875-.24609 4.4375-2.59375.30469-.41016-.30469-4.02734-3.1289-4.4414 1.60546-2.26954-2.91406"/><path fill="#00c4fc" fill-rule="evenodd" d="M232.19531 435.94531l-.28125-4.4375.85156-1.29687 1.47266 1.29687.50781 4.4375-1.98047.73438-.5703-.73438"/><path fill="#50fcfc" fill-rule="evenodd" d="M254.95703 439.40625l-3.42578-3.46094 3.42578-4.2539.34375-.1836 4.09766-2.6836v4.41017l-4.17969 2.71093 4.17969 1.69531 1.58984-1.6953-1.58984-2.71094v-4.41016l4.4375.46094 4.4375-2.11329.36328-.10156 4.07422-3.46875v4.58985l-4.4375.8828-2.9375 2.4336 2.9375 2.05469 4.4375-.23438 4.4414-.60937 4.25391 3.22656.1836.16797 4.4375 2.14453 4.4375-1.05469 1.27343-1.2578-1.27344-1.60157-2.86328-2.83594-1.57422-1.33984-4.4375-1.40625-4.4375 1.41015-4.4414-1.98046v-4.58985l2.98437 3.46875 1.45703.72266 4.4375-.22266 4.4375.5 4.05079 3.4375.38671.38281 3.22657 4.0547-3.22657 3.1875-4.4375.42577-4.4375-.78515-3.03906-2.82813-1.39844-1.0625-4.4414.09375-4.4375.1875-4.4375-1.67969-.85938 2.46094-3.57812 3.82031-4.4414-.35937"/><path fill="#00e8fc" fill-rule="evenodd" d="M259.39844 437.64063l-4.17969-1.69532 4.17969-2.71094 1.58984 2.71094-1.58984 1.69531m8.875-4.07812l-2.9375-2.05469 2.9375-2.4336 4.4375-.8828 4.4414 1.98046 4.4375-1.41015V430.75l-1.61718.75781 1.61718 1.25781 4.13672 3.1797.30078.15234.45704-.15235-.45704-.45312-2.74609-3.98438-1.6914-.75781v-1.98828l4.4375 1.40625 1.57421 1.33984 2.86328 2.83594 1.27344 1.60156-1.27344 1.25781-4.4375 1.0547-4.4375-2.14454-.18359-.16797-4.2539-3.22656-4.44141.60938-4.4375.23437"/><path fill="#00d4fc" fill-rule="evenodd" d="M281.58984 432.76563l-1.61718-1.25782 1.61718-.75781 1.69141.75781 2.7461 3.98438.45702.45312-.45703.15235-.30078-.15235-4.13672-3.17969"/><path fill="#50fcfc" fill-rule="evenodd" d="M348.16406 437.42188l-1.45312-1.47657 1.45312-1.41015 4.4375-.89454 2.90235 2.3047 1.53906 2.23827 3.28906 2.19922-3.28906 1.5039-2.99219-1.5039-1.44922-.89062-4.4375-2.07031m17.7539 5.33203l-3.83593-2.3711 3.83594-2.73828 3.11328 2.73828-3.11328 2.3711m8.875 9.09375l-2.71094-2.58594 2.71094-3.71094 1.91406-.73047-1.91406-2.15234-1.66406-2.28516 1.66406-1.85547 4.4414-.79296 2.03125 2.64843 2.40625 3.77735v9.20703l-.29296.33203.29296 1.3086.33985 3.1289-.33985 1.07422-2.33593 3.36328 2.33594 1.61719 2.04687 2.82421 2.39063 2.3672 4.4375-.78907 3.66406-1.57813.77344-.7539 2.3828-3.6875 1.1172-4.4375-3.5-2.89844-4.4375-1.46484-4.4375 1.25-4.10547-1.32422-.33204-.33203v-9.20703l4.4375.53125.26563.1289 4.17188 3.33203.48046 1.10938 3.95704 2.07812 3.16015 2.35938 1.28125.99219 4.4375.63671 4.4375 1.07422 2.28125 1.73438-2.28125 2.82422-.75 1.61328-3.6875 3.875-.97656.5664-3.46094 1.96094-4.4414 2.04688-4.4375-.0586-4.4375.37891-.91407.10938-3.52344 1.54296-1.0625-1.54296 1.0625-3.8125.06641-.625-.0664-.09766-4.4375-2.42969-1.88282-1.91406 1.23438-4.4375.64844-2.04688.44921-2.39062 3.82813-4.4375-4.27735-3.09766-1.66015 3.09766-2.78125 2.58594"/><path fill="#00e8fc" fill-rule="evenodd" d="M383.67188 464.1914l-2.33594-1.61718 2.33594-3.36328.33984-1.07422-.33985-3.1289-.29296-1.3086.29296-.33203.33204.33203 4.10546 1.32422 4.4375-1.25v1.57812l-4.4375 1.94531-1.10546.83985-1.9336 4.4375 3.03906 3.70703 4.4375-.61719 3.11329-3.08984.35546-4.4375-3.46875-2.78516v-1.57812l4.4375 1.46484 3.5 2.89844-1.11718 4.4375-2.38281 3.6875-.77344.7539-3.66406 1.57813-4.4375.78906-2.39063-2.36719-2.04688-2.82421"/><path fill="#00d4fc" fill-rule="evenodd" d="M388.10938 466.28125l-3.03907-3.70703 1.9336-4.4375 1.10546-.83985 4.4375-1.9453v1.57812l-2.42968 1.20703-2.00781 2.71484-.8711 1.72266.8711 1.0625 4.4375-.22266.84375-.83984.66015-4.4375-1.5039-1.20703v-1.57813l3.46875 2.78516-.35547 4.4375-3.11329 3.08984-4.4375.61719"/><path fill="#00c4fc" fill-rule="evenodd" d="M388.10938 463.63672l-.8711-1.0625.8711-1.72266 2.0078-2.71484 2.4297-1.20703 1.5039 1.20703-.66015 4.4375-.84375.83984-4.4375.22266"/><g clip-path="url(#d)"><path fill="#50fcfc" fill-rule="evenodd" d="M389.375 480.32813h9.48438l-1.875-2.01563-4.4375-1.5-3.17188 3.51563"/></g><path fill="#50fcfc" fill-rule="evenodd" d="M419.17969 472.14063l-1.21094-.6875 1.21094-1.27735.89844 1.27735-.89844.6875m48.8164-7.96485l-1.22656-1.60156 1.22656-2.46094v4.0625"/><g clip-path="url(#e)"><path fill="#fff" fill-opacity="0" fill-rule="evenodd" d="M467.9961 480.32813H468v-16.14844 16.14844h-.0039"/></g><path fill="#50fcfc" fill-rule="evenodd" d="M467.9961 460.11328v4.0625l.0039.0039v-4.0703l-.0039.0039"/><g clip-path="url(#f)"><path fill="#fff" fill-opacity="0" fill-rule="evenodd" d="M467.9961 311.67188H468v148.4375-148.4375h-.0039"/></g><path fill="#fff" fill-opacity="0" fill-rule="evenodd" d="M253.03125 445.53906l2.3086-5.36719-9.14844-3.93359-2.3086 5.36328 9.14844 3.9375"/><path fill-rule="evenodd" d="M246.94922 439.11328l.19922-.46875 5.78515 2.48828-.3125.72266-4.125-1.77344-.54687 1.27344-.51172-.21875.16406-.53906.04688-.25391.01172-.2461-.05078-.24218-.125-.24219-.21485-.2461-.32031-.2539"/><g clip-path="url(#g)"><path fill="none" stroke="#000" stroke-linecap="round" stroke-linejoin="round" stroke-miterlimit="10" stroke-width=".5" d="M147.4961 480.6914l-6.9922-.72656"/></g><g clip-path="url(#h)"><path fill="none" stroke="#000" stroke-linecap="round" stroke-linejoin="round" stroke-miterlimit="10" stroke-width=".5" d="M147.4961 480.6914l.92187 2.27344"/></g><g clip-path="url(#i)"><path fill="none" stroke="#000" stroke-linecap="round" stroke-linejoin="round" stroke-miterlimit="10" stroke-width=".5" d="M160.75781 481.03906l-6.88281-1.42187"/></g><g clip-path="url(#j)"><path fill="none" stroke="#000" stroke-linecap="round" stroke-linejoin="round" stroke-miterlimit="10" stroke-width=".5" d="M160.75781 481.03906l.6875 2.35547"/></g><g clip-path="url(#k)"><path fill="none" stroke="#000" stroke-linecap="round" stroke-linejoin="round" stroke-miterlimit="10" stroke-width=".5" d="M174.00781 481.30078l-6.7539-1.94531"/></g><g clip-path="url(#l)"><path fill="none" stroke="#000" stroke-linecap="round" stroke-linejoin="round" stroke-miterlimit="10" stroke-width=".5" d="M187.39063 481.01563l-6.89063-1.3711"/></g><g clip-path="url(#m)"><path fill="none" stroke="#000" stroke-linecap="round" stroke-linejoin="round" stroke-miterlimit="10" stroke-width=".5" d="M187.39063 481.01563l.70703 2.34765"/></g><g clip-path="url(#n)"><path fill="none" stroke="#000" stroke-linecap="round" stroke-linejoin="round" stroke-miterlimit="10" stroke-width=".5" d="M200.58203 481.47656l-6.64062-2.29687"/></g><g clip-path="url(#o)"><path fill="none" stroke="#000" stroke-linecap="round" stroke-linejoin="round" stroke-miterlimit="10" stroke-width=".5" d="M213.90625 481.45313l-6.66016-2.2461"/></g><g clip-path="url(#p)"><path fill="none" stroke="#000" stroke-linecap="round" stroke-linejoin="round" stroke-miterlimit="10" stroke-width=".5" d="M227.17188 481.58203l-6.5625-2.50781"/></g><g clip-path="url(#q)"><path fill="none" stroke="#000" stroke-linecap="round" stroke-linejoin="round" stroke-miterlimit="10" stroke-width=".5" d="M240.21094 482.14844l-6.01172-3.64063"/></g><g clip-path="url(#r)"><path fill="none" stroke="#000" stroke-linecap="round" stroke-linejoin="round" stroke-miterlimit="10" stroke-width=".5" d="M253.59375 482.03125l-6.14453-3.40625"/></g><g clip-path="url(#s)"><path fill="none" stroke="#000" stroke-linecap="round" stroke-linejoin="round" stroke-miterlimit="10" stroke-width=".5" d="M266.61719 482.47656l-5.5625-4.29687"/></g><g clip-path="url(#t)"><path fill="none" stroke="#000" stroke-linecap="round" stroke-linejoin="round" stroke-miterlimit="10" stroke-width=".5" d="M279.3164 483.09766l-4.33202-5.53516"/></g><g clip-path="url(#u)"><path fill="none" stroke="#000" stroke-linecap="round" stroke-linejoin="round" stroke-miterlimit="10" stroke-width=".5" d="M293.00781 482.7539l-5.08594-4.84765"/></g><g clip-path="url(#v)"><path fill="none" stroke="#000" stroke-linecap="round" stroke-linejoin="round" stroke-miterlimit="10" stroke-width=".5" d="M307.24219 479.71875l-6.92188 1.21875"/></g><g clip-path="url(#w)"><path fill="none" stroke="#000" stroke-linecap="round" stroke-linejoin="round" stroke-miterlimit="10" stroke-width=".5" d="M318.17188 483.67188l-2.15235-6.6875"/></g><g clip-path="url(#x)"><path fill="none" stroke="#000" stroke-linecap="round" stroke-linejoin="round" stroke-miterlimit="10" stroke-width=".5" d="M332.41406 483.21484l-4.00781-5.77343"/></g><g clip-path="url(#y)"><path fill="none" stroke="#000" stroke-linecap="round" stroke-linejoin="round" stroke-miterlimit="10" stroke-width=".5" d="M345.23438 483.5l-3.01954-6.34375"/></g><g clip-path="url(#z)"><path fill="none" stroke="#000" stroke-linecap="round" stroke-linejoin="round" stroke-miterlimit="10" stroke-width=".5" d="M354.14453 482.32031l5.79297-3.98047"/></g><g clip-path="url(#A)"><path fill="none" stroke="#000" stroke-linecap="round" stroke-linejoin="round" stroke-miterlimit="10" stroke-width=".5" d="M366.84375 480.26953l7.02734.1211"/></g><g clip-path="url(#B)"><path fill="none" stroke="#000" stroke-linecap="round" stroke-linejoin="round" stroke-miterlimit="10" stroke-width=".5" d="M367.86719 480.28516l-.5586-1.09375"/></g><g clip-path="url(#C)"><path fill="none" stroke="#000" stroke-linecap="round" stroke-linejoin="round" stroke-miterlimit="10" stroke-width=".5" d="M380.20313 480.89063l6.9375-1.125"/></g><g clip-path="url(#D)"><path fill="none" stroke="#000" stroke-linecap="round" stroke-linejoin="round" stroke-miterlimit="10" stroke-width=".5" d="M380.20313 480.89063l-1.48438-1.95313"/></g><g clip-path="url(#E)"><path fill="none" stroke="#000" stroke-linecap="round" stroke-linejoin="round" stroke-miterlimit="10" stroke-width=".5" d="M393.51563 480.8789l6.9414-1.10156"/></g><g clip-path="url(#F)"><path fill="none" stroke="#000" stroke-linecap="round" stroke-linejoin="round" stroke-miterlimit="10" stroke-width=".5" d="M393.51563 480.8789l-1.47657-1.95702"/></g><g clip-path="url(#G)"><path fill="none" stroke="#000" stroke-linecap="round" stroke-linejoin="round" stroke-miterlimit="10" stroke-width=".5" d="M407.16016 481.89844l6.28515-3.14063"/></g><g clip-path="url(#H)"><path fill="none" stroke="#000" stroke-linecap="round" stroke-linejoin="round" stroke-miterlimit="10" stroke-width=".5" d="M408.07422 481.4414l-1-.71093"/></g><g clip-path="url(#I)"><path fill="none" stroke="#000" stroke-linecap="round" stroke-linejoin="round" stroke-miterlimit="10" stroke-width=".5" d="M420.11719 480.00781l7 .64063"/></g><g clip-path="url(#J)"><path fill="none" stroke="#000" stroke-linecap="round" stroke-linejoin="round" stroke-miterlimit="10" stroke-width=".5" d="M433.65625 481.60156l6.55078-2.54297"/></g><g clip-path="url(#K)"><path fill="none" stroke="#000" stroke-linecap="round" stroke-linejoin="round" stroke-miterlimit="10" stroke-width=".5" d="M434.60938 481.23047l-.9297-.80078"/></g><g clip-path="url(#L)"><path fill="none" stroke="#000" stroke-linecap="round" stroke-linejoin="round" stroke-miterlimit="10" stroke-width=".5" d="M448.44531 483.34375l3.60156-6.03125"/></g><g clip-path="url(#M)"><path fill="none" stroke="#000" stroke-linecap="round" stroke-linejoin="round" stroke-miterlimit="10" stroke-width=".5" d="M460.20313 481.36719l6.71484-2.07813"/></g><g clip-path="url(#N)"><path fill="none" stroke="#000" stroke-linecap="round" stroke-linejoin="round" stroke-miterlimit="10" stroke-width=".5" d="M461.1836 481.0664l-.8711-.86718"/></g><g clip-path="url(#O)"><path fill="none" stroke="#000" stroke-linecap="round" stroke-linejoin="round" stroke-miterlimit="10" stroke-width=".5" d="M147.46875 467.57031l-6.9375-1.11328"/></g><path fill="none" stroke="#000" stroke-linecap="round" stroke-linejoin="round" stroke-miterlimit="10" stroke-width=".5" d="M147.46875 467.57031l.79297 2.32031m12.44922-1.97265l-6.79297-1.8086m6.79297 1.8086l.55469 2.38672m12.86718-3.03125l-7.00781-.51953m7.00781.51953l.98828 2.2461m12.33594-2.375l-7.02344-.26173m7.02344.26172l1.07031 2.20703m12.2422-2.1914l-7.01954-.29297m7.01953.29297l1.0625 2.21093m12.19531-1.69922l-6.90234-1.3164m6.90234 1.3164l.72657 2.34375m12.51953-2.05859l-6.76563-1.88672m6.76563 1.88672l.52734 2.39844m12.76953-2.33594l-6.73047-2.01172m6.73047 2.01172l.48438 2.40625m12.78515-2.26172l-6.64062-2.30078m5.67578 1.96484l.1914 1.21094m13.8711-.3789l-6.20703-3.29297m5.30469 2.8125l.0039 1.22656m13.42188.2539l-4.6211-5.29296m3.94922 4.52343l-.4375 1.14454m14.67578-.6172l-5.125-4.80859m4.37891 4.10938l-.32031 1.1836m15.16797-3.95313l-6.69532 2.1289m19.08204-3.60937l-4.83985 5.08984m4.13672-4.35156l1.1836.33203m9.1914-1.8164l2.44922 6.58203m8.91406-4.79688l6.35156 3.01172m-5.42578-2.57422l-.0586-1.22265m12.81642.17968l5.61328 4.22266m-4.79688-3.60938l.1914-1.21093m12.42188.45312l5.38281 4.51172m-5.3828-4.51172l.5078-2.40234m12.04688 4l6.90234 1.3164m-6.90234-1.3164l-.72656-2.34375m13.98828 2.7461l7.01172.51171m-7.01172-.51172l-.99219-2.24219m14.53125 3.75782l6.5625-2.51953m-6.5625 2.51953l-1.85156-1.60938m14.97656-.19531l6.9414 1.08984m-5.92968-.92968l-.40234-1.16016m12.83593.45703l6.6836 2.17578m-5.71094-1.85937l-.21094-1.21094m12.64063.66016l6.50781 2.64453m-5.5625-2.25782l-.125-1.22265m18.10938-.44531l-4.71875 5.20703"/><g clip-path="url(#P)"><path fill="none" stroke="#000" stroke-linecap="round" stroke-linejoin="round" stroke-miterlimit="10" stroke-width=".5" d="M147.3086 454.88281l-6.6172-2.36719"/></g><path fill="none" stroke="#000" stroke-linecap="round" stroke-linejoin="round" stroke-miterlimit="10" stroke-width=".5" d="M146.34375 454.53906l.17969 1.21094m13.98047-.57422l-6.375-2.95312m5.4453 2.52343l.06642 1.22657m14.26953-1.01172l-6.5586-2.52344m5.60547 2.15625l.14844 1.21875m13.41797.27344l-5.15625-4.77344m4.40625 4.07813l-.3125 1.1875m15.21484-3.70313l-6.83203 1.64453m5.83984-1.40234l.8125.91797m13.48438.53515l-6.8086-1.7461m5.81641 1.4922l.28906 1.1953m14.10938-2.15624l-6.99219.6836m5.97656-.58204l.67578 1.02344m13.67188-.71484l-7.02734-.13282m6.0039.11328l.55469 1.09375m13.78125-1.3125l-7.01953.34375m5.9961-.29687l.6289 1.05469m13.70312-1.1836l-7.0078.50781m5.98827-.43359l.65235 1.03906m13.5703.05078l-6.78515-1.82421m5.79688 1.55859l.27734 1.19922m14.11328-1.35547l-6.95703-.97656m5.94531.83593l.41797 1.15235m13.70703-2.76563l-6.55468 2.53125m5.60156-2.16406l.92578.80078m13.28906-1.29687l-6.44922 2.78906m5.51172-2.38672l.95703.76563m11.50782-2.98047l-2.875 6.41406m2.45703-5.48047l1.22265-.08203m7.85547.94922l6.4375 2.8125m-5.5039-2.40235l-.09375-1.22656m12.49609.76563l6.39453 2.91406m-5.46484-2.49219l-.07422-1.22265m12.91406.0625l5.48828 4.38671m-5.48828-4.38671l.45313-2.41016m12.39062 3.1836l6.42969 2.83984m-5.4961-2.42578l-.08593-1.22266m12.67968.40234l6.00391 3.65235m-6.0039-3.65235l.14062-2.44922m13.60156 1.88672l5.15235 4.77735m-4.40625-4.08203l.3164-1.1836m11.51563 1.70703l6.625 2.34375m-5.66016-2.0039l-.1836-1.21094m12.33594 1.85547l7.01954.375m-5.9961-.32031l-.51953-1.11329m12.91406.39454l6.81641 1.70312m-6.8164-1.70312l-.59376-2.38282m13.87891 3.97266l6.8711-1.47656"/><g clip-path="url(#Q)"><path fill="none" stroke="#000" stroke-linecap="round" stroke-linejoin="round" stroke-miterlimit="10" stroke-width=".5" d="M146.92969 442.32422l-5.85938-3.88281"/></g><path fill="none" stroke="#000" stroke-linecap="round" stroke-linejoin="round" stroke-miterlimit="10" stroke-width=".5" d="M146.07813 441.75781l-.1211 1.22266m12.95703.53125l-3.19922-6.25781m11.40235 3.01953l7.02344.21875m6.40625.78515l6.79687-1.78515m6.73828 2.38672l6.35938-2.9922m6.73828 2.39845l6.79297-1.8047m8.67578 4.19141l2.48437-6.57421m8.875 1.83203l6.39453 2.91015m7.57422-3.8789l5.08594 4.84765m-4.34375-4.14453l.32813-1.17969m17.95703 1.38282l-6.33594 3.03125m5.41406-2.58985l.98828.72657m10.01563-3.16407l.1289 7.02735m-.10937-6.0039l1.07031-.59767m12.07031-.42187l.4375 7.01562m-.375-5.99218l1.04688-.64453m13.875-.07032l-2.89844 6.40235m2.47656-5.47266l1.22266-.07812m13.05078-.54688l-3.97265 5.79297m3.39453-4.95313l1.21875.14063m12.7578-.92578l-4.13671 5.67969m3.53516-4.85157l1.21484.17188m12.21484-1.29688l-3.16406 6.27344m2.70313-5.35937l1.22656-.02735m9.42578-.90625l3.08203 6.3125m-2.63281-5.39453l.71875-.99219M369.40625 437l1.90234 6.76562M369.40625 437l1.77344-1.69531m9.17969 3.91015l6.625 2.33985m-6.625-2.33985l-.3672-2.42968m16.1875.17968l1.61329 6.83985m-1.3789-5.84766l.92577-.8086m12.26563-.20702L411 443.82812m-1.1914-5.88671l.9453-.77735m16.0625 1.76953l-6.39843 2.89844m13.1211-.53516l6.78515-1.82812m10.08203-2.59375l-.3164 7.01953m10.16406-4.6914l6.61718 2.36328"/><g clip-path="url(#R)"><path fill="none" stroke="#000" stroke-linecap="round" stroke-linejoin="round" stroke-miterlimit="10" stroke-width=".5" d="M147.35156 428.11719l-6.70312-2.09766"/></g><path fill="none" stroke="#000" stroke-linecap="round" stroke-linejoin="round" stroke-miterlimit="10" stroke-width=".5" d="M146.3789 427.8125l.22266 1.20703m13.98438-.67187l-6.54297-2.5586m5.59375 2.1875l.14062 1.21875m12.42578 1.01563l-3.14843-6.28516m2.6914 5.3711l-.71093 1m11.30468-.10157l3.21094-6.2539m-2.74219 5.34375l-1.22656.01953m13.85156.76562l3.65625-6.0039m-3.125 5.1289l-1.22656-.07031m19.14453-.875l-6.61719-2.36328m13.65625-.69531l5.9375 3.7539m-5.07421-3.20703l.09375-1.22656m14.80859 6.03125l1.03516-6.94922m16.01953 4.8789l-6.4414-2.80859m14.33202 4.14063l4.40625-5.47266m12.13281 2.73828l-.01953-.20312-.05859-.1914L278 426.5l-.45703-.375-.1914-.0586-.19923-.01952-.19922.01953-.1953.05859-.45704.375-.09375.17578-.0586.1914-.01952.20313.01953.19922.0586.1914.09374.17579.45703.375.19532.0586.19921.01952.19922-.01953.1914-.0586.45704-.375.09375-.17577.0586-.1914.01953-.19923m11.49218-3.42187l1.60547 6.83984m9.38281-1.82422l6.25782-3.1914m8.87109-1.66016l2.6289 6.51563m-2.6289-6.51563l1.57422-1.88281m13.16016 1.625l-.21094 7.02734m.21094-7.02734l2.20312-1.08594m12.38672 1.36719l-2.76172 6.46484m2.35938-5.52344l1.22265-.10546m9.86719-.88672l2.4961 6.5703m-2.13282-5.61718l.8086-.92187m12.95703-.23438l.86718 6.97266m-.73828-5.95703l1.0039-.70703m11.28907-.07422L385 430.3203m-2.65625-6.5039l1.5664-1.88672m13.41016 1.64062l-.66797 6.9961m.66797-6.9961l2.26563-.9414m-2.36328 1.96093l1.1328-.47265m13.26954-.30469l-2.64844 6.51172m2.64844-6.51172l2.4414-.25m11.88282.8789l-4.66406 5.25391m4.66406-5.2539l2.38672.57812m11.125-.39062l-5.0586 4.8789m5.0586-4.8789l2.33203.76172m10.3125-1.3047l-3.71875 5.96485m3.71875-5.96484l2.44922.17187m12.05469 1.0625l-6.09375 3.4961m5.20703-2.98828l1.03906.65234"/><g clip-path="url(#S)"><path fill="none" stroke="#000" stroke-linecap="round" stroke-linejoin="round" stroke-miterlimit="10" stroke-width=".5" d="M145.02344 413.7539l-.01953-.19921-.0586-.1914-.09375-.1797-.46094-.375-.1914-.05859-.19922-.01953-.19922.01953-.1914.0586-.46094.375-.09375.17968-.0586.1914-.01953.19923.01953.19921.0586.19141.09375.17578.46094.3789.1914.0586.19922.01953.19922-.01953.1914-.0586.46094-.3789.09375-.17578.0586-.1914.01953-.19922"/></g><path fill="none" stroke="#000" stroke-linecap="round" stroke-linejoin="round" stroke-miterlimit="10" stroke-width=".5" d="M159.29297 416.65625l-3.95703-5.8086m16.77344 6.09376l-2.95704-6.375m15.72657 6.57422l-1.8672-6.77344m1.59376 5.78906l-.89063.84375m16.64063-1.58594l-6.1914-3.32031m5.29296 2.83594l-.0039 1.22656m7.62109-2.08984l7-.625m-5.98047.53515l-.66797-1.03125m12.99219 1.33203l6.94531-1.05078m12.1875 3.14453l-4.6875-5.23437m19.01172 3.66016l-6.71094-2.08594m5.73438 1.78125l.23047 1.20703m14.1953-1.53516l-6.97655-.82031m5.96093.69922l.44532 1.14453m13.91015-1.46875l-7.02734.07031m18.23047-3.25781l-2.80078 6.44531m2.39453-5.50781l1.22265-.09766m12.53907-.82421l-2.88282 6.41015m2.46094-5.47656l1.22656-.08203m14.39844 1.23047l-6.66016 2.25m5.69141-1.92188l.89063.83985m13.53515-.57813l-6.94531 1.07031m19.63672-2.58984l-5.69922 4.10937m18.33203-4.8203l-4.33203 5.53124m3.70312-4.72656l1.20704.21094m10.58593-1.76563l-.03125 7.02735m.02735-6.00391l1.08593-.57031m12.6211-.4297l-.80469 6.98048m.6875-5.96485l1.14063-.4453m11.3125-.54298l1.15234 6.92969m-.98438-5.92187l.97266-.7461m13.84766-.13672l-2.1914 6.67578m2.1914-6.67578l2.41797-.41797m9.95703.2461l-.3125 7.01953m.3125-7.01953l2.21484-1.05469m13.23438 1.90234l-4.58204 5.32813m4.58204-5.32813l2.39453.53907m11.00781-.46094l-4.75781 5.17187m4.75781-5.17187l2.375.6211m9.11328-1.50391l-1.10156 6.9375m1.10156-6.9375l2.32031-.80078"/><g clip-path="url(#T)"><path fill="none" stroke="#000" stroke-linecap="round" stroke-linejoin="round" stroke-miterlimit="10" stroke-width=".5" d="M145.4375 397.23438l-2.875 6.41015"/></g><path fill="none" stroke="#000" stroke-linecap="round" stroke-linejoin="round" stroke-miterlimit="10" stroke-width=".5" d="M145.01953 398.16406l1.22656-.08203m7.75 1.20313l6.63672 2.30859m-5.67187-1.97266l-.1875-1.21484m12.46484 2.9414l6.78516-1.8203m-5.80078 1.55468l-.83594-.89453m13.17969 1.21484l6.7578-1.92968m-5.77343 1.64843l-.85156-.8828m13.80469-1.98048l5.51172 4.35938m-4.70704-3.72266l.21875-1.20703m11.53516 2.76953l7.02734-.03515m-6.0039.02734l-.58203-1.07813m12.88672.7422l7 .64843m-5.98047-.55469l-.47266-1.13281m18.8164-1.05469l-5.09765 4.83594m19.3789-2.39453l-7.02734-.04297m20.15625-1.10938l-6.65625 2.26172m5.6875-1.9336l.89453.83985m12.95313-2.03515l-5.78516 3.99218m4.9414-3.41015l1.08985.5625m12.32813-1.92578l-4.30078 5.55859m3.67578-4.75l1.20703.20703m11.83984-1.51953l-2.51562 6.5625m2.14843-5.60547l1.21875-.15234m13.82422.13281l-5.23828 4.6875m4.47656-4.0039l1.15235.42187m11.35547-2.11328l-2.09766 6.70703m1.79297-5.73047l1.20312-.22656m12.82813-.59375l-2.92188 6.39062m15.75782-6.5664l-1.96485 6.74609m1.6797-5.76563l1.19921-.25m14.86328 3.32813l-6.89062-1.3711m18.91796-2.08984l-4.3125 5.54688m3.6836-4.73828l1.21094.20703m11.7539-1.55078L395.8086 403.75m2.01172-5.66016l1.21485-.17968m12.66015-.69922l-2.78906 6.45312m2.38281-5.51172l1.22266-.10156m12.46484-.85156l-2.71875 6.48047m2.71875-6.48047l2.44531-.22266m10.3672.05469l-1.71485 6.8125m1.71484-6.8125l2.38281-.58984m11.87891.98046l-3.60937 6.03125m3.60937-6.03125l2.44922.125m11.66406.53125l-5.20312 4.72266"/><g clip-path="url(#U)"><path fill="none" stroke="#000" stroke-linecap="round" stroke-linejoin="round" stroke-miterlimit="10" stroke-width=".5" d="M466.16406 398.07813l2.3086.82812"/></g><g clip-path="url(#V)"><path fill="none" stroke="#000" stroke-linecap="round" stroke-linejoin="round" stroke-miterlimit="10" stroke-width=".5" d="M146.67578 384.84766l-5.35156 4.55078"/></g><path fill="none" stroke="#000" stroke-linecap="round" stroke-linejoin="round" stroke-miterlimit="10" stroke-width=".5" d="M146.67578 384.84766l2.28125.90234m-3.0586-.24219l1.14063.45313m12.29688-1.71094l-4.04297 5.7461m3.45703-4.91016l1.21484.15234m7.89063-.26953l5.55078 4.3086m-4.74219-3.6797l.20703-1.21093m12.52344.32031l5.10156 4.83203m-4.35937-4.1289l.32422-1.1797m11.4961 4.08595l6.60937-2.38672m-6.60938 2.38672l-1.82031-1.64844m15.8125 2.78906l5.2539-4.66797m-4.48828 3.98828l-1.15234-.42578m15.26172 2.1211l2.1289-6.69922m-1.8164 5.72265l-1.20703.22266m17.76562-.11719l-4.98047-4.95703m15.64063-1.03125l.32812 7.01953m16.3047-5.0586l-6.3047 3.09767m5.38672-2.64844l.9961.71875m12.73828-1.92188l-5.3086 4.60547m4.53516-3.9336l1.14844.44141m13.09375-.92187l-5.61719 4.22265m4.80078-3.60937l1.11328.52344m12.33594-1.82422l-4.25 5.59765m3.6289-4.78125l1.21094.19532m11.51563-1.60547l-1.83203 6.78515m1.5664-5.79687l1.19532-.27344m12.20312-.75781l-1.46875 6.8711m1.25781-5.8711l1.1797-.33594m11.73046-.73828l-.23437 7.02344m14.5078-.16797l-2.15234-6.6914m16.73047.72265l-4.67968 5.2461m4-4.48048l1.1914.28907m10.95703-1.91016l-.98437 6.95703m.83984-5.94531l1.15235-.41797m12.84765-.47265l-2.0664 6.71484m2.0664-6.71485l2.41016-.46484m10.84375.44531L409.32813 390.5m1.9453-6.7539l2.40235-.50391m10.55469.42187l-1.22656 6.91797m1.22656-6.91797l2.33203-.75781m11.125.78516l-1.51562 6.86328m1.51562-6.86328l2.36719-.65625m10.86719.64062l-1.35157 6.89453m1.35157-6.89453l2.34765-.71484m12.125 1.16406l-3.66797 5.9961"/><g clip-path="url(#W)"><path fill="none" stroke="#000" stroke-linecap="round" stroke-linejoin="round" stroke-miterlimit="10" stroke-width=".5" d="M465.39453 384.125l2.44922.14844"/></g><g clip-path="url(#X)"><path fill="none" stroke="#000" stroke-linecap="round" stroke-linejoin="round" stroke-miterlimit="10" stroke-width=".5" d="M146.63672 371.48828l-5.27344 4.64063"/></g><path fill="none" stroke="#000" stroke-linecap="round" stroke-linejoin="round" stroke-miterlimit="10" stroke-width=".5" d="M146.63672 371.48828l2.29687.86328m-3.0625-.1875l1.14844.42969m13.32422-.5664l-6.0586 3.5625m6.0586-3.5625l2.08984 1.28515m10.07813-2.46875l-3.76563 5.92969m3.76563-5.92969l2.44922.1875m9.13281-.73438l-.29688 7.02344m.25391-6l1.10547-.53125m8.82031 4.26953l6.5664-2.5039m-5.60937 2.14062l-.92578-.80469m13.14063.6875l6.85547-1.53906m-5.85938 1.3164l-.80078-.92968m18.61328 3.22266l-4.13281-5.6836m18.4336 4.58594l-6.10157-3.48437m5.21094 2.97656l-.03516 1.22656m14.36719-.96484l-6.35938-2.99219m5.4336 2.55469l.0625 1.22656m14.28125-1.03125l-6.5625-2.51172m5.60937 2.14844l.14844 1.21875m14.15625-.95313l-6.63672-2.3125m5.67188 1.97657l.1875 1.21093m13.73828-3.91796L287.5 375.6953m5.0664-3.22265l1.07032.60156m12.66016-1.71875l-5.03125 4.90625m4.29687-4.1914l1.17188.37109m12.52734-1.40235l-4.33203 5.53516m3.69922-4.72656l1.21093.21093m11.40625-1.66406l-1.67187 6.82813M344.91406 370.5l-2.375 6.61328m2.03125-5.64844l1.21094-.17578m12.64844-.70703l-2.77735 6.45313m2.375-5.51563l1.22266-.10156m12.8789-.64453l-3.54687 6.07031m3.03125-5.1875l1.22656.05078m12.41797-1.03515l-3.17187 6.26953m2.71094-5.35547l1.22656-.02735m11.92969-1.1289l-1.9336 6.75781m1.9336-6.75781l2.40234-.50781m10.57422.42968l-1.2539 6.91406m1.2539-6.91406l2.33594-.7461m11.77734.9922l-2.85156 6.42187m2.85156-6.42187l2.44922-.17188m10.22656-.04297l-1.57422 6.85156m1.57422-6.85156l2.36719-.63672m11.1289.6836l-1.9375 6.7539m1.9375-6.7539l2.40235-.50781m10.7461.46484l-1.60548 6.84375m1.60547-6.84375l2.375-.625"/><g clip-path="url(#Y)"><path fill="none" stroke="#000" stroke-linecap="round" stroke-linejoin="round" stroke-miterlimit="10" stroke-width=".5" d="M145.91797 357.54688l-3.83594 5.89062"/></g><path fill="none" stroke="#000" stroke-linecap="round" stroke-linejoin="round" stroke-miterlimit="10" stroke-width=".5" d="M145.91797 357.54688l2.4414.21875m11.63282.45312l-5.35547 4.55078m5.35547-4.55078l2.28125.90234m10.0625-1.69921l-3.41016 6.14453m3.41016-6.14454l2.45312.04297m-2.94922.85157l1.22657.01953m11.92187-1.19922l-2.08594 6.71094m2.08594-6.71094l2.41016-.45703m11.2539.58594l-2.78125 6.45312m14.2461.25781l.91797-6.96875m-.78516 5.95703l-1.14844.4297m14.25781.5703l1.0625-6.9453m-.90625 5.9375l-1.16015.40233m16.39844.28907l-3.09766-6.3086m2.64844 5.39063l-.71875.99219m16.11328-1.73438L247.33984 359m5.4336 2.55078l.0625 1.22656m14.48437-2.74218l-6.96875.91796m19.33594-2.89062l-5.07422 4.85938m4.33594-4.15235l1.16406.38281m11.51172-1.97656l-2.32031 6.63281m1.98437-5.66796l1.21094-.1836m13.61719-.08984l-4.67188 5.25m3.99219-4.48438l1.1914.28906m11.65626-1.73437l-2.37891 6.60938m2.03516-5.64844l1.21484-.17188m10.53516-.92187l1.4375 6.8789m-1.22657-5.8789l.94141-.78516m10.42188.71485L346.1875 363m-4.20703-4.28516l.3711-1.16796m13.89062-.47657l1.59765 6.84375m-1.36328-5.84765l.92188-.8047m14.0625-.10546l-2.20703 6.67188m1.8828-5.69922l1.21095-.20704m13.17968-.41406l-3.71093 5.96875m3.71093-5.96875l2.44532.16797m11.1914.0625L394.8086 363.25m4.35547-5.51172l2.41406.4375m10.79297-.52344l-4.14062 5.6797m4.14062-5.6797l2.4297.34766m10.84374-.375l-4.0586 5.73828m4.0586-5.73828l2.4336.3086m10.8125-.35938l-3.91797 5.83594m3.91796-5.83594l2.44141.2539m-3.01172.59766l1.21875.125m11.8125-1.39453l-2.20703 6.67188m2.20703-6.67188l2.41797-.41406m11.59766.73437l-3.60938 6.03125"/><g clip-path="url(#Z)"><path fill="none" stroke="#000" stroke-linecap="round" stroke-linejoin="round" stroke-miterlimit="10" stroke-width=".5" d="M465.36719 357.47656l2.44922.125"/></g><g clip-path="url(#aa)"><path fill="none" stroke="#000" stroke-linecap="round" stroke-linejoin="round" stroke-miterlimit="10" stroke-width=".5" d="M142.8711 343.85156l2.2578 6.65235"/></g><g clip-path="url(#ab)"><path fill="none" stroke="#000" stroke-linecap="round" stroke-linejoin="round" stroke-miterlimit="10" stroke-width=".5" d="M142.8711 343.85156l1.68359-1.78906"/></g><path fill="none" stroke="#000" stroke-linecap="round" stroke-linejoin="round" stroke-miterlimit="10" stroke-width=".5" d="M156.59766 343.73828l1.4375 6.8789m-1.4375-6.8789l1.8828-1.57031m13.72267 1.86719l-3.14454 6.28515m3.14453-6.28515l2.45313-.0625m10.07031-.21875l-1.5625 6.84765m1.5625-6.84765l2.3711-.64063m11.41797.78516l-2.51172 6.5625m2.14843-5.60938l1.21485-.14844m10.64453 5.94141l1.125-6.9336m-.96094 5.92579l-1.16016.39453m12.92579.07031l3.89843-5.84765m-3.33203 4.99609l-1.21875-.1211m14.74219 1.35938l2.34766-6.6211m-2.00391 5.66016l-1.21484.1797m16.4375.8164l-2.15625-6.6914m1.84375 5.71874l-.85547.8789m16.83594-4.01171l-6.85938 1.51953m5.86328-1.29688l.79297.9336m10.82813-3.83203l-1.48047 6.8711m1.26562-5.8711l1.17969-.33594m12.51562-.625l-1.80859 6.79297m1.54297-5.80469l1.19531-.27734m12.23047-.7461l-1.5039 6.86329m1.28515-5.86329l1.1836-.33203m11.66015-.75l-.1211 7.02735m.10547-6.00391l1.08985-.5586m11.17578-.3164l2.00781 6.73438m-1.71484-5.75782l.875-.85937m11.16015.35547l3.98438 5.78515m-3.40625-4.94531l.5664-1.08594m15.96094.1211l-3.59765 6.03515m3.07422-5.15625l1.22656.0586m13.26172-.4375l-4.89844 5.03515m4.1875-4.30469l1.17578.34375m13.19531-.6875l-5.58984 4.26172m5.58984-4.26171l2.23047 1.02734m10.33985-1.75l-4.09766 5.70703m4.09766-5.70703l2.43359.32812m10.73828-.42578l-3.8125 5.90235m3.8125-5.90235l2.44531.21094m10.82813-.23828l-3.72656 5.95703m3.72656-5.95703l2.44531.17187m10.80078-.21093l-3.59375 6.03906m3.59375-6.03906l2.45313.11718m11.1289.0547l-4.12109 5.6914m4.1211-5.6914l2.42968.33983m11.72266.52344l-5.80078 3.96485"/><g clip-path="url(#ac)"><path fill="none" stroke="#000" stroke-linecap="round" stroke-linejoin="round" stroke-miterlimit="10" stroke-width=".5" d="M466.46094 345.19531l2.17578 1.13672"/></g><g clip-path="url(#ad)"><path fill="none" stroke="#000" stroke-linecap="round" stroke-linejoin="round" stroke-miterlimit="10" stroke-width=".5" d="M141.16406 331.78516l5.67188 4.15625"/></g><path fill="none" stroke="#000" stroke-linecap="round" stroke-linejoin="round" stroke-miterlimit="10" stroke-width=".5" d="M154.44922 331.82813l5.73047 4.0703m-5.73047-4.0703l.3164-2.4336m.51954 3.02735l.3125-2.4336m12.41797 1.52735l5.23046 4.6914m-5.23047-4.6914l.58594-2.37891m.17578 3.0625l.29297-1.1914m13.0625-.15626l3.625 6.01953m-3.625-6.01953l1.26172-2.10156m13.6836 1.60547l.36328 7.01562m-.36328-7.01562l2.10546-1.26172m7.94532 5.45703l6.89062-1.375m-5.88672 1.17578l-.77734-.94922m14.26172 3.14063l4.54687-5.35938m-3.88672 4.57813l-1.19922-.26172m15.01172 1.69531l2.23047-6.66406m-1.90625 5.69531l-1.21094.19922m15.16407.94922l.3086-7.02344m-.26563 6l-1.10547.52735m17.33203-.89454l-5.60156-4.24218m4.78515 3.625l-.1914 1.21094m14.62109-4.375l-6.19531 3.3164m5.29297-2.83203l1.01953.6836m11.91015-2.51954l-3.625 6.02344m3.09766-5.14453l1.22656.0625m12.9375-.72266l-4.26562 5.58594m3.64453-4.77344l1.21094.19922m13.03906-.74219l-4.89453 5.04688m4.1836-4.3125l1.17577.33984m11.17188-1.98047l-1.53516 6.85938m1.3086-5.85938l1.18359-.32812m9.67578-.1914l3.82813 5.89452m-3.26954-5.03515l.59375-1.07422m11.23829 1.08984l5.67578 4.14844m-4.84766-3.54297l.17188-1.21484m11.77734 1.71484l6.7539 1.9375m-5.77343-1.65625l-.2539-1.19922m18.75-.2539l-5.57032 4.28125m4.76172-3.66016l1.11328.50781m12.20703-1.88672l-3.96484 5.79688m3.96484-5.79688l2.4414.26954m9.59766-.8125l-1.41015 6.8828m1.41015-6.8828l2.35156-.69532m10.44532.6289l-.375 7.01563m.32031-5.99609l1.10938-.51563m14.1953.20704l-4.25 5.59375m3.63282-4.78125l1.21094.1953m12.82031-.93358l-4.4414 5.4453m3.79296-4.65234l1.20313.23829m13.22265-.57422l-5.37109 4.53125m4.58984-3.8711l1.14063.45703"/><g clip-path="url(#ae)"><path fill="none" stroke="#000" stroke-linecap="round" stroke-linejoin="round" stroke-miterlimit="10" stroke-width=".5" d="M141 318.72266l6 3.65234"/></g><path fill="none" stroke="#000" stroke-linecap="round" stroke-linejoin="round" stroke-miterlimit="10" stroke-width=".5" d="M154.08984 319.15234l6.44922 2.78907m-6.44922-2.78907l-.1953-2.4453m1.1328 2.85155l-.1953-2.4453m1.13671 2.85155l-.10156-1.22265m11.48828.53515l6.55078 2.54297m-6.55078-2.54297l-.28906-2.4375m1.24218 2.8047l-.28906-2.4336m1.24219 2.80469l-.14453-1.21875m11.5039.60937l6.64844 2.28516m-6.64844-2.28516l-.3828-2.42578m1.35155 2.75781l-.38672-2.42187m12.69922 2.1914l6.71485 2.07813m-6.71485-2.07813l-.45703-2.41015m13.85938 2.16796l6.54297 2.56641m-6.54297-2.5664l-.28125-2.4375m13.89062 5.58984l5.94922-3.73828m-5.94922 3.73828l-2.125-1.22266m15.97266 1.875l4.88672-5.04687m-4.88672 5.04687l-2.35938-.67578m17.4922 1.60938l1.2539-6.91407M250.07422 323l-1.16797.3711m16.94922.05077l-4.03906-5.75m3.44921 4.91407l-.55468 1.09375m15.44531-1.3125l-6.01172-3.63672m5.13672 3.10547l-.0664 1.22656m14.76562-2.5625l-7.02735.09375m6.00391-.07813l.58984 1.07422m13.6836-1.71093l-6.89844 1.33984m5.89453-1.14453l.77344.95312m13.58984-.84375l-6.98828.72657m5.97266-.6211l.6836 1.01953m13.36718-2.17578l-6.42969 2.83203m5.4961-2.42187l.96484.76172m12.26562-2.5l-4.39453 5.48437m3.75782-4.6836l1.20312.22657m10.42969-1.79687l.2461 7.02343m-.21095-6l1.0625-.61328m11.20704-.22265l2.26953 6.65234m-1.9414-5.6836l.83983-.89452m16.46094 1.76171l-6.36328 2.98047m5.4375-2.54687l.98438.73828m12.125-2.53516l-4.09766 5.70703m4.09766-5.70703l2.43359.32813m10.10547-.75l-2.54688 6.55078m2.54688-6.55078l2.4375-.28906m9.70703.05078l-.20313 7.02343m.20313-7.02343l2.19922-1.08594m7.66406 5.66406l6.69922-2.1289m13.47656.91015l-7.01953.3086m5.9961-.26563l.625 1.0586m13.03124-3.03126l-5.66015 4.16407"/><g clip-path="url(#af)"><path fill="none" stroke="#000" stroke-linecap="round" stroke-linejoin="round" stroke-miterlimit="10" stroke-width=".5" d="M466.39063 318.46484l2.21484 1.0625"/></g><path fill="#00f" fill-rule="evenodd" d="M388.23828 472.08594h8.61719V461.9414h-8.61719v10.14453"/><path fill="azure" fill-rule="evenodd" d="M390.07031 463.77344h.83594v2.82422h3.28516v-2.82422h.83203v6.48047h-.83203v-2.91797h-3.28516v2.91797h-.83594v-6.48047"/><path fill="#ff3030" fill-rule="evenodd" d="M295.72656 409.94922h7.69531v-10.14453h-7.6953v10.14453"/><path fill="azure" fill-rule="evenodd" d="M297.5586 401.63672h.83593v5.73828h3.1914v.74219h-4.02734v-6.48047"/><path fill="#ff3030" fill-rule="evenodd" d="M344.55078 405.51172h7.6914v-10.14453h-7.6914v10.14453"/><path fill="azure" fill-rule="evenodd" d="M346.38281 397.19922h.83203v5.73828h3.19532v.74219h-4.02735v-6.48047"/><path fill="#00f" fill-rule="evenodd" d="M370.48438 401.07422h8.62109v-10.14844h-8.6211v10.14844"/><path fill="azure" fill-rule="evenodd" d="M372.3164 392.76172h.83594v2.82031h3.28516v-2.82031h.83203v6.47656h-.83203v-2.91406h-3.28516v2.91406h-.83593v-6.47656"/><path fill="#ff3030" fill-rule="evenodd" d="M224.71484 356.6875h7.69141v-10.14453h-7.6914v10.14453"/><path fill="azure" fill-rule="evenodd" d="M226.54688 348.375h.83203v5.74219h3.1953v.73828h-4.02733V348.375"/><path fill="#ffffe0" fill-rule="evenodd" d="M352.92188 383.55078h22.17968v-10.1914h-22.17969v10.1914"/><path fill-rule="evenodd" d="M356.42188 375.1914h.51171v6.29688h-.78906v-4.49219h-1.38672v-.55468l.5586-.06641.25-.05078.23046-.08985.20313-.14453.17578-.20703.14063-.29687.10546-.39453m4.8125 0l.23047.01953.21875.05469.20704.08984.19921.1211.1836.14843.17187.17578.30078.42188.2422.49218.17968.54688.11328.57812.03906.59375-.03906.58985-.11328.58594-.17969.55468-.24219.5-.30078.42969-.17187.17969-.1836.15234-.19921.125-.20704.08985-.21875.05859-.23046.01953-.22657-.01953-.21875-.0586-.21094-.08984-.1953-.125-.1836-.15234-.17188-.17969-.30078-.42969-.24219-.5-.17968-.55469-.11328-.58593-.03907-.58985h.83594l.02735.5625.08203.50391.125.44531.16406.3711.1914.30078.20704.22265.22656.13672.22265.04688.22657-.04688.22265-.13672.21094-.22265.1914-.30078.16407-.3711.125-.44531.08203-.5039.02735-.5625-.02735-.5625-.08203-.5-.125-.4375-.16406-.36329-.1914-.29297-.21095-.21484-.22265-.13281-.22656-.04297-.22266.04297-.22656.13281-.20704.21484-.1914.29297-.16406.36328-.125.4375-.08204.5-.02734.5625h-.83594l.03907-.59375.11328-.57812.17969-.54688.24218-.49218.30078-.42188.17188-.17578.1836-.14844.1953-.1211.21094-.08983.21875-.0547.22656-.01952m4.95313 0l.23047.01953.21875.05469.20703.08984.19922.1211.1836.14843.17187.17578.30078.42188.24219.49218.17968.54688.11329.57812.03906.59375-.03906.58985-.11329.58594-.17968.55468-.2422.5-.30077.42969-.17188.17969-.1836.15234-.19921.125-.20703.08985-.21875.05859-.23047.01953-.22656-.01953-.21875-.0586-.21094-.08984-.19531-.125-.1836-.15234-.17187-.17969-.30078-.42969-.2461-.5-.17968-.55469-.10938-.58593-.03906-.58985h.83203l.03125.5625.08203.50391.125.44531.16406.3711.1875.30078.21094.22265.22266.13672.22656.04688.22656-.04688.22266-.13672.21094-.22265.1914-.30078.16406-.3711.125-.44531.08204-.5039.02734-.5625-.02734-.5625-.08204-.5-.125-.4375-.16406-.36329-.1914-.29297-.21094-.21484-.22266-.13281-.22656-.04297-.22656.04297-.22266.13281-.21094.21484-.1875.29297-.16406.36328-.125.4375-.08203.5-.03125.5625h-.83203l.03906-.59375.10938-.57812.17968-.54688.2461-.49218.30078-.42188.17187-.17578.1836-.14844.19531-.1211.21094-.08983.21875-.0547.22656-.01952m4.95313 0l.38671.02734.35938.08203.32422.13672.27734.1875.23047.23828.17188.28516.10937.33203.03906.3789-.01953.27344-.0586.23438-.08593.19922-.11328.17187-.1289.14453-.14063.1211-.28516.1953.23047.1211.20703.14453.1836.17188.15234.19531.125.21094.08984.23047.05469.2461.01953.2539-.03515.3086-.10157.32812-.17187.32421-.23828.3086-.3086.26562-.375.21485-.21094.08203-.22656.0625-.2461.03515-.26171.01563-.25781-.01563-.24219-.03515-.22266-.0625-.20703-.08203-.35937-.21485-.28906-.26562-.22266-.3086-.15625-.32421-.09375-.32813-.03125-.3086h.83203l.02734.25391.07813.23438.125.21094.16015.1875.19141.15234.21875.11328.24219.07422.2539.02344.25391-.02344.24219-.07422.21875-.11328.19531-.15234.16016-.1875.1211-.21094.07812-.23438.02734-.2539-.02734-.2539-.07813-.23438-.1211-.21094-.16015-.1836-.19531-.15234-.21875-.11719-.24219-.0703-.2539-.02735-.25391.02734-.24219.07031-.21875.1172-.1914.15233-.16016.1836-.125.21094-.07813.23437-.02734.2539h-.83203l.01953-.2539.05469-.23828.09375-.22656.1211-.20703.15624-.19141.17969-.17188.20703-.15234.23438-.13281-.28907-.19531-.13672-.1211-.1328-.14453-.10938-.17187-.08985-.19922-.05469-.23438-.02343-.27344h.78906l.02344.21485.0664.1914.10157.16407.13671.14062.16797.10938.1875.08203.20704.05078.21875.01563.22265-.01563.20703-.05078.1875-.08203.16406-.10938.13672-.14062.10547-.16406.0664-.19141.02345-.21485-.02344-.21484-.0664-.1914-.10548-.16797-.13671-.14063-.16407-.10937-.1875-.08204-.20703-.05078-.22265-.01562-.21875.01562-.20704.05079-.1875.08203-.16796.10937-.13672.14063-.10157.16796-.0664.19141-.02344.21485h-.78906l.03906-.37891.10938-.33203.17187-.28516.23047-.23828.28125-.1875.32031-.13672.35938-.08203.38671-.02734"/><path fill="#ffffe0" fill-rule="evenodd" d="M268.58984 361.35938h22.1797v-10.19141h-22.1797v10.1914"/><path fill-rule="evenodd" d="M272.08984 353h.50782v6.29297h-.78516v-4.48828h-1.39063V354.25l.5625-.0664.25-.05079.23047-.08984.20313-.14453.17578-.20703.14063-.29688.10546-.39453m4.8125 0l.23047.01953.21875.05469.20703.08984.19532.1211.1875.14843.17187.17579.30078.42187.24219.49219.17969.54687.11328.57813.03515.58984-.03515.59375-.11328.58594-.17969.55469-.24219.5-.30078.42968-.17187.1797-.1875.15233-.19532.125-.20703.08985-.21875.0586-.23047.01952-.23046-.01953-.21875-.0586-.20704-.08983-.1953-.125-.1836-.15235-.17188-.17969-.30078-.42968-.2461-.5-.17968-.5547-.10938-.58593-.03906-.59375h.83203l.03125.5664.08204.50391.125.44141.16015.375.1914.30078.21094.22266.22266.13672.22656.04687.22657-.04687.22265-.13672.21094-.22266.1914-.30078.16407-.375.125-.4414.08203-.50391.02734-.5664-.02734-.5586-.08203-.5-.125-.4375-.16406-.36328-.19141-.29297-.21094-.21485-.22265-.1328-.22657-.04298-.22656.04297-.22265.13281-.21094.21485-.1914.29297-.16017.36328-.125.4375-.08203.5-.03125.5586h-.83203l.03906-.58985.10938-.57813.17969-.54687.2461-.49219.30077-.42188.17188-.17578.1836-.14843.1953-.1211.20704-.08984.21875-.05469.23046-.01953m4.95313 0l.23047.01953.21875.05469.20703.08984.19531.1211.1836.14843.17187.17579.30469.42187.24219.49219.17968.54687.10938.57813.03906.58984-.03906.59375-.10938.58594-.17969.55469-.24218.5-.30469.42968-.17188.1797-.18359.15233-.19531.125-.20703.08985-.21875.0586-.23047.01952-.23047-.01953-.21875-.0586-.20703-.08983-.19531-.125-.1836-.15235-.17187-.17969-.30469-.42968-.24219-.5-.17969-.5547-.10937-.58593-.03906-.59375h.83203l.03125.5664.07812.50391.12891.44141.16016.375.1914.30078.21094.22266.22266.13672.22656.04687.22656-.04687.22266-.13672.21094-.22266.1914-.30078.16016-.375.1289-.4414.08204-.50391.02734-.5664-.02735-.5586-.08203-.5-.1289-.4375-.16016-.36328-.1914-.29297-.21094-.21485-.22266-.1328-.22656-.04298-.22656.04297-.22266.13281-.21094.21485-.1914.29297-.16016.36328-.1289.4375-.07813.5-.03125.5586h-.83203l.03906-.58985.10938-.57813.17968-.54687.24219-.49219.30469-.42188.17187-.17578.1836-.14843.1953-.1211.20704-.08984.21875-.05469.23047-.01953m4.95312 0l.38672.02734.35938.08204.32031.13671.28125.1875.23047.23829.17187.28515.10938.33203.03906.3789-.02344.27345-.05468.23437-.08985.19922-.10937.17188-.1289.14453-.14063.12109-.28907.19531.23438.1211.20703.14453.1836.17187.15234.19531.1211.21094.09374.23047.05469.2461.01953.2539-.03516.3086-.10156.32812-.17187.32422-.2422.30469-.30468.26953-.375.21484-.21094.08203-.23046.0625-.2422.03516-.26171.01562-.25781-.01562-.2422-.03516-.22655-.0625-.20313-.08203-.35937-.21484-.28907-.26953-.22265-.3047-.15625-.32421-.09375-.32813-.03125-.30859h.83203l.02734.2539.07813.23438.1211.21094.16015.1875.19531.15234.21875.11329.24219.07421.2539.02344.25391-.02344.24219-.07421.21875-.11329.1914-.15234.16407-.1875.12109-.21094.07813-.23437.02734-.2539-.02735-.25392-.07812-.23437-.1211-.21094-.16406-.1875-.1914-.15234-.21875-.11328-.24219-.07031-.2539-.02735-.25391.02735-.24219.0703-.21875.11329-.19531.15234-.16016.1875-.1211.21094-.07812.23438-.02734.2539h-.83203l.01953-.2539.05469-.23829.08984-.22656.125-.20703.15234-.1914.1836-.17188.20703-.15235.23047-.1328-.28516-.19532-.14062-.1211-.12891-.14452-.10938-.17188-.08984-.19922-.0586-.23437-.01952-.27344h.78906l.01953.21094.0664.1914.10548.16797.13671.14063.16407.10937.1875.08203.20703.05078.22265.01563.21875-.01563.20704-.05078.1914-.08203.16406-.10937.13672-.14063.10547-.16797.0625-.1914.02344-.21094-.02344-.21485-.0625-.1914-.10547-.16797-.13672-.14063-.16406-.10937-.1914-.08203-.20704-.05078-.21875-.01563-.22265.01563-.20703.05078-.1875.08203-.16407.10938-.13671.14062-.10547.16797-.06641.1914-.01953.21485h-.78906l.03906-.3789.10937-.33204.17188-.28515.23047-.23829.27734-.1875.32422-.13671.35938-.08204.38671-.02734"/><path fill="#ffffe0" fill-rule="evenodd" d="M173.08594 382.89453h22.17969v-10.19531h-22.1797v10.19531"/><path fill-rule="evenodd" d="M176.58594 374.53516h.50781v6.29296h-.78516v-4.48828h-1.39062v-.55859l.5625-.0625.25-.05469.23047-.08984.20312-.14063.17578-.21093.14063-.29297.10547-.39453m4.8125 0l.23047.01562.21875.0586.20703.08984.19922.1211.18359.14843.17188.17578.30078.41797.24218.4961.1797.54296.11327.58203.03516.58985-.03516.59375-.11328.58203-.17969.55469-.24218.5039-.30078.42578-.17188.1797-.1836.15233-.19921.125-.20703.09375-.21875.0547-.23047.01952-.22656-.01953-.21875-.05469-.21094-.09375-.19531-.125-.1836-.15234-.17187-.17969-.30078-.42578-.2461-.5039-.17969-.5547-.10937-.58202-.03906-.59375h.83203l.03125.5625.08203.50781.125.4414.16406.375.1875.30079.21094.22265.22266.13672.22656.04688.22656-.04688.22266-.13672.21093-.22265.19141-.30078.16406-.375.125-.44141.08203-.50781.02735-.5625-.02735-.5625-.08203-.5-.125-.4336-.16406-.36718-.1914-.29297-.21094-.21485-.22266-.1289-.22656-.04688-.22656.04688-.22266.1289-.21094.21485-.1875.29297-.16406.36718-.125.4336-.08203.5-.03125.5625h-.83203l.03906-.58985.10937-.58203.1797-.54297.24608-.49609.30079-.41797.17187-.17578.1836-.14844.1953-.1211.21095-.08983.21875-.0586.22656-.01562m4.95312 0l.23047.01562.21875.0586.20703.08984.19531.1211.1875.14843.16797.17578.3047.41797.24218.4961.17969.54296.11328.58203.03515.58985-.03515.59375-.11328.58203-.1797.55469-.24218.5039-.30469.42578-.16797.1797-.1875.15233-.1953.125-.20704.09375-.21875.0547-.23047.01952-.23047-.01953-.21875-.05469-.20703-.09375-.19531-.125-.1836-.15234-.17187-.17969-.30078-.42578-.2461-.5039-.17968-.5547-.10938-.58202-.03906-.59375h.83203l.03125.5625.08203.50781.125.4414.16016.375.1914.30079.21094.22265.22266.13672.22656.04688.22656-.04688.22266-.13672.21094-.22265.1914-.30078.16016-.375.1289-.44141.08204-.50781.02734-.5625-.02734-.5625-.08203-.5-.1289-.4336-.16017-.36718-.1914-.29297-.21094-.21485-.22266-.1289-.22656-.04688-.22656.04688-.22266.1289-.21093.21485-.19141.29297-.16016.36718-.125.4336-.08203.5-.03125.5625h-.83203l.03906-.58985.10938-.58203.17969-.54297.24609-.49609.30078-.41797.17188-.17578.18359-.14844.19531-.1211.20703-.08983.21875-.0586.23047-.01562m4.95313 0l.38672.02734.35937.08203.32031.13672.28125.1875.23047.23438.17188.28906.10937.33203.03906.375-.01953.27344-.05859.23437-.08984.20313-.10938.16796-.1289.14454-.14063.12109-.28516.19922.23047.11719.20703.14843.1836.17188.15234.1914.125.21485.08984.23047.0547.24219.01952.2578-.03515.3086-.10156.32422-.17188.32813-.24219.30468-.30469.26953-.375.21485-.21093.08203-.22656.0586-.2461.03906-.26172.01171-.25781-.01171-.24219-.03907-.22265-.0586-.20703-.08202-.35938-.21485-.28906-.26953-.22266-.30469-.15625-.32812-.09375-.32422-.03125-.3086h.83203l.02735.25.07812.23829.1211.21094.16015.18359.19531.15234.21875.1172.2422.0703.2539.02735.2539-.02735.2422-.0703.21874-.1172.19531-.15234.16016-.1836.1211-.21093.07812-.23828.02734-.25-.02734-.2539-.07813-.23438-.12109-.21485-.16016-.1836-.1953-.15233-.21876-.11329-.24219-.07421-.2539-.02344-.2539.02344-.2422.07421-.21875.11329-.1953.15234-.16017.1836-.12109.21484-.07812.23437-.02735.2539h-.83203l.01953-.2539.05469-.24219.08984-.22265.125-.20703.15235-.19141.1836-.17188.20702-.15234.23047-.13281-.28516-.19922-.14062-.1211-.1289-.14452-.10938-.16797-.08984-.20313-.0586-.23437-.01953-.27344h.78906l.02344.21484.0625.1914.10547.16798.13672.13672.16406.11328.1914.08203.20704.05078.21875.01563.21875-.01563.20703-.05078.1914-.08203.16407-.11328.13672-.13672.10547-.16797.0625-.1914.02343-.21485-.02344-.21485-.0625-.1914-.10546-.16406-.13672-.14063-.16406-.11328-.19141-.07813-.20703-.05078-.21875-.01953-.21875.01953-.20703.05079-.19141.07812-.16406.11328-.13672.14063-.10547.16406-.0625.1914-.02344.21485h-.78906l.03906-.375.10938-.33203.17187-.28906.23047-.23438.28125-.1875.32031-.13672.35938-.08203.38672-.02734"/><path fill="#ffffe0" fill-rule="evenodd" d="M306.23828 428.73047h22.17969v-10.19531h-22.17969v10.1953"/><path fill-rule="evenodd" d="M309.73828 420.3711h.50781v6.29296h-.78906v-4.48828h-1.38672v-.55469l.5586-.0664.2539-.05469.23047-.08984.20313-.14063.17187-.21094.14063-.29296.10937-.39454m4.8125 0l.23047.01563.21875.0586.20703.08984.19531.12109.1836.14844.17187.17578.30078.41797.2461.4961.17969.54296.10937.58203.03906.58985-.03906.59375-.10938.58203-.17968.55468-.2461.50391-.30078.42578-.17187.17969-.1836.15625-.1953.1211-.20704.09374-.21875.05469-.23047.01953-.23047-.01953-.21875-.05469-.20703-.09375-.19531-.1211-.1875-.15624-.16797-.17969-.30469-.42578-.24219-.5039-.17968-.5547-.11328-.58202-.03516-.59375h.83203l.02735.5625.08203.5078.1289.44141.16016.375.1914.30079.21094.22265.22266.13672.22656.04688.22656-.04688.22266-.13672.21094-.22265.1914-.30079.16016-.375.125-.4414.08203-.50781.03125-.5625-.03125-.5625-.08203-.5-.125-.4336-.16016-.36719-.1914-.29296-.21094-.21094-.22266-.13281-.22656-.04688-.22656.04688-.22266.1328-.21094.21094-.1914.29297-.16016.3672-.1289.43358-.08204.5-.02734.5625h-.83203l.03516-.58984.11328-.58203.17969-.54297.24218-.4961.30469-.41796.16797-.17578.1875-.14844.19531-.1211.20703-.08984.21875-.0586.23047-.01562m4.95313 0l.22656.01563.21875.0586.21094.08984.1953.12109.1836.14844.17188.17578.30078.41797.2461.4961.17968.54296.10938.58203.03906.58985-.03906.59375-.10938.58203-.17969.55468-.2461.50391-.30077.42578-.17188.17969-.1836.15625-.1953.1211-.21094.09374-.21875.05469-.22656.01953-.23047-.01953-.21875-.05469-.20703-.09375-.19922-.1211-.1836-.15624-.17187-.17969-.30078-.42578-.24219-.5039-.17969-.5547-.11328-.58202-.03906-.59375h.83594l.02734.5625.08203.5078.125.44141.16406.375.19141.30079.21094.22265.22265.13672.22657.04688.22656-.04688.22265-.13672.21094-.22265.1875-.30079.16406-.375.125-.4414.08204-.50781.03125-.5625-.03125-.5625-.08204-.5-.125-.4336-.16406-.36719-.1875-.29296-.21094-.21094-.22265-.13281-.22656-.04688-.22657.04688-.22265.1328-.21094.21094-.1914.29297-.16407.3672-.125.43358-.08203.5-.02734.5625h-.83594l.03906-.58984.11328-.58203.17969-.54297.24219-.4961.30078-.41796.17187-.17578.1836-.14844.19922-.1211.20703-.08984.21875-.0586.23047-.01562m4.95312 0l.38672.02735.35547.08203.32422.13672.28125.1875.23047.23437.17187.28906.10938.33204.03515.375-.01953.27343-.0586.23829-.08593.19921-.11328.16797-.1289.14453-.14063.1211-.28516.19922.23047.11718.21094.14844.17969.17188.15625.1914.12109.21485.08984.23046.0586.2422.01953.2578-.03516.3086-.10547.32422-.17187.32812-.23828.30469-.3086.26953-.3711.21485-.21093.08203-.23047.05859-.24219.03906-.26171.01172-.26172-.01172-.24219-.03906-.22266-.0586-.20703-.08202-.35547-.21485-.29296-.26953-.22266-.30469-.15625-.32812-.09375-.32422-.02735-.3086h.83204l.02734.25.07813.23829.12109.21093.16015.1836.19141.15234.22266.11719.23828.07031.25781.02735.2539-.02735.23829-.07031.22265-.11719.19141-.15234.16016-.1836.1211-.21093.07812-.23829.02734-.25-.02734-.2539-.07813-.23438-.1211-.21484-.16015-.1836-.1914-.15234-.22266-.11328-.23828-.07422-.2539-.02344-.25782.02344-.23828.07422-.22266.11328-.1914.15235-.16016.18359-.1211.21484-.07812.23438-.02734.2539h-.83204l.01563-.2539.0586-.24219.08984-.22265.125-.20704.15234-.1914.17969-.17188.21094-.15234.23046-.13281-.28515-.19922-.14063-.1211-.1289-.14453-.11328-.16797-.08594-.19921-.0586-.23829-.01953-.27343h.78516l.02344.21484.0664.1914.10547.16798.13672.13671.16406.11329.1875.08203.20704.05078.22265.01562.21875-.01562.20703-.05078.1875-.08204.16797-.11328.13672-.13671.10156-.16797.0664-.19141.02345-.21484-.02344-.21485-.0664-.1914-.10157-.16407-.13672-.14062-.16797-.11328-.1875-.07813-.20703-.05078-.21875-.01953-.22265.01953-.20704.05078-.1875.07813-.16406.11328-.13672.14062-.10547.16407-.0664.1914-.02344.21485h-.78516l.03516-.375.10938-.33204.17578-.28906.22656-.23437.28125-.1875.32422-.13672.35547-.08203.39062-.02735"/><path fill="#ffffe0" fill-rule="evenodd" d="M390.5664 454.39844h22.1797v-10.1914h-22.1797v10.1914"/><path fill-rule="evenodd" d="M394.0664 446.04297h.50782v6.29297h-.78516v-4.48828h-1.39062v-.5586l.5586-.0625.2539-.05469.23047-.08984.20312-.14062.17188-.21094.14453-.29297.10547-.39453m4.8125 0l.23046.01562.21875.0586.20704.08984.1953.11719.1836.15234.17188.17578.30469.41797.24218.49219.17969.54688.10938.58203.03906.58984-.03906.59375-.10938.58203-.17969.55469-.24219.5039-.30468.42579-.17188.17968-.1836.15235-.1953.125-.20704.09375-.21875.05469-.23046.01953-.23047-.01954-.21875-.05468-.20703-.09375-.19532-.125-.18359-.15235-.17188-.17968-.30468-.42579-.24219-.5039-.17969-.55469-.10937-.58203-.03906-.59375h.83203l.03125.5625.07812.50781.1289.4414.16016.375.19141.30079.21094.22266.22265.13671.22657.04688.22656-.04688.22265-.13671.21094-.22266.1914-.30078.16017-.375.1289-.4414.08203-.50782.02735-.5625-.02735-.5625-.08203-.5-.1289-.4336-.16016-.36718-.1914-.29297-.21094-.21484-.22266-.12891-.22656-.04688-.22657.04688-.22265.1289-.21094.21485-.1914.29297-.16016.36719-.1289.43359-.07813.5-.03125.5625h-.83204l.03907-.58984.10937-.58204.17969-.54687.24219-.49219.30469-.41797.17187-.17578.1836-.15234.1953-.11719.20704-.08984.21875-.0586.23047-.01562m4.95312 0l.23047.01562.21875.0586.20703.08984.19531.11719.1836.15234.17187.17578.30078.41797.2461.49219.17969.54688.10937.58203.03906.58984-.03906.59375-.10938.58203-.17968.55469-.2461.5039-.30078.42579-.17187.17968-.1836.15235-.1953.125-.20704.09375-.21875.05469-.23047.01953-.23047-.01954-.21875-.05468-.20703-.09375-.19531-.125-.1875-.15235-.16797-.17968-.30469-.42579-.24219-.5039-.17968-.55469-.11328-.58203-.03516-.59375h.83203l.02735.5625.08203.50781.1289.4414.16016.375.1914.30079.21094.22266.22266.13671.22656.04688.22656-.04688.22266-.13671.21094-.22266.1914-.30078.16016-.375.125-.4414.08203-.50782.03125-.5625-.03125-.5625-.08203-.5-.125-.4336-.16016-.36718-.1914-.29297-.21094-.21484-.22266-.12891-.22656-.04688-.22656.04688-.22266.1289-.21094.21485-.1914.29297-.16016.36719-.1289.43359-.08204.5-.02734.5625H401.75l.03516-.58984.11328-.58204.17969-.54687.24218-.49219.30469-.41797.16797-.17578.1875-.15234.19531-.11719.20703-.08984.21875-.0586.23047-.01562m4.95313 0l.38671.02734.35938.08203.32031.13672.28125.1875.23047.23438.17188.28515.10937.33594.03906.375-.02343.27344-.0547.23437-.08983.20313-.11329.16797-.1289.14453-.13672.1211-.28906.19921.23437.11719.20703.14844.17969.17187.15625.1914.1211.21485.09374.23047.0547.24219.01952.25781-.03515.3086-.10547.32421-.17188.32813-.23828.30469-.30469.26953-.375.21484-.21093.08203-.23047.0586-.24219.03906-.26172.01172-.26172-.01172-.23828-.03906-.22656-.0586-.20313-.08203-.35937-.21484-.28906-.26954-.22266-.30468-.16016-.32813-.08984-.32422-.03125-.30859h.83203l.02735.25.07812.23828.1211.21094.16015.1836.19531.15234.21875.11718.23828.07032.25782.02734.2539-.02734.24219-.07032.21875-.11718.1914-.15235.16016-.1836.125-.21093.07813-.23828.02734-.25-.02734-.2539-.07813-.23438-.125-.21485-.16015-.18359-.19141-.15234-.21875-.11328-.24219-.07422-.2539-.02344-.25782.02344-.23828.07422-.21875.11328-.19531.15234-.16016.1836-.12109.21484-.07813.23437-.02734.25391h-.83203l.01953-.2539.05469-.2422.08984-.22265.125-.20703.15235-.1914.18359-.17188.20703-.15235.23047-.1328-.28516-.19923-.14062-.1211-.1289-.14452-.11329-.16797-.08594-.20313-.05859-.23437-.01953-.27344h.78515l.02344.21485.0664.1914.10548.16797.13672.13672.16406.11328.1875.08203.20703.05078.22266.01563.21875-.01563.20703-.05078.1875-.08203.16797-.11328.13671-.13672.10157-.16797.0664-.1914.02344-.21485-.02344-.21484-.0664-.1914-.10156-.16407-.13672-.14063-.16797-.11328-.1875-.08203-.20703-.04687-.21875-.01954-.22266.01954-.20703.04687-.1875.08203-.16406.11328-.13672.14063-.10547.16406-.0664.1914-.02344.21485h-.78516l.03906-.375.10938-.33594.17187-.28515.23047-.23438.27734-.1875.32422-.13672.35938-.08203.38672-.02734"/></g></defs><use xlink:href="#ag"/></svg>