<svg xmlns="http://www.w3.org/2000/svg" role="img" xmlns:xlink="http://www.w3.org/1999/xlink" viewBox="142.45 309.95 326.84 171.84"><defs><clipPath id="a"><path d="M144 311.67188h1v168.65625h-1zm0 0"/></clipPath><clipPath id="b"><path d="M144 311.67188h324v168.65625H144zm0 0"/></clipPath><clipPath id="c"><path d="M467 311.67188h1v168.65625h-1zm0 0"/></clipPath><clipPath id="d"><path d="M144 476h1v4.32813h-1zm0 0"/></clipPath><clipPath id="e"><path d="M155 476h4v4.32813h-4zm0 0"/></clipPath><clipPath id="f"><path d="M169 476h4v4.32813h-4zm0 0"/></clipPath><clipPath id="g"><path d="M181 477h6v3.32813h-6zm0 0"/></clipPath><clipPath id="h"><path d="M193 479h8v1.32813h-8zm0 0"/></clipPath><clipPath id="i"><path d="M209 476h3v4.32813h-3zm0 0"/></clipPath><clipPath id="j"><path d="M220 477h7v3.32813h-7zm0 0"/></clipPath><clipPath id="k"><path d="M233 479h8v1.32813h-8zm0 0"/></clipPath><clipPath id="l"><path d="M239 480h2v.32813h-2zm0 0"/></clipPath><clipPath id="m"><path d="M246 478h9v2.32813h-9zm0 0"/></clipPath><clipPath id="n"><path d="M252 479h3v1.32813h-3zm0 0"/></clipPath><clipPath id="o"><path d="M260 478h8v2.32813h-8zm0 0"/></clipPath><clipPath id="p"><path d="M265 478h3v2.32813h-3zm0 0"/></clipPath><clipPath id="q"><path d="M273 478h8v2.32813h-8zm0 0"/></clipPath><clipPath id="r"><path d="M280 478h3v2.32813h-3zm0 0"/></clipPath><clipPath id="s"><path d="M286 478h9v2.32813h-9zm0 0"/></clipPath><clipPath id="t"><path d="M293 478h3v2.32813h-3zm0 0"/></clipPath><clipPath id="u"><path d="M300 479h8v1.32813h-8zm0 0"/></clipPath><clipPath id="v"><path d="M307 479h2v1.32813h-2zm0 0"/></clipPath><clipPath id="w"><path d="M313 479h8v1.32813h-8zm0 0"/></clipPath><clipPath id="x"><path d="M319 480h2v.32813h-2zm0 0"/></clipPath><clipPath id="y"><path d="M326 479h9v1.32813h-9zm0 0"/></clipPath><clipPath id="z"><path d="M333 479h3v1.32813h-3zm0 0"/></clipPath><clipPath id="A"><path d="M341 477h6v3.32813h-6zm0 0"/></clipPath><clipPath id="B"><path d="M354 477h6v3.32813h-6zm0 0"/></clipPath><clipPath id="C"><path d="M366 479h9v1.32813h-9zm0 0"/></clipPath><clipPath id="D"><path d="M372 479h2v1.32813h-2zm0 0"/></clipPath><clipPath id="E"><path d="M379 479h9v1.32813h-9zm0 0"/></clipPath><clipPath id="F"><path d="M386 479h3v1.32813h-3zm0 0"/></clipPath><clipPath id="G"><path d="M393 477h8v3.32813h-8zm0 0"/></clipPath><clipPath id="H"><path d="M408 477h5v3.32813h-5zm0 0"/></clipPath><clipPath id="I"><path d="M420 478h7v2.32813h-7zm0 0"/></clipPath><clipPath id="J"><path d="M425 478h3v2.32813h-3zm0 0"/></clipPath><clipPath id="K"><path d="M433 478h8v2.32813h-8zm0 0"/></clipPath><clipPath id="L"><path d="M448 476h4v4.32813h-4zm0 0"/></clipPath><clipPath id="M"><path d="M461 476h5v4.32813h-5zm0 0"/></clipPath><clipPath id="N"><path d="M144 464h4v6h-4zm0 0"/></clipPath><clipPath id="O"><path d="M144 451h4v5h-4zm0 0"/></clipPath><clipPath id="P"><path d="M144 438h4v5h-4zm0 0"/></clipPath><clipPath id="Q"><path d="M144 425h4v4h-4zm0 0"/></clipPath><clipPath id="R"><path d="M144 411h4v5h-4zm0 0"/></clipPath><clipPath id="S"><path d="M144 398h4v5h-4zm0 0"/></clipPath><clipPath id="T"><path d="M144 384h3v6h-3zm0 0"/></clipPath><clipPath id="U"><path d="M144 370h3v7h-3zm0 0"/></clipPath><clipPath id="V"><path d="M144 356h2v9h-2zm0 0"/></clipPath><clipPath id="W"><path d="M144 345h2v4h-2zm0 0"/></clipPath><clipPath id="X"><path d="M466 346h2v4h-2zm0 0"/></clipPath><clipPath id="Y"><path d="M144 333h4v2h-4zm0 0"/></clipPath><clipPath id="Z"><path d="M466 333h2v3h-2zm0 0"/></clipPath><clipPath id="aa"><path d="M144 319h4v3h-4zm0 0"/></clipPath><clipPath id="ab"><path d="M466 318h2v3h-2zm0 0"/></clipPath><clipPath id="ac"><path d="M465 319h3v3h-3zm0 0"/></clipPath><g id="ad" clip-path="url(#clip1)"><path fill="#fff" fill-opacity="0" fill-rule="evenodd" d="M0 0h1000v1000H0zm0 0"/><path fill="#d3d3d3" fill-opacity="0" fill-rule="evenodd" d="M162.15234 355.86719l-.23437.29297.0586.23437.11718.17188.17578.23437.29297.34766.11328.0586.11719-.17188.0586-.23438.17577-.17578.46485-.17578h.69922l.23437.29297.28906.8164.0586.17579.17578.23046.35156.23438.69922.69922.17188.17578.23437.34765.23438.41016.28906.58203.41015.46485.23047.23437.23438.17578.11719.23047.17578.29297.17187 1.16406v.23438l.0586.28906.05859.11719.11719.11719.34765.41015.11719.17188.17578.17578.17578.23437.11719.17188.17188.35156.05859.23438.23437.40625.23438-.0586-.17578.17578-.0586.92969h-.58203l-.23437-.11328-.34766.11328-.11719.11719-.05859.29297-.0586.17578-.11718.17187-.46484.29297-.0586.23438-.0586.11328v.64453l.0586.17187v.41016l.0586.0586v.40624l.05859.40625.11719.17579.05859.05859.23047.64062-.0586.29297v.69922l-.05859.58203v.23438l-.0586.23047-.05468.35156v1.92187l.05469.1172h.42578l-.36719.11718-.02344.35156.89063 1.16797 1.74219.53906 1.33984.35938v.53906l.08984.8086.53516.71484 1.51953.26953.89063-.08594.08984 1.16406.53516.1797 1.16015-.1797 2.05469-.98437 1.16016-.36328 1.8789-.17578 1.69531-.1797-.17968.71876-1.51563.08594-1.25.08984-.80469.26953-1.07421.8086.26953.71875.53515.89843-.17968.625-.26563.8086.26563 1.07812.625.89844.80468.17969 1.25-.1797-.26562.72267.09766.5039.05468.29297v.17188l.0586.29296v.40625l.17578.1172.35156.11718h.40625l.29297-.17578.11328-.11719.0586-.11719.11718-.23047.0586-.17578.35156-.46484.23047-.17578.17578-.0586.17578.0586.0586.17578.11718.98828.05469.46875.0586.17188.11718.23437.17578.0586.8164.05859h.28907l.11719.23437.05859.40625.0586.35156v1.10547l.11718.29297.11719.34766.28906.69922.17578.35156.58203.7539.35157.17579.17187.0586.46875.23437.64063.46484.34765.23438.29297.17578.29297.05468.23047.0625.8164.34766.29297.17578.11328.17188.35157.35156.11719.17578.52343.64063v.28906l.0586.35156v.34766l.05859.35156.0586.28906.11718.0586.17188.05859h.17578l.58203.23437.17578.1172.17578.28905.17578.23438.11328.23437.29297.23047.11719.11719v.41016l.0586.05468.28906.23438.23437.11719.0586.11718.11718.17188.0586.11719.23047.23437.05859.17578.23437.0586.1172.05859-.1172.11328-.05859.11719v.11719l-.11719.29296-.11719.28907v.58203l.17579.11719.11718.05859.0586.11719.11719.11719.11328.05859.17578.34765.0586.35157.05858.40625v.17578l-.05859.17578-.11719.69922v.17187l.1172.17579.29296.29296h.40625l.17578.1172.11719.17187.11719.29296v.23438h-.52735l-.23047-.23438h-.23437l-.17578.0586-.0586.69922.0586.34765.11719.17579.17578.41015.11718.23047.28907.46875.17578.05469h.52344l.23437.0586.75781.64062.0586.29296v.23438l.05859.0586.23047.34765v.35156l-.11719.17188v.29297l.29297.28906.29297.17578.17187.0586.29297.17577.29297.1172.58203.40624.28906.23438.29297.17578.21875.16015.01563.01172.23047.17579.64062.52343.17578.23438.1172.17578.17577.17578.11328.17188v.64062l.1172.17578.46874.11719.58203.11719.23438.05859.23047.11328.29297.11719.11328.0586.58593.35156.28907.17187.17578.0625.17578.05469.17578.0586.69922.35155.28906.17579.23438.05468.28906.17578.23437.1172.64063.40624.29297.11719.17187.0586.23438.05859.41015.05859.23047.0586.23438.11718.0586.17188-.41017.17578.46875.0586.0586.29296.11328.23438.17578.05468.23438.0586.17578.05859.40625.11719.64062.23437.11719.17188.0586.23437v.17578l-.0586.1172-.0586.40624.23438.23438.11719.05859.34766.11719.64062.23047.17578.11718.28906.1172.17578.17577.23438.46485.58203 1.10546.17578.17579.34766.17578.17578.11719.35156.11718 1.04688.52344.23437.0586.46485.11327.29297.0586.46484.17578.75781.58203.23438.23438.34765.46484.17578.17578.28907.23438.8164.69921.29297.17579.28906.28906.29297.17578.29297.28906.69531.64063.17578.17578.29297.23437.28907.23438.46875.28906.64062.58203.34766.23438.23437.29297.34766.34765.35156.46485.9336.99218.34765.40625.11719.17579.23437.05859.11328.11719.64454.17578.23047.11328.23437.0586.29297.17577.23047.1172.9336.69921.40624.40625.23438.17578.40625.17578.23437.11719.8164.34766.34766.23437.23438.11719.29297.28906.23047.11719.7578.35156.35157.17188.23047.05859.29297.11719.23437.0586.8711.17577h.8164l.46875.23047.17188.0586.875.69921.46484.1172.29297.05858.17578.0586.23047.0586.46875.05859.34766.05859.35156.0586.40625.05859h.29297l.17187.0586v.23046l.17578.17578h.29297l.34766.0586.35156.05859.69922.11719h.64063l.46484-.23438.29297-.17578.17187-.11719.41016-.17187.28906-.17578.9336-.46485.46875-.29297.52343-.29296.46485-.17188.46484-.17578 1.05078-.46485.28906-.11718.41016-.11719.28906-.11719.52735-.17578 1.51562-.69922.58203-.34765.28907-.0586.29297-.0586.34765-.11718.875-.23047.35156-.11719h.11329l.23437-.05859.875-.23437.23438-.0586h.8125l.35156-.0586.8164-.11718.17188-.0586.35156-.05468.29297-.0586.23047-.05859.8164-.17578.17579-.0586h.34765l.23438-.05859.46484-.11718.75781-.17188.23438-.0586h.34765l.41016-.11718.28906-.0586 1.28516-.05859h.28906l.41016-.0586.23047-.05858h.17578l.875-.1172h.40625l.41015-.11718h.34766l.35156-.11328.8711-.0586h1.75l1.04687.28907.41016.11719.28906.11718.35156.11719.28907.11719 1.05078.17187.28906.0586h.29297l.29297.05859.17187.0586.41016.05859.17187.0586.1172.05858h.11718l.11719.0586.35156.0586h.11328l.41016.0664 1.92187.39453 1.92578.39453 1.51953.44922 1.69532.71875 2.14453.80469 1.60547-.71875 1.42968-.80469 1.16016-1.07813 1.25-.44921 3.03516-.71875 1.875-.35938 2.14453-1.34765 2.23437-1.25391 2.5-1.25781 1.69531-.44922 1.78516-.17969 1.16016-.26953.625.53906 1.33984-.26953.71485-.98828.98437-1.34375.44531-.17969.80469-.35937 1.875-.53907 1.78516-.44921 1.25-.26954 1.16015-.08984 1.69922-.08984 1.96094-.26954 1.25-.08984h.53906l.625-.08984h.89063l2.14453-.17969 2.41015-.17969 2.58985-.08984 1.69531.17969 1.60938.08984 1.42968.35938 1.16016.71875 1.875.98828 1.16015 1.52734.26563.71484.6289.08985.35548.89844.53515.53906.53516 1.52734 1.07422.35938h.53515l-.80469.53515.08985 1.70703.71484 2.69532.89063.80468.89453.98829.71484 1.2578 1.78516.53907 1.51953-.17969.35547 1.34375 1.60937-.80469.98047-.53906.26953.26953.31641-.21484.21875-.14453.80078.44922.44922-.35938h.35547l.53515-.26953.53907-.71875.53515-.26953.625-.98828 1.16016.44922.83984.3711 1.39454.61718 1.6953-.17969h1.60548l1.78515.08985.17969-1.70704.53516-1.34375.80468.26954.4922.84765.40233.40625-.08984.53906v.35938l.71485.44922.71093-.26953h1.42969l.35938.98828.4453 1.25781.71485 1.34375 1.25.6289 1.69531.62891.71485-.17969.17969-.53906.98046-.08984.44922.35937.08594 1.25782-.26563.6289-.53515.17969v.53906l.71484.98438.26563.53906.98437.98828.80078 1.07813-.26562.35937-.08985.89844-.625 2.33203-.35546 2.0664-.08985 1.79298-.17969.71875-.08984.53906v1.4375l-.98047 1.88281-.35937 1.70703-.53516.89844-.80469 1.16797-.26562.53906 2.05469 1.2539.08593.35938-.35546.53906-.08985-.17968v.80859l.08985 1.4375-.44532.71484-1.07422.09375-.26562.71485.53515.89844.8047.71875 1.16015.80859 1.33984.26953.44531.35938-.35546.44921-1.78907-.08984-1.25-.44922-.71484-.71875-.625-.08984-.17578 3.58984-.1875 1.3086h89.35937V311.70313h-55.26953v49.08203l.76172.125 3.28906.54296 2.02344 2.83594v2.7539l2.35156.33204 2.34766.33203h4.05078l-1.3789 4.16016-2.02344.70703-2.02344.70312-.54297.34375-2.59375 1.6172-.1875.11718-2.02344-2.07813-.73046-2.74218-2.67188-2.07813-1.375-3.5-.0664-.08203-1.95704-2.67188 2.75-1.41796v-49.08204H294.42187v91.41407l.1172.03125.1328.01172.07422.07421.10547.04688.08985.0586.08593.05859.08985.0586.29687.29687.0586.08984.03125.11719.02734.11719.01563.13671-.03125.1172-.0586.08983-.0586.08594-.04296.10547-.04688.10156-.02734.1211v.14453l.17578.26953.14844.14844.07422.08594.07422.07421.04296.10547.0625.08985.0586.08593.04297.10547.0586.08985.04687.10156.04296.10547.0586.08594.11719.17968.07421.07422.0625.08594.0586.08984.04297.10547.0586.08985.05858.08593.0625.08985.0586.08984.04297.10156.11719.17969.07421.07422.0586.08594.07422.07421.08984.0586.10547.04687h.14844l.1328-.01562.13282.01562.10156-.04687.07422-.07422.04688-.10156-.01563-.13281v-.14844l-.04687-.10547-.02735-.11719-.04687-.10156-.02735-.1211-.04296-.10156-.0625-.08984-.04297-.10156-.04297-.10547-.03125-.11719-.01563-.13281-.01171-.13672.08593-.0586.0586-.08593.12109-.03125.04297.10547.01562.1328v.1172l.0586.10156.0586.08984.08983.0586.14844.14843.0586.08985.04296.10547-.01171.10156.08593.0586.10547.04687.08594.0586.08984.05858.07422.07422-.11719.02735-.10546.04687-.08594.0586-.07422.07421-.0586.08985-.0625.08594-.02734.12109-.04687.10156-.04297.10547-.03125.11719-.01172.13281-.01563.13281v.14844l.02735.11719.04687.10547.04297.10156.0586.08984.07421.07422.08985.0586.07422.07421.08984.0586.0586.08984.04296.10547.04688.10156.11719.03125.1328.01563h.14845l.11718-.03125.10547.04297.04297.10547.04688.10156.02734.1211L299.5 410l.02734.11719.03125.1211.02735.11718.10547.04297.10156.04687.13281-.01562.14844.14844.0625.08593.07422.07422.07031.07422.08984.0625.10547.04297.10156.04297.1172.03125.13671.01562.11719-.03125.07422-.07422.02734-.11718-.01172-.13282-.03125-.12109-.02734-.11719.04297-.10547h.11719l.08984.0625.11719.02735h.14843l.13282.01562h.14843l.13282.01563.1328-.01563h.14845l.1328-.01562.13282-.01172.13672.01172.11719-.02735.13281-.01562.1914-.0586-.05859.17579-.01562.1328-.02735.1211-.01562.13281-.0586.08594-.1328.01563-.10548.04687-.10546.04297-.1172.03125-.11718.02735-.26563.03125h-.14843l-.13281.01562-.07422.07422.05859.08594.14844.14843.11719.1797.07421.0703.08985.0625.08984.0586.08594.0586.08984.05858.10156.04297.10547.0625.10547.04297.08594.0586.10547.04687.10156.04297.17969.11719.0586.08984-.04298.10156-.04687.10547.01562.13281.22266.22266.0586.08985.04296.10156.03125.1211.04297.10155.01563.13282.03125.11718.01171.13672.03125.11719.14844.14844.10156.04297.10547.04296.1172.03125.1328.01563.13672.01563h.11719l.11719-.03125.08984-.0586.04297-.10547.04688-.10156.04296-.10547.03125-.11719.01172-.1328v-.14845l-.01172-.1328-.01562-.13282-.03125-.11719-.04297-.10547-.04688-.10547-.04296-.10156-.04297-.10547-.01563-.13281.01563-.13281.02734-.11719.03125-.11719.02735-.1211.04687-.10155.08984-.0586.08594-.0625.07422-.07422.08984-.05859.22266-.22266.0586-.08593.07421-.07422.11719-.17969.0586-.08594v-.14844l-.07423-.07421-.10156-.04688-.10547-.04297-.10156-.04297-.0586-.08984-.04687-.10547-.02734-.11719.08984-.05859.11719-.03125.10156-.04297.17969-.11719.14844-.14843.01172-.13282-.01172-.10546-.08985-.0586-.1328.01563h-.14845l-.1328.01562-.13282-.01562-.1211-.03125-.08593-.0586-.07422-.07422-.0586-.08984-.0625-.08594-.11718-.17969-.0586-.08593.03125-.1211.08594-.05859.1211-.03125.05859-.08594v-.1211l-.03125-.11718-.0586-.08984-.05859-.08594-.04687-.10547-.02735-.11719-.01562-.1328.0586-.08985.07421-.07422.08984-.0586.1172-.17968.07421-.07422.0586-.08594.14843-.14844.1211-.03125.1328-.01562.13282.01562.07422.07422.04297.10547.01562.13281-.03125.1172-.11719.03124-.1328.01172-.14844.14844-.04297.10547-.04688.10156-.02734.1211-.03125.11718v.14844l.03125.11719.04297.10546.05859.08985.07422.07031.07422.07422.11719.03125.12109.02734.11719-.02734.1328-.01563h.1172l.08984.0586.07422.07422.04687.10546.0586.08594.10156.04688.13281.01562.10547.04297.08594.0586-.01172.10546-.07422.07422-.17969.11719-.05859.08984-.08984.0586-.07032.07422-.07421.07421-.0625.08985-.02735.11719-.01562.1328.01562.13282-.01562.13281v.14844l.01562.13281.02735.1172.03125.12108.07421.07422.08985.0586.08594.0586.08984.05858.11719.03125v.08594l-.10157.04688-.08984.0586-.26563.03124-.11718.02735h-.14844l-.10547.04296-.10156.04688-.0586.08984-.0625.23438-.01171.13281-.03125.1211-.01563.1328v.29298l-.01172.1328.01172.13673.01563.1328.1328.01563.13282.01172.1211.03125.08593.0586.07422.07421.04688.10547.04296.10157.01563.1328v.44532l-.01563.13281v.44532l.03125.26562.02735.11719.01562.13281.03125.11719.08594.21094.03125.26562v.14844l-.03125.11719-.02734.11718-.03125.1211-.02735.11719-.03125.11718-.03125.1211-.01171.1328-.01563.13282.08984.0586.1172-.03125.10155.01562.04688.10547-.03125.26562v.44141l-.04297.10547-.04688.10547-.04296.10156-.04297.10547-.0586.08594-.03125.12109-.04296.11719-.03125.11719-.01563.1328.01563.13282.05859.08984.10547.04688.08594.0586.05859.08593-.01172.13672-.03125.11719-.04297.10156v.44531l-.01562.13281v.14844l-.03125.11719-.04297.10547-.02735.11719-.04687.10546-.04297.10157-.03125.12109-.02734.11719-.03125.13281-.03125.11719-.02735.11719-.04297.10546-.03125.1172-.03125.12108-.01171.13282-.01563.13281v.29688l.02734.11718v.14844l.04688.39844.02734.11719.0586.08984.12109.03125h.14844l.13281-.01563.0586.08985v.11719l-.0586.08984-.08984.0586-.10157.04296-.10546.04688-.08985.05859-.08594.0586-.13671.01562-.1172-.03125-.1328-.01563-.10157.04688-.0625.08594-.01172.13671-.01562.13282-.03125.11719-.02735.11718-.01562.13281-.03125.1211v.29687l.01563.13282.03125.11718v.14844l.01171.13281v.14844l-.02734.11719-.04688.10156-.02734.1211-.03125.11718-.0586.08985-.07421.07421-.10156.04297-.10547.04688-.11719.02734-.1211.03125-.10156-.04687.0586-.08594.10547-.04688.02734-.11718.03125-.11719.02734-.1211.03125-.11718v-.14844l.01563-.13281-.03125-.11719-.04297-.10547-.10547.01563-.07422.07422-.10156.04296-.08984.0625-.07422.07422-.04297.10157-.01563.1328-.03125.1172L304.25 426l-.03125.11719-.02734.11719-.03125.12109-.02735.11719-.03125.11718-.04297.10547-.08984.0586h-.08984l-.1172-.03125-.03124-.08594.01562-.13672-.03125-.11719v-.14844l-.01171-.1328v-.14844l-.0625-.23438-.02735-.1211-.04297-.10156-.04687-.10546-.0586-.08594-.05859-.08985-.04297-.10546-.0625-.08594-.14844-.14844-.0703-.07422-.10548-.04687-.10547-.04297-.10156-.04297-.29687-.29688-.08985-.07421-.08594-.0586-.10546-.04297-.08985-.0625-.08594-.0586-.10546-.04296-.08985-.0586-.08594-.0625-.07421-.0703-.10547-.04688-.08594-.0586-.10547-.04296-.08984-.0625-.10156-.04297-.10547-.04297-.08594-.0586-.10547-.04687-.10547-.04297-.10156-.04687-.08985-.0586-.10156-.04297-.10547-.04296-.08984-.0625-.11719-.02735-.13281-.01562-.13281.01562H299.75l-.13281.01563-.11719-.03125-.08984-.0586-.07422-.07422-.08985-.05859-.10156-.04688h-.14844l-.12109-.02734-.10156-.04297-.07422-.07422-.11719-.17968-.08984-.0586-.10156-.04297-.08985-.0625-.10547-.04296-.08984-.0586-.08594-.0586-.10547-.04687-.0586-.08594-.05858-.08984-.04297-.10547-.04688-.10156-.07422-.07422-.08594-.0586-.07421-.07421-.08985-.0586-.22265-.22265-.04297-.10547-.03125-.26563.10547-.04296h.14453l.10547.04296.07421.07422.08985.0586.08594.0586.10546.04687.08985.05859.14844.14844.0703.07422.14845.14843.0625.08594.07421.07422.08594.0586.07422.07421.08985.0625.08984.0586.08594.05859.26953.17578.10156.04688.10547.04296.10156.04297.04688-.07421.05859-.08594.07422-.07422.07031-.07422.10547.04297.07422.07422.0586.08984.04296.10156.04688.10547.04296.10547.1211.02735.11719-.02735.07421-.08984.04297-.10547.0586-.08985.07422-.07421.10546-.04297.1172-.02735.1328.01172.08985.0586.14844.14843.05859.08985.04297.10547.04687.10156.04297.10547.04297.10156.10547.04688.10547.04296.13281.01563.08594-.0586.0586-.08984.07421-.07422.10547-.04297.11719.02735.10547.04687.10156.04297.10547.04297.10156.04688.17969.11718v.11719l-.01563.13281.01563.13281.01562.13672.0586.08594.10156.04688.1211.02734.11718.03125h.14844l.11719-.03125.05859-.08984.17969-.1172.05859-.08983.07422-.07422.0586-.08594.11718-.17969.17969-.11719.11719.03125.08984.0586.04297.07422-.01563.1328v.1172l.08985.05859h.14843l.13282-.01563.1328-.01171.26563-.03125.10547-.04297.11719-.03125.1211-.02735.07421-.07421.07031-.07422.0625-.08985-.01562-.10547-.04688-.10156-.10156-.04297-.10547-.01562-.11718.02734-.26563.03125h-.14844l-.07421-.07422-.08985-.0586-.11719-.03124-.11718-.02735-.13282-.01562h-.14843l-.13282.01563h-.29687l-.10547-.04688-.14844-.14844-.04297-.10156-.05859-.08984.22266-.22266.08593-.0586.10547-.04296.11719-.03125.13281-.01563.13281.01563.13672.01562.10157.04297.1328-.01172.08985-.0625.10156-.04297.0625-.08984-.04687-.10156-.08984-.0586-.1172-.03125-.10155-.04296-.0586-.08985-.0625-.08984v-.11719l.01563-.13281.10547-.04688.07421-.07031v-.1211l-.08984-.05859-.03125-.11719.08985-.05859.07421-.07422.04297-.10547.0586-.08984.04687-.10156.01563-.13281v-.14844l-.04688-.10547-.04297-.10156-.08984-.0586-.13281-.01562-.10157-.04297-.13671-.01563-.1172-.03125h-.4453l-.13282-.01562-.13281-.01172-.13281-.01563-.11719-.03125h-.14844l-.13281-.01562-.13281-.01172-.26563-.03125-.1211-.04297-.08593-.0586-.07422-.07421v-.14844l.01172-.13281.10547-.04688.10156-.04296.13281-.01563h.15235l.13281-.01562h.29297l.1211.03125.10156.04296.08984.0586.23438.0625.12109-.04688.08984-.05859.10156-.04297.13282-.01562.10547.04296.10156.04688.13281.01172.1211-.02735h.14453l.12109-.03125.11719-.02734.10547-.04687.07421-.07422.08594-.0586.14844-.14843.0586-.08594.04687-.10547.02734-.11719.01563-.10547-.10156-.04296-.08985-.0586-.11719-.03125-.10546-.04297-.08985-.0625-.07422-.08594-.07422-.07421-.10156-.04297-.10547-.04688-.10156-.04297-.0586-.08984-.04687-.10156-.08594-.21094-.0625-.08594-.05859-.08984-.07422-.07422-.08594-.0586h-.26953l-.11719.03126-.08984.05859-.10156.04297-.13281.01562-.10547-.01562-.02735-.11719-.0625-.08984-.11718-.03125-.10157-.04297-.14843-.14844-.03125-.11719-.01563-.10546.07422-.07422.17969-.1172.11719-.02733.11718-.03125.13672.01562.10156.04297.10547.04297.10156.04687.10547.04297.1172.03125.1328.01563.1172.02734.1328.01563.10547-.01563.08985-.0586-.07422-.07421-.10547-.04297-.07422-.07422-.07422-.08984-.14844-.14844-.08593-.0586-.08985-.05859-.07422-.07422-.08984-.0586-.10156-.04687-.1211-.02734-.10156-.04688-.10547-.04296-.11719-.03125-.10156-.04297-.1211-.03125h-.14843l-.11719.03125-.10546.04297-.08594.0625-.17969.11718-.08594.0586-.08984.0586-.10547.04687-.08594.05859-.10547.04297-.10156.04297-.10547.04687-.07422.07422-.05859.08985-.0586.08593-.04687.10547-.0586.08594-.07421.07422-.13281-.01172-.1172-.03125h-.11718l-.07422.07422-.08984.0586-.07422.07421-.08984.0586-.08594.05859-.10547.04687-.10156.04297-.13672.01563-.10156-.04297-.14844-.14844-.10547-.04688h-.08594l-.10547.04688-.10156.04297-.1211.03125-.11718-.03125-.07422-.07422v-.11719l.03125-.1211.07422-.0703.0586-.08985.07421-.07422.11719-.03125.10547-.04296h.29297l.13281-.01563.13672-.01563.10156-.04296.08985-.0586.10156-.04687.08984-.0586.13281-.01171.08985.05859.13281.01172.08984-.0586.08594-.05859.10547-.04297.08984-.0586.08594-.0625.08985-.05859.14843-.14843.0586-.08594.05859-.08985.10547-.04296.13281-.01563.11719.02735.1211.03125.05859-.0586.05859-.08984.03125-.26563.02734-.11719.10547.01172.13281.01563.10157-.04297.08984-.0586.0586-.08984.07421-.07422.0586-.08984.04687-.10156.01172-.13281-.01172-.13282-.04687-.10547-.14844-.14843-.0586-.08985-.05859-.08594-.04297-.10546v-.44532l.01563-.1328v-.14845l.01172-.1328-.0586-.0586-.08984.0586-.10156-.04298-.17969-.11719-.08594-.05859-.0625-.08984-.0586-.08985-.07421-.07421-.08594-.0586-.1211.03125-.10155.01172-.10547.04688-.08594.05859-.10547.04297-.14844.14844-.08984.05859-.08594.0586-.08984.0625-.10547.04296-.13281.01563v-.1211l.10547-.04297.11718-.03125.07422-.0703.04297-.10548v-.14844l-.02734-.11718-.14844-.14844-.13281-.01563h-.14844l-.11719.03125-.10547.04297-.10156.04297-.08984.0625-.11719.02735-.07422-.07422.01172-.13281-.04297-.10157-.04297-.10547-.08984-.05859-.11719.02734-.1211.03125-.11718.03125-.10156.04297-.1211.03125-.10156.04297-.10547.04297-.08984.0586-.10156.01562v-.11719l.01562-.13281-.0586-.08985-.07421.04297-.14844.14844-.0586.08985-.07421.07421-.04688.10547-.04296.10156-.07422.07422-.0586.08985-.07422.07422-.05859.08593-.07422.07422-.08984.0625-.07422.07031-.07422.07422-.10156.01563-.13281.01562-.10547-.04296v-.1211l.14843-.14844.04297-.10156.0586-.08984.04687-.10156.04297-.10547.0586-.08985.03124-.11719.04297-.10156.03125-.1211.02735-.11718.04687-.10547.04297-.10156.04297-.10547.07422-.07031.08984-.0625.08985-.0586.10156-.04296h.29687l.26563-.03125.10547-.04297-.07422-.07422-.11719-.03125-.10547-.04297-.08984-.0586-.10156-.04687-.08985-.0586-.10156-.04296-.10547-.04297-.08984-.0625-.08594-.0586-.10547-.04296-.10156-.04297-.1211-.03125-.11718-.03125-.10157-.04297L297.5 410.25l-.10156-.04297-.08985-.0586-.04296-.10546-.01563-.13281.10156-.04297.13281-.01563.13672.01563.13282-.01563.10156-.04297.0586-.08984.01562-.10547-.08985-.0586-.07421-.07421-.10157-.04297-.08984-.0586-.14844-.14843-.04297-.10547-.01562-.13281v-.29297l-.0586-.08985-.08984-.05859-.07422-.07422-.04297-.10547-.03125-.11718-.0586-.08985-.07421-.07422-.11719-.02734-.07422-.07422-.08984-.0586-.08984-.0625-.08594-.05859-.07422-.07421-.0586-.08594-.04687-.10547-.08594-.0586-.14843-.14843-.19532-.0586-.1328.01563-.10157.04297-.07422.07422-.04688.10156-.04296.10547-.0586.08984-.0586.08594-.29687.29687-.08984.0586h-.08594l-.0625-.08594-.04297-.10547.03125-.11719.0586-.08984.02734-.11719-.01172-.13281-.08984-.0625-.10547.04688-.11719.02734-.11719.03125-.26953.17578-.10156.04688-.11719.02734-.10546.04687-.08985.0586-.10156.04297-.0586-.08594-.04687-.10547.01563-.13281.04687-.10547.07031-.07422.07422-.07031.0586-.08985v-.14843l-.04297-.10547h-.23829l-.10156.04687-.03125.11719-.02734.11719-.03125.1211-.07422.04296-.13281.01563-.07422-.04688-.04297-.10156-.04297-.10547-.04687-.10156-.04297-.10547-.1211.03125-.10156.04297-.13281.01562-.11719.03125-.10547.04297-.08984.0586-.10156.04687-.1211.02734-.13281.01563-.10156-.04297-.0586-.08985-.04687-.10546-.04297-.10157-.04297-.10546v-.1172l.0586-.08984.08593-.05859.17969-.11719.10156-.04687.10547-.04297.10547-.0586.10156-.04296.08985-.0625.10156-.04297.10547-.0586.10156-.04687.08984-.0586.10547-.04296.10156-.04297.08985-.0625.10156-.04297.13672-.01563.11719.03125.10156.04297.1211.03125.10156.04297.10546.04688.10157.04296.10547.04297.10156.04688.10547.04297.10156.04297.10547.04687.08594.0586.10546.04296.1172.03125.10546.04297.10156.04688.08985.0586.10547.04296.10156.04297.10547.04687.11719.02735.10156.04687.1211.02735h.14843l.08594-.0586.01562-.10156.0586-.08984-.02735-.1172-.07422-.07421-.11719-.17969-.07421-.07422-.08985-.07421-.17969-.1172-.08593-.05859-.10547-.04296-.10156-.04688-.26954-.17578-.05859-.08985-.07422-.07421-.0586-.08985-.04296-.10156-.03125-.11719-.01563-.13672v-.5625l-.01171-.1328-.01563-.13282-.03125-.11719-.01562-.13281-.01172-.13281-.03125-.1211-.22266-.22265-.0586-.08594-.01562-.10547.03125-.11719.13281-.01562v-91.41406H172.9922v1.45312l-.0586.23438-.35156 1.05078-.17187.52343-.1172.34766-.17577.41016-.11719.17187-.23438.29297-.23046.0586h-.35157l-.11718.05859-.23047.40625v.29297l.11719.17578.23046.23047.1172.23437.64062.75781.29297.46485.17578.23437.23047.35156.23437.34766.64063.8164.17578.46485.17187.41016.11719.69531.17578.46875.11719 1.39844.0586.46484v.875l.11718 1.04688v4.78125l-.0586.46484-.35156 1.28125-.17578.52344-.11328.41015-.35156.9297L172.93359 336l-.23437.58203-.11719.17578-.17187.34766-.17578.40625-.35157.8164-.0586.29297-.11327.29297-.11719.28906-.0586.17579-.11718.875-.0586.40625-.05859.11718-.0586.17579-.05859.17187-.23047.52734-.11718.17188v.23437l-.11719.23438-.0586.17187-.17577.58594v.28906l-.0586.17579v.29296l-.0586.11329-.05859.52734v.17187l-.05468.23438v2.6211l-.17578.8164-.1172.17578-.17577.23438-.1172.17187-.11327.23438-.58594.93359-.23047.28906-.29297.46485-.17578.23437-.28906.35156-.35156.69922-.11328.23047-.17579.41016-.17578.23046-.40625.52735-.8164.69922-.29297.17187-.28906.23438-.17579.11719-.17578.17578-.52344.40625-.52734.17578-.17187.17578-.23438.05469-.64062.17578h-.75782m12.21094 31.02344l-1.07422.44921.35938.89454 1.25-.71485.44531-.53906-.98047-.08985"/><path fill="#d3d3d3" fill-opacity="0" fill-rule="evenodd" d="M201.50781 416.59766h-.89453l.44922.6289.98047.35938.80469-.08985.4453-.98828-.17577.08985-.71485-.35547-.89453.35547m154.6211 59.0703l-.0586-.52343v-.29297l.11328-.29297.0586-.23046.46875-.46875h.11328l.11719-.11329.11718-.05859h.17579l.23437-.0586h.34766l.23437.0586.11719.0586.23047.17187.0586.17578.11718.58203v.29297l-.11719.17578-.17187.28906-.17579.17579-.52734.52343-.23047.23438-.11719.0586h-.17578l-.11718-.0586-.40625-.29297-.17579-.11719-.11718-.0586-.0586-.11327-.05468-.1172m6.64062-10.95702l-.0586-.17188v-1.10937l.0586-.17188.17578-.0586.17188-.05858h.17578l.23437-.0586.1172.0586.05858.69921-.05859.17188-.11719.17578-.11718.0586-.23438.52343-.11328.0586h-.23438l-.05859-.1172m9.61328-14.39062l-.11719-.17578v-.69922l.29297-.875.1172-.17187.17577-.35156.11328-.23047.1172-.29297.35155-.75781.1172-.23047.17187-.23438h.17578l.11719-.0586h.64062l.11719.0586.23437.23438.17188.11328.35156.29297.11719.11718.11328.17579v.11328l.11719.05859.11718.11719v.69922l-.05859.17578v.23047l-.0586.17578-.34765 1.05078-.11719.23047-.11719.23437-.11718.0586-.23047.23437-.64063.28906h-.875l-.41015-.11718-.64063-.46485"/><path fill="none" stroke="#bebebe" stroke-linecap="round" stroke-linejoin="round" stroke-miterlimit="10" stroke-width=".5" d="M467.95703 311.69531H144.02734v168.625h323.9297v-168.625"/><g clip-path="url(#a)"><path fill="#fff" fill-opacity="0" fill-rule="evenodd" d="M144 475.89063v4.4375h.0039H144V311.67188h.0039H144v164.21875"/></g><g clip-path="url(#b)"><path fill="#fff" fill-opacity="0" fill-rule="evenodd" d="M144.0039 480.32813V311.67188h31.0625v120.41015l-4.4375 3.34375-.47656.51953-3.96093 1.95313-2.29688 2.48437-2.14062 2.75781-1.65235 1.6797-1.27344 4.4414-.88671 4.4375 1.18359 4.4375-.46484 4.4375 3.09375 3.01953 4.4375-.41016 4.4375-.55468 4.4375.17578 4.4414-.01953 4.4375.07812 4.4375-.17578 2.57422-2.11328-2.57422-4.4336-.01172-.0039-4.42578-2.45703-2.65234 2.45703-1.78516.8086-1.34765-.8086.41015-4.4375.15235-4.4375.78515-1.82422 2.05078-2.61719 2.38672-1.5625 3.79688-2.875-.35938-4.4375-3.4375-2.67187-4.4375 1.08984-4.4414-2.28125V311.67188h26.6328v90.9414l-2.23046 2.26172 2.23047 3.01172 4.4375-1.40235 1.65625-1.60937-1.65625-2.0586-4.4375-.20312v-90.9414h13.3164v97.89062l-4.4414.82813-3.39844 3.36328 2.0586 4.4375 1.33984 1.23437 3.39453-1.23437 1.04688-.05079 4.10156-4.38671-4.10156-4.19141v-97.89063h22.1914v90.17188l-3.03125 3.03125.17969 4.4414 2.85156 3.83594 4.4375-2.24218 3.94922 2.84375-3.94922.91796-4.4375-.46484-4.4414 3.0664-1.6211.91798-2.8164.4414-4.39844 3.9961.58984 4.4414-.6289 1.4414-2.46094 2.9961-1.57813 4.4375-.39844.19922-.76953-.19922-3.66797-.97265-4.4414.23046-1.53906.7422-2.89844 1.2578-4.4375.79297-4.4375 1.4336-1.0039.95312 1.0039 3.96094.08984.47656 4.34766 4.3789 4.4375-.1953.39062.2578 2.04688 4.4375-2.4375 1.51173-2.84766 2.92578-.83594 4.4375 2.14844 4.4414 1.53516.53907 2.22656-.53906 2.21094-.57813 4.4414-2.28516 2.36329-1.57812 2.07422-1.1914 3.8828-3.2461.5547-1.28906 2.84765 1.28906 1.58984.30078.56641-.30078-.5664-.67969-2.47266-3.75781-1.96484-2.08594-.65625-2.35156.65625-1.26953 2.85937-3.17188 1.04297-4.4375.53516-.29297 2.91406-4.14453-2.91406-3.01172-1.98438-1.42578 1.98438-.96484 4.4375-.04297 2.59765 1.00781 1.84375 1.7461 4.4375 1.89843 4.4375-1.33593 2.39063-2.3086 2.04687-3.23828 4.4375.17969 4.4414.66797 3.35157 2.39062 1.08594 1.48438.77734 2.95312.88281 4.4375 2.77735 3.1289 4.4375.91407L276 440.38281l1.15234-.59375 4.4375-1.39453 2.58985-2.44922 1.84765-.34375 4.05079-4.09375.38671-4.40625.03516-.03125 1.32813-4.4414-1.36329-1.33594-4.4375-1.75-4.4375-.73438-4.4375-.17187-4.4414-.0039-4.4375.10546-4.02735 3.89063-.41015.48046-4.4375 1.88672-4.4414-.77343-.98048-1.59375.98047-3.51172 4.4414 1.89062 2.875-2.8164 1.23048-4.4375.33203-4.17579.13281-.26171-.13281-.22657-2.41406-4.21484-2.02344-1.50781-4.4414.83984-.67188.66797-3.76563 3.22266-1.21094 1.21875-3.22656 3.92578-2.79687-3.92578-1.5-4.44141-.14063-.14063-4.4375-2.89062v-90.17188h13.3125v39.66797l-.1836.27735.1836.36719.25781-.3672-.2578-.27734v-39.66796h62.13671v139.3828l-4.4375.0547-3.27344 2.58984-1.16406 1.07812-4.4375 1.79297-2.08594 1.5664 2.08594 1.32813 4.4375 2.38282 4.4375.41796 4.4375-.25 4.4414-1.02734 3.76173-2.85156-.81641-4.4375-2.94531-2.02344-4.44141-.6211v-139.3828h22.1914v136.08984l-2.9414 1.5-1.4961.48047-4.4375 2.30469-1.0664 1.65234-.82422 4.4375 1.89063.82812 4.4375 1.76172 3.58593-2.58984.85157-1.09766 4.4414-2.72656.79688-.61328.17187-4.4375-.96875-.32031-4.4414-1.1797V311.67189H463.5625v140.72265l-1 1.30469-3.4375 1.76562-4.4414.54297-2.39844 2.1289-2.03907 1.94923-3.26562 2.48828 3.26562 3.4336 4.4375.35937 4.44141-.89844v6.71484l-3.0625 3.70704 3.0625 2.4453 2.9336-2.4453-2.9336-3.70704v-6.71484l2.69922-2.89453-.01953-4.4375 1.75781-3.4336 1.1211-1.0039-1.1211-1.30469V311.67188h4.4336v168.65625H144.0039"/></g><path fill="#50fcfc" fill-rule="evenodd" d="M159.125 458.13672l-1.1836-4.4375.88673-4.4375 1.27343-4.4414 1.65235-1.6797 2.14062-2.7578 2.29688-2.48438 3.96093-1.95313.47657-.51953 4.4375-3.34375v6.15235l-4.4375.01953-3.14063 2.1289-1.29687.83594-3.14063 3.60156-1.29687 3.73047-.31641.71094-1.94922 4.4375 2.26563 3.96484 2.85547.47266-2.85547 1.32422-.89844 3.11328.89844.8789 3.95703-.8789.48047-1.50781 1.44922-2.9297 2.98828-1.35937 1.76953-3.07812 2.4961-4.4375.17187-.07031 3.21875-4.3711 1.22265-3.16406 1.9375-1.27344-1.9375-1.29297-4.4414-.85546v-6.15235l4.4414 2.28125 4.4375-1.08984 3.4375 2.67187.35938 4.4375-3.79688 2.875-2.38672 1.5625-2.05078 2.61719-.78515 1.82422-.15235 4.4375-.41015 4.4375 1.34765.8086 1.78516-.8086 2.65234-2.45703 4.42578 2.45703.01172.0039 2.57422 4.4336-2.57422 2.11328-4.4375.17578-4.4375-.07812-4.4414.01953-4.4375-.17578-4.4375.55468-4.4375.41016-3.09375-3.01953.46484-4.4375"/><path fill="#00e8fc" fill-rule="evenodd" d="M161.7539 457.66406l-2.26562-3.96484 1.94922-4.4375.3164-.71094 1.29688-3.73047 3.14063-3.60156 1.29687-.83594 3.14063-2.1289v5.33984l-3.125 1.22656-1.3125 1.16406-.83985 3.27735.83985 3.08203 1.23437-3.08203 3.20313-3.35156 4.4375-.65625.3203-.4336-.3203-.60937-4.4375-.61719v-5.33984l4.4375-.01954 4.4414.85547 1.9375 1.29297-1.9375 1.27344-1.22265 3.16406-3.21875 4.3711-.17188.0703-2.4961 4.4375-1.76952 3.07813-2.98828 1.35938-1.44922 2.92969-.48047 1.5078-3.95703.87892-.89844-.87891.89844-3.11328 2.85547-1.32422-2.85547-.47266"/><path fill="#00d4fc" fill-rule="evenodd" d="M166.1914 452.34375l-.83984-3.08203.83985-3.27735 1.3125-1.16406 3.125-1.22656 4.4375.61719.3203.60937-.3203.4336-4.4375.65625-3.20313 3.35156-1.23437 3.08203"/><path fill="#50fcfc" fill-rule="evenodd" d="M197.26172 444.34375l-1.0039-3.96094 1.0039-.95312 4.4375-1.4336 4.4375-.79296 2.89844-1.25782 1.53906-.74219v4.29297l-1.51563.88672-2.41406 4.4375 3.92969 2.79297 1.54687 1.64844 2.13672 4.4375-3.6836 3.73828-.89452.69922.89453 1.20703 4.4414-.55078.98438-.65625.75-4.4375 2.70313-2.54688.625-1.89062-.625-1.21485-3.22266-3.22656-1.21484-1.3789-2.96875-3.0586-1.47266-.88672v-4.29296l4.4414-.23047 3.66797.97265.76953.19922.39844-.19922 1.57813-4.4375 2.46094-2.9961.6289-1.4414-.58984-4.4414 4.39844-3.9961 2.8164-.4414 1.6211-.91797 4.4414-3.0664 4.4375.46483 3.94922-.91796-3.94922-2.84375-4.4375 2.24218-2.85156-3.83593-.17969-4.44141 3.03125-3.03125v2.11328l-.91797.91797.6914 4.4414.22657.30079.52734-.30078.83594-4.44141-1.36328-.91797v-2.11328l4.4375 2.89063.14063.14062 1.5 4.4414 2.79687 3.92579v2.05078l-4.4375.76562-4.4375.82032-1.64062 1.3125-2.80078 1.73046-4.4375.29297-2.66016 2.41407.65234 4.4414 2.00781 1.83203 4.4375-.1289 4.44141 2.09375.98047.64062 3.45703 2.45703 3.91797-2.45703.51953-.28906 3.71875-4.14844.30078-4.4414-1.60156-4.4375-2.41797-2.89844v-2.05078l3.22656-3.92578 1.21094-1.21875v7.78515l-.61719 2.3086.6172 1.90234 4.03515-1.90234-4.03516-2.3086v-7.78515l3.76563-3.22266.67187-.66797 4.4414-.83984v2.42969l-4.4414 1.35937-2.32812 2.16016-1.19532 4.4375 3.52344 3.125 3.91406 1.3125.52735.3203.32812-.3203 2.7539-4.4375.13673-4.4375-3.21875-3.51954v-2.42968l2.02344 1.50781 2.41406 4.21484.13281.22657-.13281.26171-.33203 4.17579-1.23047 4.4375-2.875 2.8164-4.4414-1.89062-.98048 3.51172.98047 1.59375 4.4414.77343 4.4375-1.88671.41016-.48047 4.02735-3.89063v.82422l-3.17578 3.0664-1.26172 1.47657-3.8789 2.96484 3.8789 3.50781.58203.9297 2.01172 4.4375 1.58594 4.4375.2578.29296 4.4375 1.03125 1.07813-1.32422 3.36328-1.73437 4.08594-2.70313.35156-.10937 4.4375-.83594 3.45704-3.49219.80468-4.4375-2.46094-4.4414-1.80078-1.00782-4.4375-1.71875-4.4375.23829-4.4414-.31641-4.4375-.26172v-.82422l4.4375-.10547 4.4414.0039 4.4375.17188 4.4375.73438 4.4375 1.75 1.36329 1.33594-1.32813 4.4414-.03516.03125-.38671 4.40625-4.05079 4.09375-1.84765.34375-2.58985 2.44922-4.4375 1.39453-1.15234.59375-3.28906 4.04297-4.4375-.91406-2.77735-3.1289-.8828-4.4375-.77735-2.95313-1.08594-1.48438-3.35156-2.39062-4.4414-.66797-4.4375-.17969-2.04688 3.23828-2.39063 2.3086-4.4375 1.33593-4.4375-1.89843-1.84375-1.7461-2.59766-1.00781-4.4375.04297-1.98437.96484 1.98438 1.42578v2.4336l-1.1172.57812 1.1172.79297.55859-.79297-.5586-.57812v-2.4336l2.91407 3.01172-2.91406 4.14453-.53516.29297-1.04297 4.4375-2.85938 3.17188-.65625 1.26953.65625 2.35156 1.96485 2.08594 2.47266 3.75781.5664.67969-.5664.30078-1.58985-.30078-2.84766-1.28906-.55468 1.28906-3.88281 3.2461-2.07422 1.1914-2.36328 1.57812-4.44141 2.28516-2.21094.57813-2.22656.53906-1.53516-.53906-2.14844-4.44141.83594-4.4375 2.84766-2.92578 2.4375-1.51172-2.04688-4.4375-.39062-.25781-4.4375.1953-4.34766-4.3789-.08984-.47656m4.4375-36.45703l-2.23047-3.01172 2.23047-2.26172 4.4375.20313 1.65625 2.05859-1.65625 1.60938-4.4375 1.40234"/><path fill="#00e8fc" fill-rule="evenodd" d="M210.57422 447.61328l-3.92969-2.79297 2.41406-4.4375 1.51563-.88672 1.47266.88672 2.96875 3.0586 1.21484 1.3789 3.22266 3.22656.625 1.21485-.625 1.89062-2.70313 2.54688-.75 4.4375-.98438.65625-4.4414.55078-.89453-1.20703.89453-.69922 3.6836-3.73828-2.13673-4.4375-1.54687-1.64844"/><path fill="#50fcfc" fill-rule="evenodd" d="M209.23438 418.1914l-2.0586-4.4375 3.39844-3.36327 4.4414-.82813v.65625l-4.4414 1.8711-1.67969 1.66406 1.67969 2.5 4.4414 1.19921 3.45704-3.69921-3.45703-3.53516v-.65625l4.10156 4.1914-4.10156 4.38673-1.04688.05078-3.39453 1.23437-1.33984-1.23437"/><path fill="#00e8fc" fill-rule="evenodd" d="M210.57422 416.2539l-1.67969-2.5 1.67969-1.66406 4.4414-1.87109v1.09766l-3.74609 2.4375 3.7461 2.55078 2.3828-2.55078-2.3828-2.4375v-1.09766l3.45703 3.53516-3.45703 3.69921-4.44141-1.19921"/><path fill="#00d4fc" fill-rule="evenodd" d="M215.01563 416.30469l-3.7461-2.55078 3.7461-2.4375v1.09375l-2.0625 1.34375 2.0625 1.40234 1.3125-1.40234-1.3125-1.34375v-1.09375l2.3828 2.4375-2.3828 2.55078"/><path fill="#00c4fc" fill-rule="evenodd" d="M215.01563 415.15625l-2.0625-1.40234 2.0625-1.34375v1.09765l-.37891.2461.3789.2578.23829-.2578-.23828-.2461v-1.09765l1.3125 1.34375-1.3125 1.40234"/><path fill="#00b8fc" fill-rule="evenodd" d="M215.01563 414.01172l-.37891-.25781.3789-.2461.23829.2461-.23828.2578"/><path fill="#00e8fc" fill-rule="evenodd" d="M226.32031 427.07031l-.65234-4.4414 2.66016-2.41407 4.4375-.29296 2.80078-1.73047 1.64062-1.3125 4.4375-.82032 4.4375-.76562v2.79297l-1.45703.10547-2.98047.22265-4.4375.86719-4.04297 3.34766.8125 4.4414 3.23047 1.98047 3.76172 2.45703.67578.47656.76172-.47656 3.67578-2.03125 2.16016-2.40625.15625-4.4414-2.22656-4.4375-.08985-.10547v-2.79297L248.5 418.1914l1.60156 4.4375-.30078 4.4414-3.71875 4.14844-.51953.28906-3.91797 2.45703-3.45703-2.45703-.98047-.64062-4.4414-2.09375-4.4375.1289-2.00782-1.83203m2.00781 9.66797l-1.11718-.79297 1.11719-.57812.55859.57812-.5586.79297"/><path fill="#00d4fc" fill-rule="evenodd" d="M233.97656 427.07031l-.8125-4.4414 4.04297-3.34766v1.54688l-2.17578 1.80078 1.90625 4.4414.26953.16016 4.4375 3.59375 4.4375-3.08594.59766-.66797.01953-4.4414-.61719-1.21094-4.4375-.09766-4.4375-.49219v-1.54687l4.4375-.86719 2.98047-.22265 1.45703-.10547.08984.10547 2.22657 4.4375-.15625 4.4414-2.16016 2.40625-3.67578 2.03125-.76172.47656-.67578-.47656-3.76172-2.45703-3.23047-1.98047"/><path fill="#00c4fc" fill-rule="evenodd" d="M236.9375 427.07031l-1.90625-4.4414 2.17578-1.80079v1.54688l-.3086.2539.3086.6836.99219 3.75781 3.44531 2.85156 3.71484-2.85156-3.71484-3.78515-3.41016-.65625-1.02734-.25391v-1.54688l4.4375.4922 4.4375.09765.61719 1.21094-.01953 4.4414-.59766.66797-4.4375 3.08594-4.4375-3.59375-.26953-.16016"/><path fill="#00e8fc" fill-rule="evenodd" d="M236.98047 409.3164l-.6914-4.4414.91796-.91797 1.36328.91797-.83594 4.4414-.52734.30079-.22656-.30078"/><path fill="#00b8fc" fill-rule="evenodd" d="M237.20703 423.3125l-.3086-.6836.3086-.2539 1.02734.2539 3.41016.65626v1.19921l-2.35547 2.58594 2.35547 1.94922 2.53906-1.94922-2.53906-2.58594v-1.19921l3.71484 3.78515-3.71484 2.85156-3.44531-2.85156-.99219-3.75781"/><path fill="#00a8fc" fill-rule="evenodd" d="M241.64453 429.01953l-2.35547-1.94922 2.35547-2.58594v1.19532l-1.26562 1.39062 1.26562 1.04688 1.36328-1.04688-1.36328-1.39062v-1.19531l2.53906 2.58593-2.53906 1.94922"/><path fill="#009800" fill-rule="evenodd" d="M241.64453 428.11719l-1.26562-1.04688 1.26562-1.39062v1.19531l-.17578.19531.17578.14453.1875-.14453-.1875-.19531v-1.19531l1.36328 1.39062-1.36328 1.04688"/><path fill="#00ac00" fill-rule="evenodd" d="M241.64453 427.21484l-.17578-.14453.17578-.19531.1875.19531-.1875.14453"/><path fill="#fff" fill-opacity="0" fill-rule="evenodd" d="M250.51953 415.88281l-.61719 2.3086.6172 1.90234 4.03515-1.90234-4.03516-2.3086"/><path fill="#50fcfc" fill-rule="evenodd" d="M250.51953 351.98438l-.1836-.3672.1836-.27734.25781.27735-.2578.36719"/><path fill="#00e8fc" fill-rule="evenodd" d="M254.95703 416.8789l-3.52344-3.125 1.19532-4.4375 2.32812-2.16015 4.4414-1.35938v2.26172l-2.35156 1.25782-2.08984 2.54687-.94531 1.89063.94531.83984 4.4414 1.22656 1.3711-2.0664-.21875-4.4375-1.15234-1.25782v-2.26171l3.21875 3.51953-.13672 4.4375-2.7539 4.4375-.32813.3203-.52735-.3203-3.91406-1.3125"/><path fill="#00d4fc" fill-rule="evenodd" d="M254.95703 414.59375l-.94531-.83984.94531-1.89063 2.08984-2.54687 2.35157-1.25782 1.15234 1.25782.21875 4.4375-1.3711 2.0664-4.4414-1.22656"/><path fill="#00e8fc" fill-rule="evenodd" d="M263.83594 430.57813l-3.8789-3.50782 3.8789-2.96484 1.26172-1.47656 3.17578-3.06641v1.375l-1.7539 1.6914-2.6836 3.13673-1.70313 1.30468 1.70313 1.54297 1.82031 2.89453 2.61719 3.7461.60547.6914 3.83203 3.45313 4.4414-2.65235 1.21094-.80078 3.22656-.99219 4.4375-.95312 2.46485-2.49219 1.5-4.4375-3.96485-4.21875-2.61328-.22265-1.82422-.90235-4.3828.90235-.0547.0078-.0703-.0078-4.3711-.81641-4.4375-.875v-1.375l4.4375.26172 4.4414.3164 4.4375-.23828 4.4375 1.71875 1.80079 1.00782 2.46093 4.4414-.80469 4.4375L286.02735 435l-4.4375.83594-.35156.10937-4.08594 2.70313-3.36328 1.73437-1.07812 1.32422-4.4375-1.03125-.25781-.29297-1.58594-4.4375-2.01172-4.4375-.58203-.92969"/><path fill="#00d4fc" fill-rule="evenodd" d="M263.83594 428.61328l-1.70313-1.54297 1.70313-1.30469 2.6836-3.13671 1.7539-1.69141v1.375l-.32813.3164-3.77734 4.44141 2.72265 4.4375 1.38282 1.97656 2.15234 2.46094 2.28516 2.0625 3.1914-2.0625 1.25-2.55469 4.4375.6797 4.4375-1.07423 1.47266-1.48828 2.19531-4.4375-3.66797-3.90234-4.4375-.07031-4.4375.42578-4.4414-.16797-3.17969-.72656-1.25781-.31641v-1.375l4.4375.875 4.3711.8164.0703.00782.0547-.00781 4.3828-.90235 1.82422.90235 2.61328.22265 3.96485 4.21875-1.5 4.4375L286.02734 434l-4.4375.95313-3.22656.99218-1.21094.80078-4.4414 2.65235-3.83203-3.45313-.60547-.6914-2.61719-3.7461-1.82031-2.89453"/><path fill="#00c4fc" fill-rule="evenodd" d="M266.89063 431.50781l-2.72266-4.4375 3.77734-4.4414.32813-.31641 1.25781.3164 3.17969.72657 4.4414.16797 4.4375-.42578 4.4375.0703v.31642l-4.4375.54296-4.4375.38282-4.4414.17968-4.4375-.55468-2.5625 3.03515 2.41797 4.4375.14453.21094 3.69531 4.22656.74219.66797 1.03515-.66797-1.03515-3.59375-2.16016-.84375 2.16016-.23828 4.4414-.47656 1.02735.71484 3.41015 1.67578 4.4375-1.1914.48047-.48438 2.89453-4.4375-3.375-3.58594v-.3164l3.66797 3.90234-2.19531 4.4375-1.47266 1.48828-4.4375 1.07422-4.4375-.67969-1.25 2.5547-3.1914 2.0625-2.28516-2.0625-2.15234-2.46094-1.38281-1.97657"/><path fill="#00b8fc" fill-rule="evenodd" d="M268.1289 431.50781l-2.41796-4.4375 2.5625-3.03515 4.4375.55468 4.4414-.17968 4.4375-.38282 4.4375-.54296v.3125l-4.4375 1.16015-4.4375.33985-4.4414.52734-4.4375.03906-1.01953 1.20703 1.01953 1.89844 4.4375.21094 4.4414.3711 2.82422 1.95702 1.61328.79297 2.81641-.79297 1.6211-.21094 3.07812-4.22656-3.07813-3.27344v-.3125l3.375 3.58594-2.89453 4.4375-.48047.48438-4.4375 1.1914-3.41015-1.67578-1.02735-.71484-4.4414.47656-2.16016.23828 2.16016.84375 1.03515 3.59375-1.03515.66797-.74219-.66797-3.69531-4.22656-.14453-.21094"/><path fill="#00a8fc" fill-rule="evenodd" d="M268.27344 428.96875l-1.01953-1.89844 1.01953-1.20703 4.4375-.03906 4.4414-.52735 4.4375-.33984 4.4375-1.16015v.3164l-4.4375 1.76953-4.4375.30078-4.4414.875-.11719.01172.11719.01563 4.4414 1.22265 4.4375 2.8711 4.4375-.28906 2.78125-3.82032-2.78125-2.95703v-.3164l3.07813 3.27343-3.07813 4.22656-1.62109.21094-2.8164.79297-1.61329-.79297-2.82422-1.95703-4.4414-.3711-4.4375-.21093"/><path fill="#009800" fill-rule="evenodd" d="M272.71094 427.08594l-.11719-.01563.11719-.01172 4.4414-.875 4.4375-.30078 4.4375-1.76953v.3125l-4.4375 2.38672-4.39843.25781 4.39843.88672 4.4375 2.52735 2.48438-3.41407-2.48438-2.64453v-.3125l2.78125 2.95703-2.78125 3.82031-4.4375.28907-4.4375-2.8711-4.4414-1.22265"/><path fill="#00ac00" fill-rule="evenodd" d="M281.58984 427.95703l-4.39843-.88672 4.39843-.25781 4.4375-2.38672v.3164l-4.04296 2.32813 4.04296 3.00781 2.1875-3.0078-2.1875-2.32813v-.3164l2.48438 2.64452-2.48438 3.41406-4.4375-2.52734"/><path fill="#00c800" fill-rule="evenodd" d="M286.02734 430.07813l-4.04296-3.00782 4.04296-2.32812v.6289l-2.94921 1.69922 2.94921 2.1914 1.59766-2.1914-1.59766-1.69922v-.6289l2.1875 2.32812-2.1875 3.00781"/><path fill="#10cc00" fill-rule="evenodd" d="M286.02734 429.26172l-2.94921-2.1914 2.94921-1.69923V426l-1.85546 1.07031 1.85546 1.3789 1.00391-1.3789L286.02735 426v-.6289l1.59765 1.69921-1.59766 2.1914"/><path fill="#24d000" fill-rule="evenodd" d="M286.02734 428.44922l-1.85546-1.3789L286.02733 426v.6289l-.76171.44141.76171.5664.41407-.5664-.41407-.4414V426l1.00391 1.07031-1.0039 1.3789"/><path fill="#3cd800" fill-rule="evenodd" d="M286.02734 427.63672l-.76171-.5664.76171-.44141.41407.4414-.41407.5664"/><path fill="#50fcfc" fill-rule="evenodd" d="M299.34375 459.46484l-2.08594-1.32812 2.08594-1.5664 4.4375-1.79298 1.16406-1.07812 3.27344-2.58985v3.29688l-4.01563 3.73047 4.01563 2.11328 4.4375.0625 4.4414-1.83594.44923-.33984-.44922-.8125-4.44141-2.91406-4.4375-.00391v-3.29688l4.4375-.05468 4.4414.6211 2.94532 2.02343.8164 4.4375-3.76171 2.85156-4.44141 1.02735-4.4375.25-4.4375-.41797-4.4375-2.38282"/><path fill="#00e8fc" fill-rule="evenodd" d="M308.21875 460.25l-4.01563-2.11328 4.01563-3.73047 4.4375.0039 4.4414 2.91407.44923.8125-.44922.33984-4.44141 1.83594-4.4375-.0625"/><path fill="#50fcfc" fill-rule="evenodd" d="M325.97266 458.96484l-1.89063-.82812.82422-4.4375 1.0664-1.65235 4.4375-2.30468 1.4961-.48047 2.9414-1.5 4.44141 1.17969.96875.3203-.17187 4.4375-.79688.61329-4.4414 2.72656-.85157 1.09766-3.58593 2.58984-4.4375-1.76172m124.27343 7.04297l-3.26562-3.4336 3.26562-2.48827 2.03907-1.94922 2.39843-2.1289 4.44141-.54298v2.65625l-.0664.01563-4.375.77344-3.75391 3.66406 3.7539 2.46094 4.41797-2.46094.02344-2.8086.01172-1.6289-.01172-.01563v-2.65625l3.4375-1.76562 1-1.30469 1.1211 1.30469-1.1211 1.0039-1.75781 3.4336.01953 4.4375-2.69922 2.89453-4.4414.89844-4.4375-.35938"/><path fill="#00e8fc" fill-rule="evenodd" d="M454.6836 465.03516l-3.75391-2.46094 3.7539-3.66406v3.3125l-.35937.35156.35937.23437.42579-.23437-.42579-.35156v-3.3125l4.375-.77344.06641-.01563.01172.01563-.01172 1.6289-.02344 2.8086-4.41797 2.46094"/><path fill="#00d4fc" fill-rule="evenodd" d="M454.6836 462.8086l-.35938-.23438.35937-.35156.42579.35156-.42579.23437"/><path fill="#50fcfc" fill-rule="evenodd" d="M459.125 478.33594l-3.0625-2.44531 3.0625-3.70704 2.9336 3.70704-2.9336 2.4453"/><g clip-path="url(#c)"><path fill="#fff" fill-opacity="0" fill-rule="evenodd" d="M467.9961 480.32813H468V311.67188h-.0039H468v168.65625h-.0039"/></g><path fill="#fff" fill-opacity="0" fill-rule="evenodd" d="M228.42969 407.77344l1.94531 5.50781 9.39063-3.32031-1.94532-5.50781-9.39062 3.3203"/><path fill-rule="evenodd" d="M237.25781 408.36328l.17188.48047-5.9375 2.09766-.26172-.7422 4.23437-1.49608-.46484-1.3086.52344-.1875.25.50781.13281.21875.16016.1875.20312.14454.2539.09375.32813.03515.40625-.03125"/><path fill="#fff" fill-opacity="0" fill-rule="evenodd" d="M258.89844 433.7461l1.3125 5.6914 9.70703-2.24219-1.3125-5.6914-9.70703 2.24218"/><path fill-rule="evenodd" d="M267.60547 435.32422l.11328.4961-6.13281 1.41796-.17578-.76562 4.375-1.01172-.3125-1.35156.53906-.125.1914.53125.10938.23046.13672.20704.1836.16406.24218.1211.32031.07421.41016.01172"/><g clip-path="url(#d)"><path fill="none" stroke="#000" stroke-linecap="round" stroke-linejoin="round" stroke-miterlimit="10" stroke-width=".5" d="M143.96484 476.8164l.07032 7.02735"/></g><g clip-path="url(#e)"><path fill="none" stroke="#000" stroke-linecap="round" stroke-linejoin="round" stroke-miterlimit="10" stroke-width=".5" d="M155.96875 477.08203l2.6914 6.49219"/></g><path fill="none" stroke="#000" stroke-linecap="round" stroke-linejoin="round" stroke-miterlimit="10" stroke-width=".5" d="M156.35938 478.02734l.78125-.9453"/><g clip-path="url(#f)"><path fill="none" stroke="#000" stroke-linecap="round" stroke-linejoin="round" stroke-miterlimit="10" stroke-width=".5" d="M169.33594 477.0625l2.58594 6.53516"/></g><path fill="none" stroke="#000" stroke-linecap="round" stroke-linejoin="round" stroke-miterlimit="10" stroke-width=".5" d="M169.71484 478.01172l.79297-.9336"/><g clip-path="url(#g)"><path fill="none" stroke="#000" stroke-linecap="round" stroke-linejoin="round" stroke-miterlimit="10" stroke-width=".5" d="M182.01172 477.39453l3.86719 5.86719"/></g><path fill="none" stroke="#000" stroke-linecap="round" stroke-linejoin="round" stroke-miterlimit="10" stroke-width=".5" d="M182.57422 478.2461l.58984-1.07423"/><g clip-path="url(#h)"><path fill="none" stroke="#000" stroke-linecap="round" stroke-linejoin="round" stroke-miterlimit="10" stroke-width=".5" d="M193.80469 479.6875l6.91015 1.28125"/></g><g clip-path="url(#i)"><path fill="none" stroke="#000" stroke-linecap="round" stroke-linejoin="round" stroke-miterlimit="10" stroke-width=".5" d="M210.92578 483.82422l-.70312-6.99219"/></g><g clip-path="url(#j)"><path fill="none" stroke="#000" stroke-linecap="round" stroke-linejoin="round" stroke-miterlimit="10" stroke-width=".5" d="M226.60938 482.55469l-5.4375-4.44922"/></g><g clip-path="url(#k)"><path fill="none" stroke="#000" stroke-linecap="round" stroke-linejoin="round" stroke-miterlimit="10" stroke-width=".5" d="M240.71094 480.53906l-7.01172-.42187"/></g><g clip-path="url(#l)"><path fill="none" stroke="#000" stroke-linecap="round" stroke-linejoin="round" stroke-miterlimit="10" stroke-width=".5" d="M239.6914 480.47656l.51173 1.11719"/></g><g clip-path="url(#m)"><path fill="none" stroke="#000" stroke-linecap="round" stroke-linejoin="round" stroke-miterlimit="10" stroke-width=".5" d="M253.85547 479.21875l-6.66797 2.22266"/></g><g clip-path="url(#n)"><path fill="none" stroke="#000" stroke-linecap="round" stroke-linejoin="round" stroke-miterlimit="10" stroke-width=".5" d="M252.88281 479.53906l.89063.84766"/></g><g clip-path="url(#o)"><path fill="none" stroke="#000" stroke-linecap="round" stroke-linejoin="round" stroke-miterlimit="10" stroke-width=".5" d="M266.91406 478.63672l-6.15625 3.38281"/></g><g clip-path="url(#p)"><path fill="none" stroke="#000" stroke-linecap="round" stroke-linejoin="round" stroke-miterlimit="10" stroke-width=".5" d="M266.01953 479.1289l1.02735.67188"/></g><g clip-path="url(#q)"><path fill="none" stroke="#000" stroke-linecap="round" stroke-linejoin="round" stroke-miterlimit="10" stroke-width=".5" d="M280.28516 478.74219l-6.26953 3.17187"/></g><g clip-path="url(#r)"><path fill="none" stroke="#000" stroke-linecap="round" stroke-linejoin="round" stroke-miterlimit="10" stroke-width=".5" d="M280.28516 478.74219l2.0078 1.41406"/></g><g clip-path="url(#s)"><path fill="none" stroke="#000" stroke-linecap="round" stroke-linejoin="round" stroke-miterlimit="10" stroke-width=".5" d="M293.79297 479.19922l-6.65235 2.26172"/></g><g clip-path="url(#t)"><path fill="none" stroke="#000" stroke-linecap="round" stroke-linejoin="round" stroke-miterlimit="10" stroke-width=".5" d="M293.79297 479.19922l1.78906 1.67969"/></g><g clip-path="url(#u)"><path fill="none" stroke="#000" stroke-linecap="round" stroke-linejoin="round" stroke-miterlimit="10" stroke-width=".5" d="M307.26953 479.91797l-6.97656.82031"/></g><g clip-path="url(#v)"><path fill="none" stroke="#000" stroke-linecap="round" stroke-linejoin="round" stroke-miterlimit="10" stroke-width=".5" d="M307.26953 479.91797l1.39844 2.01953"/></g><g clip-path="url(#w)"><path fill="none" stroke="#000" stroke-linecap="round" stroke-linejoin="round" stroke-miterlimit="10" stroke-width=".5" d="M320.51953 481.11328l-6.84765-1.57031"/></g><g clip-path="url(#x)"><path fill="none" stroke="#000" stroke-linecap="round" stroke-linejoin="round" stroke-miterlimit="10" stroke-width=".5" d="M319.52344 480.88672l.32031 1.1836"/></g><g clip-path="url(#y)"><path fill="none" stroke="#000" stroke-linecap="round" stroke-linejoin="round" stroke-miterlimit="10" stroke-width=".5" d="M333.80469 479.41406l-6.78516 1.83203"/></g><g clip-path="url(#z)"><path fill="none" stroke="#000" stroke-linecap="round" stroke-linejoin="round" stroke-miterlimit="10" stroke-width=".5" d="M333.80469 479.41406l1.67578 1.78906"/></g><g clip-path="url(#A)"><path fill="none" stroke="#000" stroke-linecap="round" stroke-linejoin="round" stroke-miterlimit="10" stroke-width=".5" d="M346.0625 477.70313l-4.67188 5.25"/></g><path fill="none" stroke="#000" stroke-linecap="round" stroke-linejoin="round" stroke-miterlimit="10" stroke-width=".5" d="M346.0625 477.70313l2.38281.58203"/><g clip-path="url(#B)"><path fill="none" stroke="#000" stroke-linecap="round" stroke-linejoin="round" stroke-miterlimit="10" stroke-width=".5" d="M359.46484 477.78516l-4.84765 5.08984"/></g><path fill="none" stroke="#000" stroke-linecap="round" stroke-linejoin="round" stroke-miterlimit="10" stroke-width=".5" d="M358.75781 478.52344l1.1836.33203"/><g clip-path="url(#C)"><path fill="none" stroke="#000" stroke-linecap="round" stroke-linejoin="round" stroke-miterlimit="10" stroke-width=".5" d="M373.80078 479.64453l-6.89062 1.36719"/></g><g clip-path="url(#D)"><path fill="none" stroke="#000" stroke-linecap="round" stroke-linejoin="round" stroke-miterlimit="10" stroke-width=".5" d="M372.80078 479.84375l.77344.94922"/></g><g clip-path="url(#E)"><path fill="none" stroke="#000" stroke-linecap="round" stroke-linejoin="round" stroke-miterlimit="10" stroke-width=".5" d="M387.14453 479.80469l-6.94922 1.04687"/></g><g clip-path="url(#F)"><path fill="none" stroke="#000" stroke-linecap="round" stroke-linejoin="round" stroke-miterlimit="10" stroke-width=".5" d="M387.14453 479.80469l1.46094 1.97265"/></g><g clip-path="url(#G)"><path fill="none" stroke="#000" stroke-linecap="round" stroke-linejoin="round" stroke-miterlimit="10" stroke-width=".5" d="M399.76172 478.17578l-5.55078 4.3086"/></g><path fill="none" stroke="#000" stroke-linecap="round" stroke-linejoin="round" stroke-miterlimit="10" stroke-width=".5" d="M399.76172 478.17578L402 479.17968"/><g clip-path="url(#H)"><path fill="none" stroke="#000" stroke-linecap="round" stroke-linejoin="round" stroke-miterlimit="10" stroke-width=".5" d="M412.125 477.32813l-3.64844 6.0039"/></g><path fill="none" stroke="#000" stroke-linecap="round" stroke-linejoin="round" stroke-miterlimit="10" stroke-width=".5" d="M411.59375 478.19922l1.22656.07031"/><g clip-path="url(#I)"><path fill="none" stroke="#000" stroke-linecap="round" stroke-linejoin="round" stroke-miterlimit="10" stroke-width=".5" d="M426.71484 478.67578l-6.19921 3.30469"/></g><g clip-path="url(#J)"><path fill="none" stroke="#000" stroke-linecap="round" stroke-linejoin="round" stroke-miterlimit="10" stroke-width=".5" d="M425.8164 479.15625l1.01563.6836"/></g><g clip-path="url(#K)"><path fill="none" stroke="#000" stroke-linecap="round" stroke-linejoin="round" stroke-miterlimit="10" stroke-width=".5" d="M439.80078 478.30469l-5.74219 4.05078"/></g><path fill="none" stroke="#000" stroke-linecap="round" stroke-linejoin="round" stroke-miterlimit="10" stroke-width=".5" d="M439.80078 478.30469l2.1914 1.10547"/><g clip-path="url(#L)"><path fill="none" stroke="#000" stroke-linecap="round" stroke-linejoin="round" stroke-miterlimit="10" stroke-width=".5" d="M451.29297 476.97266l-2.09375 6.71093"/></g><path fill="none" stroke="#000" stroke-linecap="round" stroke-linejoin="round" stroke-miterlimit="10" stroke-width=".5" d="M450.98828 477.94922l1.20703-.22656"/><g clip-path="url(#M)"><path fill="none" stroke="#000" stroke-linecap="round" stroke-linejoin="round" stroke-miterlimit="10" stroke-width=".5" d="M465.14063 477.1914l-3.16016 6.27344"/></g><path fill="none" stroke="#000" stroke-linecap="round" stroke-linejoin="round" stroke-miterlimit="10" stroke-width=".5" d="M465.14063 477.1914l2.45312-.05468"/><g clip-path="url(#N)"><path fill="none" stroke="#000" stroke-linecap="round" stroke-linejoin="round" stroke-miterlimit="10" stroke-width=".5" d="M146.94531 465.09766l-5.89062 3.83203"/></g><path fill="none" stroke="#000" stroke-linecap="round" stroke-linejoin="round" stroke-miterlimit="10" stroke-width=".5" d="M146.08594 465.65234l1.07422.59375m12.49609-1.85156l-4.6836 5.23828m4.00391-4.47656l1.1914.29297m12.52345-1.28125l-4.1211 5.6914m3.51953-4.86328l1.21485.16797m12.9336-.8125l-4.58595 5.32422m3.91797-4.55078l1.19531.26953m13.94922.98438l-6.91015 1.26953m5.90625-1.08594l.76172.96094m12.34375 2.19531l-4.48047-5.41016m3.82812 4.625l-.46875 1.13282m14.27735-.22266l-4.16407-5.66016m3.5586 4.83594l-.53125 1.10547m15.54687-1.60938l-6.35156-3.0039m5.42578 2.5664l.0586 1.22657m14.44921-2.98438l-6.88672 1.38672m5.88282-1.1875l.78125.94922m13.13672-2.20703l-6.08985 3.5039m5.20703-2.99609l1.03907.65235m12.90234-1.55079l-5.57422 4.28516m4.76172-3.66016l1.11719.50782m13.48437-.30079l-6.51953 2.6211m5.57031-2.23828l.9375.78906m13.54688-.35156l-6.96094.98047m5.94531-.83594l.72266.99219m13.54688-1.45313l-6.83985 1.61328m6.83985-1.61328l1.61718 1.84766m11.75782-1.53907l-6.95704.9961m6.95704-.9961l1.4453 1.98438m11.82813-.76563l-6.8789-1.4375m6.8789 1.4375l.6875 2.35547m12.50782-4.22656l-6.63672 2.30078m5.67187-1.96484l.89844.83203m13.11328-1.76172l-6.09766 3.48828m5.21094-2.98047l1.03516.65235m13.61719.89453l-7-.6211m7 .6211l.95312 2.26172m12.34766-2.9961l-6.97266.84766m6.97266-.84766l1.40625 2.01172m-2.41797-1.89062l.69922 1.00781m13.64843-.9375l-7.01171.46484m7.01171-.46484l1.28907 2.08594m-2.3125-2.01953l.64843 1.04297m13.63672-.22657l-6.90625-1.30078m6.90625 1.30078l.73047 2.33985m12.64063-2.8047l-7.01953-.37108m7.01953.37109l1.03515 2.22656m-2.0586-2.28125l.51954 1.11328m12.83984-3.67968l-5.0625 4.87109m4.32813-4.16406l1.16406.3828m10.83203 4.82813l-.95703-6.96484m.82031 5.94922l-.99609.71875"/><g clip-path="url(#O)"><path fill="none" stroke="#000" stroke-linecap="round" stroke-linejoin="round" stroke-miterlimit="10" stroke-width=".5" d="M147.14063 452.1211l-6.28125 3.15624"/></g><path fill="none" stroke="#000" stroke-linecap="round" stroke-linejoin="round" stroke-miterlimit="10" stroke-width=".5" d="M146.22656 452.57813l1 .71093m13.35938-.875l-6.53906 2.57031m5.58593-2.19921l.9336.79687m13.30078-1.25l-6.47266 2.73047m6.47266-2.73047l1.90234 1.55078m11.61719-.89843l-6.88281 1.42578m6.8828-1.42578l1.56642 1.89062m11.8203-1.23047l-7.02734.10938m6.00391-.09375l.59375 1.07422m13.63672-.17188l-6.8125-1.73047m5.82031 1.48047l.29297 1.1914m13.92969-.65234l-6.64063-2.30468m5.67188 1.96875l.1914 1.21093m13.89063-.40625l-6.23438-3.24218m5.32422 2.76953l.01172 1.22656m14.60547-2.21484l-7.01953-.32032m5.9961.27344l.52734 1.10938m13.70312-2.10157l-6.80469 1.75781m5.8125-1.5039l.83204.90625m13.3125-1.64453l-6.47657 2.72656m5.53125-2.33203l.95313.77734m13.57812.33594l-7.01953-.28906m19.71875 2.13672l-5.78906-3.98438m19.5625.94531l-6.70703 2.09375m5.73047-1.78906l.875.86328m13.21093-1.6875l-6.29296 3.1289m5.375-2.67187l1 .71485m13.42578-.69922l-6.6797 2.1875m5.70704-1.8711l.88281.85157m13.55469-.46485l-6.98047.78125m5.96485-.66797l.6953 1.01172m10.0547-4.24609l.18359 7.02344m-.16016-6.0039l1.07032-.60157m11.71484-.3711l1.1914 6.92579m-1.01562-5.91797l.96875-.75m16.16797 4.09375l-6.80078-1.77344m20.07031-.16016l-6.70703 2.09375m20.125-1.67578l-6.91406 1.25782m5.90625-1.07422l.76172.96093m12.07421 2.39454l-3.9414-5.82032m3.9414 5.82031l-1.14843 2.16797m16-4.85156l-7.01172-.45703m5.99219.39063l.5039 1.12109m9.90625 2.20703l.83594-6.97656m-.83594 6.97656l-2.28906.88672"/><g clip-path="url(#P)"><path fill="none" stroke="#000" stroke-linecap="round" stroke-linejoin="round" stroke-miterlimit="10" stroke-width=".5" d="M147.08984 438.71094l-6.17968 3.34375"/></g><path fill="none" stroke="#000" stroke-linecap="round" stroke-linejoin="round" stroke-miterlimit="10" stroke-width=".5" d="M147.08984 438.71094l2.04297 1.35547m11.64453-.28907l-6.92187 1.21094m6.92187-1.21094l1.50782 1.9375m11.82812-.87109l-6.96484-.92188m6.96484.92188l.85938 2.30078m12.48437-2.71094l-7.02344-.09765m7.02344.09765l1.1211 2.1797m12.14453-1.63282l-6.92578-1.19531m6.92578 1.1953l.76562 2.33204m12.53906-2.28516l-6.90625-1.28906m6.90625 1.28906l.73828 2.33985m12.4922-1.98047l-6.73438-2.0039m6.73437 2.0039l.48438 2.40234m12.88672-2.61328l-6.84766-1.58594m6.84766 1.58594l.6328 2.3711m12.77345-3.13282l-7.02735-.0625m6.0039.05469l.56642 1.08594m13.76953-.96485l-7.02344-.28515m6 .24218l.53125 1.10547m13.76172-.64453l-6.9336-1.125m5.92579.96485l.39453 1.16015m13.80078-.46484l-6.67578-2.19531m5.70312 1.875l.21094 1.21093m13.88281-.42578l-6.29297-3.125m5.3789 2.67188l.03517 1.22656m13.9375-.33203l-5.77735-4.0039m4.9375 3.42187L319 443.02344m14.4375-4.42578l-6.05078 3.57421m5.16797-3.05468l1.04687.64062m12.16797-2.23437l-4.08594 5.71875m3.4922-4.88672l1.21484.16406m12.26171-1.25781l-3.22265 6.24219m2.7539-5.33204l1.22657-.01562m10.78125-1.28125l.33203 7.01953m-.28516-6l1.05469-.625m11.96875-.375l.82031 6.98047m-.70312-5.96484l1.01172-.69922m10.35546.46484l4.48047 5.41406m-3.82812-4.625l.46875-1.13672m10.92969 3.32032l7.0078-.53125m-5.98827.45703l-.65625-1.03906m16.70312 4.35156l-.4961-7.00781m.42579 5.98828l-1.04297.65234m14.92578.29688l-1.48828-6.8672m1.48828 6.8672l-1.875 1.58593m17.82813-4.0625l-6.76172-1.91406m5.77734 1.63672l.25781 1.19922m8.1875.61719l4.94532-4.9922m-4.22657 4.26563l-1.17578-.35156"/><g clip-path="url(#Q)"><path fill="none" stroke="#000" stroke-linecap="round" stroke-linejoin="round" stroke-miterlimit="10" stroke-width=".5" d="M147.22656 425.67578l-6.45312 2.78906"/></g><path fill="none" stroke="#000" stroke-linecap="round" stroke-linejoin="round" stroke-miterlimit="10" stroke-width=".5" d="M147.22656 425.67578l1.91406 1.53125m-2.85546-1.1289l.96093.76562m13.47657-.64063l-6.8125 1.73047m6.8125-1.73047l1.64843 1.82032m-2.64062-1.5664l.82422.90624m13.5664-.70703l-6.98047.82422m6.98047-.82422l1.39453 2.01953m11.8711-.89453l-6.88281-1.42578m6.8828 1.42578l.6875 2.35547m12.4297-1.71875l-6.48828-2.69922m6.48828 2.69922l.23047 2.44531m12.8164-1.92578l-5.94922-3.73828m5.94922 3.73828l-.17969 2.44922m13.61328-2.65235l-6.1875-3.33203m5.28907 2.84766l-.00781 1.22656m14.5-1.42187l-6.7461-1.97266m6.7461 1.97266l.5 2.40234m12.4414-1.5586l-5.9961-3.66015m5.125 3.1289l-.07421 1.22266m14.70703-1.82812l-6.89063-1.38672m6.89063 1.38672l.70313 2.34766m12.60156-2.3047l-6.8711-1.46874m5.8711 1.2539l.33593 1.1797m12.69922 1.07421l-4.30859-5.55078m3.67969 4.74219l-.5 1.12109m15.59375-1.89844l-6.61328-2.3789m5.65234 2.03125l.17578 1.21484m13.25.45703l-4.91016-5.02734m4.19532 4.29687l-.375 1.16797m13.13672.35547l-2.3711-6.61328m2.02344 5.65234l-.82422.90625m14.32422-3.25l-.01953-.20312-.0586-.1914-.09765-.17579-.45703-.375-.1914-.0586-.19923-.01952-.19922.01953-.1914.05859-.46094.375-.09375.17578-.0586.1914-.01953.20313.01954.19922.05859.1914.09375.17579.46094.375.1914.0586.19922.01952.19922-.01953.1914-.0586.45704-.375.09765-.17577.0586-.1914.01953-.19923m12.83594-3.47265l-1.08985 6.9414m.9297-5.92968l1.16015-.40235m10.89062-.53906l1.75781 6.80078m-1.5-5.8125l.90235-.82813m12.72265-.2578l.625 6.99609m-.53515-5.98047l1.02734-.66797m11.33985-.16406l2.33984 6.6289m-2.33984-6.6289l1.66015-1.8047m9.35547 4.5586l6.9375 1.1211m-5.92578-.95703l-.39844-1.16407m12.95313 2.96875l6.4375-2.8164m-6.4375 2.8164l-1.92578-1.52343M435.4453 430.25l2.97266-6.36328M435.4453 430.25l-2.45312.1289m17.57422.1875l-.63672-6.99609m.63672 6.9961l-2.0547 1.34375m17.6836-2.51563l-5.26953-4.65234m4.5039 3.97656l-.28515 1.1914"/><g clip-path="url(#R)"><path fill="none" stroke="#000" stroke-linecap="round" stroke-linejoin="round" stroke-miterlimit="10" stroke-width=".5" d="M147.17188 412.23828l-6.34375 3.03125"/></g><path fill="none" stroke="#000" stroke-linecap="round" stroke-linejoin="round" stroke-miterlimit="10" stroke-width=".5" d="M147.17188 412.23828l1.97265 1.45703m11.27344-1.58593l-6.20703 3.28906m6.20703-3.28906l2.03516 1.37109m11.62109-.41406l-6.89063 1.375m6.89063-1.375l1.55469 1.90234m11.80468-1.63672l-6.97656.84375m5.96094-.72265l.70312 1.0078m13.52735.22657l-6.77344-1.8711m5.78516 1.60157l.26953 1.19531m13.23828.50781l-5.1875-4.73828m5.1875 4.73828l-.60938 2.37891m13.84766-2.29687l-5.03125-4.90235m5.03125 4.90235l-.6836 2.35937m14.37891-2.82031l-5.79297-3.97656m5.79297 3.97656l-.27734 2.4375m13.34375-2.11719l-5.29688-4.61719m5.29688 4.61719l-.55469 2.39063m14.14844-2.75391l-5.85156-3.89063m5 3.32422l-.1211 1.22266m14.01953-.30469l-5.3164-4.59375m4.54297 3.92578l-.26954 1.19532m14.57032-.79688l-5.73828-4.05469m4.90234 3.46485l-.15625 1.21875m13.94531-.19532l-5.01562-4.92187m4.28515 4.20312l-.34765 1.1797m14.53906-.6172l-5.30469-4.60937m4.53125 3.9375l-.27734 1.19531m9.53125-.07422L332.58984 411m-3.72656 4.70703l-1.20703-.22265m12.83984-3.11329l6.46094 2.76563m9.91016-4.89063l.35156 7.01563m-.30078-5.9961l1.05078-.6289m10.03906.5039l4.69922 5.22657m-4.01562-4.46485l.41796-1.15234m11.98047.61719l5.16016 4.76953m-5.16016-4.76953l.625-2.3711m13.0586 2.02735l4.42578 5.46094m-4.42578-5.46094l.95703-2.25781m-.3125 3.05468l.95703-2.26172m11.03125 2.20313l5.78906 3.98437m-5.78906-3.98437l.28125-2.4375m.5625 3.01562l.14062-1.21875m12.85547.03907l4.7422 5.1875m-4.7422-5.1875l.82422-2.3125m11.46875 3.98828l6.78516 1.83594m-6.78516-1.83594l-.54687-2.39063m15.4961 6.35157l3.51562-6.08594m-3.51563 6.08594l-2.44922-.08594M449 415.91016l-1.22656-.04297m15.88281 1.39844l-.1914-7.02344m.16406 6l-1.06641.60547"/><g clip-path="url(#S)"><path fill="none" stroke="#000" stroke-linecap="round" stroke-linejoin="round" stroke-miterlimit="10" stroke-width=".5" d="M146.76953 398.27734l-5.53906 4.32422"/></g><path fill="none" stroke="#000" stroke-linecap="round" stroke-linejoin="round" stroke-miterlimit="10" stroke-width=".5" d="M146.76953 398.27734l2.24219.9961m10.89844-1.20313l-5.19141 4.73438m5.1914-4.73438l2.3125.82422m11.53907-.05078l-6.26172 3.1875m5.35156-2.72266l1.0039.70313m11.46485 3.66015l-2.75-6.46875m2.35156 5.52735l-.77343.95312m13.375.25782l-.52735-7.00782m.45313 5.98829l-1.03906.65625m15.26953.1953l-2.20703-6.67187m1.88672 5.70313l-.84766.88672m15.90625-.8125L221.35937 398m5.0586 4.8789l-.67188 2.35938m13.71875-2.10937l-4.51953-5.38282m3.86328 4.60157l-.46093 1.13671m14.66797-.57421l-4.9922-4.94532m4.26563 4.22657l-.35156 1.17578m10.01172.03515l3.77344-5.92968m9.51953.01562l3.8164 5.90235m-3.26172-5.04297l.59766-1.07422m13.83203-.33985l.47657 7.01172m9.94921-5.10937l6.25391 3.20312m-5.34375-2.73828l-.01562-1.22656m12.26562 1.10937l6.5664 2.51172m-5.60937-2.14844l-.15234-1.21484m12.4414 1.05469l6.70313 2.10547m-6.70313-2.10547l-.44921-2.41406m14.54296 1.07421l5.14844 4.78125m-4.40234-4.08593l.3164-1.1836m12.82032-.0039l4.01172 5.76953m7.80859-3.1914l7 .61327m-5.98047-.52343l-.48047-1.13282m18.2539-1.55859l-3.95312 5.8125m3.95313-5.8125l2.4375.26563m10.17969-.63282l-2.5586 6.54688m2.5586-6.54688l2.4375-.28125m-2.8086 1.23438l1.21875-.14063m12.30469-.8711l-2.23438 6.66407m2.23438-6.66406l2.42187-.40235m11.16407.50782l-2.77735 6.45312m2.77735-6.45312l2.4453-.20313m-2.84765 1.14063l2.44532-.19922m11.16015-.78516l-2.55469 6.54688m2.5547-6.54688l2.4375-.28515m7.15234 6.07812l4.90234-5.03515m-4.90234 5.03515l-2.35547-.6875m3.0664-.04687l-1.17578-.34375m13.79688 1.09765l4.86328-5.07422m-4.86328 5.07422l-2.35938-.66797"/><g clip-path="url(#T)"><path fill="none" stroke="#000" stroke-linecap="round" stroke-linejoin="round" stroke-miterlimit="10" stroke-width=".5" d="M146.4961 384.64844l-4.9922 4.94922"/></g><path fill="none" stroke="#000" stroke-linecap="round" stroke-linejoin="round" stroke-miterlimit="10" stroke-width=".5" d="M146.4961 384.64844l2.34374.72656m9.89453-1.46484l-2.83593 6.42578m2.83594-6.42578l2.4453-.1797m9.97657-.08202l-1.05078 6.94922m1.05078-6.94922l2.3125-.8125m-2.46484 1.82422l2.3125-.81641m8.85547.2461l3.54687 6.0664m-3.54688-6.0664l1.29297-2.08594m10.3125 5.57812l6.96485-.91797m-5.95313.78516l-.71094-1m13.48047 2.47656l6.03125-3.60547m-5.15234 3.08203l-1.05078-.63671m19.46875 1.24218l-5.92969-3.76953m5.92969 3.76953l-.1914 2.44922m13.91405-3.34375l-6.74218-1.98047m5.75781 1.6914l.25 1.20313m13.77734-.2539l-6.20312-3.30078m19.375-.2461l-5.91406 3.79297m5.05468-3.23828l1.07032.59766m13.58203 0l-6.86719 1.48828m5.86719-1.27344l.79297.9375m13.58984-.6875l-7.0039.5586m7.0039-.5586l1.32031 2.0664m-2.33984-1.98437l.66015 1.03125m13.40625-2.20312l-6.47265 2.73828m6.47265-2.73828l1.90625 1.54687m-2.84765-1.14844l1.90625 1.54688m11.96094-2.63672l-5.69141 4.1211m5.6914-4.1211l2.20313 1.08203m-3.03125-.48047l2.20313 1.07813m12.59375.05469l-6.9961.65234m6.9961-.65235l1.34765 2.05079m11.72266-.39844l-6.50781-2.64844m6.5078 2.64844l.25 2.4375m-1.1953-2.82422l.125 1.21875m14.375-1.78906l-6.98829-.73828m6.98829.73828l.91796 2.27734m-1.93359-2.38281l.91406 2.27344m13.13672-3.95313l-6.42969 2.83203m6.4297-2.83203l1.92968 1.51953m-2.86328-1.10937l.96484.76172m12.1914-2.5586l-4.24218 5.60547m4.24219-5.60547l2.42187.39063m-3.03906.42578l1.21094.19531m12.42969-1.20703l-3.66016 6m3.66016-6l2.44921.14453m-2.98437.72656l1.22656.07422m12.21094-1.16015l-2.83594 6.42578m2.83594-6.42578l2.44922-.1797m-2.85938 1.11329l2.44532-.17969m10.65234-.96484l-1.57813 6.84765m1.57813-6.84765l2.36719-.63672m-2.59766 1.63281l1.1836-.3164m12.14453-.72266l-1.14454 6.9336m1.14454-6.9336l2.32421-.78125m9.98829 7.73438l.85937-6.97266m-.73437 5.95703l-1.14454.4414m14.3711.57813l.78906-6.98047m-.78906 6.98047l-2.28125.90235m2.39453-1.91797l-1.14063.45312"/><g clip-path="url(#U)"><path fill="none" stroke="#000" stroke-linecap="round" stroke-linejoin="round" stroke-miterlimit="10" stroke-width=".5" d="M146.16016 371.03906l-4.32032 5.53906"/></g><path fill="none" stroke="#000" stroke-linecap="round" stroke-linejoin="round" stroke-miterlimit="10" stroke-width=".5" d="M146.16016 371.03906l2.41797.42188m10.625-.61328l-3.77735 5.92187m3.77734-5.92187l2.44922.1914m-2.99609.66797l1.22266.09766m11.92578-1.3086l-2.35156 6.625m2.35156-6.625l2.42969-.35937m-2.76954 1.32422l2.42578-.35938m11.07813-.65625l-2.04688 6.72266m2.04688-6.72266l2.40625-.46875m-2.70313 1.44922l2.40625-.47265m9.8125-.64063l.73829 6.98828m-.73828-6.98828l2.03125-1.3711m8.29296 5.89844l6.71875-2.0625m11.51563 4.1797l-3.11719-6.29688m3.11719 6.29687l-1.4336 1.99219m16.69922-5.01172l-7.01953-.25781m7.01953.25781l1.07422 2.20703m12.23438-2.63281l-7.0039.59375m7.0039-.59375l1.32812 2.0625m-2.34765-1.97656l.66406 1.03125m13.67969-.75l-7.02344-.14063m7.02344.14063l1.10937 2.1914m-2.1289-2.21094l1.10546 2.1875m13.01172-3.46093l-6.58984 2.44531m6.58984-2.44531l1.83203 1.6289m-2.79297-1.27343l1.83594 1.6289m11.53516-3.33594l-4.78125 5.14844m4.78125-5.14844l2.3711.62891m-3.06641.11719l1.1875.3164m11.49218-1.83984l-2.11718 6.70313m2.11718-6.70313l2.41016-.44531m-2.71875 1.42187l1.20703-.22265m13.58984-.11719l-4.46484 5.42969m4.46484-5.42969l2.40235.48438m-3.05078.30468l1.19922.24219m13.67187.10547l-6.27734 3.15625m6.27734-3.15625l2 1.41797m-2.91406-.95703l1 .70703m13.58203.02344l-6.98438.77343m6.98438-.77344l1.38281 2.02344m-2.39844-1.91406l.69141 1.01563m13.57813-1.4922l-6.86329 1.50782m6.86329-1.50781l1.58984 1.86719m-2.58984-1.64844l.79687.9336m13.04297-2.29688l-5.91406 3.79296m5.91406-3.79296l2.14062 1.20312m-3-.64844l1.07032.59766m12.76953-1.59375l-5.24219 4.67969m5.24219-4.67969l2.30078.84766m-3.0664-.16797l1.15234.42578m12.59375-1.4336l-4.57422 5.33204m4.57422-5.33204l2.39453.53907m-3.0586.23828l2.39454.53515m11.1953-1.60156l-3.79687 5.91406m3.79688-5.91406l2.44531.20313m-2.9961.65625l2.44532.20312m11.67969-.8789l-4.3125 5.54687m4.3125-5.54687l2.41797.41796m-3.04688.38672l1.21094.21094m12.78515-.97656l-4.41796 5.46875m4.41796-5.46875l2.40625.46484m11.38282 4.53516l-5.36719-4.53516m5.36719 4.53516l-.51563 2.39844m-.26562-3.0586l-.25782 1.19922m13.6875.07031l-4.03515-5.75m4.03515 5.75l-1.10937 2.1875m.52344-3.02343l-1.11328 2.1875"/><g clip-path="url(#V)"><path fill="none" stroke="#000" stroke-linecap="round" stroke-linejoin="round" stroke-miterlimit="10" stroke-width=".5" d="M145.23438 357.20313l-2.46875 6.57812"/></g><path fill="none" stroke="#000" stroke-linecap="round" stroke-linejoin="round" stroke-miterlimit="10" stroke-width=".5" d="M144.875 358.16016l1.21875-.15625m12.11328-.91016l-1.78125 6.79688m1.78125-6.79688l2.38672-.5664m11.22656.66015l-2.3789 6.61328m2.3789-6.61328l2.42969-.35156m-2.77734 1.3125l1.21484-.17578m13.14844-.44141l-3.78125 5.92578m3.78125-5.92578l2.44531.19531m-2.9961.66797l2.44532.1914m12.16016-.42187l-5.25782 4.66016m5.25781-4.66016l2.29688.85547m-3.0625-.17969l1.14844.4297m13.51562 2.64452l-6.42578-2.84375m6.42578 2.84375l.17578 2.44922m11.3086-.64062l-2.76563-6.46094m2.76563 6.46094l-1.53906 1.91015m1.13671-2.84765l-1.53906 1.91015m17.375-3.89844l-7-.60937m7 .60938l.95703 2.2578m-1.97656-2.34374l.96094 2.25781m13.29297-1.67188l-6.83985-1.60937m6.83985 1.60938l.625 2.375m-1.6211-2.60938l.625 2.375m-1.6211-2.60938l.3125 1.1875m15.07813-1.78125l-7.0078.51954m7.0078-.51954l1.3086 2.07422m-2.32813-2l1.3086 2.07422m12.7578-3.2539l-6.47265 2.73046m6.47266-2.73046l1.90625 1.54687m-2.84766-1.15234l1.90235 1.55078M292.9414 358l-4.95313 4.98828M292.94141 358l2.34765.70703m-3.0664.01953l2.34765.70703m11.60938-1.5078l-4.79688 5.13671m4.79688-5.13672l2.36718.63672m-3.0664.10938l2.3711.63671m12.04687-.93359l-5.60547 4.23828m5.60547-4.23828l2.22656 1.03125m-3.04297-.41406l1.11328.51562m13.33985-.625l-6.2461 3.22266m6.2461-3.22266l2.01562 1.39844m-2.92578-.92969l2.01562 1.39844m12.1211-2.02734l-6.07031 3.53906m6.0703-3.53906l2.08595 1.29296m-2.96875-.77734l1.04296.64453M360.22266 359l-6.36329 2.98438M360.22266 359l1.96093 1.47266m11.46485-1.20704l-6.58594 2.45313m6.58594-2.45313l1.83593 1.62891m11.2461-2.1289l-6.11719 3.45703m6.11719-3.45704l2.07031 1.31641m-2.96094-.8164l1.03516.66015m12.78906-1.71094l-5.35547 4.5547m5.35547-4.5547l2.28125.90625m-3.0625-.24218l1.14063.45312m12.64843-1.4336l-4.74218 5.1875m4.74218-5.1875l2.375.61329m-3.0664.14062l2.3789.61329m12.39063-.3672l-6.26563 3.1875m6.26563-3.1875l2.00781 1.41016m-2.92187-.9453l2.01172 1.41015m12.49609-1.10938l-6.82422 1.66016m6.82422-1.66016l1.63281 1.83203m-2.625-1.59375l1.63281 1.83594m-2.625-1.59375l.81641.91797m14.3789.61719l-6.61327-2.375m6.61328 2.375l.34765 2.42969m-1.3125-2.77344l.35157 2.42969m13.33593-1.04297l-5.42968-4.46094m5.42968 4.46094l-.48437 2.40625m-.30469-3.0547l-.48437 2.40626"/><g clip-path="url(#W)"><path fill="none" stroke="#000" stroke-linecap="round" stroke-linejoin="round" stroke-miterlimit="10" stroke-width=".5" d="M145.02344 347.17969l-.01953-.19922-.0586-.19531-.09375-.17579-.46094-.375-.1914-.05859-.19922-.01953-.19922.01953-.1914.0586-.46094.375-.09375.17578-.0586.1953-.01953.19923.01953.19922.0586.1914.09375.17578.46094.375.1914.0586.19922.01953.19922-.01953.1914-.0586.46094-.375.09375-.17578.0586-.1914.01953-.19922"/></g><path fill="none" stroke="#000" stroke-linecap="round" stroke-linejoin="round" stroke-miterlimit="10" stroke-width=".5" d="M158.69531 343.94531l-2.76172 6.46485m2.35938-5.52344l1.22266-.10547m12.51562-.82422l-2.80078 6.44531m2.80078-6.4453l2.44531-.19532m11.29688.41406l-3.65625 6.0039m3.65625-6.0039l2.44922.14453M200.01563 345l-5.51172 4.35938M200.01563 345l2.24609.98438m-3.04688-.35157l1.125.49219m13.7422.85156l-7.01563.40235m7.01562-.40235l1.27344 2.09766m-2.29297-2.03906l1.27344 2.09765m11.89453.66406l-4.6836-5.23828m4.6836 5.23829l-.84766 2.30468m.16797-3.0664l-.84766 2.30468m.16797-3.0664l-.42578 1.15234m15.59375-.16797l-5.66406-4.16015m5.66406 4.16015l-.35547 2.42578m-.46875-3.03125l-.35547 2.4297m15.13672-3.37892l-6.94922-1.05078m6.94922 1.05079l.8125 2.3164m-1.82422-2.46875l.8125 2.3164m-1.82421-2.46874l.40625 1.15625m14.87109-2.20703l-6.82813 1.66406m6.82813-1.66406l1.63281 1.83203m-2.625-1.58985l1.6289 1.83204m-2.625-1.58985l.81641.91406m14.06641-2.40625l-5.98828 3.67579m5.98828-3.67579l2.11719 1.2422m-2.98828-.70704l2.11719 1.24219m11.5703-2.41016l-4.99218 4.94531m4.99219-4.9453l2.34375.72655m-3.07031-.0078l1.17187.36327m13.38281-.42578l-6.01562 3.6289m6.01562-3.6289l2.10547 1.26172m-2.98047-.73438l1.05469.63282m13.16797-1.10547l-6.08203 3.52344m6.08203-3.52344l2.08203 1.29687m-2.96875-.78515l1.04297.64844m12.58594-1.89844l-4.9375 4.9961m4.9375-4.9961l2.35156.70312m-3.07031.02344l1.17578.35156m13.54687-.11719l-6.3164 3.07813m6.3164-3.07813l1.98438 1.44141m-2.90235-.9961l.9922.72266m13.58202.6836l-6.9961-.6289m6.9961.6289l.95703 2.26172m-1.97265-2.35547L360 348.53125m13.82031-1.9336l-6.92968 1.16016m6.92968-1.16015l1.4961 1.9453m-2.50391-1.77733l1.4961 1.9453m12.6289-2.83202l-6.53125 2.59765m6.53125-2.59765l1.8711 1.58593m-2.82422-1.20703l.9375.79297m13.15625-1.54297l-6.1836 3.33985m6.1836-3.33985l2.04296 1.35938m-2.9414-.875l1.01953.67969m13.39844-.70704l-6.59375 2.4297m6.59375-2.4297l1.83203 1.63282m-2.78906-1.28125l1.82812 1.63671m12.58594-1.49609l-6.875 1.4414m6.875-1.4414l1.57422 1.88281m-2.57422-1.67187l1.57031 1.88281m-2.57031-1.67578l.78515.94531m14.59375-.91406l-7.0039.54297m7.0039-.54297l1.31641 2.07422m-2.33594-1.9961l1.3164 2.07422m-2.33593-1.99218l1.3164 2.0703m14.05079-1.95702h-7.02734m7.02734 0l1.14844 2.16406m-2.17188-2.16406l1.15235 2.16406m-2.17579-2.16406l1.15235 2.16406m-2.17578-2.16406l.57812 1.08203m15.80469-1.11328l-7.02734.0586"/><g clip-path="url(#X)"><path fill="none" stroke="#000" stroke-linecap="round" stroke-linejoin="round" stroke-miterlimit="10" stroke-width=".5" d="M467.07422 347.14844l1.17187 2.15625"/></g><path fill="none" stroke="#000" stroke-linecap="round" stroke-linejoin="round" stroke-miterlimit="10" stroke-width=".5" d="M466.05469 347.15625l1.16797 2.15625m-2.19141-2.14844l1.16797 2.16016"/><g clip-path="url(#Y)"><path fill="none" stroke="#000" stroke-linecap="round" stroke-linejoin="round" stroke-miterlimit="10" stroke-width=".5" d="M147.51172 333.89063l-7.02344-.0547"/></g><path fill="none" stroke="#000" stroke-linecap="round" stroke-linejoin="round" stroke-miterlimit="10" stroke-width=".5" d="M146.49219 333.88281l.5664 1.08594m13.51563-2.41797l-6.51953 2.625m5.57031-2.24219l.9414.78907m12.86329-1.98438l-5.59766 4.25m5.59766-4.25l2.22656 1.02735m11.22266-.83204l-5.8672 3.85938m5.8672-3.85938l2.15625 1.17579m11.58984-.25782l-6.73047 2.02344m6.73047-2.02344l1.72656 1.74219m-2.70703-1.44922l.86328.8711m13.58203-.21485l-7.02734.125m7.02734-.125l1.1875 2.14453m-2.21093-2.125l1.1914 2.14453m11.94531.54297l-4.625-5.28906m4.625 5.28906l-.87109 2.29297m.19922-3.0625l-.8711 2.29297m.19923-3.0625l-.875 2.29297m16.39843-1.89453l-6.35156-3.00781m6.35156 3.0078l.11328 2.44923m-1.03906-2.88672l.11328 2.44922m-1.03906-2.88672l.0586 1.22265m15.42577-1.49218l-6.98828-.71875m6.98828.71875l.92579 2.27343M253 334.1172l.92188 2.27344m-1.94141-2.37891l.92578 2.27344m14.39453-3.01172l-6.92969 1.17969m6.9297-1.1797l1.49609 1.94141m-2.50391-1.76953l1.4961 1.9414m-2.50391-1.76952l.74609.96875m14.23437-2.34766l-6.23046 3.2461m6.23046-3.2461l2.02344 1.39063m-2.92969-.91797l2.02344 1.39062m11.99219-2.21094l-5.8164 3.94532m5.8164-3.94531l2.16797 1.14843m11.57422-.28125l-6.67188 2.21094m6.67188-2.21094l1.77343 1.69531M320.5 332.98829l-6.8086 1.75m6.8086-1.75l1.65234 1.8125m-2.64453-1.5586l1.65625 1.8125m12.55469-2.375l-6.61719 2.3672m6.61719-2.3672l1.8164 1.64844m-2.77734-1.30468l1.8125 1.64844m12.66016-1.04297l-7.01172.46875m7.01172-.46875l1.29687 2.08203m-2.3164-2.01563l1.29297 2.08594m13.05078-1.9336l-7.02735.03126m7.02735-.03125l1.16015 2.16406m-2.18359-2.16016l.58203 1.08203m13.7539-1.15234l-7.02343.16406m7.02344-.16406l1.20312 2.14063m-2.22265-2.1172l1.19921 2.14063m12.53516-4.05078l-5.82031 3.9375m5.82031-3.9375l2.16797 1.14844m-3.01563-.57422l1.08594.57422m13.375-.60938l-6.41797 2.85938m6.41797-2.85938l1.9336 1.51172m11.61328.6211l-6.88282-1.40625m6.88282 1.40625l.69531 2.35546m-1.69531-2.55859l.69531 2.35156m13.67969-2.53906l-7-.625m7 .625l.95312 2.26172m-1.97265-2.35156l.95312 2.26172m-1.97266-2.35157l.95313 2.25782m14.41406-2.3711l-7.02734-.04297m7.02734.04297l1.13672 2.17578m-2.16016-2.17968l1.14063 2.17187m-2.16406-2.17969l1.14062 2.17579m-2.16015-2.1797l.5664 1.08594m15.80078-1.39453l-7 .60938m7-.60938l1.33594 2.0547m-2.35547-1.96876l1.33985 2.0586m-2.35547-1.96875l1.33593 2.05859m-2.35546-1.96875l.66796 1.02734m15.66797-1.5586l-6.93359 1.14063"/><g clip-path="url(#Z)"><path fill="none" stroke="#000" stroke-linecap="round" stroke-linejoin="round" stroke-miterlimit="10" stroke-width=".5" d="M467.02734 333.29297l1.48829 1.95312"/></g><path fill="none" stroke="#000" stroke-linecap="round" stroke-linejoin="round" stroke-miterlimit="10" stroke-width=".5" d="M466.01953 333.46094l1.48828 1.94922m-2.4961-1.78516l1.48829 1.95313"/><g clip-path="url(#aa)"><path fill="none" stroke="#000" stroke-linecap="round" stroke-linejoin="round" stroke-miterlimit="10" stroke-width=".5" d="M147.3125 319.375l-6.625 2.34375"/></g><path fill="none" stroke="#000" stroke-linecap="round" stroke-linejoin="round" stroke-miterlimit="10" stroke-width=".5" d="M147.3125 319.375l1.8086 1.65625m11.44921-1.80469l-6.51172 2.64453m6.51172-2.64453l1.88281 1.57031m11.07422-2.23828l-5.79297 3.97657m5.79297-3.97657l2.17578 1.13672m11.60938-.14844l-6.73438 2m6.73438-2l1.72266 1.75m11.72656-1.03906l-7.0039.57813m7.0039-.57813l1.32812 2.0664m-2.34765-1.98046l.66406 1.03125m13.63672-.2539l-6.9336-1.14844m6.9336 1.14843l.78125 2.32813m-1.79297-2.4961l.78516 2.32813m13.08203-.91406l-6.01563-3.63672m6.01563 3.63672l-.13672 2.44922m-.73828-2.98047l-.13672 2.45312m-.73828-2.98047l-.13672 2.44922m-.73828-2.98047l-.07031 1.22657m16.39843-.5586l-6.79297-1.79687m6.79297 1.79687l.5625 2.39063m-1.55078-2.65235l.5625 2.39063m-1.55078-2.65235l.28125 1.19532m15.125-1.45703l-7.02344-.22657m7.02344.22657l1.08203 2.20312m-2.10156-2.23437l1.07812 2.20312m-2.10156-2.23828l.53906 1.10156m14.69532-2.08203l-6.77344 1.8711m6.77344-1.8711l1.6875 1.78125m-2.67188-1.50781l1.6875 1.78125m11.98438-3.29688l-5.51563 4.35547m5.51563-4.35547l2.24609.98829m-3.05078-.35547l1.125.49218m12.79687-1.35546l-5.12109 4.8125m5.1211-4.8125l2.3203.79296m-3.0664-.08984l1.16016.39453m12.82421 3.79297l-4.96875-4.96875m4.2461 4.2461l-.35938 1.17577m15.42578-2.96484l-7.02734.0586m7.02734-.0586l1.16797 2.15625m-2.1914-2.14844l.58593 1.07813m13.69922-1.67578l-6.91797 1.23828m6.91797-1.23828l1.51563 1.92969m-2.52344-1.75l1.51563 1.92968m12.80859-2.09375l-6.92188 1.20313m6.92188-1.20313l1.50781 1.9375m-2.51562-1.76172l1.50781 1.9375m12.69531-2.58984l-6.6836 2.16016m6.6836-2.16016l1.76563 1.70703m-2.73828-1.39453l.8828.85547m13.26563-1.53516l-6.40625 2.89063m6.40625-2.89063l1.94141 1.5039m-2.8711-1.08202l.96876.75m12.875-1.84766l-5.60157 4.24219m5.60157-4.24219l2.22656 1.03516m-3.04297-.41797l1.11328.51953m12.88672-1.29688l-5.33984 4.56641m4.5625-3.90234l1.14062.44531m12.96875 3.4336l-5.375-4.52344m5.375 4.52343l-.51172 2.40235m13.97266-2.58203l-5.66406-4.16016m5.66406 4.16016l-.35547 2.42578m-.46875-3.03125l-.17578 1.21484m14.86719-3.63281l-6.76954 1.88281m6.76954-1.88281l1.6914 1.78125m-2.67578-1.50781l.84375.89062m13.42188-1.27734l-6.70313 2.11328m6.70313-2.11328l1.75 1.71875m-2.72657-1.41406l1.75 1.72265m-2.72265-1.41406l1.75 1.71875m-2.72657-1.41016l.875.85938m15.22657-2.14844l-6.42578 2.84375"/><g clip-path="url(#ab)"><path fill="none" stroke="#000" stroke-linecap="round" stroke-linejoin="round" stroke-miterlimit="10" stroke-width=".5" d="M466.77344 319.125l1.92969 1.51563"/></g><g clip-path="url(#ac)"><path fill="none" stroke="#000" stroke-linecap="round" stroke-linejoin="round" stroke-miterlimit="10" stroke-width=".5" d="M465.83984 319.53906l1.9297 1.51563"/></g><path fill="none" stroke="#000" stroke-linecap="round" stroke-linejoin="round" stroke-miterlimit="10" stroke-width=".5" d="M464.90625 319.95313l1.92969 1.51562"/><path fill="#00f" fill-rule="evenodd" d="M445.9375 476.52344h8.61719V466.3789h-8.61719v10.14453"/><path fill="azure" fill-rule="evenodd" d="M447.76953 468.21094h.83203v2.82422h3.28906v-2.82422h.83204v6.48047h-.83204v-2.91407h-3.28906v2.91407h-.83203v-6.48047"/><path fill="#ff3030" fill-rule="evenodd" d="M335.67188 449.89453h7.6953V439.75h-7.6953v10.14453"/><path fill="azure" fill-rule="evenodd" d="M337.5039 441.58203h.83594v5.73828h3.19141v.74219h-4.02734v-6.48047"/><path fill="#ff3030" fill-rule="evenodd" d="M269.09766 441.01953h7.6914V430.8711h-7.6914v10.14844"/><path fill="azure" fill-rule="evenodd" d="M270.92969 432.70703h.83203v5.73828h3.19531v.73828h-4.02734v-6.47656"/><path fill="#00f" fill-rule="evenodd" d="M392.67578 427.70313h8.6211v-10.14454h-8.6211v10.14454"/><path fill="azure" fill-rule="evenodd" d="M394.51172 419.39063h.83203v2.82421h3.28516v-2.82421h.83203v6.48046h-.83203v-2.91796h-3.28516v2.91796h-.83203v-6.48046"/><path fill="#00f" fill-rule="evenodd" d="M219.58203 409.94922h8.61719v-10.14453h-8.61719v10.14453"/><path fill="azure" fill-rule="evenodd" d="M221.41406 401.63672h.83203v2.82422h3.28907v-2.82422h.83203v6.48047h-.83203v-2.91797h-3.28907v2.91797h-.83203v-6.48047"/><path fill="#00f" fill-rule="evenodd" d="M370.48438 401.07422h8.62109v-10.14844h-8.6211v10.14844"/><path fill="azure" fill-rule="evenodd" d="M372.3164 392.76172h.83594v2.82031h3.28516v-2.82031h.83203v6.47656h-.83203v-2.91406h-3.28516v2.91406h-.83593v-6.47656"/><path fill="#ff3030" fill-rule="evenodd" d="M442.1914 383.32031h7.69532v-10.14844h-7.69531v10.14844"/><path fill="azure" fill-rule="evenodd" d="M444.02734 375.00781h.83204v5.73828h3.1953v.7422h-4.02734v-6.48048"/><path fill="#ff3030" fill-rule="evenodd" d="M282.41406 374.4414h7.6914v-10.14452h-7.6914v10.14453"/><path fill="azure" fill-rule="evenodd" d="M284.2461 366.1289h.83202v5.7422h3.19532v.73827h-4.02735v-6.48046"/><path fill="#ff3030" fill-rule="evenodd" d="M193.64453 347.8125h7.69531v-10.14453h-7.6953v10.14453"/><path fill="azure" fill-rule="evenodd" d="M195.47656 339.5h.83594v5.73828h3.1914v.74219h-4.02734V339.5"/><path fill="#ffffe0" fill-rule="evenodd" d="M162.46484 436.8125h22.1797v-10.19531h-22.1797v10.19531"/><path fill-rule="evenodd" d="M165.96094 428.45313h.51172v6.29296h-.78907v-4.48828h-1.38672v-.55469l.5586-.0664.2539-.05469.23047-.08984.20313-.14063.17187-.21094.14063-.29296.10547-.39454m4.8164 0l.23047.01954.21875.05468.20703.08985.19532.1211.18359.14843.17188.17578.30078.41797.24609.4961.17969.54687.10937.57812.03906.58985-.03906.59375-.10937.58593-.17969.55079-.2461.5039-.30077.42578-.17188.17969-.1836.15625-.1953.1211-.20704.09374-.21875.0547-.23047.01952-.23047-.01953-.21875-.05469-.20703-.09375-.1953-.12109-.1875-.15625-.17188-.17969-.30078-.42578-.2422-.5039-.17968-.55079-.11328-.58593-.03516-.59375h.83203l.02735.5625.08203.5078.125.44142.16406.375.1914.30078.21095.22265.22265.13672.22656.04688.22657-.04688.22265-.13672.21094-.22265.1914-.30079.16016-.375.125-.4414.08203-.50781.03125-.5625-.03125-.5625-.08203-.5-.125-.4336-.16015-.36719-.19141-.29296-.21094-.21094-.22265-.13281-.22657-.04688-.22656.04688-.22266.1328-.21093.21095-.1914.29296-.16407.3672-.125.43359-.08203.5-.02735.5625h-.83203l.03516-.58985.11328-.57812.17969-.54688.24219-.4961.30078-.41796.17187-.17578.1875-.14844.19531-.1211.20703-.08984.21875-.05468.23047-.01954m5.08985 0h.51172v6.29297h-.78907v-4.48828h-1.38672v-.55469l.5586-.0664.2539-.05469.22657-.08984.20312-.14063.17578-.21094.14063-.29296.10547-.39454m2.82422 2.17579h.78515l.01953-.31641.0625-.28906.09766-.25.14063-.21485.17968-.17578.22266-.1289.26562-.07813.3086-.03125.23828.02344.22266.0625.20703.10156.17578.13672.15234.17578.10938.20313.07422.23828.02343.26562-.01953.26563-.0664.22656-.10938.1914-.15625.17188-.19922.16016-.25.16797-.63281.38671-.53906.31641-.4375.3164-.34375.32423-.26563.33593-.1914.35157-.125.36718-.06641.39454-.02344.41796h4.21484v-.73828h-3.33203l.08203-.28515.11329-.23829.14843-.19921.1875-.1797.23047-.17187.27735-.17578.71875-.41797.41406-.20703.34766-.23047.27734-.25.22266-.26562.16406-.28125.10937-.28125.0625-.28516.02344-.28125-.04297-.38281-.1211-.34766-.1875-.30859-.25-.26172-.30468-.21484-.34375-.15625-.38281-.10156-.40625-.03125-.4336.03125-.39843.09765-.35547.16797-.30469.23438-.25.30468-.1836.375-.11718.44531-.03906.51954"/><path fill="#ffffe0" fill-rule="evenodd" d="M297.35938 428.58203h22.17968v-10.1914h-22.17969v10.1914"/><path fill-rule="evenodd" d="M300.85938 420.22266h.5078v6.29296h-.78515v-4.48828h-1.38672v-.55468l.5586-.06641.25-.05469.23046-.08984.20313-.14063.17578-.21093.14063-.29297.10546-.39453m4.8125 0l.23047.01953.21875.05469.20704.08984.19921.1211.1836.14843.17187.17578.30078.41797.2422.4961.17968.54687.11328.57812.03906.58985-.03906.59375-.11328.58594-.17969.55078-.24219.5039-.30078.42969-.17187.17969-.1836.15234-.19921.1211-.20704.09375-.21875.05859-.23046.01953-.22657-.01953-.21875-.0586-.21094-.09375-.1953-.12109-.1836-.15234-.17188-.17969-.30078-.42969-.24219-.5039-.17968-.55079-.11328-.58593-.03907-.59375h.83204l.03125.5625.08203.50781.125.4414.16406.375.1875.30079.21094.22265.22265.13672.22656.04688.22657-.04688.22265-.13672.21094-.22265.1914-.30078.16407-.375.125-.44141.08203-.50781.02735-.5625-.02735-.5586-.08203-.5039-.125-.4336-.16406-.36718-.1914-.28907-.21095-.21484-.22265-.13281-.22656-.04297-.22657.04297-.22265.13281-.21094.21484-.1875.28907-.16406.36718-.125.4336-.08204.5039-.03125.5586h-.83203l.03907-.58985.11328-.57812.17969-.54688.24218-.49609.30078-.41797.17188-.17578.1836-.14844.1953-.1211.21094-.08983.21875-.0547.22656-.01952m5.09375 0h.50782v6.29296h-.78516v-4.48828h-1.39062v-.55468l.5625-.06641.25-.05469.23046-.08984.20313-.14063.17188-.21093.14453-.29297.10546-.39453m2.82422 2.17578h.78516l.01953-.3164.0586-.28517.10156-.2539.14062-.21485.17969-.17578.22266-.1289.26562-.07813.3086-.02734.23828.01953.22265.0625.20313.10156.17969.14063.14843.17187.11328.20703.07032.23438.02734.26562-.02344.26563-.0625.22656-.11328.1914-.15234.17188-.20313.16016-.2461.16797-.6328.39062-.53907.3125-.4375.3164-.34765.32423-.26172.33594-.1914.35156-.125.36719-.07032.39453-.01953.41796h4.21094v-.73828h-3.33204l.08204-.28515.11718-.23828.14844-.19922.1836-.17969.23437-.17188.27734-.17578.71485-.41796.41797-.20313.34375-.23047.28125-.2539.21875-.26563.16406-.27734.11328-.28516.0625-.28516.01953-.28125-.04297-.3828-.11719-.34767-.1914-.30859-.25-.26172-.30078-.21484-.34766-.15625-.3789-.09766-.40625-.03515-.4375.03125-.39454.10156-.35546.16406-.3047.23438-.25.30468-.18359.375-.11718.44532-.03907.51953"/><path fill="#ffffe0" fill-rule="evenodd" d="M292.57031 463.4414h22.1836V453.25h-22.1836v10.1914"/><path fill-rule="evenodd" d="M296.07031 455.08203h.51172v6.29688h-.78906v-4.4922h-1.38672v-.55468l.5586-.0664.2539-.05079.22656-.08984.20313-.14453.17578-.20703.14062-.29688.10547-.39453m4.8164 0l.22657.01953.21875.05469.21094.08984.19531.1211.1836.14844.17187.17578.30078.42187.24219.49219.17969.54687.11328.57813.03906.58984-.03906.59375-.11328.58594-.1797.55469-.24218.5-.30078.42969-.17188.17968-.18359.15235-.19531.125-.21094.08984-.21875.0586-.22656.01952-.23047-.01953-.21875-.05859-.20703-.08984-.19922-.125-.1836-.15235-.17187-.17969-.30078-.42968-.24219-.5-.17969-.55469-.11328-.58594-.03906-.59375h.83594l.02734.5664.08203.50392.125.4414.16407.375.1914.30078.21094.22266.22266.13672.22656.04687.22265-.04687.22266-.13672.21094-.22266.1914-.30078.16407-.375.125-.4414.08203-.50391.02734-.5664-.02734-.5586-.08203-.5-.125-.4375-.16406-.36328-.19141-.29297-.21094-.21485-.22265-.1328-.22266-.04298-.22656.04297-.22266.13281-.21094.21485-.1914.29297-.16407.36328-.125.4375-.08203.5-.02734.5586h-.83594l.03906-.58985.11329-.57813.17968-.54687.24219-.49219.30078-.42187.17188-.17579.18359-.14843.19922-.1211.20703-.08984.21875-.05469.23047-.01953m5.08984 0h.50781v6.29688h-.78515v-4.4922h-1.39063v-.55468l.5625-.0664.25-.05079.23047-.08984.20313-.14453.17578-.20703.14062-.29688.10547-.39453m2.82422 2.17578h.78516l.01953-.3164.0586-.28516.10156-.2539.14062-.21485.17969-.17578.22265-.1289.26563-.07813.3086-.02735.23827.01954.22266.0625.20313.10156.17968.14062.14844.17188.11328.20703.07422.23437.02344.26563-.02344.26953-.0625.22266-.11328.1914-.15235.17188-.20312.16406-.2461.16406-.6328.39063-.53907.3125-.4375.3164-.34765.32422-.26172.33594-.19141.35156-.125.3711-.0664.39062-.02344.42188h4.21093v-.7422h-3.33203l.08594-.28515.11328-.23437.14844-.20313.1875-.17969.23047-.17187.27734-.17578.71875-.41797.41406-.20313.34375-.23046.28125-.25391.21875-.26563.16407-.27734.11328-.28515.0625-.28516.01953-.28125-.03906-.38281-.1211-.34766-.1914-.3086-.25-.26171-.30079-.21485-.34765-.15625-.3789-.09765-.40626-.03516-.4336.03125-.39843.10156-.35547.16407-.30469.23437-.25.30469-.18359.375-.11719.44531-.03906.51953"/><path fill="#ffffe0" fill-rule="evenodd" d="M424.19922 427.9336h22.17969v-10.19141h-22.1797v10.1914"/><path fill-rule="evenodd" d="M427.69922 419.57422h.50781v6.29687h-.78515v-4.49218h-1.39063v-.5547l.5586-.0625.2539-.05468.23047-.08984.20312-.14063.17188-.21094.14453-.29687.10547-.39453m4.8125 0l.23047.01953.21875.05469.20703.08984.19531.1211.1836.15234.17187.17187.30469.42188.24219.49219.17968.54687.10938.57813.03906.59375-.03906.59375-.10938.58203-.17969.55469-.24218.5-.30469.42968-.17188.17969-.18359.15234-.19531.125-.20703.08985-.21875.0586-.23047.01952-.23047-.01953-.21875-.0586-.20703-.08984-.19531-.125-.1875-.15234-.16797-.17969-.30469-.42969-.24219-.5-.17969-.55468-.10937-.58203-.03906-.59375h.83203l.02734.5625.08203.5039.12891.44531.16016.375.1914.30079.21094.21875.22266.13671.22656.04688.22656-.04688.22266-.13671.21094-.21875.1914-.30079.16016-.375.1289-.4453.07813-.50391.03125-.5625-.03125-.5625-.07813-.5-.1289-.4375-.16016-.36329-.1914-.29296-.21094-.21485-.22266-.13281-.22656-.04297-.22656.04297-.22266.13281-.21094.21485-.1914.29296-.16016.36329-.1289.4375-.08204.5-.02734.5625h-.83203l.03906-.59375.10938-.57813.17968-.54687.24219-.4922.30469-.42187.16797-.17187.1875-.15235.1953-.12109.20704-.08984.21875-.05469.23047-.01953m5.08984 0h.51172v6.29687h-.78906v-4.49218h-1.38672v-.5547l.5586-.0625.2539-.05468.22656-.08984.20313-.14063.17578-.21094.14062-.29687.10547-.39453m2.82422 2.17578h.78906l.01954-.3164.05859-.28516.09765-.2539.14063-.21485.17969-.17188.22656-.1289.26172-.08204.3086-.02734.23827.01953.22266.0625.20703.10156.17969.14063.14844.17188.11328.20703.07031.23437.02344.26563-.01953.26953-.06641.22265-.10938.19141-.15625.17188-.19921.16406-.25.16406-.63282.39063-.53515.3125-.4375.3164-.34766.32422-.26562.33594-.1875.35156-.125.3711-.07032.39062-.01953.42187H444.5v-.74218h-3.33203l.08203-.28516.11328-.23438.14844-.20312.1875-.17969.23047-.17187.27734-.17578.71875-.41407.41406-.20703.34766-.23047.28125-.25.21875-.26953.16406-.27734.10938-.28516.0664-.28515.01954-.28125-.04297-.38282-.1211-.34765-.1875-.3086-.25-.26171-.30469-.21094-.34375-.16016-.3828-.09765-.40626-.03516-.4336.03515-.39843.09766-.35547.16797-.30469.23438-.24609.30078-.1875.375-.11719.4453-.03906.51954"/><path fill="#ffffe0" fill-rule="evenodd" d="M203.32813 379.11328h22.17968v-10.1914h-22.17969v10.1914"/><path fill-rule="evenodd" d="M206.82422 370.7539h.51172v6.29298h-.78906v-4.48829h-1.38672v-.55468l.55859-.06641.2539-.05469.22657-.08984.20703-.14063.17188-.21093.14062-.29297.10547-.39453m4.8164 0l.22657.01953.22265.05469.20703.08984.19532.1211.1836.14843.17187.17578.30078.42188.2461.49218.17968.54688.10937.57812.03907.58985-.03907.59375-.10937.58594-.17969.55468-.2461.5-.30077.42969-.17188.17969-.1836.15234-.1953.1211-.20704.09375-.22265.05859-.22656.01953-.23047-.01953-.21875-.0586-.20703-.09375-.19922-.12109-.1836-.15234-.17187-.17969-.30078-.42969-.2422-.5-.17968-.55469-.11328-.58593-.03516-.59375h.83203l.02735.5625.08203.50781.125.4414.16406.375.1914.30079.21095.22265.22265.13672.22656.04688.22657-.04688.22265-.13672.21094-.22265.1875-.30078.16406-.375.125-.44141.08203-.50781.03125-.5625-.03125-.5586-.08203-.5-.125-.4375-.16406-.36718-.1875-.28907-.21094-.21484-.22265-.13281-.22656-.04297-.22657.04297-.22265.13281-.21094.21484-.1914.28907-.16407.36718-.125.4375-.08203.5-.02734.5586h-.83204l.03516-.58985.11328-.57812.17969-.54688.24219-.49218.30078-.42188.17187-.17578.1836-.14844.19922-.1211.20703-.08983.21875-.0547.23047-.01952m5.08984 0h.50781v6.29296h-.78516v-4.48828h-1.38671v-.55468l.55859-.06641.25-.05469.23047-.08984.20312-.14063.17578-.21093.14063-.29297.10547-.39453m2.82422 2.17578h.78515l.01953-.3164.0625-.28517.09766-.2539.14063-.21485.17968-.17578.22266-.1289.26563-.07813.30859-.02734.23828.01953.22266.0625.20703.10156.17578.14063.14844.17187.11328.20703.07422.23438.02343.26562-.01953.26954-.0664.22265-.10938.1914-.15625.17188-.20312.16406-.2461.16407-.63281.39062-.53906.3125-.4375.3164-.34375.32423-.26563.33594-.1914.35156-.125.36719-.06641.39453-.02344.41796h4.21485v-.73828h-3.33203l.08203-.28515.11328-.23828.14844-.19922.1875-.17969.23046-.17188.27735-.17578.71875-.41796.41406-.20313.34766-.23047.27734-.2539.22266-.26563.16406-.27734.10937-.28516.0625-.28516.02344-.28125-.04297-.3828-.1211-.34767-.1875-.30859-.2539-.26172-.30078-.21484-.34375-.15625-.38281-.09766-.40625-.03515-.4336.03125-.39843.10156-.35547.16406-.30469.23438-.25.30468-.1836.375-.11718.44532-.03906.51953"/></g></defs><use xlink:href="#ad"/></svg>