<svg xmlns="http://www.w3.org/2000/svg" role="img" xmlns:xlink="http://www.w3.org/1999/xlink" viewBox="142.45 309.95 326.84 171.84"><defs><clipPath id="a"><path d="M144 311.67188h1v168.65625h-1zm0 0"/></clipPath><clipPath id="b"><path d="M144 311.67188h324v168.65625H144zm0 0"/></clipPath><clipPath id="c"><path d="M467 311.67188h1v168.65625h-1zm0 0"/></clipPath><clipPath id="d"><path d="M144 477h2v3.32813h-2zm0 0"/></clipPath><clipPath id="e"><path d="M156 476h3v4.32813h-3zm0 0"/></clipPath><clipPath id="f"><path d="M170 476h2v4.32813h-2zm0 0"/></clipPath><clipPath id="g"><path d="M182 476h4v4.32813h-4zm0 0"/></clipPath><clipPath id="h"><path d="M196 476h2v4.32813h-2zm0 0"/></clipPath><clipPath id="i"><path d="M208 476h5v4.32813h-5zm0 0"/></clipPath><clipPath id="j"><path d="M220 478h8v2.32813h-8zm0 0"/></clipPath><clipPath id="k"><path d="M233 479h8v1.32813h-8zm0 0"/></clipPath><clipPath id="l"><path d="M239 479h2v1.32813h-2zm0 0"/></clipPath><clipPath id="m"><path d="M247 478h7v2.32813h-7zm0 0"/></clipPath><clipPath id="n"><path d="M252 479h3v1.32813h-3zm0 0"/></clipPath><clipPath id="o"><path d="M260 478h7v2.32813h-7zm0 0"/></clipPath><clipPath id="p"><path d="M273 478h8v2.32813h-8zm0 0"/></clipPath><clipPath id="q"><path d="M286 478h8v2.32813h-8zm0 0"/></clipPath><clipPath id="r"><path d="M292 479h2v1.32813h-2zm0 0"/></clipPath><clipPath id="s"><path d="M300 479h8v1.32813h-8zm0 0"/></clipPath><clipPath id="t"><path d="M306 479h2v1.32813h-2zm0 0"/></clipPath><clipPath id="u"><path d="M313 479h8v1.32813h-8zm0 0"/></clipPath><clipPath id="v"><path d="M319 480h2v.32813h-2zm0 0"/></clipPath><clipPath id="w"><path d="M326 479h9v1.32813h-9zm0 0"/></clipPath><clipPath id="x"><path d="M332 479h2v1.32813h-2zm0 0"/></clipPath><clipPath id="y"><path d="M340 478h8v2.32813h-8zm0 0"/></clipPath><clipPath id="z"><path d="M346 478h4v2.32813h-4zm0 0"/></clipPath><clipPath id="A"><path d="M353 478h8v2.32813h-8zm0 0"/></clipPath><clipPath id="B"><path d="M359 479h2v1.32813h-2zm0 0"/></clipPath><clipPath id="C"><path d="M366 479h9v1.32813h-9zm0 0"/></clipPath><clipPath id="D"><path d="M372 479h2v1.32813h-2zm0 0"/></clipPath><clipPath id="E"><path d="M379 479h9v1.32813h-9zm0 0"/></clipPath><clipPath id="F"><path d="M386 480h3v.32813h-3zm0 0"/></clipPath><clipPath id="G"><path d="M393 478h8v2.32813h-8zm0 0"/></clipPath><clipPath id="H"><path d="M399 478h4v2.32813h-4zm0 0"/></clipPath><clipPath id="I"><path d="M406 478h8v2.32813h-8zm0 0"/></clipPath><clipPath id="J"><path d="M412 478h2v2.32813h-2zm0 0"/></clipPath><clipPath id="K"><path d="M420 478h8v2.32813h-8zm0 0"/></clipPath><clipPath id="L"><path d="M426 478h4v2.32813h-4zm0 0"/></clipPath><clipPath id="M"><path d="M433 477h7v3.32813h-7zm0 0"/></clipPath><clipPath id="N"><path d="M449 476h3v4.32813h-3zm0 0"/></clipPath><clipPath id="O"><path d="M460 478h7v2.32813h-7zm0 0"/></clipPath><clipPath id="P"><path d="M466 478h2v2h-2zm0 0"/></clipPath><clipPath id="Q"><path d="M144 465h4v4h-4zm0 0"/></clipPath><clipPath id="R"><path d="M144 452h4v4h-4zm0 0"/></clipPath><clipPath id="S"><path d="M144 438h4v4h-4zm0 0"/></clipPath><clipPath id="T"><path d="M144 425h4v4h-4zm0 0"/></clipPath><clipPath id="U"><path d="M144 412h4v4h-4zm0 0"/></clipPath><clipPath id="V"><path d="M144 398h4v5h-4zm0 0"/></clipPath><clipPath id="W"><path d="M144 384h3v6h-3zm0 0"/></clipPath><clipPath id="X"><path d="M144 371h3v6h-3zm0 0"/></clipPath><clipPath id="Y"><path d="M144 357h3v7h-3zm0 0"/></clipPath><clipPath id="Z"><path d="M144 346h4v2h-4zm0 0"/></clipPath><clipPath id="aa"><path d="M466 346h2v4h-2zm0 0"/></clipPath><clipPath id="ab"><path d="M144 332h4v3h-4zm0 0"/></clipPath><clipPath id="ac"><path d="M466 332h2v3h-2zm0 0"/></clipPath><clipPath id="ad"><path d="M144 319h4v3h-4zm0 0"/></clipPath><clipPath id="ae"><path d="M466 318h2v3h-2zm0 0"/></clipPath><clipPath id="af"><path d="M465 318h3v3h-3zm0 0"/></clipPath><g id="ag" clip-path="url(#clip1)"><path fill="#fff" fill-opacity="0" fill-rule="evenodd" d="M0 0h1000v1000H0zm0 0"/><path fill="#d3d3d3" fill-opacity="0" fill-rule="evenodd" d="M162.15234 355.86719l-.23437.29297.0586.23437.11718.17188.17578.23437.29297.34766.11328.0586.11719-.17188.0586-.23438.17577-.17578.46485-.17578h.69922l.23437.29297.28906.8164.0586.17579.17578.23046.35156.23438.69922.69922.17188.17578.23437.34765.23438.41016.28906.58203.41015.46485.23047.23437.23438.17578.11719.23047.17578.29297.17187 1.16406v.23438l.0586.28906.05859.11719.11719.11719.34765.41015.11719.17188.17578.17578.17578.23437.11719.17188.17188.35156.05859.23438.23437.40625.23438-.0586-.17578.17578-.0586.92969h-.58203l-.23437-.11328-.34766.11328-.11719.11719-.05859.29297-.0586.17578-.11718.17187-.46484.29297-.0586.23438-.0586.11328v.64453l.0586.17187v.41016l.0586.0586v.40624l.05859.40625.11719.17579.05859.05859.23047.64062-.0586.29297v.69922l-.05859.58203v.23438l-.0586.23047-.05468.35156v1.92187l.05469.1172h.42578l-.36719.11718-.02344.35156.89063 1.16797 1.74219.53906 1.33984.35938v.53906l.08984.8086.53516.71484 1.51953.26953.89063-.08594.08984 1.16406.53516.1797 1.16015-.1797 2.05469-.98437 1.16016-.36328 1.8789-.17578 1.69531-.1797-.17968.71876-1.51563.08594-1.25.08984-.80469.26953-1.07421.8086.26953.71875.53515.89843-.17968.625-.26563.8086.26563 1.07812.625.89844.80468.17969 1.25-.1797-.26562.72267.09766.5039.05468.29297v.17188l.0586.29296v.40625l.17578.1172.35156.11718h.40625l.29297-.17578.11328-.11719.0586-.11719.11718-.23047.0586-.17578.35156-.46484.23047-.17578.17578-.0586.17578.0586.0586.17578.11718.98828.05469.46875.0586.17188.11718.23437.17578.0586.8164.05859h.28907l.11719.23437.05859.40625.0586.35156v1.10547l.11718.29297.11719.34766.28906.69922.17578.35156.58203.7539.35157.17579.17187.0586.46875.23437.64063.46484.34765.23438.29297.17578.29297.05468.23047.0625.8164.34766.29297.17578.11328.17188.35157.35156.11719.17578.52343.64063v.28906l.0586.35156v.34766l.05859.35156.0586.28906.11718.0586.17188.05859h.17578l.58203.23437.17578.1172.17578.28905.17578.23438.11328.23437.29297.23047.11719.11719v.41016l.0586.05468.28906.23438.23437.11719.0586.11718.11718.17188.0586.11719.23047.23437.05859.17578.23437.0586.1172.05859-.1172.11328-.05859.11719v.11719l-.11719.29296-.11719.28907v.58203l.17579.11719.11718.05859.0586.11719.11719.11719.11328.05859.17578.34765.0586.35157.05858.40625v.17578l-.05859.17578-.11719.69922v.17187l.1172.17579.29296.29296h.40625l.17578.1172.11719.17187.11719.29296v.23438h-.52735l-.23047-.23438h-.23437l-.17578.0586-.0586.69922.0586.34765.11719.17579.17578.41015.11718.23047.28907.46875.17578.05469h.52344l.23437.0586.75781.64062.0586.29296v.23438l.05859.0586.23047.34765v.35156l-.11719.17188v.29297l.29297.28906.29297.17578.17187.0586.29297.17577.29297.1172.58203.40624.28906.23438.29297.17578.21875.16015.01563.01172.23047.17579.64062.52343.17578.23438.1172.17578.17577.17578.11328.17188v.64062l.1172.17578.46874.11719.58203.11719.23438.05859.23047.11328.29297.11719.11328.0586.58593.35156.28907.17187.17578.0625.17578.05469.17578.0586.69922.35155.28906.17579.23438.05468.28906.17578.23437.1172.64063.40624.29297.11719.17187.0586.23438.05859.41015.05859.23047.0586.23438.11718.0586.17188-.41017.17578.46875.0586.0586.29296.11328.23438.17578.05468.23438.0586.17578.05859.40625.11719.64062.23437.11719.17188.0586.23437v.17578l-.0586.1172-.0586.40624.23438.23438.11719.05859.34766.11719.64062.23047.17578.11718.28906.1172.17578.17577.23438.46485.58203 1.10546.17578.17579.34766.17578.17578.11719.35156.11718 1.04688.52344.23437.0586.46485.11327.29297.0586.46484.17578.75781.58203.23438.23438.34765.46484.17578.17578.28907.23438.8164.69921.29297.17579.28906.28906.29297.17578.29297.28906.69531.64063.17578.17578.29297.23437.28907.23438.46875.28906.64062.58203.34766.23438.23437.29297.34766.34765.35156.46485.9336.99218.34765.40625.11719.17579.23437.05859.11328.11719.64454.17578.23047.11328.23437.0586.29297.17577.23047.1172.9336.69921.40624.40625.23438.17578.40625.17578.23437.11719.8164.34766.34766.23437.23438.11719.29297.28906.23047.11719.7578.35156.35157.17188.23047.05859.29297.11719.23437.0586.8711.17577h.8164l.46875.23047.17188.0586.875.69921.46484.1172.29297.05858.17578.0586.23047.0586.46875.05859.34766.05859.35156.0586.40625.05859h.29297l.17187.0586v.23046l.17578.17578h.29297l.34766.0586.35156.05859.69922.11719h.64063l.46484-.23438.29297-.17578.17187-.11719.41016-.17187.28906-.17578.9336-.46485.46875-.29297.52343-.29296.46485-.17188.46484-.17578 1.05078-.46485.28906-.11718.41016-.11719.28906-.11719.52735-.17578 1.51562-.69922.58203-.34765.28907-.0586.29297-.0586.34765-.11718.875-.23047.35156-.11719h.11329l.23437-.05859.875-.23437.23438-.0586h.8125l.35156-.0586.8164-.11718.17188-.0586.35156-.05468.29297-.0586.23047-.05859.8164-.17578.17579-.0586h.34765l.23438-.05859.46484-.11718.75781-.17188.23438-.0586h.34765l.41016-.11718.28906-.0586 1.28516-.05859h.28906l.41016-.0586.23047-.05858h.17578l.875-.1172h.40625l.41015-.11718h.34766l.35156-.11328.8711-.0586h1.75l1.04687.28907.41016.11719.28906.11718.35156.11719.28907.11719 1.05078.17187.28906.0586h.29297l.29297.05859.17187.0586.41016.05859.17187.0586.1172.05858h.11718l.11719.0586.35156.0586h.11328l.41016.0664 1.92187.39453 1.92578.39453 1.51953.44922 1.69532.71875 2.14453.80469 1.60547-.71875 1.42968-.80469 1.16016-1.07813 1.25-.44921 3.03516-.71875 1.875-.35938 2.14453-1.34765 2.23437-1.25391 2.5-1.25781 1.69531-.44922 1.78516-.17969 1.16016-.26953.625.53906 1.33984-.26953.71485-.98828.98437-1.34375.44531-.17969.80469-.35937 1.875-.53907 1.78516-.44921 1.25-.26954 1.16015-.08984 1.69922-.08984 1.96094-.26954 1.25-.08984h.53906l.625-.08984h.89063l2.14453-.17969 2.41015-.17969 2.58985-.08984 1.69531.17969 1.60938.08984 1.42968.35938 1.16016.71875 1.875.98828 1.16015 1.52734.26563.71484.6289.08985.35548.89844.53515.53906.53516 1.52734 1.07422.35938h.53515l-.80469.53515.08985 1.70703.71484 2.69532.89063.80468.89453.98829.71484 1.2578 1.78516.53907 1.51953-.17969.35547 1.34375 1.60937-.80469.98047-.53906.26953.26953.31641-.21484.21875-.14453.80078.44922.44922-.35938h.35547l.53515-.26953.53907-.71875.53515-.26953.625-.98828 1.16016.44922.83984.3711 1.39454.61718 1.6953-.17969h1.60548l1.78515.08985.17969-1.70704.53516-1.34375.80468.26954.4922.84765.40233.40625-.08984.53906v.35938l.71485.44922.71093-.26953h1.42969l.35938.98828.4453 1.25781.71485 1.34375 1.25.6289 1.69531.62891.71485-.17969.17969-.53906.98046-.08984.44922.35937.08594 1.25782-.26563.6289-.53515.17969v.53906l.71484.98438.26563.53906.98437.98828.80078 1.07813-.26562.35937-.08985.89844-.625 2.33203-.35546 2.0664-.08985 1.79298-.17969.71875-.08984.53906v1.4375l-.98047 1.88281-.35937 1.70703-.53516.89844-.80469 1.16797-.26562.53906 2.05469 1.2539.08593.35938-.35546.53906-.08985-.17968v.80859l.08985 1.4375-.44532.71484-1.07422.09375-.26562.71485.53515.89844.8047.71875 1.16015.80859 1.33984.26953.44531.35938-.35546.44921-1.78907-.08984-1.25-.44922-.71484-.71875-.625-.08984-.17578 3.58984-.1875 1.3086h89.35937V311.70313h-55.26953v49.08203l.76172.125 3.28906.54296 2.02344 2.83594v2.7539l2.35156.33204 2.34766.33203h4.05078l-1.3789 4.16016-2.02344.70703-2.02344.70312-.54297.34375-2.59375 1.6172-.1875.11718-2.02344-2.07813-.73046-2.74218-2.67188-2.07813-1.375-3.5-.0664-.08203-1.95704-2.67188 2.75-1.41796v-49.08204H294.42187v91.41407l.1172.03125.1328.01172.07422.07421.10547.04688.08985.0586.08593.05859.08985.0586.29687.29687.0586.08984.03125.11719.02734.11719.01563.13671-.03125.1172-.0586.08983-.0586.08594-.04296.10547-.04688.10156-.02734.1211v.14453l.17578.26953.14844.14844.07422.08594.07422.07421.04296.10547.0625.08985.0586.08593.04297.10547.0586.08985.04687.10156.04296.10547.0586.08594.11719.17968.07421.07422.0625.08594.0586.08984.04297.10547.0586.08985.05858.08593.0625.08985.0586.08984.04297.10156.11719.17969.07421.07422.0586.08594.07422.07421.08984.0586.10547.04687h.14844l.1328-.01562.13282.01562.10156-.04687.07422-.07422.04688-.10156-.01563-.13281v-.14844l-.04687-.10547-.02735-.11719-.04687-.10156-.02735-.1211-.04296-.10156-.0625-.08984-.04297-.10156-.04297-.10547-.03125-.11719-.01563-.13281-.01171-.13672.08593-.0586.0586-.08593.12109-.03125.04297.10547.01562.1328v.1172l.0586.10156.0586.08984.08983.0586.14844.14843.0586.08985.04296.10547-.01171.10156.08593.0586.10547.04687.08594.0586.08984.05858.07422.07422-.11719.02735-.10546.04687-.08594.0586-.07422.07421-.0586.08985-.0625.08594-.02734.12109-.04687.10156-.04297.10547-.03125.11719-.01172.13281-.01563.13281v.14844l.02735.11719.04687.10547.04297.10156.0586.08984.07421.07422.08985.0586.07422.07421.08984.0586.0586.08984.04296.10547.04688.10156.11719.03125.1328.01563h.14845l.11718-.03125.10547.04297.04297.10547.04688.10156.02734.1211L299.5 410l.02734.11719.03125.1211.02735.11718.10547.04297.10156.04687.13281-.01562.14844.14844.0625.08593.07422.07422.07031.07422.08984.0625.10547.04297.10156.04297.1172.03125.13671.01562.11719-.03125.07422-.07422.02734-.11718-.01172-.13282-.03125-.12109-.02734-.11719.04297-.10547h.11719l.08984.0625.11719.02735h.14843l.13282.01562h.14843l.13282.01563.1328-.01563h.14845l.1328-.01562.13282-.01172.13672.01172.11719-.02735.13281-.01562.1914-.0586-.05859.17579-.01562.1328-.02735.1211-.01562.13281-.0586.08594-.1328.01563-.10548.04687-.10546.04297-.1172.03125-.11718.02735-.26563.03125h-.14843l-.13281.01562-.07422.07422.05859.08594.14844.14843.11719.1797.07421.0703.08985.0625.08984.0586.08594.0586.08984.05858.10156.04297.10547.0625.10547.04297.08594.0586.10547.04687.10156.04297.17969.11719.0586.08984-.04298.10156-.04687.10547.01562.13281.22266.22266.0586.08985.04296.10156.03125.1211.04297.10155.01563.13282.03125.11718.01171.13672.03125.11719.14844.14844.10156.04297.10547.04296.1172.03125.1328.01563.13672.01563h.11719l.11719-.03125.08984-.0586.04297-.10547.04688-.10156.04296-.10547.03125-.11719.01172-.1328v-.14845l-.01172-.1328-.01562-.13282-.03125-.11719-.04297-.10547-.04688-.10547-.04296-.10156-.04297-.10547-.01563-.13281.01563-.13281.02734-.11719.03125-.11719.02735-.1211.04687-.10155.08984-.0586.08594-.0625.07422-.07422.08984-.05859.22266-.22266.0586-.08593.07421-.07422.11719-.17969.0586-.08594v-.14844l-.07423-.07421-.10156-.04688-.10547-.04297-.10156-.04297-.0586-.08984-.04687-.10547-.02734-.11719.08984-.05859.11719-.03125.10156-.04297.17969-.11719.14844-.14843.01172-.13282-.01172-.10546-.08985-.0586-.1328.01563h-.14845l-.1328.01562-.13282-.01562-.1211-.03125-.08593-.0586-.07422-.07422-.0586-.08984-.0625-.08594-.11718-.17969-.0586-.08593.03125-.1211.08594-.05859.1211-.03125.05859-.08594v-.1211l-.03125-.11718-.0586-.08984-.05859-.08594-.04687-.10547-.02735-.11719-.01562-.1328.0586-.08985.07421-.07422.08984-.0586.1172-.17968.07421-.07422.0586-.08594.14843-.14844.1211-.03125.1328-.01562.13282.01562.07422.07422.04297.10547.01562.13281-.03125.1172-.11719.03124-.1328.01172-.14844.14844-.04297.10547-.04688.10156-.02734.1211-.03125.11718v.14844l.03125.11719.04297.10546.05859.08985.07422.07031.07422.07422.11719.03125.12109.02734.11719-.02734.1328-.01563h.1172l.08984.0586.07422.07422.04687.10546.0586.08594.10156.04688.13281.01562.10547.04297.08594.0586-.01172.10546-.07422.07422-.17969.11719-.05859.08984-.08984.0586-.07032.07422-.07421.07421-.0625.08985-.02735.11719-.01562.1328.01562.13282-.01562.13281v.14844l.01562.13281.02735.1172.03125.12108.07421.07422.08985.0586.08594.0586.08984.05858.11719.03125v.08594l-.10157.04688-.08984.0586-.26563.03124-.11718.02735h-.14844l-.10547.04296-.10156.04688-.0586.08984-.0625.23438-.01171.13281-.03125.1211-.01563.1328v.29298l-.01172.1328.01172.13673.01563.1328.1328.01563.13282.01172.1211.03125.08593.0586.07422.07421.04688.10547.04296.10157.01563.1328v.44532l-.01563.13281v.44532l.03125.26562.02735.11719.01562.13281.03125.11719.08594.21094.03125.26562v.14844l-.03125.11719-.02734.11718-.03125.1211-.02735.11719-.03125.11718-.03125.1211-.01171.1328-.01563.13282.08984.0586.1172-.03125.10155.01562.04688.10547-.03125.26562v.44141l-.04297.10547-.04688.10547-.04296.10156-.04297.10547-.0586.08594-.03125.12109-.04296.11719-.03125.11719-.01563.1328.01563.13282.05859.08984.10547.04688.08594.0586.05859.08593-.01172.13672-.03125.11719-.04297.10156v.44531l-.01562.13281v.14844l-.03125.11719-.04297.10547-.02735.11719-.04687.10546-.04297.10157-.03125.12109-.02734.11719-.03125.13281-.03125.11719-.02735.11719-.04297.10546-.03125.1172-.03125.12108-.01171.13282-.01563.13281v.29688l.02734.11718v.14844l.04688.39844.02734.11719.0586.08984.12109.03125h.14844l.13281-.01563.0586.08985v.11719l-.0586.08984-.08984.0586-.10157.04296-.10546.04688-.08985.05859-.08594.0586-.13671.01562-.1172-.03125-.1328-.01563-.10157.04688-.0625.08594-.01172.13671-.01562.13282-.03125.11719-.02735.11718-.01562.13281-.03125.1211v.29687l.01563.13282.03125.11718v.14844l.01171.13281v.14844l-.02734.11719-.04688.10156-.02734.1211-.03125.11718-.0586.08985-.07421.07421-.10156.04297-.10547.04688-.11719.02734-.1211.03125-.10156-.04687.0586-.08594.10547-.04688.02734-.11718.03125-.11719.02734-.1211.03125-.11718v-.14844l.01563-.13281-.03125-.11719-.04297-.10547-.10547.01563-.07422.07422-.10156.04296-.08984.0625-.07422.07422-.04297.10157-.01563.1328-.03125.1172L304.25 426l-.03125.11719-.02734.11719-.03125.12109-.02735.11719-.03125.11718-.04297.10547-.08984.0586h-.08984l-.1172-.03125-.03124-.08594.01562-.13672-.03125-.11719v-.14844l-.01171-.1328v-.14844l-.0625-.23438-.02735-.1211-.04297-.10156-.04687-.10546-.0586-.08594-.05859-.08985-.04297-.10546-.0625-.08594-.14844-.14844-.0703-.07422-.10548-.04687-.10547-.04297-.10156-.04297-.29687-.29688-.08985-.07421-.08594-.0586-.10546-.04297-.08985-.0625-.08594-.0586-.10546-.04296-.08985-.0586-.08594-.0625-.07421-.0703-.10547-.04688-.08594-.0586-.10547-.04296-.08984-.0625-.10156-.04297-.10547-.04297-.08594-.0586-.10547-.04687-.10547-.04297-.10156-.04687-.08985-.0586-.10156-.04297-.10547-.04296-.08984-.0625-.11719-.02735-.13281-.01562-.13281.01562H299.75l-.13281.01563-.11719-.03125-.08984-.0586-.07422-.07422-.08985-.05859-.10156-.04688h-.14844l-.12109-.02734-.10156-.04297-.07422-.07422-.11719-.17968-.08984-.0586-.10156-.04297-.08985-.0625-.10547-.04296-.08984-.0586-.08594-.0586-.10547-.04687-.0586-.08594-.05858-.08984-.04297-.10547-.04688-.10156-.07422-.07422-.08594-.0586-.07421-.07421-.08985-.0586-.22265-.22265-.04297-.10547-.03125-.26563.10547-.04296h.14453l.10547.04296.07421.07422.08985.0586.08594.0586.10546.04687.08985.05859.14844.14844.0703.07422.14845.14843.0625.08594.07421.07422.08594.0586.07422.07421.08985.0625.08984.0586.08594.05859.26953.17578.10156.04688.10547.04296.10156.04297.04688-.07421.05859-.08594.07422-.07422.07031-.07422.10547.04297.07422.07422.0586.08984.04296.10156.04688.10547.04296.10547.1211.02735.11719-.02735.07421-.08984.04297-.10547.0586-.08985.07422-.07421.10546-.04297.1172-.02735.1328.01172.08985.0586.14844.14843.05859.08985.04297.10547.04687.10156.04297.10547.04297.10156.10547.04688.10547.04296.13281.01563.08594-.0586.0586-.08984.07421-.07422.10547-.04297.11719.02735.10547.04687.10156.04297.10547.04297.10156.04688.17969.11718v.11719l-.01563.13281.01563.13281.01562.13672.0586.08594.10156.04688.1211.02734.11718.03125h.14844l.11719-.03125.05859-.08984.17969-.1172.05859-.08983.07422-.07422.0586-.08594.11718-.17969.17969-.11719.11719.03125.08984.0586.04297.07422-.01563.1328v.1172l.08985.05859h.14843l.13282-.01563.1328-.01171.26563-.03125.10547-.04297.11719-.03125.1211-.02735.07421-.07421.07031-.07422.0625-.08985-.01562-.10547-.04688-.10156-.10156-.04297-.10547-.01562-.11718.02734-.26563.03125h-.14844l-.07421-.07422-.08985-.0586-.11719-.03124-.11718-.02735-.13282-.01562h-.14843l-.13282.01563h-.29687l-.10547-.04688-.14844-.14844-.04297-.10156-.05859-.08984.22266-.22266.08593-.0586.10547-.04296.11719-.03125.13281-.01563.13281.01563.13672.01562.10157.04297.1328-.01172.08985-.0625.10156-.04297.0625-.08984-.04687-.10156-.08984-.0586-.1172-.03125-.10155-.04296-.0586-.08985-.0625-.08984v-.11719l.01563-.13281.10547-.04688.07421-.07031v-.1211l-.08984-.05859-.03125-.11719.08985-.05859.07421-.07422.04297-.10547.0586-.08984.04687-.10156.01563-.13281v-.14844l-.04688-.10547-.04297-.10156-.08984-.0586-.13281-.01562-.10157-.04297-.13671-.01563-.1172-.03125h-.4453l-.13282-.01562-.13281-.01172-.13281-.01563-.11719-.03125h-.14844l-.13281-.01562-.13281-.01172-.26563-.03125-.1211-.04297-.08593-.0586-.07422-.07421v-.14844l.01172-.13281.10547-.04688.10156-.04296.13281-.01563h.15235l.13281-.01562h.29297l.1211.03125.10156.04296.08984.0586.23438.0625.12109-.04688.08984-.05859.10156-.04297.13282-.01562.10547.04296.10156.04688.13281.01172.1211-.02735h.14453l.12109-.03125.11719-.02734.10547-.04687.07421-.07422.08594-.0586.14844-.14843.0586-.08594.04687-.10547.02734-.11719.01563-.10547-.10156-.04296-.08985-.0586-.11719-.03125-.10546-.04297-.08985-.0625-.07422-.08594-.07422-.07421-.10156-.04297-.10547-.04688-.10156-.04297-.0586-.08984-.04687-.10156-.08594-.21094-.0625-.08594-.05859-.08984-.07422-.07422-.08594-.0586h-.26953l-.11719.03126-.08984.05859-.10156.04297-.13281.01562-.10547-.01562-.02735-.11719-.0625-.08984-.11718-.03125-.10157-.04297-.14843-.14844-.03125-.11719-.01563-.10546.07422-.07422.17969-.1172.11719-.02733.11718-.03125.13672.01562.10156.04297.10547.04297.10156.04687.10547.04297.1172.03125.1328.01563.1172.02734.1328.01563.10547-.01563.08985-.0586-.07422-.07421-.10547-.04297-.07422-.07422-.07422-.08984-.14844-.14844-.08593-.0586-.08985-.05859-.07422-.07422-.08984-.0586-.10156-.04687-.1211-.02734-.10156-.04688-.10547-.04296-.11719-.03125-.10156-.04297-.1211-.03125h-.14843l-.11719.03125-.10546.04297-.08594.0625-.17969.11718-.08594.0586-.08984.0586-.10547.04687-.08594.05859-.10547.04297-.10156.04297-.10547.04687-.07422.07422-.05859.08985-.0586.08593-.04687.10547-.0586.08594-.07421.07422-.13281-.01172-.1172-.03125h-.11718l-.07422.07422-.08984.0586-.07422.07421-.08984.0586-.08594.05859-.10547.04687-.10156.04297-.13672.01563-.10156-.04297-.14844-.14844-.10547-.04688h-.08594l-.10547.04688-.10156.04297-.1211.03125-.11718-.03125-.07422-.07422v-.11719l.03125-.1211.07422-.0703.0586-.08985.07421-.07422.11719-.03125.10547-.04296h.29297l.13281-.01563.13672-.01563.10156-.04296.08985-.0586.10156-.04687.08984-.0586.13281-.01171.08985.05859.13281.01172.08984-.0586.08594-.05859.10547-.04297.08984-.0586.08594-.0625.08985-.05859.14843-.14843.0586-.08594.05859-.08985.10547-.04296.13281-.01563.11719.02735.1211.03125.05859-.0586.05859-.08984.03125-.26563.02734-.11719.10547.01172.13281.01563.10157-.04297.08984-.0586.0586-.08984.07421-.07422.0586-.08984.04687-.10156.01172-.13281-.01172-.13282-.04687-.10547-.14844-.14843-.0586-.08985-.05859-.08594-.04297-.10546v-.44532l.01563-.1328v-.14845l.01172-.1328-.0586-.0586-.08984.0586-.10156-.04298-.17969-.11719-.08594-.05859-.0625-.08984-.0586-.08985-.07421-.07421-.08594-.0586-.1211.03125-.10155.01172-.10547.04688-.08594.05859-.10547.04297-.14844.14844-.08984.05859-.08594.0586-.08984.0625-.10547.04296-.13281.01563v-.1211l.10547-.04297.11718-.03125.07422-.0703.04297-.10548v-.14844l-.02734-.11718-.14844-.14844-.13281-.01563h-.14844l-.11719.03125-.10547.04297-.10156.04297-.08984.0625-.11719.02735-.07422-.07422.01172-.13281-.04297-.10157-.04297-.10547-.08984-.05859-.11719.02734-.1211.03125-.11718.03125-.10156.04297-.1211.03125-.10156.04297-.10547.04297-.08984.0586-.10156.01562v-.11719l.01562-.13281-.0586-.08985-.07421.04297-.14844.14844-.0586.08985-.07421.07421-.04688.10547-.04296.10156-.07422.07422-.0586.08985-.07422.07422-.05859.08593-.07422.07422-.08984.0625-.07422.07031-.07422.07422-.10156.01563-.13281.01562-.10547-.04296v-.1211l.14843-.14844.04297-.10156.0586-.08984.04687-.10156.04297-.10547.0586-.08985.03124-.11719.04297-.10156.03125-.1211.02735-.11718.04687-.10547.04297-.10156.04297-.10547.07422-.07031.08984-.0625.08985-.0586.10156-.04296h.29687l.26563-.03125.10547-.04297-.07422-.07422-.11719-.03125-.10547-.04297-.08984-.0586-.10156-.04687-.08985-.0586-.10156-.04296-.10547-.04297-.08984-.0625-.08594-.0586-.10547-.04296-.10156-.04297-.1211-.03125-.11718-.03125-.10157-.04297L297.5 410.25l-.10156-.04297-.08985-.0586-.04296-.10546-.01563-.13281.10156-.04297.13281-.01563.13672.01563.13282-.01563.10156-.04297.0586-.08984.01562-.10547-.08985-.0586-.07421-.07421-.10157-.04297-.08984-.0586-.14844-.14843-.04297-.10547-.01562-.13281v-.29297l-.0586-.08985-.08984-.05859-.07422-.07422-.04297-.10547-.03125-.11718-.0586-.08985-.07421-.07422-.11719-.02734-.07422-.07422-.08984-.0586-.08984-.0625-.08594-.05859-.07422-.07421-.0586-.08594-.04687-.10547-.08594-.0586-.14843-.14843-.19532-.0586-.1328.01563-.10157.04297-.07422.07422-.04688.10156-.04296.10547-.0586.08984-.0586.08594-.29687.29687-.08984.0586h-.08594l-.0625-.08594-.04297-.10547.03125-.11719.0586-.08984.02734-.11719-.01172-.13281-.08984-.0625-.10547.04688-.11719.02734-.11719.03125-.26953.17578-.10156.04688-.11719.02734-.10546.04687-.08985.0586-.10156.04297-.0586-.08594-.04687-.10547.01563-.13281.04687-.10547.07031-.07422.07422-.07031.0586-.08985v-.14843l-.04297-.10547h-.23829l-.10156.04687-.03125.11719-.02734.11719-.03125.1211-.07422.04296-.13281.01563-.07422-.04688-.04297-.10156-.04297-.10547-.04687-.10156-.04297-.10547-.1211.03125-.10156.04297-.13281.01562-.11719.03125-.10547.04297-.08984.0586-.10156.04687-.1211.02734-.13281.01563-.10156-.04297-.0586-.08985-.04687-.10546-.04297-.10157-.04297-.10546v-.1172l.0586-.08984.08593-.05859.17969-.11719.10156-.04687.10547-.04297.10547-.0586.10156-.04296.08985-.0625.10156-.04297.10547-.0586.10156-.04687.08984-.0586.10547-.04296.10156-.04297.08985-.0625.10156-.04297.13672-.01563.11719.03125.10156.04297.1211.03125.10156.04297.10546.04688.10157.04296.10547.04297.10156.04688.10547.04297.10156.04297.10547.04687.08594.0586.10546.04296.1172.03125.10546.04297.10156.04688.08985.0586.10547.04296.10156.04297.10547.04687.11719.02735.10156.04687.1211.02735h.14843l.08594-.0586.01562-.10156.0586-.08984-.02735-.1172-.07422-.07421-.11719-.17969-.07421-.07422-.08985-.07421-.17969-.1172-.08593-.05859-.10547-.04296-.10156-.04688-.26954-.17578-.05859-.08985-.07422-.07421-.0586-.08985-.04296-.10156-.03125-.11719-.01563-.13672v-.5625l-.01171-.1328-.01563-.13282-.03125-.11719-.01562-.13281-.01172-.13281-.03125-.1211-.22266-.22265-.0586-.08594-.01562-.10547.03125-.11719.13281-.01562v-91.41406H172.9922v1.45312l-.0586.23438-.35156 1.05078-.17187.52343-.1172.34766-.17577.41016-.11719.17187-.23438.29297-.23046.0586h-.35157l-.11718.05859-.23047.40625v.29297l.11719.17578.23046.23047.1172.23437.64062.75781.29297.46485.17578.23437.23047.35156.23437.34766.64063.8164.17578.46485.17187.41016.11719.69531.17578.46875.11719 1.39844.0586.46484v.875l.11718 1.04688v4.78125l-.0586.46484-.35156 1.28125-.17578.52344-.11328.41015-.35156.9297L172.93359 336l-.23437.58203-.11719.17578-.17187.34766-.17578.40625-.35157.8164-.0586.29297-.11327.29297-.11719.28906-.0586.17579-.11718.875-.0586.40625-.05859.11718-.0586.17579-.05859.17187-.23047.52734-.11718.17188v.23437l-.11719.23438-.0586.17187-.17577.58594v.28906l-.0586.17579v.29296l-.0586.11329-.05859.52734v.17187l-.05468.23438v2.6211l-.17578.8164-.1172.17578-.17577.23438-.1172.17187-.11327.23438-.58594.93359-.23047.28906-.29297.46485-.17578.23437-.28906.35156-.35156.69922-.11328.23047-.17579.41016-.17578.23046-.40625.52735-.8164.69922-.29297.17187-.28906.23438-.17579.11719-.17578.17578-.52344.40625-.52734.17578-.17187.17578-.23438.05469-.64062.17578h-.75782m12.21094 31.02344l-1.07422.44921.35938.89454 1.25-.71485.44531-.53906-.98047-.08985"/><path fill="#d3d3d3" fill-opacity="0" fill-rule="evenodd" d="M201.50781 416.59766h-.89453l.44922.6289.98047.35938.80469-.08985.4453-.98828-.17577.08985-.71485-.35547-.89453.35547m154.6211 59.0703l-.0586-.52343v-.29297l.11328-.29297.0586-.23046.46875-.46875h.11328l.11719-.11329.11718-.05859h.17579l.23437-.0586h.34766l.23437.0586.11719.0586.23047.17187.0586.17578.11718.58203v.29297l-.11719.17578-.17187.28906-.17579.17579-.52734.52343-.23047.23438-.11719.0586h-.17578l-.11718-.0586-.40625-.29297-.17579-.11719-.11718-.0586-.0586-.11327-.05468-.1172m6.64062-10.95702l-.0586-.17188v-1.10937l.0586-.17188.17578-.0586.17188-.05858h.17578l.23437-.0586.1172.0586.05858.69921-.05859.17188-.11719.17578-.11718.0586-.23438.52343-.11328.0586h-.23438l-.05859-.1172m9.61328-14.39062l-.11719-.17578v-.69922l.29297-.875.1172-.17187.17577-.35156.11328-.23047.1172-.29297.35155-.75781.1172-.23047.17187-.23438h.17578l.11719-.0586h.64062l.11719.0586.23437.23438.17188.11328.35156.29297.11719.11718.11328.17579v.11328l.11719.05859.11718.11719v.69922l-.05859.17578v.23047l-.0586.17578-.34765 1.05078-.11719.23047-.11719.23437-.11718.0586-.23047.23437-.64063.28906h-.875l-.41015-.11718-.64063-.46485"/><path fill="none" stroke="#bebebe" stroke-linecap="round" stroke-linejoin="round" stroke-miterlimit="10" stroke-width=".5" d="M467.95703 311.69531H144.02734v168.625h323.9297v-168.625"/><g clip-path="url(#a)"><path fill="#fff" fill-opacity="0" fill-rule="evenodd" d="M144 475.89063v4.4375h.0039H144V311.67188h.0039H144v164.21875"/></g><g clip-path="url(#b)"><path fill="#fff" fill-opacity="0" fill-rule="evenodd" d="M144.0039 480.32813V311.67188h31.0625v120.16406l-4.4375 3.41406-.62109.69531-3.8164 1.92969-2.3125 2.50781-2.125 2.75781-1.65235 1.6797-1.29687 4.4414-.875 4.4375.97265 4.4375-.45312 4.4375 3.30469 3.22656 4.4375-.57422 4.4375-.53515 4.4375.13671 4.4414.42579 4.4375-.35157 4.4375-.08984 4.4375-1.34766 4.4414.15235 2.22657-1.04297-2.22656-1.08594-4.4414-2.25-3.57032-1.10156-.86719-.23438-4.4375-2.23437-2.77734 2.46875-1.66016.51172-1.21484-.51172.45703-4.4375.03125-4.4375.72656-1.70313 2.07422-2.73828 2.36328-1.5625 3.79688-2.875-.3086-4.4375-3.48828-2.85547-4.4375 1.08594-4.4414-2.33984V311.67188h26.6328v90.90625l-2.28124 2.29687 2.28125 3.11328 4.4375-1.5039 1.65625-1.60938-1.65625-2.0586-4.4375-.23827v-90.90625h13.3164v97.8789l-4.4414.83203-3.4414 3.3711 1.77343 4.4375 1.66797 1.64062 4.4414-.96094.73047-.67968 3.4336-4.4375-4.16406-4.20313v-97.8789h22.1914v90.17187l-3.03125 3.03125.13281 4.4414 2.89844 3.83594 4.4375-2.24218 3.94922 2.84375-3.94922.91796-4.4375-.46484-4.4414 2.98438-2.04688 1-2.39063.33593-4.4375 3.51563-.5625.58594.5625.97656.51172 3.46484-.51172 1.15625-2.60937 3.28125-1.5 4.4375-.32813.15625-.64843-.15625-3.78906-.98828-4.44141.21485-1.70703.77343-2.73047 1.125-4.4375.8164-4.4375 1.51173-1.02734.98437 1.02734 3.97266.08984.46484 4.34766 4.40625 4.4375-.17187.30078.20703 1.96094 4.4375-2.26172 1.41406-2.875 3.02344-.86719 4.4375 2.20703 4.4414 1.53516.53907 2.22656-.53906 2.21094-.57813 4.4414-2.28516 2.36329-1.57812 2.07422-.83594 4.4375-1.54687 4.4375-.63672 2.73828-1.41797.80859-4.4375-3.54688-2.70313-4.08593-1.73437 2.92969-4.4414.73437-4.4375.42188-.23048 2.93359-4.20703-2.9336-3.08594-1.8125-1.35156 1.8125-.90625 4.4375-.09375 2.58204 1 1.85937 1.77735 4.4375 1.87109 4.4375-1.33594 2.39063-2.3125 2.04687-3.23828 4.4375.17969 4.4414.66797 3.3047 2.39062 1.1328 1.54297.77735 2.89453.88281 4.4375 2.77735 3.1289 4.4375.91407L276 440.38281l1.15234-.59375 4.4375-1.39453 2.58985-2.44922 1.84765-.34375 4.05079-4.09375.38671-4.40625.03516-.03125 1.32813-4.4414-1.36329-1.33594-4.4375-1.75-4.4375-.73438-4.4375-.17187-4.4414-.0039-4.4375.10546-4.02735 3.89063-.41015.48046-4.4375 1.88672-4.4414-.77343-.98048-1.59375.98047-3.51172 4.4414 1.89062 2.875-2.8164 1.23048-4.4375.33203-4.17579.13281-.26171-.13281-.22657-2.41406-4.21484-2.02344-1.50781-4.4414.83984-.67188.66797-3.76563 3.22266-1.21094 1.21875-3.22656 3.92578-2.79687-3.92578-1.5-4.44141-.14063-.14063-4.4375-2.89062v-90.17188h13.3125v39.66797l-.1836.27735.1836.36719.25781-.3672-.2578-.27734v-39.66796h62.13671v139.36718l-4.4375.0625-3.29297 2.59766-1.14453 1.0586-4.4375 1.78906-2.09375 1.58984 2.09375 1.33203 4.4375 2.3789 4.4375.41798 4.4375-.25 4.4414-1.02735 3.76173-2.85156-.81641-4.4375-2.94531-2.08985-4.44141-.5703v-139.3672h22.1914v136.08985l-2.9414 1.5-1.4961.48047-4.4375 2.30078-1.0664 1.65625-.82422 4.4375 1.89063.82812 4.4375 1.76172 3.58593-2.58984.85157-1.09766 4.4414-2.72656.80078-.61328.16797-4.4375-.96875-.32031-4.4414-1.1797V311.67189H463.5625v140.72265l-1 1.30469-3.4375 1.74219-4.4414.5664-2.39844 2.1289-2.03907 1.94923-3.26562 2.48828 3.26562 3.54297 4.4375.26172 4.44141-.85547v5.17969l-1.26172.75-2.0586 4.4375 3.32032 2.6953 3.1836-2.6953-2.38282-4.4375-.80078-.75v-5.1797l2.71094-2.94921-.01172-4.4375 1.73828-3.4336 1.1211-1.0039-1.1211-1.30469V311.67188h4.4336v168.65625H144.0039"/></g><path fill="#50fcfc" fill-rule="evenodd" d="M158.90234 458.13672l-.97265-4.4375.875-4.4375 1.29687-4.4414 1.65235-1.6797 2.125-2.7578 2.3125-2.50782 3.8164-1.92969.6211-.69531 4.4375-3.41406v6.21875l-4.4375.125-3.20313 2.20312-1.23437.8164-3.15235 3.6211-1.28515 3.59375-.38282.84766-1.91406 4.4375 2.27734 4.4375-1.41015 4.4375 1.42969 1.39844 4.33203-1.39844.10547-.61328 1.66797-3.82422 2.76953-1.33203 1.77734-3.10547 2.49219-4.4375.16797-.07031 3.23047-4.3711 1.21093-3.10937 2-1.32813-2-1.39453-4.4414-.9336v-6.21874l4.4414 2.33984 4.4375-1.08594 3.48828 2.85547.3086 4.4375-3.79688 2.875-2.36328 1.5625-2.07422 2.73828-.72656 1.70313-.03125 4.4375-.45703 4.4375 1.21484.51172 1.66016-.51172 2.77734-2.46875 4.4375 2.23437.86719.23438 3.57031 1.10156 4.4414 2.25 2.22657 1.08594-2.22656 1.04297-4.4414-.15235-4.4375 1.34766-4.4375.08984-4.4375.35157-4.44141-.42579-4.4375-.13671-4.4375.53515-4.4375.57422-3.3047-3.22656.45313-4.4375"/><path fill="#00e8fc" fill-rule="evenodd" d="M161.73438 458.13672l-2.27735-4.4375 1.91406-4.4375.38282-.84766 1.28515-3.59375 3.15235-3.6211 1.23437-.8164 3.20313-2.20312v5.28515l-3.3125 1.35547-1.125 1.0625-.85547 3.3789.85547 3.33595 1.2539-3.33594 3.1836-3.2539 4.4375-.73829.33203-.44922-.33203-.64453-4.4375-.71094v-5.28515l4.4375-.125 4.4414.9336 2 1.39452-2 1.32813-1.21094 3.10937-3.23046 4.3711-.16797.0703-2.49219 4.4375-1.77734 3.10548-2.76953 1.33203-1.66797 3.82422-.10547.61328-4.33203 1.39844-1.4297-1.39844 1.41017-4.4375"/><path fill="#00d4fc" fill-rule="evenodd" d="M166.1914 452.59766l-.85546-3.33594.85547-3.3789 1.125-1.0625 3.3125-1.35548 4.4375.71094.33203.64453-.33203.44922-4.4375.73828-3.1836 3.2539-1.2539 3.33595"/><path fill="#50fcfc" fill-rule="evenodd" d="M197.26172 444.35547l-1.02734-3.97266 1.02734-.98437 4.4375-1.51172 4.4375-.8164 2.73047-1.125 1.70703-.77344v4.30078l-1.54688.91015-2.38672 4.4375 3.9336 2.875 1.40625 1.5664 2.25 4.4375-3.65625 3.6797-.96484.7578.96484 1.27735 4.4414-.5664 2.13672-.71094 1.07422-4.4375 1.22656-1.07031.78516-3.3672-.78516-1.80468-2.5703-2.63672-1.8672-1.52344-2.90625-2.91406-1.53515-.91015v-4.30079l4.4414-.21484 3.78907.98828.64844.15625.32812-.15625 1.5-4.4375 2.60938-3.28125.51171-1.15625-.51172-3.46484-.5625-.97656.5625-.58594 4.4375-3.51563 2.39063-.33593 2.04688-1 4.4414-2.98438 4.4375.46485 3.94922-.91797-3.94922-2.84375-4.4375 2.24218-2.89844-3.83593-.1328-4.44141 3.03124-3.03125v2.11328l-.91797.91797.6875 4.4414.23047.30079.53125-.30078.83203-4.44141-1.36328-.91797v-2.11328l4.4375 2.89063.14063.14062 1.5 4.4414 2.79687 3.92579v2.05078l-4.4375.76562-4.4375.82032-1.66406 1.3125-2.77734 1.6875-4.4375.25-2.78907 2.5.70313 4.4414 2.08594 1.875 4.4375-.16015 4.4414 2.08593.97266.63672 3.46484 2.46094 3.91797-2.46094.51953-.28906 3.71875-4.14844.30078-4.4414-1.60156-4.4375-2.41797-2.89844v-2.05078l3.22656-3.92578 1.21094-1.21875v7.78515l-.61719 2.3086.6172 1.90234 4.03515-1.90234-4.03516-2.3086v-7.78515l3.76563-3.22266.67187-.66797 4.4414-.83984v2.42969l-4.4414 1.35937-2.32812 2.16016-1.19532 4.4375 3.52344 3.125 3.91406 1.3125.52735.3203.32812-.3203 2.7539-4.4375.13673-4.4375-3.21875-3.51954v-2.42968l2.02344 1.50781 2.41406 4.21484.13281.22657-.13281.26171-.33203 4.17579-1.23047 4.4375-2.875 2.8164-4.4414-1.89062-.98048 3.51172.98047 1.59375 4.4414.77343 4.4375-1.88671.41016-.48047 4.02735-3.89063v.82422l-3.17578 3.0664-1.26172 1.47657-3.8789 2.96484 3.8789 3.52344.57031.91406 2.02344 4.4375 1.58594 4.4375.2578.29297 4.4375 1.03125 1.07813-1.32422 3.36328-1.73437 4.08594-2.70313.35156-.10547 4.4375-.83984 3.45704-3.49219.80468-4.4375-2.46094-4.4414-1.80078-1.00782-4.4375-1.71875-4.4375.23829-4.4414-.31641-4.4375-.26172v-.82422l4.4375-.10547 4.4414.0039 4.4375.17188 4.4375.73438 4.4375 1.75 1.36329 1.33594-1.32813 4.4414-.03516.03125-.38671 4.40625-4.05079 4.09375-1.84765.34375-2.58985 2.44922-4.4375 1.39453-1.15234.59375-3.28906 4.04297-4.4375-.91406-2.77735-3.1289-.8828-4.4375-.77735-2.89454-1.13281-1.54297-3.3047-2.39062-4.4414-.66797-4.4375-.17969-2.04687 3.23828-2.39063 2.3125-4.4375 1.33594-4.4375-1.8711-1.85937-1.77734-2.58203-1-4.4375.09375-1.8125.90625 1.8125 1.35156v2.47266l-1.16016.61328 1.16016.83594.58203-.83594-.58203-.61328v-2.47265l2.93359 3.08593-2.9336 4.20703-.42187.23047-.73438 4.4375-2.92968 4.4414 4.08594 1.73438 3.54687 2.70313-.8086 4.4375-2.73827 1.41797-4.4375.63672-4.4375 1.54687-2.07422.83594-2.36328 1.57812-4.44141 2.28516-2.21094.57813-2.22656.53906-1.53516-.53906-2.20703-4.44141.86719-4.4375 2.875-3.02344 2.26172-1.41406-1.96094-4.4375-.30078-.20703-4.4375.17187-4.34766-4.40625-.08984-.46484m4.4375-36.36719l-2.28125-3.11328 2.28125-2.29688 4.4375.23829 1.65625 2.05859-1.65625 1.60938-4.4375 1.5039"/><path fill="#00e8fc" fill-rule="evenodd" d="M210.57422 447.69531l-3.9336-2.875 2.38672-4.4375 1.54688-.91015 1.53516.91015 2.90625 2.91406 1.86718 1.52344 2.57031 2.63672.78516 1.80469-.78516 3.36719-1.22656 1.0703-1.07422 4.4375-2.13672.71095-4.4414.5664-.96484-1.27734.96484-.75781 3.65625-3.6797-2.25-4.4375-1.40625-1.5664"/><path fill="#50fcfc" fill-rule="evenodd" d="M208.90625 418.1914l-1.77344-4.4375 3.4414-3.37109 4.44142-.83203v.65625l-4.44141 1.85938-1.72266 1.6875 1.72266 2.66406 4.4414 1.14062 3.51563-3.80468-3.51563-3.54688v-.65625l4.16407 4.20313-3.4336 4.4375-.73047.67968-4.4414.96094-1.66797-1.64062"/><path fill="#00e8fc" fill-rule="evenodd" d="M210.57422 416.41797l-1.72266-2.66406 1.72266-1.6875 4.4414-1.85938v1.08985l-3.77343 2.45703 3.77344 2.6328 2.43359-2.6328-2.4336-2.45704v-1.08984l3.51563 3.54688-3.51563 3.80468-4.4414-1.14062"/><path fill="#00d4fc" fill-rule="evenodd" d="M215.01563 416.38672l-3.77344-2.63281 3.77344-2.45704v1.08985l-2.09766 1.36719 2.09766 1.46484 1.35156-1.46484-1.35156-1.3672v-1.08983l2.43359 2.45703-2.4336 2.6328"/><path fill="#00c4fc" fill-rule="evenodd" d="M215.01563 415.21875l-2.09766-1.46484 2.09766-1.3672v1.09376l-.42188.27344.42188.29296.26953-.29296-.26953-.27344v-1.09375l1.35156 1.36719-1.35156 1.46484"/><path fill="#00b8fc" fill-rule="evenodd" d="M215.01563 414.04688l-.42188-.29297.42188-.27344.26953.27344-.26953.29296"/><path fill="#00e8fc" fill-rule="evenodd" d="M226.24219 427.07031l-.70313-4.4414 2.78906-2.5 4.4375-.25 2.77735-1.6875 1.66406-1.3125 4.4375-.82032 4.4375-.76562v2.79297l-1.45703.10547-2.98047.22265-4.4375.86719-4.07031 3.34766.82812 4.4414 3.2422 1.98438 3.7539 2.45312.6836.48438.77343-.48438 3.66406-2.02734 2.16016-2.41016.16015-4.4414-2.23047-4.4375-.08984-.10547v-2.79297L248.5 418.1914l1.60156 4.4375-.30078 4.4414-3.71875 4.14844-.51953.28906-3.91797 2.46094-3.46484-2.46094-.97266-.63672-4.4414-2.08593-4.4375.16015-2.08594-1.875m2.08594 9.71094l-1.16016-.83594 1.16016-.61328.58203.61328-.58203.83594"/><path fill="#00d4fc" fill-rule="evenodd" d="M233.96484 427.07031l-.82812-4.4414 4.07031-3.34766v1.54688l-2.1914 1.80078 1.91406 4.4414.27734.16797 4.4375 3.58594 4.4375-3.08594.60156-.66797.01953-4.4414-.62109-1.21875-4.4375-.09375-4.4375-.48829v-1.54687l4.4375-.86719 2.98047-.22265 1.45703-.10547.08984.10547 2.23047 4.4375-.16015 4.4414-2.16016 2.41016-3.66406 2.02734-.77344.48438-.6836-.48438-3.7539-2.45312-3.24219-1.98438"/><path fill="#00c4fc" fill-rule="evenodd" d="M236.92969 427.07031l-1.91406-4.4414 2.1914-1.80079v1.54297l-.3125.25782.3125.6914.98828 3.75 3.44922 2.85156 3.71484-2.85156-3.71484-3.78515-3.40625-.65625-1.03125-.25782v-1.54296l4.4375.48828 4.4375.09375.6211 1.21875-.01954 4.4414-.60156.66797-4.4375 3.08594-4.4375-3.58594-.27734-.16797"/><path fill="#00e8fc" fill-rule="evenodd" d="M236.97656 409.3164l-.6875-4.4414.91797-.91797 1.36328.91797-.83203 4.4414-.53125.30079-.23047-.30078"/><path fill="#00b8fc" fill-rule="evenodd" d="M237.20703 423.32031l-.3125-.6914.3125-.25782 1.03125.25782 3.40625.65625v1.1953l-2.35937 2.58985 2.35937 1.94922 2.53906-1.94922-2.53906-2.58984v-1.19531l3.71484 3.78515-3.71484 2.85156-3.44922-2.85156-.98828-3.75"/><path fill="#00a8fc" fill-rule="evenodd" d="M241.64453 429.01953l-2.35937-1.94922 2.35937-2.58984v1.19531l-1.26953 1.39453 1.26953 1.04688 1.36719-1.04688-1.36719-1.39453v-1.19531l2.53906 2.58984-2.53906 1.94922"/><path fill="#009800" fill-rule="evenodd" d="M241.64453 428.11719l-1.26953-1.04688 1.26953-1.39453v1.19922l-.17969.19531.1797.14453.1914-.14453-.1914-.19531v-1.19922l1.36718 1.39453-1.36719 1.04688"/><path fill="#00ac00" fill-rule="evenodd" d="M241.64453 427.21484l-.17969-.14453.1797-.19531.1914.19531-.1914.14453"/><path fill="#fff" fill-opacity="0" fill-rule="evenodd" d="M250.51953 415.88281l-.61719 2.3086.6172 1.90234 4.03515-1.90234-4.03516-2.3086"/><path fill="#50fcfc" fill-rule="evenodd" d="M250.51953 351.98438l-.1836-.3672.1836-.27734.25781.27735-.2578.36719"/><path fill="#00e8fc" fill-rule="evenodd" d="M254.95703 416.8789l-3.52344-3.125 1.19532-4.4375 2.32812-2.16015 4.4414-1.35938v2.26172l-2.35156 1.25782-2.08984 2.54687-.94531 1.89063.94531.83984 4.4414 1.22656 1.3711-2.0664-.21875-4.4375-1.15234-1.25782v-2.26171l3.21875 3.51953-.13672 4.4375-2.7539 4.4375-.32813.3203-.52735-.3203-3.91406-1.3125"/><path fill="#00d4fc" fill-rule="evenodd" d="M254.95703 414.59375l-.94531-.83984.94531-1.89063 2.08984-2.54687 2.35157-1.25782 1.15234 1.25782.21875 4.4375-1.3711 2.0664-4.4414-1.22656"/><path fill="#00e8fc" fill-rule="evenodd" d="M263.83594 430.59375l-3.8789-3.52344 3.8789-2.96484 1.26172-1.47656 3.17578-3.06641v1.375l-1.7539 1.6914-2.6836 3.13673-1.70313 1.30468 1.70313 1.54688 1.80078 2.89062 2.63672 3.75.60547.6875 3.83203 3.45313 4.4414-2.64844 1.21094-.80469 3.22656-.99219 4.4375-.95312 2.46485-2.49219 1.5-4.4375-3.96485-4.21875-2.60937-.22265-1.82813-.90625-4.39062.90625-.04688.0078-.0625-.0078-4.3789-.81641-4.4375-.875v-1.375l4.4375.26172 4.4414.3164 4.4375-.23828 4.4375 1.71875 1.80079 1.00782 2.46093 4.4414-.80469 4.4375L286.02735 435l-4.4375.83984-.35156.10547-4.08594 2.70313-3.36328 1.73437-1.07812 1.32422-4.4375-1.03125-.25781-.29297-1.58594-4.4375-2.02344-4.4375-.57031-.91406"/><path fill="#00d4fc" fill-rule="evenodd" d="M263.83594 428.61719l-1.70313-1.54688 1.70313-1.30469 2.6836-3.13671 1.7539-1.69141v1.375l-.32813.3164-3.77734 4.44141 2.69922 4.4375 1.40625 2 2.15234 2.4375 2.28516 2.0625 3.19531-2.0625 1.2461-2.53906 4.4375.66406 4.4375-1.07422 1.47265-1.48828 2.19531-4.4375-3.66797-3.90234-4.4375-.07031-4.4375.42578-4.4414-.16797-3.17969-.72656-1.25781-.31641v-1.375l4.4375.875 4.3789.8164.0625.00782.04688-.00781 4.39062-.90625 1.82813.90625 2.60937.22265 3.96485 4.21875-1.5 4.4375L286.02734 434l-4.4375.95313-3.22656.99218-1.21094.80469-4.4414 2.64844-3.83203-3.45313-.60547-.6875-2.63672-3.75-1.80078-2.89062"/><path fill="#00c4fc" fill-rule="evenodd" d="M266.86719 431.50781l-2.69922-4.4375 3.77734-4.4414.32813-.31641 1.25781.3164 3.17969.72657 4.4414.16797 4.4375-.42578 4.4375.0703v.31642l-4.4375.54296-4.4375.38282-4.4414.17968-4.4375-.55468-2.5625 3.03515 2.38672 4.4375.17578.2461 3.69531 4.1914.74219.66797 1.03906-.66797-1.03906-3.6289-1.90625-.8086 1.90625-.22656 4.4414-.48047 1.01954.70703 3.41796 1.67578 4.4375-1.1914.48047-.48438 2.89453-4.4375-3.375-3.58594v-.3164l3.66797 3.90234-2.19531 4.4375-1.47266 1.48828-4.4375 1.07422-4.4375-.66406-1.24609 2.53906-3.19531 2.0625-2.28516-2.0625-2.15234-2.4375-1.40625-2"/><path fill="#00b8fc" fill-rule="evenodd" d="M268.09766 431.50781l-2.38672-4.4375 2.5625-3.03515 4.4375.55468 4.4414-.17968 4.4375-.38282 4.4375-.54296v.3125l-4.4375 1.15625-4.4375.34375-4.4414.52734-4.4375.03906-1.01953 1.20703L268.27344 429l4.4375.1875 4.4414.36719 2.82032 1.95312 1.61718.79297 2.82032-.79297 1.61718-.21094 3.07813-4.22656-3.07813-3.27344v-.3125l3.375 3.58594-2.89453 4.4375-.48047.48438-4.4375 1.1914-3.41796-1.67578-1.01954-.70703-4.4414.48047-1.90625.22656 1.90625.8086 1.03906 3.6289-1.03906.66797-.74219-.66797-3.69531-4.1914-.17578-.2461"/><path fill="#00a8fc" fill-rule="evenodd" d="M268.27344 429l-1.01953-1.92969 1.01953-1.20703 4.4375-.03906 4.4414-.52735 4.4375-.34375 4.4375-1.15625v.31641l-4.4375 1.76953-4.4375.30078-4.4414.8711-.125.01562.125.01953 4.4414 1.22266 4.4375 2.86719 4.4375-.28906 2.78125-3.82032-2.78125-2.95703v-.3164l3.07813 3.27343-3.07813 4.22656-1.61718.21094-2.82032.79297-1.61718-.79297-2.82032-1.95312-4.4414-.36719-4.4375-.1875"/><path fill="#009800" fill-rule="evenodd" d="M272.71094 427.08984l-.125-.01953.125-.01562 4.4414-.8711 4.4375-.30078 4.4375-1.76953v.3125l-4.4375 2.38672-4.42187.25781 4.42187.89063 4.4375 2.52344 2.48438-3.41407-2.48438-2.64453v-.3125l2.78125 2.95703-2.78125 3.82031-4.4375.28907-4.4375-2.86719-4.4414-1.22266"/><path fill="#00ac00" fill-rule="evenodd" d="M281.58984 427.96094l-4.42187-.89063 4.42187-.25781 4.4375-2.38672v.3164l-4.04296 2.32813 4.04296 3.00781 2.1875-3.0078-2.1875-2.32813v-.3164l2.48438 2.64452-2.48438 3.41406-4.4375-2.52343"/><path fill="#00c800" fill-rule="evenodd" d="M286.02734 430.07813l-4.04296-3.00782 4.04296-2.32812v.6289l-2.94921 1.69922 2.94921 2.1914 1.59766-2.1914-1.59766-1.69922v-.6289l2.1875 2.32812-2.1875 3.00781"/><path fill="#10cc00" fill-rule="evenodd" d="M286.02734 429.26172l-2.94921-2.1914 2.94921-1.69923V426l-1.85546 1.07031 1.85546 1.3789 1.00391-1.3789L286.02735 426v-.6289l1.59765 1.69921-1.59766 2.1914"/><path fill="#24d000" fill-rule="evenodd" d="M286.02734 428.44922l-1.85546-1.3789L286.02733 426v.6289l-.76171.44141.76171.5664.41407-.5664-.41407-.4414V426l1.00391 1.07031-1.0039 1.3789"/><path fill="#3cd800" fill-rule="evenodd" d="M286.02734 427.63672l-.76171-.5664.76171-.44141.41407.4414-.41407.5664"/><path fill="#50fcfc" fill-rule="evenodd" d="M299.34375 459.46875l-2.09375-1.33203 2.09375-1.58985 4.4375-1.78906 1.14453-1.0586 3.29297-2.59765 4.4375-.0625v3.36328l-4.4375.00391-4.01563 3.73047 4.01563 2.11328 4.4375.0625 4.4414-1.83594.44923-.33984-.44922-.8125-4.44141-2.92188v-3.36328l4.4414.57031 2.94532 2.08985.8164 4.4375-3.76171 2.85156-4.44141 1.02735-4.4375.25-4.4375-.41797-4.4375-2.37891"/><path fill="#00e8fc" fill-rule="evenodd" d="M308.21875 460.25l-4.01563-2.11328 4.01563-3.73047 4.4375-.0039 4.4414 2.92187.44923.8125-.44922.33984-4.44141 1.83594-4.4375-.0625"/><path fill="#50fcfc" fill-rule="evenodd" d="M325.97266 458.96484l-1.89063-.82812.82422-4.4375 1.0664-1.65625 4.4375-2.30078 1.4961-.48047 2.9414-1.5 4.44141 1.17969.96875.3203-.16797 4.4375-.80078.61329-4.4414 2.72656-.85157 1.09766-3.58593 2.58984-4.4375-1.76172m124.27343 7.15235l-3.26562-3.54297 3.26562-2.48828 2.03907-1.94922 2.39843-2.1289 4.44141-.56641v2.6289l-.27344.0664-4.16797.77345-3.7539 3.66406 3.7539 2.46875 4.41797-2.46875.02344-1.24219.0664-3.19531-.0664-.0664v-2.62891l3.4375-1.7422 1-1.30468 1.1211 1.30469-1.1211 1.0039-1.73828 3.4336.01172 4.4375-2.71094 2.94922-4.4414.85547-4.4375-.26172"/><path fill="#00e8fc" fill-rule="evenodd" d="M454.6836 465.04297l-3.75391-2.46875 3.7539-3.66406v3.3125l-.35937.35156.35937.23828.42579-.23828-.42579-.35156v-3.3125l4.16797-.77344.27344-.0664.0664.0664-.0664 3.19531-.02344 1.24219-4.41797 2.46875"/><path fill="#00d4fc" fill-rule="evenodd" d="M454.6836 462.8125l-.35938-.23828.35937-.35156.42579.35156-.42579.23828"/><path fill="#50fcfc" fill-rule="evenodd" d="M459.125 478.58594l-3.32031-2.69531 2.0586-4.4375 1.26171-.75v5.04296l-.09766.14454.09766.07812.08984-.07813-.08984-.14453v-5.04296l.80078.75 2.38281 4.4375-3.18359 2.6953"/><path fill="#00e8fc" fill-rule="evenodd" d="M459.125 475.96875l-.09766-.07813.09766-.14453.08984.14454-.08984.07812"/><g clip-path="url(#c)"><path fill="#fff" fill-opacity="0" fill-rule="evenodd" d="M467.9961 480.32813H468V311.67188h-.0039H468v168.65625h-.0039"/></g><path fill="#fff" fill-opacity="0" fill-rule="evenodd" d="M235.78516 406.51563l4.53515 3.67968 6.27735-7.73828-4.53907-3.67969-6.27343 7.73829"/><path fill-rule="evenodd" d="M243.6211 402.40625l.39843.32031-3.96875 4.89063-.60937-.4961 2.82812-3.48828-1.07812-.875.34765-.42969.47656.30079.23047.11718.23438.07422.2461.01953.26952-.05468.29688-.13672.32812-.24219"/><path fill="#fff" fill-opacity="0" fill-rule="evenodd" d="M245.69531 439.9336l5.03516-2.96094-5.04297-8.58594-5.03906 2.95703 5.04687 8.58984"/><path fill-rule="evenodd" d="M244.59375 431.15234l.4414-.2578 3.1875 5.42577-.67968.39844-2.27344-3.8711-1.19531.70313-.28125-.47656.44922-.33985.1875-.17578.15234-.1914.10547-.22656.04297-.26954-.02734-.32421-.10938-.39454"/><g clip-path="url(#d)"><path fill="none" stroke="#000" stroke-linecap="round" stroke-linejoin="round" stroke-miterlimit="10" stroke-width=".5" d="M145.74219 477.27734l-3.48438 6.10157"/></g><g clip-path="url(#e)"><path fill="none" stroke="#000" stroke-linecap="round" stroke-linejoin="round" stroke-miterlimit="10" stroke-width=".5" d="M156.6289 476.88281L158 483.77344"/></g><path fill="none" stroke="#000" stroke-linecap="round" stroke-linejoin="round" stroke-miterlimit="10" stroke-width=".5" d="M156.82813 477.88672l.95312-.77735"/><g clip-path="url(#f)"><path fill="none" stroke="#000" stroke-linecap="round" stroke-linejoin="round" stroke-miterlimit="10" stroke-width=".5" d="M170.28516 476.83203l.6914 6.99219"/></g><path fill="none" stroke="#000" stroke-linecap="round" stroke-linejoin="round" stroke-miterlimit="10" stroke-width=".5" d="M170.38672 477.85156l1.01953-.67969"/><g clip-path="url(#g)"><path fill="none" stroke="#000" stroke-linecap="round" stroke-linejoin="round" stroke-miterlimit="10" stroke-width=".5" d="M182.85547 476.98828l2.17969 6.67969"/></g><path fill="none" stroke="#000" stroke-linecap="round" stroke-linejoin="round" stroke-miterlimit="10" stroke-width=".5" d="M183.17188 477.96094l.85156-.88281"/><g clip-path="url(#h)"><path fill="none" stroke="#000" stroke-linecap="round" stroke-linejoin="round" stroke-miterlimit="10" stroke-width=".5" d="M197.66406 476.83984l-.80469 6.98047"/></g><g clip-path="url(#i)"><path fill="none" stroke="#000" stroke-linecap="round" stroke-linejoin="round" stroke-miterlimit="10" stroke-width=".5" d="M211.96484 483.55469l-2.77734-6.45313"/></g><g clip-path="url(#j)"><path fill="none" stroke="#000" stroke-linecap="round" stroke-linejoin="round" stroke-miterlimit="10" stroke-width=".5" d="M226.96484 482.02734l-6.15234-3.39843"/></g><g clip-path="url(#k)"><path fill="none" stroke="#000" stroke-linecap="round" stroke-linejoin="round" stroke-miterlimit="10" stroke-width=".5" d="M240.69922 479.9414l-6.98438.77344"/></g><g clip-path="url(#l)"><path fill="none" stroke="#000" stroke-linecap="round" stroke-linejoin="round" stroke-miterlimit="10" stroke-width=".5" d="M239.67969 480.05469l.6914 1.01562"/></g><g clip-path="url(#m)"><path fill="none" stroke="#000" stroke-linecap="round" stroke-linejoin="round" stroke-miterlimit="10" stroke-width=".5" d="M253.73047 478.89844l-6.41797 2.85937"/></g><g clip-path="url(#n)"><path fill="none" stroke="#000" stroke-linecap="round" stroke-linejoin="round" stroke-miterlimit="10" stroke-width=".5" d="M252.79688 479.3164l.96484.75391"/></g><g clip-path="url(#o)"><path fill="none" stroke="#000" stroke-linecap="round" stroke-linejoin="round" stroke-miterlimit="10" stroke-width=".5" d="M266.7461 478.35938l-5.82032 3.9414"/></g><path fill="none" stroke="#000" stroke-linecap="round" stroke-linejoin="round" stroke-miterlimit="10" stroke-width=".5" d="M265.89844 478.9336l1.08594.5703"/><g clip-path="url(#p)"><path fill="none" stroke="#000" stroke-linecap="round" stroke-linejoin="round" stroke-miterlimit="10" stroke-width=".5" d="M280.15234 478.5039l-6.0039 3.64844"/></g><path fill="none" stroke="#000" stroke-linecap="round" stroke-linejoin="round" stroke-miterlimit="10" stroke-width=".5" d="M279.28125 479.03516l1.05469.625"/><g clip-path="url(#q)"><path fill="none" stroke="#000" stroke-linecap="round" stroke-linejoin="round" stroke-miterlimit="10" stroke-width=".5" d="M293.72656 479.01953l-6.52344 2.61719"/></g><g clip-path="url(#r)"><path fill="none" stroke="#000" stroke-linecap="round" stroke-linejoin="round" stroke-miterlimit="10" stroke-width=".5" d="M292.77734 479.40234l.9375.78907"/></g><g clip-path="url(#s)"><path fill="none" stroke="#000" stroke-linecap="round" stroke-linejoin="round" stroke-miterlimit="10" stroke-width=".5" d="M307.26172 479.85547l-6.96094.94922"/></g><g clip-path="url(#t)"><path fill="none" stroke="#000" stroke-linecap="round" stroke-linejoin="round" stroke-miterlimit="10" stroke-width=".5" d="M306.25 479.99219l.71484.9961"/></g><g clip-path="url(#u)"><path fill="none" stroke="#000" stroke-linecap="round" stroke-linejoin="round" stroke-miterlimit="10" stroke-width=".5" d="M320.59766 480.63672l-7-.61328"/></g><g clip-path="url(#v)"><path fill="none" stroke="#000" stroke-linecap="round" stroke-linejoin="round" stroke-miterlimit="10" stroke-width=".5" d="M319.57813 480.54688l.48046 1.1289"/></g><g clip-path="url(#w)"><path fill="none" stroke="#000" stroke-linecap="round" stroke-linejoin="round" stroke-miterlimit="10" stroke-width=".5" d="M333.86719 479.69922l-6.91406 1.26172"/></g><g clip-path="url(#x)"><path fill="none" stroke="#000" stroke-linecap="round" stroke-linejoin="round" stroke-miterlimit="10" stroke-width=".5" d="M332.86328 479.88281l.75781.96094"/></g><g clip-path="url(#y)"><path fill="none" stroke="#000" stroke-linecap="round" stroke-linejoin="round" stroke-miterlimit="10" stroke-width=".5" d="M346.76563 478.5625l-6.07813 3.53125"/></g><g clip-path="url(#z)"><path fill="none" stroke="#000" stroke-linecap="round" stroke-linejoin="round" stroke-miterlimit="10" stroke-width=".5" d="M346.76563 478.5625l2.08203 1.29688"/></g><g clip-path="url(#A)"><path fill="none" stroke="#000" stroke-linecap="round" stroke-linejoin="round" stroke-miterlimit="10" stroke-width=".5" d="M360.27344 478.94922l-6.46485 2.75781"/></g><g clip-path="url(#B)"><path fill="none" stroke="#000" stroke-linecap="round" stroke-linejoin="round" stroke-miterlimit="10" stroke-width=".5" d="M359.33203 479.35156l.95703.76953"/></g><g clip-path="url(#C)"><path fill="none" stroke="#000" stroke-linecap="round" stroke-linejoin="round" stroke-miterlimit="10" stroke-width=".5" d="M373.86328 480.14453l-7.01562.36719"/></g><g clip-path="url(#D)"><path fill="none" stroke="#000" stroke-linecap="round" stroke-linejoin="round" stroke-miterlimit="10" stroke-width=".5" d="M372.84375 480.19922l.63281 1.05078"/></g><g clip-path="url(#E)"><path fill="none" stroke="#000" stroke-linecap="round" stroke-linejoin="round" stroke-miterlimit="10" stroke-width=".5" d="M387.1836 480.44531l-7.02344-.23437"/></g><g clip-path="url(#F)"><path fill="none" stroke="#000" stroke-linecap="round" stroke-linejoin="round" stroke-miterlimit="10" stroke-width=".5" d="M387.1836 480.44531l1.07812 2.20313"/></g><g clip-path="url(#G)"><path fill="none" stroke="#000" stroke-linecap="round" stroke-linejoin="round" stroke-miterlimit="10" stroke-width=".5" d="M400.16797 478.83594l-6.36328 2.98437"/></g><g clip-path="url(#H)"><path fill="none" stroke="#000" stroke-linecap="round" stroke-linejoin="round" stroke-miterlimit="10" stroke-width=".5" d="M400.16797 478.83594l1.96094 1.47265"/></g><g clip-path="url(#I)"><path fill="none" stroke="#000" stroke-linecap="round" stroke-linejoin="round" stroke-miterlimit="10" stroke-width=".5" d="M413.35547 478.59375l-6.10938 3.47266"/></g><g clip-path="url(#J)"><path fill="none" stroke="#000" stroke-linecap="round" stroke-linejoin="round" stroke-miterlimit="10" stroke-width=".5" d="M412.46875 479.09766l1.03516.65625"/></g><g clip-path="url(#K)"><path fill="none" stroke="#000" stroke-linecap="round" stroke-linejoin="round" stroke-miterlimit="10" stroke-width=".5" d="M426.86328 478.98438l-6.49219 2.6875"/></g><g clip-path="url(#L)"><path fill="none" stroke="#000" stroke-linecap="round" stroke-linejoin="round" stroke-miterlimit="10" stroke-width=".5" d="M426.86328 478.98438l1.89063 1.5625"/></g><g clip-path="url(#M)"><path fill="none" stroke="#000" stroke-linecap="round" stroke-linejoin="round" stroke-miterlimit="10" stroke-width=".5" d="M439.63281 478.08203l-5.40234 4.49219"/></g><path fill="none" stroke="#000" stroke-linecap="round" stroke-linejoin="round" stroke-miterlimit="10" stroke-width=".5" d="M439.63281 478.08203l2.27344.92969m-3.0586-.27344l1.13673.46485"/><g clip-path="url(#N)"><path fill="none" stroke="#000" stroke-linecap="round" stroke-linejoin="round" stroke-miterlimit="10" stroke-width=".5" d="M451.23828 476.95703l-1.98437 6.74219"/></g><path fill="none" stroke="#000" stroke-linecap="round" stroke-linejoin="round" stroke-miterlimit="10" stroke-width=".5" d="M451.23828 476.95703l2.40235-.49219"/><g clip-path="url(#O)"><path fill="none" stroke="#000" stroke-linecap="round" stroke-linejoin="round" stroke-miterlimit="10" stroke-width=".5" d="M466.40625 478.26563l-5.6875 4.1289"/></g><g clip-path="url(#P)"><path fill="none" stroke="#000" stroke-linecap="round" stroke-linejoin="round" stroke-miterlimit="10" stroke-width=".5" d="M466.40625 478.26563l2.20313 1.07421"/></g><g clip-path="url(#Q)"><path fill="none" stroke="#000" stroke-linecap="round" stroke-linejoin="round" stroke-miterlimit="10" stroke-width=".5" d="M147.15234 465.46094l-6.30468 3.10547"/></g><path fill="none" stroke="#000" stroke-linecap="round" stroke-linejoin="round" stroke-miterlimit="10" stroke-width=".5" d="M146.23438 465.91406l.99609.71485m12.8711-1.75391l-5.57423 4.27734m5.57422-4.27734l2.23438 1.01563m10.75-1.39063l-4.91016 5.02734m4.91016-5.02734l2.35547.6914m11.27734-.33593l-5.54688 4.3164m4.73829-3.6875l1.12109.5m13.69922.48047l-6.9414 1.09766m5.93359-.9375l.73437.98047m12.6914 1.80078l-5.14452-4.78516m4.39453 4.08985l-.3164 1.1836m14.60155-.75l-5.58593-4.26173m4.77343 3.64453l-.19922 1.20703m14.85938-1.58203l-6.64844-2.27734m5.67969 1.94531l.19531 1.21094m14.19531-2.76953l-6.86328 1.5039m5.86328-1.28515l.79688.9336m13.10547-2.19923l-6.03906 3.59766m5.16015-3.07422l1.04688.63672m13.34765-.76172l-6.4414 2.80078m5.5039-2.39453l.96094.76563m13.53516-.36328l-6.92578 1.18359m5.91796-1.01172l.75.96875m13.58985-1.02344l-6.96094.94922m5.94922-.8125l.71484.9961m13.48047-1.71875l-6.69922 2.12109m6.69922-2.1211l1.7539 1.71875m11.63282-1.45312l-6.84375 1.58984m6.84375-1.58984l1.61328 1.85156m11.79297-1.03125l-7.02734-.05078m7.02734.05078l1.13672 2.17578m12.14453-2.6875l-6.95703.97266m5.94531-.83203l.72266.99219m12.82812-2.89453l-5.40234 4.49609m4.61328-3.83984l1.13672.46093m13.77734 1.23828l-7.02343-.21484m7.02343.21484l1.08594 2.19922m12.21484-2.61328l-7 .61328m7-.61328l1.33985 2.05469m11.96094-2.20703l-6.96875.91797m6.96875-.91797l1.42578 2m11.91015-1.27735l-7.0078-.52734m7.0078.52734l.98438 2.2461m12.28125-3.14844l-6.91016 1.27734m6.91016-1.27734l1.52734 1.92188m-2.53125-1.73438l.76172.95703m12.78516 1.76172l-5.36719-4.53516m4.58594 3.875l-.25782 1.19922m13.05079.42578l-2.75782-6.46484m2.35547 5.52344l-.76953.95703"/><g clip-path="url(#R)"><path fill="none" stroke="#000" stroke-linecap="round" stroke-linejoin="round" stroke-miterlimit="10" stroke-width=".5" d="M147.28125 452.4375l-6.5625 2.51953"/></g><path fill="none" stroke="#000" stroke-linecap="round" stroke-linejoin="round" stroke-miterlimit="10" stroke-width=".5" d="M147.28125 452.4375l1.85156 1.60938m11.58203-1.23829l-6.79687 1.78125m6.79687-1.78125l1.66407 1.8047m11.6914-1.63673l-6.8789 1.4414m6.8789-1.4414l1.57031 1.88672m11.77344-1.71484l-6.9375 1.09765m6.9375-1.09765l1.47656 1.96093m11.88282-1.45312l-7.02735.08203m7.02735-.08203l1.17578 2.15234m12.07422-1.42578l-6.89453-1.36719m5.89062 1.16797l.35156 1.17578m13.83594-.49609l-6.63281-2.32812m5.66797 1.98828l.1836 1.21093m13.8203-.27343l-6.07812-3.52735m5.1914 3.01563l-.04296 1.22656m14.71093-2.28906l-7.01562-.375m5.9961.32031l.51562 1.11328m13.82422-1.35547l-7.02344.21875m6-.1875l.60937 1.06641m13.72657-1.125l-7.01953.27344m6-.23438l.61718 1.0586m13.71875-.78125l-7.01953-.35938m5.9961.30469l.51953 1.11328m13.8164-1.07813l-7.01953-.3203m6 .27343l.52735 1.10938m13.70703-2.07813l-6.81641 1.71094m5.82422-1.46485l.82422.91407m13.35937-1.5586l-6.5664 2.5039m6.5664-2.5039l1.84766 1.61328m11.47265-1.58984l-6.58203 2.46094m5.625-2.10547l.91797.8125m12.83985-2.09375l-5.55079 4.3125m4.7422-3.6875l1.12109.5039m10.16015-2.48437l.13672 7.02344m-.11719-6.0039l1.07032-.59766m11.9375-.40625l.70703 6.99218m-.60156-5.97656l1.01953-.67969m12.6914-.35156l-.29297 7.02344m.25-6l1.10547-.53125m15.60547 2.69922l-7 .63672m20.19531.64062l-6.76171-1.91797m5.77734 1.64063l.26172 1.19922m11.17187 1.59765l-1.02734-6.95312m1.02734 6.95312l-1.97656 1.45313m17.21094-2.39453l-4.86719-5.07032m4.16016 4.33203l-.38282 1.16407m10.86329.37109l2.21484-6.66797m-2.21485 6.66797l-2.41796.41016"/><g clip-path="url(#S)"><path fill="none" stroke="#000" stroke-linecap="round" stroke-linejoin="round" stroke-miterlimit="10" stroke-width=".5" d="M147.28906 439.14844l-6.57812 2.46875"/></g><path fill="none" stroke="#000" stroke-linecap="round" stroke-linejoin="round" stroke-miterlimit="10" stroke-width=".5" d="M147.28906 439.14844l1.83985 1.625m11.65234-.95703l-6.9336 1.1328m6.9336-1.1328l1.48828 1.95312m11.86328-1.08984l-7.0039-.59375m7.0039.59375l.96094 2.25781m12.35547-2.27734l-7.00781-.5547m7.0078.5547l.97657 2.25m12.32813-2.16407l-6.98828-.72656m6.98828.72656l.92187 2.27735m-1.9375-2.38281l.46094 1.13671m13.8711-1.04687l-6.9922-.69531m6.9922.6953L215.0039 443m12.26562-1.65234l-6.75781-1.92578m6.75781 1.92578l.51563 2.39843m12.89062-2.8125l-6.9414-1.09765m6.9414 1.09765l.80078 2.32032m12.39844-1.82032l-6.70703-2.10156m5.73047 1.79688l.22656 1.20703m14.22266-1.96485l-7.02735.02735m6.00782-.02344l.57812 1.08203m13.75781-1.07422h-7.02734m6.0039 0l.57813 1.08594m13.7461-.7539l-6.9961-.66407m6.9961.66406l.9414 2.26563m12.28906-1.76172l-6.82812-1.67187m6.82812 1.67187l.60157 2.3789m12.8125-3.14843l-7.02735-.1289m6.0039.10937l.5547 1.09375m13.4414-2.64844l-6.34375 3.01953m5.42188-2.58203l.98437.73047m12.4375-2.26563l-4.71094 5.21094m4.02735-4.45312l1.1875.30078m9.42187-1.8086l2.0664 6.71485m-1.76562-5.73828l.8672-.8711m11.64452.08985l3.07032 6.3203m-2.625-5.39843l.72265-.99219m13.0039-.21484l1.35938 6.89453m-1.16015-5.89453l.94922-.77344m11.24218.09375l3.20703 6.25m-2.74218-5.33984l.70312-1.00781m10.2539 3.58203l6.9922-.71875m-5.97266.61328l-.6836-1.01563m14.69922 3.79297l3.5547-6.0625m-3.03907 5.17969l-1.22656-.05078m14.4453 1.14453l2.71485-6.48047m-2.71484 6.48047l-2.44531.22266m17.11718.05078v-7.02735m0 6.00391l-1.08203.57422m12.8789.10156l3.03907-6.33594m-2.59765 5.41407l-1.22657.05078"/><g clip-path="url(#T)"><path fill="none" stroke="#000" stroke-linecap="round" stroke-linejoin="round" stroke-miterlimit="10" stroke-width=".5" d="M147.29297 425.84766l-6.58594 2.4414"/></g><path fill="none" stroke="#000" stroke-linecap="round" stroke-linejoin="round" stroke-miterlimit="10" stroke-width=".5" d="M147.29297 425.84766l1.83594 1.6289m-2.79297-1.27343l.91797.8164m13.53125-.5039l-6.94141 1.10546m6.9414-1.10547l1.48048 1.95704m-2.4922-1.79688l.7422.98047m13.625-.69922l-7.02344.22266m7.02344-.22266l1.21875 2.1289m12.01171-1.23437l-6.85156-1.5664m6.85156 1.5664l.64063 2.36719m12.21094-1.26172l-5.92578-3.77734m5.92578 3.77734l-.19141 2.44531m13.36328-2.23828l-5.64062-4.1914m5.64062 4.1914l-.36719 2.42578m13.83203-2.64453l-5.9375-3.7539m5.07422 3.20703l-.08984 1.22265m14.71875-1.75l-6.83984-1.60156m5.84765 1.36719l.3125 1.1836m14.03125-1.125l-6.91406-1.25391m5.91016 1.0703l.375 1.16798m14-1.53906l-7.02344-.14454m7.02344.14454l1.10547 2.1914m11.48828-.1289l-5.58203-4.26954m4.76953 3.64844l-.19922 1.21094m14.53125-.88672l-5.98828-3.67578m5.11718 3.14062l-.07812 1.22657m14.58203-1.35547l-6.625-2.34375m5.66016 2l.18359 1.21484m13.55469.11328l-5.54297-4.3164m4.73828 3.6875l-.21094 1.21093m10.6211.64454l1.8789-6.76954m9.07422 2.1797l6.60156 2.41015m10.52344-4.67969l-1.01953 6.94922m.8711-5.9375l1.15624-.41406m10.79297-.48829l2.01172 6.73047m-1.71875-5.7539l.8711-.85938m11.80468.0039l2.70313 6.48829m-2.3125-5.54297l.78125-.94922m12.96484-.22656l1.0586 6.94922m-1.0586-6.94922l1.96875-1.46484m-1.8164 2.47656l.98437-.73047m9.82422 1.1875l5.76562 4.01172m-4.92578-3.42969l.14453-1.21875m11.72266 2.23828l6.98047.8086m-5.96484-.69141l-.44532-1.14063m12.88282 2.47266l6.70703-2.08984m-5.73047 1.78515l-.875-.86328m14.83594 3.17969l3.46093-6.11328m-3.46093 6.11328l-2.45313-.0625m18.55078.35938l-2.10156-6.70704m1.79297 5.73047l-.85938.875"/><g clip-path="url(#U)"><path fill="none" stroke="#000" stroke-linecap="round" stroke-linejoin="round" stroke-miterlimit="10" stroke-width=".5" d="M147.20313 412.30469l-6.40625 2.89453"/></g><path fill="none" stroke="#000" stroke-linecap="round" stroke-linejoin="round" stroke-miterlimit="10" stroke-width=".5" d="M147.20313 412.30469l1.9414 1.5m11.45703-1.29297l-6.57422 2.48437m6.57422-2.48437l1.84375 1.61719m11.6289-1.07422l-6.88671 1.39843m6.88672-1.39843l1.5586 1.89453m11.8203-1.41797l-7.01562.44531m5.99219-.38281l.64453 1.04688m13.51562.23828l-6.65625-2.25m5.6875 1.92187l.19922 1.21094m13.21875.4961l-4.92969-5.00782m4.9297 5.00781l-.73438 2.33985m14.16015-2.45313l-5.14843-4.78125m4.39843 4.08594l-.3125 1.1836m14.11328-.23048l-4.62109-5.29687m4.6211 5.29687l-.875 2.29297m15.23828-3.91015l-6.71875-2.0625m5.74218 1.76172l.23047 1.20312m14.21094-1.72656l-7.01563-.41406m5.9961.35156l.50781 1.11719m13.64844-.13672l-6.66016-2.25m5.6914 1.92187l.19923 1.21094m14.26953-2.00781h-7.02735m16.48438-3.4961l.6875 6.99219m10.14453-5.58594l5.65234 4.17578m7.30079-.61328l6.3789-2.94531m-5.45312 2.51563l-.97657-.7422m13.10157-.95702l6.90234 1.3125m-5.89844-1.1211l-.36328-1.17187m14.07031-1.21094l4.11329 5.69531m-3.51563-4.86718l.53906-1.10157m11.7461.64063l4.98047 4.95703m-4.25782-4.23438l.35547-1.17578m12.73828.03516l3.97657 5.79687m-3.97657-5.79687l1.13282-2.17578m11.78515 2.49219l4.76953 5.16406m-4.76953-5.16406l.8125-2.31641m-.11719 3.0664l.40625-1.15624m12.45704.20312l4.28515 5.57031m-4.28515-5.57031l1.01562-2.23437m12.10156 2.39843l4.6797 5.24219m-4.6797-5.24219l.84766-2.30468m11.41797 3.99218l6.77734 1.86719m-6.77734-1.86719l-.53516-2.39453m14.75 5.8086l4.97656-4.96094m-4.97656 4.96094l-2.34375-.72266m3.0664 0l-1.17187-.35938m15.73828 2.07813l1.02735-6.95313m-.8789 5.94141l-1.15235.41016"/><g clip-path="url(#V)"><path fill="none" stroke="#000" stroke-linecap="round" stroke-linejoin="round" stroke-miterlimit="10" stroke-width=".5" d="M146.76563 398.27344l-5.53125 4.33203"/></g><path fill="none" stroke="#000" stroke-linecap="round" stroke-linejoin="round" stroke-miterlimit="10" stroke-width=".5" d="M146.76563 398.27344l2.24218.99219m10.86328-1.23829l-5.11328 4.82032m5.11328-4.82032l2.32422.78516m10.78516-.98828l-4.69922 5.22656m4.01563-4.46484l1.1914.29687m13.88672.79297l-6.85938 1.52344m18.19532 2.4414l-2.89844-6.40234m15.39844 6.65625l-1.27344-6.91015m16.42578 5.95312l-4.94531-4.9961m4.22266 4.26954l-.36329 1.16797m14.59766-.65625l-5.33984-4.56641m4.5625 3.90234l-.26563 1.19532m13.64063.10546l-3.90235-5.84375m3.33203 4.9961l-.57812 1.07812m11.53125-6.52343l1.96094 6.74609m-1.67579-5.76563l.87891-.85546m13.48438-.25l-.70703 6.99218m.60156-5.97265l1.13672-.46485m10.39843-.21875L292 403.60156m-2.6211-5.40625l.72266-.98828m11.65235.35938l4.05078 5.74218m-3.46094-4.90625l.55469-1.09375m10.98437 1.70704l6.42578 2.84375m-6.42578-2.84375l-.17578-2.44532m13.48047 2.46875l6.44531 2.80078m-6.44531-2.80078l-.1914-2.44531m13.30468 3.0664l6.85156 1.5547m-5.85546-1.32813l-.32032-1.1836m15.0664-1.6328l1.9961 6.73437m-1.70703-5.7539l.875-.85938m10.41797 1.03906l5.46484 4.41797m11.83594-5.49219l-2.50781 6.5664m2.14062-5.61327l1.21875-.14844m12.75391-.67969l-3.08984 6.3125m3.08984-6.3125l2.45313-.08203m11.15625.2461l-3.67579 5.98827m3.67579-5.98828l2.44921.14844m10.48829-.35156l-2.92579 6.39062m2.92579-6.39062l2.45312-.14453m9.08984-.16016l.6211 7m-.53125-5.98047l1.03125-.66797m10.4414 5.99219l4.12891-5.6875m-4.1289 5.6875l-2.4297-.33984m3.02735-.48829l-1.21484-.16796m14.02343 1.0625l3.94532-5.81641m-3.94532 5.8164l-2.4414-.26171"/><g clip-path="url(#W)"><path fill="none" stroke="#000" stroke-linecap="round" stroke-linejoin="round" stroke-miterlimit="10" stroke-width=".5" d="M146.6289 384.79297l-5.2578 4.66406"/></g><path fill="none" stroke="#000" stroke-linecap="round" stroke-linejoin="round" stroke-miterlimit="10" stroke-width=".5" d="M146.6289 384.79297l2.29688.85547m-3.0625-.17969l1.14844.42969m12.53906-1.48828l-4.46875 5.42578m4.46875-5.42578l2.40234.49218m-3.05468.29688l1.20312.2461m11.61719-1.66407l-2.17969 6.6836m2.17969-6.6836l2.41797-.42188m-2.73438 1.39454l2.41797-.42188m9.90235-.71484l.4453 7.01172m-.4453-7.01172l2.08984-1.28516m8.17578 3.50781l6.54297 2.56641m-5.58984-2.1914l-.14063-1.21876m13.01172 4.29688l5.52734-4.33985m-4.72265 3.70704l-1.125-.4961m18.1875 1.98047l-3.58203-6.04297m3.0625 5.16406l-.63672 1.04688m15.52734-1.125l-5.6914-4.125m4.86328 3.52344l-.17188 1.21484m8.97656-.20312l4.98438-4.94922m11.82031-.89453l-1.99219 6.73828m1.70313-5.75781l1.19922-.2461m14.88672 2.14063l-6.95703.98828m5.9453-.84375l.72266.99219m13.60938-1.08985l-6.96875.89844m6.96875-.89844l1.42187 2m-2.43359-1.8711l.70703 1m13.4375-1.88671l-6.60156 2.41015m6.60156-2.41015l1.82422 1.63672m-2.78516-1.28516l.91407.8164m13.20312-1.53515l-6.28516 3.14453m5.3711-2.6875l1 .71094m13.47265 1.34375l-6.77343-1.875m6.77343 1.875l.53125 2.39453m12.5547-1.78906l-6.3125-3.08985m6.3125 3.08985l.08202 2.45312m13.30078-2.60156l-6.44921-2.79297m6.44921 2.79297l.19532 2.44531m13.25781-4.85546l-6.72656 2.02734m6.72656-2.02735l1.73047 1.7422m10.35156-3.52344l-4.26172 5.58984m4.26172-5.58985l2.42188.39844m10.59375-.60156l-3.66016 5.9961m3.66016-5.9961l2.44921.14453m-2.98046.72656l1.22265.07422m12.24219-1.14844l-2.89844 6.40235m2.89844-6.40235l2.44922-.15625m-2.8711 1.08985l1.22657-.07813m12.21484-.97265l-2.3086 6.63672m2.3086-6.63672l2.42578-.375m-2.76172 1.33984l1.21485-.1875m11.47656-.96875l-.38672 7.01953m.38672-7.01953l2.22656-1.02734m9.30469 7.67187l3.17969-6.26953m-2.71485 5.35547l-1.22656.02344m16.375 1.19922l-1.41797-6.88282m1.41797 6.88282l-1.88672 1.5625"/><g clip-path="url(#X)"><path fill="none" stroke="#000" stroke-linecap="round" stroke-linejoin="round" stroke-miterlimit="10" stroke-width=".5" d="M146.45703 371.29688l-4.91406 5.02343"/></g><path fill="none" stroke="#000" stroke-linecap="round" stroke-linejoin="round" stroke-miterlimit="10" stroke-width=".5" d="M146.45703 371.29688l2.35547.6914m10.67969-.9375l-4.35156 5.51563m4.35156-5.51563l2.41406.4336m-3.04688.36718l1.20704.21875m12.30468-1.3125l-3.48047 6.10156m3.48047-6.10156l2.45313.07031m-2.96094.81641l2.45313.07422m11.55859-.84766l-3.85938 5.875m3.85938-5.875l2.4414.22657m-3.0039.6289l2.44531.22656m11.4375-1.07812l-3.8711 5.86719m3.8711-5.86719l2.4414.23047m9.31642 6.19531l-.75391-6.98437m.64453 5.96875l-1.01563.6875m15.57422.0078l-3.02343-6.34374m2.58203 5.42187l-.73047.98438m16.42969-3.8711l-6.91016 1.27344m5.90625-1.08984l.76172.96094m13.61719-.46094l-7.02735-.09375m7.02735.09375l1.12109 2.17969m-2.14453-2.19532l.5625 1.09375m13.72656-.54296l-6.92969-1.16407m6.9297 1.16406l.77734 2.32813m-1.78516-2.4961l.77734 2.32813m13.48438-3.60937l-6.8086 1.73437m6.8086-1.73437l1.65234 1.8125m-2.64062-1.5625l1.64843 1.8164m-2.64062-1.5625l.82422.90625m13.96484-2.53125l-5.79297 3.97656m5.79297-3.97656l2.17578 1.13281m-3.01953-.55468l2.17578 1.13281m-3.01953-.55469l1.08984.5664m13.80079-1.875l-5.57032 4.28126m5.57032-4.28125l2.23437 1.01562m-3.04297-.39453l2.23047 1.01563m12.26563-1.03516l-6.31641 3.07813m6.3164-3.07813l1.98438 1.4414m-2.90234-.99609l1.98437 1.44532m12.58594-.71485l-6.98828.72656m6.98828-.72656l1.36719 2.03516m-2.38282-1.92969l.6836 1.01953m13.5625.07813l-6.82031-1.6836m6.8203 1.6836l.60157 2.3789m-1.59375-2.62109l.30078 1.1875m14.0039-2.64453l-6.8164 1.71484m6.8164-1.71484l1.64454 1.82031m11.08594-3.05078l-5.64844 4.17969m5.64844-4.17969l2.21484 1.05469m10.78125-1.42969l-5.01172 4.92969m5.01172-4.92969l2.33984.73828m-3.0664-.01953l1.16797.36719m12.70312-1.2461l-4.66797 5.25m4.66797-5.25l2.38672.57813m-3.0664.1836l1.1914.28906m12.625-1.20313l-4.3086 5.55469m4.3086-5.55469l2.41797.41797m-3.04688.39062l1.21094.21094M425.73046 371l-4.22655 5.61328M425.73047 371l2.42187.38281m-3.03906.4336l1.21484.1914m13.3086-.4414l-5.41016 4.48437m5.41016-4.48437l2.26953.92968m10.7461 3.875l-4.8086-5.125m4.8086 5.125l-.79298 2.32032m13.72657-2.01172l-4.05078-5.74219m4.05078 5.74219l-1.10547 2.1914m.51562-3.02734l-.55078 1.09375"/><g clip-path="url(#Y)"><path fill="none" stroke="#000" stroke-linecap="round" stroke-linejoin="round" stroke-miterlimit="10" stroke-width=".5" d="M146.45703 357.98047l-4.91406 5.02344"/></g><path fill="none" stroke="#000" stroke-linecap="round" stroke-linejoin="round" stroke-miterlimit="10" stroke-width=".5" d="M145.74219 358.71094l1.17578.34765m12.22266-1.5664l-3.65235 6.0039m3.65234-6.0039l2.44922.14062m10.91016-.11328l-3.73828 5.94922m3.73828-5.94922l2.44531.17578m-2.98828.6875l1.22266.08985m12.82812-.82422l-4.125 5.6875m4.125-5.6875l2.42969.33984m-3.03125.48828l1.21875.17188m13.92969.625l-6.58985 2.4375m6.58985-2.4375l1.83203 1.63281m-2.78906-1.27734l.91406.8164m12.40234 2.66797l-4.67578-5.24219m4.67578 5.2422l-.85156 2.30468m.17188-3.0664l-.42579 1.15234m14.83203-.82422l-5.5-4.3711m5.5 4.3711l-.4453 2.41015m-.35548-3.04687l-.22265 1.20703m15.0586-2.19531l-6.9375-1.1211m6.9375 1.1211l.78905 2.32031m-1.80078-2.48438l.79297 2.32422m13.50781-2.03515l-6.89062-1.375m6.89062 1.375l.70703 2.35156m-1.70703-2.55078l.70313 2.34765m-1.70703-2.54687l.35156 1.17578m14.96875-2.15234l-6.89063 1.3789m6.89063-1.3789l1.55469 1.89844m-2.5586-1.69922l1.5547 1.89843m12.39452-3.10937l-6.14844 3.40234m6.14844-3.40234l2.05469 1.33594m-2.94922-.83985l2.05469 1.33594m11.98437-2.10938l-5.80859 3.95313m5.8086-3.95313l2.17187 1.14454m-3.01953-.57032l2.17187 1.14454m11.82813-1.9375l-5.48438 4.39062m5.48438-4.39063l2.2539.97266m-3.05078-.33203l1.125.48438m13.39063-.48829l-6.29297 3.1211m6.29297-3.1211l1.9961 1.4297m-2.91017-.97657l.9961.71484m13.42969-.6914l-6.6875 2.16406m6.6875-2.16406l1.76171 1.70703m-2.73437-1.39063l.88281.85156m13.48828-.86328l-6.85156 1.5547m6.85156-1.5547l1.60157 1.85938m11.66406-2.04688l-6.7539 1.9297m6.7539-1.9297l1.70312 1.76563m-2.68359-1.48438l.85156.88282m13.09375-1.98438l-6.05078 3.57422m6.05078-3.57422l2.09375 1.27735m-2.97656-.75782l1.04687.64063m12.82813-1.6211l-5.40625 4.4922m5.40625-4.4922l2.26953.9297m-3.0586-.27345l1.13673.46485m13.0625-1l-5.59766 4.25m5.59766-4.25l2.22656 1.03125m-3.04297-.41016l2.23047 1.02735m11.9375-1.59766l-5.67188 4.15234m5.67188-4.15234l2.20703 1.0664m-3.03125-.46093l2.20703 1.0664m12.3711-.86718l-6.55079 2.53906m6.55078-2.53906l1.85938 1.60546m-2.8125-1.23437l1.85937 1.60156m12.64844-.6875l-7.02734-.03125m7.02734.03125l1.14063 2.17188m-2.16407-2.17578l1.14454 2.17187m13.14062-1.58203l-6.92187-1.19922m6.92187 1.19922l.76953 2.32813m-1.77344-2.50391l.38282 1.16406m13.08593.76563l-5.21875-4.70704m5.21875 4.70704l-.59765 2.3789m-.16406-3.0664l-.29688 1.1914"/><g clip-path="url(#Z)"><path fill="none" stroke="#000" stroke-linecap="round" stroke-linejoin="round" stroke-miterlimit="10" stroke-width=".5" d="M147.51172 347.27734l-7.02344-.19921"/></g><path fill="none" stroke="#000" stroke-linecap="round" stroke-linejoin="round" stroke-miterlimit="10" stroke-width=".5" d="M159.79297 344.6875l-4.95313 4.98438m4.23047-4.26172l1.17578.35546m12.3047-1.53125l-3.83985 5.88672m3.83984-5.88671l2.4414.21875m11.81641.6875l-5.72656 4.07812m5.72656-4.07813l2.19532 1.09375m-3.03125-.5l1.09765.54688m13.53906-.16406l-6.69921 2.1211m6.69922-2.1211l1.7539 1.71875m-2.72656-1.41016l.875.85938m13.26172 1.35156l-6.39453-2.91797m6.39453 2.91797l.14453 2.44922m-1.07813-2.875l.14844 2.44922m13.5586-1.1836l-5.3125-4.59765m5.3125 4.59765L226 351.8672m-.22656-3.0586l-.54688 2.39063M225 348.14062l-.27344 1.19532m15.71485-.78906l-6.47266-2.73829m6.47266 2.73829l.21484 2.4453M239.5 348.14845l.21484 2.44531M238.5586 347.75l.10938 1.22266m15.35937-1.60547l-7.01562-.3789m7.01562.3789l1.03516 2.22656m-2.05469-2.28125l1.03516 2.22656m-2.05469-2.28125l.51563 1.11328m14.72656-2.09375l-6.79297 1.80079m6.79297-1.80079l1.66797 1.80079m-2.65625-1.53907l1.66797 1.80078m-2.65625-1.53906l.83593.90235m14.03516-2.39454l-5.94922 3.73829m5.94922-3.73829l2.1289 1.22266m-2.99218-.67969l2.125 1.22266m12.20703-1.4961l-6.2539 3.20313m6.2539-3.20313l2.01172 1.40235m-2.92188-.9375l1.00391.69922m13.3164-.96094l-6.4453 2.79297m6.4453-2.79297l1.91797 1.52734m-2.85546-1.12109l.96093.76563m13.08985-1.57032l-6.03907 3.59375m6.03907-3.59375l2.09765 1.27344m-2.97656-.7539l1.04688.63671m12.9453-1.45703l-5.64062 4.1914m5.64063-4.1914l2.21875 1.05078m-3.03906-.4414l1.10937.52734m13.71875.92188l-7.02734.07812m7.02734-.07813l1.17578 2.15235m-2.19531-2.14063l.58594 1.07422m13.75-.96875l-7.02735-.16015m7.02735.16015l1.10156 2.1914m-2.125-2.21483l.55078 1.09765m13.72266-1.82422l-6.89844 1.33985m6.89844-1.33985l1.54687 1.90625m-2.55078-1.71094l.77344.95313m13.39062-1.69922l-6.58593 2.44531m6.58593-2.4453l1.83594 1.6289m11.38672-1.85547l-6.40234 2.89453m6.40234-2.89453l1.9414 1.5m-2.87109-1.07813l.96875.75m13.53125-.36328l-6.91015 1.28125m6.91015-1.28125l1.52735 1.91797m-2.53516-1.73437l1.52734 1.92187m12.83985-1.7539l-7.0039.57421m7.0039-.57421l1.32812 2.0664m-2.34765-1.98437l1.32812 2.0664m-2.34375-1.98047l.66016 1.03125m14.69531-.68359l-7.01172-.45703m7.01172.45703l1.00781 2.23828m-2.02734-2.30469l1.00781 2.23829m-2.02734-2.3047l1.00781 2.23829m14.34766-2.55469l-7.01563.4414m7.01563-.4414l1.28515 2.08985m-2.30469-2.02735l1.28516 2.08985m-2.3086-2.02344L453 349.17578m14.0625-2.3164l-7 .63671"/><g clip-path="url(#aa)"><path fill="none" stroke="#000" stroke-linecap="round" stroke-linejoin="round" stroke-miterlimit="10" stroke-width=".5" d="M467.0625 346.85938l1.33984 2.05468"/></g><path fill="none" stroke="#000" stroke-linecap="round" stroke-linejoin="round" stroke-miterlimit="10" stroke-width=".5" d="M466.04297 346.95313l1.34375 2.05468m-2.36328-1.96094l.67187 1.02344"/><g clip-path="url(#ab)"><path fill="none" stroke="#000" stroke-linecap="round" stroke-linejoin="round" stroke-miterlimit="10" stroke-width=".5" d="M147.40625 334.72656L140.59375 333"/></g><path fill="none" stroke="#000" stroke-linecap="round" stroke-linejoin="round" stroke-miterlimit="10" stroke-width=".5" d="M146.41406 334.47656l.29297 1.1914m14.0625-2.45702l-6.90625 1.30469m5.89844-1.11329l.76953.95704m13.23438-2.07813l-6.27344 3.16406m6.27344-3.16406l2.0039 1.41406m11.58594-.67969l-6.82031 1.69532m6.8203-1.69531l1.64063 1.82812m-2.6328-1.58203l.8203.91406m13.57032-.69531l-6.98438.76562m6.98438-.76562l1.3789 2.02734m-2.39453-1.91797l.6875 1.01563m13.1836 1.02734l-6.06641-3.54297m6.0664 3.54297l-.09765 2.45313m-.78516-2.96875l-.09765 2.45312m-.78516-2.96484l-.04688 1.22265m14.96094.06641l-5.73437-4.0625m5.73437 4.0625l-.3125 2.4336m-.52344-3.02735l-.30859 2.4336m-.52344-3.02344l-.15625 1.21875m15.48828-.65235l-6.43359-2.82812m6.4336 2.82812l.18359 2.44532m-1.1211-2.85547l.1836 2.44531m-1.11719-2.85938l.08984 1.22266m15.39063-1.73047l-7.02344-.16406m7.02344.16406l1.10156 2.1914m-2.1211-2.21483l1.10157 2.1914m-2.125-2.21484l.55078 1.09375m14.6914-2.04297l-6.78905 1.82812m6.78906-1.82812l1.67187 1.79297m-2.66015-1.52735l1.67578 1.79297m12.32812-2.8086l-6.1914 3.32813m6.1914-3.32812l2.03907 1.36328m-2.94141-.8789l2.04297 1.36327m12.23828-1.72656l-6.3164 3.08203m6.3164-3.08203l1.98438 1.44531m11.625-.55468l-6.90625 1.30469m6.90625-1.3047l1.53515 1.91407m11.79297-1.83203l-6.9336 1.14062m6.9336-1.14062l1.48828 1.95312m-2.4961-1.78515l1.48829 1.94922m12.77344-2.40625l-6.8125 1.71875m6.8125-1.71875l1.64843 1.8164m-2.63671-1.5664l1.64453 1.8203m12.76562-1.16015l-7.02734-.10156m7.02734.10156l1.1211 2.17969m-2.14063-2.19531l.5586 1.08984m13.77734-1.14453l-7.02735.03906m7.02735-.03906l1.16406 2.16016m-2.1875-2.15235l.58203 1.07813m13.63281-1.98828l-6.78125 1.84375m6.78125-1.84375l1.6797 1.78906m-2.66407-1.51953l.83984.89453m13-2.1836l-5.85937 3.88282m5.85937-3.88281l2.15625 1.17187m-3.01172-.60547l1.08204.58203m13.58203-.0039l-6.84766 1.59375m6.84766-1.59375l1.60937 1.85156m11.78125-.72656l-6.9961-.65625m6.9961.65625l.94531 2.26171m-1.96484-2.35937l.94531 2.26563m13.39844-2.3047l-7.01563-.3828m7.01563.3828l1.03125 2.22266m-2.05078-2.28125l1.03125 2.22657m-2.05469-2.28125l1.03516 2.22656m14.32812-2.30469h-7.02734m7.02734 0l1.15235 2.16797m-2.17579-2.16797l1.15235 2.16797m-2.17578-2.16797l1.15234 2.16797m-2.17187-2.16797l.57421 1.08203m15.76563-1.6211l-6.94531 1.07813m6.94531-1.07812l1.46875 1.96484m-2.48047-1.8086l1.47266 1.96485m-2.48047-1.8086l1.46875 1.96485m-2.48047-1.8086l.73438.98438m15.52343-1.85937l-6.76953 1.89062"/><g clip-path="url(#ac)"><path fill="none" stroke="#000" stroke-linecap="round" stroke-linejoin="round" stroke-miterlimit="10" stroke-width=".5" d="M466.94531 332.91797l1.6914 1.77734"/></g><path fill="none" stroke="#000" stroke-linecap="round" stroke-linejoin="round" stroke-miterlimit="10" stroke-width=".5" d="M465.96094 333.19531l1.6914 1.77344m-2.67578-1.5l.84766.88672"/><g clip-path="url(#ad)"><path fill="none" stroke="#000" stroke-linecap="round" stroke-linejoin="round" stroke-miterlimit="10" stroke-width=".5" d="M147.49219 320.16406l-6.98438.76953"/></g><path fill="none" stroke="#000" stroke-linecap="round" stroke-linejoin="round" stroke-miterlimit="10" stroke-width=".5" d="M147.49219 320.16406l1.38281 2.02735m11.8711-2.40625l-6.85938 1.52343m6.85937-1.52343l1.59375 1.86718m11.52344-2.47656l-6.46875 2.7461m6.46875-2.7461l1.90625 1.54297m11.66406-.57813l-6.97656.8125m6.97656-.8125l1.39453 2.01954m11.88672-.96094l-6.90625-1.30078m6.90625 1.30078l.73047 2.33984m-1.73828-2.53125l.36719 1.17188m13.60547.01172l-6.21094-3.28907m6.21094 3.28907l.0039 2.45312m-.90625-2.92969l.00391 2.45313m-.90625-2.9336v1.22657m15.03906-.1211l-6.04687-3.58203m6.04687 3.58203l-.11719 2.44922m-.76171-2.96875l-.1172 2.44922m-.76562-2.97265l-.11328 2.45312m15.60938-2.5l-6.88672-1.40234m6.88672 1.40234l.69531 2.35156m-1.69531-2.5586l.69531 2.35548m-1.69922-2.5586l.34766 1.17579m15.02734-1.8047l-6.9961.67188m6.9961-.67187l1.35156 2.04687M253 320.3086l1.35547 2.04688m-2.3711-1.94922l.67579 1.02344m14.42968-2.20313l-6.51172 2.64063m6.51172-2.64063l1.88282 1.57422m-2.82813-1.1875l1.88281 1.57422m11.86328-2.83594l-5.48046 4.39453m5.48047-4.39453l2.2539.96875m-3.05078-.33203l1.1289.48438m12.84376-1.28516l-5.20313 4.72266m5.20313-4.72266l2.30859.82813m11.23047 3.62109l-5.64844-4.17969m5.64844 4.17969l-.36328 2.42969m14.35547-4.25l-7.00391-.53516m7.0039.53516l.98438 2.24609m-2.0039-2.32422l.49218 1.125m13.83203-1.71875l-6.98046.80469m6.98046-.80469l1.39063 2.02344m-2.40625-1.90625l1.39062 2.02344m12.86329-2.5586l-6.83204 1.64453m6.83204-1.64453l1.6289 1.83594m-2.6211-1.59766l1.625 1.83594m12.46485-2.71094l-6.39453 2.91407m6.39453-2.91407l1.94531 1.4922m-2.875-1.06642l.97266.7461m13.20313-1.3086l-6.25782 3.19141m6.25782-3.1914l2.01171 1.40625m-2.92187-.94141l1.00781.70312m12.57422-2.05859l-4.96875 4.96875m4.96875-4.96875l2.34766.71875m-3.07032.0039l1.17188.35938m13.57812-.05469l-6.39453 2.91407m5.46485-2.48829l.97265.7461m12.60157 2.73047l-5.05079-4.88672m5.05079 4.88672l-.6797 2.35547m14.66016-3.33204l-6.38671-2.93359m6.38671 2.9336l.14454 2.44921m13.48437-4.125l-7.01172.41407m7.01172-.41407l1.27734 2.09766m-2.29687-2.03516l.64062 1.04688m13.44532-2.21875l-6.51563 2.63672m6.51563-2.63672l1.8789 1.57422m-2.82812-1.1914l1.88281 1.57421m-2.82812-1.1914l1.8789 1.57812m13.03906-2.90625l-5.93359 3.76172"/><g clip-path="url(#ae)"><path fill="none" stroke="#000" stroke-linecap="round" stroke-linejoin="round" stroke-miterlimit="10" stroke-width=".5" d="M466.52734 318.66797l2.13282 1.21094"/></g><g clip-path="url(#af)"><path fill="none" stroke="#000" stroke-linecap="round" stroke-linejoin="round" stroke-miterlimit="10" stroke-width=".5" d="M465.66406 319.21484l2.13281 1.21094"/></g><path fill="none" stroke="#000" stroke-linecap="round" stroke-linejoin="round" stroke-miterlimit="10" stroke-width=".5" d="M464.80078 319.76172l2.13281 1.21484"/><path fill="#ff3030" fill-rule="evenodd" d="M326.79688 458.77344h7.6914V448.625h-7.6914v10.14844"/><path fill="azure" fill-rule="evenodd" d="M328.6289 450.45703h.83204v5.74219h3.19531v.73828h-4.02734v-6.48047"/><path fill="#ff3030" fill-rule="evenodd" d="M162.57813 454.33203h7.6914V444.1875h-7.6914v10.14453"/><path fill="azure" fill-rule="evenodd" d="M164.41016 446.01953h.83203v5.73828h3.19531V452.5h-4.02734v-6.48047"/><path fill="#00f" fill-rule="evenodd" d="M388.23828 427.70313h8.61719v-10.14454h-8.61719v10.14454"/><path fill="azure" fill-rule="evenodd" d="M390.07031 419.39063h.83594v2.82421h3.28516v-2.82421h.83203v6.48046h-.83203v-2.91796h-3.28516v2.91796h-.83594v-6.48046"/><path fill="#00f" fill-rule="evenodd" d="M215.14453 409.94922h8.61719v-10.14453h-8.61719v10.14453"/><path fill="azure" fill-rule="evenodd" d="M216.97656 401.63672h.83203v2.82422h3.28516v-2.82422h.83594v6.48047h-.83594v-2.91797h-3.28516v2.91797h-.83203v-6.48047"/><path fill="#00f" fill-rule="evenodd" d="M370.48438 401.07422h8.62109v-10.14844h-8.6211v10.14844"/><path fill="azure" fill-rule="evenodd" d="M372.3164 392.76172h.83594v2.82031h3.28516v-2.82031h.83203v6.47656h-.83203v-2.91406h-3.28516v2.91406h-.83593v-6.47656"/><path fill="#ff3030" fill-rule="evenodd" d="M331.23438 392.19531h7.6914v-10.14453h-7.6914v10.14453"/><path fill="azure" fill-rule="evenodd" d="M333.0664 383.88281h.83594v5.73828h3.19141v.7422h-4.02734v-6.48048"/><path fill="#ff3030" fill-rule="evenodd" d="M446.63281 378.88281h7.6914v-10.14844h-7.6914v10.14844"/><path fill="azure" fill-rule="evenodd" d="M448.46484 370.5664h.83204v5.7422h3.1953v.73827h-4.02734v-6.48046"/><path fill="#ff3030" fill-rule="evenodd" d="M277.97266 374.4414h7.6953v-10.14452h-7.6953v10.14453"/><path fill="azure" fill-rule="evenodd" d="M279.8086 366.1289h.83202v5.7422h3.19141v.73827h-4.02344v-6.48046"/><path fill="#ff3030" fill-rule="evenodd" d="M198.08203 356.6875h7.69531v-10.14453h-7.6953v10.14453"/><path fill="azure" fill-rule="evenodd" d="M199.91797 348.375h.83203v5.74219h3.19531v.73828h-4.02734V348.375"/><path fill="#ffffe0" fill-rule="evenodd" d="M421.63281 453.33594h22.1836v-10.1914h-22.1836v10.1914"/><path fill-rule="evenodd" d="M425.13281 444.97656h.51172v6.29297h-.78906v-4.48828h-1.38672v-.55469l.5586-.0664.2539-.0547.22656-.08983.20313-.14063.17578-.21094.14062-.29297.10547-.39453m4.8164 0l.22657.01953.21875.0547.21094.08983.19531.1211.1836.14844.17187.17578.30078.41797.24219.49609.17969.54688.11328.57812.03906.58984-.03906.59375-.11328.58594-.1797.55078-.24218.5039-.30078.4297-.17188.17968-.18359.15235-.19531.1211-.21094.09374-.21875.05469-.22656.01953-.23047-.01953-.21875-.05469-.20703-.09375-.19922-.1211-.1836-.15234-.17187-.17968-.30078-.4297-.24219-.5039-.17969-.55078-.11328-.58594-.03906-.59375h.83594l.02734.5625.08203.50782.125.4414.16407.375.1914.30078.21094.22266.22266.13672.22656.04687.22656-.04687.22266-.13672.20703-.22266.1914-.30078.16407-.375.125-.4414.08203-.50782.02734-.5625-.02734-.55859-.08203-.5039-.125-.4336-.16406-.36719-.19141-.29297-.20703-.21093-.22266-.13282-.22656-.04296-.22656.04296-.22266.13282-.21094.21093-.1914.29297-.16407.36719-.125.4336-.08203.5039-.02734.5586h-.83594l.03906-.58985.11329-.57813.17968-.54687.24219-.4961.30078-.41796.17188-.17578.18359-.14844.19922-.1211.20703-.08984.21875-.05469.23047-.01953m5.08984 0h.50781v6.29297h-.78515v-4.48828h-1.39063v-.55469l.5625-.0664.25-.0547.23047-.08983.20313-.14063.17578-.21094.14062-.29297.10547-.39453m2.82422 2.17578h.78516l.01953-.3164.0586-.28906.10156-.25.14062-.21485.17969-.17578.22265-.1289.26563-.07813.3086-.02735.23827.01954.22266.0625.20313.10156.17968.13672.14844.17578.11328.20312.07422.23829.02344.26562-.02344.26563-.0625.22656-.11328.1914-.15235.17188-.20312.16015-.2461.16797-.6328.38672-.53907.3164-.4375.31642-.34765.32421-.26172.33594-.19141.35156-.125.3672-.0664.39452-.02344.41797h4.21093v-.73828h-3.33203l.08594-.28516.11328-.23828.14844-.19922.1875-.17968.23047-.17188.27734-.17578.71875-.41797.41406-.20312.34375-.23438.28125-.25.22266-.26562.16016-.27735.11328-.28515.0625-.28516.01953-.28125-.03906-.38281-.1211-.34766-.1914-.3086-.25-.26171-.30079-.21485-.34765-.15625-.3789-.10156-.40626-.03125-.4336.03125-.39843.09766-.35547.16797-.30469.23437-.25.30469-.18359.375-.11719.44531-.03906.51953"/><path fill="#ffffe0" fill-rule="evenodd" d="M342.9375 374.67578h22.17969v-10.19531H342.9375v10.19531"/><path fill-rule="evenodd" d="M346.4375 366.3164h.50781v6.29298h-.78515v-4.48829h-1.39063v-.55468l.5586-.06641.2539-.05469.23047-.08984.20313-.14063.17187-.21093.14453-.29297.10547-.39453m4.8125 0l.23047.01953.21875.05469.20703.08984.19531.1211.1836.14843.17187.17578.30469.41797.24219.4961.17968.54687.10938.57812.03906.58985-.03906.59375-.10938.58594-.17968.55078-.2422.5039-.30468.42578-.17187.1797-.1836.15624-.19531.1211-.20703.09375-.21875.05468-.23047.01953-.23047-.01953-.21875-.05469-.20703-.09375-.19531-.12109-.1836-.15625-.17187-.17969-.30469-.42578-.24219-.5039-.17968-.55079-.10938-.58593-.03906-.59375H350l.02734.5625.08204.50781.1289.4414.16016.375.1914.30079.21094.22265.22266.13672.22656.04688.22656-.04688.22266-.13672.21094-.22265.1914-.30078.16016-.375.1289-.44141.07813-.50781.03125-.5625-.03125-.5625-.07813-.5-.1289-.4336-.16016-.36718-.1914-.29297-.21094-.21094-.22266-.13281-.22656-.04688-.22656.04688-.22266.13281-.21094.21094-.1914.29297-.16016.36718-.1289.4336-.08204.5-.02734.5625h-.83203l.03906-.58985.10938-.57812.17968-.54688.2422-.49609.30468-.41797.17187-.17578.1836-.14844.19531-.1211.20703-.08983.21875-.0547.23047-.01952m5.08984 0h.51172v6.29296h-.78906v-4.48828h-1.38672v-.55468l.5586-.06641.2539-.05469.22656-.08984.20704-.14063.17187-.21093.14063-.29297.10546-.39453m2.82422 2.17578h.78906l.01954-.3164.05859-.28907.09766-.25.14062-.21485.1836-.17578.22265-.1289.26563-.08203.30468-.02735.23829.02344.22656.0625.20312.10156.17969.13672.14844.17578.11328.20313.07031.23828.02344.26172-.01953.26953-.0664.22656-.10938.1914-.15625.17188-.19922.16016-.2461.16797-.63671.38672-.53516.3125-.4375.3203-.34766.32423-.26562.33594-.1875.34765-.125.3711-.07031.39453-.01954.41796h4.21094v-.73828h-3.33203l.08203-.28515.11328-.23828.14844-.19922.1875-.1836.23047-.16796.27734-.17579.71875-.41796.41406-.20704.34766-.23046.28125-.25.21875-.26563.16406-.28125.10938-.28125.0664-.28516.01954-.28125-.04297-.3828-.1211-.34767-.1875-.30859-.25-.26172-.30468-.21484-.34375-.15625-.38282-.10156-.40625-.03125-.43359.03125-.39844.09765-.35547.16797-.30468.23438-.2461.30468-.1875.375-.11719.44532-.03906.51953"/><path fill="#ffffe0" fill-rule="evenodd" d="M328.42969 409.63672h22.17969v-10.1914h-22.1797v10.1914"/><path fill-rule="evenodd" d="M331.92969 401.27734h.50781v6.29688h-.78516v-4.48828h-1.39062v-.5586l.5586-.0625.2539-.05468.23047-.08985.20312-.14062.17188-.21094.14453-.29297.10547-.39844m4.8125 0l.23047.01954.21875.05859.20703.08594.19531.12109.1836.15234.17187.17579.30469.41796.24218.4922.1797.54687.10937.58203.03906.58984-.03906.59375-.10938.58203-.17969.55469-.24218.5039-.3047.42579-.17187.17969-.18359.15234-.19531.125-.20703.09375-.21875.05469-.23047.01953-.23047-.01953-.21875-.0547-.20703-.09374-.19531-.125-.1836-.15235-.17187-.17968-.3047-.42578-.24218-.50391-.17969-.55469-.10937-.58203-.03906-.59375h.83203l.02734.5625.08203.50781.1289.44141.16017.375.1914.30078.21094.21875.22265.13672.22657.04688.22656-.04688.22266-.13672.21093-.21875.19141-.30078.16016-.375.1289-.4414.07813-.50782.03125-.5625-.03125-.5625-.07813-.5-.1289-.4336-.16016-.36718-.1914-.29297-.21094-.21484-.22266-.1289-.22656-.04688-.22656.04687-.22266.1289-.21094.21485-.1914.29297-.16016.36719-.1289.4336-.08204.5-.02734.5625h-.83203l.03906-.58985.10937-.58203.1797-.54688.24218-.49219.30469-.41796.17187-.17579.1836-.15234.1953-.1211.20704-.08593.21875-.0586.23047-.01953m5.08984 0h.51172v6.29688h-.78906v-4.48828h-1.38672v-.5586l.5586-.0625.2539-.05468.22656-.08985.20313-.14062.17578-.21094.14062-.29297.10547-.39844m2.82422 2.17579h.78906l.01953-.31641.0586-.28516.09765-.2539.14063-.21485.17969-.17187.22656-.1289.26172-.08204.3086-.02734.23827.02343.22266.0625.20703.10157.17969.13671.14844.17188.11328.20703.0703.23828.02345.26172-.01954.26953-.0664.22656-.10938.19141-.15625.16797-.19921.16406-.25.16797-.63282.38672-.53515.3125-.4375.3164-.34766.32423-.26563.33593-.1875.35156-.125.3711-.0703.39453-.01954.41797h4.21094v-.74219h-3.33203l.08203-.28125.11328-.23828.14844-.20313.1875-.17968.23047-.17188.27734-.17578.71875-.41406.41406-.20703.34766-.23047.28125-.25.21875-.26953.16406-.27735.10938-.28125.0664-.28515.01953-.28125-.04296-.38672-.1211-.34766-.1875-.30469-.25-.26562-.30469-.21094-.34375-.16015-.3828-.09766-.40626-.03516-.4336.03516-.39843.09766-.35547.16796-.30469.23438-.24609.30469-.1875.3711-.11719.44921-.03906.51563"/><path fill="#ffffe0" fill-rule="evenodd" d="M252.97656 414.21484h22.17969v-10.1914h-22.17969v10.1914"/><path fill-rule="evenodd" d="M256.47656 405.85938h.50781v6.29296h-.78515v-4.48828h-1.39063v-.5586l.5625-.0625.25-.05468.23047-.08984.20313-.14063.17578-.21094.14062-.29296.10547-.39454m4.8125 0l.23047.01563.21875.0586.20703.08984.19531.11719.1875.15234.17188.17578.30078.41797.24219.49219.17969.54687.11328.58203.03515.58985-.03515.59375-.11328.58203-.1797.55469-.24218.5039-.30078.42578-.17188.17969-.1875.15234-.1953.125-.20704.09375-.21875.0547-.23047.01952-.22656-.01953-.22266-.05469-.20703-.09375-.19531-.125-.1836-.15234-.17187-.17969-.30078-.42578-.2461-.5039-.17968-.5547-.10938-.58202-.03906-.59375h.83203l.03125.5625.08203.5078.125.44142.16016.375.1914.30078.21094.21875.22266.14062.22656.04688.22656-.04688.22266-.14062.21094-.21875.1914-.30079.16407-.375.125-.4414.08203-.50781.02734-.5625-.02734-.5625-.08203-.5-.125-.4336-.16406-.36719-.19141-.29296-.21094-.21485-.22265-.1289-.22657-.04688-.22656.04688-.22266.1289-.21093.21485-.19141.29296-.16016.3672-.125.43359-.08203.5-.03125.5625h-.83203l.03906-.58985.10938-.58203.17969-.54687.24609-.4922.30078-.41796.17188-.17578.18359-.15235.19531-.11718.20703-.08985.22266-.05859.22656-.01563m5.09375 0h.50781v6.29297h-.78515v-4.48828h-1.39063v-.5586l.5586-.0625.2539-.05468.23047-.08984.20313-.14063.17187-.21094.14453-.29296.10547-.39454m2.82031 2.17188h.78907l.01953-.3164.0586-.28516.09765-.25.14062-.21875.1836-.17188.22265-.1289.26563-.08204.3086-.02734.23437.02344.22656.0625.20313.10156.17968.13672.14844.17578.11328.20313.07031.23828.02735.26172-.02344.26953-.0664.22656-.10938.1914-.15625.17188-.19922.16016-.2461.16797-.63671.38671-.53516.3125-.4375.31641-.34765.32813-.26172.33203-.19141.35156-.125.3711-.07031.39452-.01953.41797h4.21093v-.74218h-3.33203l.08203-.28125.11329-.23829.14843-.20312.1875-.17969.23047-.17187.28125-.17578.71485-.41407.41796-.20703.34375-.23047.28125-.25.21875-.26953.16407-.27734.11328-.28125.0625-.28516.01953-.28125-.04297-.38281-.11719-.35156-.1914-.30469-.25-.26563-.30079-.21093-.34765-.16016-.3789-.09765-.40626-.03125-.4375.03125-.39844.09765-.35156.16797-.3086.23438-.24608.30468-.1875.3711-.11329.44921-.04296.51563"/><path fill="#ffffe0" fill-rule="evenodd" d="M218.4414 361.35938h22.1797v-10.19141h-22.1797v10.1914"/><path fill-rule="evenodd" d="M221.9414 353h.50782v6.29297h-.78906v-4.48828h-1.38672V354.25l.5586-.0664.2539-.05079.23047-.08984.20312-.14453.17188-.20703.14062-.29688.10938-.39453m4.8125 0l.23047.01953.21875.05469.20703.08984.1953.1211.1836.14843.17188.17579.30078.42187.2461.49219.17968.54687.10938.57813.03906.58984-.03906.59375-.10938.58594-.17969.55469-.2461.5-.30077.42968-.17188.1797-.1836.15233-.1953.125-.20703.08985-.21875.0586-.23047.01952-.23047-.01953-.21875-.0586-.20703-.08983-.19532-.125-.1875-.15235-.16797-.17969-.30468-.42968-.24219-.5-.17969-.5547-.11328-.58593-.03516-.59375h.83204l.02734.5664.08203.50391.1289.44141.16016.375.19141.30078.21094.22266.22265.13672.22657.04687.22656-.04687.22266-.13672.21093-.22266.1914-.30078.16017-.375.125-.4414.08203-.50391.03125-.5664-.03125-.5586-.08203-.5-.125-.4375-.16016-.36328-.1914-.29297-.21095-.21485-.22265-.1328-.22656-.04298-.22657.04297-.22265.13281-.21094.21485-.1914.29297-.16016.36328-.1289.4375-.08204.5-.02734.5586h-.83203l.03515-.58985.11328-.57813.17969-.54687.24219-.49219.30469-.42188.16796-.17578.1875-.14843.19532-.1211.20703-.08984.21875-.05469.23047-.01953m5.08984 0h.51172v6.29297h-.78906v-4.48828h-1.38672V354.25l.5586-.0664.2539-.05079.22656-.08984.20313-.14453.17578-.20703.14062-.29688.10547-.39453m2.82422 2.17578h.78906l.01953-.3164.0586-.28516.09765-.2539.14063-.21485.17969-.17578.22265-.1289.26563-.07813.30859-.02735.23828.01953.22266.0625.20703.10157.17969.14062.14843.17188.11328.20703.07032.23437.02344.26563-.01954.26953-.0664.22265-.10938.19141-.15625.17188-.19922.16406-.25.16406-.6328.39063-.53907.3125-.4375.3164-.34375.32422-.26563.33594-.1875.35156-.1289.3711-.0664.39062-.01954.41797h4.21094v-.73828h-3.33203l.08203-.28516.11328-.23437.14844-.20313.1875-.17969.23047-.17187.27734-.17578.71875-.41797.41406-.20313.34766-.23046.28125-.25391.21875-.26563.16406-.27734.10938-.28516.0625-.28515.02343-.28125-.04297-.38281-.12109-.34766-.1875-.3086-.25-.26171-.30469-.21485-.34375-.15625-.38281-.09765L236.75 353l-.4336.03125-.39843.10156-.35547.16406-.30469.23438-.2461.30469-.1875.375-.11718.44531-.03906.51953"/></g></defs><use xlink:href="#ag"/></svg>