<svg xmlns="http://www.w3.org/2000/svg" role="img" xmlns:xlink="http://www.w3.org/1999/xlink" viewBox="142.45 309.95 326.84 171.84"><defs><clipPath id="a"><path d="M144 311.67188h1v168.65625h-1zm0 0"/></clipPath><clipPath id="b"><path d="M144 311.67188h324v168.65625H144zm0 0"/></clipPath><clipPath id="c"><path d="M467 311.67188h1v168.65625h-1zm0 0"/></clipPath><clipPath id="d"><path d="M144 476h1v4.32813h-1zm0 0"/></clipPath><clipPath id="e"><path d="M154 477h6v3.32813h-6zm0 0"/></clipPath><clipPath id="f"><path d="M167 477h7v3.32813h-7zm0 0"/></clipPath><clipPath id="g"><path d="M180 477h7v3.32813h-7zm0 0"/></clipPath><clipPath id="h"><path d="M193 479h8v1.32813h-8zm0 0"/></clipPath><clipPath id="i"><path d="M209 476h4v4.32813h-4zm0 0"/></clipPath><clipPath id="j"><path d="M222 476h4v4.32813h-4zm0 0"/></clipPath><clipPath id="k"><path d="M233 478h8v2.32813h-8zm0 0"/></clipPath><clipPath id="l"><path d="M246 479h9v1.32813h-9zm0 0"/></clipPath><clipPath id="m"><path d="M252 480h2v.32813h-2zm0 0"/></clipPath><clipPath id="n"><path d="M260 479h8v1.32813h-8zm0 0"/></clipPath><clipPath id="o"><path d="M266 479h2v1.32813h-2zm0 0"/></clipPath><clipPath id="p"><path d="M273 478h8v2.32813h-8zm0 0"/></clipPath><clipPath id="q"><path d="M279 479h2v1.32813h-2zm0 0"/></clipPath><clipPath id="r"><path d="M286 479h9v1.32813h-9zm0 0"/></clipPath><clipPath id="s"><path d="M292 479h2v1.32813h-2zm0 0"/></clipPath><clipPath id="t"><path d="M300 479h8v1.32813h-8zm0 0"/></clipPath><clipPath id="u"><path d="M306 479h4v1.32813h-4zm0 0"/></clipPath><clipPath id="v"><path d="M313 479h8v1.32813h-8zm0 0"/></clipPath><clipPath id="w"><path d="M320 479h3v1.32813h-3zm0 0"/></clipPath><clipPath id="x"><path d="M326 479h9v1.32813h-9zm0 0"/></clipPath><clipPath id="y"><path d="M333 479h3v1.32813h-3zm0 0"/></clipPath><clipPath id="z"><path d="M341 477h6v3.32813h-6zm0 0"/></clipPath><clipPath id="A"><path d="M355 476h4v4.32813h-4zm0 0"/></clipPath><clipPath id="B"><path d="M367 477h6v3.32813h-6zm0 0"/></clipPath><clipPath id="C"><path d="M380 478h7v2.32813h-7zm0 0"/></clipPath><clipPath id="D"><path d="M386 478h4v2.32813h-4zm0 0"/></clipPath><clipPath id="E"><path d="M394 477h6v3.32813h-6zm0 0"/></clipPath><clipPath id="F"><path d="M408 477h5v3.32813h-5zm0 0"/></clipPath><clipPath id="G"><path d="M420 478h7v2.32813h-7zm0 0"/></clipPath><clipPath id="H"><path d="M434 477h6v3.32813h-6zm0 0"/></clipPath><clipPath id="I"><path d="M447 477h7v3.32813h-7zm0 0"/></clipPath><clipPath id="J"><path d="M459 479h9v1.32813h-9zm0 0"/></clipPath><clipPath id="K"><path d="M465 479h2v1.32813h-2zm0 0"/></clipPath><clipPath id="L"><path d="M144 465h4v4h-4zm0 0"/></clipPath><clipPath id="M"><path d="M144 452h4v4h-4zm0 0"/></clipPath><clipPath id="N"><path d="M144 438h4v5h-4zm0 0"/></clipPath><clipPath id="O"><path d="M144 425h4v4h-4zm0 0"/></clipPath><clipPath id="P"><path d="M144 412h4v4h-4zm0 0"/></clipPath><clipPath id="Q"><path d="M144 398h4v5h-4zm0 0"/></clipPath><clipPath id="R"><path d="M144 384h3v6h-3zm0 0"/></clipPath><clipPath id="S"><path d="M144 370h3v8h-3zm0 0"/></clipPath><clipPath id="T"><path d="M144 356h2v9h-2zm0 0"/></clipPath><clipPath id="U"><path d="M144 357h1v2h-1zm0 0"/></clipPath><clipPath id="V"><path d="M466 360h2v3h-2zm0 0"/></clipPath><clipPath id="W"><path d="M144 345h2v4h-2zm0 0"/></clipPath><clipPath id="X"><path d="M466 346h2v3h-2zm0 0"/></clipPath><clipPath id="Y"><path d="M144 332h4v4h-4zm0 0"/></clipPath><clipPath id="Z"><path d="M466 332h2v3h-2zm0 0"/></clipPath><clipPath id="aa"><path d="M465 332h3v3h-3zm0 0"/></clipPath><clipPath id="ab"><path d="M144 318h4v5h-4zm0 0"/></clipPath><clipPath id="ac"><path d="M466 318h2v2h-2zm0 0"/></clipPath><clipPath id="ad"><path d="M465 318h3v3h-3zm0 0"/></clipPath><g id="ae" clip-path="url(#clip1)"><path fill="#fff" fill-opacity="0" fill-rule="evenodd" d="M0 0h1000v1000H0zm0 0"/><path fill="#d3d3d3" fill-opacity="0" fill-rule="evenodd" d="M162.15234 355.86719l-.23437.29297.0586.23437.11718.17188.17578.23437.29297.34766.11328.0586.11719-.17188.0586-.23438.17577-.17578.46485-.17578h.69922l.23437.29297.28906.8164.0586.17579.17578.23046.35156.23438.69922.69922.17188.17578.23437.34765.23438.41016.28906.58203.41015.46485.23047.23437.23438.17578.11719.23047.17578.29297.17187 1.16406v.23438l.0586.28906.05859.11719.11719.11719.34765.41015.11719.17188.17578.17578.17578.23437.11719.17188.17188.35156.05859.23438.23437.40625.23438-.0586-.17578.17578-.0586.92969h-.58203l-.23437-.11328-.34766.11328-.11719.11719-.05859.29297-.0586.17578-.11718.17187-.46484.29297-.0586.23438-.0586.11328v.64453l.0586.17187v.41016l.0586.0586v.40624l.05859.40625.11719.17579.05859.05859.23047.64062-.0586.29297v.69922l-.05859.58203v.23438l-.0586.23047-.05468.35156v1.92187l.05469.1172h.42578l-.36719.11718-.02344.35156.89063 1.16797 1.74219.53906 1.33984.35938v.53906l.08984.8086.53516.71484 1.51953.26953.89063-.08594.08984 1.16406.53516.1797 1.16015-.1797 2.05469-.98437 1.16016-.36328 1.8789-.17578 1.69531-.1797-.17968.71876-1.51563.08594-1.25.08984-.80469.26953-1.07421.8086.26953.71875.53515.89843-.17968.625-.26563.8086.26563 1.07812.625.89844.80468.17969 1.25-.1797-.26562.72267.09766.5039.05468.29297v.17188l.0586.29296v.40625l.17578.1172.35156.11718h.40625l.29297-.17578.11328-.11719.0586-.11719.11718-.23047.0586-.17578.35156-.46484.23047-.17578.17578-.0586.17578.0586.0586.17578.11718.98828.05469.46875.0586.17188.11718.23437.17578.0586.8164.05859h.28907l.11719.23437.05859.40625.0586.35156v1.10547l.11718.29297.11719.34766.28906.69922.17578.35156.58203.7539.35157.17579.17187.0586.46875.23437.64063.46484.34765.23438.29297.17578.29297.05468.23047.0625.8164.34766.29297.17578.11328.17188.35157.35156.11719.17578.52343.64063v.28906l.0586.35156v.34766l.05859.35156.0586.28906.11718.0586.17188.05859h.17578l.58203.23437.17578.1172.17578.28905.17578.23438.11328.23437.29297.23047.11719.11719v.41016l.0586.05468.28906.23438.23437.11719.0586.11718.11718.17188.0586.11719.23047.23437.05859.17578.23437.0586.1172.05859-.1172.11328-.05859.11719v.11719l-.11719.29296-.11719.28907v.58203l.17579.11719.11718.05859.0586.11719.11719.11719.11328.05859.17578.34765.0586.35157.05858.40625v.17578l-.05859.17578-.11719.69922v.17187l.1172.17579.29296.29296h.40625l.17578.1172.11719.17187.11719.29296v.23438h-.52735l-.23047-.23438h-.23437l-.17578.0586-.0586.69922.0586.34765.11719.17579.17578.41015.11718.23047.28907.46875.17578.05469h.52344l.23437.0586.75781.64062.0586.29296v.23438l.05859.0586.23047.34765v.35156l-.11719.17188v.29297l.29297.28906.29297.17578.17187.0586.29297.17577.29297.1172.58203.40624.28906.23438.29297.17578.21875.16015.01563.01172.23047.17579.64062.52343.17578.23438.1172.17578.17577.17578.11328.17188v.64062l.1172.17578.46874.11719.58203.11719.23438.05859.23047.11328.29297.11719.11328.0586.58593.35156.28907.17187.17578.0625.17578.05469.17578.0586.69922.35155.28906.17579.23438.05468.28906.17578.23437.1172.64063.40624.29297.11719.17187.0586.23438.05859.41015.05859.23047.0586.23438.11718.0586.17188-.41017.17578.46875.0586.0586.29296.11328.23438.17578.05468.23438.0586.17578.05859.40625.11719.64062.23437.11719.17188.0586.23437v.17578l-.0586.1172-.0586.40624.23438.23438.11719.05859.34766.11719.64062.23047.17578.11718.28906.1172.17578.17577.23438.46485.58203 1.10546.17578.17579.34766.17578.17578.11719.35156.11718 1.04688.52344.23437.0586.46485.11327.29297.0586.46484.17578.75781.58203.23438.23438.34765.46484.17578.17578.28907.23438.8164.69921.29297.17579.28906.28906.29297.17578.29297.28906.69531.64063.17578.17578.29297.23437.28907.23438.46875.28906.64062.58203.34766.23438.23437.29297.34766.34765.35156.46485.9336.99218.34765.40625.11719.17579.23437.05859.11328.11719.64454.17578.23047.11328.23437.0586.29297.17577.23047.1172.9336.69921.40624.40625.23438.17578.40625.17578.23437.11719.8164.34766.34766.23437.23438.11719.29297.28906.23047.11719.7578.35156.35157.17188.23047.05859.29297.11719.23437.0586.8711.17577h.8164l.46875.23047.17188.0586.875.69921.46484.1172.29297.05858.17578.0586.23047.0586.46875.05859.34766.05859.35156.0586.40625.05859h.29297l.17187.0586v.23046l.17578.17578h.29297l.34766.0586.35156.05859.69922.11719h.64063l.46484-.23438.29297-.17578.17187-.11719.41016-.17187.28906-.17578.9336-.46485.46875-.29297.52343-.29296.46485-.17188.46484-.17578 1.05078-.46485.28906-.11718.41016-.11719.28906-.11719.52735-.17578 1.51562-.69922.58203-.34765.28907-.0586.29297-.0586.34765-.11718.875-.23047.35156-.11719h.11329l.23437-.05859.875-.23437.23438-.0586h.8125l.35156-.0586.8164-.11718.17188-.0586.35156-.05468.29297-.0586.23047-.05859.8164-.17578.17579-.0586h.34765l.23438-.05859.46484-.11718.75781-.17188.23438-.0586h.34765l.41016-.11718.28906-.0586 1.28516-.05859h.28906l.41016-.0586.23047-.05858h.17578l.875-.1172h.40625l.41015-.11718h.34766l.35156-.11328.8711-.0586h1.75l1.04687.28907.41016.11719.28906.11718.35156.11719.28907.11719 1.05078.17187.28906.0586h.29297l.29297.05859.17187.0586.41016.05859.17187.0586.1172.05858h.11718l.11719.0586.35156.0586h.11328l.41016.0664 1.92187.39453 1.92578.39453 1.51953.44922 1.69532.71875 2.14453.80469 1.60547-.71875 1.42968-.80469 1.16016-1.07813 1.25-.44921 3.03516-.71875 1.875-.35938 2.14453-1.34765 2.23437-1.25391 2.5-1.25781 1.69531-.44922 1.78516-.17969 1.16016-.26953.625.53906 1.33984-.26953.71485-.98828.98437-1.34375.44531-.17969.80469-.35937 1.875-.53907 1.78516-.44921 1.25-.26954 1.16015-.08984 1.69922-.08984 1.96094-.26954 1.25-.08984h.53906l.625-.08984h.89063l2.14453-.17969 2.41015-.17969 2.58985-.08984 1.69531.17969 1.60938.08984 1.42968.35938 1.16016.71875 1.875.98828 1.16015 1.52734.26563.71484.6289.08985.35548.89844.53515.53906.53516 1.52734 1.07422.35938h.53515l-.80469.53515.08985 1.70703.71484 2.69532.89063.80468.89453.98829.71484 1.2578 1.78516.53907 1.51953-.17969.35547 1.34375 1.60937-.80469.98047-.53906.26953.26953.31641-.21484.21875-.14453.80078.44922.44922-.35938h.35547l.53515-.26953.53907-.71875.53515-.26953.625-.98828 1.16016.44922.83984.3711 1.39454.61718 1.6953-.17969h1.60548l1.78515.08985.17969-1.70704.53516-1.34375.80468.26954.4922.84765.40233.40625-.08984.53906v.35938l.71485.44922.71093-.26953h1.42969l.35938.98828.4453 1.25781.71485 1.34375 1.25.6289 1.69531.62891.71485-.17969.17969-.53906.98046-.08984.44922.35937.08594 1.25782-.26563.6289-.53515.17969v.53906l.71484.98438.26563.53906.98437.98828.80078 1.07813-.26562.35937-.08985.89844-.625 2.33203-.35546 2.0664-.08985 1.79298-.17969.71875-.08984.53906v1.4375l-.98047 1.88281-.35937 1.70703-.53516.89844-.80469 1.16797-.26562.53906 2.05469 1.2539.08593.35938-.35546.53906-.08985-.17968v.80859l.08985 1.4375-.44532.71484-1.07422.09375-.26562.71485.53515.89844.8047.71875 1.16015.80859 1.33984.26953.44531.35938-.35546.44921-1.78907-.08984-1.25-.44922-.71484-.71875-.625-.08984-.17578 3.58984-.1875 1.3086h89.35937V311.70313h-55.26953v49.08203l.76172.125 3.28906.54296 2.02344 2.83594v2.7539l2.35156.33204 2.34766.33203h4.05078l-1.3789 4.16016-2.02344.70703-2.02344.70312-.54297.34375-2.59375 1.6172-.1875.11718-2.02344-2.07813-.73046-2.74218-2.67188-2.07813-1.375-3.5-.0664-.08203-1.95704-2.67188 2.75-1.41796v-49.08204H294.42187v91.41407l.1172.03125.1328.01172.07422.07421.10547.04688.08985.0586.08593.05859.08985.0586.29687.29687.0586.08984.03125.11719.02734.11719.01563.13671-.03125.1172-.0586.08983-.0586.08594-.04296.10547-.04688.10156-.02734.1211v.14453l.17578.26953.14844.14844.07422.08594.07422.07421.04296.10547.0625.08985.0586.08593.04297.10547.0586.08985.04687.10156.04296.10547.0586.08594.11719.17968.07421.07422.0625.08594.0586.08984.04297.10547.0586.08985.05858.08593.0625.08985.0586.08984.04297.10156.11719.17969.07421.07422.0586.08594.07422.07421.08984.0586.10547.04687h.14844l.1328-.01562.13282.01562.10156-.04687.07422-.07422.04688-.10156-.01563-.13281v-.14844l-.04687-.10547-.02735-.11719-.04687-.10156-.02735-.1211-.04296-.10156-.0625-.08984-.04297-.10156-.04297-.10547-.03125-.11719-.01563-.13281-.01171-.13672.08593-.0586.0586-.08593.12109-.03125.04297.10547.01562.1328v.1172l.0586.10156.0586.08984.08983.0586.14844.14843.0586.08985.04296.10547-.01171.10156.08593.0586.10547.04687.08594.0586.08984.05858.07422.07422-.11719.02735-.10546.04687-.08594.0586-.07422.07421-.0586.08985-.0625.08594-.02734.12109-.04687.10156-.04297.10547-.03125.11719-.01172.13281-.01563.13281v.14844l.02735.11719.04687.10547.04297.10156.0586.08984.07421.07422.08985.0586.07422.07421.08984.0586.0586.08984.04296.10547.04688.10156.11719.03125.1328.01563h.14845l.11718-.03125.10547.04297.04297.10547.04688.10156.02734.1211L299.5 410l.02734.11719.03125.1211.02735.11718.10547.04297.10156.04687.13281-.01562.14844.14844.0625.08593.07422.07422.07031.07422.08984.0625.10547.04297.10156.04297.1172.03125.13671.01562.11719-.03125.07422-.07422.02734-.11718-.01172-.13282-.03125-.12109-.02734-.11719.04297-.10547h.11719l.08984.0625.11719.02735h.14843l.13282.01562h.14843l.13282.01563.1328-.01563h.14845l.1328-.01562.13282-.01172.13672.01172.11719-.02735.13281-.01562.1914-.0586-.05859.17579-.01562.1328-.02735.1211-.01562.13281-.0586.08594-.1328.01563-.10548.04687-.10546.04297-.1172.03125-.11718.02735-.26563.03125h-.14843l-.13281.01562-.07422.07422.05859.08594.14844.14843.11719.1797.07421.0703.08985.0625.08984.0586.08594.0586.08984.05858.10156.04297.10547.0625.10547.04297.08594.0586.10547.04687.10156.04297.17969.11719.0586.08984-.04298.10156-.04687.10547.01562.13281.22266.22266.0586.08985.04296.10156.03125.1211.04297.10155.01563.13282.03125.11718.01171.13672.03125.11719.14844.14844.10156.04297.10547.04296.1172.03125.1328.01563.13672.01563h.11719l.11719-.03125.08984-.0586.04297-.10547.04688-.10156.04296-.10547.03125-.11719.01172-.1328v-.14845l-.01172-.1328-.01562-.13282-.03125-.11719-.04297-.10547-.04688-.10547-.04296-.10156-.04297-.10547-.01563-.13281.01563-.13281.02734-.11719.03125-.11719.02735-.1211.04687-.10155.08984-.0586.08594-.0625.07422-.07422.08984-.05859.22266-.22266.0586-.08593.07421-.07422.11719-.17969.0586-.08594v-.14844l-.07423-.07421-.10156-.04688-.10547-.04297-.10156-.04297-.0586-.08984-.04687-.10547-.02734-.11719.08984-.05859.11719-.03125.10156-.04297.17969-.11719.14844-.14843.01172-.13282-.01172-.10546-.08985-.0586-.1328.01563h-.14845l-.1328.01562-.13282-.01562-.1211-.03125-.08593-.0586-.07422-.07422-.0586-.08984-.0625-.08594-.11718-.17969-.0586-.08593.03125-.1211.08594-.05859.1211-.03125.05859-.08594v-.1211l-.03125-.11718-.0586-.08984-.05859-.08594-.04687-.10547-.02735-.11719-.01562-.1328.0586-.08985.07421-.07422.08984-.0586.1172-.17968.07421-.07422.0586-.08594.14843-.14844.1211-.03125.1328-.01562.13282.01562.07422.07422.04297.10547.01562.13281-.03125.1172-.11719.03124-.1328.01172-.14844.14844-.04297.10547-.04688.10156-.02734.1211-.03125.11718v.14844l.03125.11719.04297.10546.05859.08985.07422.07031.07422.07422.11719.03125.12109.02734.11719-.02734.1328-.01563h.1172l.08984.0586.07422.07422.04687.10546.0586.08594.10156.04688.13281.01562.10547.04297.08594.0586-.01172.10546-.07422.07422-.17969.11719-.05859.08984-.08984.0586-.07032.07422-.07421.07421-.0625.08985-.02735.11719-.01562.1328.01562.13282-.01562.13281v.14844l.01562.13281.02735.1172.03125.12108.07421.07422.08985.0586.08594.0586.08984.05858.11719.03125v.08594l-.10157.04688-.08984.0586-.26563.03124-.11718.02735h-.14844l-.10547.04296-.10156.04688-.0586.08984-.0625.23438-.01171.13281-.03125.1211-.01563.1328v.29298l-.01172.1328.01172.13673.01563.1328.1328.01563.13282.01172.1211.03125.08593.0586.07422.07421.04688.10547.04296.10157.01563.1328v.44532l-.01563.13281v.44532l.03125.26562.02735.11719.01562.13281.03125.11719.08594.21094.03125.26562v.14844l-.03125.11719-.02734.11718-.03125.1211-.02735.11719-.03125.11718-.03125.1211-.01171.1328-.01563.13282.08984.0586.1172-.03125.10155.01562.04688.10547-.03125.26562v.44141l-.04297.10547-.04688.10547-.04296.10156-.04297.10547-.0586.08594-.03125.12109-.04296.11719-.03125.11719-.01563.1328.01563.13282.05859.08984.10547.04688.08594.0586.05859.08593-.01172.13672-.03125.11719-.04297.10156v.44531l-.01562.13281v.14844l-.03125.11719-.04297.10547-.02735.11719-.04687.10546-.04297.10157-.03125.12109-.02734.11719-.03125.13281-.03125.11719-.02735.11719-.04297.10546-.03125.1172-.03125.12108-.01171.13282-.01563.13281v.29688l.02734.11718v.14844l.04688.39844.02734.11719.0586.08984.12109.03125h.14844l.13281-.01563.0586.08985v.11719l-.0586.08984-.08984.0586-.10157.04296-.10546.04688-.08985.05859-.08594.0586-.13671.01562-.1172-.03125-.1328-.01563-.10157.04688-.0625.08594-.01172.13671-.01562.13282-.03125.11719-.02735.11718-.01562.13281-.03125.1211v.29687l.01563.13282.03125.11718v.14844l.01171.13281v.14844l-.02734.11719-.04688.10156-.02734.1211-.03125.11718-.0586.08985-.07421.07421-.10156.04297-.10547.04688-.11719.02734-.1211.03125-.10156-.04687.0586-.08594.10547-.04688.02734-.11718.03125-.11719.02734-.1211.03125-.11718v-.14844l.01563-.13281-.03125-.11719-.04297-.10547-.10547.01563-.07422.07422-.10156.04296-.08984.0625-.07422.07422-.04297.10157-.01563.1328-.03125.1172L304.25 426l-.03125.11719-.02734.11719-.03125.12109-.02735.11719-.03125.11718-.04297.10547-.08984.0586h-.08984l-.1172-.03125-.03124-.08594.01562-.13672-.03125-.11719v-.14844l-.01171-.1328v-.14844l-.0625-.23438-.02735-.1211-.04297-.10156-.04687-.10546-.0586-.08594-.05859-.08985-.04297-.10546-.0625-.08594-.14844-.14844-.0703-.07422-.10548-.04687-.10547-.04297-.10156-.04297-.29687-.29688-.08985-.07421-.08594-.0586-.10546-.04297-.08985-.0625-.08594-.0586-.10546-.04296-.08985-.0586-.08594-.0625-.07421-.0703-.10547-.04688-.08594-.0586-.10547-.04296-.08984-.0625-.10156-.04297-.10547-.04297-.08594-.0586-.10547-.04687-.10547-.04297-.10156-.04687-.08985-.0586-.10156-.04297-.10547-.04296-.08984-.0625-.11719-.02735-.13281-.01562-.13281.01562H299.75l-.13281.01563-.11719-.03125-.08984-.0586-.07422-.07422-.08985-.05859-.10156-.04688h-.14844l-.12109-.02734-.10156-.04297-.07422-.07422-.11719-.17968-.08984-.0586-.10156-.04297-.08985-.0625-.10547-.04296-.08984-.0586-.08594-.0586-.10547-.04687-.0586-.08594-.05858-.08984-.04297-.10547-.04688-.10156-.07422-.07422-.08594-.0586-.07421-.07421-.08985-.0586-.22265-.22265-.04297-.10547-.03125-.26563.10547-.04296h.14453l.10547.04296.07421.07422.08985.0586.08594.0586.10546.04687.08985.05859.14844.14844.0703.07422.14845.14843.0625.08594.07421.07422.08594.0586.07422.07421.08985.0625.08984.0586.08594.05859.26953.17578.10156.04688.10547.04296.10156.04297.04688-.07421.05859-.08594.07422-.07422.07031-.07422.10547.04297.07422.07422.0586.08984.04296.10156.04688.10547.04296.10547.1211.02735.11719-.02735.07421-.08984.04297-.10547.0586-.08985.07422-.07421.10546-.04297.1172-.02735.1328.01172.08985.0586.14844.14843.05859.08985.04297.10547.04687.10156.04297.10547.04297.10156.10547.04688.10547.04296.13281.01563.08594-.0586.0586-.08984.07421-.07422.10547-.04297.11719.02735.10547.04687.10156.04297.10547.04297.10156.04688.17969.11718v.11719l-.01563.13281.01563.13281.01562.13672.0586.08594.10156.04688.1211.02734.11718.03125h.14844l.11719-.03125.05859-.08984.17969-.1172.05859-.08983.07422-.07422.0586-.08594.11718-.17969.17969-.11719.11719.03125.08984.0586.04297.07422-.01563.1328v.1172l.08985.05859h.14843l.13282-.01563.1328-.01171.26563-.03125.10547-.04297.11719-.03125.1211-.02735.07421-.07421.07031-.07422.0625-.08985-.01562-.10547-.04688-.10156-.10156-.04297-.10547-.01562-.11718.02734-.26563.03125h-.14844l-.07421-.07422-.08985-.0586-.11719-.03124-.11718-.02735-.13282-.01562h-.14843l-.13282.01563h-.29687l-.10547-.04688-.14844-.14844-.04297-.10156-.05859-.08984.22266-.22266.08593-.0586.10547-.04296.11719-.03125.13281-.01563.13281.01563.13672.01562.10157.04297.1328-.01172.08985-.0625.10156-.04297.0625-.08984-.04687-.10156-.08984-.0586-.1172-.03125-.10155-.04296-.0586-.08985-.0625-.08984v-.11719l.01563-.13281.10547-.04688.07421-.07031v-.1211l-.08984-.05859-.03125-.11719.08985-.05859.07421-.07422.04297-.10547.0586-.08984.04687-.10156.01563-.13281v-.14844l-.04688-.10547-.04297-.10156-.08984-.0586-.13281-.01562-.10157-.04297-.13671-.01563-.1172-.03125h-.4453l-.13282-.01562-.13281-.01172-.13281-.01563-.11719-.03125h-.14844l-.13281-.01562-.13281-.01172-.26563-.03125-.1211-.04297-.08593-.0586-.07422-.07421v-.14844l.01172-.13281.10547-.04688.10156-.04296.13281-.01563h.15235l.13281-.01562h.29297l.1211.03125.10156.04296.08984.0586.23438.0625.12109-.04688.08984-.05859.10156-.04297.13282-.01562.10547.04296.10156.04688.13281.01172.1211-.02735h.14453l.12109-.03125.11719-.02734.10547-.04687.07421-.07422.08594-.0586.14844-.14843.0586-.08594.04687-.10547.02734-.11719.01563-.10547-.10156-.04296-.08985-.0586-.11719-.03125-.10546-.04297-.08985-.0625-.07422-.08594-.07422-.07421-.10156-.04297-.10547-.04688-.10156-.04297-.0586-.08984-.04687-.10156-.08594-.21094-.0625-.08594-.05859-.08984-.07422-.07422-.08594-.0586h-.26953l-.11719.03126-.08984.05859-.10156.04297-.13281.01562-.10547-.01562-.02735-.11719-.0625-.08984-.11718-.03125-.10157-.04297-.14843-.14844-.03125-.11719-.01563-.10546.07422-.07422.17969-.1172.11719-.02733.11718-.03125.13672.01562.10156.04297.10547.04297.10156.04687.10547.04297.1172.03125.1328.01563.1172.02734.1328.01563.10547-.01563.08985-.0586-.07422-.07421-.10547-.04297-.07422-.07422-.07422-.08984-.14844-.14844-.08593-.0586-.08985-.05859-.07422-.07422-.08984-.0586-.10156-.04687-.1211-.02734-.10156-.04688-.10547-.04296-.11719-.03125-.10156-.04297-.1211-.03125h-.14843l-.11719.03125-.10546.04297-.08594.0625-.17969.11718-.08594.0586-.08984.0586-.10547.04687-.08594.05859-.10547.04297-.10156.04297-.10547.04687-.07422.07422-.05859.08985-.0586.08593-.04687.10547-.0586.08594-.07421.07422-.13281-.01172-.1172-.03125h-.11718l-.07422.07422-.08984.0586-.07422.07421-.08984.0586-.08594.05859-.10547.04687-.10156.04297-.13672.01563-.10156-.04297-.14844-.14844-.10547-.04688h-.08594l-.10547.04688-.10156.04297-.1211.03125-.11718-.03125-.07422-.07422v-.11719l.03125-.1211.07422-.0703.0586-.08985.07421-.07422.11719-.03125.10547-.04296h.29297l.13281-.01563.13672-.01563.10156-.04296.08985-.0586.10156-.04687.08984-.0586.13281-.01171.08985.05859.13281.01172.08984-.0586.08594-.05859.10547-.04297.08984-.0586.08594-.0625.08985-.05859.14843-.14843.0586-.08594.05859-.08985.10547-.04296.13281-.01563.11719.02735.1211.03125.05859-.0586.05859-.08984.03125-.26563.02734-.11719.10547.01172.13281.01563.10157-.04297.08984-.0586.0586-.08984.07421-.07422.0586-.08984.04687-.10156.01172-.13281-.01172-.13282-.04687-.10547-.14844-.14843-.0586-.08985-.05859-.08594-.04297-.10546v-.44532l.01563-.1328v-.14845l.01172-.1328-.0586-.0586-.08984.0586-.10156-.04298-.17969-.11719-.08594-.05859-.0625-.08984-.0586-.08985-.07421-.07421-.08594-.0586-.1211.03125-.10155.01172-.10547.04688-.08594.05859-.10547.04297-.14844.14844-.08984.05859-.08594.0586-.08984.0625-.10547.04296-.13281.01563v-.1211l.10547-.04297.11718-.03125.07422-.0703.04297-.10548v-.14844l-.02734-.11718-.14844-.14844-.13281-.01563h-.14844l-.11719.03125-.10547.04297-.10156.04297-.08984.0625-.11719.02735-.07422-.07422.01172-.13281-.04297-.10157-.04297-.10547-.08984-.05859-.11719.02734-.1211.03125-.11718.03125-.10156.04297-.1211.03125-.10156.04297-.10547.04297-.08984.0586-.10156.01562v-.11719l.01562-.13281-.0586-.08985-.07421.04297-.14844.14844-.0586.08985-.07421.07421-.04688.10547-.04296.10156-.07422.07422-.0586.08985-.07422.07422-.05859.08593-.07422.07422-.08984.0625-.07422.07031-.07422.07422-.10156.01563-.13281.01562-.10547-.04296v-.1211l.14843-.14844.04297-.10156.0586-.08984.04687-.10156.04297-.10547.0586-.08985.03124-.11719.04297-.10156.03125-.1211.02735-.11718.04687-.10547.04297-.10156.04297-.10547.07422-.07031.08984-.0625.08985-.0586.10156-.04296h.29687l.26563-.03125.10547-.04297-.07422-.07422-.11719-.03125-.10547-.04297-.08984-.0586-.10156-.04687-.08985-.0586-.10156-.04296-.10547-.04297-.08984-.0625-.08594-.0586-.10547-.04296-.10156-.04297-.1211-.03125-.11718-.03125-.10157-.04297L297.5 410.25l-.10156-.04297-.08985-.0586-.04296-.10546-.01563-.13281.10156-.04297.13281-.01563.13672.01563.13282-.01563.10156-.04297.0586-.08984.01562-.10547-.08985-.0586-.07421-.07421-.10157-.04297-.08984-.0586-.14844-.14843-.04297-.10547-.01562-.13281v-.29297l-.0586-.08985-.08984-.05859-.07422-.07422-.04297-.10547-.03125-.11718-.0586-.08985-.07421-.07422-.11719-.02734-.07422-.07422-.08984-.0586-.08984-.0625-.08594-.05859-.07422-.07421-.0586-.08594-.04687-.10547-.08594-.0586-.14843-.14843-.19532-.0586-.1328.01563-.10157.04297-.07422.07422-.04688.10156-.04296.10547-.0586.08984-.0586.08594-.29687.29687-.08984.0586h-.08594l-.0625-.08594-.04297-.10547.03125-.11719.0586-.08984.02734-.11719-.01172-.13281-.08984-.0625-.10547.04688-.11719.02734-.11719.03125-.26953.17578-.10156.04688-.11719.02734-.10546.04687-.08985.0586-.10156.04297-.0586-.08594-.04687-.10547.01563-.13281.04687-.10547.07031-.07422.07422-.07031.0586-.08985v-.14843l-.04297-.10547h-.23829l-.10156.04687-.03125.11719-.02734.11719-.03125.1211-.07422.04296-.13281.01563-.07422-.04688-.04297-.10156-.04297-.10547-.04687-.10156-.04297-.10547-.1211.03125-.10156.04297-.13281.01562-.11719.03125-.10547.04297-.08984.0586-.10156.04687-.1211.02734-.13281.01563-.10156-.04297-.0586-.08985-.04687-.10546-.04297-.10157-.04297-.10546v-.1172l.0586-.08984.08593-.05859.17969-.11719.10156-.04687.10547-.04297.10547-.0586.10156-.04296.08985-.0625.10156-.04297.10547-.0586.10156-.04687.08984-.0586.10547-.04296.10156-.04297.08985-.0625.10156-.04297.13672-.01563.11719.03125.10156.04297.1211.03125.10156.04297.10546.04688.10157.04296.10547.04297.10156.04688.10547.04297.10156.04297.10547.04687.08594.0586.10546.04296.1172.03125.10546.04297.10156.04688.08985.0586.10547.04296.10156.04297.10547.04687.11719.02735.10156.04687.1211.02735h.14843l.08594-.0586.01562-.10156.0586-.08984-.02735-.1172-.07422-.07421-.11719-.17969-.07421-.07422-.08985-.07421-.17969-.1172-.08593-.05859-.10547-.04296-.10156-.04688-.26954-.17578-.05859-.08985-.07422-.07421-.0586-.08985-.04296-.10156-.03125-.11719-.01563-.13672v-.5625l-.01171-.1328-.01563-.13282-.03125-.11719-.01562-.13281-.01172-.13281-.03125-.1211-.22266-.22265-.0586-.08594-.01562-.10547.03125-.11719.13281-.01562v-91.41406H172.9922v1.45312l-.0586.23438-.35156 1.05078-.17187.52343-.1172.34766-.17577.41016-.11719.17187-.23438.29297-.23046.0586h-.35157l-.11718.05859-.23047.40625v.29297l.11719.17578.23046.23047.1172.23437.64062.75781.29297.46485.17578.23437.23047.35156.23437.34766.64063.8164.17578.46485.17187.41016.11719.69531.17578.46875.11719 1.39844.0586.46484v.875l.11718 1.04688v4.78125l-.0586.46484-.35156 1.28125-.17578.52344-.11328.41015-.35156.9297L172.93359 336l-.23437.58203-.11719.17578-.17187.34766-.17578.40625-.35157.8164-.0586.29297-.11327.29297-.11719.28906-.0586.17579-.11718.875-.0586.40625-.05859.11718-.0586.17579-.05859.17187-.23047.52734-.11718.17188v.23437l-.11719.23438-.0586.17187-.17577.58594v.28906l-.0586.17579v.29296l-.0586.11329-.05859.52734v.17187l-.05468.23438v2.6211l-.17578.8164-.1172.17578-.17577.23438-.1172.17187-.11327.23438-.58594.93359-.23047.28906-.29297.46485-.17578.23437-.28906.35156-.35156.69922-.11328.23047-.17579.41016-.17578.23046-.40625.52735-.8164.69922-.29297.17187-.28906.23438-.17579.11719-.17578.17578-.52344.40625-.52734.17578-.17187.17578-.23438.05469-.64062.17578h-.75782m12.21094 31.02344l-1.07422.44921.35938.89454 1.25-.71485.44531-.53906-.98047-.08985"/><path fill="#d3d3d3" fill-opacity="0" fill-rule="evenodd" d="M201.50781 416.59766h-.89453l.44922.6289.98047.35938.80469-.08985.4453-.98828-.17577.08985-.71485-.35547-.89453.35547m154.6211 59.0703l-.0586-.52343v-.29297l.11328-.29297.0586-.23046.46875-.46875h.11328l.11719-.11329.11718-.05859h.17579l.23437-.0586h.34766l.23437.0586.11719.0586.23047.17187.0586.17578.11718.58203v.29297l-.11719.17578-.17187.28906-.17579.17579-.52734.52343-.23047.23438-.11719.0586h-.17578l-.11718-.0586-.40625-.29297-.17579-.11719-.11718-.0586-.0586-.11327-.05468-.1172m6.64062-10.95702l-.0586-.17188v-1.10937l.0586-.17188.17578-.0586.17188-.05858h.17578l.23437-.0586.1172.0586.05858.69921-.05859.17188-.11719.17578-.11718.0586-.23438.52343-.11328.0586h-.23438l-.05859-.1172m9.61328-14.39062l-.11719-.17578v-.69922l.29297-.875.1172-.17187.17577-.35156.11328-.23047.1172-.29297.35155-.75781.1172-.23047.17187-.23438h.17578l.11719-.0586h.64062l.11719.0586.23437.23438.17188.11328.35156.29297.11719.11718.11328.17579v.11328l.11719.05859.11718.11719v.69922l-.05859.17578v.23047l-.0586.17578-.34765 1.05078-.11719.23047-.11719.23437-.11718.0586-.23047.23437-.64063.28906h-.875l-.41015-.11718-.64063-.46485"/><path fill="none" stroke="#bebebe" stroke-linecap="round" stroke-linejoin="round" stroke-miterlimit="10" stroke-width=".5" d="M467.95703 311.69531H144.02734v168.625h323.9297v-168.625"/><g clip-path="url(#a)"><path fill="#fff" fill-opacity="0" fill-rule="evenodd" d="M144 475.89063v4.4375h.0039H144V311.67188h.0039H144v164.21875"/></g><g clip-path="url(#b)"><path fill="#fff" fill-opacity="0" fill-rule="evenodd" d="M144.0039 480.32813V311.67188h31.0625v120.60546l-4.4375 3.47266-.16406.19531-4.27343 2.1914-2.17188 2.2461-2.26562 2.94531-1.47266 1.4922-1.36328 4.4414 2.07812 4.4375.75782.98047 4.4375.69922 4.4375-1.3125.35156-.3672 4.08594-3.22265 1.19922-1.21484 3.24218-3.60938.78125-.83203 3.65625-1.96875 3.04688-2.46875.16015-4.4375-3.20703-2.5586-4.4375 1.625-4.4414-2.73437V311.67188h26.6328v91.01953l-2.14843 2.18359 2.14844 2.8789 4.4375-1.30468 1.57422-1.57422-1.57422-1.98828-4.4375-.19531v-91.01954h13.3164v97.92188l-4.4414.84766-3.39063 3.3125 2.09766 4.4375 1.29297 1.14062 3.08594-1.14062 1.35547-.07032v16.97657l-4.44141.33203-.91406.51562-3.52344 1.66016-4.4375.88672-4.4375 1.71484-.16797.17578.16797.41016 1.55078 4.02734 2.88672 2.83203 4.4375.22266 1.1211 1.38672 3.3164 3.0664 1.88672 1.3711-1.88672 2.48437-2.25781 1.95313-2.1797 3.97265-.15233.46485.15234.77734 4.4375 1.78906 4.4414-1.92187.88282-.64453 1.92578-4.4375 1.6289-2.29297 4.4297-2.14453-1.77735-4.4375 1.78516-3.23828.95312-1.20313.60938-4.4375-1.5625-1.15234-4.4375-2.35547-1.48438-.92969-2.95313-.84765v-16.97657l4.07032-4.36718-4.07031-4.16016v-97.92188h22.1914v90.17188l-3.03125 3.03125.28125 4.4414 2.75 3.76173 4.4375-2.16797 3.94922 2.84375-3.94922.91796-4.4375-.39843-4.4414 3.25781-1.25782.66016-3.17969.46093-4.1875 3.97657.37891 4.4414-.6289 1.5-2.38282 2.9375L223.89062 435l2.38672-3.49219 2.05078-.96484 4.4375-.05469 2.63282 1.01953 1.8086 1.71485 4.4375 1.92578 4.4375-1.33203 2.39062-2.3086 2.04687-3.23828 4.4375.17969 4.4414.3125 4.4375 2.66015.0625.08594 1.44923 4.4375 2.92578 2.78516 4.4375 1.19922 4.4414-.27735 4.4375-1.28906 2.58985-2.41797 1.84765-.34375 4.05079-4.09375.38671-4.40625.03516-.03125 1.32813-4.4414-1.36329-1.33594-4.4375-1.75-4.4375-.73438-4.4375-.17187-4.4414-.0039-4.4375.10546-4.02735 3.89063-.41015.55078-4.4375 2.17969-4.4414-1.13672-.98048-1.59375.98047-3.51172 4.4414 1.8789 2.875-2.80468 1.23048-4.4375.33203-4.17579.13281-.26171-.13281-.22657-2.41406-4.21484-2.02344-1.50781-4.4414.83984-.67188.66797-3.76563 3.22266-1.21094 1.21875-3.22656 3.92578-2.79687-3.92578-1.5-4.44141-.14063-.14063-4.4375-2.89062v-90.17188h13.3125v39.66797l-.1836.27735.1836.36719.25781-.3672-.2578-.27734v-39.66796h62.13671v139.53515l-4.4375.11328-3.00781 2.3789-1.42969 1.47267-3.03516 2.96484 3.03516 2.80078 4.4375 1.16406 4.4375-.40234 4.4414-1.66406 3.09376-1.89844-.21875-4.4375-2.875-1.9414-4.44141-.55079V311.67188h22.1914v136.08984l-2.9414 1.5-1.4961.48047-4.4375 2.3125-1.01171 1.64453-.8711 4.4375 1.88282.82422 4.4375 1.76562 3.58593-2.58984.85157-1.09766 4.4414-2.72656.79688-.61328.17187-4.4375-.96875-.32031-4.4414-1.1797V311.67189H463.5625V452.625l-.8125 1.07422-3.625 2.75781-4.4414.60156-1.07813 1.07813-1.83985 4.4375 2.91797 2.71875 4.44141-1.96875.75-.75.9336-4.4375 2.7539-3.6211.83984-.8164-.83984-1.07422V311.67187h4.4336v168.65625H144.0039"/></g><path fill="#50fcfc" fill-rule="evenodd" d="M160.9961 453.69922l-2.07813-4.4375 1.36328-4.4414 1.47266-1.4922 2.26562-2.9453 2.17188-2.2461 4.27343-2.1914.16407-.19532v2.65234l-2.89063 1.98047-1.54687 1-3.00391 3.4375-1.4336 4.26563-.07812.17578.07813.13672 4.4375 2.2539 4.4375-1.60156.89062-.78906 3.54688-2.44922 1.91406-1.99219 2.52734-4.39844.08985-.03906-.08985-.04297-4.4414-1.83593-4.4375-.10157V435.75l4.4375-3.47266 4.4414 2.73438 4.4375-1.625 3.20703 2.5586-.16015 4.4375-3.04688 2.46874-3.65625 1.96875-.78125.83203-3.24219 3.60938-1.19921 1.21484-4.08594 3.22266-.35156.36719-4.4375 1.3125-4.4375-.69922-.75782-.98047"/><path fill="#00e8fc" fill-rule="evenodd" d="M161.7539 449.39844l-.07812-.13672.07813-.17578 1.43359-4.26563 3.0039-3.4375 1.54688-1 2.89063-1.98047v5.50782l-2.28907.91015 2.28907.60156.83203-.60156-.83203-.91015v-5.50782l4.4375.10157 4.4414 1.83593.08985.04297-.08985.03906-2.52734 4.39844-1.91406 1.99219-3.54688 2.44922-.89062.78906-4.4375 1.60156-4.4375-2.2539"/><path fill="#00d4fc" fill-rule="evenodd" d="M170.6289 445.42188l-2.28906-.60157 2.28907-.91015.83203.91015-.83203.60156"/><path fill="#50fcfc" fill-rule="evenodd" d="M197.26172 440.79297l-.16797-.41016.16797-.17578 4.4375-1.71484 4.4375-.88672 3.52344-1.66016.91406-.51562v8.45312l-.63281.9375.6328.74219 2.25782 3.69922 2.1836 1.8789 2.16406-1.8789-2.16406-3.1289-2.97266-1.3125-1.46875-.9375v-8.45313l4.4414-.33203 2.95313.84765 1.48438.92969 4.4375 2.35547 1.5625 1.15234-.60938 4.4375-.95313 1.20313-1.78515 3.23828 1.77734 4.4375-4.42969 2.14453-1.6289 2.29297-1.92578 4.4375-.88281.64453-4.44141 1.92188-4.4375-1.78907-.15234-.77734.15234-.46485 2.17969-3.97265 2.2578-1.95313 1.88673-2.48437-1.88672-1.3711-3.3164-3.0664-1.1211-1.38672-4.4375-.22266-2.88672-2.83203-1.55078-4.02734m4.4375-33.03906l-2.14844-2.87891 2.14844-2.1836 4.4375.19532 1.57422 1.98828-1.57422 1.57422-4.4375 1.30469m7.58203 10.4375l-2.09766-4.4375 3.39063-3.3125 4.4414-.84766v.66016l-4.4414 1.8789-1.66016 1.6211 1.66016 2.46093 4.4414 1.21485 3.4297-3.67578-3.4297-3.5v-.66016l4.07032 4.16016-4.07031 4.36718-1.35547.07032-3.08594 1.14062-1.29297-1.14062"/><path fill="#00e8fc" fill-rule="evenodd" d="M210.57422 416.21484l-1.66016-2.46093 1.66016-1.6211 4.4414-1.8789v1.09375l-3.72265 2.40625 3.72266 2.52734 2.35546-2.52734-2.35547-2.40625v-1.09375l3.4297 3.5-3.4297 3.67578-4.4414-1.21485m0 29.34766l-.63281-.74219.6328-.9375 1.46876.9375 2.97266 1.3125 2.16406 3.1289-2.16406 1.87892-2.1836-1.87891-2.25781-3.69922"/><path fill="#00d4fc" fill-rule="evenodd" d="M215.01563 416.28125l-3.72266-2.52734 3.72266-2.40625v1.09765l-2.02735 1.3086 2.02734 1.375 1.28125-1.375-1.28125-1.3086v-1.09765l2.35547 2.40625-2.35547 2.52734"/><path fill="#00c4fc" fill-rule="evenodd" d="M215.01563 415.1289l-2.02735-1.375 2.02734-1.30859v1.09375l-.33203.21485.33203.22656.20704-.22656-.20703-.21485v-1.09375l1.28125 1.3086-1.28125 1.375"/><path fill="#00b8fc" fill-rule="evenodd" d="M215.01563 413.98047l-.33204-.22656.33203-.21485.20704.21485-.20703.22656"/><path fill="#50fcfc" fill-rule="evenodd" d="M223.89063 435l-2.38282-3.49219 2.38281-2.9375.62891-1.5-.3789-4.4414 4.1875-3.97657 3.17968-.46093 1.25781-.66016 4.44141-3.25781 4.4375.39844 3.94922-.91797-3.94922-2.84375-4.4375 2.16796-2.75-3.76171-.28125-4.44141 3.03125-3.03125v2.11328l-.91797.91797.70313 4.4414.21484.29298.52344-.29297.83984-4.44141-1.36328-.91797v-2.11328l4.4375 2.89063.14063.14062 1.5 4.4414 2.79687 3.92579v2.05078l-4.4375.76562-4.4375.89454-1.52734 1.23828-2.91406 1.8203-4.4375.21485-2.52735 2.40235.51953 4.4414 2.00781 1.83203 4.4375-.15625 4.44141 2.10547 1.0039.65625 3.4336 2.4414 3.91016-2.4414.52734-.28906 3.71875-4.14844.30078-4.4414-1.60156-4.4375-2.41797-2.89844v-2.05078l3.22656-3.92578 1.21094-1.21875v7.78515l-.61719 2.3086.6172 1.90234 4.03515-1.90234-4.03516-2.3086v-7.78515l3.76563-3.22266.67187-.66797 4.4414-.83984v2.42969l-4.4414 1.35937-2.32812 2.16016-1.19532 4.4375 3.52344 3.125 3.91406 1.3125.52735.3203.32812-.3203 2.7539-4.4375.13673-4.4375-3.21875-3.51954v-2.42968l2.02344 1.50781 2.41406 4.21484.13281.22657-.13281.26171-.33203 4.17579-1.23047 4.4375-2.875 2.80468-4.4414-1.8789-.98048 3.51172.98047 1.59375 4.4414 1.13671 4.4375-2.17968.41016-.55078 4.02735-3.89063v.82422l-3.17188 3.0664-1.26562 1.69141-3.5664 2.75 3.5664 3.07422.98437 1.36328 3.13281 4.4375.32032.30469 4.4375 2.73047 4.4414-.42969 4.08594-2.60547.35156-.10937 4.4375-.83594 3.45704-3.49219.80468-4.4375-2.46094-4.4414-1.80078-1.00782-4.4375-1.71875-4.4375.23829-4.4414-.31641-4.4375-.26172v-.82422l4.4375-.10547 4.4414.0039 4.4375.17188 4.4375.73438 4.4375 1.75 1.36329 1.33594-1.32813 4.4414-.03516.03125-.38671 4.40625-4.05079 4.09375-1.84765.34375-2.58985 2.41797-4.4375 1.28906-4.4414.27735-4.4375-1.19922-2.92578-2.78516-1.44922-4.4375-.0625-.08594-4.4375-2.66015-4.4414-.3125-4.4375-.17969-2.04688 3.23828-2.39063 2.3086-4.4375 1.33203-4.4375-1.92578-1.8086-1.71485-2.6328-1.01953-4.4375.05469-2.05079.96484L223.89062 435"/><path fill="#00e8fc" fill-rule="evenodd" d="M226.32031 427.07031l-.51953-4.4414 2.52734-2.40235 4.4375-.21484 2.91407-1.82031 1.52734-1.23829 4.4375-.89453 4.4375-.76562v2.79297l-1.45703.10547-2.98047.22265-4.4375.89063-4 3.32422.8125 4.4414 3.1875 1.96094 3.8086 2.47656.6289.44531.71484-.4453 3.72266-2.03126 2.16016-2.40625.15625-4.4414-2.22656-4.4375-.08985-.10547v-2.79297L248.5 418.1914l1.60156 4.4375-.30078 4.4414-3.71875 4.14844-.52734.28906-3.91016 2.4414-3.4336-2.4414-1.0039-.65625-4.4414-2.10547-4.4375.15625-2.00782-1.83203"/><path fill="#00d4fc" fill-rule="evenodd" d="M234.01953 427.07031l-.8125-4.4414 4-3.32422v1.54687l-2.14453 1.77735 1.91406 4.4414.23047.14063 4.4375 3.59765 4.4375-3.0703.59766-.66798.01953-4.4414-.61719-1.21094-4.4375-.08985-4.4375-.47656v-1.54687l4.4375-.89063 2.98047-.22265 1.45703-.10547.08984.10547 2.22657 4.4375-.15625 4.4414-2.16016 2.40625-3.72266 2.03125-.71484.44531-.6289-.4453-3.8086-2.47657-3.1875-1.96094"/><path fill="#00c4fc" fill-rule="evenodd" d="M236.97656 427.07031l-1.91406-4.4414 2.14453-1.77735v1.54297l-.28516.23438.28516.63671 1.0039 3.8047 3.4336 2.83984 3.71094-2.83985-3.71094-3.77734-3.47266-.66406-.96484-.23438v-1.54297l4.4375.47656 4.4375.08985.61719 1.21094-.01953 4.4414-.59766.66797-4.4375 3.07031-4.4375-3.59765-.23047-.14063"/><path fill="#00e8fc" fill-rule="evenodd" d="M236.99219 409.3164l-.70313-4.4414.91797-.91797 1.36328.91797-.83984 4.4414-.52344.29298-.21484-.29297"/><path fill="#00b8fc" fill-rule="evenodd" d="M237.20703 423.26563l-.28516-.63672.28516-.23438.96484.23438 3.47266.66406v1.19531l-2.34375 2.58203 2.34375 1.9375 2.53516-1.9375-2.53516-2.58203v-1.19531l3.71094 3.77734-3.71094 2.83985-3.4336-2.83985-1.0039-3.80469"/><path fill="#00a8fc" fill-rule="evenodd" d="M241.64453 429.00781l-2.34375-1.9375 2.34375-2.58203v1.19922l-1.25781 1.38281 1.25781 1.03516L243 427.0703l-1.35547-1.38281v-1.19922l2.53516 2.58203-2.53516 1.9375"/><path fill="#009800" fill-rule="evenodd" d="M241.64453 428.10547l-1.25781-1.03516 1.25781-1.38281v1.19922l-.16797.1836.16797.13671.17969-.13672-.17969-.1836v-1.19921L243 427.07031l-1.35547 1.03516"/><path fill="#00ac00" fill-rule="evenodd" d="M241.64453 427.20703l-.16797-.13672.16797-.1836.17969.1836-.17969.13672"/><path fill="#fff" fill-opacity="0" fill-rule="evenodd" d="M250.51953 415.88281l-.61719 2.3086.6172 1.90234 4.03515-1.90234-4.03516-2.3086"/><path fill="#50fcfc" fill-rule="evenodd" d="M250.51953 351.98438l-.1836-.3672.1836-.27734.25781.27735-.2578.36719"/><path fill="#00e8fc" fill-rule="evenodd" d="M254.95703 416.8789l-3.52344-3.125 1.19532-4.4375 2.32812-2.16015 4.4414-1.35938v2.26172l-2.35156 1.25782-2.08984 2.54687-.94531 1.89063.94531.83984 4.4414 1.22656 1.3711-2.0664-.21875-4.4375-1.15234-1.25782v-2.26171l3.21875 3.51953-.13672 4.4375-2.7539 4.4375-.32813.3203-.52735-.3203-3.91406-1.3125"/><path fill="#00d4fc" fill-rule="evenodd" d="M254.95703 414.59375l-.94531-.83984.94531-1.89063 2.08984-2.54687 2.35157-1.25782 1.15234 1.25782.21875 4.4375-1.3711 2.0664-4.4414-1.22656"/><path fill="#00e8fc" fill-rule="evenodd" d="M263.83594 430.14453l-3.5664-3.07422 3.5664-2.75 1.26562-1.6914 3.17188-3.06641v1.375l-1.75 1.6914-2.6875 3.58985-1.10156.85156 1.10156.94531 2.52344 3.4922 1.91406 2.54296 2.22656 1.89453 2.21094 1.45703 4.4414-.68359 1.21094-.77344 3.22656-.99219 4.4375-.95312 2.46485-2.49219 1.5-4.4375-3.96485-4.21875-2.61328-.22265-1.82422-.90235-4.3828.90235-.0547.0078-.0703-.0078-4.3711-.81641-4.4375-.875v-1.375l4.4375.26172 4.4414.3164 4.4375-.23828 4.4375 1.71875 1.80079 1.00782 2.46093 4.4414-.80469 4.4375L286.02735 435l-4.4375.83594-.35156.10937-4.08594 2.60547-4.4414.42969-4.4375-2.73047-.32031-.30469-3.13282-4.4375-.98437-1.36328"/><path fill="#00d4fc" fill-rule="evenodd" d="M263.83594 428.01563l-1.10156-.94532 1.10156-.85156 2.6875-3.58984 1.75-1.69141v1.3789l-.32422.3125-3.22266 4.44141 3.17188 4.4375.375.5 4.4375 3.53516 4.4414-2.15235 4.4375.6797 4.4375-1.07423 1.47266-1.48828 2.19531-4.4375-3.66797-3.90234-4.4375-.07031-4.4375.42578-4.4414-.16016-3.1914-.73437-1.2461-.3125v-1.37891l4.4375.875 4.3711.8164.0703.00782.0547-.00781 4.3828-.90235 1.82422.90235 2.61328.22265 3.96485 4.21875-1.5 4.4375L286.02734 434l-4.4375.95313-3.22656.99218-1.21094.77344-4.4414.6836L270.5 435.9453l-2.22656-1.89453-1.91406-2.54297-2.52344-3.49219"/><path fill="#00c4fc" fill-rule="evenodd" d="M267.89844 431.50781l-3.17188-4.4375 3.22266-4.4414.32422-.3125 1.2461.3125 3.1914.73437 4.4414.16016 4.4375-.42578 4.4375.0703v.31642l-4.4375.54296-4.4375.38282-4.4414.19921-4.4375-.24609-1.9375 2.70703 1.9375 2.72656 4.4375 1.29297 4.4414-.29687 1.02735.71484 3.41015 1.67578 4.4375-1.1914.48047-.48438 2.89453-4.4375-3.375-3.58594v-.3164l3.66797 3.90234-2.19531 4.4375-1.47266 1.48828-4.4375 1.07422-4.4375-.67969-4.4414 2.15235-4.4375-3.53516-.375-.5"/><path fill="#00b8fc" fill-rule="evenodd" d="M268.27344 429.79688l-1.9375-2.72657 1.9375-2.70703 4.4375.2461 4.4414-.19922 4.4375-.38282 4.4375-.54296v.3125l-4.4375 1.16015-4.4375.33985-4.4414.5625-4.4375.7539-.32813.45703.32813.46094 4.4375 1.51953 4.4414.5 2.82422 1.95703 1.61328.79297 2.81641-.79297 1.6211-.21094 3.07812-4.22656-3.07813-3.27344v-.3125l3.375 3.58594-2.89453 4.4375-.48047.48438-4.4375 1.1914-3.41015-1.67578-1.02735-.71484-4.4414.29687-4.4375-1.29296"/><path fill="#00a8fc" fill-rule="evenodd" d="M268.27344 427.53125l-.32813-.46094.32813-.45703 4.4375-.7539 4.4414-.5625 4.4375-.33985 4.4375-1.16015v.3164l-4.4375 1.76953-4.4375.30078-4.3125.88672 4.3125 1.23828 4.4375 2.8711 4.4375-.28906 2.78125-3.82032-2.78125-2.95703v-.3164l3.07813 3.27343-3.07813 4.22656-1.62109.21094-2.8164.79297-1.61329-.79297-2.82422-1.95703-4.4414-.5-4.4375-1.51953"/><path fill="#009800" fill-rule="evenodd" d="M277.15234 428.3086l-4.3125-1.23829 4.3125-.88672 4.4375-.30078 4.4375-1.76953v.3125l-4.4375 2.38672-4.39843.25781 4.39843.88672 4.4375 2.52735 2.48438-3.41407-2.48438-2.64453v-.3125l2.78125 2.95703-2.78125 3.82031-4.4375.28907-4.4375-2.8711"/><path fill="#00ac00" fill-rule="evenodd" d="M281.58984 427.95703l-4.39843-.88672 4.39843-.25781 4.4375-2.38672v.3164l-4.04296 2.32813 4.04296 3.00781 2.1875-3.0078-2.1875-2.32813v-.3164l2.48438 2.64452-2.48438 3.41406-4.4375-2.52734"/><path fill="#00c800" fill-rule="evenodd" d="M286.02734 430.07813l-4.04296-3.00782 4.04296-2.32812v.6289l-2.94921 1.69922 2.94921 2.1914 1.59766-2.1914-1.59766-1.69922v-.6289l2.1875 2.32812-2.1875 3.00781"/><path fill="#10cc00" fill-rule="evenodd" d="M286.02734 429.26172l-2.94921-2.1914 2.94921-1.69923V426l-1.85546 1.07031 1.85546 1.3789 1.00391-1.3789L286.02735 426v-.6289l1.59765 1.69921-1.59766 2.1914"/><path fill="#24d000" fill-rule="evenodd" d="M286.02734 428.44922l-1.85546-1.3789L286.02733 426v.6289l-.76171.44141.76171.5664.41407-.5664-.41407-.4414V426l1.00391 1.07031-1.0039 1.3789"/><path fill="#3cd800" fill-rule="evenodd" d="M286.02734 427.63672l-.76171-.5664.76171-.44141.41407.4414-.41407.5664"/><path fill="#50fcfc" fill-rule="evenodd" d="M303.78125 460.9375l-3.03516-2.80078 3.03516-2.96485 1.42969-1.47265 3.00781-2.3789v3.32812l-3.40234 3.48828 3.40234 1.91406 4.4375-.2461 2.77734-1.66796-2.77734-3.33203-4.4375-.15625v-3.32813l4.4375-.11328 4.4414.55078 2.875 1.9414.21876 4.4375-3.09375 1.89845-4.44141 1.66406-4.4375.40234-4.4375-1.16406"/><path fill="#00e8fc" fill-rule="evenodd" d="M308.21875 460.05078l-3.40234-1.91406 3.40234-3.48828 4.4375.15625 2.77734 3.33203-2.77734 1.66797-4.4375.2461"/><path fill="#50fcfc" fill-rule="evenodd" d="M325.97266 458.96094l-1.88282-.82422.8711-4.4375 1.01172-1.64453 4.4375-2.3125 1.49609-.48047 2.9414-1.5 4.44141 1.17969.96875.3203-.17187 4.4375-.79688.61329-4.4414 2.72656-.85157 1.09766-3.58593 2.58984-4.4375-1.76562m128.71093 6.33203l-2.91796-2.71875 1.83984-4.4375 1.07812-1.07813v5.35157l-.08203.16406.08203.08203.14844-.08203-.14844-.16406v-5.35157l4.44141-.60156 3.625-2.75781.8125-1.07422.83984 1.07422-.83984.8164-2.7539 3.6211-.9336 4.4375-.75.75-4.4414 1.96875"/><path fill="#00e8fc" fill-rule="evenodd" d="M454.6836 462.65625l-.08204-.08203.08203-.16406.14844.16406-.14844.08203"/><g clip-path="url(#c)"><path fill="#fff" fill-opacity="0" fill-rule="evenodd" d="M467.9961 480.32813H468V311.67188h-.0039H468v168.65625h-.0039"/></g><path fill="#fff" fill-opacity="0" fill-rule="evenodd" d="M267.80078 414.2461l1.57031-5.62891-9.59765-2.67188-1.5664 5.625 9.59374 2.67578"/><path fill-rule="evenodd" d="M260.91016 408.6914l.13671-.48827 6.06641 1.6875-.21094.7578-4.32812-1.20312-.3711 1.33594-.53515-.14844.08594-.55469.01953-.2578-.02735-.2461-.08203-.23438-.15625-.22265-.24219-.21485-.35546-.21093"/><g clip-path="url(#d)"><path fill="none" stroke="#000" stroke-linecap="round" stroke-linejoin="round" stroke-miterlimit="10" stroke-width=".5" d="M143.58984 476.83984l.82032 6.97657"/></g><g clip-path="url(#e)"><path fill="none" stroke="#000" stroke-linecap="round" stroke-linejoin="round" stroke-miterlimit="10" stroke-width=".5" d="M155.01953 477.66797l4.58984 5.32031"/></g><path fill="none" stroke="#000" stroke-linecap="round" stroke-linejoin="round" stroke-miterlimit="10" stroke-width=".5" d="M155.6875 478.4414l.4414-1.14062"/><g clip-path="url(#f)"><path fill="none" stroke="#000" stroke-linecap="round" stroke-linejoin="round" stroke-miterlimit="10" stroke-width=".5" d="M168.19531 477.79688l4.8711 5.0625"/></g><path fill="none" stroke="#000" stroke-linecap="round" stroke-linejoin="round" stroke-miterlimit="10" stroke-width=".5" d="M168.90234 478.53516l.38282-1.16797"/><g clip-path="url(#g)"><path fill="none" stroke="#000" stroke-linecap="round" stroke-linejoin="round" stroke-miterlimit="10" stroke-width=".5" d="M181.22656 478.10156l5.4375 4.45313"/></g><path fill="none" stroke="#000" stroke-linecap="round" stroke-linejoin="round" stroke-miterlimit="10" stroke-width=".5" d="M182.01953 478.75l.23828-1.20313"/><g clip-path="url(#h)"><path fill="none" stroke="#000" stroke-linecap="round" stroke-linejoin="round" stroke-miterlimit="10" stroke-width=".5" d="M193.80469 480.96875l6.91015-1.28125"/></g><g clip-path="url(#i)"><path fill="none" stroke="#000" stroke-linecap="round" stroke-linejoin="round" stroke-miterlimit="10" stroke-width=".5" d="M209.39844 483.64063l2.35547-6.6211"/></g><g clip-path="url(#j)"><path fill="none" stroke="#000" stroke-linecap="round" stroke-linejoin="round" stroke-miterlimit="10" stroke-width=".5" d="M224.84375 483.71094l-1.90625-6.76563"/></g><g clip-path="url(#k)"><path fill="none" stroke="#000" stroke-linecap="round" stroke-linejoin="round" stroke-miterlimit="10" stroke-width=".5" d="M240.17188 482.21094l-5.9336-3.76563"/></g><g clip-path="url(#l)"><path fill="none" stroke="#000" stroke-linecap="round" stroke-linejoin="round" stroke-miterlimit="10" stroke-width=".5" d="M253.99219 480.86719l-6.94531-1.07813"/></g><g clip-path="url(#m)"><path fill="none" stroke="#000" stroke-linecap="round" stroke-linejoin="round" stroke-miterlimit="10" stroke-width=".5" d="M252.98047 480.71094l.40625 1.16015"/></g><g clip-path="url(#n)"><path fill="none" stroke="#000" stroke-linecap="round" stroke-linejoin="round" stroke-miterlimit="10" stroke-width=".5" d="M267.3086 479.78516l-6.94532 1.08593"/></g><g clip-path="url(#o)"><path fill="none" stroke="#000" stroke-linecap="round" stroke-linejoin="round" stroke-miterlimit="10" stroke-width=".5" d="M266.29688 479.94531l.73437.98047"/></g><g clip-path="url(#p)"><path fill="none" stroke="#000" stroke-linecap="round" stroke-linejoin="round" stroke-miterlimit="10" stroke-width=".5" d="M280.48438 479.22266l-6.66797 2.21093"/></g><g clip-path="url(#q)"><path fill="none" stroke="#000" stroke-linecap="round" stroke-linejoin="round" stroke-miterlimit="10" stroke-width=".5" d="M279.51563 479.54688l.88671.84375"/></g><g clip-path="url(#r)"><path fill="none" stroke="#000" stroke-linecap="round" stroke-linejoin="round" stroke-miterlimit="10" stroke-width=".5" d="M293.82813 479.3086l-6.72657 2.03906"/></g><g clip-path="url(#s)"><path fill="none" stroke="#000" stroke-linecap="round" stroke-linejoin="round" stroke-miterlimit="10" stroke-width=".5" d="M292.85156 479.60547l.86328.8711"/></g><g clip-path="url(#t)"><path fill="none" stroke="#000" stroke-linecap="round" stroke-linejoin="round" stroke-miterlimit="10" stroke-width=".5" d="M307.22656 479.64453l-6.89062 1.3711"/></g><g clip-path="url(#u)"><path fill="none" stroke="#000" stroke-linecap="round" stroke-linejoin="round" stroke-miterlimit="10" stroke-width=".5" d="M307.22656 479.64453l1.55469 1.89844"/></g><g clip-path="url(#v)"><path fill="none" stroke="#000" stroke-linecap="round" stroke-linejoin="round" stroke-miterlimit="10" stroke-width=".5" d="M320.60547 480.19922l-7.01953.25781"/></g><g clip-path="url(#w)"><path fill="none" stroke="#000" stroke-linecap="round" stroke-linejoin="round" stroke-miterlimit="10" stroke-width=".5" d="M320.60547 480.19922l1.23437 2.1211"/></g><g clip-path="url(#x)"><path fill="none" stroke="#000" stroke-linecap="round" stroke-linejoin="round" stroke-miterlimit="10" stroke-width=".5" d="M333.85547 479.63281l-6.88672 1.39453"/></g><g clip-path="url(#y)"><path fill="none" stroke="#000" stroke-linecap="round" stroke-linejoin="round" stroke-miterlimit="10" stroke-width=".5" d="M333.85547 479.63281l1.5586 1.89453"/></g><g clip-path="url(#z)"><path fill="none" stroke="#000" stroke-linecap="round" stroke-linejoin="round" stroke-miterlimit="10" stroke-width=".5" d="M346.02344 477.66797l-4.59375 5.32031"/></g><path fill="none" stroke="#000" stroke-linecap="round" stroke-linejoin="round" stroke-miterlimit="10" stroke-width=".5" d="M346.02344 477.66797l2.39062.54297m-3.0586.23047l1.19532.27343"/><g clip-path="url(#A)"><path fill="none" stroke="#000" stroke-linecap="round" stroke-linejoin="round" stroke-miterlimit="10" stroke-width=".5" d="M358.49219 477.1289l-2.90235 6.39844"/></g><path fill="none" stroke="#000" stroke-linecap="round" stroke-linejoin="round" stroke-miterlimit="10" stroke-width=".5" d="M358.49219 477.1289l2.44922-.15234"/><g clip-path="url(#B)"><path fill="none" stroke="#000" stroke-linecap="round" stroke-linejoin="round" stroke-miterlimit="10" stroke-width=".5" d="M372.6875 477.70313l-4.66406 5.2539"/></g><path fill="none" stroke="#000" stroke-linecap="round" stroke-linejoin="round" stroke-miterlimit="10" stroke-width=".5" d="M372.01172 478.46484l1.1914.28907"/><g clip-path="url(#C)"><path fill="none" stroke="#000" stroke-linecap="round" stroke-linejoin="round" stroke-miterlimit="10" stroke-width=".5" d="M386.73438 478.60938l-6.12891 3.4375"/></g><g clip-path="url(#D)"><path fill="none" stroke="#000" stroke-linecap="round" stroke-linejoin="round" stroke-miterlimit="10" stroke-width=".5" d="M386.73438 478.60938l2.0664 1.32812"/></g><g clip-path="url(#E)"><path fill="none" stroke="#000" stroke-linecap="round" stroke-linejoin="round" stroke-miterlimit="10" stroke-width=".5" d="M399.55469 477.9336l-5.13672 4.79296"/></g><path fill="none" stroke="#000" stroke-linecap="round" stroke-linejoin="round" stroke-miterlimit="10" stroke-width=".5" d="M399.55469 477.9336l2.32031.79687"/><g clip-path="url(#F)"><path fill="none" stroke="#000" stroke-linecap="round" stroke-linejoin="round" stroke-miterlimit="10" stroke-width=".5" d="M412.13281 477.33203l-3.66406 5.9961"/></g><path fill="none" stroke="#000" stroke-linecap="round" stroke-linejoin="round" stroke-miterlimit="10" stroke-width=".5" d="M412.13281 477.33203l2.44922.14453"/><g clip-path="url(#G)"><path fill="none" stroke="#000" stroke-linecap="round" stroke-linejoin="round" stroke-miterlimit="10" stroke-width=".5" d="M426.5039 478.32813l-5.77734 4"/></g><g clip-path="url(#H)"><path fill="none" stroke="#000" stroke-linecap="round" stroke-linejoin="round" stroke-miterlimit="10" stroke-width=".5" d="M439.36328 477.79297L434.5 482.86328"/></g><path fill="none" stroke="#000" stroke-linecap="round" stroke-linejoin="round" stroke-miterlimit="10" stroke-width=".5" d="M438.65625 478.53125l1.17969.33594"/><g clip-path="url(#I)"><path fill="none" stroke="#000" stroke-linecap="round" stroke-linejoin="round" stroke-miterlimit="10" stroke-width=".5" d="M452.97266 478.10938l-5.45313 4.4375"/></g><path fill="none" stroke="#000" stroke-linecap="round" stroke-linejoin="round" stroke-miterlimit="10" stroke-width=".5" d="M452.17969 478.75781l1.1289.47656"/><g clip-path="url(#J)"><path fill="none" stroke="#000" stroke-linecap="round" stroke-linejoin="round" stroke-miterlimit="10" stroke-width=".5" d="M467.05469 479.9336l-6.98438.78906"/></g><g clip-path="url(#K)"><path fill="none" stroke="#000" stroke-linecap="round" stroke-linejoin="round" stroke-miterlimit="10" stroke-width=".5" d="M466.03516 480.04688l.6953 1.01171"/></g><g clip-path="url(#L)"><path fill="none" stroke="#000" stroke-linecap="round" stroke-linejoin="round" stroke-miterlimit="10" stroke-width=".5" d="M147.29688 465.79297l-6.59375 2.4414"/></g><path fill="none" stroke="#000" stroke-linecap="round" stroke-linejoin="round" stroke-miterlimit="10" stroke-width=".5" d="M146.33594 466.14844l.91797.8164m12.33203-2.6328l-4.53906 5.36327m3.8789-4.58203l1.19531.25781M172.5 464.03906l-3.73828 5.94922m3.1914-5.08594l1.22657.08985m12.22656-1.17188l-2.92188 6.38672m2.4961-5.45703l1.22656-.07422m14.40234 1.28125l-6.69921 2.11328m18.49609 1.9414l-3.66016-5.99609M226 469.82423l-4.21875-5.6211m18.25781 4.88672l-5.66797-4.15234m4.84375 3.55078l-.17578 1.21094m14.73828-1.3711l-6.51562-2.6289m5.57031 2.2461l.1289 1.22265m14.375-1.82813l-7-.65234m5.98048.5586l.47265 1.1289m13.77344-2.19531l-6.82422 1.66797m5.83203-1.42578l.8164.91796m13.46095-1.27343l-6.76563 1.89453m5.78125-1.61719l.84766.88672m13.57812-.0586l-7.01953-.3164m7.01953.3164l1.05469 2.21485m12.25781-2.11328l-7.00781-.51953m7.00781.51953l.98828 2.24218m12.32032-2.79687l-7 .58984m7-.58984l1.33203 2.0625m-2.34766-1.97656l.66406 1.03125m13.5547.10547l-6.77735-1.85547m6.77734 1.85547l.53906 2.39453m12.82032-4.07813l-6.86328 1.51172m6.86328-1.51172l1.58984 1.86719m11.73047-1.85156l-6.8711 1.48047m5.8711-1.26563l.78906.9375m13.57031-.88281l-6.96484.9414m5.95313-.80468l.71484.9961m13.03125-2.64454l-5.80078 3.96484m5.80078-3.96484l2.17578 1.14063m11.61719-.12891l-6.7539 1.9414m6.7539-1.9414l1.70312 1.76562m-2.6875-1.48047l.85157.87891m12.91015-2.26172l-5.6836 4.13672m5.6836-4.13672l2.20703 1.07813m10.8125 3.41015l-5.08984-4.83984m4.35156 4.13672l-.33203 1.1836m15.05469-4.32032l-6.42578 2.83984m5.48828-2.42968l.96484.7578m6.96485 1.89063l6.21484-3.27734m-6.21484 3.27734l-2.02735-1.3789"/><g clip-path="url(#M)"><path fill="none" stroke="#000" stroke-linecap="round" stroke-linejoin="round" stroke-miterlimit="10" stroke-width=".5" d="M147.28906 452.46875l-6.57812 2.46094"/></g><path fill="none" stroke="#000" stroke-linecap="round" stroke-linejoin="round" stroke-miterlimit="10" stroke-width=".5" d="M146.33203 452.82422l.92188.8125m13.14843-1.61719l-6.17187 3.35938m5.27344-2.8711l1.02343.67578m12.71875-1.83203l-5.23047 4.6914m4.46875-4.0078l1.15235.42187m13.66406.19531l-6.71094 2.08985m5.73438-1.78516l.8711.86328m13.54687-.58594l-6.96485.9297m5.95313-.79298l.71484.9961m13.58594-.03907l-6.91406-1.2578m5.91015 1.07421l.3711 1.16797m13.91015-.80469l-6.83593-1.61719m5.84375 1.38282l.30859 1.1875m13.05469.73047l-4.94922-4.98438m14.4375 5.73438l2.70703-6.48438m14.75781 5.36719l-5.59375-4.2539m19.5 1.1953l-6.77734 1.86329m5.79297-1.58985l.83984.89063m13.4961-1.01563l-6.85157 1.5664m5.85547-1.33593l.80078.92578m13.33985.95313l-6.50782-2.65235m5.5586 2.26953l.125 1.21875m13.1875.4922l-4.60547-5.3047m3.9375 4.53125l-.4414 1.14844m15.61327-2.625l-6.98047-.80469m5.96485.6875l.44531 1.14454m13.73828-2.50782l-6.6875 2.15235m5.71485-1.83594l.8789.85156m13.54297-.57422l-6.95703.96875m5.94531-.82812l.71875.99219m12.29688-3.41797l-4.33203 5.53515m18.72265-4.12109l-6.48437 2.71094m14.4961 1.49219l4.12108-5.69532m14.76172 3.04297l-7.01562-.39453m20.29297-.35937l-6.9375 1.11718m6.9375-1.11718l1.48047 1.95703m11.85937-1.03125l-6.98828-.73438m6.98828.73438l.91797 2.27343m12.23047-1.5078l-6.65235-2.26563m6.65235 2.26562l.39062 2.42188m8.45703-.23047l2.27735-6.64844m-1.94531 5.67969l-1.21094.19531"/><g clip-path="url(#N)"><path fill="none" stroke="#000" stroke-linecap="round" stroke-linejoin="round" stroke-miterlimit="10" stroke-width=".5" d="M147.07031 438.67578l-6.14062 3.41406"/></g><path fill="none" stroke="#000" stroke-linecap="round" stroke-linejoin="round" stroke-miterlimit="10" stroke-width=".5" d="M146.17578 439.17188l1.03125.66796m13.52344-.28125l-6.83203 1.65235m5.83984-1.41407l.8125.91797m13.57813-.65625l-6.9961.64844m5.97656-.55469l.67579 1.02735m13.42578-2.08985l-6.53125 2.58985m5.58203-2.21485l.9336.79688m13.52343-.5l-6.91797 1.24219m5.91016-1.0586l.75781.96094m13.58984-.07422l-6.96875-.89844m5.95703.76953l.4336 1.14454m13.79687-.53516L220.5 439.45312m5.79297 1.58985l.26953 1.19531m14.15234-1.6914l-7.01953-.32813m7.01953.32812l1.05078 2.21875m12.13672-3.33203l-6.76562 1.90235m5.78125-1.6289l.84766.88671m13.16406 1.44922l-6.1914-3.32031m5.29296 2.83984l-.0039 1.22656m14.27734-3.95312l-6.3086 3.09375m19.2422.61328l-5.54688-4.3164m4.74218 3.6875l-.21093 1.20702m14.7539-1.27343l-6.39062-2.9297m5.46093 2.50391l.07032 1.22657m14.4336-1.61719l-6.91017-1.29297m6.91016 1.29297l.73438 2.33984m12.33984-4.40625l-6.42969 2.83594m5.4961-2.42187l.96484.7578m12.55469-2.23827l-4.96875 4.96875m4.2461-4.2461l1.17187.35938m13.58593-.03516l-6.41015 2.875m5.47656-2.45703l.96875.7539m10.48437-3.22265l-.8164 6.98047m.69531-5.96484l1.14453-.44922m9.08203.80078l5.60157 4.24219m-4.78907-3.625l.19532-1.21094m11.60546 2.4375l7.00391.55469m-5.98437-.47266l-.48829-1.125m12.81641.77344l6.9414 1.09375m-5.93359-.9336l-.39843-1.16015m13.16796 3.36718l6.01172-3.64062m13.35547 3.57031l-6.08984-3.5m5.20312 2.99219l-.03906 1.22656m14.67969-2.91406l-6.96875.89062m6.96875-.89062l1.41797 2.0039m5.21093-.11328l6.40625-2.88671m-5.47656 2.46484l-.96875-.75"/><g clip-path="url(#O)"><path fill="none" stroke="#000" stroke-linecap="round" stroke-linejoin="round" stroke-miterlimit="10" stroke-width=".5" d="M147.23047 425.6875l-6.46094 2.76172"/></g><path fill="none" stroke="#000" stroke-linecap="round" stroke-linejoin="round" stroke-miterlimit="10" stroke-width=".5" d="M147.23047 425.6875l1.91016 1.54297m11.2539-1.85156l-6.16016 3.3789m6.16016-3.3789l2.05469 1.34765m11.61719-.39062l-6.8711 1.46484m6.8711-1.46484l1.57812 1.8789m11.79297-.76172l-6.98438-.76953m6.98438.76953l.90625 2.28125m12.26172-1.58593l-6.6875-2.16016m6.6875 2.16016l.42969 2.41406m12.93359-2.58594l-6.78906-1.8164m6.78906 1.8164l.55469 2.39063m12.8711-3.0625l-7.00782-.47266m5.98828.40235l.5039 1.12109m13.80079-.76172l-6.94922-1.05078m20.28516.17187l-6.9922.70703m17.9336 2.97657l-2.24219-6.66016m1.91407 5.6914l-.83985.89063m16.66407-4.45312l-6.60547 2.40234m6.60547-2.40234l1.82421 1.64453m8.10938 3.07031l.15625-7.02734m-.15625 7.02734l-2.1914 1.10156m18-2.0625l-4.82813-5.10546m4.82812 5.10546l-.78125 2.32422m14.89453-3.45703l-6.42578-2.83984m5.49219 2.42578l.08984 1.22265m14.41797-1.67968l-6.9414-1.09766m5.92968.9375l.39844 1.16016m12.45313-4.4414l-3.9922 5.78515m3.41016-4.9414l1.21875.14062m10.42579-1.59766l.51171 7.01172m10.2422-5.60547l5.6328 4.19922m7.01954-2.58203l6.96093.96484m-5.94922-.82422l-.42187-1.15234m13.05078-.05469l6.3086 3.09766m-5.39063-2.64844l-.03906-1.22656m12.48437 3.96875l6.21094-3.28516m-6.21094 3.28516l-2.03125-1.375M420.40625 428.5l6.41797-2.86328M420.40625 428.5l-1.9336-1.51172m17.03516 3.29297l2.84766-6.42578m-2.84766 6.42578l-2.44531.17578m15.94922-.10156l2.47265-6.57422m-2.11328 5.61719l-1.21875.16015m11.98438-1.70312l6.84765-1.57422"/><g clip-path="url(#P)"><path fill="none" stroke="#000" stroke-linecap="round" stroke-linejoin="round" stroke-miterlimit="10" stroke-width=".5" d="M147.21484 412.33594l-6.42968 2.83594"/></g><path fill="none" stroke="#000" stroke-linecap="round" stroke-linejoin="round" stroke-miterlimit="10" stroke-width=".5" d="M147.21484 412.33594l1.9297 1.51562M160.5 412.26953l-6.3711 2.96875m6.3711-2.96875l1.96094 1.47656m11.6211-.64062l-6.90626 1.29687m6.90625-1.29687l1.53125 1.91797m11.83594-.9961l-7.00781-.54687m5.98828.46484l.48828 1.125m13.38672.4336l-6.08985-3.5m6.08985 3.5l-.07813 2.45312m13.25-2.21875l-5.80078-3.96875m5.80078 3.96875l-.27344 2.4375m14.16407-3.91406l-6.95313-1.01563m6.95313 1.01563l.82812 2.3086m11.22656-.08985l-4.43359-5.45313m15.73047 6.23438l-.39453-7.01563m.33594 5.9961l-1.05078.63281m14.92968.32031l-1.40625-6.88281m1.40625 6.88281l-1.89453 1.5625m11.46875-3.23828l6.07422-3.53125m12.8164 4.19531l-5.07812-4.85937m4.33985 4.15234l-.33204 1.17969m14.09766-.20703l-4.5039-5.39063m3.85156 4.60547l-.46485 1.13672m15.07031-1.04687l-5.77734-4.00391m4.9375 3.42188L319 416.39063m12.59375.67187l-2.36719-6.61719m2.02344 5.65235l-.82422.91015m10.88672-5.8086l4.82813 5.10938m7.88671-4.36328l6.02735 3.61719m-5.14844-3.08984l.0625-1.22657m12.16406 1.11329l6.44922 2.78906m-5.51172-2.38281l-.09765-1.22266m13.72265-.69531l3.94922 5.8125m-3.94922-5.8125l1.14453-2.17188m11.52735 2.73828l5.23828 4.67969m-5.23828-4.67969l.58203-2.38281m.17969 3.0625l.29296-1.1914m11.81641 1.1289l6.125 3.4414m-6.125-3.4414l.05469-2.45313M420.33594 412.5l6.5625 2.50781m-6.5625-2.50781l-.30469-2.4375m1.25781 2.80078l-.15234-1.21875m13.51953 4.78516l4.55078-5.35547m-4.55078 5.35547l-2.39453-.52344m15.67578.4961l4.6211-5.29688m-4.6211 5.29687l-2.39063-.55859m15.54297.40625l4.94532-4.99219m-4.22657 4.26563l-1.17578-.35547"/><g clip-path="url(#Q)"><path fill="none" stroke="#000" stroke-linecap="round" stroke-linejoin="round" stroke-miterlimit="10" stroke-width=".5" d="M147.05078 398.69922l-6.10156 3.48047"/></g><path fill="none" stroke="#000" stroke-linecap="round" stroke-linejoin="round" stroke-miterlimit="10" stroke-width=".5" d="M147.05078 398.69922l2.07422 1.3086m10.89453-1.8125l-5.41016 4.48437m5.41016-4.48438l2.26953.9336m11.0039-.98047l-5.32812 4.58203m4.5547-3.91797l1.14062.44922M187.41406 401l-6.9375-1.1211m16.94922 4.07032l-.32812-7.01953m.27734 5.9961l-1.05469.625m15.64844.11327l-2.78516-6.45312m2.37891 5.51562l-.76563.95703m15.5547-.73437l-4.92188-5.01953m4.92187 5.01953l-.74219 2.33594m14.32032-2.625l-5.44531-4.44141m5.4453 4.4414l-.47655 2.40626m14.52343-3.98829l-6.91015-1.27734m5.90234 1.08985l.3711 1.17187m12.5703 1.21094l-4.14843-5.67188m4.14844 5.67188l-1.07032 2.21094m14.63672-2.41016l-4.65234-5.26953m3.97656 4.5l-.4336 1.14844m14.85157-.82813l-5.5039-4.3711m4.70312 3.73438l-.22266 1.20703m11.13672-6.24219l.89844 6.96875m-.76953-5.95312l1-.71094m15.125 5.66016l-4.98047-4.96094m13.60547 5.21875l4.40234-5.47656m9.3086-.27344l3.60937 6.02735m-3.08594-5.15235l.63282-1.05078m10.53515 2.41406l6.85547 1.55078m-5.85547-1.32812l-.32422-1.1836m13.45313 4.08204l5.23047-4.69141m-5.23047 4.6914l-2.30469-.84374m19.60156-4.73829l-2.73828 6.47266m2.33985-5.53125l1.22265-.10937m11.00781-1.10938l.23047 7.02344m-.23047-7.02344l2.125-1.22265m9.48047 1.73046l3.64844 6.00782m-3.11719-5.13282l.6289-1.05468m13.0547-.20704l1.84765 6.78125m-1.84765-6.78125l1.78906-1.67968m11.59766 1.66406l1.70703 6.8164m-1.70703-6.8164l1.82421-1.64453m-1.57421 2.63672l.91015-.82422m10.2461 5.41015l5.52343-4.34375m-5.52343 4.34375l-2.2422-.98828m3.04688.35938l-1.1211-.4961m14.91798 2.14454l2.94922-6.37891m-2.51953 5.44922l-1.22266.07031"/><g clip-path="url(#R)"><path fill="none" stroke="#000" stroke-linecap="round" stroke-linejoin="round" stroke-miterlimit="10" stroke-width=".5" d="M146.72656 384.90625l-5.45312 4.4336"/></g><path fill="none" stroke="#000" stroke-linecap="round" stroke-linejoin="round" stroke-miterlimit="10" stroke-width=".5" d="M146.72656 384.90625l2.26172.95703m11.14063-.84375L154.5 389.22656m5.6289-4.20703l2.21876 1.04688m9.98828-2.01563l-3.41016 6.14453m2.91406-5.25l1.22657.02344m7.79687.46875l6.16406 3.375m-5.26562-2.88672l.01562-1.22656m12.19922 3.67187l6.5664-2.49609m-6.5664 2.4961l-1.84765-1.61329m16.85547 3.5l3.18359-6.26562m-3.1836 6.26562l-2.45312.04297m18.9414-.03906l-3.16406-6.27735m3.16407 6.27735l-1.41407 2.0039m.95313-2.91796l-.70703 1.0039m16.41015-3.36719l-7.01953.27735m7.01953-.27735l1.23828 2.1172m11.3086.22265l-5.48047-4.39844m5.48047 4.39844l-.45703 2.41015m14.21875-3.1328l-6.375-2.95704m6.375 2.95703l.13281 2.44922m13.44922-3.28515l-6.91016-1.28125m5.90625 1.09375l.36719 1.16796m13.85156-2.66796l-6.71094 2.08984m6.71094-2.08985l1.74219 1.72657m-2.71875-1.42188l.8711.86328m12.71874-2.42968l-5.30468 4.61328m5.30468-4.61328l2.28907.8789m-3.0625-.20703l2.29296.8789m11.53516-1.8203l-4.78125 5.15234m4.78125-5.15235l2.3711.63282m-3.07032.11719l2.375.6328m12.10938-.84374l-5.72657 4.07422m5.72657-4.07422l2.19531 1.09765m11.53906-.3125l-6.5625 2.50391m6.5625-2.5039l1.84766 1.61327m10.84765-2.65234l-5.32421 4.58203m5.32421-4.58203l2.28907.89063m11.10547-.79688l-5.48438 4.39453m5.48438-4.39453l2.2539.97266m-3.05078-.33203l1.125.48437m12.26563-1.80078l-4.04297 5.7461m4.04297-5.7461l2.43359.30469m9.2461-.92578l-.76954 6.98828m.76953-6.98828l2.27735-.90625m-2.39063 1.92578l1.14063-.45703m13.21093-.32813l-2.61718 6.51953m2.61718-6.51953l2.4375-.26562m9.6172.01171l-.09766 7.02735m.09765-7.02735l2.1836-1.12109m-2.19532 2.14453l1.08985-.5625m12.08984-.46094l.19922 7.02735m-.19922-7.02735l2.13281-1.21093m-2.10156 2.23437l2.13281-1.21094m9.69922.54688l3.10156 6.3086m-2.64843-5.39063l.71875-.99219m15.57031 6.19922l-3.7539-5.9414m3.7539 5.9414l-1.21484 2.1289m.67187-2.99218l-.60937 1.0625"/><g clip-path="url(#S)"><path fill="none" stroke="#000" stroke-linecap="round" stroke-linejoin="round" stroke-miterlimit="10" stroke-width=".5" d="M145.82813 370.8086l-3.65625 6"/></g><path fill="none" stroke="#000" stroke-linecap="round" stroke-linejoin="round" stroke-miterlimit="10" stroke-width=".5" d="M145.29688 371.67969l1.22265.07031m13.10938-.58594l-4.625 5.28906m3.94922-4.51953l1.1953.27735m9.90235-1.86719l1.16016 6.92969m-1.16016-6.92969l1.94531-1.4961m9.37891 2.56641l5.14063 4.78906m-5.14063-4.78906l.63281-2.3711m.11328 3.06642l.31641-1.1836m11.7461 1.1836l6.15234 3.39843m-6.15235-3.39844l.03907-2.45312m.85547 2.94922l.01953-1.22656m12.20703 3.71093l6.54297-2.5664m-5.58985 2.19531l-.9336-.79688m16.98048 3.375l-.82813-6.97656m.82813 6.97656l-2.01953 1.39844m1.89843-2.41406l-1.0078.69922m17.39062-2.15235l-6.72266-2.03906m6.72266 2.03906l.47656 2.40625m-1.45313-2.70312l.23828 1.20313m14.1836-2.33204l-6.98047.8125m6.98047-.8125l1.39453 2.01954m11.9336-1.34766l-7.00782-.53125m7.00781.53125l.98438 2.2461m-2.0039-2.32423l.98437 2.25m13.30078-3.0703l-6.91016 1.26562m6.91016-1.26563l1.52344 1.92188m-2.52735-1.73829l.76172.96094m12.71484-2.85937l-5.22656 4.69531m5.22656-4.69531l2.3047.83984m-3.0625-.15625l1.15234.41797m11.68359-1.98828l-2.75 6.46875m2.75-6.46875l2.44531-.21094m9.98438-.03515l-.98047 6.96093m.98047-6.96094l2.3086-.83593m12.375 1.33203l-3.71485 5.96875m3.71484-5.96875l2.44531.16797m-2.98828.69922l1.22656.08593m13.28907-.42187l-5.03125 4.90625m4.30078-4.1914l1.16797.37109m13.69531.2539l-6.66797 2.22266m6.66797-2.22266l1.77734 1.6914m-2.74609-1.36718l.88672.84766M373.5039 372.25l-6.29688 3.11719m6.29688-3.11719l1.99609 1.42969m-2.91016-.97656l.9961.71484m12.40234-2.25l-4.63281 5.28125m4.63281-5.28125l2.38672.5586m-3.0625.20702l1.19531.28125m12.85156-.99609l-4.74609 5.17969m4.7461-5.17969l2.375.61328m10.28515-1.08984l-3.4375 6.1289m3.4375-6.1289l2.45313.05469m-2.95313.83984l1.22656.02734m12.39063-1.02344l-3.03906 6.33594m3.03906-6.33594l2.45312-.10156m-2.89453 1.02344l2.44922-.10156m11.58594-.67188l-3.59766 6.03516m3.59766-6.03516l2.45312.1211m-2.97656.7578l2.45313.1211m13.03515 2.69922l-6.89453-1.35937m5.89063 1.16015l.35546 1.17578m12.62891 1.14844L461.44922 371m4.22656 5.61328l-1.03906 2.22656m.42187-3.04296l-.51562 1.11328"/><g clip-path="url(#T)"><path fill="none" stroke="#000" stroke-linecap="round" stroke-linejoin="round" stroke-miterlimit="10" stroke-width=".5" d="M143.11719 357.09375l1.76562 6.80078"/></g><g clip-path="url(#U)"><path fill="none" stroke="#000" stroke-linecap="round" stroke-linejoin="round" stroke-miterlimit="10" stroke-width=".5" d="M143.375 358.08203l.90234-.82812"/></g><path fill="none" stroke="#000" stroke-linecap="round" stroke-linejoin="round" stroke-miterlimit="10" stroke-width=".5" d="M156.9336 357l.76562 6.98438m-.65625-5.96875l1.01562-.6875m13.07422-.3125l-1.00781 6.95312m1.00781-6.95313l2.3125-.82812m-2.45703 1.83984l2.3086-.82812m12.10156.09375l-2.90625 6.39844m2.90625-6.39844l2.44531-.15235m10.54688.02344l-2.25782 6.65625m2.25781-6.65625l2.42188-.39453m12.6836 1.76953l-5.83985 3.91016m5.83984-3.91016l2.16016 1.15625m10.29297 3.64453l-4.11719-5.6953m4.11719 5.6953l-1.08203 2.20313m15.2461-3.07813l-5.81642-3.9453m5.81641 3.9453l-.26562 2.44141m-.58203-3.01563l-.26172 2.44141m15.0039-3.39844l-6.97265-.8828m6.97265.8828l.86719 2.29688m-1.88281-2.42578l.8711 2.29687m13.48437-2.64062l-7.02735.0625m7.02735-.0625l1.17187 2.15625m-2.1914-2.14453l1.16796 2.15625m13.10547-2.79297l-6.90234 1.3164m6.90234-1.3164l1.53906 1.91015m-2.54296-1.71875l1.53906 1.91016m12.60937-2.70703l-6.55859 2.52344m6.5586-2.52344l1.85156 1.60937m-2.8086-1.24218l1.85547 1.60937m11.66016-3.15625l-5.04688 4.88672m5.04688-4.88672l2.33593.7539m-3.0703-.04296l1.16796.375m12.73047-1.23438l-4.7461 5.1836m4.7461-5.1836l2.375.61329m11.03906-.51954l-4.94531 4.9922m4.94531-4.9922l2.35156.71094m-3.0703.01563l1.17577.35546m13.53125-.14843l-6.29297 3.1289m6.29297-3.1289l1.9961 1.42578m-2.91016-.97266l.9961.71485M360.22265 359l-6.36329 2.98438M360.22266 359l1.96093 1.47656m11.58203-.83594l-6.8164 1.70313m6.8164-1.70313l1.64063 1.82422m11.05078-3.11328l-5.57031 4.28125m5.57031-4.28125l2.23438 1.01563m-3.04688-.39063l1.11719.50781m12.65625-1.52734l-4.86328 5.07031m4.86328-5.0703l2.36328.67187m-3.07031.0664l1.17968.33594m12.91407-1l-5.00782 4.92578m5.00782-4.92578l2.34375.73438m-3.07032-.01954l1.16797.3672m12.875-1.08204l-5.01172 4.92578m5.01172-4.92578l2.34375.73828m-3.0703-.02344l1.16796.3711m13.08203-.85547l-5.42578 4.46094m5.42578-4.46094l2.26563.9414m-3.0547-.29296l2.26563.9414m12.35157-.7539l-6.44922 2.79296m6.44922-2.79296l1.91796 1.53125m-2.85937-1.125l1.91797 1.53125m-2.85547-1.125l.96094.76562m14.51953-.23047l-7.02735.09375"/><g clip-path="url(#V)"><path fill="none" stroke="#000" stroke-linecap="round" stroke-linejoin="round" stroke-miterlimit="10" stroke-width=".5" d="M467.07422 360.44531l1.1836 2.15235"/></g><path fill="none" stroke="#000" stroke-linecap="round" stroke-linejoin="round" stroke-miterlimit="10" stroke-width=".5" d="M466.05078 360.46094l.59375 1.07422"/><g clip-path="url(#W)"><path fill="none" stroke="#000" stroke-linecap="round" stroke-linejoin="round" stroke-miterlimit="10" stroke-width=".5" d="M145.02344 347.17969l-.01953-.19922-.0586-.19531-.09375-.17579-.46094-.375-.1914-.05859-.19922-.01953-.19922.01953-.1914.0586-.46094.375-.09375.17578-.0586.1953-.01953.19923.01953.19922.0586.1914.09375.17578.46094.375.1914.0586.19922.01953.19922-.01953.1914-.0586.46094-.375.09375-.17578.0586-.1914.01953-.19922"/></g><path fill="none" stroke="#000" stroke-linecap="round" stroke-linejoin="round" stroke-miterlimit="10" stroke-width=".5" d="M155.52734 344.15234l3.57422 6.05079m-3.05469-5.16797l.64063-1.04688m14.65625-.25l-1.42578 6.8789m1.42578-6.8789l2.35547-.6875m10.90625.67578l-1.32031 6.90235m1.1289-5.89844l1.17188-.36328m13.30469-.30078l-3.26172 6.22265m3.26172-6.22265l2.45312-.01563m12.48438 1.80078l-6.50391 2.65235m5.5586-2.26563l.9414.78516m13.51172-.53125l-6.89063 1.3711m6.89063-1.3711l1.55469 1.89844m-2.5586-1.69922l.77734.94921m13 1.51563l-5.80468-3.95703m5.80469 3.95703l-.26954 2.4414m-.57812-3.01562l-.26563 2.4375m14.73828-2.42578l-6.42968-2.83203m6.42969 2.83203l.18359 2.44922m-1.11719-2.85938l.17969 2.44532m14.36719-3.44922h-7.02735m7.02735 0l1.15234 2.16406m-2.17188-2.16406l1.15235 2.16406m-2.17578-2.16406l.57422 1.08203m14.51562-2.42969l-6.48828 2.6914m6.48828-2.6914l1.89453 1.5586m-2.83594-1.16797l1.89454 1.5625m11.49609-3.19532l-4.7539 5.17579m4.7539-5.17579l2.375.6172m-3.0664.13671l1.1875.3086m12.86327-1.01954l-4.84765 5.08985m4.84765-5.08985l2.36329.66406M305.5 345.375l1.17969.32813m13.20703-.65625l-5.58203 4.26562m5.58203-4.26563l2.23047 1.01954m-3.04297-.40235l1.11719.51172m12.67578-1.51172l-4.91016 5.02735m4.91016-5.02735l2.35547.6914m-3.07032.03907l1.17578.34766m12.75782-1.16797l-4.71875 5.20703m4.71875-5.20703l2.3789.60547m-3.0664.15234l1.1914.30078m13.95313 1.24219l-7.0039.60547m7.0039-.60547l1.33203 2.0586m11.96875-2.17188l-6.97656.83203m6.97656-.83203l1.40234 2.01172m-2.41797-1.89063l.70313 1.00781m12.83203-2.96875l-5.38281 4.51172m5.38281-4.51171l2.27344.91796m-3.05469-.26171l1.13672.46093m13.3164-.60547l-6.09765 3.48829m6.09766-3.48829l2.07812 1.3125m11.20703-1.36328l-6.03906 3.58985m6.03906-3.58985l2.09766 1.27344m-2.97656-.75l1.05078.63672m12.79687-1.64844l-5.34375 4.5664m5.34375-4.5664l2.28125.89844m-3.0586-.23438l1.14063.44922m13.41016-.42187l-6.26172 3.1836m6.26172-3.1836l2.00781 1.40625m-2.91797-.94531l2.00782 1.41015m12.27343-1.75781l-6.375 2.96094m6.375-2.96094l1.95703 1.47656m-2.88671-1.04687l1.96093 1.48046m-2.88672-1.05078l1.95704 1.48047m13.47265-1.55469l-6.89062 1.38672"/><g clip-path="url(#X)"><path fill="none" stroke="#000" stroke-linecap="round" stroke-linejoin="round" stroke-miterlimit="10" stroke-width=".5" d="M467.00781 346.48438l1.55469 1.89843"/></g><path fill="none" stroke="#000" stroke-linecap="round" stroke-linejoin="round" stroke-miterlimit="10" stroke-width=".5" d="M466.0039 346.6875l1.5547 1.89844M465 346.89063l1.5586 1.89453"/><g clip-path="url(#Y)"><path fill="none" stroke="#000" stroke-linecap="round" stroke-linejoin="round" stroke-miterlimit="10" stroke-width=".5" d="M147.39063 332.9414l-6.78125 1.84376"/></g><path fill="none" stroke="#000" stroke-linecap="round" stroke-linejoin="round" stroke-miterlimit="10" stroke-width=".5" d="M146.40234 333.21094l.83985.89453m12.1875-3.04688l-4.23047 5.60938m3.61328-4.79297l1.21484.1914m13.42188-.30077l-5.63672 4.1953m5.63672-4.1953l2.21875 1.05078m9.83984-2.10157l-3.125 6.29688m3.125-6.29688l2.45313-.0664m11.88672.83594l-5.17188 4.7578m5.17188-4.7578l2.3125.8164m11.85156 2.29297l-6.875-1.46094m6.875 1.46094l.67969 2.35547m12.67578-3.58594l-6.95313 1m6.95313-1l1.44922 1.98047m-2.46094-1.83594l.72656.99219m13.28125.90234l-6.3164-3.07812m6.3164 3.07812l.08594 2.45313m-1.0039-2.90235l.08593 2.45313m-1.0039-2.89844l.08593 2.44922m15.35938-2.44531l-6.90625-1.30078m6.90625 1.30078l.73047 2.34375m-1.73438-2.53125l.73047 2.34375m-1.73438-2.53125l.36328 1.16797m15.01172-1.6836l-7.0078.48438m7.0078-.48438l1.30078 2.08204m-2.3203-2.01172l1.29687 2.08203m-2.3164-2.01172l.64843 1.04297m14.47656-2.21094l-6.55078 2.53906m6.55078-2.53906l1.85938 1.60156m-2.8125-1.23437l1.85937 1.60547m12.0664-2.64063l-5.86327 3.875m5.86328-3.875l2.15625 1.17578m-3.01172-.60937l1.07812.58594m13.31641-.76172l-6.3125 3.09375m6.3125-3.09375l1.98438 1.4414m11.42968-1.21484l-6.51172 2.64062m6.51172-2.64062l1.88282 1.57422m-2.83204-1.1914l.94141.78905m13.03125-1.73828l-5.92969 3.77344m5.92969-3.77344l2.13672 1.21094m-3-.66016l2.13672 1.20704m12.11719-1.63282l-6.08204 3.51953m6.08204-3.51953l2.08203 1.30078m-2.96485-.78515l2.08203 1.29687m12.58204-.3086l-7.01172.51563m7.01172-.51562l1.30468 2.07422m-2.32422-2l1.3047 2.07812m12.92968-2.7539l-6.8125 1.71875m6.8125-1.71875l1.64844 1.8164m-2.63672-1.5664l1.64453 1.8164m11.83594-3.58984l-5.16797 4.76172m5.16797-4.76172l2.3164.8125m-3.0664-.11719l1.15625.40625m12.72656-1.28515l-4.80078 5.1328m4.80078-5.1328l2.3711.64062m11.80077.60938l-6.51562 2.6289m6.51562-2.6289l1.87891 1.57812m11.67188-.64063l-6.98438.75782m6.98438-.75781l1.3789 2.02734m-2.39453-1.91797l.6875 1.01563m13.64453-1.1211l-6.98828.75m6.98828-.75l1.375 2.02735m-2.39062-1.91797l1.375 2.02734m12.74609-3.01172l-6.5664 2.5m6.5664-2.5l1.84766 1.61328m-2.8047-1.25l1.84767 1.61328m-2.8047-1.25l1.85157 1.61329m13.32031-2.48047l-6.45312 2.78125"/><g clip-path="url(#Z)"><path fill="none" stroke="#000" stroke-linecap="round" stroke-linejoin="round" stroke-miterlimit="10" stroke-width=".5" d="M466.78906 332.47266l1.91406 1.53515"/></g><g clip-path="url(#aa)"><path fill="none" stroke="#000" stroke-linecap="round" stroke-linejoin="round" stroke-miterlimit="10" stroke-width=".5" d="M465.84766 332.8789l1.91796 1.53126"/></g><path fill="none" stroke="#000" stroke-linecap="round" stroke-linejoin="round" stroke-miterlimit="10" stroke-width=".5" d="M464.91016 333.28125l1.91406 1.53516m-2.85156-1.12891l.95703.76563"/><g clip-path="url(#ab)"><path fill="none" stroke="#000" stroke-linecap="round" stroke-linejoin="round" stroke-miterlimit="10" stroke-width=".5" d="M146.88672 318.54688l-5.77344 4.0039"/></g><path fill="none" stroke="#000" stroke-linecap="round" stroke-linejoin="round" stroke-miterlimit="10" stroke-width=".5" d="M146.88672 318.54688l2.1836 1.125m10.9414-1.37891l-5.39063 4.50781m4.60547-3.85156l1.13672.46094m12.79688-1.30079l-5.0586 4.875m5.0586-4.875l2.33203.76172m10.1875-1.3789l-3.46875 6.11328m3.46875-6.11328l2.45312.0664m11.73438.63282l-5.21485 4.71093m5.21485-4.71093l2.3086.83593m11.90624 1.7461l-7.01172-.44922m7.01172.44922l1.01172 2.23437m12.13672-1.3711l-6.67969-2.17577m6.67969 2.17578l.42578 2.41797m-1.39844-2.73438l.21485 1.20703m13.98047-.63671l-6.4961-2.6836m6.4961 2.6836l.23828 2.4414M239.5078 321.5l.23828 2.4414m14.1875-2.5664l-6.82812-1.65234m6.82812 1.65234l.61328 2.375m-1.60546-2.61719l.60937 2.3789m13.74219-3.58202l-6.91797 1.23437m6.91797-1.23437l1.51562 1.92969m-2.51953-1.75l1.51563 1.92968m12.32422-3.35547l-5.95704 3.72657m5.95704-3.72657l2.125 1.22657m-2.9922-.6836l2.125 1.22656m11.44532-2.5l-4.73437 5.19141m4.73437-5.1914l2.3789.60937m-3.0664.14453l1.1875.30469m13.67188.13672l-6.44532 2.80078m6.44532-2.80078l1.91796 1.52734m11.63672.46875l-6.92578-1.19531m6.92578 1.19531l.76563 2.33203m-1.77344-2.5039l.38281 1.16406m13.79297-2.75l-6.63281 2.32422m6.63281-2.32422l1.80469 1.66015m-2.76953-1.32421l.90234.83203m13.29297-1.38672l-6.46094 2.76172m6.46094-2.76172l1.91016 1.53906m-2.85157-1.13672l1.91016 1.53906m12.33594-1.96875l-6.4414 2.8125m6.4414-2.8125l1.92187 1.52735m-2.85937-1.11719l1.92187 1.52344m12.27735-2.05078l-6.33203 3.04687m6.33203-3.04687l1.97656 1.45312m-2.89844-1.00781l1.97656 1.45313m11.5586-2.875l-4.92969 5.0039m4.92969-5.0039l2.35156.69921m-3.07031.02735l2.35156.69922m11.15234-1.85938l-3.87109 5.86719m3.8711-5.86719l2.4414.23047m12.16016 1.30469l-6.44532 2.80078m5.50782-2.39453l.96093.76562m13.26172 1.69531l-6.38672-2.93359m6.38672 2.9336l.14453 2.44921m13.47266-4.30078l-6.98828.76953m6.98828-.76953l1.3789 2.02735m-2.39843-1.91797l1.38281 2.02734m-2.39844-1.91406l.69141 1.01562m14.33594-2.36718l-6.34375 3.02343m6.34375-3.02343l1.97265 1.46093m-2.89453-1.01953l1.97266 1.45703m-2.89453-1.01953l1.96875 1.46094m-2.89453-1.01953l.98828.73047m14.80078-2.55469l-5.7539 4.03125"/><g clip-path="url(#ac)"><path fill="none" stroke="#000" stroke-linecap="round" stroke-linejoin="round" stroke-miterlimit="10" stroke-width=".5" d="M466.4375 318.53125l2.1875 1.11328"/></g><g clip-path="url(#ad)"><path fill="none" stroke="#000" stroke-linecap="round" stroke-linejoin="round" stroke-miterlimit="10" stroke-width=".5" d="M465.60156 319.11719l2.1875 1.11328"/></g><path fill="none" stroke="#000" stroke-linecap="round" stroke-linejoin="round" stroke-miterlimit="10" stroke-width=".5" d="M464.76563 319.70313l2.1875 1.11328m-3.02735-.52344l1.09375.55469"/><path fill="#00f" fill-rule="evenodd" d="M450.375 467.64844h8.61719V457.5039H450.375v10.14453"/><path fill="azure" fill-rule="evenodd" d="M452.20703 459.33594h.83594v2.82422h3.28515v-2.82422h.83204v6.48047h-.83204v-2.91797h-3.28515v2.91797h-.83594v-6.48047"/><path fill="#ff3030" fill-rule="evenodd" d="M344.55078 441.01953h7.6914V430.8711h-7.6914v10.14844"/><path fill="azure" fill-rule="evenodd" d="M346.38281 432.70703h.83203v5.73828h3.19532v.73828h-4.02735v-6.47656"/><path fill="#00f" fill-rule="evenodd" d="M263.96484 432.14063h8.6172v-10.14454h-8.6172v10.14454"/><path fill="azure" fill-rule="evenodd" d="M265.79688 423.82813h.83203v2.82421h3.28906v-2.82421h.83203v6.48046h-.83203v-2.91796h-3.28906v2.91796h-.83204v-6.48046"/><path fill="#00f" fill-rule="evenodd" d="M410.42969 432.14063h8.6211v-10.14454h-8.6211v10.14454"/><path fill="azure" fill-rule="evenodd" d="M412.26172 423.82813h.83594v2.82421h3.28515v-2.82421h.83203v6.48046h-.83203v-2.91796h-3.28515v2.91796h-.83594v-6.48046"/><path fill="#ff3030" fill-rule="evenodd" d="M180.33203 427.70313h7.6914v-10.14454h-7.6914v10.14454"/><path fill="azure" fill-rule="evenodd" d="M182.16406 419.39063h.83203v5.73828h3.19532v.74218h-4.02735v-6.48046"/><path fill="#00f" fill-rule="evenodd" d="M144.1289 423.26563h8.6172v-10.14844h-8.6172v10.14844"/><path fill="azure" fill-rule="evenodd" d="M145.96094 414.95313h.83594v2.8203h3.28515v-2.8203h.83203v6.48046h-.83203v-2.91796h-3.28516v2.91796h-.83593v-6.48046"/><path fill="#ff3030" fill-rule="evenodd" d="M348.98828 414.38672h7.6914v-10.14453h-7.6914v10.14453"/><path fill="azure" fill-rule="evenodd" d="M350.82031 406.07422h.83203v5.74219h3.19532v.73828h-4.02735v-6.48047"/><path fill="#00f" fill-rule="evenodd" d="M210.70313 405.51172h8.62109v-10.14453h-8.6211v10.14453"/><path fill="azure" fill-rule="evenodd" d="M212.53906 397.19922h.83203v2.82422h3.28516v-2.82422h.83203v6.48047h-.83203v-2.91797h-3.28516v2.91797h-.83203v-6.48047"/><path fill="#00f" fill-rule="evenodd" d="M370.48438 401.07422h8.62109v-10.14844h-8.6211v10.14844"/><path fill="azure" fill-rule="evenodd" d="M372.3164 392.76172h.83594v2.82031h3.28516v-2.82031h.83203v6.47656h-.83203v-2.91406h-3.28516v2.91406h-.83593v-6.47656"/><path fill="#ff3030" fill-rule="evenodd" d="M335.67188 387.75781h7.6953v-10.14453h-7.6953v10.14453"/><path fill="azure" fill-rule="evenodd" d="M337.5039 379.44531h.83594v5.73828h3.19141v.7422h-4.02734v-6.48048"/><path fill="#ff3030" fill-rule="evenodd" d="M202.52344 356.6875h7.6914v-10.14453h-7.6914v10.14453"/><path fill="azure" fill-rule="evenodd" d="M204.35547 348.375h.83203v5.74219h3.19531v.73828h-4.02734V348.375"/><path fill="#ffffe0" fill-rule="evenodd" d="M430.51172 435.07031h22.17969V424.875h-22.1797v10.19531"/><path fill-rule="evenodd" d="M434.01172 426.71094h.50781v6.29297h-.78515v-4.48829h-1.39063v-.55468l.5586-.0664.2539-.0547.23047-.08984.20312-.14063.17188-.21093.14453-.29297.10547-.39453m4.8125 0l.23047.01953.21875.05469.20703.08984.19531.1211.1836.14843.17187.17578.30469.41797.24219.4961.17968.54296.10938.58204.03906.58984-.03906.59375-.10938.58203-.17969.55469-.24218.5039-.30469.42579-.17188.17968-.18359.15625-.19531.1211-.20703.09375-.21875.05468-.23047.01954-.23047-.01954-.21875-.05468-.20703-.09375-.19531-.1211-.1836-.15625-.17187-.17969-.30469-.42578-.24219-.5039-.17969-.55469-.10937-.58203-.03906-.59375h.83203l.02734.5625.08203.50781.12891.4414.16016.375.1914.30079.21094.22265.22266.13672.22656.04688.22656-.04688.22266-.13671.21094-.22266.1914-.30078.16016-.375.1289-.4414.07813-.50782.03125-.5625-.03125-.5625-.07813-.5-.1289-.4336-.16016-.36718-.1914-.29297-.21094-.21094-.22266-.13281-.22656-.04688-.22656.04688-.22266.13281-.21094.21094-.1914.29297-.16016.36719-.1289.43359-.08204.5-.02734.5625h-.83203l.03906-.58985.10938-.58203.17968-.54296.24219-.4961.30469-.41797.17187-.17578.1836-.14844.1953-.12109.20704-.08984.21875-.0547.23047-.01952m5.08984 0h.51172v6.29297h-.78906v-4.48829H442.25v-.55468l.5586-.0664.2539-.0547.22656-.08984.20703-.14063.17188-.21093.14062-.29297.10547-.39453m2.82422 2.17578h.78906l.01954-.3164.05859-.28907.09765-.25.14063-.21484.1836-.17579.22265-.1289.26563-.08203.30468-.02735.23828.02344.22657.0625.20312.10156.17969.13672.14844.17578.11328.20313.07031.23828.02344.26172-.01953.26953-.06641.22656-.10938.1914-.15625.17188-.19921.16016-.2461.16797-.63672.38672-.53515.3125-.4375.32031-.34766.32422-.26562.33594-.1875.34765-.125.3711-.07032.39453-.01953.41797h4.21094v-.73829h-3.33203l.08203-.28515.11328-.23828.14844-.19922.1875-.1836.23047-.16796.27734-.17579.71875-.41796.41406-.20704.34766-.23046.28125-.25.21875-.26563.16406-.28125.10938-.28125.0664-.28515.01954-.28125-.04297-.38282-.1211-.34765-.1875-.3086-.25-.26562-.30469-.21094-.34375-.16016-.3828-.09765-.40626-.03125-.4336.03125-.39843.09765-.35547.16797-.30469.23438-.24609.30469-.1875.375-.11719.4453-.03906.51954"/><path fill="#ffffe0" fill-rule="evenodd" d="M350.51563 383.55078h22.18359v-10.1914h-22.1836v10.1914"/><path fill-rule="evenodd" d="M354.01563 375.1914h.51171v6.29688h-.78906v-4.49219h-1.38672v-.55468l.5586-.06641.2539-.05078.22656-.08985.20313-.14453.17578-.20703.14063-.29687.10546-.39453m4.81641 0l.22656.01953.21875.05469.21094.08984.19531.1211.1836.14843.17187.17578.30078.42188.2422.49218.17968.54688.11328.57812.03906.59375-.03906.58985-.11328.58594-.17969.55468-.24219.5-.30078.42969-.17187.17969-.1836.15234-.1953.125-.21095.08985-.21875.05859-.22656.01953-.23047-.01953-.21875-.0586-.20703-.08984-.19922-.125-.1836-.15234-.17187-.17969-.30078-.42969-.24219-.5-.17968-.55469-.11328-.58593-.03907-.58985h.83594l.02735.5625.08203.50391.125.44531.16406.3711.1914.30078.21094.22265.22266.13672.22656.04688.22656-.04688.22266-.13672.20703-.22265.1914-.30078.16407-.3711.125-.44531.08203-.5039.02735-.5625-.02735-.5625-.08203-.5-.125-.4375-.16406-.36329-.1914-.29297-.20704-.21484-.22266-.13281-.22656-.04297-.22656.04297-.22266.13281-.21094.21484-.1914.29297-.16406.36328-.125.4375-.08204.5-.02734.5625h-.83594l.03907-.59375.11328-.57812.17969-.54688.24218-.49218.30078-.42188.17188-.17578.1836-.14844.19921-.1211.20703-.08983.21875-.0547.23047-.01952m5.08985 0h.5078v6.29687h-.78515v-4.49219h-1.39062v-.55468l.5625-.06641.25-.05078.23046-.08985.20313-.14453.17578-.20703.14063-.29687.10546-.39453m2.82422 2.17578h.78516l.01953-.3164.0586-.28517.10156-.2539.14062-.21485.17969-.17578.22266-.1289.26562-.07813.3086-.02734.23828.01953.22265.0625.20313.10156.17969.14063.14843.17187.11328.20703.07422.23438.02344.26562-.02344.26954-.0625.22265-.11328.1914-.15234.17188-.20313.16406-.2461.16407-.6328.39062-.53907.3125-.4375.3164-.34765.32423-.26172.33594-.1914.35156-.125.3711-.06641.39062-.02344.42187h4.21484v-.74219h-3.33594l.08594-.28515.11328-.23438.14844-.20312.1875-.17969.23047-.17188.27734-.17578.71875-.41796.41407-.20313.34375-.23047.28125-.2539.22265-.26563.16016-.27734.11328-.28516.0625-.28516.01953-.28125-.03906-.3828-.1211-.34767-.1914-.30859-.25-.26172-.30078-.21484-.34766-.15625-.3789-.09766-.40625-.03515-.4336.03125-.39844.10156-.35546.16406-.3047.23438-.25.30468-.18359.375-.11718.44532-.03907.51953"/><path fill="#ffffe0" fill-rule="evenodd" d="M266.29297 366.34766h22.17969v-10.19141h-22.1797v10.1914"/><path fill-rule="evenodd" d="M269.79297 357.98828h.50781v6.29688h-.78906v-4.4922H268.125v-.55468l.5586-.0625.2539-.05469.23047-.08984.20312-.14063.17188-.21093.14062-.29297.10938-.39844m4.8125 0l.23047.01953.21875.05469.20703.08984.19531.1211.1836.15234.17187.17578.30078.41797.2461.49219.17968.54687.10938.57813.03906.59375-.03906.59375-.10938.58203-.17969.55469-.24609.5039-.30078.42579-.17188.17968-.18359.15235-.19531.125-.20703.08984-.21875.0586-.23047.01952-.23047-.01953-.21875-.05859-.20703-.08984-.19531-.125-.1875-.15235-.16797-.17969-.30469-.42578-.24219-.5039-.17969-.55469-.11328-.58203-.03515-.59375h.83203l.02734.5625.08203.5039.12891.44532.16016.375.1914.30078.21094.21875.22266.13672.22656.04687.22656-.04687.22266-.13672.21094-.21875.1914-.30078.16016-.375.125-.44531.08203-.50391.03125-.5625-.03125-.5625-.08203-.5-.125-.4336-.16016-.36718-.1914-.29297-.21094-.21485-.22266-.1289-.22656-.04688-.22656.04688-.22266.1289-.21094.21485-.1914.29297-.16016.36719-.1289.43359-.08204.5-.02734.5625h-.83203l.03515-.59375.11329-.57813.17968-.54687.24219-.49219.30469-.41797.16797-.17578.1875-.15234.1953-.1211.20704-.08984.21875-.05469.23047-.01953m5.08984 0h.51172v6.29688h-.78906v-4.4922h-1.38672v-.55468l.5586-.0625.2539-.05469.22656-.08984.20313-.14063.17578-.21093.14062-.29297.10547-.39844m2.82422 2.17578h.78906l.01954-.3164.05859-.28516.09765-.2539.14063-.21485.17969-.17188.22265-.1289.26563-.08203.3086-.02735.23827.02344.22266.0625.20703.10156.17969.13672.14844.17188.11328.20703.07031.23828.02344.26172-.01953.26953-.06641.22266-.10938.1953-.15625.16798-.19921.16406-.25.16406-.63282.39063-.53906.3125-.4375.3164-.34375.32422-.26562.33594-.1875.35156-.12891.3711-.0664.39062-.01954.42188h4.21094v-.7422h-3.33203l.08203-.28515.11328-.23437.14844-.20313.1875-.17969.23047-.17187.27734-.17578.71875-.41406.41406-.20704.34766-.23046.28125-.25.21875-.26954.16406-.27734.10938-.28515.0625-.28516.02344-.28125-.04297-.38281-.1211-.34766-.1875-.3086-.25-.26171-.30469-.21094-.34375-.16016-.3828-.09765-.40626-.03516-.4336.03516-.39843.09765-.35547.16797-.30469.23438-.24609.30078-.1875.375-.11719.44531-.03906.51953"/><path fill="#ffffe0" fill-rule="evenodd" d="M228.80469 387.98828h22.17969v-10.1914h-22.1797v10.1914"/><path fill-rule="evenodd" d="M232.30469 379.6289h.50781v6.29688h-.78516v-4.49219h-1.38672v-.55468l.5586-.0625.25-.0547.23047-.08983.20312-.14063.17578-.21094.14063-.29297.10547-.39843m4.8125 0l.23047.01953.21875.05469.20703.08984.19922.1211.18359.15234.17188.17578.30078.41797.24218.49218.1797.54688.11327.57812.03906.59375-.03906.59375-.11328.58204-.17969.55468-.24218.5-.30078.42969-.17188.17969-.1836.15234-.19921.125-.20703.08985-.21875.05859-.23047.01953-.22656-.01953-.21875-.0586-.21094-.08984-.19531-.125-.1836-.15234-.17187-.17969-.30078-.42969-.2422-.5-.17968-.55469-.11328-.58203-.03906-.59375h.83593l.02735.5625.08203.50391.125.44531.16406.375.1914.30078.20704.21875.22266.13672.22656.04688.22656-.04688.22266-.13672.21093-.21875.19141-.30078.16406-.375.125-.44531.08203-.5039.02735-.5625-.02735-.5625-.08203-.5-.125-.4375-.16406-.36329-.1914-.29297-.21094-.21484-.22266-.1289-.22656-.04688-.22656.04687-.22266.12891-.20703.21484-.1914.29297-.16407.36328-.125.4375-.08203.5-.02735.5625h-.83593l.03906-.59375.11328-.57812.17969-.54688.24219-.49218.30078-.41797.17187-.17578.1836-.15235.1953-.1211.21095-.08983.21875-.0547.22656-.01952m5.09375 0h.50781v6.29687h-.78516v-4.49219h-1.39062v-.55468l.5625-.0625.25-.0547.23047-.08983.20312-.14063.17578-.21094.14063-.29297.10547-.39843m2.82422 2.17578h.78515l.01953-.3164.0586-.28517.10156-.2539.14063-.21485.17968-.17187.22266-.1289.26562-.08204.3086-.02734.23828.02344.22266.0625.20312.10156.17969.13672.14844.17187.11328.20703.07422.23438.02343.26562-.02344.26954-.0625.22265-.11328.1914-.15234.17188-.20313.16406-.24609.16407-.63281.39062-.53906.3125-.4375.3164-.34766.32423-.26172.33594-.1914.35156-.125.3711-.07032.39062-.01953.42187h4.21094v-.74219h-3.33203l.08594-.28515.11328-.23438.14843-.20312.1875-.17969.23047-.17188.27735-.17578.71875-.41406.41406-.20703.34375-.23047.28125-.25.21875-.26953.16406-.27734.11328-.28516.0625-.28516.01953-.28125-.04297-.3828-.11718-.34767-.1914-.30859-.25-.26172-.30079-.21094-.34766-.16015-.3789-.09766-.40625-.03515-.4375.03515-.39453.09766-.35547.16797-.30469.23437-.25.30078-.1836.375-.11718.44532-.03906.51953"/><path fill="#ffffe0" fill-rule="evenodd" d="M297.17969 423.4961h22.17969v-10.19141h-22.1797v10.1914"/><path fill-rule="evenodd" d="M300.67969 415.13672h.50781v6.29687h-.78906v-4.49218h-1.38672v-.5547l.5586-.0664.2539-.05078.23047-.08984.20312-.14453.17188-.20704.14062-.29687.10938-.39453m4.8125 0l.23047.01953.21875.05469.20703.08984.19531.1211.1836.14843.17187.17578.30078.42188.2461.49219.17968.54687.10938.57813.03906.58984-.03906.59375-.10938.58594-.17969.55469-.24609.5-.30078.42968-.17188.17969-.18359.15234-.19531.125-.20703.08985-.21875.0586-.23047.01952-.23047-.01953-.21875-.0586-.20703-.08984-.19531-.125-.1875-.15234-.16797-.17969-.3047-.42969-.24218-.5-.17969-.55468-.11328-.58594-.03515-.59375h.83203l.02734.5664.08203.50391.1289.4414.16017.375.1914.30079.21094.22266.22265.13671.22657.04688.22656-.04688.22266-.13671.21093-.22266.19141-.30078.16016-.375.125-.4414.08203-.50391.03125-.56641-.03125-.5586-.08203-.5-.125-.4375-.16016-.36327-.1914-.29297-.21094-.21485-.22266-.13281-.22656-.04297-.22656.04297-.22266.13281-.21094.21485-.1914.29296-.16016.36329-.1289.4375-.08204.5-.02734.55859h-.83203l.03515-.58984.11328-.57813.1797-.54687.24218-.4922.30469-.42187.16796-.17578.1875-.14844.19532-.12109.20703-.08984.21875-.05469.23047-.01953m5.08984 0h.51172v6.29687h-.78906v-4.49218h-1.38672v-.5547l.5586-.0664.2539-.05078.22656-.08984.20313-.14453.17578-.20704.14062-.29687.10547-.39453m2.82422 2.17578h.78906l.01953-.3164.0586-.28516.09765-.2539.14063-.21485.17969-.17578.22265-.12891.26563-.07813.3086-.02734.23827.01953.22266.0625.20703.10156.17969.14063.14844.17188.11328.20703.0703.23437.02345.26563-.01954.26953-.0664.22265-.10938.19141-.15625.17188-.19921.16406-.25.16406-.63282.39063-.53515.3125-.44141.3164-.34375.32422-.26563.33594-.1875.35156-.125.3711-.0703.39062-.01954.42187h4.21094v-.74218h-3.33203l.08203-.28516.11328-.23438.14844-.20312.1875-.17969.23047-.17187.27734-.17578.71875-.41797.41406-.20313.34766-.23047.28125-.2539.21875-.26563.16406-.27734.10938-.28516.0625-.28515.02343-.28125-.04296-.38282-.1211-.34765-.1875-.3086-.25-.26171-.30469-.21485-.34375-.15625-.3828-.09765-.40626-.03516-.4336.03125-.39843.10156-.35547.16406-.30469.23438-.24609.30469-.1875.375-.11719.4453-.03906.51954"/></g></defs><use xlink:href="#ae"/></svg>