<svg xmlns="http://www.w3.org/2000/svg" role="img" xmlns:xlink="http://www.w3.org/1999/xlink" viewBox="142.45 309.95 326.84 171.84"><defs><clipPath id="a"><path d="M144 311.67188h1v168.65625h-1zm0 0"/></clipPath><clipPath id="b"><path d="M144 311.67188h324v168.65625H144zm0 0"/></clipPath><clipPath id="c"><path d="M467 311.67188h1v168.65625h-1zm0 0"/></clipPath><clipPath id="d"><path d="M144 476h1v4.32813h-1zm0 0"/></clipPath><clipPath id="e"><path d="M155 476h5v4.32813h-5zm0 0"/></clipPath><clipPath id="f"><path d="M168 476h5v4.32813h-5zm0 0"/></clipPath><clipPath id="g"><path d="M181 477h6v3.32813h-6zm0 0"/></clipPath><clipPath id="h"><path d="M193 479h9v1.32813h-9zm0 0"/></clipPath><clipPath id="i"><path d="M210 476h1v4.32813h-1zm0 0"/></clipPath><clipPath id="j"><path d="M220 477h7v3.32813h-7zm0 0"/></clipPath><clipPath id="k"><path d="M233 479h8v1.32813h-8zm0 0"/></clipPath><clipPath id="l"><path d="M239 480h2v.32813h-2zm0 0"/></clipPath><clipPath id="m"><path d="M246 479h9v1.32813h-9zm0 0"/></clipPath><clipPath id="n"><path d="M252 479h3v1.32813h-3zm0 0"/></clipPath><clipPath id="o"><path d="M260 478h8v2.32813h-8zm0 0"/></clipPath><clipPath id="p"><path d="M265 478h3v2.32813h-3zm0 0"/></clipPath><clipPath id="q"><path d="M273 478h8v2.32813h-8zm0 0"/></clipPath><clipPath id="r"><path d="M280 478h3v2.32813h-3zm0 0"/></clipPath><clipPath id="s"><path d="M286 479h9v1.32813h-9zm0 0"/></clipPath><clipPath id="t"><path d="M293 479h3v1.32813h-3zm0 0"/></clipPath><clipPath id="u"><path d="M300 479h8v1.32813h-8zm0 0"/></clipPath><clipPath id="v"><path d="M307 479h2v1.32813h-2zm0 0"/></clipPath><clipPath id="w"><path d="M313 479h8v1.32813h-8zm0 0"/></clipPath><clipPath id="x"><path d="M319 480h2v.32813h-2zm0 0"/></clipPath><clipPath id="y"><path d="M326 479h9v1.32813h-9zm0 0"/></clipPath><clipPath id="z"><path d="M333 479h3v1.32813h-3zm0 0"/></clipPath><clipPath id="A"><path d="M341 477h6v3.32813h-6zm0 0"/></clipPath><clipPath id="B"><path d="M354 477h6v3.32813h-6zm0 0"/></clipPath><clipPath id="C"><path d="M366 479h9v1.32813h-9zm0 0"/></clipPath><clipPath id="D"><path d="M372 479h2v1.32813h-2zm0 0"/></clipPath><clipPath id="E"><path d="M379 479h9v1.32813h-9zm0 0"/></clipPath><clipPath id="F"><path d="M386 479h3v1.32813h-3zm0 0"/></clipPath><clipPath id="G"><path d="M394 477h6v3.32813h-6zm0 0"/></clipPath><clipPath id="H"><path d="M408 476h5v4.32813h-5zm0 0"/></clipPath><clipPath id="I"><path d="M420 478h7v2.32813h-7zm0 0"/></clipPath><clipPath id="J"><path d="M433 478h8v2.32813h-8zm0 0"/></clipPath><clipPath id="K"><path d="M448 476h4v4.32813h-4zm0 0"/></clipPath><clipPath id="L"><path d="M462 476h3v4.32813h-3zm0 0"/></clipPath><clipPath id="M"><path d="M144 464h4v6h-4zm0 0"/></clipPath><clipPath id="N"><path d="M144 451h4v5h-4zm0 0"/></clipPath><clipPath id="O"><path d="M144 438h4v5h-4zm0 0"/></clipPath><clipPath id="P"><path d="M144 425h4v4h-4zm0 0"/></clipPath><clipPath id="Q"><path d="M144 411h4v5h-4zm0 0"/></clipPath><clipPath id="R"><path d="M144 398h4v5h-4zm0 0"/></clipPath><clipPath id="S"><path d="M144 384h3v6h-3zm0 0"/></clipPath><clipPath id="T"><path d="M144 370h3v7h-3zm0 0"/></clipPath><clipPath id="U"><path d="M144 356h1v9h-1zm0 0"/></clipPath><clipPath id="V"><path d="M144 344h4v6h-4zm0 0"/></clipPath><clipPath id="W"><path d="M466 346h2v4h-2zm0 0"/></clipPath><clipPath id="X"><path d="M144 333h4v2h-4zm0 0"/></clipPath><clipPath id="Y"><path d="M466 333h2v3h-2zm0 0"/></clipPath><clipPath id="Z"><path d="M144 318h4v5h-4zm0 0"/></clipPath><clipPath id="aa"><path d="M466 318h2v4h-2zm0 0"/></clipPath><clipPath id="ab"><path d="M465 319h3v3h-3zm0 0"/></clipPath><g id="ac" clip-path="url(#clip1)"><path fill="#fff" fill-opacity="0" fill-rule="evenodd" d="M0 0h1000v1000H0zm0 0"/><path fill="#d3d3d3" fill-opacity="0" fill-rule="evenodd" d="M162.15234 355.86719l-.23437.29297.0586.23437.11718.17188.17578.23437.29297.34766.11328.0586.11719-.17188.0586-.23438.17577-.17578.46485-.17578h.69922l.23437.29297.28906.8164.0586.17579.17578.23046.35156.23438.69922.69922.17188.17578.23437.34765.23438.41016.28906.58203.41015.46485.23047.23437.23438.17578.11719.23047.17578.29297.17187 1.16406v.23438l.0586.28906.05859.11719.11719.11719.34765.41015.11719.17188.17578.17578.17578.23437.11719.17188.17188.35156.05859.23438.23437.40625.23438-.0586-.17578.17578-.0586.92969h-.58203l-.23437-.11328-.34766.11328-.11719.11719-.05859.29297-.0586.17578-.11718.17187-.46484.29297-.0586.23438-.0586.11328v.64453l.0586.17187v.41016l.0586.0586v.40624l.05859.40625.11719.17579.05859.05859.23047.64062-.0586.29297v.69922l-.05859.58203v.23438l-.0586.23047-.05468.35156v1.92187l.05469.1172h.42578l-.36719.11718-.02344.35156.89063 1.16797 1.74219.53906 1.33984.35938v.53906l.08984.8086.53516.71484 1.51953.26953.89063-.08594.08984 1.16406.53516.1797 1.16015-.1797 2.05469-.98437 1.16016-.36328 1.8789-.17578 1.69531-.1797-.17968.71876-1.51563.08594-1.25.08984-.80469.26953-1.07421.8086.26953.71875.53515.89843-.17968.625-.26563.8086.26563 1.07812.625.89844.80468.17969 1.25-.1797-.26562.72267.09766.5039.05468.29297v.17188l.0586.29296v.40625l.17578.1172.35156.11718h.40625l.29297-.17578.11328-.11719.0586-.11719.11718-.23047.0586-.17578.35156-.46484.23047-.17578.17578-.0586.17578.0586.0586.17578.11718.98828.05469.46875.0586.17188.11718.23437.17578.0586.8164.05859h.28907l.11719.23437.05859.40625.0586.35156v1.10547l.11718.29297.11719.34766.28906.69922.17578.35156.58203.7539.35157.17579.17187.0586.46875.23437.64063.46484.34765.23438.29297.17578.29297.05468.23047.0625.8164.34766.29297.17578.11328.17188.35157.35156.11719.17578.52343.64063v.28906l.0586.35156v.34766l.05859.35156.0586.28906.11718.0586.17188.05859h.17578l.58203.23437.17578.1172.17578.28905.17578.23438.11328.23437.29297.23047.11719.11719v.41016l.0586.05468.28906.23438.23437.11719.0586.11718.11718.17188.0586.11719.23047.23437.05859.17578.23437.0586.1172.05859-.1172.11328-.05859.11719v.11719l-.11719.29296-.11719.28907v.58203l.17579.11719.11718.05859.0586.11719.11719.11719.11328.05859.17578.34765.0586.35157.05858.40625v.17578l-.05859.17578-.11719.69922v.17187l.1172.17579.29296.29296h.40625l.17578.1172.11719.17187.11719.29296v.23438h-.52735l-.23047-.23438h-.23437l-.17578.0586-.0586.69922.0586.34765.11719.17579.17578.41015.11718.23047.28907.46875.17578.05469h.52344l.23437.0586.75781.64062.0586.29296v.23438l.05859.0586.23047.34765v.35156l-.11719.17188v.29297l.29297.28906.29297.17578.17187.0586.29297.17577.29297.1172.58203.40624.28906.23438.29297.17578.21875.16015.01563.01172.23047.17579.64062.52343.17578.23438.1172.17578.17577.17578.11328.17188v.64062l.1172.17578.46874.11719.58203.11719.23438.05859.23047.11328.29297.11719.11328.0586.58593.35156.28907.17187.17578.0625.17578.05469.17578.0586.69922.35155.28906.17579.23438.05468.28906.17578.23437.1172.64063.40624.29297.11719.17187.0586.23438.05859.41015.05859.23047.0586.23438.11718.0586.17188-.41017.17578.46875.0586.0586.29296.11328.23438.17578.05468.23438.0586.17578.05859.40625.11719.64062.23437.11719.17188.0586.23437v.17578l-.0586.1172-.0586.40624.23438.23438.11719.05859.34766.11719.64062.23047.17578.11718.28906.1172.17578.17577.23438.46485.58203 1.10546.17578.17579.34766.17578.17578.11719.35156.11718 1.04688.52344.23437.0586.46485.11327.29297.0586.46484.17578.75781.58203.23438.23438.34765.46484.17578.17578.28907.23438.8164.69921.29297.17579.28906.28906.29297.17578.29297.28906.69531.64063.17578.17578.29297.23437.28907.23438.46875.28906.64062.58203.34766.23438.23437.29297.34766.34765.35156.46485.9336.99218.34765.40625.11719.17579.23437.05859.11328.11719.64454.17578.23047.11328.23437.0586.29297.17577.23047.1172.9336.69921.40624.40625.23438.17578.40625.17578.23437.11719.8164.34766.34766.23437.23438.11719.29297.28906.23047.11719.7578.35156.35157.17188.23047.05859.29297.11719.23437.0586.8711.17577h.8164l.46875.23047.17188.0586.875.69921.46484.1172.29297.05858.17578.0586.23047.0586.46875.05859.34766.05859.35156.0586.40625.05859h.29297l.17187.0586v.23046l.17578.17578h.29297l.34766.0586.35156.05859.69922.11719h.64063l.46484-.23438.29297-.17578.17187-.11719.41016-.17187.28906-.17578.9336-.46485.46875-.29297.52343-.29296.46485-.17188.46484-.17578 1.05078-.46485.28906-.11718.41016-.11719.28906-.11719.52735-.17578 1.51562-.69922.58203-.34765.28907-.0586.29297-.0586.34765-.11718.875-.23047.35156-.11719h.11329l.23437-.05859.875-.23437.23438-.0586h.8125l.35156-.0586.8164-.11718.17188-.0586.35156-.05468.29297-.0586.23047-.05859.8164-.17578.17579-.0586h.34765l.23438-.05859.46484-.11718.75781-.17188.23438-.0586h.34765l.41016-.11718.28906-.0586 1.28516-.05859h.28906l.41016-.0586.23047-.05858h.17578l.875-.1172h.40625l.41015-.11718h.34766l.35156-.11328.8711-.0586h1.75l1.04687.28907.41016.11719.28906.11718.35156.11719.28907.11719 1.05078.17187.28906.0586h.29297l.29297.05859.17187.0586.41016.05859.17187.0586.1172.05858h.11718l.11719.0586.35156.0586h.11328l.41016.0664 1.92187.39453 1.92578.39453 1.51953.44922 1.69532.71875 2.14453.80469 1.60547-.71875 1.42968-.80469 1.16016-1.07813 1.25-.44921 3.03516-.71875 1.875-.35938 2.14453-1.34765 2.23437-1.25391 2.5-1.25781 1.69531-.44922 1.78516-.17969 1.16016-.26953.625.53906 1.33984-.26953.71485-.98828.98437-1.34375.44531-.17969.80469-.35937 1.875-.53907 1.78516-.44921 1.25-.26954 1.16015-.08984 1.69922-.08984 1.96094-.26954 1.25-.08984h.53906l.625-.08984h.89063l2.14453-.17969 2.41015-.17969 2.58985-.08984 1.69531.17969 1.60938.08984 1.42968.35938 1.16016.71875 1.875.98828 1.16015 1.52734.26563.71484.6289.08985.35548.89844.53515.53906.53516 1.52734 1.07422.35938h.53515l-.80469.53515.08985 1.70703.71484 2.69532.89063.80468.89453.98829.71484 1.2578 1.78516.53907 1.51953-.17969.35547 1.34375 1.60937-.80469.98047-.53906.26953.26953.31641-.21484.21875-.14453.80078.44922.44922-.35938h.35547l.53515-.26953.53907-.71875.53515-.26953.625-.98828 1.16016.44922.83984.3711 1.39454.61718 1.6953-.17969h1.60548l1.78515.08985.17969-1.70704.53516-1.34375.80468.26954.4922.84765.40233.40625-.08984.53906v.35938l.71485.44922.71093-.26953h1.42969l.35938.98828.4453 1.25781.71485 1.34375 1.25.6289 1.69531.62891.71485-.17969.17969-.53906.98046-.08984.44922.35937.08594 1.25782-.26563.6289-.53515.17969v.53906l.71484.98438.26563.53906.98437.98828.80078 1.07813-.26562.35937-.08985.89844-.625 2.33203-.35546 2.0664-.08985 1.79298-.17969.71875-.08984.53906v1.4375l-.98047 1.88281-.35937 1.70703-.53516.89844-.80469 1.16797-.26562.53906 2.05469 1.2539.08593.35938-.35546.53906-.08985-.17968v.80859l.08985 1.4375-.44532.71484-1.07422.09375-.26562.71485.53515.89844.8047.71875 1.16015.80859 1.33984.26953.44531.35938-.35546.44921-1.78907-.08984-1.25-.44922-.71484-.71875-.625-.08984-.17578 3.58984-.1875 1.3086h89.35937V311.70313h-55.26953v49.08203l.76172.125 3.28906.54296 2.02344 2.83594v2.7539l2.35156.33204 2.34766.33203h4.05078l-1.3789 4.16016-2.02344.70703-2.02344.70312-.54297.34375-2.59375 1.6172-.1875.11718-2.02344-2.07813-.73046-2.74218-2.67188-2.07813-1.375-3.5-.0664-.08203-1.95704-2.67188 2.75-1.41796v-49.08204H294.42187v91.41407l.1172.03125.1328.01172.07422.07421.10547.04688.08985.0586.08593.05859.08985.0586.29687.29687.0586.08984.03125.11719.02734.11719.01563.13671-.03125.1172-.0586.08983-.0586.08594-.04296.10547-.04688.10156-.02734.1211v.14453l.17578.26953.14844.14844.07422.08594.07422.07421.04296.10547.0625.08985.0586.08593.04297.10547.0586.08985.04687.10156.04296.10547.0586.08594.11719.17968.07421.07422.0625.08594.0586.08984.04297.10547.0586.08985.05858.08593.0625.08985.0586.08984.04297.10156.11719.17969.07421.07422.0586.08594.07422.07421.08984.0586.10547.04687h.14844l.1328-.01562.13282.01562.10156-.04687.07422-.07422.04688-.10156-.01563-.13281v-.14844l-.04687-.10547-.02735-.11719-.04687-.10156-.02735-.1211-.04296-.10156-.0625-.08984-.04297-.10156-.04297-.10547-.03125-.11719-.01563-.13281-.01171-.13672.08593-.0586.0586-.08593.12109-.03125.04297.10547.01562.1328v.1172l.0586.10156.0586.08984.08983.0586.14844.14843.0586.08985.04296.10547-.01171.10156.08593.0586.10547.04687.08594.0586.08984.05858.07422.07422-.11719.02735-.10546.04687-.08594.0586-.07422.07421-.0586.08985-.0625.08594-.02734.12109-.04687.10156-.04297.10547-.03125.11719-.01172.13281-.01563.13281v.14844l.02735.11719.04687.10547.04297.10156.0586.08984.07421.07422.08985.0586.07422.07421.08984.0586.0586.08984.04296.10547.04688.10156.11719.03125.1328.01563h.14845l.11718-.03125.10547.04297.04297.10547.04688.10156.02734.1211L299.5 410l.02734.11719.03125.1211.02735.11718.10547.04297.10156.04687.13281-.01562.14844.14844.0625.08593.07422.07422.07031.07422.08984.0625.10547.04297.10156.04297.1172.03125.13671.01562.11719-.03125.07422-.07422.02734-.11718-.01172-.13282-.03125-.12109-.02734-.11719.04297-.10547h.11719l.08984.0625.11719.02735h.14843l.13282.01562h.14843l.13282.01563.1328-.01563h.14845l.1328-.01562.13282-.01172.13672.01172.11719-.02735.13281-.01562.1914-.0586-.05859.17579-.01562.1328-.02735.1211-.01562.13281-.0586.08594-.1328.01563-.10548.04687-.10546.04297-.1172.03125-.11718.02735-.26563.03125h-.14843l-.13281.01562-.07422.07422.05859.08594.14844.14843.11719.1797.07421.0703.08985.0625.08984.0586.08594.0586.08984.05858.10156.04297.10547.0625.10547.04297.08594.0586.10547.04687.10156.04297.17969.11719.0586.08984-.04298.10156-.04687.10547.01562.13281.22266.22266.0586.08985.04296.10156.03125.1211.04297.10155.01563.13282.03125.11718.01171.13672.03125.11719.14844.14844.10156.04297.10547.04296.1172.03125.1328.01563.13672.01563h.11719l.11719-.03125.08984-.0586.04297-.10547.04688-.10156.04296-.10547.03125-.11719.01172-.1328v-.14845l-.01172-.1328-.01562-.13282-.03125-.11719-.04297-.10547-.04688-.10547-.04296-.10156-.04297-.10547-.01563-.13281.01563-.13281.02734-.11719.03125-.11719.02735-.1211.04687-.10155.08984-.0586.08594-.0625.07422-.07422.08984-.05859.22266-.22266.0586-.08593.07421-.07422.11719-.17969.0586-.08594v-.14844l-.07423-.07421-.10156-.04688-.10547-.04297-.10156-.04297-.0586-.08984-.04687-.10547-.02734-.11719.08984-.05859.11719-.03125.10156-.04297.17969-.11719.14844-.14843.01172-.13282-.01172-.10546-.08985-.0586-.1328.01563h-.14845l-.1328.01562-.13282-.01562-.1211-.03125-.08593-.0586-.07422-.07422-.0586-.08984-.0625-.08594-.11718-.17969-.0586-.08593.03125-.1211.08594-.05859.1211-.03125.05859-.08594v-.1211l-.03125-.11718-.0586-.08984-.05859-.08594-.04687-.10547-.02735-.11719-.01562-.1328.0586-.08985.07421-.07422.08984-.0586.1172-.17968.07421-.07422.0586-.08594.14843-.14844.1211-.03125.1328-.01562.13282.01562.07422.07422.04297.10547.01562.13281-.03125.1172-.11719.03124-.1328.01172-.14844.14844-.04297.10547-.04688.10156-.02734.1211-.03125.11718v.14844l.03125.11719.04297.10546.05859.08985.07422.07031.07422.07422.11719.03125.12109.02734.11719-.02734.1328-.01563h.1172l.08984.0586.07422.07422.04687.10546.0586.08594.10156.04688.13281.01562.10547.04297.08594.0586-.01172.10546-.07422.07422-.17969.11719-.05859.08984-.08984.0586-.07032.07422-.07421.07421-.0625.08985-.02735.11719-.01562.1328.01562.13282-.01562.13281v.14844l.01562.13281.02735.1172.03125.12108.07421.07422.08985.0586.08594.0586.08984.05858.11719.03125v.08594l-.10157.04688-.08984.0586-.26563.03124-.11718.02735h-.14844l-.10547.04296-.10156.04688-.0586.08984-.0625.23438-.01171.13281-.03125.1211-.01563.1328v.29298l-.01172.1328.01172.13673.01563.1328.1328.01563.13282.01172.1211.03125.08593.0586.07422.07421.04688.10547.04296.10157.01563.1328v.44532l-.01563.13281v.44532l.03125.26562.02735.11719.01562.13281.03125.11719.08594.21094.03125.26562v.14844l-.03125.11719-.02734.11718-.03125.1211-.02735.11719-.03125.11718-.03125.1211-.01171.1328-.01563.13282.08984.0586.1172-.03125.10155.01562.04688.10547-.03125.26562v.44141l-.04297.10547-.04688.10547-.04296.10156-.04297.10547-.0586.08594-.03125.12109-.04296.11719-.03125.11719-.01563.1328.01563.13282.05859.08984.10547.04688.08594.0586.05859.08593-.01172.13672-.03125.11719-.04297.10156v.44531l-.01562.13281v.14844l-.03125.11719-.04297.10547-.02735.11719-.04687.10546-.04297.10157-.03125.12109-.02734.11719-.03125.13281-.03125.11719-.02735.11719-.04297.10546-.03125.1172-.03125.12108-.01171.13282-.01563.13281v.29688l.02734.11718v.14844l.04688.39844.02734.11719.0586.08984.12109.03125h.14844l.13281-.01563.0586.08985v.11719l-.0586.08984-.08984.0586-.10157.04296-.10546.04688-.08985.05859-.08594.0586-.13671.01562-.1172-.03125-.1328-.01563-.10157.04688-.0625.08594-.01172.13671-.01562.13282-.03125.11719-.02735.11718-.01562.13281-.03125.1211v.29687l.01563.13282.03125.11718v.14844l.01171.13281v.14844l-.02734.11719-.04688.10156-.02734.1211-.03125.11718-.0586.08985-.07421.07421-.10156.04297-.10547.04688-.11719.02734-.1211.03125-.10156-.04687.0586-.08594.10547-.04688.02734-.11718.03125-.11719.02734-.1211.03125-.11718v-.14844l.01563-.13281-.03125-.11719-.04297-.10547-.10547.01563-.07422.07422-.10156.04296-.08984.0625-.07422.07422-.04297.10157-.01563.1328-.03125.1172L304.25 426l-.03125.11719-.02734.11719-.03125.12109-.02735.11719-.03125.11718-.04297.10547-.08984.0586h-.08984l-.1172-.03125-.03124-.08594.01562-.13672-.03125-.11719v-.14844l-.01171-.1328v-.14844l-.0625-.23438-.02735-.1211-.04297-.10156-.04687-.10546-.0586-.08594-.05859-.08985-.04297-.10546-.0625-.08594-.14844-.14844-.0703-.07422-.10548-.04687-.10547-.04297-.10156-.04297-.29687-.29688-.08985-.07421-.08594-.0586-.10546-.04297-.08985-.0625-.08594-.0586-.10546-.04296-.08985-.0586-.08594-.0625-.07421-.0703-.10547-.04688-.08594-.0586-.10547-.04296-.08984-.0625-.10156-.04297-.10547-.04297-.08594-.0586-.10547-.04687-.10547-.04297-.10156-.04687-.08985-.0586-.10156-.04297-.10547-.04296-.08984-.0625-.11719-.02735-.13281-.01562-.13281.01562H299.75l-.13281.01563-.11719-.03125-.08984-.0586-.07422-.07422-.08985-.05859-.10156-.04688h-.14844l-.12109-.02734-.10156-.04297-.07422-.07422-.11719-.17968-.08984-.0586-.10156-.04297-.08985-.0625-.10547-.04296-.08984-.0586-.08594-.0586-.10547-.04687-.0586-.08594-.05858-.08984-.04297-.10547-.04688-.10156-.07422-.07422-.08594-.0586-.07421-.07421-.08985-.0586-.22265-.22265-.04297-.10547-.03125-.26563.10547-.04296h.14453l.10547.04296.07421.07422.08985.0586.08594.0586.10546.04687.08985.05859.14844.14844.0703.07422.14845.14843.0625.08594.07421.07422.08594.0586.07422.07421.08985.0625.08984.0586.08594.05859.26953.17578.10156.04688.10547.04296.10156.04297.04688-.07421.05859-.08594.07422-.07422.07031-.07422.10547.04297.07422.07422.0586.08984.04296.10156.04688.10547.04296.10547.1211.02735.11719-.02735.07421-.08984.04297-.10547.0586-.08985.07422-.07421.10546-.04297.1172-.02735.1328.01172.08985.0586.14844.14843.05859.08985.04297.10547.04687.10156.04297.10547.04297.10156.10547.04688.10547.04296.13281.01563.08594-.0586.0586-.08984.07421-.07422.10547-.04297.11719.02735.10547.04687.10156.04297.10547.04297.10156.04688.17969.11718v.11719l-.01563.13281.01563.13281.01562.13672.0586.08594.10156.04688.1211.02734.11718.03125h.14844l.11719-.03125.05859-.08984.17969-.1172.05859-.08983.07422-.07422.0586-.08594.11718-.17969.17969-.11719.11719.03125.08984.0586.04297.07422-.01563.1328v.1172l.08985.05859h.14843l.13282-.01563.1328-.01171.26563-.03125.10547-.04297.11719-.03125.1211-.02735.07421-.07421.07031-.07422.0625-.08985-.01562-.10547-.04688-.10156-.10156-.04297-.10547-.01562-.11718.02734-.26563.03125h-.14844l-.07421-.07422-.08985-.0586-.11719-.03124-.11718-.02735-.13282-.01562h-.14843l-.13282.01563h-.29687l-.10547-.04688-.14844-.14844-.04297-.10156-.05859-.08984.22266-.22266.08593-.0586.10547-.04296.11719-.03125.13281-.01563.13281.01563.13672.01562.10157.04297.1328-.01172.08985-.0625.10156-.04297.0625-.08984-.04687-.10156-.08984-.0586-.1172-.03125-.10155-.04296-.0586-.08985-.0625-.08984v-.11719l.01563-.13281.10547-.04688.07421-.07031v-.1211l-.08984-.05859-.03125-.11719.08985-.05859.07421-.07422.04297-.10547.0586-.08984.04687-.10156.01563-.13281v-.14844l-.04688-.10547-.04297-.10156-.08984-.0586-.13281-.01562-.10157-.04297-.13671-.01563-.1172-.03125h-.4453l-.13282-.01562-.13281-.01172-.13281-.01563-.11719-.03125h-.14844l-.13281-.01562-.13281-.01172-.26563-.03125-.1211-.04297-.08593-.0586-.07422-.07421v-.14844l.01172-.13281.10547-.04688.10156-.04296.13281-.01563h.15235l.13281-.01562h.29297l.1211.03125.10156.04296.08984.0586.23438.0625.12109-.04688.08984-.05859.10156-.04297.13282-.01562.10547.04296.10156.04688.13281.01172.1211-.02735h.14453l.12109-.03125.11719-.02734.10547-.04687.07421-.07422.08594-.0586.14844-.14843.0586-.08594.04687-.10547.02734-.11719.01563-.10547-.10156-.04296-.08985-.0586-.11719-.03125-.10546-.04297-.08985-.0625-.07422-.08594-.07422-.07421-.10156-.04297-.10547-.04688-.10156-.04297-.0586-.08984-.04687-.10156-.08594-.21094-.0625-.08594-.05859-.08984-.07422-.07422-.08594-.0586h-.26953l-.11719.03126-.08984.05859-.10156.04297-.13281.01562-.10547-.01562-.02735-.11719-.0625-.08984-.11718-.03125-.10157-.04297-.14843-.14844-.03125-.11719-.01563-.10546.07422-.07422.17969-.1172.11719-.02733.11718-.03125.13672.01562.10156.04297.10547.04297.10156.04687.10547.04297.1172.03125.1328.01563.1172.02734.1328.01563.10547-.01563.08985-.0586-.07422-.07421-.10547-.04297-.07422-.07422-.07422-.08984-.14844-.14844-.08593-.0586-.08985-.05859-.07422-.07422-.08984-.0586-.10156-.04687-.1211-.02734-.10156-.04688-.10547-.04296-.11719-.03125-.10156-.04297-.1211-.03125h-.14843l-.11719.03125-.10546.04297-.08594.0625-.17969.11718-.08594.0586-.08984.0586-.10547.04687-.08594.05859-.10547.04297-.10156.04297-.10547.04687-.07422.07422-.05859.08985-.0586.08593-.04687.10547-.0586.08594-.07421.07422-.13281-.01172-.1172-.03125h-.11718l-.07422.07422-.08984.0586-.07422.07421-.08984.0586-.08594.05859-.10547.04687-.10156.04297-.13672.01563-.10156-.04297-.14844-.14844-.10547-.04688h-.08594l-.10547.04688-.10156.04297-.1211.03125-.11718-.03125-.07422-.07422v-.11719l.03125-.1211.07422-.0703.0586-.08985.07421-.07422.11719-.03125.10547-.04296h.29297l.13281-.01563.13672-.01563.10156-.04296.08985-.0586.10156-.04687.08984-.0586.13281-.01171.08985.05859.13281.01172.08984-.0586.08594-.05859.10547-.04297.08984-.0586.08594-.0625.08985-.05859.14843-.14843.0586-.08594.05859-.08985.10547-.04296.13281-.01563.11719.02735.1211.03125.05859-.0586.05859-.08984.03125-.26563.02734-.11719.10547.01172.13281.01563.10157-.04297.08984-.0586.0586-.08984.07421-.07422.0586-.08984.04687-.10156.01172-.13281-.01172-.13282-.04687-.10547-.14844-.14843-.0586-.08985-.05859-.08594-.04297-.10546v-.44532l.01563-.1328v-.14845l.01172-.1328-.0586-.0586-.08984.0586-.10156-.04298-.17969-.11719-.08594-.05859-.0625-.08984-.0586-.08985-.07421-.07421-.08594-.0586-.1211.03125-.10155.01172-.10547.04688-.08594.05859-.10547.04297-.14844.14844-.08984.05859-.08594.0586-.08984.0625-.10547.04296-.13281.01563v-.1211l.10547-.04297.11718-.03125.07422-.0703.04297-.10548v-.14844l-.02734-.11718-.14844-.14844-.13281-.01563h-.14844l-.11719.03125-.10547.04297-.10156.04297-.08984.0625-.11719.02735-.07422-.07422.01172-.13281-.04297-.10157-.04297-.10547-.08984-.05859-.11719.02734-.1211.03125-.11718.03125-.10156.04297-.1211.03125-.10156.04297-.10547.04297-.08984.0586-.10156.01562v-.11719l.01562-.13281-.0586-.08985-.07421.04297-.14844.14844-.0586.08985-.07421.07421-.04688.10547-.04296.10156-.07422.07422-.0586.08985-.07422.07422-.05859.08593-.07422.07422-.08984.0625-.07422.07031-.07422.07422-.10156.01563-.13281.01562-.10547-.04296v-.1211l.14843-.14844.04297-.10156.0586-.08984.04687-.10156.04297-.10547.0586-.08985.03124-.11719.04297-.10156.03125-.1211.02735-.11718.04687-.10547.04297-.10156.04297-.10547.07422-.07031.08984-.0625.08985-.0586.10156-.04296h.29687l.26563-.03125.10547-.04297-.07422-.07422-.11719-.03125-.10547-.04297-.08984-.0586-.10156-.04687-.08985-.0586-.10156-.04296-.10547-.04297-.08984-.0625-.08594-.0586-.10547-.04296-.10156-.04297-.1211-.03125-.11718-.03125-.10157-.04297L297.5 410.25l-.10156-.04297-.08985-.0586-.04296-.10546-.01563-.13281.10156-.04297.13281-.01563.13672.01563.13282-.01563.10156-.04297.0586-.08984.01562-.10547-.08985-.0586-.07421-.07421-.10157-.04297-.08984-.0586-.14844-.14843-.04297-.10547-.01562-.13281v-.29297l-.0586-.08985-.08984-.05859-.07422-.07422-.04297-.10547-.03125-.11718-.0586-.08985-.07421-.07422-.11719-.02734-.07422-.07422-.08984-.0586-.08984-.0625-.08594-.05859-.07422-.07421-.0586-.08594-.04687-.10547-.08594-.0586-.14843-.14843-.19532-.0586-.1328.01563-.10157.04297-.07422.07422-.04688.10156-.04296.10547-.0586.08984-.0586.08594-.29687.29687-.08984.0586h-.08594l-.0625-.08594-.04297-.10547.03125-.11719.0586-.08984.02734-.11719-.01172-.13281-.08984-.0625-.10547.04688-.11719.02734-.11719.03125-.26953.17578-.10156.04688-.11719.02734-.10546.04687-.08985.0586-.10156.04297-.0586-.08594-.04687-.10547.01563-.13281.04687-.10547.07031-.07422.07422-.07031.0586-.08985v-.14843l-.04297-.10547h-.23829l-.10156.04687-.03125.11719-.02734.11719-.03125.1211-.07422.04296-.13281.01563-.07422-.04688-.04297-.10156-.04297-.10547-.04687-.10156-.04297-.10547-.1211.03125-.10156.04297-.13281.01562-.11719.03125-.10547.04297-.08984.0586-.10156.04687-.1211.02734-.13281.01563-.10156-.04297-.0586-.08985-.04687-.10546-.04297-.10157-.04297-.10546v-.1172l.0586-.08984.08593-.05859.17969-.11719.10156-.04687.10547-.04297.10547-.0586.10156-.04296.08985-.0625.10156-.04297.10547-.0586.10156-.04687.08984-.0586.10547-.04296.10156-.04297.08985-.0625.10156-.04297.13672-.01563.11719.03125.10156.04297.1211.03125.10156.04297.10546.04688.10157.04296.10547.04297.10156.04688.10547.04297.10156.04297.10547.04687.08594.0586.10546.04296.1172.03125.10546.04297.10156.04688.08985.0586.10547.04296.10156.04297.10547.04687.11719.02735.10156.04687.1211.02735h.14843l.08594-.0586.01562-.10156.0586-.08984-.02735-.1172-.07422-.07421-.11719-.17969-.07421-.07422-.08985-.07421-.17969-.1172-.08593-.05859-.10547-.04296-.10156-.04688-.26954-.17578-.05859-.08985-.07422-.07421-.0586-.08985-.04296-.10156-.03125-.11719-.01563-.13672v-.5625l-.01171-.1328-.01563-.13282-.03125-.11719-.01562-.13281-.01172-.13281-.03125-.1211-.22266-.22265-.0586-.08594-.01562-.10547.03125-.11719.13281-.01562v-91.41406H172.9922v1.45312l-.0586.23438-.35156 1.05078-.17187.52343-.1172.34766-.17577.41016-.11719.17187-.23438.29297-.23046.0586h-.35157l-.11718.05859-.23047.40625v.29297l.11719.17578.23046.23047.1172.23437.64062.75781.29297.46485.17578.23437.23047.35156.23437.34766.64063.8164.17578.46485.17187.41016.11719.69531.17578.46875.11719 1.39844.0586.46484v.875l.11718 1.04688v4.78125l-.0586.46484-.35156 1.28125-.17578.52344-.11328.41015-.35156.9297L172.93359 336l-.23437.58203-.11719.17578-.17187.34766-.17578.40625-.35157.8164-.0586.29297-.11327.29297-.11719.28906-.0586.17579-.11718.875-.0586.40625-.05859.11718-.0586.17579-.05859.17187-.23047.52734-.11718.17188v.23437l-.11719.23438-.0586.17187-.17577.58594v.28906l-.0586.17579v.29296l-.0586.11329-.05859.52734v.17187l-.05468.23438v2.6211l-.17578.8164-.1172.17578-.17577.23438-.1172.17187-.11327.23438-.58594.93359-.23047.28906-.29297.46485-.17578.23437-.28906.35156-.35156.69922-.11328.23047-.17579.41016-.17578.23046-.40625.52735-.8164.69922-.29297.17187-.28906.23438-.17579.11719-.17578.17578-.52344.40625-.52734.17578-.17187.17578-.23438.05469-.64062.17578h-.75782m12.21094 31.02344l-1.07422.44921.35938.89454 1.25-.71485.44531-.53906-.98047-.08985"/><path fill="#d3d3d3" fill-opacity="0" fill-rule="evenodd" d="M201.50781 416.59766h-.89453l.44922.6289.98047.35938.80469-.08985.4453-.98828-.17577.08985-.71485-.35547-.89453.35547m154.6211 59.0703l-.0586-.52343v-.29297l.11328-.29297.0586-.23046.46875-.46875h.11328l.11719-.11329.11718-.05859h.17579l.23437-.0586h.34766l.23437.0586.11719.0586.23047.17187.0586.17578.11718.58203v.29297l-.11719.17578-.17187.28906-.17579.17579-.52734.52343-.23047.23438-.11719.0586h-.17578l-.11718-.0586-.40625-.29297-.17579-.11719-.11718-.0586-.0586-.11327-.05468-.1172m6.64062-10.95702l-.0586-.17188v-1.10937l.0586-.17188.17578-.0586.17188-.05858h.17578l.23437-.0586.1172.0586.05858.69921-.05859.17188-.11719.17578-.11718.0586-.23438.52343-.11328.0586h-.23438l-.05859-.1172m9.61328-14.39062l-.11719-.17578v-.69922l.29297-.875.1172-.17187.17577-.35156.11328-.23047.1172-.29297.35155-.75781.1172-.23047.17187-.23438h.17578l.11719-.0586h.64062l.11719.0586.23437.23438.17188.11328.35156.29297.11719.11718.11328.17579v.11328l.11719.05859.11718.11719v.69922l-.05859.17578v.23047l-.0586.17578-.34765 1.05078-.11719.23047-.11719.23437-.11718.0586-.23047.23437-.64063.28906h-.875l-.41015-.11718-.64063-.46485"/><path fill="none" stroke="#bebebe" stroke-linecap="round" stroke-linejoin="round" stroke-miterlimit="10" stroke-width=".5" d="M467.95703 311.69531H144.02734v168.625h323.9297v-168.625"/><g clip-path="url(#a)"><path fill="#fff" fill-opacity="0" fill-rule="evenodd" d="M144 475.89063v4.4375h.0039H144V311.67188h.0039H144v164.21875"/></g><g clip-path="url(#b)"><path fill="#fff" fill-opacity="0" fill-rule="evenodd" d="M144.0039 480.32813V311.67188h31.0625v120.46484l-4.4375 3.29687-.47265.51172-3.96484 1.95313-2.29688 2.48437-2.14062 2.76563-1.64453 1.67187-1.27344 4.4414-.89063 4.4375 1.17969 4.4375.70313 4.4375 1.92578 1.85157 4.4375.60156 4.4375-.45703 4.4375-.30078 4.4414-1.47656 4.4375 1.64062 4.4375-.67968 1.5039-1.1797-1.5039-3.26952-1.82812-1.16797-2.60938-1.8125-1.99219 1.8125-2.4453 3.61328-1.875-3.61328.14452-4.4375.94532-4.4375.78515-1.83203 2.05078-2.60938 2.38672-1.5625 3.79688-2.875-.39453-4.4375-3.40235-2.63672-4.4375 1.07422-4.4414-2.2461V311.67189h26.6328v90.96484l-2.20312 2.23828 2.20313 2.95313 4.4375-1.37891 1.6211-1.57422-1.6211-2.01172-4.4375-.22656v-90.96485h13.3164v97.89454l-4.4414.83984-3.39453 3.34766 2.09375 4.4375 1.30078 1.17187 3.26172-1.17187 1.17969-.0586 4.08984-4.3789-4.08984-4.1875v-97.89454h22.1914v90.17188l-3.03125 3.03125.1836 4.4414 2.84765 3.81641 4.4375-2.22265 3.94922 2.84375-3.94922.91796-4.4375-.4453-4.4414 3.07421-1.60938.89063-2.82813.4453-4.39843 3.9922.58984 4.4414-.6289 1.45313-2.44532 2.98437-1.58594 4.4375-.40625.21094-.78125-.21094-3.65625-.96875-4.4414.23828-1.53125.73047-2.90625 1.26172-4.4375.82422-4.4375 1.40625-.9961.94531.9961 3.85547.11328.58203 4.32422 4.36328 4.4375-.20312.4336.28125 2.0664 4.4375-2.5 1.53125-2.83594 2.90625-.82422 4.4375 2.125 4.4414 1.53516.53907 2.22656-.53906 2.21094-.58204 4.4414-2.28515 2.35938-1.57422 2.07813-2.34375 1.78906-2.09375 2.64844-3.875.32421-.5625-.32422-.66797-.66796-3.76953.66797-1.32422 2.76562-3.11719 1.125-4.4375.54688-.29687 2.91015-4.14063-2.91016-3.01172-2-1.42578 2-.96484 4.4375-.04688 2.6172 1.01172 1.82421 1.72266 4.4375 1.92187 4.4375-1.33593 2.39063-2.3086 2.04687-3.23828 4.4375.17969 4.4414.66797 3.35157 2.39062 1.08594 1.48438.77734 2.95312.88281 4.4375 2.77735 3.1289 4.4375.91407L276 440.38281l1.15234-.59375 4.4375-1.39453 2.58985-2.44922 1.84765-.34375 4.05079-4.09375.38671-4.40625.03516-.03125 1.32813-4.4414-1.36329-1.33594-4.4375-1.75-4.4375-.73438-4.4375-.17187-4.4414-.0039-4.4375.10546-4.02735 3.89063-.41015.48046-4.4375 1.88672-4.4414-.77343-.98048-1.59375.98047-3.51172 4.4414 1.89062 2.875-2.8164 1.23048-4.4375.33203-4.17579.13281-.26171-.13281-.22657-2.41406-4.21484-2.02344-1.50781-4.4414.83984-.67188.66797-3.76563 3.22266-1.21094 1.21875-3.22656 3.92578-2.79687-3.92578-1.5-4.44141-.14063-.14063-4.4375-2.89062v-90.17188h13.3125v39.66797l-.1836.27735.1836.36719.25781-.3672-.2578-.27734v-39.66796h62.13671V451.0664l-4.4375.05859-3.26953 2.57422-1.16797 1.07812-4.4375 1.82813-2.05469 1.53125 2.05469 1.3086 4.4375 2.40234 4.4375.41796 4.4375-.25 4.4414-1.02734 3.76173-2.85156-.81641-4.4375-2.94531-2.01172-4.44141-.6211V311.67189h22.1914v136.08984l-2.9414 1.5-1.4961.48047-4.4375 2.30469-1.0664 1.65234-.82422 4.4375 1.89063.82812 4.4375 1.76172 3.58593-2.58984.85157-1.09766 4.4414-2.72656.79688-.61328.17187-4.4375-.96875-.32031-4.4414-1.1797V311.67189H463.5625v140.72265l-1 1.30469-3.4375 1.89453-4.4414.41406-2.39844 2.1289-2.03907 1.94923-3.17187 2.48828 3.17187 3.19531 4.4375.54688 4.44141-.97657v8.21875l-2.23438 2.33204 2.23438 1.71875 2.00781-1.71875-2.00781-2.33204v-8.21875l2.64453-2.76562-.09375-4.4375 1.88672-3.4336 1.1211-1.0039-1.1211-1.30469V311.67188h4.4336v168.65625H144.0039"/></g><path fill="#50fcfc" fill-rule="evenodd" d="M159.125 458.13672l-1.17969-4.4375.89063-4.4375 1.27344-4.4414 1.64453-1.67188 2.14062-2.76563 2.29688-2.48437 3.96484-1.95313.47266-.51172 4.4375-3.29687v6.1211l-4.4375.01171-3.12891 2.11328-1.3086.84375-3.1289 3.59375-1.3086 3.76953-.29687.67188-1.95703 4.4375 2.2539 3.96094 2.88282.47656 1.55469 1.54687 1.35156-1.54687 3.08594-1.85938 1.35547-2.57812 2.90625-4.4375.17578-.07031 3.21875-4.3711 1.22265-3.16406 1.9375-1.27344-1.9375-1.29297-4.4414-.83203v-6.1211l4.4414 2.2461 4.4375-1.07422 3.40235 2.63672.39453 4.4375-3.79688 2.875-2.38672 1.5625-2.05078 2.60938-.78515 1.83203-.94532 4.4375-.14453 4.4375 1.875 3.61328 2.44531-3.61328 1.9922-1.8125 2.60937 1.8125 1.82812 1.16797 1.5039 3.26953-1.5039 1.17969-4.4375.67968-4.4375-1.64062-4.4414 1.47656-4.4375.30078-4.4375.45703-4.4375-.60156-1.92578-1.85156-.70313-4.4375"/><path fill="#00e8fc" fill-rule="evenodd" d="M161.7539 457.66016l-2.2539-3.96094 1.95703-4.4375.29688-.67188 1.30859-3.76953 3.1289-3.59375 1.3086-.84375 3.1289-2.11328v5.3789l-2.98827 1.17188-1.44922 3.70703-.07813.73438.07813.32031.1289-.32031 4.3086-3.39453 4.4375-.61328.3203-.4336-.3203-.60937-4.4375-.5625v-5.3789l4.4375-.01173 4.4414.83203 1.9375 1.29297-1.9375 1.27344-1.22265 3.16406-3.21875 4.3711-.17578.0703-2.90625 4.4375-1.35547 2.57813-3.08594 1.85938-1.35156 1.54687-1.5547-1.54687-2.8828-.47656"/><path fill="#00d4fc" fill-rule="evenodd" d="M166.1914 449.58203l-.07812-.32031.07813-.73438 1.44922-3.70703 2.98828-1.17187 4.4375.5625.3203.60937-.3203.4336-4.4375.61328-4.3086 3.39453-.1289.32031"/><path fill="#50fcfc" fill-rule="evenodd" d="M197.26172 444.23828l-.9961-3.85547.9961-.94531 4.4375-1.40625 4.4375-.82422 2.90625-1.26172 1.53125-.73047v4.32032l-1.45703.84765-2.46875 4.4375 3.92578 2.76563 1.57422 1.67578 2.27734 4.4375-3.85156 4.13281-.40234.30469.40234.5664 1.36328-.5664 3.07813-2.3086 1.15234-2.1289 3.28516-2.91797.60937-1.51953-.60938-1.14844-3.26171-3.29297-1.17578-1.32031-3.07813-3.11719-1.36328-.84765v-4.32032l4.4414-.23828 3.65625.96875.78125.21094.40625-.21094 1.58594-4.4375 2.44531-2.98437.62891-1.45313-.58984-4.4414 4.39844-3.9922 2.82812-.4453 1.60938-.89063 4.4414-3.07422 4.4375.44531 3.94922-.91796-3.94922-2.84375-4.4375 2.22265-2.84766-3.8164-.18359-4.44141 3.03125-3.03125v2.11328l-.91797.91797.69531 4.4414.22266.29688.52734-.29687.83594-4.44141-1.36328-.91797v-2.11328l4.4375 2.89063.14063.14062 1.5 4.4414 2.79687 3.92579v2.05078l-4.4375.76562-4.4375.84375-1.6211 1.28907-2.8203 1.73828-4.4375.28906-2.65625 2.41016.64843 4.4414 2.00781 1.83203 4.4375-.14062 4.44141 2.09765.99219.64844 3.44531 2.45313 3.91406-2.45313.52344-.28906 3.71875-4.14844.30078-4.4414-1.60156-4.4375-2.41797-2.89844v-2.05078l3.22656-3.92578 1.21094-1.21875v7.78515l-.61719 2.3086.6172 1.90234 4.03515-1.90234-4.03516-2.3086v-7.78515l3.76563-3.22266.67187-.66797 4.4414-.83984v2.42969l-4.4414 1.35937-2.32812 2.16016-1.19532 4.4375 3.52344 3.125 3.91406 1.3125.52735.3203.32812-.3203 2.7539-4.4375.13673-4.4375-3.21875-3.51954v-2.42968l2.02344 1.50781 2.41406 4.21484.13281.22657-.13281.26171-.33203 4.17579-1.23047 4.4375-2.875 2.8164-4.4414-1.89062-.98048 3.51172.98047 1.59375 4.4414.77343 4.4375-1.88671.41016-.48047 4.02735-3.89063v.82422l-3.17578 3.0664-1.26172 1.47657-3.8789 2.96484 3.8789 3.50781.58203.9297 2.01172 4.4375 1.58594 4.4375.2578.29296 4.4375 1.03125 1.07813-1.32422 3.36328-1.73437 4.08594-2.70313.35156-.10937 4.4375-.83594 3.45704-3.49219.80468-4.4375-2.46094-4.4414-1.80078-1.00782-4.4375-1.71875-4.4375.23829-4.4414-.31641-4.4375-.26172v-.82422l4.4375-.10547 4.4414.0039 4.4375.17188 4.4375.73438 4.4375 1.75 1.36329 1.33594-1.32813 4.4414-.03516.03125-.38671 4.40625-4.05079 4.09375-1.84765.34375-2.58985 2.44922-4.4375 1.39453-1.15234.59375-3.28906 4.04297-4.4375-.91406-2.77735-3.1289-.8828-4.4375-.77735-2.95313-1.08594-1.48438-3.35156-2.39062-4.4414-.66797-4.4375-.17969-2.04688 3.23828-2.39063 2.3086-4.4375 1.33593-4.4375-1.92187-1.82422-1.72266-2.61719-1.01172-4.4375.04688-2 .96484 2 1.42578v2.44141l-1.10546.57031 1.10547.78516.55468-.78516-.55469-.57031v-2.4414l2.91016 3.01171-2.91016 4.14063-.54687.29687-1.125 4.4375-2.76563 3.11719-.66796 1.32422.66797 3.76953.32421.66797-.32422.5625-2.64843 3.875-1.78906 2.09375-2.07813 2.34375-2.35938 1.57422-4.4414 2.28515-2.21094.58204-2.22656.53906-1.53516-.53906-2.125-4.44141.82422-4.4375 2.83594-2.90625 2.5-1.53125-2.0664-4.4375-.4336-.28125-4.4375.20312-4.32422-4.36328-.11328-.58203m4.4375-36.41015l-2.20313-2.95313 2.20313-2.23828 4.4375.22656 1.6211 2.01172-1.6211 1.57422-4.4375 1.3789"/><path fill="#00e8fc" fill-rule="evenodd" d="M210.57422 447.58594l-3.92578-2.76563 2.46875-4.4375 1.45703-.84765 1.36328.84765 3.07813 3.11719 1.17578 1.32031 3.26172 3.29297.60937 1.14844-.60938 1.51953-3.28515 2.91797-1.15234 2.1289-3.07813 2.3086-1.36328.5664-.40234-.5664.40234-.30469 3.85156-4.13281-2.27734-4.4375-1.57422-1.67578"/><path fill="#50fcfc" fill-rule="evenodd" d="M209.27344 418.1914l-2.09375-4.4375 3.39453-3.34765 4.4414-.83984v.66015l-4.4414 1.88281-1.66797 1.64454 1.66797 2.47265 4.4414 1.21875 3.44532-3.6914-3.44531-3.52735v-.66015l4.08984 4.1875-4.08984 4.3789-1.1797.0586-3.26171 1.17187-1.30078-1.17187"/><path fill="#00e8fc" fill-rule="evenodd" d="M210.57422 416.22656l-1.66797-2.47265 1.66797-1.64454 4.4414-1.8828v1.09374l-3.73437 2.4336 3.73438 2.54296 2.375-2.54296-2.375-2.4336v-1.09375l3.4453 3.52735-3.4453 3.6914-4.44141-1.21875"/><path fill="#00d4fc" fill-rule="evenodd" d="M215.01563 416.29688l-3.73438-2.54297 3.73438-2.4336v1.09766l-2.05079 1.33594 2.05078 1.39843 1.3047-1.39843-1.3047-1.33594v-1.09766l2.375 2.4336-2.375 2.54296"/><path fill="#00c4fc" fill-rule="evenodd" d="M215.01563 415.15234l-2.05079-1.39843 2.05078-1.33594v1.09375l-.37109.24219.3711.25.23437-.25-.23438-.2422v-1.09374l1.3047 1.33594-1.3047 1.39843"/><path fill="#00b8fc" fill-rule="evenodd" d="M215.01563 414.0039l-.3711-.25.3711-.24218.23437.24219-.23438.25"/><path fill="#00e8fc" fill-rule="evenodd" d="M226.32031 427.07031l-.64844-4.4414 2.65625-2.41016 4.4375-.28906 2.82032-1.73828 1.6211-1.28907 4.4375-.84375 4.4375-.76562v2.79297l-1.45704.10547-2.98047.22265-4.4375.875-4.03516 3.33985.82422 4.4414 3.21094 1.96875 3.77734 2.46875.66016.46875.7461-.46875 3.6914-2.03125 2.16016-2.40625.15625-4.4414-2.22656-4.4375-.08985-.10547v-2.79297L248.5 418.1914l1.60156 4.4375-.30078 4.4414-3.71875 4.14844-.52344.28906-3.91406 2.45313-3.44531-2.45313-.99219-.64844-4.4414-2.09765-4.4375.14062-2.00782-1.83203m2.00781 9.66016l-1.10546-.78516 1.10547-.57031.55468.57031-.55469.78516"/><path fill="#00d4fc" fill-rule="evenodd" d="M233.9961 427.07031l-.82423-4.4414 4.03516-3.33985v1.54688l-2.16797 1.79297 1.91797 4.4414.25.15235 4.4375 3.59375 4.4375-3.07813.59766-.66797.01953-4.4414-.61719-1.21094-4.4375-.08985-4.4375-.49218v-1.54688l4.4375-.875 2.98047-.22265 1.45703-.10547.08984.10547 2.22657 4.4375-.15625 4.4414-2.16016 2.40625-3.6914 2.03125-.7461.46875-.66016-.46875-3.77734-2.46875-3.21094-1.96875"/><path fill="#00c4fc" fill-rule="evenodd" d="M236.95703 427.07031l-1.91797-4.4414 2.16797-1.79297v1.54687l-.29687.2461.29687.65625.9961 3.78515 3.4414 2.84375 3.71484-2.84375-3.71484-3.77734-3.44531-.66406-.99219-.2461v-1.54687l4.4375.49219 4.4375.08984.61719 1.21094-.01953 4.4414-.59766.66797-4.4375 3.07813-4.4375-3.59375-.25-.15235"/><path fill="#00e8fc" fill-rule="evenodd" d="M236.98438 409.3164l-.69532-4.4414.91797-.91797 1.36328.91797-.83594 4.4414-.52734.29688-.22266-.29687"/><path fill="#00b8fc" fill-rule="evenodd" d="M237.20703 423.28516l-.29687-.65625.29687-.2461.99219.2461 3.44531.66406v1.19531l-2.35156 2.58203 2.35156 1.9414 2.53516-1.9414-2.53516-2.58203v-1.19531l3.71484 3.77734-3.71484 2.84375-3.4414-2.84375-.9961-3.78515"/><path fill="#00a8fc" fill-rule="evenodd" d="M241.64453 429.01172l-2.35156-1.9414 2.35156-2.58204v1.19922l-1.25781 1.38281 1.25781 1.03906 1.35938-1.03906-1.35938-1.38281v-1.19922l2.53516 2.58203-2.53516 1.9414"/><path fill="#009800" fill-rule="evenodd" d="M241.64453 428.10938l-1.25781-1.03907 1.25781-1.38281v1.19531l-.16797.1875.16797.13672.17969-.13672-.17969-.1875v-1.19531l1.35938 1.38281-1.35938 1.03906"/><path fill="#00ac00" fill-rule="evenodd" d="M241.64453 427.20703l-.16797-.13672.16797-.1875.17969.1875-.17969.13672"/><path fill="#fff" fill-opacity="0" fill-rule="evenodd" d="M250.51953 415.88281l-.61719 2.3086.6172 1.90234 4.03515-1.90234-4.03516-2.3086"/><path fill="#50fcfc" fill-rule="evenodd" d="M250.51953 351.98438l-.1836-.3672.1836-.27734.25781.27735-.2578.36719"/><path fill="#00e8fc" fill-rule="evenodd" d="M254.95703 416.8789l-3.52344-3.125 1.19532-4.4375 2.32812-2.16015 4.4414-1.35938v2.26172l-2.35156 1.25782-2.08984 2.54687-.94531 1.89063.94531.83984 4.4414 1.22656 1.3711-2.0664-.21875-4.4375-1.15234-1.25782v-2.26171l3.21875 3.51953-.13672 4.4375-2.7539 4.4375-.32813.3203-.52735-.3203-3.91406-1.3125"/><path fill="#00d4fc" fill-rule="evenodd" d="M254.95703 414.59375l-.94531-.83984.94531-1.89063 2.08984-2.54687 2.35157-1.25782 1.15234 1.25782.21875 4.4375-1.3711 2.0664-4.4414-1.22656"/><path fill="#00e8fc" fill-rule="evenodd" d="M263.83594 430.57813l-3.8789-3.50782 3.8789-2.96484 1.26172-1.47656 3.17578-3.06641v1.375l-1.7539 1.6914-2.6836 3.13673-1.70313 1.30468 1.70313 1.54297 1.82031 2.89453 2.61719 3.7461.60547.6914 3.83203 3.45313 4.4414-2.65235 1.21094-.80078 3.22656-.99219 4.4375-.95312 2.46485-2.49219 1.5-4.4375-3.96485-4.21875-2.61328-.22265-1.82422-.90235-4.3828.90235-.0547.0078-.0703-.0078-4.3711-.81641-4.4375-.875v-1.375l4.4375.26172 4.4414.3164 4.4375-.23828 4.4375 1.71875 1.80079 1.00782 2.46093 4.4414-.80469 4.4375L286.02735 435l-4.4375.83594-.35156.10937-4.08594 2.70313-3.36328 1.73437-1.07812 1.32422-4.4375-1.03125-.25781-.29297-1.58594-4.4375-2.01172-4.4375-.58203-.92969"/><path fill="#00d4fc" fill-rule="evenodd" d="M263.83594 428.61328l-1.70313-1.54297 1.70313-1.30469 2.6836-3.13671 1.7539-1.69141v1.375l-.32813.3164-3.77734 4.44141 2.72265 4.4375 1.38282 1.97656 2.15234 2.46094 2.28516 2.0625 3.1914-2.0625 1.25-2.55469 4.4375.6797 4.4375-1.07423 1.47266-1.48828 2.19531-4.4375-3.66797-3.90234-4.4375-.07031-4.4375.42578-4.4414-.16797-3.17969-.72656-1.25781-.31641v-1.375l4.4375.875 4.3711.8164.0703.00782.0547-.00781 4.3828-.90235 1.82422.90235 2.61328.22265 3.96485 4.21875-1.5 4.4375L286.02734 434l-4.4375.95313-3.22656.99218-1.21094.80078-4.4414 2.65235-3.83203-3.45313-.60547-.6914-2.61719-3.7461-1.82031-2.89453"/><path fill="#00c4fc" fill-rule="evenodd" d="M266.89063 431.50781l-2.72266-4.4375 3.77734-4.4414.32813-.31641 1.25781.3164 3.17969.72657 4.4414.16797 4.4375-.42578 4.4375.0703v.31642l-4.4375.54296-4.4375.38282-4.4414.17968-4.4375-.55468-2.5625 3.03515 2.41797 4.4375.14453.21094 3.69531 4.22656.74219.66797 1.03515-.66797-1.03515-3.59375-2.16016-.84375 2.16016-.23828 4.4414-.47656 1.02735.71484 3.41015 1.67578 4.4375-1.1914.48047-.48438 2.89453-4.4375-3.375-3.58594v-.3164l3.66797 3.90234-2.19531 4.4375-1.47266 1.48828-4.4375 1.07422-4.4375-.67969-1.25 2.5547-3.1914 2.0625-2.28516-2.0625-2.15234-2.46094-1.38281-1.97657"/><path fill="#00b8fc" fill-rule="evenodd" d="M268.1289 431.50781l-2.41796-4.4375 2.5625-3.03515 4.4375.55468 4.4414-.17968 4.4375-.38282 4.4375-.54296v.3125l-4.4375 1.16015-4.4375.33985-4.4414.52734-4.4375.03906-1.01953 1.20703 1.01953 1.89844 4.4375.21094 4.4414.3711 2.82422 1.95702 1.61328.79297 2.81641-.79297 1.6211-.21094 3.07812-4.22656-3.07813-3.27344v-.3125l3.375 3.58594-2.89453 4.4375-.48047.48438-4.4375 1.1914-3.41015-1.67578-1.02735-.71484-4.4414.47656-2.16016.23828 2.16016.84375 1.03515 3.59375-1.03515.66797-.74219-.66797-3.69531-4.22656-.14453-.21094"/><path fill="#00a8fc" fill-rule="evenodd" d="M268.27344 428.96875l-1.01953-1.89844 1.01953-1.20703 4.4375-.03906 4.4414-.52735 4.4375-.33984 4.4375-1.16015v.3164l-4.4375 1.76953-4.4375.30078-4.4414.875-.11719.01172.11719.01563 4.4414 1.22265 4.4375 2.8711 4.4375-.28906 2.78125-3.82032-2.78125-2.95703v-.3164l3.07813 3.27343-3.07813 4.22656-1.62109.21094-2.8164.79297-1.61329-.79297-2.82422-1.95703-4.4414-.3711-4.4375-.21093"/><path fill="#009800" fill-rule="evenodd" d="M272.71094 427.08594l-.11719-.01563.11719-.01172 4.4414-.875 4.4375-.30078 4.4375-1.76953v.3125l-4.4375 2.38672-4.39843.25781 4.39843.88672 4.4375 2.52735 2.48438-3.41407-2.48438-2.64453v-.3125l2.78125 2.95703-2.78125 3.82031-4.4375.28907-4.4375-2.8711-4.4414-1.22265"/><path fill="#00ac00" fill-rule="evenodd" d="M281.58984 427.95703l-4.39843-.88672 4.39843-.25781 4.4375-2.38672v.3164l-4.04296 2.32813 4.04296 3.00781 2.1875-3.0078-2.1875-2.32813v-.3164l2.48438 2.64452-2.48438 3.41406-4.4375-2.52734"/><path fill="#00c800" fill-rule="evenodd" d="M286.02734 430.07813l-4.04296-3.00782 4.04296-2.32812v.6289l-2.94921 1.69922 2.94921 2.1914 1.59766-2.1914-1.59766-1.69922v-.6289l2.1875 2.32812-2.1875 3.00781"/><path fill="#10cc00" fill-rule="evenodd" d="M286.02734 429.26172l-2.94921-2.1914 2.94921-1.69923V426l-1.85546 1.07031 1.85546 1.3789 1.00391-1.3789L286.02735 426v-.6289l1.59765 1.69921-1.59766 2.1914"/><path fill="#24d000" fill-rule="evenodd" d="M286.02734 428.44922l-1.85546-1.3789L286.02733 426v.6289l-.76171.44141.76171.5664.41407-.5664-.41407-.4414V426l1.00391 1.07031-1.0039 1.3789"/><path fill="#3cd800" fill-rule="evenodd" d="M286.02734 427.63672l-.76171-.5664.76171-.44141.41407.4414-.41407.5664"/><path fill="#50fcfc" fill-rule="evenodd" d="M299.34375 459.44531l-2.05469-1.3086 2.05469-1.53124 4.4375-1.82813 1.16797-1.07812 3.26953-2.57422v3.28125l-4.01563 3.73047 4.01563 2.11328 4.4375.0586 4.4414-1.83204.44923-.33984-.44922-.8125-4.44141-2.91406-4.4375-.00391V451.125l4.4375-.0586 4.4414.6211 2.94532 2.01172.8164 4.4375-3.76171 2.85156-4.44141 1.02735-4.4375.25-4.4375-.41797-4.4375-2.40235"/><path fill="#00e8fc" fill-rule="evenodd" d="M308.21875 460.25l-4.01563-2.11328 4.01563-3.73047 4.4375.0039 4.4414 2.91407.44923.8125-.44922.33984-4.44141 1.83203-4.4375-.05859"/><path fill="#50fcfc" fill-rule="evenodd" d="M325.97266 458.96484l-1.89063-.82812.82422-4.4375 1.0664-1.65235 4.4375-2.30468 1.4961-.48047 2.9414-1.5 4.44141 1.17969.96875.3203-.17187 4.4375-.79688.61329-4.4414 2.72656-.85157 1.09766-3.58593 2.58984-4.4375-1.76172m124.27343 6.8047l-3.17187-3.19532 3.17187-2.48828 2.03907-1.94922 2.39843-2.1289v2.90234l-3.7539 3.66406L454.68359 465l4.34375-2.42578-4.34375-3.66406v-2.90235l4.44141-.41406 3.4375-1.89453 1-1.30469 1.1211 1.30469-1.1211 1.0039-1.88672 3.4336.09375 4.4375-2.64453 2.76562-4.4414.97657-4.4375-.54688"/><path fill="#00e8fc" fill-rule="evenodd" d="M454.6836 465l-3.75391-2.42578 3.7539-3.66406v3.3125l-.35937.35156.35937.23437.41797-.23437-.41797-.35156v-3.3125l4.34375 3.66406L454.6836 465"/><path fill="#00d4fc" fill-rule="evenodd" d="M454.6836 462.8086l-.35938-.23438.35937-.35156.41797.35156-.41797.23437"/><path fill="#50fcfc" fill-rule="evenodd" d="M459.125 477.60938l-2.23438-1.71875 2.23438-2.33204 2.00781 2.33204-2.00781 1.71875"/><g clip-path="url(#c)"><path fill="#fff" fill-opacity="0" fill-rule="evenodd" d="M467.9961 480.32813H468V311.67188h-.0039H468v168.65625h-.0039"/></g><path fill="#fff" fill-opacity="0" fill-rule="evenodd" d="M254.91406 407.53906l5.6914 1.3125 2.2422-9.70703-5.69141-1.3125-2.24219 9.70703"/><path fill-rule="evenodd" d="M260.15234 400.40625l.4961.11328-1.41797 6.13281-.76563-.17578 1.01172-4.375-1.35547-.3125.125-.54297.5625.0625.25782.00782.24218-.03516.23047-.09375.21875-.16406.20313-.25781.1914-.35938"/><path fill="#fff" fill-opacity="0" fill-rule="evenodd" d="M262.76563 446.1875l5.05859 2.92188 4.98437-8.625-5.05859-2.92188-4.98438 8.625"/><path fill-rule="evenodd" d="M269.86328 440.89844l.4414.2539-3.14843 5.45313-.6836-.39453 2.2461-3.88672-1.20313-.69531.27735-.48047.51953.22265.24219.08204.2461.03515.24608-.01953.25782-.09375.26953-.1875.28906-.28906"/><g clip-path="url(#d)"><path fill="none" stroke="#000" stroke-linecap="round" stroke-linejoin="round" stroke-miterlimit="10" stroke-width=".5" d="M143.30469 476.88672l1.39062 6.88672"/></g><g clip-path="url(#e)"><path fill="none" stroke="#000" stroke-linecap="round" stroke-linejoin="round" stroke-miterlimit="10" stroke-width=".5" d="M155.80469 477.15625l3.01953 6.34375"/></g><path fill="none" stroke="#000" stroke-linecap="round" stroke-linejoin="round" stroke-miterlimit="10" stroke-width=".5" d="M156.2461 478.07813l.73046-.98438"/><g clip-path="url(#f)"><path fill="none" stroke="#000" stroke-linecap="round" stroke-linejoin="round" stroke-miterlimit="10" stroke-width=".5" d="M169.07813 477.17578l3.10546 6.30469"/></g><path fill="none" stroke="#000" stroke-linecap="round" stroke-linejoin="round" stroke-miterlimit="10" stroke-width=".5" d="M169.52734 478.09375l.71875-.9961"/><g clip-path="url(#g)"><path fill="none" stroke="#000" stroke-linecap="round" stroke-linejoin="round" stroke-miterlimit="10" stroke-width=".5" d="M181.78906 477.55469l4.3125 5.55078"/></g><path fill="none" stroke="#000" stroke-linecap="round" stroke-linejoin="round" stroke-miterlimit="10" stroke-width=".5" d="M182.41797 478.35938l.5039-1.1172"/><g clip-path="url(#h)"><path fill="none" stroke="#000" stroke-linecap="round" stroke-linejoin="round" stroke-miterlimit="10" stroke-width=".5" d="M193.7461 480.23438l7.02734.1875"/></g><g clip-path="url(#i)"><path fill="none" stroke="#000" stroke-linecap="round" stroke-linejoin="round" stroke-miterlimit="10" stroke-width=".5" d="M210.63672 483.83984l-.125-7.02343"/></g><g clip-path="url(#j)"><path fill="none" stroke="#000" stroke-linecap="round" stroke-linejoin="round" stroke-miterlimit="10" stroke-width=".5" d="M226.55469 482.6211l-5.32813-4.58204"/></g><g clip-path="url(#k)"><path fill="none" stroke="#000" stroke-linecap="round" stroke-linejoin="round" stroke-miterlimit="10" stroke-width=".5" d="M240.70313 480.67969l-6.9922-.69922"/></g><g clip-path="url(#l)"><path fill="none" stroke="#000" stroke-linecap="round" stroke-linejoin="round" stroke-miterlimit="10" stroke-width=".5" d="M239.6836 480.57813l.46484 1.1328"/></g><g clip-path="url(#m)"><path fill="none" stroke="#000" stroke-linecap="round" stroke-linejoin="round" stroke-miterlimit="10" stroke-width=".5" d="M253.875 479.27734l-6.70703 2.10157"/></g><g clip-path="url(#n)"><path fill="none" stroke="#000" stroke-linecap="round" stroke-linejoin="round" stroke-miterlimit="10" stroke-width=".5" d="M252.89844 479.58203l.8711.86328"/></g><g clip-path="url(#o)"><path fill="none" stroke="#000" stroke-linecap="round" stroke-linejoin="round" stroke-miterlimit="10" stroke-width=".5" d="M266.96094 478.71875l-6.25 3.21875"/></g><g clip-path="url(#p)"><path fill="none" stroke="#000" stroke-linecap="round" stroke-linejoin="round" stroke-miterlimit="10" stroke-width=".5" d="M266.05078 479.1875l1.00781.69922"/></g><g clip-path="url(#q)"><path fill="none" stroke="#000" stroke-linecap="round" stroke-linejoin="round" stroke-miterlimit="10" stroke-width=".5" d="M280.32422 478.82031l-6.34766 3.01563"/></g><g clip-path="url(#r)"><path fill="none" stroke="#000" stroke-linecap="round" stroke-linejoin="round" stroke-miterlimit="10" stroke-width=".5" d="M280.32422 478.82031l1.96875 1.46094"/></g><g clip-path="url(#s)"><path fill="none" stroke="#000" stroke-linecap="round" stroke-linejoin="round" stroke-miterlimit="10" stroke-width=".5" d="M293.8125 479.25781l-6.69531 2.14063"/></g><g clip-path="url(#t)"><path fill="none" stroke="#000" stroke-linecap="round" stroke-linejoin="round" stroke-miterlimit="10" stroke-width=".5" d="M293.8125 479.25781l1.75781 1.71485"/></g><g clip-path="url(#u)"><path fill="none" stroke="#000" stroke-linecap="round" stroke-linejoin="round" stroke-miterlimit="10" stroke-width=".5" d="M307.26953 479.92578l-6.98047.80469"/></g><g clip-path="url(#v)"><path fill="none" stroke="#000" stroke-linecap="round" stroke-linejoin="round" stroke-miterlimit="10" stroke-width=".5" d="M307.26953 479.92578l1.39453 2.02344"/></g><g clip-path="url(#w)"><path fill="none" stroke="#000" stroke-linecap="round" stroke-linejoin="round" stroke-miterlimit="10" stroke-width=".5" d="M320.5039 481.1875l-6.8164-1.71875"/></g><g clip-path="url(#x)"><path fill="none" stroke="#000" stroke-linecap="round" stroke-linejoin="round" stroke-miterlimit="10" stroke-width=".5" d="M319.51172 480.9375l.29297 1.1914"/></g><g clip-path="url(#y)"><path fill="none" stroke="#000" stroke-linecap="round" stroke-linejoin="round" stroke-miterlimit="10" stroke-width=".5" d="M333.79688 479.39063l-6.77344 1.8789"/></g><g clip-path="url(#z)"><path fill="none" stroke="#000" stroke-linecap="round" stroke-linejoin="round" stroke-miterlimit="10" stroke-width=".5" d="M333.79688 479.39063l1.6875 1.77734"/></g><g clip-path="url(#A)"><path fill="none" stroke="#000" stroke-linecap="round" stroke-linejoin="round" stroke-miterlimit="10" stroke-width=".5" d="M345.8789 477.55078l-4.30468 5.55469"/></g><path fill="none" stroke="#000" stroke-linecap="round" stroke-linejoin="round" stroke-miterlimit="10" stroke-width=".5" d="M345.8789 477.55078l2.41798.41797"/><g clip-path="url(#B)"><path fill="none" stroke="#000" stroke-linecap="round" stroke-linejoin="round" stroke-miterlimit="10" stroke-width=".5" d="M359.19922 477.5586l-4.3164 5.54296"/></g><path fill="none" stroke="#000" stroke-linecap="round" stroke-linejoin="round" stroke-miterlimit="10" stroke-width=".5" d="M358.57422 478.36328l1.20703.21094"/><g clip-path="url(#C)"><path fill="none" stroke="#000" stroke-linecap="round" stroke-linejoin="round" stroke-miterlimit="10" stroke-width=".5" d="M373.76563 479.48047l-6.82032 1.69531"/></g><g clip-path="url(#D)"><path fill="none" stroke="#000" stroke-linecap="round" stroke-linejoin="round" stroke-miterlimit="10" stroke-width=".5" d="M372.77344 479.72656l.82031.91406"/></g><g clip-path="url(#E)"><path fill="none" stroke="#000" stroke-linecap="round" stroke-linejoin="round" stroke-miterlimit="10" stroke-width=".5" d="M387.10547 479.59375l-6.8711 1.46875"/></g><g clip-path="url(#F)"><path fill="none" stroke="#000" stroke-linecap="round" stroke-linejoin="round" stroke-miterlimit="10" stroke-width=".5" d="M387.10547 479.59375l1.58203 1.8789"/></g><g clip-path="url(#G)"><path fill="none" stroke="#000" stroke-linecap="round" stroke-linejoin="round" stroke-miterlimit="10" stroke-width=".5" d="M399.59766 477.97656l-5.22266 4.70313"/></g><path fill="none" stroke="#000" stroke-linecap="round" stroke-linejoin="round" stroke-miterlimit="10" stroke-width=".5" d="M399.59766 477.97656l2.30468.83985"/><g clip-path="url(#H)"><path fill="none" stroke="#000" stroke-linecap="round" stroke-linejoin="round" stroke-miterlimit="10" stroke-width=".5" d="M411.84766 477.17188l-3.08985 6.3125"/></g><path fill="none" stroke="#000" stroke-linecap="round" stroke-linejoin="round" stroke-miterlimit="10" stroke-width=".5" d="M411.84766 477.17188l2.44921-.08204"/><g clip-path="url(#I)"><path fill="none" stroke="#000" stroke-linecap="round" stroke-linejoin="round" stroke-miterlimit="10" stroke-width=".5" d="M426.64063 478.53516l-6.04688 3.58593"/></g><path fill="none" stroke="#000" stroke-linecap="round" stroke-linejoin="round" stroke-miterlimit="10" stroke-width=".5" d="M425.75781 479.0586l1.05078.63671"/><g clip-path="url(#J)"><path fill="none" stroke="#000" stroke-linecap="round" stroke-linejoin="round" stroke-miterlimit="10" stroke-width=".5" d="M439.89063 478.4336l-5.91797 3.78906"/></g><path fill="none" stroke="#000" stroke-linecap="round" stroke-linejoin="round" stroke-miterlimit="10" stroke-width=".5" d="M439.89063 478.4336l2.13671 1.20702"/><g clip-path="url(#K)"><path fill="none" stroke="#000" stroke-linecap="round" stroke-linejoin="round" stroke-miterlimit="10" stroke-width=".5" d="M451.375 477l-2.2539 6.65625"/></g><path fill="none" stroke="#000" stroke-linecap="round" stroke-linejoin="round" stroke-miterlimit="10" stroke-width=".5" d="M451.04688 477.96875l1.21093-.19922"/><g clip-path="url(#L)"><path fill="none" stroke="#000" stroke-linecap="round" stroke-linejoin="round" stroke-miterlimit="10" stroke-width=".5" d="M464.6836 477l-2.2422 6.66016"/></g><path fill="none" stroke="#000" stroke-linecap="round" stroke-linejoin="round" stroke-miterlimit="10" stroke-width=".5" d="M464.6836 477l2.42187-.40234"/><g clip-path="url(#M)"><path fill="none" stroke="#000" stroke-linecap="round" stroke-linejoin="round" stroke-miterlimit="10" stroke-width=".5" d="M146.86719 464.98438l-5.73438 4.05859"/></g><path fill="none" stroke="#000" stroke-linecap="round" stroke-linejoin="round" stroke-miterlimit="10" stroke-width=".5" d="M146.03125 465.57422l1.09766.55078m12.46875-1.78125l-4.56641 5.33984m3.90234-4.5625l1.19922.26563m12.6211-1.17188l-4.2461 5.59766m3.6289-4.78516l1.21095.19532m12.89453-.8672l-4.59766 5.31641m3.92969-4.54296l1.19531.27343m13.92578.87891l-6.8711 1.46484m5.8711-1.2539l.78906.9414m12.17579 2.41016l-4.16797-5.66016m3.5586 4.83594l-.53126 1.10547m14.40625-.2461l-4.07031-5.73046m3.47656 4.89844l-.55078 1.09375m15.59375-1.61329L234.03516 465.5m5.41797 2.58594l.05468 1.22656m14.4375-3.08594l-6.84765 1.57422m5.85156-1.34375l.80469.92578m13.03125-2.27734l-5.90235 3.8164m5.04688-3.26171L267 466.2578m12.90234-1.42968l-5.5 4.37109m4.69922-3.73438l1.125.48829m13.47657-.3086l-6.47266 2.73828m5.53125-2.33984l.94922.77344m13.5664-.14844l-6.99218.6914m5.97656-.58984l.67578 1.01953m13.63281-1.3125l-6.94531 1.07422m6.94531-1.07422l1.46485 1.96875m11.8789-1.6875l-7.00781.51172m7.00781-.51172l1.3086 2.07813m11.90234-.9375l-6.80078-1.76953m6.80078 1.76953l.57031 2.38672m12.6875-4.35938l-6.6836 2.17578m5.71095-1.85937l.8828.85156m13.25-1.5586l-6.375 2.95704m5.44923-2.52735l.97656.7422m13.58594.48437l-7.01563-.35547m7.01563.35547l1.04297 2.22265m12.25-2.82422l-6.97266.84766m6.97266-.84766l1.40625 2.01172m-2.41797-1.88672l.69922 1.00391m13.55468-1.53125l-6.82812 1.65234m6.82812-1.65234l1.63282 1.83203m-2.625-1.59375l.8164.91797m13.55469.16016l-6.95703-.98047m6.95703.98047l.83984 2.30468m12.4961-2.45312l-6.9961-.6836m6.9961.6836l.9336 2.26562m-1.95313-2.36718l.46875 1.13672m11.71093-4.625l-2.6875 6.49609m2.29688-5.55078l1.22266-.11719m11.36718 5.92578l-.45703-7.01172m.39063 5.99219l-1.04297.64453"/><g clip-path="url(#N)"><path fill="none" stroke="#000" stroke-linecap="round" stroke-linejoin="round" stroke-miterlimit="10" stroke-width=".5" d="M147.07031 451.98828l-6.14062 3.41797"/></g><path fill="none" stroke="#000" stroke-linecap="round" stroke-linejoin="round" stroke-miterlimit="10" stroke-width=".5" d="M146.17578 452.48828l1.03125.66406m13.39063-.70312l-6.56641 2.5m5.61328-2.13672l.92188.8086m13.1953-1.51954l-6.26171 3.1914m6.26172-3.1914l2.00781 1.41016m11.53125-.85156l-6.71094 2.07812m6.71094-2.07812l1.74219 1.73046m11.73047-.65234l-7.02735-.07812m6.00391.0664l.5664 1.08985m13.65235-.20313l-6.78516-1.82812m5.79688 1.5625l.27344 1.1953m14.03515-.94921l-6.79687-1.78906m5.8086 1.52734l.28124 1.19531m13.79688-.32421l-6.34766-3.00782m5.42578 2.57031l.05469 1.22657m14.48437-1.76953l-6.94922-1.04688m5.9375.89453l.40625 1.15625m13.86329-2.34375l-6.83594 1.6289m5.83984-1.39062l.8125.91797m13.21875-1.91797l-6.27734 3.15235m5.36328-2.6914l1.0039.70702m13.56641-.07422l-6.96093.96875m19.41406 1.85938l-5.23438-4.6875m19.35157 1.53125l-6.83985 1.6211m5.84375-1.38282l.8125.91797m13.28516-1.77734l-6.41406 2.86718m5.48046-2.44922l.96875.75391m13.3047-1.11719l-6.46095 2.75782m5.51954-2.35547l.95703.76953m13.58203.16797l-7.02735.07422m6.00391-.0625l.58984 1.07812m10.32032-4.5625l-.17188 7.02344m.14844-6.0039l1.09766-.54688m11.4453-.40235l1.41798 6.88282m-1.21094-5.88282l.94531-.78125m15.79297 5.17969l-5.83984-3.91406m4.98828 3.34375l-.125 1.21875m14.40234-4.38281l-6.0625 3.55468m19.77735-2.53125l-6.86329 1.50782m5.8672-1.28907l.79296.9336m12.46484 2.1875l-4.7539-5.17578m4.7539 5.17578l-.8164 2.3164m15.24219-5.33984l-6.97266.875m5.95703-.75l.70703 1.0039m9.79297 2.8047l.6875-6.9922m-.6875 6.9922l-2.26953.93359"/><g clip-path="url(#O)"><path fill="none" stroke="#000" stroke-linecap="round" stroke-linejoin="round" stroke-miterlimit="10" stroke-width=".5" d="M147.00781 438.57031l-6.01562 3.625"/></g><path fill="none" stroke="#000" stroke-linecap="round" stroke-linejoin="round" stroke-miterlimit="10" stroke-width=".5" d="M147.00781 438.57031l2.10547 1.26172m11.65625-.08984l-6.91016 1.28125m5.90625-1.09375l.76172.96094m13.58985-.07032l-6.97266-.875m6.97266.875l.8711 2.29297m12.46874-2.57031l-7.02344-.32031m7.02344.3203l1.05078 2.21485m12.19531-1.67968l-6.88671-1.38672m6.88672 1.38672l.70312 2.35156m12.60156-2.28906l-6.86328-1.51172m6.86328 1.51172l.65625 2.36328m12.60156-2.14063l-6.75-1.95703m6.75 1.95703l.5 2.40235m12.85938-2.57813l-6.83984-1.60938m6.83984 1.60938l.625 2.375m12.76953-3.5l-6.9961.64453m6.9961-.64453l1.34375 2.05078m11.98047-1.92187l-7.01563.3828m5.9961-.32421l.63281 1.04688m13.66797-.40235l-6.94922-1.02344m5.9375.875l.41406 1.15625m13.65235-.09375l-6.42578-2.84765m5.48828 2.4336l.08984 1.22265m14.0039-.5l-6.11327-3.46485m5.22656 2.96094l-.03516 1.22656m13.79297-.10546l-5.22265-4.70313m4.46093 4.01953l-.29687 1.1914m14.69922-4.78515l-5.875 3.85547m5.01953-3.29687l1.07812.58984m12.14063-2.1211l-3.96875 5.80079m3.39062-4.95703l1.21875.13671m12.14453-1.28125l-2.91015 6.39844m2.48828-5.46484l1.22266-.07813m11.4453-1.14843l-.77343 6.98437m.66016-5.96875l1.14062-.45312m11.05469-.48047l1.6914 6.8203m-1.4453-5.82812l.91406-.8203m10.53906.73437l4.92578 5.0078m-4.21094-4.27733l.3711-1.17188m11.17968 3l7.02735-.10547m-6.00782.08985l-.58984-1.07422m15.89453 4.51172l1.00781-6.95313m-.86328 5.9414l-1.15234.41798m16.02344.42187l-2.39453-6.60547m2.39453 6.60547l-1.64063 1.82031m17.26953-5.19531l-7.02343.14453m6.0039-.125l.59766 1.07031m7.51953 1.21875l5.41406-4.47656m-4.6289 3.82813l-1.13282-.46875"/><g clip-path="url(#P)"><path fill="none" stroke="#000" stroke-linecap="round" stroke-linejoin="round" stroke-miterlimit="10" stroke-width=".5" d="M147.20313 425.625l-6.40625 2.88672"/></g><path fill="none" stroke="#000" stroke-linecap="round" stroke-linejoin="round" stroke-miterlimit="10" stroke-width=".5" d="M147.20313 425.625l1.9414 1.5039m-2.875-1.08202l.97266.75m13.4414-.72266l-6.73828 1.98828m6.73828-1.98828l1.71875 1.75m-2.69922-1.46094l.85938.875m13.55469-.61328l-6.97266.88672m6.97266-.88672l1.41406 2.0039m11.88281-1l-6.9375-1.12109m6.9375 1.1211l.79297 2.3203m12.40234-1.8203l-6.69921-2.1211m6.69922 2.1211l.4453 2.41406m12.66016-1.89453l-6.27734-3.16016m6.27734 3.16016l.05078 2.45312m13.36329-2.66797l-6.47657-2.73046m5.53516 2.33203l.10938 1.22265m14.27734-1.1875l-6.73828-2m6.73828 2l.48828 2.40235m12.59766-1.82813l-6.28125-3.15234m5.36718 2.6914l.03125 1.22657m14.4297-1.34766l-6.7422-1.98828m6.7422 1.98828l.48827 2.40625m12.96094-3.15625l-7.01172-.48828m5.99219.41797l.5 1.1211m11.99219 1.80077l-3.32813-6.1914m2.84375 5.28906l-.67969 1.01953m15.9336-1.59375l-6.23828-3.23828m5.33203 2.76562l.01172 1.22657m13.58203.10547l-4.98047-4.95704m4.25781 4.23438L318.50781 430m14.28516-.35156l-4.76563-5.16016m4.07422 4.41016l-.40625 1.15625M344.75 427.0703l-.01953-.20312-.0586-.1914-.09765-.17579-.45703-.375-.1914-.0586-.19923-.01952-.19922.01953-.1914.05859-.46094.375-.09375.17578-.0586.1914-.01952.20313.01953.19922.05859.1914.09375.17579.46094.375.1914.0586.19922.01952.19922-.01953.1914-.0586.45704-.375.09766-.17577.05859-.1914.01953-.19923m12.52734-3.50781l-.47265 7.01172m.40234-5.99219l1.1211-.5m10.92578-.35156l2.20312 6.67578m-1.88281-5.70312l.84766-.88672m13.14843-.26172l.19922 7.02734m-.16797-6.0039l1.0664-.60547m11.08595-.19532l2.46484 6.58204m-2.46484-6.58204l1.625-1.83593m9.41797 4.875l7.0078.5078m-5.98827-.4375l-.4961-1.12108m13.1875 2.9375l6.21875-3.26954m-6.21875 3.26954l-2.02734-1.38282m17.375 3.09375l2.15234-6.6914m-2.15234 6.6914l-2.41797.42969m16.97266-.26562l-.32813-7.01954m.32813 7.01954l-2.10938 1.2539m18.05469-2.63672l-5.58984-4.2539m4.77734 3.63672l-.19531 1.21093"/><g clip-path="url(#Q)"><path fill="none" stroke="#000" stroke-linecap="round" stroke-linejoin="round" stroke-miterlimit="10" stroke-width=".5" d="M147.16797 412.23438l-6.33594 3.03515"/></g><path fill="none" stroke="#000" stroke-linecap="round" stroke-linejoin="round" stroke-miterlimit="10" stroke-width=".5" d="M147.16797 412.23438l1.97656 1.45703m11.21875-1.6875l-6.09375 3.5m6.09375-3.5l2.07813 1.30468m11.6289-.26171l-6.88281 1.41015m6.88281-1.41015l1.5664 1.89453m11.8125-1.44532l-7.0078.51563m7.0078-.51563l1.3086 2.07422m11.8789-.83984l-6.75-1.95313m5.76563 1.66797l.25391 1.20313m13.35156.375l-5.36328-4.53906m5.36328 4.53906l-.51953 2.39844m13.6914-2.23829l-5.07812-4.85937m5.07813 4.85937l-.66406 2.35938m14.53125-3.1211l-6.1836-3.33984m6.1836 3.33985l-.01563 2.45703m12.91016-1.83985l-5.33985-4.57031m5.33985 4.57031l-.53516 2.39453m13.2461-1.83984l-4.13282-5.67969m3.53125 4.85547l-.53516 1.10156m14.875-.64062l-4.98046-4.95313m4.2578 4.23438l-.35546 1.17187m14.88281-1.0664l-5.95703-3.73047m5.08985 3.1875l-.08985 1.22656m12.9961.52735l-3.40625-6.14844m2.91015 5.2539l-.66797 1.02735m15.32031-.78516l-5.08984-4.84765m4.34766 4.14453l-.32813 1.17968m9.75-.07421l4.17969-5.64844m-3.57031 4.82812l-1.21485-.1836m12.6875-.67968l6.64844-2.28125m9.75-2.36328l.48047 7.00781m-.41016-5.98828l1.03907-.64844m10.0039.60547l4.88281 5.05469m-4.17187-4.32031l.3789-1.16406m11.98438.6875l5.36719 4.53515m-5.36719-4.53515l.51563-2.39844m13.01171 2.16797l4.94141 5m-4.9414-5l.73437-2.34375m-.01563 3.0703l.73438-2.33983m11.49219 2.04296l5.67969 4.14063m-5.6797-4.14063l.34766-2.42968m.48047 3.03125l.17188-1.21485m12.71484.15625l4.88281 5.05469m-4.8828-5.05469l.7578-2.33203m11.58204 4.03906l6.83203 1.64063m-6.83204-1.64063l-.61328-2.375m1.60547 2.61329l-.30469-1.1875m14.41407 4.8828l3.26172-6.22655m-3.26172 6.22656l-2.45703.01172m2.92968-.91797l-1.22656.00781m15.73828 1.29688l-.07812-7.02735m.0664 6.00781l-1.07812.58594"/><g clip-path="url(#R)"><path fill="none" stroke="#000" stroke-linecap="round" stroke-linejoin="round" stroke-miterlimit="10" stroke-width=".5" d="M146.78906 398.30078l-5.57812 4.27735"/></g><path fill="none" stroke="#000" stroke-linecap="round" stroke-linejoin="round" stroke-miterlimit="10" stroke-width=".5" d="M146.78906 398.30078l2.23047 1.01563m10.9375-1.19141l-5.28516 4.6289m5.28516-4.6289l2.29688.86719m11.39062-.35938l-6.02734 3.61328m5.14844-3.08984l1.05078.63281m11.47656 3.89453l-2.69531-6.49218m14.95312 6.75l-.58203-7.00391m.5 5.98438l-1.03516.66406m15.79297-.04688l-3.30469-6.20312m2.82422 5.30078l-.68359 1.01953m15.3789-.80078l-5.10156-4.83594m5.10157 4.83594l-.65625 2.36719m13.51562-1.96485l-4.1914-5.64062m3.58203 4.82031l-.52735 1.10938m15.22656-1.08204l-5.73828-4.05468m4.90235 3.46484l-.15235 1.21875m9.8672.48828l3.1328-6.28906m-2.67968 5.375l-1.22657.03125m12.21485-2.96875l6.88281 1.41406m-5.88281-1.20703l-.34766-1.17578m16.40235-1.82422l-.60157 7m10.29297-4.63672l6.64844 2.27735m-5.67969-1.94532l-.19531-1.21484m12.64453.6211l6.4414 2.80077m-5.5039-2.39453l-.09766-1.22265m12.2422 1.5664l6.90624 1.29688m-6.90625-1.29688l-.73047-2.33984m15.72266-.04297l3.55469 6.0625m-3.03907-5.17969l.64454-1.04297m11.08203 1.13672l5.69921 4.10938m-4.87109-3.51172l.16797-1.21485m11.66797 2.96485l7.0039-.58594m-5.98437.5l-.66406-1.03125m18.45312-2.07031l-3.98437 5.78906m3.98437-5.78906l2.4375.28125m10.02735-.70703l-2.28516 6.64453m2.28516-6.64453l2.42187-.38672m-2.7539 1.35156l1.21093-.1914m12.4414-.77344l-2.29687 6.64062m2.29688-6.64062l2.42578-.3789m10.80469.35155l-2.1289 6.69532m2.1289-6.69532l2.41406-.4414m-2.72266 1.41406l2.41407-.4375m11.39062-.47266l-2.48828 6.57422m2.48828-6.57422l2.4336-.3125m6.96093 5.875l5.35156-4.55468m-5.35156 4.55468l-2.28125-.90234m3.0586.23828l-1.14063-.44922m13.86328 1.3164l4.98047-4.95702m-4.98047 4.95703l-2.34375-.72656"/><g clip-path="url(#S)"><path fill="none" stroke="#000" stroke-linecap="round" stroke-linejoin="round" stroke-miterlimit="10" stroke-width=".5" d="M146.45703 384.61328l-4.91406 5.01953"/></g><path fill="none" stroke="#000" stroke-linecap="round" stroke-linejoin="round" stroke-miterlimit="10" stroke-width=".5" d="M146.45703 384.61328l2.35547.6914m9.875-1.41406l-2.7461 6.46875m2.7461-6.46875l2.44531-.21484m9.78516-.05469l-.57813 7.00391m.57813-7.0039l2.25781-.96876m-2.33984 1.98829l1.125-.48438m9.95703.09766l4.05469 5.73828m-4.0547-5.73828l1.10548-2.19141m10.91015 6.1914l6.65235-2.26171m-6.65235 2.26172l-1.78906-1.6797m15.53516 2.53907l5.79297-3.98047m-4.94922 3.40235l-1.08985-.57032m19.26953 1.26563l-5.625-4.21094m5.625 4.21094l-.375 2.42187m14.22657-3.46484l-6.69531-2.1289m6.6953 2.1289l.4375 2.41406m12.04688-1.02734l-5.03515-4.90235m4.30078 4.1875l-.33985 1.1797m15.19922-4.04688l-6.65625 2.26172m5.6875-1.9336l.89453.84375m13.33203-1.32031l-6.54296 2.5586m5.59375-2.1836l.92968.79688m13.57032-.09766l-7.01563.41015m7.01563-.41015l1.27734 2.09375m-2.29687-2.03516l.63671 1.04688m13.41407-2.29688l-6.44532 2.79297m6.44532-2.79297l1.91797 1.52735m-2.85547-1.1211l1.91797 1.52735m11.85156-2.73829l-5.47656 4.40235m5.47656-4.40235l2.2539.96485m-3.05078-.32422l2.2539.96484m12.59767.10547l-6.95704.98047m6.95704-.98047l1.4414 1.98438m-2.45312-1.84375l.71875.99219m13.49609.35937l-6.73437-2.0039m6.73437 2.0039l.48828 2.40625m-1.46875-2.69922l.24219 1.20313m14.1914-1.67579l-7.01171-.47265m7.01172.47265l1.0039 2.23829m-2.02344-2.3086l.5 1.1211m13.52344-2.75l-6.38672 2.92578m6.38672-2.92578l1.94922 1.48828m-2.8789-1.0625l.97656.74219m12.0039-2.64063l-3.86328 5.8711m3.86328-5.8711l2.44532.23047m-3.00782.625l1.22266.11328m12.46094-1.08594l-3.47266 6.10547m3.47266-6.10547l2.45312.0664m-2.95703.82032l1.22656.03516m12.23438-1.10156l-2.75781 6.46484m2.7578-6.46485l2.44532-.21093m-2.84766 1.15234l2.44532-.21094m10.625-.93359l-1.46094 6.8711m1.46094-6.8711l2.35937-.67578m-2.57422 1.67578l1.17969-.33984m12.16797-.69532l-1.09766 6.94141m1.09766-6.9414l2.32031-.79688m10.04688 7.75781l.79687-6.98047m-.67969 5.96485l-1.14453.44921m14.39063.57032l.70312-6.98828m-.70312 6.98828l-2.27344.92969m2.375-1.94532l-1.13672.46485"/><g clip-path="url(#T)"><path fill="none" stroke="#000" stroke-linecap="round" stroke-linejoin="round" stroke-miterlimit="10" stroke-width=".5" d="M146.04297 370.94922l-4.08594 5.71875"/></g><path fill="none" stroke="#000" stroke-linecap="round" stroke-linejoin="round" stroke-miterlimit="10" stroke-width=".5" d="M145.44922 371.78125l1.21484.16016m12.4414-1.15625l-3.58202 6.04687m3.58203-6.04687l2.45312.11328m-2.97265.76562l1.22656.0586m11.90234-1.25782l-2.17187 6.6836m2.17187-6.6836l2.41797-.42578m-2.73437 1.39844l2.41797-.42578m10.66015-.67578l-1.0625 6.94531m1.0625-6.94531l2.3164-.8125m-2.47265 1.82031l1.16016-.40234m10.63672-.45704l2.28515 6.64454m-2.28515-6.64454l1.67578-1.79296m9.27344 4.9453l7.01953.34376m-6-.29297l-.51953-1.10938m17.86328 4.38672l-3.07813-6.3125m3.07813 6.3125l-1.4414 1.98829m16.70702-4.73829l-6.98047-.8125m6.98047.8125l.89453 2.28516m12.4297-3.01563l-6.9961.64844m6.9961-.64844l1.34765 2.05079m11.98047-1.7422l-7.02735.03126m7.02735-.03125l1.16406 2.16406m-2.1836-2.16015l1.16016 2.16406m12.88672-3.54688l-6.44922 2.78906m6.44922-2.78906l1.91797 1.53125m-2.85547-1.125l1.91797 1.53125m11.63672-2.98437L287.9375 376.25m5.05469-4.88281l2.33593.75781m-3.0703-.04688l1.16796.37891m11.45703-1.98437l-2.20703 6.67187m2.20703-6.67187l2.42188-.41407m-2.74219 1.38282l1.21094-.20313m13.1211-.44531l-3.59767 6.03125m3.59766-6.03125l2.45313.1211m-2.97657.7539l1.22657.0625m13.76562.17187l-5.90234 3.8125m5.90234-3.8125l2.14063 1.19141m-3-.63672l1.0703.59766m13.53516-.19922l-6.76562 1.90625m6.76562-1.90625l1.69532 1.77344m-2.67969-1.4961l.84766.88672m13.49609-.98047l-6.85547 1.53906m6.85547-1.53906l1.59766 1.86328m-2.59375-1.64062l.79687.9336m13.03516-2.30079l-5.89453 3.82813m5.89453-3.82813l2.14453 1.1914m-3.0039-.6328l1.07421.59375m12.71484-1.64063l-5.1289 4.80469m5.1289-4.80469l2.32422.79297m-3.0703-.09375l1.16405.39844m12.4297-1.51563l-4.19142 5.64063m4.19141-5.64063l2.42578.36719m-3.03515.45312l1.21484.1836m12.54687-1.11719l-3.86328 5.86719m3.86328-5.86719l2.44141.22656m-3.0039.625l2.4414.23047m11.58203-.98047l-4.16015 5.66406m4.16015-5.66406l2.42969.35547m-3.03125.46875l1.21094.17578m12.89843-.85156l-4.54296 5.36328m4.54296-5.36328l2.39844.52344m11.375 4.3711l-5.46094-4.42188m5.46094 4.42187l-.46484 2.40625m-.32813-3.05078l-.23437 1.20313m13.66797.08203l-4.10938-5.70313m4.10938 5.70313l-1.08594 2.19921m.48828-3.03125l-1.08594 2.20313"/><g clip-path="url(#U)"><path fill="none" stroke="#000" stroke-linecap="round" stroke-linejoin="round" stroke-miterlimit="10" stroke-width=".5" d="M144.72266 357.05469l-1.44532 6.875"/></g><path fill="none" stroke="#000" stroke-linecap="round" stroke-linejoin="round" stroke-miterlimit="10" stroke-width=".5" d="M144.51172 358.05469l1.17969-.33985m12.26172-.67578l-1.27344 6.91016m1.27344-6.91016l2.33593-.74219m11.38281.83985l-2.08593 6.71094m2.08594-6.71094l2.41406-.45703m-2.71485 1.4336l1.20313-.22657m13.19922-.39453l-3.65625 6m3.65625-6l2.44922.14453m-2.98047.73047l1.22656.07031m13.14063-.5586l-4.69922 5.22657m4.69922-5.22656l2.3828.59375m-3.0664.16796l1.1914.29688m13.78907 2.67578l-6.66016-2.23828m6.66016 2.23828l.40234 2.41797m10.60547-.17578l-2.04687-6.72266m2.04687 6.72266l-1.73828 1.73047m1.4414-2.71094l-1.73827 1.73438m17.82812-3.81641l-7.0039-.60156m7.0039.60156l.96094 2.25781m-1.98047-2.34375l.96094 2.25781m13.26953-1.57421l-6.79297-1.79688m6.79297 1.79688l.5586 2.39062m-1.54688-2.65234l.5586 2.39062m-1.54688-2.65234l.27734 1.19531m15.125-1.76953l-7.01563.40234m7.01563-.40234l1.27344 2.09765m-2.29297-2.03906l1.27344 2.09766m-2.29688-2.03906l.63672 1.04687m14.51563-2.16797l-6.60547 2.40625m6.60547-2.40625l1.82421 1.64063m-2.78515-1.28906l1.82422 1.64062m11.6914-3.21484l-5.08594 4.85156m5.08594-4.85156l2.32813.77343m-3.0664-.0664l2.32812.77344m11.48437-1.70704l-4.60156 5.3086m4.60156-5.3086l2.39063.54688m-3.0586.22265l1.19531.27735m13.1875-.64063l-5.40234 4.4922m5.40234-4.4922l2.27344.9297m-3.0586-.27345l1.13673.46094m13.3164-.60547l-6.10937 3.47266m6.10937-3.47266l2.07422 1.3125m-2.96094-.8086l2.07032 1.3125m12.125-1.83202l-6.09375 3.5039m6.09375-3.5039l2.07812 1.30469m-2.96484-.79688l1.03906.65234m13.2461-1l-6.26172 3.1836m6.26171-3.1836l2.01172 1.40625m11.4961-.95703l-6.64844 2.28125m6.64844-2.28125l1.79297 1.67578m11.23828-2.29687l-6.07813 3.52734m6.07813-3.52734l2.08203 1.29297m-2.96875-.78125l1.04297.64844M399.6914 358.25l-5.41016 4.48438m5.41016-4.48438l2.26953.9375m-3.05469-.28516l1.13281.46875m12.46875-1.61328l-4.41406 5.46875m4.41406-5.46875l2.41016.46485m-3.05078.33203l2.40625.46484m12.36718-.3125l-6.05078 3.57422m6.05078-3.57422l2.09375 1.27735m-2.97265-.75782l2.09375 1.27735m12.4375-1.03516l-6.72266 2.04688m6.72266-2.04688l1.73437 1.73828m-2.71093-1.4414l1.73046 1.73828m-2.71093-1.4375l.86718.86718m14.46875.34375l-6.85156-1.5703m6.85156 1.5703l.63672 2.3711m-1.6328-2.59766l.63671 2.36719m13.03125-.77735l-5.5625-4.29687m5.5625 4.29688l-.41406 2.41796m-.39453-3.04296l-.41407 2.41796"/><g clip-path="url(#V)"><path fill="none" stroke="#000" stroke-linecap="round" stroke-linejoin="round" stroke-miterlimit="10" stroke-width=".5" d="M141.20703 349.3086l5.58594-4.25782"/></g><path fill="none" stroke="#000" stroke-linecap="round" stroke-linejoin="round" stroke-miterlimit="10" stroke-width=".5" d="M158.3125 343.8086l-1.99219 6.73827m1.69922-5.7578l1.20313-.2461m12.6953-.63281l-2.57812 6.53515m2.57813-6.53515l2.4375-.27735m11.2539.44922l-3.32812 6.1914m3.32813-6.1914l2.45312.01172m11.72266.64453l-5.05078 4.88281m5.05078-4.8828l2.33593.7539m-3.0703-.04688l1.16796.3789m13.82422.78907l-6.9375 1.1289m6.9375-1.1289l1.48437 1.95703m-2.49218-1.79297l1.48437 1.95704m11.75 1.03125l-4.75781-5.17579m4.75781 5.17579l-.8164 2.3125m.125-3.06641l-.81641 2.3164m.1211-3.0703l-.40626 1.16015m15.47266-.04688l-5.48828-4.38671m5.48828 4.38671l-.45313 2.41407m-.34375-3.05079l-.45703 2.41016m15.26172-3.23437l-6.875-1.46094m6.875 1.46094l.67578 2.35546m-1.67578-2.5703l.67578 2.35937m-1.67578-2.57031l.33984 1.17968m14.97657-2.21875l-6.875 1.46875m6.875-1.46875l1.57812 1.875m-2.57812-1.66406l1.57812 1.8789m12.33203-3.1289l-6.0664 3.54688m6.0664-3.54688l2.08985 1.28516m-2.97266-.76954l2.08984 1.28907m11.48829-2.58594l-4.82422 5.10938m4.82422-5.10938l2.36718.64844m-3.0703.09375l1.18358.32422m13.40235-.3711l-5.96485 3.71485m5.96485-3.71485l2.125 1.23047m-2.99219-.6914l1.0625.61718m13.19531-1.03125l-6.11328 3.46485m6.11328-3.46485l2.07032 1.32031m-2.96094-.8164l1.03515.66015m12.53907-1.97265l-4.84766 5.08594m4.84766-5.08594l2.36328.66015m-3.07031.07813l1.18359.33203m13.3711-.42578l-5.91407 3.79297m5.91406-3.79297l2.14063 1.19922m-3-.64844l1.0664.60156m13.64844 1.07813l-6.9961-.66797m6.9961.66797l.9414 2.26562m-1.96093-2.36328l.47266 1.13281m13.83203-1.93359l-6.9375 1.1289m6.9375-1.1289l1.48437 1.95313m-2.49218-1.78907l1.48437 1.95313m12.5664-3.01172l-6.39062 2.92188m6.39063-2.92188l1.94922 1.48828m-2.87891-1.0664l.97266.74609m13.18359-1.35156l-6.21484 3.28515m6.21484-3.28515l2.03125 1.3789m-2.9375-.89844l1.01562.6875m13.3086-.95312l-6.42188 2.85547m6.42188-2.85547l1.9336 1.51172m-2.8672-1.09375l1.9336 1.51172m12.5039-1.38281l-6.80078 1.76171m6.80078-1.76171l1.66016 1.80859m-2.64844-1.55078l1.66016 1.80469m-2.64844-1.55079l.82813.90625m14.54687-1.0039l-6.96484.9336m6.96484-.9336l1.42969 1.9961m-2.4414-1.85938l1.42577 1.99609m-2.4414-1.85938l1.42969 1.9922m13.9414-1.91798l-7.02344.23829m7.02344-.23829l1.22656 2.125m-2.25-2.08984l1.22657 2.125m-2.2461-2.08984l1.22657 2.125m-2.25-2.08985l.61328 1.0625m15.76953-1.07422l-7.02735.0547"/><g clip-path="url(#W)"><path fill="none" stroke="#000" stroke-linecap="round" stroke-linejoin="round" stroke-miterlimit="10" stroke-width=".5" d="M467.07422 347.15234l1.16797 2.15625"/></g><path fill="none" stroke="#000" stroke-linecap="round" stroke-linejoin="round" stroke-miterlimit="10" stroke-width=".5" d="M466.05469 347.16016l1.16797 2.15625m-2.19141-2.14844l1.16797 2.15625"/><g clip-path="url(#X)"><path fill="none" stroke="#000" stroke-linecap="round" stroke-linejoin="round" stroke-miterlimit="10" stroke-width=".5" d="M147.5039 333.59766l-7.0078.53125"/></g><path fill="none" stroke="#000" stroke-linecap="round" stroke-linejoin="round" stroke-miterlimit="10" stroke-width=".5" d="M146.48438 333.67188l.65625 1.03906m13.36328-2.32422l-6.375 2.95312m5.4453-2.52343l.98048.73828m12.78125-1.9336l-5.41016 4.48438m5.41016-4.48438l2.26953.9336m11.05078-.92969l-5.42188 4.47656m5.42188-4.47656l2.26563.9375m11.65234.13672l-6.6289 2.32812m6.6289-2.32812l1.80469 1.66406m-2.76953-1.32422l.90234.83203m13.5586-.375l-6.98829.73438m6.98828-.73438l1.3711 2.03125m-2.38672-1.92578l1.3711 2.03516m11.8203.83203l-4.71093-5.21484m4.71093 5.21484l-.83593 2.3086m.14843-3.06641l-.83203 2.3086m.14844-3.06642l-.41797 1.15235m15.90234-.69531l-6.30859-3.09766m6.3086 3.09766l.07812 2.45312m-.9961-2.90234l.07813 2.45312m-.9961-2.90234l.03907 1.22656m15.45313-1.50781l-6.98829-.73438m6.98828.73438l.91797 2.27344M253 334.12109l.91797 2.27735m-1.9375-2.38281l.92187 2.27343m14.41407-2.91015l-6.96094.96875m6.96094-.96875l1.4375 1.98828m-2.44922-1.84766l1.4375 1.98828m-2.45313-1.84765l.72266.99609m14.26562-2.39063l-6.2539 3.19532m6.2539-3.19531l2.01172 1.40234m-2.92187-.9375l2.01172 1.40234m12.01562-2.20703l-5.85937 3.875m5.85937-3.875l2.15625 1.17188m11.5586-.35938l-6.65625 2.25m6.65625-2.25l1.78515 1.6836m11.59375-1.47657l-6.78515 1.83594m6.78515-1.83594l1.67578 1.78906M319.5 333.21094l1.67969 1.79297m12.51172-2.40235l-6.5586 2.52344m6.5586-2.52344l1.85156 1.60938m-2.8086-1.24219l1.85547 1.60938m12.6172-1.19141l-6.96095.95312m6.96094-.95312l1.4336 1.99219m-2.44532-1.85157l1.4336 1.98829m12.92578-1.65235h-7.02735m7.02735 0l1.15234 2.16797m-2.17578-2.16797l.57813 1.08203m13.7539-1.26172l-7.01562.35938m7.01562-.35938l1.26172 2.10547m-2.28125-2.05469l1.26172 2.10547m12.42578-4.01953l-5.71875 4.08594m5.71875-4.08594l2.19531 1.09375m-3.02734-.5l1.09766.54688m13.33593-.66406l-6.29297 3.1328m5.375-2.67577l1 .71093m13.5547.97266l-6.9336-1.14844m6.9336 1.14844l.78124 2.32422m-1.79297-2.49219l.78516 2.32813m13.57422-2.4375l-7-.59375m7 .59375l.96484 2.2539m-1.98437-2.33984l.96484 2.2539m-1.98437-2.33984l.48437 1.125m14.88281-1.27344l-7.02734.04688m7.02734-.04688l1.16797 2.15625m-2.1914-2.14843l1.16796 2.15625m-2.1914-2.15235l1.16797 2.16016m-2.1875-2.15235l.58203 1.07813m15.77734-1.46875l-6.98437.78906m6.98437-.78906l1.38672 2.02344m-2.40234-1.91016l1.38672 2.02344m-2.40235-1.90625l1.38672 2.02344m-2.40234-1.91016l.6914 1.01172m15.65625-1.45703l-6.95703.99219"/><g clip-path="url(#Y)"><path fill="none" stroke="#000" stroke-linecap="round" stroke-linejoin="round" stroke-miterlimit="10" stroke-width=".5" d="M467.03906 333.36719l1.44922 1.98047"/></g><path fill="none" stroke="#000" stroke-linecap="round" stroke-linejoin="round" stroke-miterlimit="10" stroke-width=".5" d="M466.02734 333.51172l1.44532 1.98047m-2.45704-1.83594l1.44532 1.98047m-2.45703-1.83594l.72265.98828"/><g clip-path="url(#Z)"><path fill="none" stroke="#000" stroke-linecap="round" stroke-linejoin="round" stroke-miterlimit="10" stroke-width=".5" d="M147.22656 319.15625l-6.45312 2.78516"/></g><path fill="none" stroke="#000" stroke-linecap="round" stroke-linejoin="round" stroke-miterlimit="10" stroke-width=".5" d="M147.22656 319.15625l1.91406 1.53125m11.33985-1.66406l-6.33203 3.05078m5.41015-2.60938l.98828.72657m12.86329-1.78907l-5.5625 4.29297m5.5625-4.29297l2.23828 1.01172m11.54687-.19922l-6.5 2.66797m6.5-2.66797l1.88672 1.56641m11.6289-.89453l-6.90234 1.32422m6.90235-1.32422l1.53906 1.91015m-2.54297-1.71875l.76953.95313m13.60938-.3125l-7.01953-.33984m7.01953.33984l1.04297 2.21875m-2.06641-2.26953l1.04688 2.21875m12.80078-.54297l-6.03907-3.59375m6.03907 3.59375l-.1172 2.45313m-.76171-2.97657l-.11719 2.45313m-.76172-2.97266l-.11718 2.44922m15.55078-2.24219l-6.76172-1.91797m6.76172 1.91797l.51562 2.39844m-1.5-2.67969l.51953 2.39844m-1.5039-2.67578l.26172 1.19922m15.14843-1.38281l-7.01562-.4336m7.01562.4336l1.01563 2.23046m-2.03516-2.29687l1.01563 2.23437m-2.03516-2.29687l.50781 1.11719m14.75391-2.03125l-6.82813 1.65234m6.82813-1.65234l1.6289 1.83203m-2.62109-1.59375l1.6289 1.83594m12.04688-3.39454l-5.5664 4.28907m5.5664-4.28907l2.23438 1.01563m-3.04297-.39063l1.11719.50782m12.77734-1.39844l-5.10937 4.82422m5.10937-4.82422l2.32422.78125m-3.0664-.08203l1.16015.39453m12.85156 3.77734l-5.01953-4.91797m4.28906 4.20313l-.34375 1.17578m15.39454-2.92188h-7.02735m7.02735 0l1.15234 2.16797m-2.17578-2.16796l.57812 1.08593m13.69922-1.7461l-6.90234 1.32423m6.90234-1.32422l1.53906 1.91015m-2.54687-1.71875l1.54297 1.91016m12.78906-2.03515l-6.92578 1.1914m6.92578-1.1914l1.5039 1.9375m-2.51171-1.76563l1.5039 1.9414m12.73047-2.5039l-6.7461 1.96875m6.7461-1.96875l1.71094 1.75781m-2.6914-1.46875l.85546.875m13.29688-1.5625l-6.46094 2.76953m6.46094-2.76953l1.91015 1.53906m-2.85156-1.13671l.95703.76953m12.88282-1.89063l-5.625 4.20703m5.625-4.20703l2.21875 1.04297m-3.03516-.4336l1.10937.52344m12.63672-1.5703l-4.85547 5.07812m4.14844-4.33594l1.1836.33203m13.28125 3.49219l-5.7422-4.05078m5.7422 4.05078l-.3086 2.4336m13.5039-2.27344l-5.5-4.3711m5.5 4.3711l-.4453 2.41015m-.35547-3.04687l-.22266 1.20703m14.92969-3.83985l-6.6836 2.16797m6.6836-2.16797l1.76562 1.70313m-2.73828-1.39063l.88281.85547m13.41016-1.14844l-6.69531 2.12891m6.69531-2.1289l1.7539 1.71484m-2.72656-1.40625l1.75391 1.71484m-2.73047-1.40625l1.75781 1.71485m-2.73046-1.40235l.8789.85547m15.2539-2.07031l-6.48827 2.69531"/><g clip-path="url(#aa)"><path fill="none" stroke="#000" stroke-linecap="round" stroke-linejoin="round" stroke-miterlimit="10" stroke-width=".5" d="M466.80469 319.19922l1.89844 1.5586"/></g><g clip-path="url(#ab)"><path fill="none" stroke="#000" stroke-linecap="round" stroke-linejoin="round" stroke-miterlimit="10" stroke-width=".5" d="M465.86328 319.59375l1.89453 1.5586"/></g><path fill="none" stroke="#000" stroke-linecap="round" stroke-linejoin="round" stroke-miterlimit="10" stroke-width=".5" d="M464.91797 319.98438l1.89453 1.55859"/><path fill="#00f" fill-rule="evenodd" d="M450.375 476.52344h8.61719V466.3789H450.375v10.14453"/><path fill="azure" fill-rule="evenodd" d="M452.20703 468.21094h.83594v2.82422h3.28515v-2.82422h.83204v6.48047h-.83204v-2.91407h-3.28515v2.91407h-.83594v-6.48047"/><path fill="#00f" fill-rule="evenodd" d="M277.28125 467.64844h8.61719V457.5039h-8.61719v10.14453"/><path fill="azure" fill-rule="evenodd" d="M279.11328 459.33594h.83203v2.82422h3.28516v-2.82422h.83594v6.48047h-.83594v-2.91797h-3.28516v2.91797h-.83203v-6.48047"/><path fill="#ff3030" fill-rule="evenodd" d="M344.55078 449.89453h7.6914V439.75h-7.6914v10.14453"/><path fill="azure" fill-rule="evenodd" d="M346.38281 441.58203h.83203v5.73828h3.19532v.74219h-4.02735v-6.48047"/><path fill="#ff3030" fill-rule="evenodd" d="M269.09766 436.57813h7.6914v-10.14454h-7.6914v10.14454"/><path fill="azure" fill-rule="evenodd" d="M270.92969 428.26563h.83203v5.74218h3.19531v.73828h-4.02734v-6.48046"/><path fill="#00f" fill-rule="evenodd" d="M392.67578 427.70313h8.6211v-10.14454h-8.6211v10.14454"/><path fill="azure" fill-rule="evenodd" d="M394.51172 419.39063h.83203v2.82421h3.28516v-2.82421h.83203v6.48046h-.83203v-2.91796h-3.28516v2.91796h-.83203v-6.48046"/><path fill="#00f" fill-rule="evenodd" d="M224.01953 414.38672h8.61719v-10.14453h-8.61719v10.14453"/><path fill="azure" fill-rule="evenodd" d="M225.85156 406.07422h.83594v2.82422h3.28516v-2.82422h.83203v6.48047h-.83203v-2.91406h-3.28516v2.91406h-.83594v-6.48047"/><path fill="#00f" fill-rule="evenodd" d="M370.48438 401.07422h8.62109v-10.14844h-8.6211v10.14844"/><path fill="azure" fill-rule="evenodd" d="M372.3164 392.76172h.83594v2.82031h3.28516v-2.82031h.83203v6.47656h-.83203v-2.91406h-3.28516v2.91406h-.83593v-6.47656"/><path fill="#ff3030" fill-rule="evenodd" d="M442.1914 383.32031h7.69532v-10.14844h-7.69531v10.14844"/><path fill="azure" fill-rule="evenodd" d="M444.02734 375.00781h.83204v5.73828h3.1953v.7422h-4.02734v-6.48048"/><path fill="#ff3030" fill-rule="evenodd" d="M282.41406 378.88281h7.6914v-10.14844h-7.6914v10.14844"/><path fill="azure" fill-rule="evenodd" d="M284.2461 370.5664h.83202v5.7422h3.19532v.73827h-4.02735v-6.48046"/><path fill="#ff3030" fill-rule="evenodd" d="M193.64453 352.25h7.69531v-10.14453h-7.6953V352.25"/><path fill="azure" fill-rule="evenodd" d="M195.47656 343.9375h.83594v5.73828h3.1914v.74219h-4.02734v-6.48047"/><path fill="#ffffe0" fill-rule="evenodd" d="M221.16797 445.6875h22.1836v-10.1914h-22.1836v10.1914"/><path fill-rule="evenodd" d="M224.66797 437.32813h.51172v6.29687h-.78906v-4.49219h-1.38672v-.55469l.55859-.0664.2539-.05078.22657-.08985.20312-.14062.17578-.21094.14063-.29687.10547-.39454m4.8164 0l.22657.01954.21875.05468.21094.08985.1953.1211.1836.14843.17188.17578.30078.42188.24219.49218.17968.54688.11328.57812.03907.59375-.03907.58985-.11328.58593-.17969.5547-.24218.5-.30078.42968-.17188.17969-.1836.15234-.1953.125-.21094.08984-.21875.0586-.22656.01953-.23047-.01953-.21875-.0586-.20703-.08984-.19922-.125-.1836-.15234-.17187-.1797-.30078-.42968-.2422-.5-.17968-.55469-.11328-.58593-.03906-.58985h.83594l.02734.5625.08203.5039.125.44532.16406.3711.1914.30078.21095.22265.22265.13672.22656.04688.22657-.04688.22265-.13672.21094-.22265.1875-.30079.16406-.37109.125-.44531.08203-.5039.03125-.5625-.03125-.5625-.08203-.5-.125-.4375-.16406-.36329-.1875-.29297-.21094-.21484-.22265-.13281-.22656-.04297-.22657.04297-.22265.1328-.21094.21485-.1914.29297-.16407.36328-.125.4375-.08203.5-.02734.5625h-.83594l.03906-.59375.11328-.57812.17969-.54688.24219-.49219.30078-.42187.17187-.17578.1836-.14844.19922-.1211.20703-.08984.21875-.05468.23047-.01954m5.08984 0h.50781v6.29688h-.78516v-4.49219h-1.39062v-.55469l.5625-.0664.25-.05078.23047-.08985.20312-.14062.17578-.21094.14063-.29687.10547-.39454m2.82422 2.17579h.78515l.01953-.31641.0586-.28516.10156-.2539.14063-.21485.17968-.17578.22266-.1289.26563-.07813.30859-.02734.23828.01953.22266.0625.20312.10156.17969.14063.14844.17187.11328.20703.07422.23438.02343.26562-.02343.26953-.0625.22266-.11328.1914-.15235.17188-.20312.16406-.2461.16407-.63281.39062-.53906.3125-.4375.3164-.34766.32423-.26172.33593-.1914.35157-.125.37109-.06641.39063-.02344.42187h4.21485v-.74219h-3.33594l.08594-.28515.11328-.23438.14844-.20312.1875-.1797.23046-.17187.27735-.17578.71875-.41797.41406-.20312.34375-.23047.28125-.2539.22266-.26563.16015-.27735.11328-.28515.0625-.28516.01953-.28125-.03906-.38281-.1211-.34766-.1914-.30859-.25-.26172-.30078-.21094-.34766-.16015-.3789-.09766-.40625-.03515-.4336.03515-.39843.09766-.35547.16406-.30469.23438-.25.30468-.1836.375-.11718.44531-.03906.51954"/><path fill="#ffffe0" fill-rule="evenodd" d="M306.23828 422.01172h22.17969v-10.1914h-22.17969v10.1914"/><path fill-rule="evenodd" d="M309.73828 413.65234h.50781v6.29688h-.78906v-4.49219h-1.38672v-.55469l.5586-.0625.2539-.05468.23047-.08985.20313-.14062.17187-.21094.14063-.29297.10937-.39844m4.8125 0l.23047.01954.21875.05468.20703.08985.19531.12109.1836.15234.17187.17579.30078.41796.2461.4922.17969.54687.10937.57812.03906.59375-.03906.59375-.10938.58203-.17968.55469-.2461.5-.30078.42969-.17187.17969-.1836.15234-.1953.125-.20704.08984-.21875.0586-.23047.01953-.23047-.01953-.21875-.0586-.20703-.08984-.19531-.125-.1875-.15235-.16797-.17968-.30469-.42969-.24219-.5-.17968-.55469-.11328-.58203-.03516-.59375h.83203l.02735.5625.08203.5039.1289.44532.16016.375.1914.30078.21094.21875.22266.13672.22656.04688.22656-.04688.22266-.13672.21094-.21875.1914-.30078.16016-.375.125-.44531.08203-.5039.03125-.5625-.03125-.5625-.08203-.5-.125-.4336-.16016-.36719-.1914-.29297-.21094-.21484-.22266-.1289-.22656-.04688-.22656.04687-.22266.1289-.21094.21485-.1914.29297-.16016.36719-.1289.4336-.08204.5-.02734.5625h-.83203l.03516-.59376.11328-.57812.17969-.54688.24218-.49219.30469-.41796.16797-.17579.1875-.15234.19531-.1211.20703-.08984.21875-.05469.23047-.01953m5.08985 0h.51171v6.29688h-.78906v-4.49219h-1.38672v-.55469l.5586-.0625.2539-.05468.22656-.08985.20313-.14062.17578-.21094.14063-.29297.10546-.39844m2.82422 2.17579h.78516l.02344-.31641.0586-.28516.09765-.2539.14062-.21485.17969-.17187.22266-.1289.26562-.08204.3086-.02734.23828.02343.22265.0625.20703.10157.1797.13671.14843.17188.11328.20703.07031.23438.02344.26562-.01953.26953-.0664.22266-.10938.1914-.15625.17188-.19922.16406-.25.16406-.63281.39063-.53907.3125-.4375.3164-.34375.32423-.26562.33593-.1914.35156-.125.3711-.06641.39062-.01954.42188h4.21094v-.74219h-3.33203l.08203-.28515.11328-.23438.14844-.20313.1875-.17968.23047-.17188.27734-.17578.71875-.41406.41407-.20703.34765-.23047.28125-.25.21875-.26953.16406-.27735.10938-.28515.0625-.28516.02344-.28125-.04297-.38281-.1211-.34766-.1875-.3086-.25-.26171-.30468-.21094-.34375-.16015-.38281-.09766-.40625-.03516-.4336.03516-.39844.09766-.35546.16796-.3047.23438-.24609.30078-.1875.375-.11718.44531-.03907.51954"/><path fill="#ffffe0" fill-rule="evenodd" d="M319.55078 379.78125h22.1836v-10.1914h-22.1836v10.1914"/><path fill-rule="evenodd" d="M323.05078 371.42188h.51172v6.29687h-.78906v-4.49219h-1.38672v-.55469l.5586-.0625.25-.05468.23046-.08985.20313-.14062.17578-.21094.14062-.29297.10547-.39844m4.8125 0l.23047.01954.21875.05468.21094.08985.19531.1211.1836.15233.17187.17579.30078.41796.24219.4922.17969.54687.11328.57812.03906.59375-.03906.59375-.11329.58203-.17968.5547-.24219.5-.30078.42968-.17188.17969-.18359.15234-.19531.125-.21094.08984-.21875.0586-.23047.01953-.22656-.01953-.21875-.0586-.21094-.08984-.19531-.125-.1836-.15234-.17187-.1797-.30078-.42968-.24219-.5-.17969-.55469-.11328-.58203-.03906-.59375h.83594l.02734.5625.08203.5039.125.44532.16406.375.19141.30078.21094.21875.22265.13672.22266.04688.22656-.04688.22266-.13672.21094-.21875.1914-.30078.16407-.375.125-.44531.08203-.5039.02734-.5625-.02734-.5625-.08203-.5-.125-.4375-.16407-.36329-.1914-.29297-.21094-.21484-.22266-.1289-.22656-.04688-.22265.04687-.22266.1289-.21094.21485-.1914.29297-.16407.36328-.125.4375-.08203.5-.02734.5625h-.83594l.03906-.59375.11328-.57812.1797-.54688.24218-.49219.30078-.41796.17188-.17579.18359-.15234.19531-.1211.21094-.08984.21875-.05468.22656-.01954m5.09375 0h.50781v6.29688h-.78515v-4.49219h-1.39063v-.55469l.5625-.0625.25-.05468.23047-.08985.20313-.14062.17578-.21094.14062-.29297.10547-.39844m2.82422 2.17579h.78516l.01953-.31641.0586-.28516.10155-.2539.14063-.21485.17969-.17187.22265-.1289.26563-.08204.3086-.02734.23827.01953.22266.0664.20312.10157.1797.13672.14843.17187.11328.20703.07422.23438.02344.26562-.02344.26953-.0625.22266-.11328.1914-.15235.17188-.20312.16406-.2461.16407-.6328.39062-.53907.3125-.4375.3164-.34766.32423-.26171.33593-.19141.35157-.125.37109-.0664.39063-.02344.42187h4.21093v-.74219h-3.33203l.08594-.28515.11328-.23438.14844-.20312.1875-.1797.23047-.17187.27734-.17578.71875-.41406.41406-.20703.34375-.23047.28125-.25.21875-.26953.16406-.27735.11329-.28515.0625-.28516.01953-.28125-.03906-.38281-.1211-.34766-.1914-.30859-.25-.26172-.30079-.21094-.34765-.16015-.3789-.09766-.40626-.03515-.4336.03515-.39843.09766-.35547.16797-.30469.23437-.25.30078-.18359.375-.11719.44531-.03906.51954"/><path fill="#ffffe0" fill-rule="evenodd" d="M426.07422 427.6289h22.17969v-10.1953h-22.1797v10.1953"/><path fill-rule="evenodd" d="M429.57031 419.26953h.51172v6.29297h-.78906v-4.48828h-1.38672v-.55469l.5586-.0664.2539-.0547.22656-.08984.20703-.14062.17188-.21094.14062-.29297.10547-.39453m4.8164 0l.22657.01953.22266.05469.20703.08984.19531.1211.1836.14844.17187.17578.30078.41796.2461.4961.17968.54687.10938.57813.03906.58984-.03906.59375-.10938.58594-.17969.55078-.24609.5039-.30078.42579-.17188.17969-.18359.15625-.19531.12109-.20703.09375-.22266.05469-.22656.01953-.23047-.01953-.21875-.05469-.20703-.09375-.19922-.1211-.1836-.15624-.17187-.1797-.30078-.42577-.24219-.5039-.17969-.55079-.11328-.58594-.03515-.59375h.83203l.02734.5625.08203.50781.125.44141.16407.375.1914.30078.21094.22266.22266.13672.22656.04687.22656-.04687.22266-.13672.21094-.22266.1875-.30078.16406-.375.125-.4414.08203-.50782.03125-.5625-.03125-.5625-.08203-.5-.125-.4336-.16406-.36718-.1875-.29297-.21094-.21094-.22266-.1328-.22656-.04688-.22656.04687-.22266.13281-.21094.21094-.1914.29297-.16407.36719-.125.4336-.08203.5-.02734.5625h-.83203l.03515-.58985.11329-.57813.17968-.54687.24219-.4961.30078-.41796.17188-.17579.18359-.14843.19922-.1211.20703-.08984.21875-.05469.23047-.01953m5.08984 0h.51172v6.29297h-.78906v-4.48828h-1.38672v-.55469l.5586-.0664.25-.0547.23046-.08984.20313-.14062.17578-.21094.14062-.29297.10547-.39453m2.82422 2.17578h.78516l.01953-.3164.0625-.28907.09765-.25.14063-.21484.17969-.17578.22265-.1289.26563-.08204.3086-.02734.23827.02344.22266.0625.20703.10156.17578.13672.15235.17578.10937.20312.07422.23828.02344.26563-.01953.26562-.06641.22657-.10938.1914-.15625.17188-.19921.16015-.25.16797-.63282.38672-.53906.3164-.4375.31641-.34375.32422-.26562.33594-.19141.35156-.125.36719-.0664.39453-.02344.41797h4.21484v-.73828h-3.33203l.08203-.28516.11328-.23828.14844-.19922.1875-.17969.23047-.17187.27734-.17578.71875-.41797.41406-.20703.34766-.23047.27734-.25.22266-.26563.16406-.28125.10938-.28125.0625-.28515.02344-.28125-.04297-.38281-.1211-.34766-.1875-.3086-.25-.26171-.30469-.21485-.34375-.15625-.3828-.10156-.40626-.03125-.4336.03125-.39843.09766-.35547.16797-.30469.23437-.25.30469-.18359.375-.11719.44531-.03906.51953"/><path fill="#ffffe0" fill-rule="evenodd" d="M292.71094 459.0039h22.17969v-10.1914h-22.1797v10.1914"/><path fill-rule="evenodd" d="M296.20703 450.64453h.51172v6.29297h-.78906v-4.48828h-1.38672v-.55469l.5586-.0664.2539-.0547.22656-.08984.20703-.14062.17188-.21094.14062-.29297.10547-.39453m4.8164 0l.22657.01953.22266.05469.20703.08984.19531.1211.1836.14844.17187.17578.30078.41796.2461.4961.17968.54687.10938.57813.03906.58984-.03906.59375-.10938.58594-.17969.55078-.24609.5039-.30078.4297-.17188.17968-.18359.15235-.19531.12109-.20703.09375-.22266.0586-.22656.01952-.23047-.01953-.21875-.05859-.20703-.09375-.19922-.1211-.1836-.15234-.17187-.17969-.30078-.42968-.24219-.5039-.17969-.55079-.11328-.58594-.03515-.59375h.83203l.02734.5625.08203.50781.125.44141.16406.375.19141.30078.21094.22266.22265.13672.22657.04687.22656-.04687.22266-.13672.21093-.22266.1875-.30078.16407-.375.125-.4414.08203-.50782.03125-.5625-.03125-.5586-.08203-.5039-.125-.4336-.16407-.36718-.1875-.28906-.21093-.21485-.22266-.1328-.22656-.04298-.22656.04297-.22266.13281-.21094.21485-.1914.28906-.16407.36719-.125.4336-.08203.5039-.02734.5586h-.83203l.03515-.58985.11328-.57813.1797-.54687.24218-.4961.30078-.41796.17188-.17579.18359-.14843.19922-.1211.20703-.08984.21875-.05469.23047-.01953m5.08984 0h.50781v6.29297h-.78515v-4.48828h-1.38672v-.55469l.5586-.0664.25-.0547.23046-.08984.20313-.14062.17578-.21094.14062-.29297.10547-.39453m2.82422 2.17578h.78516l.01953-.3164.0625-.28907.09765-.25.14063-.21484.17969-.17578.22265-.1289.26563-.07813.3086-.02735.23827.01954.22266.0625.20703.10156.17578.13672.15235.17578.10937.20703.07422.23437.02344.26563-.01954.26562-.0664.22657-.10938.1914-.15625.17188-.20312.16015-.2461.16797-.6328.38672-.53907.3164-.4375.31641-.34375.32422-.26563.33594-.1914.35156-.125.36719-.0664.39453-.02344.41797h4.21484v-.73828h-3.33203l.08203-.28516.11328-.23828.14844-.19922.1875-.17969.23047-.17187.27734-.17578.71875-.41797.41406-.20313.34766-.23437.27734-.25.22266-.26563.16406-.27734.10938-.28515.0625-.28516.02343-.28125-.04296-.38281-.1211-.34766-.1875-.3086-.2539-.26171-.30079-.21485-.34375-.15625-.3828-.10156-.40626-.03125-.4336.03125-.39843.10156-.35547.16407-.30469.23437-.25.30469-.18359.375-.11719.44531-.03906.51953"/></g></defs><use xlink:href="#ac"/></svg>