<svg xmlns="http://www.w3.org/2000/svg" role="img" xmlns:xlink="http://www.w3.org/1999/xlink" viewBox="142.45 309.95 326.84 171.84"><defs><clipPath id="a"><path d="M144 311.67188h1v168.65625h-1zm0 0"/></clipPath><clipPath id="b"><path d="M144 311.67188h324v168.65625H144zm0 0"/></clipPath><clipPath id="c"><path d="M467 311.67188h1v168.65625h-1zm0 0"/></clipPath><clipPath id="d"><path d="M144 476h1v4.32813h-1zm0 0"/></clipPath><clipPath id="e"><path d="M155 476h4v4.32813h-4zm0 0"/></clipPath><clipPath id="f"><path d="M168 476h5v4.32813h-5zm0 0"/></clipPath><clipPath id="g"><path d="M181 477h6v3.32813h-6zm0 0"/></clipPath><clipPath id="h"><path d="M193 479h8v1.32813h-8zm0 0"/></clipPath><clipPath id="i"><path d="M210 476h2v4.32813h-2zm0 0"/></clipPath><clipPath id="j"><path d="M220 477h7v3.32813h-7zm0 0"/></clipPath><clipPath id="k"><path d="M233 479h8v1.32813h-8zm0 0"/></clipPath><clipPath id="l"><path d="M239 480h2v.32813h-2zm0 0"/></clipPath><clipPath id="m"><path d="M246 478h9v2.32813h-9zm0 0"/></clipPath><clipPath id="n"><path d="M252 479h3v1.32813h-3zm0 0"/></clipPath><clipPath id="o"><path d="M260 478h8v2.32813h-8zm0 0"/></clipPath><clipPath id="p"><path d="M265 478h3v2.32813h-3zm0 0"/></clipPath><clipPath id="q"><path d="M273 478h8v2.32813h-8zm0 0"/></clipPath><clipPath id="r"><path d="M280 478h3v2.32813h-3zm0 0"/></clipPath><clipPath id="s"><path d="M286 478h9v2.32813h-9zm0 0"/></clipPath><clipPath id="t"><path d="M293 478h3v2.32813h-3zm0 0"/></clipPath><clipPath id="u"><path d="M300 479h8v1.32813h-8zm0 0"/></clipPath><clipPath id="v"><path d="M307 479h2v1.32813h-2zm0 0"/></clipPath><clipPath id="w"><path d="M313 479h8v1.32813h-8zm0 0"/></clipPath><clipPath id="x"><path d="M319 480h2v.32813h-2zm0 0"/></clipPath><clipPath id="y"><path d="M326 479h9v1.32813h-9zm0 0"/></clipPath><clipPath id="z"><path d="M333 479h3v1.32813h-3zm0 0"/></clipPath><clipPath id="A"><path d="M341 477h6v3.32813h-6zm0 0"/></clipPath><clipPath id="B"><path d="M354 477h6v3.32813h-6zm0 0"/></clipPath><clipPath id="C"><path d="M366 479h9v1.32813h-9zm0 0"/></clipPath><clipPath id="D"><path d="M372 479h2v1.32813h-2zm0 0"/></clipPath><clipPath id="E"><path d="M379 479h9v1.32813h-9zm0 0"/></clipPath><clipPath id="F"><path d="M386 479h3v1.32813h-3zm0 0"/></clipPath><clipPath id="G"><path d="M394 477h6v3.32813h-6zm0 0"/></clipPath><clipPath id="H"><path d="M408 477h5v3.32813h-5zm0 0"/></clipPath><clipPath id="I"><path d="M420 478h7v2.32813h-7zm0 0"/></clipPath><clipPath id="J"><path d="M425 478h3v2.32813h-3zm0 0"/></clipPath><clipPath id="K"><path d="M433 478h8v2.32813h-8zm0 0"/></clipPath><clipPath id="L"><path d="M448 476h4v4.32813h-4zm0 0"/></clipPath><clipPath id="M"><path d="M461 476h5v4.32813h-5zm0 0"/></clipPath><clipPath id="N"><path d="M144 464h4v6h-4zm0 0"/></clipPath><clipPath id="O"><path d="M144 451h4v5h-4zm0 0"/></clipPath><clipPath id="P"><path d="M144 438h4v5h-4zm0 0"/></clipPath><clipPath id="Q"><path d="M144 425h4v4h-4zm0 0"/></clipPath><clipPath id="R"><path d="M144 411h4v5h-4zm0 0"/></clipPath><clipPath id="S"><path d="M144 398h4v5h-4zm0 0"/></clipPath><clipPath id="T"><path d="M144 384h3v6h-3zm0 0"/></clipPath><clipPath id="U"><path d="M144 370h3v7h-3zm0 0"/></clipPath><clipPath id="V"><path d="M144 356h2v9h-2zm0 0"/></clipPath><clipPath id="W"><path d="M144 345h2v4h-2zm0 0"/></clipPath><clipPath id="X"><path d="M466 346h2v4h-2zm0 0"/></clipPath><clipPath id="Y"><path d="M144 333h4v2h-4zm0 0"/></clipPath><clipPath id="Z"><path d="M466 333h2v3h-2zm0 0"/></clipPath><clipPath id="aa"><path d="M144 319h4v4h-4zm0 0"/></clipPath><clipPath id="ab"><path d="M466 318h2v3h-2zm0 0"/></clipPath><clipPath id="ac"><path d="M465 319h3v3h-3zm0 0"/></clipPath><g id="ad" clip-path="url(#clip1)"><path fill="#fff" fill-opacity="0" fill-rule="evenodd" d="M0 0h1000v1000H0zm0 0"/><path fill="#d3d3d3" fill-opacity="0" fill-rule="evenodd" d="M162.15234 355.86719l-.23437.29297.0586.23437.11718.17188.17578.23437.29297.34766.11328.0586.11719-.17188.0586-.23438.17577-.17578.46485-.17578h.69922l.23437.29297.28906.8164.0586.17579.17578.23046.35156.23438.69922.69922.17188.17578.23437.34765.23438.41016.28906.58203.41015.46485.23047.23437.23438.17578.11719.23047.17578.29297.17187 1.16406v.23438l.0586.28906.05859.11719.11719.11719.34765.41015.11719.17188.17578.17578.17578.23437.11719.17188.17188.35156.05859.23438.23437.40625.23438-.0586-.17578.17578-.0586.92969h-.58203l-.23437-.11328-.34766.11328-.11719.11719-.05859.29297-.0586.17578-.11718.17187-.46484.29297-.0586.23438-.0586.11328v.64453l.0586.17187v.41016l.0586.0586v.40624l.05859.40625.11719.17579.05859.05859.23047.64062-.0586.29297v.69922l-.05859.58203v.23438l-.0586.23047-.05468.35156v1.92187l.05469.1172h.42578l-.36719.11718-.02344.35156.89063 1.16797 1.74219.53906 1.33984.35938v.53906l.08984.8086.53516.71484 1.51953.26953.89063-.08594.08984 1.16406.53516.1797 1.16015-.1797 2.05469-.98437 1.16016-.36328 1.8789-.17578 1.69531-.1797-.17968.71876-1.51563.08594-1.25.08984-.80469.26953-1.07421.8086.26953.71875.53515.89843-.17968.625-.26563.8086.26563 1.07812.625.89844.80468.17969 1.25-.1797-.26562.72267.09766.5039.05468.29297v.17188l.0586.29296v.40625l.17578.1172.35156.11718h.40625l.29297-.17578.11328-.11719.0586-.11719.11718-.23047.0586-.17578.35156-.46484.23047-.17578.17578-.0586.17578.0586.0586.17578.11718.98828.05469.46875.0586.17188.11718.23437.17578.0586.8164.05859h.28907l.11719.23437.05859.40625.0586.35156v1.10547l.11718.29297.11719.34766.28906.69922.17578.35156.58203.7539.35157.17579.17187.0586.46875.23437.64063.46484.34765.23438.29297.17578.29297.05468.23047.0625.8164.34766.29297.17578.11328.17188.35157.35156.11719.17578.52343.64063v.28906l.0586.35156v.34766l.05859.35156.0586.28906.11718.0586.17188.05859h.17578l.58203.23437.17578.1172.17578.28905.17578.23438.11328.23437.29297.23047.11719.11719v.41016l.0586.05468.28906.23438.23437.11719.0586.11718.11718.17188.0586.11719.23047.23437.05859.17578.23437.0586.1172.05859-.1172.11328-.05859.11719v.11719l-.11719.29296-.11719.28907v.58203l.17579.11719.11718.05859.0586.11719.11719.11719.11328.05859.17578.34765.0586.35157.05858.40625v.17578l-.05859.17578-.11719.69922v.17187l.1172.17579.29296.29296h.40625l.17578.1172.11719.17187.11719.29296v.23438h-.52735l-.23047-.23438h-.23437l-.17578.0586-.0586.69922.0586.34765.11719.17579.17578.41015.11718.23047.28907.46875.17578.05469h.52344l.23437.0586.75781.64062.0586.29296v.23438l.05859.0586.23047.34765v.35156l-.11719.17188v.29297l.29297.28906.29297.17578.17187.0586.29297.17577.29297.1172.58203.40624.28906.23438.29297.17578.21875.16015.01563.01172.23047.17579.64062.52343.17578.23438.1172.17578.17577.17578.11328.17188v.64062l.1172.17578.46874.11719.58203.11719.23438.05859.23047.11328.29297.11719.11328.0586.58593.35156.28907.17187.17578.0625.17578.05469.17578.0586.69922.35155.28906.17579.23438.05468.28906.17578.23437.1172.64063.40624.29297.11719.17187.0586.23438.05859.41015.05859.23047.0586.23438.11718.0586.17188-.41017.17578.46875.0586.0586.29296.11328.23438.17578.05468.23438.0586.17578.05859.40625.11719.64062.23437.11719.17188.0586.23437v.17578l-.0586.1172-.0586.40624.23438.23438.11719.05859.34766.11719.64062.23047.17578.11718.28906.1172.17578.17577.23438.46485.58203 1.10546.17578.17579.34766.17578.17578.11719.35156.11718 1.04688.52344.23437.0586.46485.11327.29297.0586.46484.17578.75781.58203.23438.23438.34765.46484.17578.17578.28907.23438.8164.69921.29297.17579.28906.28906.29297.17578.29297.28906.69531.64063.17578.17578.29297.23437.28907.23438.46875.28906.64062.58203.34766.23438.23437.29297.34766.34765.35156.46485.9336.99218.34765.40625.11719.17579.23437.05859.11328.11719.64454.17578.23047.11328.23437.0586.29297.17577.23047.1172.9336.69921.40624.40625.23438.17578.40625.17578.23437.11719.8164.34766.34766.23437.23438.11719.29297.28906.23047.11719.7578.35156.35157.17188.23047.05859.29297.11719.23437.0586.8711.17577h.8164l.46875.23047.17188.0586.875.69921.46484.1172.29297.05858.17578.0586.23047.0586.46875.05859.34766.05859.35156.0586.40625.05859h.29297l.17187.0586v.23046l.17578.17578h.29297l.34766.0586.35156.05859.69922.11719h.64063l.46484-.23438.29297-.17578.17187-.11719.41016-.17187.28906-.17578.9336-.46485.46875-.29297.52343-.29296.46485-.17188.46484-.17578 1.05078-.46485.28906-.11718.41016-.11719.28906-.11719.52735-.17578 1.51562-.69922.58203-.34765.28907-.0586.29297-.0586.34765-.11718.875-.23047.35156-.11719h.11329l.23437-.05859.875-.23437.23438-.0586h.8125l.35156-.0586.8164-.11718.17188-.0586.35156-.05468.29297-.0586.23047-.05859.8164-.17578.17579-.0586h.34765l.23438-.05859.46484-.11718.75781-.17188.23438-.0586h.34765l.41016-.11718.28906-.0586 1.28516-.05859h.28906l.41016-.0586.23047-.05858h.17578l.875-.1172h.40625l.41015-.11718h.34766l.35156-.11328.8711-.0586h1.75l1.04687.28907.41016.11719.28906.11718.35156.11719.28907.11719 1.05078.17187.28906.0586h.29297l.29297.05859.17187.0586.41016.05859.17187.0586.1172.05858h.11718l.11719.0586.35156.0586h.11328l.41016.0664 1.92187.39453 1.92578.39453 1.51953.44922 1.69532.71875 2.14453.80469 1.60547-.71875 1.42968-.80469 1.16016-1.07813 1.25-.44921 3.03516-.71875 1.875-.35938 2.14453-1.34765 2.23437-1.25391 2.5-1.25781 1.69531-.44922 1.78516-.17969 1.16016-.26953.625.53906 1.33984-.26953.71485-.98828.98437-1.34375.44531-.17969.80469-.35937 1.875-.53907 1.78516-.44921 1.25-.26954 1.16015-.08984 1.69922-.08984 1.96094-.26954 1.25-.08984h.53906l.625-.08984h.89063l2.14453-.17969 2.41015-.17969 2.58985-.08984 1.69531.17969 1.60938.08984 1.42968.35938 1.16016.71875 1.875.98828 1.16015 1.52734.26563.71484.6289.08985.35548.89844.53515.53906.53516 1.52734 1.07422.35938h.53515l-.80469.53515.08985 1.70703.71484 2.69532.89063.80468.89453.98829.71484 1.2578 1.78516.53907 1.51953-.17969.35547 1.34375 1.60937-.80469.98047-.53906.26953.26953.31641-.21484.21875-.14453.80078.44922.44922-.35938h.35547l.53515-.26953.53907-.71875.53515-.26953.625-.98828 1.16016.44922.83984.3711 1.39454.61718 1.6953-.17969h1.60548l1.78515.08985.17969-1.70704.53516-1.34375.80468.26954.4922.84765.40233.40625-.08984.53906v.35938l.71485.44922.71093-.26953h1.42969l.35938.98828.4453 1.25781.71485 1.34375 1.25.6289 1.69531.62891.71485-.17969.17969-.53906.98046-.08984.44922.35937.08594 1.25782-.26563.6289-.53515.17969v.53906l.71484.98438.26563.53906.98437.98828.80078 1.07813-.26562.35937-.08985.89844-.625 2.33203-.35546 2.0664-.08985 1.79298-.17969.71875-.08984.53906v1.4375l-.98047 1.88281-.35937 1.70703-.53516.89844-.80469 1.16797-.26562.53906 2.05469 1.2539.08593.35938-.35546.53906-.08985-.17968v.80859l.08985 1.4375-.44532.71484-1.07422.09375-.26562.71485.53515.89844.8047.71875 1.16015.80859 1.33984.26953.44531.35938-.35546.44921-1.78907-.08984-1.25-.44922-.71484-.71875-.625-.08984-.17578 3.58984-.1875 1.3086h89.35937V311.70313h-55.26953v49.08203l.76172.125 3.28906.54296 2.02344 2.83594v2.7539l2.35156.33204 2.34766.33203h4.05078l-1.3789 4.16016-2.02344.70703-2.02344.70312-.54297.34375-2.59375 1.6172-.1875.11718-2.02344-2.07813-.73046-2.74218-2.67188-2.07813-1.375-3.5-.0664-.08203-1.95704-2.67188 2.75-1.41796v-49.08204H294.42187v91.41407l.1172.03125.1328.01172.07422.07421.10547.04688.08985.0586.08593.05859.08985.0586.29687.29687.0586.08984.03125.11719.02734.11719.01563.13671-.03125.1172-.0586.08983-.0586.08594-.04296.10547-.04688.10156-.02734.1211v.14453l.17578.26953.14844.14844.07422.08594.07422.07421.04296.10547.0625.08985.0586.08593.04297.10547.0586.08985.04687.10156.04296.10547.0586.08594.11719.17968.07421.07422.0625.08594.0586.08984.04297.10547.0586.08985.05858.08593.0625.08985.0586.08984.04297.10156.11719.17969.07421.07422.0586.08594.07422.07421.08984.0586.10547.04687h.14844l.1328-.01562.13282.01562.10156-.04687.07422-.07422.04688-.10156-.01563-.13281v-.14844l-.04687-.10547-.02735-.11719-.04687-.10156-.02735-.1211-.04296-.10156-.0625-.08984-.04297-.10156-.04297-.10547-.03125-.11719-.01563-.13281-.01171-.13672.08593-.0586.0586-.08593.12109-.03125.04297.10547.01562.1328v.1172l.0586.10156.0586.08984.08983.0586.14844.14843.0586.08985.04296.10547-.01171.10156.08593.0586.10547.04687.08594.0586.08984.05858.07422.07422-.11719.02735-.10546.04687-.08594.0586-.07422.07421-.0586.08985-.0625.08594-.02734.12109-.04687.10156-.04297.10547-.03125.11719-.01172.13281-.01563.13281v.14844l.02735.11719.04687.10547.04297.10156.0586.08984.07421.07422.08985.0586.07422.07421.08984.0586.0586.08984.04296.10547.04688.10156.11719.03125.1328.01563h.14845l.11718-.03125.10547.04297.04297.10547.04688.10156.02734.1211L299.5 410l.02734.11719.03125.1211.02735.11718.10547.04297.10156.04687.13281-.01562.14844.14844.0625.08593.07422.07422.07031.07422.08984.0625.10547.04297.10156.04297.1172.03125.13671.01562.11719-.03125.07422-.07422.02734-.11718-.01172-.13282-.03125-.12109-.02734-.11719.04297-.10547h.11719l.08984.0625.11719.02735h.14843l.13282.01562h.14843l.13282.01563.1328-.01563h.14845l.1328-.01562.13282-.01172.13672.01172.11719-.02735.13281-.01562.1914-.0586-.05859.17579-.01562.1328-.02735.1211-.01562.13281-.0586.08594-.1328.01563-.10548.04687-.10546.04297-.1172.03125-.11718.02735-.26563.03125h-.14843l-.13281.01562-.07422.07422.05859.08594.14844.14843.11719.1797.07421.0703.08985.0625.08984.0586.08594.0586.08984.05858.10156.04297.10547.0625.10547.04297.08594.0586.10547.04687.10156.04297.17969.11719.0586.08984-.04298.10156-.04687.10547.01562.13281.22266.22266.0586.08985.04296.10156.03125.1211.04297.10155.01563.13282.03125.11718.01171.13672.03125.11719.14844.14844.10156.04297.10547.04296.1172.03125.1328.01563.13672.01563h.11719l.11719-.03125.08984-.0586.04297-.10547.04688-.10156.04296-.10547.03125-.11719.01172-.1328v-.14845l-.01172-.1328-.01562-.13282-.03125-.11719-.04297-.10547-.04688-.10547-.04296-.10156-.04297-.10547-.01563-.13281.01563-.13281.02734-.11719.03125-.11719.02735-.1211.04687-.10155.08984-.0586.08594-.0625.07422-.07422.08984-.05859.22266-.22266.0586-.08593.07421-.07422.11719-.17969.0586-.08594v-.14844l-.07423-.07421-.10156-.04688-.10547-.04297-.10156-.04297-.0586-.08984-.04687-.10547-.02734-.11719.08984-.05859.11719-.03125.10156-.04297.17969-.11719.14844-.14843.01172-.13282-.01172-.10546-.08985-.0586-.1328.01563h-.14845l-.1328.01562-.13282-.01562-.1211-.03125-.08593-.0586-.07422-.07422-.0586-.08984-.0625-.08594-.11718-.17969-.0586-.08593.03125-.1211.08594-.05859.1211-.03125.05859-.08594v-.1211l-.03125-.11718-.0586-.08984-.05859-.08594-.04687-.10547-.02735-.11719-.01562-.1328.0586-.08985.07421-.07422.08984-.0586.1172-.17968.07421-.07422.0586-.08594.14843-.14844.1211-.03125.1328-.01562.13282.01562.07422.07422.04297.10547.01562.13281-.03125.1172-.11719.03124-.1328.01172-.14844.14844-.04297.10547-.04688.10156-.02734.1211-.03125.11718v.14844l.03125.11719.04297.10546.05859.08985.07422.07031.07422.07422.11719.03125.12109.02734.11719-.02734.1328-.01563h.1172l.08984.0586.07422.07422.04687.10546.0586.08594.10156.04688.13281.01562.10547.04297.08594.0586-.01172.10546-.07422.07422-.17969.11719-.05859.08984-.08984.0586-.07032.07422-.07421.07421-.0625.08985-.02735.11719-.01562.1328.01562.13282-.01562.13281v.14844l.01562.13281.02735.1172.03125.12108.07421.07422.08985.0586.08594.0586.08984.05858.11719.03125v.08594l-.10157.04688-.08984.0586-.26563.03124-.11718.02735h-.14844l-.10547.04296-.10156.04688-.0586.08984-.0625.23438-.01171.13281-.03125.1211-.01563.1328v.29298l-.01172.1328.01172.13673.01563.1328.1328.01563.13282.01172.1211.03125.08593.0586.07422.07421.04688.10547.04296.10157.01563.1328v.44532l-.01563.13281v.44532l.03125.26562.02735.11719.01562.13281.03125.11719.08594.21094.03125.26562v.14844l-.03125.11719-.02734.11718-.03125.1211-.02735.11719-.03125.11718-.03125.1211-.01171.1328-.01563.13282.08984.0586.1172-.03125.10155.01562.04688.10547-.03125.26562v.44141l-.04297.10547-.04688.10547-.04296.10156-.04297.10547-.0586.08594-.03125.12109-.04296.11719-.03125.11719-.01563.1328.01563.13282.05859.08984.10547.04688.08594.0586.05859.08593-.01172.13672-.03125.11719-.04297.10156v.44531l-.01562.13281v.14844l-.03125.11719-.04297.10547-.02735.11719-.04687.10546-.04297.10157-.03125.12109-.02734.11719-.03125.13281-.03125.11719-.02735.11719-.04297.10546-.03125.1172-.03125.12108-.01171.13282-.01563.13281v.29688l.02734.11718v.14844l.04688.39844.02734.11719.0586.08984.12109.03125h.14844l.13281-.01563.0586.08985v.11719l-.0586.08984-.08984.0586-.10157.04296-.10546.04688-.08985.05859-.08594.0586-.13671.01562-.1172-.03125-.1328-.01563-.10157.04688-.0625.08594-.01172.13671-.01562.13282-.03125.11719-.02735.11718-.01562.13281-.03125.1211v.29687l.01563.13282.03125.11718v.14844l.01171.13281v.14844l-.02734.11719-.04688.10156-.02734.1211-.03125.11718-.0586.08985-.07421.07421-.10156.04297-.10547.04688-.11719.02734-.1211.03125-.10156-.04687.0586-.08594.10547-.04688.02734-.11718.03125-.11719.02734-.1211.03125-.11718v-.14844l.01563-.13281-.03125-.11719-.04297-.10547-.10547.01563-.07422.07422-.10156.04296-.08984.0625-.07422.07422-.04297.10157-.01563.1328-.03125.1172L304.25 426l-.03125.11719-.02734.11719-.03125.12109-.02735.11719-.03125.11718-.04297.10547-.08984.0586h-.08984l-.1172-.03125-.03124-.08594.01562-.13672-.03125-.11719v-.14844l-.01171-.1328v-.14844l-.0625-.23438-.02735-.1211-.04297-.10156-.04687-.10546-.0586-.08594-.05859-.08985-.04297-.10546-.0625-.08594-.14844-.14844-.0703-.07422-.10548-.04687-.10547-.04297-.10156-.04297-.29687-.29688-.08985-.07421-.08594-.0586-.10546-.04297-.08985-.0625-.08594-.0586-.10546-.04296-.08985-.0586-.08594-.0625-.07421-.0703-.10547-.04688-.08594-.0586-.10547-.04296-.08984-.0625-.10156-.04297-.10547-.04297-.08594-.0586-.10547-.04687-.10547-.04297-.10156-.04687-.08985-.0586-.10156-.04297-.10547-.04296-.08984-.0625-.11719-.02735-.13281-.01562-.13281.01562H299.75l-.13281.01563-.11719-.03125-.08984-.0586-.07422-.07422-.08985-.05859-.10156-.04688h-.14844l-.12109-.02734-.10156-.04297-.07422-.07422-.11719-.17968-.08984-.0586-.10156-.04297-.08985-.0625-.10547-.04296-.08984-.0586-.08594-.0586-.10547-.04687-.0586-.08594-.05858-.08984-.04297-.10547-.04688-.10156-.07422-.07422-.08594-.0586-.07421-.07421-.08985-.0586-.22265-.22265-.04297-.10547-.03125-.26563.10547-.04296h.14453l.10547.04296.07421.07422.08985.0586.08594.0586.10546.04687.08985.05859.14844.14844.0703.07422.14845.14843.0625.08594.07421.07422.08594.0586.07422.07421.08985.0625.08984.0586.08594.05859.26953.17578.10156.04688.10547.04296.10156.04297.04688-.07421.05859-.08594.07422-.07422.07031-.07422.10547.04297.07422.07422.0586.08984.04296.10156.04688.10547.04296.10547.1211.02735.11719-.02735.07421-.08984.04297-.10547.0586-.08985.07422-.07421.10546-.04297.1172-.02735.1328.01172.08985.0586.14844.14843.05859.08985.04297.10547.04687.10156.04297.10547.04297.10156.10547.04688.10547.04296.13281.01563.08594-.0586.0586-.08984.07421-.07422.10547-.04297.11719.02735.10547.04687.10156.04297.10547.04297.10156.04688.17969.11718v.11719l-.01563.13281.01563.13281.01562.13672.0586.08594.10156.04688.1211.02734.11718.03125h.14844l.11719-.03125.05859-.08984.17969-.1172.05859-.08983.07422-.07422.0586-.08594.11718-.17969.17969-.11719.11719.03125.08984.0586.04297.07422-.01563.1328v.1172l.08985.05859h.14843l.13282-.01563.1328-.01171.26563-.03125.10547-.04297.11719-.03125.1211-.02735.07421-.07421.07031-.07422.0625-.08985-.01562-.10547-.04688-.10156-.10156-.04297-.10547-.01562-.11718.02734-.26563.03125h-.14844l-.07421-.07422-.08985-.0586-.11719-.03124-.11718-.02735-.13282-.01562h-.14843l-.13282.01563h-.29687l-.10547-.04688-.14844-.14844-.04297-.10156-.05859-.08984.22266-.22266.08593-.0586.10547-.04296.11719-.03125.13281-.01563.13281.01563.13672.01562.10157.04297.1328-.01172.08985-.0625.10156-.04297.0625-.08984-.04687-.10156-.08984-.0586-.1172-.03125-.10155-.04296-.0586-.08985-.0625-.08984v-.11719l.01563-.13281.10547-.04688.07421-.07031v-.1211l-.08984-.05859-.03125-.11719.08985-.05859.07421-.07422.04297-.10547.0586-.08984.04687-.10156.01563-.13281v-.14844l-.04688-.10547-.04297-.10156-.08984-.0586-.13281-.01562-.10157-.04297-.13671-.01563-.1172-.03125h-.4453l-.13282-.01562-.13281-.01172-.13281-.01563-.11719-.03125h-.14844l-.13281-.01562-.13281-.01172-.26563-.03125-.1211-.04297-.08593-.0586-.07422-.07421v-.14844l.01172-.13281.10547-.04688.10156-.04296.13281-.01563h.15235l.13281-.01562h.29297l.1211.03125.10156.04296.08984.0586.23438.0625.12109-.04688.08984-.05859.10156-.04297.13282-.01562.10547.04296.10156.04688.13281.01172.1211-.02735h.14453l.12109-.03125.11719-.02734.10547-.04687.07421-.07422.08594-.0586.14844-.14843.0586-.08594.04687-.10547.02734-.11719.01563-.10547-.10156-.04296-.08985-.0586-.11719-.03125-.10546-.04297-.08985-.0625-.07422-.08594-.07422-.07421-.10156-.04297-.10547-.04688-.10156-.04297-.0586-.08984-.04687-.10156-.08594-.21094-.0625-.08594-.05859-.08984-.07422-.07422-.08594-.0586h-.26953l-.11719.03126-.08984.05859-.10156.04297-.13281.01562-.10547-.01562-.02735-.11719-.0625-.08984-.11718-.03125-.10157-.04297-.14843-.14844-.03125-.11719-.01563-.10546.07422-.07422.17969-.1172.11719-.02733.11718-.03125.13672.01562.10156.04297.10547.04297.10156.04687.10547.04297.1172.03125.1328.01563.1172.02734.1328.01563.10547-.01563.08985-.0586-.07422-.07421-.10547-.04297-.07422-.07422-.07422-.08984-.14844-.14844-.08593-.0586-.08985-.05859-.07422-.07422-.08984-.0586-.10156-.04687-.1211-.02734-.10156-.04688-.10547-.04296-.11719-.03125-.10156-.04297-.1211-.03125h-.14843l-.11719.03125-.10546.04297-.08594.0625-.17969.11718-.08594.0586-.08984.0586-.10547.04687-.08594.05859-.10547.04297-.10156.04297-.10547.04687-.07422.07422-.05859.08985-.0586.08593-.04687.10547-.0586.08594-.07421.07422-.13281-.01172-.1172-.03125h-.11718l-.07422.07422-.08984.0586-.07422.07421-.08984.0586-.08594.05859-.10547.04687-.10156.04297-.13672.01563-.10156-.04297-.14844-.14844-.10547-.04688h-.08594l-.10547.04688-.10156.04297-.1211.03125-.11718-.03125-.07422-.07422v-.11719l.03125-.1211.07422-.0703.0586-.08985.07421-.07422.11719-.03125.10547-.04296h.29297l.13281-.01563.13672-.01563.10156-.04296.08985-.0586.10156-.04687.08984-.0586.13281-.01171.08985.05859.13281.01172.08984-.0586.08594-.05859.10547-.04297.08984-.0586.08594-.0625.08985-.05859.14843-.14843.0586-.08594.05859-.08985.10547-.04296.13281-.01563.11719.02735.1211.03125.05859-.0586.05859-.08984.03125-.26563.02734-.11719.10547.01172.13281.01563.10157-.04297.08984-.0586.0586-.08984.07421-.07422.0586-.08984.04687-.10156.01172-.13281-.01172-.13282-.04687-.10547-.14844-.14843-.0586-.08985-.05859-.08594-.04297-.10546v-.44532l.01563-.1328v-.14845l.01172-.1328-.0586-.0586-.08984.0586-.10156-.04298-.17969-.11719-.08594-.05859-.0625-.08984-.0586-.08985-.07421-.07421-.08594-.0586-.1211.03125-.10155.01172-.10547.04688-.08594.05859-.10547.04297-.14844.14844-.08984.05859-.08594.0586-.08984.0625-.10547.04296-.13281.01563v-.1211l.10547-.04297.11718-.03125.07422-.0703.04297-.10548v-.14844l-.02734-.11718-.14844-.14844-.13281-.01563h-.14844l-.11719.03125-.10547.04297-.10156.04297-.08984.0625-.11719.02735-.07422-.07422.01172-.13281-.04297-.10157-.04297-.10547-.08984-.05859-.11719.02734-.1211.03125-.11718.03125-.10156.04297-.1211.03125-.10156.04297-.10547.04297-.08984.0586-.10156.01562v-.11719l.01562-.13281-.0586-.08985-.07421.04297-.14844.14844-.0586.08985-.07421.07421-.04688.10547-.04296.10156-.07422.07422-.0586.08985-.07422.07422-.05859.08593-.07422.07422-.08984.0625-.07422.07031-.07422.07422-.10156.01563-.13281.01562-.10547-.04296v-.1211l.14843-.14844.04297-.10156.0586-.08984.04687-.10156.04297-.10547.0586-.08985.03124-.11719.04297-.10156.03125-.1211.02735-.11718.04687-.10547.04297-.10156.04297-.10547.07422-.07031.08984-.0625.08985-.0586.10156-.04296h.29687l.26563-.03125.10547-.04297-.07422-.07422-.11719-.03125-.10547-.04297-.08984-.0586-.10156-.04687-.08985-.0586-.10156-.04296-.10547-.04297-.08984-.0625-.08594-.0586-.10547-.04296-.10156-.04297-.1211-.03125-.11718-.03125-.10157-.04297L297.5 410.25l-.10156-.04297-.08985-.0586-.04296-.10546-.01563-.13281.10156-.04297.13281-.01563.13672.01563.13282-.01563.10156-.04297.0586-.08984.01562-.10547-.08985-.0586-.07421-.07421-.10157-.04297-.08984-.0586-.14844-.14843-.04297-.10547-.01562-.13281v-.29297l-.0586-.08985-.08984-.05859-.07422-.07422-.04297-.10547-.03125-.11718-.0586-.08985-.07421-.07422-.11719-.02734-.07422-.07422-.08984-.0586-.08984-.0625-.08594-.05859-.07422-.07421-.0586-.08594-.04687-.10547-.08594-.0586-.14843-.14843-.19532-.0586-.1328.01563-.10157.04297-.07422.07422-.04688.10156-.04296.10547-.0586.08984-.0586.08594-.29687.29687-.08984.0586h-.08594l-.0625-.08594-.04297-.10547.03125-.11719.0586-.08984.02734-.11719-.01172-.13281-.08984-.0625-.10547.04688-.11719.02734-.11719.03125-.26953.17578-.10156.04688-.11719.02734-.10546.04687-.08985.0586-.10156.04297-.0586-.08594-.04687-.10547.01563-.13281.04687-.10547.07031-.07422.07422-.07031.0586-.08985v-.14843l-.04297-.10547h-.23829l-.10156.04687-.03125.11719-.02734.11719-.03125.1211-.07422.04296-.13281.01563-.07422-.04688-.04297-.10156-.04297-.10547-.04687-.10156-.04297-.10547-.1211.03125-.10156.04297-.13281.01562-.11719.03125-.10547.04297-.08984.0586-.10156.04687-.1211.02734-.13281.01563-.10156-.04297-.0586-.08985-.04687-.10546-.04297-.10157-.04297-.10546v-.1172l.0586-.08984.08593-.05859.17969-.11719.10156-.04687.10547-.04297.10547-.0586.10156-.04296.08985-.0625.10156-.04297.10547-.0586.10156-.04687.08984-.0586.10547-.04296.10156-.04297.08985-.0625.10156-.04297.13672-.01563.11719.03125.10156.04297.1211.03125.10156.04297.10546.04688.10157.04296.10547.04297.10156.04688.10547.04297.10156.04297.10547.04687.08594.0586.10546.04296.1172.03125.10546.04297.10156.04688.08985.0586.10547.04296.10156.04297.10547.04687.11719.02735.10156.04687.1211.02735h.14843l.08594-.0586.01562-.10156.0586-.08984-.02735-.1172-.07422-.07421-.11719-.17969-.07421-.07422-.08985-.07421-.17969-.1172-.08593-.05859-.10547-.04296-.10156-.04688-.26954-.17578-.05859-.08985-.07422-.07421-.0586-.08985-.04296-.10156-.03125-.11719-.01563-.13672v-.5625l-.01171-.1328-.01563-.13282-.03125-.11719-.01562-.13281-.01172-.13281-.03125-.1211-.22266-.22265-.0586-.08594-.01562-.10547.03125-.11719.13281-.01562v-91.41406H172.9922v1.45312l-.0586.23438-.35156 1.05078-.17187.52343-.1172.34766-.17577.41016-.11719.17187-.23438.29297-.23046.0586h-.35157l-.11718.05859-.23047.40625v.29297l.11719.17578.23046.23047.1172.23437.64062.75781.29297.46485.17578.23437.23047.35156.23437.34766.64063.8164.17578.46485.17187.41016.11719.69531.17578.46875.11719 1.39844.0586.46484v.875l.11718 1.04688v4.78125l-.0586.46484-.35156 1.28125-.17578.52344-.11328.41015-.35156.9297L172.93359 336l-.23437.58203-.11719.17578-.17187.34766-.17578.40625-.35157.8164-.0586.29297-.11327.29297-.11719.28906-.0586.17579-.11718.875-.0586.40625-.05859.11718-.0586.17579-.05859.17187-.23047.52734-.11718.17188v.23437l-.11719.23438-.0586.17187-.17577.58594v.28906l-.0586.17579v.29296l-.0586.11329-.05859.52734v.17187l-.05468.23438v2.6211l-.17578.8164-.1172.17578-.17577.23438-.1172.17187-.11327.23438-.58594.93359-.23047.28906-.29297.46485-.17578.23437-.28906.35156-.35156.69922-.11328.23047-.17579.41016-.17578.23046-.40625.52735-.8164.69922-.29297.17187-.28906.23438-.17579.11719-.17578.17578-.52344.40625-.52734.17578-.17187.17578-.23438.05469-.64062.17578h-.75782m12.21094 31.02344l-1.07422.44921.35938.89454 1.25-.71485.44531-.53906-.98047-.08985"/><path fill="#d3d3d3" fill-opacity="0" fill-rule="evenodd" d="M201.50781 416.59766h-.89453l.44922.6289.98047.35938.80469-.08985.4453-.98828-.17577.08985-.71485-.35547-.89453.35547m154.6211 59.0703l-.0586-.52343v-.29297l.11328-.29297.0586-.23046.46875-.46875h.11328l.11719-.11329.11718-.05859h.17579l.23437-.0586h.34766l.23437.0586.11719.0586.23047.17187.0586.17578.11718.58203v.29297l-.11719.17578-.17187.28906-.17579.17579-.52734.52343-.23047.23438-.11719.0586h-.17578l-.11718-.0586-.40625-.29297-.17579-.11719-.11718-.0586-.0586-.11327-.05468-.1172m6.64062-10.95702l-.0586-.17188v-1.10937l.0586-.17188.17578-.0586.17188-.05858h.17578l.23437-.0586.1172.0586.05858.69921-.05859.17188-.11719.17578-.11718.0586-.23438.52343-.11328.0586h-.23438l-.05859-.1172m9.61328-14.39062l-.11719-.17578v-.69922l.29297-.875.1172-.17187.17577-.35156.11328-.23047.1172-.29297.35155-.75781.1172-.23047.17187-.23438h.17578l.11719-.0586h.64062l.11719.0586.23437.23438.17188.11328.35156.29297.11719.11718.11328.17579v.11328l.11719.05859.11718.11719v.69922l-.05859.17578v.23047l-.0586.17578-.34765 1.05078-.11719.23047-.11719.23437-.11718.0586-.23047.23437-.64063.28906h-.875l-.41015-.11718-.64063-.46485"/><path fill="none" stroke="#bebebe" stroke-linecap="round" stroke-linejoin="round" stroke-miterlimit="10" stroke-width=".5" d="M467.95703 311.69531H144.02734v168.625h323.9297v-168.625"/><g clip-path="url(#a)"><path fill="#fff" fill-opacity="0" fill-rule="evenodd" d="M144 475.89063v4.4375h.0039H144V311.67188h.0039H144v164.21875"/></g><g clip-path="url(#b)"><path fill="#fff" fill-opacity="0" fill-rule="evenodd" d="M144.0039 480.32813V311.67188h31.0625v120.42187l-4.4375 3.33984-.47265.51172-3.96484 1.95313-2.29688 2.48437-2.14062 2.75781-1.65235 1.6797-1.27344 4.4414-.88671 4.4375 1.18359 4.4375-.30078 4.4375 2.92969 2.85547 4.4375-.39453 4.4375-.4375 4.4375.1953 4.4414-.45702 4.4375.4961 4.4375-.26954 2.38672-1.98828-2.38672-4.40235-.08203-.03515-4.35547-2.44922-2.63281 2.44922-1.80469 1.1289-1.36328-1.1289.3789-4.4375.19923-4.4375.78515-1.82813 2.05078-2.61328 2.38672-1.5625 3.79688-2.875-.3711-4.4375-3.42578-2.65625-4.4375 1.07813-4.4414-2.27344V311.67187h26.6328v90.94532l-2.22655 2.25781 2.22656 2.9961 4.4375-1.39454 1.65234-1.60156-1.65234-2.05078-4.4375-.20703v-90.94531h13.3164v97.89062l-4.4414.83203-3.39453 3.35938 2.0664 4.4375 1.32813 1.21875 3.35547-1.21875 1.08594-.0547 4.10156-4.3828-4.10156-4.19141v-97.89063h22.1914v90.17188l-3.03125 3.03125.17969 4.4414 2.85156 3.83594 4.4375-2.24218 3.94922 2.84375-3.94922.91796-4.4375-.46093-4.4414 3.0664-1.6211.91407-2.8164.4414-4.39844 3.9961.58984 4.4414-.6289 1.44922-2.45313 2.98828-1.58594 4.4375-.39844.20313-.77343-.20313-3.66406-.97265-4.44141.23828-1.53516.73437-2.90234 1.26172-4.4375.78906-4.4375 1.4336-1.0039.95312 1.0039 3.96094.08984.47656 4.34766 4.375 4.4375-.19531.39844.26172 2.04297 4.4375-2.44141 1.51953-2.84375 2.91797-.83203 4.4375 2.14062 4.4414 1.53516.53907 2.22656-.53906 2.21094-.58204 4.4414-2.28515 2.35938-1.57422 2.07813-1.4414 3.33203-2.9961 1.10547-2.4375 1.03906-2-1.03906-1.52344-.66407-2.91406.66406-1.29688 2.82422-3.14453 1.07422-4.4375.53906-.29687 2.91016-4.14063-2.91016-3.01172-1.99218-1.42578 1.99219-.96484 4.4375-.04297 2.60156 1.00781 1.83984 1.74219 4.4375 1.90234 4.4375-1.33593 2.39063-2.3086 2.04687-3.23828 4.4375.17969 4.4414.66797 3.35157 2.39062 1.08594 1.48438.77734 2.95312.88281 4.4375 2.77735 3.1289 4.4375.91407L276 440.38281l1.15234-.59375 4.4375-1.39453 2.58985-2.44922 1.84765-.34375 4.05079-4.09375.38671-4.40625.03516-.03125 1.32813-4.4414-1.36329-1.33594-4.4375-1.75-4.4375-.73438-4.4375-.17187-4.4414-.0039-4.4375.10546-4.02735 3.89063-.41015.48046-4.4375 1.88672-4.4414-.77343-.98048-1.59375.98047-3.51172 4.4414 1.89062 2.875-2.8164 1.23048-4.4375.33203-4.17579.13281-.26171-.13281-.22657-2.41406-4.21484-2.02344-1.50781-4.4414.83984-.67188.66797-3.76563 3.22266-1.21094 1.21875-3.22656 3.92578-2.79687-3.92578-1.5-4.44141-.14063-.14063-4.4375-2.89062v-90.17188h13.3125v39.66797l-.1836.27735.1836.36719.25781-.3672-.2578-.27734v-39.66796h62.13671v139.38671l-4.4375.05079-3.26953 2.58984-1.16797 1.07812-4.4375 1.8086-2.07813 1.55078 2.07813 1.32031 4.4375 2.39063 4.4375.41796 4.4375-.25 4.4414-1.02734 3.76173-2.85156-.81641-4.4375-2.94531-2.01953-4.44141-.6211V311.67188h22.1914v136.08984l-2.9414 1.5-1.4961.48047-4.4375 2.30469-1.0664 1.65234-.82422 4.4375 1.89063.82812 4.4375 1.76172 3.58593-2.58984.85157-1.09766 4.4414-2.72656.79688-.61328.17187-4.4375-.96875-.32031-4.4414-1.1797V311.67189H463.5625v140.72265l-1 1.30469-3.4375 1.78515-4.4414.52344-2.39844 2.1289-2.03907 1.94923-3.2539 2.48828 3.2539 3.35937 4.4375.42188 4.44141-.91016v7.10547l-2.89063 3.33985 2.89063 2.28906 2.74219-2.28906-2.74219-3.33985v-7.10547l2.6914-2.8711-.03515-4.4375 1.78125-3.43358 1.1211-1.00391-1.1211-1.30469V311.67188h4.4336v168.65625H144.0039"/></g><path fill="#50fcfc" fill-rule="evenodd" d="M159.125 458.13672l-1.1836-4.4375.88673-4.4375 1.27343-4.4414 1.65235-1.6797 2.14062-2.7578 2.29688-2.48438 3.96484-1.95313.47266-.51172 4.4375-3.33984v6.14453l-4.4375.01563-3.14063 2.1289-1.29687.83594-3.14063 3.60156-1.29687 3.73438-.3125.70703-1.94922 4.4375 2.26172 3.96484 2.8828.47266-2.8828 2.11719-.47266 2.3203.47266.46095 2.33593-.46094 2.10157-2.86719 1.42578-1.57031 3.01172-1.39453 1.73047-3.04297 2.53125-4.4375.17578-.07031 3.21875-4.3711 1.22265-3.16406 1.9375-1.27344-1.9375-1.29297-4.4414-.85156v-6.14453l4.4414 2.27344 4.4375-1.07813 3.42578 2.65625.3711 4.4375-3.79688 2.875-2.38672 1.5625-2.05078 2.61328-.78515 1.82813-.19922 4.4375-.3789 4.4375 1.36327 1.1289 1.80469-1.1289 2.63281-2.44922 4.35547 2.44922.08203.03515 2.38672 4.40235-2.38672 1.98828-4.4375.26953-4.4375-.4961-4.4414.45704-4.4375-.19531-4.4375.4375-4.4375.39453-2.9297-2.85547.30079-4.4375"/><path fill="#00e8fc" fill-rule="evenodd" d="M161.7539 457.66406l-2.26171-3.96484 1.94922-4.4375.3125-.70703 1.29687-3.73438 3.14063-3.60156 1.29687-.83594 3.14063-2.1289v5.34765l-3.1172 1.21875-1.3203 1.30078-.7422 3.14063.7422 2.0625 1.10156-2.0625 3.33594-3.35938 4.4375-.64843.3203-.4336-.3203-.60937-4.4375-.60938v-5.34765l4.4375-.01563 4.4414.85156 1.9375 1.29297-1.9375 1.27344-1.22265 3.16406-3.21875 4.3711-.17578.0703-2.53125 4.4375-1.73047 3.04298-3.01172 1.39453-1.42578 1.57031-2.10157 2.86719-2.33593.46094-.47266-.46094.47266-2.32031 2.8828-2.1172-2.8828-.47265"/><path fill="#00d4fc" fill-rule="evenodd" d="M166.1914 451.32422l-.74218-2.0625.74219-3.14063 1.3203-1.30078 3.1172-1.21875 4.4375.60938.3203.60937-.3203.4336-4.4375.64843-3.33594 3.35938-1.10156 2.0625"/><path fill="#50fcfc" fill-rule="evenodd" d="M197.26172 444.34375l-1.0039-3.96094 1.0039-.95312 4.4375-1.4336 4.4375-.78906 2.90234-1.26172 1.53516-.73437v4.29687l-1.4961.875-2.42968 4.4375 3.92578 2.78906 1.55469 1.65235 2.1328 4.4375-3.6875 4.125-.41015.3125.41016.58203 4.4414.07031.81641-.65234.91406-4.4375 2.70703-2.54688.625-1.89062-.625-1.20313-3.23437-3.23828-1.20313-1.36328-3-3.07422-1.4414-.875v-4.29687l4.4414-.23828 3.66407.97265.77344.20313.39843-.20313 1.58594-4.4375 2.45313-2.98828.6289-1.44922-.58984-4.4414 4.39844-3.9961 2.8164-.4414 1.6211-.91407 4.4414-3.0664 4.4375.46094 3.94922-.91797-3.94922-2.84375-4.4375 2.24218-2.85156-3.83593-.17969-4.44141 3.03125-3.03125v2.11328l-.91797.91797.6914 4.4414.22657.30079.52734-.30078.83594-4.44141-1.36328-.91797v-2.11328l4.4375 2.89063.14063.14062 1.5 4.4414 2.79687 3.92579v2.05078l-4.4375.76562-4.4375.82422-1.63672 1.3086-2.80469 1.73046-4.4375.29297-2.66015 2.41407.65234 4.4414 2.00781 1.83203 4.4375-.1328 4.44141 2.09374.98047.64453 3.45703 2.45703 3.91797-2.45703.51953-.28906 3.71875-4.14844.30078-4.4414-1.60156-4.4375-2.41797-2.89844v-2.05078l3.22656-3.92578 1.21094-1.21875v7.78515l-.61719 2.3086.6172 1.90234 4.03515-1.90234-4.03516-2.3086v-7.78515l3.76563-3.22266.67187-.66797 4.4414-.83984v2.42969l-4.4414 1.35937-2.32812 2.16016-1.19532 4.4375 3.52344 3.125 3.91406 1.3125.52735.3203.32812-.3203 2.7539-4.4375.13673-4.4375-3.21875-3.51954v-2.42968l2.02344 1.50781 2.41406 4.21484.13281.22657-.13281.26171-.33203 4.17579-1.23047 4.4375-2.875 2.8164-4.4414-1.89062-.98048 3.51172.98047 1.59375 4.4414.77343 4.4375-1.88671.41016-.48047 4.02735-3.89063v.82422l-3.17578 3.0664-1.26172 1.47657-3.8789 2.96484 3.8789 3.50781.58203.9297 2.01172 4.4375 1.58594 4.4375.2578.29296 4.4375 1.03125 1.07813-1.32422 3.36328-1.73437 4.08594-2.70313.35156-.10937 4.4375-.83594 3.45704-3.49219.80468-4.4375-2.46094-4.4414-1.80078-1.00782-4.4375-1.71875-4.4375.23829-4.4414-.31641-4.4375-.26172v-.82422l4.4375-.10547 4.4414.0039 4.4375.17188 4.4375.73438 4.4375 1.75 1.36329 1.33594-1.32813 4.4414-.03516.03125-.38671 4.40625-4.05079 4.09375-1.84765.34375-2.58985 2.44922-4.4375 1.39453-1.15234.59375-3.28906 4.04297-4.4375-.91406-2.77735-3.1289-.8828-4.4375-.77735-2.95313-1.08594-1.48438-3.35156-2.39062-4.4414-.66797-4.4375-.17969-2.04688 3.23828-2.39063 2.3086-4.4375 1.33593-4.4375-1.90234-1.83984-1.74219-2.60156-1.00781-4.4375.04297-1.9922.96484 1.9922 1.42578v2.4375l-1.10938.57422 1.10938.78906.55468-.78906-.55469-.57422v-2.4375l2.91016 3.01172-2.91016 4.14063-.53906.29687-1.07422 4.4375-2.82422 3.14453-.66406 1.29688.66406 2.91406 1.03907 1.52344-1.03906 2-1.10547 2.4375-3.33203 2.9961-2.07813 1.4414-2.35938 1.57422-4.4414 2.28515-2.21094.58204-2.22656.53906-1.53516-.53906-2.14062-4.44141.83203-4.4375 2.84375-2.91797 2.4414-1.51953-2.04296-4.4375-.39844-.26172-4.4375.19531-4.34766-4.375-.08984-.47656m4.4375-36.47266l-2.22656-2.99609 2.22656-2.25781 4.4375.20703 1.65234 2.05078-1.65234 1.60156-4.4375 1.39453"/><path fill="#00e8fc" fill-rule="evenodd" d="M210.57422 447.60938l-3.92578-2.78907 2.42969-4.4375 1.49609-.875 1.4414.875 3 3.07422 1.20313 1.36328 3.23438 3.23828.625 1.20313-.625 1.89062-2.70704 2.54688-.91406 4.4375-.8164.65234-4.44141-.07031-.41016-.58203.41016-.3125 3.6875-4.125-2.13281-4.4375-1.5547-1.65235"/><path fill="#50fcfc" fill-rule="evenodd" d="M209.2461 418.1914l-2.06641-4.4375 3.39453-3.35937 4.4414-.83203v.65625l-4.4414 1.875-1.67578 1.66016 1.67578 2.49609 4.4414 1.19922 3.45704-3.69531-3.45703-3.53516v-.65625l4.10156 4.1914-4.10156 4.38282-1.08594.05469-3.35547 1.21875-1.32813-1.21875"/><path fill="#00e8fc" fill-rule="evenodd" d="M210.57422 416.25l-1.67578-2.4961 1.67578-1.66015 4.4414-1.875v1.09766l-3.74218 2.4375 3.74219 2.55078 2.3828-2.55078-2.3828-2.4375v-1.09766l3.45703 3.53516-3.45703 3.6953-4.44141-1.19921"/><path fill="#00d4fc" fill-rule="evenodd" d="M215.01563 416.30469l-3.7422-2.55078 3.7422-2.4375v1.09375l-2.0625 1.34375 2.0625 1.40234 1.3125-1.40234-1.3125-1.34375v-1.09375l2.3828 2.4375-2.3828 2.55078"/><path fill="#00c4fc" fill-rule="evenodd" d="M215.01563 415.15625l-2.0625-1.40234 2.0625-1.34375v1.09765l-.37891.2461.3789.2578.23829-.2578-.23828-.2461v-1.09765l1.3125 1.34375-1.3125 1.40234"/><path fill="#00b8fc" fill-rule="evenodd" d="M215.01563 414.01172l-.37891-.25781.3789-.2461.23829.2461-.23828.2578"/><path fill="#00e8fc" fill-rule="evenodd" d="M226.32031 427.07031l-.65234-4.4414 2.66016-2.41407 4.4375-.29296 2.80468-1.73047 1.63672-1.3086 4.4375-.82422 4.4375-.76562v2.79297l-1.45703.10547-2.98047.22265-4.4375.8711-4.04297 3.34375.8164 4.4414 3.22657 1.97656 3.76563 2.46094.67187.47656.76172-.47656 3.67578-2.03125 2.16016-2.40625.15625-4.4414-2.22656-4.4375-.08985-.10547v-2.79297L248.5 418.1914l1.60156 4.4375-.30078 4.4414-3.71875 4.14844-.51953.28906-3.91797 2.45703-3.45703-2.45703-.98047-.64453-4.4414-2.09375-4.4375.13281-2.00782-1.83203m2.00781 9.66406l-1.10937-.78906 1.10938-.57422.55468.57422-.55469.78906"/><path fill="#00d4fc" fill-rule="evenodd" d="M233.98047 427.07031l-.8164-4.4414 4.04296-3.34375v1.54687l-2.17578 1.79688 1.91016 4.4414.26562.16016 4.4375 3.58984 4.4375-3.08203.59766-.66797.01953-4.4414-.61719-1.21094-4.4375-.09766-4.4375-.48828v-1.54687l4.4375-.8711 2.98047-.22265 1.45703-.10547.08984.10547 2.22657 4.4375-.15625 4.4414-2.16016 2.40625-3.67578 2.03125-.76172.47656-.67187-.47656-3.76563-2.46094-3.22656-1.97656"/><path fill="#00c4fc" fill-rule="evenodd" d="M236.9414 427.07031l-1.91015-4.4414 2.17578-1.79688v1.54297l-.3086.2539.3086.6797.99219 3.76171 3.44531 2.84766 3.71484-2.84766-3.71484-3.78125-3.41797-.66015-1.01953-.25391v-1.54297l4.4375.48828 4.4375.09766.61719 1.21094-.01953 4.4414-.59766.66797-4.4375 3.08203-4.4375-3.58984-.26562-.16016"/><path fill="#00e8fc" fill-rule="evenodd" d="M236.98047 409.3164l-.6914-4.4414.91796-.91797 1.36328.91797-.83594 4.4414-.52734.30079-.22656-.30078"/><path fill="#00b8fc" fill-rule="evenodd" d="M237.20703 423.3086l-.3086-.6797.3086-.2539 1.01953.2539 3.41797.66016v1.19531l-2.35547 2.58594 2.35547 1.94531 2.53906-1.9453-2.53906-2.58594v-1.19532l3.71484 3.78125-3.71484 2.84766-3.44531-2.84766-.99219-3.76172"/><path fill="#00a8fc" fill-rule="evenodd" d="M241.64453 429.01563l-2.35547-1.94532 2.35547-2.58594v1.19922l-1.26562 1.38672 1.26562 1.04297 1.36328-1.04297-1.36328-1.38672v-1.19921l2.53906 2.58593-2.53906 1.94531"/><path fill="#009800" fill-rule="evenodd" d="M241.64453 428.11328l-1.26562-1.04297 1.26562-1.38672v1.19532l-.17578.1914.17578.14063.1875-.14063-.1875-.1914v-1.19532l1.36328 1.38672-1.36328 1.04297"/><path fill="#00ac00" fill-rule="evenodd" d="M241.64453 427.21094l-.17578-.14063.17578-.1914.1875.1914-.1875.14063"/><path fill="#fff" fill-opacity="0" fill-rule="evenodd" d="M250.51953 415.88281l-.61719 2.3086.6172 1.90234 4.03515-1.90234-4.03516-2.3086"/><path fill="#50fcfc" fill-rule="evenodd" d="M250.51953 351.98438l-.1836-.3672.1836-.27734.25781.27735-.2578.36719"/><path fill="#00e8fc" fill-rule="evenodd" d="M254.95703 416.8789l-3.52344-3.125 1.19532-4.4375 2.32812-2.16015 4.4414-1.35938v2.26172l-2.35156 1.25782-2.08984 2.54687-.94531 1.89063.94531.83984 4.4414 1.22656 1.3711-2.0664-.21875-4.4375-1.15234-1.25782v-2.26171l3.21875 3.51953-.13672 4.4375-2.7539 4.4375-.32813.3203-.52735-.3203-3.91406-1.3125"/><path fill="#00d4fc" fill-rule="evenodd" d="M254.95703 414.59375l-.94531-.83984.94531-1.89063 2.08984-2.54687 2.35157-1.25782 1.15234 1.25782.21875 4.4375-1.3711 2.0664-4.4414-1.22656"/><path fill="#00e8fc" fill-rule="evenodd" d="M263.83594 430.57813l-3.8789-3.50782 3.8789-2.96484 1.26172-1.47656 3.17578-3.06641v1.375l-1.7539 1.6914-2.6836 3.13673-1.70313 1.30468 1.70313 1.54297 1.82031 2.89453 2.61719 3.7461.60547.6914 3.83203 3.45313 4.4414-2.65235 1.21094-.80078 3.22656-.99219 4.4375-.95312 2.46485-2.49219 1.5-4.4375-3.96485-4.21875-2.61328-.22265-1.82422-.90235-4.3828.90235-.0547.0078-.0703-.0078-4.3711-.81641-4.4375-.875v-1.375l4.4375.26172 4.4414.3164 4.4375-.23828 4.4375 1.71875 1.80079 1.00782 2.46093 4.4414-.80469 4.4375L286.02735 435l-4.4375.83594-.35156.10937-4.08594 2.70313-3.36328 1.73437-1.07812 1.32422-4.4375-1.03125-.25781-.29297-1.58594-4.4375-2.01172-4.4375-.58203-.92969"/><path fill="#00d4fc" fill-rule="evenodd" d="M263.83594 428.61328l-1.70313-1.54297 1.70313-1.30469 2.6836-3.13671 1.7539-1.69141v1.375l-.32813.3164-3.77734 4.44141 2.72265 4.4375 1.38282 1.97656 2.15234 2.46094 2.28516 2.0625 3.1914-2.0625 1.25-2.55469 4.4375.6797 4.4375-1.07423 1.47266-1.48828 2.19531-4.4375-3.66797-3.90234-4.4375-.07031-4.4375.42578-4.4414-.16797-3.17969-.72656-1.25781-.31641v-1.375l4.4375.875 4.3711.8164.0703.00782.0547-.00781 4.3828-.90235 1.82422.90235 2.61328.22265 3.96485 4.21875-1.5 4.4375L286.02734 434l-4.4375.95313-3.22656.99218-1.21094.80078-4.4414 2.65235-3.83203-3.45313-.60547-.6914-2.61719-3.7461-1.82031-2.89453"/><path fill="#00c4fc" fill-rule="evenodd" d="M266.89063 431.50781l-2.72266-4.4375 3.77734-4.4414.32813-.31641 1.25781.3164 3.17969.72657 4.4414.16797 4.4375-.42578 4.4375.0703v.31642l-4.4375.54296-4.4375.38282-4.4414.17968-4.4375-.55468-2.5625 3.03515 2.41797 4.4375.14453.21094 3.69531 4.22656.74219.66797 1.03515-.66797-1.03515-3.59375-2.16016-.84375 2.16016-.23828 4.4414-.47656 1.02735.71484 3.41015 1.67578 4.4375-1.1914.48047-.48438 2.89453-4.4375-3.375-3.58594v-.3164l3.66797 3.90234-2.19531 4.4375-1.47266 1.48828-4.4375 1.07422-4.4375-.67969-1.25 2.5547-3.1914 2.0625-2.28516-2.0625-2.15234-2.46094-1.38281-1.97657"/><path fill="#00b8fc" fill-rule="evenodd" d="M268.1289 431.50781l-2.41796-4.4375 2.5625-3.03515 4.4375.55468 4.4414-.17968 4.4375-.38282 4.4375-.54296v.3125l-4.4375 1.16015-4.4375.33985-4.4414.52734-4.4375.03906-1.01953 1.20703 1.01953 1.89844 4.4375.21094 4.4414.3711 2.82422 1.95702 1.61328.79297 2.81641-.79297 1.6211-.21094 3.07812-4.22656-3.07813-3.27344v-.3125l3.375 3.58594-2.89453 4.4375-.48047.48438-4.4375 1.1914-3.41015-1.67578-1.02735-.71484-4.4414.47656-2.16016.23828 2.16016.84375 1.03515 3.59375-1.03515.66797-.74219-.66797-3.69531-4.22656-.14453-.21094"/><path fill="#00a8fc" fill-rule="evenodd" d="M268.27344 428.96875l-1.01953-1.89844 1.01953-1.20703 4.4375-.03906 4.4414-.52735 4.4375-.33984 4.4375-1.16015v.3164l-4.4375 1.76953-4.4375.30078-4.4414.875-.11719.01172.11719.01563 4.4414 1.22265 4.4375 2.8711 4.4375-.28906 2.78125-3.82032-2.78125-2.95703v-.3164l3.07813 3.27343-3.07813 4.22656-1.62109.21094-2.8164.79297-1.61329-.79297-2.82422-1.95703-4.4414-.3711-4.4375-.21093"/><path fill="#009800" fill-rule="evenodd" d="M272.71094 427.08594l-.11719-.01563.11719-.01172 4.4414-.875 4.4375-.30078 4.4375-1.76953v.3125l-4.4375 2.38672-4.39843.25781 4.39843.88672 4.4375 2.52735 2.48438-3.41407-2.48438-2.64453v-.3125l2.78125 2.95703-2.78125 3.82031-4.4375.28907-4.4375-2.8711-4.4414-1.22265"/><path fill="#00ac00" fill-rule="evenodd" d="M281.58984 427.95703l-4.39843-.88672 4.39843-.25781 4.4375-2.38672v.3164l-4.04296 2.32813 4.04296 3.00781 2.1875-3.0078-2.1875-2.32813v-.3164l2.48438 2.64452-2.48438 3.41406-4.4375-2.52734"/><path fill="#00c800" fill-rule="evenodd" d="M286.02734 430.07813l-4.04296-3.00782 4.04296-2.32812v.6289l-2.94921 1.69922 2.94921 2.1914 1.59766-2.1914-1.59766-1.69922v-.6289l2.1875 2.32812-2.1875 3.00781"/><path fill="#10cc00" fill-rule="evenodd" d="M286.02734 429.26172l-2.94921-2.1914 2.94921-1.69923V426l-1.85546 1.07031 1.85546 1.3789 1.00391-1.3789L286.02735 426v-.6289l1.59765 1.69921-1.59766 2.1914"/><path fill="#24d000" fill-rule="evenodd" d="M286.02734 428.44922l-1.85546-1.3789L286.02733 426v.6289l-.76171.44141.76171.5664.41407-.5664-.41407-.4414V426l1.00391 1.07031-1.0039 1.3789"/><path fill="#3cd800" fill-rule="evenodd" d="M286.02734 427.63672l-.76171-.5664.76171-.44141.41407.4414-.41407.5664"/><path fill="#50fcfc" fill-rule="evenodd" d="M299.34375 459.45703l-2.07813-1.32031 2.07813-1.55078 4.4375-1.8086 1.16797-1.07812 3.26953-2.58985v3.29688l-4.01563 3.73047 4.01563 2.11328 4.4375.0625 4.4414-1.83594.44923-.33984-.44922-.8125-4.44141-2.91406-4.4375-.00391v-3.29688l4.4375-.05078 4.4414.6211 2.94532 2.01953.8164 4.4375-3.76171 2.85156-4.44141 1.02735-4.4375.25-4.4375-.41797-4.4375-2.39063"/><path fill="#00e8fc" fill-rule="evenodd" d="M308.21875 460.25l-4.01563-2.11328 4.01563-3.73047 4.4375.0039 4.4414 2.91407.44923.8125-.44922.33984-4.44141 1.83594-4.4375-.0625"/><path fill="#50fcfc" fill-rule="evenodd" d="M325.97266 458.96484l-1.89063-.82812.82422-4.4375 1.0664-1.65235 4.4375-2.30468 1.4961-.48047 2.9414-1.5 4.44141 1.17969.96875.3203-.17187 4.4375-.79688.61329-4.4414 2.72656-.85157 1.09766-3.58593 2.58984-4.4375-1.76172m124.27343 6.96875l-3.2539-3.35937 3.2539-2.48828 2.03907-1.94922 2.39843-2.1289v2.90234l-3.7539 3.66406 3.7539 2.45312 4.41797-2.45312-4.41797-3.66406v-2.90235l4.44141-.52344 3.4375-1.78515 1-1.30469 1.1211 1.30469-1.1211 1.0039-1.78125 3.4336.03516 4.4375-2.69141 2.8711-4.4414.91015-4.4375-.42188"/><path fill="#00e8fc" fill-rule="evenodd" d="M454.6836 465.02734l-3.75391-2.45312 3.7539-3.66406v3.3125l-.35937.35156.35937.23437.42579-.23437-.42579-.35156v-3.3125l4.41797 3.66406-4.41797 2.45312"/><path fill="#00d4fc" fill-rule="evenodd" d="M454.6836 462.8086l-.35938-.23438.35937-.35156.42579.35156-.42579.23437"/><path fill="#50fcfc" fill-rule="evenodd" d="M459.125 478.17969l-2.89063-2.28906 2.89063-3.33985 2.74219 3.33985-2.74219 2.28906"/><g clip-path="url(#c)"><path fill="#fff" fill-opacity="0" fill-rule="evenodd" d="M467.9961 480.32813H468V311.67188h-.0039H468v168.65625h-.0039"/></g><path fill="#fff" fill-opacity="0" fill-rule="evenodd" d="M234.32031 407.2461l5.8125-.60938-1.03906-9.90625-5.8086.60547 1.03516 9.91015"/><path fill-rule="evenodd" d="M236.95703 398.79688l.50781-.0547.65235 6.26173-.78125.08203-.46875-4.46485-1.3789.14454-.0586-.5547.55078-.12109.2461-.07812.21874-.11328.1875-.16406.14844-.22657.11328-.3086.0625-.40233"/><path fill="#fff" fill-opacity="0" fill-rule="evenodd" d="M271.1836 450.35547l5.5039-1.96094-3.34375-9.38281-5.5039 1.96094 3.34374 9.3828"/><path fill-rule="evenodd" d="M271.7539 441.52344l.47657-.17188 2.11328 5.92969-.73828.26563-1.50781-4.23047-1.3086.46875-.1875-.52344.50781-.25.21875-.13672.1836-.16016.14453-.20312.09375-.2539.03516-.32423-.03125-.41015"/><path fill="#fff" fill-opacity="0" fill-rule="evenodd" d="M163.25 470.40234l5.8164-.54296-.92968-9.91797-5.8164.54687.92968 9.91406"/><path fill-rule="evenodd" d="M165.97656 461.98438l.50781-.04688.58594 6.26953-.78515.07031-.41797-4.46875-1.38281.12891-.05079-.55078.55078-.11719.2461-.07812.22266-.10938.1875-.16015.15234-.22657.11328-.30469.07031-.40625"/><g clip-path="url(#d)"><path fill="none" stroke="#000" stroke-linecap="round" stroke-linejoin="round" stroke-miterlimit="10" stroke-width=".5" d="M143.74219 476.82422l.51562 7.00781"/></g><g clip-path="url(#e)"><path fill="none" stroke="#000" stroke-linecap="round" stroke-linejoin="round" stroke-miterlimit="10" stroke-width=".5" d="M155.90625 477.10938l2.8164 6.4375"/></g><path fill="none" stroke="#000" stroke-linecap="round" stroke-linejoin="round" stroke-miterlimit="10" stroke-width=".5" d="M156.3164 478.04688l.76173-.96094"/><g clip-path="url(#f)"><path fill="none" stroke="#000" stroke-linecap="round" stroke-linejoin="round" stroke-miterlimit="10" stroke-width=".5" d="M169.2461 477.10156l2.76952 6.45703"/></g><path fill="none" stroke="#000" stroke-linecap="round" stroke-linejoin="round" stroke-miterlimit="10" stroke-width=".5" d="M169.64844 478.03906l.76562-.95703"/><g clip-path="url(#g)"><path fill="none" stroke="#000" stroke-linecap="round" stroke-linejoin="round" stroke-miterlimit="10" stroke-width=".5" d="M181.92578 477.45313l4.03906 5.75"/></g><path fill="none" stroke="#000" stroke-linecap="round" stroke-linejoin="round" stroke-miterlimit="10" stroke-width=".5" d="M182.51563 478.28906l.55468-1.09375"/><g clip-path="url(#h)"><path fill="none" stroke="#000" stroke-linecap="round" stroke-linejoin="round" stroke-miterlimit="10" stroke-width=".5" d="M193.76953 479.92188l6.98047.8164"/></g><g clip-path="url(#i)"><path fill="none" stroke="#000" stroke-linecap="round" stroke-linejoin="round" stroke-miterlimit="10" stroke-width=".5" d="M210.82813 483.83203l-.50391-7.00781"/></g><g clip-path="url(#j)"><path fill="none" stroke="#000" stroke-linecap="round" stroke-linejoin="round" stroke-miterlimit="10" stroke-width=".5" d="M226.58594 482.58203l-5.39063-4.50781"/></g><g clip-path="url(#k)"><path fill="none" stroke="#000" stroke-linecap="round" stroke-linejoin="round" stroke-miterlimit="10" stroke-width=".5" d="M240.71094 480.57813l-7.01172-.4961"/></g><g clip-path="url(#l)"><path fill="none" stroke="#000" stroke-linecap="round" stroke-linejoin="round" stroke-miterlimit="10" stroke-width=".5" d="M239.6914 480.5039l.4961 1.1211"/></g><g clip-path="url(#m)"><path fill="none" stroke="#000" stroke-linecap="round" stroke-linejoin="round" stroke-miterlimit="10" stroke-width=".5" d="M253.85938 479.23047l-6.67579 2.19531"/></g><g clip-path="url(#n)"><path fill="none" stroke="#000" stroke-linecap="round" stroke-linejoin="round" stroke-miterlimit="10" stroke-width=".5" d="M252.88672 479.55078l.88672.84766"/></g><g clip-path="url(#o)"><path fill="none" stroke="#000" stroke-linecap="round" stroke-linejoin="round" stroke-miterlimit="10" stroke-width=".5" d="M266.92969 478.66406l-6.1875 3.33203"/></g><g clip-path="url(#p)"><path fill="none" stroke="#000" stroke-linecap="round" stroke-linejoin="round" stroke-miterlimit="10" stroke-width=".5" d="M266.02734 479.14844l1.02344.67969"/></g><g clip-path="url(#q)"><path fill="none" stroke="#000" stroke-linecap="round" stroke-linejoin="round" stroke-miterlimit="10" stroke-width=".5" d="M280.30078 478.77344L274 481.88672"/></g><g clip-path="url(#r)"><path fill="none" stroke="#000" stroke-linecap="round" stroke-linejoin="round" stroke-miterlimit="10" stroke-width=".5" d="M280.30078 478.77344l1.99219 1.42969"/></g><g clip-path="url(#s)"><path fill="none" stroke="#000" stroke-linecap="round" stroke-linejoin="round" stroke-miterlimit="10" stroke-width=".5" d="M293.79688 479.20703l-6.66016 2.24219"/></g><g clip-path="url(#t)"><path fill="none" stroke="#000" stroke-linecap="round" stroke-linejoin="round" stroke-miterlimit="10" stroke-width=".5" d="M293.79688 479.20703l1.78125 1.6875"/></g><g clip-path="url(#u)"><path fill="none" stroke="#000" stroke-linecap="round" stroke-linejoin="round" stroke-miterlimit="10" stroke-width=".5" d="M307.26953 479.91406l-6.97656.82813"/></g><g clip-path="url(#v)"><path fill="none" stroke="#000" stroke-linecap="round" stroke-linejoin="round" stroke-miterlimit="10" stroke-width=".5" d="M307.26953 479.91406l1.39844 2.01563"/></g><g clip-path="url(#w)"><path fill="none" stroke="#000" stroke-linecap="round" stroke-linejoin="round" stroke-miterlimit="10" stroke-width=".5" d="M320.51172 481.14844l-6.83203-1.63672"/></g><g clip-path="url(#x)"><path fill="none" stroke="#000" stroke-linecap="round" stroke-linejoin="round" stroke-miterlimit="10" stroke-width=".5" d="M319.51953 480.91016l.3086 1.1875"/></g><g clip-path="url(#y)"><path fill="none" stroke="#000" stroke-linecap="round" stroke-linejoin="round" stroke-miterlimit="10" stroke-width=".5" d="M333.80078 479.39844l-6.77734 1.86328"/></g><g clip-path="url(#z)"><path fill="none" stroke="#000" stroke-linecap="round" stroke-linejoin="round" stroke-miterlimit="10" stroke-width=".5" d="M333.80078 479.39844l1.6836 1.78125"/></g><g clip-path="url(#A)"><path fill="none" stroke="#000" stroke-linecap="round" stroke-linejoin="round" stroke-miterlimit="10" stroke-width=".5" d="M346.0039 477.65234l-4.55468 5.35157"/></g><path fill="none" stroke="#000" stroke-linecap="round" stroke-linejoin="round" stroke-miterlimit="10" stroke-width=".5" d="M346.0039 477.65234l2.39844.53125"/><g clip-path="url(#B)"><path fill="none" stroke="#000" stroke-linecap="round" stroke-linejoin="round" stroke-miterlimit="10" stroke-width=".5" d="M359.375 477.70313l-4.66797 5.25"/></g><path fill="none" stroke="#000" stroke-linecap="round" stroke-linejoin="round" stroke-miterlimit="10" stroke-width=".5" d="M358.69531 478.46875l1.19531.28906"/><g clip-path="url(#C)"><path fill="none" stroke="#000" stroke-linecap="round" stroke-linejoin="round" stroke-miterlimit="10" stroke-width=".5" d="M373.78906 479.58594l-6.86719 1.48828"/></g><g clip-path="url(#D)"><path fill="none" stroke="#000" stroke-linecap="round" stroke-linejoin="round" stroke-miterlimit="10" stroke-width=".5" d="M372.78906 479.80078l.79297.9375"/></g><g clip-path="url(#E)"><path fill="none" stroke="#000" stroke-linecap="round" stroke-linejoin="round" stroke-miterlimit="10" stroke-width=".5" d="M387.13281 479.72656l-6.92187 1.20313"/></g><g clip-path="url(#F)"><path fill="none" stroke="#000" stroke-linecap="round" stroke-linejoin="round" stroke-miterlimit="10" stroke-width=".5" d="M387.13281 479.72656l1.5039 1.9414"/></g><g clip-path="url(#G)"><path fill="none" stroke="#000" stroke-linecap="round" stroke-linejoin="round" stroke-miterlimit="10" stroke-width=".5" d="M399.70703 478.10547l-5.4414 4.44922"/></g><path fill="none" stroke="#000" stroke-linecap="round" stroke-linejoin="round" stroke-miterlimit="10" stroke-width=".5" d="M399.70703 478.10547l2.26172.94531"/><g clip-path="url(#H)"><path fill="none" stroke="#000" stroke-linecap="round" stroke-linejoin="round" stroke-miterlimit="10" stroke-width=".5" d="M412.01953 477.26563l-3.4375 6.1289"/></g><path fill="none" stroke="#000" stroke-linecap="round" stroke-linejoin="round" stroke-miterlimit="10" stroke-width=".5" d="M411.51953 478.15625l1.22656.02734"/><g clip-path="url(#I)"><path fill="none" stroke="#000" stroke-linecap="round" stroke-linejoin="round" stroke-miterlimit="10" stroke-width=".5" d="M426.6875 478.6211l-6.14063 3.41796"/></g><g clip-path="url(#J)"><path fill="none" stroke="#000" stroke-linecap="round" stroke-linejoin="round" stroke-miterlimit="10" stroke-width=".5" d="M425.79297 479.11719l1.03125.66406"/></g><g clip-path="url(#K)"><path fill="none" stroke="#000" stroke-linecap="round" stroke-linejoin="round" stroke-miterlimit="10" stroke-width=".5" d="M439.83203 478.34766l-5.80078 3.96484"/></g><path fill="none" stroke="#000" stroke-linecap="round" stroke-linejoin="round" stroke-miterlimit="10" stroke-width=".5" d="M439.83203 478.34766l2.17188 1.13672"/><g clip-path="url(#L)"><path fill="none" stroke="#000" stroke-linecap="round" stroke-linejoin="round" stroke-miterlimit="10" stroke-width=".5" d="M451.30078 476.97656l-2.10547 6.70313"/></g><path fill="none" stroke="#000" stroke-linecap="round" stroke-linejoin="round" stroke-miterlimit="10" stroke-width=".5" d="M450.99219 477.95313l1.20703-.22657"/><g clip-path="url(#M)"><path fill="none" stroke="#000" stroke-linecap="round" stroke-linejoin="round" stroke-miterlimit="10" stroke-width=".5" d="M464.98828 477.11719l-2.85547 6.42187"/></g><path fill="none" stroke="#000" stroke-linecap="round" stroke-linejoin="round" stroke-miterlimit="10" stroke-width=".5" d="M464.98828 477.11719l2.44922-.17188"/><g clip-path="url(#N)"><path fill="none" stroke="#000" stroke-linecap="round" stroke-linejoin="round" stroke-miterlimit="10" stroke-width=".5" d="M146.91406 465.05078l-5.82812 3.92578"/></g><path fill="none" stroke="#000" stroke-linecap="round" stroke-linejoin="round" stroke-miterlimit="10" stroke-width=".5" d="M146.0664 465.6211l1.08204.57812m12.47656-1.83203l-4.6211 5.29297m3.94923-4.52344l1.1953.27734m12.5625-1.23047l-4.16405 5.66016m3.55859-4.83594l1.21484.17578m12.92188-.82812l-4.59375 5.3164m3.92578-4.54296l1.19531.26953m13.94922 1.0039l-6.91797 1.22266m5.91406-1.04297l.75391.96485m12.28125 2.22656l-4.34766-5.51953m3.71485 4.71484l-.4961 1.125m14.32422-.23047l-4.10937-5.69922m3.51172 4.8711l-.54297 1.10156m15.57031-1.60938L234.03516 465.5m5.41797 2.58594l.05468 1.22656m14.45703-3l-6.88672 1.40234m5.88282-1.19921l.78125.94921m13.10547-2.2578l-6.02735 3.61327m5.15235-3.08593l1.05078.6328m12.88672-1.53124l-5.51953 4.35547m4.71484-3.72266l1.125.4961m13.48437-.28907l-6.49609 2.67578m5.55078-2.28906l.94531.78516m13.55078-.28907l-6.96875.91407m5.95313-.78125l.71094.99609m13.57422-1.39844l-6.87891 1.44922m6.8789-1.44922l1.57422 1.8789m11.78907-1.57812l-6.97657.84766m6.97657-.84766l1.40625 2.01172m11.84375-.79297l-6.84375-1.58984m6.84375 1.58984l.63281 2.3711m12.58984-4.28516l-6.66015 2.23828m5.6914-1.91406l.89063.84375m13.17187-1.6836l-6.21875 3.26954m5.31641-2.79297l1.01172.6914m13.60156.73829l-7.00781-.54297m7.00781.54297l.98047 2.24609m12.3164-2.94922l-6.97265.86328m6.97266-.86328l1.41015 2.00781m-2.42578-1.8828l.70703 1.0039m13.6289-1.08594l-6.98437.77734m6.98438-.77734l1.38672 2.02344m-2.40235-1.91016l.69141 1.01172m13.60937-.1289l-6.92187-1.21485m6.92187 1.21484l.75782 2.33594m12.60156-2.70312l-7.01172-.48047m7.01172.48047l1 2.23828m-2.01953-2.3086l.5 1.1211m12.35547-4.16016l-4.05469 5.73828m3.46484-4.90234l1.21875.15234m11.06641 5.3711l-.8125-6.98047m.69531 5.96484l-1.01172.69922"/><g clip-path="url(#O)"><path fill="none" stroke="#000" stroke-linecap="round" stroke-linejoin="round" stroke-miterlimit="10" stroke-width=".5" d="M147.11719 452.07422l-6.23438 3.25"/></g><path fill="none" stroke="#000" stroke-linecap="round" stroke-linejoin="round" stroke-miterlimit="10" stroke-width=".5" d="M146.21094 452.54688l1.00781.6953m13.3711-.8203l-6.54688 2.55468m5.59375-2.1836l.92969.80079m13.26172-1.35547l-6.39454 2.91797m6.39453-2.91797l1.94532 1.4961m11.59375-.83594L180.52344 454.5m6.84375-1.60156l1.61328 1.84765m11.79297-1.08984l-7.02735.08594m6.00391-.07422l.58984 1.07812m13.63672-.17187l-6.80469-1.75m5.81641 1.4961l.28906 1.1914m13.97657-.79297l-6.72657-2.03906m5.7461 1.74219l.23828 1.20312m13.78906-.26563l-6.1914-3.3203m5.29296 2.83593l-.0039 1.22656m14.625-2.13672l-7.00781-.53515m5.98828.46093l.49218 1.1211m13.7461-2.17969l-6.8125 1.73438m5.82031-1.48047l.82422.90625m13.26953-1.7539l-6.38672 2.92187m5.45703-2.5l.97657.74609m13.58593.38281l-7.02343-.17969m19.5703 2.28516L301.03907 451.5m19.4336 1.22266l-6.75391 1.94921m5.76953-1.66406l.85547.8789m13.23438-1.70702l-6.33594 3.03515m5.41406-2.59375l.98828.73047m13.39453-.82031l-6.625 2.33594m5.66016-1.9961l.90625.82813m13.5664-.2539l-7.01171.5078m5.99218-.43359l.65235 1.03906m10.15625-4.375l.03906 7.02735m-.03125-6.0039l1.07813-.58204m11.6328-.38672l1.23048 6.91797m-1.05078-5.91016l.96484-.7578m16.04297 4.53124l-6.51172-2.64062m5.5664 2.2539l.125 1.22266m14.14454-3.45703L407.03906 455m20.02344-1.99219l-6.89062 1.38281m5.88671-1.18359l.77735.94922M439.05469 456.5l-4.2461-5.60156m4.2461 5.60156l-1.03125 2.22656m15.73828-5.03906l-7.02734.01953m6.0039-.01562l.57813 1.08203m9.84765 2.41797l.79297-6.98438m-.79297 6.98438l-2.28125.89843"/><g clip-path="url(#P)"><path fill="none" stroke="#000" stroke-linecap="round" stroke-linejoin="round" stroke-miterlimit="10" stroke-width=".5" d="M147.0664 438.66797l-6.1328 3.4336"/></g><path fill="none" stroke="#000" stroke-linecap="round" stroke-linejoin="round" stroke-miterlimit="10" stroke-width=".5" d="M147.0664 438.66797l2.0625 1.32812m11.64454-.22656l-6.91797 1.22656m6.91797-1.22656l1.51172 1.9336m11.82812-.8672l-6.96875-.90234m6.96875.90235l.86719 2.29297m12.47656-2.64454l-7.02344-.20312m7.02344.20312l1.08984 2.19922m12.16797-1.66797l-6.91015-1.26171m6.91015 1.26171l.7461 2.33594m12.5586-2.26953l-6.88673-1.39453m6.88672 1.39453l.69922 2.35156m12.53516-2.03515l-6.72657-2.02735m6.72657 2.02735l.47656 2.40625m12.89062-2.60157l-6.83203-1.64062m6.83203 1.64062l.61328 2.37891m12.79688-3.30078l-7.02344.20312m6.0039-.17187l.60548 1.0664m13.73047-.90234l-7.02344-.1875m6 .16016l.54687 1.09765m13.75-.60937l-6.9414-1.10938m5.92969.94922l.39843 1.16016m13.75782-.34766l-6.60157-2.41015m5.64063 2.0586l.17187 1.21483m13.92188-.4453l-6.23438-3.2461m5.32813 2.77344L306 442.76172m13.85938-.20703l-5.52735-4.34375m4.72266 3.71093l-.21485 1.20704m14.57422-4.57032l-6.0039 3.65235m5.1289-3.1211l1.05469.625m12.15625-2.20312l-4.04687 5.74219m3.45703-4.90625l1.21875.15234m12.26562-1.24219l-3.20703 6.2539m2.74219-5.34374l1.22656-.01953m10.98828-1.27735l-.07422 7.02735m.0625-6.00782l1.08985-.5625m11.67578-.41796l1.04297 6.94921m-.89063-5.9375l.98828-.73046m10.38672.54687l4.6211 5.28906m-3.94922-4.51953l.4375-1.14453m11.0078 3.22656l7.01563-.41406m-5.99218.35547l-.64063-1.05078m16.52344 4.41406l-.16406-7.02344m.14062 6.00391l-1.07031.60156m15.23437.30078l-1.8164-6.78906m1.8164 6.78906l-1.79296 1.67188m17.66796-4.4961l-6.93359-1.14062m5.92188.97656l.39453 1.16016m7.91015.84765l5.10547-4.82812m-4.36328 4.125l-1.16016-.39063"/><g clip-path="url(#Q)"><path fill="none" stroke="#000" stroke-linecap="round" stroke-linejoin="round" stroke-miterlimit="10" stroke-width=".5" d="M147.21875 425.66016l-6.4375 2.8164"/></g><path fill="none" stroke="#000" stroke-linecap="round" stroke-linejoin="round" stroke-miterlimit="10" stroke-width=".5" d="M147.21875 425.66016l1.92578 1.52343m-2.86328-1.11328l.96484.76172m13.46485-.66797l-6.79297 1.8086m6.79297-1.8086l1.67187 1.79688m-2.66015-1.53516l.83593.89844m13.5586-.67969l-6.97656.84766m6.97656-.84766l1.40625 2.01172m11.8711-.92578l-6.89845-1.32422m6.89844 1.32422l.72656 2.34375m12.40625-1.71485l-6.53515-2.58203m6.53515 2.58203l.27735 2.4375m12.77344-1.90625l-6.00782-3.64453m6.00781 3.64453l-.13671 2.44922m13.58593-2.6875l-6.27343-3.16797m5.35937 2.70704l.02734 1.22656m14.4375-1.36719l-6.74609-1.96484m6.7461 1.96484l.5 2.40235m12.47265-1.60547l-6.0586-3.5586m5.17579 3.04297l-.05078 1.22266m14.64453-1.69922l-6.85156-1.57422m6.85156 1.57422l.63672 2.36719m12.71875-2.57813l-6.9336-1.15234m5.92578.98437L280 428.64063m12.46094 1.3203l-3.98828-5.78515m3.40625 4.94531l-.5625 1.08594m15.72265-1.82812l-6.51562-2.6211M306.08984 428l.13282 1.21875m13.32422.36719l-4.90235-5.03516m4.1914 4.30078l-.375 1.16797m13.51954.1914l-3.13672-6.28515m2.67969 5.3711l-.71485 1M344.75 427.0703l-.01953-.20312-.0586-.1914-.09765-.17579-.45703-.375-.1914-.0586-.19923-.01952-.19922.01953-.1914.05859-.46094.375-.09375.17578-.0586.1914-.01952.20313.01953.19922.05859.1914.09375.17579.46094.375.1914.0586.19922.01952.19922-.01953.1914-.0586.45704-.375.09766-.17577.05859-.1914.01953-.19923m12.75-3.48437l-.91797 6.96484m.78516-5.95312l1.14844-.4297m10.92968-.49218l1.82032 6.78516m-1.5547-5.79688l.89454-.83984m12.8711-.26563l.39062 7.01954m-.33594-5.9961l1.05078-.63672m11.24219-.1914l2.32422 6.6289m-2.32422-6.6289l1.66406-1.8047m9.32813 4.66798l6.96875.90234m-5.95313-.76953l-.4336-1.14844m13.04298 2.97266l6.34765-3.01172m-6.34765 3.01172l-1.96875-1.46484m17.14843 3.21875l2.6211-6.51954m-2.6211 6.51954l-2.4375.26171m17.34766-.01953l-.57031-7.0039m.57031 7.0039l-2.0664 1.32422m17.80859-2.59375l-5.42578-4.46484m4.63672 3.8164l-.2422 1.20313"/><g clip-path="url(#R)"><path fill="none" stroke="#000" stroke-linecap="round" stroke-linejoin="round" stroke-miterlimit="10" stroke-width=".5" d="M147.16797 412.23438l-6.33594 3.03515"/></g><path fill="none" stroke="#000" stroke-linecap="round" stroke-linejoin="round" stroke-miterlimit="10" stroke-width=".5" d="M147.16797 412.23438l1.97656 1.45703m11.25-1.62891l-6.16016 3.38281m6.16016-3.38281l2.05469 1.34375m11.625-.34766l-6.88672 1.38672m6.88672-1.38672l1.5586 1.89844m11.80859-1.55469l-6.9922.70313m5.97267-.60156l.68359 1.01953m13.54297.16406l-6.77344-1.86719m5.78516 1.59375l.26953 1.19922m13.25781.49219l-5.22266-4.70313m5.22266 4.70313l-.59766 2.3789m13.8125-2.27343l-5.02343-4.91407m5.02343 4.91407l-.6914 2.35156m14.44922-2.91016l-5.91016-3.80078m5.91016 3.80078l-.20313 2.44532m13.1914-2.01563l-5.2578-4.66016m5.2578 4.66016l-.57421 2.38672m13.96875-2.47266l-5.41406-4.48437m4.625 3.83203l-.2461 1.19922m14.23828-.42188l-5.1914-4.73437m4.4375 4.04687l-.30469 1.1875m14.66016-.85937l-5.76563-4.01563m4.92969 3.4297l-.14844 1.21874m13.63281.08594l-4.42968-5.45703m3.78515 4.66406l-.48047 1.1289m14.84375-.72265l-5.23828-4.67969m4.47656 4l-.29296 1.1914m9.625-.05468l4.2539-5.59375m-3.63672 4.78125l-1.21093-.19922m12.52343-1.8711l7.02344.16798m9.59375-3.58985l.41797 7.01563m-.35938-5.9961l1.04688-.63671m10.0664.51562l4.70704 5.21875m-4.02344-4.46094l.41797-1.15234m11.9414.66797l5.25 4.67187m-5.25-4.67187l.57813-2.38281m13.0586 2.0625l4.60546 5.30859m-4.60547-5.3086l.88282-2.28906m-.21094 3.0625l.8789-2.28906m11.1836 2.16406l5.76562 4.01563m-5.76562-4.01563l.29297-2.4375m.54687 3.02344l.14453-1.21875m12.92578-.02734l4.57813 5.33203m-4.57813-5.33203l.89454-2.28516m11.3125 4.0586l6.79296 1.78906m-6.79296-1.78907l-.5625-2.39062m1.55078 2.64844l-.28125-1.1914m14.30078 4.90233l3.40625-6.14843m-3.40625 6.14843l-2.45313-.04296m2.94922-.85157l-1.22656-.02343m15.84375 1.35546l-.1914-7.02343m.16406 6l-1.06641.60547"/><g clip-path="url(#S)"><path fill="none" stroke="#000" stroke-linecap="round" stroke-linejoin="round" stroke-miterlimit="10" stroke-width=".5" d="M146.77344 398.28125l-5.54688 4.3164"/></g><path fill="none" stroke="#000" stroke-linecap="round" stroke-linejoin="round" stroke-miterlimit="10" stroke-width=".5" d="M146.77344 398.28125l2.23828 1.0039m10.89844-1.21484l-5.19141 4.73438m5.1914-4.73438l2.3125.82422m11.51563-.09375l-6.21875 3.27344m5.3164-2.79688l1.01173.69141m11.41015 3.73047l-2.625-6.51953M184.875 402.75l-.78906.9375m13.40234.25781l-.45703-7.01172m.39063 5.9922l-1.04297.64452m15.5078.1289l-2.625-6.51952m2.2422 5.57031l-.78907.9375m15.70703-.8125l-5.0625-4.8711m5.0625 4.8711l-.67187 2.35938m13.64453-2.04688l-4.3789-5.4961m3.74218 4.69532l-.48828 1.125m14.8789-.73828l-5.2539-4.66797m4.48828 3.98828l-.28906 1.1914m9.98828.19923l3.50781-6.08985m-2.99609 5.20313l-1.22656-.04297m13.26562-4.5664l5.03906 4.89843m-4.30859-4.1836l.34375-1.17968m14.67969-.59766l.16016 7.02344m10.01562-4.91797l6.4375 2.8125m-5.5-2.40234l-.09375-1.22266m12.4336.90234l6.51171 2.63282m-5.5664-2.25l-.12891-1.21875m12.36719 1.21875l6.77344 1.87109m-6.77344-1.8711l-.53125-2.39452m14.92578.67968l4.61719 5.29688m-3.94532-4.52344l.4375-1.14844m12.15625.41797l4.71485 5.21094m-4.02735-4.45313l.41797-1.15234m11.05469 2.89063l7.02344.22265m-6-.1914l-.54297-1.10157m18.35937-1.69922l-4.02343 5.76172m4.02343-5.76172l2.4336.29688m10.07031-.71875l-2.40234 6.60547m2.40234-6.60547l2.42969-.34375m-2.78125 1.30469l1.21484-.17188m12.34375-.82812l-2.1875 6.67968m2.1875-6.67968l2.41797-.41797m11.09375.49219l-2.58203 6.53515m2.58203-6.53515l2.4414-.27735m-2.8164 1.22656l2.4375-.27343m11.21094-.69141l-2.4961 6.5664m2.4961-6.5664l2.4375-.3086m7.10547 6.03516l5.04687-4.88672m-5.04687 4.88672l-2.33594-.75781m3.07031.04688l-1.16797-.37891m13.80078 1.14453l4.94141-4.9961m-4.9414 4.9961l-2.35157-.70703"/><g clip-path="url(#T)"><path fill="none" stroke="#000" stroke-linecap="round" stroke-linejoin="round" stroke-miterlimit="10" stroke-width=".5" d="M146.47266 384.625l-4.94532 4.9961"/></g><path fill="none" stroke="#000" stroke-linecap="round" stroke-linejoin="round" stroke-miterlimit="10" stroke-width=".5" d="M146.47266 384.625l2.34765.70703m9.85156-1.44922l-2.71484 6.48047m2.71484-6.48047l2.44141-.22656m9.96094-.01953l-.89063 6.97265m.89063-6.97265l2.29687-.86719m-2.42578 1.88281l2.29688-.86718m8.84765.35546l3.71094 5.96485m-3.71094-5.96485l1.22657-2.12109m10.5 5.80078l6.88672-1.39453m-5.88282 1.1914l-.78125-.94921m13.54297 2.29297l5.98828-3.67578m-5.11719 3.14062l-1.05859-.6211m19.42969 1.25l-5.86719-3.86327m5.86719 3.86328l-.23047 2.44531m13.97656-3.35938l-6.72656-2.03515m6.72656 2.03515l.47266 2.40625m12.34375-1.39062l-5.73047-4.0664m19.27344.37109l-6.1875 3.32812m5.28906-2.84765l1.01953.68359m13.49219-.41016l-6.78516 1.81641m5.80078-1.55469l.83594.89844m13.57422-.4961l-7.00781.4922m7.00781-.4922l1.30078 2.07813m-2.32031-2.00781l.65234 1.03906m13.40235-2.26172l-6.44532 2.79297m6.44532-2.79297l1.91797 1.52735m-2.85547-1.1211l1.91797 1.52735m11.92578-2.64063l-5.62891 4.20703m5.6289-4.20703l2.21876 1.04688m-3.03516-.4336l2.21875 1.04688m12.58594.01953l-6.97656.84765m6.97656-.84765l1.40625 2.01172m11.71094-.35938l-6.58204-2.45703m6.58204 2.45703l.32421 2.4336m-1.28125-2.78907l.16016 1.21485m14.32031-1.7539l-6.9961-.66798m6.9961.66797l.9414 2.26563m-1.96093-2.36329l.9414 2.26563m13.10157-3.9375l-6.41406 2.8711m6.41406-2.8711l1.9375 1.50781m-2.8711-1.08984l.96876.7539m12.1289-2.58593l-4.10937 5.69922m4.10937-5.69922l2.42969.33203m-3.02734.4961l1.21484.16796m12.46094-1.15234l-3.63672 6.01172m3.63672-6.01172l2.44922.13672m-2.97657.73828l1.22266.0664m12.21484-1.15234l-2.82812 6.4336m2.82812-6.4336l2.44922-.1836m-2.85937 1.1211l2.44531-.1836m10.64063-.96484l-1.54688 6.85547m1.54688-6.85547l2.36718-.64453m-2.59375 1.64063l1.1836-.32032m12.14062-.71875l-1.11328 6.94141m1.11328-6.9414l2.32031-.79298m10.02344 7.75391l.83203-6.98047m-.71093 5.96485l-1.14454.4414m14.33985.57422l.82422-6.98047m-.82422 6.98047l-2.28516.89063m2.40625-1.90625l-1.14453.4453"/><g clip-path="url(#U)"><path fill="none" stroke="#000" stroke-linecap="round" stroke-linejoin="round" stroke-miterlimit="10" stroke-width=".5" d="M146.1211 371.00781l-4.2422 5.60156"/></g><path fill="none" stroke="#000" stroke-linecap="round" stroke-linejoin="round" stroke-miterlimit="10" stroke-width=".5" d="M146.1211 371.00781l2.42187.39063m10.6211-.57813l-3.69923 5.97656m3.69922-5.97656l2.44922.16406m-2.98437.70704l1.22265.08203m11.92188-1.28906l-2.28906 6.64453m2.28906-6.64454l2.42578-.3828m-2.75781 1.35156l2.42187-.38282m10.95313-.66406l-1.7422 6.80469m1.7422-6.80469l2.38672-.57813m-2.64063 1.56641l1.19531-.28906m10.8711-.7539l1.26172 6.91406m-1.26172-6.91407l1.92578-1.52344m8.53125 5.38282l6.98047-.8086m-5.96485.69141l-.69922-1.00781m18.06641 3.86328l-3.15625-6.28125m3.15625 6.28125l-1.41797 2m16.66016-4.92188l-7.01172-.4375m7.01172.4375l1.01562 2.23438m12.29297-2.75781l-7 .60937m7-.60937l1.33594 2.05859m-2.35156-1.96875l.66797 1.02734m13.67578-.78515l-7.02735-.05469m7.02735.05469l1.13672 2.17578m-2.15625-2.1836l1.1328 2.17579m12.96094-3.47266l-6.54296 2.55469m6.54297-2.55469l1.86328 1.59766m-2.8125-1.22657l1.85937 1.59766m11.58985-3.20313l-4.91407 5.02344m4.91406-5.02344l2.35547.69141m-3.0703.03906l1.17968.34766m11.44922-1.91797l-2.10938 6.70313m2.10938-6.70313l2.41406-.44922m-2.71875 1.42578l1.20313-.22656m13.45703-.21875L315 376.62891m4.1914-5.64063l2.42579.3711m-3.03516.44921l1.21485.1836m13.6875.11719l-6.14844 3.39843m6.14844-3.39844l2.05859 1.33985m-2.95313-.84766l1.03125.67188m13.57032-.05469l-6.9297 1.17969m6.9297-1.17969l1.49609 1.9414m-2.5039-1.76952l.74609.97265m13.54297-1.3164l-6.86329 1.52343m6.86329-1.52344l1.59375 1.86329m-2.59375-1.64063l.79687.92969m13.03516-2.30469l-5.89453 3.82422m5.89453-3.82422l2.14453 1.1914m-3.0039-.6328l1.07421.59375m12.76172-1.59375l-5.21875 4.70703m5.21875-4.70704l2.30469.83985m-3.0664-.15235l1.15624.41797m12.53125-1.47265l-4.4414 5.44531m4.4414-5.44531l2.40625.47656m-3.05078.3164l1.20313.23829m12.4414-1.25781l-3.8125 5.89843m3.8125-5.89844l2.44531.20704m-3 .64843l2.44532.21094m11.66015-.90234l-4.28515 5.57031m4.28515-5.57031l2.42188.40625m-3.04297.40234l1.20703.20703m12.82813-.9375l-4.48047 5.41406m4.48046-5.41406l2.40235.49219m11.36328 4.47266l-5.38281-4.51954m5.38281 4.51954l-.51172 2.40234m-.27344-3.0586l-.2539 1.19923m13.69922.0625l-4.07032-5.72657m4.07032 5.72656l-1.10157 2.19532m.50782-3.02735l-1.09766 2.19141"/><g clip-path="url(#V)"><path fill="none" stroke="#000" stroke-linecap="round" stroke-linejoin="round" stroke-miterlimit="10" stroke-width=".5" d="M145.0586 357.14453l-2.1172 6.69922"/></g><path fill="none" stroke="#000" stroke-linecap="round" stroke-linejoin="round" stroke-miterlimit="10" stroke-width=".5" d="M144.75 358.11719l1.20703-.22266m12.14844-.82422l-1.58203 6.84766m1.58203-6.84766l2.3711-.63281m11.28515.73047L169.5 363.8203m2.26172-6.65234l2.42187-.39453m-2.75 1.35937l1.21094-.19531m13.17578-.41406l-3.75 5.9414m3.75-5.9414l2.44531.17969m-2.99218.68359l2.44922.1836m12.07812-.50391l-5.08203 4.85156m5.08203-4.85156l2.33203.77343m-3.07031-.0664l1.16406.38672m13.61328 2.6328l-6.52734-2.60155m6.52734 2.60156l.26953 2.4414m11.03516-.46093l-2.50781-6.5625m2.50781 6.5625l-1.60937 1.85156m1.24609-2.80469l-1.61328 1.84766m17.53906-3.88281l-7.0039-.58204m7.0039.58204l.96875 2.2539m-1.98828-2.33984l.96875 2.2539m13.28125-1.63671l-6.83203-1.64844m6.83203 1.64844l.60938 2.3789m-1.60547-2.61719l.61328 2.375m-1.60547-2.61718l.30469 1.1914m15.08593-1.76562l-7.01172.46094m7.01172-.46094l1.29297 2.08594m-2.3125-2.01954l1.29297 2.08985m-2.3125-2.01953l.64453 1.04297m14.46485-2.25782l-6.51954 2.6211m6.51954-2.6211l1.8789 1.58204m-2.82812-1.20313l1.8789 1.58203m11.6211-3.125l-4.98828 4.94922m4.98828-4.94922l2.34375.72266m-3.07032-.0039l2.34375.72655m11.5547-1.58203l-4.70313 5.21875m4.70312-5.21875l2.38281.59766m-3.0664.16406l1.1914.29688m13.22266-.61329l-5.53516 4.32813m5.53516-4.32813l2.24219.9961m-3.04688-.36719l1.1211.5m13.32812-.6211l-6.19531 3.3125m6.19531-3.3125l2.03906 1.3672m-2.9375-.88282l2.03516 1.36719m12.11328-1.97266l-6.0625 3.5586m6.0625-3.5586L348.84766 360m-2.97266-.76953l1.04297.64453m13.28125-.92188l-6.3164 3.07813m6.3164-3.07813l1.98437 1.44141m11.47266-1.10547l-6.60156 2.40625m6.60156-2.40625l1.82422 1.64453m11.24219-2.17968l-6.10547 3.48046m6.10547-3.48046l2.07421 1.30859m-2.96093-.80469l1.03515.65625m12.80078-1.6875l-5.37109 4.53125m5.3711-4.53125l2.27734.91406m-3.0586-.2539l1.13672.45703m12.58203-1.5l-4.61718 5.29688m4.61718-5.29688l2.39063.5586m-3.0625.21484l2.39062.55469m12.39063-.32422l-6.20703 3.29296m6.20703-3.29296l2.03516 1.375m-2.9375-.89844l2.03515 1.375m12.47656-1.10156l-6.79296 1.78906m6.79296-1.78906l1.66797 1.80468m-2.65625-1.54296l1.66797 1.80078m-2.65625-1.53907l.83203.89844m14.41407.53516l-6.69922-2.1211m6.69922 2.1211l.4414 2.41406m-1.41797-2.72266l.44532 2.41407m13.23046-.96094l-5.46875-4.41406m5.46875 4.41406l-.46484 2.41015M465.5 362.0586l-.46484 2.41016"/><g clip-path="url(#W)"><path fill="none" stroke="#000" stroke-linecap="round" stroke-linejoin="round" stroke-miterlimit="10" stroke-width=".5" d="M145.02344 347.17969l-.01953-.19922-.0586-.19531-.09375-.17579-.46094-.375-.1914-.05859-.19922-.01953-.19922.01953-.1914.0586-.46094.375-.09375.17578-.0586.1953-.01953.19923.01953.19922.0586.1914.09375.17578.46094.375.1914.0586.19922.01953.19922-.01953.1914-.0586.46094-.375.09375-.17578.0586-.1914.01953-.19922"/></g><path fill="none" stroke="#000" stroke-linecap="round" stroke-linejoin="round" stroke-miterlimit="10" stroke-width=".5" d="M158.55469 343.89063l-2.48047 6.57421m2.1211-5.61718l1.21484-.15625m12.57812-.75391l-2.71484 6.48047m2.71484-6.48047l2.4414-.22656m11.29298.4375l-3.5547 6.0586m3.5547-6.0586l2.45312.10156m11.7539.64453l-5.33984 4.5664m5.33985-4.5664l2.28515.89844m-3.0625-.23438l1.14453.44922m13.77735.83594l-6.9961.67188m6.9961-.67188l1.35156 2.04297m-2.3711-1.94531l1.35548 2.04296m11.83593.80079l-4.71093-5.21485m4.71093 5.21485l-.83593 2.30859m.14843-3.0664l-.83593 2.30468m.15234-3.0625l-.41797 1.15235m15.53516-.10547l-5.57422-4.27735m5.57422 4.27735l-.40235 2.41796m-.40625-3.03906l-.40625 2.41797m15.20703-3.34765l-6.92968-1.17579m6.92969 1.17579l.77343 2.32812m-1.78125-2.5l.77344 2.32813m-1.78125-2.5l.38672 1.16406m14.90234-2.21094l-6.84375 1.60547m6.84375-1.60547l1.61328 1.84766m-2.60937-1.61329l1.61719 1.84766m-2.61329-1.61328l.8086.92188m14.08984-2.39454l-6.02734 3.61329m6.02734-3.61329l2.10156 1.26563m-2.98046-.74219l2.10546 1.26563m11.52344-2.5l-4.89844 5.03515m4.89844-5.03515l2.35938.68359m-3.07032.04688l1.17579.34375m13.39843-.39063l-5.99218 3.66797m5.99218-3.66797l2.11328 1.2461m-2.98437-.71094l1.05469.62109m13.17968-1.07422l-6.08984 3.5039m6.08984-3.5039l2.07813 1.30469m-2.96484-.79297l1.03906.65234m12.58203-1.91796l-4.92578 5.01171m4.92578-5.01171l2.35156.6953m-3.07031.03516l1.17578.34766m13.49219-.23047l-6.19531 3.32031m6.1953-3.3203l2.03907 1.36327M345.92188 346l1.01953.6836m13.59765.8164l-6.9961-.64063m6.9961.64063l.94922 2.26172m-1.96484-2.35547l.47265 1.1289m13.82422-1.9375l-6.92969 1.16016m6.9297-1.16015l1.49609 1.9453m-2.50391-1.77733l1.4961 1.9453m12.60937-2.8789l-6.49219 2.6914m6.49219-2.6914l1.89453 1.5586m-2.83984-1.16797l.9453.78125m13.16407-1.48438l-6.1914 3.3164m6.1914-3.3164l2.03906 1.36719m-2.9375-.88281l1.01953.67968m13.3672-.78906l-6.53907 2.5664m6.53906-2.5664l1.86719 1.59766m-2.8164-1.22266l1.86327 1.59375m12.5586-1.46094l-6.85156 1.5547m6.85156-1.5547l1.60156 1.85547m-2.59766-1.63281l1.60157 1.85938m-2.60157-1.63282l.8047.92969m14.57812-.9375l-6.9961.66797m6.9961-.66797l1.35156 2.04688m-2.3711-1.94922l1.35547 2.04687m-2.37109-1.94922l1.35156 2.04688m14.01172-1.95703l-7.02344.09765m7.02344-.09765l1.1836 2.15234m-2.20313-2.13672l1.17969 2.15235m-2.20313-2.13672l1.1797 2.14843m-2.20313-2.13671l.59375 1.07421m15.78906-1.09765l-7.02735.0586"/><g clip-path="url(#X)"><path fill="none" stroke="#000" stroke-linecap="round" stroke-linejoin="round" stroke-miterlimit="10" stroke-width=".5" d="M467.07422 347.14844l1.17187 2.16015"/></g><path fill="none" stroke="#000" stroke-linecap="round" stroke-linejoin="round" stroke-miterlimit="10" stroke-width=".5" d="M466.05469 347.15625l1.16797 2.16016m-2.19141-2.14844l1.16797 2.15625"/><g clip-path="url(#Y)"><path fill="none" stroke="#000" stroke-linecap="round" stroke-linejoin="round" stroke-miterlimit="10" stroke-width=".5" d="M147.51172 333.8086l-7.02344.10937"/></g><path fill="none" stroke="#000" stroke-linecap="round" stroke-linejoin="round" stroke-miterlimit="10" stroke-width=".5" d="M146.49219 333.82422l.59375 1.07422m13.46094-2.41016l-6.46485 2.75m5.52344-2.35156l.95703.76953m12.82813-1.96875l-5.51954 4.35156m5.51953-4.35156l2.2461.98828m11.15625-.8711l-5.69531 4.1172m5.6953-4.1172l2.20313 1.07813m11.60938-.10156l-6.6875 2.16016m6.6875-2.16016l1.76172 1.71094m-2.73828-1.39453l.8828.85156m13.57032-.28125l-7.01562.39062m7.01562-.39062l1.27344 2.09765m-2.29297-2.04296l1.27344 2.09765m11.85547.69922l-4.60157-5.3125m4.60157 5.3125l-.88672 2.28906m.21484-3.0625l-.88281 2.28907m.21484-3.0625l-.88281 2.28906m16.41016-1.89063l-6.34766-3.01953m6.34766 3.01953l.10937 2.45313m-1.03516-2.89063l.10938 2.45313m-1.03125-2.89063l.05469 1.22266m15.42969-1.4961l-6.98829-.71874m6.98828.71875l.92188 2.27343M253 334.1172l.92188 2.27344m-1.94141-2.37891l.92578 2.27344m14.39844-2.98047l-6.9375 1.11719m6.9375-1.1172l1.48047 1.95313m-2.48828-1.79297l1.48046 1.95704m-2.49218-1.79297l.74218.97656m14.25391-2.33985l-6.25781 3.19532m6.25781-3.19531l2.00781 1.40234m-2.92187-.9375l2.01172 1.40234m12.0039-2.23047l-5.83203 3.92188m5.83203-3.92188l2.16407 1.15625m11.5703-.30078l-6.67187 2.21094m6.67188-2.21094l1.77344 1.69531m11.60546-1.48046l-6.80078 1.77734m6.80078-1.77734l1.66016 1.80859m-2.64844-1.54688l1.66016 1.8047m12.54297-2.38282l-6.60156 2.41406m6.60156-2.41406l1.82422 1.64063M332.75 333.0078l1.82813 1.64063m12.64843-1.07422l-7.0039.57812m7.0039-.57812l1.32813 2.0625m-2.34766-1.98047l1.32813 2.0664m13.01953-1.875l-7.02735.02735m7.02735-.02734l1.16015 2.16406m-2.18359-2.16016l.58203 1.08203m13.7539-1.1914l-7.02343.24219m7.02344-.2422l1.22656 2.125m-2.2461-2.08984l1.22266 2.125m12.49219-4.03515l-5.78125 3.99219m5.78125-3.9922l2.17969 1.12891m-3.01953-.54687l1.08984.5625m13.36719-.61328l-6.38672 2.92969m6.38672-2.9297l1.94922 1.48829m11.62109.64453l-6.89844-1.33594m6.89844 1.33594l.71875 2.34766m-1.72266-2.54297l.71875 2.34765m13.65235-2.5078l-7-.625m7 .625l.95312 2.26171m-1.97265-2.35156l.95312 2.26172m-1.97265-2.35157l.95703 2.25782m14.41015-2.39063h-7.02734m7.02734 0l1.15235 2.16797m-2.17578-2.16797l1.15234 2.16797m-2.17578-2.16797l1.15234 2.16797m-2.17187-2.16797l.57422 1.08203m15.78906-1.42187l-6.99219.67969m6.99219-.6797l1.35937 2.04298m-2.375-1.94532l1.35547 2.04688m-2.375-1.94531l1.35938 2.04296m-2.375-1.9453l.67578 1.02343m15.66797-1.50781l-6.94532 1.05469"/><g clip-path="url(#Z)"><path fill="none" stroke="#000" stroke-linecap="round" stroke-linejoin="round" stroke-miterlimit="10" stroke-width=".5" d="M467.03516 333.33594l1.46484 1.96875"/></g><path fill="none" stroke="#000" stroke-linecap="round" stroke-linejoin="round" stroke-miterlimit="10" stroke-width=".5" d="M466.02344 333.48828l1.46484 1.96875m-2.47265-1.8164l1.46093 1.96875"/><g clip-path="url(#aa)"><path fill="none" stroke="#000" stroke-linecap="round" stroke-linejoin="round" stroke-miterlimit="10" stroke-width=".5" d="M147.28906 319.3125l-6.57812 2.46875"/></g><path fill="none" stroke="#000" stroke-linecap="round" stroke-linejoin="round" stroke-miterlimit="10" stroke-width=".5" d="M147.28906 319.3125l1.83985 1.625m11.40625-1.79688l-6.44141 2.8125m6.4414-2.8125l1.92188 1.52735m11.02344-2.17188l-5.70313 4.10547m5.70313-4.10547l2.20312 1.08594m11.59766-.14062l-6.67188 2.21484m6.67188-2.21484l1.77344 1.6914m11.69531-1l-6.98047.83203m6.98047-.83203l1.39844 2.01563m-2.41406-1.89453l.69921 1.0078m13.62891-.28905l-6.97656-.84766m6.97656.84766l.88281 2.28906m-1.89844-2.41406l.88282 2.29296m12.97265-.78125l-6.02343-3.62109m6.02343 3.6211l-.1328 2.44921m-.7461-2.97656l-.1289 2.44922m-.7461-2.97656l-.1289 2.44922m-.7461-2.97657l-.0664 1.22657m16.39062-.54688l-6.78516-1.82031m6.78516 1.82031l.55468 2.39063m-1.53906-2.65625l.55078 2.39062m-1.53906-2.65234l.27344 1.19531m15.13281-1.42969l-7.01953-.29687m7.01953.29687l1.0586 2.21485m-2.08204-2.25782l1.0625 2.21485m-2.08203-2.25781l.53125 1.10546m14.71484-2.0625l-6.79687 1.78907m6.79688-1.78907l1.66406 1.80079m-2.65235-1.53907l1.66407 1.80078m12.01171-3.32812l-5.53906 4.32422m5.53906-4.32422l2.23829.9961m-3.04688-.3672l1.1211.5m12.79687-1.36718l-5.13281 4.80078m5.13281-4.80078l2.32031.79297m-3.0664-.09375l1.16015.39453m12.79688 3.8125l-4.92188-5.01563m4.20313 4.28906l-.36719 1.16797m15.45313-2.97656l-7.02735.0586m7.02735-.0586l1.16796 2.15625m-2.1914-2.14844l.58594 1.07813m13.6953-1.67969l-6.91406 1.2461m6.91407-1.2461l1.51953 1.92578m-2.52344-1.7461l1.51563 1.9297m12.80859-2.08204l-6.92578 1.1875m6.92578-1.1875l1.5039 1.94141m-2.51171-1.76562l1.5039 1.9375m12.71875-2.53907l-6.72265 2.03907m6.72265-2.03907l1.73047 1.7422m-2.70703-1.44532l.86328.8711m13.28906-1.54688l-6.4453 2.79687m6.4453-2.79687l1.92188 1.53125m-2.85938-1.125l.96094.76562m12.88281-1.875l-5.625 4.20703m5.625-4.20703l2.21875 1.04297m-3.03515-.4336l1.10937.52344m12.81641-1.38671l-5.21484 4.71093m4.45703-4.02343l1.15234.41796m13.05469 3.44922l-5.48047-4.39843m5.48047 4.39843l-.46094 2.41016m13.83203-2.48047l-5.59375-4.2539m5.59375 4.2539l-.39453 2.42188m-.42187-3.04297l-.19532 1.21094m14.89844-3.71485l-6.73828 1.9961m6.73828-1.9961l1.71875 1.75m-2.69922-1.46094l.85938.875m13.41406-1.23046l-6.69531 2.1289m6.69531-2.1289l1.7539 1.71484m-2.72656-1.40625l1.75391 1.71484m-2.73047-1.40625l1.75781 1.71875m-2.73046-1.40625l.8789.85547m15.23047-2.125l-6.4414 2.80469"/><g clip-path="url(#ab)"><path fill="none" stroke="#000" stroke-linecap="round" stroke-linejoin="round" stroke-miterlimit="10" stroke-width=".5" d="M466.78125 319.14453l1.92188 1.52735"/></g><g clip-path="url(#ac)"><path fill="none" stroke="#000" stroke-linecap="round" stroke-linejoin="round" stroke-miterlimit="10" stroke-width=".5" d="M465.84375 319.55469l1.92188 1.52344"/></g><path fill="none" stroke="#000" stroke-linecap="round" stroke-linejoin="round" stroke-miterlimit="10" stroke-width=".5" d="M464.91016 319.96094l1.91796 1.52734"/><path fill="#00f" fill-rule="evenodd" d="M450.375 476.52344h8.61719V466.3789H450.375v10.14453"/><path fill="azure" fill-rule="evenodd" d="M452.20703 468.21094h.83594v2.82422h3.28515v-2.82422h.83204v6.48047h-.83204v-2.91407h-3.28515v2.91407h-.83594v-6.48047"/><path fill="#00f" fill-rule="evenodd" d="M272.83984 467.64844h8.6211V457.5039h-8.6211v10.14453"/><path fill="azure" fill-rule="evenodd" d="M274.67578 459.33594h.83203v2.82422h3.28516v-2.82422h.83594v6.48047h-.83594v-2.91797h-3.28516v2.91797h-.83203v-6.48047"/><path fill="#ff3030" fill-rule="evenodd" d="M340.10938 449.89453h7.6953V439.75h-7.6953v10.14453"/><path fill="azure" fill-rule="evenodd" d="M341.94531 441.58203h.83203v5.73828h3.19532v.74219h-4.02735v-6.48047"/><path fill="#ff3030" fill-rule="evenodd" d="M264.66016 436.57813h7.6914v-10.14454h-7.6914v10.14454"/><path fill="azure" fill-rule="evenodd" d="M266.49219 428.26563h.83203v5.74218h3.19531v.73828h-4.02734v-6.48046"/><path fill="#00f" fill-rule="evenodd" d="M392.67578 427.70313h8.6211v-10.14454h-8.6211v10.14454"/><path fill="azure" fill-rule="evenodd" d="M394.51172 419.39063h.83203v2.82421h3.28516v-2.82421h.83203v6.48046h-.83203v-2.91796h-3.28516v2.91796h-.83203v-6.48046"/><path fill="#00f" fill-rule="evenodd" d="M219.58203 409.94922h8.61719v-10.14453h-8.61719v10.14453"/><path fill="azure" fill-rule="evenodd" d="M221.41406 401.63672h.83203v2.82422h3.28907v-2.82422h.83203v6.48047h-.83203v-2.91797h-3.28907v2.91797h-.83203v-6.48047"/><path fill="#00f" fill-rule="evenodd" d="M370.48438 401.07422h8.62109v-10.14844h-8.6211v10.14844"/><path fill="azure" fill-rule="evenodd" d="M372.3164 392.76172h.83594v2.82031h3.28516v-2.82031h.83203v6.47656h-.83203v-2.91406h-3.28516v2.91406h-.83593v-6.47656"/><path fill="#ff3030" fill-rule="evenodd" d="M442.1914 383.32031h7.69532v-10.14844h-7.69531v10.14844"/><path fill="azure" fill-rule="evenodd" d="M444.02734 375.00781h.83204v5.73828h3.1953v.7422h-4.02734v-6.48048"/><path fill="#ff3030" fill-rule="evenodd" d="M277.97266 374.4414h7.6953v-10.14452h-7.6953v10.14453"/><path fill="azure" fill-rule="evenodd" d="M279.8086 366.1289h.83202v5.7422h3.19141v.73827h-4.02344v-6.48046"/><path fill="#ff3030" fill-rule="evenodd" d="M193.64453 347.8125h7.69531v-10.14453h-7.6953v10.14453"/><path fill="azure" fill-rule="evenodd" d="M195.47656 339.5h.83594v5.73828h3.1914v.74219h-4.02734V339.5"/><path fill="#ffffe0" fill-rule="evenodd" d="M150.55078 419.0586h22.17969v-10.19141h-22.17969v10.1914"/><path fill-rule="evenodd" d="M154.05078 410.69922h.50781v6.29297h-.78515v-4.48828h-1.39063v-.5547l.5625-.0664.25-.05469.23047-.08984.20313-.14062.17578-.21094.14062-.29297.10547-.39453m4.8125 0l.23047.01953.21875.05469.20703.08984.19922.1211.1836.14843.17187.17578.30078.41797.24219.4961.17969.54687.11328.57813.03906.58984-.03906.59375-.11328.58594-.1797.55469-.24218.5-.30078.42968-.17188.17969-.18359.15234-.19922.1211-.20703.09375-.21875.0586-.23047.01952-.22656-.01953-.21875-.0586-.21094-.09374-.19531-.1211-.1836-.15234-.17187-.17969-.30078-.42969-.2461-.5-.17968-.55468-.10938-.58594-.03906-.59375h.83203l.03125.5625.08203.50781.125.4414.16406.375.1875.30079.21094.22266.22266.13671.22656.04688.22656-.04688.22266-.13671.21094-.22266.1914-.30078.16407-.375.125-.4414.08203-.50782.02734-.5625-.02734-.5586-.08203-.5039-.125-.4336-.16407-.36718-.1914-.28906-.21094-.21485-.22266-.13281-.22656-.04297-.22656.04297-.22266.13281-.21094.21485-.1875.28906-.16406.36719-.125.43359-.08203.5039-.03125.5586h-.83203l.03906-.58984.10938-.57813.17969-.54687.24609-.4961.30078-.41797.17188-.17578.18359-.14844.19531-.12109.21094-.08984.21875-.05469.22656-.01953m5.09375 0h.50781v6.29297h-.78515v-4.48828h-1.39063v-.5547l.5586-.0664.2539-.05469.23047-.08984.20313-.14062.17187-.21094.14453-.29297.10547-.39453m2.82422 2.17578h.78516l.01953-.3164.0586-.28516.10155-.2539.13672-.21485.1836-.17578.22265-.12891.26563-.07813.3086-.02734.23827.01953.22266.0625.20312.10156.1797.14063.14843.17188.11328.20703.07031.23437.02735.26563-.02344.26562-.0664.22656-.10938.19141-.15625.17188-.19922.16015-.2461.16797-.63671.39063-.53516.3125-.4375.3164-.34766.32422-.26172.33594-.1914.35156-.125.36719-.07031.39453-.01953.41797h4.21093v-.73828h-3.33203l.08203-.28516.11328-.23828.14844-.19922.1875-.17969.23047-.17187.28125-.17578.71484-.41797.41797-.20313.34375-.23047.28125-.2539.21875-.26563.16406-.27734.11329-.28516.0625-.28515.01953-.28125-.04297-.38282-.11719-.34765-.1914-.3086-.25-.26171-.30079-.21485-.34765-.15625-.3789-.09765-.40626-.03516-.4375.03125-.39844.10156-.35156.16406-.30469.23438-.25.30469-.1875.375-.11328.4453-.03906.51954"/><path fill="#ffffe0" fill-rule="evenodd" d="M269.05078 414.6211h22.17969v-10.19532h-22.17969v10.19531"/><path fill-rule="evenodd" d="M272.55078 406.26172h.51172v6.29297h-.78906v-4.48828h-1.38672v-.5547l.5586-.0664.25-.05469.23046-.08984.20313-.14062.17578-.21094.14062-.29297.10547-.39453m4.8125 0l.23047.01953.21875.05469.20703.08984.19922.1211.1836.14843.17187.17578.30078.41797.24219.4961.17969.54296.11328.58204.03906.58984-.03906.59375-.11329.58203-.17968.55469-.24219.5039-.30078.42579-.17188.17968-.18359.15625-.19922.1211-.20703.09375-.21875.05469-.23047.01953-.22656-.01954-.21875-.05468-.21094-.09375-.19531-.1211-.1836-.15625-.17187-.17968-.30078-.42579-.24219-.5039-.17969-.55469-.11328-.58203-.03906-.59375h.83594l.02734.5625.08203.50781.125.4414.16406.375.19141.30079.21094.22266.22265.13671.22266.04688.22656-.04688.22266-.13671.21094-.22266.1914-.30078.16407-.375.125-.4414.08203-.50782.02734-.5625-.02734-.5625-.08203-.5-.125-.4336-.16407-.36718-.1914-.29297-.21094-.21094-.22266-.13281-.22656-.04688-.22265.04688-.22266.13281-.21094.21094-.1914.29297-.16407.36719-.125.43359-.08203.5-.02734.5625h-.83594l.03906-.58984.11328-.58204.1797-.54296.24218-.4961.30078-.41797.17188-.17578.18359-.14844.19531-.12109.21094-.08984.21875-.05469.22656-.01953m5.09375 0h.50781v6.29297h-.78515v-4.48828h-1.39063v-.5547l.5625-.0664.25-.05469.23047-.08984.20313-.14062.17578-.21094.14062-.29297.10547-.39453m2.82422 2.17578h.78516l.01953-.3164.0586-.28907.10155-.25.14063-.21484.17969-.17578.22265-.12891.26563-.08203.3086-.02735.23827.02344.22266.0625.20312.10156.1797.13672.14843.17579.11328.20312.07422.23828.02344.26172-.02344.26953-.0625.22656-.11328.19141-.15235.17188-.20312.16015-.2461.16797-.6328.38672-.53907.3125-.4375.32031-.34766.32422-.26171.33594-.19141.34765-.125.3711-.0664.39453-.02344.41797h4.21093v-.73828h-3.33203l.08594-.28516.11328-.23828.14844-.19922.1875-.1836.23047-.16796.27734-.17578.71875-.41797.41406-.20703.34375-.23047.28125-.25.21875-.26563.16406-.28125.11329-.28125.0625-.28515.01953-.28125-.03906-.38282-.1211-.34765-.1914-.3086-.25-.26562-.30079-.21094-.34765-.16015-.3789-.09766-.40626-.03125-.4336.03125-.39843.09765-.35547.16797-.30469.23438-.25.30469-.18359.375-.11719.4453-.03906.51954"/><path fill="#ffffe0" fill-rule="evenodd" d="M424.95313 427.9336h22.17968v-10.19141h-22.17969v10.1914"/><path fill-rule="evenodd" d="M428.45313 419.57422h.5078v6.29687h-.78515v-4.49218h-1.39062v-.5547l.5625-.0625.25-.05468.23046-.08984.20313-.14063.17578-.21094.14063-.29687.10546-.39453m4.8125 0l.23047.01953.21875.05469.20704.08984.19921.1211.1836.15234.17187.17187.30078.42188.2422.49219.17968.54687.11328.57813.03906.59375-.03906.59375-.11328.58203-.17969.55469-.24219.5-.30078.42968-.17187.17969-.1836.15234-.19921.125-.20704.08985-.21875.0586-.23046.01952-.22657-.01953-.21875-.0586-.21094-.08984-.1953-.125-.1836-.15234-.17188-.17969-.30078-.42969-.24219-.5-.18359-.55468-.10937-.58203-.03907-.59375h.83204l.03125.5625.08203.5039.125.44531.16406.375.1875.30079.21094.21875.22265.13671.22656.04688.22657-.04688.22265-.13671.21094-.21875.1914-.30079.16407-.375.125-.4453.08203-.50391.02735-.5625-.02735-.5625-.08203-.5-.125-.4375-.16406-.36329-.1914-.29296-.21095-.21485-.22265-.13281-.22656-.04297-.22657.04297-.22265.13281-.21094.21485-.1875.29296-.16406.36329-.125.4375-.08204.5-.03125.5625h-.83203l.03907-.59375.10937-.57813.1836-.54687.24218-.4922.30078-.42187.17188-.17187.1836-.15235.1953-.12109.21094-.08984.21875-.05469.22656-.01953m5.09375 0h.50782v6.29687h-.78516v-4.49218h-1.39062v-.5547l.5625-.0625.25-.05468.23046-.08984.20313-.14063.17188-.21094.14453-.29687.10546-.39453m2.82422 2.17578h.78516l.01953-.3164.0586-.28516.10156-.2539.13672-.21485.18359-.17188.22266-.1289.26562-.08204.3086-.02734.23828.01953.22265.0625.20313.10156.17969.14063.14843.17188.11328.20703.07032.23437.02734.26563-.02344.26953-.0664.22265-.10938.19141-.15234.17188-.20313.16406-.2461.16406-.6328.39063-.53907.3125-.4375.3164-.34765.32422-.26172.33594-.1914.35156-.125.3711-.07032.39062-.01953.42187h4.21094v-.74218h-3.33204l.08204-.28516.11718-.23438.14454-.20312.1875-.17969.23046-.17187.28125-.17578.71485-.41407.41797-.20703.34375-.23047.28125-.25.21875-.26953.16406-.27734.11328-.28516.0625-.28515.01953-.28125-.04297-.38282-.11719-.34765-.1914-.3086-.25-.26171-.30078-.21094-.34766-.16016-.3789-.09765-.40625-.03516-.4375.03515-.39454.09766-.35546.16797-.3047.23438-.25.30078-.18359.375-.11718.4453-.03907.51954"/><path fill="#ffffe0" fill-rule="evenodd" d="M186.40234 384.66016h22.1797v-10.19141h-22.1797v10.1914"/><path fill-rule="evenodd" d="M189.90234 376.30078h.50782v6.29688h-.78516v-4.4922h-1.39063v-.55468l.5586-.0625.2539-.05469.23047-.08984.20313-.14063.17187-.21093.14453-.29688.10547-.39453m4.8125 0l.23047.01953.21875.05469.20703.08984.19532.1211.18359.14844.17188.17578.30468.42187.24219.49219.17969.54687.10937.57813.03906.59375-.03906.59375-.10937.58203-.17969.55469-.24219.5-.30469.42969-.17187.17968-.1836.15235-.1953.125-.20704.08984-.21875.0586-.23047.01952-.23047-.01953-.21875-.05859-.20703-.08984-.1953-.125-.1875-.15235-.16798-.17969-.30469-.42968-.24218-.5-.17969-.55469-.10938-.58203-.03906-.59375h.83203l.02735.5625.08203.5039.1289.44532.16016.375.1914.30078.21095.21875.22265.13672.22656.04687.22657-.04687.22265-.13672.21094-.21875.1914-.30078.16016-.375.1289-.44531.07813-.50391.03125-.5625-.03125-.5625-.07812-.5-.1289-.4375-.16016-.36328-.19141-.29297-.21094-.21485-.22265-.1328-.22657-.04298-.22656.04297-.22266.13281-.21093.21485-.1914.29297-.16017.36328-.1289.4375-.08203.5-.02735.5625h-.83203l.03906-.59375.10938-.57813.17969-.54687.24219-.49219.30468-.42187.16797-.17579.1875-.14843.19531-.1211.20703-.08984.21875-.05469.23047-.01953m5.08985 0h.51172v6.29688h-.78907v-4.4922h-1.38672v-.55468l.5586-.0625.2539-.05469.22657-.08984.20312-.14063.17578-.21093.14063-.29688.10547-.39453m2.82422 2.17578h.78906l.01953-.3164.0586-.28516.09765-.2539.14063-.21485.17968-.17188.22656-.1289.26172-.08203.3086-.02735.23828.01954.22266.0625.20703.10156.17968.14062.14844.17188.11328.20703.07031.23437.02344.26563-.01953.26953-.0664.22266-.10938.1914-.15625.17188-.19922.16406-.25.16406-.63281.39063-.53516.3125-.4375.3164-.34765.32422-.26563.33594-.1875.35156-.125.3711-.07031.39062-.01953.42188h4.21094v-.7422h-3.33204l.08203-.28515.11329-.23437.14843-.20313.1875-.17969.23047-.17187.27735-.17578.71875-.41406.41406-.20704.34766-.23046.28125-.25.21875-.26954.16406-.27734.10937-.28515.0664-.28516.01954-.28125-.04297-.38281-.1211-.34766-.1875-.3086-.25-.26171-.30468-.21094-.34375-.16016-.38281-.09765-.40625-.03516-.4336.03516-.39843.09765-.35547.16797-.30469.23438-.2461.30078-.1875.375-.11718.44531-.03906.51953"/><path fill="#ffffe0" fill-rule="evenodd" d="M249.40625 361.35938h22.1836v-10.19141h-22.1836v10.1914"/><path fill-rule="evenodd" d="M252.90625 353h.51172v6.29297h-.78906v-4.48828h-1.38672V354.25l.5586-.0664.2539-.05079.22656-.08984.20313-.14453.17578-.20703.14062-.29688.10547-.39453m4.8164 0l.22657.01953.21875.05469.21094.08984.1953.1211.1836.14843.17188.17579.30078.42187.24219.49219.17968.54687.11329.57813.03906.58984-.03906.59375-.11329.58594-.17968.55469-.2422.5-.30077.42968-.17188.1797-.1836.15233-.1953.125-.21094.08985-.21875.0586-.22656.01952-.23047-.01953-.21875-.0586-.20703-.08983-.19922-.125-.1836-.15235-.17187-.17969-.30078-.42968-.24219-.5-.17969-.5547-.11328-.58593-.03906-.59375h.83594l.02734.5664.08203.50391.125.44141.16406.375.19141.30078.21094.22266.22265.13672.22657.04687.22656-.04687.22265-.13672.20704-.22266.1914-.30078.16406-.375.125-.4414.08204-.50391.02734-.5664-.02734-.5586-.08204-.5-.125-.4375-.16406-.36328-.1914-.29297-.20704-.21485-.22265-.1328-.22656-.04298-.22657.04297-.22265.13281-.21094.21485-.1914.29297-.16407.36328-.125.4375-.08203.5-.02734.5586h-.83594l.03906-.58985.11328-.57813.17969-.54687.24219-.49219.30078-.42188.17187-.17578.1836-.14843.19922-.1211.20703-.08984.21875-.05469.23047-.01953m5.08984 0h.50781v6.29297h-.78515v-4.48828h-1.39063V354.25l.5625-.0664.25-.05079.23047-.08984.20313-.14453.17578-.20703.14062-.29688.10547-.39453m2.82422 2.17578h.78515l.01954-.3164.05859-.28516.10156-.2539.14063-.21485.17969-.17578.22265-.1289.26563-.07813.30859-.02735.23828.01953.22266.0625.20312.10157.17969.14062.14844.17188.11328.20703.07422.23437.02344.26563-.02344.26953-.0625.22265-.11328.19141-.15235.17188-.20312.16406-.2461.16406-.6328.39063-.53907.3125-.4375.3164-.34766.32422-.26172.33594-.1914.35156-.125.3711-.0664.39062-.02345.41797h4.21094v-.73828H266.375l.08594-.28516.11328-.23437.14844-.20313.1875-.17969.23046-.17187.27735-.17578.71875-.41797.41406-.20313.34375-.23046.28125-.25391.22266-.26563.16015-.27734.11329-.28516.0625-.28515.01953-.28125-.03907-.38281-.12109-.34766-.1914-.3086-.25-.26171-.30079-.21485-.34765-.15625-.37891-.09765-.40625-.03516-.4336.03125-.39843.10156-.35547.16406-.30469.23438-.25.30469-.1836.375-.11718.44531-.03906.51953"/></g></defs><use xlink:href="#ad"/></svg>