<svg xmlns="http://www.w3.org/2000/svg" role="img" xmlns:xlink="http://www.w3.org/1999/xlink" viewBox="142.45 309.95 326.84 171.84"><defs><clipPath id="a"><path d="M144 311.67188h1v168.65625h-1zm0 0"/></clipPath><clipPath id="b"><path d="M144 311.67188h324v168.65625H144zm0 0"/></clipPath><clipPath id="c"><path d="M467 311.67188h1v168.65625h-1zm0 0"/></clipPath><clipPath id="d"><path d="M144 476h2v4.32813h-2zm0 0"/></clipPath><clipPath id="e"><path d="M156 476h3v4.32813h-3zm0 0"/></clipPath><clipPath id="f"><path d="M169 476h3v4.32813h-3zm0 0"/></clipPath><clipPath id="g"><path d="M182 476h4v4.32813h-4zm0 0"/></clipPath><clipPath id="h"><path d="M196 476h2v4.32813h-2zm0 0"/></clipPath><clipPath id="i"><path d="M209 476h4v4.32813h-4zm0 0"/></clipPath><clipPath id="j"><path d="M220 478h8v2.32813h-8zm0 0"/></clipPath><clipPath id="k"><path d="M233 479h8v1.32813h-8zm0 0"/></clipPath><clipPath id="l"><path d="M239 479h2v1.32813h-2zm0 0"/></clipPath><clipPath id="m"><path d="M247 478h7v2.32813h-7zm0 0"/></clipPath><clipPath id="n"><path d="M252 479h3v1.32813h-3zm0 0"/></clipPath><clipPath id="o"><path d="M260 478h7v2.32813h-7zm0 0"/></clipPath><clipPath id="p"><path d="M273 478h8v2.32813h-8zm0 0"/></clipPath><clipPath id="q"><path d="M286 478h8v2.32813h-8zm0 0"/></clipPath><clipPath id="r"><path d="M293 478h3v2.32813h-3zm0 0"/></clipPath><clipPath id="s"><path d="M300 479h8v1.32813h-8zm0 0"/></clipPath><clipPath id="t"><path d="M305 479h3v1.32813h-3zm0 0"/></clipPath><clipPath id="u"><path d="M313 479h8v1.32813h-8zm0 0"/></clipPath><clipPath id="v"><path d="M319 480h2v.32813h-2zm0 0"/></clipPath><clipPath id="w"><path d="M326 479h9v1.32813h-9zm0 0"/></clipPath><clipPath id="x"><path d="M332 479h2v1.32813h-2zm0 0"/></clipPath><clipPath id="y"><path d="M340 478h7v2.32813h-7zm0 0"/></clipPath><clipPath id="z"><path d="M353 478h8v2.32813h-8zm0 0"/></clipPath><clipPath id="A"><path d="M359 478h2v2.32813h-2zm0 0"/></clipPath><clipPath id="B"><path d="M366 479h9v1.32813h-9zm0 0"/></clipPath><clipPath id="C"><path d="M372 479h2v1.32813h-2zm0 0"/></clipPath><clipPath id="D"><path d="M379 480h9v.32813h-9zm0 0"/></clipPath><clipPath id="E"><path d="M386 480h3v.32813h-3zm0 0"/></clipPath><clipPath id="F"><path d="M393 478h8v2.32813h-8zm0 0"/></clipPath><clipPath id="G"><path d="M399 478h4v2.32813h-4zm0 0"/></clipPath><clipPath id="H"><path d="M407 478h7v2.32813h-7zm0 0"/></clipPath><clipPath id="I"><path d="M420 478h8v2.32813h-8zm0 0"/></clipPath><clipPath id="J"><path d="M426 478h4v2.32813h-4zm0 0"/></clipPath><clipPath id="K"><path d="M433 477h7v3.32813h-7zm0 0"/></clipPath><clipPath id="L"><path d="M449 476h3v4.32813h-3zm0 0"/></clipPath><clipPath id="M"><path d="M460 477h7v3.32813h-7zm0 0"/></clipPath><clipPath id="N"><path d="M466 477h2v3h-2zm0 0"/></clipPath><clipPath id="O"><path d="M144 465h4v4h-4zm0 0"/></clipPath><clipPath id="P"><path d="M144 452h4v4h-4zm0 0"/></clipPath><clipPath id="Q"><path d="M144 438h4v4h-4zm0 0"/></clipPath><clipPath id="R"><path d="M144 425h4v4h-4zm0 0"/></clipPath><clipPath id="S"><path d="M144 412h4v4h-4zm0 0"/></clipPath><clipPath id="T"><path d="M144 398h4v5h-4zm0 0"/></clipPath><clipPath id="U"><path d="M144 384h3v6h-3zm0 0"/></clipPath><clipPath id="V"><path d="M144 371h3v6h-3zm0 0"/></clipPath><clipPath id="W"><path d="M144 357h3v7h-3zm0 0"/></clipPath><clipPath id="X"><path d="M144 346h4v2h-4zm0 0"/></clipPath><clipPath id="Y"><path d="M466 346h2v4h-2zm0 0"/></clipPath><clipPath id="Z"><path d="M144 332h4v3h-4zm0 0"/></clipPath><clipPath id="aa"><path d="M466 332h2v4h-2zm0 0"/></clipPath><clipPath id="ab"><path d="M144 319h4v3h-4zm0 0"/></clipPath><clipPath id="ac"><path d="M466 318h2v3h-2zm0 0"/></clipPath><clipPath id="ad"><path d="M465 319h3v2h-3zm0 0"/></clipPath><g id="ae" clip-path="url(#clip1)"><path fill="#fff" fill-opacity="0" fill-rule="evenodd" d="M0 0h1000v1000H0zm0 0"/><path fill="#d3d3d3" fill-opacity="0" fill-rule="evenodd" d="M162.15234 355.86719l-.23437.29297.0586.23437.11718.17188.17578.23437.29297.34766.11328.0586.11719-.17188.0586-.23438.17577-.17578.46485-.17578h.69922l.23437.29297.28906.8164.0586.17579.17578.23046.35156.23438.69922.69922.17188.17578.23437.34765.23438.41016.28906.58203.41015.46485.23047.23437.23438.17578.11719.23047.17578.29297.17187 1.16406v.23438l.0586.28906.05859.11719.11719.11719.34765.41015.11719.17188.17578.17578.17578.23437.11719.17188.17188.35156.05859.23438.23437.40625.23438-.0586-.17578.17578-.0586.92969h-.58203l-.23437-.11328-.34766.11328-.11719.11719-.05859.29297-.0586.17578-.11718.17187-.46484.29297-.0586.23438-.0586.11328v.64453l.0586.17187v.41016l.0586.0586v.40624l.05859.40625.11719.17579.05859.05859.23047.64062-.0586.29297v.69922l-.05859.58203v.23438l-.0586.23047-.05468.35156v1.92187l.05469.1172h.42578l-.36719.11718-.02344.35156.89063 1.16797 1.74219.53906 1.33984.35938v.53906l.08984.8086.53516.71484 1.51953.26953.89063-.08594.08984 1.16406.53516.1797 1.16015-.1797 2.05469-.98437 1.16016-.36328 1.8789-.17578 1.69531-.1797-.17968.71876-1.51563.08594-1.25.08984-.80469.26953-1.07421.8086.26953.71875.53515.89843-.17968.625-.26563.8086.26563 1.07812.625.89844.80468.17969 1.25-.1797-.26562.72267.09766.5039.05468.29297v.17188l.0586.29296v.40625l.17578.1172.35156.11718h.40625l.29297-.17578.11328-.11719.0586-.11719.11718-.23047.0586-.17578.35156-.46484.23047-.17578.17578-.0586.17578.0586.0586.17578.11718.98828.05469.46875.0586.17188.11718.23437.17578.0586.8164.05859h.28907l.11719.23437.05859.40625.0586.35156v1.10547l.11718.29297.11719.34766.28906.69922.17578.35156.58203.7539.35157.17579.17187.0586.46875.23437.64063.46484.34765.23438.29297.17578.29297.05468.23047.0625.8164.34766.29297.17578.11328.17188.35157.35156.11719.17578.52343.64063v.28906l.0586.35156v.34766l.05859.35156.0586.28906.11718.0586.17188.05859h.17578l.58203.23437.17578.1172.17578.28905.17578.23438.11328.23437.29297.23047.11719.11719v.41016l.0586.05468.28906.23438.23437.11719.0586.11718.11718.17188.0586.11719.23047.23437.05859.17578.23437.0586.1172.05859-.1172.11328-.05859.11719v.11719l-.11719.29296-.11719.28907v.58203l.17579.11719.11718.05859.0586.11719.11719.11719.11328.05859.17578.34765.0586.35157.05858.40625v.17578l-.05859.17578-.11719.69922v.17187l.1172.17579.29296.29296h.40625l.17578.1172.11719.17187.11719.29296v.23438h-.52735l-.23047-.23438h-.23437l-.17578.0586-.0586.69922.0586.34765.11719.17579.17578.41015.11718.23047.28907.46875.17578.05469h.52344l.23437.0586.75781.64062.0586.29296v.23438l.05859.0586.23047.34765v.35156l-.11719.17188v.29297l.29297.28906.29297.17578.17187.0586.29297.17577.29297.1172.58203.40624.28906.23438.29297.17578.21875.16015.01563.01172.23047.17579.64062.52343.17578.23438.1172.17578.17577.17578.11328.17188v.64062l.1172.17578.46874.11719.58203.11719.23438.05859.23047.11328.29297.11719.11328.0586.58593.35156.28907.17187.17578.0625.17578.05469.17578.0586.69922.35155.28906.17579.23438.05468.28906.17578.23437.1172.64063.40624.29297.11719.17187.0586.23438.05859.41015.05859.23047.0586.23438.11718.0586.17188-.41017.17578.46875.0586.0586.29296.11328.23438.17578.05468.23438.0586.17578.05859.40625.11719.64062.23437.11719.17188.0586.23437v.17578l-.0586.1172-.0586.40624.23438.23438.11719.05859.34766.11719.64062.23047.17578.11718.28906.1172.17578.17577.23438.46485.58203 1.10546.17578.17579.34766.17578.17578.11719.35156.11718 1.04688.52344.23437.0586.46485.11327.29297.0586.46484.17578.75781.58203.23438.23438.34765.46484.17578.17578.28907.23438.8164.69921.29297.17579.28906.28906.29297.17578.29297.28906.69531.64063.17578.17578.29297.23437.28907.23438.46875.28906.64062.58203.34766.23438.23437.29297.34766.34765.35156.46485.9336.99218.34765.40625.11719.17579.23437.05859.11328.11719.64454.17578.23047.11328.23437.0586.29297.17577.23047.1172.9336.69921.40624.40625.23438.17578.40625.17578.23437.11719.8164.34766.34766.23437.23438.11719.29297.28906.23047.11719.7578.35156.35157.17188.23047.05859.29297.11719.23437.0586.8711.17577h.8164l.46875.23047.17188.0586.875.69921.46484.1172.29297.05858.17578.0586.23047.0586.46875.05859.34766.05859.35156.0586.40625.05859h.29297l.17187.0586v.23046l.17578.17578h.29297l.34766.0586.35156.05859.69922.11719h.64063l.46484-.23438.29297-.17578.17187-.11719.41016-.17187.28906-.17578.9336-.46485.46875-.29297.52343-.29296.46485-.17188.46484-.17578 1.05078-.46485.28906-.11718.41016-.11719.28906-.11719.52735-.17578 1.51562-.69922.58203-.34765.28907-.0586.29297-.0586.34765-.11718.875-.23047.35156-.11719h.11329l.23437-.05859.875-.23437.23438-.0586h.8125l.35156-.0586.8164-.11718.17188-.0586.35156-.05468.29297-.0586.23047-.05859.8164-.17578.17579-.0586h.34765l.23438-.05859.46484-.11718.75781-.17188.23438-.0586h.34765l.41016-.11718.28906-.0586 1.28516-.05859h.28906l.41016-.0586.23047-.05858h.17578l.875-.1172h.40625l.41015-.11718h.34766l.35156-.11328.8711-.0586h1.75l1.04687.28907.41016.11719.28906.11718.35156.11719.28907.11719 1.05078.17187.28906.0586h.29297l.29297.05859.17187.0586.41016.05859.17187.0586.1172.05858h.11718l.11719.0586.35156.0586h.11328l.41016.0664 1.92187.39453 1.92578.39453 1.51953.44922 1.69532.71875 2.14453.80469 1.60547-.71875 1.42968-.80469 1.16016-1.07813 1.25-.44921 3.03516-.71875 1.875-.35938 2.14453-1.34765 2.23437-1.25391 2.5-1.25781 1.69531-.44922 1.78516-.17969 1.16016-.26953.625.53906 1.33984-.26953.71485-.98828.98437-1.34375.44531-.17969.80469-.35937 1.875-.53907 1.78516-.44921 1.25-.26954 1.16015-.08984 1.69922-.08984 1.96094-.26954 1.25-.08984h.53906l.625-.08984h.89063l2.14453-.17969 2.41015-.17969 2.58985-.08984 1.69531.17969 1.60938.08984 1.42968.35938 1.16016.71875 1.875.98828 1.16015 1.52734.26563.71484.6289.08985.35548.89844.53515.53906.53516 1.52734 1.07422.35938h.53515l-.80469.53515.08985 1.70703.71484 2.69532.89063.80468.89453.98829.71484 1.2578 1.78516.53907 1.51953-.17969.35547 1.34375 1.60937-.80469.98047-.53906.26953.26953.31641-.21484.21875-.14453.80078.44922.44922-.35938h.35547l.53515-.26953.53907-.71875.53515-.26953.625-.98828 1.16016.44922.83984.3711 1.39454.61718 1.6953-.17969h1.60548l1.78515.08985.17969-1.70704.53516-1.34375.80468.26954.4922.84765.40233.40625-.08984.53906v.35938l.71485.44922.71093-.26953h1.42969l.35938.98828.4453 1.25781.71485 1.34375 1.25.6289 1.69531.62891.71485-.17969.17969-.53906.98046-.08984.44922.35937.08594 1.25782-.26563.6289-.53515.17969v.53906l.71484.98438.26563.53906.98437.98828.80078 1.07813-.26562.35937-.08985.89844-.625 2.33203-.35546 2.0664-.08985 1.79298-.17969.71875-.08984.53906v1.4375l-.98047 1.88281-.35937 1.70703-.53516.89844-.80469 1.16797-.26562.53906 2.05469 1.2539.08593.35938-.35546.53906-.08985-.17968v.80859l.08985 1.4375-.44532.71484-1.07422.09375-.26562.71485.53515.89844.8047.71875 1.16015.80859 1.33984.26953.44531.35938-.35546.44921-1.78907-.08984-1.25-.44922-.71484-.71875-.625-.08984-.17578 3.58984-.1875 1.3086h89.35937V311.70313h-55.26953v49.08203l.76172.125 3.28906.54296 2.02344 2.83594v2.7539l2.35156.33204 2.34766.33203h4.05078l-1.3789 4.16016-2.02344.70703-2.02344.70312-.54297.34375-2.59375 1.6172-.1875.11718-2.02344-2.07813-.73046-2.74218-2.67188-2.07813-1.375-3.5-.0664-.08203-1.95704-2.67188 2.75-1.41796v-49.08204H294.42187v91.41407l.1172.03125.1328.01172.07422.07421.10547.04688.08985.0586.08593.05859.08985.0586.29687.29687.0586.08984.03125.11719.02734.11719.01563.13671-.03125.1172-.0586.08983-.0586.08594-.04296.10547-.04688.10156-.02734.1211v.14453l.17578.26953.14844.14844.07422.08594.07422.07421.04296.10547.0625.08985.0586.08593.04297.10547.0586.08985.04687.10156.04296.10547.0586.08594.11719.17968.07421.07422.0625.08594.0586.08984.04297.10547.0586.08985.05858.08593.0625.08985.0586.08984.04297.10156.11719.17969.07421.07422.0586.08594.07422.07421.08984.0586.10547.04687h.14844l.1328-.01562.13282.01562.10156-.04687.07422-.07422.04688-.10156-.01563-.13281v-.14844l-.04687-.10547-.02735-.11719-.04687-.10156-.02735-.1211-.04296-.10156-.0625-.08984-.04297-.10156-.04297-.10547-.03125-.11719-.01563-.13281-.01171-.13672.08593-.0586.0586-.08593.12109-.03125.04297.10547.01562.1328v.1172l.0586.10156.0586.08984.08983.0586.14844.14843.0586.08985.04296.10547-.01171.10156.08593.0586.10547.04687.08594.0586.08984.05858.07422.07422-.11719.02735-.10546.04687-.08594.0586-.07422.07421-.0586.08985-.0625.08594-.02734.12109-.04687.10156-.04297.10547-.03125.11719-.01172.13281-.01563.13281v.14844l.02735.11719.04687.10547.04297.10156.0586.08984.07421.07422.08985.0586.07422.07421.08984.0586.0586.08984.04296.10547.04688.10156.11719.03125.1328.01563h.14845l.11718-.03125.10547.04297.04297.10547.04688.10156.02734.1211L299.5 410l.02734.11719.03125.1211.02735.11718.10547.04297.10156.04687.13281-.01562.14844.14844.0625.08593.07422.07422.07031.07422.08984.0625.10547.04297.10156.04297.1172.03125.13671.01562.11719-.03125.07422-.07422.02734-.11718-.01172-.13282-.03125-.12109-.02734-.11719.04297-.10547h.11719l.08984.0625.11719.02735h.14843l.13282.01562h.14843l.13282.01563.1328-.01563h.14845l.1328-.01562.13282-.01172.13672.01172.11719-.02735.13281-.01562.1914-.0586-.05859.17579-.01562.1328-.02735.1211-.01562.13281-.0586.08594-.1328.01563-.10548.04687-.10546.04297-.1172.03125-.11718.02735-.26563.03125h-.14843l-.13281.01562-.07422.07422.05859.08594.14844.14843.11719.1797.07421.0703.08985.0625.08984.0586.08594.0586.08984.05858.10156.04297.10547.0625.10547.04297.08594.0586.10547.04687.10156.04297.17969.11719.0586.08984-.04298.10156-.04687.10547.01562.13281.22266.22266.0586.08985.04296.10156.03125.1211.04297.10155.01563.13282.03125.11718.01171.13672.03125.11719.14844.14844.10156.04297.10547.04296.1172.03125.1328.01563.13672.01563h.11719l.11719-.03125.08984-.0586.04297-.10547.04688-.10156.04296-.10547.03125-.11719.01172-.1328v-.14845l-.01172-.1328-.01562-.13282-.03125-.11719-.04297-.10547-.04688-.10547-.04296-.10156-.04297-.10547-.01563-.13281.01563-.13281.02734-.11719.03125-.11719.02735-.1211.04687-.10155.08984-.0586.08594-.0625.07422-.07422.08984-.05859.22266-.22266.0586-.08593.07421-.07422.11719-.17969.0586-.08594v-.14844l-.07423-.07421-.10156-.04688-.10547-.04297-.10156-.04297-.0586-.08984-.04687-.10547-.02734-.11719.08984-.05859.11719-.03125.10156-.04297.17969-.11719.14844-.14843.01172-.13282-.01172-.10546-.08985-.0586-.1328.01563h-.14845l-.1328.01562-.13282-.01562-.1211-.03125-.08593-.0586-.07422-.07422-.0586-.08984-.0625-.08594-.11718-.17969-.0586-.08593.03125-.1211.08594-.05859.1211-.03125.05859-.08594v-.1211l-.03125-.11718-.0586-.08984-.05859-.08594-.04687-.10547-.02735-.11719-.01562-.1328.0586-.08985.07421-.07422.08984-.0586.1172-.17968.07421-.07422.0586-.08594.14843-.14844.1211-.03125.1328-.01562.13282.01562.07422.07422.04297.10547.01562.13281-.03125.1172-.11719.03124-.1328.01172-.14844.14844-.04297.10547-.04688.10156-.02734.1211-.03125.11718v.14844l.03125.11719.04297.10546.05859.08985.07422.07031.07422.07422.11719.03125.12109.02734.11719-.02734.1328-.01563h.1172l.08984.0586.07422.07422.04687.10546.0586.08594.10156.04688.13281.01562.10547.04297.08594.0586-.01172.10546-.07422.07422-.17969.11719-.05859.08984-.08984.0586-.07032.07422-.07421.07421-.0625.08985-.02735.11719-.01562.1328.01562.13282-.01562.13281v.14844l.01562.13281.02735.1172.03125.12108.07421.07422.08985.0586.08594.0586.08984.05858.11719.03125v.08594l-.10157.04688-.08984.0586-.26563.03124-.11718.02735h-.14844l-.10547.04296-.10156.04688-.0586.08984-.0625.23438-.01171.13281-.03125.1211-.01563.1328v.29298l-.01172.1328.01172.13673.01563.1328.1328.01563.13282.01172.1211.03125.08593.0586.07422.07421.04688.10547.04296.10157.01563.1328v.44532l-.01563.13281v.44532l.03125.26562.02735.11719.01562.13281.03125.11719.08594.21094.03125.26562v.14844l-.03125.11719-.02734.11718-.03125.1211-.02735.11719-.03125.11718-.03125.1211-.01171.1328-.01563.13282.08984.0586.1172-.03125.10155.01562.04688.10547-.03125.26562v.44141l-.04297.10547-.04688.10547-.04296.10156-.04297.10547-.0586.08594-.03125.12109-.04296.11719-.03125.11719-.01563.1328.01563.13282.05859.08984.10547.04688.08594.0586.05859.08593-.01172.13672-.03125.11719-.04297.10156v.44531l-.01562.13281v.14844l-.03125.11719-.04297.10547-.02735.11719-.04687.10546-.04297.10157-.03125.12109-.02734.11719-.03125.13281-.03125.11719-.02735.11719-.04297.10546-.03125.1172-.03125.12108-.01171.13282-.01563.13281v.29688l.02734.11718v.14844l.04688.39844.02734.11719.0586.08984.12109.03125h.14844l.13281-.01563.0586.08985v.11719l-.0586.08984-.08984.0586-.10157.04296-.10546.04688-.08985.05859-.08594.0586-.13671.01562-.1172-.03125-.1328-.01563-.10157.04688-.0625.08594-.01172.13671-.01562.13282-.03125.11719-.02735.11718-.01562.13281-.03125.1211v.29687l.01563.13282.03125.11718v.14844l.01171.13281v.14844l-.02734.11719-.04688.10156-.02734.1211-.03125.11718-.0586.08985-.07421.07421-.10156.04297-.10547.04688-.11719.02734-.1211.03125-.10156-.04687.0586-.08594.10547-.04688.02734-.11718.03125-.11719.02734-.1211.03125-.11718v-.14844l.01563-.13281-.03125-.11719-.04297-.10547-.10547.01563-.07422.07422-.10156.04296-.08984.0625-.07422.07422-.04297.10157-.01563.1328-.03125.1172L304.25 426l-.03125.11719-.02734.11719-.03125.12109-.02735.11719-.03125.11718-.04297.10547-.08984.0586h-.08984l-.1172-.03125-.03124-.08594.01562-.13672-.03125-.11719v-.14844l-.01171-.1328v-.14844l-.0625-.23438-.02735-.1211-.04297-.10156-.04687-.10546-.0586-.08594-.05859-.08985-.04297-.10546-.0625-.08594-.14844-.14844-.0703-.07422-.10548-.04687-.10547-.04297-.10156-.04297-.29687-.29688-.08985-.07421-.08594-.0586-.10546-.04297-.08985-.0625-.08594-.0586-.10546-.04296-.08985-.0586-.08594-.0625-.07421-.0703-.10547-.04688-.08594-.0586-.10547-.04296-.08984-.0625-.10156-.04297-.10547-.04297-.08594-.0586-.10547-.04687-.10547-.04297-.10156-.04687-.08985-.0586-.10156-.04297-.10547-.04296-.08984-.0625-.11719-.02735-.13281-.01562-.13281.01562H299.75l-.13281.01563-.11719-.03125-.08984-.0586-.07422-.07422-.08985-.05859-.10156-.04688h-.14844l-.12109-.02734-.10156-.04297-.07422-.07422-.11719-.17968-.08984-.0586-.10156-.04297-.08985-.0625-.10547-.04296-.08984-.0586-.08594-.0586-.10547-.04687-.0586-.08594-.05858-.08984-.04297-.10547-.04688-.10156-.07422-.07422-.08594-.0586-.07421-.07421-.08985-.0586-.22265-.22265-.04297-.10547-.03125-.26563.10547-.04296h.14453l.10547.04296.07421.07422.08985.0586.08594.0586.10546.04687.08985.05859.14844.14844.0703.07422.14845.14843.0625.08594.07421.07422.08594.0586.07422.07421.08985.0625.08984.0586.08594.05859.26953.17578.10156.04688.10547.04296.10156.04297.04688-.07421.05859-.08594.07422-.07422.07031-.07422.10547.04297.07422.07422.0586.08984.04296.10156.04688.10547.04296.10547.1211.02735.11719-.02735.07421-.08984.04297-.10547.0586-.08985.07422-.07421.10546-.04297.1172-.02735.1328.01172.08985.0586.14844.14843.05859.08985.04297.10547.04687.10156.04297.10547.04297.10156.10547.04688.10547.04296.13281.01563.08594-.0586.0586-.08984.07421-.07422.10547-.04297.11719.02735.10547.04687.10156.04297.10547.04297.10156.04688.17969.11718v.11719l-.01563.13281.01563.13281.01562.13672.0586.08594.10156.04688.1211.02734.11718.03125h.14844l.11719-.03125.05859-.08984.17969-.1172.05859-.08983.07422-.07422.0586-.08594.11718-.17969.17969-.11719.11719.03125.08984.0586.04297.07422-.01563.1328v.1172l.08985.05859h.14843l.13282-.01563.1328-.01171.26563-.03125.10547-.04297.11719-.03125.1211-.02735.07421-.07421.07031-.07422.0625-.08985-.01562-.10547-.04688-.10156-.10156-.04297-.10547-.01562-.11718.02734-.26563.03125h-.14844l-.07421-.07422-.08985-.0586-.11719-.03124-.11718-.02735-.13282-.01562h-.14843l-.13282.01563h-.29687l-.10547-.04688-.14844-.14844-.04297-.10156-.05859-.08984.22266-.22266.08593-.0586.10547-.04296.11719-.03125.13281-.01563.13281.01563.13672.01562.10157.04297.1328-.01172.08985-.0625.10156-.04297.0625-.08984-.04687-.10156-.08984-.0586-.1172-.03125-.10155-.04296-.0586-.08985-.0625-.08984v-.11719l.01563-.13281.10547-.04688.07421-.07031v-.1211l-.08984-.05859-.03125-.11719.08985-.05859.07421-.07422.04297-.10547.0586-.08984.04687-.10156.01563-.13281v-.14844l-.04688-.10547-.04297-.10156-.08984-.0586-.13281-.01562-.10157-.04297-.13671-.01563-.1172-.03125h-.4453l-.13282-.01562-.13281-.01172-.13281-.01563-.11719-.03125h-.14844l-.13281-.01562-.13281-.01172-.26563-.03125-.1211-.04297-.08593-.0586-.07422-.07421v-.14844l.01172-.13281.10547-.04688.10156-.04296.13281-.01563h.15235l.13281-.01562h.29297l.1211.03125.10156.04296.08984.0586.23438.0625.12109-.04688.08984-.05859.10156-.04297.13282-.01562.10547.04296.10156.04688.13281.01172.1211-.02735h.14453l.12109-.03125.11719-.02734.10547-.04687.07421-.07422.08594-.0586.14844-.14843.0586-.08594.04687-.10547.02734-.11719.01563-.10547-.10156-.04296-.08985-.0586-.11719-.03125-.10546-.04297-.08985-.0625-.07422-.08594-.07422-.07421-.10156-.04297-.10547-.04688-.10156-.04297-.0586-.08984-.04687-.10156-.08594-.21094-.0625-.08594-.05859-.08984-.07422-.07422-.08594-.0586h-.26953l-.11719.03126-.08984.05859-.10156.04297-.13281.01562-.10547-.01562-.02735-.11719-.0625-.08984-.11718-.03125-.10157-.04297-.14843-.14844-.03125-.11719-.01563-.10546.07422-.07422.17969-.1172.11719-.02733.11718-.03125.13672.01562.10156.04297.10547.04297.10156.04687.10547.04297.1172.03125.1328.01563.1172.02734.1328.01563.10547-.01563.08985-.0586-.07422-.07421-.10547-.04297-.07422-.07422-.07422-.08984-.14844-.14844-.08593-.0586-.08985-.05859-.07422-.07422-.08984-.0586-.10156-.04687-.1211-.02734-.10156-.04688-.10547-.04296-.11719-.03125-.10156-.04297-.1211-.03125h-.14843l-.11719.03125-.10546.04297-.08594.0625-.17969.11718-.08594.0586-.08984.0586-.10547.04687-.08594.05859-.10547.04297-.10156.04297-.10547.04687-.07422.07422-.05859.08985-.0586.08593-.04687.10547-.0586.08594-.07421.07422-.13281-.01172-.1172-.03125h-.11718l-.07422.07422-.08984.0586-.07422.07421-.08984.0586-.08594.05859-.10547.04687-.10156.04297-.13672.01563-.10156-.04297-.14844-.14844-.10547-.04688h-.08594l-.10547.04688-.10156.04297-.1211.03125-.11718-.03125-.07422-.07422v-.11719l.03125-.1211.07422-.0703.0586-.08985.07421-.07422.11719-.03125.10547-.04296h.29297l.13281-.01563.13672-.01563.10156-.04296.08985-.0586.10156-.04687.08984-.0586.13281-.01171.08985.05859.13281.01172.08984-.0586.08594-.05859.10547-.04297.08984-.0586.08594-.0625.08985-.05859.14843-.14843.0586-.08594.05859-.08985.10547-.04296.13281-.01563.11719.02735.1211.03125.05859-.0586.05859-.08984.03125-.26563.02734-.11719.10547.01172.13281.01563.10157-.04297.08984-.0586.0586-.08984.07421-.07422.0586-.08984.04687-.10156.01172-.13281-.01172-.13282-.04687-.10547-.14844-.14843-.0586-.08985-.05859-.08594-.04297-.10546v-.44532l.01563-.1328v-.14845l.01172-.1328-.0586-.0586-.08984.0586-.10156-.04298-.17969-.11719-.08594-.05859-.0625-.08984-.0586-.08985-.07421-.07421-.08594-.0586-.1211.03125-.10155.01172-.10547.04688-.08594.05859-.10547.04297-.14844.14844-.08984.05859-.08594.0586-.08984.0625-.10547.04296-.13281.01563v-.1211l.10547-.04297.11718-.03125.07422-.0703.04297-.10548v-.14844l-.02734-.11718-.14844-.14844-.13281-.01563h-.14844l-.11719.03125-.10547.04297-.10156.04297-.08984.0625-.11719.02735-.07422-.07422.01172-.13281-.04297-.10157-.04297-.10547-.08984-.05859-.11719.02734-.1211.03125-.11718.03125-.10156.04297-.1211.03125-.10156.04297-.10547.04297-.08984.0586-.10156.01562v-.11719l.01562-.13281-.0586-.08985-.07421.04297-.14844.14844-.0586.08985-.07421.07421-.04688.10547-.04296.10156-.07422.07422-.0586.08985-.07422.07422-.05859.08593-.07422.07422-.08984.0625-.07422.07031-.07422.07422-.10156.01563-.13281.01562-.10547-.04296v-.1211l.14843-.14844.04297-.10156.0586-.08984.04687-.10156.04297-.10547.0586-.08985.03124-.11719.04297-.10156.03125-.1211.02735-.11718.04687-.10547.04297-.10156.04297-.10547.07422-.07031.08984-.0625.08985-.0586.10156-.04296h.29687l.26563-.03125.10547-.04297-.07422-.07422-.11719-.03125-.10547-.04297-.08984-.0586-.10156-.04687-.08985-.0586-.10156-.04296-.10547-.04297-.08984-.0625-.08594-.0586-.10547-.04296-.10156-.04297-.1211-.03125-.11718-.03125-.10157-.04297L297.5 410.25l-.10156-.04297-.08985-.0586-.04296-.10546-.01563-.13281.10156-.04297.13281-.01563.13672.01563.13282-.01563.10156-.04297.0586-.08984.01562-.10547-.08985-.0586-.07421-.07421-.10157-.04297-.08984-.0586-.14844-.14843-.04297-.10547-.01562-.13281v-.29297l-.0586-.08985-.08984-.05859-.07422-.07422-.04297-.10547-.03125-.11718-.0586-.08985-.07421-.07422-.11719-.02734-.07422-.07422-.08984-.0586-.08984-.0625-.08594-.05859-.07422-.07421-.0586-.08594-.04687-.10547-.08594-.0586-.14843-.14843-.19532-.0586-.1328.01563-.10157.04297-.07422.07422-.04688.10156-.04296.10547-.0586.08984-.0586.08594-.29687.29687-.08984.0586h-.08594l-.0625-.08594-.04297-.10547.03125-.11719.0586-.08984.02734-.11719-.01172-.13281-.08984-.0625-.10547.04688-.11719.02734-.11719.03125-.26953.17578-.10156.04688-.11719.02734-.10546.04687-.08985.0586-.10156.04297-.0586-.08594-.04687-.10547.01563-.13281.04687-.10547.07031-.07422.07422-.07031.0586-.08985v-.14843l-.04297-.10547h-.23829l-.10156.04687-.03125.11719-.02734.11719-.03125.1211-.07422.04296-.13281.01563-.07422-.04688-.04297-.10156-.04297-.10547-.04687-.10156-.04297-.10547-.1211.03125-.10156.04297-.13281.01562-.11719.03125-.10547.04297-.08984.0586-.10156.04687-.1211.02734-.13281.01563-.10156-.04297-.0586-.08985-.04687-.10546-.04297-.10157-.04297-.10546v-.1172l.0586-.08984.08593-.05859.17969-.11719.10156-.04687.10547-.04297.10547-.0586.10156-.04296.08985-.0625.10156-.04297.10547-.0586.10156-.04687.08984-.0586.10547-.04296.10156-.04297.08985-.0625.10156-.04297.13672-.01563.11719.03125.10156.04297.1211.03125.10156.04297.10546.04688.10157.04296.10547.04297.10156.04688.10547.04297.10156.04297.10547.04687.08594.0586.10546.04296.1172.03125.10546.04297.10156.04688.08985.0586.10547.04296.10156.04297.10547.04687.11719.02735.10156.04687.1211.02735h.14843l.08594-.0586.01562-.10156.0586-.08984-.02735-.1172-.07422-.07421-.11719-.17969-.07421-.07422-.08985-.07421-.17969-.1172-.08593-.05859-.10547-.04296-.10156-.04688-.26954-.17578-.05859-.08985-.07422-.07421-.0586-.08985-.04296-.10156-.03125-.11719-.01563-.13672v-.5625l-.01171-.1328-.01563-.13282-.03125-.11719-.01562-.13281-.01172-.13281-.03125-.1211-.22266-.22265-.0586-.08594-.01562-.10547.03125-.11719.13281-.01562v-91.41406H172.9922v1.45312l-.0586.23438-.35156 1.05078-.17187.52343-.1172.34766-.17577.41016-.11719.17187-.23438.29297-.23046.0586h-.35157l-.11718.05859-.23047.40625v.29297l.11719.17578.23046.23047.1172.23437.64062.75781.29297.46485.17578.23437.23047.35156.23437.34766.64063.8164.17578.46485.17187.41016.11719.69531.17578.46875.11719 1.39844.0586.46484v.875l.11718 1.04688v4.78125l-.0586.46484-.35156 1.28125-.17578.52344-.11328.41015-.35156.9297L172.93359 336l-.23437.58203-.11719.17578-.17187.34766-.17578.40625-.35157.8164-.0586.29297-.11327.29297-.11719.28906-.0586.17579-.11718.875-.0586.40625-.05859.11718-.0586.17579-.05859.17187-.23047.52734-.11718.17188v.23437l-.11719.23438-.0586.17187-.17577.58594v.28906l-.0586.17579v.29296l-.0586.11329-.05859.52734v.17187l-.05468.23438v2.6211l-.17578.8164-.1172.17578-.17577.23438-.1172.17187-.11327.23438-.58594.93359-.23047.28906-.29297.46485-.17578.23437-.28906.35156-.35156.69922-.11328.23047-.17579.41016-.17578.23046-.40625.52735-.8164.69922-.29297.17187-.28906.23438-.17579.11719-.17578.17578-.52344.40625-.52734.17578-.17187.17578-.23438.05469-.64062.17578h-.75782m12.21094 31.02344l-1.07422.44921.35938.89454 1.25-.71485.44531-.53906-.98047-.08985"/><path fill="#d3d3d3" fill-opacity="0" fill-rule="evenodd" d="M201.50781 416.59766h-.89453l.44922.6289.98047.35938.80469-.08985.4453-.98828-.17577.08985-.71485-.35547-.89453.35547m154.6211 59.0703l-.0586-.52343v-.29297l.11328-.29297.0586-.23046.46875-.46875h.11328l.11719-.11329.11718-.05859h.17579l.23437-.0586h.34766l.23437.0586.11719.0586.23047.17187.0586.17578.11718.58203v.29297l-.11719.17578-.17187.28906-.17579.17579-.52734.52343-.23047.23438-.11719.0586h-.17578l-.11718-.0586-.40625-.29297-.17579-.11719-.11718-.0586-.0586-.11327-.05468-.1172m6.64062-10.95702l-.0586-.17188v-1.10937l.0586-.17188.17578-.0586.17188-.05858h.17578l.23437-.0586.1172.0586.05858.69921-.05859.17188-.11719.17578-.11718.0586-.23438.52343-.11328.0586h-.23438l-.05859-.1172m9.61328-14.39062l-.11719-.17578v-.69922l.29297-.875.1172-.17187.17577-.35156.11328-.23047.1172-.29297.35155-.75781.1172-.23047.17187-.23438h.17578l.11719-.0586h.64062l.11719.0586.23437.23438.17188.11328.35156.29297.11719.11718.11328.17579v.11328l.11719.05859.11718.11719v.69922l-.05859.17578v.23047l-.0586.17578-.34765 1.05078-.11719.23047-.11719.23437-.11718.0586-.23047.23437-.64063.28906h-.875l-.41015-.11718-.64063-.46485"/><path fill="none" stroke="#bebebe" stroke-linecap="round" stroke-linejoin="round" stroke-miterlimit="10" stroke-width=".5" d="M467.95703 311.69531H144.02734v168.625h323.9297v-168.625"/><g clip-path="url(#a)"><path fill="#fff" fill-opacity="0" fill-rule="evenodd" d="M144 475.89063v4.4375h.0039H144V311.67188h.0039H144v164.21875"/></g><g clip-path="url(#b)"><path fill="#fff" fill-opacity="0" fill-rule="evenodd" d="M144.0039 480.32813V311.67188h31.0625v120.16796l-4.4375 3.42579-.60937.67968-3.82812 1.9375-2.30078 2.5-2.13672 2.75781-1.65235 1.6797-1.29687 4.4414-.875 4.4375.97656 4.4375-.45313 4.4375 3.30079 3.22265 4.4375-.57812 4.4375-.53125 4.4375.14063 4.4414.42578 4.4375-.35547 4.4375-.08985 4.4375-1.34375 4.4414.15235 2.22657-1.04297-2.22656-1.07422-4.4414-2.26172-3.57813-1.10156-.85938-.23047-4.4375-2.23828-2.74219 2.46875-1.6953.52734-1.25391-.52734.46484-4.4375.04688-4.4375.74218-1.73828 2.0664-2.70313 2.3711-1.5625 3.79688-2.875-.3125-4.4375-3.48438-2.85156-4.4375 1.09375-4.4414-2.34766V311.67188h26.6328v90.92578l-2.26171 2.27734 2.26172 3.08203 4.4375-1.47265 1.65625-1.60938-1.65625-2.0586-4.4375-.21874v-90.92579h13.3164v97.87891l-4.4414.83594-3.42578 3.36719 1.91406 4.4375 1.51172 1.48046 4.4414-.83984.6875-.64062 3.47657-4.4375-4.16406-4.20313v-97.8789h22.1914v90.17187l-3.03125 3.03125.13281 4.4414 2.89844 3.83594 4.4375-2.24218 3.94922 2.84375-3.94922.91796-4.4375-.46484-4.4414 3-2.00782.98438-2.42969.33984-4.4375 3.77344-.3203.32422.3203.54687.5547 3.89453-.5547 1.23828-2.59765 3.19922-1.49219 4.4375-.34766.16406-.68359-.16406-3.7539-.98437-4.44141.21484-1.70703.76953-2.73047 1.125-4.4375.8164-4.4375 1.51563-1.02344.98047 1.02344 3.97266.08984.46484 4.34766 4.40625 4.4375-.17578.3125.21094 1.98437 4.4375-2.29687 1.4336-2.86719 3.0039-.875 4.4375 2.20703 4.4414 1.53516.53907 2.22656-.53906 2.21094-.57813 4.4414-2.28516 2.36329-1.57812 2.07422-.83594 4.4375-1.54687 4.4375-.63672 2.73828-1.41797.80859-4.4375-3.54688-2.6211-4.13671-1.8164 2.94922-4.4414.7578-4.4375.4297-.23438 2.92968-4.20313-2.92969-3.0586-1.84765-1.3789 1.84766-.92969 4.4375-.07421 2.59765 1.0039 1.84375 1.7539 4.4375 1.89454 4.4375-1.33594 2.39063-2.3125 2.04687-3.23828 4.4375.17969 4.4414.66797 3.3125 2.39062 1.125 1.53125.77735 2.90625.88281 4.4375 2.77735 3.1289 4.4375.91407L276 440.38281l1.15234-.59375 4.4375-1.39453 2.58985-2.44922 1.84765-.34375 4.05079-4.09375.38671-4.40625.03516-.03125 1.32813-4.4414-1.36329-1.33594-4.4375-1.75-4.4375-.73438-4.4375-.17187-4.4414-.0039-4.4375.10546-4.02735 3.89063-.41015.48046-4.4375 1.88672-4.4414-.77343-.98048-1.59375.98047-3.51172 4.4414 1.89062 2.875-2.8164 1.23048-4.4375.33203-4.17579.13281-.26171-.13281-.22657-2.41406-4.21484-2.02344-1.50781-4.4414.83984-.67188.66797-3.76563 3.22266-1.21094 1.21875-3.22656 3.92578-2.79687-3.92578-1.5-4.44141-.14063-.14063-4.4375-2.89062v-90.17188h13.3125v39.66797l-.1836.27735.1836.36719.25781-.3672-.2578-.27734v-39.66796h62.13671v139.36718l-4.4375.0625-3.29297 2.59766-1.14453 1.0586-4.4375 1.78906-2.09375 1.58984 2.09375 1.33203 4.4375 2.3789 4.4375.41798 4.4375-.25 4.4414-1.02735 3.76173-2.85156-.81641-4.4375-2.94531-2.08594-4.44141-.57422V311.67187h22.1914v136.08985l-2.9414 1.5-1.4961.48047-4.4375 2.30078-1.0664 1.65625-.82422 4.4375 1.89063.82812 4.4375 1.76172 3.58593-2.58984.85157-1.09766 4.4414-2.72656.80078-.61328.16797-4.4375-.96875-.32031-4.4414-1.1797V311.67189H463.5625v140.72265l-1 1.30469-3.4375 1.74219-4.4414.5664-2.39844 2.1289-2.03907 1.94923-3.26562 2.48828 3.26562 3.54297 4.4375.26172 4.44141-.85547v5.1836l-1.25781.74608-2.0625 4.4375 3.32031 2.69532 3.1836-2.69531-2.38282-4.4375-.80078-.7461v-5.1836l2.71094-2.94921-.01172-4.4375 1.73828-3.4336 1.1211-1.0039-1.1211-1.30469V311.67188h4.4336v168.65625H144.0039"/></g><path fill="#50fcfc" fill-rule="evenodd" d="M158.90625 458.13672l-.97656-4.4375.875-4.4375 1.29687-4.4414 1.65235-1.6797 2.13672-2.7578 2.30078-2.5 3.82812-1.9375.60938-.6797 4.4375-3.42578v6.2461l-4.4375.10547-3.1836 2.1914-1.2539.82422-3.15235 3.61328-1.28515 3.59375-.38282.84766-1.91406 4.4375 2.28516 4.4375-1.40625 4.4375 1.41797 1.38672 4.28515-1.38672.15235-.82813 1.65625-3.60937 2.78125-1.33203 1.77734-3.10547 2.49219-4.4375.16797-.07031 3.22656-4.3711 1.21484-3.13281 1.97656-1.30469-1.97656-1.36719-4.4414-.92968v-6.2461l4.4414 2.34766 4.4375-1.09375 3.48438 2.85156.3125 4.4375-3.79688 2.875-2.3711 1.5625-2.0664 2.70313-.74219 1.73828-.04687 4.4375-.46484 4.4375 1.2539.52734 1.69531-.52734 2.7422-2.46875 4.4375 2.23828.85937.23047 3.57812 1.10156 4.4414 2.26172 2.22657 1.07422-2.22656 1.04297-4.4414-.15235-4.4375 1.34375-4.4375.08985-4.4375.35547-4.44141-.42579-4.4375-.14062-4.4375.53125-4.4375.57813-3.30078-3.22266.45312-4.4375"/><path fill="#00e8fc" fill-rule="evenodd" d="M161.74219 458.13672l-2.28516-4.4375 1.91406-4.4375.38282-.84766 1.28515-3.59375 3.15235-3.61328 1.2539-.82422 3.1836-2.1914v5.3164l-3.26953 1.3125-1.16797 1.07031-.85547 3.3711.85547 3.33594 1.25-3.33594 3.1875-3.29297 4.4375-.70703.32812-.4414-.32812-.63282-4.4375-.67969v-5.3164l4.4375-.10547 4.4414.92969 1.97656 1.36718-1.97656 1.30469-1.21484 3.13281-3.22656 4.3711-.16797.0703-2.49219 4.4375-1.77734 3.10548-2.78125 1.33203-1.65625 3.60937-.15235.82813-4.28515 1.38672-1.41797-1.38672 1.40625-4.4375"/><path fill="#00d4fc" fill-rule="evenodd" d="M166.1914 452.59766l-.85546-3.33594.85547-3.3711 1.16797-1.0703 3.26953-1.3125 4.4375.67968.32812.63281-.32812.4414-4.4375.70704-3.1875 3.29297-1.25 3.33594"/><path fill="#50fcfc" fill-rule="evenodd" d="M197.26172 444.35547l-1.02344-3.97266 1.02344-.98047 4.4375-1.51562 4.4375-.8164 2.73047-1.125 1.70703-.76954v4.30078l-1.53906.90625-2.39453 4.4375 3.93359 2.86719L212 449.26172l2.23828 4.4375-3.66406 3.69531-.94922.74219.94922 1.26172 4.4414-.5625 2.1172-.69922 1.08202-4.4375 1.23828-1.08985.77344-3.34765-.77344-1.76172-2.59765-2.67969-1.83984-1.52344-2.91016-2.91406-1.53125-.90625v-4.30078l4.4414-.21484 3.75391.98437.6836.16406.34765-.16406 1.49219-4.4375 2.59766-3.19922.55468-1.23828-.55469-3.89453-.3203-.54687.3203-.32422 4.4375-3.77344 2.4297-.33984 2.0078-.98438 4.44141-3 4.4375.46485 3.94922-.91797-3.94922-2.84375-4.4375 2.24218-2.89844-3.83593-.1328-4.44141 3.03124-3.03125v2.11328l-.91797.91797.6875 4.4414.23047.30079.53125-.30078.83203-4.44141-1.36328-.91797v-2.11328l4.4375 2.89063.14063.14062 1.5 4.4414 2.79687 3.92579v2.05078l-4.4375.76562-4.4375.82032-1.66016 1.3125-2.78125 1.6953-4.4375.25392-2.74218 2.48828.67969 4.4414 2.0625 1.86328 4.4375-.16015 4.4414 2.09375.97656.64062 3.46094 2.46094 3.91797-2.46094.51953-.28906 3.71875-4.14844.30078-4.4414-1.60156-4.4375-2.41797-2.89844v-2.05078l3.22656-3.92578 1.21094-1.21875v7.78515l-.61719 2.3086.6172 1.90234 4.03515-1.90234-4.03516-2.3086v-7.78515l3.76563-3.22266.67187-.66797 4.4414-.83984v2.42969l-4.4414 1.35937-2.32812 2.16016-1.19532 4.4375 3.52344 3.125 3.91406 1.3125.52735.3203.32812-.3203 2.7539-4.4375.13673-4.4375-3.21875-3.51954v-2.42968l2.02344 1.50781 2.41406 4.21484.13281.22657-.13281.26171-.33203 4.17579-1.23047 4.4375-2.875 2.8164-4.4414-1.89062-.98048 3.51172.98047 1.59375 4.4414.77343 4.4375-1.88671.41016-.48047 4.02735-3.89063v.82422l-3.17578 3.0664-1.26172 1.47657-3.8789 2.96484 3.8789 3.51953.57031.91797 2.02344 4.4375 1.58594 4.4375.2578.29297 4.4375 1.03125 1.07813-1.32422 3.36328-1.73437 4.08594-2.70313.35156-.10547 4.4375-.83984 3.45704-3.49219.80468-4.4375-2.46094-4.4414-1.80078-1.00782-4.4375-1.71875-4.4375.23829-4.4414-.31641-4.4375-.26172v-.82422l4.4375-.10547 4.4414.0039 4.4375.17188 4.4375.73438 4.4375 1.75 1.36329 1.33594-1.32813 4.4414-.03516.03125-.38671 4.40625-4.05079 4.09375-1.84765.34375-2.58985 2.44922-4.4375 1.39453-1.15234.59375-3.28906 4.04297-4.4375-.91406-2.77735-3.1289-.8828-4.4375-.77735-2.90626-1.125-1.53125-3.3125-2.39062-4.4414-.66797-4.4375-.17969-2.04688 3.23828-2.39063 2.3125-4.4375 1.33594-4.4375-1.89453-1.84375-1.7539-2.59766-1.00391-4.4375.07421-1.84765.9297 1.84766 1.3789v2.45312l-1.16016.60547 1.16016.83203.58203-.83203-.58203-.60547v-2.45312l2.92968 3.0586-2.92969 4.20312-.42968.23437-.75781 4.4375-2.94922 4.4414 4.13672 1.81642 3.54687 2.62109-.8086 4.4375-2.73827 1.41797-4.4375.63672-4.4375 1.54687-2.07422.83594-2.36328 1.57812-4.44141 2.28516-2.21094.57813-2.22656.53906-1.53516-.53906-2.20703-4.44141.875-4.4375 2.86719-3.0039 2.29687-1.4336-1.98437-4.4375-.3125-.21094-4.4375.17578-4.34766-4.40625-.08984-.46484m4.4375-36.39844l-2.26172-3.08203 2.26172-2.27734 4.4375.21875 1.65625 2.05859-1.65625 1.60938-4.4375 1.47265"/><path fill="#00e8fc" fill-rule="evenodd" d="M210.57422 447.6875l-3.9336-2.86719 2.39454-4.4375 1.53906-.90625 1.53125.90625 2.91016 2.91406 1.83984 1.52344 2.59766 2.67969.77343 1.76172-.77344 3.34765-1.23828 1.08985-1.08203 4.4375-2.11719.69922-4.4414.5625-.94922-1.26172.94922-.74219 3.66406-3.69531L212 449.26172l-1.42578-1.57422"/><path fill="#50fcfc" fill-rule="evenodd" d="M209.0625 418.1914l-1.91406-4.4375 3.42578-3.36718 4.4414-.83594v.65625l-4.4414 1.86719-1.70703 1.67969 1.70703 2.58203 4.4414 1.21875 3.51563-3.80078-3.51563-3.54688v-.65625l4.16407 4.20313-3.47656 4.4375-.6875.64062-4.44141.83985-1.51172-1.48047"/><path fill="#00e8fc" fill-rule="evenodd" d="M210.57422 416.33594l-1.70703-2.58203 1.70703-1.6797 4.4414-1.86718v1.09375l-3.76562 2.45313 3.76563 2.6289 2.42968-2.6289-2.42969-2.45313v-1.09375l3.51563 3.54688-3.51563 3.80078-4.4414-1.21875"/><path fill="#00d4fc" fill-rule="evenodd" d="M215.01563 416.38281l-3.76563-2.6289 3.76563-2.45313v1.08985l-2.08985 1.36328 2.08984 1.45703 1.34766-1.45703-1.34766-1.36329v-1.08984l2.4297 2.45313-2.4297 2.6289"/><path fill="#00c4fc" fill-rule="evenodd" d="M215.01563 415.21094l-2.08985-1.45703 2.08984-1.36329v1.09375l-.41406.26954.41406.28906.26563-.28906-.26563-.26954v-1.09375l1.34766 1.36329-1.34766 1.45703"/><path fill="#00b8fc" fill-rule="evenodd" d="M215.01563 414.04297l-.41407-.28906.41406-.26954.26563.26954-.26563.28906"/><path fill="#00e8fc" fill-rule="evenodd" d="M226.26563 427.07031l-.6797-4.4414 2.7422-2.48829 4.4375-.2539 2.78125-1.69531 1.66015-1.3125 4.4375-.82032 4.4375-.76562v2.79297l-1.45703.10547-2.98047.22265-4.4375.86719-4.0664 3.34766.83203 4.4414 3.23437 1.98438 3.75781 2.45312.6797.48047.76952-.48047 3.66797-2.02734 2.16016-2.41016.16015-4.4414-2.23047-4.4375-.08984-.10547v-2.79297L248.5 418.1914l1.60156 4.4375-.30078 4.4414-3.71875 4.14844-.51953.28906-3.91797 2.46094-3.46094-2.46094-.97656-.64062-4.4414-2.09375-4.4375.16015-2.0625-1.86328m2.0625 9.70703l-1.16016-.83203 1.16016-.60547.58203.60547-.58203.83203"/><path fill="#00d4fc" fill-rule="evenodd" d="M233.97266 427.07031l-.83203-4.4414 4.0664-3.34766v1.54688l-2.1914 1.80078 1.91406 4.4414.27734.16797 4.4375 3.58594 4.4375-3.08594.60156-.66797.01953-4.4414-.62109-1.21875-4.4375-.09375-4.4375-.48829v-1.54687l4.4375-.86719 2.98047-.22265 1.45703-.10547.08984.10547 2.23047 4.4375-.16015 4.4414-2.16016 2.41016-3.66797 2.02734-.76953.48047-.67969-.48047-3.7578-2.45312-3.23438-1.98438"/><path fill="#00c4fc" fill-rule="evenodd" d="M236.92969 427.07031l-1.91406-4.4414 2.1914-1.80079v1.54297l-.3125.25782.3125.6914.98828 3.75 3.44922 2.85156 3.71484-2.85156-3.71484-3.78515-3.40625-.65625-1.03125-.25782v-1.54296l4.4375.48828 4.4375.09375.6211 1.21875-.01954 4.4414-.60156.66797-4.4375 3.08594-4.4375-3.58594-.27734-.16797"/><path fill="#00e8fc" fill-rule="evenodd" d="M236.97656 409.3164l-.6875-4.4414.91797-.91797 1.36328.91797-.83203 4.4414-.53125.30079-.23047-.30078"/><path fill="#00b8fc" fill-rule="evenodd" d="M237.20703 423.32031l-.3125-.6914.3125-.25782 1.03125.25782 3.40625.65625v1.1953l-2.35937 2.58985 2.35937 1.94922 2.53906-1.94922-2.53906-2.58984v-1.19531l3.71484 3.78515-3.71484 2.85156-3.44922-2.85156-.98828-3.75"/><path fill="#00a8fc" fill-rule="evenodd" d="M241.64453 429.01953l-2.35937-1.94922 2.35937-2.58984v1.19531l-1.26953 1.39453 1.26953 1.04688 1.36719-1.04688-1.36719-1.39453v-1.19531l2.53906 2.58984-2.53906 1.94922"/><path fill="#009800" fill-rule="evenodd" d="M241.64453 428.11719l-1.26953-1.04688 1.26953-1.39453v1.19922l-.17969.19531.1797.14453.1914-.14453-.1914-.19531v-1.19922l1.36718 1.39453-1.36719 1.04688"/><path fill="#00ac00" fill-rule="evenodd" d="M241.64453 427.21484l-.17969-.14453.1797-.19531.1914.19531-.1914.14453"/><path fill="#fff" fill-opacity="0" fill-rule="evenodd" d="M250.51953 415.88281l-.61719 2.3086.6172 1.90234 4.03515-1.90234-4.03516-2.3086"/><path fill="#50fcfc" fill-rule="evenodd" d="M250.51953 351.98438l-.1836-.3672.1836-.27734.25781.27735-.2578.36719"/><path fill="#00e8fc" fill-rule="evenodd" d="M254.95703 416.8789l-3.52344-3.125 1.19532-4.4375 2.32812-2.16015 4.4414-1.35938v2.26172l-2.35156 1.25782-2.08984 2.54687-.94531 1.89063.94531.83984 4.4414 1.22656 1.3711-2.0664-.21875-4.4375-1.15234-1.25782v-2.26171l3.21875 3.51953-.13672 4.4375-2.7539 4.4375-.32813.3203-.52735-.3203-3.91406-1.3125"/><path fill="#00d4fc" fill-rule="evenodd" d="M254.95703 414.59375l-.94531-.83984.94531-1.89063 2.08984-2.54687 2.35157-1.25782 1.15234 1.25782.21875 4.4375-1.3711 2.0664-4.4414-1.22656"/><path fill="#00e8fc" fill-rule="evenodd" d="M263.83594 430.58984l-3.8789-3.51953 3.8789-2.96484 1.26172-1.47656 3.17578-3.06641v1.375l-1.7539 1.6914-2.6836 3.13673-1.70313 1.30468 1.70313 1.54688 1.80469 2.89062 2.6328 3.75.60548.6875 3.83203 3.45313 4.4414-2.65235 1.21094-.80078 3.22656-.99219 4.4375-.95312 2.46485-2.49219 1.5-4.4375-3.96485-4.21875-2.60937-.22265-1.82813-.90625-4.39062.90625-.04688.0078-.0625-.0078-4.3789-.81641-4.4375-.875v-1.375l4.4375.26172 4.4414.3164 4.4375-.23828 4.4375 1.71875 1.80079 1.00782 2.46093 4.4414-.80469 4.4375L286.02735 435l-4.4375.83984-.35156.10547-4.08594 2.70313-3.36328 1.73437-1.07812 1.32422-4.4375-1.03125-.25781-.29297-1.58594-4.4375-2.02344-4.4375-.57031-.91797"/><path fill="#00d4fc" fill-rule="evenodd" d="M263.83594 428.61719l-1.70313-1.54688 1.70313-1.30469 2.6836-3.13671 1.7539-1.69141v1.375l-.32813.3164-3.77734 4.44141 2.70312 4.4375 1.40235 1.9961 2.15234 2.4414 2.28516 2.0625 3.19531-2.0625 1.2461-2.54297 4.4375.66797 4.4375-1.07422 1.47265-1.48828 2.19531-4.4375-3.66797-3.90234-4.4375-.07031-4.4375.42578-4.4414-.16797-3.17969-.72656-1.25781-.31641v-1.375l4.4375.875 4.3789.8164.0625.00782.04688-.00781 4.39062-.90625 1.82813.90625 2.60937.22265 3.96485 4.21875-1.5 4.4375L286.02734 434l-4.4375.95313-3.22656.99218-1.21094.80078-4.4414 2.65235-3.83203-3.45313-.60547-.6875-2.63281-3.75-1.8047-2.89062"/><path fill="#00c4fc" fill-rule="evenodd" d="M266.8711 431.50781l-2.70313-4.4375 3.77734-4.4414.32813-.31641 1.25781.3164 3.17969.72657 4.4414.16797 4.4375-.42578 4.4375.0703v.31642l-4.4375.54296-4.4375.38282-4.4414.17968-4.4375-.55468-2.5625 3.03515 2.39453 4.4375.16797.24219 3.69531 4.19531.74219.66797 1.03906-.66797-1.03906-3.625-1.94922-.8125 1.94922-.22656 4.4414-.48047 1.01954.70703 3.41796 1.67578 4.4375-1.1914.48047-.48438 2.89453-4.4375-3.375-3.58594v-.3164l3.66797 3.90234-2.19531 4.4375-1.47266 1.48828-4.4375 1.07422-4.4375-.66797-1.24609 2.54297-3.19531 2.0625-2.28516-2.0625-2.15234-2.4414-1.40235-1.9961"/><path fill="#00b8fc" fill-rule="evenodd" d="M268.10547 431.50781l-2.39453-4.4375 2.5625-3.03515 4.4375.55468 4.4414-.17968 4.4375-.38282 4.4375-.54296v.3125l-4.4375 1.15625-4.4375.34375-4.4414.52734-4.4375.03906-1.01953 1.20703 1.01953 1.92188 4.4375.1914 4.4414.3711 2.82032 1.95312 1.61718.79297 2.82032-.79297 1.61718-.21094 3.07813-4.22656-3.07813-3.27344v-.3125l3.375 3.58594-2.89453 4.4375-.48047.48438-4.4375 1.1914-3.41796-1.67578-1.01954-.70703-4.4414.48047-1.94922.22656 1.94922.8125 1.03906 3.625-1.03906.66797-.74219-.66797-3.69531-4.19531-.16797-.24219"/><path fill="#00a8fc" fill-rule="evenodd" d="M268.27344 428.99219l-1.01953-1.92188 1.01953-1.20703 4.4375-.03906 4.4414-.52735 4.4375-.34375 4.4375-1.15625v.31641l-4.4375 1.76953-4.4375.30078-4.4414.8711-.125.01562.125.01953 4.4414 1.21875 4.4375 2.8711 4.4375-.28906 2.78125-3.82032-2.78125-2.95703v-.3164l3.07813 3.27343-3.07813 4.22656-1.61718.21094-2.82032.79297-1.61718-.79297-2.82032-1.95312-4.4414-.3711-4.4375-.1914"/><path fill="#009800" fill-rule="evenodd" d="M272.71094 427.08984l-.125-.01953.125-.01562 4.4414-.8711 4.4375-.30078 4.4375-1.76953v.3125l-4.4375 2.38672-4.39843.25781 4.39843.89063 4.4375 2.52344 2.48438-3.41407-2.48438-2.64453v-.3125l2.78125 2.95703-2.78125 3.82031-4.4375.28907-4.4375-2.8711-4.4414-1.21875"/><path fill="#00ac00" fill-rule="evenodd" d="M281.58984 427.96094l-4.39843-.89063 4.39843-.25781 4.4375-2.38672v.3164l-4.04296 2.32813 4.04296 3.00781 2.1875-3.0078-2.1875-2.32813v-.3164l2.48438 2.64452-2.48438 3.41406-4.4375-2.52343"/><path fill="#00c800" fill-rule="evenodd" d="M286.02734 430.07813l-4.04296-3.00782 4.04296-2.32812v.6289l-2.94921 1.69922 2.94921 2.1914 1.59766-2.1914-1.59766-1.69922v-.6289l2.1875 2.32812-2.1875 3.00781"/><path fill="#10cc00" fill-rule="evenodd" d="M286.02734 429.26172l-2.94921-2.1914 2.94921-1.69923V426l-1.85546 1.07031 1.85546 1.3789 1.00391-1.3789L286.02735 426v-.6289l1.59765 1.69921-1.59766 2.1914"/><path fill="#24d000" fill-rule="evenodd" d="M286.02734 428.44922l-1.85546-1.3789L286.02733 426v.6289l-.76171.44141.76171.5664.41407-.5664-.41407-.4414V426l1.00391 1.07031-1.0039 1.3789"/><path fill="#3cd800" fill-rule="evenodd" d="M286.02734 427.63672l-.76171-.5664.76171-.44141.41407.4414-.41407.5664"/><path fill="#50fcfc" fill-rule="evenodd" d="M299.34375 459.46875l-2.09375-1.33203 2.09375-1.58985 4.4375-1.78906 1.14453-1.0586 3.29297-2.59765v3.30469l-4.01563 3.73047 4.01563 2.11328 4.4375.0625 4.4414-1.83594.44923-.33984-.44922-.8125-4.44141-2.91797h-4.4375v-3.30469l4.4375-.0625 4.4414.57422 2.94532 2.08594.8164 4.4375-3.76171 2.85156-4.44141 1.02735-4.4375.25-4.4375-.41797-4.4375-2.37891"/><path fill="#00e8fc" fill-rule="evenodd" d="M308.21875 460.25l-4.01563-2.11328 4.01563-3.73047h4.4375l4.4414 2.91797.44923.8125-.44922.33984-4.44141 1.83594-4.4375-.0625"/><path fill="#50fcfc" fill-rule="evenodd" d="M325.97266 458.96484l-1.89063-.82812.82422-4.4375 1.0664-1.65625 4.4375-2.30078 1.4961-.48047 2.9414-1.5 4.44141 1.17969.96875.3203-.16797 4.4375-.80078.61329-4.4414 2.72656-.85157 1.09766-3.58593 2.58984-4.4375-1.76172m124.27343 7.15235l-3.26562-3.54297 3.26562-2.48828 2.03907-1.94922 2.39843-2.1289 4.44141-.56641v2.6289l-.27344.0664-4.16797.77345-3.7539 3.66406 3.7539 2.46875 4.41797-2.46875.02344-1.24219.0664-3.19531-.0664-.0664v-2.62891l3.4375-1.7422 1-1.30468 1.1211 1.30469-1.1211 1.0039-1.73828 3.4336.01172 4.4375-2.71094 2.94922-4.4414.85547-4.4375-.26172"/><path fill="#00e8fc" fill-rule="evenodd" d="M454.6836 465.04297l-3.75391-2.46875 3.7539-3.66406v3.3125l-.35937.35156.35937.23828.42579-.23828-.42579-.35156v-3.3125l4.16797-.77344.27344-.0664.0664.0664-.0664 3.19531-.02344 1.24219-4.41797 2.46875"/><path fill="#00d4fc" fill-rule="evenodd" d="M454.6836 462.8125l-.35938-.23828.35937-.35156.42579.35156-.42579.23828"/><path fill="#50fcfc" fill-rule="evenodd" d="M459.125 478.58594l-3.32031-2.69531 2.0625-4.4375 1.25781-.7461v5.03906l-.09766.14454.09766.07812.08984-.07813-.08984-.14453v-5.03906l.80078.7461 2.38281 4.4375-3.18359 2.6953"/><path fill="#00e8fc" fill-rule="evenodd" d="M459.125 475.96875l-.09766-.07813.09766-.14453.08984.14454-.08984.07812"/><g clip-path="url(#c)"><path fill="#fff" fill-opacity="0" fill-rule="evenodd" d="M467.9961 480.32813H468V311.67188h-.0039H468v168.65625h-.0039"/></g><path fill="#fff" fill-opacity="0" fill-rule="evenodd" d="M251.45703 414.14844l4.28125-3.97266-6.77344-7.30078-4.28125 3.97266 6.77344 7.30078"/><path fill-rule="evenodd" d="M248.49219 405.8125l.375-.34766 4.28125 4.61329-.57813.53515-3.05078-3.28906-1.01953.94531-.3789-.41015.36718-.42579.14844-.21093.10547-.22266.05469-.24219-.01563-.27344-.09766-.3125-.1914-.35937"/><path fill="#fff" fill-opacity="0" fill-rule="evenodd" d="M262.76563 446.1875l5.05859 2.92188 4.98437-8.625-5.05859-2.92188-4.98438 8.625"/><path fill-rule="evenodd" d="M269.86328 440.89844l.4414.25781-3.14843 5.44922-.6836-.39453 2.2461-3.88672-1.20313-.69531.27735-.48047.51953.22265.24219.08204.2461.03515.24608-.01953.25391-.09375.27344-.1836.28906-.29296"/><path fill="#fff" fill-opacity="0" fill-rule="evenodd" d="M167.42188 469.90234l5.83593-.2539-.42969-9.94922-5.83593.2539.42969 9.94922"/><path fill-rule="evenodd" d="M170.5664 461.63281l.50782-.02344.27344 6.28907-.78516.03515-.19531-4.48828-1.38672.0625-.02344-.55469.55469-.08984.25-.0664.22656-.09766.19531-.14844.16797-.21875.125-.30078.08985-.39844"/><g clip-path="url(#d)"><path fill="none" stroke="#000" stroke-linecap="round" stroke-linejoin="round" stroke-miterlimit="10" stroke-width=".5" d="M145.60938 477.20313l-3.21875 6.25"/></g><g clip-path="url(#e)"><path fill="none" stroke="#000" stroke-linecap="round" stroke-linejoin="round" stroke-miterlimit="10" stroke-width=".5" d="M156.5664 476.89453l1.4961 6.86719"/></g><path fill="none" stroke="#000" stroke-linecap="round" stroke-linejoin="round" stroke-miterlimit="10" stroke-width=".5" d="M156.78516 477.89453l.93359-.79297"/><g clip-path="url(#f)"><path fill="none" stroke="#000" stroke-linecap="round" stroke-linejoin="round" stroke-miterlimit="10" stroke-width=".5" d="M170.1914 476.84375l.875 6.97266"/></g><path fill="none" stroke="#000" stroke-linecap="round" stroke-linejoin="round" stroke-miterlimit="10" stroke-width=".5" d="M170.32031 477.85547l1.0039-.70313"/><g clip-path="url(#g)"><path fill="none" stroke="#000" stroke-linecap="round" stroke-linejoin="round" stroke-miterlimit="10" stroke-width=".5" d="M182.76953 477.01953l2.35156 6.6211"/></g><path fill="none" stroke="#000" stroke-linecap="round" stroke-linejoin="round" stroke-miterlimit="10" stroke-width=".5" d="M183.11328 477.98047l.82422-.90625"/><g clip-path="url(#h)"><path fill="none" stroke="#000" stroke-linecap="round" stroke-linejoin="round" stroke-miterlimit="10" stroke-width=".5" d="M197.14453 476.8164l.23047 7.02344"/></g><g clip-path="url(#i)"><path fill="none" stroke="#000" stroke-linecap="round" stroke-linejoin="round" stroke-miterlimit="10" stroke-width=".5" d="M211.875 483.59375l-2.59766-6.53125"/></g><g clip-path="url(#j)"><path fill="none" stroke="#000" stroke-linecap="round" stroke-linejoin="round" stroke-miterlimit="10" stroke-width=".5" d="M226.9336 482.08203l-6.08594-3.50781"/></g><g clip-path="url(#k)"><path fill="none" stroke="#000" stroke-linecap="round" stroke-linejoin="round" stroke-miterlimit="10" stroke-width=".5" d="M240.70313 479.99219l-6.9961.67578"/></g><g clip-path="url(#l)"><path fill="none" stroke="#000" stroke-linecap="round" stroke-linejoin="round" stroke-miterlimit="10" stroke-width=".5" d="M239.6836 480.08984l.67968 1.02344"/></g><g clip-path="url(#m)"><path fill="none" stroke="#000" stroke-linecap="round" stroke-linejoin="round" stroke-miterlimit="10" stroke-width=".5" d="M253.73828 478.91797l-6.4336 2.82422"/></g><g clip-path="url(#n)"><path fill="none" stroke="#000" stroke-linecap="round" stroke-linejoin="round" stroke-miterlimit="10" stroke-width=".5" d="M252.80078 479.32813l.96484.76171"/></g><g clip-path="url(#o)"><path fill="none" stroke="#000" stroke-linecap="round" stroke-linejoin="round" stroke-miterlimit="10" stroke-width=".5" d="M266.75 478.36719l-5.83203 3.92187"/></g><path fill="none" stroke="#000" stroke-linecap="round" stroke-linejoin="round" stroke-miterlimit="10" stroke-width=".5" d="M265.90234 478.9375l1.08203.57813"/><g clip-path="url(#p)"><path fill="none" stroke="#000" stroke-linecap="round" stroke-linejoin="round" stroke-miterlimit="10" stroke-width=".5" d="M280.16406 478.51953l-6.02734 3.61719"/></g><path fill="none" stroke="#000" stroke-linecap="round" stroke-linejoin="round" stroke-miterlimit="10" stroke-width=".5" d="M279.28516 479.04688l1.05078.6328"/><g clip-path="url(#q)"><path fill="none" stroke="#000" stroke-linecap="round" stroke-linejoin="round" stroke-miterlimit="10" stroke-width=".5" d="M293.73047 479.03125l-6.53125 2.59766"/></g><g clip-path="url(#r)"><path fill="none" stroke="#000" stroke-linecap="round" stroke-linejoin="round" stroke-miterlimit="10" stroke-width=".5" d="M293.73047 479.03125l1.8711 1.58594"/></g><g clip-path="url(#s)"><path fill="none" stroke="#000" stroke-linecap="round" stroke-linejoin="round" stroke-miterlimit="10" stroke-width=".5" d="M307.26172 479.83984l-6.96094.98047"/></g><g clip-path="url(#t)"><path fill="none" stroke="#000" stroke-linecap="round" stroke-linejoin="round" stroke-miterlimit="10" stroke-width=".5" d="M306.2461 479.98047l.72265.99219"/></g><g clip-path="url(#u)"><path fill="none" stroke="#000" stroke-linecap="round" stroke-linejoin="round" stroke-miterlimit="10" stroke-width=".5" d="M320.59375 480.66797l-6.9961-.67969"/></g><g clip-path="url(#v)"><path fill="none" stroke="#000" stroke-linecap="round" stroke-linejoin="round" stroke-miterlimit="10" stroke-width=".5" d="M319.57422 480.57031l.46875 1.13281"/></g><g clip-path="url(#w)"><path fill="none" stroke="#000" stroke-linecap="round" stroke-linejoin="round" stroke-miterlimit="10" stroke-width=".5" d="M333.85547 479.63672l-6.89063 1.38281"/></g><g clip-path="url(#x)"><path fill="none" stroke="#000" stroke-linecap="round" stroke-linejoin="round" stroke-miterlimit="10" stroke-width=".5" d="M332.85156 479.83984l.78125.94922"/></g><g clip-path="url(#y)"><path fill="none" stroke="#000" stroke-linecap="round" stroke-linejoin="round" stroke-miterlimit="10" stroke-width=".5" d="M346.6914 478.44531l-5.93359 3.76563"/></g><path fill="none" stroke="#000" stroke-linecap="round" stroke-linejoin="round" stroke-miterlimit="10" stroke-width=".5" d="M346.6914 478.44531l2.13282 1.21094"/><g clip-path="url(#z)"><path fill="none" stroke="#000" stroke-linecap="round" stroke-linejoin="round" stroke-miterlimit="10" stroke-width=".5" d="M360.20703 478.80469l-6.33203 3.05078"/></g><g clip-path="url(#A)"><path fill="none" stroke="#000" stroke-linecap="round" stroke-linejoin="round" stroke-miterlimit="10" stroke-width=".5" d="M359.28516 479.2461l.98828.72656"/></g><g clip-path="url(#B)"><path fill="none" stroke="#000" stroke-linecap="round" stroke-linejoin="round" stroke-miterlimit="10" stroke-width=".5" d="M373.86328 480.08984l-7.01172.47657"/></g><g clip-path="url(#C)"><path fill="none" stroke="#000" stroke-linecap="round" stroke-linejoin="round" stroke-miterlimit="10" stroke-width=".5" d="M372.83984 480.16016l.64844 1.03906"/></g><g clip-path="url(#D)"><path fill="none" stroke="#000" stroke-linecap="round" stroke-linejoin="round" stroke-miterlimit="10" stroke-width=".5" d="M387.1836 480.3789l-7.02735-.09765"/></g><g clip-path="url(#E)"><path fill="none" stroke="#000" stroke-linecap="round" stroke-linejoin="round" stroke-miterlimit="10" stroke-width=".5" d="M387.1836 480.3789l1.12109 2.1797"/></g><g clip-path="url(#F)"><path fill="none" stroke="#000" stroke-linecap="round" stroke-linejoin="round" stroke-miterlimit="10" stroke-width=".5" d="M400.13672 478.77344l-6.30078 3.11328"/></g><g clip-path="url(#G)"><path fill="none" stroke="#000" stroke-linecap="round" stroke-linejoin="round" stroke-miterlimit="10" stroke-width=".5" d="M400.13672 478.77344l1.99219 1.42969"/></g><g clip-path="url(#H)"><path fill="none" stroke="#000" stroke-linecap="round" stroke-linejoin="round" stroke-miterlimit="10" stroke-width=".5" d="M413.24219 478.40625l-5.88281 3.84375"/></g><path fill="none" stroke="#000" stroke-linecap="round" stroke-linejoin="round" stroke-miterlimit="10" stroke-width=".5" d="M412.38672 478.96484l1.07422.59375"/><g clip-path="url(#I)"><path fill="none" stroke="#000" stroke-linecap="round" stroke-linejoin="round" stroke-miterlimit="10" stroke-width=".5" d="M426.85938 478.97656l-6.48438 2.70313"/></g><g clip-path="url(#J)"><path fill="none" stroke="#000" stroke-linecap="round" stroke-linejoin="round" stroke-miterlimit="10" stroke-width=".5" d="M426.85938 478.97656l1.89843 1.55469"/></g><g clip-path="url(#K)"><path fill="none" stroke="#000" stroke-linecap="round" stroke-linejoin="round" stroke-miterlimit="10" stroke-width=".5" d="M439.64453 478.09766l-5.42578 4.46484"/></g><path fill="none" stroke="#000" stroke-linecap="round" stroke-linejoin="round" stroke-miterlimit="10" stroke-width=".5" d="M439.64453 478.09766l2.26563.9375m-3.0547-.28907l1.13282.46875"/><g clip-path="url(#L)"><path fill="none" stroke="#000" stroke-linecap="round" stroke-linejoin="round" stroke-miterlimit="10" stroke-width=".5" d="M451.23047 476.95703l-1.96875 6.7461"/></g><path fill="none" stroke="#000" stroke-linecap="round" stroke-linejoin="round" stroke-miterlimit="10" stroke-width=".5" d="M451.23047 476.95703l2.40234-.5"/><g clip-path="url(#M)"><path fill="none" stroke="#000" stroke-linecap="round" stroke-linejoin="round" stroke-miterlimit="10" stroke-width=".5" d="M466.30078 478.1289l-5.48047 4.39844"/></g><g clip-path="url(#N)"><path fill="none" stroke="#000" stroke-linecap="round" stroke-linejoin="round" stroke-miterlimit="10" stroke-width=".5" d="M466.30078 478.1289l2.2539.96876"/></g><g clip-path="url(#O)"><path fill="none" stroke="#000" stroke-linecap="round" stroke-linejoin="round" stroke-miterlimit="10" stroke-width=".5" d="M147.13672 465.4336l-6.27344 3.16015"/></g><path fill="none" stroke="#000" stroke-linecap="round" stroke-linejoin="round" stroke-miterlimit="10" stroke-width=".5" d="M146.22266 465.89063l1.0039.71093m12.84766-1.76172l-5.51953 4.34766m5.51953-4.34766l2.2461.9922m10.68359-1.41017l-4.7461 5.1836m4.7461-5.1836l2.375.6172m11.28125-.25782l-5.4297 4.46484m4.63673-3.8164l1.13672.47265m13.70312.4297l-6.89453 1.36327m5.89063-1.16797l.77734.95313m12.66406 1.9336l-5.13672-4.80079m4.38672 4.10156l-.3164 1.1836m14.55859-.6914l-5.49219-4.38673m4.6914 3.75l-.22655 1.20313m14.9375-1.67578l-6.6836-2.16797m5.71094 1.85156l.21484 1.20703m14.15625-2.76562l-6.84765 1.58203m5.85156-1.35157l.80469.92579m13.08984-2.1797l-6.01953 3.62891m5.14453-3.10156l1.05469.63281m13.29297-.87109l-6.33203 3.05078m5.41015-2.60547l.98828.72266m13.51953-.3789l-6.87109 1.47265m5.8711-1.25781l.78906.9375m13.5664-.9336l-6.95312 1.03516m5.9414-.88672l.72657.98828m13.46484-1.70312l-6.6836 2.16797m6.6836-2.16797l1.76563 1.70312m11.6289-1.41406l-6.84375 1.58984m6.84375-1.58984l1.61328 1.84766m11.79297-1.02735l-7.02734-.05078m7.02734.05078l1.13672 2.17578m12.1211-2.83984l-6.91016 1.27734m5.90625-1.08984l.76172.95703m12.8125-2.74219l-5.42188 4.47266m4.63281-3.82031l1.13282.46875m13.77343 1.21484l-7.02343-.19922m7.02343.19922l1.08985 2.19531m12.21484-2.58984l-7.0039.58984m7.0039-.58984l1.32813 2.0625m11.97265-2.17969l-6.97656.82422m6.97656-.82422l1.39844 2.01953m-2.41016-1.89843l.69532 1.0078m13.64843-.45312l-7.0078-.52734m7.0078.52734l.98438 2.2461m12.29297-3.08203l-6.9336 1.14453m6.9336-1.14453l1.48828 1.94922m-2.4961-1.78125l.7422.97265m12.8125 1.6836l-5.39454-4.50391m4.60938 3.84766l-.25391 1.19921m12.96875.46485l-2.6289-6.51953m2.24609 5.5703l-.78516.9375"/><g clip-path="url(#P)"><path fill="none" stroke="#000" stroke-linecap="round" stroke-linejoin="round" stroke-miterlimit="10" stroke-width=".5" d="M147.26953 452.41016l-6.53906 2.57422"/></g><path fill="none" stroke="#000" stroke-linecap="round" stroke-linejoin="round" stroke-miterlimit="10" stroke-width=".5" d="M147.26953 452.41016l1.86328 1.59765m11.58203-1.20312l-6.79687 1.78515m6.79687-1.78515l1.66407 1.80469m11.6875-1.64454l-6.8711 1.46875m6.8711-1.46875l1.57812 1.87891m11.76953-1.70312l-6.9375 1.11328m6.9375-1.11328l1.48047 1.95703m11.8789-1.45313l-7.02734.10938m7.02735-.10938l1.1836 2.14844m12.0703-1.44531l-6.90625-1.29688m5.90235 1.10938l.36719 1.16797m13.8164-.46485l-6.63281-2.32812m5.66797 1.98828l.1836 1.21484m13.78905-.22265l-6.01562-3.63282m5.14062 3.10547l-.0703 1.22266m14.76562-2.48828l-7.02735-.05078m6.0039.04296l.56642 1.08985m13.76562-1.3164l-7.01563.42187m5.9922-.35938l.64062 1.04297m13.6914-1.16016l-7.0039.53125m5.98437-.45312l.65625 1.03515m13.6875-.70703l-7.02344-.28125m6 .23828l.53516 1.10547m13.80078-1.01562l-7.01562-.375m5.9961.32031l.51562 1.11328m13.6914-2.19922l-6.76172 1.90625m5.77735-1.6289l.85156.88672m13.3086-1.5625l-6.48438 2.70312m6.48437-2.70312l1.89844 1.55468m11.48438-1.3828l-6.6211 2.35546m5.66016-2.01172l.90625.82813m13.0039-1.91407l-5.88671 3.83985m5.03125-3.28125l1.07421.59375m10.08594-2.74219l.13281 7.02344m-.11328-6.0039l1.07032-.59376m11.875-.40234l.83593 6.97656m-.71484-5.96094l1.00781-.70312m13.0625-.3086l-.91797 6.96875m.78516-5.95312l1.14844-.42969m15.30078 2.28906l-6.92188 1.21485m20.17188.29297l-6.79297-1.79688m5.80469 1.53516l.28125 1.19531m11.29297 1.61719l-1.33204-6.89844m1.33204 6.89844l-1.91016 1.54297m17.1836-2.65625l-5.25-4.67188m4.48827 3.99219l-.28906 1.1914m10.80078.53516l1.88282-6.76953m-1.88282 6.76953l-2.39843.53125"/><g clip-path="url(#Q)"><path fill="none" stroke="#000" stroke-linecap="round" stroke-linejoin="round" stroke-miterlimit="10" stroke-width=".5" d="M147.27734 439.11328l-6.55468 2.53906"/></g><path fill="none" stroke="#000" stroke-linecap="round" stroke-linejoin="round" stroke-miterlimit="10" stroke-width=".5" d="M147.27734 439.11328l1.85547 1.60156m11.64844-.89453l-6.9336 1.125m6.9336-1.125l1.48828 1.95313m11.85547-1.04688l-6.99219-.6875m6.99219.6875l.9375 2.26953m12.39063-2.39062l-7.01563-.44531m7.01563.4453l1.01171 2.23829m12.28516-2.07031l-6.98047-.78125m6.98047.78125l.90625 2.28125m12.41797-2.33203l-6.9961-.67578m6.9961.67578l.9375 2.26562m12.27344-1.70312l-6.78907-1.8047m6.78907 1.8047l.55859 2.39062m12.83594-2.76562l-6.94922-1.05078m6.94922 1.05078l.8164 2.3125m12.40625-1.88282l-6.76172-1.91406m5.77735 1.63672l.25781 1.19922m14.17188-1.95703l-7.02344.15625m6-.13281l.60156 1.0703m13.73828-.94921l-7.02734-.13281m6.0039.11328l.5547 1.09375m13.76952-.82422l-7-.6289m7 .6289l.95313 2.26172m12.25781-1.66797l-6.78906-1.82031m5.80078 1.55859l.27344 1.19531m14.14453-1.69531l-7.01953-.29687m6 .2539l.52734 1.10547m13.42969-2.80078l-6.26563 3.1836m5.35547-2.72266l1.0039.70703m12.40626-2.21875l-4.63281 5.28515m3.95703-4.51562l1.19531.28125m9.60938-1.8125l1.73828 6.8086m-1.48438-5.82032l.90625-.82422m11.58594.03516l2.875 6.41015m-2.45703-5.48046l.7539-.96875m13.03907-.22657l1.08593 6.9414m-.92968-5.93358l.98047-.73438m11.27734-.00781l2.88672 6.40625m-2.46875-5.47266l.75-.97265m10.09375 3.58593l6.99219-.6836m-5.97657.58204l-.67578-1.01953m14.73438 3.83203l3.47656-6.10547m-2.97266 5.21485l-1.22656-.03516m14.625 1.1914l2.29688-6.64062m-2.29688 6.64063l-2.42187.3828m17.26562-.21093l-.75781-6.98437m.64844 5.96875l-1.01563.6914m12.4375-.05078l3.2461-6.23437m-2.77344 5.32812l-1.22657.01172"/><g clip-path="url(#R)"><path fill="none" stroke="#000" stroke-linecap="round" stroke-linejoin="round" stroke-miterlimit="10" stroke-width=".5" d="M147.28906 425.83594l-6.57812 2.46484"/></g><path fill="none" stroke="#000" stroke-linecap="round" stroke-linejoin="round" stroke-miterlimit="10" stroke-width=".5" d="M147.28906 425.83594l1.83985 1.6211m-2.79688-1.26173l.92188.8086m13.52734-.51953l-6.92969 1.16796m6.92969-1.16797l1.49219 1.94532m-2.5-1.77344l.7461.97266m13.62108-.69532l-7.01953.26954m7.01953-.26954l1.23438 2.1211m11.99219-1.1875l-6.84375-1.59766m6.84375 1.59766l.6289 2.3711m12.25391-1.32813l-5.98047-3.6836m5.98047 3.6836l-.15625 2.44921m13.32031-2.21875l-5.67578-4.14453m5.67578 4.14453l-.34765 2.4297m13.77734-2.60157l-5.90625-3.80078m5.90625 3.80078l-.20313 2.44531m13.98829-3.55469l-6.84766-1.58203m6.84766 1.58203l.6328 2.3711m12.69142-2.40235l-6.86329-1.51953m5.86328 1.29688l.32813 1.1836m14.0664-1.63282l-7.02343-.17188m7.02344.17188l1.09765 2.1914m11.70703-.45312l-6.0039-3.65234m5.1289 3.1211l-.0703 1.22265m14.26952-.70703l-6.01953-3.6211m5.14453 3.09375l-.0664 1.22656m14.625-1.54296l-6.75782-1.9336m5.77344 1.65235l.2539 1.20312m13.40235.3164l-5.47265-4.41015m4.67578 3.76953l-.23047 1.20313m10.64062.60937l1.92969-6.7539m8.91406 2.64843l6.875 1.45703m10.48047-4.1914l-1.20703 6.92578m1.03125-5.91797l1.16797-.3789m10.76562-.54688l1.91016 6.76172m-1.63281-5.77735l.88672-.84765m11.73828.00781l2.73437 6.47266m-2.33593-5.53125l.77343-.95313m12.92578-.21484l1.16797 6.92578m-1.16797-6.92578l1.94532-1.4961m-1.77735 2.50391l.97266-.75m9.67187 1.52344l6.17188 3.36328m-5.27344-2.875l.01172-1.22656m11.97656 2.40234l7.02735.03516m-6.00391-.02735l-.57031-1.08593m13.10937 2.39062l6.53516-2.58984m-6.53516 2.58984l-1.86718-1.58984m16.8164 3.40625l3.26563-6.22266m-3.26563 6.22266l-2.45312.01562m18.6328.16406l-2.46483-6.58203m2.10546 5.625l-.80859.91797"/><g clip-path="url(#S)"><path fill="none" stroke="#000" stroke-linecap="round" stroke-linejoin="round" stroke-miterlimit="10" stroke-width=".5" d="M147.19922 412.29688l-6.39844 2.91015"/></g><path fill="none" stroke="#000" stroke-linecap="round" stroke-linejoin="round" stroke-miterlimit="10" stroke-width=".5" d="M147.19922 412.29688l1.94531 1.49609m11.44922-1.30469l-6.55469 2.53125m6.55469-2.53125l1.85547 1.60547m11.6211-1.05078l-6.88282 1.41797m6.88281-1.41797l1.5664 1.89062m11.8086-1.5l-7 .64063m5.98047-.54688l.67188 1.02344m13.49609.3086l-6.66797-2.21485m5.69922 1.89453l.20313 1.21094m13.2578.46094l-5.01952-4.91406m5.01953 4.91406l-.6914 2.35547m14.08202-2.4375l-5.17578-4.75391m5.17578 4.7539l-.61719 2.375m13.67579-2.12109L234.875 411.125m4.66016 5.25781l-.85547 2.29688m15.14844-3.73828l-6.61329-2.37891m5.64844 2.03516l.17578 1.21484M267.33984 414l-7.0078-.49219m5.98827.41797l.5 1.1211m13.57422.05859l-6.48828-2.70313m5.54297 2.3086l.11719 1.22265m14.36718-1.61718l-6.9375-1.12891m5.9297.96484l.39452 1.16407m11.8711-4.78125l-2.82032 6.4375m11.95703-5.38672l5.53516 4.33203m7.41406-.57813l6.26953-3.17187m-5.35937 2.71094l-1.0039-.70704m13.11327-1.17968l6.85938 1.52344m-5.86328-1.30079l-.32422-1.18359m14.84766-1.57031l2.44921 6.58594m-2.09375-5.62891l.8125-.91797m10.91016.7461l4.92578 5.01171m-4.21094-4.28125l.3711-1.16797m12.74219.01953l3.89843 5.84766m-3.89843-5.84765l1.16406-2.16016m11.73828 2.48437l4.72266 5.20313m-4.72266-5.20313l.82812-2.30859m-.14062 3.0664l.41406-1.15624m12.3086.3164l4.53515 5.36719m-4.53515-5.36719l.91015-2.27734m12.28125 2.38281l4.77735 5.15625m-4.77735-5.15625l.8086-2.3164M433.5 413l6.86328 1.50781M433.5 413l-.66016-2.36328m14.9922 5.67187l4.82812-5.10937m-4.82813 5.10937l-2.36328-.65234m3.0664-.09375l-1.18359-.32422m15.76953 2l.88282-6.96875m-.75391 5.95703l-1.14844.4336"/><g clip-path="url(#T)"><path fill="none" stroke="#000" stroke-linecap="round" stroke-linejoin="round" stroke-miterlimit="10" stroke-width=".5" d="M146.76563 398.26953l-5.53125 4.33594"/></g><path fill="none" stroke="#000" stroke-linecap="round" stroke-linejoin="round" stroke-miterlimit="10" stroke-width=".5" d="M146.76563 398.26953l2.24218.99219m10.8711-1.22656l-5.12891 4.80468m5.1289-4.80468l2.32032.79296m10.90625-.8828l-4.94922 4.98827m4.22656-4.26171l1.17578.35156m13.87891 1.79297l-6.98438-.75782m18.07422 3.65625l-2.53125-6.55468m15.10547 6.7539l-1.05078-6.94922m16.3711 5.91016l-5.0625-4.8711m4.32812 4.16016l-.33594 1.17969m14.58594-.69531l-5.46484-4.41797m4.67187 3.77344l-.23437 1.20312m13.625.10938l-4.02735-5.75782m3.4414 4.92188l-.55858 1.09375m11.5625-6.53516l1.76562 6.80078m-1.50781-5.8125l.90234-.82812M277.5 396.9414l-.69922 6.99218m.59766-5.97265l1.13672-.46485m10.58203-.30468l2.69531 6.49218m-2.30078-5.54687l.77734-.94531m11.48438.36328l4.01562 5.76562m-3.4336-4.92578l.5625-1.09375m11 1.63672l6.35548 3m-6.35547-3l-.11328-2.44922m13.45703 2.39063l6.29687 3.11718m-6.29687-3.11718l-.07031-2.45313m13.15625 3.04688l6.7578 1.92968m-5.77343-1.64843l-.25781-1.19922m15.4414-1.58985l1.05079 6.94922m-.89844-5.9375l.98437-.73437m9.50782 1.73828l6.39062 2.91797m11.1211-4.82813l-2 6.73828m1.70703-5.7578l1.20312-.2461m13.01563-.48828l-3.22266 6.24609m3.22266-6.2461l2.45312-.03124m-2.92187.9414l1.22656-.01562m12.82812-.73828l-3.76562 5.93359m3.76562-5.9336l2.44532.1875m10.66015-.3125l-3.34765 6.1797m3.34765-6.1797l2.45313.01954m9.34375-.4375l-.3086 7.01953m.26563-6l1.10547-.52735m10.04687 5.8672l4.10547-5.70313m-4.10547 5.70312l-2.4336-.32812m3.03126-.5l-1.21875-.16406m13.91016.97656l4.15625-5.66797m-4.15625 5.66797l-2.4297-.35547"/><g clip-path="url(#U)"><path fill="none" stroke="#000" stroke-linecap="round" stroke-linejoin="round" stroke-miterlimit="10" stroke-width=".5" d="M146.6211 384.78516l-5.2422 4.67578"/></g><path fill="none" stroke="#000" stroke-linecap="round" stroke-linejoin="round" stroke-miterlimit="10" stroke-width=".5" d="M146.6211 384.78516l2.30077.84765m-3.0625-.16797l1.15235.42579m12.47656-1.52735l-4.34766 5.51953m4.34766-5.51953l2.41406.4336m-3.04687.36718l1.20703.21875m11.6211-1.61328l-2.10548 6.70703m2.10547-6.70703l2.41407-.44922m-2.71875 1.42578l2.41015-.44921m9.71094-.66016l.89063 6.97265m-.89063-6.97265l2-1.41797m8.45703 3.70703l6.60547 2.39453m-5.64453-2.04687l-.17188-1.21485m12.98828 4.12891l5.6836-4.1289m-4.85938 3.52734l-1.10156-.53516m18.63672 1.8086l-4.40625-5.47266m3.76563 4.67578l-.48438 1.1289m15.21484-1.20312l-5.95703-3.73047m5.08985 3.1875l-.08594 1.22656m8.60937-.27734l5.35938-4.54297m12.05469-.9414l-2.83594 6.42578m2.42187-5.49219l1.22657-.08984m14.5703 1.91796l-6.96874.90235m5.95312-.76953l.71094 1m13.6211-1.09766l-6.97657.83203m6.97656-.83203l1.40235 2.01563m-2.41797-1.89454l.70313 1.00782m13.45312-1.8789l-6.625 2.33593m6.625-2.33594l1.8086 1.66016m-2.77344-1.32031l.90625.82812m13.20312-1.57422l-6.28515 3.14453m6.28515-3.14453l2 1.42188m11.6211.82421l-6.89844-1.34765m6.89844 1.34765l.71484 2.34766m12.3164-1.5l-6.33203-3.04297m6.33204 3.04297l.10156 2.45313m-1.01953-2.89454l.04687 1.22657m14.28516-1l-6.52735-2.60938m6.52735 2.60938l.26172 2.4375m-1.21094-2.82031l.13281 1.22265m14.23438-3.15234l-6.73438 2.01172m6.73438-2.01172l1.72265 1.7461m10.4336-3.47267l-4.41407 5.46875m4.41407-5.46875l2.41015.46094m10.57031-.70312l-3.74609 5.94922m3.7461-5.94922l2.4453.17969m-2.99218.6875l1.22266.08984m12.26171-1.16406l-2.98828 6.36328m2.98829-6.36328l2.44921-.1211m-2.88671 1.04688l1.22656-.0586m11.95703-1.07421l-1.85547 6.77734m1.85547-6.77735l2.39453-.53906m-2.66406 1.52344l1.19531-.26953m11.73438-.82813l-.54297 7.00391m.54296-7.0039l2.25-.98048m9.33985 7.6797l2.90625-6.39454m-2.48438 5.46485l-1.22265.07812m16.09375 1.1289l-1.04688-6.94921m1.04688 6.94922l-1.97266 1.46093"/><g clip-path="url(#V)"><path fill="none" stroke="#000" stroke-linecap="round" stroke-linejoin="round" stroke-miterlimit="10" stroke-width=".5" d="M146.44531 371.28516l-4.89062 5.04687"/></g><path fill="none" stroke="#000" stroke-linecap="round" stroke-linejoin="round" stroke-miterlimit="10" stroke-width=".5" d="M146.44531 371.28516l2.35547.67968m10.66797-.92968l-4.3086 5.54687m4.3086-5.54687l2.41797.41796m-3.04297.38672l1.20703.21094m12.25781-1.32812l-3.35937 6.17187m3.35937-6.17187l2.45703.02343m-2.9453.875l2.45312.02344m11.57031-.79297l-3.79688 5.91406m3.79688-5.91406l2.44531.20313m-2.9961.65625l2.44532.20312m11.23047-1.17578l-3.41797 6.14063m3.41797-6.14063l2.45313.04688m9.44921 6.52343l-.58984-7m.5039 5.98047l-1.03124.66797m15.80468-.0586l-3.33593-6.17968M225.07422 376l-.67969 1.02344m16.28125-3.77344l-6.9375 1.11719m6.9375-1.11719l1.48047 1.95313m11.8789-1.42579l-7.02734.0625m7.02735-.0625l1.16797 2.15625m-2.19141-2.14843l.58594 1.07812m13.71093-.51953l-6.9453-1.07031m6.9453 1.07031l.8086 2.3164m-1.82032-2.47265l.8086 2.3164m13.4375-3.60546l-6.78516 1.82031m6.78516-1.82031l1.67578 1.79297m-2.66016-1.52735l1.67188 1.79297m-2.66016-1.53125l.83594.89844m13.8164-2.6914l-5.51562 4.35156m5.51563-4.35157l2.24609.98438m-3.04688-.35156l2.2461.98437m-3.05078-.35156l1.125.49219m13.55078-2.03907l-5.02344 4.91016m5.02344-4.91016l2.33984.7461m-3.07031-.03125l2.33984.74609m12.3047-.64063l-6.22267 3.27344m6.22266-3.27344l2.02734 1.38282m-2.93359-.90625l2.02734 1.38281m12.5586-.73438l-6.95313 1.02344m6.95313-1.02344l1.45703 1.97266m-2.46875-1.82422l.72656.98828m13.5664.08594l-6.8828-1.42187m6.8828 1.42187l.6875 2.35547m-1.6914-2.5625l.34766 1.17578m13.96094-2.42969l-6.86329 1.4961m6.86329-1.4961l1.58984 1.875m-2.58594-1.65625l.79297.9375m13.00781-2.35937l-5.83984 3.90625m5.83984-3.90625l2.16016 1.16015m-3.01172-.59375l1.08203.58204m12.72266-1.60157l-5.1211 4.8125m5.1211-4.8125l2.32422.78907m-3.0664-.08985l1.16015.39453m12.6914-1.29687l-4.70703 5.21875m4.70703-5.21875l2.37891.59375m-3.0664.16406l1.1914.29688m12.53906-1.27344l-4.16406 5.65625m4.16406-5.65625l2.42969.35547m-3.03516.46484l2.4297.35938m11.52343-1.15625L421.5 376.61328m4.23047-5.60937l2.42578.3828m-3.03906.4336l1.21093.1914m13.19141-.58202l-5.17578 4.7539m5.17578-4.7539l2.3125.8164m11.03906 3.89844l-5.24609-4.67187m5.2461 4.67187l-.58204 2.38672m13.33594-1.8789l-4.125-5.6875m4.125 5.6875l-1.07813 2.20312m.47657-3.03125l-.53907 1.10156"/><g clip-path="url(#W)"><path fill="none" stroke="#000" stroke-linecap="round" stroke-linejoin="round" stroke-miterlimit="10" stroke-width=".5" d="M146.38281 357.91016l-4.76562 5.16406"/></g><path fill="none" stroke="#000" stroke-linecap="round" stroke-linejoin="round" stroke-miterlimit="10" stroke-width=".5" d="M145.6914 358.66406l1.1836.3086m12.19531-1.52344l-3.50781 6.08984m3.50781-6.08984l2.44922.08203m10.91797-.05078l-3.61719 6.02344m3.61719-6.02344l2.45313.1289m-2.97657.7461l1.22266.0664m12.86719-.77734l-4.1172 5.69531m4.1172-5.6953l2.42968.33593m-3.03125.49219l2.4336.33593m12.6875.37891L194 361.79688m6.52344-2.60938l1.875 1.58594m-2.82422-1.20703l.9375.79296M213 363.03517l-4.84766-5.08594M213 363.03516l-.77344 2.33203m.0664-3.07031l-.38671 1.16406m14.6289-.65235l-5.28906-4.6289m5.28907 4.6289l-.5586 2.38672m-.21094-3.0625l-.28125 1.19531M240.6836 361l-6.95703-1.01172M240.6836 361l.82813 2.3086m-1.83984-2.45704l.82812 2.3086m13.46484-1.97657l-6.89062-1.3828m6.89062 1.3828l.70313 2.35157m-1.70313-2.55079l.70313 2.35157m-1.70703-2.55469l.35156 1.17578m14.97656-2.11719l-6.90625 1.3047m6.90625-1.3047l1.53125 1.91797m-2.53515-1.72656l1.53125 1.91406m12.40625-3.16015l-6.14453 3.41406m6.14453-3.41406l2.05859 1.33593m-2.95313-.83593l2.0586 1.33203m11.86719-2.26172l-5.57422 4.27734m5.57422-4.27734l2.23046 1.01562m-3.04296-.39453l2.23437 1.01953m11.76563-1.80078l-5.32032 4.59375m5.32032-4.59375l2.28515.89063m-3.0586-.21875l1.14063.4414m13.40235-.4414l-6.23047 3.2539m6.23047-3.2539l2.02343 1.38672m-2.92968-.91407l1.01172.69532m13.40234-.73047l-6.61328 2.3789m6.61328-2.3789l1.8164 1.64844m-2.78124-1.3047l.91015.82423m13.44922-.91407l-6.77344 1.8711m6.77344-1.8711l1.6875 1.78125m-2.67187-1.5078l.84375.89062m13.4414-1.21094l-6.7461 1.96484m6.7461-1.96484l1.71094 1.75781m-2.6914-1.47265l.85546.8789m13.15625-1.85156l-6.17969 3.33984m6.1797-3.33984l2.04687 1.35547m-2.94532-.8711l1.02344.6797m12.84375-1.69142l-5.48437 4.39454m5.48437-4.39454l2.2539.96875m-3.05077-.33203l1.125.48829m12.98047-1.13282l-5.47266 4.41016m5.47266-4.41016l2.2539.96485m-3.05078-.32422l2.25781.96484m11.91407-1.52734l-5.59375 4.25m5.59375-4.25l2.23046 1.02734m-3.04296-.41015l2.22656 1.03125m12.375-.8086l-6.53906 2.57422m6.53906-2.57422l1.86328 1.59375m-2.8164-1.21875l1.86718 1.59375m12.64453-.72656l-7.02734.08984m7.02734-.08984l1.17969 2.14844m-2.20313-2.13672l1.1797 2.15234m13.0625-1.3086l-6.83595-1.62109m6.83594 1.6211l.625 2.3711m-1.61719-2.60938l.3086 1.1875m13.21875.5625l-5.27344-4.64454m5.27344 4.64454l-.57031 2.38671m-.19922-3.0625l-.28125 1.19141"/><g clip-path="url(#X)"><path fill="none" stroke="#000" stroke-linecap="round" stroke-linejoin="round" stroke-miterlimit="10" stroke-width=".5" d="M147.51172 347.32031l-7.02344-.28125"/></g><path fill="none" stroke="#000" stroke-linecap="round" stroke-linejoin="round" stroke-miterlimit="10" stroke-width=".5" d="M159.70703 344.60547l-4.78516 5.14453m4.08985-4.39453l1.1875.3164M172.5 344.20313l-3.74219 5.94922m3.74219-5.94921l2.44922.17968m11.76953.64063l-5.54688 4.3125m5.54688-4.3125l2.23828 1m-3.04687-.375l1.12109.5039m13.54688-.1289l-6.63672 2.3086m6.63672-2.3086l1.80078 1.66797m-2.76563-1.33204l.89844.83594m13.32422 1.28906l-6.52344-2.60937m6.52344 2.60938l.26562 2.4375m-1.21484-2.82032l.26562 2.4414m13.32422-.98437l-5.17187-4.7578m5.17187 4.7578l-.6211 2.3711m-.1328-3.0664l-.6172 2.375m-.1328-3.06642l-.3125 1.1875m15.76172-.76953l-6.4336-2.82421m6.4336 2.82421l.1875 2.44532m-1.1211-2.85547l.1836 2.44531m-1.1211-2.85547l.09375 1.22266m15.38281-1.6211l-7.01562-.38671m7.01562.38671l1.03125 2.23047m-2.05078-2.28515l1.03125 2.22656m-2.05078-2.28516l.51563 1.11719m14.73437-2.07813l-6.80469 1.76172m6.8047-1.76171l1.65624 1.80859m-2.64844-1.55078l1.66016 1.80469m-2.64844-1.55079l.82813.90625m14.02734-2.42187l-5.92578 3.77344m5.92578-3.77344L282.25 346.5m-2.9961-.66016l2.13282 1.21094m12.0586-1.73828l-5.95704 3.73047m5.95703-3.73047l2.125 1.22656m-2.99218-.6836l1.0625.61329m13.33203-.76172l-6.38282 2.9414m6.38282-2.9414l1.95312 1.48438m-2.88281-1.0547l.97656.7422m13.09766-1.4922l-6.04297 3.58204m6.04297-3.58203l2.09765 1.27344m-2.97656-.75391l1.04688.64063m12.89843-1.52344l-5.54687 4.3125m5.54687-4.3125l2.2422 1.0039m-3.04688-.3789l1.11718.5039m13.7422 1.07422l-7.02735-.09765m7.02734.09765l1.1211 2.1836m-2.14063-2.19532l.5586 1.08985m13.77343-.92969l-7.01953-.39453m7.01953.39453l1.02735 2.22656m-2.05079-2.28515l.51563 1.11328m13.77734-1.83203l-6.92968 1.16015m6.92968-1.16015l1.4961 1.9453m-2.50391-1.77733l.7461.97265m13.47265-1.58984l-6.71875 2.0586m6.71875-2.0586l1.73438 1.73437m11.42578-2.14453l-6.41016 2.8789m6.41016-2.8789l1.9375 1.50781m-2.8711-1.08593l1.9375 1.5039m12.5586-1.14453l-6.90235 1.3164m6.90235-1.3164l1.53515 1.91016m-2.53906-1.71875l1.53516 1.91015m12.82812-1.77343l-6.9961.66015m6.9961-.66015l1.35156 2.05078m-2.36718-1.95313l1.34765 2.05078m-2.36718-1.95703l.67578 1.02735m14.68359-.6875l-7.01562-.40235m7.01562.40235l1.02734 2.22656m-2.04687-2.28516l1.02734 2.22656m-2.04687-2.28515l1.02734 2.22656m14.33203-2.39062l-7.02343.16015m7.02343-.16015l1.20313 2.14062m-2.22266-2.11719l1.19922 2.14063m-2.22266-2.11719l1.19922 2.14063m14.14844-2.38282l-7.0039.55079"/><g clip-path="url(#Y)"><path fill="none" stroke="#000" stroke-linecap="round" stroke-linejoin="round" stroke-miterlimit="10" stroke-width=".5" d="M467.0625 346.90234l1.32031 2.07032"/></g><path fill="none" stroke="#000" stroke-linecap="round" stroke-linejoin="round" stroke-miterlimit="10" stroke-width=".5" d="M466.04688 346.98438l1.3164 2.0664m-2.33594-1.98828l.65625 1.03516"/><g clip-path="url(#Z)"><path fill="none" stroke="#000" stroke-linecap="round" stroke-linejoin="round" stroke-miterlimit="10" stroke-width=".5" d="M147.42578 334.64063l-6.85156-1.5547"/></g><path fill="none" stroke="#000" stroke-linecap="round" stroke-linejoin="round" stroke-miterlimit="10" stroke-width=".5" d="M146.42969 334.41406l.32031 1.1836m14.00781-2.44141l-6.88281 1.41406m5.8789-1.20703l.78516.94531m13.20703-2.07421l-6.23047 3.2539m6.23047-3.2539l2.02344 1.39062m11.5625-.69531l-6.77344 1.86719m6.77344-1.8672l1.6875 1.78126m-2.67187-1.51172l.84375.89062m13.54297-.75l-6.94922 1.04688m6.94922-1.04688l1.46093 1.96875m-2.47265-1.8164l.73047.98437m13.23437 1.01563l-6.22266-3.26172m6.22266 3.26172l.01563 2.45703m-.92188-2.92969l.01563 2.45313m-.92188-2.9297l.00781 1.23048m14.83203.17969l-5.64843-4.1797m5.64843 4.1797l-.36328 2.42578m-.45703-3.03516l-.36328 2.42578m-.46094-3.03125l-.17969 1.21094m15.52344-.65625l-6.41797-2.85938m6.41797 2.85938l.17188 2.44922m-1.10547-2.86328l.17187 2.4453m-1.10547-2.86327l.08594 1.22265M254.03125 334l-7.02344-.27734m7.02344.27734l1.0664 2.21094m-2.08984-2.25l1.0664 2.21094m-2.08593-2.25l.53125 1.10546m14.71875-2.04687l-6.80469 1.76562m6.8047-1.76562l1.65624 1.8086m-2.64844-1.55079l1.66016 1.8086m12.34766-2.83204l-6.20703 3.29688m6.20703-3.29688l2.03515 1.375m-2.9375-.89453l2.03125 1.3711m12.21875-1.78907l-6.26953 3.17188m6.26953-3.17188l2.0039 1.41407m11.6211-.52344l-6.89062 1.38672m6.89062-1.38672l1.55469 1.89844m11.77734-1.79688l-6.92578 1.1875m6.92578-1.1875l1.5 1.9414m-2.5078-1.76952l1.5 1.9414m12.7539-2.42578l-6.78906 1.8125m6.78906-1.8125l1.67187 1.79297m-2.66015-1.53125l1.67187 1.79688m12.75-1.07813l-7.02344-.14844m7.02344.14844l1.10547 2.1875m-2.1289-2.21094l.55468 1.09375m13.77735-.9414l-7.01172-.40625m7.01172.40625l1.02734 2.22656m-2.04688-2.28516l.51172 1.11328m13.73828-2.0664l-6.83984 1.61719m6.83984-1.6172l1.6172 1.84376m-2.61329-1.60938l.8086.92188m13.0625-2.20703l-5.96094 3.71875m5.96093-3.71875l2.125 1.22656m-2.99218-.6875l1.0625.61328m13.54687-.14844l-6.8164 1.71094m6.8164-1.71094l1.64453 1.82031m11.75-.52734l-6.97265-.875m6.97265.875l.8711 2.29297m-1.88672-2.41797l.8711 2.29297m13.47655-2.35156l-7.0078-.51172m7.0078.51172l.9922 2.2461m-2.01173-2.32032l.99219 2.2461m-2.01172-2.32032l.99219 2.2461m14.3711-2.26563l-7.02735-.17188m7.02734.17188l1.09766 2.19531m-2.1211-2.22265l1.09766 2.1953m-2.1211-2.21874l1.10157 2.19531m-2.1211-2.21875l.54688 1.09766m15.8086-1.53516l-6.97657.85156m6.97657-.85156l1.40625 2.00781m-2.42188-1.88672l1.40625 2.01172m-2.42187-1.88672l1.40625 2.01172m-2.41797-1.88672l.70312 1.00391m15.5625-1.85547l-6.78906 1.8125"/><g clip-path="url(#aa)"><path fill="none" stroke="#000" stroke-linecap="round" stroke-linejoin="round" stroke-miterlimit="10" stroke-width=".5" d="M466.95703 332.95703l1.67188 1.79688"/></g><path fill="none" stroke="#000" stroke-linecap="round" stroke-linejoin="round" stroke-miterlimit="10" stroke-width=".5" d="M465.96875 333.22266l1.67188 1.79687m-2.66016-1.53515l.83594.89843"/><g clip-path="url(#ab)"><path fill="none" stroke="#000" stroke-linecap="round" stroke-linejoin="round" stroke-miterlimit="10" stroke-width=".5" d="M147.48438 320.09766l-6.96875.89843"/></g><path fill="none" stroke="#000" stroke-linecap="round" stroke-linejoin="round" stroke-miterlimit="10" stroke-width=".5" d="M147.48438 320.09766l1.41796 2.0039m11.83203-2.35547l-6.83984 1.60547m6.83984-1.60547l1.6172 1.84375m11.48046-2.48437l-6.40625 2.88672m6.40625-2.88672l1.9414 1.5039m11.65626-.5l-6.96875.875m6.96875-.875l1.41406 2.00782m11.88281-1l-6.9336-1.13672m6.9336 1.13672l.78906 2.32422m-1.79687-2.4922l.39453 1.16407m13.60547.0039l-6.28906-3.13671m6.28906 3.13672l.0664 2.44922m-.98046-2.90625l.0664 2.45312m-.98047-2.91015l.03125 1.22656m14.96485-.05078l-5.99219-3.66407m5.99219 3.66407l-.14453 2.44921m-.72656-2.98046l-.14844 2.44921m-.72266-2.98437l-.14844 2.44922m15.64844-2.48438l-6.875-1.45703m6.875 1.45703l.67578 2.35938m-1.67969-2.57031l.6797 2.35546m-1.6797-2.5703l.33985 1.17968m15.04297-1.76563l-7.0039.5625m7.0039-.5625l1.32031 2.07032m-2.33984-1.98828l1.3203 2.0664m-2.33983-1.98437l.66015 1.03515m14.46094-2.20312l-6.53906 2.57422m6.53906-2.57422l1.86328 1.59375m-2.8164-1.21875l1.86718 1.59375m11.8711-2.8789l-5.48047 4.39452m5.48047-4.39453l2.2539.96875m-3.05078-.33203l1.1289.48438m12.85157-1.28125l-5.21484 4.71093m5.21484-4.71093l2.30469.83593m11.1914 3.65625l-5.58203-4.26953m5.58203 4.26953l-.39843 2.41797m14.42968-4.33594l-7.01172-.4375m7.01172.4375L321.6172 323m-2.03516-2.29688l.50781 1.1172m13.8086-1.6875l-6.97656.83202m6.97656-.83203l1.40234 2.01563m-2.41797-1.89453l1.40235 2.01562m12.86328-2.51953l-6.84375 1.59375m6.84375-1.59375l1.61328 1.85156m-2.60938-1.61719l1.61329 1.84766m12.5078-2.66406l-6.46484 2.76172m6.46485-2.76172l1.91015 1.53906m-2.85156-1.13672l.95703.76953m13.22657-1.32812l-6.32032 3.07031m6.32032-3.07031l1.98437 1.44531m-2.90234-.9961l.99218.71876m12.64454-2.03125l-5.12891 4.80078m5.1289-4.80078l2.32422.79297m-3.0703-.09766l1.16405.39844m13.51563-.1875l-6.36328 2.98437m5.4375-2.55078l.98047.73828m12.55468 2.8125l-4.95312-4.98437m4.95312 4.98437l-.72265 2.34375m14.72656-3.3086l-6.33203-3.05077m6.33203 3.05078l.09766 2.44922m13.55468-4.27344l-7.0039.59766m7.0039-.59766l1.33204 2.0625m-2.35157-1.97656l.66407 1.03125m13.4375-2.10938l-6.53516 2.58203m6.53516-2.58203l1.86718 1.58985m-2.82031-1.21485l1.86719 1.58985m-2.8164-1.21485l1.86718 1.59375m13.08203-2.8789l-6.0039 3.65234"/><g clip-path="url(#ac)"><path fill="none" stroke="#000" stroke-linecap="round" stroke-linejoin="round" stroke-miterlimit="10" stroke-width=".5" d="M466.5625 318.72266l2.10938 1.25"/></g><g clip-path="url(#ad)"><path fill="none" stroke="#000" stroke-linecap="round" stroke-linejoin="round" stroke-miterlimit="10" stroke-width=".5" d="M465.6914 319.2539l2.10938 1.25"/></g><path fill="none" stroke="#000" stroke-linecap="round" stroke-linejoin="round" stroke-miterlimit="10" stroke-width=".5" d="M464.8164 319.78516l2.10938 1.25"/><path fill="#ff3030" fill-rule="evenodd" d="M326.79688 458.77344h7.6914V448.625h-7.6914v10.14844"/><path fill="azure" fill-rule="evenodd" d="M328.6289 450.45703h.83204v5.74219h3.19531v.73828h-4.02734v-6.48047"/><path fill="#ff3030" fill-rule="evenodd" d="M162.57813 454.33203h7.6914V444.1875h-7.6914v10.14453"/><path fill="azure" fill-rule="evenodd" d="M164.41016 446.01953h.83203v5.73828h3.19531V452.5h-4.02734v-6.48047"/><path fill="#00f" fill-rule="evenodd" d="M388.23828 427.70313h8.61719v-10.14454h-8.61719v10.14454"/><path fill="azure" fill-rule="evenodd" d="M390.07031 419.39063h.83594v2.82421h3.28516v-2.82421h.83203v6.48046h-.83203v-2.91796h-3.28516v2.91796h-.83594v-6.48046"/><path fill="#00f" fill-rule="evenodd" d="M215.14453 409.94922h8.61719v-10.14453h-8.61719v10.14453"/><path fill="azure" fill-rule="evenodd" d="M216.97656 401.63672h.83203v2.82422h3.28516v-2.82422h.83594v6.48047h-.83594v-2.91797h-3.28516v2.91797h-.83203v-6.48047"/><path fill="#00f" fill-rule="evenodd" d="M370.48438 401.07422h8.62109v-10.14844h-8.6211v10.14844"/><path fill="azure" fill-rule="evenodd" d="M372.3164 392.76172h.83594v2.82031h3.28516v-2.82031h.83203v6.47656h-.83203v-2.91406h-3.28516v2.91406h-.83593v-6.47656"/><path fill="#ff3030" fill-rule="evenodd" d="M331.23438 392.19531h7.6914v-10.14453h-7.6914v10.14453"/><path fill="azure" fill-rule="evenodd" d="M333.0664 383.88281h.83594v5.73828h3.19141v.7422h-4.02734v-6.48048"/><path fill="#ff3030" fill-rule="evenodd" d="M446.63281 378.88281h7.6914v-10.14844h-7.6914v10.14844"/><path fill="azure" fill-rule="evenodd" d="M448.46484 370.5664h.83204v5.7422h3.1953v.73827h-4.02734v-6.48046"/><path fill="#ff3030" fill-rule="evenodd" d="M277.97266 374.4414h7.6953v-10.14452h-7.6953v10.14453"/><path fill="azure" fill-rule="evenodd" d="M279.8086 366.1289h.83202v5.7422h3.19141v.73827h-4.02344v-6.48046"/><path fill="#ff3030" fill-rule="evenodd" d="M198.08203 356.6875h7.69531v-10.14453h-7.6953v10.14453"/><path fill="azure" fill-rule="evenodd" d="M199.91797 348.375h.83203v5.74219h3.19531v.73828h-4.02734V348.375"/><path fill="#ffffe0" fill-rule="evenodd" d="M332.86719 422.83594h22.17969v-10.1914h-22.1797v10.1914"/><path fill-rule="evenodd" d="M336.36719 414.47656h.50781v6.29297h-.78516v-4.48828h-1.39062v-.55469l.5625-.0664.25-.0547.23047-.08983.20312-.14063.17578-.21094.14063-.29297.10547-.39453m4.8125 0l.23047.01953.21875.0547.20703.08983.19531.1211.1875.14844.16797.17578.30469.41797.24218.49609.1797.54688.11327.57812.03516.58984-.03516.59375-.11328.58594-.17969.55469-.24218.5-.3047.42969-.16796.17968-.1875.15235-.19531.1211-.20703.09374-.21875.0586-.23047.01953-.23047-.01954-.21875-.05859-.20703-.09375-.19531-.1211-.1836-.15234-.17187-.17968-.30079-.4297-.24609-.5-.17969-.55468-.10937-.58594-.03906-.59375h.83203l.03125.5625.08203.50782.125.4414.16015.375.19141.30078.21094.22266.22265.13672.22657.04687.22656-.04687.22266-.13672.21093-.22266.19141-.30078.16016-.375.1289-.4414.08203-.50782.02735-.5625-.02735-.55859-.08203-.5-.1289-.4375-.16016-.36719-.1914-.28906-.21094-.21484-.22266-.13282-.22656-.04296-.22656.04296-.22266.13282-.21094.21484-.1914.28906-.16016.36719-.125.4375-.08203.5-.03125.5586h-.83203l.03906-.58985.10937-.57813.1797-.54687.24608-.4961.30079-.41796.17187-.17578.1836-.14844.1953-.1211.20704-.08984.21875-.05469.23047-.01953m5.09375 0h.50781v6.29297h-.78906v-4.48828h-1.38672v-.55469l.5586-.0664.2539-.0547.23047-.08983.20312-.14063.17188-.21094.14062-.29297.10938-.39453m2.82031 2.17578h.78906l.01953-.3164.0586-.28516.09765-.2539.14063-.21485.1836-.17578.22265-.1289.26562-.07813.3086-.02735.23437.01954.22656.0625.20313.10156.17969.14062.14844.17188.11328.20703.0703.23438.02735.26562-.02344.26563-.0664.22656-.10938.1914-.15625.17188-.19921.16015-.2461.16797-.63672.39063-.53515.3125-.4375.3164-.34766.32422-.26172.33594-.1914.35156-.125.3672-.07032.39452-.01953.41797h4.21094v-.73828h-3.33203l.08203-.28516.11328-.23828.14844-.19922.1875-.17968.23047-.17188.28125-.17578.71484-.41797.41797-.20312.34375-.23047.28125-.2539.21875-.26563.16406-.27735.10938-.28515.0664-.28516.01953-.28125-.04296-.38281-.1211-.34766-.1875-.3086-.25-.26171-.30078-.21485-.34766-.15625-.3789-.09765-.40625-.03516-.4375.03125-.39844.10156-.35547.16407-.30469.23437-.24609.30469-.1875.375-.11328.44531-.04297.51953"/><path fill="#ffffe0" fill-rule="evenodd" d="M257.41406 461.16797h22.17969v-10.1914h-22.17969v10.1914"/><path fill-rule="evenodd" d="M260.91406 452.8086h.50781v6.29296h-.78515v-4.48828H259.25v-.55469l.5586-.0664.25-.05469.23046-.08984.20313-.14063.17578-.21094.14062-.29296.10547-.39454m4.8125 0l.23047.01954.21875.05468.20703.08985.19922.12109.1836.14844.17187.17578.30078.41797.24219.4961.17969.54687.11328.57812.03906.58985-.03906.59375-.11328.58593-.1797.55469-.24218.5-.30078.42969-.17188.17969-.18359.15234-.19922.1211-.20703.09374-.21875.0586-.23047.01953-.22656-.01953-.21875-.0586-.21094-.09375-.19531-.1211-.1836-.15233-.17187-.1797-.30078-.42968-.24219-.5-.17969-.55469-.11328-.58594-.03906-.59375h.83594l.02734.5625.08203.50782.125.4414.16407.375.1914.30079.20703.22265.22266.13672.22656.04688.22656-.04688.22266-.13672.21094-.22265.1914-.30079.16407-.375.125-.4414.08203-.50781.02734-.5625-.02734-.5586-.08203-.5039-.125-.4336-.16406-.36719-.19141-.28906-.21094-.21484-.22265-.13281-.22657-.04297-.22656.04296-.22266.13282-.20703.21484-.1914.28906-.16407.3672-.125.43358-.08203.50391-.02734.5586h-.83594l.03906-.58985.11329-.57812.17968-.54688.24219-.4961.30078-.41796.17188-.17578.18359-.14844.19531-.1211.21094-.08984.21875-.05469.22656-.01953m5.09375 0h.50781v6.29297h-.78515v-4.48828h-1.39063v-.55469l.5625-.0664.25-.05469.23047-.08984.20313-.14063.17578-.21094.14062-.29296.10547-.39454m2.82422 2.17579h.78516l.01953-.31641.0586-.28516.10156-.2539.14062-.21485.17969-.17578.22265-.1289.26563-.07813.3086-.02734.23827.01953.22266.0625.20313.10156.17968.14063.14844.17187.11328.20703.07031.23438.02735.26562-.02344.26563-.0625.22656-.11328.1914-.15235.17188-.20312.16016-.2461.16796-.6328.39063-.53907.3125-.4375.3164-.34765.32423-.26172.33593-.19141.35156-.125.3672-.07031.39452-.01953.41797h4.21093v-.73828h-3.33203l.08594-.28515.11328-.23829.14844-.19921.1836-.1797.23437-.17187.27734-.17578.71485-.41797.41796-.20312.34375-.23047.28125-.2539.21875-.26563.16407-.27735.11328-.28515.0625-.28516.01953-.28125-.04297-.38281-.11719-.34766-.1914-.3086-.25-.26171-.30079-.21484-.34765-.15625-.3789-.09766-.40626-.03516-.4375.03125-.39453.10157-.35547.16406-.30469.23437-.25.3047-.18359.375-.11719.4453-.03906.51954"/><path fill="#ffffe0" fill-rule="evenodd" d="M403.88281 418.28125h22.17969v-10.1914h-22.17969v10.1914"/><path fill-rule="evenodd" d="M407.3789 409.92188h.51173v6.29687h-.78907v-4.49219h-1.38672v-.55469l.5586-.0625.2539-.05468.22657-.08985.20312-.14062.17578-.21094.14063-.29297.10547-.39844m4.8164 0l.22656.01954.21875.05468.21094.08985.19531.1211.1836.15233.17187.17579.30079.41796.24609.4922.17969.54687.10937.57812.03906.59375-.03906.59375-.10937.58203-.1797.5547-.24608.5039-.30079.42578-.17187.17969-.1836.15234-.1953.125-.21094.08984-.21875.0586-.22657.01953-.23047-.01953-.21875-.0586-.20703-.08984-.19922-.125-.18359-.15234-.17188-.1797-.30078-.42577-.24218-.5039-.1797-.5547-.11327-.58203-.03906-.59375h.83593l.02735.5625.08203.5039.125.44532.16406.375.1914.30078.21094.21875.22266.13672.22656.04688.22656-.04688.22266-.13672.21094-.21875.1875-.30078.16406-.375.125-.44531.08203-.5039.03125-.5625-.03125-.5625-.08203-.5-.125-.4336-.16406-.36719-.1875-.29297-.21094-.21484-.22265-.1289-.22657-.04688-.22656.04687-.22266.1289-.21093.21485-.19141.29297-.16406.36719-.125.4336-.08203.5-.02735.5625h-.83594l.03907-.59376.11328-.57812.17969-.54688.24218-.49219.30079-.41796.17187-.17579.1836-.15234.19921-.1211.20703-.08984.21875-.05468.23047-.01954m5.08985 0h.5078v6.29688h-.78515v-4.49219h-1.38672v-.55469l.5586-.0625.25-.05468.23047-.08985.20312-.14062.17578-.21094.14063-.29297.10547-.39844m2.82421 2.17579h.78516l.01953-.31641.0625-.28516.09766-.2539.14062-.21485.1797-.17187.22265-.1289.26562-.08204.3086-.02734.23828.02344.22265.0625.20313.10156.17969.13672.14843.17187.11329.20703.07421.23438.02344.26562-.01953.26953-.0664.22266-.10938.19531-.15625.16797-.20313.16406-.24609.16407-.63281.39062-.53906.3125-.4375.3164-.34375.32423-.26563.33593-.1914.35157-.125.37109-.06641.39063-.02344.42187h4.21484v-.74219h-3.33593l.08593-.28515.11329-.23438.14843-.20312.1875-.1797.23047-.17187.27735-.17578.71875-.41406.41406-.20703.34765-.23047.27735-.25.22265-.26953.16016-.27735.11328-.28515.0625-.28516.01953-.28125-.03906-.38281-.1211-.34766-.1914-.30859-.25-.26172-.30078-.21094-.34375-.16015-.38281-.09766-.40625-.03515-.4336.03515-.39844.09766-.35546.16797-.3047.23437-.25.30078-.18358.375-.1172.44531-.03906.51954"/><path fill="#ffffe0" fill-rule="evenodd" d="M206.36719 379.11328h22.17969v-10.1914h-22.1797v10.1914"/><path fill-rule="evenodd" d="M209.86719 370.7539h.50781v6.29298h-.78516v-4.48829h-1.38672v-.55468l.5586-.06641.25-.05469.23047-.08984.20312-.14063.17578-.21093.14063-.29297.10547-.39453m4.8125 0l.23047.01953.21875.05469.20703.08984.19922.1211.18359.14843.17188.17578.30078.42188.24218.49218.1797.54688.11327.57812.03906.58985-.03906.59375-.11328.58594-.17969.55468-.24218.5-.30078.42969-.17188.17969-.1836.15234-.19921.1211-.20703.09375-.21875.05859-.23047.01953-.22656-.01953-.21875-.0586-.21094-.09375-.19531-.12109-.1836-.15234-.17187-.17969-.30078-.42969-.2422-.5-.17968-.55469-.11328-.58593-.03906-.59375h.83203l.03125.5625.08203.50781.125.4414.16406.375.1914.30079.20704.22265.22266.13672.22656.04688.22656-.04688.22266-.13672.21093-.22265.19141-.30078.16406-.375.125-.44141.08203-.50781.02735-.5625-.02735-.5586-.08203-.5-.125-.4375-.16406-.36718-.1914-.28907-.21094-.21484-.22266-.13281-.22656-.04297-.22656.04297-.22266.13281-.20703.21484-.1914.28907-.16407.36718-.125.4375-.08203.5-.03125.5586h-.83203l.03906-.58985.11328-.57812.17969-.54688.24219-.49218.30078-.42188.17187-.17578.1836-.14844.1953-.1211.21095-.08983.21875-.0547.22656-.01952m5.09375 0h.50781v6.29296h-.78516v-4.48828h-1.39062v-.55468l.5625-.06641.25-.05469.23047-.08984.20312-.14063.17578-.21093.14063-.29297.10547-.39453m2.82422 2.17578h.78515l.01953-.3164.0586-.28517.10156-.2539.14063-.21485.17968-.17578.22266-.1289.26562-.07813.3086-.02734.23828.01953.22266.0625.20312.10156.17969.14063.14844.17187.11328.20703.0703.23438.02735.26562-.02344.26954-.0625.22265-.11328.1914-.15234.17188-.20313.16406-.24609.16407-.63281.39062-.53906.3125-.4375.3164-.34766.32423-.26172.33594-.1914.35156-.125.36719-.07032.39453-.01953.41796h4.21094v-.73828h-3.33203l.08203-.28515.11719-.23828.14843-.19922.1836-.17969.23437-.17188.27735-.17578.71484-.41796.41797-.20313.34375-.23047.28125-.2539.21875-.26563.16406-.27734.11328-.28516.0625-.28516.01953-.28125-.04297-.3828-.11718-.34767-.1914-.30859-.25-.26172-.30079-.21484-.34766-.15625-.3789-.09766-.40625-.03515-.4375.03125-.39453.10156-.35547.16406-.30469.23438-.25.30468-.1836.375-.11718.44532-.03906.51953"/></g></defs><use xlink:href="#ae"/></svg>