<svg xmlns="http://www.w3.org/2000/svg" role="img" xmlns:xlink="http://www.w3.org/1999/xlink" viewBox="142.45 309.95 326.84 171.84"><defs><clipPath id="a"><path d="M144 311.67188h1v168.65625h-1zm0 0"/></clipPath><clipPath id="b"><path d="M144 311.67188h324v168.65625H144zm0 0"/></clipPath><clipPath id="c"><path d="M467 311.67188h1v168.65625h-1zm0 0"/></clipPath><clipPath id="d"><path d="M144 476h1v4.32813h-1zm0 0"/></clipPath><clipPath id="e"><path d="M154 477h7v3.32813h-7zm0 0"/></clipPath><clipPath id="f"><path d="M167 477h7v3.32813h-7zm0 0"/></clipPath><clipPath id="g"><path d="M180 478h8v2.32813h-8zm0 0"/></clipPath><clipPath id="h"><path d="M193 479h8v1.32813h-8zm0 0"/></clipPath><clipPath id="i"><path d="M193 479h3v1.32813h-3zm0 0"/></clipPath><clipPath id="j"><path d="M208 476h5v4.32813h-5zm0 0"/></clipPath><clipPath id="k"><path d="M223 476h2v4.32813h-2zm0 0"/></clipPath><clipPath id="l"><path d="M234 477h6v3.32813h-6zm0 0"/></clipPath><clipPath id="m"><path d="M246 478h9v2.32813h-9zm0 0"/></clipPath><clipPath id="n"><path d="M252 480h2v.32813h-2zm0 0"/></clipPath><clipPath id="o"><path d="M260 479h8v1.32813h-8zm0 0"/></clipPath><clipPath id="p"><path d="M266 480h2v.32813h-2zm0 0"/></clipPath><clipPath id="q"><path d="M273 479h8v1.32813h-8zm0 0"/></clipPath><clipPath id="r"><path d="M279 479h2v1.32813h-2zm0 0"/></clipPath><clipPath id="s"><path d="M286 478h9v2.32813h-9zm0 0"/></clipPath><clipPath id="t"><path d="M292 479h2v1.32813h-2zm0 0"/></clipPath><clipPath id="u"><path d="M300 479h8v1.32813h-8zm0 0"/></clipPath><clipPath id="v"><path d="M306 479h4v1.32813h-4zm0 0"/></clipPath><clipPath id="w"><path d="M313 479h8v1.32813h-8zm0 0"/></clipPath><clipPath id="x"><path d="M320 479h3v1.32813h-3zm0 0"/></clipPath><clipPath id="y"><path d="M319 479h2v1.32813h-2zm0 0"/></clipPath><clipPath id="z"><path d="M326 479h9v1.32813h-9zm0 0"/></clipPath><clipPath id="A"><path d="M333 479h3v1.32813h-3zm0 0"/></clipPath><clipPath id="B"><path d="M332 479h2v1.32813h-2zm0 0"/></clipPath><clipPath id="C"><path d="M340 477h7v3.32813h-7zm0 0"/></clipPath><clipPath id="D"><path d="M355 476h4v4.32813h-4zm0 0"/></clipPath><clipPath id="E"><path d="M368 476h5v4.32813h-5zm0 0"/></clipPath><clipPath id="F"><path d="M380 477h7v3.32813h-7zm0 0"/></clipPath><clipPath id="G"><path d="M394 477h6v3.32813h-6zm0 0"/></clipPath><clipPath id="H"><path d="M407 477h6v3.32813h-6zm0 0"/></clipPath><clipPath id="I"><path d="M420 477h7v3.32813h-7zm0 0"/></clipPath><clipPath id="J"><path d="M433 479h8v1.32813h-8zm0 0"/></clipPath><clipPath id="K"><path d="M446 479h8v1.32813h-8zm0 0"/></clipPath><clipPath id="L"><path d="M452 479h2v1.32813h-2zm0 0"/></clipPath><clipPath id="M"><path d="M460 478h7v2.32813h-7zm0 0"/></clipPath><clipPath id="N"><path d="M144 466h4v2h-4zm0 0"/></clipPath><clipPath id="O"><path d="M144 452h4v3h-4zm0 0"/></clipPath><clipPath id="P"><path d="M144 438h4v4h-4zm0 0"/></clipPath><clipPath id="Q"><path d="M144 425h4v4h-4zm0 0"/></clipPath><clipPath id="R"><path d="M144 412h4v4h-4zm0 0"/></clipPath><clipPath id="S"><path d="M144 398h4v5h-4zm0 0"/></clipPath><clipPath id="T"><path d="M144 384h4v6h-4zm0 0"/></clipPath><clipPath id="U"><path d="M144 370h3v8h-3zm0 0"/></clipPath><clipPath id="V"><path d="M144 356h2v9h-2zm0 0"/></clipPath><clipPath id="W"><path d="M144 356h1v3h-1zm0 0"/></clipPath><clipPath id="X"><path d="M466 359h2v3h-2zm0 0"/></clipPath><clipPath id="Y"><path d="M144 345h2v4h-2zm0 0"/></clipPath><clipPath id="Z"><path d="M466 345h2v4h-2zm0 0"/></clipPath><clipPath id="aa"><path d="M144 332h4v4h-4zm0 0"/></clipPath><clipPath id="ab"><path d="M466 331h2v3h-2zm0 0"/></clipPath><clipPath id="ac"><path d="M465 332h3v3h-3zm0 0"/></clipPath><clipPath id="ad"><path d="M144 317h3v7h-3zm0 0"/></clipPath><clipPath id="ae"><path d="M465 318h3v2h-3zm0 0"/></clipPath><g id="af" clip-path="url(#clip1)"><path fill="#fff" fill-opacity="0" fill-rule="evenodd" d="M0 0h1000v1000H0zm0 0"/><path fill="#d3d3d3" fill-opacity="0" fill-rule="evenodd" d="M162.15234 355.86719l-.23437.29297.0586.23437.11718.17188.17578.23437.29297.34766.11328.0586.11719-.17188.0586-.23438.17577-.17578.46485-.17578h.69922l.23437.29297.28906.8164.0586.17579.17578.23046.35156.23438.69922.69922.17188.17578.23437.34765.23438.41016.28906.58203.41015.46485.23047.23437.23438.17578.11719.23047.17578.29297.17187 1.16406v.23438l.0586.28906.05859.11719.11719.11719.34765.41015.11719.17188.17578.17578.17578.23437.11719.17188.17188.35156.05859.23438.23437.40625.23438-.0586-.17578.17578-.0586.92969h-.58203l-.23437-.11328-.34766.11328-.11719.11719-.05859.29297-.0586.17578-.11718.17187-.46484.29297-.0586.23438-.0586.11328v.64453l.0586.17187v.41016l.0586.0586v.40624l.05859.40625.11719.17579.05859.05859.23047.64062-.0586.29297v.69922l-.05859.58203v.23438l-.0586.23047-.05468.35156v1.92187l.05469.1172h.42578l-.36719.11718-.02344.35156.89063 1.16797 1.74219.53906 1.33984.35938v.53906l.08984.8086.53516.71484 1.51953.26953.89063-.08594.08984 1.16406.53516.1797 1.16015-.1797 2.05469-.98437 1.16016-.36328 1.8789-.17578 1.69531-.1797-.17968.71876-1.51563.08594-1.25.08984-.80469.26953-1.07421.8086.26953.71875.53515.89843-.17968.625-.26563.8086.26563 1.07812.625.89844.80468.17969 1.25-.1797-.26562.72267.09766.5039.05468.29297v.17188l.0586.29296v.40625l.17578.1172.35156.11718h.40625l.29297-.17578.11328-.11719.0586-.11719.11718-.23047.0586-.17578.35156-.46484.23047-.17578.17578-.0586.17578.0586.0586.17578.11718.98828.05469.46875.0586.17188.11718.23437.17578.0586.8164.05859h.28907l.11719.23437.05859.40625.0586.35156v1.10547l.11718.29297.11719.34766.28906.69922.17578.35156.58203.7539.35157.17579.17187.0586.46875.23437.64063.46484.34765.23438.29297.17578.29297.05468.23047.0625.8164.34766.29297.17578.11328.17188.35157.35156.11719.17578.52343.64063v.28906l.0586.35156v.34766l.05859.35156.0586.28906.11718.0586.17188.05859h.17578l.58203.23437.17578.1172.17578.28905.17578.23438.11328.23437.29297.23047.11719.11719v.41016l.0586.05468.28906.23438.23437.11719.0586.11718.11718.17188.0586.11719.23047.23437.05859.17578.23437.0586.1172.05859-.1172.11328-.05859.11719v.11719l-.11719.29296-.11719.28907v.58203l.17579.11719.11718.05859.0586.11719.11719.11719.11328.05859.17578.34765.0586.35157.05858.40625v.17578l-.05859.17578-.11719.69922v.17187l.1172.17579.29296.29296h.40625l.17578.1172.11719.17187.11719.29296v.23438h-.52735l-.23047-.23438h-.23437l-.17578.0586-.0586.69922.0586.34765.11719.17579.17578.41015.11718.23047.28907.46875.17578.05469h.52344l.23437.0586.75781.64062.0586.29296v.23438l.05859.0586.23047.34765v.35156l-.11719.17188v.29297l.29297.28906.29297.17578.17187.0586.29297.17577.29297.1172.58203.40624.28906.23438.29297.17578.21875.16015.01563.01172.23047.17579.64062.52343.17578.23438.1172.17578.17577.17578.11328.17188v.64062l.1172.17578.46874.11719.58203.11719.23438.05859.23047.11328.29297.11719.11328.0586.58593.35156.28907.17187.17578.0625.17578.05469.17578.0586.69922.35155.28906.17579.23438.05468.28906.17578.23437.1172.64063.40624.29297.11719.17187.0586.23438.05859.41015.05859.23047.0586.23438.11718.0586.17188-.41017.17578.46875.0586.0586.29296.11328.23438.17578.05468.23438.0586.17578.05859.40625.11719.64062.23437.11719.17188.0586.23437v.17578l-.0586.1172-.0586.40624.23438.23438.11719.05859.34766.11719.64062.23047.17578.11718.28906.1172.17578.17577.23438.46485.58203 1.10546.17578.17579.34766.17578.17578.11719.35156.11718 1.04688.52344.23437.0586.46485.11327.29297.0586.46484.17578.75781.58203.23438.23438.34765.46484.17578.17578.28907.23438.8164.69921.29297.17579.28906.28906.29297.17578.29297.28906.69531.64063.17578.17578.29297.23437.28907.23438.46875.28906.64062.58203.34766.23438.23437.29297.34766.34765.35156.46485.9336.99218.34765.40625.11719.17579.23437.05859.11328.11719.64454.17578.23047.11328.23437.0586.29297.17577.23047.1172.9336.69921.40624.40625.23438.17578.40625.17578.23437.11719.8164.34766.34766.23437.23438.11719.29297.28906.23047.11719.7578.35156.35157.17188.23047.05859.29297.11719.23437.0586.8711.17577h.8164l.46875.23047.17188.0586.875.69921.46484.1172.29297.05858.17578.0586.23047.0586.46875.05859.34766.05859.35156.0586.40625.05859h.29297l.17187.0586v.23046l.17578.17578h.29297l.34766.0586.35156.05859.69922.11719h.64063l.46484-.23438.29297-.17578.17187-.11719.41016-.17187.28906-.17578.9336-.46485.46875-.29297.52343-.29296.46485-.17188.46484-.17578 1.05078-.46485.28906-.11718.41016-.11719.28906-.11719.52735-.17578 1.51562-.69922.58203-.34765.28907-.0586.29297-.0586.34765-.11718.875-.23047.35156-.11719h.11329l.23437-.05859.875-.23437.23438-.0586h.8125l.35156-.0586.8164-.11718.17188-.0586.35156-.05468.29297-.0586.23047-.05859.8164-.17578.17579-.0586h.34765l.23438-.05859.46484-.11718.75781-.17188.23438-.0586h.34765l.41016-.11718.28906-.0586 1.28516-.05859h.28906l.41016-.0586.23047-.05858h.17578l.875-.1172h.40625l.41015-.11718h.34766l.35156-.11328.8711-.0586h1.75l1.04687.28907.41016.11719.28906.11718.35156.11719.28907.11719 1.05078.17187.28906.0586h.29297l.29297.05859.17187.0586.41016.05859.17187.0586.1172.05858h.11718l.11719.0586.35156.0586h.11328l.41016.0664 1.92187.39453 1.92578.39453 1.51953.44922 1.69532.71875 2.14453.80469 1.60547-.71875 1.42968-.80469 1.16016-1.07813 1.25-.44921 3.03516-.71875 1.875-.35938 2.14453-1.34765 2.23437-1.25391 2.5-1.25781 1.69531-.44922 1.78516-.17969 1.16016-.26953.625.53906 1.33984-.26953.71485-.98828.98437-1.34375.44531-.17969.80469-.35937 1.875-.53907 1.78516-.44921 1.25-.26954 1.16015-.08984 1.69922-.08984 1.96094-.26954 1.25-.08984h.53906l.625-.08984h.89063l2.14453-.17969 2.41015-.17969 2.58985-.08984 1.69531.17969 1.60938.08984 1.42968.35938 1.16016.71875 1.875.98828 1.16015 1.52734.26563.71484.6289.08985.35548.89844.53515.53906.53516 1.52734 1.07422.35938h.53515l-.80469.53515.08985 1.70703.71484 2.69532.89063.80468.89453.98829.71484 1.2578 1.78516.53907 1.51953-.17969.35547 1.34375 1.60937-.80469.98047-.53906.26953.26953.31641-.21484.21875-.14453.80078.44922.44922-.35938h.35547l.53515-.26953.53907-.71875.53515-.26953.625-.98828 1.16016.44922.83984.3711 1.39454.61718 1.6953-.17969h1.60548l1.78515.08985.17969-1.70704.53516-1.34375.80468.26954.4922.84765.40233.40625-.08984.53906v.35938l.71485.44922.71093-.26953h1.42969l.35938.98828.4453 1.25781.71485 1.34375 1.25.6289 1.69531.62891.71485-.17969.17969-.53906.98046-.08984.44922.35937.08594 1.25782-.26563.6289-.53515.17969v.53906l.71484.98438.26563.53906.98437.98828.80078 1.07813-.26562.35937-.08985.89844-.625 2.33203-.35546 2.0664-.08985 1.79298-.17969.71875-.08984.53906v1.4375l-.98047 1.88281-.35937 1.70703-.53516.89844-.80469 1.16797-.26562.53906 2.05469 1.2539.08593.35938-.35546.53906-.08985-.17968v.80859l.08985 1.4375-.44532.71484-1.07422.09375-.26562.71485.53515.89844.8047.71875 1.16015.80859 1.33984.26953.44531.35938-.35546.44921-1.78907-.08984-1.25-.44922-.71484-.71875-.625-.08984-.17578 3.58984-.1875 1.3086h89.35937V311.70313h-55.26953v49.08203l.76172.125 3.28906.54296 2.02344 2.83594v2.7539l2.35156.33204 2.34766.33203h4.05078l-1.3789 4.16016-2.02344.70703-2.02344.70312-.54297.34375-2.59375 1.6172-.1875.11718-2.02344-2.07813-.73046-2.74218-2.67188-2.07813-1.375-3.5-.0664-.08203-1.95704-2.67188 2.75-1.41796v-49.08204H294.42187v91.41407l.1172.03125.1328.01172.07422.07421.10547.04688.08985.0586.08593.05859.08985.0586.29687.29687.0586.08984.03125.11719.02734.11719.01563.13671-.03125.1172-.0586.08983-.0586.08594-.04296.10547-.04688.10156-.02734.1211v.14453l.17578.26953.14844.14844.07422.08594.07422.07421.04296.10547.0625.08985.0586.08593.04297.10547.0586.08985.04687.10156.04296.10547.0586.08594.11719.17968.07421.07422.0625.08594.0586.08984.04297.10547.0586.08985.05858.08593.0625.08985.0586.08984.04297.10156.11719.17969.07421.07422.0586.08594.07422.07421.08984.0586.10547.04687h.14844l.1328-.01562.13282.01562.10156-.04687.07422-.07422.04688-.10156-.01563-.13281v-.14844l-.04687-.10547-.02735-.11719-.04687-.10156-.02735-.1211-.04296-.10156-.0625-.08984-.04297-.10156-.04297-.10547-.03125-.11719-.01563-.13281-.01171-.13672.08593-.0586.0586-.08593.12109-.03125.04297.10547.01562.1328v.1172l.0586.10156.0586.08984.08983.0586.14844.14843.0586.08985.04296.10547-.01171.10156.08593.0586.10547.04687.08594.0586.08984.05858.07422.07422-.11719.02735-.10546.04687-.08594.0586-.07422.07421-.0586.08985-.0625.08594-.02734.12109-.04687.10156-.04297.10547-.03125.11719-.01172.13281-.01563.13281v.14844l.02735.11719.04687.10547.04297.10156.0586.08984.07421.07422.08985.0586.07422.07421.08984.0586.0586.08984.04296.10547.04688.10156.11719.03125.1328.01563h.14845l.11718-.03125.10547.04297.04297.10547.04688.10156.02734.1211L299.5 410l.02734.11719.03125.1211.02735.11718.10547.04297.10156.04687.13281-.01562.14844.14844.0625.08593.07422.07422.07031.07422.08984.0625.10547.04297.10156.04297.1172.03125.13671.01562.11719-.03125.07422-.07422.02734-.11718-.01172-.13282-.03125-.12109-.02734-.11719.04297-.10547h.11719l.08984.0625.11719.02735h.14843l.13282.01562h.14843l.13282.01563.1328-.01563h.14845l.1328-.01562.13282-.01172.13672.01172.11719-.02735.13281-.01562.1914-.0586-.05859.17579-.01562.1328-.02735.1211-.01562.13281-.0586.08594-.1328.01563-.10548.04687-.10546.04297-.1172.03125-.11718.02735-.26563.03125h-.14843l-.13281.01562-.07422.07422.05859.08594.14844.14843.11719.1797.07421.0703.08985.0625.08984.0586.08594.0586.08984.05858.10156.04297.10547.0625.10547.04297.08594.0586.10547.04687.10156.04297.17969.11719.0586.08984-.04298.10156-.04687.10547.01562.13281.22266.22266.0586.08985.04296.10156.03125.1211.04297.10155.01563.13282.03125.11718.01171.13672.03125.11719.14844.14844.10156.04297.10547.04296.1172.03125.1328.01563.13672.01563h.11719l.11719-.03125.08984-.0586.04297-.10547.04688-.10156.04296-.10547.03125-.11719.01172-.1328v-.14845l-.01172-.1328-.01562-.13282-.03125-.11719-.04297-.10547-.04688-.10547-.04296-.10156-.04297-.10547-.01563-.13281.01563-.13281.02734-.11719.03125-.11719.02735-.1211.04687-.10155.08984-.0586.08594-.0625.07422-.07422.08984-.05859.22266-.22266.0586-.08593.07421-.07422.11719-.17969.0586-.08594v-.14844l-.07423-.07421-.10156-.04688-.10547-.04297-.10156-.04297-.0586-.08984-.04687-.10547-.02734-.11719.08984-.05859.11719-.03125.10156-.04297.17969-.11719.14844-.14843.01172-.13282-.01172-.10546-.08985-.0586-.1328.01563h-.14845l-.1328.01562-.13282-.01562-.1211-.03125-.08593-.0586-.07422-.07422-.0586-.08984-.0625-.08594-.11718-.17969-.0586-.08593.03125-.1211.08594-.05859.1211-.03125.05859-.08594v-.1211l-.03125-.11718-.0586-.08984-.05859-.08594-.04687-.10547-.02735-.11719-.01562-.1328.0586-.08985.07421-.07422.08984-.0586.1172-.17968.07421-.07422.0586-.08594.14843-.14844.1211-.03125.1328-.01562.13282.01562.07422.07422.04297.10547.01562.13281-.03125.1172-.11719.03124-.1328.01172-.14844.14844-.04297.10547-.04688.10156-.02734.1211-.03125.11718v.14844l.03125.11719.04297.10546.05859.08985.07422.07031.07422.07422.11719.03125.12109.02734.11719-.02734.1328-.01563h.1172l.08984.0586.07422.07422.04687.10546.0586.08594.10156.04688.13281.01562.10547.04297.08594.0586-.01172.10546-.07422.07422-.17969.11719-.05859.08984-.08984.0586-.07032.07422-.07421.07421-.0625.08985-.02735.11719-.01562.1328.01562.13282-.01562.13281v.14844l.01562.13281.02735.1172.03125.12108.07421.07422.08985.0586.08594.0586.08984.05858.11719.03125v.08594l-.10157.04688-.08984.0586-.26563.03124-.11718.02735h-.14844l-.10547.04296-.10156.04688-.0586.08984-.0625.23438-.01171.13281-.03125.1211-.01563.1328v.29298l-.01172.1328.01172.13673.01563.1328.1328.01563.13282.01172.1211.03125.08593.0586.07422.07421.04688.10547.04296.10157.01563.1328v.44532l-.01563.13281v.44532l.03125.26562.02735.11719.01562.13281.03125.11719.08594.21094.03125.26562v.14844l-.03125.11719-.02734.11718-.03125.1211-.02735.11719-.03125.11718-.03125.1211-.01171.1328-.01563.13282.08984.0586.1172-.03125.10155.01562.04688.10547-.03125.26562v.44141l-.04297.10547-.04688.10547-.04296.10156-.04297.10547-.0586.08594-.03125.12109-.04296.11719-.03125.11719-.01563.1328.01563.13282.05859.08984.10547.04688.08594.0586.05859.08593-.01172.13672-.03125.11719-.04297.10156v.44531l-.01562.13281v.14844l-.03125.11719-.04297.10547-.02735.11719-.04687.10546-.04297.10157-.03125.12109-.02734.11719-.03125.13281-.03125.11719-.02735.11719-.04297.10546-.03125.1172-.03125.12108-.01171.13282-.01563.13281v.29688l.02734.11718v.14844l.04688.39844.02734.11719.0586.08984.12109.03125h.14844l.13281-.01563.0586.08985v.11719l-.0586.08984-.08984.0586-.10157.04296-.10546.04688-.08985.05859-.08594.0586-.13671.01562-.1172-.03125-.1328-.01563-.10157.04688-.0625.08594-.01172.13671-.01562.13282-.03125.11719-.02735.11718-.01562.13281-.03125.1211v.29687l.01563.13282.03125.11718v.14844l.01171.13281v.14844l-.02734.11719-.04688.10156-.02734.1211-.03125.11718-.0586.08985-.07421.07421-.10156.04297-.10547.04688-.11719.02734-.1211.03125-.10156-.04687.0586-.08594.10547-.04688.02734-.11718.03125-.11719.02734-.1211.03125-.11718v-.14844l.01563-.13281-.03125-.11719-.04297-.10547-.10547.01563-.07422.07422-.10156.04296-.08984.0625-.07422.07422-.04297.10157-.01563.1328-.03125.1172L304.25 426l-.03125.11719-.02734.11719-.03125.12109-.02735.11719-.03125.11718-.04297.10547-.08984.0586h-.08984l-.1172-.03125-.03124-.08594.01562-.13672-.03125-.11719v-.14844l-.01171-.1328v-.14844l-.0625-.23438-.02735-.1211-.04297-.10156-.04687-.10546-.0586-.08594-.05859-.08985-.04297-.10546-.0625-.08594-.14844-.14844-.0703-.07422-.10548-.04687-.10547-.04297-.10156-.04297-.29687-.29688-.08985-.07421-.08594-.0586-.10546-.04297-.08985-.0625-.08594-.0586-.10546-.04296-.08985-.0586-.08594-.0625-.07421-.0703-.10547-.04688-.08594-.0586-.10547-.04296-.08984-.0625-.10156-.04297-.10547-.04297-.08594-.0586-.10547-.04687-.10547-.04297-.10156-.04687-.08985-.0586-.10156-.04297-.10547-.04296-.08984-.0625-.11719-.02735-.13281-.01562-.13281.01562H299.75l-.13281.01563-.11719-.03125-.08984-.0586-.07422-.07422-.08985-.05859-.10156-.04688h-.14844l-.12109-.02734-.10156-.04297-.07422-.07422-.11719-.17968-.08984-.0586-.10156-.04297-.08985-.0625-.10547-.04296-.08984-.0586-.08594-.0586-.10547-.04687-.0586-.08594-.05858-.08984-.04297-.10547-.04688-.10156-.07422-.07422-.08594-.0586-.07421-.07421-.08985-.0586-.22265-.22265-.04297-.10547-.03125-.26563.10547-.04296h.14453l.10547.04296.07421.07422.08985.0586.08594.0586.10546.04687.08985.05859.14844.14844.0703.07422.14845.14843.0625.08594.07421.07422.08594.0586.07422.07421.08985.0625.08984.0586.08594.05859.26953.17578.10156.04688.10547.04296.10156.04297.04688-.07421.05859-.08594.07422-.07422.07031-.07422.10547.04297.07422.07422.0586.08984.04296.10156.04688.10547.04296.10547.1211.02735.11719-.02735.07421-.08984.04297-.10547.0586-.08985.07422-.07421.10546-.04297.1172-.02735.1328.01172.08985.0586.14844.14843.05859.08985.04297.10547.04687.10156.04297.10547.04297.10156.10547.04688.10547.04296.13281.01563.08594-.0586.0586-.08984.07421-.07422.10547-.04297.11719.02735.10547.04687.10156.04297.10547.04297.10156.04688.17969.11718v.11719l-.01563.13281.01563.13281.01562.13672.0586.08594.10156.04688.1211.02734.11718.03125h.14844l.11719-.03125.05859-.08984.17969-.1172.05859-.08983.07422-.07422.0586-.08594.11718-.17969.17969-.11719.11719.03125.08984.0586.04297.07422-.01563.1328v.1172l.08985.05859h.14843l.13282-.01563.1328-.01171.26563-.03125.10547-.04297.11719-.03125.1211-.02735.07421-.07421.07031-.07422.0625-.08985-.01562-.10547-.04688-.10156-.10156-.04297-.10547-.01562-.11718.02734-.26563.03125h-.14844l-.07421-.07422-.08985-.0586-.11719-.03124-.11718-.02735-.13282-.01562h-.14843l-.13282.01563h-.29687l-.10547-.04688-.14844-.14844-.04297-.10156-.05859-.08984.22266-.22266.08593-.0586.10547-.04296.11719-.03125.13281-.01563.13281.01563.13672.01562.10157.04297.1328-.01172.08985-.0625.10156-.04297.0625-.08984-.04687-.10156-.08984-.0586-.1172-.03125-.10155-.04296-.0586-.08985-.0625-.08984v-.11719l.01563-.13281.10547-.04688.07421-.07031v-.1211l-.08984-.05859-.03125-.11719.08985-.05859.07421-.07422.04297-.10547.0586-.08984.04687-.10156.01563-.13281v-.14844l-.04688-.10547-.04297-.10156-.08984-.0586-.13281-.01562-.10157-.04297-.13671-.01563-.1172-.03125h-.4453l-.13282-.01562-.13281-.01172-.13281-.01563-.11719-.03125h-.14844l-.13281-.01562-.13281-.01172-.26563-.03125-.1211-.04297-.08593-.0586-.07422-.07421v-.14844l.01172-.13281.10547-.04688.10156-.04296.13281-.01563h.15235l.13281-.01562h.29297l.1211.03125.10156.04296.08984.0586.23438.0625.12109-.04688.08984-.05859.10156-.04297.13282-.01562.10547.04296.10156.04688.13281.01172.1211-.02735h.14453l.12109-.03125.11719-.02734.10547-.04687.07421-.07422.08594-.0586.14844-.14843.0586-.08594.04687-.10547.02734-.11719.01563-.10547-.10156-.04296-.08985-.0586-.11719-.03125-.10546-.04297-.08985-.0625-.07422-.08594-.07422-.07421-.10156-.04297-.10547-.04688-.10156-.04297-.0586-.08984-.04687-.10156-.08594-.21094-.0625-.08594-.05859-.08984-.07422-.07422-.08594-.0586h-.26953l-.11719.03126-.08984.05859-.10156.04297-.13281.01562-.10547-.01562-.02735-.11719-.0625-.08984-.11718-.03125-.10157-.04297-.14843-.14844-.03125-.11719-.01563-.10546.07422-.07422.17969-.1172.11719-.02733.11718-.03125.13672.01562.10156.04297.10547.04297.10156.04687.10547.04297.1172.03125.1328.01563.1172.02734.1328.01563.10547-.01563.08985-.0586-.07422-.07421-.10547-.04297-.07422-.07422-.07422-.08984-.14844-.14844-.08593-.0586-.08985-.05859-.07422-.07422-.08984-.0586-.10156-.04687-.1211-.02734-.10156-.04688-.10547-.04296-.11719-.03125-.10156-.04297-.1211-.03125h-.14843l-.11719.03125-.10546.04297-.08594.0625-.17969.11718-.08594.0586-.08984.0586-.10547.04687-.08594.05859-.10547.04297-.10156.04297-.10547.04687-.07422.07422-.05859.08985-.0586.08593-.04687.10547-.0586.08594-.07421.07422-.13281-.01172-.1172-.03125h-.11718l-.07422.07422-.08984.0586-.07422.07421-.08984.0586-.08594.05859-.10547.04687-.10156.04297-.13672.01563-.10156-.04297-.14844-.14844-.10547-.04688h-.08594l-.10547.04688-.10156.04297-.1211.03125-.11718-.03125-.07422-.07422v-.11719l.03125-.1211.07422-.0703.0586-.08985.07421-.07422.11719-.03125.10547-.04296h.29297l.13281-.01563.13672-.01563.10156-.04296.08985-.0586.10156-.04687.08984-.0586.13281-.01171.08985.05859.13281.01172.08984-.0586.08594-.05859.10547-.04297.08984-.0586.08594-.0625.08985-.05859.14843-.14843.0586-.08594.05859-.08985.10547-.04296.13281-.01563.11719.02735.1211.03125.05859-.0586.05859-.08984.03125-.26563.02734-.11719.10547.01172.13281.01563.10157-.04297.08984-.0586.0586-.08984.07421-.07422.0586-.08984.04687-.10156.01172-.13281-.01172-.13282-.04687-.10547-.14844-.14843-.0586-.08985-.05859-.08594-.04297-.10546v-.44532l.01563-.1328v-.14845l.01172-.1328-.0586-.0586-.08984.0586-.10156-.04298-.17969-.11719-.08594-.05859-.0625-.08984-.0586-.08985-.07421-.07421-.08594-.0586-.1211.03125-.10155.01172-.10547.04688-.08594.05859-.10547.04297-.14844.14844-.08984.05859-.08594.0586-.08984.0625-.10547.04296-.13281.01563v-.1211l.10547-.04297.11718-.03125.07422-.0703.04297-.10548v-.14844l-.02734-.11718-.14844-.14844-.13281-.01563h-.14844l-.11719.03125-.10547.04297-.10156.04297-.08984.0625-.11719.02735-.07422-.07422.01172-.13281-.04297-.10157-.04297-.10547-.08984-.05859-.11719.02734-.1211.03125-.11718.03125-.10156.04297-.1211.03125-.10156.04297-.10547.04297-.08984.0586-.10156.01562v-.11719l.01562-.13281-.0586-.08985-.07421.04297-.14844.14844-.0586.08985-.07421.07421-.04688.10547-.04296.10156-.07422.07422-.0586.08985-.07422.07422-.05859.08593-.07422.07422-.08984.0625-.07422.07031-.07422.07422-.10156.01563-.13281.01562-.10547-.04296v-.1211l.14843-.14844.04297-.10156.0586-.08984.04687-.10156.04297-.10547.0586-.08985.03124-.11719.04297-.10156.03125-.1211.02735-.11718.04687-.10547.04297-.10156.04297-.10547.07422-.07031.08984-.0625.08985-.0586.10156-.04296h.29687l.26563-.03125.10547-.04297-.07422-.07422-.11719-.03125-.10547-.04297-.08984-.0586-.10156-.04687-.08985-.0586-.10156-.04296-.10547-.04297-.08984-.0625-.08594-.0586-.10547-.04296-.10156-.04297-.1211-.03125-.11718-.03125-.10157-.04297L297.5 410.25l-.10156-.04297-.08985-.0586-.04296-.10546-.01563-.13281.10156-.04297.13281-.01563.13672.01563.13282-.01563.10156-.04297.0586-.08984.01562-.10547-.08985-.0586-.07421-.07421-.10157-.04297-.08984-.0586-.14844-.14843-.04297-.10547-.01562-.13281v-.29297l-.0586-.08985-.08984-.05859-.07422-.07422-.04297-.10547-.03125-.11718-.0586-.08985-.07421-.07422-.11719-.02734-.07422-.07422-.08984-.0586-.08984-.0625-.08594-.05859-.07422-.07421-.0586-.08594-.04687-.10547-.08594-.0586-.14843-.14843-.19532-.0586-.1328.01563-.10157.04297-.07422.07422-.04688.10156-.04296.10547-.0586.08984-.0586.08594-.29687.29687-.08984.0586h-.08594l-.0625-.08594-.04297-.10547.03125-.11719.0586-.08984.02734-.11719-.01172-.13281-.08984-.0625-.10547.04688-.11719.02734-.11719.03125-.26953.17578-.10156.04688-.11719.02734-.10546.04687-.08985.0586-.10156.04297-.0586-.08594-.04687-.10547.01563-.13281.04687-.10547.07031-.07422.07422-.07031.0586-.08985v-.14843l-.04297-.10547h-.23829l-.10156.04687-.03125.11719-.02734.11719-.03125.1211-.07422.04296-.13281.01563-.07422-.04688-.04297-.10156-.04297-.10547-.04687-.10156-.04297-.10547-.1211.03125-.10156.04297-.13281.01562-.11719.03125-.10547.04297-.08984.0586-.10156.04687-.1211.02734-.13281.01563-.10156-.04297-.0586-.08985-.04687-.10546-.04297-.10157-.04297-.10546v-.1172l.0586-.08984.08593-.05859.17969-.11719.10156-.04687.10547-.04297.10547-.0586.10156-.04296.08985-.0625.10156-.04297.10547-.0586.10156-.04687.08984-.0586.10547-.04296.10156-.04297.08985-.0625.10156-.04297.13672-.01563.11719.03125.10156.04297.1211.03125.10156.04297.10546.04688.10157.04296.10547.04297.10156.04688.10547.04297.10156.04297.10547.04687.08594.0586.10546.04296.1172.03125.10546.04297.10156.04688.08985.0586.10547.04296.10156.04297.10547.04687.11719.02735.10156.04687.1211.02735h.14843l.08594-.0586.01562-.10156.0586-.08984-.02735-.1172-.07422-.07421-.11719-.17969-.07421-.07422-.08985-.07421-.17969-.1172-.08593-.05859-.10547-.04296-.10156-.04688-.26954-.17578-.05859-.08985-.07422-.07421-.0586-.08985-.04296-.10156-.03125-.11719-.01563-.13672v-.5625l-.01171-.1328-.01563-.13282-.03125-.11719-.01562-.13281-.01172-.13281-.03125-.1211-.22266-.22265-.0586-.08594-.01562-.10547.03125-.11719.13281-.01562v-91.41406H172.9922v1.45312l-.0586.23438-.35156 1.05078-.17187.52343-.1172.34766-.17577.41016-.11719.17187-.23438.29297-.23046.0586h-.35157l-.11718.05859-.23047.40625v.29297l.11719.17578.23046.23047.1172.23437.64062.75781.29297.46485.17578.23437.23047.35156.23437.34766.64063.8164.17578.46485.17187.41016.11719.69531.17578.46875.11719 1.39844.0586.46484v.875l.11718 1.04688v4.78125l-.0586.46484-.35156 1.28125-.17578.52344-.11328.41015-.35156.9297L172.93359 336l-.23437.58203-.11719.17578-.17187.34766-.17578.40625-.35157.8164-.0586.29297-.11327.29297-.11719.28906-.0586.17579-.11718.875-.0586.40625-.05859.11718-.0586.17579-.05859.17187-.23047.52734-.11718.17188v.23437l-.11719.23438-.0586.17187-.17577.58594v.28906l-.0586.17579v.29296l-.0586.11329-.05859.52734v.17187l-.05468.23438v2.6211l-.17578.8164-.1172.17578-.17577.23438-.1172.17187-.11327.23438-.58594.93359-.23047.28906-.29297.46485-.17578.23437-.28906.35156-.35156.69922-.11328.23047-.17579.41016-.17578.23046-.40625.52735-.8164.69922-.29297.17187-.28906.23438-.17579.11719-.17578.17578-.52344.40625-.52734.17578-.17187.17578-.23438.05469-.64062.17578h-.75782m12.21094 31.02344l-1.07422.44921.35938.89454 1.25-.71485.44531-.53906-.98047-.08985"/><path fill="#d3d3d3" fill-opacity="0" fill-rule="evenodd" d="M201.50781 416.59766h-.89453l.44922.6289.98047.35938.80469-.08985.4453-.98828-.17577.08985-.71485-.35547-.89453.35547m154.6211 59.0703l-.0586-.52343v-.29297l.11328-.29297.0586-.23046.46875-.46875h.11328l.11719-.11329.11718-.05859h.17579l.23437-.0586h.34766l.23437.0586.11719.0586.23047.17187.0586.17578.11718.58203v.29297l-.11719.17578-.17187.28906-.17579.17579-.52734.52343-.23047.23438-.11719.0586h-.17578l-.11718-.0586-.40625-.29297-.17579-.11719-.11718-.0586-.0586-.11327-.05468-.1172m6.64062-10.95702l-.0586-.17188v-1.10937l.0586-.17188.17578-.0586.17188-.05858h.17578l.23437-.0586.1172.0586.05858.69921-.05859.17188-.11719.17578-.11718.0586-.23438.52343-.11328.0586h-.23438l-.05859-.1172m9.61328-14.39062l-.11719-.17578v-.69922l.29297-.875.1172-.17187.17577-.35156.11328-.23047.1172-.29297.35155-.75781.1172-.23047.17187-.23438h.17578l.11719-.0586h.64062l.11719.0586.23437.23438.17188.11328.35156.29297.11719.11718.11328.17579v.11328l.11719.05859.11718.11719v.69922l-.05859.17578v.23047l-.0586.17578-.34765 1.05078-.11719.23047-.11719.23437-.11718.0586-.23047.23437-.64063.28906h-.875l-.41015-.11718-.64063-.46485"/><path fill="none" stroke="#bebebe" stroke-linecap="round" stroke-linejoin="round" stroke-miterlimit="10" stroke-width=".5" d="M467.95703 311.69531H144.02734v168.625h323.9297v-168.625"/><g clip-path="url(#a)"><path fill="#fff" fill-opacity="0" fill-rule="evenodd" d="M144 475.89063v4.4375h.0039H144V311.67188h.0039H144v164.21875"/></g><g clip-path="url(#b)"><path fill="#fff" fill-opacity="0" fill-rule="evenodd" d="M144.0039 480.32813V311.67188h31.0625v120.86328l-4.4375 3.36328-.03515.04687-4.40234 2.30078-2.125 2.13672-2.3125 3.05078-1.3711 1.38672 1.3711 1.80469 1.79687 2.63672 2.64063 3.10547 4.4375-.94922 4.4375-1.23047 1.17578-.92578 2.74219-4.4414.52343-.75782 2.57031-3.67969-2.5703-2.94922-2.0547-1.48828-2.38671-3.41015V311.67187h26.6328v91.01954l-2.14843 2.18359 2.14844 2.8789 4.4375-1.30468 1.57422-1.57422-1.57422-1.98828-4.4375-.19531v-91.01954h13.3164v97.92188l-4.4414.84766-3.39063 3.3125 2.09766 4.4375 1.29297 1.14062v16.13672l-.72656.47656-3.71094 2.71094-2.33203 1.72656-2.10547 4.04688-.1914.39062.1914.23047 1.33203-.23047 3.10547-.75.66016.75 3.77734 3.6914.30469.75 4.13672 4.32032 4.4375-.23437 2.27734-4.08594 2.16016-3.57422.73828-.86719.19922-4.4375-.9375-.69531-4.4375-.40234-3.44922 1.09765-.98828.74219-.46875-.74219-2.46485-4.4375-1.50781-.47656v-16.13672l3.08594-1.14062 1.35547-.07032 4.0703-4.36718-4.0703-4.16016v-97.92188h22.1914v90.17188l-3.03125 3.03125.28125 4.4414 2.75 3.76173 4.4375-2.16797 3.94922 2.84375-3.94922.91796-4.4375-.30078-4.4414 3.16016-1.25782.66016-3.17969.46093-4.18359 3.97657.3789 4.4414-.6328 1.52344-2.35938 2.91406 2.35938 3.44922 2.36328-3.44922 2.07422-.96484 4.4375-.05469 2.64843 1.01953 1.79297 1.69922 4.4375 1.9414 4.4375-1.34374 2.375-2.29688 2.0625-3.35547 4.4375.29688 4.4414.3125 4.4375.51172 4.4375-.28516.58204 2.51953 1.57422 4.4375 2.28125 2.28125 4.4414 1.21485 4.4375-1.07813 2.58985-2.41797 1.84765-.34375 4.05079-4.09375.38671-4.4375v-.16797l1.33985-4.27343-1.33985-1.31641-4.4375-1.76953-4.4375-.73047-4.4375-.07422-4.4414-.03125-4.4375 1.52344-2.40235 2.39844-2.03515 2.23437-4.4375.4961-4.4414-1.13672-.98048-1.59375.98047-3.51172 4.4414 1.8789 2.875-2.80468 1.23048-4.4375.33203-4.17579.13281-.26171-.13281-.22657-2.41406-4.21484-2.02344-1.50781-4.4414.83984-.67188.66797-3.76563 3.26172-1.17187 1.17969-3.26563 3.92578-2.79687-3.92578-1.5-4.44141-.14063-.14063-4.4375-2.89062v-90.17188h13.3125v39.66797l-.17969.27735.1797.36719.2578-.3672-.2578-.27734v-39.66796h62.13671v141.8789l-.24219.14844-4.19531 1.65625-3.22656 2.78125 3.22656 2.19922 4.4375-.96094 1.40625-1.23828-1.17578-4.4375-.23047-.14844v-141.8789h22.1914v136.08984l-2.92968 1.5-1.50781.48437-4.4375 3.19532-.26954.7578-.92968 4.4375 1.19922.79298 4.4375 1.79687 3.58593-2.58984.85157-1.09766 4.4414-2.72656.79688-.61328.17187-4.4375-.96875-.32031-4.4414-1.1797V311.67189H463.5625v140.97656l-.8125 1.05078.8125.8125.83984-.8125-.83984-1.05078V311.67188h4.4336v168.65625H144.0039"/></g><path fill="#50fcfc" fill-rule="evenodd" d="M161.7539 446.625l-1.37109-1.80469 1.3711-1.38672 2.3125-3.05078 2.125-2.13672 4.40234-2.30078.03516-.04687v2.53906l-2.82032 1.94531-1.61718 1.20313-2.76563 3.23437 2.76563 3.3086 4.4375.33203 3.88672-3.64063-.83204-4.4375-3.05468-1.94531v-2.53906l4.4375-3.36328 2.38672 3.41015 2.05468 1.48828 2.57031 2.94922-2.5703 3.67969-.52345.75781-2.74218 4.4414-1.17578.92579-4.4375 1.23047-4.4375.94922-2.64063-3.10547-1.79687-2.63672"/><path fill="#00e8fc" fill-rule="evenodd" d="M166.1914 448.1289l-2.76562-3.30859 2.76563-3.23437 1.61718-1.20313 2.82032-1.94531v5.4961l-1.4297.88671 1.4297.42969.46093-.42969-.46093-.88672v-5.49609l3.05468 1.94531.83203 4.4375-3.88671 3.64063-4.4375-.33203"/><path fill="#00d4fc" fill-rule="evenodd" d="M170.6289 445.25l-1.42968-.42969 1.42969-.88672.46093.88672-.46093.42969"/><path fill="#50fcfc" fill-rule="evenodd" d="M201.69922 407.7539l-2.14844-2.8789 2.14844-2.1836 4.4375.19532 1.57422 1.98828-1.57422 1.57422-4.4375 1.30469m0 37.29687l-.1914-.23047.1914-.39062 2.10547-4.04688 2.33203-1.72656 3.71094-2.71094.72656-.47656 1.50781.47656 2.46484 4.4375.46875.74219.98829-.74219 3.44922-1.09765 4.4375.40234.9375.69531-.19922 4.4375-.73828.86719-2.16016 3.57422-2.27734 4.08594-4.4375.23437-4.13672-4.32031-.3047-.75-3.77733-3.6914-.66016-.75-3.10547.75-1.33203.23046m7.58203-26.85937l-2.09766-4.4375 3.39063-3.3125 4.4414-.84766v.66016l-4.4414 1.8789-1.66016 1.6211 1.66016 2.46093 4.4414 1.21485 3.4297-3.67578-3.4297-3.5v-.66016l4.07032 4.16016-4.07031 4.36718-1.35547.07032-3.08594 1.14062-1.29297-1.14062"/><path fill="#00e8fc" fill-rule="evenodd" d="M210.57422 416.21484l-1.66016-2.46093 1.66016-1.6211 4.4414-1.8789v1.09375l-3.72265 2.40625 3.72266 2.52734 2.35546-2.52734-2.35547-2.40625v-1.09375l3.4297 3.5-3.4297 3.67578-4.4414-1.21485"/><path fill="#00d4fc" fill-rule="evenodd" d="M215.01563 416.28125l-3.72266-2.52734 3.72266-2.40625v1.09765l-2.02735 1.3086 2.02734 1.375 1.28125-1.375-1.28125-1.3086v-1.09765l2.35547 2.40625-2.35547 2.52734"/><path fill="#00c4fc" fill-rule="evenodd" d="M215.01563 415.1289l-2.02735-1.375 2.02734-1.30859v1.09375l-.33203.21485.33203.22656.20704-.22656-.20703-.21485v-1.09375l1.28125 1.3086-1.28125 1.375"/><path fill="#00b8fc" fill-rule="evenodd" d="M215.01563 413.98047l-.33204-.22656.33203-.21485.20704.21485-.20703.22656"/><path fill="#50fcfc" fill-rule="evenodd" d="M223.89063 434.95703l-2.35938-3.44922 2.35938-2.91406.6328-1.52344-.3789-4.4414 4.1836-3.97657 3.17968-.46093 1.25781-.66016 4.44141-3.16016 4.4375.30079 3.94922-.91797-3.94922-2.84375-4.4375 2.16796-2.75-3.76171-.28125-4.44141 3.03125-3.03125v2.11328l-.91797.91797.70313 4.4414.21484.29298.52344-.29297.83984-4.44141-1.36328-.91797v-2.11328l4.4375 2.89063.14063.14062 1.5 4.4414 2.79687 3.92579v2.05078l-4.4375.76562-4.4375 1.48829-.82812.64453-3.61328 1.8203-4.4375.22267-2.52344 2.39453.52344 4.4414 2 1.82422 4.4375-.14844 4.4414 2.10157 1.01172.66015 3.42578 2.4414 3.89453-2.4414.54297-.3164 3.65234-4.1211.3672-4.4414-1.60157-4.4375-2.41797-2.89844v-2.05078l3.26563-3.92578 1.17187-1.1797v7.7461l-.6211 2.3086.6211 1.90234 4.03516-1.90234-4.03516-2.3086v-7.7461l3.76563-3.26171.67187-.66797 4.4414-.83984v2.42969l-4.4414 1.35937-2.3125 2.16016-1.21094 4.4375 3.52344 3.125 3.91406 1.3125.52735.3203.32812-.3203 2.7539-4.4375.13673-4.4375-3.21875-3.51954v-2.42968l2.02344 1.50781 2.41406 4.21484.13281.22657-.13281.26171-.33203 4.17579-1.23047 4.4375-2.875 2.80468-4.4414-1.8789-.98048 3.51172.98047 1.59375 4.4414 1.13671 4.4375-.49609 2.03516-2.23437 2.40235-2.39844 4.4375-1.52344 4.4414.03125 4.4375.07422v1.09766l-4.4375.64453-4.4414-.47266-3.97656 2.54688.12109 4.4414 1.98437 4.4375 1.8711 3.38281.73828 1.0547 3.70312 2.08593 3.90235-2.08594.53515-.10937 4.4375-.83594 3.45704-3.49219.80078-4.4375-2.46875-4.4414-1.78907-1.00782-4.4375-1.71093v-1.09766l4.4375.73047 4.4375 1.76953 1.33985 1.3164-1.33985 4.27344v.16797l-.38671 4.4375-4.05079 4.09375-1.84765.34375-2.58985 2.41797-4.4375 1.07813-4.4414-1.21485-2.28125-2.28125-1.57422-4.4375-.58203-2.51953-4.4375.28516-4.4375-.51172-4.4414-.3125-4.4375-.29688-2.0625 3.35547-2.375 2.29688-4.4375 1.34375-4.4375-1.9414-1.79298-1.69923-2.64844-1.01953-4.4375.05469-2.07421.96484-2.36328 3.44922"/><path fill="#00e8fc" fill-rule="evenodd" d="M226.32813 427.07031l-.52344-4.4414 2.52344-2.39454 4.4375-.22265 3.61328-1.82031.82812-.64454 4.4375-1.48828 4.4375-.76562v2.79687l-1.42578.10157-3.01172.22265-4.4375 1.0625-4 3.15235.8125 4.4414 3.1875 1.95703 3.8086 2.48047.6289.44531.71484-.4453 3.72266-2.16407 2.01563-2.27344.29687-4.4414-2.22656-4.4375-.08594-.10157v-2.79687L248.5 418.1914l1.60156 4.4375-.36719 4.4414-3.65234 4.1211-.54297.3164-3.89453 2.4414-3.42578-2.4414-1.01172-.66015-4.4414-2.10157-4.4375.14844-2-1.82422"/><path fill="#00d4fc" fill-rule="evenodd" d="M234.01953 427.07031l-.8125-4.4414 4-3.15235v1.46485l-2.14453 1.6875 1.91406 4.4414.23047.14063 4.4375 3.51562 4.4375-3.23437.375-.42188.22656-4.4414-.60156-1.1875-4.4375-.11329-4.4375-.38671v-1.46485l4.4375-1.0625 3.01172-.22265 1.42578-.10157.08594.10157 2.22656 4.4375-.29687 4.4414-2.01563 2.27344-3.72266 2.16406-.71484.44531-.6289-.4453-3.8086-2.48048-3.1875-1.95703"/><path fill="#00c4fc" fill-rule="evenodd" d="M236.97656 427.07031l-1.91406-4.4414 2.14453-1.6875v1.46484l-.28516.22266.28516.6328 1.14844 3.8086 3.28906 2.65235 3.4336-2.65235-3.4336-3.67187-3.47266-.76953-.96484-.22266v-1.46484l4.4375.38671 4.4375.11329.60156 1.1875-.22656 4.4414-.375.42188-4.4375 3.23437-4.4375-3.51562-.23047-.14063"/><path fill="#00e8fc" fill-rule="evenodd" d="M236.99219 409.3164l-.70313-4.4414.91797-.91797 1.36328.91797-.83984 4.4414-.52344.29298-.21484-.29297"/><path fill="#00b8fc" fill-rule="evenodd" d="M237.20703 423.26172l-.28516-.63281.28516-.22266.96484.22266 3.47266.76953v1.39062l-2.04687 2.28125 2.04687 1.64844 2.13672-1.64844-2.13672-2.28125v-1.39062l3.4336 3.67187-3.4336 2.65235-3.28906-2.65235-1.14844-3.8086"/><path fill="#00a8fc" fill-rule="evenodd" d="M241.64453 428.71875l-2.04687-1.64844 2.04687-2.28125v1.38672l-.80078.89453.80078.64453.83594-.64453-.83594-.89453v-1.38672l2.13672 2.28125-2.13672 1.64844"/><path fill="#009800" fill-rule="evenodd" d="M241.64453 427.71484l-.80078-.64453.80078-.89453.83594.89453-.83594.64453"/><path fill="#fff" fill-opacity="0" fill-rule="evenodd" d="M250.51953 415.88281l-.6211 2.3086.6211 1.90234 4.03516-1.90234-4.03516-2.3086"/><path fill="#50fcfc" fill-rule="evenodd" d="M250.51953 351.98438l-.17969-.3672.1797-.27734.2578.27735-.2578.36719"/><path fill="#00e8fc" fill-rule="evenodd" d="M254.95703 416.8789l-3.52344-3.125 1.21094-4.4375 2.3125-2.16015 4.4414-1.35938v2.26172l-2.35156 1.25782-2.08984 2.54687-.94531 1.89063.94531.83984 4.4414 1.22656 1.3711-2.0664-.21875-4.4375-1.15234-1.25782v-2.26171l3.21875 3.51953-.13672 4.4375-2.7539 4.4375-.32813.3203-.52735-.3203-3.91406-1.3125"/><path fill="#00d4fc" fill-rule="evenodd" d="M254.95703 414.59375l-.94531-.83984.94531-1.89063 2.08984-2.54687 2.35157-1.25782 1.15234 1.25782.21875 4.4375-1.3711 2.0664-4.4414-1.22656"/><path fill="#00e8fc" fill-rule="evenodd" d="M268.85547 427.07031l-.1211-4.4414 3.97657-2.54688 4.4414.47266 4.4375-.64453v1.83593l-2.6914.88282-1.7461.29687-3.27343-.29687-1.16797-.25391-.39844.2539-2.20703 4.44141 2.60547 3.67188 1.09765.76562 3.34375 4.08203 4.4375-.64453 4.4375-.94531 2.46485-2.49219 1.4961-4.4375-3.96095-4.21484-2.64062-.22656-1.79688-.88282v-1.83593l4.4375 1.71093 1.78907 1.00782 2.46875 4.4414-.80079 4.4375L286.02735 435l-4.4375.83594-.53515.10937-3.90235 2.08594-3.70312-2.08594-.73828-1.05469-1.8711-3.3828-1.98437-4.4375"/><path fill="#00d4fc" fill-rule="evenodd" d="M272.71094 430.74219l-2.60547-3.67188 2.20703-4.4414.39844-.25391 1.16797.2539 3.27343.29688 1.7461-.29687 2.6914-.88282v1.36329l-4.4375.76562-4.4414.75-1.35547 2.44531 1.35547 1.91406 3.625 2.52344.8164.99219 4.4375 1.55469 4.4375-1.0586 1.47266-1.48828 2.1914-4.4375-3.66406-3.90234-4.4375-.0586v-1.36328l1.79688.88282 2.64062.22656 3.96094 4.21484-1.4961 4.4375L286.02735 434l-4.4375.94531-4.4375.64453-3.34375-4.08203-1.09765-.76562"/><path fill="#00c4fc" fill-rule="evenodd" d="M272.71094 428.98438l-1.35547-1.91407 1.35547-2.44531 4.4414-.75 4.4375-.76563 4.4375.0586v.3164l-4.4375.5547-4.4375.78515-4.4414 2.04687-.10938.19922.10938.15235 4.4414 3.29687 1.1836.98828 3.2539 1.66016 4.4375-1.17578.48047-.48438 2.88672-4.4375-3.36719-3.58594v-.3164l3.66407 3.90234-2.19141 4.4375-1.47266 1.48828-4.4375 1.0586-4.4375-1.55469-.8164-.99219-3.625-2.52344"/><path fill="#00b8fc" fill-rule="evenodd" d="M272.71094 427.22266l-.10938-.15235.10938-.19922 4.4414-2.04687 4.4375-.78516 4.4375-.55469v.31641l-4.4375 1.16797-4.4375.80078-2.66406 1.30078 2.66406 1.99219 2.9297 2.44531 1.5078.76953 2.77735-.76953 1.66015-.21094 3.07032-4.22656-3.07032-3.26953v-.3164l3.3672 3.58593-2.88673 4.4375-.48047.48438-4.4375 1.17578-3.2539-1.66016-1.1836-.98828-4.4414-3.29687"/><path fill="#00a8fc" fill-rule="evenodd" d="M277.15234 429.0625l-2.66406-1.99219 2.66406-1.30078 4.4375-.80078 4.4375-1.16797v.3164l-4.4375 1.78126-4.4375.82031-.71875.35156.71875.53516 4.4375 3.46875 4.4375-.1875 2.77344-3.8164-2.77344-2.95313v-.3164l3.07032 3.26952-3.07032 4.22656-1.66015.21094-2.77735.76953-1.5078-.76953-2.9297-2.44531"/><path fill="#009800" fill-rule="evenodd" d="M277.15234 427.60547l-.71875-.53516.71875-.35156 4.4375-.82031 4.4375-1.78125v.3125l-4.4375 2.39844-1.29296.24218 1.29296.82422 4.4375 2.58594 2.48047-3.41016-2.48047-2.64062v-.3125l2.77344 2.95312-2.77344 3.8164-4.4375.1875-4.4375-3.46874"/><path fill="#00ac00" fill-rule="evenodd" d="M281.58984 427.89453l-1.29296-.82422 1.29296-.24219 4.4375-2.39843v.3164l-4.03125 2.32422 4.03125 3 2.1836-3-2.1836-2.32422v-.3164l2.48047 2.64062-2.48047 3.41016-4.4375-2.58594"/><path fill="#00c800" fill-rule="evenodd" d="M286.02734 430.07031l-4.03125-3 4.03125-2.32422v.63282l-2.9375 1.6914 2.9375 2.1836 1.58985-2.1836-1.58985-1.6914v-.63282l2.1836 2.32422-2.1836 3"/><path fill="#10cc00" fill-rule="evenodd" d="M286.02734 429.2539l-2.9375-2.18359 2.9375-1.6914v.6328l-1.83984 1.0586 1.83984 1.36719.9961-1.36719-.9961-1.0586v-.6328l1.58985 1.6914-1.58985 2.1836"/><path fill="#24d000" fill-rule="evenodd" d="M286.02734 428.4375l-1.83984-1.36719 1.83984-1.0586v.62892l-.74218.42968.74218.55078.40235-.55078-.40235-.42969v-.6289l.9961 1.0586-.9961 1.36718"/><path fill="#3cd800" fill-rule="evenodd" d="M286.02734 427.6211l-.74218-.55079.74218-.42969.40235.4297-.40235.55077"/><path fill="#50fcfc" fill-rule="evenodd" d="M308.21875 460.33594l-3.22656-2.19922 3.22656-2.78125 4.19531-1.65625.24219-.14844.23047.14844 1.17578 4.4375-1.40625 1.23828-4.4375.96094m17.7539-1.40625l-1.19921-.79297.92969-4.4375.26953-.75781 4.4375-3.19532 1.5078-.48437 2.9297-1.5 4.4414 1.17969.96875.3203-.17187 4.4375-.79688.61329-4.4414 2.72656-.85157 1.09766-3.58593 2.58984-4.4375-1.79687m137.58984-4.41797l-.8125-.8125.8125-1.05078.83984 1.05078-.83984.8125"/><g clip-path="url(#c)"><path fill="#fff" fill-opacity="0" fill-rule="evenodd" d="M467.9961 480.32813H468V311.67188h-.0039H468v168.65625h-.0039"/></g><path fill="#fff" fill-opacity="0" fill-rule="evenodd" d="M235.78516 406.51563l4.53515 3.67968 6.27735-7.73828-4.53907-3.67969-6.27343 7.73829"/><path fill-rule="evenodd" d="M243.6211 402.40625l.39843.32031-3.96875 4.89063-.60937-.4961 2.82812-3.48828-1.07812-.875.34765-.42969.47656.30079.23047.11718.23438.07422.2461.01953.26952-.05468.29688-.13672.32812-.24219"/><g clip-path="url(#d)"><path fill="none" stroke="#000" stroke-linecap="round" stroke-linejoin="round" stroke-miterlimit="10" stroke-width=".5" d="M144 476.8164v7.02735"/></g><g clip-path="url(#e)"><path fill="none" stroke="#000" stroke-linecap="round" stroke-linejoin="round" stroke-miterlimit="10" stroke-width=".5" d="M154.64063 478.05078l5.34765 4.55469"/></g><path fill="none" stroke="#000" stroke-linecap="round" stroke-linejoin="round" stroke-miterlimit="10" stroke-width=".5" d="M155.41797 478.71484l.26562-1.19922"/><g clip-path="url(#f)"><path fill="none" stroke="#000" stroke-linecap="round" stroke-linejoin="round" stroke-miterlimit="10" stroke-width=".5" d="M167.8711 478.15625l5.51952 4.34766"/></g><path fill="none" stroke="#000" stroke-linecap="round" stroke-linejoin="round" stroke-miterlimit="10" stroke-width=".5" d="M168.67188 478.78906l.21875-1.20703"/><g clip-path="url(#g)"><path fill="none" stroke="#000" stroke-linecap="round" stroke-linejoin="round" stroke-miterlimit="10" stroke-width=".5" d="M180.98438 478.4375l5.92187 3.78516"/></g><path fill="none" stroke="#000" stroke-linecap="round" stroke-linejoin="round" stroke-miterlimit="10" stroke-width=".5" d="M181.84766 478.98828l.09765-1.22265"/><g clip-path="url(#h)"><path fill="none" stroke="#000" stroke-linecap="round" stroke-linejoin="round" stroke-miterlimit="10" stroke-width=".5" d="M193.83594 481.1211l6.84765-1.58594"/></g><g clip-path="url(#i)"><path fill="none" stroke="#000" stroke-linecap="round" stroke-linejoin="round" stroke-miterlimit="10" stroke-width=".5" d="M194.83203 480.89063l-.80469-.92579"/></g><g clip-path="url(#j)"><path fill="none" stroke="#000" stroke-linecap="round" stroke-linejoin="round" stroke-miterlimit="10" stroke-width=".5" d="M209.11328 483.52344l2.92188-6.39063"/></g><g clip-path="url(#k)"><path fill="none" stroke="#000" stroke-linecap="round" stroke-linejoin="round" stroke-miterlimit="10" stroke-width=".5" d="M223.70313 483.83594l.375-7.01563"/></g><g clip-path="url(#l)"><path fill="none" stroke="#000" stroke-linecap="round" stroke-linejoin="round" stroke-miterlimit="10" stroke-width=".5" d="M239.52734 482.96875l-4.64062-5.27734"/></g><g clip-path="url(#m)"><path fill="none" stroke="#000" stroke-linecap="round" stroke-linejoin="round" stroke-miterlimit="10" stroke-width=".5" d="M253.82422 481.52734l-6.60547-2.39843"/></g><g clip-path="url(#n)"><path fill="none" stroke="#000" stroke-linecap="round" stroke-linejoin="round" stroke-miterlimit="10" stroke-width=".5" d="M252.86328 481.17969l.16797 1.21484"/></g><g clip-path="url(#o)"><path fill="none" stroke="#000" stroke-linecap="round" stroke-linejoin="round" stroke-miterlimit="10" stroke-width=".5" d="M267.34766 480.42969l-7.02344-.20313"/></g><g clip-path="url(#p)"><path fill="none" stroke="#000" stroke-linecap="round" stroke-linejoin="round" stroke-miterlimit="10" stroke-width=".5" d="M266.32422 480.40234l.54687 1.09766"/></g><g clip-path="url(#q)"><path fill="none" stroke="#000" stroke-linecap="round" stroke-linejoin="round" stroke-miterlimit="10" stroke-width=".5" d="M280.53125 479.3711l-6.76172 1.91406"/></g><g clip-path="url(#r)"><path fill="none" stroke="#000" stroke-linecap="round" stroke-linejoin="round" stroke-miterlimit="10" stroke-width=".5" d="M279.54688 479.64844l.85156.88672"/></g><g clip-path="url(#s)"><path fill="none" stroke="#000" stroke-linecap="round" stroke-linejoin="round" stroke-miterlimit="10" stroke-width=".5" d="M293.78906 479.1914l-6.64844 2.27344"/></g><g clip-path="url(#t)"><path fill="none" stroke="#000" stroke-linecap="round" stroke-linejoin="round" stroke-miterlimit="10" stroke-width=".5" d="M292.82422 479.52344l.89453.83984"/></g><g clip-path="url(#u)"><path fill="none" stroke="#000" stroke-linecap="round" stroke-linejoin="round" stroke-miterlimit="10" stroke-width=".5" d="M307.20703 479.54688l-6.85156 1.5625"/></g><g clip-path="url(#v)"><path fill="none" stroke="#000" stroke-linecap="round" stroke-linejoin="round" stroke-miterlimit="10" stroke-width=".5" d="M307.20703 479.54688l1.60547 1.85546"/></g><g clip-path="url(#w)"><path fill="none" stroke="#000" stroke-linecap="round" stroke-linejoin="round" stroke-miterlimit="10" stroke-width=".5" d="M320.59375 480.0039l-6.9961.65235"/></g><g clip-path="url(#x)"><path fill="none" stroke="#000" stroke-linecap="round" stroke-linejoin="round" stroke-miterlimit="10" stroke-width=".5" d="M320.59375 480.0039l1.34766 2.05079"/></g><g clip-path="url(#y)"><path fill="none" stroke="#000" stroke-linecap="round" stroke-linejoin="round" stroke-miterlimit="10" stroke-width=".5" d="M319.57813 480.09766l.67187 1.02343"/></g><g clip-path="url(#z)"><path fill="none" stroke="#000" stroke-linecap="round" stroke-linejoin="round" stroke-miterlimit="10" stroke-width=".5" d="M333.86719 479.70703l-6.91406 1.2461"/></g><g clip-path="url(#A)"><path fill="none" stroke="#000" stroke-linecap="round" stroke-linejoin="round" stroke-miterlimit="10" stroke-width=".5" d="M333.86719 479.70703l1.51953 1.92578"/></g><g clip-path="url(#B)"><path fill="none" stroke="#000" stroke-linecap="round" stroke-linejoin="round" stroke-miterlimit="10" stroke-width=".5" d="M332.86328 479.88672l.75781.96484"/></g><g clip-path="url(#C)"><path fill="none" stroke="#000" stroke-linecap="round" stroke-linejoin="round" stroke-miterlimit="10" stroke-width=".5" d="M346.29297 477.92969l-5.13672 4.79687"/></g><path fill="none" stroke="#000" stroke-linecap="round" stroke-linejoin="round" stroke-miterlimit="10" stroke-width=".5" d="M346.29297 477.92969l2.32031.79687m-3.0664-.09765l1.16015.39843"/><g clip-path="url(#D)"><path fill="none" stroke="#000" stroke-linecap="round" stroke-linejoin="round" stroke-miterlimit="10" stroke-width=".5" d="M358.26172 477.03516l-2.4414 6.58984"/></g><path fill="none" stroke="#000" stroke-linecap="round" stroke-linejoin="round" stroke-miterlimit="10" stroke-width=".5" d="M358.26172 477.03516l2.4336-.32813"/><g clip-path="url(#E)"><path fill="none" stroke="#000" stroke-linecap="round" stroke-linejoin="round" stroke-miterlimit="10" stroke-width=".5" d="M371.8164 477.13281l-2.92187 6.39063"/></g><path fill="none" stroke="#000" stroke-linecap="round" stroke-linejoin="round" stroke-miterlimit="10" stroke-width=".5" d="M371.39063 478.0625l1.22656-.07422"/><g clip-path="url(#F)"><path fill="none" stroke="#000" stroke-linecap="round" stroke-linejoin="round" stroke-miterlimit="10" stroke-width=".5" d="M386.34766 478.05078l-5.35157 4.55469"/></g><path fill="none" stroke="#000" stroke-linecap="round" stroke-linejoin="round" stroke-miterlimit="10" stroke-width=".5" d="M386.34766 478.05078l2.28125.90235"/><g clip-path="url(#G)"><path fill="none" stroke="#000" stroke-linecap="round" stroke-linejoin="round" stroke-miterlimit="10" stroke-width=".5" d="M399.625 478.01172l-5.27734 4.63672"/></g><path fill="none" stroke="#000" stroke-linecap="round" stroke-linejoin="round" stroke-miterlimit="10" stroke-width=".5" d="M399.625 478.01172l2.29688.86719"/><g clip-path="url(#H)"><path fill="none" stroke="#000" stroke-linecap="round" stroke-linejoin="round" stroke-miterlimit="10" stroke-width=".5" d="M412.42969 477.53516l-4.25781 5.58984"/></g><path fill="none" stroke="#000" stroke-linecap="round" stroke-linejoin="round" stroke-miterlimit="10" stroke-width=".5" d="M412.42969 477.53516l2.42187.39453"/><g clip-path="url(#I)"><path fill="none" stroke="#000" stroke-linecap="round" stroke-linejoin="round" stroke-miterlimit="10" stroke-width=".5" d="M426.17578 477.91797l-5.11719 4.82031"/></g><g clip-path="url(#J)"><path fill="none" stroke="#000" stroke-linecap="round" stroke-linejoin="round" stroke-miterlimit="10" stroke-width=".5" d="M433.49219 479.60156l6.8789 1.45313"/></g><g clip-path="url(#K)"><path fill="none" stroke="#000" stroke-linecap="round" stroke-linejoin="round" stroke-miterlimit="10" stroke-width=".5" d="M453.73047 479.86328l-6.96485.92969"/></g><g clip-path="url(#L)"><path fill="none" stroke="#000" stroke-linecap="round" stroke-linejoin="round" stroke-miterlimit="10" stroke-width=".5" d="M452.71484 480l.71485.9961"/></g><g clip-path="url(#M)"><path fill="none" stroke="#000" stroke-linecap="round" stroke-linejoin="round" stroke-miterlimit="10" stroke-width=".5" d="M466.51172 482.23828l-5.90235-3.8164"/></g><g clip-path="url(#N)"><path fill="none" stroke="#000" stroke-linecap="round" stroke-linejoin="round" stroke-miterlimit="10" stroke-width=".5" d="M147.47656 466.50781l-6.95312 1.01172"/></g><path fill="none" stroke="#000" stroke-linecap="round" stroke-linejoin="round" stroke-miterlimit="10" stroke-width=".5" d="M146.46484 466.65625l.72657.98828m12.41406-3.29297l-4.58203 5.32422m3.91797-4.55078l1.1953.26953m11.91407-1.59375l-2.83984 6.42578m2.42578-5.49218l1.22266-.08985m12.45312-.86719l-2.73438 6.47266m2.33594-5.53125l1.22266-.10938m14.60156 2.89454l-6.95703-.98047m17.10156 3.99219l-.61719-7m.52735 5.98046l-1.02734.66797m14.34375.35547l-.4375-7.01172m16.3164 5.65235l-5.5625-4.29297m4.75 3.66797l-.20312 1.21093M253.5 468.875l-5.95703-3.72266m5.08984 3.1836l-.08594 1.22265m14.7461-1.92578l-6.91406-1.23828m5.91015 1.0586l.375 1.16796m13.76172-2.8789l-6.55078 2.54297m5.59766-2.17188l.92968.80078m13.2422-1.39844l-6.35548 2.9961m5.42969-2.5586l.98437.73438m13.58204.59766l-7.00782-.54297m7.00782.54297l.98046 2.25m12.32422-2.15625l-6.98828-.73047m6.98828.73047l.92188 2.27734m12.33594-3.3711l-6.875 1.45704m6.875-1.45703l1.57421 1.8828M332.84766 466.5l.78906.9375m13.57422-.86328l-6.97266.8789m6.97266-.8789l1.41406 2.0039m-2.42578-1.875l.70703 1m13.5625-1.46875l-6.85156 1.5586m5.85156-1.33203l.80469.92968m13.3125-1.7578l-6.46094 2.76171m5.52344-2.35937l.95312.76953m13.45703-.72657l-6.77343 1.8711m5.78906-1.59766l.83984.89063m13.10156-2.00782l-6.05859 3.5586m6.0586-3.5586l2.08984 1.28125m11.32422-1.10156l-6.25782 3.19922m6.25782-3.19922l2.01172 1.40235m10.66796-2.28125l-4.98437 4.95703m4.98437-4.95703l2.34375.72265m9.61329 5.08203l-2.26954-6.65234m1.9375 5.6836l-.83593.89452m15.72265-.66015l-4.74609-5.1836m4.05469 4.4297l-.41016 1.15624m8.76953-1.71875l6.54688-2.55078m-6.54688 2.55078l-1.85937-1.60156"/><g clip-path="url(#O)"><path fill="none" stroke="#000" stroke-linecap="round" stroke-linejoin="round" stroke-miterlimit="10" stroke-width=".5" d="M147.45313 453.04297l-6.90625 1.3125"/></g><path fill="none" stroke="#000" stroke-linecap="round" stroke-linejoin="round" stroke-miterlimit="10" stroke-width=".5" d="M146.44922 453.23438l.76562.95703m13.09766-2.32813l-5.9961 3.66797m5.125-3.13281l1.0547.625m12.4453-1.96875l-4.625 5.28906m3.95313-4.51953l1.19531.27734M187 451.96094l-6.10938 3.47656m5.21875-2.96875l1.03907.65625m13.58594.0586l-6.94922 1.03124m5.9375-.8828l.73047.98827m13.6328-.44922l-7.01952-.34375m5.99609.29297l.52344 1.10938m13.69922-.32422l-6.78907-1.8125m17.96875 4.1836l-2.51953-6.5586m2.15625 5.60547l-.80469.92578m14.23829.11328l-2.03125-6.72656m1.73437 5.7461l-.86719.86718m15.26172-.23047l-3.59375-6.03906m3.07031 5.16015l-.63671 1.04688m16.04687-2.1875l-6.73828-2.0039m5.75781 1.71484l.24219 1.20312m14.19922-1.84766l-7.02735-.1328m6.00391.11327l.55469 1.09375m13.61719-.07422l-6.69532-2.1328m5.72266 1.8203l.21875 1.20704m13.57813.08203l-5.71485-4.08594m4.88281 3.49219l-.16015 1.21484m14.73828-1.42578l-6.57422-2.47656m5.61719 2.11718l.15625 1.21485m14.20703-3.0586l-6.75781 1.92579m5.77343-1.64454l.85157.88282m13.40625-1.29297l-6.67579 2.1875m5.70313-1.8711l.88672.85157m11.08594-.07422l-.01954-.19922-.05859-.1914-.09375-.1797-.46094-.375-.1914-.05859-.19922-.01953-.19922.01953-.1914.0586-.45704.375-.09765.17968-.0586.19141-.01953.19922.01953.19922.0586.1914.09765.17578.45703.37891.19141.0586.19922.01953.19922-.01954.1914-.05859.46094-.3789.09375-.17579.0586-.1914.01953-.19922m13.3164 0l-.01953-.19922-.0586-.1914-.09765-.1797-.45703-.375-.1914-.05859-.19923-.01953-.19921.01953-.19141.0586-.46094.375-.09375.17968-.0586.19141-.01952.19922.01953.19922.0586.1914.09374.17578.46094.37891.1914.0586.19923.01953.19921-.01954.19141-.05859.45703-.3789.09766-.17579.0586-.1914.01952-.19922m13.3125 0l-.01953-.19922-.0586-.1914-.09374-.1797-.45703-.375-.19141-.05859-.20313-.01953-.19921.01953-.19141.0586-.45703.375-.09375.17968-.0586.19141-.01953.19922.01954.19922.05859.1914.09375.17578.45703.37891.1914.0586.19923.01953.20312-.01954.1914-.05859.45704-.3789.09375-.17579.0586-.1914.01952-.19922m15.65625-1.01953l-6.72656 2.03906m5.75-1.74219l.86328.8711m13.53125-.72657l-6.92969 1.15625m6.9297-1.15625l1.49218 1.94922m11.85937-1.66015l-7.0039.57812m5.98437-.4961l.66406 1.03516m13.6211-.16797l-6.90235-1.3203m5.89844 1.1289l.35938 1.17187m8.57031 1.28907l3.875-5.86329m-3.3125 5.01172l-1.22266-.11718"/><g clip-path="url(#P)"><path fill="none" stroke="#000" stroke-linecap="round" stroke-linejoin="round" stroke-miterlimit="10" stroke-width=".5" d="M147.2539 439.0586l-6.5078 2.65234"/></g><path fill="none" stroke="#000" stroke-linecap="round" stroke-linejoin="round" stroke-miterlimit="10" stroke-width=".5" d="M146.3086 439.44531l.9414.78516m13.5-.58203l-6.8711 1.46875m5.8711-1.2539l.78906.9375m13.3789-1.65235l-6.57812 2.47265m5.6211-2.11328l.92187.8086m13.25-1.41016l-6.375 2.95312m5.44922-2.52343l.97656.74218m13.5625-.14843l-6.96875.90625m5.95313-.77344l.71094 1m13.55078.13672l-6.83594-1.6289M213 440.96093l.3086 1.1875m13.80468-.36719l-6.44531-2.79688m5.50781 2.39063l.09766 1.22266m14.4375-1.96485l-7.01172-.5m5.99219.42969l.49609 1.1211m13.67578-2.38282l-6.6836 2.16797m5.71095-1.85547l.8828.85547m13.06641 1.73437l-6.01172-3.63671m5.14063 3.10546l-.07031 1.22657m14.66797-1.69532l-6.83203-1.63671m5.83984 1.39843l.3086 1.1875m14.05077-1.20703l-6.9375-1.125m5.9297.96094l.39452 1.16406m13.89453-.82422l-6.86718-1.47656m6.86718 1.47656l.67188 2.36328m12.63281-2.30859l-6.84766-1.58203m6.84766 1.58203l.63281 2.3711m12.63282-2.1797l-6.7461-1.96874m6.7461 1.96875l.49609 2.40234m12.6875-4.74219l-6.48438 2.71094m5.53907-2.3164l.94922.77734m13.55859-.22656l-6.98047.8203m16.5664-3.91405l.47657 7.01171m-.40625-5.99218l1.04297-.64844m9.34765 1.46875l6.1875 3.33203m-5.28906-2.84765l.00781-1.22657m12.21485 3.64844l6.57422-2.48047m-6.57422 2.48047l-1.84375-1.6211m15.03906 1.2422l6.8125-1.72657m-5.82031 1.47656l-.82422-.90625m15.73828 3.71094l1.6289-6.83594m-1.39062 5.84375l-1.1875.3086m17.96485-.72656l-5.76954-4.01563m4.9297 3.42969l-.14454 1.21875m14.60547-4.10938l-6.38281 2.9414m5.45312-2.51562l.97656.7422m6.78125 1.51952l6.59375-2.4336"/><g clip-path="url(#Q)"><path fill="none" stroke="#000" stroke-linecap="round" stroke-linejoin="round" stroke-miterlimit="10" stroke-width=".5" d="M147.27344 425.79297l-6.54688 2.55078"/></g><path fill="none" stroke="#000" stroke-linecap="round" stroke-linejoin="round" stroke-miterlimit="10" stroke-width=".5" d="M147.27344 425.79297l1.85937 1.60156m11.39844-1.74219l-6.4336 2.83203m6.4336-2.83203l1.92578 1.51953m11.66797-.44921l-6.99219.6914m6.99219-.6914l1.35938 2.04297m11.95312-1.31641l-6.98438-.76172m5.96875.64844l.45704 1.14062m13.6875-.21484l-6.60938-2.38672m5.64844 2.03906l.17187 1.21485m14.02344-.67188l-6.45312-2.77734m5.51562 2.375l.10156 1.22265m14.23828-1.03515l-6.625-2.34766m5.66016 2.0039l.1836 1.21485m10.79687 1.46875l-.02344-7.02734m15.35938 6.3789l-4.07031-5.73046m13.27734 5.70312l4.14844-5.67578m-3.54297 4.84766l-1.21485-.17188m19.48047-2.3164l-6.96484.95703m5.94922-.81641l.71875.99219m11.27734 2.66797l-2.29687-6.64454m2.29687 6.64454l-1.67187 1.79687m16.86718-3.33984l-6.05468-3.5586m6.05468 3.5586l-.10547 2.45312m13.875-3.76172l-6.96484-.9414m5.95313.80468l.42187 1.15235m13.91406-1.8789l-6.98437.78515m6.98437-.78516l1.38672 2.02344m11.91016-2.16406l-6.94531 1.0664m5.93359-.91015l.73437.98437m13.1211-2.4375l-6.0039 3.66016m13.09374-3.22656l6.44531 2.79296m-5.5078-2.38671l-.09766-1.22266m12.19921 2.52734l7-.6289m-7 .6289l-1.33984-2.0586m14.64844 1.4922l7.01172.5039m-7.01172-.5039l-.99219-2.2422m14.9414 4.51563l5.7461-4.04296m-5.7461 4.04296l-2.1914-1.10937m3.02734.52344l-1.09765-.5547m13.69531 1.30079l5.50781-4.36328m-5.5078 4.36328l-2.25-.98437m3.05077.34765l-1.125-.49219m15.28906 2.28125l2.20704-6.66796m-2.20704 6.66796l-2.41796.41407m2.73828-1.38282l-1.21094.20704m14.7461.89453l1.125-6.9336m-.96094 5.92578l-1.16016.39454M461.16406 424.5l4.79297 5.13672"/><g clip-path="url(#R)"><path fill="none" stroke="#000" stroke-linecap="round" stroke-linejoin="round" stroke-miterlimit="10" stroke-width=".5" d="M147.23828 412.38672l-6.47656 2.73047"/></g><path fill="none" stroke="#000" stroke-linecap="round" stroke-linejoin="round" stroke-miterlimit="10" stroke-width=".5" d="M147.23828 412.38672l1.90234 1.55078m11.33985-1.71094l-6.32813 3.05469m6.32813-3.05469l1.97656 1.44922m11.51953-.98828l-6.69531 2.13281m6.69531-2.13281l1.75781 1.71484m11.70313-.27343l-6.98438-.75m6.98438.75l.91406 2.27734m11.92578-.85156l-6.03515-3.60156m6.03515 3.60156l-.12109 2.44922m13.57031-2.69532l-6.30078-3.10937m6.30078 3.10937l.07422 2.45313m13.5-3.16406l-6.82031-1.6875m6.82031 1.6875l.59766 2.3789m10.45703.09766l-2.30078-6.64063m14.46484 6.83204v-7.02735m0 6.00781l-1.08203.57422m15.6914.19922l-2.58984-6.53125m2.21485 5.58203l-.79688.9336m11.55469-.14063l3.27734-6.21875m14.26953 5.48047l-5.18359-4.74219m5.1836 4.74219l-.61329 2.375m14.3164-2.88281l-5.96093-3.72656m5.09375 3.18359l-.08594 1.22266m14.76954-2.07813l-6.96485-.92969m5.95313.79297l.42578 1.15235m12.32422 1.47265l-3.8086-5.90625m3.2539 5.04688l-.59765 1.0703m14.77344-5.89452l-4.42187 5.46094m12.48828-.96485l6.07422-3.53515m-5.19141 3.02343l-1.04297-.64843M367.65625 416l5.40234-4.49219m-4.61718 3.83985l-1.13672-.46485m13.92187-3.65234l4.89063 5.04687m-4.17969-4.3125l.3789-1.16796m12.64063.08593l4.0586 5.73828m-4.0586-5.73828l1.10547-2.1914m-.51562 3.02734l.55468-1.09375m11.36328 1.05469l5.67188 4.14844m-5.67188-4.14844l.35157-2.42969m14.04297 1.46094l3.51562 6.08594m-3.51562-6.08594l1.29687-2.08203m10.63672 6.70703l6.27734-3.16406m-5.36328 2.70312l-1-.70703M447 415.09766l6.49219-2.69141m-5.54688 2.30078L447 413.9297m14.05078 2.28125l5.02344-4.91406m-4.29297 4.19921l-1.16797-.37109"/><g clip-path="url(#S)"><path fill="none" stroke="#000" stroke-linecap="round" stroke-linejoin="round" stroke-miterlimit="10" stroke-width=".5" d="M147.17969 398.9414l-6.35938 2.9961"/></g><path fill="none" stroke="#000" stroke-linecap="round" stroke-linejoin="round" stroke-miterlimit="10" stroke-width=".5" d="M147.17969 398.9414l1.96484 1.46485m11.08984-1.92188l-5.83984 3.91016m5.83984-3.91015l2.16407 1.15625m11.09375-1.23829l-5.72656 4.07422m4.89453-3.48437l1.09765.55078m13.3164 2.4961l-6.2578-3.19923m15.66406 5.02344l1.5586-6.85156m-1.33204 5.85547l-1.1836.32031m15.35157.75l-.60156-7m.51562 5.98438l-1.03125.66406m17.29297-1.61719l-6.32031-3.0625m6.32031 3.0625l.09375 2.45313m-1.01172-2.89844l.04688 1.22656m13.63672.04297l-5.21875-4.70703m5.21875 4.70703l-.59766 2.3789m13.91016-2.3789l-5.21485-4.71094m4.45703 4.02735l-.30078 1.1875m15.27735-2.73047l-7.02344-.25782m6 .22266l.53516 1.10156m12.14843 1.78906l-3.71484-5.96484m3.17187 5.09766l-.61328 1.0586m16.04688-3.91798l-6.86719 1.48828m5.8711-1.27343l.78906.9375m13.54296-1.0586l-6.90625 1.30078m19.89844.94532l-6.25781-3.19532m5.34375 2.73047l.02344 1.22656m13.9375-.3203l-5.72266-4.07813m4.89063 3.48437l-.16016 1.21875m8.86719-5.05078l5.15234 4.77735m-4.40234-4.08204l.3164-1.1875m11.31641 3.01563l7.01953-.27344m-6 .23438l-.61719-1.0586m14.22657 3.70703l4.39062-5.48828m-3.75 4.6875l-1.20703-.22656m17.7461-4.8086l-3.33594 6.1836m3.33593-6.1836l2.45313.01173m8.44531-.35547l1.4961 6.86718m-1.4961-6.86718l1.8711-1.58594m10.09765 2.19922l4.1875 5.64453m-4.1875-5.64453l1.05469-2.21875m12.34765 2.15625l4.01563 5.76562m-3.42969-4.92578l.5586-1.09375m11.48828.875l5.3789 4.52344m-5.3789-4.52344l.51562-2.39844m13.0625 7.20313l4.85156-5.08594m-4.14453 4.34766l-1.17968-.33203m16.14453 2.04296l.13672-7.02734m-.1172 6.0039l-1.09374.5547"/><g clip-path="url(#T)"><path fill="none" stroke="#000" stroke-linecap="round" stroke-linejoin="round" stroke-miterlimit="10" stroke-width=".5" d="M146.89063 385.1289l-5.78125 3.98829"/></g><path fill="none" stroke="#000" stroke-linecap="round" stroke-linejoin="round" stroke-miterlimit="10" stroke-width=".5" d="M146.89063 385.1289l2.17968 1.12891m11.23047-.98828l-5.97266 3.70703m5.97266-3.70703l2.1211 1.23438m10.91796-1.6172l-5.41797 4.47267m5.41797-4.47266l2.26953.9375m7.01563-1.95703l2.64063 6.51172m-2.25782-5.5625l.78906-.94141m10.48047 5.10938l5.96485-3.71875m-5.96485 3.71875l-2.12109-1.23047m16.50781 2.3164l3.82422-5.89453m-3.82422 5.89453l-2.44531-.21094m3-.64453l-1.22266-.10937m17.61328 1.08203l-3.4375-6.1289m3.4375 6.1289l-1.32421 2.0664m.82422-2.95702l-.66016 1.03125m16.24219-2.76563l-6.97266-.8789m6.97266.8789l.87109 2.29297m12.44922-2.33594l-6.98047-.79297m6.98047.79297l.89844 2.28516m11.99218-.96875l-6.13672-3.42578m6.13672 3.42578l-.04687 2.45312m13.79297-4.51562l-6.99219.69922m6.99219-.69922l1.35937 2.04297m11.90625-2.36329l-6.89844 1.33985m6.89844-1.33985l1.54688 1.90625m-2.55078-1.71093l.77343.95312m12.39063-3.14062l-4.58594 5.32422m4.58594-5.32422l2.39453.54297m-3.0625.23046l1.19922.27344m12.88672-.95312l-4.79297 5.13672m4.79297-5.13672l2.3711.63672m-3.06642.10937l1.1836.32031m12.8789-1.01562l-4.89843 5.03515m4.89843-5.03515l2.35547.6836m11.375-.20313l-5.72656 4.07422m5.72656-4.07422l2.19141 1.09765m10.34375-1.89062l-4.16797 5.66015m4.16797-5.66015l2.42578.35547m11.08594-.19922l-4.5586 5.34765m4.5586-5.34765l2.39453.52734m-3.0586.25l1.19922.26563m12.13672-1.48047l-3.27343 6.22265m3.27343-6.22265l2.45313-.00781m9.61328-.3711l-.77734 6.98047m.77734-6.98047l2.28125-.90625m11.8789 1.10547l-2.46484 6.58203m2.46485-6.58203l2.42968-.3164m9.78516.09765l-.26563 7.01953m.26563-7.01953l2.20703-1.07031m10.4414 1.10937l1.06641 6.94532m-1.0664-6.94532l1.96484-1.46875m-1.8086 2.47657l.98048-.73438m10.30078.64063l4.82422 5.11328m-4.82422-5.11328l.78515-2.32422m17.5547 7.22656l-5.23048-4.6914m5.23047 4.6914l-.58594 2.38281m-.17187-3.0664l-.29688 1.1914"/><g clip-path="url(#U)"><path fill="none" stroke="#000" stroke-linecap="round" stroke-linejoin="round" stroke-miterlimit="10" stroke-width=".5" d="M145.76563 370.76953l-3.53125 6.07422"/></g><path fill="none" stroke="#000" stroke-linecap="round" stroke-linejoin="round" stroke-miterlimit="10" stroke-width=".5" d="M145.2539 371.65625l1.22266.04688m13.90625.39453l-6.13672 3.42187m5.2461-2.92578l1.02734.66406m8.53906-2.59375l3.14453 6.28516m-2.6875-5.36719l.71094-1m11.29297.6836l4.85156 5.08593m-4.85156-5.08594l.76953-2.32812m13.83985 1.54297l2.26562 6.65234m-2.26562-6.65234l1.67968-1.78516m14.33985 1.96875l-3.14453 6.28516m3.14453-6.28516l2.44922-.0586m9.34375 6.71485l-.10157-7.02344m.10157 7.02344l-2.15235 1.1836m2.13672-2.20313l-1.07422.58985m17.5664-1.65625l-6.42187-2.85157m6.42188 2.85156l.17187 2.44922m-1.10937-2.86328l.08594 1.22266m14.46875-2.3086l-7.02735.14844m7.02735-.14844l1.1953 2.14063m-2.21874-2.11719l.59766 1.07031m13.72656-.73828l-7.0039-.5625m7.0039.5625l.97656 2.25391m-1.99219-2.33594l.48438 1.125m13.85156-1.57031l-7.01172.49219m7.01172-.49219l1.30078 2.07813m-2.32031-2.00782l1.30078 2.08203m12.375-3.96484l-5.69531 4.11719m5.69531-4.11719l2.20313 1.07813m-3.03125-.48047l1.10156.53906m11.92578-2.13672l-3.46094 6.11719m3.46094-6.11719l2.45312.0625m-2.95703.82813l1.22656.03125m11.8086-1.2461l-1.89453 6.76563m1.89453-6.76563l2.39453-.52734m12.17188 1.16797l-4.39844 5.48046m4.39844-5.48046l2.41015.46093m-3.05078.33985l1.20703.22656m13.55078-.11328l-6 3.65625m5.125-3.125l1.0586.625m13.03906-1.29688l-5.8164 3.9375m5.8164-3.9375l2.17187 1.14844m-3.01562-.57812l1.08203.57421m13.375-.61328l-6.41016 2.875m6.41016-2.875L375.5 373.875m-2.8711-1.08594l.96876.75m12.6914-2.07422l-5.23437 4.6875m5.23437-4.6875l2.30469.84766m10.48438-1.32422l-4.1836 5.64063m4.1836-5.64063l2.42968.36328m-3.03906.45703l1.21484.1836m11.90235-1.45313l-2.5664 6.53906m2.5664-6.53906l2.4375-.28125m-2.8125 1.23047l1.21875-.14062m12.39453-.83985l-2.41797 6.59766m2.41797-6.59766l2.42969-.33594m-2.78125 1.29688l1.21484-.16797m12.1211-.89453l-1.75391 6.80469m1.7539-6.80469l2.38672-.57422m-2.64062 1.5625l2.38672-.57031m13.32421 1.1875l-6.03906 3.59375m5.16016-3.07031l1.05078.63671m12.3711 3.33594l-4.4922-5.40234m4.4922 5.40234l-.9297 2.27344"/><g clip-path="url(#V)"><path fill="none" stroke="#000" stroke-linecap="round" stroke-linejoin="round" stroke-miterlimit="10" stroke-width=".5" d="M142.71094 357.22266l2.57812 6.53906"/></g><g clip-path="url(#W)"><path fill="none" stroke="#000" stroke-linecap="round" stroke-linejoin="round" stroke-miterlimit="10" stroke-width=".5" d="M143.08594 358.17578l.79687-.9336"/></g><path fill="none" stroke="#000" stroke-linecap="round" stroke-linejoin="round" stroke-miterlimit="10" stroke-width=".5" d="M156.4375 357.08984l1.7539 6.8047m-1.49609-5.8125l.90235-.82813m13.5664-.23438l-1.07031 6.94531m1.07031-6.9453l2.3164-.8086m-2.47265 1.82031l1.16016-.40625m13.04297-.41016l-2.53125 6.5547m2.53125-6.5547l2.4375-.29296m8.61719.19921l1.98828 6.7422m-1.69922-5.75782l.8789-.85938m15.32032.4922l-4.35938 5.51171m3.72656-4.71094l1.20703.21875m14.0547 1.35547l-6.98438.75781m5.96875-.64453l.6875 1.01172m12.3789 1.97266l-4.45312-5.4375m4.45312 5.4375l-.94922 2.26562m.30079-3.05469l-.94532 2.26172m16.19532-4.21484l-7.02735.05078m7.02735-.05078l1.16797 2.15625m-2.19141-2.14844l.58203 1.07813m13.72266-.57422l-6.96094-.97266m6.96094.97266l.83984 2.30469m-1.85156-2.44922l.83984 2.3086m13.39453-3.58595l-6.77343 1.8711m6.77343-1.8711l1.6836 1.78125m-2.67188-1.5078l1.6875 1.78124m12.5-2.40234l-6.54297 2.5625m6.54297-2.5625l1.86328 1.59765m-2.8164-1.22265l1.86328 1.59375m11.78125-2.9961l-5.29688 4.6211m5.29688-4.6211l2.28906.875m-3.0625-.20312l1.14844.4375m12.58984-1.45703l-4.59765 5.3125m4.59765-5.3125l2.39453.54687m-3.0625.22656l1.19532.27344m12.79296-1.03906l-4.60937 5.30078m4.60937-5.30078l2.39063.55078m-3.0586.21875l1.19532.27735m13.64062.05859l-6.3125 3.08594m6.3125-3.08594l1.98438 1.4414m-2.90235-.99218l.9922.72265m13.37109-.86718l-6.57422 2.47656m6.57422-2.47656l1.84375 1.62109m11.52343-1.46875l-6.67968 2.17578m6.67968-2.17578l1.76953 1.70313m10.83204-2.94922l-5.25391 4.66406m5.2539-4.66406l2.30079.85546m-3.0625-.17578l1.14843.42579m12.63672-1.39844l-4.66797 5.25m4.66797-5.25l2.38672.58203m-3.0664.1836l1.1953.28906m13.19923-.63672l-5.46875 4.41406m5.46875-4.41406l2.2578.96484m-3.05468-.32031l1.1289.48047m12.47266-1.63672l-4.4453 5.4414m4.4453-5.4414l2.40625.47656m-3.05468.3125l1.20312.23828m12.91406-.89453l-4.7539 5.17578m4.7539-5.17578l2.375.61719m-3.0664.13281l2.375.61719m12.34765-.44531l-6.1875 3.32812m6.1875-3.32813l2.04297 1.36329m-2.9414-.87891l2.03906 1.36328m-2.9414-.8789l1.01952.68359m14.3125-1.17188l-6.61718 2.3711"/><g clip-path="url(#X)"><path fill="none" stroke="#000" stroke-linecap="round" stroke-linejoin="round" stroke-miterlimit="10" stroke-width=".5" d="M466.8711 359.3086l1.8125 1.65234"/></g><path fill="none" stroke="#000" stroke-linecap="round" stroke-linejoin="round" stroke-miterlimit="10" stroke-width=".5" d="M465.90625 359.65234l.90625.82813"/><g clip-path="url(#Y)"><path fill="none" stroke="#000" stroke-linecap="round" stroke-linejoin="round" stroke-miterlimit="10" stroke-width=".5" d="M145.02344 347.17969l-.01953-.19922-.0586-.19531-.09375-.17579-.46094-.375-.1914-.05859-.19922-.01953-.19922.01953-.1914.0586-.46094.375-.09375.17578-.0586.1953-.01953.19923.01953.19922.0586.1914.09375.17578.46094.375.1914.0586.19922.01953.19922-.01953.1914-.0586.46094-.375.09375-.17578.0586-.1914.01953-.19922"/></g><path fill="none" stroke="#000" stroke-linecap="round" stroke-linejoin="round" stroke-miterlimit="10" stroke-width=".5" d="M154.69922 344.83203l5.23047 4.6914m-4.46875-4.0078l.29687-1.19141m14.85938-.66016l.02734 7.02735m-.02734-7.02735l2.16015-1.16015m11.85157 1.22656l-1.3711 6.89453m1.3711-6.89453l2.35156-.70703m11.39844.82422l-2.23828 6.66015m1.91406-5.6914l1.21094-.19922m14.09375.41797l-5.57032 4.28515m4.76172-3.66015l1.11719.5039m13.0039-1.13281l-5.5625 4.29688m5.5625-4.29688l2.23438 1.00781m11.53125 2.51953l-6.46094-2.76171m6.46094 2.76171l.20703 2.44532m-1.14844-2.84766l.10157 1.22266m13.97265-.45704l-6.09765-3.48828m6.09765 3.48829l-.07812 2.45312m-.8086-2.96094l-.07812 2.45313m14.73437-3.4414l-7.0078-.4961m7.0078.4961l.9961 2.24218m-2.01563-2.3164l.9961 2.24218M280.5 346.12109l-6.69922 2.11329m6.69922-2.11329l1.75 1.72266m-2.72266-1.41406l1.75 1.71875m11.92578-3.17188l-5.47656 4.40235m5.47656-4.40235l2.25782.96875m-3.05469-.32812l1.1289.48437m12.45313-1.65625l-4.41406 5.46485m4.41406-5.46485l2.41016.46485m-3.05078.33203l1.20312.23047m13.125-.67579l-5.16016 4.76563m5.16016-4.76563l2.3164.8086m-3.0664-.11719l2.3164.8125m11.64063-1.6211l-4.9414 4.9961m4.9414-4.9961l2.35156.70704m-3.0703.01953l1.17577.35547m12.84766-1.09375l-4.92188 5.01953m4.92188-5.01953l2.35156.69531m-3.07031.03516l1.17969.34765m13.58593-.03515l-6.38671 2.9336m6.38671-2.9336l1.94922 1.48828m11.6836-.13672l-7.02344.23047m7.02344-.23047l1.22265 2.1289m11.19141-4.36327l-5.21875 4.70312m5.21875-4.70313l2.30469.83594m10.88672-.96875L394.5 349.66406m4.97266-4.96875l2.34375.71485m11.4414-.12891l-5.91406 3.79297m5.91406-3.79297l2.14063 1.20313m-3-.65235l1.07031.60156m13.05078-1.23828l-5.80469 3.96485m5.8047-3.96485l2.17187 1.14063m-3.01954-.5625l1.08985.57031m12.73047-1.57031l-5.1211 4.8086m5.1211-4.8086l2.32422.78906m-3.07032-.08984l2.32422.79296m12.16016-.9414l-5.96875 3.70703m5.96875-3.70703l2.1211 1.23047m-2.98829-.6914l2.1211 1.23437m-2.9922-.69532l1.0625.6172m14.35548-.91017l-6.69532 2.13672"/><g clip-path="url(#Z)"><path fill="none" stroke="#000" stroke-linecap="round" stroke-linejoin="round" stroke-miterlimit="10" stroke-width=".5" d="M466.91016 346.10938l1.7539 1.71484"/></g><path fill="none" stroke="#000" stroke-linecap="round" stroke-linejoin="round" stroke-miterlimit="10" stroke-width=".5" d="M465.9336 346.42188l1.7578 1.71484m-2.73046-1.40625l.8789.85937"/><g clip-path="url(#aa)"><path fill="none" stroke="#000" stroke-linecap="round" stroke-linejoin="round" stroke-miterlimit="10" stroke-width=".5" d="M147.14453 332.30078l-6.28906 3.125"/></g><path fill="none" stroke="#000" stroke-linecap="round" stroke-linejoin="round" stroke-miterlimit="10" stroke-width=".5" d="M158.29297 330.48828l-1.95703 6.75m1.67187-5.76953l1.20313-.25m14.40234.78906l-5.96875 3.71094m5.10156-3.17188l1.0625.6172m11.45313-2.5586l-2.63281 6.51562m2.6328-6.51562l2.44142-.2539m11.65625.6953l-4.19922 5.63282m4.19922-5.63281l2.42578.37109m12.30468 2.44531h-7.02734m6.0039 0l.57423 1.08203m13.65234-1.95312l-6.80469 1.74219m6.80469-1.7422l1.65625 1.8125m11.65234-.04296l-6.79297-1.79688m6.79297 1.79688l.5586 2.39062M239.61328 334.5l.5586 2.39063m-1.54688-2.65235l.28125 1.19531m15.02344-.72265l-6.82031-1.69922m6.8203 1.69922l.59376 2.38281m-1.58594-2.6289l.59375 2.3828m-1.58594-2.6289l.29688 1.1914m15.07031-2.04296l-6.95703.99219m6.95703-.9922l1.44922 1.98048m-2.46094-1.83594l1.44922 1.98047m-2.46094-1.83594l.72266.98828m14.41015-2.0664l-6.53906 2.5703m6.53906-2.5703l1.86329 1.59375m-2.81641-1.22266l1.86719 1.59765m11.90625-2.83984l-5.55078 4.3125m5.55078-4.3125l2.23828 1.0039m-3.04688-.375l1.1172.5m13.55468-.10937L300.45703 335m6.64844-2.27344l1.78906 1.67578m11.21485-2.34765l-6.02735 3.61719m6.02735-3.6172l2.10156 1.26563m-2.98047-.73828l1.05078.63281m12.88281-1.53125l-5.50781 4.35938m5.50781-4.35938l2.25.98438m-3.05078-.35156l2.25.98437m11.98828-1.46094l-5.75 4.04297m5.75-4.04297l2.1875 1.10938m-3.02734-.51953l2.1914 1.10937m12.12891-1.4336L354 335.6211m6.08203-3.51562l2.08203 1.29687m-2.96484-.78515l2.08203 1.29687m12.47656-.9336l-6.80078 1.76563m6.80078-1.76562l1.66016 1.8086m-2.65234-1.55079l1.66015 1.80469m11.91406-3.46485l-5.33593 4.57032m5.33593-4.57031l2.28516.89453m-3.0625-.23047l1.14063.44531m12.65625-1.41406l-4.7461 5.17969m4.7461-5.1797l2.375.61329m11.67578.33984l-6.21875 3.26953m6.21875-3.26953l2.02734 1.38281m11.5664-.67968l-6.77343 1.86719m6.77344-1.8672l1.6875 1.78126m-2.67188-1.51172l.83985.89062m13.55468-.6953l-6.96484.9375m6.96484-.9375l1.42969 1.99608m-2.4414-1.85937l.71484.9961m13.35937-2.04688l-6.46093 2.76562m6.46093-2.76562l1.91016 1.53515m-2.85156-1.1328l1.91406 1.53515m-2.85156-1.13281l.95312.76953m14.04297-1.96875l-6.0625 3.55469"/><g clip-path="url(#ab)"><path fill="none" stroke="#000" stroke-linecap="round" stroke-linejoin="round" stroke-miterlimit="10" stroke-width=".5" d="M466.59375 332.08594l2.08984 1.28515"/></g><g clip-path="url(#ac)"><path fill="none" stroke="#000" stroke-linecap="round" stroke-linejoin="round" stroke-miterlimit="10" stroke-width=".5" d="M465.71094 332.60156l2.08984 1.28906"/></g><path fill="none" stroke="#000" stroke-linecap="round" stroke-linejoin="round" stroke-miterlimit="10" stroke-width=".5" d="M464.82813 333.1211l2.08984 1.28515"/><g clip-path="url(#ad)"><path fill="none" stroke="#000" stroke-linecap="round" stroke-linejoin="round" stroke-miterlimit="10" stroke-width=".5" d="M146.65625 318.2461l-5.3125 4.60546"/></g><path fill="none" stroke="#000" stroke-linecap="round" stroke-linejoin="round" stroke-miterlimit="10" stroke-width=".5" d="M145.88281 318.91406l1.14453.4414m12.34766-1.65233l-4.1211 5.6914m3.52344-4.86328l1.21485.16797m13.07422-.6836l-4.875 5.0625m4.875-5.0625l2.35937.67579m9.54688-1.50391l-2.0547 6.71875m2.0547-6.71875l2.41015-.46875m11.67188.8086l-3.58985 6.04296m3.58985-6.04297l2.44922.11329m12.58203 2.8125l-7.02344.1875m7.02344-.1875l1.21094 2.13671m12.07421-1.55078l-6.96093-.98047m6.96093.98047l.83594 2.30469m12.25-1.46484l-6.5039-2.66407m6.5039 2.66407l.24219 2.4414m-1.1875-2.82812l.1211 1.22265m14.27343-1.22656l-6.76953-1.88281m6.76953 1.88281l.53125 2.39453m-1.51563-2.66797l.52735 2.39454m13.84375-3.6797l-6.91797 1.23438m6.91797-1.23437l1.51562 1.92969m-2.51953-1.75l1.51563 1.92968m12.30078-3.39062l-5.91016 3.80078m5.91016-3.80078l2.14062 1.19922m-3-.64454l2.14063 1.19922m11.26953-2.60156l-4.38281 5.49219m4.38281-5.49219l2.41406.45313m-3.05078.34765l2.41406.45313m11.85157-.97266l-5.00782 4.92969m5.00782-4.92969l2.33984.73828m-3.07031-.01953l1.17187.36719m13.8711 1.67969l-7.00391-.60157m7.0039.60157l.96094 2.2578m-1.98046-2.34374l.48046 1.1289m13.51172-2.8789l-6.32031 3.07031m6.32031-3.07031l1.98438 1.44922m-2.90235-1l.9922.72265m13.1289-1.38671l-6.09375 3.5m6.09375-3.5l2.07812 1.30468m-2.96484-.79297l2.07812 1.3047m12.16797-1.73438l-6.1836 3.33984m6.1836-3.33984l2.04297 1.35937m-2.9414-.875l2.04296 1.35938m12.25-1.6875l-6.34375 3.02734m6.34375-3.02734l1.97266 1.45703m-2.89453-1.01563l1.97265 1.45703m11.46485-2.97656l-4.74219 5.1836m4.74219-5.1836l2.375.60938m-3.0664.14453l2.3789.60937m11.25-1.66406l-3.98828 5.78516m3.98828-5.78516l2.4375.28125m11.6289.41406l-5.48828 4.39063m4.6875-3.75l1.12891.48437m13.65625 1.90625l-6.82813-1.66797m6.82813 1.66797l.60156 2.375m12.8125-3.1211l-7.02734-.17968m7.02734.17969l1.09375 2.19531m-2.11719-2.21875l1.09766 2.1914m-2.1211-2.21874l.55079 1.09765m14.42969-2.72656l-6.26563 3.1836m6.26563-3.1836l2.0078 1.41016m-2.91796-.94922l2.00781 1.41015m-2.92187-.9453l2.00781 1.41015m12.67578-3.01953l-5.35547 4.55078"/><g clip-path="url(#ae)"><path fill="none" stroke="#000" stroke-linecap="round" stroke-linejoin="round" stroke-miterlimit="10" stroke-width=".5" d="M466.23828 318.27344l2.28125.90234"/></g><path fill="none" stroke="#000" stroke-linecap="round" stroke-linejoin="round" stroke-miterlimit="10" stroke-width=".5" d="M465.46094 318.9336l2.28125.90624m-3.0625-.24218l2.28125.90234m-3.0586-.24219l1.14063.45313"/><path fill="#ff3030" fill-rule="evenodd" d="M348.98828 472.08594h7.6914V461.9414h-7.6914v10.14453"/><path fill="azure" fill-rule="evenodd" d="M350.82031 463.77344h.83203v5.73828h3.19532v.74219h-4.02735v-6.48047"/><path fill="#00f" fill-rule="evenodd" d="M450.375 463.21094h8.61719V453.0625H450.375v10.14844"/><path fill="azure" fill-rule="evenodd" d="M452.20703 454.89844h.83594v2.82031h3.28515v-2.82031h.83204v6.48047h-.83204v-2.91797h-3.28515v2.91797h-.83594v-6.48047"/><path fill="#00f" fill-rule="evenodd" d="M410.42969 432.14063h8.6211v-10.14454h-8.6211v10.14454"/><path fill="azure" fill-rule="evenodd" d="M412.26172 423.82813h.83594v2.82421h3.28515v-2.82421h.83203v6.48046h-.83203v-2.91796h-3.28515v2.91796h-.83594v-6.48046"/><path fill="#00f" fill-rule="evenodd" d="M148.5664 427.70313h8.6211v-10.14454h-8.6211v10.14454"/><path fill="azure" fill-rule="evenodd" d="M150.40234 419.39063h.83203v2.82421h3.28516v-2.82421h.83203v6.48046h-.83203v-2.91796h-3.28516v2.91796h-.83203v-6.48046"/><path fill="#00f" fill-rule="evenodd" d="M232.89453 423.26563h8.6211v-10.14844h-8.6211v10.14844"/><path fill="azure" fill-rule="evenodd" d="M234.73047 414.95313h.83203v2.8203h3.28516v-2.8203h.83593v6.48046h-.83593v-2.91796h-3.28516v2.91796h-.83203v-6.48046"/><path fill="#ff3030" fill-rule="evenodd" d="M189.20703 418.82813h7.6914v-10.14844h-7.6914v10.14844"/><path fill="azure" fill-rule="evenodd" d="M191.03906 410.51172h.83594v5.74219h3.1914v.73828h-4.02734v-6.48047"/><path fill="#00f" fill-rule="evenodd" d="M370.48438 401.07422h8.62109v-10.14844h-8.6211v10.14844"/><path fill="azure" fill-rule="evenodd" d="M372.3164 392.76172h.83594v2.82031h3.28516v-2.82031h.83203v6.47656h-.83203v-2.91406h-3.28516v2.91406h-.83593v-6.47656"/><path fill="#00f" fill-rule="evenodd" d="M201.82813 396.63281h8.61718v-10.14453h-8.61719v10.14453"/><path fill="azure" fill-rule="evenodd" d="M203.66016 388.32031h.83203v2.82422h3.28906v-2.82422h.83203v6.48047h-.83203v-2.91406h-3.28906v2.91406h-.83203v-6.48047"/><path fill="#ff3030" fill-rule="evenodd" d="M335.67188 387.75781h7.6953v-10.14453h-7.6953v10.14453"/><path fill="azure" fill-rule="evenodd" d="M337.5039 379.44531h.83594v5.73828h3.19141v.7422h-4.02734v-6.48048"/><path fill="#ff3030" fill-rule="evenodd" d="M202.52344 365.5664h7.6914v-10.14452h-7.6914v10.14453"/><path fill="azure" fill-rule="evenodd" d="M204.35547 357.2539h.83203v5.73829h3.19531v.74219h-4.02734v-6.48047"/><path fill="#ffffe0" fill-rule="evenodd" d="M392.97266 454.5664h22.17968v-10.1953h-22.17968v10.1953"/><path fill-rule="evenodd" d="M396.47266 446.20703h.5078V452.5h-.78515v-4.48828h-1.39062v-.55469l.5625-.0664.25-.0547.23047-.08984.20312-.14062.17578-.21094.14063-.29297.10547-.39453m4.8125 0l.23046.01563.21875.05859.20704.08984.1953.1211.1875.14844.17188.17578.30079.41796.24218.4961.17969.54297.11328.58203.03516.58984-.03516.59375-.11328.58203-.17969.5547-.24219.5039-.30078.42578-.17187.17969-.1875.15625-.19531.12109-.20704.09375-.21875.05469-.23046.01953-.23047-.01953-.21875-.05469-.20703-.09375-.19532-.1211-.18359-.15624-.17188-.1797-.30078-.42577-.24609-.5039-.17969-.5547-.10937-.58203-.03906-.59375h.83203l.03125.5625.08203.50781.125.44141.16015.375.19141.30078.21094.22266.22265.13672.22657.04687.22656-.04687.22265-.13672.21094-.22266.1914-.30078.16407-.375.125-.4414.08203-.50782.02735-.5625-.02735-.5625-.08203-.5-.125-.4336-.16406-.36718-.1914-.29297-.21094-.21484-.22266-.1289-.22656-.04688-.22657.04687-.22265.1289-.21094.21485-.1914.29297-.16016.36719-.125.4336-.08203.5-.03125.5625h-.83204l.03907-.58985.10937-.58203.17969-.54297.2461-.4961.30077-.41796.17188-.17579.1836-.14843.1953-.1211.20704-.08984.21875-.0586.23047-.01562m5.09375 0h.5078V452.5h-.78515v-4.48828h-1.39062v-.55469l.5586-.0664.2539-.0547.23047-.08984.20312-.14062.17188-.21094.14453-.29297.10547-.39453m2.8203 2.17188h.78907l.01953-.3125.0586-.28907.09765-.25.14063-.21875.1836-.17187.22265-.1289.26562-.08204.3086-.02734.23437.02344.22656.0625.20313.10156.17969.13672.14843.17578.11329.20312.0703.23828.02735.26172-.02344.26953-.0664.22657-.10938.1914-.15625.17188-.19922.16015-.24609.16797-.63672.38672-.53515.3125-.4375.32031-.34766.32422-.26172.33594-.1914.34766-.125.37109-.07032.39453-.01953.41797h4.21094v-.74219h-3.33203l.08203-.28125.11328-.23828.14844-.19922.1875-.1836.23046-.16796.28125-.17578.71485-.41797.41797-.20703.34375-.23047.28125-.25.21875-.26563.16406-.28125.11328-.28125.0625-.28515.01953-.28125-.04297-.38281-.11718-.34766-.19141-.3086-.25-.26562-.30078-.21094-.34766-.16015-.3789-.09766-.40625-.03125-.4375.03125-.39844.09766-.35156.16797-.3086.23437-.2461.30469-.1875.375-.11327.44531-.04297.51563"/><path fill="#ffffe0" fill-rule="evenodd" d="M332.86719 358.82813h22.17969v-10.19141h-22.1797v10.1914"/><path fill-rule="evenodd" d="M336.36719 350.46875h.50781v6.29688h-.78516v-4.4922h-1.39062v-.55468l.5625-.0625.25-.05469.23047-.08984.20312-.14063.17578-.21093.14063-.29297.10547-.39844m4.8125 0l.23047.01953.21875.05469.20703.08984.19531.1211.1875.15234.16797.17578.30469.41797.24218.49219.1797.54687.11327.57813.03516.59375-.03516.59375-.11328.58203-.17969.55469-.24218.5-.3047.42968-.16796.1797-.1875.15233-.19531.125-.20703.08985-.21875.0586-.23047.01952-.23047-.01953-.21875-.0586-.20703-.08983-.19531-.125-.1836-.15235-.17187-.17969-.30079-.42968-.24609-.5-.17969-.5547-.10937-.58202-.03906-.59375h.83203l.03125.5625.08203.5039.125.44532.16015.375.19141.30078.21094.21875.22265.13672.22657.04687.22656-.04687.22266-.13672.21093-.21875.19141-.30078.16016-.375.1289-.44532.08203-.5039.02735-.5625-.02735-.5625-.08203-.5-.1289-.4375-.16016-.36328-.1914-.29297-.21094-.21485-.22266-.1289-.22656-.04688-.22656.04688-.22266.1289-.21094.21485-.1914.29297-.16016.36328-.125.4375-.08203.5-.03125.5625h-.83203l.03906-.59375.10937-.57813.1797-.54687.24608-.49219.30079-.41797.17187-.17578.1836-.15234.1953-.1211.20704-.08984.21875-.05469.23047-.01953m5.09375 0h.50781v6.29688h-.78906v-4.4922h-1.38672v-.55468l.5586-.0625.2539-.05469.23047-.08984.20312-.14063.17188-.21093.14062-.29297.10938-.39844m2.82031 2.17578h.78906l.01953-.3164.0586-.28516.09765-.2539.14063-.21485.1836-.17188.22265-.1289.26562-.08203.3086-.02735.23437.01953.22656.06641.20313.10156.17969.13672.14844.17188.11328.20703.0703.23437.02735.26563-.02344.26953-.0664.22265-.10938.19141-.15625.17188-.19921.16406-.2461.16406-.63672.39063-.53515.3125-.4375.3164-.34766.32422-.26172.33594-.1914.35156-.125.3711-.07032.39062-.01953.42188h4.21094v-.7422h-3.33203l.08203-.28515.11328-.23437.14844-.20313.1875-.17969.23047-.17187.28125-.17578.71484-.41406.41797-.20704.34375-.23046.28125-.25.21875-.26954.16406-.27734.10938-.28516.0664-.28515.01953-.28125-.04296-.38281-.1211-.34766-.1875-.3086-.25-.26171-.30078-.21094-.34766-.16016-.3789-.09765-.40625-.03516-.4375.03516-.39844.09765-.35547.16797-.30469.23438-.24609.30078-.1875.375-.11328.44531-.04297.51953"/><path fill="#ffffe0" fill-rule="evenodd" d="M230.78516 335.08203h22.17968v-10.1914h-22.17968v10.1914"/><path fill-rule="evenodd" d="M234.28516 326.72266h.5078v6.29687h-.78515v-4.49219h-1.39062v-.55468l.5625-.06641.25-.05078.23047-.08985.20312-.14453.17188-.20703.14453-.29687.10547-.39453m4.8125 0l.23047.01953.21875.05469.20703.08984.1953.1211.1875.14843.16798.17578.30469.42188.24218.49218.17969.54688.11328.57812.03516.59375-.03516.58985-.11328.58594-.17969.55468-.24219.5-.30468.42969-.16797.17969-.1875.15234-.19531.125-.20703.08985-.21875.05859-.23047.01953-.23047-.01953-.21875-.0586-.20703-.08984-.19532-.125-.18359-.15234-.17188-.17969-.30078-.42969-.24609-.5-.17969-.55469-.10937-.58593-.03906-.58985h.83203l.03125.5625.08203.50391.125.44531.16015.3711.19141.30078.21094.22265.22265.13672.22657.04688.22656-.04688.22266-.13672.21093-.22265.1914-.30078.16017-.3711.1289-.44531.08203-.5039.02735-.5625-.02735-.5625-.08203-.5-.1289-.4375-.16016-.36329-.1914-.29297-.21095-.21484-.22265-.13281-.22656-.04297-.22657.04297-.22265.13281-.21094.21484-.1914.29297-.16016.36328-.125.4375-.08203.5-.03125.5625h-.83203l.03906-.59375.10937-.57812.17969-.54688.2461-.49218.30077-.42188.17188-.17578.1836-.14844.1953-.1211.20704-.08983.21875-.0547.23047-.01952m5.09375 0h.5078v6.29687h-.78905v-4.49219h-1.38672v-.55468l.5586-.06641.2539-.05078.23047-.08985.20312-.14453.17188-.20703.14062-.29687.10938-.39453m2.8203 2.17578h.78907l.01953-.3164.0586-.28517.09765-.2539.14063-.21485.1836-.17578.22265-.1289.26562-.07813.3086-.02734.23437.01953.22656.0625.20313.10156.17969.14063.14843.17187.11328.20703.07032.23438.02734.26562-.02344.26954-.0664.22265-.10938.1914-.15625.17188-.19922.16406-.24609.16407-.63672.39062-.53516.3125-.4375.3164-.34765.32423-.26563.33594-.1875.35156-.125.3711-.0703.39062-.01954.42187h4.21094v-.74219h-3.33203l.08203-.28515.11328-.23438.14844-.20312.1875-.17969.23047-.17188.28125-.17578.71484-.41796.41406-.20313.34766-.23047.28125-.2539.21875-.26563.16406-.27734.10938-.28516.0664-.28516.01953-.28125-.04297-.3828-.12109-.34767-.1875-.30859-.25-.26172-.30469-.21484-.34375-.15625-.3789-.09766-.40625-.03515-.4375.03515-.39844.09766-.35547.16406-.30469.23438-.2461.30468-.1875.375-.11327.44532-.04297.51953"/><path fill="#ffffe0" fill-rule="evenodd" d="M217.46875 377.47656h22.17969v-10.1914h-22.17969v10.1914"/><path fill-rule="evenodd" d="M220.96875 369.11719h.50781v6.29687h-.78515v-4.49219h-1.38672v-.55468l.5586-.0664.25-.05079.23046-.08984.20313-.14454.17578-.20703.14062-.29687.10547-.39453m4.8125 0l.23047.01953.21875.05469.20703.08984.19922.1211.1836.14843.17187.17578.30078.42188.24219.49219.17968.54687.11328.57813.03907.58984-.03906.59375-.11329.58594-.17968.55468-.2422.5-.30077.4297-.17188.17968-.1836.15234-.19921.125-.20703.08985-.21875.05859-.23047.01953-.22656-.01953-.21875-.0586-.21094-.08984-.19531-.125-.1836-.15234-.17187-.17969-.30078-.42969-.24219-.5-.17969-.55468-.11328-.58594-.03906-.59375h.83594l.02734.5664.08203.50391.125.4414.16406.375.19141.30079.20703.22265.22266.13672.22656.04688.22656-.04688.22266-.13671.21094-.22266.1914-.30078.16406-.375.125-.4414.08204-.50392.02734-.5664-.02734-.5586-.08203-.5-.125-.4375-.16407-.36328-.1914-.29296-.21094-.21485-.22266-.13281-.22656-.04297-.22656.04297-.22266.13281-.20703.21485-.1914.29296-.16407.36329-.125.4375-.08203.5-.02734.55859h-.83594l.03906-.58985.11328-.57812.17969-.54688.24219-.49218.30078-.42188.17187-.17578.1836-.14844.19531-.12109.21094-.08984.21875-.0547.22656-.01952m5.09375 0h.50781v6.29687h-.78515v-4.49219h-1.39063v-.55468l.5625-.0664.25-.05079.23047-.08984.20313-.14454.17578-.20703.14062-.29687.10547-.39453m2.82422 2.17578h.78516l.01953-.3164.05859-.28516.10156-.25391.14063-.21484.17969-.17579.22265-.1289.26563-.07813.30859-.02734.23828.01953.22266.0625.20312.10156.17969.14063.14844.17187.11328.20704.07422.23437.02344.26563-.02344.26953-.0625.22265-.11328.1914-.15235.17188-.20312.16407-.2461.16406-.6328.39062-.53907.3125-.4375.31641-.34766.32422-.26172.33594-.1914.35156-.125.3711-.07031.39062-.01954.42187h4.21094v-.74219h-3.33203l.08594-.28515.11328-.23438.14844-.20312.1875-.17969.23047-.17187.27734-.17579.71875-.41796.41406-.20313.34375-.23047.28125-.2539.21875-.26563.16406-.27734.11328-.28516.0625-.28515.01954-.28125-.03907-.38282-.12109-.34765-.1914-.3086-.25-.26172-.30079-.21484-.34765-.15625-.37891-.09766-.40625-.03515-.4336.03125-.39843.10156-.35547.16406-.30469.23438-.25.30469-.1836.375-.11718.4453-.03906.51954"/><path fill="#ffffe0" fill-rule="evenodd" d="M315.11328 449.4961h22.17969v-10.19141h-22.17969v10.1914"/><path fill-rule="evenodd" d="M318.61328 441.13672h.50781v6.29297h-.78515v-4.48828h-1.39063v-.5547l.5625-.0664.25-.05469.23047-.08984.20313-.14062.17578-.21094.14062-.29297.10547-.39453m4.8125 0l.23047.01953.21875.05469.20703.08984.19922.1211.1836.14843.17187.17578.30078.42188.24219.49219.17969.54687.11328.57813.03515.58984-.03515.59375-.11329.58594-.17968.55469-.24219.5-.30078.42968-.17188.17969-.18359.15234-.19922.1211-.20703.09375-.21875.0586-.23047.01952-.22656-.01953-.21875-.0586-.21094-.09374-.19531-.1211-.1836-.15234-.17187-.17969-.30078-.42969-.2461-.5-.17968-.55468-.10938-.58594-.03906-.59375h.83203l.03125.5625.08203.50781.125.4414.16406.375.1875.30079.21094.22266.22266.13671.22656.04688.22656-.04688.22266-.13671.21094-.22266.1914-.30078.16407-.375.125-.4414.08203-.50782.02734-.5625-.02734-.5586-.08203-.5-.125-.4375-.16407-.36718-.1914-.28906-.21094-.21485-.22266-.13281-.22656-.04297-.22656.04297-.22266.13281-.21094.21485-.1875.28906-.16406.36719-.125.4375-.08203.5-.03125.55859h-.83203l.03906-.58984.10938-.57813.17969-.54687.24609-.4922.30078-.42187.17188-.17578.18359-.14844.19531-.12109.21094-.08984.21875-.05469.22656-.01953m5.09375 0h.50781v6.29297h-.78515v-4.48828h-1.39063v-.5547l.5586-.0664.2539-.05469.23047-.08984.20313-.14062.17187-.21094.14453-.29297.10547-.39453m2.82031 2.17578h.78907l.01953-.3164.0586-.28516.10155-.2539.13672-.21485.1836-.17578.22265-.12891.26563-.07813.3086-.02734.23827.01953.22266.0625.20312.10156.1797.14063.14843.17188.11328.20703.07031.23437.02735.26563-.02344.26953-.0664.22265-.10938.19141-.15625.17188-.19922.16015-.2461.16797-.63671.39063-.53516.3125-.4375.3164-.34766.32422-.26171.33594-.19141.35156-.125.36719-.07031.39453-.01954.41797h4.21094v-.73828h-3.33203l.08203-.28516.11328-.23828.14844-.19922.1875-.17969.23047-.17187.28125-.17578.71484-.41797.41797-.20313.34375-.23047.28125-.2539.21875-.26563.16406-.27734.11329-.28516.0625-.28515.01953-.28125-.04297-.38282-.11719-.34765-.1914-.3086-.25-.26171-.30079-.21485-.34765-.15625-.3789-.09765-.40626-.03516-.4375.03125-.39844.10156-.35156.16406-.30469.23438-.25.30469-.1875.375-.11328.4453-.04297.51954"/></g></defs><use xlink:href="#af"/></svg>