<svg xmlns="http://www.w3.org/2000/svg" role="img" xmlns:xlink="http://www.w3.org/1999/xlink" viewBox="142.45 309.95 326.84 171.84"><defs><clipPath id="a"><path d="M144 311.67188h1v168.65625h-1zm0 0"/></clipPath><clipPath id="b"><path d="M144 311.67188h324v168.65625H144zm0 0"/></clipPath><clipPath id="c"><path d="M467 311.67188h1v168.65625h-1zm0 0"/></clipPath><clipPath id="d"><path d="M144 476h1v4.32813h-1zm0 0"/></clipPath><clipPath id="e"><path d="M155 476h4v4.32813h-4zm0 0"/></clipPath><clipPath id="f"><path d="M169 476h4v4.32813h-4zm0 0"/></clipPath><clipPath id="g"><path d="M181 477h6v3.32813h-6zm0 0"/></clipPath><clipPath id="h"><path d="M193 479h8v1.32813h-8zm0 0"/></clipPath><clipPath id="i"><path d="M209 476h3v4.32813h-3zm0 0"/></clipPath><clipPath id="j"><path d="M220 477h7v3.32813h-7zm0 0"/></clipPath><clipPath id="k"><path d="M233 479h8v1.32813h-8zm0 0"/></clipPath><clipPath id="l"><path d="M239 480h2v.32813h-2zm0 0"/></clipPath><clipPath id="m"><path d="M246 478h9v2.32813h-9zm0 0"/></clipPath><clipPath id="n"><path d="M252 479h3v1.32813h-3zm0 0"/></clipPath><clipPath id="o"><path d="M260 478h8v2.32813h-8zm0 0"/></clipPath><clipPath id="p"><path d="M265 478h3v2.32813h-3zm0 0"/></clipPath><clipPath id="q"><path d="M273 478h8v2.32813h-8zm0 0"/></clipPath><clipPath id="r"><path d="M280 478h3v2.32813h-3zm0 0"/></clipPath><clipPath id="s"><path d="M286 478h9v2.32813h-9zm0 0"/></clipPath><clipPath id="t"><path d="M293 478h3v2.32813h-3zm0 0"/></clipPath><clipPath id="u"><path d="M300 479h8v1.32813h-8zm0 0"/></clipPath><clipPath id="v"><path d="M307 479h2v1.32813h-2zm0 0"/></clipPath><clipPath id="w"><path d="M313 479h8v1.32813h-8zm0 0"/></clipPath><clipPath id="x"><path d="M319 480h2v.32813h-2zm0 0"/></clipPath><clipPath id="y"><path d="M326 479h9v1.32813h-9zm0 0"/></clipPath><clipPath id="z"><path d="M332 479h2v1.32813h-2zm0 0"/></clipPath><clipPath id="A"><path d="M341 477h6v3.32813h-6zm0 0"/></clipPath><clipPath id="B"><path d="M354 477h6v3.32813h-6zm0 0"/></clipPath><clipPath id="C"><path d="M366 479h9v1.32813h-9zm0 0"/></clipPath><clipPath id="D"><path d="M372 479h2v1.32813h-2zm0 0"/></clipPath><clipPath id="E"><path d="M379 479h9v1.32813h-9zm0 0"/></clipPath><clipPath id="F"><path d="M386 479h3v1.32813h-3zm0 0"/></clipPath><clipPath id="G"><path d="M393 477h8v3.32813h-8zm0 0"/></clipPath><clipPath id="H"><path d="M408 477h5v3.32813h-5zm0 0"/></clipPath><clipPath id="I"><path d="M420 478h7v2.32813h-7zm0 0"/></clipPath><clipPath id="J"><path d="M425 478h3v2.32813h-3zm0 0"/></clipPath><clipPath id="K"><path d="M433 478h8v2.32813h-8zm0 0"/></clipPath><clipPath id="L"><path d="M448 476h4v4.32813h-4zm0 0"/></clipPath><clipPath id="M"><path d="M461 477h5v3.32813h-5zm0 0"/></clipPath><clipPath id="N"><path d="M144 464h4v6h-4zm0 0"/></clipPath><clipPath id="O"><path d="M144 451h4v5h-4zm0 0"/></clipPath><clipPath id="P"><path d="M144 438h4v5h-4zm0 0"/></clipPath><clipPath id="Q"><path d="M144 425h4v4h-4zm0 0"/></clipPath><clipPath id="R"><path d="M144 412h4v4h-4zm0 0"/></clipPath><clipPath id="S"><path d="M144 398h4v5h-4zm0 0"/></clipPath><clipPath id="T"><path d="M144 384h3v6h-3zm0 0"/></clipPath><clipPath id="U"><path d="M144 370h3v7h-3zm0 0"/></clipPath><clipPath id="V"><path d="M144 357h2v7h-2zm0 0"/></clipPath><clipPath id="W"><path d="M144 345h2v4h-2zm0 0"/></clipPath><clipPath id="X"><path d="M466 346h2v4h-2zm0 0"/></clipPath><clipPath id="Y"><path d="M144 333h4v2h-4zm0 0"/></clipPath><clipPath id="Z"><path d="M466 333h2v3h-2zm0 0"/></clipPath><clipPath id="aa"><path d="M144 319h4v3h-4zm0 0"/></clipPath><clipPath id="ab"><path d="M466 318h2v3h-2zm0 0"/></clipPath><clipPath id="ac"><path d="M465 319h3v3h-3zm0 0"/></clipPath><g id="ad" clip-path="url(#clip1)"><path fill="#fff" fill-opacity="0" fill-rule="evenodd" d="M0 0h1000v1000H0zm0 0"/><path fill="#d3d3d3" fill-opacity="0" fill-rule="evenodd" d="M162.15234 355.86719l-.23437.29297.0586.23437.11718.17188.17578.23437.29297.34766.11328.0586.11719-.17188.0586-.23438.17577-.17578.46485-.17578h.69922l.23437.29297.28906.8164.0586.17579.17578.23046.35156.23438.69922.69922.17188.17578.23437.34765.23438.41016.28906.58203.41015.46485.23047.23437.23438.17578.11719.23047.17578.29297.17187 1.16406v.23438l.0586.28906.05859.11719.11719.11719.34765.41015.11719.17188.17578.17578.17578.23437.11719.17188.17188.35156.05859.23438.23437.40625.23438-.0586-.17578.17578-.0586.92969h-.58203l-.23437-.11328-.34766.11328-.11719.11719-.05859.29297-.0586.17578-.11718.17187-.46484.29297-.0586.23438-.0586.11328v.64453l.0586.17187v.41016l.0586.0586v.40624l.05859.40625.11719.17579.05859.05859.23047.64062-.0586.29297v.69922l-.05859.58203v.23438l-.0586.23047-.05468.35156v1.92187l.05469.1172h.42578l-.36719.11718-.02344.35156.89063 1.16797 1.74219.53906 1.33984.35938v.53906l.08984.8086.53516.71484 1.51953.26953.89063-.08594.08984 1.16406.53516.1797 1.16015-.1797 2.05469-.98437 1.16016-.36328 1.8789-.17578 1.69531-.1797-.17968.71876-1.51563.08594-1.25.08984-.80469.26953-1.07421.8086.26953.71875.53515.89843-.17968.625-.26563.8086.26563 1.07812.625.89844.80468.17969 1.25-.1797-.26562.72267.09766.5039.05468.29297v.17188l.0586.29296v.40625l.17578.1172.35156.11718h.40625l.29297-.17578.11328-.11719.0586-.11719.11718-.23047.0586-.17578.35156-.46484.23047-.17578.17578-.0586.17578.0586.0586.17578.11718.98828.05469.46875.0586.17188.11718.23437.17578.0586.8164.05859h.28907l.11719.23437.05859.40625.0586.35156v1.10547l.11718.29297.11719.34766.28906.69922.17578.35156.58203.7539.35157.17579.17187.0586.46875.23437.64063.46484.34765.23438.29297.17578.29297.05468.23047.0625.8164.34766.29297.17578.11328.17188.35157.35156.11719.17578.52343.64063v.28906l.0586.35156v.34766l.05859.35156.0586.28906.11718.0586.17188.05859h.17578l.58203.23437.17578.1172.17578.28905.17578.23438.11328.23437.29297.23047.11719.11719v.41016l.0586.05468.28906.23438.23437.11719.0586.11718.11718.17188.0586.11719.23047.23437.05859.17578.23437.0586.1172.05859-.1172.11328-.05859.11719v.11719l-.11719.29296-.11719.28907v.58203l.17579.11719.11718.05859.0586.11719.11719.11719.11328.05859.17578.34765.0586.35157.05858.40625v.17578l-.05859.17578-.11719.69922v.17187l.1172.17579.29296.29296h.40625l.17578.1172.11719.17187.11719.29296v.23438h-.52735l-.23047-.23438h-.23437l-.17578.0586-.0586.69922.0586.34765.11719.17579.17578.41015.11718.23047.28907.46875.17578.05469h.52344l.23437.0586.75781.64062.0586.29296v.23438l.05859.0586.23047.34765v.35156l-.11719.17188v.29297l.29297.28906.29297.17578.17187.0586.29297.17577.29297.1172.58203.40624.28906.23438.29297.17578.21875.16015.01563.01172.23047.17579.64062.52343.17578.23438.1172.17578.17577.17578.11328.17188v.64062l.1172.17578.46874.11719.58203.11719.23438.05859.23047.11328.29297.11719.11328.0586.58593.35156.28907.17187.17578.0625.17578.05469.17578.0586.69922.35155.28906.17579.23438.05468.28906.17578.23437.1172.64063.40624.29297.11719.17187.0586.23438.05859.41015.05859.23047.0586.23438.11718.0586.17188-.41017.17578.46875.0586.0586.29296.11328.23438.17578.05468.23438.0586.17578.05859.40625.11719.64062.23437.11719.17188.0586.23437v.17578l-.0586.1172-.0586.40624.23438.23438.11719.05859.34766.11719.64062.23047.17578.11718.28906.1172.17578.17577.23438.46485.58203 1.10546.17578.17579.34766.17578.17578.11719.35156.11718 1.04688.52344.23437.0586.46485.11327.29297.0586.46484.17578.75781.58203.23438.23438.34765.46484.17578.17578.28907.23438.8164.69921.29297.17579.28906.28906.29297.17578.29297.28906.69531.64063.17578.17578.29297.23437.28907.23438.46875.28906.64062.58203.34766.23438.23437.29297.34766.34765.35156.46485.9336.99218.34765.40625.11719.17579.23437.05859.11328.11719.64454.17578.23047.11328.23437.0586.29297.17577.23047.1172.9336.69921.40624.40625.23438.17578.40625.17578.23437.11719.8164.34766.34766.23437.23438.11719.29297.28906.23047.11719.7578.35156.35157.17188.23047.05859.29297.11719.23437.0586.8711.17577h.8164l.46875.23047.17188.0586.875.69921.46484.1172.29297.05858.17578.0586.23047.0586.46875.05859.34766.05859.35156.0586.40625.05859h.29297l.17187.0586v.23046l.17578.17578h.29297l.34766.0586.35156.05859.69922.11719h.64063l.46484-.23438.29297-.17578.17187-.11719.41016-.17187.28906-.17578.9336-.46485.46875-.29297.52343-.29296.46485-.17188.46484-.17578 1.05078-.46485.28906-.11718.41016-.11719.28906-.11719.52735-.17578 1.51562-.69922.58203-.34765.28907-.0586.29297-.0586.34765-.11718.875-.23047.35156-.11719h.11329l.23437-.05859.875-.23437.23438-.0586h.8125l.35156-.0586.8164-.11718.17188-.0586.35156-.05468.29297-.0586.23047-.05859.8164-.17578.17579-.0586h.34765l.23438-.05859.46484-.11718.75781-.17188.23438-.0586h.34765l.41016-.11718.28906-.0586 1.28516-.05859h.28906l.41016-.0586.23047-.05858h.17578l.875-.1172h.40625l.41015-.11718h.34766l.35156-.11328.8711-.0586h1.75l1.04687.28907.41016.11719.28906.11718.35156.11719.28907.11719 1.05078.17187.28906.0586h.29297l.29297.05859.17187.0586.41016.05859.17187.0586.1172.05858h.11718l.11719.0586.35156.0586h.11328l.41016.0664 1.92187.39453 1.92578.39453 1.51953.44922 1.69532.71875 2.14453.80469 1.60547-.71875 1.42968-.80469 1.16016-1.07813 1.25-.44921 3.03516-.71875 1.875-.35938 2.14453-1.34765 2.23437-1.25391 2.5-1.25781 1.69531-.44922 1.78516-.17969 1.16016-.26953.625.53906 1.33984-.26953.71485-.98828.98437-1.34375.44531-.17969.80469-.35937 1.875-.53907 1.78516-.44921 1.25-.26954 1.16015-.08984 1.69922-.08984 1.96094-.26954 1.25-.08984h.53906l.625-.08984h.89063l2.14453-.17969 2.41015-.17969 2.58985-.08984 1.69531.17969 1.60938.08984 1.42968.35938 1.16016.71875 1.875.98828 1.16015 1.52734.26563.71484.6289.08985.35548.89844.53515.53906.53516 1.52734 1.07422.35938h.53515l-.80469.53515.08985 1.70703.71484 2.69532.89063.80468.89453.98829.71484 1.2578 1.78516.53907 1.51953-.17969.35547 1.34375 1.60937-.80469.98047-.53906.26953.26953.31641-.21484.21875-.14453.80078.44922.44922-.35938h.35547l.53515-.26953.53907-.71875.53515-.26953.625-.98828 1.16016.44922.83984.3711 1.39454.61718 1.6953-.17969h1.60548l1.78515.08985.17969-1.70704.53516-1.34375.80468.26954.4922.84765.40233.40625-.08984.53906v.35938l.71485.44922.71093-.26953h1.42969l.35938.98828.4453 1.25781.71485 1.34375 1.25.6289 1.69531.62891.71485-.17969.17969-.53906.98046-.08984.44922.35937.08594 1.25782-.26563.6289-.53515.17969v.53906l.71484.98438.26563.53906.98437.98828.80078 1.07813-.26562.35937-.08985.89844-.625 2.33203-.35546 2.0664-.08985 1.79298-.17969.71875-.08984.53906v1.4375l-.98047 1.88281-.35937 1.70703-.53516.89844-.80469 1.16797-.26562.53906 2.05469 1.2539.08593.35938-.35546.53906-.08985-.17968v.80859l.08985 1.4375-.44532.71484-1.07422.09375-.26562.71485.53515.89844.8047.71875 1.16015.80859 1.33984.26953.44531.35938-.35546.44921-1.78907-.08984-1.25-.44922-.71484-.71875-.625-.08984-.17578 3.58984-.1875 1.3086h89.35937V311.70313h-55.26953v49.08203l.76172.125 3.28906.54296 2.02344 2.83594v2.7539l2.35156.33204 2.34766.33203h4.05078l-1.3789 4.16016-2.02344.70703-2.02344.70312-.54297.34375-2.59375 1.6172-.1875.11718-2.02344-2.07813-.73046-2.74218-2.67188-2.07813-1.375-3.5-.0664-.08203-1.95704-2.67188 2.75-1.41796v-49.08204H294.42187v91.41407l.1172.03125.1328.01172.07422.07421.10547.04688.08985.0586.08593.05859.08985.0586.29687.29687.0586.08984.03125.11719.02734.11719.01563.13671-.03125.1172-.0586.08983-.0586.08594-.04296.10547-.04688.10156-.02734.1211v.14453l.17578.26953.14844.14844.07422.08594.07422.07421.04296.10547.0625.08985.0586.08593.04297.10547.0586.08985.04687.10156.04296.10547.0586.08594.11719.17968.07421.07422.0625.08594.0586.08984.04297.10547.0586.08985.05858.08593.0625.08985.0586.08984.04297.10156.11719.17969.07421.07422.0586.08594.07422.07421.08984.0586.10547.04687h.14844l.1328-.01562.13282.01562.10156-.04687.07422-.07422.04688-.10156-.01563-.13281v-.14844l-.04687-.10547-.02735-.11719-.04687-.10156-.02735-.1211-.04296-.10156-.0625-.08984-.04297-.10156-.04297-.10547-.03125-.11719-.01563-.13281-.01171-.13672.08593-.0586.0586-.08593.12109-.03125.04297.10547.01562.1328v.1172l.0586.10156.0586.08984.08983.0586.14844.14843.0586.08985.04296.10547-.01171.10156.08593.0586.10547.04687.08594.0586.08984.05858.07422.07422-.11719.02735-.10546.04687-.08594.0586-.07422.07421-.0586.08985-.0625.08594-.02734.12109-.04687.10156-.04297.10547-.03125.11719-.01172.13281-.01563.13281v.14844l.02735.11719.04687.10547.04297.10156.0586.08984.07421.07422.08985.0586.07422.07421.08984.0586.0586.08984.04296.10547.04688.10156.11719.03125.1328.01563h.14845l.11718-.03125.10547.04297.04297.10547.04688.10156.02734.1211L299.5 410l.02734.11719.03125.1211.02735.11718.10547.04297.10156.04687.13281-.01562.14844.14844.0625.08593.07422.07422.07031.07422.08984.0625.10547.04297.10156.04297.1172.03125.13671.01562.11719-.03125.07422-.07422.02734-.11718-.01172-.13282-.03125-.12109-.02734-.11719.04297-.10547h.11719l.08984.0625.11719.02735h.14843l.13282.01562h.14843l.13282.01563.1328-.01563h.14845l.1328-.01562.13282-.01172.13672.01172.11719-.02735.13281-.01562.1914-.0586-.05859.17579-.01562.1328-.02735.1211-.01562.13281-.0586.08594-.1328.01563-.10548.04687-.10546.04297-.1172.03125-.11718.02735-.26563.03125h-.14843l-.13281.01562-.07422.07422.05859.08594.14844.14843.11719.1797.07421.0703.08985.0625.08984.0586.08594.0586.08984.05858.10156.04297.10547.0625.10547.04297.08594.0586.10547.04687.10156.04297.17969.11719.0586.08984-.04298.10156-.04687.10547.01562.13281.22266.22266.0586.08985.04296.10156.03125.1211.04297.10155.01563.13282.03125.11718.01171.13672.03125.11719.14844.14844.10156.04297.10547.04296.1172.03125.1328.01563.13672.01563h.11719l.11719-.03125.08984-.0586.04297-.10547.04688-.10156.04296-.10547.03125-.11719.01172-.1328v-.14845l-.01172-.1328-.01562-.13282-.03125-.11719-.04297-.10547-.04688-.10547-.04296-.10156-.04297-.10547-.01563-.13281.01563-.13281.02734-.11719.03125-.11719.02735-.1211.04687-.10155.08984-.0586.08594-.0625.07422-.07422.08984-.05859.22266-.22266.0586-.08593.07421-.07422.11719-.17969.0586-.08594v-.14844l-.07423-.07421-.10156-.04688-.10547-.04297-.10156-.04297-.0586-.08984-.04687-.10547-.02734-.11719.08984-.05859.11719-.03125.10156-.04297.17969-.11719.14844-.14843.01172-.13282-.01172-.10546-.08985-.0586-.1328.01563h-.14845l-.1328.01562-.13282-.01562-.1211-.03125-.08593-.0586-.07422-.07422-.0586-.08984-.0625-.08594-.11718-.17969-.0586-.08593.03125-.1211.08594-.05859.1211-.03125.05859-.08594v-.1211l-.03125-.11718-.0586-.08984-.05859-.08594-.04687-.10547-.02735-.11719-.01562-.1328.0586-.08985.07421-.07422.08984-.0586.1172-.17968.07421-.07422.0586-.08594.14843-.14844.1211-.03125.1328-.01562.13282.01562.07422.07422.04297.10547.01562.13281-.03125.1172-.11719.03124-.1328.01172-.14844.14844-.04297.10547-.04688.10156-.02734.1211-.03125.11718v.14844l.03125.11719.04297.10546.05859.08985.07422.07031.07422.07422.11719.03125.12109.02734.11719-.02734.1328-.01563h.1172l.08984.0586.07422.07422.04687.10546.0586.08594.10156.04688.13281.01562.10547.04297.08594.0586-.01172.10546-.07422.07422-.17969.11719-.05859.08984-.08984.0586-.07032.07422-.07421.07421-.0625.08985-.02735.11719-.01562.1328.01562.13282-.01562.13281v.14844l.01562.13281.02735.1172.03125.12108.07421.07422.08985.0586.08594.0586.08984.05858.11719.03125v.08594l-.10157.04688-.08984.0586-.26563.03124-.11718.02735h-.14844l-.10547.04296-.10156.04688-.0586.08984-.0625.23438-.01171.13281-.03125.1211-.01563.1328v.29298l-.01172.1328.01172.13673.01563.1328.1328.01563.13282.01172.1211.03125.08593.0586.07422.07421.04688.10547.04296.10157.01563.1328v.44532l-.01563.13281v.44532l.03125.26562.02735.11719.01562.13281.03125.11719.08594.21094.03125.26562v.14844l-.03125.11719-.02734.11718-.03125.1211-.02735.11719-.03125.11718-.03125.1211-.01171.1328-.01563.13282.08984.0586.1172-.03125.10155.01562.04688.10547-.03125.26562v.44141l-.04297.10547-.04688.10547-.04296.10156-.04297.10547-.0586.08594-.03125.12109-.04296.11719-.03125.11719-.01563.1328.01563.13282.05859.08984.10547.04688.08594.0586.05859.08593-.01172.13672-.03125.11719-.04297.10156v.44531l-.01562.13281v.14844l-.03125.11719-.04297.10547-.02735.11719-.04687.10546-.04297.10157-.03125.12109-.02734.11719-.03125.13281-.03125.11719-.02735.11719-.04297.10546-.03125.1172-.03125.12108-.01171.13282-.01563.13281v.29688l.02734.11718v.14844l.04688.39844.02734.11719.0586.08984.12109.03125h.14844l.13281-.01563.0586.08985v.11719l-.0586.08984-.08984.0586-.10157.04296-.10546.04688-.08985.05859-.08594.0586-.13671.01562-.1172-.03125-.1328-.01563-.10157.04688-.0625.08594-.01172.13671-.01562.13282-.03125.11719-.02735.11718-.01562.13281-.03125.1211v.29687l.01563.13282.03125.11718v.14844l.01171.13281v.14844l-.02734.11719-.04688.10156-.02734.1211-.03125.11718-.0586.08985-.07421.07421-.10156.04297-.10547.04688-.11719.02734-.1211.03125-.10156-.04687.0586-.08594.10547-.04688.02734-.11718.03125-.11719.02734-.1211.03125-.11718v-.14844l.01563-.13281-.03125-.11719-.04297-.10547-.10547.01563-.07422.07422-.10156.04296-.08984.0625-.07422.07422-.04297.10157-.01563.1328-.03125.1172L304.25 426l-.03125.11719-.02734.11719-.03125.12109-.02735.11719-.03125.11718-.04297.10547-.08984.0586h-.08984l-.1172-.03125-.03124-.08594.01562-.13672-.03125-.11719v-.14844l-.01171-.1328v-.14844l-.0625-.23438-.02735-.1211-.04297-.10156-.04687-.10546-.0586-.08594-.05859-.08985-.04297-.10546-.0625-.08594-.14844-.14844-.0703-.07422-.10548-.04687-.10547-.04297-.10156-.04297-.29687-.29688-.08985-.07421-.08594-.0586-.10546-.04297-.08985-.0625-.08594-.0586-.10546-.04296-.08985-.0586-.08594-.0625-.07421-.0703-.10547-.04688-.08594-.0586-.10547-.04296-.08984-.0625-.10156-.04297-.10547-.04297-.08594-.0586-.10547-.04687-.10547-.04297-.10156-.04687-.08985-.0586-.10156-.04297-.10547-.04296-.08984-.0625-.11719-.02735-.13281-.01562-.13281.01562H299.75l-.13281.01563-.11719-.03125-.08984-.0586-.07422-.07422-.08985-.05859-.10156-.04688h-.14844l-.12109-.02734-.10156-.04297-.07422-.07422-.11719-.17968-.08984-.0586-.10156-.04297-.08985-.0625-.10547-.04296-.08984-.0586-.08594-.0586-.10547-.04687-.0586-.08594-.05858-.08984-.04297-.10547-.04688-.10156-.07422-.07422-.08594-.0586-.07421-.07421-.08985-.0586-.22265-.22265-.04297-.10547-.03125-.26563.10547-.04296h.14453l.10547.04296.07421.07422.08985.0586.08594.0586.10546.04687.08985.05859.14844.14844.0703.07422.14845.14843.0625.08594.07421.07422.08594.0586.07422.07421.08985.0625.08984.0586.08594.05859.26953.17578.10156.04688.10547.04296.10156.04297.04688-.07421.05859-.08594.07422-.07422.07031-.07422.10547.04297.07422.07422.0586.08984.04296.10156.04688.10547.04296.10547.1211.02735.11719-.02735.07421-.08984.04297-.10547.0586-.08985.07422-.07421.10546-.04297.1172-.02735.1328.01172.08985.0586.14844.14843.05859.08985.04297.10547.04687.10156.04297.10547.04297.10156.10547.04688.10547.04296.13281.01563.08594-.0586.0586-.08984.07421-.07422.10547-.04297.11719.02735.10547.04687.10156.04297.10547.04297.10156.04688.17969.11718v.11719l-.01563.13281.01563.13281.01562.13672.0586.08594.10156.04688.1211.02734.11718.03125h.14844l.11719-.03125.05859-.08984.17969-.1172.05859-.08983.07422-.07422.0586-.08594.11718-.17969.17969-.11719.11719.03125.08984.0586.04297.07422-.01563.1328v.1172l.08985.05859h.14843l.13282-.01563.1328-.01171.26563-.03125.10547-.04297.11719-.03125.1211-.02735.07421-.07421.07031-.07422.0625-.08985-.01562-.10547-.04688-.10156-.10156-.04297-.10547-.01562-.11718.02734-.26563.03125h-.14844l-.07421-.07422-.08985-.0586-.11719-.03124-.11718-.02735-.13282-.01562h-.14843l-.13282.01563h-.29687l-.10547-.04688-.14844-.14844-.04297-.10156-.05859-.08984.22266-.22266.08593-.0586.10547-.04296.11719-.03125.13281-.01563.13281.01563.13672.01562.10157.04297.1328-.01172.08985-.0625.10156-.04297.0625-.08984-.04687-.10156-.08984-.0586-.1172-.03125-.10155-.04296-.0586-.08985-.0625-.08984v-.11719l.01563-.13281.10547-.04688.07421-.07031v-.1211l-.08984-.05859-.03125-.11719.08985-.05859.07421-.07422.04297-.10547.0586-.08984.04687-.10156.01563-.13281v-.14844l-.04688-.10547-.04297-.10156-.08984-.0586-.13281-.01562-.10157-.04297-.13671-.01563-.1172-.03125h-.4453l-.13282-.01562-.13281-.01172-.13281-.01563-.11719-.03125h-.14844l-.13281-.01562-.13281-.01172-.26563-.03125-.1211-.04297-.08593-.0586-.07422-.07421v-.14844l.01172-.13281.10547-.04688.10156-.04296.13281-.01563h.15235l.13281-.01562h.29297l.1211.03125.10156.04296.08984.0586.23438.0625.12109-.04688.08984-.05859.10156-.04297.13282-.01562.10547.04296.10156.04688.13281.01172.1211-.02735h.14453l.12109-.03125.11719-.02734.10547-.04687.07421-.07422.08594-.0586.14844-.14843.0586-.08594.04687-.10547.02734-.11719.01563-.10547-.10156-.04296-.08985-.0586-.11719-.03125-.10546-.04297-.08985-.0625-.07422-.08594-.07422-.07421-.10156-.04297-.10547-.04688-.10156-.04297-.0586-.08984-.04687-.10156-.08594-.21094-.0625-.08594-.05859-.08984-.07422-.07422-.08594-.0586h-.26953l-.11719.03126-.08984.05859-.10156.04297-.13281.01562-.10547-.01562-.02735-.11719-.0625-.08984-.11718-.03125-.10157-.04297-.14843-.14844-.03125-.11719-.01563-.10546.07422-.07422.17969-.1172.11719-.02733.11718-.03125.13672.01562.10156.04297.10547.04297.10156.04687.10547.04297.1172.03125.1328.01563.1172.02734.1328.01563.10547-.01563.08985-.0586-.07422-.07421-.10547-.04297-.07422-.07422-.07422-.08984-.14844-.14844-.08593-.0586-.08985-.05859-.07422-.07422-.08984-.0586-.10156-.04687-.1211-.02734-.10156-.04688-.10547-.04296-.11719-.03125-.10156-.04297-.1211-.03125h-.14843l-.11719.03125-.10546.04297-.08594.0625-.17969.11718-.08594.0586-.08984.0586-.10547.04687-.08594.05859-.10547.04297-.10156.04297-.10547.04687-.07422.07422-.05859.08985-.0586.08593-.04687.10547-.0586.08594-.07421.07422-.13281-.01172-.1172-.03125h-.11718l-.07422.07422-.08984.0586-.07422.07421-.08984.0586-.08594.05859-.10547.04687-.10156.04297-.13672.01563-.10156-.04297-.14844-.14844-.10547-.04688h-.08594l-.10547.04688-.10156.04297-.1211.03125-.11718-.03125-.07422-.07422v-.11719l.03125-.1211.07422-.0703.0586-.08985.07421-.07422.11719-.03125.10547-.04296h.29297l.13281-.01563.13672-.01563.10156-.04296.08985-.0586.10156-.04687.08984-.0586.13281-.01171.08985.05859.13281.01172.08984-.0586.08594-.05859.10547-.04297.08984-.0586.08594-.0625.08985-.05859.14843-.14843.0586-.08594.05859-.08985.10547-.04296.13281-.01563.11719.02735.1211.03125.05859-.0586.05859-.08984.03125-.26563.02734-.11719.10547.01172.13281.01563.10157-.04297.08984-.0586.0586-.08984.07421-.07422.0586-.08984.04687-.10156.01172-.13281-.01172-.13282-.04687-.10547-.14844-.14843-.0586-.08985-.05859-.08594-.04297-.10546v-.44532l.01563-.1328v-.14845l.01172-.1328-.0586-.0586-.08984.0586-.10156-.04298-.17969-.11719-.08594-.05859-.0625-.08984-.0586-.08985-.07421-.07421-.08594-.0586-.1211.03125-.10155.01172-.10547.04688-.08594.05859-.10547.04297-.14844.14844-.08984.05859-.08594.0586-.08984.0625-.10547.04296-.13281.01563v-.1211l.10547-.04297.11718-.03125.07422-.0703.04297-.10548v-.14844l-.02734-.11718-.14844-.14844-.13281-.01563h-.14844l-.11719.03125-.10547.04297-.10156.04297-.08984.0625-.11719.02735-.07422-.07422.01172-.13281-.04297-.10157-.04297-.10547-.08984-.05859-.11719.02734-.1211.03125-.11718.03125-.10156.04297-.1211.03125-.10156.04297-.10547.04297-.08984.0586-.10156.01562v-.11719l.01562-.13281-.0586-.08985-.07421.04297-.14844.14844-.0586.08985-.07421.07421-.04688.10547-.04296.10156-.07422.07422-.0586.08985-.07422.07422-.05859.08593-.07422.07422-.08984.0625-.07422.07031-.07422.07422-.10156.01563-.13281.01562-.10547-.04296v-.1211l.14843-.14844.04297-.10156.0586-.08984.04687-.10156.04297-.10547.0586-.08985.03124-.11719.04297-.10156.03125-.1211.02735-.11718.04687-.10547.04297-.10156.04297-.10547.07422-.07031.08984-.0625.08985-.0586.10156-.04296h.29687l.26563-.03125.10547-.04297-.07422-.07422-.11719-.03125-.10547-.04297-.08984-.0586-.10156-.04687-.08985-.0586-.10156-.04296-.10547-.04297-.08984-.0625-.08594-.0586-.10547-.04296-.10156-.04297-.1211-.03125-.11718-.03125-.10157-.04297L297.5 410.25l-.10156-.04297-.08985-.0586-.04296-.10546-.01563-.13281.10156-.04297.13281-.01563.13672.01563.13282-.01563.10156-.04297.0586-.08984.01562-.10547-.08985-.0586-.07421-.07421-.10157-.04297-.08984-.0586-.14844-.14843-.04297-.10547-.01562-.13281v-.29297l-.0586-.08985-.08984-.05859-.07422-.07422-.04297-.10547-.03125-.11718-.0586-.08985-.07421-.07422-.11719-.02734-.07422-.07422-.08984-.0586-.08984-.0625-.08594-.05859-.07422-.07421-.0586-.08594-.04687-.10547-.08594-.0586-.14843-.14843-.19532-.0586-.1328.01563-.10157.04297-.07422.07422-.04688.10156-.04296.10547-.0586.08984-.0586.08594-.29687.29687-.08984.0586h-.08594l-.0625-.08594-.04297-.10547.03125-.11719.0586-.08984.02734-.11719-.01172-.13281-.08984-.0625-.10547.04688-.11719.02734-.11719.03125-.26953.17578-.10156.04688-.11719.02734-.10546.04687-.08985.0586-.10156.04297-.0586-.08594-.04687-.10547.01563-.13281.04687-.10547.07031-.07422.07422-.07031.0586-.08985v-.14843l-.04297-.10547h-.23829l-.10156.04687-.03125.11719-.02734.11719-.03125.1211-.07422.04296-.13281.01563-.07422-.04688-.04297-.10156-.04297-.10547-.04687-.10156-.04297-.10547-.1211.03125-.10156.04297-.13281.01562-.11719.03125-.10547.04297-.08984.0586-.10156.04687-.1211.02734-.13281.01563-.10156-.04297-.0586-.08985-.04687-.10546-.04297-.10157-.04297-.10546v-.1172l.0586-.08984.08593-.05859.17969-.11719.10156-.04687.10547-.04297.10547-.0586.10156-.04296.08985-.0625.10156-.04297.10547-.0586.10156-.04687.08984-.0586.10547-.04296.10156-.04297.08985-.0625.10156-.04297.13672-.01563.11719.03125.10156.04297.1211.03125.10156.04297.10546.04688.10157.04296.10547.04297.10156.04688.10547.04297.10156.04297.10547.04687.08594.0586.10546.04296.1172.03125.10546.04297.10156.04688.08985.0586.10547.04296.10156.04297.10547.04687.11719.02735.10156.04687.1211.02735h.14843l.08594-.0586.01562-.10156.0586-.08984-.02735-.1172-.07422-.07421-.11719-.17969-.07421-.07422-.08985-.07421-.17969-.1172-.08593-.05859-.10547-.04296-.10156-.04688-.26954-.17578-.05859-.08985-.07422-.07421-.0586-.08985-.04296-.10156-.03125-.11719-.01563-.13672v-.5625l-.01171-.1328-.01563-.13282-.03125-.11719-.01562-.13281-.01172-.13281-.03125-.1211-.22266-.22265-.0586-.08594-.01562-.10547.03125-.11719.13281-.01562v-91.41406H172.9922v1.45312l-.0586.23438-.35156 1.05078-.17187.52343-.1172.34766-.17577.41016-.11719.17187-.23438.29297-.23046.0586h-.35157l-.11718.05859-.23047.40625v.29297l.11719.17578.23046.23047.1172.23437.64062.75781.29297.46485.17578.23437.23047.35156.23437.34766.64063.8164.17578.46485.17187.41016.11719.69531.17578.46875.11719 1.39844.0586.46484v.875l.11718 1.04688v4.78125l-.0586.46484-.35156 1.28125-.17578.52344-.11328.41015-.35156.9297L172.93359 336l-.23437.58203-.11719.17578-.17187.34766-.17578.40625-.35157.8164-.0586.29297-.11327.29297-.11719.28906-.0586.17579-.11718.875-.0586.40625-.05859.11718-.0586.17579-.05859.17187-.23047.52734-.11718.17188v.23437l-.11719.23438-.0586.17187-.17577.58594v.28906l-.0586.17579v.29296l-.0586.11329-.05859.52734v.17187l-.05468.23438v2.6211l-.17578.8164-.1172.17578-.17577.23438-.1172.17187-.11327.23438-.58594.93359-.23047.28906-.29297.46485-.17578.23437-.28906.35156-.35156.69922-.11328.23047-.17579.41016-.17578.23046-.40625.52735-.8164.69922-.29297.17187-.28906.23438-.17579.11719-.17578.17578-.52344.40625-.52734.17578-.17187.17578-.23438.05469-.64062.17578h-.75782m12.21094 31.02344l-1.07422.44921.35938.89454 1.25-.71485.44531-.53906-.98047-.08985"/><path fill="#d3d3d3" fill-opacity="0" fill-rule="evenodd" d="M201.50781 416.59766h-.89453l.44922.6289.98047.35938.80469-.08985.4453-.98828-.17577.08985-.71485-.35547-.89453.35547m154.6211 59.0703l-.0586-.52343v-.29297l.11328-.29297.0586-.23046.46875-.46875h.11328l.11719-.11329.11718-.05859h.17579l.23437-.0586h.34766l.23437.0586.11719.0586.23047.17187.0586.17578.11718.58203v.29297l-.11719.17578-.17187.28906-.17579.17579-.52734.52343-.23047.23438-.11719.0586h-.17578l-.11718-.0586-.40625-.29297-.17579-.11719-.11718-.0586-.0586-.11327-.05468-.1172m6.64062-10.95702l-.0586-.17188v-1.10937l.0586-.17188.17578-.0586.17188-.05858h.17578l.23437-.0586.1172.0586.05858.69921-.05859.17188-.11719.17578-.11718.0586-.23438.52343-.11328.0586h-.23438l-.05859-.1172m9.61328-14.39062l-.11719-.17578v-.69922l.29297-.875.1172-.17187.17577-.35156.11328-.23047.1172-.29297.35155-.75781.1172-.23047.17187-.23438h.17578l.11719-.0586h.64062l.11719.0586.23437.23438.17188.11328.35156.29297.11719.11718.11328.17579v.11328l.11719.05859.11718.11719v.69922l-.05859.17578v.23047l-.0586.17578-.34765 1.05078-.11719.23047-.11719.23437-.11718.0586-.23047.23437-.64063.28906h-.875l-.41015-.11718-.64063-.46485"/><path fill="none" stroke="#bebebe" stroke-linecap="round" stroke-linejoin="round" stroke-miterlimit="10" stroke-width=".5" d="M467.95703 311.69531H144.02734v168.625h323.9297v-168.625"/><g clip-path="url(#a)"><path fill="#fff" fill-opacity="0" fill-rule="evenodd" d="M144 475.89063v4.4375h.0039H144V311.67188h.0039H144v164.21875"/></g><g clip-path="url(#b)"><path fill="#fff" fill-opacity="0" fill-rule="evenodd" d="M144.0039 480.32813V311.67188h31.0625V432.0625l-4.4375 3.35547-.48437.52734-3.95312 1.95313-2.29688 2.48437-2.14062 2.75781-1.65235 1.6797-1.27344 4.4414-.89062 4.4375 1.16797 4.4375-.46094 4.4375 3.10938 3.03515 4.4375-.41406 4.4375-.53906 4.4375.15625 4.4414.26563 4.4375-.19532 4.4375-.16797 2.79297-2.14062-2.65234-4.4375-.14063-.04688-4.4375-2.41796-2.66797 2.46484-1.76953.64453-1.33594-.64453.4375-4.4375.1172-4.4375.78124-1.82422 2.05078-2.61719 2.38672-1.5625 3.79688-2.875-.35547-4.4375-3.4414-2.6875-4.4375 1.10547-4.44141-2.30078V311.67187h26.6328v90.94141l-2.23046 2.26172 2.23047 3.01563 4.4375-1.40625 1.65625-1.60938-1.65625-2.0586-4.4375-.20312v-90.9414h13.3164v97.89062l-4.4414.82813-3.39844 3.36328 2.0586 4.4375 1.33984 1.23828 3.40625-1.23828 1.03516-.05079 4.10546-4.38671-4.10547-4.19141v-97.89063h22.19141v90.17188l-3.03125 3.03125.16406 4.4414 2.8672 3.83594 4.4375-2.24218 3.94921 2.84375-3.94922.91796-4.4375-.46484-4.4414 3.0664-1.6211.91798-2.8164.4414-4.39844 3.9961.58984 4.4414-.6289 1.4375-2.47266 3-1.57031 4.4375-.39453.19531-.76563-.1953-3.67188-.97266-4.4414.22656-1.54297.7461-2.89453 1.2539-4.4375.78906-4.4375 1.4375-1.0039.95703 1.0039 3.96094.08984.47656 4.34766 4.38672 4.4375-.1914.3711.24609 2.0625 4.4375-2.4336 1.50781-2.85156 2.92969-.84375 4.4375 2.16015 4.4414 1.53516.53907 2.22656-.53906 2.21094-.57813 4.4414-2.28516 2.36329-1.57812 2.07422-1.02344 4.32421-3.41406.11328-.26172.53516.26172 3.90234.8086 1.66797-.8086-1.66797-2.2461-1.37109-2.1914-3.0664-2.54297-.64844-1.89453.64844-1.23438 2.89453-3.20703 1.01172-4.4375.53125-.28906 2.91406-4.14844-2.91406-3.01953-1.96875-1.41797 1.96875-.95703 4.4375-.05078 2.59765 1.00781 1.84375 1.7461 4.4375 1.89843 4.4375-1.33593 2.39063-2.3086 2.04687-3.23828 4.4375.17969 4.4414.66797 3.35157 2.39062 1.08594 1.48438.77734 2.95312.88281 4.4375 2.77735 3.1289 4.4375.91407L276 440.38281l1.15234-.59375 4.4375-1.39453 2.58985-2.44922 1.84765-.34375 4.05079-4.09375.38671-4.40625.03516-.03125 1.32813-4.4414-1.36329-1.33594-4.4375-1.75-4.4375-.73438-4.4375-.17187-4.4414-.0039-4.4375.10546-4.02735 3.89063-.41015.48046-4.4375 1.88672-4.4414-.77343-.98048-1.59375.98047-3.51172 4.4414 1.89062 2.875-2.8164 1.23048-4.4375.33203-4.17579.13281-.26171-.13281-.22657-2.41406-4.21484-2.02344-1.50781-4.4414.83984-.67188.66797-3.76563 3.22266-1.21094 1.21875-3.22656 3.92578-2.79687-3.92578-1.5-4.44141-.14063-.14063-4.4375-2.89062v-90.17188h13.3125v39.66797l-.1836.27735.1836.36719.25781-.3672-.2578-.27734v-39.66796h62.13671v139.3828l-4.4375.04688-3.27344 2.59766-1.16406 1.07422-4.4375 1.78906-2.09375 1.57422 2.09375 1.33203 4.4375 2.3789 4.4375.41798 4.4375-.25 4.4414-1.02735 3.76173-2.85156-.81641-4.4375-2.94531-2.03516-4.44141-.60937V311.67188h22.1914v136.08984l-2.9414 1.5-1.4961.48047-4.4375 2.30469-1.0664 1.65234-.82422 4.4375 1.89063.82812 4.4375 1.76172 3.58593-2.58984.85157-1.09766 4.4414-2.72656.79688-.61328.17187-4.4375-.96875-.32031-4.4414-1.1797V311.67189H463.5625v140.72265l-1 1.30469-3.4375 1.7461-4.4414.5625-2.39844 2.1289-2.03907 1.94922-3.26562 2.48828 3.26562 3.49219 4.4375.30859 4.44141-.88281v6.39062l-3.17578 4.00781 3.17578 2.55079 3.05078-2.55079-3.05078-4.0078v-6.39063l2.70313-2.91797-.00782-4.4375 1.74219-3.4336 1.1211-1.0039-1.1211-1.30469V311.67188h4.4336v168.65625H144.0039"/></g><path fill="#50fcfc" fill-rule="evenodd" d="M159.10547 458.13672l-1.16797-4.4375.89063-4.4375 1.27343-4.4414 1.65235-1.6797 2.14062-2.7578 2.29688-2.48438 3.95312-1.95313.48438-.52734 4.4375-3.35547v6.16797l-4.4375.02344-3.14063 2.1289-1.29687.83594-3.14063 3.60156-1.29687 3.72266-.32032.71875-1.95703 4.4375 2.27735 4 2.72656.4375-2.72656 1.21094-.9375 3.22656.9375.91406 4.05078-.91406.38672-1.27735 1.5-3.16015 2.9375-1.35938 1.76953-3.07812 2.4961-4.4375.17187-.07031 3.21875-4.3711 1.22265-3.16406 1.9375-1.27344-1.9375-1.29297-4.4414-.85937v-6.16797l4.4414 2.30078 4.4375-1.10547 3.4414 2.6875.35548 4.4375-3.79688 2.875-2.38672 1.5625-2.05078 2.61719-.78125 1.82422-.11719 4.4375-.4375 4.4375 1.33594.64453 1.76953-.64453 2.66797-2.46485 4.4375 2.41797.14063.04688 2.65234 4.4375-2.79297 2.14062-4.4375.16797-4.4375.19531-4.4414-.26562-4.4375-.15625-4.4375.53906-4.4375.41406-3.10938-3.03515.46094-4.4375"/><path fill="#00e8fc" fill-rule="evenodd" d="M161.7539 457.69922l-2.27734-4 1.95703-4.4375.32032-.71875 1.29687-3.72266 3.14063-3.60156 1.29687-.83594 3.14063-2.1289v5.33203l-3.13282 1.23437-1.30468 1.16406-.83985 3.27735.83985 3.1875 1.23828-3.1875 3.19922-3.33985 4.4375-.66796.3203-.4336-.3203-.60937-4.4375-.625v-5.33203l4.4375-.02344 4.4414.85937 1.9375 1.29297-1.9375 1.27344-1.22265 3.16406-3.21875 4.3711-.17188.0703-2.4961 4.4375-1.76952 3.07813-2.9375 1.35938-1.5 3.16015-.38672 1.27735-4.05078.91406-.9375-.91406.9375-3.22656 2.72656-1.21094-2.72656-.4375"/><path fill="#00d4fc" fill-rule="evenodd" d="M166.1914 452.44922l-.83984-3.1875.83985-3.27735 1.30468-1.16406 3.13282-1.23437 4.4375.625.3203.60937-.3203.4336-4.4375.66796-3.19922 3.33985-1.23828 3.1875"/><path fill="#50fcfc" fill-rule="evenodd" d="M197.26172 444.34375l-1.0039-3.96094 1.0039-.95703 4.4375-1.4375 4.4375-.78906 2.89453-1.2539 1.54297-.7461v4.29297l-1.51953.89062-2.41016 4.4375 3.92969 2.80078 1.53125 1.64063 2.14844 4.4375-3.6797 3.73047-.90624.70703.90625 1.21875 4.4414-.5625 1.23047-.65625.50782-4.4375 2.69922-2.54688.6289-1.89062-.6289-1.22656-3.20313-3.21485-1.23438-1.39062-2.95703-3.04688-1.48437-.89062v-4.29297l4.4414-.22656 3.67188.97265.76563.19531.39453-.1953 1.5703-4.4375 2.47267-3 .6289-1.4375-.58984-4.44141 4.39844-3.9961 2.8164-.4414 1.6211-.91797 4.4414-3.0664 4.4375.46483 3.94922-.91796-3.94922-2.84375-4.4375 2.24218-2.86719-3.83593-.16406-4.44141 3.03125-3.03125v2.11328l-.91797.91797.6914 4.4414.22657.30079.52734-.30078.83594-4.44141-1.36328-.91797v-2.11328l4.4375 2.89063.14063.14062 1.5 4.4414 2.79687 3.92579v2.05078l-4.4375.76562-4.4375.82032-1.64453 1.3125-2.79688 1.72656-4.4375.29297-2.66015 2.41797.65234 4.4414 2.00781 1.83594 4.4375-.13281 4.44141 2.09375.97656.64062 3.46094 2.45703 3.91797-2.45703.51953-.28906 3.71875-4.14844.30078-4.4414-1.60156-4.4375-2.41797-2.89844v-2.05078l3.22656-3.92578 1.21094-1.21875v7.78515l-.61719 2.3086.6172 1.90234 4.03515-1.90234-4.03516-2.3086v-7.78515l3.76563-3.22266.67187-.66797 4.4414-.83984v2.42969l-4.4414 1.35937-2.32812 2.16016-1.19532 4.4375 3.52344 3.125 3.91406 1.3125.52735.3203.32812-.3203 2.7539-4.4375.13673-4.4375-3.21875-3.51954v-2.42968l2.02344 1.50781 2.41406 4.21484.13281.22657-.13281.26171-.33203 4.17579-1.23047 4.4375-2.875 2.8164-4.4414-1.89062-.98048 3.51172.98047 1.59375 4.4414.77343 4.4375-1.88671.41016-.48047 4.02735-3.89063v.82422l-3.17578 3.0664-1.26172 1.47657-3.8789 2.96484 3.8789 3.50781.58203.9297 2.01172 4.4375 1.58594 4.4375.2578.29296 4.4375 1.03125 1.07813-1.32422 3.36328-1.73437 4.08594-2.70313.35156-.10937 4.4375-.83594 3.45704-3.49219.80468-4.4375-2.46094-4.4414-1.80078-1.00782-4.4375-1.71875-4.4375.23829-4.4414-.31641-4.4375-.26172v-.82422l4.4375-.10547 4.4414.0039 4.4375.17188 4.4375.73438 4.4375 1.75 1.36329 1.33594-1.32813 4.4414-.03516.03125-.38671 4.40625-4.05079 4.09375-1.84765.34375-2.58985 2.44922-4.4375 1.39453-1.15234.59375-3.28906 4.04297-4.4375-.91406-2.77735-3.1289-.8828-4.4375-.77735-2.95313-1.08594-1.48438-3.35156-2.39062-4.4414-.66797-4.4375-.17969-2.04688 3.23828-2.39063 2.3086-4.4375 1.33593-4.4375-1.89843-1.84375-1.7461-2.59766-1.00781-4.4375.05078-1.96875.95703 1.96875 1.41797v2.4414l-1.12109.57813 1.1211.79688.55859-.79688-.5586-.57812v-2.4414l2.91407 3.01952-2.91406 4.14844-.53125.28906-1.01172 4.4375-2.89453 3.20703-.64844 1.23438.64844 1.89453 3.0664 2.54297 1.3711 2.1914 1.66796 2.2461-1.66797.8086-3.90234-.8086-.53516-.26172-.11328.26172-4.32422 3.41406-2.07421 1.02344-2.36328 1.57812-4.44141 2.28516-2.21094.57813-2.22656.53906-1.53516-.53906-2.16015-4.44141.84375-4.4375 2.85156-2.92969 2.4336-1.50781-2.0625-4.4375-.3711-.2461-4.4375.19141-4.34766-4.38672-.08984-.47656m4.4375-36.45313l-2.23047-3.01562 2.23047-2.26172 4.4375.20313 1.65625 2.05859-1.65625 1.60938-4.4375 1.40625"/><path fill="#00e8fc" fill-rule="evenodd" d="M210.57422 447.6211l-3.92969-2.80079 2.41016-4.4375 1.51953-.89062 1.48437.89062 2.95703 3.04688 1.23438 1.39062 3.20313 3.21485.6289 1.22656-.6289 1.89062-2.69922 2.54688-.50782 4.4375-1.23047.65625-4.4414.5625-.90625-1.21875.90625-.70703 3.67969-3.73047-2.14844-4.4375-1.53125-1.64063"/><path fill="#50fcfc" fill-rule="evenodd" d="M209.23438 418.1914l-2.0586-4.4375 3.39844-3.36327 4.4414-.82813v.65625l-4.4414 1.8711-1.67969 1.66406 1.67969 2.5039 4.4414 1.19531 3.46094-3.69921-3.46094-3.53516v-.65625l4.10547 4.1914-4.10547 4.38673-1.03515.05078-3.40625 1.23828-1.33984-1.23828"/><path fill="#00e8fc" fill-rule="evenodd" d="M210.57422 416.25781l-1.67969-2.5039 1.67969-1.66407 4.4414-1.87109v1.09766l-3.74609 2.4375 3.7461 2.55078 2.38671-2.55078-2.38672-2.4375v-1.09766l3.46094 3.53516-3.46094 3.69921-4.4414-1.1953"/><path fill="#00d4fc" fill-rule="evenodd" d="M215.01563 416.30469l-3.7461-2.55078 3.7461-2.4375v1.09375l-2.0625 1.34375 2.0625 1.40234 1.3125-1.40234-1.3125-1.34375v-1.09375l2.38671 2.4375-2.38672 2.55078"/><path fill="#00c4fc" fill-rule="evenodd" d="M215.01563 415.15625l-2.0625-1.40234 2.0625-1.34375v1.09765l-.37891.2461.3789.2578.23829-.2578-.23828-.2461v-1.09765l1.3125 1.34375-1.3125 1.40234"/><path fill="#00b8fc" fill-rule="evenodd" d="M215.01563 414.01172l-.37891-.25781.3789-.2461.23829.2461-.23828.2578"/><path fill="#00e8fc" fill-rule="evenodd" d="M226.32031 427.07031l-.65234-4.4414 2.66016-2.41797 4.4375-.29297 2.79687-1.72656 1.64453-1.3125 4.4375-.82032 4.4375-.76562v2.79297l-1.45703.10547-2.98047.22265-4.4375.86719-4.04687 3.34766.8164 4.4414 3.23047 1.98047 3.76172 2.45703.67578.48047.76563-.48047 3.67187-2.03125 2.16016-2.40625.15625-4.4414-2.22656-4.4375-.08985-.10547v-2.79297L248.5 418.1914l1.60156 4.4375-.30078 4.4414-3.71875 4.14844-.51953.28906-3.91797 2.45703-3.46094-2.45703-.97656-.64062-4.4414-2.09375-4.4375.13281-2.00782-1.83594m2.00781 9.67188l-1.12109-.79688 1.1211-.57812.55859.57812-.5586.79688"/><path fill="#00d4fc" fill-rule="evenodd" d="M233.97656 427.07031l-.8164-4.4414 4.04687-3.34766v1.54688l-2.17969 1.80078 1.90625 4.4414.27344.16406 4.4375 3.58985 4.4375-3.08594.59766-.66797.01953-4.4414-.61719-1.21094-4.4375-.10156-4.4375-.48829v-1.54687l4.4375-.86719 2.98047-.22265 1.45703-.10547.08984.10547 2.22657 4.4375-.15625 4.4414-2.16016 2.40625-3.67187 2.03125-.76563.48047-.67578-.48047-3.76172-2.45703-3.23047-1.98047"/><path fill="#00c4fc" fill-rule="evenodd" d="M236.9336 427.07031l-1.90626-4.4414 2.1797-1.80079v1.54688l-.3125.2539.3125.6875.98827 3.75391 3.44922 2.85156 3.71484-2.85156-3.71484-3.78515-3.40625-.65625-1.03125-.25391v-1.54688l4.4375.48829 4.4375.10156.61719 1.21094-.01953 4.4414-.59766.66797-4.4375 3.08594-4.4375-3.58985-.27344-.16406"/><path fill="#00e8fc" fill-rule="evenodd" d="M236.98047 409.3164l-.6914-4.4414.91796-.91797 1.36328.91797-.83594 4.4414-.52734.30079-.22656-.30078"/><path fill="#00b8fc" fill-rule="evenodd" d="M237.20703 423.3164l-.3125-.6875.3125-.2539 1.03125.2539 3.40625.65626v1.19921l-2.35547 2.58594 2.35547 1.94922 2.53906-1.94922-2.53906-2.58594v-1.19921l3.71484 3.78515-3.71484 2.85156-3.44922-2.85156-.98828-3.7539"/><path fill="#00a8fc" fill-rule="evenodd" d="M241.64453 429.01953l-2.35547-1.94922 2.35547-2.58594v1.19532l-1.26562 1.39062 1.26562 1.04688 1.36328-1.04688-1.36328-1.39062v-1.19531l2.53906 2.58593-2.53906 1.94922"/><path fill="#009800" fill-rule="evenodd" d="M241.64453 428.11719l-1.26562-1.04688 1.26562-1.39062v1.19531l-.17578.19531.17578.14453.1875-.14453-.1875-.19531v-1.19531l1.36328 1.39062-1.36328 1.04688"/><path fill="#00ac00" fill-rule="evenodd" d="M241.64453 427.21484l-.17578-.14453.17578-.19531.1875.19531-.1875.14453"/><path fill="#fff" fill-opacity="0" fill-rule="evenodd" d="M250.51953 415.88281l-.61719 2.3086.6172 1.90234 4.03515-1.90234-4.03516-2.3086"/><path fill="#50fcfc" fill-rule="evenodd" d="M250.51953 351.98438l-.1836-.3672.1836-.27734.25781.27735-.2578.36719"/><path fill="#00e8fc" fill-rule="evenodd" d="M254.95703 416.8789l-3.52344-3.125 1.19532-4.4375 2.32812-2.16015 4.4414-1.35938v2.26172l-2.35156 1.25782-2.08984 2.54687-.94531 1.89063.94531.83984 4.4414 1.22656 1.3711-2.0664-.21875-4.4375-1.15234-1.25782v-2.26171l3.21875 3.51953-.13672 4.4375-2.7539 4.4375-.32813.3203-.52735-.3203-3.91406-1.3125"/><path fill="#00d4fc" fill-rule="evenodd" d="M254.95703 414.59375l-.94531-.83984.94531-1.89063 2.08984-2.54687 2.35157-1.25782 1.15234 1.25782.21875 4.4375-1.3711 2.0664-4.4414-1.22656"/><path fill="#00e8fc" fill-rule="evenodd" d="M263.83594 430.57813l-3.8789-3.50782 3.8789-2.96484 1.26172-1.47656 3.17578-3.06641v1.375l-1.7539 1.6914-2.6836 3.13673-1.70313 1.30468 1.70313 1.54297 1.82031 2.89453 2.61719 3.7461.60547.6914 3.83203 3.45313 4.4414-2.65235 1.21094-.80078 3.22656-.99219 4.4375-.95312 2.46485-2.49219 1.5-4.4375-3.96485-4.21875-2.61328-.22265-1.82422-.90235-4.3828.90235-.0547.0078-.0703-.0078-4.3711-.81641-4.4375-.875v-1.375l4.4375.26172 4.4414.3164 4.4375-.23828 4.4375 1.71875 1.80079 1.00782 2.46093 4.4414-.80469 4.4375L286.02735 435l-4.4375.83594-.35156.10937-4.08594 2.70313-3.36328 1.73437-1.07812 1.32422-4.4375-1.03125-.25781-.29297-1.58594-4.4375-2.01172-4.4375-.58203-.92969"/><path fill="#00d4fc" fill-rule="evenodd" d="M263.83594 428.61328l-1.70313-1.54297 1.70313-1.30469 2.6836-3.13671 1.7539-1.69141v1.375l-.32813.3164-3.77734 4.44141 2.72265 4.4375 1.38282 1.97656 2.15234 2.46094 2.28516 2.0625 3.1914-2.0625 1.25-2.55469 4.4375.6797 4.4375-1.07423 1.47266-1.48828 2.19531-4.4375-3.66797-3.90234-4.4375-.07031-4.4375.42578-4.4414-.16797-3.17969-.72656-1.25781-.31641v-1.375l4.4375.875 4.3711.8164.0703.00782.0547-.00781 4.3828-.90235 1.82422.90235 2.61328.22265 3.96485 4.21875-1.5 4.4375L286.02734 434l-4.4375.95313-3.22656.99218-1.21094.80078-4.4414 2.65235-3.83203-3.45313-.60547-.6914-2.61719-3.7461-1.82031-2.89453"/><path fill="#00c4fc" fill-rule="evenodd" d="M266.89063 431.50781l-2.72266-4.4375 3.77734-4.4414.32813-.31641 1.25781.3164 3.17969.72657 4.4414.16797 4.4375-.42578 4.4375.0703v.31642l-4.4375.54296-4.4375.38282-4.4414.17968-4.4375-.55468-2.5625 3.03515 2.41797 4.4375.14453.21094 3.69531 4.22656.74219.66797 1.03515-.66797-1.03515-3.59375-2.16016-.84375 2.16016-.23828 4.4414-.47656 1.02735.71484 3.41015 1.67578 4.4375-1.1914.48047-.48438 2.89453-4.4375-3.375-3.58594v-.3164l3.66797 3.90234-2.19531 4.4375-1.47266 1.48828-4.4375 1.07422-4.4375-.67969-1.25 2.5547-3.1914 2.0625-2.28516-2.0625-2.15234-2.46094-1.38281-1.97657"/><path fill="#00b8fc" fill-rule="evenodd" d="M268.1289 431.50781l-2.41796-4.4375 2.5625-3.03515 4.4375.55468 4.4414-.17968 4.4375-.38282 4.4375-.54296v.3125l-4.4375 1.16015-4.4375.33985-4.4414.52734-4.4375.03906-1.01953 1.20703 1.01953 1.89844 4.4375.21094 4.4414.3711 2.82422 1.95702 1.61328.79297 2.81641-.79297 1.6211-.21094 3.07812-4.22656-3.07813-3.27344v-.3125l3.375 3.58594-2.89453 4.4375-.48047.48438-4.4375 1.1914-3.41015-1.67578-1.02735-.71484-4.4414.47656-2.16016.23828 2.16016.84375 1.03515 3.59375-1.03515.66797-.74219-.66797-3.69531-4.22656-.14453-.21094"/><path fill="#00a8fc" fill-rule="evenodd" d="M268.27344 428.96875l-1.01953-1.89844 1.01953-1.20703 4.4375-.03906 4.4414-.52735 4.4375-.33984 4.4375-1.16015v.3164l-4.4375 1.76953-4.4375.30078-4.4414.875-.11719.01172.11719.01563 4.4414 1.22265 4.4375 2.8711 4.4375-.28906 2.78125-3.82032-2.78125-2.95703v-.3164l3.07813 3.27343-3.07813 4.22656-1.62109.21094-2.8164.79297-1.61329-.79297-2.82422-1.95703-4.4414-.3711-4.4375-.21093"/><path fill="#009800" fill-rule="evenodd" d="M272.71094 427.08594l-.11719-.01563.11719-.01172 4.4414-.875 4.4375-.30078 4.4375-1.76953v.3125l-4.4375 2.38672-4.39843.25781 4.39843.88672 4.4375 2.52735 2.48438-3.41407-2.48438-2.64453v-.3125l2.78125 2.95703-2.78125 3.82031-4.4375.28907-4.4375-2.8711-4.4414-1.22265"/><path fill="#00ac00" fill-rule="evenodd" d="M281.58984 427.95703l-4.39843-.88672 4.39843-.25781 4.4375-2.38672v.3164l-4.04296 2.32813 4.04296 3.00781 2.1875-3.0078-2.1875-2.32813v-.3164l2.48438 2.64452-2.48438 3.41406-4.4375-2.52734"/><path fill="#00c800" fill-rule="evenodd" d="M286.02734 430.07813l-4.04296-3.00782 4.04296-2.32812v.6289l-2.94921 1.69922 2.94921 2.1914 1.59766-2.1914-1.59766-1.69922v-.6289l2.1875 2.32812-2.1875 3.00781"/><path fill="#10cc00" fill-rule="evenodd" d="M286.02734 429.26172l-2.94921-2.1914 2.94921-1.69923V426l-1.85546 1.07031 1.85546 1.3789 1.00391-1.3789L286.02735 426v-.6289l1.59765 1.69921-1.59766 2.1914"/><path fill="#24d000" fill-rule="evenodd" d="M286.02734 428.44922l-1.85546-1.3789L286.02733 426v.6289l-.76171.44141.76171.5664.41407-.5664-.41407-.4414V426l1.00391 1.07031-1.0039 1.3789"/><path fill="#3cd800" fill-rule="evenodd" d="M286.02734 427.63672l-.76171-.5664.76171-.44141.41407.4414-.41407.5664"/><path fill="#50fcfc" fill-rule="evenodd" d="M299.34375 459.46875l-2.09375-1.33203 2.09375-1.57422 4.4375-1.78906 1.16406-1.07422 3.27344-2.59766v3.30469l-4.01563 3.73047 4.01563 2.11328 4.4375.0625 4.4414-1.83594.44923-.33984-.44922-.8125-4.44141-2.91797h-4.4375v-3.30469l4.4375-.04687 4.4414.60937 2.94532 2.03516.8164 4.4375-3.76171 2.85156-4.44141 1.02735-4.4375.25-4.4375-.41797-4.4375-2.37891"/><path fill="#00e8fc" fill-rule="evenodd" d="M308.21875 460.25l-4.01563-2.11328 4.01563-3.73047h4.4375l4.4414 2.91797.44923.8125-.44922.33984-4.44141 1.83594-4.4375-.0625"/><path fill="#50fcfc" fill-rule="evenodd" d="M325.97266 458.96484l-1.89063-.82812.82422-4.4375 1.0664-1.65235 4.4375-2.30468 1.4961-.48047 2.9414-1.5 4.44141 1.17969.96875.3203-.17187 4.4375-.79688.61329-4.4414 2.72656-.85157 1.09766-3.58593 2.58984-4.4375-1.76172m124.27343 7.10157l-3.26562-3.4922 3.26562-2.48827 2.03907-1.94922 2.39843-2.1289 4.44141-.5625v2.6328l-.25.0586-4.1914.77344-3.75391 3.66406 3.7539 2.46484 4.41797-2.46484.02344-1.32422.0586-3.11328-.0586-.0586v-2.6328l3.4375-1.7461 1-1.30469 1.1211 1.30469-1.1211 1.0039-1.74219 3.4336.00781 4.4375-2.70312 2.91797-4.4414.88281-4.4375-.3086"/><path fill="#00e8fc" fill-rule="evenodd" d="M454.6836 465.03906l-3.75391-2.46484 3.7539-3.66406v3.3125l-.35937.35156.35937.23828.42579-.23828-.42579-.35156v-3.3125l4.19141-.77344.25-.0586.0586.0586-.0586 3.11328-.02344 1.32422-4.41797 2.46484"/><path fill="#00d4fc" fill-rule="evenodd" d="M454.6836 462.8125l-.35938-.23828.35937-.35156.42579.35156-.42579.23828"/><path fill="#50fcfc" fill-rule="evenodd" d="M459.125 478.4414l-3.17578-2.55077 3.17578-4.00782 3.05078 4.00781-3.05078 2.55079"/><g clip-path="url(#c)"><path fill="#fff" fill-opacity="0" fill-rule="evenodd" d="M467.9961 480.32813H468V311.67188h-.0039H468v168.65625h-.0039"/></g><path fill="#fff" fill-opacity="0" fill-rule="evenodd" d="M237.20703 408.57031l2.66016 5.19922 8.86719-4.53125-2.65625-5.20312-8.8711 4.53515"/><path fill-rule="evenodd" d="M246.03906 407.98828l.23047.45313-5.60547 2.86328-.35937-.69922 4-2.04297-.63281-1.23828.49609-.2539.3125.46874.16016.20313.1875.16406.21484.11328.26953.0625.32422-.00781.40234-.08594"/><path fill="#fff" fill-opacity="0" fill-rule="evenodd" d="M250.24219 437.36719l3.6836-4.52735-7.72267-6.28906-3.6875 4.53125 7.72657 6.28516"/><path fill-rule="evenodd" d="M246.14453 429.52344l.32031-.39453 4.88282 3.97265-.4961.61328-3.48047-2.83593-.8789 1.07812-.42969-.35156.30469-.47656.11719-.22657.07421-.23437.01953-.25-.05468-.26563-.13672-.29687-.24219-.33203"/><g clip-path="url(#d)"><path fill="none" stroke="#000" stroke-linecap="round" stroke-linejoin="round" stroke-miterlimit="10" stroke-width=".5" d="M144.17969 476.82031l-.35938 7.01563"/></g><g clip-path="url(#e)"><path fill="none" stroke="#000" stroke-linecap="round" stroke-linejoin="round" stroke-miterlimit="10" stroke-width=".5" d="M156.03516 477.0586l2.5625 6.54296"/></g><path fill="none" stroke="#000" stroke-linecap="round" stroke-linejoin="round" stroke-miterlimit="10" stroke-width=".5" d="M156.40625 478.00781l.80078-.92969"/><g clip-path="url(#f)"><path fill="none" stroke="#000" stroke-linecap="round" stroke-linejoin="round" stroke-miterlimit="10" stroke-width=".5" d="M169.42969 477.02734l2.40234 6.60157"/></g><path fill="none" stroke="#000" stroke-linecap="round" stroke-linejoin="round" stroke-miterlimit="10" stroke-width=".5" d="M169.77734 477.98828l.82422-.91406"/><g clip-path="url(#g)"><path fill="none" stroke="#000" stroke-linecap="round" stroke-linejoin="round" stroke-miterlimit="10" stroke-width=".5" d="M182.09766 477.33984l3.6953 5.97657"/></g><path fill="none" stroke="#000" stroke-linecap="round" stroke-linejoin="round" stroke-miterlimit="10" stroke-width=".5" d="M182.63672 478.21094l.61719-1.0625"/><g clip-path="url(#h)"><path fill="none" stroke="#000" stroke-linecap="round" stroke-linejoin="round" stroke-miterlimit="10" stroke-width=".5" d="M193.8711 479.39844l6.77734 1.85937"/></g><g clip-path="url(#i)"><path fill="none" stroke="#000" stroke-linecap="round" stroke-linejoin="round" stroke-miterlimit="10" stroke-width=".5" d="M211.03125 483.8125l-.91016-6.96875"/></g><g clip-path="url(#j)"><path fill="none" stroke="#000" stroke-linecap="round" stroke-linejoin="round" stroke-miterlimit="10" stroke-width=".5" d="M226.64063 482.51563l-5.5-4.3711"/></g><g clip-path="url(#k)"><path fill="none" stroke="#000" stroke-linecap="round" stroke-linejoin="round" stroke-miterlimit="10" stroke-width=".5" d="M240.71484 480.49219l-7.01953-.32422"/></g><g clip-path="url(#l)"><path fill="none" stroke="#000" stroke-linecap="round" stroke-linejoin="round" stroke-miterlimit="10" stroke-width=".5" d="M239.69531 480.44531l.52344 1.10938"/></g><g clip-path="url(#m)"><path fill="none" stroke="#000" stroke-linecap="round" stroke-linejoin="round" stroke-miterlimit="10" stroke-width=".5" d="M253.84375 479.1914l-6.64844 2.27344"/></g><g clip-path="url(#n)"><path fill="none" stroke="#000" stroke-linecap="round" stroke-linejoin="round" stroke-miterlimit="10" stroke-width=".5" d="M252.8789 479.52344l.89454.83594"/></g><g clip-path="url(#o)"><path fill="none" stroke="#000" stroke-linecap="round" stroke-linejoin="round" stroke-miterlimit="10" stroke-width=".5" d="M266.89844 478.60547l-6.125 3.44922"/></g><g clip-path="url(#p)"><path fill="none" stroke="#000" stroke-linecap="round" stroke-linejoin="round" stroke-miterlimit="10" stroke-width=".5" d="M266.00781 479.10547l1.03125.66406"/></g><g clip-path="url(#q)"><path fill="none" stroke="#000" stroke-linecap="round" stroke-linejoin="round" stroke-miterlimit="10" stroke-width=".5" d="M280.27734 478.72656l-6.2539 3.20703"/></g><g clip-path="url(#r)"><path fill="none" stroke="#000" stroke-linecap="round" stroke-linejoin="round" stroke-miterlimit="10" stroke-width=".5" d="M280.27734 478.72656l2.01172 1.40235"/></g><g clip-path="url(#s)"><path fill="none" stroke="#000" stroke-linecap="round" stroke-linejoin="round" stroke-miterlimit="10" stroke-width=".5" d="M293.78516 479.17969l-6.64063 2.29687"/></g><g clip-path="url(#t)"><path fill="none" stroke="#000" stroke-linecap="round" stroke-linejoin="round" stroke-miterlimit="10" stroke-width=".5" d="M293.78516 479.17969l1.79687 1.67187"/></g><g clip-path="url(#u)"><path fill="none" stroke="#000" stroke-linecap="round" stroke-linejoin="round" stroke-miterlimit="10" stroke-width=".5" d="M307.26953 479.90625l-6.97656.84766"/></g><g clip-path="url(#v)"><path fill="none" stroke="#000" stroke-linecap="round" stroke-linejoin="round" stroke-miterlimit="10" stroke-width=".5" d="M307.26953 479.90625l1.40235 2.01172"/></g><g clip-path="url(#w)"><path fill="none" stroke="#000" stroke-linecap="round" stroke-linejoin="round" stroke-miterlimit="10" stroke-width=".5" d="M320.53125 481.0664l-6.8711-1.47656"/></g><g clip-path="url(#x)"><path fill="none" stroke="#000" stroke-linecap="round" stroke-linejoin="round" stroke-miterlimit="10" stroke-width=".5" d="M319.53125 480.85156l.33594 1.17969"/></g><g clip-path="url(#y)"><path fill="none" stroke="#000" stroke-linecap="round" stroke-linejoin="round" stroke-miterlimit="10" stroke-width=".5" d="M333.80469 479.41406l-6.78516 1.82813"/></g><g clip-path="url(#z)"><path fill="none" stroke="#000" stroke-linecap="round" stroke-linejoin="round" stroke-miterlimit="10" stroke-width=".5" d="M332.8164 479.67969l.83594.89844"/></g><g clip-path="url(#A)"><path fill="none" stroke="#000" stroke-linecap="round" stroke-linejoin="round" stroke-miterlimit="10" stroke-width=".5" d="M346.125 477.76172l-4.80078 5.13281"/></g><path fill="none" stroke="#000" stroke-linecap="round" stroke-linejoin="round" stroke-miterlimit="10" stroke-width=".5" d="M346.125 477.76172l2.3711.64062"/><g clip-path="url(#B)"><path fill="none" stroke="#000" stroke-linecap="round" stroke-linejoin="round" stroke-miterlimit="10" stroke-width=".5" d="M359.5664 477.88672l-5.05077 4.88281"/></g><path fill="none" stroke="#000" stroke-linecap="round" stroke-linejoin="round" stroke-miterlimit="10" stroke-width=".5" d="M358.83203 478.59766l1.16797.3789"/><g clip-path="url(#C)"><path fill="none" stroke="#000" stroke-linecap="round" stroke-linejoin="round" stroke-miterlimit="10" stroke-width=".5" d="M373.8125 479.70313l-6.91406 1.25"/></g><g clip-path="url(#D)"><path fill="none" stroke="#000" stroke-linecap="round" stroke-linejoin="round" stroke-miterlimit="10" stroke-width=".5" d="M372.8086 479.88672l.7578.96094"/></g><g clip-path="url(#E)"><path fill="none" stroke="#000" stroke-linecap="round" stroke-linejoin="round" stroke-miterlimit="10" stroke-width=".5" d="M387.15625 479.875l-6.96875.90625"/></g><g clip-path="url(#F)"><path fill="none" stroke="#000" stroke-linecap="round" stroke-linejoin="round" stroke-miterlimit="10" stroke-width=".5" d="M387.15625 479.875l1.42188 2"/></g><g clip-path="url(#G)"><path fill="none" stroke="#000" stroke-linecap="round" stroke-linejoin="round" stroke-miterlimit="10" stroke-width=".5" d="M399.8164 478.2461l-5.66015 4.16406"/></g><path fill="none" stroke="#000" stroke-linecap="round" stroke-linejoin="round" stroke-miterlimit="10" stroke-width=".5" d="M399.8164 478.2461l2.21094 1.0625"/><g clip-path="url(#H)"><path fill="none" stroke="#000" stroke-linecap="round" stroke-linejoin="round" stroke-miterlimit="10" stroke-width=".5" d="M412.23828 477.39844l-3.875 5.86328"/></g><path fill="none" stroke="#000" stroke-linecap="round" stroke-linejoin="round" stroke-miterlimit="10" stroke-width=".5" d="M411.67578 478.25l1.21875.11719"/><g clip-path="url(#I)"><path fill="none" stroke="#000" stroke-linecap="round" stroke-linejoin="round" stroke-miterlimit="10" stroke-width=".5" d="M426.7461 478.73047l-6.25782 3.19922"/></g><g clip-path="url(#J)"><path fill="none" stroke="#000" stroke-linecap="round" stroke-linejoin="round" stroke-miterlimit="10" stroke-width=".5" d="M425.83594 479.19531l1.0039.69922"/></g><g clip-path="url(#K)"><path fill="none" stroke="#000" stroke-linecap="round" stroke-linejoin="round" stroke-miterlimit="10" stroke-width=".5" d="M439.77344 478.26563l-5.6836 4.1289"/></g><path fill="none" stroke="#000" stroke-linecap="round" stroke-linejoin="round" stroke-miterlimit="10" stroke-width=".5" d="M439.77344 478.26563l2.20703 1.07421"/><g clip-path="url(#L)"><path fill="none" stroke="#000" stroke-linecap="round" stroke-linejoin="round" stroke-miterlimit="10" stroke-width=".5" d="M451.28125 476.97266l-2.07031 6.71484"/></g><path fill="none" stroke="#000" stroke-linecap="round" stroke-linejoin="round" stroke-miterlimit="10" stroke-width=".5" d="M450.98047 477.94922l1.20703-.23047"/><g clip-path="url(#M)"><path fill="none" stroke="#000" stroke-linecap="round" stroke-linejoin="round" stroke-miterlimit="10" stroke-width=".5" d="M465.29297 477.27344l-3.46485 6.11328"/></g><path fill="none" stroke="#000" stroke-linecap="round" stroke-linejoin="round" stroke-miterlimit="10" stroke-width=".5" d="M465.29297 477.27344l2.45312.0664"/><g clip-path="url(#N)"><path fill="none" stroke="#000" stroke-linecap="round" stroke-linejoin="round" stroke-miterlimit="10" stroke-width=".5" d="M146.97266 465.14063l-5.94532 3.74609"/></g><path fill="none" stroke="#000" stroke-linecap="round" stroke-linejoin="round" stroke-miterlimit="10" stroke-width=".5" d="M146.10938 465.6875l1.0625.60938m12.52734-1.86329l-4.76953 5.16016m4.76953-5.16016l2.3711.6211m10.64062-.875l-4.16016 5.66797m3.55469-4.84375l1.21094.17968m12.86718-.875l-4.47656 5.41016m3.82813-4.625l1.19922.2461m13.97265.99218l-6.89453 1.36328m5.89063-1.16406l.77734.94922m12.41797 2.16797L208.25 464.3789m3.97266 4.5039l-.4297 1.14844m14.21876-.21875l-4.2461-5.59766M225.39453 469l-.51562 1.11328m15.52734-1.64844l-6.39844-2.90234m5.46485 2.48047l.07812 1.22656m14.41016-2.96094l-6.88281 1.41016m5.8828-1.20313l.78126.94532m13.15234-2.17578l-6.11719 3.45703m5.22657-2.95703l1.03515.66015m12.9336-1.52344l-5.64453 4.1836m4.82421-3.57422l1.10547.52734m13.48438-.3125l-6.55078 2.53907m5.59765-2.17188l.92969.80078m13.53906-.40234l-6.95312 1.0039m5.9414-.85546l.72657.98828m13.52343-1.51953l-6.80078 1.76953m6.80078-1.76953l1.66016 1.80468m11.71875-1.49609l-6.92969 1.15234m6.92969-1.15234l1.49219 1.94531m11.8164-.73828l-6.91406-1.26172m6.91406 1.26172l.7461 2.33594m12.42968-4.1211l-6.63671 2.3086m5.67187-1.97266l.89844.83594m13.04297-1.875L367.375 468.875m5.09375-3.17969l1.0625.61328m13.63672 1.03516l-6.9961-.66016m6.9961.66016l.94531 2.26172m12.36328-3.00781l-6.98047.83203m6.98047-.83203l1.39844 2.01562m-2.41406-1.89453l.69922 1.00781m13.65234-.85156l-7.02344.27734m7.02344-.27734l1.23437 2.1211m-2.2578-2.08204l.62109 1.0625m13.65625-.30078l-6.90235-1.32422m6.90235 1.32422l.72656 2.34375m12.64844-2.88672l-7.01954-.23828m7.01954.23828l1.07812 2.20313m-2.09766-2.23828l.53907 1.10156m13.35547-2.89453l-6.14063 3.41797m5.2461-2.92188l1.03124.66797m10.6797 4.01172l-1.14063-6.9336m.97265 5.92579l-.97656.74218"/><g clip-path="url(#O)"><path fill="none" stroke="#000" stroke-linecap="round" stroke-linejoin="round" stroke-miterlimit="10" stroke-width=".5" d="M147.16016 452.16406l-6.32032 3.07031"/></g><path fill="none" stroke="#000" stroke-linecap="round" stroke-linejoin="round" stroke-miterlimit="10" stroke-width=".5" d="M146.24219 452.60938l.98828.72656m13.35547-.91406l-6.54297 2.55468m5.59375-2.1836l.92969.79688m13.32422-1.19922l-6.51954 2.6172m6.51953-2.6172l1.875 1.57813m11.62891-.92969l-6.89844 1.32031m6.89844-1.3203l1.53906 1.91015m11.83985-1.33203l-7.02735.16406m6.00391-.14063l.60156 1.07032m13.625-.125l-6.80078-1.77344m5.8086 1.51562l.28515 1.19141m13.92578-.625L220.58594 452.5m5.64844 2.04687l.17187 1.21485m13.95313-.51563l-6.3086-3.09375m5.39063 2.64063l.04297 1.22656m14.55078-2.29687l-7.02735-.04688m6.0039.03906l.57032 1.08594m13.65625-1.97656l-6.80469 1.75m5.81641-1.4961l.82422.90625m13.35547-1.55078l-6.55469 2.53125m5.59766-2.16406l.92968.80469m13.57032.33594l-7.01172-.48438m19.86328 2l-6.08594-3.51562m19.69531.66015l-6.67578 2.1914m5.70313-1.87109l.88672.84766m13.1914-1.66797l-6.25781 3.19531m5.34766-2.73046l1.0078.70312m13.44141-.6211L340.375 454.75m5.72656-1.79688l.875.85938m13.54297-.61328l-6.95703 1m5.94531-.85547l.72266.99219m10-4.14844l.25 7.02344m-.21485-6l1.0625-.61719m11.76563-.35938l1.15234 6.9297m-.98437-5.92188l.97656-.7461m16.25 3.4961l-7.0039-.58985m20.22265-.5625l-6.8125 1.71875m20.1914-1.40625l-6.9414 1.09375m5.9336-.93359l.73828.98047m11.95312 2.39844l-3.67578-5.98829m3.67578 5.98829l-1.24219 2.11718m16.19922-4.625l-6.96094-.96875m5.94922.82813l.41797 1.15234m9.96875 1.98828l.91797-6.96875m-.91797 6.96875l-2.29687.85547"/><g clip-path="url(#P)"><path fill="none" stroke="#000" stroke-linecap="round" stroke-linejoin="round" stroke-miterlimit="10" stroke-width=".5" d="M147.1211 438.76563L140.8789 442"/></g><path fill="none" stroke="#000" stroke-linecap="round" stroke-linejoin="round" stroke-miterlimit="10" stroke-width=".5" d="M147.1211 438.76563l2.01952 1.39453m11.63672-.3711l-6.92578 1.1875m6.92578-1.1875l1.50391 1.9414m11.83203-.89452l-6.96875-.90625m6.96875.90625l.86328 2.29687m12.48047-2.73828l-7.02344-.01953m7.02344.01953l1.14844 2.16797m12.125-1.63281l-6.9414-1.08985m6.9414 1.08985l.80078 2.3164m12.50781-2.27734l-6.92969-1.17188m6.9297 1.17188l.77343 2.32813m12.45313-1.9375l-6.75-1.95313m6.75 1.95313l.5039 2.40234m12.86719-2.6289l-6.86328-1.5m6.86328 1.5l.66406 2.36327m12.73047-2.96484l-7.01953-.29688m5.9961.25391l.53124 1.10547m13.8086-1.14453l-7.02344-.13281m6.0039.11328l.5547 1.09375m13.74218-.61719l-6.94922-1.04688m5.9375.89454l.41016 1.16015m13.8164-.54687l-6.74609-1.96875m6.7461 1.96875l.5 2.40234m12.61328-1.875l-6.34375-3.01953m5.42187 2.57812l.05469 1.22657m14.03906-.51953l-6.0586-3.5547m5.1797 3.03907l-.05079 1.22656m14.25782-4.24609l-6.08594 3.51562m5.19922-3.0039l1.04297.65234m12.17578-2.2539l-4.1172 5.6953m3.51954-4.86718l1.21484.17188m12.22657-1.28516l-3.17578 6.26562m2.71484-5.35546l1.22656-.02344m10.60156-1.25l.71875 6.99219m-.61328-5.97266l1.01953-.6836m12.25-.33984l.60157 7m-.51563-5.98047l1.03125-.66797m10.35156.3672l4.29297 5.5664m-3.66797-4.75781l.50782-1.1172m10.82812 3.39454l7-.60938m-5.98047.52344l-.66797-1.03125m16.79688 4.3125l-.66406-6.9961m.5664 5.97657l-1.02343.67578m14.6953.3086l-1.18359-6.92579m1.1836 6.92579l-1.9414 1.5m17.90624-3.61329l-6.48437-2.70312m5.54297 2.3086l.11328 1.22265m8.5078.39453l4.78517-5.14453m-4.08985 4.39453l-1.1836-.3164"/><g clip-path="url(#Q)"><path fill="none" stroke="#000" stroke-linecap="round" stroke-linejoin="round" stroke-miterlimit="10" stroke-width=".5" d="M147.23438 425.69922l-6.46875 2.73828"/></g><path fill="none" stroke="#000" stroke-linecap="round" stroke-linejoin="round" stroke-miterlimit="10" stroke-width=".5" d="M147.23438 425.69922l1.90625 1.54687m-2.84766-1.14843l.95312.77343m13.48828-.61718l-6.83593 1.6289m6.83594-1.6289l1.62109 1.83984m-2.61719-1.60156l.8125.91797m13.57031-.73829l-6.98047.79297m6.98047-.79297l1.38672 2.02344m11.86328-.85156l-6.85156-1.55078m6.85156 1.55078l.64844 2.36719m12.46094-1.73438l-6.4414-2.8125m6.4414 2.8125l.1875 2.44531m12.86328-1.95312l-5.91016-3.80078m5.91016 3.80078l-.20313 2.44531m13.625-2.625l-6.125-3.4414m6.125 3.4414l-.05859 2.45313m13.69531-3.22657l-6.76953-1.89453m6.76953 1.89453l.52735 2.39454m12.40234-1.51172l-6-3.66016m5.1289 3.1289l-.07421 1.22266m14.73047-1.96093l-6.9375-1.1211m6.9375 1.1211l.79297 2.32422m12.44922-1.98438l-6.79297-1.80078m5.80468 1.53906l.27735 1.19531m12.96094.79688l-4.66016-5.26172m3.98047 4.4961l-.42969 1.14843m15.4375-1.92969l-6.6875-2.16797m5.71484 1.85157l.21094 1.21094m13.19922.52343l-4.9336-5.0039m4.21485 4.27734l-.36719 1.16797m12.77344.46875l-1.67969-6.82422m1.4375 5.83203l-.91406.8164m14.65625-3.23437l-.01953-.20312-.0586-.1914-.09765-.17579-.45703-.375-.1914-.0586-.19923-.01952-.19922.01953-.1914.05859-.46094.375-.09375.17578-.0586.1914-.01952.20313.01953.19922.05859.1914.09375.17579.46094.375.1914.0586.19922.01952.19922-.01953.1914-.0586.45704-.375.09766-.17577.05859-.1914.01953-.19923m12.92578-3.45703l-1.26953 6.91016m1.08594-5.90625l1.16797-.3711m10.85156-.58984l1.6875 6.82422m-1.4414-5.82813l.91406-.8203m12.58203-.25391l.83203 6.98046m-.71094-5.96484l1.00781-.69922m11.375-.11719l2.45703 6.58204m-2.45703-6.58204l1.625-1.83593m9.46875 4.46484l6.90235 1.32422m-6.90235-1.32422l-.72265-2.34375m14.21875 4.29688l6.53906-2.57813m-6.53906 2.57813l-1.8672-1.59375m16.76563 3.38671l3.3711-6.16796m-3.3711 6.16796l-2.45312-.02734m17.80469.4375l-.70313-6.98828m.70313 6.98828l-2.03907 1.36328m17.5586-2.44531l-5.11328-4.82422m4.37109 4.1211l-.32422 1.18359"/><g clip-path="url(#R)"><path fill="none" stroke="#000" stroke-linecap="round" stroke-linejoin="round" stroke-miterlimit="10" stroke-width=".5" d="M147.17969 412.2539l-6.35938 2.9961"/></g><path fill="none" stroke="#000" stroke-linecap="round" stroke-linejoin="round" stroke-miterlimit="10" stroke-width=".5" d="M147.17969 412.2539l1.96484 1.46876m11.30078-1.5625l-6.26172 3.1875m6.26172-3.1875l2.01172 1.40625m11.61719-.50391l-6.89063 1.38281m6.89063-1.38281l1.55469 1.89844m11.79687-1.6914l-6.96094.96874m5.94922-.82812l.71875.99609m13.51563.27344l-6.77735-1.85156m5.79297 1.58203l.26953 1.1953m13.22266.53126l-5.16406-4.76563m5.16406 4.76563l-.6211 2.375m13.875-2.3125l-5.04296-4.89453m5.04297 4.89453l-.6797 2.35937m14.3086-2.72656l-5.66797-4.15625m5.66797 4.15625l-.35156 2.42578m13.5039-2.21875l-5.33984-4.57031m5.33985 4.57031l-.53516 2.39453m14.26953-3.01171l-6.1836-3.33594m5.28516 2.85156l-.0078 1.22656m13.83593-.16797l-5.41016-4.48437m4.6211 3.83203l-.2461 1.20313m14.4961-.73829l-5.70313-4.10937m4.875 3.51172l-.16797 1.21484m14.23047-.50781l-5.53906-4.32813m4.73047 3.69922l-.21094 1.20703m14.23828-.46093l-5.34375-4.5625m13.74219 4.98437l4.48828-5.40625m-3.83594 4.6211l-1.20312-.25m13.30469-3.78516l5.60937 4.23437m10.28516-5.625l.44922 7.01563m-.38282-5.9961l1.04297-.64062m10.09375.5039l4.67188 5.25m-3.9922-4.48827l.42579-1.14844m12.00781.58203l5.07813 4.85547m-5.07813-4.85547l.66407-2.35938m13.05468 1.9961l4.26953 5.58203m-4.26953-5.58203l1.02344-2.23047m-.40234 3.04297l.51172-1.11328m11.38671 1.15625l5.86329 3.875m-5.86329-3.875l.23047-2.44141m.6211 3.0039l.11718-1.21874m12.73438.16797l5.08203 4.85156m-5.08203-4.85156l.66406-2.36329m11.80078 3.875l6.78516 1.82813m-6.78516-1.82813l-.54687-2.39453m15.44531 6.32031l3.61719-6.02343m-3.61719 6.02343l-2.44922-.125m2.97656-.75l-1.22656-.0664m15.9375 1.4414l-.23047-7.02343m.19922 6l-1.0664.61328"/><g clip-path="url(#S)"><path fill="none" stroke="#000" stroke-linecap="round" stroke-linejoin="round" stroke-miterlimit="10" stroke-width=".5" d="M146.77734 398.28516l-5.55468 4.30859"/></g><path fill="none" stroke="#000" stroke-linecap="round" stroke-linejoin="round" stroke-miterlimit="10" stroke-width=".5" d="M146.77734 398.28516l2.23828 1.0039m10.89454-1.21875l-5.19141 4.73438m5.1914-4.73438l2.3125.82813m11.53907-.05078l-6.26563 3.18359m5.35547-2.72266l1.0039.70704m11.59767 3.59765l-3.01563-6.34765m2.57422 5.42187l-.73047.98438m13.3086.26562l-.66016-6.9961m.5664 5.97657l-1.02734.67578m14.97656.25l-1.73828-6.8086m1.48438 5.81641l-.90625.82813m16.14062-.8086l-5.07031-4.86328m5.07031 4.86328l-.66797 2.35938m13.79297-2.17578l-4.6875-5.23438m4.0039 4.47266l-.42187 1.15234m14.4375-.40625l-4.72656-5.19922m4.03906 4.44141l-.41406 1.15625m9.91406-.21094l4.27735-5.57422m9.76953-.43359l2.82031 6.4375m-2.41016-5.5l.75782-.96094m13.0664-.23437l.98047 6.95703m9.82031-5.30078l6.00782 3.64453m-5.13282-3.11328l.06641-1.22656m12.08203 1.29687l6.58985 2.4375m-5.63282-2.08203l-.16406-1.21485m12.51563.87891l6.60546 2.39844m-6.60546-2.39844l-.34375-2.42969m14.14843 1.52344l5.625 4.21094m-4.8086-3.59766l.1875-1.21094m13.48438-.40625l3.27735 6.21875m8.19531-3.58593l6.96094.95703m-5.94922-.82031l-.42188-1.15235m18.15235-1.4336l-3.89063 5.85157m3.89063-5.85156l2.4414.23828m10.26563-.5586l-2.67578 6.4961m2.67578-6.4961l2.44531-.23827m-2.83203 1.18359l1.21875-.1211m12.33984-.8828l-2.39062 6.60937m2.39062-6.60938l2.4297-.34375m-2.77735 1.3086l1.21484-.17579m12.73438-.66796l-2.96094 6.37109m2.96094-6.3711l2.44922-.1328m-2.87891 1.05859l1.22266-.0664m12.29687-.95704l-2.51172 6.5625m2.51172-6.5625l2.4336-.30078m7.2539 6.17578l4.74219-5.1836m-4.74219 5.1836l-2.375-.61328m3.0664-.14063l-1.1914-.30859m13.76953 1.01953l4.83203-5.10156m-4.83203 5.10156l-2.36328-.65234"/><g clip-path="url(#T)"><path fill="none" stroke="#000" stroke-linecap="round" stroke-linejoin="round" stroke-miterlimit="10" stroke-width=".5" d="M146.50781 384.66016l-5.01562 4.92578"/></g><path fill="none" stroke="#000" stroke-linecap="round" stroke-linejoin="round" stroke-miterlimit="10" stroke-width=".5" d="M146.50781 384.66016l2.33985.73828m9.95703-1.45703l-2.98047 6.36328m2.98047-6.36328l2.44922-.125m9.98437-.15235l-1.21875 6.91797m1.21875-6.91797l2.33594-.75781m-2.51172 1.76563l2.33203-.76172m8.88281.12109l3.33594 6.1836m-3.33594-6.1836l1.36328-2.04297m10.11329 5.34375l7.01562-.41797m-5.9961.35547l-.64062-1.04687m13.39063 2.64453l6.10156-3.48828m-5.21094 2.98046l-1.03906-.65625m19.49219 1.28516l-5.95703-3.73047m5.95703 3.73047l-.17188 2.44531m13.8789-3.30859l-6.73827-2.0039m5.75781 1.71093l.24219 1.20313m14.09765-1.07813l-6.82422-1.66797m19.50782-1.3125l-5.5625 4.29297m4.7539-3.66797l1.1172.5039m13.68358.39063l-6.91406 1.25391m5.90625-1.07031l.76172.96094m13.60156-.83204l-7 .62891m7-.6289l1.33985 2.05468m-2.35938-1.96094l.67188 1.02735m13.40234-2.16797l-6.47656 2.72265m6.47656-2.72265l1.90235 1.55078m-2.84375-1.15625l1.90234 1.55078m12.01172-2.57031l-5.79297 3.97265m5.79297-3.97265l2.17578 1.13281m-3.01953-.55469l2.17578 1.13282m12.59375.03515l-7.01172.48047m7.01172-.48047l1.29687 2.08203m11.73829-.45703l-6.45704-2.76953m6.45704 2.76953l.20703 2.44531m-1.14453-2.84765l.10156 1.22265m14.41406-1.79687l-6.98047-.8164m6.98047.8164l.89063 2.28516m-1.90625-2.40235l.89062 2.28516m13.17188-3.97266l-6.44532 2.79297m6.44532-2.79297l1.92187 1.52735m-2.85937-1.1211l.96093.76563m12.24219-2.53516l-4.34766 5.51953m4.34766-5.51953l2.41406.4336m-3.04687.36718l1.20703.21875m12.39453-1.26172l-3.65234 6.00391m3.65234-6.0039l2.44922.14062m-2.98047.73437l1.22266.07032m12.22265-1.15625l-2.84765 6.42578m2.84765-6.42578l2.44532-.17579m-2.85938 1.11329l2.44531-.17579m10.66797-.96875l-1.61719 6.83985m1.6172-6.83985l2.37109-.62109m-2.60547 1.61719l1.18359-.3125m12.1289-.73047l-1.14452 6.9336m1.14453-6.9336l2.32422-.78516m9.98828 7.73829l.85937-6.97266m-.73437 5.95703l-1.14453.4414m14.38671.58204l.75391-6.98828m-.7539 6.98828l-2.27735.91015m2.38672-1.92578l-1.13672.45313"/><g clip-path="url(#U)"><path fill="none" stroke="#000" stroke-linecap="round" stroke-linejoin="round" stroke-miterlimit="10" stroke-width=".5" d="M146.21875 371.08594l-4.4375 5.44531"/></g><path fill="none" stroke="#000" stroke-linecap="round" stroke-linejoin="round" stroke-miterlimit="10" stroke-width=".5" d="M146.21875 371.08594l2.40625.47265m10.6289-.67968l-3.8789 5.85937m3.8789-5.85937l2.44532.23437m-3.00781.61719l1.21875.11719m11.9375-1.33594l-2.4375 6.58984m2.4375-6.58984l2.43359-.32813m-2.78516 1.28907l2.4297-.32813m11.18358-.65234l-2.32812 6.6289m2.32813-6.6289l2.42578-.36719m-2.76172 1.33203l2.42578-.36719m9.92578-.79296l.26953 7.02343m-.26953-7.02344l2.1211-1.23437m8.35937 6.625l5.9414-3.75781m11.87891 5.03906l-3.07031-6.32031m3.07031 6.32031l-1.44922 1.98438m16.74219-5.08594l-7.02734-.11719m7.02734.11719l1.11719 2.1836m12.1875-2.52735l-7.0039.57031m7.0039-.57031l1.32422 2.0625m-2.34375-1.98047l.66015 1.03125m13.6836-.71485l-7.02344-.22656m7.02344.22656l1.08203 2.20313m-2.10547-2.23438l1.08203 2.19922m13.0586-3.4453l-6.62891 2.32812m6.6289-2.32813l1.8047 1.66016M279.5 372.98047l1.80469 1.66406m11.45703-3.4961l-4.59375 5.31641m4.59375-5.3164l2.39453.54687m-3.0625.22656l1.19531.27344m11.53907-1.74219l-2.09375 6.71094m2.09375-6.71094L307.23828 370m-2.71484 1.42969l1.20703-.22656m13.75781.03125l-4.78515 5.14843m4.78515-5.14844l2.3711.63282m-3.06641.11719l1.1836.3164m13.63671.0625l-6.40625 2.89063m6.40625-2.89063l1.9414 1.5m-2.87109-1.07812l.96875.75m13.58204.08593l-7.01563.3711m7.01563-.3711l1.26562 2.10547m-2.28516-2.05078l.63282 1.05078m13.6289-1.66406l-6.86718 1.49219m6.86718-1.49219l1.58203 1.8711m-2.58203-1.65235l.79297.9336m13.04297-2.3047l-5.91016 3.79688m5.91016-3.79687l2.14063 1.19921m-3-.64843l1.0703.60156m12.77345-1.58984l-5.25 4.67187m5.25-4.67187l2.30078.85156m-3.06641-.17188l1.15234.42579m12.62891-1.40235l-4.65234 5.26563m4.65234-5.26563l2.38672.57031m-3.0625.19532l2.38672.5703m11.19531-1.64843l-3.83203 5.89063m3.83203-5.89063l2.4414.21485m-3 .64062l2.44532.21875m11.67187-.89844l-4.3203 5.53906m4.3203-5.53906l2.41797.42188m-3.04687.38281l1.20703.21094m12.78906-.97656l-4.42578 5.45703m4.42578-5.45704l2.41016.47266m11.34765 4.5586l-5.3125-4.60157m5.3125 4.60156l-.55078 2.39063m-.22265-3.0586l-.27344 1.19532m13.71875.05078l-4.02344-5.76172m4.02344 5.76172l-1.11719 2.1875m.53125-3.02344l-1.11719 2.1836"/><g clip-path="url(#V)"><path fill="none" stroke="#000" stroke-linecap="round" stroke-linejoin="round" stroke-miterlimit="10" stroke-width=".5" d="M145.42578 357.28125l-2.85156 6.42188"/></g><path fill="none" stroke="#000" stroke-linecap="round" stroke-linejoin="round" stroke-miterlimit="10" stroke-width=".5" d="M145.01172 358.21484l1.22266-.08593m12.07812-1.00391l-1.9961 6.73828m1.9961-6.73828l2.40234-.49219m11.17188.57813l-2.51172 6.5625m2.51172-6.5625l2.4336-.30078m-2.80079 1.2578l1.21875-.15233m13.125-.46875l-3.83594 5.89062m3.83594-5.89063l2.4414.21875m-3 .64063l2.44141.21484m12.25-.33203l-5.47265 4.41016m5.47265-4.41016l2.25782.96485m-3.0547-.32422l1.12892.48437m13.39062 2.65235l-6.28516-3.14454m6.28516 3.14454l.0625 2.44921m11.6211-.85156l-3.02344-6.34375m3.02343 6.34375l-1.46093 1.97266m1.01953-2.89453l-1.45703 1.97265m17.19922-3.90625l-6.9961-.6289m6.9961.6289l.95703 2.25782m-1.97266-2.35157l.95313 2.26172m13.30468-1.69922l-6.85156-1.5664m6.85156 1.5664l.64063 2.3672m-1.63672-2.59767l.64062 2.3711m-1.63672-2.59766l.32032 1.1836m15.0625-1.80079l-7 .58204m7-.58204l1.32812 2.0625m-2.34765-1.98046l1.32812 2.0664m12.71875-3.28125l-6.42578 2.84375m6.42578-2.84375l1.92969 1.51563m-2.86328-1.10156L281.35938 361m11.57421-3.00781L288 362.99609m4.9336-5.0039l2.35156.69922m-3.07032.02734l2.35157.70313m11.64453-1.46485l-4.85938 5.07422m4.85938-5.07422l2.36328.66797m-3.07031.07031l2.36328.66797m12.07031-.9375l-5.6836 4.13672m5.6836-4.13672l2.20703 1.07422m-3.03515-.47266l1.10546.53516m13.34766-.625l-6.30078 3.10938m6.30078-3.10938l1.99219 1.4336m-2.91016-.98048l1.99219 1.4336m12.13281-2.08594L340.6836 362.25m6.08594-3.51172l2.08203 1.30078m-2.96875-.78906l1.04297.64844m13.32813-.82813l-6.42578 2.84375m6.42578-2.84375l1.92968 1.51563m11.45313-1.35547l-6.5586 2.52734m6.5586-2.52734l1.85156 1.60937m11.24219-2.07421l-6.11719 3.45703m6.11719-3.45704l2.0664 1.31641m-2.95703-.8164l1.03516.66015m12.75781-1.74219l-5.29297 4.6211m5.29297-4.6211l2.29297.875m-3.0625-.20312l1.14453.4375m12.72266-1.33985l-4.85547 5.07813m4.85547-5.07813l2.35937.66407m-3.0664.07422l2.36328.66406m12.38672-.40235l-6.3164 3.07813m6.3164-3.07813l1.98437 1.44532m-2.90234-.9961l1.98437 1.44141m12.52344-1.10156l-6.86328 1.5m6.86328-1.5l1.58985 1.8711m-2.58594-1.65235l1.58594 1.8711m-2.58594-1.65235l.79297.9336m14.35156.67577l-6.53125-2.59375m6.53125 2.59375l.26953 2.4414m-1.21875-2.8164l.26953 2.4375m13.42578-1.10547l-5.39453-4.5039m5.39453 4.5039l-.5039 2.40235m-.28125-3.0586l-.50391 2.40235"/><g clip-path="url(#W)"><path fill="none" stroke="#000" stroke-linecap="round" stroke-linejoin="round" stroke-miterlimit="10" stroke-width=".5" d="M145.02344 347.17969l-.01953-.19922-.0586-.19531-.09375-.17579-.46094-.375-.1914-.05859-.19922-.01953-.19922.01953-.1914.0586-.46094.375-.09375.17578-.0586.1953-.01953.19923.01953.19922.0586.1914.09375.17578.46094.375.1914.0586.19922.01953.19922-.01953.1914-.0586.46094-.375.09375-.17578.0586-.1914.01953-.19922"/></g><path fill="none" stroke="#000" stroke-linecap="round" stroke-linejoin="round" stroke-miterlimit="10" stroke-width=".5" d="M158.83984 344.01172l-3.05078 6.33203m2.60547-5.41016l1.22656-.04687m12.45703-.91016l-2.89453 6.40235m2.89453-6.40235l2.44922-.15625m11.30078.39063l-3.76562 5.9336m3.76563-5.9336l2.4453.1875m11.82813.71094l-5.67969 4.13671m5.6797-4.13671l2.20702 1.0703m-3.03515-.46874l1.10547.53515m13.71093.86329l-7.02734.13671m7.02734-.13671l1.19141 2.14453m-2.21484-2.125l1.1914 2.14453m11.96485.53125l-4.66407-5.2539m4.66407 5.2539l-.85157 2.30078m.17578-3.0664l-.85546 2.30077m.17578-3.0625l-.42969 1.14844m15.64063-.22265l-5.7422-4.05079m5.7422 4.05079l-.3086 2.43359m-.52734-3.02344l-.3086 2.4336M254 347.66015l-6.96094-.96485m6.96094.96485l.84375 2.30468m-1.85547-2.4453l.84375 2.30468m-1.85547-2.44531l.42188 1.15234m14.84765-2.1914l-6.82422 1.67577m6.82422-1.67578l1.63672 1.82813m-2.6289-1.58594l1.63671 1.83203m-2.6289-1.58594l.8164.91407m14.0625-2.41016l-5.98046 3.6914m5.98046-3.6914l2.1172 1.23828m-2.98829-.70312l2.1211 1.23828m11.59374-2.3789l-5.03906 4.90234m5.03906-4.90235l2.33594.75m-3.07031-.03515l1.16797.375m13.38281-.4336l-6.03906 3.58985m6.03906-3.58985l2.09766 1.27344m-2.97657-.75l1.05079.63672m13.16406-1.125l-6.08203 3.52344m6.08203-3.52344l2.08203 1.29687m-2.96875-.78515l1.04297.64844m12.60156-1.88282l-4.96875 4.96875m4.96875-4.96875l2.34766.71485m-3.07032.0078l1.17579.35548m13.60937.02344l-6.46094 2.76171m6.46094-2.76171l1.91016 1.53906m-2.85157-1.13672l.95704.76953m13.5703.51953l-7-.61719m7 .6172l.95704 2.2578m-1.97656-2.34765l.47656 1.1289m13.82422-1.90625l-6.9375 1.11329m6.9375-1.11329l1.48047 1.95704m-2.48828-1.79688l1.48046 1.95703m12.66016-2.8086l-6.57031 2.4961m6.57031-2.4961l1.84375 1.6172M386 346.29296l.92187.8086m13.15625-1.59376l-6.18359 3.33985m6.1836-3.33985l2.04296 1.35938m-2.9414-.8711l1.01953.6797m13.42187-.64845l-6.64062 2.30079m6.64062-2.30079l1.79688 1.66797m-2.76172-1.33203l1.79687 1.66797m12.61329-1.52344l-6.89844 1.33985m6.89844-1.33985l1.54296 1.90625m-2.54687-1.71094l1.54297 1.90625m-2.54688-1.71093l.77344.95312m14.60547-.8789l-7.01172.41406m7.01172-.41406l1.27734 2.09375m-2.29687-2.03516l1.27734 2.09375m-2.29687-2.03516l1.27734 2.09766m14.08594-1.98438l-7.02735-.05078m7.02735.05079l1.13672 2.17187m-2.16016-2.17969l1.13672 2.17578m-2.16016-2.18359l1.13672 2.17578m-2.16015-2.1836l.5703 1.08985m15.8125-1.13672l-7.02734.08985"/><g clip-path="url(#X)"><path fill="none" stroke="#000" stroke-linecap="round" stroke-linejoin="round" stroke-miterlimit="10" stroke-width=".5" d="M467.07422 347.13281l1.17969 2.15235"/></g><path fill="none" stroke="#000" stroke-linecap="round" stroke-linejoin="round" stroke-miterlimit="10" stroke-width=".5" d="M466.05078 347.14453l1.17969 2.15235m-2.19922-2.13672l1.17969 2.15234"/><g clip-path="url(#Y)"><path fill="none" stroke="#000" stroke-linecap="round" stroke-linejoin="round" stroke-miterlimit="10" stroke-width=".5" d="M147.51172 333.96875l-7.02344-.21094"/></g><path fill="none" stroke="#000" stroke-linecap="round" stroke-linejoin="round" stroke-miterlimit="10" stroke-width=".5" d="M146.48828 333.9375l.54297 1.10156m13.57422-2.41015l-6.57813 2.46875m5.6211-2.10938l.91797.8086m12.90625-1.9961l-5.6875 4.125m5.6875-4.125l2.20703 1.07422m11.25781-.85156l-5.98438 3.67969m5.98438-3.6797l2.11719 1.2461m11.57812-.39453l-6.7461 1.97656m6.7461-1.97656l1.71485 1.7539m-2.69532-1.46484l.85547.875m13.58203-.11328l-7.02734-.125m7.02734.125l1.11328 2.1836m-2.13671-2.20313l1.11328 2.1875m12.0625.3789l-4.70313-5.21874m4.70313 5.21875l-.83594 2.30468m.15234-3.0625l-.83984 2.3047m.15625-3.06642l-.83984 2.3086m16.35156-1.91016l-6.36328-2.97656m6.36328 2.97656l.1289 2.44922m-1.05468-2.88281l.1289 2.44922m-1.05468-2.88281l.0625 1.22656m15.41797-1.48828l-6.98829-.71875m6.98828.71875l.92579 2.27343M253 334.1172l.92188 2.27344m-1.94141-2.37891l.92578 2.27344m14.38281-3.06641l-6.90625 1.28906m6.90625-1.28906l1.53125 1.91797m-2.53515-1.73047l1.53125 1.91797m-2.53516-1.73047l.76172.95703m14.21875-2.32031l-6.22266 3.26562m6.22266-3.26562l2.02734 1.38281m-2.9336-.90625l2.02735 1.38281m12.00781-2.17578l-5.84765 3.89844m5.84765-3.89844l2.16016 1.16406m11.57031-.30468l-6.67968 2.17969m6.67968-2.1797l1.76563 1.69923m11.61719-1.46875l-6.8125 1.71875m6.8125-1.71875l1.64453 1.8164m-2.63672-1.5664l1.64844 1.8164m12.5664-2.36719l-6.63281 2.32032m6.63281-2.32031l1.80469 1.66406m-2.76953-1.32813l1.80469 1.66406m12.66796-1.01562l-7.01562.35156m7.01563-.35156l1.2578 2.10938m-2.27734-2.0586l1.25782 2.10938m13.08203-1.98438h-7.02735m7.02735 0l1.15234 2.16797m-2.17578-2.16797l.57813 1.08203m13.7578-1.16406l-7.02343.16406m7.02344-.16406l1.20312 2.13672m-2.22265-2.11328l1.20312 2.13672m12.54688-4.01954l-5.85547 3.88282m5.85547-3.88281l2.16015 1.16796m-3.01172-.60546l1.07813.58593m13.38281-.61328l-6.4414 2.8125m6.4414-2.8125l1.92188 1.52344m11.61328.58984l-6.88281-1.41406m6.8828 1.41406l.69532 2.35156m-1.69531-2.55859l.6914 2.35547m13.6797-2.52734l-6.9961-.66016m6.9961.66016l.9453 2.26562m-1.96093-2.35937l.9414 2.26562M425.07812 334l.94532 2.26563m14.42187-2.35938l-7.02734-.08594m7.02734.08594l1.125 2.17969m-2.14844-2.1914l1.125 2.17968m-2.14843-2.19531l1.1289 2.18359m-2.14843-2.19531l.5625 1.08984m15.80859-1.36719l-7.00781.54688m7.00781-.54688l1.3164 2.07032m-2.33593-1.9922l1.3164 2.07032m-2.33593-1.98828l1.3164 2.07031m-2.33593-1.99219l.66015 1.03516m15.67188-1.59375l-6.92578 1.1875"/><g clip-path="url(#Z)"><path fill="none" stroke="#000" stroke-linecap="round" stroke-linejoin="round" stroke-miterlimit="10" stroke-width=".5" d="M467.02344 333.26953l1.5039 1.9375"/></g><path fill="none" stroke="#000" stroke-linecap="round" stroke-linejoin="round" stroke-miterlimit="10" stroke-width=".5" d="M466.01563 333.4414l1.5039 1.94141m-2.51172-1.76953l1.5039 1.9414"/><g clip-path="url(#aa)"><path fill="none" stroke="#000" stroke-linecap="round" stroke-linejoin="round" stroke-miterlimit="10" stroke-width=".5" d="M147.34375 319.46484l-6.6875 2.16407"/></g><path fill="none" stroke="#000" stroke-linecap="round" stroke-linejoin="round" stroke-miterlimit="10" stroke-width=".5" d="M147.34375 319.46484l1.76172 1.70704m11.48828-1.89063l-6.55469 2.53516m6.55469-2.53516l1.85547 1.60547m11.11328-2.27344l-5.86328 3.8711m5.86328-3.8711l2.15625 1.17188m11.6211-.14844l-6.78907 1.82422m6.78906-1.82422l1.67188 1.78906m11.75781-1.05078l-7.01953.34375m7.01953-.34375l1.25781 2.10938m-2.27734-2.0586l.625 1.05469m13.64063-.22656l-6.88282-1.41407m6.88281 1.41407l.69532 2.35546m-1.69531-2.55859l.6914 2.35156m13.17969-1.01953l-5.99219-3.67187m5.99219 3.67187l-.15234 2.44922m-.71875-2.98047l-.15235 2.44531m-.71875-2.98046l-.15234 2.44921m-.72266-2.98437l-.07422 1.22266m16.41016-.56641l-6.80078-1.78125m6.80078 1.78125l.5664 2.38672m-1.55468-2.64453l.5625 2.38672m-1.55469-2.64844l.28516 1.19531m15.125-1.48828l-7.02735-.15625m7.02735.15625l1.10156 2.1914m-2.125-2.21484l1.10156 2.1914m-2.125-2.21093l.55078 1.09375m14.66797-2.11719l-6.74219 1.97657m6.7422-1.97657l1.71484 1.75782m-2.69532-1.46875l1.71485 1.7539m11.9375-3.26562l-5.45703 4.42578m5.45703-4.42578l2.26172.95703m-3.0547-.3125l1.12891.47656m12.8125-1.3125l-5.125 4.8086m5.125-4.8086l2.32422.79297m-3.07031-.09375l1.16406.39453M306.29687 323l-5.03125-4.90625m4.29688 4.19531l-.34375 1.17578m15.39062-2.97265l-7.02734.10937m7.02734-.10937l1.1836 2.14844m-2.20703-2.13282l.59375 1.07422m13.6914-1.64844l-6.91797 1.22657m6.91797-1.22657l1.51172 1.9336m-2.51953-1.7539l1.51172 1.93358m12.8125-2.10546l-6.92188 1.21484m6.92188-1.21484l1.50781 1.93359m-2.51562-1.75781l1.50781 1.9336m12.67969-2.63673l-6.65235 2.26953m6.65235-2.26953l1.78906 1.67969m-2.75781-1.35156l.89453.83984m13.26562-1.47656l-6.40625 2.88672m6.40625-2.88672l1.94141 1.5039m-2.8711-1.08593l.96876.7539m12.86328-1.86718l-5.57813 4.27343m5.57813-4.27343l2.23047 1.01953m-3.04297-.39844l1.11718.51172M399.75 318.3789l-5.52734 4.33593m4.72265-3.70312l1.1211.4961m12.875 3.35937l-5.28125-4.63672m5.28125 4.63672l-.56641 2.38672m14.10937-2.6797l-5.73828-4.05468m5.73828 4.05469l-.30859 2.4336m-.52344-3.02344l-.15625 1.21875m14.83203-3.5586l-6.79296 1.8086m6.79296-1.8086l1.66797 1.79297m-2.65625-1.53125l.83594.89844m13.42578-1.30078l-6.71094 2.08593m6.71094-2.08593l1.74219 1.72656m-2.71875-1.42188l1.74219 1.72657m-2.71875-1.42188l1.74218 1.72656m-2.71875-1.42578l.8711.86328m15.21875-2.17968L460.36328 322"/><g clip-path="url(#ab)"><path fill="none" stroke="#000" stroke-linecap="round" stroke-linejoin="round" stroke-miterlimit="10" stroke-width=".5" d="M466.76172 319.09766l1.94531 1.49609"/></g><g clip-path="url(#ac)"><path fill="none" stroke="#000" stroke-linecap="round" stroke-linejoin="round" stroke-miterlimit="10" stroke-width=".5" d="M465.83203 319.51953l1.9414 1.4961"/></g><path fill="none" stroke="#000" stroke-linecap="round" stroke-linejoin="round" stroke-miterlimit="10" stroke-width=".5" d="M464.89844 319.9414l1.94531 1.4961"/><path fill="#00f" fill-rule="evenodd" d="M445.9375 476.52344h8.61719V466.3789h-8.61719v10.14453"/><path fill="azure" fill-rule="evenodd" d="M447.76953 468.21094h.83203v2.82422h3.28906v-2.82422h.83204v6.48047h-.83204v-2.91407h-3.28906v2.91407h-.83203v-6.48047"/><path fill="#ff3030" fill-rule="evenodd" d="M335.67188 454.33203h7.6953V444.1875h-7.6953v10.14453"/><path fill="azure" fill-rule="evenodd" d="M337.5039 446.01953h.83594v5.73828h3.19141V452.5h-4.02734v-6.48047"/><path fill="#ff3030" fill-rule="evenodd" d="M269.09766 441.01953h7.6914V430.8711h-7.6914v10.14844"/><path fill="azure" fill-rule="evenodd" d="M270.92969 432.70703h.83203v5.73828h3.19531v.73828h-4.02734v-6.47656"/><path fill="#00f" fill-rule="evenodd" d="M392.67578 427.70313h8.6211v-10.14454h-8.6211v10.14454"/><path fill="azure" fill-rule="evenodd" d="M394.51172 419.39063h.83203v2.82421h3.28516v-2.82421h.83203v6.48046h-.83203v-2.91796h-3.28516v2.91796h-.83203v-6.48046"/><path fill="#00f" fill-rule="evenodd" d="M224.01953 414.38672h8.61719v-10.14453h-8.61719v10.14453"/><path fill="azure" fill-rule="evenodd" d="M225.85156 406.07422h.83594v2.82422h3.28516v-2.82422h.83203v6.48047h-.83203v-2.91406h-3.28516v2.91406h-.83594v-6.48047"/><path fill="#00f" fill-rule="evenodd" d="M370.48438 401.07422h8.62109v-10.14844h-8.6211v10.14844"/><path fill="azure" fill-rule="evenodd" d="M372.3164 392.76172h.83594v2.82031h3.28516v-2.82031h.83203v6.47656h-.83203v-2.91406h-3.28516v2.91406h-.83593v-6.47656"/><path fill="#ff3030" fill-rule="evenodd" d="M442.1914 383.32031h7.69532v-10.14844h-7.69531v10.14844"/><path fill="azure" fill-rule="evenodd" d="M444.02734 375.00781h.83204v5.73828h3.1953v.7422h-4.02734v-6.48048"/><path fill="#ff3030" fill-rule="evenodd" d="M282.41406 374.4414h7.6914v-10.14452h-7.6914v10.14453"/><path fill="azure" fill-rule="evenodd" d="M284.2461 366.1289h.83202v5.7422h3.19532v.73827h-4.02735v-6.48046"/><path fill="#ff3030" fill-rule="evenodd" d="M193.64453 347.8125h7.69531v-10.14453h-7.6953v10.14453"/><path fill="azure" fill-rule="evenodd" d="M195.47656 339.5h.83594v5.73828h3.1914v.74219h-4.02734V339.5"/><path fill="#ffffe0" fill-rule="evenodd" d="M293.07422 427.9336h22.17969v-10.19141h-22.1797v10.1914"/><path fill-rule="evenodd" d="M296.57422 419.57422h.50781v6.29687h-.78515v-4.49218h-1.39063v-.5547l.5625-.0625.25-.05468.23047-.08984.20312-.14063.17579-.21094.14062-.29687.10547-.39453m4.8125 0l.23047.01953.21875.05469.20703.08984.19922.1211.1836.15234.17187.17187.30078.42188.24219.49219.17968.54687.11328.57813.03516.59375-.03516.59375-.11328.58203-.17969.55469-.24218.5-.30078.42968-.17188.17969-.1836.15234-.19921.125-.20703.08985-.21875.0586-.23047.01952-.22656-.01953-.22266-.0586-.20703-.08984-.19531-.125-.1836-.15234-.17187-.17969-.30078-.42969-.2461-.5-.17969-.55468-.10937-.58203-.03906-.59375h.83203l.03125.5625.08203.5039.125.44531.16406.375.1875.30079.21094.21875.22266.13671.22656.04688.22656-.04688.22266-.13671.21094-.21875.1914-.30079.16406-.375.125-.4453.08204-.50391.02734-.5625-.02735-.5625-.08203-.5-.125-.4375-.16406-.36329-.1914-.29296-.21094-.21485-.22266-.13281-.22656-.04297-.22656.04297-.22266.13281-.21094.21485-.1875.29296-.16406.36329-.125.4375-.08203.5-.03125.5625h-.83203l.03906-.59375.10938-.57813.17968-.54687.2461-.4922.30078-.42187.17187-.17187.1836-.15235.1953-.12109.20704-.08984.22266-.05469.22656-.01953m5.09375 0h.50781v6.29687h-.78515v-4.49218h-1.39063v-.5547l.5586-.0625.2539-.05468.23047-.08984.20312-.14063.17188-.21094.14453-.29687.10547-.39453m2.82031 2.17578h.78906l.01954-.3164.05859-.28516.10156-.2539.13672-.21485.1836-.17188.22265-.1289.26563-.08204.30859-.02734.23828.01953.22266.0625.20312.10156.17969.14063.14844.17188.11328.20703.07031.23437.02734.26563-.02343.26953-.06641.22265-.10938.19141-.15625.17188-.19921.16406-.2461.16406-.63672.39063-.53515.3125-.4375.3164-.34766.32422-.26172.33594-.1914.35156-.125.3711-.07032.39062-.01953.42187h4.21094v-.74218h-3.33203l.08203-.28516.11328-.23438.14844-.20312.1875-.17969.23047-.17187.28125-.17578.71484-.41407.41797-.20703.34375-.23047.28125-.25.21875-.26953.16406-.27734.11328-.28516.0625-.28515.01954-.28125-.04297-.38282-.1172-.34765-.1914-.3086-.25-.26171-.30078-.21094-.34765-.16016-.37891-.09765-.40625-.03516-.4375.03515-.39844.09766-.35156.16797-.30469.23438-.25.30078-.1875.375-.11328.4453-.04297.51954"/><path fill="#ffffe0" fill-rule="evenodd" d="M414.76563 419.0586h22.17968v-10.19141h-22.17969v10.1914"/><path fill-rule="evenodd" d="M418.26172 410.69922h.51172v6.29297h-.78906v-4.48828h-1.38672v-.5547l.55859-.0664.2539-.05469.22657-.08984.20312-.14062.17579-.21094.14062-.29297.10547-.39453m4.8164 0l.22657.01953.21875.05469.21094.08984.1953.1211.1836.14843.17188.17578.30078.41797.24219.4961.18359.54687.10937.57813.03907.58984-.03907.59375-.10937.58594-.1836.55469-.24218.5-.30078.42968-.17188.17969-.1836.15234-.1953.1211-.21094.09375-.21875.0586-.22656.01952-.23047-.01953-.21875-.0586-.20704-.09374-.19921-.1211-.1836-.15234-.17187-.17969-.30078-.42969-.2422-.5-.17968-.55468-.11328-.58594-.03906-.59375h.83594l.02734.5625.08203.50781.125.4414.16406.375.1914.30079.21095.22266.22265.13671.22656.04688.22657-.04688.22265-.13671.21094-.22266.1875-.30078.16406-.375.125-.4414.08204-.50782.03125-.5625-.03125-.5586-.08204-.5039-.125-.4336-.16406-.36718-.1875-.28906-.21094-.21485-.22265-.13281-.22656-.04297-.22657.04297-.22265.13281-.21094.21485-.1914.28906-.16407.36719-.125.43359-.08203.5039-.02735.5586h-.83593l.03906-.58984.11328-.57813.17969-.54687.24219-.4961.30078-.41797.17187-.17578.1836-.14844.19921-.12109.20704-.08984.21875-.05469.23046-.01953m5.08985 0h.50781v6.29297h-.78515v-4.48828H426.5v-.5547l.5625-.0664.25-.05469.23047-.08984.20312-.14062.17579-.21094.14062-.29297.10547-.39453m2.82422 2.17578h.78515l.01954-.3164.05859-.28516.10156-.2539.14063-.21485.17968-.17578L432.5 411.5l.26563-.07813.30859-.02734.23828.01953.22266.0625.20312.10156.17969.14063.14844.17188.11328.20703.07422.23437.02343.26563-.01953.26562-.0664.22656-.10938.19141-.15625.17188-.20312.16015-.2461.16797-.63281.39063-.53906.3125-.4375.3164-.34375.32422-.26563.33594-.1914.35156-.125.36719-.06641.39453-.02344.41797h4.21485v-.73828h-3.33594l.08594-.28516.11328-.23828.14844-.19922.1875-.17969.23046-.17187.27735-.17578.71875-.41797.41406-.20313.34375-.23047.28125-.2539.22266-.26563.16015-.27734.11328-.28516.0625-.28515.01954-.28125-.03907-.38282-.1211-.34765-.1914-.3086-.25-.26171-.30078-.21485-.34765-.15625-.37891-.09765-.40625-.03516-.4336.03125-.39843.10156-.35547.16406-.30469.23438-.25.30469-.1836.375-.11718.4453-.03906.51954"/><path fill="#ffffe0" fill-rule="evenodd" d="M213.03125 366.3789h22.17969v-10.1914h-22.17969v10.1914"/><path fill-rule="evenodd" d="M216.53125 358.02344h.50781v6.29297h-.78515v-4.48829h-1.39063v-.55859l.5625-.0625.25-.05469.23047-.08984.20313-.14063.17578-.21093.14062-.29297.10547-.39453m4.8125 0l.23047.01562.21875.0586.20703.08984.19922.11719.1836.15234.17187.17578.30078.41797.24219.49219.17968.54687.11328.58204.03516.58984-.03516.59375-.11328.58203-.17968.55469-.2422.5039-.30077.42579-.17188.17968-.1836.15235-.19921.125-.20703.09375-.21875.05468-.23047.01954-.22656-.01954-.22266-.05468-.20703-.09375-.19531-.125-.1836-.15235-.17187-.17969-.30078-.42578-.2461-.5039-.17968-.55469-.10938-.58203-.03906-.59375h.83203l.03125.5625.08203.50781.125.4414.16406.375.1875.30079.21094.21875.22266.14062.22656.04688.22656-.04688.22266-.14062.21094-.21875.1914-.30078.16406-.375.125-.4414.08204-.50782.02734-.5625-.02734-.5625-.08203-.5-.125-.4336-.16407-.36718-.1914-.29297-.21094-.21485-.22266-.1289-.22656-.04688-.22656.04688-.22266.1289-.21094.21485-.1875.29297-.16406.36719-.125.43359-.08203.5-.03125.5625h-.83203l.03906-.58985.10938-.58203.17968-.54687.2461-.49219.30078-.41797.17187-.17578.1836-.15234.19531-.11719.20703-.08984.22266-.0586.22656-.01562m5.09375 0h.50781v6.29297h-.78515v-4.48829h-1.39063v-.55859l.5586-.0625.2539-.05469.23047-.08984.20313-.14063.17187-.21093.14453-.29297.10547-.39453m2.82031 2.17187h.78906l.01954-.3164.05859-.28516.09766-.25.14062-.21875.1836-.17188.22265-.1289.26563-.08203.30859-.02735.23828.02344.22266.0625.20312.10156.17969.13672.14844.17578.11328.20313.07031.23828.02734.26172-.02343.26953-.0664.22656-.10938.1914-.15625.17188-.19922.16016-.2461.16797-.63672.38672-.53515.3125-.4375.3164-.34766.32813-.26172.33203-.1914.35156-.125.3711-.07031.39453-.01954.41797h4.21094v-.7422H230l.08203-.28124.11328-.23828.14844-.20313.1875-.17969.23047-.17187.28125-.17578.71484-.41406.41797-.20704.34375-.23046.28125-.25.21875-.26954.16406-.27734.11328-.28125.0625-.28515.01954-.28125-.04297-.38282-.11719-.35156-.1914-.30469-.25-.26562-.30079-.21094-.34765-.16016-.37891-.09765-.40625-.03125-.4375.03125-.39844.09765-.35156.16797-.30469.23438-.25.30469-.1875.37109-.11328.44922-.04297.51562"/></g></defs><use xlink:href="#ad"/></svg>