<svg xmlns="http://www.w3.org/2000/svg" role="img" xmlns:xlink="http://www.w3.org/1999/xlink" viewBox="142.45 309.95 326.84 171.84"><defs><clipPath id="a"><path d="M144 311.67188h1v168.65625h-1zm0 0"/></clipPath><clipPath id="b"><path d="M144 311.67188h324v168.65625H144zm0 0"/></clipPath><clipPath id="c"><path d="M467 311.67188h1v168.65625h-1zm0 0"/></clipPath><clipPath id="d"><path d="M144 477h3v3.32813h-3zm0 0"/></clipPath><clipPath id="e"><path d="M155 476h4v4.32813h-4zm0 0"/></clipPath><clipPath id="f"><path d="M168 476h5v4.32813h-5zm0 0"/></clipPath><clipPath id="g"><path d="M182 476h4v4.32813h-4zm0 0"/></clipPath><clipPath id="h"><path d="M193 478h8v2.32813h-8zm0 0"/></clipPath><clipPath id="i"><path d="M208 476h5v4.32813h-5zm0 0"/></clipPath><clipPath id="j"><path d="M220 477h7v3.32813h-7zm0 0"/></clipPath><clipPath id="k"><path d="M233 479h8v1.32813h-8zm0 0"/></clipPath><clipPath id="l"><path d="M247 478h7v2.32813h-7zm0 0"/></clipPath><clipPath id="m"><path d="M252 479h3v1.32813h-3zm0 0"/></clipPath><clipPath id="n"><path d="M260 478h8v2.32813h-8zm0 0"/></clipPath><clipPath id="o"><path d="M265 479h3v1.32813h-3zm0 0"/></clipPath><clipPath id="p"><path d="M273 478h8v2.32813h-8zm0 0"/></clipPath><clipPath id="q"><path d="M286 479h9v1.32813h-9zm0 0"/></clipPath><clipPath id="r"><path d="M292 479h2v1.32813h-2zm0 0"/></clipPath><clipPath id="s"><path d="M300 478h8v2.32813h-8zm0 0"/></clipPath><clipPath id="t"><path d="M305 480h2v.32813h-2zm0 0"/></clipPath><clipPath id="u"><path d="M313 478h8v2.32813h-8zm0 0"/></clipPath><clipPath id="v"><path d="M326 479h9v1.32813h-9zm0 0"/></clipPath><clipPath id="w"><path d="M332 480h2v.32813h-2zm0 0"/></clipPath><clipPath id="x"><path d="M339 479h9v1.32813h-9zm0 0"/></clipPath><clipPath id="y"><path d="M345 480h2v.32813h-2zm0 0"/></clipPath><clipPath id="z"><path d="M353 479h8v1.32813h-8zm0 0"/></clipPath><clipPath id="A"><path d="M359 480h1v.32813h-1zm0 0"/></clipPath><clipPath id="B"><path d="M366 479h9v1.32813h-9zm0 0"/></clipPath><clipPath id="C"><path d="M372 480h2v.32813h-2zm0 0"/></clipPath><clipPath id="D"><path d="M380 479h8v1.32813h-8zm0 0"/></clipPath><clipPath id="E"><path d="M385 480h2v.32813h-2zm0 0"/></clipPath><clipPath id="F"><path d="M393 479h8v1.32813h-8zm0 0"/></clipPath><clipPath id="G"><path d="M399 480h2v.32813h-2zm0 0"/></clipPath><clipPath id="H"><path d="M406 479h9v1.32813h-9zm0 0"/></clipPath><clipPath id="I"><path d="M412 480h2v.32813h-2zm0 0"/></clipPath><clipPath id="J"><path d="M419 479h9v1.32813h-9zm0 0"/></clipPath><clipPath id="K"><path d="M425 480h2v.32813h-2zm0 0"/></clipPath><clipPath id="L"><path d="M433 478h8v2.32813h-8zm0 0"/></clipPath><clipPath id="M"><path d="M439 478h4v2.32813h-4zm0 0"/></clipPath><clipPath id="N"><path d="M446 478h8v2.32813h-8zm0 0"/></clipPath><clipPath id="O"><path d="M453 478h3v2.32813h-3zm0 0"/></clipPath><clipPath id="P"><path d="M460 478h7v2.32813h-7zm0 0"/></clipPath><clipPath id="Q"><path d="M144 465h4v4h-4zm0 0"/></clipPath><clipPath id="R"><path d="M144 452h4v3h-4zm0 0"/></clipPath><clipPath id="S"><path d="M144 439h4v2h-4zm0 0"/></clipPath><clipPath id="T"><path d="M144 426h4v2h-4zm0 0"/></clipPath><clipPath id="U"><path d="M144 412h4v4h-4zm0 0"/></clipPath><clipPath id="V"><path d="M144 398h4v5h-4zm0 0"/></clipPath><clipPath id="W"><path d="M144 385h4v5h-4zm0 0"/></clipPath><clipPath id="X"><path d="M144 371h4v6h-4zm0 0"/></clipPath><clipPath id="Y"><path d="M144 358h4v5h-4zm0 0"/></clipPath><clipPath id="Z"><path d="M144 345h4v4h-4zm0 0"/></clipPath><clipPath id="aa"><path d="M466 345h2v3h-2zm0 0"/></clipPath><clipPath id="ab"><path d="M465 345h3v3h-3zm0 0"/></clipPath><clipPath id="ac"><path d="M144 332h4v3h-4zm0 0"/></clipPath><clipPath id="ad"><path d="M466 331h2v3h-2zm0 0"/></clipPath><clipPath id="ae"><path d="M465 332h3v3h-3zm0 0"/></clipPath><clipPath id="af"><path d="M144 320h4v1h-4zm0 0"/></clipPath><clipPath id="ag"><path d="M466 318h2v2h-2zm0 0"/></clipPath><g id="ah" clip-path="url(#clip1)"><path fill="#fff" fill-opacity="0" fill-rule="evenodd" d="M0 0h1000v1000H0zm0 0"/><path fill="#d3d3d3" fill-opacity="0" fill-rule="evenodd" d="M162.15234 355.86719l-.23437.29297.0586.23437.11718.17188.17578.23437.29297.34766.11328.0586.11719-.17188.0586-.23438.17577-.17578.46485-.17578h.69922l.23437.29297.28906.8164.0586.17579.17578.23046.35156.23438.69922.69922.17188.17578.23437.34765.23438.41016.28906.58203.41015.46485.23047.23437.23438.17578.11719.23047.17578.29297.17187 1.16406v.23438l.0586.28906.05859.11719.11719.11719.34765.41015.11719.17188.17578.17578.17578.23437.11719.17188.17188.35156.05859.23438.23437.40625.23438-.0586-.17578.17578-.0586.92969h-.58203l-.23437-.11328-.34766.11328-.11719.11719-.05859.29297-.0586.17578-.11718.17187-.46484.29297-.0586.23438-.0586.11328v.64453l.0586.17187v.41016l.0586.0586v.40624l.05859.40625.11719.17579.05859.05859.23047.64062-.0586.29297v.69922l-.05859.58203v.23438l-.0586.23047-.05468.35156v1.92187l.05469.1172h.42578l-.36719.11718-.02344.35156.89063 1.16797 1.74219.53906 1.33984.35938v.53906l.08984.8086.53516.71484 1.51953.26953.89063-.08594.08984 1.16406.53516.1797 1.16015-.1797 2.05469-.98437 1.16016-.36328 1.8789-.17578 1.69531-.1797-.17968.71876-1.51563.08594-1.25.08984-.80469.26953-1.07421.8086.26953.71875.53515.89843-.17968.625-.26563.8086.26563 1.07812.625.89844.80468.17969 1.25-.1797-.26562.72267.09766.5039.05468.29297v.17188l.0586.29296v.40625l.17578.1172.35156.11718h.40625l.29297-.17578.11328-.11719.0586-.11719.11718-.23047.0586-.17578.35156-.46484.23047-.17578.17578-.0586.17578.0586.0586.17578.11718.98828.05469.46875.0586.17188.11718.23437.17578.0586.8164.05859h.28907l.11719.23437.05859.40625.0586.35156v1.10547l.11718.29297.11719.34766.28906.69922.17578.35156.58203.7539.35157.17579.17187.0586.46875.23437.64063.46484.34765.23438.29297.17578.29297.05468.23047.0625.8164.34766.29297.17578.11328.17188.35157.35156.11719.17578.52343.64063v.28906l.0586.35156v.34766l.05859.35156.0586.28906.11718.0586.17188.05859h.17578l.58203.23437.17578.1172.17578.28905.17578.23438.11328.23437.29297.23047.11719.11719v.41016l.0586.05468.28906.23438.23437.11719.0586.11718.11718.17188.0586.11719.23047.23437.05859.17578.23437.0586.1172.05859-.1172.11328-.05859.11719v.11719l-.11719.29296-.11719.28907v.58203l.17579.11719.11718.05859.0586.11719.11719.11719.11328.05859.17578.34765.0586.35157.05858.40625v.17578l-.05859.17578-.11719.69922v.17187l.1172.17579.29296.29296h.40625l.17578.1172.11719.17187.11719.29296v.23438h-.52735l-.23047-.23438h-.23437l-.17578.0586-.0586.69922.0586.34765.11719.17579.17578.41015.11718.23047.28907.46875.17578.05469h.52344l.23437.0586.75781.64062.0586.29296v.23438l.05859.0586.23047.34765v.35156l-.11719.17188v.29297l.29297.28906.29297.17578.17187.0586.29297.17577.29297.1172.58203.40624.28906.23438.29297.17578.21875.16015.01563.01172.23047.17579.64062.52343.17578.23438.1172.17578.17577.17578.11328.17188v.64062l.1172.17578.46874.11719.58203.11719.23438.05859.23047.11328.29297.11719.11328.0586.58593.35156.28907.17187.17578.0625.17578.05469.17578.0586.69922.35155.28906.17579.23438.05468.28906.17578.23437.1172.64063.40624.29297.11719.17187.0586.23438.05859.41015.05859.23047.0586.23438.11718.0586.17188-.41017.17578.46875.0586.0586.29296.11328.23438.17578.05468.23438.0586.17578.05859.40625.11719.64062.23437.11719.17188.0586.23437v.17578l-.0586.1172-.0586.40624.23438.23438.11719.05859.34766.11719.64062.23047.17578.11718.28906.1172.17578.17577.23438.46485.58203 1.10546.17578.17579.34766.17578.17578.11719.35156.11718 1.04688.52344.23437.0586.46485.11327.29297.0586.46484.17578.75781.58203.23438.23438.34765.46484.17578.17578.28907.23438.8164.69921.29297.17579.28906.28906.29297.17578.29297.28906.69531.64063.17578.17578.29297.23437.28907.23438.46875.28906.64062.58203.34766.23438.23437.29297.34766.34765.35156.46485.9336.99218.34765.40625.11719.17579.23437.05859.11328.11719.64454.17578.23047.11328.23437.0586.29297.17577.23047.1172.9336.69921.40624.40625.23438.17578.40625.17578.23437.11719.8164.34766.34766.23437.23438.11719.29297.28906.23047.11719.7578.35156.35157.17188.23047.05859.29297.11719.23437.0586.8711.17577h.8164l.46875.23047.17188.0586.875.69921.46484.1172.29297.05858.17578.0586.23047.0586.46875.05859.34766.05859.35156.0586.40625.05859h.29297l.17187.0586v.23046l.17578.17578h.29297l.34766.0586.35156.05859.69922.11719h.64063l.46484-.23438.29297-.17578.17187-.11719.41016-.17187.28906-.17578.9336-.46485.46875-.29297.52343-.29296.46485-.17188.46484-.17578 1.05078-.46485.28906-.11718.41016-.11719.28906-.11719.52735-.17578 1.51562-.69922.58203-.34765.28907-.0586.29297-.0586.34765-.11718.875-.23047.35156-.11719h.11329l.23437-.05859.875-.23437.23438-.0586h.8125l.35156-.0586.8164-.11718.17188-.0586.35156-.05468.29297-.0586.23047-.05859.8164-.17578.17579-.0586h.34765l.23438-.05859.46484-.11718.75781-.17188.23438-.0586h.34765l.41016-.11718.28906-.0586 1.28516-.05859h.28906l.41016-.0586.23047-.05858h.17578l.875-.1172h.40625l.41015-.11718h.34766l.35156-.11328.8711-.0586h1.75l1.04687.28907.41016.11719.28906.11718.35156.11719.28907.11719 1.05078.17187.28906.0586h.29297l.29297.05859.17187.0586.41016.05859.17187.0586.1172.05858h.11718l.11719.0586.35156.0586h.11328l.41016.0664 1.92187.39453 1.92578.39453 1.51953.44922 1.69532.71875 2.14453.80469 1.60547-.71875 1.42968-.80469 1.16016-1.07813 1.25-.44921 3.03516-.71875 1.875-.35938 2.14453-1.34765 2.23437-1.25391 2.5-1.25781 1.69531-.44922 1.78516-.17969 1.16016-.26953.625.53906 1.33984-.26953.71485-.98828.98437-1.34375.44531-.17969.80469-.35937 1.875-.53907 1.78516-.44921 1.25-.26954 1.16015-.08984 1.69922-.08984 1.96094-.26954 1.25-.08984h.53906l.625-.08984h.89063l2.14453-.17969 2.41015-.17969 2.58985-.08984 1.69531.17969 1.60938.08984 1.42968.35938 1.16016.71875 1.875.98828 1.16015 1.52734.26563.71484.6289.08985.35548.89844.53515.53906.53516 1.52734 1.07422.35938h.53515l-.80469.53515.08985 1.70703.71484 2.69532.89063.80468.89453.98829.71484 1.2578 1.78516.53907 1.51953-.17969.35547 1.34375 1.60937-.80469.98047-.53906.26953.26953.31641-.21484.21875-.14453.80078.44922.44922-.35938h.35547l.53515-.26953.53907-.71875.53515-.26953.625-.98828 1.16016.44922.83984.3711 1.39454.61718 1.6953-.17969h1.60548l1.78515.08985.17969-1.70704.53516-1.34375.80468.26954.4922.84765.40233.40625-.08984.53906v.35938l.71485.44922.71093-.26953h1.42969l.35938.98828.4453 1.25781.71485 1.34375 1.25.6289 1.69531.62891.71485-.17969.17969-.53906.98046-.08984.44922.35937.08594 1.25782-.26563.6289-.53515.17969v.53906l.71484.98438.26563.53906.98437.98828.80078 1.07813-.26562.35937-.08985.89844-.625 2.33203-.35546 2.0664-.08985 1.79298-.17969.71875-.08984.53906v1.4375l-.98047 1.88281-.35937 1.70703-.53516.89844-.80469 1.16797-.26562.53906 2.05469 1.2539.08593.35938-.35546.53906-.08985-.17968v.80859l.08985 1.4375-.44532.71484-1.07422.09375-.26562.71485.53515.89844.8047.71875 1.16015.80859 1.33984.26953.44531.35938-.35546.44921-1.78907-.08984-1.25-.44922-.71484-.71875-.625-.08984-.17578 3.58984-.1875 1.3086h89.35937V311.70313h-55.26953v49.08203l.76172.125 3.28906.54296 2.02344 2.83594v2.7539l2.35156.33204 2.34766.33203h4.05078l-1.3789 4.16016-2.02344.70703-2.02344.70312-.54297.34375-2.59375 1.6172-.1875.11718-2.02344-2.07813-.73046-2.74218-2.67188-2.07813-1.375-3.5-.0664-.08203-1.95704-2.67188 2.75-1.41796v-49.08204H294.42187v91.41407l.1172.03125.1328.01172.07422.07421.10547.04688.08985.0586.08593.05859.08985.0586.29687.29687.0586.08984.03125.11719.02734.11719.01563.13671-.03125.1172-.0586.08983-.0586.08594-.04296.10547-.04688.10156-.02734.1211v.14453l.17578.26953.14844.14844.07422.08594.07422.07421.04296.10547.0625.08985.0586.08593.04297.10547.0586.08985.04687.10156.04296.10547.0586.08594.11719.17968.07421.07422.0625.08594.0586.08984.04297.10547.0586.08985.05858.08593.0625.08985.0586.08984.04297.10156.11719.17969.07421.07422.0586.08594.07422.07421.08984.0586.10547.04687h.14844l.1328-.01562.13282.01562.10156-.04687.07422-.07422.04688-.10156-.01563-.13281v-.14844l-.04687-.10547-.02735-.11719-.04687-.10156-.02735-.1211-.04296-.10156-.0625-.08984-.04297-.10156-.04297-.10547-.03125-.11719-.01563-.13281-.01171-.13672.08593-.0586.0586-.08593.12109-.03125.04297.10547.01562.1328v.1172l.0586.10156.0586.08984.08983.0586.14844.14843.0586.08985.04296.10547-.01171.10156.08593.0586.10547.04687.08594.0586.08984.05858.07422.07422-.11719.02735-.10546.04687-.08594.0586-.07422.07421-.0586.08985-.0625.08594-.02734.12109-.04687.10156-.04297.10547-.03125.11719-.01172.13281-.01563.13281v.14844l.02735.11719.04687.10547.04297.10156.0586.08984.07421.07422.08985.0586.07422.07421.08984.0586.0586.08984.04296.10547.04688.10156.11719.03125.1328.01563h.14845l.11718-.03125.10547.04297.04297.10547.04688.10156.02734.1211L299.5 410l.02734.11719.03125.1211.02735.11718.10547.04297.10156.04687.13281-.01562.14844.14844.0625.08593.07422.07422.07031.07422.08984.0625.10547.04297.10156.04297.1172.03125.13671.01562.11719-.03125.07422-.07422.02734-.11718-.01172-.13282-.03125-.12109-.02734-.11719.04297-.10547h.11719l.08984.0625.11719.02735h.14843l.13282.01562h.14843l.13282.01563.1328-.01563h.14845l.1328-.01562.13282-.01172.13672.01172.11719-.02735.13281-.01562.1914-.0586-.05859.17579-.01562.1328-.02735.1211-.01562.13281-.0586.08594-.1328.01563-.10548.04687-.10546.04297-.1172.03125-.11718.02735-.26563.03125h-.14843l-.13281.01562-.07422.07422.05859.08594.14844.14843.11719.1797.07421.0703.08985.0625.08984.0586.08594.0586.08984.05858.10156.04297.10547.0625.10547.04297.08594.0586.10547.04687.10156.04297.17969.11719.0586.08984-.04298.10156-.04687.10547.01562.13281.22266.22266.0586.08985.04296.10156.03125.1211.04297.10155.01563.13282.03125.11718.01171.13672.03125.11719.14844.14844.10156.04297.10547.04296.1172.03125.1328.01563.13672.01563h.11719l.11719-.03125.08984-.0586.04297-.10547.04688-.10156.04296-.10547.03125-.11719.01172-.1328v-.14845l-.01172-.1328-.01562-.13282-.03125-.11719-.04297-.10547-.04688-.10547-.04296-.10156-.04297-.10547-.01563-.13281.01563-.13281.02734-.11719.03125-.11719.02735-.1211.04687-.10155.08984-.0586.08594-.0625.07422-.07422.08984-.05859.22266-.22266.0586-.08593.07421-.07422.11719-.17969.0586-.08594v-.14844l-.07423-.07421-.10156-.04688-.10547-.04297-.10156-.04297-.0586-.08984-.04687-.10547-.02734-.11719.08984-.05859.11719-.03125.10156-.04297.17969-.11719.14844-.14843.01172-.13282-.01172-.10546-.08985-.0586-.1328.01563h-.14845l-.1328.01562-.13282-.01562-.1211-.03125-.08593-.0586-.07422-.07422-.0586-.08984-.0625-.08594-.11718-.17969-.0586-.08593.03125-.1211.08594-.05859.1211-.03125.05859-.08594v-.1211l-.03125-.11718-.0586-.08984-.05859-.08594-.04687-.10547-.02735-.11719-.01562-.1328.0586-.08985.07421-.07422.08984-.0586.1172-.17968.07421-.07422.0586-.08594.14843-.14844.1211-.03125.1328-.01562.13282.01562.07422.07422.04297.10547.01562.13281-.03125.1172-.11719.03124-.1328.01172-.14844.14844-.04297.10547-.04688.10156-.02734.1211-.03125.11718v.14844l.03125.11719.04297.10546.05859.08985.07422.07031.07422.07422.11719.03125.12109.02734.11719-.02734.1328-.01563h.1172l.08984.0586.07422.07422.04687.10546.0586.08594.10156.04688.13281.01562.10547.04297.08594.0586-.01172.10546-.07422.07422-.17969.11719-.05859.08984-.08984.0586-.07032.07422-.07421.07421-.0625.08985-.02735.11719-.01562.1328.01562.13282-.01562.13281v.14844l.01562.13281.02735.1172.03125.12108.07421.07422.08985.0586.08594.0586.08984.05858.11719.03125v.08594l-.10157.04688-.08984.0586-.26563.03124-.11718.02735h-.14844l-.10547.04296-.10156.04688-.0586.08984-.0625.23438-.01171.13281-.03125.1211-.01563.1328v.29298l-.01172.1328.01172.13673.01563.1328.1328.01563.13282.01172.1211.03125.08593.0586.07422.07421.04688.10547.04296.10157.01563.1328v.44532l-.01563.13281v.44532l.03125.26562.02735.11719.01562.13281.03125.11719.08594.21094.03125.26562v.14844l-.03125.11719-.02734.11718-.03125.1211-.02735.11719-.03125.11718-.03125.1211-.01171.1328-.01563.13282.08984.0586.1172-.03125.10155.01562.04688.10547-.03125.26562v.44141l-.04297.10547-.04688.10547-.04296.10156-.04297.10547-.0586.08594-.03125.12109-.04296.11719-.03125.11719-.01563.1328.01563.13282.05859.08984.10547.04688.08594.0586.05859.08593-.01172.13672-.03125.11719-.04297.10156v.44531l-.01562.13281v.14844l-.03125.11719-.04297.10547-.02735.11719-.04687.10546-.04297.10157-.03125.12109-.02734.11719-.03125.13281-.03125.11719-.02735.11719-.04297.10546-.03125.1172-.03125.12108-.01171.13282-.01563.13281v.29688l.02734.11718v.14844l.04688.39844.02734.11719.0586.08984.12109.03125h.14844l.13281-.01563.0586.08985v.11719l-.0586.08984-.08984.0586-.10157.04296-.10546.04688-.08985.05859-.08594.0586-.13671.01562-.1172-.03125-.1328-.01563-.10157.04688-.0625.08594-.01172.13671-.01562.13282-.03125.11719-.02735.11718-.01562.13281-.03125.1211v.29687l.01563.13282.03125.11718v.14844l.01171.13281v.14844l-.02734.11719-.04688.10156-.02734.1211-.03125.11718-.0586.08985-.07421.07421-.10156.04297-.10547.04688-.11719.02734-.1211.03125-.10156-.04687.0586-.08594.10547-.04688.02734-.11718.03125-.11719.02734-.1211.03125-.11718v-.14844l.01563-.13281-.03125-.11719-.04297-.10547-.10547.01563-.07422.07422-.10156.04296-.08984.0625-.07422.07422-.04297.10157-.01563.1328-.03125.1172L304.25 426l-.03125.11719-.02734.11719-.03125.12109-.02735.11719-.03125.11718-.04297.10547-.08984.0586h-.08984l-.1172-.03125-.03124-.08594.01562-.13672-.03125-.11719v-.14844l-.01171-.1328v-.14844l-.0625-.23438-.02735-.1211-.04297-.10156-.04687-.10546-.0586-.08594-.05859-.08985-.04297-.10546-.0625-.08594-.14844-.14844-.0703-.07422-.10548-.04687-.10547-.04297-.10156-.04297-.29687-.29688-.08985-.07421-.08594-.0586-.10546-.04297-.08985-.0625-.08594-.0586-.10546-.04296-.08985-.0586-.08594-.0625-.07421-.0703-.10547-.04688-.08594-.0586-.10547-.04296-.08984-.0625-.10156-.04297-.10547-.04297-.08594-.0586-.10547-.04687-.10547-.04297-.10156-.04687-.08985-.0586-.10156-.04297-.10547-.04296-.08984-.0625-.11719-.02735-.13281-.01562-.13281.01562H299.75l-.13281.01563-.11719-.03125-.08984-.0586-.07422-.07422-.08985-.05859-.10156-.04688h-.14844l-.12109-.02734-.10156-.04297-.07422-.07422-.11719-.17968-.08984-.0586-.10156-.04297-.08985-.0625-.10547-.04296-.08984-.0586-.08594-.0586-.10547-.04687-.0586-.08594-.05858-.08984-.04297-.10547-.04688-.10156-.07422-.07422-.08594-.0586-.07421-.07421-.08985-.0586-.22265-.22265-.04297-.10547-.03125-.26563.10547-.04296h.14453l.10547.04296.07421.07422.08985.0586.08594.0586.10546.04687.08985.05859.14844.14844.0703.07422.14845.14843.0625.08594.07421.07422.08594.0586.07422.07421.08985.0625.08984.0586.08594.05859.26953.17578.10156.04688.10547.04296.10156.04297.04688-.07421.05859-.08594.07422-.07422.07031-.07422.10547.04297.07422.07422.0586.08984.04296.10156.04688.10547.04296.10547.1211.02735.11719-.02735.07421-.08984.04297-.10547.0586-.08985.07422-.07421.10546-.04297.1172-.02735.1328.01172.08985.0586.14844.14843.05859.08985.04297.10547.04687.10156.04297.10547.04297.10156.10547.04688.10547.04296.13281.01563.08594-.0586.0586-.08984.07421-.07422.10547-.04297.11719.02735.10547.04687.10156.04297.10547.04297.10156.04688.17969.11718v.11719l-.01563.13281.01563.13281.01562.13672.0586.08594.10156.04688.1211.02734.11718.03125h.14844l.11719-.03125.05859-.08984.17969-.1172.05859-.08983.07422-.07422.0586-.08594.11718-.17969.17969-.11719.11719.03125.08984.0586.04297.07422-.01563.1328v.1172l.08985.05859h.14843l.13282-.01563.1328-.01171.26563-.03125.10547-.04297.11719-.03125.1211-.02735.07421-.07421.07031-.07422.0625-.08985-.01562-.10547-.04688-.10156-.10156-.04297-.10547-.01562-.11718.02734-.26563.03125h-.14844l-.07421-.07422-.08985-.0586-.11719-.03124-.11718-.02735-.13282-.01562h-.14843l-.13282.01563h-.29687l-.10547-.04688-.14844-.14844-.04297-.10156-.05859-.08984.22266-.22266.08593-.0586.10547-.04296.11719-.03125.13281-.01563.13281.01563.13672.01562.10157.04297.1328-.01172.08985-.0625.10156-.04297.0625-.08984-.04687-.10156-.08984-.0586-.1172-.03125-.10155-.04296-.0586-.08985-.0625-.08984v-.11719l.01563-.13281.10547-.04688.07421-.07031v-.1211l-.08984-.05859-.03125-.11719.08985-.05859.07421-.07422.04297-.10547.0586-.08984.04687-.10156.01563-.13281v-.14844l-.04688-.10547-.04297-.10156-.08984-.0586-.13281-.01562-.10157-.04297-.13671-.01563-.1172-.03125h-.4453l-.13282-.01562-.13281-.01172-.13281-.01563-.11719-.03125h-.14844l-.13281-.01562-.13281-.01172-.26563-.03125-.1211-.04297-.08593-.0586-.07422-.07421v-.14844l.01172-.13281.10547-.04688.10156-.04296.13281-.01563h.15235l.13281-.01562h.29297l.1211.03125.10156.04296.08984.0586.23438.0625.12109-.04688.08984-.05859.10156-.04297.13282-.01562.10547.04296.10156.04688.13281.01172.1211-.02735h.14453l.12109-.03125.11719-.02734.10547-.04687.07421-.07422.08594-.0586.14844-.14843.0586-.08594.04687-.10547.02734-.11719.01563-.10547-.10156-.04296-.08985-.0586-.11719-.03125-.10546-.04297-.08985-.0625-.07422-.08594-.07422-.07421-.10156-.04297-.10547-.04688-.10156-.04297-.0586-.08984-.04687-.10156-.08594-.21094-.0625-.08594-.05859-.08984-.07422-.07422-.08594-.0586h-.26953l-.11719.03126-.08984.05859-.10156.04297-.13281.01562-.10547-.01562-.02735-.11719-.0625-.08984-.11718-.03125-.10157-.04297-.14843-.14844-.03125-.11719-.01563-.10546.07422-.07422.17969-.1172.11719-.02733.11718-.03125.13672.01562.10156.04297.10547.04297.10156.04687.10547.04297.1172.03125.1328.01563.1172.02734.1328.01563.10547-.01563.08985-.0586-.07422-.07421-.10547-.04297-.07422-.07422-.07422-.08984-.14844-.14844-.08593-.0586-.08985-.05859-.07422-.07422-.08984-.0586-.10156-.04687-.1211-.02734-.10156-.04688-.10547-.04296-.11719-.03125-.10156-.04297-.1211-.03125h-.14843l-.11719.03125-.10546.04297-.08594.0625-.17969.11718-.08594.0586-.08984.0586-.10547.04687-.08594.05859-.10547.04297-.10156.04297-.10547.04687-.07422.07422-.05859.08985-.0586.08593-.04687.10547-.0586.08594-.07421.07422-.13281-.01172-.1172-.03125h-.11718l-.07422.07422-.08984.0586-.07422.07421-.08984.0586-.08594.05859-.10547.04687-.10156.04297-.13672.01563-.10156-.04297-.14844-.14844-.10547-.04688h-.08594l-.10547.04688-.10156.04297-.1211.03125-.11718-.03125-.07422-.07422v-.11719l.03125-.1211.07422-.0703.0586-.08985.07421-.07422.11719-.03125.10547-.04296h.29297l.13281-.01563.13672-.01563.10156-.04296.08985-.0586.10156-.04687.08984-.0586.13281-.01171.08985.05859.13281.01172.08984-.0586.08594-.05859.10547-.04297.08984-.0586.08594-.0625.08985-.05859.14843-.14843.0586-.08594.05859-.08985.10547-.04296.13281-.01563.11719.02735.1211.03125.05859-.0586.05859-.08984.03125-.26563.02734-.11719.10547.01172.13281.01563.10157-.04297.08984-.0586.0586-.08984.07421-.07422.0586-.08984.04687-.10156.01172-.13281-.01172-.13282-.04687-.10547-.14844-.14843-.0586-.08985-.05859-.08594-.04297-.10546v-.44532l.01563-.1328v-.14845l.01172-.1328-.0586-.0586-.08984.0586-.10156-.04298-.17969-.11719-.08594-.05859-.0625-.08984-.0586-.08985-.07421-.07421-.08594-.0586-.1211.03125-.10155.01172-.10547.04688-.08594.05859-.10547.04297-.14844.14844-.08984.05859-.08594.0586-.08984.0625-.10547.04296-.13281.01563v-.1211l.10547-.04297.11718-.03125.07422-.0703.04297-.10548v-.14844l-.02734-.11718-.14844-.14844-.13281-.01563h-.14844l-.11719.03125-.10547.04297-.10156.04297-.08984.0625-.11719.02735-.07422-.07422.01172-.13281-.04297-.10157-.04297-.10547-.08984-.05859-.11719.02734-.1211.03125-.11718.03125-.10156.04297-.1211.03125-.10156.04297-.10547.04297-.08984.0586-.10156.01562v-.11719l.01562-.13281-.0586-.08985-.07421.04297-.14844.14844-.0586.08985-.07421.07421-.04688.10547-.04296.10156-.07422.07422-.0586.08985-.07422.07422-.05859.08593-.07422.07422-.08984.0625-.07422.07031-.07422.07422-.10156.01563-.13281.01562-.10547-.04296v-.1211l.14843-.14844.04297-.10156.0586-.08984.04687-.10156.04297-.10547.0586-.08985.03124-.11719.04297-.10156.03125-.1211.02735-.11718.04687-.10547.04297-.10156.04297-.10547.07422-.07031.08984-.0625.08985-.0586.10156-.04296h.29687l.26563-.03125.10547-.04297-.07422-.07422-.11719-.03125-.10547-.04297-.08984-.0586-.10156-.04687-.08985-.0586-.10156-.04296-.10547-.04297-.08984-.0625-.08594-.0586-.10547-.04296-.10156-.04297-.1211-.03125-.11718-.03125-.10157-.04297L297.5 410.25l-.10156-.04297-.08985-.0586-.04296-.10546-.01563-.13281.10156-.04297.13281-.01563.13672.01563.13282-.01563.10156-.04297.0586-.08984.01562-.10547-.08985-.0586-.07421-.07421-.10157-.04297-.08984-.0586-.14844-.14843-.04297-.10547-.01562-.13281v-.29297l-.0586-.08985-.08984-.05859-.07422-.07422-.04297-.10547-.03125-.11718-.0586-.08985-.07421-.07422-.11719-.02734-.07422-.07422-.08984-.0586-.08984-.0625-.08594-.05859-.07422-.07421-.0586-.08594-.04687-.10547-.08594-.0586-.14843-.14843-.19532-.0586-.1328.01563-.10157.04297-.07422.07422-.04688.10156-.04296.10547-.0586.08984-.0586.08594-.29687.29687-.08984.0586h-.08594l-.0625-.08594-.04297-.10547.03125-.11719.0586-.08984.02734-.11719-.01172-.13281-.08984-.0625-.10547.04688-.11719.02734-.11719.03125-.26953.17578-.10156.04688-.11719.02734-.10546.04687-.08985.0586-.10156.04297-.0586-.08594-.04687-.10547.01563-.13281.04687-.10547.07031-.07422.07422-.07031.0586-.08985v-.14843l-.04297-.10547h-.23829l-.10156.04687-.03125.11719-.02734.11719-.03125.1211-.07422.04296-.13281.01563-.07422-.04688-.04297-.10156-.04297-.10547-.04687-.10156-.04297-.10547-.1211.03125-.10156.04297-.13281.01562-.11719.03125-.10547.04297-.08984.0586-.10156.04687-.1211.02734-.13281.01563-.10156-.04297-.0586-.08985-.04687-.10546-.04297-.10157-.04297-.10546v-.1172l.0586-.08984.08593-.05859.17969-.11719.10156-.04687.10547-.04297.10547-.0586.10156-.04296.08985-.0625.10156-.04297.10547-.0586.10156-.04687.08984-.0586.10547-.04296.10156-.04297.08985-.0625.10156-.04297.13672-.01563.11719.03125.10156.04297.1211.03125.10156.04297.10546.04688.10157.04296.10547.04297.10156.04688.10547.04297.10156.04297.10547.04687.08594.0586.10546.04296.1172.03125.10546.04297.10156.04688.08985.0586.10547.04296.10156.04297.10547.04687.11719.02735.10156.04687.1211.02735h.14843l.08594-.0586.01562-.10156.0586-.08984-.02735-.1172-.07422-.07421-.11719-.17969-.07421-.07422-.08985-.07421-.17969-.1172-.08593-.05859-.10547-.04296-.10156-.04688-.26954-.17578-.05859-.08985-.07422-.07421-.0586-.08985-.04296-.10156-.03125-.11719-.01563-.13672v-.5625l-.01171-.1328-.01563-.13282-.03125-.11719-.01562-.13281-.01172-.13281-.03125-.1211-.22266-.22265-.0586-.08594-.01562-.10547.03125-.11719.13281-.01562v-91.41406H172.9922v1.45312l-.0586.23438-.35156 1.05078-.17187.52343-.1172.34766-.17577.41016-.11719.17187-.23438.29297-.23046.0586h-.35157l-.11718.05859-.23047.40625v.29297l.11719.17578.23046.23047.1172.23437.64062.75781.29297.46485.17578.23437.23047.35156.23437.34766.64063.8164.17578.46485.17187.41016.11719.69531.17578.46875.11719 1.39844.0586.46484v.875l.11718 1.04688v4.78125l-.0586.46484-.35156 1.28125-.17578.52344-.11328.41015-.35156.9297L172.93359 336l-.23437.58203-.11719.17578-.17187.34766-.17578.40625-.35157.8164-.0586.29297-.11327.29297-.11719.28906-.0586.17579-.11718.875-.0586.40625-.05859.11718-.0586.17579-.05859.17187-.23047.52734-.11718.17188v.23437l-.11719.23438-.0586.17187-.17577.58594v.28906l-.0586.17579v.29296l-.0586.11329-.05859.52734v.17187l-.05468.23438v2.6211l-.17578.8164-.1172.17578-.17577.23438-.1172.17187-.11327.23438-.58594.93359-.23047.28906-.29297.46485-.17578.23437-.28906.35156-.35156.69922-.11328.23047-.17579.41016-.17578.23046-.40625.52735-.8164.69922-.29297.17187-.28906.23438-.17579.11719-.17578.17578-.52344.40625-.52734.17578-.17187.17578-.23438.05469-.64062.17578h-.75782m12.21094 31.02344l-1.07422.44921.35938.89454 1.25-.71485.44531-.53906-.98047-.08985"/><path fill="#d3d3d3" fill-opacity="0" fill-rule="evenodd" d="M201.50781 416.59766h-.89453l.44922.6289.98047.35938.80469-.08985.4453-.98828-.17577.08985-.71485-.35547-.89453.35547m154.6211 59.0703l-.0586-.52343v-.29297l.11328-.29297.0586-.23046.46875-.46875h.11328l.11719-.11329.11718-.05859h.17579l.23437-.0586h.34766l.23437.0586.11719.0586.23047.17187.0586.17578.11718.58203v.29297l-.11719.17578-.17187.28906-.17579.17579-.52734.52343-.23047.23438-.11719.0586h-.17578l-.11718-.0586-.40625-.29297-.17579-.11719-.11718-.0586-.0586-.11327-.05468-.1172m6.64062-10.95702l-.0586-.17188v-1.10937l.0586-.17188.17578-.0586.17188-.05858h.17578l.23437-.0586.1172.0586.05858.69921-.05859.17188-.11719.17578-.11718.0586-.23438.52343-.11328.0586h-.23438l-.05859-.1172m9.61328-14.39062l-.11719-.17578v-.69922l.29297-.875.1172-.17187.17577-.35156.11328-.23047.1172-.29297.35155-.75781.1172-.23047.17187-.23438h.17578l.11719-.0586h.64062l.11719.0586.23437.23438.17188.11328.35156.29297.11719.11718.11328.17579v.11328l.11719.05859.11718.11719v.69922l-.05859.17578v.23047l-.0586.17578-.34765 1.05078-.11719.23047-.11719.23437-.11718.0586-.23047.23437-.64063.28906h-.875l-.41015-.11718-.64063-.46485"/><path fill="none" stroke="#bebebe" stroke-linecap="round" stroke-linejoin="round" stroke-miterlimit="10" stroke-width=".5" d="M467.95703 311.69531H144.02734v168.625h323.9297v-168.625"/><g clip-path="url(#a)"><path fill="#fff" fill-opacity="0" fill-rule="evenodd" d="M144 475.89063v4.4375h.0039H144V311.67188h.0039H144v164.21875"/></g><g clip-path="url(#b)"><path fill="#fff" fill-opacity="0" fill-rule="evenodd" d="M144.0039 480.32813V311.67188h31.0625v119.7578l-.10937.07813-4.32812 2.79297-1.47657 1.64453-2.96093 1.51953-2.5586 2.91797-1.8789 2.60938-1.77735 1.82812-1.39844 4.4414-.78906 4.4375.32031 4.4375-.0703 4.4375 3.71484 3.65235 4.4375-.42969 4.4375-.78515 4.4375-.17578 4.4414.42187 4.4375-.26953 4.4375-.16797 4.4375-1.35156 4.4414.15234 2.23438-1.04687-2.23437-1.1836-4.4414-2.6289-1.1797-.625-3.2578-1.11719-4.4375-1.48828-4.4375-.74219-.19532-1.08984-.35156-4.4375.54687-1.35156 2.16797-3.08985 2.26953-1.49219 3.96094-2.9453-.20313-4.4375-3.7578-3.17579-4.4375 1.01563-4.34376-2.27735-.09765-.07812V311.67188h26.6328v90.86328L199.375 404.875l2.32422 3.76563 4.4375-1.28516 1.6914-2.48047-1.6914-2.07031-4.4375-.26953v-90.86329h22.1914v89.00391l-4.4375 1.26953-3.01171 2.92969 3.01172 3.09375.98828 1.34766 3.44922 3.61718 4.4375-3.16796.3828-.44922-.3828-.375-.48047-4.06641-3.95703-4.19922v-89.0039h13.3164v90.16796l-3.03906 3.03516.11719 4.4414 2.92187 4.10157 4.4375-2.4961 3.88281 2.83204-3.8828.8828-4.4375-.68358-4.44142 2.2578-4.4375-1.53906-4.4375-.03906-4.4375-.84765-.01562-.03125-4.42188-4.3047-4.4414-.08202-4.4375.42187-3.72656 3.96485.78906 4.4375 2.9375 2.96093 4.4375.58985 1.48047.88672 2.96094 2.86718.78906 1.57422 3.64844 3.73047 1.71093.70703-1.71094 4.15235-4.4375-.96875-4.4414-.33985-3.75781 1.59375-.6797.32422-.21483-.32422-4.22266-2.75-4.40234 2.75-.03516.15235-.0586-.15235-4.3828-2.41797-3.82423 2.41797 3.82422 2.57813 2.96485 1.85937 1.39843 4.4375.07813.08985 4.40625 4.35156.03125.02734.23437-.02734 4.20313-.16406.22656.16406 1.76953 4.4375-1.9961 1.32031-2.99608 3.11719-.7461 4.4375 2.20703 4.4414 1.53516.53907 2.22656-.53906 2.21094-.57813 4.4414-2.28516 2.36329-1.57812 2.07422-.83594 4.4375-1.54687 4.4375-.63282 2.73828-1.42187.91797-4.4375-3.65625-2.88672-3.85547-1.55078 3.5078-4.4414.20313-4.4375.14453-.08204 4.4375-.86719 4.44141-.30468 2.08594 1.2539 2.35156 2.0664 4.4375-.24608 1.74219-1.82032.9414-4.4375.09375-4.4375 1.66016-3.1211 4.4375.30079 4.4414.75 3.1211 2.07031 1.3164 1.625.77344 2.8125.88282 4.4375 2.78125 3.1289 4.4375.92188 3.3711-4.05078 1.0703-.55078 4.4375-1.14453 4.4375-.05078 4.4375-2.53906.125-.15235 3.89844-4.4375-2.16797-4.4375.55469-4.4414-2.41016-1.78907-4.4375-1.41015-4.4375-.625-4.4375-.16797-4.4414-.00781-4.4375-.03125-4.03125 4.03125-.40625.46875-4.4375 1.66015-4.4414-1.0039-.69142-1.125.69141-.26563 4.4414-1.11328 3.35938-3.0586.76172-4.4375.3164-3.98827.22266-.44922-.22265-.38672-2.32031-4.05469-2.1172-1.5586-4.4414.88282-.67578.67578-3.76172 3.21484-1.21875 1.22657-3.21875 3.85937-2.78516-3.85937-1.48828-4.44141-.16406-.16406-4.4375-2.8711v-90.16796h13.3125v39.66796l-.1836.27735.1836.36719.25781-.3672-.2578-.27734v-39.66796h48.82421v108.24609l-3.16406 2.71094 3.16406 3.23828.59766 1.20312 3.83984 4.01953 3.4336-4.01953-3.4336-3.78515-1.29297-.65625-3.14453-2.71094v-108.2461h13.3125v139.33985l-4.4375.04687-3.3086 2.64063-1.1289 1.04687-4.4375 1.78516-2.10156 1.60547 2.10156 1.33594 4.4375 2.375 4.4375.41796 4.4375-.25 4.4414-1.02734 3.76173-2.85156-.6797-4.4375-3.08202-2.14844-4.44141-.53906V311.67187h26.63281v105.4922l-2.625 1.02734-1.8164.78906-4.4375 1.45312-1.94141 2.19532 1.9414 1.5 4.4375.91406v21.96094l-4.4375 2.23046-.14452.02735-4.29297 1.78125-1.6211 2.65625-.26953 4.4375 1.89063.82812 4.4375 1.78125 3.61718-2.60937.82032-1.01953 4.4414-2.40625 1.58203-1.01172 1.50782-4.4375-3.08985-1.33985-4.4414-.91796v-21.96094l4.4414-.28125 2.6836-2.13281-1.54688-4.4375-1.13672-1.02735V311.67187h17.7539V432.0625l-4.4414.02734-4.4375.2422-3.02344 3.61327 3.02344 2.98047 1.77735 1.45703 2.66015 2.67578 4.4414-.74609 4.4375.07422 2.26173-2.0039-2.26172-2.04298-2.17188-2.39453-2.26562-3.88281V311.67187h17.75v137.03516l-.55078.55469.55078.55078.57031-.55078-.57031-.55469V311.67188h8.8789V440.1875l-.10937.19531.10938.11719.125-.11719-.125-.19531V311.67187h39.9453v128.78516l-4.4375 1.9961-2.53124 2.36718-1.91016 1.89063-3.08594 2.55078-1.35156.95703-4.4375-.01172-4.4375-.5625-.17969-.38281-4.26171-3.80078-4.4375.1914-3.65235 3.60938-.21094 4.4375-.57421 1.95703-2.48047 2.48047-1.19141 4.4375 3.67188 3.60156 4.4375-1.69922 2.39843-1.90234.82813-4.4375 1.21094-.50781 4.4414.24218.17188.26563 4.26562 3.8711 4.4375.14062 4.4375-.05078 1.39844.47656 3.04297 1.72656 4.4375.4336 2.5664-2.16016 1.3047-4.4375-.05079-4.4375.61719-2.15625 1.9336-2.28125.29687-4.4414-2.23047-3.77735-4.4375-.58594V311.67188h26.6289v120.375l-4.3125 3.89843-.125.0586-4.4375 1.78515-1.57812 2.59375 1.57812 2.53516.41407 1.90234 4.02343 3.89453 4.4375.375 3.3047-4.26953-.53126-4.4375-.15625-4.4375-2.61719-3.89844v-120.375h13.31641v140.6797l-1.0039 1.34765-3.4336 1.74219-4.4414.5664-2.39844 2.1289-2.03907 1.94142-3.27343 2.49609 3.27343 3.54687 4.4375.25782 4.44141-.85547v5.17969l-1.26172.75-2.0664 4.4375 3.32812 2.6953 3.1836-2.6953-2.38282-4.4375-.80078-.75v-5.1797l2.73828-2.94921v-4.4375l1.69922-3.39844 1.20313-1.03906-1.20313-1.34766V311.67187h4.4336v168.65625H144.0039"/></g><path fill="#50fcfc" fill-rule="evenodd" d="M158.10938 458.13672l-.32032-4.4375.78906-4.4375 1.39844-4.4414 1.77735-1.82813 1.8789-2.60938 2.5586-2.91797 2.96093-1.51953 1.47657-1.64453 4.32812-2.79297.10938-.07812v6.10937l-4.4375.26172-3.75391 2.58203-.6836.45703-3.3203 3.98047-1.1172 2.5039-.99218 1.9375-1.78906 4.4375.59375 4.4375-.3125 4.4375 2.5 2.45704 4.4375-1.07422 3.54687-1.38281.17188-4.4375.71875-.64063 2.70312-3.79687 1.625-4.4375.10938-.0586 3.2539-4.3828 1.1875-3.05079 2.07813-1.38672-2.07813-1.50781-4.4414-1.33594v-6.10937l.09765.07812 4.34375 2.27735 4.4375-1.01563 3.75781 3.17578.20313 4.4375-3.96094 2.94531-2.26953 1.4922-2.16797 3.08984-.54687 1.35156.35156 4.4375.19531 1.08984 4.4375.74219 4.4375 1.48828 3.25781 1.11719 1.1797.625 4.4414 2.6289 2.23437 1.1836-2.23437 1.04687-4.4414-.15234-4.4375 1.35156-4.4375.16797-4.4375.26953-4.44141-.42187-4.4375.17578-4.4375.78515-4.4375.4297-3.71485-3.65235.07031-4.4375"/><path fill="#00e8fc" fill-rule="evenodd" d="M159.5664 458.13672l-.59374-4.4375 1.78906-4.4375.99219-1.9375 1.11718-2.5039 3.32032-3.98048.68359-.45703 3.7539-2.58203v4.74219l-4.4375 2.09765-.15234.1797-1.51562 4.4414-2.76953 2.84765-.80078 1.58985.80078 3.55469v2.21093l-.47657 3.10938.47657.46875 1.33203-.46875-1.33203-3.10938v-2.21093l4.4375-1.9297 1.7578-1.625.45704-4.4375 2.22266-2.44921 4.4375-1.5039.36328-.48829-.36328-.73828-4.4375-1.53906v-4.74219l4.4375-.26172 4.4414 1.33594 2.07813 1.50781-2.07813 1.38672-1.1875 3.05078-3.2539 4.38281-.10938.0586-1.625 4.4375-2.70312 3.79687-.71875.64063-.17188 4.4375-3.54687 1.38281-4.4375 1.07422-2.5-2.45703.3125-4.4375"/><path fill="#00d4fc" fill-rule="evenodd" d="M161.7539 457.2539l-.80077-3.55468.80078-1.58985 2.76953-2.84765 1.51562-4.4414.15235-.1797 4.4375-2.09765 4.4375 1.53906.36328.73828-.36328.48828-4.4375 1.50391-2.22266 2.44922-.45703 4.4375-1.75781 1.625-4.4375 1.92969m0 5.78906l-.47657-.46875.47657-3.10938 1.33203 3.10938-1.33203.46875"/><path fill="#50fcfc" fill-rule="evenodd" d="M192.82031 438.52344l-3.82422-2.57813 3.82422-2.41797 4.38281 2.41797.0586.15235.03516-.15235 4.40234-2.75 4.22266 2.75.21484.32422.67969-.32422 3.7578-1.59375v4.91016l-1.66405 1.1211-2.28125 4.4375 3.9453 2.97656 1.27345 1.46484 2.3125 4.4375-3.58594 3.58203-1.07422.85547 1.07422 1.36719 4.4414-.63672 2.17188-.73047 1.22656-4.4375 1.03906-.8789.85157-3.5586-.85156-2.13672-2.0586-2.30469-2.3789-1.89844-2.67579-2.53906-1.76562-1.1211v-4.91015l4.4414.33985 4.4375.96875 1.71094-4.15235-1.71094-.70703-3.64843-3.73047-.78906-1.57422-2.96094-2.86718-1.48047-.88672-4.4375-.58985-2.9375-2.96093-.78906-4.4375 3.72656-3.96485 4.4375-.42187 4.4414.08203v.57812l-4.4414.41016-4.4375.9414-2.23438 2.375 1.58203 4.4375.65235.66016 4.4375 1.3125 4.11328 2.46485.32813.3164 2.0664 4.125 2.3711 2.42188 4.4375 1.66406.41406.35156 2.8164 4.4375 1.20703.88672 4.4375.9414 4.44141-1.24218 4.4375 3.10938 4.4375-3.57032.04297-.125.0664-4.4375 3.66798-4.4375.34375-4.4414-1.67188-4.4375-2.44922-2.91407-4.4375.69141-4.4375.1875-2.71484 2.03516-1.72656.5625-1.8125-.5625-2.625-1.61329-4.4375.10938-4.4375-1.63672-.60938-1.29687-3.82813-3.72657v-.57812l4.42188 4.30469.01563.03125 4.4375.84765 4.4375.03906 4.4375 1.53907 4.4414-2.25781 4.4375.68359 3.88281-.88281-3.8828-2.83204-4.4375 2.4961-2.92188-4.10156-.1172-4.44141 3.03907-3.03516v2.11329l-.92578.92187.65234 4.4414.27344.37891.6211-.3789.7539-4.44141-1.375-.92188v-2.11328l4.4375 2.8711.16406.16406 1.48828 4.4414 2.78516 3.85938 3.21875-3.85937 1.21875-1.22657v7.90235l-.57422 2.19922.57422 1.63671.75-1.63671-.75-2.19922v-7.90235l3.76172-3.21484.67578-.67578 4.4414-.88281v2.46093l-4.4414 1.36329-2.33984 2.17578-1.19531 4.4375 1.6875 4.4375 1.84765 2.08984 4.4414-1.26172.91016-.82812 2.1836-4.4375.14062-4.4375-3.23437-3.53907v-2.46093l2.11719 1.55859 2.3203 4.05469.22266.38672-.22265.44921-.3164 3.98829-.76173 4.4375-3.35937 3.05859-4.4414 1.11328-.69142.26563.69141 1.125 4.4414 1.0039 4.4375-1.66015.40626-.46875 4.03125-4.03125v.85546l-3.17578 3.17579-1.26172 1.4453-4.00781 2.9961 4.0078 3.5625.53516.875 2.0547 4.4375 1.58593 4.4375.26172.29688 4.4375 1.07812 1.14453-1.375 3.29687-1.69922 4.4375-2.61328 2.4336-.125 2.0039-.01562 4.4375-.9336 3.15235-3.48828-3.15235-3.73047-.12109-.70703-1.98828-4.4414-2.32813-1.22657-4.4375-1.5039-4.4375.23828-4.4414-.3125-4.4375-.3711v-.85546l4.4375.03125 4.4414.0078 4.4375.16798 4.4375.625 4.4375 1.41015 2.41016 1.78907-.55469 4.4414 2.16797 4.4375-3.89844 4.4375-.125.15235-4.4375 2.53906-4.4375.05078-4.4375 1.14453-1.0703.55078-3.3711 4.05078-4.4375-.92187-2.78125-3.1289-.88281-4.4375-.77344-2.8125-1.3164-1.625-3.1211-2.07032-4.4414-.75-4.4375-.30078-1.66017 3.1211-.09375 4.4375-.9414 4.4375-1.74219 1.8203-4.4375.2461-2.35156-2.0664-2.08594-1.25391-4.4414.30468-4.4375.8672-.14454.08202-.20312 4.4375-3.50781 4.4414 3.85547 1.55079 3.65625 2.88672-.91797 4.4375-2.73828 1.42187-4.4375.63282-4.4375 1.54687-2.07422.83594-2.36328 1.57812-4.44141 2.28516-2.21094.57813-2.22656.53906-1.53516-.53906-2.20703-4.44141.7461-4.4375 2.99609-3.11719 1.9961-1.32031-1.76954-4.4375-.22656-.16406-4.20313.16406-.23437.02734-.03125-.02734-4.40625-4.35156-.07813-.08985-1.39843-4.4375-2.96485-1.85937m8.8789-29.88281L199.375 404.875l2.32422-2.33984 4.4375.26953 1.6914 2.07031-1.6914 2.48047-4.4375 1.28515"/><path fill="#00e8fc" fill-rule="evenodd" d="M205.48438 418.1914l-1.58204-4.4375 2.23438-2.375 4.4375-.9414 4.4414-.41016v.96485l-4.4414 1.23047-3.96875 1.53125 3.96875 3.42968 1.09375 1.00782 3.34766 2.01562 1.9375 2.42188 2.26171 4.4414.23828.24219 3.46485-.24219.97266-.14844.04687.14844 4.39063 4.16406.83203.27344 3.60547 3.16797 4.4414-.3789 3.14063 1.64843 1.29687.97266 1.17578-.97266 1.17188-4.4375 2.08984-1.73437 2.27734-2.70313.10547-4.4414-2.28906-4.4375-.09375-.11329-4.27734.11329-.16016.0039-4.4375.73828-4.4414 1.41407-4.4375-1.48047-4.4375 1.01172-2.38282-1.6875-2.05469-1.02344-1.60156-3.41406-2.83594-2.76172v-.96485l3.82813 3.72657.60938 1.29687 4.4375 1.63672 4.4375-.10938 2.625 1.61329 1.8125.5625 1.72656-.5625 2.71484-2.03516 4.4375-.1875 4.4375-.6914 2.44922 2.91406 1.67188 4.4375-.34375 4.4414-3.66797 4.4375-.06641 4.4375-.04297.125-4.4375 3.57031-4.4375-3.10937-4.4414 1.24219-4.4375-.9414-1.20704-.88673-2.8164-4.4375-.41406-.35156-4.4375-1.66406-2.3711-2.42188-2.0664-4.125-.32813-.3164-4.11328-2.46485-4.4375-1.3125-.65234-.66015"/><path fill="#00d4fc" fill-rule="evenodd" d="M210.57422 417.1836l-3.96875-3.4297 3.96875-1.53124 4.4414-1.23047v.96484l-4.12109 1.79688 4.1211 3.95312 1.84375-3.95312-1.84375-1.79688v-.96484l2.83593 2.76172 1.60156 3.41406v4.24219l-.41015 1.21875.41016.80078 3.09765-.80078-3.09766-1.21875v-4.2422l2.0547 1.02345 2.3828 1.6875 4.4375-1.01172v1.36719l-4.23437 2.39453 1.30469 4.4414 2.92969 2.77735 4.4375 1.22656 1.09765.4336 3.34375.8828 4.4375-.3125.20313-.5703 4.23437-3.51173.78125-.92578-.13281-4.4414-.64844-1.23829-4.4375-.15234-4.4375-.64453-4.4414 1.35156-4.4375-1.71094v-1.36718l4.4375 1.48047 4.4414-1.41407 4.4375-.73828.16016-.0039 4.27734-.11329.09375.11329 2.28906 4.4375-.10547 4.4414-2.27734 2.70313-2.08984 1.73437-1.17188 4.4375-1.17578.97266-1.29687-.97266-3.14063-1.64844-4.4414.37891-3.60547-3.16797-.83203-.27344-4.39063-4.16406-.04688-.14844-.97265.14844-3.46484.24219-.23829-.24219-2.26172-4.4414-1.9375-2.42188-3.34765-2.01562-1.09375-1.00782"/><path fill="#00e8fc" fill-rule="evenodd" d="M210.57422 447.79688l-3.94531-2.97657 2.28125-4.4375 1.66406-1.1211 1.76562 1.1211 2.67578 2.53906 2.37891 1.89844 2.0586 2.30469.85156 2.13672-.85156 3.5586-1.03907.8789-1.22656 4.4375-2.17188.73047-4.4414.63672-1.07422-1.3672 1.07422-.85546 3.58594-3.58203-2.3125-4.4375-1.27344-1.46485"/><path fill="#00c4fc" fill-rule="evenodd" d="M215.01563 417.70703l-4.1211-3.95312 4.1211-1.79688v.96485l-1.91016.83203 1.91016 1.83203.85546-1.83203-.85547-.83204v-.96484l1.84375 1.79688-1.84375 3.95312"/><path fill="#00b8fc" fill-rule="evenodd" d="M215.01563 415.58594l-1.91016-1.83203 1.91016-.83204.85546.83204-.85547 1.83203"/><path fill="#50fcfc" fill-rule="evenodd" d="M219.45313 407.96875l-3.01172-3.09375 3.01172-2.92969 4.4375-1.26953v.86719l-4.4375 2.76953-.57813.5625.57813.59375 2.8203 3.84766 1.6172 1.6953 2.14453-1.6953.99609-4.44141-3.14063-3.33203v-.86719l3.95704 4.19922.48047 4.0664.3828.375-.3828.44923-4.4375 3.16796-3.44922-3.61718-.98828-1.34766"/><path fill="#00e8fc" fill-rule="evenodd" d="M219.45313 405.46875l-.57813-.59375.57813-.5625 4.4375-2.76953v1.44922l-2.67579 1.88281 2.67578 3.26172 1.77344-3.26172-1.77344-1.88281v-1.44922l3.14063 3.33203-.9961 4.4414-2.14452 1.69532-1.6172-1.69531-2.8203-3.84766"/><path fill="#00c4fc" fill-rule="evenodd" d="M219.45313 423.42969l-.41016-.80078.41016-1.21875 3.09765 1.21875-3.09766.80078"/><path fill="#00d4fc" fill-rule="evenodd" d="M223.89063 408.13672l-2.67579-3.26172 2.67578-1.88281v1.44922l-.61718.43359.61719.7539.41015-.7539-.41016-.4336v-1.44921l1.77344 1.88281-1.77344 3.26172"/><path fill="#00c4fc" fill-rule="evenodd" d="M223.89063 405.6289l-.6172-.7539.6172-.4336.41015.4336-.41016.7539m1.50782 21.44141l-1.30469-4.4414 4.23438-2.39454v1.3711l-1.8086 1.02344.33984 4.4414 1.46875 1.39063 4.4375-.22656 2.67579-1.16407 1.76562-2.41797.32422 2.41797 4.11328 3.50781 3.89063-3.5078-3.89063-3.83204-3.1289-.60937-1.3086-.375-1.26562.375-3.17578 2.58203-1.91797-2.58203-2.51953-1.02344v-1.3711l4.4375 1.71094 4.4414-1.35156 4.4375.64453 4.4375.15235.64844 1.23828.13281 4.4414-.78125.92578-4.23437 3.51172-.20313.57031-4.4375.3125-3.34375-.8828-1.09766-.4336-4.4375-1.22656-2.92968-2.77735"/><path fill="#00b8fc" fill-rule="evenodd" d="M226.85938 427.07031l-.33985-4.4414 1.8086-1.02344v5.36328l-.00782.10156.00781.00781.04297-.0078-.04297-.10157v-5.36328l2.51954 1.02344 1.91797 2.58203 3.17578-2.58203 1.26562-.375 1.3086.375 3.1289.60937v1.1211l-2.90625 2.71093 2.90625 2.47656 2.75-2.47656-2.75-2.71094v-1.12109l3.89063 3.83203-3.89063 3.50781-4.11328-3.5078-.32422-2.41798-1.76562 2.41797-2.67578 1.16406-4.4375.22657-1.46875-1.39063"/><path fill="#00a8fc" fill-rule="evenodd" d="M228.32813 427.07813l-.00782-.00782.00781-.10156.04297.10156-.04297.00781"/><path fill="#00e8fc" fill-rule="evenodd" d="M236.9336 409.3164l-.65235-4.4414.92578-.92188 1.375.92188-.7539 4.4414-.6211.37891-.27344-.3789"/><path fill="#00a8fc" fill-rule="evenodd" d="M241.64453 429.54688l-2.90625-2.47657 2.90625-2.71094v1.125l-1.70312 1.58594 1.70312 1.44922 1.60938-1.44922-1.60938-1.58594v-1.125l2.75 2.71094-2.75 2.47656"/><path fill="#009800" fill-rule="evenodd" d="M241.64453 428.51953l-1.70312-1.44922 1.70312-1.58594v1.1211l-.4961.46484.4961.42188.46875-.42188-.46875-.46484v-1.1211l1.60938 1.58594-1.60938 1.44922"/><path fill="#00ac00" fill-rule="evenodd" d="M241.64453 427.49219l-.4961-.42188.4961-.46484.46875.46484-.46875.42188"/><path fill="#fff" fill-opacity="0" fill-rule="evenodd" d="M250.51953 415.99219l-.57422 2.19922.57422 1.63671.75-1.63671-.75-2.19922"/><path fill="#50fcfc" fill-rule="evenodd" d="M250.51953 351.98438l-.1836-.3672.1836-.27734.25781.27735-.2578.36719"/><path fill="#00e8fc" fill-rule="evenodd" d="M253.10938 418.1914l-1.6875-4.4375 1.1953-4.4375 2.33985-2.17577 4.4414-1.36329v2.26563l-2.37109 1.27344-2.0703 2.51171-.96095 1.92579.96094 2.15234 4.4414.11719 1.38673-2.26953-.22657-4.4375-1.16015-1.27344v-2.26563l3.23437 3.53907-.14062 4.4375-2.1836 4.4375-.91015.82812-4.4414 1.26172-1.84767-2.08984"/><path fill="#00d4fc" fill-rule="evenodd" d="M254.95703 415.90625l-.96094-2.15234.96094-1.92579 2.07031-2.51171 2.3711-1.27344 1.16015 1.27344.22657 4.4375-1.38672 2.26953-4.4414-.11719"/><path fill="#00e8fc" fill-rule="evenodd" d="M263.83594 430.63281l-4.00781-3.5625 4.0078-2.9961 1.26173-1.4453 3.17578-3.17579v1.42188l-1.7539 1.7539-2.6836 3.07423-1.82813 1.36718 1.82813 1.6211 1.72656 2.8164 2.71094 3.78906.60156.64844 3.83594 3.47266 4.4414-2.65235 1.35547-.8203 3.08203-.69141 4.4375-.01172 4.4375-1.85938 1.69532-1.875-1.69532-2.00781-.42187-2.42969-4.01563-4.24219-2.46484-.19921-1.97266-.91407-4.39843.91407-.03907.0039-.05078-.0039-4.39062-.81641-4.4375-.9375v-1.42188l4.4375.3711 4.4414.3125 4.4375-.23828 4.4375 1.5039 2.32813 1.22657 1.98828 4.4414.1211.70703 3.15234 3.73047-3.15235 3.48828-4.4375.9336-2.0039.01562-2.4336.125-4.4375 2.61328-3.29687 1.69922-1.14453 1.375-4.4375-1.07812-.26172-.29688-1.58594-4.4375-2.05469-4.4375-.53515-.875"/><path fill="#00d4fc" fill-rule="evenodd" d="M263.83594 428.6914l-1.82813-1.62109 1.82813-1.36719 2.6836-3.07421 1.7539-1.75391v1.42578l-.32813.32813-3.85547 4.4414 2.66407 4.4375 1.51953 2.125 2.14844 2.3125 2.28906 2.07422 3.20312-2.07422 1.23828-2.03906 4.4375.63281 4.4375.01563 4.4375-2.78125.23829-.26563-.23829-.28515-.71875-4.15235-3.71875-3.92578-4.4375-.0586-4.4375.4297-4.4414-.1875-3.17969-.69922-1.25781-.32813V420.875l4.4375.9375 4.39062.8164.05078.00391.03907-.0039 4.39843-.91407 1.97266.91407 2.46484.19921 4.01563 4.2422.42187 2.42968 1.69532 2.00781-1.69532 1.875-4.4375 1.85938-4.4375.01172-3.08203.6914-1.35547.82031-4.4414 2.65235-3.83594-3.47266-.60156-.64844-2.71094-3.78906-1.72656-2.8164"/><path fill="#00c4fc" fill-rule="evenodd" d="M266.7539 431.50781l-2.66406-4.4375 3.85547-4.4414.32813-.32813 1.25781.32813 3.17969.69921 4.4414.1875 4.4375-.42968 4.4375.0586v.3164l-4.4375.53515-4.4375.39844-4.4414.125-4.4375-.5-2.6289 3.05078 2.29687 4.4375.33203.46485 3.6914 3.97265.7461.67578 1.04687-.67578.78125-4.4375 2.61328-.4336.40235.4336 4.03515 2.3164 4.4375.04298 3.57032-2.35938-.15235-4.4375-3.41797-3.60937v-.3164l3.71875 3.92577.71875 4.15235.23829.28515-.23829.26563-4.4375 2.78125-4.4375-.01563-4.4375-.63281-1.23828 2.03906-3.20312 2.07422-2.28906-2.07422-2.14844-2.3125-1.51953-2.125"/><path fill="#00b8fc" fill-rule="evenodd" d="M267.9414 431.50781l-2.29687-4.4375 2.6289-3.05078 4.4375.5 4.44141-.125 4.4375-.39844 4.4375-.53515v.3164l-4.4375 1.13282-4.4375.36718-4.4414.4336-4.4375.11719-1.07031 1.24218 1.0703 2.16406 4.4375.48438 4.44141.03516 1.64454 1.7539 2.79296 1.60547 4.4375.0664 2.53125-1.67187.58985-4.4375-3.1211-3.29297v-.3164l3.41797 3.60937.15235 4.4375-3.57032 2.35938-4.4375-.04297-4.03515-2.3164-.40235-.4336-2.61328.4336-.78125 4.4375-1.04687.67577-.7461-.67578-3.6914-3.97265-.33203-.46485"/><path fill="#00a8fc" fill-rule="evenodd" d="M268.27344 429.23438l-1.07031-2.16407 1.0703-1.24219 4.4375-.11718 4.44141-.4336 4.4375-.36718 4.4375-1.13282v.3125l-4.4375 1.73047-4.4375.33594-4.4414.74219-1.38281.17187 1.3828.32813 4.44141 1.03906 2.88282 3.07031 1.55468.89063 4.4375.09375 1.4922-.98438 1.32812-4.4375-2.82032-2.98047v-.3125l3.1211 3.29297-.58985 4.4375-2.53125 1.67188-4.4375-.0664-2.79296-1.60548-1.64454-1.7539-4.4414-.03516-4.4375-.48438"/><path fill="#009800" fill-rule="evenodd" d="M272.71094 427.39844l-1.38281-.32813 1.3828-.17187 4.44141-.74219 4.4375-.33594 4.4375-1.73047v.31641l-4.4375 2.32813-4.4375.30078-.18359.03515.1836.04688 4.125 4.39062.3125.17969 4.4375.11719.45312-.29688 2.0664-4.4375-2.51953-2.66406v-.3164l2.82032 2.98046-1.32813 4.4375-1.49219.98438-4.4375-.09375-1.55468-.89063-2.88282-3.07031-4.4414-1.03906"/><path fill="#00ac00" fill-rule="evenodd" d="M277.15234 427.11719l-.18359-.04688.1836-.03515 4.4375-.30079 4.4375-2.32812v.3164l-4.08985 2.34766 4.08984 4.125 2.22266-4.125-2.22266-2.34765v-.31641l2.51954 2.66406-2.06641 4.4375-.45313.29688-4.4375-.11719-.3125-.17969-4.125-4.39062"/><path fill="#00c800" fill-rule="evenodd" d="M286.02734 431.19531l-4.08984-4.125 4.08984-2.34765v.6328l-2.98828 1.71485 2.98828 3.01172 1.625-3.01172-1.625-1.71484v-.63281l2.22266 2.34765-2.22266 4.125"/><path fill="#10cc00" fill-rule="evenodd" d="M286.02734 430.08203l-2.98828-3.01172 2.98828-1.71484v.6289l-1.88671 1.08594 1.88671 1.90235 1.02735-1.90235-1.02735-1.08594v-.6289l1.625 1.71484-1.625 3.01172"/><path fill="#24d000" fill-rule="evenodd" d="M286.02734 428.97266l-1.88671-1.90235 1.88671-1.08594v.63282l-.78906.45312.78906.79297.4297-.79297-.4297-.45312v-.63281l1.02735 1.08593-1.02735 1.90235"/><path fill="#3cd800" fill-rule="evenodd" d="M286.02734 427.86328l-.78906-.79297.78906-.45312.4297.45312-.4297.79297"/><path fill="#50fcfc" fill-rule="evenodd" d="M299.34375 425.86719l-3.16406-3.23828 3.16406-2.71094 3.14453 2.71094 1.29297.65625v1.73828l-2.07422 2.04687 2.07422 2.17188 1.85547-2.17188-1.85547-2.04687v-1.73828l3.4336 3.78515-3.4336 4.01953-3.83984-4.01953-.59766-1.20312m0 33.60547l-2.10156-1.33594 2.10156-1.60547 4.4375-1.78516 1.1289-1.04687 3.3086-2.64063 4.4375-.04687v3.375l-4.4375.0039-4.01953 3.7461 4.01953 2.11328 4.4375.0625 4.4414-1.83203.44923-.34375-.44922-.82813-4.44141-2.92187v-3.375l4.4414.53906 3.08204 2.14844.67969 4.4375-3.76172 2.85156-4.44141 1.02735-4.4375.25-4.4375-.41797-4.4375-2.375"/><path fill="#00e8fc" fill-rule="evenodd" d="M303.78125 429.24219l-2.07422-2.17188 2.07422-2.04687 1.85547 2.04687-1.85547 2.17188m4.4375 31.00781l-4.01953-2.11328 4.01953-3.7461 4.4375-.0039 4.4414 2.92187.44923.82813-.44922.34375-4.44141 1.83203-4.4375-.0625"/><path fill="#50fcfc" fill-rule="evenodd" d="M325.97266 458.96484l-1.89063-.82812.26953-4.4375 1.6211-2.65625 4.29296-1.78125.14454-.02735 4.4375-2.23046 4.4414.91796 3.08985 1.33985-1.50782 4.4375-1.58203 1.01172-4.4414 2.40625-.82032 1.01953-3.61718 2.60937-4.4375-1.78125m4.4375-34.83593l-1.94141-1.5 1.9414-2.19532 4.4375-1.45312 1.81641-.78906 2.625-1.02735 1.13672 1.02735 1.54688 4.4375-2.6836 2.1328-4.4414.28126-4.4375-.91406m17.7539 14.79687l-3.02344-2.98047 3.02344-3.61328 4.4375-.24219v1.71485l-4.4375 1.21875-.76953.92187.76953.75781 4.4375 3.62891 3.49219-4.38672-3.49219-2.14062v-1.71485l4.4414-.02734 2.26563 3.88281 2.17188 2.39453 2.26172 2.04297-2.26172 2.0039-4.4375-.07421-4.4414.7461-2.66016-2.67579-1.77735-1.45703"/><path fill="#00e8fc" fill-rule="evenodd" d="M348.16406 436.70313l-.76953-.75782.76953-.92187 4.4375-1.21875 3.49219 2.14062-3.49219 4.38672-4.4375-3.6289"/><path fill="#50fcfc" fill-rule="evenodd" d="M374.79297 449.8125l-.55078-.55078.55078-.55469.57031.55469-.57031.55078m8.8789-9.3125l-.10937-.11719.10938-.19531.125.19531-.125.11719m4.4375 25.67578l-3.67188-3.60156 1.1914-4.4375 2.48048-2.48047.57421-1.95703.21094-4.4375 3.65235-3.60938 4.4375-.1914 4.26171 3.80078.1797.38281 4.4375.5625 4.4375.01172 1.35155-.95703 3.08594-2.55078 1.91016-1.89063 2.53125-2.36719 4.4375-1.99609v2.55078l-3.0039 1.8125-1.4336 3.76172-.70313.67969-3.73828 1.89453-4.4375 2.3125-4.4375-1.3711-4.4375.50391-1.5664-3.33984-2.875-2.5664-4.4375.62109-1.97266 1.9453-1.02735 4.4375.98438 4.4375-2.42188.39063-2.26953 4.04688 2.26954 2.22265 3.3789-2.22265 1.0586-3.52735.375-.91015 4.0625-1.69922 4.4414-1.60938 2.125 3.3086 2.3125 2.09765 4.4375-.1875 4.4375-.6914 4.4414.14844 4.4375.20703.73438-1.57422.83985-4.4375-1.04688-4.4375 2.29688-4.4414-2.82422-1.8125v-2.55079l4.4375.58594 2.23047 3.77734-.29688 4.4414-1.9336 2.28126-.61718 2.15625.05078 4.4375-1.30469 4.4375-2.5664 2.16015-4.4375-.43359-3.04297-1.72656-1.39844-.47656-4.4375.05078-4.4375-.14063-4.26562-3.8711-.17188-.26562-4.4414-.24218-1.21094.5078-.82813 4.4375-2.39844 1.90235-4.4375 1.69922"/><path fill="#00e8fc" fill-rule="evenodd" d="M388.10938 464.79688l-2.26954-2.22266 2.26954-4.04688 2.42187-.39062-.98438-4.4375 1.02735-4.4375 1.97265-1.94531 4.4375-.6211v2.0586l-2.0078.5078-2.4297.94532-1.5664 3.49219 1.5664 2.40625 4.4375-1.65625 1.44922-.75-.8789-4.4375-.57031-.50781v-2.0586l2.875 2.5664 1.5664 3.33985 4.4375-.5039 4.4375 1.37109 4.4375-2.3125 3.73828-1.89453.70313-.67969 1.4336-3.76172 3.0039-1.8125 2.82422 1.8125-2.29688 4.4414 1.04688 4.4375-.83985 4.4375-.73437 1.57423-4.4375-.20703-4.4414-.14844-4.4375.6914-4.4375.1875-2.3125-2.09765-2.125-3.3086-4.44142 1.60938-4.0625 1.69922-.375.91015-1.05859 3.52735-3.3789 2.22265"/><path fill="#00d4fc" fill-rule="evenodd" d="M392.54688 456.10547l-1.56641-2.40625 1.5664-3.49219v3.19531l-.1328.29688.1328.20312.57422-.20312-.57421-.29688v-3.1953l2.42968-.94532 2.00781-.50781.57032.5078.8789 4.4375-1.44921.75-4.4375 1.65626"/><path fill="#00c4fc" fill-rule="evenodd" d="M392.54688 453.90234l-.13282-.20312.13281-.29688.57422.29688-.57421.20312"/><path fill="#50fcfc" fill-rule="evenodd" d="M441.3711 442.91797l-1.57813-2.53516 1.57812-2.59375 4.4375-1.78515.125-.0586 4.3125-3.89844v5.15625l-4.4375.85938-2.69921 2.32031.67578 4.4375 2.02343 1.95703 4.4375-.05078 1.47657-1.90625-1.19922-4.4375-.27735-3.17969v-5.15625l2.6172 3.89844.15624 4.4375.53125 4.4375-3.30469 4.26953-4.4375-.375-4.02343-3.89453-.41407-1.90234"/><path fill="#00e8fc" fill-rule="evenodd" d="M443.78516 444.82031l-.67579-4.4375 2.69922-2.32031 4.4375-.85938.27735 3.1797 1.19922 4.4375-1.47657 1.90624-4.4375.05078-2.02343-1.95703"/><path fill="#50fcfc" fill-rule="evenodd" d="M450.2461 466.1211l-3.27344-3.54688 3.27343-2.4961 2.03907-1.9414 2.39843-2.1289 4.44141-.56641v2.6289l-.27344.0664-4.16797.77345-3.76171 3.66406 3.76171 2.46875 4.41797-2.46875.02344-1.24219.0664-3.19531-.0664-.0664v-2.62891l3.4336-1.7422 1.0039-1.34765 1.20313 1.34766-1.20313 1.03906-1.69922 3.39844v4.4375l-2.73828 2.94922-4.4414.85547-4.4375-.25782"/><path fill="#00e8fc" fill-rule="evenodd" d="M454.6836 465.04297l-3.76173-2.46875 3.76172-3.66406v3.3125l-.35937.35156.35937.23828.42579-.23828-.42579-.35156v-3.3125l4.16797-.77344.27344-.0664.0664.0664-.0664 3.19531-.02344 1.24219-4.41797 2.46875"/><path fill="#00d4fc" fill-rule="evenodd" d="M454.6836 462.8125l-.35938-.23828.35937-.35156.42579.35156-.42579.23828"/><path fill="#50fcfc" fill-rule="evenodd" d="M459.125 478.58594l-3.32813-2.69531 2.06641-4.4375 1.26172-.75v5.04296l-.09766.14454.09766.07812.08984-.07813-.08984-.14453v-5.04296l.80078.75 2.38281 4.4375-3.18359 2.6953"/><path fill="#00e8fc" fill-rule="evenodd" d="M459.125 475.96875l-.09766-.07813.09766-.14453.08984.14454-.08984.07812"/><g clip-path="url(#c)"><path fill="#fff" fill-opacity="0" fill-rule="evenodd" d="M467.9961 480.32813H468V311.67188h-.0039H468v168.65625h-.0039"/></g><path fill="#fff" fill-opacity="0" fill-rule="evenodd" d="M206.29297 418.48828l1.66406-5.59765-9.54687-2.84375-1.66407 5.60156 9.54688 2.83984"/><path fill-rule="evenodd" d="M199.5 412.8164l.14453-.48827 6.03516 1.79296-.22656.75782-4.30079-1.28125-.39843 1.32812-.53125-.15625.09765-.55469.01953-.2578-.01953-.2461-.07812-.23438-.15235-.22656-.24218-.21875-.34766-.21484"/><path fill="#fff" fill-opacity="0" fill-rule="evenodd" d="M265.60547 428.60156l3.98828-4.26953-7.27344-6.80078-3.99219 4.26563 7.27735 6.80468"/><path fill-rule="evenodd" d="M262.0586 420.49219l.34765-.3711 4.59766 4.29688-.53516.57812-3.28125-3.0664-.94922 1.01172-.40625-.37891.33594-.45313.13281-.21875.08985-.23046.03906-.2461-.03516-.26953-.1211-.30469-.21484-.34765"/><path fill="#fff" fill-opacity="0" fill-rule="evenodd" d="M221.75781 465.92969l5.67578-1.3789-2.35547-9.6797-5.67578 1.38282 2.35547 9.67578"/><path fill-rule="evenodd" d="M223.23438 457.20703l.49609-.1211 1.48828 6.1172-.76563.1875-1.0625-4.36329-1.34765.32813-.13281-.53906.53125-.19532.23047-.11328.20312-.14062.16406-.1875.1211-.24219.0664-.32031.00781-.41016"/><path fill="#fff" fill-opacity="0" fill-rule="evenodd" d="M163.48047 471.28906l5.78516-.79297-1.34375-9.86718-5.78907.78906 1.34766 9.8711"/><path fill-rule="evenodd" d="M165.84766 462.76172l.5039-.07031.85156 6.23828-.78125.10547-.60546-4.44922-1.375.1875-.07422-.55078.54297-.13672.24218-.08985.21875-.11718.1797-.16797.14452-.23438.10156-.3086.05079-.40624"/><g clip-path="url(#d)"><path fill="none" stroke="#000" stroke-linecap="round" stroke-linejoin="round" stroke-miterlimit="10" stroke-width=".5" d="M146.67578 478.05078l-5.35156 4.55469"/></g><g clip-path="url(#e)"><path fill="none" stroke="#000" stroke-linecap="round" stroke-linejoin="round" stroke-miterlimit="10" stroke-width=".5" d="M158.44922 477.0039l-2.26953 6.64844"/></g><path fill="none" stroke="#000" stroke-linecap="round" stroke-linejoin="round" stroke-miterlimit="10" stroke-width=".5" d="M158.1211 477.97266l1.21093-.19532"/><g clip-path="url(#f)"><path fill="none" stroke="#000" stroke-linecap="round" stroke-linejoin="round" stroke-miterlimit="10" stroke-width=".5" d="M172.07813 477.1289l-2.89454 6.40235"/></g><path fill="none" stroke="#000" stroke-linecap="round" stroke-linejoin="round" stroke-miterlimit="10" stroke-width=".5" d="M171.65625 478.0586l1.22656-.07813"/><g clip-path="url(#g)"><path fill="none" stroke="#000" stroke-linecap="round" stroke-linejoin="round" stroke-miterlimit="10" stroke-width=".5" d="M185.3711 477.11719l-2.85157 6.42187"/></g><g clip-path="url(#h)"><path fill="none" stroke="#000" stroke-linecap="round" stroke-linejoin="round" stroke-miterlimit="10" stroke-width=".5" d="M200.58594 481.46094l-6.65235-2.26563"/></g><g clip-path="url(#i)"><path fill="none" stroke="#000" stroke-linecap="round" stroke-linejoin="round" stroke-miterlimit="10" stroke-width=".5" d="M212.23828 483.42188l-3.32812-6.1875"/></g><g clip-path="url(#j)"><path fill="none" stroke="#000" stroke-linecap="round" stroke-linejoin="round" stroke-miterlimit="10" stroke-width=".5" d="M226.55078 482.625l-5.32031-4.59375"/></g><g clip-path="url(#k)"><path fill="none" stroke="#000" stroke-linecap="round" stroke-linejoin="round" stroke-miterlimit="10" stroke-width=".5" d="M240.69531 480.73828l-6.98047-.82031"/></g><g clip-path="url(#l)"><path fill="none" stroke="#000" stroke-linecap="round" stroke-linejoin="round" stroke-miterlimit="10" stroke-width=".5" d="M253.75 478.94922l-6.46094 2.75781"/></g><g clip-path="url(#m)"><path fill="none" stroke="#000" stroke-linecap="round" stroke-linejoin="round" stroke-miterlimit="10" stroke-width=".5" d="M252.8125 479.35156l.95313.76953"/></g><g clip-path="url(#n)"><path fill="none" stroke="#000" stroke-linecap="round" stroke-linejoin="round" stroke-miterlimit="10" stroke-width=".5" d="M267.14453 479.15234l-6.6211 2.35157"/></g><g clip-path="url(#o)"><path fill="none" stroke="#000" stroke-linecap="round" stroke-linejoin="round" stroke-miterlimit="10" stroke-width=".5" d="M266.1836 479.4961l.90624.82421"/></g><g clip-path="url(#p)"><path fill="none" stroke="#000" stroke-linecap="round" stroke-linejoin="round" stroke-miterlimit="10" stroke-width=".5" d="M280.14844 478.4961l-5.9961 3.66796"/></g><path fill="none" stroke="#000" stroke-linecap="round" stroke-linejoin="round" stroke-miterlimit="10" stroke-width=".5" d="M279.27734 479.02734l1.0547.625"/><g clip-path="url(#q)"><path fill="none" stroke="#000" stroke-linecap="round" stroke-linejoin="round" stroke-miterlimit="10" stroke-width=".5" d="M293.86719 479.4414l-6.80078 1.77344"/></g><g clip-path="url(#r)"><path fill="none" stroke="#000" stroke-linecap="round" stroke-linejoin="round" stroke-miterlimit="10" stroke-width=".5" d="M292.875 479.69922l.83203.90234"/></g><g clip-path="url(#s)"><path fill="none" stroke="#000" stroke-linecap="round" stroke-linejoin="round" stroke-miterlimit="10" stroke-width=".5" d="M307.09375 481.5039l-6.625-2.35156"/></g><g clip-path="url(#t)"><path fill="none" stroke="#000" stroke-linecap="round" stroke-linejoin="round" stroke-miterlimit="10" stroke-width=".5" d="M306.1289 481.16016l.1797 1.21484"/></g><g clip-path="url(#u)"><path fill="none" stroke="#000" stroke-linecap="round" stroke-linejoin="round" stroke-miterlimit="10" stroke-width=".5" d="M320.29688 481.77734l-6.40235-2.89843"/></g><g clip-path="url(#v)"><path fill="none" stroke="#000" stroke-linecap="round" stroke-linejoin="round" stroke-miterlimit="10" stroke-width=".5" d="M333.89063 480.82031l-6.95704-.98047"/></g><g clip-path="url(#w)"><path fill="none" stroke="#000" stroke-linecap="round" stroke-linejoin="round" stroke-miterlimit="10" stroke-width=".5" d="M332.8789 480.67578l.41798 1.15235"/></g><g clip-path="url(#x)"><path fill="none" stroke="#000" stroke-linecap="round" stroke-linejoin="round" stroke-miterlimit="10" stroke-width=".5" d="M347.22266 480.65625L340.22656 480"/></g><g clip-path="url(#y)"><path fill="none" stroke="#000" stroke-linecap="round" stroke-linejoin="round" stroke-miterlimit="10" stroke-width=".5" d="M346.20703 480.5625l.47266 1.13281"/></g><g clip-path="url(#z)"><path fill="none" stroke="#000" stroke-linecap="round" stroke-linejoin="round" stroke-miterlimit="10" stroke-width=".5" d="M360.41016 481.32422l-6.73829-1.99219"/></g><g clip-path="url(#A)"><path fill="none" stroke="#000" stroke-linecap="round" stroke-linejoin="round" stroke-miterlimit="10" stroke-width=".5" d="M359.42969 481.03516l.2461 1.20312"/></g><g clip-path="url(#B)"><path fill="none" stroke="#000" stroke-linecap="round" stroke-linejoin="round" stroke-miterlimit="10" stroke-width=".5" d="M373.77344 481.15234l-6.83203-1.64453"/></g><g clip-path="url(#C)"><path fill="none" stroke="#000" stroke-linecap="round" stroke-linejoin="round" stroke-miterlimit="10" stroke-width=".5" d="M372.77734 480.91016l.3086 1.1914"/></g><g clip-path="url(#D)"><path fill="none" stroke="#000" stroke-linecap="round" stroke-linejoin="round" stroke-miterlimit="10" stroke-width=".5" d="M387.08984 481.14063l-6.83593-1.6211"/></g><g clip-path="url(#E)"><path fill="none" stroke="#000" stroke-linecap="round" stroke-linejoin="round" stroke-miterlimit="10" stroke-width=".5" d="M386.09375 480.90234l.3125 1.1875"/></g><g clip-path="url(#F)"><path fill="none" stroke="#000" stroke-linecap="round" stroke-linejoin="round" stroke-miterlimit="10" stroke-width=".5" d="M400.42969 481.02344l-6.88672-1.39063"/></g><g clip-path="url(#G)"><path fill="none" stroke="#000" stroke-linecap="round" stroke-linejoin="round" stroke-miterlimit="10" stroke-width=".5" d="M399.42969 480.82031l.34765 1.17578"/></g><g clip-path="url(#H)"><path fill="none" stroke="#000" stroke-linecap="round" stroke-linejoin="round" stroke-miterlimit="10" stroke-width=".5" d="M413.76953 480.88281l-6.9375-1.10937"/></g><g clip-path="url(#I)"><path fill="none" stroke="#000" stroke-linecap="round" stroke-linejoin="round" stroke-miterlimit="10" stroke-width=".5" d="M412.76172 480.72266l.39844 1.16015"/></g><g clip-path="url(#J)"><path fill="none" stroke="#000" stroke-linecap="round" stroke-linejoin="round" stroke-miterlimit="10" stroke-width=".5" d="M427.11328 480.66797l-6.99219-.67578"/></g><g clip-path="url(#K)"><path fill="none" stroke="#000" stroke-linecap="round" stroke-linejoin="round" stroke-miterlimit="10" stroke-width=".5" d="M426.09766 480.5664l.46875 1.13673"/></g><g clip-path="url(#L)"><path fill="none" stroke="#000" stroke-linecap="round" stroke-linejoin="round" stroke-miterlimit="10" stroke-width=".5" d="M440.21875 479.08594l-6.57422 2.48437"/></g><g clip-path="url(#M)"><path fill="none" stroke="#000" stroke-linecap="round" stroke-linejoin="round" stroke-miterlimit="10" stroke-width=".5" d="M440.21875 479.08594l1.84375 1.61719"/></g><g clip-path="url(#N)"><path fill="none" stroke="#000" stroke-linecap="round" stroke-linejoin="round" stroke-miterlimit="10" stroke-width=".5" d="M453.32422 478.63281l-6.15625 3.39453"/></g><g clip-path="url(#O)"><path fill="none" stroke="#000" stroke-linecap="round" stroke-linejoin="round" stroke-miterlimit="10" stroke-width=".5" d="M453.32422 478.63281l2.05469 1.33985"/></g><g clip-path="url(#P)"><path fill="none" stroke="#000" stroke-linecap="round" stroke-linejoin="round" stroke-miterlimit="10" stroke-width=".5" d="M466.42578 482.36328l-5.73047-4.07031"/></g><g clip-path="url(#Q)"><path fill="none" stroke="#000" stroke-linecap="round" stroke-linejoin="round" stroke-miterlimit="10" stroke-width=".5" d="M147.26953 465.72656l-6.53906 2.57422"/></g><path fill="none" stroke="#000" stroke-linecap="round" stroke-linejoin="round" stroke-miterlimit="10" stroke-width=".5" d="M147.26953 465.72656l1.86328 1.59375m11.3711-1.78515l-6.37891 2.95703m6.3789-2.95703l1.95704 1.48437m11.26953-1.65625l-6.20313 3.30078m6.20313-3.30078l2.03516 1.3711m11.60937-.4922l-6.85938 1.54298m5.85938-1.31641l.80078.92969m13.33203.96094l-6.49219-2.69141m5.54688 2.30078l.11719 1.21875m13.46484.22266l-5.14062-4.79297m4.39453 4.09375l-.3164 1.1875m14.32421-.4336l-5.03516-4.90234m4.3047 4.1875l-.34376 1.17969m14.5664-.66016l-5.38671-4.51172m4.60547 3.85547l-.2539 1.19922m14.9453-1.5625l-6.57422-2.47266m5.6172 2.11329l.15624 1.21875m14.1875-1.07032l-6.71875-2.05078m5.74219 1.7539l.23438 1.20313m14.08984-1.01172l-6.78516-1.83984m5.79688 1.57031l.27343 1.19922m14.12891-1.44922l-6.98047-.80078m5.96485.6836l.44921 1.14062m13.875-.96484l-6.96875-.91797m5.95313.78515l.42969 1.14844m13.92968-1.51562l-7.02734.08203m6.0039-.07031l.58985 1.07812m13.6836-.3789l-6.89844-1.33985m5.89453 1.14453l.35937 1.17188m13.8086-.4297l-6.59375-2.43358m5.63281 2.07812l.16406 1.21875m13.96094-.51562l-6.29297-3.12891m5.3789 2.67187l.03126 1.22657m14.5586-2.15235l-7.01563-.36328m5.99609.3086l.51953 1.11328m13.375.47656l-6.13281-3.4336m5.23828 2.9336l-.02734 1.22656m14.61328-1.73828l-6.88672-1.41016m6.88672 1.41016l.6914 2.35547m12.66016-2.58594l-6.96094-.94922m6.96094.94922l.85156 2.30078m12.49219-2.6289l-7.01953-.29297m7.01953.29297l1.0625 2.21484m12.17969-1.6289l-6.8711-1.46485m6.8711 1.46484l.67578 2.35938m12.6914-2.66016l-6.97656-.86328m5.96094.73828l.4375 1.14453m13.90625-1.1328l-7-.63673m5.98047.54297l.47656 1.13281"/><g clip-path="url(#R)"><path fill="none" stroke="#000" stroke-linecap="round" stroke-linejoin="round" stroke-miterlimit="10" stroke-width=".5" d="M147.45703 453.0664l-6.91406 1.26173"/></g><path fill="none" stroke="#000" stroke-linecap="round" stroke-linejoin="round" stroke-miterlimit="10" stroke-width=".5" d="M147.45703 453.0664l1.52344 1.92579m11.73437-2.17969l-6.80078 1.77344m6.80078-1.77344l1.66016 1.8086m11.65234-1.82422l-6.79297 1.80468m5.8047-1.54297l.83202.89844m13.58594-.3789l-7.02344.23828m7.02344-.23828l1.22266 2.1289m11.94922-1.0039l-6.73438-2.00782m6.73438 2.00782l.48437 2.40234m12.5586-1.7461l-6.19141-3.32421m6.1914 3.32422l-.01171 2.45312m12.43359-1.3789l-4.40625-5.47266m3.76563 4.67969l-.48438 1.125m14.64453-.50782l-4.8164-5.11718m4.11328 4.37109l-.39453 1.16406m15.24609-1.625l-6.48438-2.70703m5.54297 2.3164l.11328 1.21876m14.40625-1.9297l-7.0078-.5039m5.98827.4336l.4961 1.12109m13.59375.00781l-6.51954-2.61718m5.57032 2.23437l.13281 1.22266m13.60547.05859l-5.46485-4.41406m4.66797 3.77344l-.23047 1.20312m15.08985-2.29297l-6.96094-.95312m5.94922.8125l.42187 1.15234m13.875-.83594l-6.90234-1.30468m5.89844 1.11328l.36719 1.17187m13.96875-1.0664l-6.9336-1.13672m14.8086-2.33985l3.9453 5.8164m10.63673-6.34765l1.41406 6.88282m-1.21094-5.88282l.94531-.78125m12.72266-.28906l.30078 7.01953m-.25781-5.9961l1.0586-.625m10.03124.48438l4.66407 5.2539m7.9375-.87108l6.08984-3.50782m11.82812 4.90235l-3.11718-6.29688m2.66406 5.3789l-.71484 1m14.72265-.21093l-3.59375-6.03906m3.59375 6.03906l-1.27344 2.09766m13.84766-1.76563l-2.11328-6.70312m1.80469 5.72656l-.85938.875m11.36719-.40234l4.11719-5.69532m-4.11719 5.69532l-2.42969-.33594m15.32813-.01953l4.95312-4.98438m-4.23437 4.25781l-1.17188-.35546"/><g clip-path="url(#S)"><path fill="none" stroke="#000" stroke-linecap="round" stroke-linejoin="round" stroke-miterlimit="10" stroke-width=".5" d="M147.4961 440.02734l-6.9922.71094"/></g><path fill="none" stroke="#000" stroke-linecap="round" stroke-linejoin="round" stroke-miterlimit="10" stroke-width=".5" d="M147.4961 440.02734l1.36327 2.03907m11.96875-1.625l-7.02734-.1172m7.02734.1172l1.1172 2.18359m12.1953-2.42578l-7.01953.3711m7.01953-.3711l1.26172 2.10156m12.03907-1.5625l-6.9922-.70703m6.9922.70703l.92968 2.26953m12.33594-1.9336l-6.89062-1.3789m6.89062 1.3789l.70313 2.34767m12.29687-1.44532l-6.26562-3.1836m6.26562 3.1836l.04688 2.45313m12.78906-1.74219l-5.30469-4.60937m5.30469 4.60937l-.55469 2.39063m14.64844-3.9336l-6.86328-1.51953m5.86328 1.29688l.32812 1.18359m10.22657-5.21875l.65625 6.9961m15.10937-6.30079l-4.2461 5.60156m3.62891-4.78515l1.21094.19531m13.25-.51563L274.5 442.69141m4.53125-3.94532l1.14453.44141m11.91016-1.92188l-3.23828 6.23829m2.76562-5.33204l1.22656-.01171m14.33985 1.33593l-6.79688 1.77735m5.8086-1.51953l.83203.90234m13.57812-.0586l-7.01172-.42968m5.9922.36719l.5078 1.11718m11.33204 2.09766l-2.01954-6.73047m10.8086 3.36328h7.02734m8.48047-3.2539l2.64453 6.5078m-2.26172-5.5625l.78907-.9414m12.42187-.10547l2.08984 6.71094m-2.08984-6.71094l1.72266-1.74218m9.34765 3.85546l6.57422 2.48438m-6.57422-2.48438l-.3086-2.43359m13.5 4.51953l6.82423-1.6875m9.63672-2.66015l.53125 7.0078m-.45313-5.98827l1.03516-.65625m9.1836 4.39062l6.5703-2.4961m10.15625 4.75782l-.2539-7.02344m.21484 6.00391l-1.0586.61328m16.25391-.1914l-3.93359-5.82422m3.35938 4.97656l-.57422 1.08203m9.2578-1.78516l6.47657-2.72656m-5.53515 2.32813l-.94922-.77344"/><g clip-path="url(#T)"><path fill="none" stroke="#000" stroke-linecap="round" stroke-linejoin="round" stroke-miterlimit="10" stroke-width=".5" d="M147.50781 426.86719l-7.01562.40234"/></g><path fill="none" stroke="#000" stroke-linecap="round" stroke-linejoin="round" stroke-miterlimit="10" stroke-width=".5" d="M147.50781 426.86719l1.27344 2.09765m-2.29297-2.03906l.63672 1.04688m13.69531-.69141l-7.01172-.42578m7.01172.42578l1.01953 2.23047m12.28907-2.10547l-6.9961-.67578m6.9961.67578l.9375 2.26563m12.2539-1.6211l-6.75-1.96484m6.75 1.96484l.5 2.40235m12.25781-1.28516l-5.6328-4.19922m4.8125 3.58984l-.1875 1.21094m14.93359-1.9336l-6.85938-1.53124m5.86328 1.30468l.32422 1.1836m11.71875-5.03906l-2.32031 6.6328m17.52734-1.57812l-6.10547-3.48047m5.21485 2.97657l-.03516 1.22656m14.3164-.85938l-6.2539-3.20703m5.34375 2.7422l.01563 1.22655m14.32422-1.0078l-6.48438-2.71485m18.6211-1.48438l-4.12891 5.6836m12.80468-5.23438l5.14844 4.78516m7.2539-1.97657l6.97657-.83203m8.10156-2.64453l3.44922 6.1211m-2.94922-5.23047l.66016-1.03516m13.77344-.3086l.21093 7.02735m-.17968-6.0039l1.0664-.60938m12.51563-.41016l-.38281 7.01953m.32421-5.99609l1.11329-.51562m8.84765 1.59375l6.4414 2.8164m7.34376-3.58984l5.5039 4.36719m-4.70312-3.73438l.21875-1.20703m13.1836-.22266l3.72265 5.95703m-3.72266-5.95703l1.23047-2.125m14.08203 1.59375l-.26953 7.01953m.26953-7.01953l2.21094-1.0703m9.86719 1.24608l2.20703 6.66797m-2.20703-6.66797l1.69531-1.77734m15.64453 7.0586l-5.84765-3.89454m4.99609 3.32813l-.1211 1.22265m13.63672.07813l-4.54296-5.36328m3.8828 4.58203l-.45702 1.14063m14.11328-.1211l-3.90625-5.83984m3.33984 4.99219l-.58203 1.07812m9.89063-.8086l5.23828-4.68359m-4.47657 4l-1.14843-.42187"/><g clip-path="url(#U)"><path fill="none" stroke="#000" stroke-linecap="round" stroke-linejoin="round" stroke-miterlimit="10" stroke-width=".5" d="M147.23438 412.375l-6.46875 2.7539"/></g><path fill="none" stroke="#000" stroke-linecap="round" stroke-linejoin="round" stroke-miterlimit="10" stroke-width=".5" d="M147.23438 412.375l1.90625 1.54297m-2.84766-1.14063l.95312.76953m13.32813-1.10546l-6.51953 2.625m6.51953-2.625l1.8789 1.57812m11.53907-1.28515l-6.72266 2.03906m6.72266-2.03906l1.73047 1.73828m11.67578-1.3711l-6.90625 1.30469m6.90625-1.30469l1.53515 1.91407m11.82422-.91016l-6.99219-.70313m6.9922.70313l.92968 2.26953m6.35547-.1875l5.0664-4.8711m11.77735 5.8047l-1.99219-6.73829m1.70313 5.75782l-.875.85937m16.96484-2.78906l-6.96484-.91406m5.95312.78125l.42969 1.14843m13.78906-2.45703l-6.7461 1.96875m6.7461-1.96875l1.71094 1.75781m11.41797-2.2539l-6.375 2.96094m5.44531-2.53125l.98047.74218m12.79297-1.92187l-5.4336 4.46094m4.64063-3.8125l1.13281.47265m12.55078-1.55469l-4.58203 5.32813m3.91406-4.55469l1.19532.26953m12.38671-1.33984l-3.78125 5.92187m3.23047-5.0625l1.22266.10157m12.25781-1.17578l-3.01172 6.35156m12.88672-6.10938l3.86719 5.86719m10.67578-6.375l1.41406 6.88281m-1.21093-5.88281l.9453-.78125m15.04298.46094l-4.33985 5.52344m3.71094-4.71875l1.20703.21484m8.53125-1.1211l4.07422 5.72657m9.98828-6.13281l2.57813 6.53906m-2.20313-5.58594l.79688-.9336m11.6289.23438l3.60547 6.03125m-3.60547-6.03125l1.26563-2.10156m12.70703 1.79687l2.29297 6.64063m-2.29297-6.64063l1.67187-1.79687m11.41797 1.88281l2.7422 6.46875m-2.7422-6.46875l1.54297-1.90625M437.5 410.28516l-1.13672 6.9375m.97266-5.92578l1.16015-.39454m13.48047 5.91016l-3.46094-6.11719m2.95704 5.22657l-.66016 1.03515m9.23828-3.03515l7.01953-.33594m-5.9961.28906l-.6289-1.05469"/><g clip-path="url(#V)"><path fill="none" stroke="#000" stroke-linecap="round" stroke-linejoin="round" stroke-miterlimit="10" stroke-width=".5" d="M147.05469 398.70313l-6.10938 3.47265"/></g><path fill="none" stroke="#000" stroke-linecap="round" stroke-linejoin="round" stroke-miterlimit="10" stroke-width=".5" d="M147.05469 398.70313l2.07031 1.3125m-2.96094-.8086l1.03906.65625m12.85157-1.625l-5.48047 4.39844m5.48047-4.39844l2.2539.96875m-3.05078-.32812l1.125.48437m12.21094-1.83984l-3.92578 5.82812m3.92578-5.82812l2.4414.25781m10.46485-.49219l-3.10938 6.30078m2.65625-5.38671l1.22657-.03516m13.79687 4.3789l-5.6211-4.21875m4.8047 3.60547l-.19141 1.21094m14.26563-.51953l-5.50391-4.3711m19.54687 1.69923l-6.96093.96875m5.94922-.82813l.71875.9961m13.40234-1.92188l-6.55078 2.53906m6.55078-2.53906l1.85937 1.60547m11.3711-1.8086l-6.3789 2.94532m5.44921-2.51563l.97656.74219m13.15235-1.39844l-6.14844 3.39844m5.2539-2.90235l1.02735.66797m12.91797-1.57421l-5.6211 4.21875m5.6211-4.21875l2.22265 1.03906m10.76172-1.41797l-4.95703 4.98047m4.95703-4.98047l2.34766.71094m9.75-1.5l-2.52344 6.55859m2.52344-6.5586l2.4375-.29687m9.92969.07422l-.62891 7m.53906-5.98047l1.1289-.47656m13.5547-.17578l-3.1836 6.26562m2.71875-5.35156l1.22656-.02344m12.66797-.82812l-3.41406 6.14062m2.91797-5.2461l1.22656.02345m10.04688-1.26172l1.66015 6.82812m-1.41797-5.83594l.91797-.8125m12.94532-.27734l.08203 7.02735m-.07032-6.00391l1.07422-.58985m13.32032-.27343l-2.10157 6.70703m1.79297-5.73047l1.20703-.22656m9.77735-.53125l3.17578 6.26562m-2.71485-5.35547l.70704-1m11.33984.65235l4.78906 5.14453m-4.08984-4.39844l.39844-1.16015m13.14453-.20704l2.9336 6.38282m-2.50782-5.45313l.7461-.97656m11.36327.53906l4.4961 5.40235m-3.83985-4.6172l.46485-1.13671m15.85547 6.26953l-2.82422-6.4336m2.41015 5.4961l-.7578.96484m11.89062.0625l2.36718-6.61718m-2.02343 5.65625l-1.21485.17578"/><g clip-path="url(#W)"><path fill="none" stroke="#000" stroke-linecap="round" stroke-linejoin="round" stroke-miterlimit="10" stroke-width=".5" d="M147.04297 385.36719l-6.08594 3.51172"/></g><path fill="none" stroke="#000" stroke-linecap="round" stroke-linejoin="round" stroke-miterlimit="10" stroke-width=".5" d="M147.04297 385.36719l2.08203 1.30078m-2.96875-.78906l1.04297.64843m12.73828-1.74218l-5.24219 4.67578m5.24219-4.67578l2.30078.84765m-3.0664-.16797l2.30468.84766m11.89453-1.38672l-5.48437 4.39453m5.48437-4.39453l2.25391.96875m-3.05078-.32812l2.2539.96875m11.85938-1.60938l-5.48438 4.39453m4.6875-3.7539l1.125.48437m11.79297 4.22656l-3.09765-6.30859m2.64844 5.39063l-.71875.99609m15.83984-1.2539l-5.8086-3.95704m5.8086 3.95703l-.26953 2.4414m13.97265-3.19921l-6.58593-2.4414m6.58593 2.4414l.32813 2.4336m13.15234-4.28126L233.75 387.75m5.90625-1.07031l.76172.96094m13.35547-1.84766l-6.5039 2.66015m6.5039-2.66015l1.88672 1.5664m11.375-1.6914l-6.39844 2.91015m6.39844-2.91015l1.9453 1.4961m10.98829-2.14063l-5.63672 4.19922m5.63672-4.19922l2.21875 1.05078m-3.03906-.4375l1.10937.52344m12.33594-1.83204l-4.25781 5.58985m4.25781-5.58985l2.42188.39454m10.98046-.32422l-4.42968 5.45312m4.42968-5.45312l2.41016.47265m9.88281-1.05468l-2.38672 6.61328m2.38672-6.61328l2.42969-.34766m11.1914.47656l-3 6.35547m2.5625-5.42969l1.22657-.05859m13.45703-.22656l-4.86328 5.07422m4.15625-4.33594l1.1836.33594m12.875-1.03907l-4.9336 5.00391m4.21484-4.27734l1.17578.35156m11.71875-1.82813l-2.65625 6.50391m2.65625-6.5039l2.44141-.25m9.82031 0l-.54687 7.0039m.54687-7.0039l2.25-.98048m10.51563.98047l.55078 7.00391m-.55078-7.0039l2.0664-1.32032m10.91797 1.36328l1.21485 6.91797m-1.21485-6.91797l1.9336-1.51172m10.3203 1.87891l3.33595 6.1836m-3.33594-6.1836l1.35937-2.04297m10.58204 3.3789l6.08203 3.51173m10.83984 1.71093l-1.13281-6.93359m17.02344 5.03906l-6.28516-3.14453m5.3711 2.6875l.03124 1.22656"/><g clip-path="url(#X)"><path fill="none" stroke="#000" stroke-linecap="round" stroke-linejoin="round" stroke-miterlimit="10" stroke-width=".5" d="M146.8711 371.78516l-5.7422 4.04687"/></g><path fill="none" stroke="#000" stroke-linecap="round" stroke-linejoin="round" stroke-miterlimit="10" stroke-width=".5" d="M146.8711 371.78516l2.1914 1.10546m10.8789-1.41406l-5.2539 4.66406m5.2539-4.66406l2.30079.85547m-3.0625-.17969l1.14844.4297m12.6875-1.35157l-4.77344 5.15625m4.77344-5.15625l2.375.625m11.59765.19531l-6.08594 3.51563m5.19922-3.00391l1.04297.64844m13.3125 2.05469l-6.39453-2.91407m20.01172 1.76172l-7-.60937m5.98437.51953l.47657 1.1289m13.83984-1.80859l-6.96875.92578m6.96875-.92578l1.42578 1.9961m11.91406-1.70704l-7.01953.35156m7.01953-.35156l1.25782 2.10547m12.01172-2.51172l-6.9297 1.16406m6.9297-1.16406l1.49609 1.94531m-2.5039-1.77734l.74609.97656m13.45703-1.64453l-6.6875 2.16406m6.6875-2.16406l1.76172 1.70703m11.28515-2.32812l-6.14843 3.40625m6.14843-3.40625l2.05469 1.33984m10.45703-2.3164l-4.54297 5.35937m4.54297-5.35937l2.39844.52343m-3.0586.25391l1.19922.26172m12.34766-1.35156l-3.6875 5.98437m3.6875-5.98437l2.44922.15625m-2.98438.71484l1.22266.07813m13.28906-.41797l-5.01172 4.92187m5.01172-4.92187l2.33985.73828m11.59765.125l-6.25781 3.19531m5.34766-2.73047l1.0078.69922m11.61329-2.73438l-3.04687 6.33204m2.60156-5.41016l1.22656-.04688m11.40234-1.19921l-.78515 6.98437m.78515-6.98437l2.28125-.90235m11.60157 1.01563l-1.92188 6.75781m1.92188-6.75781l2.39843-.51563m11.33204.66016l-2.75 6.46875m2.75-6.46875l2.4453-.21094m10.3047.02735l-1.6211 6.83593m1.6211-6.83594l2.37109-.625m10.28906.53125l-.3125 7.01954m.3125-7.01954l2.21485-1.05468m11.58984 1.11328l-1.28906 6.90625m1.10156-5.90235l1.16797-.36718m10.19922-.36719l2.98047 6.36719m-2.54688-5.4414l.73828-.98048m15.59375 6.15625l-3.91797-5.83594m3.91797 5.83594l-1.15625 2.16406m15.30078-2.9453l-5.57812-4.27344m5.57812 4.27343l-.40625 2.42188"/><g clip-path="url(#Y)"><path fill="none" stroke="#000" stroke-linecap="round" stroke-linejoin="round" stroke-miterlimit="10" stroke-width=".5" d="M146.875 358.47656l-5.75 4.03516"/></g><path fill="none" stroke="#000" stroke-linecap="round" stroke-linejoin="round" stroke-miterlimit="10" stroke-width=".5" d="M146.03906 359.0625l1.09375.55469m12.8125-1.45313l-5.26172 4.65625m5.26172-4.65625l2.30078.85938m10.89063-.99219l-5.01563 4.92188m5.01563-4.92188l2.33984.73828m11.61719.16797l-6.30078 3.10938m6.30078-3.10938l1.99219 1.4336m11.6211.80468l-6.89454-1.36719m6.89453 1.3672l.70703 2.35155m12.51563-1.99218l-6.71094-2.08204m6.71094 2.08204l.46094 2.41015m12.97656-3.95703L220.41406 361m6.95313-1.01172l1.45312 1.97656m-2.46484-1.82812l.72656.98828m13.63281-.80469l-7.01953.34375m7.01953-.34375l1.25782 2.10938m11.80468-3.25781l-6.51172 2.64062m6.51172-2.64063l1.87891 1.57422m10.84766-2.53906l-5.33594 4.57031m5.33594-4.5703l2.28515.89843m-3.0625-.23438l1.14453.44922m12.58985-1.47265l-4.6211 5.29296m4.6211-5.29296l2.39062.55468m-3.0625.21485l1.19532.27734m12.42968-1.32422l-3.89843 5.84766m3.89843-5.84766l2.4414.24219m-3.0078.60938l1.22265.12109m13.01172-.70313l-4.60547 5.3086m4.60547-5.3086l2.39453.55079m-3.0625.22265l1.19532.27344m12.28515-1.41016l-3.59765 6.03516m3.59765-6.03516l2.45313.1211m10.46875-.32422l-2.8086 6.4414m2.8086-6.4414l2.4453-.1914m10.51954.05858l-2.10937 6.70313m1.80078-5.72656l1.20703-.22656m13.34375-.30079l-3.96094 5.8047m3.96094-5.8047l2.4375.26954m10.7539-.34766L368.5 363.47656m3.71484-5.96484l2.44532.16406m-2.98828.70313l1.22656.08203m12.83984-.8086l-4.13281 5.6836m4.13281-5.6836l2.42969.33985m-3.03125.48437l1.21484.17188m12.82032-.90625l-4.3711 5.5039m4.3711-5.5039l2.41015.44531m11.03125-.33984l-4.625 5.28906m4.625-5.28906l2.39063.5625m-3.0625.20703l1.1953.28125m13.03517-.8164l-5.11329 4.8203m5.11329-4.8203l2.32421.78905m-3.0664-.08593l2.32422.78515m11.49218-1.71875l-4.6289 5.28516m4.6289-5.28516l2.39063.5586m-3.0625.21093l1.1914.27735m13.96485 1.1289l-6.96484.9297m6.96484-.9297l1.42578 1.9961m-2.4414-1.85938l1.42968 1.99219m12.8789-2.2539l-6.92577 1.17968m5.91797-1.00781l.75.97265"/><g clip-path="url(#Z)"><path fill="none" stroke="#000" stroke-linecap="round" stroke-linejoin="round" stroke-miterlimit="10" stroke-width=".5" d="M147.26953 345.89063l-6.53906 2.57421"/></g><path fill="none" stroke="#000" stroke-linecap="round" stroke-linejoin="round" stroke-miterlimit="10" stroke-width=".5" d="M146.3164 346.26563l.9336.79687m11.75781-2.96094l-3.38672 6.15625m2.89453-5.26172l1.22657.01563m12.76562-.80469l-3.75781 5.9414m3.21094-5.07421l1.22265.08984m13.58203-.08203l-5.64062 4.19531m4.82031-3.58593l1.10547.52343m13.65234 1.66797l-6.88671-1.41015m5.8828 1.20312l.34767 1.17969m13.41015.33594l-5.76172-4.02735m5.76172 4.02735l-.29687 2.43359m14.22656-4.78125l-6.99219.67188m6.99219-.67188l1.35547 2.04297m11.8789-2.53906l-6.82812 1.66015m6.82812-1.66015l1.62891 1.83203m-2.625-1.58985l.8164.91407m13.0625-2.1797l-5.96874 3.71095m5.96875-3.71094l2.12109 1.23047m-2.98828-.6914l1.0586.61327m12.4414-1.95312l-4.60547 5.3086m4.60547-5.3086l2.39453.55078m-3.0625.22265l1.19531.27344m12.19531-1.46094l-3.41796 6.13672m3.41797-6.13671l2.45312.04687M278.36328 345l1.22656.02734m12.73829-.82812l-3.72266 5.95703m3.72265-5.95703l2.44922.17187m-2.99218.69532l1.22656.08593m13.19922-.51171l-4.85938 5.07421m4.85938-5.07421l2.35937.66406m-3.0664.07422l1.17968.33203m13.01563-.89063l-5.20703 4.71875m5.20703-4.71875l2.3086.82813m-3.06641-.14453l1.15625.41796m12.57812-1.42968l-4.52734 5.375m4.52734-5.375l2.39844.51172m10.9336-.4961l-4.5625 5.33985m4.5625-5.33985l2.39452.53125m-3.05859.2461l1.19922.26562m13.15234-.67578l-5.3086 4.60547m5.3086-4.60547l2.28907.8789m10.96875-.9414l-5.19532 4.73047m5.19532-4.73047l2.3125.82422m10.98437-.84375l-5.16016 4.76953m5.16016-4.76953l2.3164.8086m11.00782-.80079l-5.17578 4.7539m5.17578-4.7539l2.3125.8164m11.60547.08985l-6.38281 2.9414m6.3828-2.9414l1.95313 1.48438m-2.88281-1.0547l.97656.7422m13.3086-1.08204l-6.46094 2.76172m6.46094-2.76171l1.91015 1.53906m-2.85156-1.13672l1.91016 1.53906m12.32812-1.98437l-6.42578 2.84765m6.42578-2.84765l1.92969 1.51562m-2.86328-1.10156l1.92969 1.51562m-2.8672-1.10156l.96485.75781m14.26953-1.47265l-6.51953 2.6211m6.51953-2.6211l1.875 1.57812M452.5586 346.25l1.875 1.57813m-2.82421-1.19922l.9375.79296m14.08203-1.95312l-6.13672 3.42188"/><g clip-path="url(#aa)"><path fill="none" stroke="#000" stroke-linecap="round" stroke-linejoin="round" stroke-miterlimit="10" stroke-width=".5" d="M466.6289 345.46875l2.0625 1.33203"/></g><g clip-path="url(#ab)"><path fill="none" stroke="#000" stroke-linecap="round" stroke-linejoin="round" stroke-miterlimit="10" stroke-width=".5" d="M465.73828 345.96484l2.0586 1.33204"/></g><path fill="none" stroke="#000" stroke-linecap="round" stroke-linejoin="round" stroke-miterlimit="10" stroke-width=".5" d="M464.84375 346.46484l1.03125.66407"/><g clip-path="url(#ac)"><path fill="none" stroke="#000" stroke-linecap="round" stroke-linejoin="round" stroke-miterlimit="10" stroke-width=".5" d="M147.42578 334.63672l-6.85156-1.54688"/></g><path fill="none" stroke="#000" stroke-linecap="round" stroke-linejoin="round" stroke-miterlimit="10" stroke-width=".5" d="M146.42969 334.41016l.32422 1.18359m14.05468-2.10547l-6.98828.75m5.97266-.64062l.6875 1.01562m13.65234-1.01953l-7.00781.53906m7.00781-.53906l1.3164 2.07422m11.98438-2.23438l-6.97656.85938m5.96094-.73438l.70312 1.00391m13.51953.2539l-6.76171-1.90624m6.76172 1.90625l.52343 2.39843m12.6914-2.08984l-6.55858-2.52344m6.55859 2.52344l.29687 2.4336m13.16016-2.89454l-6.84375-1.60156m6.84375 1.60156l.625 2.3711m-1.6211-2.60547l.3125 1.1875m14.01954-2.44531l-6.88672 1.3828m6.88672-1.3828l1.5586 1.89453m-2.5586-1.69532l.77734.94922m12.8125-2.6836l-5.4336 4.45313m5.4336-4.45312l2.26563.94531m-3.0547-.29687l1.12892.47265m12.22265-1.80469l-3.9336 5.82032m3.9336-5.82031l2.4414.2578m-3.01171.58594l1.21875.12891m12.26172-1.21094l-3.1211 6.29688m3.1211-6.29688l2.45312-.0703m-2.90625.98827l1.22657-.03515m12.78515-.75l-3.60937 6.03125m3.60937-6.03125l2.45313.125m12.10156 1.13671l-6.08594 3.50782m6.08594-3.50781l2.08203 1.30078m11.36719-1.05079l-6.35156 3.00782m6.35156-3.00781l1.96484 1.46484m-2.89062-1.02735l.98437.73438m13.15235-1.36719l-6.14844 3.39844m6.14844-3.39844l2.05859 1.33594m-2.95313-.84375l1.03125.67188m12.62891-1.91016l-5.04687 4.89062m5.04687-4.89062l2.33594.7539m-3.07031-.04296l1.16796.3789m12.01563-1.74219l-3.3164 6.19532m3.3164-6.19531l2.45703.0078m11.85156.78516l-5.30468 4.60938m5.30468-4.60938l2.29297.87891m10.60156-1.28906l-4.46093 5.42969m4.46093-5.4297l2.40235.48438m-3.05469.30469l1.20313.24219m13.39062-.35938l-5.71484 4.08594m5.71484-4.08594l2.19922 1.08985m11.76562.74609l-7.01562.41406m7.01562-.41406l1.27735 2.09375m-2.29688-2.03516l.63672 1.05079m13.67578-1.35938l-6.96875.91406m6.96875-.91406l1.42188 1.9961m-2.4375-1.86329l1.42578 1.9961m12.80469-2.6172l-6.76953 1.89063m6.76953-1.89062l1.6914 1.77734m-2.67578-1.5l1.6914 1.77344m-2.67577-1.5l.84375.88672m14.39453-1.58203l-6.67969 2.17969m6.67969-2.1797l1.76953 1.69923m-2.74219-1.38282l1.76953 1.70313m-2.73828-1.38672l1.76563 1.70313m13.17187-3.03907l-6.04297 3.58594"/><g clip-path="url(#ad)"><path fill="none" stroke="#000" stroke-linecap="round" stroke-linejoin="round" stroke-miterlimit="10" stroke-width=".5" d="M466.58203 332.07031l2.09766 1.27735"/></g><g clip-path="url(#ae)"><path fill="none" stroke="#000" stroke-linecap="round" stroke-linejoin="round" stroke-miterlimit="10" stroke-width=".5" d="M465.70313 332.59375l2.09765 1.27344"/></g><path fill="none" stroke="#000" stroke-linecap="round" stroke-linejoin="round" stroke-miterlimit="10" stroke-width=".5" d="M464.82422 333.11328l1.04687.63672"/><g clip-path="url(#af)"><path fill="none" stroke="#000" stroke-linecap="round" stroke-linejoin="round" stroke-miterlimit="10" stroke-width=".5" d="M147.51172 320.40625l-7.02344.28516"/></g><path fill="none" stroke="#000" stroke-linecap="round" stroke-linejoin="round" stroke-miterlimit="10" stroke-width=".5" d="M147.51172 320.40625l1.23828 2.11719m12.0625-2.3164l-6.9961.68358m6.9961-.68359l1.35547 2.04297m11.95312-1.3125l-6.98437-.78125m6.98437.78125l.90625 2.28125m12.25-1.55469l-6.66406-2.23047m5.69531 1.90625l.20313 1.20704m13.73437-.14844l-5.97265-3.70313m5.97265 3.70313l-.16406 2.44922m13.64063-2.73829l-6.29297-3.125m6.29297 3.125l.0664 2.45313m-.98437-2.90625l.07031 2.45313m14.5039-3.14844l-6.97656-.82422m6.97657.82422l.89062 2.28515m-1.90625-2.40625l.89063 2.28516m13.33203-3.53125l-6.76172 1.91016m6.76172-1.91016l1.69922 1.76953m-2.6836-1.49219l1.69922 1.77344m12.05078-3.17969l-5.66015 4.16797m5.66015-4.16797l2.21094 1.0625m-3.03516-.45703l2.21094 1.0625m11.17578-2.41797l-4.15625 5.66407m4.15625-5.66407l2.42969.35547m-3.03516.46875l1.21485.17578m12.10937-1.35156l-2.96484 6.3711m2.96484-6.3711l2.45313-.1289m-2.88282 1.05468l1.22657-.0625m12.58984-.83203l-3.10547 6.30469m3.10547-6.30469l2.44922-.07422m12.80078 3.64063l-6.97656-.82813m5.96094.71094l.4453 1.14063m13.84376-2.10938l-6.89453 1.34766m6.89453-1.34766l1.54687 1.90234m-2.55078-1.70703l.77344.95313m13.32422-1.86719l-6.45313 2.78125m6.45313-2.78125l1.91797 1.53516m-2.85547-1.12891l1.91406 1.53125m11.98438-2.57031l-5.7422 4.04687m5.7422-4.04687l2.1914 1.10937m-3.02734-.51953l2.1914 1.10547m11.76954-1.9375l-5.36329 4.53516m5.36329-4.53516l2.28125.91016m-3.0586-.25l2.27735.91015m11.96093-1.39062l-5.65234 4.17578m5.65234-4.17578l2.21094 1.05469m-3.03516-.44922l2.21485 1.05859m11.40234-2.23047l-4.60937 5.30469m4.60937-5.30469l2.39063.55078m10.9375-.53515l-4.63672 5.27734m4.63672-5.27734l2.39062.5625m11.2539-.23438l-5.29296 4.6211m4.52344-3.94922l1.14453.4375m13.04687-.98047l-5.51172 4.35937m5.51172-4.35937l2.25.98828m11.82032 1.3711l-7.01954-.35548m7.01954.35547l1.03906 2.21875m-2.0625-2.27344l.52344 1.11329m13.59765-2.46875l-6.58203 2.46484m6.58203-2.46484l1.83594 1.625m-2.79688-1.26563l1.83985 1.625m-2.79688-1.26953l.92188.8164m13.71875-2.55077l-5.39844 4.5"/><g clip-path="url(#ag)"><path fill="none" stroke="#000" stroke-linecap="round" stroke-linejoin="round" stroke-miterlimit="10" stroke-width=".5" d="M466.26172 318.29688l2.26953.92968"/></g><path fill="none" stroke="#000" stroke-linecap="round" stroke-linejoin="round" stroke-miterlimit="10" stroke-width=".5" d="M465.47656 318.95313l2.26953.92578m-3.05468-.26954l2.26953.92579"/><path fill="#00f" fill-rule="evenodd" d="M339.41797 467.64844h8.61719V457.5039h-8.6172v10.14453"/><path fill="azure" fill-rule="evenodd" d="M341.25 459.33594h.83203v2.82422h3.28906v-2.82422h.83204v6.48047h-.83204v-2.91797h-3.28906v2.91797H341.25v-6.48047"/><path fill="#00f" fill-rule="evenodd" d="M383.80078 432.14063h8.61719v-10.14454h-8.61719v10.14454"/><path fill="azure" fill-rule="evenodd" d="M385.63281 423.82813h.83203v2.82421h3.28907v-2.82421h.83203v6.48046h-.83203v-2.91796h-3.28907v2.91796h-.83203v-6.48046"/><path fill="#ff3030" fill-rule="evenodd" d="M295.72656 409.94922h7.69531v-10.14453h-7.6953v10.14453"/><path fill="azure" fill-rule="evenodd" d="M297.5586 401.63672h.83593v5.73828h3.1914v.74219h-4.02734v-6.48047"/><path fill="#00f" fill-rule="evenodd" d="M370.48438 401.07422h8.62109v-10.14844h-8.6211v10.14844"/><path fill="azure" fill-rule="evenodd" d="M372.3164 392.76172h.83594v2.82031h3.28516v-2.82031h.83203v6.47656h-.83203v-2.91406h-3.28516v2.91406h-.83593v-6.47656"/><path fill="#ff3030" fill-rule="evenodd" d="M442.1914 378.88281h7.69532v-10.14844h-7.69531v10.14844"/><path fill="azure" fill-rule="evenodd" d="M444.02734 370.5664h.83204v5.7422h3.1953v.73827h-4.02734v-6.48046"/><path fill="#ff3030" fill-rule="evenodd" d="M184.76953 361.1289h7.6914v-10.14843h-7.6914v10.14844"/><path fill="azure" fill-rule="evenodd" d="M186.60156 352.8164h.83203v5.73829h3.19532v.73828h-4.02735v-6.47656"/><path fill="#ffffe0" fill-rule="evenodd" d="M386.1289 410.91406h22.1797v-10.1914h-22.1797v10.1914"/><path fill-rule="evenodd" d="M389.625 402.55469h.51172v6.29297h-.78906v-4.48829h-1.38672v-.55468l.5586-.0664.2539-.0547.23047-.08984.20312-.14063.17188-.21093.14062-.29297.10547-.39453m4.8164 0l.22657.01953.22265.05469.20704.08984.1953.1211.1836.14843.17188.17578.30078.41797.2461.4961.17968.54687.10938.57813.03906.58984-.03906.59375-.10938.58594-.17969.55078-.2461.5039-.30077.4297-.17188.17968-.1836.15234-.1953.1211-.20704.09375-.22265.05468-.22656.02344-.23047-.02344-.21875-.05468-.20703-.09375-.19922-.1211-.1836-.15234-.17187-.17969-.30078-.42969-.24219-.5039-.17969-.55078-.11328-.58594-.03515-.59375h.83203l.02734.5625.08203.50781.125.4414.16406.375.19141.30079.21094.22265.22265.13672.22657.04688.22656-.04688.22265-.13671.21094-.22266.1914-.30078.16017-.375.125-.4414.08203-.50782.03125-.5625-.03125-.5586-.08204-.5039-.125-.4336-.16015-.36718-.1914-.29297-.21094-.21094-.22266-.13281-.22656-.04297-.22657.04297-.22265.13281-.21094.21094-.1914.29297-.16407.36719-.125.43359-.08203.5039-.02734.5586h-.83204l.03516-.58985.11328-.57812.17969-.54688.24219-.49609.30078-.41797.17187-.17578.1836-.14844.19922-.12109.20703-.08984.21875-.0547.23047-.01952m4.95312 0l.22656.01953.21875.05469.21094.08984.19531.1211.1836.14843.17187.17578.30078.41797.2461.4961.17969.54687.10937.57813.03906.58984-.03906.59375-.10938.58594-.17968.55078-.2461.5039-.30078.4297-.17187.17968-.1836.15234-.1953.1211-.21095.09375-.21875.05468-.22656.02344-.23047-.02344-.21875-.05468-.20703-.09375-.19922-.1211-.1836-.15234-.17187-.17969-.30078-.42969-.24219-.5039-.17968-.55078-.11328-.58594-.03907-.59375h.83594l.02735.5625.08203.50781.125.4414.16406.375.1914.30079.21094.22265.22266.13672.22656.04688.22656-.04688.22266-.13671.21094-.22266.1875-.30078.16406-.375.125-.4414.08203-.50782.03125-.5625-.03125-.5586-.08203-.5039-.125-.4336-.16406-.36718-.1875-.29297-.21094-.21094-.22266-.13281-.22656-.04297-.22656.04297-.22266.13281-.21094.21094-.1914.29297-.16406.36719-.125.43359-.08204.5039-.02734.5586h-.83594l.03907-.58985.11328-.57812.17969-.54688.24218-.49609.30078-.41797.17188-.17578.1836-.14844.19921-.12109.20703-.08984.21875-.0547.23047-.01952m4.95313 0l.38671.02734.35547.08203.32422.13672.28125.1875.22656.23828.17579.28516.10937.33203.03516.375-.01953.27734-.0586.23438-.08594.19922-.11328.16797-.1289.14453-.14063.125-.28515.19531.23046.11719.21094.14844.17969.17187.15625.1914.1211.21485.08984.23047.0586.24219.01952.2578-.03515.3086-.10547.32813-.17188.32422-.23828.30468-.3086.26954-.37109.21484-.21484.08203-.22656.0586-.2461.03906-.2578.01562-.26173-.01562-.24219-.03907-.22265-.05859-.20703-.08203-.35547-.21485-.29297-.26953-.22266-.30468-.15625-.32422-.09375-.32813-.03125-.3086h.83594l.02735.25392.07812.23437.1211.21094.16015.1836.1914.15233.22266.1172.23828.0703.25782.02735.2539-.02735.23828-.0703.22266-.1172.1914-.15234.16016-.1836.1211-.21093.07812-.23438.02735-.2539-.02735-.2539-.07812-.23438-.1211-.21094-.16015-.1875-.19141-.15234-.22266-.11329-.23828-.07421-.2539-.02344-.25782.02344-.23828.07421-.22265.11329-.19141.15234-.16016.1875-.12109.21094-.07813.23437-.02734.2539h-.83594l.01954-.2539.05859-.23828.08984-.22656.125-.20703.15235-.1914.17968-.17188.21094-.15235.23047-.13281-.28516-.19531-.14062-.125-.1289-.14453-.11329-.16797-.08594-.19922-.05859-.23438-.01953-.27734h.78515l.02344.21484.0664.19141.10548.16797.13672.14062.16406.10938.1875.08203.20703.05078.22266.01563.21875-.01563.20703-.05078.1875-.08203.16406-.10938.14063-.14062.10156-.16797.0664-.1914.02344-.21485-.02344-.21484-.0664-.19141-.10156-.16406-.14063-.14063-.16406-.10937-.1875-.08203-.20703-.05079-.21875-.01562-.22266.01563-.20703.05078-.1875.08203-.16406.10937-.13672.14063-.10547.16406-.0664.1914-.02344.21485h-.78516l.03515-.375.10938-.33203.17578-.28516.22656-.23828.28125-.1875.32422-.13672.35547-.08203.39063-.02734"/><path fill="#ffffe0" fill-rule="evenodd" d="M328.42969 337.38672h22.17969v-10.1914h-22.1797v10.1914"/><path fill-rule="evenodd" d="M331.92969 329.02734h.50781v6.29297h-.78516v-4.48828h-1.39062v-.55469l.5586-.0664.2539-.05469.23047-.08594.20312-.14453.17188-.20703.14453-.29688.10547-.39453m4.8125 0l.23047.01954.21875.05468.20703.08985.19531.12109.1836.14844.17187.17578.30469.42187.24218.4922.1797.54687.10937.57812.03906.58985-.03906.59375-.10938.58593-.17969.55469-.24218.5-.3047.42969-.17187.17969-.18359.15234-.19531.125-.20703.08984-.21875.0586-.23047.01953-.23047-.01953-.21875-.0586-.20703-.08984-.19531-.125-.1836-.15235-.17187-.17968-.3047-.42969-.24218-.5-.17969-.55469-.10937-.58594-.03906-.59375h.83203l.02734.56641.08203.5039.1289.44141.16017.375.1914.30079.21094.22265.22265.13672.22657.04688.22656-.04688.22266-.13672.21093-.22265.19141-.30079.16016-.375.1289-.4414.07813-.5039.03125-.56642-.03125-.55859-.07813-.5-.1289-.4375-.16016-.36719-.1914-.28906-.21094-.21484-.22266-.13281-.22656-.04297-.22656.04296-.22266.13282-.21094.21484-.1914.28906-.16016.3672-.1289.4375-.08204.5-.02734.55858h-.83203l.03906-.58984.10937-.57812.1797-.54688.24218-.49219.30469-.42187.17187-.17578.1836-.14844.1953-.1211.20704-.08984.21875-.05469.23047-.01953m5.08984 0h.51172v6.29297h-.78906v-4.48828h-1.38672v-.55469l.5586-.0664.2539-.05469.22656-.08594.20313-.14453.17578-.20703.14062-.29688.10547-.39453m2.82422 2.17579h.78906l.01953-.31641.0586-.28516.09765-.2539.14063-.21485.17969-.17578.22656-.1289.26172-.07813.3086-.02734.23827.01953.22266.0625.20703.10156.17969.14063.14844.17187.11328.20703.0703.23438.02345.26562-.01954.26953-.0664.22266-.10938.1914-.15625.17188-.19921.16406-.25.16406-.63282.39063-.53515.3125-.4375.3164-.34766.32423-.26563.33593-.1875.35156-.125.3672-.0703.39452-.01954.41797h4.21094v-.73828h-3.33203l.08203-.28515.11328-.23438.14844-.20313.1875-.17968.23047-.17188.27734-.17578.71875-.41797.41406-.20312.34766-.23047.28125-.2539.21875-.26563.16406-.27735.10938-.28515.0664-.28516.01953-.28125-.04296-.38281-.1211-.34766-.1875-.3086-.25-.26171-.30469-.21484-.34375-.15625-.3828-.09766-.40626-.03516-.4336.03125-.39843.10157-.35547.16406-.30469.23437-.24609.3047-.1875.375-.11719.4453-.03906.51954"/></g></defs><use xlink:href="#ah"/></svg>