<svg xmlns="http://www.w3.org/2000/svg" role="img" xmlns:xlink="http://www.w3.org/1999/xlink" viewBox="142.45 309.95 326.84 171.84"><defs><clipPath id="a"><path d="M144 311.67188h1v168.65625h-1zm0 0"/></clipPath><clipPath id="b"><path d="M144 311.67188h324v168.65625H144zm0 0"/></clipPath><clipPath id="c"><path d="M467 311.67188h1v168.65625h-1zm0 0"/></clipPath><clipPath id="d"><path d="M144 476h1v4.32813h-1zm0 0"/></clipPath><clipPath id="e"><path d="M155 476h5v4.32813h-5zm0 0"/></clipPath><clipPath id="f"><path d="M168 476h5v4.32813h-5zm0 0"/></clipPath><clipPath id="g"><path d="M181 477h6v3.32813h-6zm0 0"/></clipPath><clipPath id="h"><path d="M193 479h9v1.32813h-9zm0 0"/></clipPath><clipPath id="i"><path d="M210 476h1v4.32813h-1zm0 0"/></clipPath><clipPath id="j"><path d="M220 477h7v3.32813h-7zm0 0"/></clipPath><clipPath id="k"><path d="M233 479h8v1.32813h-8zm0 0"/></clipPath><clipPath id="l"><path d="M239 480h2v.32813h-2zm0 0"/></clipPath><clipPath id="m"><path d="M246 478h9v2.32813h-9zm0 0"/></clipPath><clipPath id="n"><path d="M252 479h3v1.32813h-3zm0 0"/></clipPath><clipPath id="o"><path d="M260 478h8v2.32813h-8zm0 0"/></clipPath><clipPath id="p"><path d="M265 478h3v2.32813h-3zm0 0"/></clipPath><clipPath id="q"><path d="M273 478h8v2.32813h-8zm0 0"/></clipPath><clipPath id="r"><path d="M280 478h3v2.32813h-3zm0 0"/></clipPath><clipPath id="s"><path d="M286 478h9v2.32813h-9zm0 0"/></clipPath><clipPath id="t"><path d="M293 478h3v2.32813h-3zm0 0"/></clipPath><clipPath id="u"><path d="M300 479h8v1.32813h-8zm0 0"/></clipPath><clipPath id="v"><path d="M307 479h2v1.32813h-2zm0 0"/></clipPath><clipPath id="w"><path d="M313 479h8v1.32813h-8zm0 0"/></clipPath><clipPath id="x"><path d="M319 480h2v.32813h-2zm0 0"/></clipPath><clipPath id="y"><path d="M326 479h9v1.32813h-9zm0 0"/></clipPath><clipPath id="z"><path d="M333 479h3v1.32813h-3zm0 0"/></clipPath><clipPath id="A"><path d="M341 477h6v3.32813h-6zm0 0"/></clipPath><clipPath id="B"><path d="M354 477h6v3.32813h-6zm0 0"/></clipPath><clipPath id="C"><path d="M366 479h9v1.32813h-9zm0 0"/></clipPath><clipPath id="D"><path d="M372 479h2v1.32813h-2zm0 0"/></clipPath><clipPath id="E"><path d="M379 479h9v1.32813h-9zm0 0"/></clipPath><clipPath id="F"><path d="M386 479h3v1.32813h-3zm0 0"/></clipPath><clipPath id="G"><path d="M394 477h6v3.32813h-6zm0 0"/></clipPath><clipPath id="H"><path d="M408 476h5v4.32813h-5zm0 0"/></clipPath><clipPath id="I"><path d="M420 478h7v2.32813h-7zm0 0"/></clipPath><clipPath id="J"><path d="M433 478h8v2.32813h-8zm0 0"/></clipPath><clipPath id="K"><path d="M448 476h4v4.32813h-4zm0 0"/></clipPath><clipPath id="L"><path d="M462 476h4v4.32813h-4zm0 0"/></clipPath><clipPath id="M"><path d="M144 464h4v6h-4zm0 0"/></clipPath><clipPath id="N"><path d="M144 451h4v5h-4zm0 0"/></clipPath><clipPath id="O"><path d="M144 438h4v5h-4zm0 0"/></clipPath><clipPath id="P"><path d="M144 425h4v4h-4zm0 0"/></clipPath><clipPath id="Q"><path d="M144 411h4v5h-4zm0 0"/></clipPath><clipPath id="R"><path d="M144 398h4v5h-4zm0 0"/></clipPath><clipPath id="S"><path d="M144 384h3v6h-3zm0 0"/></clipPath><clipPath id="T"><path d="M144 370h3v7h-3zm0 0"/></clipPath><clipPath id="U"><path d="M144 356h2v9h-2zm0 0"/></clipPath><clipPath id="V"><path d="M144 345h2v4h-2zm0 0"/></clipPath><clipPath id="W"><path d="M466 346h2v4h-2zm0 0"/></clipPath><clipPath id="X"><path d="M144 333h4v2h-4zm0 0"/></clipPath><clipPath id="Y"><path d="M466 333h2v3h-2zm0 0"/></clipPath><clipPath id="Z"><path d="M144 318h4v5h-4zm0 0"/></clipPath><clipPath id="aa"><path d="M466 318h2v3h-2zm0 0"/></clipPath><clipPath id="ab"><path d="M465 319h3v3h-3zm0 0"/></clipPath><g id="ac" clip-path="url(#clip1)"><path fill="#fff" fill-opacity="0" fill-rule="evenodd" d="M0 0h1000v1000H0zm0 0"/><path fill="#d3d3d3" fill-opacity="0" fill-rule="evenodd" d="M162.15234 355.86719l-.23437.29297.0586.23437.11718.17188.17578.23437.29297.34766.11328.0586.11719-.17188.0586-.23438.17577-.17578.46485-.17578h.69922l.23437.29297.28906.8164.0586.17579.17578.23046.35156.23438.69922.69922.17188.17578.23437.34765.23438.41016.28906.58203.41015.46485.23047.23437.23438.17578.11719.23047.17578.29297.17187 1.16406v.23438l.0586.28906.05859.11719.11719.11719.34765.41015.11719.17188.17578.17578.17578.23437.11719.17188.17188.35156.05859.23438.23437.40625.23438-.0586-.17578.17578-.0586.92969h-.58203l-.23437-.11328-.34766.11328-.11719.11719-.05859.29297-.0586.17578-.11718.17187-.46484.29297-.0586.23438-.0586.11328v.64453l.0586.17187v.41016l.0586.0586v.40624l.05859.40625.11719.17579.05859.05859.23047.64062-.0586.29297v.69922l-.05859.58203v.23438l-.0586.23047-.05468.35156v1.92187l.05469.1172h.42578l-.36719.11718-.02344.35156.89063 1.16797 1.74219.53906 1.33984.35938v.53906l.08984.8086.53516.71484 1.51953.26953.89063-.08594.08984 1.16406.53516.1797 1.16015-.1797 2.05469-.98437 1.16016-.36328 1.8789-.17578 1.69531-.1797-.17968.71876-1.51563.08594-1.25.08984-.80469.26953-1.07421.8086.26953.71875.53515.89843-.17968.625-.26563.8086.26563 1.07812.625.89844.80468.17969 1.25-.1797-.26562.72267.09766.5039.05468.29297v.17188l.0586.29296v.40625l.17578.1172.35156.11718h.40625l.29297-.17578.11328-.11719.0586-.11719.11718-.23047.0586-.17578.35156-.46484.23047-.17578.17578-.0586.17578.0586.0586.17578.11718.98828.05469.46875.0586.17188.11718.23437.17578.0586.8164.05859h.28907l.11719.23437.05859.40625.0586.35156v1.10547l.11718.29297.11719.34766.28906.69922.17578.35156.58203.7539.35157.17579.17187.0586.46875.23437.64063.46484.34765.23438.29297.17578.29297.05468.23047.0625.8164.34766.29297.17578.11328.17188.35157.35156.11719.17578.52343.64063v.28906l.0586.35156v.34766l.05859.35156.0586.28906.11718.0586.17188.05859h.17578l.58203.23437.17578.1172.17578.28905.17578.23438.11328.23437.29297.23047.11719.11719v.41016l.0586.05468.28906.23438.23437.11719.0586.11718.11718.17188.0586.11719.23047.23437.05859.17578.23437.0586.1172.05859-.1172.11328-.05859.11719v.11719l-.11719.29296-.11719.28907v.58203l.17579.11719.11718.05859.0586.11719.11719.11719.11328.05859.17578.34765.0586.35157.05858.40625v.17578l-.05859.17578-.11719.69922v.17187l.1172.17579.29296.29296h.40625l.17578.1172.11719.17187.11719.29296v.23438h-.52735l-.23047-.23438h-.23437l-.17578.0586-.0586.69922.0586.34765.11719.17579.17578.41015.11718.23047.28907.46875.17578.05469h.52344l.23437.0586.75781.64062.0586.29296v.23438l.05859.0586.23047.34765v.35156l-.11719.17188v.29297l.29297.28906.29297.17578.17187.0586.29297.17577.29297.1172.58203.40624.28906.23438.29297.17578.21875.16015.01563.01172.23047.17579.64062.52343.17578.23438.1172.17578.17577.17578.11328.17188v.64062l.1172.17578.46874.11719.58203.11719.23438.05859.23047.11328.29297.11719.11328.0586.58593.35156.28907.17187.17578.0625.17578.05469.17578.0586.69922.35155.28906.17579.23438.05468.28906.17578.23437.1172.64063.40624.29297.11719.17187.0586.23438.05859.41015.05859.23047.0586.23438.11718.0586.17188-.41017.17578.46875.0586.0586.29296.11328.23438.17578.05468.23438.0586.17578.05859.40625.11719.64062.23437.11719.17188.0586.23437v.17578l-.0586.1172-.0586.40624.23438.23438.11719.05859.34766.11719.64062.23047.17578.11718.28906.1172.17578.17577.23438.46485.58203 1.10546.17578.17579.34766.17578.17578.11719.35156.11718 1.04688.52344.23437.0586.46485.11327.29297.0586.46484.17578.75781.58203.23438.23438.34765.46484.17578.17578.28907.23438.8164.69921.29297.17579.28906.28906.29297.17578.29297.28906.69531.64063.17578.17578.29297.23437.28907.23438.46875.28906.64062.58203.34766.23438.23437.29297.34766.34765.35156.46485.9336.99218.34765.40625.11719.17579.23437.05859.11328.11719.64454.17578.23047.11328.23437.0586.29297.17577.23047.1172.9336.69921.40624.40625.23438.17578.40625.17578.23437.11719.8164.34766.34766.23437.23438.11719.29297.28906.23047.11719.7578.35156.35157.17188.23047.05859.29297.11719.23437.0586.8711.17577h.8164l.46875.23047.17188.0586.875.69921.46484.1172.29297.05858.17578.0586.23047.0586.46875.05859.34766.05859.35156.0586.40625.05859h.29297l.17187.0586v.23046l.17578.17578h.29297l.34766.0586.35156.05859.69922.11719h.64063l.46484-.23438.29297-.17578.17187-.11719.41016-.17187.28906-.17578.9336-.46485.46875-.29297.52343-.29296.46485-.17188.46484-.17578 1.05078-.46485.28906-.11718.41016-.11719.28906-.11719.52735-.17578 1.51562-.69922.58203-.34765.28907-.0586.29297-.0586.34765-.11718.875-.23047.35156-.11719h.11329l.23437-.05859.875-.23437.23438-.0586h.8125l.35156-.0586.8164-.11718.17188-.0586.35156-.05468.29297-.0586.23047-.05859.8164-.17578.17579-.0586h.34765l.23438-.05859.46484-.11718.75781-.17188.23438-.0586h.34765l.41016-.11718.28906-.0586 1.28516-.05859h.28906l.41016-.0586.23047-.05858h.17578l.875-.1172h.40625l.41015-.11718h.34766l.35156-.11328.8711-.0586h1.75l1.04687.28907.41016.11719.28906.11718.35156.11719.28907.11719 1.05078.17187.28906.0586h.29297l.29297.05859.17187.0586.41016.05859.17187.0586.1172.05858h.11718l.11719.0586.35156.0586h.11328l.41016.0664 1.92187.39453 1.92578.39453 1.51953.44922 1.69532.71875 2.14453.80469 1.60547-.71875 1.42968-.80469 1.16016-1.07813 1.25-.44921 3.03516-.71875 1.875-.35938 2.14453-1.34765 2.23437-1.25391 2.5-1.25781 1.69531-.44922 1.78516-.17969 1.16016-.26953.625.53906 1.33984-.26953.71485-.98828.98437-1.34375.44531-.17969.80469-.35937 1.875-.53907 1.78516-.44921 1.25-.26954 1.16015-.08984 1.69922-.08984 1.96094-.26954 1.25-.08984h.53906l.625-.08984h.89063l2.14453-.17969 2.41015-.17969 2.58985-.08984 1.69531.17969 1.60938.08984 1.42968.35938 1.16016.71875 1.875.98828 1.16015 1.52734.26563.71484.6289.08985.35548.89844.53515.53906.53516 1.52734 1.07422.35938h.53515l-.80469.53515.08985 1.70703.71484 2.69532.89063.80468.89453.98829.71484 1.2578 1.78516.53907 1.51953-.17969.35547 1.34375 1.60937-.80469.98047-.53906.26953.26953.31641-.21484.21875-.14453.80078.44922.44922-.35938h.35547l.53515-.26953.53907-.71875.53515-.26953.625-.98828 1.16016.44922.83984.3711 1.39454.61718 1.6953-.17969h1.60548l1.78515.08985.17969-1.70704.53516-1.34375.80468.26954.4922.84765.40233.40625-.08984.53906v.35938l.71485.44922.71093-.26953h1.42969l.35938.98828.4453 1.25781.71485 1.34375 1.25.6289 1.69531.62891.71485-.17969.17969-.53906.98046-.08984.44922.35937.08594 1.25782-.26563.6289-.53515.17969v.53906l.71484.98438.26563.53906.98437.98828.80078 1.07813-.26562.35937-.08985.89844-.625 2.33203-.35546 2.0664-.08985 1.79298-.17969.71875-.08984.53906v1.4375l-.98047 1.88281-.35937 1.70703-.53516.89844-.80469 1.16797-.26562.53906 2.05469 1.2539.08593.35938-.35546.53906-.08985-.17968v.80859l.08985 1.4375-.44532.71484-1.07422.09375-.26562.71485.53515.89844.8047.71875 1.16015.80859 1.33984.26953.44531.35938-.35546.44921-1.78907-.08984-1.25-.44922-.71484-.71875-.625-.08984-.17578 3.58984-.1875 1.3086h89.35937V311.70313h-55.26953v49.08203l.76172.125 3.28906.54296 2.02344 2.83594v2.7539l2.35156.33204 2.34766.33203h4.05078l-1.3789 4.16016-2.02344.70703-2.02344.70312-.54297.34375-2.59375 1.6172-.1875.11718-2.02344-2.07813-.73046-2.74218-2.67188-2.07813-1.375-3.5-.0664-.08203-1.95704-2.67188 2.75-1.41796v-49.08204H294.42187v91.41407l.1172.03125.1328.01172.07422.07421.10547.04688.08985.0586.08593.05859.08985.0586.29687.29687.0586.08984.03125.11719.02734.11719.01563.13671-.03125.1172-.0586.08983-.0586.08594-.04296.10547-.04688.10156-.02734.1211v.14453l.17578.26953.14844.14844.07422.08594.07422.07421.04296.10547.0625.08985.0586.08593.04297.10547.0586.08985.04687.10156.04296.10547.0586.08594.11719.17968.07421.07422.0625.08594.0586.08984.04297.10547.0586.08985.05858.08593.0625.08985.0586.08984.04297.10156.11719.17969.07421.07422.0586.08594.07422.07421.08984.0586.10547.04687h.14844l.1328-.01562.13282.01562.10156-.04687.07422-.07422.04688-.10156-.01563-.13281v-.14844l-.04687-.10547-.02735-.11719-.04687-.10156-.02735-.1211-.04296-.10156-.0625-.08984-.04297-.10156-.04297-.10547-.03125-.11719-.01563-.13281-.01171-.13672.08593-.0586.0586-.08593.12109-.03125.04297.10547.01562.1328v.1172l.0586.10156.0586.08984.08983.0586.14844.14843.0586.08985.04296.10547-.01171.10156.08593.0586.10547.04687.08594.0586.08984.05858.07422.07422-.11719.02735-.10546.04687-.08594.0586-.07422.07421-.0586.08985-.0625.08594-.02734.12109-.04687.10156-.04297.10547-.03125.11719-.01172.13281-.01563.13281v.14844l.02735.11719.04687.10547.04297.10156.0586.08984.07421.07422.08985.0586.07422.07421.08984.0586.0586.08984.04296.10547.04688.10156.11719.03125.1328.01563h.14845l.11718-.03125.10547.04297.04297.10547.04688.10156.02734.1211L299.5 410l.02734.11719.03125.1211.02735.11718.10547.04297.10156.04687.13281-.01562.14844.14844.0625.08593.07422.07422.07031.07422.08984.0625.10547.04297.10156.04297.1172.03125.13671.01562.11719-.03125.07422-.07422.02734-.11718-.01172-.13282-.03125-.12109-.02734-.11719.04297-.10547h.11719l.08984.0625.11719.02735h.14843l.13282.01562h.14843l.13282.01563.1328-.01563h.14845l.1328-.01562.13282-.01172.13672.01172.11719-.02735.13281-.01562.1914-.0586-.05859.17579-.01562.1328-.02735.1211-.01562.13281-.0586.08594-.1328.01563-.10548.04687-.10546.04297-.1172.03125-.11718.02735-.26563.03125h-.14843l-.13281.01562-.07422.07422.05859.08594.14844.14843.11719.1797.07421.0703.08985.0625.08984.0586.08594.0586.08984.05858.10156.04297.10547.0625.10547.04297.08594.0586.10547.04687.10156.04297.17969.11719.0586.08984-.04298.10156-.04687.10547.01562.13281.22266.22266.0586.08985.04296.10156.03125.1211.04297.10155.01563.13282.03125.11718.01171.13672.03125.11719.14844.14844.10156.04297.10547.04296.1172.03125.1328.01563.13672.01563h.11719l.11719-.03125.08984-.0586.04297-.10547.04688-.10156.04296-.10547.03125-.11719.01172-.1328v-.14845l-.01172-.1328-.01562-.13282-.03125-.11719-.04297-.10547-.04688-.10547-.04296-.10156-.04297-.10547-.01563-.13281.01563-.13281.02734-.11719.03125-.11719.02735-.1211.04687-.10155.08984-.0586.08594-.0625.07422-.07422.08984-.05859.22266-.22266.0586-.08593.07421-.07422.11719-.17969.0586-.08594v-.14844l-.07423-.07421-.10156-.04688-.10547-.04297-.10156-.04297-.0586-.08984-.04687-.10547-.02734-.11719.08984-.05859.11719-.03125.10156-.04297.17969-.11719.14844-.14843.01172-.13282-.01172-.10546-.08985-.0586-.1328.01563h-.14845l-.1328.01562-.13282-.01562-.1211-.03125-.08593-.0586-.07422-.07422-.0586-.08984-.0625-.08594-.11718-.17969-.0586-.08593.03125-.1211.08594-.05859.1211-.03125.05859-.08594v-.1211l-.03125-.11718-.0586-.08984-.05859-.08594-.04687-.10547-.02735-.11719-.01562-.1328.0586-.08985.07421-.07422.08984-.0586.1172-.17968.07421-.07422.0586-.08594.14843-.14844.1211-.03125.1328-.01562.13282.01562.07422.07422.04297.10547.01562.13281-.03125.1172-.11719.03124-.1328.01172-.14844.14844-.04297.10547-.04688.10156-.02734.1211-.03125.11718v.14844l.03125.11719.04297.10546.05859.08985.07422.07031.07422.07422.11719.03125.12109.02734.11719-.02734.1328-.01563h.1172l.08984.0586.07422.07422.04687.10546.0586.08594.10156.04688.13281.01562.10547.04297.08594.0586-.01172.10546-.07422.07422-.17969.11719-.05859.08984-.08984.0586-.07032.07422-.07421.07421-.0625.08985-.02735.11719-.01562.1328.01562.13282-.01562.13281v.14844l.01562.13281.02735.1172.03125.12108.07421.07422.08985.0586.08594.0586.08984.05858.11719.03125v.08594l-.10157.04688-.08984.0586-.26563.03124-.11718.02735h-.14844l-.10547.04296-.10156.04688-.0586.08984-.0625.23438-.01171.13281-.03125.1211-.01563.1328v.29298l-.01172.1328.01172.13673.01563.1328.1328.01563.13282.01172.1211.03125.08593.0586.07422.07421.04688.10547.04296.10157.01563.1328v.44532l-.01563.13281v.44532l.03125.26562.02735.11719.01562.13281.03125.11719.08594.21094.03125.26562v.14844l-.03125.11719-.02734.11718-.03125.1211-.02735.11719-.03125.11718-.03125.1211-.01171.1328-.01563.13282.08984.0586.1172-.03125.10155.01562.04688.10547-.03125.26562v.44141l-.04297.10547-.04688.10547-.04296.10156-.04297.10547-.0586.08594-.03125.12109-.04296.11719-.03125.11719-.01563.1328.01563.13282.05859.08984.10547.04688.08594.0586.05859.08593-.01172.13672-.03125.11719-.04297.10156v.44531l-.01562.13281v.14844l-.03125.11719-.04297.10547-.02735.11719-.04687.10546-.04297.10157-.03125.12109-.02734.11719-.03125.13281-.03125.11719-.02735.11719-.04297.10546-.03125.1172-.03125.12108-.01171.13282-.01563.13281v.29688l.02734.11718v.14844l.04688.39844.02734.11719.0586.08984.12109.03125h.14844l.13281-.01563.0586.08985v.11719l-.0586.08984-.08984.0586-.10157.04296-.10546.04688-.08985.05859-.08594.0586-.13671.01562-.1172-.03125-.1328-.01563-.10157.04688-.0625.08594-.01172.13671-.01562.13282-.03125.11719-.02735.11718-.01562.13281-.03125.1211v.29687l.01563.13282.03125.11718v.14844l.01171.13281v.14844l-.02734.11719-.04688.10156-.02734.1211-.03125.11718-.0586.08985-.07421.07421-.10156.04297-.10547.04688-.11719.02734-.1211.03125-.10156-.04687.0586-.08594.10547-.04688.02734-.11718.03125-.11719.02734-.1211.03125-.11718v-.14844l.01563-.13281-.03125-.11719-.04297-.10547-.10547.01563-.07422.07422-.10156.04296-.08984.0625-.07422.07422-.04297.10157-.01563.1328-.03125.1172L304.25 426l-.03125.11719-.02734.11719-.03125.12109-.02735.11719-.03125.11718-.04297.10547-.08984.0586h-.08984l-.1172-.03125-.03124-.08594.01562-.13672-.03125-.11719v-.14844l-.01171-.1328v-.14844l-.0625-.23438-.02735-.1211-.04297-.10156-.04687-.10546-.0586-.08594-.05859-.08985-.04297-.10546-.0625-.08594-.14844-.14844-.0703-.07422-.10548-.04687-.10547-.04297-.10156-.04297-.29687-.29688-.08985-.07421-.08594-.0586-.10546-.04297-.08985-.0625-.08594-.0586-.10546-.04296-.08985-.0586-.08594-.0625-.07421-.0703-.10547-.04688-.08594-.0586-.10547-.04296-.08984-.0625-.10156-.04297-.10547-.04297-.08594-.0586-.10547-.04687-.10547-.04297-.10156-.04687-.08985-.0586-.10156-.04297-.10547-.04296-.08984-.0625-.11719-.02735-.13281-.01562-.13281.01562H299.75l-.13281.01563-.11719-.03125-.08984-.0586-.07422-.07422-.08985-.05859-.10156-.04688h-.14844l-.12109-.02734-.10156-.04297-.07422-.07422-.11719-.17968-.08984-.0586-.10156-.04297-.08985-.0625-.10547-.04296-.08984-.0586-.08594-.0586-.10547-.04687-.0586-.08594-.05858-.08984-.04297-.10547-.04688-.10156-.07422-.07422-.08594-.0586-.07421-.07421-.08985-.0586-.22265-.22265-.04297-.10547-.03125-.26563.10547-.04296h.14453l.10547.04296.07421.07422.08985.0586.08594.0586.10546.04687.08985.05859.14844.14844.0703.07422.14845.14843.0625.08594.07421.07422.08594.0586.07422.07421.08985.0625.08984.0586.08594.05859.26953.17578.10156.04688.10547.04296.10156.04297.04688-.07421.05859-.08594.07422-.07422.07031-.07422.10547.04297.07422.07422.0586.08984.04296.10156.04688.10547.04296.10547.1211.02735.11719-.02735.07421-.08984.04297-.10547.0586-.08985.07422-.07421.10546-.04297.1172-.02735.1328.01172.08985.0586.14844.14843.05859.08985.04297.10547.04687.10156.04297.10547.04297.10156.10547.04688.10547.04296.13281.01563.08594-.0586.0586-.08984.07421-.07422.10547-.04297.11719.02735.10547.04687.10156.04297.10547.04297.10156.04688.17969.11718v.11719l-.01563.13281.01563.13281.01562.13672.0586.08594.10156.04688.1211.02734.11718.03125h.14844l.11719-.03125.05859-.08984.17969-.1172.05859-.08983.07422-.07422.0586-.08594.11718-.17969.17969-.11719.11719.03125.08984.0586.04297.07422-.01563.1328v.1172l.08985.05859h.14843l.13282-.01563.1328-.01171.26563-.03125.10547-.04297.11719-.03125.1211-.02735.07421-.07421.07031-.07422.0625-.08985-.01562-.10547-.04688-.10156-.10156-.04297-.10547-.01562-.11718.02734-.26563.03125h-.14844l-.07421-.07422-.08985-.0586-.11719-.03124-.11718-.02735-.13282-.01562h-.14843l-.13282.01563h-.29687l-.10547-.04688-.14844-.14844-.04297-.10156-.05859-.08984.22266-.22266.08593-.0586.10547-.04296.11719-.03125.13281-.01563.13281.01563.13672.01562.10157.04297.1328-.01172.08985-.0625.10156-.04297.0625-.08984-.04687-.10156-.08984-.0586-.1172-.03125-.10155-.04296-.0586-.08985-.0625-.08984v-.11719l.01563-.13281.10547-.04688.07421-.07031v-.1211l-.08984-.05859-.03125-.11719.08985-.05859.07421-.07422.04297-.10547.0586-.08984.04687-.10156.01563-.13281v-.14844l-.04688-.10547-.04297-.10156-.08984-.0586-.13281-.01562-.10157-.04297-.13671-.01563-.1172-.03125h-.4453l-.13282-.01562-.13281-.01172-.13281-.01563-.11719-.03125h-.14844l-.13281-.01562-.13281-.01172-.26563-.03125-.1211-.04297-.08593-.0586-.07422-.07421v-.14844l.01172-.13281.10547-.04688.10156-.04296.13281-.01563h.15235l.13281-.01562h.29297l.1211.03125.10156.04296.08984.0586.23438.0625.12109-.04688.08984-.05859.10156-.04297.13282-.01562.10547.04296.10156.04688.13281.01172.1211-.02735h.14453l.12109-.03125.11719-.02734.10547-.04687.07421-.07422.08594-.0586.14844-.14843.0586-.08594.04687-.10547.02734-.11719.01563-.10547-.10156-.04296-.08985-.0586-.11719-.03125-.10546-.04297-.08985-.0625-.07422-.08594-.07422-.07421-.10156-.04297-.10547-.04688-.10156-.04297-.0586-.08984-.04687-.10156-.08594-.21094-.0625-.08594-.05859-.08984-.07422-.07422-.08594-.0586h-.26953l-.11719.03126-.08984.05859-.10156.04297-.13281.01562-.10547-.01562-.02735-.11719-.0625-.08984-.11718-.03125-.10157-.04297-.14843-.14844-.03125-.11719-.01563-.10546.07422-.07422.17969-.1172.11719-.02733.11718-.03125.13672.01562.10156.04297.10547.04297.10156.04687.10547.04297.1172.03125.1328.01563.1172.02734.1328.01563.10547-.01563.08985-.0586-.07422-.07421-.10547-.04297-.07422-.07422-.07422-.08984-.14844-.14844-.08593-.0586-.08985-.05859-.07422-.07422-.08984-.0586-.10156-.04687-.1211-.02734-.10156-.04688-.10547-.04296-.11719-.03125-.10156-.04297-.1211-.03125h-.14843l-.11719.03125-.10546.04297-.08594.0625-.17969.11718-.08594.0586-.08984.0586-.10547.04687-.08594.05859-.10547.04297-.10156.04297-.10547.04687-.07422.07422-.05859.08985-.0586.08593-.04687.10547-.0586.08594-.07421.07422-.13281-.01172-.1172-.03125h-.11718l-.07422.07422-.08984.0586-.07422.07421-.08984.0586-.08594.05859-.10547.04687-.10156.04297-.13672.01563-.10156-.04297-.14844-.14844-.10547-.04688h-.08594l-.10547.04688-.10156.04297-.1211.03125-.11718-.03125-.07422-.07422v-.11719l.03125-.1211.07422-.0703.0586-.08985.07421-.07422.11719-.03125.10547-.04296h.29297l.13281-.01563.13672-.01563.10156-.04296.08985-.0586.10156-.04687.08984-.0586.13281-.01171.08985.05859.13281.01172.08984-.0586.08594-.05859.10547-.04297.08984-.0586.08594-.0625.08985-.05859.14843-.14843.0586-.08594.05859-.08985.10547-.04296.13281-.01563.11719.02735.1211.03125.05859-.0586.05859-.08984.03125-.26563.02734-.11719.10547.01172.13281.01563.10157-.04297.08984-.0586.0586-.08984.07421-.07422.0586-.08984.04687-.10156.01172-.13281-.01172-.13282-.04687-.10547-.14844-.14843-.0586-.08985-.05859-.08594-.04297-.10546v-.44532l.01563-.1328v-.14845l.01172-.1328-.0586-.0586-.08984.0586-.10156-.04298-.17969-.11719-.08594-.05859-.0625-.08984-.0586-.08985-.07421-.07421-.08594-.0586-.1211.03125-.10155.01172-.10547.04688-.08594.05859-.10547.04297-.14844.14844-.08984.05859-.08594.0586-.08984.0625-.10547.04296-.13281.01563v-.1211l.10547-.04297.11718-.03125.07422-.0703.04297-.10548v-.14844l-.02734-.11718-.14844-.14844-.13281-.01563h-.14844l-.11719.03125-.10547.04297-.10156.04297-.08984.0625-.11719.02735-.07422-.07422.01172-.13281-.04297-.10157-.04297-.10547-.08984-.05859-.11719.02734-.1211.03125-.11718.03125-.10156.04297-.1211.03125-.10156.04297-.10547.04297-.08984.0586-.10156.01562v-.11719l.01562-.13281-.0586-.08985-.07421.04297-.14844.14844-.0586.08985-.07421.07421-.04688.10547-.04296.10156-.07422.07422-.0586.08985-.07422.07422-.05859.08593-.07422.07422-.08984.0625-.07422.07031-.07422.07422-.10156.01563-.13281.01562-.10547-.04296v-.1211l.14843-.14844.04297-.10156.0586-.08984.04687-.10156.04297-.10547.0586-.08985.03124-.11719.04297-.10156.03125-.1211.02735-.11718.04687-.10547.04297-.10156.04297-.10547.07422-.07031.08984-.0625.08985-.0586.10156-.04296h.29687l.26563-.03125.10547-.04297-.07422-.07422-.11719-.03125-.10547-.04297-.08984-.0586-.10156-.04687-.08985-.0586-.10156-.04296-.10547-.04297-.08984-.0625-.08594-.0586-.10547-.04296-.10156-.04297-.1211-.03125-.11718-.03125-.10157-.04297L297.5 410.25l-.10156-.04297-.08985-.0586-.04296-.10546-.01563-.13281.10156-.04297.13281-.01563.13672.01563.13282-.01563.10156-.04297.0586-.08984.01562-.10547-.08985-.0586-.07421-.07421-.10157-.04297-.08984-.0586-.14844-.14843-.04297-.10547-.01562-.13281v-.29297l-.0586-.08985-.08984-.05859-.07422-.07422-.04297-.10547-.03125-.11718-.0586-.08985-.07421-.07422-.11719-.02734-.07422-.07422-.08984-.0586-.08984-.0625-.08594-.05859-.07422-.07421-.0586-.08594-.04687-.10547-.08594-.0586-.14843-.14843-.19532-.0586-.1328.01563-.10157.04297-.07422.07422-.04688.10156-.04296.10547-.0586.08984-.0586.08594-.29687.29687-.08984.0586h-.08594l-.0625-.08594-.04297-.10547.03125-.11719.0586-.08984.02734-.11719-.01172-.13281-.08984-.0625-.10547.04688-.11719.02734-.11719.03125-.26953.17578-.10156.04688-.11719.02734-.10546.04687-.08985.0586-.10156.04297-.0586-.08594-.04687-.10547.01563-.13281.04687-.10547.07031-.07422.07422-.07031.0586-.08985v-.14843l-.04297-.10547h-.23829l-.10156.04687-.03125.11719-.02734.11719-.03125.1211-.07422.04296-.13281.01563-.07422-.04688-.04297-.10156-.04297-.10547-.04687-.10156-.04297-.10547-.1211.03125-.10156.04297-.13281.01562-.11719.03125-.10547.04297-.08984.0586-.10156.04687-.1211.02734-.13281.01563-.10156-.04297-.0586-.08985-.04687-.10546-.04297-.10157-.04297-.10546v-.1172l.0586-.08984.08593-.05859.17969-.11719.10156-.04687.10547-.04297.10547-.0586.10156-.04296.08985-.0625.10156-.04297.10547-.0586.10156-.04687.08984-.0586.10547-.04296.10156-.04297.08985-.0625.10156-.04297.13672-.01563.11719.03125.10156.04297.1211.03125.10156.04297.10546.04688.10157.04296.10547.04297.10156.04688.10547.04297.10156.04297.10547.04687.08594.0586.10546.04296.1172.03125.10546.04297.10156.04688.08985.0586.10547.04296.10156.04297.10547.04687.11719.02735.10156.04687.1211.02735h.14843l.08594-.0586.01562-.10156.0586-.08984-.02735-.1172-.07422-.07421-.11719-.17969-.07421-.07422-.08985-.07421-.17969-.1172-.08593-.05859-.10547-.04296-.10156-.04688-.26954-.17578-.05859-.08985-.07422-.07421-.0586-.08985-.04296-.10156-.03125-.11719-.01563-.13672v-.5625l-.01171-.1328-.01563-.13282-.03125-.11719-.01562-.13281-.01172-.13281-.03125-.1211-.22266-.22265-.0586-.08594-.01562-.10547.03125-.11719.13281-.01562v-91.41406H172.9922v1.45312l-.0586.23438-.35156 1.05078-.17187.52343-.1172.34766-.17577.41016-.11719.17187-.23438.29297-.23046.0586h-.35157l-.11718.05859-.23047.40625v.29297l.11719.17578.23046.23047.1172.23437.64062.75781.29297.46485.17578.23437.23047.35156.23437.34766.64063.8164.17578.46485.17187.41016.11719.69531.17578.46875.11719 1.39844.0586.46484v.875l.11718 1.04688v4.78125l-.0586.46484-.35156 1.28125-.17578.52344-.11328.41015-.35156.9297L172.93359 336l-.23437.58203-.11719.17578-.17187.34766-.17578.40625-.35157.8164-.0586.29297-.11327.29297-.11719.28906-.0586.17579-.11718.875-.0586.40625-.05859.11718-.0586.17579-.05859.17187-.23047.52734-.11718.17188v.23437l-.11719.23438-.0586.17187-.17577.58594v.28906l-.0586.17579v.29296l-.0586.11329-.05859.52734v.17187l-.05468.23438v2.6211l-.17578.8164-.1172.17578-.17577.23438-.1172.17187-.11327.23438-.58594.93359-.23047.28906-.29297.46485-.17578.23437-.28906.35156-.35156.69922-.11328.23047-.17579.41016-.17578.23046-.40625.52735-.8164.69922-.29297.17187-.28906.23438-.17579.11719-.17578.17578-.52344.40625-.52734.17578-.17187.17578-.23438.05469-.64062.17578h-.75782m12.21094 31.02344l-1.07422.44921.35938.89454 1.25-.71485.44531-.53906-.98047-.08985"/><path fill="#d3d3d3" fill-opacity="0" fill-rule="evenodd" d="M201.50781 416.59766h-.89453l.44922.6289.98047.35938.80469-.08985.4453-.98828-.17577.08985-.71485-.35547-.89453.35547m154.6211 59.0703l-.0586-.52343v-.29297l.11328-.29297.0586-.23046.46875-.46875h.11328l.11719-.11329.11718-.05859h.17579l.23437-.0586h.34766l.23437.0586.11719.0586.23047.17187.0586.17578.11718.58203v.29297l-.11719.17578-.17187.28906-.17579.17579-.52734.52343-.23047.23438-.11719.0586h-.17578l-.11718-.0586-.40625-.29297-.17579-.11719-.11718-.0586-.0586-.11327-.05468-.1172m6.64062-10.95702l-.0586-.17188v-1.10937l.0586-.17188.17578-.0586.17188-.05858h.17578l.23437-.0586.1172.0586.05858.69921-.05859.17188-.11719.17578-.11718.0586-.23438.52343-.11328.0586h-.23438l-.05859-.1172m9.61328-14.39062l-.11719-.17578v-.69922l.29297-.875.1172-.17187.17577-.35156.11328-.23047.1172-.29297.35155-.75781.1172-.23047.17187-.23438h.17578l.11719-.0586h.64062l.11719.0586.23437.23438.17188.11328.35156.29297.11719.11718.11328.17579v.11328l.11719.05859.11718.11719v.69922l-.05859.17578v.23047l-.0586.17578-.34765 1.05078-.11719.23047-.11719.23437-.11718.0586-.23047.23437-.64063.28906h-.875l-.41015-.11718-.64063-.46485"/><path fill="none" stroke="#bebebe" stroke-linecap="round" stroke-linejoin="round" stroke-miterlimit="10" stroke-width=".5" d="M467.95703 311.69531H144.02734v168.625h323.9297v-168.625"/><g clip-path="url(#a)"><path fill="#fff" fill-opacity="0" fill-rule="evenodd" d="M144 475.89063v4.4375h.0039H144V311.67188h.0039H144v164.21875"/></g><g clip-path="url(#b)"><path fill="#fff" fill-opacity="0" fill-rule="evenodd" d="M144.0039 480.32813V311.67188h31.0625v120.4414l-4.4375 3.32031-.47265.51172-3.96484 1.95313-2.29688 2.48437-2.14062 2.75781-1.65235 1.6797-1.26953 4.4414-.88672 4.4375 1.17969 4.4375.05469 4.4375 2.57422 2.4961 4.4375-.04298 4.4375-.45703 4.4375.10156 4.4414-1.03515 4.4375 1.10937 4.4375-.5 2.0586-1.67187-2.0586-3.88281-.96484-.5547-3.47266-2.3828-2.5664 2.3828-1.8711 1.84767-1.41797-1.84766.33985-4.4375.29297-4.4375.78515-1.82813 2.05078-2.61328 2.38672-1.5625 3.79688-2.875-.38281-4.4375-3.41407-2.64453-4.4375 1.07422-4.4414-2.26172v-120.4414h26.6328V402.625l-2.21874 2.25 2.21875 2.97656 4.4375-1.39062 1.64062-1.58594-1.64062-2.03125-4.4375-.21875v-90.95313h13.3164v97.89063l-4.4414.83594-3.39453 3.35547 2.07812 4.4375 1.3164 1.1953 3.3125-1.1953 1.12892-.0547 4.09375-4.3828-4.09375-4.19141v-97.89063h22.1914v90.17188l-3.03125 3.03125.17969 4.4414 2.85156 3.83204 4.4375-2.23828 3.94922 2.84375-3.94922.91796-4.4375-.46093-4.4414 3.07812-1.6172.90235-2.8203.4453-4.39844 3.9922.58984 4.4414-.6289 1.44922-2.45313 2.98828-1.58203 4.4375-.40234.20703-.77735-.20703-3.66016-.97265-4.4414.23828-1.53516.73437-2.90234 1.26172-4.4375.8125-4.4375 1.41406-1.0039.94922 1.0039 3.8711.10937.5664 4.32813 4.3711 4.4375-.20313.41406.27344 2.0664 4.4375-2.48046 1.52344-2.84375 2.91406-.82031 4.4375 2.1289 4.4414 1.53516.53907 2.22656-.53906 2.21094-.58204 4.4414-2.28515 2.35938-1.57422 2.07813-1.79297 2.34375-2.64453 2.09375-3.44531.66796-.9922-.66797-1.15233-.66406-3.28516.66406-1.3164 2.77344-3.125 1.11719-4.4375.54688-.29688 2.91015-4.14063-2.91016-3.01172-1.99218-1.42578 1.99219-.96484 4.4375-.04297 2.60937 1.00781 1.83203 1.73438 4.4375 1.91015 4.4375-1.33593 2.39063-2.3086 2.04687-3.23828 4.4375.17969 4.4414.66797 3.35157 2.39062 1.08594 1.48438.77734 2.95312.88281 4.4375 2.77735 3.1289 4.4375.91407L276 440.38281l1.15234-.59375 4.4375-1.39453 2.58985-2.44922 1.84765-.34375 4.05079-4.09375.38671-4.40625.03516-.03125 1.32813-4.4414-1.36329-1.33594-4.4375-1.75-4.4375-.73438-4.4375-.17187-4.4414-.0039-4.4375.10546-4.02735 3.89063-.41015.48046-4.4375 1.88672-4.4414-.77343-.98048-1.59375.98047-3.51172 4.4414 1.89062 2.875-2.8164 1.23048-4.4375.33203-4.17579.13281-.26171-.13281-.22657-2.41406-4.21484-2.02344-1.50781-4.4414.83984-.67188.66797-3.76563 3.22266-1.21094 1.21875-3.22656 3.92578-2.79687-3.92578-1.5-4.44141-.14063-.14063-4.4375-2.89062v-90.17188h13.3125v39.66797l-.1836.27735.1836.36719.25781-.3672-.2578-.27734v-39.66796h62.13671V451.0625l-4.4375.05469-3.26953 2.58203-1.16797 1.07812-4.4375 1.82032-2.07031 1.53906 2.07031 1.3125 4.4375 2.39844 4.4375.41796 4.4375-.25 4.4414-1.02734 3.76173-2.85156-.81641-4.4375-2.94531-2.01563-4.44141-.62109V311.67187h22.1914v136.08985l-2.9414 1.5-1.4961.48047-4.4375 2.30469-1.0664 1.65234-.82422 4.4375 1.89063.82812 4.4375 1.76172 3.58593-2.58984.85157-1.09766 4.4414-2.72656.79688-.61328.17187-4.4375-.96875-.32031-4.4414-1.1797V311.67189H463.5625v140.72265l-1 1.30469-3.4375 1.83594-4.4414.47265-2.39844 2.1289-2.03907 1.94923-3.22265 2.48828 3.22265 3.27734 4.4375.48438 4.44141-.92578V473l-2.6289 2.89063 2.6289 2.05468 2.4414-2.05469L459.125 473v-7.58984l2.6914-2.83594-.08593-4.4375 1.83203-3.4336 1.1211-1.0039-1.1211-1.30469V311.67188h4.4336v168.65625H144.0039"/></g><path fill="#50fcfc" fill-rule="evenodd" d="M159.125 458.13672l-1.17969-4.4375.88672-4.4375 1.26953-4.4414 1.65235-1.6797 2.14062-2.7578 2.29688-2.48438 3.96484-1.95313.47266-.51172 4.4375-3.3203v6.1328l-4.4375.00782-3.14063 2.1289-1.29687.83985-3.13672 3.59765-1.30078 3.76172-.30078.67969-1.95313 4.4375 2.2539 3.96094 2.88282.47656 1.55469 1.54687 1.42578-1.54687 3.01172-1.57422 1.54297-2.86328 2.71875-4.4375.17578-.07031 3.21875-4.3711 1.22265-3.16406 1.9375-1.27344-1.9375-1.29297-4.4414-.84375v-6.1328l4.4414 2.26171 4.4375-1.07422 3.41406 2.64453.38282 4.4375-3.79688 2.875-2.38672 1.5625-2.05078 2.61328-.78515 1.82813-.29297 4.4375-.33985 4.4375 1.41797 1.84765 1.8711-1.84765 2.5664-2.38281 3.47266 2.3828.96484.5547 2.0586 3.8828-2.0586 1.67188-4.4375.5-4.4375-1.10937-4.4414 1.03515-4.4375-.10156-4.4375.45703-4.4375.04297-2.57422-2.4961-.05469-4.4375"/><path fill="#00e8fc" fill-rule="evenodd" d="M161.7539 457.66016l-2.2539-3.96094 1.95313-4.4375.30078-.67969 1.30078-3.76172 3.13672-3.59765 1.29687-.83985 3.14063-2.1289v5.34765l-3.0625 1.21875-1.375 1.38672-.71485 3.05469.71485 2.01953 1.0664-2.01953 3.3711-3.36328 4.4375-.64453.3203-.4336-.3203-.60937-4.4375-.60938v-5.34765l4.4375-.00782 4.4414.84375 1.9375 1.29297-1.9375 1.27344-1.22265 3.16406-3.21875 4.3711-.17578.0703-2.71875 4.4375-1.54297 2.86329-3.01172 1.57422-1.42578 1.54687-1.5547-1.54687-2.8828-.47656"/><path fill="#00d4fc" fill-rule="evenodd" d="M166.1914 451.28125l-.71484-2.01953.71485-3.05469 1.375-1.38672 3.0625-1.21875 4.4375.60938.3203.60937-.3203.4336-4.4375.64453-3.3711 3.36328-1.0664 2.01953"/><path fill="#50fcfc" fill-rule="evenodd" d="M197.26172 444.2539l-1.0039-3.87109 1.0039-.94922 4.4375-1.41406 4.4375-.8125 2.90234-1.26172 1.53516-.73437v4.3125l-1.47656.85937-2.44922 4.4375 3.92578 2.77735 1.5664 1.66406 2.13282 4.4375-3.69922 4.1289-.40625.3086.40625.57422 4.4414-.51172.06641-.0625 1.64844-4.4375 2.72266-2.54688.625-1.89062-.625-1.1875-3.25-3.2539-1.1875-1.33204-3.04688-3.10547-1.39453-.85937v-4.3125l4.4414-.23828 3.66016.97265.77734.20703.40235-.20703 1.58203-4.4375 2.45313-2.98828.6289-1.44922-.58984-4.4414 4.39844-3.9922 2.8203-.4453 1.6172-.90235 4.4414-3.07812 4.4375.46094 3.94922-.91797-3.94922-2.84375-4.4375 2.23828-2.85156-3.83203-.17969-4.44141 3.03125-3.03125v2.11328l-.91797.91797.6914 4.4414.22657.30079.52734-.30078.83594-4.44141-1.36328-.91797v-2.11328l4.4375 2.89063.14063.14062 1.5 4.4414 2.79687 3.92579v2.05078l-4.4375.76562-4.4375.83204-1.63281 1.30078-2.8086 1.73437-4.4375.28906-2.66015 2.41407.65234 4.4414 2.00781 1.83203 4.4375-.13671 4.44141 2.09765.98438.64453 3.45312 2.45703 3.91406-2.45703.52344-.28906 3.71875-4.14844.30078-4.4414-1.60156-4.4375-2.41797-2.89844v-2.05078l3.22656-3.92578 1.21094-1.21875v7.78515l-.61719 2.3086.6172 1.90234 4.03515-1.90234-4.03516-2.3086v-7.78515l3.76563-3.22266.67187-.66797 4.4414-.83984v2.42969l-4.4414 1.35937-2.32812 2.16016-1.19532 4.4375 3.52344 3.125 3.91406 1.3125.52735.3203.32812-.3203 2.7539-4.4375.13673-4.4375-3.21875-3.51954v-2.42968l2.02344 1.50781 2.41406 4.21484.13281.22657-.13281.26171-.33203 4.17579-1.23047 4.4375-2.875 2.8164-4.4414-1.89062-.98048 3.51172.98047 1.59375 4.4414.77343 4.4375-1.88671.41016-.48047 4.02735-3.89063v.82422l-3.17578 3.0664-1.26172 1.47657-3.8789 2.96484 3.8789 3.50781.58203.9297 2.01172 4.4375 1.58594 4.4375.2578.29296 4.4375 1.03125 1.07813-1.32422 3.36328-1.73437 4.08594-2.70313.35156-.10937 4.4375-.83594 3.45704-3.49219.80468-4.4375-2.46094-4.4414-1.80078-1.00782-4.4375-1.71875-4.4375.23829-4.4414-.31641-4.4375-.26172v-.82422l4.4375-.10547 4.4414.0039 4.4375.17188 4.4375.73438 4.4375 1.75 1.36329 1.33594-1.32813 4.4414-.03516.03125-.38671 4.40625-4.05079 4.09375-1.84765.34375-2.58985 2.44922-4.4375 1.39453-1.15234.59375-3.28906 4.04297-4.4375-.91406-2.77735-3.1289-.8828-4.4375-.77735-2.95313-1.08594-1.48438-3.35156-2.39062-4.4414-.66797-4.4375-.17969-2.04688 3.23828-2.39063 2.3086-4.4375 1.33593-4.4375-1.91015-1.83203-1.73438-2.60938-1.00781-4.4375.04297-1.99218.96484 1.99219 1.42578v2.4375l-1.10938.57422 1.10938.78906.55468-.78906-.55469-.57422v-2.4375l2.91016 3.01172-2.91016 4.14063-.54687.29687-1.11719 4.4375-2.77344 3.125-.66406 1.3164.66406 3.28517.66797 1.15234-.66797.99219-2.09375 3.4453-2.34375 2.64454-2.07812 1.79297-2.35938 1.57422-4.4414 2.28515-2.21094.58204-2.22656.53906-1.53516-.53906-2.1289-4.44141.8203-4.4375 2.84376-2.91406 2.48047-1.52344-2.0664-4.4375-.41407-.27344-4.4375.20313-4.32813-4.3711-.10937-.5664m4.4375-36.40235l-2.21875-2.97656 2.21875-2.25 4.4375.21875 1.64062 2.03125-1.64062 1.58594-4.4375 1.39062"/><path fill="#00e8fc" fill-rule="evenodd" d="M210.57422 447.59766l-3.92578-2.77735 2.44922-4.4375 1.47656-.85937 1.39453.85937 3.04688 3.10547 1.1875 1.33203 3.25 3.2539.625 1.1875-.625 1.89063-2.72266 2.54688-1.64844 4.4375-.0664.0625-4.44141.51172-.40625-.57422.40625-.3086 3.69922-4.1289-2.13281-4.4375-1.56641-1.66406"/><path fill="#50fcfc" fill-rule="evenodd" d="M209.25781 418.1914l-2.07812-4.4375 3.39453-3.35546 4.4414-.83594v.66016l-4.4414 1.8789-1.67188 1.65235 1.67188 2.48437 4.4414 1.21094 3.45313-3.69531-3.45313-3.53125v-.66016l4.09375 4.1914-4.09375 4.38282-1.1289.05469-3.3125 1.1953-1.3164-1.1953"/><path fill="#00e8fc" fill-rule="evenodd" d="M210.57422 416.23828l-1.67188-2.48437 1.67188-1.65235 4.4414-1.8789v1.09375l-3.73828 2.4375 3.73828 2.54687 2.37891-2.54687-2.3789-2.4375v-1.09375l3.45312 3.53125-3.45313 3.6953-4.4414-1.21093"/><path fill="#00d4fc" fill-rule="evenodd" d="M215.01563 416.30078l-3.73829-2.54687 3.73828-2.4375v1.09765l-2.05859 1.33985 2.0586 1.40234 1.30859-1.40234-1.3086-1.33985v-1.09765l2.37891 2.4375-2.3789 2.54687"/><path fill="#00c4fc" fill-rule="evenodd" d="M215.01563 415.15625l-2.0586-1.40234 2.0586-1.33985v1.09375l-.375.2461.375.2539.23828-.2539-.23828-.2461v-1.09375l1.30859 1.33985-1.3086 1.40234"/><path fill="#00b8fc" fill-rule="evenodd" d="M215.01563 414.00781l-.375-.2539.375-.2461.23828.2461-.23828.2539"/><path fill="#00e8fc" fill-rule="evenodd" d="M226.32031 427.07031l-.65234-4.4414 2.66016-2.41407 4.4375-.28906 2.80859-1.73437 1.63281-1.30079 4.4375-.83203 4.4375-.76562v2.79297l-1.45703.10547-2.98047.22265-4.4375.8711-4.03906 3.34375.82031 4.4414 3.21875 1.97266 3.76953 2.46484.66797.47266.7539-.47266 3.6836-2.03125 2.16016-2.40625.15625-4.4414-2.22656-4.4375-.08985-.10547v-2.79297L248.5 418.1914l1.60156 4.4375-.30078 4.4414-3.71875 4.14844-.52344.28906-3.91406 2.45703-3.45312-2.45703-.98438-.64453-4.4414-2.09765-4.4375.13671-2.00782-1.83203m2.00781 9.66406l-1.10937-.78906 1.10938-.57422.55468.57422-.55469.78906"/><path fill="#00d4fc" fill-rule="evenodd" d="M233.98828 427.07031l-.82031-4.4414 4.03906-3.34375v1.54687l-2.17187 1.79688 1.91406 4.4414.25781.15625 4.4375 3.59375 4.4375-3.08203.59766-.66797.01953-4.4414-.61719-1.21094-4.4375-.09375-4.4375-.49219v-1.54687l4.4375-.8711 2.98047-.22265 1.45703-.10547.08984.10547 2.22657 4.4375-.15625 4.4414-2.16016 2.40625-3.6836 2.03125-.7539.47266-.66797-.47266-3.76953-2.46484-3.21875-1.97266"/><path fill="#00c4fc" fill-rule="evenodd" d="M236.94922 427.07031l-1.91406-4.4414 2.17187-1.79688v1.54688l-.30469.25.3047.66796.99608 3.77344 3.44141 2.84766 3.71484-2.84766-3.71484-3.78125-3.4336-.66015-1.0039-.25v-1.54688l4.4375.49219 4.4375.09375.61719 1.21094-.01953 4.4414-.59766.66797-4.4375 3.08203-4.4375-3.59375-.25781-.15625"/><path fill="#00e8fc" fill-rule="evenodd" d="M236.98047 409.3164l-.6914-4.4414.91796-.91797 1.36328.91797-.83594 4.4414-.52734.30079-.22656-.30078"/><path fill="#00b8fc" fill-rule="evenodd" d="M237.20703 423.29688l-.30469-.66797.3047-.25 1.0039.25 3.4336.66015v1.19922l-2.35157 2.58203 2.35156 1.94531 2.53516-1.9453-2.53516-2.58204v-1.19922l3.71484 3.78125-3.71484 2.84766-3.4414-2.84766-.9961-3.77344"/><path fill="#00a8fc" fill-rule="evenodd" d="M241.64453 429.01563l-2.35156-1.94532 2.35156-2.58203v1.19531l-1.26172 1.38672 1.26172 1.04297 1.35938-1.04297-1.35938-1.38672v-1.1953l2.53516 2.58202-2.53516 1.94531"/><path fill="#009800" fill-rule="evenodd" d="M241.64453 428.11328l-1.26172-1.04297 1.26172-1.38672v1.19922l-.17187.1875.17187.14063.1836-.14063-.1836-.1875v-1.19922l1.35938 1.38672-1.35938 1.04297"/><path fill="#00ac00" fill-rule="evenodd" d="M241.64453 427.21094l-.17187-.14063.17187-.1875.1836.1875-.1836.14063"/><path fill="#fff" fill-opacity="0" fill-rule="evenodd" d="M250.51953 415.88281l-.61719 2.3086.6172 1.90234 4.03515-1.90234-4.03516-2.3086"/><path fill="#50fcfc" fill-rule="evenodd" d="M250.51953 351.98438l-.1836-.3672.1836-.27734.25781.27735-.2578.36719"/><path fill="#00e8fc" fill-rule="evenodd" d="M254.95703 416.8789l-3.52344-3.125 1.19532-4.4375 2.32812-2.16015 4.4414-1.35938v2.26172l-2.35156 1.25782-2.08984 2.54687-.94531 1.89063.94531.83984 4.4414 1.22656 1.3711-2.0664-.21875-4.4375-1.15234-1.25782v-2.26171l3.21875 3.51953-.13672 4.4375-2.7539 4.4375-.32813.3203-.52735-.3203-3.91406-1.3125"/><path fill="#00d4fc" fill-rule="evenodd" d="M254.95703 414.59375l-.94531-.83984.94531-1.89063 2.08984-2.54687 2.35157-1.25782 1.15234 1.25782.21875 4.4375-1.3711 2.0664-4.4414-1.22656"/><path fill="#00e8fc" fill-rule="evenodd" d="M263.83594 430.57813l-3.8789-3.50782 3.8789-2.96484 1.26172-1.47656 3.17578-3.06641v1.375l-1.7539 1.6914-2.6836 3.13673-1.70313 1.30468 1.70313 1.54297 1.82031 2.89453 2.61719 3.7461.60547.6914 3.83203 3.45313 4.4414-2.65235 1.21094-.80078 3.22656-.99219 4.4375-.95312 2.46485-2.49219 1.5-4.4375-3.96485-4.21875-2.61328-.22265-1.82422-.90235-4.3828.90235-.0547.0078-.0703-.0078-4.3711-.81641-4.4375-.875v-1.375l4.4375.26172 4.4414.3164 4.4375-.23828 4.4375 1.71875 1.80079 1.00782 2.46093 4.4414-.80469 4.4375L286.02735 435l-4.4375.83594-.35156.10937-4.08594 2.70313-3.36328 1.73437-1.07812 1.32422-4.4375-1.03125-.25781-.29297-1.58594-4.4375-2.01172-4.4375-.58203-.92969"/><path fill="#00d4fc" fill-rule="evenodd" d="M263.83594 428.61328l-1.70313-1.54297 1.70313-1.30469 2.6836-3.13671 1.7539-1.69141v1.375l-.32813.3164-3.77734 4.44141 2.72265 4.4375 1.38282 1.97656 2.15234 2.46094 2.28516 2.0625 3.1914-2.0625 1.25-2.55469 4.4375.6797 4.4375-1.07423 1.47266-1.48828 2.19531-4.4375-3.66797-3.90234-4.4375-.07031-4.4375.42578-4.4414-.16797-3.17969-.72656-1.25781-.31641v-1.375l4.4375.875 4.3711.8164.0703.00782.0547-.00781 4.3828-.90235 1.82422.90235 2.61328.22265 3.96485 4.21875-1.5 4.4375L286.02734 434l-4.4375.95313-3.22656.99218-1.21094.80078-4.4414 2.65235-3.83203-3.45313-.60547-.6914-2.61719-3.7461-1.82031-2.89453"/><path fill="#00c4fc" fill-rule="evenodd" d="M266.89063 431.50781l-2.72266-4.4375 3.77734-4.4414.32813-.31641 1.25781.3164 3.17969.72657 4.4414.16797 4.4375-.42578 4.4375.0703v.31642l-4.4375.54296-4.4375.38282-4.4414.17968-4.4375-.55468-2.5625 3.03515 2.41797 4.4375.14453.21094 3.69531 4.22656.74219.66797 1.03515-.66797-1.03515-3.59375-2.16016-.84375 2.16016-.23828 4.4414-.47656 1.02735.71484 3.41015 1.67578 4.4375-1.1914.48047-.48438 2.89453-4.4375-3.375-3.58594v-.3164l3.66797 3.90234-2.19531 4.4375-1.47266 1.48828-4.4375 1.07422-4.4375-.67969-1.25 2.5547-3.1914 2.0625-2.28516-2.0625-2.15234-2.46094-1.38281-1.97657"/><path fill="#00b8fc" fill-rule="evenodd" d="M268.1289 431.50781l-2.41796-4.4375 2.5625-3.03515 4.4375.55468 4.4414-.17968 4.4375-.38282 4.4375-.54296v.3125l-4.4375 1.16015-4.4375.33985-4.4414.52734-4.4375.03906-1.01953 1.20703 1.01953 1.89844 4.4375.21094 4.4414.3711 2.82422 1.95702 1.61328.79297 2.81641-.79297 1.6211-.21094 3.07812-4.22656-3.07813-3.27344v-.3125l3.375 3.58594-2.89453 4.4375-.48047.48438-4.4375 1.1914-3.41015-1.67578-1.02735-.71484-4.4414.47656-2.16016.23828 2.16016.84375 1.03515 3.59375-1.03515.66797-.74219-.66797-3.69531-4.22656-.14453-.21094"/><path fill="#00a8fc" fill-rule="evenodd" d="M268.27344 428.96875l-1.01953-1.89844 1.01953-1.20703 4.4375-.03906 4.4414-.52735 4.4375-.33984 4.4375-1.16015v.3164l-4.4375 1.76953-4.4375.30078-4.4414.875-.11719.01172.11719.01563 4.4414 1.22265 4.4375 2.8711 4.4375-.28906 2.78125-3.82032-2.78125-2.95703v-.3164l3.07813 3.27343-3.07813 4.22656-1.62109.21094-2.8164.79297-1.61329-.79297-2.82422-1.95703-4.4414-.3711-4.4375-.21093"/><path fill="#009800" fill-rule="evenodd" d="M272.71094 427.08594l-.11719-.01563.11719-.01172 4.4414-.875 4.4375-.30078 4.4375-1.76953v.3125l-4.4375 2.38672-4.39843.25781 4.39843.88672 4.4375 2.52735 2.48438-3.41407-2.48438-2.64453v-.3125l2.78125 2.95703-2.78125 3.82031-4.4375.28907-4.4375-2.8711-4.4414-1.22265"/><path fill="#00ac00" fill-rule="evenodd" d="M281.58984 427.95703l-4.39843-.88672 4.39843-.25781 4.4375-2.38672v.3164l-4.04296 2.32813 4.04296 3.00781 2.1875-3.0078-2.1875-2.32813v-.3164l2.48438 2.64452-2.48438 3.41406-4.4375-2.52734"/><path fill="#00c800" fill-rule="evenodd" d="M286.02734 430.07813l-4.04296-3.00782 4.04296-2.32812v.6289l-2.94921 1.69922 2.94921 2.1914 1.59766-2.1914-1.59766-1.69922v-.6289l2.1875 2.32812-2.1875 3.00781"/><path fill="#10cc00" fill-rule="evenodd" d="M286.02734 429.26172l-2.94921-2.1914 2.94921-1.69923V426l-1.85546 1.07031 1.85546 1.3789 1.00391-1.3789L286.02735 426v-.6289l1.59765 1.69921-1.59766 2.1914"/><path fill="#24d000" fill-rule="evenodd" d="M286.02734 428.44922l-1.85546-1.3789L286.02733 426v.6289l-.76171.44141.76171.5664.41407-.5664-.41407-.4414V426l1.00391 1.07031-1.0039 1.3789"/><path fill="#3cd800" fill-rule="evenodd" d="M286.02734 427.63672l-.76171-.5664.76171-.44141.41407.4414-.41407.5664"/><path fill="#50fcfc" fill-rule="evenodd" d="M299.34375 459.44922l-2.07031-1.3125 2.07031-1.53906 4.4375-1.82032 1.16797-1.07812 3.26953-2.58203v3.28906l-4.01563 3.73047 4.01563 2.11328 4.4375.0625 4.4414-1.83594.44923-.33984-.44922-.8125-4.44141-2.91406-4.4375-.00391v-3.28906l4.4375-.05469 4.4414.6211 2.94532 2.01562.8164 4.4375-3.76171 2.85156-4.44141 1.02735-4.4375.25-4.4375-.41797-4.4375-2.39844"/><path fill="#00e8fc" fill-rule="evenodd" d="M308.21875 460.25l-4.01563-2.11328 4.01563-3.73047 4.4375.0039 4.4414 2.91407.44923.8125-.44922.33984-4.44141 1.83594-4.4375-.0625"/><path fill="#50fcfc" fill-rule="evenodd" d="M325.97266 458.96484l-1.89063-.82812.82422-4.4375 1.0664-1.65235 4.4375-2.30468 1.4961-.48047 2.9414-1.5 4.44141 1.17969.96875.3203-.17187 4.4375-.79688.61329-4.4414 2.72656-.85157 1.09766-3.58593 2.58984-4.4375-1.76172m124.27343 6.88672l-3.22265-3.27734 3.22265-2.48828 2.03907-1.94922 2.39843-2.1289v2.90234l-3.7539 3.66406 3.7539 2.4414 4.41797-2.4414-4.41797-3.66406v-2.90235l4.44141-.47265 3.4375-1.83594 1-1.30469 1.1211 1.30469-1.1211 1.0039-1.83203 3.4336.08594 4.4375-2.69141 2.83594-4.4414.92578-4.4375-.48438"/><path fill="#00e8fc" fill-rule="evenodd" d="M454.6836 465.01563l-3.75391-2.44141 3.7539-3.66406v3.3125l-.35937.35156.35937.23437.42579-.23437-.42579-.35156v-3.3125l4.41797 3.66406-4.41797 2.4414"/><path fill="#00d4fc" fill-rule="evenodd" d="M454.6836 462.8086l-.35938-.23438.35937-.35156.42579.35156-.42579.23437"/><path fill="#50fcfc" fill-rule="evenodd" d="M459.125 477.94531l-2.6289-2.05469L459.125 473l2.4414 2.89063-2.4414 2.05468"/><g clip-path="url(#c)"><path fill="#fff" fill-opacity="0" fill-rule="evenodd" d="M467.9961 480.32813H468V311.67188h-.0039H468v168.65625h-.0039"/></g><path fill="#fff" fill-opacity="0" fill-rule="evenodd" d="M255.19922 410.9336l4.29687-3.96094-6.75-7.32422-4.29687 3.95703 6.75 7.32812"/><path fill-rule="evenodd" d="M252.26563 402.58203l.375-.34375 4.26562 4.6289-.58203.53516-3.03906-3.30468-1.02344.9414-.375-.41015.36719-.42579.14843-.21093.10938-.21875.05469-.24219-.01563-.27344-.09375-.3125-.1914-.36328"/><path fill="#fff" fill-opacity="0" fill-rule="evenodd" d="M257.78125 432.07422l2.50781 5.27344 8.9961-4.27735-2.50782-5.27734-8.99609 4.28125"/><path fill-rule="evenodd" d="M266.625 431.74219l.21875.46094-5.6836 2.70312-.33984-.71094 4.05469-1.92969-.59766-1.2539.50391-.23828.29688.47656.15625.20703.17968.16797.21485.1211.26562.0703h.32813l.40234-.07421"/><path fill="#fff" fill-opacity="0" fill-rule="evenodd" d="M163.05078 470.28516l5.83203-.32813-.5586-9.94531-5.83202.32812.5586 9.94532"/><path fill-rule="evenodd" d="M166.08984 461.97266l.50782-.02735.35547 6.28516-.78907.04297-.25-4.48047-1.38672.07812-.03125-.55468.5547-.09766.25-.0664.22265-.10157.19531-.15625.16406-.21875.125-.30078.08203-.40234"/><g clip-path="url(#d)"><path fill="none" stroke="#000" stroke-linecap="round" stroke-linejoin="round" stroke-miterlimit="10" stroke-width=".5" d="M143.52344 476.84766l.95312 6.96093"/></g><g clip-path="url(#e)"><path fill="none" stroke="#000" stroke-linecap="round" stroke-linejoin="round" stroke-miterlimit="10" stroke-width=".5" d="M155.85547 477.13281l2.92187 6.39063"/></g><path fill="none" stroke="#000" stroke-linecap="round" stroke-linejoin="round" stroke-miterlimit="10" stroke-width=".5" d="M156.27734 478.0625l.7461-.97266"/><g clip-path="url(#f)"><path fill="none" stroke="#000" stroke-linecap="round" stroke-linejoin="round" stroke-miterlimit="10" stroke-width=".5" d="M169.15625 477.14063l2.94531 6.3789"/></g><path fill="none" stroke="#000" stroke-linecap="round" stroke-linejoin="round" stroke-miterlimit="10" stroke-width=".5" d="M169.58594 478.0664l.74219-.97656"/><g clip-path="url(#g)"><path fill="none" stroke="#000" stroke-linecap="round" stroke-linejoin="round" stroke-miterlimit="10" stroke-width=".5" d="M181.85938 477.5l4.17187 5.65625"/></g><path fill="none" stroke="#000" stroke-linecap="round" stroke-linejoin="round" stroke-miterlimit="10" stroke-width=".5" d="M182.46484 478.32422l.53125-1.10547"/><g clip-path="url(#h)"><path fill="none" stroke="#000" stroke-linecap="round" stroke-linejoin="round" stroke-miterlimit="10" stroke-width=".5" d="M193.7539 480.08984l7.01173.47657"/></g><g clip-path="url(#i)"><path fill="none" stroke="#000" stroke-linecap="round" stroke-linejoin="round" stroke-miterlimit="10" stroke-width=".5" d="M210.73047 483.83984l-.3125-7.01953"/></g><g clip-path="url(#j)"><path fill="none" stroke="#000" stroke-linecap="round" stroke-linejoin="round" stroke-miterlimit="10" stroke-width=".5" d="M226.5664 482.60547l-5.35156-4.55469"/></g><g clip-path="url(#k)"><path fill="none" stroke="#000" stroke-linecap="round" stroke-linejoin="round" stroke-miterlimit="10" stroke-width=".5" d="M240.70703 480.61328l-7.0039-.57031"/></g><g clip-path="url(#l)"><path fill="none" stroke="#000" stroke-linecap="round" stroke-linejoin="round" stroke-miterlimit="10" stroke-width=".5" d="M239.6875 480.53125l.48828 1.125"/></g><g clip-path="url(#m)"><path fill="none" stroke="#000" stroke-linecap="round" stroke-linejoin="round" stroke-miterlimit="10" stroke-width=".5" d="M253.86328 479.2461l-6.6836 2.16406"/></g><g clip-path="url(#n)"><path fill="none" stroke="#000" stroke-linecap="round" stroke-linejoin="round" stroke-miterlimit="10" stroke-width=".5" d="M252.89063 479.5625l.8828.85156"/></g><g clip-path="url(#o)"><path fill="none" stroke="#000" stroke-linecap="round" stroke-linejoin="round" stroke-miterlimit="10" stroke-width=".5" d="M266.9414 478.6875l-6.21093 3.28125"/></g><g clip-path="url(#p)"><path fill="none" stroke="#000" stroke-linecap="round" stroke-linejoin="round" stroke-miterlimit="10" stroke-width=".5" d="M266.03906 479.16406l1.01563.6914"/></g><g clip-path="url(#q)"><path fill="none" stroke="#000" stroke-linecap="round" stroke-linejoin="round" stroke-miterlimit="10" stroke-width=".5" d="M280.3086 478.79297l-6.31641 3.07422"/></g><g clip-path="url(#r)"><path fill="none" stroke="#000" stroke-linecap="round" stroke-linejoin="round" stroke-miterlimit="10" stroke-width=".5" d="M280.3086 478.79297l1.98437 1.44531"/></g><g clip-path="url(#s)"><path fill="none" stroke="#000" stroke-linecap="round" stroke-linejoin="round" stroke-miterlimit="10" stroke-width=".5" d="M293.80469 479.24219l-6.67969 2.17578"/></g><g clip-path="url(#t)"><path fill="none" stroke="#000" stroke-linecap="round" stroke-linejoin="round" stroke-miterlimit="10" stroke-width=".5" d="M293.80469 479.24219l1.76953 1.70312"/></g><g clip-path="url(#u)"><path fill="none" stroke="#000" stroke-linecap="round" stroke-linejoin="round" stroke-miterlimit="10" stroke-width=".5" d="M307.27344 479.92969l-6.98438.80078"/></g><g clip-path="url(#v)"><path fill="none" stroke="#000" stroke-linecap="round" stroke-linejoin="round" stroke-miterlimit="10" stroke-width=".5" d="M307.27344 479.92969l1.39062 2.01953"/></g><g clip-path="url(#w)"><path fill="none" stroke="#000" stroke-linecap="round" stroke-linejoin="round" stroke-miterlimit="10" stroke-width=".5" d="M320.50781 481.16797l-6.82422-1.67969"/></g><g clip-path="url(#x)"><path fill="none" stroke="#000" stroke-linecap="round" stroke-linejoin="round" stroke-miterlimit="10" stroke-width=".5" d="M319.51563 480.92188l.30078 1.1914"/></g><g clip-path="url(#y)"><path fill="none" stroke="#000" stroke-linecap="round" stroke-linejoin="round" stroke-miterlimit="10" stroke-width=".5" d="M333.79688 479.39453l-6.77344 1.86719"/></g><g clip-path="url(#z)"><path fill="none" stroke="#000" stroke-linecap="round" stroke-linejoin="round" stroke-miterlimit="10" stroke-width=".5" d="M333.79688 479.39453l1.6875 1.78516"/></g><g clip-path="url(#A)"><path fill="none" stroke="#000" stroke-linecap="round" stroke-linejoin="round" stroke-miterlimit="10" stroke-width=".5" d="M345.9414 477.60156l-4.43359 5.45313"/></g><path fill="none" stroke="#000" stroke-linecap="round" stroke-linejoin="round" stroke-miterlimit="10" stroke-width=".5" d="M345.9414 477.60156l2.41016.47656"/><g clip-path="url(#B)"><path fill="none" stroke="#000" stroke-linecap="round" stroke-linejoin="round" stroke-miterlimit="10" stroke-width=".5" d="M359.28516 477.625l-4.48829 5.40625"/></g><path fill="none" stroke="#000" stroke-linecap="round" stroke-linejoin="round" stroke-miterlimit="10" stroke-width=".5" d="M358.63281 478.41406l1.19922.2461"/><g clip-path="url(#C)"><path fill="none" stroke="#000" stroke-linecap="round" stroke-linejoin="round" stroke-miterlimit="10" stroke-width=".5" d="M373.77734 479.52344l-6.83984 1.60937"/></g><g clip-path="url(#D)"><path fill="none" stroke="#000" stroke-linecap="round" stroke-linejoin="round" stroke-miterlimit="10" stroke-width=".5" d="M372.78125 479.75781l.8086.92578"/></g><g clip-path="url(#E)"><path fill="none" stroke="#000" stroke-linecap="round" stroke-linejoin="round" stroke-miterlimit="10" stroke-width=".5" d="M387.1211 479.65625L380.22265 481"/></g><g clip-path="url(#F)"><path fill="none" stroke="#000" stroke-linecap="round" stroke-linejoin="round" stroke-miterlimit="10" stroke-width=".5" d="M387.1211 479.65625l1.54296 1.90625"/></g><g clip-path="url(#G)"><path fill="none" stroke="#000" stroke-linecap="round" stroke-linejoin="round" stroke-miterlimit="10" stroke-width=".5" d="M399.64453 478.03125l-5.3164 4.59375"/></g><path fill="none" stroke="#000" stroke-linecap="round" stroke-linejoin="round" stroke-miterlimit="10" stroke-width=".5" d="M399.64453 478.03125l2.28906.88672"/><g clip-path="url(#H)"><path fill="none" stroke="#000" stroke-linecap="round" stroke-linejoin="round" stroke-miterlimit="10" stroke-width=".5" d="M411.92969 477.21484l-3.2539 6.22657"/></g><path fill="none" stroke="#000" stroke-linecap="round" stroke-linejoin="round" stroke-miterlimit="10" stroke-width=".5" d="M411.92969 477.21484l2.45312-.01953"/><g clip-path="url(#I)"><path fill="none" stroke="#000" stroke-linecap="round" stroke-linejoin="round" stroke-miterlimit="10" stroke-width=".5" d="M426.66406 478.57813l-6.09375 3.5"/></g><path fill="none" stroke="#000" stroke-linecap="round" stroke-linejoin="round" stroke-miterlimit="10" stroke-width=".5" d="M425.77734 479.08984l1.03907.65235"/><g clip-path="url(#J)"><path fill="none" stroke="#000" stroke-linecap="round" stroke-linejoin="round" stroke-miterlimit="10" stroke-width=".5" d="M439.85547 478.3789l-5.84766 3.89844"/></g><path fill="none" stroke="#000" stroke-linecap="round" stroke-linejoin="round" stroke-miterlimit="10" stroke-width=".5" d="M439.85547 478.3789l2.16015 1.16407"/><g clip-path="url(#K)"><path fill="none" stroke="#000" stroke-linecap="round" stroke-linejoin="round" stroke-miterlimit="10" stroke-width=".5" d="M451.32422 476.98438l-2.15235 6.6875"/></g><path fill="none" stroke="#000" stroke-linecap="round" stroke-linejoin="round" stroke-miterlimit="10" stroke-width=".5" d="M451.01172 477.95703l1.20703-.21484"/><g clip-path="url(#L)"><path fill="none" stroke="#000" stroke-linecap="round" stroke-linejoin="round" stroke-miterlimit="10" stroke-width=".5" d="M464.83203 477.05469l-2.54297 6.55078"/></g><path fill="none" stroke="#000" stroke-linecap="round" stroke-linejoin="round" stroke-miterlimit="10" stroke-width=".5" d="M464.83203 477.05469l2.4375-.28906"/><g clip-path="url(#M)"><path fill="none" stroke="#000" stroke-linecap="round" stroke-linejoin="round" stroke-miterlimit="10" stroke-width=".5" d="M146.89063 465.01953l-5.78125 3.98828"/></g><path fill="none" stroke="#000" stroke-linecap="round" stroke-linejoin="round" stroke-miterlimit="10" stroke-width=".5" d="M146.05078 465.59766l1.08984.5664m12.46485-1.8164l-4.57813 5.33203m3.91016-4.55469l1.19922.26953m12.60937-1.1875l-4.23047 5.61328m3.61329-4.79687l1.21093.1914m12.87891-.8828l-4.54688 5.36327m3.88282-4.58203l1.19922.26172m13.96093 1.0039l-6.91015 1.26954m5.90625-1.08594l.76172.96484m12.21484 2.29297l-4.22266-5.61328m3.60938 4.79688l-.51953 1.11328m14.3789-.2461l-4.08593-5.71484m3.49218 4.88281l-.54687 1.09766m15.58203-1.60938L234.03516 465.5m5.41797 2.58594l.05468 1.22656m14.44922-3.02344l-6.875 1.44922m5.875-1.23828l.78906.9414m13.06641-2.29296l-5.95313 3.73047m5.08594-3.1875l1.0664.61328m12.88673-1.48438l-5.49219 4.38672m4.6914-3.7461l1.125.48829m13.48438-.28906l-6.48437 2.70703m5.54296-2.3125l.94922.77734m13.5547-.22265l-6.98048.80859m5.96485-.6914l.69921 1.01171m13.59766-1.35937l-6.91016 1.26953m6.91016-1.26953l1.52734 1.92187m11.83204-1.625l-6.9961.67578m6.9961-.67578l1.35156 2.04688m11.875-.85938l-6.82031-1.69922m6.8203 1.69922l.59376 2.3789m12.64062-4.34765l-6.66015 2.23828m5.6914-1.91406l.89063.84375m13.21484-1.60156l-6.30469 3.10547m5.38672-2.65235l.9961.71875m13.58984.60547l-7.01172-.44922m7.01172.44922l1.01172 2.23438m12.28516-2.88282l-6.97266.84766m6.97266-.84766l1.40625 2.00782m-2.41797-1.88672l.69922 1.00781m13.60546-1.30078l-6.92578 1.1914m6.92578-1.1914l1.5 1.9414m-2.5078-1.76562l.75.96875m13.57812.0039l-6.9375-1.10546m6.9375 1.10547l.79687 2.3203m12.55078-2.58202l-7.0039-.58203m7.0039.58203l.96875 2.2539m-1.98828-2.33984l.48438 1.1289m11.9961-4.4375l-3.29298 6.20704m2.8125-5.30469h1.22656m11.2461 5.69922l-.64844-6.9961m.55469 5.98047l-1.02735.67188"/><g clip-path="url(#N)"><path fill="none" stroke="#000" stroke-linecap="round" stroke-linejoin="round" stroke-miterlimit="10" stroke-width=".5" d="M147.08984 452.02734l-6.17968 3.34375"/></g><path fill="none" stroke="#000" stroke-linecap="round" stroke-linejoin="round" stroke-miterlimit="10" stroke-width=".5" d="M146.1914 452.51172l1.02344.67969m13.39453-.71485l-6.58593 2.44531m5.625-2.08984l.91797.8125m13.22656-1.47656l-6.32422 3.0586m6.32422-3.0586l1.98047 1.44922m11.5586-.85547l-6.77345 1.875m6.77344-1.875l1.6875 1.78125m11.7539-.84375h-7.02734m6.00391 0l.57813 1.08203m13.64453-.1914l-6.79688-1.78126m5.8086 1.51953l.28515 1.19532m14.03125-.97266l-6.82031-1.70312m5.82812 1.45703l.29297 1.1875m13.73047-.1914l-6.2539-3.20704m5.34375 2.74219l.01953 1.22656m14.5703-1.96875l-6.98437-.78906m5.96875.67187l.44922 1.14453m13.79688-2.27734l-6.8125 1.71094m5.82031-1.46094l.82422.91016m13.25781-1.79297l-6.36328 2.97656m5.4375-2.54297l.98047.73438m13.58594.11718l-7.01563.40625m19.46875 2.10938l-5.28906-4.625m19.35547 1.41797l-6.79297 1.78906m5.80469-1.53125l.83203.90234m13.26953-1.73046l-6.38672 2.92968m5.45703-2.5039l.97266.74218m13.35547-.96484l-6.5586 2.52344m5.60547-2.15625l.92578.80078m13.57813-.02344l-7.02344.23047m6-.19531l.60937 1.0625m10.25782-4.4961l-.08203 7.02735m.0664-6.0039l1.08985-.5625m11.5625-.40235l1.27343 6.91015m-1.08984-5.90234l.96094-.76562m15.89843 4.8789l-6.18359-3.33203m5.28516 2.84766l-.00782 1.22656m14.28125-3.96094l-6.30468 3.10938m19.90625-2.28125l-6.875 1.45312m5.875-1.24219l.78515.94141m12.33594 2.27734l-4.48828-5.40625m4.48828 5.40625l-.92969 2.26954m15.50782-5.20313l-7.01172.46094m5.98828-.39453l.64844 1.04297m9.82421 2.61718l.71875-6.99218m-.71875 6.99218l-2.27343.92188"/><g clip-path="url(#O)"><path fill="none" stroke="#000" stroke-linecap="round" stroke-linejoin="round" stroke-miterlimit="10" stroke-width=".5" d="M147.03516 438.61328l-6.07032 3.53906"/></g><path fill="none" stroke="#000" stroke-linecap="round" stroke-linejoin="round" stroke-miterlimit="10" stroke-width=".5" d="M147.03516 438.61328l2.08593 1.28906m11.65235-.14062l-6.91797 1.24219m5.91016-1.0586l.7578.96485m13.59376-.08985l-6.97266-.875m6.97266.875l.8711 2.29688m12.46874-2.58985l-7.02344-.28906m7.02344.28906l1.0586 2.21485m12.1953-1.6914l-6.89843-1.33595m6.89844 1.33594l.71875 2.34766m12.58203-2.27735l-6.8711-1.47656m6.8711 1.47656l.66797 2.35938m12.58203-2.10938l-6.74219-1.97656m6.74219 1.97656l.4961 2.40625m12.86327-2.5703l-6.83203-1.64845m6.83203 1.64844l.60938 2.3789m12.79687-3.42577l-7.01172.4453m7.01172-.4453l1.28516 2.08984m12.03516-1.88281l-7.02735.03125m6.00782-.02735l.57812 1.08203m13.71875-.53906l-6.94922-1.0586m5.9375.90235l.40625 1.16016m13.70703-.22266l-6.51953-2.6211m5.57031 2.23829l.12891 1.21875m13.96094-.46875l-6.17188-3.35938m5.27344 2.8711l-.01172 1.22656m13.78516-.10547l-5.29297-4.625m4.52344 3.95313l-.28125 1.19531m14.6953-4.70313L327.4336 442.25m5.08594-3.1914l1.0664.61327M345.73048 437.5l-4.00781 5.76953m3.42578-4.9336l1.21875.14845m12.22265-1.25391l-3.09375 6.3086m2.64063-5.39063l1.22656-.04297m11.22266-1.22656l-.46094 7.01172m.39453-5.9922l1.11719-.5039m11.3789-.46484l1.3086 6.90625m-1.11719-5.89844l.95703-.76953m10.4375.63672l4.76953 5.16015m-4.07421-4.41015l.40234-1.16016m11.08984 3.10938l7.02344-.2422m-6 .20704l-.61328-1.0625m16.24219 4.48828l.35156-7.01953m-.30078 5.9961l-1.11328.51953m15.59765.34765l-2.08984-6.71094m2.08984 6.71094l-1.72656 1.74219m17.5039-4.88672l-7.01562-.42187m5.9961.35937l.5078 1.11719m7.6797 1.05469l5.28125-4.63672m-4.51172 3.96093l-1.14844-.43359"/><g clip-path="url(#P)"><path fill="none" stroke="#000" stroke-linecap="round" stroke-linejoin="round" stroke-miterlimit="10" stroke-width=".5" d="M147.21094 425.64063l-6.42188 2.85546"/></g><path fill="none" stroke="#000" stroke-linecap="round" stroke-linejoin="round" stroke-miterlimit="10" stroke-width=".5" d="M147.21094 425.64063l1.9336 1.51562m-2.8672-1.09766l.96485.75391m13.45703-.6914l-6.76953 1.89452m6.76953-1.89453l1.6914 1.77735m-2.67578-1.5l.84766.88672m13.55078-.67188l-6.96875.91016m6.96875-.91016l1.42188 2m11.87109-.92969l-6.92188-1.23047m6.92188 1.23047l.7539 2.33203m12.39844-1.73828l-6.59765-2.41797m6.59765 2.41797l.33594 2.4297m12.75-1.9297l-6.14062-3.41797m6.14062 3.41797l-.04687 2.45313m13.48437-2.69531l-6.38281-2.9336m5.45312 2.50781l.07422 1.22266m14.34766-1.26953l-6.73828-1.98828m6.73828 1.98828l.4961 2.40234m12.52734-1.69922l-6.15235-3.39453m5.25781 2.89844L252.6836 429.5m14.54688-1.52734l-6.78906-1.8086m6.78906 1.8086l.55469 2.39062m12.85546-2.88672l-6.98046-.8164m5.96484.69921l.44531 1.14454m12.23047 1.5625l-3.66797-5.9961m3.13281 5.1211l-.62109 1.05859m15.83594-1.73047l-6.39844-2.90234m5.46875 2.48047l.07813 1.22265m13.43359.2539l-4.92969-5.0078m4.21094 4.27734l-.36719 1.17187m13.91016-.04296l-3.95313-5.8086m3.37891 4.96485l-.57422 1.08593m13.51172-3.14453l-.01953-.20312-.0586-.1914-.09765-.17579-.45703-.375-.1914-.0586-.19923-.01953-.19922.01954-.1914.05859-.46094.375-.09375.17578-.0586.1914-.01952.20313.01953.19922.05859.1914.09375.17579.46094.375.1914.0586.19922.01952.19922-.01953.1914-.0586.45704-.375.09766-.17577.05859-.1914.01953-.19923m12.64844-3.4961l-.71485 6.98829m.60938-5.97266l1.13672-.46093m10.94531-.4336l1.96484 6.7461m-1.67968-5.76563l.8789-.85547m13.00782-.26172l.25 7.01953m-.21485-6l1.0625-.61328m11.15625-.20312l2.3711 6.61328m-2.3711-6.61328l1.65235-1.8164m9.35156 4.77343l6.99219.69922m-5.97266-.59766l-.46875-1.13281m13.1211 2.96094l6.27734-3.16016m-6.27735 3.16016l-2-1.41797M435.75 430.3789l2.36328-6.6211m-2.36328 6.6211l-2.42578.35546m17.15625-.16015l-.46875-7.01172m.46875 7.01172l-2.08594 1.29297m17.92188-2.61719l-5.51172-4.35938m4.71094 3.72266l-.21875 1.20703"/><g clip-path="url(#Q)"><path fill="none" stroke="#000" stroke-linecap="round" stroke-linejoin="round" stroke-miterlimit="10" stroke-width=".5" d="M147.17188 412.23828l-6.34375 3.03125"/></g><path fill="none" stroke="#000" stroke-linecap="round" stroke-linejoin="round" stroke-miterlimit="10" stroke-width=".5" d="M147.17188 412.23828l1.97265 1.45703m11.22656-1.67578l-6.11328 3.46875m6.11328-3.46875l2.07032 1.3164m11.6328-.28515l-6.88671 1.40235m6.88672-1.40235l1.5586 1.89453m11.8125-1.4961l-7 .60938m7-.60937l1.33593 2.0586m11.86719-.81641l-6.77344-1.875m5.78516 1.60156l.26562 1.19922m13.29297.44922l-5.28906-4.625m5.28906 4.625l-.5586 2.39062m13.75391-2.26172l-5.05078-4.88281m5.05078 4.88281l-.67578 2.35938m14.49219-3.01172l-6.04688-3.57813m6.04688 3.57813l-.11328 2.45312m13.04297-1.92187l-5.27735-4.64063m5.27735 4.64063l-.56641 2.38672m13.66406-2.16406l-4.84765-5.08594m4.14453 4.34765l-.38672 1.16407m14.53125-.55078l-5.09766-4.83594m4.35547 4.13281l-.32812 1.1836m14.76953-.96094l-5.86328-3.875m5.0078 3.30859l-.11718 1.22266m13.29297.33593l-3.875-5.85937m3.3125 5.00781l-.58594 1.07813m15.11328-.77735l-5.17578-4.75781m4.42188 4.0625l-.3086 1.1875m9.69141-.05469l4.19531-5.63672m-3.58593 4.81641l-1.21094-.1836m12.58203-1.0703l6.86719-1.48438m9.64843-2.76563l.46485 7.01172m-.39453-5.98828l1.04297-.64844m10.04687.5547l4.77344 5.15624m-4.07813-4.40625l.40235-1.16015m11.9414.6953l5.32422 4.58595m-5.32422-4.58594l.54297-2.39453m13.04297 2.11328l4.78516 5.14844m-4.78516-5.14844l.80469-2.32031m-.10547 3.0703l.80078-2.3203m11.33984 2.11328l5.73438 4.0625m-5.73438-4.0625l.3125-2.4336m.52344 3.02344l.15625-1.21484m12.83594.04687l4.71094 5.21485m-4.71094-5.21485l.83594-2.30469m11.42968 4.04688l6.8086 1.73437m-6.8086-1.73437l-.58203-2.38281m1.57032 2.63672l-.28907-1.19141m14.35938 4.89844l3.32422-6.19141m-3.32422 6.1914l-2.45703-.0078m2.9375-.89063l-1.22657-.00781m15.77735 1.32422l-.11328-7.02344m.09765 6.0039l-1.07422.58985"/><g clip-path="url(#R)"><path fill="none" stroke="#000" stroke-linecap="round" stroke-linejoin="round" stroke-miterlimit="10" stroke-width=".5" d="M146.78516 398.29688l-5.57032 4.28515"/></g><path fill="none" stroke="#000" stroke-linecap="round" stroke-linejoin="round" stroke-miterlimit="10" stroke-width=".5" d="M146.78516 398.29688l2.23437 1.01171m10.91016-1.21875l-5.23047 4.69532m5.23047-4.69532l2.30469.84375m11.45312-.22265l-6.11719 3.45703m5.23047-2.95703l1.03125.66015m11.41016 3.83204l-2.59375-6.53125m2.21484 5.58203l-.79297.93359m13.44531.2539l-.51171-7.0078m.4375 5.98827l-1.03907.65625m15.6875.03125l-3.02734-6.33984m2.58594 5.41797l-.72656.98438m15.5-.79688l-5.0625-4.8711m5.0625 4.8711l-.67188 2.35938m13.57813-1.9961l-4.2461-5.59765m3.6289 4.78125l-.51562 1.11328m15.07031-.90235l-5.48828-4.38672m4.6875 3.7461l-.22656 1.20703m9.9414.33984l3.3125-6.19922m-2.83202 5.29688l-1.22657-.0039m12.625-3.85938l6.1836 3.33203m-5.28516-2.84766l.00781-1.22656m15.56641-1.10547l-.13281 7.02735m10.09375-4.75782l6.57422 2.48438m-5.6172-2.1211l-.15624-1.21875m12.5625.73438l6.48047 2.72656m-5.53516-2.32812l-.11328-1.22266m12.29688 1.40625l6.85156 1.5625m-6.85156-1.5625l-.64063-2.36719m15.34375.28906l4.07813 5.72266m-3.48438-4.89062l.54688-1.09766m11.57812.80469l5.26953 4.64453m-4.5039-3.96875l.28515-1.19531m11.38672 2.92578l7.02344-.16797m-6 .14453l-.60156-1.07031m18.43359-1.85938l-4.05469 5.73828m4.05469-5.73828l2.4336.3086m10.01171-.75782l-2.3164 6.63672m2.3164-6.63672l2.42188-.375m-2.76172 1.33985l1.21484-.1875m12.3711-.80078l-2.1797 6.67968m2.1797-6.67968l2.41796-.42188m10.98829.45313l-2.36329 6.61718m2.36329-6.61718l2.42968-.35547m-2.77344 1.32031l2.4297-.35938m11.29687-.57812l-2.4961 6.5664m2.4961-6.5664l2.4375-.3086m7.02734 5.95313l5.20313-4.72656m-5.20313 4.72656l-2.3086-.82812m3.06641.14062l-1.15234-.41406m13.82813 1.22265l4.96875-4.96875m-4.96875 4.96875l-2.34766-.71484"/><g clip-path="url(#S)"><path fill="none" stroke="#000" stroke-linecap="round" stroke-linejoin="round" stroke-miterlimit="10" stroke-width=".5" d="M146.46484 384.6211l-4.92968 5.0039"/></g><path fill="none" stroke="#000" stroke-linecap="round" stroke-linejoin="round" stroke-miterlimit="10" stroke-width=".5" d="M146.46484 384.6211l2.35157.69921m9.84765-1.4414l-2.69922 6.48828m2.69922-6.48828l2.4414-.23438m9.89063-.01562l-.73047 6.98828m.73047-6.98828l2.27344-.91797m-2.3789 1.9336l1.13671-.45704m9.96875.01172l3.89453 5.84765m-3.89453-5.84765l1.16797-2.16016m10.71094 6.01953l6.77344-1.87109m-5.78906 1.59766l-.84375-.89063m13.61718 2.14453l5.88672-3.83203m-5.03125 3.27735l-1.07422-.59375m19.34766 1.2539l-5.7461-4.04297m5.7461 4.04297l-.30469 2.4375m14.10547-3.41797l-6.71094-2.08203m6.71094 2.08203l.45703 2.41016m12.17578-1.17188l-5.34765-4.55859m19.21093.88281l-6.4453 2.79297m5.5078-2.38672l.96094.76563m13.41406-.85156l-6.6914 2.15234m5.71875-1.83985l.8789.85547m13.57032-.30078l-7.01563.42188m7.01563-.42188l1.28125 2.09375m-2.30079-2.03515l.64063 1.04687m13.41406-2.28906l-6.45312 2.78515m6.45312-2.78515l1.91406 1.53125m-2.85546-1.125l1.91796 1.53125m11.89063-2.69531l-5.5586 4.30078m5.5586-4.30078l2.23828 1.01171m-3.04687-.38671l2.23828 1.01171m12.58984.0547l-6.96875.91796m6.96875-.91797l1.42578 1.9961m11.73438-.41407L340.39844 386m6.65625 2.2461l.39843 2.42187m-1.36718-2.7461l.19922 1.20704m14.2578-1.73047l-7.0039-.55078m7.0039.55078l.97657 2.2539m-1.9961-2.33203l.98048 2.25m13.05078-3.90234l-6.39844 2.91015m6.39844-2.91015l1.94531 1.4961m-2.875-1.07032l.97266.7461m12.0625-2.61329l-3.97657 5.79297m3.97657-5.79297l2.4375.27735m-3.01563.5664l1.21875.13672m12.48047-1.10547l-3.58984 6.04297m3.58984-6.04297l2.44922.11719m-2.97266.76172l1.22656.0586m12.21875-1.13673l-2.80468 6.44141m2.80468-6.4414l2.44922-.19141m-2.85547 1.1289l2.44532-.1914m10.63281-.95703l-1.51953 6.86328m1.51953-6.86328l2.36719-.65625m-2.58594 1.65625l1.17969-.32813m12.13281-.71094l-1.07422 6.94141m1.07422-6.9414l2.32031-.8086m10.02735 7.76563l.85937-6.97266m-.73437 5.96094l-1.14454.4375m14.36329.57812l.80468-6.98047m-.80468 6.98047l-2.28516.89844m2.40234-1.91406l-1.14453.44921"/><g clip-path="url(#T)"><path fill="none" stroke="#000" stroke-linecap="round" stroke-linejoin="round" stroke-miterlimit="10" stroke-width=".5" d="M146.08203 370.97656l-4.16406 5.66406"/></g><path fill="none" stroke="#000" stroke-linecap="round" stroke-linejoin="round" stroke-miterlimit="10" stroke-width=".5" d="M146.08203 370.97656l2.42578.35547m10.6289-.52734l-3.64062 6.00781m3.64063-6.00781l2.44922.13672m-2.98047.73437l1.22656.07031m11.90625-1.27343l-2.21875 6.66796m2.21875-6.66796l2.42188-.40625m-2.7422 1.3789l2.41798-.41015m10.80469-.67188l-1.39063 6.89063m1.39063-6.89063l2.35156-.69922m-2.55469 1.70313l1.17578-.35156m10.7539-.60547l1.78516 6.79687m-1.78515-6.79687l1.80469-1.66407m8.89062 5.10157l7.02734-.07813m-6.0039.0664l-.58985-1.07421m17.96094 4.1914l-3.13281-6.28906m3.13281 6.28906l-1.42578 1.9961m16.67188-4.82422l-6.9961-.63672m6.9961.63672l.95312 2.26172m12.36328-2.89453l-7 .6289m7-.6289l1.33984 2.05469m11.98829-1.73829h-7.02735m7.02735 0l1.15234 2.16797m-2.17188-2.16797l1.15235 2.16797m12.91797-3.50781l-6.4961 2.67578m6.4961-2.67578l1.89062 1.5664m-2.83594-1.17577l1.89063 1.5664m11.6211-3.08984l-4.9961 4.9414m4.9961-4.9414l2.33984.73437m-3.0664-.01562l1.17187.36719m11.46875-1.95313l-2.19532 6.67578m2.19532-6.67578l2.41796-.41797m-2.73828 1.39063l1.20703-.20704m13.27735-.34765l-3.89453 5.84375m3.89453-5.84375l2.44531.24219m-3.01172.60546l1.22266.1211m13.73047.15234l-6.03516 3.60156m6.03516-3.60156l2.09765 1.26953m-2.97656-.74609l1.05078.63672m13.55078-.1289l-6.85547 1.53906m6.85547-1.53907l1.60157 1.85938m-2.59766-1.63672l.80078.92969m13.51563-1.14063l-6.86329 1.51172m6.86329-1.51172l1.58984 1.8711m-2.58984-1.64844l.79687.9336m13.03516-2.3086l-5.89844 3.82031m5.89844-3.82031l2.14453 1.19531m-3-.64063l1.07031.59766m12.72656-1.63281l-5.14843 4.78125m5.14843-4.78125l2.31641.80078m-3.0664-.10547l1.16015.40235m12.48828-1.48047l-4.3164 5.54687m4.3164-5.54687l2.41797.42187m-3.04688.38672l1.21094.21094m12.49219-1.1914l-3.83203 5.89062m3.83203-5.89063l2.4414.21485m-3 .64062l2.44532.21484m11.6289-.92578l-4.23828 5.60156m4.23828-5.60156l2.42579.38672m-3.03907.42578l1.21094.19531m12.85156-.90234l-4.5078 5.39063m4.5078-5.39063l2.40235.5039m11.36718 4.4297l-5.41406-4.47657m5.41406 4.47656l-.49218 2.40625m-.29297-3.05859l-.25 1.20313m13.67578.07812l-4.0625-5.73437m4.0625 5.73437l-1.10547 2.1914M465 375.83985l-1.10156 2.19532"/><g clip-path="url(#U)"><path fill="none" stroke="#000" stroke-linecap="round" stroke-linejoin="round" stroke-miterlimit="10" stroke-width=".5" d="M144.89063 357.09375l-1.78125 6.79688"/></g><path fill="none" stroke="#000" stroke-linecap="round" stroke-linejoin="round" stroke-miterlimit="10" stroke-width=".5" d="M144.63281 358.08203l1.1914-.28125m12.19923-.75l-1.41797 6.88281m1.41797-6.8828l2.35547-.69142m11.33203.79297l-2.16406 6.6836m2.16406-6.6836l2.41797-.42968m-2.73047 1.40234l1.20703-.21484m13.1836-.40625l-3.6875 5.98046m3.6875-5.98046l2.44921.15625m-2.98437.71093l1.22265.08204m13.23438-.47657l-4.90235 5.03516m4.90235-5.03516l2.35547.6875M199 358.70703l1.17578.34375m13.70703 2.625l-6.61719-2.36719m6.6172 2.3672l.35546 2.42968m10.78516-.28516l-2.26953-6.65234m2.26953 6.65234l-1.67578 1.78906m1.34765-2.7578l-1.67969 1.78906m17.69141-3.85157l-7.0039-.58984m7.0039.58984l.96484 2.2539m-1.98437-2.33983l.96484 2.2539m13.27344-1.59375l-6.8086-1.74219m6.8086 1.7422l.57813 2.38671m-1.57032-2.64063l.57813 2.38672m-1.5664-2.63671l.28905 1.1914m15.10938-1.76172l-7.01563.40625m7.01563-.40625l1.27344 2.09766m-2.29297-2.03906l1.27344 2.09765m-2.29688-2.03515l.63672 1.04687m14.49219-2.22265l-6.5586 2.51562m6.5586-2.51563l1.85156 1.60938m-2.80469-1.24219l1.85156 1.60938m11.66016-3.16406l-5.04297 4.89453m5.04297-4.89454l2.33594.75391m-3.07031-.04297l2.33593.7539m11.51953-1.65233l-4.65625 5.26562m4.65625-5.26563l2.38672.57422m-3.0664.19532l1.19531.28515m13.20703-.625l-5.47266 4.41016m5.47266-4.41016l2.2539.96094m-3.05077-.32031l1.1289.48047m13.32422-.60938l-6.15625 3.38672m6.15625-3.38672l2.05469 1.34375m-2.94922-.85156l2.05469 1.34375m12.10937-1.91797l-6.0664 3.54688m6.0664-3.54688l2.08985 1.28906m-2.97266-.77344l1.04687.64844m13.25391-.97265l-6.26953 3.16796m6.26953-3.16796l2.00781 1.41406m11.4922-.98047l-6.64063 2.29688m6.64062-2.29688l1.79688 1.67188m11.24609-2.27344l-6.09375 3.5039m6.09375-3.5039l2.07812 1.30078m-2.96484-.79297l1.03906.65234m12.82422-1.64843l-5.41797 4.47656m5.41797-4.47656l2.26563.9375m-3.05469-.28516l1.13281.46875m12.50781-1.58203l-4.49218 5.40234m4.49218-5.40234l2.40235.5m-3.05469.28515l2.40234.5m12.38672-.29687l-6.13672 3.42188m6.13672-3.42188l2.0625 1.33203m-2.95312-.83203l2.0586 1.33203m12.46093-1.07812l-6.76172 1.91406m6.76172-1.91406l1.69922 1.77343m-2.6836-1.49218l1.69922 1.76953m-2.68359-1.49219l.85156.88672m14.4375.44531l-6.77344-1.86719m6.77344 1.8672l.53516 2.39452m-1.51953-2.66406l.53515 2.39453m13.12891-.875l-5.5039-4.36719m5.5039 4.3672l-.44531 2.41405m-.35547-3.04687l-.44531 2.41015"/><g clip-path="url(#V)"><path fill="none" stroke="#000" stroke-linecap="round" stroke-linejoin="round" stroke-miterlimit="10" stroke-width=".5" d="M145.02344 347.17969l-.01953-.19922-.0586-.19531-.09375-.17579-.46094-.375-.1914-.05859-.19922-.01953-.19922.01953-.1914.0586-.46094.375-.09375.17578-.0586.1953-.01953.19923.01953.19922.0586.1914.09375.17578.46094.375.1914.0586.19922.01953.19922-.01953.1914-.0586.46094-.375.09375-.17578.0586-.1914.01953-.19922"/></g><path fill="none" stroke="#000" stroke-linecap="round" stroke-linejoin="round" stroke-miterlimit="10" stroke-width=".5" d="M158.42188 343.84375l-2.21094 6.66797m1.88672-5.69922l1.21093-.20313m12.64063-.6875l-2.63672 6.51172m2.63672-6.51171l2.4414-.25391m11.26954.44531l-3.4336 6.1289m3.4336-6.1289l2.45312.05078m11.74219.64453l-5.1875 4.73829m5.1875-4.73829l2.3086.82032m-3.06641-.13282l1.15625.41407m13.80859.82421l-6.97266.88672m6.97266-.88671l1.41406 2.0039m-2.42969-1.875l1.41797 2.0039m11.78125.91798l-4.71093-5.21485m4.71093 5.21485l-.83203 2.30468m.14844-3.0625l-.83594 2.3047m.14844-3.06642l-.41797 1.15625m15.51172-.07421l-5.52734-4.33985m5.52734 4.33985l-.4336 2.41796m-.37109-3.04687l-.4336 2.41406m15.2422-3.3086l-6.90625-1.29296m6.90625 1.29297l.73437 2.34375m-1.73828-2.53125l.73438 2.34375m-1.73829-2.53125l.3672 1.17187m14.93358-2.21093l-6.85937 1.53515m6.85938-1.53515l1.59765 1.86328m-2.59765-1.64063l1.59765 1.86328m-2.59375-1.64062l.79688.9336m14.10937-2.40235l-6.04687 3.58203m6.04687-3.58203l2.09375 1.28125m-2.97656-.75781l2.09766 1.27734m11.5-2.55078l-4.85157 5.08203m4.85156-5.08203l2.36329.66406m-3.06641.07422l1.17969.33203m13.39844-.38281l-5.96875 3.70703m5.96875-3.70703l2.12109 1.23047m-2.98828-.6914l1.0586.61718m13.1914-1.04688l-6.10156 3.48829m6.10156-3.48829l2.07422 1.3125m-2.96485-.80468l1.03906.65625m12.57032-1.9336l-4.91016 5.02735m4.91016-5.02735l2.35156.6914m-3.0664.03907l1.17577.34766m13.4297-.33985l-6.0625 3.5547m6.0625-3.5547l2.08984 1.28516m-2.97266-.76953l1.04297.64453m13.6211.9414l-6.9961-.65234m6.9961.65235l.9453 2.26171m-1.96093-2.35546l.47265 1.1289m13.82422-1.94531l-6.92969 1.16797m6.9297-1.16797l1.49609 1.94531m-2.50391-1.77344l1.4961 1.94141m12.58202-2.9375l-6.4375 2.8164m6.4375-2.8164l1.92188 1.52344m-2.85938-1.11328l.96094.76172m13.17578-1.40625l-6.20703 3.28906m6.20703-3.28906l2.03516 1.375m-2.9375-.89844l1.01563.6875m13.34375-.86719l-6.4922 2.69531m6.4922-2.6953l1.89453 1.55858m-2.83985-1.16796l1.89453 1.55859m12.53907-1.42188l-6.83594 1.63672m6.83594-1.63671l1.62109 1.83984m-2.61719-1.60156l1.625 1.83984m-2.61719-1.60156l.8086.92187m14.5664-.9961l-6.98046.83204m6.98046-.83203l1.39844 2.01562m-2.41406-1.89453l1.39844 2.01563m-2.41406-1.89453l1.39843 2.01562m13.96875-1.91406l-7.02344.14453m7.02344-.14453l1.19922 2.14453m-2.21875-2.1211l1.19531 2.14063m-2.21875-2.1211l1.19532 2.14063m-2.21875-2.1211l.59765 1.07032m15.78516-1.08594l-7.02735.0547"/><g clip-path="url(#W)"><path fill="none" stroke="#000" stroke-linecap="round" stroke-linejoin="round" stroke-miterlimit="10" stroke-width=".5" d="M467.07422 347.15234l1.16797 2.15625"/></g><path fill="none" stroke="#000" stroke-linecap="round" stroke-linejoin="round" stroke-miterlimit="10" stroke-width=".5" d="M466.05469 347.16016l1.16797 2.15625m-2.19141-2.14844l1.16797 2.15625"/><g clip-path="url(#X)"><path fill="none" stroke="#000" stroke-linecap="round" stroke-linejoin="round" stroke-miterlimit="10" stroke-width=".5" d="M147.51172 333.70313l-7.02344.3203"/></g><path fill="none" stroke="#000" stroke-linecap="round" stroke-linejoin="round" stroke-miterlimit="10" stroke-width=".5" d="M146.48828 333.75l.625 1.05469m13.41016-2.3789l-6.41406 2.875m5.48046-2.45704l.96875.7539m12.80078-1.94921l-5.45703 4.42969m5.45703-4.4297l2.25782.95704m11.10547-.89453l-5.5547 4.30469m5.5547-4.3047l2.23828 1.00782m11.63281.03906l-6.66797 2.21094m6.66797-2.21094l1.77734 1.6914m-2.74609-1.37108l.88672.84765m13.5625-.375l-7 .625m7-.625l1.33984 2.0586m-2.35547-1.96875l1.33594 2.05859m11.80469.8125l-4.61719-5.29688m4.61719 5.29688l-.875 2.29297m.20312-3.0664l-.875 2.29296m.20313-3.0625l-.875 2.29297m16.39062-1.875l-6.33203-3.05078m6.33203 3.05078l.09766 2.45312m-1.01953-2.89453l.09766 2.44922M238.52733 334.5l.05078 1.22656m15.4375-1.5l-6.98828-.72656m6.98828.72656l.92188 2.27344M253 334.1211l.92188 2.27343m-1.94141-2.3789l.92187 2.27343m14.40625-2.95703l-6.9453 1.0625m6.9453-1.0625l1.46875 1.96485m-2.48047-1.8125l1.46875 1.96875m-2.47656-1.8125l.73047.98437m14.25781-2.36328l-6.2539 3.20312m6.2539-3.20312l2.01172 1.40234m-2.92187-.9375l2.01562 1.40235m12.00782-2.21485l-5.84766 3.89844m5.84766-3.89844l2.16015 1.16406m11.5664-.3203l-6.67187 2.21093m6.67188-2.21094l1.77344 1.69531m11.59765-1.49609l-6.78515 1.8125m6.78515-1.8125l1.67578 1.79297m-2.66015-1.53125l1.67187 1.79688m12.52735-2.375l-6.58594 2.4453m6.58594-2.4453l1.83593 1.6289m-2.79297-1.27344l1.83594 1.62891m12.63672-1.13281l-6.98828.74219m6.98828-.7422l1.375 2.03126m-2.39062-1.92188l1.375 2.03125m12.97656-1.76953h-7.02735m7.02735 0l1.15234 2.16797m-2.17578-2.16797l.57813 1.08203m13.7578-1.24219l-7.01952.32032m7.01953-.32031l1.25 2.10937m-2.27344-2.0625l1.25 2.10938m12.45703-4.01172l-5.75781 4.03125m5.75781-4.03125l2.1836 1.11328m-3.02344-.52735l1.09375.5586m13.35547-.64063l-6.34766 3.02344m5.42188-2.58203l.98828.73047m13.53906.95703l-6.91797-1.23438m6.91797 1.23438l.75 2.33594m-1.75781-2.51563l.7539 2.33594m13.60938-2.46094l-7-.625m7 .625l.95312 2.26172m-1.97265-2.35156l.95312 2.26172m-1.97265-2.35547l.47656 1.13281m14.89062-1.26172h-7.02734m7.02734 0l1.15235 2.16797m-2.17578-2.16797l1.15234 2.16797m-2.17578-2.16797l1.15234 2.16797m-2.17187-2.16797l.57422 1.08203m15.78906-1.4375l-6.99219.71094m6.99219-.71094l1.36719 2.03516m-2.38282-1.9336l1.36328 2.03907m-2.3828-1.9336l1.36718 2.03907m-2.38281-1.9375l.68359 1.01953m15.66406-1.48438l-6.95312 1.02344"/><g clip-path="url(#Y)"><path fill="none" stroke="#000" stroke-linecap="round" stroke-linejoin="round" stroke-miterlimit="10" stroke-width=".5" d="M467.03906 333.35156l1.45313 1.97656"/></g><path fill="none" stroke="#000" stroke-linecap="round" stroke-linejoin="round" stroke-miterlimit="10" stroke-width=".5" d="M466.02734 333.5l1.45313 1.97656m-2.46485-1.82812l1.45313 1.97656m-2.46484-1.82813l.72656.98829"/><g clip-path="url(#Z)"><path fill="none" stroke="#000" stroke-linecap="round" stroke-linejoin="round" stroke-miterlimit="10" stroke-width=".5" d="M147.25781 319.22656l-6.51562 2.64063"/></g><path fill="none" stroke="#000" stroke-linecap="round" stroke-linejoin="round" stroke-miterlimit="10" stroke-width=".5" d="M147.25781 319.22656l1.8789 1.57813m11.3711-1.72266l-6.38672 2.92969m5.45703-2.5039l.97657.74609m12.88672-1.8125l-5.625 4.21093m5.625-4.21093l2.22265 1.04296m11.57422-.16406l-6.58594 2.45313m6.58594-2.45313l1.83594 1.6289m11.66016-.9375l-6.94532 1.07032m6.94531-1.07031l1.46875 1.96484m-2.48046-1.8086l.73437.98438m13.6211-.3164l-7.00391-.57813m7.0039.57813l.96875 2.2539m-1.98828-2.33593l.96875 2.2539m12.8711-.64453l-6.01563-3.63281m6.01563 3.63281l-.13672 2.45313m-.73828-2.98047l-.13672 2.44922m-.73828-2.97657l-.13672 2.44922m-.73828-2.98047l-.0664 1.22657m16.3828-.51563l-6.76953-1.8789m6.76953 1.8789l.53125 2.39453m-1.51562-2.66797l.53125 2.39454m-1.51563-2.66797l.26563 1.19921m15.14062-1.39062l-7.01562-.40234m7.01562.40234l1.02735 2.22656m-2.04688-2.28515l1.02735 2.22656m-2.04688-2.28516l.51172 1.11328m14.74219-2.05859l-6.8125 1.72266m6.8125-1.72266l1.64844 1.82031M266.25 319.9375l1.64844 1.82031m12.02734-3.36719l-5.55078 4.3125m5.55078-4.3125l2.23828 1.00391m-3.04687-.375l1.1211.5m12.78515-1.38281l-5.11328 4.82031m5.11328-4.82031l2.32422.78515m-3.07032-.08203l1.16407.39063m12.8164 3.8086l-4.95312-4.98438m4.23047 4.26172l-.35938 1.17187m15.4336-2.9414h-7.02735m7.02735 0l1.15234 2.16796m-2.17578-2.16796l.57812 1.08593m13.69922-1.73828l-6.90625 1.3086m6.90625-1.3086l1.53516 1.91406m-2.53906-1.72656l1.53515 1.91406m12.79688-2.03515l-6.9297 1.17187m6.9297-1.17187l1.49609 1.94531m-2.5039-1.77344l1.49609 1.94531m12.72656-2.53515l-6.73047 2.01172m6.73047-2.01172l1.72656 1.7461m-2.70312-1.45313l.85937.8711m13.29297-1.54688l-6.45312 2.77734m6.45312-2.77734L375.5 320.6914m-2.85547-1.12891l.95703.76563m12.88282-1.88282l-5.625 4.20703m5.625-4.20703l2.21875 1.04297m-3.03516-.4336l1.10937.52344m12.72657-1.48046l-5.03516 4.89843m4.30469-4.18359l1.16797.375m13.16406 3.47656l-5.60938-4.23437m5.60938 4.23437l-.38672 2.42578m13.67578-2.39062l-5.55469-4.30469m5.5547 4.30469l-.41798 2.41797m-.39062-3.04297l-.20703 1.20703m14.90625-3.78516l-6.70703 2.10547m6.70703-2.10547l1.74609 1.72266m-2.72266-1.41797l.875.86328m13.40625-1.19531l-6.6875 2.15625m6.6875-2.15625l1.76172 1.71094m-2.73437-1.39453l1.76172 1.70703m-2.73438-1.39453l1.76172 1.70703m-2.73437-1.39453l.8789.85546m15.2461-2.09375l-6.46875 2.75"/><g clip-path="url(#aa)"><path fill="none" stroke="#000" stroke-linecap="round" stroke-linejoin="round" stroke-miterlimit="10" stroke-width=".5" d="M466.79688 319.17188l1.90625 1.54296"/></g><g clip-path="url(#ab)"><path fill="none" stroke="#000" stroke-linecap="round" stroke-linejoin="round" stroke-miterlimit="10" stroke-width=".5" d="M465.85547 319.57422l1.90625 1.54297"/></g><path fill="none" stroke="#000" stroke-linecap="round" stroke-linejoin="round" stroke-miterlimit="10" stroke-width=".5" d="M464.91406 319.97266l1.90625 1.54296"/><path fill="#00f" fill-rule="evenodd" d="M450.375 476.52344h8.61719V466.3789H450.375v10.14453"/><path fill="azure" fill-rule="evenodd" d="M452.20703 468.21094h.83594v2.82422h3.28515v-2.82422h.83204v6.48047h-.83204v-2.91407h-3.28515v2.91407h-.83594v-6.48047"/><path fill="#00f" fill-rule="evenodd" d="M277.28125 467.64844h8.61719V457.5039h-8.61719v10.14453"/><path fill="azure" fill-rule="evenodd" d="M279.11328 459.33594h.83203v2.82422h3.28516v-2.82422h.83594v6.48047h-.83594v-2.91797h-3.28516v2.91797h-.83203v-6.48047"/><path fill="#ff3030" fill-rule="evenodd" d="M340.10938 449.89453h7.6953V439.75h-7.6953v10.14453"/><path fill="azure" fill-rule="evenodd" d="M341.94531 441.58203h.83203v5.73828h3.19532v.74219h-4.02735v-6.48047"/><path fill="#ff3030" fill-rule="evenodd" d="M264.66016 436.57813h7.6914v-10.14454h-7.6914v10.14454"/><path fill="azure" fill-rule="evenodd" d="M266.49219 428.26563h.83203v5.74218h3.19531v.73828h-4.02734v-6.48046"/><path fill="#00f" fill-rule="evenodd" d="M392.67578 427.70313h8.6211v-10.14454h-8.6211v10.14454"/><path fill="azure" fill-rule="evenodd" d="M394.51172 419.39063h.83203v2.82421h3.28516v-2.82421h.83203v6.48046h-.83203v-2.91796h-3.28516v2.91796h-.83203v-6.48046"/><path fill="#00f" fill-rule="evenodd" d="M219.58203 414.38672h8.61719v-10.14453h-8.61719v10.14453"/><path fill="azure" fill-rule="evenodd" d="M221.41406 406.07422h.83203v2.82422h3.28907v-2.82422h.83203v6.48047h-.83203v-2.91406h-3.28907v2.91406h-.83203v-6.48047"/><path fill="#00f" fill-rule="evenodd" d="M370.48438 401.07422h8.62109v-10.14844h-8.6211v10.14844"/><path fill="azure" fill-rule="evenodd" d="M372.3164 392.76172h.83594v2.82031h3.28516v-2.82031h.83203v6.47656h-.83203v-2.91406h-3.28516v2.91406h-.83593v-6.47656"/><path fill="#ff3030" fill-rule="evenodd" d="M442.1914 383.32031h7.69532v-10.14844h-7.69531v10.14844"/><path fill="azure" fill-rule="evenodd" d="M444.02734 375.00781h.83204v5.73828h3.1953v.7422h-4.02734v-6.48048"/><path fill="#ff3030" fill-rule="evenodd" d="M277.97266 374.4414h7.6953v-10.14452h-7.6953v10.14453"/><path fill="azure" fill-rule="evenodd" d="M279.8086 366.1289h.83202v5.7422h3.19141v.73827h-4.02344v-6.48046"/><path fill="#ff3030" fill-rule="evenodd" d="M193.64453 347.8125h7.69531v-10.14453h-7.6953v10.14453"/><path fill="azure" fill-rule="evenodd" d="M195.47656 339.5h.83594v5.73828h3.1914v.74219h-4.02734V339.5"/><path fill="#ffffe0" fill-rule="evenodd" d="M187.19531 423.4961H209.375v-10.19141h-22.17969v10.1914"/><path fill-rule="evenodd" d="M190.69531 415.13672h.50781v6.29687h-.78515v-4.49218h-1.38672v-.5547l.5586-.0664.25-.05078.23046-.08984.20313-.14453.17578-.20704.14062-.29687.10547-.39453m4.8125 0l.23047.01953.21875.05469.20703.08984.19922.1211.1836.14843.17187.17578.30078.42188.24219.49219.17969.54687.11328.57813.03906.58984-.03906.59375-.11328.58594-.1797.55469-.24218.5-.30078.42968-.17188.17969-.18359.15234-.19922.125-.20703.08985-.21875.0586-.23047.01952-.22656-.01953-.21875-.0586-.21094-.08984-.19531-.125-.1836-.15234-.17187-.17969-.30078-.42969-.24219-.5-.17969-.55468-.11328-.58594-.03906-.59375h.83203l.03125.5664.08203.50391.125.4414.16407.375.1875.30079.21093.22266.22266.13671.22656.04688.22656-.04688.22266-.13671.21094-.22266.1914-.30078.16407-.375.125-.4414.08203-.50391.02734-.56641-.02734-.5586-.08203-.5-.125-.4375-.16406-.36327-.19141-.29297-.21094-.21485-.22266-.13281-.22656-.04297-.22656.04297-.22266.13281-.21093.21485-.1875.29296-.16407.36329-.125.4375-.08203.5-.03125.55859h-.83203l.03906-.58984.11328-.57813.1797-.54687.24218-.4922.30078-.42187.17188-.17578.18359-.14844.19531-.12109.21094-.08984.21875-.05469.22656-.01953m5.09375 0h.50781v6.29687h-.78515v-4.49218h-1.39063v-.5547l.5625-.0664.25-.05078.23047-.08984.20313-.14453.17187-.20704.14453-.29687.10547-.39453m2.82422 2.17578h.78516l.01953-.3164.0586-.28516.10155-.2539.14063-.21485.17969-.17578.22265-.12891.26563-.07813.3086-.02734.23827.01953.22266.0625.20313.10156.17968.14063.14844.17188.11328.20703.07031.23437.02735.26563-.02344.26953-.0664.22265-.10938.19141-.15234.17188-.20313.16406-.2461.16406-.6328.39063-.53907.3125-.4375.3164-.34766.32422-.26171.33594-.19141.35156-.125.3711-.07031.39062-.01953.42187h4.21093v-.74218h-3.33203l.08203-.28516.1172-.23438.14452-.20312.1875-.17969.23438-.17187.27734-.17578.71484-.41797.41797-.20313.34375-.23047.28125-.2539.21875-.26563.16407-.27734.11328-.28516.0625-.28515.01953-.28125-.04297-.38282-.11719-.34765-.1914-.3086-.25-.26171-.30078-.21485-.34766-.15625-.3789-.09765-.40626-.03516-.4375.03125-.39453.10156-.35547.16406-.30469.23438-.25.30469-.18359.375-.11719.4453-.03906.51954"/><path fill="#ffffe0" fill-rule="evenodd" d="M270.73047 411.66016h22.17969v-10.19141h-22.1797v10.1914"/><path fill-rule="evenodd" d="M274.23047 403.30078h.50781v6.29688h-.78515v-4.4922h-1.39063v-.55468l.5625-.0625.25-.05469.23047-.08984.20312-.14063.17188-.21093.14453-.29688.10547-.39453m4.8125 0l.23047.01953.21875.05469.20703.08984.19531.1211.1875.14844.16797.17578.30469.42187.24219.49219.17968.54687.11328.57813.03516.59375-.03516.59375-.11328.58203-.17969.55469-.24218.5-.30469.42969-.16797.17968-.1875.15235-.19531.125-.20703.08984-.21875.0586-.23047.01952-.23047-.01953-.21875-.05859-.20703-.08984-.19531-.125-.1836-.15235-.17187-.17969-.30078-.42968-.2461-.5-.17969-.55469-.10937-.58203-.03906-.59375h.83203l.03125.5625.07812.5039.12891.44532.16016.375.1914.30078.21094.21875.22266.13672.22656.04687.22656-.04687.22266-.13672.21094-.21875.1914-.30078.16016-.375.1289-.44531.08204-.50391.02734-.5625-.02735-.5625-.08203-.5-.1289-.4375-.16016-.36328-.1914-.29297-.21094-.21485-.22266-.1328-.22656-.04298-.22656.04297-.22266.13281-.21094.21485-.1914.29297-.16016.36328-.1289.4375-.07813.5-.03125.5625h-.83203l.03906-.59375.10938-.57813.17968-.54687.2461-.49219.30078-.42187.17187-.17579.1836-.14843.1953-.1211.20704-.08984.21875-.05469.23047-.01953m5.08984 0h.51172v6.29688h-.78906v-4.4922h-1.38672v-.55468l.5586-.0625.2539-.05469.23047-.08984.20312-.14063.17188-.21093.14062-.29688.10547-.39453m2.82422 2.17578h.78906l.01954-.3164.05859-.28516.09765-.2539.14063-.21485.1836-.17188.22265-.1289.26563-.08203.30859-.02735.23437.01954.22657.0625.20312.10156.17969.14062.14844.17188.11328.20703.07031.23437.02734.26563-.02343.26953-.06641.22266-.10938.1914-.15625.17188-.19921.16406-.2461.16406-.63672.39063-.53515.3125-.4375.3164-.34766.32422-.26562.33594-.1875.35156-.125.3711-.07032.39062-.01953.42188h4.21094v-.7422h-3.33203l.08203-.28515.11328-.23437.14844-.20313.1875-.17969.23047-.17187.27734-.17578.71875-.41406.41406-.20704.34766-.23046.28125-.25.21875-.26954.16406-.27734.10938-.28515.0664-.28516.01954-.28125-.04297-.38281-.1211-.34766-.1875-.3086-.25-.26171-.30469-.21094-.34375-.16016-.3789-.09765-.40625-.03516-.4375.03516-.39844.09765-.35547.16407-.30469.23828-.24609.30078-.1875.375-.11328.44531-.04297.51953"/><path fill="#ffffe0" fill-rule="evenodd" d="M315.11328 379.59375h22.17969v-10.1914h-22.17969v10.1914"/><path fill-rule="evenodd" d="M318.61328 371.23438h.50781v6.29687h-.78515v-4.49219h-1.39063v-.55469l.5625-.0625.25-.05468.23047-.08985.20313-.14062.17578-.21094.14062-.29297.10547-.39844m4.8125 0l.23047.01954.21875.05468.20703.08985.19922.1211.1836.15233.17187.17579.30078.41796.24219.4922.17969.54687.11328.57812.03515.59375-.03515.59375-.11329.58203-.17968.5547-.24219.5039-.30078.42578-.17188.17969-.18359.15234-.19922.125-.20703.08984-.21875.0586-.23047.01953-.22656-.01953-.21875-.0586-.21094-.08984-.19531-.125-.1836-.15234-.17187-.1797-.30078-.42577-.2461-.5039-.17968-.5547-.10938-.58203-.03906-.59375h.83203l.03125.5625.08203.5039.125.44532.16406.375.1875.30078.21094.21875.22266.13672.22656.04688.22656-.04688.22266-.13672.21094-.21875.1914-.30078.16407-.375.125-.44531.08203-.5039.02734-.5625-.02734-.5625-.08203-.5-.125-.4336-.16407-.36719-.1914-.29297-.21094-.21484-.22266-.1289-.22656-.04688-.22656.04687-.22266.1289-.21094.21485-.1875.29297-.16406.36719-.125.4336-.08203.5-.03125.5625h-.83203l.03906-.59376.10938-.57812.17969-.54688.24609-.49219.30078-.41796.17188-.17579.18359-.15234.19531-.1211.21094-.08984.21875-.05468.22656-.01954m5.09375 0h.50781v6.29688h-.78515v-4.49219h-1.39063v-.55469l.5586-.0625.2539-.05468.23047-.08985.20313-.14062.17187-.21094.14453-.29297.10547-.39844m2.82031 2.17579h.78907l.01953-.31641.0586-.28516.10155-.2539.13672-.21485.1836-.17187.22265-.1289.26563-.08204.3086-.02734.23827.02344.22266.0625.20312.10156.1797.13672.14843.17187.11328.20703.07031.23828.02735.26172-.02344.26953-.0664.22266-.10938.19531-.15625.16797-.19922.16406-.2461.16407-.63671.39062-.53516.3125-.4375.3164-.34766.32423-.26171.33593-.19141.35157-.125.37109-.07031.39063-.01954.42187h4.21094v-.74219h-3.33203l.08203-.28515.11328-.23438.14844-.20312.1875-.1797.23047-.17187.28125-.17578.71484-.41406.41797-.20703.34375-.23047.28125-.25.21875-.26953.16406-.27735.11329-.28515.0625-.28516.01953-.28125-.04297-.38281-.11719-.34766-.1914-.30859-.25-.26172-.30079-.21094-.34765-.16015-.3789-.09766-.40626-.03515-.4375.03515-.39844.09766-.35156.16797-.30469.23437-.25.30078-.1875.375-.11328.44531-.04297.51954"/><path fill="#ffffe0" fill-rule="evenodd" d="M399.4414 410.15625h22.1797v-10.1914h-22.1797v10.1914"/><path fill-rule="evenodd" d="M402.9414 401.79688h.50782v6.29296h-.78516v-4.48828h-1.38672v-.55469l.5586-.0664.25-.05469.23047-.08594.20312-.14453.17578-.20703.14063-.29687.10547-.39454m4.8125 0l.23046.01954.21875.05468.20704.08985.19921.1211.1836.14843.17187.17578.30079.42188.24218.49218.17969.54688.11328.57812.03906.58985-.03906.59375-.11328.58593-.17969.5547-.24219.5-.30078.42968-.17187.17969-.1836.15234-.19921.125-.20704.08984-.21875.0586-.23046.01953-.22657-.01953-.21875-.0586-.21093-.08984-.19532-.125-.18359-.15234-.17188-.1797-.30078-.42968-.24218-.5-.1797-.55469-.11327-.58593-.03906-.59375h.83593l.02735.5664.08203.5039.125.44142.16406.375.1914.30078.20704.22265.22265.13672.22657.04688.22656-.04688.22265-.13672.21094-.22265.1914-.30079.16407-.375.125-.4414.08203-.5039.02735-.56641-.02735-.5586-.08203-.5-.125-.4375-.16406-.36719-.1914-.28906-.21094-.21484-.22266-.13281-.22656-.04297-.22657.04297-.22265.1328-.20703.21485-.19141.28906-.16406.3672-.125.4375-.08203.5-.02735.55859h-.83594l.03907-.58985.11328-.57812.17969-.54688.24218-.49219.30079-.42187.17187-.17578.1836-.14844.1953-.1211.21094-.08984.21875-.05468.22657-.01954m5.09375 0h.5078v6.29297h-.78515v-4.48828h-1.39062v-.55469l.5625-.0664.25-.05469.23047-.08594.20312-.14453.17578-.20703.14063-.29687.10547-.39454m2.82421 2.17579h.78516l.01953-.31641.0586-.28516.10156-.2539.14062-.21485.1797-.17578.22265-.1289.26562-.07813.3086-.02734.23828.01953.22265.0625.20313.10156.17969.14063.14843.17187.11329.20703.07421.23438.02344.26562-.02344.26953-.0625.22266-.11328.1914-.15234.17188-.20313.16406-.24609.16407-.63281.39062-.53906.3125-.4375.3164-.34766.32423-.26172.33593-.1914.35157-.125.37109-.07032.39063-.01953.41796h4.21094v-.73828h-3.33203l.08593-.28515.11329-.23438.14843-.20312.1875-.1797.23047-.17187.27735-.17578.71875-.41797.41406-.20312.34375-.23047.28125-.2539.21875-.26563.16406-.27735.11328-.28515.0625-.28516.01953-.28125-.03906-.38281-.1211-.34766-.1914-.30859-.25-.26172-.30078-.21484-.34766-.15625-.3789-.09766-.40625-.03515-.4336.03125-.39844.10156-.35546.16406-.3047.23438-.25.30468-.18358.375-.1172.44531-.03906.51954"/><path fill="#ffffe0" fill-rule="evenodd" d="M235.22266 403.60547h22.17968v-10.1914h-22.17968v10.1914"/><path fill-rule="evenodd" d="M238.72266 395.2461h.5078v6.29687h-.78515v-4.49219h-1.39062v-.55469l.5625-.0664.25-.05078.23047-.08985.20312-.14062.17578-.21094.14063-.29688.10547-.39453m4.8125 0l.23047.01954.21875.05468.20703.08985.19922.12109.18359.14844.17187.17578.30078.42187.2422.4922.17968.54687.11328.57812.03906.59375-.03906.58985-.11328.58593-.17969.55469-.24219.5-.30078.42969-.17187.17969-.1836.15234-.19921.125-.20703.08984-.21875.0586-.23047.01953-.22657-.01953-.21875-.0586-.21093-.08984-.19532-.125-.18359-.15235-.17188-.17968-.30078-.42969-.24609-.5-.17969-.55469-.10937-.58594-.03906-.58984h.83203l.03125.5625.08203.5039.125.44532.16406.3711.1875.30077.21094.22266.22265.13672.22657.04688.22656-.04688.22266-.13672.21093-.22265.1914-.30079.16407-.37109.125-.44531.08203-.5039.02735-.5625-.02735-.5625-.08203-.5-.125-.4375-.16406-.36329-.1914-.29297-.21095-.21484-.22265-.13281-.22656-.04297-.22657.04296-.22265.13282-.21094.21484-.1875.29297-.16406.36328-.125.4375-.08203.5-.03125.5625h-.83203l.03906-.59375.10937-.57812.17969-.54688.2461-.49219.30077-.42187.17188-.17578.1836-.14844.1953-.1211.21094-.08984.21875-.05469.22657-.01953m5.09375 0h.5078v6.29688h-.78515v-4.49219h-1.39062v-.55469l.5586-.0664.2539-.05078.23047-.08985.20312-.14062.17188-.21094.14453-.29688.10547-.39453m2.82422 2.17579h.78515l.01953-.31641.0586-.28516.10156-.2539.13672-.21485.1836-.17578.22265-.1289.26562-.07813.3086-.02734.23828.01953.22265.0625.20313.10156.17969.14063.14843.17187.11328.20703.07032.23438.02734.26562-.02344.26953-.0664.22266-.10938.1914-.15625.17188-.19922.16406-.24609.16406-.63281.39063-.53906.3125-.4375.3164-.34766.32423-.26172.33593-.1914.35156-.125.3711-.07032.39062-.01953.42188h4.21094v-.74219h-3.33203l.08203-.28515.11328-.23438.14844-.20313.1875-.17968.23047-.17188.28125-.17578.71484-.41797.41797-.20312.34375-.23047.28125-.2539.21875-.26563.16406-.27735.11328-.28515.0625-.28516.01953-.28125-.04297-.38281-.11718-.34766-.19141-.3086-.25-.26171-.30078-.21484-.34766-.15625-.3789-.09766-.40625-.03516-.4375.03516-.39844.09766-.35156.16406-.3047.23437-.25.3047-.18358.375-.1172.4453-.03905.51954"/></g></defs><use xlink:href="#ac"/></svg>