<svg xmlns="http://www.w3.org/2000/svg" role="img" xmlns:xlink="http://www.w3.org/1999/xlink" viewBox="142.45 309.95 326.84 171.84"><defs><clipPath id="a"><path d="M144 311.67188h1v168.65625h-1zm0 0"/></clipPath><clipPath id="b"><path d="M144 311.67188h324v168.65625H144zm0 0"/></clipPath><clipPath id="c"><path d="M467 311.67188h1v168.65625h-1zm0 0"/></clipPath><clipPath id="d"><path d="M144 477h3v3.32813h-3zm0 0"/></clipPath><clipPath id="e"><path d="M156 476h3v4.32813h-3zm0 0"/></clipPath><clipPath id="f"><path d="M169 476h3v4.32813h-3zm0 0"/></clipPath><clipPath id="g"><path d="M183 476h2v4.32813h-2zm0 0"/></clipPath><clipPath id="h"><path d="M193 480h9v.32813h-9zm0 0"/></clipPath><clipPath id="i"><path d="M208 477h5v3.32813h-5zm0 0"/></clipPath><clipPath id="j"><path d="M220 478h8v2.32813h-8zm0 0"/></clipPath><clipPath id="k"><path d="M233 479h8v1.32813h-8zm0 0"/></clipPath><clipPath id="l"><path d="M239 479h2v1.32813h-2zm0 0"/></clipPath><clipPath id="m"><path d="M247 478h7v2.32813h-7zm0 0"/></clipPath><clipPath id="n"><path d="M252 479h3v1.32813h-3zm0 0"/></clipPath><clipPath id="o"><path d="M260 478h8v2.32813h-8zm0 0"/></clipPath><clipPath id="p"><path d="M265 478h3v2.32813h-3zm0 0"/></clipPath><clipPath id="q"><path d="M273 478h8v2.32813h-8zm0 0"/></clipPath><clipPath id="r"><path d="M286 479h9v1.32813h-9zm0 0"/></clipPath><clipPath id="s"><path d="M292 479h2v1.32813h-2zm0 0"/></clipPath><clipPath id="t"><path d="M300 479h8v1.32813h-8zm0 0"/></clipPath><clipPath id="u"><path d="M305 480h2v.32813h-2zm0 0"/></clipPath><clipPath id="v"><path d="M313 479h8v1.32813h-8zm0 0"/></clipPath><clipPath id="w"><path d="M319 480h1v.32813h-1zm0 0"/></clipPath><clipPath id="x"><path d="M326 479h9v1.32813h-9zm0 0"/></clipPath><clipPath id="y"><path d="M332 480h2v.32813h-2zm0 0"/></clipPath><clipPath id="z"><path d="M339 479h9v1.32813h-9zm0 0"/></clipPath><clipPath id="A"><path d="M345 480h2v.32813h-2zm0 0"/></clipPath><clipPath id="B"><path d="M353 479h8v1.32813h-8zm0 0"/></clipPath><clipPath id="C"><path d="M359 480h2v.32813h-2zm0 0"/></clipPath><clipPath id="D"><path d="M366 479h9v1.32813h-9zm0 0"/></clipPath><clipPath id="E"><path d="M372 480h2v.32813h-2zm0 0"/></clipPath><clipPath id="F"><path d="M379 479h9v1.32813h-9zm0 0"/></clipPath><clipPath id="G"><path d="M386 480h3v.32813h-3zm0 0"/></clipPath><clipPath id="H"><path d="M393 479h8v1.32813h-8zm0 0"/></clipPath><clipPath id="I"><path d="M400 479h3v1.32813h-3zm0 0"/></clipPath><clipPath id="J"><path d="M406 479h9v1.32813h-9zm0 0"/></clipPath><clipPath id="K"><path d="M412 480h2v.32813h-2zm0 0"/></clipPath><clipPath id="L"><path d="M419 479h9v1.32813h-9zm0 0"/></clipPath><clipPath id="M"><path d="M426 479h3v1.32813h-3zm0 0"/></clipPath><clipPath id="N"><path d="M433 478h8v2.32813h-8zm0 0"/></clipPath><clipPath id="O"><path d="M447 477h6v3.32813h-6zm0 0"/></clipPath><clipPath id="P"><path d="M459 479h9v1.32813h-9zm0 0"/></clipPath><clipPath id="Q"><path d="M465 480h2v.32813h-2zm0 0"/></clipPath><clipPath id="R"><path d="M144 465h4v4h-4zm0 0"/></clipPath><clipPath id="S"><path d="M144 452h4v3h-4zm0 0"/></clipPath><clipPath id="T"><path d="M144 439h4v3h-4zm0 0"/></clipPath><clipPath id="U"><path d="M144 426h4v2h-4zm0 0"/></clipPath><clipPath id="V"><path d="M144 412h4v4h-4zm0 0"/></clipPath><clipPath id="W"><path d="M144 398h4v5h-4zm0 0"/></clipPath><clipPath id="X"><path d="M144 384h4v6h-4zm0 0"/></clipPath><clipPath id="Y"><path d="M144 371h4v6h-4zm0 0"/></clipPath><clipPath id="Z"><path d="M144 358h4v5h-4zm0 0"/></clipPath><clipPath id="aa"><path d="M144 346h4v3h-4zm0 0"/></clipPath><clipPath id="ab"><path d="M466 345h2v3h-2zm0 0"/></clipPath><clipPath id="ac"><path d="M465 345h3v3h-3zm0 0"/></clipPath><clipPath id="ad"><path d="M144 332h4v4h-4zm0 0"/></clipPath><clipPath id="ae"><path d="M466 331h2v3h-2zm0 0"/></clipPath><clipPath id="af"><path d="M465 332h3v3h-3zm0 0"/></clipPath><clipPath id="ag"><path d="M144 320h4v1h-4zm0 0"/></clipPath><clipPath id="ah"><path d="M465 317h3v3h-3zm0 0"/></clipPath><g id="ai" clip-path="url(#clip1)"><path fill="#fff" fill-opacity="0" fill-rule="evenodd" d="M0 0h1000v1000H0zm0 0"/><path fill="#d3d3d3" fill-opacity="0" fill-rule="evenodd" d="M162.15234 355.86719l-.23437.29297.0586.23437.11718.17188.17578.23437.29297.34766.11328.0586.11719-.17188.0586-.23438.17577-.17578.46485-.17578h.69922l.23437.29297.28906.8164.0586.17579.17578.23046.35156.23438.69922.69922.17188.17578.23437.34765.23438.41016.28906.58203.41015.46485.23047.23437.23438.17578.11719.23047.17578.29297.17187 1.16406v.23438l.0586.28906.05859.11719.11719.11719.34765.41015.11719.17188.17578.17578.17578.23437.11719.17188.17188.35156.05859.23438.23437.40625.23438-.0586-.17578.17578-.0586.92969h-.58203l-.23437-.11328-.34766.11328-.11719.11719-.05859.29297-.0586.17578-.11718.17187-.46484.29297-.0586.23438-.0586.11328v.64453l.0586.17187v.41016l.0586.0586v.40624l.05859.40625.11719.17579.05859.05859.23047.64062-.0586.29297v.69922l-.05859.58203v.23438l-.0586.23047-.05468.35156v1.92187l.05469.1172h.42578l-.36719.11718-.02344.35156.89063 1.16797 1.74219.53906 1.33984.35938v.53906l.08984.8086.53516.71484 1.51953.26953.89063-.08594.08984 1.16406.53516.1797 1.16015-.1797 2.05469-.98437 1.16016-.36328 1.8789-.17578 1.69531-.1797-.17968.71876-1.51563.08594-1.25.08984-.80469.26953-1.07421.8086.26953.71875.53515.89843-.17968.625-.26563.8086.26563 1.07812.625.89844.80468.17969 1.25-.1797-.26562.72267.09766.5039.05468.29297v.17188l.0586.29296v.40625l.17578.1172.35156.11718h.40625l.29297-.17578.11328-.11719.0586-.11719.11718-.23047.0586-.17578.35156-.46484.23047-.17578.17578-.0586.17578.0586.0586.17578.11718.98828.05469.46875.0586.17188.11718.23437.17578.0586.8164.05859h.28907l.11719.23437.05859.40625.0586.35156v1.10547l.11718.29297.11719.34766.28906.69922.17578.35156.58203.7539.35157.17579.17187.0586.46875.23437.64063.46484.34765.23438.29297.17578.29297.05468.23047.0625.8164.34766.29297.17578.11328.17188.35157.35156.11719.17578.52343.64063v.28906l.0586.35156v.34766l.05859.35156.0586.28906.11718.0586.17188.05859h.17578l.58203.23437.17578.1172.17578.28905.17578.23438.11328.23437.29297.23047.11719.11719v.41016l.0586.05468.28906.23438.23437.11719.0586.11718.11718.17188.0586.11719.23047.23437.05859.17578.23437.0586.1172.05859-.1172.11328-.05859.11719v.11719l-.11719.29296-.11719.28907v.58203l.17579.11719.11718.05859.0586.11719.11719.11719.11328.05859.17578.34765.0586.35157.05858.40625v.17578l-.05859.17578-.11719.69922v.17187l.1172.17579.29296.29296h.40625l.17578.1172.11719.17187.11719.29296v.23438h-.52735l-.23047-.23438h-.23437l-.17578.0586-.0586.69922.0586.34765.11719.17579.17578.41015.11718.23047.28907.46875.17578.05469h.52344l.23437.0586.75781.64062.0586.29296v.23438l.05859.0586.23047.34765v.35156l-.11719.17188v.29297l.29297.28906.29297.17578.17187.0586.29297.17577.29297.1172.58203.40624.28906.23438.29297.17578.21875.16015.01563.01172.23047.17579.64062.52343.17578.23438.1172.17578.17577.17578.11328.17188v.64062l.1172.17578.46874.11719.58203.11719.23438.05859.23047.11328.29297.11719.11328.0586.58593.35156.28907.17187.17578.0625.17578.05469.17578.0586.69922.35155.28906.17579.23438.05468.28906.17578.23437.1172.64063.40624.29297.11719.17187.0586.23438.05859.41015.05859.23047.0586.23438.11718.0586.17188-.41017.17578.46875.0586.0586.29296.11328.23438.17578.05468.23438.0586.17578.05859.40625.11719.64062.23437.11719.17188.0586.23437v.17578l-.0586.1172-.0586.40624.23438.23438.11719.05859.34766.11719.64062.23047.17578.11718.28906.1172.17578.17577.23438.46485.58203 1.10546.17578.17579.34766.17578.17578.11719.35156.11718 1.04688.52344.23437.0586.46485.11327.29297.0586.46484.17578.75781.58203.23438.23438.34765.46484.17578.17578.28907.23438.8164.69921.29297.17579.28906.28906.29297.17578.29297.28906.69531.64063.17578.17578.29297.23437.28907.23438.46875.28906.64062.58203.34766.23438.23437.29297.34766.34765.35156.46485.9336.99218.34765.40625.11719.17579.23437.05859.11328.11719.64454.17578.23047.11328.23437.0586.29297.17577.23047.1172.9336.69921.40624.40625.23438.17578.40625.17578.23437.11719.8164.34766.34766.23437.23438.11719.29297.28906.23047.11719.7578.35156.35157.17188.23047.05859.29297.11719.23437.0586.8711.17577h.8164l.46875.23047.17188.0586.875.69921.46484.1172.29297.05858.17578.0586.23047.0586.46875.05859.34766.05859.35156.0586.40625.05859h.29297l.17187.0586v.23046l.17578.17578h.29297l.34766.0586.35156.05859.69922.11719h.64063l.46484-.23438.29297-.17578.17187-.11719.41016-.17187.28906-.17578.9336-.46485.46875-.29297.52343-.29296.46485-.17188.46484-.17578 1.05078-.46485.28906-.11718.41016-.11719.28906-.11719.52735-.17578 1.51562-.69922.58203-.34765.28907-.0586.29297-.0586.34765-.11718.875-.23047.35156-.11719h.11329l.23437-.05859.875-.23437.23438-.0586h.8125l.35156-.0586.8164-.11718.17188-.0586.35156-.05468.29297-.0586.23047-.05859.8164-.17578.17579-.0586h.34765l.23438-.05859.46484-.11718.75781-.17188.23438-.0586h.34765l.41016-.11718.28906-.0586 1.28516-.05859h.28906l.41016-.0586.23047-.05858h.17578l.875-.1172h.40625l.41015-.11718h.34766l.35156-.11328.8711-.0586h1.75l1.04687.28907.41016.11719.28906.11718.35156.11719.28907.11719 1.05078.17187.28906.0586h.29297l.29297.05859.17187.0586.41016.05859.17187.0586.1172.05858h.11718l.11719.0586.35156.0586h.11328l.41016.0664 1.92187.39453 1.92578.39453 1.51953.44922 1.69532.71875 2.14453.80469 1.60547-.71875 1.42968-.80469 1.16016-1.07813 1.25-.44921 3.03516-.71875 1.875-.35938 2.14453-1.34765 2.23437-1.25391 2.5-1.25781 1.69531-.44922 1.78516-.17969 1.16016-.26953.625.53906 1.33984-.26953.71485-.98828.98437-1.34375.44531-.17969.80469-.35937 1.875-.53907 1.78516-.44921 1.25-.26954 1.16015-.08984 1.69922-.08984 1.96094-.26954 1.25-.08984h.53906l.625-.08984h.89063l2.14453-.17969 2.41015-.17969 2.58985-.08984 1.69531.17969 1.60938.08984 1.42968.35938 1.16016.71875 1.875.98828 1.16015 1.52734.26563.71484.6289.08985.35548.89844.53515.53906.53516 1.52734 1.07422.35938h.53515l-.80469.53515.08985 1.70703.71484 2.69532.89063.80468.89453.98829.71484 1.2578 1.78516.53907 1.51953-.17969.35547 1.34375 1.60937-.80469.98047-.53906.26953.26953.31641-.21484.21875-.14453.80078.44922.44922-.35938h.35547l.53515-.26953.53907-.71875.53515-.26953.625-.98828 1.16016.44922.83984.3711 1.39454.61718 1.6953-.17969h1.60548l1.78515.08985.17969-1.70704.53516-1.34375.80468.26954.4922.84765.40233.40625-.08984.53906v.35938l.71485.44922.71093-.26953h1.42969l.35938.98828.4453 1.25781.71485 1.34375 1.25.6289 1.69531.62891.71485-.17969.17969-.53906.98046-.08984.44922.35937.08594 1.25782-.26563.6289-.53515.17969v.53906l.71484.98438.26563.53906.98437.98828.80078 1.07813-.26562.35937-.08985.89844-.625 2.33203-.35546 2.0664-.08985 1.79298-.17969.71875-.08984.53906v1.4375l-.98047 1.88281-.35937 1.70703-.53516.89844-.80469 1.16797-.26562.53906 2.05469 1.2539.08593.35938-.35546.53906-.08985-.17968v.80859l.08985 1.4375-.44532.71484-1.07422.09375-.26562.71485.53515.89844.8047.71875 1.16015.80859 1.33984.26953.44531.35938-.35546.44921-1.78907-.08984-1.25-.44922-.71484-.71875-.625-.08984-.17578 3.58984-.1875 1.3086h89.35937V311.70313h-55.26953v49.08203l.76172.125 3.28906.54296 2.02344 2.83594v2.7539l2.35156.33204 2.34766.33203h4.05078l-1.3789 4.16016-2.02344.70703-2.02344.70312-.54297.34375-2.59375 1.6172-.1875.11718-2.02344-2.07813-.73046-2.74218-2.67188-2.07813-1.375-3.5-.0664-.08203-1.95704-2.67188 2.75-1.41796v-49.08204H294.42187v91.41407l.1172.03125.1328.01172.07422.07421.10547.04688.08985.0586.08593.05859.08985.0586.29687.29687.0586.08984.03125.11719.02734.11719.01563.13671-.03125.1172-.0586.08983-.0586.08594-.04296.10547-.04688.10156-.02734.1211v.14453l.17578.26953.14844.14844.07422.08594.07422.07421.04296.10547.0625.08985.0586.08593.04297.10547.0586.08985.04687.10156.04296.10547.0586.08594.11719.17968.07421.07422.0625.08594.0586.08984.04297.10547.0586.08985.05858.08593.0625.08985.0586.08984.04297.10156.11719.17969.07421.07422.0586.08594.07422.07421.08984.0586.10547.04687h.14844l.1328-.01562.13282.01562.10156-.04687.07422-.07422.04688-.10156-.01563-.13281v-.14844l-.04687-.10547-.02735-.11719-.04687-.10156-.02735-.1211-.04296-.10156-.0625-.08984-.04297-.10156-.04297-.10547-.03125-.11719-.01563-.13281-.01171-.13672.08593-.0586.0586-.08593.12109-.03125.04297.10547.01562.1328v.1172l.0586.10156.0586.08984.08983.0586.14844.14843.0586.08985.04296.10547-.01171.10156.08593.0586.10547.04687.08594.0586.08984.05858.07422.07422-.11719.02735-.10546.04687-.08594.0586-.07422.07421-.0586.08985-.0625.08594-.02734.12109-.04687.10156-.04297.10547-.03125.11719-.01172.13281-.01563.13281v.14844l.02735.11719.04687.10547.04297.10156.0586.08984.07421.07422.08985.0586.07422.07421.08984.0586.0586.08984.04296.10547.04688.10156.11719.03125.1328.01563h.14845l.11718-.03125.10547.04297.04297.10547.04688.10156.02734.1211L299.5 410l.02734.11719.03125.1211.02735.11718.10547.04297.10156.04687.13281-.01562.14844.14844.0625.08593.07422.07422.07031.07422.08984.0625.10547.04297.10156.04297.1172.03125.13671.01562.11719-.03125.07422-.07422.02734-.11718-.01172-.13282-.03125-.12109-.02734-.11719.04297-.10547h.11719l.08984.0625.11719.02735h.14843l.13282.01562h.14843l.13282.01563.1328-.01563h.14845l.1328-.01562.13282-.01172.13672.01172.11719-.02735.13281-.01562.1914-.0586-.05859.17579-.01562.1328-.02735.1211-.01562.13281-.0586.08594-.1328.01563-.10548.04687-.10546.04297-.1172.03125-.11718.02735-.26563.03125h-.14843l-.13281.01562-.07422.07422.05859.08594.14844.14843.11719.1797.07421.0703.08985.0625.08984.0586.08594.0586.08984.05858.10156.04297.10547.0625.10547.04297.08594.0586.10547.04687.10156.04297.17969.11719.0586.08984-.04298.10156-.04687.10547.01562.13281.22266.22266.0586.08985.04296.10156.03125.1211.04297.10155.01563.13282.03125.11718.01171.13672.03125.11719.14844.14844.10156.04297.10547.04296.1172.03125.1328.01563.13672.01563h.11719l.11719-.03125.08984-.0586.04297-.10547.04688-.10156.04296-.10547.03125-.11719.01172-.1328v-.14845l-.01172-.1328-.01562-.13282-.03125-.11719-.04297-.10547-.04688-.10547-.04296-.10156-.04297-.10547-.01563-.13281.01563-.13281.02734-.11719.03125-.11719.02735-.1211.04687-.10155.08984-.0586.08594-.0625.07422-.07422.08984-.05859.22266-.22266.0586-.08593.07421-.07422.11719-.17969.0586-.08594v-.14844l-.07423-.07421-.10156-.04688-.10547-.04297-.10156-.04297-.0586-.08984-.04687-.10547-.02734-.11719.08984-.05859.11719-.03125.10156-.04297.17969-.11719.14844-.14843.01172-.13282-.01172-.10546-.08985-.0586-.1328.01563h-.14845l-.1328.01562-.13282-.01562-.1211-.03125-.08593-.0586-.07422-.07422-.0586-.08984-.0625-.08594-.11718-.17969-.0586-.08593.03125-.1211.08594-.05859.1211-.03125.05859-.08594v-.1211l-.03125-.11718-.0586-.08984-.05859-.08594-.04687-.10547-.02735-.11719-.01562-.1328.0586-.08985.07421-.07422.08984-.0586.1172-.17968.07421-.07422.0586-.08594.14843-.14844.1211-.03125.1328-.01562.13282.01562.07422.07422.04297.10547.01562.13281-.03125.1172-.11719.03124-.1328.01172-.14844.14844-.04297.10547-.04688.10156-.02734.1211-.03125.11718v.14844l.03125.11719.04297.10546.05859.08985.07422.07031.07422.07422.11719.03125.12109.02734.11719-.02734.1328-.01563h.1172l.08984.0586.07422.07422.04687.10546.0586.08594.10156.04688.13281.01562.10547.04297.08594.0586-.01172.10546-.07422.07422-.17969.11719-.05859.08984-.08984.0586-.07032.07422-.07421.07421-.0625.08985-.02735.11719-.01562.1328.01562.13282-.01562.13281v.14844l.01562.13281.02735.1172.03125.12108.07421.07422.08985.0586.08594.0586.08984.05858.11719.03125v.08594l-.10157.04688-.08984.0586-.26563.03124-.11718.02735h-.14844l-.10547.04296-.10156.04688-.0586.08984-.0625.23438-.01171.13281-.03125.1211-.01563.1328v.29298l-.01172.1328.01172.13673.01563.1328.1328.01563.13282.01172.1211.03125.08593.0586.07422.07421.04688.10547.04296.10157.01563.1328v.44532l-.01563.13281v.44532l.03125.26562.02735.11719.01562.13281.03125.11719.08594.21094.03125.26562v.14844l-.03125.11719-.02734.11718-.03125.1211-.02735.11719-.03125.11718-.03125.1211-.01171.1328-.01563.13282.08984.0586.1172-.03125.10155.01562.04688.10547-.03125.26562v.44141l-.04297.10547-.04688.10547-.04296.10156-.04297.10547-.0586.08594-.03125.12109-.04296.11719-.03125.11719-.01563.1328.01563.13282.05859.08984.10547.04688.08594.0586.05859.08593-.01172.13672-.03125.11719-.04297.10156v.44531l-.01562.13281v.14844l-.03125.11719-.04297.10547-.02735.11719-.04687.10546-.04297.10157-.03125.12109-.02734.11719-.03125.13281-.03125.11719-.02735.11719-.04297.10546-.03125.1172-.03125.12108-.01171.13282-.01563.13281v.29688l.02734.11718v.14844l.04688.39844.02734.11719.0586.08984.12109.03125h.14844l.13281-.01563.0586.08985v.11719l-.0586.08984-.08984.0586-.10157.04296-.10546.04688-.08985.05859-.08594.0586-.13671.01562-.1172-.03125-.1328-.01563-.10157.04688-.0625.08594-.01172.13671-.01562.13282-.03125.11719-.02735.11718-.01562.13281-.03125.1211v.29687l.01563.13282.03125.11718v.14844l.01171.13281v.14844l-.02734.11719-.04688.10156-.02734.1211-.03125.11718-.0586.08985-.07421.07421-.10156.04297-.10547.04688-.11719.02734-.1211.03125-.10156-.04687.0586-.08594.10547-.04688.02734-.11718.03125-.11719.02734-.1211.03125-.11718v-.14844l.01563-.13281-.03125-.11719-.04297-.10547-.10547.01563-.07422.07422-.10156.04296-.08984.0625-.07422.07422-.04297.10157-.01563.1328-.03125.1172L304.25 426l-.03125.11719-.02734.11719-.03125.12109-.02735.11719-.03125.11718-.04297.10547-.08984.0586h-.08984l-.1172-.03125-.03124-.08594.01562-.13672-.03125-.11719v-.14844l-.01171-.1328v-.14844l-.0625-.23438-.02735-.1211-.04297-.10156-.04687-.10546-.0586-.08594-.05859-.08985-.04297-.10546-.0625-.08594-.14844-.14844-.0703-.07422-.10548-.04687-.10547-.04297-.10156-.04297-.29687-.29688-.08985-.07421-.08594-.0586-.10546-.04297-.08985-.0625-.08594-.0586-.10546-.04296-.08985-.0586-.08594-.0625-.07421-.0703-.10547-.04688-.08594-.0586-.10547-.04296-.08984-.0625-.10156-.04297-.10547-.04297-.08594-.0586-.10547-.04687-.10547-.04297-.10156-.04687-.08985-.0586-.10156-.04297-.10547-.04296-.08984-.0625-.11719-.02735-.13281-.01562-.13281.01562H299.75l-.13281.01563-.11719-.03125-.08984-.0586-.07422-.07422-.08985-.05859-.10156-.04688h-.14844l-.12109-.02734-.10156-.04297-.07422-.07422-.11719-.17968-.08984-.0586-.10156-.04297-.08985-.0625-.10547-.04296-.08984-.0586-.08594-.0586-.10547-.04687-.0586-.08594-.05858-.08984-.04297-.10547-.04688-.10156-.07422-.07422-.08594-.0586-.07421-.07421-.08985-.0586-.22265-.22265-.04297-.10547-.03125-.26563.10547-.04296h.14453l.10547.04296.07421.07422.08985.0586.08594.0586.10546.04687.08985.05859.14844.14844.0703.07422.14845.14843.0625.08594.07421.07422.08594.0586.07422.07421.08985.0625.08984.0586.08594.05859.26953.17578.10156.04688.10547.04296.10156.04297.04688-.07421.05859-.08594.07422-.07422.07031-.07422.10547.04297.07422.07422.0586.08984.04296.10156.04688.10547.04296.10547.1211.02735.11719-.02735.07421-.08984.04297-.10547.0586-.08985.07422-.07421.10546-.04297.1172-.02735.1328.01172.08985.0586.14844.14843.05859.08985.04297.10547.04687.10156.04297.10547.04297.10156.10547.04688.10547.04296.13281.01563.08594-.0586.0586-.08984.07421-.07422.10547-.04297.11719.02735.10547.04687.10156.04297.10547.04297.10156.04688.17969.11718v.11719l-.01563.13281.01563.13281.01562.13672.0586.08594.10156.04688.1211.02734.11718.03125h.14844l.11719-.03125.05859-.08984.17969-.1172.05859-.08983.07422-.07422.0586-.08594.11718-.17969.17969-.11719.11719.03125.08984.0586.04297.07422-.01563.1328v.1172l.08985.05859h.14843l.13282-.01563.1328-.01171.26563-.03125.10547-.04297.11719-.03125.1211-.02735.07421-.07421.07031-.07422.0625-.08985-.01562-.10547-.04688-.10156-.10156-.04297-.10547-.01562-.11718.02734-.26563.03125h-.14844l-.07421-.07422-.08985-.0586-.11719-.03124-.11718-.02735-.13282-.01562h-.14843l-.13282.01563h-.29687l-.10547-.04688-.14844-.14844-.04297-.10156-.05859-.08984.22266-.22266.08593-.0586.10547-.04296.11719-.03125.13281-.01563.13281.01563.13672.01562.10157.04297.1328-.01172.08985-.0625.10156-.04297.0625-.08984-.04687-.10156-.08984-.0586-.1172-.03125-.10155-.04296-.0586-.08985-.0625-.08984v-.11719l.01563-.13281.10547-.04688.07421-.07031v-.1211l-.08984-.05859-.03125-.11719.08985-.05859.07421-.07422.04297-.10547.0586-.08984.04687-.10156.01563-.13281v-.14844l-.04688-.10547-.04297-.10156-.08984-.0586-.13281-.01562-.10157-.04297-.13671-.01563-.1172-.03125h-.4453l-.13282-.01562-.13281-.01172-.13281-.01563-.11719-.03125h-.14844l-.13281-.01562-.13281-.01172-.26563-.03125-.1211-.04297-.08593-.0586-.07422-.07421v-.14844l.01172-.13281.10547-.04688.10156-.04296.13281-.01563h.15235l.13281-.01562h.29297l.1211.03125.10156.04296.08984.0586.23438.0625.12109-.04688.08984-.05859.10156-.04297.13282-.01562.10547.04296.10156.04688.13281.01172.1211-.02735h.14453l.12109-.03125.11719-.02734.10547-.04687.07421-.07422.08594-.0586.14844-.14843.0586-.08594.04687-.10547.02734-.11719.01563-.10547-.10156-.04296-.08985-.0586-.11719-.03125-.10546-.04297-.08985-.0625-.07422-.08594-.07422-.07421-.10156-.04297-.10547-.04688-.10156-.04297-.0586-.08984-.04687-.10156-.08594-.21094-.0625-.08594-.05859-.08984-.07422-.07422-.08594-.0586h-.26953l-.11719.03126-.08984.05859-.10156.04297-.13281.01562-.10547-.01562-.02735-.11719-.0625-.08984-.11718-.03125-.10157-.04297-.14843-.14844-.03125-.11719-.01563-.10546.07422-.07422.17969-.1172.11719-.02733.11718-.03125.13672.01562.10156.04297.10547.04297.10156.04687.10547.04297.1172.03125.1328.01563.1172.02734.1328.01563.10547-.01563.08985-.0586-.07422-.07421-.10547-.04297-.07422-.07422-.07422-.08984-.14844-.14844-.08593-.0586-.08985-.05859-.07422-.07422-.08984-.0586-.10156-.04687-.1211-.02734-.10156-.04688-.10547-.04296-.11719-.03125-.10156-.04297-.1211-.03125h-.14843l-.11719.03125-.10546.04297-.08594.0625-.17969.11718-.08594.0586-.08984.0586-.10547.04687-.08594.05859-.10547.04297-.10156.04297-.10547.04687-.07422.07422-.05859.08985-.0586.08593-.04687.10547-.0586.08594-.07421.07422-.13281-.01172-.1172-.03125h-.11718l-.07422.07422-.08984.0586-.07422.07421-.08984.0586-.08594.05859-.10547.04687-.10156.04297-.13672.01563-.10156-.04297-.14844-.14844-.10547-.04688h-.08594l-.10547.04688-.10156.04297-.1211.03125-.11718-.03125-.07422-.07422v-.11719l.03125-.1211.07422-.0703.0586-.08985.07421-.07422.11719-.03125.10547-.04296h.29297l.13281-.01563.13672-.01563.10156-.04296.08985-.0586.10156-.04687.08984-.0586.13281-.01171.08985.05859.13281.01172.08984-.0586.08594-.05859.10547-.04297.08984-.0586.08594-.0625.08985-.05859.14843-.14843.0586-.08594.05859-.08985.10547-.04296.13281-.01563.11719.02735.1211.03125.05859-.0586.05859-.08984.03125-.26563.02734-.11719.10547.01172.13281.01563.10157-.04297.08984-.0586.0586-.08984.07421-.07422.0586-.08984.04687-.10156.01172-.13281-.01172-.13282-.04687-.10547-.14844-.14843-.0586-.08985-.05859-.08594-.04297-.10546v-.44532l.01563-.1328v-.14845l.01172-.1328-.0586-.0586-.08984.0586-.10156-.04298-.17969-.11719-.08594-.05859-.0625-.08984-.0586-.08985-.07421-.07421-.08594-.0586-.1211.03125-.10155.01172-.10547.04688-.08594.05859-.10547.04297-.14844.14844-.08984.05859-.08594.0586-.08984.0625-.10547.04296-.13281.01563v-.1211l.10547-.04297.11718-.03125.07422-.0703.04297-.10548v-.14844l-.02734-.11718-.14844-.14844-.13281-.01563h-.14844l-.11719.03125-.10547.04297-.10156.04297-.08984.0625-.11719.02735-.07422-.07422.01172-.13281-.04297-.10157-.04297-.10547-.08984-.05859-.11719.02734-.1211.03125-.11718.03125-.10156.04297-.1211.03125-.10156.04297-.10547.04297-.08984.0586-.10156.01562v-.11719l.01562-.13281-.0586-.08985-.07421.04297-.14844.14844-.0586.08985-.07421.07421-.04688.10547-.04296.10156-.07422.07422-.0586.08985-.07422.07422-.05859.08593-.07422.07422-.08984.0625-.07422.07031-.07422.07422-.10156.01563-.13281.01562-.10547-.04296v-.1211l.14843-.14844.04297-.10156.0586-.08984.04687-.10156.04297-.10547.0586-.08985.03124-.11719.04297-.10156.03125-.1211.02735-.11718.04687-.10547.04297-.10156.04297-.10547.07422-.07031.08984-.0625.08985-.0586.10156-.04296h.29687l.26563-.03125.10547-.04297-.07422-.07422-.11719-.03125-.10547-.04297-.08984-.0586-.10156-.04687-.08985-.0586-.10156-.04296-.10547-.04297-.08984-.0625-.08594-.0586-.10547-.04296-.10156-.04297-.1211-.03125-.11718-.03125-.10157-.04297L297.5 410.25l-.10156-.04297-.08985-.0586-.04296-.10546-.01563-.13281.10156-.04297.13281-.01563.13672.01563.13282-.01563.10156-.04297.0586-.08984.01562-.10547-.08985-.0586-.07421-.07421-.10157-.04297-.08984-.0586-.14844-.14843-.04297-.10547-.01562-.13281v-.29297l-.0586-.08985-.08984-.05859-.07422-.07422-.04297-.10547-.03125-.11718-.0586-.08985-.07421-.07422-.11719-.02734-.07422-.07422-.08984-.0586-.08984-.0625-.08594-.05859-.07422-.07421-.0586-.08594-.04687-.10547-.08594-.0586-.14843-.14843-.19532-.0586-.1328.01563-.10157.04297-.07422.07422-.04688.10156-.04296.10547-.0586.08984-.0586.08594-.29687.29687-.08984.0586h-.08594l-.0625-.08594-.04297-.10547.03125-.11719.0586-.08984.02734-.11719-.01172-.13281-.08984-.0625-.10547.04688-.11719.02734-.11719.03125-.26953.17578-.10156.04688-.11719.02734-.10546.04687-.08985.0586-.10156.04297-.0586-.08594-.04687-.10547.01563-.13281.04687-.10547.07031-.07422.07422-.07031.0586-.08985v-.14843l-.04297-.10547h-.23829l-.10156.04687-.03125.11719-.02734.11719-.03125.1211-.07422.04296-.13281.01563-.07422-.04688-.04297-.10156-.04297-.10547-.04687-.10156-.04297-.10547-.1211.03125-.10156.04297-.13281.01562-.11719.03125-.10547.04297-.08984.0586-.10156.04687-.1211.02734-.13281.01563-.10156-.04297-.0586-.08985-.04687-.10546-.04297-.10157-.04297-.10546v-.1172l.0586-.08984.08593-.05859.17969-.11719.10156-.04687.10547-.04297.10547-.0586.10156-.04296.08985-.0625.10156-.04297.10547-.0586.10156-.04687.08984-.0586.10547-.04296.10156-.04297.08985-.0625.10156-.04297.13672-.01563.11719.03125.10156.04297.1211.03125.10156.04297.10546.04688.10157.04296.10547.04297.10156.04688.10547.04297.10156.04297.10547.04687.08594.0586.10546.04296.1172.03125.10546.04297.10156.04688.08985.0586.10547.04296.10156.04297.10547.04687.11719.02735.10156.04687.1211.02735h.14843l.08594-.0586.01562-.10156.0586-.08984-.02735-.1172-.07422-.07421-.11719-.17969-.07421-.07422-.08985-.07421-.17969-.1172-.08593-.05859-.10547-.04296-.10156-.04688-.26954-.17578-.05859-.08985-.07422-.07421-.0586-.08985-.04296-.10156-.03125-.11719-.01563-.13672v-.5625l-.01171-.1328-.01563-.13282-.03125-.11719-.01562-.13281-.01172-.13281-.03125-.1211-.22266-.22265-.0586-.08594-.01562-.10547.03125-.11719.13281-.01562v-91.41406H172.9922v1.45312l-.0586.23438-.35156 1.05078-.17187.52343-.1172.34766-.17577.41016-.11719.17187-.23438.29297-.23046.0586h-.35157l-.11718.05859-.23047.40625v.29297l.11719.17578.23046.23047.1172.23437.64062.75781.29297.46485.17578.23437.23047.35156.23437.34766.64063.8164.17578.46485.17187.41016.11719.69531.17578.46875.11719 1.39844.0586.46484v.875l.11718 1.04688v4.78125l-.0586.46484-.35156 1.28125-.17578.52344-.11328.41015-.35156.9297L172.93359 336l-.23437.58203-.11719.17578-.17187.34766-.17578.40625-.35157.8164-.0586.29297-.11327.29297-.11719.28906-.0586.17579-.11718.875-.0586.40625-.05859.11718-.0586.17579-.05859.17187-.23047.52734-.11718.17188v.23437l-.11719.23438-.0586.17187-.17577.58594v.28906l-.0586.17579v.29296l-.0586.11329-.05859.52734v.17187l-.05468.23438v2.6211l-.17578.8164-.1172.17578-.17577.23438-.1172.17187-.11327.23438-.58594.93359-.23047.28906-.29297.46485-.17578.23437-.28906.35156-.35156.69922-.11328.23047-.17579.41016-.17578.23046-.40625.52735-.8164.69922-.29297.17187-.28906.23438-.17579.11719-.17578.17578-.52344.40625-.52734.17578-.17187.17578-.23438.05469-.64062.17578h-.75782m12.21094 31.02344l-1.07422.44921.35938.89454 1.25-.71485.44531-.53906-.98047-.08985"/><path fill="#d3d3d3" fill-opacity="0" fill-rule="evenodd" d="M201.50781 416.59766h-.89453l.44922.6289.98047.35938.80469-.08985.4453-.98828-.17577.08985-.71485-.35547-.89453.35547m154.6211 59.0703l-.0586-.52343v-.29297l.11328-.29297.0586-.23046.46875-.46875h.11328l.11719-.11329.11718-.05859h.17579l.23437-.0586h.34766l.23437.0586.11719.0586.23047.17187.0586.17578.11718.58203v.29297l-.11719.17578-.17187.28906-.17579.17579-.52734.52343-.23047.23438-.11719.0586h-.17578l-.11718-.0586-.40625-.29297-.17579-.11719-.11718-.0586-.0586-.11327-.05468-.1172m6.64062-10.95702l-.0586-.17188v-1.10937l.0586-.17188.17578-.0586.17188-.05858h.17578l.23437-.0586.1172.0586.05858.69921-.05859.17188-.11719.17578-.11718.0586-.23438.52343-.11328.0586h-.23438l-.05859-.1172m9.61328-14.39062l-.11719-.17578v-.69922l.29297-.875.1172-.17187.17577-.35156.11328-.23047.1172-.29297.35155-.75781.1172-.23047.17187-.23438h.17578l.11719-.0586h.64062l.11719.0586.23437.23438.17188.11328.35156.29297.11719.11718.11328.17579v.11328l.11719.05859.11718.11719v.69922l-.05859.17578v.23047l-.0586.17578-.34765 1.05078-.11719.23047-.11719.23437-.11718.0586-.23047.23437-.64063.28906h-.875l-.41015-.11718-.64063-.46485"/><path fill="none" stroke="#bebebe" stroke-linecap="round" stroke-linejoin="round" stroke-miterlimit="10" stroke-width=".5" d="M467.95703 311.69531H144.02734v168.625h323.9297v-168.625"/><g clip-path="url(#a)"><path fill="#fff" fill-opacity="0" fill-rule="evenodd" d="M144 475.89063v4.4375h.0039H144V311.67188h.0039H144v164.21875"/></g><g clip-path="url(#b)"><path fill="#fff" fill-opacity="0" fill-rule="evenodd" d="M144.0039 480.32813V311.67188h31.0625v119.78906l-.0625.04687-4.375 3.05469-1.21874 1.38281-3.21875 1.6836-2.4375 2.7539-2 2.66406-1.72266 1.77344-1.3125 4.4414-.89453 4.4375.65234 4.4375-.29297 4.4375 3.57032 3.50392 4.4375-.39844 4.4375-.84375 4.4375-.0039 4.4414.42577 4.4375-.29297 4.4375-.14453 4.4375-1.35156 4.4414.15234 2.23438-1.04687-2.23437-1.17578-4.4414-2.33985-2.73829-.92187-1.69922-.45703-4.4375-2.0664-4.08984 2.52343-.34766.08203-.19531-.08203-.11719-4.4375-.33203-4.4375.64453-1.53516 2.13672-2.90625 2.30078-1.51953 3.875-2.91797-.26953-4.4375-3.60547-2.95312-4.4375.89453-4.38672-2.3789-.05468-.04688V311.67188h26.6328v90.86328L199.375 404.875l2.32422 3.39453 4.4375-1.71875 1.6836-1.67578-1.6836-2.0664-4.4375-.27344v-90.86329h35.50781v90.16797l-3.03906 3.03516.1289 4.4414 2.91016 3.85548 4.4375-2.25 3.89844 2.83203-3.89844.91406-4.4375-.5625-4.4414 2.98047-2.44922 1.10547-1.98828.2578-4.4375 1.67579-4.4375-1.19531-2.92188-.73828 2.71484-4.4375-4.23047-4.22657-4.4414.75391-3.55469 3.47266-.88281 1.28125-2.9375 3.15625 2.9375 2.96093 4.4375-.71484 2.55078 2.1914 1.89063 1.78907.79687 2.65234 3.64063 3.72266 1.71093.71484-1.71094 4.1836-4.4375-.98438-4.4414-.11328-2.6836 1.35156-1.7539.85547-2.60156-.85547-1.83594-.6289-.82031.6289-3.6172 3.16406-1.24608 1.27344 1.24609 4.11719.07031.32031 4.36719 4.41406 4.4375-.15625.26172.1836 1.77344 4.4375-2.03516 1.33594-2.95313 3.10156-.78906 4.4375 2.20703 4.4414 1.53516.53907 2.22656-.53906 2.21094-.57813 4.4414-2.28516 2.36329-1.57812 2.07422-.83594 4.4375-1.54687 4.4375-.63282 2.73828-1.42187.91797-4.4375-3.65625-2.88672-3.85547-1.55078 3.45703-4.4414.1289-4.4375.26953-.14844 4.4375-1.36329 4.25-2.92578.19141-.38672 4.4375-.3828 4.4375-1.33985v5.1289l-2.7461 1.41797 2.7461 1.48438 1.41406-1.48438-1.41406-1.41797v-5.1289l2.39063-2.32813 2.04687-3.23828 4.4375.1914 4.4414.76563 3.2422 2.28125 1.1953 1.60938.77344 2.82812.88282 4.4375 2.78125 3.1289 4.4375.92188 3.35547-4.05078 1.08593-.5586 4.4375-1.24218 4.4375-2.16015 1.63672-.47657 2.80078-.72656 2.35547-3.71094-1.54687-4.4375 1.09765-4.4414-1.90625-1.5625-4.4375-1.625-4.4375-.63672-4.4375-.16797-4.4414-.0039-4.4375.10156-4.02735 3.89453-.41015.47656-4.4375 1.76953-4.4414-.71094-.9336-1.53515.9336-3.31641 4.4414 1.72656 2.89453-2.84765 1.22265-4.4375.32032-4.07032.17969-.36718-.1797-.31641-2.34374-4.125-2.09375-1.54297-4.4414.8711-.67579.67187-3.76172 3.21484-1.21875 1.22657-3.21875 3.8789-2.78516-3.8789-1.48828-4.44141-.16406-.16406-4.4375-2.8711v-90.16796h13.3125v39.66796l-.1836.27735.1836.36719.25781-.3672-.2578-.27734v-39.66796h62.13671v139.35937l-4.4375.0586-3.29688 2.60937-1.14062 1.05469-4.4375 1.79296-2.09375 1.58985 2.09375 1.33203 4.4375 2.3789 4.4375.41798 4.4375-.25 4.4414-1.02735 3.76173-2.85156-.77735-4.4375-2.98437-2.1211-4.44141-.54687V311.67187h26.63281v109.3125l-4.4414.94922-2.1172.69532 2.1172.52734v24.38672l-3.08985 1.71875-1.34765.4336-4.4375 2.11718-1.21094 1.88672-.67969 4.4375 1.89063.82812 4.4375 1.76563L334 458.13672l.84766-1.08594 4.4414-2.60156 1.00781-.75.63672-4.4375-1.64453-.61328-4.4414-1.10547v-24.38672l4.4414.54297 1.27735-1.07031-1.27735-1.64454v-109.3125h8.875V433.4297l-2.01953 2.51562 2.01953 1.96875 3.9414 2.46875.4961.5039 1.52735-.5039-1.52735-.79687-1.86328-3.64063-2.57422-2.51562V311.67188h13.3164v128.5039l-.7539.20703.7539.20703.25782-.20703-.25781-.20703v-128.5039h62.13672v145.67968l-.96094.78516-3.47656 2.3164-2.66797 2.1211 2.66797 1.35937 4.4375.80079 2.5664-2.16016-2-4.4375-.5664-.78516V311.67187h39.94531v140.6797l-1.0039 1.34765-3.4336 1.74219-4.4414.5664-2.39844 2.1289-2.03907 1.94142-3.27343 2.49609 3.27343 3.54687 4.4375.25782 4.44141-.85547v5.17969l-1.26172.75-2.0664 4.4375 3.32812 2.6953 3.1836-2.6953-2.38282-4.4375-.80078-.75v-5.1797l2.73828-2.94921v-4.4375l1.69922-3.39844 1.20313-1.03906-1.20313-1.34766V311.67187h4.4336v168.65625H144.0039"/></g><path fill="#50fcfc" fill-rule="evenodd" d="M158.47656 458.13672l-.65234-4.4375.89453-4.4375 1.3125-4.4414 1.72266-1.77344 2-2.66407 2.4375-2.7539 3.21875-1.6836 1.21875-1.38281 4.375-3.05469.0625-.04687v6.19531l-4.4375.23047-3.51172 2.4961-.92578.6328-3.26953 3.8047-1.16797 3.1289-.6172 1.3125-2.03515 4.4375 1.47656 4.4375-.9453 4.4375 2.12109 2.08203 4.4375-.98828 2.83203-1.09375-.11328-4.4375 1.71875-1.07813 2.08984-3.35937 2.21484-4.4375.13282-.0625 3.24609-4.3789 1.19531-3.0586 2.0625-1.3789-2.0625-1.4961-4.4414-1.23047v-6.19531l.05468.04687 4.38672 2.3789 4.4375-.89452 3.60547 2.95312.26953 4.4375-3.875 2.91797-2.30078 1.51953-2.13672 2.90625-.64453 1.53516.33203 4.4375.11719 4.4375.19531.08203.34766-.08203 4.08984-2.52344 4.4375 2.0664 1.69922.45704 2.73828.92187 4.4414 2.33985 2.23438 1.17578-2.23437 1.04687-4.4414-.15234-4.4375 1.35156-4.4375.14453-4.4375.29297-4.44141-.42578-4.4375.0039-4.4375.84376-4.4375.39844-3.57032-3.50391.29297-4.4375"/><path fill="#00e8fc" fill-rule="evenodd" d="M160.57813 458.13672l-1.47657-4.4375 2.03516-4.4375.61719-1.3125 1.16797-3.1289 3.26953-3.8047.92578-.6328 3.51172-2.4961v4.85937l-4.4375 2-.0625.07422-1.02735 4.4414-3.34765 3.4375-.52344 1 .52344 1.19923 4.29687-1.19922.14063-.125 1.60937-4.3125 2.82813-2.69922 4.4375-1.25781.35937-.48438-.35937-.72656-4.4375-1.34766v-4.85937l4.4375-.23047 4.4414 1.23047 2.0625 1.4961-2.0625 1.3789-1.19531 3.0586-3.2461 4.3789-.1328.0625-2.21485 4.4375-2.08984 3.35937-1.71875 1.07813.11328 4.4375-2.83203 1.09375-4.4375.98828-2.1211-2.08203.94531-4.4375"/><path fill="#00d4fc" fill-rule="evenodd" d="M161.7539 454.89844l-.52343-1.19922.52344-1 3.34765-3.4375 1.02735-4.4414.0625-.07423 4.4375-2 4.4375 1.34766.35937.72656-.35937.48438-4.4375 1.25781-2.82813 2.69922-1.60937 4.3125-.14063.125-4.29687 1.19922"/><path fill="#50fcfc" fill-rule="evenodd" d="M197.26172 444.5l-1.2461-4.11719 1.2461-1.27344 3.61719-3.16406.8203-.6289 1.83595.6289 2.60156.85547 1.7539-.85547 2.6836-1.35156v4.71484l-1.65625 1.07422-2.28125 4.4375 3.9375 2.94922 1.29687 1.49219 2.29688 4.4375-3.59375 3.58984-1.07422.84766 1.07422 1.36719 4.4414-.63672 2.17188-.73047 1.22266-4.4375 1.04297-.8789.85156-3.5586-.85156-2.07031-2.1797-2.3711-2.2578-1.82812-2.69922-2.60938-1.7422-1.07422v-4.71484l4.44142.11328 4.4375.98438 1.71093-4.1836-1.71094-.71484-3.64062-3.72266-.79688-2.65234-1.89062-1.78906-2.55078-2.19141-4.4375.71484-2.9375-2.96093 2.9375-3.15625.88281-1.28125 3.55469-3.47266 4.4414-.7539v.64843l-4.4414 1.75781-1.86328 1.82032-2.57422 3.73437-.65234.70313.65234.66015 1.78516-.66015 2.65234-1.23438 4.4414.67969 3.58204-3.88281-3.58203-3.57813v-.64844l4.23046 4.22657-2.71484 4.4375 2.92188.73828 4.4375 1.19531 4.4375-1.67578 1.98828-.25781 2.44922-1.10547 4.4414-2.98047 4.4375.5625 3.89844-.91406-3.89844-2.83204-4.4375 2.25-2.91016-3.85546-.1289-4.44141 3.03906-3.03516v2.11329l-.92578.92187.6836 4.4414.24218.32032.5625-.32031.8125-4.44141-1.375-.92188v-2.11328l4.4375 2.8711.16406.16406 1.48828 4.4414 2.78516 3.87891v2.08594l-4.4375.76953-4.4375.1875-2.375 1.95313-2.0664 1.59765-4.4375.22266-3.42188 2.61719-1.01563 1.1328-1.46484-1.1328-2.97266-1.85938-2.8164 1.85938.46484 4.4414 2.35156 2.40235 4.4375 1.65234 1.02735.38281 2.20312 4.4375 1.20703.8711 4.4375-.58204.42188-.28906-.42188-.72656-2.4453-3.71094 2.4453-1.45703 4.44141.92188.83594.53515 3.60156 2.47656 3.92188-2.47656.51562-.28515 3.71875-4.15235.3086-4.4414-1.60157-4.4375-2.42578-2.91016v-2.08594l3.21875-3.8789 1.21875-1.22657v7.82422l-.60937 2.27735.60937 1.875 3.95313-1.875-3.95313-2.27735v-7.82422l3.76172-3.21484.67578-.67188 4.4414-.87109v2.45313l-4.4414 1.35937-2.33594 2.17188-1.1914 4.4375 3.52734 3.13671 3.86719 1.30079.57422.35156.35547-.35156 2.73437-4.4375.14063-4.4375-3.23047-3.53125v-2.45313l2.09375 1.54297 2.34375 4.125.17969.3164-.1797.3672-.3203 4.0703-1.22266 4.4375-2.89453 2.84766-4.4414-1.72656-.9336 3.3164.9336 1.53516 4.4414.71094 4.4375-1.76953.41015-.47656 4.02735-3.89454v.82422l-3.17578 3.07032-1.26172 1.46093-3.94922 2.98047 3.94922 3.54688.55469.89062 2.03515 4.4375 1.58594 4.4375.26172.29688 4.4375 1.0664 1.1289-1.36328 3.3125-1.70703 4.33985-2.73047.09765-.02734 4.4375-.57422 4.19532-3.83594.08593-4.4375-2.1328-4.4414-2.14845-1.19532-4.4375-1.53515-4.4375.23828-4.4414-.3125-4.4375-.26563v-.82421l4.4375-.10157 4.4414.0039 4.4375.16798 4.4375.63672 4.4375 1.625 1.90625 1.5625-1.09765 4.4414 1.54687 4.4375-2.35547 3.71094-2.80078.72656-1.63672.47656-4.4375 2.16016-4.4375 1.24219-1.08593.5586-3.35547 4.05077-4.4375-.92187-2.78125-3.1289-.88281-4.4375-.77344-2.82813-1.19531-1.60938-3.2422-2.28125-4.4414-.76562-4.4375-.1914-2.04687 3.23827-2.39063 2.32813-4.4375 1.33984-4.4375.38281-.1914.38672-4.25 2.92578-4.4375 1.36329-.26954.14843-.1289 4.4375-3.45703 4.4414 3.85547 1.55079 3.65625 2.88672-.91797 4.4375-2.73828 1.42187-4.4375.63282-4.4375 1.54687-2.07422.83594-2.36328 1.57812-4.44141 2.28516-2.21094.57813-2.22656.53906-1.53516-.53906-2.20703-4.44141.78906-4.4375 2.95313-3.10156 2.03516-1.33594-1.77344-4.4375-.26172-.1836-4.4375.15625-4.36719-4.41406-.07031-.32031m4.4375-36.23047L199.375 404.875l2.32422-2.33984 4.4375.27343 1.6836 2.06641-1.6836 1.67578-4.4375 1.71875"/><path fill="#00e8fc" fill-rule="evenodd" d="M206.13672 418.85156l-.65234-.66015.65234-.70313 2.57422-3.73437 1.86328-1.82032 4.4414-1.7578V411.25l-3.875 2.5039 3.875 2.71485 2.50391-2.71484-2.5039-2.50391v-1.07422l3.58203 3.57813-3.58203 3.8828-4.44141-.67968-2.65234 1.23438-1.78516.66015m4.4375 28.91797l-3.9375-2.94922 2.28125-4.4375 1.65625-1.07422 1.74219 1.07422 2.69922 2.60938 2.2578 1.82812 2.1797 2.3711.85156 2.0703-.85156 3.5586-1.04297.8789-1.22266 4.4375-2.17188.73048-4.4414.63672-1.07422-1.3672 1.07422-.84765 3.59375-3.58984-2.29688-4.4375-1.29687-1.49219"/><path fill="#00d4fc" fill-rule="evenodd" d="M215.01563 416.46875l-3.875-2.71484 3.875-2.50391v1.07813l-2.20704 1.42578 2.20703 1.54296 1.42188-1.54296-1.42188-1.42579V411.25l2.50391 2.5039-2.5039 2.71485"/><path fill="#00c4fc" fill-rule="evenodd" d="M215.01563 415.29688l-2.20704-1.54297 2.20703-1.42579v1.07813l-.53906.34766.53906.375.34375-.375-.34375-.34766v-1.07813l1.42188 1.42579-1.42188 1.54296"/><path fill="#00b8fc" fill-rule="evenodd" d="M215.01563 414.1289l-.53907-.375.53906-.34765.34375.34766-.34375.375"/><path fill="#00e8fc" fill-rule="evenodd" d="M217.10156 427.07031l-.46484-4.4414 2.8164-1.85938v5.45703l-.19921.84375.19922.19922 1.86718-.19922-1.86719-.84375v-5.45703l2.97266 1.85938 1.46484 1.1328 1.01563-1.1328 3.42188-2.6172v2.60157l-.01954.01563-3.91406 4.4414 3.9336 2.5586 3.3789-2.5586-3.19922-4.4414-.17969-.01563v-2.60156l4.4375-.22266 2.06641-1.59765 2.375-1.95313 4.4375-.1875 4.4375-.76953v2.80078l-1.58594.10938-2.85156.20703-4.4375.55469-4.15625 3.67578.6836 4.4414 3.47265 2.05469 3.71875 2.38281.71875.49219.78125-.49219 3.65625-2.02734 2.16016-2.41016.16406-4.4414-2.23438-4.4375-.08984-.10938v-2.80078l2.42578 2.91016 1.60156 4.4375-.30859 4.4414-3.71875 4.15235-.51562.28515-3.92188 2.47656-3.60156-2.47656-.83594-.53515-4.4414-.92188-2.44532 1.45703 2.44531 3.71094.42188.72656-.42188.28906-4.4375.58204-1.20703-.8711-2.20312-4.4375-1.02734-.38281-4.4375-1.65234-2.35157-2.40235"/><path fill="#00d4fc" fill-rule="evenodd" d="M219.45313 427.26953l-.19922-.19922.19922-.84375 1.86718.84375-1.86719.19922m8.875 2.35938l-3.93359-2.5586 3.91406-4.4414.01953-.01563.1797.01563 3.19921 4.4414-3.3789 2.5586m5.40625-2.5586l-.6836-4.4414 4.15625-3.67579v1.6836l-2.25 1.99219 1.89844 4.4414.35156.20703 4.4375 3.55079 4.4375-3.08594.60547-.67188.01953-4.4414-.625-1.22266-4.4375-.09375-4.4375-.67578v-1.6836l4.4375-.55468 2.85156-.20703 1.58594-.10938.08984.10938 2.23438 4.4375-.16406 4.4414-2.16016 2.41016-3.65625 2.02734-.78125.49219-.71875-.49219-3.71875-2.38281-3.47266-2.05469"/><path fill="#00c4fc" fill-rule="evenodd" d="M236.85547 427.07031l-1.89844-4.4414 2.25-1.9922v1.6875l-.34766.3047.34766.7539.96875 3.6875 3.46875 2.85547 3.71875-2.85547-3.71875-3.78515-3.33594-.65625-1.10156-.3047v-1.6875l4.4375.67579 4.4375.09375.625 1.22266-.01953 4.4414-.60547.67188-4.4375 3.08594-4.4375-3.55079-.35156-.20703"/><path fill="#00e8fc" fill-rule="evenodd" d="M236.96484 409.3164l-.68359-4.4414.92578-.92188 1.375.92188-.8125 4.4414-.5625.32032-.24219-.32031"/><path fill="#00b8fc" fill-rule="evenodd" d="M237.20703 423.38281l-.34766-.7539.34766-.3047 1.10156.3047 3.33594.65625v1.1953l-2.3711 2.58985 2.3711 1.95313 2.54297-1.95313-2.54297-2.58984v-1.19531l3.71875 3.78515-3.71875 2.85547-3.46875-2.85547-.96875-3.6875"/><path fill="#00a8fc" fill-rule="evenodd" d="M241.64453 429.02344l-2.3711-1.95313 2.3711-2.58984v1.19531l-1.27734 1.39453 1.27734 1.05078 1.36719-1.05078-1.36719-1.39453v-1.19531l2.54297 2.58984-2.54297 1.95313"/><path fill="#009800" fill-rule="evenodd" d="M241.64453 428.1211l-1.27734-1.05079 1.27734-1.39453v1.19531l-.17969.19922.1797.14844.1953-.14844-.1953-.19922v-1.1953l1.36718 1.39452-1.36719 1.05078"/><path fill="#00ac00" fill-rule="evenodd" d="M241.64453 427.21875l-.17969-.14844.1797-.19922.1953.19922-.1953.14844"/><path fill="#50fcfc" fill-rule="evenodd" d="M246.08203 441.86719l-2.7461-1.48438 2.7461-1.41797 1.41406 1.41797-1.41406 1.48438"/><path fill="#fff" fill-opacity="0" fill-rule="evenodd" d="M250.51953 415.91406l-.60937 2.27735.60937 1.875 3.95313-1.875-3.95313-2.27735"/><path fill="#50fcfc" fill-rule="evenodd" d="M250.51953 351.98438l-.1836-.3672.1836-.27734.25781.27735-.2578.36719"/><path fill="#00e8fc" fill-rule="evenodd" d="M254.95703 416.89063l-3.52734-3.13672 1.1914-4.4375 2.33594-2.17188 4.4414-1.35937v2.26562l-2.35937 1.26563-2.08203 2.53906-.94531 1.89844.94531.84375 4.4414 1.23828 1.38282-2.08203-.22656-4.4375-1.15625-1.26563v-2.26562l3.23047 3.53125-.14063 4.4375-2.73437 4.4375-.35547.35156-.57422-.35156-3.86719-1.30079"/><path fill="#00d4fc" fill-rule="evenodd" d="M254.95703 414.59766l-.94531-.84375.94531-1.89844 2.08203-2.53906 2.35938-1.26563 1.15625 1.26563.22656 4.4375-1.38281 2.08203-4.4414-1.23828"/><path fill="#00e8fc" fill-rule="evenodd" d="M263.83594 430.61719l-3.94922-3.54688 3.94922-2.98047 1.26172-1.46093 3.17578-3.07032v1.375l-1.7539 1.69532-2.6836 3.10156-1.77344 1.33984 1.77344 1.59375 1.77344 2.84375 2.66406 3.76563.60156.67187 3.83594 3.46875 4.4414-2.65234 1.30079-.8164 3.13671-.92188 4.4375-.75781 3.01563-2.75782.96875-4.4375-3.98438-4.23828-2.48437-.20312-1.95313-.91407-4.39843.91407-.03907.0039-.05078-.0039-4.39062-.81641-4.4375-.8789v-1.375l4.4375.26562 4.4414.3125 4.4375-.23828 4.4375 1.53515 2.14844 1.19532 2.13281 4.4414-.08593 4.4375-4.19532 3.83594-4.4375.57422-.09765.02734-4.33985 2.73047-3.3125 1.70703-1.1289 1.36328-4.4375-1.0664-.26172-.29688-1.58594-4.4375-2.03515-4.4375-.5547-.89062"/><path fill="#00d4fc" fill-rule="evenodd" d="M263.83594 428.66406l-1.77344-1.59375 1.77344-1.33984 2.6836-3.10156 1.7539-1.69532v1.375l-.32813.32032-3.82422 4.4414 2.70704 4.4375 1.4453 2.03906 2.14844 2.39844 2.28907 2.07031 3.20312-2.0703 1.23828-2.41407 4.4375.59766 4.4375-.94532 1.83594-1.67578 1.85156-4.4375-3.6875-3.92187-4.4375-.0586-4.4375.4297-4.4414-.16407-3.17969-.72656-1.25781-.32032v-1.375l4.4375.87891 4.39062.8164.05078.00391.03907-.0039 4.39843-.91407 1.95313.91407 2.48437.20312 3.98438 4.23828-.96875 4.4375-3.01563 2.75781-4.4375.75782-3.13671.92187-1.30079.8164-4.4414 2.65235-3.83594-3.46875-.60156-.67187-2.66406-3.76563-1.77344-2.84375"/><path fill="#00c4fc" fill-rule="evenodd" d="M266.82813 431.50781l-2.70704-4.4375 3.82422-4.4414.32813-.32032 1.25781.32032 3.17969.72656 4.4414.16406 4.4375-.42969 4.4375.0586v.3164l-4.4375.54297-4.4375.39844-4.4414.17578-4.4375-.55469-2.59375 3.04297 2.3711 4.4375.22265.3164 3.6914 4.1211.7461.67578 1.04687-.67578-.24219-4.4375 3.63672-.65625.9375.65625 3.5 1.73047 4.4375-1.13281.65235-.59766 2.73828-4.4375-3.39063-3.60547v-.3164l3.6875 3.92187-1.85156 4.4375-1.83594 1.67578-4.4375.94532-4.4375-.59766-1.23828 2.41406-3.20312 2.07031-2.28906-2.0703-2.14844-2.39844-1.44531-2.03907"/><path fill="#00b8fc" fill-rule="evenodd" d="M268.05078 431.50781l-2.3711-4.4375 2.59376-3.04297 4.4375.5547 4.4414-.17579 4.4375-.39844 4.4375-.54297v.31641l-4.4375 1.14844-4.4375.36328-4.4414.51953-4.4375.03516-1.03906 1.22265 1.03906 1.9961 4.4375.3789 4.4414.14844 2.7461 1.91406 1.6914.83594 3.00391-.83594 1.4336-.1836 3.09374-4.2539-3.09375-3.28906v-.3164l3.39063 3.60546-2.73828 4.4375-.65235.59766-4.4375 1.13281-3.5-1.73047-.9375-.65625-3.63671.65625.24218 4.4375-1.04687.67578-.7461-.67578-3.6914-4.1211-.22266-.3164"/><path fill="#00a8fc" fill-rule="evenodd" d="M268.27344 429.0664l-1.03906-1.99609 1.03906-1.22265 4.4375-.03516 4.4414-.51953 4.4375-.36328 4.4375-1.14844v.3164l-4.4375 1.75-4.4375.33204-4.4414.86328-.25781.02734.2578.04688 4.44141 1.21484 4.4375 2.97266 4.4375-.39063 2.79297-3.84375-2.79297-2.97265v-.31641l3.09375 3.28906-3.09375 4.2539-1.43359.1836-3.0039.83594-1.69141-.83594-2.7461-1.91406-4.4414-.14844-4.4375-.3789"/><path fill="#009800" fill-rule="evenodd" d="M272.71094 427.11719l-.25781-.04688.2578-.02734 4.44141-.86328 4.4375-.33203 4.4375-1.75v.3164l-4.4375 2.35547-4.4375.29688-.01953.0039.01953.0039 4.4375 1.03126 4.4375 2.39844 2.4961-3.4336-2.4961-2.65625v-.3164l2.79297 2.97265-2.79297 3.84375-4.4375.39063-4.4375-2.97266-4.4414-1.21484"/><path fill="#00ac00" fill-rule="evenodd" d="M277.15234 427.07422l-.01953-.0039.01953-.00391 4.4375-.29688 4.4375-2.35547v.3164l-4.0664 2.33985 4.0664 3.02735 2.19922-3.02735-2.19922-2.33984v-.3164l2.4961 2.65624-2.4961 3.4336-4.4375-2.39844-4.4375-1.03125"/><path fill="#00c800" fill-rule="evenodd" d="M286.02734 430.09766l-4.0664-3.02735 4.0664-2.33984v.63281l-2.96875 1.70703 2.96875 2.20703 1.60547-2.20703-1.60547-1.70703v-.63281l2.19922 2.33984-2.19922 3.02735"/><path fill="#10cc00" fill-rule="evenodd" d="M286.02734 429.27734l-2.96875-2.20703 2.96875-1.70703v.6289l-1.86718 1.07813 1.86718 1.39063 1.01172-1.39063-1.01172-1.07812v-.6289l1.60547 1.70702-1.60547 2.20703"/><path fill="#24d000" fill-rule="evenodd" d="M286.02734 428.46094l-1.86718-1.39063 1.86718-1.07812v.63281l-.76953.44531.76953.57031.41407-.5703-.41407-.44532v-.63281l1.01172 1.07812-1.01172 1.39063"/><path fill="#3cd800" fill-rule="evenodd" d="M286.02734 427.64063l-.76953-.57032.76953-.44531.41407.44531-.41407.57031"/><path fill="#50fcfc" fill-rule="evenodd" d="M299.34375 459.46875l-2.09375-1.33203 2.09375-1.58985 4.4375-1.79296 1.14063-1.0547 3.29687-2.60937 4.4375-.05859v3.36719l-4.4375.00781-4.01563 3.73047 4.01563 2.11328 4.4375.0625 4.4414-1.83203.44923-.34375-.44922-.8164-4.44141-2.92188v-3.36719l4.4414.54688 2.98438 2.12109.77735 4.4375-3.76172 2.85156-4.44141 1.02735-4.4375.25-4.4375-.41797-4.4375-2.37891"/><path fill="#00e8fc" fill-rule="evenodd" d="M308.21875 460.25l-4.01563-2.11328 4.01563-3.73047 4.4375-.00781 4.4414 2.92187.44923.8164-.44922.34376-4.44141 1.83203-4.4375-.0625"/><path fill="#50fcfc" fill-rule="evenodd" d="M325.97266 458.96484l-1.89063-.82812.67969-4.4375 1.21094-1.88672 4.4375-2.11719 1.34765-.4336 3.08985-1.71874 4.4414 1.10547 1.64453.61328-.63671 4.4375-1.00782.75-4.4414 2.60156L334 458.13672l-3.58984 2.59375-4.4375-1.76563m8.875-35.80859l-2.1172-.52734 2.1172-.69532 4.4414-.94921 1.27735 1.64453-1.27735 1.0703-4.4414-.54296m13.3164 14.75781l-2.01953-1.96875 2.01953-2.51562 2.57422 2.51562 1.86328 3.64063 1.52735.79687-1.52735.5039-.4961-.5039-3.9414-2.46875m13.3164 2.67578l-.7539-.20703.7539-.20703.25782.20703-.25781.20703m57.69922 23.34375l-2.66797-1.35937 2.66797-2.1211 3.47656-2.3164.96094-.78516.5664.78516 2 4.4375-2.5664 2.16015-4.4375-.80078m31.0664 2.1875l-3.27343-3.54687 3.27343-2.4961 2.03907-1.9414 2.39843-2.1289 4.44141-.56641v2.6289l-.27344.0664-4.16797.77345-3.76171 3.66406 3.76171 2.46875 4.41797-2.46875.02344-1.24219.0664-3.19531-.0664-.0664v-2.62891l3.4336-1.7422 1.0039-1.34765 1.20313 1.34766-1.20313 1.03906-1.69922 3.39844v4.4375l-2.73828 2.94922-4.4414.85547-4.4375-.25782"/><path fill="#00e8fc" fill-rule="evenodd" d="M454.6836 465.04297l-3.76173-2.46875 3.76172-3.66406v3.3125l-.35937.35156.35937.23828.42579-.23828-.42579-.35156v-3.3125l4.16797-.77344.27344-.0664.0664.0664-.0664 3.19531-.02344 1.24219-4.41797 2.46875"/><path fill="#00d4fc" fill-rule="evenodd" d="M454.6836 462.8125l-.35938-.23828.35937-.35156.42579.35156-.42579.23828"/><path fill="#50fcfc" fill-rule="evenodd" d="M459.125 478.58594l-3.32813-2.69531 2.06641-4.4375 1.26172-.75v5.04296l-.09766.14454.09766.07812.08984-.07813-.08984-.14453v-5.04296l.80078.75 2.38281 4.4375-3.18359 2.6953"/><path fill="#00e8fc" fill-rule="evenodd" d="M459.125 475.96875l-.09766-.07813.09766-.14453.08984.14454-.08984.07812"/><g clip-path="url(#c)"><path fill="#fff" fill-opacity="0" fill-rule="evenodd" d="M467.9961 480.32813H468V311.67188h-.0039H468v168.65625h-.0039"/></g><path fill="#fff" fill-opacity="0" fill-rule="evenodd" d="M249.83984 418.11719l1.15235-5.72266-9.76172-1.97265-1.15625 5.72656 9.76562 1.96875"/><path fill-rule="evenodd" d="M242.5625 413.08203l.10156-.5 6.17188 1.2461-.15625.76953-4.40235-.88672-.27343 1.35937-.54297-.10937.04687-.5625-.0039-.25781-.04297-.2422-.09766-.22656-.17187-.21093-.26172-.19922-.36719-.17969"/><path fill="#fff" fill-opacity="0" fill-rule="evenodd" d="M281.46094 423.52344l5.66406 1.42969 2.4336-9.66016-5.66407-1.42578-2.4336 9.65625"/><path fill-rule="evenodd" d="M286.83984 416.4961l.4961.125-1.53906 6.10546-.76172-.1914 1.09375-4.35547-1.34375-.33985.1328-.53906.5625.07422.25392.01172.24609-.03125.23047-.08985.22265-.16015.20704-.25.19921-.35938"/><path fill="#fff" fill-opacity="0" fill-rule="evenodd" d="M202.45703 472.44922l5.83203.29687.5039-9.94921-5.83593-.29297-.5 9.9453"/><path fill-rule="evenodd" d="M206.35938 464.50781l.5078.02735-.3164 6.28515-.78516-.03906.22657-4.48438-1.38672-.0703.02734-.5547.5625-.03515.2539-.04297.23438-.07422.21094-.13281.1836-.20313.15625-.28515.125-.39063"/><path fill="#fff" fill-opacity="0" fill-rule="evenodd" d="M185.82813 470.38672l5.76562-.95703-1.6289-9.82813-5.76563.95703 1.6289 9.82813"/><path fill-rule="evenodd" d="M187.95313 461.79297l.5-.08203 1.03125 6.21094-.77735.1289-.73437-4.42969-1.3672.22657-.09374-.54688.54297-.15625.23828-.09375.21484-.125.17578-.17578.13672-.23438.09375-.3125.03906-.41015"/><g clip-path="url(#d)"><path fill="none" stroke="#000" stroke-linecap="round" stroke-linejoin="round" stroke-miterlimit="10" stroke-width=".5" d="M146.60156 477.96484l-5.20312 4.72657"/></g><g clip-path="url(#e)"><path fill="none" stroke="#000" stroke-linecap="round" stroke-linejoin="round" stroke-miterlimit="10" stroke-width=".5" d="M157.95703 476.875l-1.28125 6.91016"/></g><path fill="none" stroke="#000" stroke-linecap="round" stroke-linejoin="round" stroke-miterlimit="10" stroke-width=".5" d="M157.76953 477.8789l1.17188-.36718"/><g clip-path="url(#f)"><path fill="none" stroke="#000" stroke-linecap="round" stroke-linejoin="round" stroke-miterlimit="10" stroke-width=".5" d="M171.66797 476.97266l-2.07422 6.71484"/></g><path fill="none" stroke="#000" stroke-linecap="round" stroke-linejoin="round" stroke-miterlimit="10" stroke-width=".5" d="M171.36719 477.94922l1.20312-.23047"/><g clip-path="url(#g)"><path fill="none" stroke="#000" stroke-linecap="round" stroke-linejoin="round" stroke-miterlimit="10" stroke-width=".5" d="M184.4375 476.85156l-.98438 6.95703"/></g><path fill="none" stroke="#000" stroke-linecap="round" stroke-linejoin="round" stroke-miterlimit="10" stroke-width=".5" d="M184.29688 477.86328l1.15234-.41797"/><g clip-path="url(#h)"><path fill="none" stroke="#000" stroke-linecap="round" stroke-linejoin="round" stroke-miterlimit="10" stroke-width=".5" d="M200.77344 480.32813h-7.02735"/></g><g clip-path="url(#i)"><path fill="none" stroke="#000" stroke-linecap="round" stroke-linejoin="round" stroke-miterlimit="10" stroke-width=".5" d="M212.34766 483.36328l-3.54688-6.0664"/></g><g clip-path="url(#j)"><path fill="none" stroke="#000" stroke-linecap="round" stroke-linejoin="round" stroke-miterlimit="10" stroke-width=".5" d="M226.82422 482.26172l-5.86719-3.86328"/></g><g clip-path="url(#k)"><path fill="none" stroke="#000" stroke-linecap="round" stroke-linejoin="round" stroke-miterlimit="10" stroke-width=".5" d="M240.71094 480.08203l-7.01172.49219"/></g><g clip-path="url(#l)"><path fill="none" stroke="#000" stroke-linecap="round" stroke-linejoin="round" stroke-miterlimit="10" stroke-width=".5" d="M239.6914 480.15625l.64844 1.03906"/></g><g clip-path="url(#m)"><path fill="none" stroke="#000" stroke-linecap="round" stroke-linejoin="round" stroke-miterlimit="10" stroke-width=".5" d="M253.73438 478.91016l-6.4297 2.83593"/></g><g clip-path="url(#n)"><path fill="none" stroke="#000" stroke-linecap="round" stroke-linejoin="round" stroke-miterlimit="10" stroke-width=".5" d="M252.80078 479.32422l.96484.75781"/></g><g clip-path="url(#o)"><path fill="none" stroke="#000" stroke-linecap="round" stroke-linejoin="round" stroke-miterlimit="10" stroke-width=".5" d="M266.94922 478.69922l-6.22656 3.25781"/></g><g clip-path="url(#p)"><path fill="none" stroke="#000" stroke-linecap="round" stroke-linejoin="round" stroke-miterlimit="10" stroke-width=".5" d="M266.04297 479.17578l1.01172.6914"/></g><g clip-path="url(#q)"><path fill="none" stroke="#000" stroke-linecap="round" stroke-linejoin="round" stroke-miterlimit="10" stroke-width=".5" d="M280.17578 478.54297l-6.05078 3.57422"/></g><path fill="none" stroke="#000" stroke-linecap="round" stroke-linejoin="round" stroke-miterlimit="10" stroke-width=".5" d="M279.29688 479.0625l1.04687.64063"/><g clip-path="url(#r)"><path fill="none" stroke="#000" stroke-linecap="round" stroke-linejoin="round" stroke-miterlimit="10" stroke-width=".5" d="M293.83203 479.3164l-6.73047 2.02344"/></g><g clip-path="url(#s)"><path fill="none" stroke="#000" stroke-linecap="round" stroke-linejoin="round" stroke-miterlimit="10" stroke-width=".5" d="M292.85156 479.60938l.86328.875"/></g><g clip-path="url(#t)"><path fill="none" stroke="#000" stroke-linecap="round" stroke-linejoin="round" stroke-miterlimit="10" stroke-width=".5" d="M307.25 480.88672l-6.9375-1.11719"/></g><g clip-path="url(#u)"><path fill="none" stroke="#000" stroke-linecap="round" stroke-linejoin="round" stroke-miterlimit="10" stroke-width=".5" d="M306.23828 480.72656l.39844 1.16016"/></g><g clip-path="url(#v)"><path fill="none" stroke="#000" stroke-linecap="round" stroke-linejoin="round" stroke-miterlimit="10" stroke-width=".5" d="M320.45703 481.35547l-6.72265-2.05469"/></g><g clip-path="url(#w)"><path fill="none" stroke="#000" stroke-linecap="round" stroke-linejoin="round" stroke-miterlimit="10" stroke-width=".5" d="M319.47656 481.0586l.23438 1.20312"/></g><g clip-path="url(#x)"><path fill="none" stroke="#000" stroke-linecap="round" stroke-linejoin="round" stroke-miterlimit="10" stroke-width=".5" d="M333.88281 480.875l-6.9414-1.09375"/></g><g clip-path="url(#y)"><path fill="none" stroke="#000" stroke-linecap="round" stroke-linejoin="round" stroke-miterlimit="10" stroke-width=".5" d="M332.8711 480.71484l.40234 1.16016"/></g><g clip-path="url(#z)"><path fill="none" stroke="#000" stroke-linecap="round" stroke-linejoin="round" stroke-miterlimit="10" stroke-width=".5" d="M347.23438 480.53516l-7.01563-.41016"/></g><g clip-path="url(#A)"><path fill="none" stroke="#000" stroke-linecap="round" stroke-linejoin="round" stroke-miterlimit="10" stroke-width=".5" d="M346.21484 480.47266l.50782 1.11718"/></g><g clip-path="url(#B)"><path fill="none" stroke="#000" stroke-linecap="round" stroke-linejoin="round" stroke-miterlimit="10" stroke-width=".5" d="M360.4961 480.96875l-6.91016-1.28125"/></g><g clip-path="url(#C)"><path fill="none" stroke="#000" stroke-linecap="round" stroke-linejoin="round" stroke-miterlimit="10" stroke-width=".5" d="M359.49219 480.78125l.36719 1.17188"/></g><g clip-path="url(#D)"><path fill="none" stroke="#000" stroke-linecap="round" stroke-linejoin="round" stroke-miterlimit="10" stroke-width=".5" d="M373.8164 480.9414l-6.91796-1.22656"/></g><g clip-path="url(#E)"><path fill="none" stroke="#000" stroke-linecap="round" stroke-linejoin="round" stroke-miterlimit="10" stroke-width=".5" d="M372.8086 480.76563l.3789 1.16406"/></g><g clip-path="url(#F)"><path fill="none" stroke="#000" stroke-linecap="round" stroke-linejoin="round" stroke-miterlimit="10" stroke-width=".5" d="M387.1211 481.0039l-6.89844-1.35156"/></g><g clip-path="url(#G)"><path fill="none" stroke="#000" stroke-linecap="round" stroke-linejoin="round" stroke-miterlimit="10" stroke-width=".5" d="M387.1211 481.0039l.71093 2.34766"/></g><g clip-path="url(#H)"><path fill="none" stroke="#000" stroke-linecap="round" stroke-linejoin="round" stroke-miterlimit="10" stroke-width=".5" d="M400.49219 480.07813l-7.01172.5"/></g><g clip-path="url(#I)"><path fill="none" stroke="#000" stroke-linecap="round" stroke-linejoin="round" stroke-miterlimit="10" stroke-width=".5" d="M400.49219 480.07813l1.30078 2.07812"/></g><g clip-path="url(#J)"><path fill="none" stroke="#000" stroke-linecap="round" stroke-linejoin="round" stroke-miterlimit="10" stroke-width=".5" d="M413.78125 480.82031l-6.96094-.98047"/></g><g clip-path="url(#K)"><path fill="none" stroke="#000" stroke-linecap="round" stroke-linejoin="round" stroke-miterlimit="10" stroke-width=".5" d="M412.76953 480.67578l.41797 1.15235"/></g><g clip-path="url(#L)"><path fill="none" stroke="#000" stroke-linecap="round" stroke-linejoin="round" stroke-miterlimit="10" stroke-width=".5" d="M427.08984 479.78906l-6.9453 1.07813"/></g><g clip-path="url(#M)"><path fill="none" stroke="#000" stroke-linecap="round" stroke-linejoin="round" stroke-miterlimit="10" stroke-width=".5" d="M427.08984 479.78906l1.46875 1.96485"/></g><g clip-path="url(#N)"><path fill="none" stroke="#000" stroke-linecap="round" stroke-linejoin="round" stroke-miterlimit="10" stroke-width=".5" d="M439.84375 478.36328l-5.82422 3.9336"/></g><path fill="none" stroke="#000" stroke-linecap="round" stroke-linejoin="round" stroke-miterlimit="10" stroke-width=".5" d="M439.84375 478.36328l2.16797 1.14844"/><g clip-path="url(#O)"><path fill="none" stroke="#000" stroke-linecap="round" stroke-linejoin="round" stroke-miterlimit="10" stroke-width=".5" d="M452.4336 477.57813l-4.3711 5.5"/></g><path fill="none" stroke="#000" stroke-linecap="round" stroke-linejoin="round" stroke-miterlimit="10" stroke-width=".5" d="M452.4336 477.57813l2.41015.4453"/><g clip-path="url(#P)"><path fill="none" stroke="#000" stroke-linecap="round" stroke-linejoin="round" stroke-miterlimit="10" stroke-width=".5" d="M467.07422 480.41016l-7.02344-.16407"/></g><g clip-path="url(#Q)"><path fill="none" stroke="#000" stroke-linecap="round" stroke-linejoin="round" stroke-miterlimit="10" stroke-width=".5" d="M466.05078 480.38672l.55078 1.09765"/></g><g clip-path="url(#R)"><path fill="none" stroke="#000" stroke-linecap="round" stroke-linejoin="round" stroke-miterlimit="10" stroke-width=".5" d="M147.25781 465.70313l-6.51562 2.62109"/></g><path fill="none" stroke="#000" stroke-linecap="round" stroke-linejoin="round" stroke-miterlimit="10" stroke-width=".5" d="M147.25781 465.70313l1.8789 1.57812m11.37892-1.71875l-6.39844 2.90234m6.39844-2.90234l1.9414 1.4961m11.20703-1.81641l-6.07031 3.54297m6.07031-3.54297l2.08594 1.29297m11.55078-.56641l-6.71094 2.08984m5.73438-1.78515l.8711.85937m13.39062 1.01563l-6.65235-2.26953m5.6836 1.9414l.19531 1.21094m13.3125.40234l-5.09766-4.83984m4.35547 4.13672l-.32812 1.17969m14.53125-.64454l-5.39063-4.5039m4.60547 3.84765l-.25 1.20313m14.6211-.91406l-5.9336-3.76953m5.07031 3.21875l-.09375 1.22656m14.71485-1.70703l-6.8164-1.70703m5.82421 1.46093l.29297 1.19141m14.07422-1.23438l-6.9375-1.1289m5.92578.96484l.39453 1.16016m13.83203-.57031l-6.73828-1.98047m5.75781 1.69531l.25 1.19922m14.11719-1.1875l-6.8789-1.42969m5.8789 1.21875l.34375 1.17969m14.02734-1.32813l-6.99218-.71484m5.97265.61328l.46485 1.13281m13.88671-1.45312l-7.02734.1289m7.02735-.1289l1.1914 2.14453m12.1211-1.91797l-7.01954-.32422m5.9961.27735l.52734 1.10937m13.76563-.64062l-6.9297-1.16797m5.92188 1l.38672 1.16406m13.8125-.4961l-6.6836-2.16796m5.71095 1.85547l.21484 1.20703m13.78906-3.71094l-6.11328 3.46484m5.22266-2.96093l1.03515.66015m13.6172.79297l-7.01173-.44922m5.99219.38281l.50781 1.1211m13.83594-1.3711l-7.02734.1836m7.02734-.1836l1.20703 2.13282m12.04688-1.39453l-6.90625-1.29297m6.90625 1.29297L414.48828 470m12.5625-2.2539l-6.8711-1.46485m6.8711 1.46484l.67578 2.35938m12.6289-2.30469l-6.84765-1.57422m6.84766 1.57422l.64062 2.36719m12.57813-2.02735l-6.65625-2.2539m6.65625 2.2539l.39453 2.42188m12.72266-1.95703l-6.26172-3.1836m5.35156 2.72266l.02344 1.22656"/><g clip-path="url(#S)"><path fill="none" stroke="#000" stroke-linecap="round" stroke-linejoin="round" stroke-miterlimit="10" stroke-width=".5" d="M147.42188 452.89844L140.57813 454.5"/></g><path fill="none" stroke="#000" stroke-linecap="round" stroke-linejoin="round" stroke-miterlimit="10" stroke-width=".5" d="M147.42188 452.89844l1.61328 1.84375m11.71093-1.80469l-6.85937 1.52344m6.85937-1.52344l1.59375 1.86328m11.6836-2.01953l-6.78516 1.83594m6.78516-1.83594l1.67578 1.79297m11.7461-1.19531l-7 .64062m7-.64062l1.34374 2.05078m11.92188-1.07032l-6.90235-1.3203m6.90235 1.3203l.72656 2.34375m12.41406-1.73828l-6.55469-2.53515m6.5547 2.53515l.29296 2.4375m12.29688-1.28515l-5.10157-4.83594m4.35938 4.13281l-.32813 1.17969m14.07422-.1875l-4.48047-5.41406m3.82813 4.625l-.46484 1.13281m15.4453-1.71875l-6.5039-2.66406m5.55469 2.27734l.125 1.21875m14.39453-1.98828l-7.01563-.35156m5.9961.30078l.51953 1.10937m13.80078-.86328l-6.98828-.74219m5.97266.63282l.45703 1.14062m13.75-.40625l-6.73828-1.99219m5.7578 1.70313l.2422 1.20312m14.1953-1.82421l-7.02343-.17188m6 .14844l.55078 1.09375m13.76953-.78906l-6.98828-.73438m5.97266.6289l.45703 1.13673m13.88281-1.66797l-7.00781.53906m5.98828-.46094l.65625 1.03516m12.6914-3.29688l-5.03124 4.90625m15.33203-5.93359l.9961 6.95703m12.78906-6.99219l.05468 7.02735m-.04687-6.0039l1.07812-.58204m12.42578-.4375l-.33593 7.01953m.28515-5.9961l1.10938-.52343m14.92187 5.08594l-5.66797-4.14844m19.58594 2.80469l-6.875-1.46094m19.22656 3.22656l-4.9453-4.99219m4.22655 4.26563l-.36328 1.17187m12.96875.41016l-2.08984-6.70703m1.78516 5.73437l-.85938.8711m12.20313.03906l2.46093-6.58203m-2.46093 6.58203l-2.4336.32031m14.78516-.86718l4.39062-5.48829m-3.7539 4.69141l-1.20313-.22656"/><g clip-path="url(#T)"><path fill="none" stroke="#000" stroke-linecap="round" stroke-linejoin="round" stroke-miterlimit="10" stroke-width=".5" d="M147.46094 439.77734l-6.92188 1.21094"/></g><path fill="none" stroke="#000" stroke-linecap="round" stroke-linejoin="round" stroke-miterlimit="10" stroke-width=".5" d="M147.46094 439.77734l1.50781 1.9375m11.85938-1.3203l-7.02735-.01954m7.02734.01953l1.14844 2.16797m12.16406-2.35156l-7.01953.34375m7.01953-.34375l1.25391 2.10937m12.03516-1.47265l-6.96875-.9297m6.96875.9297l.85156 2.30078m12.41016-2l-6.85938-1.52735m6.85938 1.52735l.65234 2.36328m12.57422-2.05078l-6.6875-2.15625m6.6875 2.15625l.4336 2.41797m12.5703-1.71875l-6.0625-3.5547m6.0625 3.5547l-.10156 2.45312m13.89844-4.26172l-7.02734.0664m6.0039-.05858l.58594 1.07812m7.17578-2.77734l6.125 3.4453m-5.23437-2.9414l.03125-1.22656m18.01953.04297l-5.125 4.80469m4.3789-4.10547l1.16016.39453m13.60156.00781l-6.52734 2.60156m19.33594-3.47656l-5.51563 4.35547m4.71484-3.72266l1.1211.4922m13.72265.58984l-6.96875.92187m5.95313-.78516l.71484.9961m13.64063-.8164l-7.01953.29296m6-.25l.6211 1.0586m13.1953-2.80079l-5.98047 3.6875m15.19532-5.17578l2.21875 6.66797m10.76172-6.53906l2.88671 6.40625m-2.46484-5.47266l.75-.97265m12.5664-.1172l2.04298 6.72266m-2.04297-6.72265l1.73828-1.73438m9.10547 4.69922l6.98437.78906m-6.98437-.78906l-.90235-2.28125m19.34375-.4336l-3.26953 6.21876m2.79297-5.3125l1.22656-.00782m10.33203-1.25l1.19922 6.92188m9.4922-2.0586l6.4453-2.80078m10.23047 4.91016l-.27734-7.02344m.23437 6l-1.05859.6211m15.71094.09765l-2.86719-6.41406m2.44922 5.48047l-.7539.96875m11.24218-.23047l3.6211-6.02344m-3.09376 5.14844l-1.22656-.0664"/><g clip-path="url(#U)"><path fill="none" stroke="#000" stroke-linecap="round" stroke-linejoin="round" stroke-miterlimit="10" stroke-width=".5" d="M147.46875 426.5l-6.9375 1.13672"/></g><path fill="none" stroke="#000" stroke-linecap="round" stroke-linejoin="round" stroke-miterlimit="10" stroke-width=".5" d="M147.46875 426.5l1.48438 1.95313m-2.4961-1.78907l.7461.97656m13.625-.5625l-7.02735-.01953m7.02734.01953l1.14844 2.16797m-2.17187-2.17187l.57422 1.08594m13.73437-.6211l-6.96484-.9414m6.96484.9414l.85156 2.30078m12.3711-1.84765l-6.78125-1.84766m5.79297 1.57813l.26953 1.19921m13.19531.5625l-5.10547-4.83203m4.36328 4.12891l-.32422 1.1836m15.01172-1.40626l-6.36328-2.98047m6.36328 2.98047l.125 2.44922m11.28125-7.21484l-2.54687 6.55078m17.26562-1l-5.35547-4.55078m18.22657 4.98828l-4.46875-5.42578m3.8203 4.63672l-.46874 1.13281m15.40625-1.6211l-6.41406-2.87109m5.48046 2.45313l.08204 1.22656m11.98047-2.24219l-.01954-.20312-.05859-.1914L278 426.5l-.45703-.375-.1914-.0586-.19923-.01953-.19922.01954-.1953.05859-.45704.375-.09375.17578-.0586.1914-.01952.20313.01953.19922.0586.1914.09374.17579.45703.375.19532.0586.19921.01952.19922-.01953.1914-.0586.45704-.375.09375-.17577.0586-.1914.01953-.19923m9.23437-1.73047l6.11719 3.45703m-5.22656-2.95312l.03125-1.22656m13.14843 5.10547l4.60938-5.3086m9.6875-.60156l2.64453 6.51172m-2.25781-5.5625l.78515-.9414m14.40235-.13673l-1.875 6.76953m1.60156-5.78515l1.19922-.26563m11.13672-.83203l.6289 6.9961m-.53515-5.98047l1.02734-.66797m9.01172 2.8125l6.9961.67578m-5.97657-.57813l-.46875-1.1328m14.03516-1.34376l4.45312 5.4336m-3.80469-4.64453l.47266-1.12891m13.15625-.22266l2.53125 6.5586m-2.53125-6.5586l1.60547-1.85156m13.47266 1.65234l-.9961 6.95703m.9961-6.95703l2.30859-.83203m9.42969.96875l2.16015 6.6836m-1.84765-5.71094l.85547-.88281m16.16796 1.33203l-5.8828 3.83984M440.27733 426l-6.6914 2.13672m18.88281 1.65625l-4.4414-5.44531M451.8203 429l-.47265 1.1289m10.54687.03126l3.33594-6.1836m-2.85156 5.28516l-1.22657-.00781"/><g clip-path="url(#V)"><path fill="none" stroke="#000" stroke-linecap="round" stroke-linejoin="round" stroke-miterlimit="10" stroke-width=".5" d="M147.21484 412.33203l-6.42968 2.84375"/></g><path fill="none" stroke="#000" stroke-linecap="round" stroke-linejoin="round" stroke-miterlimit="10" stroke-width=".5" d="M147.21484 412.33203l1.9297 1.51563m11.48827-1.25391l-6.63672 2.3164m6.63672-2.3164l1.80078 1.66797m11.6172-1.3086l-6.83985 1.60157m6.83984-1.60156l1.61719 1.84765m11.78906-1.02344l-7.02344-.04687m7.02344.04687l1.13672 2.17579m12.17969-2.22657l-7.02735.05469m7.02735-.05469l1.16797 2.16016m9.91797 1.13672l-2.56641-6.53907m17.35156 5.45313l-5.50781-4.36719m19.51953 2.84375l-6.90234-1.32031m5.89843 1.1289l.36328 1.17188m13.9336-2.41016l-6.85547 1.53907m5.85547-1.3164l.80078.92968m13.26953-1.8711l-6.36719 2.97657m5.44141-2.54297l.98047.73437m12.6914-2.02734l-5.23046 4.69531m4.46875-4.01172l1.15234.42188m12.22656-1.70313l-3.83594 5.88672m3.28125-5.02734l1.21875.10937m11.21875-1.5039l-.97265 6.96093m.83203-5.94921l1.15234-.41797m11.76172-.625l.11328 7.02343m-.09765-6.0039l1.07422-.59375m11.03906-.19922l2.48828 6.57031m-2.1289-5.61719l.8125-.92187m11.8828.07812l3.00782 6.35157m-2.57031-5.42578l.73046-.98438m14.78907-.08984l-2.27735 6.64843m1.94532-5.67968l1.21484-.19532m10.66016-.90625l1.26562 6.91407m-1.08203-5.90625l.96484-.76172m11.59375-.08985l2.41407 6.60157m-2.0625-5.64063l.8164-.91406m11.73438.13281l3.23828 6.23828m-3.23828-6.23828l1.39453-2.01953m12.52734 1.77734l2.02735 6.72657m-2.02735-6.72657l1.74219-1.73046m11.57031 1.73046l2.02735 6.72657m-1.73047-5.75l.8711-.86328m13.39062-.25782l-.45704 7.01172m.39063-5.98828l1.11719-.50781m12.99219 6.3711l-1.91407-6.76173m1.63672 5.78125l-.88672.84766m10.7539-1.08594l5.53907-4.32031"/><g clip-path="url(#W)"><path fill="none" stroke="#000" stroke-linecap="round" stroke-linejoin="round" stroke-miterlimit="10" stroke-width=".5" d="M146.9414 398.51953l-5.8828 3.83985"/></g><path fill="none" stroke="#000" stroke-linecap="round" stroke-linejoin="round" stroke-miterlimit="10" stroke-width=".5" d="M146.9414 398.51953l2.14844 1.1836m-3.0039-.625l1.07422.58984m12.85937-1.47266l-5.41016 4.48438m5.41016-4.48438l2.26953.9336m-3.05469-.28125l1.13282.46875m11.90234-1.98438l-3.28125 6.21485m3.28125-6.21485l2.45313-.00781m9.21093-.39844l.02344 7.02735m-.01953-6.00782l1.08203-.57812m13.95313 6.13672l-3.42578-6.13282m2.92968 5.2422l-.66406 1.03124m14.83594-.36719l-4.14453-5.67578m18.89453 2.61719l-7.01563.4375m5.99219-.3711l.64453 1.04298m13.64453-1.51563l-6.91797 1.25m6.91797-1.25l1.51953 1.92969m11.39453-3.03516l-6.11328 3.46485m5.22266-2.96094l1.03516.65625m12.8125-1.67578l-5.40235 4.49218m4.61719-3.83984l1.13672.46484m12.97266-1.10546l-5.41797 4.47265m5.41797-4.47265l2.26953.93359m10.45703-1.5l-4.24219 5.60156m4.24219-5.60156l2.42187.39062m10.07422-.85156l-2.60156 6.52735m2.60156-6.52735l2.4375-.26953m9.76953.02344l-.38672 7.01562m.33204-5.9961l1.11328-.51171m12.73047-.44922l-1.33594 6.89844m1.14062-5.89453l1.17578-.35938m12.82813-.51172l-2.32031 6.63282m1.98047-5.66797l1.21484-.1836m10.70703-.92968l1.14453 6.93359m-.97656-5.92578l.97266-.7461m12.55078-.30468l.39062 7.01562m-.33203-5.9961l1.05078-.6328m13.76953-.11329l-2.73828 6.47266m2.73828-6.47265l2.44532-.21875m8.44921.10156l2.10547 6.70703m-1.79687-5.73047l.85937-.875m11.42188.21875l3.55469 6.0625m-3.03907-5.17969l.64453-1.04297m12.70313-.09765l2.46094 6.58203m-2.10547-5.625l.8125-.91797m11.4375.32031l3.8789 5.85938m-3.3125-5.00781l.58594-1.07813m14.2539 6.66797l-.30468-7.01953m.26172 5.9961l-1.0586.625m14.51563.39062l-.5-7.00782m.42578 5.98829l-1.03906.65234"/><g clip-path="url(#X)"><path fill="none" stroke="#000" stroke-linecap="round" stroke-linejoin="round" stroke-miterlimit="10" stroke-width=".5" d="M146.91016 385.15625l-5.82032 3.9336"/></g><path fill="none" stroke="#000" stroke-linecap="round" stroke-linejoin="round" stroke-miterlimit="10" stroke-width=".5" d="M146.91016 385.15625l2.16797 1.14844m-3.01563-.57813l1.08594.57813m12.59765-1.71875l-4.86328 5.07422m4.86328-5.07422l2.36328.66797m-3.0703.0703l2.35937.66798m11.67578-1.39453l-4.88672 5.05078m4.88672-5.05078l2.35547.67968m-3.0664.0547l2.35546.67968m11.8086-1.26953l-5.16407 4.76172m5.16406-4.76172l2.31641.8125m9.28125 4.97265l-1.73047-6.80859m1.47656 5.82031l-.90625.82422m16.72266-1.60547l-6.22266-3.26562m5.31641 2.78906l.00781 1.22656m14.33203-1l-6.46093-2.76953m6.46093 2.76953l.20313 2.44531m13.39062-3.99218l-7.01953.32422m6-.27735l.625 1.05469m13.4375-2.30078l-6.47656 2.72265m5.53516-2.32812l.95312.77734m13.35938-1.03515l-6.58594 2.44922m6.58594-2.44922l1.83593 1.6289M280.1211 385.25l-5.9414 3.7461m5.9414-3.7461l2.13282 1.21484m10.625-1.89453l-4.82422 5.10547m4.82422-5.10547l2.36718.64844m-3.0703.09375l1.18359.32422m12.59765-1.26953l-4.35156 5.51562m4.35156-5.51562l2.41406.4375m9.96485-.96875l-2.48047 6.57422m2.48047-6.57422l2.4336-.3164m11.375.54687l-3.46876 6.11328m2.96485-5.22266l1.22656.03125m13.5586-.11328l-5.39845 4.4961m4.61329-3.83985l1.13671.46094m13.1797-.82813l-5.83204 3.91797m4.98438-3.34765l1.08203.57812m11.47656-2.44922l-2.6211 6.51953m2.23829-5.57031l1.21875-.13281m11.16797-1.07031v7.02734m0-7.02735l2.16406-1.15234m10.88281 1.16406l.53516 7.00391m-.53516-7.0039l2.07422-1.3125m10.8164 1.37109l1.38282 6.88672m-1.1836-5.88672l.94922-.77735m11.47657-.01171l2.76171 6.46484m-2.35937-5.52344l.76953-.95312m10.92188.8828l5.20703 4.72267m-4.44922-4.03516l.30078-1.1875m14.63672 6.36719l.44531-7.01172m-.3789 5.99219l-1.1172.5078m16.84376-.30077l-4.51172-5.38672m3.85547 4.60156l-.46094 1.14063"/><g clip-path="url(#Y)"><path fill="none" stroke="#000" stroke-linecap="round" stroke-linejoin="round" stroke-miterlimit="10" stroke-width=".5" d="M146.7539 371.6289l-5.5078 4.35938"/></g><path fill="none" stroke="#000" stroke-linecap="round" stroke-linejoin="round" stroke-miterlimit="10" stroke-width=".5" d="M146.7539 371.6289l2.25.98438m10.69923-1.3789l-4.77735 5.14843m4.77734-5.14844l2.375.62891m-3.0703.11719l1.1875.3164m12.73046-1.14843l-4.58984 5.32031m4.58984-5.32031l2.39063.53906m-3.0586.23438l1.19531.26953m12.64844-1.15625l-4.3125 5.54687m3.6836-4.74219l1.21093.21094m12.21485 4.86719l-3.27344-6.21875m2.79688 5.3125l-.69141 1.01562m16.26172-2.40234l-6.83594-1.63281M213 374.38672l.3086 1.1875m14.09374-1.83985l-7.02343.14844m7.02343-.14844l1.19922 2.14063m12.08985-2.5l-6.97266.86328m6.97266-.86328l1.41015 2.01172m11.92578-1.80078l-7.01172.44531m7.01172-.44531l1.28516 2.08984m11.98047-2.48828l-6.91406 1.24219m6.91406-1.24219l1.51562 1.92969m11.78125-2.03516l-6.875 1.45313m6.875-1.45313l1.57422 1.88281m10.8711-3.55078l-5.14063 4.78906m5.14063-4.78906l2.3203.79688m10.45313-1.27344l-4.05468 5.74219m4.05468-5.74219l2.4336.3086m11.57812.34374l-5.44922 4.4336m5.44922-4.4336l2.26172.95704m11.70313.27734l-6.7461 1.96875m5.76172-1.6836l.85938.87891m12.55078-2.66406l-4.96875 4.96875m4.2461-4.2461l1.17187.35938m10.66015-2.10156l-.5586 7.00781m.5586-7.00781l2.25-.97656m11.40235 1.01953l-1.23438 6.91796m1.23438-6.91796l2.33593-.75391m11.10157.78125l-1.48047 6.86719m1.48047-6.86719l2.36328-.67188m10.76953.63672l-1.11328 6.9375m1.11328-6.9375l2.32031-.79296m10.74219.76171l-.60938 7m.60938-7l2.25781-.96093m11.33203.99609l-1.15625 6.92969m.98828-5.92188l1.16016-.39062m10.85156-.55078l1.78516 6.79687m-1.52344-5.8086l.89844-.83202m14.19922 6.5625l-2.30469-6.64063m1.96875 5.67188l-.83594.90234m15.63672-.59766l-4.60156-5.3125m4.60156 5.3125l-.88672 2.28907"/><g clip-path="url(#Z)"><path fill="none" stroke="#000" stroke-linecap="round" stroke-linejoin="round" stroke-miterlimit="10" stroke-width=".5" d="M146.89063 358.4961l-5.78125 3.99218"/></g><path fill="none" stroke="#000" stroke-linecap="round" stroke-linejoin="round" stroke-miterlimit="10" stroke-width=".5" d="M146.05078 359.07813l1.08984.5664m12.625-1.67187l-4.89843 5.03906m4.89844-5.03906l2.35546.6875m11.03907-.60547l-5.0586 4.8789m5.0586-4.8789l2.33203.75781m11.33203-.33594l-5.75781 4.03125m5.7578-4.03125l2.1836 1.11719m11.6211 1.89453l-6.73828-1.99219m6.73828 1.9922l.49218 2.40624m12.33594-1.39062l-5.76562-4.01954m5.76562 4.01954l-.29297 2.43359m14.23047-4.17188l-7.00781-.54296m7.00781.54296l.98047 2.2461m12.34375-2.57422l-7.02734.10938m7.02734-.10938l1.1836 2.14844m12.09374-2.60547l-6.95312 1.02734m6.95312-1.02734l1.45703 1.97265m11.28125-3.4453l-5.79687 3.96874m5.79688-3.96875l2.17578 1.13672m10.6289-1.72656l-4.77734 5.15234m4.77734-5.15234l2.3711.6289m-3.06641.1211l1.1875.3125m12.53516-1.30469l-4.20313 5.63281m4.20313-5.6328l2.42578.37108m-3.03516.44922l1.21094.1875m12.97266-.79296l-4.71875 5.20703m4.71875-5.20704l2.3789.59766m-3.0664.16016l1.1914.29687m12.5625-1.26172l-4.22265 5.6172m4.22265-5.6172l2.42188.38282m10.49609-.64063l-3.42578 6.13672m2.92578-5.2461l1.22656.02735m11.85938-1.22266l-1.96875 6.7461m1.6836-5.76563l1.19921-.25m13-.4961l-3.16797 6.27345m3.16797-6.27344l2.45313-.05078m11.0039.1289l-3.44922 6.1211m3.44922-6.1211l2.45313.0586m11.01562.03125l-3.75781 5.9375m3.75781-5.9375l2.44531.1875m10.96875-.1211l-3.95703 5.8086m3.95703-5.8086l2.4375.26563m11.35157.1211l-4.90235 5.03515m4.90235-5.03516l2.35547.6875m11.1875-.4414l-5.36329 4.53906m5.36329-4.53906l2.28125.91015m-3.0586-.25l1.13672.45703m12.95313-1.12109l-5.35547 4.54688m5.35547-4.54688l2.28125.90625m11.85937 1.63281l-7.00781-.52734m7.00781.52734l.98828 2.2461m11.70703-.50391l-5.76953-4.01172m4.92969 3.42578l-.14453 1.21875"/><g clip-path="url(#aa)"><path fill="none" stroke="#000" stroke-linecap="round" stroke-linejoin="round" stroke-miterlimit="10" stroke-width=".5" d="M147.41797 346.36328l-6.83594 1.6289"/></g><path fill="none" stroke="#000" stroke-linecap="round" stroke-linejoin="round" stroke-miterlimit="10" stroke-width=".5" d="M146.42188 346.60156l.8125.91797m12.72656-2.65234l-5.29297 4.6211m4.52344-3.94923l1.14453.4375m12.72656-1.33594l-4.86328 5.07422m4.86328-5.07421l2.35938.66796m11.67578.32032l-6.3086 3.09765m5.39453-2.64453l.9922.71875m13.51562 1.14063l-6.85938-1.52735m6.85938 1.52735l.65234 2.36328m12.03516-1.01172l-5.60938-4.23047m5.60938 4.23047l-.38282 2.42578m14.39844-4.26563l-7.00781-.55078m7.00781.55079l.97656 2.25M226.375 347.375l.48828 1.125m13.84766-1.54688l-7.01172.44922m7.01172-.44921L242 349.04296m-2.3086-2.02344l.64454 1.04297m13.46875-2.1289l-6.57031 2.48827m6.5703-2.48828l1.84766 1.6172m-2.80078-1.25392l.92188.8086m12.6914-2.25781l-5.2578 4.66015m5.2578-4.66015l2.30078.85937m-3.0664-.17969l1.15234.4297m12.09375-1.80079l-3.58594 6.04297m3.58594-6.04297l2.44922.11328m-2.97266.76563l1.22657.05859m12.88281-.75781l-4.1289 5.6836m4.1289-5.6836l2.42969.33984m11.39453.11328l-5.15235 4.77735m5.15235-4.77735l2.32031.80469m-3.07031-.10938l1.16015.40235m12.98047-1.01563l-5.30078 4.61329m5.30078-4.61329l2.28907.875m-3.0625-.20312l1.14843.4375m12.79297-1.26953l-5.0039 4.9336m5.0039-4.9336l2.33985.73437m10.91406-.79297l-4.88281 5.0547m4.8828-5.0547l2.35938.67579m11.33594-.2422l-5.64453 4.1875m5.64453-4.1875l2.21484 1.05079m10.88672-1.3125l-5.21484 4.70703m5.21484-4.70703l2.3047.83594m11.04687-.79297l-5.29297 4.6211m5.29297-4.6211l2.29296.8711m11.1836-.67579l-5.61328 4.23047m5.61328-4.23047l2.22265 1.03516m11.52344-.28907l-6.47265 2.73829m6.47265-2.73829l1.90235 1.54688m11.47656-1.375l-6.60547 2.39453m6.60547-2.39453l1.82422 1.64453m-2.78516-1.29688l1.82422 1.64454m12.38672-2.16016l-6.47266 2.73047m6.47266-2.73047l1.90234 1.54688m-2.84375-1.14844l1.90235 1.54687m-2.84375-1.15234l.95312.77734m14.29688-1.4375l-6.57813 2.46485m6.57813-2.46485l1.83984 1.625m-2.79688-1.26562l1.83985 1.6211m-2.79688-1.26173l.92188.8086m14.23828-1.69922l-6.4414 2.8086"/><g clip-path="url(#ab)"><path fill="none" stroke="#000" stroke-linecap="round" stroke-linejoin="round" stroke-miterlimit="10" stroke-width=".5" d="M466.78125 345.77344l1.92188 1.52734"/></g><g clip-path="url(#ac)"><path fill="none" stroke="#000" stroke-linecap="round" stroke-linejoin="round" stroke-miterlimit="10" stroke-width=".5" d="M465.84375 346.1836l1.92188 1.52343"/></g><g clip-path="url(#ad)"><path fill="none" stroke="#000" stroke-linecap="round" stroke-linejoin="round" stroke-miterlimit="10" stroke-width=".5" d="M147.35547 334.91016l-6.71094-2.09375"/></g><path fill="none" stroke="#000" stroke-linecap="round" stroke-linejoin="round" stroke-miterlimit="10" stroke-width=".5" d="M146.3789 334.60547l.22657 1.20312m14.22266-2.03906l-7.02344.1836m6-.15625l.60547 1.0703m13.6875-1.57812l-6.9336 1.14844m6.9336-1.14844l1.48828 1.94922m11.86719-1.5625l-7.01563.375m7.01563-.375l1.26562 2.10547m11.50781-.03516l-5.9336-3.76562m5.9336 3.76562l-.1875 2.44532m13.29688-2.15235l-5.51953-4.35156m5.51953 4.35156l-.4375 2.41406m-.36719-3.04687l-.21875 1.20703m14.77734-1.29687l-6.39843-2.90625m6.39843 2.90625l.15235 2.44921m-1.08203-2.87109l.15234 2.44531m14.39844-3.25l-7.01172-.45312m7.01172.45312l1.01172 2.23438m-2.03125-2.30078l.5039 1.11719m13.50781-2.76954l-6.36328 2.98438m6.36328-2.98438l1.96094 1.47266m-2.88672-1.03906l.98047.73828m12.39063-2.32422l-4.625 5.28906m4.625-5.28906l2.39062.5586m-3.0625.21093l1.19531.28125m12.33985-1.38672l-3.72266 5.96094m3.72266-5.96094l2.44922.17188m-2.98828.69531l1.22265.08594m12.60156-.97266l-3.66406 5.9961m3.66406-5.9961l2.44922.14844m12.0586 1.0664l-6.05078 3.57032m6.05078-3.57031l2.09375 1.27734m11.35937-1.01953l-6.32422 3.05469m6.32422-3.0547l1.98047 1.44923m-2.89844-1.00782l.98828.72657m13.33594-.96485l-6.50781 2.64844m6.50781-2.64844l1.88672 1.57422m-2.83203-1.1875l.9414.78516m12.82422-2.02735l-5.51562 4.35938m5.51562-4.35938l2.2461.98829m10.1211-1.82032l-3.6211 6.02344m3.6211-6.02344l2.45312.13281m11.41797.28125l-4.73047 5.19532m4.73047-5.19531l2.375.60546m10.96093-.58593l-4.77734 5.15625m4.77734-5.15625l2.375.6289m11.7461.48047l-6.38672 2.9375m5.45703-2.50781l.97656.74219m13.58594.20312l-7.02344.1836m7.02344-.1836l1.21094 2.13672m12.10547-2.1875l-7.02344.28906m7.02344-.28906l1.23828 2.11719m-2.26172-2.07422l1.24219 2.11719m12.9453-3.03907l-6.72265 2.04688m6.72266-2.04688l1.73437 1.73438m-2.71093-1.4375l1.73046 1.73828m-2.71093-1.4414l.86718.87109m14.21094-1.96094l-6.33594 3.03906m6.33594-3.03906l1.97656 1.45703m-2.89843-1.01562l1.97656 1.45703m-2.89844-1.01563l.98828.73047m13.9961-1.9336l-5.98438 3.6797"/><g clip-path="url(#ae)"><path fill="none" stroke="#000" stroke-linecap="round" stroke-linejoin="round" stroke-miterlimit="10" stroke-width=".5" d="M466.55469 332.02344l2.11719 1.23828"/></g><g clip-path="url(#af)"><path fill="none" stroke="#000" stroke-linecap="round" stroke-linejoin="round" stroke-miterlimit="10" stroke-width=".5" d="M465.6836 332.5586l2.11718 1.23827"/></g><path fill="none" stroke="#000" stroke-linecap="round" stroke-linejoin="round" stroke-miterlimit="10" stroke-width=".5" d="M464.8125 333.09375l1.0586.6211"/><g clip-path="url(#ag)"><path fill="none" stroke="#000" stroke-linecap="round" stroke-linejoin="round" stroke-miterlimit="10" stroke-width=".5" d="M147.51172 320.58594l-7.02344-.07813"/></g><path fill="none" stroke="#000" stroke-linecap="round" stroke-linejoin="round" stroke-miterlimit="10" stroke-width=".5" d="M147.51172 320.58594l1.1289 2.17969m12.17579-2.53125l-7 .6289m7-.6289l1.33984 2.05468m11.97266-2.05469l-7 .62891m7-.6289l1.34375 2.05468m11.95312-1.25l-6.96094-.98047m6.96094.98047l.83594 2.30469m12.1211-1.1836l-6.2461-3.22265m6.2461 3.22266l.02734 2.45312m-.9375-2.92187l.01562 1.22656m14.04688-.48047l-5.92188-3.78125m5.92188 3.78125l-.19532 2.44531m-.66406-2.9961l-.19531 2.44923m14.77734-2.78125l-6.73437-2.01563m6.73437 2.01563l.48047 2.40625m-1.46094-2.69922l.48047 2.40625m13.9375-3.53516l-6.98047.82813m6.98047-.82813l1.39844 2.01563m-2.41406-1.89453l1.39844 2.01562m12.52734-3.39844l-6.17188 3.35547m6.17188-3.35547l2.04687 1.35157m-2.9414-.86329l2.04687 1.35157m11.51172-2.69531l-4.8711 5.0664m4.8711-5.0664l2.36328.67187m-3.07031.0664l1.17969.33594m12.23437-1.54296l-3.65234 6.0039m3.65234-6.0039l2.44922.14062m-2.98047.73047l1.22266.07031m12.33594-1.09765l-3.07813 6.3164m3.07813-6.3164l2.45312-.08594m12.79688 3.78125l-6.94532-1.07422m5.9336.91797l.40234 1.15625m13.88672-2.26953l-6.8711 1.46093m6.8711-1.46093l1.57813 1.8828m-2.57813-1.66796l.78906.9375m13.38672-1.63281l-6.59375 2.42578m6.59375-2.42578l1.83203 1.63281M332.75 319.6875l1.82813 1.63672m12.10156-2.67969l-5.90625 3.8086m5.90625-3.8086l2.14062 1.19531m-3-.64062l2.14063 1.19531m11.72656-2.15625l-5.29297 4.6211m5.29297-4.6211l2.29297.875m-3.0625-.20312l2.29297.875m11.92187-1.39063l-5.55078 4.3086m5.55078-4.3086l2.23828 1.0039m-3.04687-.3789l1.11719.5039m12.2578-1.84765l-4.05468 5.74219m4.05469-5.74219l2.4336.3086m11.52734.28515l-5.34766 4.5586m4.57031-3.89844l1.14063.45312m13.76953.78516l-6.98438.76172m5.96875-.65235l.69141 1.01563m13.48828-1.83594l-6.67969 2.17969m6.6797-2.17969l1.76562 1.70313m11.71875-.45313l-7.01953-.32031m7.01953.32031l1.05078 2.21875m-2.07031-2.26562l.52343 1.10937m13.58203-2.47656l-6.5625 2.51172m6.5625-2.51172l1.85157 1.60937m-2.8047-1.24609l1.84767 1.61328m-2.8047-1.2461l.92579.8047m13.625-2.63672l-5.21094 4.71093"/><g clip-path="url(#ah)"><path fill="none" stroke="#000" stroke-linecap="round" stroke-linejoin="round" stroke-miterlimit="10" stroke-width=".5" d="M466.16797 318.1914l2.3086.83594"/></g><path fill="none" stroke="#000" stroke-linecap="round" stroke-linejoin="round" stroke-miterlimit="10" stroke-width=".5" d="M465.41016 318.8789l2.30859.83204m-3.0664-.14844l1.15234.41797"/><path fill="#00f" fill-rule="evenodd" d="M383.80078 432.14063h8.61719v-10.14454h-8.61719v10.14454"/><path fill="azure" fill-rule="evenodd" d="M385.63281 423.82813h.83203v2.82421h3.28907v-2.82421h.83203v6.48046h-.83203v-2.91796h-3.28907v2.91796h-.83203v-6.48046"/><path fill="#00f" fill-rule="evenodd" d="M370.48438 401.07422h8.62109v-10.14844h-8.6211v10.14844"/><path fill="azure" fill-rule="evenodd" d="M372.3164 392.76172h.83594v2.82031h3.28516v-2.82031h.83203v6.47656h-.83203v-2.91406h-3.28516v2.91406h-.83593v-6.47656"/><path fill="#ff3030" fill-rule="evenodd" d="M442.1914 378.88281h7.69532v-10.14844h-7.69531v10.14844"/><path fill="azure" fill-rule="evenodd" d="M444.02734 370.5664h.83204v5.7422h3.1953v.73827h-4.02734v-6.48046"/><path fill="#ff3030" fill-rule="evenodd" d="M189.20703 356.6875h7.6914v-10.14453h-7.6914v10.14453"/><path fill="azure" fill-rule="evenodd" d="M191.03906 348.375h.83594v5.74219h3.1914v.73828h-4.02734V348.375"/><path fill="#ffffe0" fill-rule="evenodd" d="M386.1289 411.51172h22.1797v-10.1914h-22.1797v10.1914"/><path fill-rule="evenodd" d="M389.625 403.15234h.51172v6.29688h-.78906v-4.48828h-1.38672v-.5586l.5586-.0625.2539-.05468.23047-.08985.20312-.14062.17188-.21094.14062-.29297.10547-.39844m4.8164 0l.22657.01954.22265.05859.20704.08594.1953.12109.1836.15234.17188.17579.30078.41796.2461.4922.17968.54687.10938.58203.03906.58984-.03906.59375-.10938.58203-.17969.55469-.2461.5039-.30077.42579-.17188.17969-.1836.15234-.1953.125-.20704.09375-.22265.05469-.22656.01953-.23047-.01953-.21875-.0547-.20703-.09374-.19922-.125-.1836-.15235-.17187-.17968-.30078-.42578-.24219-.50391-.17969-.55469-.11328-.58203-.03515-.59375h.83203l.02734.5625.08203.5039.125.44532.16406.375.19141.30078.21094.21875.22265.13672.22657.04688.22656-.04688.22265-.13672.21094-.21875.1914-.30078.16017-.375.125-.44531.08203-.5039.03125-.5625-.03125-.5625-.08204-.5-.125-.4336-.16015-.36719-.1914-.29297-.21094-.21484-.22266-.1289-.22656-.04688-.22657.04687-.22265.1289-.21094.21485-.1914.29297-.16407.36719-.125.4336-.08203.5-.02734.5625h-.83204l.03516-.58985.11328-.58203.17969-.54688.24219-.49219.30078-.41796.17187-.17579.1836-.15234.19922-.1211.20703-.08593.21875-.0586.23047-.01953m4.95312 0l.22656.01954.21875.05859.21094.08594.19531.12109.1836.15234.17187.17579.30078.41796.2461.4922.17969.54687.10937.58203.03906.58984-.03906.59375-.10938.58203-.17968.55469-.2461.5039-.30078.42579-.17187.17969-.1836.15234-.1953.125-.21095.09375-.21875.05469-.22656.01953-.23047-.01953-.21875-.0547-.20703-.09374-.19922-.125-.1836-.15235-.17187-.17968-.30078-.42578-.24219-.50391-.17968-.55469-.11328-.58203-.03907-.59375h.83594l.02735.5625.08203.5039.125.44532.16406.375.1914.30078.21094.21875.22266.13672.22656.04688.22656-.04688.22266-.13672.21094-.21875.1875-.30078.16406-.375.125-.44531.08203-.5039.03125-.5625-.03125-.5625-.08203-.5-.125-.4336-.16406-.36719-.1875-.29297-.21094-.21484-.22266-.1289-.22656-.04688-.22656.04687-.22266.1289-.21094.21485-.1914.29297-.16406.36719-.125.4336-.08204.5-.02734.5625h-.83594l.03907-.58985.11328-.58203.17969-.54688.24218-.49219.30078-.41796.17188-.17579.1836-.15234.19921-.1211.20703-.08593.21875-.0586.23047-.01953m4.95313 0l.38671.03125.35547.08204.32422.13671.28125.1836.22656.23828.17579.28515.10937.33204.03516.3789-.01953.27344-.0586.23438-.08594.20312-.11328.16797-.1289.14453-.14063.1211-.28515.19921.23046.11719.21094.14844.17969.16797.15625.1953.1211.21485.08984.23047.0586.24219.01952.2539-.03515.3125-.10547.32422-.17188.32422-.23828.3086-.3086.26953-.37109.21484-.21484.07813-.22656.0625-.2461.03906-.2578.01172-.26173-.01172-.24219-.03906-.22265-.0625-.20703-.07813-.35547-.21484-.29297-.26953-.22266-.3086-.15625-.32422-.09375-.32421-.03125-.3125h.83594l.02735.2539.07812.23438.1211.21484.16015.1836.1914.15234.22266.11328.23828.07422.25782.02344.2539-.02344.23828-.07422.22266-.11328.1914-.15235.16016-.18359.1211-.21484.07812-.23438.02735-.2539-.02735-.25-.07812-.23829-.1211-.21093-.16015-.1836-.19141-.15234-.22266-.11328-.23828-.07422-.2539-.02344-.25782.02344-.23828.07422-.22265.11328-.19141.15234-.16016.1836-.12109.21093-.07813.23829-.02734.25h-.83594l.01954-.25.05859-.2422.08984-.22265.125-.21094.15235-.1875.17968-.17187.21094-.15625.23047-.1289-.28516-.19923-.14062-.12109-.1289-.14453-.11329-.16797-.08594-.20313-.05859-.23437-.01953-.27344h.78515l.02344.21485.0664.1914.10548.16406.13672.14063.16406.11328.1875.08203.20703.04688.22266.01953.21875-.01953.20703-.04688.1875-.08203.16406-.11328.14063-.14063.10156-.16406.0664-.1914.02344-.21485-.02344-.21484-.0664-.1914-.10156-.16407-.14063-.14063-.16406-.11328-.1875-.08203-.20703-.04687-.21875-.01953-.22266.01953-.20703.04687-.1875.08203-.16406.11329-.13672.14062-.10547.16406-.0664.1914-.02344.21485h-.78516l.03515-.3789.10938-.33204.17578-.28515.22656-.23828.28125-.1836.32422-.13671.35547-.08204.39063-.03125"/><path fill="#ffffe0" fill-rule="evenodd" d="M306.23828 340.89844h22.17969v-10.1914h-22.17969v10.1914"/><path fill-rule="evenodd" d="M309.73828 332.53906h.50781v6.29297h-.78906v-4.48828h-1.38672v-.55469l.5586-.0664.2539-.0547.23047-.08983.20313-.14063.17187-.21094.14063-.29297.10937-.39453m4.8125 0l.23047.01953.21875.0547.20703.08983.19531.1211.1836.14844.17187.17578.30078.41797.2461.49609.17969.54688.10937.57812.03906.58984-.03906.59375-.10938.58594-.17968.55078-.2461.5039-.30078.4297-.17187.17578-.1836.15625-.1953.1211-.20704.09374-.21875.05469-.23047.01953-.23047-.01953-.21875-.05469-.20703-.09375-.19531-.1211-.1875-.15624-.16797-.17578-.30469-.4297-.24219-.5039-.17968-.55078-.11328-.58594-.03516-.59375h.83203l.02735.5625.08203.50782.1289.4414.16016.375.1914.30078.21094.22266.22266.13672.22656.04687.22656-.04687.22266-.13672.21094-.22266.1914-.30078.16016-.375.125-.4414.08203-.50782.03125-.5625-.03125-.55859-.08203-.5039-.125-.4336-.16016-.36719-.1914-.29297-.21094-.21093-.22266-.13282-.22656-.04687-.22656.04687-.22266.13282-.21094.21093-.1914.29297-.16016.36719-.1289.4336-.08204.5039-.02734.5586h-.83203l.03516-.58985.11328-.57813.17969-.54687.24218-.4961.30469-.41796.16797-.17578.1875-.14844.19531-.1211.20703-.08984.21875-.05469.23047-.01953m5.08985 0h.51171v6.29297h-.78906v-4.48828h-1.38672v-.55469l.5586-.0664.2539-.0547.22656-.08983.20313-.14063.17578-.21094.14063-.29297.10546-.39453m2.82422 2.17578h.78516l.02344-.3164.0586-.28906.09765-.25.14062-.21485.17969-.17578.22266-.1289.26562-.07813.3086-.03125.23828.02344.22265.0625.20703.10156.1797.13672.14843.17578.11328.20312.07031.23829.02344.26562-.01953.26563-.0664.22656-.10938.1914-.15625.17188-.19922.16015-.25.16797-.63281.38672-.53907.3164-.4375.31642-.34375.32421-.26562.33594-.1914.35156-.125.3672-.06641.39452-.01954.41797h4.21094v-.73828h-3.33203l.08203-.28516.11328-.23828.14844-.19922.1875-.17968.23047-.17188.27734-.17578.71875-.41797.41407-.20312.34765-.23438.28125-.25.21875-.26562.16406-.27735.10938-.28515.0625-.28516.02344-.28125-.04297-.38281-.1211-.34766-.1875-.3086-.25-.26171-.30468-.21485-.34375-.15625-.38281-.10156-.40625-.03125-.4336.03125-.39844.09766-.35546.16797-.3047.23437-.24609.30469-.1875.375-.11718.44531-.03907.51953"/><path fill="#ffffe0" fill-rule="evenodd" d="M217.46875 333.53125h22.17969v-10.19531h-22.17969v10.19531"/><path fill-rule="evenodd" d="M220.96875 325.17188h.50781v6.29296h-.78515v-4.48828h-1.38672v-.55469l.5586-.0664.25-.05469.23046-.08984.20313-.14063.17578-.21094.14062-.29296.10547-.39454m4.8125 0l.23047.01954.21875.05468.20703.08985.19922.1211.1836.14843.17187.17578.30078.41797.24219.4961.17968.54687.11328.57812.03907.58985-.03906.59375-.11329.58593-.17968.55079-.2422.5039-.30077.42578-.17188.17969-.1836.15625-.19921.1211-.20703.09374-.21875.0547-.23047.01952-.22656-.01953-.21875-.05469-.21094-.09375-.19531-.12109-.1836-.15625-.17187-.17969-.30078-.42578-.24219-.5039-.17969-.55079-.11328-.58593-.03906-.59375h.83594l.02734.5625.08203.5078.125.44142.16406.375.19141.30078.20703.22265.22266.13672.22656.04688.22656-.04688.22266-.13672.21094-.22265.1914-.30079.16406-.375.125-.4414.08204-.50781.02734-.5625-.02734-.5625-.08203-.5-.125-.4336-.16407-.36719-.1914-.29296-.21094-.21094-.22266-.13281-.22656-.04688-.22656.04688-.22266.1328-.20703.21095-.1914.29296-.16407.3672-.125.43359-.08203.5-.02734.5625h-.83594l.03906-.58985.11328-.57812.17969-.54688.24219-.4961.30078-.41796.17187-.17578.1836-.14844.19531-.1211.21094-.08984.21875-.05468.22656-.01954m5.09375 0h.50781v6.29297h-.78515v-4.48828h-1.39063v-.55469l.5625-.0664.25-.05469.23047-.08984.20313-.14063.17578-.21094.14062-.29296.10547-.39454m2.82422 2.17579h.78516l.01953-.31641.05859-.28906.10156-.25.14063-.21485.17969-.17578.22265-.1289.26563-.08204.30859-.02734.23828.02344.22266.0625.20312.10156.17969.13672.14844.17578.11328.20313.07422.23828.02344.26172-.02344.26953-.0625.22656-.11328.1914-.15235.17188-.20312.16016-.2461.16797-.6328.38671-.53907.3125-.4375.32032-.34766.32422-.26172.33593-.1914.34766-.125.3711-.07031.39452-.01954.41797h4.21094v-.73828h-3.33203l.08594-.28515.11328-.23829.14844-.19921.1875-.1836.23047-.16797.27734-.17578.71875-.41797.41406-.20703.34375-.23047.28125-.25.21875-.26562.16406-.28125.11328-.28125.0625-.28516.01954-.28125-.03907-.38281-.12109-.34766-.1914-.30859-.25-.26172-.30079-.21484-.34765-.15625-.37891-.10156-.40625-.03125-.4336.03125-.39843.09765-.35547.16797-.30469.23438-.25.30468-.1836.375-.11718.44531-.03906.51954"/></g></defs><use xlink:href="#ai"/></svg>