<svg xmlns="http://www.w3.org/2000/svg" role="img" xmlns:xlink="http://www.w3.org/1999/xlink" viewBox="142.45 309.95 326.84 171.84"><defs><clipPath id="a"><path d="M144 311.67188h1v168.65625h-1zm0 0"/></clipPath><clipPath id="b"><path d="M144 311.67188h324v168.65625H144zm0 0"/></clipPath><clipPath id="c"><path d="M467 311.67188h1v168.65625h-1zm0 0"/></clipPath><clipPath id="d"><path d="M144 476h1v4.32813h-1zm0 0"/></clipPath><clipPath id="e"><path d="M154 477h6v3.32813h-6zm0 0"/></clipPath><clipPath id="f"><path d="M168 477h6v3.32813h-6zm0 0"/></clipPath><clipPath id="g"><path d="M181 477h6v3.32813h-6zm0 0"/></clipPath><clipPath id="h"><path d="M193 479h8v1.32813h-8zm0 0"/></clipPath><clipPath id="i"><path d="M209 476h3v4.32813h-3zm0 0"/></clipPath><clipPath id="j"><path d="M221 477h5v3.32813h-5zm0 0"/></clipPath><clipPath id="k"><path d="M233 478h8v2.32813h-8zm0 0"/></clipPath><clipPath id="l"><path d="M246 479h9v1.32813h-9zm0 0"/></clipPath><clipPath id="m"><path d="M252 480h2v.32813h-2zm0 0"/></clipPath><clipPath id="n"><path d="M260 479h8v1.32813h-8zm0 0"/></clipPath><clipPath id="o"><path d="M266 479h2v1.32813h-2zm0 0"/></clipPath><clipPath id="p"><path d="M273 478h8v2.32813h-8zm0 0"/></clipPath><clipPath id="q"><path d="M279 479h2v1.32813h-2zm0 0"/></clipPath><clipPath id="r"><path d="M286 479h9v1.32813h-9zm0 0"/></clipPath><clipPath id="s"><path d="M293 479h3v1.32813h-3zm0 0"/></clipPath><clipPath id="t"><path d="M300 479h8v1.32813h-8zm0 0"/></clipPath><clipPath id="u"><path d="M307 479h2v1.32813h-2zm0 0"/></clipPath><clipPath id="v"><path d="M313 479h8v1.32813h-8zm0 0"/></clipPath><clipPath id="w"><path d="M320 480h2v.32813h-2zm0 0"/></clipPath><clipPath id="x"><path d="M326 479h9v1.32813h-9zm0 0"/></clipPath><clipPath id="y"><path d="M333 479h3v1.32813h-3zm0 0"/></clipPath><clipPath id="z"><path d="M341 477h6v3.32813h-6zm0 0"/></clipPath><clipPath id="A"><path d="M355 476h4v4.32813h-4zm0 0"/></clipPath><clipPath id="B"><path d="M367 478h7v2.32813h-7zm0 0"/></clipPath><clipPath id="C"><path d="M380 478h8v2.32813h-8zm0 0"/></clipPath><clipPath id="D"><path d="M386 478h4v2.32813h-4zm0 0"/></clipPath><clipPath id="E"><path d="M394 477h6v3.32813h-6zm0 0"/></clipPath><clipPath id="F"><path d="M408 476h5v4.32813h-5zm0 0"/></clipPath><clipPath id="G"><path d="M420 478h7v2.32813h-7zm0 0"/></clipPath><clipPath id="H"><path d="M433 478h8v2.32813h-8zm0 0"/></clipPath><clipPath id="I"><path d="M447 477h6v3.32813h-6zm0 0"/></clipPath><clipPath id="J"><path d="M461 477h6v3.32813h-6zm0 0"/></clipPath><clipPath id="K"><path d="M144 465h4v4h-4zm0 0"/></clipPath><clipPath id="L"><path d="M144 451h4v5h-4zm0 0"/></clipPath><clipPath id="M"><path d="M144 438h4v5h-4zm0 0"/></clipPath><clipPath id="N"><path d="M144 425h4v4h-4zm0 0"/></clipPath><clipPath id="O"><path d="M144 412h4v4h-4zm0 0"/></clipPath><clipPath id="P"><path d="M144 398h4v5h-4zm0 0"/></clipPath><clipPath id="Q"><path d="M144 384h3v6h-3zm0 0"/></clipPath><clipPath id="R"><path d="M144 370h3v8h-3zm0 0"/></clipPath><clipPath id="S"><path d="M144 356h1v9h-1zm0 0"/></clipPath><clipPath id="T"><path d="M144 357h1v2h-1zm0 0"/></clipPath><clipPath id="U"><path d="M144 345h4v4h-4zm0 0"/></clipPath><clipPath id="V"><path d="M466 346h2v4h-2zm0 0"/></clipPath><clipPath id="W"><path d="M144 332h4v3h-4zm0 0"/></clipPath><clipPath id="X"><path d="M466 332h2v3h-2zm0 0"/></clipPath><clipPath id="Y"><path d="M144 318h4v5h-4zm0 0"/></clipPath><clipPath id="Z"><path d="M466 318h2v3h-2zm0 0"/></clipPath><clipPath id="aa"><path d="M465 319h3v2h-3zm0 0"/></clipPath><g id="ab" clip-path="url(#clip1)"><path fill="#fff" fill-opacity="0" fill-rule="evenodd" d="M0 0h1000v1000H0zm0 0"/><path fill="#d3d3d3" fill-opacity="0" fill-rule="evenodd" d="M162.15234 355.86719l-.23437.29297.0586.23437.11718.17188.17578.23437.29297.34766.11328.0586.11719-.17188.0586-.23438.17577-.17578.46485-.17578h.69922l.23437.29297.28906.8164.0586.17579.17578.23046.35156.23438.69922.69922.17188.17578.23437.34765.23438.41016.28906.58203.41015.46485.23047.23437.23438.17578.11719.23047.17578.29297.17187 1.16406v.23438l.0586.28906.05859.11719.11719.11719.34765.41015.11719.17188.17578.17578.17578.23437.11719.17188.17188.35156.05859.23438.23437.40625.23438-.0586-.17578.17578-.0586.92969h-.58203l-.23437-.11328-.34766.11328-.11719.11719-.05859.29297-.0586.17578-.11718.17187-.46484.29297-.0586.23438-.0586.11328v.64453l.0586.17187v.41016l.0586.0586v.40624l.05859.40625.11719.17579.05859.05859.23047.64062-.0586.29297v.69922l-.05859.58203v.23438l-.0586.23047-.05468.35156v1.92187l.05469.1172h.42578l-.36719.11718-.02344.35156.89063 1.16797 1.74219.53906 1.33984.35938v.53906l.08984.8086.53516.71484 1.51953.26953.89063-.08594.08984 1.16406.53516.1797 1.16015-.1797 2.05469-.98437 1.16016-.36328 1.8789-.17578 1.69531-.1797-.17968.71876-1.51563.08594-1.25.08984-.80469.26953-1.07421.8086.26953.71875.53515.89843-.17968.625-.26563.8086.26563 1.07812.625.89844.80468.17969 1.25-.1797-.26562.72267.09766.5039.05468.29297v.17188l.0586.29296v.40625l.17578.1172.35156.11718h.40625l.29297-.17578.11328-.11719.0586-.11719.11718-.23047.0586-.17578.35156-.46484.23047-.17578.17578-.0586.17578.0586.0586.17578.11718.98828.05469.46875.0586.17188.11718.23437.17578.0586.8164.05859h.28907l.11719.23437.05859.40625.0586.35156v1.10547l.11718.29297.11719.34766.28906.69922.17578.35156.58203.7539.35157.17579.17187.0586.46875.23437.64063.46484.34765.23438.29297.17578.29297.05468.23047.0625.8164.34766.29297.17578.11328.17188.35157.35156.11719.17578.52343.64063v.28906l.0586.35156v.34766l.05859.35156.0586.28906.11718.0586.17188.05859h.17578l.58203.23437.17578.1172.17578.28905.17578.23438.11328.23437.29297.23047.11719.11719v.41016l.0586.05468.28906.23438.23437.11719.0586.11718.11718.17188.0586.11719.23047.23437.05859.17578.23437.0586.1172.05859-.1172.11328-.05859.11719v.11719l-.11719.29296-.11719.28907v.58203l.17579.11719.11718.05859.0586.11719.11719.11719.11328.05859.17578.34765.0586.35157.05858.40625v.17578l-.05859.17578-.11719.69922v.17187l.1172.17579.29296.29296h.40625l.17578.1172.11719.17187.11719.29296v.23438h-.52735l-.23047-.23438h-.23437l-.17578.0586-.0586.69922.0586.34765.11719.17579.17578.41015.11718.23047.28907.46875.17578.05469h.52344l.23437.0586.75781.64062.0586.29296v.23438l.05859.0586.23047.34765v.35156l-.11719.17188v.29297l.29297.28906.29297.17578.17187.0586.29297.17577.29297.1172.58203.40624.28906.23438.29297.17578.21875.16015.01563.01172.23047.17579.64062.52343.17578.23438.1172.17578.17577.17578.11328.17188v.64062l.1172.17578.46874.11719.58203.11719.23438.05859.23047.11328.29297.11719.11328.0586.58593.35156.28907.17187.17578.0625.17578.05469.17578.0586.69922.35155.28906.17579.23438.05468.28906.17578.23437.1172.64063.40624.29297.11719.17187.0586.23438.05859.41015.05859.23047.0586.23438.11718.0586.17188-.41017.17578.46875.0586.0586.29296.11328.23438.17578.05468.23438.0586.17578.05859.40625.11719.64062.23437.11719.17188.0586.23437v.17578l-.0586.1172-.0586.40624.23438.23438.11719.05859.34766.11719.64062.23047.17578.11718.28906.1172.17578.17577.23438.46485.58203 1.10546.17578.17579.34766.17578.17578.11719.35156.11718 1.04688.52344.23437.0586.46485.11327.29297.0586.46484.17578.75781.58203.23438.23438.34765.46484.17578.17578.28907.23438.8164.69921.29297.17579.28906.28906.29297.17578.29297.28906.69531.64063.17578.17578.29297.23437.28907.23438.46875.28906.64062.58203.34766.23438.23437.29297.34766.34765.35156.46485.9336.99218.34765.40625.11719.17579.23437.05859.11328.11719.64454.17578.23047.11328.23437.0586.29297.17577.23047.1172.9336.69921.40624.40625.23438.17578.40625.17578.23437.11719.8164.34766.34766.23437.23438.11719.29297.28906.23047.11719.7578.35156.35157.17188.23047.05859.29297.11719.23437.0586.8711.17577h.8164l.46875.23047.17188.0586.875.69921.46484.1172.29297.05858.17578.0586.23047.0586.46875.05859.34766.05859.35156.0586.40625.05859h.29297l.17187.0586v.23046l.17578.17578h.29297l.34766.0586.35156.05859.69922.11719h.64063l.46484-.23438.29297-.17578.17187-.11719.41016-.17187.28906-.17578.9336-.46485.46875-.29297.52343-.29296.46485-.17188.46484-.17578 1.05078-.46485.28906-.11718.41016-.11719.28906-.11719.52735-.17578 1.51562-.69922.58203-.34765.28907-.0586.29297-.0586.34765-.11718.875-.23047.35156-.11719h.11329l.23437-.05859.875-.23437.23438-.0586h.8125l.35156-.0586.8164-.11718.17188-.0586.35156-.05468.29297-.0586.23047-.05859.8164-.17578.17579-.0586h.34765l.23438-.05859.46484-.11718.75781-.17188.23438-.0586h.34765l.41016-.11718.28906-.0586 1.28516-.05859h.28906l.41016-.0586.23047-.05858h.17578l.875-.1172h.40625l.41015-.11718h.34766l.35156-.11328.8711-.0586h1.75l1.04687.28907.41016.11719.28906.11718.35156.11719.28907.11719 1.05078.17187.28906.0586h.29297l.29297.05859.17187.0586.41016.05859.17187.0586.1172.05858h.11718l.11719.0586.35156.0586h.11328l.41016.0664 1.92187.39453 1.92578.39453 1.51953.44922 1.69532.71875 2.14453.80469 1.60547-.71875 1.42968-.80469 1.16016-1.07813 1.25-.44921 3.03516-.71875 1.875-.35938 2.14453-1.34765 2.23437-1.25391 2.5-1.25781 1.69531-.44922 1.78516-.17969 1.16016-.26953.625.53906 1.33984-.26953.71485-.98828.98437-1.34375.44531-.17969.80469-.35937 1.875-.53907 1.78516-.44921 1.25-.26954 1.16015-.08984 1.69922-.08984 1.96094-.26954 1.25-.08984h.53906l.625-.08984h.89063l2.14453-.17969 2.41015-.17969 2.58985-.08984 1.69531.17969 1.60938.08984 1.42968.35938 1.16016.71875 1.875.98828 1.16015 1.52734.26563.71484.6289.08985.35548.89844.53515.53906.53516 1.52734 1.07422.35938h.53515l-.80469.53515.08985 1.70703.71484 2.69532.89063.80468.89453.98829.71484 1.2578 1.78516.53907 1.51953-.17969.35547 1.34375 1.60937-.80469.98047-.53906.26953.26953.31641-.21484.21875-.14453.80078.44922.44922-.35938h.35547l.53515-.26953.53907-.71875.53515-.26953.625-.98828 1.16016.44922.83984.3711 1.39454.61718 1.6953-.17969h1.60548l1.78515.08985.17969-1.70704.53516-1.34375.80468.26954.4922.84765.40233.40625-.08984.53906v.35938l.71485.44922.71093-.26953h1.42969l.35938.98828.4453 1.25781.71485 1.34375 1.25.6289 1.69531.62891.71485-.17969.17969-.53906.98046-.08984.44922.35937.08594 1.25782-.26563.6289-.53515.17969v.53906l.71484.98438.26563.53906.98437.98828.80078 1.07813-.26562.35937-.08985.89844-.625 2.33203-.35546 2.0664-.08985 1.79298-.17969.71875-.08984.53906v1.4375l-.98047 1.88281-.35937 1.70703-.53516.89844-.80469 1.16797-.26562.53906 2.05469 1.2539.08593.35938-.35546.53906-.08985-.17968v.80859l.08985 1.4375-.44532.71484-1.07422.09375-.26562.71485.53515.89844.8047.71875 1.16015.80859 1.33984.26953.44531.35938-.35546.44921-1.78907-.08984-1.25-.44922-.71484-.71875-.625-.08984-.17578 3.58984-.1875 1.3086h89.35937V311.70313h-55.26953v49.08203l.76172.125 3.28906.54296 2.02344 2.83594v2.7539l2.35156.33204 2.34766.33203h4.05078l-1.3789 4.16016-2.02344.70703-2.02344.70312-.54297.34375-2.59375 1.6172-.1875.11718-2.02344-2.07813-.73046-2.74218-2.67188-2.07813-1.375-3.5-.0664-.08203-1.95704-2.67188 2.75-1.41796v-49.08204H294.42187v91.41407l.1172.03125.1328.01172.07422.07421.10547.04688.08985.0586.08593.05859.08985.0586.29687.29687.0586.08984.03125.11719.02734.11719.01563.13671-.03125.1172-.0586.08983-.0586.08594-.04296.10547-.04688.10156-.02734.1211v.14453l.17578.26953.14844.14844.07422.08594.07422.07421.04296.10547.0625.08985.0586.08593.04297.10547.0586.08985.04687.10156.04296.10547.0586.08594.11719.17968.07421.07422.0625.08594.0586.08984.04297.10547.0586.08985.05858.08593.0625.08985.0586.08984.04297.10156.11719.17969.07421.07422.0586.08594.07422.07421.08984.0586.10547.04687h.14844l.1328-.01562.13282.01562.10156-.04687.07422-.07422.04688-.10156-.01563-.13281v-.14844l-.04687-.10547-.02735-.11719-.04687-.10156-.02735-.1211-.04296-.10156-.0625-.08984-.04297-.10156-.04297-.10547-.03125-.11719-.01563-.13281-.01171-.13672.08593-.0586.0586-.08593.12109-.03125.04297.10547.01562.1328v.1172l.0586.10156.0586.08984.08983.0586.14844.14843.0586.08985.04296.10547-.01171.10156.08593.0586.10547.04687.08594.0586.08984.05858.07422.07422-.11719.02735-.10546.04687-.08594.0586-.07422.07421-.0586.08985-.0625.08594-.02734.12109-.04687.10156-.04297.10547-.03125.11719-.01172.13281-.01563.13281v.14844l.02735.11719.04687.10547.04297.10156.0586.08984.07421.07422.08985.0586.07422.07421.08984.0586.0586.08984.04296.10547.04688.10156.11719.03125.1328.01563h.14845l.11718-.03125.10547.04297.04297.10547.04688.10156.02734.1211L299.5 410l.02734.11719.03125.1211.02735.11718.10547.04297.10156.04687.13281-.01562.14844.14844.0625.08593.07422.07422.07031.07422.08984.0625.10547.04297.10156.04297.1172.03125.13671.01562.11719-.03125.07422-.07422.02734-.11718-.01172-.13282-.03125-.12109-.02734-.11719.04297-.10547h.11719l.08984.0625.11719.02735h.14843l.13282.01562h.14843l.13282.01563.1328-.01563h.14845l.1328-.01562.13282-.01172.13672.01172.11719-.02735.13281-.01562.1914-.0586-.05859.17579-.01562.1328-.02735.1211-.01562.13281-.0586.08594-.1328.01563-.10548.04687-.10546.04297-.1172.03125-.11718.02735-.26563.03125h-.14843l-.13281.01562-.07422.07422.05859.08594.14844.14843.11719.1797.07421.0703.08985.0625.08984.0586.08594.0586.08984.05858.10156.04297.10547.0625.10547.04297.08594.0586.10547.04687.10156.04297.17969.11719.0586.08984-.04298.10156-.04687.10547.01562.13281.22266.22266.0586.08985.04296.10156.03125.1211.04297.10155.01563.13282.03125.11718.01171.13672.03125.11719.14844.14844.10156.04297.10547.04296.1172.03125.1328.01563.13672.01563h.11719l.11719-.03125.08984-.0586.04297-.10547.04688-.10156.04296-.10547.03125-.11719.01172-.1328v-.14845l-.01172-.1328-.01562-.13282-.03125-.11719-.04297-.10547-.04688-.10547-.04296-.10156-.04297-.10547-.01563-.13281.01563-.13281.02734-.11719.03125-.11719.02735-.1211.04687-.10155.08984-.0586.08594-.0625.07422-.07422.08984-.05859.22266-.22266.0586-.08593.07421-.07422.11719-.17969.0586-.08594v-.14844l-.07423-.07421-.10156-.04688-.10547-.04297-.10156-.04297-.0586-.08984-.04687-.10547-.02734-.11719.08984-.05859.11719-.03125.10156-.04297.17969-.11719.14844-.14843.01172-.13282-.01172-.10546-.08985-.0586-.1328.01563h-.14845l-.1328.01562-.13282-.01562-.1211-.03125-.08593-.0586-.07422-.07422-.0586-.08984-.0625-.08594-.11718-.17969-.0586-.08593.03125-.1211.08594-.05859.1211-.03125.05859-.08594v-.1211l-.03125-.11718-.0586-.08984-.05859-.08594-.04687-.10547-.02735-.11719-.01562-.1328.0586-.08985.07421-.07422.08984-.0586.1172-.17968.07421-.07422.0586-.08594.14843-.14844.1211-.03125.1328-.01562.13282.01562.07422.07422.04297.10547.01562.13281-.03125.1172-.11719.03124-.1328.01172-.14844.14844-.04297.10547-.04688.10156-.02734.1211-.03125.11718v.14844l.03125.11719.04297.10546.05859.08985.07422.07031.07422.07422.11719.03125.12109.02734.11719-.02734.1328-.01563h.1172l.08984.0586.07422.07422.04687.10546.0586.08594.10156.04688.13281.01562.10547.04297.08594.0586-.01172.10546-.07422.07422-.17969.11719-.05859.08984-.08984.0586-.07032.07422-.07421.07421-.0625.08985-.02735.11719-.01562.1328.01562.13282-.01562.13281v.14844l.01562.13281.02735.1172.03125.12108.07421.07422.08985.0586.08594.0586.08984.05858.11719.03125v.08594l-.10157.04688-.08984.0586-.26563.03124-.11718.02735h-.14844l-.10547.04296-.10156.04688-.0586.08984-.0625.23438-.01171.13281-.03125.1211-.01563.1328v.29298l-.01172.1328.01172.13673.01563.1328.1328.01563.13282.01172.1211.03125.08593.0586.07422.07421.04688.10547.04296.10157.01563.1328v.44532l-.01563.13281v.44532l.03125.26562.02735.11719.01562.13281.03125.11719.08594.21094.03125.26562v.14844l-.03125.11719-.02734.11718-.03125.1211-.02735.11719-.03125.11718-.03125.1211-.01171.1328-.01563.13282.08984.0586.1172-.03125.10155.01562.04688.10547-.03125.26562v.44141l-.04297.10547-.04688.10547-.04296.10156-.04297.10547-.0586.08594-.03125.12109-.04296.11719-.03125.11719-.01563.1328.01563.13282.05859.08984.10547.04688.08594.0586.05859.08593-.01172.13672-.03125.11719-.04297.10156v.44531l-.01562.13281v.14844l-.03125.11719-.04297.10547-.02735.11719-.04687.10546-.04297.10157-.03125.12109-.02734.11719-.03125.13281-.03125.11719-.02735.11719-.04297.10546-.03125.1172-.03125.12108-.01171.13282-.01563.13281v.29688l.02734.11718v.14844l.04688.39844.02734.11719.0586.08984.12109.03125h.14844l.13281-.01563.0586.08985v.11719l-.0586.08984-.08984.0586-.10157.04296-.10546.04688-.08985.05859-.08594.0586-.13671.01562-.1172-.03125-.1328-.01563-.10157.04688-.0625.08594-.01172.13671-.01562.13282-.03125.11719-.02735.11718-.01562.13281-.03125.1211v.29687l.01563.13282.03125.11718v.14844l.01171.13281v.14844l-.02734.11719-.04688.10156-.02734.1211-.03125.11718-.0586.08985-.07421.07421-.10156.04297-.10547.04688-.11719.02734-.1211.03125-.10156-.04687.0586-.08594.10547-.04688.02734-.11718.03125-.11719.02734-.1211.03125-.11718v-.14844l.01563-.13281-.03125-.11719-.04297-.10547-.10547.01563-.07422.07422-.10156.04296-.08984.0625-.07422.07422-.04297.10157-.01563.1328-.03125.1172L304.25 426l-.03125.11719-.02734.11719-.03125.12109-.02735.11719-.03125.11718-.04297.10547-.08984.0586h-.08984l-.1172-.03125-.03124-.08594.01562-.13672-.03125-.11719v-.14844l-.01171-.1328v-.14844l-.0625-.23438-.02735-.1211-.04297-.10156-.04687-.10546-.0586-.08594-.05859-.08985-.04297-.10546-.0625-.08594-.14844-.14844-.0703-.07422-.10548-.04687-.10547-.04297-.10156-.04297-.29687-.29688-.08985-.07421-.08594-.0586-.10546-.04297-.08985-.0625-.08594-.0586-.10546-.04296-.08985-.0586-.08594-.0625-.07421-.0703-.10547-.04688-.08594-.0586-.10547-.04296-.08984-.0625-.10156-.04297-.10547-.04297-.08594-.0586-.10547-.04687-.10547-.04297-.10156-.04687-.08985-.0586-.10156-.04297-.10547-.04296-.08984-.0625-.11719-.02735-.13281-.01562-.13281.01562H299.75l-.13281.01563-.11719-.03125-.08984-.0586-.07422-.07422-.08985-.05859-.10156-.04688h-.14844l-.12109-.02734-.10156-.04297-.07422-.07422-.11719-.17968-.08984-.0586-.10156-.04297-.08985-.0625-.10547-.04296-.08984-.0586-.08594-.0586-.10547-.04687-.0586-.08594-.05858-.08984-.04297-.10547-.04688-.10156-.07422-.07422-.08594-.0586-.07421-.07421-.08985-.0586-.22265-.22265-.04297-.10547-.03125-.26563.10547-.04296h.14453l.10547.04296.07421.07422.08985.0586.08594.0586.10546.04687.08985.05859.14844.14844.0703.07422.14845.14843.0625.08594.07421.07422.08594.0586.07422.07421.08985.0625.08984.0586.08594.05859.26953.17578.10156.04688.10547.04296.10156.04297.04688-.07421.05859-.08594.07422-.07422.07031-.07422.10547.04297.07422.07422.0586.08984.04296.10156.04688.10547.04296.10547.1211.02735.11719-.02735.07421-.08984.04297-.10547.0586-.08985.07422-.07421.10546-.04297.1172-.02735.1328.01172.08985.0586.14844.14843.05859.08985.04297.10547.04687.10156.04297.10547.04297.10156.10547.04688.10547.04296.13281.01563.08594-.0586.0586-.08984.07421-.07422.10547-.04297.11719.02735.10547.04687.10156.04297.10547.04297.10156.04688.17969.11718v.11719l-.01563.13281.01563.13281.01562.13672.0586.08594.10156.04688.1211.02734.11718.03125h.14844l.11719-.03125.05859-.08984.17969-.1172.05859-.08983.07422-.07422.0586-.08594.11718-.17969.17969-.11719.11719.03125.08984.0586.04297.07422-.01563.1328v.1172l.08985.05859h.14843l.13282-.01563.1328-.01171.26563-.03125.10547-.04297.11719-.03125.1211-.02735.07421-.07421.07031-.07422.0625-.08985-.01562-.10547-.04688-.10156-.10156-.04297-.10547-.01562-.11718.02734-.26563.03125h-.14844l-.07421-.07422-.08985-.0586-.11719-.03124-.11718-.02735-.13282-.01562h-.14843l-.13282.01563h-.29687l-.10547-.04688-.14844-.14844-.04297-.10156-.05859-.08984.22266-.22266.08593-.0586.10547-.04296.11719-.03125.13281-.01563.13281.01563.13672.01562.10157.04297.1328-.01172.08985-.0625.10156-.04297.0625-.08984-.04687-.10156-.08984-.0586-.1172-.03125-.10155-.04296-.0586-.08985-.0625-.08984v-.11719l.01563-.13281.10547-.04688.07421-.07031v-.1211l-.08984-.05859-.03125-.11719.08985-.05859.07421-.07422.04297-.10547.0586-.08984.04687-.10156.01563-.13281v-.14844l-.04688-.10547-.04297-.10156-.08984-.0586-.13281-.01562-.10157-.04297-.13671-.01563-.1172-.03125h-.4453l-.13282-.01562-.13281-.01172-.13281-.01563-.11719-.03125h-.14844l-.13281-.01562-.13281-.01172-.26563-.03125-.1211-.04297-.08593-.0586-.07422-.07421v-.14844l.01172-.13281.10547-.04688.10156-.04296.13281-.01563h.15235l.13281-.01562h.29297l.1211.03125.10156.04296.08984.0586.23438.0625.12109-.04688.08984-.05859.10156-.04297.13282-.01562.10547.04296.10156.04688.13281.01172.1211-.02735h.14453l.12109-.03125.11719-.02734.10547-.04687.07421-.07422.08594-.0586.14844-.14843.0586-.08594.04687-.10547.02734-.11719.01563-.10547-.10156-.04296-.08985-.0586-.11719-.03125-.10546-.04297-.08985-.0625-.07422-.08594-.07422-.07421-.10156-.04297-.10547-.04688-.10156-.04297-.0586-.08984-.04687-.10156-.08594-.21094-.0625-.08594-.05859-.08984-.07422-.07422-.08594-.0586h-.26953l-.11719.03126-.08984.05859-.10156.04297-.13281.01562-.10547-.01562-.02735-.11719-.0625-.08984-.11718-.03125-.10157-.04297-.14843-.14844-.03125-.11719-.01563-.10546.07422-.07422.17969-.1172.11719-.02733.11718-.03125.13672.01562.10156.04297.10547.04297.10156.04687.10547.04297.1172.03125.1328.01563.1172.02734.1328.01563.10547-.01563.08985-.0586-.07422-.07421-.10547-.04297-.07422-.07422-.07422-.08984-.14844-.14844-.08593-.0586-.08985-.05859-.07422-.07422-.08984-.0586-.10156-.04687-.1211-.02734-.10156-.04688-.10547-.04296-.11719-.03125-.10156-.04297-.1211-.03125h-.14843l-.11719.03125-.10546.04297-.08594.0625-.17969.11718-.08594.0586-.08984.0586-.10547.04687-.08594.05859-.10547.04297-.10156.04297-.10547.04687-.07422.07422-.05859.08985-.0586.08593-.04687.10547-.0586.08594-.07421.07422-.13281-.01172-.1172-.03125h-.11718l-.07422.07422-.08984.0586-.07422.07421-.08984.0586-.08594.05859-.10547.04687-.10156.04297-.13672.01563-.10156-.04297-.14844-.14844-.10547-.04688h-.08594l-.10547.04688-.10156.04297-.1211.03125-.11718-.03125-.07422-.07422v-.11719l.03125-.1211.07422-.0703.0586-.08985.07421-.07422.11719-.03125.10547-.04296h.29297l.13281-.01563.13672-.01563.10156-.04296.08985-.0586.10156-.04687.08984-.0586.13281-.01171.08985.05859.13281.01172.08984-.0586.08594-.05859.10547-.04297.08984-.0586.08594-.0625.08985-.05859.14843-.14843.0586-.08594.05859-.08985.10547-.04296.13281-.01563.11719.02735.1211.03125.05859-.0586.05859-.08984.03125-.26563.02734-.11719.10547.01172.13281.01563.10157-.04297.08984-.0586.0586-.08984.07421-.07422.0586-.08984.04687-.10156.01172-.13281-.01172-.13282-.04687-.10547-.14844-.14843-.0586-.08985-.05859-.08594-.04297-.10546v-.44532l.01563-.1328v-.14845l.01172-.1328-.0586-.0586-.08984.0586-.10156-.04298-.17969-.11719-.08594-.05859-.0625-.08984-.0586-.08985-.07421-.07421-.08594-.0586-.1211.03125-.10155.01172-.10547.04688-.08594.05859-.10547.04297-.14844.14844-.08984.05859-.08594.0586-.08984.0625-.10547.04296-.13281.01563v-.1211l.10547-.04297.11718-.03125.07422-.0703.04297-.10548v-.14844l-.02734-.11718-.14844-.14844-.13281-.01563h-.14844l-.11719.03125-.10547.04297-.10156.04297-.08984.0625-.11719.02735-.07422-.07422.01172-.13281-.04297-.10157-.04297-.10547-.08984-.05859-.11719.02734-.1211.03125-.11718.03125-.10156.04297-.1211.03125-.10156.04297-.10547.04297-.08984.0586-.10156.01562v-.11719l.01562-.13281-.0586-.08985-.07421.04297-.14844.14844-.0586.08985-.07421.07421-.04688.10547-.04296.10156-.07422.07422-.0586.08985-.07422.07422-.05859.08593-.07422.07422-.08984.0625-.07422.07031-.07422.07422-.10156.01563-.13281.01562-.10547-.04296v-.1211l.14843-.14844.04297-.10156.0586-.08984.04687-.10156.04297-.10547.0586-.08985.03124-.11719.04297-.10156.03125-.1211.02735-.11718.04687-.10547.04297-.10156.04297-.10547.07422-.07031.08984-.0625.08985-.0586.10156-.04296h.29687l.26563-.03125.10547-.04297-.07422-.07422-.11719-.03125-.10547-.04297-.08984-.0586-.10156-.04687-.08985-.0586-.10156-.04296-.10547-.04297-.08984-.0625-.08594-.0586-.10547-.04296-.10156-.04297-.1211-.03125-.11718-.03125-.10157-.04297L297.5 410.25l-.10156-.04297-.08985-.0586-.04296-.10546-.01563-.13281.10156-.04297.13281-.01563.13672.01563.13282-.01563.10156-.04297.0586-.08984.01562-.10547-.08985-.0586-.07421-.07421-.10157-.04297-.08984-.0586-.14844-.14843-.04297-.10547-.01562-.13281v-.29297l-.0586-.08985-.08984-.05859-.07422-.07422-.04297-.10547-.03125-.11718-.0586-.08985-.07421-.07422-.11719-.02734-.07422-.07422-.08984-.0586-.08984-.0625-.08594-.05859-.07422-.07421-.0586-.08594-.04687-.10547-.08594-.0586-.14843-.14843-.19532-.0586-.1328.01563-.10157.04297-.07422.07422-.04688.10156-.04296.10547-.0586.08984-.0586.08594-.29687.29687-.08984.0586h-.08594l-.0625-.08594-.04297-.10547.03125-.11719.0586-.08984.02734-.11719-.01172-.13281-.08984-.0625-.10547.04688-.11719.02734-.11719.03125-.26953.17578-.10156.04688-.11719.02734-.10546.04687-.08985.0586-.10156.04297-.0586-.08594-.04687-.10547.01563-.13281.04687-.10547.07031-.07422.07422-.07031.0586-.08985v-.14843l-.04297-.10547h-.23829l-.10156.04687-.03125.11719-.02734.11719-.03125.1211-.07422.04296-.13281.01563-.07422-.04688-.04297-.10156-.04297-.10547-.04687-.10156-.04297-.10547-.1211.03125-.10156.04297-.13281.01562-.11719.03125-.10547.04297-.08984.0586-.10156.04687-.1211.02734-.13281.01563-.10156-.04297-.0586-.08985-.04687-.10546-.04297-.10157-.04297-.10546v-.1172l.0586-.08984.08593-.05859.17969-.11719.10156-.04687.10547-.04297.10547-.0586.10156-.04296.08985-.0625.10156-.04297.10547-.0586.10156-.04687.08984-.0586.10547-.04296.10156-.04297.08985-.0625.10156-.04297.13672-.01563.11719.03125.10156.04297.1211.03125.10156.04297.10546.04688.10157.04296.10547.04297.10156.04688.10547.04297.10156.04297.10547.04687.08594.0586.10546.04296.1172.03125.10546.04297.10156.04688.08985.0586.10547.04296.10156.04297.10547.04687.11719.02735.10156.04687.1211.02735h.14843l.08594-.0586.01562-.10156.0586-.08984-.02735-.1172-.07422-.07421-.11719-.17969-.07421-.07422-.08985-.07421-.17969-.1172-.08593-.05859-.10547-.04296-.10156-.04688-.26954-.17578-.05859-.08985-.07422-.07421-.0586-.08985-.04296-.10156-.03125-.11719-.01563-.13672v-.5625l-.01171-.1328-.01563-.13282-.03125-.11719-.01562-.13281-.01172-.13281-.03125-.1211-.22266-.22265-.0586-.08594-.01562-.10547.03125-.11719.13281-.01562v-91.41406H172.9922v1.45312l-.0586.23438-.35156 1.05078-.17187.52343-.1172.34766-.17577.41016-.11719.17187-.23438.29297-.23046.0586h-.35157l-.11718.05859-.23047.40625v.29297l.11719.17578.23046.23047.1172.23437.64062.75781.29297.46485.17578.23437.23047.35156.23437.34766.64063.8164.17578.46485.17187.41016.11719.69531.17578.46875.11719 1.39844.0586.46484v.875l.11718 1.04688v4.78125l-.0586.46484-.35156 1.28125-.17578.52344-.11328.41015-.35156.9297L172.93359 336l-.23437.58203-.11719.17578-.17187.34766-.17578.40625-.35157.8164-.0586.29297-.11327.29297-.11719.28906-.0586.17579-.11718.875-.0586.40625-.05859.11718-.0586.17579-.05859.17187-.23047.52734-.11718.17188v.23437l-.11719.23438-.0586.17187-.17577.58594v.28906l-.0586.17579v.29296l-.0586.11329-.05859.52734v.17187l-.05468.23438v2.6211l-.17578.8164-.1172.17578-.17577.23438-.1172.17187-.11327.23438-.58594.93359-.23047.28906-.29297.46485-.17578.23437-.28906.35156-.35156.69922-.11328.23047-.17579.41016-.17578.23046-.40625.52735-.8164.69922-.29297.17187-.28906.23438-.17579.11719-.17578.17578-.52344.40625-.52734.17578-.17187.17578-.23438.05469-.64062.17578h-.75782m12.21094 31.02344l-1.07422.44921.35938.89454 1.25-.71485.44531-.53906-.98047-.08985"/><path fill="#d3d3d3" fill-opacity="0" fill-rule="evenodd" d="M201.50781 416.59766h-.89453l.44922.6289.98047.35938.80469-.08985.4453-.98828-.17577.08985-.71485-.35547-.89453.35547m154.6211 59.0703l-.0586-.52343v-.29297l.11328-.29297.0586-.23046.46875-.46875h.11328l.11719-.11329.11718-.05859h.17579l.23437-.0586h.34766l.23437.0586.11719.0586.23047.17187.0586.17578.11718.58203v.29297l-.11719.17578-.17187.28906-.17579.17579-.52734.52343-.23047.23438-.11719.0586h-.17578l-.11718-.0586-.40625-.29297-.17579-.11719-.11718-.0586-.0586-.11327-.05468-.1172m6.64062-10.95702l-.0586-.17188v-1.10937l.0586-.17188.17578-.0586.17188-.05858h.17578l.23437-.0586.1172.0586.05858.69921-.05859.17188-.11719.17578-.11718.0586-.23438.52343-.11328.0586h-.23438l-.05859-.1172m9.61328-14.39062l-.11719-.17578v-.69922l.29297-.875.1172-.17187.17577-.35156.11328-.23047.1172-.29297.35155-.75781.1172-.23047.17187-.23438h.17578l.11719-.0586h.64062l.11719.0586.23437.23438.17188.11328.35156.29297.11719.11718.11328.17579v.11328l.11719.05859.11718.11719v.69922l-.05859.17578v.23047l-.0586.17578-.34765 1.05078-.11719.23047-.11719.23437-.11718.0586-.23047.23437-.64063.28906h-.875l-.41015-.11718-.64063-.46485"/><path fill="none" stroke="#bebebe" stroke-linecap="round" stroke-linejoin="round" stroke-miterlimit="10" stroke-width=".5" d="M467.95703 311.69531H144.02734v168.625h323.9297v-168.625"/><g clip-path="url(#a)"><path fill="#fff" fill-opacity="0" fill-rule="evenodd" d="M144 475.89063v4.4375h.0039H144V311.67188h.0039H144v164.21875"/></g><g clip-path="url(#b)"><path fill="#fff" fill-opacity="0" fill-rule="evenodd" d="M144.0039 480.32813V311.67188h31.0625v120.55859l-4.4375 3.28515-.38671.4297-4.05078 2.07812-2.20703 2.35937-2.23047 2.89063-1.52735 1.54687-1.33984 4.4414-.54297 4.4375 1.28516 4.4375 2.125 2.42579 4.4375 1.40234 4.23437-3.82812.20313-.26172 2.64062-4.17578 1.79688-1.72656 2.73828-2.71094 1.70312-2.61719 1.88281-1.82422 2.5547-1.625 3.78905-2.8125-.39453-4.4375-3.39453-2.58594-4.4375 1.04297-4.4414-2.17187v-120.5586h26.6328v91.01954l-2.14843 2.18359 2.14844 2.8789 4.4375-1.30468 1.57422-1.57422-1.57422-1.98828-4.4375-.19531v-91.01954h13.3164v97.92188l-4.4414.84766-3.39063 3.3125 2.09766 4.4375 1.29297 1.14062 3.08594-1.14062 1.35547-.07032 4.0703-4.36718-4.0703-4.16016v-97.92188h22.1914v90.17188l-3.03125 3.03125.28125 4.4414 2.75 3.76173 4.4375-2.16797 3.94922 2.84375-3.94922.91796-4.4375-.39843-4.4414 3.25781-1.25782.66016-3.17969.46093-4.1875 3.97657.37891 4.4414-.6289 1.4961-2.39063 2.9414 2.39063 3.61719.5.82031-.5 1.71094-4.4375-1-1.34375-.71094-3.09375-.875-4.44141.35547-.95313.51953-3.48437 1.60547-4.4375.69922-4.4375 1.2539-.9336.87891.9336 3.73438.1289.70312 4.3086 3.80078 4.4375.28516.54297.35547 3.64062 4.4375-4.1836 3.32031-1.0703 1.11719-1.53125 4.4375 1.0664 4.4414 1.53516.53907 2.22656-.53906 2.21094-.7422 4.4414-2.15234 2.33204-1.54687.55078-4.4375 1.55469-2.17578 4.42968-2.26172-1.66797-4.4375 1.67578-2.84766 1.34766-1.59375 1.8125-4.4375 1.27734-.33203 2.90625-4.10547-2.90625-3.0039-2.04687-1.4336 2.04688-.96484 4.4375-.05078 2.6289 1.01562 1.8125 1.71485 4.4375 1.92578 4.4375-1.33203 2.39063-2.3086 2.04687-3.23828 4.4375.17969 4.4414.66406 3.35548 2.39453 1.08203 1.48047.77734 2.95703 3.16016 4.4375.5.5039 4.4375 2.39454 2.9414-2.89844 1.5-.59765 4.4375-1.41016 2.58985-2.42969 1.84765-.34375 4.05079-4.09375.38671-4.40625.03516-.03125 1.32813-4.4414-1.36329-1.33594-4.4375-1.75-4.4375-.73438-4.4375-.17187-4.4414-.0039-4.4375.10546-4.02735 3.89063-.41015.48046-4.4375 1.88672-4.4414-.77343-.98048-1.59375.98047-3.51172 4.4414 1.89062 2.875-2.8164 1.23048-4.4375.33203-4.17579.13281-.26171-.13281-.22657-2.41406-4.21484-2.02344-1.50781-4.4414.83984-.67188.66797-3.76563 3.22266-1.21094 1.21875-3.22656 3.92578-2.79687-3.92578-1.5-4.44141-.14063-.14063-4.4375-2.89062v-90.17188h13.3125v39.66797l-.1836.27735.1836.36719.25781-.3672-.2578-.27734v-39.66796h62.13671v139.46875l-4.4375.07812-3.07813 2.48047-1.35937 1.39453-4.4375 2.7461-.33594.29687.33594.30078 4.4375 3.26953 4.4375.5586 4.4375-.33594 4.4414-.9414 3.76173-2.85157-.82032-4.4375-2.9414-1.96875-4.44141-.58985V311.67188h22.1914v136.08985l-2.9414 1.5-1.4961.48047-4.4375 2.30469-1.0625 1.65234-.82812 4.4375 1.89063.82812 4.4375 1.76172 3.58593-2.58984.85157-1.09766 4.4414-2.72656.79688-.61328.17187-4.4375-.96875-.32031-4.4414-1.1797V311.67189H463.5625v140.94921l-.8164 1.07813-3.6211 2.28515-4.4414.11329-2.21094 2.03906-2.22657 3.04297-1.27343 1.39453 1.27343 1.35156 4.4375 2.11328 4.44141-1.1836 2.28906-2.28124-.1289-4.4375 2.27734-3.6211.83984-.8164-.83984-1.07813V311.67188h4.4336v168.65625H144.0039"/></g><path fill="#50fcfc" fill-rule="evenodd" d="M159.6289 458.13672l-1.28515-4.4375.54297-4.4375 1.33984-4.4414 1.52735-1.54688 2.23047-2.89063 2.20703-2.35937 4.05078-2.07813.38672-.42969 4.4375-3.28515v6.07812l-4.4375.01172-2.98047 2.0625-1.45703.95703-3.03907 3.48047-1.39843 4.09766-.15235.34375-.8125 4.4375.96485 2.0664 4.4375 1.40625 2.94922-3.47265 1.48828-2.86719 1.68359-1.57031 2.7539-.75 3.1875-3.6914 1.25391-3.19923 1.9375-1.23828-1.9375-1.29297-4.4414-.78125v-6.07812l4.4414 2.17187 4.4375-1.04296 3.39453 2.58593.39453 4.4375-3.78906 2.8125-2.55469 1.625-1.8828 1.82422-1.70313 2.61719-2.73828 2.71094-1.79688 1.72656-2.64062 4.17578-.20313.26172-4.23437 3.82812-4.4375-1.40234-2.125-2.42578"/><path fill="#00e8fc" fill-rule="evenodd" d="M161.7539 455.76563l-.96484-2.06641.8125-4.4375.15235-.34375 1.39843-4.09766 3.03907-3.48047 1.45703-.95703 2.98047-2.0625v5.48828l-2.48438 1.01172 2.48438.65625 4.4375-.28906.3164-.36719-.3164-.60547-4.4375-.40625v-5.48828l4.4375-.01172 4.4414.78125 1.9375 1.29297-1.9375 1.23828-1.2539 3.19922-3.1875 3.6914-2.75391.75-1.6836 1.57032-1.48827 2.86719-2.94922 3.47265-4.4375-1.40625"/><path fill="#00d4fc" fill-rule="evenodd" d="M170.6289 445.47656l-2.48437-.65625 2.48438-1.01172 4.4375.40625.3164.60547-.3164.36719-4.4375.28906"/><path fill="#50fcfc" fill-rule="evenodd" d="M197.26172 444.11719l-.9336-3.73438.9336-.8789 4.4375-1.25391 4.4375-.69922 3.48437-1.60547.95313-.51953v4.35938l-1.07422.59765-2.70703 4.4375 3.78125 2.69922 1.97266 1.74219 2.46875 1.99219 2.27734-1.9922-1.39844-4.4414-.8789-1.08594-3.57032-3.35156-.8711-.59765v-4.35938l4.44142-.35547 3.09375.875 1.34375.71094 4.4375 1 .5-1.71094-.5-.82031-2.39063-3.61719 2.39063-2.9414.6289-1.4961-.3789-4.4414 4.1875-3.97657 3.17968-.46093 1.25781-.66016 4.44141-3.25781 4.4375.39844 3.94922-.91797-3.94922-2.84375-4.4375 2.16796-2.75-3.76171-.28125-4.44141 3.03125-3.03125v2.11328l-.91797.91797.70313 4.4414.21484.29298.52344-.29297.83984-4.44141-1.36328-.91797v-2.11328l4.4375 2.89063.14063.14062 1.5 4.4414 2.79687 3.92579v2.05078l-4.4375.76562-4.4375.89454-1.52734 1.23828-2.91406 1.8203-4.4375.21485-2.52735 2.40235.51953 4.4414 2.00781 1.83203 4.4375-.15625 4.44141 2.10547 1.0039.65625 3.4336 2.44531 3.91016-2.4453.52734-.28907 3.71875-4.14844.30078-4.4414-1.60156-4.4375-2.41797-2.89844v-2.05078l3.22656-3.92578 1.21094-1.21875v7.78515l-.61719 2.3086.6172 1.90234 4.03515-1.90234-4.03516-2.3086v-7.78515l3.76563-3.22266.67187-.66797 4.4414-.83984v2.42969l-4.4414 1.35937-2.32812 2.16016-1.19532 4.4375 3.52344 3.125 3.91406 1.3125.52735.3203.32812-.3203 2.7539-4.4375.13673-4.4375-3.21875-3.51954v-2.42968l2.02344 1.50781 2.41406 4.21484.13281.22657-.13281.26171-.33203 4.17579-1.23047 4.4375-2.875 2.8164-4.4414-1.89062-.98048 3.51172.98047 1.59375 4.4414.77343 4.4375-1.88671.41016-.48047 4.02735-3.89063v.82422l-3.17578 3.0664-1.26172 1.47657-3.8789 2.96484 3.8789 3.50781.58594.9297 2.01171 4.4375 1.83985 2.33202 4.28515 2.10547.15235.09375.09375-.09375 4.34765-1.73828 4.08594-2.69922.35156-.10937 4.4375-.83594 3.45704-3.49219.80468-4.4375-2.46094-4.4414-1.80078-1.00782-4.4375-1.71875-4.4375.23829-4.4414-.31641-4.4375-.26172v-.82422l4.4375-.10547 4.4414.0039 4.4375.17188 4.4375.73438 4.4375 1.75 1.36329 1.33594-1.32813 4.4414-.03516.03125-.38671 4.40625-4.05079 4.09375-1.84765.34375-2.58985 2.42969-4.4375 1.41016-1.5.59765-2.9414 2.89844-4.4375-2.39453-.5-.5039-3.16016-4.4375-.77734-2.95704-1.08203-1.48047-3.35547-2.39453-4.4414-.66406-4.4375-.17969-2.04688 3.23828-2.39063 2.3086-4.4375 1.33203-4.4375-1.92578-1.8125-1.71485-2.6289-1.01562-4.4375.05078-2.04688.96484 2.04688 1.4336v2.44921l-.72657.5547.72656.7578.53516-.7578-.53516-.5547v-2.44921l2.90625 3.0039-2.90625 4.10547-1.27734.33203-1.8125 4.4375-1.34766 1.59375-1.67578 2.84766 1.66797 4.4375-4.42969 2.26172-1.55468 2.17578-.55078 4.4375-2.33203 1.54687-4.44141 2.15235-2.21094.74219-2.22656.53906-1.53516-.53906-1.0664-4.44141 1.53125-4.4375 1.0703-1.11719 4.1836-3.32031-3.64062-4.4375-.54297-.35547-4.4375-.28516-4.3086-3.80078-.1289-.70312m4.4375-36.36328l-2.14844-2.87891 2.14844-2.1836 4.4375.19532 1.57422 1.98828-1.57422 1.57422-4.4375 1.30469"/><path fill="#00e8fc" fill-rule="evenodd" d="M210.57422 447.51953l-3.78125-2.69922 2.70703-4.4375 1.07422-.59765.8711.59765 3.5703 3.35156.87891 1.08594 1.39844 4.4414-2.27734 1.9922-2.46875-1.9922-1.97266-1.74218"/><path fill="#50fcfc" fill-rule="evenodd" d="M209.28125 418.1914l-2.09766-4.4375 3.39063-3.3125 4.4414-.84765v.66016l-4.4414 1.8789-1.66016 1.6211 1.66016 2.46093 4.4414 1.21485 3.4297-3.67578-3.4297-3.5v-.66016l4.07032 4.16016-4.07031 4.36718-1.35547.07032-3.08594 1.14062-1.29297-1.14062"/><path fill="#00e8fc" fill-rule="evenodd" d="M210.57422 416.21484l-1.66016-2.46093 1.66016-1.6211 4.4414-1.8789v1.09375l-3.72265 2.40625 3.72266 2.52734 2.35546-2.52734-2.35547-2.40625v-1.09375l3.4297 3.5-3.4297 3.67578-4.4414-1.21485"/><path fill="#00d4fc" fill-rule="evenodd" d="M215.01563 416.28125l-3.72266-2.52734 3.72266-2.40625v1.09765l-2.02735 1.3086 2.02734 1.375 1.28125-1.375-1.28125-1.3086v-1.09765l2.35547 2.40625-2.35547 2.52734"/><path fill="#00c4fc" fill-rule="evenodd" d="M215.01563 415.1289l-2.02735-1.375 2.02734-1.30859v1.09375l-.33203.21485.33203.22656.20704-.22656-.20703-.21485v-1.09375l1.28125 1.3086-1.28125 1.375"/><path fill="#00b8fc" fill-rule="evenodd" d="M215.01563 413.98047l-.33204-.22656.33203-.21485.20704.21485-.20703.22656"/><path fill="#00e8fc" fill-rule="evenodd" d="M226.32031 427.07031l-.51953-4.4414 2.52734-2.40235 4.4375-.21484 2.91407-1.82031 1.52734-1.23829 4.4375-.89453 4.4375-.76562v2.79297l-1.45703.10547-2.98047.22265-4.4375.89063-4 3.32422.8125 4.4414 3.1875 1.96094 3.80078 2.47656.63672.45313.72266-.45313 3.71484-2.03125 2.16016-2.40625.15625-4.4414-2.22656-4.4375-.08985-.10547v-2.79297L248.5 418.1914l1.60156 4.4375-.30078 4.4414-3.71875 4.14844-.52734.28906-3.91016 2.44531-3.4336-2.4453-1.0039-.65626-4.4414-2.10547-4.4375.15625-2.00782-1.83203m2.00781 9.63281l-.72656-.7578.72656-.5547.53516.5547-.53516.7578"/><path fill="#00d4fc" fill-rule="evenodd" d="M234.01953 427.07031l-.8125-4.4414 4-3.32422v1.54687l-2.14453 1.77735 1.91406 4.4414.23047.14063 4.4375 3.60156 4.4375-3.07422.59766-.66797.01953-4.4414-.61719-1.21094-4.4375-.08985-4.4375-.47656v-1.54687l4.4375-.89063 2.98047-.22265 1.45703-.10547.08984.10547 2.22657 4.4375-.15625 4.4414-2.16016 2.40625-3.71484 2.03125-.72266.45313-.63672-.45313-3.80078-2.47656-3.1875-1.96094"/><path fill="#00c4fc" fill-rule="evenodd" d="M236.97656 427.07031l-1.91406-4.4414 2.14453-1.77735v1.54297l-.28516.23438.28516.63671 1.0039 3.8047 3.4336 2.83984 3.71094-2.83985-3.71094-3.77734-3.47266-.66406-.96484-.23438v-1.54297l4.4375.47656 4.4375.08985.61719 1.21094-.01953 4.4414-.59766.66797-4.4375 3.07422-4.4375-3.60156-.23047-.14063"/><path fill="#00e8fc" fill-rule="evenodd" d="M236.99219 409.3164l-.70313-4.4414.91797-.91797 1.36328.91797-.83984 4.4414-.52344.29298-.21484-.29297"/><path fill="#00b8fc" fill-rule="evenodd" d="M237.20703 423.26563l-.28516-.63672.28516-.23438.96484.23438 3.47266.66406v1.19531l-2.34766 2.58203 2.34766 1.9375 2.53516-1.9375-2.53516-2.58203v-1.19531l3.71094 3.77734-3.71094 2.83985-3.4336-2.83985-1.0039-3.80469"/><path fill="#00a8fc" fill-rule="evenodd" d="M241.64453 429.00781l-2.34766-1.9375 2.34766-2.58203v1.19922l-1.25781 1.38281 1.25781 1.03906 1.35938-1.03906-1.35938-1.38281v-1.19922l2.53516 2.58203-2.53516 1.9375"/><path fill="#009800" fill-rule="evenodd" d="M241.64453 428.10938l-1.25781-1.03907 1.25781-1.38281v1.19531l-.16797.1875.16797.13672.17969-.13672-.17969-.1875v-1.19531l1.35938 1.38281-1.35938 1.03906"/><path fill="#00ac00" fill-rule="evenodd" d="M241.64453 427.20703l-.16797-.13672.16797-.1875.17969.1875-.17969.13672"/><path fill="#fff" fill-opacity="0" fill-rule="evenodd" d="M250.51953 415.88281l-.61719 2.3086.6172 1.90234 4.03515-1.90234-4.03516-2.3086"/><path fill="#50fcfc" fill-rule="evenodd" d="M250.51953 351.98438l-.1836-.3672.1836-.27734.25781.27735-.2578.36719"/><path fill="#00e8fc" fill-rule="evenodd" d="M254.95703 416.8789l-3.52344-3.125 1.19532-4.4375 2.32812-2.16015 4.4414-1.35938v2.26172l-2.35156 1.25782-2.08984 2.54687-.94531 1.89063.94531.83984 4.4414 1.22656 1.3711-2.0664-.21875-4.4375-1.15234-1.25782v-2.26171l3.21875 3.51953-.13672 4.4375-2.7539 4.4375-.32813.3203-.52735-.3203-3.91406-1.3125"/><path fill="#00d4fc" fill-rule="evenodd" d="M254.95703 414.59375l-.94531-.83984.94531-1.89063 2.08984-2.54687 2.35157-1.25782 1.15234 1.25782.21875 4.4375-1.3711 2.0664-4.4414-1.22656"/><path fill="#00e8fc" fill-rule="evenodd" d="M263.83594 430.57813l-3.8789-3.50782 3.8789-2.96484 1.26172-1.47656 3.17578-3.06641v1.375l-1.7539 1.6914-2.6836 3.13673-1.70313 1.30468 1.70313 1.54297 1.82422 2.89453 2.61328 3.74219.60547.69531 3.83203 3.17969 4.4414-2.3789 1.21094-.80079 3.22656-.99219 4.4375-.95312 2.46485-2.49219 1.5-4.4375-3.96485-4.21875-2.61328-.22265-1.82422-.90235-4.3828.90235-.0547.0078-.0703-.0078-4.3711-.81641-4.4375-.875v-1.375l4.4375.26172 4.4414.3164 4.4375-.23828 4.4375 1.71875 1.80079 1.00782 2.46093 4.4414-.80469 4.4375L286.02735 435l-4.4375.83594-.35156.10937-4.08594 2.69922-4.34765 1.73828-.09375.09375-.15235-.09375-4.28515-2.10547-1.83985-2.33203-2.01171-4.4375-.58594-.92969"/><path fill="#00d4fc" fill-rule="evenodd" d="M263.83594 428.61328l-1.70313-1.54297 1.70313-1.30469 2.6836-3.13671 1.7539-1.69141v1.375l-.32813.3164-3.77734 4.44141 2.73437 4.4375 1.3711 1.96094 2.15234 2.47656 2.28516 1.89844 3.1914-1.89844 1.25-2.55469 4.4375.6797 4.4375-1.07423 1.47266-1.48828 2.19531-4.4375-3.66797-3.90234-4.4375-.07031-4.4375.42578-4.4414-.16797-3.17969-.72656-1.25781-.31641v-1.375l4.4375.875 4.3711.8164.0703.00782.0547-.00781 4.3828-.90235 1.82422.90235 2.61328.22265 3.96485 4.21875-1.5 4.4375L286.02734 434l-4.4375.95313-3.22656.99218-1.21094.80078-4.4414 2.37891-3.83203-3.17969-.60547-.69531-2.61328-3.74219-1.82422-2.89453"/><path fill="#00c4fc" fill-rule="evenodd" d="M266.90234 431.50781l-2.73437-4.4375 3.77734-4.4414.32813-.31641 1.25781.3164 3.17969.72657 4.4414.16797 4.4375-.42578 4.4375.0703v.31642l-4.4375.54296-4.4375.38282-4.4414.17968-4.4375-.55468-2.5625 3.03515 2.4336 4.4375.1289.1836 3.69922 4.2539.73828.61328 1.03515-.61328-1.03515-3.59375-2.30469-.84375 2.30469-.23828 4.4414-.47656 1.02735.71484 3.41015 1.67578 4.4375-1.1914.48047-.48438 2.89453-4.4375-3.375-3.58594v-.3164l3.66797 3.90234-2.19531 4.4375-1.47266 1.48828-4.4375 1.07422-4.4375-.67969-1.25 2.5547-3.1914 1.89843-2.28516-1.89844-2.15234-2.47656-1.3711-1.96094"/><path fill="#00b8fc" fill-rule="evenodd" d="M268.14453 431.50781l-2.4336-4.4375 2.5625-3.03515 4.4375.55468 4.44141-.17968 4.4375-.38282 4.4375-.54296v.3125l-4.4375 1.16015-4.4375.33985-4.4414.52734-4.4375.03906-1.01953 1.20703 1.01953 1.8789 4.4375.23048 4.4414.3711 2.82422 1.95702 1.61328.79297 2.81641-.79297 1.6211-.21094 3.07812-4.22656-3.07813-3.27344v-.3125l3.375 3.58594-2.89453 4.4375-.48047.48438-4.4375 1.1914-3.41015-1.67578-1.02735-.71484-4.4414.47656-2.30469.23828 2.30469.84375 1.03515 3.59375-1.03515.61328-.73828-.61328-3.69922-4.2539-.1289-.1836"/><path fill="#00a8fc" fill-rule="evenodd" d="M268.27344 428.94922l-1.01953-1.8789 1.01953-1.20704 4.4375-.03906 4.4414-.52735 4.4375-.33984 4.4375-1.16015v.3164l-4.4375 1.76953-4.4375.30078-4.4414.875-.11719.01172.11719.01563 4.4414 1.22265 4.4375 2.8711 4.4375-.28906 2.78125-3.82032-2.78125-2.95703v-.3164l3.07813 3.27343-3.07813 4.22656-1.62109.21094-2.8164.79297-1.61329-.79297-2.82422-1.95703-4.4414-.3711-4.4375-.23046"/><path fill="#009800" fill-rule="evenodd" d="M272.71094 427.08594l-.11719-.01563.11719-.01172 4.4414-.875 4.4375-.30078 4.4375-1.76953v.3125l-4.4375 2.38672-4.39843.25781 4.39843.88672 4.4375 2.52735 2.48438-3.41407-2.48438-2.64453v-.3125l2.78125 2.95703-2.78125 3.82031-4.4375.28907-4.4375-2.8711-4.4414-1.22265"/><path fill="#00ac00" fill-rule="evenodd" d="M281.58984 427.95703l-4.39843-.88672 4.39843-.25781 4.4375-2.38672v.3164l-4.04296 2.32813 4.04296 3.00781 2.1875-3.0078-2.1875-2.32813v-.3164l2.48438 2.64452-2.48438 3.41406-4.4375-2.52734"/><path fill="#00c800" fill-rule="evenodd" d="M286.02734 430.07813l-4.04296-3.00782 4.04296-2.32812v.6289l-2.94921 1.69922 2.94921 2.1914 1.59766-2.1914-1.59766-1.69922v-.6289l2.1875 2.32812-2.1875 3.00781"/><path fill="#10cc00" fill-rule="evenodd" d="M286.02734 429.26172l-2.94921-2.1914 2.94921-1.69923V426l-1.85546 1.07031 1.85546 1.3789 1.00391-1.3789L286.02735 426v-.6289l1.59765 1.69921-1.59766 2.1914"/><path fill="#24d000" fill-rule="evenodd" d="M286.02734 428.44922l-1.85546-1.3789L286.02733 426v.6289l-.76171.44141.76171.5664.41407-.5664-.41407-.4414V426l1.00391 1.07031-1.0039 1.3789"/><path fill="#3cd800" fill-rule="evenodd" d="M286.02734 427.63672l-.76171-.5664.76171-.44141.41407.4414-.41407.5664"/><path fill="#50fcfc" fill-rule="evenodd" d="M299.34375 458.4375l-.33594-.30078.33594-.29688 4.4375-2.74609 1.35938-1.39453 3.07812-2.48047 4.4375-.07813v3.3125h-4.4375l-3.59375 3.6836 3.59375 2.11328 4.4375.00781 4.4414-1.78125.44923-.33984-.44922-.8125-4.44141-2.8711v-3.3125l4.4414.58985 2.94141 1.96875.82031 4.4375-3.76171 2.85156-4.44141.9414-4.4375.33594-4.4375-.55859-4.4375-3.26953"/><path fill="#00e8fc" fill-rule="evenodd" d="M308.21875 460.25l-3.59375-2.11328 3.59375-3.6836h4.4375l4.4414 2.8711.44923.8125-.44922.33984-4.44141 1.78125-4.4375-.00781"/><path fill="#50fcfc" fill-rule="evenodd" d="M325.97266 458.96484l-1.89063-.82812.82813-4.4375 1.0625-1.65235 4.4375-2.30468 1.49609-.48047 2.9414-1.5 4.44141 1.17969.96875.3203-.17187 4.4375-.79688.61329-4.4414 2.72656-.85157 1.09766-3.58593 2.58984-4.4375-1.76172m124.27343 4.96094l-1.27343-1.35156 1.27343-1.39453 2.22657-3.04297 2.21093-2.03906v3.15625l-2.82812 3.3203 2.82812 1.96095 3.6172-1.96094-3.6172-3.32031v-3.15625l4.44141-.11329 3.6211-2.28515.8164-1.07813.83984 1.07813-.83984.8164-2.27734 3.6211.1289 4.4375-2.28906 2.28125-4.4414 1.1836-4.4375-2.11329"/><path fill="#00e8fc" fill-rule="evenodd" d="M454.6836 464.53516l-2.82813-1.96094 2.82812-3.32031 3.6172 3.3203-3.6172 1.96095"/><g clip-path="url(#c)"><path fill="#fff" fill-opacity="0" fill-rule="evenodd" d="M467.9961 480.32813H468V311.67188h-.0039H468v168.65625h-.0039"/></g><path fill="#fff" fill-opacity="0" fill-rule="evenodd" d="M237.20703 408.57031l2.66016 5.19922 8.86719-4.53125-2.65625-5.20312-8.8711 4.53515"/><path fill-rule="evenodd" d="M246.03906 407.98828l.23047.45313-5.60547 2.86328-.35937-.69922 4-2.04297-.63281-1.23828.49609-.2539.3125.46874.16016.20313.1875.16406.21484.11328.26953.0625.32422-.00781.40234-.08594"/><path fill="#fff" fill-opacity="0" fill-rule="evenodd" d="M250.24219 437.36719l3.6836-4.52735-7.72267-6.28906-3.6875 4.53125 7.72657 6.28516"/><path fill-rule="evenodd" d="M246.14453 429.52344l.32031-.39453 4.88282 3.97265-.4961.61328-3.48047-2.83593-.8789 1.07812-.42969-.35156.30469-.47656.11719-.22657.07421-.23437.01953-.25-.05468-.26563-.13672-.29687-.24219-.33203"/><g clip-path="url(#d)"><path fill="none" stroke="#000" stroke-linecap="round" stroke-linejoin="round" stroke-miterlimit="10" stroke-width=".5" d="M143.25 476.89453l1.5 6.86719"/></g><g clip-path="url(#e)"><path fill="none" stroke="#000" stroke-linecap="round" stroke-linejoin="round" stroke-miterlimit="10" stroke-width=".5" d="M155.19922 477.52344l4.23437 5.60937"/></g><path fill="none" stroke="#000" stroke-linecap="round" stroke-linejoin="round" stroke-miterlimit="10" stroke-width=".5" d="M155.8125 478.33984l.51953-1.11328"/><g clip-path="url(#f)"><path fill="none" stroke="#000" stroke-linecap="round" stroke-linejoin="round" stroke-miterlimit="10" stroke-width=".5" d="M168.36328 477.64453l4.53125 5.3711"/></g><path fill="none" stroke="#000" stroke-linecap="round" stroke-linejoin="round" stroke-miterlimit="10" stroke-width=".5" d="M169.02344 478.42578l.45703-1.14062"/><g clip-path="url(#g)"><path fill="none" stroke="#000" stroke-linecap="round" stroke-linejoin="round" stroke-miterlimit="10" stroke-width=".5" d="M181.32813 477.98438l5.23437 4.6875"/></g><path fill="none" stroke="#000" stroke-linecap="round" stroke-linejoin="round" stroke-miterlimit="10" stroke-width=".5" d="M182.08984 478.66797l.29297-1.1914"/><g clip-path="url(#h)"><path fill="none" stroke="#000" stroke-linecap="round" stroke-linejoin="round" stroke-miterlimit="10" stroke-width=".5" d="M193.79297 480.91016l6.9336-1.16016"/></g><g clip-path="url(#i)"><path fill="none" stroke="#000" stroke-linecap="round" stroke-linejoin="round" stroke-miterlimit="10" stroke-width=".5" d="M209.6836 483.72656l1.78515-6.79687"/></g><g clip-path="url(#j)"><path fill="none" stroke="#000" stroke-linecap="round" stroke-linejoin="round" stroke-miterlimit="10" stroke-width=".5" d="M225.60938 483.39453l-3.4375-6.13281"/></g><g clip-path="url(#k)"><path fill="none" stroke="#000" stroke-linecap="round" stroke-linejoin="round" stroke-miterlimit="10" stroke-width=".5" d="M240.3711 481.85156l-6.33204-3.04687"/></g><g clip-path="url(#l)"><path fill="none" stroke="#000" stroke-linecap="round" stroke-linejoin="round" stroke-miterlimit="10" stroke-width=".5" d="M254.02734 480.51172l-7.01562-.36719"/></g><g clip-path="url(#m)"><path fill="none" stroke="#000" stroke-linecap="round" stroke-linejoin="round" stroke-miterlimit="10" stroke-width=".5" d="M253.00781 480.46094l.51953 1.10937"/></g><g clip-path="url(#n)"><path fill="none" stroke="#000" stroke-linecap="round" stroke-linejoin="round" stroke-miterlimit="10" stroke-width=".5" d="M267.25 479.5l-6.82813 1.65625"/></g><g clip-path="url(#o)"><path fill="none" stroke="#000" stroke-linecap="round" stroke-linejoin="round" stroke-miterlimit="10" stroke-width=".5" d="M266.25781 479.74219l.8125.91797"/></g><g clip-path="url(#p)"><path fill="none" stroke="#000" stroke-linecap="round" stroke-linejoin="round" stroke-miterlimit="10" stroke-width=".5" d="M280.48047 479.20703l-6.66016 2.2461"/></g><g clip-path="url(#q)"><path fill="none" stroke="#000" stroke-linecap="round" stroke-linejoin="round" stroke-miterlimit="10" stroke-width=".5" d="M279.51172 479.53125l.89062.84375"/></g><g clip-path="url(#r)"><path fill="none" stroke="#000" stroke-linecap="round" stroke-linejoin="round" stroke-miterlimit="10" stroke-width=".5" d="M293.85547 479.39844l-6.77735 1.85937"/></g><g clip-path="url(#s)"><path fill="none" stroke="#000" stroke-linecap="round" stroke-linejoin="round" stroke-miterlimit="10" stroke-width=".5" d="M293.85547 479.39844l1.6836 1.78515"/></g><g clip-path="url(#t)"><path fill="none" stroke="#000" stroke-linecap="round" stroke-linejoin="round" stroke-miterlimit="10" stroke-width=".5" d="M307.2539 479.79297l-6.9453 1.07422"/></g><g clip-path="url(#u)"><path fill="none" stroke="#000" stroke-linecap="round" stroke-linejoin="round" stroke-miterlimit="10" stroke-width=".5" d="M307.2539 479.79297l1.46876 1.96484"/></g><g clip-path="url(#v)"><path fill="none" stroke="#000" stroke-linecap="round" stroke-linejoin="round" stroke-miterlimit="10" stroke-width=".5" d="M320.60156 480.57813l-7.01172-.5"/></g><g clip-path="url(#w)"><path fill="none" stroke="#000" stroke-linecap="round" stroke-linejoin="round" stroke-miterlimit="10" stroke-width=".5" d="M320.60156 480.57813l.99219 2.24218"/></g><g clip-path="url(#x)"><path fill="none" stroke="#000" stroke-linecap="round" stroke-linejoin="round" stroke-miterlimit="10" stroke-width=".5" d="M333.85938 479.64453l-6.89454 1.36719"/></g><g clip-path="url(#y)"><path fill="none" stroke="#000" stroke-linecap="round" stroke-linejoin="round" stroke-miterlimit="10" stroke-width=".5" d="M333.85938 479.64453l1.55078 1.90235"/></g><g clip-path="url(#z)"><path fill="none" stroke="#000" stroke-linecap="round" stroke-linejoin="round" stroke-miterlimit="10" stroke-width=".5" d="M345.90625 477.57031l-4.35938 5.51563"/></g><path fill="none" stroke="#000" stroke-linecap="round" stroke-linejoin="round" stroke-miterlimit="10" stroke-width=".5" d="M345.90625 477.57031l2.41406.4414m-3.05078.36329l1.20703.21875"/><g clip-path="url(#A)"><path fill="none" stroke="#000" stroke-linecap="round" stroke-linejoin="round" stroke-miterlimit="10" stroke-width=".5" d="M358.69531 477.23047l-3.3086 6.19922"/></g><path fill="none" stroke="#000" stroke-linecap="round" stroke-linejoin="round" stroke-miterlimit="10" stroke-width=".5" d="M358.21484 478.1289l1.22657.00391"/><g clip-path="url(#B)"><path fill="none" stroke="#000" stroke-linecap="round" stroke-linejoin="round" stroke-miterlimit="10" stroke-width=".5" d="M373.25781 478.34766l-5.80078 3.96484"/></g><path fill="none" stroke="#000" stroke-linecap="round" stroke-linejoin="round" stroke-miterlimit="10" stroke-width=".5" d="M372.41406 478.92188l1.08594.5703"/><g clip-path="url(#C)"><path fill="none" stroke="#000" stroke-linecap="round" stroke-linejoin="round" stroke-miterlimit="10" stroke-width=".5" d="M386.91797 478.98438l-6.49219 2.6875"/></g><g clip-path="url(#D)"><path fill="none" stroke="#000" stroke-linecap="round" stroke-linejoin="round" stroke-miterlimit="10" stroke-width=".5" d="M386.91797 478.98438l1.89453 1.55859"/></g><g clip-path="url(#E)"><path fill="none" stroke="#000" stroke-linecap="round" stroke-linejoin="round" stroke-miterlimit="10" stroke-width=".5" d="M399.5039 477.8789l-5.03515 4.89844"/></g><path fill="none" stroke="#000" stroke-linecap="round" stroke-linejoin="round" stroke-miterlimit="10" stroke-width=".5" d="M399.5039 477.8789l2.33594.75"/><g clip-path="url(#F)"><path fill="none" stroke="#000" stroke-linecap="round" stroke-linejoin="round" stroke-miterlimit="10" stroke-width=".5" d="M411.9414 477.22266l-3.28124 6.21093"/></g><path fill="none" stroke="#000" stroke-linecap="round" stroke-linejoin="round" stroke-miterlimit="10" stroke-width=".5" d="M411.9414 477.22266l2.45313-.00782"/><g clip-path="url(#G)"><path fill="none" stroke="#000" stroke-linecap="round" stroke-linejoin="round" stroke-miterlimit="10" stroke-width=".5" d="M426.54297 478.38672l-5.85547 3.88281"/></g><path fill="none" stroke="#000" stroke-linecap="round" stroke-linejoin="round" stroke-miterlimit="10" stroke-width=".5" d="M425.6914 478.95313l1.07813.58203"/><g clip-path="url(#H)"><path fill="none" stroke="#000" stroke-linecap="round" stroke-linejoin="round" stroke-miterlimit="10" stroke-width=".5" d="M439.84766 478.36719l-5.83204 3.92187"/></g><path fill="none" stroke="#000" stroke-linecap="round" stroke-linejoin="round" stroke-miterlimit="10" stroke-width=".5" d="M439 478.9375l1.08203.57813"/><g clip-path="url(#I)"><path fill="none" stroke="#000" stroke-linecap="round" stroke-linejoin="round" stroke-miterlimit="10" stroke-width=".5" d="M452.27344 477.46094l-4.05469 5.73828"/></g><path fill="none" stroke="#000" stroke-linecap="round" stroke-linejoin="round" stroke-miterlimit="10" stroke-width=".5" d="M451.6836 478.29297l1.21874.15625"/><g clip-path="url(#J)"><path fill="none" stroke="#000" stroke-linecap="round" stroke-linejoin="round" stroke-miterlimit="10" stroke-width=".5" d="M465.86719 477.67578l-4.60938 5.30469"/></g><path fill="none" stroke="#000" stroke-linecap="round" stroke-linejoin="round" stroke-miterlimit="10" stroke-width=".5" d="M465.19531 478.44922l1.19531.27734"/><g clip-path="url(#K)"><path fill="none" stroke="#000" stroke-linecap="round" stroke-linejoin="round" stroke-miterlimit="10" stroke-width=".5" d="M147.07031 465.3086l-6.14062 3.41015"/></g><path fill="none" stroke="#000" stroke-linecap="round" stroke-linejoin="round" stroke-miterlimit="10" stroke-width=".5" d="M146.17969 465.80469l1.02734.66797m12.23438-2.25782l-4.25391 5.59766m3.63672-4.78125l1.21094.19531m12.79687-.94922L168.4297 469.75m3.76172-4.67578l1.20312.22656m12.64063-1.10937l-4.1836 5.64453m3.57813-4.82422l1.21094.1836m14.05078 1.0625l-6.86328 1.51171m5.86328-1.29297l.79687.9375m12.02734 2.52735l-3.8828-5.85547m3.3203 5.0039l-.58593 1.07813m14.3125-.13281l-3.58203-6.04297m18.08203 4.89453l-5.94922-3.7461m5.08203 3.19922l-.08984 1.22266m14.76953-2.01172l-6.94531-1.07422m5.93359.91797l.40625 1.16016m13.94531-1.8789l-6.99219.67577m5.97657-.57812l.67578 1.02344m13.5625-1.64454l-6.8086 1.72266m5.82032-1.47266l.82422.91016m13.48437-1.14844l-6.82031 1.69922m5.82812-1.44922l.82032.91016m13.58984-.22266l-7.02344-.17578m7.02344.17578l1.09766 2.19532m12.21875-2.19532l-7.02735-.17578m7.02735.17578l1.09765 2.19532m12.19922-1.94532l-6.99219-.67578m6.99219.67578l.9414 2.26563m12.06641-1.125l-6.375-2.95703m6.375 2.95703l.13282 2.44922m13.42578-4.6836l-6.86328 1.51172m5.86328-1.29297l.79687.9336m13.48828-1.26953l-6.80468 1.74609m5.8164-1.49219l.82813.90625m13.57812-.51562l-7.01172.45703m5.99219-.39063l.64453 1.04297m13.25-2.59765l-6.1289 3.43359m6.1289-3.4336l2.0664 1.32813m11.28516-1.26172l-6.20312 3.30078m6.20312-3.30078l2.03516 1.3711m-2.9375-.89063l1.01953.6875m13.39844-.72266l-6.60156 2.41016m6.60156-2.41016l1.82422 1.64063m11.42969.92578l-6.48047-2.72266m6.48047 2.72266l.21875 2.44531m11.35156-6.98437L448.75 470.1914m2.5586-5.4297l1.22656-.0625m8.52343 4.78126l5.00391-4.9336m-4.27344 4.21485l-1.17187-.36328"/><g clip-path="url(#L)"><path fill="none" stroke="#000" stroke-linecap="round" stroke-linejoin="round" stroke-miterlimit="10" stroke-width=".5" d="M147.14453 452.1289l-6.28906 3.13673"/></g><path fill="none" stroke="#000" stroke-linecap="round" stroke-linejoin="round" stroke-miterlimit="10" stroke-width=".5" d="M146.23047 452.58594l.9961.71484m13.23437-1.16797l-6.29297 3.13282m5.3789-2.67579l.9961.71094m13.02344-1.53125l-5.875 3.85547m5.01953-3.29297l1.07812.58985m13.47266-.38672l-6.63281 2.32812m5.66797-1.99219l.90234.83204m13.57422.05859l-7.02735-.125m6.00391.10547l.5586 1.09375M214 454.49219l-6.84766-1.58594m5.85157 1.35547l.3164 1.1836m13.86719-.53126l-6.59375-2.4336m5.63281 2.08204l.16797 1.21484m13.94922-.49609l-6.27344-3.16406m5.35938 2.70312l.02734 1.22657m10.23828 1.0664l1.65235-6.82812m16 3.52343l-7.02344-.21875m20.0586-1.26953l-6.46485 2.75782m5.52344-2.35938l.95703.77344m13.28515-1.20313l-6.4375 2.82032m5.5-2.41016l.96485.76172m13.22265 1.78906l-6.30468-3.10156m5.38672 2.64844l.03906 1.22656m13.02734.57422l-3.97265-5.79688m3.39453 4.95313l-.57032 1.08593m15.9297-3.80078l-6.90235 1.32032m5.89844-1.12891l.76953.95703m13.42187-1.6289l-6.64844 2.27734m5.6797-1.94531l.89843.83984m13.57422-.0039l-7.02735-.0547m6.00391.04688l.57031 1.08594m12.80469-3.52344l-5.09766 4.83594m19.25391-3.33594l-6.78125 1.83594m15.0039 2.15625l3.40235-6.14844m-2.90625 5.2539l-1.22656-.01952m19.19922-1.50391l-6.90235-1.3125m20.20703-.0586l-6.8828 1.4297m6.8828-1.4297l1.56641 1.88672m11.63281-.04687l-6.65234-2.2539m6.65234 2.2539l.39844 2.42187m13.07422-3.09375l-6.96875-.90625m5.95703.77344l.42969 1.14844m9.67187 1.96484l1.48438-6.86718m-1.26953 5.86718l-1.1797.33594"/><g clip-path="url(#M)"><path fill="none" stroke="#000" stroke-linecap="round" stroke-linejoin="round" stroke-miterlimit="10" stroke-width=".5" d="M146.97266 438.51172l-5.94532 3.74219"/></g><path fill="none" stroke="#000" stroke-linecap="round" stroke-linejoin="round" stroke-miterlimit="10" stroke-width=".5" d="M146.97266 438.51172l2.1289 1.21875m11.61719-.21485l-6.8086 1.73438m5.82032-1.48047l.82422.90625m13.57422-.6211l-6.9961.65626m5.97656-.5586l.67579 1.02344m13.52734-1.79687l-6.73438 2.01172m5.75391-1.71875l.86328.87109m13.57422-.3164l-7.01953.3125m6-.26563l.6211 1.05469m13.57812.03515l-6.7461-1.96094m5.76563 1.67579l.25 1.20312m14.04688-.91797l-6.75-1.95703m5.76562 1.67188l.2539 1.19921m14.16407-1.5078L233.71484 440m6.98438.76953l.90625 2.28125m12.38672-3.21875l-6.9414 1.10156m5.92968-.9414l.73828.98047m13.38672-1.875l-6.53906 2.5703m5.58593-2.1953l.9336.79687m7.13672-1.82812l5.85546 3.88672m-5.0039-3.32422l.1211-1.21875m17.23046 5.51562l-3.91797-5.83203m3.34766 4.98047l-.57813 1.08594m15.4961-1.3086l-5.98438-3.6875m5.11328 3.15235l-.07812 1.22265m14.64062-1.53515l-6.73828-1.9922m5.75781 1.70313l.2461 1.20313m13.02734-4.52344L328.06641 443m4.0078-4.47266l1.19141.29688m12.92188-.94922l-4.92188 5.01562m4.20704-4.28515l1.17578.34765m13-.92187l-5.21485 4.70703m4.45703-4.02344l1.15235.41797m11.21484-2.14453l-1.80078 6.79297m1.53906-5.80469l1.19532-.28125m9.17578.03516l4.60937 5.30469m-3.9375-4.53125l.4375-1.14844m11.29688 1.60937l6.42578 2.83594m-5.49219-2.42187l-.08984-1.22266m12.26562 1.41406l6.83594 1.6289m-5.83984-1.39452l-.3086-1.1875m12.55469 2.16797l6.98047-.8047m-5.96485.6875l-.6953-1.01171m19.21484 2.9375l-5.45704-4.42188m4.66407 3.78125l-.23438 1.20313m15.09375-3.2461l-6.96094.94532m6.96094-.94531l1.4336 1.99218m5.32812.1836l6.14453-3.40625m-5.25 2.91015l-1.02734-.66797"/><g clip-path="url(#N)"><path fill="none" stroke="#000" stroke-linecap="round" stroke-linejoin="round" stroke-miterlimit="10" stroke-width=".5" d="M147.19922 425.61719l-6.39844 2.90234"/></g><path fill="none" stroke="#000" stroke-linecap="round" stroke-linejoin="round" stroke-miterlimit="10" stroke-width=".5" d="M147.19922 425.61719l1.94531 1.4961m11.28516-1.66798l-6.23047 3.2461m6.23047-3.2461l2.02344 1.39063m11.59375-.58203l-6.83594 1.6289m6.83594-1.6289l1.625 1.84375m11.73437-.42188l-6.92188-1.21484m6.92188 1.21484l.75781 2.33594m12.52344-2.17578l-6.85547-1.53516m6.85547 1.53516l.65234 2.36719m12.72266-2.69532l-6.97266-.8789m6.97266.8789l.8711 2.29297m12.4375-2.2539l-6.96094-.95704m5.94922.81641l.42187 1.15234m13.66406-.1328l-6.48047-2.71485m5.53907 2.32031l.11328 1.21875m14.35547-1.53516l-6.90625-1.29297m5.90234 1.10547l.36719 1.17188m13.29297.5l-5.58594-4.26172m4.77344 3.64453l-.19922 1.20703m14.89844-3.73828l-6.72657 2.03516m6.72657-2.03516l1.72656 1.74219m9.54687 2.53125l-2.64453-6.51172m2.64453 6.51172l-1.57422 1.88281m15.81641-2.4414l-4.5-5.39454m4.5 5.39453l-.92578 2.27344m14.88672-2.98437l-5.79297-3.97266m4.94922 3.39453l-.13672 1.21875m14.91016-2.76953l-7.02344.28516m6-.24219l.6211 1.0586m11.92187-4.02344l-3.4297 6.1328m14.84767-6.57812l.36328 7.01954m-.3086-5.9961l1.05078-.63281m9.77735.76953l5.22656 4.69922m9.5039-5.65234l2.39454 6.60546m9.64844-5.80078l4.9414 4.9961m-4.22265-4.26953l.36718-1.17188m11.32422 3.92188l6.75-1.95704m-6.75 1.95703l-1.70703-1.76171m15.17578 2.1875l6.4414-2.8086m-6.4414 2.8086l-1.92187-1.52735m17.15234 3.38672l2.61328-6.52734m-2.61328 6.52734l-2.4375.26172m16.30469-.09375L451 423.63672M449.71484 429.5l-1.18359.33203m16.92188.19531l-3.78516-5.91796"/><g clip-path="url(#O)"><path fill="none" stroke="#000" stroke-linecap="round" stroke-linejoin="round" stroke-miterlimit="10" stroke-width=".5" d="M147.19531 412.29297l-6.39062 2.92187"/></g><path fill="none" stroke="#000" stroke-linecap="round" stroke-linejoin="round" stroke-miterlimit="10" stroke-width=".5" d="M147.19531 412.29297l1.94922 1.48828m11.32813-1.5664l-6.31641 3.07812m6.3164-3.07813l1.98438 1.44532m11.58984-.72266l-6.83593 1.63281m6.83594-1.63281l1.625 1.83984m11.78125-1.22656l-7.01563.40234m7.01563-.40234l1.27343 2.09766m11.54297-.07813l-6.01562-3.63281m6.01562 3.63281l-.13672 2.44922m13.33203-2.26953l-5.78125-3.9961m5.78125 3.9961l-.28515 2.4375m13.99219-3.17578l-6.5625-2.51563m6.5625 2.51563l.30078 2.4336m13.08593-2.63673l-6.70312-2.10937m5.72656 1.80078l.22266 1.20703m13.14062.58985l-4.84765-5.08594m4.14062 4.34765l-.38672 1.16407m12.26953.53125l-.5703-7.00391m.5703 7.0039l-2.0625 1.32813m14.52344-1.36328l1.13672-6.9336m15.20703 5.97657l-4.91797-5.01953m4.20313 4.28906l-.3711 1.17188m14.32032-.3672l-4.76172-5.16796m4.07031 4.41797l-.40625 1.15625m14.19531-.21875l-4.32422-5.53906m3.69532 4.73046l-.5 1.1211m11.40625.32031l1.75-6.80469m-1.4961 5.8164l-1.1914.28517m11.75-3.66407l6.7578 1.92969m-5.77343-1.64844l-.25781-1.19922m14.39062-1.2578l3.15235 6.28124m-2.6914-5.36719l.71093-1m11 1l5.4375 4.44922m-4.64453-3.80078l.23828-1.20312m12.8789-.01953l4.25 5.59765m-4.25-5.59765l1.03125-2.22657m11.45313 3.125l5.91016 3.80469m-5.91016-3.80469l.20703-2.44531m.65234 3l.10547-1.22266m12.48438.47657l5.64453 4.1875m-5.64453-4.1875l.36328-2.42579m12.48828 3.27344L426.90234 415m-6.5703-2.49219l-.3086-2.4336m1.26562 2.79688l-.15625-1.21875m12.52344 3.375l6.55078-2.55078m-6.55078 2.55078l-1.85938-1.59765m16.71875 3.3789l3.46485-6.11328m-3.46485 6.11328l-2.45312-.0625m2.95703-.82422l-1.22656-.03515m14.02344.91406l3.49218-6.09766m-2.98437 5.21094l-1.22656-.03906"/><g clip-path="url(#P)"><path fill="none" stroke="#000" stroke-linecap="round" stroke-linejoin="round" stroke-miterlimit="10" stroke-width=".5" d="M146.95313 398.53516l-5.90625 3.80468"/></g><path fill="none" stroke="#000" stroke-linecap="round" stroke-linejoin="round" stroke-miterlimit="10" stroke-width=".5" d="M146.95313 398.53516l2.14062 1.19921m10.90234-1.5664l-5.35937 4.54297m5.35937-4.54297l2.27735.90625m11.19922-.69922l-5.6875 4.1289m4.85937-3.52734l1.10547.53516m13.5625 1.92969l-6.73438-2.00391m17.1797 4.48047l-.9922-6.95703m.84766 5.94531l-.99219.72266m15.65625-.1172l-3.40625-6.14452m2.91407 5.25l-.67188 1.02734m15.39844-.86719l-5.24219-4.67968m5.24219 4.67968l-.58203 2.38282m14.1211-2.66016l-5.69142-4.1211m5.69141 4.1211l-.33594 2.42969m14.31641-4.33985l-7.01953-.30468m5.9961.26171l.53124 1.10547m10.82422 2.25782l-1.05469-6.94532m1.0547 6.94532l-1.96876 1.46484m12.1836-2.54297l5.14453-4.78906m-4.39453 4.09375l-1.16016-.39844m17.71484 1.91406l-2.83203-6.42968m12.04688.94921l5.36718 4.53125m-4.58593-3.87109l.2578-1.19922m11.51563 3.5039l6.88672-1.39452m6.3711.97656l7.0039-.5625m8.39063-2.92969l2.84375 6.42578m-2.42969-5.49218l.75781-.96485m10.28906 1.97266l6.55079 2.53906m-5.59766-2.16797l-.14844-1.21875m12.94531 4.1875l5.6797-4.13672m-5.6797 4.13672l-2.20703-1.07422m19.64453-4.26562l-2.5664 6.54297m2.19531-5.58985l1.21875-.14062m12.51953-.79297l-2.66797 6.5m2.66797-6.5l2.4414-.24219m-2.82812 1.1875l1.21875-.1211m9.66016-.7539l2.98047 6.36328m-2.54688-5.4375l.73438-.98046m13.48047-.27344l.3086 7.01953m-.3086-7.01953l2.11328-1.2461m-2.0664 2.26563l1.05468-.6211m12.625-.39453l-.51172 7.00782m.51172-7.00782l2.2461-.98828m-2.32032 2.00781l1.1211-.49609m8.98437 4.76172l6.05469-3.5625m-6.05469 3.5625l-2.09375-1.28125m2.97656.76563l-2.09375-1.28516m15.46485 2.84375l4.17968-5.64844m-4.17968 5.64844l-2.4297-.36328"/><g clip-path="url(#Q)"><path fill="none" stroke="#000" stroke-linecap="round" stroke-linejoin="round" stroke-miterlimit="10" stroke-width=".5" d="M146.58203 384.74219l-5.16406 4.76172"/></g><path fill="none" stroke="#000" stroke-linecap="round" stroke-linejoin="round" stroke-miterlimit="10" stroke-width=".5" d="M146.58203 384.74219l2.3164.8086m10.9961-.8125l-5.16016 4.76952m5.16016-4.76953l2.3164.8086m8.1875-1.9297l.46095 7.01173m-.39454-5.9922l1.04688-.64452m9.35937 1.42969l6.14844 3.40234m-5.2539-2.91016l.02343-1.22656m12.33203 4.01172l6.28125-3.15235m-6.28125 3.15235l-2.0039-1.41797m16.71094 2.89063l3.49218-6.09766m-3.49219 6.09765l-2.44921-.07421m19.55078-.11329l-4.07813-5.72265m4.07813 5.72265l-1.09375 2.19532m.5-3.02735l-.54688 1.09766m15.92969-3.04297l-7.02734-.16797m7.02734.16797l1.10156 2.1914m10.75.57813l-4.10156-5.70703m4.10156 5.70703l-1.08594 2.19922m15.51954-3.53515l-6.33594-3.03516m5.41406 2.59375l.05078 1.22656m13.19532.45313l-4.35547-5.51172m18.80859 1.58984l-6.6289 2.33594m6.6289-2.33594l1.80469 1.66016m-2.76953-1.32031l.90234.82812m12.99219-1.9414l-5.85938 3.8789m5.85938-3.8789l2.15625 1.16796m-3.00781-.60547l2.15625 1.17188m11.58203-2.26172l-5.00391 4.9336m5.0039-4.9336l2.33985.73438m-3.0664-.01563l2.33984.73438m12.54687-.0547l-6.69531 2.13673m6.69531-2.13672l1.75781 1.71094m-2.73046-1.40235l.8789.85938m13.54297-.57032l-6.96484.94141m6.96484-.9414l1.4336 1.99609m11.6289-2.91406l-6.45703 2.77734m6.45703-2.77735l1.91406 1.53516m11.23829-1.86328l-6.12891 3.4375m6.1289-3.4375l2.0625 1.32422m-2.95703-.82422l1.03516.66016m11.99219-2.41016l-3.76563 5.9336m3.76563-5.9336l2.44531.1875m9.5586-.6875l-1.14454 6.9336m1.14453-6.9336l2.32422-.78516m11.82422 1.03125l-2.8125 6.44141m2.8125-6.4414l2.44531-.1875m-2.85546 1.125l1.22265-.09376m11.34375-1.1289l-.49219 7.01172m.4922-7.01172l2.23827-.9961m-2.3125 2.01563l2.24219-.9961m11.14063-.02343l-.48047 7.01172m.48046-7.01172l2.2422-1m-2.3125 2.01953l1.12109-.5m8.51562 2.80078l7.01563.3711m10.85937 3.16796l-2.10156-6.70703m2.10156 6.70703l-1.72656 1.7461m1.41797-2.72266l-.85938.875"/><g clip-path="url(#R)"><path fill="none" stroke="#000" stroke-linecap="round" stroke-linejoin="round" stroke-miterlimit="10" stroke-width=".5" d="M145.80078 370.78906l-3.60156 6.03516"/></g><path fill="none" stroke="#000" stroke-linecap="round" stroke-linejoin="round" stroke-miterlimit="10" stroke-width=".5" d="M145.27734 371.66797l1.22266.0625m12.3125-1.10156l-2.9961 6.35546m2.9961-6.35546l2.45313-.1172m9.54687-.21093l-.36328 7.01563m.36328-7.01563l2.22266-1.03906m-2.27735 2.0586l1.11328-.51954m10.10157.10156l3.9453 5.8125m-3.9453-5.8125l1.14453-2.17187m-.57031 3.01562l.5703-1.08203m11.07032 1.4414l6.14453 3.40626m-6.14453-3.40625l.04297-2.45313m.85156 2.94922l.01953-1.22656m12 1.91016l6.94922 1.04687m-5.9375-.89453l-.41016-1.15625m17.08594 4.92578l-1.79687-6.79687m1.79687 6.79687l-1.80078 1.66406m1.53906-2.65625l-.90234.83594m17-2.4336L233.78516 373m6.83984 1.61719l.6211 2.375m-1.6172-2.60938l.3125 1.1875m14.0547-2.27734l-6.94923 1.03125m6.94922-1.03125l1.45703 1.97265m11.89063-1.29296l-7.01953-.32813m7.01953.32813l1.05078 2.21875m-2.07031-2.26563l1.05078 2.21875m13.125-3.39844l-6.69922 2.125m6.69922-2.125l1.7539 1.71875m-2.72656-1.41015l.875.85937m12.56641-2.57031l-5.0039 4.92969m5.0039-4.92969l2.33984.73438m-3.0664-.01954l1.16797.3672m11.49218-1.94532l-2.24609 6.65625m2.2461-6.65625l2.42187-.40235m-2.7461 1.3711l1.21094-.20313m11.91016-.89843l-1.20703 6.92187m1.20703-6.92187l2.33203-.76172m-2.50781 1.76953l1.16797-.38281m13.6953-.07032l-3.94921 5.8125m3.94922-5.8125l2.4375.26563m-3.01172.57812l1.21875.13282m13.26172-.47266l-5.13281 4.80078m5.1328-4.80078l2.32032.79688m11.82031.6914l-6.78515 1.82813m6.78515-1.82813l1.67579 1.79297m-2.66407-1.52734l.83985.89843m13.09375-2.03906l-6.04688 3.57813m6.04688-3.57813l2.09765 1.27735m-2.97656-.75782l1.04688.64063m12.41015-2.03906l-4.57422 5.33593m4.57422-5.33594l2.39453.53516m-3.0586.24219l1.19532.26562m12.71485-1.10156l-4.4336 5.45313m4.4336-5.45313l2.40625.47266m10.6289-.67578l-3.875 5.85937m3.875-5.85937l2.4414.23046m-3.0039.6211l1.21875.11719m12.45313-1.09766l-3.46094 6.11719m3.46094-6.11719l2.45312.0625m-2.95703.82813l1.22656.03125m13.08594-.58204l-4.44922 5.4375m4.44922-5.4375l2.40625.48047m-3.05469.3086l2.40625.48046m12.36719 3.21875l-6.07031-3.53906m6.07031 3.53906l-.09375 2.44922m12.46484-1.39453l-4.18359-5.64844m4.1836 5.64844l-1.0547 2.21485m.44532-3.03907l-.52735 1.10938"/><g clip-path="url(#S)"><path fill="none" stroke="#000" stroke-linecap="round" stroke-linejoin="round" stroke-miterlimit="10" stroke-width=".5" d="M143.44922 357.02344l1.10156 6.9414"/></g><g clip-path="url(#T)"><path fill="none" stroke="#000" stroke-linecap="round" stroke-linejoin="round" stroke-miterlimit="10" stroke-width=".5" d="M143.60938 358.03125l.98046-.73828"/></g><path fill="none" stroke="#000" stroke-linecap="round" stroke-linejoin="round" stroke-miterlimit="10" stroke-width=".5" d="M157.10547 356.98438L157.52344 364m-.41797-7.01563l2.09375-1.27734m11.91797 1.30469l-.97266 6.96094m.97266-6.96094l2.30469-.83985m-2.44532 1.85547l2.30469-.84375m12.14844.125l-2.96875 6.3672m2.96875-6.3672l2.45312-.1289M185 358.23438l1.22266-.0625m12.30078-.95704l-2.52735 6.5547m2.52735-6.5547l2.4375-.29296m-2.80469 1.24609l1.21875-.14844m14.52734 1.34375L207.25 361.625m6.65234-2.26172l1.78907 1.67969m9.6328 2.65625l-2.86718-6.41406m2.86719 6.41406l-1.5039 1.9375m1.08593-2.8711l-.75.96875m16.39844-2.17578l-6.69531-2.1328m6.6953 2.1328l.4375 2.41407m-1.41405-2.72266l.22265 1.20703m14.16016-1.25781l-6.88281-1.41406m6.8828 1.41406l.69532 2.35547m-1.69531-2.5625l.6914 2.35547m13.6875-3.10157l-7.0078.4961m7.0078-.4961l1.30078 2.07813m-2.3203-2.00781l1.30077 2.08203m12.98828-2.51563l-6.91796 1.22266m6.91797-1.22266l1.51171 1.9336m-2.51562-1.75782l1.50781 1.9336m12.47266-3.11328l-6.24219 3.23046m6.24219-3.23046l2.01953 1.39453m-2.92578-.92578l1.00781.69921m12.33984-2.2539l-4.49218 5.40234m4.49218-5.40234l2.40235.5m-3.05469.28515l1.19922.25M319.5 357.9297l-4.8086 5.125m4.8086-5.125l2.36719.64453m11.26953-.29688l-5.44922 4.4336m5.44922-4.4336l2.26172.95313m-3.05469-.3086l2.26172.95313m12.16015-1.14453l-6.07812 3.52734m6.07812-3.52734l2.08204 1.29297m11.24218-1.27735l-6.09765 3.4922m6.09765-3.4922l2.07813 1.3086m11.59375-.42578l-6.8125 1.72656m6.8125-1.72656l1.64844 1.8164m11.13671-2.97265l-5.75 4.03906m5.75-4.03906l2.1875 1.11328m-3.02343-.52344l1.09375.55469m12.67187-1.60156l-4.98047 4.95312m4.98047-4.95313l2.34766.72657m-3.07031-.0039l1.17187.35937m12.65625-1.27735l-4.5625 5.34375m4.5625-5.34375l2.39453.53125m-3.0586.2461l1.19923.26562m13.08593-.7461l-5.17187 4.75391m5.17187-4.7539l2.3125.8125m-3.0664-.1211l2.3164.8125m12.12891-1.01953l-5.92578 3.78125m5.92578-3.78125l2.13672 1.20703m-3-.65625l2.13672 1.20704m-3-.65625l1.07031.60546m14.41406-.67578l-6.8125 1.71875m6.8125-1.71875l1.64844 1.82031m-2.63672-1.5703l1.64453 1.8203m12.64063-.27343l-6.77344-1.8711m6.77344 1.8711l.53125 2.39453m-1.51563-2.66797l.53125 2.39453"/><g clip-path="url(#U)"><path fill="none" stroke="#000" stroke-linecap="round" stroke-linejoin="round" stroke-miterlimit="10" stroke-width=".5" d="M140.65625 348.25781l6.6875-2.16015"/></g><path fill="none" stroke="#000" stroke-linecap="round" stroke-linejoin="round" stroke-miterlimit="10" stroke-width=".5" d="M156.53906 343.75l1.55078 6.85547m-1.32422-5.85547l.9297-.80078m13.83202-.16797l-1.79297 6.79297m1.79297-6.79297l2.38672-.5625m10.8711.54688l-1.6797 6.82421m1.4375-5.83203l1.1875-.29687m13.42188-.24219l-3.78515 5.92188m3.78515-5.92188l2.44532.19531m12.3164 1.67188l-6.67969 2.1836m6.6797-2.1836l1.76952 1.69922m11.34766.96484l-6.28516-3.14453m6.28516 3.14453l.0625 2.45313m-.97656-2.91016l.0625 2.45312m13.8789-1.51562l-5.70312-4.10547m5.70312 4.10547l-.33203 2.4336m-.5-3.03126l-.33203 2.4336m14.84375-2.48047l-6.4375-2.8164m6.4375 2.8164l.1875 2.44922m-1.125-2.85938l.1875 2.44922m-1.1211-2.85938l.09376 1.22657m15.3789-2.07031l-7.0078.51171m7.0078-.51171l1.3086 2.07421m-2.32813-2l1.3086 2.07813m-2.32813-2.0039l.65234 1.03906m14.32813-2.52735l-6.26172 3.1914m6.26172-3.1914l2.01172 1.40625m-2.92188-.9414l2.00782 1.40625M292.73828 344.5l-4.54687 5.35938m4.54687-5.35938l2.39844.52344m-3.0586.2539l1.19922.26172m13.19141-.625l-5.375 4.52735m5.375-4.52735l2.27734.91406m-3.05859-.2539l1.13672.45703m13.23437-.73828l-5.92578 3.76953m5.92578-3.76953l2.13672 1.20703m-2.9961-.66016l1.06641.60547m12.64454-1.73437l-5 4.9375m5-4.9375l2.34375.73047m-3.07032-.01563l1.17188.36719m12.73047-1.21875l-4.71875 5.20703m4.71875-5.20703l2.3789.60156m-3.0664.15625l1.1914.30078m13.96094 1.6836l-7.01953-.27735m7.01953.27735l1.0664 2.21093m12.19532-2.98828l-6.91016 1.27735m6.91016-1.27735l1.52344 1.92188m-2.53125-1.73438l.76562.96094m12.91016-2.61719l-5.6211 4.21485m5.6211-4.21485l2.22265 1.04297m-3.03906-.42969l1.10938.51954m13.45312-.38282l-6.48047 2.71485m6.48047-2.71485l1.89844 1.55469m11.17187-2.03516l-5.99218 3.67579m5.99218-3.67579l2.11329 1.2461m-2.98438-.71094l1.05469.625m12.96094-1.41406l-5.64844 4.1836m5.64844-4.1836l2.21484 1.0586m-3.03906-.44923l2.21484 1.05469m12.44922-.6289l-6.69922 2.11327m6.69922-2.11328l1.75 1.72266m-2.72266-1.41406l1.75 1.71875m-2.72656-1.41016l.875.85938m14.41016-1.40625l-6.74219 1.97265m6.74219-1.97265l1.71484 1.7539m-2.69531-1.46875l1.71484 1.75781m-2.69531-1.46875l1.71484 1.75391m13.6797-1.76172l-6.97657.83985"/><g clip-path="url(#V)"><path fill="none" stroke="#000" stroke-linecap="round" stroke-linejoin="round" stroke-miterlimit="10" stroke-width=".5" d="M467.05078 346.75781l1.40235 2.01172"/></g><path fill="none" stroke="#000" stroke-linecap="round" stroke-linejoin="round" stroke-miterlimit="10" stroke-width=".5" d="M466.03516 346.8789l1.40234 2.01173m-2.41797-1.88672l1.40235 2.01171"/><g clip-path="url(#W)"><path fill="none" stroke="#000" stroke-linecap="round" stroke-linejoin="round" stroke-miterlimit="10" stroke-width=".5" d="M147.4336 333.11328l-6.8672 1.5"/></g><path fill="none" stroke="#000" stroke-linecap="round" stroke-linejoin="round" stroke-miterlimit="10" stroke-width=".5" d="M146.4336 333.33203l.79296.9336m12.78516-2.65235l-5.39453 4.5m4.60937-3.84765l1.13672.46484m12.98047-1.09766l-5.42969 4.46094m5.42969-4.46094l2.26563.9414m10.21093-1.68358l-3.75 5.9453m3.75-5.9453l2.44531.17968m11.83985.73438l-5.6914 4.11719m5.6914-4.1172l2.20312 1.07813m-3.03125-.48047l1.10157.53907m13.6875 1.33203l-6.98047-.82031m6.98047.8203l.89062 2.28516m12.41016-2.1875l-6.95313-1.01562m6.95313 1.01562l.82812 2.3086m-1.83984-2.45703l.82812 2.30859m13.09375-.96094l-6.14453-3.41406m6.14453 3.41406l-.04297 2.45313m-.85156-2.94922l-.04297 2.45312m-.85156-2.95312l-.04297 2.45703m15.5625-2.7539l-6.97656-.82813m6.97656.82812l.89063 2.28516m-1.90235-2.40625l.88672 2.28516m-1.90234-2.40625l.44531 1.14453m14.91406-1.55469l-7.0078.47656m7.0078-.47656l1.29688 2.08203m-2.3164-2.01172l1.29687 2.08203m-2.3164-2.01562l.64843 1.04297m14.4414-2.30078l-6.48046 2.71875m6.48046-2.71875l1.90235 1.55078m-2.84375-1.15625l1.89844 1.55078m12.14453-2.36719l-6.05469 3.5625m6.05469-3.5625l2.09375 1.28125m-2.97266-.76562l1.04688.64062m13.22265-1.02344l-6.20703 3.29688m6.20703-3.29688l2.03516 1.375m11.53906-.74609l-6.72266 2.03906m6.72266-2.03906l1.73047 1.73828m-2.70703-1.4414l.86328.86718m13.1875-1.76172l-6.23828 3.23438m6.23828-3.23438l2.01953 1.39063m-2.92969-.92188l2.01953 1.39454m12.27735-1.71094l-6.38672 2.92969m6.38672-2.9297l1.95312 1.48829m-2.8828-1.0625l1.95312 1.48828m12.59765-.10156l-6.99219-.69922m6.9922.69922l.92968 2.27344m-1.94922-2.375l.92969 2.27343m13.3711-3.11719l-6.92579 1.19532m6.92578-1.19531l1.5039 1.9375m-2.51171-1.76563l1.5039 1.9414m11.9336-3.89843l-5.16016 4.76562m5.16016-4.76562l2.3164.8086m-3.0664-.1172l1.16016.40625m12.93359-1.0703l-5.21484 4.71093m5.21484-4.71094l2.3086.83594m11.8125.6875l-6.82813 1.66406m6.82812-1.66406l1.63282 1.83203m11.77734-1.1875l-7.01563.375m7.01563-.375l1.26562 2.09766m-2.28515-2.04297l1.26562 2.10156m13.06641-2.21875l-7.01172.5m7.01172-.5l1.30078 2.08203m-2.32031-2.00781l1.30078 2.07813m-2.32031-2.00782l.64843 1.04297m14.58204-1.88672l-6.76563 1.89844m6.76563-1.89844l1.6953 1.77735m-2.67968-1.5l1.69531 1.77343m-2.67968-1.5l1.6953 1.77735m-2.67968-1.5l.84766.88672m15.39843-1.78907l-6.72265 2.04688"/><g clip-path="url(#X)"><path fill="none" stroke="#000" stroke-linecap="round" stroke-linejoin="round" stroke-miterlimit="10" stroke-width=".5" d="M466.92188 332.83984l1.73437 1.73438"/></g><path fill="none" stroke="#000" stroke-linecap="round" stroke-linejoin="round" stroke-miterlimit="10" stroke-width=".5" d="M465.94531 333.13672l1.73438 1.73437m-2.71485-1.4375l1.73438 1.73829m-2.71094-1.4375l.86719.86718"/><g clip-path="url(#Y)"><path fill="none" stroke="#000" stroke-linecap="round" stroke-linejoin="round" stroke-miterlimit="10" stroke-width=".5" d="M146.9961 318.71094l-5.9922 3.67187"/></g><path fill="none" stroke="#000" stroke-linecap="round" stroke-linejoin="round" stroke-miterlimit="10" stroke-width=".5" d="M146.9961 318.71094l2.11327 1.2461m11.07813-1.4297l-5.7461 4.04297m4.91016-3.45703l1.09375.55469m12.7539-1.51563l-5.14062 4.79297m5.14063-4.79297l2.32031.79688m10.80078-.99219l-4.75 5.17969m4.75-5.17969l2.375.61719m11.61719.23047l-6.10156 3.48828m6.10156-3.48828l2.07422 1.3086m11.69922.5625l-7.02344-.25782m7.02344.25781l1.07031 2.20703m-2.08984-2.24219l.53515 1.10157m13.47266.29297l-6.36719-2.97657m6.36719 2.97657l.125 2.45312m-1.05078-2.88672l.125 2.45313m14.26172-2.38672l-6.66016-2.23828m6.66016 2.23828l.40234 2.41797m-1.3711-2.7461l.40235 2.42188m14.01563-2.61328l-6.92579-1.19922m6.92578 1.19922l.76172 2.33203m-1.76953-2.50781l.76172 2.33203m-1.76953-2.50781l.38281 1.16796m14.92188-2.14453l-6.875 1.45703m6.875-1.45703l1.57422 1.8789m-2.57422-1.66796l1.57422 1.8789m12.20312-3.34374l-5.80078 3.96484m5.80078-3.96484l2.17578 1.13671m-3.01953-.5625l1.08594.57032m12.60937-1.69531l-4.875 5.0625m4.875-5.0625l2.35938.67187m-3.0664.0664l1.17968.33594m13.91406 1.25391l-7.01562.41016m5.9961-.35157l.63671 1.04688m13.6836-.53516l-6.98829-.73047m6.98828.73047l.92188 2.27344m-1.9375-2.3789l.46094 1.13671m13.73437-2.42969l-6.71875 2.0625m6.71875-2.0625l1.73828 1.73438m-2.71484-1.4336l1.73828 1.73048m12.51953-2.13672l-6.64844 2.27734m6.64844-2.27734l1.79297 1.67578m-2.76172-1.34375l1.79297 1.67578m12.46484-2.08203l-6.59765 2.42187m6.59765-2.42187l1.82813 1.63672m-2.78906-1.28516l1.82812 1.63672m12.36719-2.1875l-6.4375 2.82031m6.4375-2.82031l1.92578 1.52344m-2.86328-1.11329l1.92578 1.52344m11.6875-2.90625l-5.16016 4.76953m5.16016-4.76953l2.3164.8086m-3.0664-.1172l2.3164.8125m11.10157-2.05468l-3.86328 5.86719m3.86328-5.86719l2.44531.23047m12.44531 2.48828l-7.01562.4336m5.9961-.3711l.64062 1.04688m13.20703.89843l-6.04297-3.58593m6.04297 3.58593l-.11328 2.45313m13.85547-4.92188l-6.89453 1.35547m6.89453-1.35547l1.54687 1.90235m-2.55078-1.70703l1.55078 1.90625m12.54688-2.81641l-6.45313 2.78125m6.45313-2.78125l1.91406 1.53516m-2.85156-1.12891l1.91406 1.53516m-2.85547-1.12891l1.91797 1.53125m-2.85547-1.1289l.95703.76562m14.99219-2.34375l-6.08594 3.51172"/><g clip-path="url(#Z)"><path fill="none" stroke="#000" stroke-linecap="round" stroke-linejoin="round" stroke-miterlimit="10" stroke-width=".5" d="M466.60547 318.79297l2.07812 1.30078"/></g><g clip-path="url(#aa)"><path fill="none" stroke="#000" stroke-linecap="round" stroke-linejoin="round" stroke-miterlimit="10" stroke-width=".5" d="M465.71875 319.30469l2.08203 1.30078"/></g><path fill="none" stroke="#000" stroke-linecap="round" stroke-linejoin="round" stroke-miterlimit="10" stroke-width=".5" d="M464.83203 319.8125l2.08203 1.30078m-2.96484-.78906l1.03906.65234"/><path fill="#00f" fill-rule="evenodd" d="M445.9375 467.64844h8.61719V457.5039h-8.61719v10.14453"/><path fill="azure" fill-rule="evenodd" d="M447.76953 459.33594h.83203v2.82422h3.28906v-2.82422h.83204v6.48047h-.83204v-2.91797h-3.28906v2.91797h-.83203v-6.48047"/><path fill="#ff3030" fill-rule="evenodd" d="M348.98828 449.89453h7.6914V439.75h-7.6914v10.14453"/><path fill="azure" fill-rule="evenodd" d="M350.82031 441.58203h.83203v5.73828h3.19532v.74219h-4.02735v-6.48047"/><path fill="#00f" fill-rule="evenodd" d="M414.86719 441.01953h8.6211V430.8711h-8.6211v10.14844"/><path fill="azure" fill-rule="evenodd" d="M416.70313 432.70703h.83203v2.82031h3.28515v-2.8203h.83594v6.47655h-.83594v-2.91406h-3.28515v2.91406h-.83204v-6.47656"/><path fill="#00f" fill-rule="evenodd" d="M259.52734 436.57813h8.6172v-10.14454h-8.6172v10.14454"/><path fill="azure" fill-rule="evenodd" d="M261.35938 428.26563h.83203v2.82421h3.28906v-2.82421h.83203v6.48046h-.83203v-2.91406h-3.28906v2.91406h-.83204v-6.48046"/><path fill="#ff3030" fill-rule="evenodd" d="M167.01563 427.70313h7.6914v-10.14454h-7.6914v10.14454"/><path fill="azure" fill-rule="evenodd" d="M168.84766 419.39063h.83203v5.73828h3.19531v.74218h-4.02734v-6.48046"/><path fill="#00f" fill-rule="evenodd" d="M370.48438 401.07422h8.62109v-10.14844h-8.6211v10.14844"/><path fill="azure" fill-rule="evenodd" d="M372.3164 392.76172h.83594v2.82031h3.28516v-2.82031h.83203v6.47656h-.83203v-2.91406h-3.28516v2.91406h-.83593v-6.47656"/><path fill="#00f" fill-rule="evenodd" d="M201.82813 396.63281h8.61718v-10.14453h-8.61719v10.14453"/><path fill="azure" fill-rule="evenodd" d="M203.66016 388.32031h.83203v2.82422h3.28906v-2.82422h.83203v6.48047h-.83203v-2.91406h-3.28906v2.91406h-.83203v-6.48047"/><path fill="#ff3030" fill-rule="evenodd" d="M340.10938 387.75781h7.6953v-10.14453h-7.6953v10.14453"/><path fill="azure" fill-rule="evenodd" d="M341.94531 379.44531h.83203v5.73828h3.19532v.7422h-4.02735v-6.48048"/><path fill="#ff3030" fill-rule="evenodd" d="M282.41406 383.32031h7.6914v-10.14844h-7.6914v10.14844"/><path fill="azure" fill-rule="evenodd" d="M284.2461 375.00781h.83202v5.73828h3.19532v.7422h-4.02735v-6.48048"/><path fill="#ff3030" fill-rule="evenodd" d="M442.1914 383.32031h7.69532v-10.14844h-7.69531v10.14844"/><path fill="azure" fill-rule="evenodd" d="M444.02734 375.00781h.83204v5.73828h3.1953v.7422h-4.02734v-6.48048"/><path fill="#ff3030" fill-rule="evenodd" d="M198.08203 356.6875h7.69531v-10.14453h-7.6953v10.14453"/><path fill="azure" fill-rule="evenodd" d="M199.91797 348.375h.83203v5.74219h3.19531v.73828h-4.02734V348.375"/><path fill="#ffffe0" fill-rule="evenodd" d="M190.83984 431.21875h22.1797v-10.19531h-22.1797v10.19531"/><path fill-rule="evenodd" d="M194.33984 422.85938h.50782v6.29296h-.78516v-4.48828h-1.39063v-.55469l.5625-.0664.25-.05469.23047-.08984.20313-.14063.17578-.21094.14063-.29296.10546-.39454m4.8125 0l.23047.01563.21875.0586.20703.08984.19532.1211.1875.14843.16797.17578.30468.41797.24219.4961.17969.54296.11328.58203.03516.58985-.03516.59375-.11328.58203-.17969.55469-.24219.5039-.30469.42578-.16796.17969-.1875.15625-.19532.1211-.20703.09374-.21875.0547-.23047.01952-.23047-.01953-.21875-.05469-.20703-.09375-.1953-.12109-.1836-.15625-.17188-.17969-.30078-.42578-.2461-.5039-.17968-.5547-.10938-.58202-.03906-.59375h.83203l.03125.5625.08203.5078.125.44142.16016.375.1914.30078.21095.22265.22265.13672.22656.04688.22657-.04688.22265-.13672.21094-.22265.1914-.30079.16016-.375.1289-.4414.08204-.50781.02734-.5625-.02734-.5625-.08203-.5-.1289-.4336-.16016-.36719-.19141-.29296-.21094-.21094-.22265-.13281-.22657-.04688-.22656.04688-.22266.1328-.21093.21095-.1914.29296-.16017.3672-.125.43359-.08203.5-.03125.5625h-.83203l.03906-.58985.10938-.58203.17969-.54297.2461-.4961.30077-.41796.17188-.17578.1836-.14844.1953-.1211.20703-.08984.21875-.05859.23047-.01563m5.09375 0h.50782v6.29297h-.78907v-4.48828h-1.38672v-.55469l.5586-.0664.2539-.05469.23047-.08984.20313-.14063.17187-.21094.14063-.29296.10937-.39454m2.82032 2.17579h.78906l.01953-.31641.0586-.28906.09765-.25.14063-.21485.18359-.17578.22266-.1289.26562-.08204.3086-.02734.23437.02344.22656.0625.20313.10156.17968.13672.14844.17578.11328.20313.07031.23828.02735.26172-.02344.26953-.0664.22656-.10938.1914-.15625.17188-.19922.16016-.2461.16797-.63671.38671-.53516.3125-.4375.32032-.34765.32422-.26563.33593-.1875.34766-.125.3711-.07031.39452-.01953.41797h4.21094v-.73828h-3.33204l.08203-.28515.11329-.23829.14843-.19921.1875-.1836.23047-.16797.28125-.17578.71485-.41797.41406-.20703.34766-.23047.28125-.25.21875-.26562.16406-.28125.10937-.28125.0664-.28516.01954-.28125-.04297-.38281-.1211-.34766-.1875-.30859-.25-.26563-.30468-.21093-.34375-.16016-.3789-.09765-.40626-.03125-.4375.03125-.39843.09765-.35547.16797-.30469.23438-.2461.30468-.1875.375-.11327.44531-.04297.51954"/><path fill="#ffffe0" fill-rule="evenodd" d="M417.19531 423.3086H439.375v-10.19141h-22.17969v10.1914"/><path fill-rule="evenodd" d="M420.69531 414.94922h.50781v6.29297h-.78515v-4.48828h-1.39063v-.5547l.5625-.0664.25-.05469.23047-.08984.20313-.14062.17578-.21094.14062-.29297.10547-.39453m4.8125 0l.23047.01953.21875.05469.20703.08984.19922.1211.1836.14843.17187.17578.30078.41797.24219.4961.17969.54687.11328.57813.03906.58984-.03906.59375-.11328.58594-.1797.55078-.24218.5039-.30078.4297-.17188.17968-.18359.15234-.19922.1211-.20703.09375-.21875.05469-.23047.02343-.22656-.02344-.21875-.05468-.21094-.09375-.19531-.1211-.1836-.15234-.17187-.17969-.30078-.42969-.2461-.5039-.17968-.55078-.10938-.58594-.03906-.59375h.83203l.03125.5625.08203.50781.125.4414.16407.375.1875.30079.21093.22266.22266.13671.22656.04688.22656-.04688.22266-.13671.21094-.22266.1914-.30078.16407-.375.125-.4414.08203-.50782.02734-.5625-.02734-.5586-.08203-.5039-.125-.4336-.16406-.36718-.19141-.29297-.21094-.21094-.22265-.13281-.22657-.04297-.22656.04297-.22266.13281-.21093.21094-.1875.29297-.16407.36719-.125.43359-.08203.5039-.03125.5586h-.83203l.03906-.58984.10938-.57813.17969-.54687.24609-.4961.30078-.41797.17188-.17578.18359-.14844.19531-.12109.21094-.08984.21875-.05469.22656-.01953m5.09375 0h.50781v6.29297h-.78515v-4.48828h-1.39063v-.5547l.5586-.0664.2539-.05469.23047-.08984.20313-.14062.17187-.21094.14453-.29297.10547-.39453m2.82422 2.17578h.78516l.01953-.3164.0586-.28907.10156-.25.13671-.21484.1836-.17578.22265-.12891.26563-.07813.3086-.02734.23827.01953.22266.0625.20313.10156.17968.13672.14844.17579.11328.20312.07031.23828.02735.26563-.02344.26562-.0664.22656-.10938.19141-.15625.17188-.19922.16015-.2461.16797-.6328.38672-.53907.3164-.4375.31641-.34765.32422-.26172.33594-.19141.35156-.125.36719-.07031.39453-.01953.41797h4.21093v-.73828h-3.33203l.08203-.28516.11329-.23828.14843-.19922.1875-.17969.23047-.17187.28125-.17578.71485-.41797.41796-.20313.34375-.23437.28125-.25.21875-.26563.16407-.27734.11328-.28516.0625-.28515.01953-.28125-.04297-.38282-.11719-.34765-.1914-.3086-.25-.26171-.30079-.21485-.34765-.15625-.3789-.10156-.40626-.03125-.4375.03125-.39844.09765-.35156.16797-.30469.23438-.25.30469-.18359.375-.11719.4453-.03906.51954"/><path fill="#ffffe0" fill-rule="evenodd" d="M347.89453 370.23438h22.17969v-10.19141h-22.17969v10.1914"/><path fill-rule="evenodd" d="M351.39453 361.875h.50781v6.29688h-.78515v-4.48829h-1.39063v-.55859l.5625-.0625.25-.05469.23047-.08984.20313-.14063.17578-.21093.14062-.29297.10547-.39844m4.8125 0l.23047.01953.21875.0586.20703.08593.19922.1211.1836.15234.17187.17578.30078.41797.24219.49219.17969.54687.11328.58203.03906.58985-.03906.59375-.11329.58203-.17968.55469-.24219.5039-.30078.42578-.17188.1797-.18359.15233-.19922.125-.20703.09375-.21875.0547-.23047.01952-.22656-.01953-.21875-.05469-.21094-.09375-.19531-.125-.1836-.15234-.17187-.17969-.30078-.42578-.24219-.5039-.1836-.5547-.10937-.58202-.03906-.59375h.83203l.03125.5625.08203.50781.125.4414.16406.375.1875.30079.21094.21875.22266.13672.22656.04687.22656-.04687.22266-.13672.21094-.21875.1914-.30078.16407-.375.125-.44141.08203-.50781.02734-.5625-.02734-.5625-.08203-.5-.125-.4336-.16407-.36718-.1914-.29297-.21094-.21485-.22266-.1289-.22656-.04688-.22656.04688-.22266.1289-.21094.21485-.1875.29297-.16406.36718-.125.4336-.08203.5-.03125.5625h-.83203l.03906-.58985.10938-.58203.1836-.54687.24218-.49219.30078-.41797.17188-.17578.18359-.15234.19531-.1211.21094-.08594.21875-.05859.22656-.01953m5.09375 0h.50781v6.29688h-.78515v-4.48829h-1.39063v-.55859l.5625-.0625.25-.05469.23047-.08984.20313-.14063.17187-.21093.14453-.29297.10547-.39844m2.82422 2.17578h.78516l.01953-.3164.0586-.28516.10155-.2539.13672-.21485.1836-.17188.22265-.1289.26563-.08203.3086-.02735.23827.02344.22266.0625.20312.10156.1797.13672.14843.17188.11328.20703.07031.23828.02735.26172-.02344.26953-.0664.22656-.10938.1914-.15235.16798-.20312.16406-.2461.16797-.6328.38672-.53907.3125-.4375.3164-.34766.32422-.26171.33594-.19141.35156-.125.3711-.07031.39453-.01954.41796h4.21094v-.74218h-3.33203l.08203-.28125.11719-.23828.14453-.20313.1875-.17969.23438-.17187.27734-.17578.71484-.41406.41797-.20704.34375-.23046.28125-.25.21875-.26954.16406-.27734.11329-.28125.0625-.28516.01953-.28125-.04297-.38671-.11719-.34766-.1914-.30469-.25-.26562-.30079-.21094-.34765-.16016-.3789-.09765-.40626-.03516-.4375.03516-.39453.09765-.35547.16797-.30469.23438-.25.30078-.18359.375-.11719.44922-.03906.51562"/><path fill="#ffffe0" fill-rule="evenodd" d="M248.53906 355.92188h22.17969v-10.19141h-22.17969v10.1914"/><path fill-rule="evenodd" d="M252.03906 347.5625h.50781v6.29297h-.78515v-4.48828h-1.39063v-.55469l.5586-.0664.2539-.0547.23047-.08984.20313-.14062.17187-.20703.14453-.29688.10547-.39453m4.8125 0l.23047.01953.21875.05469.20703.08984.19531.1211.1836.14843.17187.17579.3047.42187.24218.49219.17969.54687.10937.57813.03906.58984-.03906.59375-.10937.58594-.1797.55469-.24218.5-.30469.42968-.17187.1797-.1836.15233-.1953.1211-.20704.09375-.21875.0586-.23047.01952-.23047-.01953-.21875-.0586-.20703-.09374-.19531-.1211-.1836-.15234-.17187-.17969-.30469-.42968-.24218-.5-.1797-.5547-.10937-.58593-.03906-.59375h.83203l.02735.5625.08203.50781.1289.44141.16016.375.1914.30078.21094.22266.22266.13672.22656.04687.22656-.04687.22266-.13672.21094-.22266.1914-.30078.16016-.375.1289-.4414.07813-.50782.03125-.5625-.03125-.5586-.07812-.5-.1289-.4375-.16017-.36718-.1914-.28906-.21094-.21485-.22265-.1328-.22657-.04298-.22656.04297-.22266.13281-.21093.21485-.19141.28906-.16016.36719-.1289.4375-.08203.5-.02735.5586h-.83203l.03906-.58985.10938-.57813.17969-.54687.24218-.49219.3047-.42188.17187-.17578.18359-.14843.19531-.1211.20703-.08984.21875-.05469.23047-.01953m5.08985 0h.51171v6.29297h-.78906v-4.48828h-1.38672v-.55469l.5586-.0664.2539-.0547.22657-.08984.20703-.14062.17187-.20703.14063-.29688.10547-.39453m2.82421 2.17578h.78907l.01953-.3164.0586-.28516.09765-.2539.14062-.21485.1797-.17578.22655-.1289.26563-.07813.30469-.02735.23828.01953.22656.0625.20313.10157.17968.14062.14844.17188.11328.20703.07031.23437.02344.26563-.01953.26953-.0664.22265-.10938.19141-.15625.17188-.19922.16406-.2461.16406-.63671.39063-.53516.3125-.4375.3164-.34765.32422-.26563.33594-.1875.35156-.125.36719-.07031.39453-.01953.41797h4.21093v-.73828h-3.33203l.08203-.28516.11329-.23828.14843-.19922.1875-.17969.23047-.17187.27735-.17578.71875-.41797.41406-.20313.34765-.23046.28125-.25391.21875-.26563.16407-.27734.10937-.28516.0664-.28515.01954-.28125-.04297-.38281-.1211-.34766-.1875-.3086-.25-.26171-.30468-.21485-.34375-.15625-.38281-.09765-.40625-.03516-.4336.03125-.39844.10156-.35546.16406-.3047.23438-.24608.30469-.1875.375-.1172.44531-.03906.51953"/><path fill="#ffffe0" fill-rule="evenodd" d="M221.91016 381.8711h22.17968v-10.19141h-22.17968v10.1914"/><path fill-rule="evenodd" d="M225.40625 373.51172h.51172v6.29687h-.78906v-4.48828h-1.38672v-.5586l.5586-.0625.2539-.05468.22656-.08984.20313-.14063.17578-.21094.14062-.29296.10547-.39844m4.8164 0l.22657.01953.21875.0586.21094.08593.1953.1211.1836.15234.17188.17578.30078.41797.2461.49219.17968.54687.10938.58203.03906.58985-.03906.59375-.10938.58203-.17969.55469-.2461.5039-.30077.42578-.17188.17969-.1836.15234-.1953.125-.21094.09375-.21875.0547-.22656.01952-.23047-.01953-.21875-.05469-.20703-.09375-.19922-.125-.1836-.15234-.17187-.17969-.30078-.42578-.24219-.5039-.17969-.5547-.11328-.58202-.03906-.59375h.83594l.02734.5625.08203.5039.125.44531.16406.375.19141.30079.21094.21875.22265.13671.22657.04688.22656-.04688.22266-.13671.21093-.21875.1875-.30079.16406-.375.125-.4453.08204-.50391.03125-.5625-.03125-.5625-.08203-.5-.125-.4336-.16407-.36719-.1875-.29296-.21094-.21485-.22265-.1289-.22656-.04688-.22657.04688-.22265.1289-.21094.21485-.1914.29296-.16407.3672-.125.43359-.08203.5-.02734.5625h-.83594l.03906-.58985.11328-.58203.17969-.54687.24219-.4922.30078-.41796.17187-.17578.1836-.15235.19922-.12109.20703-.08594.21875-.05859.23047-.01953m5.08984 0h.50781v6.29687h-.78515v-4.48828h-1.38672v-.5586l.5586-.0625.25-.05468.23046-.08984.20313-.14063.17578-.21094.14062-.29296.10547-.39844m2.82422 2.17578h.78516l.01953-.3164.0625-.28516.09765-.2539.14063-.21485.17969-.17188.22265-.1289.26563-.08204.30859-.02734.23828.02344.22266.0625.20312.10156.17969.13672.14844.17188.11328.20703.07422.23828.02344.26172-.01954.26953-.0664.22265-.10938.19532-.15625.16796-.20312.16407-.2461.16406-.6328.39063-.53907.3125-.4375.3164-.34375.32422-.26563.33594-.1914.35156-.125.3711-.0664.39452-.02345.41797h4.21485v-.74218H238.875l.08594-.28125.11328-.23829.14844-.20312.1875-.17969.23047-.17187.27734-.17578.71875-.41407.41406-.20703.34766-.23047.27734-.25.22266-.26953.16015-.27734.11328-.28516.0625-.28125.01954-.28125-.03907-.38672-.12109-.34765-.1914-.30469-.25-.26563-.30079-.21093-.34375-.16016-.38281-.09765-.40625-.03516-.4336.03515-.39843.09766-.35547.16797-.30469.23438-.25.30078-.1836.375-.11718.44921-.03906.51563"/><path fill="#ffffe0" fill-rule="evenodd" d="M275.16797 430.42188h22.17969v-10.19141h-22.1797v10.1914"/><path fill-rule="evenodd" d="M278.66797 422.0625h.50781v6.29688h-.78515v-4.4922H277v-.55468l.5625-.0664.25-.05079.23047-.08984.20312-.14063.17579-.21093.14062-.29688.10547-.39453m4.8125 0l.23047.01953.21875.05469.20703.08984.19922.1211.1836.14843.17187.17579.30078.42187.24219.49219.17968.54687.11328.57813.03907.59375-.03907.58984-.11328.58594-.17969.55469-.24218.5-.30078.42968-.17188.1797-.1836.15233-.19921.125-.20703.08985-.21875.0586-.23047.01952-.22656-.01953-.21875-.0586-.21094-.08983-.19531-.125-.1836-.15235-.17187-.17969-.30078-.42968-.2461-.5-.17969-.5547-.10937-.58593-.03906-.58984h.83203l.03125.5625.08203.5039.125.44532.16406.375.1875.29687.21094.22266.22266.13672.22656.04687.22656-.04687.22266-.13672.21094-.22266.1914-.29687.16406-.375.125-.44532.08204-.5039.02734-.5625-.02735-.5625-.08203-.5-.125-.4375-.16406-.36328-.1914-.29297-.21094-.21485-.22266-.1328-.22656-.04298-.22656.04297-.22266.13281-.21094.21485-.1875.29297-.16406.36328-.125.4375-.08203.5-.03125.5625h-.83203l.03906-.59375.10938-.57813.17968-.54687.2461-.49219.30078-.42188.17187-.17578.1836-.14843.1953-.1211.21095-.08984.21875-.05469.22656-.01953m5.09375 0h.50781v6.29688h-.78515v-4.4922h-1.39063v-.55468l.5586-.0664.2539-.05079.23047-.08984.20312-.14063.17188-.21093.14453-.29688.10547-.39453m2.82422 2.17578h.78515l.01954-.3164.05859-.28516.10156-.2539.13672-.21485.1836-.17188.22265-.1289.26563-.08203.30859-.02735.23828.01953.22266.0625.20312.10157.17969.14062.14844.17188.11328.20703.07031.23437.02734.26563-.02343.26953-.06641.22265-.10938.19141-.15625.17188-.19921.16406-.2461.16406-.63672.39063-.53515.3125-.4375.3164-.34766.32422-.26172.33594-.1914.35156-.125.3711-.07032.39062-.01953.42188h4.21094v-.7422h-3.33203l.08203-.28515.11328-.23437.14844-.20313.1875-.17969.23047-.17187.28125-.17578.71484-.41406.41797-.20704.34375-.23046.28125-.25.21875-.26954.16406-.27734.11328-.28516.0625-.28515.01954-.28125-.04297-.38281-.1172-.34766-.1914-.3086-.25-.26171-.30078-.21094-.34765-.16016-.37891-.09765-.40625-.03516-.4375.03516-.39844.09765-.35156.16406-.30469.23438-.25.30469-.1836.375-.11718.44531-.03906.51953"/></g></defs><use xlink:href="#ab"/></svg>