<svg xmlns="http://www.w3.org/2000/svg" role="img" xmlns:xlink="http://www.w3.org/1999/xlink" viewBox="142.45 309.95 326.84 171.84"><defs><clipPath id="a"><path d="M144 311.67188h1v168.65625h-1zm0 0"/></clipPath><clipPath id="b"><path d="M144 311.67188h324v168.65625H144zm0 0"/></clipPath><clipPath id="c"><path d="M467 311.67188h1v168.65625h-1zm0 0"/></clipPath><clipPath id="d"><path d="M144 477h3v3.32813h-3zm0 0"/></clipPath><clipPath id="e"><path d="M156 476h3v4.32813h-3zm0 0"/></clipPath><clipPath id="f"><path d="M169 476h4v4.32813h-4zm0 0"/></clipPath><clipPath id="g"><path d="M182 476h4v4.32813h-4zm0 0"/></clipPath><clipPath id="h"><path d="M193 479h8v1.32813h-8zm0 0"/></clipPath><clipPath id="i"><path d="M208 477h5v3.32813h-5zm0 0"/></clipPath><clipPath id="j"><path d="M220 477h7v3.32813h-7zm0 0"/></clipPath><clipPath id="k"><path d="M233 480h8v.32813h-8zm0 0"/></clipPath><clipPath id="l"><path d="M239 480h2v.32813h-2zm0 0"/></clipPath><clipPath id="m"><path d="M247 478h7v2.32813h-7zm0 0"/></clipPath><clipPath id="n"><path d="M252 479h3v1.32813h-3zm0 0"/></clipPath><clipPath id="o"><path d="M260 478h8v2.32813h-8zm0 0"/></clipPath><clipPath id="p"><path d="M265 479h3v1.32813h-3zm0 0"/></clipPath><clipPath id="q"><path d="M273 478h8v2.32813h-8zm0 0"/></clipPath><clipPath id="r"><path d="M286 479h9v1.32813h-9zm0 0"/></clipPath><clipPath id="s"><path d="M292 479h2v1.32813h-2zm0 0"/></clipPath><clipPath id="t"><path d="M300 479h8v1.32813h-8zm0 0"/></clipPath><clipPath id="u"><path d="M305 480h2v.32813h-2zm0 0"/></clipPath><clipPath id="v"><path d="M313 478h8v2.32813h-8zm0 0"/></clipPath><clipPath id="w"><path d="M319 480h1v.32813h-1zm0 0"/></clipPath><clipPath id="x"><path d="M326 479h9v1.32813h-9zm0 0"/></clipPath><clipPath id="y"><path d="M332 480h2v.32813h-2zm0 0"/></clipPath><clipPath id="z"><path d="M339 479h9v1.32813h-9zm0 0"/></clipPath><clipPath id="A"><path d="M345 480h2v.32813h-2zm0 0"/></clipPath><clipPath id="B"><path d="M353 479h8v1.32813h-8zm0 0"/></clipPath><clipPath id="C"><path d="M359 480h2v.32813h-2zm0 0"/></clipPath><clipPath id="D"><path d="M366 479h9v1.32813h-9zm0 0"/></clipPath><clipPath id="E"><path d="M372 480h2v.32813h-2zm0 0"/></clipPath><clipPath id="F"><path d="M379 479h9v1.32813h-9zm0 0"/></clipPath><clipPath id="G"><path d="M386 480h3v.32813h-3zm0 0"/></clipPath><clipPath id="H"><path d="M393 480h8v.32813h-8zm0 0"/></clipPath><clipPath id="I"><path d="M400 480h2v.32813h-2zm0 0"/></clipPath><clipPath id="J"><path d="M406 479h9v1.32813h-9zm0 0"/></clipPath><clipPath id="K"><path d="M412 480h2v.32813h-2zm0 0"/></clipPath><clipPath id="L"><path d="M419 479h9v1.32813h-9zm0 0"/></clipPath><clipPath id="M"><path d="M425 479h3v1.32813h-3zm0 0"/></clipPath><clipPath id="N"><path d="M433 478h8v2.32813h-8zm0 0"/></clipPath><clipPath id="O"><path d="M439 478h4v2.32813h-4zm0 0"/></clipPath><clipPath id="P"><path d="M447 477h7v3.32813h-7zm0 0"/></clipPath><clipPath id="Q"><path d="M459 479h9v1.32813h-9zm0 0"/></clipPath><clipPath id="R"><path d="M465 480h2v.32813h-2zm0 0"/></clipPath><clipPath id="S"><path d="M144 465h4v4h-4zm0 0"/></clipPath><clipPath id="T"><path d="M144 452h4v3h-4zm0 0"/></clipPath><clipPath id="U"><path d="M144 439h4v3h-4zm0 0"/></clipPath><clipPath id="V"><path d="M144 426h4v2h-4zm0 0"/></clipPath><clipPath id="W"><path d="M144 412h4v4h-4zm0 0"/></clipPath><clipPath id="X"><path d="M144 398h4v5h-4zm0 0"/></clipPath><clipPath id="Y"><path d="M144 384h4v6h-4zm0 0"/></clipPath><clipPath id="Z"><path d="M144 371h4v6h-4zm0 0"/></clipPath><clipPath id="aa"><path d="M144 358h4v5h-4zm0 0"/></clipPath><clipPath id="ab"><path d="M144 345h4v4h-4zm0 0"/></clipPath><clipPath id="ac"><path d="M466 345h2v3h-2zm0 0"/></clipPath><clipPath id="ad"><path d="M465 345h3v3h-3zm0 0"/></clipPath><clipPath id="ae"><path d="M144 332h4v4h-4zm0 0"/></clipPath><clipPath id="af"><path d="M466 331h2v3h-2zm0 0"/></clipPath><clipPath id="ag"><path d="M465 332h3v3h-3zm0 0"/></clipPath><clipPath id="ah"><path d="M144 320h4v1h-4zm0 0"/></clipPath><clipPath id="ai"><path d="M465 317h3v3h-3zm0 0"/></clipPath><g id="aj" clip-path="url(#clip1)"><path fill="#fff" fill-opacity="0" fill-rule="evenodd" d="M0 0h1000v1000H0zm0 0"/><path fill="#d3d3d3" fill-opacity="0" fill-rule="evenodd" d="M162.15234 355.86719l-.23437.29297.0586.23437.11718.17188.17578.23437.29297.34766.11328.0586.11719-.17188.0586-.23438.17577-.17578.46485-.17578h.69922l.23437.29297.28906.8164.0586.17579.17578.23046.35156.23438.69922.69922.17188.17578.23437.34765.23438.41016.28906.58203.41015.46485.23047.23437.23438.17578.11719.23047.17578.29297.17187 1.16406v.23438l.0586.28906.05859.11719.11719.11719.34765.41015.11719.17188.17578.17578.17578.23437.11719.17188.17188.35156.05859.23438.23437.40625.23438-.0586-.17578.17578-.0586.92969h-.58203l-.23437-.11328-.34766.11328-.11719.11719-.05859.29297-.0586.17578-.11718.17187-.46484.29297-.0586.23438-.0586.11328v.64453l.0586.17187v.41016l.0586.0586v.40624l.05859.40625.11719.17579.05859.05859.23047.64062-.0586.29297v.69922l-.05859.58203v.23438l-.0586.23047-.05468.35156v1.92187l.05469.1172h.42578l-.36719.11718-.02344.35156.89063 1.16797 1.74219.53906 1.33984.35938v.53906l.08984.8086.53516.71484 1.51953.26953.89063-.08594.08984 1.16406.53516.1797 1.16015-.1797 2.05469-.98437 1.16016-.36328 1.8789-.17578 1.69531-.1797-.17968.71876-1.51563.08594-1.25.08984-.80469.26953-1.07421.8086.26953.71875.53515.89843-.17968.625-.26563.8086.26563 1.07812.625.89844.80468.17969 1.25-.1797-.26562.72267.09766.5039.05468.29297v.17188l.0586.29296v.40625l.17578.1172.35156.11718h.40625l.29297-.17578.11328-.11719.0586-.11719.11718-.23047.0586-.17578.35156-.46484.23047-.17578.17578-.0586.17578.0586.0586.17578.11718.98828.05469.46875.0586.17188.11718.23437.17578.0586.8164.05859h.28907l.11719.23437.05859.40625.0586.35156v1.10547l.11718.29297.11719.34766.28906.69922.17578.35156.58203.7539.35157.17579.17187.0586.46875.23437.64063.46484.34765.23438.29297.17578.29297.05468.23047.0625.8164.34766.29297.17578.11328.17188.35157.35156.11719.17578.52343.64063v.28906l.0586.35156v.34766l.05859.35156.0586.28906.11718.0586.17188.05859h.17578l.58203.23437.17578.1172.17578.28905.17578.23438.11328.23437.29297.23047.11719.11719v.41016l.0586.05468.28906.23438.23437.11719.0586.11718.11718.17188.0586.11719.23047.23437.05859.17578.23437.0586.1172.05859-.1172.11328-.05859.11719v.11719l-.11719.29296-.11719.28907v.58203l.17579.11719.11718.05859.0586.11719.11719.11719.11328.05859.17578.34765.0586.35157.05858.40625v.17578l-.05859.17578-.11719.69922v.17187l.1172.17579.29296.29296h.40625l.17578.1172.11719.17187.11719.29296v.23438h-.52735l-.23047-.23438h-.23437l-.17578.0586-.0586.69922.0586.34765.11719.17579.17578.41015.11718.23047.28907.46875.17578.05469h.52344l.23437.0586.75781.64062.0586.29296v.23438l.05859.0586.23047.34765v.35156l-.11719.17188v.29297l.29297.28906.29297.17578.17187.0586.29297.17577.29297.1172.58203.40624.28906.23438.29297.17578.21875.16015.01563.01172.23047.17579.64062.52343.17578.23438.1172.17578.17577.17578.11328.17188v.64062l.1172.17578.46874.11719.58203.11719.23438.05859.23047.11328.29297.11719.11328.0586.58593.35156.28907.17187.17578.0625.17578.05469.17578.0586.69922.35155.28906.17579.23438.05468.28906.17578.23437.1172.64063.40624.29297.11719.17187.0586.23438.05859.41015.05859.23047.0586.23438.11718.0586.17188-.41017.17578.46875.0586.0586.29296.11328.23438.17578.05468.23438.0586.17578.05859.40625.11719.64062.23437.11719.17188.0586.23437v.17578l-.0586.1172-.0586.40624.23438.23438.11719.05859.34766.11719.64062.23047.17578.11718.28906.1172.17578.17577.23438.46485.58203 1.10546.17578.17579.34766.17578.17578.11719.35156.11718 1.04688.52344.23437.0586.46485.11327.29297.0586.46484.17578.75781.58203.23438.23438.34765.46484.17578.17578.28907.23438.8164.69921.29297.17579.28906.28906.29297.17578.29297.28906.69531.64063.17578.17578.29297.23437.28907.23438.46875.28906.64062.58203.34766.23438.23437.29297.34766.34765.35156.46485.9336.99218.34765.40625.11719.17579.23437.05859.11328.11719.64454.17578.23047.11328.23437.0586.29297.17577.23047.1172.9336.69921.40624.40625.23438.17578.40625.17578.23437.11719.8164.34766.34766.23437.23438.11719.29297.28906.23047.11719.7578.35156.35157.17188.23047.05859.29297.11719.23437.0586.8711.17577h.8164l.46875.23047.17188.0586.875.69921.46484.1172.29297.05858.17578.0586.23047.0586.46875.05859.34766.05859.35156.0586.40625.05859h.29297l.17187.0586v.23046l.17578.17578h.29297l.34766.0586.35156.05859.69922.11719h.64063l.46484-.23438.29297-.17578.17187-.11719.41016-.17187.28906-.17578.9336-.46485.46875-.29297.52343-.29296.46485-.17188.46484-.17578 1.05078-.46485.28906-.11718.41016-.11719.28906-.11719.52735-.17578 1.51562-.69922.58203-.34765.28907-.0586.29297-.0586.34765-.11718.875-.23047.35156-.11719h.11329l.23437-.05859.875-.23437.23438-.0586h.8125l.35156-.0586.8164-.11718.17188-.0586.35156-.05468.29297-.0586.23047-.05859.8164-.17578.17579-.0586h.34765l.23438-.05859.46484-.11718.75781-.17188.23438-.0586h.34765l.41016-.11718.28906-.0586 1.28516-.05859h.28906l.41016-.0586.23047-.05858h.17578l.875-.1172h.40625l.41015-.11718h.34766l.35156-.11328.8711-.0586h1.75l1.04687.28907.41016.11719.28906.11718.35156.11719.28907.11719 1.05078.17187.28906.0586h.29297l.29297.05859.17187.0586.41016.05859.17187.0586.1172.05858h.11718l.11719.0586.35156.0586h.11328l.41016.0664 1.92187.39453 1.92578.39453 1.51953.44922 1.69532.71875 2.14453.80469 1.60547-.71875 1.42968-.80469 1.16016-1.07813 1.25-.44921 3.03516-.71875 1.875-.35938 2.14453-1.34765 2.23437-1.25391 2.5-1.25781 1.69531-.44922 1.78516-.17969 1.16016-.26953.625.53906 1.33984-.26953.71485-.98828.98437-1.34375.44531-.17969.80469-.35937 1.875-.53907 1.78516-.44921 1.25-.26954 1.16015-.08984 1.69922-.08984 1.96094-.26954 1.25-.08984h.53906l.625-.08984h.89063l2.14453-.17969 2.41015-.17969 2.58985-.08984 1.69531.17969 1.60938.08984 1.42968.35938 1.16016.71875 1.875.98828 1.16015 1.52734.26563.71484.6289.08985.35548.89844.53515.53906.53516 1.52734 1.07422.35938h.53515l-.80469.53515.08985 1.70703.71484 2.69532.89063.80468.89453.98829.71484 1.2578 1.78516.53907 1.51953-.17969.35547 1.34375 1.60937-.80469.98047-.53906.26953.26953.31641-.21484.21875-.14453.80078.44922.44922-.35938h.35547l.53515-.26953.53907-.71875.53515-.26953.625-.98828 1.16016.44922.83984.3711 1.39454.61718 1.6953-.17969h1.60548l1.78515.08985.17969-1.70704.53516-1.34375.80468.26954.4922.84765.40233.40625-.08984.53906v.35938l.71485.44922.71093-.26953h1.42969l.35938.98828.4453 1.25781.71485 1.34375 1.25.6289 1.69531.62891.71485-.17969.17969-.53906.98046-.08984.44922.35937.08594 1.25782-.26563.6289-.53515.17969v.53906l.71484.98438.26563.53906.98437.98828.80078 1.07813-.26562.35937-.08985.89844-.625 2.33203-.35546 2.0664-.08985 1.79298-.17969.71875-.08984.53906v1.4375l-.98047 1.88281-.35937 1.70703-.53516.89844-.80469 1.16797-.26562.53906 2.05469 1.2539.08593.35938-.35546.53906-.08985-.17968v.80859l.08985 1.4375-.44532.71484-1.07422.09375-.26562.71485.53515.89844.8047.71875 1.16015.80859 1.33984.26953.44531.35938-.35546.44921-1.78907-.08984-1.25-.44922-.71484-.71875-.625-.08984-.17578 3.58984-.1875 1.3086h89.35937V311.70313h-55.26953v49.08203l.76172.125 3.28906.54296 2.02344 2.83594v2.7539l2.35156.33204 2.34766.33203h4.05078l-1.3789 4.16016-2.02344.70703-2.02344.70312-.54297.34375-2.59375 1.6172-.1875.11718-2.02344-2.07813-.73046-2.74218-2.67188-2.07813-1.375-3.5-.0664-.08203-1.95704-2.67188 2.75-1.41796v-49.08204H294.42187v91.41407l.1172.03125.1328.01172.07422.07421.10547.04688.08985.0586.08593.05859.08985.0586.29687.29687.0586.08984.03125.11719.02734.11719.01563.13671-.03125.1172-.0586.08983-.0586.08594-.04296.10547-.04688.10156-.02734.1211v.14453l.17578.26953.14844.14844.07422.08594.07422.07421.04296.10547.0625.08985.0586.08593.04297.10547.0586.08985.04687.10156.04296.10547.0586.08594.11719.17968.07421.07422.0625.08594.0586.08984.04297.10547.0586.08985.05858.08593.0625.08985.0586.08984.04297.10156.11719.17969.07421.07422.0586.08594.07422.07421.08984.0586.10547.04687h.14844l.1328-.01562.13282.01562.10156-.04687.07422-.07422.04688-.10156-.01563-.13281v-.14844l-.04687-.10547-.02735-.11719-.04687-.10156-.02735-.1211-.04296-.10156-.0625-.08984-.04297-.10156-.04297-.10547-.03125-.11719-.01563-.13281-.01171-.13672.08593-.0586.0586-.08593.12109-.03125.04297.10547.01562.1328v.1172l.0586.10156.0586.08984.08983.0586.14844.14843.0586.08985.04296.10547-.01171.10156.08593.0586.10547.04687.08594.0586.08984.05858.07422.07422-.11719.02735-.10546.04687-.08594.0586-.07422.07421-.0586.08985-.0625.08594-.02734.12109-.04687.10156-.04297.10547-.03125.11719-.01172.13281-.01563.13281v.14844l.02735.11719.04687.10547.04297.10156.0586.08984.07421.07422.08985.0586.07422.07421.08984.0586.0586.08984.04296.10547.04688.10156.11719.03125.1328.01563h.14845l.11718-.03125.10547.04297.04297.10547.04688.10156.02734.1211L299.5 410l.02734.11719.03125.1211.02735.11718.10547.04297.10156.04687.13281-.01562.14844.14844.0625.08593.07422.07422.07031.07422.08984.0625.10547.04297.10156.04297.1172.03125.13671.01562.11719-.03125.07422-.07422.02734-.11718-.01172-.13282-.03125-.12109-.02734-.11719.04297-.10547h.11719l.08984.0625.11719.02735h.14843l.13282.01562h.14843l.13282.01563.1328-.01563h.14845l.1328-.01562.13282-.01172.13672.01172.11719-.02735.13281-.01562.1914-.0586-.05859.17579-.01562.1328-.02735.1211-.01562.13281-.0586.08594-.1328.01563-.10548.04687-.10546.04297-.1172.03125-.11718.02735-.26563.03125h-.14843l-.13281.01562-.07422.07422.05859.08594.14844.14843.11719.1797.07421.0703.08985.0625.08984.0586.08594.0586.08984.05858.10156.04297.10547.0625.10547.04297.08594.0586.10547.04687.10156.04297.17969.11719.0586.08984-.04298.10156-.04687.10547.01562.13281.22266.22266.0586.08985.04296.10156.03125.1211.04297.10155.01563.13282.03125.11718.01171.13672.03125.11719.14844.14844.10156.04297.10547.04296.1172.03125.1328.01563.13672.01563h.11719l.11719-.03125.08984-.0586.04297-.10547.04688-.10156.04296-.10547.03125-.11719.01172-.1328v-.14845l-.01172-.1328-.01562-.13282-.03125-.11719-.04297-.10547-.04688-.10547-.04296-.10156-.04297-.10547-.01563-.13281.01563-.13281.02734-.11719.03125-.11719.02735-.1211.04687-.10155.08984-.0586.08594-.0625.07422-.07422.08984-.05859.22266-.22266.0586-.08593.07421-.07422.11719-.17969.0586-.08594v-.14844l-.07423-.07421-.10156-.04688-.10547-.04297-.10156-.04297-.0586-.08984-.04687-.10547-.02734-.11719.08984-.05859.11719-.03125.10156-.04297.17969-.11719.14844-.14843.01172-.13282-.01172-.10546-.08985-.0586-.1328.01563h-.14845l-.1328.01562-.13282-.01562-.1211-.03125-.08593-.0586-.07422-.07422-.0586-.08984-.0625-.08594-.11718-.17969-.0586-.08593.03125-.1211.08594-.05859.1211-.03125.05859-.08594v-.1211l-.03125-.11718-.0586-.08984-.05859-.08594-.04687-.10547-.02735-.11719-.01562-.1328.0586-.08985.07421-.07422.08984-.0586.1172-.17968.07421-.07422.0586-.08594.14843-.14844.1211-.03125.1328-.01562.13282.01562.07422.07422.04297.10547.01562.13281-.03125.1172-.11719.03124-.1328.01172-.14844.14844-.04297.10547-.04688.10156-.02734.1211-.03125.11718v.14844l.03125.11719.04297.10546.05859.08985.07422.07031.07422.07422.11719.03125.12109.02734.11719-.02734.1328-.01563h.1172l.08984.0586.07422.07422.04687.10546.0586.08594.10156.04688.13281.01562.10547.04297.08594.0586-.01172.10546-.07422.07422-.17969.11719-.05859.08984-.08984.0586-.07032.07422-.07421.07421-.0625.08985-.02735.11719-.01562.1328.01562.13282-.01562.13281v.14844l.01562.13281.02735.1172.03125.12108.07421.07422.08985.0586.08594.0586.08984.05858.11719.03125v.08594l-.10157.04688-.08984.0586-.26563.03124-.11718.02735h-.14844l-.10547.04296-.10156.04688-.0586.08984-.0625.23438-.01171.13281-.03125.1211-.01563.1328v.29298l-.01172.1328.01172.13673.01563.1328.1328.01563.13282.01172.1211.03125.08593.0586.07422.07421.04688.10547.04296.10157.01563.1328v.44532l-.01563.13281v.44532l.03125.26562.02735.11719.01562.13281.03125.11719.08594.21094.03125.26562v.14844l-.03125.11719-.02734.11718-.03125.1211-.02735.11719-.03125.11718-.03125.1211-.01171.1328-.01563.13282.08984.0586.1172-.03125.10155.01562.04688.10547-.03125.26562v.44141l-.04297.10547-.04688.10547-.04296.10156-.04297.10547-.0586.08594-.03125.12109-.04296.11719-.03125.11719-.01563.1328.01563.13282.05859.08984.10547.04688.08594.0586.05859.08593-.01172.13672-.03125.11719-.04297.10156v.44531l-.01562.13281v.14844l-.03125.11719-.04297.10547-.02735.11719-.04687.10546-.04297.10157-.03125.12109-.02734.11719-.03125.13281-.03125.11719-.02735.11719-.04297.10546-.03125.1172-.03125.12108-.01171.13282-.01563.13281v.29688l.02734.11718v.14844l.04688.39844.02734.11719.0586.08984.12109.03125h.14844l.13281-.01563.0586.08985v.11719l-.0586.08984-.08984.0586-.10157.04296-.10546.04688-.08985.05859-.08594.0586-.13671.01562-.1172-.03125-.1328-.01563-.10157.04688-.0625.08594-.01172.13671-.01562.13282-.03125.11719-.02735.11718-.01562.13281-.03125.1211v.29687l.01563.13282.03125.11718v.14844l.01171.13281v.14844l-.02734.11719-.04688.10156-.02734.1211-.03125.11718-.0586.08985-.07421.07421-.10156.04297-.10547.04688-.11719.02734-.1211.03125-.10156-.04687.0586-.08594.10547-.04688.02734-.11718.03125-.11719.02734-.1211.03125-.11718v-.14844l.01563-.13281-.03125-.11719-.04297-.10547-.10547.01563-.07422.07422-.10156.04296-.08984.0625-.07422.07422-.04297.10157-.01563.1328-.03125.1172L304.25 426l-.03125.11719-.02734.11719-.03125.12109-.02735.11719-.03125.11718-.04297.10547-.08984.0586h-.08984l-.1172-.03125-.03124-.08594.01562-.13672-.03125-.11719v-.14844l-.01171-.1328v-.14844l-.0625-.23438-.02735-.1211-.04297-.10156-.04687-.10546-.0586-.08594-.05859-.08985-.04297-.10546-.0625-.08594-.14844-.14844-.0703-.07422-.10548-.04687-.10547-.04297-.10156-.04297-.29687-.29688-.08985-.07421-.08594-.0586-.10546-.04297-.08985-.0625-.08594-.0586-.10546-.04296-.08985-.0586-.08594-.0625-.07421-.0703-.10547-.04688-.08594-.0586-.10547-.04296-.08984-.0625-.10156-.04297-.10547-.04297-.08594-.0586-.10547-.04687-.10547-.04297-.10156-.04687-.08985-.0586-.10156-.04297-.10547-.04296-.08984-.0625-.11719-.02735-.13281-.01562-.13281.01562H299.75l-.13281.01563-.11719-.03125-.08984-.0586-.07422-.07422-.08985-.05859-.10156-.04688h-.14844l-.12109-.02734-.10156-.04297-.07422-.07422-.11719-.17968-.08984-.0586-.10156-.04297-.08985-.0625-.10547-.04296-.08984-.0586-.08594-.0586-.10547-.04687-.0586-.08594-.05858-.08984-.04297-.10547-.04688-.10156-.07422-.07422-.08594-.0586-.07421-.07421-.08985-.0586-.22265-.22265-.04297-.10547-.03125-.26563.10547-.04296h.14453l.10547.04296.07421.07422.08985.0586.08594.0586.10546.04687.08985.05859.14844.14844.0703.07422.14845.14843.0625.08594.07421.07422.08594.0586.07422.07421.08985.0625.08984.0586.08594.05859.26953.17578.10156.04688.10547.04296.10156.04297.04688-.07421.05859-.08594.07422-.07422.07031-.07422.10547.04297.07422.07422.0586.08984.04296.10156.04688.10547.04296.10547.1211.02735.11719-.02735.07421-.08984.04297-.10547.0586-.08985.07422-.07421.10546-.04297.1172-.02735.1328.01172.08985.0586.14844.14843.05859.08985.04297.10547.04687.10156.04297.10547.04297.10156.10547.04688.10547.04296.13281.01563.08594-.0586.0586-.08984.07421-.07422.10547-.04297.11719.02735.10547.04687.10156.04297.10547.04297.10156.04688.17969.11718v.11719l-.01563.13281.01563.13281.01562.13672.0586.08594.10156.04688.1211.02734.11718.03125h.14844l.11719-.03125.05859-.08984.17969-.1172.05859-.08983.07422-.07422.0586-.08594.11718-.17969.17969-.11719.11719.03125.08984.0586.04297.07422-.01563.1328v.1172l.08985.05859h.14843l.13282-.01563.1328-.01171.26563-.03125.10547-.04297.11719-.03125.1211-.02735.07421-.07421.07031-.07422.0625-.08985-.01562-.10547-.04688-.10156-.10156-.04297-.10547-.01562-.11718.02734-.26563.03125h-.14844l-.07421-.07422-.08985-.0586-.11719-.03124-.11718-.02735-.13282-.01562h-.14843l-.13282.01563h-.29687l-.10547-.04688-.14844-.14844-.04297-.10156-.05859-.08984.22266-.22266.08593-.0586.10547-.04296.11719-.03125.13281-.01563.13281.01563.13672.01562.10157.04297.1328-.01172.08985-.0625.10156-.04297.0625-.08984-.04687-.10156-.08984-.0586-.1172-.03125-.10155-.04296-.0586-.08985-.0625-.08984v-.11719l.01563-.13281.10547-.04688.07421-.07031v-.1211l-.08984-.05859-.03125-.11719.08985-.05859.07421-.07422.04297-.10547.0586-.08984.04687-.10156.01563-.13281v-.14844l-.04688-.10547-.04297-.10156-.08984-.0586-.13281-.01562-.10157-.04297-.13671-.01563-.1172-.03125h-.4453l-.13282-.01562-.13281-.01172-.13281-.01563-.11719-.03125h-.14844l-.13281-.01562-.13281-.01172-.26563-.03125-.1211-.04297-.08593-.0586-.07422-.07421v-.14844l.01172-.13281.10547-.04688.10156-.04296.13281-.01563h.15235l.13281-.01562h.29297l.1211.03125.10156.04296.08984.0586.23438.0625.12109-.04688.08984-.05859.10156-.04297.13282-.01562.10547.04296.10156.04688.13281.01172.1211-.02735h.14453l.12109-.03125.11719-.02734.10547-.04687.07421-.07422.08594-.0586.14844-.14843.0586-.08594.04687-.10547.02734-.11719.01563-.10547-.10156-.04296-.08985-.0586-.11719-.03125-.10546-.04297-.08985-.0625-.07422-.08594-.07422-.07421-.10156-.04297-.10547-.04688-.10156-.04297-.0586-.08984-.04687-.10156-.08594-.21094-.0625-.08594-.05859-.08984-.07422-.07422-.08594-.0586h-.26953l-.11719.03126-.08984.05859-.10156.04297-.13281.01562-.10547-.01562-.02735-.11719-.0625-.08984-.11718-.03125-.10157-.04297-.14843-.14844-.03125-.11719-.01563-.10546.07422-.07422.17969-.1172.11719-.02733.11718-.03125.13672.01562.10156.04297.10547.04297.10156.04687.10547.04297.1172.03125.1328.01563.1172.02734.1328.01563.10547-.01563.08985-.0586-.07422-.07421-.10547-.04297-.07422-.07422-.07422-.08984-.14844-.14844-.08593-.0586-.08985-.05859-.07422-.07422-.08984-.0586-.10156-.04687-.1211-.02734-.10156-.04688-.10547-.04296-.11719-.03125-.10156-.04297-.1211-.03125h-.14843l-.11719.03125-.10546.04297-.08594.0625-.17969.11718-.08594.0586-.08984.0586-.10547.04687-.08594.05859-.10547.04297-.10156.04297-.10547.04687-.07422.07422-.05859.08985-.0586.08593-.04687.10547-.0586.08594-.07421.07422-.13281-.01172-.1172-.03125h-.11718l-.07422.07422-.08984.0586-.07422.07421-.08984.0586-.08594.05859-.10547.04687-.10156.04297-.13672.01563-.10156-.04297-.14844-.14844-.10547-.04688h-.08594l-.10547.04688-.10156.04297-.1211.03125-.11718-.03125-.07422-.07422v-.11719l.03125-.1211.07422-.0703.0586-.08985.07421-.07422.11719-.03125.10547-.04296h.29297l.13281-.01563.13672-.01563.10156-.04296.08985-.0586.10156-.04687.08984-.0586.13281-.01171.08985.05859.13281.01172.08984-.0586.08594-.05859.10547-.04297.08984-.0586.08594-.0625.08985-.05859.14843-.14843.0586-.08594.05859-.08985.10547-.04296.13281-.01563.11719.02735.1211.03125.05859-.0586.05859-.08984.03125-.26563.02734-.11719.10547.01172.13281.01563.10157-.04297.08984-.0586.0586-.08984.07421-.07422.0586-.08984.04687-.10156.01172-.13281-.01172-.13282-.04687-.10547-.14844-.14843-.0586-.08985-.05859-.08594-.04297-.10546v-.44532l.01563-.1328v-.14845l.01172-.1328-.0586-.0586-.08984.0586-.10156-.04298-.17969-.11719-.08594-.05859-.0625-.08984-.0586-.08985-.07421-.07421-.08594-.0586-.1211.03125-.10155.01172-.10547.04688-.08594.05859-.10547.04297-.14844.14844-.08984.05859-.08594.0586-.08984.0625-.10547.04296-.13281.01563v-.1211l.10547-.04297.11718-.03125.07422-.0703.04297-.10548v-.14844l-.02734-.11718-.14844-.14844-.13281-.01563h-.14844l-.11719.03125-.10547.04297-.10156.04297-.08984.0625-.11719.02735-.07422-.07422.01172-.13281-.04297-.10157-.04297-.10547-.08984-.05859-.11719.02734-.1211.03125-.11718.03125-.10156.04297-.1211.03125-.10156.04297-.10547.04297-.08984.0586-.10156.01562v-.11719l.01562-.13281-.0586-.08985-.07421.04297-.14844.14844-.0586.08985-.07421.07421-.04688.10547-.04296.10156-.07422.07422-.0586.08985-.07422.07422-.05859.08593-.07422.07422-.08984.0625-.07422.07031-.07422.07422-.10156.01563-.13281.01562-.10547-.04296v-.1211l.14843-.14844.04297-.10156.0586-.08984.04687-.10156.04297-.10547.0586-.08985.03124-.11719.04297-.10156.03125-.1211.02735-.11718.04687-.10547.04297-.10156.04297-.10547.07422-.07031.08984-.0625.08985-.0586.10156-.04296h.29687l.26563-.03125.10547-.04297-.07422-.07422-.11719-.03125-.10547-.04297-.08984-.0586-.10156-.04687-.08985-.0586-.10156-.04296-.10547-.04297-.08984-.0625-.08594-.0586-.10547-.04296-.10156-.04297-.1211-.03125-.11718-.03125-.10157-.04297L297.5 410.25l-.10156-.04297-.08985-.0586-.04296-.10546-.01563-.13281.10156-.04297.13281-.01563.13672.01563.13282-.01563.10156-.04297.0586-.08984.01562-.10547-.08985-.0586-.07421-.07421-.10157-.04297-.08984-.0586-.14844-.14843-.04297-.10547-.01562-.13281v-.29297l-.0586-.08985-.08984-.05859-.07422-.07422-.04297-.10547-.03125-.11718-.0586-.08985-.07421-.07422-.11719-.02734-.07422-.07422-.08984-.0586-.08984-.0625-.08594-.05859-.07422-.07421-.0586-.08594-.04687-.10547-.08594-.0586-.14843-.14843-.19532-.0586-.1328.01563-.10157.04297-.07422.07422-.04688.10156-.04296.10547-.0586.08984-.0586.08594-.29687.29687-.08984.0586h-.08594l-.0625-.08594-.04297-.10547.03125-.11719.0586-.08984.02734-.11719-.01172-.13281-.08984-.0625-.10547.04688-.11719.02734-.11719.03125-.26953.17578-.10156.04688-.11719.02734-.10546.04687-.08985.0586-.10156.04297-.0586-.08594-.04687-.10547.01563-.13281.04687-.10547.07031-.07422.07422-.07031.0586-.08985v-.14843l-.04297-.10547h-.23829l-.10156.04687-.03125.11719-.02734.11719-.03125.1211-.07422.04296-.13281.01563-.07422-.04688-.04297-.10156-.04297-.10547-.04687-.10156-.04297-.10547-.1211.03125-.10156.04297-.13281.01562-.11719.03125-.10547.04297-.08984.0586-.10156.04687-.1211.02734-.13281.01563-.10156-.04297-.0586-.08985-.04687-.10546-.04297-.10157-.04297-.10546v-.1172l.0586-.08984.08593-.05859.17969-.11719.10156-.04687.10547-.04297.10547-.0586.10156-.04296.08985-.0625.10156-.04297.10547-.0586.10156-.04687.08984-.0586.10547-.04296.10156-.04297.08985-.0625.10156-.04297.13672-.01563.11719.03125.10156.04297.1211.03125.10156.04297.10546.04688.10157.04296.10547.04297.10156.04688.10547.04297.10156.04297.10547.04687.08594.0586.10546.04296.1172.03125.10546.04297.10156.04688.08985.0586.10547.04296.10156.04297.10547.04687.11719.02735.10156.04687.1211.02735h.14843l.08594-.0586.01562-.10156.0586-.08984-.02735-.1172-.07422-.07421-.11719-.17969-.07421-.07422-.08985-.07421-.17969-.1172-.08593-.05859-.10547-.04296-.10156-.04688-.26954-.17578-.05859-.08985-.07422-.07421-.0586-.08985-.04296-.10156-.03125-.11719-.01563-.13672v-.5625l-.01171-.1328-.01563-.13282-.03125-.11719-.01562-.13281-.01172-.13281-.03125-.1211-.22266-.22265-.0586-.08594-.01562-.10547.03125-.11719.13281-.01562v-91.41406H172.9922v1.45312l-.0586.23438-.35156 1.05078-.17187.52343-.1172.34766-.17577.41016-.11719.17187-.23438.29297-.23046.0586h-.35157l-.11718.05859-.23047.40625v.29297l.11719.17578.23046.23047.1172.23437.64062.75781.29297.46485.17578.23437.23047.35156.23437.34766.64063.8164.17578.46485.17187.41016.11719.69531.17578.46875.11719 1.39844.0586.46484v.875l.11718 1.04688v4.78125l-.0586.46484-.35156 1.28125-.17578.52344-.11328.41015-.35156.9297L172.93359 336l-.23437.58203-.11719.17578-.17187.34766-.17578.40625-.35157.8164-.0586.29297-.11327.29297-.11719.28906-.0586.17579-.11718.875-.0586.40625-.05859.11718-.0586.17579-.05859.17187-.23047.52734-.11718.17188v.23437l-.11719.23438-.0586.17187-.17577.58594v.28906l-.0586.17579v.29296l-.0586.11329-.05859.52734v.17187l-.05468.23438v2.6211l-.17578.8164-.1172.17578-.17577.23438-.1172.17187-.11327.23438-.58594.93359-.23047.28906-.29297.46485-.17578.23437-.28906.35156-.35156.69922-.11328.23047-.17579.41016-.17578.23046-.40625.52735-.8164.69922-.29297.17187-.28906.23438-.17579.11719-.17578.17578-.52344.40625-.52734.17578-.17187.17578-.23438.05469-.64062.17578h-.75782m12.21094 31.02344l-1.07422.44921.35938.89454 1.25-.71485.44531-.53906-.98047-.08985"/><path fill="#d3d3d3" fill-opacity="0" fill-rule="evenodd" d="M201.50781 416.59766h-.89453l.44922.6289.98047.35938.80469-.08985.4453-.98828-.17577.08985-.71485-.35547-.89453.35547m154.6211 59.0703l-.0586-.52343v-.29297l.11328-.29297.0586-.23046.46875-.46875h.11328l.11719-.11329.11718-.05859h.17579l.23437-.0586h.34766l.23437.0586.11719.0586.23047.17187.0586.17578.11718.58203v.29297l-.11719.17578-.17187.28906-.17579.17579-.52734.52343-.23047.23438-.11719.0586h-.17578l-.11718-.0586-.40625-.29297-.17579-.11719-.11718-.0586-.0586-.11327-.05468-.1172m6.64062-10.95702l-.0586-.17188v-1.10937l.0586-.17188.17578-.0586.17188-.05858h.17578l.23437-.0586.1172.0586.05858.69921-.05859.17188-.11719.17578-.11718.0586-.23438.52343-.11328.0586h-.23438l-.05859-.1172m9.61328-14.39062l-.11719-.17578v-.69922l.29297-.875.1172-.17187.17577-.35156.11328-.23047.1172-.29297.35155-.75781.1172-.23047.17187-.23438h.17578l.11719-.0586h.64062l.11719.0586.23437.23438.17188.11328.35156.29297.11719.11718.11328.17579v.11328l.11719.05859.11718.11719v.69922l-.05859.17578v.23047l-.0586.17578-.34765 1.05078-.11719.23047-.11719.23437-.11718.0586-.23047.23437-.64063.28906h-.875l-.41015-.11718-.64063-.46485"/><path fill="none" stroke="#bebebe" stroke-linecap="round" stroke-linejoin="round" stroke-miterlimit="10" stroke-width=".5" d="M467.95703 311.69531H144.02734v168.625h323.9297v-168.625"/><g clip-path="url(#a)"><path fill="#fff" fill-opacity="0" fill-rule="evenodd" d="M144 475.89063v4.4375h.0039H144V311.67188h.0039H144v164.21875"/></g><g clip-path="url(#b)"><path fill="#fff" fill-opacity="0" fill-rule="evenodd" d="M144.0039 480.32813V311.67188h31.0625v119.78515l-.0703.05078-4.3672 2.96094-1.3125 1.47656-3.125 1.60156-2.48046 2.83594-1.95703 2.66406-1.72266 1.77344-1.32813 4.4414-.8789 4.4375.48828 4.4375-.17578 4.4375 3.61719 3.55079 4.4375-.42969 4.4375-.8164 4.4375-.04688 4.4414.42578 4.4375-.28125 4.4375-.15625 4.4375-1.35156 4.4414.15234 2.23438-1.04687-2.23437-1.17969-4.4414-2.47656-2.02345-.78125-2.41406-.6836-4.4375-1.85546-4.4375.71093-.27344-2.60937-.33984-4.4375.61328-1.47656 2.15625-2.96485 2.28125-1.50781 3.90235-2.92969-.2461-4.4375-3.65625-3.01562-4.4375.92187-4.38281-2.34375-.0586-.05078V311.67188h26.63282v90.86328L199.375 404.875l2.32422 3.40625 4.4375-1.72266 1.6914-1.68359-1.6914-2.07031-4.4375-.26953v-90.86329h22.1914v91.46875l-1.75 1.73438 1.75 2.09375 1.75-2.09375-1.75-1.73438v-91.46875h13.31641v90.16797l-3.03906 3.03516.1289 4.4414 2.91016 3.85548 4.4375-2.25 3.89844 2.83203-3.89844.91406-4.4375-.5625-4.4414 2.97656-2.44922 1.10938-1.98828.17578-4.4375.4336-2.25391-.60938-2.1836-2.39454-.20703-2.04296-4.23047-4.22657-4.4414.75391-4.4375 1.13281-2.46484 2.33985-.47266 4.4375 2.9375 2.96093 4.4375.4922 1.48437.98437 2.95703 2.86328.78907 1.57812 3.64844 3.72656 1.71093.71094-1.71094 4.17578-4.4375-.98046-4.4414-.23047-2.91797 1.47265-1.51953.75781-.90234-.7578-3.53516-1.9961-2.39063 1.9961L197.26172 439l-1.32031 1.38281 1.3203 4.21485.05079.22265 4.38672 4.42578 4.4375-.16406.2539.17969 1.76563 4.4375-2.01953 1.32812-2.96094 3.10938-.78125 4.4375 2.20703 4.4414 1.53516.53907 2.22656-.53906 2.21094-.57813 4.4414-2.28516 2.36329-1.57812 2.07422-.83594 4.4375-1.54687 4.4375-.63282 2.73828-1.42187.91797-4.4375-3.65625-2.88672-3.85547-1.55078 3.46093-4.4414.19141-4.4375.20313-.11329 4.4375-.92969 4.4414-.21093 2.08984 1.2539 2.34766 2.0625 4.4375-.33984 1.64453-1.72266-1.64453-2.51953-1.67969-1.91797 1.6797-1.28515 2.39062-3.15235 2.04687-3.23828 4.4375.19922 4.4414.77734 3.22657 2.26172 1.21094 1.625.77344 2.8125.8828 4.4375 2.78126 3.1289 4.4375.92188 3.36328-4.05078 1.07812-.55469 4.4375-1.24218 4.4375-.67578 3.625-1.96485.8125-.15625 3.83594-4.28125-3.01172-4.4375 1.09766-4.4414-1.92188-1.57813-4.4375-1.60937-4.4375-.63672-4.4375-.16797-4.4414-.0039-4.4375.09765-4.03125 3.89844-.40625.46875-4.4375 1.75-4.4414-.72266-.90626-1.4961.90625-3.23827 4.4414 1.65234 2.89844-2.85156 1.22266-4.4375.3164-4.03907.19923-.39843-.19922-.34375-2.33203-4.09766-2.10547-1.55078-4.4414.8789-.67579.67188-3.76172 3.21484-1.21875 1.22657-3.21875 3.875-2.78516-3.875-1.48828-4.44141-.16406-.16406-4.4375-2.8711v-90.16796h13.3125v39.66796l-.1836.27735.1836.36719.25781-.3672-.2578-.27734v-39.66796h62.13671v139.35546l-4.4375.0586-3.29688 2.61328-1.14062 1.05469-4.4375 1.78906-2.09375 1.59375 2.09375 1.33203 4.4375 2.3789 4.4375.41798 4.4375-.25 4.4414-1.02735 3.76173-2.85156-.75-4.4375-3.01172-2.13281-4.44141-.53907V311.67188h26.63281V419.1328l-4.4414.73828-4.4375.75782-1.94141 2 1.9414 1.5 4.4375.90234v22.35938l-3.26952 1.87109-1.16797.375-4.4375 1.96484-1.36329 2.09766-.52734 4.4375 1.89063.82812 4.4375 1.77344 3.60156-2.60156.83594-1.07031 4.4414-2.5625 1.10938-.8047 1.19531-4.4375-2.30469-.86327-4.4414-1.00781v-22.35938l4.4414-.26953 2.6836-2.13281-2.6836-3.4961V311.67187h8.875v121.33594l-2.38281 2.9375 2.38281 2.33203 3.11719 2.10547 1.32031 1.33594 4.4414.40234 4.4375.07813 2.07032-1.8164-2.07031-1.85548-4.4375-.6328-2.82813-1.94923-1.61328-1.16015-4.4375-1.77735V311.67187h26.6289v137.21485l-.37108.375.37109.3711.38672-.3711-.38672-.375V311.67187h13.3164v148.98438l-1.71484 1.91797 1.71485 1.60156 2.04296-1.60156-2.04296-1.91797V311.67187h8.875v134.30079l-4.4375.2539-3.01563 3.03516-.10156 4.4375 3.11719 4.28906 4.4375-3.38672 4.4414-.42187 1.07422 3.95703 3.36328 3.48437 4.4375.16407 4.4375-.00391 1.39844.79297 3.04297 1.72656 4.4375.4336 2.5664-2.16016 1.15625-4.4375-.85546-4.4375-2.8672-3.23047-4.4375 1.08203-2.32812 2.14844-2.11328 1.20312-4.4375-.21484-1.80078-.98828-2.63672-1.76563-4.4375 1.39844-1.08984-4.07031-3.35156-3.28906V311.67187h53.26171V439.6875l-.16796.69531-3.40625 4.4375 3.57421 4.17188 2.86329-4.17188-2.76563-4.4375-.09766-.69531V311.67187h13.31641v140.6797l-1.0039 1.34765-3.4336 1.74219-4.4414.5664-2.39844 2.1289-2.03907 1.94142-3.27343 2.49609 3.27343 3.54687 4.4375.25782 4.44141-.85547v5.17969l-1.26172.75-2.0664 4.4375 3.32812 2.6953 3.1836-2.6953-2.38282-4.4375-.80078-.75v-5.1797l2.73828-2.94921v-4.4375l1.69922-3.39844 1.20313-1.03906-1.20313-1.34766V311.67187h4.4336v168.65625H144.0039"/></g><path fill="#50fcfc" fill-rule="evenodd" d="M158.3125 458.13672l-.48828-4.4375.8789-4.4375 1.32813-4.4414 1.72266-1.77344 1.95703-2.66407 2.48047-2.83594 3.125-1.60156 1.3125-1.47656 4.36718-2.96094.07032-.05078v6.17188l-4.4375.23437-3.58985 2.51953-.84765.57422-3.27735 3.86328-1.16015 3.0664-.65235 1.375-2.0039 4.4375 1.02734 4.4375-.61719 4.4375 2.2461 2.20704 4.4375-1.07813 2.96484-1.1289.20703-4.4375 1.26563-1.02735 2.16406-3.41015 2.15234-4.4375.1211-.0625 3.25-4.3789 1.1914-3.0547 2.0664-1.3828-2.0664-1.4961-4.4414-1.25781v-6.17188l.05859.05078 4.38281 2.34375 4.4375-.92187 3.65625 3.01562.2461 4.4375-3.90235 2.92969-2.28125 1.50781-2.15625 2.96485-.61328 1.47656.33984 4.4375.27344 2.60937 4.4375-.71093 4.4375 1.85546 2.41406.6836 2.02344.78125 4.4414 2.47656 2.23438 1.17969-2.23437 1.04687-4.4414-.15234-4.4375 1.35156-4.4375.15625-4.4375.28125-4.44141-.42578-4.4375.04688-4.4375.8164-4.4375.42969-3.6172-3.55078.17579-4.4375"/><path fill="#00e8fc" fill-rule="evenodd" d="M160.125 458.13672l-1.02734-4.4375 2.0039-4.4375.65235-1.375 1.16015-3.0664 3.27735-3.86329.84765-.57422 3.58985-2.51953v4.80078l-4.4375 2.04297-.09766.11328-1.04297 4.4414-3.29687 3.41798-.53125 1.01953.53125 1.5586 4.4375-1.27735.3125-.28125 1.38672-4.4375 2.73828-2.59766 4.4375-1.35547.36328-.48828-.36328-.73047-4.4375-1.42578v-4.80078l4.4375-.23437 4.4414 1.2578 2.0664 1.4961-2.0664 1.38281-1.1914 3.0547-3.25 4.3789-.1211.0625-2.15234 4.4375-2.16406 3.41015-1.26563 1.02735-.20703 4.4375-2.96484 1.1289-4.4375 1.07813-2.2461-2.20703.61719-4.4375"/><path fill="#00d4fc" fill-rule="evenodd" d="M161.7539 455.25781l-.53124-1.5586.53125-1.01952 3.29687-3.41797 1.04297-4.4414.09766-.11329 4.4375-2.04297 4.4375 1.42578.36328.73047-.36328.48828-4.4375 1.35547-2.73828 2.59766-1.38672 4.4375-.3125.28125-4.4375 1.27734"/><path fill="#50fcfc" fill-rule="evenodd" d="M197.26172 444.59766l-1.32031-4.21485L197.2617 439l2.04688-3.05469 2.39063-1.9961 3.53516 1.9961.90234.75781 1.51953-.7578 2.91797-1.47266v4.8125l-1.66016 1.09765-2.28125 4.4375 3.9414 2.96094 1.28517 1.48047 2.30859 4.4375-3.59375 3.58594-1.07422.85156 1.07422 1.36719 4.4414-.63672 2.17188-.73047 1.22266-4.4375 1.04297-.8789.85156-3.5586-.85156-2.08203-2.14844-2.35938-2.28906-1.84765-2.69532-2.58985-1.7461-1.09765v-4.8125l4.44142.23046 4.4375.98047 1.71093-4.17578-1.71094-.71094-3.64843-3.72656-.78906-1.57812-2.95704-2.86328-1.48437-.98438-4.4375-.49219-2.9375-2.96093.47266-4.4375 2.46484-2.33985 4.4375-1.13281 4.4414-.7539v.64843l-4.4414 1.75781-3.46875 1.82032-.96875 2.29687-.65234 2.14063.65234.66015 4.4375 1.04297 4.1211 2.73438.3203.30859 2.07032 4.13281 2.36719 2.41797 4.4375 1.63672.98437.38281 2.2461 4.4375 1.20702.8789 4.4375.69923 4.44141-.99219 1.35156-.58594 3.08594-.8789 3.92188-3.5586.51562-.28515 3.71875-4.15235.3125-4.4414-1.60156-4.4375-2.42969-2.91016-4.4375.76563-4.4375.1875-2.375 1.95703-2.0664 1.59765-4.4375-.36328-4.4375.94922-4.4375-1.4375-4.4375.71484-.25782-1.46093.25781-.04688 3.58204-4.39062-3.58203-3.57813v-.64844l4.23046 4.22657.20703 2.04296 2.1836 2.39454 2.2539.60937 4.4375-.4336 1.98829-.17577 2.44922-1.10938 4.4414-2.97656 4.4375.5625 3.89844-.91406-3.89844-2.83204-4.4375 2.25-2.91016-3.85546-.1289-4.44141 3.03906-3.03516v2.11329l-.92578.92187.6836 4.4414.24218.32032.5625-.32031.8125-4.44141-1.375-.92188v-2.11328l4.4375 2.8711.16406.16406 1.48828 4.4414 2.78516 3.875 3.21875-3.875 1.21875-1.22656v7.83594l-.60547 2.26563.60547 1.85937 3.91797-1.85937-3.91797-2.26563v-7.83594l3.76172-3.21484.67578-.67188 4.4414-.8789v2.45703l-4.4414 1.36328-2.33984 2.17188-1.1875 4.4375 3.52734 3.14062 3.86328 1.29688.57813.35156.35547-.35156 2.73828-4.4375.13672-4.4375-3.23047-3.53516v-2.45703l2.10547 1.55078 2.33203 4.09766.19922.34375-.19922.39843-.3164 4.03907-1.22267 4.4375-2.89843 2.85156-4.4414-1.65235-.90626 3.23829.90625 1.49609 4.4414.72266 4.4375-1.75.40626-.46875 4.03125-3.89844v.82812l-3.17578 3.07032-1.26172 1.44921-3.96485 2.9922 3.96485 3.55859.54297.8789 2.04687 4.4375 1.58594 4.4375.26172.29688 4.4375 1.07422 1.14062-1.3711 3.30078-1.70312L281.5 435.9453l.08984-.02344 4.4375-.26171 4.4375-1.28907 2.56641-2.86328-2.5664-3.10156-.15626-1.33594-2.1289-4.4414-2.15235-1.19532-4.4375-1.53515-4.4375.23828-4.4414-.3125-4.4375-.26563v-.82812l4.4375-.09766 4.4414.0039 4.4375.16798 4.4375.63672 4.4375 1.60937 1.92188 1.57813-1.09766 4.4414 3.01172 4.4375-3.83594 4.28125-.8125.15625-3.625 1.96485-4.4375.67578-4.4375 1.24219-1.07812.55468-3.36328 4.05078-4.4375-.92187-2.78125-3.1289-.88281-4.4375-.77344-2.8125-1.21094-1.625-3.22656-2.26173-4.4414-.77734-4.4375-.19922-2.04688 3.23828-2.39063 3.15235-1.67969 1.28515 1.6797 1.91797 1.64452 2.51953-1.64453 1.72266-4.4375.33984-2.34766-2.0625-2.08984-1.2539-4.4414.21093-4.4375.9297-.20313.11327-.1914 4.4375-3.46094 4.4414 3.85547 1.55079 3.65625 2.88672-.91797 4.4375-2.73828 1.42187-4.4375.63282-4.4375 1.54687-2.07422.83594-2.36328 1.57812-4.44141 2.28516-2.21094.57813-2.22656.53906-1.53516-.53906-2.20703-4.44141.78125-4.4375 2.96094-3.10938 2.01953-1.32812-1.76563-4.4375-.2539-.17969-4.4375.16406-4.38672-4.42578-.05078-.22265m4.4375-36.31641L199.375 404.875l2.32422-2.33984 4.4375.26953 1.6914 2.07031-1.6914 1.6836-4.4375 1.72265"/><path fill="#00e8fc" fill-rule="evenodd" d="M206.13672 418.85156l-.65234-.66015.65234-2.14063.96875-2.29687 3.46875-1.82032 4.4414-1.7578V411.25l-3.875 2.5039 3.875 3.07032 2.50391-3.07031-2.5039-2.50391v-1.07422l3.58203 3.57813-3.58203 4.39062-.25782.04688.25781 1.46093 4.4375-.71484v1.98828l-2.1328 1.70313 1.89843 4.4414.23438.23828 2.1289-.23828 1.6836-4.4414-3.8125-1.70313v-1.98828l4.4375 1.4375 4.4375-.94922 4.4375.36328 2.0664-1.59765 2.375-1.95704 4.4375-.1875 4.4375-.76562v2.79688l-1.625.11328-2.8125.20312-4.4375.55469-4.15625 3.67969-.28516 1.875-.67968-1.875-3.75781-1.44141-3.78516 1.4414-.4414 4.44141 4.22655 3.41406 4.4375-.01171 4.44141-1.03907 3.53516 2.07422.90234.70703.78125-.70703 3.65625-2.02344 2.16406-2.41406.16407-4.4414-2.23438-4.4375-.09375-.11329v-2.79687l2.42969 2.91016 1.60156 4.4375-.3125 4.4414-3.71875 4.15235-.51562.28515-3.92188 3.5586-3.08594.8789-1.35156.58594-4.4414.99219-4.4375-.69922-1.20704-.8789-2.24609-4.4375-.98438-.38282-4.4375-1.63672-2.36718-2.41797-2.07031-4.13281-.32032-.3086-4.1211-2.73437-4.4375-1.04297m4.4375 28.92969l-3.9414-2.96094 2.28125-4.4375 1.66016-1.09765 1.7461 1.09765 2.6953 2.58985 2.28907 1.84765 2.14844 2.35938.85156 2.08203-.85156 3.5586-1.04297.8789-1.22266 4.4375-2.17188.73047-4.4414.63672-1.07422-1.3672 1.07422-.85155 3.59375-3.58594-2.3086-4.4375-1.28515-1.48047"/><path fill="#00d4fc" fill-rule="evenodd" d="M215.01563 416.82422l-3.875-3.07031 3.875-2.50391v1.07813l-2.20704 1.42578 2.20703 1.74609 1.42579-1.7461-1.42578-1.42577V411.25l2.5039 2.5039-2.5039 3.07032"/><path fill="#00c4fc" fill-rule="evenodd" d="M215.01563 415.5l-2.20704-1.7461 2.20703-1.42577v1.07812l-.53906.34766.53906.42578.34375-.42578-.34375-.34766v-1.07813l1.42579 1.42579-1.42578 1.74609"/><path fill="#00b8fc" fill-rule="evenodd" d="M215.01563 414.17969l-.53907-.42578.53906-.34766.34375.34766-.34375.42578"/><path fill="#00d4fc" fill-rule="evenodd" d="M219.21875 427.07031l-1.89844-4.4414 2.13281-1.70313 3.8125 1.70313-1.68359 4.4414-2.1289.23828-.23438-.23828"/><path fill="#50fcfc" fill-rule="evenodd" d="M223.89063 406.96875l-1.75-2.09375 1.75-1.73438 1.75 1.73438-1.75 2.09375"/><path fill="#00d4fc" fill-rule="evenodd" d="M228.32813 430.48438l-4.22657-3.41407.4414-4.4414 3.78517-1.44141v1.96484l-2.44922 3.91797 2.44922 1.97656 2.8125-1.97656-2.8125-3.91797v-1.96484l3.7578 1.4414.6797 1.875.28515-1.875 4.15625-3.67968v1.6875l-2.2539 1.99219 1.6914 4.4414.5625.24219 4.4375 3.51563 4.4375-3.08204.60547-.67578.02344-4.4414-.6289-1.23047-4.4375-.09375-4.4375-.66797v-1.6875l4.4375-.55469 2.8125-.20312 1.625-.11329.09374.11329 2.23438 4.4375-.16407 4.4414-2.16406 2.41406-3.65625 2.02344-.78125.70703-.90234-.70703-3.53516-2.07422-4.4414 1.03907-4.4375.01171"/><path fill="#00c4fc" fill-rule="evenodd" d="M228.32813 429.04688l-2.44922-1.97657 2.44922-3.91797v2.84375l-.66797 1.07422.66797.53906.76953-.53906-.76953-1.07422v-2.84375l2.8125 3.91797-2.8125 1.97656"/><path fill="#00b8fc" fill-rule="evenodd" d="M228.32813 427.60938l-.66797-.53907.66797-1.07422.76953 1.07422-.76953.53906"/><path fill="#00c4fc" fill-rule="evenodd" d="M236.64453 427.07031l-1.6914-4.4414 2.2539-1.9922v1.6875l-.34766.3047.34766.76171.96875 3.6797 3.46875 2.85546 3.71875-2.85547-3.71875-3.78906-3.32422-.65234-1.11328-.3047v-1.6875l4.4375.66798 4.4375.09375.6289 1.23047-.02343 4.4414-.60547.67578-4.4375 3.08204-4.4375-3.51563-.5625-.24219"/><path fill="#00e8fc" fill-rule="evenodd" d="M236.96484 409.3164l-.68359-4.4414.92578-.92188 1.375.92188-.8125 4.4414-.5625.32032-.24219-.32031"/><path fill="#00b8fc" fill-rule="evenodd" d="M237.20703 423.39063l-.34766-.76172.34766-.3047 1.11328.3047 3.32422.65234v1.19531l-2.375 2.59375 2.375 1.95313 2.54297-1.95313-2.54297-2.59375v-1.19531l3.71875 3.78906-3.71875 2.85547-3.46875-2.85547-.96875-3.67969"/><path fill="#00a8fc" fill-rule="evenodd" d="M241.64453 429.02344l-2.375-1.95313 2.375-2.59375v1.19531l-1.28125 1.39844 1.28125 1.05078 1.3711-1.05078-1.3711-1.39844v-1.1953l2.54297 2.59374-2.54297 1.95313"/><path fill="#009800" fill-rule="evenodd" d="M241.64453 428.1211l-1.28125-1.05079 1.28125-1.39844v1.19532l-.1836.20312.1836.14844.19531-.14844-.1953-.20312v-1.19531l1.37108 1.39843-1.37109 1.05078"/><path fill="#00ac00" fill-rule="evenodd" d="M241.64453 427.21875l-.1836-.14844.1836-.20312.19531.20312-.1953.14844"/><path fill="#fff" fill-opacity="0" fill-rule="evenodd" d="M250.51953 415.92578l-.60547 2.26563.60547 1.85937 3.91797-1.85937-3.91797-2.26563"/><path fill="#50fcfc" fill-rule="evenodd" d="M250.51953 351.98438l-.1836-.3672.1836-.27734.25781.27735-.2578.36719"/><path fill="#00e8fc" fill-rule="evenodd" d="M254.95703 416.89453l-3.52734-3.14062 1.1875-4.4375 2.33984-2.17188 4.4414-1.36328v2.26563l-2.36327 1.26953-2.07813 2.53515-.94922 1.90235.94922.84375 4.4414 1.24218 1.38282-2.08593-.22656-4.4375-1.15625-1.26954v-2.26562l3.23047 3.53516-.13672 4.4375-2.73828 4.4375-.35547.35156-.57813-.35156-3.86328-1.29688"/><path fill="#00d4fc" fill-rule="evenodd" d="M254.95703 414.59766l-.94922-.84375.94922-1.90235 2.07813-2.53515 2.36328-1.26954 1.15625 1.26954.22656 4.4375-1.38281 2.08593-4.4414-1.24218"/><path fill="#00e8fc" fill-rule="evenodd" d="M263.83594 430.6289l-3.96485-3.55859 3.96485-2.99219 1.26172-1.44921 3.17578-3.07032v1.375l-1.7539 1.69532-2.6836 3.08203-1.80078 1.35937 1.80078 1.61328 1.7461 2.82422 2.6914 3.77735.60156.66015 3.83594 3.46875 4.4414-2.64844 1.30079-.8203 3.13671-.85938 4.4375-.36328 4.4375-2.71094.45313-.5039-.45313-.54688-.45312-3.89063-3.98438-4.23828-2.48437-.20312-1.95313-.91407-4.39843.91407-.03907.0039-.05078-.0039-4.39062-.81641-4.4375-.8789v-1.375l4.4375.26562 4.4414.3125 4.4375-.23828 4.4375 1.53515 2.15235 1.19532 2.1289 4.4414.15625 1.33594 2.56641 3.10156-2.5664 2.86328-4.4375 1.28907-4.4375.26171-.08985.02344-4.34766 2.73438-3.30078 1.70312-1.14062 1.3711-4.4375-1.07422-.26172-.29688-1.58594-4.4375-2.04687-4.4375-.54297-.8789"/><path fill="#00d4fc" fill-rule="evenodd" d="M263.83594 428.6836l-1.80078-1.61329 1.80078-1.35937 2.6836-3.08203 1.7539-1.69532v1.375l-.32813.32032-3.84375 4.4414 2.6836 4.4375 1.48828 2.08985 2.14844 2.34765 2.28906 2.07422 3.20312-2.07422 1.23828-2.17969 4.4375.48438 4.4375-.46484 3.35157-2.27735.33593-4.4375-3.6875-3.92187-4.4375-.0586-4.4375.42579-4.4414-.16407-3.17969-.72265-1.25781-.32032v-1.375l4.4375.87891 4.39062.8164.05078.00391.03907-.0039 4.39843-.91407 1.95313.91407 2.48437.20312 3.98438 4.23828.45312 3.89063.45313.54687-.45313.5039-4.4375 2.71095-4.4375.36328-3.13671.85937-1.30079.82031-4.4414 2.64844-3.83594-3.46875-.60156-.66015-2.6914-3.77735-1.7461-2.82422"/><path fill="#00c4fc" fill-rule="evenodd" d="M266.78516 431.50781l-2.6836-4.4375 3.84375-4.4414.32813-.32032 1.25781.32032 3.17969.72265 4.4414.16406 4.4375-.42578 4.4375.0586v.3164l-4.4375.54297-4.4375.38672-4.4414.1875-4.4375-.55469-2.60938 3.04297 2.32422 4.4375.28516.40235 3.6914 4.03515.7461.67578 1.04687-.67578.54688-4.4375 2.84765-.52734.67188.52734 3.76562 1.90625 4.4375-.57031 1.96875-1.33594 1.42188-4.4375-3.39063-3.60547v-.3164l3.6875 3.92187-.33593 4.4375-3.35157 2.27735-4.4375.46484-4.4375-.48438-1.23828 2.1797-3.20312 2.07421-2.28906-2.07422-2.14844-2.34765-1.48828-2.08985"/><path fill="#00b8fc" fill-rule="evenodd" d="M267.98828 431.50781l-2.32422-4.4375 2.60938-3.04297 4.4375.5547 4.4414-.1875 4.4375-.38673 4.4375-.54297v.31641l-4.4375 1.14844-4.4375.34765-4.4414.53516-4.4375.03516-1.04688 1.22265 1.04688 2.07422 4.4375.45313 4.4414.09375 2.32032 1.8164 2.11718 1.07031 4.4375-.67187.58985-.39844 2.5039-4.4375-3.09375-3.28906v-.3164l3.39063 3.60546-1.42188 4.4375-1.96875 1.33594-4.4375.57031-3.76562-1.90625-.67188-.52734-2.84765.52734-.54688 4.4375-1.04687.67578-.7461-.67578-3.6914-4.03515-.28516-.40235"/><path fill="#00a8fc" fill-rule="evenodd" d="M268.27344 429.14453l-1.04688-2.07422 1.04688-1.22265 4.4375-.03516 4.4414-.53516 4.4375-.34765 4.4375-1.14844v.3164l-4.4375 1.75-4.4375.3086-4.4414.88281-.28125.03125.28125.05469 4.4414 1.28125 3.97266 3.10156.46484.23438 1.46094-.23438 2.97656-.25781 2.79688-4.17969-2.79688-2.97265v-.31641l3.09375 3.28906-2.5039 4.4375-.58985.39844-4.4375.67188-2.11718-1.07032-2.32032-1.8164-4.4414-.09375-4.4375-.45313"/><path fill="#009800" fill-rule="evenodd" d="M272.71094 427.125l-.28125-.05469.28125-.03125 4.4414-.88281 4.4375-.3086 4.4375-1.75v.31641l-4.4375 2.35547-4.4375.26563-.16015.03515.16015.04688 4.4375 1.33203 4.4375 2.35547 2.5-3.73438-2.5-2.65625v-.3164l2.79688 2.97265-2.79688 4.17969-2.97656.25781-1.46094.23438-.46484-.23438-3.97266-3.10156-4.4414-1.28125"/><path fill="#00ac00" fill-rule="evenodd" d="M277.15234 427.11719l-.16015-.04688.16015-.03515 4.4375-.26563 4.4375-2.35547v.3164l-4.0664 2.33985 4.0664 3.28906 2.19922-3.28906-2.19922-2.33984v-.3164l2.5 2.65624-2.5 3.73438-4.4375-2.35547-4.4375-1.33203"/><path fill="#00c800" fill-rule="evenodd" d="M286.02734 430.35938l-4.0664-3.28907 4.0664-2.33984v.63281l-2.96875 1.70703 2.96875 2.40235 1.60547-2.40235-1.60547-1.70703v-.63281l2.19922 2.33984-2.19922 3.28906"/><path fill="#10cc00" fill-rule="evenodd" d="M286.02734 429.47266l-2.96875-2.40235 2.96875-1.70703v.6289l-1.86718 1.07813 1.86718 1.51172 1.01172-1.51172-1.01172-1.07812v-.6289l1.60547 1.70702-1.60547 2.40235"/><path fill="#24d000" fill-rule="evenodd" d="M286.02734 428.58203l-1.86718-1.51172 1.86718-1.07812v.63281l-.76953.44531.76953.6211.41797-.6211-.41797-.44531v-.63281l1.01172 1.07812-1.01172 1.51172"/><path fill="#3cd800" fill-rule="evenodd" d="M286.02734 427.6914l-.76953-.62109.76953-.44531.41797.44531-.41797.6211"/><path fill="#50fcfc" fill-rule="evenodd" d="M299.34375 459.46875l-2.09375-1.33203 2.09375-1.59375 4.4375-1.78906 1.14063-1.0547 3.29687-2.61327 4.4375-.0586v3.3672l-4.4375.0078-4.01563 3.73438 4.01563 2.11328 4.4375.0625 4.4414-1.83203.44923-.34375-.44922-.82031-4.44141-2.92188v-3.36719l4.4414.53907 3.01173 2.1328.75 4.4375-3.76172 2.85157-4.44141 1.02735-4.4375.25-4.4375-.41797-4.4375-2.37891"/><path fill="#00e8fc" fill-rule="evenodd" d="M308.21875 460.25l-4.01563-2.11328 4.01563-3.73438 4.4375-.0078 4.4414 2.92187.44923.8203-.44922.34376-4.44141 1.83203-4.4375-.0625"/><path fill="#50fcfc" fill-rule="evenodd" d="M325.97266 458.96484l-1.89063-.82812.52735-4.4375 1.36328-2.09766 4.4375-1.96484 1.16796-.375 3.26954-1.8711 4.4414 1.00782 2.30469.86328-1.19531 4.4375-1.10938.80469-4.4414 2.5625-.83594 1.0703-3.60156 2.60157-4.4375-1.77344m4.4375-34.83593l-1.94141-1.5 1.9414-2 4.4375-.75782 4.44141-.73828 2.6836 3.4961-2.6836 2.1328-4.4414.26954-4.4375-.90234m17.7539 14.14843l-2.38281-2.33203 2.38281-2.9375 4.4375 1.77735 1.61328 1.16015 2.82813 1.94922 4.4375.63281 2.07031 1.85547-2.07031 1.8164-4.4375-.07812-4.4414-.40234-1.32032-1.33594-3.11719-2.10547m26.6289 11.35547l-.37108-.3711.37109-.375.38672.375-.38672.3711m13.3164 14.54297l-1.71484-1.60156 1.71485-1.91797 2.04296 1.91797-2.04296 1.60156m4.4375-6.1875l-3.1172-4.28906.10157-4.4375 3.01563-3.03516 4.4375-.2539v2.11718l-4.4375.63282-.53516.53906-.59766 4.4375 1.13281 1.5625 1.78125-1.5625L396.98438 451l1.19532-1.73828-1.19531-1.17188v-2.11718l3.35156 3.28906 1.08984 4.07031 4.4375-1.39844v5.21875l-.4961.98438.4961.51172 3.30078-.51172-3.30078-.98438v-5.21875l2.63672 1.76563 1.80078.98828 4.4375.21484 2.11328-1.20312 2.32813-2.14844 4.4375-1.08203 2.86719 3.23047.85546 4.4375-1.15625 4.4375-2.5664 2.16015-4.4375-.43359-3.04297-1.72656-1.39844-.79297-4.4375.0039-4.4375-.16406-3.36328-3.48437-1.07422-3.95703-4.4414.42187-4.4375 3.38672"/><path fill="#00e8fc" fill-rule="evenodd" d="M392.54688 455.26172l-1.13282-1.5625.59766-4.4375.53515-.53906 4.4375-.63282 1.19532 1.17188L396.98438 451l-2.65625 2.69922-1.78125 1.5625m13.3164 3.38672l-.4961-.51172.4961-.98438 3.30078.98438-3.30078.51172"/><path fill="#50fcfc" fill-rule="evenodd" d="M450.2461 448.99219l-3.57423-4.17188 3.40625-4.4375.16797-.69531v4.6289l-.40234.50391.40234.47266.32422-.47266-.32422-.5039v-4.62891l.09766.69531 2.76563 4.4375-2.86329 4.17188m0 17.1289l-3.27343-3.54687 3.27343-2.4961 2.03907-1.9414 2.39843-2.1289 4.44141-.56641v2.6289l-.27344.0664-4.16797.77345-3.76171 3.66406 3.76171 2.46875 4.41797-2.46875.02344-1.24219.0664-3.19531-.0664-.0664v-2.62891l3.4336-1.7422 1.0039-1.34765 1.20313 1.34766-1.20313 1.03906-1.69922 3.39844v4.4375l-2.73828 2.94922-4.4414.85547-4.4375-.25782"/><path fill="#00e8fc" fill-rule="evenodd" d="M450.2461 445.29297l-.40235-.47266.40234-.5039.32422.5039-.32422.47266m4.4375 19.75l-3.76171-2.46875 3.76171-3.66406v3.3125l-.35937.35156.35937.23828.42579-.23828-.42579-.35156v-3.3125l4.16797-.77344.27344-.0664.0664.0664-.0664 3.19531-.02344 1.24219-4.41797 2.46875"/><path fill="#00d4fc" fill-rule="evenodd" d="M454.6836 462.8125l-.35938-.23828.35937-.35156.42579.35156-.42579.23828"/><path fill="#50fcfc" fill-rule="evenodd" d="M459.125 478.58594l-3.32813-2.69531 2.06641-4.4375 1.26172-.75v5.04296l-.09766.14454.09766.07812.08984-.07813-.08984-.14453v-5.04296l.80078.75 2.38281 4.4375-3.18359 2.6953"/><path fill="#00e8fc" fill-rule="evenodd" d="M459.125 475.96875l-.09766-.07813.09766-.14453.08984.14454-.08984.07812"/><g clip-path="url(#c)"><path fill="#fff" fill-opacity="0" fill-rule="evenodd" d="M467.9961 480.32813H468V311.67188h-.0039H468v168.65625h-.0039"/></g><path fill="#fff" fill-opacity="0" fill-rule="evenodd" d="M228.3711 407.76172l1.9375 5.50781 9.39843-3.30078-1.9375-5.50781-9.39844 3.30078"/><path fill-rule="evenodd" d="M237.19922 408.36719l.17187.48047-5.9414 2.08593-.26172-.74218 4.23828-1.48829-.46094-1.30859.52344-.1836.2461.50782.13671.21875.16016.1875.19922.14453.25781.09375.32422.03516.40625-.03125"/><path fill="#fff" fill-opacity="0" fill-rule="evenodd" d="M269.33594 423.74219l5.84375-.0664-.10938-9.95704-5.83984.0625.10547 9.96094"/><path fill-rule="evenodd" d="M272.75 415.57422l.50781-.0039.0664 6.29296-.78515.00781-.04687-4.48828-1.39063.01563-.0039-.55469.55859-.07031.25-.0586.23047-.08984.19922-.14453.17187-.21094.14063-.29687.10156-.39844"/><path fill="#fff" fill-opacity="0" fill-rule="evenodd" d="M221.75781 465.92969l5.67578-1.3789-2.35547-9.6797-5.67578 1.38282 2.35547 9.67578"/><path fill-rule="evenodd" d="M223.23438 457.20703l.49609-.1211 1.48828 6.1172-.76563.1875-1.0625-4.36329-1.34765.32813-.13281-.53906.53125-.19532.23047-.11328.20312-.14062.16406-.1875.1211-.24219.0664-.32031.00781-.41016"/><path fill="#fff" fill-opacity="0" fill-rule="evenodd" d="M156.82813 469.76563l5.5078 1.9453 3.32032-9.39062-5.50781-1.94531-3.32031 9.39063"/><path fill-rule="evenodd" d="M162.83594 463.26953l.48047.16797-2.09766 5.9336-.74219-.26173 1.4961-4.23046-1.3086-.46485.1875-.52344.54688.125.25781.03516.2461-.00781.23827-.0664.23438-.14063.23047-.23047.23047-.33594"/><g clip-path="url(#d)"><path fill="none" stroke="#000" stroke-linecap="round" stroke-linejoin="round" stroke-miterlimit="10" stroke-width=".5" d="M146.63281 478l-5.26562 4.65625"/></g><g clip-path="url(#e)"><path fill="none" stroke="#000" stroke-linecap="round" stroke-linejoin="round" stroke-miterlimit="10" stroke-width=".5" d="M158.14453 476.91406l-1.66016 6.82813"/></g><path fill="none" stroke="#000" stroke-linecap="round" stroke-linejoin="round" stroke-miterlimit="10" stroke-width=".5" d="M157.90625 477.91016l1.1875-.3047"/><g clip-path="url(#f)"><path fill="none" stroke="#000" stroke-linecap="round" stroke-linejoin="round" stroke-miterlimit="10" stroke-width=".5" d="M171.82813 477.02734l-2.39454 6.60547"/></g><path fill="none" stroke="#000" stroke-linecap="round" stroke-linejoin="round" stroke-miterlimit="10" stroke-width=".5" d="M171.48047 477.98828l1.21484-.17187"/><g clip-path="url(#g)"><path fill="none" stroke="#000" stroke-linecap="round" stroke-linejoin="round" stroke-miterlimit="10" stroke-width=".5" d="M184.76172 476.91016l-1.63281 6.83593"/></g><path fill="none" stroke="#000" stroke-linecap="round" stroke-linejoin="round" stroke-miterlimit="10" stroke-width=".5" d="M184.52344 477.90625l1.1875-.3086"/><g clip-path="url(#h)"><path fill="none" stroke="#000" stroke-linecap="round" stroke-linejoin="round" stroke-miterlimit="10" stroke-width=".5" d="M200.72656 480.89453l-6.9336-1.13281"/></g><g clip-path="url(#i)"><path fill="none" stroke="#000" stroke-linecap="round" stroke-linejoin="round" stroke-miterlimit="10" stroke-width=".5" d="M212.29297 483.39453l-3.4336-6.13281"/></g><g clip-path="url(#j)"><path fill="none" stroke="#000" stroke-linecap="round" stroke-linejoin="round" stroke-miterlimit="10" stroke-width=".5" d="M226.71875 482.41016l-5.66016-4.16407"/></g><g clip-path="url(#k)"><path fill="none" stroke="#000" stroke-linecap="round" stroke-linejoin="round" stroke-miterlimit="10" stroke-width=".5" d="M240.71875 480.27734l-7.02734.10547"/></g><g clip-path="url(#l)"><path fill="none" stroke="#000" stroke-linecap="round" stroke-linejoin="round" stroke-miterlimit="10" stroke-width=".5" d="M239.69531 480.29297l.59375 1.07422"/></g><g clip-path="url(#m)"><path fill="none" stroke="#000" stroke-linecap="round" stroke-linejoin="round" stroke-miterlimit="10" stroke-width=".5" d="M253.75 478.9414l-6.45703 2.77344"/></g><g clip-path="url(#n)"><path fill="none" stroke="#000" stroke-linecap="round" stroke-linejoin="round" stroke-miterlimit="10" stroke-width=".5" d="M252.8086 479.34766l.95702.76562"/></g><g clip-path="url(#o)"><path fill="none" stroke="#000" stroke-linecap="round" stroke-linejoin="round" stroke-miterlimit="10" stroke-width=".5" d="M267.02734 478.86328l-6.3828 2.9336"/></g><g clip-path="url(#p)"><path fill="none" stroke="#000" stroke-linecap="round" stroke-linejoin="round" stroke-miterlimit="10" stroke-width=".5" d="M266.09766 479.28906l.97656.7461"/></g><g clip-path="url(#q)"><path fill="none" stroke="#000" stroke-linecap="round" stroke-linejoin="round" stroke-miterlimit="10" stroke-width=".5" d="M280.1836 478.55078l-6.0625 3.55469"/></g><path fill="none" stroke="#000" stroke-linecap="round" stroke-linejoin="round" stroke-miterlimit="10" stroke-width=".5" d="M279.30078 479.07031l1.04297.64063"/><g clip-path="url(#r)"><path fill="none" stroke="#000" stroke-linecap="round" stroke-linejoin="round" stroke-miterlimit="10" stroke-width=".5" d="M293.84766 479.3789l-6.76563 1.89844"/></g><g clip-path="url(#s)"><path fill="none" stroke="#000" stroke-linecap="round" stroke-linejoin="round" stroke-miterlimit="10" stroke-width=".5" d="M292.86328 479.65625l.84766.88672"/></g><g clip-path="url(#t)"><path fill="none" stroke="#000" stroke-linecap="round" stroke-linejoin="round" stroke-miterlimit="10" stroke-width=".5" d="M307.19922 481.14453l-6.83594-1.6289"/></g><g clip-path="url(#u)"><path fill="none" stroke="#000" stroke-linecap="round" stroke-linejoin="round" stroke-miterlimit="10" stroke-width=".5" d="M306.20313 480.90625l.30859 1.1875"/></g><g clip-path="url(#v)"><path fill="none" stroke="#000" stroke-linecap="round" stroke-linejoin="round" stroke-miterlimit="10" stroke-width=".5" d="M320.38281 481.5664l-6.57422-2.47656"/></g><g clip-path="url(#w)"><path fill="none" stroke="#000" stroke-linecap="round" stroke-linejoin="round" stroke-miterlimit="10" stroke-width=".5" d="M319.42578 481.20703l.15625 1.21875"/></g><g clip-path="url(#x)"><path fill="none" stroke="#000" stroke-linecap="round" stroke-linejoin="round" stroke-miterlimit="10" stroke-width=".5" d="M333.875 480.91406l-6.92969-1.17187"/></g><g clip-path="url(#y)"><path fill="none" stroke="#000" stroke-linecap="round" stroke-linejoin="round" stroke-miterlimit="10" stroke-width=".5" d="M332.86719 480.74219l.38672 1.16406"/></g><g clip-path="url(#z)"><path fill="none" stroke="#000" stroke-linecap="round" stroke-linejoin="round" stroke-miterlimit="10" stroke-width=".5" d="M347.22656 480.6211l-7-.58594"/></g><g clip-path="url(#A)"><path fill="none" stroke="#000" stroke-linecap="round" stroke-linejoin="round" stroke-miterlimit="10" stroke-width=".5" d="M346.20703 480.53516l.48438 1.1289"/></g><g clip-path="url(#B)"><path fill="none" stroke="#000" stroke-linecap="round" stroke-linejoin="round" stroke-miterlimit="10" stroke-width=".5" d="M360.46094 481.1289l-6.83985-1.60156"/></g><g clip-path="url(#C)"><path fill="none" stroke="#000" stroke-linecap="round" stroke-linejoin="round" stroke-miterlimit="10" stroke-width=".5" d="M359.46484 480.89844l.31641 1.1836"/></g><g clip-path="url(#D)"><path fill="none" stroke="#000" stroke-linecap="round" stroke-linejoin="round" stroke-miterlimit="10" stroke-width=".5" d="M373.79688 481.03125l-6.88282-1.40625"/></g><g clip-path="url(#E)"><path fill="none" stroke="#000" stroke-linecap="round" stroke-linejoin="round" stroke-miterlimit="10" stroke-width=".5" d="M372.79688 480.82813l.34765 1.17578"/></g><g clip-path="url(#F)"><path fill="none" stroke="#000" stroke-linecap="round" stroke-linejoin="round" stroke-miterlimit="10" stroke-width=".5" d="M387.10938 481.04688l-6.87891-1.4336"/></g><g clip-path="url(#G)"><path fill="none" stroke="#000" stroke-linecap="round" stroke-linejoin="round" stroke-miterlimit="10" stroke-width=".5" d="M387.10938 481.04688l.6875 2.35546"/></g><g clip-path="url(#H)"><path fill="none" stroke="#000" stroke-linecap="round" stroke-linejoin="round" stroke-miterlimit="10" stroke-width=".5" d="M400.5 480.36328l-7.02734-.07031"/></g><g clip-path="url(#I)"><path fill="none" stroke="#000" stroke-linecap="round" stroke-linejoin="round" stroke-miterlimit="10" stroke-width=".5" d="M400.5 480.36328l1.1289 2.17969"/></g><g clip-path="url(#J)"><path fill="none" stroke="#000" stroke-linecap="round" stroke-linejoin="round" stroke-miterlimit="10" stroke-width=".5" d="M413.77734 480.85156l-6.94921-1.04687"/></g><g clip-path="url(#K)"><path fill="none" stroke="#000" stroke-linecap="round" stroke-linejoin="round" stroke-miterlimit="10" stroke-width=".5" d="M412.76563 480.69922l.40625 1.15625"/></g><g clip-path="url(#L)"><path fill="none" stroke="#000" stroke-linecap="round" stroke-linejoin="round" stroke-miterlimit="10" stroke-width=".5" d="M427.1211 480.0664l-7.00782.52344"/></g><g clip-path="url(#M)"><path fill="none" stroke="#000" stroke-linecap="round" stroke-linejoin="round" stroke-miterlimit="10" stroke-width=".5" d="M426.10156 480.14063l.65625 1.03906"/></g><g clip-path="url(#N)"><path fill="none" stroke="#000" stroke-linecap="round" stroke-linejoin="round" stroke-miterlimit="10" stroke-width=".5" d="M439.97266 478.57031l-6.08204 3.51563"/></g><g clip-path="url(#O)"><path fill="none" stroke="#000" stroke-linecap="round" stroke-linejoin="round" stroke-miterlimit="10" stroke-width=".5" d="M439.97266 478.57031l2.08203 1.29688"/></g><g clip-path="url(#P)"><path fill="none" stroke="#000" stroke-linecap="round" stroke-linejoin="round" stroke-miterlimit="10" stroke-width=".5" d="M452.78516 477.90234l-5.07813 4.85547"/></g><path fill="none" stroke="#000" stroke-linecap="round" stroke-linejoin="round" stroke-miterlimit="10" stroke-width=".5" d="M452.78516 477.90234l2.33203.76953"/><g clip-path="url(#Q)"><path fill="none" stroke="#000" stroke-linecap="round" stroke-linejoin="round" stroke-miterlimit="10" stroke-width=".5" d="M467.00781 481.01953l-6.89062-1.3789"/></g><g clip-path="url(#R)"><path fill="none" stroke="#000" stroke-linecap="round" stroke-linejoin="round" stroke-miterlimit="10" stroke-width=".5" d="M466.0039 480.8164l.35157 1.17579"/></g><g clip-path="url(#S)"><path fill="none" stroke="#000" stroke-linecap="round" stroke-linejoin="round" stroke-miterlimit="10" stroke-width=".5" d="M147.26172 465.70313l-6.52344 2.62109"/></g><path fill="none" stroke="#000" stroke-linecap="round" stroke-linejoin="round" stroke-miterlimit="10" stroke-width=".5" d="M147.26172 465.70313l1.875 1.58203m11.375-1.73438l-6.39063 2.92578m6.39063-2.92578l1.94531 1.49219m11.23047-1.76172l-6.11328 3.46484m6.11328-3.46484l2.07031 1.3164m11.57031-.53515l-6.76562 1.90234m5.78125-1.625l.84766.88672m13.35937 1.01953l-6.58203-2.46484m5.625 2.10547l.16016 1.21484m13.37109.32813l-5.10156-4.83203m4.35937 4.1289l-.32422 1.1836m14.48047-.58985l-5.29687-4.61328m4.52734 3.9414l-.27734 1.19532m14.5625-.77344l-5.69531-4.11328m4.86718 3.51563l-.16797 1.21484m14.8125-1.61328l-6.69922-2.1211m5.72266 1.8125l.22266 1.20704m14.1211-1.08204l-6.8047-1.7539m5.81641 1.4961l.28516 1.1953m13.98047-.80078L273.78515 466m5.75 1.73047l.23828 1.20703m14.14844-1.29297l-6.91407-1.26172m5.91016 1.07813l.3711 1.16797m13.98046-1.1836l-6.97656-.86328m5.96094.73828l.4375 1.14453m13.91797-1.4375L313.58203 467m7.02735.02734l1.14453 2.17188m12.15234-1.8086l-6.98828-.7539m5.96875.64453l.45703 1.13672m13.78906-.54688l-6.8125-1.71484m5.82032 1.46484l.29687 1.19141m13.8711-.50781l-6.53516-2.58203m5.58594 2.20703l.13671 1.21875m14.16016-3.33594l-6.60156 2.40234m5.64453-2.05078l.91016.82032m13.49218.79296L380.2422 466.25m5.85937 1.30469l.32813 1.1836M400.5 467.0664l-7.02734-.10547m7.02734.10547l1.11719 2.18359m12.14453-1.61719l-6.91797-1.23828m6.91797 1.23828l.75 2.33594m12.5625-2.33984l-6.91797-1.23047m6.91797 1.23047l.75781 2.33593m12.52735-2.17578l-6.85547-1.55078m6.85547 1.55078l.64453 2.36328m12.64453-2.26171l-6.80469-1.75391m6.80469 1.7539l.57422 2.38672m12.66797-2.1328l-6.65625-2.26173m5.6875 1.92969l.1953 1.21094"/><g clip-path="url(#T)"><path fill="none" stroke="#000" stroke-linecap="round" stroke-linejoin="round" stroke-miterlimit="10" stroke-width=".5" d="M147.4336 452.96094l-6.8672 1.47656"/></g><path fill="none" stroke="#000" stroke-linecap="round" stroke-linejoin="round" stroke-miterlimit="10" stroke-width=".5" d="M147.4336 452.96094l1.58202 1.8789m11.70704-1.99218l-6.81641 1.70312m6.8164-1.70312l1.64454 1.82421m11.65625-1.8789l-6.78906 1.8125m5.80078-1.55078l.83593.89843m13.58203-.48437l-7.01562.46094m7.01563-.46094l1.28906 2.08594m11.92578-1l-6.8164-1.71094m6.8164 1.71094l.58984 2.3789m12.53516-1.82812l-6.4375-2.8164m6.4375 2.8164l.1875 2.44922m12.2461-1.23047l-4.67188-5.25m3.99219 4.48437l-.42579 1.15235m14.33203-.3125l-4.49609-5.40235m3.83984 4.6172l-.46484 1.13671m15.42969-1.69922l-6.48438-2.70703m5.54297 2.3164l.11328 1.21876m14.41016-1.9922l-7.01563-.375m5.9961.32032l.51562 1.11328m13.76953-.64062l-6.91796-1.21485m5.91406 1.03907l.3789 1.16797m13.67188-.1211l-6.3789-2.95312m5.44921 2.52343l.0664 1.22266m14.5-2.125l-7.02343-.28906m6 .2461l.53125 1.10546m13.77344-.70312l-6.95703-1.00782m5.94531.85938l.41406 1.15625m13.9375-1.23438l-7.0039-.55468m19.0703-2.41797l-4.5078 5.39062m14.98437-6.16015l1.16797 6.92968m12.92969-6.97265l-.39844 7.01562m.33984-5.9961l1.1172-.51171m11.0039-.35156l2.10547 6.70312m-1.79688-5.73047l.85938-.8711m12.84375 6.7461l.71484-6.99218m15.96094 5.3203l-6.00782-3.64843m18.41016 4.64844l-4.17969-5.64844m3.57032 4.82422l-.52735 1.10937m13.54297.19922l-2.36328-6.61718m2.01953 5.65234l-.82812.91016m11.84375-.0586l2.92187-6.39062m-2.92187 6.39062l-2.44922.14453m14.89453-.71093l4.66406-5.25782m-3.98437 4.49219l-1.19532-.28906"/><g clip-path="url(#U)"><path fill="none" stroke="#000" stroke-linecap="round" stroke-linejoin="round" stroke-miterlimit="10" stroke-width=".5" d="M147.47656 439.8711l-6.95312 1.02734"/></g><path fill="none" stroke="#000" stroke-linecap="round" stroke-linejoin="round" stroke-miterlimit="10" stroke-width=".5" d="M147.47656 439.8711l1.45703 1.97265m11.89453-1.39063l-7.02734-.13671m7.02734.13672l1.10938 2.1875m12.20313-2.44141l-7.01954.36719m7.01953-.3672l1.26172 2.10157m12.03125-1.48437l-6.97656-.86329m6.97656.86329l.875 2.28906m12.38672-1.97656l-6.86719-1.48828m6.8672 1.48828l.66405 2.35937m12.50391-1.86719l-6.57422-2.47656m6.57422 2.47656l.3125 2.4336m12.59375-1.65625l-5.75781-4.03125m5.75781 4.03125l-.30078 2.4375m14.2461-4.26172l-7.01954-.38281m5.9961.32812l.51562 1.11328m7.11719-2.70703l6.39453 2.91406m12.2461-4.2539l-4.25782 5.59375m3.63672-4.77735l1.21094.19532m13.57812-.07422l-5.96094 3.72265m18.73438-4.39062l-4.8789 5.05469m4.16796-4.32032l1.17969.33985m13.86328.83203l-6.91406 1.2461m5.91015-1.06641l.75782.96484m13.61718-.55469l-7.02734.0625m6.0039-.05469l.58594 1.07813m13.5586-2.20313l-6.64063 2.29688m13.78125-3.19531l5.71094 4.09375m9.19531-5.32422l2.52735 6.5586m-2.16016-5.60548l.80469-.92578m12.38281-.10937l2.04688 6.72265m-2.04688-6.72265l1.73828-1.73438m9.1211 4.59766l6.95703.99219m-6.95703-.9922l-.83204-2.30859m19.41016-.22265l-3.5664 6.05469m14.69921-6.51563l.79688 6.98047m10.23047-5.75781l5.3711 4.53125m10.3828 1.23828l.4961-7.00781m-.42578 5.98828l-1.1211.5m16.52735-.03516l-3.82813-5.89453m3.26953 5.03516l-.59375 1.07421m10.05469-.6914l4.9961-4.9414m-4.26954 4.22265l-1.16797-.36719"/><g clip-path="url(#V)"><path fill="none" stroke="#000" stroke-linecap="round" stroke-linejoin="round" stroke-miterlimit="10" stroke-width=".5" d="M147.48828 426.64063l-6.97656.85546"/></g><path fill="none" stroke="#000" stroke-linecap="round" stroke-linejoin="round" stroke-miterlimit="10" stroke-width=".5" d="M147.48828 426.64063l1.40625 2.01171m-2.42187-1.88672l.70312 1.00391m13.65234-.58984l-7.02343-.21875m7.02344.21875l1.08203 2.19922m-2.10547-2.23438l.54297 1.10156m13.76953-.7539l-6.97656-.84766m6.97656.84766L175 429.78516m12.3164-1.73438l-6.74609-1.96484m5.76563 1.67969l.25 1.20312m13.29687.4414l-5.24219-4.67968m4.47657 3.9961l-.28906 1.1914m15.01562-1.55469l-6.53516-2.58984m6.53516 2.58984l.26953 2.4375m11.32031-6.88672l-3.08593 6.3125m18.17187-1.9961l-6.6289-2.32421m18.8828 3.85938l-4.5039-5.39454m3.84766 4.60938l-.46094 1.13672m15.41016-1.66797l-6.46094-2.76172m15.90625-2.07422l1.27734 6.91016m10.08203-5.82422l5.1875 4.73828m7.9922-.15625l5.46093-4.42578m8.8711-.85547l3.42577 6.13672m-2.92578-5.24219l.66407-1.03125m14.3203-.27734l-.91405 6.96484m.78125-5.95312l1.14843-.4297m11.64844-.60937l.39063 7.01954m-.33204-5.9961l1.04688-.63672m8.91016 2.75l6.98828.7461m-5.97266-.63672l-.45703-1.14063m13.46484-.73828l5.57032 4.28516m-4.75782-3.66016l.20313-1.21094m13.72656-.51171l2.71875 6.48046m-2.71875-6.48046l1.55078-1.89844m13.63281 1.66406l-1.01953 6.94922m1.01953-6.94922l2.3125-.82812m9.41407.96093l2.16015 6.6836m-1.84765-5.71094l.85547-.88281m16.73046 3.52343l-7.0078-.54296m5.98827.46484l.48828 1.125m11.36329-1.3164l-.01954-.20313-.05859-.1914-.09375-.17579-.45703-.375-.1914-.0586-.20313-.01952-.19922.01953-.1914.05859-.45704.375-.09375.17578-.0586.1914-.01952.20313.01953.19922.0586.1914.09374.17579.45703.375.1914.0586.19923.01952.20312-.01953.1914-.0586.45704-.375.09375-.17577.0586-.1914.01953-.19923m14.5625 2.67969l-4.53907-5.36328m3.8789 4.58203l-.45312 1.14063m9.9961-.27344l4.32422-5.53516m-3.69532 4.73047l-1.20703-.21094"/><g clip-path="url(#W)"><path fill="none" stroke="#000" stroke-linecap="round" stroke-linejoin="round" stroke-miterlimit="10" stroke-width=".5" d="M147.21484 412.33984l-6.42968 2.82813"/></g><path fill="none" stroke="#000" stroke-linecap="round" stroke-linejoin="round" stroke-miterlimit="10" stroke-width=".5" d="M147.21484 412.33984l1.9297 1.51953m11.46874-1.3164l-6.59766 2.42187m6.59766-2.42187l1.82813 1.63672m11.59375-1.28907l-6.8125 1.72657m6.8125-1.72657l1.64843 1.81641m11.76953-1.1211l-7.01562.33594m7.01563-.33593l1.2578 2.10937m12.0625-1.86328l-7.02734-.15625m7.02735.15625l1.10156 2.1914m11.375.00782l-5.34766-4.5586m18.54297 4.69532l-5.10937-4.82813M240.64063 414.5l-6.8672-1.49219m5.8672 1.27344l.33203 1.17969m14.0078-2.3164l-6.92187 1.21874m5.91407-1.03906l.7578.96484m13.375-1.82031l-6.53905 2.57031m5.58593-2.19531l.9336.79687m12.78906-2.10546l-5.44922 4.4375m4.65625-3.79297l1.13281.47656m12.27735-1.77344l-4.05469 5.73828m3.46484-4.90234l1.21875.15625m11.73438-1.46484l-2.14844 6.6875m1.83594-5.71485l1.20703-.21875m11.51562-.92187l-.33984 7.01953m12.02344-6.70313l2.92578 6.39063m10.71094-6.51953l2.28125 6.64844m-1.94922-5.6797l.83594-.89843m15.01171.1914l-3.44921 6.125m2.9453-5.23437l1.22657.03125m10.14844-1.30078l1.4375 6.8789m11.38281-6.73437l2.42578 6.59375m-2.07031-5.63672l.8164-.91406m11.73047.14063l3.25391 6.22656m-3.2539-6.22656l1.38671-2.02735m12.58985 1.76172l1.92968 6.75781m-1.92968-6.75781l1.76562-1.70312m11.58203 1.6953l1.86328 6.77345m-1.58984-5.78907l.89063-.84375m13.57421-.23437l-.98046 6.96094m.83984-5.94922l1.15234-.41797m13.25391 6.08984l-2.88281-6.40625m2.46484 5.47266l-.7539.97265m9.7539-2.01953l6.58594-2.44922m-5.6289 2.09375l-.91798-.8125"/><g clip-path="url(#X)"><path fill="none" stroke="#000" stroke-linecap="round" stroke-linejoin="round" stroke-miterlimit="10" stroke-width=".5" d="M146.98438 398.58594l-5.96875 3.70703"/></g><path fill="none" stroke="#000" stroke-linecap="round" stroke-linejoin="round" stroke-miterlimit="10" stroke-width=".5" d="M146.98438 398.58594l2.12109 1.23047m-2.98828-.69141l1.0586.61328m12.85937-1.52344l-5.4375 4.44922m5.4375-4.44922l2.26172.94532m-3.0547-.30079l1.13282.47657m11.97656-1.96094l-3.44531 6.125m3.44531-6.125l2.45313.0586m9.53125-.48829l-.78125 6.98438m.66797-5.96875l1.14062-.44922m13.57031 6.01562l-3.34765-6.17968m2.86328 5.28125l-.67969 1.02343m15.03516-.49609l-4.45703-5.4336m3.80859 4.64063l-.47266 1.13281m15.6172-3.91015l-6.82032 1.70312m5.82812-1.45312l.82032.91015m13.47265-1.20703l-6.79297 1.79688m6.79297-1.79688l1.66797 1.80078m11.39453-2.46875l-6.28906 3.13672m5.375-2.67969l1 .71094m12.94922-1.64062l-5.72656 4.07812m4.89062-3.48437l1.09766.55078m12.98828-1.22656l-5.59766 4.24609m5.59766-4.2461l2.22656 1.02735m10.58984-1.5586l-4.60156 5.3086m4.60156-5.3086l2.39454.54688m9.96484-1.14062l-2.6875 6.49218m2.6875-6.49218l2.4414-.23438m9.76954-.02344l-.48047 7.01172m.41015-5.99219l1.1211-.5m12.9961-.39062l-1.94532 6.75m1.66406-5.76953l1.19922-.25m12.8125-.58203l-2.77344 6.45703m2.3711-5.51953l1.22265-.10156m10.4336-1.0586l1.34765 6.89844m-1.15234-5.89453l.95313-.77344m12.73828-.29297l.20312 7.02344m-.17187-6l1.0664-.60938m13.57031-.18359l-2.5 6.5664m2.13672-5.61327l1.21485-.15235m10.05469-.83594l2.3164 6.63672m-1.98047-5.67187L397 397.1875m11.4414.26953l3.71876 5.96094m-3.1797-5.09375l.6172-1.0625m13.01562-.1914l2.0039 6.73437m-1.71093-5.7539l.875-.85938m11.19922.32421l3.90234 5.84375m-3.33594-4.99218l.58204-1.08203m14.83593 6.59375L449.53125 397m1.22266 5.8789l-.94141.78126m13.38672.27343l.72656-6.98828m-.6211 5.97266l-1.13671.45703"/><g clip-path="url(#Y)"><path fill="none" stroke="#000" stroke-linecap="round" stroke-linejoin="round" stroke-miterlimit="10" stroke-width=".5" d="M146.96094 385.23438l-5.92188 3.77734"/></g><path fill="none" stroke="#000" stroke-linecap="round" stroke-linejoin="round" stroke-miterlimit="10" stroke-width=".5" d="M146.96094 385.23438l2.13672 1.20703m-2.9961-.65625l1.0664.60156m12.6172-1.76172l-4.9375 5m4.9375-5l2.34765.69922m-3.0664.02734l2.35156.70313m11.8086-1.29688l-5.19141 4.73438m5.1914-4.73438l2.3125.82422m-3.0664-.13672l2.30859.82422m11.83203-1.4336l-5.33594 4.57423m4.5586-3.90625l1.14453.4453m12.13281 4.16017l-3.70312-5.97266m3.16406 5.10547l-.61719 1.0586m15.57422-1.28126l-5.91406-3.79297m5.05469 3.24219l-.09766 1.22266m14.52734-1.14454l-6.42187-2.84765m6.42187 2.84765l.17578 2.44532m13.44141-3.92188l-7.02734.10547m6.0039-.08984l.59375 1.07422m13.39063-2.57422l-6.3164 3.07422m6.3164-3.07422l1.98437 1.4414m11.42188-1.24218l-6.5 2.67578m6.5-2.67578l1.88672 1.5664m11.0703-2.21875l-5.78515 3.98438m5.78516-3.98438l2.17969 1.1289m10.49609-1.83593l-4.50781 5.39453m4.50781-5.39453l2.40234.50781m-3.05859.27735l1.20313.2539m12.67968-1.10937l-4.33203 5.53515m4.33203-5.53515l2.41797.42969m9.89063-.98047l-2.31641 6.63672m2.3164-6.63672l2.42579-.3711m11.34765.57032l-3.23437 6.23828m2.76562-5.33203l1.22657-.01172m13.42578-.25781l-4.96875 4.96875m4.2461-4.2461l1.17187.35547m13.11718-.80078l-5.47265 4.41015m4.67578-3.76953l1.1289.48438m11.53907-2.1875l-2.58203 6.53515m2.20703-5.58593l1.21875-.13672m11.23437-1.0586l-.10937 7.02735m.10937-7.02735l2.1836-1.11718m10.83984 1.125l.47266 7.01172m-.47266-7.01172l2.08203-1.29688m10.8164 1.35156l1.3047 6.90235m-1.11329-5.89844l.95704-.76562m11.39062.0039l2.85938 6.41797m-2.44532-5.48437l.75782-.96875m10.85546 1.01953l5.4336 4.44922m10.75781 1.28515l-.32031-7.01953m.27344 6l-1.0547.625m16.88282-.78125l-5.25-4.66797m4.48438 3.98828l-.28907 1.19532"/><g clip-path="url(#Z)"><path fill="none" stroke="#000" stroke-linecap="round" stroke-linejoin="round" stroke-miterlimit="10" stroke-width=".5" d="M146.78906 371.67188l-5.57812 4.27343"/></g><path fill="none" stroke="#000" stroke-linecap="round" stroke-linejoin="round" stroke-miterlimit="10" stroke-width=".5" d="M146.78906 371.67188l2.23047 1.01562m10.73828-1.40625l-4.88281 5.05469m4.88281-5.05469l2.35547.67578m-3.0664.0586l1.17968.33984m12.73828-1.17188l-4.66797 5.25m4.66797-5.25l2.38282.57813m11.03906-.48047l-4.88281 5.05469m4.17187-4.32031l1.17969.33984m12.6836 4.125l-4.5586-5.34766m3.89453 4.57031l-.44922 1.14063m15.60547-2.40234l-6.91406-1.26563m5.91015 1.08203l.3711 1.16797m14.0039-1.75781l-7.02343.28125m7.02343-.28125l1.23828 2.11719m12.0547-2.37891l-6.98048.80078m6.98047-.80078l1.39063 2.02344m11.92187-2.03516l-6.97656.82813m6.97656-.82813l1.40235 2.01563m11.84375-2.41407l-6.83594 1.625m6.83594-1.625l1.62109 1.83985m11.60938-2.14063l-6.66407 2.22656m6.66406-2.22656l1.77735 1.6875m10.60547-3.13672l-4.80469 5.125m4.80469-5.125l2.3711.64063m10.4453-1.03125l-3.80859 5.90625m3.8086-5.90625l2.4453.20703m11.55079.36719l-5.16797 4.75781m5.16797-4.75781l2.3164.8125m11.66407.22656l-6.4961 2.67969m5.55078-2.28906l.94532.78125M345.75 370.9375l-4.05078 5.74219m3.46094-4.90625l1.21875.15234m10.93359-1.6211l-.54297 7.00782m.54297-7.00781l2.25-.98047m11.4414 1.03125l-1.29687 6.90625m1.29688-6.90625l2.33984-.73438m11.26953.80079l-1.88281 6.77343m1.88281-6.77344l2.39453-.52734m10.5625.44922l-1.16797 6.92969m1.16797-6.92969l2.32813-.77734m10.64062.73828l-.47656 7.00781m.47656-7.00781l2.23828-1.0039m11.44922 1.04687l-1.21875 6.92187m1.04297-5.91406l1.16406-.3789m10.625-.50782l2.1836 6.67969m-1.86328-5.70703l.84765-.88672m14.7461 6.42578l-3.01563-6.34766m2.57813 5.42578l-.73047.98438m15.47265-.76563l-4.99609-4.9414m4.9961 4.9414l-.70313 2.35157"/><g clip-path="url(#aa)"><path fill="none" stroke="#000" stroke-linecap="round" stroke-linejoin="round" stroke-miterlimit="10" stroke-width=".5" d="M146.88281 358.48047l-5.76562 4.02344"/></g><path fill="none" stroke="#000" stroke-linecap="round" stroke-linejoin="round" stroke-miterlimit="10" stroke-width=".5" d="M146.04297 359.0664l1.09375.5586m12.67578-1.60156l-4.9961 4.9414m4.9961-4.9414l2.34375.73047m10.98438-.71875l-5.01954 4.91796m5.01953-4.91796l2.33985.74218m11.48047-.08984l-6.03125 3.61328m6.03125-3.61328l2.10156 1.26563m11.59375 1.43359l-6.79297-1.78906m6.79297 1.78906l.5664 2.39062m12.48829-1.69921l-6.26953-3.17188m6.26953 3.17188l.05078 2.45312m13.63672-4.22266l-7.01563.3672m7.01563-.3672l1.26562 2.10547m12.05469-2l-7.02734.15625m7.02734-.15625l1.19922 2.14063m12.0039-2.9336l-6.80468 1.7461m6.80469-1.7461l1.65625 1.8086m11.03515-3.08594l-5.55469 4.30078m5.5547-4.30078l2.23827 1.00781m-3.04687-.38281l1.1211.5039m12.55077-1.61327l-4.65234 5.26562m4.65234-5.26563l2.38672.57422m-3.0625.19532l1.1914.28515m12.48048-1.30469l-4.01563 5.76563m4.01563-5.76563l2.4375.29297m-3.01953.54688l1.21875.14453m12.97265-.75781l-4.60156 5.3125m4.60156-5.3125l2.39063.55078m-3.0625.22265l1.19922.27344m12.41015-1.33203l-3.84765 5.88281m3.84765-5.8828l2.4414.22265m10.45704-.45313l-3.01563 6.34766m3.01563-6.34766l2.45312-.10937m10.25782-.11328l-1.8047 6.79296m1.54298-5.80468l1.1914-.27735m13.14063-.41406l-3.3164 6.19531m3.3164-6.1953l2.45312.0078m10.95704.04688l-3.50391 6.08984m3.5039-6.08984l2.44922.07812m10.98438-.0078l-3.74219 5.9453m3.74219-5.9453l2.44922.17968m11-.08985l-4.01172 5.76954m4.01172-5.76954l2.4375.29297m11.23828-.0078l-4.73438 5.1953m4.73438-5.1953l2.3789.60937m11.17579-.36329l-5.21485 4.70704m5.21485-4.70704l2.30859.83594m-3.0664-.15234l1.15234.41797m12.79687-1.23438l-4.96875 4.96875m4.96875-4.96875l2.34766.71875m-3.07031.0039l1.17578.35938m13.89062 1.3086l-7.02343.1875m7.02343-.1875l1.21094 2.13672m11.89063-.82813l-6.59375-2.42578m5.6328 2.07031l.16798 1.21485"/><g clip-path="url(#ab)"><path fill="none" stroke="#000" stroke-linecap="round" stroke-linejoin="round" stroke-miterlimit="10" stroke-width=".5" d="M147.36719 346.17188l-6.73438 2.01171"/></g><path fill="none" stroke="#000" stroke-linecap="round" stroke-linejoin="round" stroke-miterlimit="10" stroke-width=".5" d="M146.38672 346.46484l.86328.8711m12.38281-2.80078L155 349.8203m3.95703-4.51562l1.19531.28125M172.75 344.375l-4.24219 5.60547m3.625-4.78906l1.21094.1953m13.66016.06642l-6.1172 3.45312m5.22657-2.95313l1.03516.66016m13.53515 1.36328l-6.84375-1.59765m5.84766 1.36328l.3125 1.1875m13.47266.23437l-5.79688-3.97265m5.79688 3.97265l-.27344 2.4375m14.20312-4.44531l-7.02734.04297m7.02734-.04297l1.16407 2.16016m-2.1836-2.15235l.58203 1.07813m13.72266-1.52344l-6.96484.92188m6.96484-.92188l1.42578 1.9961m-2.4375-1.86329l.71094.9961m13.29297-2.20704l-6.32031 3.07422m6.3203-3.07421l1.98438 1.4453m-2.90234-.99609l.99219.71875m12.52734-2.15234l-4.89453 5.04297m4.89453-5.04297l2.35938.6836m-3.07032.05077l1.17969.33985m12.10156-1.625l-3.40234 6.14453m3.40234-6.14453l2.45703.04297M278.35937 345l1.22657.01953m12.79297-.78906l-3.82813 5.89453m3.82813-5.89453l2.4453.21484m11.42188.23047l-4.92968 5.0039m4.92968-5.0039l2.35157.69922m-3.07032.02734l1.17579.35157m12.98828-.94532L314.5 349.54688m5.1914-4.73829l2.3086.82032m-3.0664-.13282l1.15624.41407m12.71485-1.3047l-4.78516 5.14454m4.78516-5.14453l2.3711.63281m10.8789-.6914l-4.65625 5.26171m4.65625-5.26171l2.38672.57421m11.28515-.20703l-5.3711 4.53125m5.3711-4.53125l2.27735.91016m10.90234-1.0625l-5.09766 4.83594m5.09766-4.83594l2.32422.77734m11.05078-.71484l-5.21875 4.70703m5.21875-4.70703l2.30469.83594m11.08594-.7461l-5.3711 4.53125m5.3711-4.53125l2.27734.91016m11.55078-.10156l-6.39844 2.91015m6.39844-2.91015l1.94531 1.49609m11.4375-1.33203l-6.53515 2.58203m6.53515-2.58203l1.86719 1.58984m-2.8164-1.21484l1.86718 1.58984m12.33203-2.1211l-6.40234 2.89845m6.40234-2.89844l1.9414 1.4961m-2.875-1.07423l1.94532 1.4961m-2.875-1.07813l.97266.75m14.20703-1.58984l-6.40625 2.89453m6.40625-2.89453l1.9414 1.5m-2.875-1.07813l1.94141 1.5m-2.8711-1.07812l.96876.75m14.1836-1.64844l-6.35157 3.0039"/><g clip-path="url(#ac)"><path fill="none" stroke="#000" stroke-linecap="round" stroke-linejoin="round" stroke-miterlimit="10" stroke-width=".5" d="M466.73828 345.67578l1.96875 1.46485"/></g><g clip-path="url(#ad)"><path fill="none" stroke="#000" stroke-linecap="round" stroke-linejoin="round" stroke-miterlimit="10" stroke-width=".5" d="M465.8125 346.11328l1.96875 1.46485"/></g><g clip-path="url(#ae)"><path fill="none" stroke="#000" stroke-linecap="round" stroke-linejoin="round" stroke-miterlimit="10" stroke-width=".5" d="M147.38672 334.80078l-6.77344-1.875"/></g><path fill="none" stroke="#000" stroke-linecap="round" stroke-linejoin="round" stroke-miterlimit="10" stroke-width=".5" d="M146.40234 334.52734l.26563 1.19532m14.15625-2.03907l-7.01953.35938m6-.3086l.6289 1.05079m13.6836-1.35938l-6.97266.875m6.97266-.875l1.41015 2.00781m11.9297-1.71875l-7.02345.29688m6-.2539l.6211 1.05859m13.36719.58203l-6.32032-3.07031m6.32031 3.0703l.08985 2.45313m12.9414-1.97265l-5.7539-4.03125m5.7539 4.03125l-.30078 2.4375m-.53906-3.02344l-.14844 1.21875m14.69141-1.35547l-6.53125-2.58594m6.53125 2.58594l.27344 2.4375m-1.22266-2.8125L226.34375 336m14.3711-2.26953l-7.01954.26562m7.01953-.26562l1.23438 2.11719m-2.2539-2.07813l.61718 1.0586m13.21094-2.78907l-6.0039 3.64844m6.0039-3.64844l2.10937 1.2539m-2.98437-.72265l1.05469.625m12.27343-2.11719l-4.28125 5.57032m4.28125-5.57031l2.41797.40625m-3.03906.40234l1.20703.20312m12.29297-1.30078l-3.40625 6.14844m3.40625-6.14844l2.45312.04297m-2.94922.85156l1.22657.02344m12.63281-.88672l-3.50781 6.08594m3.50781-6.08594l2.45313.08203m12.10546 1.125l-5.99218 3.67188m5.99218-3.67188l2.11329 1.2461m11.35156-.97266l-6.29297 3.125m6.29297-3.125l1.9961 1.42969m-2.91017-.97266l.9961.71485m13.26562-1.10938l-6.35546 3m6.35546-3l1.96485 1.46875m-2.89063-1.03125l.98438.73438m12.70703-2l-5.26172 4.65625m5.26172-4.65625l2.30078.85546m-3.0664-.17968l1.15234.42969m12.01562-1.84375l-3.4336 6.1328m3.4336-6.1328l2.45313.05078m11.5586.46093l-4.82423 5.10938m4.82422-5.10938l2.36328.64844m10.88672-.70703l-4.69531 5.22656m4.69531-5.22656l2.38281.59375m11.64844.30078l-6.1289 3.4375m5.23828-2.9375l1.03125.66406m13.62109.41407l-7.02344.28125m7.02344-.28125l1.23828 2.12109m12.07031-2.23438l-7.0078.50782m7.0078-.50781l1.3047 2.07812m-2.32423-2.0039l1.30469 2.07812m12.875-2.96485l-6.69922 2.13282m6.69922-2.13281l1.7539 1.71484m-2.73046-1.40625l1.7539 1.71484m-2.72656-1.40234l.875.85547m14.23828-1.86719l-6.39844 2.91016m6.39844-2.91016l1.94531 1.4961m-2.875-1.07032l1.94532 1.49219m-2.8789-1.07031l.97265.75m14.01562-1.95313l-6.01953 3.625"/><g clip-path="url(#af)"><path fill="none" stroke="#000" stroke-linecap="round" stroke-linejoin="round" stroke-miterlimit="10" stroke-width=".5" d="M466.57031 332.05078l2.10547 1.25781"/></g><g clip-path="url(#ag)"><path fill="none" stroke="#000" stroke-linecap="round" stroke-linejoin="round" stroke-miterlimit="10" stroke-width=".5" d="M465.69531 332.57813l2.10547 1.2578"/></g><path fill="none" stroke="#000" stroke-linecap="round" stroke-linejoin="round" stroke-miterlimit="10" stroke-width=".5" d="M464.82031 333.10547l1.05078.6289"/><g clip-path="url(#ah)"><path fill="none" stroke="#000" stroke-linecap="round" stroke-linejoin="round" stroke-miterlimit="10" stroke-width=".5" d="M147.51172 320.50781l-7.02344.08203"/></g><path fill="none" stroke="#000" stroke-linecap="round" stroke-linejoin="round" stroke-miterlimit="10" stroke-width=".5" d="M147.51172 320.50781l1.17969 2.15235m12.12109-2.45313l-6.9961.67969m6.9961-.67969l1.35547 2.04688m11.97266-1.80079l-7.02344.1875m7.02344-.1875l1.21093 2.13672m12.04297-1.3828l-6.90234-1.31642m6.90234 1.31641l.72656 2.34375m12.21094-1.29687l-6.14453-3.41016m6.14453 3.41016l-.04297 2.45312m-.85156-2.94922l-.01953 1.22656m14.17969-.64062l-6.04297-3.58984m6.04297 3.58984l-.1172 2.44922m-.76171-2.97266l-.11719 2.44922m14.71485-2.9414l-6.85157-1.5586m6.85157 1.5586l.64453 2.36718m-1.64063-2.59375l.64453 2.36719m13.69141-3.57813l-6.90234 1.3125m6.90234-1.3125l1.53516 1.91407m-2.53907-1.72266l1.53516 1.91406M253.5 318.6875l-5.96094 3.72266M253.5 318.6875l2.125 1.22656m-2.99219-.6875l2.125 1.23047m11.36328-2.57812l-4.5703 5.33593m4.5703-5.33593l2.39453.53515m-3.05859.24219l1.19531.26563m12.16797-1.46485l-3.33984 6.1836m3.33984-6.1836l2.45313.01563m-2.9375.8828l1.22656.00782m12.4414-.97265l-3.07421 6.3164m3.07422-6.3164l2.45312-.08985m12.8125 3.67188l-6.97656-.84766m5.96094.72266l.4414 1.14453m13.83594-2.17578l-6.8711 1.46093m6.8711-1.46093l1.57813 1.8789m-2.57813-1.66406l.78906.9375m13.34766-1.73828l-6.51563 2.63672m6.51563-2.63672l1.8789 1.57422m-2.82812-1.1914l1.88281 1.57421m12.03516-2.60938l-5.82031 3.94141m5.8203-3.9414l2.16798 1.14843m-3.01563-.57422l2.16797 1.14844m11.73047-2.0625l-5.29297 4.6211m5.29297-4.6211l2.29297.875m-3.0625-.20312l2.29297.875m11.91797-1.39454l-5.54688 4.3125m5.54688-4.3125l2.24218 1.00782m-3.04687-.3789l1.11719.5039m12.30468-1.8125l-4.14843 5.67187m4.14843-5.67187l2.42579.34765m11.2578-.03515l-4.88671 5.04687m4.88672-5.04687l2.35937.67969m11.71485.39453l-6.40235 2.89843m5.46875-2.47656l.97266.75m13.17969-1.35937l-6.21485 3.27734m6.21485-3.27734l2.03125 1.3789m11.68359.5039l-7.01172-.48827m7.01172.48828l.9961 2.24219m-2.01563-2.3125l.4961 1.12109m13.61718-2.54688l-6.5664 2.50391m6.5664-2.5039l1.84766 1.61328m-2.8047-1.25l1.84767 1.61328m-2.8047-1.25l.92579.8086m13.65625-2.60548l-5.27344 4.64453"/><g clip-path="url(#ai)"><path fill="none" stroke="#000" stroke-linecap="round" stroke-linejoin="round" stroke-miterlimit="10" stroke-width=".5" d="M466.19922 318.22656l2.29687.86328"/></g><path fill="none" stroke="#000" stroke-linecap="round" stroke-linejoin="round" stroke-miterlimit="10" stroke-width=".5" d="M465.42969 318.90234l2.29687.86329m-3.0625-.1875l2.29688.86328"/><path fill="#00f" fill-rule="evenodd" d="M383.80078 432.14063h8.61719v-10.14454h-8.61719v10.14454"/><path fill="azure" fill-rule="evenodd" d="M385.63281 423.82813h.83203v2.82421h3.28907v-2.82421h.83203v6.48046h-.83203v-2.91796h-3.28907v2.91796h-.83203v-6.48046"/><path fill="#00f" fill-rule="evenodd" d="M370.48438 401.07422h8.62109v-10.14844h-8.6211v10.14844"/><path fill="azure" fill-rule="evenodd" d="M372.3164 392.76172h.83594v2.82031h3.28516v-2.82031h.83203v6.47656h-.83203v-2.91406h-3.28516v2.91406h-.83593v-6.47656"/><path fill="#ff3030" fill-rule="evenodd" d="M442.1914 378.88281h7.69532v-10.14844h-7.69531v10.14844"/><path fill="azure" fill-rule="evenodd" d="M444.02734 370.5664h.83204v5.7422h3.1953v.73827h-4.02734v-6.48046"/><path fill="#ff3030" fill-rule="evenodd" d="M184.76953 361.1289h7.6914v-10.14843h-7.6914v10.14844"/><path fill="azure" fill-rule="evenodd" d="M186.60156 352.8164h.83203v5.73829h3.19532v.73828h-4.02735v-6.47656"/><path fill="#ffffe0" fill-rule="evenodd" d="M386.1289 412.19531h22.1797v-10.1914h-22.1797v10.1914"/><path fill-rule="evenodd" d="M389.625 403.83594h.51172v6.29687h-.78906v-4.49219h-1.38672v-.55468l.5586-.0625.2539-.05469.23047-.08984.20312-.14063.17188-.21094.14062-.29296.10547-.39844m4.8164 0l.22657.01953.22265.05469.20704.08984.1953.1211.1836.15234.17188.17578.30078.41797.2461.49219.17968.54687.10938.58203.03906.58985-.03906.59375-.10938.58203-.17969.55468-.2461.50391-.30077.42578-.17188.17969-.1836.15234-.1953.125-.20704.08985-.22265.05859-.22656.01953-.23047-.01953-.21875-.0586-.20703-.08984-.19922-.125-.1836-.15234-.17187-.17969-.30078-.42578-.24219-.5039-.17969-.5547-.11328-.58202-.03515-.59375h.83203l.02734.5625.08203.5039.125.44531.16406.375.19141.30079.21094.21875.22265.13671.22657.04688.22656-.04688.22265-.13671.21094-.21875.1914-.30079.16017-.375.125-.4453.08203-.50392.03125-.5625-.03125-.5625-.08204-.5-.125-.43359-.16015-.36719-.1914-.29296-.21094-.21485-.22266-.1289-.22656-.04688-.22657.04688-.22265.1289-.21094.21485-.1914.29296-.16407.3672-.125.43358-.08203.5-.02734.5625h-.83204l.03516-.58984.11328-.58203.17969-.54688.24219-.49218.30078-.41797.17187-.17578.1836-.15235.19922-.12109.20703-.08984.21875-.0547.23047-.01952m4.95312 0l.22656.01953.21875.05469.21094.08984.19531.1211.1836.15234.17187.17578.30078.41797.2461.49219.17969.54687.10937.58203.03906.58985-.03906.59375-.10938.58203-.17968.55468-.2461.50391-.30078.42578-.17187.17969-.1836.15234-.1953.125-.21095.08985-.21875.05859-.22656.01953-.23047-.01953-.21875-.0586-.20703-.08984-.19922-.125-.1836-.15234-.17187-.17969-.30078-.42578-.24219-.5039-.17968-.5547-.11328-.58202-.03907-.59375h.83594l.02735.5625.08203.5039.125.44531.16406.375.1914.30079.21094.21875.22266.13671.22656.04688.22656-.04688.22266-.13671.21094-.21875.1875-.30079.16406-.375.125-.4453.08203-.50392.03125-.5625-.03125-.5625-.08203-.5-.125-.43359-.16406-.36719-.1875-.29296-.21094-.21485-.22266-.1289-.22656-.04688-.22656.04688-.22266.1289-.21094.21485-.1914.29296-.16406.3672-.125.43358-.08204.5-.02734.5625h-.83594l.03907-.58984.11328-.58203.17969-.54688.24218-.49218.30078-.41797.17188-.17578.1836-.15235.19921-.12109.20703-.08984.21875-.0547.23047-.01952m4.95313 0l.38671.03125.35547.08203.32422.13281.28125.1875.22656.23828.17579.28516.10937.33203.03516.3789-.01953.27344-.0586.23438-.08594.20312-.11328.16797-.1289.14453-.14063.1211-.28515.19922.23046.11718.21094.14844.17969.16797.15625.19531.1211.21485.08984.23046.0586.2422.01952.2539-.03515.3125-.10547.32422-.17188.32422-.23828.30859-.3086.26953-.37109.21485-.21484.07812-.22656.0625-.2461.03906-.2578.01172-.26173-.01172-.24219-.03906-.22265-.0625-.20703-.07813-.35547-.21484-.29297-.26953-.22266-.3086-.15625-.32421-.09375-.32422-.03125-.3125h.83594l.02735.2539.07812.23438.1211.21484.16015.1836.1914.15234.22266.11328.23828.07422.25782.02344.2539-.02344.23828-.07422.22266-.11328.1914-.15234.16016-.1836.1211-.21484.07812-.23438.02735-.2539-.02735-.25-.07812-.23828-.1211-.21094-.16015-.1836-.19141-.15234-.22266-.11328-.23828-.07422-.2539-.02344-.25782.02344-.23828.07422-.22265.11328-.19141.15235-.16016.18359-.12109.21094-.07813.23828-.02734.25h-.83594l.01954-.25.05859-.24219.08984-.22265.125-.21094.15235-.1875.17968-.17188.21094-.15625.23047-.1289-.28516-.19922-.14062-.1211-.1289-.14453-.11329-.16797-.08594-.20312-.05859-.23438-.01953-.27343h.78515l.02344.21484.0664.1914.10548.16407.13672.14062.16406.11329.1875.08203.20703.04687.22266.01953.21875-.01953.20703-.04687.1875-.08204.16406-.11328.14063-.14062.10156-.16406.0664-.19141.02344-.21484-.02344-.21485-.0664-.1914-.10156-.16407-.14063-.14062-.16406-.11328-.1875-.08203-.20703-.05079-.21875-.01562-.22266.01563-.20703.05078-.1875.08203-.16406.11328-.13672.14062-.10547.16407-.0664.1914-.02344.21485h-.78516l.03515-.37891.10938-.33203.17578-.28516.22656-.23828.28125-.1875.32422-.13281.35547-.08203.39063-.03125"/><path fill="#ffffe0" fill-rule="evenodd" d="M310.67578 340.01172h22.17969v-10.1914h-22.17969v10.1914"/><path fill-rule="evenodd" d="M314.17578 331.65234h.50781v6.29297h-.78515v-4.48828h-1.39063v-.55469l.5586-.0664.2539-.05469.23047-.08594.20313-.14453.17187-.20703.14453-.29688.10547-.39453m4.8125 0l.23047.01954.21875.05468.20703.08985.19531.12109.1836.14844.17187.17578.30469.42187.24219.4922.17969.54687.10937.57812.03906.58985-.03906.59375-.10938.58593-.17968.55469-.24219.5-.30469.42969-.17187.17969-.1836.15234-.1953.125-.20704.08984-.21875.0586-.23047.01953-.23047-.01953-.21875-.0586-.20703-.08984-.19531-.125-.1836-.15235-.17187-.17968-.30469-.42969-.24219-.5-.17968-.55469-.10938-.58594-.03906-.59375h.83203l.03125.56641.07813.5039.1289.44141.16016.375.1914.30079.21094.22265.22266.13672.22656.04688.22656-.04688.22266-.13672.21094-.22265.1914-.30079.16016-.375.1289-.4414.08204-.5039.02734-.56642-.02734-.55859-.08203-.5-.12891-.4375-.16016-.36719-.1914-.28906-.21094-.21484-.22266-.13281-.22656-.04297-.22656.04296-.22266.13282-.21094.21484-.1914.28906-.16016.3672-.1289.4375-.07813.5-.03125.55858h-.83203l.03906-.58984.10938-.57812.17969-.54688.24218-.49219.30469-.42187.17188-.17578.18359-.14844.19531-.1211.20703-.08984.21875-.05469.23047-.01953m5.08985 0h.51171v6.29297h-.78906v-4.48828h-1.38672v-.55469l.5586-.0664.2539-.05469.23047-.08594.20313-.14453.17187-.20703.14063-.29688.10546-.39453m2.82422 2.17579h.78907l.01953-.31641.0586-.28516.09765-.2539.14062-.21485.1836-.17578.22265-.1289.26563-.07813.30469-.02734.23828.01953.22656.0625.20312.10156.1797.14063.14843.17187.11328.20703.07031.23438.02735.26562-.02344.26953-.0664.22266-.10938.1914-.15625.17188-.19922.16406-.2461.16406-.63671.39063-.53516.3125-.4375.3164-.34766.32423-.26562.33593-.1875.35156-.125.3711-.07031.39062-.01954.41797h4.21094v-.73828h-3.33203l.08203-.28515.11328-.23438.14844-.20313.1875-.17968.23047-.17188.27734-.17578.71875-.41797.41407-.20312.34765-.23047.28125-.2539.21875-.26563.16406-.27735.10938-.28515.0664-.28516.01954-.28125-.04297-.38281-.1211-.34766-.1875-.3086-.25-.26171-.30468-.21484-.34375-.15625-.3789-.09766-.41017-.03516-.43359.03125-.39844.10157-.35546.16406-.3047.23437-.24609.3047-.1875.375-.11328.4453-.04297.51954"/><path fill="#ffffe0" fill-rule="evenodd" d="M217.46875 331.84375h22.17969v-10.19531h-22.17969v10.19531"/><path fill-rule="evenodd" d="M220.96875 323.48438h.50781v6.29296h-.78515v-4.48828h-1.38672v-.55469l.5586-.0664.25-.05469.23046-.08984.20313-.14063.17578-.21094.14062-.29296.10547-.39454m4.8125 0l.23047.01954.21875.05468.20703.08985.19922.1211.1836.14843.17187.17578.30078.41797.24219.4961.17968.54687.11328.57812.03907.58985-.03906.59375-.11329.58593-.17968.55079-.2422.5039-.30077.42578-.17188.17969-.1836.15625-.19921.1211-.20703.09374-.21875.0547-.23047.01952-.22656-.01953-.21875-.05469-.21094-.09375-.19531-.12109-.1836-.15625-.17187-.17969-.30078-.42578-.24219-.5039-.17969-.55079-.11328-.58593-.03906-.59375h.83594l.02734.5625.08203.5078.125.44142.16406.375.19141.30078.20703.22265.22266.13672.22656.04688.22656-.04688.22266-.13672.21094-.22265.1914-.30079.16406-.375.125-.4414.08204-.50781.02734-.5625-.02734-.5625-.08203-.5-.125-.4336-.16407-.36719-.1914-.29296-.21094-.21094-.22266-.13281-.22656-.04688-.22656.04688-.22266.1328-.20703.21095-.1914.29296-.16407.3672-.125.43359-.08203.5-.02734.5625h-.83594l.03906-.58985.11328-.57812.17969-.54688.24219-.4961.30078-.41796.17187-.17578.1836-.14844.19531-.1211.21094-.08984.21875-.05468.22656-.01954m5.09375 0h.50781v6.29297h-.78515v-4.48828h-1.39063v-.55469l.5625-.0664.25-.05469.23047-.08984.20313-.14063.17578-.21094.14062-.29296.10547-.39454m2.82422 2.17579h.78516l.01953-.31641.05859-.28906.10156-.25.14063-.21485.17969-.17578.22265-.1289.26563-.08204.30859-.02734.23828.02344.22266.0625.20312.10156.17969.13672.14844.17578.11328.20313.07422.23828.02344.26562-.02344.26563-.0625.22656-.11328.1914-.15235.17188-.20312.16016-.2461.16797-.6328.38671-.53907.31641-.4375.3164-.34766.32423-.26172.33593-.1914.35157-.125.36718-.07031.39454-.01954.41796h4.21094v-.73828h-3.33203l.08594-.28515.11328-.23829.14844-.19921.1875-.1797.23047-.17187.27734-.17578.71875-.41797.41406-.20703.34375-.23047.28125-.25.21875-.26562.16406-.28125.11328-.28125.0625-.28516.01954-.28125-.03907-.38281-.12109-.34766-.1914-.30859-.25-.26172-.30079-.21484-.34765-.15625-.37891-.10156-.40625-.03125-.4336.03125-.39843.09765-.35547.16797-.30469.23438-.25.30468-.1836.375-.11718.44531-.03906.51954"/></g></defs><use xlink:href="#aj"/></svg>