<svg xmlns="http://www.w3.org/2000/svg" role="img" xmlns:xlink="http://www.w3.org/1999/xlink" viewBox="142.45 309.95 326.84 171.84"><defs><clipPath id="a"><path d="M144 311.67188h1v168.65625h-1zm0 0"/></clipPath><clipPath id="b"><path d="M144 311.67188h324v168.65625H144zm0 0"/></clipPath><clipPath id="c"><path d="M467 311.67188h1v168.65625h-1zm0 0"/></clipPath><clipPath id="d"><path d="M144 476h1v4.32813h-1zm0 0"/></clipPath><clipPath id="e"><path d="M144 477h2v2h-2zm0 0"/></clipPath><clipPath id="f"><path d="M155 476h4v4.32813h-4zm0 0"/></clipPath><clipPath id="g"><path d="M168 477h5v3.32813h-5zm0 0"/></clipPath><clipPath id="h"><path d="M180 478h8v2.32813h-8zm0 0"/></clipPath><clipPath id="i"><path d="M196 476h2v4.32813h-2zm0 0"/></clipPath><clipPath id="j"><path d="M208 477h6v3.32813h-6zm0 0"/></clipPath><clipPath id="k"><path d="M220 477h7v3.32813h-7zm0 0"/></clipPath><clipPath id="l"><path d="M235 479h4v1.32813h-4zm0 0"/></clipPath><clipPath id="m"><path d="M249 476h3v4.32813h-3zm0 0"/></clipPath><clipPath id="n"><path d="M263 476h2v4.32813h-2zm0 0"/></clipPath><clipPath id="o"><path d="M273 478h8v2.32813h-8zm0 0"/></clipPath><clipPath id="p"><path d="M289 476h3v4.32813h-3zm0 0"/></clipPath><clipPath id="q"><path d="M303 476h2v4.32813h-2zm0 0"/></clipPath><clipPath id="r"><path d="M316 476h2v4.32813h-2zm0 0"/></clipPath><clipPath id="s"><path d="M328 476h4v4.32813h-4zm0 0"/></clipPath><clipPath id="t"><path d="M340 477h7v3.32813h-7zm0 0"/></clipPath><clipPath id="u"><path d="M353 479h8v1.32813h-8zm0 0"/></clipPath><clipPath id="v"><path d="M366 479h9v1.32813h-9zm0 0"/></clipPath><clipPath id="w"><path d="M366 479h3v1.32813h-3zm0 0"/></clipPath><clipPath id="x"><path d="M380 478h8v2.32813h-8zm0 0"/></clipPath><clipPath id="y"><path d="M394 477h6v3.32813h-6zm0 0"/></clipPath><clipPath id="z"><path d="M406 479h8v1.32813h-8zm0 0"/></clipPath><clipPath id="A"><path d="M419 479h9v1.32813h-9zm0 0"/></clipPath><clipPath id="B"><path d="M425 479h3v1.32813h-3zm0 0"/></clipPath><clipPath id="C"><path d="M433 479h8v1.32813h-8zm0 0"/></clipPath><clipPath id="D"><path d="M446 479h8v1.32813h-8zm0 0"/></clipPath><clipPath id="E"><path d="M459 479h9v1.32813h-9zm0 0"/></clipPath><clipPath id="F"><path d="M144 465h4v4h-4zm0 0"/></clipPath><clipPath id="G"><path d="M144 451h4v5h-4zm0 0"/></clipPath><clipPath id="H"><path d="M144 437h3v6h-3zm0 0"/></clipPath><clipPath id="I"><path d="M144 424h3v6h-3zm0 0"/></clipPath><clipPath id="J"><path d="M144 411h3v6h-3zm0 0"/></clipPath><clipPath id="K"><path d="M144 397h3v7h-3zm0 0"/></clipPath><clipPath id="L"><path d="M144 384h3v6h-3zm0 0"/></clipPath><clipPath id="M"><path d="M144 370h3v7h-3zm0 0"/></clipPath><clipPath id="N"><path d="M144 357h2v7h-2zm0 0"/></clipPath><clipPath id="O"><path d="M144 344h3v7h-3zm0 0"/></clipPath><clipPath id="P"><path d="M466 346h2v4h-2zm0 0"/></clipPath><clipPath id="Q"><path d="M144 330h3v7h-3zm0 0"/></clipPath><clipPath id="R"><path d="M466 332h2v3h-2zm0 0"/></clipPath><clipPath id="S"><path d="M144 317h3v7h-3zm0 0"/></clipPath><clipPath id="T"><path d="M466 318h2v3h-2zm0 0"/></clipPath><g id="U" clip-path="url(#clip1)"><path fill="#fff" fill-opacity="0" fill-rule="evenodd" d="M0 0h1000v1000H0zm0 0"/><path fill="#d3d3d3" fill-opacity="0" fill-rule="evenodd" d="M162.15234 355.86719l-.23437.29297.0586.23437.11718.17188.17578.23437.29297.34766.11328.0586.11719-.17188.0586-.23438.17577-.17578.46485-.17578h.69922l.23437.29297.28906.8164.0586.17579.17578.23046.35156.23438.69922.69922.17188.17578.23437.34765.23438.41016.28906.58203.41015.46485.23047.23437.23438.17578.11719.23047.17578.29297.17187 1.16406v.23438l.0586.28906.05859.11719.11719.11719.34765.41015.11719.17188.17578.17578.17578.23437.11719.17188.17188.35156.05859.23438.23437.40625.23438-.0586-.17578.17578-.0586.92969h-.58203l-.23437-.11328-.34766.11328-.11719.11719-.05859.29297-.0586.17578-.11718.17187-.46484.29297-.0586.23438-.0586.11328v.64453l.0586.17187v.41016l.0586.0586v.40624l.05859.40625.11719.17579.05859.05859.23047.64062-.0586.29297v.69922l-.05859.58203v.23438l-.0586.23047-.05468.35156v1.92187l.05469.1172h.42578l-.36719.11718-.02344.35156.89063 1.16797 1.74219.53906 1.33984.35938v.53906l.08984.8086.53516.71484 1.51953.26953.89063-.08594.08984 1.16406.53516.1797 1.16015-.1797 2.05469-.98437 1.16016-.36328 1.8789-.17578 1.69531-.1797-.17968.71876-1.51563.08594-1.25.08984-.80469.26953-1.07421.8086.26953.71875.53515.89843-.17968.625-.26563.8086.26563 1.07812.625.89844.80468.17969 1.25-.1797-.26562.72267.09766.5039.05468.29297v.17188l.0586.29296v.40625l.17578.1172.35156.11718h.40625l.29297-.17578.11328-.11719.0586-.11719.11718-.23047.0586-.17578.35156-.46484.23047-.17578.17578-.0586.17578.0586.0586.17578.11718.98828.05469.46875.0586.17188.11718.23437.17578.0586.8164.05859h.28907l.11719.23437.05859.40625.0586.35156v1.10547l.11718.29297.11719.34766.28906.69922.17578.35156.58203.7539.35157.17579.17187.0586.46875.23437.64063.46484.34765.23438.29297.17578.29297.05468.23047.0625.8164.34766.29297.17578.11328.17188.35157.35156.11719.17578.52343.64063v.28906l.0586.35156v.34766l.05859.35156.0586.28906.11718.0586.17188.05859h.17578l.58203.23437.17578.1172.17578.28905.17578.23438.11328.23437.29297.23047.11719.11719v.41016l.0586.05468.28906.23438.23437.11719.0586.11718.11718.17188.0586.11719.23047.23437.05859.17578.23437.0586.1172.05859-.1172.11328-.05859.11719v.11719l-.11719.29296-.11719.28907v.58203l.17579.11719.11718.05859.0586.11719.11719.11719.11328.05859.17578.34765.0586.35157.05858.40625v.17578l-.05859.17578-.11719.69922v.17187l.1172.17579.29296.29296h.40625l.17578.1172.11719.17187.11719.29296v.23438h-.52735l-.23047-.23438h-.23437l-.17578.0586-.0586.69922.0586.34765.11719.17579.17578.41015.11718.23047.28907.46875.17578.05469h.52344l.23437.0586.75781.64062.0586.29296v.23438l.05859.0586.23047.34765v.35156l-.11719.17188v.29297l.29297.28906.29297.17578.17187.0586.29297.17577.29297.1172.58203.40624.28906.23438.29297.17578.21875.16015.01563.01172.23047.17579.64062.52343.17578.23438.1172.17578.17577.17578.11328.17188v.64062l.1172.17578.46874.11719.58203.11719.23438.05859.23047.11328.29297.11719.11328.0586.58593.35156.28907.17187.17578.0625.17578.05469.17578.0586.69922.35155.28906.17579.23438.05468.28906.17578.23437.1172.64063.40624.29297.11719.17187.0586.23438.05859.41015.05859.23047.0586.23438.11718.0586.17188-.41017.17578.46875.0586.0586.29296.11328.23438.17578.05468.23438.0586.17578.05859.40625.11719.64062.23437.11719.17188.0586.23437v.17578l-.0586.1172-.0586.40624.23438.23438.11719.05859.34766.11719.64062.23047.17578.11718.28906.1172.17578.17577.23438.46485.58203 1.10546.17578.17579.34766.17578.17578.11719.35156.11718 1.04688.52344.23437.0586.46485.11327.29297.0586.46484.17578.75781.58203.23438.23438.34765.46484.17578.17578.28907.23438.8164.69921.29297.17579.28906.28906.29297.17578.29297.28906.69531.64063.17578.17578.29297.23437.28907.23438.46875.28906.64062.58203.34766.23438.23437.29297.34766.34765.35156.46485.9336.99218.34765.40625.11719.17579.23437.05859.11328.11719.64454.17578.23047.11328.23437.0586.29297.17577.23047.1172.9336.69921.40624.40625.23438.17578.40625.17578.23437.11719.8164.34766.34766.23437.23438.11719.29297.28906.23047.11719.7578.35156.35157.17188.23047.05859.29297.11719.23437.0586.8711.17577h.8164l.46875.23047.17188.0586.875.69921.46484.1172.29297.05858.17578.0586.23047.0586.46875.05859.34766.05859.35156.0586.40625.05859h.29297l.17187.0586v.23046l.17578.17578h.29297l.34766.0586.35156.05859.69922.11719h.64063l.46484-.23438.29297-.17578.17187-.11719.41016-.17187.28906-.17578.9336-.46485.46875-.29297.52343-.29296.46485-.17188.46484-.17578 1.05078-.46485.28906-.11718.41016-.11719.28906-.11719.52735-.17578 1.51562-.69922.58203-.34765.28907-.0586.29297-.0586.34765-.11718.875-.23047.35156-.11719h.11329l.23437-.05859.875-.23437.23438-.0586h.8125l.35156-.0586.8164-.11718.17188-.0586.35156-.05468.29297-.0586.23047-.05859.8164-.17578.17579-.0586h.34765l.23438-.05859.46484-.11718.75781-.17188.23438-.0586h.34765l.41016-.11718.28906-.0586 1.28516-.05859h.28906l.41016-.0586.23047-.05858h.17578l.875-.1172h.40625l.41015-.11718h.34766l.35156-.11328.8711-.0586h1.75l1.04687.28907.41016.11719.28906.11718.35156.11719.28907.11719 1.05078.17187.28906.0586h.29297l.29297.05859.17187.0586.41016.05859.17187.0586.1172.05858h.11718l.11719.0586.35156.0586h.11328l.41016.0664 1.92187.39453 1.92578.39453 1.51953.44922 1.69532.71875 2.14453.80469 1.60547-.71875 1.42968-.80469 1.16016-1.07813 1.25-.44921 3.03516-.71875 1.875-.35938 2.14453-1.34765 2.23437-1.25391 2.5-1.25781 1.69531-.44922 1.78516-.17969 1.16016-.26953.625.53906 1.33984-.26953.71485-.98828.98437-1.34375.44531-.17969.80469-.35937 1.875-.53907 1.78516-.44921 1.25-.26954 1.16015-.08984 1.69922-.08984 1.96094-.26954 1.25-.08984h.53906l.625-.08984h.89063l2.14453-.17969 2.41015-.17969 2.58985-.08984 1.69531.17969 1.60938.08984 1.42968.35938 1.16016.71875 1.875.98828 1.16015 1.52734.26563.71484.6289.08985.35548.89844.53515.53906.53516 1.52734 1.07422.35938h.53515l-.80469.53515.08985 1.70703.71484 2.69532.89063.80468.89453.98829.71484 1.2578 1.78516.53907 1.51953-.17969.35547 1.34375 1.60937-.80469.98047-.53906.26953.26953.31641-.21484.21875-.14453.80078.44922.44922-.35938h.35547l.53515-.26953.53907-.71875.53515-.26953.625-.98828 1.16016.44922.83984.3711 1.39454.61718 1.6953-.17969h1.60548l1.78515.08985.17969-1.70704.53516-1.34375.80468.26954.4922.84765.40233.40625-.08984.53906v.35938l.71485.44922.71093-.26953h1.42969l.35938.98828.4453 1.25781.71485 1.34375 1.25.6289 1.69531.62891.71485-.17969.17969-.53906.98046-.08984.44922.35937.08594 1.25782-.26563.6289-.53515.17969v.53906l.71484.98438.26563.53906.98437.98828.80078 1.07813-.26562.35937-.08985.89844-.625 2.33203-.35546 2.0664-.08985 1.79298-.17969.71875-.08984.53906v1.4375l-.98047 1.88281-.35937 1.70703-.53516.89844-.80469 1.16797-.26562.53906 2.05469 1.2539.08593.35938-.35546.53906-.08985-.17968v.80859l.08985 1.4375-.44532.71484-1.07422.09375-.26562.71485.53515.89844.8047.71875 1.16015.80859 1.33984.26953.44531.35938-.35546.44921-1.78907-.08984-1.25-.44922-.71484-.71875-.625-.08984-.17578 3.58984-.1875 1.3086h89.35937V311.70313h-55.26953v49.08203l.76172.125 3.28906.54296 2.02344 2.83594v2.7539l2.35156.33204 2.34766.33203h4.05078l-1.3789 4.16016-2.02344.70703-2.02344.70312-.54297.34375-2.59375 1.6172-.1875.11718-2.02344-2.07813-.73046-2.74218-2.67188-2.07813-1.375-3.5-.0664-.08203-1.95704-2.67188 2.75-1.41796v-49.08204H294.42187v91.41407l.1172.03125.1328.01172.07422.07421.10547.04688.08985.0586.08593.05859.08985.0586.29687.29687.0586.08984.03125.11719.02734.11719.01563.13671-.03125.1172-.0586.08983-.0586.08594-.04296.10547-.04688.10156-.02734.1211v.14453l.17578.26953.14844.14844.07422.08594.07422.07421.04296.10547.0625.08985.0586.08593.04297.10547.0586.08985.04687.10156.04296.10547.0586.08594.11719.17968.07421.07422.0625.08594.0586.08984.04297.10547.0586.08985.05858.08593.0625.08985.0586.08984.04297.10156.11719.17969.07421.07422.0586.08594.07422.07421.08984.0586.10547.04687h.14844l.1328-.01562.13282.01562.10156-.04687.07422-.07422.04688-.10156-.01563-.13281v-.14844l-.04687-.10547-.02735-.11719-.04687-.10156-.02735-.1211-.04296-.10156-.0625-.08984-.04297-.10156-.04297-.10547-.03125-.11719-.01563-.13281-.01171-.13672.08593-.0586.0586-.08593.12109-.03125.04297.10547.01562.1328v.1172l.0586.10156.0586.08984.08983.0586.14844.14843.0586.08985.04296.10547-.01171.10156.08593.0586.10547.04687.08594.0586.08984.05858.07422.07422-.11719.02735-.10546.04687-.08594.0586-.07422.07421-.0586.08985-.0625.08594-.02734.12109-.04687.10156-.04297.10547-.03125.11719-.01172.13281-.01563.13281v.14844l.02735.11719.04687.10547.04297.10156.0586.08984.07421.07422.08985.0586.07422.07421.08984.0586.0586.08984.04296.10547.04688.10156.11719.03125.1328.01563h.14845l.11718-.03125.10547.04297.04297.10547.04688.10156.02734.1211L299.5 410l.02734.11719.03125.1211.02735.11718.10547.04297.10156.04687.13281-.01562.14844.14844.0625.08593.07422.07422.07031.07422.08984.0625.10547.04297.10156.04297.1172.03125.13671.01562.11719-.03125.07422-.07422.02734-.11718-.01172-.13282-.03125-.12109-.02734-.11719.04297-.10547h.11719l.08984.0625.11719.02735h.14843l.13282.01562h.14843l.13282.01563.1328-.01563h.14845l.1328-.01562.13282-.01172.13672.01172.11719-.02735.13281-.01562.1914-.0586-.05859.17579-.01562.1328-.02735.1211-.01562.13281-.0586.08594-.1328.01563-.10548.04687-.10546.04297-.1172.03125-.11718.02735-.26563.03125h-.14843l-.13281.01562-.07422.07422.05859.08594.14844.14843.11719.1797.07421.0703.08985.0625.08984.0586.08594.0586.08984.05858.10156.04297.10547.0625.10547.04297.08594.0586.10547.04687.10156.04297.17969.11719.0586.08984-.04298.10156-.04687.10547.01562.13281.22266.22266.0586.08985.04296.10156.03125.1211.04297.10155.01563.13282.03125.11718.01171.13672.03125.11719.14844.14844.10156.04297.10547.04296.1172.03125.1328.01563.13672.01563h.11719l.11719-.03125.08984-.0586.04297-.10547.04688-.10156.04296-.10547.03125-.11719.01172-.1328v-.14845l-.01172-.1328-.01562-.13282-.03125-.11719-.04297-.10547-.04688-.10547-.04296-.10156-.04297-.10547-.01563-.13281.01563-.13281.02734-.11719.03125-.11719.02735-.1211.04687-.10155.08984-.0586.08594-.0625.07422-.07422.08984-.05859.22266-.22266.0586-.08593.07421-.07422.11719-.17969.0586-.08594v-.14844l-.07423-.07421-.10156-.04688-.10547-.04297-.10156-.04297-.0586-.08984-.04687-.10547-.02734-.11719.08984-.05859.11719-.03125.10156-.04297.17969-.11719.14844-.14843.01172-.13282-.01172-.10546-.08985-.0586-.1328.01563h-.14845l-.1328.01562-.13282-.01562-.1211-.03125-.08593-.0586-.07422-.07422-.0586-.08984-.0625-.08594-.11718-.17969-.0586-.08593.03125-.1211.08594-.05859.1211-.03125.05859-.08594v-.1211l-.03125-.11718-.0586-.08984-.05859-.08594-.04687-.10547-.02735-.11719-.01562-.1328.0586-.08985.07421-.07422.08984-.0586.1172-.17968.07421-.07422.0586-.08594.14843-.14844.1211-.03125.1328-.01562.13282.01562.07422.07422.04297.10547.01562.13281-.03125.1172-.11719.03124-.1328.01172-.14844.14844-.04297.10547-.04688.10156-.02734.1211-.03125.11718v.14844l.03125.11719.04297.10546.05859.08985.07422.07031.07422.07422.11719.03125.12109.02734.11719-.02734.1328-.01563h.1172l.08984.0586.07422.07422.04687.10546.0586.08594.10156.04688.13281.01562.10547.04297.08594.0586-.01172.10546-.07422.07422-.17969.11719-.05859.08984-.08984.0586-.07032.07422-.07421.07421-.0625.08985-.02735.11719-.01562.1328.01562.13282-.01562.13281v.14844l.01562.13281.02735.1172.03125.12108.07421.07422.08985.0586.08594.0586.08984.05858.11719.03125v.08594l-.10157.04688-.08984.0586-.26563.03124-.11718.02735h-.14844l-.10547.04296-.10156.04688-.0586.08984-.0625.23438-.01171.13281-.03125.1211-.01563.1328v.29298l-.01172.1328.01172.13673.01563.1328.1328.01563.13282.01172.1211.03125.08593.0586.07422.07421.04688.10547.04296.10157.01563.1328v.44532l-.01563.13281v.44532l.03125.26562.02735.11719.01562.13281.03125.11719.08594.21094.03125.26562v.14844l-.03125.11719-.02734.11718-.03125.1211-.02735.11719-.03125.11718-.03125.1211-.01171.1328-.01563.13282.08984.0586.1172-.03125.10155.01562.04688.10547-.03125.26562v.44141l-.04297.10547-.04688.10547-.04296.10156-.04297.10547-.0586.08594-.03125.12109-.04296.11719-.03125.11719-.01563.1328.01563.13282.05859.08984.10547.04688.08594.0586.05859.08593-.01172.13672-.03125.11719-.04297.10156v.44531l-.01562.13281v.14844l-.03125.11719-.04297.10547-.02735.11719-.04687.10546-.04297.10157-.03125.12109-.02734.11719-.03125.13281-.03125.11719-.02735.11719-.04297.10546-.03125.1172-.03125.12108-.01171.13282-.01563.13281v.29688l.02734.11718v.14844l.04688.39844.02734.11719.0586.08984.12109.03125h.14844l.13281-.01563.0586.08985v.11719l-.0586.08984-.08984.0586-.10157.04296-.10546.04688-.08985.05859-.08594.0586-.13671.01562-.1172-.03125-.1328-.01563-.10157.04688-.0625.08594-.01172.13671-.01562.13282-.03125.11719-.02735.11718-.01562.13281-.03125.1211v.29687l.01563.13282.03125.11718v.14844l.01171.13281v.14844l-.02734.11719-.04688.10156-.02734.1211-.03125.11718-.0586.08985-.07421.07421-.10156.04297-.10547.04688-.11719.02734-.1211.03125-.10156-.04687.0586-.08594.10547-.04688.02734-.11718.03125-.11719.02734-.1211.03125-.11718v-.14844l.01563-.13281-.03125-.11719-.04297-.10547-.10547.01563-.07422.07422-.10156.04296-.08984.0625-.07422.07422-.04297.10157-.01563.1328-.03125.1172L304.25 426l-.03125.11719-.02734.11719-.03125.12109-.02735.11719-.03125.11718-.04297.10547-.08984.0586h-.08984l-.1172-.03125-.03124-.08594.01562-.13672-.03125-.11719v-.14844l-.01171-.1328v-.14844l-.0625-.23438-.02735-.1211-.04297-.10156-.04687-.10546-.0586-.08594-.05859-.08985-.04297-.10546-.0625-.08594-.14844-.14844-.0703-.07422-.10548-.04687-.10547-.04297-.10156-.04297-.29687-.29688-.08985-.07421-.08594-.0586-.10546-.04297-.08985-.0625-.08594-.0586-.10546-.04296-.08985-.0586-.08594-.0625-.07421-.0703-.10547-.04688-.08594-.0586-.10547-.04296-.08984-.0625-.10156-.04297-.10547-.04297-.08594-.0586-.10547-.04687-.10547-.04297-.10156-.04687-.08985-.0586-.10156-.04297-.10547-.04296-.08984-.0625-.11719-.02735-.13281-.01562-.13281.01562H299.75l-.13281.01563-.11719-.03125-.08984-.0586-.07422-.07422-.08985-.05859-.10156-.04688h-.14844l-.12109-.02734-.10156-.04297-.07422-.07422-.11719-.17968-.08984-.0586-.10156-.04297-.08985-.0625-.10547-.04296-.08984-.0586-.08594-.0586-.10547-.04687-.0586-.08594-.05858-.08984-.04297-.10547-.04688-.10156-.07422-.07422-.08594-.0586-.07421-.07421-.08985-.0586-.22265-.22265-.04297-.10547-.03125-.26563.10547-.04296h.14453l.10547.04296.07421.07422.08985.0586.08594.0586.10546.04687.08985.05859.14844.14844.0703.07422.14845.14843.0625.08594.07421.07422.08594.0586.07422.07421.08985.0625.08984.0586.08594.05859.26953.17578.10156.04688.10547.04296.10156.04297.04688-.07421.05859-.08594.07422-.07422.07031-.07422.10547.04297.07422.07422.0586.08984.04296.10156.04688.10547.04296.10547.1211.02735.11719-.02735.07421-.08984.04297-.10547.0586-.08985.07422-.07421.10546-.04297.1172-.02735.1328.01172.08985.0586.14844.14843.05859.08985.04297.10547.04687.10156.04297.10547.04297.10156.10547.04688.10547.04296.13281.01563.08594-.0586.0586-.08984.07421-.07422.10547-.04297.11719.02735.10547.04687.10156.04297.10547.04297.10156.04688.17969.11718v.11719l-.01563.13281.01563.13281.01562.13672.0586.08594.10156.04688.1211.02734.11718.03125h.14844l.11719-.03125.05859-.08984.17969-.1172.05859-.08983.07422-.07422.0586-.08594.11718-.17969.17969-.11719.11719.03125.08984.0586.04297.07422-.01563.1328v.1172l.08985.05859h.14843l.13282-.01563.1328-.01171.26563-.03125.10547-.04297.11719-.03125.1211-.02735.07421-.07421.07031-.07422.0625-.08985-.01562-.10547-.04688-.10156-.10156-.04297-.10547-.01562-.11718.02734-.26563.03125h-.14844l-.07421-.07422-.08985-.0586-.11719-.03124-.11718-.02735-.13282-.01562h-.14843l-.13282.01563h-.29687l-.10547-.04688-.14844-.14844-.04297-.10156-.05859-.08984.22266-.22266.08593-.0586.10547-.04296.11719-.03125.13281-.01563.13281.01563.13672.01562.10157.04297.1328-.01172.08985-.0625.10156-.04297.0625-.08984-.04687-.10156-.08984-.0586-.1172-.03125-.10155-.04296-.0586-.08985-.0625-.08984v-.11719l.01563-.13281.10547-.04688.07421-.07031v-.1211l-.08984-.05859-.03125-.11719.08985-.05859.07421-.07422.04297-.10547.0586-.08984.04687-.10156.01563-.13281v-.14844l-.04688-.10547-.04297-.10156-.08984-.0586-.13281-.01562-.10157-.04297-.13671-.01563-.1172-.03125h-.4453l-.13282-.01562-.13281-.01172-.13281-.01563-.11719-.03125h-.14844l-.13281-.01562-.13281-.01172-.26563-.03125-.1211-.04297-.08593-.0586-.07422-.07421v-.14844l.01172-.13281.10547-.04688.10156-.04296.13281-.01563h.15235l.13281-.01562h.29297l.1211.03125.10156.04296.08984.0586.23438.0625.12109-.04688.08984-.05859.10156-.04297.13282-.01562.10547.04296.10156.04688.13281.01172.1211-.02735h.14453l.12109-.03125.11719-.02734.10547-.04687.07421-.07422.08594-.0586.14844-.14843.0586-.08594.04687-.10547.02734-.11719.01563-.10547-.10156-.04296-.08985-.0586-.11719-.03125-.10546-.04297-.08985-.0625-.07422-.08594-.07422-.07421-.10156-.04297-.10547-.04688-.10156-.04297-.0586-.08984-.04687-.10156-.08594-.21094-.0625-.08594-.05859-.08984-.07422-.07422-.08594-.0586h-.26953l-.11719.03126-.08984.05859-.10156.04297-.13281.01562-.10547-.01562-.02735-.11719-.0625-.08984-.11718-.03125-.10157-.04297-.14843-.14844-.03125-.11719-.01563-.10546.07422-.07422.17969-.1172.11719-.02733.11718-.03125.13672.01562.10156.04297.10547.04297.10156.04687.10547.04297.1172.03125.1328.01563.1172.02734.1328.01563.10547-.01563.08985-.0586-.07422-.07421-.10547-.04297-.07422-.07422-.07422-.08984-.14844-.14844-.08593-.0586-.08985-.05859-.07422-.07422-.08984-.0586-.10156-.04687-.1211-.02734-.10156-.04688-.10547-.04296-.11719-.03125-.10156-.04297-.1211-.03125h-.14843l-.11719.03125-.10546.04297-.08594.0625-.17969.11718-.08594.0586-.08984.0586-.10547.04687-.08594.05859-.10547.04297-.10156.04297-.10547.04687-.07422.07422-.05859.08985-.0586.08593-.04687.10547-.0586.08594-.07421.07422-.13281-.01172-.1172-.03125h-.11718l-.07422.07422-.08984.0586-.07422.07421-.08984.0586-.08594.05859-.10547.04687-.10156.04297-.13672.01563-.10156-.04297-.14844-.14844-.10547-.04688h-.08594l-.10547.04688-.10156.04297-.1211.03125-.11718-.03125-.07422-.07422v-.11719l.03125-.1211.07422-.0703.0586-.08985.07421-.07422.11719-.03125.10547-.04296h.29297l.13281-.01563.13672-.01563.10156-.04296.08985-.0586.10156-.04687.08984-.0586.13281-.01171.08985.05859.13281.01172.08984-.0586.08594-.05859.10547-.04297.08984-.0586.08594-.0625.08985-.05859.14843-.14843.0586-.08594.05859-.08985.10547-.04296.13281-.01563.11719.02735.1211.03125.05859-.0586.05859-.08984.03125-.26563.02734-.11719.10547.01172.13281.01563.10157-.04297.08984-.0586.0586-.08984.07421-.07422.0586-.08984.04687-.10156.01172-.13281-.01172-.13282-.04687-.10547-.14844-.14843-.0586-.08985-.05859-.08594-.04297-.10546v-.44532l.01563-.1328v-.14845l.01172-.1328-.0586-.0586-.08984.0586-.10156-.04298-.17969-.11719-.08594-.05859-.0625-.08984-.0586-.08985-.07421-.07421-.08594-.0586-.1211.03125-.10155.01172-.10547.04688-.08594.05859-.10547.04297-.14844.14844-.08984.05859-.08594.0586-.08984.0625-.10547.04296-.13281.01563v-.1211l.10547-.04297.11718-.03125.07422-.0703.04297-.10548v-.14844l-.02734-.11718-.14844-.14844-.13281-.01563h-.14844l-.11719.03125-.10547.04297-.10156.04297-.08984.0625-.11719.02735-.07422-.07422.01172-.13281-.04297-.10157-.04297-.10547-.08984-.05859-.11719.02734-.1211.03125-.11718.03125-.10156.04297-.1211.03125-.10156.04297-.10547.04297-.08984.0586-.10156.01562v-.11719l.01562-.13281-.0586-.08985-.07421.04297-.14844.14844-.0586.08985-.07421.07421-.04688.10547-.04296.10156-.07422.07422-.0586.08985-.07422.07422-.05859.08593-.07422.07422-.08984.0625-.07422.07031-.07422.07422-.10156.01563-.13281.01562-.10547-.04296v-.1211l.14843-.14844.04297-.10156.0586-.08984.04687-.10156.04297-.10547.0586-.08985.03124-.11719.04297-.10156.03125-.1211.02735-.11718.04687-.10547.04297-.10156.04297-.10547.07422-.07031.08984-.0625.08985-.0586.10156-.04296h.29687l.26563-.03125.10547-.04297-.07422-.07422-.11719-.03125-.10547-.04297-.08984-.0586-.10156-.04687-.08985-.0586-.10156-.04296-.10547-.04297-.08984-.0625-.08594-.0586-.10547-.04296-.10156-.04297-.1211-.03125-.11718-.03125-.10157-.04297L297.5 410.25l-.10156-.04297-.08985-.0586-.04296-.10546-.01563-.13281.10156-.04297.13281-.01563.13672.01563.13282-.01563.10156-.04297.0586-.08984.01562-.10547-.08985-.0586-.07421-.07421-.10157-.04297-.08984-.0586-.14844-.14843-.04297-.10547-.01562-.13281v-.29297l-.0586-.08985-.08984-.05859-.07422-.07422-.04297-.10547-.03125-.11718-.0586-.08985-.07421-.07422-.11719-.02734-.07422-.07422-.08984-.0586-.08984-.0625-.08594-.05859-.07422-.07421-.0586-.08594-.04687-.10547-.08594-.0586-.14843-.14843-.19532-.0586-.1328.01563-.10157.04297-.07422.07422-.04688.10156-.04296.10547-.0586.08984-.0586.08594-.29687.29687-.08984.0586h-.08594l-.0625-.08594-.04297-.10547.03125-.11719.0586-.08984.02734-.11719-.01172-.13281-.08984-.0625-.10547.04688-.11719.02734-.11719.03125-.26953.17578-.10156.04688-.11719.02734-.10546.04687-.08985.0586-.10156.04297-.0586-.08594-.04687-.10547.01563-.13281.04687-.10547.07031-.07422.07422-.07031.0586-.08985v-.14843l-.04297-.10547h-.23829l-.10156.04687-.03125.11719-.02734.11719-.03125.1211-.07422.04296-.13281.01563-.07422-.04688-.04297-.10156-.04297-.10547-.04687-.10156-.04297-.10547-.1211.03125-.10156.04297-.13281.01562-.11719.03125-.10547.04297-.08984.0586-.10156.04687-.1211.02734-.13281.01563-.10156-.04297-.0586-.08985-.04687-.10546-.04297-.10157-.04297-.10546v-.1172l.0586-.08984.08593-.05859.17969-.11719.10156-.04687.10547-.04297.10547-.0586.10156-.04296.08985-.0625.10156-.04297.10547-.0586.10156-.04687.08984-.0586.10547-.04296.10156-.04297.08985-.0625.10156-.04297.13672-.01563.11719.03125.10156.04297.1211.03125.10156.04297.10546.04688.10157.04296.10547.04297.10156.04688.10547.04297.10156.04297.10547.04687.08594.0586.10546.04296.1172.03125.10546.04297.10156.04688.08985.0586.10547.04296.10156.04297.10547.04687.11719.02735.10156.04687.1211.02735h.14843l.08594-.0586.01562-.10156.0586-.08984-.02735-.1172-.07422-.07421-.11719-.17969-.07421-.07422-.08985-.07421-.17969-.1172-.08593-.05859-.10547-.04296-.10156-.04688-.26954-.17578-.05859-.08985-.07422-.07421-.0586-.08985-.04296-.10156-.03125-.11719-.01563-.13672v-.5625l-.01171-.1328-.01563-.13282-.03125-.11719-.01562-.13281-.01172-.13281-.03125-.1211-.22266-.22265-.0586-.08594-.01562-.10547.03125-.11719.13281-.01562v-91.41406H172.9922v1.45312l-.0586.23438-.35156 1.05078-.17187.52343-.1172.34766-.17577.41016-.11719.17187-.23438.29297-.23046.0586h-.35157l-.11718.05859-.23047.40625v.29297l.11719.17578.23046.23047.1172.23437.64062.75781.29297.46485.17578.23437.23047.35156.23437.34766.64063.8164.17578.46485.17187.41016.11719.69531.17578.46875.11719 1.39844.0586.46484v.875l.11718 1.04688v4.78125l-.0586.46484-.35156 1.28125-.17578.52344-.11328.41015-.35156.9297L172.93359 336l-.23437.58203-.11719.17578-.17187.34766-.17578.40625-.35157.8164-.0586.29297-.11327.29297-.11719.28906-.0586.17579-.11718.875-.0586.40625-.05859.11718-.0586.17579-.05859.17187-.23047.52734-.11718.17188v.23437l-.11719.23438-.0586.17187-.17577.58594v.28906l-.0586.17579v.29296l-.0586.11329-.05859.52734v.17187l-.05468.23438v2.6211l-.17578.8164-.1172.17578-.17577.23438-.1172.17187-.11327.23438-.58594.93359-.23047.28906-.29297.46485-.17578.23437-.28906.35156-.35156.69922-.11328.23047-.17579.41016-.17578.23046-.40625.52735-.8164.69922-.29297.17187-.28906.23438-.17579.11719-.17578.17578-.52344.40625-.52734.17578-.17187.17578-.23438.05469-.64062.17578h-.75782m12.21094 31.02344l-1.07422.44921.35938.89454 1.25-.71485.44531-.53906-.98047-.08985"/><path fill="#d3d3d3" fill-opacity="0" fill-rule="evenodd" d="M201.50781 416.59766h-.89453l.44922.6289.98047.35938.80469-.08985.4453-.98828-.17577.08985-.71485-.35547-.89453.35547m154.6211 59.0703l-.0586-.52343v-.29297l.11328-.29297.0586-.23046.46875-.46875h.11328l.11719-.11329.11718-.05859h.17579l.23437-.0586h.34766l.23437.0586.11719.0586.23047.17187.0586.17578.11718.58203v.29297l-.11719.17578-.17187.28906-.17579.17579-.52734.52343-.23047.23438-.11719.0586h-.17578l-.11718-.0586-.40625-.29297-.17579-.11719-.11718-.0586-.0586-.11327-.05468-.1172m6.64062-10.95702l-.0586-.17188v-1.10937l.0586-.17188.17578-.0586.17188-.05858h.17578l.23437-.0586.1172.0586.05858.69921-.05859.17188-.11719.17578-.11718.0586-.23438.52343-.11328.0586h-.23438l-.05859-.1172m9.61328-14.39062l-.11719-.17578v-.69922l.29297-.875.1172-.17187.17577-.35156.11328-.23047.1172-.29297.35155-.75781.1172-.23047.17187-.23438h.17578l.11719-.0586h.64062l.11719.0586.23437.23438.17188.11328.35156.29297.11719.11718.11328.17579v.11328l.11719.05859.11718.11719v.69922l-.05859.17578v.23047l-.0586.17578-.34765 1.05078-.11719.23047-.11719.23437-.11718.0586-.23047.23437-.64063.28906h-.875l-.41015-.11718-.64063-.46485"/><path fill="none" stroke="#bebebe" stroke-linecap="round" stroke-linejoin="round" stroke-miterlimit="10" stroke-width=".5" d="M467.95703 311.69531H144.02734v168.625h323.9297v-168.625"/><g clip-path="url(#a)"><path fill="#fff" fill-opacity="0" fill-rule="evenodd" d="M144 475.89063v4.4375h.0039H144V311.67188h.0039H144v164.21875"/></g><g clip-path="url(#b)"><path fill="#fff" fill-opacity="0" fill-rule="evenodd" d="M144.0039 480.32813V311.67188h79.88673V411.5l-2.48829 2.2539 2.48828 2.28907 2.14844-2.28906-2.14844-2.25391v-99.82813h4.4375v123.66016l-.37109.61328.3711.92188 2.30468 3.51562-1.09765 4.4375 1.28515 4.4414 1.94531 3.3711.62891 1.0664 3.8125 3.70313.88281.73438 1.01172 4.4375 2.54297 2.625 4.4375-.21094 2.51172-2.41406-1.8789-4.4375-.63282-.72266-2.47656-3.71484-1.05078-4.4375-.91016-2.32422-4.4375-.17188-2.26953-1.9453 2.26953-.83594 3.45313-3.60157-3.45313-3.2539-4.4414 2.05078-4.01563-3.23438-.42188-.61328V311.67188h4.4375v98.35156l-2.79687 3.73047-.78125 4.4375.53125 4.4375 3.04688 2.80078 4.4414.98047 4.4375-.96485 3.90234 1.625.53516.50781 4.4375 2.47657 4.4375.33984 1.4375 1.11328 3.0039 1.75 1.78516-1.75 2.65235-2.22656 2.19922-2.21094-2.19922-2.13672-4.4375 1.10938-.92578-3.41406-.13282-4.4375-3.3828-2.4922-4.4375-.67187-4.4375 1.62891-4.4375-.6914-1.09376-2.21094-3.34375-3.37891-4.4414-.35156v-98.35156h26.6328v91.39062l-1.7539 1.8125 1.7539 2.33203 4.4375.0664.9375-2.39843-.9375-1.07031-4.4375-.74219v-91.39063h13.3125v95.2422l-2.3828 2.40234-.94532 4.4375 3.32813 2.60156 1.60156 1.83594 2.04688 4.4375.79296.82421 3.48438 3.6172.95312.90624 2.20313 3.53125 2.23437 2.22656 2.22657-2.22656 2.21093-.46875v25.5586l-1.71484 1.53906 1.71484 1.58984 1.50782-1.58984-1.50782-1.53906v-25.5586l3.97266-3.96875-3.97266-3.9961-1.6289-.4453-1.64844-4.4375 1.01172-4.4375-2.17188-2.5547-4.4375-1.82421-.375-.0586-4.0625-2.0039-4.4414-.39844v-95.24219h102.08203v133.4961l-3.13672 4.09375 3.13672 4.34375.34375.09375 4.09765 2.01953 1.76172-2.01953-.96484-4.4375-.79688-.64453-4.4414-3.44922v-133.4961h13.3164V429.6836l-1.52734 1.82422 1.52735 1.52344 3.21484-1.52344-3.21485-1.82422V311.67188h79.88672v168.65625H144.00391"/></g><path fill="#50fcfc" fill-rule="evenodd" d="M223.89063 416.04297l-2.48829-2.28906 2.48828-2.25391 2.14844 2.2539-2.14844 2.28907m4.4375 20.82422l-.37109-.92188.3711-.61328.42187.61328 4.01563 3.23438 4.4414-2.05078v2.18359L235.5 440.38281l1.70703 1.1836 1.13281-1.1836-1.1328-1.07031v-2.1836l3.45312 3.25391-3.45313 3.60156-2.26953.83594 2.26953 1.94531 4.4375.17188.91016 2.32422 1.05078 4.4375 2.47656 3.71484.63281.72266 1.87891 4.4375-2.51172 2.41406-4.4375.21094-2.54297-2.625-1.01172-4.4375-.8828-.73438-3.8125-3.70312-.62892-1.0664-1.9453-3.3711-1.28516-4.4414 1.09765-4.4375-2.30469-3.51563m1.39063-14.23828l-.53125-4.4375.78125-4.4375 2.79688-3.73047 4.4414.35156v1.65625l-4.4414 1.54297-.13282.17969-1.65625 4.4375 1.76563 4.4375.02344.02343 4.4414 2.21094 4.42578-2.23437-.64062-4.4375-2.08203-4.4375-1.70313-1.72266V410.375l3.34375 3.3789 1.09375 2.21094 4.4375.69141 4.4375-1.6289v1.92577l-2.21094 1.23829-2.22656 3.5039-4.35547.9336 4.35547.70312 4.20313 3.73828.23437.14453.4961-.14453 3.9414-1.375 1.67969-3.0664-1.67969-3.77344-.88281-.66406-3.55469-1.23829v-1.92578l4.4375.67188 3.38281 2.49219.13282 4.4375.92578 3.41406 4.4375-1.10938 2.19922 2.13672-2.19922 2.21094-2.65235 2.22656-1.78515 1.75-3.0039-1.75-1.4375-1.11328-4.4375-.33984-4.4375-2.47656-.53517-.50782-3.90234-1.625-4.4375.96485-4.4414-.98047-3.04688-2.80078"/><path fill="#00e8fc" fill-rule="evenodd" d="M232.74219 422.6289l-1.76563-4.4375 1.65625-4.4375.13281-.17968 4.44141-1.54297v4.94531l-1.16797 1.21485 1.16797 2.26953.46875-2.26953-.46875-1.21485v-4.94531l1.70313 1.72266 2.08203 4.4375.64062 4.4375-4.42578 2.23437-4.4414-2.21094-.02344-.02343m4.46484 18.9375L235.5 440.3828l1.70703-1.07031 1.13281 1.07031-1.1328 1.1836"/><path fill="#00d4fc" fill-rule="evenodd" d="M237.20703 420.46094l-1.16797-2.26953 1.16797-1.21485.46875 1.21485-.46875 2.26953"/><path fill="#00e8fc" fill-rule="evenodd" d="M246.08203 423.33203l-4.35547-.70312 4.35547-.9336 2.22656-3.5039 2.21094-1.23829 3.55469 1.23829.88281.66406 1.67969 3.77344-1.67969 3.0664-3.9414 1.375-.4961.14453-.23437-.14453-4.20313-3.73828"/><path fill="#50fcfc" fill-rule="evenodd" d="M259.39844 407.20703l-1.7539-2.33203 1.7539-1.8125 4.4375.74219.9375 1.07031-.9375 2.39844-4.4375-.0664m13.3125 9.14843l-3.32813-2.60156.94531-4.4375 2.38282-2.40235 4.4414.39844v3.03125l-4.13671 3.41016 3.84375 4.4375.29296.51953 3.9375 3.91797.5.51171.33985 3.9297 4.09765 4.27734 4.4375-1.06641 3.21485-3.21094-3.21485-3.23437-4.43359-1.20703-.0039-.00782-1.50391-4.42968.91015-4.4375-3.84375-3.22266-4.4375-.1875v-3.03125l4.0625 2.0039.375.0586 4.4375 1.82422 2.17188 2.55469-1.01172 4.4375 1.64844 4.4375 1.6289.4453 3.97266 3.9961-3.97266 3.96875-2.21093.46875-2.22657 2.22656-2.23437-2.22656-2.20313-3.53125-.95312-.90625-3.48438-3.61719-.79296-.82421-2.04688-4.4375-1.60156-1.83594"/><path fill="#00e8fc" fill-rule="evenodd" d="M276.85938 418.1914l-3.84375-4.4375 4.13671-3.41015 4.4375.1875v1.9336l-3.85937 1.28906 3.85937 3.83984 1.53516-3.83984-1.53516-1.28907v-1.93359l3.84375 3.22266-.91015 4.4375 1.5039 4.42968v.7461l-3.41796 3.70312 3.41796 3.5664 4.4375-1.62108 1.94922-1.94532-1.94922-1.96484-4.4375-1.73828v-.7461l.00391.00782 4.4336 1.20703 3.21484 3.23437-3.21485 3.21094-4.4375 1.0664-4.09765-4.27734-.33985-3.92969-.5-.51171-3.9375-3.91797-.29296-.51953"/><path fill="#00d4fc" fill-rule="evenodd" d="M281.58984 417.59375l-3.85937-3.83984 3.85937-1.28907 1.53516 1.28907-1.53516 3.83984m4.4375 13.04297l-3.41796-3.5664 3.41796-3.70313v.73437l-2.73828 2.96875 2.73828 2.85938 4.4375-2.17578.6875-.6836-.6875-.6914-4.4375-2.27735v-.73437l4.4375 1.73828 1.94922 1.96484-1.94922 1.94531-4.4375 1.6211"/><path fill="#00c4fc" fill-rule="evenodd" d="M286.02734 429.92969l-2.73828-2.85938 2.73828-2.96875v.73438l-2.05859 2.23437 2.0586 2.14844 3.85546-2.14844-3.85547-2.23437v-.73438l4.4375 2.27735.6875.6914-.6875.6836-4.4375 2.17578"/><path fill="#00b8fc" fill-rule="evenodd" d="M286.02734 429.21875l-2.05859-2.14844 2.0586-2.23437v.73828l-1.37891 1.4961 1.3789 1.4414 2.58594-1.4414-2.58594-1.4961v-.73828l3.85547 2.23437-3.85547 2.14844"/><path fill="#00a8fc" fill-rule="evenodd" d="M286.02734 428.51172l-1.3789-1.4414 1.3789-1.4961v.73437l-.69921.76172.69921.73047 1.3125-.73047-1.3125-.76172v-.73437l2.58594 1.4961-2.58594 1.4414"/><path fill="#009800" fill-rule="evenodd" d="M286.02734 427.80078l-.69921-.73047.69921-.76172v.73438l-.02343.02734.02343.01953.03907-.01953-.03907-.02734v-.73438l1.3125.76172-1.3125.73047"/><path fill="#00ac00" fill-rule="evenodd" d="M286.02734 427.08984l-.02343-.01953.02343-.02734.03907.02734-.03907.01953"/><path fill="#50fcfc" fill-rule="evenodd" d="M290.46484 459.72656l-1.71484-1.58984 1.71484-1.53906 1.50782 1.53906-1.50782 1.58984m84.32813-6.1211l-3.13672-4.34374 3.13672-4.09375v2.57422l-1.16016 1.51953 1.16016 1.60937 1.71875-1.60937-1.71875-1.51953v-2.57422l4.4414 3.44922.79688.64453.96484 4.4375-1.76171 2.01953-4.09766-2.01953-.34375-.09375"/><path fill="#00e8fc" fill-rule="evenodd" d="M374.79297 450.8711l-1.16016-1.60938 1.16016-1.51953 1.71875 1.51953-1.71875 1.60937"/><path fill="#50fcfc" fill-rule="evenodd" d="M388.10938 433.03125l-1.52735-1.52344 1.52735-1.82422 3.21484 1.82422-3.21485 1.52344"/><g clip-path="url(#c)"><path fill="#fff" fill-opacity="0" fill-rule="evenodd" d="M467.9961 480.32813H468V311.67188h-.0039H468v168.65625h-.0039"/></g><g clip-path="url(#d)"><path fill="none" stroke="#000" stroke-linecap="round" stroke-linejoin="round" stroke-miterlimit="10" stroke-width=".5" d="M144.1836 476.82031l-.3672 7.01563"/></g><g clip-path="url(#e)"><path fill="none" stroke="#000" stroke-linecap="round" stroke-linejoin="round" stroke-miterlimit="10" stroke-width=".5" d="M144.1289 477.83984l1.11329-.51953"/></g><g clip-path="url(#f)"><path fill="none" stroke="#000" stroke-linecap="round" stroke-linejoin="round" stroke-miterlimit="10" stroke-width=".5" d="M158.69531 477.09766l-2.76172 6.46093"/></g><path fill="none" stroke="#000" stroke-linecap="round" stroke-linejoin="round" stroke-miterlimit="10" stroke-width=".5" d="M158.29297 478.03906l1.22266-.10547"/><g clip-path="url(#g)"><path fill="none" stroke="#000" stroke-linecap="round" stroke-linejoin="round" stroke-miterlimit="10" stroke-width=".5" d="M172.4414 477.32031l-3.625 6.01953"/></g><path fill="none" stroke="#000" stroke-linecap="round" stroke-linejoin="round" stroke-miterlimit="10" stroke-width=".5" d="M171.91406 478.19531l1.22656.0664"/><g clip-path="url(#h)"><path fill="none" stroke="#000" stroke-linecap="round" stroke-linejoin="round" stroke-miterlimit="10" stroke-width=".5" d="M187.27344 479.20313l-6.65625 2.25"/></g><g clip-path="url(#i)"><path fill="none" stroke="#000" stroke-linecap="round" stroke-linejoin="round" stroke-miterlimit="10" stroke-width=".5" d="M197 483.83203l.51953-7.00781"/></g><g clip-path="url(#j)"><path fill="none" stroke="#000" stroke-linecap="round" stroke-linejoin="round" stroke-miterlimit="10" stroke-width=".5" d="M208.32422 483.02344l4.5039-5.39063"/></g><g clip-path="url(#k)"><path fill="none" stroke="#000" stroke-linecap="round" stroke-linejoin="round" stroke-miterlimit="10" stroke-width=".5" d="M221.0586 482.41016l5.66406-4.16407"/></g><g clip-path="url(#l)"><path fill="none" stroke="#000" stroke-linecap="round" stroke-linejoin="round" stroke-miterlimit="10" stroke-width=".5" d="M238.22656 480.32813l-.01953-.19922-.0586-.19141-.09374-.17578-.45703-.3789-.19141-.0586-.19922-.01953-.19922.01953-.19531.0586-.45703.3789-.09375.17578-.0586.1914-.01953.19923.01953.19921.0586.19141.09375.17969.45703.375.19531.0586.19922.01952.19922-.01953.1914-.0586.45704-.375.09375-.17968.0586-.1914.01952-.19922"/></g><g clip-path="url(#m)"><path fill="none" stroke="#000" stroke-linecap="round" stroke-linejoin="round" stroke-miterlimit="10" stroke-width=".5" d="M250.03516 483.8086l.96875-6.96094"/></g><g clip-path="url(#n)"><path fill="none" stroke="#000" stroke-linecap="round" stroke-linejoin="round" stroke-miterlimit="10" stroke-width=".5" d="M264.1914 483.82422l-.71093-6.99219"/></g><g clip-path="url(#o)"><path fill="none" stroke="#000" stroke-linecap="round" stroke-linejoin="round" stroke-miterlimit="10" stroke-width=".5" d="M280.19531 482.08594l-6.08594-3.51172"/></g><g clip-path="url(#p)"><path fill="none" stroke="#000" stroke-linecap="round" stroke-linejoin="round" stroke-miterlimit="10" stroke-width=".5" d="M291.09766 476.8711l-1.26172 6.91406"/></g><g clip-path="url(#q)"><path fill="none" stroke="#000" stroke-linecap="round" stroke-linejoin="round" stroke-miterlimit="10" stroke-width=".5" d="M303.50781 476.82422l.54688 7.00781"/></g><path fill="none" stroke="#000" stroke-linecap="round" stroke-linejoin="round" stroke-miterlimit="10" stroke-width=".5" d="M303.58594 477.84375l1.03515-.65625"/><g clip-path="url(#r)"><path fill="none" stroke="#000" stroke-linecap="round" stroke-linejoin="round" stroke-miterlimit="10" stroke-width=".5" d="M316.79688 476.82813l.59765 7"/></g><path fill="none" stroke="#000" stroke-linecap="round" stroke-linejoin="round" stroke-miterlimit="10" stroke-width=".5" d="M316.88281 477.84766l1.03125-.66797"/><g clip-path="url(#s)"><path fill="none" stroke="#000" stroke-linecap="round" stroke-linejoin="round" stroke-miterlimit="10" stroke-width=".5" d="M329.14063 477.05469l2.54296 6.55078"/></g><path fill="none" stroke="#000" stroke-linecap="round" stroke-linejoin="round" stroke-miterlimit="10" stroke-width=".5" d="M329.51172 478.00781l.80078-.92969"/><g clip-path="url(#t)"><path fill="none" stroke="#000" stroke-linecap="round" stroke-linejoin="round" stroke-miterlimit="10" stroke-width=".5" d="M341.1914 477.89844l5.07032 4.86328"/></g><path fill="none" stroke="#000" stroke-linecap="round" stroke-linejoin="round" stroke-miterlimit="10" stroke-width=".5" d="M341.92969 478.60547l.33203-1.17969"/><g clip-path="url(#u)"><path fill="none" stroke="#000" stroke-linecap="round" stroke-linejoin="round" stroke-miterlimit="10" stroke-width=".5" d="M353.6836 479.28906l6.71484 2.07813"/></g><path fill="none" stroke="#000" stroke-linecap="round" stroke-linejoin="round" stroke-miterlimit="10" stroke-width=".5" d="M354.66016 479.58984l-.22657-1.20312"/><g clip-path="url(#v)"><path fill="none" stroke="#000" stroke-linecap="round" stroke-linejoin="round" stroke-miterlimit="10" stroke-width=".5" d="M366.91406 481.03125l6.88281-1.40625"/></g><g clip-path="url(#w)"><path fill="none" stroke="#000" stroke-linecap="round" stroke-linejoin="round" stroke-miterlimit="10" stroke-width=".5" d="M367.91406 480.82813l-.78125-.94922"/></g><g clip-path="url(#x)"><path fill="none" stroke="#000" stroke-linecap="round" stroke-linejoin="round" stroke-miterlimit="10" stroke-width=".5" d="M380.47266 478.875l6.39843 2.90625"/></g><g clip-path="url(#y)"><path fill="none" stroke="#000" stroke-linecap="round" stroke-linejoin="round" stroke-miterlimit="10" stroke-width=".5" d="M394.83984 477.54688l4.29297 5.5625"/></g><g clip-path="url(#z)"><path fill="none" stroke="#000" stroke-linecap="round" stroke-linejoin="round" stroke-miterlimit="10" stroke-width=".5" d="M413.72266 479.52734l-6.83985 1.60547"/></g><g clip-path="url(#A)"><path fill="none" stroke="#000" stroke-linecap="round" stroke-linejoin="round" stroke-miterlimit="10" stroke-width=".5" d="M426.99219 479.35547l-6.7539 1.94531"/></g><g clip-path="url(#B)"><path fill="none" stroke="#000" stroke-linecap="round" stroke-linejoin="round" stroke-miterlimit="10" stroke-width=".5" d="M426.01172 479.64063l.85156.8789"/></g><g clip-path="url(#C)"><path fill="none" stroke="#000" stroke-linecap="round" stroke-linejoin="round" stroke-miterlimit="10" stroke-width=".5" d="M440.38281 480.99219l-6.90234-1.32813"/></g><g clip-path="url(#D)"><path fill="none" stroke="#000" stroke-linecap="round" stroke-linejoin="round" stroke-miterlimit="10" stroke-width=".5" d="M453.73828 480.70703l-6.98437-.75781"/></g><g clip-path="url(#E)"><path fill="none" stroke="#000" stroke-linecap="round" stroke-linejoin="round" stroke-miterlimit="10" stroke-width=".5" d="M467.0586 480.67578l-6.9922-.69531"/></g><g clip-path="url(#F)"><path fill="none" stroke="#000" stroke-linecap="round" stroke-linejoin="round" stroke-miterlimit="10" stroke-width=".5" d="M147.2539 465.6914l-6.5078 2.64454"/></g><path fill="none" stroke="#000" stroke-linecap="round" stroke-linejoin="round" stroke-miterlimit="10" stroke-width=".5" d="M147.2539 465.6914l1.88282 1.57423m11.5664-1.1797l-6.77734 1.85548m6.77734-1.85547l1.6836 1.78906m11.71484-1.41406l-6.9414 1.10547m6.9414-1.10547l1.47656 1.96094m11.8711-1.15235l-7.00781-.51172m7.0078.51172l.9922 2.24219M200.5 468.375l-6.48047-2.72266m5.53906 2.32422l.10938 1.22266m13.9375-.40625l-6.0586-3.5586m18.39063-1.07812l-4.09375 5.71484m18.17188-4.96484l-5.6211 4.21484m4.80469-3.60156l1.10937.51953m13.16407 2.8789l-5.90625-3.80859m17.13672 5.3086l-1.73829-6.8086m1.48828 5.81641l-.91015.82813m15.9336-.60938l-4.65235-5.26172m3.97656 4.4961l-.42969 1.14843m14.70703-5.36328l-5.22656 4.69922m4.46485-4.01562l1.15625.42187m11.63671-2.00781l-2.65625 6.5039m15.38672-6.6875l-1.48828 6.8711m1.27344-5.8711l1.17969-.33203m13.05078-.43359l-2.89063 6.40234m2.47266-5.47265l1.22266-.07813m12.4375-.88672l-2.7422 6.47266m15.81642-6.5625l-2.26172 6.65234m15.76562-6.58203l-2.64062 6.51172m12.33593-5.91406l4.59766 5.3164m9.39844-5.77734l3.23828 6.23828m14.875-4.61328l-6.35938 2.98828m19.95704-2.09375l-6.92188 1.19922m5.91406-1.02344l.7539.96875m11.5625 2.65235l-2.91015-6.39453m14.64063 6.70703l.25781-7.01953m16.39453 4.9453l-6.41406-2.87109m5.48047 2.45313l.08203 1.22656"/><g clip-path="url(#G)"><path fill="none" stroke="#000" stroke-linecap="round" stroke-linejoin="round" stroke-miterlimit="10" stroke-width=".5" d="M147.1914 452.23047l-6.3828 2.9375"/></g><path fill="none" stroke="#000" stroke-linecap="round" stroke-linejoin="round" stroke-miterlimit="10" stroke-width=".5" d="M147.1914 452.23047l1.95313 1.48437m11.51953-1.07812l-6.69922 2.1211m6.69922-2.1211l1.7539 1.71875m11.64063-1.42188l-6.85937 1.53125m6.85937-1.53125l1.59766 1.86328m11.76172-1.62109l-6.94922 1.04297m6.94922-1.04297l1.46094 1.97266m-2.46875-1.82031l.73047.98828m13.60546-1.07032l-6.96875.90625m6.96875-.90625l1.42188 2m11.88281-2.05859l-6.95312 1.02344m6.95312-1.02344l1.45703 1.97266m11.61328-2.84375l-6.46093 2.76172m5.51953-2.35938l.95703.76953m12.89062-1.8789l-5.64453 4.17968m4.82422-3.57422l1.10938.52735m13.71093.76172l-7.01562.39062m5.9961-.33594l.63671 1.05078m11.47266 2.35938l-2.5625-6.54297m2.1875 5.59375l-.79688.92969m15.89453-.98828l-5.3789-4.52344m4.59375 3.86719l-.2539 1.19922m14.95702-4.03516l-6.58594 2.45703m5.62891-2.09766l.91797.8125m12.71094-2.25l-5.29688 4.6172m4.52735-3.94532l1.14453.4375m11.95312-1.89844l-3.32422 6.1914m17.78125-5.21093l-5.60937 4.23438m4.79297-3.6211l1.11328.51953m13.54687-.125l-6.66797 2.21875m6.66797-2.21875l1.77735 1.69141m11.52734-1.72266l-6.64453 2.28125m5.67969-1.94922l.89453.83594m12.41797-2.63672l-4.70703 5.21875m4.01953-4.46093l1.1914.30078m11.21485-1.8789l-1.51953 6.85937m11.58593-5.91016l4.98047 4.96094m-4.2539-4.23828l.35546-1.17579m14.3125-.55468l.82422 6.97656m10.30078-5.85156l5.19922 4.72656m7.8047-.39844l5.82421-3.92969m-4.97656 3.35938l-1.08203-.57813m14.3203 1.96875l4.28126-5.5703m-3.65625 4.76171l-1.21094-.20312m19.03516.0625l-5.98828-3.67579"/><g clip-path="url(#H)"><path fill="none" stroke="#000" stroke-linecap="round" stroke-linejoin="round" stroke-miterlimit="10" stroke-width=".5" d="M146.6836 438.11328l-5.3672 4.53906"/></g><path fill="none" stroke="#000" stroke-linecap="round" stroke-linejoin="round" stroke-miterlimit="10" stroke-width=".5" d="M146.6836 438.11328l2.27734.91406m-3.0586-.2539l1.14063.45703m13.39453-.46094l-6.24219 3.22656m6.24219-3.22656l2.01563 1.39844m11.55468-.75l-6.75781 1.92969m6.75781-1.9297l1.70313 1.76954m11.73047-1.16797l-6.9922.73047m6.9922-.73047l1.36718 2.03516m11.83985-2.60938l-6.77344 1.875m6.77344-1.875l1.6875 1.78125m11.74219-1.11718l-7.00391.54687m5.98437-.46484l.66016 1.03515m13.6836-.90625l-7.02344.125m7.02343-.125l1.19141 2.14453m12.09375-2.55468l-6.96484.94922m5.94922-.8125l.71875.99609m13.6328-.90625l-7.0078.4961m5.98828-.42579l.65234 1.03906m13.6914-.88671l-7.02734.04687m7.02735-.04687l1.16797 2.16015m12.11718-1.67578l-6.96484-.92187m5.95312.78906l.4297 1.14844m13.91015-1.83204l-6.99219.71485m5.97656-.61328l.6836 1.01953m13.66406-.80078l-7.02735.0703m6.00782-.05858l.58593 1.07812m13.46094-2.45313l-6.44922 2.79688m5.51172-2.39063l.95703.76563m13.33985-1.0586l-6.53907 2.57423m6.53907-2.57422l1.86718 1.58984m11.44141-1.60938l-6.52344 2.60938m6.52344-2.60938l1.875 1.58594M358 437.00391l-1.91797 6.76172m16.09375-6.38672l-3.63672 6.01172m3.10547-5.13672l1.22656.0664m8.41016-.51172l4.78125 5.14844m-4.08594-4.39844l.39844-1.16015m14.10937-.49219l1.00391 6.95313m-.85937-5.94141l.98828-.72656m12.08203-.26953l1.20703 6.92187m-1.03125-5.91406l.96484-.7539m12.53125-.29688l.4922 7.0078m-.42188-5.98827l1.03906-.65235m8.97265 3.63282l6.95704-.9922m-5.94532.84767l-.72265-.98829m13.36328 2.20704l6.28515-3.14063m12.60547 4.10547l-4.86718-5.07031"/><g clip-path="url(#I)"><path fill="none" stroke="#000" stroke-linecap="round" stroke-linejoin="round" stroke-miterlimit="10" stroke-width=".5" d="M146.39453 424.4961l-4.78906 5.14452"/></g><path fill="none" stroke="#000" stroke-linecap="round" stroke-linejoin="round" stroke-miterlimit="10" stroke-width=".5" d="M146.39453 424.4961l2.3711.6328m-3.06641.1172l1.1836.3164m13-.89063l-5.13673 4.79297m5.13672-4.79297l2.32031.80079m11.78125.54687l-6.70703 2.09766m6.70703-2.09766l1.7461 1.72266m11.70703-.29297l-6.98438-.76172m6.98438.76172l.91016 2.27734m11.93359-.86718l-6.04297-3.58204m5.16406 3.0625l-.05468 1.22266m14.03515-.3789l-5.61328-4.22657m4.79688 3.60938l-.19141 1.21093M226.73047 425l-5.67969 4.13672m17.96484.9414l-3.62109-6.01953m3.09375 5.14454l-.6289 1.05078m15.8828-1.78125l-6.4414-2.8086m5.5039 2.40235l.09376 1.22265m14.0586-.60547l-6.2422-3.23046m5.33204 2.76171l.01562 1.22657m14.14844-.64453l-6.1211-3.45704m5.23047 2.95313l-.03125 1.22656m13.96094-.3086l-5.57031-4.28515m4.76172 3.66016l-.20313 1.21094m14.78906-1.38282l-6.49218-2.6914m5.54687 2.30078l.11719 1.21875m14.13672-3.53516l-6.48047 2.72266m6.48047-2.72266l1.89843 1.55078m11.69141-.2461l-7.02734.11329m6.0039-.09766l.59375 1.07422m13.33203-2.67968l-6.20312 3.29687m5.30078-2.82031l1.01563.6875m12.83984-1.71875l-5.48047 4.40234m4.6836-3.76172l1.125.48438m11.4453-2.22656l-2.39452 6.60546m2.04296-5.64453l1.21485-.17187m11.08203-.9961l.34375 7.01954m-.34375-7.01954l2.10937-1.2539m12.04297 1.3125l-1.33203 6.90234m1.33203-6.90234l2.34375-.71875m-2.53906 1.72265l1.17188-.35937m13.0703-.41797l-2.79687 6.44922m2.39063-5.51172l1.22265-.09766m13.0625-.53125l-3.92187 5.83204m3.92187-5.83204l2.44141.25391m9.17578-.83984l-.52734 7.0039m.45312-5.98437l1.1211-.49219m10.64062-.26562l2.72656 6.48046m8.5586-4.15625l6.78515 1.83204"/><g clip-path="url(#J)"><path fill="none" stroke="#000" stroke-linecap="round" stroke-linejoin="round" stroke-miterlimit="10" stroke-width=".5" d="M146.48828 411.27344l-4.97656 4.96094"/></g><path fill="none" stroke="#000" stroke-linecap="round" stroke-linejoin="round" stroke-miterlimit="10" stroke-width=".5" d="M146.48828 411.27344l2.34375.71875m10.55078-1.07813l-4.13672 5.67969m4.13672-5.67969l2.42969.34375m-3.03125.48047l1.21484.17188m12.21094-1.29688l-3.15234 6.28125m3.15234-6.28125l2.44922-.0586m12.77344 2.75391l-6.96875.89063m17.21484 3.04297l-.83203-6.97656m.71094 5.96093l-1.00781.69922m10.61328-2.34375l6.82812-1.65625m7.21094 3.08594l5.38281-4.51563m-4.60156 3.85938l-1.13672-.46094m14.88281 2.04688l2.95703-6.375m-2.52734 5.4453l-1.22266.06642m17.01563.88671l-2.85938-6.42187m2.44532 5.48437l-.75782.96875m16.09766-1.48437l-6.08203-3.51953M265.99219 415l-.04297 1.22656m13.92578-.25781l-5.44922-4.4336m4.65625 3.78907l-.23437 1.20312m13.5625.15235l-3.89063-5.85157m3.32422 5l-.58203 1.07813m13.54297-3.15234l-.01953-.19922-.0586-.1914-.09375-.1797-.46094-.375-.1914-.05859-.19922-.01953-.19922.01953-.1914.0586-.46094.375-.09375.17968-.0586.1914-.01953.19923.01953.19921.0586.19141.09375.17578.46093.3789.19141.0586.19922.01953.19922-.01953.1914-.0586.46094-.3789.09375-.17578.0586-.1914.01953-.19922m13.19922-3.39454l-1.81641 6.78907m17.04687-5.48828l-5.64453 4.1875m4.82422-3.57813l1.10547.52734m11.76563-2.1914l-3.1172 6.29687m2.66407-5.3828l1.22656-.03517m12.80078-.73828l-3.63671 6.01563m17.86718-5.21875l-5.46484 4.41797m4.66797-3.77344l1.1289.48047m11.28516-2.27344l-2.07031 6.71484m1.76953-5.73828l1.20312-.23047m11.8711-.86718l-.98828 6.95703m.84375-5.94531l1.15625-.41407m13.19531-.34765l-2.77344 6.45703m2.77344-6.45703l2.44531-.19922m9.48438-.08594v7.02734m0-7.02734l2.16406-1.14844m10.625 1.19141l1.05078 6.94531m-.89844-5.9375l.98438-.73047m10.29297.64063l4.82422 5.10937m-4.125-4.36718l.39453-1.16016m11.60547 4.75781l6.05078-3.57031m-5.16797 3.05078l-1.04688-.64062"/><g clip-path="url(#K)"><path fill="none" stroke="#000" stroke-linecap="round" stroke-linejoin="round" stroke-miterlimit="10" stroke-width=".5" d="M146.5 397.96875l-5 4.9414"/></g><path fill="none" stroke="#000" stroke-linecap="round" stroke-linejoin="round" stroke-miterlimit="10" stroke-width=".5" d="M146.5 397.96875l2.33984.73047m10.54688-1.09766l-4.14453 5.67188m4.14453-5.67188l2.42969.34766m-3.03125.47656l2.42968.34766m9.97657-1.80469l-1.1211 6.9375m1.1211-6.9375l2.32422-.78906m-2.48829 1.80078l2.32422-.79297m8.85938.19531l3.46875 6.11328m-3.46875-6.11328l1.3164-2.07031m10.23828 5.47266l6.9922-.69141m-5.97657.58984l-.67969-1.02343m13.00781.20703l6.9336 1.14453m-5.92578-.98047l-.39063-1.16016m12.70313 2.1797l6.92187-1.22267m-6.92187 1.22266l-1.51172-1.9336m15.11719 2.83594l6.33984-3.02734m-5.41797 2.58594l-.98437-.73047m14.33593 2.38672l4.42188-5.46094m-3.77734 4.66797l-1.20313-.23438m16.21875 1.8086l-.26563-7.02344m.22657 6.0039l-1.0586.61329m14.58594.39453l-.61328-7m.52344 5.98438l-1.02735.66796m16.38672-.46093l-4.52344-5.37891m3.8672 4.59375l-.46095 1.14063m13.83204.05078l-3.32032-6.19532m17.94532 1.22266l-5.94141 3.7539m5.07812-3.21093l1.0625.60937m12.94532-1.39843l-5.60157 4.24609m4.78516-3.6289l1.11328.51562m12.60156-1.58985l-4.76953 5.16016m4.07813-4.41015l1.1836.3125m13.94921 1.32421l-7.01953.38672m5.9961-.33203l.63671 1.05078m12.90625-3.14453l-5.42578 4.46485m4.63672-3.81641l1.13281.46875m11.42969-2.19922l-2.34766 6.625m2.34766-6.625l2.42969-.35938m10.48047.2461l-1.53516 6.85547m1.53516-6.85547l2.36718-.65235m10.77344.6172l-1.1875 6.92577m1.01563-5.91796l1.16406-.38672m11.80469-.67188l-.14844 7.02344m.125-6l1.09375-.55469m11.74219-.44531l.85546 6.97656m-.73046-5.96094l1.0039-.70312m11.78906-.23828l1.65235 6.82812m-1.41406-5.83594l.91796-.8125m14.33985 6.47657l-2.71094-6.48438"/><g clip-path="url(#L)"><path fill="none" stroke="#000" stroke-linecap="round" stroke-linejoin="round" stroke-miterlimit="10" stroke-width=".5" d="M146.72656 384.90625l-5.45312 4.4336"/></g><path fill="none" stroke="#000" stroke-linecap="round" stroke-linejoin="round" stroke-miterlimit="10" stroke-width=".5" d="M146.72656 384.90625l2.26172.95703m10.35156-1.60937l-4.05078 5.73828m4.05078-5.73828l2.4336.30859m-3.02344.52734l1.21875.15235m12.21094-1.27344l-3.09766 6.3086m3.09766-6.3086l2.45312-.07813m-2.90234.9961l2.44922-.07813m12.26953-.14843l-5.00781 4.92578m5.0078-4.92578l2.33985.73437m6.14453-.90625l4.65235 5.26953m-3.97656-4.5l.43359-1.15234m13.61719-.375l1.82812 6.78515m-1.5625-5.79687l.89844-.83984m9.6211 2.55078l6.89062 1.38672m-6.89063-1.38672l-.70312-2.35156m14.48828 4.91406l5.94922-3.73828m-5.94922 3.73828l-2.1289-1.22266m2.99609.67969l-1.06641-.61328m13.95313 1.71875l5.07421-4.85938m-5.07422 4.85938l-2.33203-.76953m16.45313 1.39453l3.46094-6.11328m-3.46094 6.11328l-2.45313-.0625m17.02735.48828l.9414-6.96485m-.80468 5.95313l-1.15235.42188m15.35547.57812l-1.10937-6.9414m.94921 5.92968l-.98046.74219m10.69921-1.76172l6.40625-2.8789m9.8047-2.0625l.61327 7.0039m15.98047-5.3711l-5.94531 3.7422m5.08203-3.19923l1.0625.60938m13.38672 2.07031l-6.48438-2.70703m6.48438 2.70703l.22656 2.44531m11.82031-6.70312l-3.94921 5.8125m3.94921-5.8125l2.4375.26172m10.90235-.2461l-3.9961 5.77735m3.9961-5.77735l2.4375.28125m9.47656-.85546l-1.19922 6.92578m1.19922-6.92578l2.33203-.76563m-2.5039 1.77344l1.16406-.38281m12.80078-.50782l-2.15234 6.69141m2.15234-6.6914l2.41406-.4336m11.13281.51953l-2.61718 6.51953m2.61718-6.51953l2.44141-.26172m10.35938.09766l-1.58985 6.84765m1.58985-6.84765l2.37109-.6289m10.46094.55468l-.6211 6.9961m.6211-6.9961l2.26172-.95703m10.36328.96094l.75781 6.98828m-.64844-5.96875l1.01563-.6914m15.10547 5.59765l-5.07422-4.86328m4.33593 4.15625l-.33203 1.17968"/><g clip-path="url(#M)"><path fill="none" stroke="#000" stroke-linecap="round" stroke-linejoin="round" stroke-miterlimit="10" stroke-width=".5" d="M145.95703 370.89063l-3.91406 5.83593"/></g><path fill="none" stroke="#000" stroke-linecap="round" stroke-linejoin="round" stroke-miterlimit="10" stroke-width=".5" d="M145.95703 370.89063l2.4414.25m10.33204-.54688l-2.83203 6.42969m2.83203-6.42969l2.44531-.1836m11.17188.33204l-3.4336 6.13281m3.4336-6.13281l2.45312.05469m-2.95312.83984l1.22656.02344m13.69922.0664l-5.65625 4.16406m5.65625-4.16406l2.21484 1.0625m-3.03516-.45703l1.10547.53125m13.02735-1.14453l-5.65235 4.17969m5.65235-4.17969l2.21484 1.0586m-3.03906-.44923l1.10937.52735m12.13282-1.98438l-3.85938 5.875m3.85938-5.875l2.4453.23047m10.08595-.61328l-2.28907 6.64063m2.28907-6.64063l2.42578-.38281m-2.75781 1.34765l1.21093-.1914m9.0664 5.26562l4.44923-5.4375m-4.44922 5.4375l-2.40625-.48046m15.49219.27734l4.90625-5.03125m-4.90625 5.03125l-2.35547-.6914m3.07031-.04298l-1.17969-.34375m13.58203.8672l5.3047-4.60938m-5.3047 4.60937l-2.29297-.88281m3.0625.21094L260.8086 375m14.75391 1.9414l3.17578-6.26952m-2.71094 5.35937l-1.22656.02344m16.6875-2.2461l-.01953-.19921-.0586-.19141-.09374-.17578-.46094-.3789-.1914-.0586-.19923-.01953-.19921.01953-.19141.0586-.45703.3789-.09766.17578-.05469.1914-.01953.19922.01953.19922.0547.1914.09765.17579.45703.3789.1914.0586.19922.01953.19922-.01953.1914-.0586.46095-.3789.09375-.17578.05859-.1914.01953-.19923m15.33985-1.75l-6.09375 3.4961m19.16796.36719l-5.61328-4.22657m4.79688 3.60938l-.1914 1.21484m14.52343-.89062l-6.01172-3.64063m6.01172 3.64063l-.13672 2.44921m13.95703-4.3125l-7.02734.08594m6.00781-.07422l.58594 1.07813m12.20312-3.96094l-3.9336 5.82422m3.9336-5.82422l2.4414.25781m10.75-.33593l-3.68358 5.98437m3.68359-5.98437l2.44531.15234m11.16016.04688l-4.26563 5.58593m4.26563-5.58594l2.41797.39844m10.7578-.5l-3.98827 5.78906m3.98828-5.78906l2.4375.28125m10.22266-.63672l-2.6797 6.5m2.6797-6.5l2.4414-.23828m10.72266.1836l-2.3789 6.60937m2.3789-6.60937l2.42969-.35157m10.98437.38672l-2.57422 6.53906m2.57422-6.53906l2.4375-.27734m11.33203.4961l-3.48437 6.10156m17.05468-.16016l-3.99218-5.78125m3.99218 5.78125l-1.1289 2.17969m.54687-3.01954l-.5664 1.08985"/><g clip-path="url(#N)"><path fill="none" stroke="#000" stroke-linecap="round" stroke-linejoin="round" stroke-miterlimit="10" stroke-width=".5" d="M145.61719 357.3711l-3.23438 6.24218"/></g><path fill="none" stroke="#000" stroke-linecap="round" stroke-linejoin="round" stroke-miterlimit="10" stroke-width=".5" d="M145.61719 357.3711l2.45312-.02344m9.98438-.28907l-1.47656 6.8711m1.47656-6.8711l2.35937-.67187m11.0039.6836l-1.57421 6.84765m1.57422-6.84766l2.3711-.63672m11.10937.67579l-1.90625 6.76562m1.90625-6.76563l2.39844-.51953m11.39062.69532l-2.85547 6.41796m2.85547-6.41796l2.44922-.17188m11.14453.3086l-3.41016 6.14453m3.41016-6.14454l2.45313.04297m10.99609.03516l-3.67969 5.98438m3.14453-5.11329l1.22266.07813m14.26562 1.54297l-6.95703 1.0039m6.95703-1.0039l1.44922 1.97656m7.51563 1.92969l1.74219-6.8086m-1.7422 6.8086l-2.3828.57812m14.46484-1.17187l4.21094-5.625m-4.21094 5.625l-2.42578-.375m16.75.90234l2.1914-6.67578m-1.875 5.70313l-1.20703.21093m18.3789-.8789l-6.15234-3.39454m6.15235 3.39454l-.03906 2.45312m13.70312-3.3789l-6.85156-1.54688m6.85156 1.54688l.64844 2.36718m12.6289-2.21484l-6.77734-1.85156m6.77734 1.85156l.53907 2.39453M319.5 361.14844l.26953 1.19922m13.9961-.8125l-6.71094-2.08204m5.73437 1.77735l.23047 1.20703m13.25781-4.35938l-5.10156 4.83204m4.35938-4.12891l1.16406.39063m12.34765-1.5625l-4.01171 5.76562m3.42968-4.92578l1.21875.14453m11.48047-1.51953l-1.61719 6.83984m1.38282-5.84375l1.1875-.3125m13.78906.02344l-4.46875 5.42188m4.46875-5.42188l2.40234.48828m11.44141.05469l-5.52734 4.33594m5.52734-4.33594l2.2461.9961m10.73827-1.36329l-4.86328 5.07031m4.86328-5.0703l2.35938.66796m-3.0664.07031l1.17968.33594m12.85156-1.0625l-4.8828 5.05078m4.8828-5.05078l2.35938.67578m11.375-.1875l-5.72266 4.07422m5.72266-4.07422l2.19531 1.09766m11.70313.2539l-6.89063 1.3711m5.89063-1.17188l.77343.94922m11.42578 2.78906l-2.66015-6.5039m2.66015 6.5039l-1.5664 1.88672"/><g clip-path="url(#O)"><path fill="none" stroke="#000" stroke-linecap="round" stroke-linejoin="round" stroke-miterlimit="10" stroke-width=".5" d="M145.96875 344.26953l-3.9375 5.8164"/></g><path fill="none" stroke="#000" stroke-linecap="round" stroke-linejoin="round" stroke-miterlimit="10" stroke-width=".5" d="M145.96875 344.26953l2.4414.26172m11.13282-.07031l-4.45703 5.4336m4.45703-5.4336l2.40625.48437m9.98437-1.03125l-2.60547 6.52735m2.60547-6.52735l2.4375-.26562m9.5586.01562l.03125 7.02735m-.02735-6.00391l1.08203-.58203m10.6836-.07422l3.1211 6.29297m-2.66798-5.3789l.71485-.9961m12.70703-.14063l2.0039 6.73829m-1.71484-5.75782l.875-.85937m12.42188-.1875l1.46093 6.8711m-1.25-5.8711l.94141-.78906m15.11328.5039l-4.4414 5.4414m3.79687-4.64843l1.20313.23828m13.46093-.25781l-5.84765 3.89844m4.99609-3.33204l1.07813.58204m12.83203 3.08593l-5.33594-4.57421m4.5586 3.91015l-.26563 1.19531m13.72656.04297l-4.07422-5.72265m4.07422 5.72265l-1.09375 2.19531m.5039-3.02734l-.55077 1.09766m14.91406-.65625l-4.99219-4.9414m4.99219 4.9414L292.2578 352m-.02344-3.07031l-.35156 1.17578m15.3711-2.39844l-6.94532-1.0586m6.94532 1.0586l.8125 2.3164m-1.82422-2.46874l.40625 1.15625m13.88281-2.26172l-6.8711 1.45703m6.8711-1.45703l1.57813 1.8789m-2.57813-1.66796l.78906.9414m13.3711-1.6836l-6.5586 2.51954m6.5586-2.51953l1.85156 1.60547m7.70312-3.82813l.95704 6.96485m-.81641-5.94922l.9961-.71875m12.60937-.32813l.09765 7.02735m16.75391-3.9375l-6.97656.84765m5.96094-.72265l.70312 1.0039m13.45313-1.875l-6.625 2.33985m6.625-2.33985l1.80859 1.66016m11.42578-1.8711l-6.46484 2.76172m6.46484-2.76171l1.91016 1.53906m11.20703-1.92969l-6.0664 3.54688m6.0664-3.54688l2.08594 1.28906m-2.96875-.77344l1.04296.64454m13.14454-1.17579l-6.05079 3.57422m6.05079-3.57421l2.09375 1.28125m-2.97266-.76172l1.04687.64062m13.41797-.59375l-6.58984 2.4414m6.58984-2.4414l1.83203 1.63281m11.51563-1.53515l-6.65625 2.2461m6.65625-2.2461l1.78515 1.6836m11.71485-.53126l-7.02735-.0586"/><g clip-path="url(#P)"><path fill="none" stroke="#000" stroke-linecap="round" stroke-linejoin="round" stroke-miterlimit="10" stroke-width=".5" d="M467.07422 347.20703l1.13281 2.17578"/></g><g clip-path="url(#Q)"><path fill="none" stroke="#000" stroke-linecap="round" stroke-linejoin="round" stroke-miterlimit="10" stroke-width=".5" d="M146.30469 331.21094l-4.60938 5.30469"/></g><path fill="none" stroke="#000" stroke-linecap="round" stroke-linejoin="round" stroke-miterlimit="10" stroke-width=".5" d="M146.30469 331.21094l2.39062.55078m10.29688-.98828l-3.35156 6.17578m3.35156-6.17578l2.45312.02344m11.57422.48828l-4.77734 5.15625m4.77734-5.15625l2.3711.6289m11.53906.09766l-5.96875 3.70312m5.96875-3.70312l2.1211 1.23437m10.875-1.67578l-5.32813 4.58203m5.32812-4.58203l2.28516.89453m8.625-2.10546l-.51953 7.0078m.51953-7.0078l2.2461-.98829m11.98827 1.1836l-2.35937 6.61719m2.01562-5.65625l1.21094-.1797m8.6914 4.91407l5.15235-4.77734m-4.40234 4.08593l-1.16016-.40625m19.78906-.85937l-6.97265-.85938m6.97265.85938l.8789 2.29297m11.14454.01953l-4.39063-5.48438m4.39063 5.48438l-.97266 2.2539m.33203-3.05078l-.97265 2.25391m15.35547-1.86328l-5.2461-4.67188m5.2461 4.67188l-.57813 2.38281m-.1836-3.0625l-.58202 2.38281m-.1836-3.0625l-.57812 2.38282m15.83984-1.59766l-6.08203-3.52344m6.08203 3.52344l-.08984 2.44922m-.79688-2.96094l-.08984 2.44922m14.76172-3.69922h-7.02735m7.02735 0l1.15234 2.16797m-2.17187-2.16797l.57422 1.08203m13.53906-2.3125l-6.58203 2.46094m6.58203-2.46094l1.83984 1.625m-2.79687-1.26953l1.83593 1.625m12.48829-1.82812l-6.6875 2.15625m6.6875-2.15625l1.76171 1.70703m11.5586-1.69531l-6.69531 2.1328m5.72265-1.82421l.875.85937m6.55078-.16796l7.02735.1328m6.61718-1.55077l6.3711 2.96484m13.64062-1.42188l-7.02343-.12109m6 .10547L386.71875 335m13.73047-1.72266l-6.92578 1.17188m5.91797-1l.75.97265m13.51171-1.4375l-6.80468 1.75782m6.80468-1.75781l1.65625 1.8125m11.6797-1.72657l-6.84766 1.58594m6.84765-1.58594l1.60938 1.85156m-2.60547-1.62109l.80469.92578m13.45703-1.35156l-6.7461 1.97656m6.7461-1.97656l1.71484 1.7539m-2.69922-1.46484l.85938.875m13.39453-1.3086l-6.65235 2.26563m6.65235-2.26562l1.78515 1.67969m-2.7539-1.35157l.89453.83985m13.3789-1.19531l-6.6328 2.3203"/><g clip-path="url(#R)"><path fill="none" stroke="#000" stroke-linecap="round" stroke-linejoin="round" stroke-miterlimit="10" stroke-width=".5" d="M466.8789 332.70313l1.80079 1.66015"/></g><g clip-path="url(#S)"><path fill="none" stroke="#000" stroke-linecap="round" stroke-linejoin="round" stroke-miterlimit="10" stroke-width=".5" d="M146.10547 317.73438l-4.21094 5.625"/></g><path fill="none" stroke="#000" stroke-linecap="round" stroke-linejoin="round" stroke-miterlimit="10" stroke-width=".5" d="M146.10547 317.73438l2.42578.375m10.41797-.67188l-3.26563 6.22266m3.26563-6.22266l2.45312-.01563m-2.92968.92188l1.22656-.00781m13.44922-.23828l-5.03906 4.89843m5.03906-4.89843l2.33594.75m11.20312-.4961l-5.48438 4.39063m4.6875-3.75l1.125.48437m12.66016-1.48047l-4.82812 5.10547m4.82812-5.10547l2.36328.64844m10.85156-.74219l-4.6289 5.28907m4.6289-5.28907l2.38672.5625m10.20313-1.05078l-3.17969 6.26563m2.71484-5.35547l1.22657-.02344m12.19531 5.53516l-2.46484-6.57813m2.10937 5.6211l-.8125.92187m15.76563-.79687l-5.02735-4.91016m5.02735 4.91016l-.69141 2.35546m-.04297-3.0703l-.34375 1.17577m14.36719-.4375l-4.97656-4.96093m4.97656 4.96093l-.71485 2.34766m-.0078-3.0664l-.71485 2.34765m15.0039-1.91016l-5.48046-4.39843m5.48047 4.39843l-.45704 2.41016m-.33984-3.05078l-.45703 2.41015m15.08203-2.63671l-6.5039-2.66016m6.5039 2.66016l.2461 2.4414m-1.19532-2.82812l.125 1.21875m14.30469-2.98438l-6.83594 1.64063m6.83594-1.64063l1.625 1.83985m-2.6211-1.60157l.8125.92188m13.1836-1.98828l-6.20703 3.30078m6.20703-3.30078l2.03125 1.3711m11.41406-1.09767l-6.46484 2.75391m6.46484-2.7539l1.90625 1.53906m-2.84765-1.14063l.95312.77344m13.08594-1.59766l-6.03125 3.60547m6.03125-3.60547l2.10156 1.26954m-2.98047-.7461l1.05078.63672m12.15235-2.23047l-4.05079 5.74219m3.46094-4.90625l1.21875.15625m8.17578-.60547l4.96875 4.96875m-4.24609-4.2461l.35938-1.17187m16.28125-.21094l-3.12891 6.29297m11.80078-4.83594l6.16016 3.37891m-5.26563-2.88672l.01563-1.22656m13.17968 5.07422l4.61329-5.30078m13.65625 4.95703l-5.29688-4.61328m18.08203-.4961l-4.23828 5.60547m3.6211-4.78906l1.21093.1914m14.0586 1.16016l-6.91407 1.26953m6.91406-1.26953l1.52344 1.92188m11.54297-2.71875l-6.41797 2.85937"/><g clip-path="url(#T)"><path fill="none" stroke="#000" stroke-linecap="round" stroke-linejoin="round" stroke-miterlimit="10" stroke-width=".5" d="M466.76953 319.11719l1.9336 1.51172"/></g><path fill="none" stroke="#000" stroke-linecap="round" stroke-linejoin="round" stroke-miterlimit="10" stroke-width=".5" d="M465.83594 319.53516l.96875.7539"/><path fill="#00f" fill-rule="evenodd" d="M388.23828 472.08594h8.61719V461.9414h-8.61719v10.14453"/><path fill="azure" fill-rule="evenodd" d="M390.07031 463.77344h.83594v2.82422h3.28516v-2.82422h.83203v6.48047h-.83203v-2.91797h-3.28516v2.91797h-.83594v-6.48047"/><path fill="#ff3030" fill-rule="evenodd" d="M193.64453 449.89453h7.69531V439.75h-7.6953v10.14453"/><path fill="azure" fill-rule="evenodd" d="M195.47656 441.58203h.83594v5.73828h3.1914v.74219h-4.02734v-6.48047"/><path fill="#ff3030" fill-rule="evenodd" d="M353.42578 436.57813h7.6914v-10.14454h-7.6914v10.14454"/><path fill="azure" fill-rule="evenodd" d="M355.25781 428.26563h.83594v5.74218h3.1914v.73828h-4.02734v-6.48046"/><path fill="#00f" fill-rule="evenodd" d="M383.80078 432.14063h8.61719v-10.14454h-8.61719v10.14454"/><path fill="azure" fill-rule="evenodd" d="M385.63281 423.82813h.83203v2.82421h3.28907v-2.82421h.83203v6.48046h-.83203v-2.91796h-3.28907v2.91796h-.83203v-6.48046"/><path fill="#00f" fill-rule="evenodd" d="M219.58203 409.94922h8.61719v-10.14453h-8.61719v10.14453"/><path fill="azure" fill-rule="evenodd" d="M221.41406 401.63672h.83203v2.82422h3.28907v-2.82422h.83203v6.48047h-.83203v-2.91797h-3.28907v2.91797h-.83203v-6.48047"/><path fill="#ff3030" fill-rule="evenodd" d="M291.28906 401.07422h7.6914v-10.14844h-7.6914v10.14844"/><path fill="azure" fill-rule="evenodd" d="M293.1211 392.76172h.83593V398.5h3.1914v.73828h-4.02734v-6.47656"/><path fill="#00f" fill-rule="evenodd" d="M370.48438 396.63281h8.62109v-10.14453h-8.6211v10.14453"/><path fill="azure" fill-rule="evenodd" d="M372.3164 388.32031h.83594v2.82422h3.28516v-2.82422h.83203v6.48047h-.83203v-2.91406h-3.28516v2.91406h-.83593v-6.48047"/><path fill="#ff3030" fill-rule="evenodd" d="M264.66016 352.25h7.6914v-10.14453h-7.6914V352.25"/><path fill="azure" fill-rule="evenodd" d="M266.49219 343.9375h.83203v5.73828h3.19531v.74219h-4.02734v-6.48047"/><path fill="#ffffe0" fill-rule="evenodd" d="M315.11328 343.82031h22.17969v-10.1914h-22.17969v10.1914"/><path fill-rule="evenodd" d="M318.61328 335.46094h.50781v6.29297h-.78515v-4.48829h-1.39063v-.55468l.5625-.0664.25-.0547.23047-.08984.20313-.14063.17578-.20703.14062-.29687.10547-.39453m4.8125 0l.23047.01953.21875.05469.20703.08984.19922.1211.1836.14843.17187.17578.30078.42188.24219.49219.17969.54687.11328.57813.03515.58984-.03515.59375-.11329.58594-.17968.55468-.24219.5-.30078.4297-.17188.17968-.18359.15234-.19922.125-.20703.08985-.21875.05859-.23047.01953-.22656-.01953-.21875-.0586-.21094-.08984-.19531-.125-.1836-.15234-.17187-.17969-.30078-.42969-.2461-.5-.17968-.55468-.10938-.58594-.03906-.59375h.83203l.03125.5664.08203.50391.125.4414.16406.375.1875.30079.21094.22265.22266.13672.22656.04688.22656-.04688.22266-.13671.21094-.22266.1914-.30078.16407-.375.125-.4414.08203-.50392.02734-.5664-.02734-.5586-.08203-.5-.125-.4375-.16407-.36718-.1914-.28906-.21094-.21485-.22266-.13281-.22656-.04297-.22656.04297-.22266.13281-.21094.21485-.1875.28906-.16406.36719-.125.4375-.08203.5-.03125.55859h-.83203l.03906-.58985.10938-.57812.17969-.54688.24609-.49218.30078-.42188.17188-.17578.18359-.14844.19531-.12109.21094-.08984.21875-.0547.22656-.01952m5.09375 0h.50781v6.29297h-.78515v-4.48829h-1.39063v-.55468l.5586-.0664.2539-.0547.23047-.08984.20313-.14063.17187-.20703.14453-.29687.10547-.39453m2.82031 2.17578h.78907l.01953-.3164.0586-.28516.10155-.25391.13672-.21484.1836-.17579.22265-.1289.26563-.07813.3086-.02734.23827.01953.22266.0625.20312.10156.1797.14063.14843.17187.11328.20704.07031.23437.02735.26563-.02344.26953-.0664.22265-.10938.1914-.15625.17188-.19922.16407-.2461.16406-.63671.39062-.53516.3125-.4375.31641-.34766.32422-.26171.33594-.19141.35156-.125.36719-.07031.39453-.01954.41797h4.21094v-.73829h-3.33203l.08203-.28515.11328-.23828.14844-.19922.1875-.17969.23047-.17187.28125-.17579.71484-.41796.41797-.20313.34375-.23047.28125-.2539.21875-.26563.16406-.27734.11329-.28516.0625-.28515.01953-.28125-.04297-.38282-.11719-.34765-.1914-.3086-.25-.26172-.30079-.21484-.34765-.15625-.3789-.09766-.40626-.03515-.4375.03125-.39844.10156-.35156.16406-.30469.23438-.25.30469-.1875.375-.11328.4453-.04297.51954"/></g></defs><use xlink:href="#U"/></svg>