<svg xmlns="http://www.w3.org/2000/svg" role="img" xmlns:xlink="http://www.w3.org/1999/xlink" viewBox="142.45 309.95 326.84 171.84"><defs><clipPath id="a"><path d="M144 311.67188h1v168.65625h-1zm0 0"/></clipPath><clipPath id="b"><path d="M144 311.67188h324v168.65625H144zm0 0"/></clipPath><clipPath id="c"><path d="M302 479h3v1.32813h-3zm0 0"/></clipPath><clipPath id="d"><path d="M467 420h1v60.32813h-1zm0 0"/></clipPath><clipPath id="e"><path d="M467 311.67188h1V417h-1zm0 0"/></clipPath><clipPath id="f"><path d="M144 476h2v4.32813h-2zm0 0"/></clipPath><clipPath id="g"><path d="M154 478h7v2.32813h-7zm0 0"/></clipPath><clipPath id="h"><path d="M170 476h1v4.32813h-1zm0 0"/></clipPath><clipPath id="i"><path d="M183 476h2v4.32813h-2zm0 0"/></clipPath><clipPath id="j"><path d="M196 476h2v4.32813h-2zm0 0"/></clipPath><clipPath id="k"><path d="M209 476h3v4.32813h-3zm0 0"/></clipPath><clipPath id="l"><path d="M222 476h4v4.32813h-4zm0 0"/></clipPath><clipPath id="m"><path d="M236 476h2v4.32813h-2zm0 0"/></clipPath><clipPath id="n"><path d="M249 476h3v4.32813h-3zm0 0"/></clipPath><clipPath id="o"><path d="M262 476h3v4.32813h-3zm0 0"/></clipPath><clipPath id="p"><path d="M275 477h5v3.32813h-5zm0 0"/></clipPath><clipPath id="q"><path d="M289 476h3v4.32813h-3zm0 0"/></clipPath><clipPath id="r"><path d="M302 476h3v4.32813h-3zm0 0"/></clipPath><clipPath id="s"><path d="M316 476h2v4.32813h-2zm0 0"/></clipPath><clipPath id="t"><path d="M327 478h7v2.32813h-7zm0 0"/></clipPath><clipPath id="u"><path d="M340 478h8v2.32813h-8zm0 0"/></clipPath><clipPath id="v"><path d="M353 479h8v1.32813h-8zm0 0"/></clipPath><clipPath id="w"><path d="M366 479h9v1.32813h-9zm0 0"/></clipPath><clipPath id="x"><path d="M366 479h3v1.32813h-3zm0 0"/></clipPath><clipPath id="y"><path d="M379 479h9v1.32813h-9zm0 0"/></clipPath><clipPath id="z"><path d="M380 478h2v2.32813h-2zm0 0"/></clipPath><clipPath id="A"><path d="M393 479h8v1.32813h-8zm0 0"/></clipPath><clipPath id="B"><path d="M391 478h3v2.32813h-3zm0 0"/></clipPath><clipPath id="C"><path d="M406 479h9v1.32813h-9zm0 0"/></clipPath><clipPath id="D"><path d="M406 479h3v1.32813h-3zm0 0"/></clipPath><clipPath id="E"><path d="M422 476h3v4.32813h-3zm0 0"/></clipPath><clipPath id="F"><path d="M435 476h4v4.32813h-4zm0 0"/></clipPath><clipPath id="G"><path d="M448 476h4v4.32813h-4zm0 0"/></clipPath><clipPath id="H"><path d="M460 478h7v2.32813h-7zm0 0"/></clipPath><clipPath id="I"><path d="M144 466h4v2h-4zm0 0"/></clipPath><clipPath id="J"><path d="M144 453h4v2h-4zm0 0"/></clipPath><clipPath id="K"><path d="M144 438h4v4h-4zm0 0"/></clipPath><clipPath id="L"><path d="M144 424h4v6h-4zm0 0"/></clipPath><clipPath id="M"><path d="M144 411h3v6h-3zm0 0"/></clipPath><clipPath id="N"><path d="M144 397h3v7h-3zm0 0"/></clipPath><clipPath id="O"><path d="M144 384h3v7h-3zm0 0"/></clipPath><clipPath id="P"><path d="M466 387h2v3h-2zm0 0"/></clipPath><clipPath id="Q"><path d="M144 370h1v8h-1zm0 0"/></clipPath><clipPath id="R"><path d="M144 356h1v9h-1zm0 0"/></clipPath><clipPath id="S"><path d="M144 355h2v3h-2zm0 0"/></clipPath><clipPath id="T"><path d="M466 358h2v2h-2zm0 0"/></clipPath><clipPath id="U"><path d="M144 343h2v8h-2zm0 0"/></clipPath><clipPath id="V"><path d="M466 345h2v2h-2zm0 0"/></clipPath><clipPath id="W"><path d="M144 330h2v8h-2zm0 0"/></clipPath><clipPath id="X"><path d="M466 331h2v3h-2zm0 0"/></clipPath><clipPath id="Y"><path d="M465 332h3v2h-3zm0 0"/></clipPath><clipPath id="Z"><path d="M144 316h1v9h-1zm0 0"/></clipPath><clipPath id="aa"><path d="M466 318h2v3h-2zm0 0"/></clipPath><clipPath id="ab"><path d="M465 319h3v2h-3zm0 0"/></clipPath><g id="ac" clip-path="url(#clip1)"><path fill="#fff" fill-opacity="0" fill-rule="evenodd" d="M0 0h1000v1000H0zm0 0"/><path fill="#d3d3d3" fill-opacity="0" fill-rule="evenodd" d="M162.15234 355.86719l-.23437.29297.0586.23437.11718.17188.17578.23437.29297.34766.11328.0586.11719-.17188.0586-.23438.17577-.17578.46485-.17578h.69922l.23437.29297.28906.8164.0586.17579.17578.23046.35156.23438.69922.69922.17188.17578.23437.34765.23438.41016.28906.58203.41015.46485.23047.23437.23438.17578.11719.23047.17578.29297.17187 1.16406v.23438l.0586.28906.05859.11719.11719.11719.34765.41015.11719.17188.17578.17578.17578.23437.11719.17188.17188.35156.05859.23438.23437.40625.23438-.0586-.17578.17578-.0586.92969h-.58203l-.23437-.11328-.34766.11328-.11719.11719-.05859.29297-.0586.17578-.11718.17187-.46484.29297-.0586.23438-.0586.11328v.64453l.0586.17187v.41016l.0586.0586v.40624l.05859.40625.11719.17579.05859.05859.23047.64062-.0586.29297v.69922l-.05859.58203v.23438l-.0586.23047-.05468.35156v1.92187l.05469.1172h.42578l-.36719.11718-.02344.35156.89063 1.16797 1.74219.53906 1.33984.35938v.53906l.08984.8086.53516.71484 1.51953.26953.89063-.08594.08984 1.16406.53516.1797 1.16015-.1797 2.05469-.98437 1.16016-.36328 1.8789-.17578 1.69531-.1797-.17968.71876-1.51563.08594-1.25.08984-.80469.26953-1.07421.8086.26953.71875.53515.89843-.17968.625-.26563.8086.26563 1.07812.625.89844.80468.17969 1.25-.1797-.26562.72267.09766.5039.05468.29297v.17188l.0586.29296v.40625l.17578.1172.35156.11718h.40625l.29297-.17578.11328-.11719.0586-.11719.11718-.23047.0586-.17578.35156-.46484.23047-.17578.17578-.0586.17578.0586.0586.17578.11718.98828.05469.46875.0586.17188.11718.23437.17578.0586.8164.05859h.28907l.11719.23437.05859.40625.0586.35156v1.10547l.11718.29297.11719.34766.28906.69922.17578.35156.58203.7539.35157.17579.17187.0586.46875.23437.64063.46484.34765.23438.29297.17578.29297.05468.23047.0625.8164.34766.29297.17578.11328.17188.35157.35156.11719.17578.52343.64063v.28906l.0586.35156v.34766l.05859.35156.0586.28906.11718.0586.17188.05859h.17578l.58203.23437.17578.1172.17578.28905.17578.23438.11328.23437.29297.23047.11719.11719v.41016l.0586.05468.28906.23438.23437.11719.0586.11718.11718.17188.0586.11719.23047.23437.05859.17578.23437.0586.1172.05859-.1172.11328-.05859.11719v.11719l-.11719.29296-.11719.28907v.58203l.17579.11719.11718.05859.0586.11719.11719.11719.11328.05859.17578.34765.0586.35157.05858.40625v.17578l-.05859.17578-.11719.69922v.17187l.1172.17579.29296.29296h.40625l.17578.1172.11719.17187.11719.29296v.23438h-.52735l-.23047-.23438h-.23437l-.17578.0586-.0586.69922.0586.34765.11719.17579.17578.41015.11718.23047.28907.46875.17578.05469h.52344l.23437.0586.75781.64062.0586.29296v.23438l.05859.0586.23047.34765v.35156l-.11719.17188v.29297l.29297.28906.29297.17578.17187.0586.29297.17577.29297.1172.58203.40624.28906.23438.29297.17578.21875.16015.01563.01172.23047.17579.64062.52343.17578.23438.1172.17578.17577.17578.11328.17188v.64062l.1172.17578.46874.11719.58203.11719.23438.05859.23047.11328.29297.11719.11328.0586.58593.35156.28907.17187.17578.0625.17578.05469.17578.0586.69922.35155.28906.17579.23438.05468.28906.17578.23437.1172.64063.40624.29297.11719.17187.0586.23438.05859.41015.05859.23047.0586.23438.11718.0586.17188-.41017.17578.46875.0586.0586.29296.11328.23438.17578.05468.23438.0586.17578.05859.40625.11719.64062.23437.11719.17188.0586.23437v.17578l-.0586.1172-.0586.40624.23438.23438.11719.05859.34766.11719.64062.23047.17578.11718.28906.1172.17578.17577.23438.46485.58203 1.10546.17578.17579.34766.17578.17578.11719.35156.11718 1.04688.52344.23437.0586.46485.11327.29297.0586.46484.17578.75781.58203.23438.23438.34765.46484.17578.17578.28907.23438.8164.69921.29297.17579.28906.28906.29297.17578.29297.28906.69531.64063.17578.17578.29297.23437.28907.23438.46875.28906.64062.58203.34766.23438.23437.29297.34766.34765.35156.46485.9336.99218.34765.40625.11719.17579.23437.05859.11328.11719.64454.17578.23047.11328.23437.0586.29297.17577.23047.1172.9336.69921.40624.40625.23438.17578.40625.17578.23437.11719.8164.34766.34766.23437.23438.11719.29297.28906.23047.11719.7578.35156.35157.17188.23047.05859.29297.11719.23437.0586.8711.17577h.8164l.46875.23047.17188.0586.875.69921.46484.1172.29297.05858.17578.0586.23047.0586.46875.05859.34766.05859.35156.0586.40625.05859h.29297l.17187.0586v.23046l.17578.17578h.29297l.34766.0586.35156.05859.69922.11719h.64063l.46484-.23438.29297-.17578.17187-.11719.41016-.17187.28906-.17578.9336-.46485.46875-.29297.52343-.29296.46485-.17188.46484-.17578 1.05078-.46485.28906-.11718.41016-.11719.28906-.11719.52735-.17578 1.51562-.69922.58203-.34765.28907-.0586.29297-.0586.34765-.11718.875-.23047.35156-.11719h.11329l.23437-.05859.875-.23437.23438-.0586h.8125l.35156-.0586.8164-.11718.17188-.0586.35156-.05468.29297-.0586.23047-.05859.8164-.17578.17579-.0586h.34765l.23438-.05859.46484-.11718.75781-.17188.23438-.0586h.34765l.41016-.11718.28906-.0586 1.28516-.05859h.28906l.41016-.0586.23047-.05858h.17578l.875-.1172h.40625l.41015-.11718h.34766l.35156-.11328.8711-.0586h1.75l1.04687.28907.41016.11719.28906.11718.35156.11719.28907.11719 1.05078.17187.28906.0586h.29297l.29297.05859.17187.0586.41016.05859.17187.0586.1172.05858h.11718l.11719.0586.35156.0586h.11328l.41016.0664 1.92187.39453 1.92578.39453 1.51953.44922 1.69532.71875 2.14453.80469 1.60547-.71875 1.42968-.80469 1.16016-1.07813 1.25-.44921 3.03516-.71875 1.875-.35938 2.14453-1.34765 2.23437-1.25391 2.5-1.25781 1.69531-.44922 1.78516-.17969 1.16016-.26953.625.53906 1.33984-.26953.71485-.98828.98437-1.34375.44531-.17969.80469-.35937 1.875-.53907 1.78516-.44921 1.25-.26954 1.16015-.08984 1.69922-.08984 1.96094-.26954 1.25-.08984h.53906l.625-.08984h.89063l2.14453-.17969 2.41015-.17969 2.58985-.08984 1.69531.17969 1.60938.08984 1.42968.35938 1.16016.71875 1.875.98828 1.16015 1.52734.26563.71484.6289.08985.35548.89844.53515.53906.53516 1.52734 1.07422.35938h.53515l-.80469.53515.08985 1.70703.71484 2.69532.89063.80468.89453.98829.71484 1.2578 1.78516.53907 1.51953-.17969.35547 1.34375 1.60937-.80469.98047-.53906.26953.26953.31641-.21484.21875-.14453.80078.44922.44922-.35938h.35547l.53515-.26953.53907-.71875.53515-.26953.625-.98828 1.16016.44922.83984.3711 1.39454.61718 1.6953-.17969h1.60548l1.78515.08985.17969-1.70704.53516-1.34375.80468.26954.4922.84765.40233.40625-.08984.53906v.35938l.71485.44922.71093-.26953h1.42969l.35938.98828.4453 1.25781.71485 1.34375 1.25.6289 1.69531.62891.71485-.17969.17969-.53906.98046-.08984.44922.35937.08594 1.25782-.26563.6289-.53515.17969v.53906l.71484.98438.26563.53906.98437.98828.80078 1.07813-.26562.35937-.08985.89844-.625 2.33203-.35546 2.0664-.08985 1.79298-.17969.71875-.08984.53906v1.4375l-.98047 1.88281-.35937 1.70703-.53516.89844-.80469 1.16797-.26562.53906 2.05469 1.2539.08593.35938-.35546.53906-.08985-.17968v.80859l.08985 1.4375-.44532.71484-1.07422.09375-.26562.71485.53515.89844.8047.71875 1.16015.80859 1.33984.26953.44531.35938-.35546.44921-1.78907-.08984-1.25-.44922-.71484-.71875-.625-.08984-.17578 3.58984-.1875 1.3086h89.35937V311.70313h-55.26953v49.08203l.76172.125 3.28906.54296 2.02344 2.83594v2.7539l2.35156.33204 2.34766.33203h4.05078l-1.3789 4.16016-2.02344.70703-2.02344.70312-.54297.34375-2.59375 1.6172-.1875.11718-2.02344-2.07813-.73046-2.74218-2.67188-2.07813-1.375-3.5-.0664-.08203-1.95704-2.67188 2.75-1.41796v-49.08204H294.42187v91.41407l.1172.03125.1328.01172.07422.07421.10547.04688.08985.0586.08593.05859.08985.0586.29687.29687.0586.08984.03125.11719.02734.11719.01563.13671-.03125.1172-.0586.08983-.0586.08594-.04296.10547-.04688.10156-.02734.1211v.14453l.17578.26953.14844.14844.07422.08594.07422.07421.04296.10547.0625.08985.0586.08593.04297.10547.0586.08985.04687.10156.04296.10547.0586.08594.11719.17968.07421.07422.0625.08594.0586.08984.04297.10547.0586.08985.05858.08593.0625.08985.0586.08984.04297.10156.11719.17969.07421.07422.0586.08594.07422.07421.08984.0586.10547.04687h.14844l.1328-.01562.13282.01562.10156-.04687.07422-.07422.04688-.10156-.01563-.13281v-.14844l-.04687-.10547-.02735-.11719-.04687-.10156-.02735-.1211-.04296-.10156-.0625-.08984-.04297-.10156-.04297-.10547-.03125-.11719-.01563-.13281-.01171-.13672.08593-.0586.0586-.08593.12109-.03125.04297.10547.01562.1328v.1172l.0586.10156.0586.08984.08983.0586.14844.14843.0586.08985.04296.10547-.01171.10156.08593.0586.10547.04687.08594.0586.08984.05858.07422.07422-.11719.02735-.10546.04687-.08594.0586-.07422.07421-.0586.08985-.0625.08594-.02734.12109-.04687.10156-.04297.10547-.03125.11719-.01172.13281-.01563.13281v.14844l.02735.11719.04687.10547.04297.10156.0586.08984.07421.07422.08985.0586.07422.07421.08984.0586.0586.08984.04296.10547.04688.10156.11719.03125.1328.01563h.14845l.11718-.03125.10547.04297.04297.10547.04688.10156.02734.1211L299.5 410l.02734.11719.03125.1211.02735.11718.10547.04297.10156.04687.13281-.01562.14844.14844.0625.08593.07422.07422.07031.07422.08984.0625.10547.04297.10156.04297.1172.03125.13671.01562.11719-.03125.07422-.07422.02734-.11718-.01172-.13282-.03125-.12109-.02734-.11719.04297-.10547h.11719l.08984.0625.11719.02735h.14843l.13282.01562h.14843l.13282.01563.1328-.01563h.14845l.1328-.01562.13282-.01172.13672.01172.11719-.02735.13281-.01562.1914-.0586-.05859.17579-.01562.1328-.02735.1211-.01562.13281-.0586.08594-.1328.01563-.10548.04687-.10546.04297-.1172.03125-.11718.02735-.26563.03125h-.14843l-.13281.01562-.07422.07422.05859.08594.14844.14843.11719.1797.07421.0703.08985.0625.08984.0586.08594.0586.08984.05858.10156.04297.10547.0625.10547.04297.08594.0586.10547.04687.10156.04297.17969.11719.0586.08984-.04298.10156-.04687.10547.01562.13281.22266.22266.0586.08985.04296.10156.03125.1211.04297.10155.01563.13282.03125.11718.01171.13672.03125.11719.14844.14844.10156.04297.10547.04296.1172.03125.1328.01563.13672.01563h.11719l.11719-.03125.08984-.0586.04297-.10547.04688-.10156.04296-.10547.03125-.11719.01172-.1328v-.14845l-.01172-.1328-.01562-.13282-.03125-.11719-.04297-.10547-.04688-.10547-.04296-.10156-.04297-.10547-.01563-.13281.01563-.13281.02734-.11719.03125-.11719.02735-.1211.04687-.10155.08984-.0586.08594-.0625.07422-.07422.08984-.05859.22266-.22266.0586-.08593.07421-.07422.11719-.17969.0586-.08594v-.14844l-.07423-.07421-.10156-.04688-.10547-.04297-.10156-.04297-.0586-.08984-.04687-.10547-.02734-.11719.08984-.05859.11719-.03125.10156-.04297.17969-.11719.14844-.14843.01172-.13282-.01172-.10546-.08985-.0586-.1328.01563h-.14845l-.1328.01562-.13282-.01562-.1211-.03125-.08593-.0586-.07422-.07422-.0586-.08984-.0625-.08594-.11718-.17969-.0586-.08593.03125-.1211.08594-.05859.1211-.03125.05859-.08594v-.1211l-.03125-.11718-.0586-.08984-.05859-.08594-.04687-.10547-.02735-.11719-.01562-.1328.0586-.08985.07421-.07422.08984-.0586.1172-.17968.07421-.07422.0586-.08594.14843-.14844.1211-.03125.1328-.01562.13282.01562.07422.07422.04297.10547.01562.13281-.03125.1172-.11719.03124-.1328.01172-.14844.14844-.04297.10547-.04688.10156-.02734.1211-.03125.11718v.14844l.03125.11719.04297.10546.05859.08985.07422.07031.07422.07422.11719.03125.12109.02734.11719-.02734.1328-.01563h.1172l.08984.0586.07422.07422.04687.10546.0586.08594.10156.04688.13281.01562.10547.04297.08594.0586-.01172.10546-.07422.07422-.17969.11719-.05859.08984-.08984.0586-.07032.07422-.07421.07421-.0625.08985-.02735.11719-.01562.1328.01562.13282-.01562.13281v.14844l.01562.13281.02735.1172.03125.12108.07421.07422.08985.0586.08594.0586.08984.05858.11719.03125v.08594l-.10157.04688-.08984.0586-.26563.03124-.11718.02735h-.14844l-.10547.04296-.10156.04688-.0586.08984-.0625.23438-.01171.13281-.03125.1211-.01563.1328v.29298l-.01172.1328.01172.13673.01563.1328.1328.01563.13282.01172.1211.03125.08593.0586.07422.07421.04688.10547.04296.10157.01563.1328v.44532l-.01563.13281v.44532l.03125.26562.02735.11719.01562.13281.03125.11719.08594.21094.03125.26562v.14844l-.03125.11719-.02734.11718-.03125.1211-.02735.11719-.03125.11718-.03125.1211-.01171.1328-.01563.13282.08984.0586.1172-.03125.10155.01562.04688.10547-.03125.26562v.44141l-.04297.10547-.04688.10547-.04296.10156-.04297.10547-.0586.08594-.03125.12109-.04296.11719-.03125.11719-.01563.1328.01563.13282.05859.08984.10547.04688.08594.0586.05859.08593-.01172.13672-.03125.11719-.04297.10156v.44531l-.01562.13281v.14844l-.03125.11719-.04297.10547-.02735.11719-.04687.10546-.04297.10157-.03125.12109-.02734.11719-.03125.13281-.03125.11719-.02735.11719-.04297.10546-.03125.1172-.03125.12108-.01171.13282-.01563.13281v.29688l.02734.11718v.14844l.04688.39844.02734.11719.0586.08984.12109.03125h.14844l.13281-.01563.0586.08985v.11719l-.0586.08984-.08984.0586-.10157.04296-.10546.04688-.08985.05859-.08594.0586-.13671.01562-.1172-.03125-.1328-.01563-.10157.04688-.0625.08594-.01172.13671-.01562.13282-.03125.11719-.02735.11718-.01562.13281-.03125.1211v.29687l.01563.13282.03125.11718v.14844l.01171.13281v.14844l-.02734.11719-.04688.10156-.02734.1211-.03125.11718-.0586.08985-.07421.07421-.10156.04297-.10547.04688-.11719.02734-.1211.03125-.10156-.04687.0586-.08594.10547-.04688.02734-.11718.03125-.11719.02734-.1211.03125-.11718v-.14844l.01563-.13281-.03125-.11719-.04297-.10547-.10547.01563-.07422.07422-.10156.04296-.08984.0625-.07422.07422-.04297.10157-.01563.1328-.03125.1172L304.25 426l-.03125.11719-.02734.11719-.03125.12109-.02735.11719-.03125.11718-.04297.10547-.08984.0586h-.08984l-.1172-.03125-.03124-.08594.01562-.13672-.03125-.11719v-.14844l-.01171-.1328v-.14844l-.0625-.23438-.02735-.1211-.04297-.10156-.04687-.10546-.0586-.08594-.05859-.08985-.04297-.10546-.0625-.08594-.14844-.14844-.0703-.07422-.10548-.04687-.10547-.04297-.10156-.04297-.29687-.29688-.08985-.07421-.08594-.0586-.10546-.04297-.08985-.0625-.08594-.0586-.10546-.04296-.08985-.0586-.08594-.0625-.07421-.0703-.10547-.04688-.08594-.0586-.10547-.04296-.08984-.0625-.10156-.04297-.10547-.04297-.08594-.0586-.10547-.04687-.10547-.04297-.10156-.04687-.08985-.0586-.10156-.04297-.10547-.04296-.08984-.0625-.11719-.02735-.13281-.01562-.13281.01562H299.75l-.13281.01563-.11719-.03125-.08984-.0586-.07422-.07422-.08985-.05859-.10156-.04688h-.14844l-.12109-.02734-.10156-.04297-.07422-.07422-.11719-.17968-.08984-.0586-.10156-.04297-.08985-.0625-.10547-.04296-.08984-.0586-.08594-.0586-.10547-.04687-.0586-.08594-.05858-.08984-.04297-.10547-.04688-.10156-.07422-.07422-.08594-.0586-.07421-.07421-.08985-.0586-.22265-.22265-.04297-.10547-.03125-.26563.10547-.04296h.14453l.10547.04296.07421.07422.08985.0586.08594.0586.10546.04687.08985.05859.14844.14844.0703.07422.14845.14843.0625.08594.07421.07422.08594.0586.07422.07421.08985.0625.08984.0586.08594.05859.26953.17578.10156.04688.10547.04296.10156.04297.04688-.07421.05859-.08594.07422-.07422.07031-.07422.10547.04297.07422.07422.0586.08984.04296.10156.04688.10547.04296.10547.1211.02735.11719-.02735.07421-.08984.04297-.10547.0586-.08985.07422-.07421.10546-.04297.1172-.02735.1328.01172.08985.0586.14844.14843.05859.08985.04297.10547.04687.10156.04297.10547.04297.10156.10547.04688.10547.04296.13281.01563.08594-.0586.0586-.08984.07421-.07422.10547-.04297.11719.02735.10547.04687.10156.04297.10547.04297.10156.04688.17969.11718v.11719l-.01563.13281.01563.13281.01562.13672.0586.08594.10156.04688.1211.02734.11718.03125h.14844l.11719-.03125.05859-.08984.17969-.1172.05859-.08983.07422-.07422.0586-.08594.11718-.17969.17969-.11719.11719.03125.08984.0586.04297.07422-.01563.1328v.1172l.08985.05859h.14843l.13282-.01563.1328-.01171.26563-.03125.10547-.04297.11719-.03125.1211-.02735.07421-.07421.07031-.07422.0625-.08985-.01562-.10547-.04688-.10156-.10156-.04297-.10547-.01562-.11718.02734-.26563.03125h-.14844l-.07421-.07422-.08985-.0586-.11719-.03124-.11718-.02735-.13282-.01562h-.14843l-.13282.01563h-.29687l-.10547-.04688-.14844-.14844-.04297-.10156-.05859-.08984.22266-.22266.08593-.0586.10547-.04296.11719-.03125.13281-.01563.13281.01563.13672.01562.10157.04297.1328-.01172.08985-.0625.10156-.04297.0625-.08984-.04687-.10156-.08984-.0586-.1172-.03125-.10155-.04296-.0586-.08985-.0625-.08984v-.11719l.01563-.13281.10547-.04688.07421-.07031v-.1211l-.08984-.05859-.03125-.11719.08985-.05859.07421-.07422.04297-.10547.0586-.08984.04687-.10156.01563-.13281v-.14844l-.04688-.10547-.04297-.10156-.08984-.0586-.13281-.01562-.10157-.04297-.13671-.01563-.1172-.03125h-.4453l-.13282-.01562-.13281-.01172-.13281-.01563-.11719-.03125h-.14844l-.13281-.01562-.13281-.01172-.26563-.03125-.1211-.04297-.08593-.0586-.07422-.07421v-.14844l.01172-.13281.10547-.04688.10156-.04296.13281-.01563h.15235l.13281-.01562h.29297l.1211.03125.10156.04296.08984.0586.23438.0625.12109-.04688.08984-.05859.10156-.04297.13282-.01562.10547.04296.10156.04688.13281.01172.1211-.02735h.14453l.12109-.03125.11719-.02734.10547-.04687.07421-.07422.08594-.0586.14844-.14843.0586-.08594.04687-.10547.02734-.11719.01563-.10547-.10156-.04296-.08985-.0586-.11719-.03125-.10546-.04297-.08985-.0625-.07422-.08594-.07422-.07421-.10156-.04297-.10547-.04688-.10156-.04297-.0586-.08984-.04687-.10156-.08594-.21094-.0625-.08594-.05859-.08984-.07422-.07422-.08594-.0586h-.26953l-.11719.03126-.08984.05859-.10156.04297-.13281.01562-.10547-.01562-.02735-.11719-.0625-.08984-.11718-.03125-.10157-.04297-.14843-.14844-.03125-.11719-.01563-.10546.07422-.07422.17969-.1172.11719-.02733.11718-.03125.13672.01562.10156.04297.10547.04297.10156.04687.10547.04297.1172.03125.1328.01563.1172.02734.1328.01563.10547-.01563.08985-.0586-.07422-.07421-.10547-.04297-.07422-.07422-.07422-.08984-.14844-.14844-.08593-.0586-.08985-.05859-.07422-.07422-.08984-.0586-.10156-.04687-.1211-.02734-.10156-.04688-.10547-.04296-.11719-.03125-.10156-.04297-.1211-.03125h-.14843l-.11719.03125-.10546.04297-.08594.0625-.17969.11718-.08594.0586-.08984.0586-.10547.04687-.08594.05859-.10547.04297-.10156.04297-.10547.04687-.07422.07422-.05859.08985-.0586.08593-.04687.10547-.0586.08594-.07421.07422-.13281-.01172-.1172-.03125h-.11718l-.07422.07422-.08984.0586-.07422.07421-.08984.0586-.08594.05859-.10547.04687-.10156.04297-.13672.01563-.10156-.04297-.14844-.14844-.10547-.04688h-.08594l-.10547.04688-.10156.04297-.1211.03125-.11718-.03125-.07422-.07422v-.11719l.03125-.1211.07422-.0703.0586-.08985.07421-.07422.11719-.03125.10547-.04296h.29297l.13281-.01563.13672-.01563.10156-.04296.08985-.0586.10156-.04687.08984-.0586.13281-.01171.08985.05859.13281.01172.08984-.0586.08594-.05859.10547-.04297.08984-.0586.08594-.0625.08985-.05859.14843-.14843.0586-.08594.05859-.08985.10547-.04296.13281-.01563.11719.02735.1211.03125.05859-.0586.05859-.08984.03125-.26563.02734-.11719.10547.01172.13281.01563.10157-.04297.08984-.0586.0586-.08984.07421-.07422.0586-.08984.04687-.10156.01172-.13281-.01172-.13282-.04687-.10547-.14844-.14843-.0586-.08985-.05859-.08594-.04297-.10546v-.44532l.01563-.1328v-.14845l.01172-.1328-.0586-.0586-.08984.0586-.10156-.04298-.17969-.11719-.08594-.05859-.0625-.08984-.0586-.08985-.07421-.07421-.08594-.0586-.1211.03125-.10155.01172-.10547.04688-.08594.05859-.10547.04297-.14844.14844-.08984.05859-.08594.0586-.08984.0625-.10547.04296-.13281.01563v-.1211l.10547-.04297.11718-.03125.07422-.0703.04297-.10548v-.14844l-.02734-.11718-.14844-.14844-.13281-.01563h-.14844l-.11719.03125-.10547.04297-.10156.04297-.08984.0625-.11719.02735-.07422-.07422.01172-.13281-.04297-.10157-.04297-.10547-.08984-.05859-.11719.02734-.1211.03125-.11718.03125-.10156.04297-.1211.03125-.10156.04297-.10547.04297-.08984.0586-.10156.01562v-.11719l.01562-.13281-.0586-.08985-.07421.04297-.14844.14844-.0586.08985-.07421.07421-.04688.10547-.04296.10156-.07422.07422-.0586.08985-.07422.07422-.05859.08593-.07422.07422-.08984.0625-.07422.07031-.07422.07422-.10156.01563-.13281.01562-.10547-.04296v-.1211l.14843-.14844.04297-.10156.0586-.08984.04687-.10156.04297-.10547.0586-.08985.03124-.11719.04297-.10156.03125-.1211.02735-.11718.04687-.10547.04297-.10156.04297-.10547.07422-.07031.08984-.0625.08985-.0586.10156-.04296h.29687l.26563-.03125.10547-.04297-.07422-.07422-.11719-.03125-.10547-.04297-.08984-.0586-.10156-.04687-.08985-.0586-.10156-.04296-.10547-.04297-.08984-.0625-.08594-.0586-.10547-.04296-.10156-.04297-.1211-.03125-.11718-.03125-.10157-.04297L297.5 410.25l-.10156-.04297-.08985-.0586-.04296-.10546-.01563-.13281.10156-.04297.13281-.01563.13672.01563.13282-.01563.10156-.04297.0586-.08984.01562-.10547-.08985-.0586-.07421-.07421-.10157-.04297-.08984-.0586-.14844-.14843-.04297-.10547-.01562-.13281v-.29297l-.0586-.08985-.08984-.05859-.07422-.07422-.04297-.10547-.03125-.11718-.0586-.08985-.07421-.07422-.11719-.02734-.07422-.07422-.08984-.0586-.08984-.0625-.08594-.05859-.07422-.07421-.0586-.08594-.04687-.10547-.08594-.0586-.14843-.14843-.19532-.0586-.1328.01563-.10157.04297-.07422.07422-.04688.10156-.04296.10547-.0586.08984-.0586.08594-.29687.29687-.08984.0586h-.08594l-.0625-.08594-.04297-.10547.03125-.11719.0586-.08984.02734-.11719-.01172-.13281-.08984-.0625-.10547.04688-.11719.02734-.11719.03125-.26953.17578-.10156.04688-.11719.02734-.10546.04687-.08985.0586-.10156.04297-.0586-.08594-.04687-.10547.01563-.13281.04687-.10547.07031-.07422.07422-.07031.0586-.08985v-.14843l-.04297-.10547h-.23829l-.10156.04687-.03125.11719-.02734.11719-.03125.1211-.07422.04296-.13281.01563-.07422-.04688-.04297-.10156-.04297-.10547-.04687-.10156-.04297-.10547-.1211.03125-.10156.04297-.13281.01562-.11719.03125-.10547.04297-.08984.0586-.10156.04687-.1211.02734-.13281.01563-.10156-.04297-.0586-.08985-.04687-.10546-.04297-.10157-.04297-.10546v-.1172l.0586-.08984.08593-.05859.17969-.11719.10156-.04687.10547-.04297.10547-.0586.10156-.04296.08985-.0625.10156-.04297.10547-.0586.10156-.04687.08984-.0586.10547-.04296.10156-.04297.08985-.0625.10156-.04297.13672-.01563.11719.03125.10156.04297.1211.03125.10156.04297.10546.04688.10157.04296.10547.04297.10156.04688.10547.04297.10156.04297.10547.04687.08594.0586.10546.04296.1172.03125.10546.04297.10156.04688.08985.0586.10547.04296.10156.04297.10547.04687.11719.02735.10156.04687.1211.02735h.14843l.08594-.0586.01562-.10156.0586-.08984-.02735-.1172-.07422-.07421-.11719-.17969-.07421-.07422-.08985-.07421-.17969-.1172-.08593-.05859-.10547-.04296-.10156-.04688-.26954-.17578-.05859-.08985-.07422-.07421-.0586-.08985-.04296-.10156-.03125-.11719-.01563-.13672v-.5625l-.01171-.1328-.01563-.13282-.03125-.11719-.01562-.13281-.01172-.13281-.03125-.1211-.22266-.22265-.0586-.08594-.01562-.10547.03125-.11719.13281-.01562v-91.41406H172.9922v1.45312l-.0586.23438-.35156 1.05078-.17187.52343-.1172.34766-.17577.41016-.11719.17187-.23438.29297-.23046.0586h-.35157l-.11718.05859-.23047.40625v.29297l.11719.17578.23046.23047.1172.23437.64062.75781.29297.46485.17578.23437.23047.35156.23437.34766.64063.8164.17578.46485.17187.41016.11719.69531.17578.46875.11719 1.39844.0586.46484v.875l.11718 1.04688v4.78125l-.0586.46484-.35156 1.28125-.17578.52344-.11328.41015-.35156.9297L172.93359 336l-.23437.58203-.11719.17578-.17187.34766-.17578.40625-.35157.8164-.0586.29297-.11327.29297-.11719.28906-.0586.17579-.11718.875-.0586.40625-.05859.11718-.0586.17579-.05859.17187-.23047.52734-.11718.17188v.23437l-.11719.23438-.0586.17187-.17577.58594v.28906l-.0586.17579v.29296l-.0586.11329-.05859.52734v.17187l-.05468.23438v2.6211l-.17578.8164-.1172.17578-.17577.23438-.1172.17187-.11327.23438-.58594.93359-.23047.28906-.29297.46485-.17578.23437-.28906.35156-.35156.69922-.11328.23047-.17579.41016-.17578.23046-.40625.52735-.8164.69922-.29297.17187-.28906.23438-.17579.11719-.17578.17578-.52344.40625-.52734.17578-.17187.17578-.23438.05469-.64062.17578h-.75782m12.21094 31.02344l-1.07422.44921.35938.89454 1.25-.71485.44531-.53906-.98047-.08985"/><path fill="#d3d3d3" fill-opacity="0" fill-rule="evenodd" d="M201.50781 416.59766h-.89453l.44922.6289.98047.35938.80469-.08985.4453-.98828-.17577.08985-.71485-.35547-.89453.35547m154.6211 59.0703l-.0586-.52343v-.29297l.11328-.29297.0586-.23046.46875-.46875h.11328l.11719-.11329.11718-.05859h.17579l.23437-.0586h.34766l.23437.0586.11719.0586.23047.17187.0586.17578.11718.58203v.29297l-.11719.17578-.17187.28906-.17579.17579-.52734.52343-.23047.23438-.11719.0586h-.17578l-.11718-.0586-.40625-.29297-.17579-.11719-.11718-.0586-.0586-.11327-.05468-.1172m6.64062-10.95702l-.0586-.17188v-1.10937l.0586-.17188.17578-.0586.17188-.05858h.17578l.23437-.0586.1172.0586.05858.69921-.05859.17188-.11719.17578-.11718.0586-.23438.52343-.11328.0586h-.23438l-.05859-.1172m9.61328-14.39062l-.11719-.17578v-.69922l.29297-.875.1172-.17187.17577-.35156.11328-.23047.1172-.29297.35155-.75781.1172-.23047.17187-.23438h.17578l.11719-.0586h.64062l.11719.0586.23437.23438.17188.11328.35156.29297.11719.11718.11328.17579v.11328l.11719.05859.11718.11719v.69922l-.05859.17578v.23047l-.0586.17578-.34765 1.05078-.11719.23047-.11719.23437-.11718.0586-.23047.23437-.64063.28906h-.875l-.41015-.11718-.64063-.46485"/><path fill="none" stroke="#bebebe" stroke-linecap="round" stroke-linejoin="round" stroke-miterlimit="10" stroke-width=".5" d="M467.95703 311.69531H144.02734v168.625h323.9297v-168.625"/><g clip-path="url(#a)"><path fill="#fff" fill-opacity="0" fill-rule="evenodd" d="M144 475.89063v4.4375h.0039H144V311.67188h.0039H144v164.21875"/></g><g clip-path="url(#b)"><path fill="#fff" fill-opacity="0" fill-rule="evenodd" d="M144.0039 480.32813V311.67188h57.69532v119.96875l-4.4375.07421-4.4414.0547-4.4375.66405-4.4375.4961-3.50782 3.01562-.92969 1.96875-4.4414 1.51953-2.71875.94922-1.71875.76953-2.33203 3.66797-2.10547 3.25781-.95313 1.1836-3.48437 3.71875-.40235.71875-1.28515 4.4375 1.6875 2.2461 4.4375 1.08984 2.75 1.10156 1.6875.69922 1.30078-.69922 3.13672-2.15235 4.4414-2.01562 1.30078-.26953 3.13672-.16797 4.4375-.1875 4.4375-.60938 4.4414-.48046 4.4375.55078 4.4375.09765 4.4375-1.17578 2.82423-2.46484 1.27344-4.4375.34375-1.40625 4.4375-1.9414 1.9375-1.09376-1.9375-3.24219-1.75-1.1953-2.6875-.78516-4.41797-3.65235-.02344-.02344-4.4375-3.58203-4.4375-.69921V311.67188h62.13672v87.08203l-1.83203 1.68359-2.60547 1.02734-4.4414.04297-4.4375-.92578-3.35157 4.29297-1.08594 2.01953-4.4375-1.01562-4.4375-.0625-4.4414.08984-4.4375-.59375-4.4375 1.11328-3.58985 2.89063-.84766.58203-3.89062 3.85547-.54688.84375-3.2578 3.59375.79687 4.4375 2.46094 2.41406 1.65625 2.02734 2.78125 2.77344 4.4375.59375 1.28125 1.07031-.5547 4.4375.38673 4.4375 3.32422 4.13672.28515.30078 1.78906 4.4414 2.16797 4.4375.19531.16798 3.42188 4.26953 1.01953 1.33594 1.21875 3.10156 3.21875 2.94922 4.4375-.52344 3.78906-2.42578-1.98437-4.4375-1.80469-2.39453-1.61719-2.04297-1.28125-4.4375-1.53906-2.82031-4.4375.1328-1.07812-1.7539 1.07812-.73828 4.4375.58203 4.4375-.60937 3.55469-3.67188.1914-4.4375.69141-2.34765 3.69531 2.34765.7422.78516 4.4414.85156 1.5625-1.63672 1.75781-4.4375 1.11719-1.66015 3.6875-2.77735-3.6875-3.03906-4.4375-.46484-.48438-.9375.48438-4.07813.79297-.35937 3.64453-.22657 4.4375-.52734 4.4375-.16406 1.23828.91797-1.23828 2.33593-1.91797 2.10157-1.8125 4.4414.83203 4.4375 2.89844 2.78516 4.4414-1.03125 1.98047 2.6836 2.45703 2.41015 4.4375.65625 4.4375-.8711v16.33594l-2.20703 3.66016 2.20703 2.03515 1.84375-2.03515-1.84375-3.66016v-16.33594l2.17188-2.1953 1.24219-4.4375.64843-4.4375-4.0625-4.12891-1.10156-.3125 1.10156-2.3711 2.44532-2.0664-2.25782-4.4375-.1875-.20313-1.7539-4.23437-2.6836-3.1172-4.4375-1.08202-1.23828-.24219-3.19922-1.8086-4.4414.57423-3.03516 1.23437-1.40234.5625-.57422-.5625-1.6836-4.4375-2.17968-1.6836v-87.08202h22.1914v79.66015l-.14062.23047.14062.17188.14454-.17188-.14454-.23047v-79.66015h13.31641v108.1289l-4.39063 2.82813 1.10547 4.4414 3.28516 3.05469 3.76953-3.05469-.60547-4.4414-3.16406-2.82813v-108.1289h17.7539v139.35546l-3.15624 2.67188-1.28516 2.1914-1.66406 2.2461 1.66406 1.6289 2.28516-1.6289 2.15625-1.25781 2.73046-3.1797-2.73046-2.67187V311.67188h31.0664v107.09765l-4.4375.49219-4.4375-.20703-3.84375 3.57422 3.84375 3.35937 1.16797 1.08203 3.26953 3.26563 2.4375 1.17187-1.80078 4.4375 3.80078 4.02735v14.80468l-4.4375 3.05079-.3125.30859-1.39062 4.4375 1.70312.64844 4.4375-.32422.32031-.32422 3.3047-4.4375-3.625-3.35938v-14.80468l.54296.41015 3.89453 3.60938 4.4414.14844 4.4375-.94922 4.4375-.92579 1.94923-1.8828 2.48828-2.34766 2.35547 2.34765 2.08203 3.57422.1289.86328-.1289.07422-4.11719 4.36719-.32031.86719-3.5586 3.5703-.8789 1.28126-4.25 3.15625 4.25 3.14062 4.4375.65235 2.48437.64453 1.95313 1.69531 4.4414.14453 1.09766 2.60156 1.22656 4.4375 2.11329 3.05079 4.4375.45703 4.4375-3.33594.13671-.17188 3.11329-4.4375 1.1875-.21093 4.4414-.23047 4.4375-.78125 4.4375.97656.1836.2461 3.70312 4.4375.55078.4375 4.4414.24218.7461-.67969 3.6914-3.64062 1.08204-.79688 3.35547-1.35156 2.63672-3.08984 1.76171-4.4375-4.39843-3.0664-4.4375-.26954-4.4375-.50781-2.625-.59375-1.8164-1.76172-1.12892-2.67578-3.30859-3.33203-2.33984-1.10938-2.09766-2.1211-2.45312 2.1211-1.98438.46875-4.4414-.35937-.4375-.10938-4-3.23828-.9922-1.19922-3.4453-3.35547-.88672-1.08203.88671-2.86719 3.21875-1.5703-3.21875-1.83204-1.70312 1.83203-2.73438.80078-3.91796-.80078-.51954-.53906-2.45312.53906-1.98828.0625-.50781-.0625-3.9297-2.01172-4.4375-.89843-.9375-1.52735-3.5-3.21484-1.16015-1.22656-3.27734-3.23047-4.4414.07812-4.4375-.70703V311.67188h88.76562v143.40625l-4.39844 3.05859 4.39844 2.83203 3.125-2.83203-3.125-3.0586V311.67188h8.8789v131.30079l-2.6914 1.84765-.20703 4.4414 2.89843 2.6797 1.10157 1.7578-.77344 4.4375-.2539 4.4375 4.36327 3.39845 4.19141-3.39844.2461-2.89063.40234-1.54687 1.26172-4.4375-1.66407-1.48438-2.49218-2.95312-1.35547-4.4414-.58985-.59766-4.4375-1.25V311.67187h22.1875v104.84375l-1.67578 1.67579 1.67578 1.86718v60.26954H304.88281l-1.10156-.91016-1.72656.91015H144.0039"/></g><path fill="#50fcfc" fill-rule="evenodd" d="M161.7539 460.38281l-1.6875-2.2461 1.28516-4.4375.40235-.71874 3.48437-3.71875.95313-1.1836 2.10547-3.2578 2.33203-3.66798 1.71875-.76953 2.71875-.94922 4.4414-1.51953.92969-1.96875 3.50781-3.01562 4.4375-.4961 4.4375-.66406 4.4414-.05469v1.45704l-4.4414.08593-4.4375 1.65235-3.70703 1.03515-.73047.9961-1.28906 3.4414-3.03516 4.4375-.11328.1289-4.4414 3.76563-.51953.54688-2.69922 4.4375 3.21875 2.20312 4.4414-.4375 4.4375.35547 4.4375-.73047 3.51563-1.39062.92187-1.09766 4.4414.61719.44532.48047 3.99219 1.74219 4.4375.41796 3.73437-2.16015.70313-.78516 2.30469-3.65234 1.125-4.4414-3.4297-4.41798-.01562-.01953-4.42187-4.33203-.16797-.10547-4.26953-2.6836-4.4375-.08983v-1.45704l4.4375-.07421 4.4375.69921 4.4375 3.58204.02344.02343 4.41797 3.65235 2.6875.78515 1.75 1.19531 1.9375 3.2422-1.9375 1.09374-4.4375 1.9414-.34375 1.40626-1.27344 4.4375-2.82422 2.46484-4.4375 1.17578-4.4375-.09765-4.4375-.55078-4.4414.48046-4.4375.60938-4.4375.1875-3.13673.16797-1.30078.26953-4.4414 2.01563-3.13672 2.15234-1.30078.69922-1.6875-.69922-2.75-1.10156-4.4375-1.08985"/><path fill="#00e8fc" fill-rule="evenodd" d="M175.0664 455.90234l-3.21874-2.20312 2.69922-4.4375.51953-.54688 4.4414-3.76562.11328-.1289 3.03516-4.4375 1.28906-3.44141.73047-.9961 3.70703-1.03515 4.4375-1.65235 4.4414-.08594v2.4297l-4.4414.14062-.4336.20312-4.0039 3.63281-.73828.8047-.42578 4.4375 1.16406.5703 4.4375.16407 4.4414 2.08203 2.41017 1.625 2.02734 2.13281 4.4375 1.6836 3.41406-3.81641 1.02344-2.375.57422-2.0664-.57422-.73438-2.7539-3.70313-1.6836-1.64844-4.4375-2.76171-.20313-.02735-4.23437-.34375v-2.42969l4.4375.08985 4.26953 2.6836.16797.10546 4.42187 4.33203.01563.01953 3.42969 4.41797-1.125 4.4414-2.3047 3.65235-.70312.78516-3.73437 2.16015-4.4375-.41796-3.99219-1.7422-.44531-.48046-4.4414-.61719-.92188 1.09766-3.51563 1.39062-4.4375.73047-4.4375-.35547-4.4414.4375"/><path fill="#00d4fc" fill-rule="evenodd" d="M188.38281 445.39063l-1.16406-.57032.42578-4.4375.73828-.80469 4.0039-3.6328.4336-.20313 4.4414-.14063 4.23438.34375.20313.02735v3.90625l-1.35156.5039-1.60157 4.4375 2.95313 1.76172 4.4375 1.21875 1.65625-2.98047-1.65625-2.45312-3.32031-1.98438-1.1172-.5039v-3.90625l4.4375 2.76171 1.6836 1.64844 2.7539 3.70313.57423.73437-.57422 2.0664-1.02344 2.375-3.41406 3.81642-4.4375-1.6836-2.02734-2.13281-2.41016-1.625-4.4414-2.08203-4.4375-.16406"/><path fill="#00c4fc" fill-rule="evenodd" d="M201.69922 446.58203l-2.95313-1.76172 1.60157-4.4375 1.35156-.5039 1.11719.5039 3.3203 1.98438 1.65626 2.45312-1.65625 2.98047-4.4375-1.21875"/><path fill="#50fcfc" fill-rule="evenodd" d="M212.55469 422.6289l-.79688-4.4375 3.25781-3.59374.54688-.84375 3.89063-3.85547.84765-.58203 3.58984-2.89063 4.4375-1.11328 4.4375.59375 4.44141-.08984 4.4375.0625 4.4375 1.01562 1.08594-2.01953 3.35156-4.29297v2.58985l-1.33203 1.70312-2.3164 4.4414-.78907.83594-1.07812-.83593-3.35938-1.8047-4.4375.05079-4.4414.44922-4.4375-1.77344-4.4375 3.01563-.07422.0625-4.36328 3L218 413.7539l1.45313 3.19921.24609 1.23829-.2461.34375-4.08203 4.09375 3.89844 4.4414.1836.17969 4.4375.83594 4.10546 3.42187-.53515 4.4375.86719 3.30078 4.4375.33204 1.66796.80468 2.77344 1.28906 4.4375 1.7461 4.4375-.7539 2.21094-2.28126.4414-4.4375.26954-4.4375 1.51562-.80469 3.83594.8047.60156.3203 4.4414 1.86329 1.28126-2.1836 1.71094-4.4375-2.9922-.51953-2.01562-3.92187.91406-4.4375 1.10157-1.60547 4.4375-.41797 4.4375.0039 4.4375-.77734 3.77344 2.79688.66796 2.74609 1.25 1.6914.76563 4.44141-1.21094 4.4375 3.63281 4.05078 1.66016.38672 2.77734.9336 2.41797-.9336 2.01953-1.02344 1.875-3.41406 1.4297-4.4375-3.3047-3.35937-3.84375-1.08203 1.09766-4.4375 1.66797-4.4375-3.35938-4.10157-.55859-.33593-3.8789-2.66407-4.4375-1.02734-4.44141 1.22656-3.41797 2.46485-1.01953.58203-.6211-.58203-3.8164-3.77735-1.53125-.66406-2.90625-1.26563-4.4414-.35156-4.4375-.08594v-2.58984l4.4375.92578 4.4414-.04297 2.60547-1.02734 1.83203-1.6836 2.17969 1.6836 1.68359 4.4375.57422.5625 1.40234-.5625 3.03516-1.23438 4.4414-.57421 3.19922 1.80859 1.23828.24219 4.4375 1.08203 2.6836 3.11719 1.7539 4.23437.1875.20313 2.25782 4.4375-2.44532 2.0664-1.10156 2.3711 1.10156.3125 4.0625 4.1289-.64843 4.4375-1.2422 4.4375-2.17187 2.19531-4.4375.8711-4.4375-.65625-2.45703-2.41016-1.98047-2.6836-4.4414 1.03126-2.89844-2.78516-.83203-4.4375 1.8125-4.4414 1.91797-2.10157 1.23828-2.33593-1.23828-.91797-4.4375.16406-4.4375.52734-3.64453.22657-.79297.35937-.48438 4.07813.48438.9375 4.4375.46484 3.6875 3.03906-3.6875 2.77735-1.11719 1.66015-1.75781 4.4375-1.5625 1.63672-4.4414-.85156-.7422-.78516-3.6953-2.34765-.69142 2.34765-.1914 4.4375-3.55469 3.67188-4.4375.60937-4.4375-.58203-1.07812.73828 1.07812 1.7539 4.4375-.1328v14.0625l-.55078 2.0703.55078.50782 2.27344-.50781-2.27344-2.07031v-14.0625l1.53906 2.8203 1.28125 4.4375 1.6172 2.04298 1.80468 2.39453 1.98437 4.4375L246.08203 465l-4.4375.52344-3.21875-2.94922-1.21875-3.10156-1.01953-1.33594-3.42188-4.26953-.1953-.16797-2.16798-4.4375-1.78906-4.4414-.28516-.30079-3.32421-4.13672-.38672-4.4375.55469-4.4375-1.28125-1.07031-4.4375-.59375-2.78125-2.77344-1.65625-2.02734-2.46094-2.41406"/><path fill="#00e8fc" fill-rule="evenodd" d="M219.26953 427.07031l-3.89844-4.4414 4.08203-4.09375.2461-.34375-.2461-1.23829L218 413.75392l1.45313-1.4375 4.36328-3 .07422-.0625 4.4375-3.01563 4.4375 1.77344 4.4414-.44922 4.4375-.05078 3.35938 1.80469 1.07812.83593v6.72266l-.60547 1.3164.60547 2.3086 1.61719-2.3086-1.61719-1.3164v-6.72266l.78906-.83593 2.31641-4.44141 1.33203-1.70313v9.72266l-.90625.85938.90625 1.14453.8125-1.14453-.8125-.85938v-9.72265l4.4375.08593 4.4414.35156v2.90235l-4.4414 1.60156-3.96484 1.20313 3.78906 4.4375-2.9414 4.4375-1.32032 1.73046-1.95703 2.70704-2.48047 2.39062-4.4375-.77734-3.94531-1.61328 3.94531-1.73438 2.26563-2.70312 1.96484-4.4375-4.23047-3.71875-4.4375-.29297-4.4414 1.32031-1.71875-1.7461-2.71875-1.53515-2.22657 1.53516-2.21094 3.80468-.90234.63282-1.48047 4.4375-2.05469 2.8203-1.61328 1.6172 1.61328 1.80078 4.4375.36719 1.4297 2.27343 3.0078 2.77735 2.01172 1.66015 2.42578 3.96875 4.44141-.05078 1.14453.51953 1.5039 4.4375 1.78907.95313 4.3086-.95313.1289-.1289.82813-4.3086-.82813-2.1211-1.23828-2.3164 1.23828-2.10937 4.4375-1.77735 1.4336-.55078 2.59375-4.4414.41015-.28125 1.45313-4.15625 2.98828-4.35547.60156-.08203 3.83594-3.33204 2.53515 3.33204 1.90235.30468 1.03125-.30468-1.03125-.48829-4.20703-3.94921-.23047-.22657-4.4375-2.57812v-2.90235l2.90625 1.26563 1.53125.66406 3.8164 3.77735.6211.58203 1.01953-.58203 3.41797-2.46485 4.4414-1.22656v2.10938l-2.85156 1.58203 1.95313 4.4375.89843.55468 4.21485 3.88282.22265.25.2461-.25 4.1914-2.13282v7.21875l-4.0625 3.79297-.375 1.8711-1.42187 2.5664 1.42187 1.58594 4.4375.35547 3.02344-1.9414 1.41406-.63673 2.03907-3.80078-2.03907-2.07422-4.4375-1.71875v-7.21875l1.51563-2.30468-1.51563-1.84766-4.27734-2.58984-.16016-.11329-4.4375-1.46875V405.625l4.4375 1.02734 3.87891 2.66407.5586.33593 3.35937 4.10157-1.66797 4.4375-1.09766 4.4375 3.84375 1.08203 3.3047 3.35937-1.4297 4.4375-1.875 3.41406-2.01953 1.02344-2.41797.9336-2.77734-.9336-1.66016-.38672-3.6328-4.05078 1.21093-4.4375-.76563-4.4414-1.25-1.69141-.66796-2.7461-3.77344-2.79687-4.4375.77735-4.4375-.00391-4.4375.41797-1.10156 1.60547-.91407 4.4375 2.01563 3.92187 2.99219.51953-1.71094 4.4375-1.28125 2.1836-4.4414-1.86329-.60157-.3203-3.83594-.8047-1.51562.8047-.26953 4.4375-.44141 4.4375-2.21094 2.28124-4.4375.7539-4.4375-1.74608-2.77344-1.28907-1.66797-.80469-4.4375-.33203-.86718-3.30078.53515-4.4375-4.10547-3.42187-4.4375-.83594-.18359-.17969"/><path fill="#00d4fc" fill-rule="evenodd" d="M219.45313 424.42969l-1.61329-1.80078 1.61328-1.6172 2.0547-2.8203 1.48046-4.4375.90234-.63282 2.21094-3.80468 2.22656-1.53516v5.74219l-1.09765.23047 1.09766.1875.23437-.1875-.23438-.23047v-5.74219l2.71875 1.53516 1.71875 1.74609 4.44141-1.32031v1.07422l-4.39062 2.9375-.05078.0625-4.4375 3.60546-4.4375-.45703-.57813 1.22657.57813 2.3164 2.125 2.1211 1.23437 4.4414 1.07813.9961 4.17187 3.4414.26563.4336 4.4414 1.79296 4.4375.89844.71484-3.125 1.8672-4.4375-2.58204-1.08984-4.4375-1.60156-2.1211-1.75 2.1211-1.44922 4.4375-2.15235.69922-.83593 1.11328-4.4375-1.8125-1.59375-4.4375-1.34375v-1.07422l4.4375.29297 4.23047 3.71875-1.96484 4.4375-2.26563 2.70312-3.94531 1.73438 3.94531 1.61328 4.4375.77734 2.48047-2.39062 1.95703-2.70704 1.32031-1.73046 2.94141-4.4375-3.78906-4.4375 3.96484-1.20313 4.4414-1.60156v2.53906l-.49609.26563.4961.42968.44531-.42968-.44531-.26563v-2.53906l4.4375 2.57812.23047.22657 4.20703 3.94921 1.03125.48829-1.03125.30468-1.90235-.30468-2.53515-3.33204L260 413.75392l-.60156.08203-2.98828 4.35547-1.45313 4.15625-.41016.28125-2.59375 4.4414-1.43359.55078-4.4375 1.77735-1.23828 2.10937 1.23828 2.3164.82813 2.1211-.82813 4.3086-.1289.1289-4.3086.95313-1.78906-.95313-1.5039-4.4375-1.14454-.51953-4.4414.05078-2.42579-3.96875-2.01172-1.66015-3.0078-2.77735-1.4297-2.27344-4.4375-.36718"/><path fill="#00c4fc" fill-rule="evenodd" d="M223.89063 420.50781l-.57813-2.3164.57813-1.22657 4.4375.45704 4.4375-3.60547.05078-.0625 4.39062-2.9375v1.07421l-2.78516 1.86329-1.65625 2.14453-2.59765 2.29297 2.59766 4.3125 4.4414-2.96485 2.64844-1.34765 1.22656-4.4375-3.875-1.86329v-1.07421l4.4375 1.34375 1.8125 1.59375-1.11328 4.4375-.69922.83593-4.4375 2.15235-2.1211 1.44922 2.1211 1.75v1.98046l-1.28516.71094.10547 4.4375 1.1797.53516 1.36718-.53516.80078-4.4375-2.16797-.71094v-1.98046l4.4375 1.60156 2.58203 1.08984-1.86719 4.4375-.71484 3.125-4.4375-.89844-4.4414-1.79296-.26563-.4336-4.17188-3.4414-1.07812-.9961-1.23438-4.4414-2.125-2.1211"/><path fill="#00e8fc" fill-rule="evenodd" d="M228.32813 413.52344l-1.09766.23047 1.09766.1875.23437-.1875-.23438-.23047"/><path fill="#00b8fc" fill-rule="evenodd" d="M232.76563 422.5039l-2.59766-4.3125 2.59766-2.29296 1.65625-2.14453 2.78515-1.86329v1.07422l-1.17969.78907-3.26172 4.22656-.23828.21094.23828.39453 1.59766-.39453 2.84375-.8711 1.64063-3.5664-1.64063-.78907v-1.07421l3.875 1.86328-1.22656 4.4375-2.64844 1.34765-4.4414 2.96485"/><path fill="#00a8fc" fill-rule="evenodd" d="M232.76563 418.58594l-.23829-.39453.23828-.21094 3.26172-4.22656 1.1797-.78907 1.64062.78907-1.64063 3.5664-2.84375.8711-1.59766.39453"/><path fill="#00b8fc" fill-rule="evenodd" d="M236.02734 431.50781l-.10547-4.4375 1.28516-.71094 2.16797.71094-.80078 4.4375-1.36719.53516-1.17969-.53516"/><path fill="#00e8fc" fill-rule="evenodd" d="M241.64453 463.08203l-.55078-.50781.55078-2.07031 2.27344 2.0703-2.27344.50782"/><path fill="#50fcfc" fill-rule="evenodd" d="M246.08203 416.875l-.60547 1.3164.60547 2.3086 1.61719-2.3086-1.61719-1.3164m4.4375-3.98047l-.90625.85938.90625 1.14453.8125-1.14453-.8125-.85938"/><path fill="#00c4fc" fill-rule="evenodd" d="M259.39844 409.7461l-.4961-.4297.4961-.26562.44531.26563-.44531.42968"/><path fill="#00d4fc" fill-rule="evenodd" d="M276.2539 413.7539l-1.95312-4.4375 2.85156-1.58202 4.4375 1.46875V412.25L280 413.7539l1.58984 1.50391 3.25391-1.5039-3.2539-1.50391v-3.04688l.16015.11329 4.27734 2.58984 1.51563 1.84766-1.51563 2.30468-4.1914 2.13282-.2461.25-.22265-.25-4.21485-3.88282-.89843-.55468"/><path fill="#00c4fc" fill-rule="evenodd" d="M281.58984 415.25781L280 413.75391l1.58984-1.50391 3.25391 1.5039-3.2539 1.50391"/><path fill="#00d4fc" fill-rule="evenodd" d="M281.58984 433.09375l-1.42187-1.58594 1.42187-2.5664.375-1.8711 4.0625-3.79297v.7422l-3.26562 3.05077 3.26562 4.01953 4.4375-2.57812.77344-1.4414-.77344-.78516-4.4375-2.26563v-.74219l4.4375 1.71875 2.03907 2.07422-2.03907 3.80078-1.41406.63672-3.02344 1.9414-4.4375-.35546"/><path fill="#00c4fc" fill-rule="evenodd" d="M286.02734 431.08984l-3.26562-4.01953 3.26562-3.05078v.7461l-2.46875 2.30468 2.46875 3.03906 3.94141-3.03906-3.9414-2.30469v-.74609l4.4375 2.26563.77343.78515-.77344 1.4414-4.4375 2.57813"/><path fill="#00b8fc" fill-rule="evenodd" d="M286.02734 430.10938l-2.46875-3.03907 2.46875-2.30469v.7422l-1.67187 1.5625 1.67187 2.05859 2.67188-2.0586-2.67188-1.5625v-.74219l3.94141 2.3047-3.9414 3.03906"/><path fill="#00a8fc" fill-rule="evenodd" d="M286.02734 429.1289l-1.67187-2.05859 1.67187-1.5625v.74219l-.875.82031.875 1.07813 1.39844-1.07813-1.39844-.82031v-.74219l2.67188 1.5625-2.67188 2.0586"/><path fill="#009800" fill-rule="evenodd" d="M286.02734 428.14844l-.875-1.07813.875-.82031v.7461l-.07812.07421.07812.09375.125-.09375-.125-.07422V426.25l1.39844.82031-1.39844 1.07813"/><path fill="#50fcfc" fill-rule="evenodd" d="M286.02734 391.73438l-.14062-.17188.14062-.23047.14454.23047-.14454.17188"/><path fill="#00ac00" fill-rule="evenodd" d="M286.02734 427.16406l-.07812-.09375.07812-.07422.125.07422-.125.09375"/><path fill="#50fcfc" fill-rule="evenodd" d="M290.46484 460.17188l-2.20703-2.03516 2.20703-3.66016 1.84375 3.66016-1.84375 2.03515m5.59375-33.10156l-1.10546-4.4414 4.39062-2.82813v2.77735l-.07813.05078-.875 4.4414.95313.88281 1.08984-.8828-1.03515-4.44141-.05469-.05079v-2.77734l3.16406 2.82813.60547 4.4414-3.76953 3.05469-3.28516-3.05469"/><path fill="#00e8fc" fill-rule="evenodd" d="M299.34375 427.95313l-.95313-.88282.875-4.4414.07813-.05079.05469.05079 1.03515 4.4414-1.08984.88281"/><g clip-path="url(#c)"><path fill="#50fcfc" fill-rule="evenodd" d="M302.05469 480.32813l1.72656-.91016 1.10156.91015h-2.82812"/></g><path fill="#50fcfc" fill-rule="evenodd" d="M312.65625 459.76563l-1.66406-1.62891 1.66406-2.2461 1.28516-2.1914 3.15625-2.67188 2.73046 2.67188-2.73046 3.17969-2.15625 1.2578-2.28516 1.62892m26.63281-33.77735l-3.84375-3.35937 3.84375-3.57422 4.4375.20703 4.4375-.49219v1.72656l-4.21875 2.13282-.21875.30859-.2539-.3086-4.1836-1.83984-1.98047 1.83985 1.98047 1.73046 2.92969 2.71094 1.50781 1.5039 4.4375 1.23048.49219 1.70312-.49219.58594-2.84765 3.85156 2.84765 3.01953 1.88672 1.41797 2.55078 2.36328 4.4414.3711 4.4375-2.38672.95704-.34766 3.48047-.59375 3.91406-3.84375-3.91406-4.1914-.97266-.2461-2.17578-4.4375-1.28906-1.1836-3.07422-3.2578-1.36328-1.34375-4.4414.18359-4.4375-.97266v-1.72656l4.4375.70703 4.4414-.07812 3.27734 3.23047 1.16016 1.22656 3.5 3.21484.9375 1.52735 4.4375.89843 3.92969 2.01172.5078.0625 1.98829-.0625 2.45313-.53906v.96875l-4.44141.70703-3.875 3.30078 3.875 3.875.21875.5625.8711 4.4375-1.08985.61719-3.60156 3.82422-.83594 2.2539-2.17578 2.1836L365.91797 457l-1.53125 1.13672 1.53125 1.13281 4.4375 1.41406 4.4375 1.3711 3.97656-3.91797-1.41797-4.4375 1.84766-4.4375.03515-.0664 1.44532.0664 2.99219.30469v2.76953l-2.23047 1.36328 2.23046.41406.83594-.41406-.83594-1.36328v-2.76953l2.53907 4.1328-2.53906 1.26173-3.90235 3.17578.08594 4.4375 2.25 4.4414 1.5664 2.94922 4.4375 1.26172 4.4375-3.99219.16016-.21875 4.27735-.7578 4.4414-.54298 4.4375-2.76562 1.875-.375 2.5625-.19531 1.44531.1953 2.52344 4.44142.46875.51953 4.4414.10156.625-.6211-.625-3.33593-.5039-1.10547.5039-.09766 4.4375-3.07812 4.35938-1.26172-4.35937-.80078-4.4375-1.8086-4.4414-.28515-1.3672-1.54297-1.98828-4.4375-1.08203-1.08985-4.4375-2.80078-4.4375 1.21094-4.4414-1.02344-3.05079-.73828-1.38671-1.1211-2.73829-3.3164-1.69921-1.65234-2.28516-2.78516-2.15235-2.20703-4.4375-1.80078v-.96875l.51954.53906 3.91796.80078 2.73438-.80078 1.70313-1.83203 3.21875 1.83203-3.21875 1.57031-.88672 2.8672.88671 1.08202 3.44532 3.35547.99219 1.19922 4 3.23828.4375.10938 4.4414.35937 1.98438-.46875 2.45312-2.1211 2.09766 2.1211 2.33984 1.10938 3.3086 3.33203 1.1289 2.67578 1.8164 1.76172 2.625.59375 4.4375.50781 4.4375.26953 4.39844 3.0664-1.76171 4.4375-2.63672 3.08985-3.35547 1.35156-1.08203.79688-3.6914 3.64063-.7461.67968-4.4414-.24219-.55079-.4375-3.70313-4.4375-.18359-.24609-4.4375-.97656-4.4375.78125-4.4414.23047-1.1875.21094-3.11329 4.4375-.13671.17187-4.4375 3.33594-4.4375-.45703-2.11329-3.05079-1.22656-4.4375-1.09765-2.60156-4.44141-.14453-1.95313-1.69531-2.48437-.64453-4.4375-.65235-4.25-3.14062 4.25-3.15625.8789-1.28125 3.5586-3.57031.32031-.8672 4.11719-4.36718.1289-.07422-.1289-.86328-2.08203-3.57422-2.35547-2.34765-2.48828 2.34765-1.94922 1.88281-4.4375.92579-4.4375.94921-4.4414-.14843-3.89454-3.60938-.54297-.41015-3.80078-4.02735 1.80078-4.4375-2.4375-1.17187-3.26953-3.26563-1.16797-1.08203"/><path fill="#00e8fc" fill-rule="evenodd" d="M339.28906 424.35938l-1.98047-1.73047 1.98047-1.83985 4.1836 1.83985.2539.30859.21875-.3086 4.21875-2.1328 4.4375.97265 4.4414-.1836v6.1875l-4.4414.20704-2.1289 3.82812-2.3086 2.73438-1.25781 1.70312 1.25781 1.33203 4.1289 3.10547.3086.28906 4.4414.73829 1.75782-1.02735 2.32813-4.4375-.45313-4.4375-3.63281-4.03515v-6.1875l1.36328 1.34375 3.07422 3.2578 1.28906 1.1836 2.17578 4.4375.97266.2461v2.09765l-3.23828 2.09375 3.23828 1.91797 1.95312-1.91797-1.95312-2.09375v-2.09765l3.91406 4.1914-3.91406 3.84375-3.48047.59375-.95703.34766-4.4375 2.38672-4.4414-.3711-2.55079-2.36328-1.88672-1.41797-2.84765-3.01953 2.84765-3.85156.49219-.58594-.49219-1.70312-4.4375-1.23047-1.50781-1.5039-2.92969-2.71094"/><path fill="#50fcfc" fill-rule="evenodd" d="M343.72656 463.22266l-1.70312-.64844 1.39062-4.4375.3125-.3086 4.4375-3.05078 3.625 3.35938-3.30469 4.4375-.3203.32422-4.4375.32422"/><path fill="#00d4fc" fill-rule="evenodd" d="M348.16406 437.27734l-1.25781-1.33203 1.25781-1.70312 2.3086-2.73438 2.1289-3.82812 4.4414-.20703v1.53125l-4.4414 1.92968-.3164.57422-3.53125 4.4375 3.84765 2.71875 4.4414 1.24219 3.14063-3.96094-.89062-4.4375-2.25-2.5039v-1.53125l3.63281 4.03515.45313 4.4375-2.32813 4.4375-1.75781 1.02735-4.4414-.73829-.3086-.28906-4.1289-3.10547"/><path fill="#00c4fc" fill-rule="evenodd" d="M352.60156 438.66406l-3.84765-2.71875 3.53125-4.4375.3164-.57422 4.4414-1.92968v1.53515l-1.92577.96875-2.51563 3.08594-1.01953 1.35156 1.01953.72266 4.4414 2.04687 2.19532-2.76953-1.32422-4.4375-.8711-.96875v-1.53515l2.25 2.5039.89063 4.4375-3.14062 3.96094-4.4414-1.24219"/><path fill="#00b8fc" fill-rule="evenodd" d="M352.60156 436.66797l-1.01953-.72266 1.01953-1.35156 2.51563-3.08594 1.92578-.96875v1.9336l-2.9961 3.47265 2.9961 1.57813 1.25-1.57813-1.25-3.47265v-1.9336l.8711.96875 1.32421 4.4375-2.19531 2.76953-4.4414-2.04687"/><path fill="#00a8fc" fill-rule="evenodd" d="M357.04297 437.52344l-2.9961-1.57813 2.9961-3.47265v2.625l-.73438.84765.73438.38672.30469-.38672-.3047-.84765v-2.625l1.25 3.47265-1.25 1.57813"/><path fill="#009800" fill-rule="evenodd" d="M357.04297 436.33203l-.73438-.38672.73438-.84765.30469.84765-.3047.38672"/><path fill="#00d4fc" fill-rule="evenodd" d="M365.91797 437.86328l-3.23828-1.91797 3.23828-2.09375 1.95312 2.09375-1.95312 1.91797"/><path fill="#00e8fc" fill-rule="evenodd" d="M365.91797 459.26953l-1.53125-1.13281L365.91797 457l2.26172-3.30078 2.17578-2.1836v3.06641l-1.1211 3.55469 1.1211.46484 4.4375 1.98828 2.49219-2.45312-2.4922-3.29688-4.4375-.2578v-3.06642l.83595-2.2539 3.60156-3.82422 1.08984-.61719-.8711-4.4375-.21874-.5625-3.875-3.875 3.875-3.30078 4.4414-.70703v.78125l-4.4414 1.71094-1.77735 1.51562 1.77735 1.77735 1.01562 2.66015 1.67188 4.4375-2.6875 1.52344-2.75 2.91797 2.75 3.75781 3.36328-3.75781 1.07813-2.15235 4.4375.39454 3.375 1.7578 1.0625 2.08985.96093 2.34766-.96094.34765-4.4375 2.32032-2.17187 1.76953.19531 4.4375 1.97656 3.08594 1.17188 1.35546 3.26563 2.39063 2.55468-2.39063 1.88281-.58203 4.4375-1.08593 4.44141-1.07032 2.4961-1.70312 1.9414-2.14063 4.4375.10938 3.72656-2.40625-3.72656-4.10938-.28906-.32812-1.22656-4.4375-2.92188-2.2461-4.4375 1.72266-4.4414-2.1289-4.4375-.9336-1.14063-.85547-3.29688-3.66015-.5625-.77735-3.875-4.32812-.07812-.10938-4.35938-3.22656v-.78125l4.4375 1.80078 2.15235 2.20703 2.28515 2.78516 1.69922 1.65234 2.73829 3.3164 1.38671 1.1211 3.05079.73828 4.4414 1.02344 4.4375-1.21094 4.4375 2.80079 1.08203 1.08984 1.98828 4.4375 1.3672 1.54297 4.4414.28515v2.0547l-2.29688.55468 2.29688.92187 1.10547-.92187-1.10547-.55469v-2.05469l4.4375 1.8086 4.35937.80078-4.35937 1.26172-4.4375 3.07812-.5039.09766.5039 1.10547.625 3.33594-.625.62109-4.4414-.10156-.46876-.51954-2.52344-4.4414-1.4453-.19531-2.5625.1953-1.875.375-4.4375 2.76563-4.44142.54297-4.27734.75781-.16015.21875-4.4375 3.9922-4.4375-1.26173-1.56641-2.94921-2.25-4.44141-.08594-4.4375 3.90235-3.17578 2.53906-1.26172-2.53906-4.13281-2.9922-.3047-1.4453-.0664-.03516.0664-1.84766 4.4375 1.41797 4.4375-3.97656 3.91798-4.4375-1.3711-4.4375-1.41406"/><path fill="#00d4fc" fill-rule="evenodd" d="M370.35547 458.60156l-1.1211-.46484 1.1211-3.55469 4.4375.25781v1.96875l-2.0664 1.32813 2.0664.98828 1.0039-.98828-1.0039-1.32813v-1.96875l2.49219 3.29688-2.4922 2.45312-4.4375-1.98828m4.4375-5.58203l-2.75-3.75781 2.75-2.91797 2.6875-1.52344-1.67187-4.4375-1.01562-2.66015-1.77735-1.77735 1.77735-1.51562 4.4414-1.71094v.77734L375 435.94531l1.60938 4.4375 2.46875 4.4375-4.28516 2.42578-1.89453 2.01563 1.89453 2.59375 2.32031-2.59375 2.1211-4.23828 4.4375.60547 4.4375 1.76171 1.22265 1.8711 2.65235 4.4375-3.875 1.39453-4.4375 2.6836-.44141.35937.30469 4.4375.13671.21484 3.66016 4.22656.77735.56641.60546-.5664 3.83204-1.1836 4.4375-1.39062 4.4414-1.59766.39063-.26953 4.02734-4.4375.01953-.10547.16406.10547 4.27344.57422.89063-.57422-.89063-.98047-3.04297-3.45703-.61719-4.4375-.77734-.60156-1.4414.60156-2.08204 4.4375-.91406.20703-.51172-.20703-.96484-4.4375-2.96485-1.59766-4.4375-.73047-2.8125-2.11328-1.625-1.80078-1.91406-2.63672-2.52344-2.82031-1.1289-1.61719-3.3086-2.44922v-.77734l4.35938 3.22656.07813.10938 3.875 4.32812.5625.77735 3.29687 3.66015 1.14063.85547 4.4375.9336 4.4414 2.1289 4.4375-1.72265 2.92188 2.24609 1.22656 4.4375.28906.32812 3.72656 4.10938-3.72656 2.40625-4.4375-.10938-1.9414 2.14063-2.4961 1.70312-4.4414 1.07032-4.4375 1.08593-1.88282.58204-2.55469 2.39062-3.26562-2.39063-1.17188-1.35546-1.97656-3.08594-.19531-4.4375 2.17188-1.76953 4.4375-2.32031.96093-.34766-.96094-2.34766-1.0625-2.08984-3.375-1.75781-4.4375-.39454-1.07812 2.15235-3.36328 3.75781"/><path fill="#00c4fc" fill-rule="evenodd" d="M374.79297 459.125l-2.0664-.98828 2.0664-1.32813 1.0039 1.32813-1.0039.98828m0-7.26953l-1.89453-2.59375 1.89453-2.01563v.90625l-1.04297 1.10938 1.04297 1.42578 1.27734-1.42578-1.27734-1.10938v-.90625l4.28515-2.42578-2.46875-4.4375L375 435.94531l4.23438-2.44922v.77735l-2.89063 1.67187 1.0664 4.4375 1.82423 3.17578 4.4375-.49609 1.17578-2.67969-1.17579-1.3125-2.18359-3.125-2.2539-1.67187v-.77735l3.30859 2.44922 1.1289 1.61719 2.52344 2.82031 1.91406 2.63672 1.625 1.80078 2.8125 2.11328v1.25391l-1.48046 1.07422 1.48046 2.28125 4.39454 2.15625-4.39454 1.03906-4.4375 1.40625-3.1875 1.99219-.41796 4.4375 3.60546 3.78906 4.4375-1.1289 4.4375-1.70313 2.50391-.95703 1.9375-1.45313 2.76172-2.98437-2.76172-2.64453-4.40625-1.79297.98047-4.4375-1.01563-.54688-4.4375-.52734v-1.2539l4.4375.73046 2.96485 1.59766.96484 4.4375.51172.20703.91406-.20703 2.08204-4.4375 1.4414-.60156.77735.60156.61718 4.4375 3.04297 3.45703.89063.98047-.89063.57422-4.27344-.57422-.16406-.10547-.01953.10547-4.02734 4.4375-.39063.26953-4.4414 1.59766-4.4375 1.39062-3.83204 1.1836-.60546.5664-.77735-.5664-3.66015-4.22657-.13672-.21484-.3047-4.4375.44142-.35938 4.4375-2.68359 3.875-1.39453-2.65235-4.4375-1.22265-1.8711-4.4375-1.76171-4.4375-.60547-2.1211 4.23828-2.32031 2.59375"/><path fill="#00b8fc" fill-rule="evenodd" d="M374.79297 450.6875l-1.04297-1.42578 1.04297-1.10938v.90625l-.1875.20313.1875.25781.23437-.25781-.23437-.20313v-.90625l1.27734 1.10938-1.27734 1.42578"/><path fill="#00a8fc" fill-rule="evenodd" d="M374.79297 449.51953l-.1875-.25781.1875-.20313.23437.20313-.23437.25781"/><path fill="#00b8fc" fill-rule="evenodd" d="M377.41016 440.38281l-1.06641-4.4375 2.89063-1.67187v.78125l-1.54297.89062.51953 4.4375 1.02344 1.78125 4.02734-1.78125-2.82422-4.4375-1.20313-.89062v-.78125l2.25391 1.67187 2.1836 3.125 1.17578 1.3125-1.17579 2.67969-4.4375.4961-1.82421-3.17579"/><path fill="#00a8fc" fill-rule="evenodd" d="M378.21094 440.38281l-.51953-4.4375 1.54296-.89062v.77734l-.1953.11328-.02735 4.4375.22265.38672.875-.38672-.72265-4.4375-.15235-.11328v-.77734l1.20313.89062 2.82422 4.4375-4.02735 1.78125-1.02343-1.78125"/><path fill="#009800" fill-rule="evenodd" d="M379.23438 440.76953l-.22266-.38672.02734-4.4375.19531-.11328.15235.11328.72265 4.4375-.875.38672"/><path fill="#fff" fill-opacity="0" fill-rule="evenodd" d="M383.67188 452.33594l-2.23047 1.36328 2.23046.41406.83594-.41406-.83594-1.36328"/><path fill="#00b8fc" fill-rule="evenodd" d="M388.10938 466.36328l-3.60547-3.78906.41796-4.4375 3.1875-1.99219 4.4375-1.40625v1.28906l-4.4375 1.16407-1.51171.9453-1.19532 4.4375 2.70704 2.84376 4.4375-.78125 4.4375-2.01563.125-.04687 4.3164-3.23828 1.10938-1.19922-1.10938-1.0625-2.59375 1.0625-1.84765 4.0039-.9961-4.0039-3.4414-2.10938v-1.28906l4.39453-1.03906-4.39454-2.15625-1.48046-2.28125 1.48046-1.07422 4.4375.52734 1.01563.54688-.98047 4.4375 4.40625 1.79297 2.76172 2.64453-2.76172 2.98437-1.9375 1.45313-2.5039.95703-4.4375 1.70313-4.4375 1.1289"/><path fill="#00a8fc" fill-rule="evenodd" d="M388.10938 465.41797l-2.70704-2.84375 1.19532-4.4375 1.51171-.94531 4.4375-1.16407v1.28516l-3.83984.82422-.59765.20703-1.8047 4.23047 1.8047 1.89844 4.4375-.4375 3.1953-1.46094-1.85546-4.4375-1.33985-.82422v-1.28516l3.44141 2.10938.9961 4.0039 1.84765-4.0039 2.59375-1.0625 1.10938 1.0625-1.10938 1.19922-4.3164 3.23828-.125.04687-4.4375 2.01563-4.4375.78125"/><path fill="#009800" fill-rule="evenodd" d="M388.10938 464.47266l-1.8047-1.89844 1.8047-4.23047.59765-.20703 3.83985-.82422v1.71484l-4.4375 1.42579-.90625 2.12109.90625.95312 4.4375-.08984 1.88671-.86328-1.88671-3.54688v-1.71484l1.33984.82422 1.85547 4.4375-3.19531 1.46094-4.4375.4375"/><path fill="#00ac00" fill-rule="evenodd" d="M388.10938 463.52734l-.90625-.95312.90625-2.1211 4.4375-1.42578v2.46875l-4.4375 1.0625-.00782.01563.00781.00781 4.4375.25781.57422-.26562-.57421-1.07813v-2.46875l1.88671 3.54688-1.88671.86328-4.4375.08984"/><path fill="#00c800" fill-rule="evenodd" d="M388.10938 462.58203l-.00782-.00781.00781-.01563 4.4375-1.0625.57422 1.07813-.57421.26562-4.4375-.2578"/><path fill="#00d4fc" fill-rule="evenodd" d="M419.17969 459.0586l-2.29688-.92188 2.29688-.55469 1.10547.55469-1.10547.92187"/><path fill="#50fcfc" fill-rule="evenodd" d="M436.92969 460.96875l-4.39844-2.83203 4.39844-3.0586 3.125 3.0586-3.125 2.83203m8.8789-9.02734l-2.89843-2.6797.20703-4.4414 2.6914-1.84765 4.4375 1.25v8.30078l-.64062 1.17578-1.89844 4.4375 1.00781 4.4375 1.53125 1.19531 1.47266-1.19531 1.32031-4.4375-1.7539-4.4375-1.03907-1.17578v-8.30078l.58985.59765 1.35547 4.4414 2.49218 2.95313 1.66407 1.48438-1.26172 4.4375-.40235 1.54687-.24609 2.89063-4.1914 3.39844-4.36329-3.39844.2539-4.4375.77345-4.4375-1.10157-1.75781"/><path fill="#00e8fc" fill-rule="evenodd" d="M448.71484 462.57422l-1.0078-4.4375 1.89843-4.4375.64062-1.17578 1.03907 1.17578 1.7539 4.4375-1.32031 4.4375-1.47266 1.19531-1.53125-1.19531"/><path fill="#50fcfc" fill-rule="evenodd" d="M467.9961 420.0586l-1.67579-1.8672 1.67578-1.67577v3.54296"/><g clip-path="url(#d)"><path fill="#fff" fill-opacity="0" fill-rule="evenodd" d="M467.9961 480.32813H468V420.0625v60.26563h-.0039"/></g><path fill="#50fcfc" fill-rule="evenodd" d="M467.9961 416.51563v3.54296l.0039.00391v-3.55078l-.0039.0039"/><g clip-path="url(#e)"><path fill="#fff" fill-opacity="0" fill-rule="evenodd" d="M467.9961 311.67188H468v104.83984-104.83985h-.0039"/></g><path fill="#fff" fill-opacity="0" fill-rule="evenodd" d="M340.46094 424.4375l5.83594-.1836-.31641-9.95702-5.83594.1875.3164 9.95312"/><path fill-rule="evenodd" d="M343.69922 416.20313l.50781-.01563.19922 6.29297-.78516.02344-.14453-4.48829-1.38672.04688-.01562-.55469.55469-.08594.25-.05859.22656-.09765.19922-.14844.16797-.21485.1328-.30078.09376-.39844"/><path fill="#fff" fill-opacity="0" fill-rule="evenodd" d="M404.375 467.45313l3.61328 4.59375 7.82813-6.16016-3.61329-4.58985-7.82812 6.15625"/><path fill-rule="evenodd" d="M412.92578 465.17969l.3164.39844-4.94921 3.89453-.48438-.6211 3.52735-2.77344-.85938-1.09375.4375-.34375.39844.40235.19922.16406.21094.125.23828.07422.26953.0039.32031-.0703.375-.16016"/><path fill="#fff" fill-opacity="0" fill-rule="evenodd" d="M203.32813 462.78125l5.80078-.6875-1.17188-9.89063-5.80078.6875 1.17188 9.89063"/><path fill-rule="evenodd" d="M205.84766 454.29688l.5039-.0586.74219 6.25-.78125.09375-.53125-4.45703-1.3789.16406-.0625-.55469.54687-.1289.24219-.08203.21875-.11719.1875-.16406.14453-.23047.10937-.3086.0586-.40625"/><path fill="#fff" fill-opacity="0" fill-rule="evenodd" d="M261.57422 404.79297l3.20703 4.88281 8.32422-5.46484-3.20313-4.88281-8.32812 5.46484"/><path fill-rule="evenodd" d="M270.28906 403.25781l.28125.42578-5.26562 3.45313-.42969-.65625 3.7539-2.46485-.76171-1.16015.46484-.30469.35938.4336.18359.17968.19922.14453.23047.08985.27344.03125.32421-.04297.38672-.1289"/><path fill="#fff" fill-opacity="0" fill-rule="evenodd" d="M254.26563 440.16016l.96093-5.76172-9.82422-1.63672-.96093 5.76562 9.82422 1.63282"/><path fill-rule="evenodd" d="M246.82422 435.375l.08203-.5039 6.21094 1.03515-.1289.77734-4.4297-.73828-.22656 1.3711-.54687-.09375.02734-.5625-.01172-.25782-.05078-.23828-.10547-.22656-.17969-.20703-.26953-.1875-.3711-.16797"/><path fill="#fff" fill-opacity="0" fill-rule="evenodd" d="M384.40625 474.94531l7.91016-.48047-.6172-10.17187-7.91015.47656.61719 10.17578"/><path fill-rule="evenodd" d="M386.3789 466.44922l3.27735-.19922.04688.74219-2.63282.15625-.125 1.8164.21875-.17578.26172-.14844.3164-.10937.37891-.05469.32813.00781.33984.0625.34375.12891.32422.19531.28906.27344.125.16797.11329.1875.09375.21094.07421.23047.0547.2578.03124.28126-.00781.44531-.07813.42578-.14843.39453-.21875.35157-.28907.30078-.17187.1289-.1875.10938-.20703.08984-.22266.07422-.24219.04688-.26171.03125-.46875-.00782-.40235-.07812-.34375-.14453-.28906-.19531-.23438-.2461-.1914-.28906-.14453-.32031-.10938-.35157.78516-.04687.09375.22656.11328.20313.13672.17187.15234.14453.17578.11328.1914.08204.21485.04296.23438.00391.3086-.04297.27733-.08984.23829-.13281.1953-.1797.15235-.22265.10547-.26953.0586-.3164.0039-.35938-.03515-.25781-.07813-.25782-.11719-.24218-.16015-.21875-.20313-.1836-.25-.13672-.29297-.08203-.33984-.01562-.33594.0586-.27344.125-.26171.20312-.29297.28906-.69532.04297.25782-3.44922"/><g clip-path="url(#f)"><path fill="none" stroke="#000" stroke-linecap="round" stroke-linejoin="round" stroke-miterlimit="10" stroke-width=".5" d="M142.45313 477.17578l3.09375 6.3086"/></g><g clip-path="url(#g)"><path fill="none" stroke="#000" stroke-linecap="round" stroke-linejoin="round" stroke-miterlimit="10" stroke-width=".5" d="M154.35547 482.21875l5.92187-3.78125"/></g><g clip-path="url(#h)"><path fill="none" stroke="#000" stroke-linecap="round" stroke-linejoin="round" stroke-miterlimit="10" stroke-width=".5" d="M170.70703 483.83984l-.15625-7.02343"/></g><g clip-path="url(#i)"><path fill="none" stroke="#000" stroke-linecap="round" stroke-linejoin="round" stroke-miterlimit="10" stroke-width=".5" d="M184.35156 483.82031l-.8125-6.98047"/></g><g clip-path="url(#j)"><path fill="none" stroke="#000" stroke-linecap="round" stroke-linejoin="round" stroke-miterlimit="10" stroke-width=".5" d="M197.59766 483.82422l-.67578-6.99219"/></g><g clip-path="url(#k)"><path fill="none" stroke="#000" stroke-linecap="round" stroke-linejoin="round" stroke-miterlimit="10" stroke-width=".5" d="M210.20313 483.82422l.74218-6.98828"/></g><g clip-path="url(#l)"><path fill="none" stroke="#000" stroke-linecap="round" stroke-linejoin="round" stroke-miterlimit="10" stroke-width=".5" d="M222.875 483.6914l2.02734-6.72656"/></g><g clip-path="url(#m)"><path fill="none" stroke="#000" stroke-linecap="round" stroke-linejoin="round" stroke-miterlimit="10" stroke-width=".5" d="M237.57422 483.82422l-.73828-6.98828"/></g><g clip-path="url(#n)"><path fill="none" stroke="#000" stroke-linecap="round" stroke-linejoin="round" stroke-miterlimit="10" stroke-width=".5" d="M249.98047 483.80078l1.07812-6.94531"/></g><g clip-path="url(#o)"><path fill="none" stroke="#000" stroke-linecap="round" stroke-linejoin="round" stroke-miterlimit="10" stroke-width=".5" d="M264.46484 483.78516l-1.2578-6.91407"/></g><g clip-path="url(#p)"><path fill="none" stroke="#000" stroke-linecap="round" stroke-linejoin="round" stroke-miterlimit="10" stroke-width=".5" d="M278.97656 483.33203l-3.64844-6.00781"/></g><g clip-path="url(#q)"><path fill="none" stroke="#000" stroke-linecap="round" stroke-linejoin="round" stroke-miterlimit="10" stroke-width=".5" d="M289.78516 476.88281l1.35937 6.89453"/></g><g clip-path="url(#r)"><path fill="none" stroke="#000" stroke-linecap="round" stroke-linejoin="round" stroke-miterlimit="10" stroke-width=".5" d="M303.09766 476.88281l1.36718 6.89063"/></g><path fill="none" stroke="#000" stroke-linecap="round" stroke-linejoin="round" stroke-miterlimit="10" stroke-width=".5" d="M303.29688 477.88672l.94921-.77735"/><g clip-path="url(#s)"><path fill="none" stroke="#000" stroke-linecap="round" stroke-linejoin="round" stroke-miterlimit="10" stroke-width=".5" d="M316.76953 476.83203l.65235 6.9961"/></g><path fill="none" stroke="#000" stroke-linecap="round" stroke-linejoin="round" stroke-miterlimit="10" stroke-width=".5" d="M316.86328 477.84766l1.02344-.67188"/><g clip-path="url(#t)"><path fill="none" stroke="#000" stroke-linecap="round" stroke-linejoin="round" stroke-miterlimit="10" stroke-width=".5" d="M327.35938 478.58594l6.10156 3.48828"/></g><path fill="none" stroke="#000" stroke-linecap="round" stroke-linejoin="round" stroke-miterlimit="10" stroke-width=".5" d="M328.25 479.09375l.03516-1.22656"/><g clip-path="url(#u)"><path fill="none" stroke="#000" stroke-linecap="round" stroke-linejoin="round" stroke-miterlimit="10" stroke-width=".5" d="M340.52734 478.8789l6.39844 2.90235"/></g><g clip-path="url(#v)"><path fill="none" stroke="#000" stroke-linecap="round" stroke-linejoin="round" stroke-miterlimit="10" stroke-width=".5" d="M353.60547 481.07031l6.8711-1.48437"/></g><g clip-path="url(#w)"><path fill="none" stroke="#000" stroke-linecap="round" stroke-linejoin="round" stroke-miterlimit="10" stroke-width=".5" d="M366.8711 480.77344l6.96874-.89063"/></g><g clip-path="url(#x)"><path fill="none" stroke="#000" stroke-linecap="round" stroke-linejoin="round" stroke-miterlimit="10" stroke-width=".5" d="M367.88672 480.64453l-.71094-1.0039"/></g><g clip-path="url(#y)"><path fill="none" stroke="#000" stroke-linecap="round" stroke-linejoin="round" stroke-miterlimit="10" stroke-width=".5" d="M380.16406 480.13672l7.01563.38672"/></g><g clip-path="url(#z)"><path fill="none" stroke="#000" stroke-linecap="round" stroke-linejoin="round" stroke-miterlimit="10" stroke-width=".5" d="M381.1836 480.1914l-.51563-1.11327"/></g><g clip-path="url(#A)"><path fill="none" stroke="#000" stroke-linecap="round" stroke-linejoin="round" stroke-miterlimit="10" stroke-width=".5" d="M393.51953 480.88672l6.9336-1.11719"/></g><g clip-path="url(#B)"><path fill="none" stroke="#000" stroke-linecap="round" stroke-linejoin="round" stroke-miterlimit="10" stroke-width=".5" d="M393.51953 480.88672l-1.48437-1.95313"/></g><g clip-path="url(#C)"><path fill="none" stroke="#000" stroke-linecap="round" stroke-linejoin="round" stroke-miterlimit="10" stroke-width=".5" d="M406.84375 480.95313l6.91406-1.25"/></g><g clip-path="url(#D)"><path fill="none" stroke="#000" stroke-linecap="round" stroke-linejoin="round" stroke-miterlimit="10" stroke-width=".5" d="M407.85156 480.76953l-.76172-.96094"/></g><g clip-path="url(#E)"><path fill="none" stroke="#000" stroke-linecap="round" stroke-linejoin="round" stroke-miterlimit="10" stroke-width=".5" d="M422.69922 483.71875l1.83594-6.78125"/></g><g clip-path="url(#F)"><path fill="none" stroke="#000" stroke-linecap="round" stroke-linejoin="round" stroke-miterlimit="10" stroke-width=".5" d="M438.1289 483.63281l-2.39452-6.60937"/></g><g clip-path="url(#G)"><path fill="none" stroke="#000" stroke-linecap="round" stroke-linejoin="round" stroke-miterlimit="10" stroke-width=".5" d="M451.48047 483.61719l-2.46875-6.57813"/></g><g clip-path="url(#H)"><path fill="none" stroke="#000" stroke-linecap="round" stroke-linejoin="round" stroke-miterlimit="10" stroke-width=".5" d="M466.6289 482.04297l-6.13671-3.42578"/></g><g clip-path="url(#I)"><path fill="none" stroke="#000" stroke-linecap="round" stroke-linejoin="round" stroke-miterlimit="10" stroke-width=".5" d="M147.47656 466.5l-6.95312 1.02734"/></g><path fill="none" stroke="#000" stroke-linecap="round" stroke-linejoin="round" stroke-miterlimit="10" stroke-width=".5" d="M146.46484 466.64844l.72657.98828m13.63672-.60938L153.80077 467m6.0039.02344l.57423 1.08594m13.34375.5703l-6.1875-3.33202m5.28906 2.84765l-.00781 1.22657m13.64062.05078l-5.02344-4.91797m4.29297 4.20312l-.34765 1.17578m14.09765-.1914l-4.42969-5.45703m3.78516 4.66406l-.48047 1.1289M213 469.5586l-4.84766-5.08984m4.14063 4.34766l-.38672 1.16406m13.53125.1875l-3.09375-6.3086m2.64453 5.39063l-.72266.9961m14.6836-.1836l-3.48828-6.09766m2.98047 5.21094l-.65235 1.03906m14.39844-.10937l-3.33203-6.1836m2.84766 5.28516l-.6797 1.01953m14.75782-.28906l-3.89063-5.84766m3.32422 5l-.58203 1.07813m14.89453-.5664l-4.7539-5.17579m4.0625 4.42188l-.41016 1.16015m15.46484-3.78515l-6.84765 1.58203m5.85156-1.35156l.80469.92578m12.58203-2.83203l-5 4.93359m4.27344-4.21875l1.16797.36719m12.19921-1.6172l-3.65234 6.00391m3.1211-5.1328l1.22265.0703m13.05078-.6328l-4.50781 5.38671m16.59375-2.6914l-.01953-.20313-.0586-.1914-.09765-.17579-.45703-.375-.1914-.0586-.19923-.01952-.19922.01953-.1914.0586-.46094.375-.09375.17577-.0586.19141-.01953.20313.01954.19921.05859.19141.09375.17578.46094.375.1914.0586.19922.01953.19922-.01953.1914-.0586.45704-.375.09765-.17578.0586-.1914.01953-.19923m9.14453-1.5664l6.29297 3.1289m-5.375-2.67578l-.03516-1.22265m12.20703 1.33984l6.7422 1.98828m6.67968-2.29297l6.53125 2.59766m-5.58203-2.21875l-.13281-1.21875m12.28125 1.6875l6.96484.90234m-5.95313-.77343l-.42968-1.14844m12.75781.83984l6.91406 1.26172m-5.90625-1.07812l-.375-1.16797m12.83203 2.79687l6.6172-2.36328m-5.65626 2.01953l-.90625-.82812m14.78516-3.03907l3.5664 6.0586m13.67578-.2461l-4.28906-5.5664m3.66797 4.75781l-.50781 1.11719m15.60937-1.91016l-6.61718-2.36328m5.65234 2.01953l.17969 1.21485"/><g clip-path="url(#J)"><path fill="none" stroke="#000" stroke-linecap="round" stroke-linejoin="round" stroke-miterlimit="10" stroke-width=".5" d="M147.48828 454.11328l-6.97656-.82812"/></g><path fill="none" stroke="#000" stroke-linecap="round" stroke-linejoin="round" stroke-miterlimit="10" stroke-width=".5" d="M146.47266 453.99219l.4453 1.14453m13.78126-.48828l-6.76563-1.89844m5.78125 1.6211l.26172 1.19921m13.8164-.34375l-6.32812-3.05469m5.41016 2.60938l.04688 1.22656m13.32421.34766l-4.60156-5.3125m3.9336 4.53906l-.44141 1.14453m13.84766.03125l-3.44922-6.1211m2.94922 5.23048l-.66016 1.03515m15.85937-1.5664l-6.21875-3.27344m5.31641 2.79687l.0039 1.22657m14.51954-1.5625l-6.82813-1.65235m5.83594 1.41407l.30469 1.1875m13.88281-.5586l-6.58984-2.4336m5.6328 2.08204l.16407 1.21484m13.60938.04688l-5.59375-4.2539m4.78125 3.63671l-.19922 1.21094m13.9961-.21875l-4.9336-5.0039m4.9336 5.0039l-.73048 2.34375m14.48047-2.85938l-5.79687-3.97265m4.95312 3.39453l-.13672 1.21875m14.82032-1.83594l-6.84766-1.57812m5.85156 1.34765l.3164 1.1836m13.85938-2.98047l-6.57812 2.47656m5.6211-2.11719l.91796.8125m13.51563-.59765l-6.90235 1.32421m5.89844-1.1289l.76953.95312m13.41797-1.63672l-6.64063 2.3047m5.67579-1.96876l.89843.83203m13.54297.44532l-6.96484-.92579m5.95312.79297l.42969 1.14844m12.10547-4.5586l-3.3789 6.16016m2.89062-5.26172l1.22656.01563m10.09375-1.2539l1.58984 6.84374m-1.35937-5.84765l.92578-.8086m9.53906 2.40235l6.82813 1.66015m-5.83594-1.41797l-.30469-1.1875m12.5586 2.2422l6.96484-.9336m-6.96484.9336l-1.4297-1.9922m14.8711 2.56641l6.71094-2.08203m-5.73437 1.78125l-.8711-.86328m14.17969 2.70312l4.77344-5.15625m-4.07813 4.40625l-1.1875-.3125m16.53516 1.98047l-.6836-6.99219m17.03907 2.54688l-6.76563 1.89844m20.07813.01172l-6.75782-1.92188m5.77344 1.64063l.25781 1.19921"/><g clip-path="url(#K)"><path fill="none" stroke="#000" stroke-linecap="round" stroke-linejoin="round" stroke-miterlimit="10" stroke-width=".5" d="M147.29297 439.16406l-6.58594 2.4414"/></g><path fill="none" stroke="#000" stroke-linecap="round" stroke-linejoin="round" stroke-miterlimit="10" stroke-width=".5" d="M146.33594 439.51953l.91797.8125m13.57422.07422l-7.02735-.04688m6.0039.03907l.57032 1.08984m13.23828.75l-5.96875-3.70703m5.10156 3.16797l-.08203 1.22265m13.46875.21094l-4.375-5.5m3.73828 4.69922l-.48828 1.125m15.07813-.98437l-5.64844-4.1797m4.82422 3.57423l-.17969 1.21094m14.51953-.91016l-6.05078-3.57031m5.16797 3.05078l-.05469 1.22656m14.61719-1.57422L220.5 439.46875m5.79688 1.5664l.27343 1.19532m14.13281-1.52734l-6.99609-.64063m5.98047.54688l.47266 1.1328m13.875-1.33202l-7.02735-.0547m6.0039.04688l.56642 1.08594m13.6953-.3789l-6.875-1.45313m5.875 1.24219l.33985 1.17969m13.98047-.98438l-6.88281-1.41797m6.88281 1.41797l.6875 2.35156M293.92578 441l-6.91797-1.23438M293.92578 441l.7539 2.33594m12.46876-3.96094l-6.73438 2.01563m6.73438-2.01563l1.72265 1.7461m11.60938-1.6836l-6.76953 1.89063m6.76953-1.89063l1.6914 1.77734m11.46094-2.23437l-6.4414 2.80469m6.4414-2.8047l1.92188 1.52735m10.75-2.51172l-5.15625 4.77344m4.40625-4.07812l1.15625.40234M357.99219 437l-1.90235 6.76563m1.625-5.78125l1.19922-.25782m10.30078-.66797l2.28125 6.64844m-2.28125-6.64844l1.67579-1.79297m9.68359 3.46094l6.19531 3.3125m-6.19531-3.3125l.0039-2.45312m12.89454 4.02734l7.02734.16797m-7.02734-.16797l-1.09766-2.19531m2.1211 2.21875l-1.10157-2.19531m13.6836 3.65234l6.4453-2.79688m-6.4453 2.79688l-1.91797-1.52734m17.30078 3.4453l2.3125-6.6328m-2.3125 6.6328l-2.42578.375m20.10937-2.27343l-6.42969-2.83594m5.4961 2.42579l.08984 1.22265m14.38281-2.96094l-6.875 1.46485m5.875-1.2539l.78907.9414m12.57421-2.90625l-4.96875 4.96875m4.2461-4.2461l1.17187.35938"/><g clip-path="url(#L)"><path fill="none" stroke="#000" stroke-linecap="round" stroke-linejoin="round" stroke-miterlimit="10" stroke-width=".5" d="M146.84766 425.00781l-5.69532 4.1211"/></g><path fill="none" stroke="#000" stroke-linecap="round" stroke-linejoin="round" stroke-miterlimit="10" stroke-width=".5" d="M146.84766 425.00781l2.20312 1.08203m11.29688-.79687l-6.06641 3.55078m6.0664-3.55078l2.08985 1.28906m11.42188-.89844l-6.45704 2.76953m5.51563-2.36718l.95703.76953m13.29297 1.61328l-6.44531-2.80078m5.5078 2.39453l.09376 1.22266m14.40625-1.65625l-6.9375-1.1211m6.9375 1.1211l.78906 2.32422m11.875-4.98047l-5.64062 4.1914m4.8203-3.58203l1.10938.52735m13.57422-.04297l-6.73437 2.0039m19.86328.48828l-6.36328-2.98046m5.4375 2.54687l.0625 1.22656m14-.45703l-6.0039-3.65234m19.78905 2.36328l-6.9453-1.07031m5.93358.91406l.40625 1.15625m13.95704-1.66406l-7.01953.2539m6-.21484l.61328 1.0625m13.72265-.89844l-7.02343-.15234m6.0039.1289l.55078 1.09766m13.76563-1.51562l-6.98828.73437m5.97265-.6289l.6875 1.01562m13.2539-2.40234l-6.20702 3.29687m5.30469-2.82031l1.01562.6875m12.64844-1.9336l-5.09766 4.83594m5.09766-4.83594l2.32422.77735m11.16797-.57422l-5.45704 4.42578m5.45704-4.42578l2.26171.95703m10.6875-1.34375l-4.72265 5.19922m4.03515-4.44531l1.19141.30468m12.14063-1.53906l-3.38282 6.16016m2.89063-5.26172l1.22656.01562m7.94531.25l5.89063 3.83204m-5.89063-3.83204l.21875-2.4453m15.41797.90234l1.2461 6.91796m-1.2461-6.91796l1.92578-1.51563m-1.7461 2.52344l1.9297-1.51953m13.42187.83984l-3.1875 6.26172m3.1875-6.26172l2.45313-.04297m-2.91407.95313l1.22657-.01953m12.05468-1.09766l-2.19921 6.67578m2.19921-6.67578l2.41797-.41406M440.39844 426.5l-6.9336 1.13672m5.92579-.96875l.74218.97656m13.39063.6914l-6.55469-2.53515m5.60156 2.16797l.14453 1.21875m13.82422-3.98437l-5.95312 3.73046m5.08594-3.1875l1.0625.61329"/><g clip-path="url(#M)"><path fill="none" stroke="#000" stroke-linecap="round" stroke-linejoin="round" stroke-miterlimit="10" stroke-width=".5" d="M146.58203 411.3711l-5.16406 4.76171"/></g><path fill="none" stroke="#000" stroke-linecap="round" stroke-linejoin="round" stroke-miterlimit="10" stroke-width=".5" d="M146.58203 411.3711l2.3164.8125m-3.0664-.1172l1.15625.40626m12.6875-1.32422l-4.71875 5.20703m4.71875-5.20703l2.3789.60156m-3.0664.15625l1.1875.30078m12.8789-.9961l-4.84765 5.08594m4.84766-5.08593l2.36328.66015m11.65234.27735l-6.25 3.21093m5.33985-2.74218l1.0078.69922m12.79298-1.8086L194.55859 416m4.6172-3.83984l1.13671.46484m13.1289-.90234l-5.73437 4.0625m4.90234-3.47266l1.09375.55469m13.67579 1.3086l-6.97657-.84767m16.14844 3.875l1.3125-6.90234m-1.125 5.89844l-1.17187.36328m14.51562.67578l.8789-6.97266m-.75 5.96094l-1.14843.4336m14.83984.60546l-.1328-7.02343m.11327 6l-1.07422.59765m14.56641.41797l-.44922-7.01172m.38281 5.9922l-1.04296.64452m17.35546-1.58203l-6.3125-3.09375m5.39453 2.64063l.03907 1.22656m14.45703-1.51172l-6.83594-1.61719m5.83985 1.38281l.3125 1.1875m14.09375-1.84375l-7.02735.16016m6.0039-.13672l.60157 1.07031m13.53516-2.17968l-6.625 2.33593m6.625-2.33593l1.80859 1.66015m10.96484-2.65625l-5.53906 4.32813m4.73047-3.69922l1.1211.5m12.86327 3.36719l-5.2578-4.66407m18.29296 4.94141l-4.70312-5.21875m16.04687-.88281l-.75781 6.98437m.64844-5.96875l1.13671-.45703m11.40625-.54297l1.00391 6.95313m-1.0039-6.95313l1.98046-1.44922m-1.83593 2.46094l.99218-.72656m11.91016-.23828l1.53906 6.85547m-1.53906-6.85547l1.85938-1.59766m10.8828 1.78125L424.95704 417m-2.6836-6.49219l1.5625-1.89453m11.4297 2.04688l3.33203 6.1875m-3.33204-6.1875l1.36329-2.04297m10.28906 6.26172l6.65625-2.25m-5.6875 1.92187l-.89453-.83984m16.19922 3.53515l.73828-6.98828m-.6289 5.97266l-1.14063.46094"/><g clip-path="url(#N)"><path fill="none" stroke="#000" stroke-linecap="round" stroke-linejoin="round" stroke-miterlimit="10" stroke-width=".5" d="M146.55469 398.02734l-5.10938 4.82422"/></g><path fill="none" stroke="#000" stroke-linecap="round" stroke-linejoin="round" stroke-miterlimit="10" stroke-width=".5" d="M146.55469 398.02734l2.32422.78516m-3.06641-.08594l1.16016.39453m12.89062-1.10156l-5.09375 4.83985m5.09375-4.83985l2.32813.77735m-3.07032-.07422l2.32813.77734m11.8711-1.32031l-5.38282 4.51562m5.38281-4.51562l2.27735.92187m-3.0586-.26562l1.13672.46094m13.3086-.6211l-6.07813 3.52735m6.07813-3.52735l2.08203 1.29297m11.26953 2.17188l-6.14844-3.40235m5.2539 2.90625l-.02343 1.22656m10.40234 1l1.50781-6.86328m-1.5078 6.86328l-2.36329.66016m19.07422-1.77734l-5.28125-4.63282m4.51172 3.96094l-.28125 1.1914m14.63281-.86327l-5.8164-3.94532m19.0625 4.04297l-5.6797-4.13672m4.85548 3.53516l-.17188 1.21484m13.73047.01172l-4.51563-5.38672m3.85938 4.60157l-.46094 1.13671m15.67969-2.82812l-7.01172-.4375m5.99219.375l.50781 1.11719m13.75-.51563l-6.85937-1.51562m5.86328 1.29687l.32812 1.17969m13.9336-2.67578l-6.76172 1.91406m6.76172-1.91406l1.69922 1.77344m11.5078.46875l-6.54296-2.56641m5.58984 2.1914l.14063 1.21876m14.33594-2.625l-6.95704.99218m6.95704-.99218l1.4453 1.98046m7.69532-4.92968l1.39063 6.89062m16.1328-3.33594l-7.02343-.21875m6 .1875l.54297 1.10157m13.09375-3.28516l-5.6211 4.21485m4.80079-3.60157l1.11328.51953m11.66797-2.22265l-2.91407 6.39453m2.91407-6.39453l2.44922-.14844m-2.875 1.07813l2.44921-.14844m10.72266-.98438l-1.77734 6.79688m1.77734-6.79688l2.39063-.5664m-2.64844 1.55468l1.19531-.28125m11.4375-.8203l.10547 7.02733m-.10547-7.02734l2.14844-1.1836m-2.13281 2.20704l1.07421-.59375m12.73829-.39844l-.92188 6.96485m.92188-6.96485l2.30078-.85937m-2.4336 1.87109l1.14844-.42969m10.75781-.44531l2.16016 6.6875m-2.16016-6.6875l1.70703-1.76172m12.35157 1.60938l.67187 6.99609m-.67187-6.9961l2.04687-1.35546m12.6289 4.85156l-.02343-.19922-.05469-.1914-.09765-.17579-.45703-.3789-.19141-.05469-.19922-.02344-.19922.02344-.1914.05469-.46094.3789-.09375.17579-.0586.1914-.01953.19922.01953.19922.0586.1914.09375.1797.46094.375.1914.05859.19922.01953.19922-.01953.1914-.0586.45704-.375.09765-.17969.05469-.1914.02344-.19922"/><g clip-path="url(#O)"><path fill="none" stroke="#000" stroke-linecap="round" stroke-linejoin="round" stroke-miterlimit="10" stroke-width=".5" d="M146.28516 384.45313l-4.57032 5.33984"/></g><path fill="none" stroke="#000" stroke-linecap="round" stroke-linejoin="round" stroke-miterlimit="10" stroke-width=".5" d="M146.28516 384.45313l2.39453.53125m11.67969.3828l-6.08594 3.51173m6.08594-3.51172l2.07812 1.30078m-2.96484-.78906l1.03906.64843m13.10937-1.24609l-5.98437 3.6836m5.98437-3.6836l2.1172 1.24219m-2.98829-.70703l1.0586.62109m11.41796-2.58594l-2.5625 6.54297m2.5625-6.54297l2.4375-.28125m8.17188.33985l2.84765 6.42578m-2.84765-6.42578l1.51562-1.9297m13.89063 1.69532l-1.33594 6.89844m1.14453-5.89844l1.17188-.35937m9.71484 5.73046l3.90625-5.84375m-3.33594 4.9922l-1.22265-.125m18.10937.80077l-4.3789-5.49609m4.3789 5.4961l-.98047 2.25m14.29297-2.2461l-4.3711-5.5039m3.73438 4.70312l-.48828 1.125m15.0586-.96094l-5.60938-4.23047m5.60938 4.23047l-.38672 2.42578m14.21484-5.69531l-6.63672 2.3125m5.67188-1.97656l.89843.83203m13.02344-1.91016l-5.91797 3.79297m5.05469-3.23828l1.07031.60156m13.60157.08594l-6.90625 1.3086m5.89843-1.1172l.76953.95704m13.40235-1.6914l-6.60547 2.39452m5.64453-2.04687l.91016.82422m13.01953-1.875l-5.91016 3.80078m5.91016-3.80078l2.14062 1.19921m9.85157-2.41015l-3.26563 6.22265m3.26563-6.22265L347.8125 384m-2.92969.91797l1.22657-.00781m13.04296-.59375l-4.22265 5.61718m4.22265-5.61718l2.42188.3789m-3.03516.4375l2.42188.3789m11.73828-1.0078l-4.6836 5.23828m4.6836-5.23828l2.38281.58593m-3.0664.17579l1.1914.29296m12.30078-1.42968l-3.67578 5.98828m3.67578-5.98828l2.44922.15234m10.1836-.47656l-2.3086 6.63672m2.3086-6.63672l2.42578-.375m11.0703.44531l-2.67187 6.4961m2.67188-6.4961l2.4414-.24219m-2.82812 1.1875l1.21875-.1211m10.69531-1.05858l.90235 6.96875m-.90235-6.96875l2-1.42188m10.78125 1.53125l1.97266 6.7461m-1.97266-6.7461l1.75782-1.71094m-1.47266 2.6914l.8789-.85546m11.71094.03906l2.85157 6.42188m-2.85157-6.42188l1.51172-1.9336m-1.09765 2.8672l.7578-.96875m17.07423 3.51562l-7.00782-.53906"/><g clip-path="url(#P)"><path fill="none" stroke="#000" stroke-linecap="round" stroke-linejoin="round" stroke-miterlimit="10" stroke-width=".5" d="M467.0664 387.39453l.98048 2.2461"/></g><g clip-path="url(#Q)"><path fill="none" stroke="#000" stroke-linecap="round" stroke-linejoin="round" stroke-miterlimit="10" stroke-width=".5" d="M144.59375 370.34375l-1.1875 6.92578"/></g><path fill="none" stroke="#000" stroke-linecap="round" stroke-linejoin="round" stroke-miterlimit="10" stroke-width=".5" d="M144.59375 370.34375l2.32813-.76953m13.14843 2.05078l-5.50781 4.36328m4.70703-3.72656l1.1211.49219m12.52343-1.6172l-4.5664 5.34376m4.5664-5.34375l2.39453.53125m9.73438-1.19922l-2.19531 6.67969m1.875-5.70703l1.20703-.21094m12.64062-.6836l-2.6211 6.52344m2.6211-6.52344l2.4375-.26171m10.83985.24609l-2.54297 6.55078m2.17187-5.59765l1.21875-.14454m11.51953-1.03125l-.64843 7m.55468-5.98046l1.13282-.47266m13.14062 6.25781l-2.3789-6.61328m2.3789 6.61328l-1.64844 1.8164m15.28516-1.94921l-3.02344-6.34375m2.58594 5.42187l-.73047.98438m15.97656-1.41016l-6.0078-3.64844m19.75 2.57422l-6.86329-1.5m5.86719 1.28125l.32812 1.1836m12.27344-4.77735l-3.44531 6.125m2.94531-5.23437l1.22656.03125m14.29688 1.38281l-6.85938 1.51563m5.86328-1.29297l.79297.9336m13.52344-1.13673l-6.8711 1.47656m6.8711-1.47656l1.58203 1.875m-2.58203-1.66015l.78906.9375m12.82031-2.625l-5.46093 4.42187m5.46094-4.42187l2.2578.95703m-3.05077-.3164l1.1289.48046m11.6914-2.11328l-2.8828 6.40625m2.8828-6.40625l2.44923-.16406m-2.86719 1.09375l1.22266-.07813m13.29687-.36719l-4.45703 5.4336m4.45703-5.4336l2.40625.48438m11.1211-.29297l-4.88282 5.05469m4.88281-5.05469l2.35938.67578m-3.07031.0586l2.35937.67578m12.32813-.53516l-6.20313 3.30469m6.20313-3.30469l2.03515 1.3711m9.76954-2.85157l-3.1836 6.26563m3.1836-6.26563l2.45312-.04687m9.6211-.31641l-.70313 6.99219m.60156-5.97656l1.13672-.46485m13.19922-.33203l-2.54297 6.55078m2.54297-6.55078l2.4375-.28906m10.27734.11719l-1.33984 6.89843m1.33984-6.89844l2.34766-.71484m-2.54297 1.71875l1.17578-.35937m13.4336-.23047l-3.53907 6.07031m3.53906-6.07031l2.45313.09375m12.54297 3.60547l-6.90235-1.32813m5.89844 1.13281l.36328 1.17188"/><g clip-path="url(#R)"><path fill="none" stroke="#000" stroke-linecap="round" stroke-linejoin="round" stroke-miterlimit="10" stroke-width=".5" d="M143.6914 356.99219l.6172 7"/></g><g clip-path="url(#S)"><path fill="none" stroke="#000" stroke-linecap="round" stroke-linejoin="round" stroke-miterlimit="10" stroke-width=".5" d="M143.6914 356.99219l2.0586-1.33594"/></g><path fill="none" stroke="#000" stroke-linecap="round" stroke-linejoin="round" stroke-miterlimit="10" stroke-width=".5" d="M154.44531 358.46875l5.74219 4.05078m-4.90625-3.46094l.15234-1.21875m14.96094-.85156L170.86328 364m-.46875-7.01172l2.08594-1.29297m10.07422 1.57031l2.78125 6.45313m-2.3789-5.51172l.76952-.96094m11.70313.2461l3.66015 6m-3.1289-5.125l.625-1.05469m12.32812.08594l3.32422 6.1914m-2.83984-5.29296l.67969-1.01954m13.61328-.29296L224.08984 364m-.39843-7.01563l2.09765-1.27343m14.67969 3.48047l-6.52734 2.60156m5.57812-2.22266l.9375.79297m13.09766 1.89844l-6.07031-3.53906m5.1875 3.02734l-.04688 1.22266m8.13672-4.1797l6.14844 3.40235m-5.25391-2.90625l.01953-1.22656m18.875 3.32422l-6.79687-1.78516m6.79687 1.78516l.5625 2.38672m12.76953-4.08985l-6.83593 1.6211m6.83593-1.6211l1.6211 1.83985m11.4375-2.5664l-6.32032 3.07421m6.32032-3.07422l1.98437 1.44531m10.33594-2.67578l-4.33203 5.53516m4.33203-5.53516l2.41406.42578m-3.04687.37891l1.21093.21484m12.3711-1.26953l-3.60156 6.03125m3.60156-6.03125l2.45312.1211m-2.97656.7578l1.22656.0586m10.23047-1.38672l1.16406 6.9297m-1.16406-6.9297l1.94531-1.49218m-1.77734 2.5l.97266-.7461m14.12109-.03515l-2.73047 6.47656m2.73047-6.47656l2.4414-.21875m-2.83984 1.16015l2.44532-.21875m12.03125-.27734l-4.25782 5.58984m4.25782-5.58984l2.42187.39453m-3.03906.41797l1.21094.19922m13.24609-.52344l-5.30469 4.60938m5.30469-4.60938l2.28906.8789m-3.0625-.20702l2.29297.8789m11.38672-1.94922l-4.48828 5.41016m4.48828-5.41016l2.40234.4961m-3.05468.28906l1.19921.25m12.08594-1.47656l-3.125 6.29296m3.125-6.29296l2.45313-.07032m-2.90625.98438l1.22656-.03516m13.1914-.46094l-4.42578 5.45704m4.42579-5.45704l2.41015.46875m10.0039-1l-2.62109 6.51954m2.6211-6.51954l2.4375-.26171m-2.82031 1.20703l1.21875-.1289m13.30078-.35157l-4.26172 5.58594m4.26172-5.58594l2.42187.39844m-3.04297.41406l1.21094.19922m13.39844-.33594l-5.60938 4.23438"/><g clip-path="url(#T)"><path fill="none" stroke="#000" stroke-linecap="round" stroke-linejoin="round" stroke-miterlimit="10" stroke-width=".5" d="M466.36719 358.375l2.22265 1.03906"/></g><g clip-path="url(#U)"><path fill="none" stroke="#000" stroke-linecap="round" stroke-linejoin="round" stroke-miterlimit="10" stroke-width=".5" d="M145.58984 344.04297l-3.17968 6.26953"/></g><path fill="none" stroke="#000" stroke-linecap="round" stroke-linejoin="round" stroke-miterlimit="10" stroke-width=".5" d="M145.58984 344.04297l2.45313-.04688m9.51172-.32421l-.47656 7.01171m.40625-5.99218l1.12109-.5m10.01172.10937l4.02734 5.7539m-3.4414-4.91796l.55468-1.09375m14.14063-.3789l.09375 7.02734m-.09375-7.02735l2.15234-1.17969m10.55078 1.2422l1.32031 6.90234m-1.1289-5.89844l.95703-.76953m10.21484.86719l5.22266 4.69921m-4.46484-4.01562l.29687-1.1914m13.17578-.21876l3.39063 6.15235m-3.39063-6.15235l1.34375-2.05469m14.85547 1.82422l-2.3789 6.61329m2.3789-6.61329l2.42969-.34765m12.53516 1.58203l-5.67579 4.14453m4.84766-3.54297l1.10547.53516m8.875-2.3164l2.64844 6.5078m-2.26563-5.5625l.78516-.9414m16.83203 4.27734l-6.71875-2.0586m6.71875 2.0586l.46484 2.41016m-1.44531-2.70703l.23437 1.20312m14.16797-2.50781L287 347.75m6.9336-1.14453l1.48827 1.94922m-2.5-1.78125l.7461.97265m13.33594-1.96484l-6.44922 2.79297m6.44922-2.79297l1.91796 1.53125m-2.85546-1.125l.96093.76563m12.16016-2.59766L315.0039 350m4.1836-5.64453l2.42578.36719m-3.03516.45312l1.21485.1836m11.65625-1.53907l-2.07422 6.71485m2.07422-6.71485l2.41015-.46094m-2.71484 1.4375l1.20703-.23046m12.35156-.76563l-1.95312 6.7539m1.95312-6.7539l2.39844-.5039m-2.6836 1.48828l1.19923-.25391m13.1289-.42578l-3.41015 6.14453m3.41015-6.14453l2.45313.04297m12.11328 1.1289l-5.91016 3.80079m5.91016-3.80079l2.14062 1.19922m11.52344-.48828l-6.60937 2.38281m6.60937-2.3828l1.82031 1.64452m10.85157-2.75l-5.32422 4.58985m5.32422-4.58985l2.28515.88672m-3.0625-.21875l1.14453.44531m12.73047-1.33984l-4.89062 5.04297m4.89062-5.04297l2.35938.6836m-3.07031.05077l1.17968.33985m12.8047-1.11328l-4.8086 5.1211m4.8086-5.1211l2.37108.64062m-3.0703.10547l1.18359.32031m12.39062-1.41796l-3.92578 5.82421m3.92578-5.82421l2.4414.2539m11.84376.72266l-5.86719 3.8711m5.86719-3.8711l2.15234 1.17578m-3.00781-.61328l1.07812.58984m13.16407-1.03906L460.55859 349"/><g clip-path="url(#V)"><path fill="none" stroke="#000" stroke-linecap="round" stroke-linejoin="round" stroke-miterlimit="10" stroke-width=".5" d="M466.5664 345.35547l2.10938 1.2539"/></g><path fill="none" stroke="#000" stroke-linecap="round" stroke-linejoin="round" stroke-miterlimit="10" stroke-width=".5" d="M465.6914 345.88672l1.0547.6289"/><g clip-path="url(#W)"><path fill="none" stroke="#000" stroke-linecap="round" stroke-linejoin="round" stroke-miterlimit="10" stroke-width=".5" d="M145.6211 330.7461l-3.2422 6.23437"/></g><path fill="none" stroke="#000" stroke-linecap="round" stroke-linejoin="round" stroke-miterlimit="10" stroke-width=".5" d="M145.6211 330.7461l2.45702-.01954m11.11329.16406l-3.75 5.94532m3.75-5.94531l2.4453.18359m12.09767 1.14453l-6.21094 3.28516m5.3086-2.8047l1.01562.6875m11.6914-2.65233l-3.1875 6.2578m3.1875-6.2578l2.45313-.04297m9.95312-.27344l-1.3711 6.89062m1.17188-5.89062l1.17578-.35156m10.8086-.61329l1.6914 6.82032m-1.6914-6.82031l1.82422-1.64063m8.89062 4.35156l6.88672 1.39844m-5.88281-1.19531l-.34766-1.17578m16.03906-1.83985l.12891 7.02344m-.10937-6.0039l1.0703-.59376m11.47657-.33203l1.6289 6.83594m-1.39452-5.83984l.92187-.8125m16.48047 3.46093l-7.01563-.45312m7.01563.45312l1.00781 2.23438m12.30078-2.1875l-7.0039-.55078m7.0039.55078l.98047 2.25m-2-2.32813l.49219 1.125m13.73828-2.21484l-6.79687 1.78906m6.79687-1.78906l1.66406 1.80078m-2.65234-1.54297l.83203.90235m13.28125-1.69922l-6.41797 2.86328m5.48438-2.44531l.96875.7539m13.57031-.07422l-6.9961.67188m6.9961-.67188l1.35156 2.04688m11.03906-4.10547l-5.14453 4.78906m5.14453-4.78906l2.31641.80469m-3.0664-.10547l1.16015.39844m12.39453-1.54688l-4.125 5.6875m4.125-5.6875l2.42969.33985m-3.03125.48828l1.21484.16796m12.90625-.83593l-4.53515 5.36719m4.53515-5.3672l2.39844.51954m11.8164.64062l-6.33593 3.04688m6.33594-3.04688l1.97656 1.45313m-2.89844-1.00781l.98828.72656m13.4297-.71875l-6.69532 2.14062m6.69531-2.14062l1.7539 1.71484m-2.73046-1.40234l.8789.85547m12.94141-2.11328l-5.7539 4.03125m5.7539-4.03125l2.1875 1.11328m10.72656-1.58985l-4.95312 4.98438m4.95312-4.98438l2.34766.70704m11.2461-.39454l-5.51173 4.35938m5.51172-4.35938l2.25.98438m-3.05078-.35156l1.125.49218m11.89063-2.04687l-3.3086 6.20312m3.3086-6.20312l2.45312.0039m-2.9336.89844l1.22657.0039m13.21484-.46093l-4.60156 5.3086m4.60156-5.3086l2.39454.55078m11.57421.20703l-5.91015 3.79688"/><g clip-path="url(#X)"><path fill="none" stroke="#000" stroke-linecap="round" stroke-linejoin="round" stroke-miterlimit="10" stroke-width=".5" d="M466.51563 331.96484l2.14062 1.19922"/></g><g clip-path="url(#Y)"><path fill="none" stroke="#000" stroke-linecap="round" stroke-linejoin="round" stroke-miterlimit="10" stroke-width=".5" d="M465.65625 332.51563l2.14063 1.19921"/></g><g clip-path="url(#Z)"><path fill="none" stroke="#000" stroke-linecap="round" stroke-linejoin="round" stroke-miterlimit="10" stroke-width=".5" d="M144.6289 317.08984l-1.2578 6.91407"/></g><path fill="none" stroke="#000" stroke-linecap="round" stroke-linejoin="round" stroke-miterlimit="10" stroke-width=".5" d="M144.6289 317.08984l2.33985-.74218m11.5039.8828l-2.3164 6.63673m2.3164-6.63672l2.42579-.375m11.84375.88672l-4.22266 5.61328m4.22266-5.61328l2.42578.3789m10.26172-.7578l-2.96875 6.37108m2.53515-5.4453l1.22657-.06641m11.58593-1.14454l-1.09765 6.94141m.9375-5.9336l1.16015-.39843m12.60157-.55078l-1.66797 6.82422m1.66797-6.82422l2.3789-.60547m9.60156.53906l1 6.95703m-.85546-5.9453l.99218-.72267m10.32032 5.79297l4.71484-5.21093m-4.02734 4.45312l-1.19141-.30078m16.1875 1.96875l-.01953-7.02734m.01562 6.0039l-1.08203.57813m17.33594-1.15625l-5.89453-3.82422m5.89453 3.82422l-.21094 2.44531m-.64453-3l-.10547 1.21875m14.82032-2.1875l-6.98047-.78125m6.98047.78125l.90625 2.28125m-1.92188-2.39453l.45313 1.14062m13.80078-2.2578l-6.82422 1.67968m6.82422-1.67969l1.63671 1.82813m11.71875-1.62891l-6.90625 1.28516m6.90625-1.28516l1.52735 1.91797m-2.53125-1.73047l.76562.96094m13.60547-.7461l-7.01172.47657m7.01172-.47657l1.29688 2.08594m-2.3164-2.01562l.64843 1.04296m13.25781-2.5703l-6.15625 3.39062m6.15625-3.39063l2.05469 1.33985m-2.94922-.84766l1.02734.67188m12.6797-1.85938l-5.14845 4.78516m5.14844-4.78516l2.3164.80469m-3.0664-.10938l1.16016.40235m13.0586-.91797l-5.45704 4.42578m5.45703-4.42578l2.26172.95703m-3.05469-.3125l2.25781.95703m11.96875-1.44922l-5.6953 4.11719m5.6953-4.11719l2.20313 1.08203m-3.03125-.48047l2.20313 1.08204m11.08203-2.51954l-3.98047 5.78907m3.98047-5.78907l2.4414.27735m10.58594-.45313l-3.40234 6.14453m2.91015-5.2539l1.22656.02344m11.00782-1.35547l-.2539 7.02343m.21483-6l1.10547-.53515m11.3047-.39453l1.6289 6.83593m-1.39063-5.83984l.92188-.8125m13.13672-.27344l-.33204 7.01953m.28125-6l1.10938-.52343m15.40234 1.83593l-6.625 2.35157m6.625-2.35157l1.8086 1.65625m-2.77344-1.3125l.90625.82813m13.10547-1.75l-6.08594 3.51172"/><g clip-path="url(#aa)"><path fill="none" stroke="#000" stroke-linecap="round" stroke-linejoin="round" stroke-miterlimit="10" stroke-width=".5" d="M466.60547 318.79297l2.07812 1.29687"/></g><g clip-path="url(#ab)"><path fill="none" stroke="#000" stroke-linecap="round" stroke-linejoin="round" stroke-miterlimit="10" stroke-width=".5" d="M465.71875 319.30078l2.08203 1.30078"/></g><path fill="#00f" fill-rule="evenodd" d="M388.23828 472.08594h8.61719V461.9414h-8.61719v10.14453"/><path fill="azure" fill-rule="evenodd" d="M390.07031 463.77344h.83594v2.82422h3.28516v-2.82422h.83203v6.48047h-.83203v-2.91797h-3.28516v2.91797h-.83594v-6.48047"/><path fill="#00f" fill-rule="evenodd" d="M383.80078 441.01953h8.61719V430.8711h-8.61719v10.14844"/><path fill="azure" fill-rule="evenodd" d="M385.63281 432.70703h.83203v2.82031h3.28907v-2.8203h.83203v6.47655h-.83203v-2.91406h-3.28907v2.91406h-.83203v-6.47656"/><path fill="#00f" fill-rule="evenodd" d="M228.45703 418.82813h8.6211v-10.14844h-8.6211v10.14844"/><path fill="azure" fill-rule="evenodd" d="M230.28906 410.51172h.83594v2.82422h3.28516v-2.82422h.83203v6.48047h-.83203v-2.91406H231.125v2.91406h-.83594v-6.48047"/><path fill="#ff3030" fill-rule="evenodd" d="M344.55078 405.51172h7.6914v-10.14453h-7.6914v10.14453"/><path fill="azure" fill-rule="evenodd" d="M346.38281 397.19922h.83203v5.73828h3.19532v.74219h-4.02735v-6.48047"/><path fill="#00f" fill-rule="evenodd" d="M370.48438 401.07422h8.62109v-10.14844h-8.6211v10.14844"/><path fill="azure" fill-rule="evenodd" d="M372.3164 392.76172h.83594v2.82031h3.28516v-2.82031h.83203v6.47656h-.83203v-2.91406h-3.28516v2.91406h-.83593v-6.47656"/><path fill="#ff3030" fill-rule="evenodd" d="M206.96094 365.5664h7.6914v-10.14452h-7.6914v10.14453"/><path fill="azure" fill-rule="evenodd" d="M208.79297 357.2539h.83203v5.73829h3.19531v.74219h-4.02734v-6.48047"/><path fill="#ffffe0" fill-rule="evenodd" d="M328.42969 336.32813h22.17969v-10.19141h-22.1797v10.1914"/><path fill-rule="evenodd" d="M331.92969 327.96875h.50781v6.29688h-.78516v-4.4922h-1.39062v-.55468l.5586-.0625.2539-.05469.23047-.08984.20312-.14063.17188-.21093.14453-.29297.10547-.39844m4.8125 0l.23047.01953.21875.05469.20703.08984.19531.1211.1836.15234.17187.17578.30469.41797.24218.49219.1797.54687.10937.57813.03906.59375-.03906.59375-.10938.58203-.17969.55469-.24218.5-.3047.42968-.17187.1797-.18359.15233-.19531.125-.20703.08985-.21875.0586-.23047.01952-.23047-.01953-.21875-.0586-.20703-.08983-.19531-.125-.1836-.15235-.17187-.17969-.3047-.42968-.24218-.5-.17969-.5547-.10937-.58202-.03906-.59375h.83203l.02734.5625.08203.5039.1289.44532.16017.375.1914.30078.21094.21875.22265.13672.22657.04687.22656-.04687.22266-.13672.21093-.21875.19141-.30078.16016-.375.1289-.44532.07813-.5039.03125-.5625-.03125-.5625-.07813-.5-.1289-.4375-.16016-.36328-.1914-.29297-.21094-.21485-.22266-.1289-.22656-.04688-.22656.04688-.22266.1289-.21094.21485-.1914.29297-.16016.36328-.1289.4375-.08204.5-.02734.5625h-.83203l.03906-.59375.10937-.57813.1797-.54687.24218-.49219.30469-.41797.17187-.17578.1836-.15234.1953-.1211.20704-.08984.21875-.05469.23047-.01953m5.08984 0h.51172v6.29688h-.78906v-4.4922h-1.38672v-.55468l.5586-.0625.2539-.05469.22656-.08984.20313-.14063.17578-.21093.14062-.29297.10547-.39844m2.82422 2.17578h.78906l.01953-.3164.0586-.28516.09765-.2539.14063-.21485.17969-.17188.22656-.1289.26172-.08203.3086-.02735.23827.01953.22266.06641.20703.10156.17969.13672.14844.17188.11328.20703.0703.23437.02345.26563-.01954.26953-.0664.22265-.10938.19141-.15625.17188-.19921.16406-.25.16406-.63282.39063-.53515.3125-.4375.3164-.34766.32422-.26563.33594-.1875.35156-.125.3711-.0703.39062-.01954.42188h4.21094v-.7422h-3.33203l.08203-.28515.11328-.23437.14844-.20313.1875-.17969.23047-.17187.27734-.17578.71875-.41406.41406-.20704.34766-.23046.28125-.25.21875-.26954.16406-.27734.10938-.28516.0664-.28515.01953-.28125-.04296-.38281-.1211-.34766-.1875-.3086-.25-.26171-.30469-.21094-.34375-.16016-.3828-.09765-.40626-.03516-.4336.03516-.39843.09765-.35547.16797-.30469.23438-.24609.30078-.1875.375-.11719.44531-.03906.51953"/></g></defs><use xlink:href="#ac"/></svg>