<svg xmlns="http://www.w3.org/2000/svg" role="img" xmlns:xlink="http://www.w3.org/1999/xlink" viewBox="142.45 309.95 326.84 171.84"><defs><clipPath id="a"><path d="M144 311.67188h1v168.65625h-1zm0 0"/></clipPath><clipPath id="b"><path d="M144 311.67188h324v168.65625H144zm0 0"/></clipPath><clipPath id="c"><path d="M467 418h1v62.32813h-1zm0 0"/></clipPath><clipPath id="d"><path d="M467 311.67188h1V419h-1zm0 0"/></clipPath><clipPath id="e"><path d="M144 476h1v4.32813h-1zm0 0"/></clipPath><clipPath id="f"><path d="M155 476h5v4.32813h-5zm0 0"/></clipPath><clipPath id="g"><path d="M167 478h7v2.32813h-7zm0 0"/></clipPath><clipPath id="h"><path d="M180 478h8v2.32813h-8zm0 0"/></clipPath><clipPath id="i"><path d="M196 476h2v4.32813h-2zm0 0"/></clipPath><clipPath id="j"><path d="M208 477h5v3.32813h-5zm0 0"/></clipPath><clipPath id="k"><path d="M220 477h7v3.32813h-7zm0 0"/></clipPath><clipPath id="l"><path d="M235 479h4v1.32813h-4zm0 0"/></clipPath><clipPath id="m"><path d="M249 476h3v4.32813h-3zm0 0"/></clipPath><clipPath id="n"><path d="M263 476h2v4.32813h-2zm0 0"/></clipPath><clipPath id="o"><path d="M273 479h8v1.32813h-8zm0 0"/></clipPath><clipPath id="p"><path d="M290 476h1v4.32813h-1zm0 0"/></clipPath><clipPath id="q"><path d="M303 476h2v4.32813h-2zm0 0"/></clipPath><clipPath id="r"><path d="M316 476h2v4.32813h-2zm0 0"/></clipPath><clipPath id="s"><path d="M328 477h5v3.32813h-5zm0 0"/></clipPath><clipPath id="t"><path d="M340 477h7v3.32813h-7zm0 0"/></clipPath><clipPath id="u"><path d="M353 479h8v1.32813h-8zm0 0"/></clipPath><clipPath id="v"><path d="M366 478h8v2.32813h-8zm0 0"/></clipPath><clipPath id="w"><path d="M366 480h3v.32813h-3zm0 0"/></clipPath><clipPath id="x"><path d="M379 479h9v1.32813h-9zm0 0"/></clipPath><clipPath id="y"><path d="M393 478h8v2.32813h-8zm0 0"/></clipPath><clipPath id="z"><path d="M406 479h8v1.32813h-8zm0 0"/></clipPath><clipPath id="A"><path d="M419 479h9v1.32813h-9zm0 0"/></clipPath><clipPath id="B"><path d="M425 479h3v1.32813h-3zm0 0"/></clipPath><clipPath id="C"><path d="M433 479h8v1.32813h-8zm0 0"/></clipPath><clipPath id="D"><path d="M446 479h8v1.32813h-8zm0 0"/></clipPath><clipPath id="E"><path d="M459 479h9v1.32813h-9zm0 0"/></clipPath><clipPath id="F"><path d="M144 465h4v4h-4zm0 0"/></clipPath><clipPath id="G"><path d="M144 452h4v4h-4zm0 0"/></clipPath><clipPath id="H"><path d="M144 437h3v6h-3zm0 0"/></clipPath><clipPath id="I"><path d="M144 424h3v6h-3zm0 0"/></clipPath><clipPath id="J"><path d="M144 410h3v7h-3zm0 0"/></clipPath><clipPath id="K"><path d="M144 397h3v7h-3zm0 0"/></clipPath><clipPath id="L"><path d="M144 384h3v6h-3zm0 0"/></clipPath><clipPath id="M"><path d="M144 370h3v8h-3zm0 0"/></clipPath><clipPath id="N"><path d="M144 357h2v7h-2zm0 0"/></clipPath><clipPath id="O"><path d="M144 344h3v7h-3zm0 0"/></clipPath><clipPath id="P"><path d="M466 346h2v4h-2zm0 0"/></clipPath><clipPath id="Q"><path d="M144 330h3v7h-3zm0 0"/></clipPath><clipPath id="R"><path d="M466 332h2v3h-2zm0 0"/></clipPath><clipPath id="S"><path d="M144 317h3v7h-3zm0 0"/></clipPath><clipPath id="T"><path d="M466 318h2v3h-2zm0 0"/></clipPath><g id="U" clip-path="url(#clip1)"><path fill="#fff" fill-opacity="0" fill-rule="evenodd" d="M0 0h1000v1000H0zm0 0"/><path fill="#d3d3d3" fill-opacity="0" fill-rule="evenodd" d="M162.15234 355.86719l-.23437.29297.0586.23437.11718.17188.17578.23437.29297.34766.11328.0586.11719-.17188.0586-.23438.17577-.17578.46485-.17578h.69922l.23437.29297.28906.8164.0586.17579.17578.23046.35156.23438.69922.69922.17188.17578.23437.34765.23438.41016.28906.58203.41015.46485.23047.23437.23438.17578.11719.23047.17578.29297.17187 1.16406v.23438l.0586.28906.05859.11719.11719.11719.34765.41015.11719.17188.17578.17578.17578.23437.11719.17188.17188.35156.05859.23438.23437.40625.23438-.0586-.17578.17578-.0586.92969h-.58203l-.23437-.11328-.34766.11328-.11719.11719-.05859.29297-.0586.17578-.11718.17187-.46484.29297-.0586.23438-.0586.11328v.64453l.0586.17187v.41016l.0586.0586v.40624l.05859.40625.11719.17579.05859.05859.23047.64062-.0586.29297v.69922l-.05859.58203v.23438l-.0586.23047-.05468.35156v1.92187l.05469.1172h.42578l-.36719.11718-.02344.35156.89063 1.16797 1.74219.53906 1.33984.35938v.53906l.08984.8086.53516.71484 1.51953.26953.89063-.08594.08984 1.16406.53516.1797 1.16015-.1797 2.05469-.98437 1.16016-.36328 1.8789-.17578 1.69531-.1797-.17968.71876-1.51563.08594-1.25.08984-.80469.26953-1.07421.8086.26953.71875.53515.89843-.17968.625-.26563.8086.26563 1.07812.625.89844.80468.17969 1.25-.1797-.26562.72267.09766.5039.05468.29297v.17188l.0586.29296v.40625l.17578.1172.35156.11718h.40625l.29297-.17578.11328-.11719.0586-.11719.11718-.23047.0586-.17578.35156-.46484.23047-.17578.17578-.0586.17578.0586.0586.17578.11718.98828.05469.46875.0586.17188.11718.23437.17578.0586.8164.05859h.28907l.11719.23437.05859.40625.0586.35156v1.10547l.11718.29297.11719.34766.28906.69922.17578.35156.58203.7539.35157.17579.17187.0586.46875.23437.64063.46484.34765.23438.29297.17578.29297.05468.23047.0625.8164.34766.29297.17578.11328.17188.35157.35156.11719.17578.52343.64063v.28906l.0586.35156v.34766l.05859.35156.0586.28906.11718.0586.17188.05859h.17578l.58203.23437.17578.1172.17578.28905.17578.23438.11328.23437.29297.23047.11719.11719v.41016l.0586.05468.28906.23438.23437.11719.0586.11718.11718.17188.0586.11719.23047.23437.05859.17578.23437.0586.1172.05859-.1172.11328-.05859.11719v.11719l-.11719.29296-.11719.28907v.58203l.17579.11719.11718.05859.0586.11719.11719.11719.11328.05859.17578.34765.0586.35157.05858.40625v.17578l-.05859.17578-.11719.69922v.17187l.1172.17579.29296.29296h.40625l.17578.1172.11719.17187.11719.29296v.23438h-.52735l-.23047-.23438h-.23437l-.17578.0586-.0586.69922.0586.34765.11719.17579.17578.41015.11718.23047.28907.46875.17578.05469h.52344l.23437.0586.75781.64062.0586.29296v.23438l.05859.0586.23047.34765v.35156l-.11719.17188v.29297l.29297.28906.29297.17578.17187.0586.29297.17577.29297.1172.58203.40624.28906.23438.29297.17578.21875.16015.01563.01172.23047.17579.64062.52343.17578.23438.1172.17578.17577.17578.11328.17188v.64062l.1172.17578.46874.11719.58203.11719.23438.05859.23047.11328.29297.11719.11328.0586.58593.35156.28907.17187.17578.0625.17578.05469.17578.0586.69922.35155.28906.17579.23438.05468.28906.17578.23437.1172.64063.40624.29297.11719.17187.0586.23438.05859.41015.05859.23047.0586.23438.11718.0586.17188-.41017.17578.46875.0586.0586.29296.11328.23438.17578.05468.23438.0586.17578.05859.40625.11719.64062.23437.11719.17188.0586.23437v.17578l-.0586.1172-.0586.40624.23438.23438.11719.05859.34766.11719.64062.23047.17578.11718.28906.1172.17578.17577.23438.46485.58203 1.10546.17578.17579.34766.17578.17578.11719.35156.11718 1.04688.52344.23437.0586.46485.11327.29297.0586.46484.17578.75781.58203.23438.23438.34765.46484.17578.17578.28907.23438.8164.69921.29297.17579.28906.28906.29297.17578.29297.28906.69531.64063.17578.17578.29297.23437.28907.23438.46875.28906.64062.58203.34766.23438.23437.29297.34766.34765.35156.46485.9336.99218.34765.40625.11719.17579.23437.05859.11328.11719.64454.17578.23047.11328.23437.0586.29297.17577.23047.1172.9336.69921.40624.40625.23438.17578.40625.17578.23437.11719.8164.34766.34766.23437.23438.11719.29297.28906.23047.11719.7578.35156.35157.17188.23047.05859.29297.11719.23437.0586.8711.17577h.8164l.46875.23047.17188.0586.875.69921.46484.1172.29297.05858.17578.0586.23047.0586.46875.05859.34766.05859.35156.0586.40625.05859h.29297l.17187.0586v.23046l.17578.17578h.29297l.34766.0586.35156.05859.69922.11719h.64063l.46484-.23438.29297-.17578.17187-.11719.41016-.17187.28906-.17578.9336-.46485.46875-.29297.52343-.29296.46485-.17188.46484-.17578 1.05078-.46485.28906-.11718.41016-.11719.28906-.11719.52735-.17578 1.51562-.69922.58203-.34765.28907-.0586.29297-.0586.34765-.11718.875-.23047.35156-.11719h.11329l.23437-.05859.875-.23437.23438-.0586h.8125l.35156-.0586.8164-.11718.17188-.0586.35156-.05468.29297-.0586.23047-.05859.8164-.17578.17579-.0586h.34765l.23438-.05859.46484-.11718.75781-.17188.23438-.0586h.34765l.41016-.11718.28906-.0586 1.28516-.05859h.28906l.41016-.0586.23047-.05858h.17578l.875-.1172h.40625l.41015-.11718h.34766l.35156-.11328.8711-.0586h1.75l1.04687.28907.41016.11719.28906.11718.35156.11719.28907.11719 1.05078.17187.28906.0586h.29297l.29297.05859.17187.0586.41016.05859.17187.0586.1172.05858h.11718l.11719.0586.35156.0586h.11328l.41016.0664 1.92187.39453 1.92578.39453 1.51953.44922 1.69532.71875 2.14453.80469 1.60547-.71875 1.42968-.80469 1.16016-1.07813 1.25-.44921 3.03516-.71875 1.875-.35938 2.14453-1.34765 2.23437-1.25391 2.5-1.25781 1.69531-.44922 1.78516-.17969 1.16016-.26953.625.53906 1.33984-.26953.71485-.98828.98437-1.34375.44531-.17969.80469-.35937 1.875-.53907 1.78516-.44921 1.25-.26954 1.16015-.08984 1.69922-.08984 1.96094-.26954 1.25-.08984h.53906l.625-.08984h.89063l2.14453-.17969 2.41015-.17969 2.58985-.08984 1.69531.17969 1.60938.08984 1.42968.35938 1.16016.71875 1.875.98828 1.16015 1.52734.26563.71484.6289.08985.35548.89844.53515.53906.53516 1.52734 1.07422.35938h.53515l-.80469.53515.08985 1.70703.71484 2.69532.89063.80468.89453.98829.71484 1.2578 1.78516.53907 1.51953-.17969.35547 1.34375 1.60937-.80469.98047-.53906.26953.26953.31641-.21484.21875-.14453.80078.44922.44922-.35938h.35547l.53515-.26953.53907-.71875.53515-.26953.625-.98828 1.16016.44922.83984.3711 1.39454.61718 1.6953-.17969h1.60548l1.78515.08985.17969-1.70704.53516-1.34375.80468.26954.4922.84765.40233.40625-.08984.53906v.35938l.71485.44922.71093-.26953h1.42969l.35938.98828.4453 1.25781.71485 1.34375 1.25.6289 1.69531.62891.71485-.17969.17969-.53906.98046-.08984.44922.35937.08594 1.25782-.26563.6289-.53515.17969v.53906l.71484.98438.26563.53906.98437.98828.80078 1.07813-.26562.35937-.08985.89844-.625 2.33203-.35546 2.0664-.08985 1.79298-.17969.71875-.08984.53906v1.4375l-.98047 1.88281-.35937 1.70703-.53516.89844-.80469 1.16797-.26562.53906 2.05469 1.2539.08593.35938-.35546.53906-.08985-.17968v.80859l.08985 1.4375-.44532.71484-1.07422.09375-.26562.71485.53515.89844.8047.71875 1.16015.80859 1.33984.26953.44531.35938-.35546.44921-1.78907-.08984-1.25-.44922-.71484-.71875-.625-.08984-.17578 3.58984-.1875 1.3086h89.35937V311.70313h-55.26953v49.08203l.76172.125 3.28906.54296 2.02344 2.83594v2.7539l2.35156.33204 2.34766.33203h4.05078l-1.3789 4.16016-2.02344.70703-2.02344.70312-.54297.34375-2.59375 1.6172-.1875.11718-2.02344-2.07813-.73046-2.74218-2.67188-2.07813-1.375-3.5-.0664-.08203-1.95704-2.67188 2.75-1.41796v-49.08204H294.42187v91.41407l.1172.03125.1328.01172.07422.07421.10547.04688.08985.0586.08593.05859.08985.0586.29687.29687.0586.08984.03125.11719.02734.11719.01563.13671-.03125.1172-.0586.08983-.0586.08594-.04296.10547-.04688.10156-.02734.1211v.14453l.17578.26953.14844.14844.07422.08594.07422.07421.04296.10547.0625.08985.0586.08593.04297.10547.0586.08985.04687.10156.04296.10547.0586.08594.11719.17968.07421.07422.0625.08594.0586.08984.04297.10547.0586.08985.05858.08593.0625.08985.0586.08984.04297.10156.11719.17969.07421.07422.0586.08594.07422.07421.08984.0586.10547.04687h.14844l.1328-.01562.13282.01562.10156-.04687.07422-.07422.04688-.10156-.01563-.13281v-.14844l-.04687-.10547-.02735-.11719-.04687-.10156-.02735-.1211-.04296-.10156-.0625-.08984-.04297-.10156-.04297-.10547-.03125-.11719-.01563-.13281-.01171-.13672.08593-.0586.0586-.08593.12109-.03125.04297.10547.01562.1328v.1172l.0586.10156.0586.08984.08983.0586.14844.14843.0586.08985.04296.10547-.01171.10156.08593.0586.10547.04687.08594.0586.08984.05858.07422.07422-.11719.02735-.10546.04687-.08594.0586-.07422.07421-.0586.08985-.0625.08594-.02734.12109-.04687.10156-.04297.10547-.03125.11719-.01172.13281-.01563.13281v.14844l.02735.11719.04687.10547.04297.10156.0586.08984.07421.07422.08985.0586.07422.07421.08984.0586.0586.08984.04296.10547.04688.10156.11719.03125.1328.01563h.14845l.11718-.03125.10547.04297.04297.10547.04688.10156.02734.1211L299.5 410l.02734.11719.03125.1211.02735.11718.10547.04297.10156.04687.13281-.01562.14844.14844.0625.08593.07422.07422.07031.07422.08984.0625.10547.04297.10156.04297.1172.03125.13671.01562.11719-.03125.07422-.07422.02734-.11718-.01172-.13282-.03125-.12109-.02734-.11719.04297-.10547h.11719l.08984.0625.11719.02735h.14843l.13282.01562h.14843l.13282.01563.1328-.01563h.14845l.1328-.01562.13282-.01172.13672.01172.11719-.02735.13281-.01562.1914-.0586-.05859.17579-.01562.1328-.02735.1211-.01562.13281-.0586.08594-.1328.01563-.10548.04687-.10546.04297-.1172.03125-.11718.02735-.26563.03125h-.14843l-.13281.01562-.07422.07422.05859.08594.14844.14843.11719.1797.07421.0703.08985.0625.08984.0586.08594.0586.08984.05858.10156.04297.10547.0625.10547.04297.08594.0586.10547.04687.10156.04297.17969.11719.0586.08984-.04298.10156-.04687.10547.01562.13281.22266.22266.0586.08985.04296.10156.03125.1211.04297.10155.01563.13282.03125.11718.01171.13672.03125.11719.14844.14844.10156.04297.10547.04296.1172.03125.1328.01563.13672.01563h.11719l.11719-.03125.08984-.0586.04297-.10547.04688-.10156.04296-.10547.03125-.11719.01172-.1328v-.14845l-.01172-.1328-.01562-.13282-.03125-.11719-.04297-.10547-.04688-.10547-.04296-.10156-.04297-.10547-.01563-.13281.01563-.13281.02734-.11719.03125-.11719.02735-.1211.04687-.10155.08984-.0586.08594-.0625.07422-.07422.08984-.05859.22266-.22266.0586-.08593.07421-.07422.11719-.17969.0586-.08594v-.14844l-.07423-.07421-.10156-.04688-.10547-.04297-.10156-.04297-.0586-.08984-.04687-.10547-.02734-.11719.08984-.05859.11719-.03125.10156-.04297.17969-.11719.14844-.14843.01172-.13282-.01172-.10546-.08985-.0586-.1328.01563h-.14845l-.1328.01562-.13282-.01562-.1211-.03125-.08593-.0586-.07422-.07422-.0586-.08984-.0625-.08594-.11718-.17969-.0586-.08593.03125-.1211.08594-.05859.1211-.03125.05859-.08594v-.1211l-.03125-.11718-.0586-.08984-.05859-.08594-.04687-.10547-.02735-.11719-.01562-.1328.0586-.08985.07421-.07422.08984-.0586.1172-.17968.07421-.07422.0586-.08594.14843-.14844.1211-.03125.1328-.01562.13282.01562.07422.07422.04297.10547.01562.13281-.03125.1172-.11719.03124-.1328.01172-.14844.14844-.04297.10547-.04688.10156-.02734.1211-.03125.11718v.14844l.03125.11719.04297.10546.05859.08985.07422.07031.07422.07422.11719.03125.12109.02734.11719-.02734.1328-.01563h.1172l.08984.0586.07422.07422.04687.10546.0586.08594.10156.04688.13281.01562.10547.04297.08594.0586-.01172.10546-.07422.07422-.17969.11719-.05859.08984-.08984.0586-.07032.07422-.07421.07421-.0625.08985-.02735.11719-.01562.1328.01562.13282-.01562.13281v.14844l.01562.13281.02735.1172.03125.12108.07421.07422.08985.0586.08594.0586.08984.05858.11719.03125v.08594l-.10157.04688-.08984.0586-.26563.03124-.11718.02735h-.14844l-.10547.04296-.10156.04688-.0586.08984-.0625.23438-.01171.13281-.03125.1211-.01563.1328v.29298l-.01172.1328.01172.13673.01563.1328.1328.01563.13282.01172.1211.03125.08593.0586.07422.07421.04688.10547.04296.10157.01563.1328v.44532l-.01563.13281v.44532l.03125.26562.02735.11719.01562.13281.03125.11719.08594.21094.03125.26562v.14844l-.03125.11719-.02734.11718-.03125.1211-.02735.11719-.03125.11718-.03125.1211-.01171.1328-.01563.13282.08984.0586.1172-.03125.10155.01562.04688.10547-.03125.26562v.44141l-.04297.10547-.04688.10547-.04296.10156-.04297.10547-.0586.08594-.03125.12109-.04296.11719-.03125.11719-.01563.1328.01563.13282.05859.08984.10547.04688.08594.0586.05859.08593-.01172.13672-.03125.11719-.04297.10156v.44531l-.01562.13281v.14844l-.03125.11719-.04297.10547-.02735.11719-.04687.10546-.04297.10157-.03125.12109-.02734.11719-.03125.13281-.03125.11719-.02735.11719-.04297.10546-.03125.1172-.03125.12108-.01171.13282-.01563.13281v.29688l.02734.11718v.14844l.04688.39844.02734.11719.0586.08984.12109.03125h.14844l.13281-.01563.0586.08985v.11719l-.0586.08984-.08984.0586-.10157.04296-.10546.04688-.08985.05859-.08594.0586-.13671.01562-.1172-.03125-.1328-.01563-.10157.04688-.0625.08594-.01172.13671-.01562.13282-.03125.11719-.02735.11718-.01562.13281-.03125.1211v.29687l.01563.13282.03125.11718v.14844l.01171.13281v.14844l-.02734.11719-.04688.10156-.02734.1211-.03125.11718-.0586.08985-.07421.07421-.10156.04297-.10547.04688-.11719.02734-.1211.03125-.10156-.04687.0586-.08594.10547-.04688.02734-.11718.03125-.11719.02734-.1211.03125-.11718v-.14844l.01563-.13281-.03125-.11719-.04297-.10547-.10547.01563-.07422.07422-.10156.04296-.08984.0625-.07422.07422-.04297.10157-.01563.1328-.03125.1172L304.25 426l-.03125.11719-.02734.11719-.03125.12109-.02735.11719-.03125.11718-.04297.10547-.08984.0586h-.08984l-.1172-.03125-.03124-.08594.01562-.13672-.03125-.11719v-.14844l-.01171-.1328v-.14844l-.0625-.23438-.02735-.1211-.04297-.10156-.04687-.10546-.0586-.08594-.05859-.08985-.04297-.10546-.0625-.08594-.14844-.14844-.0703-.07422-.10548-.04687-.10547-.04297-.10156-.04297-.29687-.29688-.08985-.07421-.08594-.0586-.10546-.04297-.08985-.0625-.08594-.0586-.10546-.04296-.08985-.0586-.08594-.0625-.07421-.0703-.10547-.04688-.08594-.0586-.10547-.04296-.08984-.0625-.10156-.04297-.10547-.04297-.08594-.0586-.10547-.04687-.10547-.04297-.10156-.04687-.08985-.0586-.10156-.04297-.10547-.04296-.08984-.0625-.11719-.02735-.13281-.01562-.13281.01562H299.75l-.13281.01563-.11719-.03125-.08984-.0586-.07422-.07422-.08985-.05859-.10156-.04688h-.14844l-.12109-.02734-.10156-.04297-.07422-.07422-.11719-.17968-.08984-.0586-.10156-.04297-.08985-.0625-.10547-.04296-.08984-.0586-.08594-.0586-.10547-.04687-.0586-.08594-.05858-.08984-.04297-.10547-.04688-.10156-.07422-.07422-.08594-.0586-.07421-.07421-.08985-.0586-.22265-.22265-.04297-.10547-.03125-.26563.10547-.04296h.14453l.10547.04296.07421.07422.08985.0586.08594.0586.10546.04687.08985.05859.14844.14844.0703.07422.14845.14843.0625.08594.07421.07422.08594.0586.07422.07421.08985.0625.08984.0586.08594.05859.26953.17578.10156.04688.10547.04296.10156.04297.04688-.07421.05859-.08594.07422-.07422.07031-.07422.10547.04297.07422.07422.0586.08984.04296.10156.04688.10547.04296.10547.1211.02735.11719-.02735.07421-.08984.04297-.10547.0586-.08985.07422-.07421.10546-.04297.1172-.02735.1328.01172.08985.0586.14844.14843.05859.08985.04297.10547.04687.10156.04297.10547.04297.10156.10547.04688.10547.04296.13281.01563.08594-.0586.0586-.08984.07421-.07422.10547-.04297.11719.02735.10547.04687.10156.04297.10547.04297.10156.04688.17969.11718v.11719l-.01563.13281.01563.13281.01562.13672.0586.08594.10156.04688.1211.02734.11718.03125h.14844l.11719-.03125.05859-.08984.17969-.1172.05859-.08983.07422-.07422.0586-.08594.11718-.17969.17969-.11719.11719.03125.08984.0586.04297.07422-.01563.1328v.1172l.08985.05859h.14843l.13282-.01563.1328-.01171.26563-.03125.10547-.04297.11719-.03125.1211-.02735.07421-.07421.07031-.07422.0625-.08985-.01562-.10547-.04688-.10156-.10156-.04297-.10547-.01562-.11718.02734-.26563.03125h-.14844l-.07421-.07422-.08985-.0586-.11719-.03124-.11718-.02735-.13282-.01562h-.14843l-.13282.01563h-.29687l-.10547-.04688-.14844-.14844-.04297-.10156-.05859-.08984.22266-.22266.08593-.0586.10547-.04296.11719-.03125.13281-.01563.13281.01563.13672.01562.10157.04297.1328-.01172.08985-.0625.10156-.04297.0625-.08984-.04687-.10156-.08984-.0586-.1172-.03125-.10155-.04296-.0586-.08985-.0625-.08984v-.11719l.01563-.13281.10547-.04688.07421-.07031v-.1211l-.08984-.05859-.03125-.11719.08985-.05859.07421-.07422.04297-.10547.0586-.08984.04687-.10156.01563-.13281v-.14844l-.04688-.10547-.04297-.10156-.08984-.0586-.13281-.01562-.10157-.04297-.13671-.01563-.1172-.03125h-.4453l-.13282-.01562-.13281-.01172-.13281-.01563-.11719-.03125h-.14844l-.13281-.01562-.13281-.01172-.26563-.03125-.1211-.04297-.08593-.0586-.07422-.07421v-.14844l.01172-.13281.10547-.04688.10156-.04296.13281-.01563h.15235l.13281-.01562h.29297l.1211.03125.10156.04296.08984.0586.23438.0625.12109-.04688.08984-.05859.10156-.04297.13282-.01562.10547.04296.10156.04688.13281.01172.1211-.02735h.14453l.12109-.03125.11719-.02734.10547-.04687.07421-.07422.08594-.0586.14844-.14843.0586-.08594.04687-.10547.02734-.11719.01563-.10547-.10156-.04296-.08985-.0586-.11719-.03125-.10546-.04297-.08985-.0625-.07422-.08594-.07422-.07421-.10156-.04297-.10547-.04688-.10156-.04297-.0586-.08984-.04687-.10156-.08594-.21094-.0625-.08594-.05859-.08984-.07422-.07422-.08594-.0586h-.26953l-.11719.03126-.08984.05859-.10156.04297-.13281.01562-.10547-.01562-.02735-.11719-.0625-.08984-.11718-.03125-.10157-.04297-.14843-.14844-.03125-.11719-.01563-.10546.07422-.07422.17969-.1172.11719-.02733.11718-.03125.13672.01562.10156.04297.10547.04297.10156.04687.10547.04297.1172.03125.1328.01563.1172.02734.1328.01563.10547-.01563.08985-.0586-.07422-.07421-.10547-.04297-.07422-.07422-.07422-.08984-.14844-.14844-.08593-.0586-.08985-.05859-.07422-.07422-.08984-.0586-.10156-.04687-.1211-.02734-.10156-.04688-.10547-.04296-.11719-.03125-.10156-.04297-.1211-.03125h-.14843l-.11719.03125-.10546.04297-.08594.0625-.17969.11718-.08594.0586-.08984.0586-.10547.04687-.08594.05859-.10547.04297-.10156.04297-.10547.04687-.07422.07422-.05859.08985-.0586.08593-.04687.10547-.0586.08594-.07421.07422-.13281-.01172-.1172-.03125h-.11718l-.07422.07422-.08984.0586-.07422.07421-.08984.0586-.08594.05859-.10547.04687-.10156.04297-.13672.01563-.10156-.04297-.14844-.14844-.10547-.04688h-.08594l-.10547.04688-.10156.04297-.1211.03125-.11718-.03125-.07422-.07422v-.11719l.03125-.1211.07422-.0703.0586-.08985.07421-.07422.11719-.03125.10547-.04296h.29297l.13281-.01563.13672-.01563.10156-.04296.08985-.0586.10156-.04687.08984-.0586.13281-.01171.08985.05859.13281.01172.08984-.0586.08594-.05859.10547-.04297.08984-.0586.08594-.0625.08985-.05859.14843-.14843.0586-.08594.05859-.08985.10547-.04296.13281-.01563.11719.02735.1211.03125.05859-.0586.05859-.08984.03125-.26563.02734-.11719.10547.01172.13281.01563.10157-.04297.08984-.0586.0586-.08984.07421-.07422.0586-.08984.04687-.10156.01172-.13281-.01172-.13282-.04687-.10547-.14844-.14843-.0586-.08985-.05859-.08594-.04297-.10546v-.44532l.01563-.1328v-.14845l.01172-.1328-.0586-.0586-.08984.0586-.10156-.04298-.17969-.11719-.08594-.05859-.0625-.08984-.0586-.08985-.07421-.07421-.08594-.0586-.1211.03125-.10155.01172-.10547.04688-.08594.05859-.10547.04297-.14844.14844-.08984.05859-.08594.0586-.08984.0625-.10547.04296-.13281.01563v-.1211l.10547-.04297.11718-.03125.07422-.0703.04297-.10548v-.14844l-.02734-.11718-.14844-.14844-.13281-.01563h-.14844l-.11719.03125-.10547.04297-.10156.04297-.08984.0625-.11719.02735-.07422-.07422.01172-.13281-.04297-.10157-.04297-.10547-.08984-.05859-.11719.02734-.1211.03125-.11718.03125-.10156.04297-.1211.03125-.10156.04297-.10547.04297-.08984.0586-.10156.01562v-.11719l.01562-.13281-.0586-.08985-.07421.04297-.14844.14844-.0586.08985-.07421.07421-.04688.10547-.04296.10156-.07422.07422-.0586.08985-.07422.07422-.05859.08593-.07422.07422-.08984.0625-.07422.07031-.07422.07422-.10156.01563-.13281.01562-.10547-.04296v-.1211l.14843-.14844.04297-.10156.0586-.08984.04687-.10156.04297-.10547.0586-.08985.03124-.11719.04297-.10156.03125-.1211.02735-.11718.04687-.10547.04297-.10156.04297-.10547.07422-.07031.08984-.0625.08985-.0586.10156-.04296h.29687l.26563-.03125.10547-.04297-.07422-.07422-.11719-.03125-.10547-.04297-.08984-.0586-.10156-.04687-.08985-.0586-.10156-.04296-.10547-.04297-.08984-.0625-.08594-.0586-.10547-.04296-.10156-.04297-.1211-.03125-.11718-.03125-.10157-.04297L297.5 410.25l-.10156-.04297-.08985-.0586-.04296-.10546-.01563-.13281.10156-.04297.13281-.01563.13672.01563.13282-.01563.10156-.04297.0586-.08984.01562-.10547-.08985-.0586-.07421-.07421-.10157-.04297-.08984-.0586-.14844-.14843-.04297-.10547-.01562-.13281v-.29297l-.0586-.08985-.08984-.05859-.07422-.07422-.04297-.10547-.03125-.11718-.0586-.08985-.07421-.07422-.11719-.02734-.07422-.07422-.08984-.0586-.08984-.0625-.08594-.05859-.07422-.07421-.0586-.08594-.04687-.10547-.08594-.0586-.14843-.14843-.19532-.0586-.1328.01563-.10157.04297-.07422.07422-.04688.10156-.04296.10547-.0586.08984-.0586.08594-.29687.29687-.08984.0586h-.08594l-.0625-.08594-.04297-.10547.03125-.11719.0586-.08984.02734-.11719-.01172-.13281-.08984-.0625-.10547.04688-.11719.02734-.11719.03125-.26953.17578-.10156.04688-.11719.02734-.10546.04687-.08985.0586-.10156.04297-.0586-.08594-.04687-.10547.01563-.13281.04687-.10547.07031-.07422.07422-.07031.0586-.08985v-.14843l-.04297-.10547h-.23829l-.10156.04687-.03125.11719-.02734.11719-.03125.1211-.07422.04296-.13281.01563-.07422-.04688-.04297-.10156-.04297-.10547-.04687-.10156-.04297-.10547-.1211.03125-.10156.04297-.13281.01562-.11719.03125-.10547.04297-.08984.0586-.10156.04687-.1211.02734-.13281.01563-.10156-.04297-.0586-.08985-.04687-.10546-.04297-.10157-.04297-.10546v-.1172l.0586-.08984.08593-.05859.17969-.11719.10156-.04687.10547-.04297.10547-.0586.10156-.04296.08985-.0625.10156-.04297.10547-.0586.10156-.04687.08984-.0586.10547-.04296.10156-.04297.08985-.0625.10156-.04297.13672-.01563.11719.03125.10156.04297.1211.03125.10156.04297.10546.04688.10157.04296.10547.04297.10156.04688.10547.04297.10156.04297.10547.04687.08594.0586.10546.04296.1172.03125.10546.04297.10156.04688.08985.0586.10547.04296.10156.04297.10547.04687.11719.02735.10156.04687.1211.02735h.14843l.08594-.0586.01562-.10156.0586-.08984-.02735-.1172-.07422-.07421-.11719-.17969-.07421-.07422-.08985-.07421-.17969-.1172-.08593-.05859-.10547-.04296-.10156-.04688-.26954-.17578-.05859-.08985-.07422-.07421-.0586-.08985-.04296-.10156-.03125-.11719-.01563-.13672v-.5625l-.01171-.1328-.01563-.13282-.03125-.11719-.01562-.13281-.01172-.13281-.03125-.1211-.22266-.22265-.0586-.08594-.01562-.10547.03125-.11719.13281-.01562v-91.41406H172.9922v1.45312l-.0586.23438-.35156 1.05078-.17187.52343-.1172.34766-.17577.41016-.11719.17187-.23438.29297-.23046.0586h-.35157l-.11718.05859-.23047.40625v.29297l.11719.17578.23046.23047.1172.23437.64062.75781.29297.46485.17578.23437.23047.35156.23437.34766.64063.8164.17578.46485.17187.41016.11719.69531.17578.46875.11719 1.39844.0586.46484v.875l.11718 1.04688v4.78125l-.0586.46484-.35156 1.28125-.17578.52344-.11328.41015-.35156.9297L172.93359 336l-.23437.58203-.11719.17578-.17187.34766-.17578.40625-.35157.8164-.0586.29297-.11327.29297-.11719.28906-.0586.17579-.11718.875-.0586.40625-.05859.11718-.0586.17579-.05859.17187-.23047.52734-.11718.17188v.23437l-.11719.23438-.0586.17187-.17577.58594v.28906l-.0586.17579v.29296l-.0586.11329-.05859.52734v.17187l-.05468.23438v2.6211l-.17578.8164-.1172.17578-.17577.23438-.1172.17187-.11327.23438-.58594.93359-.23047.28906-.29297.46485-.17578.23437-.28906.35156-.35156.69922-.11328.23047-.17579.41016-.17578.23046-.40625.52735-.8164.69922-.29297.17187-.28906.23438-.17579.11719-.17578.17578-.52344.40625-.52734.17578-.17187.17578-.23438.05469-.64062.17578h-.75782m12.21094 31.02344l-1.07422.44921.35938.89454 1.25-.71485.44531-.53906-.98047-.08985"/><path fill="#d3d3d3" fill-opacity="0" fill-rule="evenodd" d="M201.50781 416.59766h-.89453l.44922.6289.98047.35938.80469-.08985.4453-.98828-.17577.08985-.71485-.35547-.89453.35547m154.6211 59.0703l-.0586-.52343v-.29297l.11328-.29297.0586-.23046.46875-.46875h.11328l.11719-.11329.11718-.05859h.17579l.23437-.0586h.34766l.23437.0586.11719.0586.23047.17187.0586.17578.11718.58203v.29297l-.11719.17578-.17187.28906-.17579.17579-.52734.52343-.23047.23438-.11719.0586h-.17578l-.11718-.0586-.40625-.29297-.17579-.11719-.11718-.0586-.0586-.11327-.05468-.1172m6.64062-10.95702l-.0586-.17188v-1.10937l.0586-.17188.17578-.0586.17188-.05858h.17578l.23437-.0586.1172.0586.05858.69921-.05859.17188-.11719.17578-.11718.0586-.23438.52343-.11328.0586h-.23438l-.05859-.1172m9.61328-14.39062l-.11719-.17578v-.69922l.29297-.875.1172-.17187.17577-.35156.11328-.23047.1172-.29297.35155-.75781.1172-.23047.17187-.23438h.17578l.11719-.0586h.64062l.11719.0586.23437.23438.17188.11328.35156.29297.11719.11718.11328.17579v.11328l.11719.05859.11718.11719v.69922l-.05859.17578v.23047l-.0586.17578-.34765 1.05078-.11719.23047-.11719.23437-.11718.0586-.23047.23437-.64063.28906h-.875l-.41015-.11718-.64063-.46485"/><path fill="none" stroke="#bebebe" stroke-linecap="round" stroke-linejoin="round" stroke-miterlimit="10" stroke-width=".5" d="M467.95703 311.69531H144.02734v168.625h323.9297v-168.625"/><g clip-path="url(#a)"><path fill="#fff" fill-opacity="0" fill-rule="evenodd" d="M144 475.89063v4.4375h.0039H144V311.67188h.0039H144v164.21875"/></g><g clip-path="url(#b)"><path fill="#fff" fill-opacity="0" fill-rule="evenodd" d="M144.0039 480.32813V311.67188h79.88673v99.78515l-2.5586 2.29688 2.5586 2.37109 2.1875-2.3711-2.1875-2.29687v-99.78515h4.4375v123.54687l-.3711.72656.3711 1.04688 2.125 3.39062-1.02344 4.4375 1.30469 4.4414 1.85937 4.4375.17188.16798 3.47656 4.26953.96484 1.26953 1.21875 3.16797 3.21875 2.94922 4.4375-.52344 2.57031-2.42578-.95703-4.4375-1.61328-1.90625-2.26172-2.53125-1.125-4.4375-1.05078-2.51953-4.4375-.03516-2.21484-1.88672 2.21484-.82812 3.47266-3.60938-3.47266-3.3789-4.4414 1.67578-3.77344-2.73438-.66406-.72656V311.67187h4.4375v98.35157l-2.80079 3.73047-.80078 4.4375.48047 4.4375 3.1211 2.94921 4.4414.8711 4.4375-.98047 3.83203 1.60156.60547.57422 4.4375 2.41406 4.4375.35157 1.35156 1.09765 3.08985 1.84375 1.95703-1.84375 2.48047-2.01172 2.44922-2.42578-2.44922-2.26562-4.4375 1.04687-.89453-3.22265-.15235-4.4375-3.39453-2.5-4.4375-.66407-4.4375 1.62891-4.4375-.6914-1.09375-2.21094-3.34375-3.37891-4.4414-.35156v-98.35156h26.6328v91.3789l-1.7578 1.82422 1.7578 2.34375 4.4375.10938.95313-2.45313-.95312-1.08594-4.4375-.73828v-91.3789h13.3125v95.23828l-2.39063 2.40625-.95703 4.4375 3.34766 2.61328 1.59375 1.82422 1.8164 4.4375 1.03125 1.03125 3.4375 3.41015 1 .94531 2.17188 3.4922-2.17188 3.70702-.74218.73047.74218.71875.73047-.71875 3.70703-2.17187 2.25782-2.26563 2.17968-.46484v25.3711l-1.76953 1.72265 1.76953 1.625 1.51954-1.625-1.51954-1.72266v-25.3711l3.97266-3.97265-3.97266-3.9961-1.61718-.4453-1.62891-4.4375 1-4.4375-2.1914-2.57422-4.4375-1.8125-.33204-.05078-4.10547-2.01563-4.4414-.39062v-95.23829h71.01562V424.4336l-2.5586 2.63672 2.5586 2.55469 2.66016-2.55469-2.66016-2.63672V311.67188h4.4375v123.80078l-.28125.47265.28125.28125.28906-.28125-.28906-.47265V311.67187h31.07031v124.625l-4.4414 3.69922-.21485.38672.21485.85938.28125 3.57812-.28125.07813-4.08203 4.36328-.35547 2.02344-2.40625 2.41406 2.40625 3.35156 4.38281-3.35156.05469-.00781.09375.0078 4.34765 2.1875.48438 2.25.29688 4.4375 3.65625 3.9336 4.4375-.32031 3.30078-3.61328.46093-4.4375.67579-1.05078 3.3125-3.38672-3.3125-3.73828-4.4375.03515-3.3711 3.70313-1.0664.59765-2.51172-.59765-1.04297-4.4375 2.82031-4.4414.21875-4.4375-3.92188-4.08594v-124.625h8.875v118.01171l-1.53125 1.82422 1.53125 1.52735 3.21485-1.52735-3.21485-1.82422V311.67188h79.88672v106.35546l-.16406.16407.16406.1953v61.94142H144.00391"/></g><path fill="#50fcfc" fill-rule="evenodd" d="M223.89063 416.125l-2.5586-2.3711 2.5586-2.29687 2.1875 2.29688-2.1875 2.37109m4.4375 20.86719l-.3711-1.04688.3711-.72656.66406.72656 3.77344 2.73438 4.4414-1.67578v2.26953L235.5 440.3828l1.70703 1.1875 1.14063-1.1875-1.14063-1.10937v-2.26953l3.47266 3.3789-3.47266 3.60938-2.21484.82812 2.21484 1.88672 4.4375.03516v14.05078l-.55078 1.78125.55078.5039 2.26563-.5039-2.26563-1.78125v-14.05078l1.05078 2.51953 1.125 4.4375 2.26172 2.53125 1.61328 1.90625.95703 4.4375L246.08204 465l-4.4375.52344-3.21876-2.94922-1.21875-3.16797-.96484-1.26953-3.47656-4.26953-.17188-.16797-1.85938-4.4375-1.30468-4.4414 1.02344-4.4375-2.125-3.39063m1.3164-14.36328l-.48047-4.4375.80078-4.4375 2.80078-3.73047 4.44141.35156v1.65625l-4.4414 1.54297-.13282.17969-1.69922 4.4375 1.73828 4.4375.09375.08984 4.44141 2.16797 4.42578-2.25781-.64062-4.4375-2.08203-4.4375-1.70313-1.72266V410.375l3.34375 3.3789 1.09375 2.21094 4.4375.69141 4.4375-1.6289v1.92577l-2.21094 1.23829-2.22656 3.5-4.35547.9375 4.35547.71093 4.17188 3.73047.26562.16016.55469-.16016 3.88281-1.3711 1.69531-3.0703-1.6953-3.78125-.875-.65625-3.5625-1.23829v-1.92578l4.4375.66407 3.39452 2.5.15235 4.4375.89453 3.22265 4.4375-1.04687 2.44922 2.26562-2.44922 2.42578-2.48047 2.01172-1.95703 1.84375-3.08985-1.84375-1.35156-1.09765-4.4375-.35157-4.4375-2.41406-.60547-.57422-3.83203-1.60156-4.4375.98047-4.4414-.8711-3.1211-2.94921"/><path fill="#00e8fc" fill-rule="evenodd" d="M232.67188 422.6289l-1.73829-4.4375 1.69922-4.4375.13281-.17968 4.44141-1.54297v4.9414l-1.21094 1.21876 1.21094 2.28906.46875-2.28906-.46875-1.21875v-4.94141l1.70313 1.72266 2.08203 4.4375.64062 4.4375-4.42578 2.2578-4.4414-2.16796-.09375-.08984m4.53515 18.9414l-1.70703-1.1875 1.70703-1.10937 1.14063 1.10937-1.14063 1.1875"/><path fill="#00d4fc" fill-rule="evenodd" d="M237.20703 420.48047l-1.21094-2.28906 1.21094-1.21875.46875 1.21875-.46875 2.28906"/><path fill="#00e8fc" fill-rule="evenodd" d="M241.64453 463.07813l-.55078-.50391.55078-1.78125 2.26563 1.78125-2.26563.5039m4.4375-39.73828l-4.35547-.71093 4.35547-.9375 2.22656-3.5 2.21094-1.23829 3.5625 1.23829.875.65625 1.69531 3.78125-1.6953 3.0703-3.88282 1.3711-.55469.16016-.26562-.16016-4.17188-3.73047"/><path fill="#50fcfc" fill-rule="evenodd" d="M259.39844 407.21875l-1.75781-2.34375 1.7578-1.82422 4.4375.73828.95313 1.08594-.95312 2.45313-4.4375-.10938m13.3125 9.14844l-3.34766-2.61328.95703-4.4375 2.39063-2.40625 4.4414.39062v3.03516L273 413.7539l3.85156 4.4375.30078.55078 3.87891 3.88672.5586.55468.33984 3.88672 4.09765 4.28125 4.4375-1.07031 3.21485-3.21094-3.21485-3.23437-4.40234-1.20703-.03516-.07032-1.48828-4.36718.89844-4.4375-3.84766-3.22657-4.4375-.1914v-3.03516l4.10547 2.01563.33203.05078 4.4375 1.8125 2.19141 2.57422-1 4.4375 1.6289 4.4375 1.6172.4453 3.97265 3.9961-3.97266 3.97266-2.17968.46484-2.25782 2.26563-3.70703 2.17187-.73047.71875-.74218-.71875.74218-.73047 2.17188-3.70703-2.17188-3.49219-1-.9453-3.4375-3.41016-1.03125-1.03125-1.8164-4.4375-1.59375-1.82422"/><path fill="#00e8fc" fill-rule="evenodd" d="M276.85156 418.1914L273 413.7539l4.15234-3.41796 4.4375.1914v1.9336l-3.86718 1.29297 3.86718 3.86718 1.53907-3.86718-1.53907-1.29297v-1.9336l3.84766 3.22657-.89844 4.4375 1.48828 4.36718v.80079l-3.41796 3.71093 3.41796 3.57031 4.4375-1.62109 1.94922-1.94922-1.94922-1.96484-4.4375-1.7461v-.80078l.03516.07032 4.40234 1.20703 3.21485 3.23437-3.21485 3.21094-4.4375 1.07031-4.09765-4.28125-.33985-3.88672-.55859-.55468-3.8789-3.88672-.30079-.55078"/><path fill="#00d4fc" fill-rule="evenodd" d="M281.58984 417.6211l-3.86718-3.8672 3.86718-1.29296 1.53907 1.29297-1.53907 3.86718m4.4375 13.01954l-3.41796-3.57032 3.41796-3.71094v.73829l-2.74218 2.97265 2.74218 2.86328 4.4375-2.17968.6875-.6836-.6875-.6914-4.4375-2.28125v-.73829l4.4375 1.7461 1.94922 1.96484-1.94922 1.94922-4.4375 1.6211"/><path fill="#00c4fc" fill-rule="evenodd" d="M286.02734 429.9336l-2.74218-2.86329 2.74218-2.97265v.73437l-2.0625 2.23828 2.0625 2.15235 3.85938-2.15235-3.85938-2.23828v-.73437l4.4375 2.28125.6875.6914-.6875.6836-4.4375 2.17968"/><path fill="#00b8fc" fill-rule="evenodd" d="M286.02734 429.22266l-2.0625-2.15235 2.0625-2.23828v.73828l-1.3828 1.5 1.3828 1.44531 2.58594-1.4453-2.58594-1.5v-.73829l3.85938 2.23828-3.85938 2.15235"/><path fill="#00a8fc" fill-rule="evenodd" d="M286.02734 428.51563l-1.3828-1.44532 1.3828-1.5v.73438l-.70312.76562.70312.73438 1.31641-.73438-1.3164-.76562v-.73438l2.58593 1.5-2.58594 1.44531"/><path fill="#009800" fill-rule="evenodd" d="M286.02734 427.80469l-.70312-.73438.70312-.76562v.73828l-.02343.02734.02343.02344.04688-.02344-.04688-.02734v-.73828l1.31641.76562-1.3164.73438"/><path fill="#00ac00" fill-rule="evenodd" d="M286.02734 427.09375l-.02343-.02344.02343-.02734.04688.02734-.04688.02344"/><path fill="#50fcfc" fill-rule="evenodd" d="M290.46484 459.76172l-1.76953-1.625 1.76953-1.72266 1.51954 1.72266-1.51954 1.625m53.26172-30.13672l-2.5586-2.55469 2.5586-2.63672 2.66016 2.63672-2.66016 2.55469m4.4375 6.60156l-.28125-.28125.28125-.47265.28906.47265-.28906.28125m22.1914 20.82422l-2.40624-3.35156 2.40625-2.41406.35547-2.02344 4.08203-4.36328.28125-.07813-.28125-3.57812-.21485-.85938.21485-.38672 4.4414-3.69921v1.0664l-3.30859 3.01953 1.22266 4.4375-2.35547.65625-3.53906 3.78516 3.53906 3.84375 3.88672-3.84375.55469-2.14063 1.85546-2.30078 1.04297-4.4375-2.89844-3.01953v-1.0664l3.92188 4.08593-.21875 4.4375-2.82031 4.4414 1.04297 4.4375 2.51171.59767 1.06641-.59766 3.3711-3.70313v1.9375L386.5 453.69922l-2.82813 1.58594-2.93359 2.85156.82422 4.4375 2.10938 2.26953 4.4375-1.21094.96875-1.0586 1.39062-4.4375 2.07813-3.22655 1.1875-1.21094-1.1875-1.33985-4.4375-.42578v-1.9375l4.4375-.03515 3.3125 3.73828-3.3125 3.38672-.67579 1.05078-.46093 4.4375-3.30079 3.61328-4.4375.32031-3.65625-3.9336-.29687-4.4375-.48438-2.25-4.34765-2.1875-.09375-.0078-.05469.0078-4.38281 3.35157"/><path fill="#00e8fc" fill-rule="evenodd" d="M374.79297 453.10547l-3.53906-3.84375 3.53906-3.78516v.96485l-2.64063 2.8203 2.64063 2.8672 2.89844-2.8672-2.89844-2.8203v-.96485l2.35547-.65625-1.22266-4.4375 3.3086-3.01953v1.77735l-1.36329 1.24218 1.36329 2.83203 1.1914-2.83203-1.1914-1.24219v-1.77734l2.89843 3.01953-1.04297 4.4375-1.85546 2.30078-.5547 2.14063-3.88671 3.84375"/><path fill="#00d4fc" fill-rule="evenodd" d="M374.79297 452.1289l-2.64063-2.86718 2.64063-2.82031v.96093l-1.73828 1.85938 1.73828 1.88672 1.91015-1.88672-1.91015-1.85938v-.96093l2.89844 2.8203-2.89844 2.8672"/><path fill="#00c4fc" fill-rule="evenodd" d="M374.79297 451.14844l-1.73828-1.88672 1.73828-1.85938v.96094l-.83594.89844.83594.91015.92187-.91015-.92187-.89844v-.96094l1.91015 1.85938-1.91015 1.88672"/><path fill="#00b8fc" fill-rule="evenodd" d="M374.79297 450.17188l-.83594-.91016.83594-.89844.92187.89844-.92187.91015"/><path fill="#00d4fc" fill-rule="evenodd" d="M379.23438 443.21484l-1.36329-2.83203 1.36329-1.24219 1.1914 1.2422-1.1914 2.83202"/><path fill="#00e8fc" fill-rule="evenodd" d="M381.5625 462.57422l-.82422-4.4375 2.9336-2.85156v1.64843l-1.23829 1.20313 1.23829 3.54687 4.4375-3.49218.02343-.0547-.02344-.08983-4.4375-1.11329v-1.64843l2.82813-1.58594 1.60938-1.76563 4.4375.42579 1.1875 1.33984-1.1875 1.21094-2.07813 3.22656-1.39063 4.4375-.96875 1.0586-4.4375 1.21093-2.10937-2.26953"/><path fill="#00d4fc" fill-rule="evenodd" d="M383.67188 461.6836l-1.23829-3.54688 1.23829-1.20313 4.4375 1.11329.02343.08984-.02344.05469-4.4375 3.49218"/><path fill="#50fcfc" fill-rule="evenodd" d="M388.10938 433.03516l-1.53125-1.52735 1.53125-1.82422 3.21484 1.82422-3.21485 1.52735m79.88672-14.64844l-.16406-.19531.16406-.16407v.35938"/><g clip-path="url(#c)"><path fill="#fff" fill-opacity="0" fill-rule="evenodd" d="M467.9961 480.32813H468v-61.9375 61.9375h-.0039"/></g><path fill="#50fcfc" fill-rule="evenodd" d="M467.9961 418.02734v.35938l.0039.0039v-.36328h-.0039"/><g clip-path="url(#d)"><path fill="#fff" fill-opacity="0" fill-rule="evenodd" d="M467.9961 311.67188H468v106.35546-106.35546h-.0039"/></g><g clip-path="url(#e)"><path fill="none" stroke="#000" stroke-linecap="round" stroke-linejoin="round" stroke-miterlimit="10" stroke-width=".5" d="M144.35938 476.83203l-.71875 6.99219"/></g><path fill="none" stroke="#000" stroke-linecap="round" stroke-linejoin="round" stroke-miterlimit="10" stroke-width=".5" d="M144.2539 477.85156l1.13673-.46484"/><g clip-path="url(#f)"><path fill="none" stroke="#000" stroke-linecap="round" stroke-linejoin="round" stroke-miterlimit="10" stroke-width=".5" d="M158.89453 477.1914l-3.16016 6.27344"/></g><path fill="none" stroke="#000" stroke-linecap="round" stroke-linejoin="round" stroke-miterlimit="10" stroke-width=".5" d="M158.4375 478.10547l1.22656-.02735"/><g clip-path="url(#g)"><path fill="none" stroke="#000" stroke-linecap="round" stroke-linejoin="round" stroke-miterlimit="10" stroke-width=".5" d="M173.47656 478.26953l-5.6914 4.1211"/></g><g clip-path="url(#h)"><path fill="none" stroke="#000" stroke-linecap="round" stroke-linejoin="round" stroke-miterlimit="10" stroke-width=".5" d="M187.10547 481.86328l-6.32031-3.07031"/></g><g clip-path="url(#i)"><path fill="none" stroke="#000" stroke-linecap="round" stroke-linejoin="round" stroke-miterlimit="10" stroke-width=".5" d="M197.3164 483.84375l-.10937-7.02734"/></g><g clip-path="url(#j)"><path fill="none" stroke="#000" stroke-linecap="round" stroke-linejoin="round" stroke-miterlimit="10" stroke-width=".5" d="M208.71484 483.3086l3.72266-5.96094"/></g><g clip-path="url(#k)"><path fill="none" stroke="#000" stroke-linecap="round" stroke-linejoin="round" stroke-miterlimit="10" stroke-width=".5" d="M221.09766 482.46094l5.58593-4.26172"/></g><g clip-path="url(#l)"><path fill="none" stroke="#000" stroke-linecap="round" stroke-linejoin="round" stroke-miterlimit="10" stroke-width=".5" d="M238.22656 480.32813l-.01953-.19922-.0586-.19141-.09374-.17578-.45703-.3789-.19141-.0586-.19922-.01953-.19922.01953-.19531.0586-.45703.3789-.09375.17578-.0586.1914-.01953.19923.01953.19921.0586.19141.09375.17969.45703.375.19531.0586.19922.01952.19922-.01953.1914-.0586.45704-.375.09375-.17968.0586-.1914.01952-.19922"/></g><g clip-path="url(#m)"><path fill="none" stroke="#000" stroke-linecap="round" stroke-linejoin="round" stroke-miterlimit="10" stroke-width=".5" d="M249.92578 483.79297l1.1914-6.92578"/></g><g clip-path="url(#n)"><path fill="none" stroke="#000" stroke-linecap="round" stroke-linejoin="round" stroke-miterlimit="10" stroke-width=".5" d="M263.83594 483.84375v-7.02734"/></g><g clip-path="url(#o)"><path fill="none" stroke="#000" stroke-linecap="round" stroke-linejoin="round" stroke-miterlimit="10" stroke-width=".5" d="M280.52344 481.3164l-6.7461-1.97656"/></g><g clip-path="url(#p)"><path fill="none" stroke="#000" stroke-linecap="round" stroke-linejoin="round" stroke-miterlimit="10" stroke-width=".5" d="M290.3789 476.8164l.17188 7.02344"/></g><g clip-path="url(#q)"><path fill="none" stroke="#000" stroke-linecap="round" stroke-linejoin="round" stroke-miterlimit="10" stroke-width=".5" d="M303.54688 476.82422l.46875 7.01172"/></g><path fill="none" stroke="#000" stroke-linecap="round" stroke-linejoin="round" stroke-miterlimit="10" stroke-width=".5" d="M303.61328 477.84375l1.04297-.64844"/><g clip-path="url(#r)"><path fill="none" stroke="#000" stroke-linecap="round" stroke-linejoin="round" stroke-miterlimit="10" stroke-width=".5" d="M316.85547 476.82422l.48047 7.01172"/></g><path fill="none" stroke="#000" stroke-linecap="round" stroke-linejoin="round" stroke-miterlimit="10" stroke-width=".5" d="M316.92578 477.84375l1.04297-.64844"/><g clip-path="url(#s)"><path fill="none" stroke="#000" stroke-linecap="round" stroke-linejoin="round" stroke-miterlimit="10" stroke-width=".5" d="M328.65234 477.28516l3.51563 6.08593"/></g><path fill="none" stroke="#000" stroke-linecap="round" stroke-linejoin="round" stroke-miterlimit="10" stroke-width=".5" d="M329.16406 478.17188l.65235-1.03907"/><g clip-path="url(#t)"><path fill="none" stroke="#000" stroke-linecap="round" stroke-linejoin="round" stroke-miterlimit="10" stroke-width=".5" d="M340.91797 478.21484l5.61719 4.22657"/></g><path fill="none" stroke="#000" stroke-linecap="round" stroke-linejoin="round" stroke-miterlimit="10" stroke-width=".5" d="M341.73438 478.83203l.1914-1.21094"/><g clip-path="url(#u)"><path fill="none" stroke="#000" stroke-linecap="round" stroke-linejoin="round" stroke-miterlimit="10" stroke-width=".5" d="M353.53516 480.125l7.01171.40625"/></g><g clip-path="url(#v)"><path fill="none" stroke="#000" stroke-linecap="round" stroke-linejoin="round" stroke-miterlimit="10" stroke-width=".5" d="M367.2461 481.96094l6.22265-3.26563"/></g><g clip-path="url(#w)"><path fill="none" stroke="#000" stroke-linecap="round" stroke-linejoin="round" stroke-miterlimit="10" stroke-width=".5" d="M368.14844 481.48438l-1.01172-.69141"/></g><g clip-path="url(#x)"><path fill="none" stroke="#000" stroke-linecap="round" stroke-linejoin="round" stroke-miterlimit="10" stroke-width=".5" d="M380.1836 480.76172l6.97265-.86719"/></g><g clip-path="url(#y)"><path fill="none" stroke="#000" stroke-linecap="round" stroke-linejoin="round" stroke-miterlimit="10" stroke-width=".5" d="M393.8086 478.82813l6.35546 3"/></g><g clip-path="url(#z)"><path fill="none" stroke="#000" stroke-linecap="round" stroke-linejoin="round" stroke-miterlimit="10" stroke-width=".5" d="M413.75 479.64844l-6.89453 1.35937"/></g><g clip-path="url(#A)"><path fill="none" stroke="#000" stroke-linecap="round" stroke-linejoin="round" stroke-miterlimit="10" stroke-width=".5" d="M426.9961 479.3711l-6.76173 1.91406"/></g><g clip-path="url(#B)"><path fill="none" stroke="#000" stroke-linecap="round" stroke-linejoin="round" stroke-miterlimit="10" stroke-width=".5" d="M426.01172 479.64844l.85156.88672"/></g><g clip-path="url(#C)"><path fill="none" stroke="#000" stroke-linecap="round" stroke-linejoin="round" stroke-miterlimit="10" stroke-width=".5" d="M440.42188 480.74219l-6.98047-.82422"/></g><g clip-path="url(#D)"><path fill="none" stroke="#000" stroke-linecap="round" stroke-linejoin="round" stroke-miterlimit="10" stroke-width=".5" d="M453.73828 480.73438l-6.98047-.8125"/></g><g clip-path="url(#E)"><path fill="none" stroke="#000" stroke-linecap="round" stroke-linejoin="round" stroke-miterlimit="10" stroke-width=".5" d="M467.0664 480.09375l-7.01171.46875"/></g><g clip-path="url(#F)"><path fill="none" stroke="#000" stroke-linecap="round" stroke-linejoin="round" stroke-miterlimit="10" stroke-width=".5" d="M147.34766 465.94922l-6.69532 2.1289"/></g><path fill="none" stroke="#000" stroke-linecap="round" stroke-linejoin="round" stroke-miterlimit="10" stroke-width=".5" d="M147.34766 465.94922l1.7539 1.71484m11.70703-1.00781l-6.98828.71484m6.98828-.71484l1.3672 2.03906m11.96483-1.59375l-7.02343-.17578m7.02344.17578l1.09765 2.19532m12.15234-1.58594L180.5 466.3164m6.89063 1.39453l.6953 2.35156m12.39845-1.64844l-6.44532-2.80078m5.50781 2.39453l.09375 1.22266m14.08594-.66406l-6.30078-3.10547m5.38281 2.65625l.03907 1.22656m14.16406-3.9414l-6.24219 3.22265m19.61719-3.10156l-6.36328 2.98047m5.4375-2.54688l.98047.73828m11.93359 3.30078l-3.71094-5.96484m15.97266 6.40234l-1.60156-6.83984m1.36718 5.84375l-.92187.8086m15.66015-.33594l-3.97656-5.79297m3.39453 4.94922l-.5664 1.08984m15.33203-5.1875l-5.71485 4.08984m4.88282-3.49609l1.09765.54688m10.3125-2.60547l-.24218 7.01953m14.0664-6.96485l-1.26172 6.91016m1.07813-5.90625l1.16797-.3711m12.91406-.47265l-2.42969 6.59375m2.07813-5.63672l1.21484-.16406m12.52344-.76563l-2.57422 6.53516m14.39062-6.77344l.42579 7.01172m9.95312-5.0664l6.29688 3.12109m8.09375 1.27734l4.14453-5.67578m-3.53907 4.84766l-1.21484-.17188m17.01953-1.83593l-.01953-.20313-.0586-.1914-.09374-.17579-.45703-.375-.19141-.0586-.20313-.01952-.19921.01953-.19141.0586-.45703.375-.09375.17577-.0586.19141-.01953.20313.01953.19921.0586.19141.09375.17578.45703.375.1914.0586.19922.01953.20313-.01953.1914-.0586.45704-.375.09375-.17578.0586-.1914.01952-.19922m15.14063-2.0625l-5.69532 4.12109m19.375-3.48828l-6.42187 2.85547M425.89062 466l.96875.75781m13.54688.77344l-6.94922-1.03516m18.375 3.65235l-3.17187-6.26953m18.3125 3.96875l-6.82422-1.66797m5.83203 1.42578l.30469 1.1914"/><g clip-path="url(#G)"><path fill="none" stroke="#000" stroke-linecap="round" stroke-linejoin="round" stroke-miterlimit="10" stroke-width=".5" d="M147.26953 452.41016l-6.53906 2.57812"/></g><path fill="none" stroke="#000" stroke-linecap="round" stroke-linejoin="round" stroke-miterlimit="10" stroke-width=".5" d="M147.26953 452.41016L149.13672 454m11.61719-1.02344l-6.87891 1.44531m6.8789-1.4453l1.57032 1.8828m11.79297-1.58984l-6.97266.85547m6.97266-.85547l1.40625 2.01172m11.92969-1.74219l-7.01954.32031m7.01953-.3203l1.25 2.10937m12.0586-2.24219l-7.0039.58594m7.0039-.58594l1.32812 2.0625m11.98828-2.04297l-7.0039.54688m5.98437-.46875l.66016 1.03515m13.53125-1.8711l-6.71875 2.0586m6.71875-2.0586l1.73438 1.73438m11.49609-1.98046l-6.54688 2.55078m5.59375-2.1797l.9297.80079m13.5039.82031l-6.8789-1.42968m5.8789 1.22265l.34375 1.17578m11.67969 1.63672l-2.30079-6.64062m1.96875 5.67187l-.83593.90235m16.48828-1.70313L274 452.14844m18.83203-1.04688l-4.73047 5.19532m17.32031-5.70704l-3.28125 6.21485m2.8047-5.3086l1.22655-.0039m12.98829-.63672l-4.12891 5.6836m3.52734-4.85548l1.21485.17188m13.53515-.14063l-5.79687 3.96875m5.79687-3.96875l2.17578 1.13672m11.51172-.4375l-6.53906 2.57032m5.58594-2.19532l.9336.79688m13.2539-1.36328l-6.3789 2.94922m5.44921-2.51954l.98047.7422m8.63281-2.89845l2.88281 6.40625m10.89454-6.57812l1.96093 6.75m10.16797-6.14063l4.33203 5.53125m-3.70312-4.72656l.5-1.1211m15.58984-.20702l-2.47265 6.57812m16.26562-6.35547l-3.4336 6.13281m16.0547-3.0664l-.01954-.19922-.05859-.1914-.09375-.1797-.45703-.375-.1914-.05859-.20313-.01953-.19922.01953-.1914.0586-.45704.375-.09375.17968-.0586.19141-.01952.19922.01953.19922.0586.1914.09374.17578.45703.37891.1914.0586.19923.01953.20312-.01954.1914-.05859.45704-.3789.09375-.17579.0586-.1914.01952-.19922m8.82813.57812l6.92969-1.15625m13.26172 1.42188l-6.82032-1.6875m5.82813 1.4414l.29687 1.1875"/><g clip-path="url(#H)"><path fill="none" stroke="#000" stroke-linecap="round" stroke-linejoin="round" stroke-miterlimit="10" stroke-width=".5" d="M146.73828 438.17969l-5.47656 4.40625"/></g><path fill="none" stroke="#000" stroke-linecap="round" stroke-linejoin="round" stroke-miterlimit="10" stroke-width=".5" d="M146.73828 438.17969l2.2539.96875m11.53907-.17578l-6.4336 2.8203m6.4336-2.8203l1.92578 1.51953m11.67188-.41797l-7 .61719m7-.6172l1.33984 2.0547m11.98828-1.60547l-7.02344-.28125m7.02344.28125l1.0625 2.21484m12.19922-2.98047l-6.91406 1.2539m6.91406-1.2539l1.51953 1.92578m11.85156-1.375l-7.02734.14844m6.0039-.125l.59766 1.07031m13.72266-.66406l-6.99219-.70703m6.99219.70703l.92578 2.26953m12.28125-3.55468l-6.77734 1.85937m6.77734-1.85937l1.6836 1.78515m11.69921-1.48828l-6.91015 1.26953m5.90625-1.08594l.76172.96094m13.60156-.83203l-7 .64063m7-.64063l1.34375 2.05469m11.76953-.52344l-6.59766-2.42187m5.63672 2.0703l.16797 1.21485m14.10937-3.27734l-6.60156 2.41015m5.64063-2.0625l.91406.82032m13.53125-.52344l-6.9375 1.1211m5.92578-.95704l.74219.97656m13.32812-2.0039l-6.42578 2.84765m5.49219-2.43359l.96484.7539m13.19922-1.34374l-6.25781 3.1953m5.34766-2.73046l1.0078.70313m13.17188-1.25782l-6.16406 3.375m5.26563-2.88281l1.02734.67188m10.03125-2.98829l.14453 7.02344m-.125-6l1.07422-.60156m11.65625-.36328l1.27734 6.91015m-1.09375-5.90625l.96094-.76171m9.57031 1.84375l6.47266 2.73437m10.44922-4.85937l-.73828 6.98828m.6289-5.97266l1.14063-.46094m13.29687-.29297l-2.76562 6.46094m2.36328-5.51953l1.22266-.10547m12.36328-.88672l-2.5 6.5664m2.13672-5.61327l1.21484-.15235m11.38281-1.02734l-.33984 7.01953m15.8711-.92969l-4.76954-5.16015m19.21094 2.6875l-7.02344-.21875"/><g clip-path="url(#I)"><path fill="none" stroke="#000" stroke-linecap="round" stroke-linejoin="round" stroke-miterlimit="10" stroke-width=".5" d="M146.35547 424.46094l-4.71094 5.21484"/></g><path fill="none" stroke="#000" stroke-linecap="round" stroke-linejoin="round" stroke-miterlimit="10" stroke-width=".5" d="M146.35547 424.46094l2.3789.60156m-3.0625.16016l1.1875.29687m12.75-1.10937l-4.58984 5.3164m4.58984-5.3164l2.39454.54297m11.99218 1.11328l-6.73437 2.0078m5.7539-1.71874l.86329.875m13.42578.86719l-6.71875-2.0586m5.74219 1.75782l.23437 1.20703m13.27734.44922l-5.16015-4.76954m4.41015 4.07422l-.3125 1.1875m14.9961-1.41797l-6.39453-2.91797m5.46484 2.4922l.07422 1.22656m10.51172-5.7422l.92187 6.96485m13.82813-.10547l-1.94922-6.7539m16.39062 6.1914l-4.20312-5.6289m3.59375 4.8125l-.52344 1.10937m14.64844-.45312l-4.60156-5.3086m3.93359 4.53516l-.4414 1.14453m13.51562.19922l-2.78516-6.44922m2.3789 5.51172l-.76562.95703m15.3125-.51953l-4.4375-5.44922M292.03906 429l-.47656 1.1289m11.71094.41798l1.01172-6.95704m-.86329 5.94532l-1.15625.41406m17.14844-5.51953l-4.63672 5.27734m3.96094-4.51172l1.19531.28125m13.66407.11719l-6.375 2.94922m5.44921-2.51953l.97657.73828m12.3789-2.34766l-4.60547 5.3086m3.9375-4.53516l1.19532.27344m12.29297-1.40625l-3.61329 6.02734m16.30079-6.32422l-2.35938 6.6211m2.01563-5.65625l1.21484-.1797m11.17969-.98827l.17187 7.02734m-.17187-7.02734l2.13672-1.20313m11.87109 1.25782l-1.21484 6.91796m1.21484-6.91796l2.33203-.76172m-2.50781 1.76562l1.16406-.3789m12.82813-.5l-2.21875 6.66796m1.89453-5.69921l1.21093-.20313m13.57813-.125l-4.51563 5.38672m4.51563-5.38672l2.39844.51172m9.98828-1.07031l-2.66406 6.5039m2.27734-5.5586l1.22266-.12108m13.6953.0078l-5.09374 4.84376m4.35156-4.14063l1.16406.38672m8.94922-1.89453l2.79297 6.44922"/><g clip-path="url(#J)"><path fill="none" stroke="#000" stroke-linecap="round" stroke-linejoin="round" stroke-miterlimit="10" stroke-width=".5" d="M146.4375 411.22266l-4.875 5.05859"/></g><path fill="none" stroke="#000" stroke-linecap="round" stroke-linejoin="round" stroke-miterlimit="10" stroke-width=".5" d="M146.4375 411.22266l2.35938.67578m10.60546-.97266l-4.17578 5.65235m4.17578-5.65235l2.42578.36328m-3.03125.46094l1.21094.17969m12.03516-1.39453l-2.82422 6.43359m2.82422-6.4336l2.44531-.18359m9.71875-.10156l-.52344 7.00781m17.0586-3.98047l-6.96485.95313m13.70313 1.1875l6.1875-3.32813m9.46094 5.09375l1.51953-6.85937m10.98437 6.57031l3.14453-6.28515m-2.6875 5.37109l-1.22656.03125m15.64844 1.2539l.01953-7.02734m-.01953 6.00781l-1.08203.57032m15.77734.17187l-2.74219-6.46875m2.34375 5.52735l-.77343.95312m13.8164.19531l-1.40234-6.88281m1.19922 5.88281l-.94922.78125m15.45312-.14062l-3.37109-6.16406m18.34375 4.16406l-6.6875-2.16406m19.77344-.54688l-6.23047 3.2539m5.32422-2.77734l1.01172.6914m12.55078-2.05468l-4.91016 5.02735m4.19531-4.29297l1.17579.34375m11.91015-1.73438l-3.02344 6.34375m2.58204-5.42187l1.22656-.0547m13.29297-.37108l-4.55078 5.35156m3.89062-4.57422l1.19531.26172m13.21094-.60156l-5.41406 4.47656m4.6289-3.82422l1.13282.46484m11.89843-1.98828l-3.27343 6.21875m2.79687-5.3164l1.22656-.00391m10.78125-1.30078l.29297 7.02344m-.29297-7.02344L398.95704 409m12.2578 1.35938l-1.82812 6.78515m1.82812-6.78515l2.39063-.54688m9.67969.4414l.66406 6.9961m-.66406-6.9961l2.04687-1.35156m11.41016 1.34375l.3789 7.01563m-.32421-5.9961l1.05078-.6328m12.17578-.38673l.44922 7.01172m12.96093.00782l.25391-7.02344"/><g clip-path="url(#K)"><path fill="none" stroke="#000" stroke-linecap="round" stroke-linejoin="round" stroke-miterlimit="10" stroke-width=".5" d="M146.4375 397.90625l-4.875 5.0625"/></g><path fill="none" stroke="#000" stroke-linecap="round" stroke-linejoin="round" stroke-miterlimit="10" stroke-width=".5" d="M146.4375 397.90625l2.35938.67188m-3.07032.0664l1.17969.33594m12.42969-1.41797l-4.03906 5.75m4.03906-5.75l2.4336.30469m-3.02345.53125l2.4375.30469m9.98438-1.73829l-1.07422 6.94532m1.07422-6.94532l2.3164-.80859m-2.47265 1.82031l1.15625-.40234m10.40625-.3711l2.74219 6.46875m-2.34375-5.52734l.77343-.95312m10.01172 2.95703l7.0039.57812m-5.98437-.49219l-.48437-1.1289m12.98437.125l6.59766 2.41797m-5.64063-2.0664l-.16796-1.21485m12.30859 2.05078l7.02734.03906m-6.0039-.03125l-.57031-1.08984M233.9453 401.75l6.51953-2.6211m9.95703 4.82032l.19922-7.02344m13.95703 6.94531l-1.48828-6.86718m1.27344 5.86718l-.9375.79297m16.23438-.76953l-5.01954-4.91406m4.28907 4.19922l-.34375 1.17969m15.09375-1.5l-6.42578-2.84375m5.48828 2.42968l.08984 1.22266m14.45703-2.44531l-7.01562.42968m5.99219-.36718l.64453 1.04687m13.33203-2.45703L313.94922 402m5.3789-2.67188l.9961.71485m13.16797-1.29297l-6.16406 3.3789m5.26562-2.88671l1.02734.67187m12.3672-2.16406l-4.52735 5.375m3.8711-4.59375l1.19921.25781m13.76953.34375l-6.51953 2.61328m5.57422-2.23437l.9375.79297m11.16016-3.20313l-2.19532 6.67578m1.875-5.70703l1.21094-.20703m12.23438-.82031l-1.8125 6.78906m1.8125-6.78906l2.39062-.55469m9.72656.44922l.58203 7.0039m-.58203-7.0039l2.0664-1.32813m10.19142 1.58594l2.6953 6.48828m-2.30077-5.54687l.77734-.94531m12.5586-.14063l1.86718 6.77344m-1.59375-5.78906l.89063-.83985m11.84375-.04297l2.48047 6.57422m-2.1172-5.6211l.8086-.91796m13.19531-.25781l.37891 7.01562m-.32422-5.9961l1.05078-.6328m14.66797 5.80468l-4.53906-5.36328"/><g clip-path="url(#L)"><path fill="none" stroke="#000" stroke-linecap="round" stroke-linejoin="round" stroke-miterlimit="10" stroke-width=".5" d="M146.58984 384.75l-5.17968 4.7461"/></g><path fill="none" stroke="#000" stroke-linecap="round" stroke-linejoin="round" stroke-miterlimit="10" stroke-width=".5" d="M146.58984 384.75l2.3125.8164m-3.0664-.125l1.15625.40626m12.28906-1.63672l-3.9336 5.82422m3.9336-5.82422l2.4414.26172m-3.01171.58593l1.21875.12891m12.73828-.92578l-4.07813 5.72265m4.07813-5.72265l2.4336.32031m-3.02735.51172l2.4336.32031m12.60155.17969l-6.32812 3.0586m6.32813-3.0586l1.98046 1.44531m10.97266 2.20313l-5.60547-4.23828m18.32031-.6172l-4.40625 5.47267m3.76563-4.67579l1.20703.23047m7.03125 1.69531l7.02734.02735m-6.0039-.02344l-.57031-1.08594m13.73828 3.41797l5.27734-4.64453m-4.50781 3.96875l-1.14844-.4336m14.45703 1.75782l3.75-5.9414m-3.20312 5.07812l-1.22266-.08985m15.60938 1.48829l.51562-7.00782m-.4414 5.98829l-1.1211.49218m17.76953-1.42187L274 385.5664m5.38281 2.66015l.03516 1.22656m14.53515-1.89843l-6.97265-.86328m5.95703.73828l.4375 1.14844m13.36719-3.34375l-5.92188 3.78125m18.48438-4.625l-4.41797 5.46484m3.77344-4.67188l1.20703.23438m13.34375-.41406l-5.60156 4.23828m4.78906-3.6211l1.11328.51563m13.45312-.3711l-6.48046 2.71485m5.53906-2.32031l.94922.77734m11.72656-2.91016l-3.3164 6.19141m3.3164-6.1914l2.45312.0078m10.80079-.04296l-3.19141 6.26172m3.1914-6.26172l2.45313-.04297m-2.91797.95312l1.22656-.01953m11.40625-1.2461l-.89843 6.97267m.89843-6.97266l2.29688-.86328m-2.42969 1.8789l1.14844-.43359m12.65625-.51563l-1.61719 6.83985m1.61719-6.83985l2.375-.62109m10.35547.53516l-.44531 7.01172m.4453-7.01172l2.23438-1.01172M423 383.66407l1.23438 6.91796m-1.0547-5.91015l.96485-.75782m11.71485-.13672l2.14453 6.69141m-1.83204-5.71875l.85547-.8789m11.625.12109l3.1875 6.26172m-2.72265-5.35157l.70312-1.0039m15.88672 6.00781l-4.28906-5.5664m3.66406 4.7578l-.50781 1.1172"/><g clip-path="url(#M)"><path fill="none" stroke="#000" stroke-linecap="round" stroke-linejoin="round" stroke-miterlimit="10" stroke-width=".5" d="M145.7539 370.76563l-3.5078 6.08593"/></g><path fill="none" stroke="#000" stroke-linecap="round" stroke-linejoin="round" stroke-miterlimit="10" stroke-width=".5" d="M145.7539 370.76563l2.45313.08203m10.55469-.2422l-2.89453 6.40235m2.89453-6.40234l2.44922-.15625m11.77734.7539l-4.71875 5.20704m4.71875-5.20704l2.3789.60157m11.54688.125l-5.9375 3.75781m5.9375-3.75781l2.13281 1.21484m11.33204-.95312l-6.23828 3.23437m5.33203-2.76562l1.0078.69921M212.5 370.8672l-3.84766 5.88281m3.28516-5.02734l1.22266.11328m11.62109-1.42578L223 377.20703m1.78125-6.79687l2.38672-.56641m8.73828 7.22656l2.60156-6.52734m-2.60156 6.52734l-2.4414.26953m15.26171-.51171l3.58594-6.04297m-3.58594 6.04296l-2.44922-.11328m15.0547-.4414l5.0039-4.9336m-4.27344 4.21875l-1.17187-.36718m16.77734 2.09375l-1.03516-6.95313m17.33594 3.21875l-7.00781.51563m19.91797-1.91407l-6.19532 3.3125m5.29297-2.83203l1.01953.6836m13.51563 1.3125l-6.83203-1.64454m5.83984 1.40625l.30469 1.1875m14.07031-2.22265l-6.96875.90234m5.95703-.76953l.71094 1m11.64453-3.85156l-3.02344 6.34375m2.58204-5.42188l1.22656-.05078m11.80469-1.125l-1.57422 6.85156m1.57422-6.85156l2.36718-.63672m10.91407.62891l-1.50782 6.86328m1.50782-6.86328l2.36328-.65625m11.4375.80078l-2.48047 6.57813m2.48047-6.57813l2.43359-.3125m10.94922.33985l-2.61328 6.52343m2.61328-6.52344l2.4375-.26562m10.07422.05078l-1.0039 6.95313m1.0039-6.95313l2.3086-.83203m10.58593.79688l-.16797 7.02343m.14453-6.0039l1.09766-.54688m11.90234-.46484l.51172 7.00781m-.4375-5.98828l1.03906-.65235m10.46094.2461l3.99219 5.78125m13.1211.125l-3.60157-6.03125m3.60156 6.03125l-1.26953 2.10156"/><g clip-path="url(#N)"><path fill="none" stroke="#000" stroke-linecap="round" stroke-linejoin="round" stroke-miterlimit="10" stroke-width=".5" d="M145.55078 357.33984l-3.10156 6.3047"/></g><path fill="none" stroke="#000" stroke-linecap="round" stroke-linejoin="round" stroke-miterlimit="10" stroke-width=".5" d="M145.55078 357.33984l2.45313-.07812m9.80859-.2461l-.9961 6.95704m.85157-5.94532l1.15234-.41796m13.39453-.25391l-3.16797 6.27344m2.70704-5.35938l1.22656-.02734m12.5664-.875l-3.20312 6.2539m2.73828-5.34375l1.22656-.01953m12.6875-.82031l-3.47265 6.10938m2.96875-5.21875l1.22656.03125m12.32813-1.0547l-2.94532 6.37891m2.51953-5.45312l1.22266-.0664m14.09375.58202l-6.09375 3.4961m5.20703-2.98828l1.03906.65234m13.55078 1.33203l-6.86718-1.49219m5.86719 1.27735l.33203 1.17969m10.3789 1.80078l.33985-7.01954m-.29297 5.9961l-1.10938.52344m12.54688-.1211l4-5.78125m-3.41797 4.9414l-1.21875-.14452m15.23437 1.53515l1.4336-6.8789m-1.22266 5.8789l-1.17969.33985m18.23438-1.40235l-6.46485-2.7539m5.52344 2.35156l.10547 1.22266m14.39063-1.67579l-6.94922-1.04296m6.94922 1.04296l.8203 2.3125m12.53516-2.77734l-7.02734-.11328m6.0039.09375l.5586 1.09375m12.6289-3.73047l-4.72656 5.19922m4.03907-4.4414l1.1914.30077m10.15625-1.96093l.58594 7.0039m-.5-5.98437l1.03125-.66406m11.88281-.31641l1.21485 6.92188m-1.21485-6.92188l1.9375-1.50781m11.51953 1.48828l.9297 6.96484m-.9297-6.96484l1.9961-1.42969m12.61328 1.4961l-1.65625 6.82812m1.65625-6.82813l2.375-.60937m12.48828 1.4375l-4.7539 5.17578m4.7539-5.17578l2.375.61719m10.71875-.80469l-4.3125 5.55078m4.3125-5.55078l2.41797.41797m10.73047-.53906l-3.98047 5.79296m3.40234-4.94921l1.21875.13671m12.89453-.8164l-4.41796 5.46484m4.41796-5.46484l2.41016.46875m11.875.76562l-6.35937 2.9922m5.43359-2.5547l.98437.73438m10.63672 3.79297l-1.11718-6.9375m1.11718 6.9375l-1.95703 1.48047"/><g clip-path="url(#O)"><path fill="none" stroke="#000" stroke-linecap="round" stroke-linejoin="round" stroke-miterlimit="10" stroke-width=".5" d="M145.95703 344.26172l-3.91406 5.83203"/></g><path fill="none" stroke="#000" stroke-linecap="round" stroke-linejoin="round" stroke-miterlimit="10" stroke-width=".5" d="M145.95703 344.26172l2.4414.25m11.36329.14453l-4.89063 5.04297m4.89063-5.04297l2.35547.67969m9.48828-1.53516l-1.94922 6.7539m1.66406-5.76952l1.20313-.25391m10.4961-.74219l1.85155 6.77735m-1.58203-5.79297l.89453-.83985m10.03907 1.48047l6.07812 3.52735m-5.19531-3.01563l.04687-1.22265m11.92578 2.15234l6.9961.64453m6.4336-1.26563l6.76562 1.88672m13.40234-.39453l-6.9414-1.09765m18.82812 3.41015l-4.08203-5.72265m3.48828 4.89062l-.54688 1.09766m12.32813.38672l.17188-7.02735m-.14844 6.0039l-1.09766.55079m15.58203.29297l-2.21484-6.66797m2.21484 6.66797l-1.6914 1.77734m16.65625-2.92969L287.71094 345m5.51172 4.35938l-.44141 2.41406m14.39453-3.69922l-6.79297-1.79297m6.79297 1.79297l.5625 2.39062m12.67969-4.42968l-6.64453 2.28515m6.64453-2.28515l1.79297 1.67578m10.24219-3.39063l-4.08594 5.71485m4.08594-5.71485l2.43359.32422m7.40234-.67187l2.8711 6.41406m-2.8711-6.41406l1.50782-1.9375m11.57421 2.05078l3.33985 6.1836m-3.33985-6.1836l1.35938-2.04297m13.67969 1.6211l-.10547 7.02734m.08984-6.00391l1.08985-.5586m14.82421.73048L381.03125 349.5m4.51172-3.96875l1.14844.4336m13.07812-.9297l-5.5664 4.28907m5.5664-4.28906l2.23438 1.01171m11.24218-.78515l-5.88671 3.83594m5.88671-3.83594l2.14844 1.1836m11.15235-1.20313l-5.86329 3.8711m5.86329-3.8711l2.15625 1.17187m-3.00782-.60937l1.07813.58594m13.39844-.57032l-6.48047 2.71485m6.48047-2.71485l1.89843 1.55469m11.29688-1.8125l-6.24219 3.23047m6.24219-3.23047l2.01953 1.39453m11.67578-.08594l-7 .6172"/><g clip-path="url(#P)"><path fill="none" stroke="#000" stroke-linecap="round" stroke-linejoin="round" stroke-miterlimit="10" stroke-width=".5" d="M467.0625 346.8711l1.33594 2.05468"/></g><g clip-path="url(#Q)"><path fill="none" stroke="#000" stroke-linecap="round" stroke-linejoin="round" stroke-miterlimit="10" stroke-width=".5" d="M146.28125 331.1914l-4.5625 5.34376"/></g><path fill="none" stroke="#000" stroke-linecap="round" stroke-linejoin="round" stroke-miterlimit="10" stroke-width=".5" d="M146.28125 331.1914l2.39844.53516m10.33594-.9375l-3.39844 6.14844m3.39844-6.14844l2.45312.03906m11.92188.85938l-5.51954 4.35156m4.71485-3.71875l1.125.49219m12.96484-1.16016l-5.46094 4.42188m4.66407-3.78125l1.1328.48047m11.89454-2.01563l-3.29297 6.21094m2.8125-5.30469l1.23047-.0039m9.625-1.0625l2.58594 6.53125m-2.20703-5.58204l.79297-.93359m12.70312-.1875l1.46875 6.875m14.23047-.33594l-3.30078-6.20312m17.79297 5.1875l-5.65235-4.17188m4.82813 3.56641l-.17969 1.21094m13.69922.04297l-4.41406-5.46875m4.41406 5.46875l-.96094 2.2578m14.49219-2.44921l-4.84766-5.08594m4.84766 5.08594l-.76953 2.32813m.0664-3.07032l-.38672 1.16797m14.625-.65625l-5.28906-4.625m5.28906 4.625l-.55859 2.39063m-.21094-3.0625l-.27734 1.1953m15.19922-2.36718l-6.96094-.9414m6.96094.9414l.85156 2.30469m12.3789-3.67188l-6.79296 1.79688m6.79297-1.79688l1.66797 1.80079m11.38671-2.4922l-6.26953 3.17579m6.26954-3.17578l2.0039 1.41406m10.07422-2.78125l-3.80078 5.91406m3.25-5.05469l1.22265.10157m7.98047-.17188l5.52735 4.33594m-4.72266-3.70703l.21485-1.20703m12.08984.8711l5.9414 3.75m-5.07812-3.20704l.08984-1.22266m17.78516.03907l-4.90625 5.03125m4.1914-4.30079l1.1797.34375m13.07812-.82812l-5.36328 4.53906m4.58203-3.8789l1.14062.45703m13.46094-.32422l-6.375 2.95312m5.44922-2.52343l.97656.73828m13.4961-.50781l-6.83594 1.6328m6.83594-1.6328l1.62109 1.83593m11.59766-2.16797l-6.64454 2.29688m6.64454-2.29688l1.79687 1.67188m-2.76562-1.33594l.89843.83203m13.25-1.4961l-6.375 2.95313m6.375-2.95312l1.95704 1.48437m11.35156-1.5039l-6.35938 2.99219"/><g clip-path="url(#R)"><path fill="none" stroke="#000" stroke-linecap="round" stroke-linejoin="round" stroke-miterlimit="10" stroke-width=".5" d="M466.74219 332.36719l1.96484 1.46875"/></g><g clip-path="url(#S)"><path fill="none" stroke="#000" stroke-linecap="round" stroke-linejoin="round" stroke-miterlimit="10" stroke-width=".5" d="M145.96875 317.63672l-3.9375 5.82422"/></g><path fill="none" stroke="#000" stroke-linecap="round" stroke-linejoin="round" stroke-miterlimit="10" stroke-width=".5" d="M145.96875 317.63672l2.4375.25781m10.45313-.5039l-3.08594 6.3125m3.08594-6.3125l2.44921-.08204m12.23828 1.28125l-5.83203 3.91797m5.83203-3.91797l2.16407 1.15235m11.05078-1.29297l-5.63281 4.19922m4.8125-3.58985l1.10937.52735m12.5625-1.64844l-4.70703 5.21875m4.70703-5.21875l2.3789.59375m10.79688-.71094l-4.42969 5.45313m4.4297-5.45313l2.41015.47266m10.9961-.39453l-4.60938 5.30078m16.1211.82422l-1.00392-6.95313m1.00391 6.95313l-1.97656 1.45312m17.14062-2.32031l-4.70312-5.21875m4.70312 5.21875l-.83593 2.3086m.15234-3.06641l-.41797 1.15234m14.55078-.51953l-4.96875-4.96875m4.96875 4.96875l-.71875 2.34766m-.0039-3.07032l-.71875 2.34766m14.92578-1.80469l-5.3086-4.60937m5.3086 4.60937l-.55078 2.39063m-.22266-3.0625l-.55078 2.39453m15.14062-2.48438l-6.3125-3.08593m6.3125 3.08593l.08594 2.45313m12.94531-6.01953l-5.74218 4.05078m5.74218-4.05078l2.1875 1.10547m10.9961-1.28125l-5.48047 4.40234m5.48047-4.40234l2.2539.96875m11.51172-.2422l-6.3789 2.94532m6.3789-2.94531l1.95313 1.48437m11.08203-1.97656l-5.82422 3.9336m5.82422-3.9336l2.16797 1.15235m-3.01563-.58204l1.08594.57813m11.78906-2.30078l-3.2461 6.23437m3.2461-6.23437l2.45313-.01953m8.27734-.2422l1.92578 6.75782m-1.64844-5.77344l.88672-.85156m13.52344-.24219l-.82031 6.98047m.69922-5.96484l1.14453-.44531m9.72656.14453l4.3086 5.55078m-3.6836-4.74219l.5039-1.1211m10.9961 2.01173l6.6875 2.15234m13.48047-1.27734l-7.01563.39843m17.69532-3.60156l-1.7461 6.8086m1.4922-5.81641l1.1914-.28906m14.9961 2.30078l-6.98438.79687m6.98437-.79687l1.39063 2.02344m11.64843-3.03907l-6.43359 2.82813"/><g clip-path="url(#T)"><path fill="none" stroke="#000" stroke-linecap="round" stroke-linejoin="round" stroke-miterlimit="10" stroke-width=".5" d="M466.77734 319.13281l1.92579 1.51953"/></g><path fill="none" stroke="#000" stroke-linecap="round" stroke-linejoin="round" stroke-miterlimit="10" stroke-width=".5" d="M465.84375 319.54688l.96094.7578"/><path fill="#00f" fill-rule="evenodd" d="M237.33594 476.52344h8.61719V466.3789h-8.6172v10.14453"/><path fill="azure" fill-rule="evenodd" d="M239.16797 468.21094H240v2.82422h3.28516v-2.82422h.83593v6.48047h-.83593v-2.91407H240v2.91407h-.83203v-6.48047"/><path fill="#ff3030" fill-rule="evenodd" d="M459.94531 463.21094h7.69531V453.0625h-7.6953v10.14844"/><path fill="azure" fill-rule="evenodd" d="M461.78125 454.89844h.83203v5.73828h3.1914v.74219h-4.02343v-6.48047"/><path fill="#00f" fill-rule="evenodd" d="M383.80078 432.14063h8.61719v-10.14454h-8.61719v10.14454"/><path fill="azure" fill-rule="evenodd" d="M385.63281 423.82813h.83203v2.82421h3.28907v-2.82421h.83203v6.48046h-.83203v-2.91796h-3.28907v2.91796h-.83203v-6.48046"/><path fill="#ff3030" fill-rule="evenodd" d="M295.72656 401.07422h7.69531v-10.14844h-7.6953v10.14844"/><path fill="azure" fill-rule="evenodd" d="M297.5586 392.76172h.83593V398.5h3.1914v.73828h-4.02734v-6.47656"/><path fill="#00f" fill-rule="evenodd" d="M370.48438 396.63281h8.62109v-10.14453h-8.6211v10.14453"/><path fill="azure" fill-rule="evenodd" d="M372.3164 388.32031h.83594v2.82422h3.28516v-2.82422h.83203v6.48047h-.83203v-2.91406h-3.28516v2.91406h-.83593v-6.48047"/><path fill="#ff3030" fill-rule="evenodd" d="M229.15234 365.5664h7.69141v-10.14452h-7.6914v10.14453"/><path fill="azure" fill-rule="evenodd" d="M230.98438 357.2539h.83203v5.73829h3.1953v.74219h-4.02733v-6.48047"/><path fill="#ffffe0" fill-rule="evenodd" d="M408.32031 415.20313H430.5v-10.19141h-22.17969v10.1914"/><path fill-rule="evenodd" d="M411.82031 406.84375h.50781v6.29688h-.78906v-4.4922h-1.38672v-.55468l.5586-.0664.2539-.05079.23047-.08984.20313-.14453.17187-.20703.14063-.29688.10937-.39453m4.8125 0l.23047.01953.21875.05469.20703.08984.19531.1211.1836.14843.17187.17579.30079.42187.24609.49219.17969.54687.10937.57813.03906.59375-.03906.58984-.10937.58594-.1797.55469-.24608.5-.30079.42968-.17187.1797-.1836.15233-.1953.125-.20704.08985-.21875.0586-.23047.01952-.23047-.01953-.21875-.0586-.20703-.08983-.19531-.125-.1875-.15235-.16797-.17969-.30469-.42968-.24218-.5-.1797-.5547-.11327-.58593-.03516-.58984h.83203l.02735.5625.08203.5039.1289.44532.16016.37109.1914.30078.21094.22266.22266.13672.22656.04687.22656-.04687.22266-.13672.21094-.22266.1914-.30078.16016-.3711.125-.4453.08203-.50391.03125-.5625-.03125-.5625-.08203-.5-.125-.4375-.16015-.36328-.19141-.29297-.21094-.21485-.22265-.1328-.22657-.04298-.22656.04297-.22266.13281-.21093.21485-.19141.29297-.16016.36328-.1289.4375-.08203.5-.02735.5625h-.83203l.03516-.59375.11328-.57813.17969-.54687.24218-.49219.3047-.42188.16796-.17578.1875-.14843.19531-.1211.20703-.08984.21875-.05469.23047-.01953m4.95313 0l.22656.01953.22266.05469.20703.08984.19531.1211.1836.14843.17187.17579.30078.42187.2461.49219.17968.54687.10938.57813.03906.59375-.03906.58984-.10938.58594-.17969.55469-.24609.5-.30078.42968-.17188.1797-.18359.15233-.19531.125-.20703.08985-.22266.0586-.22656.01952-.23047-.01953-.21875-.0586-.20703-.08983-.19922-.125-.1836-.15235-.17187-.17969-.30078-.42968-.24219-.5-.17969-.5547-.11328-.58593-.03515-.58984h.83203l.02734.5625.08203.5039.125.44532.16406.37109.19141.30078.21094.22266.22265.13672.22657.04687.22656-.04687.22266-.13672.21093-.22266.1875-.30078.16407-.3711.125-.4453.08203-.50391.03125-.5625-.03125-.5625-.08203-.5-.125-.4375-.16407-.36328-.1875-.29297-.21093-.21485-.22266-.1328-.22656-.04298-.22656.04297-.22266.13281-.21094.21485-.1914.29297-.16407.36328-.125.4375-.08203.5-.02734.5625h-.83203l.03515-.59375.11328-.57813.1797-.54687.24218-.49219.30078-.42188.17188-.17578.18359-.14843.19922-.1211.20703-.08984.21875-.05469.23047-.01953m4.95312 0l.38672.02734.35938.08204.3203.13671.28126.1875.23047.23829.17187.28515.10938.33203.03515.3789-.01953.27345-.0586.23437-.08593.19922-.11328.17188-.1289.14453-.14063.12109-.28516.19531.23047.1211.21094.14453.17969.17187.15625.19531.12109.21094.08984.23047.0586.2461.01953.2539-.03516.3086-.10547.32812-.17187.32422-.23828.3086-.3086.26562-.37109.21484-.21094.08203-.23047.0625-.24218.03516-.26172.01562-.26172-.01562-.24219-.03516-.22265-.0625-.20704-.08203-.35546-.21484-.29297-.26563-.22266-.3086-.15625-.32421-.09375-.32813-.02734-.30859h.83203l.02734.2539.07813.23438.12109.21485.16016.18359.1953.15234.21876.11329.23828.07421.25781.02344.2539-.02344.23829-.07421.22266-.11329.1914-.15234.16016-.1836.125-.21484.07422-.23437.02734-.2539-.02734-.25392-.07422-.23437-.125-.21094-.16016-.1836-.1914-.15233-.22266-.1172-.23828-.0703-.2539-.02735-.25782.02735-.23828.0703-.21875.1172-.19531.15234-.16016.1836-.1211.21093-.07812.23438-.02734.2539h-.83203l.01562-.2539.0586-.23829.08984-.22656.125-.20703.15234-.1914.1836-.17188.20703-.15235.23047-.1328-.28516-.19532-.14063-.1211-.1289-.14452-.11328-.17188-.08594-.19922-.0586-.23437-.01952-.27344h.78515l.02344.21484.0664.1914.10547.16407.13672.14063.16406.10937.1875.08203.20704.05078.22265.01954.21875-.01954.20703-.05078.1875-.08203.16797-.10937.13672-.14063.10156-.16406.06641-.1914.02344-.21485-.02344-.21485-.0664-.1914-.10157-.16797-.13672-.13672-.16797-.11328-.1875-.08203-.20703-.05078-.21875-.01563-.22265.01563-.20704.05078-.1875.08203-.16406.11328-.13672.13672-.10546.16797-.06641.1914-.02344.21485h-.78515l.03906-.3789.10547-.33204.17578-.28515.23047-.23829.27734-.1875.32422-.13671.35547-.08204.39062-.02734"/><path fill="#ffffe0" fill-rule="evenodd" d="M332.86719 330.89844h22.17969v-10.1914h-22.1797v10.1914"/><path fill-rule="evenodd" d="M336.36719 322.53906h.50781v6.29297h-.78516v-4.48828h-1.39062v-.55469l.5625-.0664.25-.0547.23047-.08983.20312-.14063.17578-.21094.14063-.29297.10547-.39453m4.8125 0l.23047.01953.21875.0547.20703.08983.19531.1211.1875.14844.16797.17578.30469.41797.24218.49609.1797.54688.11327.57812.03516.58984-.03516.59375-.11328.58594-.17969.55078-.24218.5039-.3047.4297-.16796.17968-.1875.15235-.19531.1211-.20703.09374-.21875.0586-.23047.01953-.23047-.01954-.21875-.05859-.20703-.09375-.19531-.1211-.1836-.15234-.17187-.17968-.30079-.4297-.24609-.5039-.17969-.55078-.10937-.58594-.03906-.59375h.83203l.03125.5625.08203.50782.125.4414.16015.375.19141.30078.21094.22266.22265.13672.22657.04687.22656-.04687.22266-.13672.21093-.22266.19141-.30078.16016-.375.1289-.4414.08203-.50782.02735-.5625-.02735-.55859-.08203-.5039-.1289-.4336-.16016-.36719-.1914-.28906-.21094-.21484-.22266-.13282-.22656-.04296-.22656.04296-.22266.13282-.21094.21484-.1914.28906-.16016.36719-.125.4336-.08203.5039-.03125.5586h-.83203l.03906-.58985.10937-.57813.1797-.54687.24608-.4961.30079-.41796.17187-.17578.1836-.14844.1953-.1211.20704-.08984.21875-.05469.23047-.01953m5.09375 0h.50781v6.29297h-.78906v-4.48828h-1.38672v-.55469l.5586-.0664.2539-.0547.23047-.08983.20312-.14063.17188-.21094.14062-.29297.10938-.39453m2.82031 2.17578h.78906l.01953-.3164.0586-.28906.09765-.25.14063-.21485.1836-.17578.22265-.1289.26562-.07813.3086-.02735.23437.01954.22656.0625.20313.10156.17969.13672.14844.17578.11328.20703.0703.23438.02735.26562-.02344.26563-.0664.22656-.10938.1914-.15625.17188-.19921.16015-.2461.16797-.63672.38672-.53515.3164-.4375.31642-.34766.32421-.26172.33594-.1914.35156-.125.3672-.07032.39452-.01953.41797h4.21094v-.73828h-3.33203l.08203-.28516.11328-.23828.14844-.19922.1875-.17968.23047-.17188.28125-.17578.71484-.41797.41797-.20312.34375-.23438.28125-.25.21875-.26562.16406-.27735.10938-.28515.0664-.28516.01953-.28125-.04296-.38281-.1211-.34766-.1875-.3086-.25-.26171-.30078-.21485-.34766-.15625-.3789-.10156-.40625-.03125-.4375.03125-.39844.10156-.35547.16407-.30469.23437-.24609.30469-.1875.375-.11328.44531-.04297.51953"/></g></defs><use xlink:href="#U"/></svg>