<svg xmlns="http://www.w3.org/2000/svg" role="img" xmlns:xlink="http://www.w3.org/1999/xlink" viewBox="142.45 309.95 326.84 171.84"><defs><clipPath id="a"><path d="M144 311.67188h1v168.65625h-1zm0 0"/></clipPath><clipPath id="b"><path d="M144 311.67188h324v168.65625H144zm0 0"/></clipPath><clipPath id="c"><path d="M467 311.67188h1v168.65625h-1zm0 0"/></clipPath><clipPath id="d"><path d="M144 476h1v4.32813h-1zm0 0"/></clipPath><clipPath id="e"><path d="M144 476h2v3h-2zm0 0"/></clipPath><clipPath id="f"><path d="M156 476h3v4.32813h-3zm0 0"/></clipPath><clipPath id="g"><path d="M169 476h3v4.32813h-3zm0 0"/></clipPath><clipPath id="h"><path d="M181 477h6v3.32813h-6zm0 0"/></clipPath><clipPath id="i"><path d="M195 476h4v4.32813h-4zm0 0"/></clipPath><clipPath id="j"><path d="M207 477h7v3.32813h-7zm0 0"/></clipPath><clipPath id="k"><path d="M220 477h7v3.32813h-7zm0 0"/></clipPath><clipPath id="l"><path d="M236 476h2v4.32813h-2zm0 0"/></clipPath><clipPath id="m"><path d="M249 476h3v4.32813h-3zm0 0"/></clipPath><clipPath id="n"><path d="M263 476h2v4.32813h-2zm0 0"/></clipPath><clipPath id="o"><path d="M274 477h6v3.32813h-6zm0 0"/></clipPath><clipPath id="p"><path d="M289 476h3v4.32813h-3zm0 0"/></clipPath><clipPath id="q"><path d="M302 476h3v4.32813h-3zm0 0"/></clipPath><clipPath id="r"><path d="M316 476h3v4.32813h-3zm0 0"/></clipPath><clipPath id="s"><path d="M328 477h5v3.32813h-5zm0 0"/></clipPath><clipPath id="t"><path d="M340 477h7v3.32813h-7zm0 0"/></clipPath><clipPath id="u"><path d="M353 478h8v2.32813h-8zm0 0"/></clipPath><clipPath id="v"><path d="M366 479h8v1.32813h-8zm0 0"/></clipPath><clipPath id="w"><path d="M380 477h7v3.32813h-7zm0 0"/></clipPath><clipPath id="x"><path d="M394 477h6v3.32813h-6zm0 0"/></clipPath><clipPath id="y"><path d="M407 478h7v2.32813h-7zm0 0"/></clipPath><clipPath id="z"><path d="M419 479h9v1.32813h-9zm0 0"/></clipPath><clipPath id="A"><path d="M425 479h2v1.32813h-2zm0 0"/></clipPath><clipPath id="B"><path d="M433 478h8v2.32813h-8zm0 0"/></clipPath><clipPath id="C"><path d="M446 479h8v1.32813h-8zm0 0"/></clipPath><clipPath id="D"><path d="M459 479h9v1.32813h-9zm0 0"/></clipPath><clipPath id="E"><path d="M144 465h4v4h-4zm0 0"/></clipPath><clipPath id="F"><path d="M144 451h4v5h-4zm0 0"/></clipPath><clipPath id="G"><path d="M144 437h3v6h-3zm0 0"/></clipPath><clipPath id="H"><path d="M144 424h3v6h-3zm0 0"/></clipPath><clipPath id="I"><path d="M144 411h3v6h-3zm0 0"/></clipPath><clipPath id="J"><path d="M144 397h3v7h-3zm0 0"/></clipPath><clipPath id="K"><path d="M144 385h4v4h-4zm0 0"/></clipPath><clipPath id="L"><path d="M144 371h3v6h-3zm0 0"/></clipPath><clipPath id="M"><path d="M144 357h2v7h-2zm0 0"/></clipPath><clipPath id="N"><path d="M144 344h3v7h-3zm0 0"/></clipPath><clipPath id="O"><path d="M466 347h2v3h-2zm0 0"/></clipPath><clipPath id="P"><path d="M144 331h3v6h-3zm0 0"/></clipPath><clipPath id="Q"><path d="M466 333h2v3h-2zm0 0"/></clipPath><clipPath id="R"><path d="M144 317h3v7h-3zm0 0"/></clipPath><clipPath id="S"><path d="M466 319h2v3h-2zm0 0"/></clipPath><g id="T" clip-path="url(#clip1)"><path fill="#fff" fill-opacity="0" fill-rule="evenodd" d="M0 0h1000v1000H0zm0 0"/><path fill="#d3d3d3" fill-opacity="0" fill-rule="evenodd" d="M162.15234 355.86719l-.23437.29297.0586.23437.11718.17188.17578.23437.29297.34766.11328.0586.11719-.17188.0586-.23438.17577-.17578.46485-.17578h.69922l.23437.29297.28906.8164.0586.17579.17578.23046.35156.23438.69922.69922.17188.17578.23437.34765.23438.41016.28906.58203.41015.46485.23047.23437.23438.17578.11719.23047.17578.29297.17187 1.16406v.23438l.0586.28906.05859.11719.11719.11719.34765.41015.11719.17188.17578.17578.17578.23437.11719.17188.17188.35156.05859.23438.23437.40625.23438-.0586-.17578.17578-.0586.92969h-.58203l-.23437-.11328-.34766.11328-.11719.11719-.05859.29297-.0586.17578-.11718.17187-.46484.29297-.0586.23438-.0586.11328v.64453l.0586.17187v.41016l.0586.0586v.40624l.05859.40625.11719.17579.05859.05859.23047.64062-.0586.29297v.69922l-.05859.58203v.23438l-.0586.23047-.05468.35156v1.92187l.05469.1172h.42578l-.36719.11718-.02344.35156.89063 1.16797 1.74219.53906 1.33984.35938v.53906l.08984.8086.53516.71484 1.51953.26953.89063-.08594.08984 1.16406.53516.1797 1.16015-.1797 2.05469-.98437 1.16016-.36328 1.8789-.17578 1.69531-.1797-.17968.71876-1.51563.08594-1.25.08984-.80469.26953-1.07421.8086.26953.71875.53515.89843-.17968.625-.26563.8086.26563 1.07812.625.89844.80468.17969 1.25-.1797-.26562.72267.09766.5039.05468.29297v.17188l.0586.29296v.40625l.17578.1172.35156.11718h.40625l.29297-.17578.11328-.11719.0586-.11719.11718-.23047.0586-.17578.35156-.46484.23047-.17578.17578-.0586.17578.0586.0586.17578.11718.98828.05469.46875.0586.17188.11718.23437.17578.0586.8164.05859h.28907l.11719.23437.05859.40625.0586.35156v1.10547l.11718.29297.11719.34766.28906.69922.17578.35156.58203.7539.35157.17579.17187.0586.46875.23437.64063.46484.34765.23438.29297.17578.29297.05468.23047.0625.8164.34766.29297.17578.11328.17188.35157.35156.11719.17578.52343.64063v.28906l.0586.35156v.34766l.05859.35156.0586.28906.11718.0586.17188.05859h.17578l.58203.23437.17578.1172.17578.28905.17578.23438.11328.23437.29297.23047.11719.11719v.41016l.0586.05468.28906.23438.23437.11719.0586.11718.11718.17188.0586.11719.23047.23437.05859.17578.23437.0586.1172.05859-.1172.11328-.05859.11719v.11719l-.11719.29296-.11719.28907v.58203l.17579.11719.11718.05859.0586.11719.11719.11719.11328.05859.17578.34765.0586.35157.05858.40625v.17578l-.05859.17578-.11719.69922v.17187l.1172.17579.29296.29296h.40625l.17578.1172.11719.17187.11719.29296v.23438h-.52735l-.23047-.23438h-.23437l-.17578.0586-.0586.69922.0586.34765.11719.17579.17578.41015.11718.23047.28907.46875.17578.05469h.52344l.23437.0586.75781.64062.0586.29296v.23438l.05859.0586.23047.34765v.35156l-.11719.17188v.29297l.29297.28906.29297.17578.17187.0586.29297.17577.29297.1172.58203.40624.28906.23438.29297.17578.21875.16015.01563.01172.23047.17579.64062.52343.17578.23438.1172.17578.17577.17578.11328.17188v.64062l.1172.17578.46874.11719.58203.11719.23438.05859.23047.11328.29297.11719.11328.0586.58593.35156.28907.17187.17578.0625.17578.05469.17578.0586.69922.35155.28906.17579.23438.05468.28906.17578.23437.1172.64063.40624.29297.11719.17187.0586.23438.05859.41015.05859.23047.0586.23438.11718.0586.17188-.41017.17578.46875.0586.0586.29296.11328.23438.17578.05468.23438.0586.17578.05859.40625.11719.64062.23437.11719.17188.0586.23437v.17578l-.0586.1172-.0586.40624.23438.23438.11719.05859.34766.11719.64062.23047.17578.11718.28906.1172.17578.17577.23438.46485.58203 1.10546.17578.17579.34766.17578.17578.11719.35156.11718 1.04688.52344.23437.0586.46485.11327.29297.0586.46484.17578.75781.58203.23438.23438.34765.46484.17578.17578.28907.23438.8164.69921.29297.17579.28906.28906.29297.17578.29297.28906.69531.64063.17578.17578.29297.23437.28907.23438.46875.28906.64062.58203.34766.23438.23437.29297.34766.34765.35156.46485.9336.99218.34765.40625.11719.17579.23437.05859.11328.11719.64454.17578.23047.11328.23437.0586.29297.17577.23047.1172.9336.69921.40624.40625.23438.17578.40625.17578.23437.11719.8164.34766.34766.23437.23438.11719.29297.28906.23047.11719.7578.35156.35157.17188.23047.05859.29297.11719.23437.0586.8711.17577h.8164l.46875.23047.17188.0586.875.69921.46484.1172.29297.05858.17578.0586.23047.0586.46875.05859.34766.05859.35156.0586.40625.05859h.29297l.17187.0586v.23046l.17578.17578h.29297l.34766.0586.35156.05859.69922.11719h.64063l.46484-.23438.29297-.17578.17187-.11719.41016-.17187.28906-.17578.9336-.46485.46875-.29297.52343-.29296.46485-.17188.46484-.17578 1.05078-.46485.28906-.11718.41016-.11719.28906-.11719.52735-.17578 1.51562-.69922.58203-.34765.28907-.0586.29297-.0586.34765-.11718.875-.23047.35156-.11719h.11329l.23437-.05859.875-.23437.23438-.0586h.8125l.35156-.0586.8164-.11718.17188-.0586.35156-.05468.29297-.0586.23047-.05859.8164-.17578.17579-.0586h.34765l.23438-.05859.46484-.11718.75781-.17188.23438-.0586h.34765l.41016-.11718.28906-.0586 1.28516-.05859h.28906l.41016-.0586.23047-.05858h.17578l.875-.1172h.40625l.41015-.11718h.34766l.35156-.11328.8711-.0586h1.75l1.04687.28907.41016.11719.28906.11718.35156.11719.28907.11719 1.05078.17187.28906.0586h.29297l.29297.05859.17187.0586.41016.05859.17187.0586.1172.05858h.11718l.11719.0586.35156.0586h.11328l.41016.0664 1.92187.39453 1.92578.39453 1.51953.44922 1.69532.71875 2.14453.80469 1.60547-.71875 1.42968-.80469 1.16016-1.07813 1.25-.44921 3.03516-.71875 1.875-.35938 2.14453-1.34765 2.23437-1.25391 2.5-1.25781 1.69531-.44922 1.78516-.17969 1.16016-.26953.625.53906 1.33984-.26953.71485-.98828.98437-1.34375.44531-.17969.80469-.35937 1.875-.53907 1.78516-.44921 1.25-.26954 1.16015-.08984 1.69922-.08984 1.96094-.26954 1.25-.08984h.53906l.625-.08984h.89063l2.14453-.17969 2.41015-.17969 2.58985-.08984 1.69531.17969 1.60938.08984 1.42968.35938 1.16016.71875 1.875.98828 1.16015 1.52734.26563.71484.6289.08985.35548.89844.53515.53906.53516 1.52734 1.07422.35938h.53515l-.80469.53515.08985 1.70703.71484 2.69532.89063.80468.89453.98829.71484 1.2578 1.78516.53907 1.51953-.17969.35547 1.34375 1.60937-.80469.98047-.53906.26953.26953.31641-.21484.21875-.14453.80078.44922.44922-.35938h.35547l.53515-.26953.53907-.71875.53515-.26953.625-.98828 1.16016.44922.83984.3711 1.39454.61718 1.6953-.17969h1.60548l1.78515.08985.17969-1.70704.53516-1.34375.80468.26954.4922.84765.40233.40625-.08984.53906v.35938l.71485.44922.71093-.26953h1.42969l.35938.98828.4453 1.25781.71485 1.34375 1.25.6289 1.69531.62891.71485-.17969.17969-.53906.98046-.08984.44922.35937.08594 1.25782-.26563.6289-.53515.17969v.53906l.71484.98438.26563.53906.98437.98828.80078 1.07813-.26562.35937-.08985.89844-.625 2.33203-.35546 2.0664-.08985 1.79298-.17969.71875-.08984.53906v1.4375l-.98047 1.88281-.35937 1.70703-.53516.89844-.80469 1.16797-.26562.53906 2.05469 1.2539.08593.35938-.35546.53906-.08985-.17968v.80859l.08985 1.4375-.44532.71484-1.07422.09375-.26562.71485.53515.89844.8047.71875 1.16015.80859 1.33984.26953.44531.35938-.35546.44921-1.78907-.08984-1.25-.44922-.71484-.71875-.625-.08984-.17578 3.58984-.1875 1.3086h89.35937V311.70313h-55.26953v49.08203l.76172.125 3.28906.54296 2.02344 2.83594v2.7539l2.35156.33204 2.34766.33203h4.05078l-1.3789 4.16016-2.02344.70703-2.02344.70312-.54297.34375-2.59375 1.6172-.1875.11718-2.02344-2.07813-.73046-2.74218-2.67188-2.07813-1.375-3.5-.0664-.08203-1.95704-2.67188 2.75-1.41796v-49.08204H294.42187v91.41407l.1172.03125.1328.01172.07422.07421.10547.04688.08985.0586.08593.05859.08985.0586.29687.29687.0586.08984.03125.11719.02734.11719.01563.13671-.03125.1172-.0586.08983-.0586.08594-.04296.10547-.04688.10156-.02734.1211v.14453l.17578.26953.14844.14844.07422.08594.07422.07421.04296.10547.0625.08985.0586.08593.04297.10547.0586.08985.04687.10156.04296.10547.0586.08594.11719.17968.07421.07422.0625.08594.0586.08984.04297.10547.0586.08985.05858.08593.0625.08985.0586.08984.04297.10156.11719.17969.07421.07422.0586.08594.07422.07421.08984.0586.10547.04687h.14844l.1328-.01562.13282.01562.10156-.04687.07422-.07422.04688-.10156-.01563-.13281v-.14844l-.04687-.10547-.02735-.11719-.04687-.10156-.02735-.1211-.04296-.10156-.0625-.08984-.04297-.10156-.04297-.10547-.03125-.11719-.01563-.13281-.01171-.13672.08593-.0586.0586-.08593.12109-.03125.04297.10547.01562.1328v.1172l.0586.10156.0586.08984.08983.0586.14844.14843.0586.08985.04296.10547-.01171.10156.08593.0586.10547.04687.08594.0586.08984.05858.07422.07422-.11719.02735-.10546.04687-.08594.0586-.07422.07421-.0586.08985-.0625.08594-.02734.12109-.04687.10156-.04297.10547-.03125.11719-.01172.13281-.01563.13281v.14844l.02735.11719.04687.10547.04297.10156.0586.08984.07421.07422.08985.0586.07422.07421.08984.0586.0586.08984.04296.10547.04688.10156.11719.03125.1328.01563h.14845l.11718-.03125.10547.04297.04297.10547.04688.10156.02734.1211L299.5 410l.02734.11719.03125.1211.02735.11718.10547.04297.10156.04687.13281-.01562.14844.14844.0625.08593.07422.07422.07031.07422.08984.0625.10547.04297.10156.04297.1172.03125.13671.01562.11719-.03125.07422-.07422.02734-.11718-.01172-.13282-.03125-.12109-.02734-.11719.04297-.10547h.11719l.08984.0625.11719.02735h.14843l.13282.01562h.14843l.13282.01563.1328-.01563h.14845l.1328-.01562.13282-.01172.13672.01172.11719-.02735.13281-.01562.1914-.0586-.05859.17579-.01562.1328-.02735.1211-.01562.13281-.0586.08594-.1328.01563-.10548.04687-.10546.04297-.1172.03125-.11718.02735-.26563.03125h-.14843l-.13281.01562-.07422.07422.05859.08594.14844.14843.11719.1797.07421.0703.08985.0625.08984.0586.08594.0586.08984.05858.10156.04297.10547.0625.10547.04297.08594.0586.10547.04687.10156.04297.17969.11719.0586.08984-.04298.10156-.04687.10547.01562.13281.22266.22266.0586.08985.04296.10156.03125.1211.04297.10155.01563.13282.03125.11718.01171.13672.03125.11719.14844.14844.10156.04297.10547.04296.1172.03125.1328.01563.13672.01563h.11719l.11719-.03125.08984-.0586.04297-.10547.04688-.10156.04296-.10547.03125-.11719.01172-.1328v-.14845l-.01172-.1328-.01562-.13282-.03125-.11719-.04297-.10547-.04688-.10547-.04296-.10156-.04297-.10547-.01563-.13281.01563-.13281.02734-.11719.03125-.11719.02735-.1211.04687-.10155.08984-.0586.08594-.0625.07422-.07422.08984-.05859.22266-.22266.0586-.08593.07421-.07422.11719-.17969.0586-.08594v-.14844l-.07423-.07421-.10156-.04688-.10547-.04297-.10156-.04297-.0586-.08984-.04687-.10547-.02734-.11719.08984-.05859.11719-.03125.10156-.04297.17969-.11719.14844-.14843.01172-.13282-.01172-.10546-.08985-.0586-.1328.01563h-.14845l-.1328.01562-.13282-.01562-.1211-.03125-.08593-.0586-.07422-.07422-.0586-.08984-.0625-.08594-.11718-.17969-.0586-.08593.03125-.1211.08594-.05859.1211-.03125.05859-.08594v-.1211l-.03125-.11718-.0586-.08984-.05859-.08594-.04687-.10547-.02735-.11719-.01562-.1328.0586-.08985.07421-.07422.08984-.0586.1172-.17968.07421-.07422.0586-.08594.14843-.14844.1211-.03125.1328-.01562.13282.01562.07422.07422.04297.10547.01562.13281-.03125.1172-.11719.03124-.1328.01172-.14844.14844-.04297.10547-.04688.10156-.02734.1211-.03125.11718v.14844l.03125.11719.04297.10546.05859.08985.07422.07031.07422.07422.11719.03125.12109.02734.11719-.02734.1328-.01563h.1172l.08984.0586.07422.07422.04687.10546.0586.08594.10156.04688.13281.01562.10547.04297.08594.0586-.01172.10546-.07422.07422-.17969.11719-.05859.08984-.08984.0586-.07032.07422-.07421.07421-.0625.08985-.02735.11719-.01562.1328.01562.13282-.01562.13281v.14844l.01562.13281.02735.1172.03125.12108.07421.07422.08985.0586.08594.0586.08984.05858.11719.03125v.08594l-.10157.04688-.08984.0586-.26563.03124-.11718.02735h-.14844l-.10547.04296-.10156.04688-.0586.08984-.0625.23438-.01171.13281-.03125.1211-.01563.1328v.29298l-.01172.1328.01172.13673.01563.1328.1328.01563.13282.01172.1211.03125.08593.0586.07422.07421.04688.10547.04296.10157.01563.1328v.44532l-.01563.13281v.44532l.03125.26562.02735.11719.01562.13281.03125.11719.08594.21094.03125.26562v.14844l-.03125.11719-.02734.11718-.03125.1211-.02735.11719-.03125.11718-.03125.1211-.01171.1328-.01563.13282.08984.0586.1172-.03125.10155.01562.04688.10547-.03125.26562v.44141l-.04297.10547-.04688.10547-.04296.10156-.04297.10547-.0586.08594-.03125.12109-.04296.11719-.03125.11719-.01563.1328.01563.13282.05859.08984.10547.04688.08594.0586.05859.08593-.01172.13672-.03125.11719-.04297.10156v.44531l-.01562.13281v.14844l-.03125.11719-.04297.10547-.02735.11719-.04687.10546-.04297.10157-.03125.12109-.02734.11719-.03125.13281-.03125.11719-.02735.11719-.04297.10546-.03125.1172-.03125.12108-.01171.13282-.01563.13281v.29688l.02734.11718v.14844l.04688.39844.02734.11719.0586.08984.12109.03125h.14844l.13281-.01563.0586.08985v.11719l-.0586.08984-.08984.0586-.10157.04296-.10546.04688-.08985.05859-.08594.0586-.13671.01562-.1172-.03125-.1328-.01563-.10157.04688-.0625.08594-.01172.13671-.01562.13282-.03125.11719-.02735.11718-.01562.13281-.03125.1211v.29687l.01563.13282.03125.11718v.14844l.01171.13281v.14844l-.02734.11719-.04688.10156-.02734.1211-.03125.11718-.0586.08985-.07421.07421-.10156.04297-.10547.04688-.11719.02734-.1211.03125-.10156-.04687.0586-.08594.10547-.04688.02734-.11718.03125-.11719.02734-.1211.03125-.11718v-.14844l.01563-.13281-.03125-.11719-.04297-.10547-.10547.01563-.07422.07422-.10156.04296-.08984.0625-.07422.07422-.04297.10157-.01563.1328-.03125.1172L304.25 426l-.03125.11719-.02734.11719-.03125.12109-.02735.11719-.03125.11718-.04297.10547-.08984.0586h-.08984l-.1172-.03125-.03124-.08594.01562-.13672-.03125-.11719v-.14844l-.01171-.1328v-.14844l-.0625-.23438-.02735-.1211-.04297-.10156-.04687-.10546-.0586-.08594-.05859-.08985-.04297-.10546-.0625-.08594-.14844-.14844-.0703-.07422-.10548-.04687-.10547-.04297-.10156-.04297-.29687-.29688-.08985-.07421-.08594-.0586-.10546-.04297-.08985-.0625-.08594-.0586-.10546-.04296-.08985-.0586-.08594-.0625-.07421-.0703-.10547-.04688-.08594-.0586-.10547-.04296-.08984-.0625-.10156-.04297-.10547-.04297-.08594-.0586-.10547-.04687-.10547-.04297-.10156-.04687-.08985-.0586-.10156-.04297-.10547-.04296-.08984-.0625-.11719-.02735-.13281-.01562-.13281.01562H299.75l-.13281.01563-.11719-.03125-.08984-.0586-.07422-.07422-.08985-.05859-.10156-.04688h-.14844l-.12109-.02734-.10156-.04297-.07422-.07422-.11719-.17968-.08984-.0586-.10156-.04297-.08985-.0625-.10547-.04296-.08984-.0586-.08594-.0586-.10547-.04687-.0586-.08594-.05858-.08984-.04297-.10547-.04688-.10156-.07422-.07422-.08594-.0586-.07421-.07421-.08985-.0586-.22265-.22265-.04297-.10547-.03125-.26563.10547-.04296h.14453l.10547.04296.07421.07422.08985.0586.08594.0586.10546.04687.08985.05859.14844.14844.0703.07422.14845.14843.0625.08594.07421.07422.08594.0586.07422.07421.08985.0625.08984.0586.08594.05859.26953.17578.10156.04688.10547.04296.10156.04297.04688-.07421.05859-.08594.07422-.07422.07031-.07422.10547.04297.07422.07422.0586.08984.04296.10156.04688.10547.04296.10547.1211.02735.11719-.02735.07421-.08984.04297-.10547.0586-.08985.07422-.07421.10546-.04297.1172-.02735.1328.01172.08985.0586.14844.14843.05859.08985.04297.10547.04687.10156.04297.10547.04297.10156.10547.04688.10547.04296.13281.01563.08594-.0586.0586-.08984.07421-.07422.10547-.04297.11719.02735.10547.04687.10156.04297.10547.04297.10156.04688.17969.11718v.11719l-.01563.13281.01563.13281.01562.13672.0586.08594.10156.04688.1211.02734.11718.03125h.14844l.11719-.03125.05859-.08984.17969-.1172.05859-.08983.07422-.07422.0586-.08594.11718-.17969.17969-.11719.11719.03125.08984.0586.04297.07422-.01563.1328v.1172l.08985.05859h.14843l.13282-.01563.1328-.01171.26563-.03125.10547-.04297.11719-.03125.1211-.02735.07421-.07421.07031-.07422.0625-.08985-.01562-.10547-.04688-.10156-.10156-.04297-.10547-.01562-.11718.02734-.26563.03125h-.14844l-.07421-.07422-.08985-.0586-.11719-.03124-.11718-.02735-.13282-.01562h-.14843l-.13282.01563h-.29687l-.10547-.04688-.14844-.14844-.04297-.10156-.05859-.08984.22266-.22266.08593-.0586.10547-.04296.11719-.03125.13281-.01563.13281.01563.13672.01562.10157.04297.1328-.01172.08985-.0625.10156-.04297.0625-.08984-.04687-.10156-.08984-.0586-.1172-.03125-.10155-.04296-.0586-.08985-.0625-.08984v-.11719l.01563-.13281.10547-.04688.07421-.07031v-.1211l-.08984-.05859-.03125-.11719.08985-.05859.07421-.07422.04297-.10547.0586-.08984.04687-.10156.01563-.13281v-.14844l-.04688-.10547-.04297-.10156-.08984-.0586-.13281-.01562-.10157-.04297-.13671-.01563-.1172-.03125h-.4453l-.13282-.01562-.13281-.01172-.13281-.01563-.11719-.03125h-.14844l-.13281-.01562-.13281-.01172-.26563-.03125-.1211-.04297-.08593-.0586-.07422-.07421v-.14844l.01172-.13281.10547-.04688.10156-.04296.13281-.01563h.15235l.13281-.01562h.29297l.1211.03125.10156.04296.08984.0586.23438.0625.12109-.04688.08984-.05859.10156-.04297.13282-.01562.10547.04296.10156.04688.13281.01172.1211-.02735h.14453l.12109-.03125.11719-.02734.10547-.04687.07421-.07422.08594-.0586.14844-.14843.0586-.08594.04687-.10547.02734-.11719.01563-.10547-.10156-.04296-.08985-.0586-.11719-.03125-.10546-.04297-.08985-.0625-.07422-.08594-.07422-.07421-.10156-.04297-.10547-.04688-.10156-.04297-.0586-.08984-.04687-.10156-.08594-.21094-.0625-.08594-.05859-.08984-.07422-.07422-.08594-.0586h-.26953l-.11719.03126-.08984.05859-.10156.04297-.13281.01562-.10547-.01562-.02735-.11719-.0625-.08984-.11718-.03125-.10157-.04297-.14843-.14844-.03125-.11719-.01563-.10546.07422-.07422.17969-.1172.11719-.02733.11718-.03125.13672.01562.10156.04297.10547.04297.10156.04687.10547.04297.1172.03125.1328.01563.1172.02734.1328.01563.10547-.01563.08985-.0586-.07422-.07421-.10547-.04297-.07422-.07422-.07422-.08984-.14844-.14844-.08593-.0586-.08985-.05859-.07422-.07422-.08984-.0586-.10156-.04687-.1211-.02734-.10156-.04688-.10547-.04296-.11719-.03125-.10156-.04297-.1211-.03125h-.14843l-.11719.03125-.10546.04297-.08594.0625-.17969.11718-.08594.0586-.08984.0586-.10547.04687-.08594.05859-.10547.04297-.10156.04297-.10547.04687-.07422.07422-.05859.08985-.0586.08593-.04687.10547-.0586.08594-.07421.07422-.13281-.01172-.1172-.03125h-.11718l-.07422.07422-.08984.0586-.07422.07421-.08984.0586-.08594.05859-.10547.04687-.10156.04297-.13672.01563-.10156-.04297-.14844-.14844-.10547-.04688h-.08594l-.10547.04688-.10156.04297-.1211.03125-.11718-.03125-.07422-.07422v-.11719l.03125-.1211.07422-.0703.0586-.08985.07421-.07422.11719-.03125.10547-.04296h.29297l.13281-.01563.13672-.01563.10156-.04296.08985-.0586.10156-.04687.08984-.0586.13281-.01171.08985.05859.13281.01172.08984-.0586.08594-.05859.10547-.04297.08984-.0586.08594-.0625.08985-.05859.14843-.14843.0586-.08594.05859-.08985.10547-.04296.13281-.01563.11719.02735.1211.03125.05859-.0586.05859-.08984.03125-.26563.02734-.11719.10547.01172.13281.01563.10157-.04297.08984-.0586.0586-.08984.07421-.07422.0586-.08984.04687-.10156.01172-.13281-.01172-.13282-.04687-.10547-.14844-.14843-.0586-.08985-.05859-.08594-.04297-.10546v-.44532l.01563-.1328v-.14845l.01172-.1328-.0586-.0586-.08984.0586-.10156-.04298-.17969-.11719-.08594-.05859-.0625-.08984-.0586-.08985-.07421-.07421-.08594-.0586-.1211.03125-.10155.01172-.10547.04688-.08594.05859-.10547.04297-.14844.14844-.08984.05859-.08594.0586-.08984.0625-.10547.04296-.13281.01563v-.1211l.10547-.04297.11718-.03125.07422-.0703.04297-.10548v-.14844l-.02734-.11718-.14844-.14844-.13281-.01563h-.14844l-.11719.03125-.10547.04297-.10156.04297-.08984.0625-.11719.02735-.07422-.07422.01172-.13281-.04297-.10157-.04297-.10547-.08984-.05859-.11719.02734-.1211.03125-.11718.03125-.10156.04297-.1211.03125-.10156.04297-.10547.04297-.08984.0586-.10156.01562v-.11719l.01562-.13281-.0586-.08985-.07421.04297-.14844.14844-.0586.08985-.07421.07421-.04688.10547-.04296.10156-.07422.07422-.0586.08985-.07422.07422-.05859.08593-.07422.07422-.08984.0625-.07422.07031-.07422.07422-.10156.01563-.13281.01562-.10547-.04296v-.1211l.14843-.14844.04297-.10156.0586-.08984.04687-.10156.04297-.10547.0586-.08985.03124-.11719.04297-.10156.03125-.1211.02735-.11718.04687-.10547.04297-.10156.04297-.10547.07422-.07031.08984-.0625.08985-.0586.10156-.04296h.29687l.26563-.03125.10547-.04297-.07422-.07422-.11719-.03125-.10547-.04297-.08984-.0586-.10156-.04687-.08985-.0586-.10156-.04296-.10547-.04297-.08984-.0625-.08594-.0586-.10547-.04296-.10156-.04297-.1211-.03125-.11718-.03125-.10157-.04297L297.5 410.25l-.10156-.04297-.08985-.0586-.04296-.10546-.01563-.13281.10156-.04297.13281-.01563.13672.01563.13282-.01563.10156-.04297.0586-.08984.01562-.10547-.08985-.0586-.07421-.07421-.10157-.04297-.08984-.0586-.14844-.14843-.04297-.10547-.01562-.13281v-.29297l-.0586-.08985-.08984-.05859-.07422-.07422-.04297-.10547-.03125-.11718-.0586-.08985-.07421-.07422-.11719-.02734-.07422-.07422-.08984-.0586-.08984-.0625-.08594-.05859-.07422-.07421-.0586-.08594-.04687-.10547-.08594-.0586-.14843-.14843-.19532-.0586-.1328.01563-.10157.04297-.07422.07422-.04688.10156-.04296.10547-.0586.08984-.0586.08594-.29687.29687-.08984.0586h-.08594l-.0625-.08594-.04297-.10547.03125-.11719.0586-.08984.02734-.11719-.01172-.13281-.08984-.0625-.10547.04688-.11719.02734-.11719.03125-.26953.17578-.10156.04688-.11719.02734-.10546.04687-.08985.0586-.10156.04297-.0586-.08594-.04687-.10547.01563-.13281.04687-.10547.07031-.07422.07422-.07031.0586-.08985v-.14843l-.04297-.10547h-.23829l-.10156.04687-.03125.11719-.02734.11719-.03125.1211-.07422.04296-.13281.01563-.07422-.04688-.04297-.10156-.04297-.10547-.04687-.10156-.04297-.10547-.1211.03125-.10156.04297-.13281.01562-.11719.03125-.10547.04297-.08984.0586-.10156.04687-.1211.02734-.13281.01563-.10156-.04297-.0586-.08985-.04687-.10546-.04297-.10157-.04297-.10546v-.1172l.0586-.08984.08593-.05859.17969-.11719.10156-.04687.10547-.04297.10547-.0586.10156-.04296.08985-.0625.10156-.04297.10547-.0586.10156-.04687.08984-.0586.10547-.04296.10156-.04297.08985-.0625.10156-.04297.13672-.01563.11719.03125.10156.04297.1211.03125.10156.04297.10546.04688.10157.04296.10547.04297.10156.04688.10547.04297.10156.04297.10547.04687.08594.0586.10546.04296.1172.03125.10546.04297.10156.04688.08985.0586.10547.04296.10156.04297.10547.04687.11719.02735.10156.04687.1211.02735h.14843l.08594-.0586.01562-.10156.0586-.08984-.02735-.1172-.07422-.07421-.11719-.17969-.07421-.07422-.08985-.07421-.17969-.1172-.08593-.05859-.10547-.04296-.10156-.04688-.26954-.17578-.05859-.08985-.07422-.07421-.0586-.08985-.04296-.10156-.03125-.11719-.01563-.13672v-.5625l-.01171-.1328-.01563-.13282-.03125-.11719-.01562-.13281-.01172-.13281-.03125-.1211-.22266-.22265-.0586-.08594-.01562-.10547.03125-.11719.13281-.01562v-91.41406H172.9922v1.45312l-.0586.23438-.35156 1.05078-.17187.52343-.1172.34766-.17577.41016-.11719.17187-.23438.29297-.23046.0586h-.35157l-.11718.05859-.23047.40625v.29297l.11719.17578.23046.23047.1172.23437.64062.75781.29297.46485.17578.23437.23047.35156.23437.34766.64063.8164.17578.46485.17187.41016.11719.69531.17578.46875.11719 1.39844.0586.46484v.875l.11718 1.04688v4.78125l-.0586.46484-.35156 1.28125-.17578.52344-.11328.41015-.35156.9297L172.93359 336l-.23437.58203-.11719.17578-.17187.34766-.17578.40625-.35157.8164-.0586.29297-.11327.29297-.11719.28906-.0586.17579-.11718.875-.0586.40625-.05859.11718-.0586.17579-.05859.17187-.23047.52734-.11718.17188v.23437l-.11719.23438-.0586.17187-.17577.58594v.28906l-.0586.17579v.29296l-.0586.11329-.05859.52734v.17187l-.05468.23438v2.6211l-.17578.8164-.1172.17578-.17577.23438-.1172.17187-.11327.23438-.58594.93359-.23047.28906-.29297.46485-.17578.23437-.28906.35156-.35156.69922-.11328.23047-.17579.41016-.17578.23046-.40625.52735-.8164.69922-.29297.17187-.28906.23438-.17579.11719-.17578.17578-.52344.40625-.52734.17578-.17187.17578-.23438.05469-.64062.17578h-.75782m12.21094 31.02344l-1.07422.44921.35938.89454 1.25-.71485.44531-.53906-.98047-.08985"/><path fill="#d3d3d3" fill-opacity="0" fill-rule="evenodd" d="M201.50781 416.59766h-.89453l.44922.6289.98047.35938.80469-.08985.4453-.98828-.17577.08985-.71485-.35547-.89453.35547m154.6211 59.0703l-.0586-.52343v-.29297l.11328-.29297.0586-.23046.46875-.46875h.11328l.11719-.11329.11718-.05859h.17579l.23437-.0586h.34766l.23437.0586.11719.0586.23047.17187.0586.17578.11718.58203v.29297l-.11719.17578-.17187.28906-.17579.17579-.52734.52343-.23047.23438-.11719.0586h-.17578l-.11718-.0586-.40625-.29297-.17579-.11719-.11718-.0586-.0586-.11327-.05468-.1172m6.64062-10.95702l-.0586-.17188v-1.10937l.0586-.17188.17578-.0586.17188-.05858h.17578l.23437-.0586.1172.0586.05858.69921-.05859.17188-.11719.17578-.11718.0586-.23438.52343-.11328.0586h-.23438l-.05859-.1172m9.61328-14.39062l-.11719-.17578v-.69922l.29297-.875.1172-.17187.17577-.35156.11328-.23047.1172-.29297.35155-.75781.1172-.23047.17187-.23438h.17578l.11719-.0586h.64062l.11719.0586.23437.23438.17188.11328.35156.29297.11719.11718.11328.17579v.11328l.11719.05859.11718.11719v.69922l-.05859.17578v.23047l-.0586.17578-.34765 1.05078-.11719.23047-.11719.23437-.11718.0586-.23047.23437-.64063.28906h-.875l-.41015-.11718-.64063-.46485"/><path fill="none" stroke="#bebebe" stroke-linecap="round" stroke-linejoin="round" stroke-miterlimit="10" stroke-width=".5" d="M467.95703 311.69531H144.02734v168.625h323.9297v-168.625"/><g clip-path="url(#a)"><path fill="#fff" fill-opacity="0" fill-rule="evenodd" d="M144 475.89063v4.4375h.0039H144V311.67188h.0039H144v164.21875"/></g><g clip-path="url(#b)"><path fill="#fff" fill-opacity="0" fill-rule="evenodd" d="M144.0039 480.32813V311.67188h79.88673v99.89843l-2.33204 2.1836 2.33203 2.14062 2.0625-2.14062-2.0625-2.1836v-99.89844h4.4375v123.8125l-.35937.46094.35938.875 2.33593 3.5625-1.04297 4.4375 1.8047 4.4414 1.33983 1.19923 4.44141 1.5664 2.2461 1.67188 2.1914 3.64062 1.30078-3.64062-.77344-4.4375-.52734-1.5-4.4375-.96875-2.29687-1.97266 2.29687-.85937 3.14844-3.57813-3.14844-3.0586-4.4414 1.96095-4.07032-3.33985-.36719-.46094v-123.8125h4.4375v98.35157l-2.78906 3.73047-.73828 4.4375.53125 4.4375 2.9961 2.71093 4.4414 1.05079 4.4375-.96485 3.92969 1.64453.50781.48047v33.17969l-2.42578 1.84375 2.42578 1.42969 1.48047-1.4297-1.48047-1.84374v-33.17969l4.4375 2.5 4.4375.34375 1.4375 1.11328 3.0039 1.70313 1.75391-1.70313 2.6836-2.26172 2.1289-2.17578-2.1289-2.13672-4.4375 1.10938-.92578-3.41406-.13282-4.4375-3.3828-2.4922-4.4375-.67187-4.4375 1.62891-4.4375-.6914-1.09376-2.21094-3.34375-3.37891-4.4414-.35156v-98.35156h26.6328v91.39062l-1.7539 1.8125 1.7539 2.33203 4.4375.0664.9375-2.39843-.9375-1.07031-4.4375-.74219v-91.39063h13.3125v95.2422l-2.3828 2.40234-.94532 4.4375 3.32813 2.60156 1.64453 1.83594 2.10156 4.4375.69531.70703 3.64454 3.73437.79296.76563 2.25782 3.67187 2.17968 2.17969 2.19922-2.17969 2.23828-.47265v25.58593l-1.70312 1.51563 1.70312 1.57812 1.50782-1.57812-1.50782-1.51563v-25.58593l3.97266-3.96485-3.97266-3.9961-1.63671-.4453-1.64063-4.4375 1.01172-4.4375-2.17188-2.5547-4.4375-1.82421-.375-.0586-4.0625-2.0039-4.4414-.39844v-95.24219h115.39844V429.6836l-1.52344 1.82422 1.52344 1.51953 3.21484-1.51953-3.21485-1.82422V311.67188h79.88672v168.65625H144.00391"/></g><path fill="#50fcfc" fill-rule="evenodd" d="M223.89063 415.89453l-2.33204-2.14062 2.33203-2.1836 2.0625 2.1836-2.0625 2.14062m4.4375 20.92578l-.35937-.875.35938-.46094.36718.46094 4.07031 3.33985 4.44141-1.96094v2.08594l-1.65625.97265 1.65625 1.13672 1-1.13672-1-.97265v-2.08594l3.14844 3.0586-3.14844 3.57812-2.29687.85937 2.29687 1.97266 4.4375.96875.52734 1.5.77344 4.4375-1.30078 3.64062-2.1914-3.64062-2.2461-1.67188-4.4414-1.5664-1.33985-1.19922-1.80469-4.4414 1.04297-4.4375-2.33594-3.5625m1.44141-14.19141l-.53125-4.4375.73828-4.4375 2.78906-3.73047 4.44141.35156v1.65625l-4.4414 1.54297-.13282.17969-1.6211 4.4375 1.75392 4.39062.03515.04688 4.40625 2.20703 4.42578-2.20703-.64062-4.4375-2.08203-4.4375-1.70313-1.72266V410.375l3.34375 3.3789 1.09375 2.21094 4.4375.69141 4.4375-1.6289v1.92577l-2.21094 1.23829-2.22656 3.5039-4.35547.9336 4.35547.69921 4.20703 3.7422.23047.14452.4961-.14453 3.9414-1.375 1.67969-3.0664-1.67969-3.77344-.88281-.66406-3.55469-1.23829v-1.92578l4.4375.67188 3.38281 2.49219.13282 4.4375.92578 3.41406 4.4375-1.10938 2.1289 2.13672-2.1289 2.17578-2.6836 2.26172-1.7539 1.70313-3.0039-1.70313-1.4375-1.11328-4.4375-.34375-4.4375-2.5-.50782-.48047-3.92969-1.64453-4.4375.96485-4.4414-1.05079-2.9961-2.71093"/><path fill="#00e8fc" fill-rule="evenodd" d="M232.76563 422.58203l-1.75391-4.39062 1.6211-4.4375.1328-.1797 4.44141-1.54296v4.96094l-1.13281 1.19922 1.13281 2.14843.46094-2.14843-.46094-1.19922v-4.96094l1.70313 1.72266 2.08203 4.4375.64062 4.4375-4.42578 2.20703-4.40625-2.20703-.03516-.04688m4.44141 18.9375l-1.65625-1.13672 1.65625-.97265 1 .97265-1 1.13672"/><path fill="#00d4fc" fill-rule="evenodd" d="M237.20703 420.33984l-1.13281-2.14843 1.13281-1.19922.46094 1.19922-.46094 2.14843"/><path fill="#00e8fc" fill-rule="evenodd" d="M246.08203 423.32813l-4.35547-.69922 4.35547-.9336 2.22656-3.5039 2.21094-1.23829 3.55469 1.23829.88281.66406 1.67969 3.77344-1.67969 3.0664-3.9414 1.375-.4961.14453-.23047-.14453-4.20703-3.74219"/><path fill="#50fcfc" fill-rule="evenodd" d="M246.08203 464.0039l-2.42578-1.42968 2.42578-1.84375 1.48047 1.84375-1.48047 1.42969m13.3164-56.79688l-1.7539-2.33203 1.7539-1.8125 4.4375.74219.9375 1.07031-.9375 2.39844-4.4375-.0664m13.3125 9.14843l-3.32812-2.60156.94531-4.4375 2.38282-2.40235 4.4414.39844v3.03125l-4.13671 3.41016 3.95312 4.4375.1836.32812 4.05859 4.10938.3789.38671.35157 4.0547 4.08593 4.27343 4.4375-1.0664 3.21485-3.20704-3.21485-3.23437-4.4375-1.20313-.33984-.0039-1.16406-4.4375.91015-4.4375-3.84375-3.22266-4.4375-.1875v-3.03125l4.0625 2.0039.375.0586 4.4375 1.82422 2.17188 2.55469-1.01172 4.4375 1.64063 4.4375 1.63671.4453 3.97266 3.9961-3.97266 3.96485-2.23828.47265-2.19922 2.17969-2.17968-2.17969-2.25782-3.67187-.79296-.76563-3.64454-3.73437-.6953-.70703-2.10157-4.4375-1.64453-1.83594"/><path fill="#00e8fc" fill-rule="evenodd" d="M276.96875 418.1914l-3.95313-4.4375 4.13672-3.41015 4.4375.1875v1.9336l-3.85937 1.28906 3.85937 3.83203 1.53516-3.83203-1.53516-1.28907v-1.93359l3.84375 3.22266-.91015 4.4375 1.16406 4.4375.33984.0039v.73828l-3.40625 3.69922 3.40625 3.5625 4.4375-1.61719 1.94922-1.9453-1.94922-1.96485-4.4375-1.73438v-.73828l4.4375 1.20313 3.21485 3.23437-3.21485 3.20703-4.4375 1.06641-4.08593-4.27344-.35157-4.05469-.3789-.38671-4.0586-4.10938-.18359-.32812"/><path fill="#00d4fc" fill-rule="evenodd" d="M281.58984 417.58594l-3.85937-3.83203 3.85937-1.28907 1.53516 1.28907-1.53516 3.83203m4.4375 13.04687l-3.40625-3.5625 3.40625-3.69922v.73438l-2.73046 2.96484 2.73046 2.85156 4.4375-2.16796.6875-.6836-.6875-.6914-4.4375-2.27344v-.73438l4.4375 1.73438 1.94922 1.96484-1.94922 1.94531-4.4375 1.6172"/><path fill="#00c4fc" fill-rule="evenodd" d="M286.02734 429.92188l-2.73046-2.85157 2.73046-2.96484v.73437l-2.05078 2.23047 2.05078 2.14453 3.85547-2.14453-3.85547-2.23047v-.73437l4.4375 2.27344.6875.6914-.6875.6836-4.4375 2.16796"/><path fill="#00b8fc" fill-rule="evenodd" d="M286.02734 429.21484l-2.05078-2.14453 2.05078-2.23047v.73829l-1.37109 1.49218 1.3711 1.4336 2.58202-1.4336-2.58203-1.49219v-.73828l3.85547 2.23047-3.85547 2.14453"/><path fill="#00a8fc" fill-rule="evenodd" d="M286.02734 428.5039l-1.37109-1.43359 1.3711-1.49219v.73438l-.69532.75781.69531.72656 1.3047-.72656-1.3047-.75781v-.73438l2.58204 1.4922-2.58204 1.43359"/><path fill="#009800" fill-rule="evenodd" d="M286.02734 427.79688l-.6953-.72657.6953-.75781v.73828l-.01562.01953.01562.01563.03125-.01563-.03125-.01953v-.73828l1.3047.75781-1.3047.72656"/><path fill="#00ac00" fill-rule="evenodd" d="M286.02734 427.08594l-.01562-.01563.01562-.01953.03125.01953-.03125.01563"/><path fill="#50fcfc" fill-rule="evenodd" d="M290.46484 459.71484l-1.70312-1.57812 1.70312-1.51563 1.50782 1.51563-1.50782 1.57812m97.64454-26.6875l-1.52344-1.51953 1.52344-1.82422 3.21484 1.82422-3.21485 1.51953"/><g clip-path="url(#c)"><path fill="#fff" fill-opacity="0" fill-rule="evenodd" d="M467.9961 480.32813H468V311.67188h-.0039H468v168.65625h-.0039"/></g><g clip-path="url(#d)"><path fill="none" stroke="#000" stroke-linecap="round" stroke-linejoin="round" stroke-miterlimit="10" stroke-width=".5" d="M143.7539 476.82422l.4922 7.00781"/></g><g clip-path="url(#e)"><path fill="none" stroke="#000" stroke-linecap="round" stroke-linejoin="round" stroke-miterlimit="10" stroke-width=".5" d="M143.82422 477.84375l1.04297-.65234"/></g><g clip-path="url(#f)"><path fill="none" stroke="#000" stroke-linecap="round" stroke-linejoin="round" stroke-miterlimit="10" stroke-width=".5" d="M157.89453 476.86328l-1.15625 6.92969"/></g><path fill="none" stroke="#000" stroke-linecap="round" stroke-linejoin="round" stroke-miterlimit="10" stroke-width=".5" d="M157.72656 477.8711l1.16016-.39063"/><g clip-path="url(#g)"><path fill="none" stroke="#000" stroke-linecap="round" stroke-linejoin="round" stroke-miterlimit="10" stroke-width=".5" d="M171.36719 476.89453l-1.47656 6.8711"/></g><path fill="none" stroke="#000" stroke-linecap="round" stroke-linejoin="round" stroke-miterlimit="10" stroke-width=".5" d="M171.15234 477.89453l1.1797-.33594"/><g clip-path="url(#h)"><path fill="none" stroke="#000" stroke-linecap="round" stroke-linejoin="round" stroke-miterlimit="10" stroke-width=".5" d="M185.8125 477.35156l-3.73438 5.95313"/></g><g clip-path="url(#i)"><path fill="none" stroke="#000" stroke-linecap="round" stroke-linejoin="round" stroke-miterlimit="10" stroke-width=".5" d="M196.1914 483.67578l2.13673-6.69531"/></g><g clip-path="url(#j)"><path fill="none" stroke="#000" stroke-linecap="round" stroke-linejoin="round" stroke-miterlimit="10" stroke-width=".5" d="M207.89063 482.59375l5.37109-4.53125"/></g><g clip-path="url(#k)"><path fill="none" stroke="#000" stroke-linecap="round" stroke-linejoin="round" stroke-miterlimit="10" stroke-width=".5" d="M221.07031 482.42578l5.64063-4.1914"/></g><g clip-path="url(#l)"><path fill="none" stroke="#000" stroke-linecap="round" stroke-linejoin="round" stroke-miterlimit="10" stroke-width=".5" d="M237.45703 476.82422l-.5039 7.00781"/></g><g clip-path="url(#m)"><path fill="none" stroke="#000" stroke-linecap="round" stroke-linejoin="round" stroke-miterlimit="10" stroke-width=".5" d="M250.02734 483.8086l.98828-6.95704"/></g><g clip-path="url(#n)"><path fill="none" stroke="#000" stroke-linecap="round" stroke-linejoin="round" stroke-miterlimit="10" stroke-width=".5" d="M264.13672 483.82813l-.60547-7"/></g><g clip-path="url(#o)"><path fill="none" stroke="#000" stroke-linecap="round" stroke-linejoin="round" stroke-miterlimit="10" stroke-width=".5" d="M279.08203 483.26563l-3.86328-5.8711"/></g><g clip-path="url(#p)"><path fill="none" stroke="#000" stroke-linecap="round" stroke-linejoin="round" stroke-miterlimit="10" stroke-width=".5" d="M291.4961 476.96875l-2.0625 6.71875"/></g><g clip-path="url(#q)"><path fill="none" stroke="#000" stroke-linecap="round" stroke-linejoin="round" stroke-miterlimit="10" stroke-width=".5" d="M303 476.90234l1.5625 6.85157"/></g><path fill="none" stroke="#000" stroke-linecap="round" stroke-linejoin="round" stroke-miterlimit="10" stroke-width=".5" d="M303.22656 477.89844l.92969-.80078"/><g clip-path="url(#r)"><path fill="none" stroke="#000" stroke-linecap="round" stroke-linejoin="round" stroke-miterlimit="10" stroke-width=".5" d="M316.3086 476.90234l1.57421 6.85157"/></g><path fill="none" stroke="#000" stroke-linecap="round" stroke-linejoin="round" stroke-miterlimit="10" stroke-width=".5" d="M316.53906 477.90234l.92578-.80468"/><g clip-path="url(#s)"><path fill="none" stroke="#000" stroke-linecap="round" stroke-linejoin="round" stroke-miterlimit="10" stroke-width=".5" d="M328.625 477.30078l3.57031 6.05469"/></g><path fill="none" stroke="#000" stroke-linecap="round" stroke-linejoin="round" stroke-miterlimit="10" stroke-width=".5" d="M329.14453 478.1836l.64063-1.04688"/><g clip-path="url(#t)"><path fill="none" stroke="#000" stroke-linecap="round" stroke-linejoin="round" stroke-miterlimit="10" stroke-width=".5" d="M341.22266 477.86328l5.0078 4.92969"/></g><path fill="none" stroke="#000" stroke-linecap="round" stroke-linejoin="round" stroke-miterlimit="10" stroke-width=".5" d="M341.94922 478.58203l.35156-1.17578"/><g clip-path="url(#u)"><path fill="none" stroke="#000" stroke-linecap="round" stroke-linejoin="round" stroke-miterlimit="10" stroke-width=".5" d="M354.03906 478.5039l6.0039 3.64844"/></g><path fill="none" stroke="#000" stroke-linecap="round" stroke-linejoin="round" stroke-miterlimit="10" stroke-width=".5" d="M354.91016 479.03516l.0703-1.22266"/><g clip-path="url(#v)"><path fill="none" stroke="#000" stroke-linecap="round" stroke-linejoin="round" stroke-miterlimit="10" stroke-width=".5" d="M366.97266 479.38281l6.76562 1.89063"/></g><path fill="none" stroke="#000" stroke-linecap="round" stroke-linejoin="round" stroke-miterlimit="10" stroke-width=".5" d="M367.95703 479.66016l-.26172-1.19922"/><g clip-path="url(#w)"><path fill="none" stroke="#000" stroke-linecap="round" stroke-linejoin="round" stroke-miterlimit="10" stroke-width=".5" d="M381.0664 477.97266l5.21094 4.71484"/></g><g clip-path="url(#x)"><path fill="none" stroke="#000" stroke-linecap="round" stroke-linejoin="round" stroke-miterlimit="10" stroke-width=".5" d="M394.33984 478.01563l5.29297 4.625"/></g><g clip-path="url(#y)"><path fill="none" stroke="#000" stroke-linecap="round" stroke-linejoin="round" stroke-miterlimit="10" stroke-width=".5" d="M413.29297 478.48828l-5.98438 3.6836"/></g><g clip-path="url(#z)"><path fill="none" stroke="#000" stroke-linecap="round" stroke-linejoin="round" stroke-miterlimit="10" stroke-width=".5" d="M427.125 480.17188l-7.01953.3125"/></g><g clip-path="url(#A)"><path fill="none" stroke="#000" stroke-linecap="round" stroke-linejoin="round" stroke-miterlimit="10" stroke-width=".5" d="M426.10547 480.21875l.625 1.05469"/></g><g clip-path="url(#B)"><path fill="none" stroke="#000" stroke-linecap="round" stroke-linejoin="round" stroke-miterlimit="10" stroke-width=".5" d="M440.16406 481.70313l-6.46875-2.7461"/></g><g clip-path="url(#C)"><path fill="none" stroke="#000" stroke-linecap="round" stroke-linejoin="round" stroke-miterlimit="10" stroke-width=".5" d="M453.65625 481.1836l-6.8164-1.71094"/></g><g clip-path="url(#D)"><path fill="none" stroke="#000" stroke-linecap="round" stroke-linejoin="round" stroke-miterlimit="10" stroke-width=".5" d="M467.0625 480.01953l-7 .61719"/></g><g clip-path="url(#E)"><path fill="none" stroke="#000" stroke-linecap="round" stroke-linejoin="round" stroke-miterlimit="10" stroke-width=".5" d="M147.10938 465.375l-6.21875 3.27734"/></g><path fill="none" stroke="#000" stroke-linecap="round" stroke-linejoin="round" stroke-miterlimit="10" stroke-width=".5" d="M146.20313 465.85156l1.01562.6875m13.20313-1.16797l-6.21485 3.28516m6.21484-3.28516l2.03125 1.37891m11.375-1.1875l-6.39843 2.90234m6.39844-2.90234l1.9453 1.4961m11.63282-.64063l-6.92578 1.1914m5.92187-1.01562l.75.96875m13.47657.44531l-6.73828-1.98828m5.7578 1.69922l.2461 1.20313m13.33984.39062l-5.3164-4.59766m16.72656-1.1328l-1.50781 6.86327m16.13281-6.27734l-4.1289 5.6914m3.52734-4.86328l1.21484.17188m13.4375 3.96875l-5.59765-4.2461m17.0703 5.50391l-1.91405-6.76172m1.6328 5.77735l-.8828.85156m16.33984-1.15234l-5.63672-4.19141m4.8164 3.58203l-.18359 1.21094m13.7461-5.40235l-4.48828 5.41016m3.83593-4.6211l1.19922.25m12.53907-1.21093l-4.03125 5.7539m16.05468-6.3164l-1.44922 6.8789m1.23829-5.875l1.17968-.33984m13.01563-.44922l-2.78906 6.44922m2.38671-5.51172l1.22266-.09765m11.41406-1.11328l-.6289 6.99609m15.05859-6.70703l-2.85547 6.41797m16.04297-6.47266l-2.59766 6.52734m13.0586-6.41406l3.10937 6.30078m8.58985-4.66406l6.33984 3.02734m13.20313.21875l-6.11329-3.46484m19.41797 3.48047l-6.09765-3.4961m5.21093 2.98829l-.03906 1.22265m13.39453.27344l-4.40234-5.47266m15.16016 6.23047l.71093-6.98828m-.60937 5.97266l-1.13281.46484m17.51171-.83594l-5.62109-4.21484"/><g clip-path="url(#F)"><path fill="none" stroke="#000" stroke-linecap="round" stroke-linejoin="round" stroke-miterlimit="10" stroke-width=".5" d="M147.09766 452.04297l-6.19532 3.3125"/></g><path fill="none" stroke="#000" stroke-linecap="round" stroke-linejoin="round" stroke-miterlimit="10" stroke-width=".5" d="M147.09766 452.04297l2.03906 1.36719m11.45312-.98829l-6.54687 2.55079m6.54687-2.55078l1.85938 1.60156m-2.8125-1.23047l.92969.80078m13.46875-.75781l-6.8125 1.72265m6.8125-1.72265l1.64843 1.82031m-2.63672-1.57031l.82422.91015m13.5-1.07812l-6.85156 1.5586m6.85156-1.5586l1.60547 1.85937m-2.60156-1.6328l.80078.92968m13.57422-.79688l-6.97656.83985m6.97656-.83985l1.40234 2.01563m11.91016-2.01563l-6.97656.84375m5.96094-.72265l.70312 1.00781m13.39844-2.02344l-6.51563 2.6289m5.5664-2.24609l.94142.78907m12.7539-2.11719l-5.3789 4.52344m4.59765-3.86719l1.13672.46094m13.63672.14062l-6.73438 2.00781m5.75391-1.71484l.86328.875m12.21875 2.61328l-4.30469-5.55468m3.67579 4.74609l-.50391 1.11719m15.20312-1.1172l-5.8164-3.9375m4.97265 3.36329l-.1328 1.22266m14.89062-2.85938l-7.01172.48047m5.98828-.41016l.65234 1.04297m13.52735-1.9375l-6.69532 2.1289m5.72266-1.8164l.875.85547M318.55078 450.5l-2.91016 6.39844m17.25-5.6875l-4.96093 4.97656m4.23828-4.2539l1.17578.35546m13.71484.29688l-6.66406 2.22265m5.69531-1.89843l.88672.84765m13.41406-1.11719l-6.69921 2.11329m5.72656-1.8047l.875.85938m12.42578-2.71093l-4.72656 5.19921m4.03906-4.4414l1.1914.30078m10.58204-1.96875l-.26563 7.02344m.22656-6l1.10157-.53516m10.3711-.02344l3.49608 6.09375m-2.98828-5.20703l.65235-1.03906m10.6211 1.94922l6.5664 2.5m-5.61328-2.13672l-.15235-1.21875m13.23438 4.50781l5.125-4.80469m-4.3789 4.10547l-1.16407-.39453m14.10937 1.4414l4.3711-5.5039m-3.73438 4.70313l-1.20703-.22266m13.8086.96094l4.52343-5.375m-3.86719 4.59375l-1.19921-.25781m16.92187 1.77343l-1.60156-6.84375m1.36719 5.84766l-.92188.8086"/><g clip-path="url(#G)"><path fill="none" stroke="#000" stroke-linecap="round" stroke-linejoin="round" stroke-miterlimit="10" stroke-width=".5" d="M146.74219 438.1875l-5.48438 4.39453"/></g><path fill="none" stroke="#000" stroke-linecap="round" stroke-linejoin="round" stroke-miterlimit="10" stroke-width=".5" d="M146.74219 438.1875l2.2539.96875m-3.05078-.33203l1.125.48828m13.30078-.66406l-6.11328 3.46875m6.11328-3.46875l2.07032 1.3164m-2.96094-.80859l1.03516.65625m13.30468-.90234l-6.3789 2.9453m6.3789-2.9453l1.95313 1.48437m11.6211-.6836l-6.89845 1.34766m6.89844-1.34765l1.54688 1.90234m11.75-1.98828l-6.86328 1.51953m6.86328-1.51953l1.59375 1.86719m11.80468-1.14063l-7.02734.0664m7.02734-.0664l1.17188 2.15625m12.1289-2.41015l-7.0039.57421m5.98828-.49218l.66016 1.03125m13.67578-1.03516l-7.01172.41797m5.99219-.35938l.64062 1.04688m13.69531-1.1211l-7.01172.44532m7.01172-.44531l1.28516 2.08984m12.03125-2.08984l-7.01563.4453m7.01563-.4453l1.28516 2.08984m12.0078-2.29297l-6.97265.85156m5.96094-.72656l.70313 1.0039m13.51953.25l-6.76563-1.90624m5.78125 1.6289l.26172 1.19922m14.16797-1.84375l-7.02734-.0586m6.0078.04688l.56641 1.08985m13.57032-2.26953l-6.62891 2.32421m6.6289-2.32421l1.8047 1.66406m11.46093-1.80078l-6.53125 2.59765m6.53125-2.59765l1.8711 1.58593m11.48437-1.47656l-6.61328 2.375m6.61328-2.375l1.8164 1.65235m11.69923-.71875l-7.01172.51171m5.99218-.4375l.65235 1.03907m13.0664-2.85547l-5.78125 3.9961m4.94141-3.41407l1.08984.5625m11.30079-2.47656l-2.25391 6.65625m1.92578-5.6875l1.21094-.19922m11.70703-.92969l-.80078 6.98047m.80078-6.98047l2.28125-.89844m7.84375 2.25391l5.58203 4.26953m-4.76953-3.64844l.19922-1.21093m11.66406 1.95312l6.85547 1.53906m-5.85547-1.3125l-.32812-1.18359m13.70703 4.32422l4.73047-5.19531m-4.04297 4.4414l-1.1875-.30469m14.21093 1.3711l3.9375-5.82031m-3.36328 4.97656l-1.21875-.13281m15.72266 1.57421l.41016-7.01562m-.34766 5.9961l-1.11719.51171"/><g clip-path="url(#H)"><path fill="none" stroke="#000" stroke-linecap="round" stroke-linejoin="round" stroke-miterlimit="10" stroke-width=".5" d="M146.55078 424.65234l-5.10156 4.83203"/></g><path fill="none" stroke="#000" stroke-linecap="round" stroke-linejoin="round" stroke-miterlimit="10" stroke-width=".5" d="M146.55078 424.65234l2.32422.78125m-3.0664-.07812l1.16406.39062m13.16015-.77734l-5.63672 4.19922m5.63672-4.19922l2.21875 1.05078m11.57031-.17969l-6.58203 2.45704m6.58203-2.45704l1.83594 1.625m11.69531-.5625l-7.01562.33203m7.01563-.33203l1.2539 2.11328m11.96875-1.11718l-6.82812-1.66016m5.83203 1.41797l.30469 1.1914m13.92187-.66015l-6.66016-2.23828m5.69141 1.91015l.19922 1.21094m14.21875-2.58203l-6.92969 1.16016m19.32813 1.83984l-5.09375-4.83984m4.35156 4.13672l-.32813 1.17968m15.14063-1.69921l-6.60547-2.39454m5.64453 2.04688l.17188 1.21484m14.21875-2.8789l-6.83594 1.6289m5.83984-1.39062l.8125.92187m13.58203-.6211l-7.0039.55079m5.98437-.46875l.66016 1.03516m13.20312.9375l-6.05859-3.5586m5.17578 3.04297l-.05078 1.22266m14.73047-2.4375l-7.02344-.09766m6.0039.08203l.5586 1.08985m13.72656-1.71875l-6.92578 1.1914m6.92578-1.1914l1.5 1.9414m11.8047-1.99218l-6.90626 1.29296m6.90625-1.29296l1.53125 1.91796m11.61328-2.53125l-6.5625 2.51954m5.60547-2.15235l.92578.80469m12.86719-2.03125l-5.60547 4.23828m4.78906-3.6211l1.11329.51563m11.82421-2.13672l-3.21484 6.2461m2.7461-5.33985l1.22656-.01562m10.58984-1.26172l.71484 6.98828m-.71484-6.98828l2.03906-1.36719m12.0664 1.375l-.86327 6.97266m.86328-6.97266l2.28906-.8789m-2.41406 1.89453l1.14453-.44141m10.58594-.35937l2.55469 6.54296m-2.1836-5.59375l.80078-.92968m13.91797-.22657l-.9961 6.95704m.85157-5.94532l1.15625-.41406m11.28516-.59375l1.04297 6.94922m-.89063-5.9375l.98438-.73047m9.27343 3.97656l6.85157-1.5664m-5.85547 1.33593l-.80078-.92578m13.59375 2.28125l5.90234-3.8164m-5.04297 3.26172l-1.07031-.59766"/><g clip-path="url(#I)"><path fill="none" stroke="#000" stroke-linecap="round" stroke-linejoin="round" stroke-miterlimit="10" stroke-width=".5" d="M146.61328 411.40625l-5.22656 4.69531"/></g><path fill="none" stroke="#000" stroke-linecap="round" stroke-linejoin="round" stroke-miterlimit="10" stroke-width=".5" d="M146.61328 411.40625l2.30469.84375m-3.0625-.16016l1.15234.42188m12.39453-1.58594l-4.17578 5.65234m4.17578-5.65234l2.42578.36328m-3.03125.46094l1.21094.17969m12.6875-1.01953l-4.13281 5.68359m3.53125-4.85547l1.21484.17188m13.15625 4.28906l-5.03906-4.89453m15.2539 5.91406l1.16016-6.92969m-.99218 5.92188l-1.16407.38672m13.88282.52343l2.01562-6.73437m-1.72266 5.7539l-1.20312.2422m14.21875.73437l2.03125-6.72656m-1.73828 5.74609l-1.20313.23828m14.59766.83203l1.28516-6.90625m-1.28516 6.90625l-2.33984.73828m18.1914-1.23437l-3.78906-5.91406m3.23828 5.05468l-.60156 1.07032m15.95703-2.21875l-6.76563-1.89844m5.78125 1.6211l.26172 1.19921m13.8672-.44922l-6.42579-2.84375m5.49219 2.42969l.08594 1.22266m14.39453-1.52735l-6.88672-1.40625m5.88281 1.19922l.34766 1.17578m13.12109-4.03906l-5.1914 4.73437m4.4375-4.04687l1.15624.41406m13.29297-.60156l-5.94922 3.73437m5.08594-3.1914l1.0625.60937m13.39453-.61718l-6.5039 2.66406m5.55468-2.27735l.94532.78516m12.99218-1.78516l-5.85156 3.88672m5.85156-3.88672l2.16016 1.16797m10.72266-1.69922l-4.98829 4.95313M358.8086 412l1.17188.35938m12.38672-1.48438l-4.02344 5.75781m4.02344-5.75781l2.4375.29297m9.54687-.86328l-1.35937 6.89453m1.35937-6.89453l2.34766-.71094m12.23828 1.23828l-3.90234 5.84375m3.90234-5.84375l2.4414.2461m11.2461.03906l-4.64453 5.27344m4.64453-5.27344l2.38672.5664m9.17969-1.39843l-1.14844 6.93359m1.14844-6.9336l2.32421-.78124m10.41407.73437v7.02735m0-7.02735l2.16797-1.14844m9.85546 1.39844l2.58594 6.53125m-2.21094-5.58203l.79688-.9336m10.0664 4.23829l6.7422-1.97656m-5.76173 1.6875l-.85937-.875"/><g clip-path="url(#J)"><path fill="none" stroke="#000" stroke-linecap="round" stroke-linejoin="round" stroke-miterlimit="10" stroke-width=".5" d="M146.63281 398.11328l-5.26562 4.64844"/></g><path fill="none" stroke="#000" stroke-linecap="round" stroke-linejoin="round" stroke-miterlimit="10" stroke-width=".5" d="M146.63281 398.11328l2.29688.86328m10.14844-1.57812l-3.52344 6.07812m3.52344-6.07812l2.44921.08984m-2.96484.79297l1.22656.04688m11.58985-1.32422l-1.4961 6.86718m1.4961-6.86718l2.35937-.66407m-2.57812 1.66407l2.36328-.66407m8.45703.1836l3.92969 5.82812m-3.9297-5.82812l1.15235-2.16406m10.94922 6.57421l6.35547-2.99218M195.00781 401.5l-.98437-.73438m13.15625.57813l6.78906-1.8125m-5.80078 1.55078l-.83594-.89844m13.45703 1.90625l6.20313-3.30468m-6.20313 3.30468l-2.03515-1.37109m17.66406 3.14453l1.57422-6.84765m-1.57422 6.84765l-2.36719.63672m17.17188-.6211l-1.40625-6.8828m1.40625 6.8828l-1.89063 1.5625m16.59766-2.18359l-4.1914-5.64062m3.58202 4.82031l-.52343 1.10938m15.6875-2l-6.66797-2.21485m6.66797 2.21485l.41015 2.41796m13.07031-3.21484l-7-.6211m5.98047.52735l.48047 1.13281m13.53516-2.84765l-6.35938 2.99609m5.4336-2.5625l.98047.73438m11.80468-2.73438l-3.44922 6.125m2.94532-5.23047l1.22656.02735m13.17578-.50782l-4.61719 5.29688m4.61719-5.29688l2.39063.55469m11.53906.14453l-5.84766 3.89844m5.84766-3.89844l2.16015 1.16406m11.7461.7422l-7.02735.08593m7.02735-.08594l1.17969 2.15235m12.1328-2.25391l-7.02343.28906m6-.2461l.6211 1.0586m11.5625-4.19922l-2.71094 6.48438m2.71093-6.48438l2.44141-.22656m10.19531.02344l-1.35547 6.89453m1.35547-6.89453l2.34766-.71485m12.58203 1.4961l-4.58203 5.32812m3.91406-4.55078l1.19531.26953m10.6875-1.89062l-.3828 7.01562m.3828-7.01562l2.22657-1.03125m10.74218 1.03125l.3086 7.01953m-.3086-7.01953l2.11329-1.2461m11.53125 1.2461l-.35157 7.01953m.35157-7.01953l2.22265-1.04297m7.41406 4.27344l7.00391.55468"/><g clip-path="url(#K)"><path fill="none" stroke="#000" stroke-linecap="round" stroke-linejoin="round" stroke-miterlimit="10" stroke-width=".5" d="M147.15625 385.57813l-6.3125 3.08984"/></g><path fill="none" stroke="#000" stroke-linecap="round" stroke-linejoin="round" stroke-miterlimit="10" stroke-width=".5" d="M146.23828 386.02734l.99219.71875m11.8711-2.64843l-3.57032 6.05078m3.57031-6.05078l2.44922.10546m-2.96875.77344l1.22266.05469m11.7461-1.30078l-1.83985 6.78515m1.83984-6.78515l2.39063-.54297m-2.66016 1.53125l2.39453-.54297m-2.66016 1.53125l1.19532-.27344m12.01953-1.8125l-.57031 7.00391m.48828-5.98438l1.125-.48437m8.6289 1.9375l6.71875 2.0586m-5.74218-1.75782l-.23438-1.20703m13.94922-.96484l3.96484 5.80078m-3.96484-5.80078l1.14063-2.17579m10.89062 3.78125l6.53125 2.58985m-6.53125-2.58985l-.27344-2.4375m14.03906 5.83594l5.62891-4.20703m-5.6289 4.20703l-2.21875-1.04687m3.03906.4336l-1.10938-.51954m14.35547 1.8711l4.1289-5.6836m-4.1289 5.6836l-2.42969-.33985m3.03125-.48438l-1.21484-.17187m15.63672 1.64844l.71094-6.98828m-.71094 6.98828l-2.27344.92969m17.70313-1.38282l-3.51954-6.08203m3.00782 5.19922l-.64844 1.03906m14.66016-.26953l-3.89063-5.85156m3.32422 5l-.58203 1.07812m13.6289.1797l-2.22265-6.66798m1.90234 5.69922l-.84765.88672m12.79687-6.71875l1.15235 6.9336m-.98438-5.92188l.97266-.75m16.17187 2.40234l-6.83984 1.60938m5.84375-1.375l.8086.92187m13.23437 1.19922l-6.3047-3.10547m6.3047 3.10547l.07421 2.45313m12.4961-6.5625l-4.8164 5.11718m4.8164-5.11718l2.36719.64453m10.72265-.83985l-4.36719 5.50391m4.3672-5.5039l2.41406.4414m9.45703-1.125l-1.47657 6.8711m1.47657-6.8711l2.35937-.67188m10.17188.59375l.08984 7.02735m-.08984-7.02735l2.15234-1.17968m12.30469 1.35547l-2.19531 6.67578m2.1953-6.67578l2.41798-.41797m9.57421.25l.45313 7.01172m-.45313-7.01172l2.08985-1.28906m11.0039 1.30859l.89454 6.97265m-.89454-6.97265l2.00391-1.41797m13.05078 1.63672l-2.58594 6.53515m2.58594-6.53515l2.4375-.27344m13.03125 4.21875l-6.89453-1.35547m5.89453 1.16016l.35547 1.17187"/><g clip-path="url(#L)"><path fill="none" stroke="#000" stroke-linecap="round" stroke-linejoin="round" stroke-miterlimit="10" stroke-width=".5" d="M146.64063 371.48828l-5.28125 4.64063"/></g><path fill="none" stroke="#000" stroke-linecap="round" stroke-linejoin="round" stroke-miterlimit="10" stroke-width=".5" d="M145.8711 372.16406l1.14843.4336m11.57813-2.0625l-2.5625 6.54296m2.5625-6.54296l2.4375-.28125m10.90625.29296l-2.6211 6.52344m2.6211-6.52344l2.4375-.26171m-2.82032 1.21093L174 371.23438m12.54297.20703l-5.19531 4.73437m5.1953-4.73437l2.3086.82421m-3.0664-.13671l2.3125.82812m11.80859-1.46094l-5.29297 4.625m5.29297-4.625l2.29297.8711m-3.0625-.19922l1.14453.4375m12.59375-1.45313l-4.59766 5.3125m4.59766-5.3125l2.39063.54688m10.24218-1.01172l-3.23437 6.23828m3.23437-6.23828l2.45313-.02344m-2.92578.9336l2.45703-.02735m7.58203 5.03125l4.26172-5.58594m-4.26172 5.58594l-2.42188-.39844m15.83203.46875l4.07032-5.72656m-4.07031 5.72656l-2.4336-.3164m3.02734-.51563l-2.43359-.3164m15.03906 1.0625l4.3047-5.55469m-4.3047 5.55469l-2.41797-.41797m3.04297-.39063l-1.20703-.20703m14.71875 1.48828l2.66016-6.5039m-2.27344 5.5586l-1.22266.125m13.8672.6914l3.23046-6.24219m-2.76172 5.33203l-1.22656.01563m12.19531-2.625l6.98438.79687m12.9336 1.23047l-6.22267-3.25781m6.22266 3.25781l.01953 2.45313m13.41016-2.6875l-6.44922-2.78907m6.44922 2.78906l.19531 2.44532m13.40625-3.80078l-7.02734-.07813m6.00781.0664l.5625 1.08985m12.64844-3.69531l-4.77735 5.15625m4.08204-4.40625l1.18359.3125m12.98437-.90625l-5.09375 4.84375m5.09375-4.84375l2.32813.77734m9.46094-1.71875l-2.04297 6.72656m2.04297-6.72656l2.41015-.47265m11.80469.89062l-3.83984 5.88672m3.83984-5.88672l2.4414.21875m10.4961-.42969l-3.08203 6.3125m3.08203-6.3125l2.45313-.08593m10.03515-.19922l-1.4336 6.8789m1.4336-6.8789l2.35547-.6836m11.91797 1.03516l-3.34766 6.17969m3.34766-6.17969l2.45312.01953m11.94532.89453l-5.51563 4.35156m5.51563-4.35156l2.24609.98438m10.67578 3.78906l-4.73047-5.19531m4.73047 5.19531l-.82812 2.3125m.14062-3.0664l-.41406 1.15234"/><g clip-path="url(#M)"><path fill="none" stroke="#000" stroke-linecap="round" stroke-linejoin="round" stroke-miterlimit="10" stroke-width=".5" d="M145.67578 357.40625l-3.35156 6.17578"/></g><path fill="none" stroke="#000" stroke-linecap="round" stroke-linejoin="round" stroke-miterlimit="10" stroke-width=".5" d="M145.67578 357.40625l2.45313.01953m9.74609-.40234l-1.11719 6.9375m1.11719-6.9375l2.32031-.79297m11.04688.80469l-1.22656 6.91796m1.22656-6.91796l2.33594-.75782m-2.51172 1.76172l1.16406-.375m12.55469-.58203l-1.6797 6.82422m1.6797-6.82422l2.3789-.60156m11.13672.65625l-2.08203 6.71094m2.08203-6.71094l2.41016-.45703m-2.71485 1.4336l1.20703-.23048m12.94922-.52734l-3.15625 6.27734m3.15625-6.27734l2.45313-.0586m-2.91016.97266l1.22656-.03125m12.64063-.83594l-3.34375 6.1836m3.34375-6.1836l2.45313.01563m12.66796 3.5664l-6.95703-.98046m6.95703.98046l.83985 2.3047m8.95312.71874l.08594-7.02734m-.08594 7.02734l-2.17969 1.125m16.2422-1.19531l-1.40626-6.88672m1.19922 5.88281l-.94531.78125m12.20312-.07421l3.1211-6.29688m-3.1211 6.29688l-2.45312.0703m18.46094.10938l-2.26563-6.65234m2.26563 6.65234l-1.67578 1.78906m17.09765-3.7539l-6.47656-2.72266m6.47656 2.72266l.22266 2.44531m13.3125-3.1836l-6.91797-1.25m6.91797 1.25l.7461 2.33594m-1.75391-2.51562l.375 1.16797m13.99609-1.79297l-7.01563.36328m7.01563-.36328l1.26562 2.10156m11.91797-2.89453l-6.75 1.94531m5.76953-1.66015l.85157.88281m12.03906-3.10547l-3.9414 5.82031m3.36718-4.97265l1.21875.13281m13.07031-.66016l-4.74218 5.1836m4.05468-4.42969l1.1875.30469m13.23828-.60156l-5.58593 4.26562m5.58593-4.26563l2.23047 1.02344m10.61328-1.52344l-4.64453 5.26954m4.64453-5.26954l2.38672.56641m10.58985-.83203l-3.96485 5.80078m3.96485-5.80078l2.4375.26953m-3.01563.57422l1.21875.13281m12.83203-.86328l-4.28515 5.57031m4.28515-5.5703l2.42188.41015m11.92187.86328l-6.33984 3.02734m6.33984-3.02734l1.97266 1.45703m11.66406.44922l-6.98437-.78906m6.98437.78906l.90235 2.28515m-1.91797-2.39843l.44922 1.14062m12.875 1.0625l-4.96875-4.96875m4.96875 4.96875l-.71875 2.34766m-.00391-3.07031l-.35938 1.17578"/><g clip-path="url(#N)"><path fill="none" stroke="#000" stroke-linecap="round" stroke-linejoin="round" stroke-miterlimit="10" stroke-width=".5" d="M146.11328 344.3711l-4.22656 5.61327"/></g><path fill="none" stroke="#000" stroke-linecap="round" stroke-linejoin="round" stroke-miterlimit="10" stroke-width=".5" d="M146.11328 344.3711l2.42188.3789m10.8203-.4336l-4.08202 5.72266m4.08203-5.72265l2.4336.32421m9.875-.8203l-2.06641 6.71484m2.0664-6.71485l2.41016-.46484m10.09375.3164l-.44531 7.01172m.4453-7.01171l2.23438-1.01172m8.44922 1.95703l4.8164 5.1211m-4.8164-5.1211l.78906-2.32031m11.83985 3.21875l6.1875 3.32812m-6.1875-3.32813l.01172-2.45703m15.48047.72657l1.83593 6.78515m-1.83593-6.78515l1.78906-1.67579m15.05469 2.71875l-5.22266 4.69922m4.46484-4.01562l1.15235.42187m11.21094-2.15234l-1.8047 6.79297m1.54298-5.80469l1.1953-.27734m14.53126.9414l-6.10156 3.48829m5.21093-2.98047l1.03907.65234m12.375 3.27734l-4.51954-5.3828m4.51954 5.3828l-.92188 2.27344m.26563-3.0586l-.46094 1.13673m14.09766-.10547l-3.85157-5.8789m3.85156 5.8789l-1.17968 2.15234m.6211-3.00781l-1.1797 2.15234m16.44141-3.0625l-6.625-2.34765m6.625 2.34765l.35938 2.42969m-1.32422-2.76953l.17968 1.21484m14.17188-2.98437l-6.76953 1.8711m6.76953-1.8711l1.6914 1.78125m-2.67578-1.50781l.84375.89062m13.3047-1.60547l-6.46485 2.7539m6.46484-2.7539l1.90625 1.54297m11.45703-1.41797l-6.5625 2.50781m17.30078-4.69921l-1.41015 6.88671m17.25-4.82812l-6.45703 2.77344m5.51562-2.3711l.95703.76563m13.57813.00781l-7.01563.41797m7.01563-.41797l1.27734 2.09375m11.71094-3.3711l-6.36328 2.97657m6.36328-2.97656l1.96094 1.47265m11.0039-2.0664l-5.66406 4.16015m5.66406-4.16015l2.21094 1.0664m-3.03516-.46094l1.10547.53516m12.92969-1.27734l-5.45313 4.4336m5.45313-4.4336l2.25781.95312m-3.05469-.3086l2.26172.95313m12.34766-.77734l-6.44922 2.79297m6.44922-2.79297l1.91797 1.52734m11.6875-.09765l-7.02735-.0664m7.02735.0664l1.1289 2.17969m-2.15234-2.1875l.5664 1.08984m13.75782-.83594l-7.0039-.55469"/><g clip-path="url(#O)"><path fill="none" stroke="#000" stroke-linecap="round" stroke-linejoin="round" stroke-miterlimit="10" stroke-width=".5" d="M467.0625 347.45703l.98047 2.25"/></g><path fill="none" stroke="#000" stroke-linecap="round" stroke-linejoin="round" stroke-miterlimit="10" stroke-width=".5" d="M466.04688 347.375l.48828 1.125"/><g clip-path="url(#P)"><path fill="none" stroke="#000" stroke-linecap="round" stroke-linejoin="round" stroke-miterlimit="10" stroke-width=".5" d="M146.375 331.27734l-4.75 5.17188"/></g><path fill="none" stroke="#000" stroke-linecap="round" stroke-linejoin="round" stroke-miterlimit="10" stroke-width=".5" d="M146.375 331.27734l2.375.6172m10.3711-1.04298l-3.61329 6.02344m3.61328-6.02344l2.45313.125m-2.97656.75l1.22265.0625m13.16016-.53906l-4.69922 5.22656m4.69922-5.22656l2.3789.59375m11.39844-.08594l-5.625 4.21094m5.625-4.21094l2.22266 1.04688m10.90234-1.28125l-5.2461 4.67578m5.2461-4.67578l2.30078.85156m9.94922-1.66016l-3.11328 6.29688m2.66016-5.38281l1.22656-.03516m10.21094-1.16016l1.54687 6.85547m-1.54687-6.85547l1.85937-1.59765m9.39063 7.10156l5.67578-4.14844m-4.84766 3.54297l-1.10547-.53515m19.94141-.76954l-7.01953-.32812m7.01953.32812l1.05078 2.21485m11.29297.05078l-5.07813-4.85938m5.07813 4.85938l-.66406 2.35937m-.07422-3.0664l-.66406 2.35937m14.77343-1.71094l-5.1914-4.74218m5.1914 4.74219l-.61328 2.375m-.14453-3.06641l-.60937 2.375m-.14454-3.0625l-.30468 1.1875m15.42187-.17578l-5.77344-4.00781m5.77344 4.0078l-.28906 2.4375m-.55078-3.01952l-.28906 2.43359m15.0078-4.53125l-6.89843 1.35156m6.89844-1.35156l1.54297 1.90625m-2.54688-1.70703l.77344.94922m12.9414-2.53125l-5.6914 4.11719m5.6914-4.1172l2.20313 1.08204m-3.03125-.48438l2.20313 1.08204m12.27734-1.11329l-6.36328 2.98438m6.36328-2.98438l1.96094 1.47266m11.46875-1.19531l-6.59375 2.42969m5.63281-2.07422l.91797.8164m7.03515-1.7461l6.05079 3.57813m13.21875.14844l-5.85938-3.875m5.00781 3.3125l-.11718 1.21875m14.51171-1.05469l-6.3164-3.07812m6.3164 3.07812l.08985 2.45313m13.5625-3.61328l-6.98828-.75781m5.96875.64843l.45703 1.14063m13.7461-2.42969l-6.72657 2.03906m6.72656-2.03906l1.73047 1.73828m11.55078-1.84375l-6.65625 2.25m6.65625-2.25l1.78516 1.6836m-2.7539-1.35547l.89062.83984m13.4375-1.02344l-6.7461 1.96094m6.7461-1.96094l1.71093 1.76172m-2.6914-1.47656l1.71094 1.76172m12.71875-1.2539l-7.01563.375m7.01563-.375l1.26562 2.10546m-2.28516-2.05078l.63282 1.05078m13.66015-1.50781l-6.92968 1.17578"/><g clip-path="url(#Q)"><path fill="none" stroke="#000" stroke-linecap="round" stroke-linejoin="round" stroke-miterlimit="10" stroke-width=".5" d="M467.02734 333.27344l1.4961 1.94531"/></g><path fill="none" stroke="#000" stroke-linecap="round" stroke-linejoin="round" stroke-miterlimit="10" stroke-width=".5" d="M466.01953 333.44531l.7461.97266"/><g clip-path="url(#R)"><path fill="none" stroke="#000" stroke-linecap="round" stroke-linejoin="round" stroke-miterlimit="10" stroke-width=".5" d="M146.04688 317.6914l-4.09375 5.71485"/></g><path fill="none" stroke="#000" stroke-linecap="round" stroke-linejoin="round" stroke-miterlimit="10" stroke-width=".5" d="M146.04688 317.6914l2.42968.32423m10.57031-.52344l-3.46484 6.11328m3.46484-6.11328l2.45313.0625m-2.95703.82422l1.22656.03515m12.91406-.71484l-4.10937 5.69922m4.10937-5.69922l2.4336.33203m11.91406.83594l-6.17188 3.35937m5.27344-2.86719l1.02344.67579m12.52734-2.03125l-4.84765 5.08593m4.84765-5.08593l2.36328.66406m10.60157-.95703L208.5 323.3828m4.14844-5.67187l2.42969.35156m10.1914-.7461l-2.75781 6.46485m2.35547-5.52344l1.22265-.10547m12.3711 5.67579l-2.51172-6.5625m2.14453 5.60937l-.80469.92578m15.34375-.44531l-4.22656-5.61328m4.22656 5.61328l-1.03515 2.22265m.42187-3.03906l-.51953 1.10938m14.63281-.4414l-4.59375-5.32032m4.59375 5.32031l-.89062 2.28906m.22265-3.0625l-.89062 2.28907m15.36328-2.03125l-5.57031-4.28516m5.57031 4.28516l-.41016 2.41796m-.40234-3.04296l-.40625 2.42187m15.10938-2.91797l-6.72266-2.04687m6.72265 2.04687l.46875 2.41016m-1.44921-2.70703l.23828 1.20312m14.04687-2.98437l-6.70312 2.10937m6.70312-2.10937l1.75 1.72265m-2.72656-1.41406l.875.85938m12.8086-2.3086l-5.48829 4.39063m5.48828-4.39063l2.25391.97266m-3.05078-.33203l1.125.48437m12.9961-1.10937l-5.50782 4.36328m5.50781-4.36328l2.25.98437M332.36328 319l1.125.49219m12.76172-1.39063l-5.04688 4.89063m5.04688-4.89063l2.33203.7539m-3.0664-.04296l1.16796.3789m12.76172-1.20702l-4.8086 5.125m4.10938-4.37891l1.1836.32031m11.53125 4.83203l-2.21094-6.66797m17.03906 5.6797l-5.23437-4.69142m4.47265 4.00782l-.29687 1.1914m9.03515-.6328l5.44141-4.44142m7.64453 4.12891l5.89844-3.8164m13.07813 4.14453l-5.42188-4.47266m18.57813-.17578l-5.10547 4.82422m4.36328-4.125l1.16406.39453m13.70313.29297l-6.72266 2.04687m6.72265-2.04687l1.73047 1.73828m-2.71093-1.4375l.86718.86719m13.33985-1.41407l-6.55078 2.53907"/><g clip-path="url(#S)"><path fill="none" stroke="#000" stroke-linecap="round" stroke-linejoin="round" stroke-miterlimit="10" stroke-width=".5" d="M466.83594 319.27734l1.85937 1.60547"/></g><path fill="none" stroke="#000" stroke-linecap="round" stroke-linejoin="round" stroke-miterlimit="10" stroke-width=".5" d="M465.88281 319.64844l.92969.80078"/><path fill="#00f" fill-rule="evenodd" d="M392.67578 463.21094h8.6211V453.0625h-8.6211v10.14844"/><path fill="azure" fill-rule="evenodd" d="M394.51172 454.89844h.83203v2.82031h3.28516v-2.82031h.83203v6.48047h-.83203v-2.91797h-3.28516v2.91797h-.83203v-6.48047"/><path fill="#ff3030" fill-rule="evenodd" d="M171.45313 449.89453h7.6914V439.75h-7.6914v10.14453"/><path fill="azure" fill-rule="evenodd" d="M173.28516 441.58203h.83593v5.73828h3.19141v.74219h-4.02734v-6.48047"/><path fill="#ff3030" fill-rule="evenodd" d="M326.79688 445.45703h7.6914V435.3125h-7.6914v10.14453"/><path fill="azure" fill-rule="evenodd" d="M328.6289 437.14453h.83204v5.73828h3.19531v.74219h-4.02734v-6.48047"/><path fill="#00f" fill-rule="evenodd" d="M383.80078 432.14063h8.61719v-10.14454h-8.61719v10.14454"/><path fill="azure" fill-rule="evenodd" d="M385.63281 423.82813h.83203v2.82421h3.28907v-2.82421h.83203v6.48046h-.83203v-2.91796h-3.28907v2.91796h-.83203v-6.48046"/><path fill="#00f" fill-rule="evenodd" d="M219.58203 409.94922h8.61719v-10.14453h-8.61719v10.14453"/><path fill="azure" fill-rule="evenodd" d="M221.41406 401.63672h.83203v2.82422h3.28907v-2.82422h.83203v6.48047h-.83203v-2.91797h-3.28907v2.91797h-.83203v-6.48047"/><path fill="#00f" fill-rule="evenodd" d="M370.48438 396.63281h8.62109v-10.14453h-8.6211v10.14453"/><path fill="azure" fill-rule="evenodd" d="M372.3164 388.32031h.83594v2.82422h3.28516v-2.82422h.83203v6.48047h-.83203v-2.91406h-3.28516v2.91406h-.83593v-6.48047"/><path fill="#ff3030" fill-rule="evenodd" d="M260.21875 352.25h7.69531v-10.14453h-7.69531V352.25"/><path fill="azure" fill-rule="evenodd" d="M262.05469 343.9375h.83203v5.73828h3.19531v.74219h-4.02734v-6.48047"/><path fill="#ff3030" fill-rule="evenodd" d="M202.52344 347.8125h7.6914v-10.14453h-7.6914v10.14453"/><path fill="azure" fill-rule="evenodd" d="M204.35547 339.5h.83203v5.73828h3.19531v.74219h-4.02734V339.5"/><path fill="#ffffe0" fill-rule="evenodd" d="M341.74219 359.52344h22.1836v-10.1914h-22.1836v10.1914"/><path fill-rule="evenodd" d="M345.24219 351.16406h.51172v6.29297h-.78907v-4.48828h-1.38671v-.55469l.55859-.0664.2539-.0547.22657-.08983.20312-.14063.17578-.21094.14063-.29297.10547-.39453m4.8164 0l.22657.01953.21875.0547.21093.08983.19532.1211.18359.14844.17188.17578.30078.41797.24218.49609.1797.54688.11327.57812.03906.58984-.03906.59375-.11328.58594-.17969.55469-.24218.5-.30079.42969-.17187.17968-.1836.15235-.1953.1211-.21094.09374-.21875.0586-.22657.01953-.23046-.01954-.21875-.05859-.20704-.09375-.19921-.1211-.1836-.15234-.17187-.17968-.30079-.4297-.24218-.5-.17969-.55468-.11328-.58594-.03906-.59375h.83593l.02735.5625.08203.50782.125.4414.16406.375.1914.30078.21094.22266.22266.13672.22656.04687.22657-.04687.22265-.13672.21094-.22266.1875-.30078.16406-.375.125-.4414.08203-.50782.03125-.5625-.03125-.55859-.08203-.5039-.125-.4336-.16406-.36719-.1875-.28906-.21094-.21484-.22265-.13282-.22657-.04296-.22656.04296-.22265.13282-.21094.21484-.1914.28906-.16407.36719-.125.4336-.08203.5039-.02735.5586h-.83593l.03906-.58985.11328-.57813.17969-.54687.24219-.4961.30078-.41796.17187-.17578.1836-.14844.19921-.1211.20704-.08984.21875-.05469.23046-.01953m5.08985 0h.50781v6.29297h-.78516v-4.48828h-1.39062v-.55469l.5625-.0664.25-.0547.23047-.08983.20312-.14063.17578-.21094.14063-.29297.10547-.39453m2.82422 2.17578h.78515l.01953-.3164.0586-.28516.10156-.2539.14063-.21485.17968-.17578.22266-.1289.26562-.07813.3086-.02735.23828.01954.22265.0625.20313.10156.17969.14062.14844.17188.11328.20703.07421.23438.02344.26562-.01953.26563-.0664.22656-.10938.1914-.15625.17188-.20313.16015-.24609.16797-.63281.39063-.53906.3125-.4375.3164-.34375.32422-.26563.33594-.1914.35156-.125.3672-.06641.39452-.02344.41797h4.21485v-.73828h-3.33594l.08594-.28516.11328-.23828.14843-.19922.1875-.17968.23047-.17188.27735-.17578.71875-.41797.41406-.20312.34375-.23047.28125-.2539.22265-.26563.16016-.27735.11328-.28515.0625-.28516.01953-.28125-.03906-.38281-.1211-.34766-.1914-.3086-.25-.26171-.30078-.21485-.34766-.15625-.3789-.09765-.40625-.03516-.4336.03125-.39843.10156-.35547.16407-.30469.23437-.25.30469-.1836.375-.11718.44531-.03906.51953"/></g></defs><use xlink:href="#T"/></svg>