<svg xmlns="http://www.w3.org/2000/svg" role="img" xmlns:xlink="http://www.w3.org/1999/xlink" viewBox="142.45 309.95 326.84 171.84"><defs><clipPath id="a"><path d="M144 311.67188h1v168.65625h-1zm0 0"/></clipPath><clipPath id="b"><path d="M144 311.67188h324v168.65625H144zm0 0"/></clipPath><clipPath id="c"><path d="M467 311.67188h1v168.65625h-1zm0 0"/></clipPath><clipPath id="d"><path d="M144 476h2v4.32813h-2zm0 0"/></clipPath><clipPath id="e"><path d="M156 476h2v4.32813h-2zm0 0"/></clipPath><clipPath id="f"><path d="M170 476h2v4.32813h-2zm0 0"/></clipPath><clipPath id="g"><path d="M183 476h2v4.32813h-2zm0 0"/></clipPath><clipPath id="h"><path d="M195 477h5v3.32813h-5zm0 0"/></clipPath><clipPath id="i"><path d="M207 477h7v3.32813h-7zm0 0"/></clipPath><clipPath id="j"><path d="M220 478h8v2.32813h-8zm0 0"/></clipPath><clipPath id="k"><path d="M236 476h2v4.32813h-2zm0 0"/></clipPath><clipPath id="l"><path d="M248 476h5v4.32813h-5zm0 0"/></clipPath><clipPath id="m"><path d="M263 476h2v4.32813h-2zm0 0"/></clipPath><clipPath id="n"><path d="M275 477h5v3.32813h-5zm0 0"/></clipPath><clipPath id="o"><path d="M289 476h3v4.32813h-3zm0 0"/></clipPath><clipPath id="p"><path d="M301 477h6v3.32813h-6zm0 0"/></clipPath><clipPath id="q"><path d="M315 476h4v4.32813h-4zm0 0"/></clipPath><clipPath id="r"><path d="M327 477h6v3.32813h-6zm0 0"/></clipPath><clipPath id="s"><path d="M340 477h7v3.32813h-7zm0 0"/></clipPath><clipPath id="t"><path d="M354 477h6v3.32813h-6zm0 0"/></clipPath><clipPath id="u"><path d="M367 477h6v3.32813h-6zm0 0"/></clipPath><clipPath id="v"><path d="M382 476h4v4.32813h-4zm0 0"/></clipPath><clipPath id="w"><path d="M395 476h4v4.32813h-4zm0 0"/></clipPath><clipPath id="x"><path d="M408 477h5v3.32813h-5zm0 0"/></clipPath><clipPath id="y"><path d="M419 480h9v.32813h-9zm0 0"/></clipPath><clipPath id="z"><path d="M425 480h2v.32813h-2zm0 0"/></clipPath><clipPath id="A"><path d="M433 479h8v1.32813h-8zm0 0"/></clipPath><clipPath id="B"><path d="M439 480h1v.32813h-1zm0 0"/></clipPath><clipPath id="C"><path d="M447 477h6v3.32813h-6zm0 0"/></clipPath><clipPath id="D"><path d="M460 477h7v3.32813h-7zm0 0"/></clipPath><clipPath id="E"><path d="M144 463h3v8h-3zm0 0"/></clipPath><clipPath id="F"><path d="M144 451h4v5h-4zm0 0"/></clipPath><clipPath id="G"><path d="M144 438h4v5h-4zm0 0"/></clipPath><clipPath id="H"><path d="M144 424h3v6h-3zm0 0"/></clipPath><clipPath id="I"><path d="M144 411h3v6h-3zm0 0"/></clipPath><clipPath id="J"><path d="M144 397h3v6h-3zm0 0"/></clipPath><clipPath id="K"><path d="M144 385h4v4h-4zm0 0"/></clipPath><clipPath id="L"><path d="M144 372h4v3h-4zm0 0"/></clipPath><clipPath id="M"><path d="M144 357h2v7h-2zm0 0"/></clipPath><clipPath id="N"><path d="M466 360h2v4h-2zm0 0"/></clipPath><clipPath id="O"><path d="M144 344h3v7h-3zm0 0"/></clipPath><clipPath id="P"><path d="M466 346h2v3h-2zm0 0"/></clipPath><clipPath id="Q"><path d="M144 331h4v6h-4zm0 0"/></clipPath><clipPath id="R"><path d="M466 332h2v4h-2zm0 0"/></clipPath><clipPath id="S"><path d="M144 317h3v7h-3zm0 0"/></clipPath><clipPath id="T"><path d="M466 319h2v3h-2zm0 0"/></clipPath><g id="U" clip-path="url(#clip1)"><path fill="#fff" fill-opacity="0" fill-rule="evenodd" d="M0 0h1000v1000H0zm0 0"/><path fill="#d3d3d3" fill-opacity="0" fill-rule="evenodd" d="M162.15234 355.86719l-.23437.29297.0586.23437.11718.17188.17578.23437.29297.34766.11328.0586.11719-.17188.0586-.23438.17577-.17578.46485-.17578h.69922l.23437.29297.28906.8164.0586.17579.17578.23046.35156.23438.69922.69922.17188.17578.23437.34765.23438.41016.28906.58203.41015.46485.23047.23437.23438.17578.11719.23047.17578.29297.17187 1.16406v.23438l.0586.28906.05859.11719.11719.11719.34765.41015.11719.17188.17578.17578.17578.23437.11719.17188.17188.35156.05859.23438.23437.40625.23438-.0586-.17578.17578-.0586.92969h-.58203l-.23437-.11328-.34766.11328-.11719.11719-.05859.29297-.0586.17578-.11718.17187-.46484.29297-.0586.23438-.0586.11328v.64453l.0586.17187v.41016l.0586.0586v.40624l.05859.40625.11719.17579.05859.05859.23047.64062-.0586.29297v.69922l-.05859.58203v.23438l-.0586.23047-.05468.35156v1.92187l.05469.1172h.42578l-.36719.11718-.02344.35156.89063 1.16797 1.74219.53906 1.33984.35938v.53906l.08984.8086.53516.71484 1.51953.26953.89063-.08594.08984 1.16406.53516.1797 1.16015-.1797 2.05469-.98437 1.16016-.36328 1.8789-.17578 1.69531-.1797-.17968.71876-1.51563.08594-1.25.08984-.80469.26953-1.07421.8086.26953.71875.53515.89843-.17968.625-.26563.8086.26563 1.07812.625.89844.80468.17969 1.25-.1797-.26562.72267.09766.5039.05468.29297v.17188l.0586.29296v.40625l.17578.1172.35156.11718h.40625l.29297-.17578.11328-.11719.0586-.11719.11718-.23047.0586-.17578.35156-.46484.23047-.17578.17578-.0586.17578.0586.0586.17578.11718.98828.05469.46875.0586.17188.11718.23437.17578.0586.8164.05859h.28907l.11719.23437.05859.40625.0586.35156v1.10547l.11718.29297.11719.34766.28906.69922.17578.35156.58203.7539.35157.17579.17187.0586.46875.23437.64063.46484.34765.23438.29297.17578.29297.05468.23047.0625.8164.34766.29297.17578.11328.17188.35157.35156.11719.17578.52343.64063v.28906l.0586.35156v.34766l.05859.35156.0586.28906.11718.0586.17188.05859h.17578l.58203.23437.17578.1172.17578.28905.17578.23438.11328.23437.29297.23047.11719.11719v.41016l.0586.05468.28906.23438.23437.11719.0586.11718.11718.17188.0586.11719.23047.23437.05859.17578.23437.0586.1172.05859-.1172.11328-.05859.11719v.11719l-.11719.29296-.11719.28907v.58203l.17579.11719.11718.05859.0586.11719.11719.11719.11328.05859.17578.34765.0586.35157.05858.40625v.17578l-.05859.17578-.11719.69922v.17187l.1172.17579.29296.29296h.40625l.17578.1172.11719.17187.11719.29296v.23438h-.52735l-.23047-.23438h-.23437l-.17578.0586-.0586.69922.0586.34765.11719.17579.17578.41015.11718.23047.28907.46875.17578.05469h.52344l.23437.0586.75781.64062.0586.29296v.23438l.05859.0586.23047.34765v.35156l-.11719.17188v.29297l.29297.28906.29297.17578.17187.0586.29297.17577.29297.1172.58203.40624.28906.23438.29297.17578.21875.16015.01563.01172.23047.17579.64062.52343.17578.23438.1172.17578.17577.17578.11328.17188v.64062l.1172.17578.46874.11719.58203.11719.23438.05859.23047.11328.29297.11719.11328.0586.58593.35156.28907.17187.17578.0625.17578.05469.17578.0586.69922.35155.28906.17579.23438.05468.28906.17578.23437.1172.64063.40624.29297.11719.17187.0586.23438.05859.41015.05859.23047.0586.23438.11718.0586.17188-.41017.17578.46875.0586.0586.29296.11328.23438.17578.05468.23438.0586.17578.05859.40625.11719.64062.23437.11719.17188.0586.23437v.17578l-.0586.1172-.0586.40624.23438.23438.11719.05859.34766.11719.64062.23047.17578.11718.28906.1172.17578.17577.23438.46485.58203 1.10546.17578.17579.34766.17578.17578.11719.35156.11718 1.04688.52344.23437.0586.46485.11327.29297.0586.46484.17578.75781.58203.23438.23438.34765.46484.17578.17578.28907.23438.8164.69921.29297.17579.28906.28906.29297.17578.29297.28906.69531.64063.17578.17578.29297.23437.28907.23438.46875.28906.64062.58203.34766.23438.23437.29297.34766.34765.35156.46485.9336.99218.34765.40625.11719.17579.23437.05859.11328.11719.64454.17578.23047.11328.23437.0586.29297.17577.23047.1172.9336.69921.40624.40625.23438.17578.40625.17578.23437.11719.8164.34766.34766.23437.23438.11719.29297.28906.23047.11719.7578.35156.35157.17188.23047.05859.29297.11719.23437.0586.8711.17577h.8164l.46875.23047.17188.0586.875.69921.46484.1172.29297.05858.17578.0586.23047.0586.46875.05859.34766.05859.35156.0586.40625.05859h.29297l.17187.0586v.23046l.17578.17578h.29297l.34766.0586.35156.05859.69922.11719h.64063l.46484-.23438.29297-.17578.17187-.11719.41016-.17187.28906-.17578.9336-.46485.46875-.29297.52343-.29296.46485-.17188.46484-.17578 1.05078-.46485.28906-.11718.41016-.11719.28906-.11719.52735-.17578 1.51562-.69922.58203-.34765.28907-.0586.29297-.0586.34765-.11718.875-.23047.35156-.11719h.11329l.23437-.05859.875-.23437.23438-.0586h.8125l.35156-.0586.8164-.11718.17188-.0586.35156-.05468.29297-.0586.23047-.05859.8164-.17578.17579-.0586h.34765l.23438-.05859.46484-.11718.75781-.17188.23438-.0586h.34765l.41016-.11718.28906-.0586 1.28516-.05859h.28906l.41016-.0586.23047-.05858h.17578l.875-.1172h.40625l.41015-.11718h.34766l.35156-.11328.8711-.0586h1.75l1.04687.28907.41016.11719.28906.11718.35156.11719.28907.11719 1.05078.17187.28906.0586h.29297l.29297.05859.17187.0586.41016.05859.17187.0586.1172.05858h.11718l.11719.0586.35156.0586h.11328l.41016.0664 1.92187.39453 1.92578.39453 1.51953.44922 1.69532.71875 2.14453.80469 1.60547-.71875 1.42968-.80469 1.16016-1.07813 1.25-.44921 3.03516-.71875 1.875-.35938 2.14453-1.34765 2.23437-1.25391 2.5-1.25781 1.69531-.44922 1.78516-.17969 1.16016-.26953.625.53906 1.33984-.26953.71485-.98828.98437-1.34375.44531-.17969.80469-.35937 1.875-.53907 1.78516-.44921 1.25-.26954 1.16015-.08984 1.69922-.08984 1.96094-.26954 1.25-.08984h.53906l.625-.08984h.89063l2.14453-.17969 2.41015-.17969 2.58985-.08984 1.69531.17969 1.60938.08984 1.42968.35938 1.16016.71875 1.875.98828 1.16015 1.52734.26563.71484.6289.08985.35548.89844.53515.53906.53516 1.52734 1.07422.35938h.53515l-.80469.53515.08985 1.70703.71484 2.69532.89063.80468.89453.98829.71484 1.2578 1.78516.53907 1.51953-.17969.35547 1.34375 1.60937-.80469.98047-.53906.26953.26953.31641-.21484.21875-.14453.80078.44922.44922-.35938h.35547l.53515-.26953.53907-.71875.53515-.26953.625-.98828 1.16016.44922.83984.3711 1.39454.61718 1.6953-.17969h1.60548l1.78515.08985.17969-1.70704.53516-1.34375.80468.26954.4922.84765.40233.40625-.08984.53906v.35938l.71485.44922.71093-.26953h1.42969l.35938.98828.4453 1.25781.71485 1.34375 1.25.6289 1.69531.62891.71485-.17969.17969-.53906.98046-.08984.44922.35937.08594 1.25782-.26563.6289-.53515.17969v.53906l.71484.98438.26563.53906.98437.98828.80078 1.07813-.26562.35937-.08985.89844-.625 2.33203-.35546 2.0664-.08985 1.79298-.17969.71875-.08984.53906v1.4375l-.98047 1.88281-.35937 1.70703-.53516.89844-.80469 1.16797-.26562.53906 2.05469 1.2539.08593.35938-.35546.53906-.08985-.17968v.80859l.08985 1.4375-.44532.71484-1.07422.09375-.26562.71485.53515.89844.8047.71875 1.16015.80859 1.33984.26953.44531.35938-.35546.44921-1.78907-.08984-1.25-.44922-.71484-.71875-.625-.08984-.17578 3.58984-.1875 1.3086h89.35937V311.70313h-55.26953v49.08203l.76172.125 3.28906.54296 2.02344 2.83594v2.7539l2.35156.33204 2.34766.33203h4.05078l-1.3789 4.16016-2.02344.70703-2.02344.70312-.54297.34375-2.59375 1.6172-.1875.11718-2.02344-2.07813-.73046-2.74218-2.67188-2.07813-1.375-3.5-.0664-.08203-1.95704-2.67188 2.75-1.41796v-49.08204H294.42187v91.41407l.1172.03125.1328.01172.07422.07421.10547.04688.08985.0586.08593.05859.08985.0586.29687.29687.0586.08984.03125.11719.02734.11719.01563.13671-.03125.1172-.0586.08983-.0586.08594-.04296.10547-.04688.10156-.02734.1211v.14453l.17578.26953.14844.14844.07422.08594.07422.07421.04296.10547.0625.08985.0586.08593.04297.10547.0586.08985.04687.10156.04296.10547.0586.08594.11719.17968.07421.07422.0625.08594.0586.08984.04297.10547.0586.08985.05858.08593.0625.08985.0586.08984.04297.10156.11719.17969.07421.07422.0586.08594.07422.07421.08984.0586.10547.04687h.14844l.1328-.01562.13282.01562.10156-.04687.07422-.07422.04688-.10156-.01563-.13281v-.14844l-.04687-.10547-.02735-.11719-.04687-.10156-.02735-.1211-.04296-.10156-.0625-.08984-.04297-.10156-.04297-.10547-.03125-.11719-.01563-.13281-.01171-.13672.08593-.0586.0586-.08593.12109-.03125.04297.10547.01562.1328v.1172l.0586.10156.0586.08984.08983.0586.14844.14843.0586.08985.04296.10547-.01171.10156.08593.0586.10547.04687.08594.0586.08984.05858.07422.07422-.11719.02735-.10546.04687-.08594.0586-.07422.07421-.0586.08985-.0625.08594-.02734.12109-.04687.10156-.04297.10547-.03125.11719-.01172.13281-.01563.13281v.14844l.02735.11719.04687.10547.04297.10156.0586.08984.07421.07422.08985.0586.07422.07421.08984.0586.0586.08984.04296.10547.04688.10156.11719.03125.1328.01563h.14845l.11718-.03125.10547.04297.04297.10547.04688.10156.02734.1211L299.5 410l.02734.11719.03125.1211.02735.11718.10547.04297.10156.04687.13281-.01562.14844.14844.0625.08593.07422.07422.07031.07422.08984.0625.10547.04297.10156.04297.1172.03125.13671.01562.11719-.03125.07422-.07422.02734-.11718-.01172-.13282-.03125-.12109-.02734-.11719.04297-.10547h.11719l.08984.0625.11719.02735h.14843l.13282.01562h.14843l.13282.01563.1328-.01563h.14845l.1328-.01562.13282-.01172.13672.01172.11719-.02735.13281-.01562.1914-.0586-.05859.17579-.01562.1328-.02735.1211-.01562.13281-.0586.08594-.1328.01563-.10548.04687-.10546.04297-.1172.03125-.11718.02735-.26563.03125h-.14843l-.13281.01562-.07422.07422.05859.08594.14844.14843.11719.1797.07421.0703.08985.0625.08984.0586.08594.0586.08984.05858.10156.04297.10547.0625.10547.04297.08594.0586.10547.04687.10156.04297.17969.11719.0586.08984-.04298.10156-.04687.10547.01562.13281.22266.22266.0586.08985.04296.10156.03125.1211.04297.10155.01563.13282.03125.11718.01171.13672.03125.11719.14844.14844.10156.04297.10547.04296.1172.03125.1328.01563.13672.01563h.11719l.11719-.03125.08984-.0586.04297-.10547.04688-.10156.04296-.10547.03125-.11719.01172-.1328v-.14845l-.01172-.1328-.01562-.13282-.03125-.11719-.04297-.10547-.04688-.10547-.04296-.10156-.04297-.10547-.01563-.13281.01563-.13281.02734-.11719.03125-.11719.02735-.1211.04687-.10155.08984-.0586.08594-.0625.07422-.07422.08984-.05859.22266-.22266.0586-.08593.07421-.07422.11719-.17969.0586-.08594v-.14844l-.07423-.07421-.10156-.04688-.10547-.04297-.10156-.04297-.0586-.08984-.04687-.10547-.02734-.11719.08984-.05859.11719-.03125.10156-.04297.17969-.11719.14844-.14843.01172-.13282-.01172-.10546-.08985-.0586-.1328.01563h-.14845l-.1328.01562-.13282-.01562-.1211-.03125-.08593-.0586-.07422-.07422-.0586-.08984-.0625-.08594-.11718-.17969-.0586-.08593.03125-.1211.08594-.05859.1211-.03125.05859-.08594v-.1211l-.03125-.11718-.0586-.08984-.05859-.08594-.04687-.10547-.02735-.11719-.01562-.1328.0586-.08985.07421-.07422.08984-.0586.1172-.17968.07421-.07422.0586-.08594.14843-.14844.1211-.03125.1328-.01562.13282.01562.07422.07422.04297.10547.01562.13281-.03125.1172-.11719.03124-.1328.01172-.14844.14844-.04297.10547-.04688.10156-.02734.1211-.03125.11718v.14844l.03125.11719.04297.10546.05859.08985.07422.07031.07422.07422.11719.03125.12109.02734.11719-.02734.1328-.01563h.1172l.08984.0586.07422.07422.04687.10546.0586.08594.10156.04688.13281.01562.10547.04297.08594.0586-.01172.10546-.07422.07422-.17969.11719-.05859.08984-.08984.0586-.07032.07422-.07421.07421-.0625.08985-.02735.11719-.01562.1328.01562.13282-.01562.13281v.14844l.01562.13281.02735.1172.03125.12108.07421.07422.08985.0586.08594.0586.08984.05858.11719.03125v.08594l-.10157.04688-.08984.0586-.26563.03124-.11718.02735h-.14844l-.10547.04296-.10156.04688-.0586.08984-.0625.23438-.01171.13281-.03125.1211-.01563.1328v.29298l-.01172.1328.01172.13673.01563.1328.1328.01563.13282.01172.1211.03125.08593.0586.07422.07421.04688.10547.04296.10157.01563.1328v.44532l-.01563.13281v.44532l.03125.26562.02735.11719.01562.13281.03125.11719.08594.21094.03125.26562v.14844l-.03125.11719-.02734.11718-.03125.1211-.02735.11719-.03125.11718-.03125.1211-.01171.1328-.01563.13282.08984.0586.1172-.03125.10155.01562.04688.10547-.03125.26562v.44141l-.04297.10547-.04688.10547-.04296.10156-.04297.10547-.0586.08594-.03125.12109-.04296.11719-.03125.11719-.01563.1328.01563.13282.05859.08984.10547.04688.08594.0586.05859.08593-.01172.13672-.03125.11719-.04297.10156v.44531l-.01562.13281v.14844l-.03125.11719-.04297.10547-.02735.11719-.04687.10546-.04297.10157-.03125.12109-.02734.11719-.03125.13281-.03125.11719-.02735.11719-.04297.10546-.03125.1172-.03125.12108-.01171.13282-.01563.13281v.29688l.02734.11718v.14844l.04688.39844.02734.11719.0586.08984.12109.03125h.14844l.13281-.01563.0586.08985v.11719l-.0586.08984-.08984.0586-.10157.04296-.10546.04688-.08985.05859-.08594.0586-.13671.01562-.1172-.03125-.1328-.01563-.10157.04688-.0625.08594-.01172.13671-.01562.13282-.03125.11719-.02735.11718-.01562.13281-.03125.1211v.29687l.01563.13282.03125.11718v.14844l.01171.13281v.14844l-.02734.11719-.04688.10156-.02734.1211-.03125.11718-.0586.08985-.07421.07421-.10156.04297-.10547.04688-.11719.02734-.1211.03125-.10156-.04687.0586-.08594.10547-.04688.02734-.11718.03125-.11719.02734-.1211.03125-.11718v-.14844l.01563-.13281-.03125-.11719-.04297-.10547-.10547.01563-.07422.07422-.10156.04296-.08984.0625-.07422.07422-.04297.10157-.01563.1328-.03125.1172L304.25 426l-.03125.11719-.02734.11719-.03125.12109-.02735.11719-.03125.11718-.04297.10547-.08984.0586h-.08984l-.1172-.03125-.03124-.08594.01562-.13672-.03125-.11719v-.14844l-.01171-.1328v-.14844l-.0625-.23438-.02735-.1211-.04297-.10156-.04687-.10546-.0586-.08594-.05859-.08985-.04297-.10546-.0625-.08594-.14844-.14844-.0703-.07422-.10548-.04687-.10547-.04297-.10156-.04297-.29687-.29688-.08985-.07421-.08594-.0586-.10546-.04297-.08985-.0625-.08594-.0586-.10546-.04296-.08985-.0586-.08594-.0625-.07421-.0703-.10547-.04688-.08594-.0586-.10547-.04296-.08984-.0625-.10156-.04297-.10547-.04297-.08594-.0586-.10547-.04687-.10547-.04297-.10156-.04687-.08985-.0586-.10156-.04297-.10547-.04296-.08984-.0625-.11719-.02735-.13281-.01562-.13281.01562H299.75l-.13281.01563-.11719-.03125-.08984-.0586-.07422-.07422-.08985-.05859-.10156-.04688h-.14844l-.12109-.02734-.10156-.04297-.07422-.07422-.11719-.17968-.08984-.0586-.10156-.04297-.08985-.0625-.10547-.04296-.08984-.0586-.08594-.0586-.10547-.04687-.0586-.08594-.05858-.08984-.04297-.10547-.04688-.10156-.07422-.07422-.08594-.0586-.07421-.07421-.08985-.0586-.22265-.22265-.04297-.10547-.03125-.26563.10547-.04296h.14453l.10547.04296.07421.07422.08985.0586.08594.0586.10546.04687.08985.05859.14844.14844.0703.07422.14845.14843.0625.08594.07421.07422.08594.0586.07422.07421.08985.0625.08984.0586.08594.05859.26953.17578.10156.04688.10547.04296.10156.04297.04688-.07421.05859-.08594.07422-.07422.07031-.07422.10547.04297.07422.07422.0586.08984.04296.10156.04688.10547.04296.10547.1211.02735.11719-.02735.07421-.08984.04297-.10547.0586-.08985.07422-.07421.10546-.04297.1172-.02735.1328.01172.08985.0586.14844.14843.05859.08985.04297.10547.04687.10156.04297.10547.04297.10156.10547.04688.10547.04296.13281.01563.08594-.0586.0586-.08984.07421-.07422.10547-.04297.11719.02735.10547.04687.10156.04297.10547.04297.10156.04688.17969.11718v.11719l-.01563.13281.01563.13281.01562.13672.0586.08594.10156.04688.1211.02734.11718.03125h.14844l.11719-.03125.05859-.08984.17969-.1172.05859-.08983.07422-.07422.0586-.08594.11718-.17969.17969-.11719.11719.03125.08984.0586.04297.07422-.01563.1328v.1172l.08985.05859h.14843l.13282-.01563.1328-.01171.26563-.03125.10547-.04297.11719-.03125.1211-.02735.07421-.07421.07031-.07422.0625-.08985-.01562-.10547-.04688-.10156-.10156-.04297-.10547-.01562-.11718.02734-.26563.03125h-.14844l-.07421-.07422-.08985-.0586-.11719-.03124-.11718-.02735-.13282-.01562h-.14843l-.13282.01563h-.29687l-.10547-.04688-.14844-.14844-.04297-.10156-.05859-.08984.22266-.22266.08593-.0586.10547-.04296.11719-.03125.13281-.01563.13281.01563.13672.01562.10157.04297.1328-.01172.08985-.0625.10156-.04297.0625-.08984-.04687-.10156-.08984-.0586-.1172-.03125-.10155-.04296-.0586-.08985-.0625-.08984v-.11719l.01563-.13281.10547-.04688.07421-.07031v-.1211l-.08984-.05859-.03125-.11719.08985-.05859.07421-.07422.04297-.10547.0586-.08984.04687-.10156.01563-.13281v-.14844l-.04688-.10547-.04297-.10156-.08984-.0586-.13281-.01562-.10157-.04297-.13671-.01563-.1172-.03125h-.4453l-.13282-.01562-.13281-.01172-.13281-.01563-.11719-.03125h-.14844l-.13281-.01562-.13281-.01172-.26563-.03125-.1211-.04297-.08593-.0586-.07422-.07421v-.14844l.01172-.13281.10547-.04688.10156-.04296.13281-.01563h.15235l.13281-.01562h.29297l.1211.03125.10156.04296.08984.0586.23438.0625.12109-.04688.08984-.05859.10156-.04297.13282-.01562.10547.04296.10156.04688.13281.01172.1211-.02735h.14453l.12109-.03125.11719-.02734.10547-.04687.07421-.07422.08594-.0586.14844-.14843.0586-.08594.04687-.10547.02734-.11719.01563-.10547-.10156-.04296-.08985-.0586-.11719-.03125-.10546-.04297-.08985-.0625-.07422-.08594-.07422-.07421-.10156-.04297-.10547-.04688-.10156-.04297-.0586-.08984-.04687-.10156-.08594-.21094-.0625-.08594-.05859-.08984-.07422-.07422-.08594-.0586h-.26953l-.11719.03126-.08984.05859-.10156.04297-.13281.01562-.10547-.01562-.02735-.11719-.0625-.08984-.11718-.03125-.10157-.04297-.14843-.14844-.03125-.11719-.01563-.10546.07422-.07422.17969-.1172.11719-.02733.11718-.03125.13672.01562.10156.04297.10547.04297.10156.04687.10547.04297.1172.03125.1328.01563.1172.02734.1328.01563.10547-.01563.08985-.0586-.07422-.07421-.10547-.04297-.07422-.07422-.07422-.08984-.14844-.14844-.08593-.0586-.08985-.05859-.07422-.07422-.08984-.0586-.10156-.04687-.1211-.02734-.10156-.04688-.10547-.04296-.11719-.03125-.10156-.04297-.1211-.03125h-.14843l-.11719.03125-.10546.04297-.08594.0625-.17969.11718-.08594.0586-.08984.0586-.10547.04687-.08594.05859-.10547.04297-.10156.04297-.10547.04687-.07422.07422-.05859.08985-.0586.08593-.04687.10547-.0586.08594-.07421.07422-.13281-.01172-.1172-.03125h-.11718l-.07422.07422-.08984.0586-.07422.07421-.08984.0586-.08594.05859-.10547.04687-.10156.04297-.13672.01563-.10156-.04297-.14844-.14844-.10547-.04688h-.08594l-.10547.04688-.10156.04297-.1211.03125-.11718-.03125-.07422-.07422v-.11719l.03125-.1211.07422-.0703.0586-.08985.07421-.07422.11719-.03125.10547-.04296h.29297l.13281-.01563.13672-.01563.10156-.04296.08985-.0586.10156-.04687.08984-.0586.13281-.01171.08985.05859.13281.01172.08984-.0586.08594-.05859.10547-.04297.08984-.0586.08594-.0625.08985-.05859.14843-.14843.0586-.08594.05859-.08985.10547-.04296.13281-.01563.11719.02735.1211.03125.05859-.0586.05859-.08984.03125-.26563.02734-.11719.10547.01172.13281.01563.10157-.04297.08984-.0586.0586-.08984.07421-.07422.0586-.08984.04687-.10156.01172-.13281-.01172-.13282-.04687-.10547-.14844-.14843-.0586-.08985-.05859-.08594-.04297-.10546v-.44532l.01563-.1328v-.14845l.01172-.1328-.0586-.0586-.08984.0586-.10156-.04298-.17969-.11719-.08594-.05859-.0625-.08984-.0586-.08985-.07421-.07421-.08594-.0586-.1211.03125-.10155.01172-.10547.04688-.08594.05859-.10547.04297-.14844.14844-.08984.05859-.08594.0586-.08984.0625-.10547.04296-.13281.01563v-.1211l.10547-.04297.11718-.03125.07422-.0703.04297-.10548v-.14844l-.02734-.11718-.14844-.14844-.13281-.01563h-.14844l-.11719.03125-.10547.04297-.10156.04297-.08984.0625-.11719.02735-.07422-.07422.01172-.13281-.04297-.10157-.04297-.10547-.08984-.05859-.11719.02734-.1211.03125-.11718.03125-.10156.04297-.1211.03125-.10156.04297-.10547.04297-.08984.0586-.10156.01562v-.11719l.01562-.13281-.0586-.08985-.07421.04297-.14844.14844-.0586.08985-.07421.07421-.04688.10547-.04296.10156-.07422.07422-.0586.08985-.07422.07422-.05859.08593-.07422.07422-.08984.0625-.07422.07031-.07422.07422-.10156.01563-.13281.01562-.10547-.04296v-.1211l.14843-.14844.04297-.10156.0586-.08984.04687-.10156.04297-.10547.0586-.08985.03124-.11719.04297-.10156.03125-.1211.02735-.11718.04687-.10547.04297-.10156.04297-.10547.07422-.07031.08984-.0625.08985-.0586.10156-.04296h.29687l.26563-.03125.10547-.04297-.07422-.07422-.11719-.03125-.10547-.04297-.08984-.0586-.10156-.04687-.08985-.0586-.10156-.04296-.10547-.04297-.08984-.0625-.08594-.0586-.10547-.04296-.10156-.04297-.1211-.03125-.11718-.03125-.10157-.04297L297.5 410.25l-.10156-.04297-.08985-.0586-.04296-.10546-.01563-.13281.10156-.04297.13281-.01563.13672.01563.13282-.01563.10156-.04297.0586-.08984.01562-.10547-.08985-.0586-.07421-.07421-.10157-.04297-.08984-.0586-.14844-.14843-.04297-.10547-.01562-.13281v-.29297l-.0586-.08985-.08984-.05859-.07422-.07422-.04297-.10547-.03125-.11718-.0586-.08985-.07421-.07422-.11719-.02734-.07422-.07422-.08984-.0586-.08984-.0625-.08594-.05859-.07422-.07421-.0586-.08594-.04687-.10547-.08594-.0586-.14843-.14843-.19532-.0586-.1328.01563-.10157.04297-.07422.07422-.04688.10156-.04296.10547-.0586.08984-.0586.08594-.29687.29687-.08984.0586h-.08594l-.0625-.08594-.04297-.10547.03125-.11719.0586-.08984.02734-.11719-.01172-.13281-.08984-.0625-.10547.04688-.11719.02734-.11719.03125-.26953.17578-.10156.04688-.11719.02734-.10546.04687-.08985.0586-.10156.04297-.0586-.08594-.04687-.10547.01563-.13281.04687-.10547.07031-.07422.07422-.07031.0586-.08985v-.14843l-.04297-.10547h-.23829l-.10156.04687-.03125.11719-.02734.11719-.03125.1211-.07422.04296-.13281.01563-.07422-.04688-.04297-.10156-.04297-.10547-.04687-.10156-.04297-.10547-.1211.03125-.10156.04297-.13281.01562-.11719.03125-.10547.04297-.08984.0586-.10156.04687-.1211.02734-.13281.01563-.10156-.04297-.0586-.08985-.04687-.10546-.04297-.10157-.04297-.10546v-.1172l.0586-.08984.08593-.05859.17969-.11719.10156-.04687.10547-.04297.10547-.0586.10156-.04296.08985-.0625.10156-.04297.10547-.0586.10156-.04687.08984-.0586.10547-.04296.10156-.04297.08985-.0625.10156-.04297.13672-.01563.11719.03125.10156.04297.1211.03125.10156.04297.10546.04688.10157.04296.10547.04297.10156.04688.10547.04297.10156.04297.10547.04687.08594.0586.10546.04296.1172.03125.10546.04297.10156.04688.08985.0586.10547.04296.10156.04297.10547.04687.11719.02735.10156.04687.1211.02735h.14843l.08594-.0586.01562-.10156.0586-.08984-.02735-.1172-.07422-.07421-.11719-.17969-.07421-.07422-.08985-.07421-.17969-.1172-.08593-.05859-.10547-.04296-.10156-.04688-.26954-.17578-.05859-.08985-.07422-.07421-.0586-.08985-.04296-.10156-.03125-.11719-.01563-.13672v-.5625l-.01171-.1328-.01563-.13282-.03125-.11719-.01562-.13281-.01172-.13281-.03125-.1211-.22266-.22265-.0586-.08594-.01562-.10547.03125-.11719.13281-.01562v-91.41406H172.9922v1.45312l-.0586.23438-.35156 1.05078-.17187.52343-.1172.34766-.17577.41016-.11719.17187-.23438.29297-.23046.0586h-.35157l-.11718.05859-.23047.40625v.29297l.11719.17578.23046.23047.1172.23437.64062.75781.29297.46485.17578.23437.23047.35156.23437.34766.64063.8164.17578.46485.17187.41016.11719.69531.17578.46875.11719 1.39844.0586.46484v.875l.11718 1.04688v4.78125l-.0586.46484-.35156 1.28125-.17578.52344-.11328.41015-.35156.9297L172.93359 336l-.23437.58203-.11719.17578-.17187.34766-.17578.40625-.35157.8164-.0586.29297-.11327.29297-.11719.28906-.0586.17579-.11718.875-.0586.40625-.05859.11718-.0586.17579-.05859.17187-.23047.52734-.11718.17188v.23437l-.11719.23438-.0586.17187-.17577.58594v.28906l-.0586.17579v.29296l-.0586.11329-.05859.52734v.17187l-.05468.23438v2.6211l-.17578.8164-.1172.17578-.17577.23438-.1172.17187-.11327.23438-.58594.93359-.23047.28906-.29297.46485-.17578.23437-.28906.35156-.35156.69922-.11328.23047-.17579.41016-.17578.23046-.40625.52735-.8164.69922-.29297.17187-.28906.23438-.17579.11719-.17578.17578-.52344.40625-.52734.17578-.17187.17578-.23438.05469-.64062.17578h-.75782m12.21094 31.02344l-1.07422.44921.35938.89454 1.25-.71485.44531-.53906-.98047-.08985"/><path fill="#d3d3d3" fill-opacity="0" fill-rule="evenodd" d="M201.50781 416.59766h-.89453l.44922.6289.98047.35938.80469-.08985.4453-.98828-.17577.08985-.71485-.35547-.89453.35547m154.6211 59.0703l-.0586-.52343v-.29297l.11328-.29297.0586-.23046.46875-.46875h.11328l.11719-.11329.11718-.05859h.17579l.23437-.0586h.34766l.23437.0586.11719.0586.23047.17187.0586.17578.11718.58203v.29297l-.11719.17578-.17187.28906-.17579.17579-.52734.52343-.23047.23438-.11719.0586h-.17578l-.11718-.0586-.40625-.29297-.17579-.11719-.11718-.0586-.0586-.11327-.05468-.1172m6.64062-10.95702l-.0586-.17188v-1.10937l.0586-.17188.17578-.0586.17188-.05858h.17578l.23437-.0586.1172.0586.05858.69921-.05859.17188-.11719.17578-.11718.0586-.23438.52343-.11328.0586h-.23438l-.05859-.1172m9.61328-14.39062l-.11719-.17578v-.69922l.29297-.875.1172-.17187.17577-.35156.11328-.23047.1172-.29297.35155-.75781.1172-.23047.17187-.23438h.17578l.11719-.0586h.64062l.11719.0586.23437.23438.17188.11328.35156.29297.11719.11718.11328.17579v.11328l.11719.05859.11718.11719v.69922l-.05859.17578v.23047l-.0586.17578-.34765 1.05078-.11719.23047-.11719.23437-.11718.0586-.23047.23437-.64063.28906h-.875l-.41015-.11718-.64063-.46485"/><path fill="none" stroke="#bebebe" stroke-linecap="round" stroke-linejoin="round" stroke-miterlimit="10" stroke-width=".5" d="M467.95703 311.69531H144.02734v168.625h323.9297v-168.625"/><g clip-path="url(#a)"><path fill="#fff" fill-opacity="0" fill-rule="evenodd" d="M144 475.89063v4.4375h.0039H144V311.67188h.0039H144v164.21875"/></g><g clip-path="url(#b)"><path fill="#fff" fill-opacity="0" fill-rule="evenodd" d="M144.0039 480.32813V311.67188h79.88673v100.0703l-2.03907 2.01173 2.03906 1.9414 1.89063-1.9414-1.89063-2.01172V311.67188h4.4375v123.86718l-.34765.40625.34766.83203.35546-.83203-.35547-.40625V311.67187h4.4375v98.3711l-2.7578 3.71094-.73048 4.4375.56641 4.4375 2.92188 2.66015 4.4414 1.10156v12.09375l-3.79687 1.89844 3.79687 1.89844 1.89844-1.89844-1.89844-1.89844v-12.09375l4.4375-.96484 3.9336 1.64453.5039.46485L250.51953 430l4.4375.38281 1.44922 1.125 2.99219 1.70313 1.7461-1.70313 2.6914-2.26953 2.1211-2.16797-2.1211-2.13672-4.4375 1.10938-.92578-3.41406-.13282-4.4375-3.3828-2.4922-4.4375-.67187-4.4375 1.62891-4.4375-.6914-1.09376-2.21094-3.34375-3.37891-4.4414-.33203v-98.3711h26.6328v91.39063l-1.7539 1.8125 1.7539 2.33203 4.4375.0664.9375-2.39843-.9375-1.07031-4.4375-.74219v-91.39063h13.3125v95.2422l-2.3828 2.40234-.94532 4.4375 3.32813 2.60156 1.64844 1.83594 2.35937 4.4375.4336.42187 4.0625 4.01953.375.375 2.30077 4.0625 2.13672 2.11719 2.1875-2.11719 2.25-.47656 3.94922-3.96094-3.94922-3.98828-1.70703-.45312-1.58203-4.4375 1.02344-4.4375-2.17188-2.5547-4.4375-1.82421-.375-.0586-4.0625-2.0039-4.4414-.39844v-95.24219h115.39844V429.6836l-1.52344 1.82422 1.52344 1.51953 3.21484-1.51953-3.21485-1.82422V311.67188h79.88672v168.65625H144.00391"/></g><path fill="#50fcfc" fill-rule="evenodd" d="M223.89063 415.69531l-2.03907-1.9414 2.03906-2.01172 1.89063 2.01172-1.89063 1.9414m4.4375 21.08203l-.34765-.83203.34766-.40625.35546.40625-.35547.83203m1.51563-14.14843l-.5664-4.4375.73046-4.4375 2.75781-3.71094 4.44141.33203v1.65625l-4.4414 1.57813-.10547.14453-1.6211 4.4375 1.72656 4.22656.15235.21094 4.28906 2.20312 4.42578-2.20312-.64844-4.4375-2.07421-4.4375-1.70313-1.72266V410.375l3.34375 3.3789 1.09375 2.21094 4.4375.69141 4.4375-1.6289v1.92577l-2.21094 1.23829-2.22656 3.5039-4.35547.9336 4.35547.69921 4.26953 3.7422.16797.10156.36719-.10157 4.07031-1.375 1.67969-3.0664-1.67969-3.77344-.88281-.66406-3.55469-1.23829v-1.92578l4.4375.67188 3.38281 2.49219.13282 4.4375.92578 3.41406 4.4375-1.10938 2.1211 2.13672-2.1211 2.16797-2.6914 2.26953-1.7461 1.70313-2.99219-1.70313-1.44922-1.125-4.4375-.38281-4.4375-2.46484-.5039-.46485-3.9336-1.64453-4.4375.96485-4.4414-1.10157-2.92188-2.66015"/><path fill="#00e8fc" fill-rule="evenodd" d="M232.76563 422.41797l-1.72657-4.22656 1.6211-4.4375.10547-.14454 4.4414-1.57812v5.02344l-1.0625 1.13672 1.0625 2.05078.4336-2.05078-.4336-1.13672v-5.02344l1.70313 1.72266 2.07422 4.4375.64843 4.4375-4.42578 2.20312-4.28906-2.20312-.15234-.21094"/><path fill="#50fcfc" fill-rule="evenodd" d="M237.20703 442.28125l-3.79687-1.89844 3.79687-1.89844 1.89844 1.89844-1.89844 1.89844"/><path fill="#00d4fc" fill-rule="evenodd" d="M237.20703 420.24219l-1.0625-2.05078 1.0625-1.13672.4336 1.13672-.4336 2.05078"/><path fill="#00e8fc" fill-rule="evenodd" d="M246.08203 423.32813l-4.35547-.69922 4.35547-.9336 2.22656-3.5039 2.21094-1.23829 3.55469 1.23829.88281.66406 1.67969 3.77344-1.67969 3.0664-4.07031 1.375-.36719.10156-.16797-.10156-4.26953-3.74219"/><path fill="#50fcfc" fill-rule="evenodd" d="M259.39844 407.20703l-1.7539-2.33203 1.7539-1.8125 4.4375.74219.9375 1.07031-.9375 2.39844-4.4375-.0664m13.3125 9.14843l-3.32813-2.60156.94531-4.4375 2.38282-2.40235 4.4414.39844v3.03125l-4.13671 3.41016 3.96484 4.4375.17187.28906L281.5 422.6289l.08984.08984.37891 4.35156 4.0586 4.26953 4.4375-1.0664 3.1914-3.20313-3.1914-3.22265-4.4375-1.19532-3.2461-.02343 1.72656-4.4375.92578-4.4375-3.84375-3.21875-4.4375-.19141v-3.03125l4.0625 2.0039.375.0586 4.4375 1.82422 2.17188 2.55469-1.02344 4.4375 1.58203 4.4375 1.70703.45312 3.94922 3.98828-3.94922 3.96094-2.25.47656-2.1875 2.11719-2.13671-2.11719-2.30079-4.0625-.375-.375-4.0625-4.01953-.43359-.42187-2.35938-4.4375-1.64843-1.83594"/><path fill="#00e8fc" fill-rule="evenodd" d="M276.98047 418.1914l-3.96485-4.4375 4.13672-3.41015 4.4375.1914v1.9297l-3.85937 1.28906 3.85937 3.77734 1.53516-3.77734-1.53516-1.28907v-1.92968l3.84375 3.21875-.92578 4.4375-1.72656 4.4375 3.2461.02343v.73438l-3.38282 3.6836 3.38281 3.55859 4.4375-1.625 1.9297-1.9336-1.9297-1.94922-4.4375-1.73437v-.73438l4.4375 1.19532 3.19141 3.22265-3.1914 3.20313-4.4375 1.0664-4.0586-4.26953-.3789-4.35156-.08985-.08984-4.34766-4.14844-.17187-.28906"/><path fill="#00d4fc" fill-rule="evenodd" d="M281.58984 417.53125l-3.85937-3.77734 3.85937-1.28907 1.53516 1.28907-1.53516 3.77734m4.4375 13.09766l-3.3828-3.5586 3.3828-3.6836v.73438l-2.70703 2.94922 2.70703 2.84766 4.4375-2.17969.66797-.66797-.66797-.67578-4.4375-2.27344v-.73437l4.4375 1.73437 1.9297 1.94922-1.9297 1.9336-4.4375 1.625"/><path fill="#00c4fc" fill-rule="evenodd" d="M286.02734 429.91797l-2.70703-2.84766 2.70703-2.94922v.73438l-2.03515 2.21484 2.03515 2.14063 3.83985-2.14063-3.83985-2.21484v-.73438l4.4375 2.27344.66797.67578-.66797.66797-4.4375 2.17969"/><path fill="#00b8fc" fill-rule="evenodd" d="M286.02734 429.21094l-2.03515-2.14063 2.03515-2.21484v.73437l-1.35937 1.48047 1.35937 1.42969 2.56641-1.42969-2.5664-1.48047v-.73437l3.83984 2.21484-3.83985 2.14063"/><path fill="#00a8fc" fill-rule="evenodd" d="M286.02734 428.5l-1.35937-1.42969 1.35937-1.48047v.73438l-.68359.7461.6836.71874 1.29296-.71875-1.29297-.7461v-.73437l2.56641 1.48047-2.5664 1.42969"/><path fill="#009800" fill-rule="evenodd" d="M286.02734 427.78906l-.68359-.71875.6836-.7461v.73438l-.01173.01172.01172.00781.01954-.0078-.01954-.01173v-.73437l1.29297.7461-1.29297.71874"/><path fill="#00ac00" fill-rule="evenodd" d="M286.02734 427.07813l-.01171-.00782.01171-.01172.01954.01172-.01954.00781"/><path fill="#50fcfc" fill-rule="evenodd" d="M388.10938 433.02734l-1.52344-1.51953 1.52344-1.82422 3.21484 1.82422-3.21485 1.51953"/><g clip-path="url(#c)"><path fill="#fff" fill-opacity="0" fill-rule="evenodd" d="M467.9961 480.32813H468V311.67188h-.0039H468v168.65625h-.0039"/></g><g clip-path="url(#d)"><path fill="none" stroke="#000" stroke-linecap="round" stroke-linejoin="round" stroke-miterlimit="10" stroke-width=".5" d="M144.75781 476.89844l-1.51562 6.85937"/></g><path fill="none" stroke="#000" stroke-linecap="round" stroke-linejoin="round" stroke-miterlimit="10" stroke-width=".5" d="M144.53516 477.89453l1.18359-.32812"/><g clip-path="url(#e)"><path fill="none" stroke="#000" stroke-linecap="round" stroke-linejoin="round" stroke-miterlimit="10" stroke-width=".5" d="M157.41797 476.8164l-.20703 7.02344"/></g><path fill="none" stroke="#000" stroke-linecap="round" stroke-linejoin="round" stroke-miterlimit="10" stroke-width=".5" d="M157.39063 477.83984l1.09765-.54297"/><g clip-path="url(#f)"><path fill="none" stroke="#000" stroke-linecap="round" stroke-linejoin="round" stroke-miterlimit="10" stroke-width=".5" d="M170.47266 476.82031l.3164 7.01953"/></g><path fill="none" stroke="#000" stroke-linecap="round" stroke-linejoin="round" stroke-miterlimit="10" stroke-width=".5" d="M170.51953 477.83984l1.05469-.625"/><g clip-path="url(#g)"><path fill="none" stroke="#000" stroke-linecap="round" stroke-linejoin="round" stroke-miterlimit="10" stroke-width=".5" d="M183.625 476.82813l.64063 7"/></g><path fill="none" stroke="#000" stroke-linecap="round" stroke-linejoin="round" stroke-miterlimit="10" stroke-width=".5" d="M183.71875 477.84766l1.02344-.67188"/><g clip-path="url(#h)"><path fill="none" stroke="#000" stroke-linecap="round" stroke-linejoin="round" stroke-miterlimit="10" stroke-width=".5" d="M195.30469 483.25l3.91015-5.83984"/></g><g clip-path="url(#i)"><path fill="none" stroke="#000" stroke-linecap="round" stroke-linejoin="round" stroke-miterlimit="10" stroke-width=".5" d="M207.89453 482.60156l5.35938-4.54687"/></g><g clip-path="url(#j)"><path fill="none" stroke="#000" stroke-linecap="round" stroke-linejoin="round" stroke-miterlimit="10" stroke-width=".5" d="M220.96094 482.26953l5.85937-3.88281"/></g><g clip-path="url(#k)"><path fill="none" stroke="#000" stroke-linecap="round" stroke-linejoin="round" stroke-miterlimit="10" stroke-width=".5" d="M237.67188 476.84766l-.9336 6.96484"/></g><g clip-path="url(#l)"><path fill="none" stroke="#000" stroke-linecap="round" stroke-linejoin="round" stroke-miterlimit="10" stroke-width=".5" d="M249.03906 483.51563l2.96094-6.375"/></g><g clip-path="url(#m)"><path fill="none" stroke="#000" stroke-linecap="round" stroke-linejoin="round" stroke-miterlimit="10" stroke-width=".5" d="M263.42188 483.8164l.82812-6.97656"/></g><g clip-path="url(#n)"><path fill="none" stroke="#000" stroke-linecap="round" stroke-linejoin="round" stroke-miterlimit="10" stroke-width=".5" d="M275.25781 483.28906l3.78516-5.92187"/></g><g clip-path="url(#o)"><path fill="none" stroke="#000" stroke-linecap="round" stroke-linejoin="round" stroke-miterlimit="10" stroke-width=".5" d="M291.09375 476.8711l-1.25781 6.91406"/></g><g clip-path="url(#p)"><path fill="none" stroke="#000" stroke-linecap="round" stroke-linejoin="round" stroke-miterlimit="10" stroke-width=".5" d="M301.71094 477.48828l4.14062 5.67969"/></g><path fill="none" stroke="#000" stroke-linecap="round" stroke-linejoin="round" stroke-miterlimit="10" stroke-width=".5" d="M302.3125 478.3164l.53516-1.10546"/><g clip-path="url(#q)"><path fill="none" stroke="#000" stroke-linecap="round" stroke-linejoin="round" stroke-miterlimit="10" stroke-width=".5" d="M315.47266 477.21484l3.24609 6.23047"/></g><path fill="none" stroke="#000" stroke-linecap="round" stroke-linejoin="round" stroke-miterlimit="10" stroke-width=".5" d="M315.94531 478.1211l.6914-1.01173"/><g clip-path="url(#r)"><path fill="none" stroke="#000" stroke-linecap="round" stroke-linejoin="round" stroke-miterlimit="10" stroke-width=".5" d="M328.16016 477.63281l4.5039 5.39063"/></g><path fill="none" stroke="#000" stroke-linecap="round" stroke-linejoin="round" stroke-miterlimit="10" stroke-width=".5" d="M328.8125 478.41797l.46484-1.13672"/><g clip-path="url(#s)"><path fill="none" stroke="#000" stroke-linecap="round" stroke-linejoin="round" stroke-miterlimit="10" stroke-width=".5" d="M341.02734 478.07813l5.39844 4.5"/></g><path fill="none" stroke="#000" stroke-linecap="round" stroke-linejoin="round" stroke-miterlimit="10" stroke-width=".5" d="M341.8125 478.73438l.25-1.20313"/><g clip-path="url(#t)"><path fill="none" stroke="#000" stroke-linecap="round" stroke-linejoin="round" stroke-miterlimit="10" stroke-width=".5" d="M354.34375 478.07813l5.39844 4.5"/></g><path fill="none" stroke="#000" stroke-linecap="round" stroke-linejoin="round" stroke-miterlimit="10" stroke-width=".5" d="M355.1289 478.73438l.25-1.20313"/><g clip-path="url(#u)"><path fill="none" stroke="#000" stroke-linecap="round" stroke-linejoin="round" stroke-miterlimit="10" stroke-width=".5" d="M368.04688 477.6836l4.62109 5.29296"/></g><path fill="none" stroke="#000" stroke-linecap="round" stroke-linejoin="round" stroke-miterlimit="10" stroke-width=".5" d="M368.71875 478.45313l.4375-1.14844"/><g clip-path="url(#v)"><path fill="none" stroke="#000" stroke-linecap="round" stroke-linejoin="round" stroke-miterlimit="10" stroke-width=".5" d="M382.39844 477.05469l2.54297 6.55078"/></g><path fill="none" stroke="#000" stroke-linecap="round" stroke-linejoin="round" stroke-miterlimit="10" stroke-width=".5" d="M382.76953 478.00781l.80078-.92969"/><g clip-path="url(#w)"><path fill="none" stroke="#000" stroke-linecap="round" stroke-linejoin="round" stroke-miterlimit="10" stroke-width=".5" d="M395.40625 477.1914l3.16016 6.27344"/></g><g clip-path="url(#x)"><path fill="none" stroke="#000" stroke-linecap="round" stroke-linejoin="round" stroke-miterlimit="10" stroke-width=".5" d="M412.1289 477.32813l-3.65234 6.0039"/></g><path fill="none" stroke="#000" stroke-linecap="round" stroke-linejoin="round" stroke-miterlimit="10" stroke-width=".5" d="M411.59766 478.19922l1.22265.07031"/><g clip-path="url(#y)"><path fill="none" stroke="#000" stroke-linecap="round" stroke-linejoin="round" stroke-miterlimit="10" stroke-width=".5" d="M427.1289 480.36328l-7.02734-.07031"/></g><g clip-path="url(#z)"><path fill="none" stroke="#000" stroke-linecap="round" stroke-linejoin="round" stroke-miterlimit="10" stroke-width=".5" d="M426.10938 480.35156l.5625 1.08985"/></g><g clip-path="url(#A)"><path fill="none" stroke="#000" stroke-linecap="round" stroke-linejoin="round" stroke-miterlimit="10" stroke-width=".5" d="M440.3164 481.27734l-6.76952-1.89453"/></g><g clip-path="url(#B)"><path fill="none" stroke="#000" stroke-linecap="round" stroke-linejoin="round" stroke-miterlimit="10" stroke-width=".5" d="M439.33203 481l.26172 1.19922"/></g><g clip-path="url(#C)"><path fill="none" stroke="#000" stroke-linecap="round" stroke-linejoin="round" stroke-miterlimit="10" stroke-width=".5" d="M452.55078 477.67578l-4.60937 5.30469"/></g><g clip-path="url(#D)"><path fill="none" stroke="#000" stroke-linecap="round" stroke-linejoin="round" stroke-miterlimit="10" stroke-width=".5" d="M465.89453 477.70313l-4.66797 5.25"/></g><g clip-path="url(#E)"><path fill="none" stroke="#000" stroke-linecap="round" stroke-linejoin="round" stroke-miterlimit="10" stroke-width=".5" d="M146.13672 464.22656l-4.27344 5.57422"/></g><path fill="none" stroke="#000" stroke-linecap="round" stroke-linejoin="round" stroke-miterlimit="10" stroke-width=".5" d="M145.51563 465.03516l1.21093.20312m12.45703-1.19922l-3.73437 5.94922m3.73437-5.94922l2.44532.17578m11.125 0l-4.2461 5.59766m4.2461-5.59766l2.42187.39063m11.45703.14453l-5.375 4.52734m4.59375-3.86718l1.13672.45703m13.41797-.41406l-6.29297 3.12109m5.3789-2.66797l.9961.71484m10.94531 3.80079l-1.71484-6.81641m12.89844 6.6836l2.54687-6.55079m13.33594.00781l-2.58984 6.53516m2.21484-5.58203l1.21875-.13672m14.6875 2.55469l-7.02344-.20703m17.4336 3.5625l-1.21485-6.91797m1.03907 5.91406l-.96485.7539m16.03906-.46093l-4.3789-5.4961m3.74219 4.69532l-.48829 1.1289m13.59766-6.3203l-2.69531 6.48827m2.30469-5.54297l1.22265-.11718m10.73438-1.07422l.80468 6.98047m13.33594-6.97657l-.84765 6.97266m.72265-5.96094l1.14453-.4414m11.67578-.59375l.39454 7.01953m-.33985-5.9961l1.05078-.63672m9.32422 1.4336l6.16406 3.3789m-5.26562-2.88671l.01172-1.22657m14.51953-.95312l1.9336 6.7539m15.03515-5.64062l-5.375 4.52734m18.47266.23438l-4.94141-4.9961m18.4414 4.80079l-5.30859-4.60547m4.53516 3.9336l-.27344 1.1953m15.20703-3.14453l-7 .63672m5.98047-.54297l.67188 1.02735m13.64062-1.3086l-6.95312 1.01172m5.9414-.86328l.72656.98828m12.89454 1.52735l-5.54688-4.31641m17.11328 2.16015l-.01953-.20312-.0586-.1914-.09374-.17579-.46094-.375-.1914-.0586-.19923-.01952-.19921.01953-.19141.0586-.45703.375-.09766.17577-.0586.19141-.01952.20313.01953.19921.0586.19141.09765.17578.45703.375.1914.0586.19922.01953.19922-.01953.1914-.0586.46095-.375.09375-.17578.05859-.1914.01953-.19923m14.36719 2.83204l-4.15234-5.66797"/><g clip-path="url(#F)"><path fill="none" stroke="#000" stroke-linecap="round" stroke-linejoin="round" stroke-miterlimit="10" stroke-width=".5" d="M146.90625 451.72656l-5.8125 3.94531"/></g><path fill="none" stroke="#000" stroke-linecap="round" stroke-linejoin="round" stroke-miterlimit="10" stroke-width=".5" d="M146.90625 451.72656l2.17188 1.14453m11.20312-1.05468l-5.9336 3.76171m5.9336-3.76171l2.13281 1.21484m11.45703-.6875l-6.48047 2.71094m6.48047-2.71094l1.89844 1.55078m11.5039-1.3164l-6.66015 2.24218m6.66016-2.24219l1.78515 1.6875m11.70703-.82812l-7.0078.52344m7.0078-.52344l1.3086 2.07422m12.01562-1.88281l-7.02734.13671m6.0039-.11718l.59766 1.07422m13.71094-1.46094l-6.97266.8711m5.96094-.7422l.70313 1.00391m13.03906-2.67969l-5.80078 3.96875m5.80078-3.96875l2.17187 1.13672m11.61328-.14453l-6.74218 1.98438m5.76172-1.69532l.85937.875m12.57031 2.29297l-5.0078-4.92968m4.27733 4.21093l-.34765 1.17578m15.20703-1.77343l-6.63672-2.30078m5.67188 1.96875l.1914 1.21093m12.86719.79297l-4.1914-5.64062m3.58203 4.8203l-.52735 1.10548m15.86719-3.25781l-7.02344.30468m6-.26172l.6211 1.0586m12.41406-3.6836l-4.41797 5.46875m17.08984-5.8789l-3.13281 6.28906m2.67578-5.375l1.22656-.03516m13.32422-.35156l-4.6875 5.23438m4.0039-4.47266l1.19142.29297m13.92968.98828l-6.9336 1.14844m19.33595-2.98828l-5.10938 4.82422m4.36719-4.1211l1.16406.39453m10.78516-2.16797l-.89063 6.96875m.76172-5.95703l1.14844-.4336m8.95703.91017l5.78125 3.99218m-4.9375-3.41406l.14063-1.21875m11.73046 3.0039l6.98829-.73827m-5.97266.6328l-.6875-1.01952m19.83594-.28125l-6.71094 2.07812m17.4961 2.375l-1.65235-6.82812m12.4336 6.48437l3.41406-6.14062m11.30078 6.5703l.61718-7m-.52734 5.98048l-1.1289.48047"/><g clip-path="url(#G)"><path fill="none" stroke="#000" stroke-linecap="round" stroke-linejoin="round" stroke-miterlimit="10" stroke-width=".5" d="M146.88672 438.3789l-5.77344 4.00782"/></g><path fill="none" stroke="#000" stroke-linecap="round" stroke-linejoin="round" stroke-miterlimit="10" stroke-width=".5" d="M146.88672 438.3789l2.17969 1.1211m-3.01953-.53906l1.08984.5625m13.04687-1.17188l-5.73437 4.0625m5.73437-4.0625l2.19141 1.10156m11.32422-.77734l-6.14063 3.41406m6.14063-3.41406l2.0625 1.33594m11.48047-.83984l-6.59375 2.42187m6.59375-2.42188l1.82812 1.63672m11.69922-.27734l-7.01953-.29297m7.01953.29297l1.0625 2.21094m12.25781-2.28125l-7.02734-.15625m7.02734.15625l1.10157 2.1914m12.20312-2.03906l-7.01172-.46094m5.99219.39453l.5039 1.1172m13.8125-.84766l-6.97265-.8672m5.95703.7422l.4414 1.14453m13.875-1.98828l-6.9453 1.0703m6.9453-1.0703l1.46876 1.96484m11.83203-2.05469l-6.91406 1.25m6.91406-1.25l1.51953 1.92969m11.69922-2.33203l-6.71875 2.0586m6.71875-2.0586l1.73437 1.73437m11.73438-.66406l-7.02735-.08594m6.00391.07422l.5625 1.08985m13.57422.04687l-6.625-2.33594m5.66016 1.9961l.18359 1.21484m14.16016-1.07422l-6.75391-1.9336m5.77344 1.65235l.2539 1.19922m13.59375-3.82422l-5.85937 3.875m5.00781-3.3125l1.07813.58594m13.42578-.50781l-6.53125 2.59765m6.53125-2.59765l1.8711 1.58593m11.54296-1.29687l-6.73047 2.01562m5.75-1.72265l.86328.875m11.6875-3.27735L368.73437 443.5m2.76954-5.32813l1.22656-.0078m12.50781-.92579l-3.13672 6.28906m2.67969-5.375l1.22656-.03125m10.4336-1.20703l1.08984 6.9414m-.92969-5.93358l.98047-.73438m9.32422 2.28906l6.78906 1.8164m-5.80078-1.55468l-.27734-1.19531m12.6875 3.01172l6.625-2.34375m-5.66016 2.0039l-.90625-.82812m19.26563 2.2461l-5.39844-4.5m4.61328 3.84374l-.25 1.20313m13.28125.3164l-3.2539-6.22656m2.77734 5.32031l-.6914 1.01563m12.90233.29297l-.09765-7.02735m.08594 6.00391l-1.07813.58984"/><g clip-path="url(#H)"><path fill="none" stroke="#000" stroke-linecap="round" stroke-linejoin="round" stroke-miterlimit="10" stroke-width=".5" d="M146.73438 424.85938l-5.46875 4.41796"/></g><path fill="none" stroke="#000" stroke-linecap="round" stroke-linejoin="round" stroke-miterlimit="10" stroke-width=".5" d="M146.73438 424.85938l2.2578.96484m-3.05468-.32031l1.1289.48046m12.89844-1.22656l-5.29687 4.6211m5.29687-4.6211l2.28907.8789m11.22265-.625l-5.69531 4.11329m4.86719-3.51562l1.10156.54296m13.59375.02344l-6.79688 1.78516m5.8086-1.52344l.83203.90234m13.55078-.7578l-6.95703.97265m5.94531-.83203l.72266.99218m13.42969.55079l-6.60547-2.39454m5.64453 2.04688l.17187 1.21484m12.57422.96875l-3.54687-6.0664m16.08594 6.40234l-1.9961-6.73828m16.15234 6.36328l-3.67578-5.98828m3.14063 5.11719l-.6211 1.05859m16.02344-2.25781l-6.78125-1.84766m5.79297 1.58203l.26953 1.19531m13.80469-3.38671l-6.32422 3.0664m6.32422-3.0664l1.98047 1.44921m11.46484 1.3125l-6.58594-2.45703m5.62891 2.09766l.16016 1.21875m14.32422-1.83984l-7.00782-.4961m7.00782.4961l.99609 2.24218m12.20703-3.40625l-6.78516 1.83594m5.79688-1.57031l.83984.89453m13.16797-1.90234l-6.19531 3.3164m6.19531-3.3164l2.03906 1.37109m11.4336-1.03906l-6.50781 2.65234m6.5078-2.65234l1.88282 1.57031m11.09766-2.19531l-5.83985 3.90234m5.83985-3.90234l2.16406 1.16015m10.61719-1.78906l-4.77344 5.16016m4.77344-5.16016l2.3711.625m9.39452-1.45703l-1.67578 6.82422m1.67578-6.82422l2.3789-.60156m10.14063.5l-.08203 7.02734m.08203-7.02734l2.1797-1.125m7.9375 3.09765l6.3125 3.08203m10.36327-5.04687l-.41015 7.01172m.35156-5.99219l1.11328-.51172m13.80078-.05078l-3.48828 6.09766m2.98047-5.21094l1.22656.03906m10.08203 5.55078l1.53906-6.85547m11.89063 6.87891l1.3125-6.90234"/><g clip-path="url(#I)"><path fill="none" stroke="#000" stroke-linecap="round" stroke-linejoin="round" stroke-miterlimit="10" stroke-width=".5" d="M146.72266 411.53125l-5.44532 4.4414"/></g><path fill="none" stroke="#000" stroke-linecap="round" stroke-linejoin="round" stroke-miterlimit="10" stroke-width=".5" d="M146.72266 411.53125l2.26172.95313m-3.0547-.3047l1.13282.47657m12.96875-1.13281l-5.4336 4.45703m5.4336-4.45703l2.26563.94531m-3.0547-.29688l1.13282.47266m13.03125-1.04687l-5.55078 4.30859m4.74219-3.67969l1.12109.5039m12.16016 3.95704l-3.8672-5.86719m3.3047 5.01172l-.58594 1.07813m13.52344.21093l-1.98828-6.73828m1.69921 5.75781l-.875.85938m12.07032-.03125l2.83203-6.42969m-2.42188 5.4961l-1.22265.08984m12.74218-.25l5.60157-4.24219m-4.78907 3.625l-1.11328-.51562m16.01563 2.5l.80078-6.98047m-.80078 6.98047l-2.28516.89843m17.42969-1.17578l-2.85547-6.42187m2.85547 6.42187l-1.51172 1.9336m12.72656-1.69532l1.34375-6.89843m-1.14844 5.89453l-1.17578.35547m18.19141-1.40235l-6.44531-2.79687m5.50781 2.39062l.09375 1.22266m14.42578-2.59375l-6.98437.75781m5.96875-.64844l.6914 1.01563m12.82422-3.02344l-5.35156 4.55469m4.57031-3.89453l1.14453.45312m13.5039-.22656l-6.45702 2.77734m5.51562-2.37109l.95703.76563m13.14063-1.4922l-6.13672 3.42188m6.13672-3.42187l2.0586 1.32812m10.9414-1.80078l-5.50781 4.36719m4.70703-3.73047l1.1211.49219m12.98437-1.14063l-5.48828 4.38672m5.48828-4.38672l2.2539.97266m10.0664-1.82422l-3.5 6.09375m2.9922-5.20703l1.22656.03906m11.07031-1.38672l-.44531 7.01563m.44531-7.01563l2.23438-1.01172m11.64453 1.09375l-1.57422 6.84766m1.57422-6.84765l2.3711-.63672m-2.59766 1.6328l1.18359-.3164m13.14062-.39844l-3.14062 6.28516m3.14062-6.28516l2.45313-.05859m10.03516-.23047l-1.48438 6.86719m1.48438-6.86719l2.35937-.67187m-2.57812 1.67187l1.18359-.33594m11.01562-.6953l1.1836 6.92577m-1.1836-6.92578l1.94141-1.5m10.30469 1.86719l3.32422 6.1914m-3.32422-6.1914l1.36328-2.03906m10.11719 5.48047l6.99218-.69141m-6.99218.6914l-1.35938-2.04296"/><g clip-path="url(#J)"><path fill="none" stroke="#000" stroke-linecap="round" stroke-linejoin="round" stroke-miterlimit="10" stroke-width=".5" d="M146.72656 398.22266l-5.45312 4.42968"/></g><path fill="none" stroke="#000" stroke-linecap="round" stroke-linejoin="round" stroke-miterlimit="10" stroke-width=".5" d="M146.72656 398.22266l2.26172.95703m11.03516-.98047l-5.41406 4.47656m5.41406-4.47656l2.26562.9336m9.48047-2.01954l-2.27734 6.64844m2.27734-6.64844l2.42188-.38672m12.47656 5.9336l-5.44531-4.44532m14.40625 5.33594l3.26172-6.22265m-2.78516 5.3164l-1.22656.00781m12.85547-.14843l5.68359-4.12891m-5.6836 4.1289l-2.20703-1.07812m16.625 2.0664l3.47657-6.10546m-3.47657 6.10547l-2.45312-.07031m18.58984.35937l-2.16797-6.6836m2.16797 6.6836l-1.70703 1.76172m14.54297-1.64453l-1.20703-6.92188m1.20703 6.92188l-1.9375 1.50781m1.76172-2.51563l-.96875.75391m13.5.28906l.71094-6.99218m-.71094 6.99218l-2.27344.92579m17.01953-1.07813l-2.15234-6.6875m1.83984 5.71484l-.85547.88282m16.91797-3.37891l-7.02344.2539m13.46875-1.16015l6.71875 2.0625m7.01563-2.95313l5.8789 3.84375m-5.02343-3.28515l.10937-1.21875m17.8086.13281l-5.03516 4.90235m4.30078-4.19141l1.16797.375m12.4961-1.42969l-4.26563 5.58594m4.26562-5.58594l2.42188.40235m11.96875.96093l-6.41797 2.86328m6.41797-2.86328l1.9336 1.50781m11.53515-1.09375l-6.72656 2.03125m6.72656-2.03125l1.73047 1.7422m10.20703-3.625l-3.96875 5.80077m3.96875-5.80078l2.4375.27344m10.20312-.63281l-2.62109 6.51953m2.24219-5.57031l1.21875-.13282m13.75.0625l-5.16797 4.76172m4.41406-4.07031l1.15625.40625m10.9375-2.17969l-1.21875 6.92188m1.04297-5.91406l1.16406-.37891m11.39844-.66797l.63672 7m-.63672-7l2.05469-1.33984m-1.96094 2.35937l1.02734-.67187m11.02344-.03125l2.97656 6.36718m-2.97656-6.36718l1.47656-1.96094m9.90625 4.34765l6.84375 1.59766m-5.84765-1.36719l-.3164-1.18359"/><g clip-path="url(#K)"><path fill="none" stroke="#000" stroke-linecap="round" stroke-linejoin="round" stroke-miterlimit="10" stroke-width=".5" d="M147.36328 388.14063l-6.72656-2.03516"/></g><path fill="none" stroke="#000" stroke-linecap="round" stroke-linejoin="round" stroke-miterlimit="10" stroke-width=".5" d="M146.38281 387.84375l.23828 1.20313m12.21875-5.08985l-3.04687 6.33203m2.60156-5.41015l1.22656-.05079m10.35547-1.15625l1.3086 6.90235m-1.3086-6.90235l1.91406-1.53515m-1.72265 2.53906l.95703-.76953m10.03125 1.07813l5.57813 4.27734m-5.57813-4.27735l.40625-2.41796m.40625 3.04296l.20313-1.21093m11.57812 2.875l7.01953-.30078m-7.01953.30078l-1.2461-2.11328m15.04298.17968l6.05468 3.56641m-6.05469-3.5664l.10938-2.45313m.77344 2.97265l.05469-1.22656M220.5625 388.25l6.65625-2.2539m-6.65625 2.2539l-1.78516-1.6836m2.75391 1.35548l-.89453-.83985m14.65625 2.98828l3.82422-5.89453m-3.82422 5.89453l-2.4414-.21094m3-.64453l-1.22266-.10546m15.84375 1.52734l.09765-7.02735m-.09765 7.02735l-2.1836 1.1211m2.19531-2.14454l-1.08984.5625m14.76172.44531l-.64063-6.99609m.64063 6.9961l-2.05469 1.34374m1.96094-2.35937l-1.02734.67187m15.05078.23047l-1.8711-6.76953m1.8711 6.76953l-1.77735 1.6914m14.28516-1.5664l-.2539-7.01953m.2539 7.01953l-2.125 1.23047m13.4961-1.73047l3.6328-6.01562m-3.10546 5.14062l-1.22266-.07031m12.79297-3.83984l6.0664 3.55078m-5.18359-3.03516l.05078-1.22656m18.88672 1.94922l-6.94531 1.07422m5.9336-.91797l.73437.98437m13.58984-1.17187l-6.9375 1.13672m6.9375-1.13672l1.48438 1.95312m10.1914-4.38281l-3.66015 5.9961m3.66015-5.9961l2.44922.14453m11.63672.49219l-5.19922 4.72656m5.19922-4.72656l2.3086.82812m8.95703-1.9375l-1.10157 6.94141m1.10157-6.9414l2.3203-.79688m9.92188.79297l1.04297 6.94922m-1.04297-6.94922l1.97266-1.46094m12.67188 1.51563l-1.6172 6.83984m1.6172-6.83985l2.37109-.62109m9.54687.57813l1.1797 6.92578m-1.00782-5.91797l.97266-.75m12.60156-.30469l.3164 7.01953m-.3164-7.01953l2.11328-1.25m11.78906 1.27344l-.85937 6.97265m.85937-6.97265l2.29297-.8789m13.51172 2.41406l-5.83984 3.90625m4.99218-3.33985l1.08203.58203"/><g clip-path="url(#L)"><path fill="none" stroke="#000" stroke-linecap="round" stroke-linejoin="round" stroke-miterlimit="10" stroke-width=".5" d="M147.44531 373.1211l-6.89062 1.375"/></g><path fill="none" stroke="#000" stroke-linecap="round" stroke-linejoin="round" stroke-miterlimit="10" stroke-width=".5" d="M146.4414 373.32031l.77735.94922m10.5-3.95312l-.8086 6.98046m.69141-5.96484l1.14063-.44531m12.4961-.53906l-1.21876 6.92187m1.21875-6.92187l2.33594-.75782m-2.51172 1.76563l2.33203-.75781m12.41016.23046l-3.71875 5.96094m3.71875-5.96094L188.2539 371m-2.98828.69531l1.22265.08594m11.67188-1.3711l-1.80078 6.79298m1.80078-6.79297l2.39062-.5547m10.1836.44142l-.31641 7.01953m.3164-7.01954l2.21485-1.05078m-2.26172 2.07422l1.10938-.52734m14.16406.17578l-4.14063 5.67578m4.14063-5.67578l2.42969.34766m-3.03125.48046l2.42968.34766m8.35156 5.01172l2.12891-6.69531m-2.1289 6.69531l-2.41016.4414m2.72266-1.41406l-1.20704.21875m16.56641.67188l-2.58594-6.53125m2.58594 6.53125l-1.58984 1.8711m13.92187-1.63673l-.61719-7m.52735 5.98047l-1.02735.66797m11.9961-.35156l4.2539-5.59375m-4.2539 5.59375l-2.42188-.39844m18.25782 1.09375l-.78516-6.98437m.78516 6.98437l-2.02735 1.38672m15.08985-1.36719l-.28125-7.02344m.23828 6l-1.0586.6211m17.6914-2.28125l-6.83202-1.65625m6.83203 1.65625l.60547 2.3789m12.67969-2.26171l-6.76954-1.89063m6.76954 1.89063l.52734 2.39453m12.83594-4.08594l-6.8672 1.48828m5.8672-1.26953l.79297.9375m13.30859-1.8125l-6.4414 2.80469m6.4414-2.80469l1.92187 1.52734m11.4375-1.42578l-6.52734 2.60156m5.57813-2.22265l.93359.79297m11.32422-3.15235l-2.51953 6.5625m2.51953-6.5625l2.4375-.29687m11.7539.78515l-4.26953 5.58594m4.26953-5.58594l2.41797.40235m11.3086-.02735l-5.09375 4.83594m5.09375-4.83594l2.32812.77735m9.9414-1.53516l-3 6.35156m16.38673-6.3203l-3.14453 6.28515m3.14453-6.28516l2.45312-.0586m11.6875.63673l-4.79687 5.13281m4.79687-5.13281l2.3711.63672m11.91796 2.91406l-6.74609-1.97266m6.7461 1.97266l.49609 2.40234"/><g clip-path="url(#M)"><path fill="none" stroke="#000" stroke-linecap="round" stroke-linejoin="round" stroke-miterlimit="10" stroke-width=".5" d="M145.71094 357.42578l-3.42188 6.13672"/></g><path fill="none" stroke="#000" stroke-linecap="round" stroke-linejoin="round" stroke-miterlimit="10" stroke-width=".5" d="M145.71094 357.42578l2.45312.04688m7.41406-.03516l3.47266 6.10938m-3.47266-6.10938l1.3125-2.07031m14.21875 1.64453l-.95703 6.96094m.95703-6.96094l2.3047-.84375m-2.44532 1.85547l2.30469-.84375m11.125-.17188l-.90625 6.96875m.90625-6.96875l2.29687-.86328m-2.42969 1.8789l1.14844-.43359m11.49219-.59375l.70703 6.9922m-.70703-6.9922l2.04297-1.36328m10.16797 1.66406l2.91406 6.39454m-2.91406-6.39454l1.4961-1.94921m14.26952 1.77734l-1.98437 6.73828m1.98437-6.73828l2.40625-.49219m13.19531 2.60156l-6.55859 2.51563m6.5586-2.51563l1.85156 1.61329m11.58984.51171l-6.8086-1.73046m5.81641 1.47656l.29297 1.19531m9.19531-5.02344l2.82422 6.4336m-2.41015-5.5l.75781-.96094m10.05078 3.49219l7.01172-.4961m-7.01172.4961l-1.30078-2.07813M290.26562 364l.39844-7.01563M290.26562 364l-2.22656 1.02734m2.28516-2.04687l-1.11328.51172m17.38281-.89453l-5.625-4.21094m4.8086 3.59765l-.19141 1.21485m15-2.28906l-6.98047-.83594m6.98047.83594l.88281 2.28906m-1.89844-2.41016l.4414 1.14453m13.46876-3.14843l-6.14063 3.41406m6.14063-3.41406l2.0625 1.33593m11.6914.53516l-7.01953-.32422m6 .27735l.52344 1.10546m13.8164-1.20703l-7.02734-.03125m6.00391.02735l.57031 1.08593m13.0664-3.20312l-5.625 4.21094M372.35157 359l1.10938.52344m13.20312-.8711l-5.98437 3.6797m5.11328-3.14454l1.0586.6211m12.76171-1.64844l-5.2539 4.66406m5.2539-4.66406l2.30078.85546m8.9961-1.98437l-1.21875 6.92188m1.04296-5.91407l1.16797-.3789m13.28516-.3086l-3.14063 6.28516m2.6836-5.3711l1.22656-.03125m13.625-.04687l-5.30078 4.61328m5.30078-4.61328l2.28906.875m11.7461.4414l-6.74219 1.98048m6.74219-1.98047l1.71484 1.7539m-2.69531-1.46875l1.71484 1.75781m12.67578-.47656l-6.92968-1.15625"/><g clip-path="url(#N)"><path fill="none" stroke="#000" stroke-linecap="round" stroke-linejoin="round" stroke-miterlimit="10" stroke-width=".5" d="M467.02734 361.07031l.78125 2.32813"/></g><path fill="none" stroke="#000" stroke-linecap="round" stroke-linejoin="round" stroke-miterlimit="10" stroke-width=".5" d="M466.01953 360.90234l.78125 2.32813"/><g clip-path="url(#O)"><path fill="none" stroke="#000" stroke-linecap="round" stroke-linejoin="round" stroke-miterlimit="10" stroke-width=".5" d="M146.36328 344.57813l-4.72656 5.19921"/></g><path fill="none" stroke="#000" stroke-linecap="round" stroke-linejoin="round" stroke-miterlimit="10" stroke-width=".5" d="M146.36328 344.57813l2.3789.60156m9.48829-1.39453l-1.83203 6.78515m1.83203-6.78515l2.39062-.54688m10.69532.49219l-1.3711 6.89453m1.3711-6.89453l2.35156-.70313m-2.55078 1.70704l1.17578-.35157m11.30078-.69922l.69922 6.9922m-.69922-6.9922l2.04297-1.36328m-1.9375 2.3789l1.01953-.67968m10.84375.08203l3.39844 6.15235m-3.39844-6.15235l1.33594-2.05469m11.53906 2.34375l4.27344 5.57813m-4.27344-5.57813l1.01953-2.23437m11.01953 4.1914l6.82813 1.66016m-6.82813-1.66015l-.60547-2.37891m1.59766 2.6211l-.30078-1.19141m15.57422-1.70313l.92578 6.96485m-.79297-5.95313l1-.71094m15.36328 5.41016l-5.4336-4.45703m4.64454 3.8086l-.24219 1.20312m11.125-6.26172l1.0039 6.95703m-.85546-5.94531l.98828-.72266m15.76172 4.8789l-6.16016-3.375m6.16016 3.375l-.02734 2.45313m-.8672-2.94531l-.03124 2.45313m13.84375-1.37891l-5.36328-4.53906m5.36328 4.53906l-.51953 2.39453m-.26172-3.05469l-.51953 2.39453m-.26172-3.05859l-.25781 1.19922m15.71093-.83203l-6.51562-2.625m6.51562 2.625l.26172 2.4375m-1.21094-2.82031l.13282 1.21875m14.3828-1.98829l-7.01952-.32421m7.01953.32421l1.05078 2.21485m-2.07031-2.26172l.52344 1.10937m13.43359-2.8203l-6.26172 3.1914m6.26172-3.1914l2.00781 1.40624m11.65235-.3086l-6.95704.9961m6.95704-.9961l1.44921 1.98438m11.80079-.65234l-6.82422-1.66797m5.83203 1.42578l.30078 1.1914m11.95703-5.01952l-2.72656 6.47656m2.33203-5.53516l1.21875-.11328m14.64062 2.4414l-7.02734-.0664m6.00781.0586l.5625 1.08984m13.58594-2.24219l-6.65625 2.2539m6.65625-2.2539l1.78906 1.6836m10.6836-3.03907l-4.96875 4.96875m4.96875-4.96875l2.34765.71485m-3.07031.0078l1.17188.35548m12.76953-1.17578l-4.77344 5.16015m4.77344-5.16015l2.37109.6289m-3.0664.1211l2.37109.6289m11.48437-1.51172l-4.46484 5.4297m4.46484-5.4297l2.40235.48438m11.64843.34765l-5.93359 3.76172m5.9336-3.76171l2.1328 1.21093m-2.99609-.66406l1.0664.60547m13.625.2461l-6.96093.96484"/><g clip-path="url(#P)"><path fill="none" stroke="#000" stroke-linecap="round" stroke-linejoin="round" stroke-miterlimit="10" stroke-width=".5" d="M467.04297 346.69531l1.4375 1.98438"/></g><path fill="none" stroke="#000" stroke-linecap="round" stroke-linejoin="round" stroke-miterlimit="10" stroke-width=".5" d="M466.02734 346.83594l.72266.99219"/><g clip-path="url(#Q)"><path fill="none" stroke="#000" stroke-linecap="round" stroke-linejoin="round" stroke-miterlimit="10" stroke-width=".5" d="M146.8711 331.83594l-5.7422 4.05469"/></g><path fill="none" stroke="#000" stroke-linecap="round" stroke-linejoin="round" stroke-miterlimit="10" stroke-width=".5" d="M146.8711 331.83594l2.1914 1.10547m10.3711-1.88282l-4.23829 5.60547m4.23828-5.60547l2.42188.39063m11.14062-.1836l-4.73047 5.19532m4.73047-5.19531l2.375.60546m10.3711-1.02734l-3.59375 6.03906m3.59375-6.03906l2.44922.11719m-2.97266.76172l1.22656.05859m13.51172-.17188l-5.39453 4.50391m5.39453-4.5039l2.27344.92578m10.03125-1.75391l-3.3711 6.16406m2.87891-5.26953l1.22656.01563M221.85547 331l4.07031 5.72656m-3.47656-4.89453l.54687-1.09765m10.72657 3.60156l6.96484-.94531m-6.96484.9453l-1.4297-1.99218m19.87892 4.6211l-3.30079-6.20313m2.82032 5.30078l-.6875 1.01563m15.90625-1.51563l-6.14844-3.39844m6.14844 3.39844l-.03907 2.45313m-.85546-2.94532l-.01954 1.22656m14.26172-.79296l-6.21484-3.28125m6.21484 3.28125l.0039 2.45703m-.91015-2.9336l.00781 2.45313m14.57032-3.02344l-6.92578-1.1875m6.92578 1.1875l.76562 2.33203m-1.77344-2.5039l.38282 1.16406m13.8125-2.6875l-6.67188 2.20312m6.67188-2.20312l1.77343 1.69922m-2.74218-1.3789l.88281.84765m12.75-2.33203l-5.3711 4.53125m5.3711-4.53125l2.27734.91015M319 332.25391l2.27734.91406m11.7461-1.65625l-5.22266 4.70312m5.22266-4.70312l2.30468.83984m-3.0664-.15625l1.15234.42188m13.41016-.41406l-6.19531 3.3203m5.29296-2.83593l1.01954.67969m13.5703 1.04297l-6.9414-1.09375M359.5 334.25l.40234 1.16016m11.65235 1.7578l-2.39453-6.60937m2.04296 5.64844l-.8203.91016m16.46093-1.74219L380.5 332.35156m6.34375 3.02344l.10547 2.45313m12.875-1.89454l-5.67578-4.14062M399 335.33203l-.17578 1.21485m14.875-3.57422l-6.79688 1.78125m6.79688-1.78125l1.66406 1.80078m10.83984-3.28516l-5.17578 4.75m5.17578-4.75l2.31641.8164m-3.0664-.125l1.15624.40626m13.2461-.67188l-5.84766 3.89844m5.84766-3.89844l2.16015 1.16406m-3.01171-.59765l1.08203.58203m13.55468-.10156l-6.78906 1.80469m6.78906-1.8047l1.67188 1.79688m-2.66016-1.53515l.83594.89843M467 333.13672l-6.875 1.45312"/><g clip-path="url(#R)"><path fill="none" stroke="#000" stroke-linecap="round" stroke-linejoin="round" stroke-miterlimit="10" stroke-width=".5" d="M467 333.13672l1.57422 1.88281"/></g><path fill="none" stroke="#000" stroke-linecap="round" stroke-linejoin="round" stroke-miterlimit="10" stroke-width=".5" d="M466 333.34766l.78516.9414"/><g clip-path="url(#S)"><path fill="none" stroke="#000" stroke-linecap="round" stroke-linejoin="round" stroke-miterlimit="10" stroke-width=".5" d="M146.23438 317.83594l-4.46875 5.42578"/></g><path fill="none" stroke="#000" stroke-linecap="round" stroke-linejoin="round" stroke-miterlimit="10" stroke-width=".5" d="M146.23438 317.83594l2.40234.48828m10.5039-.77735l-3.64843 6.00391m3.64844-6.0039l2.44921.13671m-2.98047.73438l1.22266.07031m12.38672-1.07422l-3.17578 6.26953m3.17578-6.26953l2.45313-.04687m11.375.36328l-4.20313 5.63281m4.20313-5.63281l2.42578.375m10.8125-.42969l-4.05078 5.74219m4.05078-5.74219l2.43359.3086m10.17578-.69532l-2.63672 6.51563m2.63672-6.51563l2.4375-.2539m10.17969.05468l-1.24219 6.91797m1.0625-5.91015l1.16797-.37891m10.10156 5.95313l3.21094-6.25m-2.7461 5.34375l-1.22656.01562m16.16797 1.2461l-.97656-6.95704m.97656 6.95703l-1.98437 1.44141m16.73828-1.98047l-3.85156-5.8789m3.85156 5.8789l-1.1836 2.14844M280.35156 322l-6.40234-2.90234M280.35156 322l.15625 2.44531m-1.08984-2.8711l.07812 1.22657m14.45313-1.78906l-6.96485-.92969m6.96485.92969l.85547 2.30078m-1.8711-2.4336l.4297 1.14844m13.89843-1.9453l-6.96485.93358m6.96485-.93359l1.42969 1.99219m-2.44141-1.85938l.71484 1m12.39844-3.35156l-4.53516 5.36719m4.53516-5.36719l2.39844.51953m-3.0586.26172l1.19922.26172m12.55078-1.21484l-4.08593 5.71484m4.08593-5.71484l2.4336.3203m-3.02735.51173l1.21485.16015m12.83984-.8828l-4.3789 5.49608m4.3789-5.49609l2.41406.44922m11.25391-.1289l-5.07812 4.85546m4.33593-4.15234l1.16797.38672m12.71094 3.9375l-4.72656-5.19922m4.03906 4.4414l-.41406 1.15625m14.95312-1.01171l-5.79687-3.97266m4.95312 3.39453l-.13672 1.21875m10.1211.64453l2.55078-6.54687m-2.17969 5.59375l-1.21875.14453m12.11719-1.32031l6.64453-2.28907m12.46094-1.35156l-4.9414 4.9961m18.82421-4.26563l-6.07422 3.53125m5.1914-3.01563l1.04298.64454m13.26171-.95704l-6.28906 3.12891m6.28906-3.1289l2 1.42578m-2.91406-.97266l1 .71484m13.40235-.76171l-6.63282 2.3164"/><g clip-path="url(#T)"><path fill="none" stroke="#000" stroke-linecap="round" stroke-linejoin="round" stroke-miterlimit="10" stroke-width=".5" d="M466.8789 319.39063l1.80079 1.66406"/></g><path fill="none" stroke="#000" stroke-linecap="round" stroke-linejoin="round" stroke-miterlimit="10" stroke-width=".5" d="M465.91406 319.72656l1.80078 1.66406"/><path fill="#ff3030" fill-rule="evenodd" d="M362.30469 463.21094h7.6914V453.0625h-7.6914v10.14844"/><path fill="azure" fill-rule="evenodd" d="M364.13672 454.89844h.83203v5.73828h3.19531v.74219h-4.02734v-6.48047"/><path fill="#00f" fill-rule="evenodd" d="M392.67578 463.21094h8.6211V453.0625h-8.6211v10.14844"/><path fill="azure" fill-rule="evenodd" d="M394.51172 454.89844h.83203v2.82031h3.28516v-2.82031h.83203v6.48047h-.83203v-2.91797h-3.28516v2.91797h-.83203v-6.48047"/><path fill="#ff3030" fill-rule="evenodd" d="M193.64453 436.57813h7.69531v-10.14454h-7.6953v10.14454"/><path fill="azure" fill-rule="evenodd" d="M195.47656 428.26563h.83594v5.74218h3.1914v.73828h-4.02734v-6.48046"/><path fill="#00f" fill-rule="evenodd" d="M388.23828 432.14063h8.61719v-10.14454h-8.61719v10.14454"/><path fill="azure" fill-rule="evenodd" d="M390.07031 423.82813h.83594v2.82421h3.28516v-2.82421h.83203v6.48046h-.83203v-2.91796h-3.28516v2.91796h-.83594v-6.48046"/><path fill="#00f" fill-rule="evenodd" d="M228.45703 423.26563h8.6211v-10.14844h-8.6211v10.14844"/><path fill="azure" fill-rule="evenodd" d="M230.28906 414.95313h.83594v2.8203h3.28516v-2.8203h.83203v6.48046h-.83203v-2.91796H231.125v2.91796h-.83594v-6.48046"/><path fill="#00f" fill-rule="evenodd" d="M370.48438 396.63281h8.62109v-10.14453h-8.6211v10.14453"/><path fill="azure" fill-rule="evenodd" d="M372.3164 388.32031h.83594v2.82422h3.28516v-2.82422h.83203v6.48047h-.83203v-2.91406h-3.28516v2.91406h-.83593v-6.48047"/><path fill="#ff3030" fill-rule="evenodd" d="M206.96094 361.1289h7.6914v-10.14843h-7.6914v10.14844"/><path fill="azure" fill-rule="evenodd" d="M208.79297 352.8164h.83203v5.73829h3.19531v.73828h-4.02734v-6.47656"/><path fill="#ffffe0" fill-rule="evenodd" d="M310.67578 339.32422h22.17969v-10.1914h-22.17969v10.1914"/><path fill-rule="evenodd" d="M314.17578 330.96484h.50781v6.29297h-.78515v-4.48828h-1.39063v-.55469l.5586-.0664.2539-.05469.23047-.08984.20313-.14063.17187-.21094.14453-.29296.10547-.39454m4.8125 0l.23047.01954.21875.05468.20703.08985.19531.12109.1836.14844.17187.17578.30469.41797.24219.4961.17969.54687.10937.57812.03906.58985-.03906.59375-.10938.58593-.17968.55469-.24219.5-.30469.42969-.17187.17969-.1836.15234-.1953.1211-.20704.09374-.21875.0586-.23047.01953-.23047-.01953-.21875-.0586-.20703-.09375-.19531-.1211-.1836-.15233-.17187-.1797-.30469-.42968-.24219-.5-.17968-.55469-.10938-.58594-.03906-.59375h.83203l.03125.5625.07813.50782.1289.4414.16016.375.1914.30079.21094.22265.22266.13672.22656.04688.22656-.04688.22266-.13672.21094-.22265.1914-.30079.16016-.375.1289-.4414.08204-.50781.02734-.5625-.02734-.5586-.08203-.5-.12891-.4375-.16016-.36719-.1914-.28906-.21094-.21484-.22266-.13281-.22656-.04297-.22656.04296-.22266.13282-.21094.21484-.1914.28906-.16016.3672-.1289.4375-.07813.5-.03125.55858h-.83203l.03906-.58984.10938-.57812.17969-.54688.24218-.4961.30469-.41796.17188-.17578.18359-.14844.19531-.1211.20703-.08984.21875-.05469.23047-.01953m5.08985 0h.51171v6.29297h-.78906v-4.48828h-1.38672v-.55469l.5586-.0664.2539-.05469.23047-.08984.20313-.14063.17187-.21094.14063-.29296.10546-.39454m2.82422 2.17579h.78907l.01953-.31641.0586-.28516.09765-.2539.14062-.21485.1836-.17578.22265-.1289.26563-.07813.30469-.02734.23828.01953.22656.0625.20312.10156.1797.14063.14843.17187.11328.20703.07031.23438.02735.26562-.02344.26953-.0664.22266-.10938.1914-.15625.17188-.19922.16016-.2461.16796-.63671.39063-.53516.3125-.4375.3164-.34766.32423-.26562.33593-.1875.35156-.125.3672-.07031.39452-.01954.41797h4.21094v-.73828h-3.33203l.08203-.28515.11328-.23829.14844-.19921.1875-.1797.23047-.17187.27734-.17578.71875-.41797.41407-.20312.34765-.23047.28125-.2539.21875-.26563.16406-.27735.10938-.28515.0664-.28516.01954-.28125-.04297-.38281-.1211-.34766-.1875-.3086-.25-.26171-.30468-.21484-.34375-.15625-.3789-.09766-.41017-.03516-.43359.03125-.39844.10157-.35546.16406-.3047.23437-.24609.3047-.1875.375-.11328.4453-.04297.51954"/></g></defs><use xlink:href="#U"/></svg>