<svg xmlns="http://www.w3.org/2000/svg" role="img" xmlns:xlink="http://www.w3.org/1999/xlink" viewBox="142.45 309.95 326.84 171.84"><defs><clipPath id="a"><path d="M144 311.67188h1v168.65625h-1zm0 0"/></clipPath><clipPath id="b"><path d="M144 311.67188h324v168.65625H144zm0 0"/></clipPath><clipPath id="c"><path d="M467 311.67188h1v168.65625h-1zm0 0"/></clipPath><clipPath id="d"><path d="M144 477h3v3.32813h-3zm0 0"/></clipPath><clipPath id="e"><path d="M156 476h3v4.32813h-3zm0 0"/></clipPath><clipPath id="f"><path d="M170 476h1v4.32813h-1zm0 0"/></clipPath><clipPath id="g"><path d="M182 476h4v4.32813h-4zm0 0"/></clipPath><clipPath id="h"><path d="M195 476h4v4.32813h-4zm0 0"/></clipPath><clipPath id="i"><path d="M208 476h5v4.32813h-5zm0 0"/></clipPath><clipPath id="j"><path d="M220 479h8v1.32813h-8zm0 0"/></clipPath><clipPath id="k"><path d="M236 476h3v4.32813h-3zm0 0"/></clipPath><clipPath id="l"><path d="M246 479h9v1.32813h-9zm0 0"/></clipPath><clipPath id="m"><path d="M262 476h4v4.32813h-4zm0 0"/></clipPath><clipPath id="n"><path d="M273 478h8v2.32813h-8zm0 0"/></clipPath><clipPath id="o"><path d="M288 477h5v3.32813h-5zm0 0"/></clipPath><clipPath id="p"><path d="M301 477h6v3.32813h-6zm0 0"/></clipPath><clipPath id="q"><path d="M314 477h6v3.32813h-6zm0 0"/></clipPath><clipPath id="r"><path d="M328 477h5v3.32813h-5zm0 0"/></clipPath><clipPath id="s"><path d="M340 477h7v3.32813h-7zm0 0"/></clipPath><clipPath id="t"><path d="M354 477h6v3.32813h-6zm0 0"/></clipPath><clipPath id="u"><path d="M368 476h5v4.32813h-5zm0 0"/></clipPath><clipPath id="v"><path d="M382 476h3v4.32813h-3zm0 0"/></clipPath><clipPath id="w"><path d="M396 476h2v4.32813h-2zm0 0"/></clipPath><clipPath id="x"><path d="M408 477h5v3.32813h-5zm0 0"/></clipPath><clipPath id="y"><path d="M420 479h8v1.32813h-8zm0 0"/></clipPath><clipPath id="z"><path d="M425 479h3v1.32813h-3zm0 0"/></clipPath><clipPath id="A"><path d="M433 479h8v1.32813h-8zm0 0"/></clipPath><clipPath id="B"><path d="M439 479h2v1.32813h-2zm0 0"/></clipPath><clipPath id="C"><path d="M449 476h2v4.32813h-2zm0 0"/></clipPath><clipPath id="D"><path d="M462 476h3v4.32813h-3zm0 0"/></clipPath><clipPath id="E"><path d="M144 463h2v8h-2zm0 0"/></clipPath><clipPath id="F"><path d="M144 451h4v5h-4zm0 0"/></clipPath><clipPath id="G"><path d="M144 438h4v5h-4zm0 0"/></clipPath><clipPath id="H"><path d="M144 424h4v6h-4zm0 0"/></clipPath><clipPath id="I"><path d="M144 411h4v6h-4zm0 0"/></clipPath><clipPath id="J"><path d="M144 397h3v6h-3zm0 0"/></clipPath><clipPath id="K"><path d="M144 385h4v4h-4zm0 0"/></clipPath><clipPath id="L"><path d="M144 371h4v5h-4zm0 0"/></clipPath><clipPath id="M"><path d="M465 370h3v2h-3zm0 0"/></clipPath><clipPath id="N"><path d="M144 357h3v7h-3zm0 0"/></clipPath><clipPath id="O"><path d="M466 359h2v3h-2zm0 0"/></clipPath><clipPath id="P"><path d="M144 344h3v6h-3zm0 0"/></clipPath><clipPath id="Q"><path d="M466 345h2v3h-2zm0 0"/></clipPath><clipPath id="R"><path d="M144 332h4v4h-4zm0 0"/></clipPath><clipPath id="S"><path d="M466 332h2v3h-2zm0 0"/></clipPath><clipPath id="T"><path d="M144 318h4v5h-4zm0 0"/></clipPath><clipPath id="U"><path d="M466 319h2v3h-2zm0 0"/></clipPath><g id="V" clip-path="url(#clip1)"><path fill="#fff" fill-opacity="0" fill-rule="evenodd" d="M0 0h1000v1000H0zm0 0"/><path fill="#d3d3d3" fill-opacity="0" fill-rule="evenodd" d="M162.15234 355.86719l-.23437.29297.0586.23437.11718.17188.17578.23437.29297.34766.11328.0586.11719-.17188.0586-.23438.17577-.17578.46485-.17578h.69922l.23437.29297.28906.8164.0586.17579.17578.23046.35156.23438.69922.69922.17188.17578.23437.34765.23438.41016.28906.58203.41015.46485.23047.23437.23438.17578.11719.23047.17578.29297.17187 1.16406v.23438l.0586.28906.05859.11719.11719.11719.34765.41015.11719.17188.17578.17578.17578.23437.11719.17188.17188.35156.05859.23438.23437.40625.23438-.0586-.17578.17578-.0586.92969h-.58203l-.23437-.11328-.34766.11328-.11719.11719-.05859.29297-.0586.17578-.11718.17187-.46484.29297-.0586.23438-.0586.11328v.64453l.0586.17187v.41016l.0586.0586v.40624l.05859.40625.11719.17579.05859.05859.23047.64062-.0586.29297v.69922l-.05859.58203v.23438l-.0586.23047-.05468.35156v1.92187l.05469.1172h.42578l-.36719.11718-.02344.35156.89063 1.16797 1.74219.53906 1.33984.35938v.53906l.08984.8086.53516.71484 1.51953.26953.89063-.08594.08984 1.16406.53516.1797 1.16015-.1797 2.05469-.98437 1.16016-.36328 1.8789-.17578 1.69531-.1797-.17968.71876-1.51563.08594-1.25.08984-.80469.26953-1.07421.8086.26953.71875.53515.89843-.17968.625-.26563.8086.26563 1.07812.625.89844.80468.17969 1.25-.1797-.26562.72267.09766.5039.05468.29297v.17188l.0586.29296v.40625l.17578.1172.35156.11718h.40625l.29297-.17578.11328-.11719.0586-.11719.11718-.23047.0586-.17578.35156-.46484.23047-.17578.17578-.0586.17578.0586.0586.17578.11718.98828.05469.46875.0586.17188.11718.23437.17578.0586.8164.05859h.28907l.11719.23437.05859.40625.0586.35156v1.10547l.11718.29297.11719.34766.28906.69922.17578.35156.58203.7539.35157.17579.17187.0586.46875.23437.64063.46484.34765.23438.29297.17578.29297.05468.23047.0625.8164.34766.29297.17578.11328.17188.35157.35156.11719.17578.52343.64063v.28906l.0586.35156v.34766l.05859.35156.0586.28906.11718.0586.17188.05859h.17578l.58203.23437.17578.1172.17578.28905.17578.23438.11328.23437.29297.23047.11719.11719v.41016l.0586.05468.28906.23438.23437.11719.0586.11718.11718.17188.0586.11719.23047.23437.05859.17578.23437.0586.1172.05859-.1172.11328-.05859.11719v.11719l-.11719.29296-.11719.28907v.58203l.17579.11719.11718.05859.0586.11719.11719.11719.11328.05859.17578.34765.0586.35157.05858.40625v.17578l-.05859.17578-.11719.69922v.17187l.1172.17579.29296.29296h.40625l.17578.1172.11719.17187.11719.29296v.23438h-.52735l-.23047-.23438h-.23437l-.17578.0586-.0586.69922.0586.34765.11719.17579.17578.41015.11718.23047.28907.46875.17578.05469h.52344l.23437.0586.75781.64062.0586.29296v.23438l.05859.0586.23047.34765v.35156l-.11719.17188v.29297l.29297.28906.29297.17578.17187.0586.29297.17577.29297.1172.58203.40624.28906.23438.29297.17578.21875.16015.01563.01172.23047.17579.64062.52343.17578.23438.1172.17578.17577.17578.11328.17188v.64062l.1172.17578.46874.11719.58203.11719.23438.05859.23047.11328.29297.11719.11328.0586.58593.35156.28907.17187.17578.0625.17578.05469.17578.0586.69922.35155.28906.17579.23438.05468.28906.17578.23437.1172.64063.40624.29297.11719.17187.0586.23438.05859.41015.05859.23047.0586.23438.11718.0586.17188-.41017.17578.46875.0586.0586.29296.11328.23438.17578.05468.23438.0586.17578.05859.40625.11719.64062.23437.11719.17188.0586.23437v.17578l-.0586.1172-.0586.40624.23438.23438.11719.05859.34766.11719.64062.23047.17578.11718.28906.1172.17578.17577.23438.46485.58203 1.10546.17578.17579.34766.17578.17578.11719.35156.11718 1.04688.52344.23437.0586.46485.11327.29297.0586.46484.17578.75781.58203.23438.23438.34765.46484.17578.17578.28907.23438.8164.69921.29297.17579.28906.28906.29297.17578.29297.28906.69531.64063.17578.17578.29297.23437.28907.23438.46875.28906.64062.58203.34766.23438.23437.29297.34766.34765.35156.46485.9336.99218.34765.40625.11719.17579.23437.05859.11328.11719.64454.17578.23047.11328.23437.0586.29297.17577.23047.1172.9336.69921.40624.40625.23438.17578.40625.17578.23437.11719.8164.34766.34766.23437.23438.11719.29297.28906.23047.11719.7578.35156.35157.17188.23047.05859.29297.11719.23437.0586.8711.17577h.8164l.46875.23047.17188.0586.875.69921.46484.1172.29297.05858.17578.0586.23047.0586.46875.05859.34766.05859.35156.0586.40625.05859h.29297l.17187.0586v.23046l.17578.17578h.29297l.34766.0586.35156.05859.69922.11719h.64063l.46484-.23438.29297-.17578.17187-.11719.41016-.17187.28906-.17578.9336-.46485.46875-.29297.52343-.29296.46485-.17188.46484-.17578 1.05078-.46485.28906-.11718.41016-.11719.28906-.11719.52735-.17578 1.51562-.69922.58203-.34765.28907-.0586.29297-.0586.34765-.11718.875-.23047.35156-.11719h.11329l.23437-.05859.875-.23437.23438-.0586h.8125l.35156-.0586.8164-.11718.17188-.0586.35156-.05468.29297-.0586.23047-.05859.8164-.17578.17579-.0586h.34765l.23438-.05859.46484-.11718.75781-.17188.23438-.0586h.34765l.41016-.11718.28906-.0586 1.28516-.05859h.28906l.41016-.0586.23047-.05858h.17578l.875-.1172h.40625l.41015-.11718h.34766l.35156-.11328.8711-.0586h1.75l1.04687.28907.41016.11719.28906.11718.35156.11719.28907.11719 1.05078.17187.28906.0586h.29297l.29297.05859.17187.0586.41016.05859.17187.0586.1172.05858h.11718l.11719.0586.35156.0586h.11328l.41016.0664 1.92187.39453 1.92578.39453 1.51953.44922 1.69532.71875 2.14453.80469 1.60547-.71875 1.42968-.80469 1.16016-1.07813 1.25-.44921 3.03516-.71875 1.875-.35938 2.14453-1.34765 2.23437-1.25391 2.5-1.25781 1.69531-.44922 1.78516-.17969 1.16016-.26953.625.53906 1.33984-.26953.71485-.98828.98437-1.34375.44531-.17969.80469-.35937 1.875-.53907 1.78516-.44921 1.25-.26954 1.16015-.08984 1.69922-.08984 1.96094-.26954 1.25-.08984h.53906l.625-.08984h.89063l2.14453-.17969 2.41015-.17969 2.58985-.08984 1.69531.17969 1.60938.08984 1.42968.35938 1.16016.71875 1.875.98828 1.16015 1.52734.26563.71484.6289.08985.35548.89844.53515.53906.53516 1.52734 1.07422.35938h.53515l-.80469.53515.08985 1.70703.71484 2.69532.89063.80468.89453.98829.71484 1.2578 1.78516.53907 1.51953-.17969.35547 1.34375 1.60937-.80469.98047-.53906.26953.26953.31641-.21484.21875-.14453.80078.44922.44922-.35938h.35547l.53515-.26953.53907-.71875.53515-.26953.625-.98828 1.16016.44922.83984.3711 1.39454.61718 1.6953-.17969h1.60548l1.78515.08985.17969-1.70704.53516-1.34375.80468.26954.4922.84765.40233.40625-.08984.53906v.35938l.71485.44922.71093-.26953h1.42969l.35938.98828.4453 1.25781.71485 1.34375 1.25.6289 1.69531.62891.71485-.17969.17969-.53906.98046-.08984.44922.35937.08594 1.25782-.26563.6289-.53515.17969v.53906l.71484.98438.26563.53906.98437.98828.80078 1.07813-.26562.35937-.08985.89844-.625 2.33203-.35546 2.0664-.08985 1.79298-.17969.71875-.08984.53906v1.4375l-.98047 1.88281-.35937 1.70703-.53516.89844-.80469 1.16797-.26562.53906 2.05469 1.2539.08593.35938-.35546.53906-.08985-.17968v.80859l.08985 1.4375-.44532.71484-1.07422.09375-.26562.71485.53515.89844.8047.71875 1.16015.80859 1.33984.26953.44531.35938-.35546.44921-1.78907-.08984-1.25-.44922-.71484-.71875-.625-.08984-.17578 3.58984-.1875 1.3086h89.35937V311.70313h-55.26953v49.08203l.76172.125 3.28906.54296 2.02344 2.83594v2.7539l2.35156.33204 2.34766.33203h4.05078l-1.3789 4.16016-2.02344.70703-2.02344.70312-.54297.34375-2.59375 1.6172-.1875.11718-2.02344-2.07813-.73046-2.74218-2.67188-2.07813-1.375-3.5-.0664-.08203-1.95704-2.67188 2.75-1.41796v-49.08204H294.42187v91.41407l.1172.03125.1328.01172.07422.07421.10547.04688.08985.0586.08593.05859.08985.0586.29687.29687.0586.08984.03125.11719.02734.11719.01563.13671-.03125.1172-.0586.08983-.0586.08594-.04296.10547-.04688.10156-.02734.1211v.14453l.17578.26953.14844.14844.07422.08594.07422.07421.04296.10547.0625.08985.0586.08593.04297.10547.0586.08985.04687.10156.04296.10547.0586.08594.11719.17968.07421.07422.0625.08594.0586.08984.04297.10547.0586.08985.05858.08593.0625.08985.0586.08984.04297.10156.11719.17969.07421.07422.0586.08594.07422.07421.08984.0586.10547.04687h.14844l.1328-.01562.13282.01562.10156-.04687.07422-.07422.04688-.10156-.01563-.13281v-.14844l-.04687-.10547-.02735-.11719-.04687-.10156-.02735-.1211-.04296-.10156-.0625-.08984-.04297-.10156-.04297-.10547-.03125-.11719-.01563-.13281-.01171-.13672.08593-.0586.0586-.08593.12109-.03125.04297.10547.01562.1328v.1172l.0586.10156.0586.08984.08983.0586.14844.14843.0586.08985.04296.10547-.01171.10156.08593.0586.10547.04687.08594.0586.08984.05858.07422.07422-.11719.02735-.10546.04687-.08594.0586-.07422.07421-.0586.08985-.0625.08594-.02734.12109-.04687.10156-.04297.10547-.03125.11719-.01172.13281-.01563.13281v.14844l.02735.11719.04687.10547.04297.10156.0586.08984.07421.07422.08985.0586.07422.07421.08984.0586.0586.08984.04296.10547.04688.10156.11719.03125.1328.01563h.14845l.11718-.03125.10547.04297.04297.10547.04688.10156.02734.1211L299.5 410l.02734.11719.03125.1211.02735.11718.10547.04297.10156.04687.13281-.01562.14844.14844.0625.08593.07422.07422.07031.07422.08984.0625.10547.04297.10156.04297.1172.03125.13671.01562.11719-.03125.07422-.07422.02734-.11718-.01172-.13282-.03125-.12109-.02734-.11719.04297-.10547h.11719l.08984.0625.11719.02735h.14843l.13282.01562h.14843l.13282.01563.1328-.01563h.14845l.1328-.01562.13282-.01172.13672.01172.11719-.02735.13281-.01562.1914-.0586-.05859.17579-.01562.1328-.02735.1211-.01562.13281-.0586.08594-.1328.01563-.10548.04687-.10546.04297-.1172.03125-.11718.02735-.26563.03125h-.14843l-.13281.01562-.07422.07422.05859.08594.14844.14843.11719.1797.07421.0703.08985.0625.08984.0586.08594.0586.08984.05858.10156.04297.10547.0625.10547.04297.08594.0586.10547.04687.10156.04297.17969.11719.0586.08984-.04298.10156-.04687.10547.01562.13281.22266.22266.0586.08985.04296.10156.03125.1211.04297.10155.01563.13282.03125.11718.01171.13672.03125.11719.14844.14844.10156.04297.10547.04296.1172.03125.1328.01563.13672.01563h.11719l.11719-.03125.08984-.0586.04297-.10547.04688-.10156.04296-.10547.03125-.11719.01172-.1328v-.14845l-.01172-.1328-.01562-.13282-.03125-.11719-.04297-.10547-.04688-.10547-.04296-.10156-.04297-.10547-.01563-.13281.01563-.13281.02734-.11719.03125-.11719.02735-.1211.04687-.10155.08984-.0586.08594-.0625.07422-.07422.08984-.05859.22266-.22266.0586-.08593.07421-.07422.11719-.17969.0586-.08594v-.14844l-.07423-.07421-.10156-.04688-.10547-.04297-.10156-.04297-.0586-.08984-.04687-.10547-.02734-.11719.08984-.05859.11719-.03125.10156-.04297.17969-.11719.14844-.14843.01172-.13282-.01172-.10546-.08985-.0586-.1328.01563h-.14845l-.1328.01562-.13282-.01562-.1211-.03125-.08593-.0586-.07422-.07422-.0586-.08984-.0625-.08594-.11718-.17969-.0586-.08593.03125-.1211.08594-.05859.1211-.03125.05859-.08594v-.1211l-.03125-.11718-.0586-.08984-.05859-.08594-.04687-.10547-.02735-.11719-.01562-.1328.0586-.08985.07421-.07422.08984-.0586.1172-.17968.07421-.07422.0586-.08594.14843-.14844.1211-.03125.1328-.01562.13282.01562.07422.07422.04297.10547.01562.13281-.03125.1172-.11719.03124-.1328.01172-.14844.14844-.04297.10547-.04688.10156-.02734.1211-.03125.11718v.14844l.03125.11719.04297.10546.05859.08985.07422.07031.07422.07422.11719.03125.12109.02734.11719-.02734.1328-.01563h.1172l.08984.0586.07422.07422.04687.10546.0586.08594.10156.04688.13281.01562.10547.04297.08594.0586-.01172.10546-.07422.07422-.17969.11719-.05859.08984-.08984.0586-.07032.07422-.07421.07421-.0625.08985-.02735.11719-.01562.1328.01562.13282-.01562.13281v.14844l.01562.13281.02735.1172.03125.12108.07421.07422.08985.0586.08594.0586.08984.05858.11719.03125v.08594l-.10157.04688-.08984.0586-.26563.03124-.11718.02735h-.14844l-.10547.04296-.10156.04688-.0586.08984-.0625.23438-.01171.13281-.03125.1211-.01563.1328v.29298l-.01172.1328.01172.13673.01563.1328.1328.01563.13282.01172.1211.03125.08593.0586.07422.07421.04688.10547.04296.10157.01563.1328v.44532l-.01563.13281v.44532l.03125.26562.02735.11719.01562.13281.03125.11719.08594.21094.03125.26562v.14844l-.03125.11719-.02734.11718-.03125.1211-.02735.11719-.03125.11718-.03125.1211-.01171.1328-.01563.13282.08984.0586.1172-.03125.10155.01562.04688.10547-.03125.26562v.44141l-.04297.10547-.04688.10547-.04296.10156-.04297.10547-.0586.08594-.03125.12109-.04296.11719-.03125.11719-.01563.1328.01563.13282.05859.08984.10547.04688.08594.0586.05859.08593-.01172.13672-.03125.11719-.04297.10156v.44531l-.01562.13281v.14844l-.03125.11719-.04297.10547-.02735.11719-.04687.10546-.04297.10157-.03125.12109-.02734.11719-.03125.13281-.03125.11719-.02735.11719-.04297.10546-.03125.1172-.03125.12108-.01171.13282-.01563.13281v.29688l.02734.11718v.14844l.04688.39844.02734.11719.0586.08984.12109.03125h.14844l.13281-.01563.0586.08985v.11719l-.0586.08984-.08984.0586-.10157.04296-.10546.04688-.08985.05859-.08594.0586-.13671.01562-.1172-.03125-.1328-.01563-.10157.04688-.0625.08594-.01172.13671-.01562.13282-.03125.11719-.02735.11718-.01562.13281-.03125.1211v.29687l.01563.13282.03125.11718v.14844l.01171.13281v.14844l-.02734.11719-.04688.10156-.02734.1211-.03125.11718-.0586.08985-.07421.07421-.10156.04297-.10547.04688-.11719.02734-.1211.03125-.10156-.04687.0586-.08594.10547-.04688.02734-.11718.03125-.11719.02734-.1211.03125-.11718v-.14844l.01563-.13281-.03125-.11719-.04297-.10547-.10547.01563-.07422.07422-.10156.04296-.08984.0625-.07422.07422-.04297.10157-.01563.1328-.03125.1172L304.25 426l-.03125.11719-.02734.11719-.03125.12109-.02735.11719-.03125.11718-.04297.10547-.08984.0586h-.08984l-.1172-.03125-.03124-.08594.01562-.13672-.03125-.11719v-.14844l-.01171-.1328v-.14844l-.0625-.23438-.02735-.1211-.04297-.10156-.04687-.10546-.0586-.08594-.05859-.08985-.04297-.10546-.0625-.08594-.14844-.14844-.0703-.07422-.10548-.04687-.10547-.04297-.10156-.04297-.29687-.29688-.08985-.07421-.08594-.0586-.10546-.04297-.08985-.0625-.08594-.0586-.10546-.04296-.08985-.0586-.08594-.0625-.07421-.0703-.10547-.04688-.08594-.0586-.10547-.04296-.08984-.0625-.10156-.04297-.10547-.04297-.08594-.0586-.10547-.04687-.10547-.04297-.10156-.04687-.08985-.0586-.10156-.04297-.10547-.04296-.08984-.0625-.11719-.02735-.13281-.01562-.13281.01562H299.75l-.13281.01563-.11719-.03125-.08984-.0586-.07422-.07422-.08985-.05859-.10156-.04688h-.14844l-.12109-.02734-.10156-.04297-.07422-.07422-.11719-.17968-.08984-.0586-.10156-.04297-.08985-.0625-.10547-.04296-.08984-.0586-.08594-.0586-.10547-.04687-.0586-.08594-.05858-.08984-.04297-.10547-.04688-.10156-.07422-.07422-.08594-.0586-.07421-.07421-.08985-.0586-.22265-.22265-.04297-.10547-.03125-.26563.10547-.04296h.14453l.10547.04296.07421.07422.08985.0586.08594.0586.10546.04687.08985.05859.14844.14844.0703.07422.14845.14843.0625.08594.07421.07422.08594.0586.07422.07421.08985.0625.08984.0586.08594.05859.26953.17578.10156.04688.10547.04296.10156.04297.04688-.07421.05859-.08594.07422-.07422.07031-.07422.10547.04297.07422.07422.0586.08984.04296.10156.04688.10547.04296.10547.1211.02735.11719-.02735.07421-.08984.04297-.10547.0586-.08985.07422-.07421.10546-.04297.1172-.02735.1328.01172.08985.0586.14844.14843.05859.08985.04297.10547.04687.10156.04297.10547.04297.10156.10547.04688.10547.04296.13281.01563.08594-.0586.0586-.08984.07421-.07422.10547-.04297.11719.02735.10547.04687.10156.04297.10547.04297.10156.04688.17969.11718v.11719l-.01563.13281.01563.13281.01562.13672.0586.08594.10156.04688.1211.02734.11718.03125h.14844l.11719-.03125.05859-.08984.17969-.1172.05859-.08983.07422-.07422.0586-.08594.11718-.17969.17969-.11719.11719.03125.08984.0586.04297.07422-.01563.1328v.1172l.08985.05859h.14843l.13282-.01563.1328-.01171.26563-.03125.10547-.04297.11719-.03125.1211-.02735.07421-.07421.07031-.07422.0625-.08985-.01562-.10547-.04688-.10156-.10156-.04297-.10547-.01562-.11718.02734-.26563.03125h-.14844l-.07421-.07422-.08985-.0586-.11719-.03124-.11718-.02735-.13282-.01562h-.14843l-.13282.01563h-.29687l-.10547-.04688-.14844-.14844-.04297-.10156-.05859-.08984.22266-.22266.08593-.0586.10547-.04296.11719-.03125.13281-.01563.13281.01563.13672.01562.10157.04297.1328-.01172.08985-.0625.10156-.04297.0625-.08984-.04687-.10156-.08984-.0586-.1172-.03125-.10155-.04296-.0586-.08985-.0625-.08984v-.11719l.01563-.13281.10547-.04688.07421-.07031v-.1211l-.08984-.05859-.03125-.11719.08985-.05859.07421-.07422.04297-.10547.0586-.08984.04687-.10156.01563-.13281v-.14844l-.04688-.10547-.04297-.10156-.08984-.0586-.13281-.01562-.10157-.04297-.13671-.01563-.1172-.03125h-.4453l-.13282-.01562-.13281-.01172-.13281-.01563-.11719-.03125h-.14844l-.13281-.01562-.13281-.01172-.26563-.03125-.1211-.04297-.08593-.0586-.07422-.07421v-.14844l.01172-.13281.10547-.04688.10156-.04296.13281-.01563h.15235l.13281-.01562h.29297l.1211.03125.10156.04296.08984.0586.23438.0625.12109-.04688.08984-.05859.10156-.04297.13282-.01562.10547.04296.10156.04688.13281.01172.1211-.02735h.14453l.12109-.03125.11719-.02734.10547-.04687.07421-.07422.08594-.0586.14844-.14843.0586-.08594.04687-.10547.02734-.11719.01563-.10547-.10156-.04296-.08985-.0586-.11719-.03125-.10546-.04297-.08985-.0625-.07422-.08594-.07422-.07421-.10156-.04297-.10547-.04688-.10156-.04297-.0586-.08984-.04687-.10156-.08594-.21094-.0625-.08594-.05859-.08984-.07422-.07422-.08594-.0586h-.26953l-.11719.03126-.08984.05859-.10156.04297-.13281.01562-.10547-.01562-.02735-.11719-.0625-.08984-.11718-.03125-.10157-.04297-.14843-.14844-.03125-.11719-.01563-.10546.07422-.07422.17969-.1172.11719-.02733.11718-.03125.13672.01562.10156.04297.10547.04297.10156.04687.10547.04297.1172.03125.1328.01563.1172.02734.1328.01563.10547-.01563.08985-.0586-.07422-.07421-.10547-.04297-.07422-.07422-.07422-.08984-.14844-.14844-.08593-.0586-.08985-.05859-.07422-.07422-.08984-.0586-.10156-.04687-.1211-.02734-.10156-.04688-.10547-.04296-.11719-.03125-.10156-.04297-.1211-.03125h-.14843l-.11719.03125-.10546.04297-.08594.0625-.17969.11718-.08594.0586-.08984.0586-.10547.04687-.08594.05859-.10547.04297-.10156.04297-.10547.04687-.07422.07422-.05859.08985-.0586.08593-.04687.10547-.0586.08594-.07421.07422-.13281-.01172-.1172-.03125h-.11718l-.07422.07422-.08984.0586-.07422.07421-.08984.0586-.08594.05859-.10547.04687-.10156.04297-.13672.01563-.10156-.04297-.14844-.14844-.10547-.04688h-.08594l-.10547.04688-.10156.04297-.1211.03125-.11718-.03125-.07422-.07422v-.11719l.03125-.1211.07422-.0703.0586-.08985.07421-.07422.11719-.03125.10547-.04296h.29297l.13281-.01563.13672-.01563.10156-.04296.08985-.0586.10156-.04687.08984-.0586.13281-.01171.08985.05859.13281.01172.08984-.0586.08594-.05859.10547-.04297.08984-.0586.08594-.0625.08985-.05859.14843-.14843.0586-.08594.05859-.08985.10547-.04296.13281-.01563.11719.02735.1211.03125.05859-.0586.05859-.08984.03125-.26563.02734-.11719.10547.01172.13281.01563.10157-.04297.08984-.0586.0586-.08984.07421-.07422.0586-.08984.04687-.10156.01172-.13281-.01172-.13282-.04687-.10547-.14844-.14843-.0586-.08985-.05859-.08594-.04297-.10546v-.44532l.01563-.1328v-.14845l.01172-.1328-.0586-.0586-.08984.0586-.10156-.04298-.17969-.11719-.08594-.05859-.0625-.08984-.0586-.08985-.07421-.07421-.08594-.0586-.1211.03125-.10155.01172-.10547.04688-.08594.05859-.10547.04297-.14844.14844-.08984.05859-.08594.0586-.08984.0625-.10547.04296-.13281.01563v-.1211l.10547-.04297.11718-.03125.07422-.0703.04297-.10548v-.14844l-.02734-.11718-.14844-.14844-.13281-.01563h-.14844l-.11719.03125-.10547.04297-.10156.04297-.08984.0625-.11719.02735-.07422-.07422.01172-.13281-.04297-.10157-.04297-.10547-.08984-.05859-.11719.02734-.1211.03125-.11718.03125-.10156.04297-.1211.03125-.10156.04297-.10547.04297-.08984.0586-.10156.01562v-.11719l.01562-.13281-.0586-.08985-.07421.04297-.14844.14844-.0586.08985-.07421.07421-.04688.10547-.04296.10156-.07422.07422-.0586.08985-.07422.07422-.05859.08593-.07422.07422-.08984.0625-.07422.07031-.07422.07422-.10156.01563-.13281.01562-.10547-.04296v-.1211l.14843-.14844.04297-.10156.0586-.08984.04687-.10156.04297-.10547.0586-.08985.03124-.11719.04297-.10156.03125-.1211.02735-.11718.04687-.10547.04297-.10156.04297-.10547.07422-.07031.08984-.0625.08985-.0586.10156-.04296h.29687l.26563-.03125.10547-.04297-.07422-.07422-.11719-.03125-.10547-.04297-.08984-.0586-.10156-.04687-.08985-.0586-.10156-.04296-.10547-.04297-.08984-.0625-.08594-.0586-.10547-.04296-.10156-.04297-.1211-.03125-.11718-.03125-.10157-.04297L297.5 410.25l-.10156-.04297-.08985-.0586-.04296-.10546-.01563-.13281.10156-.04297.13281-.01563.13672.01563.13282-.01563.10156-.04297.0586-.08984.01562-.10547-.08985-.0586-.07421-.07421-.10157-.04297-.08984-.0586-.14844-.14843-.04297-.10547-.01562-.13281v-.29297l-.0586-.08985-.08984-.05859-.07422-.07422-.04297-.10547-.03125-.11718-.0586-.08985-.07421-.07422-.11719-.02734-.07422-.07422-.08984-.0586-.08984-.0625-.08594-.05859-.07422-.07421-.0586-.08594-.04687-.10547-.08594-.0586-.14843-.14843-.19532-.0586-.1328.01563-.10157.04297-.07422.07422-.04688.10156-.04296.10547-.0586.08984-.0586.08594-.29687.29687-.08984.0586h-.08594l-.0625-.08594-.04297-.10547.03125-.11719.0586-.08984.02734-.11719-.01172-.13281-.08984-.0625-.10547.04688-.11719.02734-.11719.03125-.26953.17578-.10156.04688-.11719.02734-.10546.04687-.08985.0586-.10156.04297-.0586-.08594-.04687-.10547.01563-.13281.04687-.10547.07031-.07422.07422-.07031.0586-.08985v-.14843l-.04297-.10547h-.23829l-.10156.04687-.03125.11719-.02734.11719-.03125.1211-.07422.04296-.13281.01563-.07422-.04688-.04297-.10156-.04297-.10547-.04687-.10156-.04297-.10547-.1211.03125-.10156.04297-.13281.01562-.11719.03125-.10547.04297-.08984.0586-.10156.04687-.1211.02734-.13281.01563-.10156-.04297-.0586-.08985-.04687-.10546-.04297-.10157-.04297-.10546v-.1172l.0586-.08984.08593-.05859.17969-.11719.10156-.04687.10547-.04297.10547-.0586.10156-.04296.08985-.0625.10156-.04297.10547-.0586.10156-.04687.08984-.0586.10547-.04296.10156-.04297.08985-.0625.10156-.04297.13672-.01563.11719.03125.10156.04297.1211.03125.10156.04297.10546.04688.10157.04296.10547.04297.10156.04688.10547.04297.10156.04297.10547.04687.08594.0586.10546.04296.1172.03125.10546.04297.10156.04688.08985.0586.10547.04296.10156.04297.10547.04687.11719.02735.10156.04687.1211.02735h.14843l.08594-.0586.01562-.10156.0586-.08984-.02735-.1172-.07422-.07421-.11719-.17969-.07421-.07422-.08985-.07421-.17969-.1172-.08593-.05859-.10547-.04296-.10156-.04688-.26954-.17578-.05859-.08985-.07422-.07421-.0586-.08985-.04296-.10156-.03125-.11719-.01563-.13672v-.5625l-.01171-.1328-.01563-.13282-.03125-.11719-.01562-.13281-.01172-.13281-.03125-.1211-.22266-.22265-.0586-.08594-.01562-.10547.03125-.11719.13281-.01562v-91.41406H172.9922v1.45312l-.0586.23438-.35156 1.05078-.17187.52343-.1172.34766-.17577.41016-.11719.17187-.23438.29297-.23046.0586h-.35157l-.11718.05859-.23047.40625v.29297l.11719.17578.23046.23047.1172.23437.64062.75781.29297.46485.17578.23437.23047.35156.23437.34766.64063.8164.17578.46485.17187.41016.11719.69531.17578.46875.11719 1.39844.0586.46484v.875l.11718 1.04688v4.78125l-.0586.46484-.35156 1.28125-.17578.52344-.11328.41015-.35156.9297L172.93359 336l-.23437.58203-.11719.17578-.17187.34766-.17578.40625-.35157.8164-.0586.29297-.11327.29297-.11719.28906-.0586.17579-.11718.875-.0586.40625-.05859.11718-.0586.17579-.05859.17187-.23047.52734-.11718.17188v.23437l-.11719.23438-.0586.17187-.17577.58594v.28906l-.0586.17579v.29296l-.0586.11329-.05859.52734v.17187l-.05468.23438v2.6211l-.17578.8164-.1172.17578-.17577.23438-.1172.17187-.11327.23438-.58594.93359-.23047.28906-.29297.46485-.17578.23437-.28906.35156-.35156.69922-.11328.23047-.17579.41016-.17578.23046-.40625.52735-.8164.69922-.29297.17187-.28906.23438-.17579.11719-.17578.17578-.52344.40625-.52734.17578-.17187.17578-.23438.05469-.64062.17578h-.75782m12.21094 31.02344l-1.07422.44921.35938.89454 1.25-.71485.44531-.53906-.98047-.08985"/><path fill="#d3d3d3" fill-opacity="0" fill-rule="evenodd" d="M201.50781 416.59766h-.89453l.44922.6289.98047.35938.80469-.08985.4453-.98828-.17577.08985-.71485-.35547-.89453.35547m154.6211 59.0703l-.0586-.52343v-.29297l.11328-.29297.0586-.23046.46875-.46875h.11328l.11719-.11329.11718-.05859h.17579l.23437-.0586h.34766l.23437.0586.11719.0586.23047.17187.0586.17578.11718.58203v.29297l-.11719.17578-.17187.28906-.17579.17579-.52734.52343-.23047.23438-.11719.0586h-.17578l-.11718-.0586-.40625-.29297-.17579-.11719-.11718-.0586-.0586-.11327-.05468-.1172m6.64062-10.95702l-.0586-.17188v-1.10937l.0586-.17188.17578-.0586.17188-.05858h.17578l.23437-.0586.1172.0586.05858.69921-.05859.17188-.11719.17578-.11718.0586-.23438.52343-.11328.0586h-.23438l-.05859-.1172m9.61328-14.39062l-.11719-.17578v-.69922l.29297-.875.1172-.17187.17577-.35156.11328-.23047.1172-.29297.35155-.75781.1172-.23047.17187-.23438h.17578l.11719-.0586h.64062l.11719.0586.23437.23438.17188.11328.35156.29297.11719.11718.11328.17579v.11328l.11719.05859.11718.11719v.69922l-.05859.17578v.23047l-.0586.17578-.34765 1.05078-.11719.23047-.11719.23437-.11718.0586-.23047.23437-.64063.28906h-.875l-.41015-.11718-.64063-.46485"/><path fill="none" stroke="#bebebe" stroke-linecap="round" stroke-linejoin="round" stroke-miterlimit="10" stroke-width=".5" d="M467.95703 311.69531H144.02734v168.625h323.9297v-168.625"/><g clip-path="url(#a)"><path fill="#fff" fill-opacity="0" fill-rule="evenodd" d="M144 475.89063v4.4375h.0039H144V311.67188h.0039H144v164.21875"/></g><g clip-path="url(#b)"><path fill="#fff" fill-opacity="0" fill-rule="evenodd" d="M144.0039 480.32813V311.67188h79.88673v100.0703l-2.03907 2.01173 2.03906 1.9414 1.89063-1.9414-1.89063-2.01172V311.67188h8.875v98.37109l-2.7578 3.71094-.6875 4.4375.5625 4.4375 2.8828 2.66015 4.44141 1.10156 4.4375-.96484 3.9336 1.64453.5039.45703 4.4375 2.04688 4.4375.80078 1.45703 1.13281 2.98438 1.70313 1.7461-1.70313 2.6914-2.26953 2.1211-2.16797-2.1211-2.125-4.4375 1.21875-1.08985-3.53515-.27343-4.4375-3.07813-2.10938-4.4375-1.05469-4.4375 1.62891-4.4375-.6914-1.09375-2.21094-3.34375-3.37891-4.4414-.33203v-98.3711h31.0703v92.3047l-2.67187.89843 2.67188 2.16016.78515-2.16016-.78515-.89844v-92.30469h8.875v95.2422l-2.38281 2.40234-.94532 4.4375 3.32813 2.57812 1.66797 1.85938 2.35937 4.4375.41406.42187 4.0625 4.01953.375.375 2.30079 4.0625 2.13671 2.11719 2.1875-2.11719 2.25-.47656 3.94922-3.96094-3.94922-3.98828-1.70703-.45312-1.58203-4.4375 1.02344-4.4375-2.17188-2.5547-4.4375-1.82421-.375-.0586-4.0625-2.0039-4.4414-.39844v-95.24219h115.39844V429.6836l-1.52344 1.82422 1.52344 1.51953 3.21484-1.51953-3.21485-1.82422V311.67188h79.88672v168.65625H144.00391"/></g><path fill="#50fcfc" fill-rule="evenodd" d="M223.89063 415.69531l-2.03907-1.9414 2.03906-2.01172 1.89063 2.01172-1.89063 1.9414m5.9922 6.9336l-.5625-4.4375.6875-4.4375 2.7578-3.71094 4.44141.33203v1.65625l-4.4414 1.57813-.10547.14453-1.59766 4.4375 1.70313 4.22656.15234.21094 4.28906 2.20312 4.42578-2.20312-.64844-4.4375-2.07421-4.4375-1.70313-1.72266V410.375l3.34375 3.3789 1.09375 2.21094 4.4375.69141 4.4375-1.6289v1.92577l-2.21094 1.23829-2.22656 3.5039-4.35547.9336 4.35547.69921 4.4375 2.92188 4.4375-.91016 1.3125-2.71093-1.3125-2.71875-1.71484-1.71875-2.72266-1.23829v-1.92578l4.4375 1.0547 3.07813 2.10937.27343 4.4375 1.08985 3.53515 4.4375-1.21875 2.1211 2.125-2.1211 2.16797-2.6914 2.26953-1.7461 1.70313-2.98438-1.70313-1.45703-1.13281-4.4375-.80078-4.4375-2.04688-.5039-.45703-3.9336-1.64453-4.4375.96485-4.4414-1.10157-2.88282-2.66015"/><path fill="#00e8fc" fill-rule="evenodd" d="M232.76563 422.41797l-1.70313-4.22656 1.59766-4.4375.10547-.14454 4.4414-1.57812v5.02344l-1.0625 1.13672 1.0625 2.05078.4336-2.05078-.4336-1.13672v-5.02344l1.70313 1.72266 2.07422 4.4375.64843 4.4375-4.42578 2.20312-4.28906-2.20312-.15234-.21094"/><path fill="#00d4fc" fill-rule="evenodd" d="M237.20703 420.24219l-1.0625-2.05078 1.0625-1.13672.4336 1.13672-.4336 2.05078"/><path fill="#00e8fc" fill-rule="evenodd" d="M246.08203 423.32813l-4.35547-.69922 4.35547-.9336 2.22656-3.5039 2.21094-1.23829 2.72266 1.23829 1.71484 1.71875 1.3125 2.71875-1.3125 2.71093-4.4375.91016-4.4375-2.92188"/><path fill="#50fcfc" fill-rule="evenodd" d="M263.83594 407.03516l-2.67188-2.16016 2.67188-.89844.78515.89844-.78515 2.16016m8.875 9.29687l-3.32813-2.57812.94531-4.4375 2.38282-2.40235 4.4414.39844v3.03125l-4.13671 3.41016 3.96875 4.4375.16796.28906L281.5 422.6289l.08984.08984.37891 4.35156 4.0586 4.26953 4.4375-1.0664 3.1914-3.20313-3.1914-3.22265-4.4375-1.19532-3.2461-.02343 1.72656-4.4375.92578-4.4375-3.84375-3.21875-4.4375-.19141v-3.03125l4.0625 2.0039.375.0586 4.4375 1.82422 2.17188 2.55469-1.02344 4.4375 1.58203 4.4375 1.70703.45312 3.94922 3.98828-3.94922 3.96094-2.25.47656-2.1875 2.11719-2.13671-2.11719-2.30079-4.0625-.375-.375-4.0625-4.01953-.41406-.42187-2.35937-4.4375-1.66797-1.85938"/><path fill="#00e8fc" fill-rule="evenodd" d="M276.98438 418.1914l-3.96875-4.4375 4.13671-3.41015 4.4375.1914v1.9297l-3.85937 1.28906 3.85937 3.77734 1.53516-3.77734-1.53516-1.28907v-1.92968l3.84375 3.21875-.92578 4.4375-1.72656 4.4375 3.2461.02343v.73438l-3.38282 3.6836 3.38281 3.55859 4.4375-1.625 1.9297-1.9336-1.9297-1.94922-4.4375-1.73437v-.73438l4.4375 1.19532 3.19141 3.22265-3.1914 3.20313-4.4375 1.0664-4.0586-4.26953-.3789-4.35156-.08985-.08984-4.34766-4.14844-.16796-.28906"/><path fill="#00d4fc" fill-rule="evenodd" d="M281.58984 417.53125l-3.85937-3.77734 3.85937-1.28907 1.53516 1.28907-1.53516 3.77734m4.4375 13.09766l-3.3828-3.5586 3.3828-3.6836v.73438l-2.70703 2.94922 2.70703 2.84766 4.4375-2.17969.66797-.66797-.66797-.67578-4.4375-2.27344v-.73437l4.4375 1.73437 1.9297 1.94922-1.9297 1.9336-4.4375 1.625"/><path fill="#00c4fc" fill-rule="evenodd" d="M286.02734 429.91797l-2.70703-2.84766 2.70703-2.94922v.73438l-2.03515 2.21484 2.03515 2.14063 3.83985-2.14063-3.83985-2.21484v-.73438l4.4375 2.27344.66797.67578-.66797.66797-4.4375 2.17969"/><path fill="#00b8fc" fill-rule="evenodd" d="M286.02734 429.21094l-2.03515-2.14063 2.03515-2.21484v.73437l-1.35937 1.48047 1.35937 1.42969 2.56641-1.42969-2.5664-1.48047v-.73437l3.83984 2.21484-3.83985 2.14063"/><path fill="#00a8fc" fill-rule="evenodd" d="M286.02734 428.5l-1.35937-1.42969 1.35937-1.48047v.73438l-.68359.7461.6836.71874 1.29296-.71875-1.29297-.7461v-.73437l2.56641 1.48047-2.5664 1.42969"/><path fill="#009800" fill-rule="evenodd" d="M286.02734 427.78906l-.68359-.71875.6836-.7461v.73438l-.01173.01172.01172.00781.01954-.0078-.01954-.01173v-.73437l1.29297.7461-1.29297.71874"/><path fill="#00ac00" fill-rule="evenodd" d="M286.02734 427.07813l-.01171-.00782.01171-.01172.01954.01172-.01954.00781"/><path fill="#50fcfc" fill-rule="evenodd" d="M388.10938 433.02734l-1.52344-1.51953 1.52344-1.82422 3.21484 1.82422-3.21485 1.51953"/><g clip-path="url(#c)"><path fill="#fff" fill-opacity="0" fill-rule="evenodd" d="M467.9961 480.32813H468V311.67188h-.0039H468v168.65625h-.0039"/></g><g clip-path="url(#d)"><path fill="none" stroke="#000" stroke-linecap="round" stroke-linejoin="round" stroke-miterlimit="10" stroke-width=".5" d="M146.10547 477.51563l-4.21094 5.6289"/></g><path fill="none" stroke="#000" stroke-linecap="round" stroke-linejoin="round" stroke-miterlimit="10" stroke-width=".5" d="M146.10547 477.51563l2.42187.375"/><g clip-path="url(#e)"><path fill="none" stroke="#000" stroke-linecap="round" stroke-linejoin="round" stroke-miterlimit="10" stroke-width=".5" d="M157.91797 476.86719l-1.20313 6.92187"/></g><path fill="none" stroke="#000" stroke-linecap="round" stroke-linejoin="round" stroke-miterlimit="10" stroke-width=".5" d="M157.74219 477.875l1.16406-.38281"/><g clip-path="url(#f)"><path fill="none" stroke="#000" stroke-linecap="round" stroke-linejoin="round" stroke-miterlimit="10" stroke-width=".5" d="M170.64063 476.8164l-.01954 7.02735"/></g><path fill="none" stroke="#000" stroke-linecap="round" stroke-linejoin="round" stroke-miterlimit="10" stroke-width=".5" d="M170.63672 477.83594l1.08594-.57031"/><g clip-path="url(#g)"><path fill="none" stroke="#000" stroke-linecap="round" stroke-linejoin="round" stroke-miterlimit="10" stroke-width=".5" d="M182.89453 476.97656l2.10156 6.70703"/></g><path fill="none" stroke="#000" stroke-linecap="round" stroke-linejoin="round" stroke-miterlimit="10" stroke-width=".5" d="M183.20313 477.95313l.85937-.875"/><g clip-path="url(#h)"><path fill="none" stroke="#000" stroke-linecap="round" stroke-linejoin="round" stroke-miterlimit="10" stroke-width=".5" d="M196.21094 483.6836l2.09765-6.70704"/></g><g clip-path="url(#i)"><path fill="none" stroke="#000" stroke-linecap="round" stroke-linejoin="round" stroke-miterlimit="10" stroke-width=".5" d="M209.21094 483.5664l2.73047-6.47656"/></g><g clip-path="url(#j)"><path fill="none" stroke="#000" stroke-linecap="round" stroke-linejoin="round" stroke-miterlimit="10" stroke-width=".5" d="M220.40625 479.86328l6.96484.9336"/></g><g clip-path="url(#k)"><path fill="none" stroke="#000" stroke-linecap="round" stroke-linejoin="round" stroke-miterlimit="10" stroke-width=".5" d="M237.79297 476.86328l-1.17578 6.92969"/></g><path fill="none" stroke="#000" stroke-linecap="round" stroke-linejoin="round" stroke-miterlimit="10" stroke-width=".5" d="M237.6211 477.8711l1.16406-.38673"/><g clip-path="url(#l)"><path fill="none" stroke="#000" stroke-linecap="round" stroke-linejoin="round" stroke-miterlimit="10" stroke-width=".5" d="M247.08203 481.04688l6.8789-1.4375"/></g><g clip-path="url(#m)"><path fill="none" stroke="#000" stroke-linecap="round" stroke-linejoin="round" stroke-miterlimit="10" stroke-width=".5" d="M262.38281 483.52734l2.90625-6.39843"/></g><g clip-path="url(#n)"><path fill="none" stroke="#000" stroke-linecap="round" stroke-linejoin="round" stroke-miterlimit="10" stroke-width=".5" d="M273.86719 481.58203l6.5664-2.5039"/></g><g clip-path="url(#o)"><path fill="none" stroke="#000" stroke-linecap="round" stroke-linejoin="round" stroke-miterlimit="10" stroke-width=".5" d="M288.32031 477.54688l4.29297 5.5625"/></g><g clip-path="url(#p)"><path fill="none" stroke="#000" stroke-linecap="round" stroke-linejoin="round" stroke-miterlimit="10" stroke-width=".5" d="M301.36719 477.77734l4.82812 5.10547"/></g><path fill="none" stroke="#000" stroke-linecap="round" stroke-linejoin="round" stroke-miterlimit="10" stroke-width=".5" d="M302.07031 478.51953l.39063-1.16406"/><g clip-path="url(#q)"><path fill="none" stroke="#000" stroke-linecap="round" stroke-linejoin="round" stroke-miterlimit="10" stroke-width=".5" d="M315.23828 477.34766l3.71485 5.96484"/></g><path fill="none" stroke="#000" stroke-linecap="round" stroke-linejoin="round" stroke-miterlimit="10" stroke-width=".5" d="M315.77734 478.21484l.6172-1.0625"/><g clip-path="url(#r)"><path fill="none" stroke="#000" stroke-linecap="round" stroke-linejoin="round" stroke-miterlimit="10" stroke-width=".5" d="M328.38281 477.46094l4.0586 5.73828"/></g><path fill="none" stroke="#000" stroke-linecap="round" stroke-linejoin="round" stroke-miterlimit="10" stroke-width=".5" d="M328.97266 478.29297l.55078-1.09375"/><g clip-path="url(#s)"><path fill="none" stroke="#000" stroke-linecap="round" stroke-linejoin="round" stroke-miterlimit="10" stroke-width=".5" d="M341.07031 478.03125l5.3125 4.59766"/></g><path fill="none" stroke="#000" stroke-linecap="round" stroke-linejoin="round" stroke-miterlimit="10" stroke-width=".5" d="M341.84375 478.69922l.27344-1.19531"/><g clip-path="url(#t)"><path fill="none" stroke="#000" stroke-linecap="round" stroke-linejoin="round" stroke-miterlimit="10" stroke-width=".5" d="M354.40625 478.0039l5.26953 4.64844"/></g><path fill="none" stroke="#000" stroke-linecap="round" stroke-linejoin="round" stroke-miterlimit="10" stroke-width=".5" d="M355.17188 478.67969l.28515-1.1914"/><g clip-path="url(#u)"><path fill="none" stroke="#000" stroke-linecap="round" stroke-linejoin="round" stroke-miterlimit="10" stroke-width=".5" d="M368.8164 477.17188l3.07813 6.3164"/></g><path fill="none" stroke="#000" stroke-linecap="round" stroke-linejoin="round" stroke-miterlimit="10" stroke-width=".5" d="M369.26563 478.08984l.71875-.99218"/><g clip-path="url(#v)"><path fill="none" stroke="#000" stroke-linecap="round" stroke-linejoin="round" stroke-miterlimit="10" stroke-width=".5" d="M383.125 476.85938l1.08984 6.9414"/></g><path fill="none" stroke="#000" stroke-linecap="round" stroke-linejoin="round" stroke-miterlimit="10" stroke-width=".5" d="M383.28516 477.86719l.98046-.73828"/><g clip-path="url(#w)"><path fill="none" stroke="#000" stroke-linecap="round" stroke-linejoin="round" stroke-miterlimit="10" stroke-width=".5" d="M396.96875 476.8164l.03516 7.02735"/></g><g clip-path="url(#x)"><path fill="none" stroke="#000" stroke-linecap="round" stroke-linejoin="round" stroke-miterlimit="10" stroke-width=".5" d="M412.02734 477.26953l-3.45312 6.1211"/></g><path fill="none" stroke="#000" stroke-linecap="round" stroke-linejoin="round" stroke-miterlimit="10" stroke-width=".5" d="M411.52344 478.16016l1.22656.02734"/><g clip-path="url(#y)"><path fill="none" stroke="#000" stroke-linecap="round" stroke-linejoin="round" stroke-miterlimit="10" stroke-width=".5" d="M426.96484 479.26953l-6.69921 2.11719"/></g><g clip-path="url(#z)"><path fill="none" stroke="#000" stroke-linecap="round" stroke-linejoin="round" stroke-miterlimit="10" stroke-width=".5" d="M425.99219 479.57813l.875.85937"/></g><g clip-path="url(#A)"><path fill="none" stroke="#000" stroke-linecap="round" stroke-linejoin="round" stroke-miterlimit="10" stroke-width=".5" d="M440.3711 479.60547l-6.87891 1.44922"/></g><g clip-path="url(#B)"><path fill="none" stroke="#000" stroke-linecap="round" stroke-linejoin="round" stroke-miterlimit="10" stroke-width=".5" d="M439.36719 479.8164l.78906.94141"/></g><g clip-path="url(#C)"><path fill="none" stroke="#000" stroke-linecap="round" stroke-linejoin="round" stroke-miterlimit="10" stroke-width=".5" d="M450.46484 476.82031l-.4375 7.01563"/></g><g clip-path="url(#D)"><path fill="none" stroke="#000" stroke-linecap="round" stroke-linejoin="round" stroke-miterlimit="10" stroke-width=".5" d="M464.44922 476.92969l-1.77344 6.79687"/></g><path fill="none" stroke="#000" stroke-linecap="round" stroke-linejoin="round" stroke-miterlimit="10" stroke-width=".5" d="M464.1914 477.91797l1.19141-.28125"/><g clip-path="url(#E)"><path fill="none" stroke="#000" stroke-linecap="round" stroke-linejoin="round" stroke-miterlimit="10" stroke-width=".5" d="M145.21484 463.71875l-2.42968 6.58984"/></g><path fill="none" stroke="#000" stroke-linecap="round" stroke-linejoin="round" stroke-miterlimit="10" stroke-width=".5" d="M145.21484 463.71875l2.4297-.33203m11.1328.4336l-2.92578 6.38671m2.92578-6.38672l2.44922-.14844m11.28516.375l-3.76172 5.9336m3.21484-5.07031l1.22266.09375m13.04297-.66016l-4.57031 5.33984m3.90234-4.5625l1.19922.26563m13.09375-.74219l-5.1914 4.73828m4.4375-4.04687l1.15624.41015m10.9336 4.72657l-1.23047-6.91797m12.05469 6.42968l3.75-5.9414m12.01562-.4961l-1.15234 6.9336m.98437-5.92578l1.16406-.39063m15.25 3.0586l-7.01562-.41797m17.32031 3.6875l-.99219-6.95703m.84766 5.9453l-.99219.72266m15.02344.16016l-2.13281-6.69922m14.78515-.14062l-.80859 6.98047m.6914-5.96485l1.14063-.44922m10.25-.18359l3.27344 6.21484m-2.79688-5.3125l.6875-1.01172m14.22657-.26953l-.87891 6.97266m.7539-5.95703l1.14454-.4375m11.23828-.55078l1.23828 6.91797m-1.0586-5.91016l.96485-.75781m10.1914.84375l5.19532 4.73047m-4.4414-4.04297l.30468-1.1875m11.7461 1.22656l6.21484 3.27734m12.44922-4.34375l-4.48047 5.41016m19.05078-2.34766l-6.99219-.71484m5.97266.61328l.46484 1.13672m13.54688.11719l-6.34766-3.01953m19.73047.15234l-6.48438 2.71484m5.53907-2.3203l.95312.77733m13.53125-.3828l-6.9336 1.13671m5.92579-.97265l.7461.97656m13.35937.76953l-6.4961-2.6836m19.10157-1.08984l-5.07422 4.86328m18.40625-.01953l-5.10938-4.82422"/><g clip-path="url(#F)"><path fill="none" stroke="#000" stroke-linecap="round" stroke-linejoin="round" stroke-miterlimit="10" stroke-width=".5" d="M146.91406 451.73438l-5.82812 3.92968"/></g><path fill="none" stroke="#000" stroke-linecap="round" stroke-linejoin="round" stroke-miterlimit="10" stroke-width=".5" d="M146.91406 451.73438l2.16406 1.15234m11.04297-1.30078l-5.61328 4.22656m5.61328-4.22656l2.22266 1.03515m11.01953-1.1289l-5.46875 4.41406m5.46875-4.41406l2.25781.96484m11.53516-.1836l-6.42188 2.84766m6.42188-2.84765l1.9336 1.51562m11.68359-.1289l-7.02735.07812m6.00391-.0664l.58984 1.07421m13.39844.48047l-6.32812-3.0586m5.40625 2.61329l.05078 1.22656m14.52734-2.0586l-7.00781-.5m5.98828.42579l.4961 1.125m13.35937-3.08984l-6.04688 3.57812m5.16407-3.0586l1.05078.63673m13.51562-.26954l-6.78906 1.8047m5.80469-1.54298l.83203.89844m12.65625 2.125l-5.16406-4.76562m4.41015 4.07421l-.3086 1.1836m14.98438-1.40625l-6.3789-2.9414m5.45312 2.51562l.07031 1.22265m14.23438-.9375l-6.50781-2.65625m5.5625 2.26953l.1211 1.21875m11.91015-2.16015l-.01953-.19922-.0586-.1914-.09375-.1797-.46094-.375-.1914-.05859-.19922-.01953-.19922.01953-.1914.0586-.46094.375-.09375.17968-.0586.19141-.01953.19922.01953.19922.0586.1914.09375.17578.46093.37891.19141.0586.19922.01953.19922-.01954.1914-.05859.46094-.3789.09375-.17579.0586-.1914.01953-.19922m12.85156-3.46875l-1.11719 6.9375m.95313-5.92969l1.16015-.39453m13.22657-.33594l-2.9375 6.38281m2.51171-5.45312l1.22266-.07031m12.82813-.69922l-3.5547 6.0625m3.03516-5.17969l1.22657.05078m14.2461 1.26953l-6.83204 1.65235m18.91797-3.57422l-4.375 5.5m3.73828-4.69922l1.20703.22266m11.45703-1.67188l-1.79687 6.79297m10.77734-4.13281l6.8711 1.47656m11.7539 2.23437l-3.7461-5.9453m18.32423 1.39452l-6.27735 3.15625m5.36328-2.69922l1.00391.71094m10.58594 3.88672l-.9961-6.95703m.85157 5.94531l-.9922.72266m13.98048.32422l-.05469-7.02735m14.83203 6.69922l-2.97656-6.36719m2.54297 5.44141l-.73828.98047"/><g clip-path="url(#G)"><path fill="none" stroke="#000" stroke-linecap="round" stroke-linejoin="round" stroke-miterlimit="10" stroke-width=".5" d="M147.09375 438.71875l-6.1875 3.32813"/></g><path fill="none" stroke="#000" stroke-linecap="round" stroke-linejoin="round" stroke-miterlimit="10" stroke-width=".5" d="M147.09375 438.71875l2.04297 1.36328m11.20703-1.47656l-6.0586 3.55469m6.0586-3.5547l2.08984 1.28517m11.60157-.37891l-6.8086 1.7461m5.8164-1.4922l.82813.90625m13.48828-1.11718l-6.82812 1.65625m5.83594-1.41407l.8125.91797m13.48047.5547l-6.80078-1.77345m5.8125 1.51563l.28125 1.19531M214 441.17578l-6.84766-1.58594m5.85157 1.35547l.3164 1.1875m14.03516-1.17187l-6.92969-1.15625m5.92188.98828l.39062 1.16406m13.9414-1.05469l-6.94921-1.03906m5.9375.88672l.41016 1.15625m13.9453-1.82031l-7.0039.59375m7.0039-.59375l1.32813 2.0625m11.98438-2.07422l-7 .61719m7-.6172l1.33594 2.0547m11.98828-1.91016l-7.01953.32813m7.01953-.32813l1.2539 2.11328m12.05078-2.26953l-6.99609.64063m20.28516.21484l-6.94532-1.07031m5.9336.91406l.40625 1.16015m13.89062-.83593l-6.88672-1.40235m5.88282 1.19922l.35156 1.17578m13.46484-3.60156l-5.8789 3.85156m5.02343-3.28906l1.07422.58984m13.29688-.79687l-6.28516 3.14063m5.3711-2.6836l1 .71094m12.17578-2.42188l-4.17578 5.65235m3.5664-4.83203l1.21485.17968m12.1953-1.3164l-3.14843 6.28125m3.14844-6.28125l2.45312-.0586m9.6875-.28906l-.79687 6.98047m.67969-5.96484l1.14453-.44922m9.79297.10156l4.1914 5.64063m-4.1914-5.64063l1.05078-2.21484m10.85156 4.83984l7.01562.39453m-7.01562-.39453l-1.02734-2.23047m20.91015.69922l-6.11719 3.45313m5.22657-2.94922l1.03515.66015m12.90625 2.6914l-5.58984-4.2578m4.77734 3.63672l-.19922 1.21093m14.16016-.38672l-5.25781-4.66015m4.49219 3.98047l-.28516 1.1914m15.1836-2.15625l-6.89063-1.3711"/><g clip-path="url(#H)"><path fill="none" stroke="#000" stroke-linecap="round" stroke-linejoin="round" stroke-miterlimit="10" stroke-width=".5" d="M146.78516 424.92578l-5.57032 4.28516"/></g><path fill="none" stroke="#000" stroke-linecap="round" stroke-linejoin="round" stroke-miterlimit="10" stroke-width=".5" d="M146.78516 424.92578l2.23437 1.01563m-3.04687-.39063l1.11718.50781m12.66797-1.51562l-4.88672 5.05078m4.88672-5.05078l2.35938.67969m10.91015-.72266l-4.79297 5.13672m4.09375-4.39063l1.1875.31641m13.76954.41797l-6.6797 2.17578m20.15235-1.41797l-6.9961.66016m5.98048-.5625l.67187 1.02344m13.38281.61328l-6.4414-2.8086m5.5039 2.40235l.09375 1.22265m12.08985 1.09766l-2.30469-6.63672m11.19531 4.60547l6.54297-2.57422m-5.58984 2.19922l-.9336-.79688m16.40235 3.39454l.33203-7.01954m-.28516 6l-1.10937.52344m17.94531-2.14062l-6.80469-1.7461m5.81641 1.49219l.28906 1.1914m13.98438-2.78906l-6.7461 1.96094m6.7461-1.96094l1.71093 1.75782m11.47657.5664l-6.48828-2.6914m6.48828 2.6914l.23437 2.44532m13.34766-3.91797l-7.02344.2539m7.02344-.2539l1.22656 2.125m11.88672-3.17578l-6.6211 2.35546m5.65626-2.01172l.90625.82422m13.20312-1.5664l-6.27734 3.15234m5.36328-2.69531l1 .71094m13.26953-1.08594l-6.35938 2.98828m6.35938-2.98828l1.96484 1.47265m11.29688-1.58203l-6.2539 3.20703m6.2539-3.20703l2.01172 1.39844m9.71093-2.95312l-3.0703 6.3164m3.0703-6.3164l2.45313-.08985m9.57031-.25781l-.48828 7.01172m.48828-7.01172l2.24219-.9961m9.96484 1.09766l1.73047 6.8086m-1.73047-6.8086l1.81641-1.65234m9.17578 3.58203l6.3789 2.94922m-5.45312-2.51953l-.0664-1.22266m18.82421.76953l-6.35937 2.9961m5.4336-2.5586l.98046.73438m11.3086-2.96485l-2.45704 6.58203m2.09766-5.625l1.21875-.16015m12.85156 5.60937l-3.25-6.23047m2.77735 5.32422l-.69532 1.01172m14.10938.0625l-2.5-6.5664"/><g clip-path="url(#I)"><path fill="none" stroke="#000" stroke-linecap="round" stroke-linejoin="round" stroke-miterlimit="10" stroke-width=".5" d="M146.76563 411.58984l-5.53125 4.32813"/></g><path fill="none" stroke="#000" stroke-linecap="round" stroke-linejoin="round" stroke-miterlimit="10" stroke-width=".5" d="M146.76563 411.58984l2.24218.9961m-3.04687-.36719l1.1211.4961m12.89062-1.25782l-5.31641 4.59375m5.3164-4.59375l2.28907.88672m-3.0625-.21875l1.14453.44531m13.20703-.77344l-5.83984 3.91016m4.98828-3.33984l1.08203.57812m13.22266 2.53907l-6.1172-3.46094m5.22657 2.95703l-.03125 1.22656m13.45313.22656l-4.54688-5.35937m3.88281 4.57812l-.45312 1.14063m12.03516.47266l.24609-7.02344m-.21094 6l-1.10547.53906m11.33985-1.51172l6.33593-3.03515m10.16016 5.03125l-.02344-7.02735m.01953 6.00781l-1.08203.57813m14.72266.42578l-.66797-6.9961m.66797 6.9961l-2.05078 1.35156m14.67969-1.35156l.69921-6.99219m-.69922 6.99219l-2.26953.92969M280.5 414.8125l-6.69922-2.11719m20.17578 1.17188l-7.02343-.22656m6.0039.1914l.53906 1.10156m13.71875-.43359l-6.86718-1.49219m5.86718 1.27344l.33204 1.1836m13.22656-3.98829l-5.35547 4.55469m4.57422-3.89062l1.14062.44921m13.40625-.43359l-6.25781 3.19531m6.25781-3.19531l2.01172 1.40625m11.32422-1.3711l-6.29687 3.1211m6.29687-3.1211l1.99219 1.4297m11.15234-1.73438l-5.95703 3.73047m5.08984-3.1875l1.0625.61328m12.54688-1.85156l-4.8086 5.125m4.8086-5.125l2.36719.64453m9.4414-1.48047l-1.80078 6.79297m1.80078-6.79297l2.39063-.55469m9.91797.4414l.21484 7.02345m-.21484-7.02344l2.1289-1.21875m-2.09765 2.23828l1.0625-.60938m12.74218-.38671l-.82421 6.97656m.82421-6.97656L413 409.375m10.67578.86719l-.1211 7.02344m.1211-7.02344l2.1875-1.11719m-2.20312 2.13672l1.08984-.55469m10.94922-.2461l2.46484 6.58204m-2.46484-6.58203l1.625-1.83594m10.29687 2.79297l5.25 4.67187m-5.25-4.67187l.58204-2.38672m11.91796 5.4375L467 413.03906m-5.8789 1.22266l-.78126-.94531"/><g clip-path="url(#J)"><path fill="none" stroke="#000" stroke-linecap="round" stroke-linejoin="round" stroke-miterlimit="10" stroke-width=".5" d="M146.64844 398.1289l-5.29688 4.6172"/></g><path fill="none" stroke="#000" stroke-linecap="round" stroke-linejoin="round" stroke-miterlimit="10" stroke-width=".5" d="M146.64844 398.1289l2.29297.875m10.94922-.95702l-5.15235 4.78125m5.15234-4.78125l2.31641.80468m10.54688-1.21094l-4.25 5.59375m3.6328-4.78125l1.21095.19922m13.89843 2.98438l-6.60156-2.39844m5.64063 2.05078l.17187 1.21485m10.4414 1.42968l.72266-6.98828m-.61718 5.97266l-1.13672.46094m12.58984-.13672l4.23828-5.60547m-4.23828 5.60547l-2.42187-.38672m16.89062.96094l1.92969-6.75782m-1.64844 5.77735l-1.19922.2539m15.76953.81641l-1.14453-6.9336m1.14453 6.9336l-1.94922 1.48828m15.03907-1.46094l-.69531-6.99218m.6953 6.99218l-2.04296 1.36329m1.9414-2.37891l-1.01953.67969m14.69922.30078l-1.21875-6.92188m1.21875 6.92188l-1.9336 1.51172m14.23438-1.48047l.8086-6.98047m-.6914 5.96484l-1.14063.44531m18.17187-2.16015l-6.85937-1.52344m16.88671 4.27344l-.28125-7.02344m.23829 6l-1.0586.6211m10.8164-2.48829l6.91798-1.24218m-5.91016 1.0625l-.75781-.96485m18.9961-1.97265l-4.94532 4.99218m4.22656-4.26562l1.17578.35547m12.63672-1.28125l-4.5039 5.39453m4.5039-5.39453l2.40235.5039m10.9414-.48437l-4.5586 5.35156m3.89454-4.57031l1.19922.26172m13.89062.71094l-6.78125 1.84375m5.79688-1.57422l.83984.89453m12.1875-3.04688l-4.23437 5.60938m4.23437-5.60938l2.42188.38672m-3.03907.42969l1.21094.19531m10.53906-1.71875l.12891 7.02735m-.1289-7.02735l2.14453-1.1914m13.84765 2.35546l-5.22656 4.69922m4.46484-4.01562l1.15235.41797m11.3086-2.1211l-1.9922 6.73828m1.70313-5.7578l1.19922-.2461m10.60937-.78906l1.59766 6.84375m-1.59766-6.84375l1.84766-1.61329M448.32422 397.5l3.84765 5.8789m-3.84765-5.8789l1.17969-2.15234m10.54296 5.14843l7.02735-.11328m-7.02735.11328l-1.18359-2.14843"/><g clip-path="url(#K)"><path fill="none" stroke="#000" stroke-linecap="round" stroke-linejoin="round" stroke-miterlimit="10" stroke-width=".5" d="M147.25781 385.80469l-6.51562 2.63672"/></g><path fill="none" stroke="#000" stroke-linecap="round" stroke-linejoin="round" stroke-miterlimit="10" stroke-width=".5" d="M146.3086 386.1875l.9414.78906m13.48047-.67578l-6.83203 1.64453m5.83984-1.40625l.8125.91797m8.76563-3.59375l2.625 6.51953m-2.625-6.51953l1.58203-1.8789m10.4336 2.78906l5.22655 4.69922m-5.22656-4.69922l.58984-2.3789m11.83204 4.92577l7.01562-.39453m-7.01562.39453l-1.27344-2.10156m14.65625 1.17969l6.875 1.44922m-6.875-1.44922l-.67969-2.35547m15.29688 5.8711l4.27343-5.57813m-4.27343 5.57812l-2.42188-.40625m17.67578 1.125l.39453-7.01562m-.39453 7.01562l-2.23047 1.02735m2.28907-2.05079l-1.1172.51563m13.92579.45313l1.28906-6.91016m-1.28906 6.91015l-2.33984.73438m15.94922-.6914l.69921-6.9922m-.69922 6.9922l-2.26953.92968m16.94532-1.0625l-2.01954-6.73047m2.01954 6.73047l-1.7422 1.72656m15.38282-1.84375l-2.67187-6.49609m2.67187 6.4961l-1.5625 1.89062m12.40625-1.8125l2.27344-6.65235m-1.9414 5.6836l-1.21094.19531m13.54296.47266l3.57422-6.05078m15.02735 2.6953l-6.9961.66017m5.97657-.5625l.67578 1.02343m13.23047-2.5l-6.14063 3.41797m6.14063-3.41797l2.05859 1.33203m10.29687-2.42968l-4.22265 5.61328m3.60937-4.79688l1.21094.1914m13.08984-.68358l-4.96875 4.96875m4.96875-4.96875l2.34766.71484m9.92578-1.4375l-2.88281 6.41015m2.88281-6.41015l2.44922-.16016m8.9375-.11328l.97266 6.95703m-.97266-6.95703l1.98828-1.4414m11.19531 1.46093l1.23438 6.91797m-1.23438-6.91797l1.9297-1.51562m12.85546 1.5664l-1.70312 6.81641m1.45312-5.82422l1.1914-.29687m11.21485-.78516l.61328 7m-.61328-7l2.0586-1.33984m11.43359 1.32812l.26172 7.01953m-.26172-7.01953l2.1211-1.23437m-2.08595 2.2539l1.0625-.61328m12.15625-.40625l.37891 7.01953m-.32422-5.9961l1.05078-.6328"/><g clip-path="url(#L)"><path fill="none" stroke="#000" stroke-linecap="round" stroke-linejoin="round" stroke-miterlimit="10" stroke-width=".5" d="M147.10938 372.17578l-6.21875 3.26563"/></g><path fill="none" stroke="#000" stroke-linecap="round" stroke-linejoin="round" stroke-miterlimit="10" stroke-width=".5" d="M147.10938 372.17578l2.02734 1.38281M158 370.3633l-1.3711 6.89062m13.70313-6.94532l.59375 7m-.59375-7l2.0625-1.33203m-1.97266 2.34766l1.02735-.66406m13.90234-.07032l-2.8125 6.4375m2.8125-6.4375l2.44531-.1914m8.38672.0664l2.15625 6.6875m-2.15625-6.6875l1.70703-1.76171m13 1.60546l-.6289 7m.6289-7l2.25782-.95312m-2.35156 1.97265l1.1328-.47656m13.56641-.16797l-3.21093 6.25m3.21093-6.25l2.45313-.03515m-2.92188.94531l1.22657-.01953m14.11328 3.76562l-6.32422-3.0625m6.32422 3.0625l.09375 2.44922m-1.01172-2.89453l.04687 1.22656m14.26172-.94921l-6.47656-2.72657m6.47656 2.72656l.22266 2.44532m12.91016-5.54688l-6.10938 3.47656M266 372.57423l1.03516.65625m8.05859 3.42578l4.11328-5.69531m-4.11328 5.69531l-2.42969-.33594m17.78125 1l.03906-7.02734m-.03906 7.02734l-2.17187 1.14063m16.78125-1.3789l-2.54688-6.55079m2.17578 5.59766l-.80078.92968m16.71875-3.03906l-7.01172-.42187m7.01172.42187L321.625 376.25m12.30078-2.375l-7.02734-.13281m7.02734.13281l1.10938 2.1875m12.125-2.99219l-6.8711 1.47266m5.8711-1.25781l.79296.9414m13.41407-1.55078l-6.65235 2.26563m6.65235-2.26563l1.78906 1.67969m11.61328-1.375l-6.82812 1.65625m5.83593-1.41797l.81641.91797m11.45703-3.5586l-2.75781 6.46094m2.35547-5.52344l1.22265-.10546m13.73047.05468l-5.23047 4.6875m5.23047-4.6875l2.30469.84375m11.0625-.78906l-5.33203 4.57813m5.33203-4.57813l2.28516.89453m11.05859-.85937l-5.39063 4.50781m15.95313-5.76563l.11328 7.02344m-.11328-7.02344l2.14844-1.1875m13.17969 1.78125l-3.91407 5.83594m3.91406-5.83594l2.44141.25m-3.00781.59766l1.21875.1289m13.01953-.70312l-4.6289 5.28906"/><g clip-path="url(#M)"><path fill="none" stroke="#000" stroke-linecap="round" stroke-linejoin="round" stroke-miterlimit="10" stroke-width=".5" d="M465.875 371.16406l2.39063.5586"/></g><g clip-path="url(#N)"><path fill="none" stroke="#000" stroke-linecap="round" stroke-linejoin="round" stroke-miterlimit="10" stroke-width=".5" d="M145.94531 357.5664l-3.89062 5.85157"/></g><path fill="none" stroke="#000" stroke-linecap="round" stroke-linejoin="round" stroke-miterlimit="10" stroke-width=".5" d="M145.94531 357.5664l2.4414.2422m6.70313-.03516l4.44922 5.4414m-3.80078-4.65234l.47266-1.1289m14.8789-.42188l-.91797 6.96484m.91797-6.96484l2.30078-.85938m-2.43359 1.8711l2.29688-.85938m12.10156.10938l-2.82031 6.4375m2.8203-6.4375l2.44532-.1836m-2.85547 1.1211l1.22266-.09375m11.55078-1.10547l-.91797 6.96484m.91797-6.96484l2.30078-.85938m8.65625 1.38282l3.79688 5.91406m-3.79688-5.91406l1.19922-2.13672m13.41016 1.63281l1.21093 6.92188m-1.21093-6.92188l1.93359-1.50781m14.51172 2.52344l-5.04688 4.89062m5.04688-4.89063l2.33203.75391m11.9414 2.14453l-6.96874-.90625m5.95703.77735l.42969 1.14843m9.73046-4.91796l1.3672 6.89453m9.33202-2.2422l6.59766-2.41405m-5.63672 2.0625l-.91406-.82032m16.8789 3.46485l-.625-7m.625 7l-2.05468 1.33984m17.53125-2.34375l-4.94532-4.99219m4.94532 4.9922l-.73047 2.34374m15.0625-4.41797l-6.97657-.83984m6.97657.83984l.88281 2.28906m11.86719-4.66015l-5.84766 3.89844m5.84766-3.89844l2.16015 1.16406m11.73828.98828l-7.01562-.40234m5.9961.34375l.51171 1.11328m13.7539-.54297l-6.8789-1.42969M359.48046 361l.34376 1.17969m13.94922-2.5l-6.83594 1.625m5.84375-1.38672l.8086.92187m13.1875-1.99218l-6.21094 3.28906m5.30468-2.8086l1.01953.6875m12.9922-1.5078l-5.79298 3.97265m5.79297-3.97266l2.17578 1.13672m11.12891-1.15234l-5.77344 4.0039m4.9336-3.42187l1.08984.5625m13.28516-.78906l-6.21094 3.28906m5.30469-2.8086l1.01953.6875m12.4414-2.13671l-4.6914 5.23046m4.6914-5.23046l2.38282.58984m11.79296.58594l-6.41015 2.8789m6.41015-2.8789l1.9375 1.5039m-2.87109-1.08593l.96875.7539m13.45313-.6875l-6.76172 1.91016"/><g clip-path="url(#O)"><path fill="none" stroke="#000" stroke-linecap="round" stroke-linejoin="round" stroke-miterlimit="10" stroke-width=".5" d="M466.9414 359.53906l1.69923 1.77344"/></g><path fill="none" stroke="#000" stroke-linecap="round" stroke-linejoin="round" stroke-miterlimit="10" stroke-width=".5" d="M465.96094 359.8164l1.69531 1.77344"/><g clip-path="url(#P)"><path fill="none" stroke="#000" stroke-linecap="round" stroke-linejoin="round" stroke-miterlimit="10" stroke-width=".5" d="M146.41406 344.625l-4.82812 5.10547"/></g><path fill="none" stroke="#000" stroke-linecap="round" stroke-linejoin="round" stroke-miterlimit="10" stroke-width=".5" d="M146.41406 344.625l2.36328.64844m8.50391-1.60938l.0664 7.02735m-.0664-7.02735l2.15625-1.17187m11.42578 1.17969l-.46484 7.01171m.46484-7.01171l2.23438-1.00782m-2.3047 2.02735l1.1211-.50391m11.94922-.52344l.16406 7.02735m-.16406-7.02735l2.14063-1.19922m-2.1172 2.22266l1.07032-.60156m10.19531.28125l4.21485 5.6211m-4.21485-5.6211l1.04297-2.22266m13.42969 1.65235l1.89844 6.76562m-1.89844-6.76563l1.77344-1.6953m9.00781 4.63671l6.96875.8789m-6.96875-.8789l-.875-2.29297m1.88672 2.42188l-.4336-1.14844m15.32813-1.9375l1.78516 6.79688m-1.52735-5.8086l.90235-.83203m15.71093 5.53125l-5.32812-4.58203m4.55469 3.91797L252.14063 350m9.26953-5.36719l4.84765 5.08985m-4.14062-4.34766l.38672-1.16406m18.08593 3.69531l-6.875-1.45703m6.875 1.45703l.67579 2.35938m-1.6797-2.57032l.33985 1.17969m13.76172-.29297l-6.4414-2.8086m6.4414 2.8086l.1875 2.44531m-1.125-2.85546l.1875 2.44921m14.28516-2.73828l-6.88282-1.41015m6.88282 1.41015l.6914 2.35547m-1.6914-2.5586l.34375 1.17579m14.01953-1.25781l-6.97656-.83985m6.97656.83985l.88281 2.28906m12.16797-4.10156l-6.44922 2.78515m5.51172-2.3789l.95703.76562m13.23438-1.3086l-6.32813 3.0586m6.32813-3.0586l1.98046 1.44923m11.67579.28906l-7.01172-.41797m5.99218.35938l.51172 1.11328m13.82813-1.40625l-7.02344.28515m6-.24219l.6211 1.0586m13.71093-.69922l-7.00781-.51953m7.00781.51953l.98828 2.2461m12.1914-3.50391l-6.73827 1.9961m6.73828-1.9961l1.71875 1.75m11.05078-2.84375l-5.64453 4.1836m5.64453-4.1836l2.21484 1.05469m-3.03906-.44532l1.10938.52735m12.60937-1.60938l-4.80469 5.1289m4.8047-5.1289l2.36718.64063m-3.0664.10546l1.18359.32032m12.375-1.42578l-3.89454 5.84765m3.32813-4.9961l1.22266.1211m13.49218-.19922l-5.55859 4.30079m5.5586-4.30079l2.23437 1.01172m11.50781-.29687l-6.41406 2.8711"/><g clip-path="url(#Q)"><path fill="none" stroke="#000" stroke-linecap="round" stroke-linejoin="round" stroke-miterlimit="10" stroke-width=".5" d="M466.76953 345.74219l1.9375 1.50781"/></g><path fill="none" stroke="#000" stroke-linecap="round" stroke-linejoin="round" stroke-miterlimit="10" stroke-width=".5" d="M465.83594 346.16016l.96875.7539"/><g clip-path="url(#R)"><path fill="none" stroke="#000" stroke-linecap="round" stroke-linejoin="round" stroke-miterlimit="10" stroke-width=".5" d="M147.23438 332.49219l-6.46875 2.74219"/></g><path fill="none" stroke="#000" stroke-linecap="round" stroke-linejoin="round" stroke-miterlimit="10" stroke-width=".5" d="M147.23438 332.49219l1.90625 1.54687m10.70312-2.61328l-5.0586 4.875m5.0586-4.875l2.33203.75781m10.64844-1.0625l-4.39063 5.48438m4.39063-5.48438l2.41406.45313m9.61719-1.10547l-1.82031 6.78906m1.8203-6.78906l2.39063-.55078m-2.65625 1.53906l1.19532-.27734m14.17187.42969l-5.39453 4.5039m5.39453-4.5039l2.27344.92578m9.16406-2.08985l-1.63672 6.83594m1.63672-6.83594l2.375-.61328m8.125 1.13672l3.99219 5.78516m-3.41016-4.94141l.5625-1.08984m10.78516 4.08984l6.76562-1.89844m-6.76562 1.89844l-1.69531-1.77734m21.86328 1.36718l-6.94531-1.07812m5.93359.92187l.40625 1.15625m13.90234-2.1875l-6.90625 1.29688m6.90625-1.29688l1.53125 1.91797m11.65625-.13672l-6.65234-2.26562m6.65234 2.26562l.39063 2.42188m-1.35938-2.75l.39453 2.42187m14.07813-3.27343l-7.02735.09375m7.02735-.09375l1.17969 2.15234m-2.20313-2.13672l.58984 1.07422m13.60157-2.04688l-6.73438 2.00782m6.73438-2.00781l1.72265 1.74609m10.69532-3.24219l-4.94141 4.9961m4.9414-4.9961l2.35157.70703m-3.07031.02344l1.17578.35156m12.64843-1.27344l-4.51953 5.38282m4.51953-5.38281l2.39844.51171m-3.0586.27344l1.20313.2539m13.98828 1.14063L340.25 334.375m5.9414-.875l.72657.98828m13.60156-1.1289l-6.95703 1.0078m6.95703-1.0078l1.44922 1.98046m10.55469 1.28907l-4.33594-5.53125m4.33594 5.53125l-.99219 2.24218m15.27344-3.42187l-6.26953-3.17578m6.26953 3.17578l.05078 2.45312m13.29297-2.5078l-6.32422-3.0625m5.40625 2.61718l.04687 1.22265m14.50782-2.7578l-6.96875.89452m5.95703-.76171l.70703 1m12.92969-2.8125l-5.58985 4.2578m5.58985-4.2578l2.23046 1.02734m-3.04296-.40625l1.11718.51172m13.03125-1.10547l-5.6328 4.20312m5.6328-4.20312l2.21875 1.04687m-3.03515-.43359l1.10937.52344m13.54688-.1211l-6.67969 2.17188m6.67969-2.17188l1.76562 1.70313m-2.73437-1.38672l.88281.85156m13.35937-1.29687l-6.59375 2.42969"/><g clip-path="url(#S)"><path fill="none" stroke="#000" stroke-linecap="round" stroke-linejoin="round" stroke-miterlimit="10" stroke-width=".5" d="M466.85938 332.64844l1.82812 1.63672"/></g><path fill="none" stroke="#000" stroke-linecap="round" stroke-linejoin="round" stroke-miterlimit="10" stroke-width=".5" d="M465.89844 333.0039l.91406.81641"/><g clip-path="url(#T)"><path fill="none" stroke="#000" stroke-linecap="round" stroke-linejoin="round" stroke-miterlimit="10" stroke-width=".5" d="M146.86328 318.51172l-5.72656 4.07031"/></g><path fill="none" stroke="#000" stroke-linecap="round" stroke-linejoin="round" stroke-miterlimit="10" stroke-width=".5" d="M146.03125 319.10547l1.09766.54687m12.13672-2.02734l-3.90235 5.84766m3.90234-5.84766l2.44141.2461m10.64063-.38673l-3.4375 6.12891m3.4375-6.1289l2.45312.05468m10.64063-.16797l-2.9922 6.35547m2.9922-6.35547l2.45312-.12109m10.82031.10156l-2.91015 6.39453m2.91015-6.39453l2.44922-.15234m10.23828-.0664l-1.65625 6.82812m1.65625-6.82813l2.37891-.60937m-2.61719 1.60156l1.1875-.30078m12.22266-.72266l-1.36719 6.89453m1.16797-5.89062l1.17188-.35547m9.46093 5.53906l4.39453-5.48047m-3.7539 4.6836l-1.20703-.23047m15.95312 1.79687l.2539-7.02343m-.2539 7.02343l-2.20703 1.07422m17.90234-1.89062l-4.5078-5.39063m4.5078 5.39063l-.92187 2.27344M280.5 321.60546l-6.69922-2.11328m6.69922 2.11328l.44922 2.41015m12.96484-2.80078l-6.89844-1.33593m6.89844 1.33593l.71875 2.34766m-1.72265-2.53906l.35937 1.17187m14.01172-1.33984l-7-.61719m7 .61719l.95703 2.26172m-1.97656-2.35156l.48047 1.1289m12.85937-3.8086l-5.01172 4.92579m5.01172-4.92578l2.33985.73437m-3.07032-.01953l1.17188.36719m12.33984-1.52735l-3.9414 5.81641m3.9414-5.8164l2.4375.26171m-3.01172.58204l1.21875.1328m13.27344-.46093l-5.14844 4.78516m5.14844-4.78516l2.3164.80078m10.89063-.91406l-4.9336 5.00781m4.21485-4.27734l1.17578.34765m13.60157 2.85547l-6.42188-2.85547m5.48828 2.4375l.08594 1.22657M387 321.67187l-6.65625-2.24609m5.6875 1.91797l.19922 1.21094m10.41406 1.48828l.6836-6.99219m-.58594 5.97656l-1.13282.46875m12.25-.42187l4.88282-5.05078m-4.17188 4.3164L407.39062 322m16.91016-4.89844l-1.3711 6.89063m17.4297-4.21875l-6.85547 1.55078M439.35937 320l.8047.92578M453.40233 319l-6.30859 3.09766M453.40235 319l1.98827 1.4375m-2.90625-.98828l.9922.71875m13.42187-.72266l-6.67188 2.20703"/><g clip-path="url(#U)"><path fill="none" stroke="#000" stroke-linecap="round" stroke-linejoin="round" stroke-miterlimit="10" stroke-width=".5" d="M466.89844 319.44531l1.77344 1.69531"/></g><path fill="none" stroke="#000" stroke-linecap="round" stroke-linejoin="round" stroke-miterlimit="10" stroke-width=".5" d="M465.92578 319.76563l1.77344 1.6953"/><path fill="#ff3030" fill-rule="evenodd" d="M180.33203 463.21094h7.6914V453.0625h-7.6914v10.14844"/><path fill="azure" fill-rule="evenodd" d="M182.16406 454.89844h.83203v5.73828h3.19532v.74219h-4.02735v-6.48047"/><path fill="#00f" fill-rule="evenodd" d="M326.10156 463.21094h8.61719V453.0625h-8.61719v10.14844"/><path fill="azure" fill-rule="evenodd" d="M327.9336 454.89844h.83593v2.82031h3.28516v-2.82031h.83203v6.48047h-.83203v-2.91797h-3.28516v2.91797h-.83594v-6.48047"/><path fill="#00f" fill-rule="evenodd" d="M388.23828 432.14063h8.61719v-10.14454h-8.61719v10.14454"/><path fill="azure" fill-rule="evenodd" d="M390.07031 423.82813h.83594v2.82421h3.28516v-2.82421h.83203v6.48046h-.83203v-2.91796h-3.28516v2.91796h-.83594v-6.48046"/><path fill="#00f" fill-rule="evenodd" d="M246.21094 427.70313h8.61719v-10.14454h-8.6172v10.14454"/><path fill="azure" fill-rule="evenodd" d="M248.04297 419.39063h.83594v2.82421h3.28515v-2.82421h.83203v6.48046h-.83203v-2.91796h-3.28515v2.91796h-.83594v-6.48046"/><path fill="#ff3030" fill-rule="evenodd" d="M344.55078 409.94922h7.6914v-10.14453h-7.6914v10.14453"/><path fill="azure" fill-rule="evenodd" d="M346.38281 401.63672h.83203v5.73828h3.19532v.74219h-4.02735v-6.48047"/><path fill="#00f" fill-rule="evenodd" d="M370.48438 396.63281h8.62109v-10.14453h-8.6211v10.14453"/><path fill="azure" fill-rule="evenodd" d="M372.3164 388.32031h.83594v2.82422h3.28516v-2.82422h.83203v6.48047h-.83203v-2.91406h-3.28516v2.91406h-.83593v-6.48047"/><path fill="#ff3030" fill-rule="evenodd" d="M202.52344 370.0039h7.6914v-10.14452h-7.6914v10.14453"/><path fill="azure" fill-rule="evenodd" d="M204.35547 361.6914h.83203v5.73829h3.19531v.74219h-4.02734v-6.48047"/><path fill="#ffffe0" fill-rule="evenodd" d="M328.42969 338.57813h22.17969v-10.19141h-22.1797v10.1914"/><path fill-rule="evenodd" d="M331.92969 330.21875h.50781v6.29297h-.78516v-4.48828h-1.39062v-.55469l.5586-.0664.2539-.0547.23047-.08984.20312-.14062.17188-.21094.14453-.29297.10547-.39453m4.8125 0l.23047.01953.21875.05469.20703.08984.19531.1211.1836.14843.17187.17579.30469.41796.24218.4961.1797.54687.10937.57813.03906.58984-.03906.59375-.10938.58594-.17969.55078-.24218.5039-.3047.4297-.17187.17968-.18359.15235-.19531.12109-.20703.09375-.21875.0586-.23047.01952-.23047-.01953-.21875-.0586-.20703-.09374-.19531-.1211-.1836-.15234-.17187-.17969-.3047-.42968-.24218-.50391-.17969-.55078-.10937-.58594-.03906-.59375h.83203l.02734.5625.08203.50781.1289.44141.16017.375.1914.30078.21094.22266.22265.13672.22657.04687.22656-.04687.22266-.13672.21093-.22266.19141-.30078.16016-.375.1289-.4414.07813-.50782.03125-.5625-.03125-.5586-.07813-.5039-.1289-.4336-.16016-.36718-.1914-.28906-.21094-.21485-.22266-.1328-.22656-.04298-.22656.04297-.22266.13281-.21094.21485-.1914.28906-.16016.36719-.1289.4336-.08204.5039-.02734.5586h-.83203l.03906-.58985.10937-.57813.1797-.54687.24218-.4961.30469-.41796.17187-.17579.1836-.14843.1953-.1211.20704-.08984.21875-.05469.23047-.01953m5.08984 0h.51172v6.29297h-.78906v-4.48828h-1.38672v-.55469l.5586-.0664.2539-.0547.22656-.08984.20313-.14062.17578-.21094.14062-.29297.10547-.39453m2.82422 2.17578h.78906l.01953-.3164.0586-.28907.09765-.25.14063-.21484.17969-.17578.22656-.1289.26172-.07813.3086-.02735.23827.01953.22266.0625.20703.10157.17969.13671.14844.17579.11328.20312.0703.23828.02345.26563-.01954.26562-.0664.22656-.10938.19141-.15625.17188-.19921.16015-.25.16797-.63282.38672-.53515.3164-.4375.31641-.34766.32422-.26563.33594-.1875.35156-.125.36719-.0703.39453-.01954.41797h4.21094v-.73828h-3.33203l.08203-.28516.11328-.23828.14844-.19922.1875-.17969.23047-.17187.27734-.17578.71875-.41797.41406-.20313.34766-.23437.28125-.25.21875-.26563.16406-.27734.10938-.28516.0664-.28515.01953-.28125-.04296-.38281-.1211-.34766-.1875-.3086-.25-.26171-.30469-.21485-.34375-.15625-.3828-.10156-.40626-.03125-.4336.03125-.39843.09766-.35547.16796-.30469.23438-.24609.30469-.1875.375-.11719.44531-.03906.51953"/></g></defs><use xlink:href="#V"/></svg>