<svg xmlns="http://www.w3.org/2000/svg" role="img" xmlns:xlink="http://www.w3.org/1999/xlink" viewBox="142.45 309.95 326.84 171.84"><defs><clipPath id="a"><path d="M144 311.67188h1v168.65625h-1zm0 0"/></clipPath><clipPath id="b"><path d="M144 311.67188h324v168.65625H144zm0 0"/></clipPath><clipPath id="c"><path d="M293 479h4v1.32813h-4zm0 0"/></clipPath><clipPath id="d"><path d="M467 311.67188h1v168.65625h-1zm0 0"/></clipPath><clipPath id="e"><path d="M144 478h4v2.32813h-4zm0 0"/></clipPath><clipPath id="f"><path d="M153 478h8v2.32813h-8zm0 0"/></clipPath><clipPath id="g"><path d="M167 477h7v3.32813h-7zm0 0"/></clipPath><clipPath id="h"><path d="M180 478h8v2.32813h-8zm0 0"/></clipPath><clipPath id="i"><path d="M193 478h8v2.32813h-8zm0 0"/></clipPath><clipPath id="j"><path d="M207 478h8v2.32813h-8zm0 0"/></clipPath><clipPath id="k"><path d="M220 478h8v2.32813h-8zm0 0"/></clipPath><clipPath id="l"><path d="M233 478h8v2.32813h-8zm0 0"/></clipPath><clipPath id="m"><path d="M247 478h7v2.32813h-7zm0 0"/></clipPath><clipPath id="n"><path d="M260 478h8v2.32813h-8zm0 0"/></clipPath><clipPath id="o"><path d="M274 478h7v2.32813h-7zm0 0"/></clipPath><clipPath id="p"><path d="M287 478h7v2.32813h-7zm0 0"/></clipPath><clipPath id="q"><path d="M300 479h8v1.32813h-8zm0 0"/></clipPath><clipPath id="r"><path d="M305 480h2v.32813h-2zm0 0"/></clipPath><clipPath id="s"><path d="M313 479h8v1.32813h-8zm0 0"/></clipPath><clipPath id="t"><path d="M319 480h2v.32813h-2zm0 0"/></clipPath><clipPath id="u"><path d="M326 478h8v2.32813h-8zm0 0"/></clipPath><clipPath id="v"><path d="M340 478h8v2.32813h-8zm0 0"/></clipPath><clipPath id="w"><path d="M354 477h7v3.32813h-7zm0 0"/></clipPath><clipPath id="x"><path d="M367 478h7v2.32813h-7zm0 0"/></clipPath><clipPath id="y"><path d="M383 476h1v4.32813h-1zm0 0"/></clipPath><clipPath id="z"><path d="M393 478h8v2.32813h-8zm0 0"/></clipPath><clipPath id="A"><path d="M406 478h8v2.32813h-8zm0 0"/></clipPath><clipPath id="B"><path d="M420 478h7v2.32813h-7zm0 0"/></clipPath><clipPath id="C"><path d="M435 476h4v4.32813h-4zm0 0"/></clipPath><clipPath id="D"><path d="M448 477h5v3.32813h-5zm0 0"/></clipPath><clipPath id="E"><path d="M460 478h8v2.32813h-8zm0 0"/></clipPath><clipPath id="F"><path d="M465 480h2v.32813h-2zm0 0"/></clipPath><clipPath id="G"><path d="M144 464h4v6h-4zm0 0"/></clipPath><clipPath id="H"><path d="M144 452h4v4h-4zm0 0"/></clipPath><clipPath id="I"><path d="M144 439h4v3h-4zm0 0"/></clipPath><clipPath id="J"><path d="M144 424h4v6h-4zm0 0"/></clipPath><clipPath id="K"><path d="M144 412h4v4h-4zm0 0"/></clipPath><clipPath id="L"><path d="M144 399h4v3h-4zm0 0"/></clipPath><clipPath id="M"><path d="M466 398h2v3h-2zm0 0"/></clipPath><clipPath id="N"><path d="M144 384h4v6h-4zm0 0"/></clipPath><clipPath id="O"><path d="M144 370h3v7h-3zm0 0"/></clipPath><clipPath id="P"><path d="M144 357h3v7h-3zm0 0"/></clipPath><clipPath id="Q"><path d="M144 344h4v6h-4zm0 0"/></clipPath><clipPath id="R"><path d="M144 332h4v3h-4zm0 0"/></clipPath><clipPath id="S"><path d="M144 319h4v3h-4zm0 0"/></clipPath><g id="T" clip-path="url(#clip1)"><path fill="#fff" fill-opacity="0" fill-rule="evenodd" d="M0 0h1000v1000H0zm0 0"/><path fill="#d3d3d3" fill-opacity="0" fill-rule="evenodd" d="M162.15234 355.86719l-.23437.29297.0586.23437.11718.17188.17578.23437.29297.34766.11328.0586.11719-.17188.0586-.23438.17577-.17578.46485-.17578h.69922l.23437.29297.28906.8164.0586.17579.17578.23046.35156.23438.69922.69922.17188.17578.23437.34765.23438.41016.28906.58203.41015.46485.23047.23437.23438.17578.11719.23047.17578.29297.17187 1.16406v.23438l.0586.28906.05859.11719.11719.11719.34765.41015.11719.17188.17578.17578.17578.23437.11719.17188.17188.35156.05859.23438.23437.40625.23438-.0586-.17578.17578-.0586.92969h-.58203l-.23437-.11328-.34766.11328-.11719.11719-.05859.29297-.0586.17578-.11718.17187-.46484.29297-.0586.23438-.0586.11328v.64453l.0586.17187v.41016l.0586.0586v.40624l.05859.40625.11719.17579.05859.05859.23047.64062-.0586.29297v.69922l-.05859.58203v.23438l-.0586.23047-.05468.35156v1.92187l.05469.1172h.42578l-.36719.11718-.02344.35156.89063 1.16797 1.74219.53906 1.33984.35938v.53906l.08984.8086.53516.71484 1.51953.26953.89063-.08594.08984 1.16406.53516.1797 1.16015-.1797 2.05469-.98437 1.16016-.36328 1.8789-.17578 1.69531-.1797-.17968.71876-1.51563.08594-1.25.08984-.80469.26953-1.07421.8086.26953.71875.53515.89843-.17968.625-.26563.8086.26563 1.07812.625.89844.80468.17969 1.25-.1797-.26562.72267.09766.5039.05468.29297v.17188l.0586.29296v.40625l.17578.1172.35156.11718h.40625l.29297-.17578.11328-.11719.0586-.11719.11718-.23047.0586-.17578.35156-.46484.23047-.17578.17578-.0586.17578.0586.0586.17578.11718.98828.05469.46875.0586.17188.11718.23437.17578.0586.8164.05859h.28907l.11719.23437.05859.40625.0586.35156v1.10547l.11718.29297.11719.34766.28906.69922.17578.35156.58203.7539.35157.17579.17187.0586.46875.23437.64063.46484.34765.23438.29297.17578.29297.05468.23047.0625.8164.34766.29297.17578.11328.17188.35157.35156.11719.17578.52343.64063v.28906l.0586.35156v.34766l.05859.35156.0586.28906.11718.0586.17188.05859h.17578l.58203.23437.17578.1172.17578.28905.17578.23438.11328.23437.29297.23047.11719.11719v.41016l.0586.05468.28906.23438.23437.11719.0586.11718.11718.17188.0586.11719.23047.23437.05859.17578.23437.0586.1172.05859-.1172.11328-.05859.11719v.11719l-.11719.29296-.11719.28907v.58203l.17579.11719.11718.05859.0586.11719.11719.11719.11328.05859.17578.34765.0586.35157.05858.40625v.17578l-.05859.17578-.11719.69922v.17187l.1172.17579.29296.29296h.40625l.17578.1172.11719.17187.11719.29296v.23438h-.52735l-.23047-.23438h-.23437l-.17578.0586-.0586.69922.0586.34765.11719.17579.17578.41015.11718.23047.28907.46875.17578.05469h.52344l.23437.0586.75781.64062.0586.29296v.23438l.05859.0586.23047.34765v.35156l-.11719.17188v.29297l.29297.28906.29297.17578.17187.0586.29297.17577.29297.1172.58203.40624.28906.23438.29297.17578.21875.16015.01563.01172.23047.17579.64062.52343.17578.23438.1172.17578.17577.17578.11328.17188v.64062l.1172.17578.46874.11719.58203.11719.23438.05859.23047.11328.29297.11719.11328.0586.58593.35156.28907.17187.17578.0625.17578.05469.17578.0586.69922.35155.28906.17579.23438.05468.28906.17578.23437.1172.64063.40624.29297.11719.17187.0586.23438.05859.41015.05859.23047.0586.23438.11718.0586.17188-.41017.17578.46875.0586.0586.29296.11328.23438.17578.05468.23438.0586.17578.05859.40625.11719.64062.23437.11719.17188.0586.23437v.17578l-.0586.1172-.0586.40624.23438.23438.11719.05859.34766.11719.64062.23047.17578.11718.28906.1172.17578.17577.23438.46485.58203 1.10546.17578.17579.34766.17578.17578.11719.35156.11718 1.04688.52344.23437.0586.46485.11327.29297.0586.46484.17578.75781.58203.23438.23438.34765.46484.17578.17578.28907.23438.8164.69921.29297.17579.28906.28906.29297.17578.29297.28906.69531.64063.17578.17578.29297.23437.28907.23438.46875.28906.64062.58203.34766.23438.23437.29297.34766.34765.35156.46485.9336.99218.34765.40625.11719.17579.23437.05859.11328.11719.64454.17578.23047.11328.23437.0586.29297.17577.23047.1172.9336.69921.40624.40625.23438.17578.40625.17578.23437.11719.8164.34766.34766.23437.23438.11719.29297.28906.23047.11719.7578.35156.35157.17188.23047.05859.29297.11719.23437.0586.8711.17577h.8164l.46875.23047.17188.0586.875.69921.46484.1172.29297.05858.17578.0586.23047.0586.46875.05859.34766.05859.35156.0586.40625.05859h.29297l.17187.0586v.23046l.17578.17578h.29297l.34766.0586.35156.05859.69922.11719h.64063l.46484-.23438.29297-.17578.17187-.11719.41016-.17187.28906-.17578.9336-.46485.46875-.29297.52343-.29296.46485-.17188.46484-.17578 1.05078-.46485.28906-.11718.41016-.11719.28906-.11719.52735-.17578 1.51562-.69922.58203-.34765.28907-.0586.29297-.0586.34765-.11718.875-.23047.35156-.11719h.11329l.23437-.05859.875-.23437.23438-.0586h.8125l.35156-.0586.8164-.11718.17188-.0586.35156-.05468.29297-.0586.23047-.05859.8164-.17578.17579-.0586h.34765l.23438-.05859.46484-.11718.75781-.17188.23438-.0586h.34765l.41016-.11718.28906-.0586 1.28516-.05859h.28906l.41016-.0586.23047-.05858h.17578l.875-.1172h.40625l.41015-.11718h.34766l.35156-.11328.8711-.0586h1.75l1.04687.28907.41016.11719.28906.11718.35156.11719.28907.11719 1.05078.17187.28906.0586h.29297l.29297.05859.17187.0586.41016.05859.17187.0586.1172.05858h.11718l.11719.0586.35156.0586h.11328l.41016.0664 1.92187.39453 1.92578.39453 1.51953.44922 1.69532.71875 2.14453.80469 1.60547-.71875 1.42968-.80469 1.16016-1.07813 1.25-.44921 3.03516-.71875 1.875-.35938 2.14453-1.34765 2.23437-1.25391 2.5-1.25781 1.69531-.44922 1.78516-.17969 1.16016-.26953.625.53906 1.33984-.26953.71485-.98828.98437-1.34375.44531-.17969.80469-.35937 1.875-.53907 1.78516-.44921 1.25-.26954 1.16015-.08984 1.69922-.08984 1.96094-.26954 1.25-.08984h.53906l.625-.08984h.89063l2.14453-.17969 2.41015-.17969 2.58985-.08984 1.69531.17969 1.60938.08984 1.42968.35938 1.16016.71875 1.875.98828 1.16015 1.52734.26563.71484.6289.08985.35548.89844.53515.53906.53516 1.52734 1.07422.35938h.53515l-.80469.53515.08985 1.70703.71484 2.69532.89063.80468.89453.98829.71484 1.2578 1.78516.53907 1.51953-.17969.35547 1.34375 1.60937-.80469.98047-.53906.26953.26953.31641-.21484.21875-.14453.80078.44922.44922-.35938h.35547l.53515-.26953.53907-.71875.53515-.26953.625-.98828 1.16016.44922.83984.3711 1.39454.61718 1.6953-.17969h1.60548l1.78515.08985.17969-1.70704.53516-1.34375.80468.26954.4922.84765.40233.40625-.08984.53906v.35938l.71485.44922.71093-.26953h1.42969l.35938.98828.4453 1.25781.71485 1.34375 1.25.6289 1.69531.62891.71485-.17969.17969-.53906.98046-.08984.44922.35937.08594 1.25782-.26563.6289-.53515.17969v.53906l.71484.98438.26563.53906.98437.98828.80078 1.07813-.26562.35937-.08985.89844-.625 2.33203-.35546 2.0664-.08985 1.79298-.17969.71875-.08984.53906v1.4375l-.98047 1.88281-.35937 1.70703-.53516.89844-.80469 1.16797-.26562.53906 2.05469 1.2539.08593.35938-.35546.53906-.08985-.17968v.80859l.08985 1.4375-.44532.71484-1.07422.09375-.26562.71485.53515.89844.8047.71875 1.16015.80859 1.33984.26953.44531.35938-.35546.44921-1.78907-.08984-1.25-.44922-.71484-.71875-.625-.08984-.17578 3.58984-.1875 1.3086h89.35937V311.70313h-55.26953v49.08203l.76172.125 3.28906.54296 2.02344 2.83594v2.7539l2.35156.33204 2.34766.33203h4.05078l-1.3789 4.16016-2.02344.70703-2.02344.70312-.54297.34375-2.59375 1.6172-.1875.11718-2.02344-2.07813-.73046-2.74218-2.67188-2.07813-1.375-3.5-.0664-.08203-1.95704-2.67188 2.75-1.41796v-49.08204H294.42187v91.41407l.1172.03125.1328.01172.07422.07421.10547.04688.08985.0586.08593.05859.08985.0586.29687.29687.0586.08984.03125.11719.02734.11719.01563.13671-.03125.1172-.0586.08983-.0586.08594-.04296.10547-.04688.10156-.02734.1211v.14453l.17578.26953.14844.14844.07422.08594.07422.07421.04296.10547.0625.08985.0586.08593.04297.10547.0586.08985.04687.10156.04296.10547.0586.08594.11719.17968.07421.07422.0625.08594.0586.08984.04297.10547.0586.08985.05858.08593.0625.08985.0586.08984.04297.10156.11719.17969.07421.07422.0586.08594.07422.07421.08984.0586.10547.04687h.14844l.1328-.01562.13282.01562.10156-.04687.07422-.07422.04688-.10156-.01563-.13281v-.14844l-.04687-.10547-.02735-.11719-.04687-.10156-.02735-.1211-.04296-.10156-.0625-.08984-.04297-.10156-.04297-.10547-.03125-.11719-.01563-.13281-.01171-.13672.08593-.0586.0586-.08593.12109-.03125.04297.10547.01562.1328v.1172l.0586.10156.0586.08984.08983.0586.14844.14843.0586.08985.04296.10547-.01171.10156.08593.0586.10547.04687.08594.0586.08984.05858.07422.07422-.11719.02735-.10546.04687-.08594.0586-.07422.07421-.0586.08985-.0625.08594-.02734.12109-.04687.10156-.04297.10547-.03125.11719-.01172.13281-.01563.13281v.14844l.02735.11719.04687.10547.04297.10156.0586.08984.07421.07422.08985.0586.07422.07421.08984.0586.0586.08984.04296.10547.04688.10156.11719.03125.1328.01563h.14845l.11718-.03125.10547.04297.04297.10547.04688.10156.02734.1211L299.5 410l.02734.11719.03125.1211.02735.11718.10547.04297.10156.04687.13281-.01562.14844.14844.0625.08593.07422.07422.07031.07422.08984.0625.10547.04297.10156.04297.1172.03125.13671.01562.11719-.03125.07422-.07422.02734-.11718-.01172-.13282-.03125-.12109-.02734-.11719.04297-.10547h.11719l.08984.0625.11719.02735h.14843l.13282.01562h.14843l.13282.01563.1328-.01563h.14845l.1328-.01562.13282-.01172.13672.01172.11719-.02735.13281-.01562.1914-.0586-.05859.17579-.01562.1328-.02735.1211-.01562.13281-.0586.08594-.1328.01563-.10548.04687-.10546.04297-.1172.03125-.11718.02735-.26563.03125h-.14843l-.13281.01562-.07422.07422.05859.08594.14844.14843.11719.1797.07421.0703.08985.0625.08984.0586.08594.0586.08984.05858.10156.04297.10547.0625.10547.04297.08594.0586.10547.04687.10156.04297.17969.11719.0586.08984-.04298.10156-.04687.10547.01562.13281.22266.22266.0586.08985.04296.10156.03125.1211.04297.10155.01563.13282.03125.11718.01171.13672.03125.11719.14844.14844.10156.04297.10547.04296.1172.03125.1328.01563.13672.01563h.11719l.11719-.03125.08984-.0586.04297-.10547.04688-.10156.04296-.10547.03125-.11719.01172-.1328v-.14845l-.01172-.1328-.01562-.13282-.03125-.11719-.04297-.10547-.04688-.10547-.04296-.10156-.04297-.10547-.01563-.13281.01563-.13281.02734-.11719.03125-.11719.02735-.1211.04687-.10155.08984-.0586.08594-.0625.07422-.07422.08984-.05859.22266-.22266.0586-.08593.07421-.07422.11719-.17969.0586-.08594v-.14844l-.07423-.07421-.10156-.04688-.10547-.04297-.10156-.04297-.0586-.08984-.04687-.10547-.02734-.11719.08984-.05859.11719-.03125.10156-.04297.17969-.11719.14844-.14843.01172-.13282-.01172-.10546-.08985-.0586-.1328.01563h-.14845l-.1328.01562-.13282-.01562-.1211-.03125-.08593-.0586-.07422-.07422-.0586-.08984-.0625-.08594-.11718-.17969-.0586-.08593.03125-.1211.08594-.05859.1211-.03125.05859-.08594v-.1211l-.03125-.11718-.0586-.08984-.05859-.08594-.04687-.10547-.02735-.11719-.01562-.1328.0586-.08985.07421-.07422.08984-.0586.1172-.17968.07421-.07422.0586-.08594.14843-.14844.1211-.03125.1328-.01562.13282.01562.07422.07422.04297.10547.01562.13281-.03125.1172-.11719.03124-.1328.01172-.14844.14844-.04297.10547-.04688.10156-.02734.1211-.03125.11718v.14844l.03125.11719.04297.10546.05859.08985.07422.07031.07422.07422.11719.03125.12109.02734.11719-.02734.1328-.01563h.1172l.08984.0586.07422.07422.04687.10546.0586.08594.10156.04688.13281.01562.10547.04297.08594.0586-.01172.10546-.07422.07422-.17969.11719-.05859.08984-.08984.0586-.07032.07422-.07421.07421-.0625.08985-.02735.11719-.01562.1328.01562.13282-.01562.13281v.14844l.01562.13281.02735.1172.03125.12108.07421.07422.08985.0586.08594.0586.08984.05858.11719.03125v.08594l-.10157.04688-.08984.0586-.26563.03124-.11718.02735h-.14844l-.10547.04296-.10156.04688-.0586.08984-.0625.23438-.01171.13281-.03125.1211-.01563.1328v.29298l-.01172.1328.01172.13673.01563.1328.1328.01563.13282.01172.1211.03125.08593.0586.07422.07421.04688.10547.04296.10157.01563.1328v.44532l-.01563.13281v.44532l.03125.26562.02735.11719.01562.13281.03125.11719.08594.21094.03125.26562v.14844l-.03125.11719-.02734.11718-.03125.1211-.02735.11719-.03125.11718-.03125.1211-.01171.1328-.01563.13282.08984.0586.1172-.03125.10155.01562.04688.10547-.03125.26562v.44141l-.04297.10547-.04688.10547-.04296.10156-.04297.10547-.0586.08594-.03125.12109-.04296.11719-.03125.11719-.01563.1328.01563.13282.05859.08984.10547.04688.08594.0586.05859.08593-.01172.13672-.03125.11719-.04297.10156v.44531l-.01562.13281v.14844l-.03125.11719-.04297.10547-.02735.11719-.04687.10546-.04297.10157-.03125.12109-.02734.11719-.03125.13281-.03125.11719-.02735.11719-.04297.10546-.03125.1172-.03125.12108-.01171.13282-.01563.13281v.29688l.02734.11718v.14844l.04688.39844.02734.11719.0586.08984.12109.03125h.14844l.13281-.01563.0586.08985v.11719l-.0586.08984-.08984.0586-.10157.04296-.10546.04688-.08985.05859-.08594.0586-.13671.01562-.1172-.03125-.1328-.01563-.10157.04688-.0625.08594-.01172.13671-.01562.13282-.03125.11719-.02735.11718-.01562.13281-.03125.1211v.29687l.01563.13282.03125.11718v.14844l.01171.13281v.14844l-.02734.11719-.04688.10156-.02734.1211-.03125.11718-.0586.08985-.07421.07421-.10156.04297-.10547.04688-.11719.02734-.1211.03125-.10156-.04687.0586-.08594.10547-.04688.02734-.11718.03125-.11719.02734-.1211.03125-.11718v-.14844l.01563-.13281-.03125-.11719-.04297-.10547-.10547.01563-.07422.07422-.10156.04296-.08984.0625-.07422.07422-.04297.10157-.01563.1328-.03125.1172L304.25 426l-.03125.11719-.02734.11719-.03125.12109-.02735.11719-.03125.11718-.04297.10547-.08984.0586h-.08984l-.1172-.03125-.03124-.08594.01562-.13672-.03125-.11719v-.14844l-.01171-.1328v-.14844l-.0625-.23438-.02735-.1211-.04297-.10156-.04687-.10546-.0586-.08594-.05859-.08985-.04297-.10546-.0625-.08594-.14844-.14844-.0703-.07422-.10548-.04687-.10547-.04297-.10156-.04297-.29687-.29688-.08985-.07421-.08594-.0586-.10546-.04297-.08985-.0625-.08594-.0586-.10546-.04296-.08985-.0586-.08594-.0625-.07421-.0703-.10547-.04688-.08594-.0586-.10547-.04296-.08984-.0625-.10156-.04297-.10547-.04297-.08594-.0586-.10547-.04687-.10547-.04297-.10156-.04687-.08985-.0586-.10156-.04297-.10547-.04296-.08984-.0625-.11719-.02735-.13281-.01562-.13281.01562H299.75l-.13281.01563-.11719-.03125-.08984-.0586-.07422-.07422-.08985-.05859-.10156-.04688h-.14844l-.12109-.02734-.10156-.04297-.07422-.07422-.11719-.17968-.08984-.0586-.10156-.04297-.08985-.0625-.10547-.04296-.08984-.0586-.08594-.0586-.10547-.04687-.0586-.08594-.05858-.08984-.04297-.10547-.04688-.10156-.07422-.07422-.08594-.0586-.07421-.07421-.08985-.0586-.22265-.22265-.04297-.10547-.03125-.26563.10547-.04296h.14453l.10547.04296.07421.07422.08985.0586.08594.0586.10546.04687.08985.05859.14844.14844.0703.07422.14845.14843.0625.08594.07421.07422.08594.0586.07422.07421.08985.0625.08984.0586.08594.05859.26953.17578.10156.04688.10547.04296.10156.04297.04688-.07421.05859-.08594.07422-.07422.07031-.07422.10547.04297.07422.07422.0586.08984.04296.10156.04688.10547.04296.10547.1211.02735.11719-.02735.07421-.08984.04297-.10547.0586-.08985.07422-.07421.10546-.04297.1172-.02735.1328.01172.08985.0586.14844.14843.05859.08985.04297.10547.04687.10156.04297.10547.04297.10156.10547.04688.10547.04296.13281.01563.08594-.0586.0586-.08984.07421-.07422.10547-.04297.11719.02735.10547.04687.10156.04297.10547.04297.10156.04688.17969.11718v.11719l-.01563.13281.01563.13281.01562.13672.0586.08594.10156.04688.1211.02734.11718.03125h.14844l.11719-.03125.05859-.08984.17969-.1172.05859-.08983.07422-.07422.0586-.08594.11718-.17969.17969-.11719.11719.03125.08984.0586.04297.07422-.01563.1328v.1172l.08985.05859h.14843l.13282-.01563.1328-.01171.26563-.03125.10547-.04297.11719-.03125.1211-.02735.07421-.07421.07031-.07422.0625-.08985-.01562-.10547-.04688-.10156-.10156-.04297-.10547-.01562-.11718.02734-.26563.03125h-.14844l-.07421-.07422-.08985-.0586-.11719-.03124-.11718-.02735-.13282-.01562h-.14843l-.13282.01563h-.29687l-.10547-.04688-.14844-.14844-.04297-.10156-.05859-.08984.22266-.22266.08593-.0586.10547-.04296.11719-.03125.13281-.01563.13281.01563.13672.01562.10157.04297.1328-.01172.08985-.0625.10156-.04297.0625-.08984-.04687-.10156-.08984-.0586-.1172-.03125-.10155-.04296-.0586-.08985-.0625-.08984v-.11719l.01563-.13281.10547-.04688.07421-.07031v-.1211l-.08984-.05859-.03125-.11719.08985-.05859.07421-.07422.04297-.10547.0586-.08984.04687-.10156.01563-.13281v-.14844l-.04688-.10547-.04297-.10156-.08984-.0586-.13281-.01562-.10157-.04297-.13671-.01563-.1172-.03125h-.4453l-.13282-.01562-.13281-.01172-.13281-.01563-.11719-.03125h-.14844l-.13281-.01562-.13281-.01172-.26563-.03125-.1211-.04297-.08593-.0586-.07422-.07421v-.14844l.01172-.13281.10547-.04688.10156-.04296.13281-.01563h.15235l.13281-.01562h.29297l.1211.03125.10156.04296.08984.0586.23438.0625.12109-.04688.08984-.05859.10156-.04297.13282-.01562.10547.04296.10156.04688.13281.01172.1211-.02735h.14453l.12109-.03125.11719-.02734.10547-.04687.07421-.07422.08594-.0586.14844-.14843.0586-.08594.04687-.10547.02734-.11719.01563-.10547-.10156-.04296-.08985-.0586-.11719-.03125-.10546-.04297-.08985-.0625-.07422-.08594-.07422-.07421-.10156-.04297-.10547-.04688-.10156-.04297-.0586-.08984-.04687-.10156-.08594-.21094-.0625-.08594-.05859-.08984-.07422-.07422-.08594-.0586h-.26953l-.11719.03126-.08984.05859-.10156.04297-.13281.01562-.10547-.01562-.02735-.11719-.0625-.08984-.11718-.03125-.10157-.04297-.14843-.14844-.03125-.11719-.01563-.10546.07422-.07422.17969-.1172.11719-.02733.11718-.03125.13672.01562.10156.04297.10547.04297.10156.04687.10547.04297.1172.03125.1328.01563.1172.02734.1328.01563.10547-.01563.08985-.0586-.07422-.07421-.10547-.04297-.07422-.07422-.07422-.08984-.14844-.14844-.08593-.0586-.08985-.05859-.07422-.07422-.08984-.0586-.10156-.04687-.1211-.02734-.10156-.04688-.10547-.04296-.11719-.03125-.10156-.04297-.1211-.03125h-.14843l-.11719.03125-.10546.04297-.08594.0625-.17969.11718-.08594.0586-.08984.0586-.10547.04687-.08594.05859-.10547.04297-.10156.04297-.10547.04687-.07422.07422-.05859.08985-.0586.08593-.04687.10547-.0586.08594-.07421.07422-.13281-.01172-.1172-.03125h-.11718l-.07422.07422-.08984.0586-.07422.07421-.08984.0586-.08594.05859-.10547.04687-.10156.04297-.13672.01563-.10156-.04297-.14844-.14844-.10547-.04688h-.08594l-.10547.04688-.10156.04297-.1211.03125-.11718-.03125-.07422-.07422v-.11719l.03125-.1211.07422-.0703.0586-.08985.07421-.07422.11719-.03125.10547-.04296h.29297l.13281-.01563.13672-.01563.10156-.04296.08985-.0586.10156-.04687.08984-.0586.13281-.01171.08985.05859.13281.01172.08984-.0586.08594-.05859.10547-.04297.08984-.0586.08594-.0625.08985-.05859.14843-.14843.0586-.08594.05859-.08985.10547-.04296.13281-.01563.11719.02735.1211.03125.05859-.0586.05859-.08984.03125-.26563.02734-.11719.10547.01172.13281.01563.10157-.04297.08984-.0586.0586-.08984.07421-.07422.0586-.08984.04687-.10156.01172-.13281-.01172-.13282-.04687-.10547-.14844-.14843-.0586-.08985-.05859-.08594-.04297-.10546v-.44532l.01563-.1328v-.14845l.01172-.1328-.0586-.0586-.08984.0586-.10156-.04298-.17969-.11719-.08594-.05859-.0625-.08984-.0586-.08985-.07421-.07421-.08594-.0586-.1211.03125-.10155.01172-.10547.04688-.08594.05859-.10547.04297-.14844.14844-.08984.05859-.08594.0586-.08984.0625-.10547.04296-.13281.01563v-.1211l.10547-.04297.11718-.03125.07422-.0703.04297-.10548v-.14844l-.02734-.11718-.14844-.14844-.13281-.01563h-.14844l-.11719.03125-.10547.04297-.10156.04297-.08984.0625-.11719.02735-.07422-.07422.01172-.13281-.04297-.10157-.04297-.10547-.08984-.05859-.11719.02734-.1211.03125-.11718.03125-.10156.04297-.1211.03125-.10156.04297-.10547.04297-.08984.0586-.10156.01562v-.11719l.01562-.13281-.0586-.08985-.07421.04297-.14844.14844-.0586.08985-.07421.07421-.04688.10547-.04296.10156-.07422.07422-.0586.08985-.07422.07422-.05859.08593-.07422.07422-.08984.0625-.07422.07031-.07422.07422-.10156.01563-.13281.01562-.10547-.04296v-.1211l.14843-.14844.04297-.10156.0586-.08984.04687-.10156.04297-.10547.0586-.08985.03124-.11719.04297-.10156.03125-.1211.02735-.11718.04687-.10547.04297-.10156.04297-.10547.07422-.07031.08984-.0625.08985-.0586.10156-.04296h.29687l.26563-.03125.10547-.04297-.07422-.07422-.11719-.03125-.10547-.04297-.08984-.0586-.10156-.04687-.08985-.0586-.10156-.04296-.10547-.04297-.08984-.0625-.08594-.0586-.10547-.04296-.10156-.04297-.1211-.03125-.11718-.03125-.10157-.04297L297.5 410.25l-.10156-.04297-.08985-.0586-.04296-.10546-.01563-.13281.10156-.04297.13281-.01563.13672.01563.13282-.01563.10156-.04297.0586-.08984.01562-.10547-.08985-.0586-.07421-.07421-.10157-.04297-.08984-.0586-.14844-.14843-.04297-.10547-.01562-.13281v-.29297l-.0586-.08985-.08984-.05859-.07422-.07422-.04297-.10547-.03125-.11718-.0586-.08985-.07421-.07422-.11719-.02734-.07422-.07422-.08984-.0586-.08984-.0625-.08594-.05859-.07422-.07421-.0586-.08594-.04687-.10547-.08594-.0586-.14843-.14843-.19532-.0586-.1328.01563-.10157.04297-.07422.07422-.04688.10156-.04296.10547-.0586.08984-.0586.08594-.29687.29687-.08984.0586h-.08594l-.0625-.08594-.04297-.10547.03125-.11719.0586-.08984.02734-.11719-.01172-.13281-.08984-.0625-.10547.04688-.11719.02734-.11719.03125-.26953.17578-.10156.04688-.11719.02734-.10546.04687-.08985.0586-.10156.04297-.0586-.08594-.04687-.10547.01563-.13281.04687-.10547.07031-.07422.07422-.07031.0586-.08985v-.14843l-.04297-.10547h-.23829l-.10156.04687-.03125.11719-.02734.11719-.03125.1211-.07422.04296-.13281.01563-.07422-.04688-.04297-.10156-.04297-.10547-.04687-.10156-.04297-.10547-.1211.03125-.10156.04297-.13281.01562-.11719.03125-.10547.04297-.08984.0586-.10156.04687-.1211.02734-.13281.01563-.10156-.04297-.0586-.08985-.04687-.10546-.04297-.10157-.04297-.10546v-.1172l.0586-.08984.08593-.05859.17969-.11719.10156-.04687.10547-.04297.10547-.0586.10156-.04296.08985-.0625.10156-.04297.10547-.0586.10156-.04687.08984-.0586.10547-.04296.10156-.04297.08985-.0625.10156-.04297.13672-.01563.11719.03125.10156.04297.1211.03125.10156.04297.10546.04688.10157.04296.10547.04297.10156.04688.10547.04297.10156.04297.10547.04687.08594.0586.10546.04296.1172.03125.10546.04297.10156.04688.08985.0586.10547.04296.10156.04297.10547.04687.11719.02735.10156.04687.1211.02735h.14843l.08594-.0586.01562-.10156.0586-.08984-.02735-.1172-.07422-.07421-.11719-.17969-.07421-.07422-.08985-.07421-.17969-.1172-.08593-.05859-.10547-.04296-.10156-.04688-.26954-.17578-.05859-.08985-.07422-.07421-.0586-.08985-.04296-.10156-.03125-.11719-.01563-.13672v-.5625l-.01171-.1328-.01563-.13282-.03125-.11719-.01562-.13281-.01172-.13281-.03125-.1211-.22266-.22265-.0586-.08594-.01562-.10547.03125-.11719.13281-.01562v-91.41406H172.9922v1.45312l-.0586.23438-.35156 1.05078-.17187.52343-.1172.34766-.17577.41016-.11719.17187-.23438.29297-.23046.0586h-.35157l-.11718.05859-.23047.40625v.29297l.11719.17578.23046.23047.1172.23437.64062.75781.29297.46485.17578.23437.23047.35156.23437.34766.64063.8164.17578.46485.17187.41016.11719.69531.17578.46875.11719 1.39844.0586.46484v.875l.11718 1.04688v4.78125l-.0586.46484-.35156 1.28125-.17578.52344-.11328.41015-.35156.9297L172.93359 336l-.23437.58203-.11719.17578-.17187.34766-.17578.40625-.35157.8164-.0586.29297-.11327.29297-.11719.28906-.0586.17579-.11718.875-.0586.40625-.05859.11718-.0586.17579-.05859.17187-.23047.52734-.11718.17188v.23437l-.11719.23438-.0586.17187-.17577.58594v.28906l-.0586.17579v.29296l-.0586.11329-.05859.52734v.17187l-.05468.23438v2.6211l-.17578.8164-.1172.17578-.17577.23438-.1172.17187-.11327.23438-.58594.93359-.23047.28906-.29297.46485-.17578.23437-.28906.35156-.35156.69922-.11328.23047-.17579.41016-.17578.23046-.40625.52735-.8164.69922-.29297.17187-.28906.23438-.17579.11719-.17578.17578-.52344.40625-.52734.17578-.17187.17578-.23438.05469-.64062.17578h-.75782m12.21094 31.02344l-1.07422.44921.35938.89454 1.25-.71485.44531-.53906-.98047-.08985"/><path fill="#d3d3d3" fill-opacity="0" fill-rule="evenodd" d="M201.50781 416.59766h-.89453l.44922.6289.98047.35938.80469-.08985.4453-.98828-.17577.08985-.71485-.35547-.89453.35547m154.6211 59.0703l-.0586-.52343v-.29297l.11328-.29297.0586-.23046.46875-.46875h.11328l.11719-.11329.11718-.05859h.17579l.23437-.0586h.34766l.23437.0586.11719.0586.23047.17187.0586.17578.11718.58203v.29297l-.11719.17578-.17187.28906-.17579.17579-.52734.52343-.23047.23438-.11719.0586h-.17578l-.11718-.0586-.40625-.29297-.17579-.11719-.11718-.0586-.0586-.11327-.05468-.1172m6.64062-10.95702l-.0586-.17188v-1.10937l.0586-.17188.17578-.0586.17188-.05858h.17578l.23437-.0586.1172.0586.05858.69921-.05859.17188-.11719.17578-.11718.0586-.23438.52343-.11328.0586h-.23438l-.05859-.1172m9.61328-14.39062l-.11719-.17578v-.69922l.29297-.875.1172-.17187.17577-.35156.11328-.23047.1172-.29297.35155-.75781.1172-.23047.17187-.23438h.17578l.11719-.0586h.64062l.11719.0586.23437.23438.17188.11328.35156.29297.11719.11718.11328.17579v.11328l.11719.05859.11718.11719v.69922l-.05859.17578v.23047l-.0586.17578-.34765 1.05078-.11719.23047-.11719.23437-.11718.0586-.23047.23437-.64063.28906h-.875l-.41015-.11718-.64063-.46485"/><path fill="none" stroke="#bebebe" stroke-linecap="round" stroke-linejoin="round" stroke-miterlimit="10" stroke-width=".5" d="M467.95703 311.69531H144.02734v168.625h323.9297v-168.625"/><g clip-path="url(#a)"><path fill="#fff" fill-opacity="0" fill-rule="evenodd" d="M144 475.89063v4.4375h.0039H144V311.67188h.0039H144v164.21875"/></g><g clip-path="url(#b)"><path fill="#fff" fill-opacity="0" fill-rule="evenodd" d="M144.0039 480.32813V311.67188h66.57032v87.1953l-.64844 1.57032-3.10937 4.4375-.6797.84766-3.8164-.84766-.6211-.3125-.25.3125.25.60938.86329 3.83203-.86328 1.23828-2.23047 3.19922 2.23047 2.39843 1.46484 2.03907-1.46484 2.80078-4.4375-1.39844-4.4414-.22656-4.4375-.125-4.4375.1875-4.4375-.03906-4.44141.2578-4.4375-1.10156-3.50391 4.08204-.9336.82812-3.41015 3.61328-1.02734 1.8711-.98828 2.5664-.40235 4.4375 1.39063 3.78906 4.4375-.10546 4.4375.34765 1.52734.40625 2.36719 4.4375.54297.26953 4.4414.27344 4.4375.5625 3.2539 3.33594 1.1836 1.28515 2.92578 3.15235-2.0039 4.4375 3.51562 2.8086 1.07813-2.8086.10937-4.4375 3.2539-1.54297 4.4375-1.25v9.5625l-2.38671 2.10547 2.38672.57422.69531-.57422-.69531-2.10547v-9.5625l1.88672-1.64453 2.55078-2.5625 2.28125-1.8789-2.28125-3.14844-.55469-1.28907.55469-1.00781 2.15625-3.42969 2.28125-2.84375 4.4414-1.38672.1836-.20703 4.2539-2.59375 4.4375 1.03516 1.30079 1.5586 3.13672 2.8203 1.10546 1.6172 3.33203 3.27734 4.44141-.51172 1.64844 1.67187 2.78906 2.6836 4.4375-1.89063.80078-.79297 2.63281-4.4375-.13671-4.4375-3.29688-3.11328-2.25-1.32422-2.1875-2.02734-4.4375-.29688-4.4414-1.30468-4.4375-.5586-.2461-.2539.2461-.27735 4.23046-4.16015.20703-1.14454 4.44141-.95703 2.42578-2.33593-2.42578-2.26172-4.4414.58594-3.37891 1.67578-1.0586.1914-4.4375-.03125-.51953-.16015.51953-.875 3.1172-3.5625-3.1172-3.01172-4.4375-1.16797-.125-.26172-3.4414-4.4375-.8711-.67188-4.4414-.89843v-87.19531h44.38281v112l-3.24219 3.39843 2.33203 4.4375.91016.65625 4.4414 2.11328 1.61329-2.76953-1.61328-3.23828-.3164-1.19922-4.125-3.39844v-112h17.7539v111.29297l-4.4375 1.44141-3.34766 2.66406 3.34766 3.99219 3.85937.44531.57813.08985.22265-.08985 3.75782-4.4375-3.98047-4.10547V311.67188h4.4414v100.97265l-.84375 1.10938.5547 4.4375.28905.28515.625-.28515.40625-4.4375-1.03125-1.10938V311.67188h4.4375V427.625l-4.01171 3.88281 1.94921 4.4375 2.0625 2.0625 3.48829-2.0625.94921-.22265 4.4375-2.54688 1.59375-1.66797-1.59375-1.80469-4.4375-1.94921-4.4375-.12891V311.67187h8.875v107.75391l-4.4375.10547-2.60156 3.09766 2.60156 2.54296 4.4375.54297 3.75782-3.08593-3.75782-3.20313v-107.7539h8.87891v107.03515l-4.23047 3.92188 4.23047 4.35546.5625.08594 3.875 2.32031v15.83594l-4.4375 2.7539-1.82422 1.28126 1.82422 1.5 4.4375 1.89453 4.4375-3.36719.01563-.02734-.01563-.01953-4.4375-4.01563v-15.83594l2.17188-2.3203.73437-4.44141-2.90625-3.90235-4.4375-.01953V311.67188h13.3125v107.91015l-2.5039 3.04688 2.5039 2.3125 2.29688-2.3125-2.29688-3.04688V311.67188h26.63281V414.8125l-4.4414 1.11719-4.4375-.73828-4.4375.33203-4.4375 1.97656-1.0586.6914 1.0586.8086 4.4375 3.375.14453.2539 4.29297 3.14454 4.4375.2461 4.4414-.50392 2.41797 1.5547 2.01953 2.0078 2.78516 2.4297-1.69531 4.4375 3.34765 3.35156 2.64063 1.08593 1.79687 1.78906 2.48438-1.78906 1.1836-4.4375.77343-3.76562.4414-.67188-.4414-.41797-.46875.41797-3.97266 1.07813-2.48047-1.07813 1.67188-4.4375-.64844-4.4414-2.98047-2.72657-2.63672-1.71093-1.80078-1.5-4.4375-1.87891V311.67187h35.5039v134.54688l-3.01562 3.04297 3.01563 3.02344 3.11328-3.02344-3.11328-3.04297V311.67187h39.94531v121.16797l-4.4375 2.17188-4.4375.66406-.29297.26953-4.14453 2.73828-2.20312 1.69922-2.23829.29297-4.4375-.25-.17187-.04297-4.26563-2.48828-4.4375-1.82031-.20312-.1289-4.23438-2.57032-2.5703 2.57031-.1211 4.4375 2.6914 3.21875 4.4375-.16406 4.4375-.40234.58594 1.78515-.58594 1.5586-2.57812 2.8828-.65625 4.4375-1.20313 2.85548-1.5703 1.58203-1.88673 4.4375 3.45704 3.69531 1.17968.7461 3.25781 3.40234 3.46094-3.40235.97656-1.48437 4.4375-1.97266 1.7422-.98437 2.69921-.42578 1.08594.42578 3.35156 2.63672 2.73438-2.63672-2.73438-4.10547-.11719-.33203.1172-.28516 4.4375-.96094 2.66405-3.1914.97657-4.4375.79687-2.13672 4.4414 1.00781 3.50391-3.3125-1.27734-4.4375-2.22656-2.45312-2.3125-1.98438-2.1289-3.10547V311.67188h53.2578v168.65625H296.03125l-1.1289-1.2422-1.52735 1.2422H144.0039"/></g><path fill="#50fcfc" fill-rule="evenodd" d="M161.7539 439.73438l-1.39062-3.78907.40234-4.4375.98829-2.5664 1.02734-1.8711 3.41016-3.61328.93359-.82812 3.5039-4.08204 4.4375 1.10157 4.44141-.25781 4.4375.03906 4.4375-.1875v2.34375l-4.4375.19922-4.4375-.19922-4.41015 1.04297-.03125.02734-4.4375 4.36328-.0547.05078.0547.71485v4.29687l-2.82813 3.86328 2.82813.78906 4.07422-.78906-4.07422-3.86328v-4.29687l4.4375 3.03125 2.21875.6914-1.76953 4.4375 3.99218 2.58985 1.17969 1.84765 3.25781 1.28906 4.4375.1797 4.34766 2.96874.08984.0586.27344-.0586-.27344-.16015-2.32812-4.27735 1.25-4.4375 1.07812-1.30469 4.15625-3.1328.28516-.27735 4.4375-2.4336 1.78906-1.72656-1.78906-1.76953-3.77344-2.67187-.66406-.32813-4.4414-.46094-4.4375-.2539v-2.34375l4.4375.125 4.4414.22656 4.4375 1.39844 1.46484-2.80078-1.46484-2.03907-2.23047-2.39843 2.23047-3.19922.86328-1.23828-.86328-3.83204-.25-.60937.25-.3125.6211.3125 3.8164.84766.67969-.84766 3.10937-4.4375.64844-1.57031v4.94922l-.83203 1.05859-3.58203 4.4414-.02344.01173-4.01172 4.42578 3.82813 4.4375.18359.17578v2.64844l-2.95313 1.61328 2.95313 2.90234 4.4375-.9375 1.42969-1.96484-1.4297-1.31641-4.4375-.29688v-2.64843l4.4375.46875 4.11329 3.79297.32813.3164v2.60547l-2.0586 1.51953 2.0586 4.28906 2.83984-4.28906-2.83984-1.51953v-2.60547l4.4375 2.4336 4.4375 1.125.58593.5664 3.85156 4.29688.13672.14062 3.01563 4.4375 1.28516 1.26563 4.36328-1.26563.07812-.01953.11328.01953 4.28906 4.4375.03516.03516.0625-.03516 4.375-2.22265 1.58203-2.21485-1.375-4.4375-.20703-.19531-.5625.19531-3.875 2.32422-.66406-2.32422-3.77344-3.85547-2.0664-.58203-2.375-1.13281-4.4375-1.57031-1.69532-1.73828 1.69531-1.90235 2.57813-2.53515-2.57813-2.58985-4.4375-.73437-3.64062-1.11328-.79688-1.6797-4.4375-1.23046-1.16796-1.52734 1.16797-3.14454.92187-1.29687-.92188-.98438-4.4414-.07421v-4.94922l4.4414.89844.8711.67187 3.4414 4.4375.125.26172 4.4375 1.16797 3.1172 3.01172-3.1172 3.5625-.51953.875.51953.16015 4.4375.03125 1.0586-.1914 3.3789-1.67579 4.44141-.58593 2.42578 2.26172-2.42578 2.33593-4.4414.95704-.20704 1.14453-4.23047 4.16015-.24609.27735.2461.2539 4.4375.5586 4.4414 1.30468 4.4375.29688 2.1875 2.02734 2.25 1.32422 3.29688 3.11328.13672 4.4375-2.63282 4.4375-.80078.79297-4.4375 1.89063-2.78906-2.6836-1.64844-1.67187-4.4414.51172-3.33204-3.27735-1.10547-1.61719-3.13671-2.8203-1.30078-1.5586-4.4375-1.03516-4.25391 2.59375-.1836.20703-4.4414 1.38672-2.28125 2.84375-2.15625 3.42969-.55469 1.00781.55469 1.28906 2.28125 3.14844-2.28125 1.8789-2.55078 2.5625-1.88672 1.64454-4.4375 1.25-3.2539 1.54297-.10938 4.4375-1.07813 2.8086-3.51562-2.8086 2.0039-4.4375-2.92578-3.15235-1.1836-1.28515-3.2539-3.33594-4.4375-.5625-4.4414-.27344-.54297-.26953-2.36719-4.4375-1.52734-.40625-4.4375-.34765-4.4375.10546"/><path fill="#00e8fc" fill-rule="evenodd" d="M170.6289 436.73438l-2.82812-.78907 2.82813-3.86328 4.07422 3.86328-4.07422.78906m0-8.94921l-.0547-.71485.0547-.05078 4.4375-4.36328.03125-.02734 4.41015-1.04297 4.4375.19922 4.4375-.19922v8.70312l-4.4375.375-1.49219.84375 1.4922.33594 4.4375 1.20313 1.80859-1.53907-1.8086-1.21875v-8.70312l4.4375.2539 4.4414.46094.66407.32813 3.77344 2.67187 1.78906 1.76953-1.78906 1.72656-4.4375 2.4336-.28516.27734-4.15625 3.13281-1.07812 1.3047-1.25 4.4375 2.32812 4.27734.27344.16015-.27344.0586-.08984-.0586-4.34766-2.96875-4.4375-.17969-3.25781-1.28906-1.17969-1.84765-3.99219-2.58985 1.76954-4.4375-2.21875-.6914-4.4375-3.03125"/><path fill="#50fcfc" fill-rule="evenodd" d="M183.94531 430.66406l-1.49219.84375 1.4922.33594 4.4375 1.20313 1.80859-1.53907-1.8086-1.21875-4.4375.375m17.7539 32.48438l-2.38671-.57422 2.38672-2.10547.69531 2.10547-.69531.57422"/><path fill="#00e8fc" fill-rule="evenodd" d="M205.95313 418.1914l-3.82813-4.4375 4.01172-4.42577.02344-.01172 3.58203-4.44141.83203-1.0586v4.96094l-.45313.53907-3.98437 2.0703-2.14453 2.3672 2.14453 2.41796 4.4375-.55078 3.125 2.57032 1.3164 1.22656 4.10547-1.22656-4.10547-2.63672-1.2578-1.80078-2.84766-4.4375-.33594-.53907v-4.96093l4.4414.07421.92188.98438-.92188 1.29688-1.16796 3.14453 1.16797 1.52734 4.4375 1.23047.79687 1.67969 3.64063 1.11328v1.58984l-4.32422 1.73438 3.05859 4.4375 1.26563.46484 4.11718 3.97656.32031.35547 4 4.08203.4375.67969 4.44141.91797 1.36719-1.59766-1.36719-1.39844-4.4414.80079-3.94532-3.83985-.49219-.22656-4.10937-4.21484 3.86719-4.4375-4.19531-1.73438v-1.58984l4.4375.73437 2.57812 2.58985-2.57813 2.53515-1.6953 1.90235 1.6953 1.73828 4.4375 1.57031 2.375 1.13281 2.06641.58203 3.77344 3.85547.66406 2.32422 3.875-2.32422.5625-.19531.20703.19531 1.375 4.4375-1.58203 2.21485-4.375 2.22265-.0625.03516-.03516-.03516-4.28906-4.4375-.11328-.01953-.07812.01953-4.36328 1.26563-1.28516-1.26563-3.01563-4.4375-.13672-.14062-3.85156-4.29688-.58594-.5664-4.4375-1.125-4.4375-2.4336-.32812-.3164-4.11328-3.79297-4.4375-.46875-.1836-.17578"/><path fill="#fff" fill-opacity="0" fill-rule="evenodd" d="M206.13672 421.01563l-2.95313 1.61328 2.95313 2.90234 4.4375-.9375 1.42969-1.96484-1.4297-1.31641-4.4375-.29688"/><path fill="#00d4fc" fill-rule="evenodd" d="M206.13672 416.17188l-2.14453-2.41797 2.14453-2.3672v2.0586l-.27734.3086.27734.3125 1.23437-.3125-1.23437-.3086v-2.0586l3.98437-2.0703.45313-.53907.33594.53907 2.84765 4.4375 1.25781 1.80078 4.10547 2.63672-4.10547 1.22656-1.3164-1.22656-3.125-2.57032-4.4375.55079"/><path fill="#00c4fc" fill-rule="evenodd" d="M206.13672 414.0664l-.27734-.3125.27734-.30859 1.23437.3086-1.23437.3125"/><path fill="#fff" fill-opacity="0" fill-rule="evenodd" d="M215.01563 425.55078l-2.0586 1.51953 2.0586 4.28906 2.83984-4.28906-2.83984-1.51953"/><path fill="#00d4fc" fill-rule="evenodd" d="M222.625 422.6289l-3.0586-4.4375 4.32423-1.73437v1.58985l-.35938.14453.35938.42187.34765-.42187-.34766-.14454v-1.58984l4.19532 1.73438-3.86719 4.4375 4.10938 4.21484.49218.22656 3.94531 3.83985 4.44141-.80079 1.36719 1.39844-1.36719 1.59766-4.4414-.91797-.4375-.67969-4-4.08203-.32032-.35547-4.11719-3.97656-1.26562-.46484"/><path fill="#00c4fc" fill-rule="evenodd" d="M223.89063 418.61328l-.35938-.42187.35938-.14454.34765.14454-.34766.42187"/><path fill="#50fcfc" fill-rule="evenodd" d="M254.04688 431.50781l-2.33204-4.4375 3.2422-3.39844V426l-1.01954 1.07031 1.01953 1.4961 1.30078-1.4961L254.95703 426v-2.32813l4.125 3.39844.3164 1.19922 1.61329 3.23828-1.61328 2.76953-4.4414-2.11328-.91017-.65625"/><path fill="#00e8fc" fill-rule="evenodd" d="M254.95703 428.5664l-1.01953-1.49609L254.95703 426l1.30078 1.07031-1.30078 1.4961"/><path fill="#50fcfc" fill-rule="evenodd" d="M268.27344 431.0625l-3.34766-3.99219 3.34766-2.66406 4.4375-1.4414v1.30859l-4.07031 2.79687 4.0703 3.03125 2.71094-3.03125-2.71093-2.79687v-1.3086l3.98047 4.10547-3.75782 4.4375-.22265.08985-.57813-.08985-3.85937-.44531"/><path fill="#00e8fc" fill-rule="evenodd" d="M272.71094 430.10156l-4.07031-3.03125 4.0703-2.79687v2.1875l-.88671.60937.88672.66016.58984-.66016-.58984-.60937v-2.1875l2.71094 2.79687-2.71094 3.03125"/><path fill="#00d4fc" fill-rule="evenodd" d="M272.71094 427.73047l-.88672-.66016.88672-.60937.58984.60937-.58984.66016"/><path fill="#50fcfc" fill-rule="evenodd" d="M276.86328 418.1914l-.55469-4.4375.84375-1.10937 1.03125 1.10938-.40625 4.4375-.625.28515-.28906-.28515m2.66406 17.7539l-1.94921-4.4375 4.01171-3.88281 4.4375.1289v1.26563l-4.4375.1914-2.375 2.29688 2.375 3.4336 4.4375-.64454 3.34766-2.78906-3.34766-2.48828v-1.26562l4.4375 1.94921 1.59375 1.8047-1.59375 1.66796-4.4375 2.54688-.94921.22265-3.48829 2.0625-2.0625-2.0625"/><path fill="#00e8fc" fill-rule="evenodd" d="M281.58984 434.9414l-2.375-3.43359 2.375-2.29687 4.4375-.1914v2.11327l-2.54296.375 2.54296.41797.50391-.41797-.5039-.375v-2.11328l3.34765 2.48828-3.34766 2.78906-4.4375.64454"/><path fill="#50fcfc" fill-rule="evenodd" d="M286.02734 425.17188l-2.60156-2.54297 2.60156-3.09766 4.4375-.10547v2.67188l-1.85156.53125 1.85156.51562.625-.51562-.625-.53125v-2.67188l3.75782 3.20313-3.75782 3.08593-4.4375-.54296"/><path fill="#00d4fc" fill-rule="evenodd" d="M286.02734 431.92578l-2.54296-.41797 2.54296-.375.50391.375-.5039.41797"/><path fill="#00e8fc" fill-rule="evenodd" d="M290.46484 423.14453l-1.85156-.51562 1.85156-.53125.625.53125-.625.51562"/><g clip-path="url(#c)"><path fill="#50fcfc" fill-rule="evenodd" d="M293.375 480.32813l1.52734-1.2422 1.12891 1.2422H293.375"/></g><path fill="#50fcfc" fill-rule="evenodd" d="M299.34375 426.98438l-4.23047-4.35547 4.23047-3.92188v.89063l-3.26953 3.03125 3.26953 3.36718 4.39844-3.36718-4.39844-3.03125v-.89063l4.4375.01953 2.90625 3.90235-.73438 4.4414-2.17187 2.32031-3.875-2.3203-.5625-.08594"/><path fill="#00e8fc" fill-rule="evenodd" d="M299.34375 425.9961l-3.26953-3.3672 3.26953-3.03124v1.48437l-1.66797 1.54688 1.66797 1.71875 2.24219-1.71875-2.24219-1.54688v-1.48437l4.39844 3.03125-4.39844 3.36718"/><path fill="#50fcfc" fill-rule="evenodd" d="M299.34375 450.76172l-1.82422-1.5 1.82422-1.28125 4.4375-2.7539v2.23827l-2.27734 1.79688 2.27734 1.51172 1.97656-1.51172-1.97656-1.79688v-2.23828l4.4375 4.01563.01563.01953-.01563.02734-4.4375 3.36719-4.4375-1.89453"/><path fill="#00d4fc" fill-rule="evenodd" d="M299.34375 424.34766l-1.66797-1.71875 1.66797-1.54688v1.48438l-.0664.0625.0664.0703.08984-.0703-.08984-.0625v-1.48438l2.24219 1.54688-2.24219 1.71875"/><path fill="#00c4fc" fill-rule="evenodd" d="M299.34375 422.69922l-.0664-.07031.0664-.0625.08984.0625-.08984.0703"/><path fill="#00e8fc" fill-rule="evenodd" d="M303.78125 450.77344l-2.27734-1.51172 2.27734-1.79688 1.97656 1.79688-1.97656 1.51172"/><path fill="#50fcfc" fill-rule="evenodd" d="M312.65625 424.9414l-2.5039-2.3125 2.5039-3.04687 2.29688 3.04688-2.29688 2.3125M321.53515 419l-1.05859-.8086 1.0586-.6914 4.4375-1.97656 4.4375-.33203 4.4375.73828 4.4414-1.11719v2.22656l-2.23828 1.15235-2.20312 1.64843-4.4375-.625-1.38672 3.41407 1.38672 1.01562 4.4375.55469 4.4414-1.09375 4.4375 2.28906 1.17578 1.67578 3.26172 3v3.08594l-1.70703 2.78906 1.70703 1.70703 4.4375.44922 1.2539-2.15625-1.2539-1.14844-4.4375-1.64062v-3.08594l2.03906-3-2.03906-3.80469-.97265-.63671-3.46485-2.375-2.4961-2.0625-1.9414-1.15235v-2.22656l4.4375 1.8789 1.80078 1.5 2.63672 1.71094 2.98047 2.72657.64844 4.4414-1.67188 4.4375 2.48047 1.07813 3.97266-1.07813.46875-.41797.4414.41797-.4414.67188-.77344 3.76562-1.1836 4.4375-2.48437 1.78906-1.79687-1.78906-2.64063-1.08594-3.34765-3.35156 1.6953-4.4375-2.78515-2.42969-2.01953-2.0078-2.41797-1.5547-4.4414.50391-4.4375-.2461-4.29297-3.14452-.14453-.25391-4.4375-3.375"/><path fill="#00e8fc" fill-rule="evenodd" d="M330.41016 423.64453l-1.38672-1.01562 1.38672-3.41407 4.4375.625 2.20312-1.64843 2.23828-1.15235 1.9414 1.15235 2.4961 2.0625 3.46485 2.375.97265.63671 2.03906 3.8047-2.03906 3-3.26172-3-1.17578-1.67579-4.4375-2.28906-4.4414 1.09375-4.4375-.55469m17.7539 14.00781l-1.70703-1.70703 1.70703-2.78906 4.4375 1.64063 1.2539 1.14843-1.2539 2.15625-4.4375-.44922"/><path fill="#50fcfc" fill-rule="evenodd" d="M374.79297 452.28516l-3.01563-3.02344 3.01563-3.04297v2.14453l-.88672.89844.88672.88672.91797-.88672-.91797-.89844v-2.14453l3.11328 3.04297-3.11328 3.02344"/><path fill="#00e8fc" fill-rule="evenodd" d="M374.79297 450.14844l-.88672-.88672.88672-.89844.91797.89844-.91797.88672"/><path fill="#50fcfc" fill-rule="evenodd" d="M379.23438 443.60156l-2.69141-3.21875.1211-4.4375 2.5703-2.57031 4.23438 2.57031.20313.1289 4.4375 1.82032 4.26562 2.48828.17188.04297 4.4375.25 2.23828-.29297 2.20312-1.69922 4.14453-2.73828.29297-.26953 4.4375-.66406 4.4375-2.17188v6.1836l-1.375 1.35937-3.0625 2.00781-2.67969-2.0078-1.7578-1.33985-1.6211 1.33984-2.8164 1.21094-4.44142.14063-4.4375.08593-2.6289 3-1.6836 4.4414-.125.5586-1.40234 3.8789-2.5039 4.4375-.53125 1.42188-1.98438 3.01563 1.98438 2.1211 3.67578 2.3203.76171.79297.8086-.79296 3.42969-4.44141.19921-.35156 4.4375-1.3711 4.44141-.51953 2.36719-2.19531-2.36719-2.76172-.79297-1.67578.79297-3.72656 4.4375 2.68359 4.4375-.17188 1.76953-3.22265.84766-4.4414 1.82031-2.89454 1.5586-1.54297-1.5586-1.35937v-6.1836l2.1289 3.10547 2.3125 1.98438 2.22657 2.45312 1.27734 4.4375-3.5039 3.3125-4.4414-1.00781-.79688 2.13672-.97657 4.4375-2.66406 3.1914-4.4375.96094-.11719.28516.1172.33203 2.73437 4.10547-2.73438 2.63672-3.35156-2.63672-1.08594-.42578-2.69922.42578-1.74219.98437-4.4375 1.97266-.97656 1.48438-3.46094 3.40234-3.2578-3.40235-1.1797-.74609-3.45703-3.69531 1.88672-4.4375 1.57031-1.58203 1.20313-2.85547.65625-4.4375 2.57813-2.88281.58593-1.5586-.58594-1.78515-4.4375.40234-4.4375.16406"/><path fill="#00e8fc" fill-rule="evenodd" d="M383.67188 464.69531l-1.98438-2.1211 1.98438-3.01562.53125-1.42187 2.5039-4.4375 1.40235-3.8789.125-.5586 1.68359-4.4414 2.6289-3 4.4375-.08594v1.76171l-4.4375.64844-.58984.67578-1.83203 4.4414-1.46875 4.4375-.54688 1.03126-2.5039 3.40625-1.59766 4.4375 4.10156 3.28906 2.96485-3.28906 1.47265-2.60156 3.57422-1.83594.86329-.71094 1.85937-3.72656 1.51953-4.4375 1.0625-3.76172 2.57031-.67969-2.5703-.45703-4.44142-.86719v-1.76171l4.44141-.14063 2.8164-1.21094 1.6211-1.33984 1.75781 1.33984 2.6797 2.00781 3.0625-2.0078 1.375-1.35938 1.55858 1.35937-1.55859 1.54297-1.82031 2.89453-.84766 4.4414-1.76953 3.22267-4.4375.17187-4.4375-2.6836-.79297 3.72657.79297 1.67578 2.36719 2.76172-2.36719 2.19531-4.4414.51953-4.4375 1.3711-.19922.35156-3.4297 4.4414-.80858.79297-.76172-.79296-3.67579-2.32032"/><path fill="#00d4fc" fill-rule="evenodd" d="M388.10938 465.86328l-4.10157-3.28906 1.59766-4.4375 2.5039-3.40625.54688-1.03125 1.46875-4.4375 1.83203-4.4414.58985-.67579 4.4375-.64844v1.83594l-4.4375 2.66406-.53125 1.26563-2.35547 4.4375-1.55079 2.9336-1.10546 1.5039-1.23829 4.4375 2.34375 1.8789 1.69532-1.8789 1.90625-4.4375.83594-.26563 4.4375-4.03906.0703-.13281 2.15235-4.4375-2.22265-3.92969v-1.83594l4.4414.8672 2.57031.45702-2.5703.67969-1.0625 3.76172-1.51954 4.4375-1.85938 3.72656-.86328.71094-3.57421 1.83594-1.47266 2.60156-2.96485 3.28906"/><path fill="#00c4fc" fill-rule="evenodd" d="M388.10938 464.45313l-2.34375-1.87891 1.23828-4.4375 1.10546-1.5039v3.21484l-.58593 2.72656.58594.46875.42187-.46875-.42188-2.72656v-3.21485l1.55079-2.9336 2.35546-4.4375.53125-1.26562 4.4375-2.66406v2.04688l-2.48828 1.8828-1.94921 1.23048-1.88282 3.20703 1.88281 2.71875 2.9336-2.71875 1.5039-2.26953 1.06641-2.16797-1.0664-1.88281v-2.04688l2.22265 3.92969-2.15234 4.4375-.07031.13281-4.4375 4.03906-.83594.26563-1.90625 4.4375-1.69531 1.8789"/><path fill="#00b8fc" fill-rule="evenodd" d="M388.10938 463.04297l-.58594-.46875.58594-2.72656.42187 2.72656-.42188.46875m4.4375-6.625l-1.8828-2.71875 1.8828-3.20703v1.71094l-.875 1.49609.875 1.26562 1.3672-1.26562-1.3672-1.4961v-1.71093l1.94922-1.23047 2.48829-1.88281 1.0664 1.8828-1.0664 2.16798-1.50391 2.26953-2.9336 2.71875"/><path fill="#00a8fc" fill-rule="evenodd" d="M392.54688 454.96484l-.875-1.26562.875-1.4961 1.36718 1.4961-1.36719 1.26562"/><g clip-path="url(#d)"><path fill="#fff" fill-opacity="0" fill-rule="evenodd" d="M467.9961 480.32813H468V311.67188h-.0039H468v168.65625h-.0039"/></g><path fill="#fff" fill-opacity="0" fill-rule="evenodd" d="M225.34375 419.28906l5.82031-.4961-.84765-9.92577-5.82032.5.84766 9.92187"/><path fill-rule="evenodd" d="M228.13672 410.89453l.50781-.04297.53516 6.26953-.78125.06641-.38281-4.47266-1.38282.1211-.04687-.55469.55078-.11328.2461-.07422.22265-.10938.1875-.15625.15625-.22656.11719-.30469.0703-.40234"/><path fill="#fff" fill-opacity="0" fill-rule="evenodd" d="M215.82422 437.59766l4.48047-3.75-6.39453-7.63672-4.48047 3.75 6.39453 7.63672"/><path fill-rule="evenodd" d="M213.28906 429.1211l.39063-.32813 4.04297 4.82812-.60547.50391-2.88281-3.4414-1.0625.89062-.35547-.42578.38672-.41016.15625-.20312.12109-.21485.0625-.23828v-.27344l-.07813-.3164-.17578-.3711"/><g clip-path="url(#e)"><path fill="none" stroke="#000" stroke-linecap="round" stroke-linejoin="round" stroke-miterlimit="10" stroke-width=".5" d="M147.15625 481.875l-6.3125-3.09375"/></g><g clip-path="url(#f)"><path fill="none" stroke="#000" stroke-linecap="round" stroke-linejoin="round" stroke-miterlimit="10" stroke-width=".5" d="M160.42969 481.95313l-6.23047-3.25"/></g><g clip-path="url(#g)"><path fill="none" stroke="#000" stroke-linecap="round" stroke-linejoin="round" stroke-miterlimit="10" stroke-width=".5" d="M173.4414 482.4336l-5.625-4.21094"/></g><g clip-path="url(#h)"><path fill="none" stroke="#000" stroke-linecap="round" stroke-linejoin="round" stroke-miterlimit="10" stroke-width=".5" d="M186.98828 482.08203l-6.08594-3.50781"/></g><g clip-path="url(#i)"><path fill="none" stroke="#000" stroke-linecap="round" stroke-linejoin="round" stroke-miterlimit="10" stroke-width=".5" d="M200.58203 481.47656l-6.64062-2.29687"/></g><g clip-path="url(#j)"><path fill="none" stroke="#000" stroke-linecap="round" stroke-linejoin="round" stroke-miterlimit="10" stroke-width=".5" d="M213.86328 481.5625l-6.57812-2.46875"/></g><g clip-path="url(#k)"><path fill="none" stroke="#000" stroke-linecap="round" stroke-linejoin="round" stroke-miterlimit="10" stroke-width=".5" d="M227.16016 481.61328l-6.53907-2.5664"/></g><g clip-path="url(#l)"><path fill="none" stroke="#000" stroke-linecap="round" stroke-linejoin="round" stroke-miterlimit="10" stroke-width=".5" d="M240.35547 481.88672l-6.30078-3.11328"/></g><g clip-path="url(#m)"><path fill="none" stroke="#000" stroke-linecap="round" stroke-linejoin="round" stroke-miterlimit="10" stroke-width=".5" d="M253.73047 481.76172l-6.41797-2.86328"/></g><g clip-path="url(#n)"><path fill="none" stroke="#000" stroke-linecap="round" stroke-linejoin="round" stroke-miterlimit="10" stroke-width=".5" d="M266.83594 482.16016l-6-3.66407"/></g><g clip-path="url(#o)"><path fill="none" stroke="#000" stroke-linecap="round" stroke-linejoin="round" stroke-miterlimit="10" stroke-width=".5" d="M280.04688 482.3164l-5.79297-3.97656"/></g><g clip-path="url(#p)"><path fill="none" stroke="#000" stroke-linecap="round" stroke-linejoin="round" stroke-miterlimit="10" stroke-width=".5" d="M293.60938 481.89844l-6.28516-3.14063"/></g><g clip-path="url(#q)"><path fill="none" stroke="#000" stroke-linecap="round" stroke-linejoin="round" stroke-miterlimit="10" stroke-width=".5" d="M307.1875 481.17969l-6.8164-1.70313"/></g><g clip-path="url(#r)"><path fill="none" stroke="#000" stroke-linecap="round" stroke-linejoin="round" stroke-miterlimit="10" stroke-width=".5" d="M306.19922 480.9336l.29297 1.1914"/></g><g clip-path="url(#s)"><path fill="none" stroke="#000" stroke-linecap="round" stroke-linejoin="round" stroke-miterlimit="10" stroke-width=".5" d="M320.51953 481.11328l-6.84765-1.57031"/></g><g clip-path="url(#t)"><path fill="none" stroke="#000" stroke-linecap="round" stroke-linejoin="round" stroke-miterlimit="10" stroke-width=".5" d="M319.52344 480.88672l.32031 1.1836"/></g><g clip-path="url(#u)"><path fill="none" stroke="#000" stroke-linecap="round" stroke-linejoin="round" stroke-miterlimit="10" stroke-width=".5" d="M333.61328 481.77344l-6.40625-2.89063"/></g><g clip-path="url(#v)"><path fill="none" stroke="#000" stroke-linecap="round" stroke-linejoin="round" stroke-miterlimit="10" stroke-width=".5" d="M346.80469 482.02344l-6.15625-3.39063"/></g><g clip-path="url(#w)"><path fill="none" stroke="#000" stroke-linecap="round" stroke-linejoin="round" stroke-miterlimit="10" stroke-width=".5" d="M359.79297 482.51563l-5.5039-4.3711"/></g><g clip-path="url(#x)"><path fill="none" stroke="#000" stroke-linecap="round" stroke-linejoin="round" stroke-miterlimit="10" stroke-width=".5" d="M373.42578 482.03906l-6.14062-3.41797"/></g><g clip-path="url(#y)"><path fill="none" stroke="#000" stroke-linecap="round" stroke-linejoin="round" stroke-miterlimit="10" stroke-width=".5" d="M383.70313 483.84375l-.0625-7.02734"/></g><g clip-path="url(#z)"><path fill="none" stroke="#000" stroke-linecap="round" stroke-linejoin="round" stroke-miterlimit="10" stroke-width=".5" d="M400.09375 478.6875l-6.21484 3.28125"/></g><g clip-path="url(#A)"><path fill="none" stroke="#000" stroke-linecap="round" stroke-linejoin="round" stroke-miterlimit="10" stroke-width=".5" d="M413.47656 481.83203l-6.35156-3.00781"/></g><g clip-path="url(#B)"><path fill="none" stroke="#000" stroke-linecap="round" stroke-linejoin="round" stroke-miterlimit="10" stroke-width=".5" d="M426.51953 482.3086l-5.80469-3.96094"/></g><g clip-path="url(#C)"><path fill="none" stroke="#000" stroke-linecap="round" stroke-linejoin="round" stroke-miterlimit="10" stroke-width=".5" d="M438.40625 483.51953l-2.94922-6.3789"/></g><g clip-path="url(#D)"><path fill="none" stroke="#000" stroke-linecap="round" stroke-linejoin="round" stroke-miterlimit="10" stroke-width=".5" d="M451.96484 483.39453l-3.4375-6.1289"/></g><g clip-path="url(#E)"><path fill="none" stroke="#000" stroke-linecap="round" stroke-linejoin="round" stroke-miterlimit="10" stroke-width=".5" d="M466.83984 481.59375l-6.55468-2.53125"/></g><g clip-path="url(#F)"><path fill="none" stroke="#000" stroke-linecap="round" stroke-linejoin="round" stroke-miterlimit="10" stroke-width=".5" d="M465.88672 481.22656l.14453 1.21875"/></g><g clip-path="url(#G)"><path fill="none" stroke="#000" stroke-linecap="round" stroke-linejoin="round" stroke-miterlimit="10" stroke-width=".5" d="M146.88281 469.01953l-5.76562-4.01172"/></g><path fill="none" stroke="#000" stroke-linecap="round" stroke-linejoin="round" stroke-miterlimit="10" stroke-width=".5" d="M146.04297 468.4375l-.14453 1.21875m13.86719-.125l-4.90235-5.03516m4.90234 5.03516l-.74609 2.33594m14.49219-2.83985L167.75 465m5.76172 4.02734l-.29688 2.4336m13.83985-2.8086l-6.21875-3.27734m6.21875 3.27734l.00781 2.45313m13.41016-2.66797l-6.42188-2.84766m6.42188 2.84766l.17187 2.44922m13.1836-2.54297l-6.50391-2.66016m6.5039 2.66016l.2422 2.4414m13.0664-2.42187l-6.49219-2.69922m6.49219 2.69922l.23047 2.4414m13.15234-2.625l-6.6289-2.33202m6.6289 2.33203l.36719 2.42578m13.07422-2.8711l-6.8789-1.4414m6.8789 1.4414l.6836 2.35547m12.42187-1.6953l-6.46094-2.76173m6.46094 2.76172l.21093 2.44531m12.83204-1.92968l-5.91797-3.79297m5.91797 3.79297l-.19922 2.4453m13.61328-2.60937l-6.11328-3.46484m6.11328 3.46484l-.0664 2.45313m13.8125-3.76563l-6.97657-.83984m6.97656.83984l.88281 2.28907m12.4375-2.34766l-6.98828-.72266m5.97266.6172l.46094 1.13671m13.8164-.67578l-6.8789-1.4336m5.8789 1.22657l.33985 1.17578m13.95312-.8711l-6.83594-1.6289m5.83985 1.39062l.3086 1.1875m13.9414-.72265l-6.71485-2.08203m5.73829 1.77734l.23046 1.20703m14.21485-1.84766l-7.02344-.1914m6.0039.16406l.54298 1.10156m13.52734-2.51562l-6.49219 2.6914m17.34375 2.07813l-1.5664-6.84766m1.33984 5.85157l-.92969.80468m16.29297-.875l-5.21094-4.71484m4.45313 4.02734l-.29688 1.19141m14.22266-.35156l-4.91406-5.01953m4.19922 4.28906l-.3711 1.17187m14.57422-.625l-5.26172-4.65234m4.4961 3.97656l-.28516 1.1914m13.16797.3672l-2.86328-6.41797m2.4453 5.48437l-.7539.96875m16.41016-2.20703l-6.71484-2.07422m5.73828 1.76953l.23047 1.20703"/><g clip-path="url(#H)"><path fill="none" stroke="#000" stroke-linecap="round" stroke-linejoin="round" stroke-miterlimit="10" stroke-width=".5" d="M147.23438 455.0664l-6.46875-2.73827"/></g><path fill="none" stroke="#000" stroke-linecap="round" stroke-linejoin="round" stroke-miterlimit="10" stroke-width=".5" d="M147.23438 455.0664l.21875 2.44532m12.80859-1.89844l-5.89063-3.83203m5.89063 3.83203l-.21875 2.44531m13.28516-2.10546l-5.39454-4.50782m5.39453 4.50781l-.5078 2.39844m14.1328-2.83594l-6.01562-3.6328m6.01563 3.6328l-.13282 2.44922m13.79297-3.21875l-6.70703-2.09375m6.70703 2.09375l.45313 2.41016m12.92578-2.64063l-6.83203-1.63671m6.83203 1.63672l.61719 2.3789m12.71484-2.44922l-6.86719-1.4961m6.86719 1.4961l.66406 2.36328m12.58203-2.10156l-6.73047-2.01562m6.73047 2.01562l.48438 2.40625m12.91797-2.75781l-6.90235-1.3125m6.90235 1.3125l.72656 2.34375m12.41797-1.75l-6.5625-2.5039m6.5625 2.5039l.30469 2.4375m12.76562-1.91797l-6.07422-3.53906m6.07422 3.53906l-.09375 2.44922m12.82422-1.70313l-4.90235-5.03515m4.1875 4.30469l-.375 1.16796m14.76172-.84375l-5.62109-4.21875m4.80469 3.60157l-.1875 1.21484m15.01953-2.53906l-7.01953-.33985m6 .29297l.51953 1.10938m13.78515-.75l-6.96093-.96094m5.94922.82031l.42187 1.15235m13.9375-1.3672l-7.02344-.25m6 .21095l.53907 1.10547m13.1289-3.25782l-5.6836 4.13281m4.85548-3.53125l1.10547.53516m12.91406-1.29687l-5.4336 4.45312m4.64063-3.80469l1.13281.46875m10.5664-2.39062l-.61718 7M400.5 453.79297l-7.02734-.1914m6.0039.16406l.54688 1.09765m9.67578 2.29688l1.20312-6.92188m-1.02734 5.91406l-1.16406.38282m16.67187.19922l-3.53125-6.07422m3.01563 5.1914l-.64453 1.04297m14.13671.01563l-2.85546-6.42188m2.4414 5.48438l-.7539.96875m14.52734-.0547l-2.94531-6.3789m2.51953 5.45313l-.74219.97656m14.89453-.27344l-3.76562-5.9336m3.21484 5.07032l-.60547 1.0664"/><g clip-path="url(#I)"><path fill="none" stroke="#000" stroke-linecap="round" stroke-linejoin="round" stroke-miterlimit="10" stroke-width=".5" d="M147.3711 441.375l-6.7422-1.98438"/></g><path fill="none" stroke="#000" stroke-linecap="round" stroke-linejoin="round" stroke-miterlimit="10" stroke-width=".5" d="M147.3711 441.375l.49218 2.40625m12.32422-1.375l-5.7461-4.04688m5.7461 4.04688l-.3086 2.4375m12.76954-1.58594l-4.03906-5.75m3.45312 4.91406l-.55469 1.09375m14.20313-.09375l-3.53125-6.07812m3.01562 5.19531l-.64844 1.03906m15.40235-.92968l-5.375-4.52735m5.375 4.52735l-.51563 2.39843m14.125-2.80859l-5.96875-3.71094m5.96875 3.71094l-.16406 2.44922m13.5625-2.59375l-6.13672-3.42188m6.13672 3.42188l-.04687 2.45312m13.80859-4.0664l-7.02734-.19531m6.0039.16796l.54688 1.09766m13.78125-1.41797l-7.00781.5m5.98828-.42578l.65234 1.03906m13.65234-.3203l-6.9453-1.08595m6.9453 1.08594l.80078 2.32031m12.44922-2l-6.8125-1.72265m6.8125 1.72265l.58203 2.38282m12.4961-1.73047l-6.34375-3.02735m5.42187 2.58594l.05078 1.22656m13.91407-.3164l-5.79688-3.96875m4.95313 3.39062l-.13672 1.22266m14.64062-1.27344l-6.48828-2.70703m5.54297 2.3125l.11328 1.21875m14.33203-2.94922l-6.85547 1.54297m5.85547-1.32031l.80078.92969m13.2461-1.91407l-6.32031 3.0664m5.40234-2.62109l.98828.72266m12.3789-2.29687l-4.58984 5.3203m3.92188-4.54687l1.19922.27344m10.70312-1.89453l-.42578 7.01563m.42578-7.01563l2.23047-1.01563m7.65234 3.11329l6.4336 2.82422m-5.4961-2.41407l-.09375-1.22265m14.46875 5.51953l2.44141-6.58985m-2.4414 6.58985l-2.4336.32422m16.84766-.10938l.2461-7.02344m-.21095 6.00391l-1.10547.53516m15.3672.3789l-1.72266-6.8125m1.47265 5.82032l-.90625.82421m14.79688.07032l-2.3711-6.61328m2.02735 5.64843l-.82422.91016m16.33203-1.48438l-6.07031-3.53906m5.1875 3.02344l-.04688 1.22656m11.89063.96875l-1.36328-6.89453m1.16406 5.89063l-.94922.77343"/><g clip-path="url(#J)"><path fill="none" stroke="#000" stroke-linecap="round" stroke-linejoin="round" stroke-miterlimit="10" stroke-width=".5" d="M146.99219 428.91016l-5.98438-3.6836"/></g><path fill="none" stroke="#000" stroke-linecap="round" stroke-linejoin="round" stroke-miterlimit="10" stroke-width=".5" d="M146.1211 428.375l-.07813 1.22266m14.04687-.3711l-5.54687-4.3164m4.73828 3.6875l-.21094 1.21093m14.28516-.51953l-5.44922-4.4414m4.65625 3.79297l-.23828 1.20703m13.34766.28125l-3.45313-6.1211m2.94922 5.23047l-.66016 1.03516m14.67969-.26953l-3.85547-5.8711m3.29688 5.01953l-.58985 1.07422m14.95703-.61328l-4.84375-5.08984m4.14063 4.35156l-.38672 1.16406m15.4375-2.32812l-6.90625-1.28516m19.41797 2.94922l-5.30078-4.61328m4.53125 3.9414l-.27735 1.19532m11.52344.67969l.375-7.01954m-.32031 5.9961l-1.11328.51953m16.17578.11328l-3.22656-6.23828m18.2539 1.98437l-6.65234 2.26953m5.6836-1.9375l.89452.83985m10.64063 3.42969l-1.15235-6.9336m12.64454 6.75l2.49218-6.5664m13.01563-.09766l-1.89453 6.76562m1.6211-5.78125l1.19921-.26562m13.26953-.33984l-3.65234 6.0039m3.65234-6.0039l2.44922.14062m11.08203.0039l-4.08594 5.71485m3.4922-4.88281l1.21483.16015m13.23438-.51562l-5.16797 4.76172m13.25781-4.69922l5.28125 4.63672m-4.51171-3.96094l.28125-1.19531m11.80859 1.17578l6.1914 3.32422m-6.1914-3.32422l.01172-2.45313m.89062 2.9375l.0039-1.22656m12.07032 1.67578l6.8711 1.45703m-5.8711-1.24218l-.33984-1.17969m18.91015 3.78906l-5.64062-4.1875m5.64062 4.1875l-.36328 2.42578m10.99219-1.01172l-.26563-7.01953m.22657 6l-1.0625.6172m14.6875.3828l-.8086-6.98047m.8086 6.98047l-2.01953 1.39453m15.88671-1.5039l-1.91406-6.76172m1.63672 5.77734l-.88672.85157m13.66016.26171l-.27344-7.01953m.23047 6l-1.0586.6172"/><g clip-path="url(#K)"><path fill="none" stroke="#000" stroke-linecap="round" stroke-linejoin="round" stroke-miterlimit="10" stroke-width=".5" d="M147.17578 415.25781l-6.35156-3.00781"/></g><path fill="none" stroke="#000" stroke-linecap="round" stroke-linejoin="round" stroke-miterlimit="10" stroke-width=".5" d="M146.25 414.82031l.0586 1.22656m13.84374-.21875l-5.67187-4.14843m4.84375 3.54297l-.17188 1.21484m13.07032.44922l-3.1836-6.26563m2.71875 5.35157l-.70312 1.0039m14.51562-.10937l-3.25-6.23047m2.77735 5.32422l-.69532 1.01172m15.1875-.58985l-4.65625-5.26172m3.97657 4.4961l-.4297 1.15234m8.83595-1.70703l6.51953-2.6211m8.25781 4.33204l3.59375-6.03907m-3.07031 5.16016l-1.22656-.0586m15.61328 1.42579l.40625-7.01563m-.40625 7.01563l-2.23047 1.02344m17.59375-1.54297l-3.69531-5.97657m3.15625 5.10547l-.6172 1.0625m13.75391.14844l-2.2578-6.65625m1.92968 5.6875l-.83985.89453m14.35938.11328l-2.01172-6.73437m1.71875 5.7539l-.8711.86329m14.31641.16015l-1.68359-6.82031m1.4375 5.82813l-.91406.8203m15.27344-.1328l-3.28125-6.21485m2.80468 5.3125l-.6914 1.01563m16.02343-1.72266l-6.35937-2.99219m5.4336 2.55469l.05859 1.22656m12.26953-5.5625l-2.53906 6.55469m2.17187-5.60156l1.21484-.14453m14.48438 1.22265l-6.57031 2.48828m5.61328-2.125l.92187.8086m12.48047 2.625l-4.83203-5.10156m19.125 3.45312l-6.78906-1.80469m16.94531-2.60547l-.46875 7.01172m.46875-7.01172l2.23828-1.0039m9.57031 1.23437l2.54297 6.55469m-2.54297-6.55469l1.60547-1.85547m11.60547 1.89844l2.75 6.46875m-2.75-6.46875l1.54297-1.90625m-1.14062 2.84766l.76953-.95313m16.5625 5L420.57422 412m6.08594 3.50781l-.08203 2.45313m13.66406-3.02735l-6.6211-2.36328m5.65625 2.01953l.1797 1.21485m14.05859-.76953l-6.53907-2.56641m5.58985 2.19531l.14062 1.21875m14.27735-2.92578l-6.84375 1.59375m5.84765-1.36328l.80469.92578"/><g clip-path="url(#L)"><path fill="none" stroke="#000" stroke-linecap="round" stroke-linejoin="round" stroke-miterlimit="10" stroke-width=".5" d="M147.4961 400.07813l-6.9922.71875"/></g><path fill="none" stroke="#000" stroke-linecap="round" stroke-linejoin="round" stroke-miterlimit="10" stroke-width=".5" d="M146.47656 400.1836l.6836 1.01952m13.4453-1.99609l-6.58202 2.46485m13.75781.82421l5.69922-4.11328m8.28125 4.8086l4.36328-5.50782m8.16406.87891l5.9414 3.7539m-5.07421-3.20702l.08984-1.22657m11.90235 3.32422l6.85547-1.53906m-5.85938 1.3164l-.80078-.93359m13.32031 1.77735l6.45313-2.77735m12.67969 3.75781l-5.1836-4.74218m4.42969 4.05468l-.30469 1.1875m13.59375.14063l-3.625-6.01953m3.09766 5.14062l-.6289 1.05469m15.30858-.8789l-5.30078-4.61329m5.30078 4.61328l-.55078 2.39063m14.71094-4.33203l-6.98828-.73438m5.97266.6289l.45703 1.13673m13.42187.35937l-6.08593-3.51562m5.19921 3.0039l-.04296 1.22657m14.0039-.35157l-5.60156-4.24218m4.78516 3.625l-.19532 1.21093m13.97657-.1953l-4.90235-5.03517m4.1875 4.30079l-.375 1.16796m15.41797-3.53515l-6.92969 1.16406m5.92188-.9961l.75.97657m13.57812-.00781l-6.9375-1.10938m16.84375 4.07031l-.1211-7.02734m.10548 6.0039l-1.07422.59376m14.80078.39844l-.91016-6.96875m14.4297.03515l-1.32032 6.90235m1.1289-5.89844l1.17188-.36328m10.22656-.39063l2.89453 6.40235m-2.47265-5.47266l.75-.96875m11.23047 5.83984l4.71875-5.20312m14.03125.90234l-6.14844 3.39844m5.2539-2.90235l1.02735.66797m13.59766.9336l-6.98047-.79688m5.96484.6836l.44922 1.14062m13.84375-.77734l-6.90625-1.29688m6.90625 1.29688l.73437 2.34375m12.1172-4.83985l-5.97657 3.69532"/><g clip-path="url(#M)"><path fill="none" stroke="#000" stroke-linecap="round" stroke-linejoin="round" stroke-miterlimit="10" stroke-width=".5" d="M466.55078 398.58984l2.11719 1.23829"/></g><g clip-path="url(#N)"><path fill="none" stroke="#000" stroke-linecap="round" stroke-linejoin="round" stroke-miterlimit="10" stroke-width=".5" d="M146.82031 385.02734l-5.64062 4.19141"/></g><path fill="none" stroke="#000" stroke-linecap="round" stroke-linejoin="round" stroke-miterlimit="10" stroke-width=".5" d="M146.82031 385.02734l2.21875 1.0547m8.21875-2.47267l.11719 7.02735m-.10156-6.0039l1.07422-.59376m8.9453 4.1836l6.67579-2.19922m6.63672 2.1914l6.67969-2.18359m-5.70703 1.86719l-.88672-.85156m13.08593.53125l6.96875-.91016m-5.95703.77734l-.71094-1m15.26172 3.96875l2.46875-6.58203m-2.10937 5.625l-1.21484.15625m15.40625 1.02344v-7.02735m0 6.00391l-1.08204.57813m17.48047-4.75391l-6.16797 3.3711m5.26953-2.87891l1.02735.67187m13.32422-.88281l-6.4414 2.8086m6.4414-2.8086l1.92187 1.52734m11.67188-.41406l-7 .58203m5.98047-.4961l.66406 1.03126m12.76562-3.19531l-5.1914 4.73828m4.4375-4.04688l1.15625.41016m13.69531.30078l-6.7539 1.9375m6.7539-1.9375l1.70313 1.76172m11.72265-1.21485l-6.97656.83985m5.96094-.71875l.70312 1.00781m13.40625-2.0039l-6.53515 2.58984m6.53515-2.58985l1.86719 1.58985m11.54297-1.3125l-6.72656 2.03515m5.75-1.73828l.86328.8711m11.53515-3.34375l-2.9375 6.38672m16-6.48829l-2.4336 6.58985m2.07813-5.63281l1.21875-.16407m14.23438.66797l-5.9961 3.66797m5.9961-3.66797l2.10937 1.25m9.27344-2.76172l-2.13672 6.69141m2.13672-6.6914l2.41406-.44141M384.4297 384.75l1.20703-.21875m12.08203-.84375l-1.46484 6.8711m1.46484-6.8711l2.35938-.67578m-2.57032 1.67578l1.17578-.33984m12.03125-.71485l-.82812 6.98047m.82812-6.98047l2.28907-.88672m-2.41016 1.90235l1.14453-.4414m13.02344-.40626l-2.29297 6.64453m2.29297-6.64453l2.42578-.38281m11.21094.51172l-2.9336 6.38672m2.50782-5.45704l1.22656-.0703m14.5586 2.46874l-7.02344-.26953m7.02343.26953l1.07032 2.20703m12.23828-2.61328l-7.00782.54297m5.98829-.46484l.65625 1.03515"/><g clip-path="url(#O)"><path fill="none" stroke="#000" stroke-linecap="round" stroke-linejoin="round" stroke-miterlimit="10" stroke-width=".5" d="M146.0664 370.96875l-4.1328 5.67969"/></g><path fill="none" stroke="#000" stroke-linecap="round" stroke-linejoin="round" stroke-miterlimit="10" stroke-width=".5" d="M146.0664 370.96875l2.4297.33984m11.3203.03125l-5 4.9375m4.26954-4.21875l1.17187.36329m13.78516 2.21875l-6.82422-1.66407m5.83203 1.42188l.30078 1.1875m12.70703 1.02734L181.83203 371m3.61328 4.79688l-.51953 1.11328m10.05469-.4297l4.5586-5.34765m-3.89454 4.57031l-1.19922-.26171m19.28125-3.19141l-6.30078 3.11328m19.55078.1211l-6.17187-3.35157m6.17187 3.35156l-.01953 2.45313m13.73047-3.67188l-6.96484-.91406m6.96484.91406l.86328 2.29688m12.33203-3.77734l-6.72265 2.04687m6.72265-2.04687l1.73047 1.73828m11.66406-1.41406l-6.8828 1.39843m6.8828-1.39844L268.83984 375m11.8125-.90234l-7.0039-.57813m7.0039.57813l.96875 2.2539m12.34375-2.85937l-7 .63281m5.98047-.53906l.67188 1.02734m13.67578-.69531l-7.02344-.21875m7.02344.21875l1.08203 2.19922m11.85937-3.89063l-6.27734 3.16406m6.27734-3.16406l2.00391 1.41797m10.76953-2.20312l-5.1914 4.73437m4.43359-4.04687l1.15625.41406m12.03516-1.80078l-3.4297 6.13281m3.4297-6.13281l2.45312.05078m10.95313 0l-3.61329 6.03125m3.61329-6.03125l2.44921.125m-2.97656.7539l1.22656.0625m13.67579.04297l-5.73438 4.0625m5.73438-4.0625l2.1914 1.10547m-3.02344-.51562l1.09375.55469m13.15625-.9922l-5.9375 3.75782m5.9375-3.75781l2.13282 1.21484m9.25-2.69531l-2.07422 6.71484m2.07422-6.71484l2.41015-.46094m10.77735.42578l-1.8164 6.78906m1.8164-6.78906l2.39062-.55078m-2.65625 1.53906l1.19531-.27734m11.71485-.82031l-.48047 7.00781m.48047-7.00781l2.24219-1.0039m10.55859 1.0039l.55078 7.00781m14.6211-.36719l-3.16016-6.27344m3.16015 6.27344l-1.41796 2.0039m10.73828-2.58983l4.82812-5.10157"/><g clip-path="url(#P)"><path fill="none" stroke="#000" stroke-linecap="round" stroke-linejoin="round" stroke-miterlimit="10" stroke-width=".5" d="M146.22656 357.77344l-4.45312 5.4375"/></g><path fill="none" stroke="#000" stroke-linecap="round" stroke-linejoin="round" stroke-miterlimit="10" stroke-width=".5" d="M146.22656 357.77344l2.40625.48047m12.16797 1.80859l-6.97266.85938m5.96094-.73438l.70313 1.00781m13.41406-1.97656l-6.55078 2.54688m18.92187 1.35546l-4.66406-5.2539m4.66406 5.2539l-.85547 2.30079m14.96094-3.32032l-6.2461-3.21484m5.33985 2.7461l.01563 1.22656m13.71875-.04297l-5.27344-4.64454m4.50781 3.96875l-.28515 1.19141m15.23437-3.11328l-7.00781.55078m7.00781-.55078l1.3164 2.0664m11.6875-3.2539l-6.38671 2.92578m6.38672-2.92578l1.94922 1.49219m-2.875-1.0664l.97265.74608m12.33203-2.40234l-4.51172 5.38672m4.51172-5.38672l2.39844.5039m-3.05469.27735l1.19922.2539m12.45703-1.26952l-3.88672 5.85546m3.88672-5.85546l2.44532.23828m-3.00782.61328l1.21875.11719m12.5-1.07032l-3.5664 6.0547m3.5664-6.0547l2.45313.10938m12.48828 2.0625l-6.8164 1.71484m6.8164-1.71484l1.64453 1.82031m11.66016-1.85547l-6.79688 1.78125m6.79688-1.78125l1.66406 1.80469m10.0586-3.92578l-3.61329 6.02734m3.61328-6.02734l2.44922.125m11.16016.07031l-4.19922 5.63672m4.19922-5.63672l2.42578.3711m10.59766-.56641l-3.6172 6.02734m3.6172-6.02734l2.44921.125m-2.97656.75l1.22656.0664m13.35157-.35156l-5.08985 4.84375m5.08985-4.84375l2.32812.77735m-3.0664-.07032l1.16406.38672m12.05469-1.74219l-3.42188 6.14063m3.42188-6.14063l2.45312.05079m-2.94922.84375l1.22656.02343m13.26172-.42578l-4.77343 5.15625m4.77343-5.15625l2.3711.6289m-3.0664.1211l1.1875.3164m12.04296-1.60937l-3.21484 6.2461m3.21484-6.2461l2.45313-.03515m-2.92188.9414l1.23047-.01562m11.92578-1.14063l-1.96094 6.7461m1.96094-6.7461l2.40234-.5039m11.60157.78125l-3.33594 6.1875m3.33594-6.1875l2.45312.01562m11.01172.07422L435.11328 363.5m3.63672-6.01172l2.44922.13281m12.5625 2.89454l-7.02735-.04297m7.02735.04296l1.13672 2.17188m10.21875-5.34375l-3.10938 6.30078"/><g clip-path="url(#Q)"><path fill="none" stroke="#000" stroke-linecap="round" stroke-linejoin="round" stroke-miterlimit="10" stroke-width=".5" d="M146.78906 345.03906l-5.57812 4.27735"/></g><path fill="none" stroke="#000" stroke-linecap="round" stroke-linejoin="round" stroke-miterlimit="10" stroke-width=".5" d="M145.97656 345.66016l1.11719.51171m13.53516-.16015L154 348.34375m5.66406-1.99219l.90235.83203m13.11718-1.74218l-6.10547 3.47265m6.10547-3.47265l2.07422 1.3125m11.14063 2.32812l-5.90625-3.8086m5.90625 3.8086l-.20703 2.44531m-.65235-3l-.10547 1.22266m14.53907-1.14453l-6.42188-2.85547m6.42188 2.85547l.17187 2.44531m13.01172-5.5586l-6.16406 3.375m6.16406-3.375l2.05078 1.34766m10.7539-2.05468l-5.14062 4.78515m5.14063-4.78515l2.32031.80078m10.9961-.80469l-5.14063 4.79297m5.14062-4.79297l2.31641.80078m-3.0664-.10156l1.16015.39844m12.2539-1.64454l-3.83984 5.88672m3.83985-5.88671l2.4414.21875m-3 .63671l1.21875.10938m12.17188-1.22656l-2.875 6.41015m2.875-6.41015l2.44922-.16407m10.85156.15625l-2.84766 6.42579m2.84766-6.42579l2.44922-.17187m12.54687 1.74219l-6.21093 3.28515m6.21093-3.28515l2.03125 1.375m11.3711-1.20313l-6.38282 2.94531m6.38282-2.9453l1.95312 1.48437m10.73828-2.41016l-5.13672 4.79297m5.13672-4.79297l2.32032.80078m9.51953-1.74219l-2.1836 6.6797m2.1836-6.6797l2.41406-.42578m11.00781.46094l-2.39844 6.60547m2.39844-6.60547l2.42578-.34375m-2.77734 1.30469l1.21484-.17188m12.28907-.84375l-2.07422 6.71485m2.07422-6.71485l2.41015-.46094m11.24219.58594l-2.75 6.46485m2.35156-5.52344l1.22266-.10547m13.64844-.03906l-5.06641 4.8711m4.33203-4.16017l1.16406.38282m11.50782-1.97656l-2.3086 6.63671m2.3086-6.63671l2.42187-.375m11.1875.49218l-2.89844 6.40235m2.89844-6.40235l2.44922-.15625m10.58203.04297l-2.32812 6.6289m2.32812-6.6289l2.42578-.3711m10.8125.34376l-2.17578 6.6836m1.85938-5.71095l1.20703-.21093m14.1953.53906l-5.71874 4.08203m4.88672-3.48828l1.09765.54687m12.25782-1.9414l-4.13672 5.6836m3.53515-4.85548l1.21485.17188"/><g clip-path="url(#R)"><path fill="none" stroke="#000" stroke-linecap="round" stroke-linejoin="round" stroke-miterlimit="10" stroke-width=".5" d="M147.4375 333.13672l-6.875 1.45312"/></g><path fill="none" stroke="#000" stroke-linecap="round" stroke-linejoin="round" stroke-miterlimit="10" stroke-width=".5" d="M146.4375 333.34766l.78906.9414m13.58203-.03906l-6.98437-.77344m6.98437.77344l.90625 2.28125m12.09375-4.16406l-6.35547 2.99219m6.35547-2.9922l1.96485 1.46876m-2.89063-1.03516l.98438.73438m13.58984.30078l-7.02344.05469m7.02344-.0547l1.17188 2.15626m-2.19141-2.14844l.58203 1.07813m13.73438-1.4297l-6.98828.7422m6.98828-.7422l1.375 2.03126m11.55468-3.30078l-6.21484 3.28125m6.21484-3.28125l2.02735 1.3789m10.60547-2.27734l-4.85547 5.07812m4.85547-5.07812l2.36328.66406m10.08984-1.27344l-3.125 6.29688m3.125-6.29688l2.45313-.0664m11.1328.21875l-3.67187 5.99219m3.14063-5.1211l1.22266.07813m13.26171-.44922l-4.94922 4.98828m4.23047-4.26172l1.17578.35547m13.14063 3.59375l-5.51172-4.35938m19.42969 3.21094l-6.71875-2.0625m5.74219 1.76172l.23437 1.20313m13.89453-3.39454l-6.39062 2.92188m5.46094-2.4961l.97265.7461m11.45313-2.9414l-2.75391 6.46093m2.35547-5.52344l1.22266-.10156m13.11328-.4961l-4 5.78126m3.41797-4.94141l1.21875.14453m12.28515-1.21875l-3.21484 6.25m3.21484-6.25l2.45313-.03125m9.5078-.34765l-.5039 7.0078m.5039-7.0078l2.2422-.9961m9.36328 1.30078l2.91406 6.39844m-2.91406-6.39844l1.4961-1.94531m16.78905 5.17188l-7.02734-.0547m7.02734.0547l1.13672 2.17578m7.92578-5.63672l1.48047 6.86719m-1.26562-5.8711l.9414-.78906m10.45704.70312l4.88671 5.04688m-4.17578-4.3125l.375-1.16797m16.35157-.1289l-3.36329 6.17187m18.20313-4.52735l-6.41016 2.88282m5.47657-2.46485l.96875.75391m8.51562-2.8789l3.1211 6.29687m14.9375-4.63281l-6.3672 2.96875m5.44141-2.53907l.98047.73829"/><g clip-path="url(#S)"><path fill="none" stroke="#000" stroke-linecap="round" stroke-linejoin="round" stroke-miterlimit="10" stroke-width=".5" d="M147.42578 321.32813l-6.85156-1.5586"/></g><path fill="none" stroke="#000" stroke-linecap="round" stroke-linejoin="round" stroke-miterlimit="10" stroke-width=".5" d="M147.42578 321.32813l.64063 2.36718m12.63672-2.21875l-6.77735-1.85937m6.77734 1.85937l.53907 2.39453m12.89844-3.21484l-7.02344-.21875m7.02344.21875l1.08593 2.20313m12.22656-2.5l-7.01562.3789m7.01563-.3789l1.26953 2.09765m11.85547-3.0664l-6.63672 2.3164m5.67187-1.98047l.89844.83203m12.39844-2.63671l-4.67188 5.25m4.67188-5.25l2.38672.58203m11.09765-.42188l-5.00781 4.92969m4.28125-4.21094l1.16797.36719m13.34765-.48438l-5.95703 3.72657m5.08985-3.1836l1.0625.61328m13.29297-.84375l-6.3047 3.10547m5.38673-2.65234l.99609.71484m13.48828-.48828l-6.80469 1.7461m6.8047-1.7461l1.65624 1.8086m11.69922-.2422l-6.88672-1.38671m5.88672 1.1836l.35156 1.17577M293 322.98438l-5.0664-4.8711m4.32812 4.16016l-.33594 1.17969m11.0039-6.3125l1.70313 6.8164m-1.45703-5.82422l.91016-.82422m15.15625 6.01954l-4.29297-5.5625m18.97656 2.78125h-7.02734m6.0039 0l.57422 1.08593m12.57422-3.71875l-4.65234 5.26563m3.97656-4.5l1.1914.28515m12.03907-1.5625l-3.1289 6.29297m3.1289-6.29297l2.45312-.0664m11.20313.26172l-3.8125 5.90234m3.8125-5.90234l2.44531.20703m10.90234-.1875l-3.8789 5.85937m3.8789-5.85937l2.44532.23437m9.79687-.70703l-1.73047 6.8086m1.48047-5.82032l1.1914-.28906m11.1875-.79297l.64454 6.9961m-.55078-5.98047l1.02344-.67188m9.17578 4.23047l6.6875-2.15234m-5.71485 1.83984l-.8828-.85547m14.29296 2.76563l4.55078-5.35157m13.2539 5.40235l-4.42968-5.45313m18.98828 3.35938l-6.91406-1.26172m5.90625 1.07812l.3711 1.16797"/><path fill="#00f" fill-rule="evenodd" d="M383.80078 436.57813h8.61719v-10.14454h-8.61719v10.14454"/><path fill="azure" fill-rule="evenodd" d="M385.63281 428.26563h.83203v2.82421h3.28907v-2.82421h.83203v6.48046h-.83203v-2.91406h-3.28907v2.91406h-.83203v-6.48046"/><path fill="#ff3030" fill-rule="evenodd" d="M291.28906 401.07422h7.6914v-10.14844h-7.6914v10.14844"/><path fill="azure" fill-rule="evenodd" d="M293.1211 392.76172h.83593V398.5h3.1914v.73828h-4.02734v-6.47656"/><path fill="#00f" fill-rule="evenodd" d="M370.48438 401.07422h8.62109v-10.14844h-8.6211v10.14844"/><path fill="azure" fill-rule="evenodd" d="M372.3164 392.76172h.83594v2.82031h3.28516v-2.82031h.83203v6.47656h-.83203v-2.91406h-3.28516v2.91406h-.83593v-6.47656"/><path fill="#00f" fill-rule="evenodd" d="M201.82813 396.63281h8.61718v-10.14453h-8.61719v10.14453"/><path fill="azure" fill-rule="evenodd" d="M203.66016 388.32031h.83203v2.82422h3.28906v-2.82422h.83203v6.48047h-.83203v-2.91406h-3.28906v2.91406h-.83203v-6.48047"/><path fill="#ff3030" fill-rule="evenodd" d="M428.8789 396.63281h7.69141v-10.14453h-7.6914v10.14453"/><path fill="azure" fill-rule="evenodd" d="M430.71094 388.32031h.83203v5.74219h3.19531v.73828h-4.02734v-6.48047"/><path fill="#ff3030" fill-rule="evenodd" d="M175.89063 352.25h7.6953v-10.14453h-7.6953V352.25"/><path fill="azure" fill-rule="evenodd" d="M177.72656 343.9375h.83203v5.73828H181.75v.74219h-4.02344v-6.48047"/><path fill="#ffffe0" fill-rule="evenodd" d="M328.42969 362.70703h22.17969v-10.19531h-22.1797v10.19531"/><path fill-rule="evenodd" d="M331.92969 354.34766h.50781v6.29296h-.78516v-4.48828h-1.39062v-.55468l.5586-.06641.2539-.05469.23047-.08984.20312-.14063.17188-.21093.14453-.29297.10547-.39453m4.8125 0l.23047.01953.21875.05469.20703.08984.19531.1211.1836.14843.17187.17578.30469.41797.24218.4961.1797.54687.10937.57812.03906.58985-.03906.59375-.10938.58594-.17969.55078-.24218.5039-.3047.42578-.17187.1797-.18359.15624-.19531.1211-.20703.09375-.21875.05468-.23047.01953-.23047-.01953-.21875-.05469-.20703-.09375-.19531-.12109-.1836-.15625-.17187-.17969-.3047-.42578-.24218-.5039-.17969-.55079-.10937-.58593-.03906-.59375h.83203l.02734.5625.08203.50781.1289.4414.16017.375.1914.30079.21094.22265.22265.13672.22657.04688.22656-.04688.22266-.13672.21093-.22265.19141-.30078.16016-.375.1289-.44141.07813-.50781.03125-.5625-.03125-.5625-.07813-.5-.1289-.4336-.16016-.36718-.1914-.29297-.21094-.21094-.22266-.13281-.22656-.04688-.22656.04688-.22266.13281-.21094.21094-.1914.29297-.16016.36718-.1289.4336-.08204.5-.02734.5625h-.83203l.03906-.58985.10937-.57812.1797-.54688.24218-.49609.30469-.41797.17187-.17578.1836-.14844.1953-.1211.20704-.08983.21875-.0547.23047-.01952m4.95312 0l.23047.01953.21875.05469.20703.08984.19531.1211.1836.14843.17187.17578.30079.41797.24609.4961.17969.54687.10937.57812.03906.58985-.03906.59375-.10937.58594-.1797.55078-.24608.5039-.30079.42578-.17187.1797-.1836.15624-.1953.1211-.20704.09375-.21875.05468-.23047.01953-.23047-.01953-.21875-.05469-.20703-.09375-.19531-.12109-.1875-.15625-.16797-.17969-.30469-.42578-.24218-.5039-.1797-.55079-.11327-.58593-.03516-.59375h.83203l.02735.5625.08203.50781.125.4414.16406.375.1914.30079.21094.22265.22266.13672.22656.04688.22656-.04688.22266-.13672.21094-.22265.1914-.30078.16016-.375.125-.44141.08203-.50781.03125-.5625-.03125-.5625-.08203-.5-.125-.4336-.16015-.36718-.19141-.29297-.21094-.21094-.22265-.13281-.22657-.04688-.22656.04688-.22266.13281-.21093.21094-.19141.29297-.16406.36718-.125.4336-.08203.5-.02735.5625h-.83203l.03516-.58985.11328-.57812.17969-.54688.24218-.49609.3047-.41797.16796-.17578.1875-.14844.19531-.1211.20703-.08983.21875-.0547.23047-.01952m4.95313 0l.38672.02734.35937.08203.32031.13672.28125.1875.23047.23438.17188.28906.10937.33203.03516.375-.01953.27344-.0586.23828-.08593.19922-.11329.16796-.1289.14454-.13672.12109-.28906.19922.23437.11719.20703.14843.1797.17188.15624.1914.1211.21485.08984.23047.0586.24219.01952.2578-.03515.3086-.10547.32422-.17188.32813-.23828.30468-.3086.26953-.37108.21485-.21094.08203-.23047.0586-.24219.03906-.26172.01171-.26172-.01171-.24218-.03907-.22266-.0586-.20313-.08202-.35937-.21485-.29297-.26953-.22265-.30469-.15625-.32812-.09375-.32422-.02735-.3086h.83203l.02735.25.07812.23829.1211.21094.16015.18359.19531.15234.21875.1172.23829.0703.2578.02735.25391-.02735.23829-.0703.22265-.1172.1914-.15234.16016-.1836.125-.21093.07422-.23828.02735-.25-.02735-.2539-.07422-.23438-.125-.21485-.16015-.1836-.1914-.15233-.22267-.11329-.23828-.07421-.2539-.02344-.25781.02344-.23829.07421-.21875.11329-.1953.15234-.16017.1836-.12109.21484-.07812.23437-.02735.2539h-.83203l.01953-.2539.05469-.24219.08984-.22265.125-.20703.15235-.19141.1836-.17188.20702-.15234.23047-.13281-.28515-.19922-.14063-.1211-.1289-.14452-.11329-.16797-.08594-.19922-.05859-.23828-.01953-.27344h.78516l.02343.21484.06641.1914.10547.16798.13672.13672.16406.11328.1875.08203.20703.05078.22266.01563.21875-.01563.20703-.05078.1875-.08203.16797-.11328.13672-.13672.10156-.16797.0664-.1914.02344-.21485-.02344-.21485-.0664-.1914-.10156-.16406-.13672-.14063-.16797-.10937-.1875-.08204-.20703-.05078-.21875-.01953-.22266.01953-.20703.05079-.1875.08203-.16406.10937-.13672.14063-.10547.16406-.0664.1914-.02344.21485H344.75l.03906-.375.10547-.33203.17578-.28906.23047-.23438.27735-.1875.32421-.13672.35938-.08203.38672-.02734"/><path fill="#ffffe0" fill-rule="evenodd" d="M195.27734 342.16797h22.1797v-10.1914h-22.1797v10.1914"/><path fill-rule="evenodd" d="M198.77734 333.8086h.50782v6.29296H198.5v-4.48828h-1.39063v-.55469l.5625-.0664.25-.05469.23047-.08984.20313-.14063.17578-.21094.14063-.29296.10546-.39454m4.8125 0l.23047.01954.21875.05468.20703.08985.19922.12109.1836.14844.17187.17578.30078.41797.24219.4961.17969.54687.11328.57812.03906.58985-.03906.59375-.11328.58593-.17969.55078-.24219.50391-.30078.42969-.17187.17578-.1836.15625-.19922.1211-.20703.09374-.21875.05469-.23047.01953-.22656-.01953-.21875-.05469-.21094-.09375-.1953-.1211-.1836-.15624-.17188-.17578-.30078-.42969-.24219-.5039-.18359-.55079-.10938-.58594-.03906-.59375h.83203l.03125.5625.08203.50782.125.4414.16407.375.1875.30079.21094.22265.22265.13672.22656.04688.22657-.04688.22265-.13672.21094-.22265.1914-.30079.16407-.375.125-.4414.08203-.50781.02734-.5625-.02734-.5586-.08203-.5039-.125-.4336-.16406-.36719-.19141-.29296-.21094-.21094-.22265-.13281-.22657-.04688-.22656.04688-.22266.1328-.21093.21094-.1875.29297-.16406.3672-.125.43358-.08204.50391-.03125.5586h-.83203l.03906-.58985.10938-.57812.1836-.54688.24218-.4961.30078-.41796.17188-.17578.1836-.14844.1953-.1211.21094-.08984.21875-.05469.22656-.01953m4.95313 0l.23047.01954.21875.05468.20703.08985.19922.12109.1836.14844.17187.17578.30078.41797.24219.4961.17968.54687.11328.57812.03516.58985-.03516.59375-.11328.58593-.17969.55078-.24218.50391-.30078.42969-.17188.17578-.1836.15625-.19921.1211-.20703.09374-.21875.05469-.23047.01953-.22656-.01953-.22266-.05469-.20703-.09375-.19531-.1211-.1836-.15624-.17187-.17578-.30078-.42969-.2461-.5039-.17969-.55079-.10937-.58594-.03906-.59375h.83203l.03125.5625.08203.50782.125.4414.16016.375.1914.30079.21094.22265.22266.13672.22656.04688.22656-.04688.22266-.13672.21094-.22265.1914-.30079.16406-.375.125-.4414.08203-.50781.02735-.5625-.02734-.5586-.08204-.5039-.125-.4336-.16406-.36719-.1914-.29296-.21094-.21094-.22266-.13281-.22656-.04688-.22656.04688-.22266.1328-.21094.21094-.1914.29297-.16016.3672-.125.43358-.08203.50391-.03125.5586h-.83203l.03906-.58985.10938-.57812.17968-.54688.2461-.4961.30078-.41796.17187-.17578.1836-.14844.1953-.1211.20704-.08984.22266-.05469.22656-.01953m4.95312 0l.38672.02735.35938.08203.32422.13672.27734.1875.23047.23828.17187.28515.10938.33204.03906.375-.01953.27343-.0586.23829-.08984.19921-.10937.16797-.1289.14453-.14063.125-.28516.19532.23047.11718.20703.14844.1836.17188.15234.1914.125.21485.08984.23046.05469.2422.01953.2578-.03516.3086-.10156.32812-.17187.32422-.2422.30469-.30468.26953-.375.21485-.21094.08203-.22656.05859-.2461.03906-.26171.01172-.25781-.01172-.2422-.03906-.22265-.0586-.20703-.08202-.35937-.21485-.28907-.26953-.22265-.30469-.15625-.32422-.09375-.32812-.03125-.3086h.83203l.02734.25391.07813.23438.1211.21093.16405.1836.19141.15234.21875.11719.24219.07031.2539.02735.25391-.02735.24219-.07031.21875-.11719.19531-.15234.16016-.1836.12109-.21093.07813-.23438.02734-.2539-.02734-.25391-.07813-.23438-.1211-.21484-.16015-.1836-.19531-.15234-.21875-.11328-.24219-.07422-.2539-.02344-.25391.02344-.24219.07422-.21875.11328-.1914.15235-.16407.18359-.1211.21484-.07812.23438-.02734.2539h-.83203l.01953-.2539.05469-.23828.09375-.22656.12109-.20704.15234-.1914.1836-.17188.20703-.15234.23437-.13281-.28906-.19532-.14062-.125-.12891-.14453-.10938-.16797-.08984-.19921-.05469-.23829-.02343-.27343h.78906l.02344.21484.0625.1914.10547.16798.13671.13671.16407.11329.1914.08203.20703.05078.21875.01562.22266-.01562.20703-.05078.1875-.08204.16406-.11328.13672-.13671.10547-.16797.0664-.19141.01954-.21484-.01953-.21485-.0664-.1914-.10548-.16407-.13672-.14062-.16406-.10938-.1875-.08203-.20703-.05078-.22266-.01953-.21875.01953-.20703.05078-.1914.08203-.16407.10938-.13672.14062-.10546.16407-.0625.1914-.02344.21485h-.78906l.03906-.375.10937-.33204.17188-.28515.23047-.23828.28125-.1875.32031-.13672.35938-.08203.38671-.02735"/><path fill="#ffffe0" fill-rule="evenodd" d="M217.09375 396.86719h22.17969v-10.1914h-22.17969v10.1914"/><path fill-rule="evenodd" d="M220.59375 388.50781h.50781v6.29297h-.78515v-4.48828h-1.39063v-.55469l.5625-.0664.25-.0547.23047-.08983.20313-.14063.17578-.21094.14062-.29297.10547-.39453m4.8125 0l.23047.01953.21875.0547.20703.08983.19922.1211.1836.14844.17187.17578.30078.41797.24219.49609.17968.54688.11328.57812.03516.58984-.03516.59375-.11328.58594-.17968.55078-.2422.5039-.30077.4297-.17188.17578-.1836.15625-.19921.1211-.20703.09374-.21875.05469-.23047.01953-.22656-.01953-.22266-.05469-.20703-.09375-.19531-.1211-.1836-.15624-.17187-.17578-.30078-.4297-.2461-.5039-.17968-.55078-.10938-.58594-.03906-.59375h.83203l.03125.5625.08203.50782.125.4414.16406.375.1875.30078.21094.22266.22266.13672.22656.04687.22656-.04687.22266-.13672.21094-.22266.1914-.30078.16406-.375.125-.4414.08204-.50782.02734-.5625-.02734-.55859-.08203-.5039-.125-.4336-.16407-.36719-.1914-.29297-.21094-.21093-.22266-.13282-.22656-.04687-.22656.04687-.22266.13282-.21094.21093-.1875.29297-.16406.36719-.125.4336-.08203.5039-.03125.5586h-.83203l.03906-.58985.10938-.57813.17968-.54687.2461-.4961.30078-.41796.17187-.17578.1836-.14844.19531-.1211.20703-.08984.22266-.05469.22656-.01953m4.95313 0l.23046.01953.21875.0547.20703.08983.19532.1211.1875.14844.16797.17578.30468.41797.2422.49609.17968.54688.11328.57812.03516.58984-.03516.59375-.11328.58594-.17969.55078-.24219.5039-.30468.4297-.16797.17578-.1875.15625-.19531.1211-.20704.09374-.21875.05469-.23047.01953-.23046-.01953-.21875-.05469-.20703-.09375-.19532-.1211-.1836-.15624-.17187-.17578-.30078-.4297-.2461-.5039-.17968-.55078-.10937-.58594-.03907-.59375h.83203l.03125.5625.08204.50782.125.4414.16015.375.1914.30078.21095.22266.22265.13672.22656.04687.22657-.04687.22265-.13672.21094-.22266.1914-.30078.16016-.375.12891-.4414.08203-.50782.02734-.5625-.02734-.55859-.08203-.5039-.1289-.4336-.16016-.36719-.1914-.29297-.21095-.21093-.22265-.13282-.22656-.04687-.22657.04687-.22265.13282-.21094.21093-.1914.29297-.16016.36719-.125.4336-.08203.5039-.03125.5586h-.83204l.03907-.58985.10937-.57813.17969-.54687.2461-.4961.30077-.41796.17188-.17578.1836-.14844.1953-.1211.20704-.08984.21875-.05469.23047-.01953m4.95312 0l.38672.02735.35937.08203.32032.13672.28125.1875.23047.23828.17187.28515.10938.33204.03906.375-.01953.27343-.0586.23828-.08984.19922-.10938.16797-.1289.14453-.14063.125-.28906.19531.23438.1172.20703.14843.18359.17188.15234.1914.125.21485.08985.23046.05469.2422.01953.2578-.03516.3086-.10156.32812-.17188.32422-.24219.30469-.30468.26953-.375.21484-.21094.08204-.22656.05859-.2461.03906-.26172.01172-.2578-.01172-.2422-.03906-.22265-.0586-.20703-.08203-.35938-.21484-.28906-.26953-.22266-.30469-.15625-.32422-.09375-.32812-.03125-.3086h.83203l.02735.25391.07812.23438.1211.21093.16015.1836.19532.15234.21875.11719.24218.07031.25391.02734.2539-.02734.2422-.07031.21874-.11719.19532-.15234.16015-.1836.1211-.21094.07812-.23437.02734-.2539-.02734-.25391-.07812-.23438-.1211-.21484-.16015-.1836-.19532-.15234-.21875-.11328-.24218-.07422-.25391-.02344-.2539.02344-.2422.07422-.21874.11328-.19532.15235-.16015.18359-.1211.21484-.07812.23438-.02734.2539h-.83204l.01953-.2539.0547-.23828.08984-.22657.125-.20703.15234-.1914.1836-.17188.20702-.15234.23047-.13281-.28515-.19532-.14063-.125-.1289-.14453-.10938-.16797-.08984-.19922-.0586-.23828-.01953-.27344h.78906l.01954.21485.0664.1914.10547.16797.13672.13672.16406.11328.1914.08204.20704.05078.21875.01562.21875-.01562.20703-.05079.1914-.08203.16407-.11328.13672-.13672.10547-.16796.0625-.19141.02344-.21485-.02344-.21484-.0625-.1914-.10547-.16407-.13672-.14062-.16406-.10938-.1914-.08203-.20704-.05078-.21875-.01953-.21875.01953-.20703.05078-.1914.08203-.16407.10938-.13672.14062-.10547.16406-.0664.19141-.01953.21485h-.78907l.03906-.375.10938-.33204.17188-.28515.23046-.23828.27735-.1875.32422-.13672.35937-.08203.38672-.02735"/><path fill="#ffffe0" fill-rule="evenodd" d="M315.11328 415.30469h22.17969v-10.1914h-22.17969v10.1914"/><path fill-rule="evenodd" d="M318.61328 406.94531h.50781v6.29688h-.78515V408.75h-1.39063v-.55469l.5625-.0664.25-.05079.23047-.08984.20313-.14453.17578-.20703.14062-.29688.10547-.39453m4.8125 0l.23047.01953.21875.0547.20703.08983.19922.1211.1836.14844.17187.17578.30078.42187.24219.49219.17969.54688.11328.57812.03515.58984-.03515.59375-.11329.58594-.17968.55469-.24219.5-.30078.42969-.17188.17968-.18359.15235-.19922.125-.20703.08984-.21875.0586-.23047.01953-.22656-.01954-.21875-.05859-.21094-.08984-.19531-.125-.1836-.15235-.17187-.17968-.30078-.4297-.2461-.5-.17968-.55468-.10938-.58594-.03906-.59375h.83203l.03125.56641.08203.5039.125.44141.16406.375.1875.30078.21094.22266.22266.13672.22656.04687.22656-.04687.22266-.13672.21094-.22266.1914-.30078.16407-.375.125-.4414.08203-.50391.02734-.5664-.02734-.5586-.08203-.5-.125-.4375-.16407-.36328-.1914-.29297-.21094-.21484-.22266-.13282-.22656-.04296-.22656.04296-.22266.13282-.21094.21484-.1875.29297-.16406.36328-.125.4375-.08203.5-.03125.5586h-.83203l.03906-.58985.10938-.57813.17969-.54687.24609-.49219.30078-.42187.17188-.17578.18359-.14844.19531-.1211.21094-.08984.21875-.05469.22656-.01953m4.95313 0l.23046.01953.21875.0547.20704.08983.1953.1211.1875.14844.16798.17578.30469.42187.24218.49219.17969.54688.11328.57812.03516.58984-.03516.59375-.11328.58594-.17969.55469-.24219.5-.30468.42969-.16797.17968-.1875.15235-.19531.125-.20704.08984-.21875.0586-.23046.01953-.23047-.01954-.21875-.05859-.20703-.08984-.19532-.125-.18359-.15235-.17188-.17968-.30078-.4297-.24609-.5-.17969-.55468-.10937-.58594-.03906-.59375h.83203l.03125.56641.08203.5039.125.44141.16015.375.19141.30078.21094.22266.22265.13672.22657.04687.22656-.04687.22265-.13672.21094-.22266.1914-.30078.16017-.375.1289-.4414.08203-.50391.02735-.5664-.02735-.5586-.08203-.5-.1289-.4375-.16016-.36328-.1914-.29297-.21094-.21484-.22266-.13282-.22656-.04296-.22657.04296-.22265.13282-.21094.21484-.1914.29297-.16016.36328-.125.4375-.08203.5-.03125.5586h-.83204l.03907-.58985.10937-.57813.17969-.54687.2461-.49219.30077-.42187.17188-.17578.1836-.14844.1953-.1211.20704-.08984.21875-.05469.23047-.01953m4.95312 0l.38672.02735.35938.08203.3203.13672.28126.1875.23047.23828.17187.28515.10938.33204.03906.3789-.01953.27344-.0586.23437-.08984.19922-.10938.17188-.1289.14453-.14063.1211-.28515.1953.23047.1211.20703.14453.1836.17188.15233.1953.125.21094.08985.23047.05469.2461.01953.2539-.03516.3086-.10156.32812-.17188.32422-.24218.30469-.3047.26953-.375.21484-.21093.08204-.22656.0625-.2461.03515-.26171.01563-.25782-.01563-.24218-.03515-.22266-.0625-.20703-.08204-.35938-.21484-.28906-.26953-.22265-.30469-.15625-.32422-.09375-.32812-.03125-.3086h.83203l.02734.25391.07813.23438.12109.21093.16015.1875.19532.15235.21875.11328.24219.07422.2539.02343.2539-.02343.2422-.07422.21875-.11328.1953-.15235.16016-.1875.1211-.21094.07812-.23437.02735-.2539-.02735-.25391-.07812-.23438-.1211-.21094-.16015-.1875-.19531-.14843-.21875-.11719-.2422-.07031-.2539-.02735-.2539.02735-.2422.07031-.21874.11719-.19531.14844-.16016.1875-.1211.21093-.07812.23438-.02734.2539h-.83204l.01954-.2539.05468-.23828.08985-.22657.125-.20703.15234-.1914.1836-.17188.20703-.15234.23046-.13281-.28515-.19532-.14063-.1211-.1289-.14452-.10938-.17188-.08984-.19922-.0586-.23437-.01953-.27344h.78907l.02343.21485.0625.1875.10547.16796.13672.14063.16406.10937.19141.08204.20703.05078.21875.01562.21875-.01562.20703-.05079.1914-.08203.16407-.10937.13672-.14063.10547-.16796.0625-.1875.02344-.21485-.02344-.21484-.0625-.1914-.10547-.16798-.13672-.14062-.16406-.10938-.1914-.08203-.20704-.05078-.21875-.01563-.21875.01563-.20703.05078-.1914.08203-.16407.10938-.13672.14062-.10547.16797-.0625.1914-.02343.21485h-.78907l.03907-.3789.10937-.33204.17188-.28515.23046-.23828.28125-.1875.32032-.13672.35937-.08203.38672-.02735"/><path fill="#ffffe0" fill-rule="evenodd" d="M420.39844 454.5664h22.17969v-10.1953h-22.1797v10.1953"/><path fill-rule="evenodd" d="M423.89844 446.20703h.50781V452.5h-.78516v-4.48828h-1.39062v-.55469l.5625-.0664.25-.0547.23047-.08984.20312-.14062.17578-.21094.14063-.29297.10547-.39453m4.8125 0l.23047.01563.21875.05859.20703.08984.19531.1211.1875.14844.17188.17578.30078.41796.24218.4961.1797.54297.11327.58203.03516.58984-.03516.59375-.11328.58203-.17969.5547-.24218.5039-.30079.42578-.17187.17969-.1875.15625-.19531.12109-.20703.09375-.21875.05469-.23047.01953-.23047-.01953-.21875-.05469-.20703-.09375-.19531-.1211-.1836-.15624-.17187-.1797-.30079-.42577-.24609-.5039-.17969-.5547-.10937-.58203-.03906-.59375h.83203l.03125.5625.08203.50781.125.44141.16015.375.19141.30078.21094.22266.22265.13672.22657.04687.22656-.04687.22266-.13672.21093-.22266.19141-.30078.16406-.375.125-.4414.08203-.50782.02735-.5625-.02735-.5625-.08203-.5-.125-.4336-.16406-.36718-.1914-.29297-.21094-.21484-.22266-.1289-.22656-.04688-.22656.04687-.22266.1289-.21094.21485-.1914.29297-.16016.36719-.125.4336-.08203.5-.03125.5625h-.83203l.03906-.58985.10937-.58203.1797-.54297.24608-.4961.30079-.41796.17187-.17579.1836-.14843.1953-.1211.20704-.08984.21875-.0586.23047-.01562m4.95312 0l.23047.01563.21875.05859.20703.08984.19531.1211.1875.14844.16797.17578.3047.41796.24218.4961.17969.54297.10937.58203.03906.58984-.03906.59375-.10937.58203-.1797.5547-.24218.5039-.30469.42578-.16796.17969-.1875.15625-.19532.12109-.20703.09375-.21875.05469-.23047.01953-.23047-.01953-.21875-.05469-.20703-.09375-.19531-.1211-.1836-.15624-.17187-.1797-.30469-.42577-.24218-.5039-.1797-.5547-.10937-.58203-.03906-.59375h.83203l.03125.5625.07813.50781.1289.44141.16016.375.1914.30078.21094.22266.22266.13672.22656.04687.22656-.04687.22266-.13672.21094-.22266.1914-.30078.16016-.375.1289-.4414.08204-.50782.02734-.5625-.02734-.5625-.08203-.5-.1289-.4336-.16017-.36718-.1914-.29297-.21094-.21484-.22265-.1289-.22657-.04688-.22656.04687-.22266.1289-.21093.21485-.19141.29297-.16016.36719-.1289.4336-.07813.5-.03125.5625h-.83203l.03906-.58985.10938-.58203.17969-.54297.24218-.4961.3047-.41796.17187-.17579.18359-.14843.19531-.1211.20703-.08984.21875-.0586.23047-.01562m4.95313 0l.38672.02735.35937.08203.32031.13671.28125.1875.23047.23438.17188.28906.10937.33203.03906.375-.02343.27344-.05469.23438-.08984.20312-.10938.16797-.1289.14453-.14063.1211-.28906.19921.23437.1172.20703.14843.1836.17187.15234.19141.125.21484.08985.23047.05468.24219.01953.25781-.03515.3086-.10156.32421-.17188.32813-.24219.30469-.30469.26953-.375.21484-.21093.08203-.23047.0586-.24219.03906-.26172.01172-.25781-.01172-.24219-.03906-.22656-.0586-.20313-.08203-.35937-.21484-.28906-.26953-.22266-.30469-.15625-.32813-.09375-.32421-.03125-.3086h.83203l.02735.25.07812.23828.1211.21094.16015.1836.19531.15234.21875.11719.2422.0703.2539.02735.2539-.02734.2422-.07031.21874-.1172.1914-.15233.16407-.1836.1211-.21094.07812-.23828.02734-.25-.02734-.2539-.07813-.23438-.12109-.21484-.16406-.1836-.1914-.15234-.21876-.11328-.24219-.07422-.2539-.02344-.2539.02344-.2422.07422-.21875.11328-.1953.15234-.16017.1836-.12109.21484-.07812.23438-.02735.2539h-.83203l.01953-.2539.05469-.2422.08984-.22265.125-.20703.15235-.1914.1836-.17188.20702-.15234.23047-.13282-.28515-.19921-.14063-.1211-.1289-.14453-.10938-.16797-.08985-.20312-.05859-.23438-.01953-.27344h.78906l.01953.21485.06641.1914.10547.16797.13672.13672.16406.11328.1914.08203.20313.05079.22266.01562.21875-.01563.20703-.05078.1914-.08203.16407-.11328.13672-.13672.10546-.16797.0625-.1914.02344-.21485-.02344-.21484-.0625-.1914-.10546-.16407-.13672-.14062-.16406-.11329-.19141-.07812-.20703-.05078-.21875-.01953-.22266.01953-.20312.05078-.19141.07813-.16406.11328-.13672.14062-.10547.16406-.0664.19141-.01954.21484h-.78906l.03906-.375.10938-.33203.17187-.28906.23047-.23438.27735-.1875.32421-.13671.35938-.08204.38672-.02734"/></g></defs><use xlink:href="#T"/></svg>