<svg xmlns="http://www.w3.org/2000/svg" role="img" xmlns:xlink="http://www.w3.org/1999/xlink" viewBox="142.45 309.95 326.84 171.84"><defs><clipPath id="a"><path d="M144 311.67188h1v168.65625h-1zm0 0"/></clipPath><clipPath id="b"><path d="M144 311.67188h324v168.65625H144zm0 0"/></clipPath><clipPath id="c"><path d="M467 311.67188h1v168.65625h-1zm0 0"/></clipPath><clipPath id="d"><path d="M144 479h4v1.32813h-4zm0 0"/></clipPath><clipPath id="e"><path d="M146 480h1v.32813h-1zm0 0"/></clipPath><clipPath id="f"><path d="M153 479h9v1.32813h-9zm0 0"/></clipPath><clipPath id="g"><path d="M159 479h2v1.32813h-2zm0 0"/></clipPath><clipPath id="h"><path d="M166 479h9v1.32813h-9zm0 0"/></clipPath><clipPath id="i"><path d="M172 480h2v.32813h-2zm0 0"/></clipPath><clipPath id="j"><path d="M180 479h8v1.32813h-8zm0 0"/></clipPath><clipPath id="k"><path d="M186 480h2v.32813h-2zm0 0"/></clipPath><clipPath id="l"><path d="M193 479h8v1.32813h-8zm0 0"/></clipPath><clipPath id="m"><path d="M200 480h2v.32813h-2zm0 0"/></clipPath><clipPath id="n"><path d="M206 479h9v1.32813h-9zm0 0"/></clipPath><clipPath id="o"><path d="M213 480h3v.32813h-3zm0 0"/></clipPath><clipPath id="p"><path d="M220 480h8v.32813h-8zm0 0"/></clipPath><clipPath id="q"><path d="M227 480h2v.32813h-2zm0 0"/></clipPath><clipPath id="r"><path d="M233 479h8v1.32813h-8zm0 0"/></clipPath><clipPath id="s"><path d="M239 480h2v.32813h-2zm0 0"/></clipPath><clipPath id="t"><path d="M246 479h9v1.32813h-9zm0 0"/></clipPath><clipPath id="u"><path d="M252 480h2v.32813h-2zm0 0"/></clipPath><clipPath id="v"><path d="M260 479h8v1.32813h-8zm0 0"/></clipPath><clipPath id="w"><path d="M265 480h2v.32813h-2zm0 0"/></clipPath><clipPath id="x"><path d="M273 479h8v1.32813h-8zm0 0"/></clipPath><clipPath id="y"><path d="M279 480h2v.32813h-2zm0 0"/></clipPath><clipPath id="z"><path d="M286 479h9v1.32813h-9zm0 0"/></clipPath><clipPath id="A"><path d="M292 480h2v.32813h-2zm0 0"/></clipPath><clipPath id="B"><path d="M300 479h8v1.32813h-8zm0 0"/></clipPath><clipPath id="C"><path d="M305 480h2v.32813h-2zm0 0"/></clipPath><clipPath id="D"><path d="M313 479h8v1.32813h-8zm0 0"/></clipPath><clipPath id="E"><path d="M320 479h3v1.32813h-3zm0 0"/></clipPath><clipPath id="F"><path d="M326 479h9v1.32813h-9zm0 0"/></clipPath><clipPath id="G"><path d="M333 479h3v1.32813h-3zm0 0"/></clipPath><clipPath id="H"><path d="M339 479h9v1.32813h-9zm0 0"/></clipPath><clipPath id="I"><path d="M346 480h3v.32813h-3zm0 0"/></clipPath><clipPath id="J"><path d="M353 479h8v1.32813h-8zm0 0"/></clipPath><clipPath id="K"><path d="M360 480h2v.32813h-2zm0 0"/></clipPath><clipPath id="L"><path d="M367 478h7v2.32813h-7zm0 0"/></clipPath><clipPath id="M"><path d="M379 479h9v1.32813h-9zm0 0"/></clipPath><clipPath id="N"><path d="M385 480h2v.32813h-2zm0 0"/></clipPath><clipPath id="O"><path d="M393 478h8v2.32813h-8zm0 0"/></clipPath><clipPath id="P"><path d="M409 476h3v4.32813h-3zm0 0"/></clipPath><clipPath id="Q"><path d="M421 477h6v3.32813h-6zm0 0"/></clipPath><clipPath id="R"><path d="M434 477h6v3.32813h-6zm0 0"/></clipPath><clipPath id="S"><path d="M447 478h7v2.32813h-7zm0 0"/></clipPath><clipPath id="T"><path d="M460 477h7v3.32813h-7zm0 0"/></clipPath><clipPath id="U"><path d="M144 466h4v3h-4zm0 0"/></clipPath><clipPath id="V"><path d="M144 453h4v2h-4zm0 0"/></clipPath><clipPath id="W"><path d="M144 440h4v1h-4zm0 0"/></clipPath><clipPath id="X"><path d="M144 426h4v2h-4zm0 0"/></clipPath><clipPath id="Y"><path d="M144 413h4v2h-4zm0 0"/></clipPath><clipPath id="Z"><path d="M144 399h4v3h-4zm0 0"/></clipPath><clipPath id="aa"><path d="M144 385h4v4h-4zm0 0"/></clipPath><clipPath id="ab"><path d="M144 370h3v7h-3zm0 0"/></clipPath><clipPath id="ac"><path d="M144 356h1v9h-1zm0 0"/></clipPath><clipPath id="ad"><path d="M144 344h3v7h-3zm0 0"/></clipPath><clipPath id="ae"><path d="M144 332h4v4h-4zm0 0"/></clipPath><clipPath id="af"><path d="M466 333h2v4h-2zm0 0"/></clipPath><clipPath id="ag"><path d="M144 319h4v4h-4zm0 0"/></clipPath><clipPath id="ah"><path d="M466 318h2v3h-2zm0 0"/></clipPath><g id="ai" clip-path="url(#clip1)"><path fill="#fff" fill-opacity="0" fill-rule="evenodd" d="M0 0h1000v1000H0zm0 0"/><path fill="#d3d3d3" fill-opacity="0" fill-rule="evenodd" d="M162.15234 355.86719l-.23437.29297.0586.23437.11718.17188.17578.23437.29297.34766.11328.0586.11719-.17188.0586-.23438.17577-.17578.46485-.17578h.69922l.23437.29297.28906.8164.0586.17579.17578.23046.35156.23438.69922.69922.17188.17578.23437.34765.23438.41016.28906.58203.41015.46485.23047.23437.23438.17578.11719.23047.17578.29297.17187 1.16406v.23438l.0586.28906.05859.11719.11719.11719.34765.41015.11719.17188.17578.17578.17578.23437.11719.17188.17188.35156.05859.23438.23437.40625.23438-.0586-.17578.17578-.0586.92969h-.58203l-.23437-.11328-.34766.11328-.11719.11719-.05859.29297-.0586.17578-.11718.17187-.46484.29297-.0586.23438-.0586.11328v.64453l.0586.17187v.41016l.0586.0586v.40624l.05859.40625.11719.17579.05859.05859.23047.64062-.0586.29297v.69922l-.05859.58203v.23438l-.0586.23047-.05468.35156v1.92187l.05469.1172h.42578l-.36719.11718-.02344.35156.89063 1.16797 1.74219.53906 1.33984.35938v.53906l.08984.8086.53516.71484 1.51953.26953.89063-.08594.08984 1.16406.53516.1797 1.16015-.1797 2.05469-.98437 1.16016-.36328 1.8789-.17578 1.69531-.1797-.17968.71876-1.51563.08594-1.25.08984-.80469.26953-1.07421.8086.26953.71875.53515.89843-.17968.625-.26563.8086.26563 1.07812.625.89844.80468.17969 1.25-.1797-.26562.72267.09766.5039.05468.29297v.17188l.0586.29296v.40625l.17578.1172.35156.11718h.40625l.29297-.17578.11328-.11719.0586-.11719.11718-.23047.0586-.17578.35156-.46484.23047-.17578.17578-.0586.17578.0586.0586.17578.11718.98828.05469.46875.0586.17188.11718.23437.17578.0586.8164.05859h.28907l.11719.23437.05859.40625.0586.35156v1.10547l.11718.29297.11719.34766.28906.69922.17578.35156.58203.7539.35157.17579.17187.0586.46875.23437.64063.46484.34765.23438.29297.17578.29297.05468.23047.0625.8164.34766.29297.17578.11328.17188.35157.35156.11719.17578.52343.64063v.28906l.0586.35156v.34766l.05859.35156.0586.28906.11718.0586.17188.05859h.17578l.58203.23437.17578.1172.17578.28905.17578.23438.11328.23437.29297.23047.11719.11719v.41016l.0586.05468.28906.23438.23437.11719.0586.11718.11718.17188.0586.11719.23047.23437.05859.17578.23437.0586.1172.05859-.1172.11328-.05859.11719v.11719l-.11719.29296-.11719.28907v.58203l.17579.11719.11718.05859.0586.11719.11719.11719.11328.05859.17578.34765.0586.35157.05858.40625v.17578l-.05859.17578-.11719.69922v.17187l.1172.17579.29296.29296h.40625l.17578.1172.11719.17187.11719.29296v.23438h-.52735l-.23047-.23438h-.23437l-.17578.0586-.0586.69922.0586.34765.11719.17579.17578.41015.11718.23047.28907.46875.17578.05469h.52344l.23437.0586.75781.64062.0586.29296v.23438l.05859.0586.23047.34765v.35156l-.11719.17188v.29297l.29297.28906.29297.17578.17187.0586.29297.17577.29297.1172.58203.40624.28906.23438.29297.17578.21875.16015.01563.01172.23047.17579.64062.52343.17578.23438.1172.17578.17577.17578.11328.17188v.64062l.1172.17578.46874.11719.58203.11719.23438.05859.23047.11328.29297.11719.11328.0586.58593.35156.28907.17187.17578.0625.17578.05469.17578.0586.69922.35155.28906.17579.23438.05468.28906.17578.23437.1172.64063.40624.29297.11719.17187.0586.23438.05859.41015.05859.23047.0586.23438.11718.0586.17188-.41017.17578.46875.0586.0586.29296.11328.23438.17578.05468.23438.0586.17578.05859.40625.11719.64062.23437.11719.17188.0586.23437v.17578l-.0586.1172-.0586.40624.23438.23438.11719.05859.34766.11719.64062.23047.17578.11718.28906.1172.17578.17577.23438.46485.58203 1.10546.17578.17579.34766.17578.17578.11719.35156.11718 1.04688.52344.23437.0586.46485.11327.29297.0586.46484.17578.75781.58203.23438.23438.34765.46484.17578.17578.28907.23438.8164.69921.29297.17579.28906.28906.29297.17578.29297.28906.69531.64063.17578.17578.29297.23437.28907.23438.46875.28906.64062.58203.34766.23438.23437.29297.34766.34765.35156.46485.9336.99218.34765.40625.11719.17579.23437.05859.11328.11719.64454.17578.23047.11328.23437.0586.29297.17577.23047.1172.9336.69921.40624.40625.23438.17578.40625.17578.23437.11719.8164.34766.34766.23437.23438.11719.29297.28906.23047.11719.7578.35156.35157.17188.23047.05859.29297.11719.23437.0586.8711.17577h.8164l.46875.23047.17188.0586.875.69921.46484.1172.29297.05858.17578.0586.23047.0586.46875.05859.34766.05859.35156.0586.40625.05859h.29297l.17187.0586v.23046l.17578.17578h.29297l.34766.0586.35156.05859.69922.11719h.64063l.46484-.23438.29297-.17578.17187-.11719.41016-.17187.28906-.17578.9336-.46485.46875-.29297.52343-.29296.46485-.17188.46484-.17578 1.05078-.46485.28906-.11718.41016-.11719.28906-.11719.52735-.17578 1.51562-.69922.58203-.34765.28907-.0586.29297-.0586.34765-.11718.875-.23047.35156-.11719h.11329l.23437-.05859.875-.23437.23438-.0586h.8125l.35156-.0586.8164-.11718.17188-.0586.35156-.05468.29297-.0586.23047-.05859.8164-.17578.17579-.0586h.34765l.23438-.05859.46484-.11718.75781-.17188.23438-.0586h.34765l.41016-.11718.28906-.0586 1.28516-.05859h.28906l.41016-.0586.23047-.05858h.17578l.875-.1172h.40625l.41015-.11718h.34766l.35156-.11328.8711-.0586h1.75l1.04687.28907.41016.11719.28906.11718.35156.11719.28907.11719 1.05078.17187.28906.0586h.29297l.29297.05859.17187.0586.41016.05859.17187.0586.1172.05858h.11718l.11719.0586.35156.0586h.11328l.41016.0664 1.92187.39453 1.92578.39453 1.51953.44922 1.69532.71875 2.14453.80469 1.60547-.71875 1.42968-.80469 1.16016-1.07813 1.25-.44921 3.03516-.71875 1.875-.35938 2.14453-1.34765 2.23437-1.25391 2.5-1.25781 1.69531-.44922 1.78516-.17969 1.16016-.26953.625.53906 1.33984-.26953.71485-.98828.98437-1.34375.44531-.17969.80469-.35937 1.875-.53907 1.78516-.44921 1.25-.26954 1.16015-.08984 1.69922-.08984 1.96094-.26954 1.25-.08984h.53906l.625-.08984h.89063l2.14453-.17969 2.41015-.17969 2.58985-.08984 1.69531.17969 1.60938.08984 1.42968.35938 1.16016.71875 1.875.98828 1.16015 1.52734.26563.71484.6289.08985.35548.89844.53515.53906.53516 1.52734 1.07422.35938h.53515l-.80469.53515.08985 1.70703.71484 2.69532.89063.80468.89453.98829.71484 1.2578 1.78516.53907 1.51953-.17969.35547 1.34375 1.60937-.80469.98047-.53906.26953.26953.31641-.21484.21875-.14453.80078.44922.44922-.35938h.35547l.53515-.26953.53907-.71875.53515-.26953.625-.98828 1.16016.44922.83984.3711 1.39454.61718 1.6953-.17969h1.60548l1.78515.08985.17969-1.70704.53516-1.34375.80468.26954.4922.84765.40233.40625-.08984.53906v.35938l.71485.44922.71093-.26953h1.42969l.35938.98828.4453 1.25781.71485 1.34375 1.25.6289 1.69531.62891.71485-.17969.17969-.53906.98046-.08984.44922.35937.08594 1.25782-.26563.6289-.53515.17969v.53906l.71484.98438.26563.53906.98437.98828.80078 1.07813-.26562.35937-.08985.89844-.625 2.33203-.35546 2.0664-.08985 1.79298-.17969.71875-.08984.53906v1.4375l-.98047 1.88281-.35937 1.70703-.53516.89844-.80469 1.16797-.26562.53906 2.05469 1.2539.08593.35938-.35546.53906-.08985-.17968v.80859l.08985 1.4375-.44532.71484-1.07422.09375-.26562.71485.53515.89844.8047.71875 1.16015.80859 1.33984.26953.44531.35938-.35546.44921-1.78907-.08984-1.25-.44922-.71484-.71875-.625-.08984-.17578 3.58984-.1875 1.3086h89.35937V311.70313h-55.26953v49.08203l.76172.125 3.28906.54296 2.02344 2.83594v2.7539l2.35156.33204 2.34766.33203h4.05078l-1.3789 4.16016-2.02344.70703-2.02344.70312-.54297.34375-2.59375 1.6172-.1875.11718-2.02344-2.07813-.73046-2.74218-2.67188-2.07813-1.375-3.5-.0664-.08203-1.95704-2.67188 2.75-1.41796v-49.08204H294.42187v91.41407l.1172.03125.1328.01172.07422.07421.10547.04688.08985.0586.08593.05859.08985.0586.29687.29687.0586.08984.03125.11719.02734.11719.01563.13671-.03125.1172-.0586.08983-.0586.08594-.04296.10547-.04688.10156-.02734.1211v.14453l.17578.26953.14844.14844.07422.08594.07422.07421.04296.10547.0625.08985.0586.08593.04297.10547.0586.08985.04687.10156.04296.10547.0586.08594.11719.17968.07421.07422.0625.08594.0586.08984.04297.10547.0586.08985.05858.08593.0625.08985.0586.08984.04297.10156.11719.17969.07421.07422.0586.08594.07422.07421.08984.0586.10547.04687h.14844l.1328-.01562.13282.01562.10156-.04687.07422-.07422.04688-.10156-.01563-.13281v-.14844l-.04687-.10547-.02735-.11719-.04687-.10156-.02735-.1211-.04296-.10156-.0625-.08984-.04297-.10156-.04297-.10547-.03125-.11719-.01563-.13281-.01171-.13672.08593-.0586.0586-.08593.12109-.03125.04297.10547.01562.1328v.1172l.0586.10156.0586.08984.08983.0586.14844.14843.0586.08985.04296.10547-.01171.10156.08593.0586.10547.04687.08594.0586.08984.05858.07422.07422-.11719.02735-.10546.04687-.08594.0586-.07422.07421-.0586.08985-.0625.08594-.02734.12109-.04687.10156-.04297.10547-.03125.11719-.01172.13281-.01563.13281v.14844l.02735.11719.04687.10547.04297.10156.0586.08984.07421.07422.08985.0586.07422.07421.08984.0586.0586.08984.04296.10547.04688.10156.11719.03125.1328.01563h.14845l.11718-.03125.10547.04297.04297.10547.04688.10156.02734.1211L299.5 410l.02734.11719.03125.1211.02735.11718.10547.04297.10156.04687.13281-.01562.14844.14844.0625.08593.07422.07422.07031.07422.08984.0625.10547.04297.10156.04297.1172.03125.13671.01562.11719-.03125.07422-.07422.02734-.11718-.01172-.13282-.03125-.12109-.02734-.11719.04297-.10547h.11719l.08984.0625.11719.02735h.14843l.13282.01562h.14843l.13282.01563.1328-.01563h.14845l.1328-.01562.13282-.01172.13672.01172.11719-.02735.13281-.01562.1914-.0586-.05859.17579-.01562.1328-.02735.1211-.01562.13281-.0586.08594-.1328.01563-.10548.04687-.10546.04297-.1172.03125-.11718.02735-.26563.03125h-.14843l-.13281.01562-.07422.07422.05859.08594.14844.14843.11719.1797.07421.0703.08985.0625.08984.0586.08594.0586.08984.05858.10156.04297.10547.0625.10547.04297.08594.0586.10547.04687.10156.04297.17969.11719.0586.08984-.04298.10156-.04687.10547.01562.13281.22266.22266.0586.08985.04296.10156.03125.1211.04297.10155.01563.13282.03125.11718.01171.13672.03125.11719.14844.14844.10156.04297.10547.04296.1172.03125.1328.01563.13672.01563h.11719l.11719-.03125.08984-.0586.04297-.10547.04688-.10156.04296-.10547.03125-.11719.01172-.1328v-.14845l-.01172-.1328-.01562-.13282-.03125-.11719-.04297-.10547-.04688-.10547-.04296-.10156-.04297-.10547-.01563-.13281.01563-.13281.02734-.11719.03125-.11719.02735-.1211.04687-.10155.08984-.0586.08594-.0625.07422-.07422.08984-.05859.22266-.22266.0586-.08593.07421-.07422.11719-.17969.0586-.08594v-.14844l-.07423-.07421-.10156-.04688-.10547-.04297-.10156-.04297-.0586-.08984-.04687-.10547-.02734-.11719.08984-.05859.11719-.03125.10156-.04297.17969-.11719.14844-.14843.01172-.13282-.01172-.10546-.08985-.0586-.1328.01563h-.14845l-.1328.01562-.13282-.01562-.1211-.03125-.08593-.0586-.07422-.07422-.0586-.08984-.0625-.08594-.11718-.17969-.0586-.08593.03125-.1211.08594-.05859.1211-.03125.05859-.08594v-.1211l-.03125-.11718-.0586-.08984-.05859-.08594-.04687-.10547-.02735-.11719-.01562-.1328.0586-.08985.07421-.07422.08984-.0586.1172-.17968.07421-.07422.0586-.08594.14843-.14844.1211-.03125.1328-.01562.13282.01562.07422.07422.04297.10547.01562.13281-.03125.1172-.11719.03124-.1328.01172-.14844.14844-.04297.10547-.04688.10156-.02734.1211-.03125.11718v.14844l.03125.11719.04297.10546.05859.08985.07422.07031.07422.07422.11719.03125.12109.02734.11719-.02734.1328-.01563h.1172l.08984.0586.07422.07422.04687.10546.0586.08594.10156.04688.13281.01562.10547.04297.08594.0586-.01172.10546-.07422.07422-.17969.11719-.05859.08984-.08984.0586-.07032.07422-.07421.07421-.0625.08985-.02735.11719-.01562.1328.01562.13282-.01562.13281v.14844l.01562.13281.02735.1172.03125.12108.07421.07422.08985.0586.08594.0586.08984.05858.11719.03125v.08594l-.10157.04688-.08984.0586-.26563.03124-.11718.02735h-.14844l-.10547.04296-.10156.04688-.0586.08984-.0625.23438-.01171.13281-.03125.1211-.01563.1328v.29298l-.01172.1328.01172.13673.01563.1328.1328.01563.13282.01172.1211.03125.08593.0586.07422.07421.04688.10547.04296.10157.01563.1328v.44532l-.01563.13281v.44532l.03125.26562.02735.11719.01562.13281.03125.11719.08594.21094.03125.26562v.14844l-.03125.11719-.02734.11718-.03125.1211-.02735.11719-.03125.11718-.03125.1211-.01171.1328-.01563.13282.08984.0586.1172-.03125.10155.01562.04688.10547-.03125.26562v.44141l-.04297.10547-.04688.10547-.04296.10156-.04297.10547-.0586.08594-.03125.12109-.04296.11719-.03125.11719-.01563.1328.01563.13282.05859.08984.10547.04688.08594.0586.05859.08593-.01172.13672-.03125.11719-.04297.10156v.44531l-.01562.13281v.14844l-.03125.11719-.04297.10547-.02735.11719-.04687.10546-.04297.10157-.03125.12109-.02734.11719-.03125.13281-.03125.11719-.02735.11719-.04297.10546-.03125.1172-.03125.12108-.01171.13282-.01563.13281v.29688l.02734.11718v.14844l.04688.39844.02734.11719.0586.08984.12109.03125h.14844l.13281-.01563.0586.08985v.11719l-.0586.08984-.08984.0586-.10157.04296-.10546.04688-.08985.05859-.08594.0586-.13671.01562-.1172-.03125-.1328-.01563-.10157.04688-.0625.08594-.01172.13671-.01562.13282-.03125.11719-.02735.11718-.01562.13281-.03125.1211v.29687l.01563.13282.03125.11718v.14844l.01171.13281v.14844l-.02734.11719-.04688.10156-.02734.1211-.03125.11718-.0586.08985-.07421.07421-.10156.04297-.10547.04688-.11719.02734-.1211.03125-.10156-.04687.0586-.08594.10547-.04688.02734-.11718.03125-.11719.02734-.1211.03125-.11718v-.14844l.01563-.13281-.03125-.11719-.04297-.10547-.10547.01563-.07422.07422-.10156.04296-.08984.0625-.07422.07422-.04297.10157-.01563.1328-.03125.1172L304.25 426l-.03125.11719-.02734.11719-.03125.12109-.02735.11719-.03125.11718-.04297.10547-.08984.0586h-.08984l-.1172-.03125-.03124-.08594.01562-.13672-.03125-.11719v-.14844l-.01171-.1328v-.14844l-.0625-.23438-.02735-.1211-.04297-.10156-.04687-.10546-.0586-.08594-.05859-.08985-.04297-.10546-.0625-.08594-.14844-.14844-.0703-.07422-.10548-.04687-.10547-.04297-.10156-.04297-.29687-.29688-.08985-.07421-.08594-.0586-.10546-.04297-.08985-.0625-.08594-.0586-.10546-.04296-.08985-.0586-.08594-.0625-.07421-.0703-.10547-.04688-.08594-.0586-.10547-.04296-.08984-.0625-.10156-.04297-.10547-.04297-.08594-.0586-.10547-.04687-.10547-.04297-.10156-.04687-.08985-.0586-.10156-.04297-.10547-.04296-.08984-.0625-.11719-.02735-.13281-.01562-.13281.01562H299.75l-.13281.01563-.11719-.03125-.08984-.0586-.07422-.07422-.08985-.05859-.10156-.04688h-.14844l-.12109-.02734-.10156-.04297-.07422-.07422-.11719-.17968-.08984-.0586-.10156-.04297-.08985-.0625-.10547-.04296-.08984-.0586-.08594-.0586-.10547-.04687-.0586-.08594-.05858-.08984-.04297-.10547-.04688-.10156-.07422-.07422-.08594-.0586-.07421-.07421-.08985-.0586-.22265-.22265-.04297-.10547-.03125-.26563.10547-.04296h.14453l.10547.04296.07421.07422.08985.0586.08594.0586.10546.04687.08985.05859.14844.14844.0703.07422.14845.14843.0625.08594.07421.07422.08594.0586.07422.07421.08985.0625.08984.0586.08594.05859.26953.17578.10156.04688.10547.04296.10156.04297.04688-.07421.05859-.08594.07422-.07422.07031-.07422.10547.04297.07422.07422.0586.08984.04296.10156.04688.10547.04296.10547.1211.02735.11719-.02735.07421-.08984.04297-.10547.0586-.08985.07422-.07421.10546-.04297.1172-.02735.1328.01172.08985.0586.14844.14843.05859.08985.04297.10547.04687.10156.04297.10547.04297.10156.10547.04688.10547.04296.13281.01563.08594-.0586.0586-.08984.07421-.07422.10547-.04297.11719.02735.10547.04687.10156.04297.10547.04297.10156.04688.17969.11718v.11719l-.01563.13281.01563.13281.01562.13672.0586.08594.10156.04688.1211.02734.11718.03125h.14844l.11719-.03125.05859-.08984.17969-.1172.05859-.08983.07422-.07422.0586-.08594.11718-.17969.17969-.11719.11719.03125.08984.0586.04297.07422-.01563.1328v.1172l.08985.05859h.14843l.13282-.01563.1328-.01171.26563-.03125.10547-.04297.11719-.03125.1211-.02735.07421-.07421.07031-.07422.0625-.08985-.01562-.10547-.04688-.10156-.10156-.04297-.10547-.01562-.11718.02734-.26563.03125h-.14844l-.07421-.07422-.08985-.0586-.11719-.03124-.11718-.02735-.13282-.01562h-.14843l-.13282.01563h-.29687l-.10547-.04688-.14844-.14844-.04297-.10156-.05859-.08984.22266-.22266.08593-.0586.10547-.04296.11719-.03125.13281-.01563.13281.01563.13672.01562.10157.04297.1328-.01172.08985-.0625.10156-.04297.0625-.08984-.04687-.10156-.08984-.0586-.1172-.03125-.10155-.04296-.0586-.08985-.0625-.08984v-.11719l.01563-.13281.10547-.04688.07421-.07031v-.1211l-.08984-.05859-.03125-.11719.08985-.05859.07421-.07422.04297-.10547.0586-.08984.04687-.10156.01563-.13281v-.14844l-.04688-.10547-.04297-.10156-.08984-.0586-.13281-.01562-.10157-.04297-.13671-.01563-.1172-.03125h-.4453l-.13282-.01562-.13281-.01172-.13281-.01563-.11719-.03125h-.14844l-.13281-.01562-.13281-.01172-.26563-.03125-.1211-.04297-.08593-.0586-.07422-.07421v-.14844l.01172-.13281.10547-.04688.10156-.04296.13281-.01563h.15235l.13281-.01562h.29297l.1211.03125.10156.04296.08984.0586.23438.0625.12109-.04688.08984-.05859.10156-.04297.13282-.01562.10547.04296.10156.04688.13281.01172.1211-.02735h.14453l.12109-.03125.11719-.02734.10547-.04687.07421-.07422.08594-.0586.14844-.14843.0586-.08594.04687-.10547.02734-.11719.01563-.10547-.10156-.04296-.08985-.0586-.11719-.03125-.10546-.04297-.08985-.0625-.07422-.08594-.07422-.07421-.10156-.04297-.10547-.04688-.10156-.04297-.0586-.08984-.04687-.10156-.08594-.21094-.0625-.08594-.05859-.08984-.07422-.07422-.08594-.0586h-.26953l-.11719.03126-.08984.05859-.10156.04297-.13281.01562-.10547-.01562-.02735-.11719-.0625-.08984-.11718-.03125-.10157-.04297-.14843-.14844-.03125-.11719-.01563-.10546.07422-.07422.17969-.1172.11719-.02733.11718-.03125.13672.01562.10156.04297.10547.04297.10156.04687.10547.04297.1172.03125.1328.01563.1172.02734.1328.01563.10547-.01563.08985-.0586-.07422-.07421-.10547-.04297-.07422-.07422-.07422-.08984-.14844-.14844-.08593-.0586-.08985-.05859-.07422-.07422-.08984-.0586-.10156-.04687-.1211-.02734-.10156-.04688-.10547-.04296-.11719-.03125-.10156-.04297-.1211-.03125h-.14843l-.11719.03125-.10546.04297-.08594.0625-.17969.11718-.08594.0586-.08984.0586-.10547.04687-.08594.05859-.10547.04297-.10156.04297-.10547.04687-.07422.07422-.05859.08985-.0586.08593-.04687.10547-.0586.08594-.07421.07422-.13281-.01172-.1172-.03125h-.11718l-.07422.07422-.08984.0586-.07422.07421-.08984.0586-.08594.05859-.10547.04687-.10156.04297-.13672.01563-.10156-.04297-.14844-.14844-.10547-.04688h-.08594l-.10547.04688-.10156.04297-.1211.03125-.11718-.03125-.07422-.07422v-.11719l.03125-.1211.07422-.0703.0586-.08985.07421-.07422.11719-.03125.10547-.04296h.29297l.13281-.01563.13672-.01563.10156-.04296.08985-.0586.10156-.04687.08984-.0586.13281-.01171.08985.05859.13281.01172.08984-.0586.08594-.05859.10547-.04297.08984-.0586.08594-.0625.08985-.05859.14843-.14843.0586-.08594.05859-.08985.10547-.04296.13281-.01563.11719.02735.1211.03125.05859-.0586.05859-.08984.03125-.26563.02734-.11719.10547.01172.13281.01563.10157-.04297.08984-.0586.0586-.08984.07421-.07422.0586-.08984.04687-.10156.01172-.13281-.01172-.13282-.04687-.10547-.14844-.14843-.0586-.08985-.05859-.08594-.04297-.10546v-.44532l.01563-.1328v-.14845l.01172-.1328-.0586-.0586-.08984.0586-.10156-.04298-.17969-.11719-.08594-.05859-.0625-.08984-.0586-.08985-.07421-.07421-.08594-.0586-.1211.03125-.10155.01172-.10547.04688-.08594.05859-.10547.04297-.14844.14844-.08984.05859-.08594.0586-.08984.0625-.10547.04296-.13281.01563v-.1211l.10547-.04297.11718-.03125.07422-.0703.04297-.10548v-.14844l-.02734-.11718-.14844-.14844-.13281-.01563h-.14844l-.11719.03125-.10547.04297-.10156.04297-.08984.0625-.11719.02735-.07422-.07422.01172-.13281-.04297-.10157-.04297-.10547-.08984-.05859-.11719.02734-.1211.03125-.11718.03125-.10156.04297-.1211.03125-.10156.04297-.10547.04297-.08984.0586-.10156.01562v-.11719l.01562-.13281-.0586-.08985-.07421.04297-.14844.14844-.0586.08985-.07421.07421-.04688.10547-.04296.10156-.07422.07422-.0586.08985-.07422.07422-.05859.08593-.07422.07422-.08984.0625-.07422.07031-.07422.07422-.10156.01563-.13281.01562-.10547-.04296v-.1211l.14843-.14844.04297-.10156.0586-.08984.04687-.10156.04297-.10547.0586-.08985.03124-.11719.04297-.10156.03125-.1211.02735-.11718.04687-.10547.04297-.10156.04297-.10547.07422-.07031.08984-.0625.08985-.0586.10156-.04296h.29687l.26563-.03125.10547-.04297-.07422-.07422-.11719-.03125-.10547-.04297-.08984-.0586-.10156-.04687-.08985-.0586-.10156-.04296-.10547-.04297-.08984-.0625-.08594-.0586-.10547-.04296-.10156-.04297-.1211-.03125-.11718-.03125-.10157-.04297L297.5 410.25l-.10156-.04297-.08985-.0586-.04296-.10546-.01563-.13281.10156-.04297.13281-.01563.13672.01563.13282-.01563.10156-.04297.0586-.08984.01562-.10547-.08985-.0586-.07421-.07421-.10157-.04297-.08984-.0586-.14844-.14843-.04297-.10547-.01562-.13281v-.29297l-.0586-.08985-.08984-.05859-.07422-.07422-.04297-.10547-.03125-.11718-.0586-.08985-.07421-.07422-.11719-.02734-.07422-.07422-.08984-.0586-.08984-.0625-.08594-.05859-.07422-.07421-.0586-.08594-.04687-.10547-.08594-.0586-.14843-.14843-.19532-.0586-.1328.01563-.10157.04297-.07422.07422-.04688.10156-.04296.10547-.0586.08984-.0586.08594-.29687.29687-.08984.0586h-.08594l-.0625-.08594-.04297-.10547.03125-.11719.0586-.08984.02734-.11719-.01172-.13281-.08984-.0625-.10547.04688-.11719.02734-.11719.03125-.26953.17578-.10156.04688-.11719.02734-.10546.04687-.08985.0586-.10156.04297-.0586-.08594-.04687-.10547.01563-.13281.04687-.10547.07031-.07422.07422-.07031.0586-.08985v-.14843l-.04297-.10547h-.23829l-.10156.04687-.03125.11719-.02734.11719-.03125.1211-.07422.04296-.13281.01563-.07422-.04688-.04297-.10156-.04297-.10547-.04687-.10156-.04297-.10547-.1211.03125-.10156.04297-.13281.01562-.11719.03125-.10547.04297-.08984.0586-.10156.04687-.1211.02734-.13281.01563-.10156-.04297-.0586-.08985-.04687-.10546-.04297-.10157-.04297-.10546v-.1172l.0586-.08984.08593-.05859.17969-.11719.10156-.04687.10547-.04297.10547-.0586.10156-.04296.08985-.0625.10156-.04297.10547-.0586.10156-.04687.08984-.0586.10547-.04296.10156-.04297.08985-.0625.10156-.04297.13672-.01563.11719.03125.10156.04297.1211.03125.10156.04297.10546.04688.10157.04296.10547.04297.10156.04688.10547.04297.10156.04297.10547.04687.08594.0586.10546.04296.1172.03125.10546.04297.10156.04688.08985.0586.10547.04296.10156.04297.10547.04687.11719.02735.10156.04687.1211.02735h.14843l.08594-.0586.01562-.10156.0586-.08984-.02735-.1172-.07422-.07421-.11719-.17969-.07421-.07422-.08985-.07421-.17969-.1172-.08593-.05859-.10547-.04296-.10156-.04688-.26954-.17578-.05859-.08985-.07422-.07421-.0586-.08985-.04296-.10156-.03125-.11719-.01563-.13672v-.5625l-.01171-.1328-.01563-.13282-.03125-.11719-.01562-.13281-.01172-.13281-.03125-.1211-.22266-.22265-.0586-.08594-.01562-.10547.03125-.11719.13281-.01562v-91.41406H172.9922v1.45312l-.0586.23438-.35156 1.05078-.17187.52343-.1172.34766-.17577.41016-.11719.17187-.23438.29297-.23046.0586h-.35157l-.11718.05859-.23047.40625v.29297l.11719.17578.23046.23047.1172.23437.64062.75781.29297.46485.17578.23437.23047.35156.23437.34766.64063.8164.17578.46485.17187.41016.11719.69531.17578.46875.11719 1.39844.0586.46484v.875l.11718 1.04688v4.78125l-.0586.46484-.35156 1.28125-.17578.52344-.11328.41015-.35156.9297L172.93359 336l-.23437.58203-.11719.17578-.17187.34766-.17578.40625-.35157.8164-.0586.29297-.11327.29297-.11719.28906-.0586.17579-.11718.875-.0586.40625-.05859.11718-.0586.17579-.05859.17187-.23047.52734-.11718.17188v.23437l-.11719.23438-.0586.17187-.17577.58594v.28906l-.0586.17579v.29296l-.0586.11329-.05859.52734v.17187l-.05468.23438v2.6211l-.17578.8164-.1172.17578-.17577.23438-.1172.17187-.11327.23438-.58594.93359-.23047.28906-.29297.46485-.17578.23437-.28906.35156-.35156.69922-.11328.23047-.17579.41016-.17578.23046-.40625.52735-.8164.69922-.29297.17187-.28906.23438-.17579.11719-.17578.17578-.52344.40625-.52734.17578-.17187.17578-.23438.05469-.64062.17578h-.75782m12.21094 31.02344l-1.07422.44921.35938.89454 1.25-.71485.44531-.53906-.98047-.08985"/><path fill="#d3d3d3" fill-opacity="0" fill-rule="evenodd" d="M201.50781 416.59766h-.89453l.44922.6289.98047.35938.80469-.08985.4453-.98828-.17577.08985-.71485-.35547-.89453.35547m154.6211 59.0703l-.0586-.52343v-.29297l.11328-.29297.0586-.23046.46875-.46875h.11328l.11719-.11329.11718-.05859h.17579l.23437-.0586h.34766l.23437.0586.11719.0586.23047.17187.0586.17578.11718.58203v.29297l-.11719.17578-.17187.28906-.17579.17579-.52734.52343-.23047.23438-.11719.0586h-.17578l-.11718-.0586-.40625-.29297-.17579-.11719-.11718-.0586-.0586-.11327-.05468-.1172m6.64062-10.95702l-.0586-.17188v-1.10937l.0586-.17188.17578-.0586.17188-.05858h.17578l.23437-.0586.1172.0586.05858.69921-.05859.17188-.11719.17578-.11718.0586-.23438.52343-.11328.0586h-.23438l-.05859-.1172m9.61328-14.39062l-.11719-.17578v-.69922l.29297-.875.1172-.17187.17577-.35156.11328-.23047.1172-.29297.35155-.75781.1172-.23047.17187-.23438h.17578l.11719-.0586h.64062l.11719.0586.23437.23438.17188.11328.35156.29297.11719.11718.11328.17579v.11328l.11719.05859.11718.11719v.69922l-.05859.17578v.23047l-.0586.17578-.34765 1.05078-.11719.23047-.11719.23437-.11718.0586-.23047.23437-.64063.28906h-.875l-.41015-.11718-.64063-.46485"/><path fill="none" stroke="#bebebe" stroke-linecap="round" stroke-linejoin="round" stroke-miterlimit="10" stroke-width=".5" d="M467.95703 311.69531H144.02734v168.625h323.9297v-168.625"/><g clip-path="url(#a)"><path fill="#fff" fill-opacity="0" fill-rule="evenodd" d="M144 475.89063v4.4375h.0039H144V311.67188h.0039H144v164.21875"/></g><g clip-path="url(#b)"><path fill="#fff" fill-opacity="0" fill-rule="evenodd" d="M144.0039 480.32813V311.67188h57.69532v149.49609l-1.86719 1.40625 1.86719.53125.6289-.53125-.6289-1.40625v-149.4961h102.08203v137.28516l-.125.30469.125.10156.10156-.10156-.10156-.30469V311.67188h97.64453v144.92187l-1.51953 1.54297 1.51953 1.625 2.35938 2.8125 2.07812 1.95703 1.94531-1.95703-1.9453-2.6836-2.21485-1.7539-2.22266-1.54297V311.67187h66.57031v168.65625H144.00391"/></g><path fill="#50fcfc" fill-rule="evenodd" d="M201.69922 463.10547l-1.86719-.53125 1.86719-1.40625.6289 1.40625-.6289.53125m102.08203-13.74219l-.125-.10156.125-.30469.10156.30469-.10156.10156m97.64453 10.39844l-1.51953-1.625 1.51953-1.54297 2.22266 1.54297 2.21484 1.7539 1.94531 2.6836-1.9453 1.95703-2.07813-1.95703-2.35938-2.8125"/><g clip-path="url(#c)"><path fill="#fff" fill-opacity="0" fill-rule="evenodd" d="M467.9961 480.32813H468V311.67188h-.0039H468v168.65625h-.0039"/></g><g clip-path="url(#d)"><path fill="none" stroke="#000" stroke-linecap="round" stroke-linejoin="round" stroke-miterlimit="10" stroke-width=".5" d="M147.39063 481.2461l-6.78125-1.83594"/></g><g clip-path="url(#e)"><path fill="none" stroke="#000" stroke-linecap="round" stroke-linejoin="round" stroke-miterlimit="10" stroke-width=".5" d="M146.40625 480.98047l.26953 1.19531"/></g><g clip-path="url(#f)"><path fill="none" stroke="#000" stroke-linecap="round" stroke-linejoin="round" stroke-miterlimit="10" stroke-width=".5" d="M160.80469 479.92578l-6.98047.80469"/></g><g clip-path="url(#g)"><path fill="none" stroke="#000" stroke-linecap="round" stroke-linejoin="round" stroke-miterlimit="10" stroke-width=".5" d="M159.78906 480.04297l.69531 1.01172"/></g><g clip-path="url(#h)"><path fill="none" stroke="#000" stroke-linecap="round" stroke-linejoin="round" stroke-miterlimit="10" stroke-width=".5" d="M174.14063 480.50781l-7.01954-.35937"/></g><g clip-path="url(#i)"><path fill="none" stroke="#000" stroke-linecap="round" stroke-linejoin="round" stroke-miterlimit="10" stroke-width=".5" d="M173.11719 480.45703l.51953 1.10938"/></g><g clip-path="url(#j)"><path fill="none" stroke="#000" stroke-linecap="round" stroke-linejoin="round" stroke-miterlimit="10" stroke-width=".5" d="M187.45703 480.42969l-7.02344-.20313"/></g><g clip-path="url(#k)"><path fill="none" stroke="#000" stroke-linecap="round" stroke-linejoin="round" stroke-miterlimit="10" stroke-width=".5" d="M186.4336 480.39844l.54687 1.10156"/></g><g clip-path="url(#l)"><path fill="none" stroke="#000" stroke-linecap="round" stroke-linejoin="round" stroke-miterlimit="10" stroke-width=".5" d="M200.7461 480.76953l-6.97266-.88281"/></g><g clip-path="url(#m)"><path fill="none" stroke="#000" stroke-linecap="round" stroke-linejoin="round" stroke-miterlimit="10" stroke-width=".5" d="M200.7461 480.76953l.87109 2.29297"/></g><g clip-path="url(#n)"><path fill="none" stroke="#000" stroke-linecap="round" stroke-linejoin="round" stroke-miterlimit="10" stroke-width=".5" d="M214.08594 480.46094l-7.02344-.26172"/></g><g clip-path="url(#o)"><path fill="none" stroke="#000" stroke-linecap="round" stroke-linejoin="round" stroke-miterlimit="10" stroke-width=".5" d="M214.08594 480.46094l1.07031 2.20703"/></g><g clip-path="url(#p)"><path fill="none" stroke="#000" stroke-linecap="round" stroke-linejoin="round" stroke-miterlimit="10" stroke-width=".5" d="M227.40234 480.39063l-7.02343-.125"/></g><g clip-path="url(#q)"><path fill="none" stroke="#000" stroke-linecap="round" stroke-linejoin="round" stroke-miterlimit="10" stroke-width=".5" d="M227.40234 480.39063l1.11328 2.1875"/></g><g clip-path="url(#r)"><path fill="none" stroke="#000" stroke-linecap="round" stroke-linejoin="round" stroke-miterlimit="10" stroke-width=".5" d="M240.65625 480.98438l-6.90234-1.3125"/></g><g clip-path="url(#s)"><path fill="none" stroke="#000" stroke-linecap="round" stroke-linejoin="round" stroke-miterlimit="10" stroke-width=".5" d="M239.65234 480.79297l.36328 1.17187"/></g><g clip-path="url(#t)"><path fill="none" stroke="#000" stroke-linecap="round" stroke-linejoin="round" stroke-miterlimit="10" stroke-width=".5" d="M253.96875 481.01172l-6.89453-1.36719"/></g><g clip-path="url(#u)"><path fill="none" stroke="#000" stroke-linecap="round" stroke-linejoin="round" stroke-miterlimit="10" stroke-width=".5" d="M252.96484 480.8125l.35547 1.17578"/></g><g clip-path="url(#v)"><path fill="none" stroke="#000" stroke-linecap="round" stroke-linejoin="round" stroke-miterlimit="10" stroke-width=".5" d="M267.21875 481.26953l-6.76953-1.88281"/></g><g clip-path="url(#w)"><path fill="none" stroke="#000" stroke-linecap="round" stroke-linejoin="round" stroke-miterlimit="10" stroke-width=".5" d="M266.23438 480.9961l.26562 1.19921"/></g><g clip-path="url(#x)"><path fill="none" stroke="#000" stroke-linecap="round" stroke-linejoin="round" stroke-miterlimit="10" stroke-width=".5" d="M280.5664 481.14844l-6.83202-1.63672"/></g><g clip-path="url(#y)"><path fill="none" stroke="#000" stroke-linecap="round" stroke-linejoin="round" stroke-miterlimit="10" stroke-width=".5" d="M279.57422 480.91016l.3086 1.1875"/></g><g clip-path="url(#z)"><path fill="none" stroke="#000" stroke-linecap="round" stroke-linejoin="round" stroke-miterlimit="10" stroke-width=".5" d="M293.82422 481.35547l-6.71875-2.05469"/></g><g clip-path="url(#A)"><path fill="none" stroke="#000" stroke-linecap="round" stroke-linejoin="round" stroke-miterlimit="10" stroke-width=".5" d="M292.84766 481.0586l.23437 1.20312"/></g><g clip-path="url(#B)"><path fill="none" stroke="#000" stroke-linecap="round" stroke-linejoin="round" stroke-miterlimit="10" stroke-width=".5" d="M307.20703 481.10156l-6.85547-1.54687"/></g><g clip-path="url(#C)"><path fill="none" stroke="#000" stroke-linecap="round" stroke-linejoin="round" stroke-miterlimit="10" stroke-width=".5" d="M306.21094 480.8789l.32422 1.1797"/></g><g clip-path="url(#D)"><path fill="none" stroke="#000" stroke-linecap="round" stroke-linejoin="round" stroke-miterlimit="10" stroke-width=".5" d="M320.59766 480.02344l-7.00391.61328"/></g><g clip-path="url(#E)"><path fill="none" stroke="#000" stroke-linecap="round" stroke-linejoin="round" stroke-miterlimit="10" stroke-width=".5" d="M320.59766 480.02344l1.33593 2.0586"/></g><g clip-path="url(#F)"><path fill="none" stroke="#000" stroke-linecap="round" stroke-linejoin="round" stroke-miterlimit="10" stroke-width=".5" d="M333.8164 479.45703l-6.80859 1.74219"/></g><g clip-path="url(#G)"><path fill="none" stroke="#000" stroke-linecap="round" stroke-linejoin="round" stroke-miterlimit="10" stroke-width=".5" d="M333.8164 479.45703l1.65235 1.8164"/></g><g clip-path="url(#H)"><path fill="none" stroke="#000" stroke-linecap="round" stroke-linejoin="round" stroke-miterlimit="10" stroke-width=".5" d="M347.23438 480.51953l-7.01563-.3789"/></g><g clip-path="url(#I)"><path fill="none" stroke="#000" stroke-linecap="round" stroke-linejoin="round" stroke-miterlimit="10" stroke-width=".5" d="M347.23438 480.51953l1.03515 2.22266"/></g><g clip-path="url(#J)"><path fill="none" stroke="#000" stroke-linecap="round" stroke-linejoin="round" stroke-miterlimit="10" stroke-width=".5" d="M360.44531 481.20313l-6.8086-1.75"/></g><g clip-path="url(#K)"><path fill="none" stroke="#000" stroke-linecap="round" stroke-linejoin="round" stroke-miterlimit="10" stroke-width=".5" d="M360.44531 481.20313l.57422 2.38671"/></g><g clip-path="url(#L)"><path fill="none" stroke="#000" stroke-linecap="round" stroke-linejoin="round" stroke-miterlimit="10" stroke-width=".5" d="M373.4414 482.01172l-6.17187-3.36328"/></g><g clip-path="url(#M)"><path fill="none" stroke="#000" stroke-linecap="round" stroke-linejoin="round" stroke-miterlimit="10" stroke-width=".5" d="M387.10938 481.05469l-6.875-1.45313"/></g><g clip-path="url(#N)"><path fill="none" stroke="#000" stroke-linecap="round" stroke-linejoin="round" stroke-miterlimit="10" stroke-width=".5" d="M386.10938 480.84375l.33984 1.17969"/></g><g clip-path="url(#O)"><path fill="none" stroke="#000" stroke-linecap="round" stroke-linejoin="round" stroke-miterlimit="10" stroke-width=".5" d="M400.01953 482.09766l-6.0664-3.53907"/></g><g clip-path="url(#P)"><path fill="none" stroke="#000" stroke-linecap="round" stroke-linejoin="round" stroke-miterlimit="10" stroke-width=".5" d="M411.10156 483.75L409.5 476.90625"/></g><g clip-path="url(#Q)"><path fill="none" stroke="#000" stroke-linecap="round" stroke-linejoin="round" stroke-miterlimit="10" stroke-width=".5" d="M425.8125 483.07031l-4.39453-5.48437"/></g><g clip-path="url(#R)"><path fill="none" stroke="#000" stroke-linecap="round" stroke-linejoin="round" stroke-miterlimit="10" stroke-width=".5" d="M438.89063 483.2461l-3.91797-5.83204"/></g><g clip-path="url(#S)"><path fill="none" stroke="#000" stroke-linecap="round" stroke-linejoin="round" stroke-miterlimit="10" stroke-width=".5" d="M453.1211 482.35156l-5.75-4.04297"/></g><g clip-path="url(#T)"><path fill="none" stroke="#000" stroke-linecap="round" stroke-linejoin="round" stroke-miterlimit="10" stroke-width=".5" d="M466.375 482.4336l-5.625-4.21094"/></g><g clip-path="url(#U)"><path fill="none" stroke="#000" stroke-linecap="round" stroke-linejoin="round" stroke-miterlimit="10" stroke-width=".5" d="M147.4336 467.76953l-6.8672-1.51172"/></g><path fill="none" stroke="#000" stroke-linecap="round" stroke-linejoin="round" stroke-miterlimit="10" stroke-width=".5" d="M147.4336 467.76953l.65624 2.36328m12.63672-2.27343l-6.82031-1.69141m6.82031 1.6914l.59375 2.38282m12.73047-2.42188l-6.83984-1.61328m6.83984 1.61328l.625 2.3711m12.64844-2.21094l-6.75781-1.9336m6.7578 1.9336l.50782 2.40234m12.84375-2.53906l-6.82812-1.66016m6.82812 1.66016l.60547 2.3789m12.76563-2.67577l-6.94532-1.06641m6.94531 1.0664l.8125 2.31641m12.54297-2.84765H220.375m7.02734 0l1.15235 2.16406m12.14062-1.76563l-6.98047-.80078m6.98047.80078l.89844 2.28516m12.42188-2.34375l-6.9922-.6836m6.9922.6836l.9375 2.26953m12.3789-2.27734l-6.99219-.66797m6.9922.66797l.9414 2.26562m12.10547-1.21484l-6.45703-2.76953m5.51953 2.36718l.10156 1.22266m13.88281-.3125l-5.92187-3.78516m5.0625 3.23438l-.09766 1.22266m14.53906-1.17579l-6.45312-2.77734m5.51562 2.3711l.10157 1.22265m14.42578-1.92187l-7.00391-.56641m5.98438.48437l.48828 1.12891m13.8125-1.90234l-6.9336 1.14453m6.9336-1.14453l1.48828 1.9453m11.82031-.78124l-6.92578-1.1836m6.92578 1.1836l.76953 2.33203m12.3711-1.6875l-6.57422-2.47266m6.57422 2.47266l.3164 2.4336m12.78125-1.96094l-6.14062-3.41797m6.14062 3.41797l-.04687 2.45312m13.76953-3.66015l-6.95313-1.00391m6.95313 1.0039l.83203 2.3086m12.13281-1.20703l-6.2539-3.20703m5.34375 2.73828l.01953 1.22656m12.26562.94531l-2.375-6.61328m2.375 6.61328l-1.64844 1.8164m14.42188-1.66796l-1.28906-6.91016m1.28906 6.91016l-1.92188 1.52734m16.47266-2.01171l-3.76172-5.9375m3.76172 5.9375l-1.21484 2.1289m15.28906-2.78125l-5.28125-4.63672m5.28125 4.63672l-.5625 2.38672m14.0039-2.53906l-5.53124-4.33203m4.72656 3.70312l-.21485 1.20703"/><g clip-path="url(#V)"><path fill="none" stroke="#000" stroke-linecap="round" stroke-linejoin="round" stroke-miterlimit="10" stroke-width=".5" d="M147.50781 453.92578l-7.01562-.45312"/></g><path fill="none" stroke="#000" stroke-linecap="round" stroke-linejoin="round" stroke-miterlimit="10" stroke-width=".5" d="M147.50781 453.92578l1.00781 2.23438m12.28907-2.04297l-6.97656-.83594m6.97656.83594l.88281 2.28906M174 454.69531l-6.73828-1.99218M174 454.6953l.48828 2.40625m12.78516-2.28125l-6.65625-2.24218m6.65625 2.24218l.40234 2.42188m12.96094-2.57813l-6.7539-1.9336m6.7539 1.9336l.51172 2.40235m-1.49219-2.6836l.2539 1.19922m14.07423-1.03515l-6.81641-1.69922m6.8164 1.69922l.59375 2.3828m-1.58593-2.6289l.29687 1.1914m14.10938-1.60546l-7.01563-.375m7.01563.375l1.03515 2.22266m-2.05468-2.27735l.51562 1.10938m13.82422-1.16407l-7.02734-.15625m7.02734.15625l1.10156 2.19141m-2.125-2.21484l.55078 1.09765m13.78125-1.39062l-7.01172.47656m7.01172-.47656l1.29297 2.08203m-2.3125-2.01172l.64453 1.03906m13.57422-1.79297l-6.78125 1.83985m6.78125-1.83985l1.67969 1.78907m11.7539-.6836l-7.01952-.36718m7.01953.36718l1.03515 2.22266m11.98047-.98047l-6.42187-2.85547m6.42187 2.85547l.17188 2.44922m12.89453-1.98438l-5.92188-3.78125m5.92188 3.78125l-.19531 2.44532m13.88671-3.23828l-6.67578-2.19532m6.67578 2.19532l.41797 2.41796m12.83985-4.77343l-6.5625 2.51562m6.5625-2.51562l1.85156 1.60937m-2.80469-1.24219l.92578.8047m13.47266-.75782l-6.82031 1.6875m6.8203-1.6875l1.64063 1.82422m-2.6328-1.57813l.8203.91016m13.54688-.85938l-6.9414 1.09375m6.9414-1.09375l1.47656 1.96094m11.86328-1.77344l-6.99218.71875m5.97656-.61328l.6836 1.01953m13.51952-1.76171l-6.73828 1.99218m5.75781-1.70312l.85938.875m13.0586 1.67969l-5.98048-3.69532m5.10938 3.15625l-.07813 1.22266m11.80079.9414l-1.0547-6.9453m1.0547 6.9453l-1.96875 1.46485m14.22265-1.46484l1.07031-6.94532m-1.0703 6.94532l-2.32032.80859m16.61719-.79688l-.89453-6.96875m.89453 6.96875l-2.00391 1.41797m15.71875-1.49218l-1.69531-6.82032m1.69531 6.82032l-1.82422 1.64062m17.03516-2.85547L460.8203 451.5m4.6836 3.75781l-.22657 1.20313"/><g clip-path="url(#W)"><path fill="none" stroke="#000" stroke-linecap="round" stroke-linejoin="round" stroke-miterlimit="10" stroke-width=".5" d="M147.51172 440.48047l-7.02344-.1914"/></g><path fill="none" stroke="#000" stroke-linecap="round" stroke-linejoin="round" stroke-miterlimit="10" stroke-width=".5" d="M147.51172 440.48047l1.09375 2.19531m12.17578-1.72656l-6.9336-1.13281m6.9336 1.1328l.78906 2.32423m12.48047-2.08594l-6.83984-1.60938m6.83984 1.60938l.625 2.3711m-1.6211-2.60548l.3125 1.1875m13.89454-.59765l-6.63281-2.3164m6.6328 2.3164l.375 2.42187m-1.33983-2.76172l.1875 1.21485m14.15234-1.07031l-6.7539-1.9297m6.7539 1.9297l.51562 2.40234m12.75-2.23828L207.25 439.2539m6.65234 2.2578l.39453 2.42188m12.91407-2.39843l-6.64063-2.30079m6.64063 2.30079l.3789 2.42187m13.02344-2.71484l-6.8164-1.71875m6.8164 1.71875l.58594 2.38281m12.83594-3.20312l-7.02735-.07813m7.02735.07813l1.125 2.17968m-2.14844-2.1914l.5625 1.08984m13.70312-1.82813l-6.8828 1.42579m6.8828-1.42578l1.56641 1.88671m11.75781-1.83203l-6.90234 1.3125m6.90234-1.3125l1.53906 1.91406m11.77735-.60546l-6.90625-1.30079m6.90625 1.30079l.73047 2.33984m12.625-2.60938l-6.98438-.76171m6.98438.76171l.91015 2.27735m12.27735-3.67578l-6.73047 2.03125m6.73047-2.03125l1.72656 1.74218m11.33984-2.34765l-6.23437 3.2461m6.23437-3.2461l2.02344 1.38672m11.53516-.78907l-6.72266 2.04688m6.72266-2.04688l1.73437 1.73829m11.63672-1.53907l-6.83203 1.64844m5.83594-1.40625l.8164.91797m13.48828-1.1914l-6.8164 1.71093m5.82422-1.46094l.82031.91016m13.05078-2.17969l-5.94531 3.75m5.94531-3.75l2.1289 1.21875m8.83985-2.80078l-1.2539 6.91406m1.0703-5.90625l1.16798-.375m9.60156 5.64063l4.20703-5.6289m-3.59766 4.80859l-1.21093-.1875m16.37109 1.6875l-.70313-6.9922m.70313 6.9922l-2.03906 1.36328m14.38672-1.39844l1.23046-6.91797m-1.23046 6.91797l-2.33594.7539m2.51562-1.76171l-1.16797.3789m14.2422.6172l1.35155-6.89454m-1.35156 6.89453l-2.34765.71094m17.58984-.875l-2.5039-6.5664m2.14062 5.60937l-.80469.92578"/><g clip-path="url(#X)"><path fill="none" stroke="#000" stroke-linecap="round" stroke-linejoin="round" stroke-miterlimit="10" stroke-width=".5" d="M147.5039 426.8086l-7.0078.51952"/></g><path fill="none" stroke="#000" stroke-linecap="round" stroke-linejoin="round" stroke-miterlimit="10" stroke-width=".5" d="M147.5039 426.8086l1.3086 2.07421m11.97656-1.28125l-6.94531-1.0664m6.94531 1.0664l.8086 2.3164m12.28125-1.51171l-6.4961-2.67578m6.4961 2.67578l.23828 2.4414m13.13672-2.59374l-6.6172-2.3711m6.6172 2.3711l.35156 2.42578m-1.3164-2.76953l.17968 1.21093m14.07422-.80078l-6.5664-2.5039m6.5664 2.5039l.30469 2.4375m12.67968-1.78125l-5.90234-3.8164m5.90234 3.8164l-.20703 2.44532m13.35156-2.20704l-5.5625-4.29296m5.5625 4.29296l-.41015 2.41797m13.875-2.625l-5.85938-3.8789m5.85938 3.8789l-.23828 2.4414m13.85937-3.01171l-6.47265-2.73828m6.47265 2.73828l.21485 2.44531m13.33203-3.2461l-6.9375-1.13671m6.9375 1.13672l.78515 2.32422m12.55078-2.5l-6.98046-.78516m5.96484.67188l.45313 1.14062m13.86718-.92578l-6.95703-.98828m5.94531.84375l.41407 1.15625m13.82422-.58985l-6.78125-1.83203m5.79687 1.56641l.26953 1.19531m14.03516-.9414l-6.79297-1.8047m5.80469 1.53907l.27734 1.19531m13.51172-3.84375l-5.76563 4.01954m4.92579-3.4336l1.09375.5586m13.40625-.52735L340.5 428.46094m5.51172-2.3789l.96094.76562M360.5078 426.5l-6.9336 1.13672m5.92579-.97266l.74219.97656m12.40625-3.23437l-4.58594 5.32422m3.91797-4.55078l1.19922.26953m10.89062-1.8711l-.79687 6.98047m.79687-6.98047l2.28516-.89843m9.77734.98047l1.70703 6.8164m-1.70703-6.8164l1.82422-1.64453m9.44531 7.03906l5.79688-3.97266m-4.95313 3.39453l-1.08593-.57031m14.03515 1.70703l4.84375-5.08984m-4.84375 5.08984l-2.36328-.65625m17.38281 1.55078l1.4336-6.8789m-1.4336 6.8789l-2.35546.6875m2.5625-1.6875l-1.17579.34375m15.16407.72657l-.32813-7.01954m.32813 7.01954l-2.10938 1.25m16.96485-1.6875l-3.40625-6.14454m3.40625 6.14454l-1.33985 2.05859"/><g clip-path="url(#Y)"><path fill="none" stroke="#000" stroke-linecap="round" stroke-linejoin="round" stroke-miterlimit="10" stroke-width=".5" d="M147.49219 413.35156l-6.98438.80469"/></g><path fill="none" stroke="#000" stroke-linecap="round" stroke-linejoin="round" stroke-miterlimit="10" stroke-width=".5" d="M147.49219 413.35156l1.39062 2.01953m11.9375-1.3828l-7.01172-.47267m7.01172.47266l1.0039 2.24219m12.17188-1.46875l-6.73047-2.01563m6.73047 2.01563l.48438 2.40625m12.72656-2.10938l-6.52344-2.60937m6.52344 2.60937l.26563 2.4375m12.66797-1.73046l-5.76172-4.02344m4.92187 3.4375l-.14844 1.21875M213 416.29688l-4.84766-5.08594m4.14063 4.34765l-.38672 1.16407m13.01563.39062l-2.0625-6.71875m1.76171 5.74219l-.86718.86719m14.52734.09375l-2.15234-6.6875m2.15234 6.6875l-1.70703 1.76171m16.29297-2.49218l-4.69531-5.23047m4.6953 5.23047l-.84374 2.30468m15.01953-3.48437l-6.41406-2.86719m6.41406 2.86719l.16797 2.44531m13.07812-5.45703l-6.27734 3.15625m5.36328-2.69922l1.0039.71094m13.3125-.98047l-6.45312 2.78125m5.51563-2.375l.95703.76563m7.1914-1.79688l5.75782 4.03125m13.9453-1.89062l-7.01952-.25m6 .21093l.53515 1.10547m13.8047-1.17969l-7.02735-.02343m6.0039.01953l.57032 1.08594m11.90234-4.19532l-3.30078 6.20313m2.82422-5.30078h1.22656m9.91797-1.16797l1.9961 6.73437m-1.70704-5.7578l.875-.85938m13.61328-.23438l-.92968 6.96484m.79296-5.94921l1.15235-.4297m12.29297-.58593l-.91407 6.96875m.91407-6.96875l2.29687-.85937m10.50781.83203l.10547 7.02344m-.10547-7.02344l2.14844-1.1875m9.6875 1.53515l3.0625 6.32422m8.28516-2.85937l7-.60156m-5.98438.51562l-.66406-1.03125m16.1875 4.32031l.55078-7.00781m-.55078 7.00781l-2.25.97657m15.64063-.97266l.39843-7.01563m-.39843 7.01563l-2.22657 1.02734m17.92969-1.78515l-4.375-5.5m4.375 5.5l-.98047 2.25"/><g clip-path="url(#Z)"><path fill="none" stroke="#000" stroke-linecap="round" stroke-linejoin="round" stroke-miterlimit="10" stroke-width=".5" d="M147.32813 399.3164l-6.65625 2.2461"/></g><path fill="none" stroke="#000" stroke-linecap="round" stroke-linejoin="round" stroke-miterlimit="10" stroke-width=".5" d="M146.35938 399.64063l.89453.84375m13.55468-.40625l-6.98828.72265m5.97266-.61719l.6836 1.01563m13.4453.46484l-6.58593-2.44922m5.6289 2.09375l.16407 1.21485m12.92968.72265l-4.22656-5.61328m3.61328 4.79688l-.51953 1.10937m13.89453.04688l-3.11719-6.29688m2.66407 5.38281l-.71485.9961m13.25782.26953l-.67188-6.9961m.57422 5.97657l-1.02344.67578m14.8086.28516l-1.41407-6.88282m1.21094 5.88282l-.94531.78125m15.44922-.14063l-3.38281-6.16015m3.3828 6.16015l-1.34765 2.05078m14.125-1.8125l-2.3086-6.63672m2.3086 6.63672l-1.66797 1.80078m15.94531-2.3164l-4.23437-5.60938m3.61719 4.79297l-.51953 1.11328m15.83593-2.80469l-7.0039-.58984m5.98437.5039l.48438 1.12891m12.64844-3.99609l-4.60157 5.3125m3.9336-4.53906l1.1953.27344m9.69923-1.8125l1.57422 6.84765M316.375 397l1.4414 6.8789M316.58595 398l.9414-.78516m13.91407-.13671l-2.0625 6.71875m1.76172-5.73829l1.20703-.23437m13.96093.23047l-5.16406 4.76562m5.16406-4.76562l2.31641.8125m11.92188 1.32812l-7.01172.48828m7.01172-.48828l1.30078 2.07813m11.79687-.59375l-6.57422-2.48047m6.57422 2.48047l.3125 2.4336m-1.26953-2.79688l.15625 1.21875m13.84766-3.89063l-6.04297 3.58594m6.04297-3.58594l2.09765 1.27735m-2.97656-.75391l1.05078.63672m13.21094-1.04297l-6.17578 3.35156m6.17578-3.35156l2.04687 1.35547m-2.9453-.86719l1.02343.67969m13.42187-.64063l-6.64062 2.29688m6.64062-2.29688l1.79688 1.67188m-2.76172-1.33594l.89844.83594m13.54687.4336l-6.96875-.91017m6.96875.91016l.85938 2.29688m11.2461-.07422l-4.55079-5.35547m4.55078 5.35547l-.90625 2.27734m12.95313-1.58984l-2.01172-6.73438m2.01172 6.73438l-1.7461 1.72265m1.45313-2.70312l-.875.86328m16.19531-1.02734l-5.4414-4.44532m5.4414 4.44532l-.48047 2.41015m-.3086-3.05469l-.24218 1.20313"/><g clip-path="url(#aa)"><path fill="none" stroke="#000" stroke-linecap="round" stroke-linejoin="round" stroke-miterlimit="10" stroke-width=".5" d="M147.28125 385.86328l-6.5625 2.51953"/></g><path fill="none" stroke="#000" stroke-linecap="round" stroke-linejoin="round" stroke-miterlimit="10" stroke-width=".5" d="M147.28125 385.86328l1.85156 1.60938m10.80469-2.6875l-5.2461 4.67578m5.2461-4.67578l2.30078.85156m7.07031-1.76953l2.64453 6.51172m-2.26171-5.5625l.78906-.94141m10.46484 5.07813l6-3.66016m-5.125 3.1289l-1.0586-.625m13.6836 1.4297l5.6289-4.20704m-5.6289 4.20703l-2.21875-1.04687m17.3125 2.30078l2.07422-6.71485m-1.77344 5.73829l-1.20312.23046m18.39844-1.04296l-6.28907-3.13672m6.28907 3.13672l.0664 2.45312m13.48828-3.08203l-6.76953-1.8789m6.76953 1.8789l.53125 2.39453m12.58594-1.85156l-6.3711-2.96485m6.3711 2.96485l.1289 2.44922m11.1836-.625l-2.3711-6.61328m2.02735 5.65234l-.82422.90625m15.20313-.29688l-3.8086-5.91015m3.25391 5.05078l-.59766 1.07031m14.91016-.55078l-4.6914-5.23047m4.0078 4.46875l-.42187 1.15235m15.55469-2.53125l-6.96094-.94922m6.96094.94922l.84766 2.30078m12.16796-1.28906l-6.36328-2.97266m6.36328 2.97265l.12891 2.45313m-1.05469-2.88281l.0664 1.22265m14.39454-1.39843l-6.80078-1.76172m6.80078 1.76172l.57031 2.38671m-1.5586-2.64062l.57032 2.38281m-1.5625-2.64062l.28516 1.1914m15.07031-.96093l-6.92187-1.19922m6.92187 1.19922l.76563 2.33203m-1.77344-2.50781l.38281 1.16796m13.99219-1.63671l-7.02735.08984m7.02735-.08985l1.17969 2.15235m11.95312-3.22656l-6.66406 2.23828m6.66406-2.23828l1.78125 1.6875m-2.75-1.35938l.89063.84375m13.08593-1.84375l-6.04687 3.58203m6.04687-3.58203l2.09375 1.27735m-2.97265-.75391l1.04687.63672m13.0664-1.28906l-5.88671 3.83984m5.88672-3.83985l2.14844 1.1875m-3.00391-.6289l2.14844 1.1875m12.21484-1.41016l-6.27344 3.16797m6.27344-3.16797l2.0039 1.41406M412.52345 386l2.00781 1.41406m12.48828.57813l-6.8086-1.73828m6.8086 1.73828l.58203 2.38281m11.11328-.22656l-3.5664-6.05078m3.5664 6.05078l-1.28125 2.09375m.76172-2.97266l-.64062 1.04688m14.66797-.28907l-3.95313-5.80859m3.95313 5.8086l-1.14063 2.17187m.5664-3.01563l-1.14062 2.17188m15.8125-2.05469l-5.51562-4.35547m5.51562 4.35547l-.4414 2.41406m-.36328-3.04687l-.4375 2.41406"/><g clip-path="url(#ab)"><path fill="none" stroke="#000" stroke-linecap="round" stroke-linejoin="round" stroke-miterlimit="10" stroke-width=".5" d="M146.1289 371.01172l-4.2578 5.58984"/></g><path fill="none" stroke="#000" stroke-linecap="round" stroke-linejoin="round" stroke-miterlimit="10" stroke-width=".5" d="M146.1289 371.01172l2.42188.39844m-3.03906.41796l1.20703.19532m12.21094-1.33594l-3.22656 6.24219m3.22656-6.24219l2.45312-.03125m-2.92578.9375l1.22656-.01172m11.9336-1.14453l-1.97266 6.74219m1.97266-6.74219l2.40234-.5m11.88672.95313l-3.92188 5.83203m3.35157-4.98047l1.21875.125m13.9414.57422l-6.47265 2.73437m5.53125-2.33984l.95312.77344m10.39844 3.6953l-.66406-6.99609m.66406 6.9961l-2.04688 1.35156m18.38282-3.78906l-6.70313-2.11719m6.70313 2.11719l.44531 2.41015m-1.42188-2.71875l.22266 1.20704m14.22266-1.70704l-7.01172-.5m7.01172.5l.99219 2.2461m-2.01172-2.3164l.99218 2.24218m13.33594-2.73438l-7 .625m7-.625l1.33984 2.0547M253 373.58593l1.34375 2.05469m12.99219-2.15625l-7 .64843m7-.64844l1.34375 2.05079m-2.36328-1.95704l1.34765 2.05079m13-1.91407l-7.02734.1875m7.02734-.1875l1.20703 2.13672m-2.23046-2.10937l.60546 1.0664m13.73047-.84375l-7.01953-.3125m7.01953.3125l1.05469 2.21485m-2.07812-2.26172l.52734 1.10937m13.80469-.96484l-7.00782-.50781m7.00782.50781l.99218 2.24219m-2.01171-2.3164l.49609 1.12108m13.73828-.4375l-6.8086-1.73046m6.8086 1.73046l.58594 2.38672m-1.57422-2.63671l.58203 2.3828m13.8086-2.58593l-6.98047-.82031m6.98046.82031l.89063 2.28516m-1.90625-2.40625l.44531 1.14453m13.50781-3.0586l-6.22656 3.25m6.22656-3.25l2.02344 1.38672m11.48047-.95703l-6.60547 2.39063m6.60547-2.39063l1.82031 1.64453m11.60547-1.28906l-6.82422 1.67969m6.82422-1.67969l1.63672 1.82813m11.42188-2.52735l-6.31641 3.07813m6.3164-3.07813l1.98438 1.4414m10.84766-2.17968l-5.34766 4.55469m5.34766-4.55469l2.28125.90234m-3.0586-.24218l1.14063.45312m13.14844-.85937l-5.7422 4.04687m5.7422-4.04687l2.1914 1.10546m-3.02734-.51953l1.09765.5547m13.66016.36718l-6.95312 1.02734m6.95312-1.02734l1.45313 1.97656m-2.46485-1.82422l.72656.98438m13.3086.86328l-6.3711-2.96875m6.3711 2.96875l.125 2.45312m11.48047-.75l-2.95313-6.375m2.95313 6.375l-1.48047 1.95704m1.05078-2.88282l-.73828.97656m15.32031-.59375l-4.6289-5.28906m4.6289 5.28906l-.8711 2.29297m.19923-3.0625l-.8711 2.29297"/><g clip-path="url(#ac)"><path fill="none" stroke="#000" stroke-linecap="round" stroke-linejoin="round" stroke-miterlimit="10" stroke-width=".5" d="M144.51563 357.01953l-1.03125 6.94922"/></g><path fill="none" stroke="#000" stroke-linecap="round" stroke-linejoin="round" stroke-miterlimit="10" stroke-width=".5" d="M144.51563 357.01953l2.3125-.82422m12.52343 1.4375l-4.07422 5.72266m4.07422-5.72266l2.4336.3164m-3.02344.51563l1.21484.16016m13.70313.125l-6.10156 3.48828m6.10156-3.48828l2.07422 1.3086m-2.96094-.80079l1.03906.65235m13.51953-.26954l-6.8164 1.70704m6.8164-1.70704l1.64453 1.82032m-2.6328-1.57422l1.64062 1.82422m12.76953-1.30469l-7.02735.17578m7.02735-.17578l1.20703 2.13672m-2.23047-2.11328l1.20703 2.13672m12.63281-.26954l-6.02734-3.60937m6.02734 3.60938l-.125 2.45312m-.7539-2.97656l-.1211 2.44922m-.7539-2.97657l-.0625 1.22657m15.54297-1.20704l-6.85157-1.54687m6.85157 1.54688l.64843 2.36718m-1.64453-2.59375l.64844 2.36719m-1.64453-2.58984L225.64844 362m15.0664-1.375l-7.01953-.26172m7.01953.26172l1.07032 2.20703m-2.08985-2.2461l1.07031 2.20704m13.23047-2.8125l-6.95312 1.02734m6.95312-1.02734l1.45703 1.97265m-2.46875-1.82421l1.45704 1.97265m12.78906-2.50781l-6.79297 1.79688m6.79297-1.79688l1.66797 1.80078m-2.65625-1.53906l.83593.89844m13.46875-1.15235l-6.79296 1.78516m6.79296-1.78516l1.66797 1.80078m-2.65625-1.54296l.83203.90234m13.58594-.35547l-7.02344.17578m7.02344-.17578l1.20703 2.13672m-2.22656-2.11328l.60156 1.07031m13.58985-.0039l-6.73438-2.00391m6.73438 2.0039l.48437 2.40625m-1.46484-2.69921l.24219 1.20312m14.05859-.92578l-6.7461-1.97656m6.7461 1.97656l.4961 2.40234m-1.47657-2.6875l.2461 1.19922m14.14453-2.45703l-6.9375 1.11328m6.9375-1.11328l1.48046 1.95703m11.44141-3.10156l-6.14844 3.39844m6.14844-3.39844l2.05469 1.33984m11.51953-.7461l-6.66797 2.21095m6.66797-2.21094l1.77734 1.69531m11.56641-1.61328l-6.72266 2.04688m6.72266-2.04688l1.73047 1.73828m11.47656-2.03125l-6.51172 2.63672m6.51172-2.63672l1.88281 1.57422m11.06641-2.25781l-5.77734 4m5.77734-4l2.17969 1.125m10.88672-1.44531l-5.27735 4.64062m5.27735-4.64063l2.29296.8672m-3.0625-.19141l1.14844.43359m13.45313-.33203l-6.3125 3.08984m6.3125-3.08984l1.98437 1.4375m11.6836-.02344l-7.01954.26172m7.01954-.26172l1.23437 2.1211m11.14453.39843l-5.14844-4.78125m5.14844 4.78125l-.6289 2.3711m-.1211-3.06641l-.3125 1.1875m13.64063.11328l-3.67188-5.99219m3.67188 5.9922l-1.2461 2.11327m.71094-2.98437l-.6211 1.0586"/><g clip-path="url(#ad)"><path fill="none" stroke="#000" stroke-linecap="round" stroke-linejoin="round" stroke-miterlimit="10" stroke-width=".5" d="M142.04688 344.25781l3.90625 5.84375"/></g><path fill="none" stroke="#000" stroke-linecap="round" stroke-linejoin="round" stroke-miterlimit="10" stroke-width=".5" d="M159.9961 344.90625l-5.36329 4.54297m5.36328-4.54297l2.27735.90625m11.60156.01953l-6.49219 2.6914m6.49219-2.6914l1.89453 1.5625m-2.83594-1.16797l.94532.77735m13.53125-.39844l-6.9336 1.14453m6.9336-1.14453l1.49218 1.95312m-2.5-1.78515l1.48828 1.94922m12.80079-.79297l-6.86328-1.5039m6.86328 1.5039l.66406 2.36328m-1.66016-2.58203l.66016 2.36328m-1.66016-2.58203l.33203 1.1836m14.95703-.64454l-6.8164-1.70703m6.8164 1.70703l.58985 2.38281m-1.58203-2.6289l.58984 2.3789M212 347.53516l.29688 1.1914m15.09375-1.2539l-7-.58594m7 .58594l.96875 2.2539m-1.98829-2.33984l.96875 2.2539m13.36328-2.8125l-6.99218.69922m6.99219-.69921l1.35937 2.04296m-2.3789-1.9414l1.36327 2.04297m12.8672-2.69922l-6.78907 1.8086m6.78906-1.8086l1.67188 1.79687m-2.66016-1.53515l1.67188 1.79687m12.59765-2.1875l-6.71875 2.0664m6.71875-2.0664l1.73438 1.73438m-2.71094-1.4336l.86719.86719m13.26562-1.58203l-6.40234 2.89844m6.40234-2.89844l1.9414 1.4961m-2.87109-1.07423l.96875.7461m13.39063-.88281l-6.63281 2.32421m6.63281-2.32421l1.80469 1.66406m-2.76953-1.32422l.90234.82812m13.53906.48829l-6.95703-.98829m6.95703.98829l.83985 2.30468m-1.85157-2.44922l.83594 2.3086m13.51172-2.32031l-6.9961-.67579m6.9961.67579l.9375 2.26562m-1.95703-2.36328l.9414 2.26562m-1.95703-2.36328l.46875 1.13281m14.82813-1.96875l-6.89063 1.38672m6.89063-1.38671l1.5586 1.89843m-2.5625-1.69531l1.55859 1.89453m12.60156-2.65234l-6.57031 2.4961m6.5703-2.4961l1.84376 1.61719m11.47265-1.60938l-6.57421 2.48047m5.61718-2.1211l.92188.8125m13.5664.32422l-7.0078-.51171m5.98827.4375l.4961 1.12109m13.80469-1.86328l-6.9375 1.1211m6.9375-1.1211l1.48046 1.95312m11.4297-3.11328l-6.12892 3.4414m6.12891-3.4414l2.0625 1.32422m10.40235-2.33203l-4.42579 5.45703m4.42579-5.45703l2.40625.46875m10.92968-.44922l-4.47265 5.41797m4.47265-5.41797l2.40625.48828m11.85156.72266l-6.35546 2.9961m6.35546-2.9961l1.96485 1.46875m11.50781 1.13672l-6.67187-2.21094m6.67187 2.21094l.41016 2.41796m12.58203-1.71875l-6.02735-3.61328m6.02735 3.61329l-.125 2.45312"/><g clip-path="url(#ae)"><path fill="none" stroke="#000" stroke-linecap="round" stroke-linejoin="round" stroke-miterlimit="10" stroke-width=".5" d="M147.35938 332.83984l-6.71875 2.04688"/></g><path fill="none" stroke="#000" stroke-linecap="round" stroke-linejoin="round" stroke-miterlimit="10" stroke-width=".5" d="M147.35938 332.83984l1.73437 1.73829m-2.71094-1.44141l.86719.8711m13.55469.26562l-6.98047-.82031m6.98047.8203l.89062 2.28516m12.03906-4.33593l-6.21093 3.28125m6.21094-3.28125l2.03125 1.375m-2.9336-.89844l1.01563.6875m13.60547.66015l-7.01563-.36718m7.01563.36719l1.03906 2.22265m-2.0586-2.27734l.51953 1.11328m13.66407-.20313l-6.71485-2.07812m6.71485 2.07812l.46094 2.41016m-1.4375-2.71094l.46093 2.41016m13.9375-2.55078l-6.92578-1.19531m6.92578 1.1953l.76563 2.33204m-1.77344-2.5039l.76563 2.32812m-1.77344-2.5039l.38281 1.16405m14.9961-1.4414l-7.02344.05469m7.02343-.0547l1.16797 2.16016m-2.1875-2.15234l1.16797 2.16016m13.10156-2.82813l-6.89062 1.375m6.89062-1.375l1.55078 1.89844m-2.55468-1.69922l1.55469 1.89844m12.73437-2.22656l-6.83594 1.6328m6.83594-1.6328l1.625 1.83984m-2.61719-1.60156l1.6211 1.83984m12.64453-2.24219l-6.75 1.96094m6.75-1.96094l1.71094 1.76172m-2.69532-1.47656l.85547.88281m13.28125-1.60547l-6.42578 2.83594m6.42578-2.83594l1.92969 1.51563m11.66797.24219l-6.99219-.6797m6.99219.6797l.9375 2.26953m-1.95313-2.3672l.46875 1.13282m13.82813-.76172L300.3203 333.25m6.92188 1.22656l.7539 2.33203m12.45313-3.99609l-6.70703 2.10156m6.70703-2.10156l1.7461 1.72266m-2.72266-1.41797l.875.85937m13.01562-2.01562l-5.90625 3.80469m5.90625-3.8047l2.14453 1.19532m-3.0039-.64453l2.14453 1.19922m12.30078-1.25l-6.44531 2.80078m6.4453-2.80078l1.91798 1.53125m-2.85547-1.1211l.96094.76172m13.57422.02735l-7.01172.40625m5.99218-.34766l.64063 1.04688m11.21094-.90235l-.01953-.19922-.0586-.1914-.09375-.17579-.46094-.3789-.1914-.0586-.19922-.01953-.19922.01954-.1914.05859-.45704.3789-.09765.17579-.0586.1914-.01953.19922.01953.19922.0586.1914.09765.17579.45703.3789.19141.0586.19922.01953.19922-.01953.1914-.0586.46094-.3789.09375-.17578.0586-.19141.01953-.19922m14.39062-2.8164l-4.19922 5.6328m4.19922-5.6328l2.42578.37109m9.76953-.92969l-1.95703 6.75m1.67188-5.76953l1.19922-.25m14.0703.33594l-5.29687 4.61719m4.52735-3.94532l1.14453.4375m13.17187-.8125l-5.76171 4.02344m4.92578-3.4375l1.08984.5586m13.05469-1.15235l-5.7461 4.03906m5.7461-4.03906l2.1914 1.10938m11.76563.91015h-7.02734m7.02734 0l1.14844 2.16797m-2.17188-2.16797l.57422 1.08203m13.76172-1.0586l-7.02734-.04687"/><g clip-path="url(#af)"><path fill="none" stroke="#000" stroke-linecap="round" stroke-linejoin="round" stroke-miterlimit="10" stroke-width=".5" d="M467.07422 333.88672l1.13672 2.17578"/></g><g clip-path="url(#ag)"><path fill="none" stroke="#000" stroke-linecap="round" stroke-linejoin="round" stroke-miterlimit="10" stroke-width=".5" d="M147.28516 319.30469l-6.57032 2.48828"/></g><path fill="none" stroke="#000" stroke-linecap="round" stroke-linejoin="round" stroke-miterlimit="10" stroke-width=".5" d="M147.28516 319.30469l1.84375 1.61719m-2.80078-1.25782l1.84765 1.61719m12.63281-1.10547l-6.98828.7461m6.98828-.7461l1.375 2.03125m-2.39062-1.92187l.6875 1.01562m13.64453-1.10156l-6.99219.69531m6.99219-.69531l1.36328 2.04297m11.64063-.20703l-6.3672-2.97266m6.3672 2.97266l.1289 2.44921m-1.05469-2.8828l.0625 1.22656m14.44141-1.60157l-6.89453-1.35547m6.89453 1.35547l.71484 2.34766m-1.71875-2.54688l.71485 2.34766m13.66797-2.72656l-7.02344-.20313m7.02344.20313l1.08984 2.19922m-2.10937-2.22657l1.08984 2.19532m13.11328-3.23438l-6.75781 1.92969m6.75781-1.92969l1.70313 1.76563m-2.6875-1.48438l1.70312 1.76563m12.38672-2.60157l-6.33594 3.03907m6.33594-3.03907l1.97266 1.45704m-2.89453-1.01172l.98828.72656m13.57422-.01563l-6.98829.72657m6.98828-.72657l1.3711 2.03516m11.45312-3.49219l-6.0078 3.64063m6.0078-3.64063l2.10938 1.25781m-2.98438-.72656l1.0547.6289m13.64062.50392l-7.01954.3125m7.01954-.3125l1.24609 2.11328m-2.26563-2.06641l.6211 1.05469m13.70312-1.28125l-6.99609.67187m6.9961-.67187l1.35156 2.04687m-2.3711-1.94922l.67578 1.02344m13.59375-1.51953l-6.87109 1.47266m6.8711-1.47266l1.58202 1.875m11.42188-2.7539l-6.2461 3.22656m6.2461-3.22657l2.01562 1.39844m-2.92578-.92578l1.00782.69531m12.8828-1.6914l-5.57812 4.27343m5.57813-4.27343l2.23437 1.01953m-3.04687-.39844l1.11719.51172m11.92578-2.07031l-3.40625 6.14843m3.40625-6.14843l2.45312.04296m10.73828-.10546l-3.16015 6.27734m3.16015-6.27734l2.45313-.0547m12.6914 2.34767l-6.8203 1.6914m5.82812-1.44531l.82031.91015m12.78906-2.54687l-5.42187 4.46875m5.42187-4.46875l2.26563.9414m10.69531-1.3125l-4.71484 5.21094m4.71484-5.21093l2.3789.60156m8.44922-1.50781l.25782 7.02343m-.21875-6l1.0625-.61328M424.26562 324l-1.30078-6.90625m1.11328 5.90234l-.95703.76563m16.70313-1.21875l-5.78516-3.98828m4.94531 3.40625l-.14062 1.21875m14.85937-3.26563l-6.91406 1.26563m6.91406-1.26563l1.52344 1.92578m-2.53125-1.73828l.76172.96094m13.14844-2.26563l-6.08985 3.50391"/><g clip-path="url(#ah)"><path fill="none" stroke="#000" stroke-linecap="round" stroke-linejoin="round" stroke-miterlimit="10" stroke-width=".5" d="M466.60547 318.79688l2.08203 1.30078"/></g><path fill="#00f" fill-rule="evenodd" d="M405.99219 458.77344h8.61719V448.625h-8.6172v10.14844"/><path fill="azure" fill-rule="evenodd" d="M407.82422 450.45703h.83594v2.82422h3.28515v-2.82422h.83203v6.48047h-.83203v-2.91406h-3.28515v2.91406h-.83594v-6.48047"/><path fill="#ff3030" fill-rule="evenodd" d="M322.35938 441.01953h7.6914V430.8711h-7.6914v10.14844"/><path fill="azure" fill-rule="evenodd" d="M324.1914 432.70703h.83204v5.73828h3.19531v.73828h-4.02734v-6.47656"/><path fill="#ff3030" fill-rule="evenodd" d="M175.89063 436.57813h7.6953v-10.14454h-7.6953v10.14454"/><path fill="azure" fill-rule="evenodd" d="M177.72656 428.26563h.83203v5.74218H181.75v.73828h-4.02344v-6.48046"/><path fill="#00f" fill-rule="evenodd" d="M388.23828 432.14063h8.61719v-10.14454h-8.61719v10.14454"/><path fill="azure" fill-rule="evenodd" d="M390.07031 423.82813h.83594v2.82421h3.28516v-2.82421h.83203v6.48046h-.83203v-2.91796h-3.28516v2.91796h-.83594v-6.48046"/><path fill="#00f" fill-rule="evenodd" d="M219.58203 414.38672h8.61719v-10.14453h-8.61719v10.14453"/><path fill="azure" fill-rule="evenodd" d="M221.41406 406.07422h.83203v2.82422h3.28907v-2.82422h.83203v6.48047h-.83203v-2.91406h-3.28907v2.91406h-.83203v-6.48047"/><path fill="#ff3030" fill-rule="evenodd" d="M291.28906 405.51172h7.6914v-10.14453h-7.6914v10.14453"/><path fill="azure" fill-rule="evenodd" d="M293.1211 397.19922h.83593v5.73828h3.1914v.74219h-4.02734v-6.48047"/><path fill="#00f" fill-rule="evenodd" d="M370.48438 405.51172h8.62109v-10.14453h-8.6211v10.14453"/><path fill="azure" fill-rule="evenodd" d="M372.3164 397.19922h.83594v2.82422h3.28516v-2.82422h.83203v6.48047h-.83203v-2.91797h-3.28516v2.91797h-.83593v-6.48047"/><path fill="#ff3030" fill-rule="evenodd" d="M428.8789 396.63281h7.69141v-10.14453h-7.6914v10.14453"/><path fill="azure" fill-rule="evenodd" d="M430.71094 388.32031h.83203v5.74219h3.19531v.73828h-4.02734v-6.48047"/><path fill="#ff3030" fill-rule="evenodd" d="M255.78125 378.88281h7.69531v-10.14844h-7.69531v10.14844"/><path fill="azure" fill-rule="evenodd" d="M257.61719 370.5664h.83203v5.7422h3.1914v.73827h-4.02343v-6.48046"/><path fill="#ff3030" fill-rule="evenodd" d="M171.45313 361.1289h7.6914v-10.14843h-7.6914v10.14844"/><path fill="azure" fill-rule="evenodd" d="M173.28516 352.8164h.83593v5.73829h3.19141v.73828h-4.02734v-6.47656"/><path fill="#ffffe0" fill-rule="evenodd" d="M323.99219 353.16016h22.17969v-10.19141h-22.1797v10.1914"/><path fill-rule="evenodd" d="M327.48828 344.80078H328v6.29297h-.78906v-4.48828h-1.38672v-.55469l.5586-.0664.2539-.0547.22656-.08984.20703-.14062.17188-.21094.14062-.29297.10547-.39453m4.8164 0l.22657.01953.21875.05469.21094.08984.19531.1211.1836.14844.17187.17578.30078.42187.2461.49219.17968.54687.10938.57813.03906.58984-.03906.59375-.10938.58594-.17969.55469-.24609.5-.30078.42969-.17188.17968-.18359.15235-.19531.12109-.21094.09375-.21875.0586-.22656.01952-.23047-.01953-.21875-.05859-.20703-.09375-.19922-.1211-.1836-.15234-.17187-.17969-.30078-.42968-.24219-.5-.17969-.55469-.11328-.58594-.03515-.59375h.83203l.02734.5625.08203.50781.125.44141.16406.375.19141.30078.21094.22266.22265.13672.22657.04687.22656-.04687.22266-.13672.21093-.22266.1875-.30078.16407-.375.125-.4414.08203-.50782.03125-.5625-.03125-.5586-.08203-.5-.125-.4375-.16407-.36718-.1875-.28906-.21093-.21485-.22266-.1328-.22656-.04298-.22656.04297-.22266.13281-.21094.21485-.1914.28906-.16407.36719-.125.4375-.08203.5-.02734.5586h-.83203l.03515-.58985.11328-.57813.1797-.54687.24218-.49219.30078-.42187.17188-.17579.18359-.14843.19922-.1211.20703-.08984.21875-.05469.23047-.01953m5.08984 0h.50781v6.29297h-.78515v-4.48828h-1.38672v-.55469l.5586-.0664.25-.0547.23046-.08984.20313-.14062.17578-.21094.14062-.29297.10547-.39453m2.82422 2.17578h.78516l.01953-.3164.0625-.28516.09765-.2539.14063-.21485.17969-.17578.22265-.1289.26563-.07813.3086-.02735.23827.01954.22266.0625.20703.10156.17578.14062.14844.17188.11328.20703.07422.23437.02344.26563-.01954.26953-.0664.22266-.10938.1914-.15625.17188-.20312.16406-.2461.16406-.6328.39063-.53907.3125-.4375.3164-.34375.32422-.26563.33594-.1914.35156-.125.36719-.0664.39453-.02344.41797h4.21484v-.73828h-3.33203l.08203-.28516.11328-.23828.14844-.19922.1875-.17969.23047-.17187.27734-.17578.71875-.41797.41406-.20313.34766-.23046.27734-.25391.22266-.26563.16406-.27734.10938-.28515.0625-.28516.02343-.28125-.04296-.38281-.1211-.34766-.1875-.3086-.2539-.26171-.30079-.21485-.34375-.15625-.3828-.09765-.40626-.03516-.4336.03125-.39843.10156-.35547.16407-.30469.23437-.25.30469-.18359.375-.11719.44531-.03906.51953"/></g></defs><use xlink:href="#ai"/></svg>