<svg xmlns="http://www.w3.org/2000/svg" role="img" xmlns:xlink="http://www.w3.org/1999/xlink" viewBox="142.45 309.95 326.84 171.84"><defs><clipPath id="a"><path d="M144 311.67188h1v168.65625h-1zm0 0"/></clipPath><clipPath id="b"><path d="M144 311.67188h324v168.65625H144zm0 0"/></clipPath><clipPath id="c"><path d="M293 478h4v2.32813h-4zm0 0"/></clipPath><clipPath id="d"><path d="M467 311.67188h1v168.65625h-1zm0 0"/></clipPath><clipPath id="e"><path d="M144 479h4v1.32813h-4zm0 0"/></clipPath><clipPath id="f"><path d="M146 480h2v.32813h-2zm0 0"/></clipPath><clipPath id="g"><path d="M153 479h8v1.32813h-8zm0 0"/></clipPath><clipPath id="h"><path d="M159 480h2v.32813h-2zm0 0"/></clipPath><clipPath id="i"><path d="M166 479h9v1.32813h-9zm0 0"/></clipPath><clipPath id="j"><path d="M172 480h2v.32813h-2zm0 0"/></clipPath><clipPath id="k"><path d="M180 478h8v2.32813h-8zm0 0"/></clipPath><clipPath id="l"><path d="M186 480h1v.32813h-1zm0 0"/></clipPath><clipPath id="m"><path d="M193 479h8v1.32813h-8zm0 0"/></clipPath><clipPath id="n"><path d="M207 478h8v2.32813h-8zm0 0"/></clipPath><clipPath id="o"><path d="M220 478h8v2.32813h-8zm0 0"/></clipPath><clipPath id="p"><path d="M233 478h8v2.32813h-8zm0 0"/></clipPath><clipPath id="q"><path d="M247 478h7v2.32813h-7zm0 0"/></clipPath><clipPath id="r"><path d="M260 478h8v2.32813h-8zm0 0"/></clipPath><clipPath id="s"><path d="M273 478h8v2.32813h-8zm0 0"/></clipPath><clipPath id="t"><path d="M286 479h9v1.32813h-9zm0 0"/></clipPath><clipPath id="u"><path d="M292 480h2v.32813h-2zm0 0"/></clipPath><clipPath id="v"><path d="M300 480h8v.32813h-8zm0 0"/></clipPath><clipPath id="w"><path d="M306 480h2v.32813h-2zm0 0"/></clipPath><clipPath id="x"><path d="M313 479h8v1.32813h-8zm0 0"/></clipPath><clipPath id="y"><path d="M319 480h2v.32813h-2zm0 0"/></clipPath><clipPath id="z"><path d="M326 478h8v2.32813h-8zm0 0"/></clipPath><clipPath id="A"><path d="M341 477h6v3.32813h-6zm0 0"/></clipPath><clipPath id="B"><path d="M355 476h4v4.32813h-4zm0 0"/></clipPath><clipPath id="C"><path d="M368 477h5v3.32813h-5zm0 0"/></clipPath><clipPath id="D"><path d="M381 476h5v4.32813h-5zm0 0"/></clipPath><clipPath id="E"><path d="M394 477h6v3.32813h-6zm0 0"/></clipPath><clipPath id="F"><path d="M407 477h6v3.32813h-6zm0 0"/></clipPath><clipPath id="G"><path d="M420 477h7v3.32813h-7zm0 0"/></clipPath><clipPath id="H"><path d="M434 477h6v3.32813h-6zm0 0"/></clipPath><clipPath id="I"><path d="M447 477h6v3.32813h-6zm0 0"/></clipPath><clipPath id="J"><path d="M460 477h7v3.32813h-7zm0 0"/></clipPath><clipPath id="K"><path d="M144 466h4v2h-4zm0 0"/></clipPath><clipPath id="L"><path d="M144 452h4v4h-4zm0 0"/></clipPath><clipPath id="M"><path d="M144 438h4v4h-4zm0 0"/></clipPath><clipPath id="N"><path d="M144 425h4v4h-4zm0 0"/></clipPath><clipPath id="O"><path d="M144 412h4v3h-4zm0 0"/></clipPath><clipPath id="P"><path d="M144 400h4v1h-4zm0 0"/></clipPath><clipPath id="Q"><path d="M144 384h3v7h-3zm0 0"/></clipPath><clipPath id="R"><path d="M144 370h2v8h-2zm0 0"/></clipPath><clipPath id="S"><path d="M144 356h2v9h-2zm0 0"/></clipPath><clipPath id="T"><path d="M144 343h2v8h-2zm0 0"/></clipPath><clipPath id="U"><path d="M144 331h3v6h-3zm0 0"/></clipPath><clipPath id="V"><path d="M144 317h3v7h-3zm0 0"/></clipPath><g id="W" clip-path="url(#clip1)"><path fill="#fff" fill-opacity="0" fill-rule="evenodd" d="M0 0h1000v1000H0zm0 0"/><path fill="#d3d3d3" fill-opacity="0" fill-rule="evenodd" d="M162.15234 355.86719l-.23437.29297.0586.23437.11718.17188.17578.23437.29297.34766.11328.0586.11719-.17188.0586-.23438.17577-.17578.46485-.17578h.69922l.23437.29297.28906.8164.0586.17579.17578.23046.35156.23438.69922.69922.17188.17578.23437.34765.23438.41016.28906.58203.41015.46485.23047.23437.23438.17578.11719.23047.17578.29297.17187 1.16406v.23438l.0586.28906.05859.11719.11719.11719.34765.41015.11719.17188.17578.17578.17578.23437.11719.17188.17188.35156.05859.23438.23437.40625.23438-.0586-.17578.17578-.0586.92969h-.58203l-.23437-.11328-.34766.11328-.11719.11719-.05859.29297-.0586.17578-.11718.17187-.46484.29297-.0586.23438-.0586.11328v.64453l.0586.17187v.41016l.0586.0586v.40624l.05859.40625.11719.17579.05859.05859.23047.64062-.0586.29297v.69922l-.05859.58203v.23438l-.0586.23047-.05468.35156v1.92187l.05469.1172h.42578l-.36719.11718-.02344.35156.89063 1.16797 1.74219.53906 1.33984.35938v.53906l.08984.8086.53516.71484 1.51953.26953.89063-.08594.08984 1.16406.53516.1797 1.16015-.1797 2.05469-.98437 1.16016-.36328 1.8789-.17578 1.69531-.1797-.17968.71876-1.51563.08594-1.25.08984-.80469.26953-1.07421.8086.26953.71875.53515.89843-.17968.625-.26563.8086.26563 1.07812.625.89844.80468.17969 1.25-.1797-.26562.72267.09766.5039.05468.29297v.17188l.0586.29296v.40625l.17578.1172.35156.11718h.40625l.29297-.17578.11328-.11719.0586-.11719.11718-.23047.0586-.17578.35156-.46484.23047-.17578.17578-.0586.17578.0586.0586.17578.11718.98828.05469.46875.0586.17188.11718.23437.17578.0586.8164.05859h.28907l.11719.23437.05859.40625.0586.35156v1.10547l.11718.29297.11719.34766.28906.69922.17578.35156.58203.7539.35157.17579.17187.0586.46875.23437.64063.46484.34765.23438.29297.17578.29297.05468.23047.0625.8164.34766.29297.17578.11328.17188.35157.35156.11719.17578.52343.64063v.28906l.0586.35156v.34766l.05859.35156.0586.28906.11718.0586.17188.05859h.17578l.58203.23437.17578.1172.17578.28905.17578.23438.11328.23437.29297.23047.11719.11719v.41016l.0586.05468.28906.23438.23437.11719.0586.11718.11718.17188.0586.11719.23047.23437.05859.17578.23437.0586.1172.05859-.1172.11328-.05859.11719v.11719l-.11719.29296-.11719.28907v.58203l.17579.11719.11718.05859.0586.11719.11719.11719.11328.05859.17578.34765.0586.35157.05858.40625v.17578l-.05859.17578-.11719.69922v.17187l.1172.17579.29296.29296h.40625l.17578.1172.11719.17187.11719.29296v.23438h-.52735l-.23047-.23438h-.23437l-.17578.0586-.0586.69922.0586.34765.11719.17579.17578.41015.11718.23047.28907.46875.17578.05469h.52344l.23437.0586.75781.64062.0586.29296v.23438l.05859.0586.23047.34765v.35156l-.11719.17188v.29297l.29297.28906.29297.17578.17187.0586.29297.17577.29297.1172.58203.40624.28906.23438.29297.17578.21875.16015.01563.01172.23047.17579.64062.52343.17578.23438.1172.17578.17577.17578.11328.17188v.64062l.1172.17578.46874.11719.58203.11719.23438.05859.23047.11328.29297.11719.11328.0586.58593.35156.28907.17187.17578.0625.17578.05469.17578.0586.69922.35155.28906.17579.23438.05468.28906.17578.23437.1172.64063.40624.29297.11719.17187.0586.23438.05859.41015.05859.23047.0586.23438.11718.0586.17188-.41017.17578.46875.0586.0586.29296.11328.23438.17578.05468.23438.0586.17578.05859.40625.11719.64062.23437.11719.17188.0586.23437v.17578l-.0586.1172-.0586.40624.23438.23438.11719.05859.34766.11719.64062.23047.17578.11718.28906.1172.17578.17577.23438.46485.58203 1.10546.17578.17579.34766.17578.17578.11719.35156.11718 1.04688.52344.23437.0586.46485.11327.29297.0586.46484.17578.75781.58203.23438.23438.34765.46484.17578.17578.28907.23438.8164.69921.29297.17579.28906.28906.29297.17578.29297.28906.69531.64063.17578.17578.29297.23437.28907.23438.46875.28906.64062.58203.34766.23438.23437.29297.34766.34765.35156.46485.9336.99218.34765.40625.11719.17579.23437.05859.11328.11719.64454.17578.23047.11328.23437.0586.29297.17577.23047.1172.9336.69921.40624.40625.23438.17578.40625.17578.23437.11719.8164.34766.34766.23437.23438.11719.29297.28906.23047.11719.7578.35156.35157.17188.23047.05859.29297.11719.23437.0586.8711.17577h.8164l.46875.23047.17188.0586.875.69921.46484.1172.29297.05858.17578.0586.23047.0586.46875.05859.34766.05859.35156.0586.40625.05859h.29297l.17187.0586v.23046l.17578.17578h.29297l.34766.0586.35156.05859.69922.11719h.64063l.46484-.23438.29297-.17578.17187-.11719.41016-.17187.28906-.17578.9336-.46485.46875-.29297.52343-.29296.46485-.17188.46484-.17578 1.05078-.46485.28906-.11718.41016-.11719.28906-.11719.52735-.17578 1.51562-.69922.58203-.34765.28907-.0586.29297-.0586.34765-.11718.875-.23047.35156-.11719h.11329l.23437-.05859.875-.23437.23438-.0586h.8125l.35156-.0586.8164-.11718.17188-.0586.35156-.05468.29297-.0586.23047-.05859.8164-.17578.17579-.0586h.34765l.23438-.05859.46484-.11718.75781-.17188.23438-.0586h.34765l.41016-.11718.28906-.0586 1.28516-.05859h.28906l.41016-.0586.23047-.05858h.17578l.875-.1172h.40625l.41015-.11718h.34766l.35156-.11328.8711-.0586h1.75l1.04687.28907.41016.11719.28906.11718.35156.11719.28907.11719 1.05078.17187.28906.0586h.29297l.29297.05859.17187.0586.41016.05859.17187.0586.1172.05858h.11718l.11719.0586.35156.0586h.11328l.41016.0664 1.92187.39453 1.92578.39453 1.51953.44922 1.69532.71875 2.14453.80469 1.60547-.71875 1.42968-.80469 1.16016-1.07813 1.25-.44921 3.03516-.71875 1.875-.35938 2.14453-1.34765 2.23437-1.25391 2.5-1.25781 1.69531-.44922 1.78516-.17969 1.16016-.26953.625.53906 1.33984-.26953.71485-.98828.98437-1.34375.44531-.17969.80469-.35937 1.875-.53907 1.78516-.44921 1.25-.26954 1.16015-.08984 1.69922-.08984 1.96094-.26954 1.25-.08984h.53906l.625-.08984h.89063l2.14453-.17969 2.41015-.17969 2.58985-.08984 1.69531.17969 1.60938.08984 1.42968.35938 1.16016.71875 1.875.98828 1.16015 1.52734.26563.71484.6289.08985.35548.89844.53515.53906.53516 1.52734 1.07422.35938h.53515l-.80469.53515.08985 1.70703.71484 2.69532.89063.80468.89453.98829.71484 1.2578 1.78516.53907 1.51953-.17969.35547 1.34375 1.60937-.80469.98047-.53906.26953.26953.31641-.21484.21875-.14453.80078.44922.44922-.35938h.35547l.53515-.26953.53907-.71875.53515-.26953.625-.98828 1.16016.44922.83984.3711 1.39454.61718 1.6953-.17969h1.60548l1.78515.08985.17969-1.70704.53516-1.34375.80468.26954.4922.84765.40233.40625-.08984.53906v.35938l.71485.44922.71093-.26953h1.42969l.35938.98828.4453 1.25781.71485 1.34375 1.25.6289 1.69531.62891.71485-.17969.17969-.53906.98046-.08984.44922.35937.08594 1.25782-.26563.6289-.53515.17969v.53906l.71484.98438.26563.53906.98437.98828.80078 1.07813-.26562.35937-.08985.89844-.625 2.33203-.35546 2.0664-.08985 1.79298-.17969.71875-.08984.53906v1.4375l-.98047 1.88281-.35937 1.70703-.53516.89844-.80469 1.16797-.26562.53906 2.05469 1.2539.08593.35938-.35546.53906-.08985-.17968v.80859l.08985 1.4375-.44532.71484-1.07422.09375-.26562.71485.53515.89844.8047.71875 1.16015.80859 1.33984.26953.44531.35938-.35546.44921-1.78907-.08984-1.25-.44922-.71484-.71875-.625-.08984-.17578 3.58984-.1875 1.3086h89.35937V311.70313h-55.26953v49.08203l.76172.125 3.28906.54296 2.02344 2.83594v2.7539l2.35156.33204 2.34766.33203h4.05078l-1.3789 4.16016-2.02344.70703-2.02344.70312-.54297.34375-2.59375 1.6172-.1875.11718-2.02344-2.07813-.73046-2.74218-2.67188-2.07813-1.375-3.5-.0664-.08203-1.95704-2.67188 2.75-1.41796v-49.08204H294.42187v91.41407l.1172.03125.1328.01172.07422.07421.10547.04688.08985.0586.08593.05859.08985.0586.29687.29687.0586.08984.03125.11719.02734.11719.01563.13671-.03125.1172-.0586.08983-.0586.08594-.04296.10547-.04688.10156-.02734.1211v.14453l.17578.26953.14844.14844.07422.08594.07422.07421.04296.10547.0625.08985.0586.08593.04297.10547.0586.08985.04687.10156.04296.10547.0586.08594.11719.17968.07421.07422.0625.08594.0586.08984.04297.10547.0586.08985.05858.08593.0625.08985.0586.08984.04297.10156.11719.17969.07421.07422.0586.08594.07422.07421.08984.0586.10547.04687h.14844l.1328-.01562.13282.01562.10156-.04687.07422-.07422.04688-.10156-.01563-.13281v-.14844l-.04687-.10547-.02735-.11719-.04687-.10156-.02735-.1211-.04296-.10156-.0625-.08984-.04297-.10156-.04297-.10547-.03125-.11719-.01563-.13281-.01171-.13672.08593-.0586.0586-.08593.12109-.03125.04297.10547.01562.1328v.1172l.0586.10156.0586.08984.08983.0586.14844.14843.0586.08985.04296.10547-.01171.10156.08593.0586.10547.04687.08594.0586.08984.05858.07422.07422-.11719.02735-.10546.04687-.08594.0586-.07422.07421-.0586.08985-.0625.08594-.02734.12109-.04687.10156-.04297.10547-.03125.11719-.01172.13281-.01563.13281v.14844l.02735.11719.04687.10547.04297.10156.0586.08984.07421.07422.08985.0586.07422.07421.08984.0586.0586.08984.04296.10547.04688.10156.11719.03125.1328.01563h.14845l.11718-.03125.10547.04297.04297.10547.04688.10156.02734.1211L299.5 410l.02734.11719.03125.1211.02735.11718.10547.04297.10156.04687.13281-.01562.14844.14844.0625.08593.07422.07422.07031.07422.08984.0625.10547.04297.10156.04297.1172.03125.13671.01562.11719-.03125.07422-.07422.02734-.11718-.01172-.13282-.03125-.12109-.02734-.11719.04297-.10547h.11719l.08984.0625.11719.02735h.14843l.13282.01562h.14843l.13282.01563.1328-.01563h.14845l.1328-.01562.13282-.01172.13672.01172.11719-.02735.13281-.01562.1914-.0586-.05859.17579-.01562.1328-.02735.1211-.01562.13281-.0586.08594-.1328.01563-.10548.04687-.10546.04297-.1172.03125-.11718.02735-.26563.03125h-.14843l-.13281.01562-.07422.07422.05859.08594.14844.14843.11719.1797.07421.0703.08985.0625.08984.0586.08594.0586.08984.05858.10156.04297.10547.0625.10547.04297.08594.0586.10547.04687.10156.04297.17969.11719.0586.08984-.04298.10156-.04687.10547.01562.13281.22266.22266.0586.08985.04296.10156.03125.1211.04297.10155.01563.13282.03125.11718.01171.13672.03125.11719.14844.14844.10156.04297.10547.04296.1172.03125.1328.01563.13672.01563h.11719l.11719-.03125.08984-.0586.04297-.10547.04688-.10156.04296-.10547.03125-.11719.01172-.1328v-.14845l-.01172-.1328-.01562-.13282-.03125-.11719-.04297-.10547-.04688-.10547-.04296-.10156-.04297-.10547-.01563-.13281.01563-.13281.02734-.11719.03125-.11719.02735-.1211.04687-.10155.08984-.0586.08594-.0625.07422-.07422.08984-.05859.22266-.22266.0586-.08593.07421-.07422.11719-.17969.0586-.08594v-.14844l-.07423-.07421-.10156-.04688-.10547-.04297-.10156-.04297-.0586-.08984-.04687-.10547-.02734-.11719.08984-.05859.11719-.03125.10156-.04297.17969-.11719.14844-.14843.01172-.13282-.01172-.10546-.08985-.0586-.1328.01563h-.14845l-.1328.01562-.13282-.01562-.1211-.03125-.08593-.0586-.07422-.07422-.0586-.08984-.0625-.08594-.11718-.17969-.0586-.08593.03125-.1211.08594-.05859.1211-.03125.05859-.08594v-.1211l-.03125-.11718-.0586-.08984-.05859-.08594-.04687-.10547-.02735-.11719-.01562-.1328.0586-.08985.07421-.07422.08984-.0586.1172-.17968.07421-.07422.0586-.08594.14843-.14844.1211-.03125.1328-.01562.13282.01562.07422.07422.04297.10547.01562.13281-.03125.1172-.11719.03124-.1328.01172-.14844.14844-.04297.10547-.04688.10156-.02734.1211-.03125.11718v.14844l.03125.11719.04297.10546.05859.08985.07422.07031.07422.07422.11719.03125.12109.02734.11719-.02734.1328-.01563h.1172l.08984.0586.07422.07422.04687.10546.0586.08594.10156.04688.13281.01562.10547.04297.08594.0586-.01172.10546-.07422.07422-.17969.11719-.05859.08984-.08984.0586-.07032.07422-.07421.07421-.0625.08985-.02735.11719-.01562.1328.01562.13282-.01562.13281v.14844l.01562.13281.02735.1172.03125.12108.07421.07422.08985.0586.08594.0586.08984.05858.11719.03125v.08594l-.10157.04688-.08984.0586-.26563.03124-.11718.02735h-.14844l-.10547.04296-.10156.04688-.0586.08984-.0625.23438-.01171.13281-.03125.1211-.01563.1328v.29298l-.01172.1328.01172.13673.01563.1328.1328.01563.13282.01172.1211.03125.08593.0586.07422.07421.04688.10547.04296.10157.01563.1328v.44532l-.01563.13281v.44532l.03125.26562.02735.11719.01562.13281.03125.11719.08594.21094.03125.26562v.14844l-.03125.11719-.02734.11718-.03125.1211-.02735.11719-.03125.11718-.03125.1211-.01171.1328-.01563.13282.08984.0586.1172-.03125.10155.01562.04688.10547-.03125.26562v.44141l-.04297.10547-.04688.10547-.04296.10156-.04297.10547-.0586.08594-.03125.12109-.04296.11719-.03125.11719-.01563.1328.01563.13282.05859.08984.10547.04688.08594.0586.05859.08593-.01172.13672-.03125.11719-.04297.10156v.44531l-.01562.13281v.14844l-.03125.11719-.04297.10547-.02735.11719-.04687.10546-.04297.10157-.03125.12109-.02734.11719-.03125.13281-.03125.11719-.02735.11719-.04297.10546-.03125.1172-.03125.12108-.01171.13282-.01563.13281v.29688l.02734.11718v.14844l.04688.39844.02734.11719.0586.08984.12109.03125h.14844l.13281-.01563.0586.08985v.11719l-.0586.08984-.08984.0586-.10157.04296-.10546.04688-.08985.05859-.08594.0586-.13671.01562-.1172-.03125-.1328-.01563-.10157.04688-.0625.08594-.01172.13671-.01562.13282-.03125.11719-.02735.11718-.01562.13281-.03125.1211v.29687l.01563.13282.03125.11718v.14844l.01171.13281v.14844l-.02734.11719-.04688.10156-.02734.1211-.03125.11718-.0586.08985-.07421.07421-.10156.04297-.10547.04688-.11719.02734-.1211.03125-.10156-.04687.0586-.08594.10547-.04688.02734-.11718.03125-.11719.02734-.1211.03125-.11718v-.14844l.01563-.13281-.03125-.11719-.04297-.10547-.10547.01563-.07422.07422-.10156.04296-.08984.0625-.07422.07422-.04297.10157-.01563.1328-.03125.1172L304.25 426l-.03125.11719-.02734.11719-.03125.12109-.02735.11719-.03125.11718-.04297.10547-.08984.0586h-.08984l-.1172-.03125-.03124-.08594.01562-.13672-.03125-.11719v-.14844l-.01171-.1328v-.14844l-.0625-.23438-.02735-.1211-.04297-.10156-.04687-.10546-.0586-.08594-.05859-.08985-.04297-.10546-.0625-.08594-.14844-.14844-.0703-.07422-.10548-.04687-.10547-.04297-.10156-.04297-.29687-.29688-.08985-.07421-.08594-.0586-.10546-.04297-.08985-.0625-.08594-.0586-.10546-.04296-.08985-.0586-.08594-.0625-.07421-.0703-.10547-.04688-.08594-.0586-.10547-.04296-.08984-.0625-.10156-.04297-.10547-.04297-.08594-.0586-.10547-.04687-.10547-.04297-.10156-.04687-.08985-.0586-.10156-.04297-.10547-.04296-.08984-.0625-.11719-.02735-.13281-.01562-.13281.01562H299.75l-.13281.01563-.11719-.03125-.08984-.0586-.07422-.07422-.08985-.05859-.10156-.04688h-.14844l-.12109-.02734-.10156-.04297-.07422-.07422-.11719-.17968-.08984-.0586-.10156-.04297-.08985-.0625-.10547-.04296-.08984-.0586-.08594-.0586-.10547-.04687-.0586-.08594-.05858-.08984-.04297-.10547-.04688-.10156-.07422-.07422-.08594-.0586-.07421-.07421-.08985-.0586-.22265-.22265-.04297-.10547-.03125-.26563.10547-.04296h.14453l.10547.04296.07421.07422.08985.0586.08594.0586.10546.04687.08985.05859.14844.14844.0703.07422.14845.14843.0625.08594.07421.07422.08594.0586.07422.07421.08985.0625.08984.0586.08594.05859.26953.17578.10156.04688.10547.04296.10156.04297.04688-.07421.05859-.08594.07422-.07422.07031-.07422.10547.04297.07422.07422.0586.08984.04296.10156.04688.10547.04296.10547.1211.02735.11719-.02735.07421-.08984.04297-.10547.0586-.08985.07422-.07421.10546-.04297.1172-.02735.1328.01172.08985.0586.14844.14843.05859.08985.04297.10547.04687.10156.04297.10547.04297.10156.10547.04688.10547.04296.13281.01563.08594-.0586.0586-.08984.07421-.07422.10547-.04297.11719.02735.10547.04687.10156.04297.10547.04297.10156.04688.17969.11718v.11719l-.01563.13281.01563.13281.01562.13672.0586.08594.10156.04688.1211.02734.11718.03125h.14844l.11719-.03125.05859-.08984.17969-.1172.05859-.08983.07422-.07422.0586-.08594.11718-.17969.17969-.11719.11719.03125.08984.0586.04297.07422-.01563.1328v.1172l.08985.05859h.14843l.13282-.01563.1328-.01171.26563-.03125.10547-.04297.11719-.03125.1211-.02735.07421-.07421.07031-.07422.0625-.08985-.01562-.10547-.04688-.10156-.10156-.04297-.10547-.01562-.11718.02734-.26563.03125h-.14844l-.07421-.07422-.08985-.0586-.11719-.03124-.11718-.02735-.13282-.01562h-.14843l-.13282.01563h-.29687l-.10547-.04688-.14844-.14844-.04297-.10156-.05859-.08984.22266-.22266.08593-.0586.10547-.04296.11719-.03125.13281-.01563.13281.01563.13672.01562.10157.04297.1328-.01172.08985-.0625.10156-.04297.0625-.08984-.04687-.10156-.08984-.0586-.1172-.03125-.10155-.04296-.0586-.08985-.0625-.08984v-.11719l.01563-.13281.10547-.04688.07421-.07031v-.1211l-.08984-.05859-.03125-.11719.08985-.05859.07421-.07422.04297-.10547.0586-.08984.04687-.10156.01563-.13281v-.14844l-.04688-.10547-.04297-.10156-.08984-.0586-.13281-.01562-.10157-.04297-.13671-.01563-.1172-.03125h-.4453l-.13282-.01562-.13281-.01172-.13281-.01563-.11719-.03125h-.14844l-.13281-.01562-.13281-.01172-.26563-.03125-.1211-.04297-.08593-.0586-.07422-.07421v-.14844l.01172-.13281.10547-.04688.10156-.04296.13281-.01563h.15235l.13281-.01562h.29297l.1211.03125.10156.04296.08984.0586.23438.0625.12109-.04688.08984-.05859.10156-.04297.13282-.01562.10547.04296.10156.04688.13281.01172.1211-.02735h.14453l.12109-.03125.11719-.02734.10547-.04687.07421-.07422.08594-.0586.14844-.14843.0586-.08594.04687-.10547.02734-.11719.01563-.10547-.10156-.04296-.08985-.0586-.11719-.03125-.10546-.04297-.08985-.0625-.07422-.08594-.07422-.07421-.10156-.04297-.10547-.04688-.10156-.04297-.0586-.08984-.04687-.10156-.08594-.21094-.0625-.08594-.05859-.08984-.07422-.07422-.08594-.0586h-.26953l-.11719.03126-.08984.05859-.10156.04297-.13281.01562-.10547-.01562-.02735-.11719-.0625-.08984-.11718-.03125-.10157-.04297-.14843-.14844-.03125-.11719-.01563-.10546.07422-.07422.17969-.1172.11719-.02733.11718-.03125.13672.01562.10156.04297.10547.04297.10156.04687.10547.04297.1172.03125.1328.01563.1172.02734.1328.01563.10547-.01563.08985-.0586-.07422-.07421-.10547-.04297-.07422-.07422-.07422-.08984-.14844-.14844-.08593-.0586-.08985-.05859-.07422-.07422-.08984-.0586-.10156-.04687-.1211-.02734-.10156-.04688-.10547-.04296-.11719-.03125-.10156-.04297-.1211-.03125h-.14843l-.11719.03125-.10546.04297-.08594.0625-.17969.11718-.08594.0586-.08984.0586-.10547.04687-.08594.05859-.10547.04297-.10156.04297-.10547.04687-.07422.07422-.05859.08985-.0586.08593-.04687.10547-.0586.08594-.07421.07422-.13281-.01172-.1172-.03125h-.11718l-.07422.07422-.08984.0586-.07422.07421-.08984.0586-.08594.05859-.10547.04687-.10156.04297-.13672.01563-.10156-.04297-.14844-.14844-.10547-.04688h-.08594l-.10547.04688-.10156.04297-.1211.03125-.11718-.03125-.07422-.07422v-.11719l.03125-.1211.07422-.0703.0586-.08985.07421-.07422.11719-.03125.10547-.04296h.29297l.13281-.01563.13672-.01563.10156-.04296.08985-.0586.10156-.04687.08984-.0586.13281-.01171.08985.05859.13281.01172.08984-.0586.08594-.05859.10547-.04297.08984-.0586.08594-.0625.08985-.05859.14843-.14843.0586-.08594.05859-.08985.10547-.04296.13281-.01563.11719.02735.1211.03125.05859-.0586.05859-.08984.03125-.26563.02734-.11719.10547.01172.13281.01563.10157-.04297.08984-.0586.0586-.08984.07421-.07422.0586-.08984.04687-.10156.01172-.13281-.01172-.13282-.04687-.10547-.14844-.14843-.0586-.08985-.05859-.08594-.04297-.10546v-.44532l.01563-.1328v-.14845l.01172-.1328-.0586-.0586-.08984.0586-.10156-.04298-.17969-.11719-.08594-.05859-.0625-.08984-.0586-.08985-.07421-.07421-.08594-.0586-.1211.03125-.10155.01172-.10547.04688-.08594.05859-.10547.04297-.14844.14844-.08984.05859-.08594.0586-.08984.0625-.10547.04296-.13281.01563v-.1211l.10547-.04297.11718-.03125.07422-.0703.04297-.10548v-.14844l-.02734-.11718-.14844-.14844-.13281-.01563h-.14844l-.11719.03125-.10547.04297-.10156.04297-.08984.0625-.11719.02735-.07422-.07422.01172-.13281-.04297-.10157-.04297-.10547-.08984-.05859-.11719.02734-.1211.03125-.11718.03125-.10156.04297-.1211.03125-.10156.04297-.10547.04297-.08984.0586-.10156.01562v-.11719l.01562-.13281-.0586-.08985-.07421.04297-.14844.14844-.0586.08985-.07421.07421-.04688.10547-.04296.10156-.07422.07422-.0586.08985-.07422.07422-.05859.08593-.07422.07422-.08984.0625-.07422.07031-.07422.07422-.10156.01563-.13281.01562-.10547-.04296v-.1211l.14843-.14844.04297-.10156.0586-.08984.04687-.10156.04297-.10547.0586-.08985.03124-.11719.04297-.10156.03125-.1211.02735-.11718.04687-.10547.04297-.10156.04297-.10547.07422-.07031.08984-.0625.08985-.0586.10156-.04296h.29687l.26563-.03125.10547-.04297-.07422-.07422-.11719-.03125-.10547-.04297-.08984-.0586-.10156-.04687-.08985-.0586-.10156-.04296-.10547-.04297-.08984-.0625-.08594-.0586-.10547-.04296-.10156-.04297-.1211-.03125-.11718-.03125-.10157-.04297L297.5 410.25l-.10156-.04297-.08985-.0586-.04296-.10546-.01563-.13281.10156-.04297.13281-.01563.13672.01563.13282-.01563.10156-.04297.0586-.08984.01562-.10547-.08985-.0586-.07421-.07421-.10157-.04297-.08984-.0586-.14844-.14843-.04297-.10547-.01562-.13281v-.29297l-.0586-.08985-.08984-.05859-.07422-.07422-.04297-.10547-.03125-.11718-.0586-.08985-.07421-.07422-.11719-.02734-.07422-.07422-.08984-.0586-.08984-.0625-.08594-.05859-.07422-.07421-.0586-.08594-.04687-.10547-.08594-.0586-.14843-.14843-.19532-.0586-.1328.01563-.10157.04297-.07422.07422-.04688.10156-.04296.10547-.0586.08984-.0586.08594-.29687.29687-.08984.0586h-.08594l-.0625-.08594-.04297-.10547.03125-.11719.0586-.08984.02734-.11719-.01172-.13281-.08984-.0625-.10547.04688-.11719.02734-.11719.03125-.26953.17578-.10156.04688-.11719.02734-.10546.04687-.08985.0586-.10156.04297-.0586-.08594-.04687-.10547.01563-.13281.04687-.10547.07031-.07422.07422-.07031.0586-.08985v-.14843l-.04297-.10547h-.23829l-.10156.04687-.03125.11719-.02734.11719-.03125.1211-.07422.04296-.13281.01563-.07422-.04688-.04297-.10156-.04297-.10547-.04687-.10156-.04297-.10547-.1211.03125-.10156.04297-.13281.01562-.11719.03125-.10547.04297-.08984.0586-.10156.04687-.1211.02734-.13281.01563-.10156-.04297-.0586-.08985-.04687-.10546-.04297-.10157-.04297-.10546v-.1172l.0586-.08984.08593-.05859.17969-.11719.10156-.04687.10547-.04297.10547-.0586.10156-.04296.08985-.0625.10156-.04297.10547-.0586.10156-.04687.08984-.0586.10547-.04296.10156-.04297.08985-.0625.10156-.04297.13672-.01563.11719.03125.10156.04297.1211.03125.10156.04297.10546.04688.10157.04296.10547.04297.10156.04688.10547.04297.10156.04297.10547.04687.08594.0586.10546.04296.1172.03125.10546.04297.10156.04688.08985.0586.10547.04296.10156.04297.10547.04687.11719.02735.10156.04687.1211.02735h.14843l.08594-.0586.01562-.10156.0586-.08984-.02735-.1172-.07422-.07421-.11719-.17969-.07421-.07422-.08985-.07421-.17969-.1172-.08593-.05859-.10547-.04296-.10156-.04688-.26954-.17578-.05859-.08985-.07422-.07421-.0586-.08985-.04296-.10156-.03125-.11719-.01563-.13672v-.5625l-.01171-.1328-.01563-.13282-.03125-.11719-.01562-.13281-.01172-.13281-.03125-.1211-.22266-.22265-.0586-.08594-.01562-.10547.03125-.11719.13281-.01562v-91.41406H172.9922v1.45312l-.0586.23438-.35156 1.05078-.17187.52343-.1172.34766-.17577.41016-.11719.17187-.23438.29297-.23046.0586h-.35157l-.11718.05859-.23047.40625v.29297l.11719.17578.23046.23047.1172.23437.64062.75781.29297.46485.17578.23437.23047.35156.23437.34766.64063.8164.17578.46485.17187.41016.11719.69531.17578.46875.11719 1.39844.0586.46484v.875l.11718 1.04688v4.78125l-.0586.46484-.35156 1.28125-.17578.52344-.11328.41015-.35156.9297L172.93359 336l-.23437.58203-.11719.17578-.17187.34766-.17578.40625-.35157.8164-.0586.29297-.11327.29297-.11719.28906-.0586.17579-.11718.875-.0586.40625-.05859.11718-.0586.17579-.05859.17187-.23047.52734-.11718.17188v.23437l-.11719.23438-.0586.17187-.17577.58594v.28906l-.0586.17579v.29296l-.0586.11329-.05859.52734v.17187l-.05468.23438v2.6211l-.17578.8164-.1172.17578-.17577.23438-.1172.17187-.11327.23438-.58594.93359-.23047.28906-.29297.46485-.17578.23437-.28906.35156-.35156.69922-.11328.23047-.17579.41016-.17578.23046-.40625.52735-.8164.69922-.29297.17187-.28906.23438-.17579.11719-.17578.17578-.52344.40625-.52734.17578-.17187.17578-.23438.05469-.64062.17578h-.75782m12.21094 31.02344l-1.07422.44921.35938.89454 1.25-.71485.44531-.53906-.98047-.08985"/><path fill="#d3d3d3" fill-opacity="0" fill-rule="evenodd" d="M201.50781 416.59766h-.89453l.44922.6289.98047.35938.80469-.08985.4453-.98828-.17577.08985-.71485-.35547-.89453.35547m154.6211 59.0703l-.0586-.52343v-.29297l.11328-.29297.0586-.23046.46875-.46875h.11328l.11719-.11329.11718-.05859h.17579l.23437-.0586h.34766l.23437.0586.11719.0586.23047.17187.0586.17578.11718.58203v.29297l-.11719.17578-.17187.28906-.17579.17579-.52734.52343-.23047.23438-.11719.0586h-.17578l-.11718-.0586-.40625-.29297-.17579-.11719-.11718-.0586-.0586-.11327-.05468-.1172m6.64062-10.95702l-.0586-.17188v-1.10937l.0586-.17188.17578-.0586.17188-.05858h.17578l.23437-.0586.1172.0586.05858.69921-.05859.17188-.11719.17578-.11718.0586-.23438.52343-.11328.0586h-.23438l-.05859-.1172m9.61328-14.39062l-.11719-.17578v-.69922l.29297-.875.1172-.17187.17577-.35156.11328-.23047.1172-.29297.35155-.75781.1172-.23047.17187-.23438h.17578l.11719-.0586h.64062l.11719.0586.23437.23438.17188.11328.35156.29297.11719.11718.11328.17579v.11328l.11719.05859.11718.11719v.69922l-.05859.17578v.23047l-.0586.17578-.34765 1.05078-.11719.23047-.11719.23437-.11718.0586-.23047.23437-.64063.28906h-.875l-.41015-.11718-.64063-.46485"/><path fill="none" stroke="#bebebe" stroke-linecap="round" stroke-linejoin="round" stroke-miterlimit="10" stroke-width=".5" d="M467.95703 311.69531H144.02734v168.625h323.9297v-168.625"/><g clip-path="url(#a)"><path fill="#fff" fill-opacity="0" fill-rule="evenodd" d="M144 475.89063v4.4375h.0039H144V311.67188h.0039H144v164.21875"/></g><g clip-path="url(#b)"><path fill="#fff" fill-opacity="0" fill-rule="evenodd" d="M144.0039 480.32813V311.67188h71.01173v83.9414l-.98829.38672-3.45312.67578-2.82422 3.76172-.9336 4.4375-.67968.83203-3.73047-.83203-.70703-.36328-.28516.36328.28516.73047.80469 3.71094-.8047 1.15234-2.3203 3.28516-2.1172 3.10937-2.0625 1.32813-2.3789.28906-2.05078-.28906-2.38672-1.52735-3.28515 1.52735-1.15235.14453-1.60547-.14453-2.83203-1.13282-4.4414.1836-4.4375-2.4414-4.4375.19921-3.45313 3.1914-.98437 3.58204-.58985.85547-1.19922 4.4414-1.5625 4.4375-.16797 4.4375-.2578 4.4375.12109 4.4375.1289 4.4414.4336 4.4375 1.74218 4.4375 1.35157 1.87892 4.4375-1.125 2.96484-.75391 1.47266-.19531 2.36328.1953 2.07422.42188.6289-.42187 3.8125-.55469 1.80078.55469 2.63672 3.00781 3.6211 1.42969.8164.46875 4.4375 1.17969 4.4414-1.15625 4.4375.28125.8711-.77344 3.23828-4.4375.32813-.05469 4.4375-.0586 4.4414.04688 4.4375-.66797 4.4375.54688 4.4375-.41797 4.4375-.90234 4.09375-2.9297.34766-.08983 4.4375-1.64063 2.29688-2.70703 2.14062-3.2539.88672-1.1875.14453-4.4375 2.40234-4.4375-.1328-4.4375-3.30079-3.11329-2.24219-1.32422-2.1953-2.03515-4.4375-1.28516-4.1797-1.1211 4.1797-.35156 3.52733-4.08593-.24218-4.4375-3.28516-3.1211-4.4414.64453-4.4375.9961-.41016-2.95703-4.02734-3.97657-3.87891-.46484-.5586-.5664-.30859-3.8711L215.38281 396l-.36719-.38672v-83.9414h39.94141v111.99609l-3.24219 3.40234 2.30078 4.4375.94141.67969 4.4414 2.08984 1.61329-2.76953-1.61328-3.23828-.3164-1.19922-4.125-3.40234v-111.9961h17.7539v111.29297l-4.4375 1.44141-3.34766 2.66406 3.34766 3.99219v24.83984l-4.4375 1.45704-1.8125.77734 1.8125 1.77734 4.4375-1.04687.77344-.73047-.77344-2.23438V431.0625l3.85937.44531.57813.08985.22265-.08985 3.75782-4.4375-3.98047-4.10547V311.67188h4.4414v100.97265l-.84375 1.10938.5547 4.4375.28905.28515v25.8164l-1.39453.52735 1.39453 1.05469.86329-1.05469-.86329-.52734v-25.8164l.625-.28516.40625-4.4375-1.03125-1.10938V311.67188h4.4375V427.625l-4.01171 3.88281 1.89453 4.4375 2.11718 2.16797 3.48829-2.16797.94921-.22265 4.4375-2.54688v7.48828l-1.57812 4.15625-2.85938 3.21485-2.73828 1.22656 2.73828 1.80078 4.4375 1.35938.78516 1.27734-.78516 1.47656-4.04296 2.96094 4.04296 2.49219 4.4375.17968 4.44141.3672 4.4375.12108 3.46875-3.16015-.89063-4.4375 1.85938-.77735 3.73047-3.66015-3.73047-1.86328-4.4375-2.28906-4.4375 1.27343-3.8789-1.5625-.5625-.5586-4.4375-3.59765v-7.48828l1.59374-1.66797-1.59375-1.80469-4.4375-1.94921-4.4375-.12891V311.67187h8.875v107.75391l-4.4375.10547-2.60156 3.09766 2.60156 2.54296 4.4375.54297 3.75782-3.08593-3.75782-3.20313v-107.7539h8.87891v107.03515l-4.23047 3.92188 4.23047 4.35937.53906.08203 3.89844 2.32422 2.17969-2.32422.72656-4.4414-2.90625-3.90235-4.4375-.01953V311.67188h13.3125V419.5625l-2.52734 3.0664 2.52734 2.375 2.35156-2.375-2.35156-3.0664V311.67187h26.63281v102.92188l-4.4414 1.01172-4.4375-.53516-4.4375.4414-4.4375 1.98829-1.0586.6914 1.0586.82032 4.4375 3.4375.10156.17969 4.33594 3.16015 4.4375.25 4.4414-.4414 2.2539 1.47265 2.1836 2.1211 2.74219 2.3164-1.65234 4.4375 3.34765 3.35547 2.63672 1.08203 1.80078 1.78906 2.48438-1.78906 1.1875-4.4375.76953-3.6836.5-.7539-.5-.51953-.52735.51953-3.91406 1.07422-2.4414-1.07422 1.67968-4.4375-.23437-4.4414-3.4414-3.04297-1.96485-1.39453-2.47266-2.01954-4.4375-1.57812V311.67187h35.5039v134.47657l-3.03515 3.11328 3.03516 3.15625 3.21484-3.15625-3.21484-3.11328V311.67188h31.07031v118.4453l-1.39844 1.39063-2.5078 4.4375-.53126.28906-3.97265 4.14844-.46875.21875-3.29688-.21875-1.14063-.53515-4.4375-2.6797-2.76953-1.22265-1.66796-1.32422-4.4375-2.10156-2.9922 3.42578-.3203 4.4375 3.3125 3.66406 4.4375.01954 4.4375.23828.21484.51562-.21485.24219-3.67968 4.19922-.75781 1.625-4.21485 2.8125-.22265.46484-2.03125 3.97266 2.03125 1.8125.95703 2.625 3.48046 3.70703 1.1797.73438 3.2578 3.40234 3.46094-3.40235.97656-1.4453 4.4375-1.58204 3.66407-1.41406.77734-.10156.24219.10156 4.19531 2.875 3.19531-2.875 1.2422-.85938 4.4375-1.5039 2.59765-2.07422 1.84375-1.8711 2.42969-2.5664-2.4297-2.8125-4.4414-.21485-.76562-1.41015.76562-1.10156h4.4414l3.52735-3.33985-.35156-4.4375-3.07031-4.4375.0664-4.4375-.17187-.14062-.39063.14062-4.05078.375-4.4375.73438-1.46875-1.10938-2.96875-1.39062V311.67188h62.13281v168.65625H296.0625l-1.16016-1.38672-1.63671 1.38671H144.0039"/></g><path fill="#50fcfc" fill-rule="evenodd" d="M158.09766 444.82031l-.1211-4.4375.25781-4.4375.16797-4.4375 1.5625-4.4375 1.19922-4.4414.58985-.85547.98437-3.58203L166.19141 415l4.4375-.19922 4.4375 2.4414 4.4414-.18359 2.83203 1.13282 1.60547.14453 1.15235-.14453 3.28515-1.52735 2.38672 1.52735 2.05078.28906 2.3789-.28906 2.0625-1.32813 2.1172-3.10937 2.3203-3.28516.8047-1.15234-.8047-3.71094-.28515-.73047.28516-.36328.70703.36328 3.73047.83203.67969-.83203.93359-4.4375 2.82422-3.76172L214.02734 396l.98828-.38672v2.45313l-4.2578 2.37109-.1836.6211-.83984 3.8164-3.59766 4.41016-.03125.03125-4.01563 4.4375-.39062 1.86718-1.77344 2.57032-2.66406.86328-4.4414.4336-4.4375-.3711-4.4375.44922-4.4375-.1172-4.44141.1211-2.08985-1.3789-2.34765-1.65625-4.4375.64453-1.09766 1.01172-1.36719 4.4375-.51172 4.4414-1.46093 1.61719-1.6836 2.82031-.35547 4.4375-.62109 4.4375.26563 4.4375.34765 4.4414 1.00781 4.4375 1.03907 1.84767 4.4375-.3047 4.4375-.3164 4.4375.79688 4.4414.24218 4.4375 1.26172 4.4375.6211 3.84375.28906.59375.10937.22656-.10937 4.21485-.72266 4.4375-.48047 4.4375-.6953 4.4375-.00392 4.4414-.39843 4.4375-1.59375 4.4375.4375 4.2461-.98047.1914-.02735 4.4375-.79687 4.44141-1.10156 3.22266-2.51172 1.21484-2.19531 1.71875-2.2461-1.65234-4.4375 4.3711-2.21484 1.58983-2.22266-1.3828-4.4375-.20704-.19531-.60547.19531-3.83203 2.16016-.60937-2.16016-3.82813-3.91015-1.9336-.52735-2.5078-1.42578-4.4375-1.69531-1.26954-1.32031 1.26953-.76954 4.4375-.76562 4.44141-.44922 2.11719-2.45312-1.60938-4.4375-.5078-.48438-1.55079.48438-2.89063.6875-4.4375.21093-2.3203-.89843-1.0547-4.4375-1.0625-1.04688-4.4375-1.52734-2.52343-1.86719.23828-4.4375-2.15234-2.3711v-2.45312l.36718.38672 3.76172 4.4375.3086 3.8711.55859.5664 3.8789.46484 4.02735 3.97657.41016 2.95703 4.4375-.9961 4.4414-.64453 3.28516 3.1211.24219 4.4375-3.52735 4.08593-4.17969.35157 4.1797 1.12109 4.4375 1.28516 2.1953 2.03515 2.2422 1.32422 3.30077 3.11328.13281 4.4375-2.40234 4.4375-.14453 4.4375-.88672 1.1875-2.14062 3.2539-2.29688 2.70704-4.4375 1.64063-.34766.08984-4.09375 2.92969-4.4375.90234-4.4375.41797-4.4375-.54688-4.4375.66797-4.4414-.04687-4.4375.0586-.32813.05468-3.23828 4.4375-.8711.77344-4.4375-.28125-4.4414 1.15625-4.4375-1.1797-.8164-.46874-3.6211-1.42969-2.63672-3.00781-1.80078-.55469-3.8125.55469-.6289.42187-2.07422-.42187-2.36328-.19531-1.47266.1953-2.96484.75392-4.4375 1.125-1.35157-1.87891-1.74218-4.4375-.4336-4.4375-.1289-4.4414"/><path fill="#00e8fc" fill-rule="evenodd" d="M159.35938 444.82031l-.26563-4.4375.6211-4.4375.35546-4.4375 1.6836-2.82031 1.46093-1.61719.51172-4.4414 1.36719-4.4375 1.09766-1.01172 4.4375-.64453 2.34765 1.65625 2.08985 1.3789 4.4414-.1211 4.4375.1172 4.4375-.44922 4.4375.3711 4.4414-.4336 2.66407-.86328 1.77344-2.57032.39062-1.86718 4.01563-4.4375.03125-.03125 3.59766-4.41016.83984-3.8164v6.41015l-1.64844 1.84766-2.78906 1.96093-2.25 2.47657 2.25 2.51171 4.4375-.59375 3.10156 2.51954 1.33984 1.23828 4.4375 1.05078v4.94922l-1.88671 1.64062 1.88672.51953 4.4375-.24218.5703-.27735-.5703-.54687-4.4375-1.09375v-4.94922l2.98828 2.14844 1.44922.51953 4.10546 3.92187-4.10547 2.00781-4.4375-.17968-4.4375-1.1289-1.47265-.69923-2.96875-3.21484-2.77344-1.22656-1.66406-.80079-4.4375-1.91796-4.4375 1.05468-4.4414.19922-4.4375.26563-4.4375.1875-4.4375.48047-4.44141.17578-4.4375-.40235-.94532.75782-2.49218 4.4414-1 2.26953-1.83203 2.16797-2.1797 4.4375-.42577 1.27344-.80078 3.16406.51171 4.4375.28907 1.97266 1.26953-1.97266 3.16797-1.1289 1.39062 1.1289-.91406 4.4414 3.96094.54298 4.4375.14453 4.4414 3.10547 2.23047.64453 2.20703.48047 4.4375-.13672 4.4375.07422 4.4414.02734 4.4375-.3789.48048-.06641 3.95703-.32031 4.4375.01171 4.4414-.51953 4.4375-1.35546 3.98438-2.25391.45313-.28516 1.1289.28516 3.3086 1.03515 4.4375-.71875 1.5664-.3164v-4.4414l-1.5664-2.14844-2.44141-2.28907-1.9961-.91015-1.1914-3.52735-.42578-4.4375 1.61719-3.97265 3.79687 3.97265.64063.80078 4.4414.8672 1.42969-1.66798-1.42969-1.46484-4.4414.76172-3.92188-3.73438-.51563-.26953-4.01562-4.17187 4.01563-2.44141 4.4375-1.69531 2.41406-.30078-2.41406-.39063-4.4375-1.53906-4.4375-1.54688-1.10547-.96093-3.33203-3.9297-4.4375 2.15235-2.4336-2.66015-2.00781-1.84766v-6.41016l.1836-.62109 4.2578-2.3711 2.15235 2.3711-.23828 4.4375 2.52344 1.86719 4.4375 1.52734 1.0625 1.04688 1.05468 4.4375 2.32031.89843 4.4375-.21093 2.89063-.6875 1.55078-.48438.50781.48438 1.60938 4.4375-2.11719 2.45312-4.4414.44922-4.4375.76563-1.26954.76953 1.26953 1.3203 4.4375 1.69532 2.50782 1.42578 1.9336.52735 3.82812 3.91015.60937 2.16016 3.83203-2.16016.60547-.19531.20703.19531 1.38281 4.4375-1.58984 2.22266-4.3711 2.21484 1.65235 4.4375-1.71875 2.2461-1.21484 2.1953-3.22266 2.51173-4.4414 1.10156-4.4375.79688-.19141.02734-4.2461.98047-4.4375-.4375-4.4375 1.59375-4.4414.39844-4.4375.0039-4.4375.69531-4.4375.48047-4.21484.72266-.22657.10937-.59375-.10937-3.84375-.28906-4.4375-.6211-4.4375-1.26172-4.4414-.24218-4.4375-.79688-4.4375.3164-4.4375.3047-1.03907-1.84766-1.0078-4.4375-.34767-4.4414"/><path fill="#00d4fc" fill-rule="evenodd" d="M161.46484 444.82031l-.51172-4.4375.80079-3.16406.42578-1.27344 2.17969-4.4375 1.83203-2.16797 1-2.26953 2.49218-4.4414.94532-.75782 4.4375.40235 4.4414-.17578 4.4375-.48047 4.4375-.1875 4.4375-.26563 4.4414-.19922 4.4375-1.05468v2.44921l-2.03905.26954-2.39844.2578h-4.4414l-4.4375.71876-4.4375.875-4.4375 1.33203-4.44141-.60938-4.42188 1.8672-.01562.01562-1.88282 4.42187-2.55468 2.36328-1.5547 2.07422 1.5547 4.38281 4.4375-2.20312 1.9375-2.17969.3164-4.4375 2.1836-2.0039 3.83203 2.0039.60937 3.39063.33594 1.04687-.33594.25-1.5664 4.1875-.76953 4.4375 2.33593 3.9961.34375.4453 4.09375 2.08985 4.4375.64453 4.4375-.85156 4.4414.8125 4.4375.30469 4.4375-.72656 4.4375-.1836 4.44142-.42187 4.08203-1.66797.35547-.36719 4.4375-2.63281 1.80468-1.4414-1.72265-4.4375.79297-4.4375-.07032-4.4375-.80469-.69532-4.4375-.60547-4.4375-.91406-4.4414-2.01953-.13672-.20313-4.30078-3.28515-3.89453-1.15625-.54297-.26954v-2.44921l4.4375 1.91796 1.66406.80079 2.77344 1.22656 2.96875 3.21484 1.47266.69922 4.4375 1.1289 4.4375.1797 4.10546-2.00782-4.10547-3.92187-1.44921-.51953-2.98828-2.14844-4.4375-1.05078-1.33985-1.23828-3.10156-2.51954-4.4375.59375-2.25-2.51171 2.25-2.47657v1.97657l-.45703.5.45703.5078 1.80078-.5078-1.80078-.5v-1.97657l2.78906-1.96093 1.64844-1.84766 2.00781 1.84766 2.4336 2.66015 4.4375-2.15234v2.65625l-2.1211 1.27344 2.1211 1.85937 2.04687 2.57813 2.39063 2.12109 4.4375-1.79297.80859-.32812-.8086-.31641-4.4375-1.19922-3.35937-2.92187-1.07813-1.27344v-2.65625l3.33204 3.92969 1.10547.96093 4.4375 1.54688 4.4375 1.53906 2.41406.39063-2.41406.30078-4.4375 1.69531-4.01563 2.4414 4.01563 4.17188.51562.26953 3.92188 3.73438 4.4414-.76172 1.42969 1.46484-1.42969 1.66797-4.4414-.86719-.64063-.80078-3.79688-3.97265-1.61718 3.97265.42578 4.4375 1.1914 3.52735 1.9961.91015 2.4414 2.28906 1.56641 2.14844v4.4414l-1.5664.31642-4.4375.71875-3.3086-1.03516-1.1289-.28516-.45313.28516-3.98438 2.2539-4.4375 1.35547-4.4414.51954-4.4375-.01172-3.95703.3203-.48047.06642-4.4375.3789-4.4414-.02734-4.4375-.07422-4.4375.13672-2.20704-.48047-2.23047-.64453-4.4414-3.10547-4.4375-.14453-3.96094-.54297.91406-4.4414-1.39062-1.12891-3.16797 1.1289-1.26953 1.97266-.28907-1.97266"/><path fill="#00c4fc" fill-rule="evenodd" d="M166.1914 440.32813l-1.55468-4.38282 1.55469-2.07422 2.55468-2.36328 1.88282-4.42187.01562-.01563 4.42188-1.86719 4.4414.60938 4.4375-1.33203 4.4375-.875 4.4375-.71875h4.4414l2.39845-.25781 2.03906-.26954v2.01172l-4.4375.4922-4.4414.02733-4.4375.73829-3.14845 1.4414.85938 4.4375.65625 4.4375-2.80469 3.58594-.98047.85156-1.23047 4.4375 2.21094 2.8125 1.5625 1.6289 2.875.85938 2.5586-.85937 1.8789-1.50781 2.22266 1.5078 2.21875.6797 4.4375.85546 4.4375-1.10546 4.4375-.38282.67187-.04687 3.76953-1.79688 2.41016-2.64453-.94922-4.4375 1.60547-4.4375 1.33594-4.4375-4.40234-.6914-4.44141-.75782-2.05469-2.98828-2.38281-1.82422-4.4375-.875v-2.01171l.54297.26953 3.89453 1.15625 4.30078 3.28515.13672.20313 4.4414 2.01953 4.4375.91406 4.4375.60547.8047.69531.0703 4.4375-.79296 4.4375 1.72265 4.4375-1.80469 1.4414-4.4375 2.63282-.35546.36719-4.08203 1.66797-4.44141.42187-4.4375.1836-4.4375.72656-4.4375-.30469-4.4414-.8125-4.4375.85156-4.4375-.64453-4.09376-2.08984-.34375-.44531-2.33594-3.9961.76954-4.4375 1.5664-4.1875.33594-.25-.33594-1.04687-.60937-3.39063-3.83203-2.0039-2.1836 2.0039-.3164 4.4375-1.9375 2.17969-4.4375 2.20313"/><path fill="#00b8fc" fill-rule="evenodd" d="M183.94531 447.63281l-2.21094-2.8125 1.23047-4.4375.98047-.85156 2.80469-3.58594-.65625-4.4375-.85938-4.4375 3.14844-1.4414v13.27343l-1.17187 1.48047 1.17187 2.23438 3.13672-2.23438-3.13672-1.48047v-13.27343l4.4375-.73829 4.4414-.02734 4.4375-.49219v1.95704l-4.4375.51562-4.4414.05078-1.01953.17578-.5586 4.4375 1.57813 2 4.4414 1.53125.19532.90625 2.29688 4.4375 1.9453 1.9375 4.1797 2.5-4.1797 3.82813-.29296.61328.29297.0664.2539-.0664 4.1836-4.33985.16016-.10156 4.27734-3.46484.78125-.97266 2.53125-4.4375-3.3125-2.94922-4.4375 2.46094-4.4375-3.85937-.44922-.08985.44922-.1914 4.4375-1.7422.46875-2.5039-.46875-.35937-4.4375-.38281v-1.95704l4.4375.875 2.38281 1.82422 2.05469 2.98828 4.4414.75782 4.40235.6914-1.33594 4.4375-1.60547 4.4375.94922 4.4375-2.41016 2.64453-3.76953 1.79688-.67187.04687-4.4375.38282-4.4375 1.10546-4.4375-.85546-2.21875-.6797-2.22266-1.5078-1.8789 1.5078-2.5586.85938-2.875-.85937-1.5625-1.6289"/><path fill="#00a8fc" fill-rule="evenodd" d="M188.38281 442.61719l-1.17187-2.23438 1.17187-1.48047 3.13672 1.48047-3.13672 2.23438m4.4375-9.10938l-1.57812-2 .5586-4.4375 1.01952-.17578 4.4414-.05078 4.4375-.51563 4.4375.38282.46876.35937-.46875 2.5039-4.4375 1.7422-.44922.1914.44922.08985 4.4375 3.85937 4.4375-2.46094 3.3125 2.94922-2.53125 4.4375-.78125.97266-4.27734 3.46484-.16016.10156-4.1836 4.33985-.2539.0664-.29297-.0664.29297-.61328 4.17969-3.82813-4.1797-2.5-1.9453-1.9375-2.29688-4.4375-.19531-.90625-4.4414-1.53125"/><path fill="#00c4fc" fill-rule="evenodd" d="M206.13672 414.26172l-.45703-.50781.45703-.5 1.80078.5-1.80078.5078m13.3164 1.35157l-2.12109-1.85937 2.1211-1.27344 1.07812 1.27344 3.35938 2.92187 4.4375 1.19922.80859.3164-.8086.32813-4.4375 1.79297-2.39062-2.1211-2.04688-2.57812"/><path fill="#50fcfc" fill-rule="evenodd" d="M219.45313 425.42969l-1.88672 1.64062 1.88672.51953 4.4375-.24218.5703-.27735-.5703-.54687-4.4375-1.09375m34.5625 6.07812l-2.30079-4.4375 3.2422-3.40234v2.32812l-1.02345 1.07422 1.02344 1.5 1.30469-1.5-1.30469-1.07422v-2.32812l4.125 3.40234.3164 1.19922 1.61329 3.23828-1.61328 2.76953-4.4414-2.08984-.94142-.67969"/><path fill="#00e8fc" fill-rule="evenodd" d="M254.95703 428.57031l-1.02344-1.5 1.02344-1.07422 1.30469 1.07422-1.30469 1.5"/><path fill="#50fcfc" fill-rule="evenodd" d="M263.83594 459.91406l-1.8125-1.77734 1.8125-.77735 4.4375-1.45703.77344 2.23438-.77344.73047-4.4375 1.04687m4.4375-28.85156l-3.34766-3.99219 3.34766-2.66406 4.4375-1.4414v1.30859l-4.07031 2.79687 4.0703 3.03125 2.71094-3.03125-2.71093-2.79687v-1.3086l3.98047 4.10547-3.75782 4.4375-.22265.08985-.57813-.08985-3.85937-.44531"/><path fill="#00e8fc" fill-rule="evenodd" d="M272.71094 430.10156l-4.07031-3.03125 4.0703-2.79687v2.1875l-.88671.60937.88672.66016.58984-.66016-.58984-.60937v-2.1875l2.71094 2.79687-2.71094 3.03125"/><path fill="#00d4fc" fill-rule="evenodd" d="M272.71094 427.73047l-.88672-.66016.88672-.60937.58984.60937-.58984.66016"/><path fill="#50fcfc" fill-rule="evenodd" d="M277.15234 445.875l-1.39453-1.05469 1.39453-.52734.86329.52734-.86329 1.05469m-.28906-27.6836l-.55469-4.4375.84375-1.10937 1.03125 1.10938-.40625 4.4375-.625.28515-.28906-.28515m2.60938 17.7539l-1.89454-4.4375 4.01172-3.88281 4.4375.1289v1.26563l-4.4375.1914-2.375 2.29688 2.375 3.4336 4.4375-.64454 3.34766-2.78906-3.34766-2.48828v-1.26562l4.4375 1.94921 1.59375 1.8047-1.59375 1.66796-4.4375 2.54688-.94921.22265-3.48829 2.16797-2.11718-2.16797"/><path fill="#00e8fc" fill-rule="evenodd" d="M281.58984 434.9414l-2.375-3.43359 2.375-2.29687 4.4375-.1914v2.11327l-2.54296.375 2.54296.41797.50391-.41797-.5039-.375v-2.11328l3.34765 2.48828-3.34766 2.78906-4.4375.64454"/><path fill="#50fcfc" fill-rule="evenodd" d="M286.02734 451.0625l-2.73828-1.80078 2.73828-1.22656 2.85938-3.21485 1.57812-4.15625 4.4375 3.59766.5625.5586 3.87891 1.5625 4.4375-1.27344v1.73046l-4.04297 2.42188-.39453 1.20312-2.46094 3.23438 1.5 4.4375.96094.40234 4.4375.48438.97266-.88672-.97266-1.34375-3.15234-3.09375 3.15234-1.73828 3.02344-2.69922-3.02344-2.42188v-1.73046l4.4375 2.28906 3.73047 1.86328-3.73047 3.66015-1.85938.77735.89063 4.4375-3.46875 3.16015-4.4375-.12109-4.4414-.36719-4.4375-.17968-4.04298-2.4922 4.04297-2.96093.78516-1.47656-.78516-1.27735-4.4375-1.35937m0-25.89063l-2.60156-2.54296 2.60156-3.09766 4.4375-.10547v2.67188l-1.85156.53125 1.85156.51562.625-.51562-.625-.53125v-2.67188l3.75782 3.20313-3.75782 3.08593-4.4375-.54296"/><path fill="#00d4fc" fill-rule="evenodd" d="M286.02734 431.92578l-2.54296-.41797 2.54296-.375.50391.375-.5039.41797"/><path fill="#00e8fc" fill-rule="evenodd" d="M290.46484 423.14453l-1.85156-.51562 1.85156-.53125.625.53125-.625.51562"/><g clip-path="url(#c)"><path fill="#50fcfc" fill-rule="evenodd" d="M293.26563 480.32813h2.79687l-1.16016-1.38672-1.63671 1.38671"/></g><path fill="#50fcfc" fill-rule="evenodd" d="M299.34375 426.98828l-4.23047-4.35937 4.23047-3.92188v.89063l-3.26953 3.03125 3.26953 3.36718 4.39844-3.36718-4.39844-3.03125v-.89063l4.4375.01953 2.90625 3.90235-.72656 4.4414-2.17969 2.32422-3.89844-2.32422-.53906-.08203"/><path fill="#00e8fc" fill-rule="evenodd" d="M299.34375 425.9961l-3.26953-3.3672 3.26953-3.03124v1.48437l-1.66797 1.54688 1.66797 1.71875 2.24219-1.71875-2.24219-1.54688v-1.48437l4.39844 3.03125-4.39844 3.36718m-.96094 32.14063l-1.5-4.4375 2.46094-3.23438.39453-1.20312 4.04297-2.42188 3.02344 2.42188-3.02344 2.69922-3.15234 1.73828 3.15234 3.09375.97266 1.34375-.97266.88672-4.4375-.48438-.96094-.40234"/><path fill="#00d4fc" fill-rule="evenodd" d="M299.34375 424.34766l-1.66797-1.71875 1.66797-1.54688v1.48438l-.0664.0625.0664.0703.08984-.0703-.08984-.0625v-1.48438l2.24219 1.54688-2.24219 1.71875"/><path fill="#00c4fc" fill-rule="evenodd" d="M299.34375 422.69922l-.0664-.07031.0664-.0625.08984.0625-.08984.0703"/><path fill="#50fcfc" fill-rule="evenodd" d="M312.65625 425.0039l-2.52734-2.375 2.52734-3.0664 2.35156 3.0664-2.35156 2.375m8.8789-5.99218l-1.05859-.82031 1.0586-.69141 4.4375-1.98828 4.4375-.4414 4.4375.53515 4.4414-1.01172v2.1875l-2.73828 1.41016-1.70312 1.39453-4.4375-.66797-1.45704 3.71094 1.45704 1.0625 4.4375.52734 4.4414-1.03906 4.4375 2.39453 1.05469 1.4961 3.38281 3.04296v3.01953l-1.70703 2.8125 1.70703 1.71094 4.4375.46094 1.26563-2.17188-1.26563-1.16015-4.4375-1.65235v-3.01953l2.08985-3.04297-2.08985-4.10547-.51953-.33593-3.91797-2.77344-1.91015-1.66406-2.52735-1.41016v-2.1875l4.4375 1.57813 2.47266 2.01953 1.96484 1.39453 3.4414 3.04297.23438 4.4414-1.67968 4.4375 2.4414 1.07422 3.91406-1.07422.52735-.51953.5.51953-.5.7539-.76953 3.6836-1.1875 4.4375-2.48438 1.78906-1.80078-1.78906-2.63672-1.08203-3.34765-3.35547 1.65234-4.4375-2.74219-2.3164-2.1836-2.1211-2.2539-1.47265-4.4414.4414-4.4375-.25-4.33594-3.16015-.10156-.1797-4.4375-3.4375"/><path fill="#00e8fc" fill-rule="evenodd" d="M330.41016 423.6914l-1.45704-1.0625 1.45704-3.71093 4.4375.66797 1.70312-1.39453 2.73828-1.41016 2.52735 1.41016 1.91015 1.66406 3.91797 2.77344.51953.33593 2.08985 4.10547-2.08985 3.04297-3.38281-3.04297-1.05469-1.4961-4.4375-2.39452-4.4414 1.03906-4.4375-.52734m17.7539 13.96484l-1.70703-1.71094 1.70703-2.8125 4.4375 1.65235 1.26563 1.16015-1.26563 2.17188-4.4375-.46094"/><path fill="#50fcfc" fill-rule="evenodd" d="M374.79297 452.41797l-3.03516-3.15625 3.03516-3.11328v2.1836l-.90625.92968.90625.9414.96094-.9414-.96094-.92969v-2.1836l3.21484 3.11329-3.21484 3.15625"/><path fill="#00e8fc" fill-rule="evenodd" d="M374.79297 450.20313l-.90625-.94141.90625-.92969.96094.92969-.96094.9414"/><path fill="#50fcfc" fill-rule="evenodd" d="M379.23438 444.04688l-3.3125-3.66407.3203-4.4375 2.9922-3.42578 4.4375 2.10156 1.66796 1.32422 2.76954 1.22266 4.4375 2.67969 1.14062.53515 3.29688.21875.46875-.21875 3.97265-4.14844.53125-.28906 2.50781-4.4375 1.39844-1.39062 2.96875 1.39062 1.46875 1.10938 4.4375-.73438v2.67188l-2.15625 1.39062-2.28125.92578-3.57812-.92578-.85938-.70703-.45312.70703-3.98438 2.16406-2.17969 2.27344-2.26171 1.05078-4.4375.26172-3.58204-1.3125-.85546-.57031-4.4375-1.4375-3.69922 2.00781 3.69921 1.3789 4.4375-.67968 1.54688 3.73828-1.54688 1.7461-2.35937 2.6953-2.0586 4.4375.19532 4.4375-.21485 1.07813-2.02343 3.35938 2.02344 2.15625 3.67578 2.28515.76171.79297.8086-.79296 3.45312-4.44141.17579-.29688 4.4375-1.24218 4.4414-.47266 4.4375 1.40234 4.4375-2.65625 2.24219-1.17187 1.84765-4.4375-2.30078-4.4375 2.64844-3.8086 3.05078-.6328 1.39063-1.71876.45703-2.71875-.45703-.64844-2.91016-3.78906-1.53125-1.39062v-2.67188l4.05078-.375.39063-.14062.17187.14062-.0664 4.4375 3.0703 4.4375.35157 4.4375-3.52734 3.33985h-4.4414l-.76563 1.10156.76562 1.41015 4.4414.21485 2.4297 2.8125-2.4297 2.5664-1.84374 1.8711-2.59766 2.07422-4.4375 1.5039-1.24219.85938-3.1953 2.875-4.19532-2.875-.24219-.10156-.77734.10156-3.66406 1.41406-4.4375 1.58203-.97657 1.44531-3.46094 3.40235-3.2578-3.40235-1.1797-.73437-3.48046-3.70703-.95704-2.625-2.03125-1.8125 2.03125-3.97266.22266-.46484 4.21485-2.8125.7578-1.625 3.6797-4.19922.21484-.24219-.21485-.51562-4.4375-.23828-4.4375-.01954"/><path fill="#00e8fc" fill-rule="evenodd" d="M383.67188 441.76172l-3.69922-1.3789 3.69921-2.00782 4.4375 1.4375.85547.57031 3.58204 1.3125 4.4375-.26172 2.26171-1.05078 2.1797-2.27344 3.98437-2.16406.45312-.70703.85938.70703 3.57812.92578 2.28125-.92578 2.15625-1.39062V438.25l-4.4375 1.42969-4.4375.64453-.19922.0586-4.23828.78515-4.4414 1.65625-4.4375 1.27344-.66797.72265-3.76954 4.2539-.16406.1875.16406 3.1797.02344 1.2578-.02344.03126-3.41406 4.40625-.73047 4.4375 4.14454 3.29687 2.99218-3.29687 1.44531-2.40235 3.83204-2.03515.60546-.5586 1.88282-3.8789 1.51953-4.4375 1.03906-1.83985v2.70313l-.78125 3.57422.78125 1.6211 2.90625-1.6211-2.90625-3.57422v-2.70313l4.4375-.4414 2.8711-2.16016 1.5664-2.625 4.4375.07813 1.83985-1.89063-1.83985-2.13281v-3.69531l1.53125 1.39062 2.91016 3.78906.45703.64844-.45703 2.71875-1.39063 1.71875-3.05078.63281-2.64844 3.8086 2.30079 4.4375-1.84766 4.4375-2.24219 1.17187-4.4375 2.65625-4.4375-1.40234-4.4414.47266-4.4375 1.24218-.17579.29688-3.45312 4.4414-.8086.79297-.76171-.79296-3.67579-2.28516-2.02343-2.15625 2.02344-3.35938.21484-1.07812-.19531-4.4375 2.05859-4.4375 2.35938-2.69531 1.54687-1.7461-1.54688-3.73828-4.4375.67969"/><path fill="#00d4fc" fill-rule="evenodd" d="M388.10938 465.8711l-4.14454-3.29688.73047-4.4375 3.41406-4.40625.02344-.03125-.02344-1.25781-.16406-3.1797.16406-.1875 3.76954-4.2539.66796-.72265 4.4375-1.27344 4.44141-1.65625v2.89453l-4.4414.15234-1.70313.60547-2.73438 1.86328-2.26171 2.57813-1.35938 4.4375-.8164 1.07422-2.60157 3.36328.21094 4.4375 2.39063 1.90234 1.72265-1.90234 2.66797-4.4375.04688-.03125 4.4375-4.19922.10156-.20703 2.14453-4.4375 2.19531-3.89844 1.96094-.54297-1.96094-.75781v-2.89453l4.23828-.78516.19922-.0586 4.4375-.64452 4.4375-1.42969 1.83985 2.13281-1.83985 1.89063-4.4375-.07813-1.5664 2.625-2.8711 2.16016-4.4375.4414-1.03906 1.83985-1.51953 4.4375-1.88281 3.8789-.60547.5586-3.83204 2.03515-1.4453 2.40235-2.9922 3.29687"/><path fill="#00c4fc" fill-rule="evenodd" d="M385.71875 462.57422l-.21094-4.4375 2.60156-3.36328.81641-1.07422 1.35938-4.4375 2.26171-2.57813 2.73438-1.86328 1.70313-.60547v2.27735l-4.27735 2.76953-.16015.04297-2.82422 4.39453-1.61329 2.1211-1.79296 2.3164 1.16015 4.4375.63281.5039.45704-.5039 2.5703-4.4375 1.41017-1 3.5078-3.4375.9297-2.23047 1.08593-2.20703-1.08594-2.76953v-2.27735l4.44141-.15234 1.96094.75781-1.96094.54297-2.19531 3.89844-2.14453 4.4375-.10156.20703-4.4375 4.19922-.04688.03125-2.66797 4.4375-1.72265 1.90234-2.39063-1.90234"/><path fill="#00b8fc" fill-rule="evenodd" d="M387.47656 462.57422l-1.16015-4.4375 1.79296-2.3164 1.61329-2.1211 2.82421-4.39453v1.23437l-2.03125 3.16016-2.40625 3.16797-.98437 1.26953.98438 2.90625 1.66015-2.90625 2.77735-1.96485 2.52343-2.47265-2.52344-3.16016v-1.23437l.16016-.04297 4.27735-2.76953 1.08593 2.76953-1.08594 2.20703-.92968 2.23047-3.50781 3.4375-1.41016 1-2.57031 4.4375-.45704.5039-.6328-.5039"/><path fill="#00a8fc" fill-rule="evenodd" d="M388.10938 461.04297l-.98438-2.90625.98438-1.26953 2.40625-3.16797 2.03125-3.16016v1.23438l-1.23829 1.92578-3.19921 4.21094-.17188.22656.17188.51562.29296-.51562 4.14454-2.9336 1.53906-1.5039-1.53906-1.92578v-1.23438l2.52343 3.16016-2.52344 2.47265-2.77734 1.96485-1.66015 2.90625"/><path fill="#009800" fill-rule="evenodd" d="M388.10938 458.65234l-.17188-.51562.17188-.22656 3.19921-4.21094 1.23829-1.92578v1.23437l-.44141.6914.4414.53907.55079-.53906-.55079-.6914v-1.23438l1.53907 1.92578-1.53906 1.5039-4.14454 2.9336-.29296.51562"/><path fill="#00ac00" fill-rule="evenodd" d="M392.54688 454.23828l-.44141-.53906.4414-.6914.55079.6914-.55079.53906"/><path fill="#50fcfc" fill-rule="evenodd" d="M401.42578 450.125l-.78125 3.57422.78125 1.6211 2.90625-1.6211-2.90625-3.57422"/><g clip-path="url(#d)"><path fill="#fff" fill-opacity="0" fill-rule="evenodd" d="M467.9961 480.32813H468V311.67188h-.0039H468v168.65625h-.0039"/></g><path fill="#fff" fill-opacity="0" fill-rule="evenodd" d="M418.84766 452.96484l.32421-5.83203-9.9453-.55078-.32423 5.83203 9.94532.55078"/><path fill-rule="evenodd" d="M410.92578 449.01953l.03125-.50781 6.28516.35156-.04688.78516-4.48047-.25-.07812 1.38672-.55469-.03125-.03515-.5625-.03907-.25391-.07422-.23438-.1328-.21093-.19923-.1875-.28515-.15625-.39063-.1289"/><path fill="#fff" fill-opacity="0" fill-rule="evenodd" d="M209.91406 410.16016l2.51953-5.27344-8.98828-4.29297-2.51953 5.26953 8.98828 4.29688"/><path fill-rule="evenodd" d="M204.08984 403.4961l.21875-.45704 5.6797 2.71094-.33985.71094-4.05078-1.9336-.59766 1.25-.5-.23828.17969-.53125.0625-.2539.01562-.2461-.03906-.24219-.11328-.25-.20313-.2539-.3125-.26563"/><path fill="#fff" fill-opacity="0" fill-rule="evenodd" d="M216.08984 462.51953l5.83985-.07812-.13281-9.95704-5.83985.07422.13281 9.96094"/><path fill-rule="evenodd" d="M219.48047 454.34766l.50781-.00782.08594 6.29297-.78906.01172-.0586-4.48828-1.38672.01563-.0078-.5547.55858-.0703.25-.0586.23047-.09375.19922-.14453.17188-.21094.13672-.29687.10156-.39453"/><path fill="#fff" fill-opacity="0" fill-rule="evenodd" d="M222.77734 419.94922l7.48438 2.60156 3.34766-9.625-7.48438-2.60156-3.34766 9.625"/><path fill-rule="evenodd" d="M227.86719 412.86719l3.10547 1.08203-.2461.69922-2.48828-.86719-.8125 1.6289.26563-.07812.30078-.03906.33203.02344.375.09375.29687.1328.29297.19142.26563.25.22265.30468.16407.36328.05078.20313.03125.21484.00781.23047-.02344.2461-.04687.2578-.08203.27344-.1797.40625-.23437.35938-.28906.3086-.33594.24218-.3828.16406-.20704.05079-.21875.03125-.22266.0039-.23437-.01953-.2461-.04688-.25-.07421-.42968-.1875-.33985-.22657-.26562-.26171-.1875-.29297-.125-.32032-.0625-.33984-.01172-.35156.03516-.36328.74218.2578v.2461l.02735.22656.05469.21485.08984.1914.11719.17188.14843.14844.1797.1211.21093.09374.30469.08203.28906.02344.27344-.03125.25-.08984.22656-.14844.19922-.20703.17578-.26953.14062-.32813.06641-.25781.03125-.26563-.01563-.26953-.0664-.26172-.11719-.24609-.17578-.22266-.23828-.1875-.3086-.14453-.33203-.07812-.30078.01172-.32031.08593-.38281.15235-.65625-.22656 1.5625-3.08594"/><path fill="#fff" fill-opacity="0" fill-rule="evenodd" d="M202.3125 458.83594l7.91797-.3086-.39453-10.18359-7.91797.3086.39453 10.18359"/><path fill-rule="evenodd" d="M204.46875 450.38672l3.28516-.1289.02734.74218-2.63672.10156-.16016 1.8125.21875-.17187.26563-.14063.32031-.10156.38281-.04688.32422.01172.33985.07422.33984.13281.32031.20313.28125.27734.125.17188.10547.1875.08985.21484.0703.23438.05079.25781.02344.28125-.01953.44531-.08594.42188-.15625.39062-.22656.34766-.29688.29687-.17187.1211-.19141.10937-.20703.08594-.22656.0664-.2422.04688-.26171.01953-.46875-.01562-.40234-.08594-.33985-.15234-.28515-.20313-.23047-.25-.1836-.29297-.13672-.32422-.10156-.35156.78516-.03125.08984.23047.10938.20313.1289.17578.15235.14843.17187.1172.1914.08202.21485.05078.23047.00782.3125-.03516.28125-.08203.23828-.1289.19922-.17579.16016-.22265.10937-.26563.0625-.3125.01172-.35938-.03125-.26171-.07031-.25782-.10938-.24609-.15625-.22266-.19922-.1875-.24609-.14062-.29297-.08594-.33984-.02344-.33594.04688-.27734.1211-.26563.19921-.30078.28125-.6914.02735.32812-3.44141"/><g clip-path="url(#e)"><path fill="none" stroke="#000" stroke-linecap="round" stroke-linejoin="round" stroke-miterlimit="10" stroke-width=".5" d="M147.48438 480.77734l-6.96875-.89843"/></g><g clip-path="url(#f)"><path fill="none" stroke="#000" stroke-linecap="round" stroke-linejoin="round" stroke-miterlimit="10" stroke-width=".5" d="M146.46875 480.64844l.4336 1.14844"/></g><g clip-path="url(#g)"><path fill="none" stroke="#000" stroke-linecap="round" stroke-linejoin="round" stroke-miterlimit="10" stroke-width=".5" d="M160.71094 481.23047l-6.79297-1.80469"/></g><g clip-path="url(#h)"><path fill="none" stroke="#000" stroke-linecap="round" stroke-linejoin="round" stroke-miterlimit="10" stroke-width=".5" d="M159.72266 480.96875L160 482.16406"/></g><g clip-path="url(#i)"><path fill="none" stroke="#000" stroke-linecap="round" stroke-linejoin="round" stroke-miterlimit="10" stroke-width=".5" d="M174.01563 481.27344l-6.76954-1.89063"/></g><g clip-path="url(#j)"><path fill="none" stroke="#000" stroke-linecap="round" stroke-linejoin="round" stroke-miterlimit="10" stroke-width=".5" d="M173.03125 481l.26172 1.19531"/></g><g clip-path="url(#k)"><path fill="none" stroke="#000" stroke-linecap="round" stroke-linejoin="round" stroke-miterlimit="10" stroke-width=".5" d="M187.28125 481.4336l-6.67188-2.21094"/></g><g clip-path="url(#l)"><path fill="none" stroke="#000" stroke-linecap="round" stroke-linejoin="round" stroke-miterlimit="10" stroke-width=".5" d="M186.3086 481.11328l.20702 1.21094"/></g><g clip-path="url(#m)"><path fill="none" stroke="#000" stroke-linecap="round" stroke-linejoin="round" stroke-miterlimit="10" stroke-width=".5" d="M200.63281 481.32031l-6.74219-1.98047"/></g><g clip-path="url(#n)"><path fill="none" stroke="#000" stroke-linecap="round" stroke-linejoin="round" stroke-miterlimit="10" stroke-width=".5" d="M213.88281 481.51563l-6.61328-2.3711"/></g><g clip-path="url(#o)"><path fill="none" stroke="#000" stroke-linecap="round" stroke-linejoin="round" stroke-miterlimit="10" stroke-width=".5" d="M227.14453 481.65234l-6.50781-2.64843"/></g><g clip-path="url(#p)"><path fill="none" stroke="#000" stroke-linecap="round" stroke-linejoin="round" stroke-miterlimit="10" stroke-width=".5" d="M240.28125 482.02734l-6.15234-3.39453"/></g><g clip-path="url(#q)"><path fill="none" stroke="#000" stroke-linecap="round" stroke-linejoin="round" stroke-miterlimit="10" stroke-width=".5" d="M253.60938 482.0039l-6.1797-3.34765"/></g><g clip-path="url(#r)"><path fill="none" stroke="#000" stroke-linecap="round" stroke-linejoin="round" stroke-miterlimit="10" stroke-width=".5" d="M267.03125 481.78906l-6.39063-2.92187"/></g><g clip-path="url(#s)"><path fill="none" stroke="#000" stroke-linecap="round" stroke-linejoin="round" stroke-miterlimit="10" stroke-width=".5" d="M280.42188 481.61328l-6.54297-2.5664"/></g><g clip-path="url(#t)"><path fill="none" stroke="#000" stroke-linecap="round" stroke-linejoin="round" stroke-miterlimit="10" stroke-width=".5" d="M293.91797 480.97266l-6.90625-1.28907"/></g><g clip-path="url(#u)"><path fill="none" stroke="#000" stroke-linecap="round" stroke-linejoin="round" stroke-miterlimit="10" stroke-width=".5" d="M292.91406 480.78516l.36719 1.17187"/></g><g clip-path="url(#v)"><path fill="none" stroke="#000" stroke-linecap="round" stroke-linejoin="round" stroke-miterlimit="10" stroke-width=".5" d="M307.29297 480.35156l-7.02735-.04687"/></g><g clip-path="url(#w)"><path fill="none" stroke="#000" stroke-linecap="round" stroke-linejoin="round" stroke-miterlimit="10" stroke-width=".5" d="M306.27344 480.34766l.5664 1.08593"/></g><g clip-path="url(#x)"><path fill="none" stroke="#000" stroke-linecap="round" stroke-linejoin="round" stroke-miterlimit="10" stroke-width=".5" d="M320.52734 481.08594l-6.86328-1.51563"/></g><g clip-path="url(#y)"><path fill="none" stroke="#000" stroke-linecap="round" stroke-linejoin="round" stroke-miterlimit="10" stroke-width=".5" d="M319.52734 480.86719l.32813 1.17969"/></g><g clip-path="url(#z)"><path fill="none" stroke="#000" stroke-linecap="round" stroke-linejoin="round" stroke-miterlimit="10" stroke-width=".5" d="M333.59766 481.8086l-6.375-2.96094"/></g><g clip-path="url(#A)"><path fill="none" stroke="#000" stroke-linecap="round" stroke-linejoin="round" stroke-miterlimit="10" stroke-width=".5" d="M346.1875 482.83594l-4.92188-5.01563"/></g><g clip-path="url(#B)"><path fill="none" stroke="#000" stroke-linecap="round" stroke-linejoin="round" stroke-miterlimit="10" stroke-width=".5" d="M358.71484 483.41797l-3.34765-6.17969"/></g><g clip-path="url(#C)"><path fill="none" stroke="#000" stroke-linecap="round" stroke-linejoin="round" stroke-miterlimit="10" stroke-width=".5" d="M372.16797 483.33984l-3.6211-6.02343"/></g><g clip-path="url(#D)"><path fill="none" stroke="#000" stroke-linecap="round" stroke-linejoin="round" stroke-miterlimit="10" stroke-width=".5" d="M385.33984 483.42188l-3.33593-6.1875"/></g><g clip-path="url(#E)"><path fill="none" stroke="#000" stroke-linecap="round" stroke-linejoin="round" stroke-miterlimit="10" stroke-width=".5" d="M398.79297 483.33984l-3.61328-6.02343"/></g><g clip-path="url(#F)"><path fill="none" stroke="#000" stroke-linecap="round" stroke-linejoin="round" stroke-miterlimit="10" stroke-width=".5" d="M412.41406 483.13672l-4.22656-5.61328"/></g><g clip-path="url(#G)"><path fill="none" stroke="#000" stroke-linecap="round" stroke-linejoin="round" stroke-miterlimit="10" stroke-width=".5" d="M426.01953 482.89063l-4.8086-5.125"/></g><g clip-path="url(#H)"><path fill="none" stroke="#000" stroke-linecap="round" stroke-linejoin="round" stroke-miterlimit="10" stroke-width=".5" d="M439.41406 482.8125l-4.96875-4.96875"/></g><g clip-path="url(#I)"><path fill="none" stroke="#000" stroke-linecap="round" stroke-linejoin="round" stroke-miterlimit="10" stroke-width=".5" d="M452.73828 482.8086l-4.98047-4.95704"/></g><g clip-path="url(#J)"><path fill="none" stroke="#000" stroke-linecap="round" stroke-linejoin="round" stroke-miterlimit="10" stroke-width=".5" d="M466.07422 482.78516l-5.02344-4.91407"/></g><g clip-path="url(#K)"><path fill="none" stroke="#000" stroke-linecap="round" stroke-linejoin="round" stroke-miterlimit="10" stroke-width=".5" d="M147.46094 467.61328l-6.92188-1.19922"/></g><path fill="none" stroke="#000" stroke-linecap="round" stroke-linejoin="round" stroke-miterlimit="10" stroke-width=".5" d="M146.45313 467.4375l.38671 1.16406m13.50782.1836l-6.06641-3.54297m6.0664 3.54297l-.09765 2.45312m13.60156-2.82422l-6.44531-2.80078m6.44531 2.80078l.19531 2.44532m13.09766-2.39454l-6.39844-2.90234m6.39844 2.90234l.15234 2.44922m13.3086-2.82422l-6.6914-2.15234m6.6914 2.15234l.4336 2.41407m12.86718-2.3711l-6.66016-2.23828m6.66016 2.23828l.40234 2.42188m12.875-2.32031l-6.58984-2.44141m6.58984 2.4414l.32813 2.4297m12.92187-2.25782l-6.45312-2.78516m6.45312 2.78516l.19922 2.44531m13-2.20703l-6.22656-3.26172m6.22656 3.26172l.01563 2.45313m13.26562-2.39063l-6.15625-3.38672m6.15625 3.38672l-.03515 2.45313m13.23047-2.25l-5.91797-3.79297m5.91797 3.79297l-.19922 2.4453m14.02734-3.79296l-6.9414-1.09766m6.9414 1.09766l.79688 2.32031m12.55468-2.66406l-7.01562-.41016m7.01562.41016l1.02344 2.23047m12.28906-2.20313l-7.01172-.46484m5.9922.39844l.5039 1.11719m13.82812-1.02735l-7.00781-.51172m5.98828.4375l.4961 1.1211m13.72265-.375l-6.77734-1.85547m5.79297 1.58594l.26953 1.1953m13.71094-.14452l-6.13672-3.41797m5.24609 2.92187l-.02734 1.22657M372.20703 470l-3.70312-5.97266m3.16406 5.10547l-.61719 1.0586m16.13281-3.06641l-7.02343-.22266m18.48046 3.21094l-3.30859-6.19922m2.82813 5.29688l-.6836 1.01953m15.05469-.5039l-4.46094-5.42579m3.8125 4.63672l-.47265 1.13281m13.37109.25781l-2.33203-6.6289m1.99219 5.66406l-.82813.90234m13.65235.2461l-.66797-6.9961m.5703 5.97657l-1.02343.67578m14.51563.33594l-.82813-6.98047m.70703 5.96484l-1.00781.69922m15.51563.01172l-2.97266-6.3711m2.97265 6.3711l-1.47656 1.95703"/><g clip-path="url(#L)"><path fill="none" stroke="#000" stroke-linecap="round" stroke-linejoin="round" stroke-miterlimit="10" stroke-width=".5" d="M147.3086 454.88281l-6.6172-2.36719"/></g><path fill="none" stroke="#000" stroke-linecap="round" stroke-linejoin="round" stroke-miterlimit="10" stroke-width=".5" d="M146.34375 454.53906l.17969 1.21094m13.53125.14844l-5.47656-4.40235m5.47656 4.40235l-.46094 2.41015m13.53906-2.14453l-5.0039-4.9336m5.0039 4.9336l-.70312 2.35156m13.7539-2.10937l-4.47656-5.41406m4.47656 5.41406l-.93359 2.26953m14.46875-2.46484l-4.91797-5.02344m4.20313 4.28906l-.3711 1.17188m14.98438-1.1875l-6.08203-3.52344m5.1953 3.00781l-.04296 1.22656m13.91406-.24218l-5.42578-4.46485m5.42578 4.46485l-.48437 2.40625m14.4375-3.57813l-6.69922-2.1211m5.72656 1.8125l.21875 1.20704m13.77734-.23047l-6.11718-3.45703m6.11719 3.45703l-.0625 2.45313m13.16015-2.11328l-5.6836-4.13282m5.6836 4.13281l-.33984 2.4297m13.60547-2.35938l-5.58203-4.27344m5.58203 4.27344l-.40235 2.41797m13.96485-2.79297l-6.07813-3.52344m6.07813 3.52344l-.08985 2.45312m13.875-4.0586l-7.01953-.3164m6 .27344l.52735 1.10547m13.79687-.88281l-6.9961-.67188m5.97657.57422l.47266 1.13281m13.7539-2.29297l-6.78125 1.83985m5.79688-1.57031l.83984.89453m13.5586-.65625l-6.97657.82812m5.96094-.70703l.69922 1.00781m13.65234-.53515l-7.01953-.35938m5.9961.30469l.52343 1.11328m13.80469-1.5586l-7 .64063m5.98047-.54687l.67187 1.02734m12.55078-3.3789l-4.77343 5.15624m15.19922.89844l1.0039-6.95312m-.85937 5.9414l-1.15235.41406m14.33594.60157l.97656-6.96094m-.83203 5.94531l-1.15234.42188m14.95312.625l-.28125-7.02344m.24219 6l-1.0625.6211m12.52344-.06641l3.5039-6.08985m-3.5039 6.08985l-2.45313-.08203m15.40625-.15235l4.22657-5.61719m-4.22657 5.6172l-2.42187-.38282m17.15234 1.01562l1.39844-6.88671m-1.39844 6.88671l-2.35547.69922"/><g clip-path="url(#M)"><path fill="none" stroke="#000" stroke-linecap="round" stroke-linejoin="round" stroke-miterlimit="10" stroke-width=".5" d="M147.26563 441.67969l-6.53125-2.58985"/></g><path fill="none" stroke="#000" stroke-linecap="round" stroke-linejoin="round" stroke-miterlimit="10" stroke-width=".5" d="M146.3164 441.30078l.13673 1.21875m13.7539-.14062l-5.78516-3.9922m4.94532 3.41017l-.14453 1.21875m13.3164.3203l-3.8164-5.90234m3.26172 5.04297l-.59766 1.07031m13.53516.21094l-1.95313-6.75m1.66797 5.76953l-.8789.85547m15.13671-.14062l-3.26953-6.21875m18.21875 4.40234l-6.53516-2.58203m5.58203 2.20703l.14063 1.21875m14.14844-.90625l-6.58203-2.46094m5.625 2.10157l.16015 1.21875m14.03906-.6797l-6.43359-2.8203m5.5 2.41015l.09375 1.22266m14.27344-1.10938l-6.66797-2.22265m5.69531 1.89843l.20313 1.21094m13.77734-.21484l-6.05469-3.57031m6.0547 3.5703l-.10938 2.45313m13.46875-2.53125l-6.14453-3.41406m5.25 2.91797l-.02344 1.22656m13.67578.01563l-5.03125-4.90625m4.30078 4.1914l-.34375 1.1797m15.16797-1.69532l-6.58594-2.44531m5.6289 2.08984l.16016 1.21484m14.32422-2.3125l-7.01172.46485m5.9922-.39844l.64452 1.04297m13.46485-2.13672l-6.5625 2.51953m5.60937-2.15234l.92578.80469m12.86328-2.03516l-5.60156 4.24219m4.78516-3.625l1.11328.51562m13.63672.17578l-6.83985 1.625m5.84375-1.38672l.8125.91797m12.91407 1.73438l-5.66797-4.15235m4.84375 3.54688l-.17578 1.21484m9.54687.2461l3.86328-5.8672m8.14063 4.28126l6.48828-2.69531m7.48828 3.73047l5.16797-4.76172m-4.41797 4.0664l-1.15625-.40625m13.52344.86719l5.5586-4.29687m-5.5586 4.29687l-2.23438-1.00781m15.76172 1.25781l5.13672-4.79687m-5.13672 4.79687l-2.32031-.79687m16.41015 1.42187l3.58594-6.04297m-3.58594 6.04297l-2.44921-.11719m2.97265-.76172l-1.22656-.05859m14.67578 1.23828l2.26953-6.64844m-2.26953 6.64844l-2.42187.39063"/><g clip-path="url(#N)"><path fill="none" stroke="#000" stroke-linecap="round" stroke-linejoin="round" stroke-miterlimit="10" stroke-width=".5" d="M147.24219 428.41797l-6.48438-2.69922"/></g><path fill="none" stroke="#000" stroke-linecap="round" stroke-linejoin="round" stroke-miterlimit="10" stroke-width=".5" d="M146.30078 428.02344l.11328 1.22265m14.26953-1.17968l-6.73828-1.9961m5.75781 1.70313l.2461 1.20312m13.03125-4.51953l-4.69922 5.22266m15.23047-6.09766l.86719 6.97266m13.54687-6.9375l-1.32812 6.90234m15.96093-.55078l-3.96484-5.80078m16.59375 6.16406l-2.59766-6.52734m14.66797 6.77734l-.10547-7.02734m.08985 6.0039l-1.07422.59375m16.3789-.21484l-4.05468-5.73828m3.46484 4.90234l-.55078 1.09766m15.5625-1.54297l-6.26563-3.17578m5.35547 2.71484l.02344 1.22656m14.20313-.76953l-6.26954-3.16797m5.35938 2.70704l.02344 1.22656m13.52344.16406l-4.91407-5.02734m4.19922 4.29687l-.3711 1.16797m14.04298-.13281l-4.19532-5.63672m18.90625 3.17187l-6.98828-.70703m20.3125.07813l-7.00781.55078m19.7461-2.21875l-5.85157 3.88672m12.9414-3.15625l6.59766 2.42578m8.04297 1.69531l3.94531-5.8164m-3.37109 4.96875L367.73828 429m14.73828 1.3711l2.39063-6.60548m-2.39063 6.60547l-2.42969.34766m16.3672-.1836l1.14452-6.93359m-.98046 5.92578l-1.16016.39063m13.5664.40625l2.63282-6.51172m-2.63281 6.51172l-2.44141.25781m13.9336-1.9336l6.27734-3.16015m-6.27735 3.16016l-2-1.41797m2.91406.95703l-1-.70703m13.60157 1.51172l5.8789-3.84766m-5.8789 3.84766l-2.15235-1.1836m17.0625 2.50782l2.6875-6.4922m-2.6875 6.4922l-2.4414.23437m16.71484.01172l.76953-6.98828m-.76953 6.98828l-2.27734.90625"/><g clip-path="url(#O)"><path fill="none" stroke="#000" stroke-linecap="round" stroke-linejoin="round" stroke-miterlimit="10" stroke-width=".5" d="M147.38281 414.70703l-6.76562-1.90625"/></g><path fill="none" stroke="#000" stroke-linecap="round" stroke-linejoin="round" stroke-miterlimit="10" stroke-width=".5" d="M146.39844 414.42969l.25781 1.19922m14.05469-2.77735l-6.79297 1.80469m5.80469-1.54297l.83593.89844m13.32813-1.57813l-6.51172 2.64063m5.5625-2.25781l.9414.78906m13.375 1.32812l-6.61718-2.35937m5.65625 2.01562l.17969 1.21485m13.21875-4.58594l-4.86328 5.07031m12.32812-1.73047l6.83984-1.60937m6.70313 2.27344l6.38281-2.9375m-5.45312 2.51172l-.97657-.7461m14.40625 2.48438l4.29297-5.5625m-4.29297 5.5625l-2.41797-.41016m18.64844 1.0586l-1.53515-6.85938m1.3125 5.85937l-.9336.80079m13.98828.26953l-.5703-7.00391m.48827 5.98438l-1.03515.66406m13.29687.26562L278 410.34375m15.44922 5.26563l-5.96485-3.71485m5.09766 3.17578l-.08594 1.22266m14.17578-4.53516l-5.78125 3.99219m16.46875-5.5l-.52734 7.00781m11.15625-.95703l4.84375-5.09375m8.7461-.23437l4.29296 5.5625m13.29688-5.57813l-4.2539 5.59375m3.63671-4.78125l1.21094.19922m8.36328-.92969l4.46484 5.42969m-3.8164-4.64062l.47265-1.13282m11.20703 1.64844l6.4375 2.82031m-6.4375-2.82031l-.18359-2.44922m13.41016 2.67188l6.61328 2.37109m-6.61328-2.3711l-.35547-2.42577m1.3164 2.77343l-.35156-2.42968m12.57031 2.5703l6.88672 1.39845m-6.88672-1.39844l-.69921-2.35156m1.69921 2.55468l-.34765-1.17578m12.58984 1.6211l7.02735.10156m-7.02735-.10156l-1.1211-2.1836m14.4375 2.16016l7.02735.14844m-6.0039-.12891l-.5547-1.09375m14.35548 4.03516l4.00781-5.77344m-4.00781 5.77344l-2.4375-.29297m19.1875.61328l-2.86328-6.41406m2.86328 6.41406l-1.50782 1.9375"/><g clip-path="url(#P)"><path fill="none" stroke="#000" stroke-linecap="round" stroke-linejoin="round" stroke-miterlimit="10" stroke-width=".5" d="M147.51172 400.4375h-7.02344"/></g><path fill="none" stroke="#000" stroke-linecap="round" stroke-linejoin="round" stroke-miterlimit="10" stroke-width=".5" d="M146.49219 400.4375l.57422 1.08594m12.84375-3.45313l-5.19141 4.73828m18.07813-5.13671l-4.33594 5.53125m15.0586-6.25391l.85155 6.97656m9.77735-5.1211l6.22265 3.26954m-5.3164-2.79297l-.0039-1.22656m12.05077 1.86328l6.94922 1.03906m-5.9375-.88672l-.41016-1.15625m12.98047 2.95703l6.41407-2.86328m-5.48047 2.44531l-.96875-.7539m14.23437 2.375l4.64453-5.27344m-3.96875 4.50781l-1.1914-.28515m15.15625 1.78515l1.9961-6.73828m-1.70704 5.75781l-1.20313.2422m14.65235.83593l1.14453-6.9336m13.38281 6.92188l-1.27734-6.91015m1.09375 5.90234l-.96094.76562m13.52734.28907l.58594-7.00391m-.5 5.98438l-1.1289.48046m16.19922-6.12109l-3.09375 6.3125m11.52343-4.2539l6.67578 2.19921m-5.70312-1.8789l-.20703-1.21094m14.80469-1.35547l2.16406 6.6875m-1.84766-5.71484l.85547-.87891m12.21094-.11328l2.03125 6.72656m-2.03125-6.72656l1.74219-1.72656m9.35937 3.70312l6.45703 2.77735m-5.51562-2.375l-.10157-1.22266m12.48047.8086l6.44531 2.79687m-5.5078-2.39063l-.09766-1.22265m19.125 1.4375l-6.85157 1.55468m6.85157-1.55468l1.60156 1.85937m10.5586-3.76172l-4.54298 5.35938m4.54297-5.35938l2.39844.52344m-3.0586.25781l1.19923.26172m13.22656-.58203l-5.44531 4.4414m5.4453-4.4414l2.26173.94922m-3.0547-.30469l2.26173.94922m6.76172 3.22656l4.72656-5.20312m-4.72656 5.20312l-2.37891-.60547m14.74219-.82812l6.6289-2.33594m-5.66406 1.9961l-.90234-.83204m18.125 3.15235l-3.11719-6.29688m3.11719 6.29688l-1.42969 1.9961m16.17578-3.29688l-5.98047-3.69141m5.98047 3.6914l-.15625 2.44532m-.71094-2.98438l-.16015 2.44922"/><g clip-path="url(#Q)"><path fill="none" stroke="#000" stroke-linecap="round" stroke-linejoin="round" stroke-miterlimit="10" stroke-width=".5" d="M146.05078 384.26953l-4.10156 5.70703"/></g><path fill="none" stroke="#000" stroke-linecap="round" stroke-linejoin="round" stroke-miterlimit="10" stroke-width=".5" d="M145.45313 385.10156l1.21484.16406m8.1289-.59375l5.03516 4.90235m-4.30469-4.1875l.34375-1.17969m11.25391 2.66406l7.00781.50391m-5.98828-.42969l-.4961-1.1211m12.81641.82032l6.96094.95703m-5.94922-.8164l-.42187-1.15235m12.73828.92578l6.9336 1.12891m-5.92579-.96484l-.39453-1.16016m14.39063-1.46875l3.55859 6.0586m-3.04297-5.17579l.64453-1.04687m11.53516.625l4.79687 5.13672m-4.79687-5.13672l.79687-2.32031m11.4414 4.3789l6.95313 1.01953m-5.9414-.8711l-.41406-1.15624m13.97656 4.2461l4.42969-5.45704m-4.4297 5.45703l-2.40624-.47265m15.26562.02343l5.34375-4.55859m-4.5664 3.89453l-1.14063-.44922m12.83985-1.01953l7.01953-.29297m10.67578 3.55078l-1.74219-6.80859m1.48828 5.8164l-.90625.82813m15.53125-.30078l-3.85156-5.8789m3.28906 5.02343l-.58984 1.07422m15.02734-5.64063l-4.96875 4.96875m4.24219-4.24609l1.17578.35547m11.20703-2.01172l-1.65234 6.83203m1.65234-6.83203l2.375-.60937m13.0664 2.125l-5.90624 3.80468m5.90625-3.80468l2.14062 1.1953m11.65235 1.45704l-6.86328-1.5039m6.86328 1.5039l.66406 2.36328m-1.66016-2.58203l.32813 1.17969m13.8711-2.85938l-6.64063 2.29688m6.64062-2.29688l1.79688 1.66797m-2.76172-1.33594l.89844.83594m12.59765-2.45312l-5.07422 4.86328m5.07422-4.86328l2.33203.76953m10.39844-1.25781l-3.90234 5.83984m3.90234-5.83985l2.4414.2461m-3.0078.60156l1.21874.125m12.94532-.76562l-4.46875 5.42578m4.46875-5.42578l2.40625.48828m-3.0547.30078l2.40235.48828m12.39453-.27344l-6.13671 3.41797m6.13671-3.41797l2.0625 1.33203m10.9375 2.5586l-5.5039-4.36328m5.5039 4.36328l-.4414 2.41406m13.80469-2.47656l-5.60157-4.23828m5.60157 4.23828l-.38672 2.42187m-.42578-3.03906l-.19532 1.21094m14.27344-.52735l-5.5039-4.37109m5.5039 4.3711l-.44531 2.41406m-.35547-3.05079l-.22266 1.20704"/><g clip-path="url(#R)"><path fill="none" stroke="#000" stroke-linecap="round" stroke-linejoin="round" stroke-miterlimit="10" stroke-width=".5" d="M145.48047 370.6211l-2.96094 6.375"/></g><path fill="none" stroke="#000" stroke-linecap="round" stroke-linejoin="round" stroke-miterlimit="10" stroke-width=".5" d="M145.48047 370.6211l2.44922-.12891m9.71484-.1836l-.66016 6.9961m.66016-6.9961l2.26563-.9414m7.30078 3.625l6.83594 1.63281m7.03906 1.22266l5.71875-4.07813m-4.88672 3.48438l-1.09766-.54688m13.25781-2.39062l6.36329 2.98437m-6.36328-2.98437l-.1211-2.44922m14.48438 1.14844l4.26562 5.58593m-4.26562-5.58594l1.02343-2.23046m-.40234 3.04296l1.02344-2.23046m12.71484.87109l2.17578 6.67969m-2.17578-6.67969l1.70703-1.76563m-1.38672 2.73829l.85157-.88672m16.74609 3.1836l-7.02734.14062m7.02734-.14063l1.19531 2.14063m-2.21875-2.1211l1.19531 2.14453m-2.21484-2.125l.59766 1.07422m14.76172-1.01172l-7.02735-.0625m7.02735.0625l1.1328 2.17579m-2.15624-2.1875l.5664 1.08984m9.50782 2.32422l1.5-6.86719m-1.28125 5.86719l-1.1836.33203M280.5 374.87109l-6.69922-2.1289m6.69922 2.1289l.4414 2.41407m12.44141-1.51954l-5.83593-3.91406m5.83593 3.91406l-.25 2.44141m-.59765-3.01172l-.25 2.4414m14.9414-3.14843l-6.89453-1.35937m6.89453 1.35937l.71094 2.34766m12.45313-4.2461l-6.58985 2.4375m6.58985-2.4375l1.83203 1.62891m-2.78907-1.27734l.91407.8164m13.51172-.63281l-6.89454 1.36719m6.89454-1.36719l1.55078 1.90234m-2.5547-1.70312l1.55079 1.90234m12.60547-2.66406l-6.57031 2.49219m6.5703-2.49219l1.84376 1.61719m-2.80078-1.2539l1.84765 1.61718m12.4336-1.95313l-6.58985 2.4375m6.58985-2.4375l1.83203 1.62891m11.25781-2.1211l-6.14062 3.41798m6.14062-3.41797l2.0625 1.33593m9.97656-2.64453l-3.58593 6.03906m3.0625-5.16015l1.22656.05469m11.4961-1.36329l-1.35938 6.89454m1.35937-6.89454l2.35157-.71093m11.93359 1.05469l-3.29688 6.20703m3.29688-6.20704h2.45312m-2.93359.90625l1.22656-.0039m13.74219.10937l-5.64062 4.1875m5.64062-4.1875l2.21484 1.05079m-3.03515-.44141l1.10937.52734m13.46094 2.27735l-6.51172-2.64454m5.5625 2.26172l.1289 1.21875m13.875-.3203l-5.99218-3.67188m5.1211 3.13671l-.07422 1.22657m13.7578-.05469l-4.98827-4.94531m4.98828 4.94531l-.70703 2.35156"/><g clip-path="url(#S)"><path fill="none" stroke="#000" stroke-linecap="round" stroke-linejoin="round" stroke-miterlimit="10" stroke-width=".5" d="M145.2539 357.21094l-2.5078 6.5625"/></g><path fill="none" stroke="#000" stroke-linecap="round" stroke-linejoin="round" stroke-miterlimit="10" stroke-width=".5" d="M145.2539 357.21094l2.4375-.30078m10.72657.24609l-2.20703 6.67188m2.20703-6.67188l2.41797-.41016m6.35156 3.03907l6.88281 1.41406m-5.8789-1.20703l-.34766-1.17969m14.85156 4.96484l2.5-6.5664m-2.13672 5.60937l-1.21875.15235m17.04688-5.59375l-3.2539 6.23046m2.78124-5.32421l1.22656-.01172m14.41797 1.75l-6.96484.9414m6.96484-.9414l1.4297 1.99219m-2.44532-1.85547l1.4336 1.99218m-2.44532-1.85546l.71484.99609m14.58985-1.49219l-6.89063 1.38281m6.89063-1.3828l1.55469 1.89843m-2.5586-1.69531l1.5586 1.89453m12.69921-2.34375l-6.76953 1.875m6.76953-1.875l1.69141 1.78125m-2.67578-1.50781l1.6875 1.78125m12.55469-2.2461l-6.65235 2.26172m6.65235-2.26172l1.78906 1.67969m-2.75781-1.35156l1.78906 1.67968m12.36719-2.33203l-6.39844 2.91016m6.39844-2.91016l1.9453 1.49219m-2.8789-1.07031l1.94922 1.49219m12.54297.23828l-6.88672-1.39844m6.88672 1.39844l.69922 2.35156m-1.69922-2.55469l.34766 1.17578m13.77343-.33203l-6.49609-2.67969m6.4961 2.6797l.23828 2.4414m13.1875-2.7539l-6.71875-2.05079m6.71875 2.05078l.46875 2.40625m12.14062-5.73437l-5.3086 4.60546m4.53516-3.9375l1.14453.44141m12.70313-1.35937l-4.82813 5.10546m4.82813-5.10546l2.36719.65234m10.76562-.8125l-4.46484 5.42578m4.46484-5.42578l2.40625.48438m10.82031-.5586l-4.28515 5.57031m4.28515-5.5703l2.42188.41015m-3.04297.40234l1.20703.20313m11.72266-1.5547l-2.27344 6.64845m2.27344-6.64844l2.42578-.38672m9.51562.20703L383.90625 364m-.47266-7.01172l2.08594-1.29687m10.3711 1.46484l2.1914 6.67578m-2.1914-6.67578l1.69921-1.77344m13.1211 1.6211l-.82031 6.98046m.8203-6.98046l2.28516-.89063m11.58985 1.0039l-1.9375 6.75391m1.9375-6.7539l2.39844-.51172m12.1875 1.17969l-4.48047 5.41406m4.48047-5.41406l2.40234.49218m11.47656.09766l-5.60937 4.23438m4.79297-3.6172l1.11328.51563m13.21093 2.82031l-5.99609-3.66796m5.125 3.1328l-.07422 1.22657"/><g clip-path="url(#T)"><path fill="none" stroke="#000" stroke-linecap="round" stroke-linejoin="round" stroke-miterlimit="10" stroke-width=".5" d="M145.58594 344.04297l-3.17188 6.26953"/></g><path fill="none" stroke="#000" stroke-linecap="round" stroke-linejoin="round" stroke-miterlimit="10" stroke-width=".5" d="M145.58594 344.04297l2.45312-.04688m10.85938.04688l-3.16797 6.26953m3.16797-6.26953l2.45312-.05078m-2.91406.96094l1.22656-.02344m12.08203 5.58203l-2.23047-6.66406m2.23047 6.66406l-1.6914 1.77734m17.38672-4.76562l-6.9922-.6914m6.9922.6914l.93359 2.26953m-1.94922-2.3711l.46484 1.13672m13.88282-1.41406l-7.02735.0664m7.02735-.0664l1.17187 2.15625m-2.19531-2.14844l1.17578 2.15625m12.90625-3.4453l-6.51562 2.6289m6.51562-2.6289l1.8789 1.57812m-2.82421-1.19532l1.8789 1.57813m12.02735-2.625l-5.80469 3.95703m5.80469-3.95703l2.17187 1.14453m-3.01562-.5664l1.08594.5703m12.34765-1.92577l-4.35547 5.51171m4.35547-5.51171l2.41406.4414m-3.04687.35938l1.20703.22265m11.82813-1.54687l-2.52735 6.5586m2.52735-6.5586l2.4375-.29297m-2.8047 1.25l1.21876-.14844m12.60156-.75l-2.80469 6.4414m2.8047-6.4414l2.44921-.1914m-2.85547 1.1289l1.22266-.09375m14.4336 1.27344l-6.67188 2.20703m5.69922-1.88672l.88671.84766m13.3047 1.29297l-6.48048-2.71485m5.53516 2.32031l.11328 1.22266m14.3164-1.33594l-6.8203-1.6953m5.82812 1.4453l.29687 1.19141m12.34766-4.83984l-3.4961 6.09765m2.98829-5.21094l1.22656.03907m10.57422-1.3789l.55078 7.0039m-.55078-7.0039l2.0664-1.32032m-1.98828 2.33984l1.03516-.66015m12.5039-.3711l-.05468 7.02735m.05469-7.02735l2.17578-1.13672m-2.1836 2.16016l1.08594-.5664m11.70313-.42188l1.01171 6.95703m-1.01171-6.95703l1.98046-1.44922m10.58985 1.64453l2.5039 6.5664m-2.5039-6.5664l1.61328-1.84765m11.26172 2.05078l3.38281 6.16015m-2.89062-5.26562l.67187-1.02344m11.92578.26172l3.83203 5.89453m-3.27343-5.03516l.59375-1.07421m13.39062-.28125l1.3789 6.89062m-1.17968-5.89063l.94922-.77734m13.7539-.17578l-1.80078 6.79297m1.53907-5.80469l1.1953-.27734m12.03126-.78516l-1.09766 6.9414m1.09766-6.9414l2.32031-.79687m11.82031 1.03515l-2.74609 6.46875m2.34375-5.52734l1.22266-.10938m14.55078 3.15625l-6.86328-1.51171m6.86328 1.51171l.66015 2.36329"/><g clip-path="url(#U)"><path fill="none" stroke="#000" stroke-linecap="round" stroke-linejoin="round" stroke-miterlimit="10" stroke-width=".5" d="M146.52344 331.41797l-5.04688 4.89062"/></g><path fill="none" stroke="#000" stroke-linecap="round" stroke-linejoin="round" stroke-miterlimit="10" stroke-width=".5" d="M146.52344 331.41797l2.33203.75m11.53125-.01172l-6.14453 3.41016m6.14453-3.41016l2.0586 1.33594m-2.95313-.83985l1.03125.66797m13.57422 1.11328l-6.9336-1.14453m6.9336 1.14453l.78125 2.32813m-1.78907-2.49219l.39063 1.16016m13.97656-1.51953l-7.02344-.09766m7.02344.09766l1.125 2.18359m-2.14453-2.19531l.5586 1.08984m13.44921-2.60547l-6.3711 2.96094m6.3711-2.96094l1.95703 1.47656m-2.8828-1.04687l.98046.73828m13.04297-1.5664l-5.9375 3.7578m5.9375-3.7578l2.13281 1.21484m-2.9961-.66797l1.06641.60938m12.65235-1.73829l-5.01563 4.92188m5.01563-4.92188l2.33984.7422m-3.07031-.02735l1.17187.3711m12.01563-1.72657l-3.30078 6.20312m3.30078-6.20312h2.45312m-2.93359.90234h1.22656m12.11328-1.10547l-2.39062 6.60938m2.39062-6.60938l2.4297-.34375m10.4375.21485l-1.4922 6.86719m1.4922-6.8672l2.35937-.66796m11.27734.7539l-2.13672 6.69532m17.73828-2.30469l-6.71093-2.08594m5.73437 1.78125l.23047 1.20703m12.3125-5.0703l-3.21094 6.25m2.74219-5.33985l1.22656-.01953m11.28516-1.26172l-.66797 6.99219m.57031-5.97657l1.13281-.46875m13.79688-.03906l-3.69922 5.97656m3.16016-5.10547l1.22265.07813m12.01172-1.2539l-2.46094 6.58202m2.46094-6.58203l2.4336-.32031m10.5703.22266l-1.83593 6.78125m1.83594-6.78125l2.39062-.54688m9.52344.45703l.96094 6.96094m-.82031-5.94922l.99218-.71875m10.64453.3125l4.03907 5.75m-3.44922-4.91406l.55469-1.09375m11.73437.6211l4.91016 5.02343m-4.91016-5.02344l.74219-2.33984m12.3125 2.6211l5.42969 4.45702m-5.4297-4.45703l.48438-2.40234m12.46094 2.94922l6.16797 3.36719m-5.26953-2.87891l.01562-1.22656m17.84375-.1836l-4.71484 5.21094m4.03125-4.45313l1.1875.30079m12.85937-1.01172l-4.8125 5.11719m4.11329-4.375l1.18359.32421m13.92187 1.14844l-6.99218.6875m5.97265-.58984l.67969 1.02344"/><g clip-path="url(#V)"><path fill="none" stroke="#000" stroke-linecap="round" stroke-linejoin="round" stroke-miterlimit="10" stroke-width=".5" d="M145.97266 317.64063l-3.94532 5.8164"/></g><path fill="none" stroke="#000" stroke-linecap="round" stroke-linejoin="round" stroke-miterlimit="10" stroke-width=".5" d="M145.97266 317.64063l2.4375.26171m12.12109 1.23047l-6.42969 2.83203m6.42969-2.83203l1.92578 1.51563m-2.86328-1.10547l.96484.75781M174 319.55468l-6.74219 1.98438M174 319.5547l1.71875 1.7539m-2.69922-1.46484l.85938.8789m13.17578-1.80859l-6.22266 3.26563m6.22266-3.26563l2.02734 1.38672m-2.92969-.91015l1.01172.6914m13.04688-1.4414l-5.90235 3.8125m5.90235-3.8125l2.14453 1.1953m-3.0039-.64062l1.07421.59766m12.65234-1.71094l-5.0078 4.92969m5.0078-4.92969l2.34375.73828m-3.0703-.01953l1.16796.36719m11.23047-2.02735l-1.71875 6.8125m1.71875-6.8125l2.38281-.58593m11.26953.6914l-2.39453 6.60547m2.04688-5.64453l1.21484-.17187m13.64063-.0625l-4.77735 5.15234m4.77735-5.15234l2.37109.625m11.1914-.3711l-5.27343 4.64453m4.5039-3.96875l1.14844.4297m13.7539.57812l-6.91015 1.27343m6.91016-1.27343l1.52734 1.92187m11.76953-2.01172l-6.875 1.45703m6.875-1.45703l1.57813 1.8789m11.5625-2.45312l-6.52735 2.60547m6.52735-2.60547l1.875 1.58594m-2.82422-1.20703l.9375.79297m13.50781.82031l-6.88672-1.38281m5.88672 1.1836l.35156 1.17577m14.01563-2.0078l-6.99219.67968m5.97656-.57813l.6797 1.01954m10.3828-4.28516l-.45312 7.01172m.38672-5.99219l1.11719-.5039m11.22656-.4297l1.6211 6.83594m-1.6211-6.83593l1.84375-1.6211m12.35156 1.52735l-.14062 7.02734m.14062-7.02734l2.1914-1.10938m12.65235 1.49219l-3.19531 6.26172m2.73047-5.35156l1.22656-.01954m13.29687-.3789l-4.68359 5.23828m4-4.47656l1.1914.29296m11.59766-1.76171l-2.26562 6.65234m2.26562-6.65234l2.42578-.39063m9.13672.25781l1.2422 6.91797m-1.0625-5.91015l.96483-.76172m9.6211 1.69922l6.33984 3.02734m11.91016-4.55078l-3.53125 6.07422m18.07031-4.88672l-5.97656 3.69531m5.10547-3.15625l1.0586.61719"/><path fill="#00f" fill-rule="evenodd" d="M392.67578 463.21094h8.6211V453.0625h-8.6211v10.14844"/><path fill="azure" fill-rule="evenodd" d="M394.51172 454.89844h.83203v2.82031h3.28516v-2.82031h.83203v6.48047h-.83203v-2.91797h-3.28516v2.91797h-.83203v-6.48047"/><path fill="#ff3030" fill-rule="evenodd" d="M317.91797 436.57813h7.69531v-10.14454h-7.69531v10.14454"/><path fill="azure" fill-rule="evenodd" d="M319.7539 428.26563h.83204v5.74218h3.1914v.73828h-4.02343v-6.48046"/><path fill="#00f" fill-rule="evenodd" d="M392.67578 427.70313h8.6211v-10.14454h-8.6211v10.14454"/><path fill="azure" fill-rule="evenodd" d="M394.51172 419.39063h.83203v2.82421h3.28516v-2.82421h.83203v6.48046h-.83203v-2.91796h-3.28516v2.91796h-.83203v-6.48046"/><path fill="#00f" fill-rule="evenodd" d="M219.58203 418.82813h8.61719v-10.14844h-8.61719v10.14844"/><path fill="azure" fill-rule="evenodd" d="M221.41406 410.51172h.83203v2.82422h3.28907v-2.82422h.83203v6.48047h-.83203v-2.91406h-3.28907v2.91406h-.83203v-6.48047"/><path fill="#00f" fill-rule="evenodd" d="M370.48438 401.07422h8.62109v-10.14844h-8.6211v10.14844"/><path fill="azure" fill-rule="evenodd" d="M372.3164 392.76172h.83594v2.82031h3.28516v-2.82031h.83203v6.47656h-.83203v-2.91406h-3.28516v2.91406h-.83593v-6.47656"/><path fill="#ff3030" fill-rule="evenodd" d="M428.8789 396.63281h7.69141v-10.14453h-7.6914v10.14453"/><path fill="azure" fill-rule="evenodd" d="M430.71094 388.32031h.83203v5.74219h3.19531v.73828h-4.02734v-6.48047"/><path fill="#ff3030" fill-rule="evenodd" d="M251.34375 370.0039h7.6914v-10.14452h-7.6914v10.14453"/><path fill="azure" fill-rule="evenodd" d="M253.17578 361.6914h.83594v5.73829h3.1914v.74219h-4.02734v-6.48047"/><path fill="#ff3030" fill-rule="evenodd" d="M171.45313 347.8125h7.6914v-10.14453h-7.6914v10.14453"/><path fill="azure" fill-rule="evenodd" d="M173.28516 339.5h.83593v5.73828h3.19141v.74219h-4.02734V339.5"/><path fill="#00f" fill-rule="evenodd" d="M370.48438 330.0586h8.62109v-10.14454h-8.6211v10.14453"/><path fill="azure" fill-rule="evenodd" d="M372.3164 321.7461h.83594v2.82421h3.28516v-2.82422h.83203v6.48047h-.83203v-2.91797h-3.28516v2.91797h-.83593v-6.48047"/><path fill="#ffffe0" fill-rule="evenodd" d="M426.07422 426.89063h22.17969V416.6953h-22.1797v10.19531"/><path fill-rule="evenodd" d="M429.57031 418.53125h.51172v6.29297h-.78906v-4.48828h-1.38672v-.55469l.5586-.0664.2539-.0547.22656-.08984.20703-.14062.17188-.21094.14062-.29297.10547-.39453m4.8164 0l.22657.01563.22266.05859.20703.08984.19531.1211.1836.14843.17187.17579.30078.41796.2461.4961.17968.54297.10938.58203.03906.58984-.03906.59375-.10938.58203-.17969.55469-.24609.5039-.30078.42579-.17188.17969-.18359.15625-.19531.12109-.20703.09375-.22266.05469-.22656.01953-.23047-.01953-.21875-.0547-.20703-.09374-.19922-.1211-.1836-.15625-.17187-.17968-.30078-.42578-.24219-.50391-.17969-.55469-.11328-.58203-.03515-.59375h.83203l.02734.5625.08203.50781.125.44141.16407.375.1914.30078.21094.22266.22266.13672.22656.04687.22656-.04687.22266-.13672.21094-.22266.1875-.30078.16406-.375.125-.4414.08203-.50782.03125-.5625-.03125-.5625-.08203-.5-.125-.4336-.16406-.36718-.1875-.29297-.21094-.21484-.22266-.1289-.22656-.04688-.22656.04687-.22266.1289-.21094.21485-.1914.29297-.16407.36719-.125.4336-.08203.5-.02734.5625h-.83203l.03515-.58985.11329-.58203.17968-.54297.24219-.4961.30078-.41796.17188-.17579.18359-.14843.19922-.1211.20703-.08984.21875-.0586.23047-.01562m4.95312 0l.22657.01563.21875.05859.21093.08984.19532.1211.18359.14843.17188.17579.30078.41796.24218.4961.1836.54297.10937.58203.03906.58984-.03906.59375-.10937.58203-.1836.55469-.24218.5039-.30079.42579-.17187.17969-.1836.15625-.1953.12109-.21094.09375-.21875.05469-.22657.01953-.23046-.01953-.21875-.0547-.20704-.09374-.19921-.1211-.1836-.15625-.17187-.17968-.30079-.42578-.24218-.50391-.17969-.55469-.11328-.58203-.03906-.59375h.83593l.02735.5625.08203.50781.125.44141.16406.375.1914.30078.21094.22266.22266.13672.22656.04687.22657-.04687.22265-.13672.21094-.22266.1875-.30078.16406-.375.125-.4414.08203-.50782.03125-.5625-.03125-.5625-.08203-.5-.125-.4336-.16406-.36718-.1875-.29297-.21094-.21484-.22265-.1289-.22657-.04688-.22656.04687-.22265.1289-.21094.21485-.1914.29297-.16407.36719-.125.4336-.08203.5-.02735.5625h-.83593l.03906-.58985.11328-.58203.17969-.54297.24219-.4961.30078-.41796.17187-.17579.1836-.14843.19921-.1211.20704-.08984.21875-.0586.23046-.01562m4.94922 0l.39063.02734.35547.08204.32421.13671.28125.1875.22657.23438.17578.28906.10937.33203.03516.375-.01953.27344-.0586.23438-.08593.20312-.11328.16797-.12891.14453-.14063.1211-.28515.19921.23047.11719.21094.14844.17968.17187.15235.1914.125.21485.08984.23047.0586.24219.01952.25781-.03515.3086-.10547.32421-.17188.32813-.23828.30469-.30859.26953-.3711.21484-.21484.08203-.22656.0586-.2461.03906-.2578.01172-.26173-.01172-.24218-.03906-.22266-.0586-.20703-.08203-.35547-.21484-.29297-.26953-.22265-.3047-.15625-.32812-.09375-.32421-.03125-.3086h.83593l.02735.25.07812.23828.1211.21094.16015.1836.1914.15234.22267.11719.23828.0703.2539.02735.25781-.02734.23829-.07031.22265-.1172.1914-.15234.16017-.18359.12109-.21094.07812-.23828.02735-.25-.02735-.2539-.07812-.23438-.1211-.21484-.16015-.1836-.1914-.15234-.22266-.11328-.23829-.07422-.2578-.02344-.25391.02344-.23829.07422-.22265.11328-.1914.15234-.16016.1836-.1211.21484-.07812.23438-.02735.2539h-.83593l.01953-.2539.0586-.2422.08983-.22265.1211-.20703.15625-.1914.17969-.17188.21093-.15235.23047-.1328-.28515-.19923-.14063-.12109-.1289-.14453-.11329-.16797-.08593-.20313-.0586-.23437-.01953-.27344h.78516l.02344.21485.0664.1914.10156.16797.14063.13672.16406.11328.1875.08203.20703.05078.21875.01563.22266-.01563.20703-.05078.1875-.08203.16406-.11328.14063-.13672.10156-.16797.0664-.1914.02344-.21485-.02343-.21484-.06641-.1914-.10156-.16407-.14063-.14063-.16406-.11328-.1875-.07812-.20703-.05078-.22266-.01953-.21875.01953-.20703.05078-.1875.07812-.16406.11329-.14063.14062-.10156.16406-.0664.1914-.02344.21485h-.78516l.03516-.375.10937-.33203.17578-.28906.22657-.23438.28125-.1875.32421-.13671.35547-.08204.38672-.02734"/><path fill="#ffffe0" fill-rule="evenodd" d="M238.625 352.48438h22.17969v-10.19532H238.625v10.19531"/><path fill-rule="evenodd" d="M242.125 344.125h.50781v6.29297h-.78515v-4.48828h-1.39063v-.5586l.5625-.0625.25-.05468.23047-.08985.20313-.14062.17578-.21094.14062-.29297.10547-.39453m4.8125 0l.23047.01563.21875.05859.20703.08984.19531.11719.1875.15234.16797.17579.30469.41796.24219.4961.17968.54297.11328.58203.03516.58984-.03516.59375-.11328.58203-.17968.55469-.2422.5039-.30468.42579-.16797.17969-.1875.15234-.19531.125-.20703.09375-.21875.05469-.23047.01953-.23047-.01953-.21875-.0547-.20703-.09374-.19531-.125-.1836-.15235-.17187-.17968-.30078-.42578-.2461-.50391-.17968-.55469-.10938-.58203-.03906-.59375h.83203l.03125.5625.08203.50781.125.44141.16016.375.1914.30078.21094.22266.22266.13672.22656.04687.22656-.04687.22266-.13672.21094-.22266.1914-.30078.16406-.375.125-.4414.08204-.50782.02734-.5625-.02734-.5625-.08203-.5-.125-.4336-.16407-.36718-.1914-.29297-.21094-.21484-.22266-.1289-.22656-.04688-.22656.04687-.22266.1289-.21094.21485-.1914.29297-.16016.36719-.125.4336-.08203.5-.03125.5625h-.83203l.03906-.58985.10938-.58203.17968-.54297.2461-.4961.30078-.41796.17187-.17579.1836-.15234.19531-.11719.20703-.08984.21875-.0586.23047-.01562m4.95313 0l.23046.01563.21875.05859.20703.08984.19532.11719.1836.15234.17187.17579.30468.41796.2422.4961.17968.54297.10937.58203.03907.58984-.03907.59375-.10937.58203-.17969.55469-.24219.5039-.30468.42579-.17188.17969-.1836.15234-.1953.125-.20704.09375-.21875.05469-.23047.01953-.23046-.01953-.21875-.0547-.20703-.09374-.19532-.125-.1836-.15235-.17187-.17968-.30468-.42578-.2422-.50391-.17968-.55469-.10937-.58203-.03907-.59375h.83203l.03125.5625.07813.50781.1289.44141.16016.375.1914.30078.21095.22266.22265.13672.22656.04687.22657-.04687.22265-.13672.21094-.22266.1914-.30078.16016-.375.12891-.4414.08203-.50782.02734-.5625-.02734-.5625-.08203-.5-.1289-.4336-.16016-.36718-.1914-.29297-.21095-.21484-.22265-.1289-.22656-.04688-.22657.04687-.22265.1289-.21094.21485-.1914.29297-.16016.36719-.12891.4336-.07813.5-.03125.5625h-.83203l.03907-.58985.10937-.58203.17969-.54297.24219-.4961.30468-.41796.17188-.17579.1836-.15234.1953-.11719.20704-.08984.21875-.0586.23047-.01562m4.95312 0l.38672.02734.35937.08204.32032.13671.28125.1875.23046.23438.17188.28515.10938.33594.03906.375-.02344.27344-.05469.23438-.08984.20312-.10938.16797-.1289.14453-.14063.1211-.28906.19921.23438.11719.20703.14844.18359.17187.15234.1914.1211.21485.09375.23047.05469.24219.01953.25781-.03516.3086-.10156.32421-.17188.32813-.24219.30469-.30468.26953-.375.21484-.21094.08203-.23047.0586-.24219.03906-.26171.01172-.25782-.01172-.24219-.03906-.22656-.0586-.20312-.08203-.35938-.21484-.28906-.26953-.22266-.3047-.15625-.32812-.09375-.32421-.03125-.3086h.83203l.02735.25.07812.23828.1211.21094.16015.1836.19532.15234.21875.11719.24218.0703.25391.02735.2539-.02734.2422-.07031.21874-.1172.19141-.15234.16406-.18359.1211-.21094.07812-.23828.02735-.25-.02735-.2539-.07812-.23438-.1211-.21484-.16406-.1836-.1914-.15234-.21876-.11328-.24218-.07422-.25391-.02344-.2539.02344-.2422.07422-.21874.11328-.19532.15234-.16015.1836-.1211.21484-.07812.23438-.02734.2539h-.83204l.01953-.2539.0547-.2422.08984-.22265.125-.20703.15234-.1914.1836-.17188.20702-.15235.23047-.1328-.28515-.19923-.14063-.12109-.1289-.14453-.10938-.16797-.08984-.20313-.0586-.23437-.01953-.27344h.78906l.01954.21485.0664.1914.10547.16797.13672.13672.16406.11328.1875.08203.20703.05078.22266.01563.21875-.01563.20703-.05078.1914-.08203.16407-.11328.13672-.13672.10547-.16797.0625-.1914.02344-.21485-.02344-.21484-.0625-.1914-.10547-.16407-.13672-.14063-.16406-.11328-.1914-.07812-.20704-.05078-.21875-.01953-.22266.01953-.20703.05078-.1875.07812-.16406.11329-.13672.14062-.10547.16406-.0664.1914-.01953.21485h-.78907l.03906-.375.10938-.33594.17188-.28515.23046-.23438.27735-.1875.32422-.13671.35937-.08204.38672-.02734"/><path fill="#ffffe0" fill-rule="evenodd" d="M195.27734 353.86719h22.1797v-10.1914h-22.1797v10.1914"/><path fill-rule="evenodd" d="M198.77734 345.50781h.50782v6.29688H198.5v-4.49219h-1.39063v-.55469l.5625-.0625.25-.05469.23047-.08984.20313-.14062.17578-.21094.14063-.29297.10546-.39844m4.8125 0l.23047.01953.21875.0547.20703.08983.19922.1211.1836.15234.17187.17578.30078.41797.24219.49219.17969.54688.11328.57812.03906.59375-.03906.59375-.11328.58203-.17969.55469-.24219.5-.30078.42969-.17187.17968-.1836.15235-.19922.125-.20703.08984-.21875.0586-.23047.01953-.22656-.01954-.21875-.05859-.21094-.08984-.1953-.125-.1836-.15235-.17188-.17968-.30078-.4297-.24219-.5-.18359-.55468-.10938-.58203-.03906-.59375h.83203l.03125.5625.08203.5039.125.44532.16407.375.1875.30078.21094.21875.22265.13672.22656.04687.22657-.04687.22265-.13672.21094-.21875.1914-.30078.16407-.375.125-.44531.08203-.50391.02734-.5625-.02734-.5625-.08203-.5-.125-.4336-.16406-.36718-.19141-.29297-.21094-.21484-.22265-.12891-.22657-.04688-.22656.04688-.22266.1289-.21093.21485-.1875.29297-.16406.36719-.125.43359-.08204.5-.03125.5625h-.83203l.03906-.59375.10938-.57813.1836-.54687.24218-.49219.30078-.41797.17188-.17578.1836-.15234.1953-.1211.21094-.08984.21875-.05469.22656-.01953m4.95313 0l.23047.01953.21875.0547.20703.08983.19922.1211.1836.15234.17187.17578.30078.41797.24219.49219.17968.54688.11328.57812.03516.59375-.03516.59375-.11328.58203-.17969.55469-.24218.5-.30078.42969-.17188.17968-.1836.15235-.19921.125-.20703.08984-.21875.0586-.23047.01953-.22656-.01954-.22266-.05859-.20703-.08984-.19531-.125-.1836-.15235-.17187-.17968-.30078-.4297-.2461-.5-.17969-.55468-.10937-.58203-.03906-.59375h.83203l.03125.5625.08203.5039.125.44532.16016.375.1914.30078.21094.21875.22266.13672.22656.04687.22656-.04687.22266-.13672.21094-.21875.1914-.30078.16406-.375.125-.44531.08203-.50391.02735-.5625-.02734-.5625-.08204-.5-.125-.4336-.16406-.36718-.1914-.29297-.21094-.21484-.22266-.12891-.22656-.04688-.22656.04688-.22266.1289-.21094.21485-.1914.29297-.16016.36719-.125.43359-.08203.5-.03125.5625h-.83203l.03906-.59375.10938-.57813.17968-.54687.2461-.49219.30078-.41797.17187-.17578.1836-.15234.1953-.1211.20704-.08984.22266-.05469.22656-.01953m4.95312 0l.38672.02735.35938.08593.32422.13282.27734.1875.23047.23828.17187.28515.10938.33204.03906.3789-.01953.27344-.0586.23437-.08984.20313-.10937.16797-.1289.14453-.14063.1211-.28516.19921.23047.11719.20703.14453.1836.17188.15234.1953.125.21485.08984.22656.05469.2461.01953.2539-.03516.3125-.10156.32422-.17187.32422-.2422.3086-.30468.26953-.375.21484-.21094.07813-.22656.0625-.2461.03906-.26171.01172-.25781-.01172-.2422-.03906-.22265-.0625-.20703-.07813-.35937-.21484-.28907-.26954-.22265-.30859-.15625-.32422-.09375-.32422-.03125-.3125h.83203l.02734.25391.07813.23438.1211.21484.16405.1836.19141.15234.21875.11328.24219.07422.2539.02343.25391-.02343.24219-.07422.21875-.11328.19531-.15235.16016-.1836.12109-.21483.07813-.23438.02734-.2539-.02734-.25-.07813-.23829-.1211-.21094-.16015-.18359-.19531-.15234-.21875-.11719-.24219-.07031-.2539-.02735-.25391.02735-.24219.07031-.21875.11719-.1914.15234-.16407.1836-.1211.21093-.07812.23828-.02734.25h-.83203l.01953-.2539.05469-.23828.09375-.22266.12109-.21094.15234-.1875.1836-.17578.20703-.15234.23437-.1289-.28906-.19923-.14062-.1211-.12891-.14452-.10938-.16797-.08984-.20313-.05469-.23437-.02343-.27344h.78906l.02344.21485.0625.1914.10547.16406.13671.14063.16407.11328.1914.08203.20703.04688.21875.01953.22266-.01953.20703-.04688.1875-.08203.16406-.11328.13672-.14063.10547-.16406.0664-.1914.01954-.21485-.01953-.21484-.0664-.1914-.10548-.16798-.13672-.13672-.16406-.11328-.1875-.08203-.20703-.05078-.22266-.01563-.21875.01563-.20703.05078-.1914.08203-.16407.11328-.13672.13672-.10546.16797-.0625.1914-.02344.21485h-.78906l.03906-.3789.10937-.33204.17188-.28515.23047-.23828.28125-.1875.32031-.13282.35938-.08593.38671-.02735"/></g></defs><use xlink:href="#W"/></svg>