<svg xmlns="http://www.w3.org/2000/svg" role="img" xmlns:xlink="http://www.w3.org/1999/xlink" viewBox="142.45 309.95 326.84 171.84"><defs><clipPath id="a"><path d="M144 311.67188h1v168.65625h-1zm0 0"/></clipPath><clipPath id="b"><path d="M144 311.67188h324v168.65625H144zm0 0"/></clipPath><clipPath id="c"><path d="M467 311.67188h1v168.65625h-1zm0 0"/></clipPath><clipPath id="d"><path d="M144 478h4v2.32813h-4zm0 0"/></clipPath><clipPath id="e"><path d="M146 480h1v.32813h-1zm0 0"/></clipPath><clipPath id="f"><path d="M153 478h8v2.32813h-8zm0 0"/></clipPath><clipPath id="g"><path d="M159 480h2v.32813h-2zm0 0"/></clipPath><clipPath id="h"><path d="M167 478h8v2.32813h-8zm0 0"/></clipPath><clipPath id="i"><path d="M180 479h8v1.32813h-8zm0 0"/></clipPath><clipPath id="j"><path d="M193 479h8v1.32813h-8zm0 0"/></clipPath><clipPath id="k"><path d="M200 480h2v.32813h-2zm0 0"/></clipPath><clipPath id="l"><path d="M206 479h9v1.32813h-9zm0 0"/></clipPath><clipPath id="m"><path d="M213 480h3v.32813h-3zm0 0"/></clipPath><clipPath id="n"><path d="M220 479h8v1.32813h-8zm0 0"/></clipPath><clipPath id="o"><path d="M227 480h2v.32813h-2zm0 0"/></clipPath><clipPath id="p"><path d="M233 479h8v1.32813h-8zm0 0"/></clipPath><clipPath id="q"><path d="M240 480h2v.32813h-2zm0 0"/></clipPath><clipPath id="r"><path d="M246 479h9v1.32813h-9zm0 0"/></clipPath><clipPath id="s"><path d="M252 480h2v.32813h-2zm0 0"/></clipPath><clipPath id="t"><path d="M260 479h8v1.32813h-8zm0 0"/></clipPath><clipPath id="u"><path d="M265 480h2v.32813h-2zm0 0"/></clipPath><clipPath id="v"><path d="M273 478h8v2.32813h-8zm0 0"/></clipPath><clipPath id="w"><path d="M286 478h8v2.32813h-8zm0 0"/></clipPath><clipPath id="x"><path d="M292 480h2v.32813h-2zm0 0"/></clipPath><clipPath id="y"><path d="M300 479h8v1.32813h-8zm0 0"/></clipPath><clipPath id="z"><path d="M307 480h2v.32813h-2zm0 0"/></clipPath><clipPath id="A"><path d="M313 479h8v1.32813h-8zm0 0"/></clipPath><clipPath id="B"><path d="M320 479h3v1.32813h-3zm0 0"/></clipPath><clipPath id="C"><path d="M326 479h9v1.32813h-9zm0 0"/></clipPath><clipPath id="D"><path d="M333 480h3v.32813h-3zm0 0"/></clipPath><clipPath id="E"><path d="M339 479h9v1.32813h-9zm0 0"/></clipPath><clipPath id="F"><path d="M346 480h3v.32813h-3zm0 0"/></clipPath><clipPath id="G"><path d="M353 479h8v1.32813h-8zm0 0"/></clipPath><clipPath id="H"><path d="M366 478h8v2.32813h-8zm0 0"/></clipPath><clipPath id="I"><path d="M380 477h7v3.32813h-7zm0 0"/></clipPath><clipPath id="J"><path d="M393 478h8v2.32813h-8zm0 0"/></clipPath><clipPath id="K"><path d="M407 478h7v2.32813h-7zm0 0"/></clipPath><clipPath id="L"><path d="M420 478h8v2.32813h-8zm0 0"/></clipPath><clipPath id="M"><path d="M425 480h2v.32813h-2zm0 0"/></clipPath><clipPath id="N"><path d="M433 478h8v2.32813h-8zm0 0"/></clipPath><clipPath id="O"><path d="M446 478h8v2.32813h-8zm0 0"/></clipPath><clipPath id="P"><path d="M459 479h9v1.32813h-9zm0 0"/></clipPath><clipPath id="Q"><path d="M465 480h2v.32813h-2zm0 0"/></clipPath><clipPath id="R"><path d="M144 465h4v4h-4zm0 0"/></clipPath><clipPath id="S"><path d="M144 452h4v3h-4zm0 0"/></clipPath><clipPath id="T"><path d="M144 439h4v3h-4zm0 0"/></clipPath><clipPath id="U"><path d="M144 425h4v4h-4zm0 0"/></clipPath><clipPath id="V"><path d="M144 413h4v2h-4zm0 0"/></clipPath><clipPath id="W"><path d="M144 398h4v5h-4zm0 0"/></clipPath><clipPath id="X"><path d="M144 385h4v5h-4zm0 0"/></clipPath><clipPath id="Y"><path d="M144 370h3v7h-3zm0 0"/></clipPath><clipPath id="Z"><path d="M144 357h3v7h-3zm0 0"/></clipPath><clipPath id="aa"><path d="M144 344h3v6h-3zm0 0"/></clipPath><clipPath id="ab"><path d="M144 333h4v2h-4zm0 0"/></clipPath><clipPath id="ac"><path d="M466 333h2v4h-2zm0 0"/></clipPath><clipPath id="ad"><path d="M144 320h4v1h-4zm0 0"/></clipPath><clipPath id="ae"><path d="M466 319h2v3h-2zm0 0"/></clipPath><g id="af" clip-path="url(#clip1)"><path fill="#fff" fill-opacity="0" fill-rule="evenodd" d="M0 0h1000v1000H0zm0 0"/><path fill="#d3d3d3" fill-opacity="0" fill-rule="evenodd" d="M162.15234 355.86719l-.23437.29297.0586.23437.11718.17188.17578.23437.29297.34766.11328.0586.11719-.17188.0586-.23438.17577-.17578.46485-.17578h.69922l.23437.29297.28906.8164.0586.17579.17578.23046.35156.23438.69922.69922.17188.17578.23437.34765.23438.41016.28906.58203.41015.46485.23047.23437.23438.17578.11719.23047.17578.29297.17187 1.16406v.23438l.0586.28906.05859.11719.11719.11719.34765.41015.11719.17188.17578.17578.17578.23437.11719.17188.17188.35156.05859.23438.23437.40625.23438-.0586-.17578.17578-.0586.92969h-.58203l-.23437-.11328-.34766.11328-.11719.11719-.05859.29297-.0586.17578-.11718.17187-.46484.29297-.0586.23438-.0586.11328v.64453l.0586.17187v.41016l.0586.0586v.40624l.05859.40625.11719.17579.05859.05859.23047.64062-.0586.29297v.69922l-.05859.58203v.23438l-.0586.23047-.05468.35156v1.92187l.05469.1172h.42578l-.36719.11718-.02344.35156.89063 1.16797 1.74219.53906 1.33984.35938v.53906l.08984.8086.53516.71484 1.51953.26953.89063-.08594.08984 1.16406.53516.1797 1.16015-.1797 2.05469-.98437 1.16016-.36328 1.8789-.17578 1.69531-.1797-.17968.71876-1.51563.08594-1.25.08984-.80469.26953-1.07421.8086.26953.71875.53515.89843-.17968.625-.26563.8086.26563 1.07812.625.89844.80468.17969 1.25-.1797-.26562.72267.09766.5039.05468.29297v.17188l.0586.29296v.40625l.17578.1172.35156.11718h.40625l.29297-.17578.11328-.11719.0586-.11719.11718-.23047.0586-.17578.35156-.46484.23047-.17578.17578-.0586.17578.0586.0586.17578.11718.98828.05469.46875.0586.17188.11718.23437.17578.0586.8164.05859h.28907l.11719.23437.05859.40625.0586.35156v1.10547l.11718.29297.11719.34766.28906.69922.17578.35156.58203.7539.35157.17579.17187.0586.46875.23437.64063.46484.34765.23438.29297.17578.29297.05468.23047.0625.8164.34766.29297.17578.11328.17188.35157.35156.11719.17578.52343.64063v.28906l.0586.35156v.34766l.05859.35156.0586.28906.11718.0586.17188.05859h.17578l.58203.23437.17578.1172.17578.28905.17578.23438.11328.23437.29297.23047.11719.11719v.41016l.0586.05468.28906.23438.23437.11719.0586.11718.11718.17188.0586.11719.23047.23437.05859.17578.23437.0586.1172.05859-.1172.11328-.05859.11719v.11719l-.11719.29296-.11719.28907v.58203l.17579.11719.11718.05859.0586.11719.11719.11719.11328.05859.17578.34765.0586.35157.05858.40625v.17578l-.05859.17578-.11719.69922v.17187l.1172.17579.29296.29296h.40625l.17578.1172.11719.17187.11719.29296v.23438h-.52735l-.23047-.23438h-.23437l-.17578.0586-.0586.69922.0586.34765.11719.17579.17578.41015.11718.23047.28907.46875.17578.05469h.52344l.23437.0586.75781.64062.0586.29296v.23438l.05859.0586.23047.34765v.35156l-.11719.17188v.29297l.29297.28906.29297.17578.17187.0586.29297.17577.29297.1172.58203.40624.28906.23438.29297.17578.21875.16015.01563.01172.23047.17579.64062.52343.17578.23438.1172.17578.17577.17578.11328.17188v.64062l.1172.17578.46874.11719.58203.11719.23438.05859.23047.11328.29297.11719.11328.0586.58593.35156.28907.17187.17578.0625.17578.05469.17578.0586.69922.35155.28906.17579.23438.05468.28906.17578.23437.1172.64063.40624.29297.11719.17187.0586.23438.05859.41015.05859.23047.0586.23438.11718.0586.17188-.41017.17578.46875.0586.0586.29296.11328.23438.17578.05468.23438.0586.17578.05859.40625.11719.64062.23437.11719.17188.0586.23437v.17578l-.0586.1172-.0586.40624.23438.23438.11719.05859.34766.11719.64062.23047.17578.11718.28906.1172.17578.17577.23438.46485.58203 1.10546.17578.17579.34766.17578.17578.11719.35156.11718 1.04688.52344.23437.0586.46485.11327.29297.0586.46484.17578.75781.58203.23438.23438.34765.46484.17578.17578.28907.23438.8164.69921.29297.17579.28906.28906.29297.17578.29297.28906.69531.64063.17578.17578.29297.23437.28907.23438.46875.28906.64062.58203.34766.23438.23437.29297.34766.34765.35156.46485.9336.99218.34765.40625.11719.17579.23437.05859.11328.11719.64454.17578.23047.11328.23437.0586.29297.17577.23047.1172.9336.69921.40624.40625.23438.17578.40625.17578.23437.11719.8164.34766.34766.23437.23438.11719.29297.28906.23047.11719.7578.35156.35157.17188.23047.05859.29297.11719.23437.0586.8711.17577h.8164l.46875.23047.17188.0586.875.69921.46484.1172.29297.05858.17578.0586.23047.0586.46875.05859.34766.05859.35156.0586.40625.05859h.29297l.17187.0586v.23046l.17578.17578h.29297l.34766.0586.35156.05859.69922.11719h.64063l.46484-.23438.29297-.17578.17187-.11719.41016-.17187.28906-.17578.9336-.46485.46875-.29297.52343-.29296.46485-.17188.46484-.17578 1.05078-.46485.28906-.11718.41016-.11719.28906-.11719.52735-.17578 1.51562-.69922.58203-.34765.28907-.0586.29297-.0586.34765-.11718.875-.23047.35156-.11719h.11329l.23437-.05859.875-.23437.23438-.0586h.8125l.35156-.0586.8164-.11718.17188-.0586.35156-.05468.29297-.0586.23047-.05859.8164-.17578.17579-.0586h.34765l.23438-.05859.46484-.11718.75781-.17188.23438-.0586h.34765l.41016-.11718.28906-.0586 1.28516-.05859h.28906l.41016-.0586.23047-.05858h.17578l.875-.1172h.40625l.41015-.11718h.34766l.35156-.11328.8711-.0586h1.75l1.04687.28907.41016.11719.28906.11718.35156.11719.28907.11719 1.05078.17187.28906.0586h.29297l.29297.05859.17187.0586.41016.05859.17187.0586.1172.05858h.11718l.11719.0586.35156.0586h.11328l.41016.0664 1.92187.39453 1.92578.39453 1.51953.44922 1.69532.71875 2.14453.80469 1.60547-.71875 1.42968-.80469 1.16016-1.07813 1.25-.44921 3.03516-.71875 1.875-.35938 2.14453-1.34765 2.23437-1.25391 2.5-1.25781 1.69531-.44922 1.78516-.17969 1.16016-.26953.625.53906 1.33984-.26953.71485-.98828.98437-1.34375.44531-.17969.80469-.35937 1.875-.53907 1.78516-.44921 1.25-.26954 1.16015-.08984 1.69922-.08984 1.96094-.26954 1.25-.08984h.53906l.625-.08984h.89063l2.14453-.17969 2.41015-.17969 2.58985-.08984 1.69531.17969 1.60938.08984 1.42968.35938 1.16016.71875 1.875.98828 1.16015 1.52734.26563.71484.6289.08985.35548.89844.53515.53906.53516 1.52734 1.07422.35938h.53515l-.80469.53515.08985 1.70703.71484 2.69532.89063.80468.89453.98829.71484 1.2578 1.78516.53907 1.51953-.17969.35547 1.34375 1.60937-.80469.98047-.53906.26953.26953.31641-.21484.21875-.14453.80078.44922.44922-.35938h.35547l.53515-.26953.53907-.71875.53515-.26953.625-.98828 1.16016.44922.83984.3711 1.39454.61718 1.6953-.17969h1.60548l1.78515.08985.17969-1.70704.53516-1.34375.80468.26954.4922.84765.40233.40625-.08984.53906v.35938l.71485.44922.71093-.26953h1.42969l.35938.98828.4453 1.25781.71485 1.34375 1.25.6289 1.69531.62891.71485-.17969.17969-.53906.98046-.08984.44922.35937.08594 1.25782-.26563.6289-.53515.17969v.53906l.71484.98438.26563.53906.98437.98828.80078 1.07813-.26562.35937-.08985.89844-.625 2.33203-.35546 2.0664-.08985 1.79298-.17969.71875-.08984.53906v1.4375l-.98047 1.88281-.35937 1.70703-.53516.89844-.80469 1.16797-.26562.53906 2.05469 1.2539.08593.35938-.35546.53906-.08985-.17968v.80859l.08985 1.4375-.44532.71484-1.07422.09375-.26562.71485.53515.89844.8047.71875 1.16015.80859 1.33984.26953.44531.35938-.35546.44921-1.78907-.08984-1.25-.44922-.71484-.71875-.625-.08984-.17578 3.58984-.1875 1.3086h89.35937V311.70313h-55.26953v49.08203l.76172.125 3.28906.54296 2.02344 2.83594v2.7539l2.35156.33204 2.34766.33203h4.05078l-1.3789 4.16016-2.02344.70703-2.02344.70312-.54297.34375-2.59375 1.6172-.1875.11718-2.02344-2.07813-.73046-2.74218-2.67188-2.07813-1.375-3.5-.0664-.08203-1.95704-2.67188 2.75-1.41796v-49.08204H294.42187v91.41407l.1172.03125.1328.01172.07422.07421.10547.04688.08985.0586.08593.05859.08985.0586.29687.29687.0586.08984.03125.11719.02734.11719.01563.13671-.03125.1172-.0586.08983-.0586.08594-.04296.10547-.04688.10156-.02734.1211v.14453l.17578.26953.14844.14844.07422.08594.07422.07421.04296.10547.0625.08985.0586.08593.04297.10547.0586.08985.04687.10156.04296.10547.0586.08594.11719.17968.07421.07422.0625.08594.0586.08984.04297.10547.0586.08985.05858.08593.0625.08985.0586.08984.04297.10156.11719.17969.07421.07422.0586.08594.07422.07421.08984.0586.10547.04687h.14844l.1328-.01562.13282.01562.10156-.04687.07422-.07422.04688-.10156-.01563-.13281v-.14844l-.04687-.10547-.02735-.11719-.04687-.10156-.02735-.1211-.04296-.10156-.0625-.08984-.04297-.10156-.04297-.10547-.03125-.11719-.01563-.13281-.01171-.13672.08593-.0586.0586-.08593.12109-.03125.04297.10547.01562.1328v.1172l.0586.10156.0586.08984.08983.0586.14844.14843.0586.08985.04296.10547-.01171.10156.08593.0586.10547.04687.08594.0586.08984.05858.07422.07422-.11719.02735-.10546.04687-.08594.0586-.07422.07421-.0586.08985-.0625.08594-.02734.12109-.04687.10156-.04297.10547-.03125.11719-.01172.13281-.01563.13281v.14844l.02735.11719.04687.10547.04297.10156.0586.08984.07421.07422.08985.0586.07422.07421.08984.0586.0586.08984.04296.10547.04688.10156.11719.03125.1328.01563h.14845l.11718-.03125.10547.04297.04297.10547.04688.10156.02734.1211L299.5 410l.02734.11719.03125.1211.02735.11718.10547.04297.10156.04687.13281-.01562.14844.14844.0625.08593.07422.07422.07031.07422.08984.0625.10547.04297.10156.04297.1172.03125.13671.01562.11719-.03125.07422-.07422.02734-.11718-.01172-.13282-.03125-.12109-.02734-.11719.04297-.10547h.11719l.08984.0625.11719.02735h.14843l.13282.01562h.14843l.13282.01563.1328-.01563h.14845l.1328-.01562.13282-.01172.13672.01172.11719-.02735.13281-.01562.1914-.0586-.05859.17579-.01562.1328-.02735.1211-.01562.13281-.0586.08594-.1328.01563-.10548.04687-.10546.04297-.1172.03125-.11718.02735-.26563.03125h-.14843l-.13281.01562-.07422.07422.05859.08594.14844.14843.11719.1797.07421.0703.08985.0625.08984.0586.08594.0586.08984.05858.10156.04297.10547.0625.10547.04297.08594.0586.10547.04687.10156.04297.17969.11719.0586.08984-.04298.10156-.04687.10547.01562.13281.22266.22266.0586.08985.04296.10156.03125.1211.04297.10155.01563.13282.03125.11718.01171.13672.03125.11719.14844.14844.10156.04297.10547.04296.1172.03125.1328.01563.13672.01563h.11719l.11719-.03125.08984-.0586.04297-.10547.04688-.10156.04296-.10547.03125-.11719.01172-.1328v-.14845l-.01172-.1328-.01562-.13282-.03125-.11719-.04297-.10547-.04688-.10547-.04296-.10156-.04297-.10547-.01563-.13281.01563-.13281.02734-.11719.03125-.11719.02735-.1211.04687-.10155.08984-.0586.08594-.0625.07422-.07422.08984-.05859.22266-.22266.0586-.08593.07421-.07422.11719-.17969.0586-.08594v-.14844l-.07423-.07421-.10156-.04688-.10547-.04297-.10156-.04297-.0586-.08984-.04687-.10547-.02734-.11719.08984-.05859.11719-.03125.10156-.04297.17969-.11719.14844-.14843.01172-.13282-.01172-.10546-.08985-.0586-.1328.01563h-.14845l-.1328.01562-.13282-.01562-.1211-.03125-.08593-.0586-.07422-.07422-.0586-.08984-.0625-.08594-.11718-.17969-.0586-.08593.03125-.1211.08594-.05859.1211-.03125.05859-.08594v-.1211l-.03125-.11718-.0586-.08984-.05859-.08594-.04687-.10547-.02735-.11719-.01562-.1328.0586-.08985.07421-.07422.08984-.0586.1172-.17968.07421-.07422.0586-.08594.14843-.14844.1211-.03125.1328-.01562.13282.01562.07422.07422.04297.10547.01562.13281-.03125.1172-.11719.03124-.1328.01172-.14844.14844-.04297.10547-.04688.10156-.02734.1211-.03125.11718v.14844l.03125.11719.04297.10546.05859.08985.07422.07031.07422.07422.11719.03125.12109.02734.11719-.02734.1328-.01563h.1172l.08984.0586.07422.07422.04687.10546.0586.08594.10156.04688.13281.01562.10547.04297.08594.0586-.01172.10546-.07422.07422-.17969.11719-.05859.08984-.08984.0586-.07032.07422-.07421.07421-.0625.08985-.02735.11719-.01562.1328.01562.13282-.01562.13281v.14844l.01562.13281.02735.1172.03125.12108.07421.07422.08985.0586.08594.0586.08984.05858.11719.03125v.08594l-.10157.04688-.08984.0586-.26563.03124-.11718.02735h-.14844l-.10547.04296-.10156.04688-.0586.08984-.0625.23438-.01171.13281-.03125.1211-.01563.1328v.29298l-.01172.1328.01172.13673.01563.1328.1328.01563.13282.01172.1211.03125.08593.0586.07422.07421.04688.10547.04296.10157.01563.1328v.44532l-.01563.13281v.44532l.03125.26562.02735.11719.01562.13281.03125.11719.08594.21094.03125.26562v.14844l-.03125.11719-.02734.11718-.03125.1211-.02735.11719-.03125.11718-.03125.1211-.01171.1328-.01563.13282.08984.0586.1172-.03125.10155.01562.04688.10547-.03125.26562v.44141l-.04297.10547-.04688.10547-.04296.10156-.04297.10547-.0586.08594-.03125.12109-.04296.11719-.03125.11719-.01563.1328.01563.13282.05859.08984.10547.04688.08594.0586.05859.08593-.01172.13672-.03125.11719-.04297.10156v.44531l-.01562.13281v.14844l-.03125.11719-.04297.10547-.02735.11719-.04687.10546-.04297.10157-.03125.12109-.02734.11719-.03125.13281-.03125.11719-.02735.11719-.04297.10546-.03125.1172-.03125.12108-.01171.13282-.01563.13281v.29688l.02734.11718v.14844l.04688.39844.02734.11719.0586.08984.12109.03125h.14844l.13281-.01563.0586.08985v.11719l-.0586.08984-.08984.0586-.10157.04296-.10546.04688-.08985.05859-.08594.0586-.13671.01562-.1172-.03125-.1328-.01563-.10157.04688-.0625.08594-.01172.13671-.01562.13282-.03125.11719-.02735.11718-.01562.13281-.03125.1211v.29687l.01563.13282.03125.11718v.14844l.01171.13281v.14844l-.02734.11719-.04688.10156-.02734.1211-.03125.11718-.0586.08985-.07421.07421-.10156.04297-.10547.04688-.11719.02734-.1211.03125-.10156-.04687.0586-.08594.10547-.04688.02734-.11718.03125-.11719.02734-.1211.03125-.11718v-.14844l.01563-.13281-.03125-.11719-.04297-.10547-.10547.01563-.07422.07422-.10156.04296-.08984.0625-.07422.07422-.04297.10157-.01563.1328-.03125.1172L304.25 426l-.03125.11719-.02734.11719-.03125.12109-.02735.11719-.03125.11718-.04297.10547-.08984.0586h-.08984l-.1172-.03125-.03124-.08594.01562-.13672-.03125-.11719v-.14844l-.01171-.1328v-.14844l-.0625-.23438-.02735-.1211-.04297-.10156-.04687-.10546-.0586-.08594-.05859-.08985-.04297-.10546-.0625-.08594-.14844-.14844-.0703-.07422-.10548-.04687-.10547-.04297-.10156-.04297-.29687-.29688-.08985-.07421-.08594-.0586-.10546-.04297-.08985-.0625-.08594-.0586-.10546-.04296-.08985-.0586-.08594-.0625-.07421-.0703-.10547-.04688-.08594-.0586-.10547-.04296-.08984-.0625-.10156-.04297-.10547-.04297-.08594-.0586-.10547-.04687-.10547-.04297-.10156-.04687-.08985-.0586-.10156-.04297-.10547-.04296-.08984-.0625-.11719-.02735-.13281-.01562-.13281.01562H299.75l-.13281.01563-.11719-.03125-.08984-.0586-.07422-.07422-.08985-.05859-.10156-.04688h-.14844l-.12109-.02734-.10156-.04297-.07422-.07422-.11719-.17968-.08984-.0586-.10156-.04297-.08985-.0625-.10547-.04296-.08984-.0586-.08594-.0586-.10547-.04687-.0586-.08594-.05858-.08984-.04297-.10547-.04688-.10156-.07422-.07422-.08594-.0586-.07421-.07421-.08985-.0586-.22265-.22265-.04297-.10547-.03125-.26563.10547-.04296h.14453l.10547.04296.07421.07422.08985.0586.08594.0586.10546.04687.08985.05859.14844.14844.0703.07422.14845.14843.0625.08594.07421.07422.08594.0586.07422.07421.08985.0625.08984.0586.08594.05859.26953.17578.10156.04688.10547.04296.10156.04297.04688-.07421.05859-.08594.07422-.07422.07031-.07422.10547.04297.07422.07422.0586.08984.04296.10156.04688.10547.04296.10547.1211.02735.11719-.02735.07421-.08984.04297-.10547.0586-.08985.07422-.07421.10546-.04297.1172-.02735.1328.01172.08985.0586.14844.14843.05859.08985.04297.10547.04687.10156.04297.10547.04297.10156.10547.04688.10547.04296.13281.01563.08594-.0586.0586-.08984.07421-.07422.10547-.04297.11719.02735.10547.04687.10156.04297.10547.04297.10156.04688.17969.11718v.11719l-.01563.13281.01563.13281.01562.13672.0586.08594.10156.04688.1211.02734.11718.03125h.14844l.11719-.03125.05859-.08984.17969-.1172.05859-.08983.07422-.07422.0586-.08594.11718-.17969.17969-.11719.11719.03125.08984.0586.04297.07422-.01563.1328v.1172l.08985.05859h.14843l.13282-.01563.1328-.01171.26563-.03125.10547-.04297.11719-.03125.1211-.02735.07421-.07421.07031-.07422.0625-.08985-.01562-.10547-.04688-.10156-.10156-.04297-.10547-.01562-.11718.02734-.26563.03125h-.14844l-.07421-.07422-.08985-.0586-.11719-.03124-.11718-.02735-.13282-.01562h-.14843l-.13282.01563h-.29687l-.10547-.04688-.14844-.14844-.04297-.10156-.05859-.08984.22266-.22266.08593-.0586.10547-.04296.11719-.03125.13281-.01563.13281.01563.13672.01562.10157.04297.1328-.01172.08985-.0625.10156-.04297.0625-.08984-.04687-.10156-.08984-.0586-.1172-.03125-.10155-.04296-.0586-.08985-.0625-.08984v-.11719l.01563-.13281.10547-.04688.07421-.07031v-.1211l-.08984-.05859-.03125-.11719.08985-.05859.07421-.07422.04297-.10547.0586-.08984.04687-.10156.01563-.13281v-.14844l-.04688-.10547-.04297-.10156-.08984-.0586-.13281-.01562-.10157-.04297-.13671-.01563-.1172-.03125h-.4453l-.13282-.01562-.13281-.01172-.13281-.01563-.11719-.03125h-.14844l-.13281-.01562-.13281-.01172-.26563-.03125-.1211-.04297-.08593-.0586-.07422-.07421v-.14844l.01172-.13281.10547-.04688.10156-.04296.13281-.01563h.15235l.13281-.01562h.29297l.1211.03125.10156.04296.08984.0586.23438.0625.12109-.04688.08984-.05859.10156-.04297.13282-.01562.10547.04296.10156.04688.13281.01172.1211-.02735h.14453l.12109-.03125.11719-.02734.10547-.04687.07421-.07422.08594-.0586.14844-.14843.0586-.08594.04687-.10547.02734-.11719.01563-.10547-.10156-.04296-.08985-.0586-.11719-.03125-.10546-.04297-.08985-.0625-.07422-.08594-.07422-.07421-.10156-.04297-.10547-.04688-.10156-.04297-.0586-.08984-.04687-.10156-.08594-.21094-.0625-.08594-.05859-.08984-.07422-.07422-.08594-.0586h-.26953l-.11719.03126-.08984.05859-.10156.04297-.13281.01562-.10547-.01562-.02735-.11719-.0625-.08984-.11718-.03125-.10157-.04297-.14843-.14844-.03125-.11719-.01563-.10546.07422-.07422.17969-.1172.11719-.02733.11718-.03125.13672.01562.10156.04297.10547.04297.10156.04687.10547.04297.1172.03125.1328.01563.1172.02734.1328.01563.10547-.01563.08985-.0586-.07422-.07421-.10547-.04297-.07422-.07422-.07422-.08984-.14844-.14844-.08593-.0586-.08985-.05859-.07422-.07422-.08984-.0586-.10156-.04687-.1211-.02734-.10156-.04688-.10547-.04296-.11719-.03125-.10156-.04297-.1211-.03125h-.14843l-.11719.03125-.10546.04297-.08594.0625-.17969.11718-.08594.0586-.08984.0586-.10547.04687-.08594.05859-.10547.04297-.10156.04297-.10547.04687-.07422.07422-.05859.08985-.0586.08593-.04687.10547-.0586.08594-.07421.07422-.13281-.01172-.1172-.03125h-.11718l-.07422.07422-.08984.0586-.07422.07421-.08984.0586-.08594.05859-.10547.04687-.10156.04297-.13672.01563-.10156-.04297-.14844-.14844-.10547-.04688h-.08594l-.10547.04688-.10156.04297-.1211.03125-.11718-.03125-.07422-.07422v-.11719l.03125-.1211.07422-.0703.0586-.08985.07421-.07422.11719-.03125.10547-.04296h.29297l.13281-.01563.13672-.01563.10156-.04296.08985-.0586.10156-.04687.08984-.0586.13281-.01171.08985.05859.13281.01172.08984-.0586.08594-.05859.10547-.04297.08984-.0586.08594-.0625.08985-.05859.14843-.14843.0586-.08594.05859-.08985.10547-.04296.13281-.01563.11719.02735.1211.03125.05859-.0586.05859-.08984.03125-.26563.02734-.11719.10547.01172.13281.01563.10157-.04297.08984-.0586.0586-.08984.07421-.07422.0586-.08984.04687-.10156.01172-.13281-.01172-.13282-.04687-.10547-.14844-.14843-.0586-.08985-.05859-.08594-.04297-.10546v-.44532l.01563-.1328v-.14845l.01172-.1328-.0586-.0586-.08984.0586-.10156-.04298-.17969-.11719-.08594-.05859-.0625-.08984-.0586-.08985-.07421-.07421-.08594-.0586-.1211.03125-.10155.01172-.10547.04688-.08594.05859-.10547.04297-.14844.14844-.08984.05859-.08594.0586-.08984.0625-.10547.04296-.13281.01563v-.1211l.10547-.04297.11718-.03125.07422-.0703.04297-.10548v-.14844l-.02734-.11718-.14844-.14844-.13281-.01563h-.14844l-.11719.03125-.10547.04297-.10156.04297-.08984.0625-.11719.02735-.07422-.07422.01172-.13281-.04297-.10157-.04297-.10547-.08984-.05859-.11719.02734-.1211.03125-.11718.03125-.10156.04297-.1211.03125-.10156.04297-.10547.04297-.08984.0586-.10156.01562v-.11719l.01562-.13281-.0586-.08985-.07421.04297-.14844.14844-.0586.08985-.07421.07421-.04688.10547-.04296.10156-.07422.07422-.0586.08985-.07422.07422-.05859.08593-.07422.07422-.08984.0625-.07422.07031-.07422.07422-.10156.01563-.13281.01562-.10547-.04296v-.1211l.14843-.14844.04297-.10156.0586-.08984.04687-.10156.04297-.10547.0586-.08985.03124-.11719.04297-.10156.03125-.1211.02735-.11718.04687-.10547.04297-.10156.04297-.10547.07422-.07031.08984-.0625.08985-.0586.10156-.04296h.29687l.26563-.03125.10547-.04297-.07422-.07422-.11719-.03125-.10547-.04297-.08984-.0586-.10156-.04687-.08985-.0586-.10156-.04296-.10547-.04297-.08984-.0625-.08594-.0586-.10547-.04296-.10156-.04297-.1211-.03125-.11718-.03125-.10157-.04297L297.5 410.25l-.10156-.04297-.08985-.0586-.04296-.10546-.01563-.13281.10156-.04297.13281-.01563.13672.01563.13282-.01563.10156-.04297.0586-.08984.01562-.10547-.08985-.0586-.07421-.07421-.10157-.04297-.08984-.0586-.14844-.14843-.04297-.10547-.01562-.13281v-.29297l-.0586-.08985-.08984-.05859-.07422-.07422-.04297-.10547-.03125-.11718-.0586-.08985-.07421-.07422-.11719-.02734-.07422-.07422-.08984-.0586-.08984-.0625-.08594-.05859-.07422-.07421-.0586-.08594-.04687-.10547-.08594-.0586-.14843-.14843-.19532-.0586-.1328.01563-.10157.04297-.07422.07422-.04688.10156-.04296.10547-.0586.08984-.0586.08594-.29687.29687-.08984.0586h-.08594l-.0625-.08594-.04297-.10547.03125-.11719.0586-.08984.02734-.11719-.01172-.13281-.08984-.0625-.10547.04688-.11719.02734-.11719.03125-.26953.17578-.10156.04688-.11719.02734-.10546.04687-.08985.0586-.10156.04297-.0586-.08594-.04687-.10547.01563-.13281.04687-.10547.07031-.07422.07422-.07031.0586-.08985v-.14843l-.04297-.10547h-.23829l-.10156.04687-.03125.11719-.02734.11719-.03125.1211-.07422.04296-.13281.01563-.07422-.04688-.04297-.10156-.04297-.10547-.04687-.10156-.04297-.10547-.1211.03125-.10156.04297-.13281.01562-.11719.03125-.10547.04297-.08984.0586-.10156.04687-.1211.02734-.13281.01563-.10156-.04297-.0586-.08985-.04687-.10546-.04297-.10157-.04297-.10546v-.1172l.0586-.08984.08593-.05859.17969-.11719.10156-.04687.10547-.04297.10547-.0586.10156-.04296.08985-.0625.10156-.04297.10547-.0586.10156-.04687.08984-.0586.10547-.04296.10156-.04297.08985-.0625.10156-.04297.13672-.01563.11719.03125.10156.04297.1211.03125.10156.04297.10546.04688.10157.04296.10547.04297.10156.04688.10547.04297.10156.04297.10547.04687.08594.0586.10546.04296.1172.03125.10546.04297.10156.04688.08985.0586.10547.04296.10156.04297.10547.04687.11719.02735.10156.04687.1211.02735h.14843l.08594-.0586.01562-.10156.0586-.08984-.02735-.1172-.07422-.07421-.11719-.17969-.07421-.07422-.08985-.07421-.17969-.1172-.08593-.05859-.10547-.04296-.10156-.04688-.26954-.17578-.05859-.08985-.07422-.07421-.0586-.08985-.04296-.10156-.03125-.11719-.01563-.13672v-.5625l-.01171-.1328-.01563-.13282-.03125-.11719-.01562-.13281-.01172-.13281-.03125-.1211-.22266-.22265-.0586-.08594-.01562-.10547.03125-.11719.13281-.01562v-91.41406H172.9922v1.45312l-.0586.23438-.35156 1.05078-.17187.52343-.1172.34766-.17577.41016-.11719.17187-.23438.29297-.23046.0586h-.35157l-.11718.05859-.23047.40625v.29297l.11719.17578.23046.23047.1172.23437.64062.75781.29297.46485.17578.23437.23047.35156.23437.34766.64063.8164.17578.46485.17187.41016.11719.69531.17578.46875.11719 1.39844.0586.46484v.875l.11718 1.04688v4.78125l-.0586.46484-.35156 1.28125-.17578.52344-.11328.41015-.35156.9297L172.93359 336l-.23437.58203-.11719.17578-.17187.34766-.17578.40625-.35157.8164-.0586.29297-.11327.29297-.11719.28906-.0586.17579-.11718.875-.0586.40625-.05859.11718-.0586.17579-.05859.17187-.23047.52734-.11718.17188v.23437l-.11719.23438-.0586.17187-.17577.58594v.28906l-.0586.17579v.29296l-.0586.11329-.05859.52734v.17187l-.05468.23438v2.6211l-.17578.8164-.1172.17578-.17577.23438-.1172.17187-.11327.23438-.58594.93359-.23047.28906-.29297.46485-.17578.23437-.28906.35156-.35156.69922-.11328.23047-.17579.41016-.17578.23046-.40625.52735-.8164.69922-.29297.17187-.28906.23438-.17579.11719-.17578.17578-.52344.40625-.52734.17578-.17187.17578-.23438.05469-.64062.17578h-.75782m12.21094 31.02344l-1.07422.44921.35938.89454 1.25-.71485.44531-.53906-.98047-.08985"/><path fill="#d3d3d3" fill-opacity="0" fill-rule="evenodd" d="M201.50781 416.59766h-.89453l.44922.6289.98047.35938.80469-.08985.4453-.98828-.17577.08985-.71485-.35547-.89453.35547m154.6211 59.0703l-.0586-.52343v-.29297l.11328-.29297.0586-.23046.46875-.46875h.11328l.11719-.11329.11718-.05859h.17579l.23437-.0586h.34766l.23437.0586.11719.0586.23047.17187.0586.17578.11718.58203v.29297l-.11719.17578-.17187.28906-.17579.17579-.52734.52343-.23047.23438-.11719.0586h-.17578l-.11718-.0586-.40625-.29297-.17579-.11719-.11718-.0586-.0586-.11327-.05468-.1172m6.64062-10.95702l-.0586-.17188v-1.10937l.0586-.17188.17578-.0586.17188-.05858h.17578l.23437-.0586.1172.0586.05858.69921-.05859.17188-.11719.17578-.11718.0586-.23438.52343-.11328.0586h-.23438l-.05859-.1172m9.61328-14.39062l-.11719-.17578v-.69922l.29297-.875.1172-.17187.17577-.35156.11328-.23047.1172-.29297.35155-.75781.1172-.23047.17187-.23438h.17578l.11719-.0586h.64062l.11719.0586.23437.23438.17188.11328.35156.29297.11719.11718.11328.17579v.11328l.11719.05859.11718.11719v.69922l-.05859.17578v.23047l-.0586.17578-.34765 1.05078-.11719.23047-.11719.23437-.11718.0586-.23047.23437-.64063.28906h-.875l-.41015-.11718-.64063-.46485"/><path fill="none" stroke="#bebebe" stroke-linecap="round" stroke-linejoin="round" stroke-miterlimit="10" stroke-width=".5" d="M467.95703 311.69531H144.02734v168.625h323.9297v-168.625"/><g clip-path="url(#a)"><path fill="#fff" fill-opacity="0" fill-rule="evenodd" d="M144 475.89063v4.4375h.0039H144V311.67188h.0039H144v164.21875"/></g><g clip-path="url(#b)"><path fill="#fff" fill-opacity="0" fill-rule="evenodd" d="M144.0039 480.32813V311.67188h53.25782V421.1914l-2.59375 1.4375-1.84766 2.53906-1.17578 1.90234 1.17578 1.28516 4.4414.26172 4.4375 1.10156v30.98438l-1.9375 1.87109 1.9375.5586.67188-.5586-.67187-1.8711v-30.98437l4.4375-1.28125 3.55078 3.07031.88672.4375 1.71094-.4375-1.71094-.61328-3.45703-3.82422-.98047-.64453-3.36719-3.79687-1.07031-1.19532-4.4375-.24218V311.67187h106.51953v137.28516l-.125.30469.125.10156.10156-.10156-.10156-.30469V311.67188h102.08203v141.92578l-.10156.10156-4.33594 2.78125-1.67187 1.65625 1.67187 1.73047 2.27344 2.70703 2.16406 2.07422 2.07031-2.07422-2.0703-3.01953-1.82813-1.41797 1.82812-4.20313.14453-.23437-.14453-.10156V311.67187h62.13281v168.65625H144.00391"/></g><path fill="#50fcfc" fill-rule="evenodd" d="M192.82031 428.35547l-1.17578-1.28516 1.17578-1.90234 1.84766-2.53906 2.59375-1.4375 4.4375.24218 1.07031 1.19532 3.36719 3.79687.98047.64453 3.45703 3.82422 1.71094.61328-1.71094.4375-.88672-.4375-3.55078-3.07031-4.4375 1.28125-4.4375-1.10156-4.4414-.26172m8.8789 34.77734l-1.9375-.5586 1.9375-1.87108.67187 1.87109-.67187.5586m102.08203-13.76954l-.125-.10156.125-.30469.10156.30469-.10156.10156m97.64453 10.5039l-1.67187-1.73046 1.67187-1.65625 4.33594-2.78125.10156-.10156.14453.10156-.14453.23437-1.82812 4.20313 1.82812 1.41797 2.07031 3.01953-2.0703 2.07422-2.16407-2.07422-2.27344-2.70703"/><g clip-path="url(#c)"><path fill="#fff" fill-opacity="0" fill-rule="evenodd" d="M467.9961 480.32813H468V311.67188h-.0039H468v168.65625h-.0039"/></g><g clip-path="url(#d)"><path fill="none" stroke="#000" stroke-linecap="round" stroke-linejoin="round" stroke-miterlimit="10" stroke-width=".5" d="M147.32813 481.45703l-6.65625-2.25781"/></g><g clip-path="url(#e)"><path fill="none" stroke="#000" stroke-linecap="round" stroke-linejoin="round" stroke-miterlimit="10" stroke-width=".5" d="M146.35938 481.1289l.19921 1.21094"/></g><g clip-path="url(#f)"><path fill="none" stroke="#000" stroke-linecap="round" stroke-linejoin="round" stroke-miterlimit="10" stroke-width=".5" d="M160.58594 481.61328l-6.54297-2.5664"/></g><g clip-path="url(#g)"><path fill="none" stroke="#000" stroke-linecap="round" stroke-linejoin="round" stroke-miterlimit="10" stroke-width=".5" d="M159.63281 481.23828l.14063 1.21875"/></g><g clip-path="url(#h)"><path fill="none" stroke="#000" stroke-linecap="round" stroke-linejoin="round" stroke-miterlimit="10" stroke-width=".5" d="M173.92188 481.55469l-6.58594-2.45313"/></g><g clip-path="url(#i)"><path fill="none" stroke="#000" stroke-linecap="round" stroke-linejoin="round" stroke-miterlimit="10" stroke-width=".5" d="M187.30469 481.35938l-6.71875-2.0625"/></g><g clip-path="url(#j)"><path fill="none" stroke="#000" stroke-linecap="round" stroke-linejoin="round" stroke-miterlimit="10" stroke-width=".5" d="M200.71875 480.94531l-6.91797-1.23437"/></g><g clip-path="url(#k)"><path fill="none" stroke="#000" stroke-linecap="round" stroke-linejoin="round" stroke-miterlimit="10" stroke-width=".5" d="M200.71875 480.94531l.7539 2.33594"/></g><g clip-path="url(#l)"><path fill="none" stroke="#000" stroke-linecap="round" stroke-linejoin="round" stroke-miterlimit="10" stroke-width=".5" d="M214.07422 480.65625L207.07812 480"/></g><g clip-path="url(#m)"><path fill="none" stroke="#000" stroke-linecap="round" stroke-linejoin="round" stroke-miterlimit="10" stroke-width=".5" d="M214.07422 480.65625l.94531 2.26563"/></g><g clip-path="url(#n)"><path fill="none" stroke="#000" stroke-linecap="round" stroke-linejoin="round" stroke-miterlimit="10" stroke-width=".5" d="M227.35156 480.92578l-6.92187-1.19531"/></g><g clip-path="url(#o)"><path fill="none" stroke="#000" stroke-linecap="round" stroke-linejoin="round" stroke-miterlimit="10" stroke-width=".5" d="M227.35156 480.92578l.76953 2.33203"/></g><g clip-path="url(#p)"><path fill="none" stroke="#000" stroke-linecap="round" stroke-linejoin="round" stroke-miterlimit="10" stroke-width=".5" d="M240.64453 481.04688l-6.8789-1.4375"/></g><g clip-path="url(#q)"><path fill="none" stroke="#000" stroke-linecap="round" stroke-linejoin="round" stroke-miterlimit="10" stroke-width=".5" d="M240.64453 481.04688l.6836 2.35937"/></g><g clip-path="url(#r)"><path fill="none" stroke="#000" stroke-linecap="round" stroke-linejoin="round" stroke-miterlimit="10" stroke-width=".5" d="M253.97656 480.96094l-6.91406-1.26172"/></g><g clip-path="url(#s)"><path fill="none" stroke="#000" stroke-linecap="round" stroke-linejoin="round" stroke-miterlimit="10" stroke-width=".5" d="M252.97266 480.77734l.37109 1.16797"/></g><g clip-path="url(#t)"><path fill="none" stroke="#000" stroke-linecap="round" stroke-linejoin="round" stroke-miterlimit="10" stroke-width=".5" d="M267.21094 481.30469l-6.75-1.94922"/></g><g clip-path="url(#u)"><path fill="none" stroke="#000" stroke-linecap="round" stroke-linejoin="round" stroke-miterlimit="10" stroke-width=".5" d="M266.23047 481.01953l.25 1.19922"/></g><g clip-path="url(#v)"><path fill="none" stroke="#000" stroke-linecap="round" stroke-linejoin="round" stroke-miterlimit="10" stroke-width=".5" d="M280.34375 481.79688l-6.38672-2.9375"/></g><g clip-path="url(#w)"><path fill="none" stroke="#000" stroke-linecap="round" stroke-linejoin="round" stroke-miterlimit="10" stroke-width=".5" d="M293.7461 481.58984l-6.5586-2.51953"/></g><g clip-path="url(#x)"><path fill="none" stroke="#000" stroke-linecap="round" stroke-linejoin="round" stroke-miterlimit="10" stroke-width=".5" d="M292.79297 481.22266l.14844 1.21875"/></g><g clip-path="url(#y)"><path fill="none" stroke="#000" stroke-linecap="round" stroke-linejoin="round" stroke-miterlimit="10" stroke-width=".5" d="M307.26953 480.7539l-6.97656-.85156"/></g><g clip-path="url(#z)"><path fill="none" stroke="#000" stroke-linecap="round" stroke-linejoin="round" stroke-miterlimit="10" stroke-width=".5" d="M307.26953 480.7539l.8789 2.28907"/></g><g clip-path="url(#A)"><path fill="none" stroke="#000" stroke-linecap="round" stroke-linejoin="round" stroke-miterlimit="10" stroke-width=".5" d="M320.58984 479.96484l-6.98828.73047"/></g><g clip-path="url(#B)"><path fill="none" stroke="#000" stroke-linecap="round" stroke-linejoin="round" stroke-miterlimit="10" stroke-width=".5" d="M320.58984 479.96484L321.96094 482"/></g><g clip-path="url(#C)"><path fill="none" stroke="#000" stroke-linecap="round" stroke-linejoin="round" stroke-miterlimit="10" stroke-width=".5" d="M333.92188 480.4375l-7.02344-.21875"/></g><g clip-path="url(#D)"><path fill="none" stroke="#000" stroke-linecap="round" stroke-linejoin="round" stroke-miterlimit="10" stroke-width=".5" d="M333.92188 480.4375l1.08593 2.20313"/></g><g clip-path="url(#E)"><path fill="none" stroke="#000" stroke-linecap="round" stroke-linejoin="round" stroke-miterlimit="10" stroke-width=".5" d="M347.20703 480.79688l-6.96484-.9375"/></g><g clip-path="url(#F)"><path fill="none" stroke="#000" stroke-linecap="round" stroke-linejoin="round" stroke-miterlimit="10" stroke-width=".5" d="M347.20703 480.79688l.85547 2.30078"/></g><g clip-path="url(#G)"><path fill="none" stroke="#000" stroke-linecap="round" stroke-linejoin="round" stroke-miterlimit="10" stroke-width=".5" d="M360.39453 481.3789l-6.70703-2.10156"/></g><g clip-path="url(#H)"><path fill="none" stroke="#000" stroke-linecap="round" stroke-linejoin="round" stroke-miterlimit="10" stroke-width=".5" d="M373.58203 481.72656l-6.44922-2.79297"/></g><g clip-path="url(#I)"><path fill="none" stroke="#000" stroke-linecap="round" stroke-linejoin="round" stroke-miterlimit="10" stroke-width=".5" d="M386.38672 482.5586l-5.4336-4.45704"/></g><g clip-path="url(#J)"><path fill="none" stroke="#000" stroke-linecap="round" stroke-linejoin="round" stroke-miterlimit="10" stroke-width=".5" d="M400.23828 481.65625L393.73438 479"/></g><g clip-path="url(#K)"><path fill="none" stroke="#000" stroke-linecap="round" stroke-linejoin="round" stroke-miterlimit="10" stroke-width=".5" d="M413.21484 482.29297l-5.82421-3.92969"/></g><g clip-path="url(#L)"><path fill="none" stroke="#000" stroke-linecap="round" stroke-linejoin="round" stroke-miterlimit="10" stroke-width=".5" d="M426.91016 481.55078l-6.58985-2.44531"/></g><g clip-path="url(#M)"><path fill="none" stroke="#000" stroke-linecap="round" stroke-linejoin="round" stroke-miterlimit="10" stroke-width=".5" d="M425.95313 481.19531l.16406 1.21485"/></g><g clip-path="url(#N)"><path fill="none" stroke="#000" stroke-linecap="round" stroke-linejoin="round" stroke-miterlimit="10" stroke-width=".5" d="M439.94922 482.1289l-6.03516-3.60156"/></g><g clip-path="url(#O)"><path fill="none" stroke="#000" stroke-linecap="round" stroke-linejoin="round" stroke-miterlimit="10" stroke-width=".5" d="M453.2461 482.15625l-6-3.65625"/></g><g clip-path="url(#P)"><path fill="none" stroke="#000" stroke-linecap="round" stroke-linejoin="round" stroke-miterlimit="10" stroke-width=".5" d="M466.97266 481.17188l-6.82032-1.6875"/></g><g clip-path="url(#Q)"><path fill="none" stroke="#000" stroke-linecap="round" stroke-linejoin="round" stroke-miterlimit="10" stroke-width=".5" d="M465.98047 480.92578l.29687 1.1914"/></g><g clip-path="url(#R)"><path fill="none" stroke="#000" stroke-linecap="round" stroke-linejoin="round" stroke-miterlimit="10" stroke-width=".5" d="M147.25781 468.32422l-6.51562-2.6211"/></g><path fill="none" stroke="#000" stroke-linecap="round" stroke-linejoin="round" stroke-miterlimit="10" stroke-width=".5" d="M147.25781 468.32422l.26172 2.4414m12.875-2.0625l-6.16016-3.3789m6.16016 3.3789l-.03125 2.45313m13.42188-2.59766l-6.3125-3.08984m6.3125 3.08984l.08203 2.45313m13.29687-2.59375l-6.4414-2.8086m6.4414 2.8086l.1914 2.44531m13.30079-2.94922l-6.79297-1.80078m6.79297 1.80078l.5586 2.39063M214.05468 467.5l-6.96094-.97266m6.96094.97266l.83984 2.30469m12.48047-2.33203l-6.96875-.91797m6.96875.91797l.85938 2.30078m12.48437-2.71875l-7.02734-.08203m7.02734.08203l1.125 2.17969m12.17188-2.58985l-6.98829.73828m6.98828-.73828l1.375 2.03125m11.85938-.83984l-6.82813-1.64453m5.83594 1.40625l.30469 1.1875m13.57813.0703l-5.98047-3.68358m5.98047 3.68359l-.15235 2.44922m13.36328-2.28907l-5.77343-4.0039m5.77343 4.0039l-.28515 2.4375m13.8164-2.78906l-6.20312-3.30078m5.30078 2.82031v1.22657m14.61328-2.7422l-6.9961.69142m6.9961-.69141l1.35938 2.03906m11.97265-1.70312l-7.02734.01953m7.02734-.01953l1.15625 2.16406m12.1289-1.71094l-6.96874-.88672m6.96875.88672l.8711 2.29297m12.42187-2.14063l-6.92578-1.1914m6.92578 1.1914l.76953 2.32813m12.46875-1.98047l-6.76953-1.88672m5.78515 1.61328l.26172 1.19532m13.86719-.44922l-6.4336-2.82813m5.5 2.41406l.08985 1.22266m13.72656-.08203l-5.5664-4.28516m4.7578 3.66016l-.20312 1.21094m14.16797-.39453l-5.25-4.66797m4.48828 3.98828l-.29297 1.19531m14.34766-.48828l-5.20312-4.72266m4.4453 4.03516l-.30468 1.1914m13.84766-.02734l-4.14453-5.67578m3.54296 4.84766l-.53515 1.10547m14.98828-.76172l-5.21484-4.70703m4.45312 4.02343l-.29687 1.19141m14.92578-1.32813l-6.32422-3.0664m5.40625 2.6211l.04297 1.22265"/><g clip-path="url(#S)"><path fill="none" stroke="#000" stroke-linecap="round" stroke-linejoin="round" stroke-miterlimit="10" stroke-width=".5" d="M147.375 454.67969l-6.75-1.96485"/></g><path fill="none" stroke="#000" stroke-linecap="round" stroke-linejoin="round" stroke-miterlimit="10" stroke-width=".5" d="M147.375 454.67969l.5 2.40234m12.60156-1.85156l-6.32422-3.0625m6.32422 3.0625l.09375 2.44922m-1.01172-2.89453l.04688 1.22656m14.21094-.83594l-6.375-2.95312m6.375 2.95312l.13672 2.44922m-1.0625-2.8789l.0664 1.22656m14.32031-1.16016l-6.66406-2.22656m6.66406 2.22656l.40625 2.41797m-1.375-2.74219l.20313 1.21094m14.07422-.86719l-6.65235-2.26953m6.65235 2.26953l.39062 2.42188m-1.35937-2.75l.19531 1.21093m14.1836-1.20703l-6.83985-1.61718m6.83984 1.61718l.6211 2.375m12.73047-2.5625l-6.91407-1.24218m6.91407 1.24218l.75 2.33594m12.59765-2.53516l-6.97656-.84375m6.97656.84375l.88281 2.28907m12.40235-3.32813l-6.91797 1.23047m6.91797-1.23047l1.51172 1.9336m11.77734-2.0547l-6.86719 1.47657m6.8672-1.47656l1.58202 1.875m11.71094-.30469l-6.82422-1.66797m6.82422 1.66797l.60547 2.3789m12.66015-2.1953l-6.72656-2.03126m6.72656 2.03125l.47657 2.40625m12.88281-2.5625l-6.8125-1.71875m6.8125 1.71875l.58984 2.37891m12.79688-3.72266l-6.95703.96875m6.95703-.96875l1.4414 1.98829m11.87891-1.97657l-6.96484.9414m6.96484-.9414l1.42969 1.99219m-2.44531-1.85547l.71484.9961m13.64453-.60547l-7.02344-.11328m7.02344.11328l1.11719 2.1875m-2.13672-2.20313l.55469 1.09375m13.74219-.61328l-6.94922-1.04297m6.94921 1.04297l.81641 2.3164m12.46485-3.54687l-6.88282 1.42188m5.88281-1.21485l.78125.94532m13.52735-1.1875l-6.86719 1.49218m5.86719-1.27343l.79297.93359m13.51172.3789l-6.84766-1.57421m5.85156 1.34765l.32031 1.1836m13.00391.78906l-4.8711-5.0664m4.16016 4.33202l-.3828 1.16407m12.6328.48828l-1.3203-6.90235m1.1289 5.89844l-.95703.76953m12.82812.16016l1.94922-6.75m-1.66797 5.76953l-1.19922.25m14.64063.82422l1.13281-6.9375m-.96875 5.92578l-1.16016.39453m18.34766-2.29687l-6.9375-1.10938m5.92969.94531l.39453 1.16016"/><g clip-path="url(#T)"><path fill="none" stroke="#000" stroke-linecap="round" stroke-linejoin="round" stroke-miterlimit="10" stroke-width=".5" d="M147.42578 441.16797l-6.85156-1.5664"/></g><path fill="none" stroke="#000" stroke-linecap="round" stroke-linejoin="round" stroke-miterlimit="10" stroke-width=".5" d="M147.42578 441.16797l.64063 2.36719m12.625-2.1836l-6.75391-1.9336m6.7539 1.9336l.51173 2.39844m12.5703-1.79688l-6.28515-3.14062m6.28516 3.14062l.0625 2.45313m-.97656-2.91016l.03125 1.22657m14.1875-.7461l-6.26563-3.1875m6.26563 3.1875l.04296 2.45313m13.44141-2.84375l-6.60156-2.40625m6.60156 2.40625l.33984 2.42968m12.90625-2.26171l-6.46875-2.7422m6.46875 2.7422l.21485 2.4453m12.9961-2.21484l-6.25782-3.20312m6.25781 3.20312l.03906 2.45313m13.6211-3.52344l-6.94922-1.0625m6.94922 1.0625l.8086 2.3164m12.45702-2.0703l-6.85156-1.5547m5.85547 1.32813l.32422 1.1875m14.0664-1.98437l-7.0078.4961m7.0078-.4961l1.3047 2.07812m11.96093-1.19922L273.6953 439.75m6.91016 1.26562l.74219 2.33985m12.55468-2.23828l-6.87109-1.46485m6.8711 1.46485l.67577 2.35937m12.66797-2.51172l-6.92968-1.16015m6.92968 1.16015l.77735 2.32813m12.44922-3.8789l-6.75391 1.9375m5.77344-1.65626l.85156.88281m13.36719-1.39843l-6.60157 2.40625m6.60157-2.40625l1.82422 1.64062m11.5039-1.60937l-6.625 2.34375m6.625-2.34375l1.8086 1.66015m11.21484-2.28125l-6.04297 3.58594m5.16406-3.0625l1.04688.63672m12.7461-1.70703l-5.2422 4.67969m5.2422-4.6797l2.30468.85157m10.35547-1.42187l-3.9336 5.8203m3.36329-4.97265l1.21875.1289m14.14062 1.21485l-6.8789 1.4375m5.8789-1.22656l.78516.9414m13.26172 1.07813l-6.34375-3.01953m5.42187 2.57812l.05469 1.22657m12.58594.84375l-3.14844-6.28125m2.6914 5.36718l-.71093 1m13.21093.27344l-.60546-7m.51562 5.98438l-1.02734.66406m15.66406.01172l-3.0664-6.32031m2.61718 5.40234l-.72266.99219m16.38282-2.48047l-6.86328-1.50781m5.86718 1.28906l.32813 1.1836"/><g clip-path="url(#U)"><path fill="none" stroke="#000" stroke-linecap="round" stroke-linejoin="round" stroke-miterlimit="10" stroke-width=".5" d="M147.41016 427.92188l-6.82032-1.70704"/></g><path fill="none" stroke="#000" stroke-linecap="round" stroke-linejoin="round" stroke-miterlimit="10" stroke-width=".5" d="M147.41016 427.92188l.58984 2.3789m12.53516-1.82422l-6.4375-2.8164m6.4375 2.8164l.18359 2.44922m12.77734-1.82422l-5.73437-4.0664m5.73437 4.0664l-.3125 2.4336m13.64844-2.46485l-5.77344-4.0039m5.77344 4.0039l-.28906 2.4375m13.46094-2.2461l-5.48828-4.38671m5.48828 4.38672l-.45313 2.41406m13.8711-2.54687l-5.69141-4.1211m4.86328 3.52344l-.16797 1.21484m13.96484-.21093l-5-4.9336m18.02344 5.19922l-4.41797-5.46484m3.77735 4.66797l-.48047 1.1289m14.23437-.17968l-4.01172-5.76954m3.42579 4.9297l-.5586 1.09374m14.16016-.0664l-3.41406-6.14454m2.91406 5.25l-.66406 1.03125m13.68359.1836l-1.82422-6.78516m1.5586 5.79688l-.89454.83984m16.75782-1.78516l-6.39063-2.91797m5.46094 2.4922l.07422 1.22656m12.66797.8203l-3.38282-6.16015m2.89063 5.26563l-.67188 1.02343m16.28125-3.58593l-6.98828.7539m5.97266-.64453l.6875 1.01563m13.625-1.27344l-6.94922 1.05078m5.9375-.89844l.73047.98438m12.9414-2.70313l-5.64453 4.1836m4.82422-3.57422l1.10938.52734m13.3711-.5664l-6.33204 3.04296m17.26172-4.94922l-1.5586 6.85547m1.33204-5.85547l1.18359-.32421m11.94922-.7422l-.7461 6.98829m.7461-6.98828l2.27734-.91406m12.7539 1.58203l-4.17577 5.65234m3.5664-4.83203l1.21485.1836m10.28906 5.3203l.66406-6.99609m16.03125 5.24219l-6.09765-3.48828m5.21093 2.98047l-.03515 1.22656m13.5586.13281l-4.73829-5.1914m4.04687 4.4375l-.41015 1.15234m14.77734-.78125l-5.45703-4.42578m4.66016 3.78125l-.23438 1.20703m15-1.82031l-6.76562-1.90625m5.78125 1.6289l.25781 1.19532"/><g clip-path="url(#V)"><path fill="none" stroke="#000" stroke-linecap="round" stroke-linejoin="round" stroke-miterlimit="10" stroke-width=".5" d="M147.48047 414.23438l-6.96094-.96094"/></g><path fill="none" stroke="#000" stroke-linecap="round" stroke-linejoin="round" stroke-miterlimit="10" stroke-width=".5" d="M147.48047 414.23438l.84375 2.30078m12.41406-1.98828l-6.84766-1.58594m6.84766 1.58594l.63281 2.37109m12.3047-1.41016L167.58593 412m5.20312 2.9961l-.04297 1.22656m13.40625.26562l-4.41406-5.46875m3.76953 4.67188l-.48047 1.1289m14.69141-.55469l-4.91406-5.02343m4.19922 4.29297l-.375 1.16796m13.74609.07032l-3.59766-6.03907m3.07422 5.16016l-.63672 1.04688m13.6797.17968l-2.00782-6.73437m1.71484 5.7539l-.875.86329m12.67188.16796l1.61719-6.83593m-1.38282 5.83984l-1.1875.3125m14.89844.77344l.35156-7.01563m-.30078 5.9961l-1.10937.51953m14.15234.48437l.79297-6.98437m-.67578 5.96875l-1.14063.44922m13.44531.33984l2.58594-6.53125m-2.21094 5.58203l-1.21875.13672m17.28907.53906l-3.67969-5.98437m16.00781 6.40234l-1.70312-6.82031m1.45312 5.82812l-.91015.82032m17.1328-3.09375l-7.01952-.29297m20.21875 1.0586l-6.78907-1.82032m17.77735-2.4375l-2.13281 6.69531m14.96093-6.8125l-1.16015 6.92969m14.73437-6.8789l-1.67969 6.82421m1.4336-5.82812l1.1914-.30078m10.64063-.6797l1.78125 6.79688m-1.52344-5.80859l.90235-.83203m11.10937.3086l3.8711 5.86327m-3.8711-5.86328l1.17188-2.15234m13.36328 1.64453l1.42968 6.8789m-1.22265-5.875l.94531-.78515m15.80078 5.17578l-5.84375-3.90625m4.99219 3.33594l-.1211 1.22265m13.91016-.18359l-5.08984-4.84375m4.34765 4.14063l-.32812 1.17968m14.72266-.88672l-5.76563-4.02343m4.92578 3.4375l-.14844 1.21875m14.8125-1.73047l-6.78515-1.82813m5.80078 1.5625l.27344 1.19532"/><g clip-path="url(#W)"><path fill="none" stroke="#000" stroke-linecap="round" stroke-linejoin="round" stroke-miterlimit="10" stroke-width=".5" d="M147.1875 398.96484l-6.375 2.94922"/></g><path fill="none" stroke="#000" stroke-linecap="round" stroke-linejoin="round" stroke-miterlimit="10" stroke-width=".5" d="M146.26172 399.39453l.97656.73828m13.58594.4961l-7.01563-.38282m5.9922.32813l.51952 1.11328m12.72266 1.30469l-4.82422-5.10938m4.1211 4.36719l-.39063 1.16016m14.09766-.15625l-4.20313-5.63282m3.59375 4.8125l-.52344 1.10938m12.07031.39844l.5547-7.00391m-.47657 5.98438l-1.125.48828m13.05078.16406l3.17578-6.26953m-2.71484 5.35547l-1.22656.02343m14.89843 1.1836l1.53907-6.85547m-1.3125 5.85937l-1.1836.32422m18.55469-2.67187l-7.02734-.17188m6.0039.14844l.55078 1.09375m9.39063 2.2461l1.76562-6.80079m11.05078 6.6289l2.76563-6.46093m-2.36328 5.51953l-1.22266.10547m15.28125 1.11328l.47266-7.01172m16.20703 1.90235l-6.2539 3.20312m19.52343.08203l-6.16797-3.36718m19.82422.89062l-6.84766 1.58594m5.85157-1.35547l.80468.92578m13.33985-1.67969l-6.51563 2.63672m5.56641-2.2539l.9414.78906m13.04688-1.71485l-5.96094 3.71875m5.09375-3.17578l1.0625.61329m12.9961 2.75l-5.71485-4.09375m4.88282 3.5l-.16407 1.21484m14.94922-2.32813l-6.99219-.67578m5.97657.57422l.46875 1.13672m13.16406-3.5l-5.59375 4.2539m5.59375-4.2539l2.22656 1.02344m10.67578-1.47656l-4.76953 5.16015m4.07422-4.41015l1.1875.3125m13.8711 2.26953l-6.8672-1.50391m18.1172 3.98828l-2.73438-6.47265m2.33594 5.53125l-.77344.94921m14.78125-.14843l-3.32422-6.19141m2.83984 5.28906l-.68359 1.01953m15.5625-1.01562l-5.48047-4.39844m4.6836 3.75781l-.23047 1.20704m14.59375-.92579l-5.98828-3.67578m5.11718 3.14063l-.07422 1.22265"/><g clip-path="url(#X)"><path fill="none" stroke="#000" stroke-linecap="round" stroke-linejoin="round" stroke-miterlimit="10" stroke-width=".5" d="M147.01172 385.3164l-6.02344 3.61329"/></g><path fill="none" stroke="#000" stroke-linecap="round" stroke-linejoin="round" stroke-miterlimit="10" stroke-width=".5" d="M147.01172 385.3164l2.10547 1.26563m9.91797-2.52344l-3.44141 6.12891m3.4414-6.1289l2.45313.05468m7.9336-.28906l2.41796 6.59765m-2.0664-5.63671l.8164-.91407m10.23828 4.875L187.0625 385.5m-5.32813 2.77344l-1.01171-.69531m13.49218 1.29687l6.08985-3.5039m-6.08985 3.5039l-2.07812-1.30078m21.36719 1.49219l-5.85547-3.88672m5.85547 3.88672l-.2422 2.4414m14.13673-4.17187l-7.01563-.42578m5.9961.36328l.5078 1.11719m13.76563-.58985l-6.89453-1.35547m19.9375 2.17969l-6.35156-3.0039m14.9375 4.65234l3.10938-6.30078m-2.65625 5.3828l-1.22657.03907m12.13672-2.50781l7.01172.47265m13.29297.21485l-6.96875-.90235m19.80469 2.27735l-6.00782-3.64844m5.13282 3.11719l-.07032 1.22265m14.65235-1.61718l-6.79297-1.80078m5.80469 1.53906l.27734 1.19531m14.10156-1.28906l-6.9414-1.08985m6.9414 1.08985l.80078 2.32031m12.46094-2.05078l-6.83594-1.6289m6.83594 1.6289l.61719 2.375m12.78515-2.92969l-7.0078-.51953m5.98827.44531l.4922 1.1211m13.66405-2.4414l-6.65234 2.26952m5.6836-1.9375l.89452.83985m12.70313-2.35157l-5.28125 4.63282m5.28125-4.63282l2.29687.8672m11.21094-.62892l-5.66797 4.15235m5.66797-4.15235l2.21094 1.06641m11.4336-.51562l-6.32813 3.05078m5.41015-2.60547l.98829.72265m12.82421 2.5547l-5.48437-4.39454m4.6836 3.7539l-.22657 1.20704m13.38672.26172l-3.57422-6.05078m3.05469 5.16796l-.64063 1.05079m14.4297-.14063l-3.48438-6.10156m3.48437 6.10156l-1.3086 2.07422m15.16016-2.45313l-4.55859-5.34765m4.5586 5.34765l-.89844 2.28125"/><g clip-path="url(#Y)"><path fill="none" stroke="#000" stroke-linecap="round" stroke-linejoin="round" stroke-miterlimit="10" stroke-width=".5" d="M146.27734 371.13281l-4.55468 5.35156"/></g><path fill="none" stroke="#000" stroke-linecap="round" stroke-linejoin="round" stroke-miterlimit="10" stroke-width=".5" d="M146.27734 371.13281l2.39453.52735m10.52344-.82032l-3.76172 5.9375m3.76172-5.9375l2.44922.1875m-2.9961.67579l1.22266.09375m13.30078-.41407l-5.08593 4.85156m5.08594-4.85156l2.32812.77344m11.9375 1.26953l-6.98438.76563m5.96875-.65625l.69141 1.01562m9.69531 2.74219l.90235-6.96875m-.76953 5.95312l-1.14844.4336m18.15625-1.92969l-6.75-1.94922m19.83984 2.53906l-6.29687-3.125m6.29687 3.125l.0664 2.45313m13.4375-2.92188l-6.67577-2.1875m6.67578 2.1875l.42187 2.41797m-1.39062-2.73437l.41797 2.41797m14-2.64454l-6.9414-1.10156m6.9414 1.10156l.79687 2.32032m-1.8086-2.48047l.39845 1.16015m13.95703-1.26953l-7.0039-.5625m7.0039.5625l.97656 2.25m-1.99219-2.33203l.48438 1.125m13.80469-.71484l-6.91797-1.22266m6.91797 1.22266l.7578 2.33594m12.34766-1.61329l-6.5-2.66406m6.5 2.66406l.2461 2.44141m13.05468-2.39844l-6.46875-2.75m6.46875 2.75l.21094 2.44532m13.01172-2.25l-6.28516-3.14063m6.28516 3.14063l.0625 2.45312m13.52344-3.19531l-6.82813-1.65625m6.82813 1.65625l.60937 2.375m12.58203-4.4336l-6.58203 2.46094m5.625-2.10547l.91797.8125m13.11719-1.67578l-6.10547 3.47656m5.21875-2.97265l1.03516.65625m13.46484-.48438l-6.69922 2.125m5.72266-1.8164l.875.85937m13.1211-1.84375l-6.10938 3.47266m6.10937-3.47266l2.07031 1.3164m10.72266-2.01171l-5.0664 4.86719m5.0664-4.86719l2.33203.76563m11.20313-.51172l-5.50782 4.35937m5.50782-4.35937l2.25.98437m11.80078.79297l-6.98047.80469m5.96484-.6875l.69922 1.00781m10.65625 2.7539l-1.03125-6.95312m.88281 5.9414L436.3086 377m14.40625.28906l-.9375-6.96484m.9375 6.96484l-1.99609 1.42969m16.05469-1.61328l-2.42578-6.59375m2.42578 6.59375l-1.63672 1.82812"/><g clip-path="url(#Z)"><path fill="none" stroke="#000" stroke-linecap="round" stroke-linejoin="round" stroke-miterlimit="10" stroke-width=".5" d="M145.77734 357.46094l-3.55468 6.0625"/></g><path fill="none" stroke="#000" stroke-linecap="round" stroke-linejoin="round" stroke-miterlimit="10" stroke-width=".5" d="M145.77734 357.46094l2.45313.10547m11.44531.32421l-4.71875 5.20704m4.71875-5.20704l2.3789.60157m-3.0664.15625l1.1875.30078m13.9375 1.08203l-6.96484.92578m6.96484-.92578l1.42578 1.9961m-2.4375-1.86329l1.42578 1.9961m12.91407-2.02735l-6.9922.72266m6.9922-.72266l1.36718 2.03516m-2.38672-1.92969l.6836 1.01563m12.88672 1.44921l-5.46485-4.41796m5.46485 4.41796l-.46875 2.41016m-.32813-3.05469l-.23047 1.20704m14.64844-1.00782l-6.07812-3.52734m6.07812 3.52734l-.08984 2.44922m-.79297-2.96484l-.08984 2.45312m14.41796-2.17969l-6.33593-3.04687m6.33593 3.04688l.09766 2.45312m-1.01953-2.89453l.04687 1.22265m14.4922-1.75l-6.94142-1.10937m6.94141 1.10938l.79688 2.3203m-1.8086-2.48046l.39844 1.16015m13.95703-1.8828l-6.9961.65624m6.9961-.65625l1.34766 2.05078M253 360.26172l.67578 1.02344m13.54297-1.7422l-6.76563 1.89845m6.76563-1.89844l1.69531 1.77344m11.72266-1.26172l-6.97266.8789m6.97266-.8789l1.41406 2.0039m11.8125-.67187l-6.79687-1.78906m6.79687 1.78906l.5625 2.39062m12.52734-1.77343l-6.34375-3.01954m6.34375 3.01954l.10938 2.44921m13.35156-2.80859l-6.63672-2.30078m6.63672 2.30078l.3789 2.42578m13.00782-4.5039l-6.77734 1.85156m5.78906-1.58203l.84375.89453m13.07812-2.05078l-6.01562 3.6289m5.14062-3.10156l1.05079.6289m13.15625-1.125l-6.05079 3.56641m6.05079-3.5664l2.09375 1.28125m10.91015-1.73438l-5.42578 4.46875m5.42578-4.46875l2.26563.9414m10.96093-1.04296l-5.25 4.67188m5.25-4.67188l2.30079.85156m11.0078-.85547l-5.23827 4.6797m5.23828-4.6797l2.30469.84766m-3.06641-.16406l1.15234.42187m12.95313-1.07422l-5.29688 4.6172m5.29688-4.6172l2.29297.875m-3.0625-.20312l1.14453.4375m13.3164-.58985l-6.04687 3.57813m6.04687-3.57813l2.09375 1.28125m11.70704.39063l-7.01954.23438m6-.19922l.60938 1.0625m10.78906 2.48828l-1.14844-6.9336m.98047 5.92188l-.97265.7461m13.7539.30859l.25391-7.02344m-.2539 7.02344l-2.20704 1.07421"/><g clip-path="url(#aa)"><path fill="none" stroke="#000" stroke-linecap="round" stroke-linejoin="round" stroke-miterlimit="10" stroke-width=".5" d="M146.66016 344.88281l-5.32032 4.59375"/></g><path fill="none" stroke="#000" stroke-linecap="round" stroke-linejoin="round" stroke-miterlimit="10" stroke-width=".5" d="M145.88672 345.55078l1.14062.4414m13.16407-.83202l-5.75391 4.03515m5.7539-4.03515l2.1875 1.11328m-3.02343-.52735l1.09375.5586m13.64453 1.46484l-6.92578-1.17969m6.92578 1.1797l.77344 2.32812m-1.78125-2.5l.77344 2.32812m13.47265-1.8125l-6.77344-1.8711m6.77344 1.8711l.53125 2.39844m-1.51562-2.66797l.53125 2.39453m-1.51953-2.66797l.26953 1.19531m14.66797.1797l-6.07422-3.53516m6.07422 3.53515l-.09375 2.45313m-.78907-2.96485l-.09765 2.44922m-.78516-2.96484l-.05078 1.22656m15.4414-.89844l-6.6953-2.13671m6.6953 2.13671l.44141 2.41407m-1.41406-2.72657l.4375 2.41407m13.9961-2.79297l-6.98438-.7539m6.98437.7539l.91406 2.27734m-1.92968-2.38672l.91406 2.27735m13.42969-2.79688l-7.01172.50781m7.01172-.5078L242.01563 349m-2.32422-2l.65234 1.03516m13.5664-1.78125l-6.78124 1.84765m6.78125-1.84765l1.67968 1.78906m11.51172-2.16016l-6.53125 2.58985m6.53125-2.58985l1.8711 1.58985m11.67578-.63672l-6.9961.6836m6.9961-.6836l1.35547 2.04297m11.9375-1.17579l-6.94922-1.05078m6.94922 1.05079l.8125 2.3164m-1.82422-2.46875l.40625 1.15625m13.85156-.67187l-6.8125-1.71485m6.8125 1.71485l.58984 2.3789m-1.58203-2.6289l.29688 1.1914m14.11328-1.67187l-7.01953-.2539m7.01953.2539l1.07422 2.20703m12.10547-3.32031l-6.7461 1.97265m6.7461-1.97265l1.71093 1.7578m10.67188-3.29687l-4.88281 5.05079m4.8828-5.05079l2.35938.67579m11.2461-.35938l-5.46485 4.41797m5.46485-4.41797l2.25781.96094m10.89453-1.14844l-5.14062 4.79297m5.14062-4.79297l2.32031.80078m10.61329-1.15234l-4.37891 5.4961m4.3789-5.4961l2.41407.44922m10.6914-.60157l-3.95703 5.8047m3.95703-5.8047l2.44141.26563m11.4336.20703l-5.07813 4.85547m5.07812-4.85547l2.33204.76953m11.35937-.30078l-5.82812 3.92188m5.82812-3.92188l2.16406 1.15234m11.59375-.23046l-6.71484 2.07812m6.71484-2.07813l1.73828 1.72657m11.58985.3086l-6.73828-1.9961m5.7578 1.70312l.2422 1.20313m13.41797.29687l-5.47266-4.40625m4.67969 3.76563l-.23047 1.20312"/><g clip-path="url(#ab)"><path fill="none" stroke="#000" stroke-linecap="round" stroke-linejoin="round" stroke-miterlimit="10" stroke-width=".5" d="M147.51172 333.82031l-7.02344.08594"/></g><path fill="none" stroke="#000" stroke-linecap="round" stroke-linejoin="round" stroke-miterlimit="10" stroke-width=".5" d="M147.51172 333.82031l1.17969 2.15235m12.10547-2.58594l-6.96485.95312m6.96484-.95312l1.4336 1.99219m11.72656-.38282l-6.65234-2.26562m6.65234 2.26562l.39063 2.42188m-1.35938-2.75l.39063 2.42187m13.60156-1.45703l-6.07031-3.53906m6.0703 3.53906l-.09374 2.44922m-.78906-2.96484l-.09375 2.45312m-.78907-2.96875l-.04687 1.22656m15.25781-.4453l-6.33203-3.03907m6.33203 3.03906l.10156 2.45313m-1.01953-2.89453l.09766 2.45312m14.44531-3.01953l-6.95312-1.02344m6.95312 1.02344l.82422 2.3125m-1.83594-2.46094l.82422 2.3125m-1.83594-2.46094l.41407 1.15625m14.96093-1.5078L220.37891 334m7.02343-.27344l1.23438 2.1211m-2.25781-2.08204l1.23437 2.1211m13.03125-2.7461l-6.8789 1.44532m6.8789-1.44531l1.57422 1.8828m-2.57422-1.67187l.78516.9414m13.4414-1.48046l-6.70312 2.10156m6.70312-2.10156l1.75 1.71875m-2.72265-1.41406l.8711.85937m13.35937-1.33594l-6.58594 2.44532m6.58594-2.44531l1.83593 1.6328m11.58594.46876l-6.80078-1.75781m6.80078 1.7578l.57422 2.38673m12.625-2.01954l-6.57031-2.49218m6.57031 2.49219l.3086 2.4375m-1.26563-2.80079l.15625 1.21875m14.3086-1.60546l-6.95704-.9922m6.95703.9922l.83594 2.30859m-1.84766-2.45313l.41797 1.15625m13.92969-1.84765l-6.9961.67969m6.9961-.6797l1.35547 2.04298m11.80078-2.79297l-6.67969 2.17578m6.67969-2.17578l1.76953 1.70703m11.19531-2.46875l-5.97656 3.70312m5.97656-3.70312l2.1172 1.23437m7.6914-2.85937l1.03515 6.95312m-.8828-5.9414l.98437-.73047m10.34375.58594l4.70703 5.21875m-4.02344-4.46094l.41797-1.15235m16.03515-.1875l-2.9414 6.38282m2.9414-6.38281l2.45313-.14063m10.15625-.09766l-1.52734 6.85938m1.52734-6.85938l2.36328-.65234m9.8711.58203l.6328 7m-.53906-5.98047l1.02735-.67187m15.90625 2.25l-6.79297 1.80469m5.80469-1.54297l.83594.89843m13.55468-.71093l-6.96484.90625m6.96484-.90625l1.42188 2m11.88672-2.0586l-6.95313 1.01953m6.95313-1.01953l1.45312 1.97656m11.89844-1.53125l-7.02735.13282"/><g clip-path="url(#ac)"><path fill="none" stroke="#000" stroke-linecap="round" stroke-linejoin="round" stroke-miterlimit="10" stroke-width=".5" d="M467.07422 333.79688l1.1914 2.14453"/></g><g clip-path="url(#ad)"><path fill="none" stroke="#000" stroke-linecap="round" stroke-linejoin="round" stroke-miterlimit="10" stroke-width=".5" d="M147.51172 320.4336l-7.02344.22656"/></g><path fill="none" stroke="#000" stroke-linecap="round" stroke-linejoin="round" stroke-miterlimit="10" stroke-width=".5" d="M147.51172 320.4336l1.22266 2.1289m-2.2461-2.09375l.61328 1.0625m13.67969-.41797l-6.9336-1.1289m6.9336 1.1289l.78906 2.32422m-1.79687-2.48828l.39453 1.16015m13.51562.17579l-6.10937-3.47266m6.10937 3.47266l-.0664 2.44921m-.82031-2.95703l-.03516 1.22657m14.32812-.89063l-6.28906-3.13281m6.28906 3.13281l.06641 2.45313m-.98047-2.91016l.0664 2.45313m14.35548-2.45704l-6.67188-2.20703m6.67188 2.20703l.41015 2.41797m-1.38281-2.73828l.41406 2.41797m14.03125-2.83984l-6.98828-.72266m6.98828.72266l.92188 2.26953m-1.9375-2.375l.46094 1.13672m13.79687-2.1875l-6.84375 1.58984m6.84375-1.58984l1.61328 1.84765m-2.60937-1.61719l.80859.92579m13.45313-1.33985l-6.7461 1.95703m6.7461-1.95703l1.71093 1.75781m-2.6914-1.47265l.85547.8789m13.55078-.64453l-6.96875.91797m6.96875-.91797l1.42578 1.9961m11.84375-2.27344l-6.875 1.46875m6.875-1.46875l1.57812 1.8789m11.76563-.55859l-6.92969-1.16797m6.92969 1.16797l.77344 2.32813m12.22656-1.35938l-6.30469-3.10547m6.30469 3.10547l.07812 2.45313m13.5039-4.82031l-6.83593 1.6289m5.83985-1.39062l.8125.91796m13.51953-1.05859l-6.87891 1.4336m5.8789-1.22657l.78516.94531m13.4961-1.30468l-6.8086 1.73828m6.8086-1.73828l1.65234 1.8125m11.14063-2.95313l-5.76563 4.01953m5.76563-4.01953l2.18359 1.11719m10.69531-1.63281l-4.89453 5.04687m4.89453-5.04687l2.35547.6836m10.28125-1.19532l-3.53906 6.07031m3.02734-5.1875l1.22266.05078m12.6875-.88281l-3.70313 5.96875m3.16406-5.10156l1.22657.08203m11.73047-1.34375l-1.91016 6.76172m1.63281-5.77735l1.19922-.26171m12.08594-.79688L409.65625 324m1.10156-5.90234l1.17188-.36329m10.51562 6.125l2.34375-6.625m-2.0039 5.66407l-1.21094.17969m17.70703.08203l-4.69922-5.22266m4.01563 4.46094l-.41797 1.15234m15.57031-2.71484l-7.0039-.57422m7.0039.57422l.96875 2.25m12.27734-3.28516l-6.86718 1.49219"/><g clip-path="url(#ae)"><path fill="none" stroke="#000" stroke-linecap="round" stroke-linejoin="round" stroke-miterlimit="10" stroke-width=".5" d="M466.9961 319.80078l1.58593 1.875"/></g><path fill="#00f" fill-rule="evenodd" d="M383.80078 432.14063h8.61719v-10.14454h-8.61719v10.14454"/><path fill="azure" fill-rule="evenodd" d="M385.63281 423.82813h.83203v2.82421h3.28907v-2.82421h.83203v6.48046h-.83203v-2.91796h-3.28907v2.91796h-.83203v-6.48046"/><path fill="#ff3030" fill-rule="evenodd" d="M451.07031 414.38672h7.6914v-10.14453h-7.6914v10.14453"/><path fill="azure" fill-rule="evenodd" d="M452.90234 406.07422h.83204v5.74219h3.1953v.73828h-4.02734v-6.48047"/><path fill="#ff3030" fill-rule="evenodd" d="M295.72656 405.51172h7.69531v-10.14453h-7.6953v10.14453"/><path fill="azure" fill-rule="evenodd" d="M297.5586 397.19922h.83593v5.73828h3.1914v.74219h-4.02734v-6.48047"/><path fill="#00f" fill-rule="evenodd" d="M370.48438 401.07422h8.62109v-10.14844h-8.6211v10.14844"/><path fill="azure" fill-rule="evenodd" d="M372.3164 392.76172h.83594v2.82031h3.28516v-2.82031h.83203v6.47656h-.83203v-2.91406h-3.28516v2.91406h-.83593v-6.47656"/><path fill="#ff3030" fill-rule="evenodd" d="M344.55078 383.32031h7.6914v-10.14844h-7.6914v10.14844"/><path fill="azure" fill-rule="evenodd" d="M346.38281 375.00781h.83203v5.73828h3.19532v.7422h-4.02735v-6.48048"/><path fill="#ff3030" fill-rule="evenodd" d="M175.89063 361.1289h7.6953v-10.14843h-7.6953v10.14844"/><path fill="azure" fill-rule="evenodd" d="M177.72656 352.8164h.83203v5.73829H181.75v.73828h-4.02344v-6.47656"/><path fill="#ffffe0" fill-rule="evenodd" d="M421.63281 427.76953h22.1836v-10.1914h-22.1836v10.1914"/><path fill-rule="evenodd" d="M425.13281 419.41016h.51172v6.29687h-.78906v-4.49219h-1.38672v-.55468l.5586-.06641.2539-.05078.22656-.08985.20313-.14062.17578-.21094.14062-.29687.10547-.39453m4.8164 0l.22657.01953.21875.05469.21094.08984.19531.1211.1836.14843.17187.17578.30078.42188.24219.49218.17969.54688.11328.57812.03906.59375-.03906.58985-.11328.58594-.1797.55468-.24218.5-.30078.42969-.17188.17969-.18359.15234-.19531.125-.21094.08985-.21875.05859-.22656.01953-.23047-.01953-.21875-.0586-.20703-.08984-.19922-.125-.1836-.15234-.17187-.17969-.30078-.42969-.24219-.5-.17969-.55469-.11328-.58593-.03906-.58985h.83594l.02734.5625.08203.50391.125.44531.16407.3711.1914.30078.21094.22265.22266.13672.22656.04688.22656-.04688.22266-.13672.20703-.22265.1914-.30078.16407-.3711.125-.44531.08203-.5039.02734-.5625-.02734-.5625-.08203-.5-.125-.4375-.16406-.36329-.19141-.29297-.20703-.21484-.22266-.13281-.22656-.04297-.22656.04297-.22266.13281-.21094.21484-.1914.29297-.16407.36328-.125.4375-.08203.5-.02734.5625h-.83594l.03906-.59375.11329-.57812.17968-.54688.24219-.49218.30078-.42188.17188-.17578.18359-.14844.19922-.1211.20703-.08983.21875-.0547.23047-.01952m4.94922 0l.23047.01953.21875.05469.20703.08984.19922.1211.18359.14843.17188.17578.30078.42188.24218.49218.1797.54688.11327.57812.03906.59375-.03906.58985-.11328.58594-.17969.55468-.24218.5-.30079.42969-.17187.17969-.1836.15234-.19921.125-.20703.08985-.21875.05859-.23047.01953-.22656-.01953-.21875-.0586-.21094-.08984-.19531-.125-.1836-.15234-.17187-.17969-.30079-.42969-.24218-.5-.17969-.55469-.11328-.58593-.03906-.58985h.83203l.03125.5625.08203.50391.125.44531.16406.3711.1875.30078.21094.22265.22265.13672.22657.04688.22656-.04688.22266-.13672.21093-.22265.19141-.30078.16406-.3711.125-.44531.08203-.5039.02735-.5625-.02735-.5625-.08203-.5-.125-.4375-.16406-.36329-.1914-.29297-.21094-.21484-.22266-.13281-.22656-.04297-.22656.04297-.22266.13281-.21094.21484-.1875.29297-.16406.36328-.125.4375-.08203.5-.03125.5625h-.83203l.03906-.59375.11328-.57812.17969-.54688.24219-.49218.30078-.42188.17187-.17578.1836-.14844.1953-.1211.21094-.08983.21875-.0547.22657-.01952m4.95312 0l.38672.02734.35938.08594.32421.13281.27735.1875.23047.23828.17578.28516.10547.33203.03906.3789-.01953.27344-.0586.23438-.08593.19922-.11328.17187-.12891.14453-.14063.1211-.28515.1953.23047.1211.20703.14453.1836.17188.15234.19531.125.21094.08984.23047.05469.2461.01953.2539-.03516.3086-.10156.32812-.17188.32421-.23828.3086-.30859.26953-.375.21094-.21094.08203-.22656.0625-.2461.03906-.26171.01172-.25781-.01172-.2422-.03906-.22265-.0625-.20703-.08203-.35938-.21094-.28906-.26953-.22265-.3086-.15625-.32421-.09375-.32813-.03125-.3086h.83593l.02344.25391.07813.23438.125.21484.16015.1836.1914.15234.21876.11328.24219.07422.2539.02344.25781-.02344.23829-.07422.21875-.11328.1953-.15234.16017-.1836.12109-.21484.07812-.23438.02735-.2539-.02735-.2539-.07812-.23438-.1211-.21094-.16015-.1836-.19531-.15234-.21875-.11719-.23829-.0703-.2578-.02735-.25391.02734-.2422.07031-.21874.1172-.1914.15233-.16016.1836-.125.21094-.07813.23437-.02344.2539h-.83593l.01953-.2539.05469-.23828.09375-.22266.12109-.21093.15625-.19141.17969-.17188.20703-.15234.23437-.13281-.28906-.19531-.13672-.1211-.1289-.14453-.11329-.17187-.08984-.19922-.05469-.23438-.02344-.27344h.78907l.02344.21485.0664.1914.10156.16407.13672.14062.16797.10938.1875.08203.20703.05078.21875.01953.22266-.01953.20703-.05078.1875-.08203.16406-.10938.13672-.14062.10547-.16406.0664-.19141.02344-.21485-.02343-.21484-.06641-.1914-.10547-.16797-.13672-.13672-.16406-.11328-.1875-.08204-.20703-.05078-.22266-.01562-.21875.01562-.20703.05079-.1875.08203-.16797.11328-.13672.13672-.10156.16796-.0664.19141-.02344.21485h-.78906l.03906-.37891.10937-.33203.17188-.28516.23047-.23828.28125-.1875.3203-.13281.35938-.08594.38672-.02734"/><path fill="#ffffe0" fill-rule="evenodd" d="M266.29297 328.88672h22.17969v-10.1914h-22.1797v10.1914"/><path fill-rule="evenodd" d="M269.79297 320.52734h.50781v6.29688h-.78906v-4.49219H268.125v-.55469l.5586-.0664.2539-.05078.23047-.08985.20312-.14062.17188-.21094.14062-.29688.10938-.39453m4.8125 0l.23047.01954.21875.05468.20703.08985.19531.12109.1836.14844.17187.17578.30078.42187.2461.4922.17968.54687.10938.57812.03906.59375-.03906.58985-.10938.58593-.17969.55469-.24609.5-.30078.42969-.17188.17969-.18359.15234-.19531.125-.20703.08984-.21875.0586-.23047.01953-.23047-.01953-.21875-.0586-.20703-.08984-.19531-.125-.1875-.15235-.16797-.17968-.30469-.42969-.24219-.5-.17969-.55469-.11328-.58594-.03515-.58984h.83203l.02734.5625.08203.5039.12891.44532.16016.375.1914.29688.21094.22265.22266.13672.22656.04688.22656-.04688.22266-.13672.21094-.22265.1914-.29688.16016-.375.125-.44531.08203-.5039.03125-.5625-.03125-.5625-.08203-.5-.125-.4375-.16016-.36329-.1914-.29297-.21094-.21484-.22266-.13281-.22656-.04297-.22656.04296-.22266.13282-.21094.21484-.1914.29297-.16016.36328-.1289.4375-.08204.5-.02734.5625h-.83203l.03515-.59375.11329-.57812.17968-.54688.24219-.49219.30469-.42187.16797-.17578.1875-.14844.1953-.1211.20704-.08984.21875-.05469.23047-.01953m5.08984 0h.51172v6.29688h-.78906v-4.49219h-1.38672v-.55469l.5586-.0664.2539-.05078.22656-.08985.20313-.14062.17578-.21094.14062-.29688.10547-.39453m2.82422 2.17579h.78906l.01954-.31641.05859-.28516.09765-.2539.14063-.21485.17969-.17187.22265-.1289.26563-.08204.3086-.02734.23827.01953.22266.0625.20703.10156.17969.14063.14844.17187.11328.20703.07031.23438.02344.26562-.01953.26953-.06641.22266-.10938.1914-.15625.17188-.19921.16406-.25.16406-.63282.39063-.53906.3125-.4375.3164-.34375.32423-.26562.33593-.1875.35156-.12891.3711-.0664.39062-.01954.42188h4.21094v-.74219h-3.33203l.08203-.28515.11328-.23438.14844-.20313.1875-.17968.23047-.17188.27734-.17578.71875-.41406.41406-.20703.34766-.23047.28125-.25.21875-.26953.16406-.27735.10938-.28515.0625-.28516.02344-.28125-.04297-.38281-.1211-.34766-.1875-.3086-.25-.26171-.30469-.21094-.34375-.16015-.3828-.09766-.40626-.03516-.4336.03516-.39843.09766-.35547.16406-.30469.23437-.24609.3047-.1875.375-.11719.4453-.03906.51954"/></g></defs><use xlink:href="#af"/></svg>