<svg xmlns="http://www.w3.org/2000/svg" role="img" xmlns:xlink="http://www.w3.org/1999/xlink" viewBox="142.45 309.95 326.84 171.84"><defs><clipPath id="a"><path d="M144 311.67188h1v168.65625h-1zm0 0"/></clipPath><clipPath id="b"><path d="M144 311.67188h324v168.65625H144zm0 0"/></clipPath><clipPath id="c"><path d="M467 311.67188h1v168.65625h-1zm0 0"/></clipPath><clipPath id="d"><path d="M144 476h2v4.32813h-2zm0 0"/></clipPath><clipPath id="e"><path d="M156 476h2v4.32813h-2zm0 0"/></clipPath><clipPath id="f"><path d="M166 479h9v1.32813h-9zm0 0"/></clipPath><clipPath id="g"><path d="M180 480h8v.32813h-8zm0 0"/></clipPath><clipPath id="h"><path d="M186 480h2v.32813h-2zm0 0"/></clipPath><clipPath id="i"><path d="M194 477h7v3.32813h-7zm0 0"/></clipPath><clipPath id="j"><path d="M210 476h1v4.32813h-1zm0 0"/></clipPath><clipPath id="k"><path d="M223 476h2v4.32813h-2zm0 0"/></clipPath><clipPath id="l"><path d="M235 476h4v4.32813h-4zm0 0"/></clipPath><clipPath id="m"><path d="M249 476h3v4.32813h-3zm0 0"/></clipPath><clipPath id="n"><path d="M260 478h7v2.32813h-7zm0 0"/></clipPath><clipPath id="o"><path d="M273 478h8v2.32813h-8zm0 0"/></clipPath><clipPath id="p"><path d="M287 477h7v3.32813h-7zm0 0"/></clipPath><clipPath id="q"><path d="M302 476h4v4.32813h-4zm0 0"/></clipPath><clipPath id="r"><path d="M314 477h6v3.32813h-6zm0 0"/></clipPath><clipPath id="s"><path d="M328 477h5v3.32813h-5zm0 0"/></clipPath><clipPath id="t"><path d="M341 477h6v3.32813h-6zm0 0"/></clipPath><clipPath id="u"><path d="M354 477h6v3.32813h-6zm0 0"/></clipPath><clipPath id="v"><path d="M368 476h5v4.32813h-5zm0 0"/></clipPath><clipPath id="w"><path d="M381 477h6v3.32813h-6zm0 0"/></clipPath><clipPath id="x"><path d="M393 477h8v3.32813h-8zm0 0"/></clipPath><clipPath id="y"><path d="M408 477h5v3.32813h-5zm0 0"/></clipPath><clipPath id="z"><path d="M421 476h5v4.32813h-5zm0 0"/></clipPath><clipPath id="A"><path d="M433 477h7v3.32813h-7zm0 0"/></clipPath><clipPath id="B"><path d="M446 478h8v2.32813h-8zm0 0"/></clipPath><clipPath id="C"><path d="M460 478h8v2.32813h-8zm0 0"/></clipPath><clipPath id="D"><path d="M144 465h4v4h-4zm0 0"/></clipPath><clipPath id="E"><path d="M144 453h4v2h-4zm0 0"/></clipPath><clipPath id="F"><path d="M144 439h4v3h-4zm0 0"/></clipPath><clipPath id="G"><path d="M144 424h4v6h-4zm0 0"/></clipPath><clipPath id="H"><path d="M144 411h4v6h-4zm0 0"/></clipPath><clipPath id="I"><path d="M144 397h3v7h-3zm0 0"/></clipPath><clipPath id="J"><path d="M144 384h3v6h-3zm0 0"/></clipPath><clipPath id="K"><path d="M144 370h2v8h-2zm0 0"/></clipPath><clipPath id="L"><path d="M144 370h1v2h-1zm0 0"/></clipPath><clipPath id="M"><path d="M144 356h2v9h-2zm0 0"/></clipPath><clipPath id="N"><path d="M144 344h3v7h-3zm0 0"/></clipPath><clipPath id="O"><path d="M466 346h2v3h-2zm0 0"/></clipPath><clipPath id="P"><path d="M144 330h2v8h-2zm0 0"/></clipPath><clipPath id="Q"><path d="M466 332h2v3h-2zm0 0"/></clipPath><clipPath id="R"><path d="M465 332h3v3h-3zm0 0"/></clipPath><clipPath id="S"><path d="M144 316h1v9h-1zm0 0"/></clipPath><clipPath id="T"><path d="M466 318h2v3h-2zm0 0"/></clipPath><clipPath id="U"><path d="M465 319h3v2h-3zm0 0"/></clipPath><g id="V" clip-path="url(#clip1)"><path fill="#fff" fill-opacity="0" fill-rule="evenodd" d="M0 0h1000v1000H0zm0 0"/><path fill="#d3d3d3" fill-opacity="0" fill-rule="evenodd" d="M162.15234 355.86719l-.23437.29297.0586.23437.11718.17188.17578.23437.29297.34766.11328.0586.11719-.17188.0586-.23438.17577-.17578.46485-.17578h.69922l.23437.29297.28906.8164.0586.17579.17578.23046.35156.23438.69922.69922.17188.17578.23437.34765.23438.41016.28906.58203.41015.46485.23047.23437.23438.17578.11719.23047.17578.29297.17187 1.16406v.23438l.0586.28906.05859.11719.11719.11719.34765.41015.11719.17188.17578.17578.17578.23437.11719.17188.17188.35156.05859.23438.23437.40625.23438-.0586-.17578.17578-.0586.92969h-.58203l-.23437-.11328-.34766.11328-.11719.11719-.05859.29297-.0586.17578-.11718.17187-.46484.29297-.0586.23438-.0586.11328v.64453l.0586.17187v.41016l.0586.0586v.40624l.05859.40625.11719.17579.05859.05859.23047.64062-.0586.29297v.69922l-.05859.58203v.23438l-.0586.23047-.05468.35156v1.92187l.05469.1172h.42578l-.36719.11718-.02344.35156.89063 1.16797 1.74219.53906 1.33984.35938v.53906l.08984.8086.53516.71484 1.51953.26953.89063-.08594.08984 1.16406.53516.1797 1.16015-.1797 2.05469-.98437 1.16016-.36328 1.8789-.17578 1.69531-.1797-.17968.71876-1.51563.08594-1.25.08984-.80469.26953-1.07421.8086.26953.71875.53515.89843-.17968.625-.26563.8086.26563 1.07812.625.89844.80468.17969 1.25-.1797-.26562.72267.09766.5039.05468.29297v.17188l.0586.29296v.40625l.17578.1172.35156.11718h.40625l.29297-.17578.11328-.11719.0586-.11719.11718-.23047.0586-.17578.35156-.46484.23047-.17578.17578-.0586.17578.0586.0586.17578.11718.98828.05469.46875.0586.17188.11718.23437.17578.0586.8164.05859h.28907l.11719.23437.05859.40625.0586.35156v1.10547l.11718.29297.11719.34766.28906.69922.17578.35156.58203.7539.35157.17579.17187.0586.46875.23437.64063.46484.34765.23438.29297.17578.29297.05468.23047.0625.8164.34766.29297.17578.11328.17188.35157.35156.11719.17578.52343.64063v.28906l.0586.35156v.34766l.05859.35156.0586.28906.11718.0586.17188.05859h.17578l.58203.23437.17578.1172.17578.28905.17578.23438.11328.23437.29297.23047.11719.11719v.41016l.0586.05468.28906.23438.23437.11719.0586.11718.11718.17188.0586.11719.23047.23437.05859.17578.23437.0586.1172.05859-.1172.11328-.05859.11719v.11719l-.11719.29296-.11719.28907v.58203l.17579.11719.11718.05859.0586.11719.11719.11719.11328.05859.17578.34765.0586.35157.05858.40625v.17578l-.05859.17578-.11719.69922v.17187l.1172.17579.29296.29296h.40625l.17578.1172.11719.17187.11719.29296v.23438h-.52735l-.23047-.23438h-.23437l-.17578.0586-.0586.69922.0586.34765.11719.17579.17578.41015.11718.23047.28907.46875.17578.05469h.52344l.23437.0586.75781.64062.0586.29296v.23438l.05859.0586.23047.34765v.35156l-.11719.17188v.29297l.29297.28906.29297.17578.17187.0586.29297.17577.29297.1172.58203.40624.28906.23438.29297.17578.21875.16015.01563.01172.23047.17579.64062.52343.17578.23438.1172.17578.17577.17578.11328.17188v.64062l.1172.17578.46874.11719.58203.11719.23438.05859.23047.11328.29297.11719.11328.0586.58593.35156.28907.17187.17578.0625.17578.05469.17578.0586.69922.35155.28906.17579.23438.05468.28906.17578.23437.1172.64063.40624.29297.11719.17187.0586.23438.05859.41015.05859.23047.0586.23438.11718.0586.17188-.41017.17578.46875.0586.0586.29296.11328.23438.17578.05468.23438.0586.17578.05859.40625.11719.64062.23437.11719.17188.0586.23437v.17578l-.0586.1172-.0586.40624.23438.23438.11719.05859.34766.11719.64062.23047.17578.11718.28906.1172.17578.17577.23438.46485.58203 1.10546.17578.17579.34766.17578.17578.11719.35156.11718 1.04688.52344.23437.0586.46485.11327.29297.0586.46484.17578.75781.58203.23438.23438.34765.46484.17578.17578.28907.23438.8164.69921.29297.17579.28906.28906.29297.17578.29297.28906.69531.64063.17578.17578.29297.23437.28907.23438.46875.28906.64062.58203.34766.23438.23437.29297.34766.34765.35156.46485.9336.99218.34765.40625.11719.17579.23437.05859.11328.11719.64454.17578.23047.11328.23437.0586.29297.17577.23047.1172.9336.69921.40624.40625.23438.17578.40625.17578.23437.11719.8164.34766.34766.23437.23438.11719.29297.28906.23047.11719.7578.35156.35157.17188.23047.05859.29297.11719.23437.0586.8711.17577h.8164l.46875.23047.17188.0586.875.69921.46484.1172.29297.05858.17578.0586.23047.0586.46875.05859.34766.05859.35156.0586.40625.05859h.29297l.17187.0586v.23046l.17578.17578h.29297l.34766.0586.35156.05859.69922.11719h.64063l.46484-.23438.29297-.17578.17187-.11719.41016-.17187.28906-.17578.9336-.46485.46875-.29297.52343-.29296.46485-.17188.46484-.17578 1.05078-.46485.28906-.11718.41016-.11719.28906-.11719.52735-.17578 1.51562-.69922.58203-.34765.28907-.0586.29297-.0586.34765-.11718.875-.23047.35156-.11719h.11329l.23437-.05859.875-.23437.23438-.0586h.8125l.35156-.0586.8164-.11718.17188-.0586.35156-.05468.29297-.0586.23047-.05859.8164-.17578.17579-.0586h.34765l.23438-.05859.46484-.11718.75781-.17188.23438-.0586h.34765l.41016-.11718.28906-.0586 1.28516-.05859h.28906l.41016-.0586.23047-.05858h.17578l.875-.1172h.40625l.41015-.11718h.34766l.35156-.11328.8711-.0586h1.75l1.04687.28907.41016.11719.28906.11718.35156.11719.28907.11719 1.05078.17187.28906.0586h.29297l.29297.05859.17187.0586.41016.05859.17187.0586.1172.05858h.11718l.11719.0586.35156.0586h.11328l.41016.0664 1.92187.39453 1.92578.39453 1.51953.44922 1.69532.71875 2.14453.80469 1.60547-.71875 1.42968-.80469 1.16016-1.07813 1.25-.44921 3.03516-.71875 1.875-.35938 2.14453-1.34765 2.23437-1.25391 2.5-1.25781 1.69531-.44922 1.78516-.17969 1.16016-.26953.625.53906 1.33984-.26953.71485-.98828.98437-1.34375.44531-.17969.80469-.35937 1.875-.53907 1.78516-.44921 1.25-.26954 1.16015-.08984 1.69922-.08984 1.96094-.26954 1.25-.08984h.53906l.625-.08984h.89063l2.14453-.17969 2.41015-.17969 2.58985-.08984 1.69531.17969 1.60938.08984 1.42968.35938 1.16016.71875 1.875.98828 1.16015 1.52734.26563.71484.6289.08985.35548.89844.53515.53906.53516 1.52734 1.07422.35938h.53515l-.80469.53515.08985 1.70703.71484 2.69532.89063.80468.89453.98829.71484 1.2578 1.78516.53907 1.51953-.17969.35547 1.34375 1.60937-.80469.98047-.53906.26953.26953.31641-.21484.21875-.14453.80078.44922.44922-.35938h.35547l.53515-.26953.53907-.71875.53515-.26953.625-.98828 1.16016.44922.83984.3711 1.39454.61718 1.6953-.17969h1.60548l1.78515.08985.17969-1.70704.53516-1.34375.80468.26954.4922.84765.40233.40625-.08984.53906v.35938l.71485.44922.71093-.26953h1.42969l.35938.98828.4453 1.25781.71485 1.34375 1.25.6289 1.69531.62891.71485-.17969.17969-.53906.98046-.08984.44922.35937.08594 1.25782-.26563.6289-.53515.17969v.53906l.71484.98438.26563.53906.98437.98828.80078 1.07813-.26562.35937-.08985.89844-.625 2.33203-.35546 2.0664-.08985 1.79298-.17969.71875-.08984.53906v1.4375l-.98047 1.88281-.35937 1.70703-.53516.89844-.80469 1.16797-.26562.53906 2.05469 1.2539.08593.35938-.35546.53906-.08985-.17968v.80859l.08985 1.4375-.44532.71484-1.07422.09375-.26562.71485.53515.89844.8047.71875 1.16015.80859 1.33984.26953.44531.35938-.35546.44921-1.78907-.08984-1.25-.44922-.71484-.71875-.625-.08984-.17578 3.58984-.1875 1.3086h89.35937V311.70313h-55.26953v49.08203l.76172.125 3.28906.54296 2.02344 2.83594v2.7539l2.35156.33204 2.34766.33203h4.05078l-1.3789 4.16016-2.02344.70703-2.02344.70312-.54297.34375-2.59375 1.6172-.1875.11718-2.02344-2.07813-.73046-2.74218-2.67188-2.07813-1.375-3.5-.0664-.08203-1.95704-2.67188 2.75-1.41796v-49.08204H294.42187v91.41407l.1172.03125.1328.01172.07422.07421.10547.04688.08985.0586.08593.05859.08985.0586.29687.29687.0586.08984.03125.11719.02734.11719.01563.13671-.03125.1172-.0586.08983-.0586.08594-.04296.10547-.04688.10156-.02734.1211v.14453l.17578.26953.14844.14844.07422.08594.07422.07421.04296.10547.0625.08985.0586.08593.04297.10547.0586.08985.04687.10156.04296.10547.0586.08594.11719.17968.07421.07422.0625.08594.0586.08984.04297.10547.0586.08985.05858.08593.0625.08985.0586.08984.04297.10156.11719.17969.07421.07422.0586.08594.07422.07421.08984.0586.10547.04687h.14844l.1328-.01562.13282.01562.10156-.04687.07422-.07422.04688-.10156-.01563-.13281v-.14844l-.04687-.10547-.02735-.11719-.04687-.10156-.02735-.1211-.04296-.10156-.0625-.08984-.04297-.10156-.04297-.10547-.03125-.11719-.01563-.13281-.01171-.13672.08593-.0586.0586-.08593.12109-.03125.04297.10547.01562.1328v.1172l.0586.10156.0586.08984.08983.0586.14844.14843.0586.08985.04296.10547-.01171.10156.08593.0586.10547.04687.08594.0586.08984.05858.07422.07422-.11719.02735-.10546.04687-.08594.0586-.07422.07421-.0586.08985-.0625.08594-.02734.12109-.04687.10156-.04297.10547-.03125.11719-.01172.13281-.01563.13281v.14844l.02735.11719.04687.10547.04297.10156.0586.08984.07421.07422.08985.0586.07422.07421.08984.0586.0586.08984.04296.10547.04688.10156.11719.03125.1328.01563h.14845l.11718-.03125.10547.04297.04297.10547.04688.10156.02734.1211L299.5 410l.02734.11719.03125.1211.02735.11718.10547.04297.10156.04687.13281-.01562.14844.14844.0625.08593.07422.07422.07031.07422.08984.0625.10547.04297.10156.04297.1172.03125.13671.01562.11719-.03125.07422-.07422.02734-.11718-.01172-.13282-.03125-.12109-.02734-.11719.04297-.10547h.11719l.08984.0625.11719.02735h.14843l.13282.01562h.14843l.13282.01563.1328-.01563h.14845l.1328-.01562.13282-.01172.13672.01172.11719-.02735.13281-.01562.1914-.0586-.05859.17579-.01562.1328-.02735.1211-.01562.13281-.0586.08594-.1328.01563-.10548.04687-.10546.04297-.1172.03125-.11718.02735-.26563.03125h-.14843l-.13281.01562-.07422.07422.05859.08594.14844.14843.11719.1797.07421.0703.08985.0625.08984.0586.08594.0586.08984.05858.10156.04297.10547.0625.10547.04297.08594.0586.10547.04687.10156.04297.17969.11719.0586.08984-.04298.10156-.04687.10547.01562.13281.22266.22266.0586.08985.04296.10156.03125.1211.04297.10155.01563.13282.03125.11718.01171.13672.03125.11719.14844.14844.10156.04297.10547.04296.1172.03125.1328.01563.13672.01563h.11719l.11719-.03125.08984-.0586.04297-.10547.04688-.10156.04296-.10547.03125-.11719.01172-.1328v-.14845l-.01172-.1328-.01562-.13282-.03125-.11719-.04297-.10547-.04688-.10547-.04296-.10156-.04297-.10547-.01563-.13281.01563-.13281.02734-.11719.03125-.11719.02735-.1211.04687-.10155.08984-.0586.08594-.0625.07422-.07422.08984-.05859.22266-.22266.0586-.08593.07421-.07422.11719-.17969.0586-.08594v-.14844l-.07423-.07421-.10156-.04688-.10547-.04297-.10156-.04297-.0586-.08984-.04687-.10547-.02734-.11719.08984-.05859.11719-.03125.10156-.04297.17969-.11719.14844-.14843.01172-.13282-.01172-.10546-.08985-.0586-.1328.01563h-.14845l-.1328.01562-.13282-.01562-.1211-.03125-.08593-.0586-.07422-.07422-.0586-.08984-.0625-.08594-.11718-.17969-.0586-.08593.03125-.1211.08594-.05859.1211-.03125.05859-.08594v-.1211l-.03125-.11718-.0586-.08984-.05859-.08594-.04687-.10547-.02735-.11719-.01562-.1328.0586-.08985.07421-.07422.08984-.0586.1172-.17968.07421-.07422.0586-.08594.14843-.14844.1211-.03125.1328-.01562.13282.01562.07422.07422.04297.10547.01562.13281-.03125.1172-.11719.03124-.1328.01172-.14844.14844-.04297.10547-.04688.10156-.02734.1211-.03125.11718v.14844l.03125.11719.04297.10546.05859.08985.07422.07031.07422.07422.11719.03125.12109.02734.11719-.02734.1328-.01563h.1172l.08984.0586.07422.07422.04687.10546.0586.08594.10156.04688.13281.01562.10547.04297.08594.0586-.01172.10546-.07422.07422-.17969.11719-.05859.08984-.08984.0586-.07032.07422-.07421.07421-.0625.08985-.02735.11719-.01562.1328.01562.13282-.01562.13281v.14844l.01562.13281.02735.1172.03125.12108.07421.07422.08985.0586.08594.0586.08984.05858.11719.03125v.08594l-.10157.04688-.08984.0586-.26563.03124-.11718.02735h-.14844l-.10547.04296-.10156.04688-.0586.08984-.0625.23438-.01171.13281-.03125.1211-.01563.1328v.29298l-.01172.1328.01172.13673.01563.1328.1328.01563.13282.01172.1211.03125.08593.0586.07422.07421.04688.10547.04296.10157.01563.1328v.44532l-.01563.13281v.44532l.03125.26562.02735.11719.01562.13281.03125.11719.08594.21094.03125.26562v.14844l-.03125.11719-.02734.11718-.03125.1211-.02735.11719-.03125.11718-.03125.1211-.01171.1328-.01563.13282.08984.0586.1172-.03125.10155.01562.04688.10547-.03125.26562v.44141l-.04297.10547-.04688.10547-.04296.10156-.04297.10547-.0586.08594-.03125.12109-.04296.11719-.03125.11719-.01563.1328.01563.13282.05859.08984.10547.04688.08594.0586.05859.08593-.01172.13672-.03125.11719-.04297.10156v.44531l-.01562.13281v.14844l-.03125.11719-.04297.10547-.02735.11719-.04687.10546-.04297.10157-.03125.12109-.02734.11719-.03125.13281-.03125.11719-.02735.11719-.04297.10546-.03125.1172-.03125.12108-.01171.13282-.01563.13281v.29688l.02734.11718v.14844l.04688.39844.02734.11719.0586.08984.12109.03125h.14844l.13281-.01563.0586.08985v.11719l-.0586.08984-.08984.0586-.10157.04296-.10546.04688-.08985.05859-.08594.0586-.13671.01562-.1172-.03125-.1328-.01563-.10157.04688-.0625.08594-.01172.13671-.01562.13282-.03125.11719-.02735.11718-.01562.13281-.03125.1211v.29687l.01563.13282.03125.11718v.14844l.01171.13281v.14844l-.02734.11719-.04688.10156-.02734.1211-.03125.11718-.0586.08985-.07421.07421-.10156.04297-.10547.04688-.11719.02734-.1211.03125-.10156-.04687.0586-.08594.10547-.04688.02734-.11718.03125-.11719.02734-.1211.03125-.11718v-.14844l.01563-.13281-.03125-.11719-.04297-.10547-.10547.01563-.07422.07422-.10156.04296-.08984.0625-.07422.07422-.04297.10157-.01563.1328-.03125.1172L304.25 426l-.03125.11719-.02734.11719-.03125.12109-.02735.11719-.03125.11718-.04297.10547-.08984.0586h-.08984l-.1172-.03125-.03124-.08594.01562-.13672-.03125-.11719v-.14844l-.01171-.1328v-.14844l-.0625-.23438-.02735-.1211-.04297-.10156-.04687-.10546-.0586-.08594-.05859-.08985-.04297-.10546-.0625-.08594-.14844-.14844-.0703-.07422-.10548-.04687-.10547-.04297-.10156-.04297-.29687-.29688-.08985-.07421-.08594-.0586-.10546-.04297-.08985-.0625-.08594-.0586-.10546-.04296-.08985-.0586-.08594-.0625-.07421-.0703-.10547-.04688-.08594-.0586-.10547-.04296-.08984-.0625-.10156-.04297-.10547-.04297-.08594-.0586-.10547-.04687-.10547-.04297-.10156-.04687-.08985-.0586-.10156-.04297-.10547-.04296-.08984-.0625-.11719-.02735-.13281-.01562-.13281.01562H299.75l-.13281.01563-.11719-.03125-.08984-.0586-.07422-.07422-.08985-.05859-.10156-.04688h-.14844l-.12109-.02734-.10156-.04297-.07422-.07422-.11719-.17968-.08984-.0586-.10156-.04297-.08985-.0625-.10547-.04296-.08984-.0586-.08594-.0586-.10547-.04687-.0586-.08594-.05858-.08984-.04297-.10547-.04688-.10156-.07422-.07422-.08594-.0586-.07421-.07421-.08985-.0586-.22265-.22265-.04297-.10547-.03125-.26563.10547-.04296h.14453l.10547.04296.07421.07422.08985.0586.08594.0586.10546.04687.08985.05859.14844.14844.0703.07422.14845.14843.0625.08594.07421.07422.08594.0586.07422.07421.08985.0625.08984.0586.08594.05859.26953.17578.10156.04688.10547.04296.10156.04297.04688-.07421.05859-.08594.07422-.07422.07031-.07422.10547.04297.07422.07422.0586.08984.04296.10156.04688.10547.04296.10547.1211.02735.11719-.02735.07421-.08984.04297-.10547.0586-.08985.07422-.07421.10546-.04297.1172-.02735.1328.01172.08985.0586.14844.14843.05859.08985.04297.10547.04687.10156.04297.10547.04297.10156.10547.04688.10547.04296.13281.01563.08594-.0586.0586-.08984.07421-.07422.10547-.04297.11719.02735.10547.04687.10156.04297.10547.04297.10156.04688.17969.11718v.11719l-.01563.13281.01563.13281.01562.13672.0586.08594.10156.04688.1211.02734.11718.03125h.14844l.11719-.03125.05859-.08984.17969-.1172.05859-.08983.07422-.07422.0586-.08594.11718-.17969.17969-.11719.11719.03125.08984.0586.04297.07422-.01563.1328v.1172l.08985.05859h.14843l.13282-.01563.1328-.01171.26563-.03125.10547-.04297.11719-.03125.1211-.02735.07421-.07421.07031-.07422.0625-.08985-.01562-.10547-.04688-.10156-.10156-.04297-.10547-.01562-.11718.02734-.26563.03125h-.14844l-.07421-.07422-.08985-.0586-.11719-.03124-.11718-.02735-.13282-.01562h-.14843l-.13282.01563h-.29687l-.10547-.04688-.14844-.14844-.04297-.10156-.05859-.08984.22266-.22266.08593-.0586.10547-.04296.11719-.03125.13281-.01563.13281.01563.13672.01562.10157.04297.1328-.01172.08985-.0625.10156-.04297.0625-.08984-.04687-.10156-.08984-.0586-.1172-.03125-.10155-.04296-.0586-.08985-.0625-.08984v-.11719l.01563-.13281.10547-.04688.07421-.07031v-.1211l-.08984-.05859-.03125-.11719.08985-.05859.07421-.07422.04297-.10547.0586-.08984.04687-.10156.01563-.13281v-.14844l-.04688-.10547-.04297-.10156-.08984-.0586-.13281-.01562-.10157-.04297-.13671-.01563-.1172-.03125h-.4453l-.13282-.01562-.13281-.01172-.13281-.01563-.11719-.03125h-.14844l-.13281-.01562-.13281-.01172-.26563-.03125-.1211-.04297-.08593-.0586-.07422-.07421v-.14844l.01172-.13281.10547-.04688.10156-.04296.13281-.01563h.15235l.13281-.01562h.29297l.1211.03125.10156.04296.08984.0586.23438.0625.12109-.04688.08984-.05859.10156-.04297.13282-.01562.10547.04296.10156.04688.13281.01172.1211-.02735h.14453l.12109-.03125.11719-.02734.10547-.04687.07421-.07422.08594-.0586.14844-.14843.0586-.08594.04687-.10547.02734-.11719.01563-.10547-.10156-.04296-.08985-.0586-.11719-.03125-.10546-.04297-.08985-.0625-.07422-.08594-.07422-.07421-.10156-.04297-.10547-.04688-.10156-.04297-.0586-.08984-.04687-.10156-.08594-.21094-.0625-.08594-.05859-.08984-.07422-.07422-.08594-.0586h-.26953l-.11719.03126-.08984.05859-.10156.04297-.13281.01562-.10547-.01562-.02735-.11719-.0625-.08984-.11718-.03125-.10157-.04297-.14843-.14844-.03125-.11719-.01563-.10546.07422-.07422.17969-.1172.11719-.02733.11718-.03125.13672.01562.10156.04297.10547.04297.10156.04687.10547.04297.1172.03125.1328.01563.1172.02734.1328.01563.10547-.01563.08985-.0586-.07422-.07421-.10547-.04297-.07422-.07422-.07422-.08984-.14844-.14844-.08593-.0586-.08985-.05859-.07422-.07422-.08984-.0586-.10156-.04687-.1211-.02734-.10156-.04688-.10547-.04296-.11719-.03125-.10156-.04297-.1211-.03125h-.14843l-.11719.03125-.10546.04297-.08594.0625-.17969.11718-.08594.0586-.08984.0586-.10547.04687-.08594.05859-.10547.04297-.10156.04297-.10547.04687-.07422.07422-.05859.08985-.0586.08593-.04687.10547-.0586.08594-.07421.07422-.13281-.01172-.1172-.03125h-.11718l-.07422.07422-.08984.0586-.07422.07421-.08984.0586-.08594.05859-.10547.04687-.10156.04297-.13672.01563-.10156-.04297-.14844-.14844-.10547-.04688h-.08594l-.10547.04688-.10156.04297-.1211.03125-.11718-.03125-.07422-.07422v-.11719l.03125-.1211.07422-.0703.0586-.08985.07421-.07422.11719-.03125.10547-.04296h.29297l.13281-.01563.13672-.01563.10156-.04296.08985-.0586.10156-.04687.08984-.0586.13281-.01171.08985.05859.13281.01172.08984-.0586.08594-.05859.10547-.04297.08984-.0586.08594-.0625.08985-.05859.14843-.14843.0586-.08594.05859-.08985.10547-.04296.13281-.01563.11719.02735.1211.03125.05859-.0586.05859-.08984.03125-.26563.02734-.11719.10547.01172.13281.01563.10157-.04297.08984-.0586.0586-.08984.07421-.07422.0586-.08984.04687-.10156.01172-.13281-.01172-.13282-.04687-.10547-.14844-.14843-.0586-.08985-.05859-.08594-.04297-.10546v-.44532l.01563-.1328v-.14845l.01172-.1328-.0586-.0586-.08984.0586-.10156-.04298-.17969-.11719-.08594-.05859-.0625-.08984-.0586-.08985-.07421-.07421-.08594-.0586-.1211.03125-.10155.01172-.10547.04688-.08594.05859-.10547.04297-.14844.14844-.08984.05859-.08594.0586-.08984.0625-.10547.04296-.13281.01563v-.1211l.10547-.04297.11718-.03125.07422-.0703.04297-.10548v-.14844l-.02734-.11718-.14844-.14844-.13281-.01563h-.14844l-.11719.03125-.10547.04297-.10156.04297-.08984.0625-.11719.02735-.07422-.07422.01172-.13281-.04297-.10157-.04297-.10547-.08984-.05859-.11719.02734-.1211.03125-.11718.03125-.10156.04297-.1211.03125-.10156.04297-.10547.04297-.08984.0586-.10156.01562v-.11719l.01562-.13281-.0586-.08985-.07421.04297-.14844.14844-.0586.08985-.07421.07421-.04688.10547-.04296.10156-.07422.07422-.0586.08985-.07422.07422-.05859.08593-.07422.07422-.08984.0625-.07422.07031-.07422.07422-.10156.01563-.13281.01562-.10547-.04296v-.1211l.14843-.14844.04297-.10156.0586-.08984.04687-.10156.04297-.10547.0586-.08985.03124-.11719.04297-.10156.03125-.1211.02735-.11718.04687-.10547.04297-.10156.04297-.10547.07422-.07031.08984-.0625.08985-.0586.10156-.04296h.29687l.26563-.03125.10547-.04297-.07422-.07422-.11719-.03125-.10547-.04297-.08984-.0586-.10156-.04687-.08985-.0586-.10156-.04296-.10547-.04297-.08984-.0625-.08594-.0586-.10547-.04296-.10156-.04297-.1211-.03125-.11718-.03125-.10157-.04297L297.5 410.25l-.10156-.04297-.08985-.0586-.04296-.10546-.01563-.13281.10156-.04297.13281-.01563.13672.01563.13282-.01563.10156-.04297.0586-.08984.01562-.10547-.08985-.0586-.07421-.07421-.10157-.04297-.08984-.0586-.14844-.14843-.04297-.10547-.01562-.13281v-.29297l-.0586-.08985-.08984-.05859-.07422-.07422-.04297-.10547-.03125-.11718-.0586-.08985-.07421-.07422-.11719-.02734-.07422-.07422-.08984-.0586-.08984-.0625-.08594-.05859-.07422-.07421-.0586-.08594-.04687-.10547-.08594-.0586-.14843-.14843-.19532-.0586-.1328.01563-.10157.04297-.07422.07422-.04688.10156-.04296.10547-.0586.08984-.0586.08594-.29687.29687-.08984.0586h-.08594l-.0625-.08594-.04297-.10547.03125-.11719.0586-.08984.02734-.11719-.01172-.13281-.08984-.0625-.10547.04688-.11719.02734-.11719.03125-.26953.17578-.10156.04688-.11719.02734-.10546.04687-.08985.0586-.10156.04297-.0586-.08594-.04687-.10547.01563-.13281.04687-.10547.07031-.07422.07422-.07031.0586-.08985v-.14843l-.04297-.10547h-.23829l-.10156.04687-.03125.11719-.02734.11719-.03125.1211-.07422.04296-.13281.01563-.07422-.04688-.04297-.10156-.04297-.10547-.04687-.10156-.04297-.10547-.1211.03125-.10156.04297-.13281.01562-.11719.03125-.10547.04297-.08984.0586-.10156.04687-.1211.02734-.13281.01563-.10156-.04297-.0586-.08985-.04687-.10546-.04297-.10157-.04297-.10546v-.1172l.0586-.08984.08593-.05859.17969-.11719.10156-.04687.10547-.04297.10547-.0586.10156-.04296.08985-.0625.10156-.04297.10547-.0586.10156-.04687.08984-.0586.10547-.04296.10156-.04297.08985-.0625.10156-.04297.13672-.01563.11719.03125.10156.04297.1211.03125.10156.04297.10546.04688.10157.04296.10547.04297.10156.04688.10547.04297.10156.04297.10547.04687.08594.0586.10546.04296.1172.03125.10546.04297.10156.04688.08985.0586.10547.04296.10156.04297.10547.04687.11719.02735.10156.04687.1211.02735h.14843l.08594-.0586.01562-.10156.0586-.08984-.02735-.1172-.07422-.07421-.11719-.17969-.07421-.07422-.08985-.07421-.17969-.1172-.08593-.05859-.10547-.04296-.10156-.04688-.26954-.17578-.05859-.08985-.07422-.07421-.0586-.08985-.04296-.10156-.03125-.11719-.01563-.13672v-.5625l-.01171-.1328-.01563-.13282-.03125-.11719-.01562-.13281-.01172-.13281-.03125-.1211-.22266-.22265-.0586-.08594-.01562-.10547.03125-.11719.13281-.01562v-91.41406H172.9922v1.45312l-.0586.23438-.35156 1.05078-.17187.52343-.1172.34766-.17577.41016-.11719.17187-.23438.29297-.23046.0586h-.35157l-.11718.05859-.23047.40625v.29297l.11719.17578.23046.23047.1172.23437.64062.75781.29297.46485.17578.23437.23047.35156.23437.34766.64063.8164.17578.46485.17187.41016.11719.69531.17578.46875.11719 1.39844.0586.46484v.875l.11718 1.04688v4.78125l-.0586.46484-.35156 1.28125-.17578.52344-.11328.41015-.35156.9297L172.93359 336l-.23437.58203-.11719.17578-.17187.34766-.17578.40625-.35157.8164-.0586.29297-.11327.29297-.11719.28906-.0586.17579-.11718.875-.0586.40625-.05859.11718-.0586.17579-.05859.17187-.23047.52734-.11718.17188v.23437l-.11719.23438-.0586.17187-.17577.58594v.28906l-.0586.17579v.29296l-.0586.11329-.05859.52734v.17187l-.05468.23438v2.6211l-.17578.8164-.1172.17578-.17577.23438-.1172.17187-.11327.23438-.58594.93359-.23047.28906-.29297.46485-.17578.23437-.28906.35156-.35156.69922-.11328.23047-.17579.41016-.17578.23046-.40625.52735-.8164.69922-.29297.17187-.28906.23438-.17579.11719-.17578.17578-.52344.40625-.52734.17578-.17187.17578-.23438.05469-.64062.17578h-.75782m12.21094 31.02344l-1.07422.44921.35938.89454 1.25-.71485.44531-.53906-.98047-.08985"/><path fill="#d3d3d3" fill-opacity="0" fill-rule="evenodd" d="M201.50781 416.59766h-.89453l.44922.6289.98047.35938.80469-.08985.4453-.98828-.17577.08985-.71485-.35547-.89453.35547m154.6211 59.0703l-.0586-.52343v-.29297l.11328-.29297.0586-.23046.46875-.46875h.11328l.11719-.11329.11718-.05859h.17579l.23437-.0586h.34766l.23437.0586.11719.0586.23047.17187.0586.17578.11718.58203v.29297l-.11719.17578-.17187.28906-.17579.17579-.52734.52343-.23047.23438-.11719.0586h-.17578l-.11718-.0586-.40625-.29297-.17579-.11719-.11718-.0586-.0586-.11327-.05468-.1172m6.64062-10.95702l-.0586-.17188v-1.10937l.0586-.17188.17578-.0586.17188-.05858h.17578l.23437-.0586.1172.0586.05858.69921-.05859.17188-.11719.17578-.11718.0586-.23438.52343-.11328.0586h-.23438l-.05859-.1172m9.61328-14.39062l-.11719-.17578v-.69922l.29297-.875.1172-.17187.17577-.35156.11328-.23047.1172-.29297.35155-.75781.1172-.23047.17187-.23438h.17578l.11719-.0586h.64062l.11719.0586.23437.23438.17188.11328.35156.29297.11719.11718.11328.17579v.11328l.11719.05859.11718.11719v.69922l-.05859.17578v.23047l-.0586.17578-.34765 1.05078-.11719.23047-.11719.23437-.11718.0586-.23047.23437-.64063.28906h-.875l-.41015-.11718-.64063-.46485"/><path fill="none" stroke="#bebebe" stroke-linecap="round" stroke-linejoin="round" stroke-miterlimit="10" stroke-width=".5" d="M467.95703 311.69531H144.02734v168.625h323.9297v-168.625"/><g clip-path="url(#a)"><path fill="#fff" fill-opacity="0" fill-rule="evenodd" d="M144 475.89063v4.4375h.0039H144V311.67188h.0039H144v164.21875"/></g><g clip-path="url(#b)"><path fill="#fff" fill-opacity="0" fill-rule="evenodd" d="M144.0039 480.32813V311.67188h31.0625v130.36718l-3.10546 2.78125-1.33203.86719-3.81641 3.57422-.6211.59765-4.4375.03907-2.59765 3.80078-.7539 4.4375 2.24609 4.4375 1.10547 1.0664 4.4375.01172 4.4375-.52734.92578-.55078 3.51172-1.52344 4.4414-1.50781 4.4375-.32422 3.98828-1.08203.44922-.10938.76563.10938 3.67187 1.11328 4.4414 3.23828.28907.08594 4.14844 1.01953L204 462.57422l2.13672-.72656 2.78516-3.71094-2.78516-3.58985-1.11719-.84765L201.69922 451l-2.54688 2.69922-1.89062 1.83594-4.4414.8828-.71095-2.71874-2.5078-4.4375-1.21876-1.39453-4.4375-.82031-4.4375-.5586-1.58984-1.66797-2.85156-2.78125V311.67187h48.82422v95.65625l-1.82422 1.98829-2.61328 2.76171-1.16016 1.67579 1.16016 1.1328 1.84375 3.3047 2.59375 3.15625v2.26562l-4.4375 1.83203-1.8125 1.625-2.0586 4.4375-.5664 2.1914-2.03516-2.1914-2.40625-2.26562-4.4375.30469-1.97656 1.96093.3125 4.4375 1.66406 2.67578 1.2461 1.76172-.27345 4.4375 1.76563 4.4414 1.69922 1.19532 4.4414-.03125 2.45313-1.16406L219.45313 448l1.93359-3.17969 2.5039-2.39453 1.96875-2.04297 2.46875-1.21484 3.21485-3.22266-3.21484-3.6836-.23047-.7539-1.17188-4.4375-3.03516-3.45703v-2.26562l4.4375.53515 3.78907-3.6914.64844-1.5547v6.8711l-3.4922 3.5625 3.4922 3.47656 4.4414-.60156 3.6289-2.875-3.6289-2.71094-4.4414-.85156v-6.8711l2.55078-2.8828-2.55078-3.00391-2.20704-1.4336-2.23047-1.84374-4.4375-.14454v-95.65625h53.26172v99.27344l-2.84375 2.8086 2.84375 2.67187 3.92188-2.67187-3.92188-2.8086v-99.27344h71.01172v148.6875l-2.38281 2.21485 2.38281 1.82031 2.33985-1.82031-2.33985-2.21485v-148.6875h66.57422v126.7422l-4.4375 1.04296-1.54687.92578-2.89063.94922-4.4375 2.10938-1.83594 1.3789-1.4375 4.4414 1.29297 4.4375 1.98047 2.23438 1.5664 2.20313-.07812 4.4375-1.08594 4.4414-.40234 1.80079-2.47265 2.63671-1.83594 4.4375 4.3086 3.33985 4.4375-.15625 4.4375-.47266 4.4375.90235 4.4414.45703 4.4375.03515 4.4375-.4453 4.4375-2.29688 1.82422-1.36329-1.82422-3.8164-.04297-.6211.04297-2.1914.55078-2.2461 3.88672-.71093.75.71094 1.33594 4.4375 2.35546 2.3203 2.33985-2.3203.95312-4.4375 1-4.44141.14453-1.76953.73829-2.66797-.73829-.7539-4.4375-3.25391-4.4414 1.53125-2.48828 2.47656-1.94922 3.96875-2.01563-3.96875-2.17187-4.4375-.25-.19922-2.48438.19922-1.95312.03906-.30078-.03906-4.13672-1.57813-2.63281-2.85937-.90625-4.4414 1.0664-4.4375-1.96875-1.96876V311.67187h53.25781v168.65625H144.00391"/></g><path fill="#50fcfc" fill-rule="evenodd" d="M160.64844 462.57422l-2.2461-4.4375.75391-4.4375 2.59766-3.80078 4.4375-.03906.62109-.59766 3.8164-3.57422 1.33204-.86719 3.10547-2.78125v6.65625l-3.1172.5664-1.3203.50782-4.4375 3.89063-.16407.03906-4.27343 1.73047-.95703 2.70703.95703 1.46094 4.4375-.69532 3.55859-.76562.8789-.71485 4.4375-2.16406 4.44141-.98828 4.4375-.3789.75-.19141-.75-.23438-4.4375-.61718-3.91406-3.58594-.52734-.5664v-6.65626l2.85156 2.78125 1.58984 1.66797 4.4375.5586 4.4375.8203 1.21875 1.39454 2.50781 4.4375.71094 2.71875 4.4414-.88281 1.89063-1.83594L201.69922 451v4.26563l-2.97656 2.87109 2.97656 1.94922 4.02344-1.94922-4.02344-2.8711V451l3.32031 2.69922 1.11719.84765 2.78516 3.58985-2.78516 3.71094-2.13672.72656-2.30078 1.01953-4.14844-1.01953-.28906-.08594-4.4414-3.23828-3.67188-1.11328-.76563-.10938-.44922.10938-3.98828 1.08203-4.4375.32422-4.4414 1.50781-3.51172 1.52344-.92578.55078-4.4375.52734-4.4375-.01171-1.10547-1.06641"/><path fill="#00e8fc" fill-rule="evenodd" d="M161.7539 459.59766l-.95702-1.46094.95703-2.70703 4.27343-1.73047.16407-.03906 4.4375-3.89063 1.3203-.50781 3.1172-.5664.52734.5664 3.91406 3.58594 4.4375.61718.75.23438-.75.1914-4.4375.37891-4.4414.98828-4.4375 2.16406-.87891.71485-3.5586.76562-4.4375.69532m39.94532.48828l-2.97656-1.94922 2.97656-2.8711 4.02344 2.8711-4.02344 1.94922"/><path fill="#50fcfc" fill-rule="evenodd" d="M204.47266 435.94531l-.3125-4.4375 1.97656-1.96094 4.4375-.30468v6.3789l-.57031.32422.5703.35547.3711-.35547-.3711-.32422v-6.3789l2.40626 2.26562 2.03516 2.1914.5664-2.1914 2.0586-4.4375 1.8125-1.625 4.4375-1.83203v2.6289l-1.48829.82813-2.94922.76563-2.89843 3.67187 2.89844 4.22656.73828.21094-.73828 3.4375-4.4375-1.94531-3.01172 2.94531.54297 4.4375 2.46875 2.10938 2.52734-2.10938 1.91016-4.09765.37109-.33985 4.0664-1.73047 4.4375-1.32421 1.37891-1.38282-1.3789-1.57812-.8672-2.85938-2.84374-4.4375-.72656-.82812v-2.6289l3.03515 3.45702 1.17188 4.4375.23047.7539 3.21484 3.6836-3.21484 3.22266-2.46875 1.21484-1.96875 2.04297-2.50391 2.39453L219.45312 448l-1.98437 1.26172-2.45313 1.16406-4.4414.03125-1.69922-1.19531-1.76563-4.4414.27344-4.4375-1.2461-1.76173-1.66405-2.67578"/><path fill="#fff" fill-opacity="0" fill-rule="evenodd" d="M210.57422 435.6211l-.57031.32421.5703.35547.3711-.35547-.3711-.32422"/><path fill="#00e8fc" fill-rule="evenodd" d="M212.54688 444.82031l-.54297-4.4375 3.01172-2.94531 4.4375 1.94531.73828-3.4375-.73828-.21094-2.89844-4.22656 2.89844-3.67187 2.94921-.76563 1.48828-.82812v1.96484l-4.4375 1.6875-1.27343 1.61328 1.27344 1.85938 4.4375 1.73047 2.5039-3.58985-2.5039-3.30078v-1.96484l.72656.82812 2.84375 4.4375.86719 2.85938 1.3789 1.57812-1.3789 1.38281-4.4375 1.32422-4.06641 1.73047-.3711.33985-1.91015 4.09765-2.52734 2.10938-2.46875-2.10938"/><path fill="#00d4fc" fill-rule="evenodd" d="M219.45313 433.36719l-1.27344-1.85938 1.27344-1.61328 4.4375-1.6875v1.40625l-3.82813 1.89453 3.82813 2.0586 1.4375-2.0586-1.4375-1.89453v-1.40625l2.5039 3.30078-2.5039 3.58985-4.4375-1.73047"/><path fill="#50fcfc" fill-rule="evenodd" d="M219.45313 414.88672l-1.16016-1.13281 1.16016-1.67579 2.61328-2.76171 1.82422-1.98829 4.4375.14454v3.26562l-3.10547 3.01563-1.13672 4.4375 4.24219 2.3828 2.4453-2.3828 1.63673-4.4375-4.08203-3.01563v-3.26562l2.23046 1.84375 2.20703 1.43359 2.55079 3.0039-2.55078 2.88282-.64844 1.55469-3.78906 3.6914-4.4375-.53515-2.59375-3.15625-1.84375-3.3047"/><path fill="#00c4fc" fill-rule="evenodd" d="M223.89063 433.5664l-3.82813-2.05859 3.82813-1.89453v1.40625l-.98829.48828.98828.53125.3711-.53125-.3711-.48828v-1.40625l1.4375 1.89453-1.4375 2.0586"/><path fill="#00b8fc" fill-rule="evenodd" d="M223.89063 432.03906l-.98829-.53125.98828-.48828.3711.48828-.3711.53125"/><path fill="#00e8fc" fill-rule="evenodd" d="M228.32813 420.57422l-4.2422-2.38281 1.13673-4.4375 3.10547-3.01563v6.33985l-.35938 1.11328.35938.20312.20703-.20312-.20703-1.11329v-6.33984l4.08203 3.01563-1.63672 4.4375-2.44531 2.3828"/><path fill="#00d4fc" fill-rule="evenodd" d="M228.32813 418.39453l-.35938-.20312.35938-1.11329.20703 1.11329-.20703.20312"/><path fill="#50fcfc" fill-rule="evenodd" d="M232.76563 430.54688l-3.4922-3.47657 3.4922-3.5625v1.58594l-1.9375 1.97656L232.76563 429l4.4414-1.8125.14844-.11719-.14844-.11328-4.4414-1.86328v-1.58594l4.4414.85156 3.6289 2.71094-3.6289 2.875-4.4414.60156"/><path fill="#00e8fc" fill-rule="evenodd" d="M232.76563 429l-1.9375-1.92969 1.9375-1.97656 4.4414 1.86328.14844.11328-.14844.11719-4.4414 1.8125"/><path fill="#50fcfc" fill-rule="evenodd" d="M277.15234 416.42578l-2.84375-2.67187 2.84375-2.8086 3.92188 2.8086-3.92188 2.67187m71.01172 47.96875l-2.38281-1.82031 2.38281-2.21485 2.33985 2.21485-2.33985 1.82031m53.26172 14.83594l-4.3086-3.33985 1.83594-4.4375 2.47266-2.63671.40235-1.80079 1.08593-4.4414.07813-4.4375-1.5664-2.20313-1.98048-2.23437-1.29297-4.4375 1.4375-4.4414 1.83594-1.37891 4.4375-2.10938 2.89063-.94922 1.54687-.92578v3.60156l-4.4375 1.19532-.89062.5664.89062 1.13281 4.4375 3.15625v.23047l-2.80469 4.35938-1.42187 4.4375-.21094 3.20703-.38281 1.23047-2.84766 4.4414-.90234 4.4375-.30469.91797-2.1875 3.51954 2.1875 1.6953 4.4375-.39452 4.4375-1.2422 4.4375 2.32032 4.4414 1.07813 4.4375.09765 4.4375-1.0664 3.32813-2.48829.14063-4.4375-1.08594-4.4375.26953-4.4414-2.65234-3.80078-.53906-.63672-3.89844-2.74219-4.4375-.78515-1.76953-.91016-2.67188-2.8086-4.4375-1.55078v-.23046l1.7539-4.28907-1.7539-1.76172v-3.60156l4.4375-1.04297 1.96875 1.96875-1.0664 4.4375.90625 4.4414 2.6328 2.85938 4.13673 1.57813.30078.03906 1.95312-.03906 2.48438-.19922.25.19922 2.17187 4.4375 2.01563 3.96875 1.94922-3.96875 2.48828-2.47656 4.4414-1.53125v.95312l-4.20312 3.05469-.23828.78906-2.10156 3.64844 2.10156 1.69531 2.89453 2.7461 1.54687 3.23046 1.37891-3.23046 1.27734-4.44141.83594-4.4375-3.49219-3.05469v-.95312l4.4375 3.2539.73829.7539-.73829 2.66798-.14453 1.76953-1 4.4414-.95312 4.4375-2.33985 2.32032-2.35546-2.32031-1.33594-4.4375-.75-.71094-3.88672.71094-.55078 2.24609-.04297 2.1914.04297.6211 1.82422 3.8164-1.82422 1.36329-4.4375 2.29687-4.4375.44531-4.4375-.03515-4.4414-.45703-4.4375-.90235-4.4375.47266-4.4375.15625"/><path fill="#00e8fc" fill-rule="evenodd" d="M401.42578 477.58594l-2.1875-1.69531 2.1875-3.51954.30469-.91796.90234-4.4375 2.84766-4.44141.38281-1.23047.21094-3.20703 1.42187-4.4375 2.8047-4.35938 4.4375 1.55079v3.10156l-4.4375.10156-3.33204 4.04297.08594 4.4375-1.1914 1.7461-1.88673 2.6953-.35547 4.4375 2.2422 2.96875 4.4375.48438 3.83983.98438.59766.3164 4.4414 2.11328 4.4375.20703 4.4375-2.10937.70704-.52735 1.21875-4.4375-1.92578-3.49609-1.46094-.9414.98828-4.44141-3.96484-4.41797-.05078-.01953-4.38672-1.24219-4.4414-2.90234v-3.10156l2.67187 2.80859 1.76953.91015 4.4375.78516 3.89844 2.74219.53906.63672 2.65234 3.80078-.26953 4.4414 1.08594 4.4375-.14063 4.4375-3.32812 2.48829-4.4375 1.0664-4.4375-.09765-4.4414-1.07813-4.4375-2.32031-4.4375 1.24219-4.4375.39453"/><path fill="#00d4fc" fill-rule="evenodd" d="M405.86328 474.42188l-2.24219-2.96875.35547-4.4375 1.88672-2.69532 1.1914-1.7461-.08593-4.4375 3.33203-4.04296 4.4375-.10156v.73047l-4.4375.45703-2.4375 2.95703.5039 4.4375-2.5039 3.66406-.54297.77735.1914 4.4375.35157.46093 4.4375 1.9961 4.4375 1.27734 1.69531.70313 2.7461 1.40625 4.4375.3164 3.19531-1.72265 1.24219-3.3047.38672-1.1328-.38672-.70313-4.4375-2.91016-.27735-.82421.27735-1.77344 1.26953-2.66797-1.26953-1.41406-4.4375-2.23829-.39844-.78515-4.04297-3.41406v-.73047l4.4414 2.90234 4.38673 1.24219.05078.01953 3.96484 4.41797-.98828 4.4414 1.46094.94141 1.92578 3.4961-1.21875 4.4375-.70703.52734-4.4375 2.10937-4.4375-.20703-4.4414-2.11328-.59767-.3164-3.83984-.98438-4.4375-.48438"/><path fill="#00e8fc" fill-rule="evenodd" d="M405.86328 445.95313l-.89062-1.13282.89062-.5664 4.4375-1.19532 1.7539 1.76172-1.7539 4.28906-4.4375-3.15625"/><path fill="#00c4fc" fill-rule="evenodd" d="M405.51172 471.45313l-.1914-4.4375.54296-.77735 2.5039-3.66406-.5039-4.4375 2.4375-2.95703 4.4375-.45703v.73437l-4.4375.8086-1.54297 1.87109.92188 4.4375-3.17578 4.4414.9453 4.4375 2.85157 1.46094 4.4375 1.4414 3.69922 1.53517.74219.3789 4.4375.42578 1.49219-.80469-.02735-4.4375-1.46484-.97656-1.16406-3.46094-.25782-4.4414-3.01562-1.92969-1.26563-2.50781-3.17578-2.67969v-.73437l4.04297 3.41406.39844.78515 4.4375 2.23829 1.26953 1.41406-1.26953 2.66797-.27735 1.77344.27735.82421 4.4375 2.91016.38672.70313-.38672 1.1328-1.24219 3.3047-3.19531 1.72265-4.4375-.3164-2.7461-1.40625-1.6953-.70313-4.4375-1.27734-4.4375-1.9961-.35157-.46094"/><path fill="#00b8fc" fill-rule="evenodd" d="M407.44922 471.45313l-.94531-4.4375 3.17578-4.44141-.92188-4.4375 1.54297-1.8711 4.4375-.80859v.73438l-4.4375 1.16015-.64844.78516.64844 2.57422.42578 1.86328-.42578.76562-2.71875 3.67579 1.8164 4.4375.90235.46093 4.4375 1.60938 4.4414 1.3125 3.38282-3.38281-1-4.4375-2.05469-4.44141-.32812-.21094-2.13281-4.22656-2.3086-1.94531v-.73438l3.17578 2.67969 1.26563 2.50781 3.01562 1.92969.25781 4.4414 1.16407 3.46094 1.46484.97656.02735 4.4375-1.4922.8047-4.4375-.42579-.74218-.3789-3.69922-1.53516-4.4375-1.4414-2.85156-1.46094"/><path fill="#00a8fc" fill-rule="evenodd" d="M409.39844 471.45313l-1.8164-4.4375 2.71874-3.67579.42578-.76562-.42578-1.86328-.64844-2.57422.64844-.78516 4.4375-1.16015v.73046l-3.80469 1.21485.60938 4.4375-1.24219 2.21875-1.64062 2.22265 1.64062 3.28516 1.17188 1.15235 3.26562 1.24218 4.4414.46485 1.70704-1.70704-.21094-4.4375-1.4961-2.92187-.8125-1.51953-2.1914-4.4375-1.4375-1.21485v-.73046l2.3086 1.9453 2.1328 4.22657.32813.21094 2.05469 4.4414 1 4.4375-3.38281 3.38282-4.4414-1.3125-4.4375-1.60938-.90235-.46094"/><path fill="#009800" fill-rule="evenodd" d="M410.30078 470.30078l-1.64062-3.28515 1.64062-2.22266 1.24219-2.21875-.60938-4.4375 3.8047-1.21485v.73438l-1.50782.48047-.875 4.4375-2.05469 3.67578-.5664.76563.5664 1.1289 3.35938 3.3086 1.07812.41015 4.4414-.3789.03126-.03125.57812-4.4375-.60937-1.19141-1.73438-3.25-2.13672-4.4375-.5703-.48047v-.73438l1.4375 1.21485 2.1914 4.4375.8125 1.51953 1.4961 2.92188.21093 4.4375-1.70703 1.70703-4.4414-.46485-3.26563-1.24219-1.17188-1.15234"/><path fill="#00ac00" fill-rule="evenodd" d="M410.30078 468.14453l-.5664-1.1289.5664-.76563 2.05469-3.67578.875-4.4375 1.50781-.48047v1.15234l-1.57031 3.76563-.69922 4.4414 2.26953 2.19922 2.72656-2.19921-.9414-4.44141-1.78516-3.76563v-1.15234l.57031.48047 2.13672 4.4375 1.73438 3.25.60937 1.1914-.57812 4.4375-.03125.03125-4.4414.37891-1.07813-.41015-3.35938-3.3086"/><path fill="#00c800" fill-rule="evenodd" d="M414.73828 469.21484l-2.26953-2.19921.69922-4.44141 1.57031-3.76563 1.78516 3.76563.9414 4.4414-2.72656 2.19922"/><path fill="#00e8fc" fill-rule="evenodd" d="M436.92969 464.26953l-2.10156-1.69531 2.10156-3.64844.23828-.78906 4.20312-3.05469v1.58985l-2.01953 1.46484 2.01953 4.32031 1.67579-4.32031-1.67579-1.46485v-1.58984l3.4922 3.05469-.83595 4.4375-1.27734 4.4414-1.3789 3.23047-1.54688-3.23046-2.89453-2.7461"/><path fill="#00d4fc" fill-rule="evenodd" d="M441.3711 462.45703l-2.01954-4.32031 2.01953-1.46485 1.67579 1.46485-1.67579 4.32031"/><g clip-path="url(#c)"><path fill="#fff" fill-opacity="0" fill-rule="evenodd" d="M467.9961 480.32813H468V311.67188h-.0039H468v168.65625h-.0039"/></g><path fill="#fff" fill-opacity="0" fill-rule="evenodd" d="M437.07813 473.32031l.7578-5.79297-9.875-1.29296-.7578 5.79296 9.875 1.29297"/><path fill-rule="evenodd" d="M429.47266 468.79688l.0664-.50391 6.24219.8164-.10156.78125-4.45313-.58593-.17969 1.3789-.55078-.07421.00782-.5625-.01954-.25782-.05859-.23828-.11328-.21875-.1875-.19922-.27344-.17969-.3789-.15625"/><g clip-path="url(#d)"><path fill="none" stroke="#000" stroke-linecap="round" stroke-linejoin="round" stroke-miterlimit="10" stroke-width=".5" d="M142.35156 477.22656l3.29688 6.20313"/></g><g clip-path="url(#e)"><path fill="none" stroke="#000" stroke-linecap="round" stroke-linejoin="round" stroke-miterlimit="10" stroke-width=".5" d="M157.17188 476.8164l.28515 7.02344"/></g><g clip-path="url(#f)"><path fill="none" stroke="#000" stroke-linecap="round" stroke-linejoin="round" stroke-miterlimit="10" stroke-width=".5" d="M174.14063 480.51563l-7.01954-.375"/></g><g clip-path="url(#g)"><path fill="none" stroke="#000" stroke-linecap="round" stroke-linejoin="round" stroke-miterlimit="10" stroke-width=".5" d="M187.45703 480.32031l-7.02344.01953"/></g><g clip-path="url(#h)"><path fill="none" stroke="#000" stroke-linecap="round" stroke-linejoin="round" stroke-miterlimit="10" stroke-width=".5" d="M186.4375 480.32031l.57813 1.08203"/></g><g clip-path="url(#i)"><path fill="none" stroke="#000" stroke-linecap="round" stroke-linejoin="round" stroke-miterlimit="10" stroke-width=".5" d="M199.85547 482.69531l-5.1914-4.73437"/></g><g clip-path="url(#j)"><path fill="none" stroke="#000" stroke-linecap="round" stroke-linejoin="round" stroke-miterlimit="10" stroke-width=".5" d="M210.6914 483.83984l-.23437-7.02343"/></g><g clip-path="url(#k)"><path fill="none" stroke="#000" stroke-linecap="round" stroke-linejoin="round" stroke-miterlimit="10" stroke-width=".5" d="M223.28516 483.78906l1.21093-6.92187"/></g><g clip-path="url(#l)"><path fill="none" stroke="#000" stroke-linecap="round" stroke-linejoin="round" stroke-miterlimit="10" stroke-width=".5" d="M238.38281 483.64063l-2.35156-6.6211"/></g><g clip-path="url(#m)"><path fill="none" stroke="#000" stroke-linecap="round" stroke-linejoin="round" stroke-miterlimit="10" stroke-width=".5" d="M251.64453 483.66016L249.39843 477"/></g><g clip-path="url(#n)"><path fill="none" stroke="#000" stroke-linecap="round" stroke-linejoin="round" stroke-miterlimit="10" stroke-width=".5" d="M266.67188 482.40234L261 478.25391"/></g><g clip-path="url(#o)"><path fill="none" stroke="#000" stroke-linecap="round" stroke-linejoin="round" stroke-miterlimit="10" stroke-width=".5" d="M280.48438 479.22266l-6.66797 2.21093"/></g><g clip-path="url(#p)"><path fill="none" stroke="#000" stroke-linecap="round" stroke-linejoin="round" stroke-miterlimit="10" stroke-width=".5" d="M293.25 478.1875l-5.57031 4.28516"/></g><g clip-path="url(#q)"><path fill="none" stroke="#000" stroke-linecap="round" stroke-linejoin="round" stroke-miterlimit="10" stroke-width=".5" d="M305.25 477.13672l-2.9414 6.38281"/></g><path fill="none" stroke="#000" stroke-linecap="round" stroke-linejoin="round" stroke-miterlimit="10" stroke-width=".5" d="M304.82422 478.0664l1.22265-.0703"/><g clip-path="url(#r)"><path fill="none" stroke="#000" stroke-linecap="round" stroke-linejoin="round" stroke-miterlimit="10" stroke-width=".5" d="M319.21875 477.53125l-4.2461 5.59766"/></g><path fill="none" stroke="#000" stroke-linecap="round" stroke-linejoin="round" stroke-miterlimit="10" stroke-width=".5" d="M318.60156 478.34375l1.21094.19531"/><g clip-path="url(#s)"><path fill="none" stroke="#000" stroke-linecap="round" stroke-linejoin="round" stroke-miterlimit="10" stroke-width=".5" d="M332.40234 477.4336l-3.98437 5.78906"/></g><path fill="none" stroke="#000" stroke-linecap="round" stroke-linejoin="round" stroke-miterlimit="10" stroke-width=".5" d="M331.82422 478.27734l1.21875.13672"/><g clip-path="url(#t)"><path fill="none" stroke="#000" stroke-linecap="round" stroke-linejoin="round" stroke-miterlimit="10" stroke-width=".5" d="M345.75781 477.46484l-4.0664 5.73047"/></g><path fill="none" stroke="#000" stroke-linecap="round" stroke-linejoin="round" stroke-miterlimit="10" stroke-width=".5" d="M345.16797 478.29688l1.21484.15625"/><g clip-path="url(#u)"><path fill="none" stroke="#000" stroke-linecap="round" stroke-linejoin="round" stroke-miterlimit="10" stroke-width=".5" d="M359.05078 477.44531l-4.01953 5.76563"/></g><path fill="none" stroke="#000" stroke-linecap="round" stroke-linejoin="round" stroke-miterlimit="10" stroke-width=".5" d="M358.46484 478.28516l1.21875.14843"/><g clip-path="url(#v)"><path fill="none" stroke="#000" stroke-linecap="round" stroke-linejoin="round" stroke-miterlimit="10" stroke-width=".5" d="M371.92969 477.1875l-3.14844 6.28125"/></g><path fill="none" stroke="#000" stroke-linecap="round" stroke-linejoin="round" stroke-miterlimit="10" stroke-width=".5" d="M371.92969 477.1875l2.45312-.0586"/><g clip-path="url(#w)"><path fill="none" stroke="#000" stroke-linecap="round" stroke-linejoin="round" stroke-miterlimit="10" stroke-width=".5" d="M385.89844 477.60938l-4.45313 5.4375"/></g><g clip-path="url(#x)"><path fill="none" stroke="#000" stroke-linecap="round" stroke-linejoin="round" stroke-miterlimit="10" stroke-width=".5" d="M394.17578 478.21875l5.6211 4.21875"/></g><path fill="none" stroke="#000" stroke-linecap="round" stroke-linejoin="round" stroke-miterlimit="10" stroke-width=".5" d="M394.99219 478.83594l.1914-1.21485"/><g clip-path="url(#y)"><path fill="none" stroke="#000" stroke-linecap="round" stroke-linejoin="round" stroke-miterlimit="10" stroke-width=".5" d="M412.29688 477.4375l-3.9922 5.78125"/></g><path fill="none" stroke="#000" stroke-linecap="round" stroke-linejoin="round" stroke-miterlimit="10" stroke-width=".5" d="M411.71875 478.28125l1.21875.14063"/><g clip-path="url(#z)"><path fill="none" stroke="#000" stroke-linecap="round" stroke-linejoin="round" stroke-miterlimit="10" stroke-width=".5" d="M425.02734 477.10938l-2.8203 6.4375"/></g><path fill="none" stroke="#000" stroke-linecap="round" stroke-linejoin="round" stroke-miterlimit="10" stroke-width=".5" d="M425.02734 477.10938l2.44532-.1836"/><g clip-path="url(#A)"><path fill="none" stroke="#000" stroke-linecap="round" stroke-linejoin="round" stroke-miterlimit="10" stroke-width=".5" d="M439.6289 482.58203l-5.39452-4.50781"/></g><g clip-path="url(#B)"><path fill="none" stroke="#000" stroke-linecap="round" stroke-linejoin="round" stroke-miterlimit="10" stroke-width=".5" d="M453.32813 482.01953l-6.16407-3.3789"/></g><g clip-path="url(#C)"><path fill="none" stroke="#000" stroke-linecap="round" stroke-linejoin="round" stroke-miterlimit="10" stroke-width=".5" d="M466.82813 481.6289l-6.53125-2.59765"/></g><g clip-path="url(#D)"><path fill="none" stroke="#000" stroke-linecap="round" stroke-linejoin="round" stroke-miterlimit="10" stroke-width=".5" d="M147.39063 466.09375l-6.78125 1.83984"/></g><path fill="none" stroke="#000" stroke-linecap="round" stroke-linejoin="round" stroke-miterlimit="10" stroke-width=".5" d="M146.40625 466.36328l.83594.89453m13.58203-.41797l-7.01953.34766m6-.29687l.6289 1.05468m13.67578-.4336l-6.95703-.99608m5.94532.85156l.41406 1.15625m13.91797-1.96875l-6.96875.91797m5.95312-.78516l.71485 1m13.60156-1.22266l-6.9414 1.09766m5.93359-.9375l.73437.98047m13.58203-1.1875l-6.92578 1.1914m5.91797-1.01562l.75.96875m13.57031.04297l-6.92578-1.1836m5.92188 1.01172l.3828 1.16797m13.4297.3164l-5.91016-3.80858m5.05078 3.2539l-.10547 1.22266m13.79688-.07813l-4.94531-4.98828m4.22656 4.26563l-.36328 1.16797m14.78125-.89063l-5.71094-4.09766m4.8789 3.5l-.16406 1.21875m14.89844-3.3789l-6.88281 1.41797m5.8789-1.21094l.78516.94531m13.30078-1.8711l-6.42187 2.85548M292.74219 466l.96484.75781m12.96875-1.73437l-5.78906 3.98047m4.94531-3.40235l1.08985.5664m13.09375-1.10937l-5.83985 3.91016m4.99219-3.33984l1.07812.57812m12.9922-1.28125l-5.65235 4.17578m4.82812-3.5664l1.10938.52734m12.94531-1.2461l-5.48437 4.39454m4.6875-3.7539l1.125.48437m11.9375-2.00391l-3.38672 6.15234m2.89453-5.2578l1.22656.01562m7.51953 1.16406l6.73438 2.0039m6.79687-2.55078l6.30469 3.09766m-5.38672-2.64844l-.03906-1.22656m18.66406 4.02344l-6.15234-3.39453m17.49218 5.03515l-2.20312-6.67578m2.20312 6.67578l-1.6953 1.77344m17.20312-6.33203l-6.58594 2.4414m6.58594-2.4414l1.83593 1.6289m-2.79296-1.27343l.91406.8125m13.57812.05469h-7.02734m7.02734 0l1.15235 2.16406m11.86718-.75781l-6.4375-2.81641m6.4375 2.8164l.1875 2.44532m12.375-1.35156l-4.93359-5.00391m4.9336 5.0039l-.73438 2.33985"/><g clip-path="url(#E)"><path fill="none" stroke="#000" stroke-linecap="round" stroke-linejoin="round" stroke-miterlimit="10" stroke-width=".5" d="M147.50781 453.89063l-7.01562-.38282"/></g><path fill="none" stroke="#000" stroke-linecap="round" stroke-linejoin="round" stroke-miterlimit="10" stroke-width=".5" d="M146.48828 453.83594l.51563 1.11328m13.82422-1.3711l-7.02344.23829m20.28906.47656l-6.92578-1.1875m5.91797 1.01172l.38281 1.16797m13.98828-1.64063l-7.02344.10938m6.00391-.09375l.58984 1.07422m13.73438-.75391l-7.0039-.5625m5.98437.48047l.48828 1.125m13.84375-1.64453l-6.9961.63671m6.9961-.63671l1.34375 2.05468m11.98047-1.91406l-7.01563.35938m7.01563-.35938l1.26172 2.10156m11.95312-1.0625l-6.8164-1.71875m6.8164 1.71875l.58594 2.37891m12.34375-1.44531L247.5 451.90625m5.16406 3.0625l-.0586 1.22656m14.73438-2.23828l-7.0078-.51562m5.98827.4414l.4961 1.1211m13.84375-1.48438l-7.01954.35547m5.9961-.30078l.63281 1.05078m13.66406-1.5L287 454.27344m6.9336-1.14844l1.48827 1.94922m11.69922-2.46485l-6.67968 2.1797m6.67968-2.1797l1.76563 1.69922m-2.73828-1.3828l.88281.85155m13.07812-1.88672l-6.02734 3.61329m6.02734-3.61329l2.10157 1.26563m-2.97657-.73828l1.05079.63281m13.41015-.60156l-6.5664 2.5m6.5664-2.5l1.84766 1.61328m-2.80469-1.25l.92578.8086m13.21485-1.47657l-6.3047 3.10547m6.3047-3.10547l1.98828 1.4336m10.47656-2.53516l-4.60547 5.3086m4.60547-5.3086l2.39062.55078m8.94141-1.39453l-.64062 7m.54687-5.98047l1.13281-.47656m9.66407.29297l4.58593 5.32421m-3.91797-4.54687l.44532-1.14453m11.01953 2.51953l6.94922 1.02344m-5.9375-.875l-.41407-1.15625m12.91407 2.77734l6.5586-2.51953m-5.60548 2.15625l-.92578-.80469m16.23438 3.40625l.66406-6.9961m-.66406 6.9961l-2.26954.9414m19.16016-3.08593l-6.48828-2.70312m6.48828 2.70312l.23047 2.4414m12.08594-1.08984L448 450.9961m3.83984 4.6172L451.375 456.75m14.5039-.41016l-4.63671-5.28125m4.63672 5.28125l-.8672 2.29297"/><g clip-path="url(#F)"><path fill="none" stroke="#000" stroke-linecap="round" stroke-linejoin="round" stroke-miterlimit="10" stroke-width=".5" d="M147.39844 439.48438l-6.79688 1.79687"/></g><path fill="none" stroke="#000" stroke-linecap="round" stroke-linejoin="round" stroke-miterlimit="10" stroke-width=".5" d="M146.41016 439.7461l.83203.90234m13.51953.41406l-6.89453-1.35547m5.89062 1.15625l.35938 1.17578m13.82422-.48437l-6.625-2.34375m5.66406 2.0039l.17969 1.21094m14.28906-2.32031l-7.00781.55469m7.0078-.5547l1.31642 2.07032m11.99609-1.4961l-7.0039-.59374m7.0039.59375l.96484 2.25781m12.25781-1.70313l-6.8164-1.70312m6.8164 1.70312l.58985 2.38282m12.8164-3.54297l-7 .61719m7-.6172l1.33594 2.0586m11.91406-2.48047l-6.87109 1.46094m6.8711-1.46094l1.57812 1.87891m11.8125-1.27734l-7.02344.2578m7.02344-.2578l1.23047 2.125m12.07422-2.28516l-7 .57813m7-.57813l1.32812 2.0625m11.99219-2l-7.01172.45313m7.01172-.45313l1.28906 2.08594m12.03125-1.99219l-7.02344.26563m7.02344-.26563l1.23438 2.1211m11.64062-3.69141l-6.14453 3.41015m6.14453-3.41015l2.0586 1.33593m11-1.73828l-5.62891 4.21094m5.6289-4.21094l2.21876 1.04297m11.5-.34765l-6.4375 2.8203m6.4375-2.8203l1.92578 1.52343m-2.86328-1.11328l.96484.76172m13.4414-.7539l-6.74218 1.98437m6.74219-1.98438l1.71484 1.75391m11.1289-2.74219l-5.80077 3.96485m5.80078-3.96485l2.17187 1.13672m10.14844-2.10547l-3.8125 5.90235m3.25781-5.04297l1.22266.10156m9.33594-1.23047l2.8125 6.4375m-2.40235-5.5l.76172-.96094m11.10156.71875l4.89453 5.04688m-4.89453-5.04688l.7539-2.33203m11.5 5.05078l7.01563-.39062m-5.99609.33594l-.63281-1.05078m14.6914 3.96093l3.4922-6.09765m-3.4922 6.09765l-2.45312-.07812m20.25-.76953l-5.47266-4.40625m4.67578 3.76562l-.23046 1.20313m14.83593-1.3789L447.01562 439m5.51954 2.36328l.10546 1.22266m11.97266 1.14844l-2.10547-6.70313m1.80078 5.73047l-.85937.8711"/><g clip-path="url(#G)"><path fill="none" stroke="#000" stroke-linecap="round" stroke-linejoin="round" stroke-miterlimit="10" stroke-width=".5" d="M146.92188 425.11328l-5.84375 3.91016"/></g><path fill="none" stroke="#000" stroke-linecap="round" stroke-linejoin="round" stroke-miterlimit="10" stroke-width=".5" d="M146.92188 425.11328l2.16015 1.16016m11.6914.1836l-6.91796 1.22265m6.91797-1.22266l1.51172 1.9336m11.85547-1.4375l-7.02344.23046m6.0039-.19922l.60938 1.06641m13.65234-.2539l-6.875-1.45313m6.875 1.45313l.67969 2.35546m12.71094-3.02734l-7.02735-.11328m7.02735.11328l1.11719 2.1875m12.19921-2.2539l-7.02734.01952m7.02734-.01953l1.15625 2.16407m12.15235-1.98047l-7.01563-.34766m5.9961.29688l.51953 1.11328m13.8164-1.04297l-7.01953-.38672m7.01953.38672l1.03125 2.22656M253.9883 426.5l-6.9336 1.13672m6.9336-1.13672l1.48437 1.95313m11.78515-2.17188l-6.84765 1.57422m6.84765-1.57422l1.60938 1.85156m11.75781-1.57812l-6.94922 1.02734m5.9375-.8789l.73047.98828m12.69531-3.01563l-5.14453 4.78516m4.39453-4.08985l1.16016.40235m13.3711-.46875l-6.07813 3.52734m5.19531-3.01172l1.03906.64844m12.71875-1.76562l-5.19922 4.73046m4.44141-4.04296l1.15625.41406m13.625.07812l-6.61328 2.3711m5.64844-2.02735l.91015.82422m13.0625-1.8086l-6 3.65235m5.1289-3.1211l1.0547.625m12.6289-1.80077l-4.9961 4.9414m4.26954-4.22265l1.17188.36718m11.95312-1.7539l-3.16016 6.27734m2.69922-5.36328l1.22657-.02734m11.09765-1.25782l-.26172 7.01954m.26172-7.01954l2.21094-1.0703m12.42969 1.3828l-2.91016 6.39454m2.91016-6.39454l2.44922-.15234m-2.875 1.08203l1.22656-.07812m11.78906 5.78125l-1.46094-6.8711m1.25 5.8711l-.9414.78906m12.30468-.01563l2.8672-6.41796m-2.8672 6.41796l-2.44921.16797m2.86718-1.10156l-1.22656.08203m13.09766.15235l4.91797-5.01954m-4.20313 4.28907l-1.17578-.34766m18.92578.82422l-5.38281-4.51172m4.60156 3.85547l-.2539 1.20312m13.1953.35938l-3.0703-6.32422m2.62109 5.40234l-.72266.9922"/><g clip-path="url(#H)"><path fill="none" stroke="#000" stroke-linecap="round" stroke-linejoin="round" stroke-miterlimit="10" stroke-width=".5" d="M146.77344 411.59375l-5.54688 4.3164"/></g><path fill="none" stroke="#000" stroke-linecap="round" stroke-linejoin="round" stroke-miterlimit="10" stroke-width=".5" d="M146.77344 411.59375l2.23828 1.0039m-3.04688-.375l1.1211.5m13.52734-.18359l-6.59375 2.42969m6.59375-2.42969l1.82813 1.63672m11.64843-1.03515l-6.91797 1.22656m5.91016-1.05078l.75781.96875m13.60938-.28125L180.4414 413.5m5.98828.4336l.4961 1.12109m12.64062 1.34765l-4.61328-5.30078m3.9414 4.53125l-.4375 1.14453m14.65234-.58984l-5.0664-4.86719m4.32812 4.16016l-.33203 1.17969m15.34766-2.57422l-6.99219-.66797m6.99219.66797l.9414 2.26953m11.1797.05469l-4.60548-5.3125m4.60547 5.3125l-.88281 2.28906m15.08594-3.47266l-6.3789-2.94922m6.3789 2.94922l.13672 2.44922m13.48437-4.25l-6.9961.65234m6.9961-.65234l1.35156 2.05078m11.90625-1.0039l-6.8789-1.4375m5.8789 1.22656l.33985 1.17969m13.20703-3.97266l-5.33984 4.57031m4.5625-3.90625l1.14062.44922m9.64844-2.28516l1.26562 6.91407m-1.08203-5.90625l.96485-.76172m12.1328-.23828l1.33204 6.89843m-1.14063-5.89453l.95704-.77343m12.73437-.29297l.19922 7.02343m-.17188-6.0039l1.06641-.60547m14.92188.73437l-5.20313 4.72266m5.20313-4.72266l2.30859.83204m10.97266-.8672l-5.13672 4.79688m5.13672-4.79687l2.3203.79687m11.0547-.73047l-5.25391 4.66407m4.48828-3.98828l1.14844.42968m11.83984-1.93359l-3.07422 6.32031m3.07422-6.32031l2.45313-.08984m-2.89844 1.0078l1.22656-.04296m12.35938-.95313l-2.72266 6.47657m2.72266-6.47657l2.4414-.22265m-2.83593 1.16406l1.21875-.11328m13.04296-.53516l-3.82812 5.89063m3.82812-5.89063l2.44532.21485m9.20703-.77344l-.5 7.00781m.5-7.00781l2.24219-.9961m10.05078 1.07032l1.54297 6.85547m-1.54297-6.85547l1.85937-1.59766m-1.63672 2.59766l.92969-.80078m9.6836 1.89843l6.5039 2.66016m-6.5039-2.66016l-.25-2.4375m14.21484 6.13282l5.19922-4.72657m-4.44141 4.03907l-1.15625-.41407"/><g clip-path="url(#I)"><path fill="none" stroke="#000" stroke-linecap="round" stroke-linejoin="round" stroke-miterlimit="10" stroke-width=".5" d="M146.5 397.96875l-5 4.9375"/></g><path fill="none" stroke="#000" stroke-linecap="round" stroke-linejoin="round" stroke-miterlimit="10" stroke-width=".5" d="M146.5 397.96875l2.34375.73438m-3.07031-.01563l1.17187.36719m13.3125-.53906l-5.88281 3.84375m5.88281-3.84375l2.14844 1.18359m10.58984-1.85938l-4.73047 5.19922m4.03907-4.44531l1.1914.30469m13.96094 1.5664l-7.02344-.05078m6.00391.04297l.5664 1.08594m11.21485 2.27734l-1.91406-6.76172m1.63281 5.77735l-.88281.84765m12.8789.21094l1.28125-6.91015m-1.09375 5.90234l-1.17187.3711m17.0039.02343l-4.125-5.6875m4.125 5.6875l-1.07421 2.20703m14.99218-2.76172l-5.33203-4.57812m5.33203 4.57812l-.53515 2.39453m13.01953-1.6875l-3.67188-5.99218m3.67188 5.99218l-1.2461 2.11329m15.8047-3.41407l-6.15626-3.39062m6.15625 3.39062l-.03515 2.45313m13.28125-2.33203l-6.01953-3.63282m6.01953 3.63282l-.13282 2.44921m13.94922-4.35937l-7.02343.1914m7.02343-.1914l1.21094 2.13281m12.04688-2.6875l-6.90625 1.29688m6.90625-1.29688l1.53125 1.91797m7.32421-4.63672l2.01172 6.73438m-1.71875-5.7539l.875-.85938m14.90235.19921l-3.4961 6.09375m2.98828-5.20703l1.22266.03907m14.21094 1.09765l-6.72266 2.04688m6.72266-2.04688l1.73437 1.73828m-2.71093-1.4414l1.73437 1.73828m12.11719-2.96485l-5.83985 3.90625m5.83985-3.90625l2.16406 1.16016m-3.01172-.58984l1.07813.57812m12.23047-2.03515l-4.13282 5.68359m4.13282-5.6836l2.42968.34376m10.0625-.78907l-2.48828 6.57032m2.48828-6.57032l2.4336-.30859m-2.79297 1.26563l1.21484-.15625m12.07422-.92188l-1.71484 6.8164m1.71484-6.8164l2.3789-.58984m13.40235 2.85937l-6.64844 2.27344m5.6836-1.9414l.89453.83984m11.1875-3.36329l-2.2539 6.65625m1.92577-5.6875l1.21094-.1953m10.46094-.85548l1.6914 6.82032m-1.6914-6.82032l1.82422-1.64062m-1.57813 2.63281l.91016-.82031m11.6289.00781l2.75 6.46485m-2.75-6.46485l1.54297-1.91015m-1.14453 2.84765l.77344-.95312m10.32812 4.71875l6.38282-2.94141m-5.45313 2.51172l-.97656-.74219"/><g clip-path="url(#J)"><path fill="none" stroke="#000" stroke-linecap="round" stroke-linejoin="round" stroke-miterlimit="10" stroke-width=".5" d="M146.46484 384.61719l-4.92968 5.01172"/></g><path fill="none" stroke="#000" stroke-linecap="round" stroke-linejoin="round" stroke-miterlimit="10" stroke-width=".5" d="M145.7461 385.34766l1.17577.34765m12.44141-1.42578l-4.09766 5.70703m4.09766-5.70703l2.4336.32813m9.82421-.84375l-1.98047 6.74218m1.98047-6.74218l2.40235-.4961m-2.6914 1.47656l1.20312-.25m10.35547-.71093L185 390.47656m-2.10938-6.70312l1.72266-1.75m10.70313 2.17578l3.89062 5.85156m-3.32812-5l.58593-1.08203m10.76172 4.22266l6.69531-2.13672m-5.71875 1.82812l-.8789-.85937m15.14062 3.3125l2.85157-6.42578m-2.85157 6.42578l-2.4453.17578m18.16405-.01563l-1.95703-6.74609m1.67188 5.76563l-.8789.85546m15.26952-.21484l-3.53906-6.0664m3.53906 6.0664L251 392.24609m15.4336-2.7578l-5.19532-4.73048m5.19531 4.73047l-.60547 2.3789m14.47266-3.18359l-6.29687-3.12109m6.29687 3.1211l.07031 2.45312m13.33594-5.36719l-6.48437 2.70703m5.54297-2.3125l.94921.77735m13.5586.5625l-6.98438-.75782m5.96875.64454l.45703 1.14062m13.4297-3.15234l-6.09767 3.48828m6.09766-3.48828l2.07813 1.30859m11.58593-.45703l-6.79687 1.78515m6.79687-1.78515l1.66407 1.80078m-2.65235-1.54297l.83203.90235m12.85157-2.42188l-5.5547 4.3086m5.5547-4.3086l2.23828 1.00781m11.0586-1.02734l-5.51954 4.34765m5.51953-4.34765l2.2461.98828m-3.05079-.35547l1.125.49219m13.39844-.47656l-6.32812 3.05078m6.32812-3.05078l1.98047 1.44921m-2.89844-1.0039l.98828.72265m12.26954-2.39062l-4.37891 5.4961m4.3789-5.4961l2.41407.44922m10.40234-.78125l-3.3789 6.16015m3.3789-6.16015l2.45313.02734m-2.94532.86719l1.22657.01563m13.1289-.53907l-4.47265 5.41797m4.47265-5.41797l2.40235.48828m9.26562-1.24218l-1.17969 6.92578m1.1797-6.92578l2.32812-.77344m-2.5 1.78125l1.16406-.38672m11.8086-.67188l-.15235 7.02735m.15234-7.02735l2.1914-1.10156m-2.21483 2.125l1.09765-.55078m11.01172-.27734l2.30469 6.63672m-2.30469-6.63672l1.66797-1.80078m15.3125 7.57812l-5.02344-4.91797m5.02344 4.91797l-.69531 2.35156"/><g clip-path="url(#K)"><path fill="none" stroke="#000" stroke-linecap="round" stroke-linejoin="round" stroke-miterlimit="10" stroke-width=".5" d="M142.72656 370.53516l2.54688 6.54687"/></g><g clip-path="url(#L)"><path fill="none" stroke="#000" stroke-linecap="round" stroke-linejoin="round" stroke-miterlimit="10" stroke-width=".5" d="M143.09766 371.48828l.80078-.92969"/></g><path fill="none" stroke="#000" stroke-linecap="round" stroke-linejoin="round" stroke-miterlimit="10" stroke-width=".5" d="M157.54688 370.30078l-.46094 7.01172m.39453-5.98828l1.11719-.5039m13.16015-.33985l-2.2539 6.65625m2.2539-6.65625l2.42188-.39453m-2.75 1.36328l1.21094-.19922m13.37109-.28516l-4.13281 5.6836m4.1328-5.6836l2.4297.34375m-3.03125.48438l1.21484.17187m12.72266-.98046l-4.17578 5.64843m4.17578-5.64844l2.42578.35938m10.02344-.82813l-2.44532 6.58594m2.44531-6.58594l2.4336-.32812m11.51172.63281l-3.70313 5.97266m3.70313-5.97266l2.44922.16406m-2.98828.70704l1.22265.08203m9.47266 5.29687l2.61719-6.52344m-2.6172 6.52344l-2.4414.26172m18.13281-.17578l-2.14062-6.69531m1.82812 5.71875l-.85547.8789m15.32422-.30078l-3.8203-5.89844m3.8203 5.89844l-1.1914 2.14453m15.0625-2.58984l-4.9336-5.00781m4.21485 4.27734l-.36719 1.17188m15.44531-2.8047l-7.02344-.28124m6 .24219l.53516 1.10546m13.80078-1.42187l-7.01562.42969m7.01562-.42969l1.28125 2.09375m11.90235-2.84766l-6.75391 1.9375m6.7539-1.9375l1.70704 1.76563m-2.6875-1.48438l1.70312 1.76563m12.44922-2.45313l-6.46875 2.75m6.46875-2.75l1.90625 1.54297m-2.84766-1.14062l1.90625 1.54297m12.16016-2.32813l-6.08594 3.51172m6.08594-3.51172l2.08203 1.30078m-2.96875-.78906l1.04297.65234m13.57813-.0039l-6.92579 1.19531m6.92579-1.19531l1.5039 1.9375m11.82813-1.82813l-6.96094.97266m6.96094-.97266l1.4414 1.98828m-2.45312-1.84375l.71875.9922m12.66406-3.08204l-5.07031 4.86719m5.07031-4.86719l2.33203.76563m-3.07031-.0586l1.16406.38281m12.5625-1.38671l-4.41797 5.46093m4.41797-5.46094l2.41016.46485m-3.05078.32812l1.20312.23438m12.66406-1.09766l-4.23828 5.60156m4.23828-5.60156l2.42188.38672m-3.03906.42578l1.21093.19531m12.4336-1.20312l-3.66406 5.99219m3.66406-5.99219l2.44922.14453m10.75781-.21094l-3.44922 6.1211m3.44922-6.1211l2.45312.0625m-2.95312.82813l1.22656.03125m12.98828-.66016l-4.25 5.59766m4.25-5.59766l2.42188.39453m11.16797 4.97266l-4.79688-5.13281m4.79688 5.13281l-.79688 2.32031m.09766-3.0664l-.39844 1.16015"/><g clip-path="url(#M)"><path fill="none" stroke="#000" stroke-linecap="round" stroke-linejoin="round" stroke-miterlimit="10" stroke-width=".5" d="M145.05078 357.14063l-2.10156 6.70703"/></g><path fill="none" stroke="#000" stroke-linecap="round" stroke-linejoin="round" stroke-miterlimit="10" stroke-width=".5" d="M145.05078 357.14063l2.41016-.45313m6.78906 2.08984l6.13281 3.4297m-5.24219-2.9297l.02735-1.22656m16.03516-1.02344l-1.14454 6.9336m1.14453-6.9336l2.32422-.78515m-2.49218 1.79297l1.16406-.39063m13.1875-.35547l-2.88281 6.40625m2.8828-6.40625l2.44923-.16015m12.14062 1.13671l-5.4336 4.45313m4.64454-3.80469l1.13281.47266m10.98828-2.32813l-1.46875 6.8711m1.25782-5.8711l1.17968-.33984m13.66797-.07422l-4.10937 5.69922m4.10937-5.69922l2.4336.33203m12.3164 2.91797l-6.98047-.80469m6.98047.8047l.89844 2.28515m12.41406-2.27344l-6.97656-.82813m5.96484.70704l.44141 1.14453m13.27344.58203l-5.75-4.03516m5.75 4.03516l-.30078 2.4336m-.53516-3.01954l-.15234 1.21485m14.41406-.79297l-5.97266-3.70704m5.97266 3.70704l-.16406 2.4453m-.70703-2.98437l-.08204 1.22266m14.79688-2.53906h-7.02734m7.02734 0l1.15234 2.16797m-2.17578-2.16797l1.15235 2.16797m-2.17579-2.16797l.57813 1.08594m14.77344-.84375l-7.00782-.48047m7.00782.48046l1 2.23829m-2.01953-2.3086l1 2.23828m12.58984-4.58593l-5.51563 4.35546m5.51563-4.35546l2.2461.98437m-3.05079-.35156l1.125.49219m12.28906-1.79688l-4.10937 5.69922m4.10937-5.69922l2.4336.33203m-3.03125.4961l1.21484.16796m13.88281.48829l-6.47656 2.72656m6.47656-2.72656l1.90235 1.55078m-2.84375-1.15235l.94922.77344m13.51172.89063l-6.88672-1.39454m6.88672 1.39454l.69921 2.35156m12.5586-3.98047l-6.77344 1.86328m6.77344-1.86328l1.6875 1.78125m10.77734-3.28125l-5.07422 4.86328m5.07422-4.86328l2.33203.76563m11.42969-.19141l-5.96484 3.71094m5.96484-3.71094l2.125 1.23047m-2.99219-.6914l1.0625.61718m12.29297-2.07422l-4.3125 5.55078m4.3125-5.55078l2.41797.41797m-3.04687.39062l1.21093.20704m12.80469-.96094l-4.45312 5.4375m4.45312-5.4375l2.40625.48047m-3.05469.3125l1.20313.23828m13.08984-.72266l-5.11328 4.82422m5.11328-4.82422l2.32422.78516m-3.07031-.08594l2.32422.78516m12.1914-.88282l-6.02343 3.6211m6.02343-3.6211l2.10157 1.26172m-2.97657-.73437l1.05078.6289m13.52735 1.53907l-6.80078-1.76954m6.80078 1.76954l.57031 2.38671m-1.5586-2.64453l.28516 1.19141"/><g clip-path="url(#N)"><path fill="none" stroke="#000" stroke-linecap="round" stroke-linejoin="round" stroke-miterlimit="10" stroke-width=".5" d="M145.98047 344.27734l-3.96094 5.80079"/></g><path fill="none" stroke="#000" stroke-linecap="round" stroke-linejoin="round" stroke-miterlimit="10" stroke-width=".5" d="M145.98047 344.27734l2.4414.26954m-3.01562.57421l1.21875.13672m13.80469.29688l-6.23047 3.2461m5.32422-2.77345l1.01172.69532m12.5664-2.03907l-4.94531 4.98829m4.94531-4.98829l2.35156.70704m9.75-1.4922l-2.51562 6.5625m2.51563-6.5625l2.43359-.30077m10.67969.23046l-2.11328 6.69922m1.80468-5.72656l1.20703-.22265m12.39453-.75782l-2.0664 6.71485m1.76562-5.73829l1.20313-.23046m8.09375 1.36718l6.57031 2.48829m-5.61328-2.125l-.15625-1.21875m17.4336-1.01172l-3.26954 6.22265m2.79297-5.3164l1.22656-.00391m14.15625.8164l-6.44922 2.78907M265.92579 350l-4.17969-5.64453M265.9258 350l-1.0547 2.21875m.44532-3.03906l-.52735 1.10937m15.38282-1.32031l-6.04297-3.58203m6.04297 3.58203l-.11329 2.45313m-.76562-2.97266l-.05469 1.22656m14.67578-1.82031L287.01953 346.5m6.89453 1.35547l.71094 2.34765m-1.71484-2.54296l.35546 1.17187m13.46875-3.55469l-5.90625 3.8047m5.90625-3.8047l2.14063 1.19532m-3-.64454l1.07031.60157m11.6875-2.41016l-3.07422 6.3164m3.07422-6.3164l2.45313-.08594m-2.89844 1.00391l1.22656-.04297m13.35156-.32422l-4.71093 5.21485m4.71093-5.21485l2.37891.59766m-3.0625.16015l1.1875.30079m13.48047-.2422l-6.04688 3.58204m6.04688-3.58203l2.09375 1.27734m-2.97266-.7539l1.04688.63671m13.61719 1l-6.98829-.73828m6.98829.73829l.91796 2.27343m12.38282-2.16797l-6.96094-.94921m6.96094.94921l.84765 2.3047m12.5-2.70313l-7.02343-.15235m7.02343.15235l1.10547 2.1914m11.82813-3.85937l-6.26172 3.1836m6.26172-3.1836l2.01172 1.41015m10.78515-2.16406l-5.22656 4.69531m5.22656-4.6953l2.30469.83983m-3.0625-.15625l1.15234.41797m12.51172-1.49218l-4.40625 5.47265m4.40625-5.47265l2.41016.46093m-3.05078.33594l2.41015.46094m11.26172-1.46485l-3.83984 5.88672m3.83984-5.88671l2.4414.21875m-3 .63671l1.22266.10938m13.88672.4336l-6.3125 3.08984m6.3125-3.08985l1.98828 1.4414m-2.90625-.99218l1.98829 1.4414m12.5664-.83593l-6.95703.98438"/><g clip-path="url(#O)"><path fill="none" stroke="#000" stroke-linecap="round" stroke-linejoin="round" stroke-miterlimit="10" stroke-width=".5" d="M467.03906 346.6875l1.44531 1.98047"/></g><path fill="none" stroke="#000" stroke-linecap="round" stroke-linejoin="round" stroke-miterlimit="10" stroke-width=".5" d="M466.02734 346.82813l1.44532 1.98437"/><g clip-path="url(#P)"><path fill="none" stroke="#000" stroke-linecap="round" stroke-linejoin="round" stroke-miterlimit="10" stroke-width=".5" d="M145.35156 330.6211l-2.70312 6.48437"/></g><path fill="none" stroke="#000" stroke-linecap="round" stroke-linejoin="round" stroke-miterlimit="10" stroke-width=".5" d="M145.35156 330.6211l2.4414-.23048m-2.83593 1.17188l1.22266-.11328m14.1211.5664l-5.97267 3.69532m5.97266-3.69531l2.1211 1.23437m10.78125-1.78125l-5.14454 4.78516m5.14453-4.78516l2.32032.80469m11.17578-.59375l-5.50781 4.36719m5.5078-4.3672l2.2461.98048m11.1211-.91407l-5.60938 4.23438m5.60938-4.23438l2.22265 1.03516m-3.03906-.41797l1.10938.51563m13.61328.08593l-6.79297 1.79688m6.79297-1.79688l1.66797 1.80079m6.71093-4.0625l3.07813 6.3203m14.79297-4.95702l-6.03516 3.59375m19.29688-3.6836l-5.9297 3.77344m5.06641-3.22266l1.07032.60547m12.29297 3.51172l-4.29688-5.5625m4.29688 5.5625l-1.01172 2.23438m.38672-3.04297l-1.01172 2.23437m15.74218-2.28125l-5.8789-3.85156m5.8789 3.85156l-.22265 2.4414m-.63281-3.0039l-.22266 2.44531m14.95703-4.09375l-7.0039.57032m7.0039-.57031l1.32422 2.0664m-2.34375-1.98437l.66016 1.03515m13.4414-2.11719l-6.53906 2.57032m6.53906-2.57031l1.86328 1.59375m-2.8164-1.22266l.93359.80078m13.16016-1.55078L314 335.52734m6.1914-3.32812l2.03907 1.35937m-2.9414-.875l2.04296 1.35938m11.76172-2.44922l-5.36328 4.53906m5.36328-4.53906l2.27734.90625m-3.05859-.2461l2.27734.91016m12.02735-1.30078l-5.78125 4m5.78125-4l2.17969 1.1289m-3.02344-.54687l1.08984.5625m13.6875.69922l-7.01953.3125m7.01953-.3125l1.2461 2.11328m-2.26563-2.0664l.6211 1.05468m13.71093-.76171l-7.01562-.3672m7.01562.3672l1.03906 2.22265m-2.05859-2.27734l.51953 1.11328m13.78125-.69922l-6.94531-1.08594m6.94531 1.08594l.80078 2.3164m12.13672-4.51952l-6.1914 3.3203m5.29296-2.83593l1.01954.67969m12.5078-2.0625l-4.8203 5.11719m4.11718-4.3711l1.1836.32422m12.70703-1.1836l-4.5625 5.34376m4.5625-5.34375l2.39453.53125m-3.0586.24609l1.19922.26563m13.27735-.51954l-5.5586 4.29688m5.5586-4.29688l2.23828 1.01172m-3.04688-.38672l1.1172.50782m13.4414-.40625l-6.42578 2.84375m6.42578-2.84375l1.92969 1.51171m-2.8672-1.09765l.96485.7539m13.26563-1.21875l-6.38282 2.94141"/><g clip-path="url(#Q)"><path fill="none" stroke="#000" stroke-linecap="round" stroke-linejoin="round" stroke-miterlimit="10" stroke-width=".5" d="M466.7539 332.39063l1.95313 1.48828"/></g><g clip-path="url(#R)"><path fill="none" stroke="#000" stroke-linecap="round" stroke-linejoin="round" stroke-miterlimit="10" stroke-width=".5" d="M465.82422 332.82031l1.95312 1.48438"/></g><g clip-path="url(#S)"><path fill="none" stroke="#000" stroke-linecap="round" stroke-linejoin="round" stroke-miterlimit="10" stroke-width=".5" d="M144.71094 317.10547l-1.42188 6.88281"/></g><path fill="none" stroke="#000" stroke-linecap="round" stroke-linejoin="round" stroke-miterlimit="10" stroke-width=".5" d="M144.71094 317.10547l2.35547-.6875m-2.5625 1.6914l1.17578-.34765m11.875-.71875l-.47656 7.01172m.40625-5.99219l1.12109-.5m14.8711.92578l-5.69141 4.1211m4.86328-3.52344l1.10156.53906m12.82813-1.40234l-5.26954 4.64843m5.26953-4.64843l2.30079.86328m10.98437-.89844l-5.20703 4.72266m5.20703-4.72266l2.3086.83203m11.23046-.5586l-5.65234 4.17579m5.65234-4.17578l2.21094 1.0586m11.01172-1.17579l-5.46875 4.41016m5.46875-4.41016l2.25781.96094m10.94922 3.57812l-5.2539-4.66797m4.48828 3.98829l-.28516 1.1914m14.9961-1.52344l-6.51173-2.64453m6.51172 2.64453l.25 2.4375m12.78125-1.88671l-5.9453-3.7461m5.9453 3.7461l-.17968 2.4453m-.6836-2.99218l-.1836 2.44922m-.68359-2.99219l-.08984 1.22266m15.58203-1.20703l-6.83984-1.59766m6.83984 1.59766l.6289 2.37109m-1.62108-2.60547l.6289 2.375m-1.625-2.60547l.3125 1.1836m15.07031-1.84375l-6.99609.64843m6.9961-.64843l1.34765 2.05468m-2.36719-1.95703l1.34766 2.05078m13-1.92968l-7.02344.21093m7.02344-.21093l1.21484 2.1328m-2.23828-2.10155l1.21875 2.1328m12.76563-3.59765l-6.31641 3.08203m6.3164-3.08203l1.98438 1.4414m-2.90234-.99218l1.98437 1.4414m12.16016-2.05859l-6.14063 3.41407m6.14063-3.41407l2.0625 1.33594m-2.95313-.83594l1.02735.66407m13.28515-.96094l-6.35156 3.01172m6.35156-3.01172l1.96875 1.46094m-2.89453-1.02344l1.96875 1.46484m12.32032-1.79297l-6.44922 2.79297m6.44922-2.79297l1.91796 1.52735m-2.85546-1.1211l.95703.76563m13.20703-1.36328l-6.26953 3.17187m6.26953-3.17187l2.0039 1.41406m-2.91796-.95313l1.0039.70704m12.9961-1.5547l-5.8125 3.94923m5.8125-3.94922l2.16796 1.14453m11.08594-1.23047l-5.6914 4.1211m4.86328-3.52344l1.10156.53906m12.08984-2.03516l-3.78906 5.91797m3.23828-5.0586l1.22266.10157m10.23828-1.48047l1.02344 6.95313m-.875-5.9414l.98828-.72657m16.04297 4.23437l-6.70703-2.08593m5.73046 1.78515l.23047 1.20313m13.90625-3.39844L447.04688 322m6.39843-2.90625l1.94532 1.4961m-2.875-1.07423l1.9453 1.4961m12.14845-2.21094l-6.09375 3.4961"/><g clip-path="url(#T)"><path fill="none" stroke="#000" stroke-linecap="round" stroke-linejoin="round" stroke-miterlimit="10" stroke-width=".5" d="M466.60938 318.80078l2.07812 1.30469"/></g><g clip-path="url(#U)"><path fill="none" stroke="#000" stroke-linecap="round" stroke-linejoin="round" stroke-miterlimit="10" stroke-width=".5" d="M465.72266 319.3086l2.07812 1.30468"/></g><path fill="none" stroke="#000" stroke-linecap="round" stroke-linejoin="round" stroke-miterlimit="10" stroke-width=".5" d="M464.83594 319.8164l1.03906.65235"/><path fill="#00f" fill-rule="evenodd" d="M405.99219 458.77344h8.61719V448.625h-8.6172v10.14844"/><path fill="azure" fill-rule="evenodd" d="M407.82422 450.45703h.83594v2.82422h3.28515v-2.82422h.83203v6.48047h-.83203v-2.91406h-3.28515v2.91406h-.83594v-6.48047"/><path fill="#ff3030" fill-rule="evenodd" d="M348.98828 449.89453h7.6914V439.75h-7.6914v10.14453"/><path fill="azure" fill-rule="evenodd" d="M350.82031 441.58203h.83203v5.73828h3.19532v.74219h-4.02735v-6.48047"/><path fill="#ff3030" fill-rule="evenodd" d="M175.89063 427.70313h7.6953v-10.14454h-7.6953v10.14454"/><path fill="azure" fill-rule="evenodd" d="M177.72656 419.39063h.83203v5.73828H181.75v.74218h-4.02344v-6.48046"/><path fill="#00f" fill-rule="evenodd" d="M210.70313 409.94922h8.62109v-10.14453h-8.6211v10.14453"/><path fill="azure" fill-rule="evenodd" d="M212.53906 401.63672h.83203v2.82422h3.28516v-2.82422h.83203v6.48047h-.83203v-2.91797h-3.28516v2.91797h-.83203v-6.48047"/><path fill="#ff3030" fill-rule="evenodd" d="M309.04297 396.63281h7.6914v-10.14453h-7.6914v10.14453"/><path fill="azure" fill-rule="evenodd" d="M310.875 388.32031h.83203v5.74219h3.19531v.73828H310.875v-6.48047"/><path fill="#00f" fill-rule="evenodd" d="M370.48438 392.19531h8.62109v-10.14453h-8.6211v10.14453"/><path fill="azure" fill-rule="evenodd" d="M372.3164 383.88281h.83594v2.82422h3.28516v-2.82422h.83203v6.48047h-.83203v-2.91406h-3.28516v2.91406h-.83593v-6.48047"/><path fill="#ff3030" fill-rule="evenodd" d="M455.50781 387.75781h7.6914v-10.14453h-7.6914v10.14453"/><path fill="azure" fill-rule="evenodd" d="M457.33984 379.44531h.83594v5.73828h3.1914v.7422h-4.02734v-6.48048"/><path fill="#ff3030" fill-rule="evenodd" d="M206.96094 365.5664h7.6914v-10.14452h-7.6914v10.14453"/><path fill="azure" fill-rule="evenodd" d="M208.79297 357.2539h.83203v5.73829h3.19531v.74219h-4.02734v-6.48047"/><path fill="#ffffe0" fill-rule="evenodd" d="M421.63281 462.73828h22.1836v-10.1914h-22.1836v10.1914"/><path fill-rule="evenodd" d="M425.13281 454.3789h.51172v6.29688h-.78906v-4.49219h-1.38672v-.55468l.5586-.0625.2539-.0547.22656-.08983.20313-.14063.17578-.21094.14062-.29297.10547-.39843m4.8164 0l.22657.01953.21875.05469.21094.08984.19531.1211.1836.15234.17187.17578.30078.41797.24219.49218.17969.54688.11328.57812.03906.59375-.03906.59375-.11328.58204-.1797.55468-.24218.5-.30078.42969-.17188.17969-.18359.15234-.19531.125-.21094.08985-.21875.05859-.22656.01953-.23047-.01953-.21875-.0586-.20703-.08984-.19922-.125-.1836-.15234-.17187-.17969-.30078-.42969-.24219-.5-.17969-.55469-.11328-.58203-.03906-.59375h.83594l.02734.5625.08203.50391.125.44531.16407.375.1914.30078.21094.21875.22266.13672.22656.04688.22656-.04688.22266-.13672.20703-.21875.1914-.30078.16407-.375.125-.44531.08203-.5039.02734-.5625-.02734-.5625-.08203-.5-.125-.4336-.16406-.36719-.19141-.29297-.20703-.21484-.22266-.1289-.22656-.04688-.22656.04687-.22266.12891-.21094.21484-.1914.29297-.16407.36719-.125.4336-.08203.5-.02734.5625h-.83594l.03906-.59376.11329-.57812.17968-.54688.24219-.49218.30078-.41797.17188-.17578.18359-.15235.19922-.1211.20703-.08983.21875-.0547.23047-.01952m5.08984 0h.50781v6.29687h-.78515v-4.49219h-1.39063v-.55468l.5625-.0625.25-.0547.23047-.08983.20313-.14063.17578-.21094.14062-.29297.10547-.39843m2.82422 2.17578h.78516l.01953-.3164.0586-.28517.10156-.2539.14062-.21485.17969-.17187.22265-.1289.26563-.08204.3086-.02734.23827.02344.22266.0625.20313.10156.17968.13672.14844.17187.11328.20703.07422.23438.02344.26562-.02344.26954-.0625.22265-.11328.19531-.15235.16797-.20312.16406-.2461.16407-.6328.39062-.53907.3125-.4375.3164-.34765.32423-.26172.33594-.19141.35156-.125.3711-.0664.39062-.02344.42187h4.21093v-.74219h-3.33203l.08594-.28515.11328-.23438.14844-.20312.1875-.17969.23047-.17188.27734-.17578.71875-.41406.41406-.20703.34375-.23047.28125-.25.22266-.26953.16016-.27734.11328-.28516.0625-.28516.01953-.28125-.03906-.3828-.1211-.34767-.1914-.30859-.25-.26172-.30079-.21094-.34765-.16015-.3789-.09766-.40626-.03515-.4336.03515-.39843.09766-.35547.16797-.30469.23437-.25.30078-.18359.375-.11719.44532-.03906.51953"/><path fill="#ffffe0" fill-rule="evenodd" d="M355.0586 376.04688h22.17968v-10.19141H355.0586v10.1914"/><path fill-rule="evenodd" d="M358.5586 367.6875h.5078v6.29688h-.78515v-4.4922h-1.39063v-.55468l.5625-.0664.25-.05079.23047-.08984.20313-.14063.17578-.21093.14063-.29688.10546-.39453m4.8125 0l.23047.01953.21875.05469.20703.08984.19922.1211.1836.14843.17187.17579.30078.42187.24219.49219.17969.54687.11328.57813.03515.59375-.03515.58984-.11328.58594-.17969.55469-.24219.5-.30078.42968-.17187.1797-.1836.15233-.19922.125-.20703.08985-.21875.0586-.23047.01952-.22656-.01953-.21875-.0586-.21094-.08983-.1953-.125-.1836-.15235-.17188-.17969-.30078-.42968-.2461-.5-.17968-.5547-.10938-.58593-.03906-.58984h.83203l.03125.5625.08204.5039.125.44532.16406.375.1875.29687.21094.22266.22265.13672.22656.04687.22657-.04687.22265-.13672.21094-.22266.1914-.29687.16407-.375.125-.44532.08203-.5039.02734-.5625-.02734-.5625-.08203-.5-.125-.4375-.16406-.36328-.19141-.29297-.21094-.21485-.22265-.1328-.22657-.04298-.22656.04297-.22265.13281-.21094.21485-.1875.29297-.16406.36328-.125.4375-.08204.5-.03125.5625h-.83203l.03906-.59375.10938-.57813.17969-.54687.2461-.49219.30077-.42188.17188-.17578.1836-.14843.1953-.1211.21094-.08984.21875-.05469.22656-.01953m5.09375 0h.50782v6.29688h-.78516v-4.4922h-1.39063v-.55468l.5586-.0664.2539-.05079.23047-.08984.20313-.14063.17187-.21093.14454-.29688.10546-.39453m2.82032 2.17578h.78906l.01953-.3164.0586-.28516.10156-.2539.13671-.21485.1836-.17188.22265-.1289.26563-.08203.3086-.02735.23827.01953.22266.0625.20313.10157.17968.14062.14844.17188.11328.20703.07031.23437.02735.26563-.02344.26953-.0664.22265-.10938.19141-.15625.17188-.19922.16406-.2461.16406-.63671.39063-.53516.3125-.4375.3164-.34765.32422-.26172.33594-.1914.35156-.125.3711-.07032.39062-.01953.42188h4.21094v-.7422h-3.33204l.08204-.28515.11328-.23437.14843-.20313.1875-.17969.23047-.17187.28125-.17578.71485-.41406.41796-.20704.34375-.23046.28125-.25.21875-.26954.16407-.27734.11328-.28516.0625-.28515.01953-.28125-.04297-.38281-.11719-.34766-.1914-.3086-.25-.26171-.30078-.21094-.34766-.16016-.3789-.09765-.40626-.03516-.4375.03516-.39843.09765-.35157.16406-.30468.23438-.25.30469-.1875.375-.11329.44531-.04296.51953"/></g></defs><use xlink:href="#V"/></svg>