<svg xmlns="http://www.w3.org/2000/svg" role="img" xmlns:xlink="http://www.w3.org/1999/xlink" viewBox="142.45 309.95 326.84 171.84"><defs><clipPath id="a"><path d="M144 311.67188h1v168.65625h-1zm0 0"/></clipPath><clipPath id="b"><path d="M144 311.67188h324v168.65625H144zm0 0"/></clipPath><clipPath id="c"><path d="M387 438h61v42.32813h-61zm0 0"/></clipPath><clipPath id="d"><path d="M467 311.67188h1v168.65625h-1zm0 0"/></clipPath><clipPath id="e"><path d="M144 476h2v4.32813h-2zm0 0"/></clipPath><clipPath id="f"><path d="M156 476h3v4.32813h-3zm0 0"/></clipPath><clipPath id="g"><path d="M168 477h6v3.32813h-6zm0 0"/></clipPath><clipPath id="h"><path d="M181 477h6v3.32813h-6zm0 0"/></clipPath><clipPath id="i"><path d="M194 478h7v2.32813h-7zm0 0"/></clipPath><clipPath id="j"><path d="M210 476h1v4.32813h-1zm0 0"/></clipPath><clipPath id="k"><path d="M223 476h2v4.32813h-2zm0 0"/></clipPath><clipPath id="l"><path d="M236 476h2v4.32813h-2zm0 0"/></clipPath><clipPath id="m"><path d="M249 476h3v4.32813h-3zm0 0"/></clipPath><clipPath id="n"><path d="M260 478h8v2.32813h-8zm0 0"/></clipPath><clipPath id="o"><path d="M265 480h2v.32813h-2zm0 0"/></clipPath><clipPath id="p"><path d="M273 479h8v1.32813h-8zm0 0"/></clipPath><clipPath id="q"><path d="M279 479h2v1.32813h-2zm0 0"/></clipPath><clipPath id="r"><path d="M287 477h7v3.32813h-7zm0 0"/></clipPath><clipPath id="s"><path d="M300 477h7v3.32813h-7zm0 0"/></clipPath><clipPath id="t"><path d="M313 478h8v2.32813h-8zm0 0"/></clipPath><clipPath id="u"><path d="M319 479h2v1.32813h-2zm0 0"/></clipPath><clipPath id="v"><path d="M326 478h8v2.32813h-8zm0 0"/></clipPath><clipPath id="w"><path d="M333 478h3v2.32813h-3zm0 0"/></clipPath><clipPath id="x"><path d="M342 476h3v4.32813h-3zm0 0"/></clipPath><clipPath id="y"><path d="M355 476h4v4.32813h-4zm0 0"/></clipPath><clipPath id="z"><path d="M367 477h6v3.32813h-6zm0 0"/></clipPath><clipPath id="A"><path d="M380 478h8v2.32813h-8zm0 0"/></clipPath><clipPath id="B"><path d="M386 478h4v2.32813h-4zm0 0"/></clipPath><clipPath id="C"><path d="M385 478h3v2.32813h-3zm0 0"/></clipPath><clipPath id="D"><path d="M394 477h6v3.32813h-6zm0 0"/></clipPath><clipPath id="E"><path d="M408 477h5v3.32813h-5zm0 0"/></clipPath><clipPath id="F"><path d="M421 476h5v4.32813h-5zm0 0"/></clipPath><clipPath id="G"><path d="M435 476h4v4.32813h-4zm0 0"/></clipPath><clipPath id="H"><path d="M446 478h8v2.32813h-8zm0 0"/></clipPath><clipPath id="I"><path d="M452 480h2v.32813h-2zm0 0"/></clipPath><clipPath id="J"><path d="M459 479h9v1.32813h-9zm0 0"/></clipPath><clipPath id="K"><path d="M144 465h4v4h-4zm0 0"/></clipPath><clipPath id="L"><path d="M144 453h4v2h-4zm0 0"/></clipPath><clipPath id="M"><path d="M144 439h4v3h-4zm0 0"/></clipPath><clipPath id="N"><path d="M144 425h4v4h-4zm0 0"/></clipPath><clipPath id="O"><path d="M144 411h3v6h-3zm0 0"/></clipPath><clipPath id="P"><path d="M144 397h3v7h-3zm0 0"/></clipPath><clipPath id="Q"><path d="M144 383h2v8h-2zm0 0"/></clipPath><clipPath id="R"><path d="M144 370h1v8h-1zm0 0"/></clipPath><clipPath id="S"><path d="M144 357h3v7h-3zm0 0"/></clipPath><clipPath id="T"><path d="M144 344h3v6h-3zm0 0"/></clipPath><clipPath id="U"><path d="M466 346h2v4h-2zm0 0"/></clipPath><clipPath id="V"><path d="M144 331h3v6h-3zm0 0"/></clipPath><clipPath id="W"><path d="M466 331h2v3h-2zm0 0"/></clipPath><clipPath id="X"><path d="M144 317h2v7h-2zm0 0"/></clipPath><clipPath id="Y"><path d="M466 318h2v2h-2zm0 0"/></clipPath><clipPath id="Z"><path d="M465 318h3v3h-3zm0 0"/></clipPath><g id="aa" clip-path="url(#clip1)"><path fill="#fff" fill-opacity="0" fill-rule="evenodd" d="M0 0h1000v1000H0zm0 0"/><path fill="#d3d3d3" fill-opacity="0" fill-rule="evenodd" d="M162.15234 355.86719l-.23437.29297.0586.23437.11718.17188.17578.23437.29297.34766.11328.0586.11719-.17188.0586-.23438.17577-.17578.46485-.17578h.69922l.23437.29297.28906.8164.0586.17579.17578.23046.35156.23438.69922.69922.17188.17578.23437.34765.23438.41016.28906.58203.41015.46485.23047.23437.23438.17578.11719.23047.17578.29297.17187 1.16406v.23438l.0586.28906.05859.11719.11719.11719.34765.41015.11719.17188.17578.17578.17578.23437.11719.17188.17188.35156.05859.23438.23437.40625.23438-.0586-.17578.17578-.0586.92969h-.58203l-.23437-.11328-.34766.11328-.11719.11719-.05859.29297-.0586.17578-.11718.17187-.46484.29297-.0586.23438-.0586.11328v.64453l.0586.17187v.41016l.0586.0586v.40624l.05859.40625.11719.17579.05859.05859.23047.64062-.0586.29297v.69922l-.05859.58203v.23438l-.0586.23047-.05468.35156v1.92187l.05469.1172h.42578l-.36719.11718-.02344.35156.89063 1.16797 1.74219.53906 1.33984.35938v.53906l.08984.8086.53516.71484 1.51953.26953.89063-.08594.08984 1.16406.53516.1797 1.16015-.1797 2.05469-.98437 1.16016-.36328 1.8789-.17578 1.69531-.1797-.17968.71876-1.51563.08594-1.25.08984-.80469.26953-1.07421.8086.26953.71875.53515.89843-.17968.625-.26563.8086.26563 1.07812.625.89844.80468.17969 1.25-.1797-.26562.72267.09766.5039.05468.29297v.17188l.0586.29296v.40625l.17578.1172.35156.11718h.40625l.29297-.17578.11328-.11719.0586-.11719.11718-.23047.0586-.17578.35156-.46484.23047-.17578.17578-.0586.17578.0586.0586.17578.11718.98828.05469.46875.0586.17188.11718.23437.17578.0586.8164.05859h.28907l.11719.23437.05859.40625.0586.35156v1.10547l.11718.29297.11719.34766.28906.69922.17578.35156.58203.7539.35157.17579.17187.0586.46875.23437.64063.46484.34765.23438.29297.17578.29297.05468.23047.0625.8164.34766.29297.17578.11328.17188.35157.35156.11719.17578.52343.64063v.28906l.0586.35156v.34766l.05859.35156.0586.28906.11718.0586.17188.05859h.17578l.58203.23437.17578.1172.17578.28905.17578.23438.11328.23437.29297.23047.11719.11719v.41016l.0586.05468.28906.23438.23437.11719.0586.11718.11718.17188.0586.11719.23047.23437.05859.17578.23437.0586.1172.05859-.1172.11328-.05859.11719v.11719l-.11719.29296-.11719.28907v.58203l.17579.11719.11718.05859.0586.11719.11719.11719.11328.05859.17578.34765.0586.35157.05858.40625v.17578l-.05859.17578-.11719.69922v.17187l.1172.17579.29296.29296h.40625l.17578.1172.11719.17187.11719.29296v.23438h-.52735l-.23047-.23438h-.23437l-.17578.0586-.0586.69922.0586.34765.11719.17579.17578.41015.11718.23047.28907.46875.17578.05469h.52344l.23437.0586.75781.64062.0586.29296v.23438l.05859.0586.23047.34765v.35156l-.11719.17188v.29297l.29297.28906.29297.17578.17187.0586.29297.17577.29297.1172.58203.40624.28906.23438.29297.17578.21875.16015.01563.01172.23047.17579.64062.52343.17578.23438.1172.17578.17577.17578.11328.17188v.64062l.1172.17578.46874.11719.58203.11719.23438.05859.23047.11328.29297.11719.11328.0586.58593.35156.28907.17187.17578.0625.17578.05469.17578.0586.69922.35155.28906.17579.23438.05468.28906.17578.23437.1172.64063.40624.29297.11719.17187.0586.23438.05859.41015.05859.23047.0586.23438.11718.0586.17188-.41017.17578.46875.0586.0586.29296.11328.23438.17578.05468.23438.0586.17578.05859.40625.11719.64062.23437.11719.17188.0586.23437v.17578l-.0586.1172-.0586.40624.23438.23438.11719.05859.34766.11719.64062.23047.17578.11718.28906.1172.17578.17577.23438.46485.58203 1.10546.17578.17579.34766.17578.17578.11719.35156.11718 1.04688.52344.23437.0586.46485.11327.29297.0586.46484.17578.75781.58203.23438.23438.34765.46484.17578.17578.28907.23438.8164.69921.29297.17579.28906.28906.29297.17578.29297.28906.69531.64063.17578.17578.29297.23437.28907.23438.46875.28906.64062.58203.34766.23438.23437.29297.34766.34765.35156.46485.9336.99218.34765.40625.11719.17579.23437.05859.11328.11719.64454.17578.23047.11328.23437.0586.29297.17577.23047.1172.9336.69921.40624.40625.23438.17578.40625.17578.23437.11719.8164.34766.34766.23437.23438.11719.29297.28906.23047.11719.7578.35156.35157.17188.23047.05859.29297.11719.23437.0586.8711.17577h.8164l.46875.23047.17188.0586.875.69921.46484.1172.29297.05858.17578.0586.23047.0586.46875.05859.34766.05859.35156.0586.40625.05859h.29297l.17187.0586v.23046l.17578.17578h.29297l.34766.0586.35156.05859.69922.11719h.64063l.46484-.23438.29297-.17578.17187-.11719.41016-.17187.28906-.17578.9336-.46485.46875-.29297.52343-.29296.46485-.17188.46484-.17578 1.05078-.46485.28906-.11718.41016-.11719.28906-.11719.52735-.17578 1.51562-.69922.58203-.34765.28907-.0586.29297-.0586.34765-.11718.875-.23047.35156-.11719h.11329l.23437-.05859.875-.23437.23438-.0586h.8125l.35156-.0586.8164-.11718.17188-.0586.35156-.05468.29297-.0586.23047-.05859.8164-.17578.17579-.0586h.34765l.23438-.05859.46484-.11718.75781-.17188.23438-.0586h.34765l.41016-.11718.28906-.0586 1.28516-.05859h.28906l.41016-.0586.23047-.05858h.17578l.875-.1172h.40625l.41015-.11718h.34766l.35156-.11328.8711-.0586h1.75l1.04687.28907.41016.11719.28906.11718.35156.11719.28907.11719 1.05078.17187.28906.0586h.29297l.29297.05859.17187.0586.41016.05859.17187.0586.1172.05858h.11718l.11719.0586.35156.0586h.11328l.41016.0664 1.92187.39453 1.92578.39453 1.51953.44922 1.69532.71875 2.14453.80469 1.60547-.71875 1.42968-.80469 1.16016-1.07813 1.25-.44921 3.03516-.71875 1.875-.35938 2.14453-1.34765 2.23437-1.25391 2.5-1.25781 1.69531-.44922 1.78516-.17969 1.16016-.26953.625.53906 1.33984-.26953.71485-.98828.98437-1.34375.44531-.17969.80469-.35937 1.875-.53907 1.78516-.44921 1.25-.26954 1.16015-.08984 1.69922-.08984 1.96094-.26954 1.25-.08984h.53906l.625-.08984h.89063l2.14453-.17969 2.41015-.17969 2.58985-.08984 1.69531.17969 1.60938.08984 1.42968.35938 1.16016.71875 1.875.98828 1.16015 1.52734.26563.71484.6289.08985.35548.89844.53515.53906.53516 1.52734 1.07422.35938h.53515l-.80469.53515.08985 1.70703.71484 2.69532.89063.80468.89453.98829.71484 1.2578 1.78516.53907 1.51953-.17969.35547 1.34375 1.60937-.80469.98047-.53906.26953.26953.31641-.21484.21875-.14453.80078.44922.44922-.35938h.35547l.53515-.26953.53907-.71875.53515-.26953.625-.98828 1.16016.44922.83984.3711 1.39454.61718 1.6953-.17969h1.60548l1.78515.08985.17969-1.70704.53516-1.34375.80468.26954.4922.84765.40233.40625-.08984.53906v.35938l.71485.44922.71093-.26953h1.42969l.35938.98828.4453 1.25781.71485 1.34375 1.25.6289 1.69531.62891.71485-.17969.17969-.53906.98046-.08984.44922.35937.08594 1.25782-.26563.6289-.53515.17969v.53906l.71484.98438.26563.53906.98437.98828.80078 1.07813-.26562.35937-.08985.89844-.625 2.33203-.35546 2.0664-.08985 1.79298-.17969.71875-.08984.53906v1.4375l-.98047 1.88281-.35937 1.70703-.53516.89844-.80469 1.16797-.26562.53906 2.05469 1.2539.08593.35938-.35546.53906-.08985-.17968v.80859l.08985 1.4375-.44532.71484-1.07422.09375-.26562.71485.53515.89844.8047.71875 1.16015.80859 1.33984.26953.44531.35938-.35546.44921-1.78907-.08984-1.25-.44922-.71484-.71875-.625-.08984-.17578 3.58984-.1875 1.3086h89.35937V311.70313h-55.26953v49.08203l.76172.125 3.28906.54296 2.02344 2.83594v2.7539l2.35156.33204 2.34766.33203h4.05078l-1.3789 4.16016-2.02344.70703-2.02344.70312-.54297.34375-2.59375 1.6172-.1875.11718-2.02344-2.07813-.73046-2.74218-2.67188-2.07813-1.375-3.5-.0664-.08203-1.95704-2.67188 2.75-1.41796v-49.08204H294.42187v91.41407l.1172.03125.1328.01172.07422.07421.10547.04688.08985.0586.08593.05859.08985.0586.29687.29687.0586.08984.03125.11719.02734.11719.01563.13671-.03125.1172-.0586.08983-.0586.08594-.04296.10547-.04688.10156-.02734.1211v.14453l.17578.26953.14844.14844.07422.08594.07422.07421.04296.10547.0625.08985.0586.08593.04297.10547.0586.08985.04687.10156.04296.10547.0586.08594.11719.17968.07421.07422.0625.08594.0586.08984.04297.10547.0586.08985.05858.08593.0625.08985.0586.08984.04297.10156.11719.17969.07421.07422.0586.08594.07422.07421.08984.0586.10547.04687h.14844l.1328-.01562.13282.01562.10156-.04687.07422-.07422.04688-.10156-.01563-.13281v-.14844l-.04687-.10547-.02735-.11719-.04687-.10156-.02735-.1211-.04296-.10156-.0625-.08984-.04297-.10156-.04297-.10547-.03125-.11719-.01563-.13281-.01171-.13672.08593-.0586.0586-.08593.12109-.03125.04297.10547.01562.1328v.1172l.0586.10156.0586.08984.08983.0586.14844.14843.0586.08985.04296.10547-.01171.10156.08593.0586.10547.04687.08594.0586.08984.05858.07422.07422-.11719.02735-.10546.04687-.08594.0586-.07422.07421-.0586.08985-.0625.08594-.02734.12109-.04687.10156-.04297.10547-.03125.11719-.01172.13281-.01563.13281v.14844l.02735.11719.04687.10547.04297.10156.0586.08984.07421.07422.08985.0586.07422.07421.08984.0586.0586.08984.04296.10547.04688.10156.11719.03125.1328.01563h.14845l.11718-.03125.10547.04297.04297.10547.04688.10156.02734.1211L299.5 410l.02734.11719.03125.1211.02735.11718.10547.04297.10156.04687.13281-.01562.14844.14844.0625.08593.07422.07422.07031.07422.08984.0625.10547.04297.10156.04297.1172.03125.13671.01562.11719-.03125.07422-.07422.02734-.11718-.01172-.13282-.03125-.12109-.02734-.11719.04297-.10547h.11719l.08984.0625.11719.02735h.14843l.13282.01562h.14843l.13282.01563.1328-.01563h.14845l.1328-.01562.13282-.01172.13672.01172.11719-.02735.13281-.01562.1914-.0586-.05859.17579-.01562.1328-.02735.1211-.01562.13281-.0586.08594-.1328.01563-.10548.04687-.10546.04297-.1172.03125-.11718.02735-.26563.03125h-.14843l-.13281.01562-.07422.07422.05859.08594.14844.14843.11719.1797.07421.0703.08985.0625.08984.0586.08594.0586.08984.05858.10156.04297.10547.0625.10547.04297.08594.0586.10547.04687.10156.04297.17969.11719.0586.08984-.04298.10156-.04687.10547.01562.13281.22266.22266.0586.08985.04296.10156.03125.1211.04297.10155.01563.13282.03125.11718.01171.13672.03125.11719.14844.14844.10156.04297.10547.04296.1172.03125.1328.01563.13672.01563h.11719l.11719-.03125.08984-.0586.04297-.10547.04688-.10156.04296-.10547.03125-.11719.01172-.1328v-.14845l-.01172-.1328-.01562-.13282-.03125-.11719-.04297-.10547-.04688-.10547-.04296-.10156-.04297-.10547-.01563-.13281.01563-.13281.02734-.11719.03125-.11719.02735-.1211.04687-.10155.08984-.0586.08594-.0625.07422-.07422.08984-.05859.22266-.22266.0586-.08593.07421-.07422.11719-.17969.0586-.08594v-.14844l-.07423-.07421-.10156-.04688-.10547-.04297-.10156-.04297-.0586-.08984-.04687-.10547-.02734-.11719.08984-.05859.11719-.03125.10156-.04297.17969-.11719.14844-.14843.01172-.13282-.01172-.10546-.08985-.0586-.1328.01563h-.14845l-.1328.01562-.13282-.01562-.1211-.03125-.08593-.0586-.07422-.07422-.0586-.08984-.0625-.08594-.11718-.17969-.0586-.08593.03125-.1211.08594-.05859.1211-.03125.05859-.08594v-.1211l-.03125-.11718-.0586-.08984-.05859-.08594-.04687-.10547-.02735-.11719-.01562-.1328.0586-.08985.07421-.07422.08984-.0586.1172-.17968.07421-.07422.0586-.08594.14843-.14844.1211-.03125.1328-.01562.13282.01562.07422.07422.04297.10547.01562.13281-.03125.1172-.11719.03124-.1328.01172-.14844.14844-.04297.10547-.04688.10156-.02734.1211-.03125.11718v.14844l.03125.11719.04297.10546.05859.08985.07422.07031.07422.07422.11719.03125.12109.02734.11719-.02734.1328-.01563h.1172l.08984.0586.07422.07422.04687.10546.0586.08594.10156.04688.13281.01562.10547.04297.08594.0586-.01172.10546-.07422.07422-.17969.11719-.05859.08984-.08984.0586-.07032.07422-.07421.07421-.0625.08985-.02735.11719-.01562.1328.01562.13282-.01562.13281v.14844l.01562.13281.02735.1172.03125.12108.07421.07422.08985.0586.08594.0586.08984.05858.11719.03125v.08594l-.10157.04688-.08984.0586-.26563.03124-.11718.02735h-.14844l-.10547.04296-.10156.04688-.0586.08984-.0625.23438-.01171.13281-.03125.1211-.01563.1328v.29298l-.01172.1328.01172.13673.01563.1328.1328.01563.13282.01172.1211.03125.08593.0586.07422.07421.04688.10547.04296.10157.01563.1328v.44532l-.01563.13281v.44532l.03125.26562.02735.11719.01562.13281.03125.11719.08594.21094.03125.26562v.14844l-.03125.11719-.02734.11718-.03125.1211-.02735.11719-.03125.11718-.03125.1211-.01171.1328-.01563.13282.08984.0586.1172-.03125.10155.01562.04688.10547-.03125.26562v.44141l-.04297.10547-.04688.10547-.04296.10156-.04297.10547-.0586.08594-.03125.12109-.04296.11719-.03125.11719-.01563.1328.01563.13282.05859.08984.10547.04688.08594.0586.05859.08593-.01172.13672-.03125.11719-.04297.10156v.44531l-.01562.13281v.14844l-.03125.11719-.04297.10547-.02735.11719-.04687.10546-.04297.10157-.03125.12109-.02734.11719-.03125.13281-.03125.11719-.02735.11719-.04297.10546-.03125.1172-.03125.12108-.01171.13282-.01563.13281v.29688l.02734.11718v.14844l.04688.39844.02734.11719.0586.08984.12109.03125h.14844l.13281-.01563.0586.08985v.11719l-.0586.08984-.08984.0586-.10157.04296-.10546.04688-.08985.05859-.08594.0586-.13671.01562-.1172-.03125-.1328-.01563-.10157.04688-.0625.08594-.01172.13671-.01562.13282-.03125.11719-.02735.11718-.01562.13281-.03125.1211v.29687l.01563.13282.03125.11718v.14844l.01171.13281v.14844l-.02734.11719-.04688.10156-.02734.1211-.03125.11718-.0586.08985-.07421.07421-.10156.04297-.10547.04688-.11719.02734-.1211.03125-.10156-.04687.0586-.08594.10547-.04688.02734-.11718.03125-.11719.02734-.1211.03125-.11718v-.14844l.01563-.13281-.03125-.11719-.04297-.10547-.10547.01563-.07422.07422-.10156.04296-.08984.0625-.07422.07422-.04297.10157-.01563.1328-.03125.1172L304.25 426l-.03125.11719-.02734.11719-.03125.12109-.02735.11719-.03125.11718-.04297.10547-.08984.0586h-.08984l-.1172-.03125-.03124-.08594.01562-.13672-.03125-.11719v-.14844l-.01171-.1328v-.14844l-.0625-.23438-.02735-.1211-.04297-.10156-.04687-.10546-.0586-.08594-.05859-.08985-.04297-.10546-.0625-.08594-.14844-.14844-.0703-.07422-.10548-.04687-.10547-.04297-.10156-.04297-.29687-.29688-.08985-.07421-.08594-.0586-.10546-.04297-.08985-.0625-.08594-.0586-.10546-.04296-.08985-.0586-.08594-.0625-.07421-.0703-.10547-.04688-.08594-.0586-.10547-.04296-.08984-.0625-.10156-.04297-.10547-.04297-.08594-.0586-.10547-.04687-.10547-.04297-.10156-.04687-.08985-.0586-.10156-.04297-.10547-.04296-.08984-.0625-.11719-.02735-.13281-.01562-.13281.01562H299.75l-.13281.01563-.11719-.03125-.08984-.0586-.07422-.07422-.08985-.05859-.10156-.04688h-.14844l-.12109-.02734-.10156-.04297-.07422-.07422-.11719-.17968-.08984-.0586-.10156-.04297-.08985-.0625-.10547-.04296-.08984-.0586-.08594-.0586-.10547-.04687-.0586-.08594-.05858-.08984-.04297-.10547-.04688-.10156-.07422-.07422-.08594-.0586-.07421-.07421-.08985-.0586-.22265-.22265-.04297-.10547-.03125-.26563.10547-.04296h.14453l.10547.04296.07421.07422.08985.0586.08594.0586.10546.04687.08985.05859.14844.14844.0703.07422.14845.14843.0625.08594.07421.07422.08594.0586.07422.07421.08985.0625.08984.0586.08594.05859.26953.17578.10156.04688.10547.04296.10156.04297.04688-.07421.05859-.08594.07422-.07422.07031-.07422.10547.04297.07422.07422.0586.08984.04296.10156.04688.10547.04296.10547.1211.02735.11719-.02735.07421-.08984.04297-.10547.0586-.08985.07422-.07421.10546-.04297.1172-.02735.1328.01172.08985.0586.14844.14843.05859.08985.04297.10547.04687.10156.04297.10547.04297.10156.10547.04688.10547.04296.13281.01563.08594-.0586.0586-.08984.07421-.07422.10547-.04297.11719.02735.10547.04687.10156.04297.10547.04297.10156.04688.17969.11718v.11719l-.01563.13281.01563.13281.01562.13672.0586.08594.10156.04688.1211.02734.11718.03125h.14844l.11719-.03125.05859-.08984.17969-.1172.05859-.08983.07422-.07422.0586-.08594.11718-.17969.17969-.11719.11719.03125.08984.0586.04297.07422-.01563.1328v.1172l.08985.05859h.14843l.13282-.01563.1328-.01171.26563-.03125.10547-.04297.11719-.03125.1211-.02735.07421-.07421.07031-.07422.0625-.08985-.01562-.10547-.04688-.10156-.10156-.04297-.10547-.01562-.11718.02734-.26563.03125h-.14844l-.07421-.07422-.08985-.0586-.11719-.03124-.11718-.02735-.13282-.01562h-.14843l-.13282.01563h-.29687l-.10547-.04688-.14844-.14844-.04297-.10156-.05859-.08984.22266-.22266.08593-.0586.10547-.04296.11719-.03125.13281-.01563.13281.01563.13672.01562.10157.04297.1328-.01172.08985-.0625.10156-.04297.0625-.08984-.04687-.10156-.08984-.0586-.1172-.03125-.10155-.04296-.0586-.08985-.0625-.08984v-.11719l.01563-.13281.10547-.04688.07421-.07031v-.1211l-.08984-.05859-.03125-.11719.08985-.05859.07421-.07422.04297-.10547.0586-.08984.04687-.10156.01563-.13281v-.14844l-.04688-.10547-.04297-.10156-.08984-.0586-.13281-.01562-.10157-.04297-.13671-.01563-.1172-.03125h-.4453l-.13282-.01562-.13281-.01172-.13281-.01563-.11719-.03125h-.14844l-.13281-.01562-.13281-.01172-.26563-.03125-.1211-.04297-.08593-.0586-.07422-.07421v-.14844l.01172-.13281.10547-.04688.10156-.04296.13281-.01563h.15235l.13281-.01562h.29297l.1211.03125.10156.04296.08984.0586.23438.0625.12109-.04688.08984-.05859.10156-.04297.13282-.01562.10547.04296.10156.04688.13281.01172.1211-.02735h.14453l.12109-.03125.11719-.02734.10547-.04687.07421-.07422.08594-.0586.14844-.14843.0586-.08594.04687-.10547.02734-.11719.01563-.10547-.10156-.04296-.08985-.0586-.11719-.03125-.10546-.04297-.08985-.0625-.07422-.08594-.07422-.07421-.10156-.04297-.10547-.04688-.10156-.04297-.0586-.08984-.04687-.10156-.08594-.21094-.0625-.08594-.05859-.08984-.07422-.07422-.08594-.0586h-.26953l-.11719.03126-.08984.05859-.10156.04297-.13281.01562-.10547-.01562-.02735-.11719-.0625-.08984-.11718-.03125-.10157-.04297-.14843-.14844-.03125-.11719-.01563-.10546.07422-.07422.17969-.1172.11719-.02733.11718-.03125.13672.01562.10156.04297.10547.04297.10156.04687.10547.04297.1172.03125.1328.01563.1172.02734.1328.01563.10547-.01563.08985-.0586-.07422-.07421-.10547-.04297-.07422-.07422-.07422-.08984-.14844-.14844-.08593-.0586-.08985-.05859-.07422-.07422-.08984-.0586-.10156-.04687-.1211-.02734-.10156-.04688-.10547-.04296-.11719-.03125-.10156-.04297-.1211-.03125h-.14843l-.11719.03125-.10546.04297-.08594.0625-.17969.11718-.08594.0586-.08984.0586-.10547.04687-.08594.05859-.10547.04297-.10156.04297-.10547.04687-.07422.07422-.05859.08985-.0586.08593-.04687.10547-.0586.08594-.07421.07422-.13281-.01172-.1172-.03125h-.11718l-.07422.07422-.08984.0586-.07422.07421-.08984.0586-.08594.05859-.10547.04687-.10156.04297-.13672.01563-.10156-.04297-.14844-.14844-.10547-.04688h-.08594l-.10547.04688-.10156.04297-.1211.03125-.11718-.03125-.07422-.07422v-.11719l.03125-.1211.07422-.0703.0586-.08985.07421-.07422.11719-.03125.10547-.04296h.29297l.13281-.01563.13672-.01563.10156-.04296.08985-.0586.10156-.04687.08984-.0586.13281-.01171.08985.05859.13281.01172.08984-.0586.08594-.05859.10547-.04297.08984-.0586.08594-.0625.08985-.05859.14843-.14843.0586-.08594.05859-.08985.10547-.04296.13281-.01563.11719.02735.1211.03125.05859-.0586.05859-.08984.03125-.26563.02734-.11719.10547.01172.13281.01563.10157-.04297.08984-.0586.0586-.08984.07421-.07422.0586-.08984.04687-.10156.01172-.13281-.01172-.13282-.04687-.10547-.14844-.14843-.0586-.08985-.05859-.08594-.04297-.10546v-.44532l.01563-.1328v-.14845l.01172-.1328-.0586-.0586-.08984.0586-.10156-.04298-.17969-.11719-.08594-.05859-.0625-.08984-.0586-.08985-.07421-.07421-.08594-.0586-.1211.03125-.10155.01172-.10547.04688-.08594.05859-.10547.04297-.14844.14844-.08984.05859-.08594.0586-.08984.0625-.10547.04296-.13281.01563v-.1211l.10547-.04297.11718-.03125.07422-.0703.04297-.10548v-.14844l-.02734-.11718-.14844-.14844-.13281-.01563h-.14844l-.11719.03125-.10547.04297-.10156.04297-.08984.0625-.11719.02735-.07422-.07422.01172-.13281-.04297-.10157-.04297-.10547-.08984-.05859-.11719.02734-.1211.03125-.11718.03125-.10156.04297-.1211.03125-.10156.04297-.10547.04297-.08984.0586-.10156.01562v-.11719l.01562-.13281-.0586-.08985-.07421.04297-.14844.14844-.0586.08985-.07421.07421-.04688.10547-.04296.10156-.07422.07422-.0586.08985-.07422.07422-.05859.08593-.07422.07422-.08984.0625-.07422.07031-.07422.07422-.10156.01563-.13281.01562-.10547-.04296v-.1211l.14843-.14844.04297-.10156.0586-.08984.04687-.10156.04297-.10547.0586-.08985.03124-.11719.04297-.10156.03125-.1211.02735-.11718.04687-.10547.04297-.10156.04297-.10547.07422-.07031.08984-.0625.08985-.0586.10156-.04296h.29687l.26563-.03125.10547-.04297-.07422-.07422-.11719-.03125-.10547-.04297-.08984-.0586-.10156-.04687-.08985-.0586-.10156-.04296-.10547-.04297-.08984-.0625-.08594-.0586-.10547-.04296-.10156-.04297-.1211-.03125-.11718-.03125-.10157-.04297L297.5 410.25l-.10156-.04297-.08985-.0586-.04296-.10546-.01563-.13281.10156-.04297.13281-.01563.13672.01563.13282-.01563.10156-.04297.0586-.08984.01562-.10547-.08985-.0586-.07421-.07421-.10157-.04297-.08984-.0586-.14844-.14843-.04297-.10547-.01562-.13281v-.29297l-.0586-.08985-.08984-.05859-.07422-.07422-.04297-.10547-.03125-.11718-.0586-.08985-.07421-.07422-.11719-.02734-.07422-.07422-.08984-.0586-.08984-.0625-.08594-.05859-.07422-.07421-.0586-.08594-.04687-.10547-.08594-.0586-.14843-.14843-.19532-.0586-.1328.01563-.10157.04297-.07422.07422-.04688.10156-.04296.10547-.0586.08984-.0586.08594-.29687.29687-.08984.0586h-.08594l-.0625-.08594-.04297-.10547.03125-.11719.0586-.08984.02734-.11719-.01172-.13281-.08984-.0625-.10547.04688-.11719.02734-.11719.03125-.26953.17578-.10156.04688-.11719.02734-.10546.04687-.08985.0586-.10156.04297-.0586-.08594-.04687-.10547.01563-.13281.04687-.10547.07031-.07422.07422-.07031.0586-.08985v-.14843l-.04297-.10547h-.23829l-.10156.04687-.03125.11719-.02734.11719-.03125.1211-.07422.04296-.13281.01563-.07422-.04688-.04297-.10156-.04297-.10547-.04687-.10156-.04297-.10547-.1211.03125-.10156.04297-.13281.01562-.11719.03125-.10547.04297-.08984.0586-.10156.04687-.1211.02734-.13281.01563-.10156-.04297-.0586-.08985-.04687-.10546-.04297-.10157-.04297-.10546v-.1172l.0586-.08984.08593-.05859.17969-.11719.10156-.04687.10547-.04297.10547-.0586.10156-.04296.08985-.0625.10156-.04297.10547-.0586.10156-.04687.08984-.0586.10547-.04296.10156-.04297.08985-.0625.10156-.04297.13672-.01563.11719.03125.10156.04297.1211.03125.10156.04297.10546.04688.10157.04296.10547.04297.10156.04688.10547.04297.10156.04297.10547.04687.08594.0586.10546.04296.1172.03125.10546.04297.10156.04688.08985.0586.10547.04296.10156.04297.10547.04687.11719.02735.10156.04687.1211.02735h.14843l.08594-.0586.01562-.10156.0586-.08984-.02735-.1172-.07422-.07421-.11719-.17969-.07421-.07422-.08985-.07421-.17969-.1172-.08593-.05859-.10547-.04296-.10156-.04688-.26954-.17578-.05859-.08985-.07422-.07421-.0586-.08985-.04296-.10156-.03125-.11719-.01563-.13672v-.5625l-.01171-.1328-.01563-.13282-.03125-.11719-.01562-.13281-.01172-.13281-.03125-.1211-.22266-.22265-.0586-.08594-.01562-.10547.03125-.11719.13281-.01562v-91.41406H172.9922v1.45312l-.0586.23438-.35156 1.05078-.17187.52343-.1172.34766-.17577.41016-.11719.17187-.23438.29297-.23046.0586h-.35157l-.11718.05859-.23047.40625v.29297l.11719.17578.23046.23047.1172.23437.64062.75781.29297.46485.17578.23437.23047.35156.23437.34766.64063.8164.17578.46485.17187.41016.11719.69531.17578.46875.11719 1.39844.0586.46484v.875l.11718 1.04688v4.78125l-.0586.46484-.35156 1.28125-.17578.52344-.11328.41015-.35156.9297L172.93359 336l-.23437.58203-.11719.17578-.17187.34766-.17578.40625-.35157.8164-.0586.29297-.11327.29297-.11719.28906-.0586.17579-.11718.875-.0586.40625-.05859.11718-.0586.17579-.05859.17187-.23047.52734-.11718.17188v.23437l-.11719.23438-.0586.17187-.17577.58594v.28906l-.0586.17579v.29296l-.0586.11329-.05859.52734v.17187l-.05468.23438v2.6211l-.17578.8164-.1172.17578-.17577.23438-.1172.17187-.11327.23438-.58594.93359-.23047.28906-.29297.46485-.17578.23437-.28906.35156-.35156.69922-.11328.23047-.17579.41016-.17578.23046-.40625.52735-.8164.69922-.29297.17187-.28906.23438-.17579.11719-.17578.17578-.52344.40625-.52734.17578-.17187.17578-.23438.05469-.64062.17578h-.75782m12.21094 31.02344l-1.07422.44921.35938.89454 1.25-.71485.44531-.53906-.98047-.08985"/><path fill="#d3d3d3" fill-opacity="0" fill-rule="evenodd" d="M201.50781 416.59766h-.89453l.44922.6289.98047.35938.80469-.08985.4453-.98828-.17577.08985-.71485-.35547-.89453.35547m154.6211 59.0703l-.0586-.52343v-.29297l.11328-.29297.0586-.23046.46875-.46875h.11328l.11719-.11329.11718-.05859h.17579l.23437-.0586h.34766l.23437.0586.11719.0586.23047.17187.0586.17578.11718.58203v.29297l-.11719.17578-.17187.28906-.17579.17579-.52734.52343-.23047.23438-.11719.0586h-.17578l-.11718-.0586-.40625-.29297-.17579-.11719-.11718-.0586-.0586-.11327-.05468-.1172m6.64062-10.95702l-.0586-.17188v-1.10937l.0586-.17188.17578-.0586.17188-.05858h.17578l.23437-.0586.1172.0586.05858.69921-.05859.17188-.11719.17578-.11718.0586-.23438.52343-.11328.0586h-.23438l-.05859-.1172m9.61328-14.39062l-.11719-.17578v-.69922l.29297-.875.1172-.17187.17577-.35156.11328-.23047.1172-.29297.35155-.75781.1172-.23047.17187-.23438h.17578l.11719-.0586h.64062l.11719.0586.23437.23438.17188.11328.35156.29297.11719.11718.11328.17579v.11328l.11719.05859.11718.11719v.69922l-.05859.17578v.23047l-.0586.17578-.34765 1.05078-.11719.23047-.11719.23437-.11718.0586-.23047.23437-.64063.28906h-.875l-.41015-.11718-.64063-.46485"/><path fill="none" stroke="#bebebe" stroke-linecap="round" stroke-linejoin="round" stroke-miterlimit="10" stroke-width=".5" d="M467.95703 311.69531H144.02734v168.625h323.9297v-168.625"/><g clip-path="url(#a)"><path fill="#fff" fill-opacity="0" fill-rule="evenodd" d="M144 475.89063v4.4375h.0039H144V311.67188h.0039H144v164.21875"/></g><g clip-path="url(#b)"><path fill="#fff" fill-opacity="0" fill-rule="evenodd" d="M144.0039 480.32813V311.67188h79.88673v94.64453l-3.13672 3-1.30078 1.30859-2.6875 3.1289 2.6875 3.07423.85156 1.36328 2.17578 4.4375-3.02734 1.98046-4.4375-1.46484-.36329-.51562-1.70703-4.4375-2.3711-1.20313-4.4375-.42578-4.4375-1.14453-4.4375 1.2461-1.6953 1.52734-2.7461 1.18359-4.4375 1.29297-2.0625 1.96094-2.01172 4.4414-.36328 2.13672-1.46094 2.30078 1.46094 1.55078 2.03125 2.88672-.27344 4.4375-1.7578 1.94922-3.66407-1.94922-.77344-.89844-4.4414-.9453-2.67188 1.84374-1.76562 4.01953-.42578.41797-4.01172.75781-4.4375.60938-2.35547 3.07422-1.49219 4.4375-.58984 2.96484-1.22266 1.47266 1.22266 1.47265.5664 2.96485 3.8711 3.66406 4.4375-.32812 4.4375-.78516 4.4375-1.3789 4.4414 1.10937 4.4375-.53906 4.4375.96875 4.4375.4375 4.4414-.41407 4.4375-.42578 4.4375-.05078 2.4297-2.25781 1.07422-4.4375.93359-1.5664 2.96094-2.8711 1.48047-.85547 4.4375-3.3086.2578-.27343 4.1797-4.23438.21484-.20703 4.22266-2.61328 4.4375-.76562 1.30078-1.0586-1.30078-1.36719-.57032-3.0703-3.86719-4.17579-.11718-.26172-.79688-4.4375-1.78515-4.4414 2.69922-.28516 4.17968-4.15234.25781-.91407v5.81641l-3.86328 3.97656 3.86328 3.77344 4.44141-.41797 3.94531-3.35547-3.9453-3.16015-4.44142-.81641v-5.8164l2.69532-3.52344-2.69531-3.19141-1.54688-1.2461-2.89063-2.5-4.4375-.5v-94.64452h53.26172v99.22656l-2.87109 2.85547 2.8711 2.6875 3.92577-2.6875-3.92578-2.85547v-99.22656h71.01172v148.68359l-2.38281 2.21875 2.38281 1.82031 2.33985-1.82031-2.33985-2.21875v-148.6836h31.07031v133.10157l-.04687.04687.04688.08985.125-.08985-.125-.04687V311.67188h35.5039v126.5664l-4.4375 1.00781-2.3711 1.13672-2.0664.54297-4.4375 1.79297-2.70703 2.10156-1.73438 3.02344-.92968 1.41797-2.41016 4.4375-1.09765 1.9375-2.11329 2.5-2.32421 3.85547-.42188.58203.42188.35547 4.4375 3.96875 4.4375-1.51172 4.4414.60937.22266 1.01954-.22266.6289-4.4414 2.55469-1.46485 1.2539-2.4375 4.4375 3.90235 4.28125 4.4414-.0078 4.4375-.05079 4.4375-.25 4.4375-.19531 4.4414.29687 4.4375.03125 4.4375-.4414 4.4375-2.2539 1.87891-1.41017-1.8789-4.1875-.01563-.25.01563-1.21484.69922-3.22265 3.73828-.5586.58984.5586 1.39844 4.4375 2.45312 2.35546 2.38672-2.35546.90625-4.4375 1-4.44141.14453-1.30469 1.47266-3.13281-1.47266-1.125-4.4375-2.89063-4.4414 1.52344-2.4961 2.49219-1.9414 3.95703-1.96094-3.95703-2.0664-4.4375-.41016-.32813-4.4375-.26171-4.4375-2.625-1.5664-1.22266-1.27735-4.4414.52734-4.4375-2.125-2.14454v-126.5664h53.25781v168.65625H144.00391"/></g><path fill="#50fcfc" fill-rule="evenodd" d="M157.3164 459.60938l-1.22265-1.47266 1.22266-1.47266.58984-2.96484 1.49219-4.4375 2.35547-3.07422 4.4375-.60938 4.01172-.7578.42578-.41798 1.76562-4.01953 2.67188-1.84375v5.11328l-.9297 1.16797-3.5078 3.22656-3.1797 1.21485-1.2578.60547-4.4375.48437-2.20703 3.34766-1.16407 4.4375 1.07422 4.4375 2.29688 2.17187 4.4375-.66796 3.64843-1.50391.78907-.70703 4.4375-2.24219 2.34375-1.48828 2.09765-2.51172 4.4375-.91016 2.3086-1.01562-2.3086-.80078-4.4375-.95703-2.85937-2.6797.02734-4.4414-1.60937-1.16797v-5.11328l4.4414.94531.77344.89844 3.66406 1.94922 1.75781-1.94922.27344-4.4375-2.03125-2.88672-1.46094-1.55078 1.46094-2.30078.36328-2.13672 2.01172-4.4414 2.0625-1.96094 4.4375-1.29297 2.7461-1.1836 1.6953-1.52734 4.4375-1.2461v2.79688l-4.4375 1.35157-4.4414 2.17968-1.85156.88282-2.58594 2.5078-1.16406 1.9336-.55469 4.4375 1.71875 1.9414 2.92969 2.4961 1.50781 1.10938v3.0664l-.79297.26172.79297 2.61328.49219-2.61328-.49219-.26172v-3.0664l4.4414 1.375v13.82812l-1.0625 1.4414 1.0625.3125.78517-.3125-.78516-1.4414V438.4297l4.4375-.03906 1.27344 1.99218-1.27344 1.6914-2.72266 2.7461 2.72266 3.03906v6.42188l-4.4375 1.59766-4.4414-.7422-3.84376 3-.59375 3.87892-.15625.55859.15625.0586 4.4375 1.09374 4.4414-1.05078.48438-.10156 3.95313-.76953 4.4375-3.10938.16016-.5586-.16016-1.41796-4.4375-2.4375v-6.42188l.8789 1.40235 3.5586 4.08594 4.4375-1.02344 4.4414-2.82813.29688-.23437 3.92578-4.4414.21484-.21485 4.4375-2.59766 1.91407-1.625 2.52344-1.17187 2.61328-3.26563-2.61328-2.82031-.72266-1.61719-2.59766-4.4375-1.11719-1.61719-2.15234 1.6172-2.28516.40624-.82812-.40625-3.60938-2.67969-1.23437-1.76171-3.20703-3.63672-4.4375-.19531-4.4375-.58204v-2.79687l4.4375 1.14453 4.4375.42578 2.3711 1.20313 1.70702 4.4375.36328.51562 4.4375 1.46485 3.02735-1.98047-2.17578-4.4375-.85156-1.36329-2.6875-3.07421 2.6875-3.12891 1.30078-1.3086 3.13672-3 4.4375.5v3.15626l-3.98829 3.78125-.44922 2.42578-.43359 2.01172.4336.64062 4.4375 2.53906 3.20312-3.17968 1.23438-4.3672.05859-.0703-.0586-.06641-4.4375-3.71484v-3.15625l2.89063 2.5 1.54688 1.24609 2.6953 3.1914-2.6953 3.52344-.25782.91407-4.17969 4.15234-2.69921.28516 1.78515 4.4414.79688 4.4375.11719.26172 3.86718 4.17578.57031 3.07031 1.30079 1.3672-1.30078 1.05859-4.4375.76562-4.22266 2.61328-.21484.20703-4.1797 4.23438-.2578.27344-4.4375 3.30859-1.48047.85547-2.96094 2.8711-.9336 1.5664-1.07421 4.4375-2.4297 2.25781-4.4375.05078-4.4375.42578-4.4414.41407-4.4375-.4375-4.4375-.96875-4.4375.53906-4.4414-1.10938-4.4375 1.37891-4.4375.78516-4.4375.32812-3.8711-3.66406-.5664-2.96485"/><path fill="#00e8fc" fill-rule="evenodd" d="M159.45703 462.57422l-1.07422-4.4375 1.16406-4.4375 2.20704-3.34766v4.48438l-1.20703 3.30078 1.20703 3.6211 4.32422-3.6211-4.32422-3.30078v-4.48438l4.4375-.48437 1.2578-.60547 3.1797-1.21485 3.5078-3.22656.9297-1.16797 1.60937 1.16797-.02734 4.4414 2.85937 2.6797 4.4375.95703 2.3086.80078-2.3086 1.01562-4.4375.91016-2.09765 2.51172-2.34375 1.48828-4.4375 2.24219-.78907.70703-3.64843 1.5039-4.4375.66797-2.29688-2.17187"/><path fill="#00d4fc" fill-rule="evenodd" d="M161.7539 461.75781l-1.20702-3.6211 1.20703-3.30077 4.32422 3.30078-4.32422 3.6211"/><path fill="#00e8fc" fill-rule="evenodd" d="M188.38281 433.44922l-1.71875-1.9414.55469-4.4375 1.16406-1.9336 2.58594-2.50781 1.85156-.88282 4.4414-2.17968 4.4375-1.35157 4.4375.58204v1.52343l-4.27733 2.3086-.16016.08593-4.4375.1875-3.59375 4.16797.69922 4.4375 2.89453 2.64063 4.4375.34375 2.28516 1.45312 2.15234 2.71485 1.78125 1.72265-1.78125 4.14844-.20313.28906.20313.41016 4.4375 2.80078 4.4414-2.21484.91407-.9961 3.52344-3.59375 1.21875-.84375-.28125-4.4375 3.5-.34375 2.10546.34375 2.33203.64844.51954-.64844-.51953-.5625-1.73047-3.875-2.70703-3.4961-4.4375.84767-3.6211-1.78907-.8164-.60937-2.6836-3.83203-1.75781-1.9922-4.4375-.3164v-1.52344l4.4375.19532 3.20703 3.63672 1.23438 1.76171 3.60937 2.6797.82813.40624 2.28515-.40625 2.15234-1.61719 1.1172 1.6172 2.59765 4.4375.72266 1.61718 2.61328 2.82031-2.61328 3.26563-2.52344 1.17187-1.91406 1.625-4.4375 2.59766-.21485.21484-3.92578 4.4414-.29688.23438-4.4414 2.82813-4.4375 1.02344-3.5586-4.08594-.8789-1.40235-2.72266-3.03906 2.72266-2.7461 1.27344-1.6914-1.27344-1.99219-4.4375.03907-4.4414-1.375-1.50782-1.10938-2.92969-2.4961m0 29.1836l-.15625-.0586.15625-.55858.59375-3.87891 3.84375-3 4.4414.74219 4.4375-1.59766 4.4375 2.4375.16017 1.41797-.16016.5586-4.4375 3.10937-3.95313.76953-.48437.10156-4.4414 1.05078-4.4375-1.09375"/><path fill="#fff" fill-opacity="0" fill-rule="evenodd" d="M192.82031 440.1211l-.79297.26171.79297 2.61328.49219-2.61328-.49219-.26172"/><path fill="#00d4fc" fill-rule="evenodd" d="M194.36719 431.50781l-.69922-4.4375 3.59375-4.16797 4.4375-.1875.16016-.08593 4.27734-2.3086v1.52344l-1.45703.78516-2.98047 1.5664-4.4375 2.36719-.4375.50781.10937 4.4375.32813.29688 4.4375.66406 4.4375 2.26172 2.09766 1.21484 2.33984 2.22656 2.1211 2.21094 2.3203 1.5625 1.52344-1.5625 1.26953-4.4375 1.64453-2.2461 4.4375.375 1.69532-2.5664-1.69531-2.1914-4.4375.92578-2.64844 1.26562-1.78906 1.24219-4.44141-.83984-.17969-.40235-2.28125-4.4375 2.46094-3.86328v2.71094l-.73047 1.15234.73047 1.35547 2.6211-1.35547-2.6211-1.15234v-2.71094l.3086-.57812-.3086-.34766-4.4375-.4375v-1.52344l4.4375.3164 1.75781 1.9922 2.6836 3.83203.8164.60937 3.6211 1.78906 4.4375-.84765 2.70703 3.4961 1.73047 3.875.51953.5625-.51953.64843-2.33204-.64844-2.10547-.34375-3.5.34375.28125 4.4375-1.21875.84375-3.52343 3.59375-.91406.9961-4.44141 2.21484-4.4375-2.80078-.20313-.41016.20313-.28906 1.78125-4.14844-1.78125-1.72265-2.15234-2.71485-2.28516-1.45312-4.4375-.34375-2.89453-2.64063"/><path fill="#fff" fill-opacity="0" fill-rule="evenodd" d="M197.26172 452.25781l-1.0625 1.4414 1.0625.3125.78516-.3125-.78516-1.4414"/><path fill="#00c4fc" fill-rule="evenodd" d="M196.9336 431.50781l-.10938-4.4375.4375-.50781 4.4375-2.36719v1.47656l-2.32031 1.39844 2.3203 2.85156 4.4375-.61328.2461-2.23828-.2461-1.01172-4.4375-.38671v-1.47657l2.98048-1.5664 1.45703-.78516 4.4375.4375.3086.34766-.3086.57812-2.46094 3.86328 2.28125 4.4375.17969.40235 4.4414.83984v2.0039l-2.14062 1.19141 2.14063 2.19531 1.03906-2.1953-1.03906-1.19141V432.75l1.78906-1.24219 2.64844-1.26562 4.4375-.92578v1.30468l-3.95313.88672 3.95313 1.03906.6875-1.03906-.6875-.88672v-1.30468l1.6953 2.1914-1.6953 2.5664-4.4375-.375-1.64454 2.2461-1.26953 4.4375-1.52344 1.5625-2.3203-1.5625-2.1211-2.21094-2.33984-2.22656-2.09766-1.21484-4.4375-2.26172-4.4375-.66406-.32813-.29688"/><path fill="#00b8fc" fill-rule="evenodd" d="M201.69922 429.92188l-2.32031-2.85157 2.3203-1.39844 4.4375.38672.2461 1.01172-.2461 2.23828-4.4375.61329"/><path fill="#00e8fc" fill-rule="evenodd" d="M210.57422 425.91797l-.73047 1.15234.73047 1.35547 2.6211-1.35547-2.6211-1.15234"/><path fill="#00b8fc" fill-rule="evenodd" d="M215.01563 438.14063l-2.14063-2.19532 2.14063-1.1914 1.03906 1.1914-1.03906 2.19531m8.875-5.59375l-3.95313-1.03906 3.95313-.88672.6875.88672-.6875 1.03906"/><path fill="#00e8fc" fill-rule="evenodd" d="M223.89063 418.83203l-.4336-.64062.4336-2.01172.44921-2.42578 3.98828-3.78125v4.2578l-2.27343 3.96095 2.27344 1.5625 1.57421-1.5625-1.57422-3.96094v-4.25781l4.4375 3.71484.0586.0664-.0586.07032-1.23437 4.36719-3.20313 3.17968-4.4375-2.53906"/><path fill="#00d4fc" fill-rule="evenodd" d="M228.32813 419.7539l-2.27344-1.5625 2.27344-3.96093 1.57421 3.96094-1.57422 1.5625"/><path fill="#50fcfc" fill-rule="evenodd" d="M232.76563 430.84375l-3.86329-3.77344 3.86328-3.97656v1.54297l-2.36328 2.4336 2.36328 2.30468 4.44141-1.6211.80469-.68359-.80469-.64453-4.4414-1.78906v-1.54297l4.4414.8164 3.94531 3.16016-3.9453 3.35547-4.44142.41797"/><path fill="#00e8fc" fill-rule="evenodd" d="M232.76563 429.375l-2.36329-2.30469 2.36328-2.4336 4.44141 1.78907.80469.64453-.80469.6836-4.4414 1.62109"/><path fill="#50fcfc" fill-rule="evenodd" d="M277.15234 416.4414l-2.87109-2.6875 2.8711-2.85546 3.92577 2.85547-3.92578 2.6875m71.01172 47.95312l-2.38281-1.82031 2.38281-2.21875 2.33985 2.21875-2.33985 1.82031m31.07031-19.48437l-.04687-.08985.04688-.04687.125.04687-.125.08985"/><g clip-path="url(#c)"><path fill="#50fcfc" fill-rule="evenodd" d="M388.10938 462.92969l-.42188-.35547.42188-.58203 2.32421-3.85547 2.11329-2.5 1.09765-1.9375 2.41016-4.4375.92969-1.41797 1.73437-3.02344 2.70703-2.10156 4.4375-1.79297 2.0664-.54297 2.3711-1.13672v3.56641l-4.4375.96875-1.57031 1.03906 1.57031 2.8086 3.09375 1.6328-3.09375 1.34767-4.4375.59375-2.82031 2.49609 1.77344 4.4375-3.39454 4.17969-4.4375-.27735-.38671.53516.38671.35937 4.4375-.28125 4.44141.21875.91797 4.14454-.91797 2.5703-2.47265 1.8672-1.96875.9453-2.88672 3.4922 2.88671 3.16406 4.44141.79687 4.4375-.07031 4.4375-.6875 4.4375-.54688 4.4414.8125 4.4375.08985 4.4375-1.0625 3.35548-2.4961.14062-4.4375-1.10937-4.4375.34765-4.4414-2.73437-3.9336-.4375-.5039-4-2.90235-4.4375-1.39843-.21875-.13672-4.22266-3.67969-3.53906-.75781 1.21484-4.4414-2.11328-2.00782v-3.5664l4.4375-1.00782 2.125 2.14453-.52734 4.4375 1.27734 4.4414 1.5664 1.22267 4.4375 2.625 4.4375.26171.41016.32813 2.06641 4.4375 1.96094 3.95703 1.9414-3.95703 2.4961-2.49219 4.4414-1.52344v.94922l-4.21484 3.0664-.22656.76954-2.10156 3.66797 2.10156 1.76172 2.82812 2.67969 1.61328 3.30078 1.37891-3.30079 1.28906-4.4414.89844-4.4375-3.5664-3.0664v-.94923l4.4375 2.89063 1.47265 1.125-1.47266 3.13281-.14453 1.30469-1 4.4414-.90625 4.4375-2.38672 2.35547-2.45312-2.35546-1.39844-4.4375-.58984-.5586-3.73828.5586-.69922 3.22265-.01563 1.21485.01563.25 1.8789 4.1875-1.8789 1.41015-4.4375 2.2539-4.4375.44141-4.4375-.03125-4.4414-.29687-4.4375.19531-4.4375.25-4.4375.05078-4.44142.00781-3.90234-4.28125 2.4375-4.4375 1.46485-1.2539 4.4414-2.55469.22266-.6289-.22266-1.01954-4.4414-.60937-4.4375 1.51172-4.4375-3.96875"/></g><path fill="#00e8fc" fill-rule="evenodd" d="M392.54688 462.9336l-.38672-.35938.38671-.53516 4.4375.27735 3.39454-4.1797-1.77344-4.4375 2.82031-2.49608 4.4375-.59375 3.09375-1.34766-3.09375-1.63281-1.57031-2.8086 1.57031-1.03906 4.4375-.96875v10.58594l-.39062.30078-3.84375 4.4375-.20313 1.50781-1.48047 2.92969-.88672 4.4414-1.59765 4.4375-.47266.26563-4.4414 2.73438-1.1875 1.4375 1.1875 1.30468 4.4414 2.14063 4.4375-.10938 4.4375-1.41797 4.4375-1.13671 4.4414 1.67578 4.4375.1875 4.4375-2.09375.73829-.55079 1.21094-4.4375-1.94922-3.5039-1.44531-.9336 1.1289-4.4414-3.98437-4.4375-.13672-.09766-4.4375-1.66406-4.23047-2.67578-.21094-.1836-4.4375-.11718V442.8125l2.11328 2.00781-1.21484 4.4414 3.53906.75782 4.22266 3.67969.21875.13672 4.4375 1.39844 4 2.90234.4375.5039 2.73437 3.9336-.34765 4.4414 1.10937 4.4375-.14062 4.4375-3.35547 2.4961-4.4375 1.0625-4.4375-.08985-4.4414-.8125-4.4375.54688-4.4375.6875-4.4375.07031-4.44142-.79687-2.88671-3.16406 2.88671-3.4922 1.96875-.9453 2.47266-1.8672.91797-2.5703-.91797-4.14454-4.4414-.21875-4.4375.28125"/><path fill="#00d4fc" fill-rule="evenodd" d="M396.98438 477.19531l-1.1875-1.30469 1.1875-1.4375 4.4414-2.73437.47266-.26563 1.59765-4.4375.88672-4.4414 1.48047-2.92969.20313-1.50781 3.84375-4.4375.39062-.30078 4.4375.11719v.76953l-4.4375.24609-3.39062 3.60547-.41016 4.4375-.63672 1.48437-1.21094 2.95704-1.63671 4.4375-1.58985.89453-4.21484 3.54296 4.21484 2.92579 4.4375-.14454 4.4375-2.14843 2.03906-.63281 2.39844-.44532 1.28906.44531 3.15235 1.44532 4.4375.28125 3.21484-1.72656 1.22266-3.25.40625-1.1875-.40625-.73047-4.4375-2.9336-.26953-.77344.26953-1.72656 1.32812-2.71484-1.32812-1.46485-4.4375-2.43359-.21094-.53906-4.23047-3.85156v-.76954l.21094.1836 4.23047 2.67578 4.4375 1.66406.13672.09766 3.98437 4.4375-1.1289 4.4414 1.4453.9336 1.94923 3.5039-1.21094 4.4375-.73828.55079-4.4375 2.09375-4.4375-.1875-4.4414-1.67579-4.4375 1.13672-4.4375 1.41797-4.4375.10938-4.44142-2.14063"/><path fill="#00c4fc" fill-rule="evenodd" d="M401.42578 478.8164l-4.21484-2.92577 4.21484-3.54297 1.58985-.89454 1.63671-4.4375 1.21094-2.95703.63672-1.48437.41016-4.4375 3.39062-3.60547 4.4375-.2461v.6211l-4.4375.51953-2.54687 2.71094-.05079 4.4375-1.83984 4.29687-.0586.14454-1.67187 4.4375-2.70703 1.52343-3.46875 2.91406 3.46875 2.40625 4.4375-.17968 3.9414-2.22656.4961-.48438 4.4375-.72266 3.5 1.20704.9414.42968 4.4375.38281 1.51173-.8125.10937-4.4375-1.6211-1.09375-1.15624-3.34375-.17969-4.4414-3.10156-2.14453-.89063-2.29297-3.55078-3.23047v-.6211l4.23047 3.85157.21094.53906 4.4375 2.4336 1.32812 1.46484-1.32812 2.71484-.26953 1.72656.26953.77344 4.4375 2.9336.40625.73046-.40625 1.1875-1.22266 3.25-3.21484 1.72657-4.4375-.28125-3.15235-1.44531-1.28906-.44532-2.39844.44531-2.03906.63282-4.4375 2.14844-4.4375.14453"/><path fill="#00b8fc" fill-rule="evenodd" d="M401.42578 478.29688l-3.46875-2.40625 3.46875-2.91407 2.70703-1.52344 1.67188-4.4375.0586-.14453 1.83983-4.29687.05079-4.4375 2.54687-2.71094 4.4375-.51953v.6211l-4.4375.79687-1.70703 1.8125.3125 4.4375-2.11719 4.4414-.92578 2.81641-.60937 1.6211-3.82813 2.15234-2.71875 2.28515 2.71875 1.88672 4.4375-.21484 2.96094-1.67188 1.47656-1.4414 4.4375-.53125 4.4414 1.03515 3.4961-3.5-1.10156-4.4375-1.83594-4.4414-.5586-.38672-1.57421-4.05078-2.86719-2.60938v-.62109l3.55078 3.23047.89063 2.29297 3.10156 2.14453.17969 4.4414 1.15625 3.34375 1.6211 1.09375-.10938 4.4375-1.51172.8125-4.4375-.3828-.9414-.4297-3.5-1.20703-4.4375.72266-.4961.48438-3.9414 2.22656-4.4375.17969"/><path fill="#00a8fc" fill-rule="evenodd" d="M401.42578 477.77734l-2.71875-1.88671 2.71875-2.28516 3.82813-2.15235.60937-1.62109.92578-2.8164 2.11719-4.44141-.3125-4.4375 1.70703-1.8125 4.4375-.79688v.6211l-4.4375 1.07031-.86328.91797.67188 4.4375-2.34375 4.4414-1.125 4.4375-.77735.81641-4.4375 1.96485-1.96875 1.65625 1.96875 1.36718 4.4375-.25 1.97656-1.11719 2.46094-2.39843 4.4375-.33594 4.4414.16016 1.86329-1.86329-.35547-4.4375-1.50781-3.04687-.60156-1.39453-1.65235-4.4375-2.1875-1.98828v-.6211l2.86719 2.60938 1.57422 4.05078.5586.38672 1.83593 4.4414 1.10156 4.4375-3.4961 3.5-4.4414-1.03515-4.4375.53125-1.47656 1.4414-2.96094 1.67188-4.4375.21484"/><path fill="#009800" fill-rule="evenodd" d="M401.42578 477.25781l-1.96875-1.36719 1.96875-1.65625 4.4375-1.96484.77735-.8164 1.125-4.4375 2.34375-4.44141-.67188-4.4375.86328-.91797 4.4375-1.07031v.6211l-4.4375 1.34374-.01953.02344.01953.13281.77735 4.30469-.77735 1.53125-1.5586 2.91015-.3828 4.4375-2.4961 2.6172-4.4375.79296-1.22265 1.02735 1.22265.84765 4.4375-.28515.99219-.5625 3.44531-3.35547 4.4375-.14063 4.4414-.71484.22657-.22656.39453-4.4375-.6211-1.26172-1.375-3.1797-1.5625-4.4375-1.5039-1.36718v-.6211l2.1875 1.98829 1.65235 4.4375.60156 1.39453 1.50781 3.04688.35547 4.4375-1.86328 1.86328-4.4414-.16016-4.4375.33594-2.46095 2.39844-1.97656 1.11718-4.4375.25"/><path fill="#00ac00" fill-rule="evenodd" d="M401.42578 476.73828l-1.22265-.84765 1.22265-1.02735 4.4375-.79297 2.4961-2.61719.3828-4.4375 1.5586-2.91015.77735-1.53125-.77735-4.30469-.01953-.13281.01953-.02344 4.4375-1.34375v.6211l-2.45312.74609-.28516 4.4375-1.69922 3.35156-.58203 1.08985.35938 4.4375-4.21485 4.41796-4.4375-.3789-.47656.39844.47656.32812 4.4375-.32031.01172-.00781 4.42578-4.3125 4.4375.05468.95703-.17969 2.00781-4.4375-.67187-4.4414-1.46875-4.4375-.82422-.7461v-.62109l1.5039 1.36719 1.5625 4.4375 1.375 3.17969.6211 1.26171-.39453 4.4375-.22656.22657-4.4414.71484-4.4375.14063-3.44532 3.35546-.99219.5625-4.4375.28516"/><path fill="#00c800" fill-rule="evenodd" d="M401.42578 476.21875l-.47656-.32813.47656-.39843 4.4375.3789 4.21485-4.41796-.35938-4.4375.58203-1.08985L412 462.57422l.28516-4.4375 2.45312-.7461v2.7461l-.89453 2.4375.89453 1.8125.75-1.8125-.75-2.4375v-2.7461l.82422.7461 1.46875 4.4375.67188 4.4414-2.00782 4.4375-.95703.1797-4.4375-.0547-4.42578 4.3125-.01172.00782-4.4375.32031"/><path fill="#10cc00" fill-rule="evenodd" d="M414.73828 464.38672l-.89453-1.8125.89453-2.4375.75 2.4375-.75 1.8125"/><path fill="#00e8fc" fill-rule="evenodd" d="M436.92969 464.33594l-2.10156-1.76172 2.10156-3.66797.22656-.76953 4.21484-3.0664v1.57812l-2.04296 1.48828 2.04296 4.36328 1.73047-4.36328-1.73047-1.48828v-1.57813l3.56641 3.0664-.89844 4.4375-1.28906 4.44142-1.3789 3.30078-1.61329-3.30079-2.82812-2.67968"/><path fill="#00d4fc" fill-rule="evenodd" d="M441.3711 462.5l-2.04298-4.36328 2.04297-1.48828 1.73047 1.48828L441.3711 462.5"/><g clip-path="url(#d)"><path fill="#fff" fill-opacity="0" fill-rule="evenodd" d="M467.9961 480.32813H468V311.67188h-.0039H468v168.65625h-.0039"/></g><path fill="#fff" fill-opacity="0" fill-rule="evenodd" d="M432.79688 471.21094l3.08203 4.96484 8.46093-5.25-3.07812-4.96484-8.46485 5.25"/><path fill-rule="evenodd" d="M441.54688 469.90234l.26953.4297-5.34766 3.3203-.41406-.66796 3.8125-2.3672-.73047-1.17968.47265-.29297.34766.4414.17969.1836.19922.14844.22656.09765.26953.03907.32422-.03516.39063-.11719"/><path fill="#fff" fill-opacity="0" fill-rule="evenodd" d="M214.20313 417.65625l2.83593 5.10547 8.70703-4.83594-2.83593-5.10547-8.70703 4.83594"/><path fill-rule="evenodd" d="M223.00781 416.76953l.2461.44531-5.5 3.0547-.38282-.6875 3.92578-2.1797-.67578-1.21484.48438-.26953.32812.45703.17188.19531.1875.15625.22266.10938.26953.05078.32422-.01953.39843-.09766"/><g clip-path="url(#e)"><path fill="none" stroke="#000" stroke-linecap="round" stroke-linejoin="round" stroke-miterlimit="10" stroke-width=".5" d="M145.57031 477.1875l-3.14062 6.28516"/></g><path fill="none" stroke="#000" stroke-linecap="round" stroke-linejoin="round" stroke-miterlimit="10" stroke-width=".5" d="M145.11328 478.10156l1.22656-.03125"/><g clip-path="url(#f)"><path fill="none" stroke="#000" stroke-linecap="round" stroke-linejoin="round" stroke-miterlimit="10" stroke-width=".5" d="M158.25 476.9414l-1.8711 6.77344"/></g><path fill="none" stroke="#000" stroke-linecap="round" stroke-linejoin="round" stroke-miterlimit="10" stroke-width=".5" d="M157.98047 477.92969l1.19531-.26953"/><g clip-path="url(#g)"><path fill="none" stroke="#000" stroke-linecap="round" stroke-linejoin="round" stroke-miterlimit="10" stroke-width=".5" d="M172.9414 477.6836l-4.625 5.28906"/></g><path fill="none" stroke="#000" stroke-linecap="round" stroke-linejoin="round" stroke-miterlimit="10" stroke-width=".5" d="M172.26953 478.45313l1.19531.28125"/><g clip-path="url(#h)"><path fill="none" stroke="#000" stroke-linecap="round" stroke-linejoin="round" stroke-miterlimit="10" stroke-width=".5" d="M186.52344 477.9414l-5.15625 4.77344"/></g><path fill="none" stroke="#000" stroke-linecap="round" stroke-linejoin="round" stroke-miterlimit="10" stroke-width=".5" d="M185.77344 478.63672l1.16015.40625"/><g clip-path="url(#i)"><path fill="none" stroke="#000" stroke-linecap="round" stroke-linejoin="round" stroke-miterlimit="10" stroke-width=".5" d="M200.17578 482.28906l-5.82812-3.92187"/></g><g clip-path="url(#j)"><path fill="none" stroke="#000" stroke-linecap="round" stroke-linejoin="round" stroke-miterlimit="10" stroke-width=".5" d="M210.57422 483.84375v-7.02734"/></g><g clip-path="url(#k)"><path fill="none" stroke="#000" stroke-linecap="round" stroke-linejoin="round" stroke-miterlimit="10" stroke-width=".5" d="M224.32031 483.8164l-.85937-6.97656"/></g><g clip-path="url(#l)"><path fill="none" stroke="#000" stroke-linecap="round" stroke-linejoin="round" stroke-miterlimit="10" stroke-width=".5" d="M237.26172 483.84375l-.11328-7.02734"/></g><g clip-path="url(#m)"><path fill="none" stroke="#000" stroke-linecap="round" stroke-linejoin="round" stroke-miterlimit="10" stroke-width=".5" d="M251.4375 483.72266l-1.83203-6.78516"/></g><g clip-path="url(#n)"><path fill="none" stroke="#000" stroke-linecap="round" stroke-linejoin="round" stroke-miterlimit="10" stroke-width=".5" d="M267.14844 481.4961l-6.625-2.33594"/></g><g clip-path="url(#o)"><path fill="none" stroke="#000" stroke-linecap="round" stroke-linejoin="round" stroke-miterlimit="10" stroke-width=".5" d="M266.1836 481.15625l.18359 1.21484"/></g><g clip-path="url(#p)"><path fill="none" stroke="#000" stroke-linecap="round" stroke-linejoin="round" stroke-miterlimit="10" stroke-width=".5" d="M280.57422 479.53516l-6.84766 1.58593"/></g><g clip-path="url(#q)"><path fill="none" stroke="#000" stroke-linecap="round" stroke-linejoin="round" stroke-miterlimit="10" stroke-width=".5" d="M279.57813 479.76563l.80468.92578"/></g><g clip-path="url(#r)"><path fill="none" stroke="#000" stroke-linecap="round" stroke-linejoin="round" stroke-miterlimit="10" stroke-width=".5" d="M293.21094 478.13672l-5.49219 4.38281"/></g><path fill="none" stroke="#000" stroke-linecap="round" stroke-linejoin="round" stroke-miterlimit="10" stroke-width=".5" d="M292.41406 478.77344l1.125.48828"/><g clip-path="url(#s)"><path fill="none" stroke="#000" stroke-linecap="round" stroke-linejoin="round" stroke-miterlimit="10" stroke-width=".5" d="M306.48438 478.08594l-5.41016 4.48437"/></g><path fill="none" stroke="#000" stroke-linecap="round" stroke-linejoin="round" stroke-miterlimit="10" stroke-width=".5" d="M305.69922 478.73828l1.13281.46875"/><g clip-path="url(#t)"><path fill="none" stroke="#000" stroke-linecap="round" stroke-linejoin="round" stroke-miterlimit="10" stroke-width=".5" d="M320.4375 479.2461l-6.6836 2.16406"/></g><g clip-path="url(#u)"><path fill="none" stroke="#000" stroke-linecap="round" stroke-linejoin="round" stroke-miterlimit="10" stroke-width=".5" d="M319.46484 479.5625l.88282.85156"/></g><g clip-path="url(#v)"><path fill="none" stroke="#000" stroke-linecap="round" stroke-linejoin="round" stroke-miterlimit="10" stroke-width=".5" d="M333.71484 479.1289l-6.60546 2.39844"/></g><g clip-path="url(#w)"><path fill="none" stroke="#000" stroke-linecap="round" stroke-linejoin="round" stroke-miterlimit="10" stroke-width=".5" d="M333.71484 479.1289l1.82032 1.64454"/></g><g clip-path="url(#x)"><path fill="none" stroke="#000" stroke-linecap="round" stroke-linejoin="round" stroke-miterlimit="10" stroke-width=".5" d="M344.71094 476.95703l-1.96875 6.7461"/></g><path fill="none" stroke="#000" stroke-linecap="round" stroke-linejoin="round" stroke-miterlimit="10" stroke-width=".5" d="M344.42188 477.9375l1.20312-.25"/><g clip-path="url(#y)"><path fill="none" stroke="#000" stroke-linecap="round" stroke-linejoin="round" stroke-miterlimit="10" stroke-width=".5" d="M357.92578 476.92969l-1.76953 6.80078"/></g><path fill="none" stroke="#000" stroke-linecap="round" stroke-linejoin="round" stroke-miterlimit="10" stroke-width=".5" d="M357.66797 477.91797l1.1914-.28516"/><g clip-path="url(#z)"><path fill="none" stroke="#000" stroke-linecap="round" stroke-linejoin="round" stroke-miterlimit="10" stroke-width=".5" d="M372.75 477.75781l-4.78906 5.14063"/></g><path fill="none" stroke="#000" stroke-linecap="round" stroke-linejoin="round" stroke-miterlimit="10" stroke-width=".5" d="M372.05469 478.50781l1.1836.3164"/><g clip-path="url(#A)"><path fill="none" stroke="#000" stroke-linecap="round" stroke-linejoin="round" stroke-miterlimit="10" stroke-width=".5" d="M386.76172 478.66016l-6.1836 3.33593"/></g><g clip-path="url(#B)"><path fill="none" stroke="#000" stroke-linecap="round" stroke-linejoin="round" stroke-miterlimit="10" stroke-width=".5" d="M386.76172 478.66016l2.04297 1.35937"/></g><g clip-path="url(#C)"><path fill="none" stroke="#000" stroke-linecap="round" stroke-linejoin="round" stroke-miterlimit="10" stroke-width=".5" d="M385.86328 479.14453l1.02344.67969"/></g><g clip-path="url(#D)"><path fill="none" stroke="#000" stroke-linecap="round" stroke-linejoin="round" stroke-miterlimit="10" stroke-width=".5" d="M399.40625 477.78125l-4.83984 5.09766"/></g><path fill="none" stroke="#000" stroke-linecap="round" stroke-linejoin="round" stroke-miterlimit="10" stroke-width=".5" d="M399.40625 477.78125l2.36328.65625m-3.0664.08594l1.17968.32812"/><g clip-path="url(#E)"><path fill="none" stroke="#000" stroke-linecap="round" stroke-linejoin="round" stroke-miterlimit="10" stroke-width=".5" d="M412.16797 477.35156l-3.73438 5.95313"/></g><path fill="none" stroke="#000" stroke-linecap="round" stroke-linejoin="round" stroke-miterlimit="10" stroke-width=".5" d="M412.16797 477.35156l2.44922.17578m-2.99219.69141l1.22266.08594"/><g clip-path="url(#F)"><path fill="none" stroke="#000" stroke-linecap="round" stroke-linejoin="round" stroke-miterlimit="10" stroke-width=".5" d="M425.1914 477.1875l-3.15234 6.28125"/></g><path fill="none" stroke="#000" stroke-linecap="round" stroke-linejoin="round" stroke-miterlimit="10" stroke-width=".5" d="M424.73438 478.10156l1.22656-.02734"/><g clip-path="url(#G)"><path fill="none" stroke="#000" stroke-linecap="round" stroke-linejoin="round" stroke-miterlimit="10" stroke-width=".5" d="M438.13281 483.6289l-2.40234-6.60156"/></g><g clip-path="url(#H)"><path fill="none" stroke="#000" stroke-linecap="round" stroke-linejoin="round" stroke-miterlimit="10" stroke-width=".5" d="M453.55078 481.51953l-6.60937-2.38281"/></g><g clip-path="url(#I)"><path fill="none" stroke="#000" stroke-linecap="round" stroke-linejoin="round" stroke-miterlimit="10" stroke-width=".5" d="M452.58984 481.17188l.17579 1.21484"/></g><g clip-path="url(#J)"><path fill="none" stroke="#000" stroke-linecap="round" stroke-linejoin="round" stroke-miterlimit="10" stroke-width=".5" d="M466.92578 481.33984l-6.73047-2.02343"/></g><g clip-path="url(#K)"><path fill="none" stroke="#000" stroke-linecap="round" stroke-linejoin="round" stroke-miterlimit="10" stroke-width=".5" d="M147.41797 466.20703l-6.83594 1.61328"/></g><path fill="none" stroke="#000" stroke-linecap="round" stroke-linejoin="round" stroke-miterlimit="10" stroke-width=".5" d="M146.42578 466.4414l.8086.92188m13.40234-1.49219l-6.64453 2.28516m5.67969-1.95313l.89453.83985m13.54297-.50781l-6.96094.95703m5.94922-.8164l.71875.99608m13.55468-1.43359l-6.85156 1.55078m5.85547-1.32422l.80078.92578m13.58594-.6875l-7 .6211m5.98047-.53125l.66797 1.03125m13.67968-.76172l-7.02734-.09766m6.0039.08203l.5625 1.09375m13.125.91016l-5.72656-4.07422m4.89453 3.48047l-.16015 1.21485m13.82031-.07032l-4.7539-5.17578m4.0625 4.42188l-.41016 1.15625m13.98047-.0625l-3.8789-5.85547m3.3125 5.0039l-.58204 1.07813m15.75781-1.78125l-6.46875-2.7461m5.52735 2.34376l.10937 1.22265m14.39844-2.625l-6.97266.86328m5.95703-.73828l.70704 1.0039m13.55859-1.49609l-6.84375 1.59766m6.84375-1.59766L295.5 468.0625m11.51563-2.42578l-6.46875 2.7539m6.46875-2.7539l1.90625 1.54297m11.55468-1.1211l-6.76172 1.91016m6.76172-1.91016l1.69922 1.77344m11.67578-1.53906l-6.8789 1.4414m6.8789-1.4414l1.57032 1.88672m11.61718-2.33203l-6.6289 2.33203m6.6289-2.33203l1.8086 1.66015m11.03515-2.5625l-5.67968 4.13672m5.67968-4.13672l2.20313 1.07422m11.76953.66016l-6.9961.66797m5.97657-.57032l.67578 1.02344m13.58594-1.5625l-6.85157 1.55078m5.85547-1.32422l.80078.92579m13.34766.92187l-6.52734-2.59766m6.52734 2.59766l.27344 2.4375m9.57031-.23047l.41797-7.01172m-.35938 5.99219l-1.11328.51172m17.38282-5.11328l-5.60938 4.23047m4.79297-3.6172l1.11328.51954m13.30078 2.66016l-6.17578-3.35547m5.27734 2.86719l-.01171 1.22656m13.80468-.1289l-5.33593-4.57423m4.55859 3.90625l-.26563 1.19922m14.54297-.76953l-5.70703-4.09766m4.8789 3.50391l-.16405 1.21484"/><g clip-path="url(#L)"><path fill="none" stroke="#000" stroke-linecap="round" stroke-linejoin="round" stroke-miterlimit="10" stroke-width=".5" d="M147.5039 453.96484l-7.0078-.53125"/></g><path fill="none" stroke="#000" stroke-linecap="round" stroke-linejoin="round" stroke-miterlimit="10" stroke-width=".5" d="M146.48438 453.88672l.49218 1.125m13.85156-1.35938l-7.02734.08985m6.0039-.07422l.58985 1.07422m13.59766-.01953l-6.72266-2.04688m5.74219 1.75l.23828 1.20313m14.1914-2.28125l-6.99218.69921m6.99219-.69921l1.36328 2.04296m11.89844-1l-6.88672-1.3828m6.88672 1.3828l.70312 2.35157m12.6836-3.01563l-7.02735-.0586m7.02734.0586l1.13282 2.17969m12.17578-2.02344l-7.01563-.3711m7.01563.3711l1.03515 2.22656m12.04297-1.1289l-6.54297-2.5625m5.58985 2.1914l.14453 1.21485m14.02344-.61328l-6.34375-3.02344m5.42187 2.58203l.05469 1.22656m14.01172-.46875l-6-3.65625m5.125 3.125l-.07031 1.22266m14.73046-1.98047l-6.9414-1.07812m5.9336.92187l.40233 1.15625m13.9336-1.98437l-6.96875.89062m6.96875-.89062l1.41797 2.0039m11.76562-2.60937L300.4297 454.75m6.70312-2.10156l1.7461 1.72265m11.32812-2.30468l-6.22266 3.26562m6.22266-3.26562l2.02734 1.3828m11.57422-.64452l-6.79687 1.78515m6.79687-1.78515l1.66407 1.80468m11.55468-2.11718l-6.60156 2.41015m6.60156-2.41015l1.82422 1.64062m11.3125-2.03906l-6.2461 3.21094m5.33985-2.7461l1.00781.70313m13.07422-1.41797l-5.96875 3.70703m5.10157-3.16797l1.05859.61719m13.03125-1.29688l-5.78516 3.98829m4.94532-3.40625l1.08984.5664m11.90625 3.90235l-3.46484-6.11329m2.96093 5.22657l-.66015 1.03515m10.27343-.71093l4.94922-4.98829m-4.23047 4.26563l-1.17578-.35547m13.41016.66016l5.66797-4.15235m12.02734 5.23047l-3.08984-6.3086m2.64062 5.39063l-.71875.9961m15.64844-.9961l-5.42187-4.47265m4.6328 3.82422l-.24609 1.20312m14.82032-1.29687l-6.36328-2.98438m6.36328 2.98438l.125 2.44921"/><g clip-path="url(#M)"><path fill="none" stroke="#000" stroke-linecap="round" stroke-linejoin="round" stroke-miterlimit="10" stroke-width=".5" d="M147.46094 439.78516l-6.92188 1.1953"/></g><path fill="none" stroke="#000" stroke-linecap="round" stroke-linejoin="round" stroke-miterlimit="10" stroke-width=".5" d="M146.45313 439.96094l.7539.96875m13.6211-.52344l-7.02735-.04688m6.0039.03907l.57032 1.08984m13.66797-.27344l-6.82813-1.66015m5.83594 1.41797l.30469 1.1875m13.6914-.125l-6.20312-3.3047m5.30078 2.82423l-.0039 1.22656m13.92578-.28516l-5.61328-4.22656m4.79687 3.61328l-.1914 1.21094m14.73827-1.3086l-6.4414-2.80468m6.4414 2.80469l.19141 2.44922m13.39453-3.47266l-6.98437-.75781m6.98437.7578l.91016 2.28126m12.41406-2.38281l-7.0039-.5547m7.0039.5547l.98047 2.25m12.33594-2.79688l-7.00781.53906m7.0078-.53906l1.31641 2.07031m11.9922-1.4375l-6.9922-.72265m5.97266.61718l.46094 1.13672m13.80078-.60937l-6.84766-1.5664m5.85156 1.33593l.32032 1.1875m13.26953-3.98828l-5.40235 4.4961m4.61329-3.84376l1.13671.46485m13.51563-.20313l-6.5 2.66406m5.55469-2.27734l.94531.78516m13.10156-1.60938l-6.07422 3.53906m5.19141-3.02343l1.04297.64453m13.1289-1.19922l-6.02343 3.6211m5.14843-3.09766l1.05079.6328m13.60546.14454l-6.95312 1.01562m5.9414-.86718l.72657.98828m12.73828-2.97266l-5.23047 4.6914m4.46875-4.01171l1.15234.42187m12.09766-1.78125l-3.57422 6.05079m3.05469-5.17188l1.22266.05469m12.35937-1.07031l-3.07031 6.3203m2.625-5.39843l1.22656-.04687m9.0039 5.17968l3.98829-5.78515m8.78125 5.3164l5.08203-4.85156m10.02734 5.85938l1.4922-6.8672m-1.27735 5.8672l-1.17969.33593m15.1875.7422l-.32422-7.01954m.27734 5.9961l-1.05468.625m15.48828.17577l-2.46875-6.57812m2.10937 5.6211l-.8125.92187m13.39453.25781l-.28515-7.02344m.2461 6l-1.0625.6211"/><g clip-path="url(#N)"><path fill="none" stroke="#000" stroke-linecap="round" stroke-linejoin="round" stroke-miterlimit="10" stroke-width=".5" d="M147.33984 425.97266l-6.67578 2.1914"/></g><path fill="none" stroke="#000" stroke-linecap="round" stroke-linejoin="round" stroke-miterlimit="10" stroke-width=".5" d="M147.33984 425.97266l1.76953 1.69922m11.71094-.38282l-7.01172-.4414m5.9922.375l.5078 1.11718m13.70703-.32812l-6.76953-1.88672m5.78516 1.60938l.26172 1.19921m12.13281 1.32032l-2.96094-6.3711m2.53125 5.44531l-.74218.97657m12.55859.25l.89453-6.97266m-.76172 5.95703l-1.14844.4336m17.04688-.21875l-4.53516-5.3711m3.875 4.58985l-.45703 1.13671m15.15235-1.1953l-5.97657-3.69141m5.10547 3.15625l-.07812 1.22265m14.13281-.48828l-5.71484-4.08984m4.8828 3.4961l-.16015 1.21483m14.77735-1.53515l-6.65235-2.26172m6.65235 2.26172l.39453 2.42187m12.8789-2.30859l-6.5703-2.48828m5.61327 2.1289l.15625 1.21485m14.29297-1.5l-6.92578-1.19922m5.91797 1.02344l.38281 1.16797m12.79688-4.23047l-4.64063 5.27734m3.96484-4.51172l1.19532.28516m9.6914-1.83594l1.56641 6.84766m14.20703-6.51172l-3.34766 6.17578m2.86329-5.27734l1.22656.01172m12.92578-.69141l-4.05469 5.73828m3.46485-4.90234l1.21875.15234m13.07421-.67188l-4.82812 5.10547m4.125-4.36328l1.1836.32813m13.8789 2.09765l-6.91797-1.23047m19.89453-.99609l-6.24219 3.22266m17.01954-5.07422l-1.16797 6.92578m1.16797-6.92578l2.32812-.77734m13.25781 2.1914l-5.70703 4.09766m5.70703-4.09766l2.19922 1.08594m5.96485 3.6211l4.59375-5.31641m14.53125 2.55078l-7.02344.21484m13.63281-1.57031l6.38672 2.92578m8.6289 1.71875l2.98438-6.36328m-2.55078 5.4375l-1.22266.0625m16.3672 1.10937l-1.53907-6.85546m1.3164 5.85937l-.93359.79688"/><g clip-path="url(#O)"><path fill="none" stroke="#000" stroke-linecap="round" stroke-linejoin="round" stroke-miterlimit="10" stroke-width=".5" d="M146.71484 411.52344l-5.42968 4.46094"/></g><path fill="none" stroke="#000" stroke-linecap="round" stroke-linejoin="round" stroke-miterlimit="10" stroke-width=".5" d="M146.71484 411.52344l2.26563.9414m-3.05469-.29297l1.13281.46875m13.28516-.66796l-6.0586 3.55859m6.0586-3.5586l2.08984 1.28516m11.70313.2539l-7.01172.48438m5.99219-.41406l.64844 1.03906m12.04296 2.11329l-3.72656-5.96094m3.1836 5.09375l-.61329 1.0625m12.96875.32031l-.72265-6.99219m.61719 5.97266l-1.01563.6836m14.26563.34765l-.37891-7.01563m.32031 5.9961l-1.05078.63281m14.89453.32813l-1.32031-6.90235m1.1289 5.89844l-.95703.76953m14.8125.14844l-2.01953-6.73047m1.72656 5.7539l-.87109.86329m16.71875-1.91016l-6.4961-2.67969m6.4961 2.67969l.23828 2.4414m13.29297-3.20312l-6.92969-1.15625m6.9297 1.15625l.77734 2.32813m12.55468-3.3672l-6.96484.91798m6.96484-.91797l1.42578 2m11.20313-3.66406l-5.59375 4.25m4.78125-3.63282l1.11328.51563m12.34766-1.80078l-4.26172 5.58594m3.64453-4.77344l1.21094.19922m8.67187-1.16016l3.83984 5.88281m-3.28125-5.02734l.58985-1.07422m14.23828-.35156l-.30078 7.02344m.2539-6l1.10938-.53125m15.32812 1.6289L340.5 415.14063m18.97656 1.14453l-4.8711-5.06641m19.14454 3.44922l-6.78516-1.83203m17.83985-2.41016l-2.26563 6.65234m1.9375-5.68359l1.21094-.19531m11.46875-.95703l-.33984 7.01953m.28906-5.9961l1.11328-.52343m14.61328.57422l-5.0625 4.875m4.32813-4.16407l1.16406.37891m11.4414-1.99219l-2.17578 6.67969m13.03516-6.57813l2.73828 6.47266m-2.33984-5.52734l.77343-.95313m10.60157 5.21485l5.82031-3.9375m-4.97266 3.36328l-1.08593-.57422m16.78515 2.67969l-.64062-7m.54687 5.98047l-1.02734.67187"/><g clip-path="url(#P)"><path fill="none" stroke="#000" stroke-linecap="round" stroke-linejoin="round" stroke-miterlimit="10" stroke-width=".5" d="M146.23047 397.72266l-4.46094 5.42968"/></g><path fill="none" stroke="#000" stroke-linecap="round" stroke-linejoin="round" stroke-miterlimit="10" stroke-width=".5" d="M146.23047 397.72266l2.40625.48828m-3.05469.30469l1.20313.24218m12.87109-.9414l-4.67969 5.24218m4.67969-5.24218l2.38281.58203m-3.0664.17969l1.1914.29296m11.92188-1.6328l-2.91016 6.39843m2.91016-6.39844l2.44922-.14844m-2.875 1.08204l1.22656-.07813m7.66797 1.42969l6.78125 1.83203m-5.79688-1.5664l-.27344-1.19532m14.00782 4.74219l3.97265-5.79688m-3.39453 4.95313l-1.21875-.13672m13.73438.8164l4.41797-5.46484m-3.77344 4.66797l-1.20703-.23047m13.78906.95313l4.58984-5.32032m-4.58984 5.32032l-2.39063-.54297m17.75391 1.38672l.5-7.00782m-.42969 5.98829l-1.12109.5m16.875-.29297l-4.51953-5.37891m4.51953 5.3789l-.91797 2.27344m14.54688-2.57421l-5.14844-4.78125m4.39844 4.08593l-.3125 1.1875m14.71875-.92187l-5.83203-3.92188m4.98437 3.35156l-.1289 1.22266m14.68359-3.80078l-6.61328 2.375m5.64843-2.02734l.91016.82421M307 399.03125l-6.4375 2.8125m6.4375-2.8125l1.92187 1.52734m11.2461-1.82812l-6.14453 3.41406m5.25-2.91406l1.03125.66406m13.57812.01172l-6.94531 1.0664m5.9375-.91406l.73047.98438m13.63281-.60547h-7.02734m6.00781 0l.57422 1.08594m13.6211-.09766l-6.7461-1.97265m6.7461 1.97265l.49609 2.40235m12.95703-3.52344l-7.02344.26562m6-.22656l.61719 1.0625m12.67187-3.47656l-4.92187 5.01562m4.92187-5.01562l2.35156.69531m10.1797-1.27344l-3.35548 6.17578m2.8672-5.27734l1.22655.01172m13.125-.54297l-4.44922 5.4375m3.80079-4.64453l1.20312.23828m11.15625-1.76953l-1.2461 6.91406m1.06641-5.90625l1.16797-.375m11.67969-.6875l.05078 7.02735m-.04297-6.00782l1.08203-.58203m9.33203 5.03516l5.83594-3.91797m10.23047 5.46875l.33203-7.01953m-.28125 5.9961l-1.10937.52343"/><g clip-path="url(#Q)"><path fill="none" stroke="#000" stroke-linecap="round" stroke-linejoin="round" stroke-miterlimit="10" stroke-width=".5" d="M145.6289 384.01172l-3.2578 6.22265"/></g><path fill="none" stroke="#000" stroke-linecap="round" stroke-linejoin="round" stroke-miterlimit="10" stroke-width=".5" d="M145.6289 384.01172l2.45313-.01563m10.9375.0547l-3.41016 6.14452m3.41016-6.14453l2.45703.04688m-2.95312.84765l1.22656.02344m12.39844-1.01563l-3.03516 6.33985m3.03516-6.33985l2.45312-.10156m-2.89453 1.02344l1.22656-.05078m13.73828.08203l-5.45312 4.4336m4.66016-3.78907l1.1289.47656m7.30078 3.00391l5.90235-3.8125m6.88672 1.39453l6.95312 1.01953m-5.9414-.8711l-.41016-1.15624m13.90625 4.1875l4.57031-5.33985m-4.57031 5.33985l-2.39453-.53516m17.22656 1.29297l1.53906-6.85547m-1.3164 5.85938l-1.1836.32422m17.19922.01953l-4.3086-5.55078m3.6797 4.74218l-.50391 1.1211m13.96094.0039l-3.33985-6.18359m3.33985 6.1836l-1.35547 2.04296m16.01172-3.32031l-6.01563-3.6289m5.14063 3.10156l-.07032 1.22656m14.60547-3.55469l-6.71093 2.08203m5.73437-1.77734l.8711.86328m12.60546-2.55469l-5.07812 4.85547m5.07812-4.85547l2.33203.76953m11.89454.98829l-6.89844 1.33984m6.89844-1.33985l1.54296 1.91016m11.82813-1.03906l-7.01563-.40235m7.01563.40235l1.02734 2.22656m12.29297-2.55469l-7.02344.25782m7.02344-.25782l1.23047 2.1211m11.10547-4.42969l-5.0625 4.8711m5.0625-4.8711l2.33203.76172m11.26172-.4336l-5.6211 4.21485m5.6211-4.21485l2.21875 1.04297m10.42969-1.71875l-4.29297 5.56641m4.29297-5.5664l2.42187.41406m11.1211-.21875l-4.7461 5.17968m4.7461-5.17968l2.375.61328m10.85546-.6914l-4.57812 5.33202m4.57812-5.33203l2.39454.53516m9.5664-1.25781l-1.86719 6.77734m1.8672-6.77735l2.39452-.53125m10.47657.44141l-.98047 6.95703m.83984-5.94531l1.15234-.41797m9.04297.72266l5.53907 4.32422m12.40625.8203l-3.71875-5.96483m3.71875 5.96484l-1.23047 2.125"/><g clip-path="url(#R)"><path fill="none" stroke="#000" stroke-linecap="round" stroke-linejoin="round" stroke-miterlimit="10" stroke-width=".5" d="M144.69922 370.36328l-1.39844 6.88672"/></g><path fill="none" stroke="#000" stroke-linecap="round" stroke-linejoin="round" stroke-miterlimit="10" stroke-width=".5" d="M144.69922 370.36328l2.35156-.69531m11.3086.78515l-2.08985 6.71094m2.08984-6.71094L160.76953 370m12.33594 1.3164l-4.95313 4.98438m4.95313-4.98437l2.35156.71093m-3.07031.01563l1.17578.35156m13.1875-.70312l-5.60938 4.23437m5.60938-4.23437l2.22266 1.03906m-3.03907-.42188l1.11328.51563m13.2422-.79297l-6.0586 3.55469m6.0586-3.55469l2.08984 1.28516m-2.96875-.76954l1.04297.64454m12.91406-1.51954l-5.58203 4.26954m5.58203-4.26954l2.23047 1.02344m5.85156 3.64063l4.88281-5.05469m9.91406 5.90625l1.92188-6.75781m-1.92188 6.75781l-2.39843.51563m16.77734-.38282l-.20703-7.02344m.20703 7.02344l-2.13281 1.21485m17.44531-1.91016l-4.20313-5.63281m3.58985 4.8125l-.52344 1.10937m15.52344-1.59765l-6.34766-3.01563m5.42578 2.57813l.0547 1.22265m14.37108-1.26953l-6.72265-2.04687m6.72265 2.04687l.46875 2.41016m12.98047-3.78516l-6.99218.70313m6.99218-.70313l1.36329 2.03906m-2.38282-1.9375l.6836 1.01954m13.53515-1.72657l-6.76172 1.91406m6.76172-1.91406l1.69922 1.76953m-2.6836-1.49218l.85157.8828m13.35547-1.4414l-6.57422 2.47656m6.57422-2.47656l1.83984 1.61719m10.67188-2.86328l-4.96875 4.96875m4.96875-4.96875l2.34765.71875m11.32032-.30469l-5.67579 4.14063m5.67579-4.14063l2.20703 1.07031m11.16406-.99218l-5.78906 3.98437m5.78906-3.98437l2.17969 1.1328m10.76172-1.58983l-5.04297 4.89453m5.04297-4.89454l2.33593.75391m11.0586-.66797l-5.20313 4.72266m5.20313-4.72266l2.3125.83203m-3.0664-.14453l1.15233.41797m12.57813-1.4336L408.04297 376.5m4.51953-5.38281l2.39844.51172m10.64844-.71485l-3.98829 5.78516m3.98829-5.78516l2.4375.28125m10.5703-.46875l-3.37109 6.16406m3.3711-6.16406l2.45312.02735m12.65625 2.5664l-6.96094.97656m18.62891 2.50782l-3.66797-5.99219m3.66797 5.99219l-1.2461 2.11328m.71485-2.98438l-.625 1.0547"/><g clip-path="url(#S)"><path fill="none" stroke="#000" stroke-linecap="round" stroke-linejoin="round" stroke-miterlimit="10" stroke-width=".5" d="M145.98828 357.59766l-3.97656 5.79296"/></g><path fill="none" stroke="#000" stroke-linecap="round" stroke-linejoin="round" stroke-miterlimit="10" stroke-width=".5" d="M145.98828 357.59766l2.4375.27343m10.47656-.51171l-3.17578 6.26562m2.71485-5.35547l1.22656-.02344m12.75-.77734l-3.57422 6.05078m3.57422-6.05078l2.45312.10938m11.51953.39062L181.5 363.01563m4.17969-4.3125l1.17969.33984m13.13671-.75781l-5.46875 4.41406m5.46875-4.41406l2.25391.96484m11.29688-.63281l-5.94532 3.75m5.94531-3.75l2.12891 1.21875m-2.99219-.67188l1.0625.60938m13.32422-.77735l-6.35937 2.9961m6.35937-2.9961l1.96485 1.46875m-2.89063-1.03515l.98047.73437m12.48438 2.89063l-4.8086-5.125m4.8086 5.125l-.79297 2.32422m12.46875-1.45704l-1.52735-6.85937m1.52735 6.85938l-1.8672 1.59765m17.45704-3.26562l-6.07813-3.51954m6.07813 3.51954l-.08594 2.45312m13.50781-2.64844l-6.29296-3.1328m6.29297 3.1328l.0625 2.45313m-.98047-2.90625l.03515 1.22656m14.38282-1.22265l-6.66407-2.23438m6.66407 2.23438l.40234 2.42187m-1.3711-2.7461l.40235 2.42188m13.89844-4.28125l-6.69532 2.13672m6.69532-2.13672l1.7539 1.71485m-2.73047-1.40625l1.75782 1.71484m12.3828-2.41406l-6.39452 2.91796m6.39453-2.91796l1.94531 1.49218m-2.875-1.0703l.97266.74608m13.1836-1.34765l-6.21876 3.27344m6.21875-3.27344l2.02735 1.38281m11.09375-1.70312l-5.83204 3.91796m4.98438-3.34765l1.08203.57422m13.1914-.97266l-6.05077 3.57031m5.17187-3.05078l1.04688.64063m12.66406-1.80078l-5.08203 4.85156m5.08203-4.85156l2.32812.77343m11.38672-.26953l-5.88281 3.84375m5.88281-3.84375l2.14844 1.1836m11.07031-1.32032l-5.6914 4.1211m5.6914-4.1211l2.20313 1.07813m-3.03125-.48047l1.10156.54297m12.8711-1.35938l-5.35157 4.5547m5.35156-4.5547l2.28125.90235m-3.0586-.23828l1.14063.44921m12.875-1.19921l-5.1953 4.73046m5.1953-4.73046l2.3086.82812m-3.0664-.14062l1.15624.41406m13.27735-.63281l-5.91797 3.79296m5.91797-3.79296l2.13671 1.20312m-3-.65234l1.07032.60156m13.6289.25l-6.95703.98828M453.72656 360l1.44532 1.98047m10.16796 1.54297l-3.55859-6.0586m3.5586 6.0586l-1.28516 2.08984"/><g clip-path="url(#T)"><path fill="none" stroke="#000" stroke-linecap="round" stroke-linejoin="round" stroke-miterlimit="10" stroke-width=".5" d="M146.71875 344.94922l-5.4375 4.45703"/></g><path fill="none" stroke="#000" stroke-linecap="round" stroke-linejoin="round" stroke-miterlimit="10" stroke-width=".5" d="M146.71875 344.94922l2.26172.94531m11.79297.65625l-6.91406 1.2539m6.91406-1.2539l1.51953 1.92578m10.71875-3.88281l-4.76172 5.16797m4.07031-4.41406l1.1836.30859m11.55859-1.8086l-2.23438 6.66016m1.91016-5.6914l1.20703-.20313m7.83985 2.05078l6.94922 1.02735m-5.9375-.87891l-.41407-1.15625m18.78516-.85156l-5.1836 4.7461m4.4297-4.0547l1.15624.41016m13.0586-.92578l-5.47657 4.39844m4.6797-3.76172l1.1289.48437m13.71484.53516l-6.9414 1.08594m6.9414-1.08594l1.47266 1.96094m9.98047 1.70312l-3.21875-6.2461m3.21875 6.2461l-1.39844 2.01563m15.65234-2.71875l-5.09375-4.83985m5.09375 4.83985l-.66015 2.36718m-.08203-3.0703l-.32813 1.18358m14.98828-1.34765L274 345.625m6.30078 3.10547l.07813 2.45312m-.9922-2.90234l.03517 1.22266m14.55078-2.5625l-7.01172.47265m7.01172-.47265l1.29296 2.08593m-2.3125-2.01562l.64454 1.04297m13.3828-2.32422l-6.40233 2.89453m6.40234-2.89453l1.94531 1.4961m-2.875-1.07423l1.9414 1.4961m12.17188-2.1836l-6.13672 3.42579m6.13672-3.42579l2.0625 1.33204m-2.95703-.83204l2.0625 1.32813m12.41797-1.20313l-6.67969 2.17579m6.67969-2.17579l1.76953 1.70313m-2.73828-1.38672l.88281.85156m13.52735-.66797l-6.9297 1.17579m5.92188-1.00391l.7461.97265m13.3164-1.99609l-6.41015 2.8789m5.47656-2.46093l.96875.7539m13.36719-.95702l-6.58594 2.44921m6.58594-2.44921l1.83594 1.6289m11.22265-2.17578l-6.07031 3.54297m6.07031-3.54297l2.08594 1.29297m11.0586-1.55469l-5.73048 4.0664m5.73047-4.0664l2.19531 1.10156m11.14844-1.05859l-5.78906 3.98047m5.78906-3.98047l2.17969 1.13281m-3.01953-.55469l1.08594.56641m13.23828-.875l-6.125 3.4414m6.125-3.4414l2.0664 1.32422m-2.95703-.82422l1.03125.66406m13.29297-.92968l-6.36328 2.97656m6.36328-2.97656l1.96094 1.47265m-2.88672-1.04297l1.96094 1.47657m12.32812-1.8047l-6.46094 2.76954m6.46094-2.76953l1.91016 1.53906m-2.85156-1.13672l.95703.76953m13.57031-.07421l-7.0039.57812"/><g clip-path="url(#U)"><path fill="none" stroke="#000" stroke-linecap="round" stroke-linejoin="round" stroke-miterlimit="10" stroke-width=".5" d="M467.0625 346.89063l1.32813 2.0625"/></g><path fill="none" stroke="#000" stroke-linecap="round" stroke-linejoin="round" stroke-miterlimit="10" stroke-width=".5" d="M466.04297 346.97266l.66406 1.03125"/><g clip-path="url(#V)"><path fill="none" stroke="#000" stroke-linecap="round" stroke-linejoin="round" stroke-miterlimit="10" stroke-width=".5" d="M146.65625 331.5625l-5.3125 4.60156"/></g><path fill="none" stroke="#000" stroke-linecap="round" stroke-linejoin="round" stroke-miterlimit="10" stroke-width=".5" d="M146.65625 331.5625l2.28906.88281m11.88281 1.48047l-7.02734-.125m7.02734.125l1.11329 2.1875m12.1953-2.01953l-7.01171-.46094m7.01172.46094l1.0039 2.23828m12.21094-3.32422l-6.8125 1.71094m6.8125-1.71094l1.64453 1.82031m11.76563-1.23828l-7.0039.54688m7.0039-.54688l1.3164 2.07032m11.375.21484l-5.7578-4.02344m4.92187 3.4375l-.14844 1.21875m13.20703-5.67187l-3.57031 6.05469m3.05078-5.17579l1.22266.0547m14.28906 1.5l-6.92578 1.1875m5.91797-1.01563l.75.96875m12.71875 1.80468l-5.21875-4.70312m5.21875 4.70312l-.59375 2.38282m-.16407-3.06641l-.29687 1.1914m14.0664-.20702l-4.60937-5.3047m4.60938 5.3047l-.87891 2.28906m.20703-3.0625l-.8789 2.29297m15.93359-3.1875l-6.7461-1.96875m6.7461 1.96875l.4961 2.40234m-1.47657-2.6875l.4961 2.40234m13.89452-3.66406l-6.9375 1.125m6.9375-1.125l1.48438 1.95313m-2.49219-1.78907l1.48438 1.95313m12.67968-2.74219l-6.61718 2.375m6.61718-2.375l1.8125 1.65235m-2.77734-1.3047l1.8164 1.64844m12.53516-1.76953l-6.76172 1.92188m6.76172-1.92188l1.69922 1.76954m-2.6836-1.4922l1.69923 1.76954m12.5625-2.16406l-6.6875 2.15234m6.6875-2.15234l1.76171 1.71093m-2.73437-1.39453l1.76172 1.70703m12.69531-.99218l-7.02734.09375m7.02734-.09375l1.1836 2.15234m11.99218-3.08984l-6.7461 1.96875m5.76563-1.6836l.85547.8789m12.8125-2.37108l-5.49219 4.3828m4.69532-3.74609l1.125.48829m12.25781-1.8086l-4.03516 5.75m3.44922-4.91406l1.21875.14844m11.84375-1.42188l-2.35547 6.6211m2.01172-5.65625l1.21485-.1797m14.16406.53907l-5.79297 3.97656m4.94922-3.39844l1.08594.56641m13.60156.07422l-6.85547 1.53906m6.85547-1.53906l1.60156 1.85938m-2.59766-1.63672l.80079.92968m13.5039-1.1914l-6.83984 1.61719m6.83984-1.6172l1.61719 1.84376m-2.61328-1.60938l1.6211 1.84375m12.51562-2.61719L447 335.21094m6.49219-2.69531l1.89453 1.55859m-2.83985-1.16797l1.89454 1.5625m12.22656-2.25l-6.21094 3.28906"/><g clip-path="url(#W)"><path fill="none" stroke="#000" stroke-linecap="round" stroke-linejoin="round" stroke-miterlimit="10" stroke-width=".5" d="M466.66797 332.21875l2.03125 1.375"/></g><path fill="none" stroke="#000" stroke-linecap="round" stroke-linejoin="round" stroke-miterlimit="10" stroke-width=".5" d="M465.76172 332.69531l1.01562.6875"/><g clip-path="url(#X)"><path fill="none" stroke="#000" stroke-linecap="round" stroke-linejoin="round" stroke-miterlimit="10" stroke-width=".5" d="M145.74219 317.4961l-3.48438 6.10156"/></g><path fill="none" stroke="#000" stroke-linecap="round" stroke-linejoin="round" stroke-miterlimit="10" stroke-width=".5" d="M145.74219 317.4961l2.45312.07421m10.72656 6.10156l-3.21093-6.25m2.74219 5.33985l-.69922 1.00781m16.17968-2.02734l-6.60937-2.39063m5.64844 2.04297l.17187 1.21485m14.1836-3.00782l-6.76563 1.89453m6.76563-1.89453l1.6953 1.77344m11.66798-1.58984l-6.85938 1.52734m6.85938-1.52734l1.59375 1.86328m11.73047-1.8125l-6.88282 1.42578m6.88281-1.42578l1.56641 1.88672m11.79297-1.62891L220.40625 321m5.95313-.77344l.71093 1m13.33594.76953l-6.40234-2.89453m6.40234 2.89453l.15625 2.44922m12.57422-1.55469l-5.23438-4.6875m5.23438 4.6875l-.58594 2.38282m-.17578-3.0625l-.58594 2.38281m14.92188-2.02734l-5.75-4.03907m5.75 4.03907l-.30469 2.4375m-.53125-3.02344l-.30469 2.4336m-.53125-3.02344l-.15234 1.21875m15.67578-1.22657l-6.82422-1.67187m6.82422 1.67187l.60547 2.3789m-1.59766-2.62108l.60156 2.3789m13.78907-3.34765l-6.98828.75m6.98828-.75l1.375 2.03125m-2.39453-1.92188l.6914 1.01563M307.25 320l-6.9414 1.09766M307.25 320l1.47656 1.96094m-2.48437-1.80078l.73828.98046m13.46875-1.63671l-6.70703 2.08984m6.70703-2.08984l1.7461 1.72265m-2.72266-1.41797l.875.85938m13.42187-1.15625l-6.71484 2.07422m6.71484-2.07422l1.73828 1.73047m-2.71484-1.42969l.86719.86328m13.32421-1.4414l-6.51562 2.625m6.51562-2.625l1.87891 1.57812m-2.82812-1.19531l.9414.78906m13.11328-1.60156l-6.09765 3.48828m6.09765-3.48828l2.07813 1.3086m-2.96485-.80079l1.03907.65234m13.32031-.85156l-6.41406 2.86719m6.41406-2.86719l1.9375 1.50781m11.15234-1.92968l-5.96484 3.71484m5.96484-3.71484l2.125 1.23046m10.9297-1.59765l-5.44142 4.44922m5.44141-4.44922l2.26172.94531m10.79297-1.23047l-4.91797 5.01953m4.91797-5.01953l2.35156.6914m11.07813 4.21095l-5.14844-4.78516m19.28125 3.30469l-6.78516-1.82422m5.79688 1.5586l.27734 1.1953m14.03516-2.71484l-6.80469 1.7461m6.80469-1.7461l1.65625 1.8125m-2.64453-1.5586l1.65234 1.8125m12.03516-3.33593l-5.57032 4.28125"/><g clip-path="url(#Y)"><path fill="none" stroke="#000" stroke-linecap="round" stroke-linejoin="round" stroke-miterlimit="10" stroke-width=".5" d="M466.34766 318.40625l2.23437 1.01563"/></g><g clip-path="url(#Z)"><path fill="none" stroke="#000" stroke-linecap="round" stroke-linejoin="round" stroke-miterlimit="10" stroke-width=".5" d="M465.53906 319.03125l2.23047 1.01563"/></g><path fill="#ff3030" fill-rule="evenodd" d="M446.63281 472.08594h7.6914V461.9414h-7.6914v10.14453"/><path fill="azure" fill-rule="evenodd" d="M448.46484 463.77344h.83204v5.73828h3.1953v.74219h-4.02734v-6.48047"/><path fill="#ff3030" fill-rule="evenodd" d="M340.10938 467.64844h7.6953V457.5039h-7.6953v10.14453"/><path fill="azure" fill-rule="evenodd" d="M341.94531 459.33594h.83203v5.73828h3.19532v.74219h-4.02735v-6.48047"/><path fill="#00f" fill-rule="evenodd" d="M383.80078 436.57813h8.61719v-10.14454h-8.61719v10.14454"/><path fill="azure" fill-rule="evenodd" d="M385.63281 428.26563h.83203v2.82421h3.28907v-2.82421h.83203v6.48046h-.83203v-2.91406h-3.28907v2.91406h-.83203v-6.48046"/><path fill="#00f" fill-rule="evenodd" d="M219.58203 414.38672h8.61719v-10.14453h-8.61719v10.14453"/><path fill="azure" fill-rule="evenodd" d="M221.41406 406.07422h.83203v2.82422h3.28907v-2.82422h.83203v6.48047h-.83203v-2.91406h-3.28907v2.91406h-.83203v-6.48047"/><path fill="#ff3030" fill-rule="evenodd" d="M295.72656 405.51172h7.69531v-10.14453h-7.6953v10.14453"/><path fill="azure" fill-rule="evenodd" d="M297.5586 397.19922h.83593v5.73828h3.1914v.74219h-4.02734v-6.48047"/><path fill="#00f" fill-rule="evenodd" d="M370.48438 401.07422h8.62109v-10.14844h-8.6211v10.14844"/><path fill="azure" fill-rule="evenodd" d="M372.3164 392.76172h.83594v2.82031h3.28516v-2.82031h.83203v6.47656h-.83203v-2.91406h-3.28516v2.91406h-.83593v-6.47656"/><path fill="#ff3030" fill-rule="evenodd" d="M451.07031 383.32031h7.6914v-10.14844h-7.6914v10.14844"/><path fill="azure" fill-rule="evenodd" d="M452.90234 375.00781h.83204v5.73828h3.1953v.7422h-4.02734v-6.48048"/><path fill="#ff3030" fill-rule="evenodd" d="M198.08203 356.6875h7.69531v-10.14453h-7.6953v10.14453"/><path fill="azure" fill-rule="evenodd" d="M199.91797 348.375h.83203v5.74219h3.19531v.73828h-4.02734V348.375"/><path fill="#ffffe0" fill-rule="evenodd" d="M315.11328 360.65234h22.17969v-10.1914h-22.17969v10.1914"/><path fill-rule="evenodd" d="M318.61328 352.29297h.50781v6.29687h-.78515v-4.49218h-1.39063v-.5547l.5625-.0664.25-.05078.23047-.08984.20313-.14453.17578-.20704.14062-.29687.10547-.39453m4.8125 0l.23047.01953.21875.05469.20703.08984.19922.1211.1836.14843.17187.17578.30078.42188.24219.49219.17969.54687.11328.57813.03515.58984-.03515.59375-.11329.58594-.17968.55469-.24219.5-.30078.42968-.17188.17969-.18359.15234-.19922.125-.20703.08985-.21875.0586-.23047.01952-.22656-.01953-.21875-.0586-.21094-.08984-.19531-.125-.1836-.15234-.17187-.17969-.30078-.42969-.2461-.5-.17968-.55468-.10938-.58594-.03906-.59375h.83203l.03125.5664.08203.50391.125.4414.16406.375.1875.30079.21094.22266.22266.13671.22656.04688.22656-.04688.22266-.13671.21094-.22266.1914-.30078.16407-.375.125-.4414.08203-.50391.02734-.56641-.02734-.5586-.08203-.5-.125-.4375-.16407-.36327-.1914-.29297-.21094-.21485-.22266-.13281-.22656-.04297-.22656.04297-.22266.13281-.21094.21485-.1875.29296-.16406.36329-.125.4375-.08203.5-.03125.55859h-.83203l.03906-.58984.10938-.57813.17969-.54687.24609-.4922.30078-.42187.17188-.17578.18359-.14844.19531-.12109.21094-.08984.21875-.05469.22656-.01953m5.09375 0h.50781v6.29687h-.78515v-4.49218h-1.39063v-.5547l.5586-.0664.2539-.05078.23047-.08984.20313-.14453.17187-.20704.14453-.29687.10547-.39453m2.82031 2.17578h.78907l.01953-.3164.0586-.28516.10155-.2539.13672-.21485.1836-.17578.22265-.12891.26563-.07813.3086-.02734.23827.01953.22266.0625.20312.10156.1797.14063.14843.17188.11328.20703.07031.23437.02735.26563-.02344.26953-.0664.22265-.10938.19141-.15625.17188-.19922.16406-.2461.16406-.63671.39063-.53516.3125-.4375.3164-.34766.32422-.26171.33594-.19141.35156-.125.3711-.07031.39062-.01954.42187h4.21094v-.74218h-3.33203l.08203-.28516.11328-.23438.14844-.20312.1875-.17969.23047-.17187.28125-.17578.71484-.41797.41797-.20313.34375-.23047.28125-.2539.21875-.26563.16406-.27734.11329-.28516.0625-.28515.01953-.28125-.04297-.38282-.11719-.34765-.1914-.3086-.25-.26171-.30079-.21485-.34765-.15625-.3789-.09765-.40626-.03516-.4375.03125-.39844.10156-.35156.16406-.30469.23438-.25.30469-.1875.375-.11328.4453-.04297.51954"/><path fill="#ffffe0" fill-rule="evenodd" d="M204.15625 395.85156h22.17969v-10.1914h-22.17969v10.1914"/><path fill-rule="evenodd" d="M207.65234 387.49219h.51172v6.29687h-.78906v-4.49219h-1.38672v-.55468l.5586-.0664.2539-.05079.23047-.08984.20313-.14454.17187-.20703.14063-.29687.10546-.39453m4.81641 0l.23047.01953.21875.05469.20703.08984.19531.1211.1836.14843.17187.17578.30078.42188.2461.49219.17968.54687.10938.57813.03906.59375-.03906.58984-.10938.58594-.17968.55468-.2461.5-.30078.4297-.17187.17968-.1836.15234-.19531.125-.20703.08985-.21875.05859-.23047.01953-.23047-.01953-.21875-.0586-.20703-.08984-.19531-.125-.1875-.15234-.16797-.17969-.30469-.42969-.24219-.5-.17968-.55468-.11328-.58594-.03516-.58985h.83203l.02734.5625.08203.50391.125.44531.16407.3711.1914.30078.21094.22265.22266.13672.22656.04688.22656-.04688.22266-.13671.21094-.22266.1914-.30078.16016-.3711.125-.4453.08203-.50392.03125-.5625-.03125-.5625-.08203-.5-.125-.4375-.16016-.36328-.1914-.29296-.21094-.21485-.22266-.13281-.22656-.04297-.22656.04297-.22266.13281-.21094.21485-.1914.29296-.16406.36329-.125.4375-.08204.5-.02734.5625h-.83203l.03516-.59375.11328-.57813.17968-.54688.2422-.49218.30468-.42188.16797-.17578.1875-.14844.19531-.12109.20703-.08984.21875-.0547.23047-.01952m5.08984 0h.51172v6.29687h-.78906v-4.49219h-1.38672v-.55468l.5586-.0664.2539-.05079.22656-.08984.20313-.14454.17578-.20703.14063-.29687.10546-.39453m2.82422 2.17578h.78516l.01953-.3164.0625-.28516.09766-.25391.14062-.21484.17969-.17579.22266-.1289.26562-.07813.3086-.02734.23827.01953.22266.0625.20703.10156.17578.14063.15235.17187.10937.20704.07422.23437.02344.26563-.01953.26953-.0664.22265-.10938.1914-.15625.17188-.19922.16407-.25.16406-.63281.39062-.53907.3125-.4375.31641-.34375.32422-.26562.33594-.1914.35156-.125.3711-.06642.39062-.02343.42187h4.21484v-.74219H221.125l.08203-.28515.11328-.23438.14844-.20312.1875-.17969.23047-.17187.27734-.17579.71875-.41796.41406-.20313.34766-.23047.27734-.2539.22266-.26563.16406-.27734.10938-.28516.0625-.28515.02344-.28125-.04297-.38282-.1211-.34765-.1875-.3086-.25-.26172-.30468-.21484-.34375-.15625-.38282-.09766-.40625-.03515-.43359.03125-.39844.10156-.35547.16406-.30468.23438-.25.30469-.1836.375-.11719.4453-.03906.51954"/><path fill="#ffffe0" fill-rule="evenodd" d="M190.83984 460.70313h22.1797v-10.19141h-22.1797v10.1914"/><path fill-rule="evenodd" d="M194.33984 452.34375h.50782v6.29688h-.78516v-4.48829h-1.39063v-.55859l.5625-.0625.25-.05469.23047-.08984.20313-.14063.17578-.21093.14063-.29297.10546-.39844m4.8125 0l.23047.01953.21875.0586.20703.08593.19532.1211.1875.15234.16797.17578.30468.41797.24219.49219.17969.54687.11328.58203.03516.58985-.03516.59375-.11328.58203-.17969.55469-.24219.5039-.30469.42578-.16796.1797-.1875.15233-.19532.125-.20703.09375-.21875.0547-.23047.01952-.23047-.01953-.21875-.05469-.20703-.09375-.1953-.125-.1836-.15234-.17188-.17969-.30078-.42578-.2461-.5039-.17968-.5547-.10938-.58202-.03906-.59375h.83203l.03125.5625.08203.50781.125.4414.16016.375.1914.30079.21095.21875.22265.13672.22656.04687.22657-.04687.22265-.13672.21094-.21875.1914-.30078.16016-.375.1289-.44141.08204-.50781.02734-.5625-.02734-.5625-.08203-.5-.1289-.4336-.16016-.36718-.19141-.29297-.21094-.21485-.22265-.1289-.22657-.04688-.22656.04688-.22266.1289-.21093.21485-.1914.29297-.16017.36718-.125.4336-.08203.5-.03125.5625h-.83203l.03906-.58985.10938-.58203.17969-.54687.2461-.49219.30077-.41797.17188-.17578.1836-.15234.1953-.1211.20703-.08594.21875-.05859.23047-.01953m5.09375 0h.50782v6.29688h-.78907v-4.48829h-1.38672v-.55859l.5586-.0625.2539-.05469.23047-.08984.20313-.14063.17187-.21093.14063-.29297.10937-.39844m2.82032 2.17578h.78906l.01953-.3164.0586-.28516.09765-.2539.14063-.21485.18359-.17188.22266-.1289.26562-.08203.3086-.02735.23437.02344.22656.0625.20313.10156.17968.13672.14844.17188.11328.20703.07031.23828.02735.26172-.02344.26953-.0664.22656-.10938.1914-.15625.16798-.19922.16406-.2461.16797-.63671.38672-.53516.3125-.4375.3164-.34765.32422-.26563.33594-.1875.35156-.125.3711-.07031.39453-.01953.41796h4.21094v-.74218h-3.33204l.08203-.28125.11329-.23828.14843-.20313.1875-.17969.23047-.17187.28125-.17578.71485-.41406.41406-.20704.34766-.23046.28125-.25.21875-.26954.16406-.27734.10937-.28125.0664-.28516.01954-.28125-.04297-.38671-.1211-.34766-.1875-.30469-.25-.26562-.30468-.21094-.34375-.16016-.3789-.09765-.40626-.03516-.4375.03516-.39843.09765-.35547.16797-.30469.23438-.2461.30078-.1875.375-.11327.44922-.04297.51562"/></g></defs><use xlink:href="#aa"/></svg>