<svg xmlns="http://www.w3.org/2000/svg" role="img" xmlns:xlink="http://www.w3.org/1999/xlink" viewBox="142.45 309.95 326.84 171.84"><defs><clipPath id="a"><path d="M144 311.67188h1v168.65625h-1zm0 0"/></clipPath><clipPath id="b"><path d="M144 311.67188h324v168.65625H144zm0 0"/></clipPath><clipPath id="c"><path d="M388 438h59v42.32813h-59zm0 0"/></clipPath><clipPath id="d"><path d="M467 311.67188h1v168.65625h-1zm0 0"/></clipPath><clipPath id="e"><path d="M144 476h2v4.32813h-2zm0 0"/></clipPath><clipPath id="f"><path d="M156 476h3v4.32813h-3zm0 0"/></clipPath><clipPath id="g"><path d="M168 477h6v3.32813h-6zm0 0"/></clipPath><clipPath id="h"><path d="M180 477h7v3.32813h-7zm0 0"/></clipPath><clipPath id="i"><path d="M193 478h8v2.32813h-8zm0 0"/></clipPath><clipPath id="j"><path d="M210 476h1v4.32813h-1zm0 0"/></clipPath><clipPath id="k"><path d="M223 476h2v4.32813h-2zm0 0"/></clipPath><clipPath id="l"><path d="M236 476h3v4.32813h-3zm0 0"/></clipPath><clipPath id="m"><path d="M249 476h3v4.32813h-3zm0 0"/></clipPath><clipPath id="n"><path d="M260 478h8v2.32813h-8zm0 0"/></clipPath><clipPath id="o"><path d="M273 478h8v2.32813h-8zm0 0"/></clipPath><clipPath id="p"><path d="M287 477h7v3.32813h-7zm0 0"/></clipPath><clipPath id="q"><path d="M301 477h6v3.32813h-6zm0 0"/></clipPath><clipPath id="r"><path d="M313 478h8v2.32813h-8zm0 0"/></clipPath><clipPath id="s"><path d="M319 478h2v2.32813h-2zm0 0"/></clipPath><clipPath id="t"><path d="M327 478h7v2.32813h-7zm0 0"/></clipPath><clipPath id="u"><path d="M342 476h4v4.32813h-4zm0 0"/></clipPath><clipPath id="v"><path d="M355 476h4v4.32813h-4zm0 0"/></clipPath><clipPath id="w"><path d="M368 477h5v3.32813h-5zm0 0"/></clipPath><clipPath id="x"><path d="M380 478h8v2.32813h-8zm0 0"/></clipPath><clipPath id="y"><path d="M386 478h4v2.32813h-4zm0 0"/></clipPath><clipPath id="z"><path d="M394 477h6v3.32813h-6zm0 0"/></clipPath><clipPath id="A"><path d="M408 477h5v3.32813h-5zm0 0"/></clipPath><clipPath id="B"><path d="M421 476h5v4.32813h-5zm0 0"/></clipPath><clipPath id="C"><path d="M435 476h4v4.32813h-4zm0 0"/></clipPath><clipPath id="D"><path d="M446 478h8v2.32813h-8zm0 0"/></clipPath><clipPath id="E"><path d="M459 478h9v2.32813h-9zm0 0"/></clipPath><clipPath id="F"><path d="M144 465h4v4h-4zm0 0"/></clipPath><clipPath id="G"><path d="M144 453h4v2h-4zm0 0"/></clipPath><clipPath id="H"><path d="M144 439h4v3h-4zm0 0"/></clipPath><clipPath id="I"><path d="M144 425h4v4h-4zm0 0"/></clipPath><clipPath id="J"><path d="M144 411h4v6h-4zm0 0"/></clipPath><clipPath id="K"><path d="M144 397h3v7h-3zm0 0"/></clipPath><clipPath id="L"><path d="M144 383h3v8h-3zm0 0"/></clipPath><clipPath id="M"><path d="M144 370h1v8h-1zm0 0"/></clipPath><clipPath id="N"><path d="M144 370h2v2h-2zm0 0"/></clipPath><clipPath id="O"><path d="M144 357h3v7h-3zm0 0"/></clipPath><clipPath id="P"><path d="M144 344h3v6h-3zm0 0"/></clipPath><clipPath id="Q"><path d="M466 346h2v4h-2zm0 0"/></clipPath><clipPath id="R"><path d="M144 330h3v7h-3zm0 0"/></clipPath><clipPath id="S"><path d="M466 332h2v3h-2zm0 0"/></clipPath><clipPath id="T"><path d="M465 332h3v3h-3zm0 0"/></clipPath><clipPath id="U"><path d="M144 317h2v8h-2zm0 0"/></clipPath><clipPath id="V"><path d="M466 318h2v2h-2zm0 0"/></clipPath><clipPath id="W"><path d="M465 318h3v3h-3zm0 0"/></clipPath><g id="X" clip-path="url(#clip1)"><path fill="#fff" fill-opacity="0" fill-rule="evenodd" d="M0 0h1000v1000H0zm0 0"/><path fill="#d3d3d3" fill-opacity="0" fill-rule="evenodd" d="M162.15234 355.86719l-.23437.29297.0586.23437.11718.17188.17578.23437.29297.34766.11328.0586.11719-.17188.0586-.23438.17577-.17578.46485-.17578h.69922l.23437.29297.28906.8164.0586.17579.17578.23046.35156.23438.69922.69922.17188.17578.23437.34765.23438.41016.28906.58203.41015.46485.23047.23437.23438.17578.11719.23047.17578.29297.17187 1.16406v.23438l.0586.28906.05859.11719.11719.11719.34765.41015.11719.17188.17578.17578.17578.23437.11719.17188.17188.35156.05859.23438.23437.40625.23438-.0586-.17578.17578-.0586.92969h-.58203l-.23437-.11328-.34766.11328-.11719.11719-.05859.29297-.0586.17578-.11718.17187-.46484.29297-.0586.23438-.0586.11328v.64453l.0586.17187v.41016l.0586.0586v.40624l.05859.40625.11719.17579.05859.05859.23047.64062-.0586.29297v.69922l-.05859.58203v.23438l-.0586.23047-.05468.35156v1.92187l.05469.1172h.42578l-.36719.11718-.02344.35156.89063 1.16797 1.74219.53906 1.33984.35938v.53906l.08984.8086.53516.71484 1.51953.26953.89063-.08594.08984 1.16406.53516.1797 1.16015-.1797 2.05469-.98437 1.16016-.36328 1.8789-.17578 1.69531-.1797-.17968.71876-1.51563.08594-1.25.08984-.80469.26953-1.07421.8086.26953.71875.53515.89843-.17968.625-.26563.8086.26563 1.07812.625.89844.80468.17969 1.25-.1797-.26562.72267.09766.5039.05468.29297v.17188l.0586.29296v.40625l.17578.1172.35156.11718h.40625l.29297-.17578.11328-.11719.0586-.11719.11718-.23047.0586-.17578.35156-.46484.23047-.17578.17578-.0586.17578.0586.0586.17578.11718.98828.05469.46875.0586.17188.11718.23437.17578.0586.8164.05859h.28907l.11719.23437.05859.40625.0586.35156v1.10547l.11718.29297.11719.34766.28906.69922.17578.35156.58203.7539.35157.17579.17187.0586.46875.23437.64063.46484.34765.23438.29297.17578.29297.05468.23047.0625.8164.34766.29297.17578.11328.17188.35157.35156.11719.17578.52343.64063v.28906l.0586.35156v.34766l.05859.35156.0586.28906.11718.0586.17188.05859h.17578l.58203.23437.17578.1172.17578.28905.17578.23438.11328.23437.29297.23047.11719.11719v.41016l.0586.05468.28906.23438.23437.11719.0586.11718.11718.17188.0586.11719.23047.23437.05859.17578.23437.0586.1172.05859-.1172.11328-.05859.11719v.11719l-.11719.29296-.11719.28907v.58203l.17579.11719.11718.05859.0586.11719.11719.11719.11328.05859.17578.34765.0586.35157.05858.40625v.17578l-.05859.17578-.11719.69922v.17187l.1172.17579.29296.29296h.40625l.17578.1172.11719.17187.11719.29296v.23438h-.52735l-.23047-.23438h-.23437l-.17578.0586-.0586.69922.0586.34765.11719.17579.17578.41015.11718.23047.28907.46875.17578.05469h.52344l.23437.0586.75781.64062.0586.29296v.23438l.05859.0586.23047.34765v.35156l-.11719.17188v.29297l.29297.28906.29297.17578.17187.0586.29297.17577.29297.1172.58203.40624.28906.23438.29297.17578.21875.16015.01563.01172.23047.17579.64062.52343.17578.23438.1172.17578.17577.17578.11328.17188v.64062l.1172.17578.46874.11719.58203.11719.23438.05859.23047.11328.29297.11719.11328.0586.58593.35156.28907.17187.17578.0625.17578.05469.17578.0586.69922.35155.28906.17579.23438.05468.28906.17578.23437.1172.64063.40624.29297.11719.17187.0586.23438.05859.41015.05859.23047.0586.23438.11718.0586.17188-.41017.17578.46875.0586.0586.29296.11328.23438.17578.05468.23438.0586.17578.05859.40625.11719.64062.23437.11719.17188.0586.23437v.17578l-.0586.1172-.0586.40624.23438.23438.11719.05859.34766.11719.64062.23047.17578.11718.28906.1172.17578.17577.23438.46485.58203 1.10546.17578.17579.34766.17578.17578.11719.35156.11718 1.04688.52344.23437.0586.46485.11327.29297.0586.46484.17578.75781.58203.23438.23438.34765.46484.17578.17578.28907.23438.8164.69921.29297.17579.28906.28906.29297.17578.29297.28906.69531.64063.17578.17578.29297.23437.28907.23438.46875.28906.64062.58203.34766.23438.23437.29297.34766.34765.35156.46485.9336.99218.34765.40625.11719.17579.23437.05859.11328.11719.64454.17578.23047.11328.23437.0586.29297.17577.23047.1172.9336.69921.40624.40625.23438.17578.40625.17578.23437.11719.8164.34766.34766.23437.23438.11719.29297.28906.23047.11719.7578.35156.35157.17188.23047.05859.29297.11719.23437.0586.8711.17577h.8164l.46875.23047.17188.0586.875.69921.46484.1172.29297.05858.17578.0586.23047.0586.46875.05859.34766.05859.35156.0586.40625.05859h.29297l.17187.0586v.23046l.17578.17578h.29297l.34766.0586.35156.05859.69922.11719h.64063l.46484-.23438.29297-.17578.17187-.11719.41016-.17187.28906-.17578.9336-.46485.46875-.29297.52343-.29296.46485-.17188.46484-.17578 1.05078-.46485.28906-.11718.41016-.11719.28906-.11719.52735-.17578 1.51562-.69922.58203-.34765.28907-.0586.29297-.0586.34765-.11718.875-.23047.35156-.11719h.11329l.23437-.05859.875-.23437.23438-.0586h.8125l.35156-.0586.8164-.11718.17188-.0586.35156-.05468.29297-.0586.23047-.05859.8164-.17578.17579-.0586h.34765l.23438-.05859.46484-.11718.75781-.17188.23438-.0586h.34765l.41016-.11718.28906-.0586 1.28516-.05859h.28906l.41016-.0586.23047-.05858h.17578l.875-.1172h.40625l.41015-.11718h.34766l.35156-.11328.8711-.0586h1.75l1.04687.28907.41016.11719.28906.11718.35156.11719.28907.11719 1.05078.17187.28906.0586h.29297l.29297.05859.17187.0586.41016.05859.17187.0586.1172.05858h.11718l.11719.0586.35156.0586h.11328l.41016.0664 1.92187.39453 1.92578.39453 1.51953.44922 1.69532.71875 2.14453.80469 1.60547-.71875 1.42968-.80469 1.16016-1.07813 1.25-.44921 3.03516-.71875 1.875-.35938 2.14453-1.34765 2.23437-1.25391 2.5-1.25781 1.69531-.44922 1.78516-.17969 1.16016-.26953.625.53906 1.33984-.26953.71485-.98828.98437-1.34375.44531-.17969.80469-.35937 1.875-.53907 1.78516-.44921 1.25-.26954 1.16015-.08984 1.69922-.08984 1.96094-.26954 1.25-.08984h.53906l.625-.08984h.89063l2.14453-.17969 2.41015-.17969 2.58985-.08984 1.69531.17969 1.60938.08984 1.42968.35938 1.16016.71875 1.875.98828 1.16015 1.52734.26563.71484.6289.08985.35548.89844.53515.53906.53516 1.52734 1.07422.35938h.53515l-.80469.53515.08985 1.70703.71484 2.69532.89063.80468.89453.98829.71484 1.2578 1.78516.53907 1.51953-.17969.35547 1.34375 1.60937-.80469.98047-.53906.26953.26953.31641-.21484.21875-.14453.80078.44922.44922-.35938h.35547l.53515-.26953.53907-.71875.53515-.26953.625-.98828 1.16016.44922.83984.3711 1.39454.61718 1.6953-.17969h1.60548l1.78515.08985.17969-1.70704.53516-1.34375.80468.26954.4922.84765.40233.40625-.08984.53906v.35938l.71485.44922.71093-.26953h1.42969l.35938.98828.4453 1.25781.71485 1.34375 1.25.6289 1.69531.62891.71485-.17969.17969-.53906.98046-.08984.44922.35937.08594 1.25782-.26563.6289-.53515.17969v.53906l.71484.98438.26563.53906.98437.98828.80078 1.07813-.26562.35937-.08985.89844-.625 2.33203-.35546 2.0664-.08985 1.79298-.17969.71875-.08984.53906v1.4375l-.98047 1.88281-.35937 1.70703-.53516.89844-.80469 1.16797-.26562.53906 2.05469 1.2539.08593.35938-.35546.53906-.08985-.17968v.80859l.08985 1.4375-.44532.71484-1.07422.09375-.26562.71485.53515.89844.8047.71875 1.16015.80859 1.33984.26953.44531.35938-.35546.44921-1.78907-.08984-1.25-.44922-.71484-.71875-.625-.08984-.17578 3.58984-.1875 1.3086h89.35937V311.70313h-55.26953v49.08203l.76172.125 3.28906.54296 2.02344 2.83594v2.7539l2.35156.33204 2.34766.33203h4.05078l-1.3789 4.16016-2.02344.70703-2.02344.70312-.54297.34375-2.59375 1.6172-.1875.11718-2.02344-2.07813-.73046-2.74218-2.67188-2.07813-1.375-3.5-.0664-.08203-1.95704-2.67188 2.75-1.41796v-49.08204H294.42187v91.41407l.1172.03125.1328.01172.07422.07421.10547.04688.08985.0586.08593.05859.08985.0586.29687.29687.0586.08984.03125.11719.02734.11719.01563.13671-.03125.1172-.0586.08983-.0586.08594-.04296.10547-.04688.10156-.02734.1211v.14453l.17578.26953.14844.14844.07422.08594.07422.07421.04296.10547.0625.08985.0586.08593.04297.10547.0586.08985.04687.10156.04296.10547.0586.08594.11719.17968.07421.07422.0625.08594.0586.08984.04297.10547.0586.08985.05858.08593.0625.08985.0586.08984.04297.10156.11719.17969.07421.07422.0586.08594.07422.07421.08984.0586.10547.04687h.14844l.1328-.01562.13282.01562.10156-.04687.07422-.07422.04688-.10156-.01563-.13281v-.14844l-.04687-.10547-.02735-.11719-.04687-.10156-.02735-.1211-.04296-.10156-.0625-.08984-.04297-.10156-.04297-.10547-.03125-.11719-.01563-.13281-.01171-.13672.08593-.0586.0586-.08593.12109-.03125.04297.10547.01562.1328v.1172l.0586.10156.0586.08984.08983.0586.14844.14843.0586.08985.04296.10547-.01171.10156.08593.0586.10547.04687.08594.0586.08984.05858.07422.07422-.11719.02735-.10546.04687-.08594.0586-.07422.07421-.0586.08985-.0625.08594-.02734.12109-.04687.10156-.04297.10547-.03125.11719-.01172.13281-.01563.13281v.14844l.02735.11719.04687.10547.04297.10156.0586.08984.07421.07422.08985.0586.07422.07421.08984.0586.0586.08984.04296.10547.04688.10156.11719.03125.1328.01563h.14845l.11718-.03125.10547.04297.04297.10547.04688.10156.02734.1211L299.5 410l.02734.11719.03125.1211.02735.11718.10547.04297.10156.04687.13281-.01562.14844.14844.0625.08593.07422.07422.07031.07422.08984.0625.10547.04297.10156.04297.1172.03125.13671.01562.11719-.03125.07422-.07422.02734-.11718-.01172-.13282-.03125-.12109-.02734-.11719.04297-.10547h.11719l.08984.0625.11719.02735h.14843l.13282.01562h.14843l.13282.01563.1328-.01563h.14845l.1328-.01562.13282-.01172.13672.01172.11719-.02735.13281-.01562.1914-.0586-.05859.17579-.01562.1328-.02735.1211-.01562.13281-.0586.08594-.1328.01563-.10548.04687-.10546.04297-.1172.03125-.11718.02735-.26563.03125h-.14843l-.13281.01562-.07422.07422.05859.08594.14844.14843.11719.1797.07421.0703.08985.0625.08984.0586.08594.0586.08984.05858.10156.04297.10547.0625.10547.04297.08594.0586.10547.04687.10156.04297.17969.11719.0586.08984-.04298.10156-.04687.10547.01562.13281.22266.22266.0586.08985.04296.10156.03125.1211.04297.10155.01563.13282.03125.11718.01171.13672.03125.11719.14844.14844.10156.04297.10547.04296.1172.03125.1328.01563.13672.01563h.11719l.11719-.03125.08984-.0586.04297-.10547.04688-.10156.04296-.10547.03125-.11719.01172-.1328v-.14845l-.01172-.1328-.01562-.13282-.03125-.11719-.04297-.10547-.04688-.10547-.04296-.10156-.04297-.10547-.01563-.13281.01563-.13281.02734-.11719.03125-.11719.02735-.1211.04687-.10155.08984-.0586.08594-.0625.07422-.07422.08984-.05859.22266-.22266.0586-.08593.07421-.07422.11719-.17969.0586-.08594v-.14844l-.07423-.07421-.10156-.04688-.10547-.04297-.10156-.04297-.0586-.08984-.04687-.10547-.02734-.11719.08984-.05859.11719-.03125.10156-.04297.17969-.11719.14844-.14843.01172-.13282-.01172-.10546-.08985-.0586-.1328.01563h-.14845l-.1328.01562-.13282-.01562-.1211-.03125-.08593-.0586-.07422-.07422-.0586-.08984-.0625-.08594-.11718-.17969-.0586-.08593.03125-.1211.08594-.05859.1211-.03125.05859-.08594v-.1211l-.03125-.11718-.0586-.08984-.05859-.08594-.04687-.10547-.02735-.11719-.01562-.1328.0586-.08985.07421-.07422.08984-.0586.1172-.17968.07421-.07422.0586-.08594.14843-.14844.1211-.03125.1328-.01562.13282.01562.07422.07422.04297.10547.01562.13281-.03125.1172-.11719.03124-.1328.01172-.14844.14844-.04297.10547-.04688.10156-.02734.1211-.03125.11718v.14844l.03125.11719.04297.10546.05859.08985.07422.07031.07422.07422.11719.03125.12109.02734.11719-.02734.1328-.01563h.1172l.08984.0586.07422.07422.04687.10546.0586.08594.10156.04688.13281.01562.10547.04297.08594.0586-.01172.10546-.07422.07422-.17969.11719-.05859.08984-.08984.0586-.07032.07422-.07421.07421-.0625.08985-.02735.11719-.01562.1328.01562.13282-.01562.13281v.14844l.01562.13281.02735.1172.03125.12108.07421.07422.08985.0586.08594.0586.08984.05858.11719.03125v.08594l-.10157.04688-.08984.0586-.26563.03124-.11718.02735h-.14844l-.10547.04296-.10156.04688-.0586.08984-.0625.23438-.01171.13281-.03125.1211-.01563.1328v.29298l-.01172.1328.01172.13673.01563.1328.1328.01563.13282.01172.1211.03125.08593.0586.07422.07421.04688.10547.04296.10157.01563.1328v.44532l-.01563.13281v.44532l.03125.26562.02735.11719.01562.13281.03125.11719.08594.21094.03125.26562v.14844l-.03125.11719-.02734.11718-.03125.1211-.02735.11719-.03125.11718-.03125.1211-.01171.1328-.01563.13282.08984.0586.1172-.03125.10155.01562.04688.10547-.03125.26562v.44141l-.04297.10547-.04688.10547-.04296.10156-.04297.10547-.0586.08594-.03125.12109-.04296.11719-.03125.11719-.01563.1328.01563.13282.05859.08984.10547.04688.08594.0586.05859.08593-.01172.13672-.03125.11719-.04297.10156v.44531l-.01562.13281v.14844l-.03125.11719-.04297.10547-.02735.11719-.04687.10546-.04297.10157-.03125.12109-.02734.11719-.03125.13281-.03125.11719-.02735.11719-.04297.10546-.03125.1172-.03125.12108-.01171.13282-.01563.13281v.29688l.02734.11718v.14844l.04688.39844.02734.11719.0586.08984.12109.03125h.14844l.13281-.01563.0586.08985v.11719l-.0586.08984-.08984.0586-.10157.04296-.10546.04688-.08985.05859-.08594.0586-.13671.01562-.1172-.03125-.1328-.01563-.10157.04688-.0625.08594-.01172.13671-.01562.13282-.03125.11719-.02735.11718-.01562.13281-.03125.1211v.29687l.01563.13282.03125.11718v.14844l.01171.13281v.14844l-.02734.11719-.04688.10156-.02734.1211-.03125.11718-.0586.08985-.07421.07421-.10156.04297-.10547.04688-.11719.02734-.1211.03125-.10156-.04687.0586-.08594.10547-.04688.02734-.11718.03125-.11719.02734-.1211.03125-.11718v-.14844l.01563-.13281-.03125-.11719-.04297-.10547-.10547.01563-.07422.07422-.10156.04296-.08984.0625-.07422.07422-.04297.10157-.01563.1328-.03125.1172L304.25 426l-.03125.11719-.02734.11719-.03125.12109-.02735.11719-.03125.11718-.04297.10547-.08984.0586h-.08984l-.1172-.03125-.03124-.08594.01562-.13672-.03125-.11719v-.14844l-.01171-.1328v-.14844l-.0625-.23438-.02735-.1211-.04297-.10156-.04687-.10546-.0586-.08594-.05859-.08985-.04297-.10546-.0625-.08594-.14844-.14844-.0703-.07422-.10548-.04687-.10547-.04297-.10156-.04297-.29687-.29688-.08985-.07421-.08594-.0586-.10546-.04297-.08985-.0625-.08594-.0586-.10546-.04296-.08985-.0586-.08594-.0625-.07421-.0703-.10547-.04688-.08594-.0586-.10547-.04296-.08984-.0625-.10156-.04297-.10547-.04297-.08594-.0586-.10547-.04687-.10547-.04297-.10156-.04687-.08985-.0586-.10156-.04297-.10547-.04296-.08984-.0625-.11719-.02735-.13281-.01562-.13281.01562H299.75l-.13281.01563-.11719-.03125-.08984-.0586-.07422-.07422-.08985-.05859-.10156-.04688h-.14844l-.12109-.02734-.10156-.04297-.07422-.07422-.11719-.17968-.08984-.0586-.10156-.04297-.08985-.0625-.10547-.04296-.08984-.0586-.08594-.0586-.10547-.04687-.0586-.08594-.05858-.08984-.04297-.10547-.04688-.10156-.07422-.07422-.08594-.0586-.07421-.07421-.08985-.0586-.22265-.22265-.04297-.10547-.03125-.26563.10547-.04296h.14453l.10547.04296.07421.07422.08985.0586.08594.0586.10546.04687.08985.05859.14844.14844.0703.07422.14845.14843.0625.08594.07421.07422.08594.0586.07422.07421.08985.0625.08984.0586.08594.05859.26953.17578.10156.04688.10547.04296.10156.04297.04688-.07421.05859-.08594.07422-.07422.07031-.07422.10547.04297.07422.07422.0586.08984.04296.10156.04688.10547.04296.10547.1211.02735.11719-.02735.07421-.08984.04297-.10547.0586-.08985.07422-.07421.10546-.04297.1172-.02735.1328.01172.08985.0586.14844.14843.05859.08985.04297.10547.04687.10156.04297.10547.04297.10156.10547.04688.10547.04296.13281.01563.08594-.0586.0586-.08984.07421-.07422.10547-.04297.11719.02735.10547.04687.10156.04297.10547.04297.10156.04688.17969.11718v.11719l-.01563.13281.01563.13281.01562.13672.0586.08594.10156.04688.1211.02734.11718.03125h.14844l.11719-.03125.05859-.08984.17969-.1172.05859-.08983.07422-.07422.0586-.08594.11718-.17969.17969-.11719.11719.03125.08984.0586.04297.07422-.01563.1328v.1172l.08985.05859h.14843l.13282-.01563.1328-.01171.26563-.03125.10547-.04297.11719-.03125.1211-.02735.07421-.07421.07031-.07422.0625-.08985-.01562-.10547-.04688-.10156-.10156-.04297-.10547-.01562-.11718.02734-.26563.03125h-.14844l-.07421-.07422-.08985-.0586-.11719-.03124-.11718-.02735-.13282-.01562h-.14843l-.13282.01563h-.29687l-.10547-.04688-.14844-.14844-.04297-.10156-.05859-.08984.22266-.22266.08593-.0586.10547-.04296.11719-.03125.13281-.01563.13281.01563.13672.01562.10157.04297.1328-.01172.08985-.0625.10156-.04297.0625-.08984-.04687-.10156-.08984-.0586-.1172-.03125-.10155-.04296-.0586-.08985-.0625-.08984v-.11719l.01563-.13281.10547-.04688.07421-.07031v-.1211l-.08984-.05859-.03125-.11719.08985-.05859.07421-.07422.04297-.10547.0586-.08984.04687-.10156.01563-.13281v-.14844l-.04688-.10547-.04297-.10156-.08984-.0586-.13281-.01562-.10157-.04297-.13671-.01563-.1172-.03125h-.4453l-.13282-.01562-.13281-.01172-.13281-.01563-.11719-.03125h-.14844l-.13281-.01562-.13281-.01172-.26563-.03125-.1211-.04297-.08593-.0586-.07422-.07421v-.14844l.01172-.13281.10547-.04688.10156-.04296.13281-.01563h.15235l.13281-.01562h.29297l.1211.03125.10156.04296.08984.0586.23438.0625.12109-.04688.08984-.05859.10156-.04297.13282-.01562.10547.04296.10156.04688.13281.01172.1211-.02735h.14453l.12109-.03125.11719-.02734.10547-.04687.07421-.07422.08594-.0586.14844-.14843.0586-.08594.04687-.10547.02734-.11719.01563-.10547-.10156-.04296-.08985-.0586-.11719-.03125-.10546-.04297-.08985-.0625-.07422-.08594-.07422-.07421-.10156-.04297-.10547-.04688-.10156-.04297-.0586-.08984-.04687-.10156-.08594-.21094-.0625-.08594-.05859-.08984-.07422-.07422-.08594-.0586h-.26953l-.11719.03126-.08984.05859-.10156.04297-.13281.01562-.10547-.01562-.02735-.11719-.0625-.08984-.11718-.03125-.10157-.04297-.14843-.14844-.03125-.11719-.01563-.10546.07422-.07422.17969-.1172.11719-.02733.11718-.03125.13672.01562.10156.04297.10547.04297.10156.04687.10547.04297.1172.03125.1328.01563.1172.02734.1328.01563.10547-.01563.08985-.0586-.07422-.07421-.10547-.04297-.07422-.07422-.07422-.08984-.14844-.14844-.08593-.0586-.08985-.05859-.07422-.07422-.08984-.0586-.10156-.04687-.1211-.02734-.10156-.04688-.10547-.04296-.11719-.03125-.10156-.04297-.1211-.03125h-.14843l-.11719.03125-.10546.04297-.08594.0625-.17969.11718-.08594.0586-.08984.0586-.10547.04687-.08594.05859-.10547.04297-.10156.04297-.10547.04687-.07422.07422-.05859.08985-.0586.08593-.04687.10547-.0586.08594-.07421.07422-.13281-.01172-.1172-.03125h-.11718l-.07422.07422-.08984.0586-.07422.07421-.08984.0586-.08594.05859-.10547.04687-.10156.04297-.13672.01563-.10156-.04297-.14844-.14844-.10547-.04688h-.08594l-.10547.04688-.10156.04297-.1211.03125-.11718-.03125-.07422-.07422v-.11719l.03125-.1211.07422-.0703.0586-.08985.07421-.07422.11719-.03125.10547-.04296h.29297l.13281-.01563.13672-.01563.10156-.04296.08985-.0586.10156-.04687.08984-.0586.13281-.01171.08985.05859.13281.01172.08984-.0586.08594-.05859.10547-.04297.08984-.0586.08594-.0625.08985-.05859.14843-.14843.0586-.08594.05859-.08985.10547-.04296.13281-.01563.11719.02735.1211.03125.05859-.0586.05859-.08984.03125-.26563.02734-.11719.10547.01172.13281.01563.10157-.04297.08984-.0586.0586-.08984.07421-.07422.0586-.08984.04687-.10156.01172-.13281-.01172-.13282-.04687-.10547-.14844-.14843-.0586-.08985-.05859-.08594-.04297-.10546v-.44532l.01563-.1328v-.14845l.01172-.1328-.0586-.0586-.08984.0586-.10156-.04298-.17969-.11719-.08594-.05859-.0625-.08984-.0586-.08985-.07421-.07421-.08594-.0586-.1211.03125-.10155.01172-.10547.04688-.08594.05859-.10547.04297-.14844.14844-.08984.05859-.08594.0586-.08984.0625-.10547.04296-.13281.01563v-.1211l.10547-.04297.11718-.03125.07422-.0703.04297-.10548v-.14844l-.02734-.11718-.14844-.14844-.13281-.01563h-.14844l-.11719.03125-.10547.04297-.10156.04297-.08984.0625-.11719.02735-.07422-.07422.01172-.13281-.04297-.10157-.04297-.10547-.08984-.05859-.11719.02734-.1211.03125-.11718.03125-.10156.04297-.1211.03125-.10156.04297-.10547.04297-.08984.0586-.10156.01562v-.11719l.01562-.13281-.0586-.08985-.07421.04297-.14844.14844-.0586.08985-.07421.07421-.04688.10547-.04296.10156-.07422.07422-.0586.08985-.07422.07422-.05859.08593-.07422.07422-.08984.0625-.07422.07031-.07422.07422-.10156.01563-.13281.01562-.10547-.04296v-.1211l.14843-.14844.04297-.10156.0586-.08984.04687-.10156.04297-.10547.0586-.08985.03124-.11719.04297-.10156.03125-.1211.02735-.11718.04687-.10547.04297-.10156.04297-.10547.07422-.07031.08984-.0625.08985-.0586.10156-.04296h.29687l.26563-.03125.10547-.04297-.07422-.07422-.11719-.03125-.10547-.04297-.08984-.0586-.10156-.04687-.08985-.0586-.10156-.04296-.10547-.04297-.08984-.0625-.08594-.0586-.10547-.04296-.10156-.04297-.1211-.03125-.11718-.03125-.10157-.04297L297.5 410.25l-.10156-.04297-.08985-.0586-.04296-.10546-.01563-.13281.10156-.04297.13281-.01563.13672.01563.13282-.01563.10156-.04297.0586-.08984.01562-.10547-.08985-.0586-.07421-.07421-.10157-.04297-.08984-.0586-.14844-.14843-.04297-.10547-.01562-.13281v-.29297l-.0586-.08985-.08984-.05859-.07422-.07422-.04297-.10547-.03125-.11718-.0586-.08985-.07421-.07422-.11719-.02734-.07422-.07422-.08984-.0586-.08984-.0625-.08594-.05859-.07422-.07421-.0586-.08594-.04687-.10547-.08594-.0586-.14843-.14843-.19532-.0586-.1328.01563-.10157.04297-.07422.07422-.04688.10156-.04296.10547-.0586.08984-.0586.08594-.29687.29687-.08984.0586h-.08594l-.0625-.08594-.04297-.10547.03125-.11719.0586-.08984.02734-.11719-.01172-.13281-.08984-.0625-.10547.04688-.11719.02734-.11719.03125-.26953.17578-.10156.04688-.11719.02734-.10546.04687-.08985.0586-.10156.04297-.0586-.08594-.04687-.10547.01563-.13281.04687-.10547.07031-.07422.07422-.07031.0586-.08985v-.14843l-.04297-.10547h-.23829l-.10156.04687-.03125.11719-.02734.11719-.03125.1211-.07422.04296-.13281.01563-.07422-.04688-.04297-.10156-.04297-.10547-.04687-.10156-.04297-.10547-.1211.03125-.10156.04297-.13281.01562-.11719.03125-.10547.04297-.08984.0586-.10156.04687-.1211.02734-.13281.01563-.10156-.04297-.0586-.08985-.04687-.10546-.04297-.10157-.04297-.10546v-.1172l.0586-.08984.08593-.05859.17969-.11719.10156-.04687.10547-.04297.10547-.0586.10156-.04296.08985-.0625.10156-.04297.10547-.0586.10156-.04687.08984-.0586.10547-.04296.10156-.04297.08985-.0625.10156-.04297.13672-.01563.11719.03125.10156.04297.1211.03125.10156.04297.10546.04688.10157.04296.10547.04297.10156.04688.10547.04297.10156.04297.10547.04687.08594.0586.10546.04296.1172.03125.10546.04297.10156.04688.08985.0586.10547.04296.10156.04297.10547.04687.11719.02735.10156.04687.1211.02735h.14843l.08594-.0586.01562-.10156.0586-.08984-.02735-.1172-.07422-.07421-.11719-.17969-.07421-.07422-.08985-.07421-.17969-.1172-.08593-.05859-.10547-.04296-.10156-.04688-.26954-.17578-.05859-.08985-.07422-.07421-.0586-.08985-.04296-.10156-.03125-.11719-.01563-.13672v-.5625l-.01171-.1328-.01563-.13282-.03125-.11719-.01562-.13281-.01172-.13281-.03125-.1211-.22266-.22265-.0586-.08594-.01562-.10547.03125-.11719.13281-.01562v-91.41406H172.9922v1.45312l-.0586.23438-.35156 1.05078-.17187.52343-.1172.34766-.17577.41016-.11719.17187-.23438.29297-.23046.0586h-.35157l-.11718.05859-.23047.40625v.29297l.11719.17578.23046.23047.1172.23437.64062.75781.29297.46485.17578.23437.23047.35156.23437.34766.64063.8164.17578.46485.17187.41016.11719.69531.17578.46875.11719 1.39844.0586.46484v.875l.11718 1.04688v4.78125l-.0586.46484-.35156 1.28125-.17578.52344-.11328.41015-.35156.9297L172.93359 336l-.23437.58203-.11719.17578-.17187.34766-.17578.40625-.35157.8164-.0586.29297-.11327.29297-.11719.28906-.0586.17579-.11718.875-.0586.40625-.05859.11718-.0586.17579-.05859.17187-.23047.52734-.11718.17188v.23437l-.11719.23438-.0586.17187-.17577.58594v.28906l-.0586.17579v.29296l-.0586.11329-.05859.52734v.17187l-.05468.23438v2.6211l-.17578.8164-.1172.17578-.17577.23438-.1172.17187-.11327.23438-.58594.93359-.23047.28906-.29297.46485-.17578.23437-.28906.35156-.35156.69922-.11328.23047-.17579.41016-.17578.23046-.40625.52735-.8164.69922-.29297.17187-.28906.23438-.17579.11719-.17578.17578-.52344.40625-.52734.17578-.17187.17578-.23438.05469-.64062.17578h-.75782m12.21094 31.02344l-1.07422.44921.35938.89454 1.25-.71485.44531-.53906-.98047-.08985"/><path fill="#d3d3d3" fill-opacity="0" fill-rule="evenodd" d="M201.50781 416.59766h-.89453l.44922.6289.98047.35938.80469-.08985.4453-.98828-.17577.08985-.71485-.35547-.89453.35547m154.6211 59.0703l-.0586-.52343v-.29297l.11328-.29297.0586-.23046.46875-.46875h.11328l.11719-.11329.11718-.05859h.17579l.23437-.0586h.34766l.23437.0586.11719.0586.23047.17187.0586.17578.11718.58203v.29297l-.11719.17578-.17187.28906-.17579.17579-.52734.52343-.23047.23438-.11719.0586h-.17578l-.11718-.0586-.40625-.29297-.17579-.11719-.11718-.0586-.0586-.11327-.05468-.1172m6.64062-10.95702l-.0586-.17188v-1.10937l.0586-.17188.17578-.0586.17188-.05858h.17578l.23437-.0586.1172.0586.05858.69921-.05859.17188-.11719.17578-.11718.0586-.23438.52343-.11328.0586h-.23438l-.05859-.1172m9.61328-14.39062l-.11719-.17578v-.69922l.29297-.875.1172-.17187.17577-.35156.11328-.23047.1172-.29297.35155-.75781.1172-.23047.17187-.23438h.17578l.11719-.0586h.64062l.11719.0586.23437.23438.17188.11328.35156.29297.11719.11718.11328.17579v.11328l.11719.05859.11718.11719v.69922l-.05859.17578v.23047l-.0586.17578-.34765 1.05078-.11719.23047-.11719.23437-.11718.0586-.23047.23437-.64063.28906h-.875l-.41015-.11718-.64063-.46485"/><path fill="none" stroke="#bebebe" stroke-linecap="round" stroke-linejoin="round" stroke-miterlimit="10" stroke-width=".5" d="M467.95703 311.69531H144.02734v168.625h323.9297v-168.625"/><g clip-path="url(#a)"><path fill="#fff" fill-opacity="0" fill-rule="evenodd" d="M144 475.89063v4.4375h.0039H144V311.67188h.0039H144v164.21875"/></g><g clip-path="url(#b)"><path fill="#fff" fill-opacity="0" fill-rule="evenodd" d="M144.0039 480.32813V311.67188h57.69532v103.85156l-4.4375 1.45703-1.2539 1.21094-3.1875 1.35937-3.77345 3.07813-.39062 4.4414-.27344 1.23438-1.48437 3.20312 1.48437 1.58203 2.13672 2.85547 2.30078 3.48828 4.4414.76563.13282.1836-.13281 1.33593-.69531 3.10156.6953.41016 1.8086 4.03125-.83984 4.4375-.96875.3711-1.28125-.3711-3.16016-3.67578-2.2461-.76172-2.1914-2.08594-1.27344-2.35547-3.16406-2.0664-4.4375-1.07032-1.01172-1.30078L175.06641 439l-2.3086 1.38281-2.1289 4.08594-.36328.35156-4.07422.75781-4.4375.6172-2.34766 3.0664-1.5 4.4375-.58984 2.96484-1.21485 1.47266 1.21485 1.47265.5664 2.96485 3.8711 3.66015 4.4375-.32421 4.4375-.78516 4.4375-1.3789 4.4414 1.10937 4.4375-.53906 4.4375.96875 4.4375.43359 4.4414-.4375 4.4375-.42188 4.4375-.04296 2.39845-2.2422 1.08203-4.4375.95703-1.6328 2.86719-2.8047 1.57422-.91015 4.4375-3.3125.20312-.21484 4.23438-4.41797.01953-.02344 4.41797-2.69531 4.4375-.73438 1.21093-1.0078-1.21094-1.12891-.6875-3.3086-3.75-4.07812-.17187-.35938-.98047-4.4375-3.28516-3.6875-4.4375 1.71875-4.4375-1.71875-.8164-.7539-3.625-4.09766h-4.4375l-.89063-.33984-3.54687-2.66797V311.67188h22.1914v94.89062l-2.65625 2.7539-1.78125 1.98829-1.84765 2.44922 1.84766 2.10937 1.36328 2.32813 3.07422 3.47265 4.4375.32813 3.91406-3.80078.52344-1.26172v6.40625l-3.69922 3.73437 3.69922 3.57422 4.4414-.40234 3.89453-3.17188-3.89453-3.0039-4.4414-.73047v-6.40625l2.64843-3.17578-2.64844-3.14454-1.8164-1.29296-2.6211-2.21875-4.4375-.53516v-94.89063h53.26172v99.23829l-2.87109 2.84375 2.8711 2.67187 3.92187-2.67187-3.92188-2.84375v-99.23829h71.01172v148.6875l-2.38281 2.21485 2.38281 1.82031 2.33985-1.82031-2.33985-2.21485v-148.6875h66.57422v126.62891l-4.4375 1.01172-2.09375 1.07031-2.34375.67969-4.4375 1.85547-2.3086 1.90234-2.0625 4.4414-.0703.0586-3.1172 4.3789-1.3203 2.40235-1.79688 2.03516-2.64063 4.38281-.04296.05469.04296.03515 4.4375 4.21875 4.4375-1.6328 4.44141.78515.22656 1.03515-.22656.66407-4.4414 2.9375-.89844.83594-2.98047 4.4375 3.8789 4.26171 4.44141-.01171 4.4375-.0586 4.4375-.27734 4.4375-.16406 4.4414.32421 4.4375.03125 4.4375-.4414 4.4375-2.26953 1.85938-1.39454-1.85937-3.89843-.03906-.53906.03906-2.0547.5625-2.3828 3.875-.69922.73437.69921L439 471.45313l2.3711 2.32422 2.34374-2.32421.94922-4.4375 1-4.44141.14453-1.67969.85547-2.75781-.85547-.83594-4.4375-3.17578-4.4414 1.53516-2.48828 2.47656-1.94922 3.96875-2.01563-3.96875-2.09765-4.4375-.32422-.26563-4.4375-.30078-4.4375-2.61328-1.85938-1.25781-1.27734-4.4414.7461-4.4375-2.05079-2.08204v-126.6289h53.25781v168.65625H144.00391"/></g><path fill="#50fcfc" fill-rule="evenodd" d="M157.3164 459.60938l-1.21484-1.47266 1.21485-1.47266.58984-2.96484 1.5-4.4375 2.34766-3.0664 4.4375-.6172 4.07422-.7578.36328-.35157 2.1289-4.08594L175.06641 439v6.82813l-4.4375 2.22265-3.1797 1.21094-1.2578.60547-4.4375.49219-2.20703 3.33984-1.16407 4.4375 1.08203 4.4375 2.28907 2.16797 4.4375-.66406 3.64843-1.50391.78907-.70703 4.4375-2.24219 2.33984-1.48828 2.10156-2.64063 4.4375-.96875 1.82813-.82812-1.82813-.64844-4.4375-.9414-2.9336-2.84766-1.5078-3.4336V439l3.42968 1.38281 1.01172 1.30078 4.4375 1.07032 3.16406 2.0664 1.27344 2.35547 2.1914 2.08594 2.2461.76172 3.16016 3.67578 1.28125.3711.96875-.3711.83984-4.4375-1.8086-4.03125-.6953-.41016.6953-3.10156.13282-1.33594-.13281-.1836-4.4414-.76562-2.30079-3.48828-2.13672-2.85547-1.48437-1.58203 1.48437-3.20312.27344-1.23438.39063-4.4414 3.77343-3.07813 3.1875-1.35937 1.2539-1.21094 4.4375-1.45703v2.72265l-4.4375 1.4336-4.4414 2.23047-.8789.71875-.1797 4.4414 1.0586 1.73047 2.34766 2.70703 2.09375 2.02735 3.52344-2.02735.91406-.16797 1.3086.16797-.87891 4.4375 1.22656 4.4375-1.65625 1.79688-1.6836 2.64062 1.6836 2.71485v6.90625l-4.4375 1.48437-4.4414-.6875-3.77345 2.89844-.66406 3.98437-.14062.45313.14062.05078 4.4375 1.08984 4.4414-1.10546.17579-.03516 4.26172-.8086 4.4375-3.4375.05078-.1914-.05078-.47656-4.4375-3.21875v-6.90625l1.11719 1.72656 3.3203 3.98828 4.4375-1.46484 4.44142-2.46875.0703-.0547L219 444.82032l.45313-.33594 4.4375-2.5703 1.8125-1.53126 2.625-1.20312 2.51953-3.23438-2.51953-2.73828-.8125-1.69922-2.71485-4.4375-.91016-1.02344-1.78515 1.02344-2.65234.60547-1.26172-.60547-3.17578-2.17578-2.45313-2.26562-1.98828-2.2461-4.4375-.47656-4.4375-1.66016v-2.72265l3.54687 2.66797.89063.33984h4.4375l3.625 4.09766.8164.7539 4.4375 1.71875 4.4375-1.71875 3.28516 3.6875.98047 4.4375.17188.35938 3.75 4.07812.6875 3.3086 1.21093 1.1289-1.21094 1.00781-4.4375.73438-4.41796 2.69531-.01953.02344-4.23438 4.41797-.20313.21484-4.4375 3.3125-1.57421.91016-2.8672 2.80469-.95702 1.6328-1.08203 4.4375-2.39844 2.2422-4.4375.04296-4.4375.42188-4.4414.4375-4.4375-.4336-4.4375-.96874-4.4375.53906-4.44141-1.10938-4.4375 1.37891-4.4375.78516-4.4375.32421-3.8711-3.66015-.5664-2.96485"/><path fill="#00e8fc" fill-rule="evenodd" d="M159.46484 462.57422l-1.08203-4.4375 1.16406-4.4375 2.20704-3.33985v4.48047l-1.20703 3.29688 1.20703 3.59375 4.32422-3.59375-4.32422-3.29688v-4.48046l4.4375-.4922 1.2578-.60546 3.1797-1.21094 4.4375-2.22265 1.5078 3.43359 2.9336 2.84765 4.4375.94141 1.82813.64844-1.82813.82812-4.4375.96875-2.10156 2.64063-2.33984 1.48828-4.4375 2.24219-.78907.70703-3.64843 1.5039-4.4375.66407-2.28907-2.16797"/><path fill="#00d4fc" fill-rule="evenodd" d="M161.7539 461.73047l-1.20702-3.59375 1.20703-3.29688 4.32422 3.29688-4.32422 3.59375"/><path fill="#00e8fc" fill-rule="evenodd" d="M188.38281 462.625l-.14062-.05078.14062-.45313.66406-3.98437 3.77344-2.89844 4.4414.6875 4.4375-1.48437 4.4375 3.21875.05079.47656-.05078.1914-4.4375 3.4375-4.26172.8086-.17578.03515-4.4414 1.10547-4.4375-1.08984m4.4375-33.82422l-1.0586-1.73047.17969-4.4414.8789-.71875 4.4414-2.23047 4.4375-1.4336 4.4375 1.66016v2.29688l-2.6328.42578-1.8047.55468-4.4375 1.90625-.33202 1.98047.33203.36328 4.4375 1.65625 4.4375-.27734 1.5-1.74219.3086-4.4414-1.8086-.42579v-2.29687l4.4375.47656v6.42578l-.125.26172.125.3789.22266-.3789-.22266-.26172v-6.42578l1.98828 2.2461 2.45313 2.26562 3.17578 2.17578 1.26172.60547 2.65234-.60547 1.78516-1.02344v2.09766l-4.4375 1.30469-4.29297 2.0586-.14453.12109-3.33204 4.3164.83594 4.4375-1.94531 2.53125-4.4375 1.89453-.01172.01172.01172.02735 4.4375 1.12109 1.76953-1.14844 2.67188-2.08594 3.89843-2.35156-.41797-4.4375.95703-1.10547 4.4375.69922 2.27344.40625 2.16406.60547.47266-.60547-.47266-.51172-1.8789-3.92578-2.5586-3.36328v-2.09765l.91016 1.02343 2.71484 4.4375.8125 1.69922 2.51954 2.73828-2.51953 3.23438-2.625 1.20312-1.8125 1.53125-4.4375 2.57031-.45313.33594-3.91406 4.4414-.07031.0547-4.44141 2.46875-4.4375 1.46484-3.32031-3.98828-1.1172-1.72656-1.68358-2.71485 1.68359-2.64062 1.65625-1.79688-1.22656-4.4375.8789-4.4375-1.3086-.16797-.91405.16797-3.52344 2.02735-2.09375-2.02735-2.34766-2.70703"/><path fill="#00d4fc" fill-rule="evenodd" d="M197.26172 427.4336l-.33203-.36329.33203-1.98047 4.4375-1.90625 1.80469-.55468 2.6328-.42579 1.8086.42579-.3086 4.4414-1.5 1.74219-4.4375.27734-4.4375-1.65625m8.875 17.41407l-.01171-.02735.01172-.01172 4.4375-1.89453 1.94531-2.53125-.83594-4.4375 3.33203-4.3164.14454-.1211 4.29297-2.0586 4.4375-1.30468v1.39844l-4.4375 1.67578-.60157.28906-3.83594 3.20703-.95312 1.23047.95313 1.6836.99218-1.6836 3.44531-3.97265 4.4375 1.89062 1.4961-2.35547-1.4961-1.96484v-1.39844l2.5586 3.36328 1.8789 3.92578.47266.51172-.47266.60547-2.16406-.60547-2.27344-.40625-4.4375-.69922-.95703 1.10547.41797 4.4375-3.89844 2.35156-2.67187 2.08594-1.76953 1.14844-4.4375-1.1211"/><path fill="#50fcfc" fill-rule="evenodd" d="M210.57422 426.8086l-.125.26171.125.3789.22266-.3789-.22266-.26172"/><path fill="#00c4fc" fill-rule="evenodd" d="M215.01563 437.6289l-.95313-1.68359.95313-1.23047 3.83593-3.20703.60156-.28906 4.4375-1.67578v1.39844l-1.4414.5664 1.4414.67578.4297-.67578-.4297-.5664v-1.39844l1.4961 1.96484-1.4961 2.35547-4.4375-1.89062-3.4453 3.97265-.9922 1.6836"/><path fill="#50fcfc" fill-rule="evenodd" d="M219.45313 415.86328l-1.84766-2.10937 1.84766-2.44922 1.78125-1.98828 2.65625-2.75391 4.4375.53516v3.26562l-3.63672 3.39063-.80078 4.22265-.04688.21485.04688.05468 4.4375 2.4336 2.5625-2.48828 1.80078-4.4375-4.36328-3.39063v-3.26562l2.62109 2.21875 1.8164 1.29296 2.64844 3.14454-2.64844 3.17578-.52343 1.26172-3.91406 3.80078-4.4375-.32813-3.07422-3.47265-1.36328-2.32813"/><path fill="#00b8fc" fill-rule="evenodd" d="M223.89063 432.1836l-1.44141-.67579 1.4414-.5664.4297.5664-.4297.67578"/><path fill="#00e8fc" fill-rule="evenodd" d="M223.89063 418.2461l-.04688-.0547.04688-.21484.80078-4.22265 3.63672-3.39063v5.90235l-.54297 1.92578.54297.30078.3125-.30078-.3125-1.92579v-5.90234l4.36328 3.39063-1.80078 4.4375-2.5625 2.48828-4.4375-2.4336"/><path fill="#00d4fc" fill-rule="evenodd" d="M228.32813 418.49219l-.54297-.30078.54297-1.92579.3125 1.92579-.3125.30078"/><path fill="#50fcfc" fill-rule="evenodd" d="M232.76563 430.64453l-3.69922-3.57422 3.69922-3.73437v1.53906l-2.17188 2.19531 2.17188 2.10156 4.4414-1.60937.60547-.49219-.60547-.46875-4.4414-1.72656v-1.53906l4.4414.73047 3.89453 3.0039-3.89453 3.17188-4.4414.40234"/><path fill="#00e8fc" fill-rule="evenodd" d="M232.76563 429.17188l-2.17188-2.10157 2.17188-2.19531 4.4414 1.72656.60547.46875-.60547.49219-4.4414 1.60938"/><path fill="#50fcfc" fill-rule="evenodd" d="M277.15234 416.42578l-2.87109-2.67187 2.8711-2.84375 3.92187 2.84375-3.92188 2.67187m71.01172 47.96875l-2.38281-1.82031 2.38281-2.21485 2.33985 2.21485-2.33985 1.82031"/><g clip-path="url(#c)"><path fill="#50fcfc" fill-rule="evenodd" d="M388.10938 462.60938l-.04297-.03516.04296-.05469 2.64063-4.38281 1.79688-2.03516 1.3203-2.40234 3.1172-4.3789.0703-.0586 2.0625-4.4414 2.3086-1.90235 4.4375-1.85547 2.34375-.67969 2.09375-1.07031v3.69531l-4.4375 1.0625-1.14062.75 1.14062 2.3125 3.1875 2.1289-3.1875 1.48048-4.4375.58984-2.72656 2.36719 1.84765 4.4375-1.01562 4.4375 1.89453.26953.92578 4.17188-.92578 2.6875-2.22656 1.75-2.21485 1.08984-2.8125 3.34765 2.8125 3.08985 4.44141.83203 4.4375-.09766 4.4375-.71875 4.4375-.46875 4.4414.83204 4.4375.08984 4.4375-1.0625 3.35157-2.4961.125-4.4375-1.09375-4.4375.26953-4.4414-2.65234-3.80078-.52344-.63672-3.91406-2.89453-4.4375-1.3711-.28516-.17187-4.15625-3.40235-3.77344-1.03515 1.1797-4.4414-1.84376-1.8125v-3.69532l4.4375-1.01172 2.05078 2.08203-.7461 4.4375 1.27735 4.4414 1.85938 1.25782 4.4375 2.61328 4.4375.30078.32422.26563 2.09765 4.4375 2.01563 3.96875 1.94922-3.96875 2.48828-2.47656 4.4414-1.53516v.94922l-4.20703 3.0625-.23437.78906-2.10156 3.64844 2.10156 1.69922 2.88672 2.74219 1.55468 3.23828 1.37891-3.23829 1.28125-4.4414.84766-4.4375-3.50782-3.0625v-.94922l4.4375 3.17578.85547.83594-.85547 2.75781-.14453 1.67969-1 4.4414-.94922 4.4375-2.34375 2.32422L439 471.45313l-1.33594-4.4375-.73437-.69922-3.875.69921-.5625 2.38282-.03906 2.05469.03906.53906 1.85937 3.89844-1.85937 1.39453-4.4375 2.26953-4.4375.4414-4.4375-.03125-4.4414-.32421-4.4375.16406-4.4375.27734-4.4375.0586-4.44142.01171-3.8789-4.26171 2.98047-4.4375.89844-.83594 4.4414-2.9375.22656-.66406-.22656-1.03516-4.4414-.78516-4.4375 1.63281-4.4375-4.21875"/></g><path fill="#00e8fc" fill-rule="evenodd" d="M396.98438 478.98047l-2.8125-3.08985 2.8125-3.34765 2.21484-1.08985 2.22656-1.75.92578-2.6875-.92578-4.17187-1.89453-.26953 1.01563-4.4375-1.84766-4.4375 2.72656-2.36719 4.4375-.58984 3.1875-1.48047-3.1875-2.1289-1.14062-2.3125 1.14062-.75 4.4375-1.0625 1.84375 1.8125-1.17969 4.4414 3.77344 1.03515v3.38672l-.29687.01563-4.14063.05078-4.19922 4.38672-.23828 1.71875-1.41406 2.71875-.9375 4.4414-1.50781 4.4375-.57813.32422-4.4414 2.87891-1.03516 1.23438 1.03515 1.14062 4.44141 2.23047 4.4375-.15625 4.4375-1.45313 4.4375-.98828 4.4414 1.6836 4.4375.1875 4.4375-2.09375.73829-.55079 1.19922-4.4375-1.9375-3.5-1.44922-.9375.97656-4.4414-3.85156-4.4375-.11328-.08203-4.4375-1.64844-4.42188-2.70703-.01953-.01563v-3.38671l4.15625 3.40234.28516.17187 4.4375 1.3711 3.91406 2.89453.52344.63672 2.65234 3.80078-.26953 4.4414 1.09375 4.4375-.125 4.4375-3.35156 2.4961-4.4375 1.0625-4.4375-.08985-4.4414-.83203-4.4375.46875-4.4375.71875-4.4375.09766-4.44142-.83203"/><path fill="#00d4fc" fill-rule="evenodd" d="M396.98438 477.03125l-1.03516-1.14063 1.03515-1.23437 4.44141-2.8789.57813-.32423 1.5078-4.4375.9375-4.4414 1.41407-2.71875.23828-1.71875 4.19922-4.38672 4.14063-.05078.29687-.01563v.63282l-4.4375.32421-3.34765 3.4961-.41016 4.4375-.67969 1.5625-1.19531 2.8789-1.46485 4.4375-1.77734.9922-4.10547 3.4453 4.10547 2.82032 4.4375-.21875 4.4375-2.1875 1.53516-.41406 2.90234-.44532 1.28906.44531 3.15235 1.44532 4.4375.28125 3.21484-1.72656 1.22266-3.25782.39844-1.17969-.39844-.72265-4.4375-2.9414-.26953-.77344.26953-1.73829 1.26953-2.70312-1.26953-1.44922-4.4375-2.42969-.21875-.5586-4.22266-3.8203v-.63282l.01953.01563 4.42188 2.70703 4.4375 1.64844.11328.08203 3.85156 4.4375-.97656 4.4414 1.44922.9375 1.9375 3.5-1.19922 4.4375-.73828.55079-4.4375 2.09375-4.4375-.1875-4.4414-1.6836-4.4375.98828-4.4375 1.45313-4.4375.15625-4.44142-2.23047"/><path fill="#00c4fc" fill-rule="evenodd" d="M401.42578 478.71094l-4.10547-2.82031 4.10547-3.44532 1.77735-.99219 1.46484-4.4375 1.19531-2.8789.67969-1.5625.41015-4.4375 3.34766-3.4961 4.4375-.32421v.62109l-4.4375.58984-2.4961 2.60938-.04296 4.4375-1.89844 4.35937-.03515.08204-1.42579 4.4375-2.97656 1.66406-3.30469 2.77344 3.3047 2.26953 4.4375-.27735 3.66015-1.99219.77734-.66796 4.4375-.53907 3.5 1.20704.9414.42968 4.4375.38281 1.51173-.8125.10546-4.4375-1.61718-1.09375-1.15625-3.34375-.20313-4.4414-3.07812-2.11328-.90625-2.32422-3.53516-3.19922v-.6211l4.22266 3.82032.21875.5586 4.4375 2.42968 1.26953 1.44922-1.26953 2.70312-.26953 1.73829.26953.77343 4.4375 2.9414.39844.72267-.39844 1.17968-1.22266 3.25781-3.21484 1.72657-4.4375-.28125-3.15235-1.44531-1.28906-.44532-2.90234.44531-1.53516.41407-4.4375 2.1875-4.4375.21875"/><path fill="#00b8fc" fill-rule="evenodd" d="M401.42578 478.16016l-3.30469-2.26954 3.3047-2.77343 2.97655-1.66406 1.42579-4.4375.03515-.08204 1.89844-4.35937.04297-4.4375 2.4961-2.60938 4.4375-.58984v.625l-4.4375.85547-1.64454 1.71875.32422 4.4375-2.16797 4.4414-.94922 3.6211-.26172.8164-4.17578 2.33594-2.5039 2.10156 2.5039 1.72266 4.4375-.34375 2.53516-1.3789 1.90234-1.63282 4.4375-.33984 4.4414 1.03515 3.4961-3.5-1.10156-4.4375-1.88281-4.4414-.51172-.35156-1.59375-4.08594-2.84766-2.57422v-.625l3.53516 3.19922.90625 2.32422 3.07812 2.11328.20313 4.4414 1.15625 3.34375 1.61719 1.09375-.10547 4.4375-1.51172.8125-4.4375-.3828-.9414-.4297-3.5-1.20703-4.4375.53907-.77735.66796-3.66016 1.9922-4.4375.27734"/><path fill="#00a8fc" fill-rule="evenodd" d="M401.42578 477.61328l-2.5039-1.72265 2.5039-2.10157 4.17578-2.33594.26172-.8164.94922-3.6211 2.16797-4.4414-.32422-4.4375 1.64453-1.71875 4.4375-.85547v.6211l-4.4375 1.12109-.79687.83203.6953 4.4375-2.41405 4.4414-.63282 4.4375-1.28906 1.70313-4.4375 1.30469-1.70703 1.42969 1.70703 1.17187 4.4375-.40625 1.41016-.76563 3.02734-2.59375 4.4375-.14062 4.4414.16016 1.86329-1.86329-.35547-4.4375-1.50781-3.01953-.6211-1.42187-1.66015-4.4375-2.16016-1.95313v-.62109l2.84766 2.57422 1.59375 4.08594.51172.35156 1.8828 4.4414 1.10157 4.4375-3.4961 3.5-4.4414-1.03515-4.4375.33984-1.90234 1.63281-2.53516 1.37891-4.4375.34375"/><path fill="#009800" fill-rule="evenodd" d="M401.42578 477.0625l-1.70703-1.17188 1.70703-1.42968 4.4375-1.30469 1.28906-1.70313.63282-4.4375 2.41406-4.4414-.69531-4.4375.79687-.83203 4.4375-1.1211v.6211l-4.30469 1.33203.70704 4.4375-.83985 1.63281-1.53906 2.8086.03906 4.4375-2.9375 3.8828-4.4375-.20312-.90625.75781.90625.6211 4.4375-.46485.28516-.15625 4.15234-3.55859 4.4375.0625 4.4414-.71484.22657-.22656.39453-4.4375-.6211-1.25-1.39452-3.19141-1.57422-4.4375-1.47266-1.33203v-.6211l2.16016 1.95313 1.66015 4.4375.6211 1.42187 1.50781 3.01954.35547 4.4375-1.86328 1.86328-4.4414-.16016-4.4375.14063-3.02735 2.59375-1.41016.76562-4.4375.40625"/><path fill="#00ac00" fill-rule="evenodd" d="M401.42578 476.51172l-.90625-.6211.90625-.7578v.67187l-.10547.08594.10547.0703.65625-.0703-.65625-.08594v-.67188l4.4375.20313 2.9375-3.88281-.03906-4.4375 1.53906-2.8086.83985-1.63281-.70704-4.4375 4.3047-1.33203v.6211l-2.29298.71093-.39062 4.4375-1.7539 3.41015-.5625 1.03125.5625 3.84766 1.21483.58985 3.22266.17968.95313-.17969 1.98828-4.4375-.67188-4.4414-1.48437-4.4375-.78516-.71094v-.6211l1.47266 1.33204 1.57422 4.4375 1.39453 3.1914.6211 1.25-.39454 4.4375-.22656.22657-4.4414.71484-4.4375-.0625-4.15235 3.5586-.28516.15625-4.4375.46484"/><path fill="#00c800" fill-rule="evenodd" d="M401.42578 475.96094l-.10547-.07031.10547-.08594.65625.08594-.65625.0703m8.875-5.09765l-.5625-3.84765.5625-1.03125 1.7539-3.41016.39063-4.4375 2.29297-.71094v2.84375l-.84765 2.30469.84765 1.75781.71875-1.75781-.71875-2.30469v-2.84375l.78516.71094 1.48437 4.4375.67188 4.4414-1.98828 4.4375-.95313.1797-3.22265-.1797-1.21485-.58984"/><path fill="#10cc00" fill-rule="evenodd" d="M414.73828 464.33203l-.84765-1.75781.84765-2.30469.71875 2.30469-.71875 1.75781"/><path fill="#00e8fc" fill-rule="evenodd" d="M436.92969 464.27344l-2.10156-1.69922 2.10156-3.64844.23437-.78906 4.20703-3.0625v1.57812l-2.03906 1.48438 2.03906 4.33984 1.69922-4.33984-1.69922-1.48438v-1.57812l3.50782 3.0625-.84766 4.4375-1.28125 4.4414-1.3789 3.23829-1.5547-3.23829-2.88671-2.74218"/><path fill="#00d4fc" fill-rule="evenodd" d="M441.3711 462.47656l-2.03907-4.33984 2.03906-1.48438 1.69922 1.48438-1.69922 4.33984"/><g clip-path="url(#d)"><path fill="#fff" fill-opacity="0" fill-rule="evenodd" d="M467.9961 480.32813H468V311.67188h-.0039H468v168.65625h-.0039"/></g><path fill="#fff" fill-opacity="0" fill-rule="evenodd" d="M450.1289 465.23438l1.1211-5.73047-9.77734-1.91407-1.1211 5.73047 9.77735 1.91406"/><path fill-rule="evenodd" d="M442.82422 460.23828l.09765-.4961 6.17579 1.20704-.14844.77344-4.40625-.86329-.26953 1.36329-.54297-.10547.04297-.5625-.0039-.25781-.04298-.2422-.10156-.22656-.17188-.21093-.26171-.19922-.3672-.17969"/><path fill="#fff" fill-opacity="0" fill-rule="evenodd" d="M238.95313 443.95313l.16406-5.83985-9.95703-.27734-.16407 5.83984 9.95703.27735"/><path fill-rule="evenodd" d="M230.92578 440.23047l.01563-.51172 6.29297.17578-.02344.78906-4.48828-.125-.03907 1.38672-.55468-.01562-.05078-.5625-.04688-.2539-.08203-.23048-.13672-.20703-.20313-.17969-.29296-.15234-.39063-.11328"/><g clip-path="url(#e)"><path fill="none" stroke="#000" stroke-linecap="round" stroke-linejoin="round" stroke-miterlimit="10" stroke-width=".5" d="M144.9375 476.9414l-1.875 6.77344"/></g><path fill="none" stroke="#000" stroke-linecap="round" stroke-linejoin="round" stroke-miterlimit="10" stroke-width=".5" d="M144.66406 477.92969l1.19922-.26953"/><g clip-path="url(#f)"><path fill="none" stroke="#000" stroke-linecap="round" stroke-linejoin="round" stroke-miterlimit="10" stroke-width=".5" d="M157.84766 476.85547l-1.06641 6.94531"/></g><path fill="none" stroke="#000" stroke-linecap="round" stroke-linejoin="round" stroke-miterlimit="10" stroke-width=".5" d="M157.6914 477.86719l1.16016-.40625"/><g clip-path="url(#g)"><path fill="none" stroke="#000" stroke-linecap="round" stroke-linejoin="round" stroke-miterlimit="10" stroke-width=".5" d="M172.96484 477.70313l-4.66797 5.25"/></g><path fill="none" stroke="#000" stroke-linecap="round" stroke-linejoin="round" stroke-miterlimit="10" stroke-width=".5" d="M172.28516 478.46484l1.1914.28907"/><g clip-path="url(#h)"><path fill="none" stroke="#000" stroke-linecap="round" stroke-linejoin="round" stroke-miterlimit="10" stroke-width=".5" d="M186.65234 478.08984l-5.41406 4.48047"/></g><path fill="none" stroke="#000" stroke-linecap="round" stroke-linejoin="round" stroke-miterlimit="10" stroke-width=".5" d="M185.86328 478.74219l1.13672.46484"/><g clip-path="url(#i)"><path fill="none" stroke="#000" stroke-linecap="round" stroke-linejoin="round" stroke-miterlimit="10" stroke-width=".5" d="M200.27344 482.13281l-6.02735-3.60937"/></g><g clip-path="url(#j)"><path fill="none" stroke="#000" stroke-linecap="round" stroke-linejoin="round" stroke-miterlimit="10" stroke-width=".5" d="M210.48828 483.83984l.17188-7.02343"/></g><g clip-path="url(#k)"><path fill="none" stroke="#000" stroke-linecap="round" stroke-linejoin="round" stroke-miterlimit="10" stroke-width=".5" d="M223.83984 483.84375l.10157-7.02734"/></g><g clip-path="url(#l)"><path fill="none" stroke="#000" stroke-linecap="round" stroke-linejoin="round" stroke-miterlimit="10" stroke-width=".5" d="M237.76563 483.79688l-1.1211-6.9375"/></g><g clip-path="url(#m)"><path fill="none" stroke="#000" stroke-linecap="round" stroke-linejoin="round" stroke-miterlimit="10" stroke-width=".5" d="M251.5 483.70313l-1.95703-6.75"/></g><g clip-path="url(#n)"><path fill="none" stroke="#000" stroke-linecap="round" stroke-linejoin="round" stroke-miterlimit="10" stroke-width=".5" d="M267.0625 481.72266l-6.45313-2.78516"/></g><g clip-path="url(#o)"><path fill="none" stroke="#000" stroke-linecap="round" stroke-linejoin="round" stroke-miterlimit="10" stroke-width=".5" d="M280.47656 479.19531l-6.65234 2.26563"/></g><g clip-path="url(#p)"><path fill="none" stroke="#000" stroke-linecap="round" stroke-linejoin="round" stroke-miterlimit="10" stroke-width=".5" d="M293.17578 478.09375l-5.42187 4.46875"/></g><path fill="none" stroke="#000" stroke-linecap="round" stroke-linejoin="round" stroke-miterlimit="10" stroke-width=".5" d="M292.38672 478.7461l1.13672.46874"/><g clip-path="url(#q)"><path fill="none" stroke="#000" stroke-linecap="round" stroke-linejoin="round" stroke-miterlimit="10" stroke-width=".5" d="M306.14453 477.72656l-4.72656 5.20313"/></g><path fill="none" stroke="#000" stroke-linecap="round" stroke-linejoin="round" stroke-miterlimit="10" stroke-width=".5" d="M305.45703 478.48438l1.1875.30078"/><g clip-path="url(#r)"><path fill="none" stroke="#000" stroke-linecap="round" stroke-linejoin="round" stroke-miterlimit="10" stroke-width=".5" d="M320.1875 478.66016L314.0039 482"/></g><g clip-path="url(#s)"><path fill="none" stroke="#000" stroke-linecap="round" stroke-linejoin="round" stroke-miterlimit="10" stroke-width=".5" d="M319.28906 479.14453l1.01953.67969"/></g><g clip-path="url(#t)"><path fill="none" stroke="#000" stroke-linecap="round" stroke-linejoin="round" stroke-miterlimit="10" stroke-width=".5" d="M333.44922 478.5625l-6.07422 3.53125"/></g><path fill="none" stroke="#000" stroke-linecap="round" stroke-linejoin="round" stroke-miterlimit="10" stroke-width=".5" d="M332.5625 479.07422l1.04297.64844"/><g clip-path="url(#u)"><path fill="none" stroke="#000" stroke-linecap="round" stroke-linejoin="round" stroke-miterlimit="10" stroke-width=".5" d="M344.99219 477.05078l-2.53125 6.55469"/></g><path fill="none" stroke="#000" stroke-linecap="round" stroke-linejoin="round" stroke-miterlimit="10" stroke-width=".5" d="M344.625 478.0039l1.21484-.14452"/><g clip-path="url(#v)"><path fill="none" stroke="#000" stroke-linecap="round" stroke-linejoin="round" stroke-miterlimit="10" stroke-width=".5" d="M358.35156 477.0664l-2.6211 6.52344"/></g><path fill="none" stroke="#000" stroke-linecap="round" stroke-linejoin="round" stroke-miterlimit="10" stroke-width=".5" d="M357.96875 478.01563l1.21875-.12891"/><g clip-path="url(#w)"><path fill="none" stroke="#000" stroke-linecap="round" stroke-linejoin="round" stroke-miterlimit="10" stroke-width=".5" d="M372.40625 477.47656l-4.09766 5.70703"/></g><path fill="none" stroke="#000" stroke-linecap="round" stroke-linejoin="round" stroke-miterlimit="10" stroke-width=".5" d="M371.8086 478.30469l1.21484.16406"/><g clip-path="url(#x)"><path fill="none" stroke="#000" stroke-linecap="round" stroke-linejoin="round" stroke-miterlimit="10" stroke-width=".5" d="M386.80078 478.72656l-6.25781 3.20313"/></g><g clip-path="url(#y)"><path fill="none" stroke="#000" stroke-linecap="round" stroke-linejoin="round" stroke-miterlimit="10" stroke-width=".5" d="M386.80078 478.72656l2.01172 1.40625"/></g><g clip-path="url(#z)"><path fill="none" stroke="#000" stroke-linecap="round" stroke-linejoin="round" stroke-miterlimit="10" stroke-width=".5" d="M398.98047 477.4336l-3.98828 5.78906"/></g><path fill="none" stroke="#000" stroke-linecap="round" stroke-linejoin="round" stroke-miterlimit="10" stroke-width=".5" d="M398.98047 477.4336l2.4375.28124"/><g clip-path="url(#A)"><path fill="none" stroke="#000" stroke-linecap="round" stroke-linejoin="round" stroke-miterlimit="10" stroke-width=".5" d="M412.14844 477.33984l-3.69531 5.97657"/></g><path fill="none" stroke="#000" stroke-linecap="round" stroke-linejoin="round" stroke-miterlimit="10" stroke-width=".5" d="M412.14844 477.33984l2.44922.16016m-2.98438.71094l1.22266.07812"/><g clip-path="url(#B)"><path fill="none" stroke="#000" stroke-linecap="round" stroke-linejoin="round" stroke-miterlimit="10" stroke-width=".5" d="M425.07031 477.1289l-2.90625 6.39844"/></g><path fill="none" stroke="#000" stroke-linecap="round" stroke-linejoin="round" stroke-miterlimit="10" stroke-width=".5" d="M424.64844 478.0625l1.22265-.07813"/><g clip-path="url(#C)"><path fill="none" stroke="#000" stroke-linecap="round" stroke-linejoin="round" stroke-miterlimit="10" stroke-width=".5" d="M438.52344 483.46094l-3.1836-6.26563"/></g><g clip-path="url(#D)"><path fill="none" stroke="#000" stroke-linecap="round" stroke-linejoin="round" stroke-miterlimit="10" stroke-width=".5" d="M453.41406 481.84766l-6.33594-3.03516"/></g><g clip-path="url(#E)"><path fill="none" stroke="#000" stroke-linecap="round" stroke-linejoin="round" stroke-miterlimit="10" stroke-width=".5" d="M466.875 481.4961l-6.6289-2.33594"/></g><g clip-path="url(#F)"><path fill="none" stroke="#000" stroke-linecap="round" stroke-linejoin="round" stroke-miterlimit="10" stroke-width=".5" d="M147.39453 466.10938l-6.78906 1.80859"/></g><path fill="none" stroke="#000" stroke-linecap="round" stroke-linejoin="round" stroke-miterlimit="10" stroke-width=".5" d="M146.40625 466.375l.83594.89844m13.30078-1.65235l-6.45313 2.78516m5.51172-2.3789l.95703.76562m13.4297-.8125l-6.71485 2.0664m5.73828-1.76562l.86719.86719m13.27343-1.57031l-6.41406 2.87109m5.48047-2.45313l.96875.75M200.625 466l-6.73047 2.02734m5.75-1.73437l.86328.8711m13.5039-.89063l-6.87108 1.48047m5.87109-1.26563l.78906.9414M227.07422 468.5l-6.36719-2.97266m5.4414 2.54297l.0625 1.22266m13.61329.0664l-5.23438-4.6914m4.47266 4.00781l-.29688 1.1914m14.16016-.29296l-4.8086-5.1211m4.10938 4.37891l-.39844 1.16016m15.10547-1.32031l-6.1953-3.31641m5.29296 2.83594l-.0039 1.22656m14.55859-3.13672l-6.8711 1.46484m5.8711-1.25l.78906.9375m13.46875-1.39062l-6.7539 1.9414m6.7539-1.9414l1.70313 1.76562m11.33593-2.4453l-6.20312 3.30077m6.20312-3.30078l2.03516 1.375m11.27734-1.38281L314 468.67187m6.19531-3.3164l2.03516 1.36719m11.40625-1.10157l-6.44922 2.78516m6.44922-2.78516l1.91797 1.53125m11.35547-1.625l-6.3672 2.97266m6.3672-2.97266l1.96093 1.47657m10.95704-2.12891l-5.57422 4.27734m4.76171-3.65625l1.1172.50782m12.79687-1.38282l-5.14844 4.78516m19.13672-3.73828l-6.49219 2.6914m5.54688-2.30078l.9453.78125m13.58204.25391l-7.02734-.16016m7.02734.16016l1.10156 2.1914m9.32031 1.1875l-1.24218-6.91796m1.0625 5.91015l-.96485.75782m16.76954-5.14453l-5.86329 3.87109m5.86329-3.8711l2.15625 1.17188m11.41796 2.23828l-6.3789-2.94922m6.3789 2.94922l.13672 2.44922m12.91797-1.98437l-5.85937-3.87891m5.85937 3.8789l-.23437 2.44141m13.32812-2.14062l-5.41406-4.48047m5.41406 4.48047l-.49219 2.40234"/><g clip-path="url(#G)"><path fill="none" stroke="#000" stroke-linecap="round" stroke-linejoin="round" stroke-miterlimit="10" stroke-width=".5" d="M147.50781 453.89844L140.4922 453.5"/></g><path fill="none" stroke="#000" stroke-linecap="round" stroke-linejoin="round" stroke-miterlimit="10" stroke-width=".5" d="M146.48828 453.83984l.51172 1.1172m13.8125-1.58204l-6.9961.64453m5.98048-.55078l.67187 1.02734m13.57813.01953l-6.83204-1.63671m5.83985 1.39843l.30469 1.1875m14.09765-1.90234l-7.02344.27344m6-.23438l.6172 1.0625m13.67968-.41797l-6.9414-1.09765m6.9414 1.09765l.80078 2.32032m12.5586-2.89454l-7.02735.0547m7.02734-.0547l1.16797 2.16016m12.14063-1.95703l-7.01563-.35156m7.01563.35156l1.04297 2.21875m12.08593-1.25l-6.64453-2.28906m5.67969 1.95703l.1914 1.21094m14.1797-1.19141l-6.82423-1.66797m5.83204 1.42578l.30078 1.1914m14.03906-1.08983l-6.89063-1.38282m5.88672 1.17969l.35157 1.17578m14.01953-1.32031l-6.9961-.6914m5.97657.59374l.46875 1.13282m13.8164-2.0586l-6.89453 1.35547m6.89453-1.35547l1.54688 1.90625m11.64062-2.375l-6.64062 2.29688m6.64062-2.29688l1.79688 1.66797m11.33593-2.10156l-6.27734 3.16015m6.27734-3.16015l2.00391 1.41797m11.60547-.58594l-6.86719 1.5m6.86719-1.5l1.58594 1.8711m11.57422-2.39063l-6.5547 2.53515m6.5547-2.53515l1.85546 1.60547m-2.80859-1.23438l.92578.80078m12.91406-1.95703l-5.69921 4.10938m5.69921-4.10938l2.20313 1.08203m11.27734-.83203l-6.03125 3.60938m5.15235-3.08594l1.05078.63672m11.35156-2.64844l-2.44531 6.58594m2.08984-5.6289l1.21485-.16407m14.20703 4.3711l-5.94922-3.7422m5.08203 3.19532l-.08594 1.22656m9.60938.53125l3.3711-6.16406m-2.88282 5.26562l-1.22656-.01172m12.5625-.67187l6.35156-3m-5.42969 2.5625l-.98437-.73047m18.53125 2.57031l-3.95704-5.80468m3.38282 4.96093l-.57422 1.08594m15.08203-.78125l-5.19531-4.72656m4.4414 4.03906l-.30468 1.1875m14.72265-.94922l-5.89062-3.82812m5.89062 3.82812l-.21484 2.44531"/><g clip-path="url(#H)"><path fill="none" stroke="#000" stroke-linecap="round" stroke-linejoin="round" stroke-miterlimit="10" stroke-width=".5" d="M147.46094 439.78125l-6.92188 1.20313"/></g><path fill="none" stroke="#000" stroke-linecap="round" stroke-linejoin="round" stroke-miterlimit="10" stroke-width=".5" d="M146.45313 439.95703l.7539.96875m13.6211-.42578l-7.02344-.23438m6 .19922l.53906 1.10157m13.7461-.57032l-6.91798-1.22265m6.91797 1.22265l.75782 2.33203m12.30859-1.51953l-6.42188-2.85156m5.48829 2.4375l.08593 1.22266m13.82422-.21094l-5.7461-4.04297m4.91017 3.45313l-.15235 1.21875m14.7539-1.51172l-6.64843-2.27735m6.64844 2.27735l.38672 2.42187m13.05468-2.89062l-6.89843-1.34375m6.89843 1.34375l.71485 2.34765m12.66015-3.16015l-7.01953.28515m7.01953-.28515l1.2422 2.11718m12.0664-2.26171l-7.0039.5703m7.0039-.5703l1.32422 2.0664m12-1.75l-7.02735-.0625m6.00782.05469l.5664 1.08594m13.6289-.125l-6.74609-1.96875m5.76563 1.6836l.25 1.19921m14.0664-2.8125l-6.78515 1.83203m5.79687-1.5664l.83985.89453m13.17969-1.88282l-6.21875 3.27344m5.3125-2.79687l1.01562.6914m13.14844-1.26953l-6.10547 3.48047m5.21875-2.97656l1.03516.65625m13.34375-.8086l-6.45704 2.77344m6.45704-2.77344l1.91015 1.53907m11.55469-1.10938l-6.76172 1.91406m6.76172-1.91406l1.69922 1.77344m11.01562-2.96485l-5.5586 4.30079m4.75-3.67579l1.1172.50391m12.41015-1.73437l-4.36718 5.5078m3.73046-4.70702l1.20704.22265m12.28515-1.33203l-3.44922 6.125m2.94922-5.23047l1.22656.02735m8.96485 5.09765l3.80078-5.91015m8.82031 5.32031l5.1914-4.73438m-4.4375 4.04688l-1.15624-.41016m14 1.37891l4.6211-5.29688m-3.94532 4.52735l-1.19531-.27735m14.70312 1.60157l2.88672-6.40625m-2.46875 5.47656l-1.22266.07813m17.65235.47656l-4.17578-5.65235m3.5664 4.82813l-.52734 1.10937m12.85156.3672l-.97656-6.96095m.83203 5.94922l-.99219.71875"/><g clip-path="url(#I)"><path fill="none" stroke="#000" stroke-linecap="round" stroke-linejoin="round" stroke-miterlimit="10" stroke-width=".5" d="M147.22656 425.67969l-6.45312 2.77734"/></g><path fill="none" stroke="#000" stroke-linecap="round" stroke-linejoin="round" stroke-miterlimit="10" stroke-width=".5" d="M147.22656 425.67969l1.91406 1.53515m11.6836.00391l-7.01953-.29688m6 .25l.52734 1.10938m13.7461-.53906l-6.89844-1.34766m5.89453 1.15235l.35937 1.17187m13.17188.64453l-5.32031-4.58984m4.54687 3.92187l-.27344 1.19532m12.67578.55468l-1.9453-6.7539m1.66015 5.76953l-.8789.85547m15.9453-.72266l-4.8828-5.05078m4.17187 4.3164l-.3789 1.16797m15.19921-1.58593l-6.46875-2.7461m5.52734 2.34766l.10547 1.22265m14.30078-1.2578l-6.76953-1.87891m6.76953 1.8789l.53125 2.39453m12.8711-2.78906l-6.9414-1.08984m6.9414 1.08984l.80078 2.3164m12.4961-3.51562l-6.90626 1.3086m6.90625-1.3086l1.53516 1.91407m11.71094-2.20704l-6.76954 1.89454m5.78516-1.6172l.84375.88673m12.26172-2.96485l-4.3789 5.4961m3.74218-4.69532l1.20313.22266m11.30078-1.71094l-1.48438 6.8711m1.26953-5.8711l1.1797-.33203m13.60937-.1211l-4.00391 5.77735m3.42187-4.9375l1.21875.14453m13.34766-.3789l-5.33984 4.5664m4.5625-3.90234l1.14062.44922m13.33594-.5664l-6.10938 3.47265m5.21875-2.96875l1.03907.66015m13.59765.125l-6.97265.89844m5.95703-.76953l.71094 1m12.32812-3.42578l-4.39062 5.48828m3.7539-4.6875l1.20313.22656m11.23047-1.73047l-1.35547 6.89454m1.35547-6.89454l2.34765-.71484m12.85938 1.76172l-5.13672 4.80078m5.13672-4.80078l2.32031.79687m6.38281 4.46094l4.08594-5.71484m-3.49219 4.88281l-1.21484-.16016m14.09765 1.10157l3.76563-5.9336m-3.21875 5.07032l-1.22266-.09375m12.9336-.08204l5.8789-3.85546m-5.8789 3.85546l-2.14844-1.17968m18.01172 2.74218l.78515-6.98046m-.78515 6.98046l-2.28516.90235m16.72266-.95703l-1.46094-6.8711m1.2461 5.8711l-.9375.78906"/><g clip-path="url(#J)"><path fill="none" stroke="#000" stroke-linecap="round" stroke-linejoin="round" stroke-miterlimit="10" stroke-width=".5" d="M146.78125 411.60547l-5.5625 4.29687"/></g><path fill="none" stroke="#000" stroke-linecap="round" stroke-linejoin="round" stroke-miterlimit="10" stroke-width=".5" d="M146.78125 411.60547l2.23438 1.00781m-3.04297-.38281l1.11718.5039m13.41407-.45312l-6.37891 2.94531m6.3789-2.94531l1.95704 1.48438m11.66015.3789l-6.98437-.78125m5.96875.66797l.45312 1.14063m12.48047 1.40234l-4.1875-5.64453m3.57813 4.82422l-.52735 1.10937m11.95703.3789l.8047-6.98046m-.6875 5.96484l-1.14454.44922m15.88672.39844l-2.28906-6.64453m1.95703 5.67968l-.83594.89844m14.71094-.01953l-2.74219-6.46875m2.34375 5.52734l-.77344.95313m15.83203-1.01953l-5.43359-4.45313m5.4336 4.45313l-.48047 2.40625m14.27343-3.16797l-6.38672-2.92969m6.38672 2.92969l.14453 2.44922m13.47266-3.55469l-6.99219-.71875m6.9922.71875l.92187 2.27344m12.35156-3.27735l-6.91016 1.28907m6.91016-1.28907l1.52734 1.91797m11.32813-3.10937l-5.99219 3.67187m5.99219-3.67187l2.11328 1.2461m9.60547-2.63282l-2.80078 6.44531m2.39453-5.50781l1.22265-.09766m10.3672-1.05468l1.46484 6.875m-1.25-5.875l.9375-.78907m14.1953-.03906l-2.60155 6.52734m2.22656-5.57421l1.21875-.13672m14.28125.8164l-6.21875 3.26563m6.21875-3.26563l2.02734 1.38282m11.64844-.28516l-6.9414 1.07031m5.93359-.91406l.73437.98047m13.3164-2.0586l-6.39452 2.91407m6.39453-2.91406l1.94531 1.49218m10.23828-2.875l-4.13672 5.67969m4.13672-5.67969l2.42969.34375m10.33594-.67578l-3.03516 6.33985m3.03516-6.33985l2.44922-.10156m12.34765 1.4414l-6 3.66016m5.1289-3.125l1.0547.625m11.77343-2.4336l-3.28515 6.21095m2.80859-5.3086l1.22656-.0039m10.92188-1.3086v7.02735m0-6.00391l1.08594-.57422m9.1953 4.83594l6.07032-3.53906m-6.07031 3.53906l-2.08594-1.29297m17.32422 2.85547l2.22656-6.66407m-1.90234 5.69532l-1.21094.20312"/><g clip-path="url(#K)"><path fill="none" stroke="#000" stroke-linecap="round" stroke-linejoin="round" stroke-miterlimit="10" stroke-width=".5" d="M146.33984 397.8164l-4.67968 5.2461"/></g><path fill="none" stroke="#000" stroke-linecap="round" stroke-linejoin="round" stroke-miterlimit="10" stroke-width=".5" d="M146.33984 397.8164l2.38282.58204m-3.06641.17969l1.19531.29296m12.73047-1.11718l-4.53516 5.36718m4.53516-5.36718l2.39844.51953m-3.0586.26172l1.19922.2578m12.02735-1.52343l-3.03906 6.33594m3.03906-6.33594l2.45312-.10156m-2.89453 1.02344l1.22656-.05079m7.73047 1.03907l6.5625 2.51953m-5.60547-2.15625l-.14843-1.21485m14.54687 5.39844l2.48438-6.57422m-2.125 5.6172l-1.21485.15624m13.82031.64453l3.1836-6.26562m-2.72266 5.35547l-1.22656.01953m16.76953 1.09765l-2.19531-6.67578m2.19531 6.67578l-1.69922 1.76954m16.65625-2.91016l-5.48047-4.39844m5.48047 4.39844l-.45703 2.41015m14.25-3.1953l-6.4336-2.82423m6.4336 2.82422l.1836 2.44531m12.89843-2.0078l-5.96875-3.70313m5.96875 3.70312l-.16015 2.44922m13.99218-4.00781l-7.0039-.58594m7.0039.58594l.96875 2.2539m12.20704-3.5703l-6.72266 2.04687m6.72266-2.04688l1.73046 1.73828m11.2422-2.51171l-6.03907 3.59765m6.03906-3.59765l2.09766 1.26953m-2.97656-.7461l1.04687.63672m12.66406-1.79687l-5.07031 4.86718m5.07031-4.86718l2.32813.76562m11.96484 1.63672l-7.02734.0625m6.0039-.05078l.58594 1.07812m13.75-1.03125l-7.02734-.05468m7.02734.05468l1.13672 2.17579m-2.15625-2.1836l.5664 1.08594m13.76954-1.13281l-7.02735.05468m7.02735-.05468l1.16797 2.15625m-2.19141-2.14844l.58594 1.07812m13.73828-1.36718l-7 .61718m7-.61718l1.33984 2.05859m10.73828-4.4375l-4.52734 5.375m4.52734-5.375l2.39844.51563m-3.05469.26562l1.19922.25781m12.39453-1.3164l-3.76953 5.93359m3.76953-5.9336l2.44532.1875m11.16406.01954l-4.35547 5.51562m3.72266-4.71094l1.20703.21875m11.39453-1.67968l-1.66797 6.82812m1.66797-6.82812l2.3789-.60156m10.62891.54296l-1.05078 6.94922m1.05078-6.94922l2.3125-.8164m9.63672.8789l1.6836 6.82032m-1.44141-5.82813l.91406-.82031m11.33984 6.33594l3.32032-6.19532m-2.83594 5.29297l-1.23047-.0039"/><g clip-path="url(#L)"><path fill="none" stroke="#000" stroke-linecap="round" stroke-linejoin="round" stroke-miterlimit="10" stroke-width=".5" d="M145.92578 384.1875l-3.85156 5.875"/></g><path fill="none" stroke="#000" stroke-linecap="round" stroke-linejoin="round" stroke-miterlimit="10" stroke-width=".5" d="M145.92578 384.1875l2.44531.22266m10.54688-.41407l-3.20313 6.25391m3.20313-6.2539l2.45312-.03907m10.57813-.08984l-2.63672 6.51172m2.63672-6.51172l2.4414-.2539m-2.82421 1.20312l2.4414-.25782m11.8789-.36328l-3.8828 5.85547m3.3164-5.0039l1.22266.11718m7.7539 3.84766l5.92579-3.77735m6.90234 1.21875l6.89844 1.33985m-5.89453-1.14453l-.35938-1.17188m14.83594 4.91797l2.57031-6.53906m-2.57031 6.53906l-2.4414.27735m17.66405-.08985l-1.24218-6.91797m1.24219 6.91797l-1.9297 1.51563m17.3125-2.71485l-5.3828-4.51953m5.3828 4.51953l-.5078 2.39844m13.67968-2.23828l-5.09375-4.83985m5.09375 4.83985l-.65625 2.36328m14.58203-3.24219l-6.3164-3.08203m6.3164 3.08203l.08594 2.45313m13.48828-3.16797l-6.83203-1.65235m5.83594 1.41016l.30469 1.1914m13.04296-4.28906l-4.90625 5.02735m4.90625-5.02735l2.35547.6875m11.6797.32032l-6.34767 3.01172m6.34766-3.01172l1.96875 1.46484m11.6836-.0625l-7.02344.20703m7.02343-.20703l1.21485 2.13281m-2.23438-2.10156l1.21485 2.13281m13.07031-2.66015l-6.92188 1.19922m6.92188-1.19922l1.5039 1.9414m-2.51171-1.76562l.7539.96875m13.16407-2.27735l-6.11329 3.46485m6.11329-3.46485l2.0703 1.31641m11.37891-1.05469l-6.3828 2.94141m6.3828-2.9414l1.95313 1.48827m-2.88281-1.05859l.97656.74219m12.35937-2.375l-4.5625 5.34765m4.5625-5.34765l2.39454.53125m-3.0586.25l1.19922.26172m12.96875-.86719l-4.9414 4.9961m4.9414-4.9961l2.35156.70703m-3.0703.01953l1.17577.35547m12.82813-1.10937l-4.88282 5.05078m4.88282-5.05078l2.35937.67578m9.57031-1.5l-2.10937 6.70312m2.10937-6.70312l2.41016-.44922m10.1836.30078l-.66797 6.9961m.66796-6.9961l2.26563-.9414m11.17969.95702l-.92578 6.96485m.78906-5.95313l1.15234-.42578m13.78906 5.8164l-3.91015-5.83983m3.91015 5.83984l-1.15625 2.16015"/><g clip-path="url(#M)"><path fill="none" stroke="#000" stroke-linecap="round" stroke-linejoin="round" stroke-miterlimit="10" stroke-width=".5" d="M144.21484 370.30078l-.42968 7.01563"/></g><g clip-path="url(#N)"><path fill="none" stroke="#000" stroke-linecap="round" stroke-linejoin="round" stroke-miterlimit="10" stroke-width=".5" d="M144.15234 371.32031l1.1172-.50781"/></g><path fill="none" stroke="#000" stroke-linecap="round" stroke-linejoin="round" stroke-miterlimit="10" stroke-width=".5" d="M157.8125 370.33203l-.9961 6.95313m.9961-6.95313l2.3086-.83594m12.53906 1.44532l-4.0625 5.73437m4.0625-5.73437l2.43359.3125m-3.02344.51953l1.21485.15625m13.39453-.32813l-5.46875 4.41406m5.46875-4.41406l2.25781.96485m-3.05469-.32422l1.1289.48437m12.95704-1.15625l-5.41797 4.47266m5.41797-4.47266l2.26953.9414m-3.05469-.28905l1.13282.46875m12.44922-1.62891l-4.38282 5.49219m4.38281-5.49219l2.41407.44922m-3.05078.34765l1.20703.22657m13.09765-.70313l-5.08593 4.85156m5.08593-4.85156l2.32813.77344m7.05469 4.8789l2.78125-6.45312m-2.78125 6.45313l-2.44532.19921m2.84766-1.13671l-1.22266.09765m16.1797 1.0664l-1.3125-6.90624m1.3125 6.90625l-1.91407 1.53515m17.05078-2.49609l-4.95313-4.98437m4.95313 4.98437l-.72656 2.34375m14.42578-2.79687l-5.72266-4.07813m5.72266 4.07813l-.32031 2.43359m14.02343-3.13672l-6.5-2.67187m6.5 2.67187l.2422 2.4414m13.33202-4.0039l-7.01562.44922m7.01562-.44922l1.28516 2.08985m-2.3086-2.02344l1.28907 2.08984m12.90234-2.94922l-6.72266 2.03906m6.72266-2.03906l1.73047 1.73828m-2.70703-1.4414l1.73047 1.73828m12.2461-2.76953l-6.08985 3.50781m6.08984-3.50781l2.07813 1.30469m-2.96485-.79297l1.03906.65234m12.78516-1.69531l-5.33594 4.57031m5.33594-4.57031l2.28516.89453m11.83203.83203l-6.9414 1.11719m6.9414-1.11719l1.48047 1.95703m11.80078-2.125l-6.875 1.45313m6.875-1.45313l1.57812 1.8789m-2.57812-1.66796l.78906.9414m12.88281-2.55468l-5.58984 4.25781m5.58984-4.25781l2.23047 1.02344m-3.04297-.40625l1.11328.51562m12.7422-1.44922l-5.04298 4.89063m5.04297-4.89063l2.33594.75m-3.07031-.03906l1.16797.375m12.72265-1.24219l-4.72265 5.20313m4.72265-5.20313l2.375.60156m-3.0625.15625l1.1875.30079m12.625-1.21875l-4.34375 5.52343m4.34375-5.52344l2.41406.4336m-3.04687.3711l1.20703.21484m12.64453-1.09375l-4.15234 5.66796m4.15234-5.66796l2.42969.35156m-3.03516.47656l1.21485.17578m13.84765.42578l-6.4375 2.8125m6.4375-2.8125l1.92578 1.52344m10.1875 2.75781l-4.03515-5.75m4.03515 5.75l-1.10937 2.1875m.52344-3.02343l-.55469 1.09375"/><g clip-path="url(#O)"><path fill="none" stroke="#000" stroke-linecap="round" stroke-linejoin="round" stroke-miterlimit="10" stroke-width=".5" d="M145.91406 357.54688l-3.82812 5.89062"/></g><path fill="none" stroke="#000" stroke-linecap="round" stroke-linejoin="round" stroke-miterlimit="10" stroke-width=".5" d="M145.91406 357.54688l2.44531.21875m8.92188-.78516l.07031 7.02734m-.0625-6.0039l1.07813-.58985m13.76172-.09765l-2.9961 6.35546m2.9961-6.35546l2.44922-.1211m11.67187.64453l-4.60938 5.3047m3.9375-4.53126l1.19532.27344m12.98437-.86719l-4.99219 4.94531m4.26563-4.22656l1.17188.36719m13.03515-.90235l-5.32812 4.58204m5.32812-4.58204l2.28516.89063m-3.0586-.22656l1.14063.44531m13.3789-.48438l-6.1875 3.33204m6.1875-3.33204l2.03907 1.35938m-2.9414-.875l1.02343.67969m12.83203 2.71094l-5.46484-4.41797m5.46484 4.41796l-.46484 2.41016m12.73437-1.53906l-3.375-6.16406m3.375 6.16406l-1.34375 2.05078m.85547-2.94531l-.67578 1.02344m15.41797-.875l-5.25-4.67188m5.25 4.67188l-.58203 2.38671m-.1836-3.0664l-.28906 1.19531m15.03125-1.60547l-6.57031-2.49219m6.57031 2.4922l.3086 2.43358m-1.26563-2.79687l.3086 2.4375m-1.26563-2.79688l.15625 1.21485m14.9961-.3125l-6.42188-2.85156m6.42187 2.85156l.17578 2.44922m-1.10937-2.86328l.17578 2.4453m-1.10938-2.85937l.08594 1.22266m15.23828-2.875l-6.70312 2.10938m6.70312-2.10938l1.75 1.72266m-2.72656-1.41407l1.75 1.71875m11.91797-3.18359l-5.45703 4.42578m5.45703-4.42578l2.26172.95703m-3.05469-.3125l2.25781.95703m12.34766-.78125l-6.45313 2.78125m6.45313-2.78125l1.91797 1.53516m-2.85547-1.1289l.95703.76562m13.57031-.09375l-7 .625m7-.625l1.33985 2.0586m11.98047-2.00392l-7.00782.51954m7.00782-.51954l1.30468 2.07422m11.6914-3.29687l-6.375 2.96094m6.375-2.96094l1.95704 1.48047m11.33594-1.52735l-6.32813 3.0586m6.32813-3.0586l1.98047 1.44922m-2.90235-1.0039l.98828.72265m13-1.60156l-5.83203 3.92188m5.83203-3.92188l2.16407 1.15625m-3.01172-.58594l1.08203.57813m12.58984-1.73047l-4.84765 5.08594m4.84765-5.08594l2.36328.66015m-3.0703.08204l2.36327.66015m11.83594-1.21875l-5.20312 4.72266m5.20312-4.72266l2.3086.83203m-3.06641-.14453l2.3086.82813m12.23437-.85547l-6.14453 3.40234m6.14453-3.40234l2.05859 1.33594m-2.95312-.84375l2.05859 1.33984m12.58984-.04688l-7.02343-.17187m7.02343.17188l1.10157 2.1953m-2.1211-2.21874l.54688 1.09765m12.91015 1.16797l-5.26562-4.65234m5.26562 4.65234l-.57031 2.38672m-.19531-3.0625l-.28516 1.1914"/><g clip-path="url(#P)"><path fill="none" stroke="#000" stroke-linecap="round" stroke-linejoin="round" stroke-miterlimit="10" stroke-width=".5" d="M146.44531 344.65234l-4.89062 5.05079"/></g><path fill="none" stroke="#000" stroke-linecap="round" stroke-linejoin="round" stroke-miterlimit="10" stroke-width=".5" d="M146.44531 344.65234l2.35547.6797m-3.0664.05468l1.17578.33984m13.83984.70703l-6.86719 1.48829m6.86719-1.48829l1.58203 1.875m10.96484-3.41796l-5.33593 4.57421m5.33594-4.57421l2.28515.89843m10.45313-1.4375l-4.1797 5.65235m3.57032-4.82813l1.21484.17969m9.29297-1.42969l2.65235 6.5039m12.54297-6.72265l-1.10547 6.9414m.94531-5.92968l1.16016-.39844m13.62109-.1211l-3.71875 5.96095m3.17969-5.09375l1.22265.08203m13.66797.03906l-5.79297 3.98047m5.79297-3.98047l2.17578 1.13281m10.92578 3.125l-5.36718-4.53515m5.36719 4.53515l-.51954 2.39844m13.75782-2.3125l-5.21485-4.70703m5.21485 4.70703l-.59766 2.38281m-.16016-3.0664l-.59765 2.3789m15.23828-2.54297l-6.34766-3.01171m6.34766 3.01171l.11328 2.45313m-1.03516-2.89063l.10938 2.45313m14.46094-3.72266l-7.01563.40235m7.01563-.40235l1.27343 2.09766m-2.29297-2.03906l.63672 1.05078m12.76953-3.29297l-5.15625 4.77344m5.15625-4.77344l2.31641.80469m-3.0664-.11329l1.15624.40625m12.83594-1.17578l-5.01172 4.92579m5.01172-4.92579l2.33985.73829m-3.07032-.01954l2.33985.73438m12.3711-.5039l-6.34376 3.02734m6.34375-3.02735l1.97266 1.46094m-2.89453-1.01953l.98437.73047m13.5586.84375l-6.95313-1m6.95312 1l.83204 2.3086m12.43359-2.03517l-6.85547-1.55078m6.85547 1.55079l.64453 2.36718m12.75781-3.14062h-7.02734m7.02734 0l1.15235 2.16406m12.10937-2.75781l-6.92578 1.1836m6.92578-1.1836l1.5 1.9414m11.3789-3.13671l-6.05077 3.57421m6.05078-3.57421l2.09375 1.27734m11.01562-1.58594l-5.64062 4.1914m5.64062-4.1914l2.21875 1.05078m-3.03906-.4414l2.21875 1.05468m11.76953-1.84765l-5.34375 4.5586m5.34375-4.5586l2.28125.89844m-3.0586-.23438l2.28126.89844m12.21094-.98828l-6.14454 3.41015m6.14454-3.41015l2.05859 1.33203m-2.95313-.83594l2.0586 1.33203m12.5625-.57031l-6.96875.89453m6.96875-.89453l1.41797 2.0039m-2.42969-1.87109l1.41797 2m12.9375-1.77344l-7.02344.17579"/><g clip-path="url(#Q)"><path fill="none" stroke="#000" stroke-linecap="round" stroke-linejoin="round" stroke-miterlimit="10" stroke-width=".5" d="M467.07422 347.08984l1.20312 2.14063"/></g><path fill="none" stroke="#000" stroke-linecap="round" stroke-linejoin="round" stroke-miterlimit="10" stroke-width=".5" d="M466.05078 347.11719l.60547 1.0664"/><g clip-path="url(#R)"><path fill="none" stroke="#000" stroke-linecap="round" stroke-linejoin="round" stroke-miterlimit="10" stroke-width=".5" d="M146.10547 331.04688l-4.21094 5.6289"/></g><path fill="none" stroke="#000" stroke-linecap="round" stroke-linejoin="round" stroke-miterlimit="10" stroke-width=".5" d="M146.10547 331.04688l2.42187.375m12.25 1.84765l-6.92578 1.1875m6.92578-1.1875l1.50391 1.9375m11.83203-1.79297l-6.96875.89844m6.96875-.89844l1.42188 2m11.71484-2.74219l-6.60938 2.38282m6.60938-2.38281l1.82031 1.64843m-2.78125-1.30078l.91016.82422m13.4961-.71484l-6.8711 1.46875m6.8711-1.46875l1.58202 1.875m-2.58203-1.66407l.78906.94141m13.26954 1.08203l-6.35547-3m6.35547 3l.11328 2.45313m10.875-7.36329l-1.70313 6.82032m17.625-4.02344l-6.91797 1.22656m5.91407-1.04687l.7539.96484m13.17188 1.1836l-6.13281-3.4336m6.1328 3.4336l-.05468 2.45312m12.35156-1.3125l-4.09765-5.71094m4.09765 5.71094l-1.08593 2.19922m.49218-3.03125l-1.08984 2.19922m15.96094-2.41016l-6.01953-3.625m6.01953 3.625l-.13282 2.45313m-.74218-2.98047l-.06641 1.22656m14.73047-2.96094l-6.96875.89844m6.96875-.89844l1.42187 2m-2.43359-1.8711l1.41797 2m12.5039-3.375l-6.15624 3.39063m6.15625-3.39062l2.05468 1.33984m-2.95312-.84765L308.01563 334m12.34375-1.4336l-6.52735 2.59376m6.52735-2.59375l1.87109 1.58593m-2.82031-1.21093l1.87109 1.58984m-2.82031-1.21094l.9336.79297m14.1328-1.875l-6.23046 3.25m6.23046-3.25l2.02344 1.38672m-2.92969-.91406l2.02344 1.38672m12.58594-.47657l-7.00781.48438m7.0078-.48438l1.30079 2.07813m-2.32031-2.00781l.64844 1.03906m13.65234-.32031l-6.9414-1.09375m6.9414 1.09375l.80078 2.3203m12.54297-3.20312l-6.9961.67188m6.9961-.67188l1.35156 2.04688m11.51953-3.44531l-6.11328 3.46484m5.22656-2.95703l1.03516.65625m12.125-2.3086l-4.02734 5.75782m3.4414-4.92188l1.21485.14844m13.41406-.30469l-5.48047 4.39844m5.48047-4.39844l2.2539.96875m11.72266.35938l-6.8086 1.74219m6.8086-1.7422l1.65235 1.8125m-2.64063-1.55859l.82422.90625m13.52344-.96093l-6.89453 1.34375m6.89453-1.34375l1.54687 1.90625m-2.55078-1.71094l1.54688 1.90625m12.73046-2.30078l-6.80859 1.74219m6.8086-1.7422l1.65234 1.8125m-2.64453-1.55859l1.65234 1.8125M451.66797 333.5l.82812.90625m14.29688-1.92578l-6.46094 2.76562"/><g clip-path="url(#S)"><path fill="none" stroke="#000" stroke-linecap="round" stroke-linejoin="round" stroke-miterlimit="10" stroke-width=".5" d="M466.79297 332.48047l1.91015 1.53515"/></g><g clip-path="url(#T)"><path fill="none" stroke="#000" stroke-linecap="round" stroke-linejoin="round" stroke-miterlimit="10" stroke-width=".5" d="M465.85156 332.88281l1.91016 1.53516"/></g><g clip-path="url(#U)"><path fill="none" stroke="#000" stroke-linecap="round" stroke-linejoin="round" stroke-miterlimit="10" stroke-width=".5" d="M145.28516 317.27734l-2.57032 6.53907"/></g><path fill="none" stroke="#000" stroke-linecap="round" stroke-linejoin="round" stroke-miterlimit="10" stroke-width=".5" d="M145.28516 317.27734l2.4375-.28125m12.5664 5.42188l-5.94922-3.74219m19.73438 2.5664l-6.88672-1.39062m5.88281 1.1914l.35156 1.17579m13.79297-2.95703l-6.53906 2.57422m6.53906-2.57422l1.8672 1.58984m11.48827-1.48828l-6.61719 2.36719m6.6172-2.36719l1.8125 1.65235m11.625-1.21094l-6.8672 1.48437m6.8672-1.48437l1.58593 1.875m11.75-1.77735l-6.90625 1.28907m6.90625-1.28907l1.53125 1.91797m11.4336.375l-6.20704-3.29687m6.20703 3.29687v2.45313m12.82422-1.7539l-5.22656-4.69532m5.22656 4.69531l-.58984 2.38281m-.16797-3.0664l-.59375 2.38281m14.85547-1.92188l-5.60156-4.24609m5.60156 4.2461l-.39453 2.42187m-.42188-3.03906l-.39062 2.42187m-.42188-3.04297l-.19922 1.21485m15.72657-1.16406l-6.76954-1.875m6.76954 1.875l.53515 2.39843m-1.51953-2.67187l.53125 2.39844m13.85156-3.6172l-6.9375 1.10938m6.9375-1.10937l1.48047 1.95703m-2.48828-1.79297l1.48047 1.95703m12.84766-2.10156l-6.94532 1.07422m6.94532-1.07422l1.46875 1.96484m-2.48047-1.8086l.73437.98048m13.40625-1.84375l-6.57422 2.48828m6.57422-2.48828l1.84375 1.61719m-2.80078-1.25782l1.84375 1.6211m12.46485-1.87891l-6.64844 2.28125m6.64844-2.28125l1.79296 1.67578m-2.76171-1.34375l.89843.83985m13.38672-1.16797l-6.64844 2.27343m6.64844-2.27343l1.78906 1.67968m-2.7578-1.34765l1.79296 1.67578m12.45703-2.10156l-6.58203 2.46093m6.58203-2.46093l1.83594 1.6289m-2.79297-1.26953l.91797.8125m13.35937-1.15234l-6.59375 2.42578m6.59375-2.42578l1.83204 1.63281m11.26953-2.10156l-6.16797 3.36328m6.16797-3.36328l2.05078 1.34765m11.09765-1.625l-5.83203 3.91797m5.83203-3.91797l2.16407 1.15625m10.63672-1.76171l-4.8047 5.125m4.10548-4.37891l1.18359.32031m13.90625 1l-6.95703.99219m20.10547.67969l-6.6211-2.34766m6.6211 2.34766l.36328 2.42578m12.94922-4.78125l-6.61719 2.36328m6.61719-2.36328l1.8125 1.65234m-2.77344-1.3086l1.8125 1.65235m12.07031-2.77734l-5.82812 3.92187"/><g clip-path="url(#V)"><path fill="none" stroke="#000" stroke-linecap="round" stroke-linejoin="round" stroke-miterlimit="10" stroke-width=".5" d="M466.47656 318.58594l2.16406 1.15625"/></g><g clip-path="url(#W)"><path fill="none" stroke="#000" stroke-linecap="round" stroke-linejoin="round" stroke-miterlimit="10" stroke-width=".5" d="M465.6289 319.15625l2.16407 1.15625"/></g><path fill="#00f" fill-rule="evenodd" d="M397.11719 476.52344h8.61719V466.3789h-8.6172v10.14453"/><path fill="azure" fill-rule="evenodd" d="M398.94922 468.21094h.83203v2.82422h3.28516v-2.82422h.83593v6.48047h-.83593v-2.91407h-3.28516v2.91407h-.83203v-6.48047"/><path fill="#ff3030" fill-rule="evenodd" d="M344.55078 467.64844h7.6914V457.5039h-7.6914v10.14453"/><path fill="azure" fill-rule="evenodd" d="M346.38281 459.33594h.83203v5.73828h3.19532v.74219h-4.02735v-6.48047"/><path fill="#ff3030" fill-rule="evenodd" d="M446.63281 467.64844h7.6914V457.5039h-7.6914v10.14453"/><path fill="azure" fill-rule="evenodd" d="M448.46484 459.33594h.83204v5.73828h3.1953v.74219h-4.02734v-6.48047"/><path fill="#00f" fill-rule="evenodd" d="M383.80078 436.57813h8.61719v-10.14454h-8.61719v10.14454"/><path fill="azure" fill-rule="evenodd" d="M385.63281 428.26563h.83203v2.82421h3.28907v-2.82421h.83203v6.48046h-.83203v-2.91406h-3.28907v2.91406h-.83203v-6.48046"/><path fill="#ff3030" fill-rule="evenodd" d="M295.72656 405.51172h7.69531v-10.14453h-7.6953v10.14453"/><path fill="azure" fill-rule="evenodd" d="M297.5586 397.19922h.83593v5.73828h3.1914v.74219h-4.02734v-6.48047"/><path fill="#00f" fill-rule="evenodd" d="M370.48438 401.07422h8.62109v-10.14844h-8.6211v10.14844"/><path fill="azure" fill-rule="evenodd" d="M372.3164 392.76172h.83594v2.82031h3.28516v-2.82031h.83203v6.47656h-.83203v-2.91406h-3.28516v2.91406h-.83593v-6.47656"/><path fill="#00f" fill-rule="evenodd" d="M201.82813 396.63281h8.61718v-10.14453h-8.61719v10.14453"/><path fill="azure" fill-rule="evenodd" d="M203.66016 388.32031h.83203v2.82422h3.28906v-2.82422h.83203v6.48047h-.83203v-2.91406h-3.28906v2.91406h-.83203v-6.48047"/><path fill="#ff3030" fill-rule="evenodd" d="M455.50781 392.19531h7.6914v-10.14453h-7.6914v10.14453"/><path fill="azure" fill-rule="evenodd" d="M457.33984 383.88281h.83594v5.73828h3.1914v.7422h-4.02734v-6.48048"/><path fill="#ff3030" fill-rule="evenodd" d="M202.52344 356.6875h7.6914v-10.14453h-7.6914v10.14453"/><path fill="azure" fill-rule="evenodd" d="M204.35547 348.375h.83203v5.74219h3.19531v.73828h-4.02734V348.375"/><path fill="#ffffe0" fill-rule="evenodd" d="M418.44531 463.4414H440.625V453.25h-22.17969v10.1914"/><path fill-rule="evenodd" d="M421.94531 455.08203h.50781v6.29688h-.78515v-4.4922h-1.39063v-.55468l.5586-.0664.2539-.05079.23047-.08984.20313-.14453.17187-.20703.14453-.29688.10547-.39453m4.8125 0l.23047.01953.21875.05469.20703.08984.19531.1211.1836.14844.17187.17578.3047.42187.24218.49219.17969.54687.10937.57813.03906.58984-.03906.59375-.10937.58594-.1797.55469-.24218.5-.30469.42969-.17187.17968-.1836.15235-.1953.125-.20704.08984-.21875.0586-.23047.01952-.23047-.01953-.21875-.05859-.20703-.08984-.19531-.125-.1836-.15235-.17187-.17969-.30469-.42968-.24218-.5-.1797-.55469-.10937-.58594-.03906-.59375h.83203l.03125.5664.07813.50392.1289.4414.16016.375.1914.30078.21094.22266.22266.13672.22656.04687.22656-.04687.22266-.13672.21094-.22266.1914-.30078.16016-.375.1289-.4414.08204-.50391.02734-.5664-.02734-.5586-.08203-.5-.1289-.4375-.16017-.36328-.1914-.29297-.21094-.21485-.22265-.1328-.22657-.04298-.22656.04297-.22266.13281-.21093.21485-.19141.29297-.16016.36328-.1289.4375-.07813.5-.03125.5586h-.83203l.03906-.58985.10938-.57813.17969-.54687.24218-.49219.3047-.42187.17187-.17579.18359-.14843.19531-.1211.20703-.08984.21875-.05469.23047-.01953m5.08985 0h.51171v6.29688h-.78906v-4.4922h-1.38672v-.55468l.5586-.0664.2539-.05079.22657-.08984.20703-.14453.17187-.20703.14063-.29688.10547-.39453m2.82421 2.17578h.78907l.01953-.3164.0586-.28516.09765-.2539.14062-.21485.1836-.17578.22265-.1289.26563-.07813.30469-.02735.23828.01954.22656.0625.20313.10156.17968.14062.14844.17188.11328.20703.07031.23437.02735.26563-.02344.26953-.0664.22266-.10938.1914-.15625.17188-.19922.16406-.2461.16406-.63671.39063-.53516.3125-.4375.3164-.34765.32422-.26563.33594-.1875.35156-.125.3711-.07031.39062-.01953.42188h4.21093v-.7422h-3.33203l.08203-.28515.11329-.23437.14843-.20313.1875-.17969.23047-.17187.27735-.17578.71875-.41797.41406-.20313.34765-.23046.28125-.25391.21875-.26563.16407-.27734.10937-.28515.0664-.28516.01954-.28125-.04297-.38281-.1211-.34766-.1875-.3086-.25-.26171-.30468-.21485-.34375-.15625-.3789-.09765-.41016-.03516-.4336.03125-.39844.10156-.35546.16407-.3047.23437-.24608.30469-.1875.375-.11329.44531-.04296.51953"/><path fill="#ffffe0" fill-rule="evenodd" d="M351.39453 383.55078h22.17969v-10.1914h-22.17969v10.1914"/><path fill-rule="evenodd" d="M354.89063 375.1914h.51171v6.29688h-.78906v-4.49219h-1.38672v-.55468l.5586-.06641.2539-.05078.22656-.08985.20704-.14453.17187-.20703.14063-.29687.10546-.39453m4.81641 0l.22656.01953.21875.05469.21094.08984.19531.1211.1836.14843.17187.17578.30078.42188.2461.49218.17969.54688.10937.57812.03906.59375-.03906.58985-.10938.58594-.17968.55468-.2461.5-.30078.42969-.17187.17969-.1836.15234-.1953.125-.21095.08985-.21875.05859-.22656.01953-.23047-.01953-.21875-.0586-.20703-.08984-.19922-.125-.1836-.15234-.17187-.17969-.30078-.42969-.24219-.5-.17968-.55469-.11328-.58593-.03516-.58985h.83203l.02735.5625.08203.50391.125.44531.16406.3711.1914.30078.21094.22265.22266.13672.22656.04688.22656-.04688.22266-.13672.21094-.22265.1875-.30078.16406-.3711.125-.44531.08203-.5039.03125-.5625-.03125-.5625-.08203-.5-.125-.4375-.16406-.36329-.1875-.29297-.21094-.21484-.22266-.13281-.22656-.04297-.22656.04297-.22266.13281-.21094.21484-.1914.29297-.16406.36328-.125.4375-.08204.5-.02734.5625h-.83203l.03516-.59375.11328-.57812.17969-.54688.24218-.49218.30078-.42188.17188-.17578.1836-.14844.19921-.1211.20703-.08983.21875-.0547.23047-.01952m5.08985 0h.5078v6.29687h-.78515v-4.49219h-1.38672v-.55468l.5586-.06641.25-.05078.23046-.08985.20313-.14453.17578-.20703.14063-.29687.10546-.39453m2.82422 2.17578h.78516l.01953-.3164.0625-.28517.09766-.2539.14062-.21485.17969-.17578.22266-.1289.26562-.07813.3086-.02734.23828.01953.22265.0625.20703.10156.17579.14063.14843.17187.11328.20703.07422.23438.02344.26562-.01953.26954-.0664.22265-.10938.1914-.15625.17188-.20313.16406-.2461.16407-.6328.39062-.53907.3125-.4375.3164-.34375.32423-.26562.33594-.1914.35156-.125.3711-.06641.39062-.02344.42187h4.21484v-.74219h-3.33203l.08203-.28515.11328-.23438.14844-.20312.1875-.17969.23047-.17188.27734-.17578.71875-.41796.41407-.20313.34765-.23047.27735-.2539.22265-.26563.16406-.27734.10938-.28516.0625-.28516.02344-.28125-.04297-.3828-.1211-.34767-.1875-.30859-.2539-.26172-.30078-.21484-.34375-.15625-.38281-.09766-.40625-.03515-.4336.03125-.39844.10156-.35546.16406-.3047.23438-.25.30468-.18359.375-.11718.44532-.03907.51953"/><path fill="#ffffe0" fill-rule="evenodd" d="M257.41406 348.98438h22.17969v-10.19141h-22.17969v10.1914"/><path fill-rule="evenodd" d="M260.91406 340.625h.50781v6.29688h-.78515v-4.4922H259.25v-.55468l.5586-.0664.25-.05079.23046-.08984.20313-.14063.17578-.21093.14062-.29688.10547-.39453m4.8125 0l.23047.01953.21875.05469.20703.08984.19922.1211.1836.14843.17187.17579.30078.42187.24219.49219.17969.54687.11328.57813.03906.59375-.03906.58984-.11328.58594-.1797.55469-.24218.5-.30078.42968-.17188.1797-.18359.15233-.19922.125-.20703.08985-.21875.0586-.23047.01952-.22656-.01953-.21875-.0586-.21094-.08983-.19531-.125-.1836-.15235-.17187-.17969-.30078-.42968-.24219-.5-.17969-.5547-.11328-.58593-.03906-.58984h.83594l.02734.5625.08203.5039.125.44532.16407.375.1914.29687.20703.22266.22266.13672.22656.04687.22656-.04687.22266-.13672.21094-.22266.1914-.29687.16407-.375.125-.44532.08203-.5039.02734-.5625-.02734-.5625-.08203-.5-.125-.4375-.16406-.36328-.19141-.29297-.21094-.21485-.22265-.1328-.22657-.04298-.22656.04297-.22266.13281-.20703.21485-.1914.29297-.16407.36328-.125.4375-.08203.5-.02734.5625h-.83594l.03906-.59375.11329-.57813.17968-.54687.24219-.49219.30078-.42188.17188-.17578.18359-.14843.19531-.1211.21094-.08984.21875-.05469.22656-.01953m5.09375 0h.50781v6.29688h-.78515v-4.4922h-1.39063v-.55468l.5625-.0664.25-.05079.23047-.08984.20313-.14063.17578-.21093.14062-.29688.10547-.39453m2.82422 2.17578h.78516l.01953-.3164.0586-.28516.10156-.2539.14062-.21485.17969-.17188.22265-.1289.26563-.08203.3086-.02735.23827.01953.22266.0625.20313.10157.17968.14062.14844.17188.11328.20703.07031.23437.02735.26563-.02344.26953-.0625.22265-.11328.19141-.15235.17188-.20312.16406-.2461.16406-.6328.39063-.53907.3125-.4375.3164-.34765.32422-.26172.33594-.19141.35156-.125.3711-.07031.39062-.01953.42188h4.21093v-.7422h-3.33203l.08594-.28515.11328-.23437.14844-.20313.1836-.17969.23437-.17187.27734-.17578.71485-.41406.41796-.20704.34375-.23046.28125-.25.21875-.26954.16407-.27734.11328-.28516.0625-.28515.01953-.28125-.04297-.38281-.11719-.34766-.1914-.3086-.25-.26171-.30079-.21094-.34765-.16016-.3789-.09765-.40626-.03516-.4375.03516-.39453.09765-.35547.16406-.30469.23438-.25.30469-.18359.375-.11719.44531-.03906.51953"/><path fill="#ffffe0" fill-rule="evenodd" d="M217.46875 402.1875h22.17969v-10.1914h-22.17969v10.1914"/><path fill-rule="evenodd" d="M220.96875 393.82813h.50781v6.29687h-.78515v-4.49219h-1.38672v-.55469l.5586-.0664.25-.05078.23046-.08985.20313-.14453.17578-.20703.14062-.29687.10547-.39454m4.8125 0l.23047.01954.21875.05468.20703.08985.19922.1211.1836.14843.17187.17578.30078.42188.24219.49218.17968.54688.11328.57812.03907.58985-.03906.59375-.11329.58593-.17968.5547-.2422.5-.30077.42968-.17188.17969-.1836.15234-.19921.125-.20703.08984-.21875.0586-.23047.01953-.22656-.01953-.21875-.0586-.21094-.08984-.19531-.125-.1836-.15234-.17187-.1797-.30078-.42968-.24219-.5-.17969-.55469-.11328-.58593-.03906-.59375h.83594l.02734.5664.08203.5039.125.44142.16406.375.19141.30078.20703.22265.22266.13672.22656.04688.22656-.04688.22266-.13672.21094-.22265.1914-.30079.16406-.375.125-.4414.08204-.5039.02734-.56641-.02734-.5586-.08203-.5-.125-.4375-.16407-.36328-.1914-.29297-.21094-.21484-.22266-.13281-.22656-.04297-.22656.04297-.22266.1328-.20703.21485-.1914.29297-.16407.36328-.125.4375-.08203.5-.02734.5586h-.83594l.03906-.58985.11328-.57812.17969-.54688.24219-.49219.30078-.42187.17187-.17578.1836-.14844.19531-.1211.21094-.08984.21875-.05468.22656-.01954m5.09375 0h.50781v6.29688h-.78515v-4.49219h-1.39063v-.55469l.5625-.0664.25-.05078.23047-.08985.20313-.14453.17578-.20703.14062-.29687.10547-.39454m2.82422 2.17579h.78516l.01953-.31641.05859-.28516.10156-.2539.14063-.21485.17969-.17578.22265-.1289.26563-.07813.30859-.02734.23828.01953.22266.0625.20312.10156.17969.14063.14844.17187.11328.20703.07422.23438.02344.26562-.02344.26953-.0625.22266-.11328.1914-.15235.17188-.20312.16406-.2461.16407-.6328.39062-.53907.3125-.4375.3164-.34766.32423-.26172.33593-.1914.35157-.125.37109-.07031.39063-.01954.42187h4.21094v-.74219h-3.33203l.08594-.28515.11328-.23438.14844-.20312.1875-.1797.23047-.17187.27734-.17578.71875-.41797.41406-.20312.34375-.23047.28125-.2539.21875-.26563.16406-.27735.11328-.28515.0625-.28516.01954-.28125-.03907-.38281-.12109-.34766-.1914-.30859-.25-.26172-.30079-.21484-.34765-.15625-.37891-.09766-.40625-.03515-.4336.03125-.39843.10156-.35547.16406-.30469.23438-.25.30468-.1836.375-.11718.44531-.03906.51954"/><path fill="#ffffe0" fill-rule="evenodd" d="M177.52344 437.58984h22.1836v-10.1914h-22.1836v10.1914"/><path fill-rule="evenodd" d="M181.02344 429.23047h.51172v6.29297h-.78907v-4.48828h-1.38672v-.5547l.5586-.0664.25-.05469.23047-.08984.20312-.14062.17578-.20704.14063-.29687.10547-.39453m4.8125 0l.23047.01953.21875.05469.20703.08984.19922.1211.18359.14843.17188.17578.30078.42188.24218.49219.1797.54687.11327.57813.03906.58984-.03906.59375-.11328.58594-.17969.55469-.24218.5-.30078.42968-.17188.17969-.1836.15234-.19921.1211-.20703.09375-.21875.0586-.23047.01952-.22656-.01953-.21875-.0586-.21094-.09374-.19531-.1211-.1836-.15234-.17187-.17969-.30078-.42969-.2422-.5-.17968-.55468-.11328-.58594-.03906-.59375h.83593l.02735.5625.08203.50781.125.4414.16406.375.1914.30079.21095.22266.22265.13671.22266.04688.22656-.04688.22266-.13671.21093-.22266.19141-.30078.16406-.375.125-.4414.08203-.50782.02735-.5625-.02735-.5586-.08203-.5-.125-.4375-.16406-.36718-.1914-.28906-.21094-.21485-.22266-.13281-.22656-.04297-.22266.04297-.22266.13281-.21093.21485-.1914.28906-.16407.36719-.125.4375-.08203.5-.02735.55859h-.83593l.03906-.58984.11328-.57813.17969-.54687.24219-.4922.30078-.42187.17187-.17578.1836-.14844.1953-.12109.21095-.08984.21875-.05469.22656-.01953m5.09375 0h.50781v6.29297h-.78516v-4.48828h-1.39062v-.5547l.5625-.0664.25-.05469.23047-.08984.20312-.14062.17578-.20704.14063-.29687.10547-.39453m2.82422 2.17578h.78515l.01953-.3164.0586-.28516.10156-.2539.14063-.21485.17968-.17578.22266-.12891.26562-.07813.3086-.02734.23828.01953.22266.0625.20312.10156.17969.14063.14844.17188.11328.20703.07422.23437.02343.26563-.02344.26953-.0625.22265-.11328.19141-.15234.17188-.20313.16406-.24609.16406-.63281.39063-.53906.3125-.4375.3164-.34766.32422-.26172.33594-.1914.35156-.125.36719-.06641.39453-.02344.41797h4.21094v-.73828h-3.33203l.08594-.28516.11328-.23828.14843-.19922.1875-.17969.23047-.17187.27735-.17578.71875-.41797.41406-.20313.34375-.23047.28125-.2539.21875-.26563.16406-.27734.11328-.28516.0625-.28515.01953-.28125-.03906-.38282-.1211-.34765-.1914-.3086-.25-.26171-.30078-.21485-.34766-.15625-.3789-.09765-.40625-.03516-.4336.03125-.39843.10156-.35547.16406-.30469.23438-.25.30469-.1836.375-.11718.4453-.03906.51954"/></g></defs><use xlink:href="#X"/></svg>