<svg xmlns="http://www.w3.org/2000/svg" role="img" xmlns:xlink="http://www.w3.org/1999/xlink" viewBox="142.45 309.95 326.84 171.84"><defs><clipPath id="a"><path d="M144 311.67188h1v168.65625h-1zm0 0"/></clipPath><clipPath id="b"><path d="M144 311.67188h324v168.65625H144zm0 0"/></clipPath><clipPath id="c"><path d="M467 311.67188h1v168.65625h-1zm0 0"/></clipPath><clipPath id="d"><path d="M144 478h4v2.32813h-4zm0 0"/></clipPath><clipPath id="e"><path d="M153 479h9v1.32813h-9zm0 0"/></clipPath><clipPath id="f"><path d="M167 478h7v2.32813h-7zm0 0"/></clipPath><clipPath id="g"><path d="M180 478h8v2.32813h-8zm0 0"/></clipPath><clipPath id="h"><path d="M194 477h7v3.32813h-7zm0 0"/></clipPath><clipPath id="i"><path d="M209 476h3v4.32813h-3zm0 0"/></clipPath><clipPath id="j"><path d="M223 476h2v4.32813h-2zm0 0"/></clipPath><clipPath id="k"><path d="M236 476h3v4.32813h-3zm0 0"/></clipPath><clipPath id="l"><path d="M248 476h5v4.32813h-5zm0 0"/></clipPath><clipPath id="m"><path d="M260 478h8v2.32813h-8zm0 0"/></clipPath><clipPath id="n"><path d="M273 479h8v1.32813h-8zm0 0"/></clipPath><clipPath id="o"><path d="M279 479h2v1.32813h-2zm0 0"/></clipPath><clipPath id="p"><path d="M288 476h5v4.32813h-5zm0 0"/></clipPath><clipPath id="q"><path d="M303 476h2v4.32813h-2zm0 0"/></clipPath><clipPath id="r"><path d="M315 476h4v4.32813h-4zm0 0"/></clipPath><clipPath id="s"><path d="M327 477h6v3.32813h-6zm0 0"/></clipPath><clipPath id="t"><path d="M342 476h4v4.32813h-4zm0 0"/></clipPath><clipPath id="u"><path d="M355 477h5v3.32813h-5zm0 0"/></clipPath><clipPath id="v"><path d="M368 476h4v4.32813h-4zm0 0"/></clipPath><clipPath id="w"><path d="M381 477h6v3.32813h-6zm0 0"/></clipPath><clipPath id="x"><path d="M393 479h8v1.32813h-8zm0 0"/></clipPath><clipPath id="y"><path d="M393 478h2v2.32813h-2zm0 0"/></clipPath><clipPath id="z"><path d="M407 477h6v3.32813h-6zm0 0"/></clipPath><clipPath id="A"><path d="M421 477h5v3.32813h-5zm0 0"/></clipPath><clipPath id="B"><path d="M433 478h8v2.32813h-8zm0 0"/></clipPath><clipPath id="C"><path d="M439 480h1v.32813h-1zm0 0"/></clipPath><clipPath id="D"><path d="M446 479h8v1.32813h-8zm0 0"/></clipPath><clipPath id="E"><path d="M459 478h9v2.32813h-9zm0 0"/></clipPath><clipPath id="F"><path d="M144 466h4v2h-4zm0 0"/></clipPath><clipPath id="G"><path d="M144 453h4v2h-4zm0 0"/></clipPath><clipPath id="H"><path d="M144 438h4v4h-4zm0 0"/></clipPath><clipPath id="I"><path d="M144 424h4v6h-4zm0 0"/></clipPath><clipPath id="J"><path d="M144 411h3v6h-3zm0 0"/></clipPath><clipPath id="K"><path d="M144 397h3v7h-3zm0 0"/></clipPath><clipPath id="L"><path d="M144 383h3v8h-3zm0 0"/></clipPath><clipPath id="M"><path d="M144 370h2v8h-2zm0 0"/></clipPath><clipPath id="N"><path d="M144 368h2v3h-2zm0 0"/></clipPath><clipPath id="O"><path d="M144 356h1v9h-1zm0 0"/></clipPath><clipPath id="P"><path d="M144 355h2v3h-2zm0 0"/></clipPath><clipPath id="Q"><path d="M466 359h2v3h-2zm0 0"/></clipPath><clipPath id="R"><path d="M144 344h3v7h-3zm0 0"/></clipPath><clipPath id="S"><path d="M466 345h2v3h-2zm0 0"/></clipPath><clipPath id="T"><path d="M465 345h3v3h-3zm0 0"/></clipPath><clipPath id="U"><path d="M144 330h2v8h-2zm0 0"/></clipPath><clipPath id="V"><path d="M466 331h2v3h-2zm0 0"/></clipPath><clipPath id="W"><path d="M465 332h3v3h-3zm0 0"/></clipPath><clipPath id="X"><path d="M144 316h1v9h-1zm0 0"/></clipPath><clipPath id="Y"><path d="M466 318h2v3h-2zm0 0"/></clipPath><clipPath id="Z"><path d="M465 319h3v2h-3zm0 0"/></clipPath><g id="aa" clip-path="url(#clip1)"><path fill="#fff" fill-opacity="0" fill-rule="evenodd" d="M0 0h1000v1000H0zm0 0"/><path fill="#d3d3d3" fill-opacity="0" fill-rule="evenodd" d="M162.15234 355.86719l-.23437.29297.0586.23437.11718.17188.17578.23437.29297.34766.11328.0586.11719-.17188.0586-.23438.17577-.17578.46485-.17578h.69922l.23437.29297.28906.8164.0586.17579.17578.23046.35156.23438.69922.69922.17188.17578.23437.34765.23438.41016.28906.58203.41015.46485.23047.23437.23438.17578.11719.23047.17578.29297.17187 1.16406v.23438l.0586.28906.05859.11719.11719.11719.34765.41015.11719.17188.17578.17578.17578.23437.11719.17188.17188.35156.05859.23438.23437.40625.23438-.0586-.17578.17578-.0586.92969h-.58203l-.23437-.11328-.34766.11328-.11719.11719-.05859.29297-.0586.17578-.11718.17187-.46484.29297-.0586.23438-.0586.11328v.64453l.0586.17187v.41016l.0586.0586v.40624l.05859.40625.11719.17579.05859.05859.23047.64062-.0586.29297v.69922l-.05859.58203v.23438l-.0586.23047-.05468.35156v1.92187l.05469.1172h.42578l-.36719.11718-.02344.35156.89063 1.16797 1.74219.53906 1.33984.35938v.53906l.08984.8086.53516.71484 1.51953.26953.89063-.08594.08984 1.16406.53516.1797 1.16015-.1797 2.05469-.98437 1.16016-.36328 1.8789-.17578 1.69531-.1797-.17968.71876-1.51563.08594-1.25.08984-.80469.26953-1.07421.8086.26953.71875.53515.89843-.17968.625-.26563.8086.26563 1.07812.625.89844.80468.17969 1.25-.1797-.26562.72267.09766.5039.05468.29297v.17188l.0586.29296v.40625l.17578.1172.35156.11718h.40625l.29297-.17578.11328-.11719.0586-.11719.11718-.23047.0586-.17578.35156-.46484.23047-.17578.17578-.0586.17578.0586.0586.17578.11718.98828.05469.46875.0586.17188.11718.23437.17578.0586.8164.05859h.28907l.11719.23437.05859.40625.0586.35156v1.10547l.11718.29297.11719.34766.28906.69922.17578.35156.58203.7539.35157.17579.17187.0586.46875.23437.64063.46484.34765.23438.29297.17578.29297.05468.23047.0625.8164.34766.29297.17578.11328.17188.35157.35156.11719.17578.52343.64063v.28906l.0586.35156v.34766l.05859.35156.0586.28906.11718.0586.17188.05859h.17578l.58203.23437.17578.1172.17578.28905.17578.23438.11328.23437.29297.23047.11719.11719v.41016l.0586.05468.28906.23438.23437.11719.0586.11718.11718.17188.0586.11719.23047.23437.05859.17578.23437.0586.1172.05859-.1172.11328-.05859.11719v.11719l-.11719.29296-.11719.28907v.58203l.17579.11719.11718.05859.0586.11719.11719.11719.11328.05859.17578.34765.0586.35157.05858.40625v.17578l-.05859.17578-.11719.69922v.17187l.1172.17579.29296.29296h.40625l.17578.1172.11719.17187.11719.29296v.23438h-.52735l-.23047-.23438h-.23437l-.17578.0586-.0586.69922.0586.34765.11719.17579.17578.41015.11718.23047.28907.46875.17578.05469h.52344l.23437.0586.75781.64062.0586.29296v.23438l.05859.0586.23047.34765v.35156l-.11719.17188v.29297l.29297.28906.29297.17578.17187.0586.29297.17577.29297.1172.58203.40624.28906.23438.29297.17578.21875.16015.01563.01172.23047.17579.64062.52343.17578.23438.1172.17578.17577.17578.11328.17188v.64062l.1172.17578.46874.11719.58203.11719.23438.05859.23047.11328.29297.11719.11328.0586.58593.35156.28907.17187.17578.0625.17578.05469.17578.0586.69922.35155.28906.17579.23438.05468.28906.17578.23437.1172.64063.40624.29297.11719.17187.0586.23438.05859.41015.05859.23047.0586.23438.11718.0586.17188-.41017.17578.46875.0586.0586.29296.11328.23438.17578.05468.23438.0586.17578.05859.40625.11719.64062.23437.11719.17188.0586.23437v.17578l-.0586.1172-.0586.40624.23438.23438.11719.05859.34766.11719.64062.23047.17578.11718.28906.1172.17578.17577.23438.46485.58203 1.10546.17578.17579.34766.17578.17578.11719.35156.11718 1.04688.52344.23437.0586.46485.11327.29297.0586.46484.17578.75781.58203.23438.23438.34765.46484.17578.17578.28907.23438.8164.69921.29297.17579.28906.28906.29297.17578.29297.28906.69531.64063.17578.17578.29297.23437.28907.23438.46875.28906.64062.58203.34766.23438.23437.29297.34766.34765.35156.46485.9336.99218.34765.40625.11719.17579.23437.05859.11328.11719.64454.17578.23047.11328.23437.0586.29297.17577.23047.1172.9336.69921.40624.40625.23438.17578.40625.17578.23437.11719.8164.34766.34766.23437.23438.11719.29297.28906.23047.11719.7578.35156.35157.17188.23047.05859.29297.11719.23437.0586.8711.17577h.8164l.46875.23047.17188.0586.875.69921.46484.1172.29297.05858.17578.0586.23047.0586.46875.05859.34766.05859.35156.0586.40625.05859h.29297l.17187.0586v.23046l.17578.17578h.29297l.34766.0586.35156.05859.69922.11719h.64063l.46484-.23438.29297-.17578.17187-.11719.41016-.17187.28906-.17578.9336-.46485.46875-.29297.52343-.29296.46485-.17188.46484-.17578 1.05078-.46485.28906-.11718.41016-.11719.28906-.11719.52735-.17578 1.51562-.69922.58203-.34765.28907-.0586.29297-.0586.34765-.11718.875-.23047.35156-.11719h.11329l.23437-.05859.875-.23437.23438-.0586h.8125l.35156-.0586.8164-.11718.17188-.0586.35156-.05468.29297-.0586.23047-.05859.8164-.17578.17579-.0586h.34765l.23438-.05859.46484-.11718.75781-.17188.23438-.0586h.34765l.41016-.11718.28906-.0586 1.28516-.05859h.28906l.41016-.0586.23047-.05858h.17578l.875-.1172h.40625l.41015-.11718h.34766l.35156-.11328.8711-.0586h1.75l1.04687.28907.41016.11719.28906.11718.35156.11719.28907.11719 1.05078.17187.28906.0586h.29297l.29297.05859.17187.0586.41016.05859.17187.0586.1172.05858h.11718l.11719.0586.35156.0586h.11328l.41016.0664 1.92187.39453 1.92578.39453 1.51953.44922 1.69532.71875 2.14453.80469 1.60547-.71875 1.42968-.80469 1.16016-1.07813 1.25-.44921 3.03516-.71875 1.875-.35938 2.14453-1.34765 2.23437-1.25391 2.5-1.25781 1.69531-.44922 1.78516-.17969 1.16016-.26953.625.53906 1.33984-.26953.71485-.98828.98437-1.34375.44531-.17969.80469-.35937 1.875-.53907 1.78516-.44921 1.25-.26954 1.16015-.08984 1.69922-.08984 1.96094-.26954 1.25-.08984h.53906l.625-.08984h.89063l2.14453-.17969 2.41015-.17969 2.58985-.08984 1.69531.17969 1.60938.08984 1.42968.35938 1.16016.71875 1.875.98828 1.16015 1.52734.26563.71484.6289.08985.35548.89844.53515.53906.53516 1.52734 1.07422.35938h.53515l-.80469.53515.08985 1.70703.71484 2.69532.89063.80468.89453.98829.71484 1.2578 1.78516.53907 1.51953-.17969.35547 1.34375 1.60937-.80469.98047-.53906.26953.26953.31641-.21484.21875-.14453.80078.44922.44922-.35938h.35547l.53515-.26953.53907-.71875.53515-.26953.625-.98828 1.16016.44922.83984.3711 1.39454.61718 1.6953-.17969h1.60548l1.78515.08985.17969-1.70704.53516-1.34375.80468.26954.4922.84765.40233.40625-.08984.53906v.35938l.71485.44922.71093-.26953h1.42969l.35938.98828.4453 1.25781.71485 1.34375 1.25.6289 1.69531.62891.71485-.17969.17969-.53906.98046-.08984.44922.35937.08594 1.25782-.26563.6289-.53515.17969v.53906l.71484.98438.26563.53906.98437.98828.80078 1.07813-.26562.35937-.08985.89844-.625 2.33203-.35546 2.0664-.08985 1.79298-.17969.71875-.08984.53906v1.4375l-.98047 1.88281-.35937 1.70703-.53516.89844-.80469 1.16797-.26562.53906 2.05469 1.2539.08593.35938-.35546.53906-.08985-.17968v.80859l.08985 1.4375-.44532.71484-1.07422.09375-.26562.71485.53515.89844.8047.71875 1.16015.80859 1.33984.26953.44531.35938-.35546.44921-1.78907-.08984-1.25-.44922-.71484-.71875-.625-.08984-.17578 3.58984-.1875 1.3086h89.35937V311.70313h-55.26953v49.08203l.76172.125 3.28906.54296 2.02344 2.83594v2.7539l2.35156.33204 2.34766.33203h4.05078l-1.3789 4.16016-2.02344.70703-2.02344.70312-.54297.34375-2.59375 1.6172-.1875.11718-2.02344-2.07813-.73046-2.74218-2.67188-2.07813-1.375-3.5-.0664-.08203-1.95704-2.67188 2.75-1.41796v-49.08204H294.42187v91.41407l.1172.03125.1328.01172.07422.07421.10547.04688.08985.0586.08593.05859.08985.0586.29687.29687.0586.08984.03125.11719.02734.11719.01563.13671-.03125.1172-.0586.08983-.0586.08594-.04296.10547-.04688.10156-.02734.1211v.14453l.17578.26953.14844.14844.07422.08594.07422.07421.04296.10547.0625.08985.0586.08593.04297.10547.0586.08985.04687.10156.04296.10547.0586.08594.11719.17968.07421.07422.0625.08594.0586.08984.04297.10547.0586.08985.05858.08593.0625.08985.0586.08984.04297.10156.11719.17969.07421.07422.0586.08594.07422.07421.08984.0586.10547.04687h.14844l.1328-.01562.13282.01562.10156-.04687.07422-.07422.04688-.10156-.01563-.13281v-.14844l-.04687-.10547-.02735-.11719-.04687-.10156-.02735-.1211-.04296-.10156-.0625-.08984-.04297-.10156-.04297-.10547-.03125-.11719-.01563-.13281-.01171-.13672.08593-.0586.0586-.08593.12109-.03125.04297.10547.01562.1328v.1172l.0586.10156.0586.08984.08983.0586.14844.14843.0586.08985.04296.10547-.01171.10156.08593.0586.10547.04687.08594.0586.08984.05858.07422.07422-.11719.02735-.10546.04687-.08594.0586-.07422.07421-.0586.08985-.0625.08594-.02734.12109-.04687.10156-.04297.10547-.03125.11719-.01172.13281-.01563.13281v.14844l.02735.11719.04687.10547.04297.10156.0586.08984.07421.07422.08985.0586.07422.07421.08984.0586.0586.08984.04296.10547.04688.10156.11719.03125.1328.01563h.14845l.11718-.03125.10547.04297.04297.10547.04688.10156.02734.1211L299.5 410l.02734.11719.03125.1211.02735.11718.10547.04297.10156.04687.13281-.01562.14844.14844.0625.08593.07422.07422.07031.07422.08984.0625.10547.04297.10156.04297.1172.03125.13671.01562.11719-.03125.07422-.07422.02734-.11718-.01172-.13282-.03125-.12109-.02734-.11719.04297-.10547h.11719l.08984.0625.11719.02735h.14843l.13282.01562h.14843l.13282.01563.1328-.01563h.14845l.1328-.01562.13282-.01172.13672.01172.11719-.02735.13281-.01562.1914-.0586-.05859.17579-.01562.1328-.02735.1211-.01562.13281-.0586.08594-.1328.01563-.10548.04687-.10546.04297-.1172.03125-.11718.02735-.26563.03125h-.14843l-.13281.01562-.07422.07422.05859.08594.14844.14843.11719.1797.07421.0703.08985.0625.08984.0586.08594.0586.08984.05858.10156.04297.10547.0625.10547.04297.08594.0586.10547.04687.10156.04297.17969.11719.0586.08984-.04298.10156-.04687.10547.01562.13281.22266.22266.0586.08985.04296.10156.03125.1211.04297.10155.01563.13282.03125.11718.01171.13672.03125.11719.14844.14844.10156.04297.10547.04296.1172.03125.1328.01563.13672.01563h.11719l.11719-.03125.08984-.0586.04297-.10547.04688-.10156.04296-.10547.03125-.11719.01172-.1328v-.14845l-.01172-.1328-.01562-.13282-.03125-.11719-.04297-.10547-.04688-.10547-.04296-.10156-.04297-.10547-.01563-.13281.01563-.13281.02734-.11719.03125-.11719.02735-.1211.04687-.10155.08984-.0586.08594-.0625.07422-.07422.08984-.05859.22266-.22266.0586-.08593.07421-.07422.11719-.17969.0586-.08594v-.14844l-.07423-.07421-.10156-.04688-.10547-.04297-.10156-.04297-.0586-.08984-.04687-.10547-.02734-.11719.08984-.05859.11719-.03125.10156-.04297.17969-.11719.14844-.14843.01172-.13282-.01172-.10546-.08985-.0586-.1328.01563h-.14845l-.1328.01562-.13282-.01562-.1211-.03125-.08593-.0586-.07422-.07422-.0586-.08984-.0625-.08594-.11718-.17969-.0586-.08593.03125-.1211.08594-.05859.1211-.03125.05859-.08594v-.1211l-.03125-.11718-.0586-.08984-.05859-.08594-.04687-.10547-.02735-.11719-.01562-.1328.0586-.08985.07421-.07422.08984-.0586.1172-.17968.07421-.07422.0586-.08594.14843-.14844.1211-.03125.1328-.01562.13282.01562.07422.07422.04297.10547.01562.13281-.03125.1172-.11719.03124-.1328.01172-.14844.14844-.04297.10547-.04688.10156-.02734.1211-.03125.11718v.14844l.03125.11719.04297.10546.05859.08985.07422.07031.07422.07422.11719.03125.12109.02734.11719-.02734.1328-.01563h.1172l.08984.0586.07422.07422.04687.10546.0586.08594.10156.04688.13281.01562.10547.04297.08594.0586-.01172.10546-.07422.07422-.17969.11719-.05859.08984-.08984.0586-.07032.07422-.07421.07421-.0625.08985-.02735.11719-.01562.1328.01562.13282-.01562.13281v.14844l.01562.13281.02735.1172.03125.12108.07421.07422.08985.0586.08594.0586.08984.05858.11719.03125v.08594l-.10157.04688-.08984.0586-.26563.03124-.11718.02735h-.14844l-.10547.04296-.10156.04688-.0586.08984-.0625.23438-.01171.13281-.03125.1211-.01563.1328v.29298l-.01172.1328.01172.13673.01563.1328.1328.01563.13282.01172.1211.03125.08593.0586.07422.07421.04688.10547.04296.10157.01563.1328v.44532l-.01563.13281v.44532l.03125.26562.02735.11719.01562.13281.03125.11719.08594.21094.03125.26562v.14844l-.03125.11719-.02734.11718-.03125.1211-.02735.11719-.03125.11718-.03125.1211-.01171.1328-.01563.13282.08984.0586.1172-.03125.10155.01562.04688.10547-.03125.26562v.44141l-.04297.10547-.04688.10547-.04296.10156-.04297.10547-.0586.08594-.03125.12109-.04296.11719-.03125.11719-.01563.1328.01563.13282.05859.08984.10547.04688.08594.0586.05859.08593-.01172.13672-.03125.11719-.04297.10156v.44531l-.01562.13281v.14844l-.03125.11719-.04297.10547-.02735.11719-.04687.10546-.04297.10157-.03125.12109-.02734.11719-.03125.13281-.03125.11719-.02735.11719-.04297.10546-.03125.1172-.03125.12108-.01171.13282-.01563.13281v.29688l.02734.11718v.14844l.04688.39844.02734.11719.0586.08984.12109.03125h.14844l.13281-.01563.0586.08985v.11719l-.0586.08984-.08984.0586-.10157.04296-.10546.04688-.08985.05859-.08594.0586-.13671.01562-.1172-.03125-.1328-.01563-.10157.04688-.0625.08594-.01172.13671-.01562.13282-.03125.11719-.02735.11718-.01562.13281-.03125.1211v.29687l.01563.13282.03125.11718v.14844l.01171.13281v.14844l-.02734.11719-.04688.10156-.02734.1211-.03125.11718-.0586.08985-.07421.07421-.10156.04297-.10547.04688-.11719.02734-.1211.03125-.10156-.04687.0586-.08594.10547-.04688.02734-.11718.03125-.11719.02734-.1211.03125-.11718v-.14844l.01563-.13281-.03125-.11719-.04297-.10547-.10547.01563-.07422.07422-.10156.04296-.08984.0625-.07422.07422-.04297.10157-.01563.1328-.03125.1172L304.25 426l-.03125.11719-.02734.11719-.03125.12109-.02735.11719-.03125.11718-.04297.10547-.08984.0586h-.08984l-.1172-.03125-.03124-.08594.01562-.13672-.03125-.11719v-.14844l-.01171-.1328v-.14844l-.0625-.23438-.02735-.1211-.04297-.10156-.04687-.10546-.0586-.08594-.05859-.08985-.04297-.10546-.0625-.08594-.14844-.14844-.0703-.07422-.10548-.04687-.10547-.04297-.10156-.04297-.29687-.29688-.08985-.07421-.08594-.0586-.10546-.04297-.08985-.0625-.08594-.0586-.10546-.04296-.08985-.0586-.08594-.0625-.07421-.0703-.10547-.04688-.08594-.0586-.10547-.04296-.08984-.0625-.10156-.04297-.10547-.04297-.08594-.0586-.10547-.04687-.10547-.04297-.10156-.04687-.08985-.0586-.10156-.04297-.10547-.04296-.08984-.0625-.11719-.02735-.13281-.01562-.13281.01562H299.75l-.13281.01563-.11719-.03125-.08984-.0586-.07422-.07422-.08985-.05859-.10156-.04688h-.14844l-.12109-.02734-.10156-.04297-.07422-.07422-.11719-.17968-.08984-.0586-.10156-.04297-.08985-.0625-.10547-.04296-.08984-.0586-.08594-.0586-.10547-.04687-.0586-.08594-.05858-.08984-.04297-.10547-.04688-.10156-.07422-.07422-.08594-.0586-.07421-.07421-.08985-.0586-.22265-.22265-.04297-.10547-.03125-.26563.10547-.04296h.14453l.10547.04296.07421.07422.08985.0586.08594.0586.10546.04687.08985.05859.14844.14844.0703.07422.14845.14843.0625.08594.07421.07422.08594.0586.07422.07421.08985.0625.08984.0586.08594.05859.26953.17578.10156.04688.10547.04296.10156.04297.04688-.07421.05859-.08594.07422-.07422.07031-.07422.10547.04297.07422.07422.0586.08984.04296.10156.04688.10547.04296.10547.1211.02735.11719-.02735.07421-.08984.04297-.10547.0586-.08985.07422-.07421.10546-.04297.1172-.02735.1328.01172.08985.0586.14844.14843.05859.08985.04297.10547.04687.10156.04297.10547.04297.10156.10547.04688.10547.04296.13281.01563.08594-.0586.0586-.08984.07421-.07422.10547-.04297.11719.02735.10547.04687.10156.04297.10547.04297.10156.04688.17969.11718v.11719l-.01563.13281.01563.13281.01562.13672.0586.08594.10156.04688.1211.02734.11718.03125h.14844l.11719-.03125.05859-.08984.17969-.1172.05859-.08983.07422-.07422.0586-.08594.11718-.17969.17969-.11719.11719.03125.08984.0586.04297.07422-.01563.1328v.1172l.08985.05859h.14843l.13282-.01563.1328-.01171.26563-.03125.10547-.04297.11719-.03125.1211-.02735.07421-.07421.07031-.07422.0625-.08985-.01562-.10547-.04688-.10156-.10156-.04297-.10547-.01562-.11718.02734-.26563.03125h-.14844l-.07421-.07422-.08985-.0586-.11719-.03124-.11718-.02735-.13282-.01562h-.14843l-.13282.01563h-.29687l-.10547-.04688-.14844-.14844-.04297-.10156-.05859-.08984.22266-.22266.08593-.0586.10547-.04296.11719-.03125.13281-.01563.13281.01563.13672.01562.10157.04297.1328-.01172.08985-.0625.10156-.04297.0625-.08984-.04687-.10156-.08984-.0586-.1172-.03125-.10155-.04296-.0586-.08985-.0625-.08984v-.11719l.01563-.13281.10547-.04688.07421-.07031v-.1211l-.08984-.05859-.03125-.11719.08985-.05859.07421-.07422.04297-.10547.0586-.08984.04687-.10156.01563-.13281v-.14844l-.04688-.10547-.04297-.10156-.08984-.0586-.13281-.01562-.10157-.04297-.13671-.01563-.1172-.03125h-.4453l-.13282-.01562-.13281-.01172-.13281-.01563-.11719-.03125h-.14844l-.13281-.01562-.13281-.01172-.26563-.03125-.1211-.04297-.08593-.0586-.07422-.07421v-.14844l.01172-.13281.10547-.04688.10156-.04296.13281-.01563h.15235l.13281-.01562h.29297l.1211.03125.10156.04296.08984.0586.23438.0625.12109-.04688.08984-.05859.10156-.04297.13282-.01562.10547.04296.10156.04688.13281.01172.1211-.02735h.14453l.12109-.03125.11719-.02734.10547-.04687.07421-.07422.08594-.0586.14844-.14843.0586-.08594.04687-.10547.02734-.11719.01563-.10547-.10156-.04296-.08985-.0586-.11719-.03125-.10546-.04297-.08985-.0625-.07422-.08594-.07422-.07421-.10156-.04297-.10547-.04688-.10156-.04297-.0586-.08984-.04687-.10156-.08594-.21094-.0625-.08594-.05859-.08984-.07422-.07422-.08594-.0586h-.26953l-.11719.03126-.08984.05859-.10156.04297-.13281.01562-.10547-.01562-.02735-.11719-.0625-.08984-.11718-.03125-.10157-.04297-.14843-.14844-.03125-.11719-.01563-.10546.07422-.07422.17969-.1172.11719-.02733.11718-.03125.13672.01562.10156.04297.10547.04297.10156.04687.10547.04297.1172.03125.1328.01563.1172.02734.1328.01563.10547-.01563.08985-.0586-.07422-.07421-.10547-.04297-.07422-.07422-.07422-.08984-.14844-.14844-.08593-.0586-.08985-.05859-.07422-.07422-.08984-.0586-.10156-.04687-.1211-.02734-.10156-.04688-.10547-.04296-.11719-.03125-.10156-.04297-.1211-.03125h-.14843l-.11719.03125-.10546.04297-.08594.0625-.17969.11718-.08594.0586-.08984.0586-.10547.04687-.08594.05859-.10547.04297-.10156.04297-.10547.04687-.07422.07422-.05859.08985-.0586.08593-.04687.10547-.0586.08594-.07421.07422-.13281-.01172-.1172-.03125h-.11718l-.07422.07422-.08984.0586-.07422.07421-.08984.0586-.08594.05859-.10547.04687-.10156.04297-.13672.01563-.10156-.04297-.14844-.14844-.10547-.04688h-.08594l-.10547.04688-.10156.04297-.1211.03125-.11718-.03125-.07422-.07422v-.11719l.03125-.1211.07422-.0703.0586-.08985.07421-.07422.11719-.03125.10547-.04296h.29297l.13281-.01563.13672-.01563.10156-.04296.08985-.0586.10156-.04687.08984-.0586.13281-.01171.08985.05859.13281.01172.08984-.0586.08594-.05859.10547-.04297.08984-.0586.08594-.0625.08985-.05859.14843-.14843.0586-.08594.05859-.08985.10547-.04296.13281-.01563.11719.02735.1211.03125.05859-.0586.05859-.08984.03125-.26563.02734-.11719.10547.01172.13281.01563.10157-.04297.08984-.0586.0586-.08984.07421-.07422.0586-.08984.04687-.10156.01172-.13281-.01172-.13282-.04687-.10547-.14844-.14843-.0586-.08985-.05859-.08594-.04297-.10546v-.44532l.01563-.1328v-.14845l.01172-.1328-.0586-.0586-.08984.0586-.10156-.04298-.17969-.11719-.08594-.05859-.0625-.08984-.0586-.08985-.07421-.07421-.08594-.0586-.1211.03125-.10155.01172-.10547.04688-.08594.05859-.10547.04297-.14844.14844-.08984.05859-.08594.0586-.08984.0625-.10547.04296-.13281.01563v-.1211l.10547-.04297.11718-.03125.07422-.0703.04297-.10548v-.14844l-.02734-.11718-.14844-.14844-.13281-.01563h-.14844l-.11719.03125-.10547.04297-.10156.04297-.08984.0625-.11719.02735-.07422-.07422.01172-.13281-.04297-.10157-.04297-.10547-.08984-.05859-.11719.02734-.1211.03125-.11718.03125-.10156.04297-.1211.03125-.10156.04297-.10547.04297-.08984.0586-.10156.01562v-.11719l.01562-.13281-.0586-.08985-.07421.04297-.14844.14844-.0586.08985-.07421.07421-.04688.10547-.04296.10156-.07422.07422-.0586.08985-.07422.07422-.05859.08593-.07422.07422-.08984.0625-.07422.07031-.07422.07422-.10156.01563-.13281.01562-.10547-.04296v-.1211l.14843-.14844.04297-.10156.0586-.08984.04687-.10156.04297-.10547.0586-.08985.03124-.11719.04297-.10156.03125-.1211.02735-.11718.04687-.10547.04297-.10156.04297-.10547.07422-.07031.08984-.0625.08985-.0586.10156-.04296h.29687l.26563-.03125.10547-.04297-.07422-.07422-.11719-.03125-.10547-.04297-.08984-.0586-.10156-.04687-.08985-.0586-.10156-.04296-.10547-.04297-.08984-.0625-.08594-.0586-.10547-.04296-.10156-.04297-.1211-.03125-.11718-.03125-.10157-.04297L297.5 410.25l-.10156-.04297-.08985-.0586-.04296-.10546-.01563-.13281.10156-.04297.13281-.01563.13672.01563.13282-.01563.10156-.04297.0586-.08984.01562-.10547-.08985-.0586-.07421-.07421-.10157-.04297-.08984-.0586-.14844-.14843-.04297-.10547-.01562-.13281v-.29297l-.0586-.08985-.08984-.05859-.07422-.07422-.04297-.10547-.03125-.11718-.0586-.08985-.07421-.07422-.11719-.02734-.07422-.07422-.08984-.0586-.08984-.0625-.08594-.05859-.07422-.07421-.0586-.08594-.04687-.10547-.08594-.0586-.14843-.14843-.19532-.0586-.1328.01563-.10157.04297-.07422.07422-.04688.10156-.04296.10547-.0586.08984-.0586.08594-.29687.29687-.08984.0586h-.08594l-.0625-.08594-.04297-.10547.03125-.11719.0586-.08984.02734-.11719-.01172-.13281-.08984-.0625-.10547.04688-.11719.02734-.11719.03125-.26953.17578-.10156.04688-.11719.02734-.10546.04687-.08985.0586-.10156.04297-.0586-.08594-.04687-.10547.01563-.13281.04687-.10547.07031-.07422.07422-.07031.0586-.08985v-.14843l-.04297-.10547h-.23829l-.10156.04687-.03125.11719-.02734.11719-.03125.1211-.07422.04296-.13281.01563-.07422-.04688-.04297-.10156-.04297-.10547-.04687-.10156-.04297-.10547-.1211.03125-.10156.04297-.13281.01562-.11719.03125-.10547.04297-.08984.0586-.10156.04687-.1211.02734-.13281.01563-.10156-.04297-.0586-.08985-.04687-.10546-.04297-.10157-.04297-.10546v-.1172l.0586-.08984.08593-.05859.17969-.11719.10156-.04687.10547-.04297.10547-.0586.10156-.04296.08985-.0625.10156-.04297.10547-.0586.10156-.04687.08984-.0586.10547-.04296.10156-.04297.08985-.0625.10156-.04297.13672-.01563.11719.03125.10156.04297.1211.03125.10156.04297.10546.04688.10157.04296.10547.04297.10156.04688.10547.04297.10156.04297.10547.04687.08594.0586.10546.04296.1172.03125.10546.04297.10156.04688.08985.0586.10547.04296.10156.04297.10547.04687.11719.02735.10156.04687.1211.02735h.14843l.08594-.0586.01562-.10156.0586-.08984-.02735-.1172-.07422-.07421-.11719-.17969-.07421-.07422-.08985-.07421-.17969-.1172-.08593-.05859-.10547-.04296-.10156-.04688-.26954-.17578-.05859-.08985-.07422-.07421-.0586-.08985-.04296-.10156-.03125-.11719-.01563-.13672v-.5625l-.01171-.1328-.01563-.13282-.03125-.11719-.01562-.13281-.01172-.13281-.03125-.1211-.22266-.22265-.0586-.08594-.01562-.10547.03125-.11719.13281-.01562v-91.41406H172.9922v1.45312l-.0586.23438-.35156 1.05078-.17187.52343-.1172.34766-.17577.41016-.11719.17187-.23438.29297-.23046.0586h-.35157l-.11718.05859-.23047.40625v.29297l.11719.17578.23046.23047.1172.23437.64062.75781.29297.46485.17578.23437.23047.35156.23437.34766.64063.8164.17578.46485.17187.41016.11719.69531.17578.46875.11719 1.39844.0586.46484v.875l.11718 1.04688v4.78125l-.0586.46484-.35156 1.28125-.17578.52344-.11328.41015-.35156.9297L172.93359 336l-.23437.58203-.11719.17578-.17187.34766-.17578.40625-.35157.8164-.0586.29297-.11327.29297-.11719.28906-.0586.17579-.11718.875-.0586.40625-.05859.11718-.0586.17579-.05859.17187-.23047.52734-.11718.17188v.23437l-.11719.23438-.0586.17187-.17577.58594v.28906l-.0586.17579v.29296l-.0586.11329-.05859.52734v.17187l-.05468.23438v2.6211l-.17578.8164-.1172.17578-.17577.23438-.1172.17187-.11327.23438-.58594.93359-.23047.28906-.29297.46485-.17578.23437-.28906.35156-.35156.69922-.11328.23047-.17579.41016-.17578.23046-.40625.52735-.8164.69922-.29297.17187-.28906.23438-.17579.11719-.17578.17578-.52344.40625-.52734.17578-.17187.17578-.23438.05469-.64062.17578h-.75782m12.21094 31.02344l-1.07422.44921.35938.89454 1.25-.71485.44531-.53906-.98047-.08985"/><path fill="#d3d3d3" fill-opacity="0" fill-rule="evenodd" d="M201.50781 416.59766h-.89453l.44922.6289.98047.35938.80469-.08985.4453-.98828-.17577.08985-.71485-.35547-.89453.35547m154.6211 59.0703l-.0586-.52343v-.29297l.11328-.29297.0586-.23046.46875-.46875h.11328l.11719-.11329.11718-.05859h.17579l.23437-.0586h.34766l.23437.0586.11719.0586.23047.17187.0586.17578.11718.58203v.29297l-.11719.17578-.17187.28906-.17579.17579-.52734.52343-.23047.23438-.11719.0586h-.17578l-.11718-.0586-.40625-.29297-.17579-.11719-.11718-.0586-.0586-.11327-.05468-.1172m6.64062-10.95702l-.0586-.17188v-1.10937l.0586-.17188.17578-.0586.17188-.05858h.17578l.23437-.0586.1172.0586.05858.69921-.05859.17188-.11719.17578-.11718.0586-.23438.52343-.11328.0586h-.23438l-.05859-.1172m9.61328-14.39062l-.11719-.17578v-.69922l.29297-.875.1172-.17187.17577-.35156.11328-.23047.1172-.29297.35155-.75781.1172-.23047.17187-.23438h.17578l.11719-.0586h.64062l.11719.0586.23437.23438.17188.11328.35156.29297.11719.11718.11328.17579v.11328l.11719.05859.11718.11719v.69922l-.05859.17578v.23047l-.0586.17578-.34765 1.05078-.11719.23047-.11719.23437-.11718.0586-.23047.23437-.64063.28906h-.875l-.41015-.11718-.64063-.46485"/><path fill="none" stroke="#bebebe" stroke-linecap="round" stroke-linejoin="round" stroke-miterlimit="10" stroke-width=".5" d="M467.95703 311.69531H144.02734v168.625h323.9297v-168.625"/><g clip-path="url(#a)"><path fill="#fff" fill-opacity="0" fill-rule="evenodd" d="M144 475.89063v4.4375h.0039H144V311.67188h.0039H144v164.21875"/></g><g clip-path="url(#b)"><path fill="#fff" fill-opacity="0" fill-rule="evenodd" d="M144.0039 480.32813V311.67188h84.32423v95.80468l-4.4375.11719-1.57032 1.72266-2.86719 2.80468-1.12109 1.63282 1.1211 1.09765 1.84765 3.33985 2.58984 3.15625v2.26562l-4.4375 1.83203-1.80859 1.625-1.875 4.4375 1.21875 4.4375 2.42969 4.4375.03516.03906 4.4375 1.3672 1.35546-1.40626 2.21485-4.4375.51562-4.4375-1.05078-4.4375-3.03516-3.45703v-2.26562l4.4375.53125 3.78907-3.6875.64844-1.5547v6.875l-3.48829 3.5586 3.48828 3.47266 4.44141-.60156 3.6289-2.8711-3.6289-2.71094-4.4414-.84765v-6.875l2.55078-2.88281-2.55078-3.00391-2.21094-1.4336-2.22656-1.83984v-95.80469h48.82421v99.32422l-2.83984 2.75782 2.83984 2.67187 3.92188-2.67187-3.92188-2.75782v-99.32421h71.01172v148.6875l-2.38281 2.21484 2.38281 1.82031 2.33985-1.82031-2.33985-2.21485v-148.6875h66.57422v127.1172l-4.02344 1.59374-.41406.51172-2.55078 3.92578 2.55078 2.07813v3.96484l-2.40625 2.83594-1.80078 4.4375-.23047 1.25781-2.63672 3.17969-1.14062 4.4414-.55469 4.4375 4.33203 3.58594 2.08203.85156 2.35547 1.70313 4.4375 1.53516 4.4414.66406 4.4375.0625 4.4375-.58203 4.4375-2.38672 1.38673-.9961-1.38672-2.22656-.27344-2.21094.26172-4.4375.01172-.17187 4.4375-.53906.75.71094 1.33984 4.4375 2.35156 2.3203 2.33985-2.3203.95312-4.4375 1-4.44141.14453-1.76953.73829-2.66797-.73829-.7539-4.4375-3.2461-4.4414 1.52344-2.48828 2.47656-1.94922 3.97265-2.08594-3.97265-2.10156-4.4375-.25-.19922-2.48438.19922-1.95312.03906-.5-.03906-3.9375-.99219-4.4414-.51562-4.4375-1.32813v-3.96484l2.10155-2.07813 2.33594-2.0664 1.59375-2.3711-1.59375-1.59375V311.67187h53.25781v168.65625H144.00391"/></g><path fill="#50fcfc" fill-rule="evenodd" d="M216.98828 435.94531l-1.21875-4.4375 1.875-4.4375 1.8086-1.625 4.4375-1.83203v2.6289l-1.48438.82813-2.95313 1.09766-2.41015 3.33984 2.41016 4.07422 1.76953.36328 2.66797 1.17188.72265-1.17188 2.39453-4.4375-2.39062-4.4375-.72656-.82812v-2.6289l3.03515 3.45702 1.05078 4.4375-.51562 4.4375-2.21485 4.4375-1.35547 1.40625-4.4375-1.36719-.03515-.03906-2.42969-4.4375"/><path fill="#00e8fc" fill-rule="evenodd" d="M219.45313 435.58203l-2.41016-4.07422 2.41016-3.33984 2.95312-1.09766 1.48438-.82812v2.88672l-4.4375 1.97656-.29297.40234.29297.49219 4.4375 1.83594 1.5078-2.32813-1.5078-2.3789v-2.88672l.72656.82812 2.39062 4.4375-2.39453 4.4375-.72266 1.17188-2.66796-1.17188-1.76953-.36328"/><path fill="#50fcfc" fill-rule="evenodd" d="M219.45313 414.85156l-1.1211-1.09765 1.1211-1.63282 2.86718-2.80468 1.57031-1.72266 4.4375-.11719v3.26172l-2.90234 3.01563-1.33984 4.4375 4.24219 2.3789 2.4414-2.3789 1.64063-4.4375-4.08203-3.01563v-3.26172l2.22656 1.83985 2.21094 1.43359 2.55078 3.0039-2.55078 2.88282-.64844 1.55469-3.78906 3.6875-4.4375-.53125-2.58985-3.15625-1.84766-3.33985"/><path fill="#00d4fc" fill-rule="evenodd" d="M219.45313 432l-.29297-.49219.29297-.40234 4.4375-1.97656 1.5078 2.3789-1.5078 2.32813L219.45313 432"/><path fill="#00e8fc" fill-rule="evenodd" d="M228.32813 420.57031l-4.2422-2.3789 1.33985-4.4375 2.90234-3.01563v6.3789l-.34375 1.07423.34375.1914.19922-.1914-.19922-1.07422v-6.3789l4.08204 3.01562-1.64063 4.4375-2.4414 2.3789"/><path fill="#00d4fc" fill-rule="evenodd" d="M228.32813 418.38281l-.34375-.1914.34375-1.07422.19921 1.07422-.19922.1914"/><path fill="#50fcfc" fill-rule="evenodd" d="M232.76563 430.54297l-3.48829-3.47266 3.48828-3.5586v1.58985l-1.92968 1.96875 1.92969 1.91797 4.4414-1.80078.14844-.11719-.14844-.11328-4.4414-1.85547v-1.58984l4.4414.84765 3.6289 2.71094-3.6289 2.8711-4.4414.60156"/><path fill="#00e8fc" fill-rule="evenodd" d="M232.76563 428.98828l-1.9297-1.91797 1.9297-1.96875 4.4414 1.85547.14844.11328-.14844.11719-4.4414 1.80078"/><path fill="#50fcfc" fill-rule="evenodd" d="M277.15234 416.42578l-2.83984-2.67187 2.83984-2.75782 3.92188 2.75782-3.92188 2.67187m71.01172 47.96875l-2.38281-1.82031 2.38281-2.21485 2.33985 2.21485-2.33985 1.82031m57.69922 10.64453l-4.33203-3.58594.55469-4.4375 1.14062-4.4414 2.63672-3.17969.23047-1.25781 1.80078-4.4375 2.40625-2.83594v3.13281l-3.57812 4.14063-.79688 4.4375-.0625.14062-2.54687 4.30079 1.07812 4.4375 1.46875 1.21484 4.4375 2.36719 1.89063.85546 2.54687 1.44141 4.4414 1.5664 4.4375.17188 4.4375-1.39453 2.57813-1.78515.16406-4.4375-2.36328-4.4375 1.60547-4.44141-1.98437-3.23828-.64063-1.19922-3.79687-2.73828-4.4375-.63672-4.4414-.71875-4.4375-.04688v-3.1328l4.4375 1.32812 4.4414.51562 3.9375.99219.5.03906 1.95312-.03906 2.48438-.19922.25.19922 2.10156 4.4375 2.08594 3.97265 1.94922-3.97265 2.48828-2.47656 4.4414-1.52344v.96484l-4.19921 3.03516-.2422.79297-2.09374 3.64453 2.09375 1.6875 2.89453 2.7539 1.54687 3.23047 1.37891-3.23046 1.27734-4.44141.82032-4.4375-3.47657-3.03516v-.96484l4.4375 3.2461.73829.7539-.73829 2.66797-.14453 1.76953-1 4.4414-.95312 4.4375-2.33985 2.32032-2.35156-2.32031-1.33984-4.4375-.75-.71094-4.4375.53906-.01172.17188-.26172 4.4375.27344 2.21093 1.38672 2.22656-1.38672.9961-4.4375 2.38672-4.4375.58203-4.4375-.0625-4.4414-.66406-4.4375-1.53516-2.35548-1.70313-2.08203-.85156"/><path fill="#00e8fc" fill-rule="evenodd" d="M404.39453 471.45313l-1.07812-4.4375 2.54687-4.30079.0625-.14062.79688-4.4375 3.57812-4.14063 4.4375.04688v.8164l-4.4375.34766-2.53515 2.92969-.32032 4.4375-1.58203 3.59765-.5.84375.5 1.15235 2.60156 3.28515 1.83594 1.17579 4.4375 2.59765 1.5039.66406 2.9375 1.51172 4.4375.36329 3.60938-1.875.82813-3.01954.36719-1.41796-.3672-.625-4.4375-2.33985-.30077-1.47265.30078-.82813 2.89844-3.61328-2.89844-4.39063-.08985-.04687-4.34765-1.1875-4.4414-2.08985v-.8164l4.4414.71875 4.4375.63672 3.79687 2.73828.64063 1.19922 1.98437 3.23828-1.60547 4.4414 2.36329 4.4375-.16407 4.4375-2.57812 1.78516-4.4375 1.39453-4.4375-.17187-4.4414-1.5664-2.54688-1.44142-1.89063-.85546-4.4375-2.3672-1.46875-1.21483"/><path fill="#00d4fc" fill-rule="evenodd" d="M405.86328 468.16797l-.5-1.15235.5-.84375 1.58203-3.59765.32031-4.4375 2.53516-2.92969 4.4375-.34765v.8164l-4.4375.73828-1.48828 1.72266.15234 4.4375-1.78125 4.4414 3.1172 3.44922.92187.98829 3.51562 2.49218 4.40235 1.94531.03906.01954 4.4375.54687 1.09375-.5664-1.09375-2.01563-.92969-2.42188-.64063-4.4375 1.57032-4.3125.10156-.1289-.10156-.15625-4.4375-3.46485-.58594-.8164-3.85547-2.46094v-.8164l4.4414 2.08984 4.34766 1.1875.08985.04687 2.89844 4.39063-2.89844 3.61328-.30078.82813.30078 1.47265 4.4375 2.33985.36719.625-.3672 1.41796-.82812 3.01954-3.60937 1.875-4.4375-.36329-2.9375-1.51171-1.5039-.66407-4.4375-2.59765-1.83595-1.17579-2.60156-3.28515"/><path fill="#00c4fc" fill-rule="evenodd" d="M410.30078 470.46484l-3.11719-3.44921 1.78125-4.44141-.15234-4.4375 1.48828-1.72266 4.4375-.73828v.8164l-4.4375 1.13282-.44531.51172.44531 3.45312.11719.98438-.11719.59375-1.375 3.84765 1.375 1.51954 2.73047 2.91796 1.70703 1.21094 4.4414.98828 1.72657-2.19921-.1289-4.4375.69921-4.44141-2.29687-1.84375-1.86328-2.59375-2.57813-1.64453v-.8164l3.85547 2.46093.58594.8164 4.4375 3.46485.10156.15625-.10156.1289-1.57031 4.3125.64062 4.4375.92969 2.42188 1.09375 2.01563-1.09375.5664-4.4375-.54687-.03906-.01954-4.40235-1.9453-3.51562-2.4922-.92188-.98828"/><path fill="#50fcfc" fill-rule="evenodd" d="M410.30078 446.89844L407.75 444.8203l2.55078-3.92578.41406-.51172 4.02344-1.59375 1.59375 1.59375-1.59375 2.3711-2.33594 2.0664-2.10156 2.07813"/><path fill="#00b8fc" fill-rule="evenodd" d="M410.30078 468.53516l-1.375-1.51954 1.375-3.84765.11719-.59375-.11719-.98438-.44531-3.45312.44531-.51172 4.4375-1.13281v.8164l-2.83203.82813-.51953 4.4375.04297 4.4414 3.3086 4.08594 4.4414-.11719.32812-3.96875-.25-4.4414-.07812-.0625-3.14453-4.375-1.29688-.82813v-.8164l2.57813 1.64453 1.86328 2.59375 2.29687 1.84375-.69922 4.4414.12891 4.4375-1.72656 2.19922-4.4414-.98828-1.70704-1.21094-2.73047-2.91796"/><path fill="#00a8fc" fill-rule="evenodd" d="M411.42969 467.01563l-.04297-4.44141.51953-4.4375 2.83203-.82813v.81641l-.03906.01172-2.34375 4.4375 2.38281 3.84375 3.1914-3.84375-3.17187-4.4375-.01953-.01172v-.8164l1.29688.82812 3.14453 4.375.07812.0625.25 4.4414-.32812 3.96875-4.4414.1172-3.3086-4.08594"/><path fill="#009800" fill-rule="evenodd" d="M414.73828 466.41797l-2.38281-3.84375 2.34375-4.4375.03906-.01172v1.80078l-1.41015 2.64844 1.41015 2.28125 1.89453-2.28125-1.89453-2.64844V458.125l.01953.01172 3.17188 4.4375-3.1914 3.84375"/><path fill="#00ac00" fill-rule="evenodd" d="M414.73828 464.85547l-1.41015-2.28125 1.41015-2.64844v1.8164l-.4414.83204.4414.71875.59375-.71875-.59375-.83203v-1.8164l1.89453 2.64843-1.89453 2.28125"/><path fill="#00c800" fill-rule="evenodd" d="M414.73828 463.29297l-.4414-.71875.4414-.83203.59375.83203-.59375.71875"/><path fill="#00e8fc" fill-rule="evenodd" d="M436.92969 464.26172l-2.09375-1.6875 2.09375-3.64453.24219-.79297 4.19921-3.03516v1.60938l-1.97265 1.42578 1.97265 4.3164 1.63282-4.3164-1.63282-1.42578v-1.60938l3.47657 3.03516-.82032 4.4375-1.27734 4.4414-1.3789 3.23047-1.54688-3.23046-2.89453-2.75391"/><path fill="#00d4fc" fill-rule="evenodd" d="M441.3711 462.45313l-1.97266-4.31641 1.97265-1.42578 1.63282 1.42578-1.63282 4.3164"/><g clip-path="url(#c)"><path fill="#fff" fill-opacity="0" fill-rule="evenodd" d="M467.9961 480.32813H468V311.67188h-.0039H468v168.65625h-.0039"/></g><g clip-path="url(#d)"><path fill="none" stroke="#000" stroke-linecap="round" stroke-linejoin="round" stroke-miterlimit="10" stroke-width=".5" d="M147.16797 478.8086l-6.33594 3.03906"/></g><g clip-path="url(#e)"><path fill="none" stroke="#000" stroke-linecap="round" stroke-linejoin="round" stroke-miterlimit="10" stroke-width=".5" d="M160.8086 480.70313l-6.98829-.75"/></g><g clip-path="url(#f)"><path fill="none" stroke="#000" stroke-linecap="round" stroke-linejoin="round" stroke-miterlimit="10" stroke-width=".5" d="M173.4961 482.35938l-5.73438-4.0625"/></g><g clip-path="url(#g)"><path fill="none" stroke="#000" stroke-linecap="round" stroke-linejoin="round" stroke-miterlimit="10" stroke-width=".5" d="M187.19922 481.65234l-6.50781-2.64843"/></g><g clip-path="url(#h)"><path fill="none" stroke="#000" stroke-linecap="round" stroke-linejoin="round" stroke-miterlimit="10" stroke-width=".5" d="M200.03516 482.48438l-5.55078-4.3125"/></g><g clip-path="url(#i)"><path fill="none" stroke="#000" stroke-linecap="round" stroke-linejoin="round" stroke-miterlimit="10" stroke-width=".5" d="M211.63672 483.67969l-2.1211-6.69922"/></g><g clip-path="url(#j)"><path fill="none" stroke="#000" stroke-linecap="round" stroke-linejoin="round" stroke-miterlimit="10" stroke-width=".5" d="M223.89063 483.84375v-7.02734"/></g><g clip-path="url(#k)"><path fill="none" stroke="#000" stroke-linecap="round" stroke-linejoin="round" stroke-miterlimit="10" stroke-width=".5" d="M238.04688 483.73828l-1.6836-6.82031"/></g><g clip-path="url(#l)"><path fill="none" stroke="#000" stroke-linecap="round" stroke-linejoin="round" stroke-miterlimit="10" stroke-width=".5" d="M251.8164 483.59375l-2.59374-6.53125"/></g><g clip-path="url(#m)"><path fill="none" stroke="#000" stroke-linecap="round" stroke-linejoin="round" stroke-miterlimit="10" stroke-width=".5" d="M266.83594 482.15234l-6.0039-3.64843"/></g><g clip-path="url(#n)"><path fill="none" stroke="#000" stroke-linecap="round" stroke-linejoin="round" stroke-miterlimit="10" stroke-width=".5" d="M280.54688 479.4336l-6.79297 1.78906"/></g><g clip-path="url(#o)"><path fill="none" stroke="#000" stroke-linecap="round" stroke-linejoin="round" stroke-miterlimit="10" stroke-width=".5" d="M279.5586 479.69531l.83593.89844"/></g><g clip-path="url(#p)"><path fill="none" stroke="#000" stroke-linecap="round" stroke-linejoin="round" stroke-miterlimit="10" stroke-width=".5" d="M291.97266 477.15234l-3.01172 6.35157"/></g><g clip-path="url(#q)"><path fill="none" stroke="#000" stroke-linecap="round" stroke-linejoin="round" stroke-miterlimit="10" stroke-width=".5" d="M304.13672 476.83203l-.71094 6.99219"/></g><path fill="none" stroke="#000" stroke-linecap="round" stroke-linejoin="round" stroke-miterlimit="10" stroke-width=".5" d="M304.03125 477.85156l1.13672-.46484"/><g clip-path="url(#r)"><path fill="none" stroke="#000" stroke-linecap="round" stroke-linejoin="round" stroke-miterlimit="10" stroke-width=".5" d="M318.58594 477.14453l-2.97656 6.36719"/></g><path fill="none" stroke="#000" stroke-linecap="round" stroke-linejoin="round" stroke-miterlimit="10" stroke-width=".5" d="M318.15234 478.07031l1.22266-.0625"/><g clip-path="url(#s)"><path fill="none" stroke="#000" stroke-linecap="round" stroke-linejoin="round" stroke-miterlimit="10" stroke-width=".5" d="M332.57422 477.5625l-4.32813 5.53516"/></g><path fill="none" stroke="#000" stroke-linecap="round" stroke-linejoin="round" stroke-miterlimit="10" stroke-width=".5" d="M331.94531 478.36719l1.20703.21094"/><g clip-path="url(#t)"><path fill="none" stroke="#000" stroke-linecap="round" stroke-linejoin="round" stroke-miterlimit="10" stroke-width=".5" d="M345.05469 477.07813l-2.65625 6.5039"/></g><path fill="none" stroke="#000" stroke-linecap="round" stroke-linejoin="round" stroke-miterlimit="10" stroke-width=".5" d="M344.66797 478.02344l1.22265-.125"/><g clip-path="url(#u)"><path fill="none" stroke="#000" stroke-linecap="round" stroke-linejoin="round" stroke-miterlimit="10" stroke-width=".5" d="M358.77344 477.26953l-3.46485 6.11719"/></g><path fill="none" stroke="#000" stroke-linecap="round" stroke-linejoin="round" stroke-miterlimit="10" stroke-width=".5" d="M358.26953 478.16016l1.22656.03125"/><g clip-path="url(#v)"><path fill="none" stroke="#000" stroke-linecap="round" stroke-linejoin="round" stroke-miterlimit="10" stroke-width=".5" d="M371.6289 477.05469l-2.54687 6.55078"/></g><path fill="none" stroke="#000" stroke-linecap="round" stroke-linejoin="round" stroke-miterlimit="10" stroke-width=".5" d="M371.25781 478.00781l1.21875-.14453"/><g clip-path="url(#w)"><path fill="none" stroke="#000" stroke-linecap="round" stroke-linejoin="round" stroke-miterlimit="10" stroke-width=".5" d="M381.45313 477.60547l4.4375 5.44922"/></g><path fill="none" stroke="#000" stroke-linecap="round" stroke-linejoin="round" stroke-miterlimit="10" stroke-width=".5" d="M382.09766 478.39844l.47656-1.13281"/><g clip-path="url(#x)"><path fill="none" stroke="#000" stroke-linecap="round" stroke-linejoin="round" stroke-miterlimit="10" stroke-width=".5" d="M393.48438 480.03516l7.0039.58984"/></g><g clip-path="url(#y)"><path fill="none" stroke="#000" stroke-linecap="round" stroke-linejoin="round" stroke-miterlimit="10" stroke-width=".5" d="M394.5039 480.1211l-.48437-1.12891"/></g><g clip-path="url(#z)"><path fill="none" stroke="#000" stroke-linecap="round" stroke-linejoin="round" stroke-miterlimit="10" stroke-width=".5" d="M408.07813 477.60938l4.44921 5.4375"/></g><g clip-path="url(#A)"><path fill="none" stroke="#000" stroke-linecap="round" stroke-linejoin="round" stroke-miterlimit="10" stroke-width=".5" d="M425.52344 477.3789l-3.8164 5.89844"/></g><path fill="none" stroke="#000" stroke-linecap="round" stroke-linejoin="round" stroke-miterlimit="10" stroke-width=".5" d="M424.96875 478.23828l1.22266.10156"/><g clip-path="url(#B)"><path fill="none" stroke="#000" stroke-linecap="round" stroke-linejoin="round" stroke-miterlimit="10" stroke-width=".5" d="M440.25 481.48828l-6.63672-2.32031"/></g><g clip-path="url(#C)"><path fill="none" stroke="#000" stroke-linecap="round" stroke-linejoin="round" stroke-miterlimit="10" stroke-width=".5" d="M439.28516 481.15234l.18359 1.21094"/></g><g clip-path="url(#D)"><path fill="none" stroke="#000" stroke-linecap="round" stroke-linejoin="round" stroke-miterlimit="10" stroke-width=".5" d="M453.61719 481.32031l-6.74219-1.98437"/></g><g clip-path="url(#E)"><path fill="none" stroke="#000" stroke-linecap="round" stroke-linejoin="round" stroke-miterlimit="10" stroke-width=".5" d="M466.89844 481.4336l-6.67188-2.21094"/></g><g clip-path="url(#F)"><path fill="none" stroke="#000" stroke-linecap="round" stroke-linejoin="round" stroke-miterlimit="10" stroke-width=".5" d="M147.51172 466.85938l-7.02344.30859"/></g><path fill="none" stroke="#000" stroke-linecap="round" stroke-linejoin="round" stroke-miterlimit="10" stroke-width=".5" d="M146.48828 466.90234l.625 1.0586m13.71484-1.05469l-7.02343.21484m6-.18359l.60937 1.0664m13.66797-1.64452l-6.90234 1.30859m5.89844-1.11719l.76562.95703m13.60938-.66015l-7.01563.33203m5.9961-.28125l.625 1.05468m13.59765-1.83593l-6.79297 1.79297m5.80469-1.53125l.83594.89843m13.55468-.73437l-6.96484.9414m5.94922-.80468l.71484 1m13.64453-.6211l-7.02343-.08984m6.0039.07812l.5586 1.08985m13.0664.9961l-5.60547-4.23829m4.78907 3.6211L239 469.72655m13.91797-.14453l-4.79297-5.13672m4.09375 4.39063l-.39844 1.16015m15.08985-1.27734l-6.14844-3.41016m5.2539 2.91407l-.02343 1.22656m14.60547-3.10938l-6.89453 1.34766m5.89453-1.15234l.76953.95312m12.53906-3.0039l-4.8789 5.05859m4.16796-4.32031l1.17969.33593m12.83203-1.08593l-4.85156 5.08203m4.14453-4.34375l1.1836.33203m12.57421-1.30078l-4.32422 5.54297m3.69532-4.73438l1.20703.21094m11.9414-1.48438l-2.73437 6.47266m2.33984-5.53125l1.21875-.10938m11.97266-1.0039l-1.69531 6.8164m1.44922-5.82421l1.1914-.29688m9.70703-.29687l3.6289 6.01953m-3.10155-5.14453l.6328-1.05079m10.45704 3.16407l7.02734.04297m6.50391-1.23438l6.59375 2.42578m-5.63672-2.07422l-.16406-1.21484m12.88672 4.01172l5.86328-3.8711m-5.01172 3.3086l-1.07812-.58594M407.5 469.13281l5.60156-4.23828m-4.78515 3.6211L407.20313 468m19.91796-.73438l-7.0078-.5039m7.0078.5039l.9922 2.2422m11.1875-5.08985l-4.73829 5.1914m4.05078-4.43359l1.1875.30469m13.58594 3.10937l-6.28125-3.15234m6.28125 3.15234l.05469 2.45313m12.74609-1.69531l-5.25-4.66797m5.25 4.66797l-.57812 2.38671"/><g clip-path="url(#G)"><path fill="none" stroke="#000" stroke-linecap="round" stroke-linejoin="round" stroke-miterlimit="10" stroke-width=".5" d="M147.49219 454.08594l-6.98438-.77344"/></g><path fill="none" stroke="#000" stroke-linecap="round" stroke-linejoin="round" stroke-miterlimit="10" stroke-width=".5" d="M146.47656 453.97266l.45313 1.14062m13.76172-.44531l-6.75391-1.9414m5.77344 1.66015l.2539 1.19922m14.11328-1.21875l-6.89843-1.33594m5.89453 1.14063l.35937 1.17187m13.98438-1.10547l-6.94531-1.07812m5.93359.92187l.40234 1.15625m13.92188-.98437l-6.9375-1.11328m5.92578.95312l.39844 1.16016m13.97265-1.51563l-7.02734-.08203m7.02734.08203l1.125 2.17969m12.1836-2.42188l-7.01563.40235m7.01563-.40235l1.27344 2.09766m-2.29297-2.03906l.63672 1.05078m13.70312-.99219l-7.02734.16797m7.02734-.16797l1.20313 2.14063M253.375 455.75l-5.70703-4.10156m4.875 3.5039l-.16406 1.21485m14.91406-2.04688l-6.91406-1.24218m5.91015 1.0625l.375 1.16796m13.98828-1.88671l-7.0039.55078m5.98437-.46875l.66016 1.03515m13.42578-2.16797l-6.50781 2.65235m6.50781-2.65235l1.88672 1.57422m11.4375-1.55078L300.51953 455m6.52344-2.60547l1.875 1.58594m11.34375-1.80469l-6.33203 3.04688m6.33203-3.04688l1.97656 1.45313m11.0625-1.9297l-5.77734 4m5.77734-4l2.17969 1.125m-3.01953-.54296l1.08984.5625m12.84766-1.42969l-5.34375 4.5664m5.34375-4.5664l2.28125.89844m10.78906-1.15234l-4.85547 5.07812m4.14844-4.33984l1.1836.33203m8.33984-1.3711l4.14062 5.67579m-3.53906-4.84766l.53515-1.10547m11.20704 1.35938l6.08593 3.51562m-6.08593-3.51562l.08593-2.45313m12.76172 4.32813l7.01953-.23828m-7.01953.23828l-1.22656-2.125m16.6211 5.21484l2.86327-6.41797m-2.86328 6.41797l-2.44921.16797m19.10156-.42578l-3.8164-5.89844m3.8164 5.89844l-1.1914 2.14453m15.85546-6.41016l-6.51172 2.63282m6.51172-2.63282l1.88281 1.57422m-2.82812-1.1914l.9375.78906m12.84375 2.29687l-5.55469-4.30469m4.7461 3.6797l-.20704 1.20702m13.66016.07813l-4.21094-5.625m3.59766 4.80469l-.52344 1.11328"/><g clip-path="url(#H)"><path fill="none" stroke="#000" stroke-linecap="round" stroke-linejoin="round" stroke-miterlimit="10" stroke-width=".5" d="M147.26953 439.09375l-6.53906 2.58203"/></g><path fill="none" stroke="#000" stroke-linecap="round" stroke-linejoin="round" stroke-miterlimit="10" stroke-width=".5" d="M146.3164 439.46875l.9336.79688m13.28516 1.52343l-6.44141-2.8086m5.5039 2.39845l.09766 1.22265m14.00781-.51172l-6.14453-3.41015m5.25 2.91406l-.02343 1.22656m14.63672-1.9336l-6.95313-1.0039m5.9414.85547l.41798 1.15625m13.9414-1.30469l-7.01562-.41406m5.99218.35547l.51172 1.11328m13.82813-1.4336l-7.01953.34766m7.01953-.34765l1.25781 2.10547m12.04688-2.22657l-7 .58594m7-.58594l1.32812 2.0625m11.92578-2.49609l-6.875 1.45703m6.875-1.45703l1.57422 1.8789m11.76563-1.73828l-6.9297 1.17188m6.9297-1.17188l1.49609 1.94141m-2.5039-1.76953l.75.96875m13.60937-.84766l-7 .58594m7-.58594l1.32812 2.0625m11.9336-2.44922l-6.89453 1.35938m6.89453-1.35938l1.55078 1.90625m11.82031-1.5078l-7.0039.5664m7.0039-.5664l1.32031 2.0664m-2.33984-1.98438l.66016 1.03125m13.2539-2.51562l-6.16406 3.36719m6.16406-3.3672l2.05078 1.34766m10.32422-2.4453l-4.28515 5.5664m4.28515-5.5664l2.42188.41015m11.76562.57031l-6.03125 3.60156m6.03125-3.60156l2.10156 1.26953m-2.97656-.7461l1.05078.63673m13.28516-.89453l-6.32031 3.07421m6.3203-3.07421l1.98048 1.4414m-2.90235-.9961l.9922.72266m13.03905-1.53515l-5.91015 3.80469m5.91015-3.8047l2.14063 1.19923m10.2539-2.16016l-4.0703 5.72656m4.0703-5.72656l2.4336.3164m6.19922.23829l5.29687 4.61719m-4.52734-3.94532l.27734-1.1953m11.83594 1.14062l6.16016 3.3828m-6.16016-3.3828l.03516-2.45313m.85937 2.94531l.01953-1.22656m12.08203 1.53125l6.79688 1.79297m-6.79688-1.79297l-.55859-2.39062m18.01172 6.72265l-1.47656-6.8711m1.47656 6.8711l-1.8789 1.57813m17.86718-5.84766l-6.82422 1.66797m5.83203-1.42578l.8164.91406m13.47267.58594l-6.78907-1.8164m5.80078 1.55077l.27735 1.19532m11.8086 1.47265l-2.35157-6.6211m2.35156 6.6211l-1.66015 1.8086"/><g clip-path="url(#I)"><path fill="none" stroke="#000" stroke-linecap="round" stroke-linejoin="round" stroke-miterlimit="10" stroke-width=".5" d="M146.82031 424.97266l-5.64062 4.1953"/></g><path fill="none" stroke="#000" stroke-linecap="round" stroke-linejoin="round" stroke-miterlimit="10" stroke-width=".5" d="M146.82031 424.97266l2.21485 1.04687M146 425.58203l1.10547.52344m13.53906-.15625l-6.66016 2.23828m6.66016-2.23828l1.78516 1.6836m11.6875-.14454l-6.97656-.83984m5.96484.71875l.4414 1.14062m13.89844-1.75781l-7 .63672m5.98047-.54297l.67188 1.02734m13.48437-1.9453l-6.64453 2.28515m6.64453-2.28516l1.79297 1.67188m11.67188-1.07422l-6.94141 1.08984m6.9414-1.08984l1.47266 1.96093m11.8789-1.1914l-7.01562-.44922m5.99219.38281l.50781 1.1211m13.40235-2.97266l-6.16016 3.38672m5.26563-2.89453l1.02343.67187m13.42578-.625l-6.63672 2.3086m6.63672-2.3086l1.80078 1.66797m11.6172-1.30469l-6.84766 1.58203m6.84765-1.58203l1.60938 1.85157m11.79687-1.07422l-7.02734.02734m7.02734-.02734l1.16016 2.16406m11.9336-.92578l-6.58594-2.44922m5.6289 2.09375l.16016 1.21484m13.8086-3.92968l-5.97657 3.6914m5.10547-3.15625l1.0625.6211m12.83594-1.5547l-5.40235 4.48829m5.40235-4.48828l2.27343.92969m11.40625-.40235l-6.13281 3.4336m6.13281-3.4336l2.0625 1.32813m11.3789-1.08203l-6.3828 2.9414m6.3828-2.9414l1.95313 1.48828m10.54688-2.60547l-4.7539 5.17578m4.0625-4.42188l1.1875.3086m10.6328-1.98438l-.3828 7.01953m.32812-5.99609l1.11328-.51562m11.45312-.45704l1.22657 6.91797m-1.22657-6.91797l1.9336-1.51171m11.78906 1.46484l.41016 7.01172m-.41016-7.01172l2.09766-1.27734m-2.03907 2.29687l1.05079-.63672m14.4453 5.98828l-4.0664-5.73047m18.14453 4.9922l-5.59375-4.25391m15.5664 5.59765l1.08985-6.9414m-.92968 5.93359l-1.16016.39844m18.21094-3.91797l-6.70313 2.11328m17.6914 2.30469l-2.05077-6.72266m1.7539 5.74219l-.86718.86719"/><g clip-path="url(#J)"><path fill="none" stroke="#000" stroke-linecap="round" stroke-linejoin="round" stroke-miterlimit="10" stroke-width=".5" d="M146.59766 411.38672l-5.19532 4.73047"/></g><path fill="none" stroke="#000" stroke-linecap="round" stroke-linejoin="round" stroke-miterlimit="10" stroke-width=".5" d="M146.59766 411.38672l2.3125.82812m-3.06641-.13672l2.3086.82422m12.07812-1.10937l-5.83203 3.92187m5.83203-3.92187l2.16406 1.15234m11.5586-.33203l-6.64844 2.27734m6.64844-2.27734l1.79296 1.67969m11.71094-.50781l-7.02344-.06641m7.02344.0664l1.13281 2.1797m12.16016-1.8125l-6.98047-.80079m6.98047.80078l.89844 2.28516m12.3125-1.73828l-6.76953-1.89063m5.78125 1.61328l.26562 1.19922m14.0625-1.01562l-6.82031-1.70313m6.82031 1.70313l.58984 2.38281m11.3711-.38672l-4.11328-5.69922m4.11328 5.69922l-1.08203 2.20313m14.4961-2.27735l-4.3125-5.54687m3.6875 4.73828l-.50392 1.1211m15.64844-4.11329l-6.71875 2.05469m5.74219-1.7539l.86719.86718m12.89453 1.9414l-5.66016-4.16796m5.66016 4.16797l-.35938 2.42968m14.35157-4.30859l-7.01563-.41016m5.9961.35157l.51171 1.11718m8.58203-4.3164l3.46875 6.10937m-2.96484-5.22265l.65625-1.03516m15.29688-.01562l-2.81641 6.4375m2.40625-5.5l1.22266-.09766m11.15625-1.13281l-.1211 7.02343m.10156-6.0039l1.09375-.55469m14.17579.15625l-3.9922 5.78125m3.9922-5.78125l2.4375.28125m10.41015-.55469l-3.0586 6.32813m2.61329-5.40625l1.22656-.05078m7.53906 2.86328l6.9336-1.14063m-5.92578.97266l-.7461-.97266m17.7422-2.72265l-2.44532 6.58593m2.44531-6.58593l2.4336-.32813m-2.78907 1.28516l2.4336-.32422m10.67578-.78906l-1.32813 6.89843m1.32813-6.89843l2.34765-.72266m-2.53906 1.72656l1.17188-.36328m12.33203-.64453l-1.32032 6.90234m1.32032-6.90234l2.34375-.72266m-2.53516 1.72657l1.17188-.35938m11.79687-.70312l-.24219 7.02343m.2422-7.02343l2.20312-1.07813m-2.23829 2.10156l1.10157-.53906m10.3125.01953l3.6289 6.01563m-3.6289-6.01563l1.26172-2.10547m-.73438 2.98047l.6289-1.05468m10.46094 3.19921l7.02735-.02343m-7.02735.02343l-1.16015-2.16406m15.11328.13281l5.75 4.03907"/><g clip-path="url(#K)"><path fill="none" stroke="#000" stroke-linecap="round" stroke-linejoin="round" stroke-miterlimit="10" stroke-width=".5" d="M146.52734 397.9961l-5.05468 4.8828"/></g><path fill="none" stroke="#000" stroke-linecap="round" stroke-linejoin="round" stroke-miterlimit="10" stroke-width=".5" d="M146.52734 397.9961l2.33203.7578m-3.0664-.04687l1.16406.3789m13.39063-.42187l-6.06641 3.54688m6.0664-3.54688l2.08985 1.28906m-2.97266-.77343l1.04297.64453m13.125-1.21485l-6.0039 3.65625m6.0039-3.65625l2.10938 1.25391M187 398.70313l-6.10938 3.46875m5.22266-2.96485l1.03516.66016m12.49219 3.15234l-4.76172-5.16406m4.0703 4.41406l-.40624 1.15625m11.07422.39453l1.91797-6.76172m-1.91797 6.76172l-2.39844.51563m19.72656-2.16406l-6.11328-3.46485m6.11328 3.46485l-.0625 2.45312m13.03906-1.95703l-5.42968-4.46094m5.42969 4.46094l-.48829 2.40625m-.30468-3.05469l-.2422 1.20313m13.47267.21093l-3.67579-5.98828m3.67578 5.98828l-1.24609 2.11329m16.10547-4.15625l-6.76563-1.90235m6.76563 1.90235l.51953 2.39843m12.76563-2.29687l-6.70703-2.10547m6.70703 2.10547l.44922 2.41015m13.02734-3.5l-7.02735.07422m7.02735-.07422l1.17187 2.15235m12.09766-2.66406l-6.9414 1.09765m6.9414-1.09765l1.47656 1.95703m11.88281-1.34375l-7.02734-.12891m6.0039.10938l.5586 1.09375m13.49219-2.53125l-6.45313 2.78125m5.51563-2.375l.95703.76562m13.17578-1.42188l-6.21484 3.28125m6.21484-3.28125l2.03125 1.37891m-2.9336-.89844l2.03126 1.37891m10.07812-3.58594l-1.9961 6.73828m1.9961-6.73828l2.40625-.48828m11.47656.71094l-3.1289 6.29297m3.1289-6.29297l2.45313-.0664m-2.91016.98046l1.22657-.03125m12.30078-.99219l-2.64453 6.51172m2.64453-6.51172l2.4414-.2539m-2.82421 1.19922l1.21875-.125m11.57812-1.0547l-.83984 6.97657m.83984-6.97656l2.28906-.88281m12.5 1.41406l-3.78906 5.91797m3.23828-5.0586l1.22266.09766m12.65234-.95313l-3.80469 5.90625m3.25-5.04687l1.22266.10156m9.28125-1.20312l2.92578 6.39062m-2.92578-6.39062l1.48828-1.94922m-1.0625 2.8789l.7461-.97265m11.7578.25l3.69923 5.97656m-3.69922-5.97656l1.23437-2.11719m-.69922 2.98828l.6211-1.0586m10.67969 2.05079l6.65625 2.25m-5.6875-1.92188l-.19922-1.21093"/><g clip-path="url(#L)"><path fill="none" stroke="#000" stroke-linecap="round" stroke-linejoin="round" stroke-miterlimit="10" stroke-width=".5" d="M146 384.23438l-4 5.77734"/></g><path fill="none" stroke="#000" stroke-linecap="round" stroke-linejoin="round" stroke-miterlimit="10" stroke-width=".5" d="M146 384.23438l2.4375.28906m11.95313.90234l-6.15235 3.39453m6.15234-3.39453l2.0547 1.33985m10.16015-2.54688l-3.95313 5.8086m3.95313-5.8086l2.4414.26563m9.67579-.78516l-1.5586 6.85156m1.5586-6.85156l2.37109-.64453m10.51172.57031l-.6914 6.9961m.6914-6.9961l2.26953-.92969m9.7461 7.8086l1.91015-6.76172m-1.63281 5.77734l-1.19922.26172m17.28516.16406l-4.1875-5.64453m3.57812 4.82422l-.52734 1.10547m12.91406.36328l-1.11328-6.9375m.95312 5.92578l-.98047.74219m15.03125.125l-2.26562-6.65235m1.9375 5.6836l-.83984.89453m16.11328-1.07813l-5.52344-4.34765m5.52344 4.34765l-.4375 2.41407m-.3672-3.04688l-.21874 1.20703m14.67969-1.10156l-6.20703-3.29297m6.20703 3.29297l.0039 2.45313m13.64453-4.83594l-6.87109 1.47265m6.8711-1.47265l1.57812 1.875m11.30469.6836l-6.00782-3.64454m5.13282 3.11328l-.07032 1.22656m14.76563-2.67578l-7.01953.31641m7.01953-.3164l1.25 2.10937m-2.26953-2.0625l.625 1.05469m13.4961-2.16016l-6.58985 2.4375m6.58984-2.4375l1.83203 1.6289m-2.79297-1.27734l.91797.8164m12.92969-1.98437l-5.73437 4.06641m5.73437-4.0664l2.1914 1.10156m-3.02734-.50782l1.09766.55079m12.69922-1.56641l-5.02735 4.91015m5.02735-4.91015l2.33984.7461m-3.07031-.03126l2.33594.7461m12.10156-.98047l-5.8125 3.94922m5.8125-3.94922l2.17187 1.14844m-3.01562-.57422l1.08594.57421m12.01953-2.16015l-3.70703 5.97265m3.70703-5.97265l2.44922.16406m9.8203-.59765l-1.61327 6.83984m1.61328-6.83985l2.375-.62109m-2.60938 1.61719l1.1875-.3125m12.83594-.53516l-2.5586 6.54297m2.1836-5.58984l1.21875-.14453m11.98828-.95704l-1.59375 6.84375m1.59375-6.84375l2.3711-.6328m9.89843.54687l.4961 7.01172m-.4961-7.01172l2.07813-1.30078m-2.00781 2.3203l1.04297-.64843m10.66406.10938l3.57422 6.05078m-3.57422-6.05078l1.27734-2.09375m-.75781 2.97656l.63672-1.05078m17.2461 4.39453l-6.60548-2.40235m5.64453 2.05079l.17188 1.21484"/><g clip-path="url(#M)"><path fill="none" stroke="#000" stroke-linecap="round" stroke-linejoin="round" stroke-miterlimit="10" stroke-width=".5" d="M143.10547 370.41016l1.78906 6.79687"/></g><g clip-path="url(#N)"><path fill="none" stroke="#000" stroke-linecap="round" stroke-linejoin="round" stroke-miterlimit="10" stroke-width=".5" d="M143.10547 370.41016l1.80078-1.66407"/></g><path fill="none" stroke="#000" stroke-linecap="round" stroke-linejoin="round" stroke-miterlimit="10" stroke-width=".5" d="M160.25781 371.88672l-5.88281 3.84375m5.02734-3.28516l1.07422.59375m11.32031-2.54687l-2.33203 6.6289m2.33203-6.6289l2.42579-.36719m11.02734.42188l-2.61328 6.52343m2.61328-6.52344l2.4414-.26562m-2.8203 1.21484l1.21874-.1328m12.3047-.87892l-2.26954 6.64844m2.26953-6.64844l2.42188-.39062m12.10547 1.09766l-4.69141 5.23437m4.00781-4.47265l1.1914.29296m11.6797-1.73437l-2.4375 6.58984m2.4375-6.58984l2.43359-.32813m9.69922 7.13672l-.07422-7.02344m.07422 7.02344l-2.15235 1.17578m18.82813-3.79296l-6.79297-1.79297m5.80469 1.53515l.28125 1.1914m11.6875 1.51954l-2.125-6.69531m2.125 6.69531l-1.71485 1.7539m1.40625-2.72656l-.85937.875m16.84765-2.48437l-6.85546-1.53516m5.85937 1.3125l.32422 1.1836m13.96484-.86329l-6.8125-1.72656m6.8125 1.72656l.58203 2.38282m12.80079-3.78906l-6.94532 1.08593m6.94532-1.08594l1.47265 1.96094m11.64453-2.6914l-6.55078 2.54687m6.55078-2.54687l1.85938 1.60156m-2.8125-1.23047l1.85937 1.60156m12.16797-2.46875l-6.07031 3.53906m6.07031-3.53906l2.08594 1.29297m-2.96875-.77734l2.08594 1.28906m12.13672-1.76563l-6.1172 3.46094m6.1172-3.46094l2.0703 1.32032m-2.96093-.8164l1.03516.66015m13.55078-.14453l-6.8789 1.42187m6.8789-1.42187l1.5664 1.89062m-2.5664-1.6836l.78515.94532m13.52735-1.16406l-6.875 1.44531m6.875-1.44531l1.57422 1.88281m-2.57422-1.67188l.78906.94141m12.88281-2.5625l-5.58593 4.26563m5.58593-4.26563l2.23047 1.01953m-3.04297-.39844l1.11328.51172m12.42579-1.73828l-4.41016 5.47266m4.41016-5.47266l2.41015.46485m-3.05469.33203l1.20704.23047m12.6953-1.07032l-4.29296 5.5625m4.29297-5.5625l2.41797.41016m10.45703-.69922l-3.41406 6.14063m3.41406-6.14063l2.45312.04297m10.47266-.23047l-2.63672 6.51563m2.63672-6.51563l2.4414-.2539M437.8672 371.5l1.21875-.1289m12.65234-.7422l-2.98437 6.35938m2.98437-6.35937l2.45313-.125m12.73437 4.3164l-6.73047-2.02344m6.73047 2.02344l.48047 2.40625"/><g clip-path="url(#O)"><path fill="none" stroke="#000" stroke-linecap="round" stroke-linejoin="round" stroke-miterlimit="10" stroke-width=".5" d="M143.55469 357.00781l.89062 6.96875"/></g><g clip-path="url(#P)"><path fill="none" stroke="#000" stroke-linecap="round" stroke-linejoin="round" stroke-miterlimit="10" stroke-width=".5" d="M143.55469 357.00781l2.0039-1.41797"/></g><path fill="none" stroke="#000" stroke-linecap="round" stroke-linejoin="round" stroke-miterlimit="10" stroke-width=".5" d="M153.91797 359.60156l6.79687 1.78516m-5.80859-1.52735l-.28125-1.1914m16.30078-1.67578l-.59375 7m.59375-7l2.25781-.96485m11.59766 1.0547l-1.67188 6.82421m1.67188-6.82422l2.375-.60547m12.94922 1.95703l-5.6914 4.1211m4.86327-3.52344l1.10157.53906m10.45312-2.58203l-.51562 7.00781m.4414-5.98828l1.125-.49219m11.65625-.51953l.70313 6.9922m-.60156-5.97267l1.01953-.68359m15.33593 1.02735l-5.58203 4.26953m5.58203-4.26954l2.23047 1.01954m11.17188-.90235l-5.75781 4.03125m4.92187-3.4414l1.09375.55468m12.98828 2.98438l-5.61719-4.22656m5.6172 4.22656l-.38282 2.42578m14.26172-3.5586l-6.7461-1.95702m6.7461 1.95703l.5039 2.39843m-1.48437-2.68359l.5039 2.40234m13.85547-2.35546l-6.87109-1.48047m6.8711 1.48046l.66796 2.35938m-1.66797-2.57813l.33204 1.1836m14.01953-2.23047l-6.94922 1.04688m6.94922-1.04688l1.46484 1.97266m-2.47266-1.82032l1.46094 1.97266m-2.47265-1.82031l.73046.98437m14.37891-2.10547l-6.4961 2.6797m6.4961-2.6797l1.89063 1.56641m-2.83594-1.17578l.94531.78125m12.4375-2.42578l-4.73828 5.1875m4.73828-5.1875l2.375.60937m-3.0664.14453l1.1875.3086m12.08593-1.57813l-3.27344 6.21875m3.27344-6.21875l2.45313-.01172m-2.9297.91797l1.22657-.00781m14.4375 2.36719l-7.01953-.3125m7.01953.3125l1.05469 2.21875m12.26172-2.52735l-7.01953.3086m7.01953-.3086l1.2461 2.11329m-2.26954-2.07032l.625 1.0586m13.13672-2.87891l-5.8711 3.85938m5.8711-3.85938l2.15234 1.17578m-3.0039-.61328l1.07422.58984m12.70703-1.64062l-5.09766 4.83594m5.09766-4.83594l2.32812.77734m-3.07031-.07422l1.16406.39063m12.85156-1.13281l-5.01562 4.91796m5.01562-4.91796l2.33985.73828m-3.0664-.02344l1.16796.3711m12.89453-1.06641l-5.05469 4.8789m5.0547-4.8789l2.33202.75781m10.47657-1.1914l-4.04297 5.74609m4.04297-5.7461l2.4375.3047m-3.02344.53124l1.21484.15235m13.16016-.58985l-4.99219 4.94922m4.99219-4.94922l2.34375.72656m-3.07031-.0078l2.34375.72655m12.55859-.01171l-6.71094 2.08203"/><g clip-path="url(#Q)"><path fill="none" stroke="#000" stroke-linecap="round" stroke-linejoin="round" stroke-miterlimit="10" stroke-width=".5" d="M466.91797 359.45313l1.74219 1.72656"/></g><g clip-path="url(#R)"><path fill="none" stroke="#000" stroke-linecap="round" stroke-linejoin="round" stroke-miterlimit="10" stroke-width=".5" d="M146.09375 344.35938L141.90625 350"/></g><path fill="none" stroke="#000" stroke-linecap="round" stroke-linejoin="round" stroke-miterlimit="10" stroke-width=".5" d="M146.09375 344.35938l2.42969.36718m-3.03906.45313l1.21484.1836m12.64844-1.05079l-4.06641 5.73047m3.47656-4.89844l1.21485.16016m12.47265-1.13672l-3.6289 6.01953m3.6289-6.01953l2.44922.13672M185 343.82813l-2.10938 6.69921M185 343.82813l2.41406-.44922m-2.71875 1.42187l1.20313-.22265m11.36719-.91407l-.01172 7.02735m.01172-6.00391l1.08593-.57422m11.17578-.28906l2.09375 6.70703m-1.78906-5.73047l.86328-.875m9.6836 3.3086l7.02343-.10938m9.96094-3.45703l-.3164 7.01953m.3164-7.01953l2.21875-1.05078m14.44922 4.70703l-7.01953-.29297m5.9961.25l.53124 1.10938m13.02344 1.0039l-5.45313-4.4336m4.66016 3.78907l-.23828 1.20313m15.04297-1.98438l-6.84766-1.57813m6.84766 1.57813l.63672 2.36719m-1.63282-2.59766l.31641 1.1836m13.95703-.8125l-6.77344-1.86329m6.77344 1.86329l.53516 2.39453m-1.51953-2.66407l.26953 1.19532m13.85156-3.29297l-6.41406 2.875m6.41406-2.875l1.9375 1.5039m-2.8711-1.08593l.96876.75m11.70703-2.84375l-3.26953 6.22265m3.26953-6.22265l2.45312-.01172m10.98047.07812l-3.5039 6.08985m3.5039-6.08985l2.44922.08203m-2.96094.8047l1.22657.03905m13.40234-.28906l-5.11328 4.82031m5.11328-4.8203l2.32422.78515m-3.0664-.08594l1.16015.39453m13.51953-.1836l-6.35547 2.9961m6.35547-2.9961l1.96484 1.46876m11.64453-.51172l-6.9453 1.08203m6.9453-1.08203l1.47266 1.96094m11.8789-1.21875l-7.01562-.40235m7.01563.40235l1.02343 2.23046m11.71875-4.36328l-5.87109 3.86329m5.8711-3.86329l2.15234 1.1797m-3.00781-.6172l1.07812.58985m12.90625-1.41016l-5.5 4.3789m5.5-4.3789l2.25.98047M412.25 345.625l1.125.49219m12.32422-1.76953l-4.16797 5.66015m4.16797-5.66015l2.42969.35937m-3.03516.46485l1.21484.17968m12.65235-1.04297l-4.0586 5.73829m4.0586-5.73829l2.4336.3125m-3.02345.52344l1.21485.15625m13.52734-.15625l-5.73047 4.0664m5.73047-4.0664l2.1914 1.10156m-3.02734-.51171l2.19532 1.10156m12.28515-1.11719l-6.39062 2.91797"/><g clip-path="url(#S)"><path fill="none" stroke="#000" stroke-linecap="round" stroke-linejoin="round" stroke-miterlimit="10" stroke-width=".5" d="M466.75781 345.71875l1.94922 1.49219"/></g><g clip-path="url(#T)"><path fill="none" stroke="#000" stroke-linecap="round" stroke-linejoin="round" stroke-miterlimit="10" stroke-width=".5" d="M465.82813 346.14453l1.94921 1.48828"/></g><g clip-path="url(#U)"><path fill="none" stroke="#000" stroke-linecap="round" stroke-linejoin="round" stroke-miterlimit="10" stroke-width=".5" d="M145.57813 330.72266l-3.15625 6.28125"/></g><path fill="none" stroke="#000" stroke-linecap="round" stroke-linejoin="round" stroke-miterlimit="10" stroke-width=".5" d="M145.57813 330.72266l2.45312-.0547m-2.91406.96876l1.22656-.02735m13.5039-.18359l-5.0664 4.875m5.0664-4.875l2.33204.76563m10.92187-.82422l-4.9414 4.99219m4.9414-4.9922l2.35156.70313m10.46485-1.11328l-3.94531 5.8125m3.9453-5.8125l2.44142.26172m11.58593.3789l-5.3711 4.53126m5.3711-4.53125l2.27735.91015m11.23437-.65234l-5.76562 4.01562m5.76562-4.01562l2.1836 1.1211m5.0664-.60157l6.36719 2.97656m7.1875.42578l5.89062-3.83203m13.87891 1.75781l-7.01953.32032m5.9961-.27344l.625 1.05469m12.46874 1.74219l-4.53125-5.3711m4.53125 5.3711l-.91406 2.27734m.2539-3.0586l-.91406 2.27735m15.88282-2.8711l-6.51953-2.61718m6.51953 2.61719l.26562 2.4375m-1.21484-2.82032l.26562 2.4414m14.16016-4.17577l-6.83984 1.61719m6.83984-1.6172l1.61719 1.84376m11.36328-2.71094l-6.17578 3.35156m6.17578-3.35156l2.04687 1.35156m11.34375-1.20703l-6.32422 3.0625m6.32422-3.0625l1.98047 1.44922m-2.89844-1.0039l.98829.72656m12.55859-2.13672l-4.94922 4.99219m4.94922-4.9922l2.34766.70704m-3.07032.01953l2.35157.70703m11.51562-1.58984l-4.60937 5.30469m4.60937-5.3047l2.39063.55079m-3.0625.22265l1.1953.27344m13.5-.20312l-6.02734 3.61719m6.02735-3.6172l2.10156 1.26563m-2.98047-.73828l1.05078.63281m13.64063.54688l-7.02344.20312m7.02344-.20312l1.21484 2.13281m-2.23437-2.10547l.60547 1.0664m13.66015-1.70312l-6.88281 1.42188m6.88281-1.42188l1.5664 1.88672m11.25-3.09375l-5.88671 3.83203m5.88672-3.83203l2.14844 1.1914m10.3828-2.04296l-4.3203 5.53906m3.6914-4.73437l1.21094.21094m12.34766-1.28125l-3.54688 6.0703m3.54688-6.0703l2.44921.10156m-2.96484.78125l1.22266.05078m12.73437-.85547l-3.80078 5.91406m3.80078-5.91406l2.44531.20313m-3 .65625l1.22266.10156m13.42188-.28516l-5.34766 4.5625m5.34766-4.5625l2.28125.90235m-3.0625-.23829l1.14453.44922m13.30078-.6211l-6.04688 3.57813"/><g clip-path="url(#V)"><path fill="none" stroke="#000" stroke-linecap="round" stroke-linejoin="round" stroke-miterlimit="10" stroke-width=".5" d="M466.58594 332.07422l2.09375 1.27734"/></g><g clip-path="url(#W)"><path fill="none" stroke="#000" stroke-linecap="round" stroke-linejoin="round" stroke-miterlimit="10" stroke-width=".5" d="M465.70703 332.59375l2.09375 1.27734"/></g><g clip-path="url(#X)"><path fill="none" stroke="#000" stroke-linecap="round" stroke-linejoin="round" stroke-miterlimit="10" stroke-width=".5" d="M144.64844 317.09375L143.35156 324"/></g><path fill="none" stroke="#000" stroke-linecap="round" stroke-linejoin="round" stroke-miterlimit="10" stroke-width=".5" d="M144.64844 317.09375l2.34375-.73047m-2.53125 1.73828l1.17187-.36719m11.98047-.6875l-.59375 7.00391m.59375-7.0039l2.2539-.96485m12.76954 1.58203l-4.01172 5.76953m3.42578-4.92968l1.21875.14453m13.08203-.66016l-4.8125 5.11719m4.8125-5.11719l2.36719.64844m10.34375-1.10547l-3.60547 6.03125m3.60547-6.03125l2.44922.125m11.1875.09375l-4.25 5.59766m4.25-5.59766l2.42187.39453m10.81641-.44922l-4.09766 5.70703m4.09766-5.70703l2.4336.32422M234.6875 323l5.03516-4.90625m13.91406 4.08203l-6.23047-3.2539m5.32422 2.77734l.00781 1.23047m14.14844-.64063l-6.10547-3.48047m6.10547 3.48047l-.07031 2.45313M266 321.78125l-.07422 2.45313m14.67188-3.00782l-6.89453-1.35547m6.89453 1.35547l.71093 2.34766m-1.71484-2.54688l.71484 2.34766m13.66797-2.67188l-7.01953-.3125m7.01953.3125l1.05469 2.21485m-2.07813-2.25781l1.0547 2.21484m13.26171-1.92578l-6.98047-.80469m6.98047.80469l.89844 2.28515m-1.91406-2.40234l.89843 2.28516m13.14844-4.0039l-6.41016 2.87108m6.41016-2.87109l1.9375 1.5039m-2.86719-1.08593l1.9336 1.5039m11.95703-2.53906l-5.70313 4.10157m5.70313-4.10157l2.20312 1.08594m-3.03125-.48828l1.10157.54297m12.99609-1.20703l-5.60938 4.23437m5.60938-4.23437l2.22266 1.03515m-3.03907-.41796l2.22266 1.03515M360 318.65625l-5.91797 3.78516M360 318.65625l2.14062 1.20313m-3-.65235l1.06641.60156m13.02734-1.27343l-5.7578 4.02343m5.7578-4.02343l2.1875 1.11718m-3.02343-.53125l1.09375.5586m12.30078-1.9336l-4.24219 5.60157m4.24219-5.60157l2.42187.39063m10.8125-.44922l-4.08203 5.72266m3.48828-4.89063l1.21485.16016m11.82031-1.44531l-2.33203 6.6289m1.99219-5.66406l1.21093-.1836m10.21094-.8164l2.13281 6.69531m-2.1328-6.69531l1.71483-1.7539m15.77735 3.47265l-6.22266 3.25781m5.3164-2.78515l1.01563.6953m13.33985-.8789L447 321.89063m6.49219-2.6836l1.89453 1.5625m-2.83985-1.17187l1.89454 1.5625m12.18359-2.33594l-6.125 3.44531"/><g clip-path="url(#Y)"><path fill="none" stroke="#000" stroke-linecap="round" stroke-linejoin="round" stroke-miterlimit="10" stroke-width=".5" d="M466.625 318.82422l2.0664 1.32422"/></g><g clip-path="url(#Z)"><path fill="none" stroke="#000" stroke-linecap="round" stroke-linejoin="round" stroke-miterlimit="10" stroke-width=".5" d="M465.73438 319.32813l2.0664 1.3203"/></g><path fill="none" stroke="#000" stroke-linecap="round" stroke-linejoin="round" stroke-miterlimit="10" stroke-width=".5" d="M464.83984 319.82813l1.03516.66015"/><path fill="#00f" fill-rule="evenodd" d="M419.3086 476.52344h8.61718V466.3789h-8.61719v10.14453"/><path fill="azure" fill-rule="evenodd" d="M421.14063 468.21094h.83203v2.82422h3.28515v-2.82422h.83594v6.48047h-.83594v-2.91407h-3.28515v2.91407h-.83204v-6.48047"/><path fill="#00f" fill-rule="evenodd" d="M410.42969 449.89453h8.6211V439.75h-8.6211v10.14453"/><path fill="azure" fill-rule="evenodd" d="M412.26172 441.58203h.83594v2.82422h3.28515v-2.82422h.83203v6.48047h-.83203v-2.91797h-3.28515v2.91797h-.83594v-6.48047"/><path fill="#ff3030" fill-rule="evenodd" d="M353.42578 441.01953h7.6914V430.8711h-7.6914v10.14844"/><path fill="azure" fill-rule="evenodd" d="M355.25781 432.70703h.83594v5.73828h3.1914v.73828h-4.02734v-6.47656"/><path fill="#00f" fill-rule="evenodd" d="M228.45703 423.26563h8.6211v-10.14844h-8.6211v10.14844"/><path fill="azure" fill-rule="evenodd" d="M230.28906 414.95313h.83594v2.8203h3.28516v-2.8203h.83203v6.48046h-.83203v-2.91796H231.125v2.91796h-.83594v-6.48046"/><path fill="#ff3030" fill-rule="evenodd" d="M340.10938 396.63281h7.6953v-10.14453h-7.6953v10.14453"/><path fill="azure" fill-rule="evenodd" d="M341.94531 388.32031h.83203v5.74219h3.19532v.73828h-4.02735v-6.48047"/><path fill="#00f" fill-rule="evenodd" d="M370.48438 396.63281h8.62109v-10.14453h-8.6211v10.14453"/><path fill="azure" fill-rule="evenodd" d="M372.3164 388.32031h.83594v2.82422h3.28516v-2.82422h.83203v6.48047h-.83203v-2.91406h-3.28516v2.91406h-.83593v-6.48047"/><path fill="#ff3030" fill-rule="evenodd" d="M202.52344 370.0039h7.6914v-10.14452h-7.6914v10.14453"/><path fill="azure" fill-rule="evenodd" d="M204.35547 361.6914h.83203v5.73829h3.19531v.74219h-4.02734v-6.48047"/><path fill="#ffffe0" fill-rule="evenodd" d="M354.99219 379.11328h22.17969v-10.1914h-22.1797v10.1914"/><path fill-rule="evenodd" d="M358.49219 370.7539H359v6.29298h-.78516v-4.48829h-1.39062v-.55468l.5625-.06641.25-.05469.23047-.08984.20312-.14063.17578-.21093.14063-.29297.10547-.39453m4.8125 0l.23047.01953.21875.05469.20703.08984.19922.1211.18359.14843.17188.17578.30078.42188.24218.49218.1797.54688.11327.57812.03906.58985-.03906.59375-.11328.58594-.17969.55468-.24218.5-.30079.42969-.17187.17969-.1836.15234-.19921.1211-.20703.09375-.21875.05859-.23047.01953-.22656-.01953-.21875-.0586-.21094-.09375-.19531-.12109-.1836-.15234-.17187-.17969-.30079-.42969-.24609-.5-.17969-.55469-.10937-.58593-.03906-.59375h.83203l.03125.5625.08203.50781.125.4414.16406.375.1875.30079.21094.22265.22265.13672.22657.04688.22656-.04688.22266-.13672.21093-.22265.19141-.30078.16406-.375.125-.44141.08203-.50781.02735-.5625-.02735-.5586-.08203-.5-.125-.4375-.16406-.36718-.1914-.28907-.21094-.21484-.22266-.13281-.22656-.04297-.22656.04297-.22266.13281-.21094.21484-.1875.28907-.16406.36718-.125.4375-.08203.5-.03125.5586h-.83203l.03906-.58985.10937-.57812.1797-.54688.24608-.49218.30079-.42188.17187-.17578.1836-.14844.1953-.1211.21094-.08983.21875-.0547.22657-.01952m5.09375 0h.50781v6.29296h-.78516v-4.48828h-1.39062v-.55468l.5625-.06641.25-.05469.23047-.08984.20312-.14063.17188-.21093.14453-.29297.10547-.39453m2.82422 2.17578h.78515l.01953-.3164.0586-.28517.10156-.2539.13672-.21485.1836-.17578.22265-.1289.26562-.07813.3086-.02734.23828.01953.22265.0625.20313.10156.17969.14063.14844.17187.11328.20703.0703.23438.02735.26562-.02344.26954-.0664.22265-.10938.1914-.15234.17188-.20313.16406-.24609.16407-.63281.39062-.53906.3125-.4375.3164-.34766.32423-.26172.33594-.1914.35156-.125.36719-.07032.39453-.01953.41796h4.21094v-.73828h-3.33203l.08203-.28515.11719-.23828.14453-.19922.1875-.17969.23047-.17188.28125-.17578.71484-.41796.41797-.20313.34375-.23047.28125-.2539.21875-.26563.16406-.27734.11328-.28516.0625-.28516.01953-.28125-.04296-.3828-.1172-.34767-.1914-.30859-.25-.26172-.30078-.21484-.34766-.15625-.3789-.09766-.40625-.03515-.4375.03125-.39453.10156-.35547.16406-.30469.23438-.25.30468-.1836.375-.11718.44532-.03906.51953"/></g></defs><use xlink:href="#aa"/></svg>