<svg xmlns="http://www.w3.org/2000/svg" role="img" xmlns:xlink="http://www.w3.org/1999/xlink" viewBox="142.45 309.95 326.84 171.84"><defs><clipPath id="a"><path d="M144 311.67188h1v168.65625h-1zm0 0"/></clipPath><clipPath id="b"><path d="M144 311.67188h324v168.65625H144zm0 0"/></clipPath><clipPath id="c"><path d="M467 311.67188h1v168.65625h-1zm0 0"/></clipPath><clipPath id="d"><path d="M144 477h3v3.32813h-3zm0 0"/></clipPath><clipPath id="e"><path d="M156 476h3v4.32813h-3zm0 0"/></clipPath><clipPath id="f"><path d="M167 478h8v2.32813h-8zm0 0"/></clipPath><clipPath id="g"><path d="M180 479h8v1.32813h-8zm0 0"/></clipPath><clipPath id="h"><path d="M186 479h2v1.32813h-2zm0 0"/></clipPath><clipPath id="i"><path d="M194 477h7v3.32813h-7zm0 0"/></clipPath><clipPath id="j"><path d="M210 476h2v4.32813h-2zm0 0"/></clipPath><clipPath id="k"><path d="M222 476h3v4.32813h-3zm0 0"/></clipPath><clipPath id="l"><path d="M235 476h4v4.32813h-4zm0 0"/></clipPath><clipPath id="m"><path d="M249 476h3v4.32813h-3zm0 0"/></clipPath><clipPath id="n"><path d="M260 477h7v3.32813h-7zm0 0"/></clipPath><clipPath id="o"><path d="M273 478h8v2.32813h-8zm0 0"/></clipPath><clipPath id="p"><path d="M287 478h7v2.32813h-7zm0 0"/></clipPath><clipPath id="q"><path d="M301 477h5v3.32813h-5zm0 0"/></clipPath><clipPath id="r"><path d="M314 477h6v3.32813h-6zm0 0"/></clipPath><clipPath id="s"><path d="M327 477h6v3.32813h-6zm0 0"/></clipPath><clipPath id="t"><path d="M341 477h6v3.32813h-6zm0 0"/></clipPath><clipPath id="u"><path d="M354 477h6v3.32813h-6zm0 0"/></clipPath><clipPath id="v"><path d="M368 476h5v4.32813h-5zm0 0"/></clipPath><clipPath id="w"><path d="M380 479h8v1.32813h-8zm0 0"/></clipPath><clipPath id="x"><path d="M385 479h3v1.32813h-3zm0 0"/></clipPath><clipPath id="y"><path d="M396 476h2v4.32813h-2zm0 0"/></clipPath><clipPath id="z"><path d="M408 477h5v3.32813h-5zm0 0"/></clipPath><clipPath id="A"><path d="M421 476h5v4.32813h-5zm0 0"/></clipPath><clipPath id="B"><path d="M434 477h6v3.32813h-6zm0 0"/></clipPath><clipPath id="C"><path d="M447 478h7v2.32813h-7zm0 0"/></clipPath><clipPath id="D"><path d="M460 478h8v2.32813h-8zm0 0"/></clipPath><clipPath id="E"><path d="M144 465h4v4h-4zm0 0"/></clipPath><clipPath id="F"><path d="M144 453h4v2h-4zm0 0"/></clipPath><clipPath id="G"><path d="M144 439h4v3h-4zm0 0"/></clipPath><clipPath id="H"><path d="M144 424h4v6h-4zm0 0"/></clipPath><clipPath id="I"><path d="M144 411h4v6h-4zm0 0"/></clipPath><clipPath id="J"><path d="M144 397h3v7h-3zm0 0"/></clipPath><clipPath id="K"><path d="M144 384h3v6h-3zm0 0"/></clipPath><clipPath id="L"><path d="M144 370h2v8h-2zm0 0"/></clipPath><clipPath id="M"><path d="M144 370h1v2h-1zm0 0"/></clipPath><clipPath id="N"><path d="M144 357h2v7h-2zm0 0"/></clipPath><clipPath id="O"><path d="M144 344h3v7h-3zm0 0"/></clipPath><clipPath id="P"><path d="M466 346h2v4h-2zm0 0"/></clipPath><clipPath id="Q"><path d="M144 330h2v8h-2zm0 0"/></clipPath><clipPath id="R"><path d="M466 332h2v3h-2zm0 0"/></clipPath><clipPath id="S"><path d="M144 316h2v9h-2zm0 0"/></clipPath><clipPath id="T"><path d="M466 318h2v3h-2zm0 0"/></clipPath><clipPath id="U"><path d="M465 319h3v2h-3zm0 0"/></clipPath><g id="V" clip-path="url(#clip1)"><path fill="#fff" fill-opacity="0" fill-rule="evenodd" d="M0 0h1000v1000H0zm0 0"/><path fill="#d3d3d3" fill-opacity="0" fill-rule="evenodd" d="M162.15234 355.86719l-.23437.29297.0586.23437.11718.17188.17578.23437.29297.34766.11328.0586.11719-.17188.0586-.23438.17577-.17578.46485-.17578h.69922l.23437.29297.28906.8164.0586.17579.17578.23046.35156.23438.69922.69922.17188.17578.23437.34765.23438.41016.28906.58203.41015.46485.23047.23437.23438.17578.11719.23047.17578.29297.17187 1.16406v.23438l.0586.28906.05859.11719.11719.11719.34765.41015.11719.17188.17578.17578.17578.23437.11719.17188.17188.35156.05859.23438.23437.40625.23438-.0586-.17578.17578-.0586.92969h-.58203l-.23437-.11328-.34766.11328-.11719.11719-.05859.29297-.0586.17578-.11718.17187-.46484.29297-.0586.23438-.0586.11328v.64453l.0586.17187v.41016l.0586.0586v.40624l.05859.40625.11719.17579.05859.05859.23047.64062-.0586.29297v.69922l-.05859.58203v.23438l-.0586.23047-.05468.35156v1.92187l.05469.1172h.42578l-.36719.11718-.02344.35156.89063 1.16797 1.74219.53906 1.33984.35938v.53906l.08984.8086.53516.71484 1.51953.26953.89063-.08594.08984 1.16406.53516.1797 1.16015-.1797 2.05469-.98437 1.16016-.36328 1.8789-.17578 1.69531-.1797-.17968.71876-1.51563.08594-1.25.08984-.80469.26953-1.07421.8086.26953.71875.53515.89843-.17968.625-.26563.8086.26563 1.07812.625.89844.80468.17969 1.25-.1797-.26562.72267.09766.5039.05468.29297v.17188l.0586.29296v.40625l.17578.1172.35156.11718h.40625l.29297-.17578.11328-.11719.0586-.11719.11718-.23047.0586-.17578.35156-.46484.23047-.17578.17578-.0586.17578.0586.0586.17578.11718.98828.05469.46875.0586.17188.11718.23437.17578.0586.8164.05859h.28907l.11719.23437.05859.40625.0586.35156v1.10547l.11718.29297.11719.34766.28906.69922.17578.35156.58203.7539.35157.17579.17187.0586.46875.23437.64063.46484.34765.23438.29297.17578.29297.05468.23047.0625.8164.34766.29297.17578.11328.17188.35157.35156.11719.17578.52343.64063v.28906l.0586.35156v.34766l.05859.35156.0586.28906.11718.0586.17188.05859h.17578l.58203.23437.17578.1172.17578.28905.17578.23438.11328.23437.29297.23047.11719.11719v.41016l.0586.05468.28906.23438.23437.11719.0586.11718.11718.17188.0586.11719.23047.23437.05859.17578.23437.0586.1172.05859-.1172.11328-.05859.11719v.11719l-.11719.29296-.11719.28907v.58203l.17579.11719.11718.05859.0586.11719.11719.11719.11328.05859.17578.34765.0586.35157.05858.40625v.17578l-.05859.17578-.11719.69922v.17187l.1172.17579.29296.29296h.40625l.17578.1172.11719.17187.11719.29296v.23438h-.52735l-.23047-.23438h-.23437l-.17578.0586-.0586.69922.0586.34765.11719.17579.17578.41015.11718.23047.28907.46875.17578.05469h.52344l.23437.0586.75781.64062.0586.29296v.23438l.05859.0586.23047.34765v.35156l-.11719.17188v.29297l.29297.28906.29297.17578.17187.0586.29297.17577.29297.1172.58203.40624.28906.23438.29297.17578.21875.16015.01563.01172.23047.17579.64062.52343.17578.23438.1172.17578.17577.17578.11328.17188v.64062l.1172.17578.46874.11719.58203.11719.23438.05859.23047.11328.29297.11719.11328.0586.58593.35156.28907.17187.17578.0625.17578.05469.17578.0586.69922.35155.28906.17579.23438.05468.28906.17578.23437.1172.64063.40624.29297.11719.17187.0586.23438.05859.41015.05859.23047.0586.23438.11718.0586.17188-.41017.17578.46875.0586.0586.29296.11328.23438.17578.05468.23438.0586.17578.05859.40625.11719.64062.23437.11719.17188.0586.23437v.17578l-.0586.1172-.0586.40624.23438.23438.11719.05859.34766.11719.64062.23047.17578.11718.28906.1172.17578.17577.23438.46485.58203 1.10546.17578.17579.34766.17578.17578.11719.35156.11718 1.04688.52344.23437.0586.46485.11327.29297.0586.46484.17578.75781.58203.23438.23438.34765.46484.17578.17578.28907.23438.8164.69921.29297.17579.28906.28906.29297.17578.29297.28906.69531.64063.17578.17578.29297.23437.28907.23438.46875.28906.64062.58203.34766.23438.23437.29297.34766.34765.35156.46485.9336.99218.34765.40625.11719.17579.23437.05859.11328.11719.64454.17578.23047.11328.23437.0586.29297.17577.23047.1172.9336.69921.40624.40625.23438.17578.40625.17578.23437.11719.8164.34766.34766.23437.23438.11719.29297.28906.23047.11719.7578.35156.35157.17188.23047.05859.29297.11719.23437.0586.8711.17577h.8164l.46875.23047.17188.0586.875.69921.46484.1172.29297.05858.17578.0586.23047.0586.46875.05859.34766.05859.35156.0586.40625.05859h.29297l.17187.0586v.23046l.17578.17578h.29297l.34766.0586.35156.05859.69922.11719h.64063l.46484-.23438.29297-.17578.17187-.11719.41016-.17187.28906-.17578.9336-.46485.46875-.29297.52343-.29296.46485-.17188.46484-.17578 1.05078-.46485.28906-.11718.41016-.11719.28906-.11719.52735-.17578 1.51562-.69922.58203-.34765.28907-.0586.29297-.0586.34765-.11718.875-.23047.35156-.11719h.11329l.23437-.05859.875-.23437.23438-.0586h.8125l.35156-.0586.8164-.11718.17188-.0586.35156-.05468.29297-.0586.23047-.05859.8164-.17578.17579-.0586h.34765l.23438-.05859.46484-.11718.75781-.17188.23438-.0586h.34765l.41016-.11718.28906-.0586 1.28516-.05859h.28906l.41016-.0586.23047-.05858h.17578l.875-.1172h.40625l.41015-.11718h.34766l.35156-.11328.8711-.0586h1.75l1.04687.28907.41016.11719.28906.11718.35156.11719.28907.11719 1.05078.17187.28906.0586h.29297l.29297.05859.17187.0586.41016.05859.17187.0586.1172.05858h.11718l.11719.0586.35156.0586h.11328l.41016.0664 1.92187.39453 1.92578.39453 1.51953.44922 1.69532.71875 2.14453.80469 1.60547-.71875 1.42968-.80469 1.16016-1.07813 1.25-.44921 3.03516-.71875 1.875-.35938 2.14453-1.34765 2.23437-1.25391 2.5-1.25781 1.69531-.44922 1.78516-.17969 1.16016-.26953.625.53906 1.33984-.26953.71485-.98828.98437-1.34375.44531-.17969.80469-.35937 1.875-.53907 1.78516-.44921 1.25-.26954 1.16015-.08984 1.69922-.08984 1.96094-.26954 1.25-.08984h.53906l.625-.08984h.89063l2.14453-.17969 2.41015-.17969 2.58985-.08984 1.69531.17969 1.60938.08984 1.42968.35938 1.16016.71875 1.875.98828 1.16015 1.52734.26563.71484.6289.08985.35548.89844.53515.53906.53516 1.52734 1.07422.35938h.53515l-.80469.53515.08985 1.70703.71484 2.69532.89063.80468.89453.98829.71484 1.2578 1.78516.53907 1.51953-.17969.35547 1.34375 1.60937-.80469.98047-.53906.26953.26953.31641-.21484.21875-.14453.80078.44922.44922-.35938h.35547l.53515-.26953.53907-.71875.53515-.26953.625-.98828 1.16016.44922.83984.3711 1.39454.61718 1.6953-.17969h1.60548l1.78515.08985.17969-1.70704.53516-1.34375.80468.26954.4922.84765.40233.40625-.08984.53906v.35938l.71485.44922.71093-.26953h1.42969l.35938.98828.4453 1.25781.71485 1.34375 1.25.6289 1.69531.62891.71485-.17969.17969-.53906.98046-.08984.44922.35937.08594 1.25782-.26563.6289-.53515.17969v.53906l.71484.98438.26563.53906.98437.98828.80078 1.07813-.26562.35937-.08985.89844-.625 2.33203-.35546 2.0664-.08985 1.79298-.17969.71875-.08984.53906v1.4375l-.98047 1.88281-.35937 1.70703-.53516.89844-.80469 1.16797-.26562.53906 2.05469 1.2539.08593.35938-.35546.53906-.08985-.17968v.80859l.08985 1.4375-.44532.71484-1.07422.09375-.26562.71485.53515.89844.8047.71875 1.16015.80859 1.33984.26953.44531.35938-.35546.44921-1.78907-.08984-1.25-.44922-.71484-.71875-.625-.08984-.17578 3.58984-.1875 1.3086h89.35937V311.70313h-55.26953v49.08203l.76172.125 3.28906.54296 2.02344 2.83594v2.7539l2.35156.33204 2.34766.33203h4.05078l-1.3789 4.16016-2.02344.70703-2.02344.70312-.54297.34375-2.59375 1.6172-.1875.11718-2.02344-2.07813-.73046-2.74218-2.67188-2.07813-1.375-3.5-.0664-.08203-1.95704-2.67188 2.75-1.41796v-49.08204H294.42187v91.41407l.1172.03125.1328.01172.07422.07421.10547.04688.08985.0586.08593.05859.08985.0586.29687.29687.0586.08984.03125.11719.02734.11719.01563.13671-.03125.1172-.0586.08983-.0586.08594-.04296.10547-.04688.10156-.02734.1211v.14453l.17578.26953.14844.14844.07422.08594.07422.07421.04296.10547.0625.08985.0586.08593.04297.10547.0586.08985.04687.10156.04296.10547.0586.08594.11719.17968.07421.07422.0625.08594.0586.08984.04297.10547.0586.08985.05858.08593.0625.08985.0586.08984.04297.10156.11719.17969.07421.07422.0586.08594.07422.07421.08984.0586.10547.04687h.14844l.1328-.01562.13282.01562.10156-.04687.07422-.07422.04688-.10156-.01563-.13281v-.14844l-.04687-.10547-.02735-.11719-.04687-.10156-.02735-.1211-.04296-.10156-.0625-.08984-.04297-.10156-.04297-.10547-.03125-.11719-.01563-.13281-.01171-.13672.08593-.0586.0586-.08593.12109-.03125.04297.10547.01562.1328v.1172l.0586.10156.0586.08984.08983.0586.14844.14843.0586.08985.04296.10547-.01171.10156.08593.0586.10547.04687.08594.0586.08984.05858.07422.07422-.11719.02735-.10546.04687-.08594.0586-.07422.07421-.0586.08985-.0625.08594-.02734.12109-.04687.10156-.04297.10547-.03125.11719-.01172.13281-.01563.13281v.14844l.02735.11719.04687.10547.04297.10156.0586.08984.07421.07422.08985.0586.07422.07421.08984.0586.0586.08984.04296.10547.04688.10156.11719.03125.1328.01563h.14845l.11718-.03125.10547.04297.04297.10547.04688.10156.02734.1211L299.5 410l.02734.11719.03125.1211.02735.11718.10547.04297.10156.04687.13281-.01562.14844.14844.0625.08593.07422.07422.07031.07422.08984.0625.10547.04297.10156.04297.1172.03125.13671.01562.11719-.03125.07422-.07422.02734-.11718-.01172-.13282-.03125-.12109-.02734-.11719.04297-.10547h.11719l.08984.0625.11719.02735h.14843l.13282.01562h.14843l.13282.01563.1328-.01563h.14845l.1328-.01562.13282-.01172.13672.01172.11719-.02735.13281-.01562.1914-.0586-.05859.17579-.01562.1328-.02735.1211-.01562.13281-.0586.08594-.1328.01563-.10548.04687-.10546.04297-.1172.03125-.11718.02735-.26563.03125h-.14843l-.13281.01562-.07422.07422.05859.08594.14844.14843.11719.1797.07421.0703.08985.0625.08984.0586.08594.0586.08984.05858.10156.04297.10547.0625.10547.04297.08594.0586.10547.04687.10156.04297.17969.11719.0586.08984-.04298.10156-.04687.10547.01562.13281.22266.22266.0586.08985.04296.10156.03125.1211.04297.10155.01563.13282.03125.11718.01171.13672.03125.11719.14844.14844.10156.04297.10547.04296.1172.03125.1328.01563.13672.01563h.11719l.11719-.03125.08984-.0586.04297-.10547.04688-.10156.04296-.10547.03125-.11719.01172-.1328v-.14845l-.01172-.1328-.01562-.13282-.03125-.11719-.04297-.10547-.04688-.10547-.04296-.10156-.04297-.10547-.01563-.13281.01563-.13281.02734-.11719.03125-.11719.02735-.1211.04687-.10155.08984-.0586.08594-.0625.07422-.07422.08984-.05859.22266-.22266.0586-.08593.07421-.07422.11719-.17969.0586-.08594v-.14844l-.07423-.07421-.10156-.04688-.10547-.04297-.10156-.04297-.0586-.08984-.04687-.10547-.02734-.11719.08984-.05859.11719-.03125.10156-.04297.17969-.11719.14844-.14843.01172-.13282-.01172-.10546-.08985-.0586-.1328.01563h-.14845l-.1328.01562-.13282-.01562-.1211-.03125-.08593-.0586-.07422-.07422-.0586-.08984-.0625-.08594-.11718-.17969-.0586-.08593.03125-.1211.08594-.05859.1211-.03125.05859-.08594v-.1211l-.03125-.11718-.0586-.08984-.05859-.08594-.04687-.10547-.02735-.11719-.01562-.1328.0586-.08985.07421-.07422.08984-.0586.1172-.17968.07421-.07422.0586-.08594.14843-.14844.1211-.03125.1328-.01562.13282.01562.07422.07422.04297.10547.01562.13281-.03125.1172-.11719.03124-.1328.01172-.14844.14844-.04297.10547-.04688.10156-.02734.1211-.03125.11718v.14844l.03125.11719.04297.10546.05859.08985.07422.07031.07422.07422.11719.03125.12109.02734.11719-.02734.1328-.01563h.1172l.08984.0586.07422.07422.04687.10546.0586.08594.10156.04688.13281.01562.10547.04297.08594.0586-.01172.10546-.07422.07422-.17969.11719-.05859.08984-.08984.0586-.07032.07422-.07421.07421-.0625.08985-.02735.11719-.01562.1328.01562.13282-.01562.13281v.14844l.01562.13281.02735.1172.03125.12108.07421.07422.08985.0586.08594.0586.08984.05858.11719.03125v.08594l-.10157.04688-.08984.0586-.26563.03124-.11718.02735h-.14844l-.10547.04296-.10156.04688-.0586.08984-.0625.23438-.01171.13281-.03125.1211-.01563.1328v.29298l-.01172.1328.01172.13673.01563.1328.1328.01563.13282.01172.1211.03125.08593.0586.07422.07421.04688.10547.04296.10157.01563.1328v.44532l-.01563.13281v.44532l.03125.26562.02735.11719.01562.13281.03125.11719.08594.21094.03125.26562v.14844l-.03125.11719-.02734.11718-.03125.1211-.02735.11719-.03125.11718-.03125.1211-.01171.1328-.01563.13282.08984.0586.1172-.03125.10155.01562.04688.10547-.03125.26562v.44141l-.04297.10547-.04688.10547-.04296.10156-.04297.10547-.0586.08594-.03125.12109-.04296.11719-.03125.11719-.01563.1328.01563.13282.05859.08984.10547.04688.08594.0586.05859.08593-.01172.13672-.03125.11719-.04297.10156v.44531l-.01562.13281v.14844l-.03125.11719-.04297.10547-.02735.11719-.04687.10546-.04297.10157-.03125.12109-.02734.11719-.03125.13281-.03125.11719-.02735.11719-.04297.10546-.03125.1172-.03125.12108-.01171.13282-.01563.13281v.29688l.02734.11718v.14844l.04688.39844.02734.11719.0586.08984.12109.03125h.14844l.13281-.01563.0586.08985v.11719l-.0586.08984-.08984.0586-.10157.04296-.10546.04688-.08985.05859-.08594.0586-.13671.01562-.1172-.03125-.1328-.01563-.10157.04688-.0625.08594-.01172.13671-.01562.13282-.03125.11719-.02735.11718-.01562.13281-.03125.1211v.29687l.01563.13282.03125.11718v.14844l.01171.13281v.14844l-.02734.11719-.04688.10156-.02734.1211-.03125.11718-.0586.08985-.07421.07421-.10156.04297-.10547.04688-.11719.02734-.1211.03125-.10156-.04687.0586-.08594.10547-.04688.02734-.11718.03125-.11719.02734-.1211.03125-.11718v-.14844l.01563-.13281-.03125-.11719-.04297-.10547-.10547.01563-.07422.07422-.10156.04296-.08984.0625-.07422.07422-.04297.10157-.01563.1328-.03125.1172L304.25 426l-.03125.11719-.02734.11719-.03125.12109-.02735.11719-.03125.11718-.04297.10547-.08984.0586h-.08984l-.1172-.03125-.03124-.08594.01562-.13672-.03125-.11719v-.14844l-.01171-.1328v-.14844l-.0625-.23438-.02735-.1211-.04297-.10156-.04687-.10546-.0586-.08594-.05859-.08985-.04297-.10546-.0625-.08594-.14844-.14844-.0703-.07422-.10548-.04687-.10547-.04297-.10156-.04297-.29687-.29688-.08985-.07421-.08594-.0586-.10546-.04297-.08985-.0625-.08594-.0586-.10546-.04296-.08985-.0586-.08594-.0625-.07421-.0703-.10547-.04688-.08594-.0586-.10547-.04296-.08984-.0625-.10156-.04297-.10547-.04297-.08594-.0586-.10547-.04687-.10547-.04297-.10156-.04687-.08985-.0586-.10156-.04297-.10547-.04296-.08984-.0625-.11719-.02735-.13281-.01562-.13281.01562H299.75l-.13281.01563-.11719-.03125-.08984-.0586-.07422-.07422-.08985-.05859-.10156-.04688h-.14844l-.12109-.02734-.10156-.04297-.07422-.07422-.11719-.17968-.08984-.0586-.10156-.04297-.08985-.0625-.10547-.04296-.08984-.0586-.08594-.0586-.10547-.04687-.0586-.08594-.05858-.08984-.04297-.10547-.04688-.10156-.07422-.07422-.08594-.0586-.07421-.07421-.08985-.0586-.22265-.22265-.04297-.10547-.03125-.26563.10547-.04296h.14453l.10547.04296.07421.07422.08985.0586.08594.0586.10546.04687.08985.05859.14844.14844.0703.07422.14845.14843.0625.08594.07421.07422.08594.0586.07422.07421.08985.0625.08984.0586.08594.05859.26953.17578.10156.04688.10547.04296.10156.04297.04688-.07421.05859-.08594.07422-.07422.07031-.07422.10547.04297.07422.07422.0586.08984.04296.10156.04688.10547.04296.10547.1211.02735.11719-.02735.07421-.08984.04297-.10547.0586-.08985.07422-.07421.10546-.04297.1172-.02735.1328.01172.08985.0586.14844.14843.05859.08985.04297.10547.04687.10156.04297.10547.04297.10156.10547.04688.10547.04296.13281.01563.08594-.0586.0586-.08984.07421-.07422.10547-.04297.11719.02735.10547.04687.10156.04297.10547.04297.10156.04688.17969.11718v.11719l-.01563.13281.01563.13281.01562.13672.0586.08594.10156.04688.1211.02734.11718.03125h.14844l.11719-.03125.05859-.08984.17969-.1172.05859-.08983.07422-.07422.0586-.08594.11718-.17969.17969-.11719.11719.03125.08984.0586.04297.07422-.01563.1328v.1172l.08985.05859h.14843l.13282-.01563.1328-.01171.26563-.03125.10547-.04297.11719-.03125.1211-.02735.07421-.07421.07031-.07422.0625-.08985-.01562-.10547-.04688-.10156-.10156-.04297-.10547-.01562-.11718.02734-.26563.03125h-.14844l-.07421-.07422-.08985-.0586-.11719-.03124-.11718-.02735-.13282-.01562h-.14843l-.13282.01563h-.29687l-.10547-.04688-.14844-.14844-.04297-.10156-.05859-.08984.22266-.22266.08593-.0586.10547-.04296.11719-.03125.13281-.01563.13281.01563.13672.01562.10157.04297.1328-.01172.08985-.0625.10156-.04297.0625-.08984-.04687-.10156-.08984-.0586-.1172-.03125-.10155-.04296-.0586-.08985-.0625-.08984v-.11719l.01563-.13281.10547-.04688.07421-.07031v-.1211l-.08984-.05859-.03125-.11719.08985-.05859.07421-.07422.04297-.10547.0586-.08984.04687-.10156.01563-.13281v-.14844l-.04688-.10547-.04297-.10156-.08984-.0586-.13281-.01562-.10157-.04297-.13671-.01563-.1172-.03125h-.4453l-.13282-.01562-.13281-.01172-.13281-.01563-.11719-.03125h-.14844l-.13281-.01562-.13281-.01172-.26563-.03125-.1211-.04297-.08593-.0586-.07422-.07421v-.14844l.01172-.13281.10547-.04688.10156-.04296.13281-.01563h.15235l.13281-.01562h.29297l.1211.03125.10156.04296.08984.0586.23438.0625.12109-.04688.08984-.05859.10156-.04297.13282-.01562.10547.04296.10156.04688.13281.01172.1211-.02735h.14453l.12109-.03125.11719-.02734.10547-.04687.07421-.07422.08594-.0586.14844-.14843.0586-.08594.04687-.10547.02734-.11719.01563-.10547-.10156-.04296-.08985-.0586-.11719-.03125-.10546-.04297-.08985-.0625-.07422-.08594-.07422-.07421-.10156-.04297-.10547-.04688-.10156-.04297-.0586-.08984-.04687-.10156-.08594-.21094-.0625-.08594-.05859-.08984-.07422-.07422-.08594-.0586h-.26953l-.11719.03126-.08984.05859-.10156.04297-.13281.01562-.10547-.01562-.02735-.11719-.0625-.08984-.11718-.03125-.10157-.04297-.14843-.14844-.03125-.11719-.01563-.10546.07422-.07422.17969-.1172.11719-.02733.11718-.03125.13672.01562.10156.04297.10547.04297.10156.04687.10547.04297.1172.03125.1328.01563.1172.02734.1328.01563.10547-.01563.08985-.0586-.07422-.07421-.10547-.04297-.07422-.07422-.07422-.08984-.14844-.14844-.08593-.0586-.08985-.05859-.07422-.07422-.08984-.0586-.10156-.04687-.1211-.02734-.10156-.04688-.10547-.04296-.11719-.03125-.10156-.04297-.1211-.03125h-.14843l-.11719.03125-.10546.04297-.08594.0625-.17969.11718-.08594.0586-.08984.0586-.10547.04687-.08594.05859-.10547.04297-.10156.04297-.10547.04687-.07422.07422-.05859.08985-.0586.08593-.04687.10547-.0586.08594-.07421.07422-.13281-.01172-.1172-.03125h-.11718l-.07422.07422-.08984.0586-.07422.07421-.08984.0586-.08594.05859-.10547.04687-.10156.04297-.13672.01563-.10156-.04297-.14844-.14844-.10547-.04688h-.08594l-.10547.04688-.10156.04297-.1211.03125-.11718-.03125-.07422-.07422v-.11719l.03125-.1211.07422-.0703.0586-.08985.07421-.07422.11719-.03125.10547-.04296h.29297l.13281-.01563.13672-.01563.10156-.04296.08985-.0586.10156-.04687.08984-.0586.13281-.01171.08985.05859.13281.01172.08984-.0586.08594-.05859.10547-.04297.08984-.0586.08594-.0625.08985-.05859.14843-.14843.0586-.08594.05859-.08985.10547-.04296.13281-.01563.11719.02735.1211.03125.05859-.0586.05859-.08984.03125-.26563.02734-.11719.10547.01172.13281.01563.10157-.04297.08984-.0586.0586-.08984.07421-.07422.0586-.08984.04687-.10156.01172-.13281-.01172-.13282-.04687-.10547-.14844-.14843-.0586-.08985-.05859-.08594-.04297-.10546v-.44532l.01563-.1328v-.14845l.01172-.1328-.0586-.0586-.08984.0586-.10156-.04298-.17969-.11719-.08594-.05859-.0625-.08984-.0586-.08985-.07421-.07421-.08594-.0586-.1211.03125-.10155.01172-.10547.04688-.08594.05859-.10547.04297-.14844.14844-.08984.05859-.08594.0586-.08984.0625-.10547.04296-.13281.01563v-.1211l.10547-.04297.11718-.03125.07422-.0703.04297-.10548v-.14844l-.02734-.11718-.14844-.14844-.13281-.01563h-.14844l-.11719.03125-.10547.04297-.10156.04297-.08984.0625-.11719.02735-.07422-.07422.01172-.13281-.04297-.10157-.04297-.10547-.08984-.05859-.11719.02734-.1211.03125-.11718.03125-.10156.04297-.1211.03125-.10156.04297-.10547.04297-.08984.0586-.10156.01562v-.11719l.01562-.13281-.0586-.08985-.07421.04297-.14844.14844-.0586.08985-.07421.07421-.04688.10547-.04296.10156-.07422.07422-.0586.08985-.07422.07422-.05859.08593-.07422.07422-.08984.0625-.07422.07031-.07422.07422-.10156.01563-.13281.01562-.10547-.04296v-.1211l.14843-.14844.04297-.10156.0586-.08984.04687-.10156.04297-.10547.0586-.08985.03124-.11719.04297-.10156.03125-.1211.02735-.11718.04687-.10547.04297-.10156.04297-.10547.07422-.07031.08984-.0625.08985-.0586.10156-.04296h.29687l.26563-.03125.10547-.04297-.07422-.07422-.11719-.03125-.10547-.04297-.08984-.0586-.10156-.04687-.08985-.0586-.10156-.04296-.10547-.04297-.08984-.0625-.08594-.0586-.10547-.04296-.10156-.04297-.1211-.03125-.11718-.03125-.10157-.04297L297.5 410.25l-.10156-.04297-.08985-.0586-.04296-.10546-.01563-.13281.10156-.04297.13281-.01563.13672.01563.13282-.01563.10156-.04297.0586-.08984.01562-.10547-.08985-.0586-.07421-.07421-.10157-.04297-.08984-.0586-.14844-.14843-.04297-.10547-.01562-.13281v-.29297l-.0586-.08985-.08984-.05859-.07422-.07422-.04297-.10547-.03125-.11718-.0586-.08985-.07421-.07422-.11719-.02734-.07422-.07422-.08984-.0586-.08984-.0625-.08594-.05859-.07422-.07421-.0586-.08594-.04687-.10547-.08594-.0586-.14843-.14843-.19532-.0586-.1328.01563-.10157.04297-.07422.07422-.04688.10156-.04296.10547-.0586.08984-.0586.08594-.29687.29687-.08984.0586h-.08594l-.0625-.08594-.04297-.10547.03125-.11719.0586-.08984.02734-.11719-.01172-.13281-.08984-.0625-.10547.04688-.11719.02734-.11719.03125-.26953.17578-.10156.04688-.11719.02734-.10546.04687-.08985.0586-.10156.04297-.0586-.08594-.04687-.10547.01563-.13281.04687-.10547.07031-.07422.07422-.07031.0586-.08985v-.14843l-.04297-.10547h-.23829l-.10156.04687-.03125.11719-.02734.11719-.03125.1211-.07422.04296-.13281.01563-.07422-.04688-.04297-.10156-.04297-.10547-.04687-.10156-.04297-.10547-.1211.03125-.10156.04297-.13281.01562-.11719.03125-.10547.04297-.08984.0586-.10156.04687-.1211.02734-.13281.01563-.10156-.04297-.0586-.08985-.04687-.10546-.04297-.10157-.04297-.10546v-.1172l.0586-.08984.08593-.05859.17969-.11719.10156-.04687.10547-.04297.10547-.0586.10156-.04296.08985-.0625.10156-.04297.10547-.0586.10156-.04687.08984-.0586.10547-.04296.10156-.04297.08985-.0625.10156-.04297.13672-.01563.11719.03125.10156.04297.1211.03125.10156.04297.10546.04688.10157.04296.10547.04297.10156.04688.10547.04297.10156.04297.10547.04687.08594.0586.10546.04296.1172.03125.10546.04297.10156.04688.08985.0586.10547.04296.10156.04297.10547.04687.11719.02735.10156.04687.1211.02735h.14843l.08594-.0586.01562-.10156.0586-.08984-.02735-.1172-.07422-.07421-.11719-.17969-.07421-.07422-.08985-.07421-.17969-.1172-.08593-.05859-.10547-.04296-.10156-.04688-.26954-.17578-.05859-.08985-.07422-.07421-.0586-.08985-.04296-.10156-.03125-.11719-.01563-.13672v-.5625l-.01171-.1328-.01563-.13282-.03125-.11719-.01562-.13281-.01172-.13281-.03125-.1211-.22266-.22265-.0586-.08594-.01562-.10547.03125-.11719.13281-.01562v-91.41406H172.9922v1.45312l-.0586.23438-.35156 1.05078-.17187.52343-.1172.34766-.17577.41016-.11719.17187-.23438.29297-.23046.0586h-.35157l-.11718.05859-.23047.40625v.29297l.11719.17578.23046.23047.1172.23437.64062.75781.29297.46485.17578.23437.23047.35156.23437.34766.64063.8164.17578.46485.17187.41016.11719.69531.17578.46875.11719 1.39844.0586.46484v.875l.11718 1.04688v4.78125l-.0586.46484-.35156 1.28125-.17578.52344-.11328.41015-.35156.9297L172.93359 336l-.23437.58203-.11719.17578-.17187.34766-.17578.40625-.35157.8164-.0586.29297-.11327.29297-.11719.28906-.0586.17579-.11718.875-.0586.40625-.05859.11718-.0586.17579-.05859.17187-.23047.52734-.11718.17188v.23437l-.11719.23438-.0586.17187-.17577.58594v.28906l-.0586.17579v.29296l-.0586.11329-.05859.52734v.17187l-.05468.23438v2.6211l-.17578.8164-.1172.17578-.17577.23438-.1172.17187-.11327.23438-.58594.93359-.23047.28906-.29297.46485-.17578.23437-.28906.35156-.35156.69922-.11328.23047-.17579.41016-.17578.23046-.40625.52735-.8164.69922-.29297.17187-.28906.23438-.17579.11719-.17578.17578-.52344.40625-.52734.17578-.17187.17578-.23438.05469-.64062.17578h-.75782m12.21094 31.02344l-1.07422.44921.35938.89454 1.25-.71485.44531-.53906-.98047-.08985"/><path fill="#d3d3d3" fill-opacity="0" fill-rule="evenodd" d="M201.50781 416.59766h-.89453l.44922.6289.98047.35938.80469-.08985.4453-.98828-.17577.08985-.71485-.35547-.89453.35547m154.6211 59.0703l-.0586-.52343v-.29297l.11328-.29297.0586-.23046.46875-.46875h.11328l.11719-.11329.11718-.05859h.17579l.23437-.0586h.34766l.23437.0586.11719.0586.23047.17187.0586.17578.11718.58203v.29297l-.11719.17578-.17187.28906-.17579.17579-.52734.52343-.23047.23438-.11719.0586h-.17578l-.11718-.0586-.40625-.29297-.17579-.11719-.11718-.0586-.0586-.11327-.05468-.1172m6.64062-10.95702l-.0586-.17188v-1.10937l.0586-.17188.17578-.0586.17188-.05858h.17578l.23437-.0586.1172.0586.05858.69921-.05859.17188-.11719.17578-.11718.0586-.23438.52343-.11328.0586h-.23438l-.05859-.1172m9.61328-14.39062l-.11719-.17578v-.69922l.29297-.875.1172-.17187.17577-.35156.11328-.23047.1172-.29297.35155-.75781.1172-.23047.17187-.23438h.17578l.11719-.0586h.64062l.11719.0586.23437.23438.17188.11328.35156.29297.11719.11718.11328.17579v.11328l.11719.05859.11718.11719v.69922l-.05859.17578v.23047l-.0586.17578-.34765 1.05078-.11719.23047-.11719.23437-.11718.0586-.23047.23437-.64063.28906h-.875l-.41015-.11718-.64063-.46485"/><path fill="none" stroke="#bebebe" stroke-linecap="round" stroke-linejoin="round" stroke-miterlimit="10" stroke-width=".5" d="M467.95703 311.69531H144.02734v168.625h323.9297v-168.625"/><g clip-path="url(#a)"><path fill="#fff" fill-opacity="0" fill-rule="evenodd" d="M144 475.89063v4.4375h.0039H144V311.67188h.0039H144v164.21875"/></g><g clip-path="url(#b)"><path fill="#fff" fill-opacity="0" fill-rule="evenodd" d="M144.0039 480.32813V311.67188h79.88673v95.65625l-1.82422 1.98828-2.61328 2.64453-1.26172 1.79297 1.26172 1.28125 1.78125 3.15625 2.65625 3.15625v2.26562l-4.4375 1.79297-1.83204 1.66406-2.05468 4.4375-.55078 1.42578-1.96485-1.42578-2.47656-2.3086-4.4375.25782-2.07813 2.05078-1.1289 4.4375-1.23047 2.21875-2.1211 2.21875 2.1211 3.36719.66406 1.07031.79297 4.4414-1.45703 1.62892-3.29688 2.80859-1.14062.42969-1.66016-.4297-2.78125-3.08593-3.00781-1.35156-1.42969-1.71094-4.4375-.76172-4.4375-.54297-1.15625-1.42578-3.28515-3.35547-4.4375 3.26563-.10547.08984-4.33203.80078-4.4375.58204-2.32032 3.05859-1.23437 4.4375-.4336 4.4375.60547 4.4375 3.38282 3.26562 4.4375-.15234 4.4375-.6289 4.4375-1.66407 4.4414-.71875 1.15625-.10156 3.28125-.33594.71875.33594 3.71875 1.14062 4.4375.125 4.4414.66016 4.4375.1836 4.4375-.03516 2.1836-2.07422.92578-4.4375 1.32813-4.19531.16016-.2422 4.28125-2.54296 4.4375-1.78516.09765-.10937 2.9336-4.4414 1.40625-.71094 3.7539-3.72657.6836-.3086 4.2539.3086.1836.0664.07812-.0664-.07813-.0625-.80859-4.375-3.6289-3.96094-.23047-.47656-1.17188-4.4375-3.03516-3.45703v-2.26562l4.4375.54296 3.78907-3.69921.64844-1.5547V423.5l-3.50391 3.57031 3.5039 3.48438L237.20703 430l3.6875-2.92969-3.6875-2.73437-4.4414-.83594v-6.86328l2.55078-2.88281-2.55078-3.00391-2.20704-1.4336-2.23047-1.84374-4.4375-.14454v-95.65625h53.26172v99.27344l-2.86718 2.8086 2.86718 2.67187 3.92188-2.67187-3.92188-2.8086v-99.27344h71.01172v148.6875l-2.38281 2.21485 2.38281 1.82031 2.33985-1.82031-2.33985-2.21485v-148.6875h66.57422v126.7422l-4.4375 1.03515-1.63672.9336-2.80078.8789-4.4375 2.08594-1.88672 1.47265-2.08984 4.4414-.46485.69923-2.28906 3.73828 2.28906 4.28515.08204.15235 3.60546 4.4375.75391.53906.375 3.90235-.375 1.37109-3.1836 3.0664-1.2578 1.06641-3.20313 3.3711 3.20313 3.79296 4.4414.30079 4.4375-.12891 4.4375-.4414 4.4375.15624 4.4414.39453 4.4375.03125 4.4375-.4414 4.4375-2.29297 1.83204-1.3711-1.83203-3.82421-.04297-.61329.04297-2.1914.55469-2.2461 3.8828-.70703.7422.70704 1.33593 4.4375 2.36328 2.3203 2.33985-2.3203.95312-4.4375 1-4.44141.14453-1.76953.73829-2.66797-.73829-.7539-4.4375-3.25391-4.4414 1.53125-2.48828 2.47656-1.94922 3.96875-2.01563-3.96875-2.17187-4.4375-.25-.19922-2.8711.19922-1.5664.02734-.10547-.02734-4.33203-2.38281-2.63281-2.0547-.90625-4.4414 1.0664-4.4375-1.96875-1.96875V311.67187h53.25781v168.65625H144.00391"/></g><path fill="#50fcfc" fill-rule="evenodd" d="M158.3711 462.57422l-.60548-4.4375.4336-4.4375 1.23437-4.4375 2.32032-3.0586 4.4375-.58203 4.33203-.80078.10547-.08984 4.4375-3.26563v6.35157l-4.4375.28906-3.08594 1.15625-1.35156.65625-4.4375.84375-1.65235 2.9375-.83594 4.4375 1.3125 4.4375 1.17579 1.13672 4.4375-.14844 3.0664-.98828 1.3711-.82813 4.4375-2.26171 2.16015-1.34766 2.28125-2.98828 4.4375-.89453 1.20313-.5547-1.20313-.43358-4.4375-.85938-3.4375-3.14453-1.0039-1.44531v-6.35157l3.28515 3.35547 1.15625 1.42578 4.4375.54297 4.4375.76172 1.42969 1.71094 3.00781 1.35156 2.78125 3.08594 1.66016.42969 1.14062-.4297 3.29688-2.80858v3.65625l-4.4375 1.42578-4.4414-.42188-3.58204 2.58594 3.58203 2.3789 4.4414.73829 4.4375.3164 4.26563-3.4336-4.26562-3.58983v-3.65625l1.45703-1.62891-.79297-4.4414-.66406-1.07032-2.1211-3.36719 2.1211-2.21875 1.23047-2.21875 1.1289-4.4375 2.07813-2.05078 4.4375-.25781 2.47656 2.3086 1.96484 1.42577.55079-1.42578 2.05468-4.4375 1.83203-1.66406 4.4375-1.79297v2.6289l-1.48828.82813-2.94922.76563-2.91015 3.67187-1.52734 3.9375-4.44141-2.09765-4.4375.85156-.71094 1.7461-1.78516 4.4375 2.4961 3.83202.58203.60547.48438 4.4414 3.37109 1.75782 2.4414-1.75781 2-1.91406 2.59766-2.52735 1.83984-4.04687 4.4375.3164.71485-.70703 3.72266-1.6914 2.41406-2.7461-2.41406-2.63281-.8672-1.80469-2.84374-4.4375-.72656-.82812v-2.6289l3.03515 3.45702 1.17188 4.4375.23047.47656 3.6289 3.96094.8086 4.375.07812.0625-.07813.0664-.18359-.0664-4.2539-.3086-.6836.3086-3.7539 3.72656-1.40625.71094-2.9336 4.4414-.09766.10938-4.4375 1.78516-4.28125 2.54297-.16015.24219-1.32813 4.1953-.92578 4.4375-2.1836 2.07423-4.4375.03515-4.4375-.18359-4.4414-.66016-4.4375-.125-3.71875-1.14062-.71875-.33594-3.28125.33594-1.15625.10156-4.4414.71875-4.4375 1.66406-4.4375.62891-4.4375.15234-3.38282-3.26562"/><path fill="#00e8fc" fill-rule="evenodd" d="M160.57813 462.57422l-1.3125-4.4375.83593-4.4375 1.65235-2.9375 4.4375-.84375 1.35156-.65625 3.08594-1.15625 4.4375-.28906 1.0039 1.4453 3.4375 3.14454 4.4375.85938 1.20313.43359-1.20313.55469-4.4375.89453-2.28125 2.98828-2.16015 1.34765-4.4375 2.26172-1.3711.82813-3.0664.98828-4.4375.14844-1.17578-1.13672m32.24218-2.0586l-3.58203-2.3789 3.58203-2.58594 4.4414.42188 4.4375-1.42579 4.26563 3.58985-4.26562 3.4336-4.4375-.31641-4.4414-.73829m13.3164-16.30078l-2.4961-3.83203 1.78516-4.4375.71094-1.7461 4.4375-.85155 4.4414 2.09765 1.52735-3.9375 2.91016-3.67187 2.94921-.76563 1.48828-.82812v1.96094l-4.4375 1.67968-1.28906 1.625 1.28906 1.88281v2.37891l-1.6914.17578 1.6914 3.20313.39454-3.20313-.39453-.17578v-2.3789l4.4375 2.1289 2.51562.42578 1.92188.4414.38671-.4414-.38672-.42187-1.92968-4.01563-2.50781-3.30469v-1.96093l.72656.82812 2.84375 4.4375.86719 1.80469 2.41406 2.63281-2.41406 2.7461-3.72266 1.6914-.71484.70703-4.4375-.3164-1.83985 4.04687-2.59766 2.52735-2 1.91406-2.4414 1.75781-3.3711-1.75781-.48437-4.4414-.58203-.60548"/><path fill="#50fcfc" fill-rule="evenodd" d="M219.45313 435.76953l-1.69141.17578 1.6914 3.20313.39454-3.20313-.39453-.17578"/><path fill="#00d4fc" fill-rule="evenodd" d="M219.45313 433.39063l-1.28907-1.88282 1.28906-1.625 4.4375-1.67969v1.39844l-3.85156 1.90625 3.85156 2.3125 1.44922-2.3125-1.44922-1.90625v-1.39844l2.50782 3.3047 1.92969 4.01562.38671.42187-.38672.4414-1.92187-.4414-2.51563-.42578-4.4375-2.1289"/><path fill="#50fcfc" fill-rule="evenodd" d="M219.45313 415.03516l-1.26172-1.28125 1.26172-1.79297 2.61328-2.64453 1.82422-1.98829 4.4375.14454v3.26562l-3.10547 3.01563-1.14453 4.4375 4.25 2.38671 2.4453-2.38671 1.63673-4.4375-4.08203-3.01563v-3.26562l2.23046 1.84375 2.20703 1.43359 2.55079 3.0039-2.55078 2.88282-.64844 1.55469-3.78906 3.69921-4.4375-.54296-2.65625-3.15625-1.78125-3.15625"/><path fill="#00c4fc" fill-rule="evenodd" d="M223.89063 433.82031l-3.85157-2.3125 3.85156-1.90625V431l-1.02734.50781 1.02734.61719.38672-.61719-.38672-.50781v-1.39844l1.44922 1.90625-1.44922 2.3125"/><path fill="#00b8fc" fill-rule="evenodd" d="M223.89063 432.125l-1.02735-.61719L223.89062 431l.38672.50781-.38672.61719"/><path fill="#00e8fc" fill-rule="evenodd" d="M228.32813 420.57813l-4.25-2.38672 1.14453-4.4375 3.10547-3.01563v6.33985l-.35938 1.11328.35938.20312.20703-.20312-.20703-1.11329v-6.33984l4.08203 3.01563-1.63672 4.4375-2.44531 2.38671"/><path fill="#00d4fc" fill-rule="evenodd" d="M228.32813 418.39453l-.35938-.20312.35938-1.11329.20703 1.11329-.20703.20312"/><path fill="#50fcfc" fill-rule="evenodd" d="M232.76563 430.55469l-3.50391-3.48438 3.5039-3.57031v1.5664l-1.96484 2.00391 1.96484 1.95313 4.44141-1.77735.21875-.17578-.21875-.16797-4.4414-1.83593V423.5l4.4414.83594 3.6875 2.73437L237.20703 430l-4.4414.55469"/><path fill="#00e8fc" fill-rule="evenodd" d="M232.76563 429.02344l-1.96485-1.95313 1.96484-2.0039 4.44141 1.83593.21875.16797-.21875.17578-4.4414 1.77735"/><path fill="#50fcfc" fill-rule="evenodd" d="M277.15234 416.42578l-2.86718-2.67187 2.86718-2.8086 3.92188 2.8086-3.92188 2.67187m71.01172 47.96875l-2.38281-1.82031 2.38281-2.21485 2.33985 2.21485-2.33985 1.82031m48.82031 15.28906l-3.20312-3.79296 3.20313-3.3711 1.2578-1.0664 3.1836-3.06641.375-1.3711-.375-3.90234-.7539-.53906-3.60547-4.4375-.08204-.15235-2.28906-4.28515 2.28906-3.73828.46485-.69922 2.08984-4.4414 1.88672-1.47266 4.4375-2.08594 2.80078-.8789 1.63672-.9336v3.60937l-4.4375 1.16016-.92969.60156.9297 2.0586 3.46874 2.3828-3.46875 1.81642-4.32422 2.62109.59766 4.4375.84765 4.4375-.41796 4.4414-1.14063 4.14454-.30469.29296-4.13671 3.51563-.875.92188.875 1.03515 4.4414 2.44922 4.4375-.23047 4.4375-1.13672 4.4375.42188 4.4414.92969 4.4375.08984 4.4375-1.0625 3.33985-2.4961.13281-4.4375-1.08984-4.4375.26953-4.4414-2.65234-3.80078-.53906-.63672-3.89844-2.75-4.4375-1.24219-.76172-.44531-3.67969-3.14453-3.98437-1.29297 1.30078-4.4414-1.7539-1.76173v-3.60937l4.4375-1.03516 1.96874 1.96875-1.0664 4.4375.90625 4.4414 2.6328 2.0547 4.33204 2.3828.10547.02735 1.5664-.02734 2.8711-.19922.25.19922 2.17187 4.4375 2.01563 3.96875 1.94922-3.96875 2.48828-2.47656 4.4414-1.53125v.95312l-4.20312 3.05469-.23828.78906-2.10156 3.64844 2.10156 1.69531 2.89062 2.7461 1.55078 3.23046 1.37891-3.23046 1.27734-4.44141.83594-4.4375-3.49219-3.05469v-.95312l4.4375 3.2539.73829.7539-.73829 2.66798-.14453 1.76953-1 4.4414-.95312 4.4375-2.33985 2.32032-2.36328-2.32031-1.33594-4.4375-.74218-.70704-3.88281.70704-.5547 2.24609-.04296 2.1914.04297.61329 1.83203 3.82421-1.83203 1.3711-4.4375 2.29297-4.4375.4414-4.4375-.03125-4.4414-.39453-4.4375-.15625-4.4375.4414-4.4375.12892-4.44142-.30079"/><path fill="#00e8fc" fill-rule="evenodd" d="M396.98438 476.92578l-.875-1.03515.875-.92188 4.13671-3.51563.3047-.29296 1.14062-4.14454.41796-4.4414-.84765-4.4375-.59766-4.4375 4.32422-2.6211 3.46875-1.8164-3.46875-2.38281-.92969-2.0586.9297-.60156 4.4375-1.16016v10.73829l-4.09376 4.33984-.34375 4.10937-.08984.32813-1.9375 4.4414-.94922 4.4375-1.46094 1.23047-3.3711 3.20704 3.3711 2.47265 4.4375-.40234 4.20703-2.07031.23047-.09375.97656.09375 3.46094.64062 4.4414 1.8164 4.4375.1875 4.4375-2.09374.73438-.55079 1.20313-4.4375-1.9375-3.5-1.44922-.9375.97656-4.4414-3.96484-4.41797-.04688-.01953-4.39062-1.4414-4.4414-2.89844h-4.4375v-10.73829l1.7539 1.76172-1.30078 4.4414 3.98437 1.29298 3.67969 3.14453.76172.44531 4.4375 1.24219 3.89844 2.75.53906.63672 2.65234 3.80078-.26953 4.4414 1.08984 4.4375-.1328 4.4375-3.33985 2.4961-4.4375 1.0625-4.4375-.08985-4.4414-.92968-4.4375-.42188-4.4375 1.13672-4.4375.23047-4.44142-2.44922"/><path fill="#00d4fc" fill-rule="evenodd" d="M401.42578 478.36328l-3.3711-2.47265 3.3711-3.20704 1.46094-1.23046.94922-4.4375 1.9375-4.44141.08984-.32813.34375-4.10937 4.09375-4.33985h4.4375v.63672l-4.4375.28516-3.22656 3.41797-.02735 4.4375-1.18359 2.75-.75781 1.6914-.65625 4.4375L401.42578 474l-1.98828 1.89063 1.98828 1.45703 4.4375-.57422 1.80078-.88281 2.63672-1.0625 4.4375.53906 1.41016.52344 3.03125 1.4453 4.4375.28126 3.21484-1.72656 1.22266-3.25782.39844-1.17969-.39844-.72265-4.4375-2.9414-.26953-.77344.26953-1.73829 1.26953-2.70312-1.26953-1.41406-4.4375-2.26954-.3125-.7539-4.1289-3.70313v-.63671l4.4414 2.89843 4.39062 1.4414.04688.01954 3.96484 4.41797-.97656 4.4414 1.44922.9375 1.9375 3.5-1.20313 4.4375-.73437.55079-4.4375 2.09375-4.4375-.1875-4.4414-1.81641-3.46095-.64063-.97656-.09375-.23047.09375-4.20703 2.07032-4.4375.40234"/><path fill="#00c4fc" fill-rule="evenodd" d="M401.42578 477.34766l-1.98828-1.45704L401.42578 474v1.3164l-.60547.57423.60547.4414 2.8086-.4414-2.8086-.57422V474l3.02344-2.54688.65625-4.4375.75781-1.6914 1.1836-2.75.02734-4.4375 3.22656-3.41797 4.4375-.28516v.63672l-4.4375.57031-2.35547 2.4961.32422 4.4375-2.0039 4.4414-.2422 4.4375 4.27735 2.40625 4.4375.71485 3.53516 1.3164.90625.4297 4.4375.3828 1.51172-.8125.10546-4.4375-1.61718-1.09375-1.15625-3.34375-.26563-4.4414-3.01562-1.94922-1.02344-2.48828-3.41797-3.0664v-.63673l4.1289 3.70313.3125.7539 4.4375 2.26954 1.26954 1.41406-1.26953 2.70312-.26953 1.73829.26953.77343 4.4375 2.9414.39844.72267-.39844 1.17968-1.22266 3.25781-3.21484 1.72657-4.4375-.28125-3.03125-1.44531-1.41016-.52344-4.4375-.53906-2.63672 1.0625-1.80078.8828-4.4375.57423"/><path fill="#00b8fc" fill-rule="evenodd" d="M401.42578 476.33203l-.60547-.4414.60547-.57422 2.8086.57421-2.8086.44141m8.875-2.47265l-4.27734-2.40625.24219-4.4375 2.0039-4.44141-.32422-4.4375 2.35547-2.4961 4.4375-.5703v.63671l-4.4375.85156-1.48828 1.57813.67969 4.4375-2.23438 4.4414.48828 4.4375 2.5547 1.4375 4.4375.89454 4.4414 1.16796 3.4961-3.5-1.10157-4.4375-2.0625-4.4414-.33203-.21485-1.73047-4.22265-2.71094-2.42969v-.63672l3.41797 3.0664 1.02344 2.48829 3.01562 1.94922.26563 4.4414 1.15625 3.34375 1.61719 1.09375-.10547 4.4375-1.51172.8125-4.4375-.3828-.90625-.4297-3.53516-1.3164-4.4375-.71485"/><path fill="#00a8fc" fill-rule="evenodd" d="M407.7461 471.45313l-.48829-4.4375 2.23438-4.44141-.67969-4.4375 1.48828-1.57813 4.4375-.85156v.64063l-4.4375 1.1328-.61719.65626.6172 3.00781.29296 1.42969-.29297.625-2.05469 3.8164 1.21875 4.4375.83594.46875 4.4375 1.07032 4.4414.32422 1.85938-1.86329-.35156-4.4375-1.50781-2.93359-.6875-1.50781-1.7539-4.4375-2-1.78906v-.64063l2.71093 2.42969 1.73047 4.22265.33203.21485 2.0625 4.4414 1.10156 4.4375-3.4961 3.5-4.4414-1.16796-4.4375-.89454-2.55469-1.4375"/><path fill="#009800" fill-rule="evenodd" d="M409.46484 471.45313l-1.21875-4.4375 2.0547-3.81641.29296-.625-.29297-1.42969-.61719-3.00781.6172-.65625 4.4375-1.13281v.63671l-3.82813 1.15235.55078 4.4375-1.16016 2.46484-1.0625 1.97656 1.0625 3 1.5664 1.4375 2.8711.7461 4.4414-.51953.22657-.22656.39453-4.4375-.6211-1.21094-1.47265-3.23047-1.67969-4.4375-1.28906-1.15235v-.63671l2 1.78906 1.7539 4.4375.6875 1.50781 1.50782 2.9336.35156 4.4375-1.85937 1.86328-4.4414-.32422-4.4375-1.07031-.83595-.46875"/><path fill="#00ac00" fill-rule="evenodd" d="M410.30078 470.01563l-1.0625-3 1.0625-1.97657 1.16016-2.46484-.55078-4.4375 3.82812-1.15235v.63672l-1.71484.51563-.69922 4.4375-2.02344 4.30469-.07031.13671.07031.20313 4.4375 3.82813 2.89453-4.03125-.70703-4.44141-1.60937-4.4375-.57813-.51563v-.63671l1.28906 1.15234 1.6797 4.4375 1.47265 3.23047.6211 1.21094-.39454 4.4375-.22656.22656-4.4414.51953-2.8711-.7461-1.5664-1.4375"/><path fill="#00c800" fill-rule="evenodd" d="M410.30078 467.21875l-.07031-.20313.07031-.13671 2.02344-4.3047.69922-4.4375 1.71484-.51562v3.1836l-.67969 1.76953.6797 1.57031.62108-1.57031-.62109-1.76953v-3.1836l.57813.51563 1.60937 4.4375.70703 4.4414-2.89453 4.03125-4.4375-3.82812"/><path fill="#10cc00" fill-rule="evenodd" d="M414.73828 464.14453l-.67969-1.57031.6797-1.76953.62108 1.76953-.62109 1.57031"/><path fill="#00e8fc" fill-rule="evenodd" d="M436.92969 464.26953l-2.10156-1.69531 2.10156-3.64844.23828-.78906 4.20312-3.05469v1.58985l-2.01953 1.46484 2.01953 4.32031 1.67579-4.32031-1.67579-1.46485v-1.58984l3.4922 3.05469-.83595 4.4375-1.27734 4.4414-1.3789 3.23047-1.55079-3.23046-2.89062-2.7461"/><path fill="#00d4fc" fill-rule="evenodd" d="M441.3711 462.45703l-2.01954-4.32031 2.01953-1.46485 1.67579 1.46485-1.67579 4.32031"/><g clip-path="url(#c)"><path fill="#fff" fill-opacity="0" fill-rule="evenodd" d="M467.9961 480.32813H468V311.67188h-.0039H468v168.65625h-.0039"/></g><path fill="#fff" fill-opacity="0" fill-rule="evenodd" d="M432.19531 470.1914l5.59766 1.66798 2.84765-9.54297-5.59765-1.67188-2.84766 9.54688"/><path fill-rule="evenodd" d="M437.8711 463.40234l.48827.14454-1.80078 6.03125-.7539-.22266 1.28515-4.30469-1.33203-.39453.16016-.53516.55469.10157.2578.01953.2461-.01953.23438-.07813.22656-.15234.21875-.24219.21484-.34766"/><path fill="#fff" fill-opacity="0" fill-rule="evenodd" d="M219.38281 427.75781l5.6836 1.34766 2.29687-9.6914-5.6836-1.34766-2.29687 9.6914"/><path fill-rule="evenodd" d="M224.66406 420.65625l.4961.11719-1.45313 6.125-.76562-.1836 1.03515-4.36718-1.35156-.32032.1289-.53906.5586.0664.25781.00391.2461-.03515.23047-.08985.21484-.16406.20703-.2539.19531-.35938"/><g clip-path="url(#d)"><path fill="none" stroke="#000" stroke-linecap="round" stroke-linejoin="round" stroke-miterlimit="10" stroke-width=".5" d="M142.17969 477.32422l3.64062 6.00781"/></g><g clip-path="url(#e)"><path fill="none" stroke="#000" stroke-linecap="round" stroke-linejoin="round" stroke-miterlimit="10" stroke-width=".5" d="M156.48438 476.91406l1.66406 6.82813"/></g><g clip-path="url(#f)"><path fill="none" stroke="#000" stroke-linecap="round" stroke-linejoin="round" stroke-miterlimit="10" stroke-width=".5" d="M173.80469 478.82031l-6.34766 3.01563"/></g><g clip-path="url(#g)"><path fill="none" stroke="#000" stroke-linecap="round" stroke-linejoin="round" stroke-miterlimit="10" stroke-width=".5" d="M187.32813 479.375l-6.76563 1.90625"/></g><g clip-path="url(#h)"><path fill="none" stroke="#000" stroke-linecap="round" stroke-linejoin="round" stroke-miterlimit="10" stroke-width=".5" d="M186.34375 479.65234l.84766.88672"/></g><g clip-path="url(#i)"><path fill="none" stroke="#000" stroke-linecap="round" stroke-linejoin="round" stroke-miterlimit="10" stroke-width=".5" d="M199.8164 482.73828l-5.11327-4.82031"/></g><g clip-path="url(#j)"><path fill="none" stroke="#000" stroke-linecap="round" stroke-linejoin="round" stroke-miterlimit="10" stroke-width=".5" d="M210.38672 483.83594l.375-7.01563"/></g><g clip-path="url(#k)"><path fill="none" stroke="#000" stroke-linecap="round" stroke-linejoin="round" stroke-miterlimit="10" stroke-width=".5" d="M223.1914 483.77344l1.39844-6.88672"/></g><g clip-path="url(#l)"><path fill="none" stroke="#000" stroke-linecap="round" stroke-linejoin="round" stroke-miterlimit="10" stroke-width=".5" d="M238.42188 483.625l-2.4336-6.59375"/></g><g clip-path="url(#m)"><path fill="none" stroke="#000" stroke-linecap="round" stroke-linejoin="round" stroke-miterlimit="10" stroke-width=".5" d="M251.53906 483.6914L249.5 476.96485"/></g><g clip-path="url(#n)"><path fill="none" stroke="#000" stroke-linecap="round" stroke-linejoin="round" stroke-miterlimit="10" stroke-width=".5" d="M266.64453 482.4375l-5.61719-4.21875"/></g><g clip-path="url(#o)"><path fill="none" stroke="#000" stroke-linecap="round" stroke-linejoin="round" stroke-miterlimit="10" stroke-width=".5" d="M280.3789 478.9375l-6.45702 2.78125"/></g><g clip-path="url(#p)"><path fill="none" stroke="#000" stroke-linecap="round" stroke-linejoin="round" stroke-miterlimit="10" stroke-width=".5" d="M293.52734 478.60156l-6.12109 3.45313"/></g><g clip-path="url(#q)"><path fill="none" stroke="#000" stroke-linecap="round" stroke-linejoin="round" stroke-miterlimit="10" stroke-width=".5" d="M305.6875 477.375l-3.8125 5.90625"/></g><path fill="none" stroke="#000" stroke-linecap="round" stroke-linejoin="round" stroke-miterlimit="10" stroke-width=".5" d="M305.13281 478.23438l1.22266.10546"/><g clip-path="url(#r)"><path fill="none" stroke="#000" stroke-linecap="round" stroke-linejoin="round" stroke-miterlimit="10" stroke-width=".5" d="M319.60156 477.86719l-5.01172 4.92578"/></g><path fill="none" stroke="#000" stroke-linecap="round" stroke-linejoin="round" stroke-miterlimit="10" stroke-width=".5" d="M318.8711 478.58203l1.17187.36719"/><g clip-path="url(#s)"><path fill="none" stroke="#000" stroke-linecap="round" stroke-linejoin="round" stroke-miterlimit="10" stroke-width=".5" d="M332.58594 477.57031l-4.35156 5.51563"/></g><path fill="none" stroke="#000" stroke-linecap="round" stroke-linejoin="round" stroke-miterlimit="10" stroke-width=".5" d="M331.95313 478.3711l1.20703.21874"/><g clip-path="url(#t)"><path fill="none" stroke="#000" stroke-linecap="round" stroke-linejoin="round" stroke-miterlimit="10" stroke-width=".5" d="M345.78906 477.48438l-4.125 5.6875"/></g><path fill="none" stroke="#000" stroke-linecap="round" stroke-linejoin="round" stroke-miterlimit="10" stroke-width=".5" d="M345.1875 478.3125l1.21875.17188"/><g clip-path="url(#u)"><path fill="none" stroke="#000" stroke-linecap="round" stroke-linejoin="round" stroke-miterlimit="10" stroke-width=".5" d="M359.14844 477.51563l-4.21485 5.625"/></g><path fill="none" stroke="#000" stroke-linecap="round" stroke-linejoin="round" stroke-miterlimit="10" stroke-width=".5" d="M358.53516 478.33594l1.21093.1875"/><g clip-path="url(#v)"><path fill="none" stroke="#000" stroke-linecap="round" stroke-linejoin="round" stroke-miterlimit="10" stroke-width=".5" d="M372.00781 477.23047l-3.30469 6.19922"/></g><path fill="none" stroke="#000" stroke-linecap="round" stroke-linejoin="round" stroke-miterlimit="10" stroke-width=".5" d="M372.00781 477.23047h2.45703"/><g clip-path="url(#w)"><path fill="none" stroke="#000" stroke-linecap="round" stroke-linejoin="round" stroke-miterlimit="10" stroke-width=".5" d="M387.01953 479.25781l-6.69531 2.14063"/></g><g clip-path="url(#x)"><path fill="none" stroke="#000" stroke-linecap="round" stroke-linejoin="round" stroke-miterlimit="10" stroke-width=".5" d="M386.04297 479.57031l.8789.85547"/></g><g clip-path="url(#y)"><path fill="none" stroke="#000" stroke-linecap="round" stroke-linejoin="round" stroke-miterlimit="10" stroke-width=".5" d="M396.61328 476.83594l.7461 6.98828"/></g><path fill="none" stroke="#000" stroke-linecap="round" stroke-linejoin="round" stroke-miterlimit="10" stroke-width=".5" d="M396.72266 477.85156l1.01562-.6875"/><g clip-path="url(#z)"><path fill="none" stroke="#000" stroke-linecap="round" stroke-linejoin="round" stroke-miterlimit="10" stroke-width=".5" d="M412.32813 477.46094l-4.0547 5.73828"/></g><path fill="none" stroke="#000" stroke-linecap="round" stroke-linejoin="round" stroke-miterlimit="10" stroke-width=".5" d="M412.32813 477.46094l2.4375.3086"/><g clip-path="url(#A)"><path fill="none" stroke="#000" stroke-linecap="round" stroke-linejoin="round" stroke-miterlimit="10" stroke-width=".5" d="M425.0039 477.10156l-2.77343 6.45703"/></g><path fill="none" stroke="#000" stroke-linecap="round" stroke-linejoin="round" stroke-miterlimit="10" stroke-width=".5" d="M425.0039 477.10156l2.44532-.20312"/><g clip-path="url(#B)"><path fill="none" stroke="#000" stroke-linecap="round" stroke-linejoin="round" stroke-miterlimit="10" stroke-width=".5" d="M439.10547 483.08594l-4.34766-5.51563"/></g><g clip-path="url(#C)"><path fill="none" stroke="#000" stroke-linecap="round" stroke-linejoin="round" stroke-miterlimit="10" stroke-width=".5" d="M453.14063 482.32031l-5.78907-3.98047"/></g><g clip-path="url(#D)"><path fill="none" stroke="#000" stroke-linecap="round" stroke-linejoin="round" stroke-miterlimit="10" stroke-width=".5" d="M466.80469 481.67969l-6.48438-2.70313"/></g><g clip-path="url(#E)"><path fill="none" stroke="#000" stroke-linecap="round" stroke-linejoin="round" stroke-miterlimit="10" stroke-width=".5" d="M147.28125 465.76172l-6.5625 2.5039"/></g><path fill="none" stroke="#000" stroke-linecap="round" stroke-linejoin="round" stroke-miterlimit="10" stroke-width=".5" d="M146.32813 466.125l.92187.80469m13.44531-.8711l-6.76172 1.91016m5.77735-1.63281l.85156.88672m13.58203-.16407l-7.02734-.08984m6.0039.07813l.5625 1.08984m13.64844-2.05469l-6.77344 1.86328m5.78907-1.59375l.84375.89453m13.48047-1.0664l-6.82422 1.66797m5.83203-1.42579l.8164.91407m13.51563-1.0625l-6.8711 1.48047m5.8711-1.26563l.78906.9375m13.38281.8125l-6.58593-2.44922m5.6289 2.09375l.16016 1.21485m13.66016-.01563l-5.6836-4.13672m4.85547 3.53516l-.16797 1.21484m13.88672-.13281l-4.83594-5.09766m4.13281 4.35547l-.39062 1.16406m14.86328-.9453l-5.74219-4.05079m4.90625 3.46094l-.15234 1.21875m14.85547-3.4375l-6.84766 1.5664m5.85156-1.33984l.8047.92969m13.47655-1.28516l-6.78515 1.82422m5.79687-1.5586l.83594.89844m13.05078-2.11718l-5.95312 3.73047m5.95312-3.73047l2.125 1.22265m11.23438-1.15234l-6.04297 3.58984m5.16406-3.0664l1.04688.63672m13.20312-1.0586l-6.15625 3.38672m5.26172-2.89453l1.02734.67187m13.14453-1.23437l-6.07812 3.52734m6.07812-3.52734l2.08204 1.29687m10.8203-1.86718l-5.2539 4.66797m4.49219-3.98829l1.14844.4297m7.86328-1.3047l4.8789 5.0586m9.66797-5.82813l2.41407 6.59766m15.57421-3.875l-6.93359 1.15234m5.92578-.98437l.7461.97265m11.74609 2.54297l-3.27344-6.21484m3.27344 6.21484l-1.3789 2.03125m16.16796-6.77343l-6.21875 3.26953m6.21875-3.26953l2.02735 1.3828m-2.9336-.90624l1.01563.6914m13.49218 1.36329l-6.79296-1.79297m6.79296 1.79297l.5586 2.39062m12.58984-1.90234l-6.46094-2.76953m6.46094 2.76953l.20313 2.44531m12.3125-1.29297l-4.85938-5.07422m4.85938 5.07422l-.76953 2.33203"/><g clip-path="url(#F)"><path fill="none" stroke="#000" stroke-linecap="round" stroke-linejoin="round" stroke-miterlimit="10" stroke-width=".5" d="M147.51172 453.79297l-7.02344-.1875"/></g><path fill="none" stroke="#000" stroke-linecap="round" stroke-linejoin="round" stroke-miterlimit="10" stroke-width=".5" d="M146.49219 453.76563l.54297 1.09765m13.51953-2.52344l-6.48047 2.71875m20.07031-1.3125l-7.02734-.09375m6.0039.07813l.5625 1.09375m13.77344-1.00781l-7.02344-.23438m6 .19922l.53907 1.10156m13.76562-.67969l-6.95703-1.0078m5.94531.85937l.41406 1.15625m13.94532-1.41016l-7.02344-.20703m7.02344.20703l1.08984 2.20313m12.22266-2.13672l-7.01563-.33594m7.01563.33594l1.04687 2.21875m12.11719-1.35156l-6.71484-2.07032m5.73828 1.76953l.23047 1.20313m13.83203-.33984l-6.25781-3.19922m5.34765 2.73437l.01953 1.22656m14.58985-2.41796l-7.02344.11328m6.0039-.09375l.58985 1.0703m13.72265-.6328l-6.98046-.80078m5.96484.68359l.44922 1.14453m13.89062-1.74219l-7 .63282m7-.63282l1.34375 2.05469m11.76172-2.96875l-6.57812 2.46094m6.57812-2.46094l1.83985 1.625m-2.79688-1.26953l.91797.8125m13.07812-1.7461l-6.02734 3.6172m6.02734-3.6172l2.10157 1.26563m-2.98047-.73828l1.05078.63281m13.5625-.09765l-6.86719 1.48828m6.86719-1.48828l1.58594 1.875m-2.58594-1.65625l.79297.9375m13.33984-1.7461l-6.5 2.67188m6.5-2.67188l1.88672 1.5664m-2.83203-1.17968l.94531.78516m12.6875-2.17578l-5.2461 4.67578m5.2461-4.67578l2.30078.85156m10.60938-1.23828l-4.4375 5.45312m3.79297-4.66015l1.20312.23828m8.83985-1.38282l3.39843 6.15235m-2.90234-5.2539l.66797-1.03126m10.35937 2.79688l6.98047.82812m6.97266 1.64063l5.70312-4.10938m-4.87109 3.51172l-1.10156-.54297m14.35547 1.91797l4.16015-5.66406m-4.16015 5.66406l-2.42579-.35547m20.83594-.67187l-6.02734-3.60938m6.02734 3.60938l-.125 2.44922m12.8789-1.73829l-4.90624-5.03125m4.19531 4.29688l-.375 1.16797m14.39844-.42969l-4.89844-5.03906m4.89844 5.03906l-.75 2.33594"/><g clip-path="url(#G)"><path fill="none" stroke="#000" stroke-linecap="round" stroke-linejoin="round" stroke-miterlimit="10" stroke-width=".5" d="M147.4414 439.67188l-6.8828 1.42187"/></g><path fill="none" stroke="#000" stroke-linecap="round" stroke-linejoin="round" stroke-miterlimit="10" stroke-width=".5" d="M146.4414 439.8789l.78126.94532m13.58984-.10938l-6.9961-.66406m5.98048.5664l.46875 1.13282m13.64453-.11328l-6.5625-2.50781m5.60937 2.14453l.15234 1.21875m14.34766-1.95313l-7.02344-.3086m7.02344.3086l1.05469 2.21485m12.21484-1.8086l-6.9336-1.125m5.92579.96094l.39453 1.16406m13.91016-.88672l-6.89453-1.35156m6.89453 1.35156l.71484 2.34766m12.63672-2.5586l-6.96875-.92577m6.96875.92578l.85547 2.29687m12.45312-3.2539l-6.95703.98437m6.95703-.98437l1.44532 1.98437m11.90234-1.60937l-7.02344.23437m7.02344-.23437l1.22656 2.125m12.08985-2.14454l-7.02344.27735m6-.23828l.61719 1.05859m13.6953-.51953l-6.97265-.88281m6.97266.8828l.8711 2.29688m12.47265-2.67578l-7.02734-.125m7.02734.125l1.10937 2.1875m11.92579-3.6211l-6.46875 2.7422m6.46875-2.7422l1.90625 1.54688m11.0664-2.17187l-5.78515 3.99219m5.78515-3.9922l2.17969 1.12891m11.60156-.16796l-6.71484 2.0703m6.71484-2.0703l1.73828 1.73047m11.60938-1.6211l-6.78125 1.85156m6.78125-1.85156l1.67969 1.78516m11.22656-2.71875l-5.96485 3.71875m5.96485-3.71875l2.1211 1.22656m10.5703-1.96875l-4.71875 5.20703m4.03516-4.44922l1.1875.30078m10.34375-1.96875l.21875 7.02344m-.1875-6l1.0664-.60937m10.33594.20312l3.98047 5.79297m-3.98047-5.79297l1.13672-2.17578m11.20313 6.95313l5.92969-3.76563m-5.06641 3.21875l-1.0664-.60547m14.34374 2.0586l4.27735-5.57422m-4.27735 5.57422l-2.41797-.40625m18.46094 1.08203l-1.17578-6.9297m1.17578 6.9297l-1.94531 1.49609m18.13672-4.36719l-6.92578-1.1875m5.91797 1.01563l.3828 1.16406m11.52345 1.76953l-2.09766-6.70703m1.79297 5.73047l-.86328.8711"/><g clip-path="url(#H)"><path fill="none" stroke="#000" stroke-linecap="round" stroke-linejoin="round" stroke-miterlimit="10" stroke-width=".5" d="M147 425.24219l-6 3.65234"/></g><path fill="none" stroke="#000" stroke-linecap="round" stroke-linejoin="round" stroke-miterlimit="10" stroke-width=".5" d="M147 425.24219l2.11328 1.25m11.69531.20703l-6.98828.73828m5.97266-.6289l.6875 1.01562m13.66016-.85156l-7.02344.1914m7.02344-.1914l1.21093 2.1328m11.9414-.96484l-6.6953-2.14453m6.6953 2.14453l.4375 2.41407m12.95313-2.6875l-6.84375-1.59766m6.84375 1.59766l.62891 2.3711m12.77344-3.06642l-7.02344-.20703m7.02344.20703l1.08984 2.19922m12.14063-1.52734l-6.85157-1.55078m6.85157 1.55078l.64843 2.36719m12.70313-2.55078l-6.92578-1.1836m6.92578 1.1836l.76953 2.32812m12.59766-2.90234l-7.02735-.03516m7.02735.03516l1.14062 2.17187m12.09766-2.92187l-6.875 1.46484m6.875-1.46484l1.57812 1.8789m11.57422-2.41406l-6.55078 2.53516m5.59766-2.16797l.92968.80469m12.23047-2.67188l-4.33203 5.53516m3.70313-4.73047l1.20703.21484m13.4375-.28125l-5.73438 4.0586m4.89844-3.46875l1.09766.55078m12.16015-2.01563l-3.94922 5.8125m3.375-4.96875l1.21875.13281m14.07032.95313l-6.75 1.95312m5.76953-1.67187l.85547.88281m13.17578-1.82422l-6.21875 3.26953m5.3125-2.79296l1.01562.6914m13.21094-1.15625l-6.23047 3.2461m5.32422-2.77344l1.01172.69531m11.51562-2.75781l-2.84375 6.42578m2.4297-5.49219l1.22265-.08594m11.60937-1.10937l-1.04687 6.94922m1.04687-6.94922l2.3164-.8164m12.52735 1.4414l-4.10547 5.69922m4.10547-5.69922l2.4336.33203m9.21875 6.00781l-.78125-6.98046m11.9375 6.52343l3.53906-6.0664m-3.53906 6.0664l-2.45313-.09375m15.64844.02344l3.77734-5.92578m-3.23047 5.0625l-1.22265-.09766m17.58203 1.07422l-3.40234-6.14844m2.90625 5.25391l-.66797 1.02734m14.51953-.15625l-3.48438-6.10547m2.97657 5.21485l-.65625 1.03906"/><g clip-path="url(#I)"><path fill="none" stroke="#000" stroke-linecap="round" stroke-linejoin="round" stroke-miterlimit="10" stroke-width=".5" d="M146.83203 411.67578l-5.66406 4.15625"/></g><path fill="none" stroke="#000" stroke-linecap="round" stroke-linejoin="round" stroke-miterlimit="10" stroke-width=".5" d="M146.83203 411.67578l2.21094 1.0664m-3.03516-.46093l1.10547.53125m13.51953-.21484l-6.63672 2.3125m6.63672-2.3125l1.80078 1.66406m11.70703-.63281l-7.02343.25m6.0039-.21485l.61328 1.0625m13.58594.00782l-6.75-1.96094m5.76563 1.67578l.2539 1.19922m11.1836 1.58203l-1.02344-6.95313m.8711 5.94141l-.98438.72656m15.95312-.3125l-4.03125-5.75781m3.44532 4.91797l-.5547 1.09375m15.42579-1.28125l-5.96875-3.70313m5.96875 3.70313l-.16406 2.44922m13.04687-1.88672l-5.10547-4.82813m5.10547 4.82813l-.65234 2.36719m14.53906-3.17578l-6.25-3.21485m6.25 3.21485l.03516 2.45312m13.65625-3.77344l-7.0039-.57031m7.0039.57031l.97265 2.25m12.35157-2.33593l-7.01563-.40235m7.01563.40235l1.02343 2.23046m11.55079-4.59375l-5.53516 4.32813m5.53516-4.32813l2.24218.9961m8.19922-2.34375l.21094 7.02344m-.17969-6.00391l1.0664-.60547m11.01173-.16406l2.62109 6.52344m-2.23828-5.57422l.78906-.9375m14.02344-.21875l-1.14063 6.93359m.97657-5.92187l1.16406-.39454m14.6211.83204l-5.75 4.03906m5.75-4.03906l2.1875 1.10937m11.51171-.39844l-6.51953 2.61719m6.51953-2.61719l1.8789 1.58203m11.19532-2.0703l-6.03906 3.59374m6.03906-3.59375l2.09766 1.27344m10.14843-2.40234l-3.89843 5.84765m3.89843-5.84765l2.44141.24609m-3.00781.60547l1.21875.1211m12.27344-1.19532l-3.1211 6.29687m3.1211-6.29687L401 410.53516m-2.90625.98437l1.22656-.03125m13.08985-.54687l-4.21875 5.62109m4.21875-5.6211l2.42187.37891m9.29688-1.04297l-1.02735 6.95313m1.02735-6.95313l2.3125-.82421m10.67578.79296l-.3711 7.01563m.3711-7.01563l2.22265-1.03906m-2.27734 2.0586l1.11328-.51954m8.6289 2.3047l6.88282 1.40624m-6.88281-1.40625l-.69531-2.35547m15.42578 5.92969l4.05078-5.74219m-3.46094 4.90625l-1.21484-.15234"/><g clip-path="url(#J)"><path fill="none" stroke="#000" stroke-linecap="round" stroke-linejoin="round" stroke-miterlimit="10" stroke-width=".5" d="M146.44922 397.91797l-4.89844 5.03906"/></g><path fill="none" stroke="#000" stroke-linecap="round" stroke-linejoin="round" stroke-miterlimit="10" stroke-width=".5" d="M146.44922 397.91797l2.35547.6875m-3.0664.04687l1.17577.34375m12.90235-1.02343l-5.00391 4.93359m5.0039-4.9336l2.34376.73438m10.0625-1.40234l-3.1836 6.26562m2.71875-5.35156l1.22656-.02344m13.4961 4.67578l-5.07031-4.86718m15.21875 5.89062l1.26172-6.91406m-1.07813 5.91015l-1.16797.3711m14.10156.58984l1.65625-6.82812m-1.41406 5.83594l-1.1875.30468m16.78125.35547l-3.38281-6.16015m3.38281 6.16015l-1.34375 2.05078m16.21484-3.78906l-6.49609-2.6875m6.4961 2.6875l.23437 2.4414m12.70313-1.7578l-5.73829-4.0547m5.73828 4.0547l-.30859 2.43359m13.53906-2.32031l-5.5703-4.28125m5.5703 4.28125L266.21484 405m14.2422-3.375l-6.61329-2.3711m6.61328 2.3711l.35547 2.42578m13.16016-3.40625l-7.01563-.41406m7.01563.41406l1.02343 2.23047m-2.04296-2.28906l.51171 1.11328m13.27735-3.15235l-5.92188 3.78125m5.92188-3.78125l2.13672 1.20704m9.77734-2.46485l-3.1211 6.29688m2.66798-5.3789l1.22656-.03517m14.3086 1.13672l-6.65235 2.26172m6.65234-2.26172l1.78516 1.6797m11.6914-.97657l-6.97656.85547m6.97656-.85547l1.40625 2.00781m-2.42187-1.88672l1.40625 2.01172m12.8125-2.67187l-6.7539 1.93359m6.7539-1.9336l1.70312 1.76563m-2.68359-1.48437l.85156.8828m12.86719-2.3203l-5.60156 4.24218m5.60156-4.24218l2.22656 1.03515m9.67969-2.14062l-2.78516 6.45312m2.78516-6.45312l2.44531-.19531m-2.84765 1.13671l1.22265-.10156m12.53516-.82031l-2.86328 6.41797m2.86328-6.41797l2.44922-.16797m12.9414 3.15234l-7.01171.44532m5.99218-.37891l.64063 1.04297m10.83203-4.33985l-1.29297 6.90625m1.10547-5.90234l1.17187-.36719m10.91407-.60937l1.54297 6.85547m-1.54297-6.85547l1.85937-1.60156m11.45703 1.60156l1.53907 6.85547m-1.53907-6.85547l1.86328-1.60156m9.70313 7.48046l5.03516-4.90234m-5.03516 4.90235l-2.33594-.75"/><g clip-path="url(#K)"><path fill="none" stroke="#000" stroke-linecap="round" stroke-linejoin="round" stroke-miterlimit="10" stroke-width=".5" d="M146.5586 384.71484l-5.1172 4.81641"/></g><path fill="none" stroke="#000" stroke-linecap="round" stroke-linejoin="round" stroke-miterlimit="10" stroke-width=".5" d="M145.8125 385.41406l1.16406.39453m11.45313-2.01953l-2.22656 6.66797m2.22656-6.66797l2.41797-.40234m11.04297.45703l-2.51954 6.5586m2.51953-6.5586l2.4336-.30078m-2.80078 1.2539l2.4336-.29687m9.9375-.89063l.10155 7.02735m-.10156-7.02735l2.15234-1.17968m7.70313 4.53515l7.01953.31641m-5.9961-.26953l-.52734-1.10938m12.87891 1.89063l6.89844-1.33985m-5.89453 1.14454l-.76953-.95313m15.45703 3.82422l2.14843-6.6914m-2.14843 6.6914l-2.41407.4375m17.41797-.32422l-1.23047-6.91797m1.23047 6.91797l-1.9336 1.51172m16.94923-2.32813l-4.6289-5.28515m4.6289 5.28515l-.875 2.29688m14.35937-2.45313l-4.96875-4.96875m4.96875 4.96875l-.71875 2.34375m14.8789-3.70703L273.82032 386m6.66016 2.2461l.39844 2.42187m13.07812-3.13281l-6.98047-.82422m5.96485.70312l.4453 1.14453m13.90626-1.58203l-7.02344.29297m7.02344-.29297l1.23828 2.11719m10.97266-4.52734l-4.81641 5.11328m4.8164-5.11328l2.3672.64843m12.0078 1.35157l-6.9375 1.11328m6.9375-1.11328l1.48047 1.95703m-2.48828-1.79297l1.48047 1.95312m12.51172-3.14453l-6.27344 3.16797m6.27344-3.16797l2.0039 1.41406M345.94923 386l1.0039.70703M359.83984 385l-5.59765 4.2461M359.83984 385l2.22657 1.02734m-3.04297-.41015l1.11718.51562m13.4297-.4336l-6.42579 2.84767m6.42578-2.84766l1.92969 1.51562m-2.86719-1.10156l.96485.75781m12.21093-2.53906l-4.27343 5.58203m4.27343-5.58203l2.41797.40235m-3.04297.41015l1.21094.20313m12.79297-.96485l-4.40234 5.48047m4.40234-5.48047l2.41016.46094m-3.05079.33594l1.20313.23047m12.98047-.82422l-4.85938 5.07422m4.85938-5.07422l2.36328.66797m-3.07031.0703l1.1836.33204m11.1875-1.96094l-1.5586 6.85547m1.5586-6.85547l2.36718-.64062m10.48828.57031l-.63672 6.9961m.63672-6.9961l2.26562-.94922m-2.35546 1.96485l1.1289-.47266m11.60938-.53906l.69531 6.99218M450 384.64453l1.01953-.67969m14.71875 5.91797l-4.35156-5.51953m4.35156 5.51953l-.98828 2.2461"/><g clip-path="url(#L)"><path fill="none" stroke="#000" stroke-linecap="round" stroke-linejoin="round" stroke-miterlimit="10" stroke-width=".5" d="M142.72656 370.53516l2.54688 6.54687"/></g><g clip-path="url(#M)"><path fill="none" stroke="#000" stroke-linecap="round" stroke-linejoin="round" stroke-miterlimit="10" stroke-width=".5" d="M143.09766 371.48438l.80078-.92579"/></g><path fill="none" stroke="#000" stroke-linecap="round" stroke-linejoin="round" stroke-miterlimit="10" stroke-width=".5" d="M156.91797 370.3164l.79297 6.98438m-.67578-5.96875l1.01172-.6914m13.74609-.14844l-2.32422 6.63281m2.32422-6.63281l2.42578-.3711m-2.76563 1.33594l1.21485-.1836m13.72656.01563l-4.89844 5.03906m4.89844-5.03906l2.35547.6836m-3.07031.05078l1.17969.33984m12.54687-1.33984l-4.28906 5.5664m4.28906-5.5664l2.41797.41015m10.03906-.89453l-2.57422 6.53906m2.57422-6.53906l2.4375-.27734m-2.8125 1.22656l1.21875-.13672m13.23828-.39453l-4.10937 5.70313m4.10937-5.70313l2.42969.33203m-3.02734.4961l1.21484.16796m9.08594 5.00391l3.11328-6.30078m-3.11328 6.30078l-2.44922.07422m2.90234-.98828l-1.22656.03515m15.66797 1.2422l-.04688-7.02735m.04688 7.02734l-2.15625 1.16797m18.0664-2.33594l-5.23437-4.6875m5.23438 4.6875l-.58594 2.38282m13.83594-2.3125l-5.10547-4.83204m5.10547 4.83204l-.65625 2.36718m14.93359-4.83203l-7.02735.10156m7.02735-.10156l1.1836 2.14844m12.09765-2.5664l-6.96094.9375m6.96094-.9375l1.4336 1.99218m-2.44532-1.85547l.71484.9961m13.51172-1.625l-6.76172 1.91796m6.76172-1.91796l1.69922 1.77343m-2.6836-1.49218l1.69923 1.76953m-2.6836-1.49219l.85156.88672m14.27735-1.8789l-6.44922 2.78906m6.44922-2.78907l1.91797 1.53125m-2.85547-1.125l1.91406 1.53125m11.78516-2.82422l-5.34375 4.5625m5.34375-4.5625l2.28125.89844m11.76172.4961l-6.80079 1.77343m6.80079-1.77344l1.66015 1.8047m11.75-1.29298l-6.98828.75m6.98828-.75l1.375 2.03125m-2.39453-1.92187l.6875 1.01562m12.66797-3.20312l-5.03125 4.90625m5.03125-4.90625l2.33594.7461m-3.07031-.03516l1.16796.375m12.9375-1.02735l-5.14453 4.78906m5.14453-4.78906l2.31641.80078m-3.0664-.10546l1.16015.40234m12.40625-1.53906l-4.14844 5.67187m4.14844-5.67187l2.42969.34765m-3.03125.47656l1.21094.17579m12.53906-1.11329l-3.8164 5.89844m3.8164-5.89844l2.44531.20704m-3 .64843l1.22266.10547m12.78906-.86719l-4.09766 5.71094m4.09766-5.71094l2.42969.32813m-3.02735.5039l1.21485.16016m13.1914-.5625l-5.08594 4.85156m5.08594-4.85156l2.32813.77344m10.50781 4.4961l-4.125-5.6875m4.125 5.6875l-1.07813 2.20312m.47657-3.03125l-.53906 1.10156"/><g clip-path="url(#N)"><path fill="none" stroke="#000" stroke-linecap="round" stroke-linejoin="round" stroke-miterlimit="10" stroke-width=".5" d="M145.6211 357.375l-3.2422 6.23438"/></g><path fill="none" stroke="#000" stroke-linecap="round" stroke-linejoin="round" stroke-miterlimit="10" stroke-width=".5" d="M145.6211 357.375l2.45312-.02344m6.61719.80469l5.25 4.67188m-4.48828-3.9922l.28906-1.1914m15.71484-.5664l-1.65234 6.82812m1.65234-6.82813l2.375-.60937m11.76953.92578l-3.3125 6.19531m3.3125-6.1953l2.45313.0078m11.32031.28516l-4.22656 5.61328m3.60937-4.79687l1.21485.1914m12.59765-1.09375l-3.98828 5.78516m3.40625-4.94531l1.21875.14062m13.36328-.36328l-5.35937 4.54688m5.35937-4.54688l2.27735.90625m11.6953 2.47266l-6.67187-2.20704m6.67188 2.20704l.41016 2.41796m12.58984-1.73046L247.5 358.69922m6.04297 3.58594l-.11719 2.45312m-.76172-2.97265l-.0586 1.22656m14.07813-.4414l-5.6953-4.11329m5.6953 4.11328l-.33203 2.42969m-.4961-3.03125l-.16796 1.21875m14.83984-1.70313l-6.7539-1.9453m6.7539 1.9453l.50782 2.40235m-1.4922-2.6836l.50782 2.39844m13.85547-2.375l-6.8789-1.42969m6.8789 1.4297l.6875 2.35546M292.90625 361l.6875 2.35547m-1.6914-2.5625l.34374 1.17578m15.04688-1.52344l-7.02344.09375m7.02344-.09375l1.1836 2.15235m-2.20313-2.13672l.58984 1.07422m12.53516-3.69532l-4.60547 5.3086m4.60547-5.3086l2.39062.54688m-3.0625.22265l1.19531.27735m13.0586-.78906l-5.14063 4.78906m5.14063-4.78906l2.32031.80078m-3.0664-.10547l2.3203.80078m12.66798.53906l-6.9922.71875m6.9922-.71875l1.36718 2.03906m11.91797-1.10546l-6.9336-1.14844m6.9336 1.14844l.78125 2.32812m12.07813-4.71484l-6.01953 3.625m6.01953-3.625l2.10156 1.26172m10.96484-1.6211l-5.52343 4.34375m5.52343-4.34375l2.2461.99219M400 358.6875l-6.02734 3.60938M400 358.6875l2.10156 1.26953m-2.97656-.74219l1.05078.63282m12.52734-1.92188l-4.80078 5.13281m4.80078-5.1328l2.3672.64062m-3.06641.10937l1.18359.3164m12.6914-1.1875l-4.52343 5.37891m4.52344-5.3789l2.39843.51172m-3.05859.26953l1.19922.25781m13.23437-.57422l-5.4414 4.44531m5.4414-4.4453l2.26172.95312m-3.05469-.3047l2.26563.94923m12.50781-.3125l-6.77344 1.8789m6.77344-1.8789l1.6875 1.77734m-2.67187-1.5039l.84375.89062m13.22265 1.32422l-6.30859-3.09766m6.3086 3.09766l.07812 2.45312m-.9961-2.90625l.07813 2.45313"/><g clip-path="url(#O)"><path fill="none" stroke="#000" stroke-linecap="round" stroke-linejoin="round" stroke-miterlimit="10" stroke-width=".5" d="M146 344.28906l-4 5.77735"/></g><path fill="none" stroke="#000" stroke-linecap="round" stroke-linejoin="round" stroke-miterlimit="10" stroke-width=".5" d="M146 344.28906l2.4375.28516m-3.01953.55469l1.21875.14453m14.03125.85156l-6.70313 2.10547m6.70313-2.10547l1.7461 1.72266m10.84374-3.00391l-5.2539 4.66797m5.2539-4.66797l2.30078.85547m10.07032-1.60547l-3.3672 6.16797m3.3672-6.16797l2.45312.02734m10.01953-.35546l-1.67969 6.82421m1.4336-5.83203l1.1914-.29687m13.4336-.23438l-3.8086 5.90235m3.25391-5.04297l1.22266.10156m9.08594-1.10938l3.3125 6.19922m-2.82813-5.29687l.6836-1.01953m16.32812.77344l-5.05078 4.88671m5.05078-4.88671l2.33203.7539m11.96094 1.40625l-7.0039.5664m5.98437-.48437l.66015 1.03516m12.25781 1.99219l-4.17187-5.65235m4.17188 5.65235l-1.0586 2.21484m.45313-3.03516l-.53125 1.10547m15.55078-1.6289l-6.3711-2.96485m6.3711 2.96485l.1289 2.45312m-1.05468-2.88281l.1289 2.44922m14.41016-3.03125l-6.96484-.9375m6.96484.9375l.85156 2.30078m-1.86719-2.4375l.42579 1.14844m13.08203-3.77735l-5.32032 4.58985m5.32032-4.58985l2.28906.89063m-3.0625-.22266l1.14453.44531m12.09766-1.82812l-3.62891 6.01953m3.6289-6.01953l2.44923.13281m-2.97657.74219l1.22266.0664m13.52344-.15625l-5.4375 4.45313m5.4375-4.45313l2.26562.94532m-3.05469-.29688l1.12891.47266m13.57031-.0664l-6.625 2.34374m6.625-2.34375l1.8086 1.65625m-2.77344-1.3164l.90625.82812m13.5039.71094l-6.88671-1.41406m6.88672 1.41406l.6914 2.35156m12.61719-2.32422l-6.8711-1.46875m6.8711 1.46875l.67187 2.35938m12.71875-3.21094l-7.02343.23047m7.02343-.23047l1.22266 2.125m11.72656-3.57031l-6.29687 3.1211m6.29687-3.1211l1.9961 1.42969m10.83984-2.15625l-5.33594 4.57421m5.33594-4.57421l2.28516.89453m-3.0625-.22657l2.28515.89454m11.54297-1.83985l-4.80469 5.1289m4.8047-5.1289l2.36718.64063m-3.0664.10546L427.6875 346m11.63672-1.39453l-4.78516 5.14453m4.78516-5.14453l2.3711.6289m-3.06641.1211l2.37109.6289m12.625.22266l-6.7539 1.9414m6.7539-1.9414l1.70313 1.76563m-2.6875-1.48047l1.70703 1.76172m12.72656-1.0625l-7.02734-.02735"/><g clip-path="url(#P)"><path fill="none" stroke="#000" stroke-linecap="round" stroke-linejoin="round" stroke-miterlimit="10" stroke-width=".5" d="M467.07422 347.1914l1.14453 2.17188"/></g><path fill="none" stroke="#000" stroke-linecap="round" stroke-linejoin="round" stroke-miterlimit="10" stroke-width=".5" d="M466.05469 347.1875l1.14062 2.17188"/><g clip-path="url(#Q)"><path fill="none" stroke="#000" stroke-linecap="round" stroke-linejoin="round" stroke-miterlimit="10" stroke-width=".5" d="M145.35156 330.6211l-2.70312 6.48437"/></g><path fill="none" stroke="#000" stroke-linecap="round" stroke-linejoin="round" stroke-miterlimit="10" stroke-width=".5" d="M145.35156 330.6211l2.4414-.23438m-2.83593 1.17578l1.22266-.11328m14.28515.85547l-6.30078 3.11719m6.30078-3.1172l1.9922 1.4297m11.125-1.77735l-5.90235 3.8125m5.90234-3.8125l2.14063 1.1914m11.24218-1.08202l-6.03906 3.59375m6.03906-3.59375l2.09766 1.27343m11.25-1.21875l-6.10156 3.48438m6.10156-3.48438l2.07422 1.3086m-2.96484-.80078l1.03906.65234m13.6289.53516l-7.02734.09375m7.02734-.09375l1.1797 2.15234m7.03515-5.24219L225.47266 337m14.95312-4.54297l-6.4414 2.8125m5.5039-2.40234l.96094.76172m13.46875-.66407l-6.79297 1.79688m5.80469-1.53516l.83203.89844m12.16406 2.5625l-4.17969-5.64844m4.1797 5.64844l-1.0547 2.21484m.44532-3.03515l-1.0547 2.21484m15.60548-1.99219l-5.4336-4.45312m5.4336 4.45312l-.48047 2.40625m-.3086-3.05468l-.48046 2.40625m15.3789-4.1172l-7.02343.26563m7.02343-.26562l1.23438 2.1211m-2.2539-2.08204l.61327 1.0586m13.46875-2.27735l-6.51562 2.625m6.51562-2.625l1.8789 1.57813m-2.82812-1.19532l.94141.78907m13.15234-1.53516l-6.17578 3.35156m6.17578-3.35156l2.04688 1.35156m-2.94531-.86328l2.04687 1.35156m11.85156-2.32421l-5.54296 4.3203m5.54296-4.3203l2.23829 1.0039m-3.04688-.375l2.24219 1m12.32422-.88672l-6.4297 2.83594m6.4297-2.83594l1.92578 1.51953m-2.86328-1.10546l1.92968 1.51562m12.58204.01563l-6.94922-1.0547m6.94922 1.0547l.8125 2.3164m-1.82422-2.46875l.40625 1.15625m13.93359-1.11328l-6.97656-.83594m6.97656.83594l.88672 2.28516m-1.90234-2.40625l.4453 1.14062m13.79298-.53125l-6.78907-1.8125m5.80079 1.55078l.27734 1.19531m13.72656-3.5l-6.1914 3.32032m5.28906-2.83985l1.01953.6836m12.82031-1.73047l-5.4375 4.45312m4.64844-3.80468l1.1289.47265m13.0625-1.01172l-5.60937 4.23438m5.60938-4.23438l2.22265 1.03516m-3.03906-.41797l1.11328.51563m13.41406-.46094l-6.40234 2.89062m6.40234-2.89062l1.9414 1.5039m-2.87108-1.08203l.96875.75m13.4453-.72265l-6.74218 1.99219m6.74219-1.9922l1.71875 1.75391m-2.69922-1.46484l1.71875 1.7539m12.46875-2.35156l-6.52344 2.60938"/><g clip-path="url(#R)"><path fill="none" stroke="#000" stroke-linecap="round" stroke-linejoin="round" stroke-miterlimit="10" stroke-width=".5" d="M466.82422 332.5586l1.875 1.58202"/></g><path fill="none" stroke="#000" stroke-linecap="round" stroke-linejoin="round" stroke-miterlimit="10" stroke-width=".5" d="M465.875 332.9375l1.875 1.58594"/><g clip-path="url(#S)"><path fill="none" stroke="#000" stroke-linecap="round" stroke-linejoin="round" stroke-miterlimit="10" stroke-width=".5" d="M144.8086 317.1289l-1.6172 6.83985"/></g><path fill="none" stroke="#000" stroke-linecap="round" stroke-linejoin="round" stroke-miterlimit="10" stroke-width=".5" d="M144.8086 317.1289l2.37109-.625m-2.60938 1.6211l1.1875-.3125m11.76953-.77344l-.42578 7.01563m.36328-5.99219l1.1172-.51172m15.3789 1.8789l-6.66016 2.23829m5.6914-1.91406l.89063.84375m12.85938-2.1797l-5.59375 4.25782m5.59375-4.25781l2.22656 1.02734m11.15625-.9336l-5.72656 4.07032m5.72656-4.07031l2.1914 1.09765m11.32423-.78125l-6.12891 3.4375m6.1289-3.4375l2.0625 1.32813m11.1836-1.4414l-5.99219 3.66796m5.99219-3.66797L229 319.96094m11.375 2.10547l-6.33984-3.03516m5.41797 2.59375l.05078 1.22266m14.1289-.66407l-6.22265-3.26953m6.22265 3.26953l.01172 2.45313m-.91797-2.92969l.0039 1.22656m14.04688-.46484l-5.8828-3.83984m5.8828 3.83984l-.21875 2.44531m-.63672-3.0039l-.21875 2.4414m-.63671-3l-.10938 1.22266m15.57422-1.0625l-6.75781-1.92578m6.75781 1.92578l.51172 2.39844m-1.4961-2.6797l.51563 2.39845m-1.5-2.6797l.25781 1.19923m15.1211-2.10938l-6.95313 1.01953m6.95313-1.01953l1.45312 1.97656m-2.46484-1.82812l1.45312 1.97656m12.89453-1.96875l-6.99218.70313m6.99218-.70313l1.36329 2.04297m-2.38282-1.9414l1.36328 2.04296m12.63672-3.3203l-6.32422 3.05858m6.32422-3.05859l1.98047 1.44922m-2.89844-1.0039l1.98047 1.44921m12.22266-1.95703l-6.26563 3.17969m6.26563-3.17969l2.00781 1.41016m-2.91797-.94531l1.0039.70312m13.37892-.8125l-6.57813 2.47266m6.57813-2.47266l1.83984 1.6211m-2.79688-1.26173l1.83985 1.6211m12.45312-1.92188l-6.6211 2.35547m6.6211-2.35547l1.8125 1.65625m-2.77734-1.3125l.90625.82813m13.3086-1.33594l-6.4922 2.6836m6.4922-2.6836l1.89452 1.5625m-2.83593-1.17187l.9453.78125m13.1875-1.44141l-6.24218 3.22266m6.24219-3.22266l2.01953 1.39453m11.20313-1.5625l-6.0586 3.5586m6.0586-3.5586l2.08984 1.28516m10.40625-2.23828l-4.41797 5.46484m3.77344-4.67188l1.20312.23438m10.71875-1.80469l-.34375 7.01953m.29297-6l1.10938-.51953m15.32422 4.36719l-6.48047-2.71484m6.48047 2.71484l.22656 2.44531m13.02734-5.29687l-6.35937 2.98437m6.35937-2.98437l1.96485 1.47265M452.5 319.48828l1.96484 1.47266m12.13282-2.1836l-6.07032 3.54297"/><g clip-path="url(#T)"><path fill="none" stroke="#000" stroke-linecap="round" stroke-linejoin="round" stroke-miterlimit="10" stroke-width=".5" d="M466.59766 318.77734l2.08593 1.28907"/></g><g clip-path="url(#U)"><path fill="none" stroke="#000" stroke-linecap="round" stroke-linejoin="round" stroke-miterlimit="10" stroke-width=".5" d="M465.71094 319.29297l2.08984 1.28906"/></g><path fill="none" stroke="#000" stroke-linecap="round" stroke-linejoin="round" stroke-miterlimit="10" stroke-width=".5" d="M464.82813 319.8086l1.04687.64452"/><path fill="#00f" fill-rule="evenodd" d="M401.55469 467.64844h8.61719V457.5039h-8.6172v10.14453"/><path fill="azure" fill-rule="evenodd" d="M403.38672 459.33594h.83203v2.82422h3.28906v-2.82422h.83203v6.48047h-.83203v-2.91797h-3.28906v2.91797h-.83203v-6.48047"/><path fill="#ff3030" fill-rule="evenodd" d="M437.7539 467.64844h7.69532V457.5039h-7.69531v10.14453"/><path fill="azure" fill-rule="evenodd" d="M439.58594 459.33594h.83594v5.73828h3.1914v.74219h-4.02734v-6.48047"/><path fill="#00f" fill-rule="evenodd" d="M157.44531 463.21094h8.61719V453.0625h-8.61719v10.14844"/><path fill="azure" fill-rule="evenodd" d="M159.27734 454.89844h.83203v2.82031h3.28907v-2.82031h.83203v6.48047h-.83203v-2.91797h-3.28906v2.91797h-.83204v-6.48047"/><path fill="#ff3030" fill-rule="evenodd" d="M344.55078 454.33203h7.6914V444.1875h-7.6914v10.14453"/><path fill="azure" fill-rule="evenodd" d="M346.38281 446.01953h.83203v5.73828h3.19532V452.5h-4.02735v-6.48047"/><path fill="#ff3030" fill-rule="evenodd" d="M198.08203 436.57813h7.69531v-10.14454h-7.6953v10.14454"/><path fill="azure" fill-rule="evenodd" d="M199.91797 428.26563h.83203v5.74218h3.19531v.73828h-4.02734v-6.48046"/><path fill="#00f" fill-rule="evenodd" d="M201.82813 401.07422h8.61718v-10.14844h-8.61719v10.14844"/><path fill="azure" fill-rule="evenodd" d="M203.66016 392.76172h.83203v2.82031h3.28906v-2.82031h.83203v6.47656h-.83203v-2.91406h-3.28906v2.91406h-.83203v-6.47656"/><path fill="#ff3030" fill-rule="evenodd" d="M304.60547 396.63281h7.6914v-10.14453h-7.6914v10.14453"/><path fill="azure" fill-rule="evenodd" d="M306.4375 388.32031h.83203v5.74219h3.19531v.73828h-4.02734v-6.48047"/><path fill="#00f" fill-rule="evenodd" d="M370.48438 392.19531h8.62109v-10.14453h-8.6211v10.14453"/><path fill="azure" fill-rule="evenodd" d="M372.3164 383.88281h.83594v2.82422h3.28516v-2.82422h.83203v6.48047h-.83203v-2.91406h-3.28516v2.91406h-.83593v-6.48047"/><path fill="#ff3030" fill-rule="evenodd" d="M451.07031 387.75781h7.6914v-10.14453h-7.6914v10.14453"/><path fill="azure" fill-rule="evenodd" d="M452.90234 379.44531h.83204v5.73828h3.1953v.7422h-4.02734v-6.48048"/><path fill="#ff3030" fill-rule="evenodd" d="M202.52344 361.1289h7.6914v-10.14843h-7.6914v10.14844"/><path fill="azure" fill-rule="evenodd" d="M204.35547 352.8164h.83203v5.73829h3.19531v.73828h-4.02734v-6.47656"/><path fill="#ffffe0" fill-rule="evenodd" d="M424.79297 423.4961h22.17969v-10.19141h-22.1797v10.1914"/><path fill-rule="evenodd" d="M428.29297 415.13672h.50781v6.29687h-.78515v-4.49218H426.625v-.5547l.5625-.0664.25-.05078.23047-.08984.20312-.14453.17579-.20704.14062-.29687.10547-.39453m4.8125 0l.23047.01953.21875.05469.20703.08984.19531.1211.1875.14843.16797.17578.30469.42188.24219.49219.17968.54687.11328.57813.03516.58984-.03516.59375-.11328.58594-.17969.55469-.24218.5-.30469.42968-.16797.17969-.1875.15234-.19531.125-.20703.08985-.21875.0586-.23047.01952-.23047-.01953-.21875-.0586-.20703-.08984-.19531-.125-.1836-.15234-.17187-.17969-.30078-.42969-.2461-.5-.17969-.55468-.10937-.58594-.03906-.59375h.83203l.03125.5664.08203.50391.125.4414.16016.375.1914.30079.21094.22266.22266.13671.22656.04688.22656-.04688.22266-.13671.21094-.22266.1914-.30078.16016-.375.1289-.4414.08204-.50391.02734-.56641-.02735-.5586-.08203-.5-.1289-.4375-.16016-.36327-.1914-.29297-.21094-.21485-.22266-.13281-.22656-.04297-.22656.04297-.22266.13281-.21094.21485-.1914.29296-.16016.36329-.125.4375-.08203.5-.03125.55859h-.83203l.03906-.58984.10938-.57813.17968-.54687.2461-.4922.30078-.42187.17187-.17578.1836-.14844.1953-.12109.20704-.08984.21875-.05469.23047-.01953m5.09375 0h.50781v6.29687h-.78906v-4.49218h-1.38672v-.5547l.5586-.0664.2539-.05078.23047-.08984.20312-.14453.17188-.20704.14062-.29687.10938-.39453m2.82031 2.17578h.78906l.01954-.3164.05859-.28516.09765-.2539.14063-.21485.1836-.17578.22265-.12891.26563-.07813.30859-.02734.23437.01953.22657.0625.20312.10156.17969.14063.14844.17188.11328.20703.07031.23437.02734.26563-.02343.26953-.06641.22265-.10938.19141-.15625.17188-.19921.16406-.2461.16406-.63672.39063-.53515.3125-.4375.3164-.34766.32422-.26562.33594-.1875.35156-.125.3711-.07032.39062-.01953.42187h4.21094v-.74218h-3.33203l.08203-.28516.11328-.23438.14844-.20312.1875-.17969.23047-.17187.28125-.17578.71484-.41797.41406-.20313.34766-.23047.28125-.2539.21875-.26563.16406-.27734.10938-.28516.0664-.28515.01954-.28125-.04297-.38282-.1211-.34765-.1875-.3086-.25-.26171-.30469-.21485-.34375-.15625-.3789-.09765-.40625-.03516-.4375.03125-.39844.10156-.35547.16406-.30469.23438-.24609.30469-.1875.375-.11328.4453-.04297.51954"/><path fill="#ffffe0" fill-rule="evenodd" d="M355.0586 374.9375h22.17968v-10.1914H355.0586v10.1914"/><path fill-rule="evenodd" d="M358.5586 366.57813h.5078v6.29296h-.78515v-4.48828h-1.39063v-.55469l.5625-.0664.25-.05469.23047-.08984.20313-.14063.17578-.20703.14063-.29687.10546-.39454m4.8125 0l.23047.01954.21875.05468.20703.08985.19922.1211.1836.14843.17187.17578.30078.42188.24219.49218.17969.54688.11328.57812.03515.58985-.03515.59375-.11328.58593-.17969.5547-.24219.5-.30078.42968-.17187.17969-.1836.15234-.19922.125-.20703.08984-.21875.0586-.23047.01953-.22656-.01953-.21875-.0586-.21094-.08984-.1953-.125-.1836-.15234-.17188-.1797-.30078-.42968-.2461-.5-.17968-.55469-.10938-.58593-.03906-.59375h.83203l.03125.5664.08204.5039.125.44142.16406.375.1875.30078.21094.22265.22265.13672.22656.04688.22657-.04688.22265-.13672.21094-.22265.1914-.30079.16407-.375.125-.4414.08203-.5039.02734-.56641-.02734-.5586-.08203-.5-.125-.4375-.16406-.36719-.19141-.28906-.21094-.21484-.22265-.13281-.22657-.04297-.22656.04297-.22265.1328-.21094.21485-.1875.28906-.16406.3672-.125.4375-.08204.5-.03125.55859h-.83203l.03906-.58985.10938-.57812.17969-.54688.2461-.49219.30077-.42187.17188-.17578.1836-.14844.1953-.1211.21094-.08984.21875-.05468.22656-.01954m5.09375 0h.50782v6.29297h-.78516v-4.48828h-1.39063v-.55469l.5586-.0664.2539-.05469.23047-.08984.20313-.14063.17187-.20703.14454-.29687.10546-.39454m2.82032 2.17579h.78906l.01953-.31641.0586-.28516.10156-.2539.13671-.21485.1836-.17578.22265-.1289.26563-.07813.3086-.02734.23827.01953.22266.0625.20313.10156.17968.14063.14844.17187.11328.20703.07031.23438.02735.26562-.02344.26953-.0664.22266-.10938.1914-.15625.17188-.19922.16406-.2461.16407-.63671.39062-.53516.3125-.4375.3164-.34765.32423-.26172.33593-.1914.35157-.125.36718-.07032.39454-.01953.41796h4.21094v-.73828h-3.33204l.08204-.28515.11328-.23829.14843-.19921.1875-.1797.23047-.17187.28125-.17578.71485-.41797.41796-.20312.34375-.23047.28125-.2539.21875-.26563.16407-.27735.11328-.28515.0625-.28516.01953-.28125-.04297-.38281-.11719-.34766-.1914-.30859-.25-.26172-.30078-.21484-.34766-.15625-.3789-.09766-.40626-.03515-.4375.03125-.39843.10156-.35157.16406-.30468.23438-.25.30468-.1875.375-.11329.44531-.04296.51954"/></g></defs><use xlink:href="#V"/></svg>