<svg xmlns="http://www.w3.org/2000/svg" role="img" xmlns:xlink="http://www.w3.org/1999/xlink" viewBox="142.45 309.95 326.84 171.84"><defs><clipPath id="a"><path d="M144 311.67188h1v168.65625h-1zm0 0"/></clipPath><clipPath id="b"><path d="M144 311.67188h324v168.65625H144zm0 0"/></clipPath><clipPath id="c"><path d="M387 438h63v42.32813h-63zm0 0"/></clipPath><clipPath id="d"><path d="M467 311.67188h1v168.65625h-1zm0 0"/></clipPath><clipPath id="e"><path d="M144 477h3v3.32813h-3zm0 0"/></clipPath><clipPath id="f"><path d="M155 476h4v4.32813h-4zm0 0"/></clipPath><clipPath id="g"><path d="M168 477h6v3.32813h-6zm0 0"/></clipPath><clipPath id="h"><path d="M181 477h6v3.32813h-6zm0 0"/></clipPath><clipPath id="i"><path d="M194 478h7v2.32813h-7zm0 0"/></clipPath><clipPath id="j"><path d="M210 476h1v4.32813h-1zm0 0"/></clipPath><clipPath id="k"><path d="M223 476h2v4.32813h-2zm0 0"/></clipPath><clipPath id="l"><path d="M236 476h2v4.32813h-2zm0 0"/></clipPath><clipPath id="m"><path d="M249 476h3v4.32813h-3zm0 0"/></clipPath><clipPath id="n"><path d="M260 479h8v1.32813h-8zm0 0"/></clipPath><clipPath id="o"><path d="M266 480h1v.32813h-1zm0 0"/></clipPath><clipPath id="p"><path d="M273 479h8v1.32813h-8zm0 0"/></clipPath><clipPath id="q"><path d="M279 479h2v1.32813h-2zm0 0"/></clipPath><clipPath id="r"><path d="M287 478h7v2.32813h-7zm0 0"/></clipPath><clipPath id="s"><path d="M300 478h7v2.32813h-7zm0 0"/></clipPath><clipPath id="t"><path d="M313 479h8v1.32813h-8zm0 0"/></clipPath><clipPath id="u"><path d="M319 479h2v1.32813h-2zm0 0"/></clipPath><clipPath id="v"><path d="M326 479h9v1.32813h-9zm0 0"/></clipPath><clipPath id="w"><path d="M333 479h3v1.32813h-3zm0 0"/></clipPath><clipPath id="x"><path d="M342 476h3v4.32813h-3zm0 0"/></clipPath><clipPath id="y"><path d="M355 476h4v4.32813h-4zm0 0"/></clipPath><clipPath id="z"><path d="M367 477h7v3.32813h-7zm0 0"/></clipPath><clipPath id="A"><path d="M380 478h7v2.32813h-7zm0 0"/></clipPath><clipPath id="B"><path d="M385 478h4v2.32813h-4zm0 0"/></clipPath><clipPath id="C"><path d="M394 477h6v3.32813h-6zm0 0"/></clipPath><clipPath id="D"><path d="M408 477h5v3.32813h-5zm0 0"/></clipPath><clipPath id="E"><path d="M421 476h5v4.32813h-5zm0 0"/></clipPath><clipPath id="F"><path d="M435 476h3v4.32813h-3zm0 0"/></clipPath><clipPath id="G"><path d="M446 478h8v2.32813h-8zm0 0"/></clipPath><clipPath id="H"><path d="M452 480h2v.32813h-2zm0 0"/></clipPath><clipPath id="I"><path d="M459 479h9v1.32813h-9zm0 0"/></clipPath><clipPath id="J"><path d="M144 465h4v4h-4zm0 0"/></clipPath><clipPath id="K"><path d="M144 453h4v2h-4zm0 0"/></clipPath><clipPath id="L"><path d="M144 439h4v3h-4zm0 0"/></clipPath><clipPath id="M"><path d="M144 425h4v4h-4zm0 0"/></clipPath><clipPath id="N"><path d="M144 411h3v6h-3zm0 0"/></clipPath><clipPath id="O"><path d="M144 397h3v7h-3zm0 0"/></clipPath><clipPath id="P"><path d="M144 383h2v8h-2zm0 0"/></clipPath><clipPath id="Q"><path d="M144 370h2v8h-2zm0 0"/></clipPath><clipPath id="R"><path d="M144 357h3v7h-3zm0 0"/></clipPath><clipPath id="S"><path d="M144 344h4v6h-4zm0 0"/></clipPath><clipPath id="T"><path d="M466 346h2v4h-2zm0 0"/></clipPath><clipPath id="U"><path d="M144 331h4v5h-4zm0 0"/></clipPath><clipPath id="V"><path d="M466 331h2v3h-2zm0 0"/></clipPath><clipPath id="W"><path d="M144 317h3v7h-3zm0 0"/></clipPath><clipPath id="X"><path d="M466 318h2v2h-2zm0 0"/></clipPath><clipPath id="Y"><path d="M465 318h3v3h-3zm0 0"/></clipPath><g id="Z" clip-path="url(#clip1)"><path fill="#fff" fill-opacity="0" fill-rule="evenodd" d="M0 0h1000v1000H0zm0 0"/><path fill="#d3d3d3" fill-opacity="0" fill-rule="evenodd" d="M162.15234 355.86719l-.23437.29297.0586.23437.11718.17188.17578.23437.29297.34766.11328.0586.11719-.17188.0586-.23438.17577-.17578.46485-.17578h.69922l.23437.29297.28906.8164.0586.17579.17578.23046.35156.23438.69922.69922.17188.17578.23437.34765.23438.41016.28906.58203.41015.46485.23047.23437.23438.17578.11719.23047.17578.29297.17187 1.16406v.23438l.0586.28906.05859.11719.11719.11719.34765.41015.11719.17188.17578.17578.17578.23437.11719.17188.17188.35156.05859.23438.23437.40625.23438-.0586-.17578.17578-.0586.92969h-.58203l-.23437-.11328-.34766.11328-.11719.11719-.05859.29297-.0586.17578-.11718.17187-.46484.29297-.0586.23438-.0586.11328v.64453l.0586.17187v.41016l.0586.0586v.40624l.05859.40625.11719.17579.05859.05859.23047.64062-.0586.29297v.69922l-.05859.58203v.23438l-.0586.23047-.05468.35156v1.92187l.05469.1172h.42578l-.36719.11718-.02344.35156.89063 1.16797 1.74219.53906 1.33984.35938v.53906l.08984.8086.53516.71484 1.51953.26953.89063-.08594.08984 1.16406.53516.1797 1.16015-.1797 2.05469-.98437 1.16016-.36328 1.8789-.17578 1.69531-.1797-.17968.71876-1.51563.08594-1.25.08984-.80469.26953-1.07421.8086.26953.71875.53515.89843-.17968.625-.26563.8086.26563 1.07812.625.89844.80468.17969 1.25-.1797-.26562.72267.09766.5039.05468.29297v.17188l.0586.29296v.40625l.17578.1172.35156.11718h.40625l.29297-.17578.11328-.11719.0586-.11719.11718-.23047.0586-.17578.35156-.46484.23047-.17578.17578-.0586.17578.0586.0586.17578.11718.98828.05469.46875.0586.17188.11718.23437.17578.0586.8164.05859h.28907l.11719.23437.05859.40625.0586.35156v1.10547l.11718.29297.11719.34766.28906.69922.17578.35156.58203.7539.35157.17579.17187.0586.46875.23437.64063.46484.34765.23438.29297.17578.29297.05468.23047.0625.8164.34766.29297.17578.11328.17188.35157.35156.11719.17578.52343.64063v.28906l.0586.35156v.34766l.05859.35156.0586.28906.11718.0586.17188.05859h.17578l.58203.23437.17578.1172.17578.28905.17578.23438.11328.23437.29297.23047.11719.11719v.41016l.0586.05468.28906.23438.23437.11719.0586.11718.11718.17188.0586.11719.23047.23437.05859.17578.23437.0586.1172.05859-.1172.11328-.05859.11719v.11719l-.11719.29296-.11719.28907v.58203l.17579.11719.11718.05859.0586.11719.11719.11719.11328.05859.17578.34765.0586.35157.05858.40625v.17578l-.05859.17578-.11719.69922v.17187l.1172.17579.29296.29296h.40625l.17578.1172.11719.17187.11719.29296v.23438h-.52735l-.23047-.23438h-.23437l-.17578.0586-.0586.69922.0586.34765.11719.17579.17578.41015.11718.23047.28907.46875.17578.05469h.52344l.23437.0586.75781.64062.0586.29296v.23438l.05859.0586.23047.34765v.35156l-.11719.17188v.29297l.29297.28906.29297.17578.17187.0586.29297.17577.29297.1172.58203.40624.28906.23438.29297.17578.21875.16015.01563.01172.23047.17579.64062.52343.17578.23438.1172.17578.17577.17578.11328.17188v.64062l.1172.17578.46874.11719.58203.11719.23438.05859.23047.11328.29297.11719.11328.0586.58593.35156.28907.17187.17578.0625.17578.05469.17578.0586.69922.35155.28906.17579.23438.05468.28906.17578.23437.1172.64063.40624.29297.11719.17187.0586.23438.05859.41015.05859.23047.0586.23438.11718.0586.17188-.41017.17578.46875.0586.0586.29296.11328.23438.17578.05468.23438.0586.17578.05859.40625.11719.64062.23437.11719.17188.0586.23437v.17578l-.0586.1172-.0586.40624.23438.23438.11719.05859.34766.11719.64062.23047.17578.11718.28906.1172.17578.17577.23438.46485.58203 1.10546.17578.17579.34766.17578.17578.11719.35156.11718 1.04688.52344.23437.0586.46485.11327.29297.0586.46484.17578.75781.58203.23438.23438.34765.46484.17578.17578.28907.23438.8164.69921.29297.17579.28906.28906.29297.17578.29297.28906.69531.64063.17578.17578.29297.23437.28907.23438.46875.28906.64062.58203.34766.23438.23437.29297.34766.34765.35156.46485.9336.99218.34765.40625.11719.17579.23437.05859.11328.11719.64454.17578.23047.11328.23437.0586.29297.17577.23047.1172.9336.69921.40624.40625.23438.17578.40625.17578.23437.11719.8164.34766.34766.23437.23438.11719.29297.28906.23047.11719.7578.35156.35157.17188.23047.05859.29297.11719.23437.0586.8711.17577h.8164l.46875.23047.17188.0586.875.69921.46484.1172.29297.05858.17578.0586.23047.0586.46875.05859.34766.05859.35156.0586.40625.05859h.29297l.17187.0586v.23046l.17578.17578h.29297l.34766.0586.35156.05859.69922.11719h.64063l.46484-.23438.29297-.17578.17187-.11719.41016-.17187.28906-.17578.9336-.46485.46875-.29297.52343-.29296.46485-.17188.46484-.17578 1.05078-.46485.28906-.11718.41016-.11719.28906-.11719.52735-.17578 1.51562-.69922.58203-.34765.28907-.0586.29297-.0586.34765-.11718.875-.23047.35156-.11719h.11329l.23437-.05859.875-.23437.23438-.0586h.8125l.35156-.0586.8164-.11718.17188-.0586.35156-.05468.29297-.0586.23047-.05859.8164-.17578.17579-.0586h.34765l.23438-.05859.46484-.11718.75781-.17188.23438-.0586h.34765l.41016-.11718.28906-.0586 1.28516-.05859h.28906l.41016-.0586.23047-.05858h.17578l.875-.1172h.40625l.41015-.11718h.34766l.35156-.11328.8711-.0586h1.75l1.04687.28907.41016.11719.28906.11718.35156.11719.28907.11719 1.05078.17187.28906.0586h.29297l.29297.05859.17187.0586.41016.05859.17187.0586.1172.05858h.11718l.11719.0586.35156.0586h.11328l.41016.0664 1.92187.39453 1.92578.39453 1.51953.44922 1.69532.71875 2.14453.80469 1.60547-.71875 1.42968-.80469 1.16016-1.07813 1.25-.44921 3.03516-.71875 1.875-.35938 2.14453-1.34765 2.23437-1.25391 2.5-1.25781 1.69531-.44922 1.78516-.17969 1.16016-.26953.625.53906 1.33984-.26953.71485-.98828.98437-1.34375.44531-.17969.80469-.35937 1.875-.53907 1.78516-.44921 1.25-.26954 1.16015-.08984 1.69922-.08984 1.96094-.26954 1.25-.08984h.53906l.625-.08984h.89063l2.14453-.17969 2.41015-.17969 2.58985-.08984 1.69531.17969 1.60938.08984 1.42968.35938 1.16016.71875 1.875.98828 1.16015 1.52734.26563.71484.6289.08985.35548.89844.53515.53906.53516 1.52734 1.07422.35938h.53515l-.80469.53515.08985 1.70703.71484 2.69532.89063.80468.89453.98829.71484 1.2578 1.78516.53907 1.51953-.17969.35547 1.34375 1.60937-.80469.98047-.53906.26953.26953.31641-.21484.21875-.14453.80078.44922.44922-.35938h.35547l.53515-.26953.53907-.71875.53515-.26953.625-.98828 1.16016.44922.83984.3711 1.39454.61718 1.6953-.17969h1.60548l1.78515.08985.17969-1.70704.53516-1.34375.80468.26954.4922.84765.40233.40625-.08984.53906v.35938l.71485.44922.71093-.26953h1.42969l.35938.98828.4453 1.25781.71485 1.34375 1.25.6289 1.69531.62891.71485-.17969.17969-.53906.98046-.08984.44922.35937.08594 1.25782-.26563.6289-.53515.17969v.53906l.71484.98438.26563.53906.98437.98828.80078 1.07813-.26562.35937-.08985.89844-.625 2.33203-.35546 2.0664-.08985 1.79298-.17969.71875-.08984.53906v1.4375l-.98047 1.88281-.35937 1.70703-.53516.89844-.80469 1.16797-.26562.53906 2.05469 1.2539.08593.35938-.35546.53906-.08985-.17968v.80859l.08985 1.4375-.44532.71484-1.07422.09375-.26562.71485.53515.89844.8047.71875 1.16015.80859 1.33984.26953.44531.35938-.35546.44921-1.78907-.08984-1.25-.44922-.71484-.71875-.625-.08984-.17578 3.58984-.1875 1.3086h89.35937V311.70313h-55.26953v49.08203l.76172.125 3.28906.54296 2.02344 2.83594v2.7539l2.35156.33204 2.34766.33203h4.05078l-1.3789 4.16016-2.02344.70703-2.02344.70312-.54297.34375-2.59375 1.6172-.1875.11718-2.02344-2.07813-.73046-2.74218-2.67188-2.07813-1.375-3.5-.0664-.08203-1.95704-2.67188 2.75-1.41796v-49.08204H294.42187v91.41407l.1172.03125.1328.01172.07422.07421.10547.04688.08985.0586.08593.05859.08985.0586.29687.29687.0586.08984.03125.11719.02734.11719.01563.13671-.03125.1172-.0586.08983-.0586.08594-.04296.10547-.04688.10156-.02734.1211v.14453l.17578.26953.14844.14844.07422.08594.07422.07421.04296.10547.0625.08985.0586.08593.04297.10547.0586.08985.04687.10156.04296.10547.0586.08594.11719.17968.07421.07422.0625.08594.0586.08984.04297.10547.0586.08985.05858.08593.0625.08985.0586.08984.04297.10156.11719.17969.07421.07422.0586.08594.07422.07421.08984.0586.10547.04687h.14844l.1328-.01562.13282.01562.10156-.04687.07422-.07422.04688-.10156-.01563-.13281v-.14844l-.04687-.10547-.02735-.11719-.04687-.10156-.02735-.1211-.04296-.10156-.0625-.08984-.04297-.10156-.04297-.10547-.03125-.11719-.01563-.13281-.01171-.13672.08593-.0586.0586-.08593.12109-.03125.04297.10547.01562.1328v.1172l.0586.10156.0586.08984.08983.0586.14844.14843.0586.08985.04296.10547-.01171.10156.08593.0586.10547.04687.08594.0586.08984.05858.07422.07422-.11719.02735-.10546.04687-.08594.0586-.07422.07421-.0586.08985-.0625.08594-.02734.12109-.04687.10156-.04297.10547-.03125.11719-.01172.13281-.01563.13281v.14844l.02735.11719.04687.10547.04297.10156.0586.08984.07421.07422.08985.0586.07422.07421.08984.0586.0586.08984.04296.10547.04688.10156.11719.03125.1328.01563h.14845l.11718-.03125.10547.04297.04297.10547.04688.10156.02734.1211L299.5 410l.02734.11719.03125.1211.02735.11718.10547.04297.10156.04687.13281-.01562.14844.14844.0625.08593.07422.07422.07031.07422.08984.0625.10547.04297.10156.04297.1172.03125.13671.01562.11719-.03125.07422-.07422.02734-.11718-.01172-.13282-.03125-.12109-.02734-.11719.04297-.10547h.11719l.08984.0625.11719.02735h.14843l.13282.01562h.14843l.13282.01563.1328-.01563h.14845l.1328-.01562.13282-.01172.13672.01172.11719-.02735.13281-.01562.1914-.0586-.05859.17579-.01562.1328-.02735.1211-.01562.13281-.0586.08594-.1328.01563-.10548.04687-.10546.04297-.1172.03125-.11718.02735-.26563.03125h-.14843l-.13281.01562-.07422.07422.05859.08594.14844.14843.11719.1797.07421.0703.08985.0625.08984.0586.08594.0586.08984.05858.10156.04297.10547.0625.10547.04297.08594.0586.10547.04687.10156.04297.17969.11719.0586.08984-.04298.10156-.04687.10547.01562.13281.22266.22266.0586.08985.04296.10156.03125.1211.04297.10155.01563.13282.03125.11718.01171.13672.03125.11719.14844.14844.10156.04297.10547.04296.1172.03125.1328.01563.13672.01563h.11719l.11719-.03125.08984-.0586.04297-.10547.04688-.10156.04296-.10547.03125-.11719.01172-.1328v-.14845l-.01172-.1328-.01562-.13282-.03125-.11719-.04297-.10547-.04688-.10547-.04296-.10156-.04297-.10547-.01563-.13281.01563-.13281.02734-.11719.03125-.11719.02735-.1211.04687-.10155.08984-.0586.08594-.0625.07422-.07422.08984-.05859.22266-.22266.0586-.08593.07421-.07422.11719-.17969.0586-.08594v-.14844l-.07423-.07421-.10156-.04688-.10547-.04297-.10156-.04297-.0586-.08984-.04687-.10547-.02734-.11719.08984-.05859.11719-.03125.10156-.04297.17969-.11719.14844-.14843.01172-.13282-.01172-.10546-.08985-.0586-.1328.01563h-.14845l-.1328.01562-.13282-.01562-.1211-.03125-.08593-.0586-.07422-.07422-.0586-.08984-.0625-.08594-.11718-.17969-.0586-.08593.03125-.1211.08594-.05859.1211-.03125.05859-.08594v-.1211l-.03125-.11718-.0586-.08984-.05859-.08594-.04687-.10547-.02735-.11719-.01562-.1328.0586-.08985.07421-.07422.08984-.0586.1172-.17968.07421-.07422.0586-.08594.14843-.14844.1211-.03125.1328-.01562.13282.01562.07422.07422.04297.10547.01562.13281-.03125.1172-.11719.03124-.1328.01172-.14844.14844-.04297.10547-.04688.10156-.02734.1211-.03125.11718v.14844l.03125.11719.04297.10546.05859.08985.07422.07031.07422.07422.11719.03125.12109.02734.11719-.02734.1328-.01563h.1172l.08984.0586.07422.07422.04687.10546.0586.08594.10156.04688.13281.01562.10547.04297.08594.0586-.01172.10546-.07422.07422-.17969.11719-.05859.08984-.08984.0586-.07032.07422-.07421.07421-.0625.08985-.02735.11719-.01562.1328.01562.13282-.01562.13281v.14844l.01562.13281.02735.1172.03125.12108.07421.07422.08985.0586.08594.0586.08984.05858.11719.03125v.08594l-.10157.04688-.08984.0586-.26563.03124-.11718.02735h-.14844l-.10547.04296-.10156.04688-.0586.08984-.0625.23438-.01171.13281-.03125.1211-.01563.1328v.29298l-.01172.1328.01172.13673.01563.1328.1328.01563.13282.01172.1211.03125.08593.0586.07422.07421.04688.10547.04296.10157.01563.1328v.44532l-.01563.13281v.44532l.03125.26562.02735.11719.01562.13281.03125.11719.08594.21094.03125.26562v.14844l-.03125.11719-.02734.11718-.03125.1211-.02735.11719-.03125.11718-.03125.1211-.01171.1328-.01563.13282.08984.0586.1172-.03125.10155.01562.04688.10547-.03125.26562v.44141l-.04297.10547-.04688.10547-.04296.10156-.04297.10547-.0586.08594-.03125.12109-.04296.11719-.03125.11719-.01563.1328.01563.13282.05859.08984.10547.04688.08594.0586.05859.08593-.01172.13672-.03125.11719-.04297.10156v.44531l-.01562.13281v.14844l-.03125.11719-.04297.10547-.02735.11719-.04687.10546-.04297.10157-.03125.12109-.02734.11719-.03125.13281-.03125.11719-.02735.11719-.04297.10546-.03125.1172-.03125.12108-.01171.13282-.01563.13281v.29688l.02734.11718v.14844l.04688.39844.02734.11719.0586.08984.12109.03125h.14844l.13281-.01563.0586.08985v.11719l-.0586.08984-.08984.0586-.10157.04296-.10546.04688-.08985.05859-.08594.0586-.13671.01562-.1172-.03125-.1328-.01563-.10157.04688-.0625.08594-.01172.13671-.01562.13282-.03125.11719-.02735.11718-.01562.13281-.03125.1211v.29687l.01563.13282.03125.11718v.14844l.01171.13281v.14844l-.02734.11719-.04688.10156-.02734.1211-.03125.11718-.0586.08985-.07421.07421-.10156.04297-.10547.04688-.11719.02734-.1211.03125-.10156-.04687.0586-.08594.10547-.04688.02734-.11718.03125-.11719.02734-.1211.03125-.11718v-.14844l.01563-.13281-.03125-.11719-.04297-.10547-.10547.01563-.07422.07422-.10156.04296-.08984.0625-.07422.07422-.04297.10157-.01563.1328-.03125.1172L304.25 426l-.03125.11719-.02734.11719-.03125.12109-.02735.11719-.03125.11718-.04297.10547-.08984.0586h-.08984l-.1172-.03125-.03124-.08594.01562-.13672-.03125-.11719v-.14844l-.01171-.1328v-.14844l-.0625-.23438-.02735-.1211-.04297-.10156-.04687-.10546-.0586-.08594-.05859-.08985-.04297-.10546-.0625-.08594-.14844-.14844-.0703-.07422-.10548-.04687-.10547-.04297-.10156-.04297-.29687-.29688-.08985-.07421-.08594-.0586-.10546-.04297-.08985-.0625-.08594-.0586-.10546-.04296-.08985-.0586-.08594-.0625-.07421-.0703-.10547-.04688-.08594-.0586-.10547-.04296-.08984-.0625-.10156-.04297-.10547-.04297-.08594-.0586-.10547-.04687-.10547-.04297-.10156-.04687-.08985-.0586-.10156-.04297-.10547-.04296-.08984-.0625-.11719-.02735-.13281-.01562-.13281.01562H299.75l-.13281.01563-.11719-.03125-.08984-.0586-.07422-.07422-.08985-.05859-.10156-.04688h-.14844l-.12109-.02734-.10156-.04297-.07422-.07422-.11719-.17968-.08984-.0586-.10156-.04297-.08985-.0625-.10547-.04296-.08984-.0586-.08594-.0586-.10547-.04687-.0586-.08594-.05858-.08984-.04297-.10547-.04688-.10156-.07422-.07422-.08594-.0586-.07421-.07421-.08985-.0586-.22265-.22265-.04297-.10547-.03125-.26563.10547-.04296h.14453l.10547.04296.07421.07422.08985.0586.08594.0586.10546.04687.08985.05859.14844.14844.0703.07422.14845.14843.0625.08594.07421.07422.08594.0586.07422.07421.08985.0625.08984.0586.08594.05859.26953.17578.10156.04688.10547.04296.10156.04297.04688-.07421.05859-.08594.07422-.07422.07031-.07422.10547.04297.07422.07422.0586.08984.04296.10156.04688.10547.04296.10547.1211.02735.11719-.02735.07421-.08984.04297-.10547.0586-.08985.07422-.07421.10546-.04297.1172-.02735.1328.01172.08985.0586.14844.14843.05859.08985.04297.10547.04687.10156.04297.10547.04297.10156.10547.04688.10547.04296.13281.01563.08594-.0586.0586-.08984.07421-.07422.10547-.04297.11719.02735.10547.04687.10156.04297.10547.04297.10156.04688.17969.11718v.11719l-.01563.13281.01563.13281.01562.13672.0586.08594.10156.04688.1211.02734.11718.03125h.14844l.11719-.03125.05859-.08984.17969-.1172.05859-.08983.07422-.07422.0586-.08594.11718-.17969.17969-.11719.11719.03125.08984.0586.04297.07422-.01563.1328v.1172l.08985.05859h.14843l.13282-.01563.1328-.01171.26563-.03125.10547-.04297.11719-.03125.1211-.02735.07421-.07421.07031-.07422.0625-.08985-.01562-.10547-.04688-.10156-.10156-.04297-.10547-.01562-.11718.02734-.26563.03125h-.14844l-.07421-.07422-.08985-.0586-.11719-.03124-.11718-.02735-.13282-.01562h-.14843l-.13282.01563h-.29687l-.10547-.04688-.14844-.14844-.04297-.10156-.05859-.08984.22266-.22266.08593-.0586.10547-.04296.11719-.03125.13281-.01563.13281.01563.13672.01562.10157.04297.1328-.01172.08985-.0625.10156-.04297.0625-.08984-.04687-.10156-.08984-.0586-.1172-.03125-.10155-.04296-.0586-.08985-.0625-.08984v-.11719l.01563-.13281.10547-.04688.07421-.07031v-.1211l-.08984-.05859-.03125-.11719.08985-.05859.07421-.07422.04297-.10547.0586-.08984.04687-.10156.01563-.13281v-.14844l-.04688-.10547-.04297-.10156-.08984-.0586-.13281-.01562-.10157-.04297-.13671-.01563-.1172-.03125h-.4453l-.13282-.01562-.13281-.01172-.13281-.01563-.11719-.03125h-.14844l-.13281-.01562-.13281-.01172-.26563-.03125-.1211-.04297-.08593-.0586-.07422-.07421v-.14844l.01172-.13281.10547-.04688.10156-.04296.13281-.01563h.15235l.13281-.01562h.29297l.1211.03125.10156.04296.08984.0586.23438.0625.12109-.04688.08984-.05859.10156-.04297.13282-.01562.10547.04296.10156.04688.13281.01172.1211-.02735h.14453l.12109-.03125.11719-.02734.10547-.04687.07421-.07422.08594-.0586.14844-.14843.0586-.08594.04687-.10547.02734-.11719.01563-.10547-.10156-.04296-.08985-.0586-.11719-.03125-.10546-.04297-.08985-.0625-.07422-.08594-.07422-.07421-.10156-.04297-.10547-.04688-.10156-.04297-.0586-.08984-.04687-.10156-.08594-.21094-.0625-.08594-.05859-.08984-.07422-.07422-.08594-.0586h-.26953l-.11719.03126-.08984.05859-.10156.04297-.13281.01562-.10547-.01562-.02735-.11719-.0625-.08984-.11718-.03125-.10157-.04297-.14843-.14844-.03125-.11719-.01563-.10546.07422-.07422.17969-.1172.11719-.02733.11718-.03125.13672.01562.10156.04297.10547.04297.10156.04687.10547.04297.1172.03125.1328.01563.1172.02734.1328.01563.10547-.01563.08985-.0586-.07422-.07421-.10547-.04297-.07422-.07422-.07422-.08984-.14844-.14844-.08593-.0586-.08985-.05859-.07422-.07422-.08984-.0586-.10156-.04687-.1211-.02734-.10156-.04688-.10547-.04296-.11719-.03125-.10156-.04297-.1211-.03125h-.14843l-.11719.03125-.10546.04297-.08594.0625-.17969.11718-.08594.0586-.08984.0586-.10547.04687-.08594.05859-.10547.04297-.10156.04297-.10547.04687-.07422.07422-.05859.08985-.0586.08593-.04687.10547-.0586.08594-.07421.07422-.13281-.01172-.1172-.03125h-.11718l-.07422.07422-.08984.0586-.07422.07421-.08984.0586-.08594.05859-.10547.04687-.10156.04297-.13672.01563-.10156-.04297-.14844-.14844-.10547-.04688h-.08594l-.10547.04688-.10156.04297-.1211.03125-.11718-.03125-.07422-.07422v-.11719l.03125-.1211.07422-.0703.0586-.08985.07421-.07422.11719-.03125.10547-.04296h.29297l.13281-.01563.13672-.01563.10156-.04296.08985-.0586.10156-.04687.08984-.0586.13281-.01171.08985.05859.13281.01172.08984-.0586.08594-.05859.10547-.04297.08984-.0586.08594-.0625.08985-.05859.14843-.14843.0586-.08594.05859-.08985.10547-.04296.13281-.01563.11719.02735.1211.03125.05859-.0586.05859-.08984.03125-.26563.02734-.11719.10547.01172.13281.01563.10157-.04297.08984-.0586.0586-.08984.07421-.07422.0586-.08984.04687-.10156.01172-.13281-.01172-.13282-.04687-.10547-.14844-.14843-.0586-.08985-.05859-.08594-.04297-.10546v-.44532l.01563-.1328v-.14845l.01172-.1328-.0586-.0586-.08984.0586-.10156-.04298-.17969-.11719-.08594-.05859-.0625-.08984-.0586-.08985-.07421-.07421-.08594-.0586-.1211.03125-.10155.01172-.10547.04688-.08594.05859-.10547.04297-.14844.14844-.08984.05859-.08594.0586-.08984.0625-.10547.04296-.13281.01563v-.1211l.10547-.04297.11718-.03125.07422-.0703.04297-.10548v-.14844l-.02734-.11718-.14844-.14844-.13281-.01563h-.14844l-.11719.03125-.10547.04297-.10156.04297-.08984.0625-.11719.02735-.07422-.07422.01172-.13281-.04297-.10157-.04297-.10547-.08984-.05859-.11719.02734-.1211.03125-.11718.03125-.10156.04297-.1211.03125-.10156.04297-.10547.04297-.08984.0586-.10156.01562v-.11719l.01562-.13281-.0586-.08985-.07421.04297-.14844.14844-.0586.08985-.07421.07421-.04688.10547-.04296.10156-.07422.07422-.0586.08985-.07422.07422-.05859.08593-.07422.07422-.08984.0625-.07422.07031-.07422.07422-.10156.01563-.13281.01562-.10547-.04296v-.1211l.14843-.14844.04297-.10156.0586-.08984.04687-.10156.04297-.10547.0586-.08985.03124-.11719.04297-.10156.03125-.1211.02735-.11718.04687-.10547.04297-.10156.04297-.10547.07422-.07031.08984-.0625.08985-.0586.10156-.04296h.29687l.26563-.03125.10547-.04297-.07422-.07422-.11719-.03125-.10547-.04297-.08984-.0586-.10156-.04687-.08985-.0586-.10156-.04296-.10547-.04297-.08984-.0625-.08594-.0586-.10547-.04296-.10156-.04297-.1211-.03125-.11718-.03125-.10157-.04297L297.5 410.25l-.10156-.04297-.08985-.0586-.04296-.10546-.01563-.13281.10156-.04297.13281-.01563.13672.01563.13282-.01563.10156-.04297.0586-.08984.01562-.10547-.08985-.0586-.07421-.07421-.10157-.04297-.08984-.0586-.14844-.14843-.04297-.10547-.01562-.13281v-.29297l-.0586-.08985-.08984-.05859-.07422-.07422-.04297-.10547-.03125-.11718-.0586-.08985-.07421-.07422-.11719-.02734-.07422-.07422-.08984-.0586-.08984-.0625-.08594-.05859-.07422-.07421-.0586-.08594-.04687-.10547-.08594-.0586-.14843-.14843-.19532-.0586-.1328.01563-.10157.04297-.07422.07422-.04688.10156-.04296.10547-.0586.08984-.0586.08594-.29687.29687-.08984.0586h-.08594l-.0625-.08594-.04297-.10547.03125-.11719.0586-.08984.02734-.11719-.01172-.13281-.08984-.0625-.10547.04688-.11719.02734-.11719.03125-.26953.17578-.10156.04688-.11719.02734-.10546.04687-.08985.0586-.10156.04297-.0586-.08594-.04687-.10547.01563-.13281.04687-.10547.07031-.07422.07422-.07031.0586-.08985v-.14843l-.04297-.10547h-.23829l-.10156.04687-.03125.11719-.02734.11719-.03125.1211-.07422.04296-.13281.01563-.07422-.04688-.04297-.10156-.04297-.10547-.04687-.10156-.04297-.10547-.1211.03125-.10156.04297-.13281.01562-.11719.03125-.10547.04297-.08984.0586-.10156.04687-.1211.02734-.13281.01563-.10156-.04297-.0586-.08985-.04687-.10546-.04297-.10157-.04297-.10546v-.1172l.0586-.08984.08593-.05859.17969-.11719.10156-.04687.10547-.04297.10547-.0586.10156-.04296.08985-.0625.10156-.04297.10547-.0586.10156-.04687.08984-.0586.10547-.04296.10156-.04297.08985-.0625.10156-.04297.13672-.01563.11719.03125.10156.04297.1211.03125.10156.04297.10546.04688.10157.04296.10547.04297.10156.04688.10547.04297.10156.04297.10547.04687.08594.0586.10546.04296.1172.03125.10546.04297.10156.04688.08985.0586.10547.04296.10156.04297.10547.04687.11719.02735.10156.04687.1211.02735h.14843l.08594-.0586.01562-.10156.0586-.08984-.02735-.1172-.07422-.07421-.11719-.17969-.07421-.07422-.08985-.07421-.17969-.1172-.08593-.05859-.10547-.04296-.10156-.04688-.26954-.17578-.05859-.08985-.07422-.07421-.0586-.08985-.04296-.10156-.03125-.11719-.01563-.13672v-.5625l-.01171-.1328-.01563-.13282-.03125-.11719-.01562-.13281-.01172-.13281-.03125-.1211-.22266-.22265-.0586-.08594-.01562-.10547.03125-.11719.13281-.01562v-91.41406H172.9922v1.45312l-.0586.23438-.35156 1.05078-.17187.52343-.1172.34766-.17577.41016-.11719.17187-.23438.29297-.23046.0586h-.35157l-.11718.05859-.23047.40625v.29297l.11719.17578.23046.23047.1172.23437.64062.75781.29297.46485.17578.23437.23047.35156.23437.34766.64063.8164.17578.46485.17187.41016.11719.69531.17578.46875.11719 1.39844.0586.46484v.875l.11718 1.04688v4.78125l-.0586.46484-.35156 1.28125-.17578.52344-.11328.41015-.35156.9297L172.93359 336l-.23437.58203-.11719.17578-.17187.34766-.17578.40625-.35157.8164-.0586.29297-.11327.29297-.11719.28906-.0586.17579-.11718.875-.0586.40625-.05859.11718-.0586.17579-.05859.17187-.23047.52734-.11718.17188v.23437l-.11719.23438-.0586.17187-.17577.58594v.28906l-.0586.17579v.29296l-.0586.11329-.05859.52734v.17187l-.05468.23438v2.6211l-.17578.8164-.1172.17578-.17577.23438-.1172.17187-.11327.23438-.58594.93359-.23047.28906-.29297.46485-.17578.23437-.28906.35156-.35156.69922-.11328.23047-.17579.41016-.17578.23046-.40625.52735-.8164.69922-.29297.17187-.28906.23438-.17579.11719-.17578.17578-.52344.40625-.52734.17578-.17187.17578-.23438.05469-.64062.17578h-.75782m12.21094 31.02344l-1.07422.44921.35938.89454 1.25-.71485.44531-.53906-.98047-.08985"/><path fill="#d3d3d3" fill-opacity="0" fill-rule="evenodd" d="M201.50781 416.59766h-.89453l.44922.6289.98047.35938.80469-.08985.4453-.98828-.17577.08985-.71485-.35547-.89453.35547m154.6211 59.0703l-.0586-.52343v-.29297l.11328-.29297.0586-.23046.46875-.46875h.11328l.11719-.11329.11718-.05859h.17579l.23437-.0586h.34766l.23437.0586.11719.0586.23047.17187.0586.17578.11718.58203v.29297l-.11719.17578-.17187.28906-.17579.17579-.52734.52343-.23047.23438-.11719.0586h-.17578l-.11718-.0586-.40625-.29297-.17579-.11719-.11718-.0586-.0586-.11327-.05468-.1172m6.64062-10.95702l-.0586-.17188v-1.10937l.0586-.17188.17578-.0586.17188-.05858h.17578l.23437-.0586.1172.0586.05858.69921-.05859.17188-.11719.17578-.11718.0586-.23438.52343-.11328.0586h-.23438l-.05859-.1172m9.61328-14.39062l-.11719-.17578v-.69922l.29297-.875.1172-.17187.17577-.35156.11328-.23047.1172-.29297.35155-.75781.1172-.23047.17187-.23438h.17578l.11719-.0586h.64062l.11719.0586.23437.23438.17188.11328.35156.29297.11719.11718.11328.17579v.11328l.11719.05859.11718.11719v.69922l-.05859.17578v.23047l-.0586.17578-.34765 1.05078-.11719.23047-.11719.23437-.11718.0586-.23047.23437-.64063.28906h-.875l-.41015-.11718-.64063-.46485"/><path fill="none" stroke="#bebebe" stroke-linecap="round" stroke-linejoin="round" stroke-miterlimit="10" stroke-width=".5" d="M467.95703 311.69531H144.02734v168.625h323.9297v-168.625"/><g clip-path="url(#a)"><path fill="#fff" fill-opacity="0" fill-rule="evenodd" d="M144 475.89063v4.4375h.0039H144V311.67188h.0039H144v164.21875"/></g><g clip-path="url(#b)"><path fill="#fff" fill-opacity="0" fill-rule="evenodd" d="M144.0039 480.32813V311.67188h84.32423v94.21875l-4.4375.39453-4.4375 1.79687-1.85547 1.23438-1.01563 4.4375 2.8711 3.375.70312 1.0625 1.98828 4.4375-2.6914 1.73046-4.4375-1.28906-.3086-.4414-.88672-4.4375-3.2461-1.52735-4.4375-.26562-4.4375-1-4.4375 1.08594-2.03515 1.70703-2.40625 1.0664-4.4375 1.34375-2.21875 2.02735-2.21875 4.09375-.6289.34765-3.8086 3.55469-.58984.88281-2.17969 4.4375-1.67187 1.40235-3.25782 3.03515-1.17968 3.98047-.4375.45703-4 .7461-4.4375.61328-2.35938 3.08203-1.49219 4.4375-.58593 2.96094-1.22266 1.47656 1.22266 1.47265.5664 2.96485 3.8711 3.66406 4.4375-.32812 4.4375-.78516 4.4375-1.3789 4.4414 1.10937 4.4375-.53906 4.4375.96875 4.4375.4375 4.4414-.40625 4.4375-.41797 4.4375-.0586 2.4336-2.26562 1.07813-4.4375.92578-1.53516 3.03125-2.90234 1.41016-.8125 4.4375-3.22266.36718-.40234 4.07031-3.95703.50391-.48438 3.9336-2.50781 4.4375-.84766 1.32421-1.08203-1.32422-2.48828-.22265-1.94922-4.21484-4.23047-.09375-.20703-.73047-4.4375-1.54688-4.4414 2.3711-.25782 4.1914-4.17968.2461-.88282v5.77344l-3.91016 3.98828 3.91016 3.78125 4.4414-.35156 3.96094-3.42969-3.96094-3.1836-4.4414-.80468v-5.77344l2.69921-3.55468-2.69922-3.19532-.75-1.24218-3.6875-3.42579v-94.21875h48.82422v99.22657l-2.875 2.85547 2.875 2.6875 3.92579-2.6875-3.92579-2.85547v-99.22656h66.57422v114.91015l-.48828.48828.48828.41406.79297-.41406-.79297-.48828V311.67188h4.4375v120.74218l-3.20312 3.53125 3.20312 3.26172v21.14844l-2.38281 2.21875 2.38281 1.82031 2.33985-1.82031-2.33985-2.21875v-21.14844l.97656 1.17578 3.46094 3.41406 3.88672-3.41406-3.88672-3.76172-.82812-.67578-3.60938-3.53125V311.67187h31.07031V444.1211l-.625.69922-3.8164 3.07422-1.42969 1.36719 1.42969 1.35547 2.10156-1.35547 2.33985-3.33985 1.45312-1.10156-1.45313-.69922V311.67188h35.50391v126.5664l-4.4375.98828-2.48047 1.15625-1.95703.5039-4.4375 1.77345-2.85547 2.16015-1.58594 2.58203-1.33984 1.85938-2.33203 4.4375-.76563 1.30469-2.42187 3.1328-2.01563 3.71876-.48828.71875.48829.40625 4.4375 3.92187 4.4375-1.51562 4.4414.60937.22266 1.01954-.22266.6289-4.4414 2.55469-1.47657 1.2539-2.42578 4.4375 3.90235 4.28125 4.4414.02735 4.4375-.05469 4.4375-.25 4.4375-.22265 4.4414.29296 4.4375.03516 4.4375-.4414 4.4375-2.25782 1.87891-1.41015-1.8789-4.1875-.01563-.25.01563-1.21485.88672-3.22265 3.55078-.41016.46094.41015 1.41796 4.4375 2.5625 2.35547 2.38672-2.35546.90625-4.4375 1.07422-4.44141.07031-.5039 2.27735-3.9336-1.95313-4.4375 3.23828-4.4375-3.5625-3.21094-3.05859 3.21094 2.6875 4.4375-4.0664.34765-4.44141 1.59375-2.4961 2.4961-1.9414 3.95312-1.95703-3.95312-2.0625-4.4375-.41797-.33203-4.4375-.26172-4.4375-2.63672-1.54688-1.20703-1.10156-4.4414.33594-4.4375-2.1289-2.14454v-126.5664h53.2578v168.65625H144.00391"/></g><path fill="#50fcfc" fill-rule="evenodd" d="M157.3164 459.60938l-1.22265-1.47266 1.22266-1.47656.58593-2.96094 1.4922-4.4375 2.35937-3.08203 4.4375-.61328 4-.7461.4375-.45703 1.17968-3.98047 3.25782-3.03515v6.02343l-.9375 1.44922-3.5 3.22656-3.1797 1.21485-1.2578.60547-4.4375.48047-2.21094 3.35156-1.16016 4.4375 1.07422 4.4375 2.29688 2.17578 4.4375-.67188 3.65234-1.5039.78516-.70313 4.4375-2.24609 2.34375-1.48828 2.09765-2.4961 4.4375-.86328 2.58594-1.07812-2.58594-.92969-4.4375-.8789-2.8125-2.62891.55078-4.4414-2.17968-1.44923v-6.02343l1.67187-1.40235 2.17969-4.4375.58984-.88281 3.8086-3.55469.6289-.34765 2.21875-4.09375 2.21875-2.02735 4.4375-1.34375 2.40625-1.0664 2.03516-1.70704 4.4375-1.08593v2.8125l-4.4375 1.26953-4.4414 2.23047-1.91016.91797-2.52735 2.02343-1.69531 2.41797-2.1836 4.4375 1.94141 4.4375-.59375 4.4375 2.53125 1.65625 4.4375-.5586 2.78125 3.33985-2.78125 3.72266-.8086.71875.8086 1.25 1.875-1.25 2.5664-1.35938 1.58204 1.35938 1.27734 4.4375-2.85937 1.54687-4.4414-.18359-3.90626 3.07422-.53125 3.8125-.16015.625.16015.0586 4.4375 1.09374 4.4414-1.03125.60157-.1211 3.83594-.71093 4.4375-3.04297.19531-.6836.9961-4.4375 3.24609-1.26562 4.4414-2.85546.39844-.31641 4-4.4414.03906-.04298 4.4375-2.57812L226 440.38282l2.32813-1.14844 2.84765-3.28907-2.84766-2.85547-.69921-1.58203-2.48828-4.4375-1.25-1.8125-2.4336 1.8125-2.0039.35938-.7461-.35938-3.6914-2.73437-1.19141-1.70703-3.25-3.69532-4.4375-.18359-4.4375-.53906v-2.8125l4.4375 1 4.4375.26562 3.2461 1.52735.88671 4.4375.3086.4414 4.4375 1.28906 2.6914-1.73046-1.98828-4.4375-.70313-1.0625-2.87109-3.375 1.01563-4.4375 1.85547-1.23438 4.4375-1.79687 4.4375-.39454v1.75391l-3.20313 1.67188-1.23438.61718-3.92578 3.82032 3.3672 4.4375.55858.82812 4.4375 2.38672 3.22657-3.21484 1.21094-4.35938.0625-.07812-.0625-.07032-2.63672-4.36718-1.80078-1.67188v-1.7539l3.6875 3.42578.75 1.24218 2.69921 3.19532-2.69922 3.55468-.24609.88282-4.1914 4.17968-2.3711.25782 1.54688 4.4414.73047 4.4375.09375.20703 4.21484 4.23047.22266 1.94922 1.32421 2.48828-1.32422 1.08203-4.4375.84766-3.93359 2.50781-.5039.48438-4.07032 3.95703-.36719.40234-4.4375 3.22266-1.41015.8125-3.03125 2.90234-.92578 1.53516-1.07813 4.4375-2.4336 2.26562-4.4375.0586-4.4375.41797-4.4414.40625-4.4375-.4375-4.4375-.96875-4.4375.53906-4.4414-1.10938-4.4375 1.37891-4.4375.78516-4.4375.32812-3.8711-3.66406-.5664-2.96485"/><path fill="#00e8fc" fill-rule="evenodd" d="M159.45703 462.57422l-1.07422-4.4375 1.16016-4.4375 2.21094-3.35156v4.48046l-1.21094 3.3086 1.21094 3.6289 4.32422-3.6289-4.32422-3.3086v-4.48046l4.4375-.48047 1.2578-.60547 3.1797-1.21485 3.5-3.22656.9375-1.44922 2.17968 1.44922-.55078 4.4414 2.8125 2.62892 4.4375.8789 2.58594.92969-2.58594 1.07812-4.4375.86329-2.09765 2.49609-2.34375 1.48828-4.4375 2.2461-.78516.70312-3.65234 1.5039-4.4375.67188-2.29688-2.17578"/><path fill="#00d4fc" fill-rule="evenodd" d="M161.7539 461.76563l-1.21093-3.62891 1.21094-3.3086 4.32422 3.3086-4.32422 3.6289"/><path fill="#00e8fc" fill-rule="evenodd" d="M186.44531 435.94531l-1.9414-4.4375 2.18359-4.4375 1.69531-2.41797 2.52735-2.02343 1.91015-.91797 4.4414-2.23047 4.4375-1.26953 4.4375.53906v1.54297l-4.4375 1.24219-3.63671 1.09375-.80078.26562-3.64063 4.17578-.80078 3.51172-4.4375.60156-.1875.32422.1875.28906 2.23438 4.14844 2.20312 2.0664 3.88672-2.0664.55469-.21094.72656.21094 3.71094 2.51953 4.35156 1.91797-1.0586 4.4375 1.14454 2 4.4375 1.60938 4.4414-2.125 1.41016-1.48438 3.02734-3.2539 1.6797-1.1836.36327-4.4375 2.39453-.33984 2.08985.33984 2.34766.65235.5664-.65235-.5664-.57031-1.71485-3.86719-2.72266-3.53906-4.4375.85547-3.60156-1.7539-.83594-.6211-2.66015-3.82031-1.78125-2.02344-4.4375-.3125V418.75l4.4375.1836 3.25 3.6953 1.1914 1.70704 3.69141 2.73437.7461.35938 2.0039-.35938 2.4336-1.8125 1.25 1.8125 2.48828 4.4375.69922 1.58203 2.84765 2.85547-2.84766 3.28906L226 440.38281l-2.10938 1.8164-4.4375 2.57813-.03906.04297-4 4.4414-.39844.31642-4.4414 2.85546-3.2461 1.26563-.99609 4.4375-.19531.6836-4.4375 3.04296-3.83594.71094-.60156.1211-4.4414 1.03124-4.4375-1.09375-.16016-.0586.16015-.625.53125-3.8125 3.90625-3.07421 4.4414.1836 2.85938-1.54688-1.27734-4.4375-1.58203-1.35938-2.5664 1.35938-1.875 1.25-.8086-1.25.8086-.71875 2.78124-3.72266-2.78125-3.33984-4.4375.5586-2.53125-1.65626.59375-4.4375"/><path fill="#00d4fc" fill-rule="evenodd" d="M188.38281 431.79688l-.1875-.28907.1875-.32422 4.4375-.60156.80078-3.51172 3.64063-4.17578.80078-.26562 3.63672-1.09375 4.4375-1.2422v1.54298l-1.92969.79297-2.50781.94921-4.4375 2.98438-.44531.50781-1.89063 4.4375 2.33594 2.15235 4.4375 1.48046 1.42578.8047 3.01172 2.23827 4.42578 2.19922-1.09766 4.4375 1.10938.7539 1.48437-.7539 2.95703-2.07031 2.16407-2.36719.78515-4.4375 1.48828-2.07031 4.4375.20313 1.70704-2.57032-1.70703-2.21875-4.4375.92578-3.78907 1.29297-.64844.39844-.41406-.39844-4.02734-3.78515-.52344-.65235.52344-2.48437.3125-1.95703-.3125-.35547-4.4375-.4375v-1.54297l4.4375.3125 1.78125 2.02344 2.66016 3.8203.83593.6211 3.60156 1.7539 4.4375-.85546 2.72266 3.53906 1.71484 3.86719.56641.57031-.5664.65235-2.34766-.65235-2.08984-.33984-2.39454.33984-.36328 4.4375-1.67969 1.1836-3.02734 3.2539-1.41016 1.48438-4.4414 2.125-4.4375-1.60938-1.14453-2 1.0586-4.4375-4.35157-1.91797-3.71094-2.51953-.72656-.21094-.55469.21094-3.88672 2.0664-2.20312-2.0664-2.23438-4.14844"/><path fill="#00c4fc" fill-rule="evenodd" d="M197.26172 433.66016l-2.33594-2.15235 1.89063-4.4375.4453-.50781 4.4375-2.98438 2.50782-.94921 1.92969-.79297v2.23828l-4.4375.92187-2.79297 2.07422-1.64453 4.25-.08594.1875.08594.07813 4.4375 1.86719 4.41016 2.49218.02734.01953 4.4375 1.01172 4.4414 1.65625 1.1172-2.6875-1.1172-1.53125-3.0039-2.90625-1.4375-1.35156-2.47656-3.08594-1.96094-2.9961v-2.23827l4.4375.4375.3125.35547-.3125 1.95703-.52344 2.48437.52344.65235 4.02734 3.78515.41406.39844.64844-.39844 3.78906-1.29297 4.4375-.92578v1.32031l-4.01562.89844 4.01563 1.03906.6914-1.03906-.6914-.89844v-1.3203l1.70703 2.21874-1.70703 2.57031-4.4375-.20312-1.48829 2.07031-.78515 4.4375-2.16406 2.36719-2.95704 2.07031-1.48437.7539-1.10938-.7539 1.09766-4.4375-4.42578-2.19922-3.01172-2.23828-1.42578-.80469-4.4375-1.48046"/><path fill="#00b8fc" fill-rule="evenodd" d="M197.26172 431.58594l-.08594-.07813.08594-.1875 1.64453-4.25 2.79297-2.07422v1.41407l-.88672.66015.26953 4.4375.61719.26172 4.4375 2.0664 3.15234-2.32812-3.14062-4.4375-.01172-.01953-4.4375-.64062v-1.41407l4.4375-.92187 1.96094 2.9961 2.47656 3.08593 1.4375 1.35156 3.0039 2.90625 1.1172 1.53125-1.1172 2.6875-4.4414-1.65625-4.4375-1.01172-.02734-.01953-4.41016-2.49219-4.4375-1.86718"/><path fill="#00a8fc" fill-rule="evenodd" d="M201.08203 431.50781l-.26953-4.4375.88672-.66015 4.4375.64062v4.07422l-.4414.38281.4414.19922.26953-.19922-.26953-.38281v-4.07422l.01172.01953 3.14062 4.4375-3.15234 2.32813-4.4375-2.0664-.61719-.26173"/><path fill="#009800" fill-rule="evenodd" d="M206.13672 431.70703l-.4414-.19922.4414-.38281.26953.38281-.26953.19922"/><path fill="#00b8fc" fill-rule="evenodd" d="M223.89063 432.54688l-4.01563-1.03907 4.01563-.89844.6914.89844-.6914 1.03906"/><path fill="#00e8fc" fill-rule="evenodd" d="M223.33203 418.1914l-3.36719-4.4375 3.92578-3.8203v2.8125l-1.03515 1.0078 1.03516 1.26563 2.09375 3.17188 2.34375 1.60937 1.61328-1.60937-1.61328-4.02735-.98047-.41015-3.45703-1.00782v-2.8125l1.23437-.61718 3.20313-1.67188 1.80078 1.67188 2.63672 4.36718.0625.07032-.0625.07812-1.21094 4.35938-3.22656 3.21484-4.4375-2.38672-.5586-.82812"/><path fill="#00d4fc" fill-rule="evenodd" d="M223.89063 415.01953l-1.03516-1.26562 1.03516-1.00782 3.45703 1.00782.98047.41015v4.03125l.0039-.0039-.0039-.00391v-4.02344l1.61328 4.02735-1.61328 1.60937-2.34375-1.60937-2.09375-3.17188"/><path fill="#00c4fc" fill-rule="evenodd" d="M228.32813 418.19531v-.00781l.0039.0039-.0039.00391"/><path fill="#50fcfc" fill-rule="evenodd" d="M232.76563 430.85156l-3.91016-3.78125 3.91016-3.98828v1.54297l-2.39454 2.44531 2.39453 2.3164 4.44141-1.59374.83594-.72266-.83594-.67578-4.4414-1.76953v-1.54297l4.4414.80469 3.96094 3.1836-3.96094 3.42968-4.4414.35156"/><path fill="#00e8fc" fill-rule="evenodd" d="M232.76563 429.38672l-2.39454-2.3164 2.39453-2.44532 4.44141 1.76953.83594.67578-.83594.72266-4.4414 1.59375"/><path fill="#50fcfc" fill-rule="evenodd" d="M277.15234 416.4414l-2.875-2.6875 2.875-2.85546 3.92579 2.85547-3.92579 2.6875m66.57422 11.04296l-.48828-.41406.48828-.48828.79297.48828-.79297.41406m4.4375 11.72266l-3.20312-3.26172 3.20312-3.53125v2.20703l-1.20312 1.32422 1.20312 1.22266 2.67188 3.21484 1.76562 1.74219 1.98438-1.74219-1.98438-1.91797-3.08203-2.51953-1.35547-1.32422v-2.20703l3.60938 3.53125.82812.67578 3.88672 3.76172-3.88672 3.41406-3.46094-3.41406-.97656-1.17578m0 25.1875l-2.38281-1.82031 2.38281-2.21875 2.33985 2.21875-2.33985 1.82031"/><path fill="#00e8fc" fill-rule="evenodd" d="M348.16406 437.16797l-1.20312-1.22266 1.20312-1.32422 1.35547 1.32422 3.08203 2.51953 1.98438 1.91797-1.98438 1.74219-1.76562-1.74219-2.67188-3.21484"/><path fill="#50fcfc" fill-rule="evenodd" d="M374.79297 450.61719l-1.42969-1.35547 1.42969-1.36719 3.8164-3.07422.625-.69922 1.45313.69922-1.45313 1.10156-2.33984 3.33985-2.10156 1.35547"/><g clip-path="url(#c)"><path fill="#50fcfc" fill-rule="evenodd" d="M388.10938 462.98047l-.48829-.40625.48829-.71875 2.01562-3.71875 2.42188-3.13281.76562-1.3047 2.33203-4.4375 1.33985-1.85937 1.58593-2.58203 2.85547-2.16015 4.4375-1.77344 1.95703-.5039 2.48047-1.15626v3.5625l-4.4375.9375-1.65625 1.09375 1.65625 3.08203 2.70703 1.35938-2.70703 1.14453-4.4375.6211-2.875 2.67187 1.32813 4.4375-2.89454 4.14453-4.4375-.3086-.39843.60157.39844.36719 4.4375-.28907 4.4414.21875.91797 4.14454-.91797 2.5703-2.47265 1.8672-1.96875.9414-2.88672 3.4961 2.88671 3.16406 4.44141.83203 4.4375-.07031 4.4375-.69922 4.4375-.57031 4.4414.8125 4.4375.08984 4.4375-1.0625 3.35548-2.4961.14062-4.4375-1.10937-4.4375.34765-4.4414-2.73437-3.9375-.4336-.5-4.0039-2.90625-4.4375-1.39844-.21485-.13281-4.22656-3.6875-3.40625-.75 1.1289-4.4414-2.16015-2.03126v-3.5625l4.4375-.98828 2.1289 2.14453-.33593 4.4375 1.10156 4.4414 1.54688 1.20704 4.4375 2.63672 4.4375.26172.41797.33203 2.0625 4.4375 1.95703 3.95312 1.9414-3.95312 2.4961-2.4961 4.4414-1.59375v.78125l-4.26562 3.3086-.17578.67969-2.26563 3.7578 2.26563 1.97657 2.77344 2.46485 1.66796 3.30078 1.37891-3.30079 1.63672-4.4414.8789-4.4375-3.89453-3.3086v-.78125l4.06641-.34765-2.6875-4.4375 3.0586-3.21094v2.21485l-.94923.99609.94922 1.41406 1.10547-1.41406-1.10547-.9961v-2.21484l3.5625 3.21094-3.23828 4.4375 1.95313 4.4375-2.27735 3.9336-.0703.5039-1.07423 4.4414-.90625 4.4375-2.38672 2.35547-2.5625-2.35546-1.41796-4.4375-.46094-.41016-3.55078.41015-.88672 3.22266-.01563 1.21485.01563.25 1.8789 4.1875-1.8789 1.41015-4.4375 2.25781-4.4375.44141-4.4375-.03516-4.4414-.29296-4.4375.22265-4.4375.25-4.4375.05469-4.44142-.02735-3.90234-4.28125 2.42578-4.4375 1.47656-1.2539 4.44141-2.55469.22266-.6289-.22266-1.01954-4.4414-.60937-4.4375 1.51562-4.4375-3.92187"/></g><path fill="#00e8fc" fill-rule="evenodd" d="M392.54688 462.9414l-.39844-.36718.39844-.60156 4.4375.30859 2.89453-4.14453-1.32813-4.4375 2.875-2.67188 4.4375-.62109 2.70703-1.14453-2.70703-1.35938-1.65625-3.08203 1.65625-1.09375 4.4375-.9375v10.15625l-.9414.7539-3.30079 4.4375-.1953 1.46485-1.48048 2.97266-.88672 4.4414-1.60546 4.4375-.46485.26172-4.4414 2.73438-1.1875 1.4414 1.1875 1.3047 4.4414 2.17187 4.4375-.10156 4.4375-1.4375 4.4375-1.15625 4.4414 1.67578 4.4375.1875 4.4375-2.09375.73829-.55079 1.21484-4.4375-1.95312-3.5039-1.44531-.9336 1.1289-4.4414-3.97656-4.4375-.14453-.10547-4.4375-1.66406-4.21485-2.66797-.22656-.19531-4.4375-.5586v-10.15625l2.16016 2.03125-1.1289 4.4414 3.40624.75 4.22656 3.6875.21485.13282 4.4375 1.39844 4.0039 2.90625.4336.5 2.73437 3.9375-.34765 4.4414 1.10937 4.4375-.14062 4.4375-3.35547 2.4961-4.4375 1.0625-4.4375-.08985-4.4414-.8125-4.4375.57032-4.4375.69922-4.4375.0703-4.44142-.83202-2.88671-3.16406 2.88671-3.4961 1.96875-.9414 2.47266-1.8672.91797-2.5703-.91797-4.14454-4.4414-.21875-4.4375.28907"/><path fill="#00d4fc" fill-rule="evenodd" d="M396.98438 477.19531l-1.1875-1.30469 1.1875-1.4414 4.4414-2.73438.46485-.26171 1.60546-4.4375.88672-4.44141 1.48047-2.97266.19531-1.46484 3.30079-4.4375.9414-.7539 4.4375.55859v.78125l-4.4375.15625-3.39844 3.6953-.41796 4.4375-.6211 1.48438-1.21484 2.95704-1.65235 4.4375-1.5703.89062-4.21876 3.54688 4.21875 2.95703 4.4375-.12891 4.4375-2.1836 2.04688-.64452 2.39062-.44532 1.28906.44531 3.15235 1.44532 4.4375.28515 3.21484-1.73046 1.22266-3.2422.41015-1.1953-.41015-.73438-4.4375-2.92969-.26953-.77344.26953-1.72656 1.32812-2.71484-1.32812-1.46875-4.4375-2.4375-.20703-.53125-4.23438-3.85156v-.78125l.22656.1953 4.21485 2.66798 4.4375 1.66406.14453.10547 3.97656 4.4375-1.1289 4.4414 1.4453.9336 1.95313 3.5039-1.21484 4.4375-.73828.55079-4.4375 2.09375-4.4375-.1875-4.4414-1.67579-4.4375 1.15625-4.4375 1.4375-4.4375.10157-4.44142-2.17188"/><path fill="#00c4fc" fill-rule="evenodd" d="M401.42578 478.84766l-4.21875-2.95704 4.21875-3.54687 1.57031-.89063 1.65235-4.4375 1.21484-2.95703.6211-1.48437.41796-4.4375 3.39844-3.69531 4.4375-.15625v.62109l-4.4375.44922-2.55469 2.78125-.08203 4.4375-1.80078 4.29297-.0586.14844-1.70312 4.4375-2.67578 1.51562-3.47265 2.92188 3.47265 2.43359 4.4375-.15625 3.96094-2.27735.47656-.48046 4.4375-.72657 3.5 1.20704.9414.42968 4.4375.38281 1.51173-.8125.11328-4.4375-1.625-1.09375-1.15625-3.34375-.17188-4.4414-3.10937-2.15235-.89063-2.28515-3.55078-3.23047v-.6211l4.23438 3.85157.20703.53125 4.4375 2.4375 1.32812 1.46875-1.32812 2.71484-.26953 1.72656.26953.77344 4.4375 2.92969.41015.73438-.41015 1.1953-1.22266 3.2422-3.21484 1.73046-4.4375-.28515-3.15235-1.44531-1.28906-.44532-2.39062.44531-2.04688.64454-4.4375 2.18359-4.4375.1289"/><path fill="#00b8fc" fill-rule="evenodd" d="M401.42578 478.32422l-3.47265-2.4336 3.47265-2.92187 2.67578-1.51563 1.70313-4.4375.0586-.14843 1.80077-4.29297.08203-4.4375 2.5547-2.78125 4.4375-.44922v.61719l-4.4375.75-1.71095 1.86328.25782 4.4375-2.0586 4.4414-.92578 2.72657-.65625 1.71094-3.78125 2.14062-2.73047 2.29688 2.73047 1.91406 4.4375-.1836 3.00781-1.73046 1.4297-1.4375 4.4375-.53516 4.4414 1.03515 3.4961-3.5-1.10157-4.4375-1.82422-4.4414-.57031-.39453-1.57031-4.04297-2.8711-2.61328v-.61719l3.55078 3.23047.89063 2.28515 3.10937 2.15235.17188 4.4414 1.15625 3.34375 1.625 1.09375-.11328 4.4375-1.51172.8125-4.4375-.3828-.9414-.4297-3.5-1.20703-4.4375.72657-.47657.48046-3.96094 2.27735-4.4375.15625"/><path fill="#00a8fc" fill-rule="evenodd" d="M401.42578 477.80469l-2.73047-1.91406 2.73047-2.29688 3.78125-2.14063.65625-1.71093.92578-2.72656 2.0586-4.44141-.25782-4.4375 1.71094-1.86328 4.4375-.75v.6211l-4.4375 1.04687-.8711.9453.59766 4.4375-2.26171 4.44142-1.19532 4.4375-.70703.70312-4.4375 2.0625-1.98828 1.67188 1.98828 1.39062 4.4375-.21094 2.05469-1.17969 2.38281-2.39453 4.4375-.33984 4.4414.16016 1.86329-1.86329-.35547-4.4375-1.50781-3.05468-.59766-1.38672-1.65625-4.4375-2.1875-1.99219v-.6211l2.8711 2.61329 1.5703 4.04297.57032.39453 1.82422 4.4414 1.10156 4.4375-3.4961 3.5-4.4414-1.03515-4.4375.53515-1.42969 1.4375-3.0078 1.73047-4.4375.1836"/><path fill="#009800" fill-rule="evenodd" d="M401.42578 477.28125l-1.98828-1.39063 1.98828-1.67187 4.4375-2.0625.70703-.70313 1.19531-4.4375 2.26172-4.4414-.59765-4.4375.8711-.94531 4.4375-1.04688v.6211l-4.4375 1.34375-.02735.02734.02734.17578.71875 4.26172-.71875 1.4414-1.5586 3-.42187 4.4375-2.45703 2.4375-4.4375.95313-1.24219 1.04688 1.2422.87109 4.4375-.23828 1.10155-.63281 3.33594-3.35157 4.4375-.14453 4.4414-.71484.22657-.22656.39453-4.4375-.6211-1.26172-1.37109-3.1797-1.5625-4.4375-1.5078-1.37108v-.6211l2.1875 1.99219 1.65624 4.4375.59766 1.38672 1.50781 3.05469.35547 4.4375-1.86328 1.86328-4.4414-.16016-4.4375.33984-2.38282 2.39454-2.05469 1.17968-4.4375.21094"/><path fill="#00ac00" fill-rule="evenodd" d="M401.42578 476.76172l-1.24219-.8711 1.2422-1.04687 4.4375-.95313 2.45702-2.4375.42188-4.4375 1.5586-3 .71874-1.4414-.71875-4.26172-.02734-.17578.02734-.02735 4.4375-1.34375v.6211l-2.46484.75-.32031 4.4375-1.65235 3.3164-.58203 1.125.35156 4.4375-4.20703 4.17188-4.4375-.15234-.5.41796.5.34766 4.4375-.26562.14453-.08204 4.29297-4.3125 4.4375.0547.95703-.1797 2.00781-4.4375-.66406-4.4414-1.47656-4.4375-.82422-.75v-.6211l1.50781 1.3711 1.5625 4.4375 1.3711 3.17969.6211 1.26171-.39454 4.4375-.22656.22657-4.4414.71484-4.4375.14453-3.33595 3.35156-1.10156.63282-4.4375.23828"/><path fill="#00c800" fill-rule="evenodd" d="M401.42578 476.23828l-.5-.34765.5-.41797 4.4375.15234 4.20703-4.17188-.35156-4.4375.58203-1.125 1.65235-3.3164.3203-4.4375 2.46485-.75v2.73047l-.91406 2.45703.91406 1.82812.75781-1.82812-.7578-2.45703v-2.73047l.82421.75 1.47656 4.4375.66406 4.4414-2.0078 4.4375-.95704.1797-4.4375-.0547-4.29297 4.3125-.14453.08204-4.4375.26562"/><path fill="#10cc00" fill-rule="evenodd" d="M414.73828 464.40234l-.91406-1.82812.91406-2.45703.75781 2.45703-.7578 1.82812"/><path fill="#00e8fc" fill-rule="evenodd" d="M436.92969 464.55078l-2.26563-1.97656 2.26563-3.75781.17578-.6797 4.26562-3.30858v1.30078l-2.58593 2.0078.60156 4.4375 1.98437 1.66798.76563-1.66797 1.59765-4.4375-2.36328-2.00781v-1.30079l3.89454 3.3086-.87891 4.4375-1.63672 4.4414-1.3789 3.30079-1.66798-3.30079-2.77343-2.46484"/><path fill="#00d4fc" fill-rule="evenodd" d="M439.38672 462.57422l-.60156-4.4375 2.58593-2.00781v1.30078l-.91015.70703.91015 2.0039.82813-2.0039-.82813-.70703v-1.30078l2.36329 2.0078-1.59766 4.4375-.76563 1.66798-1.98437-1.66797"/><path fill="#00c4fc" fill-rule="evenodd" d="M441.3711 460.14063l-.91016-2.00391.91015-.70703.82813.70703-.82813 2.0039"/><path fill="#00e8fc" fill-rule="evenodd" d="M445.8086 450.67578l-.94923-1.41406.94922-.9961 1.10547.9961-1.10547 1.41406"/><g clip-path="url(#d)"><path fill="#fff" fill-opacity="0" fill-rule="evenodd" d="M467.9961 480.32813H468V311.67188h-.0039H468v168.65625h-.0039"/></g><path fill="#fff" fill-opacity="0" fill-rule="evenodd" d="M452.96094 461.83984l.32422-5.83203-9.94532-.54687-.32421 5.83203 9.9453.54687"/><path fill-rule="evenodd" d="M445.03906 457.89844l.02735-.50781 6.28515.34765-.04297.78516-4.48046-.2461-.07813 1.38672-.55469-.03125-.03515-.5625-.03907-.2539-.07812-.23438-.1289-.21094-.19923-.1875-.28515-.15625-.39063-.1289"/><path fill="#fff" fill-opacity="0" fill-rule="evenodd" d="M227.42578 428.42969l5.26953-2.52344-4.30078-8.98438-5.26953 2.51954 4.30078 8.98828"/><path fill-rule="evenodd" d="M227.07422 419.58594l.45703-.21875 2.71875 5.67578-.71094.33984-1.9375-4.04687-1.2539.59765-.23828-.5.47656-.30078.20312-.15625.16797-.17969.125-.21875.0664-.26171v-.32813l-.07421-.40234"/><g clip-path="url(#e)"><path fill="none" stroke="#000" stroke-linecap="round" stroke-linejoin="round" stroke-miterlimit="10" stroke-width=".5" d="M145.88281 477.36328l-3.76562 5.92969"/></g><path fill="none" stroke="#000" stroke-linecap="round" stroke-linejoin="round" stroke-miterlimit="10" stroke-width=".5" d="M145.33594 478.22656l1.22265.09375"/><g clip-path="url(#f)"><path fill="none" stroke="#000" stroke-linecap="round" stroke-linejoin="round" stroke-miterlimit="10" stroke-width=".5" d="M158.61328 477.0625l-2.59375 6.53125"/></g><path fill="none" stroke="#000" stroke-linecap="round" stroke-linejoin="round" stroke-miterlimit="10" stroke-width=".5" d="M158.23438 478.01172l1.21875-.13281"/><g clip-path="url(#g)"><path fill="none" stroke="#000" stroke-linecap="round" stroke-linejoin="round" stroke-miterlimit="10" stroke-width=".5" d="M172.95703 477.69531l-4.65234 5.26563"/></g><path fill="none" stroke="#000" stroke-linecap="round" stroke-linejoin="round" stroke-miterlimit="10" stroke-width=".5" d="M172.27734 478.46094l1.19532.28515"/><g clip-path="url(#h)"><path fill="none" stroke="#000" stroke-linecap="round" stroke-linejoin="round" stroke-miterlimit="10" stroke-width=".5" d="M186.46094 477.8789l-5.03125 4.90235"/></g><path fill="none" stroke="#000" stroke-linecap="round" stroke-linejoin="round" stroke-miterlimit="10" stroke-width=".5" d="M185.73047 478.58984l1.16797.375"/><g clip-path="url(#i)"><path fill="none" stroke="#000" stroke-linecap="round" stroke-linejoin="round" stroke-miterlimit="10" stroke-width=".5" d="M200.17969 482.28516l-5.83594-3.91407"/></g><g clip-path="url(#j)"><path fill="none" stroke="#000" stroke-linecap="round" stroke-linejoin="round" stroke-miterlimit="10" stroke-width=".5" d="M210.64063 483.83984l-.12891-7.02343"/></g><g clip-path="url(#k)"><path fill="none" stroke="#000" stroke-linecap="round" stroke-linejoin="round" stroke-miterlimit="10" stroke-width=".5" d="M224.5039 483.78906l-1.22656-6.92187"/></g><g clip-path="url(#l)"><path fill="none" stroke="#000" stroke-linecap="round" stroke-linejoin="round" stroke-miterlimit="10" stroke-width=".5" d="M237.32031 483.83984l-.23047-7.02343"/></g><g clip-path="url(#m)"><path fill="none" stroke="#000" stroke-linecap="round" stroke-linejoin="round" stroke-miterlimit="10" stroke-width=".5" d="M251.61328 483.66797l-2.1836-6.67969"/></g><g clip-path="url(#n)"><path fill="none" stroke="#000" stroke-linecap="round" stroke-linejoin="round" stroke-miterlimit="10" stroke-width=".5" d="M267.26563 481.09375l-6.85938-1.53125"/></g><g clip-path="url(#o)"><path fill="none" stroke="#000" stroke-linecap="round" stroke-linejoin="round" stroke-miterlimit="10" stroke-width=".5" d="M266.26563 480.8711l.32812 1.18359"/></g><g clip-path="url(#p)"><path fill="none" stroke="#000" stroke-linecap="round" stroke-linejoin="round" stroke-miterlimit="10" stroke-width=".5" d="M280.58594 479.59766l-6.8711 1.46484"/></g><g clip-path="url(#q)"><path fill="none" stroke="#000" stroke-linecap="round" stroke-linejoin="round" stroke-miterlimit="10" stroke-width=".5" d="M279.58594 479.8086l.78906.9414"/></g><g clip-path="url(#r)"><path fill="none" stroke="#000" stroke-linecap="round" stroke-linejoin="round" stroke-miterlimit="10" stroke-width=".5" d="M293.36328 478.34375l-5.79687 3.96875"/></g><path fill="none" stroke="#000" stroke-linecap="round" stroke-linejoin="round" stroke-miterlimit="10" stroke-width=".5" d="M292.51953 478.92188l1.08985.5664"/><g clip-path="url(#s)"><path fill="none" stroke="#000" stroke-linecap="round" stroke-linejoin="round" stroke-miterlimit="10" stroke-width=".5" d="M306.73438 478.42578l-5.90625 3.8086"/></g><path fill="none" stroke="#000" stroke-linecap="round" stroke-linejoin="round" stroke-miterlimit="10" stroke-width=".5" d="M305.875 478.98047l1.07031.59765"/><g clip-path="url(#t)"><path fill="none" stroke="#000" stroke-linecap="round" stroke-linejoin="round" stroke-miterlimit="10" stroke-width=".5" d="M320.53906 479.625l-6.88672 1.40625"/></g><g clip-path="url(#u)"><path fill="none" stroke="#000" stroke-linecap="round" stroke-linejoin="round" stroke-miterlimit="10" stroke-width=".5" d="M319.53516 479.83203l.78125.94531"/></g><g clip-path="url(#v)"><path fill="none" stroke="#000" stroke-linecap="round" stroke-linejoin="round" stroke-miterlimit="10" stroke-width=".5" d="M333.76563 479.28125l-6.70704 2.09766"/></g><g clip-path="url(#w)"><path fill="none" stroke="#000" stroke-linecap="round" stroke-linejoin="round" stroke-miterlimit="10" stroke-width=".5" d="M333.76563 479.28125l1.74609 1.72266"/></g><g clip-path="url(#x)"><path fill="none" stroke="#000" stroke-linecap="round" stroke-linejoin="round" stroke-miterlimit="10" stroke-width=".5" d="M344.58984 476.92188l-1.72656 6.8125"/></g><path fill="none" stroke="#000" stroke-linecap="round" stroke-linejoin="round" stroke-miterlimit="10" stroke-width=".5" d="M344.33984 477.91406l1.19141-.29297"/><g clip-path="url(#y)"><path fill="none" stroke="#000" stroke-linecap="round" stroke-linejoin="round" stroke-miterlimit="10" stroke-width=".5" d="M358.01953 476.95313l-1.95703 6.75"/></g><path fill="none" stroke="#000" stroke-linecap="round" stroke-linejoin="round" stroke-miterlimit="10" stroke-width=".5" d="M357.73438 477.9375l1.19921-.2539"/><g clip-path="url(#z)"><path fill="none" stroke="#000" stroke-linecap="round" stroke-linejoin="round" stroke-miterlimit="10" stroke-width=".5" d="M373.01172 478.02734l-5.3125 4.60157"/></g><path fill="none" stroke="#000" stroke-linecap="round" stroke-linejoin="round" stroke-miterlimit="10" stroke-width=".5" d="M372.23828 478.69922l1.14453.4414"/><g clip-path="url(#A)"><path fill="none" stroke="#000" stroke-linecap="round" stroke-linejoin="round" stroke-miterlimit="10" stroke-width=".5" d="M386.61719 478.41406l-5.89063 3.83203"/></g><path fill="none" stroke="#000" stroke-linecap="round" stroke-linejoin="round" stroke-miterlimit="10" stroke-width=".5" d="M386.61719 478.41406l2.14453 1.1875"/><g clip-path="url(#B)"><path fill="none" stroke="#000" stroke-linecap="round" stroke-linejoin="round" stroke-miterlimit="10" stroke-width=".5" d="M385.75781 478.96875l2.14844 1.1875"/></g><g clip-path="url(#C)"><path fill="none" stroke="#000" stroke-linecap="round" stroke-linejoin="round" stroke-miterlimit="10" stroke-width=".5" d="M399.53125 477.90625l-5.08984 4.84375"/></g><path fill="none" stroke="#000" stroke-linecap="round" stroke-linejoin="round" stroke-miterlimit="10" stroke-width=".5" d="M399.53125 477.90625l2.32813.77734m-3.07032-.0703l1.16406.38671"/><g clip-path="url(#D)"><path fill="none" stroke="#000" stroke-linecap="round" stroke-linejoin="round" stroke-miterlimit="10" stroke-width=".5" d="M412.19922 477.3711l-3.79688 5.91406"/></g><path fill="none" stroke="#000" stroke-linecap="round" stroke-linejoin="round" stroke-miterlimit="10" stroke-width=".5" d="M412.19922 477.3711l2.44531.19921m-2.9961.66016l1.22266.10156"/><g clip-path="url(#E)"><path fill="none" stroke="#000" stroke-linecap="round" stroke-linejoin="round" stroke-miterlimit="10" stroke-width=".5" d="M425.20703 477.19531l-3.17969 6.26563"/></g><g clip-path="url(#F)"><path fill="none" stroke="#000" stroke-linecap="round" stroke-linejoin="round" stroke-miterlimit="10" stroke-width=".5" d="M437.67188 483.76172l-1.48047-6.86719"/></g><g clip-path="url(#G)"><path fill="none" stroke="#000" stroke-linecap="round" stroke-linejoin="round" stroke-miterlimit="10" stroke-width=".5" d="M453.5664 481.47656l-6.64062-2.29687"/></g><g clip-path="url(#H)"><path fill="none" stroke="#000" stroke-linecap="round" stroke-linejoin="round" stroke-miterlimit="10" stroke-width=".5" d="M452.60156 481.14063l.1914 1.21484"/></g><g clip-path="url(#I)"><path fill="none" stroke="#000" stroke-linecap="round" stroke-linejoin="round" stroke-miterlimit="10" stroke-width=".5" d="M466.9414 481.28516l-6.76171-1.91016"/></g><g clip-path="url(#J)"><path fill="none" stroke="#000" stroke-linecap="round" stroke-linejoin="round" stroke-miterlimit="10" stroke-width=".5" d="M147.39844 466.11719l-6.79688 1.79297"/></g><path fill="none" stroke="#000" stroke-linecap="round" stroke-linejoin="round" stroke-miterlimit="10" stroke-width=".5" d="M146.41016 466.3789l.83203.90235m13.48437-1.10156l-6.82422 1.66797m5.83203-1.42578l.81641.91796m13.58203-.60547l-7.0039.5586m5.98437-.47656l.66016 1.03515m13.65234-1.3125l-6.96094.94922m5.94922-.8125l.71485.9961m13.64453-.77344l-7.02344.23047m6-.19532l.60938 1.0625m13.71484-.66797l-7-.6289m5.98047.53906l.47656 1.1289m13.07031.88282l-5.42187-4.47266m4.63281 3.82032l-.2461 1.20312m13.78126-.0039l-4.28516-5.56641m3.66016 4.75781l-.50391 1.11719m14.08203-.0625l-3.5625-6.0586m3.04297 5.17579l-.64063 1.04687m16.03516-2.10156l-6.67969-2.1836m5.70704 1.86329l.21093 1.21093m14.23438-2.33203l-6.99219.69922m5.97266-.59766l.67968 1.01954m13.55079-1.6875l-6.78516 1.83203m6.78515-1.83203l1.67579 1.79296m11.57421-1.99609l-6.66015 2.23828m6.66015-2.23828l1.78516 1.6836m11.69531-.94141l-6.98828.7539m5.97266-.64453l.6875 1.01563m13.65234-1.01172l-7.00781.52734m7.00781-.52734l1.3125 2.07422m11.8711-2.79688L340.35156 468m6.7461-1.97266l1.71484 1.75782m11.13672-2.7422l-5.8164 3.94141m4.96874-3.37109l1.08594.57422m13.61328 1.51172l-6.89062-1.3711m5.89062 1.17188l.35156 1.17578m13.9336-2.48437l-6.83203 1.64453m5.83984-1.40625l.8125.91797m12.90625 1.7539l-5.65234-4.17578m5.65234 4.17578l-.35938 2.42578m10.1836-1.0625l1.32812-6.90234m-1.13671 5.89844l-1.17188.35937m18.23438-4.08594l-6.54688 2.5586m18.71875 1.51172l-4.26563-5.58203m3.64844 4.76953l-.51172 1.11718m15.10157-.96093l-5.57813-4.26953m4.76953 3.64843l-.20312 1.21094m14.54297-.90234l-6.00782-3.64453m5.13282 3.11328l-.07032 1.22656"/><g clip-path="url(#K)"><path fill="none" stroke="#000" stroke-linecap="round" stroke-linejoin="round" stroke-miterlimit="10" stroke-width=".5" d="M147.51172 453.78125l-7.02344-.16406"/></g><path fill="none" stroke="#000" stroke-linecap="round" stroke-linejoin="round" stroke-miterlimit="10" stroke-width=".5" d="M146.49219 453.75781l.54687 1.09766m13.78906-1.2539l-7.02343.1953m6-.16796l.60547 1.0664m13.5625.08203l-6.6875-2.15625M173 454.46094l.21875 1.20703m14.23828-1.92188l-7.02344-.09375m6.00391.07813l.5586 1.08984m13.70702-.42969l-6.88671-1.38671m6.88672 1.38671l.70312 2.35157m12.67188-3.32032l-7.00391.5547m7.0039-.5547l1.32032 2.07032m12.0039-1.76172l-7.02343-.0625m7.02343.0625l1.13282 2.17578m11.98828-1.05078l-6.63672-2.3125m5.67187 1.97656l.1875 1.21094m13.55078.1211l-5.55468-4.3047m4.7461 3.6797l-.20704 1.20702m14.59766-.97656l-6.08594-3.51953m5.19922 3.00781l-.04297 1.22656m14.6914-2.0703l-6.98046-.8047m5.96484.6875l.44922 1.14063m13.89844-1.64453l-7.01172.4375m5.99219-.375l.64062 1.04687m13.53906-1.94922l-6.70312 2.1172m5.72656-1.8086l.875.85937m13.0039-2.03906l-5.8789 3.85547m5.02344-3.29297l1.07422.58984m13.2578-.8789l-6.19921 3.3125m5.29688-2.83203l1.01562.6875m13.35547-.83203l-6.51172 2.64062m5.5664-2.25781l.94141.78906m13.44922-.79687l-6.76953 1.89062m5.78516-1.61719l.84375.88672m12.5-2.7539l-4.85547 5.07812m4.14844-4.33984l1.17968.33203m13.92578 1.52734l-7.02734-.11719m6.0039.09766l.5586 1.09375m10.34766 2.3789l-.16016-7.02343m.13672 6l-1.07031.60156m12.16406-.32031l4.32812-5.53906m-3.6953 4.73047l-1.21095-.21094m13.98047 1.08203l4.15235-5.66797m13.6289 5.41016l-4.77734-5.14844m4.08203 4.39844l-.40234 1.16015m15-1.11718l-5.94922-3.73829m5.08203 3.19532l-.08984 1.22265m14.67187-1.57422l-6.7539-1.9453m5.77343 1.66015l.2539 1.19922"/><g clip-path="url(#L)"><path fill="none" stroke="#000" stroke-linecap="round" stroke-linejoin="round" stroke-miterlimit="10" stroke-width=".5" d="M147.46484 439.80078l-6.92968 1.16406"/></g><path fill="none" stroke="#000" stroke-linecap="round" stroke-linejoin="round" stroke-miterlimit="10" stroke-width=".5" d="M146.45703 439.97266l.7461.97265m13.625-.57812l-7.02735.03125m6.0039-.02735l.58204 1.08204m13.42578.41796l-6.36719-2.97656m5.4414 2.54297l.0625 1.22656m13.83204-.20703l-5.67188-4.14453m4.84766 3.53906l-.17578 1.21485m14.3711-.6875l-5.78516-3.9922m4.94531 3.41017l-.14453 1.21875m14.70703-1.42188l-6.59766-2.41797m6.59766 2.41797l.33594 2.42969m13.14453-3.05078l-6.92969-1.17578m6.92969 1.17578l.77344 2.32812m12.58984-2.94531l-7.02734.05469m7.02734-.0547l1.16797 2.16017m12.10937-1.625l-6.95312-1.01563m5.9414.86719l.41407 1.15625m13.9336-1.15625l-6.9922-.71485m6.9922.71485l.92577 2.26953m12.38672-2.25781l-6.98828-.73828m5.97266.6289l.45703 1.13672m12.55078-4.16016l-4.33984 5.52735m3.70703-4.72266l1.20703.21485m13.9414.7578l-6.74218 1.97266m5.76172-1.6875l.85546.87891m13.02735-2.07422l-5.91797 3.78906m5.0586-3.23828l1.0664.60157m12.94531-1.38672l-5.58984 4.2578m4.77344-3.63671l1.11718.51172m13.72266.72265l-7.00781.54688m5.98828-.46484l.65625 1.03515m13.13672-2.73437l-5.92578 3.78125m5.0625-3.23047l1.0703.60156m11.71485-2.40625l-3.13672 6.28906m2.67969-5.375l1.22656-.03125m11.89063-1.1289l-1.82813 6.78515m15.25-3.39453l-.01953-.19922-.0586-.1914-.09374-.17578-.45703-.37891-.19141-.0586-.20312-.01952-.19922.01953-.19141.05859-.45703.3789-.09375.17579-.0586.1914-.01953.19922.01954.19922.05859.1914.09375.1797.45703.375.1914.05859.19923.01953.20312-.01953.1914-.0586.45704-.375.09375-.17968.0586-.1914.01952-.19923m13.3164 0l-.01952-.19922-.0586-.1914-.09375-.17578-.46093-.37891-.19141-.0586-.19922-.01952-.19922.01953-.1914.05859-.45703.3789-.09766.17579-.0586.1914-.01953.19922.01954.19922.05859.1914.09766.1797.45703.375.1914.05859.19922.01953.19922-.01953.1914-.0586.46094-.375.09375-.17968.0586-.1914.01953-.19923M425.23828 443.5l-3.24219-6.23437m17.09375 5.89062l-4.3164-5.54297m3.6875 4.73438l-.5 1.12109m14.21094-.14453l-3.85157-5.8789m3.29297 5.02343l-.58984 1.07422m12.35156.34766l.375-7.01563m-.32031 5.9961l-1.11328.51953"/><g clip-path="url(#M)"><path fill="none" stroke="#000" stroke-linecap="round" stroke-linejoin="round" stroke-miterlimit="10" stroke-width=".5" d="M147.3711 426.07813l-6.7422 1.98046"/></g><path fill="none" stroke="#000" stroke-linecap="round" stroke-linejoin="round" stroke-miterlimit="10" stroke-width=".5" d="M147.3711 426.07813l1.71484 1.7539m11.74219-.73047l-7.02735-.0664m6.0039.05468l.56641 1.08985m13.4336.39453l-6.34766-3.01172m5.42188 2.57422l.05859 1.22656m12.375.9414l-2.73438-6.47265m13.98047 6.67969l1.40235-6.88672m14.2539 6.55078l-3.28125-6.21484m2.8047 5.3125l-.6875 1.01172m15.97655-1.63282l-6.27343-3.16796m5.35937 2.70703l.02734 1.22656m12.125 1l-2.12109-6.69922m1.8125 5.72656l-.85937.875m15.92187-.78125l-4.9961-4.9414m4.26954 4.22265l-.35156 1.17578m14.74218-.87109l-5.6953-4.11328m4.86718 3.51562l-.16797 1.21485m14.36719-.69922l-5.8086-3.94922m18.7461-.46484l-5.05469 4.8789m4.32031-4.16797l1.16797.37891m9.54297 4.76953l1.6211-6.83984m13.07812-.04688l-1.14453 6.9336m.97656-5.92578l1.16406-.39063m13.48047-.20703l-3.46875 6.11328m2.96484-5.22266l1.22657.03516m11.3086-1.35547l-.89845 6.97266m.76563-5.95703l1.14844-.4336m15.34765 3.24219l-6.9961-.67578m19.67579-1.69922l-5.72266 4.07813m16.26172-5.5547l-.17578 7.02735m.17578-7.02734l2.19531-1.09375M400 425.26172l-6.02734 3.61328m5.15234-3.08594l1.05078.63282m13.63672.53906l-7.02344.21484m20.23047-.97656l-6.8086 1.73828m5.82032-1.48437l.82422.90625m12.75781-2.5586l-5.36328 4.53516m15.33984 1.1836l1.3125-6.90235m-1.12109 5.89844l-1.17188.36328m15.53125.65625l-1.15625-6.9336"/><g clip-path="url(#N)"><path fill="none" stroke="#000" stroke-linecap="round" stroke-linejoin="round" stroke-miterlimit="10" stroke-width=".5" d="M146.72266 411.53125l-5.44532 4.44531"/></g><path fill="none" stroke="#000" stroke-linecap="round" stroke-linejoin="round" stroke-miterlimit="10" stroke-width=".5" d="M146.72266 411.53125l2.26172.94922m-3.0547-.30078l1.13282.47265m13.11328-.9375l-5.72266 4.07813m5.72266-4.07813l2.19531 1.09766m11.08985-1.13672l-5.66406 4.15625m4.83984-3.55469l1.10547.53516m12.39062 3.6914l-4.375-5.5m3.73828 4.69923l-.48828 1.125m13.78125.08984l-3.0586-6.32813m2.61329 5.40625l-.72266.98828m10.59375-.6289l4.71875-5.20703m-4.03125 4.44922l-1.1914-.30079m15.03906 1.78125l2.28125-6.64843m-1.94922 5.67968l-1.21094.19532m16.55078.7461l-2.43359-6.59376m2.08203 5.63281l-.8164.91797m16.26562-1.42187l-5.9961-3.66407m5.1211 3.12891l-.07031 1.22656m14.33594-.8203l-6.14844-3.40626m5.2539 2.91016l-.01953 1.22656m14.5586-1.5586l-6.8086-1.75m5.81641 1.4961l.28906 1.1914m13.51172-3.79687l-5.79687 3.96875m19.61328-2.875l-6.79688 1.77734m5.8086-1.51562l.83203.90234m12.92969-2.3203l-5.71485 4.08983m4.88281-3.49218l1.09766.54297m13.19531-.91797l-6.00781 3.64453m5.13281-3.11328l1.05469.6289m13.26563-.92578l-6.26563 3.17969m19.63672-.1211l-6.3789-2.9414m5.45312 2.51562l.07031 1.22266m14.44531-2.85547l-6.92968 1.17969m17.26953-4.07031l-.97657 6.96093m.83594-5.94921l1.15235-.41797m11.08593-.55078l1.45703 6.875m-1.24609-5.875l.9414-.78907m15.17579.5547l-4.5664 5.34374m3.90234-4.5664l1.1953.26562m11.92579-1.58203l-2.85156 6.42187m2.4375-5.48828l1.22265-.08594m10.59766-1.11718l.96484 6.96093m-.82422-5.94921l.9961-.71875m10.33984 5.82421l4.64063-5.27343m-3.96485 4.50781l-1.19531-.28516m16.95703 1.83594l-1.60156-6.84375m1.36719 5.84766l-.92188.8086"/><g clip-path="url(#O)"><path fill="none" stroke="#000" stroke-linecap="round" stroke-linejoin="round" stroke-miterlimit="10" stroke-width=".5" d="M146.26953 397.75781l-4.53906 5.35938"/></g><path fill="none" stroke="#000" stroke-linecap="round" stroke-linejoin="round" stroke-miterlimit="10" stroke-width=".5" d="M146.26953 397.75781l2.39844.52344m-3.0586.25781l1.19922.25781m12.88282-.9453l-4.75391 5.17187m4.7539-5.17188l2.375.61719m-3.0664.13672l1.1875.3086m11.82813-1.70313l-2.77344 6.45703m2.77344-6.45703l2.4453-.20313m-2.84765 1.14063l1.22266-.10156m7.60156 2.21875l7.01563.34375m-5.9961-.29297l-.52344-1.10938m14.00782 3.8711l4.64062-5.27735m-3.96484 4.50781l-1.19531-.28125m13.35546.53516l5.59375-4.25m-4.77734 3.63281l-1.11719-.51172m13.96875 1.52735l4.89063-5.04688m-4.17969 4.3125l-1.17969-.33984m18.99219.72265l-5.52734-4.33984m4.72265 3.70703l-.21484 1.20703m14.58984-.94921L247.5 398.64063m5.16016 3.0703l-.0586 1.22657m14.32031-.8164L260.75 398.7578m5.27344 2.8711l-.01172 1.22656m14.64453-2.66797l-7.01172.5m5.99219-.42578l.64844 1.03906m13.5703-1.78125l-6.78124 1.83594m6.78125-1.83594l1.67969 1.78906m11.55468-2.04687l-6.62109 2.35547m6.6211-2.35547l1.8125 1.65234m11.4375-1.82812l-6.48829 2.70703m6.48828-2.70703l1.89454 1.55469m11.53515-1.23438l-6.71484 2.0664m5.73828-1.76562l.86719.86328m13.44922-1.08203l-6.76563 1.90235m5.78125-1.62891l.84766.88672m13.41797.85156l-6.69922-2.125m5.72265 1.8164l.22266 1.20704m14.20703-2.375l-6.97656.83203m5.96094-.71094l.70312 1.0039m12.39844-3.40234l-4.51563 5.38282m4.51563-5.38282l2.40234.51172m9.16406-1.29687l-1.01953 6.95312m.8711-5.9414l1.15625-.41016m14.17968.29297l-4.76562 5.16406m16.03906-6.07812l-.67969 6.99218m.58204-5.97656l1.1328-.46484m11.63282-.55469l.61328 7m10.32031-1.23438l5.375-4.52734m10.62891 5.77735v-7.02735m0 6.0039l-1.08594.57423"/><g clip-path="url(#P)"><path fill="none" stroke="#000" stroke-linecap="round" stroke-linejoin="round" stroke-miterlimit="10" stroke-width=".5" d="M145.66406 384.02734l-3.32812 6.19141"/></g><path fill="none" stroke="#000" stroke-linecap="round" stroke-linejoin="round" stroke-miterlimit="10" stroke-width=".5" d="M145.66406 384.02734l2.45313.01563m10.92969.02344l-3.46485 6.11328m3.46484-6.11328l2.45313.0664m-2.95703.82422l1.22656.03125m12.61328-.91015l-3.5039 6.08984m3.5039-6.08985l2.45313.08204m-2.96485.80468l1.22657.03907m13.91015.39453l-6.125 3.44922m5.23438-2.94922l1.03125.66406m8.36719 3.60938l3.48828-6.09766m-2.98047 5.21094l-1.22656-.03907m18.73437-4.02343l-5.91016 3.80468m15.83985 1.58204l.85937-6.97266m-.73437 5.96094l-1.14453.4375m16.33593.23046l-3.14453-6.28515m2.6875 5.3711l-.71094 1m16.26563-2.1797l-6.70703-2.09765m5.73047 1.79297l.22656 1.20312m13.96484-.6211l-6.5078-2.65233m5.5625 2.26562l.125 1.21875m14.39452-2.1914l-7.02734.0664m6.0039-.05469l.58594 1.07813m13.47656-2.41797l-6.47656 2.72265m5.53516-2.32812l.95312.77734m12.76563-2.05859l-5.40235 4.4961m5.40235-4.4961l2.27344.92969m11.76562.51953l-6.84375 1.59765m6.84375-1.59765l1.61328 1.85156m11.66016-2l-6.76563 1.89453m6.76563-1.89453l1.69531 1.77344m11.54297-2.01953l-6.60938 2.38672m5.64844-2.03907l.91016.82032m11.86328-2.9922l-3.60547 6.03517m3.60547-6.03516l2.44922.1211m11.42578.29687l-4.72656 5.19922m4.72656-5.19922l2.3789.60547m10.45704-.97266l-3.76563 5.9336m3.76563-5.9336l2.44531.1875m11.04688-.0664l-4.1211 5.6914m4.1211-5.6914l2.42968.33593m10.6211-.50781l-3.59375 6.03906m3.0703-5.16406l1.22657.0625m10.91406-1.4336l-.1953 7.02735m.16796-6.0039l1.09766-.54688m10.98437-.27735l2.32422 6.62891m-1.98828-5.66406l.83203-.90235m9.84766 2.64454l6.92187 1.21484m11.63281 2.42187l-3.55468-6.05859m3.55468 6.0586l-1.28515 2.08984"/><g clip-path="url(#Q)"><path fill="none" stroke="#000" stroke-linecap="round" stroke-linejoin="round" stroke-miterlimit="10" stroke-width=".5" d="M145.03125 370.44922l-2.0625 6.71875"/></g><path fill="none" stroke="#000" stroke-linecap="round" stroke-linejoin="round" stroke-miterlimit="10" stroke-width=".5" d="M145.03125 370.44922l2.40625-.46485m11.32031.6211l-2.88672 6.40625m2.88672-6.40625l2.44922-.16016m12.08984 1.07813l-5.33593 4.57031m5.33594-4.57031l2.28515.89453m11.29688-.54688l-5.8672 3.875m5.8672-3.875l2.15234 1.17188m-3.00781-.60938l1.07812.58985m13.58985.01953l-6.85938 1.52734m5.85938-1.30469l.79687.9336m12.42578-3.01172l-4.67578 5.24219m3.9961-4.48047l1.1914.28906m13.86328 2.46094l-6.79687-1.78125m17.8125 4.22656l-2.19531-6.67578m1.875 5.70703l-.85157.88281m15.48438-.42968l-4.1914-5.64063m3.58202 4.82031l-.52734 1.10938m15.52344-1.58985l-6.33594-3.03906m5.41406 2.59766l.05078 1.22265m14.4414-1.5039l-6.84374-1.59375m5.84766 1.36328l.3125 1.1836m14.07421-1.41407l-6.99609-.67187m6.9961.67187l.9375 2.26563m12.32812-3.26954l-6.89844 1.33594m6.89844-1.33594l1.54297 1.91016m-2.54688-1.71484l.76953.95312m13.3711-1.76172l-6.54297 2.5625m6.54297-2.5625l1.86328 1.59766m10.9375-2.49219l-5.51563 4.35156m4.71485-3.71875l1.1211.4922m11.05077-2.3672l-1.625 6.83594m1.625-6.83594l2.3711-.62109m11.71093.90235l-3.16015 6.27343m3.16015-6.27344l2.45313-.05468m11.47656.44922l-4.39062 5.48437m4.39062-5.48437l2.41016.45312M385.78125 371l-4.22266 5.61719M385.78125 371l2.42578.3789m11.05078-.25l-4.54297 5.35938m4.54297-5.35937l2.39844.51953m10.57422-.77735l-3.85547 5.875m3.85547-5.875l2.4414.22266m10.51563-.42969l-3.14062 6.28516m3.14062-6.28516l2.45313-.0586m10.16796-.19921l-1.7539 6.80469m1.5-5.8164l1.1914-.28517m14.9375 1.97266l-6.875 1.45313m18.53125 2.30468l-3.55468-6.0625m3.55468 6.0625l-1.28515 2.08985m.76562-2.97266l-.64062 1.04688"/><g clip-path="url(#R)"><path fill="none" stroke="#000" stroke-linecap="round" stroke-linejoin="round" stroke-miterlimit="10" stroke-width=".5" d="M146.09375 357.67188l-4.1875 5.64062"/></g><path fill="none" stroke="#000" stroke-linecap="round" stroke-linejoin="round" stroke-miterlimit="10" stroke-width=".5" d="M146.09375 357.67188l2.42578.36718m11.27344-.03515l-4.95703 4.98046m4.23437-4.2578l1.17578.35546m12.94922-.99219l-5.1289 4.8047m5.1289-4.8047l2.32031.79688m11.09766-.67969l-5.33594 4.57031m5.33594-4.5703l2.28516.89843m11.29297-.55078l-5.86328 3.875m5.86328-3.875l2.15625 1.17187m11.53515-.42187l-6.61328 2.375m6.61328-2.375l1.8164 1.64844m11.64845-1.08594l-6.91407 1.2539m6.91407-1.2539l1.51953 1.92578m11.32422.55469l-5.96875-3.71094m5.09765 3.17187l-.08203 1.22266m13.28516.34766l-4.00781-5.77344m3.42578 4.9336l-.5625 1.08984m15.65234-1.67579l-6.39063-2.91796m6.39063 2.91796l.14844 2.44922m13.28515-2.74609l-6.6289-2.32813m6.6289 2.32813l.3711 2.42578M279.5 361.32031l.1875 1.21094m14.20312-1.25l-6.84765-1.57813m6.84765 1.57813l.63282 2.3711m-1.6289-2.59766l.3164 1.1836m13.90625-2.85157l-6.67188 2.21094m6.67188-2.21094l1.77344 1.69531m-2.7461-1.3711l.88672.84376m12.86328-2.1875l-5.59765 4.25m5.59765-4.25l2.22656 1.03125m9.1836-2.30469l-1.78906 6.79688m1.52734-5.8047l1.19531-.28515m11.0664-.79687l.83985 6.97656m-.71484-5.96094l1.0039-.69922m13.85157-.11328l-2.48829 6.57031m2.12891-5.61328l1.21485-.15625m13.05078-.51172l-3.67188 5.9922m3.67188-5.9922l2.44921.15235m11.65235.5039l-5.24219 4.6797m5.24219-4.6797l2.30078.85157m11.10547-.7422l-5.42578 4.46485m5.42578-4.46484l2.26562.9414m10.85157-1.16406l-5.03125 4.90625m5.03125-4.90625l2.33593.7461m-3.0664-.03125l1.16797.375m12.92968-1.03516l-5.1328 4.80078m5.1328-4.80078l2.32032.79688m11.10937-.66797l-5.36328 4.54296m5.36328-4.54296l2.27735.90625m-3.0586-.2461l1.14063.45313m13.77734.86719l-7.0039.57812m5.98437-.49219l.66015 1.03125m11.1211 2.55469l-1.89844-6.76563m1.89844 6.76563l-1.77735 1.69531"/><g clip-path="url(#S)"><path fill="none" stroke="#000" stroke-linecap="round" stroke-linejoin="round" stroke-miterlimit="10" stroke-width=".5" d="M146.875 345.15625l-5.75 4.04297"/></g><path fill="none" stroke="#000" stroke-linecap="round" stroke-linejoin="round" stroke-miterlimit="10" stroke-width=".5" d="M146.875 345.15625l2.1875 1.10938m11.74219.49218l-6.97656.83985m5.96093-.71875l.69922 1.0078m12.52734-3.28905l-4.77343 5.16015m4.77344-5.16015l2.375.6289m9.3203-1.47656l-1.53124 6.85547m1.3086-5.85938l1.18358-.32421m10.67579-.63672l1.82422 6.78515m15.90234-3.72265l-6.9961.66015m5.97657-.5625l.67578 1.02344m13.63672-1.30469l-6.95313 1.02735m5.9414-.87891l.72657.98828m13.48828.39453l-6.72656-2.03515m5.7461 1.73828l.23827 1.20312m12.66016.98828l-3.9375-5.8203m3.36719 4.97265l-.57422 1.08203m15.05469-.7461l-5.1289-4.80078m5.1289 4.80079l-.63672 2.37109m-.10938-3.0664l-.3203 1.18359m15.0039-1.40625l-6.3711-2.96485m6.3711 2.96485l.1289 2.45312m13.51172-4.08203l-7.01953.29297m7.01953-.29297l1.24219 2.11719m-2.26562-2.07422l.62109 1.0586m13.28516-2.64454l-6.16016 3.3789m6.16016-3.3789l2.05468 1.34375m-2.94922-.85156l1.02735.67187m13.07812-1.34765l-5.94922 3.7461m5.94922-3.7461l2.1289 1.21875m-2.99608-.67188l1.0664.60938m13.22266-.97656l-6.16016 3.38671m6.16016-3.38671l2.05078 1.34765m10.6289-2.17969l-4.89062 5.05079m4.17969-4.3125l1.17578.33984m12.19531-1.57422l-3.58203 6.04297m3.0625-5.16406l1.22656.05859m13.72266.10547l-5.8086 3.95703m4.96094-3.3789l1.08594.5703m13.01563-1.23437l-5.6875 4.1289m5.6875-4.1289l2.20312 1.07422m10.89453-1.34375l-5.2539 4.66797m5.2539-4.66797l2.30078.85547m11.20703-.61719l-5.64062 4.1914m5.64062-4.1914l2.21875 1.05469m11.32813-.69922l-6.10156 3.48047m6.10156-3.48047l2.07422 1.3086m-2.96094-.80079l1.03516.65235m13.2539-1l-6.27734 3.16406m6.27734-3.16406l2.0039 1.41406m-2.91796-.95703l1 .71094m13.25781-1.10547l-6.33593 3.03515m6.33593-3.03515l1.97657 1.45703m-2.89844-1.01563l.98828.73047m13.57812.0039l-6.99218.6836"/><g clip-path="url(#T)"><path fill="none" stroke="#000" stroke-linecap="round" stroke-linejoin="round" stroke-miterlimit="10" stroke-width=".5" d="M467.0586 346.83594l1.35546 2.04687"/></g><g clip-path="url(#U)"><path fill="none" stroke="#000" stroke-linecap="round" stroke-linejoin="round" stroke-miterlimit="10" stroke-width=".5" d="M147.02734 332.08203l-6.05468 3.5625"/></g><path fill="none" stroke="#000" stroke-linecap="round" stroke-linejoin="round" stroke-miterlimit="10" stroke-width=".5" d="M146.14844 332.60156l1.04297.64063m13.5703 1.29687l-6.89452-1.35156m6.89453 1.35156l.71484 2.34766m12.6289-2.51172l-6.95312-1.02344m6.95313 1.02344l.82422 2.3086m12.33203-3.98048l-6.63281 2.32032m6.6328-2.32031l1.8047 1.66015m11.67187-1.00781l-6.95312 1.01562m6.95312-1.01562l1.45313 1.97656m11.41406.3125l-6.0586-3.5625m5.17579 3.04297l-.05078 1.22656m14.70703-2.91797l-6.97657.85938m5.96094-.73438l.70313 1.00391m13.61328-.17578l-6.94922-1.04688m5.9375.89454l.41016 1.15625m12.64062 1.21093l-4.39844-5.48047m4.39844 5.48047l-.96875 2.25781m14.46875-2.41406l-4.76563-5.16406m4.76563 5.16406l-.8125 2.3164m.11719-3.0664l-.8125 2.3164m15.8164-3.17187l-6.75-1.95312m6.75 1.95312l.50391 2.40235m-1.48828-2.6875l.2539 1.20312m14.10157-2.64062l-6.86719 1.48828m6.86719-1.48828l1.58594 1.875m-2.58204-1.65625l.78907.9375m13.26953-1.90235l-6.36328 2.98438m6.36328-2.98438l1.96484 1.47266m-2.89062-1.03906l.98437.73828m13.42578-.74219l-6.69922 2.125m6.69922-2.125l1.7539 1.71485m-2.73046-1.40625l1.7539 1.71484m12.53907-2.01172l-6.70313 2.10156m6.70313-2.10156l1.75 1.71875m-2.72266-1.41406l.8711.85937m13.4453-1.07422l-6.7578 1.92188m6.7578-1.92188l1.69923 1.76954m10.67578-3.33594l-4.8789 5.05469m4.16796-4.32032l1.17969.33594m11.92969-1.71094l-3.04297 6.33594m2.59765-5.41406l1.22657-.05078m12.76953-.7461l-3.51563 6.08594m3.0039-5.19922l1.22657.04297m12.05469-1.1836l-2.42578 6.59376m2.07422-5.63282l1.21484-.16796m13.90234.21484l-5.32812 4.57812m4.55469-3.91406l1.14062.44531m13.71485.41797l-6.85938 1.52344m6.85938-1.52344l1.59375 1.86328m11.70312-1.93359l-6.82422 1.66406m6.82422-1.66406l1.63281 1.83203m-2.625-1.58984l.8164.91406m13.28126-1.76953l-6.40625 2.88672m6.40625-2.88672l1.9414 1.5039m-2.87109-1.08203l1.9375 1.5m12.1211-2.28125l-6.03125 3.60938"/><g clip-path="url(#V)"><path fill="none" stroke="#000" stroke-linecap="round" stroke-linejoin="round" stroke-miterlimit="10" stroke-width=".5" d="M466.57813 332.0586l2.09765 1.26952"/></g><path fill="none" stroke="#000" stroke-linecap="round" stroke-linejoin="round" stroke-miterlimit="10" stroke-width=".5" d="M465.69922 332.58594l1.05078.63281"/><g clip-path="url(#W)"><path fill="none" stroke="#000" stroke-linecap="round" stroke-linejoin="round" stroke-miterlimit="10" stroke-width=".5" d="M146.04297 317.6914l-4.08594 5.71485"/></g><path fill="none" stroke="#000" stroke-linecap="round" stroke-linejoin="round" stroke-miterlimit="10" stroke-width=".5" d="M145.44922 318.51953l1.21484.16406m11.89063 5.15235l-2.47656-6.57422m2.11328 5.61719l-.8086.92187m16.46485-1.83984l-6.4336-2.82422m6.4336 2.82422l.18359 2.44531m13.33203-4.67578l-6.83594 1.63281m6.83594-1.63281l1.6211 1.83984M200.73047 320l-6.9414 1.09375M200.73046 320l1.47656 1.96094m11.85938-1.82031l-6.98047.8164m6.98047-.8164l1.39453 2.01562m11.89844-1.0586L220.42188 320m5.92968.9375l.39844 1.16016m13.13281.72656l-5.35547-4.55078m5.35547 4.55078l-.52344 2.39453m13.54297-2.08594l-4.76172-5.16797m4.76172 5.16797l-.8125 2.3125m.1211-3.0664l-.8125 2.3164m15.3164-2.13281l-5.7578-4.03125m5.7578 4.03125L266.41406 325m-.53906-3.02344l-.29688 2.4375m15.01954-3.1914l-6.89454-1.34766m6.89454 1.34766l.71484 2.34765m-1.71875-2.54297l.35937 1.17188m13.90625-2.5625l-6.78906 1.82031m6.78906-1.82031l1.67188 1.79687m-2.66016-1.53125l.83594.89844m13.34375-1.53515l-6.54297 2.5625m6.54297-2.5625l1.86328 1.59765m-2.8125-1.22265l.92969.79687m13.32422-1.19922l-6.51953 2.61719m6.51953-2.61719l1.8789 1.58203m-2.82812-1.19922l.9414.78907m13.38282-1.01563l-6.63672 2.30469m6.63672-2.30469l1.79687 1.66797m-2.76172-1.33203l.89844.83594m13.19922-1.60157l-6.27344 3.16407m6.27344-3.16407l2.0039 1.41797m-2.91796-.95703l1.0039.71094m13.02735-1.51563l-5.875 3.85547m5.875-3.85547l2.14844 1.1797m-3.00391-.6211l1.07422.58984m13.25781-.8711l-6.20312 3.30079m6.20312-3.30078l2.03516 1.3711m10.99218-1.82423l-5.6289 4.20703m5.6289-4.20703l2.22266 1.04688m10.88281-1.30469l-5.20703 4.72266m5.20703-4.72266l2.3086.83203m10.85156-.99219l-4.89844 5.03907m4.89844-5.03907l2.35547.6836m10.72656 4.5625l-4.42969-5.45313m18.97657 3.41406l-6.89454-1.37109m5.89063 1.17188l.35156 1.17187m13.97266-2.3086l-6.90625 1.30079m6.90625-1.30078l1.53125 1.91406m-2.53516-1.72656l1.53125 1.91797m12.09375-3.62891l-5.51953 4.34766"/><g clip-path="url(#X)"><path fill="none" stroke="#000" stroke-linecap="round" stroke-linejoin="round" stroke-miterlimit="10" stroke-width=".5" d="M466.32031 318.375l2.2461.98828"/></g><g clip-path="url(#Y)"><path fill="none" stroke="#000" stroke-linecap="round" stroke-linejoin="round" stroke-miterlimit="10" stroke-width=".5" d="M465.51953 319.00781l2.2461.98828"/></g><path fill="#ff3030" fill-rule="evenodd" d="M335.67188 472.08594h7.6953V461.9414h-7.6953v10.14453"/><path fill="azure" fill-rule="evenodd" d="M337.5039 463.77344h.83594v5.73828h3.19141v.74219h-4.02734v-6.48047"/><path fill="#ff3030" fill-rule="evenodd" d="M446.63281 472.08594h7.6914V461.9414h-7.6914v10.14453"/><path fill="azure" fill-rule="evenodd" d="M448.46484 463.77344h.83204v5.73828h3.1953v.74219h-4.02734v-6.48047"/><path fill="#00f" fill-rule="evenodd" d="M383.80078 436.57813h8.61719v-10.14454h-8.61719v10.14454"/><path fill="azure" fill-rule="evenodd" d="M385.63281 428.26563h.83203v2.82421h3.28907v-2.82421h.83203v6.48046h-.83203v-2.91406h-3.28907v2.91406h-.83203v-6.48046"/><path fill="#ff3030" fill-rule="evenodd" d="M295.72656 405.51172h7.69531v-10.14453h-7.6953v10.14453"/><path fill="azure" fill-rule="evenodd" d="M297.5586 397.19922h.83593v5.73828h3.1914v.74219h-4.02734v-6.48047"/><path fill="#00f" fill-rule="evenodd" d="M370.48438 401.07422h8.62109v-10.14844h-8.6211v10.14844"/><path fill="azure" fill-rule="evenodd" d="M372.3164 392.76172h.83594v2.82031h3.28516v-2.82031h.83203v6.47656h-.83203v-2.91406h-3.28516v2.91406h-.83593v-6.47656"/><path fill="#ff3030" fill-rule="evenodd" d="M446.63281 378.88281h7.6914v-10.14844h-7.6914v10.14844"/><path fill="azure" fill-rule="evenodd" d="M448.46484 370.5664h.83204v5.7422h3.1953v.73827h-4.02734v-6.48046"/><path fill="#ff3030" fill-rule="evenodd" d="M198.08203 356.6875h7.69531v-10.14453h-7.6953v10.14453"/><path fill="azure" fill-rule="evenodd" d="M199.91797 348.375h.83203v5.74219h3.19531v.73828h-4.02734V348.375"/><path fill="#ffffe0" fill-rule="evenodd" d="M425.67578 419.0586h22.1836v-10.19141h-22.1836v10.1914"/><path fill-rule="evenodd" d="M429.17578 410.69922h.51172v6.29297h-.78906v-4.48828h-1.38672v-.5547l.5586-.0664.2539-.05469.22656-.08984.20313-.14062.17578-.21094.14062-.29297.10547-.39453m4.8164 0l.22657.01953.21875.05469.21094.08984.19531.1211.1836.14843.17187.17578.30078.41797.24219.4961.17969.54687.11328.57813.03906.58984-.03906.59375-.11329.58594-.17968.55469-.24219.5-.30078.42968-.17188.17969-.18359.15234-.19531.1211-.21094.09375-.21875.0586-.22656.01952-.23047-.01953-.21875-.0586-.20703-.09374-.19922-.1211-.1836-.15234-.17187-.17969-.30078-.42969-.24219-.5-.17969-.55468-.11328-.58594-.03906-.59375h.83594l.02734.5625.08203.50781.125.4414.16406.375.19141.30079.21094.22266.22265.13671.22657.04688.22265-.04688.22266-.13671.21094-.22266.1914-.30078.16407-.375.125-.4414.08203-.50782.02734-.5625-.02734-.5586-.08203-.5039-.125-.4336-.16407-.36718-.1914-.28906-.21094-.21485-.22266-.13281-.22265-.04297-.22656.04297-.22266.13281-.21094.21485-.1914.28906-.16407.36719-.125.43359-.08203.5039-.02734.5586h-.83594l.03906-.58984.11328-.57813.1797-.54687.24218-.4961.30078-.41797.17188-.17578.18359-.14844.19922-.12109.20703-.08984.21875-.05469.23047-.01953m4.94922 0l.23046.01953.21875.05469.20704.08984.19921.1211.1836.14843.17187.17578.30079.41797.24218.4961.17969.54687.11328.57813.03906.58984-.03906.59375-.11328.58594-.17969.55469-.24219.5-.30078.42968-.17187.17969-.1836.15234-.19921.1211-.20704.09375-.21875.0586-.23046.01952-.22657-.01953-.21875-.0586-.21093-.09374-.19532-.1211-.18359-.15234-.17188-.17969-.30078-.42969-.24218-.5-.1797-.55468-.11327-.58594-.03906-.59375h.83203l.03125.5625.08203.50781.125.4414.16406.375.1875.30079.21094.22266.22265.13671.22657.04688.22656-.04688.22265-.13671.21094-.22266.1914-.30078.16407-.375.125-.4414.08203-.50782.02735-.5625-.02735-.5586-.08203-.5039-.125-.4336-.16406-.36718-.1914-.28906-.21094-.21485-.22266-.13281-.22656-.04297-.22657.04297-.22265.13281-.21094.21485-.1875.28906-.16406.36719-.125.43359-.08203.5039-.03125.5586h-.83204l.03907-.58984.11328-.57813.17969-.54687.24218-.4961.30079-.41797.17187-.17578.1836-.14844.1953-.12109.21094-.08984.21875-.05469.22657-.01953m4.95312 0l.38672.02734.35938.08203.32421.13672.27735.1875.23047.23828.17187.28516.10938.33203.03906.375-.01953.27735-.0586.23437-.08593.19922-.11329.17187-.1289.14063-.14063.125-.28515.19531.23047.11719.20703.14844.1836.17187.15233.1914.125.21485.08985.23047.05469.24219.01953.25781-.03516.3086-.10156.32812-.17188.32422-.23828.30469-.3086.26953-.375.21484-.21093.08203-.22656.0586-.2461.03906-.26171.01562-.25782-.01562-.24218-.03906-.22266-.0586-.20703-.08203-.35938-.21484-.28906-.26954-.22265-.30468-.15625-.32422-.09375-.32813-.03125-.30859h.83203l.02734.2539.07813.23438.125.21094.16015.1875.1914.14844.21876.11718.24219.07032.2539.02734.25781-.02734.23829-.07032.21875-.11718.1953-.14844.16016-.1875.1211-.21094.07812-.23437.02735-.25391-.02735-.2539-.07812-.23438-.1211-.21094-.16015-.1875-.19531-.15234-.21875-.11328-.23829-.07422-.2578-.02344-.25392.02344-.24218.07422-.21875.11328-.1914.15234-.16017.1875-.125.21094-.07812.23437-.02734.25391h-.83204l.01954-.2539.05468-.23829.09375-.22656.1211-.20703.15625-.1914.17969-.17188.20703-.15235.23437-.1328-.28906-.19532-.13672-.125-.1289-.14063-.11329-.17187-.08984-.19922-.05469-.23438-.02344-.27734h.78907l.02343.21485.06641.1914.10156.16797.13672.14063.16797.10937.1875.08203.20703.05078.21875.01563.22266-.01563.20703-.05078.1875-.08203.16406-.10938.13672-.14062.10547-.16797.0664-.1914.02344-.21485-.02344-.21484-.0664-.1875-.10547-.16797-.13672-.14063-.16406-.10937-.1875-.08203-.20703-.05078-.22266-.01563-.21875.01563-.20703.05078-.1875.08203-.16797.10937-.13672.14063-.10156.16797-.0664.1875-.02344.21484h-.78907l.03907-.375.10937-.33203.17188-.28516.23046-.23828.28125-.1875.32032-.13672.35937-.08203.38672-.02734"/><path fill="#ffffe0" fill-rule="evenodd" d="M337.30469 351.98438h22.17969v-10.19141h-22.1797v10.1914"/><path fill-rule="evenodd" d="M340.80469 343.625h.50781v6.29297h-.78516v-4.48828h-1.39062v-.55469l.5625-.0664.25-.0547.23047-.08984.20312-.14062.17578-.21094.14063-.29297.10547-.39453m4.8125 0l.23047.01953.21875.05469.20703.08984.19922.1211.18359.14843.17188.17579.30078.41796.24218.4961.1797.54687.11327.57813.03906.58984-.03906.59375-.11328.58594-.17969.55078-.24218.5039-.30079.4297-.17187.17968-.1836.15235-.19921.12109-.20703.09375-.21875.0586-.23047.01952-.22656-.01953-.21875-.0586-.21094-.09374-.19531-.1211-.1836-.15234-.17187-.17969-.30079-.42968-.24218-.50391-.1836-.55078-.10937-.58594-.03906-.59375h.83203l.03125.5625.08203.50781.125.44141.16406.375.1875.30078.21094.22266.22265.13672.22657.04687.22656-.04687.22266-.13672.21093-.22266.19141-.30078.16406-.375.125-.4414.08203-.50782.02735-.5625-.02735-.5586-.08203-.5039-.125-.4336-.16406-.36718-.1914-.28906-.21094-.21485-.22266-.1328-.22656-.04298-.22656.04297-.22266.13281-.21094.21485-.1875.28906-.16406.36719-.125.4336-.08203.5039-.03125.5586h-.83203l.03906-.58985.10937-.57813.1836-.54687.24219-.4961.30078-.41796.17187-.17579.1836-.14843.1953-.1211.21094-.08984.21875-.05469.22657-.01953m5.09375 0h.50781v6.29297h-.78516v-4.48828h-1.39062v-.55469l.5625-.0664.25-.0547.23047-.08984.20312-.14062.17188-.21094.14453-.29297.10547-.39453m2.82422 2.17578h.78515l.01953-.3164.0586-.28516.10156-.2539.14063-.21485.17968-.17578.22266-.1289.26562-.07813.3086-.02735.23828.01953.22265.0625.20313.10157.17969.13671.14844.17579.11328.20703.0703.23437.02735.26563-.02344.26562-.0664.22656-.10938.19141-.15234.17188-.20313.16015-.24609.16797-.63281.38672-.53906.3164-.4375.31641-.34766.32422-.26172.33594-.1914.35156-.125.36719-.07032.39453-.01953.41797h4.21094v-.73828h-3.33203l.08203-.28516.11719-.23828.14843-.19922.1836-.17969.23437-.17187.27735-.17578.71484-.41797.41797-.20313.34375-.23046.28125-.25391.21875-.26563.16406-.27734.11328-.28516.0625-.28515.01953-.28125-.04296-.38281-.1172-.34766-.1914-.3086-.25-.26171-.30078-.21485-.34766-.15625-.3789-.10156-.40625-.03125-.4375.03125-.39453.10156-.35547.16406-.30469.23438-.25.30469-.1836.375-.11718.44531-.03906.51953"/><path fill="#ffffe0" fill-rule="evenodd" d="M208.59375 407.8125h22.17969v-10.1914h-22.17969v10.1914"/><path fill-rule="evenodd" d="M212.09375 399.45313h.50781V405.75h-.78515v-4.49219h-1.39063v-.55469l.5586-.0664.2539-.05078.23047-.08985.20313-.14062.17187-.21094.14453-.29687.10547-.39454m4.8125 0l.23047.01954.21875.05468.20703.08985.19531.1211.1836.14843.17187.17578.30469.42188.24219.49218.17968.54688.10938.57812.03906.59375-.03906.58985-.10938.58593-.17968.5547-.2422.5-.30468.42968-.17187.17969-.1836.15234-.19531.125-.20703.08984-.21875.0586-.23047.01953-.23047-.01953-.21875-.0586-.20703-.08984-.19531-.125-.1836-.15234-.17187-.1797-.30469-.42968-.24219-.5-.17968-.55469-.10938-.58593-.03906-.58985h.83203l.03125.5625.07813.5039.1289.44532.16016.375.1914.29688.21094.22265.22266.13672.22656.04688.22656-.04688.22266-.13672.21094-.22265.1914-.29688.16016-.375.1289-.44531.08204-.5039.02734-.5625-.02734-.5625-.08203-.5-.12891-.4375-.16016-.36329-.1914-.29297-.21094-.21484-.22266-.13281-.22656-.04297-.22656.04297-.22266.1328-.21094.21485-.1914.29297-.16016.36328-.1289.4375-.07813.5-.03125.5625h-.83203l.03906-.59375.10938-.57812.17968-.54688.2422-.49219.30468-.42187.17187-.17578.1836-.14844.19531-.1211.20703-.08984.21875-.05468.23047-.01954m5.08984 0h.51172V405.75h-.78906v-4.49219h-1.38672v-.55469l.5586-.0664.2539-.05078.22656-.08985.20703-.14062.17188-.21094.14063-.29687.10546-.39454m2.82422 2.17579h.78906l.01954-.31641.05859-.28516.09766-.2539.14062-.21485.1836-.17187.22265-.1289.26563-.08204.30468-.02734.23828.01953.22657.0625.20312.10156.17969.14063.14844.17187.11328.20703.07031.23438.02734.26562-.02343.26953-.0664.22266-.10938.1914-.15625.17188-.19922.16406-.2461.16407-.63672.39062-.53515.3125-.4375.3164-.34766.32423-.26562.33593-.1875.35157-.125.37109-.07031.39063-.01954.42187h4.21094v-.74219h-3.33203l.08203-.28515.11328-.23438.14844-.20312.1875-.1797.23047-.17187.27734-.17578.71875-.41406.41406-.20703.34766-.23047.28125-.25.21875-.26953.16406-.27735.10938-.28515.0664-.28516.01954-.28125-.04297-.38281-.1211-.34766-.1875-.30859-.25-.26172-.30468-.21094-.34375-.16015-.38282-.09766-.40625-.03515-.43359.03515-.39844.09766-.35547.16406-.30468.23438-.2461.30468-.1875.375-.11328.44531-.04297.51954"/><path fill="#ffffe0" fill-rule="evenodd" d="M239.66016 470.05078h22.18359v-10.1914h-22.1836v10.1914"/><path fill-rule="evenodd" d="M243.16016 461.6914h.51172v6.29688h-.78907v-4.49219h-1.38672v-.55468l.5586-.0625.2539-.0547.22657-.08983.20312-.14063.17578-.21094.14063-.29687.10547-.39453m4.8164 0l.22656.01953.21875.05469.21094.08984.19531.1211.1836.14843.17187.17578.30078.42188.2422.49218.17968.54688.11328.57812.03906.59375-.03906.59375-.11328.58204-.17969.55468-.24219.5-.30078.42969-.17187.17969-.1836.15234-.1953.125-.21095.08985-.21875.05859-.22656.01953-.23047-.01953-.21875-.0586-.20703-.08984-.19922-.125-.18359-.15234-.17188-.17969-.30078-.42969-.24218-.5-.1797-.55469-.11327-.58203-.03906-.59375h.83593l.02735.5625.08203.50391.125.44531.16406.375.1914.30078.21094.21875.22266.13672.22656.04688.22656-.04688.22266-.13672.20703-.21875.1914-.30078.16407-.375.125-.44531.08203-.5039.02735-.5625-.02735-.5625-.08203-.5-.125-.4375-.16406-.36329-.1914-.29297-.20704-.21484-.22266-.13281-.22656-.04297-.22656.04297-.22266.13281-.21093.21484-.19141.29297-.16406.36328-.125.4375-.08203.5-.02735.5625h-.83594l.03907-.59375.11328-.57812.17969-.54688.24218-.49218.30078-.42188.17188-.17578.1836-.14844.19921-.1211.20703-.08983.21875-.0547.23047-.01952m5.08985 0h.5078v6.29687h-.78515v-4.49219h-1.39062v-.55468l.5625-.0625.25-.0547.23047-.08983.20312-.14063.17578-.21094.14063-.29687.10547-.39453m2.82422 2.17578h.78515l.01953-.3164.0586-.28517.10156-.2539.14062-.21485.1797-.17187.22265-.1289.26562-.08204.3086-.02734.23828.01953.22265.0625.20313.10156.17969.14063.14843.17187.11329.20703.07421.23438.02344.26562-.02344.26954-.0625.22265-.11328.1914-.15234.17188-.20313.16406-.24609.16407-.63281.39062-.53906.3125-.4375.3164-.34766.32423-.26172.33594-.1914.35156-.125.3711-.06641.39062-.02344.42187h4.21094v-.74219h-3.33203l.08593-.28515.11329-.23438.14843-.20312.1875-.17969.23047-.17188.27735-.17578.71875-.41406.41406-.20703.34375-.23047.28125-.25.22265-.26953.16016-.27734.11328-.28516.0625-.28516.01953-.28125-.03906-.3828-.1211-.34767-.1914-.30859-.25-.26172-.30078-.21094-.34766-.16015-.3789-.09766-.40625-.03515-.4336.03515-.39844.09766-.35546.16406-.3047.23828-.25.30078-.18358.375-.1172.44532-.03905.51953"/></g></defs><use xlink:href="#Z"/></svg>